# FamiTracker text export 0.4.2

# Song information
TITLE           ""
AUTHOR          ""
COPYRIGHT       ""

# Song comment
COMMENT ""

# Global settings
MACHINE         0
FRAMERATE       0
EXPANSION       0
VIBRATO         1
SPLIT           32

# Macros
MACRO       0   0  -1  -1   0 : 10
MACRO       0   1  -1  -1   0 : 6
MACRO       0   2  -1  -1   0 : 9
MACRO       0   3  -1  -1   0 : 2 5 7 9 10 10 10 9 8 8 8 7 7 7 6 6 5 5 5 4 4 3 3 3 2 2 1 1 1 0
MACRO       0   4  -1  -1   0 : 2 5 7 9 10 10 10 9 8 8 8 7 7 7 6 6 5 5 5 4 4 3 3 3 2 2 1 1 1 0
MACRO       0   5  -1  -1   0 : 9 9 9 9 0
MACRO       0   6  -1  -1   0 : 14 14 14 14 14 13 13 12 12 11 11 11 10 10 10 10 10 9 9 8 7 6 5 3 2 0 0
MACRO       0   7  -1  -1   0 : 4 5 6 6 7 7 7 6 6 6 6 5 5 5 5 4 4 4 4 4 4 4 4 4 4 3 3 3 3 3 2 2 0
MACRO       0   8  -1  -1   0 : 10
MACRO       0   9  -1  -1   0 : 15 0
MACRO       0  10  -1  -1   0 : 14 14 14 14 14 14 0 0
MACRO       0  11  -1  -1   0 : 13 13 13 13 13 13 13 13 13 13 13 13 12 12 12 11 11 10 10 9 9 8 7 7 6 6 5 4 3 1 0 0
MACRO       0  12  -1  -1   0 : 15 11 8 5 3 2 0
MACRO       0  13  -1  -1   0 : 14 14 14 14 14 14 11 10 9 8 6 5 4 3 2 1 0 0 0 0 0 0
MACRO       0  14  -1  -1   0 : 14 14 13 13 13 12 12 11 11 11 10 10 10 9 9 9 8 8 7 7 7 6 6 6 5 5 4 4 4 3 3 3 2 2 2 1 1 0 0 0
MACRO       0  15  -1  -1   0 : 15 15 0
MACRO       0  16  -1  -1   0 : 5
MACRO       0  17   4  -1   0 : 15 15 15 15 15 15 15 15 15 14 14 14 13 13 12 12 12 13 13 13 14 14 14 14 14
MACRO       0  18  -1  -1   0 : 15 15 14 14 14 14 14 14 13 13 13 13 13 12 12 12 12 12 12 11 11 11 11 11 11 10 10 10 10
MACRO       2   6  -1  -1   0 : 6 18 40 40 37 32 21 10 -3 -20 -40 -59 -59 -55 -47 -30 -11 16 54 86 108 126 124 109 79 18 -3 -65 -99 -114 -116
MACRO       2  13  -1  -1   0 : 0 85
MACRO       4   0  -1  -1   0 : 2
MACRO       4   1  -1  -1   0 : 2
MACRO       4   2  -1  -1   0 : 1
MACRO       4   3  -1  -1   0 : 2
MACRO       4   4  -1  -1   0 : 1
MACRO       4   5  -1  -1   0 : 1
MACRO       4   6  -1  -1   0 : 2
MACRO       4   7  -1  -1   0 : 1
MACRO       4   8  -1  -1   0 : 2
MACRO       4   9  -1  -1   0 : 1
MACRO       4  11  -1  -1   0 : 2
MACRO       4  15  -1  -1   0 : 2
MACRO       4  18  -1  -1   0 : 0 1 2 1

# DPCM samples

# Instruments
INST2A03   0     0  -1  -1  -1   0 "V10_D2_16ms"
INST2A03   1     1  -1  -1  -1   1 "V6_D2_16ms"
INST2A03   2     2  -1  -1  -1   2 "V9_D1_16ms"
INST2A03   3     3  -1  -1  -1   3 "V2UpDwn0_D2_500ms"
INST2A03   4     4  -1  -1  -1   4 "V2UpDwn0_D1_500ms"
INST2A03   5     5  -1  -1  -1  -1 "V9x4_0_83ms"
INST2A03   6     6  -1   6  -1   6 "V14Down0_PSin_D2_450ms"
INST2A03   7     7  -1  -1  -1  -1 "ZelM_V4UpDwn0_550ms"
INST2A03   8    -1  -1  -1  -1  -1 "Simple"
INST2A03   9     9  -1  -1  -1  -1 "V12_0_33ms"
INST2A03  10    10  -1  -1  -1  -1 "V14x6_0_133ms"
INST2A03  11    11  -1  -1  -1  11 "V13Down0_D2_533ms"
INST2A03  12    12  -1  -1  -1  -1 "V15Dwn_100ms"
INST2A03  13    13  -1  13  -1  -1 "V15Down_P085_366ms"
INST2A03  14    14  -1  -1  -1  -1 "V14Dwn_666ms"
INST2A03  15    15  -1  -1  -1  -1 "V15x2_0_50ms"
INST2A03  16    16  -1  -1  -1  -1 "V5_16ms"
INST2A03  17    17  -1  -1  -1  -1 "V15DownUp_416ms"
INST2A03  18    18  -1  -1  -1  18 "V15Down11_483ms_D121"
INST2A03  19    -1  -1  -1  -1  -1 "New_Instrument19"
INST2A03  20    -1  -1  -1  -1  -1 "New_Instrument20"
INST2A03  21    -1  -1  -1  -1  -1 "New_Instrument21"
INST2A03  22    -1  -1  -1  -1  -1 "New_Instrument22"
INST2A03  23    -1  -1  -1  -1  -1 "New_Instrument23"

# Tracks

TRACK 192   5 190 "Off_We_Go_JPL"
COLUMNS : 1 1 1 1 1

ORDER 00 : 00 00 00 00 00

PATTERN 00
ROW 00 : F-3 02 . ... : A-2 00 . ... : F-2 00 . ... : 4-# 05 . ... : ... .. . ...
ROW 01 : --- .. . ... : --- .. . ... : --- .. . ... : ... .. . ... : ... .. . ...
ROW 02 : ... .. . ... : ... .. . ... : ... .. . ... : ... .. . ... : ... .. . ...
ROW 03 : ... .. . ... : ... .. . ... : ... .. . ... : ... .. . ... : ... .. . ...
ROW 04 : C-3 02 . ... : F-2 00 . ... : ... .. . ... : ... .. . ... : ... .. . ...
ROW 05 : --- .. . ... : --- .. . ... : ... .. . ... : ... .. . ... : ... .. . ...
ROW 06 : F-3 02 . ... : A-2 00 . ... : F-2 00 . ... : 4-# 05 . ... : ... .. . ...
ROW 07 : ... .. . ... : ... .. . ... : --- .. . ... : ... .. . ... : ... .. . ...
ROW 08 : ... .. . ... : ... .. . ... : ... .. . ... : 4-# 05 . ... : ... .. . ...
ROW 09 : ... .. . ... : ... .. . ... : ... .. . ... : ... .. . ... : ... .. . ...
ROW 0A : ... .. . ... : ... .. . ... : ... .. . ... : 4-# 05 . ... : ... .. . ...
ROW 0B : ... .. . ... : ... .. . ... : ... .. . ... : ... .. . ... : ... .. . ...
ROW 0C : --- .. . ... : --- .. . ... : F-2 00 . ... : 4-# 05 . ... : ... .. . ...
ROW 0D : ... .. . ... : ... .. . ... : --- .. . ... : ... .. . ... : ... .. . ...
ROW 0E : C-3 02 . ... : F-2 00 . ... : F-2 00 . ... : ... .. . ... : ... .. . ...
ROW 0F : --- .. . ... : --- .. . ... : --- .. . ... : ... .. . ... : ... .. . ...
ROW 10 : F-3 02 . ... : A-2 00 . ... : F-2 00 . ... : ... .. . ... : ... .. . ...
ROW 11 : --- .. . ... : --- .. . ... : ... .. . ... : ... .. . ... : ... .. . ...
ROW 12 : G-3 02 . ... : C-3 00 . ... : --- .. . ... : 4-# 05 . ... : ... .. . ...
ROW 13 : --- .. . ... : --- .. . ... : ... .. . ... : ... .. . ... : ... .. . ...
ROW 14 : F-3 02 . ... : A-2 00 . ... : F-2 00 . ... : 4-# 05 . ... : ... .. . ...
ROW 15 : --- .. . ... : --- .. . ... : --- .. . ... : ... .. . ... : ... .. . ...
ROW 16 : G-3 02 . ... : C-3 00 . ... : F-2 00 . ... : 4-# 05 . ... : ... .. . ...
ROW 17 : --- .. . ... : --- .. . ... : --- .. . ... : ... .. . ... : ... .. . ...
ROW 18 : A-3 02 . ... : F-3 00 . ... : F-2 00 . ... : 4-# 05 . ... : ... .. . ...
ROW 19 : --- .. . ... : --- .. . ... : --- .. . ... : ... .. . ... : ... .. . ...
ROW 1A : G-3 02 . ... : C-3 00 . ... : ... .. . ... : ... .. . ... : ... .. . ...
ROW 1B : --- .. . ... : --- .. . ... : ... .. . ... : ... .. . ... : ... .. . ...
ROW 1C : A-3 02 . ... : F-3 00 . ... : ... .. . ... : ... .. . ... : ... .. . ...
ROW 1D : --- .. . ... : --- .. . ... : ... .. . ... : ... .. . ... : ... .. . ...
ROW 1E : F-3 02 . ... : A-2 00 . ... : F-2 00 . ... : 4-# 05 . ... : ... .. . ...
ROW 1F : ... .. . ... : ... .. . ... : --- .. . ... : ... .. . ... : ... .. . ...
ROW 20 : ... .. . ... : ... .. . ... : ... .. . ... : 4-# 05 . ... : ... .. . ...
ROW 21 : ... .. . ... : ... .. . ... : ... .. . ... : ... .. . ... : ... .. . ...
ROW 22 : ... .. . ... : ... .. . ... : ... .. . ... : 4-# 05 . ... : ... .. . ...
ROW 23 : ... .. . ... : ... .. . ... : ... .. . ... : ... .. . ... : ... .. . ...
ROW 24 : ... .. . ... : ... .. . ... : F-2 00 . ... : 4-# 05 . ... : ... .. . ...
ROW 25 : ... .. . ... : ... .. . ... : --- .. . ... : ... .. . ... : ... .. . ...
ROW 26 : ... .. . ... : ... .. . ... : F-2 00 . ... : ... .. . ... : ... .. . ...
ROW 27 : ... .. . ... : ... .. . ... : --- .. . ... : ... .. . ... : ... .. . ...
ROW 28 : ... .. . ... : ... .. . ... : F-2 00 . ... : ... .. . ... : ... .. . ...
ROW 29 : ... .. . ... : ... .. . ... : ... .. . ... : ... .. . ... : ... .. . ...
ROW 2A : --- .. . ... : --- .. . ... : --- .. . ... : 4-# 05 . ... : ... .. . ...
ROW 2B : ... .. . ... : ... .. . ... : ... .. . ... : ... .. . ... : ... .. . ...
ROW 2C : ... .. . ... : ... .. . ... : ... .. . ... : 4-# 05 . ... : ... .. . ...
ROW 2D : ... .. . ... : ... .. . ... : ... .. . ... : ... .. . ... : ... .. . ...
ROW 2E : ... .. . ... : ... .. . ... : ... .. . ... : 4-# 05 . ... : ... .. . ...
ROW 2F : ... .. . ... : ... .. . ... : ... .. . ... : ... .. . ... : ... .. . ...
ROW 30 : A#3 02 . ... : D-3 00 . ... : A#2 00 . ... : 4-# 05 . ... : ... .. . ...
ROW 31 : --- .. . ... : --- .. . ... : --- .. . ... : ... .. . ... : ... .. . ...
ROW 32 : ... .. . ... : ... .. . ... : ... .. . ... : ... .. . ... : ... .. . ...
ROW 33 : ... .. . ... : ... .. . ... : ... .. . ... : ... .. . ... : ... .. . ...
ROW 34 : F-3 02 . ... : C-3 00 . ... : ... .. . ... : ... .. . ... : ... .. . ...
ROW 35 : --- .. . ... : --- .. . ... : ... .. . ... : ... .. . ... : ... .. . ...
ROW 36 : A#3 02 . ... : D-3 00 . ... : A#2 00 . ... : 4-# 05 . ... : ... .. . ...
ROW 37 : ... .. . ... : ... .. . ... : --- .. . ... : ... .. . ... : ... .. . ...
ROW 38 : ... .. . ... : ... .. . ... : ... .. . ... : 4-# 05 . ... : ... .. . ...
ROW 39 : ... .. . ... : ... .. . ... : ... .. . ... : ... .. . ... : ... .. . ...
ROW 3A : ... .. . ... : ... .. . ... : ... .. . ... : 4-# 05 . ... : ... .. . ...
ROW 3B : ... .. . ... : ... .. . ... : ... .. . ... : ... .. . ... : ... .. . ...
ROW 3C : --- .. . ... : --- .. . ... : A#2 00 . ... : 4-# 05 . ... : ... .. . ...
ROW 3D : ... .. . ... : ... .. . ... : --- .. . ... : ... .. . ... : ... .. . ...
ROW 3E : F-3 02 . ... : C-3 00 . ... : A#2 00 . ... : ... .. . ... : ... .. . ...
ROW 3F : ... .. . ... : ... .. . ... : --- .. . ... : ... .. . ... : ... .. . ...
ROW 40 : A#3 02 . ... : D-3 00 . ... : A#2 00 . ... : ... .. . ... : ... .. . ...
ROW 41 : ... .. . ... : ... .. . ... : ... .. . ... : ... .. . ... : ... .. . ...
ROW 42 : C-4 02 . ... : F-3 00 . ... : --- .. . ... : 4-# 05 . ... : ... .. . ...
ROW 43 : ... .. . ... : ... .. . ... : ... .. . ... : ... .. . ... : ... .. . ...
ROW 44 : A#3 02 . ... : D-3 00 . ... : A#2 00 . ... : 4-# 05 . ... : ... .. . ...
ROW 45 : ... .. . ... : ... .. . ... : --- .. . ... : ... .. . ... : ... .. . ...
ROW 46 : C-4 02 . ... : F-3 00 . ... : A#2 00 . ... : 4-# 05 . ... : ... .. . ...
ROW 47 : ... .. . ... : ... .. . ... : --- .. . ... : ... .. . ... : ... .. . ...
ROW 48 : D-4 02 . ... : A#3 00 . ... : A#2 00 . ... : 4-# 05 . ... : ... .. . ...
ROW 49 : ... .. . ... : ... .. . ... : --- .. . ... : ... .. . ... : ... .. . ...
ROW 4A : C-4 02 . ... : F-3 00 . ... : ... .. . ... : ... .. . ... : ... .. . ...
ROW 4B : ... .. . ... : ... .. . ... : ... .. . ... : ... .. . ... : ... .. . ...
ROW 4C : D-4 02 . ... : A#3 00 . ... : ... .. . ... : ... .. . ... : ... .. . ...
ROW 4D : ... .. . ... : ... .. . ... : ... .. . ... : ... .. . ... : ... .. . ...
ROW 4E : A#3 02 . ... : D-3 00 . ... : A#2 00 . ... : 4-# 05 . ... : ... .. . ...
ROW 4F : ... .. . ... : ... .. . ... : --- .. . ... : ... .. . ... : ... .. . ...
ROW 50 : ... .. . ... : ... .. . ... : ... .. . ... : 4-# 05 . ... : ... .. . ...
ROW 51 : ... .. . ... : ... .. . ... : ... .. . ... : ... .. . ... : ... .. . ...
ROW 52 : ... .. . ... : ... .. . ... : ... .. . ... : 4-# 05 . ... : ... .. . ...
ROW 53 : ... .. . ... : ... .. . ... : ... .. . ... : ... .. . ... : ... .. . ...
ROW 54 : ... .. . ... : ... .. . ... : A#2 00 . ... : 4-# 05 . ... : ... .. . ...
ROW 55 : ... .. . ... : ... .. . ... : --- .. . ... : ... .. . ... : ... .. . ...
ROW 56 : ... .. . ... : ... .. . ... : A#2 00 . ... : ... .. . ... : ... .. . ...
ROW 57 : ... .. . ... : ... .. . ... : --- .. . ... : ... .. . ... : ... .. . ...
ROW 58 : ... .. . ... : ... .. . ... : A#2 00 . ... : ... .. . ... : ... .. . ...
ROW 59 : ... .. . ... : ... .. . ... : ... .. . ... : ... .. . ... : ... .. . ...
ROW 5A : --- .. . ... : --- .. . ... : --- .. . ... : D-# 00 . ... : ... .. . ...
ROW 5B : ... .. . ... : ... .. . ... : ... .. . ... : ... .. . ... : ... .. . ...
ROW 5C : ... .. . ... : ... .. . ... : ... .. . ... : ... .. . ... : ... .. . ...
ROW 5D : ... .. . ... : ... .. . ... : ... .. . ... : ... .. . ... : ... .. . ...
ROW 5E : ... .. . ... : ... .. . ... : ... .. . ... : ... .. . ... : ... .. . ...
ROW 5F : ... .. . ... : ... .. . ... : ... .. . ... : ... .. . ... : ... .. . ...
ROW 60 : A#3 03 . ... : D-3 04 . ... : G-3 03 . ... : --- .. . ... : ... .. . ...
ROW 61 : ... .. . ... : ... .. . ... : ... .. . ... : ... .. . ... : ... .. . ...
ROW 62 : ... .. . ... : ... .. . ... : ... .. . ... : ... .. . ... : ... .. . ...
ROW 63 : ... .. . ... : ... .. . ... : ... .. . ... : ... .. . ... : ... .. . ...
ROW 64 : ... .. . ... : ... .. . ... : ... .. . ... : ... .. . ... : ... .. . ...
ROW 65 : ... .. . ... : ... .. . ... : ... .. . ... : ... .. . ... : ... .. . ...
ROW 66 : ... .. . ... : ... .. . ... : F-3 03 . ... : ... .. . ... : ... .. . ...
ROW 67 : ... .. . ... : ... .. . ... : ... .. . ... : ... .. . ... : ... .. . ...
ROW 68 : A-3 03 . ... : ... .. . ... : ... .. . ... : ... .. . ... : ... .. . ...
ROW 69 : ... .. . ... : ... .. . ... : ... .. . ... : ... .. . ... : ... .. . ...
ROW 6A : G-3 03 . ... : ... .. . ... : ... .. . ... : ... .. . ... : ... .. . ...
ROW 6B : ... .. . ... : ... .. . ... : ... .. . ... : ... .. . ... : ... .. . ...
ROW 6C : C-4 03 . ... : G-3 04 . ... : E-3 03 . ... : ... .. . ... : ... .. . ...
ROW 6D : ... .. . ... : ... .. . ... : ... .. . ... : ... .. . ... : ... .. . ...
ROW 6E : ... .. . ... : ... .. . ... : ... .. . ... : ... .. . ... : ... .. . ...
ROW 6F : ... .. . ... : ... .. . ... : ... .. . ... : ... .. . ... : ... .. . ...
ROW 70 : ... .. . ... : ... .. . ... : ... .. . ... : ... .. . ... : ... .. . ...
ROW 71 : ... .. . ... : ... .. . ... : ... .. . ... : ... .. . ... : ... .. . ...
ROW 72 : A#3 03 . ... : ... .. . ... : ... .. . ... : ... .. . ... : ... .. . ...
ROW 73 : ... .. . ... : ... .. . ... : ... .. . ... : ... .. . ... : ... .. . ...
ROW 74 : ... .. . ... : ... .. . ... : ... .. . ... : ... .. . ... : ... .. . ...
ROW 75 : ... .. . ... : ... .. . ... : ... .. . ... : ... .. . ... : ... .. . ...
ROW 76 : ... .. . ... : ... .. . ... : ... .. . ... : ... .. . ... : ... .. . ...
ROW 77 : ... .. . ... : ... .. . ... : ... .. . ... : ... .. . ... : ... .. . ...
ROW 78 : A-3 03 . ... : C-3 04 . ... : F-3 03 . ... : ... .. . ... : ... .. . ...
ROW 79 : ... .. . ... : ... .. . ... : ... .. . ... : ... .. . ... : ... .. . ...
ROW 7A : ... .. . ... : ... .. . ... : ... .. . ... : ... .. . ... : ... .. . ...
ROW 7B : ... .. . ... : ... .. . ... : ... .. . ... : ... .. . ... : ... .. . ...
ROW 7C : ... .. . ... : ... .. . ... : ... .. . ... : ... .. . ... : ... .. . ...
ROW 7D : ... .. . ... : ... .. . ... : ... .. . ... : ... .. . ... : ... .. . ...
ROW 7E : ... .. . ... : ... .. . ... : D#3 03 . ... : ... .. . ... : ... .. . ...
ROW 7F : ... .. . ... : ... .. . ... : ... .. . ... : ... .. . ... : ... .. . ...
ROW 80 : G-3 03 . ... : ... .. . ... : ... .. . ... : ... .. . ... : ... .. . ...
ROW 81 : ... .. . ... : ... .. . ... : ... .. . ... : ... .. . ... : ... .. . ...
ROW 82 : F-3 03 . ... : ... .. . ... : ... .. . ... : ... .. . ... : ... .. . ...
ROW 83 : ... .. . ... : ... .. . ... : ... .. . ... : ... .. . ... : ... .. . ...
ROW 84 : A#3 03 . ... : F-3 04 . ... : D-3 03 . ... : ... .. . ... : ... .. . ...
ROW 85 : ... .. . ... : ... .. . ... : ... .. . ... : ... .. . ... : ... .. . ...
ROW 86 : ... .. . ... : ... .. . ... : ... .. . ... : ... .. . ... : ... .. . ...
ROW 87 : ... .. . ... : ... .. . ... : ... .. . ... : ... .. . ... : ... .. . ...
ROW 88 : ... .. . ... : ... .. . ... : ... .. . ... : ... .. . ... : ... .. . ...
ROW 89 : ... .. . ... : ... .. . ... : ... .. . ... : ... .. . ... : ... .. . ...
ROW 8A : A-3 03 . ... : ... .. . ... : ... .. . ... : ... .. . ... : ... .. . ...
ROW 8B : ... .. . ... : ... .. . ... : ... .. . ... : ... .. . ... : ... .. . ...
ROW 8C : ... .. . ... : ... .. . ... : ... .. . ... : ... .. . ... : ... .. . ...
ROW 8D : ... .. . ... : ... .. . ... : ... .. . ... : ... .. . ... : ... .. . ...
ROW 8E : ... .. . ... : ... .. . ... : ... .. . ... : ... .. . ... : ... .. . ...
ROW 8F : ... .. . ... : ... .. . ... : ... .. . ... : ... .. . ... : ... .. . ...
ROW 90 : G-3 00 . ... : D#3 02 . ... : D#3 03 . ... : 4-# 05 . ... : ... .. . ...
ROW 91 : ... .. . ... : ... .. . ... : ... .. . ... : ... .. . ... : ... .. . ...
ROW 92 : --- .. . ... : --- .. . ... : --- .. . ... : ... .. . ... : ... .. . ...
ROW 93 : ... .. . ... : ... .. . ... : ... .. . ... : ... .. . ... : ... .. . ...
ROW 94 : F-3 00 . ... : A#2 02 . ... : D#3 03 . ... : 4-# 05 . ... : ... .. . ...
ROW 95 : --- .. . ... : --- .. . ... : --- .. . ... : 4-# 05 . ... : ... .. . ...
ROW 96 : G-3 00 . ... : D#3 02 . ... : D#3 03 . ... : 4-# 05 . ... : ... .. . ...
ROW 97 : ... .. . ... : ... .. . ... : ... .. . ... : ... .. . ... : ... .. . ...
ROW 98 : ... .. . ... : ... .. . ... : ... .. . ... : 4-# 05 . ... : ... .. . ...
ROW 99 : ... .. . ... : ... .. . ... : ... .. . ... : ... .. . ... : ... .. . ...
ROW 9A : ... .. . ... : ... .. . ... : ... .. . ... : 4-# 05 . ... : ... .. . ...
ROW 9B : ... .. . ... : ... .. . ... : ... .. . ... : ... .. . ... : ... .. . ...
ROW 9C : --- .. . ... : --- .. . ... : --- .. . ... : 4-# 05 . ... : ... .. . ...
ROW 9D : ... .. . ... : ... .. . ... : ... .. . ... : ... .. . ... : ... .. . ...
ROW 9E : ... .. . ... : ... .. . ... : ... .. . ... : ... .. . ... : ... .. . ...
ROW 9F : ... .. . ... : ... .. . ... : ... .. . ... : ... .. . ... : ... .. . ...
ROW A0 : F-3 00 . ... : A#2 02 . ... : ... .. . ... : ... .. . ... : ... .. . ...
ROW A1 : --- .. . ... : --- .. . ... : ... .. . ... : ... .. . ... : ... .. . ...
ROW A2 : G-3 00 . ... : D#3 02 . ... : D#3 03 . ... : 4-# 05 . ... : ... .. . ...
ROW A3 : ... .. . ... : ... .. . ... : ... .. . ... : ... .. . ... : ... .. . ...
ROW A4 : F-3 00 . ... : A#2 02 . ... : ... .. . ... : 4-# 05 . ... : ... .. . ...
ROW A5 : ... .. . ... : ... .. . ... : ... .. . ... : ... .. . ... : ... .. . ...
ROW A6 : G-3 00 . ... : D#3 02 . ... : --- .. . ... : 4-# 05 . ... : ... .. . ...
ROW A7 : ... .. . ... : ... .. . ... : ... .. . ... : ... .. . ... : ... .. . ...
ROW A8 : A-3 00 . ... : G-3 04 . ... : D-3 03 . ... : 4-# 05 . ... : ... .. . ...
ROW A9 : ... .. . ... : ... .. . ... : ... .. . ... : ... .. . ... : ... .. . ...
ROW AA : ... .. . ... : ... .. . ... : ... .. . ... : ... .. . ... : ... .. . ...
ROW AB : ... .. . ... : ... .. . ... : ... .. . ... : ... .. . ... : ... .. . ...
ROW AC : ... .. . ... : ... .. . ... : ... .. . ... : ... .. . ... : ... .. . ...
ROW AD : ... .. . ... : ... .. . ... : ... .. . ... : ... .. . ... : ... .. . ...
ROW AE : ... .. . ... : F#3 04 . ... : ... .. . ... : 4-# 05 . ... : ... .. . ...
ROW AF : ... .. . ... : ... .. . ... : ... .. . ... : ... .. . ... : ... .. . ...
ROW B0 : ... .. . ... : ... .. . ... : ... .. . ... : 4-# 05 . ... : ... .. . ...
ROW B1 : ... .. . ... : ... .. . ... : ... .. . ... : ... .. . ... : ... .. . ...
ROW B2 : ... .. . ... : ... .. . ... : --- .. . ... : 4-# 05 . ... : ... .. . ...
ROW B3 : ... .. . ... : ... .. . ... : ... .. . ... : ... .. . ... : ... .. . ...
ROW B4 : G-3 00 . ... : F-3 04 . ... : C-3 03 . ... : 4-# 05 . ... : ... .. . ...
ROW B5 : ... .. . ... : ... .. . ... : ... .. . ... : ... .. . ... : ... .. . ...
ROW B6 : ... .. . ... : ... .. . ... : ... .. . ... : ... .. . ... : ... .. . ...
ROW B7 : ... .. . ... : ... .. . ... : ... .. . ... : ... .. . ... : ... .. . ...
ROW B8 : ... .. . ... : ... .. . ... : ... .. . ... : ... .. . ... : ... .. . ...
ROW B9 : ... .. . ... : ... .. . ... : ... .. . ... : ... .. . ... : ... .. . ...
ROW BA : ... .. . ... : E-3 04 . ... : ... .. . ... : D-# 00 . ... : ... .. . ...
ROW BB : ... .. . ... : ... .. . ... : ... .. . ... : ... .. . ... : ... .. . ...
ROW BC : ... .. . ... : ... .. . ... : ... .. . ... : ... .. . ... : ... .. . ...
ROW BD : ... .. . ... : ... .. . ... : ... .. . ... : ... .. . ... : ... .. . ...
ROW BE : ... .. . ... : ... .. . ... : --- .. . ... : ... .. . ... : ... .. . ...
ROW BF : ... .. . ... : ... .. . ... : ... .. . ... : ... .. . ... : ... .. . ...

TRACK  64   6 150 "Roman_About_JPL"
COLUMNS : 1 1 1 1 1

ORDER 00 : 00 00 00 00 00
ORDER 01 : 01 01 01 01 01
ORDER 02 : 02 02 02 02 02

PATTERN 00
ROW 00 : A-3 02 . ... : F-3 02 . ... : F-2 02 . ... : 1-# 05 . ... : ... .. . ...
ROW 01 : ... .. . ... : ... .. . ... : E-4 06 . ... : ... .. . ... : ... .. . ...
ROW 02 : C-4 02 . ... : A-3 02 . ... : F-2 02 . ... : E-# 05 . ... : ... .. . ...
ROW 03 : ... .. . ... : ... .. . ... : E-4 06 . ... : ... .. . ... : ... .. . ...
ROW 04 : D-4 02 . ... : A#3 02 . ... : A-2 02 . ... : 4-# 05 . ... : ... .. . ...
ROW 05 : ... .. . ... : ... .. . ... : E-4 06 . ... : ... .. . ... : ... .. . ...
ROW 06 : C-4 02 . ... : A-3 02 . ... : A-2 02 . ... : E-# 05 . ... : ... .. . ...
ROW 07 : ... .. . ... : ... .. . ... : E-4 06 . ... : ... .. . ... : ... .. . ...
ROW 08 : E-4 06 . ... : E-4 06 . ... : C-3 02 . ... : 1-# 05 . ... : ... .. . ...
ROW 09 : ... .. . ... : ... .. . ... : E-4 06 . ... : ... .. . ... : ... .. . ...
ROW 0A : ... .. . ... : ... .. . ... : C-3 02 . ... : E-# 05 . ... : ... .. . ...
ROW 0B : ... .. . ... : ... .. . ... : E-4 06 . ... : ... .. . ... : ... .. . ...
ROW 0C : ... .. . ... : ... .. . ... : A-2 02 . ... : 3-# 05 . ... : ... .. . ...
ROW 0D : ... .. . ... : ... .. . ... : E-4 06 . ... : ... .. . ... : ... .. . ...
ROW 0E : ... .. . ... : ... .. . ... : A-2 02 . ... : E-# 05 . ... : ... .. . ...
ROW 0F : G#3 02 . ... : E-3 02 . ... : E-4 06 . ... : ... .. . ... : ... .. . ...
ROW 10 : A-3 02 . ... : F-3 02 . ... : F-2 02 . ... : 1-# 05 . ... : ... .. . ...
ROW 11 : ... .. . ... : ... .. . ... : E-4 06 . ... : ... .. . ... : ... .. . ...
ROW 12 : C-4 02 . ... : A-3 02 . ... : F-2 02 . ... : E-# 05 . ... : ... .. . ...
ROW 13 : ... .. . ... : ... .. . ... : E-4 06 . ... : ... .. . ... : ... .. . ...
ROW 14 : D-4 02 . ... : A#3 02 . ... : A-2 02 . ... : 3-# 05 . ... : ... .. . ...
ROW 15 : ... .. . ... : ... .. . ... : E-4 06 . ... : ... .. . ... : ... .. . ...
ROW 16 : C-4 02 . ... : A-3 02 . ... : A-2 02 . ... : E-# 05 . ... : ... .. . ...
ROW 17 : ... .. . ... : ... .. . ... : E-4 06 . ... : ... .. . ... : ... .. . ...
ROW 18 : E-4 06 . ... : E-4 06 . ... : C-3 02 . ... : 1-# 05 . ... : ... .. . ...
ROW 19 : ... .. . ... : ... .. . ... : E-4 06 . ... : ... .. . ... : ... .. . ...
ROW 1A : ... .. . ... : ... .. . ... : C-3 02 . ... : E-# 05 . ... : ... .. . ...
ROW 1B : ... .. . ... : ... .. . ... : E-4 06 . ... : ... .. . ... : ... .. . ...
ROW 1C : ... .. . ... : ... .. . ... : A-2 02 . ... : 3-# 05 . ... : ... .. . ...
ROW 1D : ... .. . ... : ... .. . ... : E-4 06 . ... : ... .. . ... : ... .. . ...
ROW 1E : ... .. . ... : ... .. . ... : A-2 02 . ... : E-# 05 . ... : ... .. . ...
ROW 1F : G#3 02 . ... : E-3 02 . ... : E-4 06 . ... : ... .. . ... : ... .. . ...
ROW 20 : A-3 02 . ... : F-3 02 . ... : F-2 02 . ... : 1-# 05 . ... : ... .. . ...
ROW 21 : ... .. . ... : ... .. . ... : E-4 06 . ... : ... .. . ... : ... .. . ...
ROW 22 : C-4 02 . ... : A-3 02 . ... : F-2 02 . ... : E-# 05 . ... : ... .. . ...
ROW 23 : ... .. . ... : ... .. . ... : E-4 06 . ... : ... .. . ... : ... .. . ...
ROW 24 : D-4 02 . ... : A#3 02 . ... : A-2 02 . ... : 3-# 05 . ... : ... .. . ...
ROW 25 : ... .. . ... : ... .. . ... : E-4 06 . ... : ... .. . ... : ... .. . ...
ROW 26 : C-4 02 . ... : A-3 02 . ... : A-2 02 . ... : E-# 05 . ... : ... .. . ...
ROW 27 : ... .. . ... : ... .. . ... : E-4 06 . ... : ... .. . ... : ... .. . ...
ROW 28 : D#4 02 . ... : C-4 02 . ... : C-3 02 . ... : 1-# 05 . ... : ... .. . ...
ROW 29 : ... .. . ... : ... .. . ... : E-4 06 . ... : ... .. . ... : ... .. . ...
ROW 2A : E-4 06 . ... : E-4 06 . ... : C-3 02 . ... : E-# 05 . ... : ... .. . ...
ROW 2B : ... .. . ... : ... .. . ... : E-4 06 . ... : ... .. . ... : ... .. . ...
ROW 2C : D-4 02 . ... : A#3 02 . ... : D-3 02 . ... : 3-# 05 . ... : ... .. . ...
ROW 2D : ... .. . ... : ... .. . ... : E-4 06 . ... : ... .. . ... : ... .. . ...
ROW 2E : C-4 02 . ... : A-3 02 . ... : D-3 02 . ... : E-# 05 . ... : ... .. . ...
ROW 2F : ... .. . ... : ... .. . ... : E-4 06 . ... : ... .. . ... : ... .. . ...
ROW 30 : ... .. . ... : ... .. . ... : D#3 02 . ... : 1-# 05 . ... : ... .. . ...
ROW 31 : ... .. . ... : ... .. . ... : E-4 06 . ... : ... .. . ... : ... .. . ...
ROW 32 : ... .. . ... : ... .. . ... : D#3 02 . ... : E-# 05 . ... : ... .. . ...
ROW 33 : ... .. . ... : ... .. . ... : E-4 06 . ... : ... .. . ... : ... .. . ...
ROW 34 : ... .. . ... : ... .. . ... : D-3 02 . ... : 3-# 05 . ... : ... .. . ...
ROW 35 : ... .. . ... : ... .. . ... : E-4 06 . ... : ... .. . ... : ... .. . ...
ROW 36 : ... .. . ... : ... .. . ... : D-3 02 . ... : E-# 05 . ... : ... .. . ...
ROW 37 : ... .. . ... : ... .. . ... : E-4 06 . ... : ... .. . ... : ... .. . ...
ROW 38 : ... .. . ... : ... .. . ... : C-3 02 . ... : 1-# 05 . ... : ... .. . ...
ROW 39 : ... .. . ... : ... .. . ... : ... .. . ... : ... .. . ... : ... .. . ...
ROW 3A : ... .. . ... : ... .. . ... : A#2 02 . ... : E-# 05 . ... : ... .. . ...
ROW 3B : ... .. . ... : ... .. . ... : ... .. . ... : ... .. . ... : ... .. . ...
ROW 3C : E-4 06 . ... : E-4 06 . ... : A-2 02 . ... : 3-# 05 . ... : ... .. . ...
ROW 3D : ... .. . ... : ... .. . ... : ... .. . ... : 2-# 05 . ... : ... .. . ...
ROW 3E : ... .. . ... : ... .. . ... : F-2 02 . ... : 1-# 05 . ... : ... .. . ...
ROW 3F : ... .. . ... : ... .. . ... : ... .. . ... : ... .. . ... : ... .. . ...

PATTERN 01
ROW 00 : D-3 02 . ... : A#2 02 . ... : A#1 02 . ... : 1-# 05 . ... : ... .. . ...
ROW 01 : ... .. . ... : ... .. . ... : E-4 06 . ... : ... .. . ... : ... .. . ...
ROW 02 : F-3 02 . ... : D-3 02 . ... : A#1 02 . ... : E-# 05 . ... : ... .. . ...
ROW 03 : ... .. . ... : ... .. . ... : E-4 06 . ... : ... .. . ... : ... .. . ...
ROW 04 : G-3 02 . ... : D#3 02 . ... : D-2 02 . ... : 4-# 05 . ... : ... .. . ...
ROW 05 : ... .. . ... : ... .. . ... : E-4 06 . ... : ... .. . ... : ... .. . ...
ROW 06 : F-3 02 . ... : D-3 02 . ... : D-2 02 . ... : E-# 05 . ... : ... .. . ...
ROW 07 : ... .. . ... : ... .. . ... : E-4 06 . ... : ... .. . ... : ... .. . ...
ROW 08 : E-4 06 . ... : E-4 06 . ... : F-2 02 . ... : 1-# 05 . ... : ... .. . ...
ROW 09 : ... .. . ... : ... .. . ... : E-4 06 . ... : ... .. . ... : ... .. . ...
ROW 0A : ... .. . ... : ... .. . ... : F-2 02 . ... : E-# 05 . ... : ... .. . ...
ROW 0B : ... .. . ... : ... .. . ... : E-4 06 . ... : ... .. . ... : ... .. . ...
ROW 0C : ... .. . ... : ... .. . ... : D-2 02 . ... : 3-# 05 . ... : ... .. . ...
ROW 0D : ... .. . ... : ... .. . ... : E-4 06 . ... : ... .. . ... : ... .. . ...
ROW 0E : ... .. . ... : ... .. . ... : D-2 02 . ... : E-# 05 . ... : ... .. . ...
ROW 0F : C#3 02 . ... : A-2 02 . ... : E-4 06 . ... : ... .. . ... : ... .. . ...
ROW 10 : D-3 02 . ... : A#2 02 . ... : A#1 02 . ... : 1-# 05 . ... : ... .. . ...
ROW 11 : ... .. . ... : ... .. . ... : E-4 06 . ... : ... .. . ... : ... .. . ...
ROW 12 : F-3 02 . ... : D-3 02 . ... : A#1 02 . ... : E-# 05 . ... : ... .. . ...
ROW 13 : ... .. . ... : ... .. . ... : E-4 06 . ... : ... .. . ... : ... .. . ...
ROW 14 : G-3 02 . ... : D#3 02 . ... : D-2 02 . ... : 3-# 05 . ... : ... .. . ...
ROW 15 : ... .. . ... : ... .. . ... : E-4 06 . ... : ... .. . ... : ... .. . ...
ROW 16 : F-3 02 . ... : D-3 02 . ... : D-2 02 . ... : E-# 05 . ... : ... .. . ...
ROW 17 : ... .. . ... : ... .. . ... : E-4 06 . ... : ... .. . ... : ... .. . ...
ROW 18 : E-4 06 . ... : E-4 06 . ... : F-2 02 . ... : 1-# 05 . ... : ... .. . ...
ROW 19 : ... .. . ... : ... .. . ... : E-4 06 . ... : ... .. . ... : ... .. . ...
ROW 1A : ... .. . ... : ... .. . ... : F-2 02 . ... : E-# 05 . ... : ... .. . ...
ROW 1B : ... .. . ... : ... .. . ... : E-4 06 . ... : ... .. . ... : ... .. . ...
ROW 1C : ... .. . ... : ... .. . ... : D-2 02 . ... : 3-# 05 . ... : ... .. . ...
ROW 1D : ... .. . ... : ... .. . ... : E-4 06 . ... : ... .. . ... : ... .. . ...
ROW 1E : ... .. . ... : ... .. . ... : D-2 02 . ... : E-# 05 . ... : ... .. . ...
ROW 1F : G#3 02 . ... : E-3 02 . ... : E-4 06 . ... : ... .. . ... : ... .. . ...
ROW 20 : A-3 02 . ... : F-3 02 . ... : F-2 02 . ... : 1-# 05 . ... : ... .. . ...
ROW 21 : ... .. . ... : ... .. . ... : E-4 06 . ... : ... .. . ... : ... .. . ...
ROW 22 : C-4 02 . ... : A-3 02 . ... : F-2 02 . ... : E-# 05 . ... : ... .. . ...
ROW 23 : ... .. . ... : ... .. . ... : E-4 06 . ... : ... .. . ... : ... .. . ...
ROW 24 : D-4 02 . ... : A#3 02 . ... : A-2 02 . ... : 3-# 05 . ... : ... .. . ...
ROW 25 : ... .. . ... : ... .. . ... : E-4 06 . ... : ... .. . ... : ... .. . ...
ROW 26 : C-4 02 . ... : A-3 02 . ... : A-2 02 . ... : E-# 05 . ... : ... .. . ...
ROW 27 : ... .. . ... : ... .. . ... : E-4 06 . ... : ... .. . ... : ... .. . ...
ROW 28 : D#4 02 . ... : C-4 02 . ... : C-3 02 . ... : 1-# 05 . ... : ... .. . ...
ROW 29 : ... .. . ... : ... .. . ... : E-4 06 . ... : ... .. . ... : ... .. . ...
ROW 2A : E-4 06 . ... : E-4 06 . ... : C-3 02 . ... : E-# 05 . ... : ... .. . ...
ROW 2B : ... .. . ... : ... .. . ... : E-4 06 . ... : ... .. . ... : ... .. . ...
ROW 2C : D-4 02 . ... : A#3 02 . ... : D-3 02 . ... : 3-# 05 . ... : ... .. . ...
ROW 2D : ... .. . ... : ... .. . ... : E-4 06 . ... : ... .. . ... : ... .. . ...
ROW 2E : C-4 02 . ... : A-3 02 . ... : D-3 02 . ... : E-# 05 . ... : ... .. . ...
ROW 2F : ... .. . ... : ... .. . ... : E-4 06 . ... : ... .. . ... : ... .. . ...
ROW 30 : ... .. . ... : ... .. . ... : D#3 02 . ... : 1-# 05 . ... : ... .. . ...
ROW 31 : ... .. . ... : ... .. . ... : E-4 06 . ... : ... .. . ... : ... .. . ...
ROW 32 : ... .. . ... : ... .. . ... : D#3 02 . ... : E-# 05 . ... : ... .. . ...
ROW 33 : ... .. . ... : ... .. . ... : E-4 06 . ... : ... .. . ... : ... .. . ...
ROW 34 : ... .. . ... : ... .. . ... : D-3 02 . ... : 3-# 05 . ... : ... .. . ...
ROW 35 : ... .. . ... : ... .. . ... : E-4 06 . ... : ... .. . ... : ... .. . ...
ROW 36 : ... .. . ... : ... .. . ... : D-3 02 . ... : E-# 05 . ... : ... .. . ...
ROW 37 : ... .. . ... : ... .. . ... : E-4 06 . ... : ... .. . ... : ... .. . ...
ROW 38 : ... .. . ... : ... .. . ... : C-3 02 . ... : 1-# 05 . ... : ... .. . ...
ROW 39 : ... .. . ... : ... .. . ... : ... .. . ... : ... .. . ... : ... .. . ...
ROW 3A : ... .. . ... : ... .. . ... : A#2 02 . ... : E-# 05 . ... : ... .. . ...
ROW 3B : ... .. . ... : ... .. . ... : ... .. . ... : ... .. . ... : ... .. . ...
ROW 3C : E-4 06 . ... : E-4 06 . ... : A-2 02 . ... : 3-# 05 . ... : ... .. . ...
ROW 3D : ... .. . ... : ... .. . ... : ... .. . ... : 2-# 05 . ... : ... .. . ...
ROW 3E : ... .. . ... : ... .. . ... : F-2 02 . ... : 1-# 05 . ... : ... .. . ...
ROW 3F : ... .. . ... : ... .. . ... : ... .. . ... : ... .. . ... : ... .. . ...

PATTERN 02
ROW 00 : C-4 02 . ... : E-3 02 . ... : C-3 02 . ... : 1-# 05 . ... : ... .. . ...
ROW 01 : E-4 06 . ... : E-4 06 . ... : E-4 06 . ... : ... .. . ... : ... .. . ...
ROW 02 : C-4 02 . ... : E-3 02 . ... : C-3 02 . ... : E-# 05 . ... : ... .. . ...
ROW 03 : E-4 06 . ... : E-4 06 . ... : E-4 06 . ... : ... .. . ... : ... .. . ...
ROW 04 : D-4 02 . ... : G-3 02 . ... : E-3 02 . ... : 4-# 05 . ... : ... .. . ...
ROW 05 : ... .. . ... : ... .. . ... : E-4 06 . ... : ... .. . ... : ... .. . ...
ROW 06 : D#4 02 . ... : B-3 02 . ... : E-3 02 . ... : E-# 05 . ... : ... .. . ...
ROW 07 : ... .. . ... : ... .. . ... : E-4 06 . ... : ... .. . ... : ... .. . ...
ROW 08 : E-4 02 . ... : C-4 02 . ... : G-3 02 . ... : 1-# 05 . ... : ... .. . ...
ROW 09 : ... .. . ... : ... .. . ... : E-4 06 . ... : ... .. . ... : ... .. . ...
ROW 0A : C-4 02 . ... : E-3 02 . ... : G-3 02 . ... : E-# 05 . ... : ... .. . ...
ROW 0B : ... .. . ... : ... .. . ... : E-4 06 . ... : ... .. . ... : ... .. . ...
ROW 0C : E-4 06 . ... : E-4 06 . ... : E-3 02 . ... : 3-# 05 . ... : ... .. . ...
ROW 0D : ... .. . ... : ... .. . ... : E-4 06 . ... : ... .. . ... : ... .. . ...
ROW 0E : ... .. . ... : ... .. . ... : E-3 02 . ... : E-# 05 . ... : ... .. . ...
ROW 0F : ... .. . ... : ... .. . ... : E-4 06 . ... : ... .. . ... : ... .. . ...
ROW 10 : A#3 02 . ... : D-3 02 . ... : A#2 02 . ... : 1-# 05 . ... : ... .. . ...
ROW 11 : E-4 06 . ... : E-4 06 . ... : E-4 06 . ... : ... .. . ... : ... .. . ...
ROW 12 : A#3 02 . ... : D-3 02 . ... : A#2 02 . ... : E-# 05 . ... : ... .. . ...
ROW 13 : E-4 06 . ... : E-4 06 . ... : E-4 06 . ... : ... .. . ... : ... .. . ...
ROW 14 : C-4 02 . ... : F-3 02 . ... : D-3 02 . ... : 3-# 05 . ... : ... .. . ...
ROW 15 : ... .. . ... : ... .. . ... : E-4 06 . ... : ... .. . ... : ... .. . ...
ROW 16 : C#4 02 . ... : A-3 02 . ... : D-3 02 . ... : E-# 05 . ... : ... .. . ...
ROW 17 : ... .. . ... : ... .. . ... : E-4 06 . ... : ... .. . ... : ... .. . ...
ROW 18 : D-4 02 . ... : A#3 02 . ... : F-3 02 . ... : 1-# 05 . ... : ... .. . ...
ROW 19 : ... .. . ... : ... .. . ... : E-4 06 . ... : ... .. . ... : ... .. . ...
ROW 1A : A#3 02 . ... : D-3 02 . ... : F-3 02 . ... : E-# 05 . ... : ... .. . ...
ROW 1B : ... .. . ... : ... .. . ... : E-4 06 . ... : ... .. . ... : ... .. . ...
ROW 1C : E-4 06 . ... : E-4 06 . ... : D-3 02 . ... : 3-# 05 . ... : ... .. . ...
ROW 1D : ... .. . ... : ... .. . ... : E-4 06 . ... : ... .. . ... : ... .. . ...
ROW 1E : A#3 02 . ... : F-3 02 . ... : D-3 02 . ... : E-# 05 . ... : ... .. . ...
ROW 1F : ... .. . ... : ... .. . ... : E-4 06 . ... : ... .. . ... : ... .. . ...
ROW 20 : C-4 02 . ... : E-3 02 . ... : C-3 02 . ... : 1-# 05 . ... : ... .. . ...
ROW 21 : E-4 06 . ... : E-4 06 . ... : E-4 06 . ... : ... .. . ... : ... .. . ...
ROW 22 : C-4 02 . ... : E-3 02 . ... : C-3 02 . ... : E-# 05 . ... : ... .. . ...
ROW 23 : B-3 02 . ... : D#3 02 . ... : E-4 06 . ... : ... .. . ... : ... .. . ...
ROW 24 : C-4 02 . ... : E-3 02 . ... : D-3 02 . ... : 3-# 05 . ... : ... .. . ...
ROW 25 : E-4 06 . ... : E-4 06 . ... : E-4 06 . ... : ... .. . ... : ... .. . ...
ROW 26 : C-4 02 . ... : E-3 02 . ... : D-3 02 . ... : E-# 05 . ... : ... .. . ...
ROW 27 : B-3 02 . ... : D#3 02 . ... : E-4 06 . ... : ... .. . ... : ... .. . ...
ROW 28 : C-4 02 . ... : E-3 02 . ... : D#3 02 . ... : 1-# 05 . ... : ... .. . ...
ROW 29 : ... .. . ... : ... .. . ... : E-4 06 . ... : ... .. . ... : ... .. . ...
ROW 2A : A#3 02 . ... : D-3 02 . ... : D#3 02 . ... : E-# 05 . ... : ... .. . ...
ROW 2B : ... .. . ... : ... .. . ... : E-4 06 . ... : ... .. . ... : ... .. . ...
ROW 2C : G#3 02 . ... : C-3 02 . ... : E-3 02 . ... : 3-# 05 . ... : ... .. . ...
ROW 2D : ... .. . ... : ... .. . ... : E-4 06 . ... : ... .. . ... : ... .. . ...
ROW 2E : F-3 02 . ... : F-3 00 . ... : F-3 02 . ... : E-# 05 . ... : ... .. . ...
ROW 2F : ... .. . ... : ... .. . ... : ... .. . ... : ... .. . ... : ... .. . ...
ROW 30 : E-4 06 . ... : E-4 06 . ... : E-4 06 . ... : 1-# 05 . ... : ... .. . ...
ROW 31 : ... .. . ... : ... .. . ... : ... .. . ... : ... .. . ... : ... .. . ...
ROW 32 : A#2 02 . ... : D-2 02 . ... : D#3 02 . ... : E-# 05 . ... : ... .. . ...
ROW 33 : ... .. . ... : ... .. . ... : ... .. . ... : ... .. . ... : ... .. . ...
ROW 34 : B-2 02 . ... : D#2 02 . ... : D-3 02 . ... : 3-# 05 . ... : ... .. . ...
ROW 35 : ... .. . ... : ... .. . ... : ... .. . ... : ... .. . ... : ... .. . ...
ROW 36 : C-3 02 . ... : E-2 02 . ... : C-3 02 . ... : E-# 05 . ... : ... .. . ...
ROW 37 : ... .. . ... : ... .. . ... : ... .. . ... : ... .. . ... : ... .. . ...
ROW 38 : ... .. . ... : ... .. . ... : ... .. . ... : 1-# 05 . ... : ... .. . ...
ROW 39 : ... .. . ... : ... .. . ... : ... .. . ... : ... .. . ... : ... .. . ...
ROW 3A : ... .. . ... : ... .. . ... : ... .. . ... : E-# 05 . ... : ... .. . ...
ROW 3B : ... .. . ... : ... .. . ... : ... .. . ... : ... .. . ... : ... .. . ...
ROW 3C : E-4 06 . ... : E-4 06 . ... : E-4 06 . ... : 3-# 05 . ... : ... .. . ...
ROW 3D : ... .. . ... : ... .. . ... : ... .. . ... : 2-# 05 . ... : ... .. . ...
ROW 3E : ... .. . ... : ... .. . ... : ... .. . ... : 1-# 05 . ... : ... .. . ...
ROW 3F : ... .. . ... : ... .. . ... : ... .. . ... : ... .. . ... : ... .. . ...

TRACK  64   6 150 "VictorE_JPL"
COLUMNS : 1 1 1 1 1

ORDER 00 : 00 00 00 00 00

PATTERN 00
ROW 00 : F-3 00 . ... : C-3 02 . ... : C-3 01 . ... : ... .. . ... : ... .. . ...
ROW 01 : E-4 06 . ... : E-4 06 . ... : ... .. . ... : ... .. . ... : ... .. . ...
ROW 02 : C-3 00 . ... : A-2 02 . ... : D-3 01 . ... : ... .. . ... : ... .. . ...
ROW 03 : E-4 06 . ... : E-4 06 . ... : ... .. . ... : ... .. . ... : ... .. . ...
ROW 04 : F-3 00 . ... : C-3 02 . ... : C-3 01 . ... : ... .. . ... : ... .. . ...
ROW 05 : ... .. . ... : E-4 06 . ... : ... .. . ... : ... .. . ... : ... .. . ...
ROW 06 : G-3 00 . ... : E-3 02 . ... : A#2 01 . ... : ... .. . ... : ... .. . ...
ROW 07 : ... .. . ... : ... .. . ... : ... .. . ... : ... .. . ... : ... .. . ...
ROW 08 : E-4 06 . ... : E-4 06 . ... : A-2 01 . ... : ... .. . ... : ... .. . ...
ROW 09 : ... .. . ... : ... .. . ... : ... .. . ... : ... .. . ... : ... .. . ...
ROW 0A : G-3 00 . ... : E-3 02 . ... : G-2 01 . ... : ... .. . ... : ... .. . ...
ROW 0B : ... .. . ... : E-4 06 . ... : F#2 01 . ... : ... .. . ... : ... .. . ...
ROW 0C : C-4 00 . ... : F-3 02 . ... : F-2 01 . ... : ... .. . ... : ... .. . ...
ROW 0D : ... .. . ... : ... .. . ... : ... .. . ... : ... .. . ... : ... .. . ...
ROW 0E : ... .. . ... : ... .. . ... : ... .. . ... : ... .. . ... : ... .. . ...
ROW 0F : ... .. . ... : ... .. . ... : ... .. . ... : ... .. . ... : ... .. . ...
ROW 10 : ... .. . ... : ... .. . ... : ... .. . ... : ... .. . ... : ... .. . ...
ROW 11 : ... .. . ... : ... .. . ... : ... .. . ... : ... .. . ... : ... .. . ...
ROW 12 : E-4 06 . C00 : E-4 06 . C00 : E-4 06 . C00 : ... .. . C00 : ... .. . C00
ROW 13 : ... .. . ... : ... .. . ... : ... .. . ... : ... .. . ... : ... .. . ...
ROW 14 : ... .. . ... : ... .. . ... : ... .. . ... : ... .. . ... : ... .. . ...
ROW 15 : ... .. . ... : ... .. . ... : ... .. . ... : ... .. . ... : ... .. . ...
ROW 16 : ... .. . ... : ... .. . ... : ... .. . ... : ... .. . ... : ... .. . ...
ROW 17 : ... .. . ... : ... .. . ... : ... .. . ... : ... .. . ... : ... .. . ...
ROW 18 : ... .. . ... : ... .. . ... : ... .. . ... : ... .. . ... : ... .. . ...
ROW 19 : ... .. . ... : ... .. . ... : ... .. . ... : ... .. . ... : ... .. . ...
ROW 1A : ... .. . ... : ... .. . ... : ... .. . ... : ... .. . ... : ... .. . ...
ROW 1B : ... .. . ... : ... .. . ... : ... .. . ... : ... .. . ... : ... .. . ...
ROW 1C : ... .. . ... : ... .. . ... : ... .. . ... : ... .. . ... : ... .. . ...
ROW 1D : ... .. . ... : ... .. . ... : ... .. . ... : ... .. . ... : ... .. . ...
ROW 1E : ... .. . ... : ... .. . ... : ... .. . ... : ... .. . ... : ... .. . ...
ROW 1F : ... .. . ... : ... .. . ... : ... .. . ... : ... .. . ... : ... .. . ...
ROW 20 : ... .. . ... : ... .. . ... : ... .. . ... : ... .. . ... : ... .. . ...
ROW 21 : ... .. . ... : ... .. . ... : ... .. . ... : ... .. . ... : ... .. . ...
ROW 22 : ... .. . ... : ... .. . ... : ... .. . ... : ... .. . ... : ... .. . ...
ROW 23 : ... .. . ... : ... .. . ... : ... .. . ... : ... .. . ... : ... .. . ...
ROW 24 : ... .. . ... : ... .. . ... : ... .. . ... : ... .. . ... : ... .. . ...
ROW 25 : ... .. . ... : ... .. . ... : ... .. . ... : ... .. . ... : ... .. . ...
ROW 26 : ... .. . ... : ... .. . ... : ... .. . ... : ... .. . ... : ... .. . ...
ROW 27 : ... .. . ... : ... .. . ... : ... .. . ... : ... .. . ... : ... .. . ...
ROW 28 : ... .. . ... : ... .. . ... : ... .. . ... : ... .. . ... : ... .. . ...
ROW 29 : ... .. . ... : ... .. . ... : ... .. . ... : ... .. . ... : ... .. . ...
ROW 2A : ... .. . ... : ... .. . ... : ... .. . ... : ... .. . ... : ... .. . ...
ROW 2B : ... .. . ... : ... .. . ... : ... .. . ... : ... .. . ... : ... .. . ...
ROW 2C : ... .. . ... : ... .. . ... : ... .. . ... : ... .. . ... : ... .. . ...
ROW 2D : ... .. . ... : ... .. . ... : ... .. . ... : ... .. . ... : ... .. . ...
ROW 2E : ... .. . ... : ... .. . ... : ... .. . ... : ... .. . ... : ... .. . ...
ROW 2F : ... .. . ... : ... .. . ... : ... .. . ... : ... .. . ... : ... .. . ...
ROW 30 : ... .. . ... : ... .. . ... : ... .. . ... : ... .. . ... : ... .. . ...
ROW 31 : ... .. . ... : ... .. . ... : ... .. . ... : ... .. . ... : ... .. . ...
ROW 32 : ... .. . ... : ... .. . ... : ... .. . ... : ... .. . ... : ... .. . ...
ROW 33 : ... .. . ... : ... .. . ... : ... .. . ... : ... .. . ... : ... .. . ...
ROW 34 : ... .. . ... : ... .. . ... : ... .. . ... : ... .. . ... : ... .. . ...
ROW 35 : ... .. . ... : ... .. . ... : ... .. . ... : ... .. . ... : ... .. . ...
ROW 36 : ... .. . ... : ... .. . ... : ... .. . ... : ... .. . ... : ... .. . ...
ROW 37 : ... .. . ... : ... .. . ... : ... .. . ... : ... .. . ... : ... .. . ...
ROW 38 : ... .. . ... : ... .. . ... : ... .. . ... : ... .. . ... : ... .. . ...
ROW 39 : ... .. . ... : ... .. . ... : ... .. . ... : ... .. . ... : ... .. . ...
ROW 3A : ... .. . ... : ... .. . ... : ... .. . ... : ... .. . ... : ... .. . ...
ROW 3B : ... .. . ... : ... .. . ... : ... .. . ... : ... .. . ... : ... .. . ...
ROW 3C : ... .. . ... : ... .. . ... : ... .. . ... : ... .. . ... : ... .. . ...
ROW 3D : ... .. . ... : ... .. . ... : ... .. . ... : ... .. . ... : ... .. . ...
ROW 3E : ... .. . ... : ... .. . ... : ... .. . ... : ... .. . ... : ... .. . ...
ROW 3F : ... .. . ... : ... .. . ... : ... .. . ... : ... .. . ... : ... .. . ...

TRACK  36   6  70 "TragedE_JPL"
COLUMNS : 1 1 1 1 1

ORDER 00 : 00 00 00 00 00
ORDER 01 : 01 01 01 01 01

PATTERN 00
ROW 00 : G#3 03 . ... : C-3 04 . ... : F-3 02 . ... : ... .. . ... : ... .. . ...
ROW 01 : ... .. . ... : ... .. . ... : ... .. . ... : ... .. . ... : ... .. . ...
ROW 02 : C-3 03 . ... : G#2 04 . ... : ... .. . ... : ... .. . ... : ... .. . ...
ROW 03 : ... .. . ... : ... .. . ... : ... .. . ... : ... .. . ... : ... .. . ...
ROW 04 : G#3 03 . ... : C-3 04 . ... : ... .. . ... : ... .. . ... : ... .. . ...
ROW 05 : ... .. . ... : ... .. . ... : ... .. . ... : ... .. . ... : ... .. . ...
ROW 06 : G-3 03 . ... : A#2 04 . ... : C-3 02 . ... : ... .. . ... : ... .. . ...
ROW 07 : ... .. . ... : ... .. . ... : ... .. . ... : ... .. . ... : ... .. . ...
ROW 08 : ... .. . ... : ... .. . ... : ... .. . ... : ... .. . ... : ... .. . ...
ROW 09 : ... .. . ... : ... .. . ... : ... .. . ... : ... .. . ... : ... .. . ...
ROW 0A : ... .. . ... : ... .. . ... : ... .. . ... : ... .. . ... : ... .. . ...
ROW 0B : ... .. . ... : ... .. . ... : ... .. . ... : ... .. . ... : ... .. . ...
ROW 0C : F-3 03 . ... : G#2 04 . ... : A#2 02 . ... : ... .. . ... : ... .. . ...
ROW 0D : ... .. . ... : ... .. . ... : ... .. . ... : ... .. . ... : ... .. . ...
ROW 0E : ... .. . ... : ... .. . ... : ... .. . ... : ... .. . ... : ... .. . ...
ROW 0F : ... .. . ... : ... .. . ... : ... .. . ... : ... .. . ... : ... .. . ...
ROW 10 : ... .. . ... : ... .. . ... : ... .. . ... : ... .. . ... : ... .. . ...
ROW 11 : ... .. . ... : ... .. . ... : ... .. . ... : ... .. . ... : ... .. . ...
ROW 12 : F-3 03 . ... : A#2 04 . ... : G-2 02 . ... : ... .. . ... : ... .. . ...
ROW 13 : ... .. . ... : ... .. . ... : ... .. . ... : ... .. . ... : ... .. . ...
ROW 14 : ... .. . ... : ... .. . ... : ... .. . ... : ... .. . ... : ... .. . ...
ROW 15 : ... .. . ... : ... .. . ... : ... .. . ... : ... .. . ... : ... .. . ...
ROW 16 : ... .. . ... : ... .. . ... : ... .. . ... : ... .. . ... : ... .. . ...
ROW 17 : ... .. . ... : ... .. . ... : ... .. . ... : ... .. . ... : ... .. . ...
ROW 18 : F-3 03 . ... : C-3 04 . ... : F-2 02 . ... : ... .. . ... : ... .. . ...
ROW 19 : ... .. . ... : ... .. . ... : ... .. . ... : ... .. . ... : ... .. . ...
ROW 1A : ... .. . ... : ... .. . ... : ... .. . ... : ... .. . ... : ... .. . ...
ROW 1B : ... .. . ... : ... .. . ... : ... .. . ... : ... .. . ... : ... .. . ...
ROW 1C : ... .. . ... : ... .. . ... : ... .. . ... : ... .. . ... : ... .. . ...
ROW 1D : ... .. . ... : ... .. . ... : ... .. . ... : ... .. . ... : ... .. . ...
ROW 1E : E-3 03 . ... : C-3 04 . ... : F-2 02 . ... : ... .. . ... : ... .. . ...
ROW 1F : ... .. . ... : ... .. . ... : ... .. . ... : ... .. . ... : ... .. . ...
ROW 20 : ... .. . ... : ... .. . ... : ... .. . ... : ... .. . ... : ... .. . ...
ROW 21 : ... .. . ... : ... .. . ... : ... .. . ... : ... .. . ... : ... .. . ...
ROW 22 : ... .. . ... : ... .. . ... : ... .. . ... : ... .. . ... : ... .. . ...
ROW 23 : ... .. . ... : ... .. . ... : ... .. . ... : ... .. . ... : ... .. . ...

PATTERN 01
ROW 00 : C#4 03 . ... : F-3 04 . ... : A#3 02 . ... : ... .. . ... : ... .. . ...
ROW 01 : ... .. . ... : ... .. . ... : ... .. . ... : ... .. . ... : ... .. . ...
ROW 02 : F-3 03 . ... : C#3 04 . ... : ... .. . ... : ... .. . ... : ... .. . ...
ROW 03 : ... .. . ... : ... .. . ... : ... .. . ... : ... .. . ... : ... .. . ...
ROW 04 : C#4 03 . ... : F-3 04 . ... : ... .. . ... : ... .. . ... : ... .. . ...
ROW 05 : ... .. . ... : ... .. . ... : ... .. . ... : ... .. . ... : ... .. . ...
ROW 06 : C-4 03 . ... : D#3 04 . ... : F-3 02 . ... : ... .. . ... : ... .. . ...
ROW 07 : ... .. . ... : ... .. . ... : ... .. . ... : ... .. . ... : ... .. . ...
ROW 08 : ... .. . ... : ... .. . ... : ... .. . ... : ... .. . ... : ... .. . ...
ROW 09 : ... .. . ... : ... .. . ... : ... .. . ... : ... .. . ... : ... .. . ...
ROW 0A : ... .. . ... : ... .. . ... : ... .. . ... : ... .. . ... : ... .. . ...
ROW 0B : ... .. . ... : ... .. . ... : ... .. . ... : ... .. . ... : ... .. . ...
ROW 0C : A#3 03 . ... : C#3 04 . ... : D#3 02 . ... : ... .. . ... : ... .. . ...
ROW 0D : ... .. . ... : ... .. . ... : ... .. . ... : ... .. . ... : ... .. . ...
ROW 0E : ... .. . ... : ... .. . ... : ... .. . ... : ... .. . ... : ... .. . ...
ROW 0F : ... .. . ... : ... .. . ... : ... .. . ... : ... .. . ... : ... .. . ...
ROW 10 : ... .. . ... : ... .. . ... : ... .. . ... : ... .. . ... : ... .. . ...
ROW 11 : ... .. . ... : ... .. . ... : ... .. . ... : ... .. . ... : ... .. . ...
ROW 12 : A#3 03 . ... : D#3 04 . ... : C-3 02 . ... : ... .. . ... : ... .. . ...
ROW 13 : ... .. . ... : ... .. . ... : ... .. . ... : ... .. . ... : ... .. . ...
ROW 14 : ... .. . ... : ... .. . ... : ... .. . ... : ... .. . ... : ... .. . ...
ROW 15 : ... .. . ... : ... .. . ... : ... .. . ... : ... .. . ... : ... .. . ...
ROW 16 : ... .. . ... : ... .. . ... : ... .. . ... : ... .. . ... : ... .. . ...
ROW 17 : ... .. . ... : ... .. . ... : ... .. . ... : ... .. . ... : ... .. . ...
ROW 18 : A#3 03 . ... : F-3 04 . ... : A#2 02 . ... : ... .. . ... : ... .. . ...
ROW 19 : ... .. . ... : ... .. . ... : ... .. . ... : ... .. . ... : ... .. . ...
ROW 1A : ... .. . ... : ... .. . ... : ... .. . ... : ... .. . ... : ... .. . ...
ROW 1B : ... .. . ... : ... .. . ... : ... .. . ... : ... .. . ... : ... .. . ...
ROW 1C : ... .. . ... : ... .. . ... : ... .. . ... : ... .. . ... : ... .. . ...
ROW 1D : ... .. . ... : ... .. . ... : ... .. . ... : ... .. . ... : ... .. . ...
ROW 1E : A-3 03 . ... : F-3 04 . ... : A#2 02 . ... : ... .. . ... : ... .. . ...
ROW 1F : ... .. . ... : ... .. . ... : ... .. . ... : ... .. . ... : ... .. . ...
ROW 20 : ... .. . ... : ... .. . ... : ... .. . ... : ... .. . ... : ... .. . ...
ROW 21 : ... .. . ... : ... .. . ... : ... .. . ... : ... .. . ... : ... .. . ...
ROW 22 : ... .. . ... : ... .. . ... : ... .. . ... : ... .. . ... : ... .. . ...
ROW 23 : ... .. . ... : ... .. . ... : ... .. . ... : ... .. . ... : ... .. . ...

TRACK  64   6 150 "First_Song_NR"
COLUMNS : 1 1 1 1 1

ORDER 00 : 00 00 00 00 00

PATTERN 00
ROW 00 : C-3 00 . ... : C-1 00 . ... : ... .. . ... : ... .. . ... : ... .. . ...
ROW 01 : ... .. . ... : --- .. . ... : ... .. . ... : ... .. . ... : ... .. . ...
ROW 02 : --- .. . ... : ... .. . ... : ... .. . ... : ... .. . ... : ... .. . ...
ROW 03 : D#3 00 . ... : C-2 00 . ... : ... .. . ... : ... .. . ... : ... .. . ...
ROW 04 : ... .. . ... : --- .. . ... : ... .. . ... : ... .. . ... : ... .. . ...
ROW 05 : --- .. . ... : ... .. . ... : ... .. . ... : ... .. . ... : ... .. . ...
ROW 06 : F-3 00 . ... : C-1 00 . ... : ... .. . ... : ... .. . ... : ... .. . ...
ROW 07 : ... .. . ... : ... .. . ... : ... .. . ... : ... .. . ... : ... .. . ...
ROW 08 : G-3 00 . ... : --- .. . ... : ... .. . ... : ... .. . ... : ... .. . ...
ROW 09 : ... .. . ... : ... .. . ... : ... .. . ... : ... .. . ... : ... .. . ...
ROW 0A : ... .. . ... : C-2 00 . ... : ... .. . ... : ... .. . ... : ... .. . ...
ROW 0B : ... .. . ... : C-1 00 . ... : ... .. . ... : ... .. . ... : ... .. . ...
ROW 0C : D#3 00 . ... : --- .. . ... : ... .. . ... : ... .. . ... : ... .. . ...
ROW 0D : --- .. . ... : ... .. . ... : ... .. . ... : ... .. . ... : ... .. . ...
ROW 0E : D-3 00 . ... : D#1 00 . ... : ... .. . ... : ... .. . ... : ... .. . ...
ROW 0F : ... .. . ... : --- 00 . ... : ... .. . ... : ... .. . ... : ... .. . ...
ROW 10 : C-3 00 . ... : F-1 00 . ... : ... .. . ... : ... .. . ... : ... .. . ...
ROW 11 : ... .. . ... : ... .. . ... : ... .. . ... : ... .. . ... : ... .. . ...
ROW 12 : --- .. . ... : --- .. . ... : ... .. . ... : ... .. . ... : ... .. . ...
ROW 13 : C-3 00 . ... : F-1 00 . ... : ... .. . ... : ... .. . ... : ... .. . ...
ROW 14 : ... .. . ... : ... .. . ... : ... .. . ... : ... .. . ... : ... .. . ...
ROW 15 : --- .. . ... : --- 00 . ... : ... .. . ... : ... .. . ... : ... .. . ...
ROW 16 : C-3 00 . ... : F-1 00 . ... : ... .. . ... : ... .. . ... : ... .. . ...
ROW 17 : ... .. . ... : ... .. . ... : ... .. . ... : ... .. . ... : ... .. . ...
ROW 18 : --- .. . ... : D#1 00 . ... : ... .. . ... : ... .. . ... : ... .. . ...
ROW 19 : ... .. . ... : F-1 00 . ... : ... .. . ... : ... .. . ... : ... .. . ...
ROW 1A : A#2 00 . ... : F-2 00 . ... : ... .. . ... : ... .. . ... : ... .. . ...
ROW 1B : ... .. . ... : D#1 00 . ... : ... .. . ... : ... .. . ... : ... .. . ...
ROW 1C : --- .. . ... : ... .. . ... : ... .. . ... : ... .. . ... : ... .. . ...
ROW 1D : B-2 00 . ... : --- .. . ... : ... .. . ... : ... .. . ... : ... .. . ...
ROW 1E : ... .. . ... : D-1 00 . ... : ... .. . ... : ... .. . ... : ... .. . ...
ROW 1F : --- .. . ... : ... .. . ... : ... .. . ... : ... .. . ... : ... .. . ...
ROW 20 : C-3 00 . ... : C-1 00 . ... : ... .. . ... : ... .. . ... : ... .. . ...
ROW 21 : ... .. . ... : --- .. . ... : ... .. . ... : ... .. . ... : ... .. . ...
ROW 22 : --- .. . ... : ... .. . ... : ... .. . ... : ... .. . ... : ... .. . ...
ROW 23 : D#3 00 . ... : C-2 00 . ... : ... .. . ... : ... .. . ... : ... .. . ...
ROW 24 : ... .. . ... : --- .. . ... : ... .. . ... : ... .. . ... : ... .. . ...
ROW 25 : --- .. . ... : ... .. . ... : ... .. . ... : ... .. . ... : ... .. . ...
ROW 26 : F-3 00 . ... : C-1 00 . ... : ... .. . ... : ... .. . ... : ... .. . ...
ROW 27 : ... .. . ... : ... .. . ... : ... .. . ... : ... .. . ... : ... .. . ...
ROW 28 : G-3 00 . ... : ... .. . ... : ... .. . ... : ... .. . ... : ... .. . ...
ROW 29 : ... .. . ... : --- .. . ... : ... .. . ... : ... .. . ... : ... .. . ...
ROW 2A : ... .. . ... : C-2 00 . ... : ... .. . ... : ... .. . ... : ... .. . ...
ROW 2B : ... .. . ... : C-1 00 . ... : ... .. . ... : ... .. . ... : ... .. . ...
ROW 2C : D#3 00 . ... : --- 00 . ... : ... .. . ... : ... .. . ... : ... .. . ...
ROW 2D : --- .. . ... : ... .. . ... : ... .. . ... : ... .. . ... : ... .. . ...
ROW 2E : F-3 00 . ... : D#1 00 . ... : ... .. . ... : ... .. . ... : ... .. . ...
ROW 2F : ... .. . ... : --- .. . ... : ... .. . ... : ... .. . ... : ... .. . ...
ROW 30 : G-3 00 . ... : F-1 00 . ... : ... .. . ... : ... .. . ... : ... .. . ...
ROW 31 : ... .. . ... : ... .. . ... : ... .. . ... : ... .. . ... : ... .. . ...
ROW 32 : --- .. . ... : --- .. . ... : ... .. . ... : ... .. . ... : ... .. . ...
ROW 33 : G#3 00 . ... : F-1 00 . ... : ... .. . ... : ... .. . ... : ... .. . ...
ROW 34 : ... .. . ... : ... .. . ... : ... .. . ... : ... .. . ... : ... .. . ...
ROW 35 : --- .. . ... : --- .. . ... : ... .. . ... : ... .. . ... : ... .. . ...
ROW 36 : A#3 00 . ... : F-1 00 . ... : ... .. . ... : ... .. . ... : ... .. . ...
ROW 37 : ... .. . ... : ... .. . ... : ... .. . ... : ... .. . ... : ... .. . ...
ROW 38 : --- .. . ... : D#1 00 . ... : ... .. . ... : ... .. . ... : ... .. . ...
ROW 39 : ... .. . ... : F-1 00 . ... : ... .. . ... : ... .. . ... : ... .. . ...
ROW 3A : A#3 00 . ... : F-2 00 . ... : ... .. . ... : ... .. . ... : ... .. . ...
ROW 3B : ... .. . ... : D#1 00 . ... : ... .. . ... : ... .. . ... : ... .. . ...
ROW 3C : --- .. . ... : --- .. . ... : ... .. . ... : ... .. . ... : ... .. . ...
ROW 3D : B-3 00 . ... : D-1 00 . ... : ... .. . ... : ... .. . ... : ... .. . ...
ROW 3E : ... .. . ... : ... .. . ... : ... .. . ... : ... .. . ... : ... .. . ...
ROW 3F : --- .. . ... : ... .. . ... : ... .. . ... : ... .. . ... : ... .. . ...

TRACK  60   8 150 "Dont_Stop_Believin_NR"
COLUMNS : 1 1 1 1 1

ORDER 00 : 00 00 00 00 00

PATTERN 00
ROW 00 : E-1 01 . ... : E-3 04 . ... : B-4 02 . ... : ... .. . ... : ... .. . ...
ROW 01 : ... .. . ... : ... .. . ... : ... .. . ... : ... .. . ... : ... .. . ...
ROW 02 : ... .. . ... : B-3 04 . ... : --- .. . ... : ... .. . ... : ... .. . ...
ROW 03 : ... .. . ... : ... .. . ... : ... .. . ... : ... .. . ... : ... .. . ...
ROW 04 : ... .. . ... : E-3 04 . ... : B-4 02 . ... : ... .. . ... : ... .. . ...
ROW 05 : ... .. . ... : ... .. . ... : ... .. . ... : ... .. . ... : ... .. . ...
ROW 06 : ... .. . ... : B-3 04 . ... : --- .. . ... : ... .. . ... : ... .. . ...
ROW 07 : ... .. . ... : ... .. . ... : ... .. . ... : ... .. . ... : ... .. . ...
ROW 08 : ... .. . ... : E-3 04 . ... : B-4 02 . ... : ... .. . ... : ... .. . ...
ROW 09 : ... .. . ... : ... .. . ... : ... .. . ... : ... .. . ... : ... .. . ...
ROW 0A : F#1 01 . ... : B-3 04 . ... : --- .. . ... : ... .. . ... : ... .. . ...
ROW 0B : ... .. . ... : ... .. . ... : ... .. . ... : ... .. . ... : ... .. . ...
ROW 0C : G#1 01 . ... : E-3 04 . ... : B-4 02 . ... : ... .. . ... : ... .. . ...
ROW 0D : ... .. . ... : ... .. . ... : ... .. . ... : ... .. . ... : ... .. . ...
ROW 0E : B-1 01 . ... : B-3 04 . ... : --- .. . ... : ... .. . ... : ... .. . ...
ROW 0F : ... .. . ... : ... .. . ... : ... .. . ... : ... .. . ... : ... .. . ...
ROW 10 : ... .. . ... : F#3 04 . ... : B-4 02 . ... : ... .. . ... : ... .. . ...
ROW 11 : ... .. . ... : ... .. . ... : ... .. . ... : ... .. . ... : ... .. . ...
ROW 12 : ... .. . ... : B-3 04 . ... : --- .. . ... : ... .. . ... : ... .. . ...
ROW 13 : ... .. . ... : ... .. . ... : ... .. . ... : ... .. . ... : ... .. . ...
ROW 14 : ... .. . ... : F#3 04 . ... : B-4 02 . ... : ... .. . ... : ... .. . ...
ROW 15 : ... .. . ... : ... .. . ... : ... .. . ... : ... .. . ... : ... .. . ...
ROW 16 : ... .. . ... : B-3 04 . ... : --- .. . ... : ... .. . ... : ... .. . ...
ROW 17 : ... .. . ... : ... .. . ... : ... .. . ... : ... .. . ... : ... .. . ...
ROW 18 : C#2 01 . ... : F#3 04 . ... : B-4 02 . ... : ... .. . ... : ... .. . ...
ROW 19 : ... .. . ... : ... .. . ... : ... .. . ... : ... .. . ... : ... .. . ...
ROW 1A : D#2 01 . ... : B-3 04 . ... : --- .. . ... : ... .. . ... : ... .. . ...
ROW 1B : ... .. . ... : ... .. . ... : ... .. . ... : ... .. . ... : ... .. . ...
ROW 1C : C#2 01 . ... : F#3 04 . ... : B-4 02 . ... : ... .. . ... : ... .. . ...
ROW 1D : ... .. . ... : ... .. . ... : ... .. . ... : ... .. . ... : ... .. . ...
ROW 1E : ... .. . ... : B-3 04 . ... : --- .. . ... : ... .. . ... : ... .. . ...
ROW 1F : ... .. . ... : ... .. . ... : ... .. . ... : ... .. . ... : ... .. . ...
ROW 20 : ... .. . ... : E-3 04 . ... : B-4 02 . ... : ... .. . ... : ... .. . ...
ROW 21 : ... .. . ... : ... .. . ... : ... .. . ... : ... .. . ... : ... .. . ...
ROW 22 : ... .. . ... : B-3 04 . ... : --- .. . ... : ... .. . ... : ... .. . ...
ROW 23 : ... .. . ... : ... .. . ... : ... .. . ... : ... .. . ... : ... .. . ...
ROW 24 : ... .. . ... : E-3 04 . ... : B-4 02 . ... : ... .. . ... : ... .. . ...
ROW 25 : ... .. . ... : ... .. . ... : ... .. . ... : ... .. . ... : ... .. . ...
ROW 26 : ... .. . ... : B-3 04 . ... : --- .. . ... : ... .. . ... : ... .. . ...
ROW 27 : ... .. . ... : ... .. . ... : ... .. . ... : ... .. . ... : ... .. . ...
ROW 28 : D#2 01 . ... : E-3 04 . ... : B-4 02 . ... : ... .. . ... : ... .. . ...
ROW 29 : ... .. . ... : ... .. . ... : ... .. . ... : ... .. . ... : ... .. . ...
ROW 2A : E-2 01 . ... : B-3 04 . ... : --- .. . ... : ... .. . ... : ... .. . ...
ROW 2B : ... .. . ... : ... .. . ... : ... .. . ... : ... .. . ... : ... .. . ...
ROW 2C : A-1 01 . ... : E-3 04 . ... : B-4 02 . ... : ... .. . ... : ... .. . ...
ROW 2D : ... .. . ... : ... .. . ... : ... .. . ... : ... .. . ... : ... .. . ...
ROW 2E : ... .. . ... : B-3 04 . ... : --- .. . ... : ... .. . ... : ... .. . ...
ROW 2F : ... .. . ... : ... .. . ... : ... .. . ... : ... .. . ... : ... .. . ...
ROW 30 : ... .. . ... : C#3 04 . ... : A-4 02 . ... : ... .. . ... : ... .. . ...
ROW 31 : ... .. . ... : ... .. . ... : ... .. . ... : ... .. . ... : ... .. . ...
ROW 32 : ... .. . ... : A-3 04 . ... : --- .. . ... : ... .. . ... : ... .. . ...
ROW 33 : ... .. . ... : ... .. . ... : ... .. . ... : ... .. . ... : ... .. . ...
ROW 34 : ... .. . ... : C#3 04 . ... : A-4 02 . ... : ... .. . ... : ... .. . ...
ROW 35 : ... .. . ... : ... .. . ... : ... .. . ... : ... .. . ... : ... .. . ...
ROW 36 : ... .. . ... : A-3 04 . ... : --- .. . ... : ... .. . ... : ... .. . ...
ROW 37 : ... .. . ... : ... .. . ... : ... .. . ... : ... .. . ... : ... .. . ...
ROW 38 : D#2 01 . ... : C#3 04 . ... : A-4 02 . ... : ... .. . ... : ... .. . ...
ROW 39 : ... .. . ... : ... .. . ... : ... .. . ... : ... .. . ... : ... .. . ...
ROW 3A : E-2 01 . ... : A-3 04 . ... : --- .. . ... : ... .. . ... : ... .. . ...
ROW 3B : ... .. . ... : ... .. . ... : ... .. . ... : ... .. . ... : ... .. . ...

TRACK 192   2 150 "ZeldaShort_192Frame_NR"
COLUMNS : 1 1 1 1 1

ORDER 00 : 00 00 00 00 00
ORDER 01 : 01 01 01 01 01

PATTERN 00
ROW 00 : D-3 07 . V02 : A#3 07 . V02 : A#2 08 . ... : C-# 09 . ... : ... .. . ...
ROW 01 : ... .. . ... : ... .. . ... : ... .. . ... : ... .. . ... : ... .. . ...
ROW 02 : ... .. . ... : ... .. . ... : ... .. . ... : ... .. . ... : ... .. . ...
ROW 03 : ... .. . ... : ... .. . ... : ... .. . ... : ... .. . ... : ... .. . ...
ROW 04 : ... .. . ... : ... .. . ... : --- .. . ... : ... .. . ... : ... .. . ...
ROW 05 : ... .. . ... : ... .. . ... : ... .. . ... : ... .. . ... : ... .. . ...
ROW 06 : --- .. . ... : --- .. . ... : ... .. . ... : ... .. . ... : ... .. . ...
ROW 07 : ... .. . ... : ... .. . ... : ... .. . ... : ... .. . ... : ... .. . ...
ROW 08 : ... .. . ... : ... .. . ... : ... .. . ... : ... .. . ... : ... .. . ...
ROW 09 : ... .. . ... : ... .. . ... : ... .. . ... : ... .. . ... : ... .. . ...
ROW 0A : ... .. . ... : ... .. . ... : ... .. . ... : ... .. . ... : ... .. . ...
ROW 0B : ... .. . ... : ... .. . ... : ... .. . ... : ... .. . ... : ... .. . ...
ROW 0C : D-3 07 . ... : F-3 07 . ... : A#2 08 . ... : C-# 09 . ... : ... .. . ...
ROW 0D : ... .. . ... : ... .. . ... : ... .. . ... : ... .. . ... : ... .. . ...
ROW 0E : ... .. . ... : ... .. . ... : ... .. . ... : ... .. . ... : ... .. . ...
ROW 0F : ... .. . ... : ... .. . ... : ... .. . ... : ... .. . ... : ... .. . ...
ROW 10 : D-3 07 . ... : ... .. . ... : ... .. . ... : C-# 09 . ... : ... .. . ...
ROW 11 : ... .. . ... : ... .. . ... : ... .. . ... : ... .. . ... : ... .. . ...
ROW 12 : ... .. . ... : ... .. . ... : ... .. . ... : ... .. . ... : ... .. . ...
ROW 13 : ... .. . ... : ... .. . ... : ... .. . ... : ... .. . ... : ... .. . ...
ROW 14 : C-3 07 . ... : ... .. . ... : G#2 08 . ... : C-# 09 . ... : ... .. . ...
ROW 15 : ... .. . ... : ... .. . ... : ... .. . ... : ... .. . ... : ... .. . ...
ROW 16 : ... .. . ... : ... .. . ... : ... .. . ... : ... .. . ... : ... .. . ...
ROW 17 : ... .. . ... : ... .. . ... : ... .. . ... : ... .. . ... : ... .. . ...
ROW 18 : D-3 07 . ... : ... .. . ... : A#2 08 . ... : C-# 09 . ... : ... .. . ...
ROW 19 : ... .. . ... : ... .. . ... : ... .. . ... : ... .. . ... : ... .. . ...
ROW 1A : ... .. . ... : ... .. . ... : ... .. . ... : ... .. . ... : ... .. . ...
ROW 1B : ... .. . ... : ... .. . ... : ... .. . ... : ... .. . ... : ... .. . ...
ROW 1C : ... .. . ... : ... .. . ... : --- .. . ... : ... .. . ... : ... .. . ...
ROW 1D : ... .. . ... : ... .. . ... : ... .. . ... : ... .. . ... : ... .. . ...
ROW 1E : --- .. . ... : ... .. . ... : ... .. . ... : ... .. . ... : ... .. . ...
ROW 1F : ... .. . ... : ... .. . ... : ... .. . ... : ... .. . ... : ... .. . ...
ROW 20 : ... .. . ... : ... .. . ... : ... .. . ... : ... .. . ... : ... .. . ...
ROW 21 : D-3 07 . ... : A#3 07 . ... : ... .. . ... : ... .. . ... : ... .. . ...
ROW 22 : ... .. . ... : ... .. . ... : ... .. . ... : ... .. . ... : ... .. . ...
ROW 23 : ... .. . ... : ... .. . ... : ... .. . ... : ... .. . ... : ... .. . ...
ROW 24 : D-3 07 . ... : A#3 07 . ... : A#2 08 . ... : C-# 09 . ... : ... .. . ...
ROW 25 : ... .. . ... : ... .. . ... : ... .. . ... : ... .. . ... : ... .. . ...
ROW 26 : ... .. . ... : ... .. . ... : ... .. . ... : ... .. . ... : ... .. . ...
ROW 27 : D#3 07 . ... : C-4 07 . ... : ... .. . ... : ... .. . ... : ... .. . ...
ROW 28 : ... .. . ... : ... .. . ... : --- .. . ... : ... .. . ... : ... .. . ...
ROW 29 : ... .. . ... : ... .. . ... : ... .. . ... : ... .. . ... : ... .. . ...
ROW 2A : F-3 07 . ... : D-4 07 . ... : ... .. . ... : ... .. . ... : ... .. . ...
ROW 2B : ... .. . ... : ... .. . ... : ... .. . ... : ... .. . ... : ... .. . ...
ROW 2C : ... .. . ... : ... .. . ... : ... .. . ... : ... .. . ... : ... .. . ...
ROW 2D : G-3 07 . ... : D#4 07 . ... : ... .. . ... : ... .. . ... : ... .. . ...
ROW 2E : ... .. . ... : ... .. . ... : ... .. . ... : ... .. . ... : ... .. . ...
ROW 2F : ... .. . ... : ... .. . ... : ... .. . ... : ... .. . ... : ... .. . ...
ROW 30 : G#3 07 . ... : F-4 07 . ... : G#2 08 . ... : C-# 09 . ... : ... .. . ...
ROW 31 : ... .. . ... : ... .. . ... : ... .. . ... : ... .. . ... : ... .. . ...
ROW 32 : ... .. . ... : ... .. . ... : ... .. . ... : ... .. . ... : ... .. . ...
ROW 33 : ... .. . ... : ... .. . ... : ... .. . ... : ... .. . ... : ... .. . ...
ROW 34 : ... .. . ... : ... .. . ... : --- .. . ... : ... .. . ... : ... .. . ...
ROW 35 : ... .. . ... : ... .. . ... : ... .. . ... : ... .. . ... : ... .. . ...
ROW 36 : --- .. . ... : ... .. . ... : ... .. . ... : ... .. . ... : ... .. . ...
ROW 37 : ... .. . ... : ... .. . ... : ... .. . ... : ... .. . ... : ... .. . ...
ROW 38 : ... .. . ... : ... .. . ... : ... .. . ... : ... .. . ... : ... .. . ...
ROW 39 : A#3 07 . ... : ... .. . ... : ... .. . ... : ... .. . ... : ... .. . ...
ROW 3A : ... .. . ... : ... .. . ... : ... .. . ... : ... .. . ... : ... .. . ...
ROW 3B : ... .. . ... : ... .. . ... : ... .. . ... : ... .. . ... : ... .. . ...
ROW 3C : A#3 07 . ... : ... .. . ... : G#2 08 . ... : C-# 09 . ... : ... .. . ...
ROW 3D : ... .. . ... : ... .. . ... : ... .. . ... : ... .. . ... : ... .. . ...
ROW 3E : ... .. . ... : ... .. . ... : ... .. . ... : ... .. . ... : ... .. . ...
ROW 3F : C-4 07 . ... : ... .. . ... : ... .. . ... : ... .. . ... : ... .. . ...
ROW 40 : ... .. . V02 : ... .. . V02 : ... .. . ... : C-# 09 . ... : ... .. . ...
ROW 41 : ... .. . ... : ... .. . ... : ... .. . ... : ... .. . ... : ... .. . ...
ROW 42 : D-4 07 . ... : ... .. . ... : ... .. . ... : ... .. . ... : ... .. . ...
ROW 43 : ... .. . ... : ... .. . ... : ... .. . ... : ... .. . ... : ... .. . ...
ROW 44 : ... .. . ... : ... .. . ... : F#2 08 . ... : C-# 09 . ... : ... .. . ...
ROW 45 : D#4 07 . ... : ... .. . ... : ... .. . ... : ... .. . ... : ... .. . ...
ROW 46 : ... .. . ... : ... .. . ... : ... .. . ... : ... .. . ... : ... .. . ...
ROW 47 : ... .. . ... : ... .. . ... : ... .. . ... : ... .. . ... : ... .. . ...
ROW 48 : F-4 07 . ... : ... .. . ... : G#2 08 . ... : C-# 09 . ... : ... .. . ...
ROW 49 : ... .. . ... : ... .. . ... : ... .. . ... : ... .. . ... : ... .. . ...
ROW 4A : ... .. . ... : ... .. . ... : ... .. . ... : ... .. . ... : ... .. . ...
ROW 4B : ... .. . ... : ... .. . ... : ... .. . ... : ... .. . ... : ... .. . ...
ROW 4C : ... .. . ... : ... .. . ... : --- .. . ... : ... .. . ... : ... .. . ...
ROW 4D : ... .. . ... : ... .. . ... : ... .. . ... : ... .. . ... : ... .. . ...
ROW 4E : ... .. . ... : F-4 07 . ... : ... .. . ... : ... .. . ... : ... .. . ...
ROW 4F : ... .. . ... : ... .. . ... : ... .. . ... : ... .. . ... : ... .. . ...
ROW 50 : ... .. . ... : ... .. . ... : ... .. . ... : ... .. . ... : ... .. . ...
ROW 51 : ... .. . ... : ... .. . ... : ... .. . ... : ... .. . ... : ... .. . ...
ROW 52 : ... .. . ... : ... .. . ... : ... .. . ... : ... .. . ... : ... .. . ...
ROW 53 : ... .. . ... : ... .. . ... : ... .. . ... : ... .. . ... : ... .. . ...
ROW 54 : G#3 07 . ... : F-4 07 . ... : G#2 08 . ... : C-# 09 . ... : ... .. . ...
ROW 55 : ... .. . ... : ... .. . ... : ... .. . ... : ... .. . ... : ... .. . ...
ROW 56 : ... .. . ... : ... .. . ... : ... .. . ... : ... .. . ... : ... .. . ...
ROW 57 : ... .. . ... : ... .. . ... : ... .. . ... : ... .. . ... : ... .. . ...
ROW 58 : A#3 07 . ... : F#4 07 . ... : --- .. . ... : ... .. . ... : ... .. . ...
ROW 59 : ... .. . ... : ... .. . ... : ... .. . ... : ... .. . ... : ... .. . ...
ROW 5A : ... .. . ... : ... .. . ... : ... .. . ... : ... .. . ... : ... .. . ...
ROW 5B : ... .. . ... : ... .. . ... : ... .. . ... : ... .. . ... : ... .. . ...
ROW 5C : C-4 07 . ... : G#4 07 . ... : ... .. . ... : ... .. . ... : ... .. . ...
ROW 5D : ... .. . ... : ... .. . ... : ... .. . ... : ... .. . ... : ... .. . ...
ROW 5E : ... .. . ... : ... .. . ... : ... .. . ... : ... .. . ... : ... .. . ...
ROW 5F : ... .. . ... : ... .. . ... : ... .. . ... : ... .. . ... : ... .. . ...
ROW 60 : C#4 07 . ... : A#4 07 . ... : F#2 08 . ... : C-# 09 . ... : ... .. . ...
ROW 61 : ... .. . ... : ... .. . ... : ... .. . ... : ... .. . ... : ... .. . ...
ROW 62 : ... .. . ... : ... .. . ... : ... .. . ... : ... .. . ... : ... .. . ...
ROW 63 : ... .. . ... : ... .. . ... : ... .. . ... : ... .. . ... : ... .. . ...
ROW 64 : ... .. . ... : ... .. . ... : --- .. . ... : ... .. . ... : ... .. . ...
ROW 65 : ... .. . ... : ... .. . ... : ... .. . ... : ... .. . ... : ... .. . ...
ROW 66 : --- .. . ... : ... .. . ... : ... .. . ... : ... .. . ... : ... .. . ...
ROW 67 : ... .. . ... : ... .. . ... : ... .. . ... : ... .. . ... : ... .. . ...
ROW 68 : ... .. . ... : ... .. . ... : ... .. . ... : ... .. . ... : ... .. . ...
ROW 69 : F#3 07 . ... : ... .. . ... : ... .. . ... : ... .. . ... : ... .. . ...
ROW 6A : ... .. . ... : ... .. . ... : ... .. . ... : ... .. . ... : ... .. . ...
ROW 6B : ... .. . ... : ... .. . ... : ... .. . ... : ... .. . ... : ... .. . ...
ROW 6C : F#3 07 . ... : ... .. . ... : F#2 08 . ... : C-# 09 . ... : ... .. . ...
ROW 6D : ... .. . ... : ... .. . ... : ... .. . ... : ... .. . ... : ... .. . ...
ROW 6E : ... .. . ... : ... .. . ... : ... .. . ... : ... .. . ... : ... .. . ...
ROW 6F : G#3 07 . ... : ... .. . ... : ... .. . ... : ... .. . ... : ... .. . ...
ROW 70 : ... .. . ... : ... .. . ... : ... .. . ... : C-# 09 . ... : ... .. . ...
ROW 71 : ... .. . ... : ... .. . ... : ... .. . ... : ... .. . ... : ... .. . ...
ROW 72 : A#3 07 . ... : ... .. . ... : ... .. . ... : ... .. . ... : ... .. . ...
ROW 73 : ... .. . ... : ... .. . ... : ... .. . ... : ... .. . ... : ... .. . ...
ROW 74 : ... .. . ... : ... .. . ... : E-2 08 . ... : C-# 09 . ... : ... .. . ...
ROW 75 : C-4 07 . ... : ... .. . ... : ... .. . ... : ... .. . ... : ... .. . ...
ROW 76 : ... .. . ... : ... .. . ... : ... .. . ... : ... .. . ... : ... .. . ...
ROW 77 : ... .. . ... : ... .. . ... : ... .. . ... : ... .. . ... : ... .. . ...
ROW 78 : C#4 07 . ... : ... .. . ... : F#2 08 . ... : C-# 09 . ... : ... .. . ...
ROW 79 : ... .. . ... : ... .. . ... : ... .. . ... : ... .. . ... : ... .. . ...
ROW 7A : ... .. . ... : ... .. . ... : ... .. . ... : ... .. . ... : ... .. . ...
ROW 7B : ... .. . ... : ... .. . ... : ... .. . ... : ... .. . ... : ... .. . ...
ROW 7C : --- .. . ... : A#4 07 . ... : --- .. . ... : ... .. . ... : ... .. . ...
ROW 7D : ... .. . ... : ... .. . ... : ... .. . ... : ... .. . ... : ... .. . ...
ROW 7E : ... .. . ... : ... .. . ... : ... .. . ... : ... .. . ... : ... .. . ...
ROW 7F : ... .. . ... : ... .. . ... : ... .. . ... : ... .. . ... : ... .. . ...
ROW 80 : C#4 07 . V02 : A#4 07 . V02 : ... .. . ... : ... .. . ... : ... .. . ...
ROW 81 : ... .. . ... : ... .. . ... : ... .. . ... : ... .. . ... : ... .. . ...
ROW 82 : ... .. . ... : ... .. . ... : ... .. . ... : ... .. . ... : ... .. . ...
ROW 83 : ... .. . ... : ... .. . ... : ... .. . ... : ... .. . ... : ... .. . ...
ROW 84 : C#4 07 . ... : A#4 07 . ... : F#2 08 . ... : C-# 09 . ... : ... .. . ...
ROW 85 : ... .. . ... : ... .. . ... : ... .. . ... : ... .. . ... : ... .. . ...
ROW 86 : ... .. . ... : ... .. . ... : ... .. . ... : ... .. . ... : ... .. . ...
ROW 87 : ... .. . ... : ... .. . ... : ... .. . ... : ... .. . ... : ... .. . ...
ROW 88 : C-4 07 . ... : G#4 07 . ... : --- .. . ... : ... .. . ... : ... .. . ...
ROW 89 : ... .. . ... : ... .. . ... : ... .. . ... : ... .. . ... : ... .. . ...
ROW 8A : ... .. . ... : ... .. . ... : ... .. . ... : ... .. . ... : ... .. . ...
ROW 8B : ... .. . ... : ... .. . ... : ... .. . ... : ... .. . ... : ... .. . ...
ROW 8C : A#3 07 . ... : F#4 07 . ... : ... .. . ... : ... .. . ... : ... .. . ...
ROW 8D : ... .. . ... : ... .. . ... : ... .. . ... : ... .. . ... : ... .. . ...
ROW 8E : ... .. . ... : ... .. . ... : ... .. . ... : ... .. . ... : ... .. . ...
ROW 8F : ... .. . ... : ... .. . ... : ... .. . ... : ... .. . ... : ... .. . ...
ROW 90 : C#4 07 . ... : G#4 07 . ... : C#3 08 . ... : C-# 09 . ... : ... .. . ...
ROW 91 : ... .. . ... : ... .. . ... : ... .. . ... : ... .. . ... : ... .. . ...
ROW 92 : ... .. . ... : ... .. . ... : ... .. . ... : ... .. . ... : ... .. . ...
ROW 93 : ... .. . ... : ... .. . ... : ... .. . ... : ... .. . ... : ... .. . ...
ROW 94 : --- .. . ... : --- .. . ... : --- .. . ... : ... .. . ... : ... .. . ...
ROW 95 : ... .. . ... : ... .. . ... : ... .. . ... : ... .. . ... : ... .. . ...
ROW 96 : ... .. . ... : ... .. . ... : ... .. . ... : ... .. . ... : ... .. . ...
ROW 97 : ... .. . ... : ... .. . ... : ... .. . ... : ... .. . ... : ... .. . ...
ROW 98 : G#3 07 . ... : F#4 07 . ... : ... .. . ... : ... .. . ... : ... .. . ...
ROW 99 : ... .. . ... : ... .. . ... : ... .. . ... : ... .. . ... : ... .. . ...
ROW 9A : ... .. . ... : ... .. . ... : ... .. . ... : ... .. . ... : ... .. . ...
ROW 9B : ... .. . ... : ... .. . ... : ... .. . ... : ... .. . ... : ... .. . ...
ROW 9C : G#3 07 . ... : F-4 07 . ... : C#3 08 . ... : C-# 09 . ... : ... .. . ...
ROW 9D : ... .. . ... : ... .. . ... : ... .. . ... : ... .. . ... : ... .. . ...
ROW 9E : ... .. . ... : ... .. . ... : ... .. . ... : ... .. . ... : ... .. . ...
ROW 9F : ... .. . ... : ... .. . ... : ... .. . ... : ... .. . ... : ... .. . ...
ROW A0 : G#3 07 . ... : ... .. . ... : ... .. . ... : C-# 09 . ... : ... .. . ...
ROW A1 : ... .. . ... : ... .. . ... : ... .. . ... : ... .. . ... : ... .. . ...
ROW A2 : ... .. . ... : ... .. . ... : ... .. . ... : ... .. . ... : ... .. . ...
ROW A3 : ... .. . ... : ... .. . ... : ... .. . ... : ... .. . ... : ... .. . ...
ROW A4 : F#3 07 . ... : ... .. . ... : C-3 08 . ... : C-# 09 . ... : ... .. . ...
ROW A5 : ... .. . ... : ... .. . ... : ... .. . ... : ... .. . ... : ... .. . ...
ROW A6 : ... .. . ... : ... .. . ... : ... .. . ... : ... .. . ... : ... .. . ...
ROW A7 : ... .. . ... : ... .. . ... : ... .. . ... : ... .. . ... : ... .. . ...
ROW A8 : G#3 07 . ... : ... .. . ... : C#3 08 . ... : C-# 09 . ... : ... .. . ...
ROW A9 : ... .. . ... : ... .. . ... : ... .. . ... : ... .. . ... : ... .. . ...
ROW AA : ... .. . ... : ... .. . ... : ... .. . ... : ... .. . ... : ... .. . ...
ROW AB : ... .. . ... : ... .. . ... : ... .. . ... : ... .. . ... : ... .. . ...
ROW AC : --- .. . ... : ... .. . ... : --- .. . ... : ... .. . ... : ... .. . ...
ROW AD : ... .. . ... : ... .. . ... : ... .. . ... : ... .. . ... : ... .. . ...
ROW AE : ... .. . ... : ... .. . ... : ... .. . ... : ... .. . ... : ... .. . ...
ROW AF : ... .. . ... : ... .. . ... : ... .. . ... : ... .. . ... : ... .. . ...
ROW B0 : G#3 07 . ... : ... .. . ... : ... .. . ... : ... .. . ... : ... .. . ...
ROW B1 : ... .. . ... : ... .. . ... : ... .. . ... : ... .. . ... : ... .. . ...
ROW B2 : ... .. . ... : ... .. . ... : ... .. . ... : ... .. . ... : ... .. . ...
ROW B3 : ... .. . ... : ... .. . ... : ... .. . ... : ... .. . ... : ... .. . ...
ROW B4 : G#3 07 . ... : F-4 07 . ... : C#3 08 . ... : C-# 09 . ... : ... .. . ...
ROW B5 : ... .. . ... : ... .. . ... : ... .. . ... : ... .. . ... : ... .. . ...
ROW B6 : ... .. . ... : ... .. . ... : ... .. . ... : ... .. . ... : ... .. . ...
ROW B7 : ... .. . ... : ... .. . ... : ... .. . ... : ... .. . ... : ... .. . ...
ROW B8 : F#3 07 . ... : ... .. . ... : --- .. . ... : ... .. . ... : ... .. . ...
ROW B9 : ... .. . ... : ... .. . ... : ... .. . ... : ... .. . ... : ... .. . ...
ROW BA : ... .. . ... : ... .. . ... : ... .. . ... : ... .. . ... : ... .. . ...
ROW BB : ... .. . ... : ... .. . ... : ... .. . ... : ... .. . ... : ... .. . ...
ROW BC : G#3 07 . ... : ... .. . ... : ... .. . ... : ... .. . ... : ... .. . ...
ROW BD : ... .. . ... : ... .. . ... : ... .. . ... : ... .. . ... : ... .. . ...
ROW BE : ... .. . ... : ... .. . ... : ... .. . ... : ... .. . ... : ... .. . ...
ROW BF : ... .. . ... : ... .. . ... : ... .. . ... : ... .. . ... : ... .. . ...

PATTERN 01
ROW 00 : F#3 07 . V02 : D#4 07 . V02 : B-2 08 . ... : C-# 09 . ... : ... .. . ...
ROW 01 : ... .. . ... : ... .. . ... : ... .. . ... : ... .. . ... : ... .. . ...
ROW 02 : ... .. . ... : ... .. . ... : ... .. . ... : ... .. . ... : ... .. . ...
ROW 03 : ... .. . ... : ... .. . ... : ... .. . ... : ... .. . ... : ... .. . ...
ROW 04 : ... .. . ... : ... .. . ... : --- .. . ... : ... .. . ... : ... .. . ...
ROW 05 : ... .. . ... : ... .. . ... : ... .. . ... : ... .. . ... : ... .. . ...
ROW 06 : F#3 07 . ... : D#4 07 . ... : ... .. . ... : ... .. . ... : ... .. . ...
ROW 07 : ... .. . ... : ... .. . ... : ... .. . ... : ... .. . ... : ... .. . ...
ROW 08 : ... .. . ... : ... .. . ... : ... .. . ... : ... .. . ... : ... .. . ...
ROW 09 : F#3 07 . ... : F-4 07 . ... : ... .. . ... : ... .. . ... : ... .. . ...
ROW 0A : ... .. . ... : ... .. . ... : ... .. . ... : ... .. . ... : ... .. . ...
ROW 0B : ... .. . ... : ... .. . ... : ... .. . ... : ... .. . ... : ... .. . ...
ROW 0C : F#3 07 . ... : F#4 07 . ... : B-2 08 . ... : C-# 09 . ... : ... .. . ...
ROW 0D : ... .. . ... : ... .. . ... : ... .. . ... : ... .. . ... : ... .. . ...
ROW 0E : ... .. . ... : ... .. . ... : ... .. . ... : ... .. . ... : ... .. . ...
ROW 0F : ... .. . ... : ... .. . ... : ... .. . ... : ... .. . ... : ... .. . ...
ROW 10 : ... .. . ... : ... .. . ... : ... .. . ... : C-# 09 . ... : ... .. . ...
ROW 11 : ... .. . ... : ... .. . ... : ... .. . ... : ... .. . ... : ... .. . ...
ROW 12 : F#3 07 . ... : ... .. . ... : ... .. . ... : ... .. . ... : ... .. . ...
ROW 13 : ... .. . ... : ... .. . ... : ... .. . ... : ... .. . ... : ... .. . ...
ROW 14 : ... .. . ... : ... .. . ... : A#2 08 . ... : C-# 09 . ... : ... .. . ...
ROW 15 : G#3 07 . ... : ... .. . ... : ... .. . ... : ... .. . ... : ... .. . ...
ROW 16 : ... .. . ... : ... .. . ... : ... .. . ... : ... .. . ... : ... .. . ...
ROW 17 : ... .. . ... : ... .. . ... : ... .. . ... : ... .. . ... : ... .. . ...
ROW 18 : A#3 07 . ... : ... .. . ... : B-2 08 . ... : C-# 09 . ... : ... .. . ...
ROW 19 : ... .. . ... : ... .. . ... : ... .. . ... : ... .. . ... : ... .. . ...
ROW 1A : ... .. . ... : ... .. . ... : ... .. . ... : ... .. . ... : ... .. . ...
ROW 1B : ... .. . ... : ... .. . ... : ... .. . ... : ... .. . ... : ... .. . ...
ROW 1C : ... .. . ... : ... .. . ... : --- .. . ... : ... .. . ... : ... .. . ...
ROW 1D : ... .. . ... : ... .. . ... : ... .. . ... : ... .. . ... : ... .. . ...
ROW 1E : ... .. . ... : ... .. . ... : ... .. . ... : ... .. . ... : ... .. . ...
ROW 1F : ... .. . ... : ... .. . ... : ... .. . ... : ... .. . ... : ... .. . ...
ROW 20 : ... .. . ... : ... .. . ... : ... .. . ... : ... .. . ... : ... .. . ...
ROW 21 : ... .. . ... : ... .. . ... : ... .. . ... : ... .. . ... : ... .. . ...
ROW 22 : ... .. . ... : ... .. . ... : ... .. . ... : ... .. . ... : ... .. . ...
ROW 23 : ... .. . ... : ... .. . ... : ... .. . ... : ... .. . ... : ... .. . ...
ROW 24 : G#3 07 . ... : F-4 07 . ... : B-2 08 . ... : C-# 09 . ... : ... .. . ...
ROW 25 : ... .. . ... : ... .. . ... : ... .. . ... : ... .. . ... : ... .. . ...
ROW 26 : ... .. . ... : ... .. . ... : ... .. . ... : ... .. . ... : ... .. . ...
ROW 27 : ... .. . ... : ... .. . ... : ... .. . ... : ... .. . ... : ... .. . ...
ROW 28 : ... .. . ... : ... .. . ... : ... .. . ... : ... .. . ... : ... .. . ...
ROW 29 : ... .. . ... : ... .. . ... : ... .. . ... : ... .. . ... : ... .. . ...
ROW 2A : F#3 07 . ... : D#4 07 . ... : ... .. . ... : ... .. . ... : ... .. . ...
ROW 2B : ... .. . ... : ... .. . ... : ... .. . ... : ... .. . ... : ... .. . ...
ROW 2C : ... .. . ... : ... .. . ... : ... .. . ... : ... .. . ... : ... .. . ...
ROW 2D : ... .. . ... : ... .. . ... : ... .. . ... : ... .. . ... : ... .. . ...
ROW 2E : ... .. . ... : ... .. . ... : ... .. . ... : ... .. . ... : ... .. . ...
ROW 2F : ... .. . ... : ... .. . ... : ... .. . ... : ... .. . ... : ... .. . ...
ROW 30 : F-3 07 . ... : C#4 07 . ... : A#2 08 . ... : C-# 09 . ... : ... .. . ...
ROW 31 : ... .. . ... : ... .. . ... : ... .. . ... : ... .. . ... : ... .. . ...
ROW 32 : ... .. . ... : ... .. . ... : ... .. . ... : ... .. . ... : ... .. . ...
ROW 33 : ... .. . ... : ... .. . ... : ... .. . ... : ... .. . ... : ... .. . ...
ROW 34 : ... .. . ... : ... .. . ... : --- .. . ... : ... .. . ... : ... .. . ...
ROW 35 : ... .. . ... : ... .. . ... : ... .. . ... : ... .. . ... : ... .. . ...
ROW 36 : F-3 07 . ... : C#4 07 . ... : ... .. . ... : ... .. . ... : ... .. . ...
ROW 37 : ... .. . ... : ... .. . ... : ... .. . ... : ... .. . ... : ... .. . ...
ROW 38 : ... .. . ... : ... .. . ... : ... .. . ... : ... .. . ... : ... .. . ...
ROW 39 : D#3 07 . ... : D#4 07 . ... : ... .. . ... : ... .. . ... : ... .. . ...
ROW 3A : ... .. . ... : ... .. . ... : ... .. . ... : ... .. . ... : ... .. . ...
ROW 3B : ... .. . ... : ... .. . ... : ... .. . ... : ... .. . ... : ... .. . ...
ROW 3C : F-3 07 . ... : F-4 07 . ... : A#2 08 . ... : C-# 09 . ... : ... .. . ...
ROW 3D : ... .. . ... : ... .. . ... : ... .. . ... : ... .. . ... : ... .. . ...
ROW 3E : ... .. . ... : ... .. . ... : ... .. . ... : ... .. . ... : ... .. . ...
ROW 3F : ... .. . ... : ... .. . ... : ... .. . ... : ... .. . ... : ... .. . ...
ROW 40 : ... .. . V02 : ... .. . V02 : ... .. . ... : C-# 09 . ... : ... .. . ...
ROW 41 : ... .. . ... : ... .. . ... : ... .. . ... : ... .. . ... : ... .. . ...
ROW 42 : F-3 07 . ... : ... .. . ... : ... .. . ... : ... .. . ... : ... .. . ...
ROW 43 : ... .. . ... : ... .. . ... : ... .. . ... : ... .. . ... : ... .. . ...
ROW 44 : ... .. . ... : ... .. . ... : G#2 08 . ... : C-# 09 . ... : ... .. . ...
ROW 45 : F#3 07 . ... : ... .. . ... : ... .. . ... : ... .. . ... : ... .. . ...
ROW 46 : ... .. . ... : ... .. . ... : ... .. . ... : ... .. . ... : ... .. . ...
ROW 47 : ... .. . ... : ... .. . ... : ... .. . ... : ... .. . ... : ... .. . ...
ROW 48 : G#3 07 . ... : ... .. . ... : A#2 08 . ... : C-# 09 . ... : ... .. . ...
ROW 49 : ... .. . ... : ... .. . ... : ... .. . ... : ... .. . ... : ... .. . ...
ROW 4A : ... .. . ... : ... .. . ... : ... .. . ... : ... .. . ... : ... .. . ...
ROW 4B : ... .. . ... : ... .. . ... : ... .. . ... : ... .. . ... : ... .. . ...
ROW 4C : ... .. . ... : ... .. . ... : --- .. . ... : ... .. . ... : ... .. . ...
ROW 4D : ... .. . ... : ... .. . ... : ... .. . ... : ... .. . ... : ... .. . ...
ROW 4E : ... .. . ... : ... .. . ... : ... .. . ... : ... .. . ... : ... .. . ...
ROW 4F : ... .. . ... : ... .. . ... : ... .. . ... : ... .. . ... : ... .. . ...
ROW 50 : ... .. . ... : ... .. . ... : ... .. . ... : ... .. . ... : ... .. . ...
ROW 51 : ... .. . ... : ... .. . ... : ... .. . ... : ... .. . ... : ... .. . ...
ROW 52 : ... .. . ... : ... .. . ... : ... .. . ... : ... .. . ... : ... .. . ...
ROW 53 : ... .. . ... : ... .. . ... : ... .. . ... : ... .. . ... : ... .. . ...
ROW 54 : F#3 07 . ... : D#4 07 . ... : A#2 08 . ... : C-# 09 . ... : ... .. . ...
ROW 55 : ... .. . ... : ... .. . ... : ... .. . ... : ... .. . ... : ... .. . ...
ROW 56 : ... .. . ... : ... .. . ... : ... .. . ... : ... .. . ... : ... .. . ...
ROW 57 : ... .. . ... : ... .. . ... : ... .. . ... : ... .. . ... : ... .. . ...
ROW 58 : ... .. . ... : ... .. . ... : ... .. . ... : ... .. . ... : ... .. . ...
ROW 59 : ... .. . ... : ... .. . ... : ... .. . ... : ... .. . ... : ... .. . ...
ROW 5A : F-3 07 . ... : C#4 07 . ... : ... .. . ... : ... .. . ... : ... .. . ...
ROW 5B : ... .. . ... : ... .. . ... : ... .. . ... : ... .. . ... : ... .. . ...
ROW 5C : ... .. . ... : ... .. . ... : ... .. . ... : ... .. . ... : ... .. . ...
ROW 5D : ... .. . ... : ... .. . ... : ... .. . ... : ... .. . ... : ... .. . ...
ROW 5E : ... .. . ... : ... .. . ... : ... .. . ... : ... .. . ... : ... .. . ...
ROW 5F : ... .. . ... : ... .. . ... : ... .. . ... : ... .. . ... : ... .. . ...
ROW 60 : E-3 07 . ... : C-4 07 . ... : C-3 08 . ... : C-# 09 . ... : ... .. . ...
ROW 61 : ... .. . ... : ... .. . ... : ... .. . ... : ... .. . ... : ... .. . ...
ROW 62 : ... .. . ... : ... .. . ... : ... .. . ... : ... .. . ... : ... .. . ...
ROW 63 : ... .. . ... : ... .. . ... : ... .. . ... : ... .. . ... : ... .. . ...
ROW 64 : ... .. . ... : ... .. . ... : --- .. . ... : ... .. . ... : ... .. . ...
ROW 65 : ... .. . ... : ... .. . ... : ... .. . ... : ... .. . ... : ... .. . ...
ROW 66 : ... .. . ... : C-4 07 . ... : ... .. . ... : ... .. . ... : ... .. . ...
ROW 67 : ... .. . ... : ... .. . ... : ... .. . ... : ... .. . ... : ... .. . ...
ROW 68 : ... .. . ... : ... .. . ... : ... .. . ... : ... .. . ... : ... .. . ...
ROW 69 : ... .. . ... : D-4 07 . ... : ... .. . ... : ... .. . ... : ... .. . ...
ROW 6A : ... .. . ... : ... .. . ... : ... .. . ... : ... .. . ... : ... .. . ...
ROW 6B : ... .. . ... : ... .. . ... : ... .. . ... : ... .. . ... : ... .. . ...
ROW 6C : E-3 07 . ... : E-4 07 . ... : C-3 08 . ... : C-# 09 . ... : ... .. . ...
ROW 6D : ... .. . ... : ... .. . ... : ... .. . ... : ... .. . ... : ... .. . ...
ROW 6E : ... .. . ... : ... .. . ... : ... .. . ... : ... .. . ... : ... .. . ...
ROW 6F : ... .. . ... : ... .. . ... : ... .. . ... : ... .. . ... : ... .. . ...
ROW 70 : ... .. . ... : ... .. . ... : ... .. . ... : C-# 09 . ... : ... .. . ...
ROW 71 : ... .. . ... : ... .. . ... : ... .. . ... : ... .. . ... : ... .. . ...
ROW 72 : E-3 07 . ... : ... .. . ... : ... .. . ... : ... .. . ... : ... .. . ...
ROW 73 : ... .. . ... : ... .. . ... : ... .. . ... : ... .. . ... : ... .. . ...
ROW 74 : ... .. . ... : ... .. . ... : B-2 08 . ... : C-# 09 . ... : ... .. . ...
ROW 75 : F-3 07 . ... : ... .. . ... : ... .. . ... : ... .. . ... : ... .. . ...
ROW 76 : ... .. . ... : ... .. . ... : ... .. . ... : ... .. . ... : ... .. . ...
ROW 77 : ... .. . ... : ... .. . ... : ... .. . ... : ... .. . ... : ... .. . ...
ROW 78 : G-3 07 . ... : ... .. . ... : C-3 08 . ... : C-# 09 . ... : ... .. . ...
ROW 79 : ... .. . ... : ... .. . ... : ... .. . ... : ... .. . ... : ... .. . ...
ROW 7A : ... .. . ... : ... .. . ... : ... .. . ... : ... .. . ... : ... .. . ...
ROW 7B : ... .. . ... : ... .. . ... : ... .. . ... : ... .. . ... : ... .. . ...
ROW 7C : ... .. . ... : ... .. . ... : --- .. . ... : ... .. . ... : ... .. . ...
ROW 7D : ... .. . ... : ... .. . ... : ... .. . ... : ... .. . ... : ... .. . ...
ROW 7E : G-3 07 . ... : ... .. . ... : ... .. . ... : ... .. . ... : ... .. . ...
ROW 7F : ... .. . ... : ... .. . ... : ... .. . ... : ... .. . ... : ... .. . ...
ROW 80 : ... .. . V02 : ... .. . V02 : ... .. . ... : ... .. . ... : ... .. . ...
ROW 81 : A-3 07 . ... : ... .. . ... : ... .. . ... : ... .. . ... : ... .. . ...
ROW 82 : ... .. . ... : ... .. . ... : ... .. . ... : ... .. . ... : ... .. . ...
ROW 83 : ... .. . ... : ... .. . ... : ... .. . ... : ... .. . ... : ... .. . ...
ROW 84 : A#3 07 . ... : G-4 07 . ... : C-3 08 . ... : C-# 09 . ... : ... .. . ...
ROW 85 : ... .. . ... : ... .. . ... : ... .. . ... : ... .. . ... : ... .. . ...
ROW 86 : ... .. . ... : ... .. . ... : ... .. . ... : ... .. . ... : ... .. . ...
ROW 87 : ... .. . ... : ... .. . ... : ... .. . ... : ... .. . ... : ... .. . ...
ROW 88 : ... .. . ... : ... .. . ... : ... .. . ... : ... .. . ... : ... .. . ...
ROW 89 : ... .. . ... : ... .. . ... : ... .. . ... : ... .. . ... : ... .. . ...
ROW 8A : C-4 07 . ... : ... .. . ... : ... .. . ... : ... .. . ... : ... .. . ...
ROW 8B : ... .. . ... : ... .. . ... : ... .. . ... : ... .. . ... : ... .. . ...
ROW 8C : ... .. . ... : ... .. . ... : ... .. . ... : ... .. . ... : ... .. . ...
ROW 8D : ... .. . ... : ... .. . ... : ... .. . ... : ... .. . ... : ... .. . ...
ROW 8E : ... .. . ... : ... .. . ... : ... .. . ... : ... .. . ... : ... .. . ...
ROW 8F : ... .. . ... : ... .. . ... : ... .. . ... : ... .. . ... : ... .. . ...
ROW 90 : A-3 07 . ... : F-4 07 . ... : F-2 08 . ... : C-# 09 . ... : ... .. . ...
ROW 91 : ... .. . ... : ... .. . ... : ... .. . ... : ... .. . ... : ... .. . ...
ROW 92 : ... .. . ... : ... .. . ... : ... .. . ... : ... .. . ... : ... .. . ...
ROW 93 : ... .. . ... : --- .. . ... : ... .. . ... : ... .. . ... : ... .. . ...
ROW 94 : ... .. . ... : ... .. . ... : --- .. . ... : ... .. . ... : ... .. . ...
ROW 95 : ... .. . ... : ... .. . ... : ... .. . ... : ... .. . ... : ... .. . ...
ROW 96 : A-2 07 . ... : F-3 07 . ... : ... .. . ... : ... .. . ... : ... .. . ...
ROW 97 : ... .. . ... : ... .. . ... : ... .. . ... : ... .. . ... : ... .. . ...
ROW 98 : ... .. . ... : ... .. . ... : ... .. . ... : ... .. . ... : ... .. . ...
ROW 99 : A-2 07 . ... : F-3 07 . ... : ... .. . ... : ... .. . ... : ... .. . ...
ROW 9A : ... .. . ... : ... .. . ... : ... .. . ... : ... .. . ... : ... .. . ...
ROW 9B : ... .. . ... : ... .. . ... : ... .. . ... : ... .. . ... : ... .. . ...
ROW 9C : A-2 07 . ... : F-3 07 . ... : F-2 08 . ... : C-# 09 . ... : ... .. . ...
ROW 9D : ... .. . ... : ... .. . ... : ... .. . ... : ... .. . ... : ... .. . ...
ROW 9E : ... .. . ... : ... .. . ... : ... .. . ... : ... .. . ... : ... .. . ...
ROW 9F : ... .. . ... : --- .. . ... : ... .. . ... : ... .. . ... : ... .. . ...
ROW A0 : ... .. . ... : ... .. . ... : --- .. . ... : C-# 09 . ... : ... .. . ...
ROW A1 : ... .. . ... : ... .. . ... : ... .. . ... : ... .. . ... : ... .. . ...
ROW A2 : A-2 07 . ... : F-3 07 . ... : ... .. . ... : ... .. . ... : ... .. . ...
ROW A3 : ... .. . ... : ... .. . ... : ... .. . ... : ... .. . ... : ... .. . ...
ROW A4 : ... .. . ... : ... .. . ... : ... .. . ... : C-# 09 . ... : ... .. . ...
ROW A5 : A-2 07 . ... : F-3 07 . ... : ... .. . ... : ... .. . ... : ... .. . ...
ROW A6 : ... .. . ... : ... .. . ... : ... .. . ... : ... .. . ... : ... .. . ...
ROW A7 : ... .. . ... : ... .. . ... : ... .. . ... : ... .. . ... : ... .. . ...
ROW A8 : A-2 07 . ... : F-3 07 . ... : F-2 08 . ... : C-# 09 . ... : ... .. . ...
ROW A9 : ... .. . ... : ... .. . ... : ... .. . ... : ... .. . ... : ... .. . ...
ROW AA : ... .. . ... : ... .. . ... : ... .. . ... : ... .. . ... : ... .. . ...
ROW AB : ... .. . ... : --- .. . ... : ... .. . ... : ... .. . ... : ... .. . ...
ROW AC : ... .. . ... : ... .. . ... : --- .. . ... : ... .. . ... : ... .. . ...
ROW AD : ... .. . ... : ... .. . ... : ... .. . ... : ... .. . ... : ... .. . ...
ROW AE : A-2 07 . ... : F-3 07 . ... : ... .. . ... : ... .. . ... : ... .. . ...
ROW AF : ... .. . ... : ... .. . ... : ... .. . ... : ... .. . ... : ... .. . ...
ROW B0 : ... .. . ... : ... .. . ... : ... .. . ... : ... .. . ... : ... .. . ...
ROW B1 : A-2 07 . ... : F-3 07 . ... : ... .. . ... : ... .. . ... : ... .. . ...
ROW B2 : ... .. . ... : ... .. . ... : ... .. . ... : ... .. . ... : ... .. . ...
ROW B3 : ... .. . ... : ... .. . ... : ... .. . ... : ... .. . ... : ... .. . ...
ROW B4 : A-2 07 . ... : F-3 07 . ... : G-2 08 . ... : C-# 09 . ... : ... .. . ...
ROW B5 : ... .. . ... : ... .. . ... : ... .. . ... : ... .. . ... : ... .. . ...
ROW B6 : ... .. . ... : ... .. . ... : ... .. . ... : ... .. . ... : ... .. . ...
ROW B7 : ... .. . ... : --- .. . ... : ... .. . ... : ... .. . ... : ... .. . ...
ROW B8 : ... .. . ... : ... .. . ... : --- .. . ... : ... .. . ... : ... .. . ...
ROW B9 : ... .. . ... : ... .. . ... : ... .. . ... : ... .. . ... : ... .. . ...
ROW BA : A-2 07 . ... : F-3 07 . ... : A-2 08 . ... : ... .. . ... : ... .. . ...
ROW BB : ... .. . ... : ... .. . ... : ... .. . ... : ... .. . ... : ... .. . ...
ROW BC : ... .. . ... : ... .. . ... : ... .. . ... : ... .. . ... : ... .. . ...
ROW BD : ... .. . ... : ... .. . ... : ... .. . ... : ... .. . ... : ... .. . ...
ROW BE : ... .. . ... : ... .. . ... : --- .. . ... : ... .. . ... : ... .. . ...
ROW BF : ... .. . ... : ... .. . ... : ... .. . ... : ... .. . ... : ... .. . ...

TRACK   8   2 150 "sfx_coin"
COLUMNS : 1 1 1 1 1

ORDER 00 : 00 00 00 00 00

PATTERN 00
ROW 00 : ... .. . ... : A-4 00 F V02 : ... .. . ... : ... .. . ... : ... .. . ...
ROW 01 : ... .. . ... : ... .. A ... : ... .. . ... : ... .. . ... : ... .. . ...
ROW 02 : ... .. . ... : A-5 00 F ... : ... .. . ... : ... .. . ... : ... .. . ...
ROW 03 : ... .. . ... : ... .. C ... : ... .. . ... : ... .. . ... : ... .. . ...
ROW 04 : ... .. . ... : ... .. A ... : ... .. . ... : ... .. . ... : ... .. . ...
ROW 05 : ... .. . ... : ... .. 8 ... : ... .. . ... : ... .. . ... : ... .. . ...
ROW 06 : ... .. . ... : ... .. 4 ... : ... .. . ... : ... .. . ... : ... .. . ...
ROW 07 : ... .. . ... : C-4 01 . ... : ... .. . ... : ... .. . ... : ... .. . ...

TRACK  10   1 150 "sfx_jump"
COLUMNS : 1 1 1 1 1

ORDER 00 : 00 00 00 00 00

PATTERN 00
ROW 00 : ... .. . ... : C-3 00 F ... : ... .. . ... : ... .. . ... : ... .. . ...
ROW 01 : ... .. . ... : D#3 00 E ... : ... .. . ... : ... .. . ... : ... .. . ...
ROW 02 : ... .. . ... : F-3 00 D ... : ... .. . ... : ... .. . ... : ... .. . ...
ROW 03 : ... .. . ... : A-3 00 C ... : ... .. . ... : ... .. . ... : ... .. . ...
ROW 04 : ... .. . ... : C-4 00 B ... : ... .. . ... : ... .. . ... : ... .. . ...
ROW 05 : ... .. . ... : D#4 00 A ... : ... .. . ... : ... .. . ... : ... .. . ...
ROW 06 : ... .. . ... : G-4 00 9 ... : ... .. . ... : ... .. . ... : ... .. . ...
ROW 07 : ... .. . ... : ... .. 8 ... : ... .. . ... : ... .. . ... : ... .. . ...
ROW 08 : ... .. . ... : C-4 01 . ... : ... .. . ... : ... .. . ... : ... .. . ...
ROW 09 : ... .. . ... : ... .. . ... : ... .. . ... : ... .. . ... : ... .. . ...

TRACK  14   2 150 "sfx_1up"
COLUMNS : 1 1 1 1 1

ORDER 00 : 00 00 00 00 00

PATTERN 00
ROW 00 : ... .. . ... : C-3 00 F ... : ... .. . ... : ... .. . ... : ... .. . ...
ROW 01 : ... .. . ... : F-3 00 F ... : ... .. . ... : ... .. . ... : ... .. . ...
ROW 02 : ... .. . ... : C-4 00 F ... : ... .. . ... : ... .. . ... : ... .. . ...
ROW 03 : ... .. . ... : F-3 00 F ... : ... .. . ... : ... .. . ... : ... .. . ...
ROW 04 : ... .. . ... : C-4 00 F ... : ... .. . ... : ... .. . ... : ... .. . ...
ROW 05 : ... .. . ... : F-4 00 F ... : ... .. . ... : ... .. . ... : ... .. . ...
ROW 06 : ... .. . ... : C-5 00 F ... : ... .. . ... : ... .. . ... : ... .. . ...
ROW 07 : ... .. . ... : F-4 00 F ... : ... .. . ... : ... .. . ... : ... .. . ...
ROW 08 : ... .. . ... : A-4 00 F ... : ... .. . ... : ... .. . ... : ... .. . ...
ROW 09 : ... .. . ... : F-5 00 F ... : ... .. . ... : ... .. . ... : ... .. . ...
ROW 0A : ... .. . ... : ... .. C ... : ... .. . ... : ... .. . ... : ... .. . ...
ROW 0B : ... .. . ... : ... .. 8 ... : ... .. . ... : ... .. . ... : ... .. . ...
ROW 0C : ... .. . ... : ... .. 4 ... : ... .. . ... : ... .. . ... : ... .. . ...
ROW 0D : ... .. . ... : C-4 01 . ... : ... .. . ... : ... .. . ... : ... .. . ...

TRACK  10   1 150 "sfx_shot"
COLUMNS : 1 1 1 1 1

ORDER 00 : 00 00 00 00 00

PATTERN 00
ROW 00 : ... .. . ... : C-2 00 F V01 : ... .. . ... : ... .. . ... : ... .. . ...
ROW 01 : ... .. . ... : G#1 00 2 ... : ... .. . ... : ... .. . ... : ... .. . ...
ROW 02 : ... .. . ... : C-4 00 F ... : ... .. . ... : ... .. . ... : ... .. . ...
ROW 03 : ... .. . ... : F#3 00 C ... : ... .. . ... : ... .. . ... : ... .. . ...
ROW 04 : ... .. . ... : D#3 00 A ... : ... .. . ... : ... .. . ... : ... .. . ...
ROW 05 : ... .. . ... : C-3 00 8 ... : ... .. . ... : ... .. . ... : ... .. . ...
ROW 06 : ... .. . ... : G#2 00 6 ... : ... .. . ... : ... .. . ... : ... .. . ...
ROW 07 : ... .. . ... : D#2 00 4 ... : ... .. . ... : ... .. . ... : ... .. . ...
ROW 08 : ... .. . ... : D-2 00 2 ... : ... .. . ... : ... .. . ... : ... .. . ...
ROW 09 : ... .. . ... : C-4 03 . ... : ... .. . ... : ... .. . ... : ... .. . ...

TRACK  13   3 150 "sfx_boom"
COLUMNS : 1 1 1 1 1

ORDER 00 : 00 00 00 00 00

PATTERN 00
ROW 00 : ... .. . ... : ... .. . ... : ... .. . ... : 0-# 00 F ... : ... .. . ...
ROW 01 : ... .. . ... : ... .. . ... : ... .. . ... : ... .. 2 ... : ... .. . ...
ROW 02 : ... .. . ... : ... .. . ... : ... .. . ... : 1-# 00 F ... : ... .. . ...
ROW 03 : ... .. . ... : ... .. . ... : ... .. . ... : ... .. 2 ... : ... .. . ...
ROW 04 : ... .. . ... : ... .. . ... : ... .. . ... : 3-# 00 F ... : ... .. . ...
ROW 05 : ... .. . ... : ... .. . ... : ... .. . ... : ... .. . ... : ... .. . ...
ROW 06 : ... .. . ... : ... .. . ... : ... .. . ... : 2-# 00 C ... : ... .. . ...
ROW 07 : ... .. . ... : ... .. . ... : ... .. . ... : ... .. . ... : ... .. . ...
ROW 08 : ... .. . ... : ... .. . ... : ... .. . ... : 3-# 00 6 ... : ... .. . ...
ROW 09 : ... .. . ... : ... .. . ... : ... .. . ... : ... .. . ... : ... .. . ...
ROW 0A : ... .. . ... : ... .. . ... : ... .. . ... : ... .. 4 ... : ... .. . ...
ROW 0B : ... .. . ... : ... .. . ... : ... .. . ... : ... .. 2 ... : ... .. . ...
ROW 0C : ... .. . ... : ... .. . ... : ... .. . ... : 0-# 01 . ... : ... .. . ...

TRACK   9   1 150 "sfx_ouch"
COLUMNS : 1 1 1 1 1

ORDER 00 : 00 00 00 00 00

PATTERN 00
ROW 00 : ... .. . ... : G-4 00 F ... : ... .. . ... : ... .. . ... : ... .. . ...
ROW 01 : ... .. . ... : F#4 00 F ... : ... .. . ... : ... .. . ... : ... .. . ...
ROW 02 : ... .. . ... : F-4 00 C ... : ... .. . ... : ... .. . ... : ... .. . ...
ROW 03 : ... .. . ... : E-4 00 C ... : ... .. . ... : ... .. . ... : ... .. . ...
ROW 04 : ... .. . ... : D#4 00 8 ... : ... .. . ... : ... .. . ... : ... .. . ...
ROW 05 : ... .. . ... : D-4 00 8 ... : ... .. . ... : ... .. . ... : ... .. . ...
ROW 06 : ... .. . ... : C#4 00 4 ... : ... .. . ... : ... .. . ... : ... .. . ...
ROW 07 : ... .. . ... : C-4 00 4 ... : ... .. . ... : ... .. . ... : ... .. . ...
ROW 08 : ... .. . ... : C-4 08 . ... : ... .. . ... : ... .. . ... : ... .. . ...

TRACK   5   2 150 "sfx_thud"
COLUMNS : 1 1 1 1 1

ORDER 00 : 00 00 00 00 00

PATTERN 00
ROW 00 : ... .. . ... : C-2 00 F 210 : ... .. . ... : ... .. . ... : ... .. . ...
ROW 01 : ... .. . ... : G-1 00 E 210 : ... .. . ... : ... .. . ... : ... .. . ...
ROW 02 : ... .. . ... : E-1 00 D 210 : ... .. . ... : ... .. . ... : ... .. . ...
ROW 03 : ... .. . ... : C-1 00 C 210 : ... .. . ... : ... .. . ... : ... .. . ...
ROW 04 : ... .. . ... : C-4 08 . ... : ... .. . ... : ... .. . ... : ... .. . ...

TRACK  14   2 150 "sfx_watr"
COLUMNS : 1 1 1 1 1

ORDER 00 : 00 00 00 00 00

PATTERN 00
ROW 00 : ... .. . ... : ... .. . ... : ... .. . ... : 0-# 00 F ... : ... .. . ...
ROW 01 : ... .. . ... : ... .. . ... : ... .. . ... : ... .. 2 ... : ... .. . ...
ROW 02 : ... .. . ... : ... .. . ... : ... .. . ... : 9-# 01 F ... : ... .. . ...
ROW 03 : ... .. . ... : ... .. . ... : ... .. . ... : B-# 01 C ... : ... .. . ...
ROW 04 : ... .. . ... : ... .. . ... : ... .. . ... : A-# 01 A ... : ... .. . ...
ROW 05 : ... .. . ... : ... .. . ... : ... .. . ... : 9-# 01 8 ... : ... .. . ...
ROW 06 : ... .. . ... : ... .. . ... : ... .. . ... : 8-# 01 7 ... : ... .. . ...
ROW 07 : ... .. . ... : ... .. . ... : ... .. . ... : A-# 01 6 ... : ... .. . ...
ROW 08 : ... .. . ... : ... .. . ... : ... .. . ... : B-# 01 5 ... : ... .. . ...
ROW 09 : ... .. . ... : ... .. . ... : ... .. . ... : ... .. 4 ... : ... .. . ...
ROW 0A : ... .. . ... : ... .. . ... : ... .. . ... : ... .. 3 ... : ... .. . ...
ROW 0B : ... .. . ... : ... .. . ... : ... .. . ... : ... .. 2 ... : ... .. . ...
ROW 0C : ... .. . ... : ... .. . ... : ... .. . ... : ... .. 1 ... : ... .. . ...
ROW 0D : ... .. . ... : ... .. . ... : ... .. . ... : 0-# 08 . ... : ... .. . ...

TRACK  14   2 150 "sfx_zap"
COLUMNS : 1 1 1 1 1

ORDER 00 : 00 00 00 00 00

PATTERN 00
ROW 00 : ... .. . ... : ... .. . ... : ... .. . ... : 5-# 02 F ... : ... .. . ...
ROW 01 : ... .. . ... : ... .. . ... : ... .. . ... : 7-# 02 F ... : ... .. . ...
ROW 02 : ... .. . ... : ... .. . ... : ... .. . ... : 9-# 02 F ... : ... .. . ...
ROW 03 : ... .. . ... : ... .. . ... : ... .. . ... : B-# 02 F ... : ... .. . ...
ROW 04 : ... .. . ... : ... .. . ... : ... .. . ... : 5-# 02 C ... : ... .. . ...
ROW 05 : ... .. . ... : ... .. . ... : ... .. . ... : 7-# 02 C ... : ... .. . ...
ROW 06 : ... .. . ... : ... .. . ... : ... .. . ... : 9-# 02 C ... : ... .. . ...
ROW 07 : ... .. . ... : ... .. . ... : ... .. . ... : B-# 02 C ... : ... .. . ...
ROW 08 : ... .. . ... : ... .. . ... : ... .. . ... : 5-# 02 8 ... : ... .. . ...
ROW 09 : ... .. . ... : ... .. . ... : ... .. . ... : 7-# 02 8 ... : ... .. . ...
ROW 0A : ... .. . ... : ... .. . ... : ... .. . ... : 9-# 02 8 ... : ... .. . ...
ROW 0B : ... .. . ... : ... .. . ... : ... .. . ... : B-# 02 8 ... : ... .. . ...
ROW 0C : ... .. . ... : ... .. . ... : ... .. . ... : 0-# 08 . ... : ... .. . ...
ROW 0D : ... .. . ... : ... .. . ... : ... .. . ... : ... .. . ... : ... .. . ...

TRACK   6   2 150 "sfx_cncl"
COLUMNS : 1 1 1 1 1

ORDER 00 : 00 00 00 00 00

PATTERN 00
ROW 00 : ... .. . ... : E-4 02 F ... : ... .. . ... : ... .. . ... : ... .. . ...
ROW 01 : ... .. . ... : ... .. 8 ... : ... .. . ... : ... .. . ... : ... .. . ...
ROW 02 : ... .. . ... : C-4 02 F ... : ... .. . ... : ... .. . ... : ... .. . ...
ROW 03 : ... .. . ... : ... .. 8 ... : ... .. . ... : ... .. . ... : ... .. . ...
ROW 04 : ... .. . ... : C-4 08 . ... : ... .. . ... : ... .. . ... : ... .. . ...
ROW 05 : ... .. . ... : ... .. . ... : ... .. . ... : ... .. . ... : ... .. . ...

TRACK   6   2 150 "sfx_ok"
COLUMNS : 1 1 1 1 1

ORDER 00 : 00 00 00 00 00

PATTERN 00
ROW 00 : ... .. . ... : D-4 02 F ... : ... .. . ... : ... .. . ... : ... .. . ...
ROW 01 : ... .. . ... : ... .. 8 ... : ... .. . ... : ... .. . ... : ... .. . ...
ROW 02 : ... .. . ... : G-4 02 F ... : ... .. . ... : ... .. . ... : ... .. . ...
ROW 03 : ... .. . ... : ... .. 8 ... : ... .. . ... : ... .. . ... : ... .. . ...
ROW 04 : ... .. . ... : C-4 08 . ... : ... .. . ... : ... .. . ... : ... .. . ...
ROW 05 : ... .. . ... : ... .. . ... : ... .. . ... : ... .. . ... : ... .. . ...

TRACK  11   3 150 "sfx_pick"
COLUMNS : 1 1 1 1 1

ORDER 00 : 00 00 00 00 00

PATTERN 00
ROW 00 : ... .. . ... : C#4 02 F ... : ... .. . ... : ... .. . ... : ... .. . ...
ROW 01 : ... .. . ... : F-4 02 F ... : ... .. . ... : ... .. . ... : ... .. . ...
ROW 02 : ... .. . ... : G#4 02 F ... : ... .. . ... : ... .. . ... : ... .. . ...
ROW 03 : ... .. . ... : C#4 02 C ... : ... .. . ... : ... .. . ... : ... .. . ...
ROW 04 : ... .. . ... : F-4 02 C ... : ... .. . ... : ... .. . ... : ... .. . ...
ROW 05 : ... .. . ... : G#4 02 C ... : ... .. . ... : ... .. . ... : ... .. . ...
ROW 06 : ... .. . ... : C#4 02 8 ... : ... .. . ... : ... .. . ... : ... .. . ...
ROW 07 : ... .. . ... : F-4 02 8 ... : ... .. . ... : ... .. . ... : ... .. . ...
ROW 08 : ... .. . ... : G#4 02 8 ... : ... .. . ... : ... .. . ... : ... .. . ...
ROW 09 : ... .. . ... : C-4 08 . ... : ... .. . ... : ... .. . ... : ... .. . ...
ROW 0A : ... .. . ... : ... .. . ... : ... .. . ... : ... .. . ... : ... .. . ...

TRACK   9   2 150 "sfx_time"
COLUMNS : 1 1 1 1 1

ORDER 00 : 00 00 00 00 00

PATTERN 00
ROW 00 : F-5 00 F ... : C-5 00 F ... : ... .. . ... : ... .. . ... : ... .. . ...
ROW 01 : G#5 00 . ... : C#5 00 . ... : ... .. . ... : ... .. . ... : ... .. . ...
ROW 02 : F-5 00 . ... : C-5 00 . ... : ... .. . ... : ... .. . ... : ... .. . ...
ROW 03 : G#5 00 . ... : C#5 00 . ... : ... .. . ... : ... .. . ... : ... .. . ...
ROW 04 : F-5 00 . ... : C-5 00 . ... : ... .. . ... : ... .. . ... : ... .. . ...
ROW 05 : G#5 00 . ... : C#5 00 . ... : ... .. . ... : ... .. . ... : ... .. . ...
ROW 06 : F-5 00 . ... : C-5 00 . ... : ... .. . ... : ... .. . ... : ... .. . ...
ROW 07 : C-4 08 . ... : C-4 08 . ... : ... .. . ... : ... .. . ... : ... .. . ...
ROW 08 : ... .. . ... : ... .. . ... : ... .. . ... : ... .. . ... : ... .. . ...

TRACK  20   4 150 "sfx_mech"
COLUMNS : 1 1 1 1 1

ORDER 00 : 00 00 00 00 00

PATTERN 00
ROW 00 : ... .. . ... : C-1 00 8 ... : ... .. . ... : 4-# 02 F ... : ... .. . ...
ROW 01 : ... .. . ... : ... .. C ... : ... .. . ... : ... .. C ... : ... .. . ...
ROW 02 : ... .. . ... : ... .. F ... : ... .. . ... : ... .. 8 ... : ... .. . ...
ROW 03 : ... .. . ... : ... .. 8 ... : ... .. . ... : ... .. F ... : ... .. . ...
ROW 04 : ... .. . ... : ... .. C ... : ... .. . ... : ... .. C ... : ... .. . ...
ROW 05 : ... .. . ... : ... .. F ... : ... .. . ... : ... .. 8 ... : ... .. . ...
ROW 06 : ... .. . ... : ... .. 8 ... : ... .. . ... : ... .. F ... : ... .. . ...
ROW 07 : ... .. . ... : ... .. C ... : ... .. . ... : ... .. C ... : ... .. . ...
ROW 08 : ... .. . ... : ... .. F ... : ... .. . ... : ... .. 8 ... : ... .. . ...
ROW 09 : ... .. . ... : ... .. 8 ... : ... .. . ... : ... .. F ... : ... .. . ...
ROW 0A : ... .. . ... : ... .. C ... : ... .. . ... : ... .. C ... : ... .. . ...
ROW 0B : ... .. . ... : ... .. F ... : ... .. . ... : ... .. 8 ... : ... .. . ...
ROW 0C : ... .. . ... : ... .. 8 ... : ... .. . ... : ... .. F ... : ... .. . ...
ROW 0D : ... .. . ... : ... .. C ... : ... .. . ... : ... .. C ... : ... .. . ...
ROW 0E : ... .. . ... : ... .. F ... : ... .. . ... : ... .. 8 ... : ... .. . ...
ROW 0F : ... .. . ... : ... .. 8 ... : ... .. . ... : ... .. F ... : ... .. . ...
ROW 10 : ... .. . ... : ... .. C ... : ... .. . ... : ... .. C ... : ... .. . ...
ROW 11 : ... .. . ... : ... .. F ... : ... .. . ... : ... .. 8 ... : ... .. . ...
ROW 12 : ... .. . ... : C-4 08 . ... : ... .. . ... : 0-# 08 . ... : ... .. . ...
ROW 13 : ... .. . ... : ... .. . ... : ... .. . ... : ... .. . ... : ... .. . ...

TRACK   6   6 150 "sfx_buzz"
COLUMNS : 1 1 1 1 1

ORDER 00 : 00 00 00 00 00

PATTERN 00
ROW 00 : ... .. . ... : E-1 02 F ... : ... .. . ... : 7-# 02 F ... : ... .. . ...
ROW 01 : ... .. . ... : ... .. . ... : ... .. . ... : ... .. . ... : ... .. . ...
ROW 02 : ... .. . ... : ... .. . ... : ... .. . ... : ... .. . ... : ... .. . ...
ROW 03 : ... .. . ... : ... .. . ... : ... .. . ... : ... .. . ... : ... .. . ...
ROW 04 : ... .. . ... : C-4 08 . ... : ... .. . ... : 0-# 08 . ... : ... .. . ...
ROW 05 : ... .. . ... : ... .. . ... : ... .. . ... : ... .. . ... : ... .. . ...

TRACK  20   2 150 "sfx_myst"
COLUMNS : 1 1 1 1 1

ORDER 00 : 00 00 00 00 00

PATTERN 00
ROW 00 : ... .. . ... : D-2 00 F F02 : ... .. . ... : ... .. . ... : ... .. . ...
ROW 01 : ... .. . ... : A-1 00 8 F01 : ... .. . ... : ... .. . ... : ... .. . ...
ROW 02 : ... .. . ... : G#2 00 F F02 : ... .. . ... : ... .. . ... : ... .. . ...
ROW 03 : ... .. . ... : D-2 00 8 F01 : ... .. . ... : ... .. . ... : ... .. . ...
ROW 04 : ... .. . ... : D-3 00 F F02 : ... .. . ... : ... .. . ... : ... .. . ...
ROW 05 : ... .. . ... : G#2 00 8 F01 : ... .. . ... : ... .. . ... : ... .. . ...
ROW 06 : ... .. . ... : F-2 00 F F02 : ... .. . ... : ... .. . ... : ... .. . ...
ROW 07 : ... .. . ... : D-3 00 8 F01 : ... .. . ... : ... .. . ... : ... .. . ...
ROW 08 : ... .. . ... : B-2 00 F F02 : ... .. . ... : ... .. . ... : ... .. . ...
ROW 09 : ... .. . ... : F-2 00 8 F01 : ... .. . ... : ... .. . ... : ... .. . ...
ROW 0A : ... .. . ... : G-3 00 F F02 : ... .. . ... : ... .. . ... : ... .. . ...
ROW 0B : ... .. . ... : B-2 00 8 F01 : ... .. . ... : ... .. . ... : ... .. . ...
ROW 0C : ... .. . ... : D-3 00 F F02 : ... .. . ... : ... .. . ... : ... .. . ...
ROW 0D : ... .. . ... : G-3 00 8 F01 : ... .. . ... : ... .. . ... : ... .. . ...
ROW 0E : ... .. . ... : F#3 00 F F02 : ... .. . ... : ... .. . ... : ... .. . ...
ROW 0F : ... .. . ... : D-3 00 8 F01 : ... .. . ... : ... .. . ... : ... .. . ...
ROW 10 : ... .. . ... : C-4 00 F F02 : ... .. . ... : ... .. . ... : ... .. . ...
ROW 11 : ... .. . ... : G#4 00 8 F01 : ... .. . ... : ... .. . ... : ... .. . ...
ROW 12 : ... .. . ... : C-4 08 . ... : ... .. . ... : ... .. . ... : ... .. . ...
ROW 13 : ... .. . ... : ... .. . ... : ... .. . ... : ... .. . ... : ... .. . ...

TRACK  18   1 150 "sfx_powr"
COLUMNS : 1 1 1 1 1

ORDER 00 : 00 00 00 00 00

PATTERN 00
ROW 00 : ... .. . ... : G-3 00 F ... : ... .. . ... : ... .. . ... : ... .. . ...
ROW 01 : ... .. . ... : C-2 00 F ... : ... .. . ... : ... .. . ... : ... .. . ...
ROW 02 : ... .. . ... : A#3 00 F ... : ... .. . ... : ... .. . ... : ... .. . ...
ROW 03 : ... .. . ... : D-2 00 F ... : ... .. . ... : ... .. . ... : ... .. . ...
ROW 04 : ... .. . ... : C-4 00 F ... : ... .. . ... : ... .. . ... : ... .. . ...
ROW 05 : ... .. . ... : E-2 00 F ... : ... .. . ... : ... .. . ... : ... .. . ...
ROW 06 : ... .. . ... : D#4 00 F ... : ... .. . ... : ... .. . ... : ... .. . ...
ROW 07 : ... .. . ... : F-2 00 F ... : ... .. . ... : ... .. . ... : ... .. . ...
ROW 08 : ... .. . ... : F-4 00 F ... : ... .. . ... : ... .. . ... : ... .. . ...
ROW 09 : ... .. . ... : G-2 00 F ... : ... .. . ... : ... .. . ... : ... .. . ...
ROW 0A : ... .. . ... : G#4 00 F ... : ... .. . ... : ... .. . ... : ... .. . ...
ROW 0B : ... .. . ... : A-2 00 F ... : ... .. . ... : ... .. . ... : ... .. . ...
ROW 0C : ... .. . ... : B-4 00 F ... : ... .. . ... : ... .. . ... : ... .. . ...
ROW 0D : ... .. . ... : B-2 00 F ... : ... .. . ... : ... .. . ... : ... .. . ...
ROW 0E : ... .. . ... : C#5 00 F ... : ... .. . ... : ... .. . ... : ... .. . ...
ROW 0F : ... .. . ... : C-3 00 F ... : ... .. . ... : ... .. . ... : ... .. . ...
ROW 10 : ... .. . ... : E-5 00 F ... : ... .. . ... : ... .. . ... : ... .. . ...
ROW 11 : ... .. . ... : C-4 08 . ... : ... .. . ... : ... .. . ... : ... .. . ...

TRACK   2   6 150 "sfx_shoot"
COLUMNS : 1 1 1 1 1

ORDER 00 : 00 00 00 00 00

PATTERN 00
ROW 00 : E-4 06 . ... : ... .. . ... : ... .. . ... : ... .. . ... : ... .. . ...
ROW 01 : --- 23 . ... : ... .. . ... : ... .. . ... : ... .. . ... : ... .. . ...

TRACK   2   6 150 "sfx_slash"
COLUMNS : 1 1 1 1 1

ORDER 00 : 00 00 00 00 00

PATTERN 00
ROW 00 : ... .. . ... : ... .. . ... : ... .. . ... : 9-# 00 F ... : ... .. . ...
ROW 01 : ... .. . ... : ... .. . ... : ... .. . ... : --- 23 . ... : ... .. . ...

TRACK   4   6 150 "sfx_miss"
COLUMNS : 1 1 1 1 1

ORDER 00 : 00 00 00 00 00

PATTERN 00
ROW 00 : F#6 0A . ... : F-6 0A . ... : ... .. . ... : ... .. . ... : ... .. . ...
ROW 01 : C#5 0A . ... : C-5 0A . ... : ... .. . ... : ... .. . ... : ... .. . ...
ROW 02 : ... .. . ... : ... .. . ... : ... .. . ... : ... .. . ... : ... .. . ...
ROW 03 : C-4 08 . ... : C-4 08 . ... : ... .. . ... : ... .. . ... : ... .. . ...

TRACK   9   6 150 "sfx_secret"
COLUMNS : 1 1 1 1 1

ORDER 00 : 00 00 00 00 00

PATTERN 00
ROW 00 : D#5 0B . ... : ... .. . ... : ... .. . ... : ... .. . ... : ... .. . ...
ROW 01 : C#5 0B . ... : ... .. . ... : ... .. . ... : ... .. . ... : ... .. . ...
ROW 02 : C-5 0B . ... : ... .. . ... : ... .. . ... : ... .. . ... : ... .. . ...
ROW 03 : A-4 0B . ... : ... .. . ... : ... .. . ... : ... .. . ... : ... .. . ...
ROW 04 : ... .. . ... : ... .. . ... : ... .. . ... : ... .. . ... : ... .. . ...
ROW 05 : ... .. . ... : ... .. . ... : ... .. . ... : ... .. . ... : ... .. . ...
ROW 06 : ... .. . ... : ... .. . ... : ... .. . ... : ... .. . ... : ... .. . ...
ROW 07 : ... .. . ... : ... .. . ... : ... .. . ... : ... .. . ... : ... .. . ...
ROW 08 : --- 23 . ... : ... .. . ... : ... .. . ... : ... .. . ... : ... .. . ...

TRACK  18   5  80 "sfx_death"
COLUMNS : 1 1 1 1 1

ORDER 00 : 00 00 00 00 00

PATTERN 00
ROW 00 : G#3 03 . ... : C-3 04 . ... : F-3 02 . ... : ... .. . ... : ... .. . ...
ROW 01 : ... .. . ... : ... .. . ... : ... .. . ... : ... .. . ... : ... .. . ...
ROW 02 : C-3 03 . ... : G#2 04 . ... : ... .. . ... : ... .. . ... : ... .. . ...
ROW 03 : ... .. . ... : ... .. . ... : ... .. . ... : ... .. . ... : ... .. . ...
ROW 04 : G#3 03 . ... : C-3 04 . ... : ... .. . ... : ... .. . ... : ... .. . ...
ROW 05 : ... .. . ... : ... .. . ... : ... .. . ... : ... .. . ... : ... .. . ...
ROW 06 : G-3 03 . ... : A#2 04 . ... : C-3 02 . ... : ... .. . ... : ... .. . ...
ROW 07 : ... .. . ... : ... .. . ... : ... .. . ... : ... .. . ... : ... .. . ...
ROW 08 : ... .. . ... : ... .. . ... : ... .. . ... : ... .. . ... : ... .. . ...
ROW 09 : ... .. . ... : ... .. . ... : ... .. . ... : ... .. . ... : ... .. . ...
ROW 0A : ... .. . ... : ... .. . ... : ... .. . ... : ... .. . ... : ... .. . ...
ROW 0B : ... .. . ... : ... .. . ... : ... .. . ... : ... .. . ... : ... .. . ...
ROW 0C : ... .. . ... : ... .. . ... : ... .. . ... : ... .. . ... : ... .. . ...
ROW 0D : ... .. . ... : ... .. . ... : ... .. . ... : ... .. . ... : ... .. . ...
ROW 0E : F-3 03 . ... : C-3 04 . ... : F-2 02 . ... : ... .. . ... : ... .. . ...
ROW 0F : ... .. . ... : ... .. . ... : ... .. . ... : ... .. . ... : ... .. . ...
ROW 10 : ... .. . ... : ... .. . ... : ... .. . ... : ... .. . ... : ... .. . ...
ROW 11 : ... .. . ... : ... .. . ... : ... .. . ... : ... .. . ... : ... .. . ...

TRACK 128   4 160 "GetLucky_NR"
COLUMNS : 1 1 1 1 1

ORDER 00 : 00 00 00 00 00
ORDER 01 : 01 01 01 01 01
ORDER 02 : 02 02 02 02 02
ORDER 03 : 03 03 03 03 03
ORDER 04 : 04 04 04 04 04

PATTERN 00
ROW 00 : --- .. . V05 : D-3 10 A V01 : B-4 08 . 250 : C-# 0C F ... : ... .. . ...
ROW 01 : ... .. . ... : ... .. 9 ... : ... .. . ... : ... .. . ... : ... .. . ...
ROW 02 : ... .. . ... : ... .. . ... : --- .. . ... : ... .. . ... : ... .. . ...
ROW 03 : ... .. . ... : ... .. 8 ... : ... .. . ... : ... .. . ... : ... .. . ...
ROW 04 : F#4 0E 7 ... : ... .. 7 ... : ... .. . ... : C-# 0C . ... : ... .. . ...
ROW 05 : ... .. . ... : ... .. . ... : ... .. . ... : ... .. . ... : ... .. . ...
ROW 06 : A-4 0E 1 ... : ... .. 6 ... : ... .. . ... : ... .. . ... : ... .. . ...
ROW 07 : ... .. . ... : ... .. . ... : ... .. . ... : ... .. . ... : ... .. . ...
ROW 08 : F#4 0E 7 ... : ... .. 5 ... : B-4 08 . 250 : 6-# 0D 9 ... : ... .. . ...
ROW 09 : ... .. . ... : ... .. . ... : ... .. . ... : ... .. . ... : ... .. . ...
ROW 0A : --- .. . ... : ... .. 4 ... : --- .. . ... : ... .. . ... : ... .. . ...
ROW 0B : ... .. . ... : ... .. . ... : ... .. . ... : ... .. . ... : ... .. . ...
ROW 0C : B-3 0E 1 ... : ... .. 3 ... : ... .. . ... : C-# 0C F ... : ... .. . ...
ROW 0D : --- .. . ... : ... .. . ... : ... .. . ... : ... .. . ... : ... .. . ...
ROW 0E : F#4 0E 3 ... : F#3 0E 5 ... : ... .. . ... : ... .. . ... : ... .. . ...
ROW 0F : --- .. . ... : --- .. . ... : ... .. . ... : ... .. . ... : ... .. . ...
ROW 10 : E-4 0E 7 ... : ... .. . ... : B-4 08 . 250 : C-# 0C . ... : ... .. . ...
ROW 11 : ... .. . ... : ... .. . ... : ... .. . ... : ... .. . ... : ... .. . ...
ROW 12 : D-4 0E 6 ... : ... .. . ... : --- .. . ... : ... .. . ... : ... .. . ...
ROW 13 : ... .. . ... : ... .. . ... : ... .. . ... : ... .. . ... : ... .. . ...
ROW 14 : B-3 0E 5 ... : B-2 0E . ... : ... .. . ... : C-# 0C . ... : ... .. . ...
ROW 15 : ... .. . ... : ... .. . ... : ... .. . ... : ... .. . ... : ... .. . ...
ROW 16 : --- .. . ... : --- .. . ... : ... .. . ... : ... .. . ... : ... .. . ...
ROW 17 : ... .. . ... : ... .. . ... : ... .. . ... : ... .. . ... : ... .. . ...
ROW 18 : A-2 0E . ... : ... .. . ... : B-4 08 . 250 : 6-# 0D 9 ... : ... .. . ...
ROW 19 : ... .. . ... : ... .. . ... : ... .. . ... : ... .. . ... : ... .. . ...
ROW 1A : ... .. . ... : ... .. . ... : --- .. . ... : ... .. . ... : ... .. . ...
ROW 1B : ... .. . ... : ... .. . ... : ... .. . ... : ... .. . ... : ... .. . ...
ROW 1C : F#2 0E . ... : ... .. . ... : ... .. . ... : C-# 0C F ... : ... .. . ...
ROW 1D : ... .. . ... : ... .. . ... : ... .. . ... : ... .. . ... : ... .. . ...
ROW 1E : --- .. . ... : ... .. . ... : ... .. . ... : C-# 0C F ... : ... .. . ...
ROW 1F : ... .. . ... : ... .. . ... : ... .. . ... : ... .. . ... : ... .. . ...
ROW 20 : A-2 0E 4 ... : D-3 10 A V01 : B-4 08 . 250 : C-# 0C . ... : ... .. . ...
ROW 21 : ... .. . ... : ... .. 9 ... : ... .. . ... : ... .. . ... : ... .. . ...
ROW 22 : ... .. . ... : ... .. . ... : --- .. . ... : ... .. . ... : ... .. . ...
ROW 23 : ... .. . ... : ... .. 8 ... : ... .. . ... : ... .. . ... : ... .. . ...
ROW 24 : --- .. . ... : ... .. 7 ... : ... .. . ... : C-# 0C . ... : ... .. . ...
ROW 25 : ... .. . ... : ... .. . ... : ... .. . ... : ... .. . ... : ... .. . ...
ROW 26 : ... .. . ... : ... .. 6 ... : ... .. . ... : ... .. . ... : ... .. . ...
ROW 27 : ... .. . ... : ... .. . ... : ... .. . ... : ... .. . ... : ... .. . ...
ROW 28 : A-2 0E . ... : ... .. 5 ... : B-4 08 . 250 : 6-# 0D 9 ... : ... .. . ...
ROW 29 : ... .. . ... : ... .. . ... : ... .. . ... : ... .. . ... : ... .. . ...
ROW 2A : ... .. . ... : ... .. 4 ... : --- .. . ... : ... .. . ... : ... .. . ...
ROW 2B : ... .. . ... : ... .. . ... : ... .. . ... : ... .. . ... : ... .. . ...
ROW 2C : --- .. . ... : ... .. 3 ... : ... .. . ... : C-# 0C F ... : ... .. . ...
ROW 2D : ... .. . ... : ... .. . ... : ... .. . ... : ... .. . ... : ... .. . ...
ROW 2E : D-3 0E 7 ... : ... .. 2 ... : ... .. . ... : ... .. . ... : ... .. . ...
ROW 2F : ... .. . ... : ... .. . ... : ... .. . ... : ... .. . ... : ... .. . ...
ROW 30 : --- .. . ... : ... .. 1 ... : B-4 08 . 250 : C-# 0C . ... : ... .. . ...
ROW 31 : ... .. . ... : ... .. . ... : ... .. . ... : ... .. . ... : ... .. . ...
ROW 32 : ... .. . ... : ... .. . V05 : --- .. . ... : ... .. . ... : ... .. . ...
ROW 33 : ... .. . ... : ... .. . ... : ... .. . ... : ... .. . ... : ... .. . ...
ROW 34 : D-3 0E . ... : ... .. . ... : ... .. . ... : C-# 0C . ... : ... .. . ...
ROW 35 : ... .. . ... : ... .. . ... : ... .. . ... : ... .. . ... : ... .. . ...
ROW 36 : --- .. . ... : ... .. . ... : ... .. . ... : ... .. . ... : ... .. . ...
ROW 37 : ... .. . ... : ... .. . ... : ... .. . ... : ... .. . ... : ... .. . ...
ROW 38 : C#3 0E . ... : ... .. . ... : B-4 08 . 250 : 6-# 0D 9 ... : ... .. . ...
ROW 39 : ... .. . ... : ... .. . ... : ... .. . ... : ... .. . ... : ... .. . ...
ROW 3A : ... .. . ... : ... .. . ... : --- .. . ... : ... .. . ... : ... .. . ...
ROW 3B : ... .. . ... : ... .. . ... : ... .. . ... : ... .. . ... : ... .. . ...
ROW 3C : A-2 0E . ... : ... .. . ... : ... .. . ... : C-# 0C F ... : ... .. . ...
ROW 3D : ... .. . ... : ... .. . ... : ... .. . ... : ... .. . ... : ... .. . ...
ROW 3E : --- .. . ... : ... .. . ... : ... .. . ... : C-# 0C F ... : ... .. . ...
ROW 3F : ... .. . ... : ... .. . ... : ... .. . ... : ... .. . ... : ... .. . ...
ROW 40 : ... .. . ... : C#3 10 A V01 : B-4 08 . 250 : C-# 0C . ... : ... .. . ...
ROW 41 : ... .. . ... : ... .. 9 ... : ... .. . ... : ... .. . ... : ... .. . ...
ROW 42 : ... .. . ... : ... .. . ... : --- .. . ... : ... .. . ... : ... .. . ...
ROW 43 : ... .. . ... : ... .. 8 ... : ... .. . ... : ... .. . ... : ... .. . ...
ROW 44 : ... .. . ... : ... .. 7 ... : ... .. . ... : C-# 0C . ... : ... .. . ...
ROW 45 : ... .. . ... : ... .. . ... : ... .. . ... : ... .. . ... : ... .. . ...
ROW 46 : ... .. . ... : ... .. 6 ... : ... .. . ... : ... .. . ... : ... .. . ...
ROW 47 : ... .. . ... : ... .. . ... : ... .. . ... : ... .. . ... : ... .. . ...
ROW 48 : C#3 0E . ... : ... .. 5 ... : B-4 08 . 250 : 6-# 0D 9 ... : ... .. . ...
ROW 49 : ... .. . ... : ... .. . ... : ... .. . ... : ... .. . ... : ... .. . ...
ROW 4A : --- .. . ... : ... .. 4 ... : --- .. . ... : ... .. . ... : ... .. . ...
ROW 4B : ... .. . ... : ... .. . ... : ... .. . ... : ... .. . ... : ... .. . ...
ROW 4C : ... .. . ... : ... .. 3 ... : ... .. . ... : C-# 0C F ... : ... .. . ...
ROW 4D : ... .. . ... : ... .. . ... : ... .. . ... : ... .. . ... : ... .. . ...
ROW 4E : F#3 0E . ... : ... .. 2 ... : ... .. . ... : ... .. . ... : ... .. . ...
ROW 4F : ... .. . ... : ... .. . ... : ... .. . ... : ... .. . ... : ... .. . ...
ROW 50 : --- .. . ... : ... .. 1 ... : B-4 08 . 250 : C-# 0C . ... : ... .. . ...
ROW 51 : ... .. . ... : ... .. . ... : ... .. . ... : ... .. . ... : ... .. . ...
ROW 52 : ... .. . ... : ... .. . ... : --- .. . ... : ... .. . ... : ... .. . ...
ROW 53 : ... .. . ... : ... .. . ... : ... .. . ... : ... .. . ... : ... .. . ...
ROW 54 : F#3 0E . ... : ... .. . ... : ... .. . ... : C-# 0C . ... : ... .. . ...
ROW 55 : ... .. . ... : ... .. . ... : ... .. . ... : ... .. . ... : ... .. . ...
ROW 56 : ... .. . ... : ... .. . ... : ... .. . ... : ... .. . ... : ... .. . ...
ROW 57 : ... .. . ... : ... .. . ... : ... .. . ... : ... .. . ... : ... .. . ...
ROW 58 : E-3 0E . ... : ... .. . ... : B-4 08 . 250 : 6-# 0D 9 ... : ... .. . ...
ROW 59 : ... .. . ... : ... .. . ... : ... .. . ... : ... .. . ... : ... .. . ...
ROW 5A : ... .. . ... : ... .. . ... : --- .. . ... : ... .. . ... : ... .. . ...
ROW 5B : ... .. . ... : ... .. . ... : ... .. . ... : ... .. . ... : ... .. . ...
ROW 5C : C#3 0E . ... : ... .. . ... : ... .. . ... : C-# 0C F ... : ... .. . ...
ROW 5D : ... .. . ... : ... .. . ... : ... .. . ... : ... .. . ... : ... .. . ...
ROW 5E : ... .. . ... : ... .. . ... : ... .. . ... : C-# 0C F ... : ... .. . ...
ROW 5F : --- .. . ... : ... .. . ... : ... .. . ... : ... .. . ... : ... .. . ...
ROW 60 : ... .. . ... : B-2 10 A V01 : B-4 08 . 250 : C-# 0C . ... : ... .. . ...
ROW 61 : ... .. . ... : ... .. 9 ... : ... .. . ... : ... .. . ... : ... .. . ...
ROW 62 : ... .. . ... : ... .. . ... : --- .. . ... : ... .. . ... : ... .. . ...
ROW 63 : ... .. . ... : ... .. 8 ... : ... .. . ... : ... .. . ... : ... .. . ...
ROW 64 : ... .. . ... : ... .. 7 ... : ... .. . ... : C-# 0C . ... : ... .. . ...
ROW 65 : ... .. . ... : ... .. . ... : ... .. . ... : ... .. . ... : ... .. . ...
ROW 66 : ... .. . ... : ... .. 6 ... : ... .. . ... : ... .. . ... : ... .. . ...
ROW 67 : ... .. . ... : ... .. . ... : ... .. . ... : ... .. . ... : ... .. . ...
ROW 68 : B-2 0E . ... : ... .. 5 ... : B-4 08 . 250 : 6-# 0D 9 ... : ... .. . ...
ROW 69 : ... .. . ... : ... .. . ... : ... .. . ... : ... .. . ... : ... .. . ...
ROW 6A : --- .. . ... : ... .. 4 ... : --- .. . ... : ... .. . ... : ... .. . ...
ROW 6B : ... .. . ... : ... .. . ... : ... .. . ... : ... .. . ... : ... .. . ...
ROW 6C : ... .. . ... : ... .. 3 ... : ... .. . ... : C-# 0C F ... : ... .. . ...
ROW 6D : ... .. . ... : ... .. . ... : ... .. . ... : ... .. . ... : ... .. . ...
ROW 6E : E-3 0E . ... : ... .. 2 ... : ... .. . ... : ... .. . ... : ... .. . ...
ROW 6F : ... .. . ... : ... .. . ... : ... .. . ... : ... .. . ... : ... .. . ...
ROW 70 : --- .. . ... : ... .. 1 ... : B-4 08 . 250 : C-# 0C . ... : ... .. . ...
ROW 71 : ... .. . ... : ... .. . ... : ... .. . ... : ... .. . ... : ... .. . ...
ROW 72 : ... .. . ... : ... .. . ... : --- .. . ... : ... .. . ... : ... .. . ...
ROW 73 : ... .. . ... : ... .. . ... : ... .. . ... : ... .. . ... : ... .. . ...
ROW 74 : E-3 0E . ... : ... .. . ... : ... .. . ... : D-# 08 F ... : ... .. . ...
ROW 75 : ... .. . ... : ... .. . ... : ... .. . ... : ... .. 9 ... : ... .. . ...
ROW 76 : --- .. . ... : ... .. . ... : ... .. . ... : ... .. 8 ... : ... .. . ...
ROW 77 : ... .. . ... : ... .. . ... : ... .. . ... : ... .. 7 ... : ... .. . ...
ROW 78 : D-3 0E . ... : E-3 0E 6 ... : B-4 08 . 250 : C-# 0C 9 ... : ... .. . ...
ROW 79 : ... .. . ... : ... .. 5 ... : ... .. . ... : ... .. . ... : ... .. . ...
ROW 7A : ... .. . ... : ... .. . ... : --- .. . ... : ... .. . ... : ... .. . ...
ROW 7B : ... .. . ... : ... .. . ... : ... .. . ... : ... .. . ... : ... .. . ...
ROW 7C : B-2 0E . ... : ... .. 4 ... : ... .. . ... : C-# 0C F ... : ... .. . ...
ROW 7D : ... .. . ... : ... .. 3 ... : ... .. . ... : ... .. . ... : ... .. . ...
ROW 7E : --- .. . ... : ... .. . ... : ... .. . ... : C-# 0C F ... : ... .. . ...
ROW 7F : ... .. . ... : ... .. . ... : ... .. . ... : ... .. . ... : ... .. . ...

PATTERN 01
ROW 00 : F#2 0F 7 V05 : B-2 0F 5 V05 : B-4 08 . 250 : C-# 0C F ... : ... .. . ...
ROW 01 : ... .. . ... : ... .. . ... : ... .. . ... : ... .. . ... : ... .. . ...
ROW 02 : F#2 0F . ... : B-2 0F . ... : --- .. . ... : ... .. . ... : ... .. . ...
ROW 03 : ... .. . ... : ... .. . ... : ... .. . ... : ... .. . ... : ... .. . ...
ROW 04 : D-3 0E 7 ... : B-2 0E 5 ... : ... .. . ... : C-# 0C . ... : ... .. . ...
ROW 05 : ... .. . ... : ... .. . ... : ... .. . ... : ... .. . ... : ... .. . ...
ROW 06 : F#2 0F . ... : B-2 0F . ... : ... .. . ... : ... .. . ... : ... .. . ...
ROW 07 : ... .. . ... : ... .. . ... : ... .. . ... : ... .. . ... : ... .. . ...
ROW 08 : ... .. . ... : B-2 0F . ... : B-4 08 . 250 : 6-# 0D 9 ... : ... .. . ...
ROW 09 : ... .. . ... : ... .. . ... : ... .. . ... : ... .. . ... : ... .. . ...
ROW 0A : F#3 0E 9 ... : D-3 0E 6 ... : --- .. . ... : ... .. . ... : ... .. . ...
ROW 0B : ... .. . ... : ... .. . ... : ... .. . ... : ... .. . ... : ... .. . ...
ROW 0C : D-3 0E 5 ... : B-2 0E 3 ... : ... .. . ... : C-# 0C F ... : ... .. . ...
ROW 0D : ... .. . ... : ... .. . ... : ... .. . ... : ... .. . ... : ... .. . ...
ROW 0E : F#2 0F . ... : B-2 0E 6 ... : ... .. . ... : ... .. . ... : ... .. . ...
ROW 0F : ... .. . ... : ... .. . ... : ... .. . ... : ... .. . ... : ... .. . ...
ROW 10 : F#3 0E 9 ... : D-3 0E 6 ... : B-4 08 . 250 : C-# 0C . ... : ... .. . ...
ROW 11 : ... .. . ... : ... .. . ... : ... .. . ... : ... .. . ... : ... .. . ...
ROW 12 : F#3 0F 7 ... : --- .. 5 ... : --- .. . ... : ... .. . ... : ... .. . ...
ROW 13 : ... .. . ... : ... .. . ... : ... .. . ... : ... .. . ... : ... .. . ...
ROW 14 : --- .. . ... : B-2 0E . ... : ... .. . ... : C-# 0C . ... : ... .. . ...
ROW 15 : ... .. . ... : ... .. . ... : ... .. . ... : ... .. . ... : ... .. . ...
ROW 16 : F#3 0E 9 ... : D-3 0E 6 ... : ... .. . ... : ... .. . ... : ... .. . ...
ROW 17 : ... .. . ... : ... .. . ... : ... .. . ... : ... .. . ... : ... .. . ...
ROW 18 : F#3 0F 7 ... : --- .. 5 ... : B-4 08 . 250 : 6-# 0D 9 ... : ... .. . ...
ROW 19 : ... .. . ... : ... .. . ... : ... .. . ... : ... .. . ... : ... .. . ...
ROW 1A : --- .. . ... : B-2 0E . ... : --- .. . ... : ... .. . ... : ... .. . ...
ROW 1B : ... .. . ... : ... .. . ... : ... .. . ... : ... .. . ... : ... .. . ...
ROW 1C : F#3 0E 9 ... : D-3 0E 6 ... : ... .. . ... : C-# 0C F ... : ... .. . ...
ROW 1D : ... .. . ... : ... .. . ... : ... .. . ... : ... .. . ... : ... .. . ...
ROW 1E : --- .. . ... : B-2 0F . ... : ... .. . ... : C-# 0C F ... : ... .. . ...
ROW 1F : ... .. . ... : ... .. . ... : ... .. . ... : ... .. . ... : ... .. . ...
ROW 20 : F#2 0F 7 ... : A-2 0F 5 V05 : B-4 08 . 250 : C-# 0C . ... : ... .. . ...
ROW 21 : ... .. . ... : ... .. . ... : ... .. . ... : ... .. . ... : ... .. . ...
ROW 22 : F#2 0F . ... : A-2 0F . ... : --- .. . ... : ... .. . ... : ... .. . ...
ROW 23 : ... .. . ... : ... .. . ... : ... .. . ... : ... .. . ... : ... .. . ...
ROW 24 : F#3 0E 7 V05 : D-3 0E 5 ... : ... .. . ... : C-# 0C . ... : ... .. . ...
ROW 25 : ... .. . ... : ... .. . ... : ... .. . ... : ... .. . ... : ... .. . ...
ROW 26 : F#2 0F . ... : A-2 0F . ... : ... .. . ... : ... .. . ... : ... .. . ...
ROW 27 : ... .. . ... : ... .. . ... : ... .. . ... : ... .. . ... : ... .. . ...
ROW 28 : ... .. . ... : A-2 0F . ... : B-4 08 . 250 : 6-# 0D 9 ... : ... .. . ...
ROW 29 : ... .. . ... : ... .. . ... : ... .. . ... : ... .. . ... : ... .. . ...
ROW 2A : F#3 0E 9 ... : D-3 0E 6 ... : --- .. . ... : ... .. . ... : ... .. . ...
ROW 2B : ... .. . ... : ... .. . ... : ... .. . ... : ... .. . ... : ... .. . ...
ROW 2C : D-3 0E 5 ... : A-2 0E 3 ... : ... .. . ... : C-# 0C F ... : ... .. . ...
ROW 2D : ... .. . ... : ... .. . ... : ... .. . ... : ... .. . ... : ... .. . ...
ROW 2E : F#2 0F . ... : A-2 0E 6 ... : ... .. . ... : ... .. . ... : ... .. . ...
ROW 2F : ... .. . ... : ... .. . ... : ... .. . ... : ... .. . ... : ... .. . ...
ROW 30 : F#3 0E 9 ... : D-3 0E 6 ... : B-4 08 . 250 : C-# 0C . ... : ... .. . ...
ROW 31 : ... .. . ... : ... .. . ... : ... .. . ... : ... .. . ... : ... .. . ...
ROW 32 : F#3 0F 7 ... : --- .. 5 ... : --- .. . ... : ... .. . ... : ... .. . ...
ROW 33 : ... .. . ... : ... .. . ... : ... .. . ... : ... .. . ... : ... .. . ...
ROW 34 : --- .. . ... : A-2 0E . ... : ... .. . ... : C-# 0C . ... : ... .. . ...
ROW 35 : ... .. . ... : ... .. . ... : ... .. . ... : ... .. . ... : ... .. . ...
ROW 36 : F#3 0E 9 ... : D-3 0E 6 ... : ... .. . ... : ... .. . ... : ... .. . ...
ROW 37 : ... .. . ... : ... .. . ... : ... .. . ... : ... .. . ... : ... .. . ...
ROW 38 : F#3 0F 7 ... : --- .. 5 ... : B-4 08 . 250 : 6-# 0D 9 ... : ... .. . ...
ROW 39 : ... .. . ... : ... .. . ... : ... .. . ... : ... .. . ... : ... .. . ...
ROW 3A : --- .. . ... : A-2 0E . ... : --- .. . ... : ... .. . ... : ... .. . ...
ROW 3B : ... .. . ... : ... .. . ... : ... .. . ... : ... .. . ... : ... .. . ...
ROW 3C : F#3 0E 9 ... : D-3 0E 6 ... : ... .. . ... : C-# 0C F ... : ... .. . ...
ROW 3D : ... .. . ... : ... .. . ... : ... .. . ... : ... .. . ... : ... .. . ...
ROW 3E : --- .. . ... : A-2 0F . ... : ... .. . ... : C-# 0C F ... : ... .. . ...
ROW 3F : ... .. . ... : ... .. . ... : ... .. . ... : ... .. . ... : ... .. . ...
ROW 40 : F#2 0F 7 ... : A-2 0F 5 V05 : B-4 08 . 250 : C-# 0C . ... : ... .. . ...
ROW 41 : ... .. . ... : ... .. . ... : ... .. . ... : ... .. . ... : ... .. . ...
ROW 42 : F#2 0F . ... : A-2 0F . ... : --- .. . ... : ... .. . ... : ... .. . ...
ROW 43 : ... .. . ... : ... .. . ... : ... .. . ... : ... .. . ... : ... .. . ...
ROW 44 : F#3 0E 7 V05 : C#3 0E 5 ... : ... .. . ... : C-# 0C . ... : ... .. . ...
ROW 45 : ... .. . ... : ... .. . ... : ... .. . ... : ... .. . ... : ... .. . ...
ROW 46 : F#2 0F . ... : A-2 0F . ... : ... .. . ... : ... .. . ... : ... .. . ...
ROW 47 : ... .. . ... : ... .. . ... : ... .. . ... : ... .. . ... : ... .. . ...
ROW 48 : ... .. . ... : A-2 0F . ... : B-4 08 . 250 : 6-# 0D 9 ... : ... .. . ...
ROW 49 : ... .. . ... : ... .. . ... : ... .. . ... : ... .. . ... : ... .. . ...
ROW 4A : F#3 0E 9 ... : C#3 0E 6 ... : --- .. . ... : ... .. . ... : ... .. . ...
ROW 4B : ... .. . ... : ... .. . ... : ... .. . ... : ... .. . ... : ... .. . ...
ROW 4C : C#3 0E 5 ... : A-2 0E 3 ... : ... .. . ... : C-# 0C F ... : ... .. . ...
ROW 4D : ... .. . ... : ... .. . ... : ... .. . ... : ... .. . ... : ... .. . ...
ROW 4E : F#2 0F . ... : A-2 0E 6 ... : ... .. . ... : ... .. . ... : ... .. . ...
ROW 4F : ... .. . ... : ... .. . ... : ... .. . ... : ... .. . ... : ... .. . ...
ROW 50 : F#3 0E 9 ... : C#3 0E 6 ... : B-4 08 . 250 : C-# 0C . ... : ... .. . ...
ROW 51 : ... .. . ... : ... .. . ... : ... .. . ... : ... .. . ... : ... .. . ...
ROW 52 : F#3 0F 7 ... : --- .. 5 ... : --- .. . ... : ... .. . ... : ... .. . ...
ROW 53 : ... .. . ... : ... .. . ... : ... .. . ... : ... .. . ... : ... .. . ...
ROW 54 : --- .. . ... : A-2 0E . ... : ... .. . ... : C-# 0C . ... : ... .. . ...
ROW 55 : ... .. . ... : ... .. . ... : ... .. . ... : ... .. . ... : ... .. . ...
ROW 56 : F#3 0E 9 ... : C#3 0E 6 ... : ... .. . ... : ... .. . ... : ... .. . ...
ROW 57 : ... .. . ... : ... .. . ... : ... .. . ... : ... .. . ... : ... .. . ...
ROW 58 : F#3 0E 7 ... : --- .. 5 ... : B-4 08 . 250 : 6-# 0D 9 ... : ... .. . ...
ROW 59 : ... .. . ... : ... .. . ... : ... .. . ... : ... .. . ... : ... .. . ...
ROW 5A : --- .. . ... : A-2 0E . ... : --- .. . ... : ... .. . ... : ... .. . ...
ROW 5B : ... .. . ... : ... .. . ... : ... .. . ... : ... .. . ... : ... .. . ...
ROW 5C : F#3 0E 9 ... : C#3 0E 6 ... : ... .. . ... : C-# 0C F ... : ... .. . ...
ROW 5D : ... .. . ... : ... .. . ... : ... .. . ... : ... .. . ... : ... .. . ...
ROW 5E : --- .. . ... : A-2 0F . ... : ... .. . ... : C-# 0C F ... : ... .. . ...
ROW 5F : ... .. . ... : ... .. . ... : ... .. . ... : ... .. . ... : ... .. . ...
ROW 60 : E-2 0F 7 ... : G#2 0F 5 V05 : B-4 08 . 250 : C-# 0C . ... : ... .. . ...
ROW 61 : ... .. . ... : ... .. . ... : ... .. . ... : ... .. . ... : ... .. . ...
ROW 62 : E-2 0F . ... : G#2 0F . ... : --- .. . ... : ... .. . ... : ... .. . ...
ROW 63 : ... .. . ... : ... .. . ... : ... .. . ... : ... .. . ... : ... .. . ...
ROW 64 : E-3 0E 7 V05 : B-2 0E 5 ... : ... .. . ... : C-# 0C . ... : ... .. . ...
ROW 65 : ... .. . ... : ... .. . ... : ... .. . ... : ... .. . ... : ... .. . ...
ROW 66 : E-2 0F . ... : G#2 0F . ... : ... .. . ... : ... .. . ... : ... .. . ...
ROW 67 : ... .. . ... : ... .. . ... : ... .. . ... : ... .. . ... : ... .. . ...
ROW 68 : ... .. . ... : G#2 0F . ... : B-4 08 . 250 : 6-# 0D 9 ... : ... .. . ...
ROW 69 : ... .. . ... : ... .. . ... : ... .. . ... : ... .. . ... : ... .. . ...
ROW 6A : E-3 0E 9 ... : B-2 0E 6 ... : --- .. . ... : ... .. . ... : ... .. . ...
ROW 6B : ... .. . ... : ... .. . ... : ... .. . ... : ... .. . ... : ... .. . ...
ROW 6C : B-2 0E 5 ... : G#2 0E 3 ... : ... .. . ... : C-# 0C F ... : ... .. . ...
ROW 6D : ... .. . ... : ... .. . ... : ... .. . ... : ... .. . ... : ... .. . ...
ROW 6E : E-2 0F . ... : G#2 0E 6 ... : ... .. . ... : ... .. . ... : ... .. . ...
ROW 6F : ... .. . ... : ... .. . ... : ... .. . ... : ... .. . ... : ... .. . ...
ROW 70 : E-3 0E 9 ... : B-2 0E 6 ... : B-4 08 . 250 : C-# 0C . ... : ... .. . ...
ROW 71 : ... .. . ... : ... .. . ... : ... .. . ... : ... .. . ... : ... .. . ...
ROW 72 : E-3 0F 7 ... : --- .. 5 ... : --- .. . ... : ... .. . ... : ... .. . ...
ROW 73 : ... .. . ... : ... .. . ... : ... .. . ... : ... .. . ... : ... .. . ...
ROW 74 : --- .. . ... : G#2 0E . ... : ... .. . ... : C-# 0C . ... : ... .. . ...
ROW 75 : ... .. . ... : ... .. . ... : ... .. . ... : ... .. . ... : ... .. . ...
ROW 76 : E-3 0E 9 ... : B-2 0E 6 ... : ... .. . ... : ... .. . ... : ... .. . ...
ROW 77 : ... .. . ... : ... .. . ... : ... .. . ... : ... .. . ... : ... .. . ...
ROW 78 : E-3 0F 7 ... : --- .. 5 ... : B-4 08 . 250 : 6-# 0D 9 ... : ... .. . ...
ROW 79 : ... .. . ... : ... .. . ... : ... .. . ... : ... .. . ... : ... .. . ...
ROW 7A : --- .. . ... : G#2 0E . ... : --- .. . ... : ... .. . ... : ... .. . ...
ROW 7B : ... .. . ... : ... .. . ... : ... .. . ... : ... .. . ... : ... .. . ...
ROW 7C : E-3 0E 9 ... : B-2 0E 6 ... : ... .. . ... : C-# 0C F ... : ... .. . ...
ROW 7D : ... .. . ... : ... .. . ... : ... .. . ... : ... .. . ... : ... .. . ...
ROW 7E : --- .. . ... : G#2 0F . ... : ... .. . ... : C-# 0C F ... : ... .. . ...
ROW 7F : ... .. . ... : ... .. . ... : ... .. . ... : ... .. . ... : ... .. . ...

PATTERN 02
ROW 00 : F#2 0F 7 V05 : B-2 0F 5 V05 : B-4 08 . 250 : C-# 0C F ... : ... .. . ...
ROW 01 : ... .. . ... : ... .. . ... : ... .. . ... : ... .. . ... : ... .. . ...
ROW 02 : F#2 0F . ... : B-2 0F . ... : --- .. . ... : ... .. . ... : ... .. . ...
ROW 03 : ... .. . ... : ... .. . ... : ... .. . ... : ... .. . ... : ... .. . ...
ROW 04 : D-3 0E 7 ... : B-2 0E 5 ... : ... .. . ... : C-# 0C . ... : ... .. . ...
ROW 05 : ... .. . ... : ... .. . ... : ... .. . ... : ... .. . ... : ... .. . ...
ROW 06 : F#2 0F . ... : B-2 0F . ... : ... .. . ... : ... .. . ... : ... .. . ...
ROW 07 : ... .. . ... : ... .. . ... : ... .. . ... : ... .. . ... : ... .. . ...
ROW 08 : ... .. . ... : B-2 0F . ... : B-4 08 . 250 : 6-# 0D 9 ... : ... .. . ...
ROW 09 : ... .. . ... : ... .. . ... : ... .. . ... : ... .. . ... : ... .. . ...
ROW 0A : F#3 0E 9 ... : D-3 0E 6 ... : --- .. . ... : ... .. . ... : ... .. . ...
ROW 0B : ... .. . ... : ... .. . ... : ... .. . ... : ... .. . ... : ... .. . ...
ROW 0C : D-3 0E 5 ... : B-2 0E 3 ... : ... .. . ... : C-# 0C F ... : ... .. . ...
ROW 0D : ... .. . ... : ... .. . ... : ... .. . ... : ... .. . ... : ... .. . ...
ROW 0E : F#2 0F . ... : B-2 0E 6 ... : ... .. . ... : ... .. . ... : ... .. . ...
ROW 0F : ... .. . ... : ... .. . ... : ... .. . ... : ... .. . ... : ... .. . ...
ROW 10 : F#3 0E 9 ... : D-3 0E 6 ... : B-4 08 . 250 : C-# 0C . ... : ... .. . ...
ROW 11 : ... .. . ... : ... .. . ... : ... .. . ... : ... .. . ... : ... .. . ...
ROW 12 : F#3 0F 7 ... : --- .. 5 ... : --- .. . ... : ... .. . ... : ... .. . ...
ROW 13 : ... .. . ... : ... .. . ... : ... .. . ... : ... .. . ... : ... .. . ...
ROW 14 : --- .. . ... : B-2 0E . ... : ... .. . ... : C-# 0C . ... : ... .. . ...
ROW 15 : ... .. . ... : ... .. . ... : ... .. . ... : ... .. . ... : ... .. . ...
ROW 16 : F#3 0E 9 ... : D-3 0E 6 ... : ... .. . ... : ... .. . ... : ... .. . ...
ROW 17 : ... .. . ... : ... .. . ... : ... .. . ... : ... .. . ... : ... .. . ...
ROW 18 : F#3 0F 7 ... : --- .. 5 ... : B-4 08 . 250 : 6-# 0D 9 ... : ... .. . ...
ROW 19 : ... .. . ... : ... .. . ... : ... .. . ... : ... .. . ... : ... .. . ...
ROW 1A : --- .. . ... : B-2 0E . ... : --- .. . ... : ... .. . ... : ... .. . ...
ROW 1B : ... .. . ... : ... .. . ... : ... .. . ... : ... .. . ... : ... .. . ...
ROW 1C : F#3 0E 9 ... : D-3 0E 6 ... : ... .. . ... : C-# 0C F ... : ... .. . ...
ROW 1D : ... .. . ... : ... .. . ... : ... .. . ... : ... .. . ... : ... .. . ...
ROW 1E : --- .. . ... : B-2 0F . ... : ... .. . ... : C-# 0C F ... : ... .. . ...
ROW 1F : ... .. . ... : ... .. . ... : ... .. . ... : ... .. . ... : ... .. . ...
ROW 20 : F#2 0F 7 ... : A-2 0F 5 V05 : B-4 08 . 250 : C-# 0C . ... : ... .. . ...
ROW 21 : ... .. . ... : ... .. . ... : ... .. . ... : ... .. . ... : ... .. . ...
ROW 22 : F#2 0F . ... : A-2 0F . ... : --- .. . ... : ... .. . ... : ... .. . ...
ROW 23 : ... .. . ... : ... .. . ... : ... .. . ... : ... .. . ... : ... .. . ...
ROW 24 : F#3 0E 7 V05 : D-3 0E 5 ... : ... .. . ... : C-# 0C . ... : ... .. . ...
ROW 25 : ... .. . ... : ... .. . ... : ... .. . ... : ... .. . ... : ... .. . ...
ROW 26 : F#2 0F . ... : A-2 0F . ... : ... .. . ... : ... .. . ... : ... .. . ...
ROW 27 : ... .. . ... : ... .. . ... : ... .. . ... : ... .. . ... : ... .. . ...
ROW 28 : ... .. . ... : A-2 0F . ... : B-4 08 . 250 : 6-# 0D 9 ... : ... .. . ...
ROW 29 : ... .. . ... : ... .. . ... : ... .. . ... : ... .. . ... : ... .. . ...
ROW 2A : F#3 0E 9 ... : D-3 0E 6 ... : --- .. . ... : ... .. . ... : ... .. . ...
ROW 2B : ... .. . ... : ... .. . ... : ... .. . ... : ... .. . ... : ... .. . ...
ROW 2C : D-3 0E 5 ... : F#3 11 A ... : ... .. . ... : C-# 0C F ... : ... .. . ...
ROW 2D : ... .. . ... : ... .. . ... : ... .. . ... : ... .. . ... : ... .. . ...
ROW 2E : F#2 0F . ... : ... .. 9 ... : ... .. . ... : ... .. . ... : ... .. . ...
ROW 2F : ... .. . ... : ... .. 8 ... : ... .. . ... : ... .. . ... : ... .. . ...
ROW 30 : F#3 0E 9 ... : B-3 11 A ... : B-4 08 . 250 : C-# 0C . ... : ... .. . ...
ROW 31 : ... .. . ... : ... .. 5 ... : ... .. . ... : ... .. . ... : ... .. . ...
ROW 32 : F#3 0F 7 ... : A-3 11 A ... : --- .. . ... : ... .. . ... : ... .. . ...
ROW 33 : ... .. . ... : ... .. . ... : ... .. . ... : ... .. . ... : ... .. . ...
ROW 34 : --- .. . ... : ... .. 9 ... : ... .. . ... : C-# 0C . ... : ... .. . ...
ROW 35 : ... .. . ... : ... .. 6 ... : ... .. . ... : ... .. . ... : ... .. . ...
ROW 36 : F#3 0E 9 ... : G#3 11 A ... : ... .. . ... : ... .. . ... : ... .. . ...
ROW 37 : ... .. . ... : ... .. . ... : ... .. . ... : ... .. . ... : ... .. . ...
ROW 38 : F#3 0F 7 ... : ... .. 9 ... : B-4 08 . 250 : 6-# 0D 9 ... : ... .. . ...
ROW 39 : ... .. . ... : ... .. 7 ... : ... .. . ... : ... .. . ... : ... .. . ...
ROW 3A : --- .. . ... : ... .. 6 ... : --- .. . ... : ... .. . ... : ... .. . ...
ROW 3B : ... .. . ... : ... .. 5 ... : ... .. . ... : ... .. . ... : ... .. . ...
ROW 3C : F#3 0E 9 ... : G#3 11 A ... : ... .. . ... : C-# 0C F ... : ... .. . ...
ROW 3D : ... .. . ... : ... .. 5 ... : ... .. . ... : ... .. . ... : ... .. . ...
ROW 3E : --- .. . ... : A-3 11 A ... : ... .. . ... : C-# 0C F ... : ... .. . ...
ROW 3F : ... .. . ... : ... .. . ... : ... .. . ... : ... .. . ... : ... .. . ...
ROW 40 : F#2 0F 7 ... : ... .. . ... : B-4 08 . 250 : C-# 0C . ... : ... .. . ...
ROW 41 : ... .. . ... : ... .. . ... : ... .. . ... : ... .. . ... : ... .. . ...
ROW 42 : F#2 0F . ... : ... .. 9 ... : --- .. . ... : ... .. . ... : ... .. . ...
ROW 43 : ... .. . ... : ... .. 8 ... : ... .. . ... : ... .. . ... : ... .. . ...
ROW 44 : F#3 0E 7 V05 : F#3 11 A ... : ... .. . ... : C-# 0C . ... : ... .. . ...
ROW 45 : ... .. . ... : ... .. . ... : ... .. . ... : ... .. . ... : ... .. . ...
ROW 46 : F#2 0F . ... : ... .. 9 ... : ... .. . ... : ... .. . ... : ... .. . ...
ROW 47 : ... .. . ... : ... .. . ... : ... .. . ... : ... .. . ... : ... .. . ...
ROW 48 : ... .. . ... : ... .. 8 ... : B-4 08 . 250 : 6-# 0D 9 ... : ... .. . ...
ROW 49 : ... .. . ... : ... .. . ... : ... .. . ... : ... .. . ... : ... .. . ...
ROW 4A : F#3 0E 9 ... : ... .. 7 ... : --- .. . ... : ... .. . ... : ... .. . ...
ROW 4B : ... .. . ... : ... .. . ... : ... .. . ... : ... .. . ... : ... .. . ...
ROW 4C : C#3 0E 5 ... : ... .. 6 ... : ... .. . ... : C-# 0C F ... : ... .. . ...
ROW 4D : ... .. . ... : ... .. 5 ... : ... .. . ... : ... .. . ... : ... .. . ...
ROW 4E : F#2 0F . ... : ... .. 4 ... : ... .. . ... : ... .. . ... : ... .. . ...
ROW 4F : ... .. . ... : ... .. . ... : ... .. . ... : ... .. . ... : ... .. . ...
ROW 50 : F#3 0E 9 ... : ... .. 1 ... : B-4 08 . 250 : C-# 0C . ... : ... .. . ...
ROW 51 : ... .. . ... : ... .. . ... : ... .. . ... : ... .. . ... : ... .. . ...
ROW 52 : F#3 0F 7 ... : ... .. . ... : --- .. . ... : ... .. . ... : ... .. . ...
ROW 53 : ... .. . ... : ... .. . ... : ... .. . ... : ... .. . ... : ... .. . ...
ROW 54 : --- .. . ... : ... .. . ... : ... .. . ... : C-# 0C . ... : ... .. . ...
ROW 55 : ... .. . ... : ... .. . ... : ... .. . ... : ... .. . ... : ... .. . ...
ROW 56 : F#3 0E 9 ... : ... .. . ... : ... .. . ... : ... .. . ... : ... .. . ...
ROW 57 : ... .. . ... : ... .. . ... : ... .. . ... : ... .. . ... : ... .. . ...
ROW 58 : F#3 0E 7 ... : --- .. 5 ... : B-4 08 . 250 : 6-# 0D 9 ... : ... .. . ...
ROW 59 : ... .. . ... : ... .. . ... : ... .. . ... : ... .. . ... : ... .. . ...
ROW 5A : --- .. . ... : A-2 0E . ... : --- .. . ... : ... .. . ... : ... .. . ...
ROW 5B : ... .. . ... : ... .. . ... : ... .. . ... : ... .. . ... : ... .. . ...
ROW 5C : F#3 0E 9 ... : C#3 0E 6 ... : ... .. . ... : C-# 0C F ... : ... .. . ...
ROW 5D : ... .. . ... : ... .. . ... : ... .. . ... : ... .. . ... : ... .. . ...
ROW 5E : --- .. . ... : A-2 0F . ... : ... .. . ... : C-# 0C F ... : ... .. . ...
ROW 5F : ... .. . ... : ... .. . ... : ... .. . ... : ... .. . ... : ... .. . ...
ROW 60 : E-2 0F 7 ... : G#2 0F 5 V05 : B-4 08 . 250 : C-# 0C . ... : ... .. . ...
ROW 61 : ... .. . ... : ... .. . ... : ... .. . ... : ... .. . ... : ... .. . ...
ROW 62 : E-2 0F . ... : G#2 0F . ... : --- .. . ... : ... .. . ... : ... .. . ...
ROW 63 : ... .. . ... : ... .. . ... : ... .. . ... : ... .. . ... : ... .. . ...
ROW 64 : E-3 0E 7 V05 : B-2 0E 5 ... : ... .. . ... : C-# 0C . ... : ... .. . ...
ROW 65 : ... .. . ... : ... .. . ... : ... .. . ... : ... .. . ... : ... .. . ...
ROW 66 : E-2 0F . ... : G#2 0F . ... : ... .. . ... : ... .. . ... : ... .. . ...
ROW 67 : ... .. . ... : ... .. . ... : ... .. . ... : ... .. . ... : ... .. . ...
ROW 68 : ... .. . ... : G#2 0F . ... : B-4 08 . 250 : 6-# 0D 9 ... : ... .. . ...
ROW 69 : ... .. . ... : ... .. . ... : ... .. . ... : ... .. . ... : ... .. . ...
ROW 6A : E-3 0E 9 ... : B-2 0E 6 ... : --- .. . ... : ... .. . ... : ... .. . ...
ROW 6B : ... .. . ... : ... .. . ... : ... .. . ... : ... .. . ... : ... .. . ...
ROW 6C : B-2 0E 5 ... : F#3 11 A ... : ... .. . ... : C-# 0C F ... : ... .. . ...
ROW 6D : ... .. . ... : ... .. . ... : ... .. . ... : ... .. . ... : ... .. . ...
ROW 6E : E-2 0F . ... : ... .. 9 ... : ... .. . ... : ... .. . ... : ... .. . ...
ROW 6F : ... .. . ... : ... .. 7 ... : ... .. . ... : ... .. . ... : ... .. . ...
ROW 70 : E-3 0E 9 ... : B-3 11 A ... : B-4 08 . 250 : C-# 0C . ... : ... .. . ...
ROW 71 : ... .. . ... : ... .. 9 ... : ... .. . ... : ... .. . ... : ... .. . ...
ROW 72 : E-3 0F 7 ... : ... .. 8 ... : --- .. . ... : ... .. . ... : ... .. . ...
ROW 73 : ... .. . ... : ... .. 5 ... : ... .. . ... : ... .. . ... : ... .. . ...
ROW 74 : --- .. . ... : A-3 11 A ... : ... .. . ... : C-# 0C . ... : ... .. . ...
ROW 75 : ... .. . ... : ... .. 5 ... : ... .. . ... : ... .. . ... : ... .. . ...
ROW 76 : E-3 0E 9 ... : G#3 11 A ... : ... .. . ... : ... .. . ... : ... .. . ...
ROW 77 : ... .. . ... : ... .. 9 ... : ... .. . ... : ... .. . ... : ... .. . ...
ROW 78 : E-3 0F 7 ... : ... .. 7 ... : B-4 08 . 250 : 6-# 0D 9 ... : ... .. . ...
ROW 79 : ... .. . ... : ... .. 6 ... : ... .. . ... : ... .. . ... : ... .. . ...
ROW 7A : --- .. . ... : G#3 11 A ... : --- .. . ... : ... .. . ... : ... .. . ...
ROW 7B : ... .. . ... : ... .. 9 ... : ... .. . ... : ... .. . ... : ... .. . ...
ROW 7C : E-3 0E 9 ... : ... .. 6 ... : ... .. . ... : C-# 0C F ... : ... .. . ...
ROW 7D : ... .. . ... : ... .. 5 ... : ... .. . ... : ... .. . ... : ... .. . ...
ROW 7E : --- .. . ... : G#3 11 A ... : ... .. . ... : C-# 0C F ... : ... .. . ...
ROW 7F : ... .. . ... : ... .. 5 ... : ... .. . ... : ... .. . ... : ... .. . ...

PATTERN 03
ROW 00 : F#2 0F 7 V05 : B-2 0F 5 V05 : B-4 08 . 250 : C-# 0C F ... : ... .. . ...
ROW 01 : ... .. . ... : ... .. . ... : ... .. . ... : ... .. . ... : ... .. . ...
ROW 02 : F#2 0F . ... : F#3 11 A V01 : --- .. . ... : ... .. . ... : ... .. . ...
ROW 03 : ... .. . ... : ... .. 9 ... : ... .. . ... : ... .. . ... : ... .. . ...
ROW 04 : D-3 0E 7 ... : ... .. . ... : ... .. . ... : C-# 0C . ... : ... .. . ...
ROW 05 : ... .. . ... : ... .. 6 ... : ... .. . ... : ... .. . ... : ... .. . ...
ROW 06 : F#2 0F . ... : ... .. 5 ... : ... .. . ... : ... .. . ... : ... .. . ...
ROW 07 : ... .. . ... : ... .. 4 ... : ... .. . ... : ... .. . ... : ... .. . ...
ROW 08 : ... .. . ... : --- .. 1 ... : B-4 08 . 250 : 6-# 0D 9 ... : ... .. . ...
ROW 09 : ... .. . ... : ... .. . ... : ... .. . ... : ... .. . ... : ... .. . ...
ROW 0A : F#3 0E 9 ... : ... .. 5 ... : --- .. . ... : ... .. . ... : ... .. . ...
ROW 0B : ... .. . ... : ... .. . ... : ... .. . ... : ... .. . ... : ... .. . ...
ROW 0C : D-3 0E 5 ... : ... .. 4 ... : ... .. . ... : C-# 0C F ... : ... .. . ...
ROW 0D : ... .. . ... : ... .. . ... : ... .. . ... : ... .. . ... : ... .. . ...
ROW 0E : F#2 0F . ... : ... .. 3 ... : ... .. . ... : ... .. . ... : ... .. . ...
ROW 0F : ... .. . ... : ... .. . ... : ... .. . ... : ... .. . ... : ... .. . ...
ROW 10 : F#3 0E 9 ... : ... .. 2 ... : B-4 08 . 250 : C-# 0C . ... : ... .. . ...
ROW 11 : ... .. . ... : ... .. . ... : ... .. . ... : ... .. . ... : ... .. . ...
ROW 12 : F#3 0F 7 ... : ... .. 1 ... : --- .. . ... : ... .. . ... : ... .. . ...
ROW 13 : ... .. . ... : ... .. . ... : ... .. . ... : ... .. . ... : ... .. . ...
ROW 14 : --- .. . ... : B-2 0E . ... : ... .. . ... : C-# 0C . ... : ... .. . ...
ROW 15 : ... .. . ... : ... .. . ... : ... .. . ... : ... .. . ... : ... .. . ...
ROW 16 : F#3 0E 9 ... : D-3 0E 6 ... : ... .. . ... : ... .. . ... : ... .. . ...
ROW 17 : ... .. . ... : ... .. . ... : ... .. . ... : ... .. . ... : ... .. . ...
ROW 18 : F#3 0F 7 ... : --- .. 5 ... : B-4 08 . 250 : 6-# 0D 9 ... : ... .. . ...
ROW 19 : ... .. . ... : ... .. . ... : ... .. . ... : ... .. . ... : ... .. . ...
ROW 1A : --- .. . ... : B-2 0E . ... : --- .. . ... : ... .. . ... : ... .. . ...
ROW 1B : ... .. . ... : ... .. . ... : ... .. . ... : ... .. . ... : ... .. . ...
ROW 1C : F#3 0E 9 ... : D-3 0E 6 ... : ... .. . ... : C-# 0C F ... : ... .. . ...
ROW 1D : ... .. . ... : ... .. . ... : ... .. . ... : ... .. . ... : ... .. . ...
ROW 1E : --- .. . ... : B-2 0F . ... : ... .. . ... : C-# 0C F ... : ... .. . ...
ROW 1F : ... .. . ... : ... .. . ... : ... .. . ... : ... .. . ... : ... .. . ...
ROW 20 : F#2 0F 7 ... : D-3 10 A V01 : B-4 08 . 250 : C-# 0C . ... : ... .. . ...
ROW 21 : ... .. . ... : ... .. 9 ... : ... .. . ... : ... .. . ... : ... .. . ...
ROW 22 : F#2 0F . ... : ... .. . ... : --- .. . ... : ... .. . ... : ... .. . ...
ROW 23 : ... .. . ... : ... .. 8 ... : ... .. . ... : ... .. . ... : ... .. . ...
ROW 24 : F#3 0E 7 V05 : ... .. 7 ... : ... .. . ... : C-# 0C . ... : ... .. . ...
ROW 25 : ... .. . ... : ... .. . ... : ... .. . ... : ... .. . ... : ... .. . ...
ROW 26 : F#2 0F . ... : ... .. 6 ... : ... .. . ... : ... .. . ... : ... .. . ...
ROW 27 : ... .. . ... : ... .. . ... : ... .. . ... : ... .. . ... : ... .. . ...
ROW 28 : ... .. . ... : ... .. 5 ... : B-4 08 . 250 : 6-# 0D 9 ... : ... .. . ...
ROW 29 : ... .. . ... : ... .. . ... : ... .. . ... : ... .. . ... : ... .. . ...
ROW 2A : F#3 0E 9 ... : ... .. 4 ... : --- .. . ... : ... .. . ... : ... .. . ...
ROW 2B : ... .. . ... : ... .. . ... : ... .. . ... : ... .. . ... : ... .. . ...
ROW 2C : D-3 0E 5 ... : F#3 11 A ... : ... .. . ... : C-# 0C F ... : ... .. . ...
ROW 2D : ... .. . ... : ... .. . ... : ... .. . ... : ... .. . ... : ... .. . ...
ROW 2E : F#2 0F . ... : ... .. 9 ... : ... .. . ... : ... .. . ... : ... .. . ...
ROW 2F : ... .. . ... : ... .. 8 ... : ... .. . ... : ... .. . ... : ... .. . ...
ROW 30 : F#3 0E 9 ... : B-3 11 A ... : B-4 08 . 250 : C-# 0C . ... : ... .. . ...
ROW 31 : ... .. . ... : ... .. 5 ... : ... .. . ... : ... .. . ... : ... .. . ...
ROW 32 : F#3 0F 7 ... : A-3 11 A ... : --- .. . ... : ... .. . ... : ... .. . ...
ROW 33 : ... .. . ... : ... .. . ... : ... .. . ... : ... .. . ... : ... .. . ...
ROW 34 : --- .. . ... : ... .. 9 ... : ... .. . ... : C-# 0C . ... : ... .. . ...
ROW 35 : ... .. . ... : ... .. 6 ... : ... .. . ... : ... .. . ... : ... .. . ...
ROW 36 : F#3 0E 9 ... : G#3 11 A ... : ... .. . ... : ... .. . ... : ... .. . ...
ROW 37 : ... .. . ... : ... .. . ... : ... .. . ... : ... .. . ... : ... .. . ...
ROW 38 : F#3 0F 7 ... : ... .. 9 ... : B-4 08 . 250 : 6-# 0D 9 ... : ... .. . ...
ROW 39 : ... .. . ... : ... .. 7 ... : ... .. . ... : ... .. . ... : ... .. . ...
ROW 3A : --- .. . ... : ... .. 6 ... : --- .. . ... : ... .. . ... : ... .. . ...
ROW 3B : ... .. . ... : ... .. 5 ... : ... .. . ... : ... .. . ... : ... .. . ...
ROW 3C : F#3 0E 9 ... : G#3 11 A ... : ... .. . ... : C-# 0C F ... : ... .. . ...
ROW 3D : ... .. . ... : ... .. 5 ... : ... .. . ... : ... .. . ... : ... .. . ...
ROW 3E : --- .. . ... : A-3 11 A ... : ... .. . ... : C-# 0C F ... : ... .. . ...
ROW 3F : ... .. . ... : ... .. . ... : ... .. . ... : ... .. . ... : ... .. . ...
ROW 40 : F#2 0F 7 ... : ... .. . ... : B-4 08 . 250 : C-# 0C . ... : ... .. . ...
ROW 41 : ... .. . ... : ... .. . ... : ... .. . ... : ... .. . ... : ... .. . ...
ROW 42 : F#2 0F . ... : ... .. 9 ... : --- .. . ... : ... .. . ... : ... .. . ...
ROW 43 : ... .. . ... : ... .. 8 ... : ... .. . ... : ... .. . ... : ... .. . ...
ROW 44 : F#3 0E 7 V05 : F#3 11 A ... : ... .. . ... : C-# 0C . ... : ... .. . ...
ROW 45 : ... .. . ... : ... .. . ... : ... .. . ... : ... .. . ... : ... .. . ...
ROW 46 : F#2 0F . ... : ... .. 9 ... : ... .. . ... : ... .. . ... : ... .. . ...
ROW 47 : ... .. . ... : ... .. . ... : ... .. . ... : ... .. . ... : ... .. . ...
ROW 48 : ... .. . ... : ... .. 8 ... : B-4 08 . 250 : 6-# 0D 9 ... : ... .. . ...
ROW 49 : ... .. . ... : ... .. . ... : ... .. . ... : ... .. . ... : ... .. . ...
ROW 4A : F#3 0E 9 ... : ... .. 7 ... : --- .. . ... : ... .. . ... : ... .. . ...
ROW 4B : ... .. . ... : ... .. . ... : ... .. . ... : ... .. . ... : ... .. . ...
ROW 4C : C#3 0E 5 ... : ... .. 6 ... : ... .. . ... : C-# 0C F ... : ... .. . ...
ROW 4D : ... .. . ... : ... .. 5 ... : ... .. . ... : ... .. . ... : ... .. . ...
ROW 4E : F#2 0F . ... : ... .. 4 ... : ... .. . ... : ... .. . ... : ... .. . ...
ROW 4F : ... .. . ... : ... .. . ... : ... .. . ... : ... .. . ... : ... .. . ...
ROW 50 : F#3 0E 9 ... : ... .. 1 ... : B-4 08 . 250 : C-# 0C . ... : ... .. . ...
ROW 51 : ... .. . ... : ... .. . ... : ... .. . ... : ... .. . ... : ... .. . ...
ROW 52 : F#3 0F 7 ... : --- .. 5 ... : --- .. . ... : ... .. . ... : ... .. . ...
ROW 53 : ... .. . ... : ... .. . ... : ... .. . ... : ... .. . ... : ... .. . ...
ROW 54 : --- .. . ... : A-2 0E . ... : ... .. . ... : C-# 0C . ... : ... .. . ...
ROW 55 : ... .. . ... : ... .. . ... : ... .. . ... : ... .. . ... : ... .. . ...
ROW 56 : F#3 0E 9 ... : C#3 0E 6 ... : ... .. . ... : ... .. . ... : ... .. . ...
ROW 57 : ... .. . ... : ... .. . ... : ... .. . ... : ... .. . ... : ... .. . ...
ROW 58 : F#3 0E 7 ... : --- .. 5 ... : B-4 08 . 250 : 6-# 0D 9 ... : ... .. . ...
ROW 59 : ... .. . ... : ... .. . ... : ... .. . ... : ... .. . ... : ... .. . ...
ROW 5A : --- .. . ... : A-2 0E . ... : --- .. . ... : ... .. . ... : ... .. . ...
ROW 5B : ... .. . ... : ... .. . ... : ... .. . ... : ... .. . ... : ... .. . ...
ROW 5C : F#3 0E 9 ... : C#3 0E 6 ... : ... .. . ... : C-# 0C F ... : ... .. . ...
ROW 5D : ... .. . ... : ... .. . ... : ... .. . ... : ... .. . ... : ... .. . ...
ROW 5E : --- .. . ... : A-2 0F . ... : ... .. . ... : C-# 0C F ... : ... .. . ...
ROW 5F : ... .. . ... : ... .. . ... : ... .. . ... : ... .. . ... : ... .. . ...
ROW 60 : E-2 0F 7 ... : G#2 0F 5 V05 : B-4 08 . 250 : C-# 0C . ... : ... .. . ...
ROW 61 : ... .. . ... : ... .. . ... : ... .. . ... : ... .. . ... : ... .. . ...
ROW 62 : E-2 0F . ... : G#2 0F . ... : --- .. . ... : ... .. . ... : ... .. . ...
ROW 63 : ... .. . ... : ... .. . ... : ... .. . ... : ... .. . ... : ... .. . ...
ROW 64 : E-3 0E 7 V05 : B-2 0E 5 ... : ... .. . ... : C-# 0C . ... : ... .. . ...
ROW 65 : ... .. . ... : ... .. . ... : ... .. . ... : ... .. . ... : ... .. . ...
ROW 66 : E-2 0F . ... : G#2 0F . ... : ... .. . ... : ... .. . ... : ... .. . ...
ROW 67 : ... .. . ... : ... .. . ... : ... .. . ... : ... .. . ... : ... .. . ...
ROW 68 : ... .. . ... : G#2 0F . ... : B-4 08 . 250 : 6-# 0D 9 ... : ... .. . ...
ROW 69 : ... .. . ... : ... .. . ... : ... .. . ... : ... .. . ... : ... .. . ...
ROW 6A : E-3 0E 9 ... : B-2 0E 6 ... : --- .. . ... : ... .. . ... : ... .. . ...
ROW 6B : ... .. . ... : ... .. . ... : ... .. . ... : ... .. . ... : ... .. . ...
ROW 6C : B-2 0E 5 ... : F#3 11 A ... : ... .. . ... : C-# 0C F ... : ... .. . ...
ROW 6D : ... .. . ... : ... .. . ... : ... .. . ... : ... .. . ... : ... .. . ...
ROW 6E : E-2 0F . ... : ... .. 9 ... : ... .. . ... : ... .. . ... : ... .. . ...
ROW 6F : ... .. . ... : ... .. 7 ... : ... .. . ... : ... .. . ... : ... .. . ...
ROW 70 : E-3 0E 9 ... : B-3 11 A ... : B-4 08 . 250 : C-# 0C . ... : ... .. . ...
ROW 71 : ... .. . ... : ... .. 9 ... : ... .. . ... : ... .. . ... : ... .. . ...
ROW 72 : E-3 0F 7 ... : ... .. 8 ... : --- .. . ... : ... .. . ... : ... .. . ...
ROW 73 : ... .. . ... : ... .. 5 ... : ... .. . ... : ... .. . ... : ... .. . ...
ROW 74 : --- .. . ... : A-3 11 A ... : ... .. . ... : C-# 0C . ... : ... .. . ...
ROW 75 : ... .. . ... : ... .. 5 ... : ... .. . ... : ... .. . ... : ... .. . ...
ROW 76 : E-3 0E 9 ... : G#3 11 A ... : ... .. . ... : ... .. . ... : ... .. . ...
ROW 77 : ... .. . ... : ... .. 9 ... : ... .. . ... : ... .. . ... : ... .. . ...
ROW 78 : E-3 0F 7 ... : ... .. 7 ... : B-4 08 . 250 : 6-# 0D 9 ... : ... .. . ...
ROW 79 : ... .. . ... : ... .. 6 ... : ... .. . ... : ... .. . ... : ... .. . ...
ROW 7A : --- .. . ... : G#3 11 A ... : --- .. . ... : ... .. . ... : ... .. . ...
ROW 7B : ... .. . ... : ... .. 9 ... : ... .. . ... : ... .. . ... : ... .. . ...
ROW 7C : E-3 0E 9 ... : ... .. 6 ... : ... .. . ... : C-# 0C F ... : ... .. . ...
ROW 7D : ... .. . ... : ... .. 5 ... : ... .. . ... : ... .. . ... : ... .. . ...
ROW 7E : --- .. . ... : G#3 11 A ... : ... .. . ... : C-# 0C F ... : ... .. . ...
ROW 7F : ... .. . ... : ... .. 5 ... : ... .. . ... : ... .. . ... : ... .. . ...

PATTERN 04
ROW 00 : F#2 0F 7 V05 : B-2 11 5 V05 : B-4 08 . 250 : C-# 0C F ... : ... .. . ...
ROW 01 : ... .. . ... : ... .. . ... : ... .. . ... : ... .. . ... : ... .. . ...
ROW 02 : F#2 0F . ... : A-3 11 A V01 : --- .. . ... : ... .. . ... : ... .. . ...
ROW 03 : ... .. . ... : ... .. 9 ... : ... .. . ... : ... .. . ... : ... .. . ...
ROW 04 : D-3 0E 7 ... : ... .. . ... : ... .. . ... : C-# 0C . ... : ... .. . ...
ROW 05 : ... .. . ... : ... .. 6 ... : ... .. . ... : ... .. . ... : ... .. . ...
ROW 06 : F#2 0F . ... : ... .. 5 ... : ... .. . ... : ... .. . ... : ... .. . ...
ROW 07 : ... .. . ... : ... .. 4 ... : ... .. . ... : ... .. . ... : ... .. . ...
ROW 08 : ... .. . ... : --- .. 1 ... : B-4 08 . 250 : 6-# 0D 9 ... : ... .. . ...
ROW 09 : ... .. . ... : ... .. . ... : ... .. . ... : ... .. . ... : ... .. . ...
ROW 0A : F#3 0E 9 ... : ... .. 5 ... : --- .. . ... : ... .. . ... : ... .. . ...
ROW 0B : ... .. . ... : ... .. . ... : ... .. . ... : ... .. . ... : ... .. . ...
ROW 0C : D-3 0E 5 ... : ... .. 4 ... : ... .. . ... : C-# 0C F ... : ... .. . ...
ROW 0D : ... .. . ... : ... .. . ... : ... .. . ... : ... .. . ... : ... .. . ...
ROW 0E : F#2 0F . ... : ... .. 3 ... : ... .. . ... : ... .. . ... : ... .. . ...
ROW 0F : ... .. . ... : ... .. . ... : ... .. . ... : ... .. . ... : ... .. . ...
ROW 10 : F#3 0E 9 ... : ... .. 2 ... : B-4 08 . 250 : C-# 0C . ... : ... .. . ...
ROW 11 : ... .. . ... : ... .. . ... : ... .. . ... : ... .. . ... : ... .. . ...
ROW 12 : F#3 0F 7 ... : --- .. 5 ... : --- .. . ... : ... .. . ... : ... .. . ...
ROW 13 : ... .. . ... : ... .. . ... : ... .. . ... : ... .. . ... : ... .. . ...
ROW 14 : --- .. . ... : B-2 0E . ... : ... .. . ... : C-# 0C . ... : ... .. . ...
ROW 15 : ... .. . ... : ... .. . ... : ... .. . ... : ... .. . ... : ... .. . ...
ROW 16 : F#3 0E 9 ... : D-3 0E 6 ... : ... .. . ... : ... .. . ... : ... .. . ...
ROW 17 : ... .. . ... : ... .. . ... : ... .. . ... : ... .. . ... : ... .. . ...
ROW 18 : F#3 0F 7 ... : --- .. 5 ... : B-4 08 . 250 : 6-# 0D 9 ... : ... .. . ...
ROW 19 : ... .. . ... : ... .. . ... : ... .. . ... : ... .. . ... : ... .. . ...
ROW 1A : --- .. . ... : B-2 0E . ... : --- .. . ... : ... .. . ... : ... .. . ...
ROW 1B : ... .. . ... : ... .. . ... : ... .. . ... : ... .. . ... : ... .. . ...
ROW 1C : F#3 0E 9 ... : E-3 11 A ... : ... .. . ... : C-# 0C F ... : ... .. . ...
ROW 1D : ... .. . ... : ... .. . ... : ... .. . ... : ... .. . ... : ... .. . ...
ROW 1E : --- .. . ... : ... .. . ... : ... .. . ... : C-# 0C F ... : ... .. . ...
ROW 1F : ... .. . ... : ... .. . ... : ... .. . ... : ... .. . ... : ... .. . ...
ROW 20 : F#2 0F 7 ... : ... .. . V01 : B-4 08 . 250 : C-# 0C . ... : ... .. . ...
ROW 21 : ... .. . ... : ... .. 9 ... : ... .. . ... : ... .. . ... : ... .. . ...
ROW 22 : F#2 0F . ... : ... .. . ... : --- .. . ... : ... .. . ... : ... .. . ...
ROW 23 : ... .. . ... : ... .. 6 ... : ... .. . ... : ... .. . ... : ... .. . ...
ROW 24 : F#3 0E 7 V05 : ... .. 5 ... : ... .. . ... : C-# 0C . ... : ... .. . ...
ROW 25 : ... .. . ... : ... .. 4 ... : ... .. . ... : ... .. . ... : ... .. . ...
ROW 26 : F#2 0F . ... : ... .. 3 ... : ... .. . ... : ... .. . ... : ... .. . ...
ROW 27 : ... .. . ... : ... .. 2 ... : ... .. . ... : ... .. . ... : ... .. . ...
ROW 28 : ... .. . ... : ... .. 1 ... : B-4 08 . 250 : 6-# 0D 9 ... : ... .. . ...
ROW 29 : ... .. . ... : ... .. 0 ... : ... .. . ... : ... .. . ... : ... .. . ...
ROW 2A : F#3 0E 9 ... : ... .. . ... : --- .. . ... : ... .. . ... : ... .. . ...
ROW 2B : ... .. . ... : ... .. . ... : ... .. . ... : ... .. . ... : ... .. . ...
ROW 2C : D-3 0E 5 ... : F#3 11 A ... : ... .. . ... : C-# 0C F ... : ... .. . ...
ROW 2D : ... .. . ... : ... .. . ... : ... .. . ... : ... .. . ... : ... .. . ...
ROW 2E : F#2 0F . ... : ... .. 9 ... : ... .. . ... : ... .. . ... : ... .. . ...
ROW 2F : ... .. . ... : ... .. 8 ... : ... .. . ... : ... .. . ... : ... .. . ...
ROW 30 : F#3 0E 9 ... : B-3 11 A ... : B-4 08 . 250 : C-# 0C . ... : ... .. . ...
ROW 31 : ... .. . ... : ... .. 5 ... : ... .. . ... : ... .. . ... : ... .. . ...
ROW 32 : F#3 0F 7 ... : A-3 11 A ... : --- .. . ... : ... .. . ... : ... .. . ...
ROW 33 : ... .. . ... : ... .. . ... : ... .. . ... : ... .. . ... : ... .. . ...
ROW 34 : --- .. . ... : ... .. 9 ... : ... .. . ... : C-# 0C . ... : ... .. . ...
ROW 35 : ... .. . ... : ... .. 6 ... : ... .. . ... : ... .. . ... : ... .. . ...
ROW 36 : F#3 0E 9 ... : G#3 11 A ... : ... .. . ... : ... .. . ... : ... .. . ...
ROW 37 : ... .. . ... : ... .. . ... : ... .. . ... : ... .. . ... : ... .. . ...
ROW 38 : F#3 0F 7 ... : ... .. 9 ... : B-4 08 . 250 : 6-# 0D 9 ... : ... .. . ...
ROW 39 : ... .. . ... : ... .. 7 ... : ... .. . ... : ... .. . ... : ... .. . ...
ROW 3A : --- .. . ... : ... .. 6 ... : --- .. . ... : ... .. . ... : ... .. . ...
ROW 3B : ... .. . ... : ... .. 5 ... : ... .. . ... : ... .. . ... : ... .. . ...
ROW 3C : F#3 0E 9 ... : G#3 11 A ... : ... .. . ... : C-# 0C F ... : ... .. . ...
ROW 3D : ... .. . ... : ... .. 5 ... : ... .. . ... : ... .. . ... : ... .. . ...
ROW 3E : --- .. . ... : A-3 11 A ... : ... .. . ... : C-# 0C F ... : ... .. . ...
ROW 3F : ... .. . ... : ... .. . ... : ... .. . ... : ... .. . ... : ... .. . ...
ROW 40 : F#2 0F 7 ... : ... .. . ... : B-4 08 . 250 : C-# 0C . ... : ... .. . ...
ROW 41 : ... .. . ... : ... .. . ... : ... .. . ... : ... .. . ... : ... .. . ...
ROW 42 : F#2 0F . ... : ... .. 9 ... : --- .. . ... : ... .. . ... : ... .. . ...
ROW 43 : ... .. . ... : ... .. 8 ... : ... .. . ... : ... .. . ... : ... .. . ...
ROW 44 : F#3 0E 7 V05 : F#3 11 A ... : ... .. . ... : C-# 0C . ... : ... .. . ...
ROW 45 : ... .. . ... : ... .. . ... : ... .. . ... : ... .. . ... : ... .. . ...
ROW 46 : F#2 0F . ... : ... .. 9 ... : ... .. . ... : ... .. . ... : ... .. . ...
ROW 47 : ... .. . ... : ... .. . ... : ... .. . ... : ... .. . ... : ... .. . ...
ROW 48 : ... .. . ... : ... .. 8 ... : B-4 08 . 250 : 6-# 0D 9 ... : ... .. . ...
ROW 49 : ... .. . ... : ... .. . ... : ... .. . ... : ... .. . ... : ... .. . ...
ROW 4A : F#3 0E 9 ... : ... .. 7 ... : --- .. . ... : ... .. . ... : ... .. . ...
ROW 4B : ... .. . ... : ... .. . ... : ... .. . ... : ... .. . ... : ... .. . ...
ROW 4C : C#3 0E 5 ... : ... .. 6 ... : ... .. . ... : C-# 0C F ... : ... .. . ...
ROW 4D : ... .. . ... : ... .. 5 ... : ... .. . ... : ... .. . ... : ... .. . ...
ROW 4E : F#2 0F . ... : ... .. 4 ... : ... .. . ... : ... .. . ... : ... .. . ...
ROW 4F : ... .. . ... : ... .. . ... : ... .. . ... : ... .. . ... : ... .. . ...
ROW 50 : F#3 0E 9 ... : ... .. 1 ... : B-4 08 . 250 : C-# 0C . ... : ... .. . ...
ROW 51 : ... .. . ... : ... .. . ... : ... .. . ... : ... .. . ... : ... .. . ...
ROW 52 : F#3 0F 7 ... : --- .. 5 ... : --- .. . ... : ... .. . ... : ... .. . ...
ROW 53 : ... .. . ... : ... .. . ... : ... .. . ... : ... .. . ... : ... .. . ...
ROW 54 : --- .. . ... : A-2 0E . ... : ... .. . ... : C-# 0C . ... : ... .. . ...
ROW 55 : ... .. . ... : ... .. . ... : ... .. . ... : ... .. . ... : ... .. . ...
ROW 56 : F#3 0E 9 ... : C#3 0E 6 ... : ... .. . ... : ... .. . ... : ... .. . ...
ROW 57 : ... .. . ... : ... .. . ... : ... .. . ... : ... .. . ... : ... .. . ...
ROW 58 : F#3 0E 7 ... : --- .. 5 ... : B-4 08 . 250 : 6-# 0D 9 ... : ... .. . ...
ROW 59 : ... .. . ... : ... .. . ... : ... .. . ... : ... .. . ... : ... .. . ...
ROW 5A : --- .. . ... : A-2 0E . ... : --- .. . ... : ... .. . ... : ... .. . ...
ROW 5B : ... .. . ... : ... .. . ... : ... .. . ... : ... .. . ... : ... .. . ...
ROW 5C : F#3 0E 9 ... : C#3 0E 6 ... : ... .. . ... : C-# 0C F ... : ... .. . ...
ROW 5D : ... .. . ... : ... .. . ... : ... .. . ... : ... .. . ... : ... .. . ...
ROW 5E : --- .. . ... : A-2 0F . ... : ... .. . ... : C-# 0C F ... : ... .. . ...
ROW 5F : ... .. . ... : ... .. . ... : ... .. . ... : ... .. . ... : ... .. . ...
ROW 60 : E-2 0F 7 ... : G#2 0F 5 V05 : B-4 08 . 250 : C-# 0C . ... : ... .. . ...
ROW 61 : ... .. . ... : ... .. . ... : ... .. . ... : ... .. . ... : ... .. . ...
ROW 62 : E-2 0F . ... : G#2 0F . ... : --- .. . ... : ... .. . ... : ... .. . ...
ROW 63 : ... .. . ... : ... .. . ... : ... .. . ... : ... .. . ... : ... .. . ...
ROW 64 : E-3 0E 7 V05 : B-2 0E 5 ... : ... .. . ... : C-# 0C . ... : ... .. . ...
ROW 65 : ... .. . ... : ... .. . ... : ... .. . ... : ... .. . ... : ... .. . ...
ROW 66 : E-2 0F . ... : G#2 0F . ... : ... .. . ... : ... .. . ... : ... .. . ...
ROW 67 : ... .. . ... : ... .. . ... : ... .. . ... : ... .. . ... : ... .. . ...
ROW 68 : ... .. . ... : G#2 0F . ... : B-4 08 . 250 : 6-# 0D 9 ... : ... .. . ...
ROW 69 : ... .. . ... : ... .. . ... : ... .. . ... : ... .. . ... : ... .. . ...
ROW 6A : E-3 0E 9 ... : B-2 0E 6 ... : --- .. . ... : ... .. . ... : ... .. . ...
ROW 6B : ... .. . ... : ... .. . ... : ... .. . ... : ... .. . ... : ... .. . ...
ROW 6C : B-2 0E 5 ... : G#2 0E 3 ... : ... .. . ... : C-# 0C F ... : ... .. . ...
ROW 6D : ... .. . ... : ... .. . ... : ... .. . ... : ... .. . ... : ... .. . ...
ROW 6E : E-2 0F . ... : G#2 0E 6 ... : ... .. . ... : ... .. . ... : ... .. . ...
ROW 6F : ... .. . ... : ... .. . ... : ... .. . ... : ... .. . ... : ... .. . ...
ROW 70 : E-3 0E 9 ... : B-2 0E 6 ... : B-4 08 . 250 : C-# 0C . ... : ... .. . ...
ROW 71 : ... .. . ... : ... .. . ... : ... .. . ... : ... .. . ... : ... .. . ...
ROW 72 : E-3 0F 7 ... : --- .. 5 ... : --- .. . ... : ... .. . ... : ... .. . ...
ROW 73 : ... .. . ... : ... .. . ... : ... .. . ... : ... .. . ... : ... .. . ...
ROW 74 : --- .. . ... : G#2 0E . ... : ... .. . ... : C-# 0C . ... : ... .. . ...
ROW 75 : ... .. . ... : ... .. . ... : ... .. . ... : ... .. . ... : ... .. . ...
ROW 76 : E-3 0E 9 ... : B-2 0E 6 ... : ... .. . ... : ... .. . ... : ... .. . ...
ROW 77 : ... .. . ... : ... .. . ... : ... .. . ... : ... .. . ... : ... .. . ...
ROW 78 : E-3 0F 7 ... : --- .. 5 ... : B-4 08 . 250 : 6-# 0D 9 ... : ... .. . ...
ROW 79 : ... .. . ... : ... .. . ... : ... .. . ... : ... .. . ... : ... .. . ...
ROW 7A : --- .. . ... : G#2 0E . ... : --- .. . ... : ... .. . ... : ... .. . ...
ROW 7B : ... .. . ... : ... .. . ... : ... .. . ... : ... .. . ... : ... .. . ...
ROW 7C : E-3 0E 9 ... : B-2 0E 6 ... : ... .. . ... : C-# 0C F ... : ... .. . ...
ROW 7D : ... .. . ... : ... .. . ... : ... .. . ... : ... .. . ... : ... .. . ...
ROW 7E : --- .. . ... : G#2 0F . ... : ... .. . ... : C-# 0C F ... : ... .. . ...
ROW 7F : ... .. . ... : ... .. . ... : ... .. . ... : ... .. . ... : ... .. . ...

TRACK 128   4 160 "GetLucky2_NR"
COLUMNS : 1 1 1 1 1

ORDER 00 : 00 00 00 00 00
ORDER 01 : 01 01 01 01 01
ORDER 02 : 02 02 02 02 02
ORDER 03 : 03 03 03 03 03
ORDER 04 : 04 04 04 04 04
ORDER 05 : 05 05 05 05 05

PATTERN 00
ROW 00 : D-4 11 9 V01 : D-3 10 A V03 : B-4 08 . 250 : F-# 0C F ... : ... .. . ...
ROW 01 : ... .. . ... : ... .. 9 ... : ... .. . ... : ... .. 9 ... : ... .. . ...
ROW 02 : ... .. . ... : ... .. . ... : --- 08 . 200 : ... .. 8 ... : ... .. . ...
ROW 03 : ... .. . ... : ... .. 8 ... : ... .. . ... : ... .. 7 ... : ... .. . ...
ROW 04 : ... .. . ... : D-3 0E 5 V05 : ... .. . ... : C-# 0C . ... : ... .. . ...
ROW 05 : ... .. . ... : ... .. . ... : ... .. . ... : ... .. . ... : ... .. . ...
ROW 06 : ... .. 8 ... : D-3 10 . V03 : ... .. . ... : ... .. . ... : ... .. . ...
ROW 07 : ... .. . ... : ... .. . ... : ... .. . ... : ... .. . ... : ... .. . ...
ROW 08 : ... .. 6 ... : ... .. . ... : B-4 08 . 250 : 6-# 0D 9 ... : ... .. . ...
ROW 09 : ... .. 5 ... : ... .. . ... : ... .. . ... : ... .. . ... : ... .. . ...
ROW 0A : ... .. . ... : D-3 0E 5 V05 : --- 08 . 200 : ... .. . ... : ... .. . ...
ROW 0B : ... .. 4 ... : ... .. . ... : ... .. . ... : ... .. . ... : ... .. . ...
ROW 0C : ... .. . ... : D-3 10 3 V03 : ... .. . ... : C-# 0C F ... : ... .. . ...
ROW 0D : ... .. 3 ... : ... .. . ... : ... .. . ... : ... .. . ... : ... .. . ...
ROW 0E : ... .. . ... : B-2 0E 5 V05 : ... .. . ... : ... .. . ... : ... .. . ...
ROW 0F : ... .. 2 ... : ... .. . ... : ... .. . ... : ... .. . ... : ... .. . ...
ROW 10 : --- .. . ... : D-3 0E 5 V05 : B-4 08 . 250 : C-# 0C . ... : ... .. . ...
ROW 11 : ... .. . ... : ... .. . ... : ... .. . ... : ... .. . ... : ... .. . ...
ROW 12 : ... .. . ... : D-3 10 2 V03 : --- .. . ... : ... .. . ... : ... .. . ...
ROW 13 : ... .. . ... : ... .. . ... : ... .. . ... : ... .. . ... : ... .. . ...
ROW 14 : C#4 11 9 400 : ... .. . ... : ... .. . ... : C-# 0C . ... : ... .. . ...
ROW 15 : ... .. . ... : ... .. . ... : ... .. . ... : ... .. . ... : ... .. . ...
ROW 16 : ... .. 8 ... : D-3 0E 5 V05 : ... .. . ... : ... .. . ... : ... .. . ...
ROW 17 : ... .. 7 ... : ... .. . ... : ... .. . ... : ... .. . ... : ... .. . ...
ROW 18 : D-4 11 9 ... : D-3 10 1 V03 : B-4 08 . 250 : 6-# 0D 9 ... : ... .. . ...
ROW 19 : ... .. . ... : ... .. . ... : ... .. . ... : ... .. . ... : ... .. . ...
ROW 1A : ... .. . ... : ... .. . ... : --- .. . ... : ... .. . ... : ... .. . ...
ROW 1B : ... .. . ... : ... .. . ... : ... .. . ... : ... .. . ... : ... .. . ...
ROW 1C : ... .. . Q24 : D-3 0E 5 V05 : ... .. . ... : C-# 0C F ... : ... .. . ...
ROW 1D : ... .. . ... : ... .. . ... : ... .. . ... : ... .. . ... : ... .. . ...
ROW 1E : ... .. . ... : D-3 10 1 V03 : ... .. . ... : C-# 0C F ... : ... .. . ...
ROW 1F : ... .. . ... : ... .. . ... : ... .. . ... : ... .. . ... : ... .. . ...
ROW 20 : ... .. . ... : D-3 10 A V03 : B-4 08 . 250 : C-# 0C . ... : ... .. . ...
ROW 21 : ... .. . ... : ... .. 9 ... : ... .. . ... : ... .. . ... : ... .. . ...
ROW 22 : ... .. . ... : ... .. . ... : --- .. . ... : ... .. . ... : ... .. . ...
ROW 23 : ... .. . ... : ... .. 8 ... : ... .. . ... : ... .. . ... : ... .. . ...
ROW 24 : ... .. 8 ... : D-3 0E 5 V05 : ... .. . ... : C-# 0C . ... : ... .. . ...
ROW 25 : ... .. . ... : ... .. . ... : ... .. . ... : ... .. . ... : ... .. . ...
ROW 26 : ... .. 7 ... : D-3 10 . V03 : ... .. . ... : ... .. . ... : ... .. . ...
ROW 27 : ... .. . ... : ... .. . ... : ... .. . ... : ... .. . ... : ... .. . ...
ROW 28 : ... .. 6 ... : ... .. . ... : B-4 08 . 250 : 6-# 0D 9 ... : ... .. . ...
ROW 29 : ... .. . ... : ... .. . ... : ... .. . ... : ... .. . ... : ... .. . ...
ROW 2A : ... .. 5 ... : D-3 0E 5 V05 : --- .. . ... : ... .. . ... : ... .. . ...
ROW 2B : ... .. . ... : ... .. . ... : ... .. . ... : ... .. . ... : ... .. . ...
ROW 2C : ... .. 4 ... : D-3 10 3 V03 : ... .. . ... : C-# 0C F ... : ... .. . ...
ROW 2D : ... .. . ... : ... .. . ... : ... .. . ... : ... .. . ... : ... .. . ...
ROW 2E : --- .. . ... : B-2 0E 5 V05 : ... .. . ... : ... .. . ... : ... .. . ...
ROW 2F : ... .. . ... : ... .. . ... : ... .. . ... : ... .. . ... : ... .. . ...
ROW 30 : ... .. . ... : D-3 0E 5 V05 : B-4 08 . 250 : C-# 0C . ... : ... .. . ...
ROW 31 : ... .. . ... : ... .. . ... : ... .. . ... : ... .. . ... : ... .. . ...
ROW 32 : ... .. . ... : D-3 10 2 V03 : --- .. . ... : ... .. . ... : ... .. . ...
ROW 33 : ... .. . ... : ... .. . ... : ... .. . ... : ... .. . ... : ... .. . ...
ROW 34 : F#4 11 9 400 : ... .. . ... : ... .. . ... : C-# 0C . ... : ... .. . ...
ROW 35 : ... .. . ... : ... .. . ... : ... .. . ... : ... .. . ... : ... .. . ...
ROW 36 : ... .. 8 ... : D-3 0E 5 V05 : ... .. . ... : ... .. . ... : ... .. . ...
ROW 37 : ... .. 7 ... : ... .. . ... : ... .. . ... : ... .. . ... : ... .. . ...
ROW 38 : G#4 11 9 ... : D-3 10 1 V03 : B-4 08 . 250 : 6-# 0D 9 ... : ... .. . ...
ROW 39 : ... .. . ... : ... .. . ... : ... .. . ... : ... .. . ... : ... .. . ...
ROW 3A : ... .. 8 ... : ... .. . ... : --- .. . ... : ... .. . ... : ... .. . ...
ROW 3B : ... .. 7 ... : ... .. . ... : ... .. . ... : ... .. . ... : ... .. . ...
ROW 3C : A-4 11 9 ... : D-3 0E 5 V05 : ... .. . ... : C-# 0C F ... : ... .. . ...
ROW 3D : ... .. . ... : ... .. . ... : ... .. . ... : ... .. . ... : ... .. . ...
ROW 3E : ... .. . ... : D-3 10 1 V03 : ... .. . ... : C-# 0C F ... : ... .. . ...
ROW 3F : ... .. . ... : ... .. . ... : ... .. . ... : ... .. . ... : ... .. . ...
ROW 40 : ... .. . ... : C#3 10 A V03 : B-4 08 . 250 : C-# 0C . ... : ... .. . ...
ROW 41 : ... .. . ... : ... .. 9 ... : ... .. . ... : ... .. . ... : ... .. . ...
ROW 42 : ... .. . ... : ... .. . ... : --- .. . ... : ... .. . ... : ... .. . ...
ROW 43 : ... .. . ... : ... .. 8 ... : ... .. . ... : ... .. . ... : ... .. . ...
ROW 44 : ... .. 8 ... : C#3 0E 5 V05 : ... .. . ... : C-# 0C . ... : ... .. . ...
ROW 45 : ... .. . ... : ... .. . ... : ... .. . ... : ... .. . ... : ... .. . ...
ROW 46 : ... .. 7 ... : C#3 10 . V03 : ... .. . ... : ... .. . ... : ... .. . ...
ROW 47 : ... .. . ... : ... .. . ... : ... .. . ... : ... .. . ... : ... .. . ...
ROW 48 : ... .. 6 ... : ... .. . ... : B-4 08 . 250 : 6-# 0D 9 ... : ... .. . ...
ROW 49 : ... .. . ... : ... .. . ... : ... .. . ... : ... .. . ... : ... .. . ...
ROW 4A : ... .. 5 ... : C#3 0E 5 V05 : --- .. . ... : ... .. . ... : ... .. . ...
ROW 4B : ... .. . ... : ... .. . ... : ... .. . ... : ... .. . ... : ... .. . ...
ROW 4C : ... .. 4 ... : C#3 10 3 V03 : ... .. . ... : C-# 0C F ... : ... .. . ...
ROW 4D : ... .. . ... : ... .. . ... : ... .. . ... : ... .. . ... : ... .. . ...
ROW 4E : --- .. . ... : A-2 0E 5 V05 : ... .. . ... : ... .. . ... : ... .. . ...
ROW 4F : ... .. . ... : ... .. . ... : ... .. . ... : ... .. . ... : ... .. . ...
ROW 50 : ... .. . ... : C#3 0E 5 V05 : B-4 08 . 250 : C-# 0C . ... : ... .. . ...
ROW 51 : ... .. . ... : ... .. . ... : ... .. . ... : ... .. . ... : ... .. . ...
ROW 52 : ... .. . ... : C#3 10 2 V03 : --- .. . ... : ... .. . ... : ... .. . ...
ROW 53 : ... .. . ... : ... .. . ... : ... .. . ... : ... .. . ... : ... .. . ...
ROW 54 : A-4 11 9 ... : ... .. . ... : ... .. . ... : C-# 0C . ... : ... .. . ...
ROW 55 : ... .. . ... : ... .. . ... : ... .. . ... : ... .. . ... : ... .. . ...
ROW 56 : ... .. 8 ... : C#3 0E 5 V05 : ... .. . ... : ... .. . ... : ... .. . ...
ROW 57 : ... .. 7 ... : ... .. . ... : ... .. . ... : ... .. . ... : ... .. . ...
ROW 58 : B-4 11 9 ... : C#3 10 1 V03 : B-4 08 . 250 : 6-# 0D 9 ... : ... .. . ...
ROW 59 : ... .. . ... : ... .. . ... : ... .. . ... : ... .. . ... : ... .. . ...
ROW 5A : ... .. 8 ... : ... .. . ... : --- .. . ... : ... .. . ... : ... .. . ...
ROW 5B : ... .. 7 ... : ... .. . ... : ... .. . ... : ... .. . ... : ... .. . ...
ROW 5C : G#4 11 9 ... : C#3 0E 5 V05 : ... .. . ... : C-# 0C F ... : ... .. . ...
ROW 5D : ... .. . ... : ... .. . ... : ... .. . ... : ... .. . ... : ... .. . ...
ROW 5E : ... .. . ... : C#3 10 1 V03 : ... .. . ... : C-# 0C F ... : ... .. . ...
ROW 5F : ... .. . ... : ... .. . ... : ... .. . ... : ... .. . ... : ... .. . ...
ROW 60 : ... .. . ... : B-2 10 A V03 : B-4 08 . 250 : C-# 0C . ... : ... .. . ...
ROW 61 : ... .. . ... : ... .. 9 ... : ... .. . ... : ... .. . ... : ... .. . ...
ROW 62 : ... .. . ... : ... .. . ... : --- .. . ... : ... .. . ... : ... .. . ...
ROW 63 : ... .. . ... : ... .. 8 ... : ... .. . ... : ... .. . ... : ... .. . ...
ROW 64 : ... .. 8 ... : B-2 0E 5 V05 : ... .. . ... : C-# 0C . ... : ... .. . ...
ROW 65 : ... .. . ... : ... .. . ... : ... .. . ... : ... .. . ... : ... .. . ...
ROW 66 : ... .. 7 ... : B-2 10 . V03 : ... .. . ... : ... .. . ... : ... .. . ...
ROW 67 : ... .. 6 ... : ... .. . ... : ... .. . ... : ... .. . ... : ... .. . ...
ROW 68 : ... .. . ... : ... .. . ... : B-4 08 . 250 : 6-# 0D 9 ... : ... .. . ...
ROW 69 : ... .. 5 ... : ... .. . ... : ... .. . ... : ... .. . ... : ... .. . ...
ROW 6A : ... .. . ... : B-2 0E 5 V05 : --- .. . ... : ... .. . ... : ... .. . ...
ROW 6B : ... .. 4 ... : ... .. . ... : ... .. . ... : ... .. . ... : ... .. . ...
ROW 6C : ... .. . ... : B-2 10 3 V03 : ... .. . ... : C-# 0C F ... : ... .. . ...
ROW 6D : ... .. 3 ... : ... .. . ... : ... .. . ... : ... .. . ... : ... .. . ...
ROW 6E : ... .. 2 ... : G#2 0E 5 V05 : ... .. . ... : ... .. . ... : ... .. . ...
ROW 6F : ... .. 1 ... : ... .. . ... : ... .. . ... : ... .. . ... : ... .. . ...
ROW 70 : --- .. . ... : B-2 0E 5 V05 : B-4 08 . 250 : C-# 0C . ... : ... .. . ...
ROW 71 : ... .. . ... : ... .. . ... : ... .. . ... : ... .. . ... : ... .. . ...
ROW 72 : ... .. . ... : B-2 10 2 V03 : --- .. . ... : ... .. . ... : ... .. . ...
ROW 73 : ... .. . ... : ... .. . ... : ... .. . ... : ... .. . ... : ... .. . ...
ROW 74 : ... .. . ... : ... .. . ... : ... .. . ... : C-# 0C . ... : ... .. . ...
ROW 75 : ... .. . ... : ... .. . ... : ... .. . ... : ... .. . ... : ... .. . ...
ROW 76 : ... .. . ... : B-2 0E 5 V05 : ... .. . ... : ... .. . ... : ... .. . ...
ROW 77 : ... .. . ... : ... .. . ... : ... .. . ... : ... .. . ... : ... .. . ...
ROW 78 : ... .. . ... : B-2 10 1 V03 : B-4 08 . 250 : 6-# 0D 9 ... : ... .. . ...
ROW 79 : ... .. . ... : ... .. . ... : ... .. . ... : ... .. . ... : ... .. . ...
ROW 7A : ... .. . ... : ... .. . ... : --- .. . ... : ... .. . ... : ... .. . ...
ROW 7B : ... .. . ... : ... .. . ... : ... .. . ... : ... .. . ... : ... .. . ...
ROW 7C : B-3 11 9 ... : B-2 0E 5 V05 : ... .. . ... : D-# 0C F ... : ... .. . ...
ROW 7D : ... .. 8 ... : ... .. . ... : ... .. . ... : ... .. 9 ... : ... .. . ...
ROW 7E : ... .. 7 ... : B-2 10 1 V03 : ... .. . ... : ... .. 8 ... : ... .. . ...
ROW 7F : ... .. 6 ... : ... .. . ... : ... .. . ... : ... .. 7 ... : ... .. . ...

PATTERN 01
ROW 00 : B-3 11 9 Q23 : D-3 10 A V03 : B-4 08 . 250 : F-# 0C F ... : ... .. . ...
ROW 01 : ... .. . ... : ... .. 9 ... : ... .. . ... : ... .. 9 ... : ... .. . ...
ROW 02 : ... .. . ... : ... .. . ... : --- 08 . 200 : ... .. 8 ... : ... .. . ...
ROW 03 : ... .. . ... : ... .. 8 ... : ... .. . ... : ... .. 7 ... : ... .. . ...
ROW 04 : ... .. . 492 : D-3 0E 5 V05 : ... .. . ... : C-# 0C . ... : ... .. . ...
ROW 05 : ... .. . ... : ... .. . ... : ... .. . ... : ... .. . ... : ... .. . ...
ROW 06 : ... .. 8 ... : D-3 10 . V03 : ... .. . ... : ... .. . ... : ... .. . ...
ROW 07 : ... .. . ... : ... .. . ... : ... .. . ... : ... .. . ... : ... .. . ...
ROW 08 : ... .. 6 ... : ... .. . ... : B-4 08 . 250 : 6-# 0D 9 ... : ... .. . ...
ROW 09 : ... .. 5 ... : ... .. . ... : ... .. . ... : ... .. . ... : ... .. . ...
ROW 0A : ... .. . ... : D-3 0E 5 V05 : --- 08 . 200 : ... .. . ... : ... .. . ...
ROW 0B : ... .. 4 ... : ... .. . ... : ... .. . ... : ... .. . ... : ... .. . ...
ROW 0C : ... .. . ... : D-3 10 3 V03 : ... .. . ... : C-# 0C F ... : ... .. . ...
ROW 0D : ... .. 3 ... : ... .. . ... : ... .. . ... : ... .. . ... : ... .. . ...
ROW 0E : ... .. . ... : B-2 0E 5 V05 : ... .. . ... : ... .. . ... : ... .. . ...
ROW 0F : ... .. 2 ... : ... .. . ... : ... .. . ... : ... .. . ... : ... .. . ...
ROW 10 : --- .. . ... : D-3 0E 5 V05 : B-4 08 . 250 : C-# 0C . ... : ... .. . ...
ROW 11 : ... .. . ... : ... .. . ... : ... .. . ... : ... .. . ... : ... .. . ...
ROW 12 : ... .. . ... : D-3 10 2 V03 : --- .. . ... : ... .. . ... : ... .. . ...
ROW 13 : ... .. . ... : ... .. . ... : ... .. . ... : ... .. . ... : ... .. . ...
ROW 14 : C#4 11 9 400 : ... .. . ... : ... .. . ... : C-# 0C . ... : ... .. . ...
ROW 15 : ... .. . ... : ... .. . ... : ... .. . ... : ... .. . ... : ... .. . ...
ROW 16 : ... .. 8 ... : D-3 0E 5 V05 : ... .. . ... : ... .. . ... : ... .. . ...
ROW 17 : ... .. 7 ... : ... .. . ... : ... .. . ... : ... .. . ... : ... .. . ...
ROW 18 : D-4 11 9 ... : D-3 10 1 V03 : B-4 08 . 250 : 6-# 0D 9 ... : ... .. . ...
ROW 19 : ... .. . ... : ... .. . ... : ... .. . ... : ... .. . ... : ... .. . ...
ROW 1A : ... .. . ... : ... .. . ... : --- .. . ... : ... .. . ... : ... .. . ...
ROW 1B : ... .. . ... : ... .. . ... : ... .. . ... : ... .. . ... : ... .. . ...
ROW 1C : ... .. . Q24 : D-3 0E 5 V05 : ... .. . ... : C-# 0C F ... : ... .. . ...
ROW 1D : ... .. . ... : ... .. . ... : ... .. . ... : ... .. . ... : ... .. . ...
ROW 1E : ... .. . ... : D-3 10 1 V03 : ... .. . ... : C-# 0C F ... : ... .. . ...
ROW 1F : ... .. . ... : ... .. . ... : ... .. . ... : ... .. . ... : ... .. . ...
ROW 20 : ... .. . ... : D-3 10 A V03 : B-4 08 . 250 : C-# 0C . ... : ... .. . ...
ROW 21 : ... .. . ... : ... .. 9 ... : ... .. . ... : ... .. . ... : ... .. . ...
ROW 22 : ... .. . ... : ... .. . ... : --- .. . ... : ... .. . ... : ... .. . ...
ROW 23 : ... .. . ... : ... .. 8 ... : ... .. . ... : ... .. . ... : ... .. . ...
ROW 24 : ... .. 8 ... : D-3 0E 5 V05 : ... .. . ... : C-# 0C . ... : ... .. . ...
ROW 25 : ... .. . ... : ... .. . ... : ... .. . ... : ... .. . ... : ... .. . ...
ROW 26 : ... .. 7 ... : D-3 10 . V03 : ... .. . ... : ... .. . ... : ... .. . ...
ROW 27 : ... .. . ... : ... .. . ... : ... .. . ... : ... .. . ... : ... .. . ...
ROW 28 : ... .. 6 ... : ... .. . ... : B-4 08 . 250 : 6-# 0D 9 ... : ... .. . ...
ROW 29 : ... .. . ... : ... .. . ... : ... .. . ... : ... .. . ... : ... .. . ...
ROW 2A : ... .. 5 ... : D-3 0E 5 V05 : --- .. . ... : ... .. . ... : ... .. . ...
ROW 2B : ... .. . ... : ... .. . ... : ... .. . ... : ... .. . ... : ... .. . ...
ROW 2C : ... .. 4 ... : D-3 10 3 V03 : ... .. . ... : C-# 0C F ... : ... .. . ...
ROW 2D : ... .. . ... : ... .. . ... : ... .. . ... : ... .. . ... : ... .. . ...
ROW 2E : --- .. . ... : B-2 0E 5 V05 : ... .. . ... : ... .. . ... : ... .. . ...
ROW 2F : ... .. . ... : ... .. . ... : ... .. . ... : ... .. . ... : ... .. . ...
ROW 30 : ... .. . ... : D-3 0E 5 V05 : B-4 08 . 250 : C-# 0C . ... : ... .. . ...
ROW 31 : ... .. . ... : ... .. . ... : ... .. . ... : ... .. . ... : ... .. . ...
ROW 32 : ... .. . ... : D-3 10 2 V03 : --- .. . ... : ... .. . ... : ... .. . ...
ROW 33 : ... .. . ... : ... .. . ... : ... .. . ... : ... .. . ... : ... .. . ...
ROW 34 : F#4 11 9 400 : ... .. . ... : ... .. . ... : C-# 0C . ... : ... .. . ...
ROW 35 : ... .. . ... : ... .. . ... : ... .. . ... : ... .. . ... : ... .. . ...
ROW 36 : ... .. 8 ... : D-3 0E 5 V05 : ... .. . ... : ... .. . ... : ... .. . ...
ROW 37 : ... .. 7 ... : ... .. . ... : ... .. . ... : ... .. . ... : ... .. . ...
ROW 38 : G#4 11 9 ... : D-3 10 1 V03 : B-4 08 . 250 : 6-# 0D 9 ... : ... .. . ...
ROW 39 : ... .. . ... : ... .. . ... : ... .. . ... : ... .. . ... : ... .. . ...
ROW 3A : ... .. 8 ... : ... .. . ... : --- .. . ... : ... .. . ... : ... .. . ...
ROW 3B : ... .. 7 ... : ... .. . ... : ... .. . ... : ... .. . ... : ... .. . ...
ROW 3C : A-4 11 9 ... : D-3 0E 5 V05 : ... .. . ... : C-# 0C F ... : ... .. . ...
ROW 3D : ... .. . ... : ... .. . ... : ... .. . ... : ... .. . ... : ... .. . ...
ROW 3E : ... .. . ... : D-3 10 1 V03 : ... .. . ... : C-# 0C F ... : ... .. . ...
ROW 3F : ... .. . ... : ... .. . ... : ... .. . ... : ... .. . ... : ... .. . ...
ROW 40 : ... .. . ... : C#3 10 A V03 : B-4 08 . 250 : C-# 0C . ... : ... .. . ...
ROW 41 : ... .. . ... : ... .. 9 ... : ... .. . ... : ... .. . ... : ... .. . ...
ROW 42 : ... .. . ... : ... .. . ... : --- .. . ... : ... .. . ... : ... .. . ...
ROW 43 : ... .. . ... : ... .. 8 ... : ... .. . ... : ... .. . ... : ... .. . ...
ROW 44 : ... .. 8 ... : C#3 0E 5 V05 : ... .. . ... : C-# 0C . ... : ... .. . ...
ROW 45 : ... .. . ... : ... .. . ... : ... .. . ... : ... .. . ... : ... .. . ...
ROW 46 : ... .. 7 ... : C#3 10 . V03 : ... .. . ... : ... .. . ... : ... .. . ...
ROW 47 : ... .. . ... : ... .. . ... : ... .. . ... : ... .. . ... : ... .. . ...
ROW 48 : ... .. 6 ... : ... .. . ... : B-4 08 . 250 : 6-# 0D 9 ... : ... .. . ...
ROW 49 : ... .. . ... : ... .. . ... : ... .. . ... : ... .. . ... : ... .. . ...
ROW 4A : ... .. 5 ... : C#3 0E 5 V05 : --- .. . ... : ... .. . ... : ... .. . ...
ROW 4B : ... .. . ... : ... .. . ... : ... .. . ... : ... .. . ... : ... .. . ...
ROW 4C : ... .. 4 ... : C#3 10 3 V03 : ... .. . ... : C-# 0C F ... : ... .. . ...
ROW 4D : ... .. . ... : ... .. . ... : ... .. . ... : ... .. . ... : ... .. . ...
ROW 4E : --- .. . ... : A-2 0E 5 V05 : ... .. . ... : ... .. . ... : ... .. . ...
ROW 4F : ... .. . ... : ... .. . ... : ... .. . ... : ... .. . ... : ... .. . ...
ROW 50 : ... .. . ... : C#3 0E 5 V05 : B-4 08 . 250 : C-# 0C . ... : ... .. . ...
ROW 51 : ... .. . ... : ... .. . ... : ... .. . ... : ... .. . ... : ... .. . ...
ROW 52 : ... .. . ... : C#3 10 2 V03 : --- .. . ... : ... .. . ... : ... .. . ...
ROW 53 : ... .. . ... : ... .. . ... : ... .. . ... : ... .. . ... : ... .. . ...
ROW 54 : F#4 11 9 ... : ... .. . ... : ... .. . ... : C-# 0C . ... : ... .. . ...
ROW 55 : ... .. . ... : ... .. . ... : ... .. . ... : ... .. . ... : ... .. . ...
ROW 56 : ... .. 8 ... : C#3 0E 5 V05 : ... .. . ... : ... .. . ... : ... .. . ...
ROW 57 : ... .. 7 ... : ... .. . ... : ... .. . ... : ... .. . ... : ... .. . ...
ROW 58 : ... .. 9 Q77 : C#3 10 1 V03 : B-4 08 . 250 : 6-# 0D 9 ... : ... .. . ...
ROW 59 : ... .. . ... : ... .. . ... : ... .. . ... : ... .. . ... : ... .. . ...
ROW 5A : ... .. 8 ... : ... .. . ... : --- .. . ... : ... .. . ... : ... .. . ...
ROW 5B : ... .. 7 ... : ... .. . ... : ... .. . ... : ... .. . ... : ... .. . ...
ROW 5C : B-4 11 9 ... : C#3 0E 5 V05 : ... .. . ... : C-# 0C F ... : ... .. . ...
ROW 5D : ... .. . ... : ... .. . ... : ... .. . ... : ... .. . ... : ... .. . ...
ROW 5E : ... .. . ... : C#3 10 1 V03 : ... .. . ... : C-# 0C F ... : ... .. . ...
ROW 5F : ... .. . ... : ... .. . ... : ... .. . ... : ... .. . ... : ... .. . ...
ROW 60 : ... .. . ... : B-2 10 A V03 : B-4 08 . 250 : C-# 0C . ... : ... .. . ...
ROW 61 : ... .. . ... : ... .. 9 ... : ... .. . ... : ... .. . ... : ... .. . ...
ROW 62 : ... .. . ... : ... .. . ... : --- .. . ... : ... .. . ... : ... .. . ...
ROW 63 : ... .. . ... : ... .. 8 ... : ... .. . ... : ... .. . ... : ... .. . ...
ROW 64 : ... .. 8 ... : B-2 0E 5 V05 : ... .. . ... : C-# 0C . ... : ... .. . ...
ROW 65 : ... .. . ... : ... .. . ... : ... .. . ... : ... .. . ... : ... .. . ...
ROW 66 : ... .. 7 ... : B-2 10 . V03 : ... .. . ... : ... .. . ... : ... .. . ...
ROW 67 : ... .. 6 ... : ... .. . ... : ... .. . ... : ... .. . ... : ... .. . ...
ROW 68 : ... .. . ... : ... .. . ... : B-4 08 . 250 : 6-# 0D 9 ... : ... .. . ...
ROW 69 : ... .. 5 ... : ... .. . ... : ... .. . ... : ... .. . ... : ... .. . ...
ROW 6A : ... .. . ... : B-2 0E 5 V05 : --- .. . ... : ... .. . ... : ... .. . ...
ROW 6B : ... .. 4 ... : ... .. . ... : ... .. . ... : ... .. . ... : ... .. . ...
ROW 6C : ... .. . ... : B-2 10 3 V03 : ... .. . ... : C-# 0C F ... : ... .. . ...
ROW 6D : ... .. 3 ... : ... .. . ... : ... .. . ... : ... .. . ... : ... .. . ...
ROW 6E : ... .. . ... : G#2 0E 5 V05 : ... .. . ... : ... .. . ... : ... .. . ...
ROW 6F : ... .. . ... : ... .. . ... : ... .. . ... : ... .. . ... : ... .. . ...
ROW 70 : ... .. . ... : B-2 0E 5 V05 : B-4 08 . 250 : C-# 0C . ... : ... .. . ...
ROW 71 : ... .. . ... : ... .. . ... : ... .. . ... : ... .. . ... : ... .. . ...
ROW 72 : ... .. 2 ... : B-2 10 2 V03 : --- .. . ... : ... .. . ... : ... .. . ...
ROW 73 : ... .. 1 ... : ... .. . ... : ... .. . ... : ... .. . ... : ... .. . ...
ROW 74 : ... .. . ... : ... .. . ... : ... .. . ... : C-# 0C . ... : ... .. . ...
ROW 75 : ... .. . ... : ... .. . ... : ... .. . ... : ... .. . ... : ... .. . ...
ROW 76 : ... .. . ... : B-2 0E 5 V05 : ... .. . ... : ... .. . ... : ... .. . ...
ROW 77 : ... .. . ... : ... .. . ... : ... .. . ... : ... .. . ... : ... .. . ...
ROW 78 : --- .. . ... : B-2 10 1 V03 : B-4 08 . 250 : 6-# 0D 9 ... : ... .. . ...
ROW 79 : ... .. . ... : ... .. . ... : ... .. . ... : ... .. . ... : ... .. . ...
ROW 7A : ... .. . ... : ... .. . ... : --- .. . ... : ... .. . ... : ... .. . ...
ROW 7B : ... .. . ... : ... .. . ... : ... .. . ... : ... .. . ... : ... .. . ...
ROW 7C : ... .. . ... : B-2 0E 5 V05 : ... .. . ... : D-# 0C F ... : ... .. . ...
ROW 7D : ... .. . ... : ... .. . ... : ... .. . ... : ... .. 9 ... : ... .. . ...
ROW 7E : ... .. . ... : B-2 10 1 V03 : ... .. . ... : ... .. 8 ... : ... .. . ...
ROW 7F : ... .. . ... : ... .. . ... : ... .. . ... : ... .. 7 ... : ... .. . ...

PATTERN 02
ROW 00 : --- .. . ... : D-3 10 A V03 : B-4 08 . 250 : F-# 0C F ... : ... .. . ...
ROW 01 : ... .. . ... : ... .. 9 ... : ... .. . ... : ... .. 9 ... : ... .. . ...
ROW 02 : ... .. . ... : ... .. . ... : --- 08 . 200 : ... .. 8 ... : ... .. . ...
ROW 03 : ... .. . ... : ... .. 8 ... : ... .. . ... : ... .. 7 ... : ... .. . ...
ROW 04 : D-4 11 9 V01 : D-3 0E 5 V05 : ... .. . ... : C-# 0C . ... : ... .. . ...
ROW 05 : ... .. 2 ... : ... .. . ... : ... .. . ... : ... .. . ... : ... .. . ...
ROW 06 : D-4 11 9 ... : D-3 10 . V03 : ... .. . ... : ... .. . ... : ... .. . ...
ROW 07 : ... .. 5 ... : ... .. . ... : ... .. . ... : ... .. . ... : ... .. . ...
ROW 08 : --- .. . ... : ... .. . ... : B-4 08 . 250 : 6-# 0D 9 ... : ... .. . ...
ROW 09 : ... .. . ... : ... .. . ... : ... .. . ... : ... .. . ... : ... .. . ...
ROW 0A : D-4 11 9 ... : D-3 0E 5 V05 : --- 08 . 200 : ... .. . ... : ... .. . ...
ROW 0B : ... .. 7 ... : ... .. . ... : ... .. . ... : ... .. . ... : ... .. . ...
ROW 0C : --- .. 5 ... : D-3 10 3 V03 : ... .. . ... : C-# 0C F ... : ... .. . ...
ROW 0D : ... .. . ... : ... .. . ... : ... .. . ... : ... .. . ... : ... .. . ...
ROW 0E : D-4 11 9 ... : B-2 0E 5 V05 : ... .. . ... : ... .. . ... : ... .. . ...
ROW 0F : ... .. 5 ... : ... .. . ... : ... .. . ... : ... .. . ... : ... .. . ...
ROW 10 : --- .. . ... : D-3 0E 5 V05 : B-4 08 . 250 : C-# 0C . ... : ... .. . ...
ROW 11 : ... .. . ... : ... .. . ... : ... .. . ... : ... .. . ... : ... .. . ...
ROW 12 : D-4 11 9 ... : D-3 10 2 V03 : --- .. . ... : ... .. . ... : ... .. . ...
ROW 13 : ... .. 2 ... : ... .. . ... : ... .. . ... : ... .. . ... : ... .. . ...
ROW 14 : D-4 11 9 ... : ... .. . ... : ... .. . ... : C-# 0C . ... : ... .. . ...
ROW 15 : ... .. 5 ... : ... .. . ... : ... .. . ... : ... .. . ... : ... .. . ...
ROW 16 : --- .. . ... : D-3 0E 5 V05 : ... .. . ... : ... .. . ... : ... .. . ...
ROW 17 : ... .. . ... : ... .. . ... : ... .. . ... : ... .. . ... : ... .. . ...
ROW 18 : E-4 11 9 ... : D-3 10 1 V03 : B-4 08 . 250 : 6-# 0D 9 ... : ... .. . ...
ROW 19 : ... .. . ... : ... .. . ... : ... .. . ... : ... .. . ... : ... .. . ...
ROW 1A : ... .. 8 ... : ... .. . ... : --- .. . ... : ... .. . ... : ... .. . ...
ROW 1B : ... .. 7 ... : ... .. . ... : ... .. . ... : ... .. . ... : ... .. . ...
ROW 1C : ... .. 6 ... : D-3 0E 5 V05 : ... .. . ... : C-# 0C F ... : ... .. . ...
ROW 1D : ... .. 5 ... : ... .. . ... : ... .. . ... : ... .. . ... : ... .. . ...
ROW 1E : ... .. 4 ... : D-3 10 1 V03 : ... .. . ... : C-# 0C F ... : ... .. . ...
ROW 1F : ... .. 3 ... : ... .. . ... : ... .. . ... : ... .. . ... : ... .. . ...
ROW 20 : --- .. . ... : D-3 10 A V03 : B-4 08 . 250 : C-# 0C . ... : ... .. . ...
ROW 21 : ... .. . ... : ... .. 9 ... : ... .. . ... : ... .. . ... : ... .. . ...
ROW 22 : ... .. . ... : ... .. . ... : --- .. . ... : ... .. . ... : ... .. . ...
ROW 23 : ... .. . ... : ... .. 8 ... : ... .. . ... : ... .. . ... : ... .. . ...
ROW 24 : D-4 11 9 V01 : D-3 0E 5 V05 : ... .. . ... : C-# 0C . ... : ... .. . ...
ROW 25 : ... .. 2 ... : ... .. . ... : ... .. . ... : ... .. . ... : ... .. . ...
ROW 26 : D-4 11 9 ... : D-3 10 . V03 : ... .. . ... : ... .. . ... : ... .. . ...
ROW 27 : ... .. 5 ... : ... .. . ... : ... .. . ... : ... .. . ... : ... .. . ...
ROW 28 : --- .. . ... : ... .. . ... : B-4 08 . 250 : 6-# 0D 9 ... : ... .. . ...
ROW 29 : ... .. . ... : ... .. . ... : ... .. . ... : ... .. . ... : ... .. . ...
ROW 2A : D-4 11 9 ... : D-3 0E 5 V05 : --- .. . ... : ... .. . ... : ... .. . ...
ROW 2B : ... .. 7 ... : ... .. . ... : ... .. . ... : ... .. . ... : ... .. . ...
ROW 2C : --- .. 5 ... : D-3 10 3 V03 : ... .. . ... : C-# 0C F ... : ... .. . ...
ROW 2D : ... .. . ... : ... .. . ... : ... .. . ... : ... .. . ... : ... .. . ...
ROW 2E : D-4 11 9 ... : B-2 0E 5 V05 : ... .. . ... : ... .. . ... : ... .. . ...
ROW 2F : ... .. 5 ... : ... .. . ... : ... .. . ... : ... .. . ... : ... .. . ...
ROW 30 : --- .. . ... : D-3 0E 5 V05 : B-4 08 . 250 : C-# 0C . ... : ... .. . ...
ROW 31 : ... .. . ... : ... .. . ... : ... .. . ... : ... .. . ... : ... .. . ...
ROW 32 : D-4 11 9 ... : D-3 10 2 V03 : --- .. . ... : ... .. . ... : ... .. . ...
ROW 33 : ... .. 2 ... : ... .. . ... : ... .. . ... : ... .. . ... : ... .. . ...
ROW 34 : D-4 11 9 ... : ... .. . ... : ... .. . ... : C-# 0C . ... : ... .. . ...
ROW 35 : ... .. 5 ... : ... .. . ... : ... .. . ... : ... .. . ... : ... .. . ...
ROW 36 : --- .. . ... : D-3 0E 5 V05 : ... .. . ... : ... .. . ... : ... .. . ...
ROW 37 : ... .. . ... : ... .. . ... : ... .. . ... : ... .. . ... : ... .. . ...
ROW 38 : E-4 11 9 ... : D-3 10 1 V03 : B-4 08 . 250 : 6-# 0D 9 ... : ... .. . ...
ROW 39 : ... .. . ... : ... .. . ... : ... .. . ... : ... .. . ... : ... .. . ...
ROW 3A : ... .. 8 ... : ... .. . ... : --- .. . ... : ... .. . ... : ... .. . ...
ROW 3B : ... .. 7 ... : ... .. . ... : ... .. . ... : ... .. . ... : ... .. . ...
ROW 3C : ... .. 6 ... : D-3 0E 5 V05 : ... .. . ... : C-# 0C F ... : ... .. . ...
ROW 3D : ... .. 5 ... : ... .. . ... : ... .. . ... : ... .. . ... : ... .. . ...
ROW 3E : ... .. 4 ... : D-3 10 1 V03 : ... .. . ... : C-# 0C F ... : ... .. . ...
ROW 3F : ... .. 3 ... : ... .. . ... : ... .. . ... : ... .. . ... : ... .. . ...
ROW 40 : --- .. . ... : C#3 10 A V03 : B-4 08 . 250 : C-# 0C . ... : ... .. . ...
ROW 41 : ... .. . ... : ... .. 9 ... : ... .. . ... : ... .. . ... : ... .. . ...
ROW 42 : ... .. . ... : ... .. . ... : --- .. . ... : ... .. . ... : ... .. . ...
ROW 43 : ... .. . ... : ... .. 8 ... : ... .. . ... : ... .. . ... : ... .. . ...
ROW 44 : C#4 11 9 V01 : C#3 0E 5 V05 : ... .. . ... : C-# 0C . ... : ... .. . ...
ROW 45 : ... .. 2 ... : ... .. . ... : ... .. . ... : ... .. . ... : ... .. . ...
ROW 46 : C#4 11 9 ... : C#3 10 . V03 : ... .. . ... : ... .. . ... : ... .. . ...
ROW 47 : ... .. 5 ... : ... .. . ... : ... .. . ... : ... .. . ... : ... .. . ...
ROW 48 : --- .. . ... : ... .. . ... : B-4 08 . 250 : 6-# 0D 9 ... : ... .. . ...
ROW 49 : ... .. . ... : ... .. . ... : ... .. . ... : ... .. . ... : ... .. . ...
ROW 4A : C#4 11 9 ... : C#3 0E 5 V05 : --- .. . ... : ... .. . ... : ... .. . ...
ROW 4B : ... .. 7 ... : ... .. . ... : ... .. . ... : ... .. . ... : ... .. . ...
ROW 4C : --- .. 5 ... : C#3 10 3 V03 : ... .. . ... : C-# 0C F ... : ... .. . ...
ROW 4D : ... .. . ... : ... .. . ... : ... .. . ... : ... .. . ... : ... .. . ...
ROW 4E : C#4 11 9 ... : A-2 0E 5 V05 : ... .. . ... : ... .. . ... : ... .. . ...
ROW 4F : ... .. 5 ... : ... .. . ... : ... .. . ... : ... .. . ... : ... .. . ...
ROW 50 : --- .. . ... : C#3 0E 5 V05 : B-4 08 . 250 : C-# 0C . ... : ... .. . ...
ROW 51 : ... .. . ... : ... .. . ... : ... .. . ... : ... .. . ... : ... .. . ...
ROW 52 : C#4 11 9 ... : C#3 10 2 V03 : --- .. . ... : ... .. . ... : ... .. . ...
ROW 53 : ... .. 2 ... : ... .. . ... : ... .. . ... : ... .. . ... : ... .. . ...
ROW 54 : C#4 11 9 ... : ... .. . ... : ... .. . ... : C-# 0C . ... : ... .. . ...
ROW 55 : ... .. 5 ... : ... .. . ... : ... .. . ... : ... .. . ... : ... .. . ...
ROW 56 : --- .. . ... : C#3 0E 5 V05 : ... .. . ... : ... .. . ... : ... .. . ...
ROW 57 : ... .. . ... : ... .. . ... : ... .. . ... : ... .. . ... : ... .. . ...
ROW 58 : E-4 11 9 ... : C#3 10 1 V03 : B-4 08 . 250 : 6-# 0D 9 ... : ... .. . ...
ROW 59 : ... .. . ... : ... .. . ... : ... .. . ... : ... .. . ... : ... .. . ...
ROW 5A : ... .. 8 ... : ... .. . ... : --- .. . ... : ... .. . ... : ... .. . ...
ROW 5B : ... .. 7 ... : ... .. . ... : ... .. . ... : ... .. . ... : ... .. . ...
ROW 5C : ... .. 6 ... : C#3 0E 5 V05 : ... .. . ... : C-# 0C F ... : ... .. . ...
ROW 5D : ... .. 5 ... : ... .. . ... : ... .. . ... : ... .. . ... : ... .. . ...
ROW 5E : ... .. 4 ... : C#3 10 1 V03 : ... .. . ... : C-# 0C F ... : ... .. . ...
ROW 5F : ... .. 3 ... : ... .. . ... : ... .. . ... : ... .. . ... : ... .. . ...
ROW 60 : --- .. . ... : B-2 10 A V03 : B-4 08 . 250 : C-# 0C . ... : ... .. . ...
ROW 61 : ... .. . ... : ... .. 9 ... : ... .. . ... : ... .. . ... : ... .. . ...
ROW 62 : ... .. . ... : ... .. . ... : --- .. . ... : ... .. . ... : ... .. . ...
ROW 63 : ... .. . ... : ... .. 8 ... : ... .. . ... : ... .. . ... : ... .. . ...
ROW 64 : B-3 11 9 V01 : B-2 0E 5 V05 : ... .. . ... : C-# 0C . ... : ... .. . ...
ROW 65 : ... .. 2 ... : ... .. . ... : ... .. . ... : ... .. . ... : ... .. . ...
ROW 66 : B-3 11 9 ... : B-2 10 . V03 : ... .. . ... : ... .. . ... : ... .. . ...
ROW 67 : ... .. 5 ... : ... .. . ... : ... .. . ... : ... .. . ... : ... .. . ...
ROW 68 : --- .. . ... : ... .. . ... : B-4 08 . 250 : 6-# 0D 9 ... : ... .. . ...
ROW 69 : ... .. . ... : ... .. . ... : ... .. . ... : ... .. . ... : ... .. . ...
ROW 6A : B-3 11 9 ... : B-2 0E 5 V05 : --- .. . ... : ... .. . ... : ... .. . ...
ROW 6B : ... .. 7 ... : ... .. . ... : ... .. . ... : ... .. . ... : ... .. . ...
ROW 6C : --- .. 5 ... : B-2 10 3 V03 : ... .. . ... : C-# 0C F ... : ... .. . ...
ROW 6D : ... .. . ... : ... .. . ... : ... .. . ... : ... .. . ... : ... .. . ...
ROW 6E : B-3 11 9 ... : G#2 0E 5 V05 : ... .. . ... : ... .. . ... : ... .. . ...
ROW 6F : ... .. 5 ... : ... .. . ... : ... .. . ... : ... .. . ... : ... .. . ...
ROW 70 : --- .. . ... : B-2 0E 5 V05 : B-4 08 . 250 : C-# 0C . ... : ... .. . ...
ROW 71 : ... .. . ... : ... .. . ... : ... .. . ... : ... .. . ... : ... .. . ...
ROW 72 : B-3 11 9 ... : B-2 10 2 V03 : --- .. . ... : ... .. . ... : ... .. . ...
ROW 73 : ... .. 2 ... : ... .. . ... : ... .. . ... : ... .. . ... : ... .. . ...
ROW 74 : C#4 11 9 ... : ... .. . ... : ... .. . ... : C-# 0C . ... : ... .. . ...
ROW 75 : ... .. 5 ... : ... .. . ... : ... .. . ... : ... .. . ... : ... .. . ...
ROW 76 : --- .. . ... : B-2 0E 5 V05 : ... .. . ... : ... .. . ... : ... .. . ...
ROW 77 : ... .. . ... : ... .. . ... : ... .. . ... : ... .. . ... : ... .. . ...
ROW 78 : B-3 11 9 ... : B-2 10 1 V03 : B-4 08 . 250 : 6-# 0D 9 ... : ... .. . ...
ROW 79 : ... .. . ... : ... .. . ... : ... .. . ... : ... .. . ... : ... .. . ...
ROW 7A : ... .. 8 ... : ... .. . ... : --- .. . ... : ... .. . ... : ... .. . ...
ROW 7B : ... .. 7 ... : ... .. . ... : ... .. . ... : ... .. . ... : ... .. . ...
ROW 7C : A-3 11 9 ... : B-2 0E 5 V05 : ... .. . ... : D-# 0C F ... : ... .. . ...
ROW 7D : ... .. . ... : ... .. . ... : ... .. . ... : ... .. 9 ... : ... .. . ...
ROW 7E : ... .. 8 ... : B-2 10 1 V03 : ... .. . ... : ... .. 8 ... : ... .. . ...
ROW 7F : ... .. 7 ... : ... .. . ... : ... .. . ... : ... .. 7 ... : ... .. . ...

PATTERN 03
ROW 00 : --- .. . ... : D-3 10 A V03 : B-4 08 . 250 : F-# 0C F ... : ... .. . ...
ROW 01 : ... .. . ... : ... .. 9 ... : ... .. . ... : ... .. 9 ... : ... .. . ...
ROW 02 : ... .. . ... : ... .. . ... : --- 08 . 200 : ... .. 8 ... : ... .. . ...
ROW 03 : ... .. . ... : ... .. 8 ... : ... .. . ... : ... .. 7 ... : ... .. . ...
ROW 04 : D-4 11 9 V01 : D-3 0E 5 V05 : ... .. . ... : C-# 0C . ... : ... .. . ...
ROW 05 : ... .. 2 ... : ... .. . ... : ... .. . ... : ... .. . ... : ... .. . ...
ROW 06 : D-4 11 9 ... : D-3 10 . V03 : ... .. . ... : ... .. . ... : ... .. . ...
ROW 07 : ... .. 5 ... : ... .. . ... : ... .. . ... : ... .. . ... : ... .. . ...
ROW 08 : --- .. . ... : ... .. . ... : B-4 08 . 250 : 6-# 0D 9 ... : ... .. . ...
ROW 09 : ... .. . ... : ... .. . ... : ... .. . ... : ... .. . ... : ... .. . ...
ROW 0A : D-4 11 9 ... : D-3 0E 5 V05 : --- 08 . 200 : ... .. . ... : ... .. . ...
ROW 0B : ... .. 7 ... : ... .. . ... : ... .. . ... : ... .. . ... : ... .. . ...
ROW 0C : --- .. 5 ... : D-3 10 3 V03 : ... .. . ... : C-# 0C F ... : ... .. . ...
ROW 0D : ... .. . ... : ... .. . ... : ... .. . ... : ... .. . ... : ... .. . ...
ROW 0E : D-4 11 9 ... : B-2 0E 5 V05 : ... .. . ... : ... .. . ... : ... .. . ...
ROW 0F : ... .. 5 ... : ... .. . ... : ... .. . ... : ... .. . ... : ... .. . ...
ROW 10 : --- .. . ... : D-3 0E 5 V05 : B-4 08 . 250 : C-# 0C . ... : ... .. . ...
ROW 11 : ... .. . ... : ... .. . ... : ... .. . ... : ... .. . ... : ... .. . ...
ROW 12 : D-4 11 9 ... : D-3 10 2 V03 : --- .. . ... : ... .. . ... : ... .. . ...
ROW 13 : ... .. 2 ... : ... .. . ... : ... .. . ... : ... .. . ... : ... .. . ...
ROW 14 : D-4 11 9 ... : ... .. . ... : ... .. . ... : C-# 0C . ... : ... .. . ...
ROW 15 : ... .. 5 ... : ... .. . ... : ... .. . ... : ... .. . ... : ... .. . ...
ROW 16 : --- .. . ... : D-3 0E 5 V05 : ... .. . ... : ... .. . ... : ... .. . ...
ROW 17 : ... .. . ... : ... .. . ... : ... .. . ... : ... .. . ... : ... .. . ...
ROW 18 : E-4 11 9 ... : D-3 10 1 V03 : B-4 08 . 250 : 6-# 0D 9 ... : ... .. . ...
ROW 19 : ... .. . ... : ... .. . ... : ... .. . ... : ... .. . ... : ... .. . ...
ROW 1A : ... .. 8 ... : ... .. . ... : --- .. . ... : ... .. . ... : ... .. . ...
ROW 1B : ... .. 7 ... : ... .. . ... : ... .. . ... : ... .. . ... : ... .. . ...
ROW 1C : ... .. 6 ... : D-3 0E 5 V05 : ... .. . ... : C-# 0C F ... : ... .. . ...
ROW 1D : ... .. 5 ... : ... .. . ... : ... .. . ... : ... .. . ... : ... .. . ...
ROW 1E : ... .. 4 ... : D-3 10 1 V03 : ... .. . ... : C-# 0C F ... : ... .. . ...
ROW 1F : ... .. 3 ... : ... .. . ... : ... .. . ... : ... .. . ... : ... .. . ...
ROW 20 : --- .. . ... : D-3 10 A V03 : B-4 08 . 250 : C-# 0C . ... : ... .. . ...
ROW 21 : ... .. . ... : ... .. 9 ... : ... .. . ... : ... .. . ... : ... .. . ...
ROW 22 : ... .. . ... : ... .. . ... : --- .. . ... : ... .. . ... : ... .. . ...
ROW 23 : ... .. . ... : ... .. 8 ... : ... .. . ... : ... .. . ... : ... .. . ...
ROW 24 : D-4 11 9 V01 : D-3 0E 5 V05 : ... .. . ... : C-# 0C . ... : ... .. . ...
ROW 25 : ... .. 2 ... : ... .. . ... : ... .. . ... : ... .. . ... : ... .. . ...
ROW 26 : D-4 11 9 ... : D-3 10 . V03 : ... .. . ... : ... .. . ... : ... .. . ...
ROW 27 : ... .. 5 ... : ... .. . ... : ... .. . ... : ... .. . ... : ... .. . ...
ROW 28 : --- .. . ... : ... .. . ... : B-4 08 . 250 : 6-# 0D 9 ... : ... .. . ...
ROW 29 : ... .. . ... : ... .. . ... : ... .. . ... : ... .. . ... : ... .. . ...
ROW 2A : D-4 11 9 ... : D-3 0E 5 V05 : --- .. . ... : ... .. . ... : ... .. . ...
ROW 2B : ... .. 7 ... : ... .. . ... : ... .. . ... : ... .. . ... : ... .. . ...
ROW 2C : --- .. 5 ... : D-3 10 3 V03 : ... .. . ... : C-# 0C F ... : ... .. . ...
ROW 2D : ... .. . ... : ... .. . ... : ... .. . ... : ... .. . ... : ... .. . ...
ROW 2E : D-4 11 9 ... : B-2 0E 5 V05 : ... .. . ... : ... .. . ... : ... .. . ...
ROW 2F : ... .. 5 ... : ... .. . ... : ... .. . ... : ... .. . ... : ... .. . ...
ROW 30 : --- .. . ... : D-3 0E 5 V05 : B-4 08 . 250 : C-# 0C . ... : ... .. . ...
ROW 31 : ... .. . ... : ... .. . ... : ... .. . ... : ... .. . ... : ... .. . ...
ROW 32 : D-4 11 9 ... : D-3 10 2 V03 : --- .. . ... : ... .. . ... : ... .. . ...
ROW 33 : ... .. 2 ... : ... .. . ... : ... .. . ... : ... .. . ... : ... .. . ...
ROW 34 : D-4 11 9 ... : ... .. . ... : ... .. . ... : C-# 0C . ... : ... .. . ...
ROW 35 : ... .. 5 ... : ... .. . ... : ... .. . ... : ... .. . ... : ... .. . ...
ROW 36 : --- .. . ... : D-3 0E 5 V05 : ... .. . ... : ... .. . ... : ... .. . ...
ROW 37 : ... .. . ... : ... .. . ... : ... .. . ... : ... .. . ... : ... .. . ...
ROW 38 : E-4 11 9 ... : D-3 10 1 V03 : B-4 08 . 250 : 6-# 0D 9 ... : ... .. . ...
ROW 39 : ... .. . ... : ... .. . ... : ... .. . ... : ... .. . ... : ... .. . ...
ROW 3A : ... .. 8 ... : ... .. . ... : --- .. . ... : ... .. . ... : ... .. . ...
ROW 3B : ... .. 7 ... : ... .. . ... : ... .. . ... : ... .. . ... : ... .. . ...
ROW 3C : ... .. 6 ... : D-3 0E 5 V05 : ... .. . ... : C-# 0C F ... : ... .. . ...
ROW 3D : ... .. 5 ... : ... .. . ... : ... .. . ... : ... .. . ... : ... .. . ...
ROW 3E : ... .. 4 ... : D-3 10 1 V03 : ... .. . ... : C-# 0C F ... : ... .. . ...
ROW 3F : ... .. 3 ... : ... .. . ... : ... .. . ... : ... .. . ... : ... .. . ...
ROW 40 : --- .. . ... : C#3 10 A V03 : B-4 08 . 250 : C-# 0C . ... : ... .. . ...
ROW 41 : ... .. . ... : ... .. 9 ... : ... .. . ... : ... .. . ... : ... .. . ...
ROW 42 : ... .. . ... : ... .. . ... : --- .. . ... : ... .. . ... : ... .. . ...
ROW 43 : ... .. . ... : ... .. 8 ... : ... .. . ... : ... .. . ... : ... .. . ...
ROW 44 : C#4 11 9 V01 : C#3 0E 5 V05 : ... .. . ... : C-# 0C . ... : ... .. . ...
ROW 45 : ... .. 2 ... : ... .. . ... : ... .. . ... : ... .. . ... : ... .. . ...
ROW 46 : C#4 11 9 ... : C#3 10 . V03 : ... .. . ... : ... .. . ... : ... .. . ...
ROW 47 : ... .. 5 ... : ... .. . ... : ... .. . ... : ... .. . ... : ... .. . ...
ROW 48 : --- .. . ... : ... .. . ... : B-4 08 . 250 : 6-# 0D 9 ... : ... .. . ...
ROW 49 : ... .. . ... : ... .. . ... : ... .. . ... : ... .. . ... : ... .. . ...
ROW 4A : C#4 11 9 ... : C#3 0E 5 V05 : --- .. . ... : ... .. . ... : ... .. . ...
ROW 4B : ... .. 7 ... : ... .. . ... : ... .. . ... : ... .. . ... : ... .. . ...
ROW 4C : --- .. 5 ... : C#3 10 3 V03 : ... .. . ... : C-# 0C F ... : ... .. . ...
ROW 4D : ... .. . ... : ... .. . ... : ... .. . ... : ... .. . ... : ... .. . ...
ROW 4E : C#4 11 9 ... : A-2 0E 5 V05 : ... .. . ... : ... .. . ... : ... .. . ...
ROW 4F : ... .. 5 ... : ... .. . ... : ... .. . ... : ... .. . ... : ... .. . ...
ROW 50 : --- .. . ... : C#3 0E 5 V05 : B-4 08 . 250 : C-# 0C . ... : ... .. . ...
ROW 51 : ... .. . ... : ... .. . ... : ... .. . ... : ... .. . ... : ... .. . ...
ROW 52 : C#4 11 9 ... : C#3 10 2 V03 : --- .. . ... : ... .. . ... : ... .. . ...
ROW 53 : ... .. 2 ... : ... .. . ... : ... .. . ... : ... .. . ... : ... .. . ...
ROW 54 : C#4 11 9 ... : ... .. . ... : ... .. . ... : C-# 0C . ... : ... .. . ...
ROW 55 : ... .. 5 ... : ... .. . ... : ... .. . ... : ... .. . ... : ... .. . ...
ROW 56 : --- .. . ... : C#3 0E 5 V05 : ... .. . ... : ... .. . ... : ... .. . ...
ROW 57 : ... .. . ... : ... .. . ... : ... .. . ... : ... .. . ... : ... .. . ...
ROW 58 : E-4 11 9 ... : C#3 10 1 V03 : B-4 08 . 250 : 6-# 0D 9 ... : ... .. . ...
ROW 59 : ... .. . ... : ... .. . ... : ... .. . ... : ... .. . ... : ... .. . ...
ROW 5A : ... .. 8 ... : ... .. . ... : --- .. . ... : ... .. . ... : ... .. . ...
ROW 5B : ... .. 7 ... : ... .. . ... : ... .. . ... : ... .. . ... : ... .. . ...
ROW 5C : ... .. 6 ... : C#3 0E 5 V05 : ... .. . ... : C-# 0C F ... : ... .. . ...
ROW 5D : ... .. 5 ... : ... .. . ... : ... .. . ... : ... .. . ... : ... .. . ...
ROW 5E : ... .. 4 ... : C#3 10 1 V03 : ... .. . ... : C-# 0C F ... : ... .. . ...
ROW 5F : ... .. 3 ... : ... .. . ... : ... .. . ... : ... .. . ... : ... .. . ...
ROW 60 : --- .. . ... : B-2 10 A V03 : B-4 08 . 250 : C-# 0C . ... : ... .. . ...
ROW 61 : ... .. . ... : ... .. 9 ... : ... .. . ... : ... .. . ... : ... .. . ...
ROW 62 : ... .. . ... : ... .. . ... : --- .. . ... : ... .. . ... : ... .. . ...
ROW 63 : ... .. . ... : ... .. 8 ... : ... .. . ... : ... .. . ... : ... .. . ...
ROW 64 : B-3 11 9 V01 : B-2 0E 5 V05 : ... .. . ... : C-# 0C . ... : ... .. . ...
ROW 65 : ... .. 2 ... : ... .. . ... : ... .. . ... : ... .. . ... : ... .. . ...
ROW 66 : B-3 11 9 ... : B-2 10 . V03 : ... .. . ... : ... .. . ... : ... .. . ...
ROW 67 : ... .. 5 ... : ... .. . ... : ... .. . ... : ... .. . ... : ... .. . ...
ROW 68 : --- .. . ... : ... .. . ... : B-4 08 . 250 : 6-# 0D 9 ... : ... .. . ...
ROW 69 : ... .. . ... : ... .. . ... : ... .. . ... : ... .. . ... : ... .. . ...
ROW 6A : B-3 11 9 ... : B-2 0E 5 V05 : --- .. . ... : ... .. . ... : ... .. . ...
ROW 6B : ... .. 7 ... : ... .. . ... : ... .. . ... : ... .. . ... : ... .. . ...
ROW 6C : --- .. 5 ... : B-2 10 3 V03 : ... .. . ... : C-# 0C F ... : ... .. . ...
ROW 6D : ... .. . ... : ... .. . ... : ... .. . ... : ... .. . ... : ... .. . ...
ROW 6E : B-3 11 9 ... : G#2 0E 5 V05 : ... .. . ... : ... .. . ... : ... .. . ...
ROW 6F : ... .. 5 ... : ... .. . ... : ... .. . ... : ... .. . ... : ... .. . ...
ROW 70 : --- .. . ... : B-2 0E 5 V05 : B-4 08 . 250 : C-# 0C . ... : ... .. . ...
ROW 71 : ... .. . ... : ... .. . ... : ... .. . ... : ... .. . ... : ... .. . ...
ROW 72 : B-3 11 9 ... : B-2 10 2 V03 : --- .. . ... : ... .. . ... : ... .. . ...
ROW 73 : ... .. 2 ... : ... .. . ... : ... .. . ... : ... .. . ... : ... .. . ...
ROW 74 : C#4 11 9 ... : ... .. . ... : ... .. . ... : C-# 0C . ... : ... .. . ...
ROW 75 : ... .. 5 ... : ... .. . ... : ... .. . ... : ... .. . ... : ... .. . ...
ROW 76 : --- .. . ... : B-2 0E 5 V05 : ... .. . ... : ... .. . ... : ... .. . ...
ROW 77 : ... .. . ... : ... .. . ... : ... .. . ... : ... .. . ... : ... .. . ...
ROW 78 : B-3 11 9 ... : B-2 10 1 V03 : B-4 08 . 250 : 6-# 0D 9 ... : ... .. . ...
ROW 79 : ... .. . ... : ... .. . ... : ... .. . ... : ... .. . ... : ... .. . ...
ROW 7A : ... .. 8 ... : ... .. . ... : --- .. . ... : ... .. . ... : ... .. . ...
ROW 7B : ... .. 7 ... : ... .. . ... : ... .. . ... : ... .. . ... : ... .. . ...
ROW 7C : A-3 11 9 ... : B-2 0E 5 V05 : ... .. . ... : D-# 0C F ... : ... .. . ...
ROW 7D : ... .. . ... : ... .. . ... : ... .. . ... : ... .. 9 ... : ... .. . ...
ROW 7E : ... .. 8 ... : B-2 10 1 V03 : ... .. . ... : ... .. 8 ... : ... .. . ...
ROW 7F : ... .. 7 ... : ... .. . ... : ... .. . ... : ... .. 7 ... : ... .. . ...

PATTERN 04
ROW 00 : --- .. . ... : D-3 10 A V03 : B-4 08 . 250 : F-# 0C F ... : ... .. . ...
ROW 01 : ... .. . ... : ... .. 9 ... : ... .. . ... : ... .. 9 ... : ... .. . ...
ROW 02 : ... .. . ... : ... .. . ... : --- 08 . 200 : ... .. 8 ... : ... .. . ...
ROW 03 : ... .. . ... : ... .. 8 ... : ... .. . ... : ... .. 7 ... : ... .. . ...
ROW 04 : B-3 11 9 V01 : D-3 0E 5 V05 : ... .. . ... : C-# 0C . ... : ... .. . ...
ROW 05 : ... .. 2 ... : ... .. . ... : ... .. . ... : ... .. . ... : ... .. . ...
ROW 06 : B-3 11 9 ... : D-3 10 . V03 : ... .. . ... : ... .. . ... : ... .. . ...
ROW 07 : ... .. 5 ... : ... .. . ... : ... .. . ... : ... .. . ... : ... .. . ...
ROW 08 : --- .. . ... : ... .. . ... : B-4 08 . 250 : 6-# 0D 9 ... : ... .. . ...
ROW 09 : ... .. . ... : ... .. . ... : ... .. . ... : ... .. . ... : ... .. . ...
ROW 0A : B-3 11 9 ... : D-3 0E 5 V05 : --- 08 . 200 : ... .. . ... : ... .. . ...
ROW 0B : ... .. 7 ... : ... .. . ... : ... .. . ... : ... .. . ... : ... .. . ...
ROW 0C : --- .. 5 ... : D-3 10 3 V03 : ... .. . ... : C-# 0C F ... : ... .. . ...
ROW 0D : ... .. . ... : ... .. . ... : ... .. . ... : ... .. . ... : ... .. . ...
ROW 0E : B-3 11 9 ... : B-2 0E 5 V05 : ... .. . ... : ... .. . ... : ... .. . ...
ROW 0F : ... .. 5 ... : ... .. . ... : ... .. . ... : ... .. . ... : ... .. . ...
ROW 10 : --- .. . ... : D-3 0E 5 V05 : B-4 08 . 250 : C-# 0C . ... : ... .. . ...
ROW 11 : ... .. . ... : ... .. . ... : ... .. . ... : ... .. . ... : ... .. . ...
ROW 12 : B-3 11 9 ... : D-3 10 2 V03 : --- .. . ... : ... .. . ... : ... .. . ...
ROW 13 : ... .. 2 ... : ... .. . ... : ... .. . ... : ... .. . ... : ... .. . ...
ROW 14 : C#4 11 9 ... : ... .. . ... : ... .. . ... : C-# 0C . ... : ... .. . ...
ROW 15 : ... .. 5 ... : ... .. . ... : ... .. . ... : ... .. . ... : ... .. . ...
ROW 16 : --- .. . ... : D-3 0E 5 V05 : ... .. . ... : ... .. . ... : ... .. . ...
ROW 17 : ... .. . ... : ... .. . ... : ... .. . ... : ... .. . ... : ... .. . ...
ROW 18 : B-3 11 9 ... : D-3 10 1 V03 : B-4 08 . 250 : 6-# 0D 9 ... : ... .. . ...
ROW 19 : ... .. . ... : ... .. . ... : ... .. . ... : ... .. . ... : ... .. . ...
ROW 1A : ... .. 8 ... : ... .. . ... : --- .. . ... : ... .. . ... : ... .. . ...
ROW 1B : ... .. 7 ... : ... .. . ... : ... .. . ... : ... .. . ... : ... .. . ...
ROW 1C : A-3 11 9 ... : D-3 0E 5 V05 : ... .. . ... : C-# 0C F ... : ... .. . ...
ROW 1D : ... .. . ... : ... .. . ... : ... .. . ... : ... .. . ... : ... .. . ...
ROW 1E : ... .. 8 ... : D-3 10 1 V03 : ... .. . ... : C-# 0C F ... : ... .. . ...
ROW 1F : ... .. 7 ... : ... .. . ... : ... .. . ... : ... .. . ... : ... .. . ...
ROW 20 : --- .. . ... : D-3 10 A V03 : B-4 08 . 250 : C-# 0C . ... : ... .. . ...
ROW 21 : ... .. . ... : ... .. 9 ... : ... .. . ... : ... .. . ... : ... .. . ...
ROW 22 : ... .. . ... : ... .. . ... : --- .. . ... : ... .. . ... : ... .. . ...
ROW 23 : ... .. . ... : ... .. 8 ... : ... .. . ... : ... .. . ... : ... .. . ...
ROW 24 : B-3 11 9 V01 : D-3 0E 5 V05 : ... .. . ... : C-# 0C . ... : ... .. . ...
ROW 25 : ... .. 2 ... : ... .. . ... : ... .. . ... : ... .. . ... : ... .. . ...
ROW 26 : B-3 11 9 ... : D-3 10 . V03 : ... .. . ... : ... .. . ... : ... .. . ...
ROW 27 : ... .. 5 ... : ... .. . ... : ... .. . ... : ... .. . ... : ... .. . ...
ROW 28 : --- .. . ... : ... .. . ... : B-4 08 . 250 : 6-# 0D 9 ... : ... .. . ...
ROW 29 : ... .. . ... : ... .. . ... : ... .. . ... : ... .. . ... : ... .. . ...
ROW 2A : B-3 11 9 ... : D-3 0E 5 V05 : --- .. . ... : ... .. . ... : ... .. . ...
ROW 2B : ... .. 7 ... : ... .. . ... : ... .. . ... : ... .. . ... : ... .. . ...
ROW 2C : --- .. 5 ... : D-3 10 3 V03 : ... .. . ... : C-# 0C F ... : ... .. . ...
ROW 2D : ... .. . ... : ... .. . ... : ... .. . ... : ... .. . ... : ... .. . ...
ROW 2E : B-3 11 9 ... : B-2 0E 5 V05 : ... .. . ... : ... .. . ... : ... .. . ...
ROW 2F : ... .. 5 ... : ... .. . ... : ... .. . ... : ... .. . ... : ... .. . ...
ROW 30 : --- .. . ... : D-3 0E 5 V05 : B-4 08 . 250 : C-# 0C . ... : ... .. . ...
ROW 31 : ... .. . ... : ... .. . ... : ... .. . ... : ... .. . ... : ... .. . ...
ROW 32 : B-3 11 9 ... : D-3 10 2 V03 : --- .. . ... : ... .. . ... : ... .. . ...
ROW 33 : ... .. 2 ... : ... .. . ... : ... .. . ... : ... .. . ... : ... .. . ...
ROW 34 : C#4 11 9 ... : ... .. . ... : ... .. . ... : C-# 0C . ... : ... .. . ...
ROW 35 : ... .. 5 ... : ... .. . ... : ... .. . ... : ... .. . ... : ... .. . ...
ROW 36 : --- .. . ... : D-3 0E 5 V05 : ... .. . ... : ... .. . ... : ... .. . ...
ROW 37 : ... .. . ... : ... .. . ... : ... .. . ... : ... .. . ... : ... .. . ...
ROW 38 : B-3 11 9 ... : D-3 10 1 V03 : B-4 08 . 250 : 6-# 0D 9 ... : ... .. . ...
ROW 39 : ... .. . ... : ... .. . ... : ... .. . ... : ... .. . ... : ... .. . ...
ROW 3A : ... .. 8 ... : ... .. . ... : --- .. . ... : ... .. . ... : ... .. . ...
ROW 3B : ... .. 7 ... : ... .. . ... : ... .. . ... : ... .. . ... : ... .. . ...
ROW 3C : A-3 11 9 ... : D-3 0E 5 V05 : ... .. . ... : C-# 0C F ... : ... .. . ...
ROW 3D : ... .. . ... : ... .. . ... : ... .. . ... : ... .. . ... : ... .. . ...
ROW 3E : ... .. 8 ... : D-3 10 1 V03 : ... .. . ... : C-# 0C F ... : ... .. . ...
ROW 3F : ... .. 7 ... : ... .. . ... : ... .. . ... : ... .. . ... : ... .. . ...
ROW 40 : --- .. . ... : C#3 10 A V03 : B-4 08 . 250 : C-# 0C . ... : ... .. . ...
ROW 41 : ... .. . ... : ... .. 9 ... : ... .. . ... : ... .. . ... : ... .. . ...
ROW 42 : ... .. . ... : ... .. . ... : --- .. . ... : ... .. . ... : ... .. . ...
ROW 43 : ... .. . ... : ... .. 8 ... : ... .. . ... : ... .. . ... : ... .. . ...
ROW 44 : B-3 11 9 V01 : C#3 0E 5 V05 : ... .. . ... : C-# 0C . ... : ... .. . ...
ROW 45 : ... .. 2 ... : ... .. . ... : ... .. . ... : ... .. . ... : ... .. . ...
ROW 46 : B-3 11 9 ... : C#3 10 . V03 : ... .. . ... : ... .. . ... : ... .. . ...
ROW 47 : ... .. 5 ... : ... .. . ... : ... .. . ... : ... .. . ... : ... .. . ...
ROW 48 : --- .. . ... : ... .. . ... : B-4 08 . 250 : 6-# 0D 9 ... : ... .. . ...
ROW 49 : ... .. . ... : ... .. . ... : ... .. . ... : ... .. . ... : ... .. . ...
ROW 4A : B-3 11 9 ... : C#3 0E 5 V05 : --- .. . ... : ... .. . ... : ... .. . ...
ROW 4B : ... .. 7 ... : ... .. . ... : ... .. . ... : ... .. . ... : ... .. . ...
ROW 4C : --- .. 5 ... : C#3 10 3 V03 : ... .. . ... : C-# 0C F ... : ... .. . ...
ROW 4D : ... .. . ... : ... .. . ... : ... .. . ... : ... .. . ... : ... .. . ...
ROW 4E : B-3 11 9 ... : A-2 0E 5 V05 : ... .. . ... : ... .. . ... : ... .. . ...
ROW 4F : ... .. 5 ... : ... .. . ... : ... .. . ... : ... .. . ... : ... .. . ...
ROW 50 : --- .. . ... : C#3 0E 5 V05 : B-4 08 . 250 : C-# 0C . ... : ... .. . ...
ROW 51 : ... .. . ... : ... .. . ... : ... .. . ... : ... .. . ... : ... .. . ...
ROW 52 : B-3 11 9 ... : C#3 10 2 V03 : --- .. . ... : ... .. . ... : ... .. . ...
ROW 53 : ... .. 2 ... : ... .. . ... : ... .. . ... : ... .. . ... : ... .. . ...
ROW 54 : C#4 11 9 ... : ... .. . ... : ... .. . ... : C-# 0C . ... : ... .. . ...
ROW 55 : ... .. 5 ... : ... .. . ... : ... .. . ... : ... .. . ... : ... .. . ...
ROW 56 : --- .. . ... : C#3 0E 5 V05 : ... .. . ... : ... .. . ... : ... .. . ...
ROW 57 : ... .. . ... : ... .. . ... : ... .. . ... : ... .. . ... : ... .. . ...
ROW 58 : B-3 11 9 ... : C#3 10 1 V03 : B-4 08 . 250 : 6-# 0D 9 ... : ... .. . ...
ROW 59 : ... .. . ... : ... .. . ... : ... .. . ... : ... .. . ... : ... .. . ...
ROW 5A : ... .. 8 ... : ... .. . ... : --- .. . ... : ... .. . ... : ... .. . ...
ROW 5B : ... .. 7 ... : ... .. . ... : ... .. . ... : ... .. . ... : ... .. . ...
ROW 5C : A-3 11 9 ... : C#3 0E 5 V05 : ... .. . ... : C-# 0C F ... : ... .. . ...
ROW 5D : ... .. . ... : ... .. . ... : ... .. . ... : ... .. . ... : ... .. . ...
ROW 5E : ... .. 8 ... : C#3 10 1 V03 : ... .. . ... : C-# 0C F ... : ... .. . ...
ROW 5F : ... .. 7 ... : ... .. . ... : ... .. . ... : ... .. . ... : ... .. . ...
ROW 60 : --- .. . ... : B-2 10 A V03 : B-4 08 . 250 : C-# 0C . ... : ... .. . ...
ROW 61 : ... .. . ... : ... .. 9 ... : ... .. . ... : ... .. . ... : ... .. . ...
ROW 62 : ... .. . ... : ... .. . ... : --- .. . ... : ... .. . ... : ... .. . ...
ROW 63 : ... .. . ... : ... .. 8 ... : ... .. . ... : ... .. . ... : ... .. . ...
ROW 64 : B-3 11 9 V01 : B-2 0E 5 V05 : ... .. . ... : C-# 0C . ... : ... .. . ...
ROW 65 : ... .. 2 ... : ... .. . ... : ... .. . ... : ... .. . ... : ... .. . ...
ROW 66 : B-3 11 9 ... : B-2 10 . V03 : ... .. . ... : ... .. . ... : ... .. . ...
ROW 67 : ... .. 5 ... : ... .. . ... : ... .. . ... : ... .. . ... : ... .. . ...
ROW 68 : --- .. . ... : ... .. . ... : B-4 08 . 250 : 6-# 0D 9 ... : ... .. . ...
ROW 69 : ... .. . ... : ... .. . ... : ... .. . ... : ... .. . ... : ... .. . ...
ROW 6A : B-3 11 9 ... : B-2 0E 5 V05 : --- .. . ... : ... .. . ... : ... .. . ...
ROW 6B : ... .. 7 ... : ... .. . ... : ... .. . ... : ... .. . ... : ... .. . ...
ROW 6C : --- .. 5 ... : B-2 10 3 V03 : ... .. . ... : C-# 0C F ... : ... .. . ...
ROW 6D : ... .. . ... : ... .. . ... : ... .. . ... : ... .. . ... : ... .. . ...
ROW 6E : B-3 11 9 ... : G#2 0E 5 V05 : ... .. . ... : ... .. . ... : ... .. . ...
ROW 6F : ... .. 5 ... : ... .. . ... : ... .. . ... : ... .. . ... : ... .. . ...
ROW 70 : --- .. . ... : B-2 0E 5 V05 : B-4 08 . 250 : C-# 0C . ... : ... .. . ...
ROW 71 : ... .. . ... : ... .. . ... : ... .. . ... : ... .. . ... : ... .. . ...
ROW 72 : B-3 11 9 ... : B-2 10 2 V03 : --- .. . ... : ... .. . ... : ... .. . ...
ROW 73 : ... .. 2 ... : ... .. . ... : ... .. . ... : ... .. . ... : ... .. . ...
ROW 74 : C#4 11 9 ... : ... .. . ... : ... .. . ... : C-# 0C . ... : ... .. . ...
ROW 75 : ... .. 5 ... : ... .. . ... : ... .. . ... : ... .. . ... : ... .. . ...
ROW 76 : --- .. . ... : B-2 0E 5 V05 : ... .. . ... : ... .. . ... : ... .. . ...
ROW 77 : ... .. . ... : ... .. . ... : ... .. . ... : ... .. . ... : ... .. . ...
ROW 78 : B-3 11 9 ... : B-2 10 1 V03 : B-4 08 . 250 : 6-# 0D 9 ... : ... .. . ...
ROW 79 : ... .. . ... : ... .. . ... : ... .. . ... : ... .. . ... : ... .. . ...
ROW 7A : ... .. 8 ... : ... .. . ... : --- .. . ... : ... .. . ... : ... .. . ...
ROW 7B : ... .. 7 ... : ... .. . ... : ... .. . ... : ... .. . ... : ... .. . ...
ROW 7C : A-3 11 9 ... : B-2 0E 5 V05 : ... .. . ... : D-# 0C F ... : ... .. . ...
ROW 7D : ... .. . ... : ... .. . ... : ... .. . ... : ... .. 9 ... : ... .. . ...
ROW 7E : ... .. 8 ... : B-2 10 1 V03 : ... .. . ... : ... .. 8 ... : ... .. . ...
ROW 7F : ... .. 7 ... : ... .. . ... : ... .. . ... : ... .. 7 ... : ... .. . ...

PATTERN 05
ROW 00 : F#3 12 A ... : D-3 10 A V03 : B-4 08 . 250 : F-# 0C F ... : ... .. . ...
ROW 01 : ... .. . ... : ... .. 9 ... : ... .. . ... : ... .. 9 ... : ... .. . ...
ROW 02 : ... .. . ... : ... .. . ... : --- 08 . 200 : ... .. 8 ... : ... .. . ...
ROW 03 : ... .. 9 ... : ... .. 8 ... : ... .. . ... : ... .. 7 ... : ... .. . ...
ROW 04 : ... .. . ... : D-3 0E 5 V05 : ... .. . ... : C-# 0C . ... : ... .. . ...
ROW 05 : ... .. . ... : ... .. . ... : ... .. . ... : ... .. . ... : ... .. . ...
ROW 06 : ... .. . ... : D-3 10 . V03 : ... .. . ... : ... .. . ... : ... .. . ...
ROW 07 : ... .. . ... : ... .. . ... : ... .. . ... : ... .. . ... : ... .. . ...
ROW 08 : ... .. 8 ... : ... .. . ... : B-4 08 . 250 : 6-# 0D 9 ... : ... .. . ...
ROW 09 : ... .. . ... : ... .. . ... : ... .. . ... : ... .. . ... : ... .. . ...
ROW 0A : ... .. 7 ... : D-3 0E 5 V05 : --- 08 . 200 : ... .. . ... : ... .. . ...
ROW 0B : ... .. . ... : ... .. . ... : ... .. . ... : ... .. . ... : ... .. . ...
ROW 0C : ... .. 6 ... : D-3 10 3 V03 : ... .. . ... : C-# 0C F ... : ... .. . ...
ROW 0D : ... .. . ... : ... .. . ... : ... .. . ... : ... .. . ... : ... .. . ...
ROW 0E : ... .. 5 ... : B-2 0E 5 V05 : ... .. . ... : ... .. . ... : ... .. . ...
ROW 0F : ... .. . ... : ... .. . ... : ... .. . ... : ... .. . ... : ... .. . ...
ROW 10 : ... .. 4 ... : D-3 0E 5 V05 : B-4 08 . 250 : C-# 0C . ... : ... .. . ...
ROW 11 : ... .. . ... : ... .. . ... : ... .. . ... : ... .. . ... : ... .. . ...
ROW 12 : ... .. . ... : D-3 10 2 V03 : --- .. . ... : ... .. . ... : ... .. . ...
ROW 13 : ... .. . ... : ... .. . ... : ... .. . ... : ... .. . ... : ... .. . ...
ROW 14 : ... .. . ... : ... .. . ... : ... .. . ... : C-# 0C . ... : ... .. . ...
ROW 15 : ... .. . ... : ... .. . ... : ... .. . ... : ... .. . ... : ... .. . ...
ROW 16 : ... .. . ... : D-3 0E 5 V05 : ... .. . ... : ... .. . ... : ... .. . ...
ROW 17 : ... .. . ... : ... .. . ... : ... .. . ... : ... .. . ... : ... .. . ...
ROW 18 : ... .. . ... : D-3 10 1 V03 : B-4 08 . 250 : 6-# 0D 9 ... : ... .. . ...
ROW 19 : ... .. . ... : ... .. . ... : ... .. . ... : ... .. . ... : ... .. . ...
ROW 1A : ... .. . ... : ... .. . ... : --- .. . ... : ... .. . ... : ... .. . ...
ROW 1B : ... .. . ... : ... .. . ... : ... .. . ... : ... .. . ... : ... .. . ...
ROW 1C : A-3 12 . ... : D-3 0E 5 V05 : ... .. . ... : C-# 0C F ... : ... .. . ...
ROW 1D : ... .. 9 ... : ... .. . ... : ... .. . ... : ... .. . ... : ... .. . ...
ROW 1E : ... .. . ... : D-3 10 1 V03 : ... .. . ... : C-# 0C F ... : ... .. . ...
ROW 1F : ... .. 9 ... : ... .. . ... : ... .. . ... : ... .. . ... : ... .. . ...
ROW 20 : ... .. . ... : D-3 10 A V03 : B-4 08 . 250 : C-# 0C . ... : ... .. . ...
ROW 21 : ... .. . ... : ... .. 9 ... : ... .. . ... : ... .. . ... : ... .. . ...
ROW 22 : ... .. . ... : ... .. . ... : --- .. . ... : ... .. . ... : ... .. . ...
ROW 23 : ... .. . ... : ... .. 8 ... : ... .. . ... : ... .. . ... : ... .. . ...
ROW 24 : ... .. 8 ... : D-3 0E 5 V05 : ... .. . ... : C-# 0C . ... : ... .. . ...
ROW 25 : ... .. . ... : ... .. . ... : ... .. . ... : ... .. . ... : ... .. . ...
ROW 26 : ... .. 7 ... : D-3 10 . V03 : ... .. . ... : ... .. . ... : ... .. . ...
ROW 27 : ... .. . ... : ... .. . ... : ... .. . ... : ... .. . ... : ... .. . ...
ROW 28 : ... .. 6 ... : ... .. . ... : B-4 08 . 250 : 6-# 0D 9 ... : ... .. . ...
ROW 29 : ... .. . ... : ... .. . ... : ... .. . ... : ... .. . ... : ... .. . ...
ROW 2A : ... .. 5 ... : D-3 0E 5 V05 : --- .. . ... : ... .. . ... : ... .. . ...
ROW 2B : ... .. . ... : ... .. . ... : ... .. . ... : ... .. . ... : ... .. . ...
ROW 2C : ... .. 4 ... : D-3 10 3 V03 : ... .. . ... : C-# 0C F ... : ... .. . ...
ROW 2D : ... .. . ... : ... .. . ... : ... .. . ... : ... .. . ... : ... .. . ...
ROW 2E : ... .. . ... : B-2 0E 5 V05 : ... .. . ... : ... .. . ... : ... .. . ...
ROW 2F : ... .. . ... : ... .. . ... : ... .. . ... : ... .. . ... : ... .. . ...
ROW 30 : ... .. . ... : D-3 0E 5 V05 : B-4 08 . 250 : C-# 0C . ... : ... .. . ...
ROW 31 : ... .. . ... : ... .. . ... : ... .. . ... : ... .. . ... : ... .. . ...
ROW 32 : ... .. . ... : D-3 10 2 V03 : --- .. . ... : ... .. . ... : ... .. . ...
ROW 33 : ... .. . ... : ... .. . ... : ... .. . ... : ... .. . ... : ... .. . ...
ROW 34 : ... .. . ... : ... .. . ... : ... .. . ... : C-# 0C . ... : ... .. . ...
ROW 35 : ... .. . ... : ... .. . ... : ... .. . ... : ... .. . ... : ... .. . ...
ROW 36 : ... .. . ... : D-3 0E 5 V05 : ... .. . ... : ... .. . ... : ... .. . ...
ROW 37 : ... .. . ... : ... .. . ... : ... .. . ... : ... .. . ... : ... .. . ...
ROW 38 : ... .. . ... : D-3 10 1 V03 : B-4 08 . 250 : 6-# 0D 9 ... : ... .. . ...
ROW 39 : ... .. . ... : ... .. . ... : ... .. . ... : ... .. . ... : ... .. . ...
ROW 3A : ... .. . ... : ... .. . ... : --- .. . ... : ... .. . ... : ... .. . ...
ROW 3B : ... .. . ... : ... .. . ... : ... .. . ... : ... .. . ... : ... .. . ...
ROW 3C : ... .. . ... : D-3 0E 5 V05 : ... .. . ... : C-# 0C F ... : ... .. . ...
ROW 3D : ... .. . ... : ... .. . ... : ... .. . ... : ... .. . ... : ... .. . ...
ROW 3E : ... .. . ... : D-3 10 1 V03 : ... .. . ... : C-# 0C F ... : ... .. . ...
ROW 3F : ... .. . ... : ... .. . ... : ... .. . ... : ... .. . ... : ... .. . ...
ROW 40 : C#4 12 9 400 : C#3 10 A V03 : B-4 08 . 250 : C-# 0C . ... : ... .. . ...
ROW 41 : ... .. . ... : ... .. 9 ... : ... .. . ... : ... .. . ... : ... .. . ...
ROW 42 : E-4 12 . ... : ... .. . ... : --- .. . ... : ... .. . ... : ... .. . ...
ROW 43 : ... .. . ... : ... .. 8 ... : ... .. . ... : ... .. . ... : ... .. . ...
ROW 44 : C#4 12 . ... : C#3 0E 5 V05 : ... .. . ... : C-# 0C . ... : ... .. . ...
ROW 45 : ... .. . ... : ... .. . ... : ... .. . ... : ... .. . ... : ... .. . ...
ROW 46 : A-3 12 . ... : C#3 10 . V03 : ... .. . ... : ... .. . ... : ... .. . ...
ROW 47 : ... .. . ... : ... .. . ... : ... .. . ... : ... .. . ... : ... .. . ...
ROW 48 : C#4 12 . ... : ... .. . ... : B-4 08 . 250 : 6-# 0D 9 ... : ... .. . ...
ROW 49 : ... .. . ... : ... .. . ... : ... .. . ... : ... .. . ... : ... .. . ...
ROW 4A : A-3 12 . ... : C#3 0E 5 V05 : --- .. . ... : ... .. . ... : ... .. . ...
ROW 4B : ... .. . ... : ... .. . ... : ... .. . ... : ... .. . ... : ... .. . ...
ROW 4C : F#3 12 . ... : C#3 10 3 V03 : ... .. . ... : C-# 0C F ... : ... .. . ...
ROW 4D : ... .. . ... : ... .. . ... : ... .. . ... : ... .. . ... : ... .. . ...
ROW 4E : A-3 12 . ... : A-2 0E 5 V05 : ... .. . ... : ... .. . ... : ... .. . ...
ROW 4F : ... .. . ... : ... .. . ... : ... .. . ... : ... .. . ... : ... .. . ...
ROW 50 : F#3 12 . ... : C#3 0E 5 V05 : B-4 08 . 250 : C-# 0C . ... : ... .. . ...
ROW 51 : ... .. . ... : ... .. . ... : ... .. . ... : ... .. . ... : ... .. . ...
ROW 52 : E-3 12 . ... : C#3 10 2 V03 : --- .. . ... : ... .. . ... : ... .. . ...
ROW 53 : ... .. . ... : ... .. . ... : ... .. . ... : ... .. . ... : ... .. . ...
ROW 54 : F#3 12 . ... : ... .. . ... : ... .. . ... : C-# 0C . ... : ... .. . ...
ROW 55 : ... .. . ... : ... .. . ... : ... .. . ... : ... .. . ... : ... .. . ...
ROW 56 : ... .. . Q53 : C#3 0E 5 V05 : ... .. . ... : ... .. . ... : ... .. . ...
ROW 57 : ... .. . ... : ... .. . ... : ... .. . ... : ... .. . ... : ... .. . ...
ROW 58 : C#4 12 . ... : C#3 10 1 V03 : B-4 08 . 250 : 6-# 0D 9 ... : ... .. . ...
ROW 59 : ... .. . ... : ... .. . ... : ... .. . ... : ... .. . ... : ... .. . ...
ROW 5A : --- .. . ... : ... .. . ... : --- .. . ... : ... .. . ... : ... .. . ...
ROW 5B : ... .. . ... : ... .. . ... : ... .. . ... : ... .. . ... : ... .. . ...
ROW 5C : B-3 12 . 400 : C#3 0E 5 V05 : ... .. . ... : C-# 0C F ... : ... .. . ...
ROW 5D : ... .. . ... : ... .. . ... : ... .. . ... : ... .. . ... : ... .. . ...
ROW 5E : ... .. . ... : C#3 10 1 V03 : ... .. . ... : C-# 0C F ... : ... .. . ...
ROW 5F : ... .. . ... : ... .. . ... : ... .. . ... : ... .. . ... : ... .. . ...
ROW 60 : ... .. . ... : B-2 10 A V03 : B-4 08 . 250 : C-# 0C . ... : ... .. . ...
ROW 61 : ... .. . ... : ... .. 9 ... : ... .. . ... : ... .. . ... : ... .. . ...
ROW 62 : ... .. . ... : ... .. . ... : --- .. . ... : ... .. . ... : ... .. . ...
ROW 63 : ... .. 9 ... : ... .. 8 ... : ... .. . ... : ... .. . ... : ... .. . ...
ROW 64 : ... .. . ... : B-2 0E 5 V05 : ... .. . ... : C-# 0C . ... : ... .. . ...
ROW 65 : ... .. . ... : ... .. . ... : ... .. . ... : ... .. . ... : ... .. . ...
ROW 66 : ... .. . ... : B-2 10 . V03 : ... .. . ... : ... .. . ... : ... .. . ...
ROW 67 : ... .. . ... : ... .. . ... : ... .. . ... : ... .. . ... : ... .. . ...
ROW 68 : ... .. 8 ... : ... .. . ... : B-4 08 . 250 : 6-# 0D 9 ... : ... .. . ...
ROW 69 : ... .. . ... : ... .. . ... : ... .. . ... : ... .. . ... : ... .. . ...
ROW 6A : ... .. 7 ... : B-2 0E 5 V05 : --- .. . ... : ... .. . ... : ... .. . ...
ROW 6B : ... .. . ... : ... .. . ... : ... .. . ... : ... .. . ... : ... .. . ...
ROW 6C : ... .. 6 ... : B-2 10 3 V03 : ... .. . ... : C-# 0C F ... : ... .. . ...
ROW 6D : ... .. . ... : ... .. . ... : ... .. . ... : ... .. . ... : ... .. . ...
ROW 6E : ... .. 5 ... : G#2 0E 5 V05 : ... .. . ... : ... .. . ... : ... .. . ...
ROW 6F : ... .. . ... : ... .. . ... : ... .. . ... : ... .. . ... : ... .. . ...
ROW 70 : ... .. 4 ... : B-2 0E 5 V05 : B-4 08 . 250 : C-# 0C . ... : ... .. . ...
ROW 71 : ... .. . ... : ... .. . ... : ... .. . ... : ... .. . ... : ... .. . ...
ROW 72 : ... .. . ... : B-2 10 2 V03 : --- .. . ... : ... .. . ... : ... .. . ...
ROW 73 : ... .. . ... : ... .. . ... : ... .. . ... : ... .. . ... : ... .. . ...
ROW 74 : ... .. . ... : ... .. . ... : ... .. . ... : C-# 0C . ... : ... .. . ...
ROW 75 : ... .. . ... : ... .. . ... : ... .. . ... : ... .. . ... : ... .. . ...
ROW 76 : ... .. . ... : B-2 0E 5 V05 : ... .. . ... : ... .. . ... : ... .. . ...
ROW 77 : ... .. . ... : ... .. . ... : ... .. . ... : ... .. . ... : ... .. . ...
ROW 78 : ... .. . ... : B-2 10 1 V03 : B-4 08 . 250 : 6-# 0D 9 ... : ... .. . ...
ROW 79 : ... .. . ... : ... .. . ... : ... .. . ... : ... .. . ... : ... .. . ...
ROW 7A : ... .. . ... : ... .. . ... : --- .. . ... : ... .. . ... : ... .. . ...
ROW 7B : ... .. . ... : ... .. . ... : ... .. . ... : ... .. . ... : ... .. . ...
ROW 7C : ... .. . ... : B-2 0E 5 V05 : ... .. . ... : D-# 0C F ... : ... .. . ...
ROW 7D : ... .. . ... : ... .. . ... : ... .. . ... : ... .. 9 ... : ... .. . ...
ROW 7E : ... .. . ... : B-2 10 1 V03 : ... .. . ... : ... .. 8 ... : ... .. . ...
ROW 7F : ... .. . ... : ... .. . ... : ... .. . ... : ... .. 7 ... : ... .. . ...

# End of export
