# FamiTracker text export 0.4.2

# Song information
TITLE           "Neon Starlight"
AUTHOR          "Necrophageon"
COPYRIGHT       "2012"

# Song comment
COMMENT ""

# Global settings
MACHINE         0
FRAMERATE       0
EXPANSION       0
VIBRATO         1
SPLIT           21

# Macros
MACRO       0   0  -1  -1   0 : 1 1 1 0
MACRO       0   1  -1  -1   0 : 6 4 2 5 4 3 2 1 0
MACRO       0   2  -1  -1   0 : 5 3 1 0
MACRO       0   3  -1  -1   0 : 1 2 3 4 5 6
MACRO       0   4  -1  -1   0 : 6 5 5 5 4 4 3 3 2 2 1 1 0
MACRO       0   5  -1  -1   0 : 5 4 3 2 1 0
MACRO       0   6  -1   4   0 : 9 9 8 7 6 5 4 3
MACRO       0   7  -1  -1   0 : 7 6 6 6 6 5 5 5 5 5 4 4 4 4 4 3 3 3 3 3 2 2 2 2 1 1 1 1 0
MACRO       0   8  -1  -1   0 : 7 6 5 4 3 1 0
MACRO       0   9  -1  -1   0 : 7 6 6 6 6 6 6 5 5 5 5 5 5 5 5 4 4 4 4 4 4 4 4 4 4 3 3 3 3 3 3 3 3 3 3 2 2 2 2 2 2 2 2 2 2 2 1 1 1 1 1 1 1 1 1 1 1 1 1 0
MACRO       1   0  -1  -1   0 : 0 -5 -12
MACRO       1   1  -1  -1   0 : 0 1 2
MACRO       1   2  -1  -1   0 : -2 0 0 1 1 2
MACRO       1   3  -1  -1   0 : 0 1
MACRO       1   4  -1  -1   0 : -12 0
MACRO       1   5  -1  -1   0 : -2 -1 0 0 0 0 1 1 1 2
MACRO       2   0  37  -1   0 : 0 0 0 0 0 0 0 0 0 0 0 0 0 0 0 0 0 0 0 0 0 0 0 0 0 0 0 0 0 0 0 0 0 0 0 0 0 3 2 1 -1 -2 -3 -3 -2 -1 1 2 3
MACRO       2   1  37  -1   0 : 0 0 0 0 0 0 0 0 0 0 0 0 0 0 0 0 0 0 0 0 0 0 0 0 0 0 0 0 0 0 0 0 0 0 0 0 0 5 3 2 -2 -3 -5 -5 -3 -2 2 3 5
MACRO       4   0  -1  -1   0 : 2 2 1 1 0
MACRO       4   1  -1  -1   0 : 2
MACRO       4   2  -1  -1   0 : 1 1 2
MACRO       4   3  -1  -1   0 : 3 3 2 2 1 1 0
MACRO       4   4  -1  -1   0 : 0 2 2 1
MACRO       4   6  -1  -1   0 : 2 2 1

# DPCM samples
DPCMDEF   0   401 "dpcm e5"
DPCM : 00 00 AC AA 00 FE AB 00 FC AF 02 F8 AF 02 F0 BF 0A C0 FF 0A 80 FF 2B 00 FF 2B 00 FE AF 00 FC AF
DPCM : 00 F0 FF 02 E0 FF 02 C0 FF 0B 80 FF 0B 00 FF 2F 00 FE AF 00 F8 BF 00 F0 FF 00 E0 FF 03 C0 FF 0B
DPCM : 00 FF 0F 00 FF 2F 00 FC BF 00 F8 BF 00 F0 FF 02 C0 FF 03 80 FF 0F 00 FF 2F 00 FE 2F 00 FC 3F 00
DPCM : F8 FF 00 F0 FF 02 C0 FF 03 80 FF 0F 00 FF 0F 00 FE 3F 00 FC 3F 00 F8 FF 00 E0 FF 03 C0 FF 03 80
DPCM : FF 0F 00 FF 0F 00 FE 3F 00 FC 3F 00 F8 FF 00 E0 FF 01 E0 FF 03 80 FF 07 00 FF 1F 00 FE 1F 00 FC
DPCM : 7F 00 F0 FF 00 E0 FF 03 C0 FF 07 80 FF 0F 00 FF 0F 00 FE 3F 00 F8 7F 00 F0 FF 01 E0 FF 01 C0 FF
DPCM : 07 80 FF 0F 00 FE 1F 00 FC 7F 00 F8 7F 00 F0 FF 01 E0 FF 00 C0 FF 07 80 FF 07 00 FF 1F 00 FE 3F
DPCM : 00 F8 7F 00 F8 FF 00 E0 FF 03 C0 FF 03 80 FF 0F 00 FF 0F 00 FE 3F 00 FC 3F 01 F0 FF 00 E0 FF 05
DPCM : C0 FF 03 80 FF 0F 00 FE 1F 00 FE 3F 00 F8 FF 00 F0 FF 00 E0 FF 03 C0 BF 42 C0 FF 0A 40 FF 2B 00
DPCM : FF 2B 02 FC 9F 00 FC 5F 02 F0 7F 01 F0 7F 05 C0 FF 25 00 FF 17 00 FF 57 00 FC 5F 02 F8 5F 01 F0
DPCM : 7F 05 E0 FF 04 C0 FF 13 80 FF 4B 00 FE 2F 00 FC 3F 01 F8 BF 10 F0 BF 02 E0 FF 12 C0 DB 54 C2 DD
DPCM : 2A 09 6F AB 04 6F AB 24 7C AB 92 D8 AB 4A F0 AD 2A E2 B6 AA 90 B7 95 84 BD 55 22 DE 56 09 F6 56
DPCM : 49 78 5B 25 E2 5B 95 E0 5D 55 84 6F 55 22 B7 55 54
DPCMDEF   1   401 "dpcm d#5"
DPCM : 00 00 00 FE AB 02 F0 BF 0A C0 FF AA 00 FE AB 02 F0 BF 0A 80 FF 2B 00 FE AF 00 F0 FF 0A 80 FF 2B
DPCM : 00 FC BF 00 F0 FF 0A 80 FF 2B 00 FE AF 00 F0 FF 02 80 FF 2F 00 FC BF 00 F0 FF 02 80 FF 0F 00 FE
DPCM : BF 00 F0 FF 02 80 FF 2F 00 FC BF 00 F0 FF 02 80 FF 2F 00 FC BF 00 F0 FF 02 80 FF 2F 00 FC BF 00
DPCM : E0 FF 03 80 FF 0F 00 FE BF 00 E0 FF 03 80 FF 0F 00 FC FF 00 E0 FF 03 80 FF 0F 00 FC FF 00 E0 FF
DPCM : 03 80 FF 0F 00 FC 7F 00 F0 FF 03 80 FF 0F 00 FC 7F 00 F0 FF 01 80 FF 1F 00 FC 7F 00 F0 FF 03 80
DPCM : FF 0F 00 FC 7F 00 F0 FF 03 80 FF 0F 00 FC 7F 00 F0 FF 01 80 FF 1F 00 FC 7F 00 F0 FF 03 80 FF 0F
DPCM : 00 FE 3F 00 F0 FF 01 80 FF 1F 00 FC 7F 00 F0 FF 01 C0 FF 13 00 FE 3F 00 F0 FF 01 C0 FF 0F 00 FE
DPCM : 3F 00 F0 FF 05 80 FF 0F 00 FE 3F 00 F0 FF 01 C0 FF 0F 00 FE 3F 00 F0 FF 03 80 FF 0F 00 FE 3F 00
DPCM : F8 FF 02 C0 FF 07 00 FE 3F 00 F0 FF 03 80 FF 0F 00 FE 3F 00 F8 AF 04 D0 FF 0A 40 FF 2B 02 FC AF
DPCM : 02 F0 7F 45 00 FF 97 00 FC 5F 01 D0 FF 25 00 FF 57 00 FC 5F 01 F0 7F 25 00 FF 57 00 FC 5F 11 E0
DPCM : 7F 15 00 FF 4F 00 FC BF 08 E0 FF 12 00 FF 2F 04 F8 BF 04 E0 FF 12 80 FF 2B 00 FC AD 14 F1 B6 4A
DPCM : C2 DB AA 84 7A AB 92 F0 AD 2A 91 DB AA 42 6E AB 4A E8 6D A5 A0 B7 95 22 EE 56 49 E8 5B 95 88 6F
DPCM : 55 12 DE 56 29 78 5B 95 84 6F 55 09 BE 55 25 72 55
DPCMDEF   2   401 "dpcm d5"
DPCM : 00 00 AA 00 F8 BF 0A 80 FF AB 00 F8 BF 0A 00 FF AF 00 F0 FF 0A 00 FF AF 00 F0 FF 0A 00 FF AF 00
DPCM : E0 FF 2B 00 FC BF 00 E0 FF 0B 00 FE BF 02 C0 FF 2B 00 FC BF 02 80 FF 2F 00 F8 FF 02 80 FF 2F 00
DPCM : F8 FF 02 00 FF 3F 00 F8 FF 0A 00 FF AF 00 E0 FF 0B 00 FE BF 00 E0 FF 0B 00 FE BF 00 E0 FF 0B 00
DPCM : FC FF 00 C0 FF 0F 00 FC FF 00 C0 FF 2F 00 F8 FF 02 80 FF 2F 00 F8 FF 02 00 FF 3F 00 F0 FF 03 00
DPCM : FF 3F 00 F0 FF 03 00 FF 3F 00 E0 FF 07 00 FE 7F 00 E0 FF 07 00 FE 7F 00 C0 FF 1F 00 FC FF 00 C0
DPCM : FF 0F 00 FC FF 00 C0 FF 0F 00 F8 FF 01 80 FF 1F 00 F8 FF 01 80 FF 5F 00 F0 FF 03 00 FF 3F 00 F0
DPCM : FF 03 00 FF 3F 00 F0 FF 03 00 FE 7F 00 E0 FF 07 00 FE 3F 00 F0 FF 03 00 FD 7F 01 E0 FF 0B 00 FC
DPCM : FF 00 C0 FF 0F 00 FC FF 00 C0 FF 0F 00 FC FF 00 C0 FF 2F 00 F8 FF 02 00 FF 3F 00 F8 FF 02 00 FF
DPCM : 3F 00 F0 FF 03 00 FF 3F 00 F0 FF 0B 00 FE BF 00 E0 FF 07 00 FE AB 00 F4 BF 8A 00 FF AB 04 F0 BF
DPCM : 2A 00 FD 5F 02 D0 FF 15 00 FD 5F 21 C0 FF 15 01 FC 5F 09 C0 FF 55 00 FC 5F 05 C0 FF 55 00 FC 5F
DPCM : 45 00 FF 57 02 F0 FF 22 00 FF 2F 01 F0 FF 12 00 FF AF 00 F0 FF 0A 01 FE AF 08 70 5B 55 12 77 AD
DPCM : 94 F0 B6 2A 09 6F AB 52 70 B7 AA 84 76 AB 4A A4 B7 AA 24 76 5B 29 61 B7 55 12 7A 5B 25 89 B7 55
DPCM : 09 79 5B 95 88 AF 55 49 78 5B 95 84 B7 55 25 78 55
DPCMDEF   3   401 "dpcm c#5"
DPCM : 00 00 AC AA 0A C0 FF AA 00 F8 BF 2A 00 FE AF 0A 00 FF AF 02 C0 FF AB 00 F0 FF 2A 00 FC BF 02 80
DPCM : FF AF 00 E0 FF 2B 00 F8 FF 0A 00 FE BF 02 80 FF AF 00 E0 FF 2B 00 F8 FF 0A 00 FE BF 00 80 FF 3F
DPCM : 00 E0 FF 0F 00 FC FF 0A 00 FE BF 02 80 FF AF 00 E0 FF 2B 00 F8 FF 02 00 FF BF 00 80 FF 3F 00 E0
DPCM : FF 0F 00 FC FF 02 00 FF BF 00 C0 FF 2F 00 F0 FF 0B 00 FC FF 02 00 FF BF 00 C0 FF 2F 00 F0 FF 0B
DPCM : 00 FC FF 00 00 FF 7F 00 C0 FF 3F 00 F0 FF 03 00 FE FF 00 80 FF 3F 00 E0 FF 0F 00 F8 FF 03 00 FE
DPCM : FF 00 80 FF 3F 00 E0 FF 0F 00 F8 FF 03 00 FE FF 00 80 FF 3F 00 E0 FF 0F 00 F8 FF 03 00 FF 3F 01
DPCM : C0 FF 0F 00 F0 FF 0F 00 F8 FF 03 00 FE FF 00 80 FF 0F 00 F4 FF 03 00 FD FF 00 C0 FF 2F 00 F0 FF
DPCM : 0B 00 F4 FF 03 00 FD FF 00 40 FF 3F 00 F0 FF 0B 00 FC FF 02 00 FF BF 00 C0 FF 2F 00 F0 FF 0B 00
DPCM : FC FF 01 00 FF 7F 00 C0 FF 1F 00 F0 FF 07 00 FC FF 01 00 FF 3F 00 D0 FF 2A 00 F5 BF 0A 40 FD AF
DPCM : 22 40 FF AB 08 D0 FF 15 02 FC 5F 85 00 FF 57 11 C0 FF 55 04 F0 7F 15 01 FC 5F 45 00 FF 57 11 C0
DPCM : FF 55 04 F0 7F 15 01 FC BF 44 00 FF AF 08 C0 FF 2B 02 F0 FF 8A 00 FC BF 22 00 7F 35 15 71 DB 2A
DPCM : 25 DC B5 2A 09 6F AB 4A C2 DB AA 92 F0 B6 AA 24 7C AB 2A 89 DE 5A 29 A2 B7 55 49 E8 6D 55 12 EE
DPCM : 5A 95 84 BB 55 25 61 6F 55 49 78 5B 55 12 DE 56 55
DPCMDEF   4   401 "dpcm c5"
DPCM : 00 00 02 C0 FF AB 02 E0 FF AA 00 E0 FF AB 00 E0 FF AB 00 E0 FF AB 00 F0 FF AA 00 F0 FF 2A 00 F8
DPCM : FF 2A 00 F0 FF 2B 00 F8 FF 2A 00 F8 FF 2A 00 F8 FF 0A 00 FC FF 0A 00 FC FF 0A 00 FC FF 0A 00 FC
DPCM : FF 02 00 FE FF 02 00 FE FF 02 00 FE FF 02 00 FF BF 02 00 FE FF 02 00 FF BF 00 00 FF FF 02 00 FF
DPCM : BF 00 80 FF BF 00 80 FF BF 00 80 FF BF 00 C0 FF AF 00 C0 FF 2F 00 E0 FF 2F 00 E0 FF 2F 00 E0 FF
DPCM : 2F 00 E0 FF 2F 00 E0 FF 2F 00 E0 FF 0F 00 F0 FF 0F 00 F0 FF 0F 00 F0 FF 17 00 F8 FF 0B 00 F8 FF
DPCM : 03 00 FC FF 03 00 FC FF 03 00 FC FF 03 00 FC FF 03 00 FE FF 02 00 FE FF 00 00 FF FF 00 00 FF FF
DPCM : 00 00 FF FF 00 00 FF FF 00 80 FF 5F 01 00 FF 5F 00 D0 FF 2F 00 D0 FF 2F 00 D0 FF 2F 00 D0 FF 2F
DPCM : 00 D0 FF 4F 00 D0 FF 2F 00 F0 FF 4B 00 F0 FF 0B 00 F4 FF 0B 00 F4 FF 0B 00 F4 FF 0B 00 FC FF 0A
DPCM : 00 F4 FF 0B 00 FC FF 09 00 FC FF 11 00 FC FF 09 00 FC FF 01 00 FF AD 22 40 FF AB 42 40 FF AB 22
DPCM : 40 FF AB 42 40 FF 57 82 C0 FF 56 02 50 FF 57 02 D0 FF 55 02 D0 FF 55 02 D0 FF 55 02 D0 FF 55 02
DPCM : F0 7F 55 02 F0 FF 54 04 F0 FF 4A 02 F0 FF 4A 04 F0 FF 4A 08 F0 FF 4A 00 FC 1F 54 09 DD B6 4A 89
DPCM : DC B5 2A 09 BB AD 2A 09 77 AB 2A 09 77 AB 2A 09 6F AB 2A 89 DE 5A A9 88 DE 5A 25 89 DD 56 A5 88
DPCM : BB 56 A5 88 B7 55 A5 88 B7 55 A5 88 B7 55 25 51 55
DPCMDEF   5   401 "dpcm f#4.dmc"
DPCM : 09 00 55 55 00 D0 FF 57 55 05 00 FD FD AB AA 00 81 DF BF AA 0A 10 F0 F7 AF AA 00 01 7F FF AA 0A
DPCM : 10 D0 DF BF AA 00 01 FD FD AB 8A 40 C0 DF BF AA 02 04 F4 F7 AF 2A 40 40 FD FD AB 02 04 D4 DF BF
DPCM : AA 00 01 FD FD AB 4A 40 40 7F FF AA 02 04 F4 F7 AF AA 00 01 FD FD AB 0A 10 D0 DF BF AA 00 01 F5
DPCM : F7 AF 0A 10 50 7F FF AA 02 04 D4 DF BF 2A 40 40 FD FD AB 12 10 D0 DF BF AA 00 01 F5 F7 AF 0A 10
DPCM : 50 FD FD AB 02 04 D4 DF BF 2A 40 40 FD FD AB 02 04 54 7F FF 2A 40 40 F5 F7 AF 0A 10 50 FD FD AB
DPCM : 00 01 D5 DF BF 4A 40 40 FD FD AB 02 04 54 7F FF 2A 02 01 F5 F7 AF 0A 10 50 FD FD AB 00 01 D5 DF
DPCM : BF 4A 40 40 F5 F7 AF 02 04 54 7F FF 2A 02 01 F5 F7 AB 12 04 54 FD FD 2A 11 01 D5 DF AF 4A 10 50
DPCM : F5 F7 AB 82 04 54 7F BF 2A 41 40 F5 F7 AB 0A 12 50 FD FD AA 04 01 D5 DF 9F 2A 50 40 F5 F7 97 12
DPCM : 04 54 7F 7F 95 40 40 F5 F7 57 49 10 50 FD FD 55 02 01 D5 DF 5F 25 10 50 FD D6 AA 52 01 55 7F AD
DPCM : AA 54 40 F5 57 97 2A 85 50 7F 75 55 4A 01 D5 5F 5B 95 94 40 FD B5 55 25 05 D4 5F 5B 55 51 02 F5
DPCM : B7 55 95 14 50 7F ED 52 45 11 D4 DF AE 4A 52 40 FD 75 AB 12 05 D4 5F B7 2A 49 01 77 6B 55 55 29
DPCM : 51 B7 55 55 55 49 74 5B 55 55 55 22 B7 55 55 55 25 B1 5B 55 55 55 49 BA 55 55 55 55 A2 5D 55 55
DPCM : 55 15 D9 56 55 55 55 89 6E 55 55 55 55 64 57 55 55
DPCMDEF   6   401 "dpcm f4.dmc"
DPCM : 09 00 55 55 55 01 40 FF 5F 55 55 00 D0 DF BF AA 2A 40 C0 DF BF AA 0A 10 D0 DF BF AA 0A 10 D0 DF
DPCM : BF AA 02 04 F4 F7 AF AA 02 04 F4 F7 AF AA 08 04 F4 F7 AF AA 00 01 F5 F7 AF 2A 01 01 F5 F7 AF 2A
DPCM : 40 40 F5 F7 AF 2A 40 40 FD FD AB 2A 40 40 FD FD AB 2A 40 40 FD FD AB 8A 40 40 FD FD AB 0A 10 50
DPCM : 7F FF AA 0A 10 50 7F FF AA 0A 10 50 7F FF AA 02 04 54 7F FF AA 02 04 D4 DF BF AA 02 04 D4 DF BF
DPCM : AA 00 01 D5 DF BF AA 00 01 D5 DF BF 2A 40 40 F5 F7 AF 2A 40 40 F5 F7 AF 2A 40 40 F5 F7 AF 8A 40
DPCM : 40 F5 F7 AF 0A 10 50 F5 F7 AF 0A 10 50 FD FD AB 0A 10 50 FD FD AB 12 10 50 FD FD AB 02 04 54 FD
DPCM : FD AB 02 04 54 7F FF AA 04 04 54 7F FF AA 04 04 54 7F BF 2A 41 01 55 7F BF 2A 41 40 D5 DF AF 2A
DPCM : 41 40 D5 DF AF 2A 42 40 D5 DF AF 2A 42 40 F5 F7 AB 2A 44 40 F5 F7 97 4A 10 50 F5 F7 57 49 10 50
DPCM : F5 F7 57 89 10 50 FD FD 55 09 11 50 FD FD 55 09 12 50 FD FD 55 09 04 54 BF B5 AA 52 01 55 7F B5
DPCM : AA 52 01 D5 7D 6D 55 52 01 D5 5F 5D 55 52 01 D5 5F 5B 55 52 01 F5 5B 5B 55 52 01 F5 D7 56 55 51
DPCM : 02 F5 D7 56 55 52 40 DD D7 AD 52 52 40 F5 B7 AD 4A 52 40 FD 75 AB 4A 52 40 FD 75 54 55 25 49 B7
DPCM : 56 55 55 25 C9 B6 55 55 55 A5 C8 6D 55 55 55 A5 A8 6D 55 55 55 15 69 5B 55 55 55 95 68 57 55 55
DPCM : 55 95 E8 56 55 55 55 95 D8 56 55 55 55 15 D9 55 55
DPCMDEF   7   401 "dpcm e4.dmc"
DPCM : 09 00 01 C0 FF 57 55 55 01 40 7F FF AA AA 02 04 FC FD AB AA 12 10 F0 F7 AF AA 0A 10 50 7F FF AA
DPCM : 2A 40 40 FD FD AB AA 00 01 F5 F7 AF AA 02 04 D4 DF BF AA 0A 10 50 7F FF AA 2A 40 40 F5 F7 AF AA
DPCM : 00 01 D5 DF BF AA 82 10 50 7F FF AA 2A 40 40 FD FD AB AA 00 01 D5 DF BF AA 02 04 54 7F FF AA 0A
DPCM : 10 50 FD FD AB 2A 40 40 F5 F7 AF AA 00 01 D5 DF BF AA 02 04 54 7F FF AA 8A 40 40 F5 F7 AF AA 00
DPCM : 01 D5 DF BF AA 02 04 54 7F FF AA 0A 10 50 FD FD AB 4A 40 40 F5 F7 AF 2A 01 01 55 7F FF AA 04 04
DPCM : 54 FD FD AB 12 10 50 F5 F7 AF 2A 40 40 D5 DF BF AA 00 01 55 7F FF AA 22 10 50 FD FD AB 8A 40 40
DPCM : D5 DF BF 2A 01 01 55 7F FF AA 02 04 54 FD FD AB 0A 10 50 F5 F7 AD 4A 48 40 D5 DF B7 2A 21 01 55
DPCM : 7F DF AA 12 04 54 FD 7D AB 4A 10 50 F5 F7 AE AA 20 01 55 7F BF AA 42 04 54 FD FD A5 0A 11 50 F5
DPCM : F7 57 29 41 40 D5 DF 5F 95 04 01 55 7F BF 55 09 12 50 F5 F7 57 25 10 50 F5 5D AD AA 54 08 D5 7B
DPCM : B5 AA 52 09 54 DF D5 55 29 25 50 7D D7 56 95 52 04 D5 5F 5B 55 49 11 D4 7D 6D 55 25 15 50 FD B5
DPCM : 55 55 54 40 F5 D7 36 55 49 01 D5 5F DB AA 14 25 50 7F 6D AB 52 94 40 FD B5 AD 2A 91 14 B9 AD 55
DPCM : 55 55 4A D2 AE 55 55 55 A5 44 B7 55 55 55 55 12 DD 56 55 55 55 25 6A 5B 55 55 55 95 A4 5D 55 55
DPCM : 55 55 91 B6 55 55 55 55 25 D9 55 55 55 55 55 64 55
DPCMDEF   8   401 "dpcm d#4.dmc"
DPCM : 09 00 15 00 F4 F7 AF AA AA 00 01 FD FD AB AA 2A 40 40 7F FF AA AA 02 04 F4 F7 AF AA 2A 40 40 FD
DPCM : FD AB AA 0A 10 50 7F FF AA AA 00 01 D5 DF BF AA 2A 40 40 FD FD AB AA 02 04 54 7F FF AA AA 00 01
DPCM : D5 DF BF AA 0A 10 50 FD FD AB AA 12 10 50 FD FD AB AA 00 01 D5 DF BF AA 0A 41 40 F5 F7 AF AA 02
DPCM : 04 54 FD FD AB AA 00 01 D5 DF BF AA 0A 10 50 F5 F7 AF AA 02 04 54 FD FD AB 2A 08 01 D5 DF BF AA
DPCM : 0A 10 50 F5 F7 AF AA 04 04 54 FD FD AB 4A 40 40 D5 DF BF AA 42 10 50 F5 F7 AF AA 00 01 55 FD FD
DPCM : AB 8A 40 40 D5 DF BF AA 82 10 50 F5 F7 AF AA 00 01 55 FD FD AB 4A 40 40 D5 DF BF AA 82 10 50 F5
DPCM : F7 AF AA 00 01 55 FD FD AB 4A 40 40 D5 DF BF 2A 88 04 54 F5 F7 AE 2A 41 01 55 7F F7 AA 8A 10 50
DPCM : D5 DF BB AA 22 04 54 F5 F7 AD 2A 21 01 55 7F EF AA 4A 50 40 D5 DF 77 AA 22 04 54 F5 F7 57 AA 10
DPCM : 01 55 FD FD 55 49 50 40 D5 DF 77 55 12 04 54 F5 F7 5B 95 08 01 55 BF D5 AA 4A 15 48 75 5F AD AA
DPCM : 4A 09 54 FD 56 5B 95 52 02 D5 7E B5 55 A5 14 41 F5 5B 5B 55 49 45 50 FD B5 55 55 52 41 54 7F 6D
DPCM : 55 95 54 40 F5 D7 B6 52 25 15 50 FD B5 AD 4A 49 09 D4 5F DD AA 52 54 40 F5 D7 54 55 55 29 49 B7
DPCM : 56 55 55 55 4A B2 6D 55 55 55 55 92 DA 56 55 55 55 95 C4 6E 55 55 55 55 25 69 5B 55 55 55 55 89
DPCM : B6 55 55 55 55 55 92 6D 55 55 55 55 95 D8 56 55 55
DPCMDEF   9   401 "dpcm d4.dmc"
DPCM : 09 00 E1 55 55 55 55 00 50 7F FF AA AA 2A 40 40 7F FF AA AA 2A 40 40 FD FD AB AA 2A 40 40 FD FD
DPCM : AB AA 2A 40 40 FD FD AB AA 4A 40 40 F5 F7 AF AA 2A 40 40 F5 F7 AF AA 2A 40 40 F5 F7 AF AA 2A 40
DPCM : 40 D5 DF BF AA 2A 01 01 D5 DF BF AA AA 00 01 55 7F FF AA AA 00 01 55 7F FF AA AA 00 01 55 7F FF
DPCM : AA AA 00 01 55 FD FD AB AA 40 04 54 FD FD AB AA 10 04 54 FD FD AB AA 04 04 54 FD FD AB AA 02 04
DPCM : 54 F5 F7 AF AA 02 04 54 F5 F7 AF AA 04 04 54 F5 F7 AF AA 02 04 54 F5 F7 AF AA 82 10 50 D5 DF BF
DPCM : AA 22 10 50 D5 DF BF AA 12 10 50 D5 DF BF AA 12 48 40 D5 DF BF AA 0A 42 40 55 7F FF AA 8A 40 40
DPCM : 55 7F FF AA 4A 40 40 55 7F FF AA 4A 40 40 55 7F 7D AB 4A 44 40 55 FD BD AB 4A 44 02 55 FD BD AB
DPCM : 2A 21 01 55 FD BD AB 2A 21 01 55 FD BD AB AA 08 01 55 FD DD 9B AA 04 05 54 F5 F7 5D A9 84 04 54
DPCM : F5 F7 5D 95 22 04 54 F5 F7 5D 55 12 14 50 D5 DF 6F 55 0A 12 50 F5 5E B5 AA 52 85 50 75 5F B5 AA
DPCM : 4A 15 44 B5 5F 6D 55 29 15 41 B5 5F 6D 55 25 95 40 D5 5F 6D 55 95 54 08 D5 5F 6D 55 55 52 02 D5
DPCM : 6F 6D 55 55 52 01 D5 6F 6D AB 52 51 11 D4 7D 6D AB 4A 49 09 54 7F 75 AB 2A 91 92 64 D7 5A 55 55
DPCM : 55 4A D2 B6 56 55 55 55 29 C9 B6 55 55 55 55 A5 C4 B6 55 55 55 55 95 A4 B6 55 55 55 55 55 92 B6
DPCM : 55 55 55 55 55 92 B6 55 55 55 55 55 49 B6 55 55 55
DPCMDEF  10   401 "dpcm g#3"
DPCM : 00 00 AA AA 02 00 54 FD FF AB AA AA AA AA 80 00 54 FD FF AD AA AA AA 2A 04 00 55 F5 FF AF AA AA
DPCM : AA 8A 20 00 55 F5 FF B7 AA AA AA 12 01 40 55 F5 FF BB AA AA AA 12 02 40 55 F5 FF BE AA AA AA 22
DPCM : 10 40 55 F5 FF DE AA AA AA 12 02 40 55 F5 FF BB AA AA AA 22 10 40 55 F5 FF BE AA AA AA 22 00 50
DPCM : 55 F5 FF BE AA AA AA 42 00 50 55 D5 FF BF AA AA AA 84 00 50 55 F5 7F DF AA AA AA 88 00 50 55 D5
DPCM : FF DF AA AA AA 10 01 50 55 F5 7F 77 AB AA 2A 41 10 50 55 D5 FF 6F AB AA 2A 21 10 50 55 F5 DF 77
DPCM : AB AA 2A 42 20 50 55 F5 BF 6F AB AA 2A 42 10 50 55 F5 DF 6F AB AA 4A 22 40 50 55 F5 BF 6F AB AA
DPCM : 2A 42 80 50 55 F5 BF 6F AB AA 4A 42 00 54 55 F5 77 AF AB AA 52 22 02 54 55 F5 F7 6E AB AA 4A 22
DPCM : 04 54 55 F5 EF 6E AB AA 4A 22 02 51 55 F5 DF 6D 97 AA 4A 21 81 50 55 F5 DF DD 56 A5 4A 12 02 51
DPCM : 55 F5 DF DD 56 55 29 21 81 50 55 ED DF DB 56 55 29 11 41 50 55 DD 5D D7 AA AA 2A 29 91 50 55 7D
DPCM : DB B6 56 55 A9 24 49 50 55 F7 B6 AD 55 55 A5 94 44 48 55 EF B6 6D 55 55 95 92 44 48 55 EF 6D 6B
DPCM : 4D 55 55 92 24 44 55 DF 5D 5B AB AA 54 4A 22 42 D5 BE 5D DB AA AA 52 52 22 44 DD D6 6A D5 AA AA
DPCM : 4A 55 2A 25 B5 B5 56 AB AA AA AA 52 A5 94 AC AD D5 AA AA AA AA 2A 95 92 6A 6B B5 6A 55 55 95 AA
DPCM : 54 52 5A 5B AD 56 55 55 55 A9 52 4A DA 5A AB 55 55
DPCMDEF  11   401 "dpcm g3"
DPCM : 00 00 AA AA 0A 01 40 D5 FF BF AA AA AA AA 2A 41 00 54 F5 FF B7 AA AA AA AA 42 00 50 55 FF EF AD
DPCM : AA AA AA 4A 04 00 55 D5 FF F7 AA AA AA AA 84 80 40 55 F5 FF BD AA AA AA 8A 08 08 54 55 FF EF AE
DPCM : AA AA AA 88 80 40 55 D5 FF BF AA AA AA 2A 41 00 54 55 FD FF AE AA AA AA 22 04 40 55 55 FF FF AA
DPCM : AA AA 2A 22 00 54 55 F5 FF BB AA AA AA 12 02 40 55 55 FF EF AD AA AA 2A 11 20 50 55 D5 FF EF AA
DPCM : AA AA 12 01 01 55 55 FD DF B7 AA AA 4A 22 08 50 55 D5 7F DF AD AA AA 12 22 00 55 55 F5 7F EF AA
DPCM : AA 2A 11 01 44 55 55 FF F7 B6 AA AA 92 10 02 54 55 F5 DF 77 AB AA AA 84 08 40 55 55 FD DF BB AA
DPCM : AA 4A 84 00 54 55 D5 FF BD AD AA AA 24 04 02 55 55 FD EE 6D AB AA 52 22 41 50 55 D5 FB DE B6 AA
DPCM : AA 24 09 81 54 55 ED EF 6E AB AA 2A 89 04 41 55 55 FF EE B6 95 AA 4A 44 04 54 55 F5 F7 6E 5B 55
DPCM : AA 24 12 04 55 55 BF F7 B6 55 55 49 12 41 50 55 75 7F 77 5D 55 A0 94 94 48 54 55 77 D7 D6 AA AA
DPCM : AA 94 24 21 55 75 77 6B 6B 55 55 2A 29 91 50 55 EF B6 AD 55 55 55 4A 49 84 54 F5 6E DB 5A 55 55
DPCM : 95 92 24 42 55 F7 B6 6D B5 AA 4A A5 24 09 52 D5 77 DB D6 AA AA 52 49 91 10 55 6F AB 55 AD AA AA
DPCM : 52 55 4A 29 B5 AD 56 AB AA AA AA 2A 55 4A C9 DA 5A AD 6A 55 55 AA 4A 95 52 6A 6B B5 AA 55 55 55
DPCM : A5 4A A5 A4 B6 D6 AA 55 55 55 55 A9 52 29 69 6B 55
DPCMDEF  12   401 "dpcm f#3"
DPCM : 00 00 00 C0 FF AF AA AA AA AA AA 12 00 50 55 FF 7F AB AA AA AA AA 22 20 40 55 FD FF AE AA AA AA
DPCM : AA 42 10 40 55 F5 FF BD AA AA AA AA 24 02 01 55 D5 FF BD AB AA AA AA 22 41 00 55 55 FF 77 AF AA
DPCM : AA AA 0A 11 10 54 55 FD 7F AF AA AA AA 2A 11 00 54 55 F5 FF BD AA AA AA AA 10 04 50 55 D5 FF 7B
DPCM : AB AA AA AA 48 00 42 55 55 FF EF AD AA AA AA 22 04 40 55 55 FD BF B7 AA AA AA 0A 11 00 55 55 F5
DPCM : FF DE AA AA AA 8A 08 02 54 55 D5 FF BE AD AA AA 92 84 80 50 55 55 FF 77 B7 AA AA 2A 22 02 44 55
DPCM : 55 FB DF DB AA AA 2A 09 09 40 55 55 FD 7E 6F AB AA AA 24 04 01 55 55 F5 DF BD AD AA AA 12 11 08
DPCM : 54 55 D5 FF EE AE AA AA 8A 44 10 50 55 55 FF B3 DB AA AA 52 12 11 42 55 55 FB DB 6D AB AA 2A 49
DPCM : 44 10 55 55 7D DF 6E AB AA AA 24 09 41 54 55 F5 7B B7 6D 95 AA 92 44 84 50 55 D5 DF DB 75 55 95
DPCM : 4A 11 11 44 55 55 FF EE B6 55 55 29 89 44 40 55 55 EF BB DB 82 AA AA 94 94 48 54 55 77 DB D6 5A
DPCM : A5 AA 4A 49 92 50 55 BD DB DA 5A 55 55 A5 A4 44 22 55 ED 6D DB 5A 55 55 95 52 92 08 55 75 6F DB
DPCM : 5A AB 54 55 29 49 22 54 D5 B7 5B 6B AD AA 4A A5 24 89 50 D5 DE 6D 6B AD AA 02 55 A5 4A 25 D5 5A
DPCM : 6B 55 AD AA AA AA 54 A5 92 D2 DA 6A D5 AA AA AA AA 2A 55 4A A9 DA 5A AD AA 55 55 55 AA 4A A5 94
DPCM : DA 5A AD 5A 55 55 55 95 AA 54 52 5A 5B AD 5A 55 55
DPCMDEF  13   401 "dpcm f3"
DPCM : 00 00 02 04 50 F5 FF BB AA AA AA AA AA 4A 08 00 55 F5 FF DD AA AA AA AA AA 12 04 40 55 F5 7F EF
DPCM : AA AA AA AA AA 10 01 50 55 F5 7F F7 AA AA AA AA 4A 44 00 54 55 F5 7F F7 AA AA AA AA 12 11 04 54
DPCM : 55 DD 7F 77 AB AA AA AA 8A 10 00 55 55 F5 FF BD AA AA AA AA 42 02 40 55 55 FD EF BB AA AA AA AA
DPCM : 88 40 40 55 55 FD DF B7 AA AA AA 2A 21 02 50 55 55 7F BF B7 AA AA AA 4A 42 80 50 55 55 FF BD B7
DPCM : AA AA AA 0A 09 04 54 55 55 FF F7 DA AA AA AA 44 24 40 54 55 D5 EF F7 B6 AA AA 2A 89 08 01 55 55
DPCM : D5 FF F6 B6 AA AA 2A 09 09 10 55 55 F5 FB BD AD AA AA 4A 22 82 40 55 55 F5 DF BD AD AA AA 4A 42
DPCM : 02 48 55 55 7D 7F B7 AD AA AA 94 84 20 50 55 55 7D DF AE AD AA 2A 25 49 88 50 55 55 DF DB 6D AB
DPCM : AA AA 24 49 08 54 55 D5 BE 77 DB A6 AA AA 24 89 20 54 55 D5 F7 ED D6 56 A9 2A 45 12 41 54 55 B5
DPCM : DF DB B6 55 55 2A 45 22 02 55 55 F5 7B BB 6D 55 55 29 49 42 04 55 55 DD 6D 6D AD AA AA 4A A9 24
DPCM : 09 55 55 77 DB DA 5A 55 55 2A A5 24 11 55 D5 DD B6 B6 56 55 55 A9 A4 24 11 55 B5 B7 6D AD 55 55
DPCM : 55 A5 94 24 22 55 F5 6E DB 5A AD AA 54 A5 94 24 22 55 DD DB D6 D6 AA AA 4A 95 A0 52 29 59 6B AD
DPCM : 56 D5 AA AA AA 54 95 4A 29 B5 D6 5A D5 AA AA AA AA 2A 55 29 A5 AC AD 55 AB 6A 55 55 95 AA 52 A5
DPCM : A4 5A 6B B5 AA 55 55 55 55 A9 4A A5 94 D6 5A AB 55
DPCMDEF  14   401 "dpcm e3"
DPCM : 00 00 AA AA AA 12 08 40 55 FD BF B7 AA AA AA AA AA 8A 08 02 54 55 FF EF B6 AA AA AA AA 2A 11 02
DPCM : 48 55 D5 FF BD AD AA AA AA AA 22 22 00 55 55 FD 7D F7 AA AA AA AA 2A 24 04 50 55 55 FF BE DD AA
DPCM : AA AA AA 44 42 08 54 55 D5 FF 7B AB AA AA AA AA 88 80 40 55 55 FD EF BD AA AA AA AA 8A 10 04 54
DPCM : 55 55 FF 6F AF AA AA AA AA 88 10 40 55 55 F5 F7 BB AB AA AA AA 8A 88 00 54 55 55 FD EF DE AA AA
DPCM : AA AA 84 08 08 55 55 D5 BF F7 AD AA AA AA 14 91 20 50 55 55 BD BF BD AD AA AA 2A 89 08 01 55 55
DPCM : 55 FF DE 6D AB AA AA 92 44 04 44 55 55 F5 F7 ED B6 AA AA 2A 25 24 08 54 55 55 FD 77 6F AB AA AA
DPCM : 4A 22 42 08 55 55 D5 EF 77 DB AA 52 55 25 11 81 50 55 55 DD B7 BD B6 AA AA 52 92 44 04 55 55 D5
DPCM : BE DB 6B AB AA AA 94 24 21 42 55 55 F5 7B DB B6 AA AA 2A 25 92 10 54 55 55 BF BB 6D 5B 95 AA 4A
DPCM : 92 44 08 55 55 75 BF DB B6 55 55 AA 14 49 44 50 55 55 FB DE 6E A1 AA AA 4A A5 94 44 52 55 75 B7
DPCM : AD B5 56 55 A5 2A 25 25 11 55 55 6F DB DA 5A 55 55 55 4A 29 49 44 55 F5 B6 6B AB 55 55 55 95 52
DPCM : 52 22 52 55 6F BB B6 56 AB AA 52 A5 94 24 91 54 B5 B7 6B 6B AD AA AA 52 29 25 51 4A 59 6B AD 5A
DPCM : D5 AA AA AA 52 55 A9 54 4A AD AD 5A B5 AA AA AA AA AA 54 A9 52 B2 D6 5A B5 AA 56 55 55 A5 AA 52
DPCM : A9 94 5A 6B B5 AA 56 55 55 55 95 AA 54 29 A5 B5 55
DPCMDEF  15   401 "dpcm a#2"
DPCM : 00 00 00 BB DB AA AA AA AA AA AA AA AA 4A 22 11 81 54 55 D5 FD EE AE AB AA AA AA AA AA AA 2A 29
DPCM : 22 11 44 55 55 D5 7E 77 DB B6 AA AA AA AA AA AA 92 24 91 20 54 55 55 D5 7D 6F DB B6 AA AA AA AA
DPCM : AA 2A 49 92 88 08 55 55 55 D5 EF DE 6D AB AA AA AA AA AA AA 48 12 22 50 55 55 55 B5 DF DB EE AA
DPCM : AA AA AA AA AA 4A 22 89 10 54 55 55 55 F5 DD BB 6E AB AA AA AA AA AA 14 49 22 84 54 55 55 55 DD
DPCM : F7 B6 5D AB AA AA AA AA 2A 49 92 08 22 55 55 55 55 FB 6E D7 6D AD AA AA AA AA 94 24 49 44 44 55
DPCM : 55 55 55 EF DB B5 6B AB AA AA AA AA A4 48 91 08 51 55 55 55 D5 BB B7 ED 5A AB AA AA AA 2A 29 52
DPCM : 24 22 54 55 55 55 F5 EE 6D DB D6 AA AA AA AA 4A 0A 92 24 91 54 55 55 55 ED ED DA B6 DA AA AA AA
DPCM : 2A 95 92 92 24 22 55 55 55 55 77 BB 6D 6D AD A9 AA AA AA 94 92 92 28 42 55 55 55 D5 DD 6E DB 5A
DPCM : 6B 55 95 AA AA 94 94 14 89 44 55 55 55 B5 B7 DB B6 D5 5A 55 55 15 50 A5 52 29 25 49 55 55 55 DB
DPCM : B6 D6 5A AD 5A A5 AA AA AA 54 2A A5 94 24 55 55 D5 6D 6B AB B5 6A 55 55 55 55 A5 4A A9 94 94 44
DPCM : 55 55 ED B6 B6 56 AB D5 AA AA 54 55 95 4A A5 94 24 49 55 55 B7 6D AB B5 56 AD 2A 50 55 55 55 55
DPCM : A9 AA 54 A9 54 AD D5 AA 55 D5 AA AA AA AA AA AA AA 52 55 A5 2A A5 AA 56 AB 55 AD AA 6A 55 55 55
DPCM : 55 55 A9 AA 52 55 2A 95 6A B5 5A B5 AA 5A 55 55 55
DPCMDEF  16   401 "dpcm a2"
DPCM : 00 00 AA AA AA 44 22 04 52 55 D5 F7 DB DB AA AA AA AA AA AA AA AA AA 24 89 88 20 55 55 D5 7E F7
DPCM : B6 AD AA AA AA AA AA AA AA 52 A2 88 08 51 55 55 D5 DE BB 5D DB AA AA AA AA AA AA 2A 49 52 24 02
DPCM : 55 55 55 55 BF BB 6D AF AA AA AA AA AA AA AA 48 11 11 41 55 55 55 D5 7E 7B D7 AE AA AA AA AA AA
DPCM : AA 4A 92 84 84 50 55 55 55 D5 7D 77 DB AD AA AA AA AA AA AA 24 49 42 22 54 55 55 55 D5 77 6F DB
DPCM : AE AA AA AA AA AA 2A 45 92 88 04 55 55 55 55 75 EF 76 ED 56 AB AA AA AA AA 94 22 25 22 22 55 55
DPCM : 55 55 F5 BD 6D DB D6 AA AA AA AA AA A4 24 49 24 44 55 55 55 55 BD B7 5B B7 B5 AA AA AA AA 2A 29
DPCM : 49 12 89 48 55 55 55 55 F7 EE D6 6D B5 AA AA AA AA 90 4A 52 8A 24 52 55 55 55 D5 EE B6 AD AD AD
DPCM : AA AA AA 2A 95 4A 4A 92 24 52 55 55 55 75 BB 6D DB 5A AD 55 A9 AA AA 52 52 4A 92 44 54 55 55 55
DPCM : ED AE DB DA D6 5A 55 55 A9 AA 54 52 52 24 09 55 55 55 55 BD DB B6 61 D5 AA AA AA AA AA 52 A5 52
DPCM : 4A 49 52 55 55 75 6B 6B AB B5 6A 55 55 55 55 95 AA 94 4A 29 49 52 55 55 ED D6 B6 56 AB 55 AD 2A
DPCM : 55 55 55 A9 54 4A 29 45 52 55 55 B7 6D AD B5 5A B5 AA AA AA 2A 55 A5 52 2A 29 29 56 69 B5 5A AD
DPCM : 6A 55 55 AB AA AA AA AA AA 52 55 95 AA 54 A9 B4 6A AD 5A 55 AB AA 5A 55 55 55 95 AA AA 2A 55 A5
DPCM : 4A 95 6A B5 6A D5 AA 6A 55 55 55 55 55 55 55 A9 55
DPCMDEF  17   401 "dpcm g#2"
DPCM : 00 00 AA AA AA 44 12 42 50 55 55 FD BD DB AE AA AA AA AA AA AA AA AA AA 94 48 22 48 54 55 55 F5
DPCM : B7 BB 6D AD AA AA AA AA AA AA AA 52 92 22 21 21 55 55 55 F5 DE 6E DB B6 AA AA AA AA AA AA AA 24
DPCM : 49 91 48 48 55 55 55 D5 F7 6E B7 AD AA AA AA AA AA AA AA 92 44 21 11 54 55 55 55 D5 7B BB DB B6
DPCM : AA AA AA AA AA AA AA 48 4A 24 24 54 55 55 55 D5 BD BD 6B DB AA AA AA AA AA AA 4A 49 92 48 88 54
DPCM : 55 55 55 D5 BD BD 6D DB AA AA AA AA AA AA A4 24 25 11 91 54 55 55 55 D5 BD DB B6 6D B5 AA AA AA
DPCM : AA 2A A5 24 25 92 10 55 55 55 55 D5 BD DB B6 6D B5 AA AA AA AA 2A A5 24 49 12 12 55 55 55 55 D5
DPCM : BB DB B5 6D B5 AA AA AA AA 2A A5 28 49 22 22 55 55 55 55 D5 DB AE AD AD B6 AA AA AA AA 54 A9 24
DPCM : 25 49 22 55 55 55 55 75 BB 6D 6B 5B AD 56 AA AA AA 4A A5 A4 94 28 09 55 55 55 55 6D B7 6B DB 5A
DPCM : 6D 55 55 A5 AA 2A A5 A4 12 25 11 55 55 55 55 ED 6E DB DA 56 6B 55 A0 AA AA 4A 55 2A 95 52 4A 52
DPCM : 55 55 D5 B6 B5 D5 5A AD 5A 55 55 55 55 AA 4A A5 52 29 49 49 55 55 D5 6D 6D AB D5 AA 55 53 55 55
DPCM : 55 55 2A 55 2A 25 25 49 55 55 75 DB DA 5A AD 56 AD AA AA AA 2A 55 A5 52 29 95 92 2A 95 5A AD 55
DPCM : AB 6A 55 55 AB AA AA AA AA AA 4A 55 55 AA 4A 95 4A AD 56 AB 56 55 AB AA 5A 55 55 55 55 A5 AA AA
DPCM : 52 55 A9 52 A9 6A B5 5A D5 AA AA 55 55 55 55 55 55
DPCMDEF  18   401 "dpcm g2"
DPCM : 00 00 68 AB AA AA AA AA AA AA AA AA AA 52 92 44 82 44 55 55 55 FD 6E AF AD AD AA AA AA AA AA AA
DPCM : AA 2A 25 29 12 09 49 55 55 55 F5 DE 76 5B DB AA AA AA AA AA AA AA 4A 49 52 24 91 50 55 55 55 D5
DPCM : ED ED B6 B5 B5 AA AA AA AA AA AA AA 22 49 91 08 51 55 55 55 55 7D B7 BB 75 AB AA AA AA AA AA AA
DPCM : AA 24 49 92 88 50 55 55 55 55 75 6F 6F 6B B7 AA AA AA AA AA AA 2A 45 49 8A 48 48 55 55 55 55 D5
DPCM : B7 B7 6D DB AA AA AA AA AA AA 2A 4A 52 94 44 44 55 55 55 55 55 EF 6D 5B DB D6 AA AA AA AA AA 4A
DPCM : 49 4A 52 22 12 55 55 55 55 55 B7 B7 5D DB 56 AB AA AA AA AA 2A 29 29 49 91 88 54 55 55 55 55 BD
DPCM : DB 6D 6D 6B AD AA AA 52 55 55 A5 A4 24 49 42 52 55 55 55 55 F5 B6 6D AD AD B6 AA AA AA AA 52 A5
DPCM : 94 52 4A 22 51 55 55 55 55 75 DB 6D 6B 6D B5 5A AA AA AA AA 54 4A 29 49 4A 42 55 55 55 55 B5 B7
DPCM : AE AD AD B5 56 55 55 AA AA 4A 29 A5 14 25 09 55 55 55 55 D5 5B AD B5 5A B5 6A A5 AA AA AA AA 52
DPCM : A5 52 2A A5 24 55 55 55 6D DB 6A AB D5 AA 56 55 55 55 55 55 AA 52 A9 54 52 92 54 55 55 6D DB DA
DPCM : 6A D5 5A D5 AA AA AA 52 55 95 2A 95 52 29 49 49 55 55 6D DB 56 6B B5 56 B5 AA A0 AA AA AA 4A 55
DPCM : 55 A5 AA 52 A5 4A D5 5A B5 AA 55 D5 AA AA 5A 96 AA AA AA AA AA AA 54 55 A9 52 95 AA 55 AB 55 B5
DPCM : AA 6A 55 55 55 55 55 55 55 55 AA AA 4A 55 AA 52 55
DPCMDEF  19   401 "dpcm f#2"
DPCM : 00 00 AA AA AA AA AA AA AA AA 2A 25 49 22 42 54 55 55 55 F7 ED B6 6D AD AA AA AA AA AA AA AA AA
DPCM : 4A 52 8A 24 12 52 55 55 55 B5 77 DB 6D 6D AB AA AA AA AA AA AA AA 52 92 52 24 89 48 55 55 55 55
DPCM : BD DB 6E 6B 5B AD AA AA AA AA AA AA AA A2 24 85 44 42 55 55 55 55 D5 DE BB B6 6D AB AA AA AA AA
DPCM : AA AA AA 94 A4 28 22 09 55 55 55 55 55 DD DD 6D 6B DB AA AA AA AA AA AA AA 92 94 94 48 22 52 55
DPCM : 55 55 55 D5 BD DD B6 6D B5 AA AA AA AA AA AA 94 92 94 14 89 44 55 55 55 55 55 BD DB 6E 6D 5B B5
DPCM : AA AA AA AA AA 52 4A 4A 52 94 88 54 55 55 55 55 75 77 DB D6 B6 D5 AA AA 2A 55 55 55 A9 A4 24 45
DPCM : 22 49 55 55 55 55 55 F7 76 5B 6D 5B 55 55 55 C5 54 55 A5 92 4A 29 4A 24 55 55 55 55 55 DB B6 6D
DPCM : 6B AD D5 AA AA AA AA AA 54 A9 A4 A4 92 24 51 55 55 55 55 B5 BD AE AD AD 55 5B 55 55 AA AA AA 54
DPCM : 4A 29 49 4A 12 55 55 55 55 D5 6E BB D5 DA 56 AB 55 55 55 A5 0A 54 A9 4A A5 52 2A 29 55 55 55 55
DPCM : D7 D6 5A AB 56 AB 5A 55 55 55 A9 AA 4A 55 2A 95 52 49 49 55 55 55 DB D6 DA 6A B5 AA 55 55 55 55
DPCM : 55 55 95 2A 95 2A A5 94 A4 54 55 55 DD DA 56 6B B5 6A 55 AB AA AA AA 2A 55 15 A8 AA AA 54 95 AA
DPCM : 94 55 AB 56 AB 6A 55 55 AB AA AA AA AA AA AA AA 2A 55 55 A9 AA 54 A5 D4 6A B5 6A 55 AD AA AA 56
DPCM : 55 55 55 55 55 55 A9 AA AA 54 55 AA 54 A9 5A B5 55
DPCMDEF  20   401 "dpcm e5q.dmc"
DPCM : 89 88 AC AA 88 BA AB 88 EC AE 22 EA AE 22 B2 BB 8A C8 EE 8A 88 BB 2B 22 BB 2B 22 EE AE 88 EC AE
DPCM : 88 E8 EE 22 E2 EE 22 A2 BB 8B 88 BB 8B 88 EE 2E 22 EE AE 88 B8 BB 88 E8 EE 88 A8 BB 23 A2 BB 8B
DPCM : 88 EE 8E 88 EE 2E 22 BA BB 88 B8 BB 88 E8 EE 22 A2 BB 23 A2 EE 8E 88 EE 2E 22 EE 2E 22 BA 3B 22
DPCM : EA EE 88 E8 EE 22 A2 BB 23 A2 EE 8E 88 EE 8E 88 BA 3B 22 BA 3B 22 EA EE 88 A8 BB 23 A2 BB 23 A2
DPCM : EE 8E 88 EE 8E 88 BA 3B 22 BA 3B 22 EA EE 88 A8 BB 89 A8 BB 23 A2 EE 26 22 BB 9B 88 BA 9B 88 EC
DPCM : 6E 22 B2 BB 22 E2 EE 8A C8 EE 26 A2 EE 8E 88 EE 8E 88 BA 3B 22 EA 6E 22 B2 BB 89 A8 BB 89 C8 EE
DPCM : 26 A2 EE 8E 88 BA 9B 88 EC 6E 22 EA 6E 22 B2 BB 89 A8 BB 22 E2 EE 26 A2 EE 26 22 BB 9B 88 BA 3B
DPCM : 22 EA 6E 22 EA EE 88 A8 BB 23 A2 BB 23 A2 EE 8E 88 EE 8E 88 BA 3B 22 BA 3B 89 E8 EE 88 A8 BB 25
DPCM : A2 BB 23 A2 EE 8E 88 BA 9B 88 BA 3B 22 EA EE 88 E8 EE 88 A8 BB 23 A2 BB A2 C8 EE 8A 48 BB 2B 22
DPCM : BB 2B 8A EC AE 88 EC AE 22 B2 BB 22 B2 BB 8A C8 EE 2A 22 BB 2B 22 BB AB 88 EC AE 22 EA AE 22 B2
DPCM : BB 8A A8 BB 8A C8 EE 2A A2 EE AA 88 BA AB 88 EC AE 22 EA AE 92 E8 AE 8A A8 BB 2A A2 AB AA A2 AD
DPCM : AA 8A AE AA 8A AE AA 2A BA AA AA D8 AA AA E8 AA AA E2 AA AA 92 AB 95 8A AD 55 2A AE 56 29 B6 56
DPCM : A9 B8 5A A5 E2 5A 95 E2 5A 55 8A 6B 55 2A AB 55 2A
DPCMDEF  21   401 "dpcm d#5q.dmc"
DPCM : 89 88 88 BA AB 22 B2 BB 8A C8 EE AA 88 BA AB 22 B2 BB 8A 88 BB 2B 22 EE AE 88 E8 EE 8A 88 BB 2B
DPCM : 22 BA BB 88 E8 EE 8A 88 BB 2B 22 EE AE 88 E8 EE 22 A2 EE 2E 22 BA BB 88 E8 EE 22 A2 EE 8E 88 BA
DPCM : BB 88 E8 EE 22 A2 EE 2E 22 BA BB 88 E8 EE 22 A2 EE 2E 22 BA BB 88 E8 EE 22 A2 EE 2E 22 BA BB 88
DPCM : A8 BB 23 A2 EE 8E 88 BA BB 88 A8 BB 23 A2 EE 8E 88 EC EE 88 A8 BB 23 A2 EE 8E 88 EC EE 88 A8 BB
DPCM : 23 A2 EE 8E 88 EC 6E 22 B2 BB 23 A2 EE 8E 88 EC 6E 22 B2 BB 89 88 BB 9B 88 EC 6E 22 B2 BB 23 A2
DPCM : EE 8E 88 EC 6E 22 B2 BB 23 A2 EE 8E 88 EC 6E 22 B2 BB 89 88 BB 9B 88 EC 6E 22 B2 BB 23 A2 EE 8E
DPCM : 88 BA 3B 22 B2 BB 89 88 BB 9B 88 EC 6E 22 B2 BB 89 C8 EE 2A 22 EE AE 88 B8 BB 89 C8 EE 8E 88 BA
DPCM : 3B 22 B2 BB 25 A2 EE 8E 88 BA 3B 22 B2 BB 89 C8 EE 8E 88 BA 3B 22 B2 BB 23 A2 EE 8E 88 BA 3B 22
DPCM : EA EE 22 A2 BB 8B 88 BA 3B 22 B2 BB 23 A2 EE 8E 88 BA 3B 22 EA AE 24 D2 EE 8A 48 BB 2B 8A EC AE
DPCM : 22 B2 BB 4A 22 BB AB 88 EC AE 22 D2 EE 2A 22 BB AB 88 EC AE 22 B2 BB 2A 22 BB AB 88 EC AE 92 A8
DPCM : BB 2A 22 BB AB 88 EC AE 8A A8 BB 2A 22 BB AB 24 EA AE 8A A8 BB 2A A2 EE AA 88 EC AA 2A E9 AA AA
DPCM : A2 AB AA 8A BA AA AA E8 AA AA 92 AB AA 4A AE AA AA E8 6A A5 A2 AB 95 2A AE 56 A9 E8 5A 95 8A 6B
DPCM : 55 2A AE 56 A9 B8 5A 95 8A 6B 55 29 AE 55 A5 B2 2A
DPCMDEF  22   401 "dpcm d5q.dmc"
DPCM : 89 88 AA 88 B8 BB 8A 88 BB AB 88 B8 BB 8A 88 EE AE 88 E8 EE 8A 88 EE AE 88 E8 EE 8A 88 EE AE 88
DPCM : A8 BB 2B 22 BA BB 88 A8 BB 8B 88 BA BB 22 A2 BB 2B 22 BA BB 22 A2 EE 2E 22 EA EE 22 A2 EE 2E 22
DPCM : EA EE 22 22 BB 3B 22 EA EE 8A 88 EE AE 88 A8 BB 8B 88 BA BB 88 A8 BB 8B 88 BA BB 88 A8 BB 8B 88
DPCM : EC EE 88 C8 EE 8E 88 EC EE 88 C8 EE 2E 22 EA EE 22 A2 EE 2E 22 EA EE 22 22 BB 3B 22 B2 BB 23 22
DPCM : BB 3B 22 B2 BB 23 22 BB 3B 22 E2 EE 26 22 EE 6E 22 E2 EE 26 22 EE 6E 22 E2 EE 2E 22 BA BB 22 A2
DPCM : BB 2B 22 BA BB 22 A2 BB 2B 22 EA EE 22 A2 EE 2E 22 EA EE 22 A2 EE AE 88 E8 EE 8A 88 EE AE 88 E8
DPCM : EE 8A 88 EE AE 88 E8 EE 8A 88 BA BB 88 A8 BB 8B 88 BA 3B 22 B2 BB 23 22 ED 6E 89 A8 BB 8B 88 EC
DPCM : EE 88 C8 EE 8E 88 EC EE 88 C8 EE 8E 88 EC EE 88 C8 EE 2E 22 EA EE 22 22 BB 3B 22 EA EE 22 22 BB
DPCM : 3B 22 B2 BB 23 22 BB 3B 22 B2 BB 8B 88 BA BB 88 A8 BB 8B 88 BA AB 88 B4 BB 8A 22 BB AB 24 B2 BB
DPCM : 2A 22 ED AE 22 D2 EE 2A 22 ED AE A2 C8 EE 2A 89 EC AE 8A C8 EE AA 88 EC AE 8A C8 EE AA 88 EC AE
DPCM : 4A 22 BB AB 22 B2 BB 2A 22 BB AB 22 B2 BB 2A 22 BB AB 22 B2 BB 2A 89 BA AB 8A 68 AB AA 92 B6 AA
DPCM : AA E8 AA AA 8A AE AA AA 68 AB AA 8A B6 AA AA A4 AB AA 2A B6 5A A9 62 AB 55 2A BA 5A A5 8A AB 55
DPCM : 29 B9 5A 95 8A AB 55 A9 B8 5A 95 8A AB 55 A5 B8 2A
DPCMDEF  23   401 "dpcm c#5q.dmc"
DPCM : 89 88 AC AA 8A C8 EE AA 88 B8 BB 2A 22 EE AE 8A 88 EE AE 22 A2 BB AB 88 E8 EE 2A 22 BA BB 22 A2
DPCM : EE AE 88 A8 BB 2B 22 EA EE 8A 88 BA BB 22 A2 EE AE 88 A8 BB 2B 22 EA EE 8A 88 BA BB 88 88 BB 3B
DPCM : 22 E2 EE 8E 88 EC EE 8A 88 BA BB 22 A2 EE AE 88 A8 BB 2B 22 EA EE 22 22 BB BB 88 88 BB 3B 22 E2
DPCM : EE 8E 88 EC EE 22 22 BB BB 88 C8 EE 2E 22 B2 BB 8B 88 EC EE 22 22 BB BB 88 C8 EE 2E 22 B2 BB 8B
DPCM : 88 EC EE 88 88 BB BB 88 C8 EE AE 88 E8 EE 8A 88 BA BB 22 A2 EE AE 88 A8 BB 2B 22 EA EE 8A 88 BA
DPCM : BB 22 A2 EE AE 88 A8 BB 2B 22 EA EE 8A 88 BA BB 22 A2 EE AE 88 A8 BB 2B 22 EA EE 8A 88 EE AE 22
DPCM : A2 BB 2B 22 B2 BB 2B 22 EA EE 8A 88 BA BB 22 A2 EE 8E 88 B4 BB 23 22 ED EE 88 C8 EE 2E 22 B2 BB
DPCM : 8B 88 B4 BB 23 22 ED EE 88 48 BB 3B 22 B2 BB 8B 88 EC EE 22 22 BB BB 88 C8 EE 2E 22 B2 BB 8B 88
DPCM : EC EE 22 22 BB BB 88 C8 EE 2E 22 B2 BB 8B 88 EC EE 22 22 BB 3B 22 D2 EE 2A 22 B5 BB 8A 48 ED AE
DPCM : A2 48 BB AB 28 D2 EE 2A 8A EC AE 8A 22 BB AB 92 C8 EE AA 24 B2 BB 2A 89 EC AE 4A 22 BB AB 92 C8
DPCM : EE AA 24 B2 BB 2A 89 EC AE 4A 22 BB AB 8A C8 EE AA 22 B2 BB AA 88 EC AE 2A 22 BB AA 2A 69 AB AA
DPCM : 2A DA AA AA 8A AE AA AA A2 AB AA AA E8 AA AA 2A BA AA AA 8A AE 5A A9 A2 AB 55 A9 E8 6A 55 2A AE
DPCM : 5A 95 8A AB 55 A5 62 6B 55 A9 B8 5A 55 2A AE 56 55
DPCMDEF  24   401 "dpcm c5q.dmc"
DPCM : 89 88 22 A2 BB AB 22 E2 EE AA 88 A8 BB AB 88 A8 BB AB 88 A8 BB AB 88 E8 EE AA 88 E8 EE 2A 22 EA
DPCM : EE 2A 22 B2 BB 2B 22 EA EE 2A 22 EA EE 2A 22 EA EE 8A 88 EC EE 8A 88 EC EE 8A 88 EC EE 8A 88 EC
DPCM : EE 22 22 EE EE 22 22 EE EE 22 22 EE EE 22 22 BB BB 22 22 EE EE 22 22 BB BB 88 88 BB BB 8A 88 EE
DPCM : AE 22 A2 EE AE 22 A2 EE AE 22 A2 EE AE 22 A2 BB AB 22 A2 BB AB 88 A8 BB AB 88 A8 BB AB 88 A8 BB
DPCM : AB 88 A8 BB AB 88 A8 BB AB 88 A8 BB 2B 22 B2 BB 2B 22 B2 BB 2B 22 B2 BB 2B 22 EA EE 2A 22 EA EE
DPCM : 8A 88 EC EE 8A 88 EC EE 8A 88 EC EE 8A 88 EC EE 8A 88 BA BB 8A 88 BA BB 22 22 BB BB 22 22 BB BB
DPCM : 22 22 BB BB 22 22 BB BB 22 A2 EE AE 22 22 BB 5B 22 D2 EE 2E 22 D2 EE 2E 22 D2 EE 2E 22 D2 EE 2E
DPCM : 22 D2 EE 4E 22 D2 EE 2E 22 B2 BB 4B 22 B2 BB 8B 88 B4 BB 8B 88 B4 BB 8B 88 B4 BB 8B 88 EC EE 8A
DPCM : 88 B4 BB 8B 88 EC EE 8A 88 EC EE 92 88 EC EE 8A 88 EC EE 22 22 BB AD A2 48 BB AB A2 48 BB AB A2
DPCM : 48 BB AB A2 48 BB AB A2 C8 EE AA 22 52 BB AB 22 D2 EE AA 22 D2 EE AA 22 D2 EE AA 22 D2 EE AA 22
DPCM : B2 BB AA 22 B2 BB AA 24 B2 BB AA 22 B2 BB AA 24 B2 BB AA 28 B2 BB AA 88 EC 2E AA 8A DA AA AA 8A
DPCM : DA AA AA 8A BA AA AA 8A B6 AA AA 8A B6 AA AA 8A AE AA AA 8A AE 5A A9 8A AE 5A A5 8A AD 56 A5 8A
DPCM : AB 56 A5 8A AB 55 A5 8A AB 55 A5 8A AB 55 A5 52 55
DPCMDEF  25   401 "dpcm f#4q.dmc"
DPCM : 89 8A AA 2A 22 E2 EE AE AA 22 22 EE EE AA AA 22 A2 EE AE AA 2A 22 B2 BB AB AA 22 22 BB BB AA 2A
DPCM : 22 D2 EE AE AA 22 22 ED EE AA AA 88 C8 EE AE AA 8A 88 B4 BB AB AA 88 48 ED EE AA 8A 88 D4 EE AE
DPCM : AA 22 22 ED EE AA AA 88 48 BB BB AA 8A 88 B4 BB AB AA 22 22 ED EE AA 2A 22 D2 EE AE AA 22 22 B5
DPCM : BB AB 2A 22 52 BB BB AA 8A 88 D4 EE AE AA 88 48 ED EE AA 2A 22 D2 EE AE AA 22 22 B5 BB AB 2A 22
DPCM : 52 ED EE AA 8A 88 D4 EE AE AA 88 48 ED EE AA 8A 88 54 BB BB AA 88 48 B5 BB AB 2A 22 52 ED EE AA
DPCM : 22 22 D5 EE AE AA 88 48 ED EE AA 8A 88 54 BB BB AA 22 22 B5 BB AB 2A 22 52 ED EE AA 22 22 D5 EE
DPCM : AE AA 88 48 B5 BB AB 8A 88 54 BB BB AA 22 22 B5 BB AB 92 88 54 ED EE 2A 29 22 D5 EE AE 4A 22 52
DPCM : B5 BB AB A2 88 54 BB BB 2A 89 48 B5 BB AB 8A 22 52 ED EE AA 24 22 D5 EE AE 2A 92 48 B5 BB AB 92
DPCM : 88 54 BB BB AA 88 48 B5 BB AB 4A 22 52 ED EE AA 22 22 D5 EE AE 2A 22 52 ED EA AA 92 22 55 BB AD
DPCM : AA A4 48 B5 6B AB 2A 8A 52 BB B6 AA 8A 22 D5 6E AB AA A8 48 ED B6 AA 2A 8A D4 AE AB AA 92 22 B5
DPCM : BB AA AA 28 52 BB AD AA 4A 92 D4 EE AA AA 92 48 ED B6 AA 2A 89 D4 6E AB AA 8A 22 6B AB AA AA 2A
DPCM : A9 B6 AA AA AA 4A 6A AB AA AA AA A2 B6 AA AA AA 2A A9 AB AA AA AA 4A BA AA 56 95 AA A2 AD 6A 55
DPCM : A5 2A D9 AA 56 55 A9 8A AE 6A 55 55 AA 64 AB 56 55
DPCMDEF  26   401 "dpcm f4q.dmc"
DPCM : 89 8A AA AA AA 88 88 BB BB AA 2A 22 E2 EE AE AA AA 88 C8 EE AE AA 2A 22 D2 EE AE AA 2A 22 D2 EE
DPCM : AE AA 8A 88 B4 BB AB AA 8A 88 B4 BB AB AA 8A 88 B4 BB AB AA 22 22 B5 BB AB AA 22 22 B5 BB AB AA
DPCM : 88 48 B5 BB AB AA 88 48 ED EE AA AA 88 48 ED EE AA AA 88 48 ED EE AA AA 88 48 ED EE AA 2A 22 52
DPCM : BB BB AA 2A 22 52 BB BB AA 2A 22 52 BB BB AA 8A 88 54 BB BB AA 8A 88 D4 EE AE AA 8A 88 D4 EE AE
DPCM : AA 22 22 D5 EE AE AA 22 22 D5 EE AE AA 88 48 B5 BB AB AA 88 48 B5 BB AB AA 88 48 B5 BB AB AA 88
DPCM : 48 B5 BB AB 2A 22 52 B5 BB AB 2A 22 52 ED EE AA 2A 22 52 ED EE AA 2A 22 52 ED EE AA 8A 88 54 ED
DPCM : EE AA 8A 88 54 BB BB AA 8A 88 54 BB BB AA 8A 88 54 BB BB 2A 49 22 55 BB BB 2A 89 48 D5 EE AE 2A
DPCM : 89 48 D5 EE AE 2A 8A 48 D5 EE AE 2A 8A 48 B5 BB AB 2A 8A 48 B5 BB AB 4A 22 52 B5 BB AB 4A 22 52
DPCM : B5 BB AB 8A 22 52 ED EE AA 8A 22 52 ED EE AA 8A 22 52 ED EE AA 8A 88 54 BB BA AA 92 22 55 BB B6
DPCM : AA 92 22 D5 BA AE AA 92 22 D5 AE AD AA 92 22 D5 AE AB AA 92 22 B5 6B AB AA 92 22 B5 EB AA AA 92
DPCM : 22 B5 DB AA AA A2 48 AD DB AA AA 92 48 B5 BB AA AA A2 48 ED B6 AA AA A2 48 ED B6 A8 AA 2A A9 B6
DPCM : AA AA AA 2A A9 B6 AA AA AA AA A8 AD AA AA AA AA A8 AD AA 55 AA 2A 69 AB 6A 55 A5 AA 68 AB 5A 55
DPCM : A5 AA E8 AA 56 55 A5 AA D8 AA 56 55 A5 2A D9 AA 55
DPCMDEF  27   401 "dpcm e4q.dmc"
DPCM : 89 8A 88 C8 EE AE AA AA 88 88 BB BB AA AA 8A 88 EC EE AA AA 2A 22 B2 BB AB AA 2A 22 52 BB BB AA
DPCM : AA 88 48 ED EE AA AA 22 22 B5 BB AB AA 8A 88 D4 EE AE AA 2A 22 52 BB BB AA AA 88 48 B5 BB AB AA
DPCM : 22 22 D5 EE AE AA 8A 22 52 BB BB AA AA 88 48 ED EE AA AA 22 22 D5 EE AE AA 8A 88 54 BB BB AA 2A
DPCM : 22 52 ED EE AA AA 88 48 B5 BB AB AA 22 22 D5 EE AE AA 8A 88 54 BB BB AA AA 88 48 B5 BB AB AA 22
DPCM : 22 D5 EE AE AA 8A 88 54 BB BB AA 2A 22 52 ED EE AA AA 88 48 B5 BB AB AA 22 22 55 BB BB AA 8A 88
DPCM : 54 ED EE AA 2A 22 52 B5 BB AB AA 88 48 D5 EE AE AA 22 22 55 BB BB AA 2A 22 52 ED EE AA AA 88 48
DPCM : D5 EE AE AA 22 22 55 BB BB AA 8A 88 54 ED EE AA 2A 22 52 B5 BB AD 4A 8A 48 D5 EE B6 2A 29 22 55
DPCM : BB DB AA 92 88 54 ED 6E AB 4A 22 52 B5 BB AE AA 28 22 55 BB BB AA A2 88 54 ED EE AA 8A 22 52 B5
DPCM : BB AB 2A 89 48 D5 EE AE AA 24 22 55 BB BB AA 8A 22 52 B5 BB AB 2A 22 52 B5 AD AD AA A8 28 D5 BA
DPCM : B6 AA 92 8A 54 DB DA AA 2A 29 52 6D EB AA AA A2 24 D5 AE AB AA 8A 92 D4 BA AE AA 2A 29 52 ED BA
DPCM : AA AA A4 48 B5 DB AA AA 4A 22 D5 AE AB AA 2A 29 52 BB AE AA AA A4 48 ED BA AA AA A2 94 AA AD AA
DPCM : AA AA 4A AA AE AA AA AA AA A4 B6 AA AA AA AA 92 DA AA AA AA AA 2A 6A AB 6A 55 A9 AA A4 AD AA 55
DPCM : 95 AA 92 B6 AA 55 55 A9 2A D9 AA 56 55 95 AA 64 55
DPCMDEF  28   401 "dpcm d#4q.dmc"
DPCM : 89 8A 8A 88 B8 BB AB AA AA 22 22 ED EE AA AA AA 88 48 BB BB AA AA 8A 88 B4 BB AB AA AA 88 48 ED
DPCM : EE AA AA 2A 22 52 BB BB AA AA 22 22 D5 EE AE AA AA 88 48 ED EE AA AA 8A 88 54 BB BB AA AA 22 22
DPCM : D5 EE AE AA 2A 22 52 ED EE AA AA 2A 22 52 ED EE AA AA 22 22 D5 EE AE AA 2A 89 48 B5 BB AB AA 8A
DPCM : 88 54 ED EE AA AA 22 22 D5 EE AE AA 2A 22 52 B5 BB AB AA 8A 88 54 ED EE AA AA 28 22 D5 EE AE AA
DPCM : 2A 22 52 B5 BB AB AA 8A 88 54 ED EE AA AA 88 48 D5 EE AE AA 4A 22 52 B5 BB AB AA 22 22 55 ED EE
DPCM : AA AA 88 48 D5 EE AE AA 8A 22 52 B5 BB AB AA 22 22 55 ED EE AA AA 88 48 D5 EE AE AA 8A 22 52 B5
DPCM : BB AB AA 22 22 55 ED EE AA AA 88 48 D5 EE AE AA A8 88 54 B5 BB AE 2A 49 22 55 BB EB AA 8A 22 52
DPCM : D5 EE BA AA A2 88 54 B5 BB AD 2A 29 22 55 BB EB AA 4A 92 48 D5 EE B6 AA A2 88 54 B5 BB AB AA 28
DPCM : 22 55 ED EE AA 4A 92 48 D5 EE B6 AA 92 88 54 B5 BB AB AA 28 22 55 BB DA AA 4A 2A 4A B5 AE AD AA
DPCM : 8A 8A 54 ED 6A AB AA A2 22 D5 BA B6 AA AA 28 49 B5 AB AB AA 4A 4A 52 ED BA AA AA 92 A2 54 BB AE
DPCM : AA AA A4 48 B5 EB AA AA 2A 29 52 ED BA AA AA 8A 8A D4 AE AD AA AA A4 48 B5 EB A8 AA AA 2A A9 B6
DPCM : AA AA AA AA 4A AA AD AA AA AA AA 92 DA AA AA AA AA AA A4 AE AA 56 55 AA 2A 69 AB 6A 55 95 AA 8A
DPCM : B6 AA 56 55 95 AA 92 AD 6A 55 55 A5 AA D8 AA 56 55
DPCMDEF  29   401 "dpcm d4q.dmc"
DPCM : 89 8A A8 AB AA AA 2A 22 62 BB BB AA AA AA 88 48 BB BB AA AA AA 88 48 ED EE AA AA AA 88 48 ED EE
DPCM : AA AA AA 88 48 ED EE AA AA AA 88 48 B5 BB AB AA AA 88 48 B5 BB AB AA AA 88 48 B5 BB AB AA AA 88
DPCM : 48 D5 EE AE AA AA 22 22 D5 EE AE AA AA 22 22 55 BB BB AA AA 22 22 55 BB BB AA AA 22 22 55 BB BB
DPCM : AA AA 22 22 55 ED EE AA AA A2 88 54 ED EE AA AA 92 88 54 ED EE AA AA 8A 88 54 ED EE AA AA 8A 88
DPCM : 54 B5 BB AB AA 8A 88 54 B5 BB AB AA 8A 88 54 B5 BB AB AA 8A 88 54 B5 BB AB AA 8A 22 52 D5 EE AE
DPCM : AA 2A 22 52 D5 EE AE AA 2A 22 52 D5 EE AE AA 2A 8A 48 D5 EE AE AA 2A 8A 48 55 BB BB AA AA 88 48
DPCM : 55 BB BB AA AA 88 48 55 BB BB AA AA 88 48 55 BB 6D AB 4A 8A 48 55 ED AE AB 4A 8A 22 55 ED AE AB
DPCM : 2A 29 22 55 ED AE AB 2A 29 22 55 ED AE AB AA 28 22 55 ED AE AB AA 24 89 54 B5 BB AD AA A4 88 54
DPCM : B5 BB AD AA A2 88 54 B5 BB AD AA 92 24 52 D5 EE AE AA 8A 22 52 B5 AE B6 AA 92 8A 52 B5 AE B6 AA
DPCM : 4A 2A 4A B5 AE AD AA 2A 29 49 B5 AE AE AA 2A A9 48 D5 AE AD AA AA A4 28 D5 AE AE AA AA 92 22 D5
DPCM : AE AD AA AA 92 22 D5 AE AE AA AA 92 92 D4 BA AE AA AA 4A 8A 54 BB B6 AA AA A2 92 AA D6 AA AA AA
DPCM : AA 4A AA B6 AA AA AA AA 2A A9 B6 AA AA AA AA AA A4 B6 AA AA AA AA AA A4 B6 AA 5A 55 A5 AA 92 B6
DPCM : AA 56 55 95 AA 92 B6 AA 56 55 95 AA 4A B6 AA 55 55
DPCMDEF  30   401 "dpcm g#3q.dmc"
DPCM : 89 88 AA AA 22 22 56 ED EE AA AA AA AA AA A2 88 54 ED EE AA AA AA AA AA 24 22 55 B5 BB AB AA AA
DPCM : AA AA 28 22 55 B5 BB AB AA AA AA 2A 89 48 55 B5 BB AB AA AA AA 2A 8A 48 55 B5 BB AE AA AA AA 2A
DPCM : 92 48 55 B5 BB AE AA AA AA 2A 8A 48 55 B5 BB AB AA AA AA 2A 92 48 55 B5 BB AE AA AA AA 2A 22 52
DPCM : 55 B5 BB AE AA AA AA 4A 22 52 55 D5 EE AE AA AA AA 8A 22 52 55 B5 BB AE AA AA AA 8A 22 52 55 D5
DPCM : EE AE AA AA AA 92 22 52 55 B5 BB B6 AA AA AA A2 28 52 55 D5 EE AE AA AA AA A2 28 52 55 B5 DB B6
DPCM : AA AA AA A2 28 52 55 B5 BB AE AA AA AA A2 28 52 55 B5 DB AE AA AA AA A2 48 52 55 B5 BB AE AA AA
DPCM : AA A2 88 52 55 B5 BB AE AA AA AA A2 88 54 55 B5 6B AB AB AA 52 2A 8A 54 55 B5 EB 6A AB AA 4A 2A
DPCM : 8A 54 55 B5 EB 6A AB AA 4A 2A 8A 52 55 B5 DB 6A AB AA 4A 29 89 52 55 B5 DB DA AA AA 4A 2A 8A 52
DPCM : 55 B5 DB DA AA AA 2A 29 89 52 55 AD DB DA AA AA 2A 29 49 52 55 AD AD D6 AA AA 2A A9 92 52 55 6D
DPCM : AB B6 AA AA AA A4 4A 52 55 EB AA AD AA AA AA 94 4A 4A 55 EB AA AD AA AA AA 92 4A 4A 55 EB 6A AB
DPCM : AA AA AA 92 2A 4A 55 DB 5A AB AA AA AA 4A 2A 4A D5 BA 5A AB AA AA AA 52 2A 4A AD D6 AA AA AA AA
DPCM : AA AA 2A A5 AA B5 AA AA AA AA AA AA AA 94 AA AD AA AA AA AA AA AA AA 92 6A AB AA 6A 55 55 95 AA
DPCM : AA 52 5A AB AA 56 55 55 55 A9 AA 4A DA AA AA 55 55
DPCMDEF  31   401 "dpcm g3q.dmc"
DPCM : 89 88 AA AA 8A 22 62 D5 EE AE AA AA AA AA AA A2 88 54 B5 BB AB AA AA AA AA 4A 22 52 55 BB EB AA
DPCM : AA AA AA AA 24 22 55 D5 EE B6 AA AA AA AA 8A A2 48 55 B5 BB AD AA AA AA AA 28 8A 54 55 BB EB AA
DPCM : AA AA AA 8A A2 48 55 D5 EE AE AA AA AA AA A2 88 54 55 ED EE AA AA AA AA 2A 8A 48 55 55 BB BB AA
DPCM : AA AA AA A2 88 54 55 B5 BB AB AA AA AA 2A 8A 48 55 55 BB EB AA AA AA AA 92 28 52 55 D5 EE AE AA
DPCM : AA AA 2A 89 22 55 55 ED AE AB AA AA AA A2 28 52 55 D5 6E DB AA AA AA 2A 2A 22 55 55 B5 BB AE AA
DPCM : AA AA 92 22 4A 55 55 BB EB AA AA AA AA 28 8A 54 55 B5 DB B6 AA AA AA 8A 8A 48 55 55 ED AE AB AA
DPCM : AA AA A4 88 54 55 D5 EE BA AA AA AA 2A 8A 22 55 55 ED EA 6A AB AA 52 2A 49 52 55 D5 BA AE B6 AA
DPCM : AA A4 8A A2 54 55 AD EB 6A AB AA 2A A9 24 49 55 55 BB AE B6 AA AA 4A 4A 8A 54 55 B5 EB 6A AB AA
DPCM : AA A4 92 24 55 55 BB B6 B6 AA AA 4A 2A 49 52 55 B5 6E 6B AD AA A8 94 AA A8 54 55 6B AB D6 AA AA
DPCM : AA 94 2A 29 55 B5 B6 6A AB AA AA 2A A9 92 52 55 EB AA AD AA AA AA 4A A9 A4 54 B5 AE DA AA AA AA
DPCM : AA 92 2A 4A 55 EB AA AD AA AA AA AA A4 8A 52 D5 B6 DA AA AA AA AA 4A A9 28 55 6B AB AA AA AA AA
DPCM : AA AA 4A A9 AA AD AA AA AA AA AA AA AA 4A A9 DA AA AA 6A 55 55 AA AA AA 52 6A AB AA AA 55 55 55
DPCM : A5 AA AA A4 B6 AA AA 55 55 55 55 A9 AA 2A 69 AB 2A
DPCMDEF  32   401 "dpcm f#3q.dmc"
DPCM : 89 88 88 C8 EE AE AA AA AA AA AA 92 88 58 55 BB BB AA AA AA AA AA 2A A2 48 55 ED EE AA AA AA AA
DPCM : AA 4A 92 48 55 B5 BB AD AA AA AA AA 2A 8A 22 55 D5 EE BA AA AA AA AA 2A 49 22 55 55 BB 6B AB AA
DPCM : AA AA 2A 29 92 54 55 ED 6E AB AA AA AA AA 92 88 54 55 B5 BB AD AA AA AA AA 92 24 52 55 D5 EE BA
DPCM : AA AA AA AA 4A 22 4A 55 55 BB EB AA AA AA AA 2A 8A 48 55 55 ED AE AB AA AA AA 2A 29 22 55 55 B5
DPCM : BB AE AA AA AA AA 28 8A 54 55 D5 EE BA AA AA AA AA A4 88 52 55 55 BB 6B AB AA AA AA A2 22 4A 55
DPCM : 55 EB AE AB AA AA AA 8A 8A 48 55 55 ED BA AE AA AA AA 2A 8A 22 55 55 B5 DB BA AA AA AA 2A 29 8A
DPCM : 54 55 D5 EE EA AA AA AA AA A4 28 52 55 55 BB B3 DA AA AA 52 2A 29 4A 55 55 EB DA 6A AB AA 2A A9
DPCM : A4 28 55 55 6D DB 6A AB AA AA A4 8A A2 54 55 B5 6B AB AD AA AA 92 4A 8A 52 55 D5 AE AB B5 AA AA
DPCM : 4A 29 29 4A 55 55 BB AE B6 AA AA 2A A9 A4 48 55 55 EB BA DA A2 AA AA 94 AA A8 54 55 6B AB D6 AA
DPCM : AA AA 4A A9 92 52 55 AD AB DA AA AA AA AA A4 4A 2A 55 AD AD DA AA AA AA AA 52 AA 28 55 B5 AE DA
DPCM : AA AA AA AA 2A A9 A2 54 D5 B6 5A AB AA AA AA AA A4 8A 52 D5 DA 6A AB AA AA 8A AA AA 4A A5 AA 5A
DPCM : AB AA AA AA AA AA AA AA 92 AA DA AA AA AA AA AA AA AA AA 4A A9 DA AA AA AA 55 55 55 AA AA AA 94
DPCM : DA AA AA 5A 55 55 55 95 AA AA 52 5A AB AA 5A 55 55
DPCMDEF  33   401 "dpcm f3q.dmc"
DPCM : 89 88 22 8A 58 B5 BB AB AA AA AA AA AA AA 28 22 55 B5 BB AD AA AA AA AA AA 2A 8A 48 55 B5 BB AE
DPCM : AA AA AA AA AA 92 22 52 55 B5 BB B6 AA AA AA AA AA A4 88 54 55 B5 BB B6 AA AA AA AA 2A 29 8A 54
DPCM : 55 AD BB B6 AA AA AA AA AA 28 22 55 55 B5 BB AD AA AA AA AA 4A 8A 48 55 55 ED AE AB AA AA AA AA
DPCM : 8A A2 48 55 55 ED AE AB AA AA AA AA A2 22 52 55 55 BB AE AB AA AA AA AA A2 88 52 55 55 BB AD AB
DPCM : AA AA AA 2A 29 8A 54 55 55 BB EB AA AA AA AA 4A 2A A2 54 55 D5 AE EB AA AA AA AA 8A 8A 22 55 55
DPCM : D5 EE EA AA AA AA AA 8A 8A 28 55 55 B5 EB BA AA AA AA AA A2 A2 48 55 55 B5 DB BA AA AA AA AA A2
DPCM : 22 4A 55 55 6D BB B6 AA AA AA AA A4 28 52 55 55 6D DB AA AD AA 2A A5 4A 8A 52 55 55 DB DA 6A AB
DPCM : AA AA A4 4A 8A 54 55 D5 BA B6 DA AA AA AA A4 8A A2 54 55 D5 B6 AD D6 AA AA 2A A5 92 A2 54 55 B5
DPCM : AE AB B6 AA AA 2A A5 A2 22 55 55 B5 6B AB AD AA AA 2A A9 A2 24 55 55 AD AD 6A AD AA AA 4A A9 2A
DPCM : 29 55 55 6B AB DA AA AA AA 2A A5 2A 29 55 D5 DA AA B6 AA AA AA AA A4 2A 29 55 B5 B6 6A AD AA AA
DPCM : AA AA 94 2A 2A 55 B5 AE DA AA AA AA AA AA 94 2A 2A 55 AD AB D6 AA AA AA AA AA A8 52 A9 AA 6A AD
DPCM : AA AA AA AA AA AA AA 4A A9 AA D6 AA AA AA AA AA AA AA AA 2A A5 AA AD AA AA 6A 55 55 95 AA AA AA
DPCM : A4 5A AB AA AA 55 55 55 55 A9 AA AA 94 D6 AA AA 55
DPCMDEF  34   401 "dpcm e3q.dmc"
DPCM : 89 88 AA AA AA 92 28 62 55 ED AE AB AA AA AA AA AA AA 28 8A 54 55 BB EB AA AA AA AA AA AA 92 22
DPCM : 4A 55 D5 EE BA AA AA AA AA AA 2A 2A 22 55 55 ED BA B6 AA AA AA AA AA A4 24 52 55 55 BB AE AD AA
DPCM : AA AA AA 4A 4A 8A 54 55 D5 EE BA AA AA AA AA AA 8A A2 48 55 55 ED AE AD AA AA AA AA AA 28 8A 54
DPCM : 55 55 BB 6B AB AA AA AA AA 8A 92 48 55 55 B5 EB BA AA AA AA AA AA A8 88 54 55 55 ED AE AE AA AA
DPCM : AA AA 8A 8A 28 55 55 D5 AE EB AA AA AA AA 2A A9 28 52 55 55 AD BB BA AA AA AA AA 8A 8A 22 55 55
DPCM : 55 BB AE AD AA AA AA AA A4 24 4A 55 55 B5 EB EA AA AA AA AA 2A 2A 8A 54 55 55 ED B6 AE AA AA AA
DPCM : AA A2 A2 28 55 55 D5 AE 6B AB AA AA AA 2A 29 89 52 55 55 AD AB AD B6 AA AA 52 AA A4 24 55 55 D5
DPCM : BA DA 6A AB AA AA 94 2A 29 4A 55 55 B5 6B AB B6 AA AA 2A A5 92 92 54 55 55 BB BA 6A AB AA AA 4A
DPCM : AA A4 28 55 55 B5 AE AB B6 AA AA AA 94 4A 4A 52 55 55 EB DA 6A A9 AA AA 4A A5 AA A4 52 55 B5 B6
DPCM : AA B5 AA AA AA 2A A5 2A 29 55 55 6B AB DA AA AA AA AA 4A A9 4A 4A 55 B5 B6 6A AB AA AA AA AA 52
DPCM : AA A2 52 55 6B AB B6 AA AA AA AA AA 94 2A A9 54 B5 B6 6A AB AA AA AA AA 2A A5 52 AA AA 6A AD AA
DPCM : AA AA AA AA AA AA AA 54 AA AA AD AA AA AA AA AA AA AA AA AA 52 AA D6 AA AA AA 56 55 55 A5 AA AA
DPCM : AA 94 5A AB AA AA 56 55 55 55 95 AA AA 2A A5 B5 2A
DPCMDEF  35   401 "dpcm a#2q.dmc"
DPCM : 89 88 88 BA DA AA AA AA AA AA AA AA AA 4A 2A 29 89 56 55 D5 BA AE AE AA AA AA AA AA AA AA AA 2A
DPCM : 2A 29 4A 55 55 D5 BA B6 DA AA AA AA AA AA AA AA AA A4 92 A2 54 55 55 D5 BA AE DA AA AA AA AA AA
DPCM : AA AA 4A AA A8 28 55 55 55 D5 AE AE AD AA AA AA AA AA AA AA 4A 2A 2A 52 55 55 55 B5 AE AB AE AA
DPCM : AA AA AA AA AA AA A2 8A 92 54 55 55 55 B5 AD AB AE AA AA AA AA AA AA 2A A9 A2 A4 54 55 55 55 AD
DPCM : EB AA AD AA AA AA AA AA AA 4A AA 28 2A 55 55 55 55 EB 6A AB AD AA AA AA AA AA AA A4 4A 4A 4A 55
DPCM : 55 55 55 EB DA AA AB AA AA AA AA AA AA A8 92 8A 52 55 55 55 D5 BA B6 EA AA AA AA AA AA AA 2A AA
DPCM : A4 A2 54 55 55 55 B5 AE AD DA AA AA AA AA AA AA 8A 92 2A A9 54 55 55 55 AD AD DA AA DA AA AA AA
DPCM : 2A 95 AA 92 2A 2A 55 55 55 55 6B AB AD 6A AD AA AA AA AA 94 AA 92 2A 4A 55 55 55 D5 DA 6A AB 5A
DPCM : AB AA AA AA AA 94 AA 94 8A 4A 55 55 55 B5 B6 DA AA D5 AA AA AA 2A 52 A5 AA 2A A5 4A 55 55 55 AB
DPCM : B6 AA 5A AD AA AA AA AA AA 54 AA AA 94 2A 55 55 D5 6A AB AA B5 AA AA AA AA AA AA 4A A9 AA 94 4A
DPCM : 55 55 AD B6 AA 56 AB AA AA AA AA AA AA 4A A5 AA A4 4A 55 55 AB AD AA B5 AA AA AA A8 AA AA AA AA
DPCM : AA AA 54 A9 AA AA D5 AA AA AA AA AA AA AA AA AA AA AA AA AA 2A A5 AA 56 AB AA AA AA 6A 55 55 55
DPCM : 55 55 A9 AA AA AA 2A 95 6A B5 AA AA AA 5A 55 55 55
DPCMDEF  36   401 "dpcm a2q.dmc"
DPCM : 89 88 AA AA AA A4 A2 24 5A 55 D5 B6 AB AB AA AA AA AA AA AA AA AA AA 2A A9 A8 28 55 55 D5 BA B6
DPCM : B6 AA AA AA AA AA AA AA AA AA A2 8A 8A 52 55 55 D5 DA BA 5A AB AA AA AA AA AA AA AA 4A AA A4 22
DPCM : 55 55 55 55 BB BA 6A AB AA AA AA AA AA AA AA 4A 29 29 49 55 55 55 D5 BA BA D6 AA AA AA AA AA AA
DPCM : AA AA 92 8A 8A 52 55 55 55 D5 BA B6 DA AA AA AA AA AA AA AA 2A A9 A2 A2 54 55 55 55 D5 B6 AE DA
DPCM : AA AA AA AA AA AA AA 4A AA A8 24 55 55 55 55 B5 AE B6 EA AA AA AA AA AA AA AA A2 2A 2A 2A 55 55
DPCM : 55 55 B5 AD AD DA AA AA AA AA AA AA AA A4 4A 2A 4A 55 55 55 55 AD AB AB B6 AA AA AA AA AA AA 2A
DPCM : A9 92 8A 4A 55 55 55 55 EB EA AA AD AA AA AA AA AA 92 AA 52 AA A4 52 55 55 55 D5 EA AA AD AA AD
DPCM : AA AA AA 2A 95 AA 4A AA A4 52 55 55 55 B5 BA 6A AB 5A AD AA AA AA AA 52 AA 4A AA A4 54 55 55 55
DPCM : AD AE DA AA D6 AA AA AA AA AA 54 AA 52 2A 29 55 55 55 55 AD AB B6 62 D5 AA AA AA AA AA 52 A5 AA
DPCM : 4A A9 52 55 55 B5 6A AB AA B5 AA AA AA AA AA AA AA 94 AA 2A A9 52 55 55 AD D6 AA 56 AB AA AA AA
DPCM : AA AA AA AA 54 AA 2A A5 52 55 55 AB AD AA B5 AA AA AA AA AA AA AA AA 52 AA 2A A9 AA AA AA 5A AD
DPCM : AA AA AA AA AA AA AA AA AA AA AA AA AA 54 A9 AA 6A AD AA AA AA AA 5A 55 55 55 95 AA AA AA AA AA
DPCM : 4A 95 6A B5 AA AA AA 6A 55 55 55 55 55 55 55 A9 55
DPCMDEF  37   401 "dpcm g#2q.dmc"
DPCM : 89 88 AA AA AA A4 92 A2 58 55 55 ED BA DA AA AA AA AA AA AA AA AA AA AA AA A8 A2 A8 54 55 55 B5
DPCM : AB AB AD AA AA AA AA AA AA AA AA AA 92 2A 29 29 55 55 55 B5 AE AE DA AA AA AA AA AA AA AA AA 2A
DPCM : A9 92 4A 4A 55 55 55 D5 B6 AE B6 AA AA AA AA AA AA AA AA AA A4 A2 92 54 55 55 55 D5 BA BA DA AA
DPCM : AA AA AA AA AA AA AA 4A AA A4 A4 54 55 55 55 D5 BA BA 6A AB AA AA AA AA AA AA AA 4A AA A8 A8 54
DPCM : 55 55 55 D5 BA BA 6A AB AA AA AA AA AA AA AA A4 2A 29 A9 54 55 55 55 D5 BA DA AA AD AA AA AA AA
DPCM : AA AA AA A4 2A AA 28 55 55 55 55 D5 BA DA AA AD AA AA AA AA AA AA AA A4 4A 2A 2A 55 55 55 55 D5
DPCM : BA DA AA AD AA AA AA AA AA AA AA A8 4A 2A 2A 55 55 55 55 D5 DA AA AD AA B6 AA AA AA AA 54 A9 2A
DPCM : A5 4A 2A 55 55 55 55 B5 BA 6A AB 5A AD AA AA AA AA 4A A5 AA 94 2A 29 55 55 55 55 AD B6 6A AB 5A
DPCM : AD AA AA AA AA 2A A5 AA 92 2A 29 55 55 55 55 AD AE DA AA 56 AB AA A8 AA AA 4A 55 AA AA 52 AA 52
DPCM : 55 55 D5 AA B5 AA 5A AD AA AA AA AA AA AA 4A A5 AA 2A A9 4A 55 55 D5 6A AD AA D5 AA AA AA AA AA
DPCM : AA AA 2A 55 AA 2A A5 4A 55 55 B5 DA AA 5A AD AA AA AA AA AA AA AA AA 52 A9 AA 92 AA AA AA AA 55
DPCM : AB AA AA AA AA AA AA AA AA AA AA AA AA AA 4A 95 AA AA 56 AB AA AA AA AA 5A 55 55 55 55 A5 AA AA
DPCM : AA AA AA 52 A9 6A B5 AA AA AA AA 55 55 55 55 55 55
DPCMDEF  38   401 "dpcm g2q.dmc"
DPCM : 89 88 68 AB AA AA AA AA AA AA AA AA AA 52 AA A4 A2 64 55 55 55 ED 6A AB AD AA AA AA AA AA AA AA
DPCM : AA AA 2A A9 92 8A 4A 55 55 55 B5 AE B6 5A AB AA AA AA AA AA AA AA AA 4A AA A4 92 52 55 55 55 D5
DPCM : EA EA AA B5 AA AA AA AA AA AA AA AA 2A A9 92 8A 52 55 55 55 55 6D AB AB B5 AA AA AA AA AA AA AA
DPCM : AA 2A A9 92 8A 52 55 55 55 55 B5 AE AE 6A AB AA AA AA AA AA AA AA 4A A9 8A 4A 4A 55 55 55 55 D5
DPCM : B6 B6 6A AB AA AA AA AA AA AA AA 4A AA 94 4A 4A 55 55 55 55 55 EB 6A AB DA AA AA AA AA AA AA AA
DPCM : 4A AA 52 2A 2A 55 55 55 55 55 AB AB AD DA AA AA AA AA AA AA AA 2A A9 4A A9 A8 54 55 55 55 55 AD
DPCM : AB AD 6A AB AA AA AA AA AA AA AA A4 2A A9 A2 52 55 55 55 55 B5 B6 6A AD AA B6 AA AA AA AA 52 A5
DPCM : AA 52 AA A2 52 55 55 55 55 B5 DA 6A AB 6A B5 AA AA AA AA AA 54 AA 2A A9 4A 4A 55 55 55 55 B5 B6
DPCM : AA AD AA B5 AA AA AA AA AA 4A A9 AA 94 2A 29 55 55 55 55 D5 5A AD AA 5A B5 AA AA AA AA AA AA 52
DPCM : A5 AA 2A A5 2A 55 55 55 AD DA AA AA D5 AA AA AA AA AA AA AA AA 52 A9 AA 52 AA 54 55 55 AD DA AA
DPCM : 6A D5 AA AA AA AA AA AA AA AA 2A 95 AA 2A A9 4A 55 55 AD DA AA 6A B5 AA AA AA A2 AA AA AA AA AA
DPCM : AA AA AA 52 A5 AA AA 5A B5 AA AA AA AA AA 5A 96 AA AA AA AA AA AA AA AA AA 52 95 AA 55 AB AA AA
DPCM : AA 6A 55 55 55 55 55 55 55 55 AA AA AA AA AA 52 55
DPCMDEF  39   401 "dpcm f#2q.dmc"
DPCM : 89 88 AA AA AA AA AA AA AA AA 2A A5 4A 2A 4A 56 55 55 55 EB EA AA AD AA AA AA AA AA AA AA AA AA
DPCM : AA 52 AA A4 92 52 55 55 55 B5 B6 DA 6A AD AA AA AA AA AA AA AA AA AA 92 AA A4 8A 4A 55 55 55 55
DPCM : AD AB AE 6A AB AA AA AA AA AA AA AA AA AA A4 8A 4A 4A 55 55 55 55 D5 DA BA AA AD AA AA AA AA AA
DPCM : AA AA AA AA A4 2A 2A 29 55 55 55 55 55 AD AD AD 6A AB AA AA AA AA AA AA AA AA 94 AA A8 A2 52 55
DPCM : 55 55 55 D5 BA DA AA AD AA AA AA AA AA AA AA AA 92 AA 94 8A 4A 55 55 55 55 55 AD AB AE 6A AB AA
DPCM : AA AA AA AA AA AA 4A AA 52 AA A8 54 55 55 55 55 B5 B6 DA AA B6 AA AA AA AA AA AA AA AA A4 2A A5
DPCM : A2 4A 55 55 55 55 55 EB 6A AB 6A AB AA AA AA CA 54 55 A5 AA 4A A9 4A 2A 55 55 55 55 55 AB B6 6A
DPCM : AB AA D5 AA AA AA AA AA 54 A9 AA A4 AA A4 52 55 55 55 55 B5 BA AA AD AA 55 AB AA AA AA AA AA 54
DPCM : AA 2A A9 4A 2A 55 55 55 55 D5 6A AB D5 AA 56 AB AA AA AA AA 8A 54 A9 AA AA 52 AA 2A 55 55 55 55
DPCM : AB D6 AA AA 56 AB AA AA AA AA AA AA 4A 55 AA AA 52 A9 4A 55 55 55 AB D6 AA 6A B5 AA AA AA AA AA
DPCM : AA AA AA 2A 95 AA AA 94 AA 54 55 55 AD DA AA 6A B5 AA AA AA AA AA AA AA AA 2A AA AA AA 54 95 AA
DPCM : AA AA AA 56 AB AA AA AA AA AA AA AA AA AA AA AA AA AA AA AA AA 54 A5 AA 6A B5 AA AA AA AA AA 56
DPCM : 55 55 55 55 55 55 A9 AA AA AA AA AA 54 A9 5A B5 2A

# Instruments
INST2A03   0     0   1  -1  -1  -1 "Samples / Snare"
KEYDPCM   0   2   1    19  14   0     0  -1
KEYDPCM   0   2   2    18  14   0     0  -1
KEYDPCM   0   2   3    17  14   0     0  -1
KEYDPCM   0   2   4    16  14   0     0  -1
KEYDPCM   0   2   5    15  14   0     0  -1
KEYDPCM   0   2   6    19  15   0     0  -1
KEYDPCM   0   2   7    18  15   0     0  -1
KEYDPCM   0   2   8    17  15   0     0  -1
KEYDPCM   0   2   9    16  15   0     0  -1
KEYDPCM   0   2  10    15  15   0     0  -1
KEYDPCM   0   2  11    14  14   0     0  -1
KEYDPCM   0   3   0    13  14   0     0  -1
KEYDPCM   0   3   1    12  14   0     0  -1
KEYDPCM   0   3   2    11  14   0     0  -1
KEYDPCM   0   3   3    10  14   0     0  -1
KEYDPCM   0   3   4    14  15   0     0  -1
KEYDPCM   0   3   5    13  15   0     0  -1
KEYDPCM   0   3   6    12  15   0     0  -1
KEYDPCM   0   3   7    11  15   0     0  -1
KEYDPCM   0   3   8    10  15   0     0  -1
KEYDPCM   0   3   9     9  14   0     0  -1
KEYDPCM   0   3  10     8  14   0     0  -1
KEYDPCM   0   3  11     7  14   0     0  -1
KEYDPCM   0   4   0     6  14   0     0  -1
KEYDPCM   0   4   1     5  14   0     0  -1
KEYDPCM   0   4   2     9  15   0     0  -1
KEYDPCM   0   4   3     8  15   0     0  -1
KEYDPCM   0   4   4     7  15   0     0  -1
KEYDPCM   0   4   5     6  15   0     0  -1
KEYDPCM   0   4   6     5  15   0     0  -1
KEYDPCM   0   4   7     4  14   0     0  -1
KEYDPCM   0   4   8     3  14   0     0  -1
KEYDPCM   0   4   9     2  14   0     0  -1
KEYDPCM   0   4  10     1  14   0     0  -1
KEYDPCM   0   4  11     0  14   0     0  -1
KEYDPCM   0   5   0     4  15   0     0  -1
KEYDPCM   0   5   1     3  15   0     0  -1
KEYDPCM   0   5   2     2  15   0     0  -1
KEYDPCM   0   5   3     1  15   0     0  -1
KEYDPCM   0   5   4     0  15   0     0  -1
INST2A03   1     0   0  -1  -1  -1 "Del. Samples/Kick"
KEYDPCM   1   2   1    39  14   0     0  -1
KEYDPCM   1   2   2    38  14   0     0  -1
KEYDPCM   1   2   3    37  14   0     0  -1
KEYDPCM   1   2   4    36  14   0     0  -1
KEYDPCM   1   2   5    35  14   0     0  -1
KEYDPCM   1   2   6    39  15   0     0  -1
KEYDPCM   1   2   7    38  15   0     0  -1
KEYDPCM   1   2   8    37  15   0     0  -1
KEYDPCM   1   2   9    36  15   0     0  -1
KEYDPCM   1   2  10    35  15   0     0  -1
KEYDPCM   1   2  11    34  14   0     0  -1
KEYDPCM   1   3   0    33  14   0     0  -1
KEYDPCM   1   3   1    32  14   0     0  -1
KEYDPCM   1   3   2    31  14   0     0  -1
KEYDPCM   1   3   3    30  14   0     0  -1
KEYDPCM   1   3   4    34  15   0     0  -1
KEYDPCM   1   3   5    33  15   0     0  -1
KEYDPCM   1   3   6    32  15   0     0  -1
KEYDPCM   1   3   7    31  15   0     0  -1
KEYDPCM   1   3   8    30  15   0     0  -1
KEYDPCM   1   3   9    29  14   0     0  -1
KEYDPCM   1   3  10    28  14   0     0  -1
KEYDPCM   1   3  11    27  14   0     0  -1
KEYDPCM   1   4   0    26  14   0     0  -1
KEYDPCM   1   4   1    25  14   0     0  -1
KEYDPCM   1   4   2    29  15   0     0  -1
KEYDPCM   1   4   3    28  15   0     0  -1
KEYDPCM   1   4   4    27  15   0     0  -1
KEYDPCM   1   4   5    26  15   0     0  -1
KEYDPCM   1   4   6    25  15   0     0  -1
KEYDPCM   1   4   7    24  14   0     0  -1
KEYDPCM   1   4   8    23  14   0     0  -1
KEYDPCM   1   4   9    22  14   0     0  -1
KEYDPCM   1   4  10    21  14   0     0  -1
KEYDPCM   1   4  11    20  14   0     0  -1
KEYDPCM   1   5   0    24  15   0     0  -1
KEYDPCM   1   5   1    23  15   0     0  -1
KEYDPCM   1   5   2    22  15   0     0  -1
KEYDPCM   1   5   3    21  15   0     0  -1
KEYDPCM   1   5   4    20  15   0     0  -1
INST2A03   2     7  -1  -1  -1   2 "Det. Piano 1 / Bass"
INST2A03   3     2   3  -1  -1  -1 "Hats"
INST2A03   4     1   2  -1  -1  -1 "Noise Snare"
INST2A03   5     7  -1  -1  -1   6 "Detuned Piano 2"
INST2A03   6     4   3  -1  -1  -1 "Open Hats"
INST2A03   7    -1  -1  -1  -1  -1 "Generic"
INST2A03   8     6  -1  -1  -1   4 "Guitar"
INST2A03   9     3  -1   1  -1   1 "Haunter"
INST2A03  10     8  -1  -1  -1   0 "Copycat"
INST2A03  11     3  -1   0  -1   1 "Haunter 1/2 Vib"
INST2A03  12     9   5  -1  -1  -1 "Crash"

# Tracks

TRACK  96   3 150 "New song"
COLUMNS : 3 3 1 1 2

ORDER 00 : 00 00 00 00 00
ORDER 01 : 01 01 01 01 01
ORDER 02 : 02 02 02 02 02
ORDER 03 : 03 03 03 03 03
ORDER 04 : 04 04 04 04 04
ORDER 05 : 05 05 05 05 05
ORDER 06 : 06 06 06 06 06
ORDER 07 : 07 07 07 07 07
ORDER 08 : 08 08 08 08 08
ORDER 09 : 09 09 09 09 09
ORDER 0A : 0A 0A 0A 0A 0A
ORDER 0B : 0B 0B 0B 0B 0B
ORDER 0C : 0C 0C 0C 0C 0C
ORDER 0D : 0D 0D 0D 0D 0D
ORDER 0E : 0E 0E 0E 0E 0E
ORDER 0F : 0F 0F 0F 0F 0F
ORDER 10 : 10 10 10 10 10
ORDER 11 : 11 11 11 11 11
ORDER 12 : 12 12 12 12 12
ORDER 13 : 13 13 13 13 13
ORDER 14 : 14 14 14 14 14
ORDER 15 : 15 15 15 15 15
ORDER 16 : 16 16 16 16 16
ORDER 17 : 17 17 17 17 17
ORDER 18 : 18 18 18 18 18

PATTERN 00
ROW 00 : A#3 02 F ... ... P7F : ... .. . ... ... P81 : F-3 01 . ... : C-# 0C F ... : D#2 00 . Z40 ...
ROW 01 : ... .. . ... ... ... : ... .. . ... ... ... : D#2 07 . ... : ... .. . ... : ... .. . ... ...
ROW 02 : ... .. . ... ... ... : ... .. . ... ... ... : ... .. . ... : ... .. . ... : A#2 01 . ... ...
ROW 03 : --- .. . ... ... ... : ... .. . ... ... ... : ... .. . ... : ... .. . ... : ... .. . ... ...
ROW 04 : ... .. . ... ... ... : F#3 05 F ... ... ... : ... .. . ... : ... .. . ... : A#2 00 . ... ...
ROW 05 : ... .. . ... ... ... : ... .. . ... ... ... : ... .. . ... : ... .. . ... : ... .. . ... ...
ROW 06 : ... .. . ... ... ... : ... .. . ... ... ... : ... .. . ... : ... .. . ... : D#2 01 . ... ...
ROW 07 : ... .. . ... ... ... : --- .. . ... ... ... : ... .. . ... : ... .. . ... : ... .. . ... ...
ROW 08 : D#3 02 F ... ... ... : ... .. . ... ... ... : ... .. . ... : ... .. . ... : F#3 00 . ... ...
ROW 09 : ... .. . ... ... ... : ... .. . ... ... ... : ... .. . ... : ... .. . ... : ... .. . ... ...
ROW 0A : ... .. . ... ... ... : ... .. . ... ... ... : ... .. . ... : ... .. . ... : A#2 01 . ... ...
ROW 0B : F#3 07 3 V01 ... ... : ... .. . ... ... ... : ... .. . ... : ... .. . ... : ... .. . ... ...
ROW 0C : ... .. . ... ... ... : F#3 05 F ... ... ... : ... .. . ... : ... .. . ... : F#2 00 . ... ...
ROW 0D : ... .. . ... ... ... : ... .. . ... ... ... : ... .. . ... : ... .. . ... : ... .. . ... ...
ROW 0E : --- .. . ... ... ... : ... .. . ... ... ... : ... .. . ... : ... .. . ... : F#3 01 . ... ...
ROW 0F : ... .. . ... ... ... : D#3 07 3 V02 ... ... : ... .. . ... : ... .. . ... : ... .. . ... ...
ROW 10 : D#3 02 F ... ... ... : ... .. . ... ... ... : ... .. . ... : ... .. . ... : D#3 00 . ... ...
ROW 11 : ... .. . ... ... ... : ... .. . ... ... ... : ... .. . ... : ... .. . ... : ... .. . ... ...
ROW 12 : ... .. . ... ... ... : F#3 07 2 V01 ... ... : ... .. . ... : ... .. . ... : F#2 01 . ... ...
ROW 13 : F#3 07 3 V01 ... ... : ... .. . ... ... ... : ... .. . ... : ... .. . ... : ... .. . ... ...
ROW 14 : ... .. . ... ... ... : A#2 05 F ... ... ... : ... .. . ... : ... .. . ... : A#3 00 . ... ...
ROW 15 : ... .. . ... ... ... : ... .. . ... ... ... : ... .. . ... : ... .. . ... : ... .. . ... ...
ROW 16 : D#3 07 2 V02 ... ... : ... .. . ... ... ... : ... .. . ... : ... .. . ... : D#3 01 . ... ...
ROW 17 : ... .. . ... ... ... : D#3 07 3 V02 ... ... : ... .. . ... : ... .. . ... : ... .. . ... ...
ROW 18 : D#2 02 F ... ... ... : ... .. . ... ... ... : ... .. . ... : ... .. . ... : A#2 00 . ... ...
ROW 19 : ... .. . ... ... ... : ... .. . ... ... ... : ... .. . ... : ... .. . ... : ... .. . ... ...
ROW 1A : ... .. . ... ... ... : F#3 07 2 V01 ... ... : ... .. . ... : ... .. . ... : A#3 01 . ... ...
ROW 1B : A#2 07 3 V01 ... ... : ... .. . ... ... ... : ... .. . ... : ... .. . ... : ... .. . ... ...
ROW 1C : ... .. . ... ... ... : F#2 05 F ... ... ... : ... .. . ... : C-# 03 . ... : F#3 00 . ... ...
ROW 1D : ... .. . ... ... ... : ... .. . ... ... ... : ... .. . ... : ... .. . ... : ... .. . ... ...
ROW 1E : D#3 07 2 V02 ... ... : ... .. . ... ... ... : ... .. . ... : C-# 03 . ... : A#2 01 . ... ...
ROW 1F : ... .. . ... ... ... : D#2 07 3 V02 ... ... : ... .. . ... : ... .. . ... : ... .. . ... ...
ROW 20 : A#2 02 F ... ... ... : ... .. . ... ... ... : ... .. . ... : C-# 03 . ... : D#4 00 . ... ...
ROW 21 : ... .. . ... ... ... : ... .. . ... ... ... : ... .. . ... : ... .. . ... : ... .. . ... ...
ROW 22 : ... .. . ... ... ... : A#2 07 2 V01 ... ... : ... .. . ... : C-# 03 . ... : F#3 01 . ... ...
ROW 23 : F#2 07 3 V01 ... ... : ... .. . ... ... ... : ... .. . ... : ... .. . ... : ... .. . ... ...
ROW 24 : ... .. . ... ... ... : D#3 05 F ... ... ... : F-3 01 . ... : C-# 06 . ... : D#3 00 . Z40 ...
ROW 25 : ... .. . ... ... ... : ... .. . ... ... ... : D#2 07 . ... : ... .. . ... : ... .. . ... ...
ROW 26 : D#2 07 2 V02 ... ... : ... .. . ... ... ... : ... .. . ... : ... .. . ... : D#4 01 . ... ...
ROW 27 : ... .. . ... ... ... : A#2 07 3 V02 ... ... : ... .. . ... : ... .. . ... : ... .. . ... ...
ROW 28 : G#3 02 F ... ... ... : ... .. . ... ... ... : F-3 01 . ... : C-# 03 . ... : A#3 00 . Z40 ...
ROW 29 : ... .. . ... ... ... : ... .. . ... ... ... : D#2 07 . ... : ... .. . ... : ... .. . ... ...
ROW 2A : ... .. . ... ... ... : F#2 07 2 V01 ... ... : ... .. . ... : C-# 03 . ... : D#3 01 . ... ...
ROW 2B : D#3 07 3 V01 ... ... : ... .. . ... ... ... : ... .. . ... : ... .. . ... : ... .. . ... ...
ROW 2C : ... .. . ... ... ... : A#3 05 F ... ... ... : F-3 01 . ... : C-# 03 . ... : F#4 00 . Z40 ...
ROW 2D : ... .. . ... ... ... : ... .. . ... ... ... : D#2 07 . ... : ... .. . ... : ... .. . ... ...
ROW 2E : A#2 07 2 V02 ... ... : ... .. . ... ... ... : ... .. . ... : C-# 03 . ... : A#3 01 . ... ...
ROW 2F : ... .. . ... ... ... : G#3 07 3 V02 ... ... : ... .. . ... : ... .. . ... : ... .. . ... ...
ROW 30 : G#3 02 F ... ... ... : ... .. . ... ... ... : F-3 01 . ... : C-# 0C . ... : D-2 00 . Z40 ...
ROW 31 : ... .. . ... ... ... : ... .. . ... ... ... : D-2 07 . ... : ... .. . ... : ... .. . ... ...
ROW 32 : ... .. . ... ... ... : D#3 07 2 V01 ... ... : ... .. . ... : ... .. . ... : F#4 01 . ... ...
ROW 33 : A#3 07 3 V01 ... ... : ... .. . ... ... ... : ... .. . ... : ... .. . ... : ... .. . ... ...
ROW 34 : ... .. . ... ... ... : F-3 05 F ... ... ... : ... .. . ... : ... .. . ... : A#2 00 . ... ...
ROW 35 : ... .. . ... ... ... : ... .. . ... ... ... : ... .. . ... : ... .. . ... : ... .. . ... ...
ROW 36 : G#3 07 2 V02 ... ... : ... .. . ... ... ... : ... .. . ... : ... .. . ... : D-2 01 . ... ...
ROW 37 : ... .. . ... ... ... : G#3 07 3 V02 ... ... : ... .. . ... : ... .. . ... : ... .. . ... ...
ROW 38 : D-3 02 F ... ... ... : ... .. . ... ... ... : ... .. . ... : ... .. . ... : F-3 00 . ... ...
ROW 39 : ... .. . ... ... ... : ... .. . ... ... ... : ... .. . ... : ... .. . ... : ... .. . ... ...
ROW 3A : ... .. . ... ... ... : A#3 07 2 V01 ... ... : ... .. . ... : ... .. . ... : A#2 01 . ... ...
ROW 3B : F-3 07 3 V01 ... ... : ... .. . ... ... ... : ... .. . ... : ... .. . ... : ... .. . ... ...
ROW 3C : ... .. . ... ... ... : F-3 05 F ... ... ... : ... .. . ... : ... .. . ... : F-2 00 . ... ...
ROW 3D : ... .. . ... ... ... : ... .. . ... ... ... : ... .. . ... : ... .. . ... : ... .. . ... ...
ROW 3E : G#3 07 2 V02 ... ... : ... .. . ... ... ... : ... .. . ... : ... .. . ... : F-3 01 . ... ...
ROW 3F : ... .. . ... ... ... : D-3 07 3 V02 ... ... : ... .. . ... : ... .. . ... : ... .. . ... ...
ROW 40 : D-3 02 F ... ... ... : ... .. . ... ... ... : ... .. . ... : ... .. . ... : D-3 00 . ... ...
ROW 41 : ... .. . ... ... ... : ... .. . ... ... ... : ... .. . ... : ... .. . ... : ... .. . ... ...
ROW 42 : ... .. . ... ... ... : F-3 07 2 V01 ... ... : ... .. . ... : ... .. . ... : F-2 01 . ... ...
ROW 43 : F-3 07 3 V01 ... ... : ... .. . ... ... ... : ... .. . ... : ... .. . ... : ... .. . ... ...
ROW 44 : ... .. . ... ... ... : A#2 05 F ... ... ... : ... .. . ... : ... .. . ... : A#3 00 . ... ...
ROW 45 : ... .. . ... ... ... : ... .. . ... ... ... : ... .. . ... : ... .. . ... : ... .. . ... ...
ROW 46 : D-3 07 2 V02 ... ... : ... .. . ... ... ... : ... .. . ... : ... .. . ... : D-3 01 . ... ...
ROW 47 : ... .. . ... ... ... : D-3 07 3 V02 ... ... : ... .. . ... : ... .. . ... : ... .. . ... ...
ROW 48 : F-2 02 F ... ... ... : ... .. . ... ... ... : ... .. . ... : ... .. . ... : A#2 00 . ... ...
ROW 49 : ... .. . ... ... ... : ... .. . ... ... ... : ... .. . ... : ... .. . ... : ... .. . ... ...
ROW 4A : ... .. . ... ... ... : F-3 07 2 V01 ... ... : ... .. . ... : ... .. . ... : A#3 01 . ... ...
ROW 4B : A#2 07 3 V01 ... ... : ... .. . ... ... ... : ... .. . ... : ... .. . ... : ... .. . ... ...
ROW 4C : ... .. . ... ... ... : A#2 05 F ... ... ... : ... .. . ... : C-# 03 . ... : F-3 00 . ... ...
ROW 4D : ... .. . ... ... ... : ... .. . ... ... ... : ... .. . ... : ... .. . ... : ... .. . ... ...
ROW 4E : D-3 07 2 V02 ... ... : ... .. . ... ... ... : ... .. . ... : ... .. . ... : A#2 01 . ... ...
ROW 4F : ... .. . ... ... ... : F-2 07 3 V02 ... ... : ... .. . ... : ... .. . ... : ... .. . ... ...
ROW 50 : F-2 02 F ... ... ... : ... .. . ... ... ... : ... .. . ... : C-# 03 . ... : D-4 00 . ... ...
ROW 51 : ... .. . ... ... ... : ... .. . ... ... ... : ... .. . ... : ... .. . ... : ... .. . ... ...
ROW 52 : ... .. . ... ... ... : A#2 07 2 V01 ... ... : ... .. . ... : ... .. . ... : F-3 01 . ... ...
ROW 53 : A#2 07 3 V01 ... ... : ... .. . ... ... ... : ... .. . ... : ... .. . ... : ... .. . ... ...
ROW 54 : ... .. . ... ... ... : F-3 05 F ... ... ... : F-3 01 . ... : C-# 06 . ... : D-3 00 . Z40 ...
ROW 55 : ... .. . ... ... ... : ... .. . ... ... ... : D-2 07 . ... : ... .. . ... : ... .. . ... ...
ROW 56 : F-2 07 2 V02 ... ... : ... .. . ... ... ... : ... .. . ... : ... .. . ... : D-4 01 . ... ...
ROW 57 : ... .. . ... ... ... : F-2 07 3 V02 ... ... : ... .. . ... : ... .. . ... : ... .. . ... ...
ROW 58 : D-3 02 F ... ... ... : ... .. . ... ... ... : F-3 01 . ... : C-# 03 . ... : A#3 00 . Z40 ...
ROW 59 : ... .. . ... ... ... : ... .. . ... ... ... : D-2 07 . ... : ... .. . ... : ... .. . ... ...
ROW 5A : ... .. . ... ... ... : A#2 07 2 V01 ... ... : ... .. . ... : ... .. . ... : D-3 01 . ... ...
ROW 5B : F-3 07 3 V01 ... ... : ... .. . ... ... ... : ... .. . ... : ... .. . ... : ... .. . ... ...
ROW 5C : ... .. . ... ... ... : A#2 05 F ... ... ... : F-3 01 . ... : C-# 03 . ... : F-4 00 . Z40 ...
ROW 5D : ... .. . ... ... ... : ... .. . ... ... ... : D-2 07 . ... : ... .. . ... : ... .. . ... ...
ROW 5E : F-2 07 2 V02 ... ... : ... .. . ... ... ... : ... .. . ... : ... .. . ... : A#3 01 . ... ...
ROW 5F : ... .. . ... ... ... : D-3 07 3 V02 ... ... : ... .. . ... : ... .. . ... : ... .. . ... ...

PATTERN 01
ROW 00 : G#3 02 F ... ... P7F : ... .. . ... ... P81 : F-3 01 . ... : C-# 0C . ... : C#2 00 . Z40 ...
ROW 01 : ... .. . ... ... ... : ... .. . ... ... ... : C#2 07 . ... : ... .. . ... : ... .. . ... ...
ROW 02 : ... .. . ... ... ... : F-3 07 2 V01 ... ... : ... .. . ... : ... .. . ... : F-4 01 . ... ...
ROW 03 : A#2 07 3 V01 ... ... : ... .. . ... ... ... : ... .. . ... : ... .. . ... : ... .. . ... ...
ROW 04 : ... .. . ... ... ... : F-3 05 F ... ... ... : ... .. . ... : ... .. . ... : G#2 00 . ... ...
ROW 05 : ... .. . ... ... ... : ... .. . ... ... ... : ... .. . ... : ... .. . ... : ... .. . ... ...
ROW 06 : D-3 07 2 V02 ... ... : ... .. . ... ... ... : ... .. . ... : ... .. . ... : C#2 01 . ... ...
ROW 07 : ... .. . ... ... ... : G#3 07 3 V02 ... ... : ... .. . ... : ... .. . ... : ... .. . ... ...
ROW 08 : C#3 02 F ... ... ... : ... .. . ... ... ... : ... .. . ... : ... .. . ... : F-3 00 . ... ...
ROW 09 : ... .. . ... ... ... : ... .. . ... ... ... : ... .. . ... : ... .. . ... : ... .. . ... ...
ROW 0A : ... .. . ... ... ... : A#2 07 2 V01 ... ... : ... .. . ... : ... .. . ... : G#2 01 . ... ...
ROW 0B : F-3 07 3 V01 ... ... : ... .. . ... ... ... : ... .. . ... : ... .. . ... : ... .. . ... ...
ROW 0C : ... .. . ... ... ... : G#2 05 F ... ... ... : ... .. . ... : ... .. . ... : F-2 00 . ... ...
ROW 0D : ... .. . ... ... ... : ... .. . ... ... ... : ... .. . ... : ... .. . ... : ... .. . ... ...
ROW 0E : G#3 07 2 V02 ... ... : ... .. . ... ... ... : ... .. . ... : ... .. . ... : F-3 01 . ... ...
ROW 0F : ... .. . ... ... ... : C#3 07 3 V02 ... ... : ... .. . ... : ... .. . ... : ... .. . ... ...
ROW 10 : F-2 02 F ... ... ... : ... .. . ... ... ... : ... .. . ... : ... .. . ... : C#3 00 . ... ...
ROW 11 : ... .. . ... ... ... : ... .. . ... ... ... : ... .. . ... : ... .. . ... : ... .. . ... ...
ROW 12 : ... .. . ... ... ... : F-3 07 2 V01 ... ... : ... .. . ... : ... .. . ... : F-2 01 . ... ...
ROW 13 : G#2 07 3 V01 ... ... : ... .. . ... ... ... : ... .. . ... : ... .. . ... : ... .. . ... ...
ROW 14 : ... .. . ... ... ... : C#2 05 F ... ... ... : ... .. . ... : ... .. . ... : G#3 00 . ... ...
ROW 15 : ... .. . ... ... ... : ... .. . ... ... ... : ... .. . ... : ... .. . ... : ... .. . ... ...
ROW 16 : C#3 07 2 V02 ... ... : ... .. . ... ... ... : ... .. . ... : ... .. . ... : C#3 01 . ... ...
ROW 17 : ... .. . ... ... ... : F-2 07 3 V02 ... ... : ... .. . ... : ... .. . ... : ... .. . ... ...
ROW 18 : F-3 02 F ... ... ... : ... .. . ... ... ... : ... .. . ... : ... .. . ... : G#2 00 . ... ...
ROW 19 : ... .. . ... ... ... : ... .. . ... ... ... : ... .. . ... : ... .. . ... : ... .. . ... ...
ROW 1A : ... .. . ... ... ... : G#2 07 2 V01 ... ... : ... .. . ... : ... .. . ... : G#3 01 . ... ...
ROW 1B : C#2 07 3 V01 ... ... : ... .. . ... ... ... : ... .. . ... : ... .. . ... : ... .. . ... ...
ROW 1C : ... .. . ... ... ... : C#3 05 F ... ... ... : ... .. . ... : C-# 03 . ... : F-3 00 . ... ...
ROW 1D : ... .. . ... ... ... : ... .. . ... ... ... : ... .. . ... : C-# 03 . G01 : ... .. . ... ...
ROW 1E : F-2 07 2 V02 ... ... : ... .. . ... ... ... : ... .. . ... : C-# 03 . G02 : G#2 01 . ... ...
ROW 1F : ... .. . ... ... ... : F-3 07 3 V02 ... ... : ... .. . ... : ... .. . ... : ... .. . ... ...
ROW 20 : G#2 02 F ... ... ... : ... .. . ... ... ... : ... .. . ... : C-# 03 . ... : C#4 00 . ... ...
ROW 21 : ... .. . ... ... ... : ... .. . ... ... ... : ... .. . ... : ... .. . ... : ... .. . ... ...
ROW 22 : ... .. . ... ... ... : C#2 07 2 V01 ... ... : ... .. . ... : ... .. . ... : F-3 01 . ... ...
ROW 23 : C#3 07 3 V01 ... ... : ... .. . ... ... ... : ... .. . ... : ... .. . ... : ... .. . ... ...
ROW 24 : ... .. . ... ... ... : F-2 05 F ... ... ... : F-3 01 . ... : C-# 06 . ... : C#3 00 . Z40 ...
ROW 25 : ... .. . ... ... ... : ... .. . ... ... ... : C#2 07 . ... : ... .. . ... : ... .. . ... ...
ROW 26 : F-3 07 2 V02 ... ... : ... .. . ... ... ... : ... .. . ... : ... .. . ... : C#4 01 . ... ...
ROW 27 : ... .. . ... ... ... : G#2 07 3 V02 ... ... : ... .. . ... : ... .. . ... : ... .. . ... ...
ROW 28 : C#2 02 F ... ... ... : ... .. . ... ... ... : F-3 01 . ... : C-# 03 . ... : G#3 00 . Z40 ...
ROW 29 : ... .. . ... ... ... : ... .. . ... ... ... : C#2 07 . ... : ... .. . ... : ... .. . ... ...
ROW 2A : ... .. . ... ... ... : C#3 07 2 V01 ... ... : ... .. . ... : ... .. . ... : C#3 01 . ... ...
ROW 2B : F-2 07 3 V01 ... ... : ... .. . ... ... ... : ... .. . ... : ... .. . ... : ... .. . ... ...
ROW 2C : ... .. . ... ... ... : G#1 05 F ... ... ... : F-3 01 . ... : C-# 03 . ... : F-4 00 . Z40 ...
ROW 2D : ... .. . ... ... ... : ... .. . ... ... ... : C#2 07 . ... : ... .. . ... : ... .. . ... ...
ROW 2E : G#2 07 2 V02 ... ... : ... .. . ... ... ... : ... .. . ... : ... .. . ... : G#3 01 . ... ...
ROW 2F : ... .. . ... ... ... : C#2 07 3 V02 ... ... : ... .. . ... : ... .. . ... : ... .. . ... ...
ROW 30 : G#3 02 F ... ... ... : ... .. . ... ... ... : F-3 01 . ... : C-# 0C . ... : D-2 00 . Z40 ...
ROW 31 : ... .. . ... ... ... : ... .. . ... ... ... : D-2 07 . ... : ... .. . ... : ... .. . ... ...
ROW 32 : ... .. . ... ... ... : F-2 07 2 V01 ... ... : ... .. . ... : ... .. . ... : F-4 01 . ... ...
ROW 33 : G#1 07 3 V01 ... ... : ... .. . ... ... ... : ... .. . ... : ... .. . ... : ... .. . ... ...
ROW 34 : ... .. . ... ... ... : F-3 05 F ... ... ... : ... .. . ... : ... .. . ... : G#2 00 . ... ...
ROW 35 : ... .. . ... ... ... : ... .. . ... ... ... : ... .. . ... : ... .. . ... : ... .. . ... ...
ROW 36 : C#2 07 2 V02 ... ... : ... .. . ... ... ... : ... .. . ... : ... .. . ... : D-2 01 . ... ...
ROW 37 : ... .. . ... ... ... : G#3 07 3 V02 ... ... : ... .. . ... : ... .. . ... : ... .. . ... ...
ROW 38 : D-3 02 F ... ... ... : ... .. . ... ... ... : ... .. . ... : ... .. . ... : F-3 00 . ... ...
ROW 39 : ... .. . ... ... ... : ... .. . ... ... ... : ... .. . ... : ... .. . ... : ... .. . ... ...
ROW 3A : ... .. . ... ... ... : G#1 07 2 V01 ... ... : ... .. . ... : ... .. . ... : G#2 01 . ... ...
ROW 3B : F-3 07 3 V01 ... ... : ... .. . ... ... ... : ... .. . ... : ... .. . ... : ... .. . ... ...
ROW 3C : ... .. . ... ... ... : F-3 05 F ... ... ... : ... .. . ... : ... .. . ... : F-2 00 . ... ...
ROW 3D : ... .. . ... ... ... : ... .. . ... ... ... : ... .. . ... : ... .. . ... : ... .. . ... ...
ROW 3E : G#3 07 2 V02 ... ... : ... .. . ... ... ... : ... .. . ... : ... .. . ... : F-3 01 . ... ...
ROW 3F : ... .. . ... ... ... : D-3 07 3 V02 ... ... : ... .. . ... : ... .. . ... : ... .. . ... ...
ROW 40 : D-3 02 F ... ... ... : ... .. . ... ... ... : ... .. . ... : ... .. . ... : D-3 00 . ... ...
ROW 41 : ... .. . ... ... ... : ... .. . ... ... ... : ... .. . ... : ... .. . ... : ... .. . ... ...
ROW 42 : ... .. . ... ... ... : F-3 07 2 V01 ... ... : ... .. . ... : ... .. . ... : F-2 01 . ... ...
ROW 43 : F-3 07 3 V01 ... ... : ... .. . ... ... ... : ... .. . ... : ... .. . ... : ... .. . ... ...
ROW 44 : ... .. . ... ... ... : G#2 05 F ... ... ... : ... .. . ... : ... .. . ... : G#3 00 . ... ...
ROW 45 : ... .. . ... ... ... : ... .. . ... ... ... : ... .. . ... : ... .. . ... : ... .. . ... ...
ROW 46 : D-3 07 2 V02 ... ... : ... .. . ... ... ... : ... .. . ... : ... .. . ... : D-3 01 . ... ...
ROW 47 : ... .. . ... ... ... : D-3 07 3 V02 ... ... : ... .. . ... : ... .. . ... : ... .. . ... ...
ROW 48 : D-3 02 F ... ... ... : ... .. . ... ... ... : ... .. . ... : ... .. . ... : A#2 00 . ... ...
ROW 49 : ... .. . ... ... ... : ... .. . ... ... ... : ... .. . ... : ... .. . ... : ... .. . ... ...
ROW 4A : ... .. . ... ... ... : F-3 07 2 V01 ... ... : ... .. . ... : ... .. . ... : G#3 01 . ... ...
ROW 4B : G#2 07 3 V01 ... ... : ... .. . ... ... ... : ... .. . ... : ... .. . ... : ... .. . ... ...
ROW 4C : ... .. . ... ... ... : A#2 05 F ... ... ... : F-3 01 . ... : C-# 03 . ... : F-3 00 . Z40 ...
ROW 4D : ... .. . ... ... ... : ... .. . ... ... ... : D-2 07 . ... : C-# 03 . G01 : ... .. . ... ...
ROW 4E : D-3 07 2 V02 ... ... : ... .. . ... ... ... : F-3 01 . ... : C-# 03 . G02 : A#2 01 . Z40 ...
ROW 4F : ... .. . ... ... ... : D-3 07 3 V02 ... ... : D-2 07 . ... : ... .. . ... : ... .. . ... ...
ROW 50 : D-2 02 F ... ... ... : ... .. . ... ... ... : F-3 01 . ... : C-# 03 . ... : D-4 00 . Z40 ...
ROW 51 : ... .. . ... ... ... : ... .. . ... ... ... : D-2 07 . ... : ... .. . ... : ... .. . ... ...
ROW 52 : ... .. . ... ... ... : G#2 07 2 V01 ... ... : ... .. . ... : ... .. . ... : F-3 01 . ... ...
ROW 53 : A#2 07 3 V01 ... ... : ... .. . ... ... ... : ... .. . ... : ... .. . ... : ... .. . ... ...
ROW 54 : ... .. . ... ... ... : F-3 05 F ... ... ... : F-3 01 . ... : C-# 06 . ... : D-3 00 . Z40 ...
ROW 55 : ... .. . ... ... ... : ... .. . ... ... ... : D-2 07 . ... : ... .. . ... : ... .. . ... ...
ROW 56 : D-3 07 2 V02 ... ... : ... .. . ... ... ... : ... .. . ... : ... .. . ... : D-4 01 . ... ...
ROW 57 : ... .. . ... ... ... : D-2 07 3 V02 ... ... : ... .. . ... : ... .. . ... : ... .. . ... ...
ROW 58 : D-3 02 F ... ... ... : ... .. . ... ... ... : F-3 01 . ... : C-# 03 . ... : A#3 00 . Z40 ...
ROW 59 : ... .. . ... ... ... : ... .. . ... ... ... : D-2 07 . ... : ... .. . ... : ... .. . ... ...
ROW 5A : ... .. . ... ... ... : A#2 07 2 V01 ... ... : ... .. . ... : C-# 03 . ... : D-3 01 . ... ...
ROW 5B : F-3 07 3 V01 ... ... : ... .. . ... ... ... : ... .. . ... : ... .. . ... : ... .. . ... ...
ROW 5C : ... .. . ... ... ... : A#2 05 F ... ... ... : F-3 01 . ... : C-# 03 . ... : F-4 00 . Z40 ...
ROW 5D : ... .. . ... ... ... : ... .. . ... ... ... : D-2 07 . ... : ... .. . ... : ... .. . ... ...
ROW 5E : D-2 07 2 V02 ... ... : ... .. . ... ... ... : ... .. . ... : C-# 03 . ... : A#3 01 . ... ...
ROW 5F : ... .. . ... ... ... : D-3 07 3 V02 ... ... : ... .. . ... : ... .. . ... : ... .. . ... ...

PATTERN 02
ROW 00 : A#3 02 F ... ... P7F : ... .. . ... ... P81 : F-3 01 . ... : C-# 0C . ... : D#2 00 . Z40 ...
ROW 01 : ... .. . ... ... ... : ... .. . ... ... ... : D#2 07 . ... : ... .. . ... : ... .. . ... ...
ROW 02 : ... .. . ... ... ... : F-3 07 2 V01 ... ... : ... .. . ... : ... .. . ... : F-4 01 . ... ...
ROW 03 : A#2 07 3 V01 ... ... : ... .. . ... ... ... : ... .. . ... : ... .. . ... : ... .. . ... ...
ROW 04 : ... .. . ... ... ... : F#3 05 F ... ... ... : ... .. . ... : ... .. . ... : A#2 00 . ... ...
ROW 05 : ... .. . ... ... ... : ... .. . ... ... ... : ... .. . ... : ... .. . ... : ... .. . ... ...
ROW 06 : D-3 07 2 V02 ... ... : ... .. . ... ... ... : ... .. . ... : ... .. . ... : D#2 01 . ... ...
ROW 07 : ... .. . ... ... ... : A#3 07 3 V02 ... ... : ... .. . ... : ... .. . ... : ... .. . ... ...
ROW 08 : D#3 02 F ... ... ... : ... .. . ... ... ... : ... .. . ... : ... .. . ... : F#3 00 . ... ...
ROW 09 : ... .. . ... ... ... : ... .. . ... ... ... : ... .. . ... : ... .. . ... : ... .. . ... ...
ROW 0A : ... .. . ... ... ... : A#2 07 2 V01 ... ... : ... .. . ... : ... .. . ... : A#2 01 . ... ...
ROW 0B : F#3 07 3 V01 ... ... : ... .. . ... ... ... : ... .. . ... : ... .. . ... : ... .. . ... ...
ROW 0C : ... .. . ... ... ... : F#3 05 F ... ... ... : ... .. . ... : ... .. . ... : F#2 00 . ... ...
ROW 0D : ... .. . ... ... ... : ... .. . ... ... ... : ... .. . ... : ... .. . ... : ... .. . ... ...
ROW 0E : A#3 07 2 V02 ... ... : ... .. . ... ... ... : ... .. . ... : ... .. . ... : F#3 01 . ... ...
ROW 0F : ... .. . ... ... ... : D#3 07 3 V02 ... ... : ... .. . ... : ... .. . ... : ... .. . ... ...
ROW 10 : D#3 02 F ... ... ... : ... .. . ... ... ... : ... .. . ... : ... .. . ... : D#3 00 . ... ...
ROW 11 : ... .. . ... ... ... : ... .. . ... ... ... : ... .. . ... : ... .. . ... : ... .. . ... ...
ROW 12 : ... .. . ... ... ... : F#3 07 2 V01 ... ... : ... .. . ... : ... .. . ... : F#2 01 . ... ...
ROW 13 : F#3 07 3 V01 ... ... : ... .. . ... ... ... : ... .. . ... : ... .. . ... : ... .. . ... ...
ROW 14 : ... .. . ... ... ... : A#2 05 F ... ... ... : ... .. . ... : ... .. . ... : A#3 00 . ... ...
ROW 15 : ... .. . ... ... ... : ... .. . ... ... ... : ... .. . ... : ... .. . ... : ... .. . ... ...
ROW 16 : D#3 07 2 V02 ... ... : ... .. . ... ... ... : ... .. . ... : ... .. . ... : D#3 01 . ... ...
ROW 17 : ... .. . ... ... ... : D#3 07 3 V02 ... ... : ... .. . ... : ... .. . ... : ... .. . ... ...
ROW 18 : D#2 02 F ... ... ... : ... .. . ... ... ... : ... .. . ... : ... .. . ... : A#2 00 . ... ...
ROW 19 : ... .. . ... ... ... : ... .. . ... ... ... : ... .. . ... : ... .. . ... : ... .. . ... ...
ROW 1A : ... .. . ... ... ... : F#3 07 2 V01 ... ... : ... .. . ... : ... .. . ... : A#3 01 . ... ...
ROW 1B : A#2 07 3 V01 ... ... : ... .. . ... ... ... : ... .. . ... : ... .. . ... : ... .. . ... ...
ROW 1C : ... .. . ... ... ... : F#2 05 F ... ... ... : ... .. . ... : C-# 03 . ... : F#3 00 . ... ...
ROW 1D : ... .. . ... ... ... : ... .. . ... ... ... : ... .. . ... : ... .. . ... : ... .. . ... ...
ROW 1E : D#3 07 2 V02 ... ... : ... .. . ... ... ... : ... .. . ... : C-# 03 . ... : A#2 01 . ... ...
ROW 1F : ... .. . ... ... ... : D#2 07 3 V02 ... ... : ... .. . ... : ... .. . ... : ... .. . ... ...
ROW 20 : A#2 02 F ... ... ... : ... .. . ... ... ... : ... .. . ... : C-# 03 . ... : D#4 00 . ... ...
ROW 21 : ... .. . ... ... ... : ... .. . ... ... ... : ... .. . ... : ... .. . ... : ... .. . ... ...
ROW 22 : ... .. . ... ... ... : A#2 07 2 V01 ... ... : ... .. . ... : C-# 03 . ... : F#3 01 . ... ...
ROW 23 : F#2 07 3 V01 ... ... : ... .. . ... ... ... : ... .. . ... : ... .. . ... : ... .. . ... ...
ROW 24 : ... .. . ... ... ... : D#3 05 F ... ... ... : F-3 01 . ... : C-# 06 . ... : D#3 00 . Z40 ...
ROW 25 : ... .. . ... ... ... : ... .. . ... ... ... : D#2 07 . ... : ... .. . ... : ... .. . ... ...
ROW 26 : D#2 07 2 V02 ... ... : ... .. . ... ... ... : ... .. . ... : ... .. . ... : D#4 01 . ... ...
ROW 27 : ... .. . ... ... ... : A#2 07 3 V02 ... ... : ... .. . ... : ... .. . ... : ... .. . ... ...
ROW 28 : G#3 02 F ... ... ... : ... .. . ... ... ... : F-3 01 . ... : C-# 03 . ... : A#3 00 . Z40 ...
ROW 29 : ... .. . ... ... ... : ... .. . ... ... ... : D#2 07 . ... : ... .. . ... : ... .. . ... ...
ROW 2A : ... .. . ... ... ... : F#2 07 2 V01 ... ... : ... .. . ... : C-# 03 . ... : D#3 01 . ... ...
ROW 2B : D#3 07 3 V01 ... ... : ... .. . ... ... ... : ... .. . ... : ... .. . ... : ... .. . ... ...
ROW 2C : ... .. . ... ... ... : A#3 05 F ... ... ... : F-3 01 . ... : C-# 03 . ... : F#4 00 . Z40 ...
ROW 2D : ... .. . ... ... ... : ... .. . ... ... ... : D#2 07 . ... : ... .. . ... : ... .. . ... ...
ROW 2E : A#2 07 2 V02 ... ... : ... .. . ... ... ... : ... .. . ... : C-# 03 . ... : A#3 01 . ... ...
ROW 2F : ... .. . ... ... ... : G#3 07 3 V02 ... ... : ... .. . ... : ... .. . ... : ... .. . ... ...
ROW 30 : G#3 02 F ... ... ... : ... .. . ... ... ... : F-3 01 . ... : C-# 0C . ... : D-2 00 . Z40 ...
ROW 31 : ... .. . ... ... ... : ... .. . ... ... ... : D-2 07 . ... : ... .. . ... : ... .. . ... ...
ROW 32 : ... .. . ... ... ... : D#3 07 2 V01 ... ... : ... .. . ... : ... .. . ... : F#4 01 . ... ...
ROW 33 : A#3 07 3 V01 ... ... : ... .. . ... ... ... : ... .. . ... : ... .. . ... : ... .. . ... ...
ROW 34 : ... .. . ... ... ... : F-3 05 F ... ... ... : ... .. . ... : ... .. . ... : A#2 00 . ... ...
ROW 35 : ... .. . ... ... ... : ... .. . ... ... ... : ... .. . ... : ... .. . ... : ... .. . ... ...
ROW 36 : G#3 07 2 V02 ... ... : ... .. . ... ... ... : ... .. . ... : ... .. . ... : D-2 01 . ... ...
ROW 37 : ... .. . ... ... ... : G#3 07 3 V02 ... ... : ... .. . ... : ... .. . ... : ... .. . ... ...
ROW 38 : D-3 02 F ... ... ... : ... .. . ... ... ... : ... .. . ... : ... .. . ... : F-3 00 . ... ...
ROW 39 : ... .. . ... ... ... : ... .. . ... ... ... : ... .. . ... : ... .. . ... : ... .. . ... ...
ROW 3A : ... .. . ... ... ... : A#3 07 2 V01 ... ... : ... .. . ... : ... .. . ... : A#2 01 . ... ...
ROW 3B : F-3 07 3 V01 ... ... : ... .. . ... ... ... : ... .. . ... : ... .. . ... : ... .. . ... ...
ROW 3C : ... .. . ... ... ... : F-3 05 F ... ... ... : ... .. . ... : ... .. . ... : F-2 00 . ... ...
ROW 3D : ... .. . ... ... ... : ... .. . ... ... ... : ... .. . ... : ... .. . ... : ... .. . ... ...
ROW 3E : G#3 07 2 V02 ... ... : ... .. . ... ... ... : ... .. . ... : ... .. . ... : F-3 01 . ... ...
ROW 3F : ... .. . ... ... ... : D-3 07 3 V02 ... ... : ... .. . ... : ... .. . ... : ... .. . ... ...
ROW 40 : D-3 02 F ... ... ... : ... .. . ... ... ... : ... .. . ... : ... .. . ... : D-3 00 . ... ...
ROW 41 : ... .. . ... ... ... : ... .. . ... ... ... : ... .. . ... : ... .. . ... : ... .. . ... ...
ROW 42 : ... .. . ... ... ... : F-3 07 2 V01 ... ... : ... .. . ... : ... .. . ... : F-2 01 . ... ...
ROW 43 : F-3 07 3 V01 ... ... : ... .. . ... ... ... : ... .. . ... : ... .. . ... : ... .. . ... ...
ROW 44 : ... .. . ... ... ... : A#2 05 F ... ... ... : ... .. . ... : ... .. . ... : A#3 00 . ... ...
ROW 45 : ... .. . ... ... ... : ... .. . ... ... ... : ... .. . ... : ... .. . ... : ... .. . ... ...
ROW 46 : D-3 07 2 V02 ... ... : ... .. . ... ... ... : ... .. . ... : ... .. . ... : D-3 01 . ... ...
ROW 47 : ... .. . ... ... ... : D-3 07 3 V02 ... ... : ... .. . ... : ... .. . ... : ... .. . ... ...
ROW 48 : F-2 02 F ... ... ... : ... .. . ... ... ... : ... .. . ... : ... .. . ... : A#2 00 . ... ...
ROW 49 : ... .. . ... ... ... : ... .. . ... ... ... : ... .. . ... : ... .. . ... : ... .. . ... ...
ROW 4A : ... .. . ... ... ... : F-3 07 2 V01 ... ... : ... .. . ... : ... .. . ... : A#3 01 . ... ...
ROW 4B : A#2 07 3 V01 ... ... : ... .. . ... ... ... : ... .. . ... : ... .. . ... : ... .. . ... ...
ROW 4C : ... .. . ... ... ... : A#2 05 F ... ... ... : F-3 01 . ... : C-# 03 . ... : F-3 00 . Z40 ...
ROW 4D : ... .. . ... ... ... : ... .. . ... ... ... : D-2 07 . ... : ... .. . ... : ... .. . ... ...
ROW 4E : D-3 07 2 V02 ... ... : ... .. . ... ... ... : ... .. . ... : ... .. . ... : A#2 01 . ... ...
ROW 4F : ... .. . ... ... ... : F-2 07 3 V02 ... ... : ... .. . ... : ... .. . ... : ... .. . ... ...
ROW 50 : F-2 02 F ... ... ... : ... .. . ... ... ... : F-3 01 . ... : C-# 03 . ... : D-4 00 . Z40 ...
ROW 51 : ... .. . ... ... ... : ... .. . ... ... ... : D-2 07 . ... : ... .. . ... : ... .. . ... ...
ROW 52 : ... .. . ... ... ... : A#2 07 2 V01 ... ... : ... .. . ... : ... .. . ... : F-3 01 . ... ...
ROW 53 : A#2 07 3 V01 ... ... : ... .. . ... ... ... : ... .. . ... : ... .. . ... : ... .. . ... ...
ROW 54 : ... .. . ... ... ... : F-3 05 F ... ... ... : F-3 01 . ... : C-# 06 . ... : D-3 00 . Z40 ...
ROW 55 : ... .. . ... ... ... : ... .. . ... ... ... : D-2 07 . ... : ... .. . ... : ... .. . ... ...
ROW 56 : F-2 07 2 V02 ... ... : ... .. . ... ... ... : ... .. . ... : ... .. . ... : D-4 01 . ... ...
ROW 57 : ... .. . ... ... ... : F-2 07 3 V02 ... ... : ... .. . ... : ... .. . ... : ... .. . ... ...
ROW 58 : D-3 02 F ... ... ... : ... .. . ... ... ... : F-3 01 . ... : C-# 03 . ... : A#3 00 . Z40 ...
ROW 59 : ... .. . ... ... ... : ... .. . ... ... ... : D-2 07 . ... : ... .. . ... : ... .. . ... ...
ROW 5A : ... .. . ... ... ... : A#2 07 2 V01 ... ... : ... .. . ... : ... .. . ... : D-3 01 . ... ...
ROW 5B : F-3 07 3 V01 ... ... : ... .. . ... ... ... : ... .. . ... : ... .. . ... : ... .. . ... ...
ROW 5C : ... .. . ... ... ... : A#2 05 F ... ... ... : F-3 01 . ... : C-# 03 . ... : F-4 00 . Z40 ...
ROW 5D : ... .. . ... ... ... : ... .. . ... ... ... : D-2 07 . ... : ... .. . ... : ... .. . ... ...
ROW 5E : F-2 07 2 V02 ... ... : ... .. . ... ... ... : ... .. . ... : ... .. . ... : A#3 01 . ... ...
ROW 5F : ... .. . ... ... ... : D-3 07 3 V02 ... ... : ... .. . ... : ... .. . ... : ... .. . ... ...

PATTERN 03
ROW 00 : C#2 02 F ... ... ... : ... .. . ... ... ... : F-3 01 . ... : C-# 0C . ... : C#2 00 . Z40 ...
ROW 01 : ... .. . ... ... ... : ... .. . ... ... ... : C#2 07 . ... : ... .. . ... : ... .. . ... ...
ROW 02 : ... .. . ... ... ... : A#2 07 2 V01 ... ... : ... .. . ... : ... .. . ... : F-4 01 . ... ...
ROW 03 : A#2 07 3 V01 ... ... : ... .. . ... ... ... : ... .. . S01 : ... .. . ... : ... .. . ... ...
ROW 04 : ... .. . ... ... ... : F-2 05 F ... ... ... : F-3 01 . ... : ... .. . ... : G#2 00 . Z40 ...
ROW 05 : ... .. . ... ... ... : ... .. . ... ... ... : C#2 07 . ... : ... .. . ... : ... .. . ... ...
ROW 06 : D-3 07 2 V02 ... ... : ... .. . ... ... ... : ... .. . ... : ... .. . ... : C#2 01 . ... ...
ROW 07 : ... .. . ... ... ... : C#2 07 3 V02 ... ... : ... .. . S01 : ... .. . ... : ... .. . ... ...
ROW 08 : G#2 02 F ... ... ... : ... .. . ... ... ... : F-3 01 . ... : ... .. . ... : F-3 00 . Z40 ...
ROW 09 : ... .. . ... ... ... : ... .. . ... ... ... : C#2 07 . ... : ... .. . ... : ... .. . ... ...
ROW 0A : ... .. . ... ... ... : A#2 07 2 V01 ... ... : ... .. . ... : ... .. . ... : G#2 01 . ... ...
ROW 0B : F-2 07 3 V01 ... ... : ... .. . ... ... ... : ... .. . S01 : ... .. . ... : ... .. . ... ...
ROW 0C : ... .. . ... ... ... : F-2 05 F ... ... ... : F-3 01 . ... : ... .. . ... : F-2 00 . Z40 ...
ROW 0D : ... .. . ... ... ... : ... .. . ... ... ... : C#3 07 . ... : ... .. . ... : ... .. . ... ...
ROW 0E : C#2 07 2 V02 ... ... : ... .. . ... ... ... : ... .. . ... : ... .. . ... : F-3 01 . ... ...
ROW 0F : ... .. . ... ... ... : G#2 07 3 V02 ... ... : ... .. . S01 : ... .. . ... : ... .. . ... ...
ROW 10 : G#2 02 F ... ... ... : ... .. . ... ... ... : F-3 01 . ... : ... .. . ... : C#3 00 . Z40 ...
ROW 11 : ... .. . ... ... ... : ... .. . ... ... ... : C#2 07 . ... : ... .. . ... : ... .. . ... ...
ROW 12 : ... .. . ... ... ... : F-2 07 2 V01 ... ... : ... .. . ... : ... .. . ... : F-2 01 . ... ...
ROW 13 : F-2 07 3 V01 ... ... : ... .. . ... ... ... : ... .. . S01 : ... .. . ... : ... .. . ... ...
ROW 14 : ... .. . ... ... ... : C#3 05 F ... ... ... : F-3 01 . ... : ... .. . ... : G#3 00 . Z40 ...
ROW 15 : ... .. . ... ... ... : ... .. . ... ... ... : C#2 07 . ... : ... .. . ... : ... .. . ... ...
ROW 16 : G#2 07 2 V02 ... ... : ... .. . ... ... ... : ... .. . ... : ... .. . ... : C#3 01 . ... ...
ROW 17 : ... .. . ... ... ... : G#2 07 3 V02 ... ... : ... .. . S01 : ... .. . ... : ... .. . ... ...
ROW 18 : G#2 02 F ... ... ... : ... .. . ... ... ... : F-3 01 . ... : ... .. . ... : G#2 00 . Z40 ...
ROW 19 : ... .. . ... ... ... : ... .. . ... ... ... : C#2 07 . ... : ... .. . ... : ... .. . ... ...
ROW 1A : ... .. . ... ... ... : F-2 07 2 V01 ... ... : ... .. . ... : ... .. . ... : G#3 01 . ... ...
ROW 1B : C#3 07 3 V01 ... ... : ... .. . ... ... ... : ... .. . S01 : ... .. . ... : ... .. . ... ...
ROW 1C : ... .. . ... ... ... : C#3 05 F ... ... ... : F-3 01 . ... : C-# 03 . ... : F-3 00 . Z40 ...
ROW 1D : ... .. . ... ... ... : ... .. . ... ... ... : C#2 07 . ... : C-# 03 . G01 : ... .. . ... ...
ROW 1E : G#2 07 2 V02 ... ... : ... .. . ... ... ... : ... .. . ... : C-# 03 . G02 : G#2 01 . ... ...
ROW 1F : ... .. . ... ... ... : G#2 07 3 V02 ... ... : ... .. . S01 : ... .. . ... : ... .. . ... ...
ROW 20 : F-3 02 F ... ... ... : ... .. . ... ... ... : F-3 01 . ... : C-# 03 . ... : C#4 00 . Z40 ...
ROW 21 : ... .. . ... ... ... : ... .. . ... ... ... : C#2 07 . ... : ... .. . ... : ... .. . ... ...
ROW 22 : ... .. . ... ... ... : C#3 07 2 V01 ... ... : ... .. . ... : ... .. . ... : F-3 01 . ... ...
ROW 23 : C#3 07 3 V01 ... ... : ... .. . ... ... ... : ... .. . S01 : ... .. . ... : ... .. . ... ...
ROW 24 : ... .. . ... ... ... : C#3 05 F ... ... ... : F-3 01 . ... : C-# 06 . ... : C#3 00 . Z40 ...
ROW 25 : ... .. . ... ... ... : ... .. . ... ... ... : C#3 07 . ... : ... .. . ... : ... .. . ... ...
ROW 26 : G#2 07 2 V02 ... ... : ... .. . ... ... ... : ... .. . ... : ... .. . ... : C#4 01 . ... ...
ROW 27 : ... .. . ... ... ... : F-3 07 3 V02 ... ... : ... .. . S01 : ... .. . ... : ... .. . ... ...
ROW 28 : F-3 02 F ... ... ... : ... .. . ... ... ... : F-3 01 . ... : C-# 03 . ... : G#3 00 . Z40 ...
ROW 29 : ... .. . ... ... ... : ... .. . ... ... ... : C#2 07 . ... : ... .. . ... : ... .. . ... ...
ROW 2A : ... .. . ... ... ... : C#3 07 2 V01 ... ... : ... .. . ... : ... .. . ... : C#3 01 . ... ...
ROW 2B : C#3 07 3 V01 ... ... : ... .. . ... ... ... : ... .. . S01 : ... .. . ... : ... .. . ... ...
ROW 2C : ... .. . ... ... ... : G#3 05 F ... ... ... : F-3 01 . ... : C-# 03 . ... : F-4 00 . Z40 ...
ROW 2D : ... .. . ... ... ... : ... .. . ... ... ... : C#2 07 . ... : ... .. . ... : ... .. . ... ...
ROW 2E : F-3 07 2 V02 ... ... : ... .. . ... ... ... : ... .. . ... : ... .. . ... : G#3 01 . ... ...
ROW 2F : ... .. . ... ... ... : F-3 07 3 V02 ... ... : ... .. . S01 : ... .. . ... : ... .. . ... ...
ROW 30 : D-2 02 F ... ... ... : ... .. . ... ... ... : F-3 01 . ... : C-# 03 . ... : D-2 00 . Z40 ...
ROW 31 : ... .. . ... ... ... : ... .. . ... ... ... : D-2 07 . ... : ... .. . ... : ... .. . ... ...
ROW 32 : ... .. . ... ... ... : C#3 07 2 V01 ... ... : ... .. . ... : ... .. . ... : F-4 01 . ... ...
ROW 33 : ... .. . ... ... ... : ... .. . ... ... ... : ... .. . S01 : ... .. . ... : ... .. . ... ...
ROW 34 : G#3 07 3 V01 ... ... : F-2 05 F ... ... ... : F-3 01 . ... : C-# 03 . ... : G#2 00 . Z40 ...
ROW 35 : ... .. . ... ... ... : ... .. . ... ... ... : D-2 07 . ... : ... .. . ... : ... .. . ... ...
ROW 36 : F-3 07 2 V02 ... ... : ... .. . ... ... ... : ... .. . ... : ... .. . ... : D-2 01 . ... ...
ROW 37 : ... .. . ... ... ... : ... .. . ... ... ... : ... .. . S01 : ... .. . ... : ... .. . ... ...
ROW 38 : G#2 02 F ... ... ... : D-2 07 3 V02 ... ... : F-3 01 . ... : C-# 03 . ... : F-3 00 . Z40 ...
ROW 39 : ... .. . ... ... ... : ... .. . ... ... ... : D-2 07 . ... : ... .. . ... : ... .. . ... ...
ROW 3A : ... .. . ... ... ... : G#3 07 2 V01 ... ... : ... .. . ... : ... .. . ... : G#2 01 . ... ...
ROW 3B : ... .. . ... ... ... : ... .. . ... ... ... : ... .. . S01 : ... .. . ... : ... .. . ... ...
ROW 3C : F-2 07 3 V01 ... ... : F-2 05 F ... ... ... : G-3 00 . ... : 8-# 04 . ... : F-2 00 . Z30 ...
ROW 3D : ... .. . ... ... ... : ... .. . ... ... ... : D-3 07 . ... : ... .. . ... : ... .. . ... ...
ROW 3E : G#2 07 2 V02 ... ... : ... .. . ... ... ... : ... .. . ... : ... .. . ... : F-3 01 . ... ...
ROW 3F : ... .. . ... ... ... : ... .. . ... ... ... : ... .. . S01 : ... .. . ... : ... .. . ... ...
ROW 40 : G#2 02 F ... ... ... : ... .. . ... ... ... : F-3 01 . ... : C-# 03 . ... : D-3 00 . Z40 ...
ROW 41 : ... .. . ... ... ... : G#2 07 3 V02 ... ... : D-2 07 . ... : ... .. . ... : ... .. . ... ...
ROW 42 : ... .. . ... ... ... : ... .. . ... ... ... : ... .. . ... : ... .. . ... : F-2 01 . ... ...
ROW 43 : ... .. . ... ... ... : F-2 07 2 V01 ... ... : ... .. . S01 : ... .. . ... : ... .. . ... ...
ROW 44 : ... .. . ... ... ... : D-3 05 F ... ... ... : F-3 01 . ... : C-# 03 . ... : G#3 00 . Z40 ...
ROW 45 : F-2 07 3 V01 ... ... : ... .. . ... ... ... : D-2 07 . ... : ... .. . ... : ... .. . ... ...
ROW 46 : ... .. . ... ... ... : ... .. . ... ... ... : ... .. . ... : ... .. . ... : D-3 01 . ... ...
ROW 47 : G#2 07 2 V02 ... ... : ... .. . ... ... ... : ... .. . S01 : ... .. . ... : ... .. . ... ...
ROW 48 : A#2 02 F ... ... ... : ... .. . ... ... ... : F-3 01 . ... : C-# 03 . ... : A#2 00 . Z40 ...
ROW 49 : ... .. . ... ... ... : G#2 07 3 V02 ... ... : D-2 07 . ... : ... .. . ... : ... .. . ... ...
ROW 4A : ... .. . ... ... ... : ... .. . ... ... ... : ... .. . ... : ... .. . ... : G#3 01 . ... ...
ROW 4B : ... .. . ... ... ... : F-2 07 2 V01 ... ... : ... .. . S01 : ... .. . ... : ... .. . ... ...
ROW 4C : ... .. . ... ... ... : D-3 05 F ... ... ... : F-3 01 . ... : C-# 03 . ... : F-3 00 . Z40 ...
ROW 4D : D-3 07 3 V01 ... ... : ... .. . ... ... ... : D-2 02 . ... : ... .. . ... : ... .. . ... ...
ROW 4E : ... .. . ... ... ... : ... .. . ... ... ... : ... .. . ... : ... .. . ... : A#2 01 . ... ...
ROW 4F : G#2 07 2 V02 ... ... : ... .. . ... ... ... : ... .. . S01 : ... .. . ... : ... .. . ... ...
ROW 50 : F-3 02 F ... ... ... : ... .. . ... ... ... : F-3 01 . ... : C-# 03 . ... : D-4 00 . Z40 ...
ROW 51 : ... .. . ... ... ... : A#2 07 3 V02 ... ... : D-2 02 . ... : ... .. . ... : ... .. . ... ...
ROW 52 : ... .. . ... ... ... : ... .. . ... ... ... : ... .. . ... : ... .. . ... : F-3 01 . ... ...
ROW 53 : ... .. . ... ... ... : D-3 07 2 V01 G01 ... : ... .. . S01 : ... .. . ... : ... .. . ... ...
ROW 54 : ... .. . ... ... ... : A#3 05 F ... ... ... : G-3 00 . ... : 8-# 04 . ... : A#3 00 . Z30 ...
ROW 55 : D-3 07 3 V01 ... ... : ... .. . ... ... ... : D-3 02 . ... : ... .. . ... : ... .. . ... ...
ROW 56 : ... .. . ... ... ... : ... .. . ... ... ... : ... .. . ... : ... .. . ... : D-4 01 . ... ...
ROW 57 : A#2 07 2 V02 G01 ... : ... .. . ... ... ... : ... .. . S01 : ... .. . ... : ... .. . ... ...
ROW 58 : F-3 02 F ... ... ... : ... .. . ... ... ... : G-3 00 . ... : 8-# 04 . ... : F-4 00 . Z30 ...
ROW 59 : ... .. . ... ... ... : ... .. . ... ... ... : D-2 02 . ... : ... .. . ... : ... .. . ... ...
ROW 5A : ... .. . ... ... ... : F-3 07 3 V02 ... ... : ... .. . ... : ... .. . ... : A#3 01 . ... ...
ROW 5B : ... .. . ... ... ... : D-3 07 2 V01 G01 ... : ... .. . S01 : ... .. . ... : ... .. . ... ...
ROW 5C : ... .. . ... ... ... : D-3 05 F ... ... ... : G-3 00 . ... : 8-# 04 . ... : F#4 00 . Z30 ...
ROW 5D : ... .. . ... ... ... : ... .. . ... ... ... : D-2 02 . ... : ... .. . ... : ... .. . ... ...
ROW 5E : A#3 07 3 V01 ... ... : ... .. . ... ... ... : ... .. . ... : ... .. . ... : F-4 01 . ... ...
ROW 5F : F-3 07 2 V02 G01 ... : ... .. . ... ... ... : ... .. . S01 : ... .. . ... : ... .. . ... ...

PATTERN 04
ROW 00 : D#2 02 F ... ... P7F : ... .. . ... ... P81 : F-3 01 . ... : C-# 03 . ... : A#4 00 . Z40 ...
ROW 01 : ... .. . ... ... ... : ... .. . ... ... ... : D#2 02 . ... : ... .. . ... : ... .. . ... ...
ROW 02 : ... .. . ... ... ... : F-3 07 3 V02 ... ... : ... .. . ... : ... .. . ... : F#4 01 . ... ...
ROW 03 : ... .. . ... ... ... : A#3 07 2 V01 G02 ... : ... .. . S01 : ... .. . ... : ... .. . ... ...
ROW 04 : ... .. . ... ... ... : F#2 05 F ... ... ... : D#2 02 . ... : C-# 03 . ... : F#4 00 . ... ...
ROW 05 : ... .. . ... ... ... : ... .. . ... ... ... : ... .. . ... : ... .. . ... : ... .. . ... ...
ROW 06 : D-3 07 3 V01 ... ... : ... .. . ... ... ... : ... .. . ... : ... .. . ... : A#4 01 . ... ...
ROW 07 : F-3 07 2 V02 G02 ... : ... .. . ... ... ... : ... .. . S01 : ... .. . ... : ... .. . ... ...
ROW 08 : A#2 02 F ... ... ... : ... .. . ... ... ... : F-3 01 . ... : C-# 03 . ... : D#4 00 . Z40 ...
ROW 09 : ... .. . ... ... ... : ... .. . ... ... ... : D#2 02 . ... : ... .. . ... : ... .. . ... ...
ROW 0A : ... .. . ... ... ... : D#2 07 3 V02 ... ... : ... .. . ... : ... .. . ... : F#4 01 . ... ...
ROW 0B : ... .. . ... ... ... : D-3 07 2 V01 G02 ... : ... .. . S01 : ... .. . ... : ... .. . ... ...
ROW 0C : ... .. . ... ... ... : D#3 05 F ... ... ... : G-3 00 . ... : 8-# 04 . ... : F#4 00 . Z30 ...
ROW 0D : ... .. . ... ... ... : ... .. . ... ... ... : D#3 02 . ... : ... .. . ... : ... .. . ... ...
ROW 0E : F#2 07 3 V01 ... ... : ... .. . ... ... ... : ... .. . ... : ... .. . ... : D#4 01 . ... ...
ROW 0F : D#2 07 2 V02 G02 ... : ... .. . ... ... ... : ... .. . S01 : ... .. . ... : ... .. . ... ...
ROW 10 : A#2 02 F ... ... ... : ... .. . ... ... ... : D#2 02 . ... : C-# 03 . ... : D#4 00 . ... ...
ROW 11 : ... .. . ... ... ... : ... .. . ... ... ... : ... .. . ... : ... .. . ... : ... .. . ... ...
ROW 12 : ... .. . ... ... ... : A#2 07 3 V02 ... ... : ... .. . ... : ... .. . ... : F#4 01 . ... ...
ROW 13 : ... .. . ... ... ... : F#2 07 2 V01 G02 ... : ... .. . S01 : ... .. . ... : ... .. . ... ...
ROW 14 : ... .. . ... ... ... : D#3 05 F ... ... ... : F-3 01 . ... : C-# 03 . ... : A#3 00 . Z40 ...
ROW 15 : ... .. . ... ... ... : ... .. . ... ... ... : D#2 02 . ... : ... .. . ... : ... .. . ... ...
ROW 16 : D#3 07 3 V01 ... ... : ... .. . ... ... ... : ... .. . ... : ... .. . ... : D#4 01 . ... ...
ROW 17 : A#2 07 2 V02 G02 ... : ... .. . ... ... ... : ... .. . S01 : ... .. . ... : ... .. . ... ...
ROW 18 : F-3 02 F ... ... ... : ... .. . ... ... ... : F-3 01 . ... : C-# 03 . ... : D#4 00 . Z40 ...
ROW 19 : ... .. . ... ... ... : ... .. . ... ... ... : D#2 02 . ... : ... .. . ... : ... .. . ... ...
ROW 1A : ... .. . ... ... ... : A#2 07 3 V02 ... ... : ... .. . ... : ... .. . ... : A#3 01 . ... ...
ROW 1B : ... .. . ... ... ... : D#3 07 2 V01 G02 ... : ... .. . S01 : ... .. . ... : ... .. . ... ...
ROW 1C : ... .. . ... ... ... : D#3 05 F ... ... ... : D#2 02 . ... : C-# 03 . ... : A#3 00 . ... ...
ROW 1D : ... .. . ... ... ... : ... .. . ... ... ... : ... .. . ... : ... .. . ... : ... .. . ... ...
ROW 1E : D#3 07 3 V01 ... ... : ... .. . ... ... ... : ... .. . ... : ... .. . ... : D#4 01 . ... ...
ROW 1F : A#2 07 2 V02 G02 ... : ... .. . ... ... ... : ... .. . S01 : ... .. . ... : ... .. . ... ...
ROW 20 : F#3 02 F ... ... ... : ... .. . ... ... ... : F-3 01 . ... : C-# 03 . ... : F#3 00 . Z40 ...
ROW 21 : ... .. . ... ... ... : ... .. . ... ... ... : D#2 02 . ... : ... .. . ... : ... .. . ... ...
ROW 22 : ... .. . ... ... ... : F-3 07 3 V02 ... ... : ... .. . ... : ... .. . ... : A#3 01 . ... ...
ROW 23 : ... .. . ... ... ... : D#3 07 2 V01 G02 ... : ... .. . S01 : ... .. . ... : ... .. . ... ...
ROW 24 : ... .. . ... ... ... : D#3 05 F ... ... ... : G-3 00 . ... : 8-# 04 . ... : A#3 00 . Z30 ...
ROW 25 : ... .. . ... ... ... : ... .. . ... ... ... : D#3 02 . ... : ... .. . ... : ... .. . ... ...
ROW 26 : D#3 07 3 V01 ... ... : ... .. . ... ... ... : ... .. . ... : ... .. . ... : F#3 01 . ... ...
ROW 27 : F-3 07 2 V02 G02 ... : ... .. . ... ... ... : ... .. . S01 : ... .. . ... : ... .. . ... ...
ROW 28 : A#3 02 F ... ... P80 : ... .. . ... ... ... : D#2 02 . ... : C-# 03 . ... : F#3 00 . ... ...
ROW 29 : ... .. . ... ... ... : ... .. . ... ... ... : ... .. . ... : ... .. . ... : ... .. . ... ...
ROW 2A : ... .. . ... ... ... : F#3 07 3 V02 ... ... : ... .. . ... : ... .. . ... : A#3 01 . ... ...
ROW 2B : ... .. . ... ... ... : D#3 07 2 V01 G02 ... : ... .. . S01 : ... .. . ... : ... .. . ... ...
ROW 2C : ... .. . ... ... ... : B-3 05 F ... ... P80 : F-3 01 . ... : C-# 03 . ... : D#3 00 . Z40 ...
ROW 2D : ... .. . ... ... ... : ... .. . ... ... ... : D#2 02 . ... : ... .. . ... : ... .. . ... ...
ROW 2E : D#3 07 3 V01 P7F P7F : ... .. . ... ... ... : ... .. . ... : ... .. . ... : F#3 01 . ... ...
ROW 2F : F#3 07 2 V02 G02 ... : ... .. . ... ... ... : ... .. . S01 : ... .. . ... : ... .. . ... ...
ROW 30 : A#3 02 F ... ... P80 : ... .. . ... ... ... : F-3 01 . ... : C-# 03 . ... : G#4 00 . Z40 ...
ROW 31 : ... .. . ... ... ... : ... .. . ... ... ... : D-2 02 . ... : ... .. . ... : ... .. . ... ...
ROW 32 : ... .. . ... ... ... : A#3 07 3 V02 ... ... : ... .. . ... : ... .. . ... : D#3 01 . ... ...
ROW 33 : ... .. . ... ... ... : D#3 07 2 V01 G02 P81 : ... .. . S01 : ... .. . ... : ... .. . ... ...
ROW 34 : ... .. . ... ... ... : D-2 05 F ... ... ... : D-2 02 . ... : C-# 03 . ... : F-4 00 . ... ...
ROW 35 : ... .. . ... ... ... : ... .. . ... ... ... : ... .. . ... : ... .. . ... : ... .. . ... ...
ROW 36 : B-3 07 3 V01 ... ... : ... .. . ... ... ... : ... .. . ... : ... .. . ... : G#4 01 . ... ...
ROW 37 : A#3 07 2 V02 G02 ... : ... .. . ... ... ... : ... .. . S01 : ... .. . ... : ... .. . ... ...
ROW 38 : F-2 02 F P7F ... P7F : ... .. . ... ... ... : F-3 01 . ... : C-# 03 . ... : D-4 00 . Z40 ...
ROW 39 : ... .. . ... ... ... : ... .. . ... ... ... : D-2 02 . ... : ... .. . ... : ... .. . ... ...
ROW 3A : ... .. . ... ... ... : A#3 07 3 V02 ... P80 : ... .. . ... : ... .. . ... : F-4 01 . ... ...
ROW 3B : ... .. . ... ... ... : B-3 07 2 V01 G02 ... : ... .. . S01 : ... .. . ... : ... .. . ... ...
ROW 3C : ... .. . ... ... ... : A#2 05 F ... ... P81 : G-3 00 . ... : 8-# 04 . ... : F-4 00 . Z30 ...
ROW 3D : ... .. . ... ... ... : ... .. . ... ... ... : D-3 02 . ... : ... .. . ... : ... .. . ... ...
ROW 3E : D-2 07 3 V01 ... ... : ... .. . ... ... ... : ... .. . ... : ... .. . ... : D-4 01 . ... ...
ROW 3F : A#3 07 2 V02 G02 P80 : ... .. . ... ... ... : ... .. . S01 : ... .. . ... : ... .. . ... ...
ROW 40 : F-2 02 F ... ... P7F : ... .. . ... ... ... : D-2 02 . ... : C-# 03 . ... : D-4 00 . ... ...
ROW 41 : ... .. . ... ... ... : ... .. . ... ... ... : ... .. . ... : ... .. . ... : ... .. . ... ...
ROW 42 : ... .. . ... ... ... : F-2 07 3 V02 ... ... : ... .. . ... : ... .. . ... : F-4 01 . ... ...
ROW 43 : ... .. . ... ... ... : D-2 07 2 V01 G02 ... : ... .. . S01 : ... .. . ... : ... .. . ... ...
ROW 44 : ... .. . ... ... ... : A#2 05 F ... ... ... : F-3 01 . ... : C-# 03 . ... : G#3 00 . Z40 ...
ROW 45 : ... .. . ... ... ... : ... .. . ... ... ... : D-2 02 . ... : ... .. . ... : ... .. . ... ...
ROW 46 : A#2 07 3 V01 ... ... : ... .. . ... ... ... : ... .. . ... : ... .. . ... : D-4 01 . ... ...
ROW 47 : F-2 07 2 V02 G02 ... : ... .. . ... ... ... : ... .. . S01 : ... .. . ... : ... .. . ... ...
ROW 48 : D-3 02 F ... ... ... : ... .. . ... ... ... : F-3 01 . ... : C-# 03 . ... : D-4 00 . Z40 ...
ROW 49 : ... .. . ... ... ... : ... .. . ... ... ... : D-2 02 . ... : ... .. . ... : ... .. . ... ...
ROW 4A : ... .. . ... ... ... : F-2 07 3 V02 ... ... : ... .. . ... : ... .. . ... : G#3 01 . ... ...
ROW 4B : ... .. . ... ... ... : A#2 07 2 V01 G02 ... : ... .. . S01 : ... .. . ... : ... .. . ... ...
ROW 4C : ... .. . ... ... ... : F-3 05 F ... ... ... : D-2 02 . ... : C-# 03 . ... : G#3 00 . ... ...
ROW 4D : ... .. . ... ... ... : ... .. . ... ... ... : ... .. . ... : ... .. . ... : ... .. . ... ...
ROW 4E : A#2 07 3 V01 ... ... : ... .. . ... ... ... : ... .. . ... : ... .. . ... : D-4 01 . ... ...
ROW 4F : F-2 07 2 V02 G02 ... : ... .. . ... ... ... : ... .. . S01 : ... .. . ... : ... .. . ... ...
ROW 50 : F#3 02 F ... ... ... : ... .. . ... ... ... : F-3 01 . ... : C-# 03 . ... : F-3 00 . Z40 ...
ROW 51 : ... .. . ... ... ... : ... .. . ... ... ... : D-2 02 . ... : ... .. . ... : ... .. . ... ...
ROW 52 : ... .. . ... ... ... : D-3 07 3 V02 ... ... : ... .. . ... : ... .. . ... : G#3 01 . ... ...
ROW 53 : ... .. . ... ... ... : A#2 07 2 V01 G02 ... : ... .. . S01 : ... .. . ... : ... .. . ... ...
ROW 54 : ... .. . ... ... ... : G#3 05 F ... ... ... : G-3 00 . ... : 8-# 04 . ... : G#3 00 . Z30 ...
ROW 55 : ... .. . ... ... ... : ... .. . ... ... ... : D-3 02 . ... : ... .. . ... : ... .. . ... ...
ROW 56 : F-3 07 3 V01 ... ... : ... .. . ... ... ... : ... .. . ... : ... .. . ... : F-3 01 . ... ...
ROW 57 : D-3 07 2 V02 G02 ... : ... .. . ... ... ... : ... .. . S01 : ... .. . ... : ... .. . ... ...
ROW 58 : F#3 02 F ... ... ... : ... .. . ... ... ... : F-3 01 . ... : C-# 03 . ... : F-3 00 . Z40 ...
ROW 59 : ... .. . ... ... ... : ... .. . ... ... ... : D-2 02 . ... : ... .. . ... : ... .. . ... ...
ROW 5A : ... .. . ... ... ... : F#3 07 3 V02 ... ... : ... .. . ... : ... .. . ... : G#3 01 . ... ...
ROW 5B : ... .. . ... ... ... : F-3 07 2 V01 G02 ... : ... .. . S01 : ... .. . ... : ... .. . ... ...
ROW 5C : ... .. . ... ... ... : F-3 05 F ... ... ... : F-3 01 . ... : C-# 03 . ... : D-3 00 . Z40 ...
ROW 5D : ... .. . ... ... ... : ... .. . ... ... ... : D-2 02 . ... : ... .. . ... : ... .. . ... ...
ROW 5E : G#3 07 3 V01 ... ... : ... .. . ... ... ... : ... .. . ... : ... .. . ... : F-3 01 . ... ...
ROW 5F : F#3 07 2 V02 G02 ... : ... .. . ... ... ... : ... .. . S01 : ... .. . ... : ... .. . ... ...

PATTERN 05
ROW 00 : F#3 02 F ... ... P7F : ... .. . ... ... P81 : F-3 01 . ... : C-# 03 . ... : F#4 00 . Z40 ...
ROW 01 : ... .. . ... ... ... : ... .. . ... ... ... : C#2 02 . ... : ... .. . ... : ... .. . ... ...
ROW 02 : ... .. . ... ... ... : F#3 07 3 V02 ... ... : ... .. . ... : ... .. . ... : F-3 01 . ... ...
ROW 03 : ... .. . ... ... ... : G#3 07 2 V01 G02 ... : ... .. . S01 : ... .. . ... : ... .. . ... ...
ROW 04 : ... .. . ... ... ... : C#2 05 F ... ... ... : C#2 02 . ... : C-# 03 . ... : C#4 00 . ... ...
ROW 05 : ... .. . ... ... ... : ... .. . ... ... ... : ... .. . ... : ... .. . ... : ... .. . ... ...
ROW 06 : F-3 07 3 V01 ... ... : ... .. . ... ... ... : ... .. . ... : ... .. . ... : F#4 01 . ... ...
ROW 07 : F#3 07 2 V02 G02 ... : ... .. . ... ... ... : ... .. . S01 : ... .. . ... : ... .. . ... ...
ROW 08 : F#2 02 F ... ... ... : ... .. . ... ... ... : F-3 01 . ... : C-# 03 . ... : A#3 00 . Z40 ...
ROW 09 : ... .. . ... ... ... : ... .. . ... ... ... : C#2 02 . ... : ... .. . ... : ... .. . ... ...
ROW 0A : ... .. . ... ... ... : F#3 07 3 V02 ... ... : ... .. . ... : ... .. . ... : C#4 01 . ... ...
ROW 0B : ... .. . ... ... ... : F-3 07 2 V01 G02 ... : ... .. . S01 : ... .. . ... : ... .. . ... ...
ROW 0C : ... .. . ... ... ... : A#2 05 F ... ... ... : G-3 00 . ... : 8-# 04 . ... : C#4 00 . Z30 ...
ROW 0D : ... .. . ... ... ... : ... .. . ... ... ... : C#3 02 . ... : ... .. . ... : ... .. . ... ...
ROW 0E : C#2 07 3 V01 ... ... : ... .. . ... ... ... : ... .. . ... : ... .. . ... : A#3 01 . ... ...
ROW 0F : F#3 07 2 V02 G02 ... : ... .. . ... ... ... : ... .. . S01 : ... .. . ... : ... .. . ... ...
ROW 10 : F#2 02 F ... ... ... : ... .. . ... ... ... : C#2 02 . ... : C-# 03 . ... : A#3 00 . ... ...
ROW 11 : ... .. . ... ... ... : ... .. . ... ... ... : ... .. . ... : ... .. . ... : ... .. . ... ...
ROW 12 : ... .. . ... ... ... : F#2 07 3 V02 ... ... : ... .. . ... : ... .. . ... : C#4 01 . ... ...
ROW 13 : ... .. . ... ... ... : C#2 07 2 V01 G02 ... : ... .. . S01 : ... .. . ... : ... .. . ... ...
ROW 14 : ... .. . ... ... ... : A#2 05 F ... ... ... : F-3 01 . ... : C-# 03 . ... : F#3 00 . Z40 ...
ROW 15 : ... .. . ... ... ... : ... .. . ... ... ... : C#2 02 . ... : ... .. . ... : ... .. . ... ...
ROW 16 : A#2 07 3 V01 ... ... : ... .. . ... ... ... : ... .. . ... : ... .. . ... : A#3 01 . ... ...
ROW 17 : F#2 07 2 V02 G02 ... : ... .. . ... ... ... : ... .. . S01 : ... .. . ... : ... .. . ... ...
ROW 18 : C#3 02 F ... ... ... : ... .. . ... ... ... : F-3 01 . ... : C-# 03 . ... : A#3 00 . Z40 ...
ROW 19 : ... .. . ... ... ... : ... .. . ... ... ... : C#2 02 . ... : ... .. . ... : ... .. . ... ...
ROW 1A : ... .. . ... ... ... : F#2 07 3 V02 ... ... : ... .. . ... : ... .. . ... : F#3 01 . ... ...
ROW 1B : ... .. . ... ... ... : A#2 07 2 V01 G02 ... : ... .. . S01 : ... .. . ... : ... .. . ... ...
ROW 1C : ... .. . ... ... ... : F-3 05 F ... ... ... : C#2 02 . ... : C-# 03 . ... : F#3 00 . ... ...
ROW 1D : ... .. . ... ... ... : ... .. . ... ... ... : ... .. . ... : ... .. . ... : ... .. . ... ...
ROW 1E : A#2 07 3 V01 ... ... : ... .. . ... ... ... : ... .. . ... : ... .. . ... : A#3 01 . ... ...
ROW 1F : F#2 07 2 V02 G02 ... : ... .. . ... ... ... : ... .. . S01 : ... .. . ... : ... .. . ... ...
ROW 20 : F#3 02 F ... ... ... : ... .. . ... ... ... : F-3 01 . ... : C-# 03 . ... : C#3 00 . Z40 ...
ROW 21 : ... .. . ... ... ... : ... .. . ... ... ... : C#2 02 . ... : ... .. . ... : ... .. . ... ...
ROW 22 : ... .. . ... ... ... : C#3 07 3 V02 ... ... : ... .. . ... : ... .. . ... : F#3 01 . ... ...
ROW 23 : ... .. . ... ... ... : A#2 07 2 V01 G02 ... : ... .. . S01 : ... .. . ... : ... .. . ... ...
ROW 24 : ... .. . ... ... ... : G#3 05 F ... ... ... : G-3 00 . ... : 8-# 04 . ... : F#3 00 . Z30 ...
ROW 25 : ... .. . ... ... ... : ... .. . ... ... ... : C#3 02 . ... : ... .. . ... : ... .. . ... ...
ROW 26 : F-3 07 3 V01 ... ... : ... .. . ... ... ... : ... .. . ... : ... .. . ... : C#3 01 . ... ...
ROW 27 : C#3 07 2 V02 G02 ... : ... .. . ... ... ... : ... .. . S01 : ... .. . ... : ... .. . ... ...
ROW 28 : F#3 02 F ... ... ... : ... .. . ... ... ... : C#2 02 . ... : C-# 03 . ... : C#3 00 . ... ...
ROW 29 : ... .. . ... ... ... : ... .. . ... ... ... : ... .. . ... : ... .. . ... : ... .. . ... ...
ROW 2A : ... .. . ... ... ... : F#3 07 3 V02 ... ... : ... .. . ... : ... .. . ... : F#3 01 . ... ...
ROW 2B : ... .. . ... ... ... : F-3 07 2 V01 G02 ... : ... .. . S01 : ... .. . ... : ... .. . ... ...
ROW 2C : ... .. . ... ... ... : F-3 05 F ... ... ... : F-3 01 . ... : C-# 03 . ... : A#2 00 . Z40 ...
ROW 2D : ... .. . ... ... ... : ... .. . ... ... ... : C#2 02 . ... : ... .. . ... : ... .. . ... ...
ROW 2E : G#3 07 3 V01 ... ... : ... .. . ... ... ... : ... .. . ... : ... .. . ... : C#3 01 . ... ...
ROW 2F : F#3 07 2 V02 G02 ... : ... .. . ... ... ... : ... .. . S01 : ... .. . ... : ... .. . ... ...
ROW 30 : F#3 02 F ... ... ... : ... .. . ... ... ... : F-3 01 . ... : C-# 03 . ... : F#4 00 . Z40 ...
ROW 31 : ... .. . ... ... ... : ... .. . ... ... ... : C-2 02 . ... : ... .. . ... : ... .. . ... ...
ROW 32 : ... .. . ... ... ... : F#3 07 3 V02 ... ... : ... .. . ... : ... .. . ... : A#2 01 . ... ...
ROW 33 : ... .. . ... ... ... : G#3 07 2 V01 G02 ... : ... .. . S01 : ... .. . ... : ... .. . ... ...
ROW 34 : ... .. . ... ... ... : C-2 05 F ... ... ... : C-2 02 . ... : C-# 03 . ... : C-4 00 . ... ...
ROW 35 : ... .. . ... ... ... : ... .. . ... ... ... : ... .. . ... : ... .. . ... : ... .. . ... ...
ROW 36 : F-3 07 3 V01 ... ... : ... .. . ... ... ... : ... .. . ... : ... .. . ... : F#4 01 . ... ...
ROW 37 : F#3 07 2 V02 G02 ... : ... .. . ... ... ... : ... .. . S01 : ... .. . ... : ... .. . ... ...
ROW 38 : F#2 02 F ... ... ... : ... .. . ... ... ... : F-3 01 . ... : C-# 03 . ... : G#3 00 . Z40 ...
ROW 39 : ... .. . ... ... ... : ... .. . ... ... ... : C-2 02 . ... : ... .. . ... : ... .. . ... ...
ROW 3A : ... .. . ... ... ... : F#3 07 3 V02 ... ... : ... .. . ... : ... .. . ... : C-4 01 . ... ...
ROW 3B : ... .. . ... ... ... : F-3 07 2 V01 G02 ... : ... .. . S01 : ... .. . ... : ... .. . ... ...
ROW 3C : ... .. . ... ... ... : G#2 05 F ... ... ... : G-3 00 . ... : 8-# 04 . ... : C-4 00 . Z30 ...
ROW 3D : ... .. . ... ... ... : ... .. . ... ... ... : C-3 02 . ... : ... .. . ... : ... .. . ... ...
ROW 3E : C-2 07 3 V01 ... ... : ... .. . ... ... ... : ... .. . ... : ... .. . ... : G#3 01 . ... ...
ROW 3F : F#3 07 2 V02 G02 ... : ... .. . ... ... ... : ... .. . S01 : ... .. . ... : ... .. . ... ...
ROW 40 : F#2 02 F ... ... ... : ... .. . ... ... ... : C-2 02 . ... : C-# 03 . ... : G#3 00 . ... ...
ROW 41 : ... .. . ... ... ... : ... .. . ... ... ... : ... .. . ... : ... .. . ... : ... .. . ... ...
ROW 42 : ... .. . ... ... ... : F#2 07 3 V02 ... ... : ... .. . ... : ... .. . ... : C-4 01 . ... ...
ROW 43 : ... .. . ... ... ... : C-2 07 2 V01 G02 ... : ... .. . S01 : ... .. . ... : ... .. . ... ...
ROW 44 : ... .. . ... ... ... : G#2 05 F ... ... ... : F-3 01 . ... : C-# 03 . ... : F#3 00 . Z40 ...
ROW 45 : ... .. . ... ... ... : ... .. . ... ... ... : C-2 02 . ... : ... .. . ... : ... .. . ... ...
ROW 46 : G#2 07 3 V01 ... ... : ... .. . ... ... ... : ... .. . ... : ... .. . ... : G#3 01 . ... ...
ROW 47 : F#2 07 2 V02 G02 ... : ... .. . ... ... ... : ... .. . S01 : ... .. . ... : ... .. . ... ...
ROW 48 : C-3 02 F ... ... ... : ... .. . ... ... ... : F-3 01 . ... : C-# 03 . ... : G#3 00 . Z40 ...
ROW 49 : ... .. . ... ... ... : ... .. . ... ... ... : C-2 02 . ... : ... .. . ... : ... .. . ... ...
ROW 4A : ... .. . ... ... ... : F#2 07 3 V02 ... ... : ... .. . ... : ... .. . ... : F#3 01 . ... ...
ROW 4B : ... .. . ... ... ... : G#2 07 2 V01 G02 ... : ... .. . S01 : ... .. . ... : ... .. . ... ...
ROW 4C : ... .. . ... ... ... : F-3 05 F ... ... ... : C-2 02 . ... : C-# 03 . ... : F#3 00 . ... ...
ROW 4D : ... .. . ... ... ... : ... .. . ... ... ... : ... .. . ... : ... .. . ... : ... .. . ... ...
ROW 4E : G#2 07 3 V01 ... ... : ... .. . ... ... ... : ... .. . ... : ... .. . ... : G#3 01 . ... ...
ROW 4F : F#2 07 2 V02 G02 ... : ... .. . ... ... ... : ... .. . S01 : ... .. . ... : ... .. . ... ...
ROW 50 : D#3 02 F ... ... ... : ... .. . ... ... ... : F-3 01 . ... : C-# 03 . ... : C-3 00 . Z40 ...
ROW 51 : ... .. . ... ... ... : ... .. . ... ... ... : C-2 02 . ... : ... .. . ... : ... .. . ... ...
ROW 52 : ... .. . ... ... ... : C-3 07 3 V02 ... ... : ... .. . ... : ... .. . ... : F#3 01 . ... ...
ROW 53 : ... .. . ... ... ... : G#2 07 2 V01 G02 ... : ... .. . S01 : ... .. . ... : ... .. . ... ...
ROW 54 : ... .. . ... ... ... : F-3 05 F ... ... ... : G-3 00 . ... : 8-# 04 . ... : F#3 00 . Z30 ...
ROW 55 : ... .. . ... ... ... : ... .. . ... ... ... : C-3 02 . ... : ... .. . ... : ... .. . ... ...
ROW 56 : F-3 07 3 V01 ... ... : ... .. . ... ... ... : ... .. . ... : ... .. . ... : C-3 01 . ... ...
ROW 57 : C-3 07 2 V02 G02 ... : ... .. . ... ... ... : ... .. . S01 : ... .. . ... : ... .. . ... ...
ROW 58 : F#3 02 F ... ... ... : ... .. . ... ... ... : F-3 01 . ... : C-# 03 . ... : C-3 00 . Z40 ...
ROW 59 : ... .. . ... ... ... : ... .. . ... ... ... : C-2 02 . ... : ... .. . ... : ... .. . ... ...
ROW 5A : ... .. . ... ... ... : D#3 07 3 V02 ... ... : ... .. . ... : ... .. . ... : F#3 01 . ... ...
ROW 5B : ... .. . ... ... ... : F-3 07 2 V01 G02 ... : ... .. . S01 : ... .. . ... : ... .. . ... ...
ROW 5C : ... .. . ... ... ... : D-3 05 F ... ... ... : G-3 00 . ... : 8-# 04 . ... : G#2 00 . Z30 ...
ROW 5D : ... .. . ... ... ... : ... .. . ... ... ... : C-2 02 . ... : ... .. . ... : ... .. . ... ...
ROW 5E : F-3 07 3 V01 ... ... : ... .. . ... ... ... : ... .. . ... : ... .. . ... : C-3 01 . ... ...
ROW 5F : D#3 07 2 V02 G02 ... : ... .. . ... ... ... : ... .. . S01 : ... .. . ... : ... .. . ... ...

PATTERN 06
ROW 00 : D#3 02 F ... ... P7F : ... .. . ... ... P81 : F-3 01 . ... : C-# 03 . ... : B-2 00 . Z40 ...
ROW 01 : ... .. . ... ... ... : ... .. . ... ... ... : B-1 02 . ... : ... .. . ... : ... .. . ... ...
ROW 02 : ... .. . ... ... ... : F#3 07 3 V02 ... ... : ... .. . ... : ... .. . ... : G#2 01 . ... ...
ROW 03 : ... .. . ... ... ... : F-3 07 2 V01 G02 ... : ... .. . S01 : ... .. . ... : ... .. . ... ...
ROW 04 : ... .. . ... ... ... : B-1 05 F ... ... ... : B-1 02 . ... : C-# 03 . ... : B-3 00 . ... ...
ROW 05 : ... .. . ... ... ... : ... .. . ... ... ... : ... .. . ... : ... .. . ... : ... .. . ... ...
ROW 06 : D-3 07 3 V01 ... ... : ... .. . ... ... ... : ... .. . ... : ... .. . ... : B-2 01 . ... ...
ROW 07 : F#3 07 2 V02 G02 ... : ... .. . ... ... ... : ... .. . S01 : ... .. . ... : ... .. . ... ...
ROW 08 : D#2 02 F ... ... ... : ... .. . ... ... ... : F-3 01 . ... : C-# 03 . ... : F#3 00 . Z40 ...
ROW 09 : ... .. . ... ... ... : ... .. . ... ... ... : B-1 02 . ... : ... .. . ... : ... .. . ... ...
ROW 0A : ... .. . ... ... ... : D#3 07 3 V02 ... ... : ... .. . ... : ... .. . ... : B-3 01 . ... ...
ROW 0B : ... .. . ... ... ... : D-3 07 2 V01 G02 ... : ... .. . S01 : ... .. . ... : ... .. . ... ...
ROW 0C : ... .. . ... ... ... : F#2 05 F ... ... ... : G-3 00 . ... : 8-# 04 . ... : C#4 00 . Z30 ...
ROW 0D : ... .. . ... ... ... : ... .. . ... ... ... : B-2 02 . ... : ... .. . ... : ... .. . ... ...
ROW 0E : B-1 07 3 V01 ... ... : ... .. . ... ... ... : ... .. . ... : ... .. . ... : F#3 01 . ... ...
ROW 0F : D#3 07 2 V02 G02 ... : ... .. . ... ... ... : ... .. . S01 : ... .. . ... : ... .. . ... ...
ROW 10 : D#3 02 F ... ... ... : ... .. . ... ... ... : B-1 02 . ... : C-# 03 . ... : B-3 00 . ... ...
ROW 11 : ... .. . ... ... ... : ... .. . ... ... ... : ... .. . ... : ... .. . ... : ... .. . ... ...
ROW 12 : ... .. . ... ... ... : D#2 07 3 V02 ... ... : ... .. . ... : ... .. . ... : C#4 01 . ... ...
ROW 13 : ... .. . ... ... ... : B-1 07 2 V01 G02 ... : ... .. . S01 : ... .. . ... : ... .. . ... ...
ROW 14 : ... .. . ... ... ... : F-3 05 F ... ... ... : F-3 01 . ... : C-# 03 . ... : F#3 00 . Z40 ...
ROW 15 : ... .. . ... ... ... : ... .. . ... ... ... : B-1 02 . ... : ... .. . ... : ... .. . ... ...
ROW 16 : F#2 07 3 V01 ... ... : ... .. . ... ... ... : ... .. . ... : ... .. . ... : B-3 01 . ... ...
ROW 17 : D#2 07 2 V02 G02 ... : ... .. . ... ... ... : ... .. . S01 : ... .. . ... : ... .. . ... ...
ROW 18 : F#3 02 F ... ... ... : ... .. . ... ... ... : F-3 01 . ... : C-# 03 . ... : B-2 00 . Z40 ...
ROW 19 : ... .. . ... ... ... : ... .. . ... ... ... : B-1 02 . ... : ... .. . ... : ... .. . ... ...
ROW 1A : ... .. . ... ... ... : D#3 07 3 V02 ... ... : ... .. . ... : ... .. . ... : F#3 01 . ... ...
ROW 1B : ... .. . ... ... ... : F#2 07 2 V01 G02 ... : ... .. . S01 : ... .. . ... : ... .. . ... ...
ROW 1C : ... .. . ... ... ... : F#2 05 F ... ... ... : B-1 02 . ... : C-# 03 . ... : B-3 00 . ... ...
ROW 1D : ... .. . ... ... ... : ... .. . ... ... ... : ... .. . ... : ... .. . ... : ... .. . ... ...
ROW 1E : F-3 07 3 V01 ... ... : ... .. . ... ... ... : ... .. . ... : ... .. . ... : B-2 01 . ... ...
ROW 1F : D#3 07 2 V02 G02 ... : ... .. . ... ... ... : ... .. . S01 : ... .. . ... : ... .. . ... ...
ROW 20 : G#3 02 F ... ... ... : ... .. . ... ... ... : F-3 01 . ... : C-# 03 . ... : F#3 00 . Z40 ...
ROW 21 : ... .. . ... ... ... : ... .. . ... ... ... : B-1 02 . ... : ... .. . ... : ... .. . ... ...
ROW 22 : ... .. . ... ... ... : F#3 07 3 V02 ... ... : ... .. . ... : ... .. . ... : B-3 01 . ... ...
ROW 23 : ... .. . ... ... ... : F-3 07 2 V01 G02 ... : ... .. . S01 : ... .. . ... : ... .. . ... ...
ROW 24 : ... .. . ... ... ... : D#2 05 F ... ... ... : G-3 00 . ... : 8-# 04 . ... : C#4 00 . Z30 ...
ROW 25 : ... .. . ... ... ... : ... .. . ... ... ... : B-2 02 . ... : ... .. . ... : ... .. . ... ...
ROW 26 : F#2 07 3 V01 ... ... : ... .. . ... ... ... : ... .. . ... : ... .. . ... : F#3 01 . ... ...
ROW 27 : F#3 07 2 V02 G02 ... : ... .. . ... ... ... : ... .. . S01 : ... .. . ... : ... .. . ... ...
ROW 28 : F#3 02 F ... ... ... : ... .. . ... ... ... : B-1 02 . ... : C-# 03 . ... : B-3 00 . ... ...
ROW 29 : ... .. . ... ... ... : ... .. . ... ... ... : ... .. . ... : ... .. . ... : ... .. . ... ...
ROW 2A : ... .. . ... ... ... : G#3 07 3 V02 ... ... : ... .. . ... : ... .. . ... : C#4 01 . ... ...
ROW 2B : ... .. . ... ... ... : F#2 07 2 V01 G02 ... : ... .. . S01 : ... .. . ... : ... .. . ... ...
ROW 2C : ... .. . ... ... ... : F-3 05 F ... ... ... : F-3 01 . ... : C-# 03 . ... : F#3 00 . Z40 ...
ROW 2D : ... .. . ... ... ... : ... .. . ... ... ... : B-1 02 . ... : ... .. . ... : ... .. . ... ...
ROW 2E : D#2 07 3 V01 ... ... : ... .. . ... ... ... : ... .. . ... : ... .. . ... : B-3 01 . ... ...
ROW 2F : G#3 07 2 V02 G02 ... : ... .. . ... ... ... : ... .. . S01 : ... .. . ... : ... .. . ... ...
ROW 30 : F#3 02 F ... ... ... : ... .. . ... ... ... : F-3 01 . ... : C-# 03 . ... : A#2 00 . Z40 ...
ROW 31 : ... .. . ... ... ... : ... .. . ... ... ... : A#1 02 . ... : ... .. . ... : ... .. . ... ...
ROW 32 : ... .. . ... ... ... : F#3 07 3 V02 ... ... : ... .. . ... : ... .. . ... : F#3 01 . ... ...
ROW 33 : ... .. . ... ... ... : D#2 07 2 V01 G02 ... : ... .. . S01 : ... .. . ... : ... .. . ... ...
ROW 34 : ... .. . ... ... ... : A#2 05 F ... ... ... : A#1 02 . ... : C-# 03 . ... : F#3 00 . ... ...
ROW 35 : ... .. . ... ... ... : ... .. . ... ... ... : ... .. . ... : ... .. . ... : ... .. . ... ...
ROW 36 : F-3 07 3 V01 ... ... : ... .. . ... ... ... : ... .. . ... : ... .. . ... : A#2 01 . ... ...
ROW 37 : F#3 07 2 V02 G02 ... : ... .. . ... ... ... : ... .. . S01 : ... .. . ... : ... .. . ... ...
ROW 38 : D#3 02 F ... ... ... : ... .. . ... ... ... : F-3 01 . ... : C-# 03 . ... : D#3 00 . Z40 ...
ROW 39 : ... .. . ... ... ... : ... .. . ... ... ... : A#1 02 . ... : ... .. . ... : ... .. . ... ...
ROW 3A : ... .. . ... ... ... : F#3 07 3 V02 ... ... : ... .. . ... : ... .. . ... : F#3 01 . ... ...
ROW 3B : ... .. . ... ... ... : F-3 07 2 V01 G02 ... : ... .. . S01 : ... .. . ... : ... .. . ... ...
ROW 3C : ... .. . ... ... ... : A#1 05 F ... ... ... : G-3 00 . ... : 8-# 04 . ... : D#4 00 . Z30 ...
ROW 3D : ... .. . ... ... ... : ... .. . ... ... ... : A#2 02 . ... : ... .. . ... : ... .. . ... ...
ROW 3E : A#2 07 3 V01 ... ... : ... .. . ... ... ... : ... .. . ... : ... .. . ... : D#3 01 . ... ...
ROW 3F : F#3 07 2 V02 G02 ... : ... .. . ... ... ... : ... .. . S01 : ... .. . ... : ... .. . ... ...
ROW 40 : D#2 02 F ... ... ... : ... .. . ... ... ... : A#1 02 . ... : C-# 03 . ... : A#3 00 . ... ...
ROW 41 : ... .. . ... ... ... : ... .. . ... ... ... : ... .. . ... : ... .. . ... : ... .. . ... ...
ROW 42 : ... .. . ... ... ... : D#3 07 3 V02 ... ... : ... .. . ... : ... .. . ... : D#4 01 . ... ...
ROW 43 : ... .. . ... ... ... : A#2 07 2 V01 G02 ... : ... .. . S01 : ... .. . ... : ... .. . ... ...
ROW 44 : ... .. . ... ... ... : F#2 05 F ... ... ... : F-3 01 . ... : C-# 03 . ... : F#3 00 . Z40 ...
ROW 45 : ... .. . ... ... ... : ... .. . ... ... ... : A#1 02 . ... : ... .. . ... : ... .. . ... ...
ROW 46 : A#1 07 3 V01 ... ... : ... .. . ... ... ... : ... .. . ... : ... .. . ... : A#3 01 . ... ...
ROW 47 : D#3 07 2 V02 G02 ... : ... .. . ... ... ... : ... .. . S01 : ... .. . ... : ... .. . ... ...
ROW 48 : D#2 02 F ... ... ... : ... .. . ... ... ... : F-3 01 . ... : C-# 03 . ... : A#2 00 . Z40 ...
ROW 49 : ... .. . ... ... ... : ... .. . ... ... ... : A#1 02 . ... : ... .. . ... : ... .. . ... ...
ROW 4A : ... .. . ... ... ... : D#2 07 3 V02 ... ... : ... .. . ... : ... .. . ... : F#3 01 . ... ...
ROW 4B : ... .. . ... ... ... : A#1 07 2 V01 G02 ... : ... .. . S01 : ... .. . ... : ... .. . ... ...
ROW 4C : ... .. . ... ... ... : F#2 05 F ... ... ... : A#1 02 . ... : C-# 03 . ... : F#3 00 . ... ...
ROW 4D : ... .. . ... ... ... : ... .. . ... ... ... : ... .. . ... : ... .. . ... : ... .. . ... ...
ROW 4E : F#2 07 3 V01 ... ... : ... .. . ... ... ... : ... .. . ... : ... .. . ... : A#2 01 . ... ...
ROW 4F : D#2 07 2 V02 G02 ... : ... .. . ... ... ... : ... .. . S01 : ... .. . ... : ... .. . ... ...
ROW 50 : A#2 02 F ... ... ... : ... .. . ... ... ... : F-3 01 . ... : C-# 03 . ... : D#3 00 . Z40 ...
ROW 51 : ... .. . ... ... ... : ... .. . ... ... ... : A#1 02 . ... : ... .. . ... : ... .. . ... ...
ROW 52 : ... .. . ... ... ... : D#2 07 3 V02 ... ... : ... .. . ... : ... .. . ... : F#3 01 . ... ...
ROW 53 : ... .. . ... ... ... : F#2 07 2 V01 G02 ... : ... .. . S01 : ... .. . ... : ... .. . ... ...
ROW 54 : ... .. . ... ... ... : F#2 05 F ... ... ... : G-3 00 . ... : 8-# 04 . ... : D#4 00 . Z30 ...
ROW 55 : ... .. . ... ... ... : ... .. . ... ... ... : A#2 02 . ... : ... .. . ... : ... .. . ... ...
ROW 56 : F#2 07 3 V01 ... ... : ... .. . ... ... ... : ... .. . ... : ... .. . ... : D#3 01 . ... ...
ROW 57 : D#2 07 2 V02 G02 ... : ... .. . ... ... ... : ... .. . S01 : ... .. . ... : ... .. . ... ...
ROW 58 : A#2 02 F ... ... ... : ... .. . ... ... ... : F-3 01 . ... : C-# 03 . ... : A#3 00 . Z40 ...
ROW 59 : ... .. . ... ... ... : ... .. . ... ... ... : A#1 02 . ... : ... .. . ... : ... .. . ... ...
ROW 5A : ... .. . ... ... ... : A#2 07 3 V02 ... ... : ... .. . ... : ... .. . ... : D#4 01 . ... ...
ROW 5B : ... .. . ... ... ... : F#2 07 2 V01 G02 ... : ... .. . S01 : ... .. . ... : ... .. . ... ...
ROW 5C : ... .. . ... ... ... : D#3 05 F ... ... ... : F-3 01 . ... : C-# 03 . ... : F#3 00 . Z40 ...
ROW 5D : ... .. . ... ... ... : ... .. . ... ... ... : A#1 02 . ... : ... .. . ... : ... .. . ... ...
ROW 5E : F#2 07 3 V01 ... ... : ... .. . ... ... ... : ... .. . ... : ... .. . ... : A#3 01 . ... ...
ROW 5F : A#2 07 2 V02 G02 ... : ... .. . ... ... ... : ... .. . S01 : ... .. . ... : ... .. . ... ...

PATTERN 07
ROW 00 : F#3 02 F ... ... P7F : ... .. . ... ... P81 : F-3 01 . ... : C-# 03 . ... : A-2 00 . Z40 ...
ROW 01 : ... .. . ... ... ... : ... .. . ... ... ... : A-1 02 . ... : ... .. . ... : ... .. . ... ...
ROW 02 : ... .. . ... ... ... : A#2 07 3 V02 ... ... : ... .. . ... : ... .. . ... : F#3 01 . ... ...
ROW 03 : ... .. . ... ... ... : F#2 07 2 V01 G02 ... : ... .. . S01 : ... .. . ... : ... .. . ... ...
ROW 04 : ... .. . ... ... ... : D#2 05 F ... ... ... : A-1 02 . ... : C-# 03 . ... : D#3 00 . ... ...
ROW 05 : ... .. . ... ... ... : ... .. . ... ... ... : ... .. . ... : ... .. . ... : ... .. . ... ...
ROW 06 : D#3 07 3 V01 ... ... : ... .. . ... ... ... : ... .. . ... : ... .. . ... : A-2 01 . ... ...
ROW 07 : A#2 07 2 V02 G02 ... : ... .. . ... ... ... : ... .. . S01 : ... .. . ... : ... .. . ... ...
ROW 08 : A-2 02 F ... ... ... : ... .. . ... ... ... : F-3 01 . ... : C-# 03 . ... : F#3 00 . Z40 ...
ROW 09 : ... .. . ... ... ... : ... .. . ... ... ... : A-1 02 . ... : ... .. . ... : ... .. . ... ...
ROW 0A : ... .. . ... ... ... : F#3 07 3 V02 ... ... : ... .. . ... : ... .. . ... : D#3 01 . ... ...
ROW 0B : ... .. . ... ... ... : D#3 07 2 V01 G02 ... : ... .. . S01 : ... .. . ... : ... .. . ... ...
ROW 0C : ... .. . ... ... ... : D#3 05 F ... ... ... : G-3 00 . ... : 8-# 04 . ... : D#3 00 . Z30 ...
ROW 0D : ... .. . ... ... ... : ... .. . ... ... ... : A-2 02 . ... : ... .. . ... : ... .. . ... ...
ROW 0E : D#2 07 3 V01 ... ... : ... .. . ... ... ... : ... .. . ... : ... .. . ... : F#3 01 . ... ...
ROW 0F : F#3 07 2 V02 G02 ... : ... .. . ... ... ... : ... .. . S01 : ... .. . ... : ... .. . ... ...
ROW 10 : D#3 02 F ... ... ... : ... .. . ... ... ... : A-1 02 . ... : C-# 03 . ... : F#3 00 . ... ...
ROW 11 : ... .. . ... ... ... : ... .. . ... ... ... : ... .. . ... : ... .. . ... : ... .. . ... ...
ROW 12 : ... .. . ... ... ... : A-2 07 3 V02 ... ... : ... .. . ... : ... .. . ... : D#3 01 . ... ...
ROW 13 : ... .. . ... ... ... : D#2 07 2 V01 G02 ... : ... .. . S01 : ... .. . ... : ... .. . ... ...
ROW 14 : ... .. . ... ... ... : F-3 05 F ... ... ... : F-3 01 . ... : C-# 03 . ... : A-3 00 . Z40 ...
ROW 15 : ... .. . ... ... ... : ... .. . ... ... ... : A-1 02 . ... : ... .. . ... : ... .. . ... ...
ROW 16 : D#3 07 3 V01 ... ... : ... .. . ... ... ... : ... .. . ... : ... .. . ... : F#3 01 . ... ...
ROW 17 : A-2 07 2 V02 G02 ... : ... .. . ... ... ... : ... .. . S01 : ... .. . ... : ... .. . ... ...
ROW 18 : F#3 02 F ... ... ... : ... .. . ... ... ... : F-3 01 . ... : C-# 03 . ... : F#3 00 . Z40 ...
ROW 19 : ... .. . ... ... ... : ... .. . ... ... ... : A-1 02 . ... : ... .. . ... : ... .. . ... ...
ROW 1A : ... .. . ... ... ... : D#3 07 3 V02 ... ... : ... .. . ... : ... .. . ... : A-3 01 . ... ...
ROW 1B : ... .. . ... ... ... : D#3 07 2 V01 G02 ... : ... .. . S01 : ... .. . ... : ... .. . ... ...
ROW 1C : ... .. . ... ... ... : F#2 05 F ... ... ... : A-1 02 . ... : C-# 03 . ... : A-3 00 . ... ...
ROW 1D : ... .. . ... ... ... : ... .. . ... ... ... : ... .. . ... : ... .. . ... : ... .. . ... ...
ROW 1E : F-3 07 3 V01 ... ... : ... .. . ... ... ... : ... .. . ... : ... .. . ... : F#3 01 . ... ...
ROW 1F : D#3 07 2 V02 G02 ... : ... .. . ... ... ... : ... .. . S01 : ... .. . ... : ... .. . ... ...
ROW 20 : G#3 02 F ... ... ... : ... .. . ... ... ... : F-3 01 . ... : C-# 03 . ... : D#4 00 . Z40 ...
ROW 21 : ... .. . ... ... ... : ... .. . ... ... ... : A-1 02 . ... : ... .. . ... : ... .. . ... ...
ROW 22 : ... .. . ... ... ... : F#3 07 3 V02 ... ... : ... .. . ... : ... .. . ... : A-3 01 . ... ...
ROW 23 : ... .. . ... ... ... : F-3 07 2 V01 G02 ... : ... .. . S01 : ... .. . ... : ... .. . ... ...
ROW 24 : ... .. . ... ... ... : F#2 05 F ... ... ... : G-3 00 . ... : 8-# 04 . ... : A-3 00 . Z30 ...
ROW 25 : ... .. . ... ... ... : ... .. . ... ... ... : A-2 02 . ... : ... .. . ... : ... .. . ... ...
ROW 26 : F#2 07 3 V01 ... ... : ... .. . ... ... ... : ... .. . ... : ... .. . ... : D#4 01 . ... ...
ROW 27 : F#3 07 2 V02 G02 ... : ... .. . ... ... ... : ... .. . S01 : ... .. . ... : ... .. . ... ...
ROW 28 : F-3 02 F ... ... ... : ... .. . ... ... ... : A-1 02 . ... : C-# 03 . ... : D#4 00 . ... ...
ROW 29 : ... .. . ... ... ... : ... .. . ... ... ... : ... .. . ... : ... .. . ... : ... .. . ... ...
ROW 2A : ... .. . ... ... ... : G#3 07 3 V02 ... ... : ... .. . ... : ... .. . ... : A-3 01 . ... ...
ROW 2B : ... .. . ... ... ... : F#2 07 2 V01 G02 ... : ... .. . S01 : ... .. . ... : ... .. . ... ...
ROW 2C : ... .. . ... ... ... : D#3 05 F ... ... ... : F-3 01 . ... : C-# 03 . ... : F#4 00 . Z40 ...
ROW 2D : ... .. . ... ... ... : ... .. . ... ... ... : A-1 02 . ... : ... .. . ... : ... .. . ... ...
ROW 2E : F#2 07 3 V01 ... ... : ... .. . ... ... ... : ... .. . ... : ... .. . ... : D#4 01 . ... ...
ROW 2F : G#3 07 2 V02 G02 ... : ... .. . ... ... ... : ... .. . S01 : ... .. . ... : ... .. . ... ...
ROW 30 : D-3 02 F ... ... ... : ... .. . ... ... ... : F-3 01 . ... : C-# 03 . ... : A#2 00 . Z40 ...
ROW 31 : ... .. . ... ... ... : ... .. . ... ... ... : A#1 02 . ... : ... .. . ... : ... .. . ... ...
ROW 32 : ... .. . ... ... ... : F-3 07 3 V02 ... ... : ... .. . ... : ... .. . ... : F#4 01 . ... ...
ROW 33 : ... .. . ... ... ... : F#2 07 2 V01 G02 ... : ... .. . S01 : ... .. . ... : ... .. . ... ...
ROW 34 : ... .. . ... ... ... : G#2 05 F ... ... ... : A#1 02 . ... : C-# 03 . ... : D-3 00 . ... ...
ROW 35 : ... .. . ... ... ... : ... .. . ... ... ... : ... .. . ... : ... .. . ... : ... .. . ... ...
ROW 36 : D#3 07 3 V01 ... ... : ... .. . ... ... ... : ... .. . ... : ... .. . ... : A#2 01 . ... ...
ROW 37 : F-3 07 2 V02 G02 ... : ... .. . ... ... ... : ... .. . S01 : ... .. . ... : ... .. . ... ...
ROW 38 : A#2 02 F ... ... ... : ... .. . ... ... ... : F-3 01 . ... : C-# 03 . ... : F-3 00 . Z40 ...
ROW 39 : ... .. . ... ... ... : ... .. . ... ... ... : A#1 02 . ... : ... .. . ... : ... .. . ... ...
ROW 3A : ... .. . ... ... ... : D-3 07 3 V02 ... ... : ... .. . ... : ... .. . ... : D-3 01 . ... ...
ROW 3B : ... .. . ... ... ... : D#3 07 2 V01 G02 ... : ... .. . S01 : ... .. . ... : ... .. . ... ...
ROW 3C : ... .. . ... ... ... : D-3 05 F ... ... ... : G-3 00 . ... : 8-# 04 . ... : D-3 00 . Z30 ...
ROW 3D : ... .. . ... ... ... : ... .. . ... ... ... : A#2 02 . ... : ... .. . ... : ... .. . ... ...
ROW 3E : G#2 07 3 V01 ... ... : ... .. . ... ... ... : ... .. . ... : ... .. . ... : F-3 01 . ... ...
ROW 3F : D-3 07 2 V02 G02 ... : ... .. . ... ... ... : ... .. . S01 : ... .. . ... : ... .. . ... ...
ROW 40 : F-2 02 F ... ... ... : ... .. . ... ... ... : A#1 02 . ... : C-# 03 . ... : F-3 00 . ... ...
ROW 41 : ... .. . ... ... ... : ... .. . ... ... ... : ... .. . ... : ... .. . ... : ... .. . ... ...
ROW 42 : ... .. . ... ... ... : A#2 07 3 V02 ... ... : ... .. . ... : ... .. . ... : D-3 01 . ... ...
ROW 43 : ... .. . ... ... ... : G#2 07 2 V01 G02 ... : ... .. . S01 : ... .. . ... : ... .. . ... ...
ROW 44 : ... .. . ... ... ... : A#2 05 F ... ... ... : F-3 01 . ... : C-# 03 . ... : A#3 00 . Z40 ...
ROW 45 : ... .. . ... ... ... : ... .. . ... ... ... : A#1 02 . ... : ... .. . ... : ... .. . ... ...
ROW 46 : D-3 07 3 V01 ... ... : ... .. . ... ... ... : ... .. . ... : ... .. . ... : F-3 01 . ... ...
ROW 47 : A#2 07 2 V02 G02 ... : ... .. . ... ... ... : ... .. . S01 : ... .. . ... : ... .. . ... ...
ROW 48 : D#3 02 F ... ... ... : ... .. . ... ... ... : F-3 01 . ... : C-# 03 . ... : F-3 00 . Z40 ...
ROW 49 : ... .. . ... ... ... : ... .. . ... ... ... : A#1 02 . ... : ... .. . ... : ... .. . ... ...
ROW 4A : ... .. . ... ... ... : F-2 07 3 V02 ... ... : ... .. . ... : ... .. . ... : A#3 01 . ... ...
ROW 4B : ... .. . ... ... ... : D-3 07 2 V01 G02 ... : ... .. . S01 : ... .. . ... : ... .. . ... ...
ROW 4C : ... .. . ... ... ... : D-2 05 F ... ... ... : A#1 02 . ... : C-# 03 . ... : A#3 00 . ... ...
ROW 4D : ... .. . ... ... ... : ... .. . ... ... ... : ... .. . ... : ... .. . ... : ... .. . ... ...
ROW 4E : A#2 07 3 V01 ... ... : ... .. . ... ... ... : ... .. . ... : ... .. . ... : F-3 01 . ... ...
ROW 4F : F-2 07 2 V02 G02 ... : ... .. . ... ... ... : ... .. . S01 : ... .. . ... : ... .. . ... ...
ROW 50 : A#2 02 F ... ... ... : ... .. . ... ... ... : F-3 01 . ... : C-# 03 . ... : D-4 00 . Z40 ...
ROW 51 : ... .. . ... ... ... : ... .. . ... ... ... : A#1 02 . ... : ... .. . ... : ... .. . ... ...
ROW 52 : ... .. . ... ... ... : D#3 07 3 V02 ... ... : ... .. . ... : ... .. . ... : A#3 01 . ... ...
ROW 53 : ... .. . ... ... ... : A#2 07 2 V01 G02 ... : ... .. . S01 : ... .. . ... : ... .. . ... ...
ROW 54 : ... .. . ... ... ... : F-3 05 F ... ... ... : G-3 00 . ... : 8-# 04 . ... : A#3 00 . Z30 ...
ROW 55 : ... .. . ... ... ... : ... .. . ... ... ... : A#2 02 . ... : ... .. . ... : ... .. . ... ...
ROW 56 : D-2 07 3 V01 ... ... : ... .. . ... ... ... : ... .. . ... : ... .. . ... : D-4 01 . ... ...
ROW 57 : D#3 07 2 V02 G02 ... : ... .. . ... ... ... : ... .. . S01 : ... .. . ... : ... .. . ... ...
ROW 58 : F-2 02 F ... ... ... : ... .. . ... ... ... : G-3 00 . ... : 8-# 04 . ... : D-4 00 . Z30 ...
ROW 59 : ... .. . ... ... ... : ... .. . ... ... ... : A#1 02 . ... : ... .. . ... : ... .. . ... ...
ROW 5A : ... .. . ... ... ... : A#2 07 3 V02 ... ... : ... .. . ... : ... .. . ... : A#3 01 . ... ...
ROW 5B : ... .. . ... ... ... : D-2 07 2 V01 G02 ... : ... .. . S01 : ... .. . ... : ... .. . ... ...
ROW 5C : ... .. . ... ... ... : A#2 05 F ... ... ... : G-3 00 . ... : 8-# 04 . ... : F-4 00 . Z30 ...
ROW 5D : ... .. . ... ... ... : ... .. . ... ... ... : A#1 02 . ... : ... .. . ... : ... .. . ... ...
ROW 5E : F-3 07 3 V01 ... ... : ... .. . ... ... ... : ... .. . ... : ... .. . ... : D-4 01 . ... ...
ROW 5F : A#2 07 2 V02 G02 ... : ... .. . ... ... ... : ... .. . S01 : ... .. . ... : ... .. . ... ...

PATTERN 08
ROW 00 : D#2 02 F ... ... P7F : ... .. . ... ... P81 : F-3 01 . ... : C-# 03 . ... : A#4 00 . Z40 ...
ROW 01 : ... .. . ... ... ... : ... .. . ... ... ... : D#2 02 . ... : ... .. . ... : ... .. . ... ...
ROW 02 : ... .. . ... ... ... : F-2 07 3 V02 ... ... : ... .. . ... : ... .. . ... : F-4 01 . ... ...
ROW 03 : ... .. . ... ... ... : F-3 07 2 V01 G02 ... : ... .. . S01 : ... .. . ... : ... .. . ... ...
ROW 04 : ... .. . ... ... ... : F#2 05 F ... ... ... : D#2 02 . ... : C-# 03 . ... : F#4 00 . ... ...
ROW 05 : ... .. . ... ... ... : ... .. . ... ... ... : ... .. . ... : ... .. . ... : ... .. . ... ...
ROW 06 : A#2 07 3 V01 ... ... : ... .. . ... ... ... : ... .. . ... : ... .. . ... : A#4 01 . ... ...
ROW 07 : F-2 07 2 V02 G02 ... : ... .. . ... ... ... : ... .. . S01 : ... .. . ... : ... .. . ... ...
ROW 08 : A#2 02 F ... ... ... : ... .. . ... ... ... : F-3 01 . ... : C-# 03 . ... : D#4 00 . Z40 ...
ROW 09 : ... .. . ... ... ... : ... .. . ... ... ... : D#2 02 . ... : ... .. . ... : ... .. . ... ...
ROW 0A : ... .. . ... ... ... : D#2 07 3 V02 ... ... : ... .. . ... : ... .. . ... : F#4 01 . ... ...
ROW 0B : ... .. . ... ... ... : A#2 07 2 V01 G02 ... : ... .. . S01 : ... .. . ... : ... .. . ... ...
ROW 0C : ... .. . ... ... ... : D#3 05 F ... ... ... : G-3 00 . ... : 8-# 04 . ... : F#4 00 . Z30 ...
ROW 0D : ... .. . ... ... ... : ... .. . ... ... ... : D#3 02 . ... : ... .. . ... : ... .. . ... ...
ROW 0E : F#2 07 3 V01 ... ... : ... .. . ... ... ... : ... .. . ... : ... .. . ... : D#4 01 . ... ...
ROW 0F : D#2 07 2 V02 G02 ... : ... .. . ... ... ... : ... .. . S01 : ... .. . ... : ... .. . ... ...
ROW 10 : A#2 02 F ... ... ... : ... .. . ... ... ... : D#2 02 . ... : C-# 03 . ... : D#4 00 . ... ...
ROW 11 : ... .. . ... ... ... : ... .. . ... ... ... : ... .. . ... : ... .. . ... : ... .. . ... ...
ROW 12 : ... .. . ... ... ... : A#2 07 3 V02 ... ... : ... .. . ... : ... .. . ... : F#4 01 . ... ...
ROW 13 : ... .. . ... ... ... : F#2 07 2 V01 G02 ... : ... .. . S01 : ... .. . ... : ... .. . ... ...
ROW 14 : ... .. . ... ... ... : D#3 05 F ... ... ... : F-3 01 . ... : C-# 03 . ... : A#3 00 . Z40 ...
ROW 15 : ... .. . ... ... ... : ... .. . ... ... ... : D#2 02 . ... : ... .. . ... : ... .. . ... ...
ROW 16 : D#3 07 3 V01 ... ... : ... .. . ... ... ... : ... .. . ... : ... .. . ... : D#4 01 . ... ...
ROW 17 : A#2 07 2 V02 G02 ... : ... .. . ... ... ... : ... .. . S01 : ... .. . ... : ... .. . ... ...
ROW 18 : F-3 02 F ... ... ... : ... .. . ... ... ... : F-3 01 . ... : C-# 03 . ... : D#4 00 . Z40 ...
ROW 19 : ... .. . ... ... ... : ... .. . ... ... ... : D#2 02 . ... : ... .. . ... : ... .. . ... ...
ROW 1A : ... .. . ... ... ... : A#2 07 3 V02 ... ... : ... .. . ... : ... .. . ... : A#3 01 . ... ...
ROW 1B : ... .. . ... ... ... : D#3 07 2 V01 G02 ... : ... .. . S01 : ... .. . ... : ... .. . ... ...
ROW 1C : ... .. . ... ... ... : D#3 05 F ... ... ... : D#2 02 . ... : C-# 03 . ... : A#3 00 . ... ...
ROW 1D : ... .. . ... ... ... : ... .. . ... ... ... : ... .. . ... : ... .. . ... : ... .. . ... ...
ROW 1E : D#3 07 3 V01 ... ... : ... .. . ... ... ... : ... .. . ... : ... .. . ... : D#4 01 . ... ...
ROW 1F : A#2 07 2 V02 G02 ... : ... .. . ... ... ... : ... .. . S01 : ... .. . ... : ... .. . ... ...
ROW 20 : F#3 02 F ... ... ... : ... .. . ... ... ... : F-3 01 . ... : C-# 03 . ... : F#3 00 . Z40 ...
ROW 21 : ... .. . ... ... ... : ... .. . ... ... ... : D#2 02 . ... : ... .. . ... : ... .. . ... ...
ROW 22 : ... .. . ... ... ... : F-3 07 3 V02 ... ... : ... .. . ... : ... .. . ... : A#3 01 . ... ...
ROW 23 : ... .. . ... ... ... : D#3 07 2 V01 G02 ... : ... .. . S01 : ... .. . ... : ... .. . ... ...
ROW 24 : ... .. . ... ... ... : D#3 05 F ... ... ... : G-3 00 . ... : 8-# 04 . ... : A#3 00 . Z30 ...
ROW 25 : ... .. . ... ... ... : ... .. . ... ... ... : D#3 02 . ... : ... .. . ... : ... .. . ... ...
ROW 26 : D#3 07 3 V01 ... ... : ... .. . ... ... ... : ... .. . ... : ... .. . ... : F#3 01 . ... ...
ROW 27 : F-3 07 2 V02 G02 ... : ... .. . ... ... ... : ... .. . S01 : ... .. . ... : ... .. . ... ...
ROW 28 : C#4 02 F ... ... P80 : ... .. . ... ... ... : D#2 02 . ... : C-# 03 . ... : F#3 00 . ... ...
ROW 29 : ... .. . ... ... ... : ... .. . ... ... ... : ... .. . ... : ... .. . ... : ... .. . ... ...
ROW 2A : ... .. . ... ... ... : F#3 07 3 V02 ... ... : ... .. . ... : ... .. . ... : A#3 01 . ... ...
ROW 2B : ... .. . ... ... ... : D#3 07 2 V01 G02 ... : ... .. . S01 : ... .. . ... : ... .. . ... ...
ROW 2C : ... .. . ... ... ... : B-3 05 F ... ... P80 : F-3 01 . ... : C-# 03 . ... : D#3 00 . Z40 ...
ROW 2D : ... .. . ... ... ... : ... .. . ... ... ... : D#2 02 . ... : ... .. . ... : ... .. . ... ...
ROW 2E : D#3 07 3 V01 ... P7F : ... .. . ... ... ... : ... .. . ... : ... .. . ... : F#3 01 . ... ...
ROW 2F : F#3 07 2 V02 G02 ... : ... .. . ... ... ... : ... .. . S01 : ... .. . ... : ... .. . ... ...
ROW 30 : A#3 02 F ... ... P80 : ... .. . ... ... ... : F-3 01 . ... : C-# 03 . ... : G#4 00 . Z40 ...
ROW 31 : ... .. . ... ... ... : ... .. . ... ... ... : D-2 02 . ... : ... .. . ... : ... .. . ... ...
ROW 32 : ... .. . ... ... ... : C#4 07 3 V02 ... ... : ... .. . ... : ... .. . ... : D#3 01 . ... ...
ROW 33 : ... .. . ... ... ... : D#3 07 2 V01 G02 P81 : ... .. . S01 : ... .. . ... : ... .. . ... ...
ROW 34 : ... .. . ... ... ... : D-2 05 F ... ... ... : D-2 02 . ... : C-# 03 . ... : F-4 00 . ... ...
ROW 35 : ... .. . ... ... ... : ... .. . ... ... ... : ... .. . ... : ... .. . ... : ... .. . ... ...
ROW 36 : B-3 07 3 V01 ... ... : ... .. . ... ... ... : ... .. . ... : ... .. . ... : G#4 01 . ... ...
ROW 37 : C#4 07 2 V02 G02 ... : ... .. . ... ... ... : ... .. . S01 : ... .. . ... : ... .. . ... ...
ROW 38 : F-2 02 F ... ... P7F : ... .. . ... ... ... : F-3 01 . ... : C-# 03 . ... : D-4 00 . Z40 ...
ROW 39 : ... .. . ... ... ... : ... .. . ... ... ... : D-2 02 . ... : ... .. . ... : ... .. . ... ...
ROW 3A : ... .. . ... ... ... : A#3 07 3 V02 ... P80 : ... .. . ... : ... .. . ... : F-4 01 . ... ...
ROW 3B : ... .. . ... ... ... : B-3 07 2 V01 G02 ... : ... .. . S01 : ... .. . ... : ... .. . ... ...
ROW 3C : ... .. . ... ... ... : A#2 05 F ... ... P81 : G-3 00 . ... : 8-# 04 . ... : F-4 00 . Z30 ...
ROW 3D : ... .. . ... ... ... : ... .. . ... ... ... : D-3 02 . ... : ... .. . ... : ... .. . ... ...
ROW 3E : D-2 07 3 V01 ... ... : ... .. . ... ... ... : ... .. . ... : ... .. . ... : D-4 01 . ... ...
ROW 3F : A#3 07 2 V02 G02 P80 : ... .. . ... ... ... : ... .. . S01 : ... .. . ... : ... .. . ... ...
ROW 40 : F-2 02 F ... ... P7F : ... .. . ... ... ... : D-2 02 . ... : C-# 03 . ... : D-4 00 . ... ...
ROW 41 : ... .. . ... ... ... : ... .. . ... ... ... : ... .. . ... : ... .. . ... : ... .. . ... ...
ROW 42 : ... .. . ... ... ... : F-2 07 3 V02 ... ... : ... .. . ... : ... .. . ... : F-4 01 . ... ...
ROW 43 : ... .. . ... ... ... : D-2 07 2 V01 G02 ... : ... .. . S01 : ... .. . ... : ... .. . ... ...
ROW 44 : ... .. . ... ... ... : A#2 05 F ... ... ... : F-3 01 . ... : C-# 03 . ... : G#3 00 . Z40 ...
ROW 45 : ... .. . ... ... ... : ... .. . ... ... ... : D-2 02 . ... : ... .. . ... : ... .. . ... ...
ROW 46 : A#2 07 3 V01 ... ... : ... .. . ... ... ... : ... .. . ... : ... .. . ... : D-4 01 . ... ...
ROW 47 : F-2 07 2 V02 G02 ... : ... .. . ... ... ... : ... .. . S01 : ... .. . ... : ... .. . ... ...
ROW 48 : D-3 02 F ... ... ... : ... .. . ... ... ... : F-3 01 . ... : C-# 03 . ... : D-4 00 . Z40 ...
ROW 49 : ... .. . ... ... ... : ... .. . ... ... ... : D-2 02 . ... : ... .. . ... : ... .. . ... ...
ROW 4A : ... .. . ... ... ... : F-2 07 3 V02 ... ... : ... .. . ... : ... .. . ... : G#3 01 . ... ...
ROW 4B : ... .. . ... ... ... : A#2 07 2 V01 G02 ... : ... .. . S01 : ... .. . ... : ... .. . ... ...
ROW 4C : ... .. . ... ... ... : F-3 05 F ... ... ... : D-2 02 . ... : C-# 03 . ... : G#3 00 . ... ...
ROW 4D : ... .. . ... ... ... : ... .. . ... ... ... : ... .. . ... : ... .. . ... : ... .. . ... ...
ROW 4E : A#2 07 3 V01 ... ... : ... .. . ... ... ... : ... .. . ... : ... .. . ... : D-4 01 . ... ...
ROW 4F : F-2 07 2 V02 G02 ... : ... .. . ... ... ... : ... .. . S01 : ... .. . ... : ... .. . ... ...
ROW 50 : F#3 02 F ... ... ... : ... .. . ... ... ... : F-3 01 . ... : C-# 03 . ... : F-3 00 . Z40 ...
ROW 51 : ... .. . ... ... ... : ... .. . ... ... ... : D-2 02 . ... : ... .. . ... : ... .. . ... ...
ROW 52 : ... .. . ... ... ... : D-3 07 3 V02 ... ... : ... .. . ... : ... .. . ... : G#3 01 . ... ...
ROW 53 : ... .. . ... ... ... : A#2 07 2 V01 G02 ... : ... .. . S01 : ... .. . ... : ... .. . ... ...
ROW 54 : ... .. . ... ... ... : G#3 05 F ... ... ... : G-3 00 . ... : 8-# 04 . ... : G#3 00 . Z30 ...
ROW 55 : ... .. . ... ... ... : ... .. . ... ... ... : D-3 02 . ... : ... .. . ... : ... .. . ... ...
ROW 56 : F-3 07 3 V01 ... ... : ... .. . ... ... ... : ... .. . ... : ... .. . ... : F-3 01 . ... ...
ROW 57 : D-3 07 2 V02 G02 ... : ... .. . ... ... ... : ... .. . S01 : ... .. . ... : ... .. . ... ...
ROW 58 : F#3 02 F ... ... ... : ... .. . ... ... ... : F-3 01 . ... : C-# 03 . ... : F-3 00 . Z40 ...
ROW 59 : ... .. . ... ... ... : ... .. . ... ... ... : D-2 02 . ... : ... .. . ... : ... .. . ... ...
ROW 5A : ... .. . ... ... ... : F#3 07 3 V02 ... ... : ... .. . ... : ... .. . ... : G#3 01 . ... ...
ROW 5B : ... .. . ... ... ... : F-3 07 2 V01 G02 ... : ... .. . S01 : ... .. . ... : ... .. . ... ...
ROW 5C : ... .. . ... ... ... : F-3 05 F ... ... ... : F-3 01 . ... : C-# 03 . ... : D-3 00 . Z40 ...
ROW 5D : ... .. . ... ... ... : ... .. . ... ... ... : D-2 02 . ... : ... .. . ... : ... .. . ... ...
ROW 5E : G#3 07 3 V01 ... ... : ... .. . ... ... ... : ... .. . ... : ... .. . ... : F-3 01 . ... ...
ROW 5F : F#3 07 2 V02 G02 ... : ... .. . ... ... ... : ... .. . S01 : ... .. . ... : ... .. . ... ...

PATTERN 09
ROW 00 : F#3 02 F ... ... P7F : ... .. . ... ... P81 : F-3 01 . ... : C-# 03 . ... : F#4 00 . Z40 ...
ROW 01 : ... .. . ... ... ... : ... .. . ... ... ... : C#2 02 . ... : ... .. . ... : ... .. . ... ...
ROW 02 : ... .. . ... ... ... : F#3 07 3 V02 ... ... : ... .. . ... : ... .. . ... : F-3 01 . ... ...
ROW 03 : ... .. . ... ... ... : G#3 07 2 V01 G02 ... : ... .. . S01 : ... .. . ... : ... .. . ... ...
ROW 04 : ... .. . ... ... ... : C#2 05 F ... ... ... : C#2 02 . ... : C-# 03 . ... : C#4 00 . ... ...
ROW 05 : ... .. . ... ... ... : ... .. . ... ... ... : ... .. . ... : ... .. . ... : ... .. . ... ...
ROW 06 : F-3 07 3 V01 ... ... : ... .. . ... ... ... : ... .. . ... : ... .. . ... : F#4 01 . ... ...
ROW 07 : F#3 07 2 V02 G02 ... : ... .. . ... ... ... : ... .. . S01 : ... .. . ... : ... .. . ... ...
ROW 08 : F#2 02 F ... ... ... : ... .. . ... ... ... : F-3 01 . ... : C-# 03 . ... : A#3 00 . Z40 ...
ROW 09 : ... .. . ... ... ... : ... .. . ... ... ... : C#2 02 . ... : ... .. . ... : ... .. . ... ...
ROW 0A : ... .. . ... ... ... : F#3 07 3 V02 ... ... : ... .. . ... : ... .. . ... : C#4 01 . ... ...
ROW 0B : ... .. . ... ... ... : F-3 07 2 V01 G02 ... : ... .. . S01 : ... .. . ... : ... .. . ... ...
ROW 0C : ... .. . ... ... ... : A#2 05 F ... ... ... : G-3 00 . ... : 8-# 04 . ... : C#4 00 . Z30 ...
ROW 0D : ... .. . ... ... ... : ... .. . ... ... ... : C#3 02 . ... : ... .. . ... : ... .. . ... ...
ROW 0E : C#2 07 3 V01 ... ... : ... .. . ... ... ... : ... .. . ... : ... .. . ... : A#3 01 . ... ...
ROW 0F : F#3 07 2 V02 G02 ... : ... .. . ... ... ... : ... .. . S01 : ... .. . ... : ... .. . ... ...
ROW 10 : F#2 02 F ... ... ... : ... .. . ... ... ... : C#2 02 . ... : C-# 03 . ... : A#3 00 . ... ...
ROW 11 : ... .. . ... ... ... : ... .. . ... ... ... : ... .. . ... : ... .. . ... : ... .. . ... ...
ROW 12 : ... .. . ... ... ... : F#2 07 3 V02 ... ... : ... .. . ... : ... .. . ... : C#4 01 . ... ...
ROW 13 : ... .. . ... ... ... : C#2 07 2 V01 G02 ... : ... .. . S01 : ... .. . ... : ... .. . ... ...
ROW 14 : ... .. . ... ... ... : A#2 05 F ... ... ... : F-3 01 . ... : C-# 03 . ... : F#3 00 . Z40 ...
ROW 15 : ... .. . ... ... ... : ... .. . ... ... ... : C#2 02 . ... : ... .. . ... : ... .. . ... ...
ROW 16 : A#2 07 3 V01 ... ... : ... .. . ... ... ... : ... .. . ... : ... .. . ... : A#3 01 . ... ...
ROW 17 : F#2 07 2 V02 G02 ... : ... .. . ... ... ... : ... .. . S01 : ... .. . ... : ... .. . ... ...
ROW 18 : C#3 02 F ... ... ... : ... .. . ... ... ... : F-3 01 . ... : C-# 03 . ... : A#3 00 . Z40 ...
ROW 19 : ... .. . ... ... ... : ... .. . ... ... ... : C#2 02 . ... : ... .. . ... : ... .. . ... ...
ROW 1A : ... .. . ... ... ... : F#2 07 3 V02 ... ... : ... .. . ... : ... .. . ... : F#3 01 . ... ...
ROW 1B : ... .. . ... ... ... : A#2 07 2 V01 G02 ... : ... .. . S01 : ... .. . ... : ... .. . ... ...
ROW 1C : ... .. . ... ... ... : F-3 05 F ... ... ... : C#2 02 . ... : C-# 03 . ... : F#3 00 . ... ...
ROW 1D : ... .. . ... ... ... : ... .. . ... ... ... : ... .. . ... : ... .. . ... : ... .. . ... ...
ROW 1E : A#2 07 3 V01 ... ... : ... .. . ... ... ... : ... .. . ... : ... .. . ... : A#3 01 . ... ...
ROW 1F : F#2 07 2 V02 G02 ... : ... .. . ... ... ... : ... .. . S01 : ... .. . ... : ... .. . ... ...
ROW 20 : F#3 02 F ... ... ... : ... .. . ... ... ... : F-3 01 . ... : C-# 03 . ... : C#3 00 . Z40 ...
ROW 21 : ... .. . ... ... ... : ... .. . ... ... ... : C#2 02 . ... : ... .. . ... : ... .. . ... ...
ROW 22 : ... .. . ... ... ... : C#3 07 3 V02 ... ... : ... .. . ... : ... .. . ... : F#3 01 . ... ...
ROW 23 : ... .. . ... ... ... : A#2 07 2 V01 G02 ... : ... .. . S01 : ... .. . ... : ... .. . ... ...
ROW 24 : ... .. . ... ... ... : G#3 05 F ... ... ... : G-3 00 . ... : 8-# 04 . ... : F#3 00 . Z30 ...
ROW 25 : ... .. . ... ... ... : ... .. . ... ... ... : C#3 02 . ... : ... .. . ... : ... .. . ... ...
ROW 26 : F-3 07 3 V01 ... ... : ... .. . ... ... ... : ... .. . ... : ... .. . ... : C#3 01 . ... ...
ROW 27 : C#3 07 2 V02 G02 ... : ... .. . ... ... ... : ... .. . S01 : ... .. . ... : ... .. . ... ...
ROW 28 : A#3 02 F ... ... ... : ... .. . ... ... ... : C#2 02 . ... : C-# 03 . ... : C#3 00 . ... ...
ROW 29 : ... .. . ... ... ... : ... .. . ... ... ... : ... .. . ... : ... .. . ... : ... .. . ... ...
ROW 2A : ... .. . ... ... ... : F#3 07 3 V02 ... ... : ... .. . ... : ... .. . ... : F#3 01 . ... ...
ROW 2B : ... .. . ... ... ... : F-3 07 2 V01 G02 ... : ... .. . S01 : ... .. . ... : ... .. . ... ...
ROW 2C : ... .. . ... ... ... : F-3 05 F ... ... ... : F-3 01 . ... : C-# 03 . ... : A#2 00 . Z40 ...
ROW 2D : ... .. . ... ... ... : ... .. . ... ... ... : C#2 02 . ... : ... .. . ... : ... .. . ... ...
ROW 2E : G#3 07 3 V01 ... ... : ... .. . ... ... ... : ... .. . ... : ... .. . ... : C#3 01 . ... ...
ROW 2F : F#3 07 2 V02 G02 ... : ... .. . ... ... ... : ... .. . S01 : ... .. . ... : ... .. . ... ...
ROW 30 : F#3 02 F ... ... ... : ... .. . ... ... ... : F-3 01 . ... : C-# 03 . ... : F#4 00 . Z40 ...
ROW 31 : ... .. . ... ... ... : ... .. . ... ... ... : C-2 02 . ... : ... .. . ... : ... .. . ... ...
ROW 32 : ... .. . ... ... ... : A#3 07 3 V02 ... ... : ... .. . ... : ... .. . ... : A#2 01 . ... ...
ROW 33 : ... .. . ... ... ... : G#3 07 2 V01 G02 ... : ... .. . S01 : ... .. . ... : ... .. . ... ...
ROW 34 : ... .. . ... ... ... : C-2 05 F ... ... ... : C-2 02 . ... : C-# 03 . ... : C-4 00 . ... ...
ROW 35 : ... .. . ... ... ... : ... .. . ... ... ... : ... .. . ... : ... .. . ... : ... .. . ... ...
ROW 36 : F-3 07 3 V01 ... ... : ... .. . ... ... ... : ... .. . ... : ... .. . ... : F#4 01 . ... ...
ROW 37 : A#3 07 2 V02 G02 ... : ... .. . ... ... ... : ... .. . S01 : ... .. . ... : ... .. . ... ...
ROW 38 : F#2 02 F ... ... ... : ... .. . ... ... ... : F-3 01 . ... : C-# 03 . ... : G#3 00 . Z40 ...
ROW 39 : ... .. . ... ... ... : ... .. . ... ... ... : C-2 02 . ... : ... .. . ... : ... .. . ... ...
ROW 3A : ... .. . ... ... ... : F#3 07 3 V02 ... ... : ... .. . ... : ... .. . ... : C-4 01 . ... ...
ROW 3B : ... .. . ... ... ... : F-3 07 2 V01 G02 ... : ... .. . S01 : ... .. . ... : ... .. . ... ...
ROW 3C : ... .. . ... ... ... : G#2 05 F ... ... ... : G-3 00 . ... : 8-# 04 . ... : C-4 00 . Z30 ...
ROW 3D : ... .. . ... ... ... : ... .. . ... ... ... : C-3 02 . ... : ... .. . ... : ... .. . ... ...
ROW 3E : C-2 07 3 V01 ... ... : ... .. . ... ... ... : ... .. . ... : ... .. . ... : G#3 01 . ... ...
ROW 3F : F#3 07 2 V02 G02 ... : ... .. . ... ... ... : ... .. . S01 : ... .. . ... : ... .. . ... ...
ROW 40 : F#2 02 F ... ... ... : ... .. . ... ... ... : C-2 02 . ... : C-# 03 . ... : G#3 00 . ... ...
ROW 41 : ... .. . ... ... ... : ... .. . ... ... ... : ... .. . ... : ... .. . ... : ... .. . ... ...
ROW 42 : ... .. . ... ... ... : F#2 07 3 V02 ... ... : ... .. . ... : ... .. . ... : C-4 01 . ... ...
ROW 43 : ... .. . ... ... ... : C-2 07 2 V01 G02 ... : ... .. . S01 : ... .. . ... : ... .. . ... ...
ROW 44 : ... .. . ... ... ... : G#2 05 F ... ... ... : F-3 01 . ... : C-# 03 . ... : F#3 00 . Z40 ...
ROW 45 : ... .. . ... ... ... : ... .. . ... ... ... : C-2 02 . ... : ... .. . ... : ... .. . ... ...
ROW 46 : G#2 07 3 V01 ... ... : ... .. . ... ... ... : ... .. . ... : ... .. . ... : G#3 01 . ... ...
ROW 47 : F#2 07 2 V02 G02 ... : ... .. . ... ... ... : ... .. . S01 : ... .. . ... : ... .. . ... ...
ROW 48 : C-3 02 F ... ... ... : ... .. . ... ... ... : F-3 01 . ... : C-# 03 . ... : G#3 00 . Z40 ...
ROW 49 : ... .. . ... ... ... : ... .. . ... ... ... : C-2 02 . ... : ... .. . ... : ... .. . ... ...
ROW 4A : ... .. . ... ... ... : F#2 07 3 V02 ... ... : ... .. . ... : ... .. . ... : F#3 01 . ... ...
ROW 4B : ... .. . ... ... ... : G#2 07 2 V01 G02 ... : ... .. . S01 : ... .. . ... : ... .. . ... ...
ROW 4C : ... .. . ... ... ... : F-3 05 F ... ... ... : C-2 02 . ... : C-# 03 . ... : F#3 00 . ... ...
ROW 4D : ... .. . ... ... ... : ... .. . ... ... ... : ... .. . ... : ... .. . ... : ... .. . ... ...
ROW 4E : G#2 07 3 V01 ... ... : ... .. . ... ... ... : ... .. . ... : ... .. . ... : G#3 01 . ... ...
ROW 4F : F#2 07 2 V02 G02 ... : ... .. . ... ... ... : ... .. . S01 : ... .. . ... : ... .. . ... ...
ROW 50 : D#3 02 F ... ... ... : ... .. . ... ... ... : F-3 01 . ... : C-# 03 . ... : C-3 00 . Z40 ...
ROW 51 : ... .. . ... ... ... : ... .. . ... ... ... : C-2 02 . ... : ... .. . ... : ... .. . ... ...
ROW 52 : ... .. . ... ... ... : C-3 07 3 V02 ... ... : ... .. . ... : ... .. . ... : F#3 01 . ... ...
ROW 53 : ... .. . ... ... ... : G#2 07 2 V01 G02 ... : ... .. . S01 : ... .. . ... : ... .. . ... ...
ROW 54 : ... .. . ... ... ... : F-3 05 F ... ... ... : G-3 00 . ... : 8-# 04 . ... : F#3 00 . Z30 ...
ROW 55 : ... .. . ... ... ... : ... .. . ... ... ... : C-3 02 . ... : ... .. . ... : ... .. . ... ...
ROW 56 : F-3 07 3 V01 ... ... : ... .. . ... ... ... : ... .. . ... : ... .. . ... : C-3 01 . ... ...
ROW 57 : C-3 07 2 V02 G02 ... : ... .. . ... ... ... : ... .. . S01 : ... .. . ... : ... .. . ... ...
ROW 58 : F#3 02 F ... ... ... : ... .. . ... ... ... : F-3 01 . ... : C-# 03 . ... : C-3 00 . Z40 ...
ROW 59 : ... .. . ... ... ... : ... .. . ... ... ... : C-2 02 . ... : ... .. . ... : ... .. . ... ...
ROW 5A : ... .. . ... ... ... : D#3 07 3 V02 ... ... : ... .. . ... : ... .. . ... : F#3 01 . ... ...
ROW 5B : ... .. . ... ... ... : F-3 07 2 V01 G02 ... : ... .. . S01 : ... .. . ... : ... .. . ... ...
ROW 5C : ... .. . ... ... ... : D-3 05 F ... ... ... : G-3 00 . ... : 8-# 04 . ... : G#2 00 . Z30 ...
ROW 5D : ... .. . ... ... ... : ... .. . ... ... ... : C-2 02 . ... : ... .. . ... : ... .. . ... ...
ROW 5E : F-3 07 3 V01 ... ... : ... .. . ... ... ... : ... .. . ... : ... .. . ... : C-3 01 . ... ...
ROW 5F : D#3 07 2 V02 G02 ... : ... .. . ... ... ... : ... .. . S01 : ... .. . ... : ... .. . ... ...

PATTERN 0A
ROW 00 : D#3 02 F ... ... P7F : ... .. . ... ... P81 : F-3 01 . ... : C-# 03 . ... : B-2 00 . Z40 ...
ROW 01 : ... .. . ... ... ... : ... .. . ... ... ... : B-1 02 . ... : ... .. . ... : ... .. . ... ...
ROW 02 : ... .. . ... ... ... : F#3 07 3 V02 ... ... : ... .. . ... : ... .. . ... : G#2 01 . ... ...
ROW 03 : ... .. . ... ... ... : F-3 07 2 V01 G02 ... : ... .. . S01 : ... .. . ... : ... .. . ... ...
ROW 04 : ... .. . ... ... ... : B-1 05 F ... ... ... : B-1 02 . ... : C-# 03 . ... : B-3 00 . ... ...
ROW 05 : ... .. . ... ... ... : ... .. . ... ... ... : ... .. . ... : ... .. . ... : ... .. . ... ...
ROW 06 : D-3 07 3 V01 ... ... : ... .. . ... ... ... : ... .. . ... : ... .. . ... : B-2 01 . ... ...
ROW 07 : F#3 07 2 V02 G02 ... : ... .. . ... ... ... : ... .. . S01 : ... .. . ... : ... .. . ... ...
ROW 08 : D#2 02 F ... ... ... : ... .. . ... ... ... : F-3 01 . ... : C-# 03 . ... : F#3 00 . Z40 ...
ROW 09 : ... .. . ... ... ... : ... .. . ... ... ... : B-1 02 . ... : ... .. . ... : ... .. . ... ...
ROW 0A : ... .. . ... ... ... : D#3 07 3 V02 ... ... : ... .. . ... : ... .. . ... : B-3 01 . ... ...
ROW 0B : ... .. . ... ... ... : D-3 07 2 V01 G02 ... : ... .. . S01 : ... .. . ... : ... .. . ... ...
ROW 0C : ... .. . ... ... ... : F#2 05 F ... ... ... : G-3 00 . ... : 8-# 04 . ... : C#4 00 . Z30 ...
ROW 0D : ... .. . ... ... ... : ... .. . ... ... ... : B-2 02 . ... : ... .. . ... : ... .. . ... ...
ROW 0E : B-1 07 3 V01 ... ... : ... .. . ... ... ... : ... .. . ... : ... .. . ... : F#3 01 . ... ...
ROW 0F : D#3 07 2 V02 G02 ... : ... .. . ... ... ... : ... .. . S01 : ... .. . ... : ... .. . ... ...
ROW 10 : D#3 02 F ... ... ... : ... .. . ... ... ... : B-1 02 . ... : C-# 03 . ... : B-3 00 . ... ...
ROW 11 : ... .. . ... ... ... : ... .. . ... ... ... : ... .. . ... : ... .. . ... : ... .. . ... ...
ROW 12 : ... .. . ... ... ... : D#2 07 3 V02 ... ... : ... .. . ... : ... .. . ... : C#4 01 . ... ...
ROW 13 : ... .. . ... ... ... : B-1 07 2 V01 G02 ... : ... .. . S01 : ... .. . ... : ... .. . ... ...
ROW 14 : ... .. . ... ... ... : F-3 05 F ... ... ... : F-3 01 . ... : C-# 03 . ... : F#3 00 . Z40 ...
ROW 15 : ... .. . ... ... ... : ... .. . ... ... ... : B-1 02 . ... : ... .. . ... : ... .. . ... ...
ROW 16 : F#2 07 3 V01 ... ... : ... .. . ... ... ... : ... .. . ... : ... .. . ... : B-3 01 . ... ...
ROW 17 : D#2 07 2 V02 G02 ... : ... .. . ... ... ... : ... .. . S01 : ... .. . ... : ... .. . ... ...
ROW 18 : F#3 02 F ... ... ... : ... .. . ... ... ... : F-3 01 . ... : C-# 03 . ... : B-2 00 . Z40 ...
ROW 19 : ... .. . ... ... ... : ... .. . ... ... ... : B-1 02 . ... : ... .. . ... : ... .. . ... ...
ROW 1A : ... .. . ... ... ... : D#3 07 3 V02 ... ... : ... .. . ... : ... .. . ... : F#3 01 . ... ...
ROW 1B : ... .. . ... ... ... : F#2 07 2 V01 G02 ... : ... .. . S01 : ... .. . ... : ... .. . ... ...
ROW 1C : ... .. . ... ... ... : F#2 05 F ... ... ... : B-1 02 . ... : C-# 03 . ... : B-3 00 . ... ...
ROW 1D : ... .. . ... ... ... : ... .. . ... ... ... : ... .. . ... : ... .. . ... : ... .. . ... ...
ROW 1E : F-3 07 3 V01 ... ... : ... .. . ... ... ... : ... .. . ... : ... .. . ... : B-2 01 . ... ...
ROW 1F : D#3 07 2 V02 G02 ... : ... .. . ... ... ... : ... .. . S01 : ... .. . ... : ... .. . ... ...
ROW 20 : G#3 02 F ... ... ... : ... .. . ... ... ... : F-3 01 . ... : C-# 03 . ... : F#3 00 . Z40 ...
ROW 21 : ... .. . ... ... ... : ... .. . ... ... ... : B-1 02 . ... : ... .. . ... : ... .. . ... ...
ROW 22 : ... .. . ... ... ... : F#3 07 3 V02 ... ... : ... .. . ... : ... .. . ... : B-3 01 . ... ...
ROW 23 : ... .. . ... ... ... : F-3 07 2 V01 G02 ... : ... .. . S01 : ... .. . ... : ... .. . ... ...
ROW 24 : ... .. . ... ... ... : D#2 05 F ... ... ... : G-3 00 . ... : 8-# 04 . ... : C#4 00 . Z30 ...
ROW 25 : ... .. . ... ... ... : ... .. . ... ... ... : B-2 02 . ... : ... .. . ... : ... .. . ... ...
ROW 26 : F#2 07 3 V01 ... ... : ... .. . ... ... ... : ... .. . ... : ... .. . ... : F#3 01 . ... ...
ROW 27 : F#3 07 2 V02 G02 ... : ... .. . ... ... ... : ... .. . S01 : ... .. . ... : ... .. . ... ...
ROW 28 : F#3 02 F ... ... ... : ... .. . ... ... ... : B-1 02 . ... : C-# 03 . ... : B-3 00 . ... ...
ROW 29 : ... .. . ... ... ... : ... .. . ... ... ... : ... .. . ... : ... .. . ... : ... .. . ... ...
ROW 2A : ... .. . ... ... ... : G#3 07 3 V02 ... ... : ... .. . ... : ... .. . ... : C#4 01 . ... ...
ROW 2B : ... .. . ... ... ... : F#2 07 2 V01 G02 ... : ... .. . S01 : ... .. . ... : ... .. . ... ...
ROW 2C : ... .. . ... ... ... : F-3 05 F ... ... ... : F-3 01 . ... : C-# 03 . ... : F#3 00 . Z40 ...
ROW 2D : ... .. . ... ... ... : ... .. . ... ... ... : B-1 02 . ... : ... .. . ... : ... .. . ... ...
ROW 2E : D#2 07 3 V01 ... ... : ... .. . ... ... ... : ... .. . ... : ... .. . ... : B-3 01 . ... ...
ROW 2F : G#3 07 2 V02 G02 ... : ... .. . ... ... ... : ... .. . S01 : ... .. . ... : ... .. . ... ...
ROW 30 : F#3 02 F ... ... ... : ... .. . ... ... ... : F-3 01 . ... : C-# 03 . ... : A#2 00 . Z40 ...
ROW 31 : ... .. . ... ... ... : ... .. . ... ... ... : A#1 02 . ... : ... .. . ... : ... .. . ... ...
ROW 32 : ... .. . ... ... ... : F#3 07 3 V02 ... ... : ... .. . ... : ... .. . ... : F#3 01 . ... ...
ROW 33 : ... .. . ... ... ... : D#2 07 2 V01 G02 ... : ... .. . S01 : ... .. . ... : ... .. . ... ...
ROW 34 : ... .. . ... ... ... : A#2 05 F ... ... ... : A#1 02 . ... : C-# 03 . ... : F#3 00 . ... ...
ROW 35 : ... .. . ... ... ... : ... .. . ... ... ... : ... .. . ... : ... .. . ... : ... .. . ... ...
ROW 36 : F-3 07 3 V01 ... ... : ... .. . ... ... ... : ... .. . ... : ... .. . ... : A#2 01 . ... ...
ROW 37 : F#3 07 2 V02 G02 ... : ... .. . ... ... ... : ... .. . S01 : ... .. . ... : ... .. . ... ...
ROW 38 : D#3 02 F ... ... ... : ... .. . ... ... ... : F-3 01 . ... : C-# 03 . ... : D#3 00 . Z40 ...
ROW 39 : ... .. . ... ... ... : ... .. . ... ... ... : A#1 02 . ... : ... .. . ... : ... .. . ... ...
ROW 3A : ... .. . ... ... ... : F#3 07 3 V02 ... ... : ... .. . ... : ... .. . ... : F#3 01 . ... ...
ROW 3B : ... .. . ... ... ... : F-3 07 2 V01 G02 ... : ... .. . S01 : ... .. . ... : ... .. . ... ...
ROW 3C : ... .. . ... ... ... : A#1 05 F ... ... ... : G-3 00 . ... : 8-# 04 . ... : D#4 00 . Z30 ...
ROW 3D : ... .. . ... ... ... : ... .. . ... ... ... : A#2 02 . ... : ... .. . ... : ... .. . ... ...
ROW 3E : A#2 07 3 V01 ... ... : ... .. . ... ... ... : ... .. . ... : ... .. . ... : D#3 01 . ... ...
ROW 3F : F#3 07 2 V02 G02 ... : ... .. . ... ... ... : ... .. . S01 : ... .. . ... : ... .. . ... ...
ROW 40 : D#2 02 F ... ... ... : ... .. . ... ... ... : A#1 02 . ... : C-# 03 . ... : A#3 00 . ... ...
ROW 41 : ... .. . ... ... ... : ... .. . ... ... ... : ... .. . ... : ... .. . ... : ... .. . ... ...
ROW 42 : ... .. . ... ... ... : D#3 07 3 V02 ... ... : ... .. . ... : ... .. . ... : D#4 01 . ... ...
ROW 43 : ... .. . ... ... ... : A#2 07 2 V01 G02 ... : ... .. . S01 : ... .. . ... : ... .. . ... ...
ROW 44 : ... .. . ... ... ... : F#2 05 F ... ... ... : F-3 01 . ... : C-# 03 . ... : F#3 00 . Z40 ...
ROW 45 : ... .. . ... ... ... : ... .. . ... ... ... : A#1 02 . ... : ... .. . ... : ... .. . ... ...
ROW 46 : A#1 07 3 V01 ... ... : ... .. . ... ... ... : ... .. . ... : ... .. . ... : A#3 01 . ... ...
ROW 47 : D#3 07 2 V02 G02 ... : ... .. . ... ... ... : ... .. . S01 : ... .. . ... : ... .. . ... ...
ROW 48 : D#2 02 F ... ... ... : ... .. . ... ... ... : F-3 01 . ... : C-# 03 . ... : A#2 00 . Z40 ...
ROW 49 : ... .. . ... ... ... : ... .. . ... ... ... : A#1 02 . ... : ... .. . ... : ... .. . ... ...
ROW 4A : ... .. . ... ... ... : D#2 07 3 V02 ... ... : ... .. . ... : ... .. . ... : F#3 01 . ... ...
ROW 4B : ... .. . ... ... ... : A#1 07 2 V01 G02 ... : ... .. . S01 : ... .. . ... : ... .. . ... ...
ROW 4C : ... .. . ... ... ... : F#2 05 F ... ... ... : A#1 02 . ... : C-# 03 . ... : F#3 00 . ... ...
ROW 4D : ... .. . ... ... ... : ... .. . ... ... ... : ... .. . ... : ... .. . ... : ... .. . ... ...
ROW 4E : F#2 07 3 V01 ... ... : ... .. . ... ... ... : ... .. . ... : ... .. . ... : A#2 01 . ... ...
ROW 4F : D#2 07 2 V02 G02 ... : ... .. . ... ... ... : ... .. . S01 : ... .. . ... : ... .. . ... ...
ROW 50 : A#2 02 F ... ... ... : ... .. . ... ... ... : F-3 01 . ... : C-# 03 . ... : D#3 00 . Z40 ...
ROW 51 : ... .. . ... ... ... : ... .. . ... ... ... : A#1 02 . ... : ... .. . ... : ... .. . ... ...
ROW 52 : ... .. . ... ... ... : D#2 07 3 V02 ... ... : ... .. . ... : ... .. . ... : F#3 01 . ... ...
ROW 53 : ... .. . ... ... ... : F#2 07 2 V01 G02 ... : ... .. . S01 : ... .. . ... : ... .. . ... ...
ROW 54 : ... .. . ... ... ... : F#2 05 F ... ... ... : G-3 00 . ... : 8-# 04 . ... : D#4 00 . Z30 ...
ROW 55 : ... .. . ... ... ... : ... .. . ... ... ... : A#2 02 . ... : ... .. . ... : ... .. . ... ...
ROW 56 : F#2 07 3 V01 ... ... : ... .. . ... ... ... : ... .. . ... : ... .. . ... : D#3 01 . ... ...
ROW 57 : D#2 07 2 V02 G02 ... : ... .. . ... ... ... : ... .. . S01 : ... .. . ... : ... .. . ... ...
ROW 58 : A#2 02 F ... ... ... : ... .. . ... ... ... : F-3 01 . ... : C-# 03 . ... : A#3 00 . Z40 ...
ROW 59 : ... .. . ... ... ... : ... .. . ... ... ... : A#1 02 . ... : ... .. . ... : ... .. . ... ...
ROW 5A : ... .. . ... ... ... : A#2 07 3 V02 ... ... : ... .. . ... : ... .. . ... : D#4 01 . ... ...
ROW 5B : ... .. . ... ... ... : F#2 07 2 V01 G02 ... : ... .. . S01 : ... .. . ... : ... .. . ... ...
ROW 5C : ... .. . ... ... ... : D#3 05 F ... ... ... : F-3 01 . ... : C-# 03 . ... : F#3 00 . Z40 ...
ROW 5D : ... .. . ... ... ... : ... .. . ... ... ... : A#1 02 . ... : ... .. . ... : ... .. . ... ...
ROW 5E : F#2 07 3 V01 ... ... : ... .. . ... ... ... : ... .. . ... : ... .. . ... : A#3 01 . ... ...
ROW 5F : A#2 07 2 V02 G02 ... : ... .. . ... ... ... : ... .. . S01 : ... .. . ... : ... .. . ... ...

PATTERN 0B
ROW 00 : F#3 02 F ... ... P7F : ... .. . ... ... P81 : F-3 01 . ... : C-# 03 . ... : A-2 00 . Z40 ...
ROW 01 : ... .. . ... ... ... : ... .. . ... ... ... : A-1 02 . ... : ... .. . ... : ... .. . ... ...
ROW 02 : ... .. . ... ... ... : A#2 07 3 V02 ... ... : ... .. . ... : ... .. . ... : F#3 01 . ... ...
ROW 03 : ... .. . ... ... ... : F#2 07 2 V01 G02 ... : ... .. . S01 : ... .. . ... : ... .. . ... ...
ROW 04 : ... .. . ... ... ... : D#2 05 F ... ... ... : A-1 02 . ... : C-# 03 . ... : D#3 00 . ... ...
ROW 05 : ... .. . ... ... ... : ... .. . ... ... ... : ... .. . ... : ... .. . ... : ... .. . ... ...
ROW 06 : D#3 07 3 V01 ... ... : ... .. . ... ... ... : ... .. . ... : ... .. . ... : A-2 01 . ... ...
ROW 07 : A#2 07 2 V02 G02 ... : ... .. . ... ... ... : ... .. . S01 : ... .. . ... : ... .. . ... ...
ROW 08 : A-2 02 F ... ... ... : ... .. . ... ... ... : F-3 01 . ... : C-# 03 . ... : F#3 00 . Z40 ...
ROW 09 : ... .. . ... ... ... : ... .. . ... ... ... : A-1 02 . ... : ... .. . ... : ... .. . ... ...
ROW 0A : ... .. . ... ... ... : F#3 07 3 V02 ... ... : ... .. . ... : ... .. . ... : D#3 01 . ... ...
ROW 0B : ... .. . ... ... ... : D#3 07 2 V01 G02 ... : ... .. . S01 : ... .. . ... : ... .. . ... ...
ROW 0C : ... .. . ... ... ... : D#3 05 F ... ... ... : G-3 00 . ... : 8-# 04 . ... : D#3 00 . Z30 ...
ROW 0D : ... .. . ... ... ... : ... .. . ... ... ... : A-2 02 . ... : ... .. . ... : ... .. . ... ...
ROW 0E : D#2 07 3 V01 ... ... : ... .. . ... ... ... : ... .. . ... : ... .. . ... : F#3 01 . ... ...
ROW 0F : F#3 07 2 V02 G02 ... : ... .. . ... ... ... : ... .. . S01 : ... .. . ... : ... .. . ... ...
ROW 10 : D#3 02 F ... ... ... : ... .. . ... ... ... : A-1 02 . ... : C-# 03 . ... : F#3 00 . ... ...
ROW 11 : ... .. . ... ... ... : ... .. . ... ... ... : ... .. . ... : ... .. . ... : ... .. . ... ...
ROW 12 : ... .. . ... ... ... : A-2 07 3 V02 ... ... : ... .. . ... : ... .. . ... : D#3 01 . ... ...
ROW 13 : ... .. . ... ... ... : D#2 07 2 V01 G02 ... : ... .. . S01 : ... .. . ... : ... .. . ... ...
ROW 14 : ... .. . ... ... ... : F-3 05 F ... ... ... : F-3 01 . ... : C-# 03 . ... : A-3 00 . Z40 ...
ROW 15 : ... .. . ... ... ... : ... .. . ... ... ... : A-1 02 . ... : ... .. . ... : ... .. . ... ...
ROW 16 : D#3 07 3 V01 ... ... : ... .. . ... ... ... : ... .. . ... : ... .. . ... : F#3 01 . ... ...
ROW 17 : A-2 07 2 V02 G02 ... : ... .. . ... ... ... : ... .. . S01 : ... .. . ... : ... .. . ... ...
ROW 18 : F#3 02 F ... ... ... : ... .. . ... ... ... : F-3 01 . ... : C-# 03 . ... : F#3 00 . Z40 ...
ROW 19 : ... .. . ... ... ... : ... .. . ... ... ... : A-1 02 . ... : ... .. . ... : ... .. . ... ...
ROW 1A : ... .. . ... ... ... : D#3 07 3 V02 ... ... : ... .. . ... : ... .. . ... : A-3 01 . ... ...
ROW 1B : ... .. . ... ... ... : D#3 07 2 V01 G02 ... : ... .. . S01 : ... .. . ... : ... .. . ... ...
ROW 1C : ... .. . ... ... ... : F#2 05 F ... ... ... : A-1 02 . ... : C-# 03 . ... : A-3 00 . ... ...
ROW 1D : ... .. . ... ... ... : ... .. . ... ... ... : ... .. . ... : ... .. . ... : ... .. . ... ...
ROW 1E : F-3 07 3 V01 ... ... : ... .. . ... ... ... : ... .. . ... : ... .. . ... : F#3 01 . ... ...
ROW 1F : D#3 07 2 V02 G02 ... : ... .. . ... ... ... : ... .. . S01 : ... .. . ... : ... .. . ... ...
ROW 20 : G#3 02 F ... ... ... : ... .. . ... ... ... : F-3 01 . ... : C-# 03 . ... : D#4 00 . Z40 ...
ROW 21 : ... .. . ... ... ... : ... .. . ... ... ... : A-1 02 . ... : ... .. . ... : ... .. . ... ...
ROW 22 : ... .. . ... ... ... : F#3 07 3 V02 ... ... : ... .. . ... : ... .. . ... : A-3 01 . ... ...
ROW 23 : ... .. . ... ... ... : F-3 07 2 V01 G02 ... : ... .. . S01 : ... .. . ... : ... .. . ... ...
ROW 24 : ... .. . ... ... ... : F#2 05 F ... ... ... : G-3 00 . ... : 8-# 04 . ... : A-3 00 . Z30 ...
ROW 25 : ... .. . ... ... ... : ... .. . ... ... ... : A-2 02 . ... : ... .. . ... : ... .. . ... ...
ROW 26 : F#2 07 3 V01 ... ... : ... .. . ... ... ... : ... .. . ... : ... .. . ... : D#4 01 . ... ...
ROW 27 : F#3 07 2 V02 G02 ... : ... .. . ... ... ... : ... .. . S01 : ... .. . ... : ... .. . ... ...
ROW 28 : F-3 02 F ... ... ... : ... .. . ... ... ... : A-1 02 . ... : C-# 03 . ... : D#4 00 . ... ...
ROW 29 : ... .. . ... ... ... : ... .. . ... ... ... : ... .. . ... : ... .. . ... : ... .. . ... ...
ROW 2A : ... .. . ... ... ... : G#3 07 3 V02 ... ... : ... .. . ... : ... .. . ... : A-3 01 . ... ...
ROW 2B : ... .. . ... ... ... : F#2 07 2 V01 G02 ... : ... .. . S01 : ... .. . ... : ... .. . ... ...
ROW 2C : ... .. . ... ... ... : D#3 05 F ... ... ... : F-3 01 . ... : C-# 03 . ... : F#4 00 . Z40 ...
ROW 2D : ... .. . ... ... ... : ... .. . ... ... ... : A-1 02 . ... : ... .. . ... : ... .. . ... ...
ROW 2E : F#2 07 3 V01 ... ... : ... .. . ... ... ... : ... .. . ... : ... .. . ... : D#4 01 . ... ...
ROW 2F : G#3 07 2 V02 G02 ... : ... .. . ... ... ... : ... .. . S01 : ... .. . ... : ... .. . ... ...
ROW 30 : D-3 02 F ... ... ... : ... .. . ... ... ... : F-3 01 . ... : C-# 03 . ... : A#2 00 . Z40 ...
ROW 31 : ... .. . ... ... ... : ... .. . ... ... ... : A#1 02 . ... : ... .. . ... : ... .. . ... ...
ROW 32 : ... .. . ... ... ... : F-3 07 3 V02 ... ... : ... .. . ... : ... .. . ... : F#4 01 . ... ...
ROW 33 : ... .. . ... ... ... : F#2 07 2 V01 G02 ... : ... .. . S01 : ... .. . ... : ... .. . ... ...
ROW 34 : ... .. . ... ... ... : G#2 05 F ... ... ... : A#1 02 . ... : C-# 03 . ... : D-3 00 . ... ...
ROW 35 : ... .. . ... ... ... : ... .. . ... ... ... : ... .. . ... : ... .. . ... : ... .. . ... ...
ROW 36 : D#3 07 3 V01 ... ... : ... .. . ... ... ... : ... .. . ... : ... .. . ... : A#2 01 . ... ...
ROW 37 : F-3 07 2 V02 G02 ... : ... .. . ... ... ... : ... .. . S01 : ... .. . ... : ... .. . ... ...
ROW 38 : A#2 02 F ... ... ... : ... .. . ... ... ... : F-3 01 . ... : C-# 03 . ... : F-3 00 . Z40 ...
ROW 39 : ... .. . ... ... ... : ... .. . ... ... ... : A#1 02 . ... : ... .. . ... : ... .. . ... ...
ROW 3A : ... .. . ... ... ... : D-3 07 3 V02 ... ... : ... .. . ... : ... .. . ... : D-3 01 . ... ...
ROW 3B : ... .. . ... ... ... : D#3 07 2 V01 G02 ... : ... .. . S01 : ... .. . ... : ... .. . ... ...
ROW 3C : ... .. . ... ... ... : D-3 05 F ... ... ... : G-3 00 . ... : 8-# 04 . ... : D-3 00 . Z30 ...
ROW 3D : ... .. . ... ... ... : ... .. . ... ... ... : A#2 02 . ... : ... .. . ... : ... .. . ... ...
ROW 3E : G#2 07 3 V01 ... ... : ... .. . ... ... ... : ... .. . ... : ... .. . ... : F-3 01 . ... ...
ROW 3F : D-3 07 2 V02 G02 ... : ... .. . ... ... ... : ... .. . S01 : ... .. . ... : ... .. . ... ...
ROW 40 : F-2 02 F ... ... ... : ... .. . ... ... ... : A#1 02 . ... : C-# 03 . ... : F-3 00 . ... ...
ROW 41 : ... .. . ... ... ... : ... .. . ... ... ... : ... .. . ... : ... .. . ... : ... .. . ... ...
ROW 42 : ... .. . ... ... ... : A#2 07 3 V02 ... ... : ... .. . ... : ... .. . ... : D-3 01 . ... ...
ROW 43 : ... .. . ... ... ... : G#2 07 2 V01 G02 ... : ... .. . S01 : ... .. . ... : ... .. . ... ...
ROW 44 : ... .. . ... ... ... : A#2 05 F ... ... ... : F-3 01 . ... : C-# 03 . ... : A#3 00 . Z40 ...
ROW 45 : ... .. . ... ... ... : ... .. . ... ... ... : A#1 02 . ... : ... .. . ... : ... .. . ... ...
ROW 46 : D-3 07 3 V01 ... ... : ... .. . ... ... ... : ... .. . ... : ... .. . ... : F-3 01 . ... ...
ROW 47 : A#2 07 2 V02 G02 ... : ... .. . ... ... ... : ... .. . S01 : ... .. . ... : ... .. . ... ...
ROW 48 : D#3 02 F ... ... ... : ... .. . ... ... ... : F-3 01 . ... : C-# 03 . ... : F-3 00 . Z40 ...
ROW 49 : ... .. . ... ... ... : ... .. . ... ... ... : A#1 02 . ... : ... .. . ... : ... .. . ... ...
ROW 4A : ... .. . ... ... ... : F-2 07 3 V02 ... ... : ... .. . ... : ... .. . ... : A#3 01 . ... ...
ROW 4B : ... .. . ... ... ... : D-3 07 2 V01 G02 ... : ... .. . S01 : ... .. . ... : ... .. . ... ...
ROW 4C : ... .. . ... ... ... : D-2 05 F ... ... ... : A#1 02 . ... : C-# 03 . ... : A#3 00 . ... ...
ROW 4D : ... .. . ... ... ... : ... .. . ... ... ... : ... .. . ... : ... .. . ... : ... .. . ... ...
ROW 4E : A#2 07 3 V01 ... ... : ... .. . ... ... ... : ... .. . ... : ... .. . ... : F-3 01 . ... ...
ROW 4F : F-2 07 2 V02 G02 ... : ... .. . ... ... ... : ... .. . S01 : ... .. . ... : ... .. . ... ...
ROW 50 : A#2 02 F ... ... ... : ... .. . ... ... ... : G-3 00 . ... : C-# 03 . ... : D-4 00 . Z30 ...
ROW 51 : ... .. . ... ... ... : ... .. . ... ... ... : A#1 02 . ... : ... .. . ... : ... .. . ... ...
ROW 52 : ... .. . ... ... ... : D#3 07 3 V02 ... ... : ... .. . ... : ... .. . ... : A#3 01 . ... ...
ROW 53 : ... .. . ... ... ... : A#2 07 2 V01 G02 ... : ... .. . S01 : ... .. . ... : ... .. . ... ...
ROW 54 : ... .. . ... ... ... : F-3 05 F ... ... ... : G-3 00 . ... : 8-# 04 . ... : A#3 00 . Z30 ...
ROW 55 : ... .. . ... ... ... : ... .. . ... ... ... : A#2 02 . ... : ... .. . ... : ... .. . ... ...
ROW 56 : D-2 07 3 V01 ... ... : ... .. . ... ... ... : ... .. . ... : ... .. . ... : D-4 01 . ... ...
ROW 57 : D#3 07 2 V02 G02 ... : ... .. . ... ... ... : ... .. . S01 : ... .. . ... : ... .. . ... ...
ROW 58 : F-2 02 F ... ... ... : ... .. . ... ... ... : F-3 01 . ... : 8-# 04 . ... : D-4 00 . Z40 ...
ROW 59 : ... .. . ... ... ... : ... .. . ... ... ... : A#1 02 . ... : ... .. . ... : ... .. . ... ...
ROW 5A : ... .. . ... ... ... : A#2 07 3 V02 ... ... : ... .. . ... : ... .. . ... : A#3 01 . ... ...
ROW 5B : ... .. . ... ... ... : D-2 07 2 V01 G02 ... : ... .. . S01 : ... .. . ... : ... .. . ... ...
ROW 5C : ... .. . ... ... ... : A#2 05 F ... ... ... : G-3 00 . ... : 8-# 04 . ... : F-4 00 . Z30 ...
ROW 5D : ... .. . ... ... ... : ... .. . ... ... ... : A#1 02 . ... : ... .. . ... : ... .. . ... ...
ROW 5E : F-3 07 3 V01 ... ... : ... .. . ... ... ... : ... .. . ... : ... .. . ... : D-4 01 . ... ...
ROW 5F : A#2 07 2 V02 G02 ... : ... .. . ... ... ... : ... .. . S01 : ... .. . ... : ... .. . ... ...

PATTERN 0C
ROW 00 : A#1 08 F ... ... P7F : D#2 08 F ... ... P81 : F-3 01 . ... : C-# 06 . ... : D#4 00 . Z40 ...
ROW 01 : ... .. . ... ... ... : ... .. . ... ... ... : D#2 02 . ... : ... .. . ... : ... .. . ... ...
ROW 02 : === .. . ... G02 ... : ... .. . ... ... ... : ... .. . ... : ... .. . ... : F-4 01 . ... ...
ROW 03 : ... .. . ... ... ... : D#2 07 3 V01 ... ... : ... .. . S01 : ... .. . ... : ... .. . ... ...
ROW 04 : A#1 08 . ... ... ... : D#3 08 E ... ... ... : D#2 02 . ... : C-# 03 . ... : A#3 00 . ... ...
ROW 05 : ... .. . ... ... ... : ... .. . ... ... ... : ... .. . ... : ... .. . ... : ... .. . ... ...
ROW 06 : === .. . ... G02 ... : ... .. . ... ... ... : ... .. . ... : ... .. . ... : D#4 01 . ... ...
ROW 07 : D#2 07 2 V01 G01 ... : D#2 07 3 ... ... ... : ... .. . S01 : ... .. . ... : ... .. . ... ...
ROW 08 : A#1 08 E ... ... ... : D#2 08 F ... ... ... : D#2 02 . ... : C-# 03 . ... : F#3 00 . ... ...
ROW 09 : ... .. . ... ... ... : ... .. . ... ... ... : ... .. . ... : ... .. . ... : ... .. . ... ...
ROW 0A : === .. . ... G02 ... : ... .. . ... ... ... : ... .. . ... : ... .. . ... : A#3 01 . ... ...
ROW 0B : D#2 07 2 ... G01 ... : D#3 07 3 ... ... ... : ... .. . S01 : ... .. . ... : ... .. . ... ...
ROW 0C : A#1 08 E ... ... ... : B-2 08 F ... ... ... : G-3 00 . ... : 8-# 04 . ... : D#3 00 . Z30 ...
ROW 0D : ... .. . ... ... ... : ... .. . ... ... ... : D#3 02 . ... : ... .. . ... : ... .. . ... ...
ROW 0E : === .. . ... G02 ... : ... .. . ... ... ... : ... .. . ... : ... .. . ... : F#3 01 . ... ...
ROW 0F : D#3 07 2 ... G01 ... : D#2 07 3 ... ... ... : ... .. . S01 : ... .. . ... : ... .. . ... ...
ROW 10 : A#1 08 E ... ... ... : A#2 08 F ... ... ... : D#2 02 . ... : C-# 03 . ... : F#3 00 . ... ...
ROW 11 : ... .. . ... ... ... : ... .. . ... ... ... : ... .. . ... : ... .. . ... : ... .. . ... ...
ROW 12 : === .. . ... G02 ... : ... .. . ... ... ... : ... .. . ... : ... .. . ... : D#3 01 . ... ...
ROW 13 : D#2 07 2 ... G01 ... : B-2 07 3 ... ... ... : ... .. . S01 : ... .. . ... : ... .. . ... ...
ROW 14 : A#1 08 E ... ... ... : F#2 08 F ... ... ... : D#2 02 . ... : C-# 03 . ... : A#3 00 . ... ...
ROW 15 : ... .. . ... ... ... : ... .. . ... ... ... : ... .. . ... : ... .. . ... : ... .. . ... ...
ROW 16 : === .. . ... G02 ... : ... .. . ... ... ... : ... .. . ... : ... .. . ... : F#3 01 . ... ...
ROW 17 : B-2 07 2 ... G01 ... : A#2 07 3 ... ... ... : ... .. . S01 : ... .. . ... : ... .. . ... ...
ROW 18 : A#1 08 E ... ... ... : D#2 08 F ... ... ... : F-3 01 . ... : C-# 06 . ... : D#4 00 . Z40 ...
ROW 19 : ... .. . ... ... ... : ... .. . ... ... ... : D#2 02 . ... : ... .. . ... : ... .. . ... ...
ROW 1A : === .. . ... G02 ... : ... .. . ... ... ... : ... .. . ... : ... .. . ... : A#3 01 . ... ...
ROW 1B : A#2 07 2 ... G01 ... : F#2 07 3 ... ... ... : ... .. . S01 : ... .. . ... : ... .. . ... ...
ROW 1C : A#1 08 E ... ... ... : D#3 08 E ... ... ... : D#2 02 . ... : C-# 03 . ... : A#3 00 . ... ...
ROW 1D : ... .. . ... ... ... : ... .. . ... ... ... : ... .. . ... : ... .. . ... : ... .. . ... ...
ROW 1E : === .. . ... G02 ... : ... .. . ... ... ... : ... .. . ... : ... .. . ... : D#4 01 . ... ...
ROW 1F : F#2 07 2 ... G01 ... : D#2 07 3 ... ... ... : ... .. . S01 : ... .. . ... : ... .. . ... ...
ROW 20 : A#1 08 E ... ... ... : D#2 08 F ... ... ... : D#2 02 . ... : C-# 03 . ... : F#3 00 . ... ...
ROW 21 : ... .. . ... ... ... : ... .. . ... ... ... : ... .. . ... : ... .. . ... : ... .. . ... ...
ROW 22 : === .. . ... G02 ... : ... .. . ... ... ... : ... .. . ... : ... .. . ... : A#3 01 . ... ...
ROW 23 : D#2 07 2 ... G01 ... : D#3 07 3 ... ... ... : ... .. . S01 : ... .. . ... : ... .. . ... ...
ROW 24 : A#1 08 E ... ... ... : B-2 08 F ... ... ... : G-3 00 . ... : 8-# 04 . ... : D#3 00 . Z30 ...
ROW 25 : ... .. . ... ... ... : ... .. . ... ... ... : D#3 02 . ... : ... .. . ... : ... .. . ... ...
ROW 26 : === .. . ... G02 ... : ... .. . ... ... ... : ... .. . ... : ... .. . ... : F#3 01 . ... ...
ROW 27 : D#3 07 2 ... G01 ... : D#2 07 3 ... ... ... : ... .. . S01 : ... .. . ... : ... .. . ... ...
ROW 28 : B-1 08 E ... ... ... : A#2 08 F ... ... ... : D#2 02 . ... : C-# 03 . ... : F#3 00 . ... ...
ROW 29 : ... .. . ... ... ... : ... .. . ... ... ... : ... .. . ... : ... .. . ... : ... .. . ... ...
ROW 2A : === .. . ... G02 ... : ... .. . ... ... ... : ... .. . ... : ... .. . ... : D#3 01 . ... ...
ROW 2B : D#2 07 2 ... G01 ... : B-2 07 3 ... ... ... : ... .. . S01 : ... .. . ... : ... .. . ... ...
ROW 2C : A#1 08 E ... ... ... : F#2 08 F ... ... ... : D#2 02 . ... : C-# 03 . ... : A#3 00 . ... ...
ROW 2D : ... .. . ... ... ... : ... .. . ... ... ... : ... .. . ... : ... .. . ... : ... .. . ... ...
ROW 2E : === .. . ... G02 ... : ... .. . ... ... ... : ... .. . ... : ... .. . ... : F#3 01 . ... ...
ROW 2F : B-2 07 2 ... G01 ... : A#2 07 3 ... ... ... : ... .. . S01 : ... .. . ... : ... .. . ... ...
ROW 30 : A#1 08 E ... ... ... : D-2 08 F ... ... ... : F-3 01 . ... : C-# 06 . ... : F-4 00 . Z40 ...
ROW 31 : ... .. . ... ... ... : ... .. . ... ... ... : D-2 02 . ... : ... .. . ... : ... .. . ... ...
ROW 32 : === .. . ... G02 ... : ... .. . ... ... ... : ... .. . ... : ... .. . ... : A#3 01 . ... ...
ROW 33 : A#2 07 2 ... G01 ... : F#2 07 3 ... ... ... : ... .. . S01 : ... .. . ... : ... .. . ... ...
ROW 34 : A#1 08 E ... ... ... : F-3 08 E ... ... ... : D-2 02 . ... : C-# 03 . ... : D-4 00 . ... ...
ROW 35 : ... .. . ... ... ... : ... .. . ... ... ... : ... .. . ... : ... .. . ... : ... .. . ... ...
ROW 36 : === .. . ... G02 ... : ... .. . ... ... ... : ... .. . ... : ... .. . ... : F-4 01 . ... ...
ROW 37 : F#2 07 2 ... G01 ... : D-2 07 3 ... ... ... : ... .. . S01 : ... .. . ... : ... .. . ... ...
ROW 38 : A#1 08 E ... ... ... : D-2 08 F ... ... ... : D-2 02 . ... : C-# 03 . ... : A#3 00 . ... ...
ROW 39 : ... .. . ... ... ... : ... .. . ... ... ... : ... .. . ... : ... .. . ... : ... .. . ... ...
ROW 3A : === .. . ... G02 ... : ... .. . ... ... ... : ... .. . ... : ... .. . ... : D-4 01 . ... ...
ROW 3B : D-2 07 2 ... G01 ... : F-3 07 3 ... ... ... : ... .. . S01 : ... .. . ... : ... .. . ... ...
ROW 3C : A#1 08 E ... ... ... : B-2 08 F ... ... ... : G-3 00 . ... : 8-# 04 . ... : D-3 00 . Z30 ...
ROW 3D : ... .. . ... ... ... : ... .. . ... ... ... : D-3 02 . ... : ... .. . ... : ... .. . ... ...
ROW 3E : === .. . ... G02 ... : ... .. . ... ... ... : ... .. . ... : ... .. . ... : A#3 01 . ... ...
ROW 3F : F-3 07 2 ... G01 ... : D-2 07 3 ... ... ... : ... .. . S01 : ... .. . ... : ... .. . ... ...
ROW 40 : A#1 08 E ... ... ... : A#2 08 F ... ... ... : D-2 02 . ... : C-# 03 . ... : F-3 00 . ... ...
ROW 41 : ... .. . ... ... ... : ... .. . ... ... ... : ... .. . ... : ... .. . ... : ... .. . ... ...
ROW 42 : === .. . ... G02 ... : ... .. . ... ... ... : ... .. . ... : ... .. . ... : D-3 01 . ... ...
ROW 43 : D-2 07 2 ... G01 ... : B-2 07 3 ... ... ... : ... .. . S01 : ... .. . ... : ... .. . ... ...
ROW 44 : A#1 08 E ... ... ... : F-2 08 F ... ... ... : D-2 02 . ... : C-# 03 . ... : A#3 00 . ... ...
ROW 45 : ... .. . ... ... ... : ... .. . ... ... ... : ... .. . ... : ... .. . ... : ... .. . ... ...
ROW 46 : === .. . ... G02 ... : ... .. . ... ... ... : ... .. . ... : ... .. . ... : F-3 01 . ... ...
ROW 47 : B-2 07 2 ... G01 ... : A#2 07 3 ... ... ... : ... .. . S01 : ... .. . ... : ... .. . ... ...
ROW 48 : A#1 08 E ... ... ... : D-2 08 F ... ... ... : F-3 01 . ... : C-# 06 . ... : F-4 00 . Z40 ...
ROW 49 : ... .. . ... ... ... : ... .. . ... ... ... : D-2 02 . ... : ... .. . ... : ... .. . ... ...
ROW 4A : === .. . ... G02 ... : ... .. . ... ... ... : ... .. . ... : ... .. . ... : A#3 01 . ... ...
ROW 4B : A#2 07 2 ... G01 ... : F-2 07 3 ... ... ... : ... .. . S01 : ... .. . ... : ... .. . ... ...
ROW 4C : A#1 08 E ... ... ... : F-3 08 E ... ... ... : D-2 02 . ... : C-# 03 . ... : D-4 00 . ... ...
ROW 4D : ... .. . ... ... ... : ... .. . ... ... ... : ... .. . ... : ... .. . ... : ... .. . ... ...
ROW 4E : === .. . ... G02 ... : ... .. . ... ... ... : ... .. . ... : ... .. . ... : F-4 01 . ... ...
ROW 4F : F-2 07 2 ... G01 ... : D-2 07 3 ... ... ... : ... .. . S01 : ... .. . ... : ... .. . ... ...
ROW 50 : A#1 08 E ... ... ... : D-2 08 F ... ... ... : D-2 02 . ... : C-# 03 . ... : A#3 00 . ... ...
ROW 51 : ... .. . ... ... ... : ... .. . ... ... ... : ... .. . ... : ... .. . ... : ... .. . ... ...
ROW 52 : === .. . ... G02 ... : ... .. . ... ... ... : ... .. . ... : ... .. . ... : D-4 01 . ... ...
ROW 53 : D-2 07 2 ... G01 ... : F-3 07 3 ... ... ... : ... .. . S01 : ... .. . ... : ... .. . ... ...
ROW 54 : G#1 08 E ... ... ... : B-2 08 F ... ... ... : G-3 00 . ... : 8-# 04 . ... : D-3 00 . Z30 ...
ROW 55 : ... .. . ... ... ... : ... .. . ... ... ... : D-3 02 . ... : ... .. . ... : ... .. . ... ...
ROW 56 : === .. . ... G02 ... : ... .. . ... ... ... : ... .. . ... : ... .. . ... : A#3 01 . ... ...
ROW 57 : F-3 07 2 ... G01 ... : D-2 07 3 ... ... ... : ... .. . S01 : ... .. . ... : ... .. . ... ...
ROW 58 : F#1 08 E ... ... ... : A#2 08 F ... ... ... : F-3 01 . ... : C-# 06 . ... : F-3 00 . Z40 ...
ROW 59 : ... .. . ... ... ... : ... .. . ... ... ... : D-2 02 . ... : ... .. . ... : ... .. . ... ...
ROW 5A : === .. . ... G02 ... : ... .. . ... ... ... : ... .. . ... : ... .. . ... : D-3 01 . ... ...
ROW 5B : D-2 07 2 ... G01 ... : B-2 07 3 ... ... ... : ... .. . S01 : ... .. . ... : ... .. . ... ...
ROW 5C : G#1 08 E ... ... ... : F-2 08 F ... ... ... : F-3 01 . ... : C-# 06 . ... : A#3 00 . Z40 ...
ROW 5D : ... .. . ... ... ... : ... .. . ... ... ... : D-2 02 . ... : ... .. . ... : ... .. . ... ...
ROW 5E : === .. . ... G02 ... : ... .. . ... ... ... : ... .. . ... : ... .. . ... : F-3 01 . ... ...
ROW 5F : B-2 07 2 ... G01 ... : A#2 07 3 ... ... ... : ... .. . S01 : ... .. . ... : ... .. . ... ...

PATTERN 0D
ROW 00 : A#1 08 E ... ... P7F : D#2 08 F ... ... P81 : F-3 01 . ... : C-# 06 . ... : F#4 00 . Z40 ...
ROW 01 : ... .. . ... ... ... : ... .. . ... ... ... : D#2 02 . ... : ... .. . ... : ... .. . ... ...
ROW 02 : === .. . ... G02 ... : ... .. . ... ... ... : ... .. . ... : ... .. . ... : A#3 01 . ... ...
ROW 03 : A#2 07 2 V01 G01 ... : F-2 07 3 V01 ... ... : ... .. . S01 : ... .. . ... : ... .. . ... ...
ROW 04 : A#1 08 E ... ... ... : F#3 08 E ... ... ... : D#2 02 . ... : C-# 03 . ... : D#4 00 . ... ...
ROW 05 : ... .. . ... ... ... : ... .. . ... ... ... : ... .. . ... : ... .. . ... : ... .. . ... ...
ROW 06 : === .. . ... G02 ... : ... .. . ... ... ... : ... .. . ... : ... .. . ... : F#4 01 . ... ...
ROW 07 : F-2 07 2 ... G01 ... : D#2 07 3 ... ... ... : ... .. . S01 : ... .. . ... : ... .. . ... ...
ROW 08 : A#1 08 E ... ... ... : D#2 08 F ... ... ... : D#2 02 . ... : C-# 03 . ... : A#3 00 . ... ...
ROW 09 : ... .. . ... ... ... : ... .. . ... ... ... : ... .. . ... : ... .. . ... : ... .. . ... ...
ROW 0A : === .. . ... G02 ... : ... .. . ... ... ... : ... .. . ... : ... .. . ... : D#4 01 . ... ...
ROW 0B : D#2 07 2 ... G01 ... : F#3 07 3 ... ... ... : ... .. . S01 : ... .. . ... : ... .. . ... ...
ROW 0C : A#1 08 E ... ... ... : B-2 08 F ... ... ... : G-3 00 . ... : 8-# 04 . ... : D#3 00 . Z30 ...
ROW 0D : ... .. . ... ... ... : ... .. . ... ... ... : D#3 02 . ... : ... .. . ... : ... .. . ... ...
ROW 0E : === .. . ... G02 ... : ... .. . ... ... ... : ... .. . ... : ... .. . ... : A#3 01 . ... ...
ROW 0F : F#3 07 2 ... G01 ... : D#2 07 3 ... ... ... : ... .. . S01 : ... .. . ... : ... .. . ... ...
ROW 10 : A#1 08 E ... ... ... : A#2 08 F ... ... ... : D#2 02 . ... : C-# 03 . ... : F#3 00 . ... ...
ROW 11 : ... .. . ... ... ... : ... .. . ... ... ... : ... .. . ... : ... .. . ... : ... .. . ... ...
ROW 12 : === .. . ... G02 ... : ... .. . ... ... ... : ... .. . ... : ... .. . ... : D#3 01 . ... ...
ROW 13 : D#2 07 2 ... G01 ... : B-2 07 3 ... ... ... : ... .. . S01 : ... .. . ... : ... .. . ... ...
ROW 14 : A#1 08 E ... ... ... : F#2 08 F ... ... ... : D#2 02 . ... : C-# 03 . ... : A#3 00 . ... ...
ROW 15 : ... .. . ... ... ... : ... .. . ... ... ... : ... .. . ... : ... .. . ... : ... .. . ... ...
ROW 16 : === .. . ... G02 ... : ... .. . ... ... ... : ... .. . ... : ... .. . ... : F#3 01 . ... ...
ROW 17 : B-2 07 2 ... G01 ... : A#2 07 3 ... ... ... : ... .. . S01 : ... .. . ... : ... .. . ... ...
ROW 18 : A#1 08 E ... ... ... : D#2 08 F ... ... ... : F-3 01 . ... : C-# 06 . ... : F#4 00 . Z40 ...
ROW 19 : ... .. . ... ... ... : ... .. . ... ... ... : D#2 02 . ... : ... .. . ... : ... .. . ... ...
ROW 1A : === .. . ... G02 ... : ... .. . ... ... ... : ... .. . ... : ... .. . ... : A#3 01 . ... ...
ROW 1B : A#2 07 2 ... G01 ... : F#2 07 3 ... ... ... : ... .. . S01 : ... .. . ... : ... .. . ... ...
ROW 1C : A#1 08 E ... ... ... : F#3 08 E ... ... ... : D#2 02 . ... : C-# 03 . ... : D#4 00 . ... ...
ROW 1D : ... .. . ... ... ... : ... .. . ... ... ... : ... .. . ... : ... .. . ... : ... .. . ... ...
ROW 1E : === .. . ... G02 ... : ... .. . ... ... ... : ... .. . ... : ... .. . ... : F#4 01 . ... ...
ROW 1F : F#2 07 2 ... G01 ... : D#2 07 3 ... ... ... : ... .. . S01 : ... .. . ... : ... .. . ... ...
ROW 20 : A#1 08 E ... ... ... : D#2 08 F ... ... ... : D#2 02 . ... : C-# 03 . ... : A#3 00 . ... ...
ROW 21 : ... .. . ... ... ... : ... .. . ... ... ... : ... .. . ... : ... .. . ... : ... .. . ... ...
ROW 22 : === .. . ... G02 ... : ... .. . ... ... ... : ... .. . ... : ... .. . ... : D#4 01 . ... ...
ROW 23 : D#2 07 2 ... G01 ... : F#3 07 3 ... ... ... : ... .. . S01 : ... .. . ... : ... .. . ... ...
ROW 24 : A#1 08 E ... ... ... : B-2 08 F ... ... ... : G-3 00 . ... : 8-# 04 . ... : D#3 00 . Z30 ...
ROW 25 : ... .. . ... ... ... : ... .. . ... ... ... : D#3 02 . ... : ... .. . ... : ... .. . ... ...
ROW 26 : === .. . ... G02 ... : ... .. . ... ... ... : ... .. . ... : ... .. . ... : A#3 01 . ... ...
ROW 27 : F#3 07 2 ... G01 ... : D#2 07 3 ... ... ... : ... .. . S01 : ... .. . ... : ... .. . ... ...
ROW 28 : B-1 08 E ... ... ... : A#2 08 F ... ... ... : D#2 02 . ... : C-# 03 . ... : F#3 00 . ... ...
ROW 29 : ... .. . ... ... ... : ... .. . ... ... ... : ... .. . ... : ... .. . ... : ... .. . ... ...
ROW 2A : === .. . ... G02 ... : ... .. . ... ... ... : ... .. . ... : ... .. . ... : D#3 01 . ... ...
ROW 2B : D#2 07 2 ... G01 ... : B-2 07 3 ... ... ... : ... .. . S01 : ... .. . ... : ... .. . ... ...
ROW 2C : A#1 08 E ... ... ... : F#2 08 F ... ... ... : D#2 02 . ... : C-# 03 . ... : A#3 00 . ... ...
ROW 2D : ... .. . ... ... ... : ... .. . ... ... ... : ... .. . ... : ... .. . ... : ... .. . ... ...
ROW 2E : === .. . ... G02 ... : ... .. . ... ... ... : ... .. . ... : ... .. . ... : F#3 01 . ... ...
ROW 2F : B-2 07 2 ... G01 ... : A#2 07 3 ... ... ... : ... .. . S01 : ... .. . ... : ... .. . ... ...
ROW 30 : A#1 08 E ... ... ... : D-2 08 F ... ... ... : F-3 01 . ... : C-# 06 . ... : F-4 00 . Z40 ...
ROW 31 : ... .. . ... ... ... : ... .. . ... ... ... : D-2 02 . ... : ... .. . ... : ... .. . ... ...
ROW 32 : === .. . ... G02 ... : ... .. . ... ... ... : ... .. . ... : ... .. . ... : A#3 01 . ... ...
ROW 33 : A#2 07 2 ... G01 ... : F#2 07 3 ... ... ... : ... .. . S01 : ... .. . ... : ... .. . ... ...
ROW 34 : A#1 08 E ... ... ... : F-3 08 E ... ... ... : D-2 02 . ... : C-# 03 . ... : D-4 00 . ... ...
ROW 35 : ... .. . ... ... ... : ... .. . ... ... ... : ... .. . ... : ... .. . ... : ... .. . ... ...
ROW 36 : === .. . ... G02 ... : ... .. . ... ... ... : ... .. . ... : ... .. . ... : F-4 01 . ... ...
ROW 37 : F#2 07 2 ... G01 ... : D-2 07 3 ... ... ... : ... .. . S01 : ... .. . ... : ... .. . ... ...
ROW 38 : A#1 08 E ... ... ... : D-2 08 F ... ... ... : D-2 02 . ... : C-# 03 . ... : A#3 00 . ... ...
ROW 39 : ... .. . ... ... ... : ... .. . ... ... ... : ... .. . ... : ... .. . ... : ... .. . ... ...
ROW 3A : === .. . ... G02 ... : ... .. . ... ... ... : ... .. . ... : ... .. . ... : D-4 01 . ... ...
ROW 3B : D-2 07 2 ... G01 ... : F-3 07 3 ... ... ... : ... .. . S01 : ... .. . ... : ... .. . ... ...
ROW 3C : A#1 08 E ... ... ... : B-2 08 F ... ... ... : G-3 00 . ... : 8-# 04 . ... : D-3 00 . Z30 ...
ROW 3D : ... .. . ... ... ... : ... .. . ... ... ... : D-3 02 . ... : ... .. . ... : ... .. . ... ...
ROW 3E : === .. . ... G02 ... : ... .. . ... ... ... : ... .. . ... : ... .. . ... : A#3 01 . ... ...
ROW 3F : F-3 07 2 ... G01 ... : D-2 07 3 ... ... ... : ... .. . S01 : ... .. . ... : ... .. . ... ...
ROW 40 : A#1 08 E ... ... ... : A#2 08 F ... ... ... : D-2 02 . ... : C-# 03 . ... : F-3 00 . ... ...
ROW 41 : ... .. . ... ... ... : ... .. . ... ... ... : ... .. . ... : ... .. . ... : ... .. . ... ...
ROW 42 : === .. . ... G02 ... : ... .. . ... ... ... : ... .. . ... : ... .. . ... : D-3 01 . ... ...
ROW 43 : D-2 07 2 ... G01 ... : B-2 07 3 ... ... ... : ... .. . S01 : ... .. . ... : ... .. . ... ...
ROW 44 : A#1 08 E ... ... ... : F-2 08 F ... ... ... : D-2 02 . ... : C-# 03 . ... : A#3 00 . ... ...
ROW 45 : ... .. . ... ... ... : ... .. . ... ... ... : ... .. . ... : ... .. . ... : ... .. . ... ...
ROW 46 : === .. . ... G02 ... : ... .. . ... ... ... : ... .. . ... : ... .. . ... : F-3 01 . ... ...
ROW 47 : B-2 07 2 ... G01 ... : A#2 07 3 ... ... ... : ... .. . S01 : ... .. . ... : ... .. . ... ...
ROW 48 : A#1 08 E ... ... ... : D-2 08 F ... ... ... : F-3 01 . ... : C-# 06 . ... : F-4 00 . Z40 ...
ROW 49 : ... .. . ... ... ... : ... .. . ... ... ... : D-2 02 . ... : ... .. . ... : ... .. . ... ...
ROW 4A : === .. . ... G02 ... : ... .. . ... ... ... : ... .. . ... : ... .. . ... : A#3 01 . ... ...
ROW 4B : A#2 07 2 ... G01 ... : F-2 07 3 ... ... ... : ... .. . S01 : ... .. . ... : ... .. . ... ...
ROW 4C : A#1 08 E ... ... ... : F-3 08 E ... ... ... : D-2 02 . ... : C-# 03 . ... : D-4 00 . ... ...
ROW 4D : ... .. . ... ... ... : ... .. . ... ... ... : ... .. . ... : ... .. . ... : ... .. . ... ...
ROW 4E : === .. . ... G02 ... : ... .. . ... ... ... : ... .. . ... : ... .. . ... : F-4 01 . ... ...
ROW 4F : F-2 07 2 ... G01 ... : D-2 07 3 ... ... ... : ... .. . S01 : ... .. . ... : ... .. . ... ...
ROW 50 : A#1 08 E ... ... ... : D-2 08 F ... ... ... : D-2 02 . ... : C-# 03 . ... : A#3 00 . ... ...
ROW 51 : ... .. . ... ... ... : ... .. . ... ... ... : ... .. . ... : ... .. . ... : ... .. . ... ...
ROW 52 : === .. . ... G02 ... : ... .. . ... ... ... : ... .. . ... : ... .. . ... : D-4 01 . ... ...
ROW 53 : D-2 07 2 ... G01 ... : F-3 07 3 ... ... ... : ... .. . S01 : ... .. . ... : ... .. . ... ...
ROW 54 : G#1 08 E ... ... ... : B-2 08 F ... ... ... : G-3 00 . ... : 8-# 04 . ... : D-3 00 . Z30 ...
ROW 55 : ... .. . ... ... ... : ... .. . ... ... ... : D-3 02 . ... : ... .. . ... : ... .. . ... ...
ROW 56 : === .. . ... G02 ... : ... .. . ... ... ... : ... .. . ... : ... .. . ... : A#3 01 . ... ...
ROW 57 : F-3 07 2 ... G01 ... : D-2 07 3 ... ... ... : ... .. . S01 : ... .. . ... : ... .. . ... ...
ROW 58 : F#1 08 E ... ... ... : A#2 08 F ... ... ... : F-3 01 . ... : C-# 06 . ... : F-3 00 . Z40 ...
ROW 59 : ... .. . ... ... ... : ... .. . ... ... ... : D-2 02 . ... : ... .. . ... : ... .. . ... ...
ROW 5A : === .. . ... G02 ... : ... .. . ... ... ... : ... .. . ... : ... .. . ... : D-3 01 . ... ...
ROW 5B : D-2 07 2 ... G01 ... : B-2 07 3 ... ... ... : ... .. . S01 : ... .. . ... : ... .. . ... ...
ROW 5C : G#1 08 E ... ... ... : F-2 08 F ... ... ... : G-3 00 . ... : 8-# 04 . ... : A#3 00 . Z30 ...
ROW 5D : ... .. . ... ... ... : ... .. . ... ... ... : D-2 02 . ... : ... .. . ... : ... .. . ... ...
ROW 5E : === .. . ... G02 ... : ... .. . ... ... ... : ... .. . ... : ... .. . ... : F-3 01 . ... ...
ROW 5F : B-2 07 2 ... G01 ... : A#2 07 3 ... ... ... : ... .. . S01 : ... .. . ... : ... .. . ... ...

PATTERN 0E
ROW 00 : A#1 08 E ... ... P7F : D#2 08 F ... ... P81 : F-3 01 . ... : C-# 06 . ... : D#4 00 . Z40 ...
ROW 01 : ... .. . ... ... ... : ... .. . ... ... ... : D#2 02 . ... : ... .. . ... : ... .. . ... ...
ROW 02 : === .. . ... G02 ... : ... .. . ... ... ... : ... .. . ... : ... .. . ... : A#3 01 . ... ...
ROW 03 : A#2 07 2 V01 G01 ... : D#3 07 3 V01 ... ... : ... .. . S01 : ... .. . ... : ... .. . ... ...
ROW 04 : A#1 08 E ... ... ... : D#3 08 E ... ... ... : D#2 02 . ... : C-# 03 . ... : A#3 00 . ... ...
ROW 05 : ... .. . ... ... ... : ... .. . ... ... ... : ... .. . ... : ... .. . ... : ... .. . ... ...
ROW 06 : === .. . ... G02 ... : ... .. . ... ... ... : ... .. . ... : ... .. . ... : D#4 01 . ... ...
ROW 07 : D#3 07 2 ... G01 ... : D#2 07 3 ... ... ... : ... .. . S01 : ... .. . ... : ... .. . ... ...
ROW 08 : A#1 08 E ... ... ... : D#2 08 F ... ... ... : D#2 02 . ... : C-# 03 . ... : F#3 00 . ... ...
ROW 09 : ... .. . ... ... ... : ... .. . ... ... ... : ... .. . ... : ... .. . ... : ... .. . ... ...
ROW 0A : === .. . ... G02 ... : ... .. . ... ... ... : ... .. . ... : ... .. . ... : A#3 01 . ... ...
ROW 0B : D#2 07 2 ... G01 ... : D#3 07 3 ... ... ... : ... .. . S01 : ... .. . ... : ... .. . ... ...
ROW 0C : A#1 08 E ... ... ... : B-2 08 F ... ... ... : G-3 00 . ... : 8-# 04 . ... : D#3 00 . Z30 ...
ROW 0D : ... .. . ... ... ... : ... .. . ... ... ... : D#3 02 . ... : ... .. . ... : ... .. . ... ...
ROW 0E : === .. . ... G02 ... : ... .. . ... ... ... : ... .. . ... : ... .. . ... : F#3 01 . ... ...
ROW 0F : D#3 07 2 ... G01 ... : D#2 07 3 ... ... ... : ... .. . S01 : ... .. . ... : ... .. . ... ...
ROW 10 : A#1 08 E ... ... ... : A#2 08 F ... ... ... : D#2 02 . ... : C-# 03 . ... : F#3 00 . ... ...
ROW 11 : ... .. . ... ... ... : ... .. . ... ... ... : ... .. . ... : ... .. . ... : ... .. . ... ...
ROW 12 : === .. . ... G02 ... : ... .. . ... ... ... : ... .. . ... : ... .. . ... : D#3 01 . ... ...
ROW 13 : D#2 07 2 ... G01 ... : B-2 07 3 ... ... ... : ... .. . S01 : ... .. . ... : ... .. . ... ...
ROW 14 : A#1 08 E ... ... ... : F#2 08 F ... ... ... : D#2 02 . ... : C-# 03 . ... : A#3 00 . ... ...
ROW 15 : ... .. . ... ... ... : ... .. . ... ... ... : ... .. . ... : ... .. . ... : ... .. . ... ...
ROW 16 : === .. . ... G02 ... : ... .. . ... ... ... : ... .. . ... : ... .. . ... : F#3 01 . ... ...
ROW 17 : B-2 07 2 ... G01 ... : A#2 07 3 ... ... ... : ... .. . S01 : ... .. . ... : ... .. . ... ...
ROW 18 : A#1 08 E ... ... ... : D#2 08 F ... ... ... : F-3 01 . ... : C-# 06 . ... : D#4 00 . Z40 ...
ROW 19 : ... .. . ... ... ... : ... .. . ... ... ... : D#2 02 . ... : ... .. . ... : ... .. . ... ...
ROW 1A : === .. . ... G02 ... : ... .. . ... ... ... : ... .. . ... : ... .. . ... : A#3 01 . ... ...
ROW 1B : A#2 07 2 ... G01 ... : F#2 07 3 ... ... ... : ... .. . S01 : ... .. . ... : ... .. . ... ...
ROW 1C : A#1 08 E ... ... ... : D#3 08 E ... ... ... : D#2 02 . ... : C-# 03 . ... : A#3 00 . ... ...
ROW 1D : ... .. . ... ... ... : ... .. . ... ... ... : ... .. . ... : ... .. . ... : ... .. . ... ...
ROW 1E : === .. . ... G02 ... : ... .. . ... ... ... : ... .. . ... : ... .. . ... : D#4 01 . ... ...
ROW 1F : F#2 07 2 ... G01 ... : D#2 07 3 ... ... ... : ... .. . S01 : ... .. . ... : ... .. . ... ...
ROW 20 : A#1 08 E ... ... ... : D#2 08 F ... ... ... : D#2 02 . ... : C-# 03 . ... : F#3 00 . ... ...
ROW 21 : ... .. . ... ... ... : ... .. . ... ... ... : ... .. . ... : ... .. . ... : ... .. . ... ...
ROW 22 : === .. . ... G02 ... : ... .. . ... ... ... : ... .. . ... : ... .. . ... : A#3 01 . ... ...
ROW 23 : D#2 07 2 ... G01 ... : D#3 07 3 ... ... ... : ... .. . S01 : ... .. . ... : ... .. . ... ...
ROW 24 : A#1 08 E ... ... ... : B-2 08 F ... ... ... : G-3 00 . ... : 8-# 04 . ... : D#3 00 . Z30 ...
ROW 25 : ... .. . ... ... ... : ... .. . ... ... ... : D#3 02 . ... : ... .. . ... : ... .. . ... ...
ROW 26 : === .. . ... G02 ... : ... .. . ... ... ... : ... .. . ... : ... .. . ... : F#3 01 . ... ...
ROW 27 : D#3 07 2 ... G01 ... : D#2 07 3 ... ... ... : ... .. . S01 : ... .. . ... : ... .. . ... ...
ROW 28 : G#1 08 E ... ... ... : A#2 08 F ... ... ... : D#2 02 . ... : C-# 03 . ... : F#3 00 . ... ...
ROW 29 : ... .. . ... ... ... : ... .. . ... ... ... : ... .. . ... : ... .. . ... : ... .. . ... ...
ROW 2A : === .. . ... G02 ... : ... .. . ... ... ... : ... .. . ... : ... .. . ... : D#3 01 . ... ...
ROW 2B : D#2 07 2 ... G01 ... : B-2 07 3 ... ... ... : ... .. . S01 : ... .. . ... : ... .. . ... ...
ROW 2C : F#1 08 E ... ... ... : F#2 08 F ... ... ... : D#2 02 . ... : C-# 03 . ... : A#3 00 . ... ...
ROW 2D : ... .. . ... ... ... : ... .. . ... ... ... : ... .. . ... : ... .. . ... : ... .. . ... ...
ROW 2E : === .. . ... G02 ... : ... .. . ... ... ... : ... .. . ... : ... .. . ... : F#3 01 . ... ...
ROW 2F : B-2 07 2 ... G01 ... : A#2 07 3 ... ... ... : ... .. . S01 : ... .. . ... : ... .. . ... ...
ROW 30 : G#1 08 E ... ... ... : C#2 08 F ... ... ... : F-3 01 . ... : C-# 06 . ... : C#4 00 . Z40 ...
ROW 31 : ... .. . ... ... ... : ... .. . ... ... ... : C#2 02 . ... : ... .. . ... : ... .. . ... ...
ROW 32 : === .. . ... G02 ... : ... .. . ... ... ... : ... .. . ... : ... .. . ... : A#3 01 . ... ...
ROW 33 : A#2 07 2 ... G01 ... : F#2 07 3 ... ... ... : ... .. . S01 : ... .. . ... : ... .. . ... ...
ROW 34 : G#1 08 E ... ... ... : C#3 08 F ... ... ... : C#2 02 . ... : C-# 03 . ... : G#3 00 . ... ...
ROW 35 : ... .. . ... ... ... : ... .. . ... ... ... : ... .. . ... : ... .. . ... : ... .. . ... ...
ROW 36 : === .. . ... G02 ... : ... .. . ... ... ... : ... .. . ... : ... .. . ... : C#4 01 . ... ...
ROW 37 : F#2 07 2 ... G01 ... : C#2 07 3 ... ... ... : ... .. . S01 : ... .. . ... : ... .. . ... ...
ROW 38 : G#1 08 E ... ... ... : C#2 08 F ... ... ... : C#2 02 . ... : C-# 03 . ... : F-3 00 . ... ...
ROW 39 : ... .. . ... ... ... : ... .. . ... ... ... : ... .. . ... : ... .. . ... : ... .. . ... ...
ROW 3A : === .. . ... G02 ... : ... .. . ... ... ... : ... .. . ... : ... .. . ... : G#3 01 . ... ...
ROW 3B : C#2 07 2 ... G01 ... : C#3 07 3 ... ... ... : ... .. . S01 : ... .. . ... : ... .. . ... ...
ROW 3C : G#1 08 E ... ... ... : G#2 08 F ... ... ... : G-3 00 . ... : 8-# 04 . ... : C#3 00 . Z30 ...
ROW 3D : ... .. . ... ... ... : ... .. . ... ... ... : C#3 02 . ... : ... .. . ... : ... .. . ... ...
ROW 3E : === .. . ... G02 ... : ... .. . ... ... ... : ... .. . ... : ... .. . ... : F-3 01 . ... ...
ROW 3F : C#3 07 2 ... G01 ... : C#2 07 3 ... ... ... : ... .. . S01 : ... .. . ... : ... .. . ... ...
ROW 40 : G#1 08 E ... ... ... : F-2 08 F ... ... ... : C#2 02 . ... : C-# 03 . ... : F-3 00 . ... ...
ROW 41 : ... .. . ... ... ... : ... .. . ... ... ... : ... .. . ... : ... .. . ... : ... .. . ... ...
ROW 42 : === .. . ... G02 ... : ... .. . ... ... ... : ... .. . ... : ... .. . ... : C#3 01 . ... ...
ROW 43 : C#2 07 2 ... G01 ... : G#2 07 3 ... ... ... : ... .. . S01 : ... .. . ... : ... .. . ... ...
ROW 44 : G#1 08 E ... ... ... : C#2 08 F ... ... ... : C#2 02 . ... : C-# 03 . ... : G#3 00 . ... ...
ROW 45 : ... .. . ... ... ... : ... .. . ... ... ... : ... .. . ... : ... .. . ... : ... .. . ... ...
ROW 46 : === .. . ... G02 ... : ... .. . ... ... ... : ... .. . ... : ... .. . ... : F-3 01 . ... ...
ROW 47 : G#2 07 2 ... G01 ... : F-2 07 3 ... ... ... : ... .. . S01 : ... .. . ... : ... .. . ... ...
ROW 48 : G#1 08 E ... ... ... : C#2 08 F ... ... ... : F-3 01 . ... : C-# 06 . ... : C#4 00 . Z40 ...
ROW 49 : ... .. . ... ... ... : ... .. . ... ... ... : C#2 02 . ... : ... .. . ... : ... .. . ... ...
ROW 4A : === .. . ... G02 ... : ... .. . ... ... ... : ... .. . ... : ... .. . ... : G#3 01 . ... ...
ROW 4B : F-2 07 2 ... G01 ... : C#2 07 3 ... ... ... : ... .. . S01 : ... .. . ... : ... .. . ... ...
ROW 4C : G#1 08 E ... ... ... : C#3 08 F ... ... ... : C#2 02 . ... : C-# 03 . ... : G#3 00 . ... ...
ROW 4D : ... .. . ... ... ... : ... .. . ... ... ... : ... .. . ... : ... .. . ... : ... .. . ... ...
ROW 4E : === .. . ... G02 ... : ... .. . ... ... ... : ... .. . ... : ... .. . ... : C#4 01 . ... ...
ROW 4F : C#2 07 2 ... G01 ... : C#2 07 3 ... ... ... : ... .. . S01 : ... .. . ... : ... .. . ... ...
ROW 50 : G#1 08 E ... ... ... : C#2 08 F ... ... ... : C#2 02 . ... : C-# 03 . ... : F-3 00 . ... ...
ROW 51 : ... .. . ... ... ... : ... .. . ... ... ... : ... .. . ... : ... .. . ... : ... .. . ... ...
ROW 52 : === .. . ... G02 ... : ... .. . ... ... ... : ... .. . ... : ... .. . ... : G#3 01 . ... ...
ROW 53 : C#2 07 2 ... G01 ... : C#3 07 3 ... ... ... : ... .. . S01 : ... .. . ... : ... .. . ... ...
ROW 54 : G#1 08 E ... ... ... : G#2 08 F ... ... ... : G-3 00 . ... : 8-# 04 . ... : C#3 00 . Z30 ...
ROW 55 : ... .. . ... ... ... : ... .. . ... ... ... : C#3 02 . ... : ... .. . ... : ... .. . ... ...
ROW 56 : === .. . ... G02 ... : ... .. . ... ... ... : ... .. . ... : ... .. . ... : F-3 01 . ... ...
ROW 57 : C#3 07 2 ... G01 ... : C#2 07 3 ... ... ... : ... .. . S01 : ... .. . ... : ... .. . ... ...
ROW 58 : A#1 08 E ... ... ... : F-2 08 F ... ... ... : F-3 01 . ... : C-# 06 . ... : F-3 00 . Z40 ...
ROW 59 : ... .. . ... ... ... : ... .. . ... ... ... : C#2 02 . ... : ... .. . ... : ... .. . ... ...
ROW 5A : === .. . ... G02 ... : ... .. . ... ... ... : ... .. . ... : ... .. . ... : C#3 01 . ... ...
ROW 5B : C#2 07 2 ... G01 ... : G#2 07 3 ... ... ... : ... .. . S01 : ... .. . ... : ... .. . ... ...
ROW 5C : G#1 08 E ... ... ... : C#2 08 F ... ... ... : F-3 01 . ... : C-# 06 . ... : G#3 00 . Z40 ...
ROW 5D : ... .. . ... ... ... : ... .. . ... ... ... : C#2 02 . ... : ... .. . ... : ... .. . ... ...
ROW 5E : === .. . ... G02 ... : ... .. . ... ... ... : ... .. . ... : ... .. . ... : F-3 01 . ... ...
ROW 5F : G#2 07 2 ... G01 ... : F-2 07 3 ... ... ... : ... .. . S01 : ... .. . ... : ... .. . ... ...

PATTERN 0F
ROW 00 : F#1 08 E ... ... P7F : B-1 08 F ... ... P81 : F-3 01 . ... : C-# 06 . ... : D#4 00 . Z40 ...
ROW 01 : ... .. . ... ... ... : ... .. . ... ... ... : B-1 02 . ... : ... .. . ... : ... .. . ... ...
ROW 02 : === .. . ... G02 ... : ... .. . ... ... ... : ... .. . ... : ... .. . ... : G#3 01 . ... ...
ROW 03 : F-2 07 2 V01 G01 ... : C#2 07 3 V01 ... ... : ... .. . S01 : ... .. . ... : ... .. . ... ...
ROW 04 : F#1 08 E ... ... ... : D#2 08 F ... ... ... : B-1 02 . ... : C-# 03 . ... : B-3 00 . ... ...
ROW 05 : ... .. . ... ... ... : ... .. . ... ... ... : ... .. . ... : ... .. . ... : ... .. . ... ...
ROW 06 : === .. . ... G02 ... : ... .. . ... ... ... : ... .. . ... : ... .. . ... : D#4 01 . ... ...
ROW 07 : C#2 07 2 ... G01 ... : B-1 07 3 ... ... ... : ... .. . S01 : ... .. . ... : ... .. . ... ...
ROW 08 : F#1 08 E ... ... ... : F#2 08 F ... ... ... : B-1 02 . ... : C-# 03 . ... : F#3 00 . ... ...
ROW 09 : ... .. . ... ... ... : ... .. . ... ... ... : ... .. . ... : ... .. . ... : ... .. . ... ...
ROW 0A : === .. . ... G02 ... : ... .. . ... ... ... : ... .. . ... : ... .. . ... : B-3 01 . ... ...
ROW 0B : B-1 07 2 ... G01 ... : D#2 07 3 ... ... ... : ... .. . S01 : ... .. . ... : ... .. . ... ...
ROW 0C : F#1 08 E ... ... ... : D#2 08 F ... ... ... : G-3 00 . ... : 8-# 04 . ... : D#3 00 . Z30 ...
ROW 0D : ... .. . ... ... ... : ... .. . ... ... ... : B-2 02 . ... : ... .. . ... : ... .. . ... ...
ROW 0E : === .. . ... G02 ... : ... .. . ... ... ... : ... .. . ... : ... .. . ... : F#3 01 . ... ...
ROW 0F : D#2 07 2 ... G01 ... : F#2 07 3 ... ... ... : ... .. . S01 : ... .. . ... : ... .. . ... ...
ROW 10 : F#1 08 E ... ... ... : F#2 08 F ... ... ... : B-1 02 . ... : C-# 03 . ... : F#3 00 . ... ...
ROW 11 : ... .. . ... ... ... : ... .. . ... ... ... : ... .. . ... : ... .. . ... : ... .. . ... ...
ROW 12 : === .. . ... G02 ... : ... .. . ... ... ... : ... .. . ... : ... .. . ... : D#3 01 . ... ...
ROW 13 : F#2 07 2 ... G01 ... : D#2 07 3 ... ... ... : ... .. . S01 : ... .. . ... : ... .. . ... ...
ROW 14 : F#1 08 E ... ... ... : B-2 08 F ... ... ... : B-1 02 . ... : C-# 03 . ... : B-3 00 . ... ...
ROW 15 : ... .. . ... ... ... : ... .. . ... ... ... : ... .. . ... : ... .. . ... : ... .. . ... ...
ROW 16 : === .. . ... G02 ... : ... .. . ... ... ... : ... .. . ... : ... .. . ... : F#3 01 . ... ...
ROW 17 : D#2 07 2 ... G01 ... : F#2 07 3 ... ... ... : ... .. . S01 : ... .. . ... : ... .. . ... ...
ROW 18 : F#1 08 E ... ... ... : D#2 08 F ... ... ... : F-3 01 . ... : C-# 06 . ... : D#4 00 . Z40 ...
ROW 19 : ... .. . ... ... ... : ... .. . ... ... ... : B-1 02 . ... : ... .. . ... : ... .. . ... ...
ROW 1A : === .. . ... G02 ... : ... .. . ... ... ... : ... .. . ... : ... .. . ... : B-3 01 . ... ...
ROW 1B : F#2 07 2 ... G01 ... : B-2 07 3 ... ... ... : ... .. . S01 : ... .. . ... : ... .. . ... ...
ROW 1C : F#1 08 E ... ... ... : F#2 08 F ... ... ... : B-1 02 . ... : C-# 03 . ... : B-3 00 . ... ...
ROW 1D : ... .. . ... ... ... : ... .. . ... ... ... : ... .. . ... : ... .. . ... : ... .. . ... ...
ROW 1E : === .. . ... G02 ... : ... .. . ... ... ... : ... .. . ... : ... .. . ... : D#4 01 . ... ...
ROW 1F : B-2 07 2 ... G01 ... : D#2 07 3 ... ... ... : ... .. . S01 : ... .. . ... : ... .. . ... ...
ROW 20 : F#1 08 E ... ... ... : B-2 08 F ... ... ... : B-1 02 . ... : C-# 03 . ... : F#3 00 . ... ...
ROW 21 : ... .. . ... ... ... : ... .. . ... ... ... : ... .. . ... : ... .. . ... : ... .. . ... ...
ROW 22 : === .. . ... G02 ... : ... .. . ... ... ... : ... .. . ... : ... .. . ... : B-3 01 . ... ...
ROW 23 : D#2 07 2 ... G01 ... : F#2 07 3 ... ... ... : ... .. . S01 : ... .. . ... : ... .. . ... ...
ROW 24 : F#1 08 E ... ... ... : F#2 08 F ... ... ... : G-3 00 . ... : 8-# 04 . ... : D#3 00 . Z30 ...
ROW 25 : ... .. . ... ... ... : ... .. . ... ... ... : B-2 02 . ... : ... .. . ... : ... .. . ... ...
ROW 26 : === .. . ... G02 ... : ... .. . ... ... ... : ... .. . ... : ... .. . ... : F#3 01 . ... ...
ROW 27 : F#2 07 2 ... G01 ... : B-2 07 3 ... ... ... : ... .. . S01 : ... .. . ... : ... .. . ... ...
ROW 28 : F-1 08 E ... ... ... : B-2 08 F ... ... ... : B-1 02 . ... : C-# 03 . ... : F#3 00 . ... ...
ROW 29 : ... .. . ... ... ... : ... .. . ... ... ... : ... .. . ... : ... .. . ... : ... .. . ... ...
ROW 2A : === .. . ... G02 ... : ... .. . ... ... ... : ... .. . ... : ... .. . ... : D#3 01 . ... ...
ROW 2B : B-2 07 2 ... G01 ... : F#2 07 3 ... ... ... : ... .. . S01 : ... .. . ... : ... .. . ... ...
ROW 2C : D#1 08 E ... ... ... : D#3 08 F ... ... ... : B-1 02 . ... : C-# 03 . ... : B-3 00 . ... ...
ROW 2D : ... .. . ... ... ... : ... .. . ... ... ... : ... .. . ... : ... .. . ... : ... .. . ... ...
ROW 2E : === .. . ... G02 ... : ... .. . ... ... ... : ... .. . ... : ... .. . ... : F#3 01 . ... ...
ROW 2F : F#2 07 2 ... G01 ... : B-2 07 3 ... ... ... : ... .. . S01 : ... .. . ... : ... .. . ... ...
ROW 30 : F-1 08 E ... ... ... : A#1 08 F ... ... ... : F-3 01 . ... : C-# 06 . ... : D-4 00 . Z40 ...
ROW 31 : ... .. . ... ... ... : ... .. . ... ... ... : A#1 02 . ... : ... .. . ... : ... .. . ... ...
ROW 32 : === .. . ... G02 ... : ... .. . ... ... ... : ... .. . ... : ... .. . ... : B-3 01 . ... ...
ROW 33 : B-2 07 2 ... G01 ... : D#3 07 3 ... ... ... : ... .. . S01 : ... .. . ... : ... .. . ... ...
ROW 34 : F-1 08 E ... ... ... : D-2 08 F ... ... ... : A#1 02 . ... : C-# 03 . ... : A#3 00 . ... ...
ROW 35 : ... .. . ... ... ... : ... .. . ... ... ... : ... .. . ... : ... .. . ... : ... .. . ... ...
ROW 36 : === .. . ... G02 ... : ... .. . ... ... ... : ... .. . ... : ... .. . ... : D-4 01 . ... ...
ROW 37 : D#3 07 2 ... G01 ... : A#1 07 3 ... ... ... : ... .. . S01 : ... .. . ... : ... .. . ... ...
ROW 38 : F-1 08 E ... ... ... : F-2 08 F ... ... ... : A#1 02 . ... : C-# 03 . ... : F-3 00 . ... ...
ROW 39 : ... .. . ... ... ... : ... .. . ... ... ... : ... .. . ... : ... .. . ... : ... .. . ... ...
ROW 3A : === .. . ... G02 ... : ... .. . ... ... ... : ... .. . ... : ... .. . ... : A#3 01 . ... ...
ROW 3B : A#1 07 2 ... G01 ... : D-2 07 3 ... ... ... : ... .. . S01 : ... .. . ... : ... .. . ... ...
ROW 3C : F-1 08 E ... ... ... : D-2 08 F ... ... ... : G-3 00 . ... : 8-# 04 . ... : D-3 00 . Z30 ...
ROW 3D : ... .. . ... ... ... : ... .. . ... ... ... : A#2 02 . ... : ... .. . ... : ... .. . ... ...
ROW 3E : === .. . ... G02 ... : ... .. . ... ... ... : ... .. . ... : ... .. . ... : F-3 01 . ... ...
ROW 3F : D-2 07 2 ... G01 ... : F-2 07 3 ... ... ... : ... .. . S01 : ... .. . ... : ... .. . ... ...
ROW 40 : F-1 08 E ... ... ... : F-2 08 F ... ... ... : A#1 02 . ... : C-# 03 . ... : F-3 00 . ... ...
ROW 41 : ... .. . ... ... ... : ... .. . ... ... ... : ... .. . ... : ... .. . ... : ... .. . ... ...
ROW 42 : === .. . ... G02 ... : ... .. . ... ... ... : ... .. . ... : ... .. . ... : D-3 01 . ... ...
ROW 43 : F-2 07 2 ... G01 ... : D-2 07 3 ... ... ... : ... .. . S01 : ... .. . ... : ... .. . ... ...
ROW 44 : F-1 08 E ... ... ... : A#2 08 F ... ... ... : A#1 02 . ... : C-# 03 . ... : A#3 00 . ... ...
ROW 45 : ... .. . ... ... ... : ... .. . ... ... ... : ... .. . ... : ... .. . ... : ... .. . ... ...
ROW 46 : === .. . ... G02 ... : ... .. . ... ... ... : ... .. . ... : ... .. . ... : F-3 01 . ... ...
ROW 47 : D-2 07 2 ... G01 ... : F-2 07 3 ... ... ... : ... .. . S01 : ... .. . ... : ... .. . ... ...
ROW 48 : F-1 08 E ... ... ... : D-2 08 F ... ... ... : F-3 01 . ... : C-# 06 . ... : D-4 00 . Z40 ...
ROW 49 : ... .. . ... ... ... : ... .. . ... ... ... : A#1 02 . ... : ... .. . ... : ... .. . ... ...
ROW 4A : === .. . ... G02 ... : ... .. . ... ... ... : ... .. . ... : ... .. . ... : A#3 01 . ... ...
ROW 4B : F-2 07 2 ... G01 ... : A#2 07 3 ... ... ... : ... .. . S01 : ... .. . ... : ... .. . ... ...
ROW 4C : F-1 08 E ... ... ... : F-2 08 F ... ... ... : F-3 01 . ... : C-# 03 . ... : A#3 00 . Z40 ...
ROW 4D : ... .. . ... ... ... : ... .. . ... ... ... : A#1 02 . ... : ... .. . ... : ... .. . ... ...
ROW 4E : === .. . ... G02 ... : ... .. . ... ... ... : ... .. . ... : ... .. . ... : D-4 01 . ... ...
ROW 4F : A#2 07 2 ... G01 ... : D-2 07 3 ... ... ... : ... .. . S01 : ... .. . ... : ... .. . ... ...
ROW 50 : F-1 08 E ... ... ... : A#2 08 F ... ... ... : F-3 01 . ... : C-# 03 . ... : F-3 00 . Z40 ...
ROW 51 : ... .. . ... ... ... : ... .. . ... ... ... : A#1 02 . ... : ... .. . ... : ... .. . ... ...
ROW 52 : === .. . ... G02 ... : ... .. . ... ... ... : ... .. . ... : ... .. . ... : A#3 01 . ... ...
ROW 53 : D-2 07 2 ... G01 ... : F-2 07 3 ... ... ... : ... .. . S01 : ... .. . ... : ... .. . ... ...
ROW 54 : F-1 08 E ... ... ... : D-3 08 F ... ... ... : G-3 00 . ... : 8-# 04 . ... : D-3 00 . Z30 ...
ROW 55 : ... .. . ... ... ... : ... .. . ... ... ... : F-3 02 . ... : ... .. . ... : ... .. . ... ...
ROW 56 : === .. . ... G02 ... : ... .. . ... ... ... : ... .. . ... : ... .. . ... : F-3 01 . ... ...
ROW 57 : F-2 07 2 ... G01 ... : A#2 07 3 ... ... ... : ... .. . S01 : ... .. . ... : ... .. . ... ...
ROW 58 : D#1 08 E ... ... ... : A#2 08 F ... ... ... : G-3 00 . ... : 8-# 04 . ... : F-3 00 . Z30 ...
ROW 59 : ... .. . ... ... ... : ... .. . ... ... ... : D-3 02 . ... : ... .. . ... : ... .. . ... ...
ROW 5A : === .. . ... G02 ... : ... .. . ... ... ... : ... .. . ... : ... .. . ... : D-3 01 . ... ...
ROW 5B : A#2 07 2 ... G01 ... : D-3 07 3 ... ... ... : ... .. . S01 : ... .. . ... : ... .. . ... ...
ROW 5C : D-1 08 E ... ... ... : F-2 08 F ... ... ... : G-3 00 . ... : 8-# 04 . ... : A#3 00 . Z30 ...
ROW 5D : ... .. . ... ... ... : ... .. . ... ... ... : A#2 02 . ... : ... .. . ... : ... .. . ... ...
ROW 5E : === .. . ... G02 ... : ... .. . ... ... ... : ... .. . ... : ... .. . ... : F-3 01 . ... ...
ROW 5F : F-2 07 2 ... G01 ... : A#2 07 3 ... ... ... : ... .. . S01 : ... .. . ... : ... .. . ... ...

PATTERN 10
ROW 00 : --- .. . V02 ... P7F : D#2 08 F ... ... P81 : F-3 01 . ... : C-# 06 . ... : D#4 00 . Z40 ...
ROW 01 : ... .. . ... ... ... : ... .. . ... ... ... : D#2 02 . ... : ... .. . ... : ... .. . ... ...
ROW 02 : ... .. . ... ... ... : ... .. . ... ... ... : ... .. . ... : ... .. . ... : A#3 01 . ... ...
ROW 03 : ... .. . ... ... ... : F-2 07 3 V01 ... ... : ... .. . S01 : ... .. . ... : ... .. . ... ...
ROW 04 : ... .. . ... ... ... : D#3 08 E ... ... ... : D#2 02 . ... : C-# 03 . ... : A#3 00 . ... ...
ROW 05 : ... .. . ... ... ... : ... .. . ... ... ... : ... .. . ... : ... .. . ... : ... .. . ... ...
ROW 06 : ... .. . ... ... ... : ... .. . ... ... ... : ... .. . ... : ... .. . ... : D#4 01 . ... ...
ROW 07 : ... .. . ... ... ... : D#2 07 3 ... ... ... : ... .. . S01 : ... .. . ... : ... .. . ... ...
ROW 08 : ... .. . ... ... ... : D#2 08 F ... ... ... : D#2 02 . ... : C-# 03 . ... : F#3 00 . ... ...
ROW 09 : ... .. . ... ... ... : ... .. . ... ... ... : ... .. . ... : ... .. . ... : ... .. . ... ...
ROW 0A : ... .. . ... ... ... : ... .. . ... ... ... : ... .. . ... : ... .. . ... : A#3 01 . ... ...
ROW 0B : ... .. . ... ... ... : D#3 07 3 ... ... ... : ... .. . S01 : ... .. . ... : ... .. . ... ...
ROW 0C : D#3 09 F ... ... ... : B-2 08 F ... ... ... : G-3 00 . ... : 8-# 04 . ... : D#3 00 . Z30 ...
ROW 0D : ... .. . ... ... ... : ... .. . ... ... ... : D#3 02 . ... : ... .. . ... : ... .. . ... ...
ROW 0E : ... .. . ... ... ... : ... .. . ... ... ... : ... .. . ... : ... .. . ... : F#3 01 . ... ...
ROW 0F : ... .. . ... ... ... : D#2 07 3 ... ... ... : ... .. . S01 : ... .. . ... : ... .. . ... ...
ROW 10 : ... .. . ... ... ... : A#2 08 F ... ... ... : D#2 02 . ... : C-# 03 . ... : F#3 00 . ... ...
ROW 11 : ... .. . ... ... ... : ... .. . ... ... ... : ... .. . ... : ... .. . ... : ... .. . ... ...
ROW 12 : ... .. . ... ... ... : ... .. . ... ... ... : ... .. . ... : ... .. . ... : D#3 01 . ... ...
ROW 13 : ... .. . ... ... ... : B-2 07 3 ... ... ... : ... .. . S01 : ... .. . ... : ... .. . ... ...
ROW 14 : ... .. . ... ... ... : F#2 08 F ... ... ... : D#2 02 . ... : C-# 03 . ... : A#3 00 . ... ...
ROW 15 : ... .. . ... ... ... : ... .. . ... ... ... : ... .. . ... : ... .. . ... : ... .. . ... ...
ROW 16 : D#3 07 4 ... ... ... : ... .. . ... ... ... : ... .. . ... : ... .. . ... : F#3 01 . ... ...
ROW 17 : ... .. 3 ... ... ... : A#2 07 3 ... ... ... : ... .. . S01 : ... .. . ... : ... .. . ... ...
ROW 18 : A#3 09 F ... ... ... : D#2 08 F ... ... ... : F-3 01 . ... : C-# 06 . ... : D#4 00 . Z40 ...
ROW 19 : ... .. . ... ... ... : ... .. . ... ... ... : D#2 02 . ... : ... .. . ... : ... .. . ... ...
ROW 1A : ... .. . ... ... ... : ... .. . ... ... ... : ... .. . ... : ... .. . ... : A#3 01 . ... ...
ROW 1B : ... .. . ... ... ... : F#2 07 3 ... ... ... : ... .. . S01 : ... .. . ... : ... .. . ... ...
ROW 1C : ... .. . ... ... ... : D#3 08 E ... ... ... : D#2 02 . ... : C-# 03 . ... : A#3 00 . ... ...
ROW 1D : ... .. . ... ... ... : ... .. . ... ... ... : ... .. . ... : ... .. . ... : ... .. . ... ...
ROW 1E : ... .. . ... ... ... : ... .. . ... ... ... : ... .. . ... : ... .. . ... : D#4 01 . ... ...
ROW 1F : ... .. . ... ... ... : D#2 07 3 ... ... ... : ... .. . S01 : ... .. . ... : ... .. . ... ...
ROW 20 : ... .. . ... ... ... : D#2 08 F ... ... ... : D#2 02 . ... : C-# 03 . ... : F#3 00 . ... ...
ROW 21 : ... .. . ... ... ... : ... .. . ... ... ... : ... .. . ... : ... .. . ... : ... .. . ... ...
ROW 22 : D#3 07 4 ... ... ... : ... .. . ... ... ... : ... .. . ... : ... .. . ... : A#3 01 . ... ...
ROW 23 : ... .. 3 ... ... ... : D#3 07 3 ... ... ... : ... .. . S01 : ... .. . ... : ... .. . ... ...
ROW 24 : G#3 09 F ... ... ... : B-2 08 F ... ... ... : G-3 00 . ... : 8-# 04 . ... : D#3 00 . Z30 ...
ROW 25 : ... .. . ... ... ... : ... .. . ... ... ... : D#3 02 . ... : ... .. . ... : ... .. . ... ...
ROW 26 : ... .. . ... ... ... : ... .. . ... ... ... : ... .. . ... : ... .. . ... : F#3 01 . ... ...
ROW 27 : ... .. . ... ... ... : D#2 07 3 ... ... ... : ... .. . S01 : ... .. . ... : ... .. . ... ...
ROW 28 : ... .. . ... ... ... : A#2 08 F ... ... ... : D#2 02 . ... : C-# 03 . ... : F#3 00 . ... ...
ROW 29 : ... .. . ... ... ... : ... .. . ... ... ... : ... .. . ... : ... .. . ... : ... .. . ... ...
ROW 2A : ... .. . ... ... ... : ... .. . ... ... ... : ... .. . ... : ... .. . ... : D#3 01 . ... ...
ROW 2B : ... .. . ... ... ... : B-2 07 3 ... ... ... : ... .. . S01 : ... .. . ... : ... .. . ... ...
ROW 2C : ... .. . ... ... ... : F#2 08 F ... ... ... : D#2 02 . ... : C-# 03 . ... : A#3 00 . ... ...
ROW 2D : ... .. . ... ... ... : ... .. . ... ... ... : ... .. . ... : ... .. . ... : ... .. . ... ...
ROW 2E : A#3 07 4 ... ... ... : ... .. . ... ... ... : ... .. . ... : ... .. . ... : F#3 01 . ... ...
ROW 2F : ... .. 3 ... ... ... : A#2 07 3 ... ... ... : ... .. . S01 : ... .. . ... : ... .. . ... ...
ROW 30 : F-3 09 F ... ... ... : D-2 08 F ... ... ... : F-3 01 . ... : C-# 06 . ... : F-4 00 . Z40 ...
ROW 31 : ... .. . ... ... ... : ... .. . ... ... ... : D-2 02 . ... : ... .. . ... : ... .. . ... ...
ROW 32 : ... .. . ... ... ... : ... .. . ... ... ... : ... .. . ... : ... .. . ... : A#3 01 . ... ...
ROW 33 : ... .. . ... ... ... : F#2 07 3 ... ... ... : ... .. . S01 : ... .. . ... : ... .. . ... ...
ROW 34 : ... .. . ... ... ... : F-3 08 E ... ... ... : D-2 02 . ... : C-# 03 . ... : D-4 00 . ... ...
ROW 35 : ... .. . ... ... ... : ... .. . ... ... ... : ... .. . ... : ... .. . ... : ... .. . ... ...
ROW 36 : ... .. . ... ... ... : ... .. . ... ... ... : ... .. . ... : ... .. . ... : F-4 01 . ... ...
ROW 37 : ... .. . ... ... ... : D-2 07 3 ... ... ... : ... .. . S01 : ... .. . ... : ... .. . ... ...
ROW 38 : ... .. . ... ... ... : D-2 08 F ... ... ... : D-2 02 . ... : C-# 03 . ... : A#3 00 . ... ...
ROW 39 : ... .. . ... ... ... : ... .. . ... ... ... : ... .. . ... : ... .. . ... : ... .. . ... ...
ROW 3A : ... .. . ... ... ... : ... .. . ... ... ... : ... .. . ... : ... .. . ... : D-4 01 . ... ...
ROW 3B : ... .. . ... ... ... : F-3 07 3 ... ... ... : ... .. . S01 : ... .. . ... : ... .. . ... ...
ROW 3C : ... .. . ... ... ... : B-2 08 F ... ... ... : G-3 00 . ... : 8-# 04 . ... : D-3 00 . Z30 ...
ROW 3D : ... .. . ... ... ... : ... .. . ... ... ... : D-3 02 . ... : ... .. . ... : ... .. . ... ...
ROW 3E : ... .. . ... ... ... : ... .. . ... ... ... : ... .. . ... : ... .. . ... : A#3 01 . ... ...
ROW 3F : ... .. . ... ... ... : D-2 07 3 ... ... ... : ... .. . S01 : ... .. . ... : ... .. . ... ...
ROW 40 : ... .. . ... ... ... : A#2 08 F ... ... ... : D-2 02 . ... : C-# 03 . ... : F-3 00 . ... ...
ROW 41 : ... .. . ... ... ... : ... .. . ... ... ... : ... .. . ... : ... .. . ... : ... .. . ... ...
ROW 42 : ... .. . ... ... ... : ... .. . ... ... ... : ... .. . ... : ... .. . ... : D-3 01 . ... ...
ROW 43 : ... .. . ... ... ... : B-2 07 3 ... ... ... : ... .. . S01 : ... .. . ... : ... .. . ... ...
ROW 44 : ... .. . ... ... ... : F-2 08 F ... ... ... : D-2 02 . ... : C-# 03 . ... : A#3 00 . ... ...
ROW 45 : ... .. . ... ... ... : ... .. . ... ... ... : ... .. . ... : ... .. . ... : ... .. . ... ...
ROW 46 : G#3 07 4 ... ... ... : ... .. . ... ... ... : ... .. . ... : ... .. . ... : F-3 01 . ... ...
ROW 47 : ... .. 3 ... ... ... : A#2 07 3 ... ... ... : ... .. . S01 : ... .. . ... : ... .. . ... ...
ROW 48 : F#3 09 F ... ... ... : D-2 08 F ... ... ... : F-3 01 . ... : C-# 06 . ... : F-4 00 . Z40 ...
ROW 49 : ... .. . ... ... ... : ... .. . ... ... ... : D-2 02 . ... : ... .. . ... : ... .. . ... ...
ROW 4A : ... .. . ... ... ... : ... .. . ... ... ... : ... .. . ... : ... .. . ... : A#3 01 . ... ...
ROW 4B : ... .. . ... ... ... : F-2 07 3 ... ... ... : ... .. . S01 : ... .. . ... : ... .. . ... ...
ROW 4C : ... .. . ... ... ... : F-3 08 E ... ... ... : D-2 02 . ... : C-# 03 . ... : D-4 00 . ... ...
ROW 4D : ... .. . ... ... ... : ... .. . ... ... ... : ... .. . ... : ... .. . ... : ... .. . ... ...
ROW 4E : ... .. . ... ... ... : ... .. . ... ... ... : ... .. . ... : ... .. . ... : F-4 01 . ... ...
ROW 4F : ... .. . ... ... ... : D-2 07 3 ... ... ... : ... .. . S01 : ... .. . ... : ... .. . ... ...
ROW 50 : ... .. . ... ... ... : D-2 08 F ... ... ... : D-2 02 . ... : C-# 03 . ... : A#3 00 . ... ...
ROW 51 : ... .. . ... ... ... : ... .. . ... ... ... : ... .. . ... : ... .. . ... : ... .. . ... ...
ROW 52 : F-3 07 4 ... ... ... : ... .. . ... ... ... : ... .. . ... : ... .. . ... : D-4 01 . ... ...
ROW 53 : ... .. 3 ... ... ... : F-3 07 3 ... ... ... : ... .. . S01 : ... .. . ... : ... .. . ... ...
ROW 54 : G#3 09 F ... ... ... : B-2 08 F ... ... ... : G-3 00 . ... : 8-# 04 . ... : D-3 00 . Z30 ...
ROW 55 : ... .. . ... ... ... : ... .. . ... ... ... : D-3 02 . ... : ... .. . ... : ... .. . ... ...
ROW 56 : ... .. . ... ... ... : ... .. . ... ... ... : ... .. . ... : ... .. . ... : A#3 01 . ... ...
ROW 57 : ... .. . ... ... ... : D-2 07 3 ... ... ... : ... .. . S01 : ... .. . ... : ... .. . ... ...
ROW 58 : ... .. . ... ... ... : A#2 08 F ... ... ... : F-3 01 . ... : C-# 06 . ... : F-3 00 . Z40 ...
ROW 59 : ... .. . ... ... ... : ... .. . ... ... ... : D-2 02 . ... : ... .. . ... : ... .. . ... ...
ROW 5A : ... .. . ... ... ... : ... .. . ... ... ... : ... .. . ... : ... .. . ... : D-3 01 . ... ...
ROW 5B : ... .. . ... ... ... : B-2 07 3 ... ... ... : ... .. . S01 : ... .. . ... : ... .. . ... ...
ROW 5C : ... .. . ... ... ... : F-2 08 F ... ... ... : F-3 01 . ... : C-# 06 . ... : A#3 00 . Z40 ...
ROW 5D : ... .. . ... ... ... : ... .. . ... ... ... : D-2 02 . ... : ... .. . ... : ... .. . ... ...
ROW 5E : F#3 07 4 ... ... ... : ... .. . ... ... ... : ... .. . ... : ... .. . ... : F-3 01 . ... ...
ROW 5F : ... .. 3 ... ... ... : A#2 07 3 ... ... ... : ... .. . S01 : ... .. . ... : ... .. . ... ...

PATTERN 11
ROW 00 : F#3 09 F V02 ... P7F : D#2 08 F ... ... P81 : F-3 01 . ... : C-# 06 . ... : F#4 00 . Z40 ...
ROW 01 : ... .. . ... ... ... : ... .. . ... ... ... : D#2 02 . ... : ... .. . ... : ... .. . ... ...
ROW 02 : ... .. . ... ... ... : ... .. . ... ... ... : ... .. . ... : ... .. . ... : A#3 01 . ... ...
ROW 03 : ... .. . ... ... ... : F-2 07 3 V01 ... ... : ... .. . S01 : ... .. . ... : ... .. . ... ...
ROW 04 : ... .. . ... ... ... : F#3 08 E ... ... ... : D#2 02 . ... : C-# 03 . ... : D#4 00 . ... ...
ROW 05 : ... .. . ... ... ... : ... .. . ... ... ... : ... .. . ... : ... .. . ... : ... .. . ... ...
ROW 06 : ... .. . ... ... ... : ... .. . ... ... ... : ... .. . ... : ... .. . ... : F#4 01 . ... ...
ROW 07 : ... .. . ... ... ... : D#2 07 3 ... ... ... : ... .. . S01 : ... .. . ... : ... .. . ... ...
ROW 08 : ... .. . ... ... ... : D#2 08 F ... ... ... : D#2 02 . ... : C-# 03 . ... : A#3 00 . ... ...
ROW 09 : ... .. . ... ... ... : ... .. . ... ... ... : ... .. . ... : ... .. . ... : ... .. . ... ...
ROW 0A : ... .. . ... ... ... : ... .. . ... ... ... : ... .. . ... : ... .. . ... : D#4 01 . ... ...
ROW 0B : ... .. . ... ... ... : F#3 07 3 ... ... ... : ... .. . S01 : ... .. . ... : ... .. . ... ...
ROW 0C : ... .. E ... ... ... : B-2 08 F ... ... ... : G-3 00 . ... : 8-# 04 . ... : D#3 00 . Z30 ...
ROW 0D : ... .. . ... ... ... : ... .. . ... ... ... : D#3 02 . ... : ... .. . ... : ... .. . ... ...
ROW 0E : ... .. . ... ... ... : ... .. . ... ... ... : ... .. . ... : ... .. . ... : A#3 01 . ... ...
ROW 0F : ... .. . ... ... ... : D#2 07 3 ... ... ... : ... .. . S01 : ... .. . ... : ... .. . ... ...
ROW 10 : ... .. . ... ... ... : A#2 08 F ... ... ... : D#2 02 . ... : C-# 03 . ... : F#3 00 . ... ...
ROW 11 : ... .. . ... ... ... : ... .. . ... ... ... : ... .. . ... : ... .. . ... : ... .. . ... ...
ROW 12 : ... .. . ... ... ... : ... .. . ... ... ... : ... .. . ... : ... .. . ... : D#3 01 . ... ...
ROW 13 : ... .. . ... ... ... : B-2 07 3 ... ... ... : ... .. . S01 : ... .. . ... : ... .. . ... ...
ROW 14 : ... .. C ... ... ... : F#2 08 F ... ... ... : D#2 02 . ... : C-# 03 . ... : A#3 00 . ... ...
ROW 15 : ... .. . ... ... ... : ... .. . ... ... ... : ... .. . ... : ... .. . ... : ... .. . ... ...
ROW 16 : ... .. . ... ... ... : ... .. . ... ... ... : ... .. . ... : ... .. . ... : F#3 01 . ... ...
ROW 17 : ... .. . ... ... ... : A#2 07 3 ... ... ... : ... .. . S01 : ... .. . ... : ... .. . ... ...
ROW 18 : ... .. . ... ... ... : D#2 08 F ... ... ... : F-3 01 . ... : C-# 06 . ... : F#4 00 . Z40 ...
ROW 19 : ... .. . ... ... ... : ... .. . ... ... ... : D#2 02 . ... : ... .. . ... : ... .. . ... ...
ROW 1A : ... .. . ... ... ... : ... .. . ... ... ... : ... .. . ... : ... .. . ... : A#3 01 . ... ...
ROW 1B : ... .. . ... ... ... : F#2 07 3 ... ... ... : ... .. . S01 : ... .. . ... : ... .. . ... ...
ROW 1C : ... .. 8 ... ... ... : F#3 08 E ... ... ... : D#2 02 . ... : C-# 03 . ... : D#4 00 . ... ...
ROW 1D : ... .. . ... ... ... : ... .. . ... ... ... : ... .. . ... : ... .. . ... : ... .. . ... ...
ROW 1E : ... .. . ... ... ... : ... .. . ... ... ... : ... .. . ... : ... .. . ... : F#4 01 . ... ...
ROW 1F : ... .. . ... ... ... : D#2 07 3 ... ... ... : ... .. . S01 : ... .. . ... : ... .. . ... ...
ROW 20 : ... .. . ... ... ... : D#2 08 F ... ... ... : D#2 02 . ... : C-# 03 . ... : A#3 00 . ... ...
ROW 21 : ... .. . ... ... ... : ... .. . ... ... ... : ... .. . ... : ... .. . ... : ... .. . ... ...
ROW 22 : ... .. . ... ... ... : ... .. . ... ... ... : ... .. . ... : ... .. . ... : D#4 01 . ... ...
ROW 23 : ... .. . ... ... ... : F#3 07 3 ... ... ... : ... .. . S01 : ... .. . ... : ... .. . ... ...
ROW 24 : ... .. 7 ... ... ... : B-2 08 F ... ... ... : G-3 00 . ... : 8-# 04 . ... : D#3 00 . Z30 ...
ROW 25 : ... .. . ... ... ... : ... .. . ... ... ... : D#3 02 . ... : ... .. . ... : ... .. . ... ...
ROW 26 : ... .. . ... ... ... : ... .. . ... ... ... : ... .. . ... : ... .. . ... : A#3 01 . ... ...
ROW 27 : ... .. . ... ... ... : D#2 07 3 ... ... ... : ... .. . S01 : ... .. . ... : ... .. . ... ...
ROW 28 : F-3 09 F ... ... ... : A#2 08 F ... ... ... : D#2 02 . ... : C-# 03 . ... : F#3 00 . ... ...
ROW 29 : ... .. . ... ... ... : ... .. . ... ... ... : ... .. . ... : ... .. . ... : ... .. . ... ...
ROW 2A : ... .. . ... ... ... : ... .. . ... ... ... : ... .. . ... : ... .. . ... : D#3 01 . ... ...
ROW 2B : F#3 07 3 ... ... ... : B-2 07 3 ... ... ... : ... .. . S01 : ... .. . ... : ... .. . ... ...
ROW 2C : D#3 09 F ... ... ... : F#2 08 F ... ... ... : D#2 02 . ... : C-# 03 . ... : A#3 00 . ... ...
ROW 2D : ... .. . ... ... ... : ... .. . ... ... ... : ... .. . ... : ... .. . ... : ... .. . ... ...
ROW 2E : ... .. . ... ... ... : ... .. . ... ... ... : ... .. . ... : ... .. . ... : F#3 01 . ... ...
ROW 2F : F-3 07 3 ... ... ... : A#2 07 3 ... ... ... : ... .. . S01 : ... .. . ... : ... .. . ... ...
ROW 30 : F#3 09 F ... ... ... : D-2 08 F ... ... ... : F-3 01 . ... : C-# 06 . ... : F-4 00 . Z40 ...
ROW 31 : ... .. . ... ... ... : ... .. . ... ... ... : D-2 02 . ... : ... .. . ... : ... .. . ... ...
ROW 32 : ... .. . ... ... ... : ... .. . ... ... ... : ... .. . ... : ... .. . ... : A#3 01 . ... ...
ROW 33 : D#3 07 3 ... ... ... : F#2 07 3 ... ... ... : ... .. . S01 : ... .. . ... : ... .. . ... ...
ROW 34 : F-3 09 F ... ... ... : F-3 08 E ... ... ... : D-2 02 . ... : C-# 03 . ... : D-4 00 . ... ...
ROW 35 : ... .. . ... ... ... : ... .. . ... ... ... : ... .. . ... : ... .. . ... : ... .. . ... ...
ROW 36 : ... .. . ... ... ... : ... .. . ... ... ... : ... .. . ... : ... .. . ... : F-4 01 . ... ...
ROW 37 : F#3 07 3 ... ... ... : D-2 07 3 ... ... ... : ... .. . S01 : ... .. . ... : ... .. . ... ...
ROW 38 : D-3 09 F ... ... ... : D-2 08 F ... ... ... : D-2 02 . ... : C-# 03 . ... : A#3 00 . ... ...
ROW 39 : ... .. . ... ... ... : ... .. . ... ... ... : ... .. . ... : ... .. . ... : ... .. . ... ...
ROW 3A : ... .. . ... ... ... : ... .. . ... ... ... : ... .. . ... : ... .. . ... : D-4 01 . ... ...
ROW 3B : ... .. . ... ... ... : F-3 07 3 ... ... ... : ... .. . S01 : ... .. . ... : ... .. . ... ...
ROW 3C : ... .. . ... ... ... : B-2 08 F ... ... ... : G-3 00 . ... : 8-# 04 . ... : D-3 00 . Z30 ...
ROW 3D : ... .. . ... ... ... : ... .. . ... ... ... : D-3 02 . ... : ... .. . ... : ... .. . ... ...
ROW 3E : ... .. . ... ... ... : ... .. . ... ... ... : ... .. . ... : ... .. . ... : A#3 01 . ... ...
ROW 3F : ... .. . ... ... ... : D-2 07 3 ... ... ... : ... .. . S01 : ... .. . ... : ... .. . ... ...
ROW 40 : ... .. . ... ... ... : A#2 08 F ... ... ... : D-2 02 . ... : C-# 03 . ... : F-3 00 . ... ...
ROW 41 : ... .. . ... ... ... : ... .. . ... ... ... : ... .. . ... : ... .. . ... : ... .. . ... ...
ROW 42 : ... .. . ... ... ... : ... .. . ... ... ... : ... .. . ... : ... .. . ... : D-3 01 . ... ...
ROW 43 : ... .. . ... ... ... : B-2 07 3 ... ... ... : ... .. . S01 : ... .. . ... : ... .. . ... ...
ROW 44 : ... .. . ... ... ... : F-2 08 F ... ... ... : D-2 02 . ... : C-# 03 . ... : A#3 00 . ... ...
ROW 45 : ... .. . ... ... ... : ... .. . ... ... ... : ... .. . ... : ... .. . ... : ... .. . ... ...
ROW 46 : ... .. . ... ... ... : ... .. . ... ... ... : ... .. . ... : ... .. . ... : F-3 01 . ... ...
ROW 47 : ... .. . ... ... ... : A#2 07 3 ... ... ... : ... .. . S01 : ... .. . ... : ... .. . ... ...
ROW 48 : F#3 09 F ... ... ... : D-2 08 F ... ... ... : F-3 01 . ... : C-# 06 . ... : F-4 00 . Z40 ...
ROW 49 : ... .. . ... ... ... : ... .. . ... ... ... : D-2 02 . ... : ... .. . ... : ... .. . ... ...
ROW 4A : ... .. . ... ... ... : ... .. . ... ... ... : ... .. . ... : ... .. . ... : A#3 01 . ... ...
ROW 4B : ... .. . ... ... ... : F-2 07 3 ... ... ... : ... .. . S01 : ... .. . ... : ... .. . ... ...
ROW 4C : ... .. . ... ... ... : F-3 08 E ... ... ... : D-2 02 . ... : C-# 03 . ... : D-4 00 . ... ...
ROW 4D : ... .. . ... ... ... : ... .. . ... ... ... : ... .. . ... : ... .. . ... : ... .. . ... ...
ROW 4E : ... .. . ... ... ... : ... .. . ... ... ... : ... .. . ... : ... .. . ... : F-4 01 . ... ...
ROW 4F : ... .. . ... ... ... : D-2 07 3 ... ... ... : ... .. . S01 : ... .. . ... : ... .. . ... ...
ROW 50 : ... .. . ... ... ... : D-2 08 F ... ... ... : D-2 02 . ... : C-# 03 . ... : A#3 00 . ... ...
ROW 51 : ... .. . ... ... ... : ... .. . ... ... ... : ... .. . ... : ... .. . ... : ... .. . ... ...
ROW 52 : D-3 07 4 ... ... ... : ... .. . ... ... ... : ... .. . ... : ... .. . ... : D-4 01 . ... ...
ROW 53 : ... .. 3 ... ... ... : F-3 07 3 ... ... ... : ... .. . S01 : ... .. . ... : ... .. . ... ...
ROW 54 : F-3 09 F ... ... ... : B-2 08 F ... ... ... : G-3 00 . ... : 8-# 04 . ... : D-3 00 . Z30 ...
ROW 55 : ... .. . ... ... ... : ... .. . ... ... ... : D-3 02 . ... : ... .. . ... : ... .. . ... ...
ROW 56 : ... .. . ... ... ... : ... .. . ... ... ... : ... .. . ... : ... .. . ... : A#3 01 . ... ...
ROW 57 : ... .. . ... ... ... : D-2 07 3 ... ... ... : ... .. . S01 : ... .. . ... : ... .. . ... ...
ROW 58 : ... .. . ... ... ... : A#2 08 F ... ... ... : F-3 01 . ... : C-# 06 . ... : F-3 00 . Z40 ...
ROW 59 : ... .. . ... ... ... : ... .. . ... ... ... : D-2 02 . ... : ... .. . ... : ... .. . ... ...
ROW 5A : ... .. . ... ... ... : ... .. . ... ... ... : ... .. . ... : ... .. . ... : D-3 01 . ... ...
ROW 5B : ... .. . ... ... ... : B-2 07 3 ... ... ... : ... .. . S01 : ... .. . ... : ... .. . ... ...
ROW 5C : ... .. . ... ... ... : F-2 08 F ... ... ... : G-3 00 . ... : 8-# 04 . ... : A#3 00 . Z30 ...
ROW 5D : ... .. . ... ... ... : ... .. . ... ... ... : D-2 02 . ... : ... .. . ... : ... .. . ... ...
ROW 5E : F#3 07 4 ... ... ... : ... .. . ... ... ... : ... .. . ... : ... .. . ... : F-3 01 . ... ...
ROW 5F : ... .. 3 ... ... ... : A#2 07 3 ... ... ... : ... .. . S01 : ... .. . ... : ... .. . ... ...

PATTERN 12
ROW 00 : D#3 09 F V02 ... P7F : D#2 08 F ... ... P81 : F-3 01 . ... : C-# 06 . ... : D#4 00 . Z40 ...
ROW 01 : ... .. . ... ... ... : ... .. . ... ... ... : D#2 02 . ... : ... .. . ... : ... .. . ... ...
ROW 02 : ... .. . ... ... ... : ... .. . ... ... ... : ... .. . ... : ... .. . ... : A#3 01 . ... ...
ROW 03 : ... .. . ... ... ... : D#3 07 3 V01 ... ... : ... .. . S01 : ... .. . ... : ... .. . ... ...
ROW 04 : ... .. . ... ... ... : D#3 08 E ... ... ... : D#2 02 . ... : C-# 03 . ... : A#3 00 . ... ...
ROW 05 : ... .. . ... ... ... : ... .. . ... ... ... : ... .. . ... : ... .. . ... : ... .. . ... ...
ROW 06 : ... .. . ... ... ... : ... .. . ... ... ... : ... .. . ... : ... .. . ... : D#4 01 . ... ...
ROW 07 : ... .. . ... ... ... : D#2 07 3 ... ... ... : ... .. . S01 : ... .. . ... : ... .. . ... ...
ROW 08 : ... .. . ... ... ... : D#2 08 F ... ... ... : D#2 02 . ... : C-# 03 . ... : F#3 00 . ... ...
ROW 09 : ... .. . ... ... ... : ... .. . ... ... ... : ... .. . ... : ... .. . ... : ... .. . ... ...
ROW 0A : F-3 07 4 ... ... ... : ... .. . ... ... ... : ... .. . ... : ... .. . ... : A#3 01 . ... ...
ROW 0B : ... .. 3 ... ... ... : D#3 07 3 ... ... ... : ... .. . S01 : ... .. . ... : ... .. . ... ...
ROW 0C : D#3 09 F ... ... ... : B-2 08 F ... ... ... : G-3 00 . ... : 8-# 04 . ... : D#3 00 . Z30 ...
ROW 0D : ... .. . ... ... ... : ... .. . ... ... ... : D#3 02 . ... : ... .. . ... : ... .. . ... ...
ROW 0E : ... .. . ... ... ... : ... .. . ... ... ... : ... .. . ... : ... .. . ... : F#3 01 . ... ...
ROW 0F : ... .. . ... ... ... : D#2 07 3 ... ... ... : ... .. . S01 : ... .. . ... : ... .. . ... ...
ROW 10 : ... .. . ... ... ... : A#2 08 F ... ... ... : D#2 02 . ... : C-# 03 . ... : F#3 00 . ... ...
ROW 11 : ... .. . ... ... ... : ... .. . ... ... ... : ... .. . ... : ... .. . ... : ... .. . ... ...
ROW 12 : ... .. . ... ... ... : ... .. . ... ... ... : ... .. . ... : ... .. . ... : D#3 01 . ... ...
ROW 13 : ... .. . ... ... ... : B-2 07 3 ... ... ... : ... .. . S01 : ... .. . ... : ... .. . ... ...
ROW 14 : ... .. . ... ... ... : F#2 08 F ... ... ... : D#2 02 . ... : C-# 03 . ... : A#3 00 . ... ...
ROW 15 : ... .. . ... ... ... : ... .. . ... ... ... : ... .. . ... : ... .. . ... : ... .. . ... ...
ROW 16 : D#3 07 4 ... ... ... : ... .. . ... ... ... : ... .. . ... : ... .. . ... : F#3 01 . ... ...
ROW 17 : ... .. 3 ... ... ... : A#2 07 3 ... ... ... : ... .. . S01 : ... .. . ... : ... .. . ... ...
ROW 18 : F-3 09 F ... ... ... : D#2 08 F ... ... ... : F-3 01 . ... : C-# 06 . ... : D#4 00 . Z40 ...
ROW 19 : ... .. . ... ... ... : ... .. . ... ... ... : D#2 02 . ... : ... .. . ... : ... .. . ... ...
ROW 1A : ... .. . ... ... ... : ... .. . ... ... ... : ... .. . ... : ... .. . ... : A#3 01 . ... ...
ROW 1B : ... .. . ... ... ... : F#2 07 3 ... ... ... : ... .. . S01 : ... .. . ... : ... .. . ... ...
ROW 1C : ... .. . ... ... ... : D#3 08 E ... ... ... : D#2 02 . ... : C-# 03 . ... : A#3 00 . ... ...
ROW 1D : ... .. . ... ... ... : ... .. . ... ... ... : ... .. . ... : ... .. . ... : ... .. . ... ...
ROW 1E : ... .. . ... ... ... : ... .. . ... ... ... : ... .. . ... : ... .. . ... : D#4 01 . ... ...
ROW 1F : ... .. . ... ... ... : D#2 07 3 ... ... ... : ... .. . S01 : ... .. . ... : ... .. . ... ...
ROW 20 : ... .. . ... ... ... : D#2 08 F ... ... ... : D#2 02 . ... : C-# 03 . ... : F#3 00 . ... ...
ROW 21 : ... .. . ... ... ... : ... .. . ... ... ... : ... .. . ... : ... .. . ... : ... .. . ... ...
ROW 22 : D#3 07 4 ... ... ... : ... .. . ... ... ... : ... .. . ... : ... .. . ... : A#3 01 . ... ...
ROW 23 : ... .. 3 ... ... ... : D#3 07 3 ... ... ... : ... .. . S01 : ... .. . ... : ... .. . ... ...
ROW 24 : F#3 09 F ... ... ... : B-2 08 F ... ... ... : G-3 00 . ... : 8-# 04 . ... : D#3 00 . Z30 ...
ROW 25 : ... .. . ... ... ... : ... .. . ... ... ... : D#3 02 . ... : ... .. . ... : ... .. . ... ...
ROW 26 : ... .. . ... ... ... : ... .. . ... ... ... : ... .. . ... : ... .. . ... : F#3 01 . ... ...
ROW 27 : ... .. . ... ... ... : D#2 07 3 ... ... ... : ... .. . S01 : ... .. . ... : ... .. . ... ...
ROW 28 : ... .. . ... ... ... : A#2 08 F ... ... ... : D#2 02 . ... : C-# 03 . ... : F#3 00 . ... ...
ROW 29 : ... .. . ... ... ... : ... .. . ... ... ... : ... .. . ... : ... .. . ... : ... .. . ... ...
ROW 2A : ... .. . ... ... ... : ... .. . ... ... ... : ... .. . ... : ... .. . ... : D#3 01 . ... ...
ROW 2B : ... .. . ... ... ... : B-2 07 3 ... ... ... : ... .. . S01 : ... .. . ... : ... .. . ... ...
ROW 2C : ... .. . ... ... ... : F#2 08 F ... ... ... : D#2 02 . ... : C-# 03 . ... : A#3 00 . ... ...
ROW 2D : ... .. . ... ... ... : ... .. . ... ... ... : ... .. . ... : ... .. . ... : ... .. . ... ...
ROW 2E : F-3 07 4 ... ... ... : ... .. . ... ... ... : ... .. . ... : ... .. . ... : F#3 01 . ... ...
ROW 2F : ... .. 3 ... ... ... : A#2 07 3 ... ... ... : ... .. . S01 : ... .. . ... : ... .. . ... ...
ROW 30 : D#3 09 F ... Q13 ... : C#2 08 F ... ... ... : F-3 01 . ... : C-# 06 . ... : C#4 00 . Z40 ...
ROW 31 : ... .. . ... ... ... : ... .. . ... ... ... : C#2 02 . ... : ... .. . ... : ... .. . ... ...
ROW 32 : ... .. . ... ... ... : ... .. . ... ... ... : ... .. . ... : ... .. . ... : A#3 01 . ... ...
ROW 33 : ... .. . ... ... ... : F#2 07 3 ... ... ... : ... .. . S01 : ... .. . ... : ... .. . ... ...
ROW 34 : ... .. . ... ... ... : C#3 08 F ... ... ... : C#2 02 . ... : C-# 03 . ... : G#3 00 . ... ...
ROW 35 : ... .. . ... ... ... : ... .. . ... ... ... : ... .. . ... : ... .. . ... : ... .. . ... ...
ROW 36 : ... .. . ... ... ... : ... .. . ... ... ... : ... .. . ... : ... .. . ... : C#4 01 . ... ...
ROW 37 : ... .. . ... ... ... : C#2 07 3 ... ... ... : ... .. . S01 : ... .. . ... : ... .. . ... ...
ROW 38 : ... .. . ... ... ... : C#2 08 F ... ... ... : C#2 02 . ... : C-# 03 . ... : F-3 00 . ... ...
ROW 39 : ... .. . ... ... ... : ... .. . ... ... ... : ... .. . ... : ... .. . ... : ... .. . ... ...
ROW 3A : ... .. . ... ... ... : ... .. . ... ... ... : ... .. . ... : ... .. . ... : G#3 01 . ... ...
ROW 3B : ... .. . ... ... ... : C#3 07 3 ... ... ... : ... .. . S01 : ... .. . ... : ... .. . ... ...
ROW 3C : ... .. . ... ... ... : G#2 08 F ... ... ... : G-3 00 . ... : 8-# 04 . ... : C#3 00 . Z30 ...
ROW 3D : ... .. . ... ... ... : ... .. . ... ... ... : C#3 02 . ... : ... .. . ... : ... .. . ... ...
ROW 3E : ... .. . ... ... ... : ... .. . ... ... ... : ... .. . ... : ... .. . ... : F-3 01 . ... ...
ROW 3F : ... .. . ... ... ... : C#2 07 3 ... ... ... : ... .. . S01 : ... .. . ... : ... .. . ... ...
ROW 40 : ... .. . ... ... ... : F-2 08 F ... ... ... : C#2 02 . ... : C-# 03 . ... : F-3 00 . ... ...
ROW 41 : ... .. . ... ... ... : ... .. . ... ... ... : ... .. . ... : ... .. . ... : ... .. . ... ...
ROW 42 : ... .. . ... ... ... : ... .. . ... ... ... : ... .. . ... : ... .. . ... : C#3 01 . ... ...
ROW 43 : ... .. . ... ... ... : G#2 07 3 ... ... ... : ... .. . S01 : ... .. . ... : ... .. . ... ...
ROW 44 : ... .. . ... ... ... : C#2 08 F ... ... ... : C#2 02 . ... : C-# 03 . ... : G#3 00 . ... ...
ROW 45 : ... .. . ... ... ... : ... .. . ... ... ... : ... .. . ... : ... .. . ... : ... .. . ... ...
ROW 46 : F#3 07 4 ... ... ... : ... .. . ... ... ... : ... .. . ... : ... .. . ... : F-3 01 . ... ...
ROW 47 : ... .. 3 ... ... ... : F-2 07 3 ... ... ... : ... .. . S01 : ... .. . ... : ... .. . ... ...
ROW 48 : G#3 09 F ... ... ... : C#2 08 F ... ... ... : F-3 01 . ... : C-# 06 . ... : C#4 00 . Z40 ...
ROW 49 : ... .. . ... ... ... : ... .. . ... ... ... : C#2 02 . ... : ... .. . ... : ... .. . ... ...
ROW 4A : ... .. . ... ... ... : ... .. . ... ... ... : ... .. . ... : ... .. . ... : G#3 01 . ... ...
ROW 4B : ... .. . ... ... ... : C#2 07 3 ... ... ... : ... .. . S01 : ... .. . ... : ... .. . ... ...
ROW 4C : ... .. . ... ... ... : C#3 08 F ... ... ... : C#2 02 . ... : C-# 03 . ... : G#3 00 . ... ...
ROW 4D : ... .. . ... ... ... : ... .. . ... ... ... : ... .. . ... : ... .. . ... : ... .. . ... ...
ROW 4E : ... .. . ... ... ... : ... .. . ... ... ... : ... .. . ... : ... .. . ... : C#4 01 . ... ...
ROW 4F : ... .. . ... ... ... : C#2 07 3 ... ... ... : ... .. . S01 : ... .. . ... : ... .. . ... ...
ROW 50 : ... .. . ... ... ... : C#2 08 F ... ... ... : C#2 02 . ... : C-# 03 . ... : F-3 00 . ... ...
ROW 51 : ... .. . ... ... ... : ... .. . ... ... ... : ... .. . ... : ... .. . ... : ... .. . ... ...
ROW 52 : F#3 07 4 ... ... ... : ... .. . ... ... ... : ... .. . ... : ... .. . ... : G#3 01 . ... ...
ROW 53 : ... .. 3 ... ... ... : C#3 07 3 ... ... ... : ... .. . S01 : ... .. . ... : ... .. . ... ...
ROW 54 : A#3 09 F ... ... ... : G#2 08 F ... ... ... : G-3 00 . ... : 8-# 04 . ... : C#3 00 . Z30 ...
ROW 55 : ... .. . ... ... ... : ... .. . ... ... ... : C#3 02 . ... : ... .. . ... : ... .. . ... ...
ROW 56 : ... .. . ... ... ... : ... .. . ... ... ... : ... .. . ... : ... .. . ... : F-3 01 . ... ...
ROW 57 : ... .. . ... ... ... : C#2 07 3 ... ... ... : ... .. . S01 : ... .. . ... : ... .. . ... ...
ROW 58 : ... .. . ... ... ... : F-2 08 F ... ... ... : F-3 01 . ... : C-# 06 . ... : F-3 00 . Z40 ...
ROW 59 : ... .. . ... ... ... : ... .. . ... ... ... : C#2 02 . ... : ... .. . ... : ... .. . ... ...
ROW 5A : ... .. . ... ... ... : ... .. . ... ... ... : ... .. . ... : ... .. . ... : C#3 01 . ... ...
ROW 5B : ... .. . ... ... ... : G#2 07 3 ... ... ... : ... .. . S01 : ... .. . ... : ... .. . ... ...
ROW 5C : ... .. . ... ... ... : C#2 08 F ... ... ... : F-3 01 . ... : C-# 06 . ... : G#3 00 . Z40 ...
ROW 5D : ... .. . ... ... ... : ... .. . ... ... ... : C#2 02 . ... : ... .. . ... : ... .. . ... ...
ROW 5E : G#3 07 4 ... ... ... : ... .. . ... ... ... : ... .. . ... : ... .. . ... : F-3 01 . ... ...
ROW 5F : ... .. 3 ... ... ... : F-2 07 3 ... ... ... : ... .. . S01 : ... .. . ... : ... .. . ... ...

PATTERN 13
ROW 00 : F#3 09 F V02 ... ... : B-1 08 F ... ... P81 : F-3 01 . ... : C-# 06 . ... : D#4 00 . Z40 ...
ROW 01 : ... .. . ... ... ... : ... .. . ... ... ... : B-1 02 . ... : ... .. . ... : ... .. . ... ...
ROW 02 : ... .. . ... ... ... : ... .. . ... ... ... : ... .. . ... : ... .. . ... : G#3 01 . ... ...
ROW 03 : ... .. . ... ... ... : C#2 07 3 V01 ... ... : ... .. . S01 : ... .. . ... : ... .. . ... ...
ROW 04 : ... .. . ... ... ... : D#2 08 F ... ... ... : B-1 02 . ... : C-# 03 . ... : B-3 00 . ... ...
ROW 05 : ... .. . ... ... ... : ... .. . ... ... ... : ... .. . ... : ... .. . ... : ... .. . ... ...
ROW 06 : ... .. . ... ... ... : ... .. . ... ... ... : ... .. . ... : ... .. . ... : D#4 01 . ... ...
ROW 07 : ... .. . ... ... ... : B-1 07 3 ... ... ... : ... .. . S01 : ... .. . ... : ... .. . ... ...
ROW 08 : ... .. . ... ... ... : F#2 08 F ... ... ... : B-1 02 . ... : C-# 03 . ... : F#3 00 . ... ...
ROW 09 : ... .. . ... ... ... : ... .. . ... ... ... : ... .. . ... : ... .. . ... : ... .. . ... ...
ROW 0A : A#3 07 4 ... ... ... : ... .. . ... ... ... : ... .. . ... : ... .. . ... : B-3 01 . ... ...
ROW 0B : ... .. 3 ... ... ... : D#2 07 3 ... ... ... : ... .. . S01 : ... .. . ... : ... .. . ... ...
ROW 0C : D#3 09 F ... ... ... : D#2 08 F ... ... ... : G-3 00 . ... : 8-# 04 . ... : D#3 00 . Z30 ...
ROW 0D : ... .. . ... ... ... : ... .. . ... ... ... : B-2 02 . ... : ... .. . ... : ... .. . ... ...
ROW 0E : ... .. . ... ... ... : ... .. . ... ... ... : ... .. . ... : ... .. . ... : F#3 01 . ... ...
ROW 0F : ... .. . ... ... ... : F#2 07 3 ... ... ... : ... .. . S01 : ... .. . ... : ... .. . ... ...
ROW 10 : ... .. . ... ... ... : F#2 08 F ... ... ... : B-1 02 . ... : C-# 03 . ... : F#3 00 . ... ...
ROW 11 : ... .. . ... ... ... : ... .. . ... ... ... : ... .. . ... : ... .. . ... : ... .. . ... ...
ROW 12 : ... .. . ... ... ... : ... .. . ... ... ... : ... .. . ... : ... .. . ... : D#3 01 . ... ...
ROW 13 : ... .. . ... ... ... : D#2 07 3 ... ... ... : ... .. . S01 : ... .. . ... : ... .. . ... ...
ROW 14 : ... .. . ... ... ... : B-2 08 F ... ... ... : B-1 02 . ... : C-# 03 . ... : B-3 00 . ... ...
ROW 15 : ... .. . ... ... ... : ... .. . ... ... ... : ... .. . ... : ... .. . ... : ... .. . ... ...
ROW 16 : F#3 07 4 ... ... ... : ... .. . ... ... ... : ... .. . ... : ... .. . ... : F#3 01 . ... ...
ROW 17 : ... .. 3 ... ... ... : F#2 07 3 ... ... ... : ... .. . S01 : ... .. . ... : ... .. . ... ...
ROW 18 : F#3 09 F ... ... ... : D#2 08 F ... ... ... : F-3 01 . ... : C-# 06 . ... : D#4 00 . Z40 ...
ROW 19 : ... .. . ... ... ... : ... .. . ... ... ... : B-1 02 . ... : ... .. . ... : ... .. . ... ...
ROW 1A : ... .. . ... ... ... : ... .. . ... ... ... : ... .. . ... : ... .. . ... : B-3 01 . ... ...
ROW 1B : ... .. . ... ... ... : B-2 07 3 ... ... ... : ... .. . S01 : ... .. . ... : ... .. . ... ...
ROW 1C : ... .. . ... ... ... : F#2 08 F ... ... ... : B-1 02 . ... : C-# 03 . ... : B-3 00 . ... ...
ROW 1D : ... .. . ... ... ... : ... .. . ... ... ... : ... .. . ... : ... .. . ... : ... .. . ... ...
ROW 1E : ... .. . ... ... ... : ... .. . ... ... ... : ... .. . ... : ... .. . ... : D#4 01 . ... ...
ROW 1F : ... .. . ... ... ... : D#2 07 3 ... ... ... : ... .. . S01 : ... .. . ... : ... .. . ... ...
ROW 20 : ... .. . ... ... ... : B-2 08 F ... ... ... : B-1 02 . ... : C-# 03 . ... : F#3 00 . ... ...
ROW 21 : ... .. . ... ... ... : ... .. . ... ... ... : ... .. . ... : ... .. . ... : ... .. . ... ...
ROW 22 : D#3 07 4 ... ... ... : ... .. . ... ... ... : ... .. . ... : ... .. . ... : B-3 01 . ... ...
ROW 23 : ... .. 3 ... ... ... : F#2 07 3 ... ... ... : ... .. . S01 : ... .. . ... : ... .. . ... ...
ROW 24 : G#3 09 F ... ... ... : F#2 08 F ... ... ... : G-3 00 . ... : 8-# 04 . ... : D#3 00 . Z30 ...
ROW 25 : ... .. . ... ... ... : ... .. . ... ... ... : B-2 02 . ... : ... .. . ... : ... .. . ... ...
ROW 26 : ... .. . ... ... ... : ... .. . ... ... ... : ... .. . ... : ... .. . ... : F#3 01 . ... ...
ROW 27 : ... .. . ... ... ... : B-2 07 3 ... ... ... : ... .. . S01 : ... .. . ... : ... .. . ... ...
ROW 28 : ... .. . ... ... ... : B-2 08 F ... ... ... : B-1 02 . ... : C-# 03 . ... : F#3 00 . ... ...
ROW 29 : ... .. . ... ... ... : ... .. . ... ... ... : ... .. . ... : ... .. . ... : ... .. . ... ...
ROW 2A : ... .. . ... ... ... : ... .. . ... ... ... : ... .. . ... : ... .. . ... : D#3 01 . ... ...
ROW 2B : ... .. . ... ... ... : F#2 07 3 ... ... ... : ... .. . S01 : ... .. . ... : ... .. . ... ...
ROW 2C : ... .. . ... ... ... : D#3 08 F ... ... ... : B-1 02 . ... : C-# 03 . ... : B-3 00 . ... ...
ROW 2D : ... .. . ... ... ... : ... .. . ... ... ... : ... .. . ... : ... .. . ... : ... .. . ... ...
ROW 2E : F#3 07 4 ... ... ... : ... .. . ... ... ... : ... .. . ... : ... .. . ... : F#3 01 . ... ...
ROW 2F : ... .. 3 ... ... ... : B-2 07 3 ... ... ... : ... .. . S01 : ... .. . ... : ... .. . ... ...
ROW 30 : F-3 09 F ... ... ... : A#1 08 F ... ... ... : F-3 01 . ... : C-# 06 . ... : D-4 00 . Z40 ...
ROW 31 : ... .. . ... ... ... : ... .. . ... ... ... : A#1 02 . ... : ... .. . ... : ... .. . ... ...
ROW 32 : ... .. . ... ... ... : ... .. . ... ... ... : ... .. . ... : ... .. . ... : B-3 01 . ... ...
ROW 33 : ... .. . ... ... ... : D#3 07 3 ... ... ... : ... .. . S01 : ... .. . ... : ... .. . ... ...
ROW 34 : ... .. . ... ... ... : D-2 08 F ... ... ... : A#1 02 . ... : C-# 03 . ... : A#3 00 . ... ...
ROW 35 : ... .. . ... ... ... : ... .. . ... ... ... : ... .. . ... : ... .. . ... : ... .. . ... ...
ROW 36 : ... .. . ... ... ... : ... .. . ... ... ... : ... .. . ... : ... .. . ... : D-4 01 . ... ...
ROW 37 : ... .. . ... ... ... : A#1 07 3 ... ... ... : ... .. . S01 : ... .. . ... : ... .. . ... ...
ROW 38 : ... .. E ... ... ... : F-2 08 F ... ... ... : A#1 02 . ... : C-# 03 . ... : F-3 00 . ... ...
ROW 39 : ... .. . ... ... ... : ... .. . ... ... ... : ... .. . ... : ... .. . ... : ... .. . ... ...
ROW 3A : ... .. . ... ... ... : ... .. . ... ... ... : ... .. . ... : ... .. . ... : A#3 01 . ... ...
ROW 3B : ... .. . ... ... ... : D-2 07 3 ... ... ... : ... .. . S01 : ... .. . ... : ... .. . ... ...
ROW 3C : ... .. C ... ... ... : D-2 08 F ... ... ... : G-3 00 . ... : 8-# 04 . ... : D-3 00 . Z30 ...
ROW 3D : ... .. . ... ... ... : ... .. . ... ... ... : A#2 02 . ... : ... .. . ... : ... .. . ... ...
ROW 3E : ... .. . ... ... ... : ... .. . ... ... ... : ... .. . ... : ... .. . ... : F-3 01 . ... ...
ROW 3F : ... .. . ... ... ... : F-2 07 3 ... ... ... : ... .. . S01 : ... .. . ... : ... .. . ... ...
ROW 40 : ... .. 8 ... ... ... : F-2 08 F ... ... ... : A#1 02 . ... : C-# 03 . ... : F-3 00 . ... ...
ROW 41 : ... .. . ... ... ... : ... .. . ... ... ... : ... .. . ... : ... .. . ... : ... .. . ... ...
ROW 42 : ... .. . ... ... ... : ... .. . ... ... ... : ... .. . ... : ... .. . ... : D-3 01 . ... ...
ROW 43 : ... .. . ... ... ... : D-2 07 3 ... ... ... : ... .. . S01 : ... .. . ... : ... .. . ... ...
ROW 44 : ... .. 5 ... ... ... : A#2 08 F ... ... ... : A#1 02 . ... : C-# 03 . ... : A#3 00 . ... ...
ROW 45 : ... .. . ... ... ... : ... .. . ... ... ... : ... .. . ... : ... .. . ... : ... .. . ... ...
ROW 46 : ... .. . ... ... ... : ... .. . ... ... ... : ... .. . ... : ... .. . ... : F-3 01 . ... ...
ROW 47 : ... .. . ... ... ... : F-2 07 3 ... ... ... : ... .. . S01 : ... .. . ... : ... .. . ... ...
ROW 48 : D-3 09 E ... ... ... : D-2 08 F ... ... ... : F-3 01 . ... : C-# 06 . ... : D-4 00 . Z40 ...
ROW 49 : ... .. . ... ... ... : ... .. . ... ... ... : A#1 02 . ... : ... .. . ... : ... .. . ... ...
ROW 4A : ... .. . ... ... ... : ... .. . ... ... ... : ... .. . ... : ... .. . ... : A#3 01 . ... ...
ROW 4B : ... .. . ... ... ... : A#2 07 3 ... ... ... : ... .. . S01 : ... .. . ... : ... .. . ... ...
ROW 4C : ... .. . ... ... ... : F-2 08 F ... ... ... : G-3 00 . ... : 8-# 04 . ... : A#3 00 . Z30 ...
ROW 4D : ... .. . ... ... ... : ... .. . ... ... ... : A#1 02 . ... : ... .. . ... : ... .. . ... ...
ROW 4E : ... .. . ... ... ... : ... .. . ... ... ... : ... .. . ... : ... .. . ... : D-4 01 . ... ...
ROW 4F : ... .. . ... ... ... : D-2 07 3 ... ... ... : ... .. . S01 : ... .. . ... : ... .. . ... ...
ROW 50 : ... .. C ... ... ... : A#2 08 F ... ... ... : G-3 00 . ... : 8-# 04 . ... : F-3 00 . Z30 ...
ROW 51 : ... .. . ... ... ... : ... .. . ... ... ... : A#1 02 . ... : ... .. . ... : ... .. . ... ...
ROW 52 : ... .. . ... ... ... : ... .. . ... ... ... : ... .. . ... : ... .. . ... : A#3 01 . ... ...
ROW 53 : ... .. . ... ... ... : F-2 07 3 ... ... ... : ... .. . S01 : ... .. . ... : ... .. . ... ...
ROW 54 : ... .. . ... ... ... : D-3 08 F ... ... ... : G-3 00 . ... : 8-# 04 . ... : D-3 00 . Z30 ...
ROW 55 : ... .. 8 ... ... ... : ... .. . ... ... ... : F-3 02 . ... : ... .. . ... : ... .. . ... ...
ROW 56 : ... .. . ... ... ... : ... .. . ... ... ... : ... .. . ... : ... .. . ... : F-3 01 . ... ...
ROW 57 : ... .. . ... ... ... : A#2 07 3 ... ... ... : ... .. . S01 : ... .. . ... : ... .. . ... ...
ROW 58 : ... .. . ... ... ... : A#2 08 F ... ... ... : G-3 00 . ... : 8-# 04 . ... : F-3 00 . Z30 ...
ROW 59 : ... .. . ... ... ... : ... .. . ... ... ... : D-3 02 . ... : ... .. . ... : ... .. . ... ...
ROW 5A : ... .. 5 ... ... ... : ... .. . ... ... ... : ... .. . ... : ... .. . ... : D-3 01 . ... ...
ROW 5B : ... .. . ... ... ... : D-3 07 3 ... ... ... : ... .. . S01 : ... .. . ... : ... .. . ... ...
ROW 5C : ... .. . ... ... ... : F-2 08 F ... ... ... : G-3 00 . ... : 8-# 04 . ... : A#3 00 . Z30 ...
ROW 5D : ... .. . ... ... ... : ... .. . ... ... ... : A#2 02 . ... : ... .. . ... : ... .. . ... ...
ROW 5E : ... .. 1 ... ... ... : ... .. . ... ... ... : ... .. . ... : ... .. . ... : F-3 01 . ... ...
ROW 5F : ... .. . ... ... ... : A#2 07 3 ... ... ... : ... .. . S01 : ... .. . ... : ... .. . ... ...

PATTERN 14
ROW 00 : --- .. . V02 ... P7F : --- .. . ... ... P81 : F-3 01 . ... : C-# 06 . ... : D#4 00 . Z40 ...
ROW 01 : ... .. . ... ... ... : D#4 0A F ... ... ... : D#2 02 . ... : ... .. . ... : ... .. . ... ...
ROW 02 : ... .. . ... ... ... : ... .. . ... ... ... : ... .. . ... : ... .. . ... : A#3 01 . ... ...
ROW 03 : ... .. . ... ... ... : A#3 0A 8 ... ... ... : ... .. . S01 : ... .. . ... : ... .. . ... ...
ROW 04 : ... .. . ... ... ... : ... .. . ... ... ... : D#2 02 . ... : C-# 03 . ... : A#3 00 . ... ...
ROW 05 : ... .. . ... ... ... : A#3 0A F ... ... ... : ... .. . ... : ... .. . ... : ... .. . ... ...
ROW 06 : ... .. . ... ... ... : ... .. . ... ... ... : ... .. . ... : ... .. . ... : D#4 01 . ... ...
ROW 07 : ... .. . ... ... ... : D#4 0A 8 ... ... ... : ... .. . S01 : ... .. . ... : ... .. . ... ...
ROW 08 : ... .. . ... ... ... : ... .. . ... ... ... : D#2 02 . ... : C-# 03 . ... : F#3 00 . ... ...
ROW 09 : ... .. . ... ... ... : F#3 0A F ... ... ... : ... .. . ... : ... .. . ... : ... .. . ... ...
ROW 0A : ... .. . ... ... ... : ... .. . ... ... ... : ... .. . ... : ... .. . ... : A#3 01 . ... ...
ROW 0B : ... .. . ... ... ... : A#3 0A 8 ... ... ... : ... .. . S01 : ... .. . ... : ... .. . ... ...
ROW 0C : A#3 09 F ... Q35 ... : ... .. . ... ... ... : G-3 00 . ... : 8-# 04 . ... : A#3 00 . Z30 ...
ROW 0D : ... .. . ... ... ... : A#3 0A F ... ... ... : D#3 02 . ... : ... .. . ... : ... .. . ... ...
ROW 0E : ... .. . ... ... ... : ... .. . ... ... ... : ... .. . ... : ... .. . ... : F#3 01 . ... ...
ROW 0F : ... .. . ... ... ... : F#3 0A 8 ... ... ... : ... .. . S01 : ... .. . ... : ... .. . ... ...
ROW 10 : ... .. . ... ... ... : ... .. . ... ... ... : D#2 02 . ... : C-# 03 . ... : F#3 00 . ... ...
ROW 11 : ... .. . ... ... ... : F#3 0A F ... ... ... : ... .. . ... : ... .. . ... : ... .. . ... ...
ROW 12 : ... .. . ... ... ... : ... .. . ... ... ... : ... .. . ... : ... .. . ... : A#3 01 . ... ...
ROW 13 : ... .. . ... ... ... : A#3 0A 8 ... ... ... : ... .. . S01 : ... .. . ... : ... .. . ... ...
ROW 14 : ... .. . ... ... ... : ... .. . ... ... ... : D#2 02 . ... : C-# 03 . ... : D#3 00 . ... ...
ROW 15 : ... .. . ... ... ... : D#3 0A F ... ... ... : ... .. . ... : ... .. . ... : ... .. . ... ...
ROW 16 : D#4 07 4 ... ... ... : ... .. . ... ... ... : ... .. . ... : ... .. . ... : F#3 01 . ... ...
ROW 17 : ... .. 3 ... ... ... : F#3 0A 8 ... ... ... : ... .. . S01 : ... .. . ... : ... .. . ... ...
ROW 18 : C#4 09 F ... ... ... : ... .. . ... ... ... : F-3 01 . ... : C-# 06 . ... : A#2 00 . Z40 ...
ROW 19 : ... .. . ... ... ... : A#2 0A F ... ... ... : D#2 02 . ... : ... .. . ... : ... .. . ... ...
ROW 1A : ... .. . ... ... ... : ... .. . ... ... ... : ... .. . ... : ... .. . ... : D#3 01 . ... ...
ROW 1B : ... .. . ... ... ... : D#3 0A 8 ... ... ... : ... .. . S01 : ... .. . ... : ... .. . ... ...
ROW 1C : ... .. . ... ... ... : ... .. . ... ... ... : D#2 02 . ... : C-# 03 . ... : D#3 00 . ... ...
ROW 1D : ... .. . ... ... ... : D#3 0A F ... ... ... : ... .. . ... : ... .. . ... : ... .. . ... ...
ROW 1E : ... .. . ... ... ... : ... .. . ... ... ... : ... .. . ... : ... .. . ... : A#2 01 . ... ...
ROW 1F : ... .. . ... ... ... : A#2 0A 8 ... ... ... : ... .. . S01 : ... .. . ... : ... .. . ... ...
ROW 20 : ... .. . ... ... ... : ... .. . ... ... ... : D#2 02 . ... : C-# 03 . ... : F#3 00 . ... ...
ROW 21 : ... .. . ... ... ... : F#3 0A F ... ... ... : ... .. . ... : ... .. . ... : ... .. . ... ...
ROW 22 : D#4 07 4 ... ... ... : ... .. . ... ... ... : ... .. . ... : ... .. . ... : D#3 01 . ... ...
ROW 23 : ... .. 3 ... ... ... : D#3 0A 8 ... ... ... : ... .. . S01 : ... .. . ... : ... .. . ... ...
ROW 24 : B-3 09 F ... ... ... : ... .. . ... ... ... : G-3 00 . ... : 8-# 04 . ... : D#3 00 . Z30 ...
ROW 25 : ... .. . ... ... ... : D#3 0A F ... ... ... : D#3 02 . ... : ... .. . ... : ... .. . ... ...
ROW 26 : ... .. . ... ... ... : ... .. . ... ... ... : ... .. . ... : ... .. . ... : F#3 01 . ... ...
ROW 27 : ... .. . ... ... ... : F#3 0A 8 ... ... ... : ... .. . S01 : ... .. . ... : ... .. . ... ...
ROW 28 : ... .. . ... ... ... : ... .. . ... ... ... : D#2 02 . ... : C-# 03 . ... : F#3 00 . ... ...
ROW 29 : ... .. . ... ... ... : F#3 0A F ... ... ... : ... .. . ... : ... .. . ... : ... .. . ... ...
ROW 2A : ... .. . ... ... ... : ... .. . ... ... ... : ... .. . ... : ... .. . ... : D#3 01 . ... ...
ROW 2B : ... .. . ... ... ... : D#3 0A 8 ... ... ... : ... .. . S01 : ... .. . ... : ... .. . ... ...
ROW 2C : ... .. . ... ... ... : ... .. . ... ... ... : D#2 02 . ... : C-# 03 . ... : A#3 00 . ... ...
ROW 2D : ... .. . ... ... ... : A#3 0A F ... ... ... : ... .. . ... : ... .. . ... : ... .. . ... ...
ROW 2E : C#4 07 4 ... ... ... : ... .. . ... ... ... : ... .. . ... : ... .. . ... : F#3 01 . ... ...
ROW 2F : ... .. 3 ... ... ... : F#3 0A 8 ... ... ... : ... .. . S01 : ... .. . ... : ... .. . ... ...
ROW 30 : A#3 09 F ... ... ... : ... .. . ... ... ... : F-3 01 . ... : C-# 06 . ... : C#4 00 . Z40 ...
ROW 31 : ... .. . ... ... ... : C#4 0A F ... ... ... : A#1 02 . ... : ... .. . ... : ... .. . ... ...
ROW 32 : ... .. . ... ... ... : ... .. . ... ... ... : ... .. . ... : ... .. . ... : A#3 01 . ... ...
ROW 33 : ... .. . ... ... ... : A#3 0A 8 ... ... ... : ... .. . S01 : ... .. . ... : ... .. . ... ...
ROW 34 : ... .. . ... ... ... : ... .. . ... ... ... : A#1 02 . ... : C-# 03 . ... : A#3 00 . ... ...
ROW 35 : ... .. . ... ... ... : A#3 0A F ... ... ... : ... .. . ... : ... .. . ... : ... .. . ... ...
ROW 36 : ... .. . ... ... ... : ... .. . ... ... ... : ... .. . ... : ... .. . ... : C#4 01 . ... ...
ROW 37 : ... .. . ... ... ... : C#4 0A 8 ... ... ... : ... .. . S01 : ... .. . ... : ... .. . ... ...
ROW 38 : ... .. . ... ... ... : ... .. . ... ... ... : A#1 02 . ... : C-# 03 . ... : F-3 00 . ... ...
ROW 39 : ... .. . ... ... ... : F-3 0A F ... ... ... : ... .. . ... : ... .. . ... : ... .. . ... ...
ROW 3A : ... .. . ... ... ... : ... .. . ... ... ... : ... .. . ... : ... .. . ... : A#3 01 . ... ...
ROW 3B : ... .. . ... ... ... : A#3 0A 8 ... ... ... : ... .. . S01 : ... .. . ... : ... .. . ... ...
ROW 3C : ... .. . ... ... ... : ... .. . ... ... ... : G-3 00 . ... : 8-# 04 . ... : A#3 00 . Z30 ...
ROW 3D : ... .. . ... ... ... : A#3 0A F ... ... ... : A#2 02 . ... : ... .. . ... : ... .. . ... ...
ROW 3E : ... .. . ... ... ... : ... .. . ... ... ... : ... .. . ... : ... .. . ... : F-3 01 . ... ...
ROW 3F : ... .. . ... ... ... : F-3 0A 8 ... ... ... : ... .. . S01 : ... .. . ... : ... .. . ... ...
ROW 40 : ... .. . ... ... ... : ... .. . ... ... ... : A#1 02 . ... : C-# 03 . ... : F-3 00 . ... ...
ROW 41 : ... .. . ... ... ... : F-3 0A F ... ... ... : ... .. . ... : ... .. . ... : ... .. . ... ...
ROW 42 : ... .. . ... ... ... : ... .. . ... ... ... : ... .. . ... : ... .. . ... : A#3 01 . ... ...
ROW 43 : ... .. . ... ... ... : A#3 0A 8 ... ... ... : ... .. . S01 : ... .. . ... : ... .. . ... ...
ROW 44 : ... .. . ... ... ... : ... .. . ... ... ... : A#1 02 . ... : C-# 03 . ... : C#3 00 . ... ...
ROW 45 : ... .. . ... ... ... : C#3 0A F ... ... ... : ... .. . ... : ... .. . ... : ... .. . ... ...
ROW 46 : B-3 07 4 ... ... ... : ... .. . ... ... ... : ... .. . ... : ... .. . ... : F-3 01 . ... ...
ROW 47 : ... .. 3 ... ... ... : F-3 0A 8 ... ... ... : ... .. . S01 : ... .. . ... : ... .. . ... ...
ROW 48 : G#3 09 F ... ... ... : ... .. . ... ... ... : F-3 01 . ... : C-# 06 . ... : A#2 00 . Z40 ...
ROW 49 : ... .. . ... ... ... : A#2 0A F ... ... ... : A#1 02 . ... : ... .. . ... : ... .. . ... ...
ROW 4A : ... .. . ... ... ... : ... .. . ... ... ... : ... .. . ... : ... .. . ... : C#3 01 . ... ...
ROW 4B : ... .. . ... ... ... : C#3 0A 8 ... ... ... : ... .. . S01 : ... .. . ... : ... .. . ... ...
ROW 4C : ... .. . ... ... ... : ... .. . ... ... ... : A#1 02 . ... : C-# 03 . ... : C#3 00 . ... ...
ROW 4D : ... .. . ... ... ... : C#3 0A F ... ... ... : ... .. . ... : ... .. . ... : ... .. . ... ...
ROW 4E : ... .. . ... ... ... : ... .. . ... ... ... : ... .. . ... : ... .. . ... : A#2 01 . ... ...
ROW 4F : ... .. . ... ... ... : A#2 0A 8 ... ... ... : ... .. . S01 : ... .. . ... : ... .. . ... ...
ROW 50 : ... .. . ... ... ... : ... .. . ... ... ... : A#1 02 . ... : C-# 03 . ... : F-3 00 . ... ...
ROW 51 : ... .. . ... ... ... : F-3 0A F ... ... ... : ... .. . ... : ... .. . ... : ... .. . ... ...
ROW 52 : A#3 07 4 ... ... ... : ... .. . ... ... ... : ... .. . ... : ... .. . ... : C#3 01 . ... ...
ROW 53 : ... .. 3 ... ... ... : C#3 0A 8 ... ... ... : ... .. . S01 : ... .. . ... : ... .. . ... ...
ROW 54 : G#3 09 F ... ... ... : ... .. . ... ... ... : G-3 00 . ... : 8-# 04 . ... : C#3 00 . Z30 ...
ROW 55 : ... .. . ... ... ... : C#3 0A F ... ... ... : A#2 02 . ... : ... .. . ... : ... .. . ... ...
ROW 56 : ... .. . ... ... ... : ... .. . ... ... ... : ... .. . ... : ... .. . ... : F-3 01 . ... ...
ROW 57 : G#3 07 3 ... ... ... : F-3 0A 8 ... ... ... : ... .. . S01 : ... .. . ... : ... .. . ... ...
ROW 58 : A#3 09 F ... ... ... : ... .. . ... ... ... : F-3 01 . ... : C-# 06 . ... : F-3 00 . Z40 ...
ROW 59 : ... .. . ... ... ... : F-3 0A F ... ... ... : A#1 02 . ... : ... .. . ... : ... .. . ... ...
ROW 5A : ... .. . ... ... ... : ... .. . ... ... ... : ... .. . ... : ... .. . ... : C#3 01 . ... ...
ROW 5B : G#3 07 3 ... ... ... : C#3 0A 8 ... ... ... : ... .. . S01 : ... .. . ... : ... .. . ... ...
ROW 5C : B-3 09 F ... ... ... : ... .. . ... ... ... : F-3 01 . ... : C-# 06 . ... : A#3 00 . Z40 ...
ROW 5D : ... .. . ... ... ... : A#3 0A F ... ... ... : A#1 02 . ... : ... .. . ... : ... .. . ... ...
ROW 5E : ... .. . ... ... ... : ... .. . ... ... ... : ... .. . ... : ... .. . ... : F-3 01 . ... ...
ROW 5F : A#3 07 3 ... ... ... : F-3 0A 8 ... ... ... : ... .. . S01 : ... .. . ... : ... .. . ... ...

PATTERN 15
ROW 00 : G#3 09 F V02 ... P7F : ... .. . ... ... P81 : F-3 01 . ... : C-# 06 . ... : B-3 00 . Z40 ...
ROW 01 : ... .. . ... ... ... : B-3 0A F ... ... ... : G#1 02 . ... : ... .. . ... : ... .. . ... ...
ROW 02 : ... .. . ... ... ... : ... .. . ... ... ... : ... .. . ... : ... .. . ... : A#3 01 . ... ...
ROW 03 : ... .. . ... ... ... : A#3 0A 8 ... ... ... : ... .. . S01 : ... .. . ... : ... .. . ... ...
ROW 04 : ... .. . ... ... ... : ... .. . ... ... ... : G#1 02 . ... : C-# 03 . ... : G#3 00 . ... ...
ROW 05 : ... .. . ... ... ... : G#3 0A F ... ... ... : ... .. . ... : ... .. . ... : ... .. . ... ...
ROW 06 : ... .. . ... ... ... : ... .. . ... ... ... : ... .. . ... : ... .. . ... : B-3 01 . ... ...
ROW 07 : ... .. . ... ... ... : B-3 0A 8 ... ... ... : ... .. . S01 : ... .. . ... : ... .. . ... ...
ROW 08 : ... .. . ... ... ... : ... .. . ... ... ... : G#1 02 . ... : C-# 03 . ... : D#3 00 . ... ...
ROW 09 : ... .. . ... ... ... : D#3 0A F ... ... ... : ... .. . ... : ... .. . ... : ... .. . ... ...
ROW 0A : ... .. . ... ... ... : ... .. . ... ... ... : ... .. . ... : ... .. . ... : G#3 01 . ... ...
ROW 0B : ... .. . ... ... ... : G#3 0A 8 ... ... ... : ... .. . S01 : ... .. . ... : ... .. . ... ...
ROW 0C : ... .. E ... ... ... : ... .. . ... ... ... : G-3 00 . ... : 8-# 04 . ... : G#3 00 . Z30 ...
ROW 0D : ... .. . ... ... ... : G#3 0A F ... ... ... : G#2 02 . ... : ... .. . ... : ... .. . ... ...
ROW 0E : ... .. . ... ... ... : ... .. . ... ... ... : ... .. . ... : ... .. . ... : D#3 01 . ... ...
ROW 0F : ... .. . ... ... ... : D#3 0A 8 ... ... ... : ... .. . S01 : ... .. . ... : ... .. . ... ...
ROW 10 : ... .. C ... ... ... : ... .. . ... ... ... : G#1 02 . ... : C-# 03 . ... : D#3 00 . ... ...
ROW 11 : ... .. . ... ... ... : D#3 0A F ... ... ... : ... .. . ... : ... .. . ... : ... .. . ... ...
ROW 12 : ... .. . ... ... ... : ... .. . ... ... ... : ... .. . ... : ... .. . ... : G#3 01 . ... ...
ROW 13 : ... .. . ... ... ... : G#3 0A 8 ... ... ... : ... .. . S01 : ... .. . ... : ... .. . ... ...
ROW 14 : ... .. 8 ... ... ... : ... .. . ... ... ... : G#1 02 . ... : C-# 03 . ... : B-2 00 . ... ...
ROW 15 : ... .. . ... ... ... : B-2 0A F ... ... ... : ... .. . ... : ... .. . ... : ... .. . ... ...
ROW 16 : ... .. . ... ... ... : ... .. . ... ... ... : ... .. . ... : ... .. . ... : D#3 01 . ... ...
ROW 17 : ... .. . ... ... ... : D#3 0A 8 ... ... ... : ... .. . S01 : ... .. . ... : ... .. . ... ...
ROW 18 : F-3 09 F ... ... ... : ... .. . ... ... ... : F-3 01 . ... : C-# 06 . ... : G#2 00 . Z40 ...
ROW 19 : ... .. . ... ... ... : G#2 0A F ... ... ... : G#1 02 . ... : ... .. . ... : ... .. . ... ...
ROW 1A : ... .. . ... ... ... : ... .. . ... ... ... : ... .. . ... : ... .. . ... : B-2 01 . ... ...
ROW 1B : ... .. . ... ... ... : B-2 0A 8 ... ... ... : ... .. . S01 : ... .. . ... : ... .. . ... ...
ROW 1C : ... .. . ... ... ... : ... .. . ... ... ... : G#1 02 . ... : C-# 03 . ... : B-2 00 . ... ...
ROW 1D : ... .. . ... ... ... : B-2 0A F ... ... ... : ... .. . ... : ... .. . ... : ... .. . ... ...
ROW 1E : ... .. . ... ... ... : ... .. . ... ... ... : ... .. . ... : ... .. . ... : G#2 01 . ... ...
ROW 1F : ... .. . ... ... ... : G#2 0A 8 ... ... ... : ... .. . S01 : ... .. . ... : ... .. . ... ...
ROW 20 : ... .. . ... ... ... : ... .. . ... ... ... : G#1 02 . ... : C-# 03 . ... : D#3 00 . ... ...
ROW 21 : ... .. . ... ... ... : D#3 0A F ... ... ... : ... .. . ... : ... .. . ... : ... .. . ... ...
ROW 22 : ... .. . ... ... ... : ... .. . ... ... ... : ... .. . ... : ... .. . ... : B-2 01 . ... ...
ROW 23 : ... .. . ... ... ... : B-2 0A 8 ... ... ... : ... .. . S01 : ... .. . ... : ... .. . ... ...
ROW 24 : ... .. . ... ... ... : ... .. . ... ... ... : G-3 00 . ... : 8-# 04 . ... : B-2 00 . Z30 ...
ROW 25 : ... .. . ... ... ... : B-2 0A F ... ... ... : G#2 02 . ... : ... .. . ... : ... .. . ... ...
ROW 26 : G#3 07 4 ... ... ... : ... .. . ... ... ... : ... .. . ... : ... .. . ... : D#3 01 . ... ...
ROW 27 : ... .. 3 ... ... ... : D#3 0A 8 ... ... ... : ... .. . S01 : ... .. . ... : ... .. . ... ...
ROW 28 : G#3 09 F ... ... ... : ... .. . ... ... ... : G#1 02 . ... : C-# 03 . ... : D#3 00 . ... ...
ROW 29 : ... .. . ... ... ... : D#3 0A F ... ... ... : ... .. . ... : ... .. . ... : ... .. . ... ...
ROW 2A : ... .. . ... ... ... : ... .. . ... ... ... : ... .. . ... : ... .. . ... : B-2 01 . ... ...
ROW 2B : F-3 07 3 ... ... ... : B-2 0A 8 ... ... ... : ... .. . S01 : ... .. . ... : ... .. . ... ...
ROW 2C : B-3 09 F ... ... ... : ... .. . ... ... ... : G#1 02 . ... : C-# 03 . ... : G#3 00 . ... ...
ROW 2D : ... .. . ... ... ... : G#3 0A F ... ... ... : ... .. . ... : ... .. . ... : ... .. . ... ...
ROW 2E : ... .. . ... ... ... : ... .. . ... ... ... : ... .. . ... : ... .. . ... : D#3 01 . ... ...
ROW 2F : G#3 07 3 ... ... ... : D#3 0A 8 ... ... ... : ... .. . S01 : ... .. . ... : ... .. . ... ...
ROW 30 : B-3 09 F ... ... ... : ... .. . ... ... ... : F-3 01 . ... : C-# 06 . ... : A#3 00 . Z40 ...
ROW 31 : ... .. . ... ... ... : A#3 0A F ... ... ... : A#1 02 . ... : ... .. . ... : ... .. . ... ...
ROW 32 : ... .. . ... ... ... : ... .. . ... ... ... : ... .. . ... : ... .. . ... : G#3 01 . ... ...
ROW 33 : B-3 07 3 ... ... ... : G#3 0A 8 ... ... ... : ... .. . S01 : ... .. . ... : ... .. . ... ...
ROW 34 : A#3 09 F ... ... ... : ... .. . ... ... ... : A#1 02 . ... : C-# 03 . ... : F-3 00 . ... ...
ROW 35 : ... .. . ... ... ... : F-3 0A F ... ... ... : ... .. . ... : ... .. . ... : ... .. . ... ...
ROW 36 : ... .. . ... ... ... : ... .. . ... ... ... : ... .. . ... : ... .. . ... : A#3 01 . ... ...
ROW 37 : ... .. . ... ... ... : A#3 0A 8 ... ... ... : ... .. . S01 : ... .. . ... : ... .. . ... ...
ROW 38 : ... .. . ... ... ... : ... .. . ... ... ... : A#1 02 . ... : C-# 03 . ... : D-3 00 . ... ...
ROW 39 : ... .. . ... ... ... : D-3 0A F ... ... ... : ... .. . ... : ... .. . ... : ... .. . ... ...
ROW 3A : ... .. . ... ... ... : ... .. . ... ... ... : ... .. . ... : ... .. . ... : F-3 01 . ... ...
ROW 3B : ... .. . ... ... ... : F-3 0A 8 ... ... ... : ... .. . S01 : ... .. . ... : ... .. . ... ...
ROW 3C : ... .. . ... ... ... : ... .. . ... ... ... : G-3 00 . ... : 8-# 04 . ... : F-3 00 . Z30 ...
ROW 3D : ... .. . ... ... ... : F-3 0A F ... ... ... : A#2 02 . ... : ... .. . ... : ... .. . ... ...
ROW 3E : ... .. . ... ... ... : ... .. . ... ... ... : ... .. . ... : ... .. . ... : D-3 01 . ... ...
ROW 3F : ... .. . ... ... ... : D-3 0A 8 ... ... ... : ... .. . S01 : ... .. . ... : ... .. . ... ...
ROW 40 : ... .. E ... ... ... : ... .. . ... ... ... : A#1 02 . ... : C-# 03 . ... : D-3 00 . ... ...
ROW 41 : ... .. . ... ... ... : D-3 0A F ... ... ... : ... .. . ... : ... .. . ... : ... .. . ... ...
ROW 42 : ... .. . ... ... ... : ... .. . ... ... ... : ... .. . ... : ... .. . ... : F-3 01 . ... ...
ROW 43 : ... .. . ... ... ... : F-3 0A 8 ... ... ... : ... .. . S01 : ... .. . ... : ... .. . ... ...
ROW 44 : ... .. C ... ... ... : ... .. . ... ... ... : A#1 02 . ... : C-# 03 . ... : A#2 00 . ... ...
ROW 45 : ... .. . ... ... ... : A#2 0A F ... ... ... : ... .. . ... : ... .. . ... : ... .. . ... ...
ROW 46 : ... .. . ... ... ... : ... .. . ... ... ... : ... .. . ... : ... .. . ... : D-3 01 . ... ...
ROW 47 : ... .. . ... ... ... : D-3 0A 8 ... ... ... : ... .. . S01 : ... .. . ... : ... .. . ... ...
ROW 48 : F-3 09 F ... ... ... : ... .. . ... ... ... : F-3 01 . ... : C-# 06 . ... : F-2 00 . Z40 ...
ROW 49 : ... .. . ... ... ... : F-2 0A F ... ... ... : A#1 02 . ... : ... .. . ... : ... .. . ... ...
ROW 4A : ... .. . ... ... ... : ... .. . ... ... ... : ... .. . ... : ... .. . ... : A#2 01 . ... ...
ROW 4B : ... .. . ... ... ... : A#2 0A 8 ... ... ... : ... .. . S01 : ... .. . ... : ... .. . ... ...
ROW 4C : ... .. . ... ... ... : ... .. . ... ... ... : A#1 02 . ... : C-# 03 . ... : A#2 00 . ... ...
ROW 4D : ... .. . ... ... ... : A#2 0A F ... ... ... : ... .. . ... : ... .. . ... : ... .. . ... ...
ROW 4E : ... .. . ... ... ... : ... .. . ... ... ... : ... .. . ... : ... .. . ... : F-2 01 . ... ...
ROW 4F : ... .. . ... ... ... : F-2 0A 8 ... ... ... : ... .. . S01 : ... .. . ... : ... .. . ... ...
ROW 50 : ... .. . ... ... ... : ... .. . ... ... ... : A#1 02 . ... : C-# 03 . ... : D-3 00 . ... ...
ROW 51 : ... .. . ... ... ... : D-3 0A F ... ... ... : ... .. . ... : ... .. . ... : ... .. . ... ...
ROW 52 : A#3 07 4 ... ... ... : ... .. . ... ... ... : ... .. . ... : ... .. . ... : A#2 01 . ... ...
ROW 53 : ... .. 3 ... ... ... : A#2 0A 8 ... ... ... : ... .. . S01 : ... .. . ... : ... .. . ... ...
ROW 54 : F#3 09 F ... ... ... : ... .. . ... ... ... : G-3 00 . ... : 8-# 04 . ... : A#2 00 . Z30 ...
ROW 55 : ... .. . ... ... ... : A#2 0A F ... ... ... : A#2 02 . ... : ... .. . ... : ... .. . ... ...
ROW 56 : ... .. . ... ... ... : ... .. . ... ... ... : ... .. . ... : ... .. . ... : D-3 01 . ... ...
ROW 57 : ... .. . ... ... ... : D-3 0A 8 ... ... ... : ... .. . S01 : ... .. . ... : ... .. . ... ...
ROW 58 : ... .. . ... ... ... : ... .. . ... ... ... : F-3 01 . ... : C-# 06 . ... : D-3 00 . Z40 ...
ROW 59 : ... .. . ... ... ... : D-3 0A F ... ... ... : A#1 02 . ... : ... .. . ... : ... .. . ... ...
ROW 5A : ... .. . ... ... ... : ... .. . ... ... ... : ... .. . ... : ... .. . ... : A#2 01 . ... ...
ROW 5B : ... .. . ... ... ... : A#2 0A 8 ... ... ... : ... .. . S01 : ... .. . ... : ... .. . ... ...
ROW 5C : ... .. . ... ... ... : ... .. . ... ... ... : G-3 00 . ... : 8-# 04 . ... : F-3 00 . Z30 ...
ROW 5D : ... .. . ... ... ... : F-3 0A F ... ... ... : A#1 02 . ... : ... .. . ... : ... .. . ... ...
ROW 5E : ... .. . ... ... ... : ... .. . ... ... ... : ... .. . ... : ... .. . ... : D-3 01 . ... ...
ROW 5F : ... .. . ... ... ... : D-3 0A 8 ... ... ... : ... .. . S01 : ... .. . ... : ... .. . ... ...

PATTERN 16
ROW 00 : ... .. E ... ... P7F : ... .. . ... ... P81 : F-3 01 . ... : C-# 06 . ... : D#4 00 . Z40 ...
ROW 01 : ... .. . ... ... ... : D#4 0A F ... ... ... : D#2 02 . ... : ... .. . ... : ... .. . ... ...
ROW 02 : ... .. . ... ... ... : ... .. . ... ... ... : ... .. . ... : ... .. . ... : F-3 01 . ... ...
ROW 03 : ... .. . ... ... ... : F-3 0A 8 ... ... ... : ... .. . S01 : ... .. . ... : ... .. . ... ...
ROW 04 : ... .. C ... ... ... : ... .. . ... ... ... : D#2 02 . ... : C-# 03 . ... : A#3 00 . ... ...
ROW 05 : ... .. . ... ... ... : A#3 0A F ... ... ... : ... .. . ... : ... .. . ... : ... .. . ... ...
ROW 06 : ... .. . ... ... ... : ... .. . ... ... ... : ... .. . ... : ... .. . ... : D#4 01 . ... ...
ROW 07 : ... .. . ... ... ... : D#4 0A 8 ... ... ... : ... .. . S01 : ... .. . ... : ... .. . ... ...
ROW 08 : ... .. 8 ... ... ... : ... .. . ... ... ... : D#2 02 . ... : C-# 03 . ... : F#3 00 . ... ...
ROW 09 : ... .. . ... ... ... : F#3 0A F ... ... ... : ... .. . ... : ... .. . ... : ... .. . ... ...
ROW 0A : ... .. . ... ... ... : ... .. . ... ... ... : ... .. . ... : ... .. . ... : A#3 01 . ... ...
ROW 0B : ... .. . ... ... ... : A#3 0A 8 ... ... ... : ... .. . S01 : ... .. . ... : ... .. . ... ...
ROW 0C : A#3 09 F Q35 ... ... : ... .. . ... ... ... : G-3 00 . ... : 8-# 04 . ... : A#3 00 . Z30 ...
ROW 0D : ... .. . ... ... ... : A#3 0A F ... ... ... : D#3 02 . ... : ... .. . ... : ... .. . ... ...
ROW 0E : ... .. . ... ... ... : ... .. . ... ... ... : ... .. . ... : ... .. . ... : F#3 01 . ... ...
ROW 0F : ... .. . ... ... ... : F#3 0A 8 ... ... ... : ... .. . S01 : ... .. . ... : ... .. . ... ...
ROW 10 : ... .. . ... ... ... : ... .. . ... ... ... : D#2 02 . ... : C-# 03 . ... : F#3 00 . ... ...
ROW 11 : ... .. . ... ... ... : F#3 0A F ... ... ... : ... .. . ... : ... .. . ... : ... .. . ... ...
ROW 12 : ... .. . ... ... ... : ... .. . ... ... ... : ... .. . ... : ... .. . ... : A#3 01 . ... ...
ROW 13 : ... .. . ... ... ... : A#3 0A 8 ... ... ... : ... .. . S01 : ... .. . ... : ... .. . ... ...
ROW 14 : ... .. . ... ... ... : ... .. . ... ... ... : D#2 02 . ... : C-# 03 . ... : D#3 00 . ... ...
ROW 15 : ... .. . ... ... ... : D#3 0A F ... ... ... : ... .. . ... : ... .. . ... : ... .. . ... ...
ROW 16 : F#3 07 4 V02 ... ... : ... .. . ... ... ... : ... .. . ... : ... .. . ... : F#3 01 . ... ...
ROW 17 : ... .. 3 ... ... ... : F#3 0A 8 ... ... ... : ... .. . S01 : ... .. . ... : ... .. . ... ...
ROW 18 : F-4 09 F ... ... ... : ... .. . ... ... ... : F-3 01 . ... : C-# 06 . ... : A#2 00 . Z40 ...
ROW 19 : ... .. . ... ... ... : A#2 0A F ... ... ... : D#2 02 . ... : ... .. . ... : ... .. . ... ...
ROW 1A : ... .. . ... ... ... : ... .. . ... ... ... : ... .. . ... : ... .. . ... : D#3 01 . ... ...
ROW 1B : ... .. . ... ... ... : D#3 0A 8 ... ... ... : ... .. . S01 : ... .. . ... : ... .. . ... ...
ROW 1C : ... .. . ... ... ... : ... .. . ... ... ... : D#2 02 . ... : C-# 03 . ... : D#3 00 . ... ...
ROW 1D : ... .. . ... ... ... : D#3 0A F ... ... ... : ... .. . ... : ... .. . ... : ... .. . ... ...
ROW 1E : ... .. . ... ... ... : ... .. . ... ... ... : ... .. . ... : ... .. . ... : A#2 01 . ... ...
ROW 1F : ... .. . ... ... ... : A#2 0A 8 ... ... ... : ... .. . S01 : ... .. . ... : ... .. . ... ...
ROW 20 : ... .. . ... ... ... : ... .. . ... ... ... : D#2 02 . ... : C-# 03 . ... : F#3 00 . ... ...
ROW 21 : ... .. . ... ... ... : F#3 0A F ... ... ... : ... .. . ... : ... .. . ... : ... .. . ... ...
ROW 22 : D#4 07 4 ... ... ... : ... .. . ... ... ... : ... .. . ... : ... .. . ... : D#3 01 . ... ...
ROW 23 : ... .. 3 ... ... ... : D#3 0A 8 ... ... ... : ... .. . S01 : ... .. . ... : ... .. . ... ...
ROW 24 : F#4 09 E ... ... ... : ... .. . ... ... ... : G-3 00 . ... : 8-# 04 . ... : D#3 00 . Z30 ...
ROW 25 : ... .. . ... ... ... : D#3 0A F ... ... ... : D#3 02 . ... : ... .. . ... : ... .. . ... ...
ROW 26 : ... .. . ... ... ... : ... .. . ... ... ... : ... .. . ... : ... .. . ... : F#3 01 . ... ...
ROW 27 : ... .. . ... ... ... : F#3 0A 8 ... ... ... : ... .. . S01 : ... .. . ... : ... .. . ... ...
ROW 28 : ... .. . ... ... ... : ... .. . ... ... ... : D#2 02 . ... : C-# 03 . ... : F#3 00 . ... ...
ROW 29 : ... .. . ... ... ... : F#3 0A F ... ... ... : ... .. . ... : ... .. . ... : ... .. . ... ...
ROW 2A : ... .. . ... ... ... : ... .. . ... ... ... : ... .. . ... : ... .. . ... : D#3 01 . ... ...
ROW 2B : ... .. . ... ... ... : D#3 0A 8 ... ... ... : ... .. . S01 : ... .. . ... : ... .. . ... ...
ROW 2C : ... .. . ... ... ... : ... .. . ... ... ... : D#2 02 . ... : C-# 03 . ... : A#3 00 . ... ...
ROW 2D : ... .. . ... ... ... : A#3 0A F ... ... ... : ... .. . ... : ... .. . ... : ... .. . ... ...
ROW 2E : F-4 07 3 ... ... ... : ... .. . ... ... ... : ... .. . ... : ... .. . ... : F#3 01 . ... ...
ROW 2F : ... .. 2 ... ... ... : F#3 0A 8 ... ... ... : ... .. . S01 : ... .. . ... : ... .. . ... ...
ROW 30 : A#4 0B E ... ... ... : ... .. . ... ... ... : F-3 01 . ... : C-# 06 . ... : C#4 00 . Z40 ...
ROW 31 : ... .. . ... ... ... : C#4 0A F ... ... ... : A#1 02 . ... : ... .. . ... : ... .. . ... ...
ROW 32 : ... .. . ... ... ... : ... .. . ... ... ... : ... .. . ... : ... .. . ... : A#3 01 . ... ...
ROW 33 : ... .. . ... ... ... : A#3 0A 8 ... ... ... : ... .. . S01 : ... .. . ... : ... .. . ... ...
ROW 34 : ... .. . ... ... ... : ... .. . ... ... ... : A#1 02 . ... : C-# 03 . ... : A#3 00 . ... ...
ROW 35 : ... .. . ... ... ... : A#3 0A F ... ... ... : ... .. . ... : ... .. . ... : ... .. . ... ...
ROW 36 : ... .. . ... ... ... : ... .. . ... ... ... : ... .. . ... : ... .. . ... : C#4 01 . ... ...
ROW 37 : ... .. . ... ... ... : C#4 0A 8 ... ... ... : ... .. . S01 : ... .. . ... : ... .. . ... ...
ROW 38 : ... .. . ... ... ... : ... .. . ... ... ... : A#1 02 . ... : C-# 03 . ... : F-3 00 . ... ...
ROW 39 : ... .. . ... ... ... : F-3 0A F ... ... ... : ... .. . ... : ... .. . ... : ... .. . ... ...
ROW 3A : ... .. . ... ... ... : ... .. . ... ... ... : ... .. . ... : ... .. . ... : A#3 01 . ... ...
ROW 3B : ... .. . ... ... ... : A#3 0A 8 ... ... ... : ... .. . S01 : ... .. . ... : ... .. . ... ...
ROW 3C : ... .. C ... ... ... : ... .. . ... ... ... : G-3 00 . ... : 8-# 04 . ... : A#3 00 . Z30 ...
ROW 3D : ... .. . ... ... ... : A#3 0A F ... ... ... : A#2 02 . ... : ... .. . ... : ... .. . ... ...
ROW 3E : ... .. . ... ... ... : ... .. . ... ... ... : ... .. . ... : ... .. . ... : F-3 01 . ... ...
ROW 3F : ... .. . ... ... ... : F-3 0A 8 ... ... ... : ... .. . S01 : ... .. . ... : ... .. . ... ...
ROW 40 : ... .. 8 ... ... ... : ... .. . ... ... ... : A#1 02 . ... : C-# 03 . ... : F-3 00 . ... ...
ROW 41 : ... .. . ... ... ... : F-3 0A F ... ... ... : ... .. . ... : ... .. . ... : ... .. . ... ...
ROW 42 : ... .. . ... ... ... : ... .. . ... ... ... : ... .. . ... : ... .. . ... : A#3 01 . ... ...
ROW 43 : ... .. . ... ... ... : A#3 0A 8 ... ... ... : ... .. . S01 : ... .. . ... : ... .. . ... ...
ROW 44 : ... .. 6 ... ... ... : ... .. . ... ... ... : A#1 02 . ... : C-# 03 . ... : C#3 00 . ... ...
ROW 45 : ... .. . ... ... ... : C#3 0A F ... ... ... : ... .. . ... : ... .. . ... : ... .. . ... ...
ROW 46 : ... .. . ... ... ... : ... .. . ... ... ... : ... .. . ... : ... .. . ... : F-3 01 . ... ...
ROW 47 : ... .. . ... ... ... : F-3 0A 8 ... ... ... : ... .. . S01 : ... .. . ... : ... .. . ... ...
ROW 48 : F#4 0B E ... ... ... : ... .. . ... ... ... : F-3 01 . ... : C-# 06 . ... : A#2 00 . Z40 ...
ROW 49 : ... .. . ... ... ... : A#2 0A F ... ... ... : A#1 02 . ... : ... .. . ... : ... .. . ... ...
ROW 4A : ... .. . ... ... ... : ... .. . ... ... ... : ... .. . ... : ... .. . ... : C#3 01 . ... ...
ROW 4B : ... .. . ... ... ... : C#3 0A 8 ... ... ... : ... .. . S01 : ... .. . ... : ... .. . ... ...
ROW 4C : ... .. . ... ... ... : ... .. . ... ... ... : A#1 02 . ... : C-# 03 . ... : C#3 00 . ... ...
ROW 4D : ... .. . ... ... ... : C#3 0A F ... ... ... : ... .. . ... : ... .. . ... : ... .. . ... ...
ROW 4E : ... .. . ... ... ... : ... .. . ... ... ... : ... .. . ... : ... .. . ... : A#2 01 . ... ...
ROW 4F : ... .. . ... ... ... : A#2 0A 8 ... ... ... : ... .. . S01 : ... .. . ... : ... .. . ... ...
ROW 50 : ... .. . ... ... ... : ... .. . ... ... ... : A#1 02 . ... : C-# 03 . ... : F-3 00 . ... ...
ROW 51 : ... .. . ... ... ... : F-3 0A F ... ... ... : ... .. . ... : ... .. . ... : ... .. . ... ...
ROW 52 : ... .. . ... ... ... : ... .. . ... ... ... : ... .. . ... : ... .. . ... : C#3 01 . ... ...
ROW 53 : ... .. . ... ... ... : C#3 0A 8 ... ... ... : ... .. . S01 : ... .. . ... : ... .. . ... ...
ROW 54 : ... .. C ... ... ... : ... .. . ... ... ... : G-3 00 . ... : 8-# 04 . ... : C#3 00 . Z30 ...
ROW 55 : ... .. . ... ... ... : C#3 0A F ... ... ... : A#2 02 . ... : ... .. . ... : ... .. . ... ...
ROW 56 : ... .. . ... ... ... : ... .. . ... ... ... : ... .. . ... : ... .. . ... : F-3 01 . ... ...
ROW 57 : ... .. . ... ... ... : F-3 0A 8 ... ... ... : ... .. . S01 : ... .. . ... : ... .. . ... ...
ROW 58 : ... .. 8 ... ... ... : ... .. . ... ... ... : F-3 01 . ... : C-# 06 . ... : F-3 00 . Z40 ...
ROW 59 : ... .. . ... ... ... : F-3 0A F ... ... ... : A#1 02 . ... : ... .. . ... : ... .. . ... ...
ROW 5A : ... .. . ... ... ... : ... .. . ... ... ... : ... .. . ... : ... .. . ... : C#3 01 . ... ...
ROW 5B : ... .. . ... ... ... : C#3 0A 8 ... ... ... : ... .. . S01 : ... .. . ... : ... .. . ... ...
ROW 5C : ... .. 6 ... ... ... : ... .. . ... ... ... : F-3 01 . ... : C-# 06 . ... : A#3 00 . Z40 ...
ROW 5D : ... .. . ... ... ... : A#3 0A F ... ... ... : A#1 02 . ... : ... .. . ... : ... .. . ... ...
ROW 5E : ... .. . ... ... ... : ... .. . ... ... ... : ... .. . ... : ... .. . ... : F-3 01 . ... ...
ROW 5F : ... .. . ... ... ... : F-3 0A 8 ... ... ... : ... .. . S01 : ... .. . ... : ... .. . ... ...

PATTERN 17
ROW 00 : G#4 0B E ... ... P7F : ... .. . ... ... P81 : F-3 01 . ... : C-# 06 . ... : B-3 00 . Z40 ...
ROW 01 : ... .. . ... ... ... : B-3 0A F ... ... ... : G#1 02 . ... : ... .. . ... : ... .. . ... ...
ROW 02 : ... .. . ... ... ... : ... .. . ... ... ... : ... .. . ... : ... .. . ... : A#3 01 . ... ...
ROW 03 : ... .. . ... ... ... : A#3 0A 8 ... ... ... : ... .. . S01 : ... .. . ... : ... .. . ... ...
ROW 04 : ... .. . ... ... ... : ... .. . ... ... ... : G#1 02 . ... : C-# 03 . ... : G#3 00 . ... ...
ROW 05 : ... .. . ... ... ... : G#3 0A F ... ... ... : ... .. . ... : ... .. . ... : ... .. . ... ...
ROW 06 : ... .. . ... ... ... : ... .. . ... ... ... : ... .. . ... : ... .. . ... : B-3 01 . ... ...
ROW 07 : ... .. . ... ... ... : B-3 0A 8 ... ... ... : ... .. . S01 : ... .. . ... : ... .. . ... ...
ROW 08 : ... .. . ... ... ... : ... .. . ... ... ... : G#1 02 . ... : C-# 03 . ... : D#3 00 . ... ...
ROW 09 : ... .. . ... ... ... : D#3 0A F ... ... ... : ... .. . ... : ... .. . ... : ... .. . ... ...
ROW 0A : ... .. . ... ... ... : ... .. . ... ... ... : ... .. . ... : ... .. . ... : G#3 01 . ... ...
ROW 0B : ... .. . ... ... ... : G#3 0A 8 ... ... ... : ... .. . S01 : ... .. . ... : ... .. . ... ...
ROW 0C : ... .. C ... ... ... : ... .. . ... ... ... : G-3 00 . ... : 8-# 04 . ... : G#3 00 . Z30 ...
ROW 0D : ... .. . ... ... ... : G#3 0A F ... ... ... : G#2 02 . ... : ... .. . ... : ... .. . ... ...
ROW 0E : ... .. . ... ... ... : ... .. . ... ... ... : ... .. . ... : ... .. . ... : D#3 01 . ... ...
ROW 0F : ... .. . ... ... ... : D#3 0A 8 ... ... ... : ... .. . S01 : ... .. . ... : ... .. . ... ...
ROW 10 : ... .. . ... ... ... : ... .. . ... ... ... : G#1 02 . ... : C-# 03 . ... : D#3 00 . ... ...
ROW 11 : ... .. . ... ... ... : D#3 0A F ... ... ... : ... .. . ... : ... .. . ... : ... .. . ... ...
ROW 12 : ... .. . ... ... ... : ... .. . ... ... ... : ... .. . ... : ... .. . ... : G#3 01 . ... ...
ROW 13 : ... .. . ... ... ... : G#3 0A 8 ... ... ... : ... .. . S01 : ... .. . ... : ... .. . ... ...
ROW 14 : ... .. 8 ... ... ... : ... .. . ... ... ... : G#1 02 . ... : C-# 03 . ... : B-2 00 . ... ...
ROW 15 : ... .. . ... ... ... : B-2 0A F ... ... ... : ... .. . ... : ... .. . ... : ... .. . ... ...
ROW 16 : ... .. . ... ... ... : ... .. . ... ... ... : ... .. . ... : ... .. . ... : D#3 01 . ... ...
ROW 17 : ... .. . ... ... ... : D#3 0A 8 ... ... ... : ... .. . S01 : ... .. . ... : ... .. . ... ...
ROW 18 : ... .. . ... ... ... : ... .. . ... ... ... : F-3 01 . ... : C-# 06 . ... : G#2 00 . Z40 ...
ROW 19 : ... .. . ... ... ... : G#2 0A F ... ... ... : G#1 02 . ... : ... .. . ... : ... .. . ... ...
ROW 1A : ... .. . ... ... ... : ... .. . ... ... ... : ... .. . ... : ... .. . ... : B-2 01 . ... ...
ROW 1B : ... .. . ... ... ... : B-2 0A 8 ... ... ... : ... .. . S01 : ... .. . ... : ... .. . ... ...
ROW 1C : ... .. 6 ... ... ... : ... .. . ... ... ... : G#1 02 . ... : C-# 03 . ... : B-2 00 . ... ...
ROW 1D : ... .. . ... ... ... : B-2 0A F ... ... ... : ... .. . ... : ... .. . ... : ... .. . ... ...
ROW 1E : ... .. . ... ... ... : ... .. . ... ... ... : ... .. . ... : ... .. . ... : G#2 01 . ... ...
ROW 1F : ... .. . ... ... ... : G#2 0A 8 ... ... ... : ... .. . S01 : ... .. . ... : ... .. . ... ...
ROW 20 : ... .. . ... ... ... : ... .. . ... ... ... : G#1 02 . ... : C-# 03 . ... : D#3 00 . ... ...
ROW 21 : ... .. . ... ... ... : D#3 0A F ... ... ... : ... .. . ... : ... .. . ... : ... .. . ... ...
ROW 22 : ... .. . ... ... ... : ... .. . ... ... ... : ... .. . ... : ... .. . ... : B-2 01 . ... ...
ROW 23 : ... .. . ... ... ... : B-2 0A 8 ... ... ... : ... .. . S01 : ... .. . ... : ... .. . ... ...
ROW 24 : ... .. 3 ... ... ... : ... .. . ... ... ... : G-3 00 . ... : 8-# 04 . ... : B-2 00 . Z30 ...
ROW 25 : ... .. . ... ... ... : B-2 0A F ... ... ... : G#2 02 . ... : ... .. . ... : ... .. . ... ...
ROW 26 : ... .. . ... ... ... : ... .. . ... ... ... : ... .. . ... : ... .. . ... : D#3 01 . ... ...
ROW 27 : ... .. . ... ... ... : D#3 0A 8 ... ... ... : ... .. . S01 : ... .. . ... : ... .. . ... ...
ROW 28 : A#4 0B E ... ... ... : ... .. . ... ... ... : G#1 02 . ... : C-# 03 . ... : D#3 00 . ... ...
ROW 29 : ... .. . ... ... ... : D#3 0A F ... ... ... : ... .. . ... : ... .. . ... : ... .. . ... ...
ROW 2A : ... .. . ... ... ... : ... .. . ... ... ... : ... .. . ... : ... .. . ... : B-2 01 . ... ...
ROW 2B : G#4 07 2 V02 ... ... : B-2 0A 8 ... ... ... : ... .. . S01 : ... .. . ... : ... .. . ... ...
ROW 2C : B-4 0B E ... ... ... : ... .. . ... ... ... : G#1 02 . ... : C-# 03 . ... : G#3 00 . ... ...
ROW 2D : ... .. . ... ... ... : G#3 0A F ... ... ... : ... .. . ... : ... .. . ... : ... .. . ... ...
ROW 2E : ... .. . ... ... ... : ... .. . ... ... ... : ... .. . ... : ... .. . ... : D#3 01 . ... ...
ROW 2F : A#4 07 2 ... ... ... : D#3 0A 8 ... ... ... : ... .. . S01 : ... .. . ... : ... .. . ... ...
ROW 30 : B-4 0B E ... ... ... : ... .. . ... ... ... : F-3 01 . ... : C-# 06 . ... : A#3 00 . Z40 ...
ROW 31 : ... .. . ... ... ... : A#3 0A F ... ... ... : A#1 02 . ... : ... .. . ... : ... .. . ... ...
ROW 32 : ... .. . ... ... ... : ... .. . ... ... ... : ... .. . ... : ... .. . ... : G#3 01 . ... ...
ROW 33 : B-4 07 2 ... ... ... : G#3 0A 8 ... ... ... : ... .. . S01 : ... .. . ... : ... .. . ... ...
ROW 34 : A#4 0B E ... ... ... : ... .. . ... ... ... : A#1 02 . ... : C-# 03 . ... : F-3 00 . ... ...
ROW 35 : ... .. . ... ... ... : F-3 0A F ... ... ... : ... .. . ... : ... .. . ... : ... .. . ... ...
ROW 36 : ... .. . ... ... ... : ... .. . ... ... ... : ... .. . ... : ... .. . ... : A#3 01 . ... ...
ROW 37 : ... .. . ... ... ... : A#3 0A 8 ... ... ... : ... .. . S01 : ... .. . ... : ... .. . ... ...
ROW 38 : ... .. . ... ... ... : ... .. . ... ... ... : A#1 02 . ... : C-# 03 . ... : D-3 00 . ... ...
ROW 39 : ... .. . ... ... ... : D-3 0A F ... ... ... : ... .. . ... : ... .. . ... : ... .. . ... ...
ROW 3A : ... .. . ... ... ... : ... .. . ... ... ... : ... .. . ... : ... .. . ... : F-3 01 . ... ...
ROW 3B : ... .. . ... ... ... : F-3 0A 8 ... ... ... : ... .. . S01 : ... .. . ... : ... .. . ... ...
ROW 3C : ... .. . ... ... ... : ... .. . ... ... ... : G-3 00 . ... : 8-# 04 . ... : F-3 00 . Z30 ...
ROW 3D : ... .. . ... ... ... : F-3 0A F ... ... ... : A#2 02 . ... : ... .. . ... : ... .. . ... ...
ROW 3E : ... .. . ... ... ... : ... .. . ... ... ... : ... .. . ... : ... .. . ... : D-3 01 . ... ...
ROW 3F : ... .. . ... ... ... : D-3 0A 8 ... ... ... : ... .. . S01 : ... .. . ... : ... .. . ... ...
ROW 40 : ... .. C ... ... ... : ... .. . ... ... ... : A#1 02 . ... : C-# 03 . ... : D-3 00 . ... ...
ROW 41 : ... .. . ... ... ... : D-3 0A F ... ... ... : ... .. . ... : ... .. . ... : ... .. . ... ...
ROW 42 : ... .. . ... ... ... : ... .. . ... ... ... : ... .. . ... : ... .. . ... : F-3 01 . ... ...
ROW 43 : ... .. . ... ... ... : F-3 0A 8 ... ... ... : ... .. . S01 : ... .. . ... : ... .. . ... ...
ROW 44 : ... .. . ... ... ... : ... .. . ... ... ... : A#1 02 . ... : C-# 03 . ... : A#2 00 . ... ...
ROW 45 : ... .. . ... ... ... : A#2 0A F ... ... ... : ... .. . ... : ... .. . ... : ... .. . ... ...
ROW 46 : ... .. 8 ... ... ... : ... .. . ... ... ... : ... .. . ... : ... .. . ... : D-3 01 . ... ...
ROW 47 : ... .. . ... ... ... : D-3 0A 8 ... ... ... : ... .. . S01 : ... .. . ... : ... .. . ... ...
ROW 48 : ... .. . ... ... ... : ... .. . ... ... ... : F-3 01 . ... : C-# 06 . ... : F-3 00 . Z40 ...
ROW 49 : ... .. . ... ... ... : F-3 0A F ... ... ... : D-2 02 . ... : ... .. . ... : ... .. . ... ...
ROW 4A : ... .. . ... ... ... : ... .. . ... ... ... : ... .. . ... : ... .. . ... : A#2 01 . ... ...
ROW 4B : ... .. . ... ... ... : A#2 0A 8 ... ... ... : ... .. . S01 : ... .. . ... : ... .. . ... ...
ROW 4C : ... .. 6 ... ... ... : ... .. . ... ... ... : G-3 00 . ... : 8-# 04 . ... : A#3 00 . Z30 ...
ROW 4D : ... .. . ... ... ... : A#3 0A F ... ... ... : D-2 02 . ... : ... .. . ... : ... .. . ... ...
ROW 4E : ... .. . ... ... ... : ... .. . ... ... ... : ... .. . ... : ... .. . ... : F-3 01 . ... ...
ROW 4F : ... .. . ... ... ... : F-3 0A 8 ... ... ... : ... .. . S01 : ... .. . ... : ... .. . ... ...
ROW 50 : ... .. . ... ... ... : ... .. . ... ... ... : G-3 00 . ... : 8-# 04 . ... : D-4 00 . Z30 ...
ROW 51 : ... .. . ... ... ... : D-4 0A F ... ... ... : D-2 02 . ... : ... .. . ... : ... .. . ... ...
ROW 52 : ... .. 3 ... ... ... : ... .. . ... ... ... : ... .. . ... : ... .. . ... : A#3 01 . ... ...
ROW 53 : ... .. . ... ... ... : A#3 0A 8 ... ... ... : ... .. . S01 : ... .. . ... : ... .. . ... ...
ROW 54 : ... .. . ... ... ... : A#2 05 F ... ... ... : G-3 00 . ... : 8-# 04 . ... : A#3 00 . Z30 ...
ROW 55 : ... .. . ... ... ... : ... .. . ... ... ... : D-3 02 . ... : ... .. . ... : ... .. . ... ...
ROW 56 : ... .. . ... ... ... : ... .. . ... ... ... : ... .. . ... : ... .. . ... : D-4 01 . ... ...
ROW 57 : ... .. . ... ... ... : ... .. . ... ... ... : ... .. . S01 : ... .. . ... : ... .. . ... ...
ROW 58 : D-3 02 F ... ... ... : ... .. . ... ... ... : G-3 00 . ... : 8-# 04 . ... : D-4 00 . Z30 ...
ROW 59 : ... .. . ... ... ... : ... .. . ... ... ... : D-2 02 . ... : ... .. . ... : ... .. . ... ...
ROW 5A : ... .. . ... ... ... : ... .. . ... ... ... : ... .. . ... : ... .. . ... : A#3 01 . ... ...
ROW 5B : ... .. . ... ... ... : ... .. . ... ... ... : ... .. . S01 : ... .. . ... : ... .. . ... ...
ROW 5C : ... .. . ... ... ... : F-3 05 F ... ... ... : G-3 00 . ... : 8-# 04 . ... : F-4 00 . Z30 ...
ROW 5D : ... .. . ... ... ... : ... .. . ... ... ... : D-2 02 . ... : ... .. . ... : ... .. . ... ...
ROW 5E : A#2 07 3 V01 ... ... : ... .. . ... ... ... : ... .. . ... : ... .. . ... : D-4 01 . ... ...
ROW 5F : D-3 02 2 V02 G02 ... : ... .. . ... ... ... : ... .. . S01 : ... .. . ... : ... .. . ... ...

PATTERN 18
ROW 00 : D#2 02 F ... ... P7F : ... .. . ... ... P81 : F-3 01 . ... : C-# 03 . ... : A#4 00 . Z40 ...
ROW 01 : ... .. . ... ... ... : ... .. . ... ... ... : D#2 02 . ... : ... .. . ... : ... .. . ... ...
ROW 02 : ... .. . ... ... ... : D-3 07 3 V02 ... ... : ... .. . ... : ... .. . ... : F-4 01 . ... ...
ROW 03 : ... .. . ... ... ... : A#2 07 2 V01 G02 ... : ... .. . S01 : ... .. . ... : ... .. . ... ...
ROW 04 : ... .. . ... ... ... : F#2 05 F ... ... ... : D#2 02 . ... : C-# 03 . ... : F#4 00 . ... ...
ROW 05 : ... .. . ... ... ... : ... .. . ... ... ... : ... .. . ... : ... .. . ... : ... .. . ... ...
ROW 06 : F-3 07 3 V01 ... ... : ... .. . ... ... ... : ... .. . ... : ... .. . ... : A#4 01 . ... ...
ROW 07 : D-3 07 2 V02 G02 ... : ... .. . ... ... ... : ... .. . S01 : ... .. . ... : ... .. . ... ...
ROW 08 : A#2 02 F ... ... ... : ... .. . ... ... ... : F-3 01 . ... : C-# 03 . ... : D#4 00 . Z40 ...
ROW 09 : ... .. . ... ... ... : ... .. . ... ... ... : D#2 02 . ... : ... .. . ... : ... .. . ... ...
ROW 0A : ... .. . ... ... ... : D#2 07 3 V02 ... ... : ... .. . ... : ... .. . ... : F#4 01 . ... ...
ROW 0B : ... .. . ... ... ... : F-3 07 2 V01 G02 ... : ... .. . S01 : ... .. . ... : ... .. . ... ...
ROW 0C : ... .. . ... ... ... : D#3 05 F ... ... ... : G-3 00 . ... : 8-# 04 . ... : F#4 00 . Z30 ...
ROW 0D : ... .. . ... ... ... : ... .. . ... ... ... : D#3 02 . ... : ... .. . ... : ... .. . ... ...
ROW 0E : F#2 07 3 V01 ... ... : ... .. . ... ... ... : ... .. . ... : ... .. . ... : D#4 01 . ... ...
ROW 0F : D#2 07 2 V02 G02 ... : ... .. . ... ... ... : ... .. . S01 : ... .. . ... : ... .. . ... ...
ROW 10 : A#2 02 F ... ... ... : ... .. . ... ... ... : D#2 02 . ... : C-# 03 . ... : D#4 00 . ... ...
ROW 11 : ... .. . ... ... ... : ... .. . ... ... ... : ... .. . ... : ... .. . ... : ... .. . ... ...
ROW 12 : ... .. . ... ... ... : A#2 07 3 V02 ... ... : ... .. . ... : ... .. . ... : F#4 01 . ... ...
ROW 13 : ... .. . ... ... ... : F#2 07 2 V01 G02 ... : ... .. . S01 : ... .. . ... : ... .. . ... ...
ROW 14 : ... .. . ... ... ... : D#3 05 F ... ... ... : F-3 01 . ... : C-# 03 . ... : A#3 00 . Z40 ...
ROW 15 : ... .. . ... ... ... : ... .. . ... ... ... : D#2 02 . ... : ... .. . ... : ... .. . ... ...
ROW 16 : D#3 07 3 V01 ... ... : ... .. . ... ... ... : ... .. . ... : ... .. . ... : D#4 01 . ... ...
ROW 17 : A#2 07 2 V02 G02 ... : ... .. . ... ... ... : ... .. . S01 : ... .. . ... : ... .. . ... ...
ROW 18 : F-3 02 F ... ... ... : ... .. . ... ... ... : F-3 01 . ... : C-# 03 . ... : D#4 00 . Z40 ...
ROW 19 : ... .. . ... ... ... : ... .. . ... ... ... : D#2 02 . ... : ... .. . ... : ... .. . ... ...
ROW 1A : ... .. . ... ... ... : A#2 07 3 V02 ... ... : ... .. . ... : ... .. . ... : A#3 01 . ... ...
ROW 1B : ... .. . ... ... ... : D#3 07 2 V01 G02 ... : ... .. . S01 : ... .. . ... : ... .. . ... ...
ROW 1C : ... .. . ... ... ... : D#3 05 F ... ... ... : D#2 02 . ... : C-# 03 . ... : A#3 00 . ... ...
ROW 1D : ... .. . ... ... ... : ... .. . ... ... ... : ... .. . ... : ... .. . ... : ... .. . ... ...
ROW 1E : D#3 07 3 V01 ... ... : ... .. . ... ... ... : ... .. . ... : ... .. . ... : D#4 01 . ... ...
ROW 1F : A#2 07 2 V02 G02 ... : ... .. . ... ... ... : ... .. . S01 : ... .. . ... : ... .. . ... ...
ROW 20 : F#3 02 F ... ... ... : ... .. . ... ... ... : F-3 01 . ... : C-# 03 . ... : F#3 00 . Z40 ...
ROW 21 : ... .. . ... ... ... : ... .. . ... ... ... : D#2 02 . ... : ... .. . ... : ... .. . ... ...
ROW 22 : ... .. . ... ... ... : F-3 07 3 V02 ... ... : ... .. . ... : ... .. . ... : A#3 01 . ... ...
ROW 23 : ... .. . ... ... ... : D#3 07 2 V01 G02 ... : ... .. . S01 : ... .. . ... : ... .. . ... ...
ROW 24 : ... .. . ... ... ... : D#3 05 F ... ... ... : G-3 00 . ... : 8-# 04 . ... : A#3 00 . Z30 ...
ROW 25 : ... .. . ... ... ... : ... .. . ... ... ... : D#3 02 . ... : ... .. . ... : ... .. . ... ...
ROW 26 : D#3 07 3 V01 ... ... : ... .. . ... ... ... : ... .. . ... : ... .. . ... : F#3 01 . ... ...
ROW 27 : F-3 07 2 V02 G02 ... : ... .. . ... ... ... : ... .. . S01 : ... .. . ... : ... .. . ... ...
ROW 28 : A#3 02 F ... ... P80 : ... .. . ... ... ... : D#2 02 . ... : C-# 03 . ... : F#3 00 . ... ...
ROW 29 : ... .. . ... ... ... : ... .. . ... ... ... : ... .. . ... : ... .. . ... : ... .. . ... ...
ROW 2A : ... .. . ... ... ... : F#3 07 3 V02 ... ... : ... .. . ... : ... .. . ... : A#3 01 . ... ...
ROW 2B : ... .. . ... ... ... : D#3 07 2 V01 G02 ... : ... .. . S01 : ... .. . ... : ... .. . ... ...
ROW 2C : ... .. . ... ... ... : B-3 05 F ... ... P80 : F-3 01 . ... : C-# 03 . ... : D#3 00 . Z40 ...
ROW 2D : ... .. . ... ... ... : ... .. . ... ... ... : D#2 02 . ... : ... .. . ... : ... .. . ... ...
ROW 2E : D#3 07 3 V01 P7F P7F : ... .. . ... ... ... : ... .. . ... : ... .. . ... : F#3 01 . ... ...
ROW 2F : F#3 07 2 V02 G02 ... : ... .. . ... ... ... : ... .. . S01 : ... .. . ... : ... .. . ... ...
ROW 30 : A#3 02 F ... ... P80 : ... .. . ... ... ... : F-3 01 . ... : C-# 03 . ... : G#4 00 . Z40 ...
ROW 31 : ... .. . ... ... ... : ... .. . ... ... ... : D-2 02 . ... : ... .. . ... : ... .. . ... ...
ROW 32 : ... .. . ... ... ... : A#3 07 3 V02 ... ... : ... .. . ... : ... .. . ... : D#3 01 . ... ...
ROW 33 : ... .. . ... ... ... : D#3 07 2 V01 G02 P81 : ... .. . S01 : ... .. . ... : ... .. . ... ...
ROW 34 : ... .. . ... ... ... : D-2 05 F ... ... ... : D-2 02 . ... : C-# 03 . ... : F-4 00 . ... ...
ROW 35 : ... .. . ... ... ... : ... .. . ... ... ... : ... .. . ... : ... .. . ... : ... .. . ... ...
ROW 36 : B-3 07 3 V01 ... ... : ... .. . ... ... ... : ... .. . ... : ... .. . ... : G#4 01 . ... ...
ROW 37 : A#3 07 2 V02 G02 ... : ... .. . ... ... ... : ... .. . S01 : ... .. . ... : ... .. . ... ...
ROW 38 : F-2 02 F P7F ... P7F : ... .. . ... ... ... : F-3 01 . ... : C-# 03 . ... : D-4 00 . Z40 ...
ROW 39 : ... .. . ... ... ... : ... .. . ... ... ... : D-2 02 . ... : ... .. . ... : ... .. . ... ...
ROW 3A : ... .. . ... ... ... : A#3 07 3 V02 ... P80 : ... .. . ... : ... .. . ... : F-4 01 . ... ...
ROW 3B : ... .. . ... ... ... : B-3 07 2 V01 G02 ... : ... .. . S01 : ... .. . ... : ... .. . ... ...
ROW 3C : ... .. . ... ... ... : A#2 05 F ... ... P81 : G-3 00 . ... : 8-# 04 . ... : F-4 00 . Z30 ...
ROW 3D : ... .. . ... ... ... : ... .. . ... ... ... : D-3 02 . ... : ... .. . ... : ... .. . ... ...
ROW 3E : D-2 07 3 V01 ... ... : ... .. . ... ... ... : ... .. . ... : ... .. . ... : D-4 01 . ... ...
ROW 3F : A#3 07 2 V02 G02 P80 : ... .. . ... ... ... : ... .. . S01 : ... .. . ... : ... .. . ... ...
ROW 40 : F-2 02 F ... ... P7F : ... .. . ... ... ... : D-2 02 . ... : C-# 03 . ... : D-4 00 . ... ...
ROW 41 : ... .. . ... ... ... : ... .. . ... ... ... : ... .. . ... : ... .. . ... : ... .. . ... ...
ROW 42 : ... .. . ... ... ... : F-2 07 3 V02 ... ... : ... .. . ... : ... .. . ... : F-4 01 . ... ...
ROW 43 : ... .. . ... ... ... : D-2 07 2 V01 G02 ... : ... .. . S01 : ... .. . ... : ... .. . ... ...
ROW 44 : ... .. . ... ... ... : A#2 05 F ... ... ... : F-3 01 . ... : C-# 03 . ... : G#3 00 . Z40 ...
ROW 45 : ... .. . ... ... ... : ... .. . ... ... ... : D-2 02 . ... : ... .. . ... : ... .. . ... ...
ROW 46 : A#2 07 3 V01 ... ... : ... .. . ... ... ... : ... .. . ... : ... .. . ... : D-4 01 . ... ...
ROW 47 : F-2 07 2 V02 G02 ... : ... .. . ... ... ... : ... .. . S01 : ... .. . ... : ... .. . ... ...
ROW 48 : D-3 02 F ... ... ... : ... .. . ... ... ... : F-3 01 . ... : C-# 03 . ... : D-4 00 . Z40 ...
ROW 49 : ... .. . ... ... ... : ... .. . ... ... ... : D-2 02 . ... : ... .. . ... : ... .. . ... ...
ROW 4A : ... .. . ... ... ... : F-2 07 3 V02 ... ... : ... .. . ... : ... .. . ... : G#3 01 . ... ...
ROW 4B : ... .. . ... ... ... : A#2 07 2 V01 G02 ... : ... .. . S01 : ... .. . ... : ... .. . ... ...
ROW 4C : ... .. . ... ... ... : F-3 05 F ... ... ... : D-2 02 . ... : C-# 03 . ... : G#3 00 . ... ...
ROW 4D : ... .. . ... ... ... : ... .. . ... ... ... : ... .. . ... : ... .. . ... : ... .. . ... ...
ROW 4E : A#2 07 3 V01 ... ... : ... .. . ... ... ... : ... .. . ... : ... .. . ... : D-4 01 . ... ...
ROW 4F : F-2 07 2 V02 G02 ... : ... .. . ... ... ... : ... .. . S01 : ... .. . ... : ... .. . ... ...
ROW 50 : F#3 02 F ... ... ... : ... .. . ... ... ... : F-3 01 . ... : C-# 03 . ... : F-3 00 . Z40 ...
ROW 51 : ... .. . ... ... ... : ... .. . ... ... ... : D-2 02 . ... : ... .. . ... : ... .. . ... ...
ROW 52 : ... .. . ... ... ... : D-3 07 3 V02 ... ... : ... .. . ... : ... .. . ... : G#3 01 . ... ...
ROW 53 : ... .. . ... ... ... : A#2 07 2 V01 G02 ... : ... .. . S01 : ... .. . ... : ... .. . ... ...
ROW 54 : ... .. . ... ... ... : G#3 05 F ... ... ... : G-3 00 . ... : 8-# 04 . ... : G#3 00 . Z30 ...
ROW 55 : ... .. . ... ... ... : ... .. . ... ... ... : D-3 02 . ... : ... .. . ... : ... .. . ... ...
ROW 56 : F-3 07 3 V01 ... ... : ... .. . ... ... ... : ... .. . ... : ... .. . ... : F-3 01 . ... ...
ROW 57 : D-3 07 2 V02 G02 ... : ... .. . ... ... ... : ... .. . S01 : ... .. . ... : ... .. . ... ...
ROW 58 : F#3 02 F ... ... ... : ... .. . ... ... ... : F-3 01 . ... : C-# 03 . ... : F-3 00 . Z40 ...
ROW 59 : ... .. . ... ... ... : ... .. . ... ... ... : D-2 02 . ... : ... .. . ... : ... .. . ... ...
ROW 5A : ... .. . ... ... ... : F#3 07 3 V02 ... ... : ... .. . ... : ... .. . ... : G#3 01 . ... ...
ROW 5B : ... .. . ... ... ... : F-3 07 2 V01 G02 ... : ... .. . S01 : ... .. . ... : ... .. . ... ...
ROW 5C : ... .. . ... ... ... : F-3 05 F ... ... ... : F-3 01 . ... : C-# 03 . ... : D-3 00 . Z40 ...
ROW 5D : ... .. . ... ... ... : ... .. . ... ... ... : D-2 02 . ... : ... .. . ... : ... .. . ... ...
ROW 5E : G#3 07 3 V01 ... ... : ... .. . ... ... ... : ... .. . ... : ... .. . ... : F-3 01 . ... ...
ROW 5F : F#3 07 2 V02 G02 ... : ... .. . ... ... ... : ... .. . S01 : ... .. . ... : ... .. . ... B05

# End of export
