# FamiTracker text export 0.4.2

# Song information
TITLE           "Space Dolphin's Space Cave"
AUTHOR          "Kulor"
COPYRIGHT       ""

# Song comment
COMMENT ""

# Global settings
MACHINE         0
FRAMERATE       0
EXPANSION       0
VIBRATO         1
SPLIT           21

# Macros
MACRO       0   0  -1  -1   0 : 15 14 13 12 11 10 9 8 7 6 6 6 5 5 5 4 4 4 3 3 3 2 2 2 1
MACRO       0   1  -1  -1   0 : 15 0
MACRO       0   2  -1  -1   0 : 15 15 15 15 15 0
MACRO       0   3  -1  -1   0 : 15 15 0
MACRO       0   4  -1  -1   0 : 15 14 13 12 0
MACRO       0   5  -1  -1   0 : 15 12 10 8 6 5 3 1 0
MACRO       0   6  -1  -1   0 : 15 15 15 15 0
MACRO       1   0  -1  -1   0 : 12 0
MACRO       1   1   0  -1   0 : 0 0 7 7 4 4 11 11
MACRO       1   2  -1  -1   0 : 0 -8 -16 -24 -32
MACRO       1   3   1  -1   0 : -1 10 8
MACRO       1   4   0  -1   0 : 0 0 6 6 4 4 11 11
MACRO       1   5   0  -1   0 : 0 0 5 5 9 9
MACRO       1   6   0  -1   0 : 0 0 7 7 3 3 10 10
MACRO       1   7  -1  -1   0 : 0 3 7 10
MACRO       1   8  -1  -1   0 : 0 4 7 11
MACRO       1   9   0  -1   0 : 0 0 4 4 6 6 10 10
MACRO       4   0  -1  -1   0 : 2 0 1

# DPCM samples

# Instruments
INST2A03   0    -1  -1  -1  -1  -1 "PlainChicken"
INST2A03   1    -1   0  -1  -1  -1 "Flipbass"
INST2A03   2     0   1  -1  -1  -1 "InvArp47B"
INST2A03   3     1  -1  -1  -1  -1 "Blop"
INST2A03   4     2   2  -1  -1  -1 "TriKick"
INST2A03   5     3  -1  -1  -1  -1 "DoubleBlop"
INST2A03   6     4   3  -1  -1  -1 "SneezeSnare"
INST2A03   7    -1   1  -1  -1  -1 "InvArpPlain47B"
INST2A03   8    -1   4  -1  -1  -1 "InvArpPlain46B"
INST2A03   9     5  -1  -1  -1  -1 "ShortHit"
INST2A03  10     0   5  -1  -1  -1 "Arpy59"
INST2A03  11    -1  -1  -1  -1   0 "Flicktar"
INST2A03  12     0   6  -1  -1  -1 "InvArp37A"
INST2A03  13     6   7  -1  -1  -1 "FastArp37A"
INST2A03  14     6   8  -1  -1  -1 "FastArp47B"
INST2A03  15    -1   9  -1  -1  -1 "InvArpPlain46A"

# Tracks

TRACK  64   3 165 "New song"
COLUMNS : 1 1 1 1 1

ORDER 00 : 00 02 00 00 00
ORDER 01 : 01 05 01 00 00
ORDER 02 : 10 0F 00 03 00
ORDER 03 : 01 06 01 04 00
ORDER 04 : 06 00 00 00 00
ORDER 05 : 07 03 01 00 00
ORDER 06 : 08 00 00 00 00
ORDER 07 : 09 01 01 00 00
ORDER 08 : 02 04 02 00 00
ORDER 09 : 03 07 03 00 00
ORDER 0A : 02 08 02 00 00
ORDER 0B : 03 09 03 00 00
ORDER 0C : 0C 0A 04 00 00
ORDER 0D : 0D 0B 05 00 00
ORDER 0E : 04 0C 06 00 00
ORDER 0F : 05 0D 07 01 00
ORDER 10 : 00 02 08 02 00
ORDER 11 : 01 05 09 02 00
ORDER 12 : 10 0F 08 05 00
ORDER 13 : 01 06 09 06 00
ORDER 14 : 06 00 08 02 00
ORDER 15 : 07 03 09 02 00
ORDER 16 : 08 00 08 02 00
ORDER 17 : 09 01 09 02 00
ORDER 18 : 0A 0E 0A 02 00
ORDER 19 : 0B 10 0B 02 00
ORDER 1A : 0A 11 0A 02 00
ORDER 1B : 13 12 0B 02 00
ORDER 1C : 11 13 0C 02 00
ORDER 1D : 12 14 0D 07 00
ORDER 1E : 0E 15 0E 02 00
ORDER 1F : 0F 16 0F 00 00

PATTERN 00
ROW 00 : D#3 02 F V00 : F-3 00 A V02 : E-3 04 . ... : 1-# 05 F ... : ... .. . ...
ROW 01 : ... .. . ... : ... .. . ... : C-3 00 . ... : ... .. . ... : ... .. . ...
ROW 02 : ... .. . ... : ... .. . Q42 : ... .. . ... : ... .. . ... : ... .. . ...
ROW 03 : ... .. . ... : ... .. . ... : ... .. . ... : ... .. . ... : ... .. . ...
ROW 04 : ... .. . V01 : --- .. . ... : --- .. . ... : 1-# 05 . ... : ... .. . ...
ROW 05 : ... .. . ... : ... .. . ... : ... .. . ... : ... .. . ... : ... .. . ...
ROW 06 : ... .. . ... : ... .. . ... : ... .. . ... : ... .. . ... : ... .. . ...
ROW 07 : ... .. . ... : ... .. . ... : ... .. . ... : ... .. . ... : ... .. . ...
ROW 08 : --- .. . ... : F-3 00 4 ... : C-3 03 . ... : 2-# 06 . ... : ... .. . ...
ROW 09 : ... .. . ... : ... .. . ... : ... .. . ... : ... .. . ... : ... .. . ...
ROW 0A : ... .. . ... : ... .. . Q42 : ... .. . ... : ... .. . ... : ... .. . ...
ROW 0B : ... .. . ... : ... .. . ... : ... .. . ... : ... .. . ... : ... .. . ...
ROW 0C : ... .. . ... : --- .. . ... : E-3 04 . ... : D-# 03 . ... : ... .. . ...
ROW 0D : ... .. . ... : ... .. . ... : --- .. . ... : ... .. . ... : ... .. . ...
ROW 0E : ... .. . ... : ... .. . ... : ... .. . ... : 2-# 06 6 ... : ... .. . ...
ROW 0F : ... .. . ... : ... .. . ... : ... .. . ... : ... .. . ... : ... .. . ...
ROW 10 : G#3 02 . V00 : A#3 00 A ... : E-3 04 . ... : 1-# 05 F ... : ... .. . ...
ROW 11 : ... .. . ... : ... .. . ... : F-2 00 . ... : ... .. . ... : ... .. . ...
ROW 12 : ... .. . ... : ... .. . ... : ... .. . ... : 2-# 06 9 ... : ... .. . ...
ROW 13 : ... .. . ... : ... .. . ... : ... .. . ... : ... .. . ... : ... .. . ...
ROW 14 : ... .. . V01 : --- .. . ... : E-3 04 . ... : 1-# 05 F ... : ... .. . ...
ROW 15 : ... .. . ... : ... .. . ... : --- .. . ... : ... .. . ... : ... .. . ...
ROW 16 : ... .. . ... : ... .. . ... : ... .. . ... : ... .. . ... : ... .. . ...
ROW 17 : ... .. . ... : ... .. . ... : ... .. . ... : ... .. . ... : ... .. . ...
ROW 18 : --- .. . ... : A#3 00 4 ... : F-2 03 . ... : 2-# 06 . ... : ... .. . ...
ROW 19 : ... .. . ... : ... .. . ... : ... .. . ... : ... .. . ... : ... .. . ...
ROW 1A : ... .. . ... : ... .. . ... : ... .. . ... : ... .. . ... : ... .. . ...
ROW 1B : ... .. . ... : ... .. . ... : ... .. . ... : ... .. . ... : ... .. . ...
ROW 1C : C#3 02 . V01 : C-4 00 A ... : E-3 04 . ... : D-# 03 . ... : ... .. . ...
ROW 1D : ... .. . ... : ... .. . ... : A#2 00 . ... : ... .. . ... : ... .. . ...
ROW 1E : ... .. . ... : ... .. . ... : ... .. . ... : ... .. . ... : ... .. . ...
ROW 1F : ... .. . ... : ... .. . ... : ... .. . ... : ... .. . ... : ... .. . ...
ROW 20 : ... .. . V00 : --- .. . ... : E-3 04 . ... : 1-# 05 . ... : ... .. . ...
ROW 21 : ... .. . ... : ... .. . ... : --- .. . ... : ... .. . ... : ... .. . ...
ROW 22 : ... .. . ... : ... .. . ... : ... .. . ... : ... .. . ... : ... .. . ...
ROW 23 : ... .. . ... : ... .. . ... : ... .. . ... : ... .. . ... : ... .. . ...
ROW 24 : --- .. . ... : C-4 00 4 ... : ... .. . ... : 1-# 05 . ... : ... .. . ...
ROW 25 : ... .. . ... : ... .. . ... : ... .. . ... : ... .. . ... : ... .. . ...
ROW 26 : ... .. . ... : ... .. . ... : ... .. . ... : ... .. . ... : ... .. . ...
ROW 27 : ... .. . ... : ... .. . ... : ... .. . ... : ... .. . ... : ... .. . ...
ROW 28 : B-2 02 . V02 : F-3 00 A ... : G#2 01 . ... : 2-# 06 . ... : ... .. . ...
ROW 29 : ... .. . ... : ... .. . ... : ... .. . ... : ... .. . ... : ... .. . ...
ROW 2A : ... .. . ... : ... .. . ... : ... .. . ... : --- .. . ... : ... .. . ...
ROW 2B : ... .. . ... : ... .. . ... : ... .. . ... : ... .. . ... : ... .. . ...
ROW 2C : ... .. . V01 : ... .. . R42 : E-3 04 . ... : D-# 03 . ... : ... .. . ...
ROW 2D : ... .. . ... : ... .. . ... : --- .. . ... : ... .. . ... : ... .. . ...
ROW 2E : ... .. . ... : --- .. . ... : ... .. . ... : 2-# 06 6 ... : ... .. . ...
ROW 2F : ... .. . ... : ... .. . ... : ... .. . ... : ... .. . ... : ... .. . ...
ROW 30 : --- .. . ... : F-3 00 4 ... : E-3 04 . ... : 1-# 05 F ... : ... .. . ...
ROW 31 : ... .. . ... : ... .. . ... : --- .. . ... : ... .. . ... : ... .. . ...
ROW 32 : ... .. . ... : ... .. . ... : ... .. . ... : 2-# 06 9 ... : ... .. . ...
ROW 33 : ... .. . ... : ... .. . ... : ... .. . ... : ... .. . ... : ... .. . ...
ROW 34 : ... .. . ... : ... .. . R42 : E-3 04 . ... : 1-# 05 F ... : ... .. . ...
ROW 35 : ... .. . ... : ... .. . ... : --- .. . ... : ... .. . ... : ... .. . ...
ROW 36 : ... .. . ... : --- .. . ... : ... .. . ... : ... .. . ... : ... .. . ...
ROW 37 : ... .. . ... : ... .. . ... : ... .. . ... : ... .. . ... : ... .. . ...
ROW 38 : ... .. . ... : F-3 00 2 ... : ... .. . ... : 2-# 06 . ... : ... .. . ...
ROW 39 : ... .. . ... : ... .. . ... : ... .. . ... : ... .. . ... : ... .. . ...
ROW 3A : ... .. . ... : ... .. . ... : ... .. . ... : D-# 03 . ... : ... .. . ...
ROW 3B : ... .. . ... : ... .. . ... : ... .. . D00 : ... .. . ... : ... .. . ...
ROW 3C : ... .. . ... : ... .. . ... : ... .. . ... : 1-# 05 . ... : ... .. . ...
ROW 3D : ... .. . ... : ... .. . ... : ... .. . ... : ... .. . ... : ... .. . ...
ROW 3E : ... .. . ... : ... .. . ... : ... .. . ... : ... .. . ... : ... .. . ...
ROW 3F : ... .. . ... : ... .. . ... : ... .. . ... : ... .. . ... : ... .. . ...

PATTERN 01
ROW 00 : ... .. . ... : ... .. . R42 : E-3 04 . ... : 1-# 05 F V01 : ... .. . ...
ROW 01 : ... .. . ... : ... .. . ... : --- .. . ... : ... .. . ... : ... .. . ...
ROW 02 : ... .. . ... : --- .. . ... : ... .. . ... : ... .. . ... : ... .. . ...
ROW 03 : ... .. . ... : ... .. . ... : ... .. . ... : ... .. . ... : ... .. . ...
ROW 04 : D#3 02 . V01 : F-3 00 A V02 : C-3 01 . ... : 1-# 05 . ... : ... .. . ...
ROW 05 : ... .. . ... : ... .. . ... : ... .. . ... : ... .. . ... : ... .. . ...
ROW 06 : ... .. . ... : ... .. . Q42 : ... .. . ... : ... .. . ... : ... .. . ...
ROW 07 : ... .. . ... : ... .. . ... : --- .. . G01 : ... .. . ... : ... .. . ...
ROW 08 : ... .. . V02 : --- .. . ... : C-3 03 . ... : 2-# 06 . ... : ... .. . ...
ROW 09 : ... .. . ... : ... .. . ... : ... .. . ... : ... .. . ... : ... .. . ...
ROW 0A : ... .. . ... : ... .. . ... : ... .. . ... : ... .. . ... : ... .. . ...
ROW 0B : ... .. . ... : ... .. . ... : ... .. . ... : ... .. . ... : ... .. . ...
ROW 0C : --- .. . ... : F-3 00 4 V02 : E-3 04 . ... : D-# 03 . ... : ... .. . ...
ROW 0D : ... .. . ... : ... .. . ... : --- .. . ... : ... .. . ... : ... .. . ...
ROW 0E : ... .. . ... : ... .. . Q42 : ... .. . ... : 2-# 06 6 ... : ... .. . ...
ROW 0F : ... .. . ... : ... .. . ... : ... .. . ... : ... .. . ... : ... .. . ...
ROW 10 : G#3 02 . V00 : D-4 00 A ... : E-3 04 . ... : 1-# 05 F ... : ... .. . ...
ROW 11 : ... .. . ... : D#4 00 . ... : F-2 00 . ... : ... .. . ... : ... .. . ...
ROW 12 : ... .. . ... : ... .. . ... : ... .. . ... : 2-# 06 9 ... : ... .. . ...
ROW 13 : ... .. . ... : ... .. . ... : ... .. . ... : ... .. . ... : ... .. . ...
ROW 14 : ... .. . V01 : --- .. . ... : E-3 04 . ... : 1-# 05 F ... : ... .. . ...
ROW 15 : ... .. . ... : ... .. . ... : --- .. . ... : ... .. . ... : ... .. . ...
ROW 16 : ... .. . ... : ... .. . ... : ... .. . ... : ... .. . ... : ... .. . ...
ROW 17 : ... .. . ... : ... .. . ... : ... .. . ... : ... .. . ... : ... .. . ...
ROW 18 : --- .. . ... : D-4 00 4 ... : F-2 03 . ... : 2-# 06 . ... : ... .. . ...
ROW 19 : ... .. . ... : D#4 00 . ... : ... .. . ... : ... .. . ... : ... .. . ...
ROW 1A : ... .. . ... : ... .. . ... : ... .. . ... : ... .. . ... : ... .. . ...
ROW 1B : ... .. . ... : ... .. . ... : ... .. . ... : ... .. . ... : ... .. . ...
ROW 1C : C#3 02 . V01 : F-4 00 A ... : E-3 04 . ... : D-# 03 . ... : ... .. . ...
ROW 1D : ... .. . ... : ... .. . ... : A#2 00 . ... : ... .. . ... : ... .. . ...
ROW 1E : ... .. . ... : ... .. . ... : ... .. . ... : ... .. . ... : ... .. . ...
ROW 1F : ... .. . ... : ... .. . ... : ... .. . ... : ... .. . ... : ... .. . ...
ROW 20 : ... .. . V00 : --- .. . ... : E-3 04 . ... : 1-# 05 . V00 : ... .. . ...
ROW 21 : ... .. . ... : ... .. . ... : --- .. . ... : ... .. . ... : ... .. . ...
ROW 22 : ... .. . ... : ... .. . ... : ... .. . ... : ... .. . ... : ... .. . ...
ROW 23 : ... .. . ... : ... .. . ... : ... .. . ... : ... .. . ... : ... .. . ...
ROW 24 : --- .. . ... : F-4 00 4 ... : ... .. . ... : 1-# 05 . ... : ... .. . ...
ROW 25 : ... .. . ... : ... .. . ... : ... .. . ... : --- .. . ... : ... .. . ...
ROW 26 : ... .. . ... : ... .. . ... : ... .. . ... : ... .. . ... : ... .. . ...
ROW 27 : ... .. . ... : ... .. . ... : ... .. . ... : ... .. . ... : ... .. . ...
ROW 28 : ... .. . ... : G#3 00 A ... : ... .. . ... : 2-# 06 . ... : ... .. . ...
ROW 29 : ... .. . ... : ... .. . ... : ... .. . ... : --- .. . ... : ... .. . ...
ROW 2A : ... .. . ... : ... .. . ... : ... .. . ... : ... .. . ... : ... .. . ...
ROW 2B : ... .. . ... : ... .. . ... : ... .. . ... : ... .. . ... : ... .. . ...
ROW 2C : B-2 02 . V02 : A#3 00 A ... : E-3 04 . ... : D-# 03 . ... : ... .. . ...
ROW 2D : ... .. . ... : ... .. . ... : G#2 00 . ... : ... .. . ... : ... .. . ...
ROW 2E : ... .. . ... : ... .. . ... : ... .. . ... : 2-# 06 6 ... : ... .. . ...
ROW 2F : ... .. . ... : ... .. . ... : ... .. . ... : --- .. . ... : ... .. . ...
ROW 30 : ... .. . V01 : --- .. . ... : E-3 04 . ... : 1-# 05 F ... : ... .. . ...
ROW 31 : ... .. . ... : ... .. . ... : --- .. . ... : ... .. . ... : ... .. . ...
ROW 32 : ... .. . ... : ... .. . ... : ... .. . ... : D-# 03 . ... : ... .. . ...
ROW 33 : ... .. . ... : ... .. . ... : ... .. . ... : ... .. . ... : ... .. . ...
ROW 34 : --- .. . ... : A#3 00 4 ... : E-3 04 . ... : D-# 00 6 ... : ... .. . ...
ROW 35 : ... .. . ... : ... .. . ... : --- .. . ... : ... .. . ... : ... .. . ...
ROW 36 : ... .. . ... : ... .. . ... : ... .. . ... : D-# 03 F ... : ... .. . ...
ROW 37 : ... .. . ... : ... .. . ... : ... .. . ... : ... .. . ... : ... .. . ...
ROW 38 : ... .. . V02 : --- .. . ... : ... .. . ... : 2-# 06 . ... : ... .. . ...
ROW 39 : ... .. . ... : ... .. . ... : ... .. . ... : ... .. . ... : ... .. . ...
ROW 3A : ... .. . ... : ... .. . ... : ... .. . ... : D-# 03 . ... : ... .. . ...
ROW 3B : ... .. . ... : ... .. . ... : ... .. . D00 : ... .. . ... : ... .. . ...
ROW 3C : ... .. . ... : ... .. . ... : ... .. . ... : D-# 00 6 ... : ... .. . ...
ROW 3D : ... .. . ... : ... .. . ... : ... .. . ... : ... .. . ... : ... .. . ...
ROW 3E : ... .. . ... : ... .. . ... : ... .. . ... : D-# 03 F ... : ... .. . ...
ROW 3F : ... .. . ... : ... .. . ... : ... .. . ... : ... .. . ... : ... .. . ...

PATTERN 02
ROW 00 : G#2 02 F V00 : D-4 01 A V02 : E-3 04 . ... : 1-# 05 F ... : ... .. . ...
ROW 01 : ... .. . ... : --- .. . V00 : F-2 00 . ... : ... .. . ... : ... .. . ...
ROW 02 : ... .. . ... : A#3 01 A V02 : ... .. . ... : D-# 03 . ... : ... .. . ...
ROW 03 : ... .. . ... : D-4 01 3 V00 : ... .. . ... : ... .. . ... : ... .. . ...
ROW 04 : ... .. . ... : G-3 01 9 V02 : E-3 04 . ... : D-# 00 6 ... : ... .. . ...
ROW 05 : ... .. . ... : A#3 01 3 V00 : --- .. . ... : ... .. . ... : ... .. . ...
ROW 06 : ... .. . ... : D#3 01 9 V02 : ... .. . ... : D-# 03 F ... : ... .. . ...
ROW 07 : ... .. . ... : G-3 01 3 V00 : ... .. . ... : ... .. . ... : ... .. . ...
ROW 08 : A#2 0A 5 ... : D-3 01 8 V02 : F-2 03 . ... : 2-# 06 . ... : ... .. . ...
ROW 09 : ... .. . ... : D#3 01 3 V00 : ... .. . ... : ... .. . ... : ... .. . ...
ROW 0A : ... .. . ... : A#2 01 8 V02 : ... .. . ... : D-# 03 . ... : ... .. . ...
ROW 0B : ... .. . ... : D-3 01 3 V00 : ... .. . ... : ... .. . ... : ... .. . ...
ROW 0C : G#2 02 F ... : G-2 01 7 V02 : E-3 04 . ... : D-# 00 6 ... : ... .. . ...
ROW 0D : ... .. . ... : A#2 01 3 V00 : F-2 00 . ... : ... .. . ... : ... .. . ...
ROW 0E : ... .. . ... : D#2 01 7 V02 : ... .. . ... : D-# 03 F ... : ... .. . ...
ROW 0F : ... .. . ... : G-2 01 3 V00 : ... .. . ... : ... .. . ... : ... .. . ...
ROW 10 : ... .. . ... : D#4 01 A V02 : E-3 04 . ... : 1-# 05 F ... : ... .. . ...
ROW 11 : ... .. . ... : D#2 01 3 V00 : --- .. . ... : ... .. . ... : ... .. . ...
ROW 12 : ... .. . ... : C-4 01 A V02 : ... .. . ... : D-# 03 . ... : ... .. . ...
ROW 13 : ... .. . ... : D#4 01 3 V00 : ... .. . ... : ... .. . ... : ... .. . ...
ROW 14 : A#2 0A 5 ... : G#3 01 9 V02 : E-3 04 . ... : D-# 00 6 ... : ... .. . ...
ROW 15 : ... .. . ... : C-4 01 3 V00 : --- .. . ... : ... .. . ... : ... .. . ...
ROW 16 : ... .. . ... : G-3 01 9 V02 : ... .. . ... : D-# 03 F ... : ... .. . ...
ROW 17 : ... .. . ... : G#3 01 3 V00 : ... .. . ... : ... .. . ... : ... .. . ...
ROW 18 : G#2 02 F V01 : D#3 01 8 V02 : F-2 01 . ... : 2-# 06 . ... : ... .. . ...
ROW 19 : ... .. . ... : G-3 01 3 V00 : ... .. . ... : ... .. . ... : ... .. . ...
ROW 1A : ... .. . ... : C-3 01 8 V02 : ... .. . ... : D-# 03 . ... : ... .. . ...
ROW 1B : ... .. . ... : D#3 01 3 V00 : --- .. . ... : ... .. . ... : ... .. . ...
ROW 1C : ... .. . ... : C-4 01 A V02 : F-2 03 . ... : D-# 00 6 ... : ... .. . ...
ROW 1D : ... .. . ... : C-3 01 3 V00 : ... .. . ... : ... .. . ... : ... .. . ...
ROW 1E : ... .. . ... : G#3 01 A V02 : ... .. . ... : D-# 03 F ... : ... .. . ...
ROW 1F : ... .. . ... : C-4 01 3 V00 : ... .. . ... : ... .. . ... : ... .. . ...
ROW 20 : A#2 0A 5 ... : F-3 01 9 V02 : E-3 04 . ... : 1-# 05 F ... : ... .. . ...
ROW 21 : ... .. . ... : G#3 01 3 V00 : --- .. . ... : ... .. . ... : ... .. . ...
ROW 22 : ... .. . ... : C#3 01 9 V02 : ... .. . ... : D-# 03 . ... : ... .. . ...
ROW 23 : ... .. . ... : F-3 01 3 V00 : ... .. . ... : ... .. . ... : ... .. . ...
ROW 24 : ... .. . ... : C-3 01 8 V02 : E-3 04 . ... : D-# 00 6 ... : ... .. . ...
ROW 25 : ... .. . ... : C#3 01 3 V00 : --- .. . ... : ... .. . ... : ... .. . ...
ROW 26 : ... .. . ... : G#2 01 8 V02 : ... .. . ... : D-# 03 F ... : ... .. . ...
ROW 27 : ... .. . ... : C-3 01 3 V00 : ... .. . ... : ... .. . ... : ... .. . ...
ROW 28 : F-1 01 8 V02 : D#4 01 A V02 : F-2 03 . ... : 2-# 06 . ... : ... .. . ...
ROW 29 : --- .. . ... : G#2 01 3 V00 : ... .. . ... : ... .. . ... : ... .. . ...
ROW 2A : F-2 01 . ... : B-3 01 A V02 : F-3 03 . ... : D-# 03 . ... : ... .. . ...
ROW 2B : ... .. . ... : D#4 01 3 V00 : ... .. . ... : ... .. . ... : ... .. . ...
ROW 2C : F-1 01 . ... : A#3 01 9 V02 : E-3 04 . ... : D-# 00 6 ... : ... .. . ...
ROW 2D : ... .. . ... : B-3 01 3 V00 : F-2 00 . ... : ... .. . ... : ... .. . ...
ROW 2E : ... .. . ... : F#3 01 9 V02 : ... .. . ... : D-# 03 F ... : ... .. . ...
ROW 2F : ... .. . ... : A#3 01 3 V00 : ... .. . D00 : ... .. . ... : ... .. . ...
ROW 30 : ... .. . ... : D#3 01 8 V02 : ... .. . ... : 1-# 05 F ... : ... .. . ...
ROW 31 : ... .. . ... : F#3 01 3 V00 : ... .. . ... : ... .. . ... : ... .. . ...
ROW 32 : ... .. . ... : B-2 01 8 V02 : ... .. . ... : D-# 03 . ... : ... .. . ...
ROW 33 : ... .. . ... : D#3 01 3 V00 : ... .. . ... : ... .. . ... : ... .. . ...
ROW 34 : ... .. . ... : A#2 01 7 V02 : ... .. . ... : D-# 00 6 ... : ... .. . ...
ROW 35 : ... .. . ... : B-2 01 3 V00 : ... .. . ... : ... .. . ... : ... .. . ...
ROW 36 : ... .. . ... : F#2 01 7 V02 : ... .. . ... : D-# 03 F ... : ... .. . ...
ROW 37 : ... .. . ... : A#2 01 3 V00 : ... .. . ... : ... .. . ... : ... .. . ...
ROW 38 : ... .. . ... : D#2 01 6 V02 : ... .. . ... : 2-# 06 . ... : ... .. . ...
ROW 39 : ... .. . ... : F#2 01 2 V00 : ... .. . ... : ... .. . ... : ... .. . ...
ROW 3A : ... .. . ... : B-1 01 6 V02 : ... .. . ... : D-# 03 . ... : ... .. . ...
ROW 3B : ... .. . ... : D#2 01 2 V00 : ... .. . ... : ... .. . ... : ... .. . ...
ROW 3C : ... .. . ... : ... .. . ... : ... .. . ... : 5-# 05 . ... : ... .. . ...
ROW 3D : ... .. . ... : ... .. . ... : ... .. . ... : 4-# 05 . ... : ... .. . ...
ROW 3E : ... .. . ... : ... .. . ... : ... .. . ... : 3-# 05 . ... : ... .. . ...
ROW 3F : ... .. . ... : ... .. . ... : ... .. . ... : 2-# 05 . ... : ... .. . ...

PATTERN 03
ROW 00 : A#2 02 F V02 : ... .. . R42 : E-3 04 . ... : 9-# 00 F V01 : ... .. . ...
ROW 01 : ... .. . ... : ... .. . ... : G-2 00 . ... : ... .. 3 ... : ... .. . ...
ROW 02 : ... .. . ... : --- .. . ... : ... .. . ... : ... .. . ... : ... .. . ...
ROW 03 : ... .. . ... : ... .. . ... : ... .. . ... : ... .. . ... : ... .. . ...
ROW 04 : ... .. . ... : F-3 00 A V02 : E-3 04 . ... : 1-# 05 F V00 : ... .. . ...
ROW 05 : ... .. . ... : ... .. . ... : --- .. . ... : ... .. . ... : ... .. . ...
ROW 06 : ... .. . ... : ... .. . Q42 : ... .. . ... : ... .. . ... : ... .. . ...
ROW 07 : ... .. . ... : ... .. . ... : ... .. . ... : ... .. . ... : ... .. . ...
ROW 08 : C-3 0A 5 ... : --- .. . ... : G-2 03 . ... : 2-# 06 . ... : ... .. . ...
ROW 09 : ... .. . ... : ... .. . ... : ... .. . ... : ... .. . ... : ... .. . ...
ROW 0A : ... .. . ... : ... .. . ... : ... .. . ... : ... .. . ... : ... .. . ...
ROW 0B : ... .. . ... : ... .. . ... : ... .. . ... : ... .. . ... : ... .. . ...
ROW 0C : A#2 02 F ... : F-3 00 4 V02 : E-3 04 . ... : D-# 03 . ... : ... .. . ...
ROW 0D : ... .. . ... : ... .. . ... : G-2 00 . ... : ... .. . ... : ... .. . ...
ROW 0E : ... .. . ... : ... .. . Q42 : ... .. . ... : 2-# 06 6 ... : ... .. . ...
ROW 0F : ... .. . ... : ... .. . ... : ... .. . ... : ... .. . ... : ... .. . ...
ROW 10 : ... .. . ... : A#3 00 A ... : E-3 04 . ... : 1-# 05 F ... : ... .. . ...
ROW 11 : ... .. . ... : ... .. . ... : --- .. . ... : ... .. . ... : ... .. . ...
ROW 12 : ... .. . ... : ... .. . ... : ... .. . ... : 2-# 06 9 ... : ... .. . ...
ROW 13 : ... .. . ... : ... .. . ... : ... .. . ... : ... .. . ... : ... .. . ...
ROW 14 : C-3 0A 5 ... : --- .. . ... : E-3 04 . ... : 1-# 05 F ... : ... .. . ...
ROW 15 : ... .. . ... : ... .. . ... : --- .. . ... : ... .. . ... : ... .. . ...
ROW 16 : ... .. . ... : ... .. . ... : ... .. . ... : ... .. . ... : ... .. . ...
ROW 17 : ... .. . ... : ... .. . ... : ... .. . ... : ... .. . ... : ... .. . ...
ROW 18 : A#2 02 F V01 : A#3 00 4 ... : G-2 01 . ... : 2-# 06 . ... : ... .. . ...
ROW 19 : ... .. . ... : ... .. . ... : ... .. . ... : ... .. . ... : ... .. . ...
ROW 1A : ... .. . ... : ... .. . ... : ... .. . ... : ... .. . ... : ... .. . ...
ROW 1B : ... .. . ... : ... .. . ... : --- .. . ... : ... .. . ... : ... .. . ...
ROW 1C : ... .. . ... : C-4 00 A ... : G-2 03 . ... : D-# 03 . ... : ... .. . ...
ROW 1D : ... .. . ... : ... .. . ... : ... .. . ... : ... .. . ... : ... .. . ...
ROW 1E : ... .. . ... : ... .. . ... : ... .. . ... : ... .. . ... : ... .. . ...
ROW 1F : ... .. . ... : ... .. . ... : ... .. . ... : ... .. . ... : ... .. . ...
ROW 20 : C-3 0A 5 ... : --- .. . ... : E-3 04 . ... : 1-# 05 . ... : ... .. . ...
ROW 21 : ... .. . ... : ... .. . ... : --- .. . ... : ... .. . ... : ... .. . ...
ROW 22 : ... .. . ... : ... .. . ... : ... .. . ... : ... .. . ... : ... .. . ...
ROW 23 : ... .. . ... : ... .. . ... : ... .. . ... : ... .. . ... : ... .. . ...
ROW 24 : ... .. . ... : C-4 00 4 ... : E-3 04 . ... : 1-# 05 . ... : ... .. . ...
ROW 25 : ... .. . ... : ... .. . ... : --- .. . ... : ... .. . ... : ... .. . ...
ROW 26 : ... .. . ... : ... .. . ... : ... .. . ... : ... .. . ... : ... .. . ...
ROW 27 : ... .. . ... : ... .. . ... : ... .. . ... : ... .. . ... : ... .. . ...
ROW 28 : G-2 01 8 V02 : D#4 00 A ... : G-2 03 . ... : 2-# 06 . ... : ... .. . ...
ROW 29 : ... .. . ... : ... .. . ... : ... .. . ... : ... .. . ... : ... .. . ...
ROW 2A : ... .. . ... : ... .. . ... : G-3 03 . ... : --- .. . ... : ... .. . ...
ROW 2B : ... .. . ... : ... .. . ... : ... .. . ... : ... .. . ... : ... .. . ...
ROW 2C : G-1 01 . ... : ... .. . R42 : E-3 04 . ... : D-# 03 . ... : ... .. . ...
ROW 2D : --- .. . ... : ... .. . ... : G-2 00 . ... : ... .. . ... : ... .. . ...
ROW 2E : G-1 01 . ... : --- .. . ... : ... .. . ... : 2-# 06 6 ... : ... .. . ...
ROW 2F : ... .. . ... : ... .. . ... : ... .. . D00 : ... .. . ... : ... .. . ...
ROW 30 : ... .. . ... : D#4 00 4 ... : ... .. . ... : 1-# 05 F ... : ... .. . ...
ROW 31 : ... .. . ... : ... .. . ... : ... .. . ... : ... .. . ... : ... .. . ...
ROW 32 : ... .. . ... : ... .. . ... : ... .. . ... : 2-# 06 9 ... : ... .. . ...
ROW 33 : ... .. . ... : ... .. . ... : ... .. . ... : ... .. . ... : ... .. . ...
ROW 34 : ... .. . ... : ... .. . R42 : ... .. . ... : 1-# 05 F ... : ... .. . ...
ROW 35 : ... .. . ... : ... .. . ... : ... .. . ... : ... .. . ... : ... .. . ...
ROW 36 : ... .. . ... : --- .. . ... : ... .. . ... : ... .. . ... : ... .. . ...
ROW 37 : ... .. . ... : ... .. . ... : ... .. . ... : ... .. . ... : ... .. . ...
ROW 38 : ... .. . ... : D#4 00 2 ... : ... .. . ... : 2-# 06 . ... : ... .. . ...
ROW 39 : ... .. . ... : ... .. . ... : ... .. . ... : ... .. . ... : ... .. . ...
ROW 3A : ... .. . ... : ... .. . ... : ... .. . ... : D-# 03 . ... : ... .. . ...
ROW 3B : ... .. . ... : ... .. . ... : ... .. . ... : ... .. . ... : ... .. . ...
ROW 3C : ... .. . ... : ... .. . ... : ... .. . ... : ... .. . ... : ... .. . ...
ROW 3D : ... .. . ... : ... .. . ... : ... .. . ... : ... .. . ... : ... .. . ...
ROW 3E : ... .. . ... : ... .. . ... : ... .. . ... : ... .. . ... : ... .. . ...
ROW 3F : ... .. . ... : ... .. . ... : ... .. . ... : ... .. . ... : ... .. . ...

PATTERN 04
ROW 00 : B-2 07 A V00 : ... .. . ... : E-3 04 . ... : 1-# 05 F ... : ... .. . ...
ROW 01 : ... .. . ... : ... .. . ... : A#2 00 . ... : ... .. . ... : ... .. . ...
ROW 02 : ... .. . ... : ... .. . ... : ... .. . ... : ... .. . ... : ... .. . ...
ROW 03 : ... .. 9 ... : ... .. . ... : ... .. . ... : ... .. . ... : ... .. . ...
ROW 04 : ... .. . ... : G-3 0B A V01 : E-3 04 . ... : 1-# 05 . ... : ... .. . ...
ROW 05 : ... .. . ... : ... .. 9 ... : --- .. . ... : ... .. . ... : ... .. . ...
ROW 06 : ... .. 8 ... : ... .. 8 ... : ... .. . ... : ... .. . ... : ... .. . ...
ROW 07 : ... .. . ... : ... .. 7 ... : ... .. . ... : ... .. . ... : ... .. . ...
ROW 08 : ... .. . V01 : G#3 0B A G02 : A#2 03 . ... : 2-# 06 . ... : ... .. . ...
ROW 09 : ... .. 7 ... : ... .. 9 ... : ... .. . ... : ... .. . ... : ... .. . ...
ROW 0A : ... .. . ... : ... .. 8 ... : ... .. . ... : ... .. . ... : ... .. . ...
ROW 0B : ... .. . ... : ... .. 7 ... : ... .. . ... : ... .. . ... : ... .. . ...
ROW 0C : ... .. 6 ... : D#4 00 A G04 : E-3 04 . ... : D-# 03 . ... : ... .. . ...
ROW 0D : ... .. . ... : ... .. 9 ... : A#2 00 . ... : ... .. . ... : ... .. . ...
ROW 0E : ... .. . ... : ... .. 8 ... : ... .. . ... : 2-# 06 6 ... : ... .. . ...
ROW 0F : ... .. . ... : ... .. 7 ... : ... .. . ... : ... .. . ... : ... .. . ...
ROW 10 : ... .. . V02 : A#3 0B A ... : E-3 04 . ... : 1-# 05 F ... : ... .. . ...
ROW 11 : ... .. . ... : B-3 00 9 ... : --- .. . ... : ... .. . ... : ... .. . ...
ROW 12 : ... .. 5 ... : A#3 00 8 ... : ... .. . ... : 2-# 06 9 ... : ... .. . ...
ROW 13 : ... .. . ... : G#3 00 7 ... : ... .. . ... : ... .. . ... : ... .. . ...
ROW 14 : ... .. . ... : ... .. 6 ... : E-3 04 . ... : 1-# 05 F ... : ... .. . ...
ROW 15 : ... .. . ... : A#3 0B A ... : --- .. . ... : ... .. . ... : ... .. . ...
ROW 16 : ... .. . ... : ... .. . ... : ... .. . ... : ... .. . ... : ... .. . ...
ROW 17 : ... .. . ... : ... .. . 484 : ... .. . ... : ... .. . ... : ... .. . ...
ROW 18 : ... .. 4 V01 : ... .. . ... : A#2 01 . ... : 2-# 06 . ... : ... .. . ...
ROW 19 : ... .. . ... : ... .. . ... : ... .. . ... : ... .. . ... : ... .. . ...
ROW 1A : ... .. . ... : G#3 0B A 400 : ... .. . ... : ... .. . ... : ... .. . ...
ROW 1B : ... .. . ... : ... .. 9 ... : --- .. . ... : ... .. . ... : ... .. . ...
ROW 1C : ... .. . ... : F-3 00 . G02 : A#2 03 . ... : D-# 03 . ... : ... .. . ...
ROW 1D : ... .. . ... : ... .. 8 ... : ... .. . ... : ... .. . ... : ... .. . ...
ROW 1E : ... .. . ... : D#3 00 7 G04 : ... .. . ... : ... .. . ... : ... .. . ...
ROW 1F : ... .. . ... : ... .. . ... : ... .. . ... : ... .. . ... : ... .. . ...
ROW 20 : ... .. 3 V00 : ... .. 6 ... : E-3 04 . ... : 1-# 05 . ... : ... .. . ...
ROW 21 : ... .. . ... : G#3 0B A ... : --- .. . ... : ... .. . ... : ... .. . ...
ROW 22 : ... .. . ... : ... .. 9 ... : ... .. . ... : ... .. . ... : ... .. . ...
ROW 23 : ... .. . ... : F-3 00 . G02 : ... .. . ... : ... .. . ... : ... .. . ...
ROW 24 : ... .. . ... : ... .. 8 ... : E-3 04 . ... : 1-# 05 . ... : ... .. . ...
ROW 25 : ... .. . ... : D#3 00 7 G04 : --- .. . ... : ... .. . ... : ... .. . ...
ROW 26 : ... .. . V01 : ... .. . ... : ... .. . ... : ... .. . ... : ... .. . ...
ROW 27 : ... .. . ... : ... .. 6 ... : ... .. . ... : ... .. . ... : ... .. . ...
ROW 28 : ... .. . ... : C-3 0B A ... : A#2 03 . ... : 2-# 06 . ... : ... .. . ...
ROW 29 : ... .. . ... : ... .. . ... : ... .. . ... : ... .. . ... : ... .. . ...
ROW 2A : ... .. . ... : --- .. . ... : A#3 03 . ... : --- .. . ... : ... .. . ...
ROW 2B : ... .. . ... : ... .. . ... : ... .. . ... : ... .. . ... : ... .. . ...
ROW 2C : ... .. 2 V02 : D#3 0B A ... : E-3 04 . ... : D-# 03 . ... : ... .. . ...
ROW 2D : ... .. . ... : ... .. 8 ... : A#2 00 . ... : ... .. . ... : ... .. . ...
ROW 2E : ... .. . ... : G-3 0B A ... : ... .. . ... : 2-# 06 6 ... : ... .. . ...
ROW 2F : ... .. . ... : ... .. 8 ... : ... .. . D00 : ... .. . ... : ... .. . ...
ROW 30 : ... .. . ... : ... .. . ... : ... .. . ... : 1-# 05 F ... : ... .. . ...
ROW 31 : ... .. . ... : ... .. . ... : ... .. . ... : ... .. . ... : ... .. . ...
ROW 32 : ... .. . V01 : ... .. . ... : ... .. . ... : 2-# 06 9 ... : ... .. . ...
ROW 33 : ... .. . ... : ... .. . ... : ... .. . ... : ... .. . ... : ... .. . ...
ROW 34 : ... .. . ... : ... .. . ... : ... .. . ... : 1-# 05 F ... : ... .. . ...
ROW 35 : ... .. . ... : ... .. . ... : ... .. . ... : ... .. . ... : ... .. . ...
ROW 36 : ... .. . ... : ... .. . ... : ... .. . ... : F-# 03 . ... : ... .. . ...
ROW 37 : ... .. . ... : ... .. . ... : ... .. . ... : E-# 03 . ... : ... .. . ...
ROW 38 : ... .. . V00 : ... .. . ... : ... .. . ... : D-# 03 . ... : ... .. . ...
ROW 39 : ... .. . ... : ... .. . ... : ... .. . ... : C-# 03 . ... : ... .. . ...
ROW 3A : ... .. . ... : ... .. . ... : ... .. . ... : B-# 03 . ... : ... .. . ...
ROW 3B : ... .. . ... : ... .. . ... : ... .. . ... : A-# 03 . ... : ... .. . ...
ROW 3C : ... .. . V01 : ... .. . ... : ... .. . ... : ... .. . ... : ... .. . ...
ROW 3D : ... .. . ... : ... .. . ... : ... .. . ... : ... .. . ... : ... .. . ...
ROW 3E : ... .. . ... : ... .. . ... : ... .. . ... : ... .. . ... : ... .. . ...
ROW 3F : ... .. . ... : ... .. . ... : ... .. . ... : ... .. . ... : ... .. . ...

PATTERN 05
ROW 00 : B-2 08 8 V02 : A#1 01 5 V02 : E-3 04 . ... : 7-# 00 F V01 : ... .. . ...
ROW 01 : ... .. . ... : F#2 01 2 V00 : C-3 00 . ... : ... .. 3 ... : ... .. . ...
ROW 02 : ... .. . ... : F#1 01 5 V02 : ... .. . ... : ... .. . ... : ... .. . ...
ROW 03 : ... .. . ... : D#2 01 2 V00 : ... .. . ... : ... .. . ... : ... .. . ...
ROW 04 : ... .. . V01 : D-4 01 A V02 : E-3 04 . ... : D-# 00 6 V00 : ... .. . ...
ROW 05 : ... .. . ... : F#1 01 2 V00 : --- .. . ... : ... .. . ... : ... .. . ...
ROW 06 : ... .. 7 ... : A#3 01 A V02 : ... .. . ... : D-# 03 F ... : ... .. . ...
ROW 07 : ... .. . ... : D-4 01 3 V00 : ... .. . ... : ... .. . ... : ... .. . ...
ROW 08 : ... .. . V00 : G-3 01 9 V02 : C-3 03 . ... : 2-# 06 . ... : ... .. . ...
ROW 09 : ... .. . ... : A#3 01 3 V00 : ... .. . ... : ... .. . ... : ... .. . ...
ROW 0A : ... .. . ... : D#3 01 9 V02 : ... .. . ... : D-# 03 . ... : ... .. . ...
ROW 0B : ... .. . ... : G-3 01 3 V00 : ... .. . ... : ... .. . ... : ... .. . ...
ROW 0C : ... .. 6 V01 : D-3 01 8 V02 : E-3 04 . ... : D-# 00 6 ... : ... .. . ...
ROW 0D : ... .. . ... : D#3 01 3 V00 : C-3 00 . ... : ... .. . ... : ... .. . ...
ROW 0E : ... .. . ... : A#2 01 8 V02 : ... .. . ... : D-# 03 F ... : ... .. . ...
ROW 0F : ... .. . ... : D-3 01 3 V00 : ... .. . ... : ... .. . ... : ... .. . ...
ROW 10 : ... .. . V02 : D#4 01 A V02 : E-3 04 . ... : 1-# 05 F ... : ... .. . ...
ROW 11 : ... .. . ... : D#2 01 3 V00 : --- .. . ... : ... .. . ... : ... .. . ...
ROW 12 : ... .. 5 ... : C-4 01 A V02 : ... .. . ... : D-# 03 . ... : ... .. . ...
ROW 13 : ... .. . ... : D#4 01 3 V00 : ... .. . ... : ... .. . ... : ... .. . ...
ROW 14 : ... .. . V01 : G#3 01 9 V02 : E-3 04 . ... : D-# 00 6 ... : ... .. . ...
ROW 15 : ... .. . ... : C-4 01 3 V00 : --- .. . ... : ... .. . ... : ... .. . ...
ROW 16 : ... .. . ... : G-3 01 9 V02 : ... .. . ... : D-# 03 F ... : ... .. . ...
ROW 17 : ... .. . ... : G#3 01 3 V00 : ... .. . ... : ... .. . ... : ... .. . ...
ROW 18 : ... .. 4 V00 : D#3 01 8 V02 : C-3 01 . ... : 2-# 06 . ... : ... .. . ...
ROW 19 : ... .. . ... : G-3 01 3 V00 : ... .. . ... : ... .. . ... : ... .. . ...
ROW 1A : ... .. . ... : C-3 01 8 V02 : ... .. . ... : D-# 03 . ... : ... .. . ...
ROW 1B : ... .. . V01 : D#3 01 3 V00 : --- .. . ... : ... .. . ... : ... .. . ...
ROW 1C : ... .. . ... : C-4 01 A V02 : C-3 03 . ... : D-# 00 6 ... : ... .. . ...
ROW 1D : ... .. . ... : C-3 01 3 V00 : ... .. . ... : ... .. . ... : ... .. . ...
ROW 1E : ... .. . V02 : G#3 01 A V02 : ... .. . ... : D-# 03 F ... : ... .. . ...
ROW 1F : ... .. . ... : C-4 01 3 V00 : ... .. . ... : ... .. . ... : ... .. . ...
ROW 20 : ... .. 3 ... : F-3 01 9 V02 : E-3 04 . ... : 1-# 05 F ... : ... .. . ...
ROW 21 : ... .. . V01 : G#3 01 3 V00 : --- .. . ... : ... .. . ... : ... .. . ...
ROW 22 : ... .. . ... : C#3 01 9 V02 : ... .. . ... : D-# 03 . ... : ... .. . ...
ROW 23 : ... .. . ... : F-3 01 3 V00 : ... .. . ... : ... .. . ... : ... .. . ...
ROW 24 : ... .. . V00 : C-3 01 8 V02 : E-3 04 . ... : D-# 00 6 ... : ... .. . ...
ROW 25 : ... .. . ... : C#3 01 3 V00 : --- .. . ... : ... .. . ... : ... .. . ...
ROW 26 : ... .. . ... : G#2 01 8 V02 : ... .. . ... : D-# 03 F ... : ... .. . ...
ROW 27 : ... .. . V01 : C-3 01 3 V00 : ... .. . ... : ... .. . ... : ... .. . ...
ROW 28 : ... .. . ... : F-2 01 7 V02 : C-3 03 . ... : 2-# 06 . ... : ... .. . ...
ROW 29 : ... .. . ... : G#2 01 3 V00 : ... .. . ... : ... .. . ... : ... .. . ...
ROW 2A : ... .. . V02 : C#2 01 7 V02 : C-4 03 . ... : D-# 03 . ... : ... .. . ...
ROW 2B : ... .. . ... : F-2 01 3 V00 : ... .. . ... : ... .. . ... : ... .. . ...
ROW 2C : ... .. 2 ... : D#4 01 A V02 : E-3 04 . ... : D-# 00 6 ... : ... .. . ...
ROW 2D : ... .. . V01 : C#2 01 3 V00 : C-3 00 . ... : ... .. . ... : ... .. . ...
ROW 2E : ... .. . ... : B-3 01 A V02 : ... .. . ... : D-# 03 F ... : ... .. . ...
ROW 2F : ... .. . ... : D#4 01 3 V00 : ... .. . D00 : ... .. . ... : ... .. . ...
ROW 30 : ... .. . V00 : A#3 01 9 V02 : ... .. . ... : 1-# 05 F ... : ... .. . ...
ROW 31 : ... .. . ... : B-3 01 3 V00 : ... .. . ... : ... .. . ... : ... .. . ...
ROW 32 : ... .. . V01 : F#3 01 9 V02 : ... .. . ... : D-# 03 . ... : ... .. . ...
ROW 33 : ... .. . ... : A#3 01 3 V00 : ... .. . ... : ... .. . ... : ... .. . ...
ROW 34 : ... .. . V02 : D#3 01 8 V02 : ... .. . ... : D-# 00 6 ... : ... .. . ...
ROW 35 : ... .. . ... : F#3 01 3 V00 : ... .. . ... : ... .. . ... : ... .. . ...
ROW 36 : ... .. . V01 : B-2 01 8 V02 : ... .. . ... : D-# 03 F ... : ... .. . ...
ROW 37 : ... .. . ... : D#3 01 3 V00 : ... .. . ... : ... .. . ... : ... .. . ...
ROW 38 : ... .. . V00 : A#2 01 7 V02 : ... .. . ... : 2-# 06 . ... : ... .. . ...
ROW 39 : ... .. . ... : B-2 01 3 V00 : ... .. . ... : ... .. . ... : ... .. . ...
ROW 3A : ... .. . V01 : F#2 01 7 V02 : ... .. . ... : D-# 03 . ... : ... .. . ...
ROW 3B : ... .. . ... : A#2 01 3 V00 : ... .. . ... : ... .. . ... : ... .. . ...
ROW 3C : ... .. . V02 : ... .. . ... : ... .. . ... : ... .. . ... : ... .. . ...
ROW 3D : ... .. . ... : ... .. . ... : ... .. . ... : ... .. . ... : ... .. . ...
ROW 3E : ... .. . V01 : ... .. . ... : ... .. . ... : ... .. . ... : ... .. . ...
ROW 3F : ... .. . ... : ... .. . ... : ... .. . ... : ... .. . ... : ... .. . ...

PATTERN 06
ROW 00 : A#2 0A F V00 : A#1 01 5 V02 : C#3 01 . ... : 1-# 05 F ... : ... .. . ...
ROW 01 : ... .. . ... : F#2 01 2 V00 : ... .. . ... : ... .. . ... : ... .. . ...
ROW 02 : ... .. . ... : F#1 01 5 V02 : ... .. . ... : D-# 03 . ... : ... .. . ...
ROW 03 : ... .. . ... : D#2 01 2 V00 : ... .. . ... : ... .. . ... : ... .. . ...
ROW 04 : ... .. . V01 : D-4 01 A V02 : ... .. . ... : D-# 00 6 ... : ... .. . ...
ROW 05 : ... .. . ... : F#1 01 2 V00 : ... .. . ... : ... .. . ... : ... .. . ...
ROW 06 : ... .. . ... : A#3 01 A V02 : ... .. . ... : D-# 03 F ... : ... .. . ...
ROW 07 : ... .. . ... : D-4 01 3 V00 : ... .. . ... : ... .. . ... : ... .. . ...
ROW 08 : G-3 03 6 V02 : G-3 01 9 V02 : E-3 04 . ... : 2-# 06 . ... : ... .. . ...
ROW 09 : ... .. . ... : A#3 01 3 V00 : C#3 00 . ... : ... .. . ... : ... .. . ...
ROW 0A : G-2 03 . ... : D#3 01 9 V02 : ... .. . ... : D-# 03 . ... : ... .. . ...
ROW 0B : ... .. . ... : G-3 01 3 V00 : ... .. . ... : ... .. . ... : ... .. . ...
ROW 0C : G-3 03 . ... : D-3 01 8 V02 : E-3 04 . ... : D-# 00 6 ... : ... .. . ...
ROW 0D : ... .. . ... : D#3 01 3 V00 : C#3 00 . ... : ... .. . ... : ... .. . ...
ROW 0E : G-4 03 . ... : A#2 01 8 V02 : ... .. . ... : D-# 03 F ... : ... .. . ...
ROW 0F : ... .. . ... : D-3 01 3 V00 : ... .. . ... : ... .. . ... : ... .. . ...
ROW 10 : D#3 0A F V00 : D#4 01 A V02 : E-3 04 . ... : 1-# 05 F ... : ... .. . ...
ROW 11 : ... .. . ... : D#2 01 3 V00 : C#3 00 . ... : ... .. . ... : ... .. . ...
ROW 12 : ... .. . ... : C-4 01 A V02 : ... .. . ... : D-# 03 . ... : ... .. . ...
ROW 13 : ... .. . ... : D#4 01 3 V00 : ... .. . ... : ... .. . ... : ... .. . ...
ROW 14 : ... .. . V01 : G#3 01 9 V02 : E-3 04 . ... : D-# 00 6 ... : ... .. . ...
ROW 15 : ... .. . ... : C-4 01 3 V00 : C#3 00 . ... : ... .. . ... : ... .. . ...
ROW 16 : ... .. . ... : G-3 01 9 V02 : ... .. . ... : D-# 03 F ... : ... .. . ...
ROW 17 : ... .. . ... : G#3 01 3 V00 : ... .. . ... : ... .. . ... : ... .. . ...
ROW 18 : C-4 03 6 V02 : D#3 01 8 V02 : ... .. . ... : 2-# 06 . ... : ... .. . ...
ROW 19 : ... .. . ... : G-3 01 3 V00 : ... .. . ... : ... .. . ... : ... .. . ...
ROW 1A : C-3 03 . ... : C-3 01 8 V02 : ... .. . ... : D-# 03 . ... : ... .. . ...
ROW 1B : ... .. . ... : D#3 01 3 V00 : ... .. . ... : ... .. . ... : ... .. . ...
ROW 1C : G#2 0A F V01 : C-4 01 A V02 : ... .. . ... : D-# 00 6 ... : ... .. . ...
ROW 1D : ... .. . ... : C-3 01 3 V00 : ... .. . ... : ... .. . ... : ... .. . ...
ROW 1E : ... .. . ... : G#3 01 A V02 : ... .. . ... : D-# 03 F ... : ... .. . ...
ROW 1F : ... .. . ... : C-4 01 3 V00 : ... .. . ... : ... .. . ... : ... .. . ...
ROW 20 : ... .. . V00 : F-3 01 9 V02 : ... .. . ... : 1-# 05 F ... : ... .. . ...
ROW 21 : ... .. . ... : G#3 01 3 V00 : ... .. . ... : ... .. . ... : ... .. . ...
ROW 22 : ... .. . ... : C#3 01 9 V02 : ... .. . ... : D-# 03 . ... : ... .. . ...
ROW 23 : ... .. . ... : F-3 01 3 V00 : ... .. . ... : ... .. . ... : ... .. . ...
ROW 24 : F-4 03 6 V02 : C-3 01 8 V02 : E-3 04 . ... : D-# 00 6 ... : ... .. . ...
ROW 25 : ... .. . ... : C#3 01 3 V00 : C#3 00 . ... : ... .. . ... : ... .. . ...
ROW 26 : F-3 03 . ... : G#2 01 8 V02 : ... .. . ... : D-# 03 F ... : ... .. . ...
ROW 27 : ... .. . ... : C-3 01 3 V00 : ... .. . ... : ... .. . ... : ... .. . ...
ROW 28 : F#2 0A F V02 : F-2 01 7 V02 : E-3 04 . ... : 2-# 06 . ... : ... .. . ...
ROW 29 : ... .. . ... : G#2 01 3 V00 : C#3 00 . ... : ... .. . ... : ... .. . ...
ROW 2A : ... .. . ... : C#2 01 7 V02 : ... .. . ... : D-# 03 . ... : ... .. . ...
ROW 2B : ... .. . ... : F-2 01 3 V00 : ... .. . ... : ... .. . ... : ... .. . ...
ROW 2C : ... .. . V01 : B-1 01 1 V02 : E-3 04 . ... : D-# 00 6 ... : ... .. . ...
ROW 2D : ... .. . ... : D#2 01 . ... : C#3 00 . ... : ... .. . ... : ... .. . ...
ROW 2E : ... .. . ... : F#2 01 2 ... : ... .. . ... : D-# 03 F ... : ... .. . ...
ROW 2F : ... .. . ... : A#2 01 . ... : ... .. . ... : ... .. . ... : ... .. . ...
ROW 30 : --- .. . ... : B-2 01 3 ... : E-3 04 . ... : 2-# 06 F ... : ... .. . ...
ROW 31 : ... .. . ... : D#3 01 . ... : C#3 00 . ... : ... .. . ... : ... .. . ...
ROW 32 : ... .. . ... : F#3 01 4 ... : C#2 00 . 308 : D-# 03 . ... : ... .. . ...
ROW 33 : ... .. . ... : A#3 01 . ... : ... .. . ... : ... .. . ... : ... .. . ...
ROW 34 : ... .. . ... : B-3 01 5 ... : ... .. . ... : 2-# 06 . ... : ... .. . ...
ROW 35 : ... .. . ... : D#4 01 . ... : ... .. . ... : ... .. . ... : ... .. . ...
ROW 36 : ... .. . ... : F#4 01 6 ... : ... .. . ... : 2-# 06 . ... : ... .. . ...
ROW 37 : ... .. . V00 : A#4 01 . ... : ... .. . ... : ... .. . ... : ... .. . ...
ROW 38 : A-5 00 2 202 : B-4 01 7 ... : ... .. . ... : 2-# 06 . ... : ... .. . ...
ROW 39 : ... .. . ... : D#5 01 . ... : ... .. . ... : ... .. . ... : ... .. . ...
ROW 3A : ... .. . ... : F#5 01 8 ... : ... .. . ... : 2-# 06 . ... : ... .. . ...
ROW 3B : ... .. . ... : A#5 01 . ... : ... .. . ... : ... .. . ... : ... .. . ...
ROW 3C : ... .. . ... : ... .. . ... : ... .. . ... : ... .. . ... : ... .. . ...
ROW 3D : ... .. . ... : ... .. . ... : ... .. . ... : ... .. . ... : ... .. . ...
ROW 3E : ... .. . ... : ... .. . ... : ... .. . ... : ... .. . ... : ... .. . ...
ROW 3F : ... .. . ... : ... .. . ... : ... .. . ... : ... .. . ... : ... .. . ...

PATTERN 07
ROW 00 : ... .. . ... : A#3 0B A ... : C#2 01 . 300 : 1-# 05 F V01 : ... .. . ...
ROW 01 : ... .. . ... : ... .. 8 ... : ... .. . ... : ... .. . ... : ... .. . ...
ROW 02 : --- .. . 200 : D-4 00 A ... : ... .. . ... : D-# 03 . ... : ... .. . ...
ROW 03 : ... .. . ... : ... .. 8 ... : ... .. . ... : ... .. . ... : ... .. . ...
ROW 04 : A#2 0A F V01 : F-4 0B A ... : ... .. . ... : D-# 00 6 ... : ... .. . ...
ROW 05 : ... .. . ... : ... .. 8 ... : ... .. . ... : ... .. . ... : ... .. . ...
ROW 06 : ... .. . ... : A-4 00 A ... : ... .. . ... : D-# 03 F ... : ... .. . ...
ROW 07 : ... .. . ... : ... .. 8 ... : ... .. . ... : ... .. . ... : ... .. . ...
ROW 08 : ... .. . V02 : A#4 0B A ... : E-3 04 . ... : 2-# 06 . ... : ... .. . ...
ROW 09 : ... .. . ... : --- .. . G02 : C#2 00 . ... : ... .. . ... : ... .. . ...
ROW 0A : ... .. . ... : A#4 0B A ... : ... .. . ... : D-# 03 . ... : ... .. . ...
ROW 0B : ... .. . ... : ... .. 9 Q22 : ... .. . ... : ... .. . ... : ... .. . ...
ROW 0C : G-3 03 6 V02 : ... .. . ... : E-3 04 . ... : D-# 00 6 ... : ... .. . ...
ROW 0D : ... .. . ... : ... .. 8 484 : C#2 00 . ... : ... .. . ... : ... .. . ...
ROW 0E : G-2 03 . ... : ... .. 7 ... : ... .. . ... : D-# 03 F ... : ... .. . ...
ROW 0F : ... .. . ... : ... .. . ... : ... .. . ... : ... .. . ... : ... .. . ...
ROW 10 : D#3 0A F V00 : A#4 0B A 400 : E-3 04 . ... : 1-# 05 F ... : ... .. . ...
ROW 11 : ... .. . ... : A-4 00 9 G02 : C#2 00 . ... : ... .. . ... : ... .. . ...
ROW 12 : ... .. . ... : ... .. 8 ... : ... .. . ... : D-# 03 . ... : ... .. . ...
ROW 13 : ... .. . ... : F-4 00 7 ... : ... .. . ... : ... .. . ... : ... .. . ...
ROW 14 : ... .. . V01 : D-4 0B A G02 : E-3 04 . ... : D-# 00 6 ... : ... .. . ...
ROW 15 : ... .. . ... : ... .. 9 ... : C#2 00 . ... : ... .. . ... : ... .. . ...
ROW 16 : ... .. . ... : C-4 00 8 ... : ... .. . ... : D-# 03 F ... : ... .. . ...
ROW 17 : ... .. . ... : A#3 00 7 G02 : ... .. . ... : ... .. . ... : ... .. . ...
ROW 18 : C-4 03 6 V02 : ... .. 6 ... : ... .. . ... : 2-# 06 . ... : ... .. . ...
ROW 19 : ... .. . ... : A-3 0B A ... : ... .. . ... : ... .. . ... : ... .. . ...
ROW 1A : C-3 03 . ... : ... .. 9 ... : ... .. . ... : D-# 03 . ... : ... .. . ...
ROW 1B : ... .. . ... : ... .. . ... : ... .. . ... : ... .. . ... : ... .. . ...
ROW 1C : G#2 0A F V01 : A#3 00 8 ... : ... .. . ... : D-# 00 6 ... : ... .. . ...
ROW 1D : ... .. . ... : A-3 00 7 ... : ... .. . ... : ... .. . ... : ... .. . ...
ROW 1E : ... .. . ... : F-3 0B . ... : ... .. . ... : D-# 03 F ... : ... .. . ...
ROW 1F : ... .. . ... : ... .. 6 ... : ... .. . ... : ... .. . ... : ... .. . ...
ROW 20 : ... .. . V00 : ... .. 5 ... : ... .. . ... : 1-# 05 F ... : ... .. . ...
ROW 21 : ... .. . ... : ... .. . ... : ... .. . ... : ... .. . ... : ... .. . ...
ROW 22 : ... .. . ... : --- .. . ... : ... .. . ... : D-# 03 . ... : ... .. . ...
ROW 23 : ... .. . ... : ... .. . ... : ... .. . ... : ... .. . ... : ... .. . ...
ROW 24 : C#4 03 6 V02 : G-3 0B A ... : E-3 04 . ... : D-# 00 6 ... : ... .. . ...
ROW 25 : ... .. . ... : ... .. 9 ... : C#3 03 . ... : ... .. . ... : ... .. . ...
ROW 26 : C#3 03 . ... : ... .. 8 ... : ... .. . ... : D-# 03 F ... : ... .. . ...
ROW 27 : ... .. . ... : ... .. 7 ... : ... .. . ... : ... .. . ... : ... .. . ...
ROW 28 : C#4 03 . ... : F-3 0B A G02 : E-3 04 . ... : F-# 03 . V00 : ... .. . ...
ROW 29 : ... .. . ... : ... .. 9 ... : C#2 03 . ... : E-# 03 . ... : ... .. . ...
ROW 2A : C#5 03 . ... : ... .. 8 ... : ... .. . ... : D-# 03 . ... : ... .. . ...
ROW 2B : ... .. . ... : ... .. 7 ... : ... .. . ... : C-# 03 . ... : ... .. . ...
ROW 2C : F#2 0A F V02 : C-4 0B A G04 : E-3 04 . ... : B-# 03 . ... : ... .. . ...
ROW 2D : ... .. . ... : ... .. 9 ... : C#4 03 . ... : A-# 03 . ... : ... .. . ...
ROW 2E : ... .. . ... : ... .. 8 ... : ... .. . ... : 9-# 03 . ... : ... .. . ...
ROW 2F : ... .. . ... : ... .. 7 ... : ... .. . ... : 8-# 03 . ... : ... .. . ...
ROW 30 : ... .. . V01 : ... .. . ... : E-3 04 . ... : ... .. . ... : ... .. . ...
ROW 31 : ... .. . ... : ... .. . ... : C#3 03 . ... : ... .. . ... : ... .. . ...
ROW 32 : ... .. . ... : ... .. . ... : ... .. . ... : ... .. . ... : ... .. . ...
ROW 33 : ... .. . ... : ... .. . ... : ... .. . ... : ... .. . ... : ... .. . ...
ROW 34 : A#4 01 1 V00 : ... .. . ... : ... .. . ... : ... .. . ... : ... .. . ...
ROW 35 : F#4 01 2 ... : ... .. . ... : ... .. . ... : ... .. . ... : ... .. . ...
ROW 36 : D#4 01 3 ... : ... .. . ... : ... .. . ... : ... .. . ... : ... .. . ...
ROW 37 : B-3 01 4 ... : ... .. . ... : ... .. . ... : ... .. . ... : ... .. . ...
ROW 38 : A#3 01 5 ... : ... .. . ... : E-3 04 . ... : ... .. . ... : ... .. . ...
ROW 39 : F#3 01 6 ... : ... .. . ... : C#5 03 . ... : ... .. . ... : ... .. . ...
ROW 3A : D#3 01 7 ... : ... .. . ... : ... .. . ... : ... .. . ... : ... .. . ...
ROW 3B : B-2 01 8 ... : ... .. . ... : ... .. . ... : ... .. . ... : ... .. . ...
ROW 3C : ... .. . ... : ... .. . ... : C#4 03 . ... : ... .. . ... : ... .. . ...
ROW 3D : ... .. . ... : ... .. . ... : ... .. . ... : ... .. . ... : ... .. . ...
ROW 3E : ... .. . ... : ... .. . ... : ... .. . ... : ... .. . ... : ... .. . ...
ROW 3F : ... .. . ... : ... .. . ... : ... .. . ... : ... .. . ... : ... .. . ...

PATTERN 08
ROW 00 : A#2 0A F V00 : G-3 0B A G05 : E-3 04 . ... : ... .. . ... : ... .. . ...
ROW 01 : ... .. . ... : ... .. 9 ... : C-2 00 . ... : ... .. . ... : ... .. . ...
ROW 02 : ... .. . ... : ... .. 8 ... : ... .. . ... : ... .. . ... : ... .. . ...
ROW 03 : ... .. . ... : ... .. 7 ... : ... .. . ... : ... .. . ... : ... .. . ...
ROW 04 : ... .. . V01 : F-3 0B A G03 : C-3 05 . ... : ... .. . ... : ... .. . ...
ROW 05 : ... .. . ... : ... .. 9 ... : ... .. . ... : ... .. . ... : ... .. . ...
ROW 06 : ... .. . ... : ... .. 8 ... : ... .. . ... : ... .. . ... : ... .. . ...
ROW 07 : ... .. . ... : ... .. 7 ... : ... .. . ... : ... .. . ... : ... .. . ...
ROW 08 : G-3 03 6 V02 : D#4 0B A G01 : E-3 04 . ... : ... .. . ... : ... .. . ...
ROW 09 : ... .. . ... : ... .. 9 ... : --- .. . ... : ... .. . ... : ... .. . ...
ROW 0A : G-2 03 . ... : ... .. 8 ... : ... .. . ... : ... .. . ... : ... .. . ...
ROW 0B : ... .. . ... : ... .. 7 ... : ... .. . ... : ... .. . ... : ... .. . ...
ROW 0C : G-3 03 . ... : C-4 0B A ... : C-3 05 . ... : ... .. . ... : ... .. . ...
ROW 0D : ... .. . ... : ... .. 9 ... : ... .. . ... : ... .. . ... : ... .. . ...
ROW 0E : G-4 03 . ... : ... .. 8 ... : ... .. . ... : ... .. . ... : ... .. . ...
ROW 0F : ... .. . ... : A#3 0B A G02 : ... .. . ... : ... .. . ... : ... .. . ...
ROW 10 : D#3 0A F V00 : ... .. 9 ... : E-3 04 . ... : ... .. . ... : ... .. . ...
ROW 11 : ... .. . ... : ... .. 8 ... : F-1 00 . ... : ... .. . ... : ... .. . ...
ROW 12 : ... .. . ... : F-4 0B A G04 : ... .. . ... : ... .. . ... : ... .. . ...
ROW 13 : ... .. . ... : ... .. 9 ... : ... .. . ... : ... .. . ... : ... .. . ...
ROW 14 : ... .. . V01 : ... .. 8 ... : F-2 05 . ... : ... .. . ... : ... .. . ...
ROW 15 : ... .. . ... : D#4 0B A G05 : ... .. . ... : ... .. . ... : ... .. . ...
ROW 16 : ... .. . ... : ... .. 9 ... : ... .. . ... : ... .. . ... : ... .. . ...
ROW 17 : ... .. . ... : ... .. 8 ... : ... .. . ... : ... .. . ... : ... .. . ...
ROW 18 : C-4 03 6 V02 : C-4 0B A G03 : E-3 04 . ... : ... .. . ... : ... .. . ...
ROW 19 : ... .. . ... : ... .. 9 ... : F-1 00 . ... : ... .. . ... : ... .. . ...
ROW 1A : C-3 03 . ... : ... .. 8 ... : ... .. . ... : ... .. . ... : ... .. . ...
ROW 1B : ... .. . ... : G-4 0B A G01 : ... .. . ... : ... .. . ... : ... .. . ...
ROW 1C : G#2 0A F V01 : ... .. 9 ... : A#1 01 . ... : ... .. . ... : ... .. . ...
ROW 1D : ... .. . ... : ... .. 8 ... : ... .. . ... : ... .. . ... : ... .. . ...
ROW 1E : ... .. . ... : F-4 0B A G01 : ... .. . ... : ... .. . ... : ... .. . ...
ROW 1F : ... .. . ... : ... .. 8 ... : ... .. . ... : ... .. . ... : ... .. . ...
ROW 20 : ... .. . V00 : D#4 0B A G02 : E-3 04 . ... : ... .. . ... : ... .. . ...
ROW 21 : ... .. . ... : ... .. 8 ... : A#2 05 . ... : ... .. . ... : ... .. . ...
ROW 22 : ... .. . ... : A#4 0B A G03 : ... .. . ... : ... .. . ... : ... .. . ...
ROW 23 : ... .. . ... : ... .. 8 ... : ... .. . ... : ... .. . ... : ... .. . ...
ROW 24 : F-4 03 6 V02 : G-4 0B A G02 : A#1 01 . ... : ... .. . ... : ... .. . ...
ROW 25 : ... .. . ... : ... .. 8 ... : ... .. . ... : ... .. . ... : ... .. . ...
ROW 26 : F-3 03 . ... : F-4 0B A G02 : ... .. . ... : ... .. . ... : ... .. . ...
ROW 27 : ... .. . ... : ... .. 8 ... : ... .. . ... : ... .. . ... : ... .. . ...
ROW 28 : F#2 0A F V02 : C-5 0B A G01 : E-3 04 . ... : ... .. . ... : ... .. . ...
ROW 29 : ... .. . ... : ... .. 8 ... : G#1 00 . ... : ... .. . ... : ... .. . ...
ROW 2A : ... .. . ... : A#4 0B A ... : ... .. . ... : ... .. . ... : ... .. . ...
ROW 2B : ... .. . ... : ... .. 8 ... : ... .. . ... : ... .. . ... : ... .. . ...
ROW 2C : ... .. . V01 : G-4 0B A ... : G#2 05 . ... : ... .. . ... : ... .. . ...
ROW 2D : ... .. . ... : ... .. 8 ... : ... .. . ... : ... .. . ... : ... .. . ...
ROW 2E : ... .. . ... : D#5 0B A ... : ... .. . ... : ... .. . ... : ... .. . ...
ROW 2F : ... .. . ... : ... .. 9 Q22 : ... .. . ... : ... .. . ... : ... .. . ...
ROW 30 : --- .. . ... : ... .. . ... : E-3 04 . ... : ... .. . ... : ... .. . ...
ROW 31 : ... .. . ... : ... .. . ... : G#1 00 . ... : ... .. . ... : ... .. . ...
ROW 32 : ... .. . ... : ... .. . ... : ... .. . ... : ... .. . ... : ... .. . ...
ROW 33 : ... .. . ... : ... .. . ... : ... .. . ... : ... .. . ... : ... .. . ...
ROW 34 : ... .. . ... : ... .. . ... : G#2 05 . ... : ... .. . ... : ... .. . ...
ROW 35 : ... .. . ... : ... .. . ... : ... .. . ... : ... .. . ... : ... .. . ...
ROW 36 : ... .. . ... : ... .. . ... : ... .. . ... : ... .. . ... : ... .. . ...
ROW 37 : ... .. . V00 : ... .. . ... : ... .. . ... : ... .. . ... : ... .. . ...
ROW 38 : D-4 00 2 108 : ... .. . ... : E-3 04 . ... : ... .. . ... : ... .. . ...
ROW 39 : ... .. . ... : ... .. . ... : G#1 00 . ... : ... .. . ... : ... .. . ...
ROW 3A : ... .. . ... : ... .. . ... : ... .. . ... : ... .. . ... : ... .. . ...
ROW 3B : ... .. . ... : ... .. . ... : ... .. . D00 : ... .. . ... : ... .. . ...
ROW 3C : ... .. . ... : ... .. . ... : ... .. . ... : ... .. . ... : ... .. . ...
ROW 3D : ... .. . ... : ... .. . ... : ... .. . ... : ... .. . ... : ... .. . ...
ROW 3E : ... .. . ... : ... .. . ... : ... .. . ... : ... .. . ... : ... .. . ...
ROW 3F : ... .. . ... : ... .. . ... : ... .. . ... : ... .. . ... : ... .. . ...

PATTERN 09
ROW 00 : ... .. . ... : ... .. . ... : E-3 04 . ... : ... .. . ... : ... .. . ...
ROW 01 : ... .. . ... : ... .. 8 ... : --- 00 . ... : ... .. . ... : ... .. . ...
ROW 02 : --- .. . 200 : ... .. . R22 : ... .. . ... : ... .. . ... : ... .. . ...
ROW 03 : ... .. . ... : ... .. 7 ... : ... .. . ... : ... .. . ... : ... .. . ...
ROW 04 : A#2 0A F V01 : ... .. . 484 : C-2 01 . ... : ... .. . ... : ... .. . ...
ROW 05 : ... .. . ... : ... .. 6 ... : ... .. . ... : ... .. . ... : ... .. . ...
ROW 06 : ... .. . ... : ... .. . ... : ... .. . ... : ... .. . ... : ... .. . ...
ROW 07 : ... .. . ... : ... .. 5 400 : ... .. . ... : ... .. . ... : ... .. . ...
ROW 08 : ... .. . V02 : ... .. . 103 : E-3 04 . ... : ... .. . ... : ... .. . ...
ROW 09 : ... .. . ... : ... .. 4 ... : C-3 05 . ... : ... .. . ... : ... .. . ...
ROW 0A : ... .. . ... : --- .. . ... : ... .. . ... : ... .. . ... : ... .. . ...
ROW 0B : ... .. . ... : ... .. . ... : ... .. . ... : ... .. . ... : ... .. . ...
ROW 0C : G-3 03 6 V02 : G-5 00 6 300 : C-2 01 . ... : ... .. . ... : ... .. . ...
ROW 0D : ... .. . ... : F-5 00 8 ... : ... .. . ... : ... .. . ... : ... .. . ...
ROW 0E : G-2 03 . ... : D#5 0B A ... : ... .. . ... : ... .. . ... : ... .. . ...
ROW 0F : ... .. . ... : ... .. 8 ... : ... .. . ... : ... .. . ... : ... .. . ...
ROW 10 : D#3 0A F V00 : C-5 00 A 310 : E-3 04 . ... : ... .. . ... : ... .. . ...
ROW 11 : ... .. . ... : ... .. 8 ... : F-1 00 . ... : ... .. . ... : ... .. . ...
ROW 12 : ... .. . ... : A#4 00 A ... : ... .. . ... : ... .. . ... : ... .. . ...
ROW 13 : ... .. . ... : ... .. 8 ... : ... .. . ... : ... .. . ... : ... .. . ...
ROW 14 : ... .. . V01 : D#5 0B A ... : F-2 05 . ... : ... .. . ... : ... .. . ...
ROW 15 : ... .. . ... : C-5 00 A G02 : ... .. . ... : ... .. . ... : ... .. . ...
ROW 16 : ... .. . ... : ... .. 8 ... : ... .. . ... : ... .. . ... : ... .. . ...
ROW 17 : ... .. . ... : A#4 00 A ... : ... .. . ... : ... .. . ... : ... .. . ...
ROW 18 : C-4 03 6 V02 : G-4 00 A G02 : E-3 04 . ... : ... .. . ... : ... .. . ...
ROW 19 : ... .. . ... : ... .. 8 ... : F-1 00 . ... : ... .. . ... : ... .. . ...
ROW 1A : C-3 03 . ... : C-5 00 A 318 : ... .. . ... : ... .. . ... : ... .. . ...
ROW 1B : ... .. . ... : A#4 00 A G02 : ... .. . ... : ... .. . ... : ... .. . ...
ROW 1C : G#2 0A F V01 : ... .. 8 ... : A#1 01 . ... : ... .. . ... : ... .. . ...
ROW 1D : ... .. . ... : G-4 00 A ... : ... .. . ... : ... .. . ... : ... .. . ...
ROW 1E : ... .. . ... : D#4 00 A G02 : ... .. . ... : ... .. . ... : ... .. . ...
ROW 1F : ... .. . ... : ... .. 8 ... : ... .. . ... : ... .. . ... : ... .. . ...
ROW 20 : ... .. . V00 : --- .. . ... : E-3 04 . ... : ... .. . ... : ... .. . ...
ROW 21 : ... .. . ... : ... .. . ... : A#2 05 . ... : ... .. . ... : ... .. . ...
ROW 22 : ... .. . ... : A#3 0B A 300 : ... .. . ... : ... .. . ... : ... .. . ...
ROW 23 : ... .. . ... : ... .. 8 ... : ... .. . ... : ... .. . ... : ... .. . ...
ROW 24 : C#4 03 6 V02 : C-4 00 A G01 : A#1 01 . ... : ... .. . ... : ... .. . ...
ROW 25 : ... .. . ... : ... .. 8 ... : ... .. . ... : ... .. . ... : ... .. . ...
ROW 26 : C#3 03 . ... : D#4 0B A G02 : ... .. . ... : ... .. . ... : ... .. . ...
ROW 27 : ... .. . ... : ... .. 9 ... : ... .. . ... : ... .. . ... : ... .. . ...
ROW 28 : C#4 03 . ... : ... .. 8 ... : E-3 04 . ... : ... .. . ... : ... .. . ...
ROW 29 : ... .. . ... : C-4 00 A ... : A#1 05 . ... : ... .. . ... : ... .. . ...
ROW 2A : C#5 03 . ... : ... .. 8 ... : ... .. . ... : ... .. . ... : ... .. . ...
ROW 2B : ... .. . ... : D#4 0B A G01 : ... .. . ... : ... .. . ... : ... .. . ...
ROW 2C : F#2 0A F V02 : ... .. 8 ... : G#1 01 . ... : ... .. . ... : ... .. . ...
ROW 2D : ... .. . ... : F-4 00 A G02 : ... .. . ... : ... .. . ... : ... .. . ...
ROW 2E : ... .. . ... : ... .. 8 ... : ... .. . ... : ... .. . ... : ... .. . ...
ROW 2F : ... .. . ... : --- .. . G01 : ... .. . ... : ... .. . ... : ... .. . ...
ROW 30 : ... .. . V01 : ... .. . ... : E-3 04 . ... : ... .. . ... : ... .. . ...
ROW 31 : ... .. . ... : ... .. . ... : G#2 05 . ... : ... .. . ... : ... .. . ...
ROW 32 : ... .. . ... : ... .. . ... : ... .. . ... : ... .. . ... : ... .. . ...
ROW 33 : ... .. . ... : ... .. . ... : ... .. . ... : ... .. . ... : ... .. . ...
ROW 34 : B-2 01 1 V00 : ... .. . ... : G#1 01 . ... : ... .. . ... : ... .. . ...
ROW 35 : D#3 01 2 ... : ... .. . ... : ... .. . ... : ... .. . ... : ... .. . ...
ROW 36 : F#3 01 3 ... : ... .. . ... : ... .. . ... : ... .. . ... : ... .. . ...
ROW 37 : A#3 01 4 ... : ... .. . ... : ... .. . ... : ... .. . ... : ... .. . ...
ROW 38 : B-3 01 5 ... : ... .. . ... : E-3 04 . ... : ... .. . ... : ... .. . ...
ROW 39 : D#4 01 6 ... : ... .. . ... : G#2 05 . ... : ... .. . ... : ... .. . ...
ROW 3A : F#4 01 7 ... : ... .. . ... : ... .. . ... : ... .. . ... : ... .. . ...
ROW 3B : A#4 01 8 ... : ... .. . ... : ... .. . D00 : ... .. . ... : ... .. . ...
ROW 3C : ... .. . ... : ... .. . ... : ... .. . ... : ... .. . ... : ... .. . ...
ROW 3D : ... .. . ... : ... .. . ... : ... .. . ... : ... .. . ... : ... .. . ...
ROW 3E : ... .. . ... : ... .. . ... : ... .. . ... : ... .. . ... : ... .. . ...
ROW 3F : ... .. . ... : ... .. . ... : ... .. . ... : ... .. . ... : ... .. . ...

PATTERN 0A
ROW 00 : D-3 0C F V02 : F-4 0B A G02 : E-3 04 . ... : ... .. . ... : ... .. . ...
ROW 01 : ... .. . ... : G-4 00 . 301 : G-1 00 . ... : ... .. . ... : ... .. . ...
ROW 02 : ... .. . ... : ... .. 9 ... : ... .. . ... : ... .. . ... : ... .. . ...
ROW 03 : ... .. . ... : ... .. . ... : ... .. . ... : ... .. . ... : ... .. . ...
ROW 04 : ... .. . ... : ... .. 8 ... : G-2 05 . ... : ... .. . ... : ... .. . ...
ROW 05 : ... .. . ... : ... .. . ... : ... .. . ... : ... .. . ... : ... .. . ...
ROW 06 : ... .. . ... : ... .. 7 ... : ... .. . ... : ... .. . ... : ... .. . ...
ROW 07 : ... .. . ... : ... .. . ... : ... .. . ... : ... .. . ... : ... .. . ...
ROW 08 : ... .. . ... : ... .. 6 484 : E-3 04 . ... : ... .. . ... : ... .. . ...
ROW 09 : ... .. . ... : ... .. . ... : G-1 00 . ... : ... .. . ... : ... .. . ...
ROW 0A : ... .. . ... : ... .. 5 ... : ... .. . ... : ... .. . ... : ... .. . ...
ROW 0B : ... .. . ... : ... .. . 300 : ... .. . ... : ... .. . ... : ... .. . ...
ROW 0C : D-3 0C . V01 : F-4 0B 8 400 : G-2 05 . ... : ... .. . ... : ... .. . ...
ROW 0D : ... .. . ... : G-4 00 . ... : ... .. . ... : ... .. . ... : ... .. . ...
ROW 0E : ... .. . ... : F-4 00 9 ... : ... .. . ... : ... .. . ... : ... .. . ...
ROW 0F : ... .. . ... : D#4 00 . ... : ... .. . ... : ... .. . ... : ... .. . ...
ROW 10 : ... .. . ... : C-4 0B A ... : E-3 04 . ... : ... .. . ... : ... .. . ...
ROW 11 : ... .. . ... : ... .. 8 ... : G-1 00 . ... : ... .. . ... : ... .. . ...
ROW 12 : ... .. . ... : A#3 00 A ... : ... .. . ... : ... .. . ... : ... .. . ...
ROW 13 : ... .. . ... : --- .. . ... : ... .. . ... : ... .. . ... : ... .. . ...
ROW 14 : ... .. . ... : C-4 0B A ... : G-2 05 . ... : ... .. . ... : ... .. . ...
ROW 15 : ... .. . ... : ... .. 8 ... : ... .. . ... : ... .. . ... : ... .. . ...
ROW 16 : ... .. . ... : G-3 00 A ... : ... .. . ... : ... .. . ... : ... .. . ...
ROW 17 : ... .. . ... : --- .. . ... : ... .. . ... : ... .. . ... : ... .. . ...
ROW 18 : D-3 0C . V00 : F-3 0B A ... : E-3 04 . ... : ... .. . ... : ... .. . ...
ROW 19 : ... .. . ... : ... .. 8 ... : G-1 00 . ... : ... .. . ... : ... .. . ...
ROW 1A : ... .. . ... : G-3 00 A ... : ... .. . ... : ... .. . ... : ... .. . ...
ROW 1B : ... .. . ... : --- .. . ... : ... .. . ... : ... .. . ... : ... .. . ...
ROW 1C : ... .. . ... : A#3 0B A ... : G-2 05 . ... : ... .. . ... : ... .. . ...
ROW 1D : ... .. . ... : G-3 00 A G02 : ... .. . ... : ... .. . ... : ... .. . ...
ROW 1E : ... .. . ... : ... .. 8 ... : ... .. . ... : ... .. . ... : ... .. . ...
ROW 1F : ... .. . ... : F-3 00 A ... : ... .. . ... : ... .. . ... : ... .. . ...
ROW 20 : ... .. . ... : G-3 0B A G02 : E-3 04 . ... : ... .. . ... : ... .. . ...
ROW 21 : ... .. . ... : ... .. 8 ... : G-1 00 . ... : ... .. . ... : ... .. . ...
ROW 22 : ... .. . ... : --- .. . ... : ... .. . ... : ... .. . ... : ... .. . ...
ROW 23 : ... .. . ... : ... .. . ... : ... .. . ... : ... .. . ... : ... .. . ...
ROW 24 : ... .. . ... : F-3 0B 8 ... : G-2 05 . ... : ... .. . ... : ... .. . ...
ROW 25 : ... .. . ... : F#3 00 . ... : ... .. . ... : ... .. . ... : ... .. . ...
ROW 26 : ... .. . ... : F-3 00 9 ... : ... .. . ... : ... .. . ... : ... .. . ...
ROW 27 : ... .. . ... : D#3 00 . ... : ... .. . ... : ... .. . ... : ... .. . ...
ROW 28 : D-3 0D . ... : ... .. . ... : E-3 04 . ... : ... .. . ... : ... .. . ...
ROW 29 : ... .. . ... : C-3 00 A ... : G-1 00 . ... : ... .. . ... : ... .. . ...
ROW 2A : ... .. . ... : ... .. 9 ... : ... .. . ... : ... .. . ... : ... .. . ...
ROW 2B : ... .. . ... : ... .. 8 ... : ... .. . ... : ... .. . ... : ... .. . ...
ROW 2C : C-3 0A . V01 : A#3 0B A ... : G-2 05 . ... : ... .. . ... : ... .. . ...
ROW 2D : ... .. . ... : ... .. . Q32 : ... .. . ... : ... .. . ... : ... .. . ...
ROW 2E : ... .. . ... : ... .. . ... : ... .. . ... : ... .. . ... : ... .. . ...
ROW 2F : ... .. . ... : ... .. 9 ... : ... .. . D00 : ... .. . ... : ... .. . ...
ROW 30 : ... .. . ... : ... .. . ... : ... .. . ... : ... .. . ... : ... .. . ...
ROW 31 : ... .. . ... : ... .. . ... : ... .. . ... : ... .. . ... : ... .. . ...
ROW 32 : ... .. . ... : ... .. . ... : ... .. . ... : ... .. . ... : ... .. . ...
ROW 33 : ... .. . ... : ... .. . ... : ... .. . ... : ... .. . ... : ... .. . ...
ROW 34 : ... .. . ... : ... .. . ... : ... .. . ... : ... .. . ... : ... .. . ...
ROW 35 : ... .. . ... : ... .. . ... : ... .. . ... : ... .. . ... : ... .. . ...
ROW 36 : ... .. . ... : ... .. . ... : ... .. . ... : ... .. . ... : ... .. . ...
ROW 37 : ... .. . ... : ... .. . ... : ... .. . ... : ... .. . ... : ... .. . ...
ROW 38 : ... .. . ... : ... .. . ... : ... .. . ... : ... .. . ... : ... .. . ...
ROW 39 : ... .. . ... : ... .. . ... : ... .. . ... : ... .. . ... : ... .. . ...
ROW 3A : ... .. . ... : ... .. . ... : ... .. . ... : ... .. . ... : ... .. . ...
ROW 3B : ... .. . ... : ... .. . ... : ... .. . ... : ... .. . ... : ... .. . ...
ROW 3C : ... .. . ... : ... .. . ... : ... .. . ... : ... .. . ... : ... .. . ...
ROW 3D : ... .. . ... : ... .. . ... : ... .. . ... : ... .. . ... : ... .. . ...
ROW 3E : ... .. . ... : ... .. . ... : ... .. . ... : ... .. . ... : ... .. . ...
ROW 3F : ... .. . ... : ... .. . ... : ... .. . ... : ... .. . ... : ... .. . ...

PATTERN 0B
ROW 00 : C#3 02 . V02 : ... .. . 484 : E-3 04 . ... : ... .. . ... : ... .. . ...
ROW 01 : ... .. . ... : ... .. . ... : D#2 00 . ... : ... .. . ... : ... .. . ...
ROW 02 : ... .. . ... : ... .. 8 495 : ... .. . ... : ... .. . ... : ... .. . ...
ROW 03 : ... .. . ... : ... .. . ... : ... .. . ... : ... .. . ... : ... .. . ...
ROW 04 : ... .. . ... : ... .. . 4A6 : D#3 05 . ... : ... .. . ... : ... .. . ...
ROW 05 : ... .. . ... : ... .. 7 ... : ... .. . ... : ... .. . ... : ... .. . ...
ROW 06 : ... .. . ... : ... .. . 210 : ... .. . ... : ... .. . ... : ... .. . ...
ROW 07 : ... .. . ... : ... .. . 400 : ... .. . ... : ... .. . ... : ... .. . ...
ROW 08 : ... .. . ... : ... .. 6 ... : E-3 04 . ... : ... .. . ... : ... .. . ...
ROW 09 : ... .. . ... : ... .. . ... : D#2 00 . ... : ... .. . ... : ... .. . ...
ROW 0A : ... .. . ... : G-3 0B A 200 : ... .. . ... : ... .. . ... : ... .. . ...
ROW 0B : ... .. . ... : ... .. 8 ... : ... .. . ... : ... .. . ... : ... .. . ...
ROW 0C : C#3 02 . V01 : F-3 00 A ... : D#3 05 . ... : ... .. . ... : ... .. . ...
ROW 0D : ... .. . ... : ... .. 8 ... : ... .. . ... : ... .. . ... : ... .. . ...
ROW 0E : ... .. . ... : G-3 00 A ... : ... .. . ... : ... .. . ... : ... .. . ...
ROW 0F : ... .. . ... : ... .. 8 ... : ... .. . ... : ... .. . ... : ... .. . ...
ROW 10 : ... .. . ... : A#3 0B A ... : E-3 04 . ... : ... .. . ... : ... .. . ...
ROW 11 : ... .. . ... : ... .. 8 ... : D#2 00 . ... : ... .. . ... : ... .. . ...
ROW 12 : ... .. . ... : G-3 00 A ... : ... .. . ... : ... .. . ... : ... .. . ...
ROW 13 : ... .. . ... : ... .. 8 ... : ... .. . ... : ... .. . ... : ... .. . ...
ROW 14 : ... .. . ... : A#3 0B A ... : D#3 05 . ... : ... .. . ... : ... .. . ...
ROW 15 : ... .. . ... : C-4 00 A G02 : ... .. . ... : ... .. . ... : ... .. . ...
ROW 16 : ... .. . ... : ... .. 8 ... : ... .. . ... : ... .. . ... : ... .. . ...
ROW 17 : ... .. . ... : A#3 0B A ... : ... .. . ... : ... .. . ... : ... .. . ...
ROW 18 : C#3 02 . V00 : C-4 00 A G02 : E-3 04 . ... : ... .. . ... : ... .. . ...
ROW 19 : ... .. . ... : ... .. 8 ... : D#2 00 . ... : ... .. . ... : ... .. . ...
ROW 1A : ... .. . ... : --- .. . G02 : ... .. . ... : ... .. . ... : ... .. . ...
ROW 1B : ... .. . ... : F-4 00 A ... : ... .. . ... : ... .. . ... : ... .. . ...
ROW 1C : ... .. . ... : ... .. . R32 : D#3 05 . ... : ... .. . ... : ... .. . ...
ROW 1D : ... .. . ... : ... .. . ... : ... .. . ... : ... .. . ... : ... .. . ...
ROW 1E : ... .. . ... : ... .. 9 ... : ... .. . ... : ... .. . ... : ... .. . ...
ROW 1F : ... .. . ... : ... .. . Q32 : ... .. . ... : ... .. . ... : ... .. . ...
ROW 20 : ... .. . ... : ... .. . ... : E-3 04 . ... : ... .. . ... : ... .. . ...
ROW 21 : ... .. . ... : ... .. 8 ... : D#2 00 . ... : ... .. . ... : ... .. . ...
ROW 22 : ... .. . ... : ... .. . ... : ... .. . ... : ... .. . ... : ... .. . ...
ROW 23 : ... .. . ... : ... .. . 486 : ... .. . ... : ... .. . ... : ... .. . ...
ROW 24 : ... .. . ... : ... .. 7 ... : D#3 05 . ... : ... .. . ... : ... .. . ...
ROW 25 : ... .. . ... : ... .. . ... : ... .. . ... : ... .. . ... : ... .. . ...
ROW 26 : ... .. . ... : ... .. . 400 : ... .. . ... : ... .. . ... : ... .. . ...
ROW 27 : ... .. . ... : ... .. 6 118 : ... .. . ... : ... .. . ... : ... .. . ...
ROW 28 : C#3 0E . ... : --- .. . ... : E-3 04 . ... : ... .. . ... : ... .. . ...
ROW 29 : ... .. . ... : ... .. . 100 : D#2 00 . ... : ... .. . ... : ... .. . ...
ROW 2A : ... .. . ... : C-4 0B A G02 : ... .. . ... : ... .. . ... : ... .. . ...
ROW 2B : ... .. . ... : ... .. 8 ... : ... .. . ... : ... .. . ... : ... .. . ...
ROW 2C : D#3 0A . V01 : A#3 00 A G04 : D#3 05 . ... : ... .. . ... : ... .. . ...
ROW 2D : ... .. . ... : ... .. 9 ... : ... .. . ... : ... .. . ... : ... .. . ...
ROW 2E : ... .. . ... : ... .. 8 ... : ... .. . ... : ... .. . ... : ... .. . ...
ROW 2F : ... .. . ... : ... .. 7 ... : ... .. . D00 : ... .. . ... : ... .. . ...
ROW 30 : ... .. . ... : ... .. . ... : ... .. . ... : ... .. . ... : ... .. . ...
ROW 31 : ... .. . ... : ... .. . ... : ... .. . ... : ... .. . ... : ... .. . ...
ROW 32 : ... .. . ... : ... .. . ... : ... .. . ... : ... .. . ... : ... .. . ...
ROW 33 : ... .. . ... : ... .. . ... : ... .. . ... : ... .. . ... : ... .. . ...
ROW 34 : ... .. . ... : ... .. . ... : ... .. . ... : ... .. . ... : ... .. . ...
ROW 35 : ... .. . ... : ... .. . ... : ... .. . ... : ... .. . ... : ... .. . ...
ROW 36 : ... .. . ... : ... .. . ... : ... .. . ... : ... .. . ... : ... .. . ...
ROW 37 : ... .. . ... : ... .. . ... : ... .. . ... : ... .. . ... : ... .. . ...
ROW 38 : ... .. . ... : ... .. . ... : ... .. . ... : ... .. . ... : ... .. . ...
ROW 39 : ... .. . ... : ... .. . ... : ... .. . ... : ... .. . ... : ... .. . ...
ROW 3A : ... .. . ... : ... .. . ... : ... .. . ... : ... .. . ... : ... .. . ...
ROW 3B : ... .. . ... : ... .. . ... : ... .. . ... : ... .. . ... : ... .. . ...
ROW 3C : ... .. . ... : ... .. . ... : ... .. . ... : ... .. . ... : ... .. . ...
ROW 3D : ... .. . ... : ... .. . ... : ... .. . ... : ... .. . ... : ... .. . ...
ROW 3E : ... .. . ... : ... .. . ... : ... .. . ... : ... .. . ... : ... .. . ...
ROW 3F : ... .. . ... : ... .. . ... : ... .. . ... : ... .. . ... : ... .. . ...

PATTERN 0C
ROW 00 : G#2 02 F V00 : F#4 0B A ... : E-3 04 . ... : ... .. . ... : ... .. . ...
ROW 01 : ... .. . ... : ... .. 8 ... : E-2 00 . ... : ... .. . ... : ... .. . ...
ROW 02 : ... .. . ... : D#4 00 A G02 : ... .. . ... : ... .. . ... : ... .. . ...
ROW 03 : ... .. . ... : ... .. 8 ... : ... .. . ... : ... .. . ... : ... .. . ...
ROW 04 : ... .. . ... : C#4 0B A G04 : E-3 05 . ... : ... .. . ... : ... .. . ...
ROW 05 : ... .. . ... : ... .. 9 ... : ... .. . ... : ... .. . ... : ... .. . ...
ROW 06 : ... .. . ... : ... .. 8 ... : ... .. . ... : ... .. . ... : ... .. . ...
ROW 07 : ... .. . ... : ... .. 7 ... : ... .. . ... : ... .. . ... : ... .. . ...
ROW 08 : A#2 0A 5 ... : A#3 00 A ... : E-3 04 . ... : ... .. . ... : ... .. . ...
ROW 09 : ... .. . ... : ... .. 8 ... : E-2 00 . ... : ... .. . ... : ... .. . ...
ROW 0A : ... .. . ... : G#3 0B A G02 : ... .. . ... : ... .. . ... : ... .. . ...
ROW 0B : ... .. . ... : ... .. 8 ... : ... .. . ... : ... .. . ... : ... .. . ...
ROW 0C : G#2 02 F ... : F#3 00 A G04 : E-3 05 . ... : ... .. . ... : ... .. . ...
ROW 0D : ... .. . ... : ... .. 9 ... : ... .. . ... : ... .. . ... : ... .. . ...
ROW 0E : ... .. . ... : ... .. 8 ... : ... .. . ... : ... .. . ... : ... .. . ...
ROW 0F : ... .. . ... : ... .. 7 ... : ... .. . ... : ... .. . ... : ... .. . ...
ROW 10 : ... .. . ... : D#3 0B A ... : E-3 04 . ... : ... .. . ... : ... .. . ...
ROW 11 : ... .. . ... : ... .. 8 ... : E-2 00 . ... : ... .. . ... : ... .. . ...
ROW 12 : ... .. . ... : C#3 00 A G02 : ... .. . ... : ... .. . ... : ... .. . ...
ROW 13 : ... .. . ... : ... .. 8 ... : ... .. . ... : ... .. . ... : ... .. . ...
ROW 14 : A#2 0A 5 ... : A#2 0B A G04 : E-3 05 . ... : ... .. . ... : ... .. . ...
ROW 15 : ... .. . ... : ... .. 9 ... : ... .. . ... : ... .. . ... : ... .. . ...
ROW 16 : ... .. . ... : ... .. 8 ... : ... .. . ... : ... .. . ... : ... .. . ...
ROW 17 : ... .. . ... : ... .. 7 ... : ... .. . ... : ... .. . ... : ... .. . ...
ROW 18 : G#2 02 F V01 : G#2 00 A ... : E-3 04 . ... : ... .. . ... : ... .. . ...
ROW 19 : ... .. . ... : ... .. 8 ... : E-2 00 . ... : ... .. . ... : ... .. . ...
ROW 1A : ... .. . ... : F#2 0B A G02 : ... .. . ... : ... .. . ... : ... .. . ...
ROW 1B : ... .. . ... : ... .. 8 ... : ... .. . ... : ... .. . ... : ... .. . ...
ROW 1C : ... .. . ... : D#2 00 A G04 : E-3 05 . ... : ... .. . ... : ... .. . ...
ROW 1D : ... .. . ... : ... .. 9 ... : ... .. . ... : ... .. . ... : ... .. . ...
ROW 1E : ... .. . ... : ... .. 8 ... : ... .. . ... : ... .. . ... : ... .. . ...
ROW 1F : ... .. . ... : ... .. 7 ... : ... .. . ... : ... .. . ... : ... .. . ...
ROW 20 : A#2 0A 5 ... : C#2 0B A ... : E-3 04 . ... : ... .. . ... : ... .. . ...
ROW 21 : ... .. . ... : D#2 00 . G01 : E-2 00 . ... : ... .. . ... : ... .. . ...
ROW 22 : ... .. . ... : F#2 00 . G02 : ... .. . ... : ... .. . ... : ... .. . ...
ROW 23 : ... .. . ... : ... .. 8 ... : ... .. . ... : ... .. . ... : ... .. . ...
ROW 24 : ... .. . ... : G#2 0B A ... : E-3 05 . ... : ... .. . ... : ... .. . ...
ROW 25 : ... .. . ... : A-2 00 . G01 : ... .. . ... : ... .. . ... : ... .. . ...
ROW 26 : ... .. . ... : A#2 00 . G02 : ... .. . ... : ... .. . ... : ... .. . ...
ROW 27 : ... .. . ... : ... .. 8 ... : ... .. . ... : ... .. . ... : ... .. . ...
ROW 28 : A#1 01 8 V02 : C#3 0B A ... : E-3 04 . ... : ... .. . ... : ... .. . ...
ROW 29 : --- .. . ... : D#3 00 . G01 : E-2 00 . ... : ... .. . ... : ... .. . ...
ROW 2A : A#1 01 . ... : F-3 00 . G02 : ... .. . ... : ... .. . ... : ... .. . ...
ROW 2B : ... .. . ... : ... .. 8 ... : ... .. . ... : ... .. . ... : ... .. . ...
ROW 2C : A#0 01 . ... : F#3 0B A ... : F#2 00 . ... : ... .. . ... : ... .. . ...
ROW 2D : ... .. . ... : G#3 00 . G01 : ... .. . ... : ... .. . ... : ... .. . ...
ROW 2E : ... .. . ... : A#3 00 . G02 : ... .. . ... : ... .. . ... : ... .. . ...
ROW 2F : ... .. . ... : ... .. 8 ... : ... .. . D00 : ... .. . ... : ... .. . ...
ROW 30 : ... .. . ... : C#4 0B A ... : ... .. . ... : ... .. . ... : ... .. . ...
ROW 31 : ... .. . ... : D-4 00 . G01 : ... .. . ... : ... .. . ... : ... .. . ...
ROW 32 : ... .. . ... : D#4 00 . G02 : ... .. . ... : ... .. . ... : ... .. . ...
ROW 33 : ... .. . ... : ... .. 8 ... : ... .. . ... : ... .. . ... : ... .. . ...
ROW 34 : ... .. . ... : F#4 0B A ... : ... .. . ... : ... .. . ... : ... .. . ...
ROW 35 : ... .. . ... : G#4 00 . G01 : ... .. . ... : ... .. . ... : ... .. . ...
ROW 36 : ... .. . ... : A#4 00 . G02 : ... .. . ... : ... .. . ... : ... .. . ...
ROW 37 : ... .. . ... : ... .. 8 ... : ... .. . ... : ... .. . ... : ... .. . ...
ROW 38 : ... .. . ... : C#5 0B A ... : ... .. . ... : ... .. . ... : ... .. . ...
ROW 39 : ... .. . ... : D-5 00 . G01 : ... .. . ... : ... .. . ... : ... .. . ...
ROW 3A : ... .. . ... : D#5 00 . G02 : ... .. . ... : ... .. . ... : ... .. . ...
ROW 3B : ... .. . ... : ... .. 8 ... : ... .. . ... : ... .. . ... : ... .. . ...
ROW 3C : ... .. . ... : F#5 0B A ... : ... .. . ... : ... .. . ... : ... .. . ...
ROW 3D : ... .. . ... : ... .. . ... : ... .. . ... : ... .. . ... : ... .. . ...
ROW 3E : ... .. . ... : ... .. . Q12 : ... .. . ... : ... .. . ... : ... .. . ...
ROW 3F : ... .. . ... : ... .. 9 ... : ... .. . ... : ... .. . ... : ... .. . ...

PATTERN 0D
ROW 00 : A#2 02 F V02 : ... .. . ... : E-3 04 . ... : ... .. . ... : ... .. . ...
ROW 01 : ... .. . ... : ... .. . ... : D#2 00 . ... : ... .. . ... : ... .. . ...
ROW 02 : ... .. . ... : ... .. 8 ... : ... .. . ... : ... .. . ... : ... .. . ...
ROW 03 : ... .. . ... : ... .. . ... : ... .. . ... : ... .. . ... : ... .. . ...
ROW 04 : ... .. . ... : ... .. . Q12 : D#3 05 . ... : ... .. . ... : ... .. . ...
ROW 05 : ... .. . ... : ... .. . ... : ... .. . ... : ... .. . ... : ... .. . ...
ROW 06 : ... .. . ... : ... .. 7 ... : ... .. . ... : ... .. . ... : ... .. . ...
ROW 07 : ... .. . ... : ... .. . R12 : ... .. . ... : ... .. . ... : ... .. . ...
ROW 08 : C-3 0A 5 ... : ... .. . ... : E-3 04 . ... : ... .. . ... : ... .. . ...
ROW 09 : ... .. . ... : ... .. . ... : D#2 00 . ... : ... .. . ... : ... .. . ...
ROW 0A : ... .. . ... : ... .. 6 Q12 : ... .. . ... : ... .. . ... : ... .. . ...
ROW 0B : ... .. . ... : ... .. . ... : ... .. . ... : ... .. . ... : ... .. . ...
ROW 0C : A#2 02 F ... : ... .. . ... : D#3 05 . ... : ... .. . ... : ... .. . ...
ROW 0D : ... .. . ... : ... .. . ... : ... .. . ... : ... .. . ... : ... .. . ...
ROW 0E : ... .. . ... : ... .. . R12 : ... .. . ... : ... .. . ... : ... .. . ...
ROW 0F : ... .. . ... : ... .. 5 ... : ... .. . ... : ... .. . ... : ... .. . ...
ROW 10 : ... .. . ... : ... .. . ... : E-3 04 . ... : ... .. . ... : ... .. . ...
ROW 11 : ... .. . ... : ... .. . ... : D#2 00 . ... : ... .. . ... : ... .. . ...
ROW 12 : ... .. . ... : ... .. . Q12 : ... .. . ... : ... .. . ... : ... .. . ...
ROW 13 : ... .. . ... : ... .. . ... : ... .. . ... : ... .. . ... : ... .. . ...
ROW 14 : C-3 0A 5 ... : ... .. 4 ... : D#3 05 . ... : ... .. . ... : ... .. . ...
ROW 15 : ... .. . ... : ... .. . ... : ... .. . ... : ... .. . ... : ... .. . ...
ROW 16 : ... .. . ... : ... .. . ... : ... .. . ... : ... .. . ... : ... .. . ...
ROW 17 : ... .. . ... : ... .. . R12 : ... .. . ... : ... .. . ... : ... .. . ...
ROW 18 : A#2 02 F V01 : ... .. . ... : E-3 04 . ... : ... .. . ... : ... .. . ...
ROW 19 : ... .. . ... : ... .. . ... : D#2 00 . ... : ... .. . ... : ... .. . ...
ROW 1A : ... .. . ... : ... .. . ... : ... .. . ... : ... .. . ... : ... .. . ...
ROW 1B : ... .. . ... : ... .. 3 ... : ... .. . ... : ... .. . ... : ... .. . ...
ROW 1C : ... .. . ... : ... .. . ... : D#3 05 . ... : ... .. . ... : ... .. . ...
ROW 1D : ... .. . ... : ... .. . ... : ... .. . ... : ... .. . ... : ... .. . ...
ROW 1E : ... .. . ... : ... .. . ... : ... .. . ... : ... .. . ... : ... .. . ...
ROW 1F : ... .. . ... : ... .. . ... : ... .. . ... : ... .. . ... : ... .. . ...
ROW 20 : C-3 0A 5 ... : ... .. . 484 : E-3 04 . ... : ... .. . ... : ... .. . ...
ROW 21 : ... .. . ... : ... .. . ... : D#2 00 . ... : ... .. . ... : ... .. . ...
ROW 22 : ... .. . ... : ... .. . ... : ... .. . ... : ... .. . ... : ... .. . ...
ROW 23 : ... .. . ... : ... .. . ... : ... .. . ... : ... .. . ... : ... .. . ...
ROW 24 : ... .. . ... : ... .. . ... : D#3 05 . ... : ... .. . ... : ... .. . ...
ROW 25 : ... .. . ... : ... .. . ... : ... .. . ... : ... .. . ... : ... .. . ...
ROW 26 : ... .. . ... : ... .. . ... : ... .. . ... : ... .. . ... : ... .. . ...
ROW 27 : ... .. . ... : ... .. . ... : ... .. . ... : ... .. . ... : ... .. . ...
ROW 28 : C-1 01 8 V02 : ... .. . ... : E-3 04 . ... : ... .. . ... : ... .. . ...
ROW 29 : ... .. . ... : ... .. . ... : D#2 00 . ... : ... .. . ... : ... .. . ...
ROW 2A : ... .. . ... : ... .. . ... : ... .. . ... : ... .. . ... : ... .. . ...
ROW 2B : ... .. . ... : ... .. . ... : ... .. . ... : ... .. . ... : ... .. . ...
ROW 2C : C-2 01 . ... : ... .. . 400 : D-2 00 . ... : ... .. . ... : ... .. . ...
ROW 2D : ... .. . ... : ... .. . 103 : ... .. . ... : ... .. . ... : ... .. . ...
ROW 2E : ... .. . ... : ... .. . ... : ... .. . ... : ... .. . ... : ... .. . ...
ROW 2F : ... .. . ... : ... .. . ... : ... .. . D00 : ... .. . ... : ... .. . ...
ROW 30 : ... .. . ... : ... .. . 20F : ... .. . ... : ... .. . ... : ... .. . ...
ROW 31 : ... .. . ... : ... .. . ... : ... .. . ... : ... .. . ... : ... .. . ...
ROW 32 : ... .. . ... : ... .. . ... : ... .. . ... : ... .. . ... : ... .. . ...
ROW 33 : ... .. . ... : ... .. . ... : ... .. . ... : ... .. . ... : ... .. . ...
ROW 34 : ... .. . ... : C#6 00 2 ... : ... .. . ... : ... .. . ... : ... .. . ...
ROW 35 : ... .. . ... : ... .. . ... : ... .. . ... : ... .. . ... : ... .. . ...
ROW 36 : ... .. . ... : ... .. . ... : ... .. . ... : ... .. . ... : ... .. . ...
ROW 37 : ... .. . ... : ... .. . ... : ... .. . ... : ... .. . ... : ... .. . ...
ROW 38 : ... .. . ... : C#6 00 1 ... : ... .. . ... : ... .. . ... : ... .. . ...
ROW 39 : ... .. . ... : ... .. . ... : ... .. . ... : ... .. . ... : ... .. . ...
ROW 3A : ... .. . ... : ... .. . ... : ... .. . ... : ... .. . ... : ... .. . ...
ROW 3B : ... .. . ... : ... .. . ... : ... .. . ... : ... .. . ... : ... .. . ...
ROW 3C : ... .. . ... : --- .. . 200 : ... .. . ... : ... .. . ... : ... .. . ...
ROW 3D : ... .. . ... : ... .. . ... : ... .. . ... : ... .. . ... : ... .. . ...
ROW 3E : ... .. . ... : ... .. . ... : ... .. . ... : ... .. . ... : ... .. . ...
ROW 3F : ... .. . ... : ... .. . ... : ... .. . ... : ... .. . ... : ... .. . ...

PATTERN 0E
ROW 00 : B-2 08 A V00 : D-3 00 A V00 : C#2 01 . ... : ... .. . ... : ... .. . ...
ROW 01 : ... .. . ... : ... .. . ... : ... .. . ... : ... .. . ... : ... .. . ...
ROW 02 : ... .. . ... : ... .. 9 ... : ... .. . ... : ... .. . ... : ... .. . ...
ROW 03 : ... .. 9 ... : ... .. . ... : ... .. . ... : ... .. . ... : ... .. . ...
ROW 04 : ... .. . ... : ... .. 8 464 : ... .. . ... : ... .. . ... : ... .. . ...
ROW 05 : ... .. . ... : ... .. . ... : ... .. . ... : ... .. . ... : ... .. . ...
ROW 06 : ... .. 8 ... : ... .. 7 ... : ... .. . ... : ... .. . ... : ... .. . ...
ROW 07 : ... .. . ... : ... .. . 400 : ... .. . ... : ... .. . ... : ... .. . ...
ROW 08 : ... .. . V01 : A#2 00 A 318 : E-3 04 . ... : ... .. . ... : ... .. . ...
ROW 09 : ... .. 7 ... : ... .. . ... : C#2 00 . ... : ... .. . ... : ... .. . ...
ROW 0A : ... .. . ... : ... .. 9 ... : ... .. . ... : ... .. . ... : ... .. . ...
ROW 0B : ... .. . ... : ... .. . ... : ... .. . ... : ... .. . ... : ... .. . ...
ROW 0C : ... .. 6 ... : ... .. 8 464 : E-3 04 . ... : ... .. . ... : ... .. . ...
ROW 0D : ... .. . ... : ... .. . ... : C#2 00 . ... : ... .. . ... : ... .. . ...
ROW 0E : ... .. . ... : ... .. 7 ... : ... .. . ... : ... .. . ... : ... .. . ...
ROW 0F : ... .. . ... : ... .. . ... : ... .. . ... : ... .. . ... : ... .. . ...
ROW 10 : ... .. . V02 : A-3 00 A 400 : E-3 04 . ... : ... .. . ... : ... .. . ...
ROW 11 : ... .. . ... : ... .. . ... : C#2 00 . ... : ... .. . ... : ... .. . ...
ROW 12 : ... .. 5 ... : ... .. 9 ... : ... .. . ... : ... .. . ... : ... .. . ...
ROW 13 : ... .. . ... : ... .. . ... : ... .. . ... : ... .. . ... : ... .. . ...
ROW 14 : ... .. . ... : ... .. 8 464 : E-3 04 . ... : ... .. . ... : ... .. . ...
ROW 15 : ... .. . ... : ... .. . ... : C#2 00 . ... : ... .. . ... : ... .. . ...
ROW 16 : ... .. . ... : ... .. 7 ... : ... .. . ... : ... .. . ... : ... .. . ...
ROW 17 : ... .. . ... : ... .. . ... : ... .. . ... : ... .. . ... : ... .. . ...
ROW 18 : ... .. 4 V01 : F-3 00 A 400 : ... .. . ... : ... .. . ... : ... .. . ...
ROW 19 : ... .. . ... : ... .. . ... : ... .. . ... : ... .. . ... : ... .. . ...
ROW 1A : ... .. . ... : ... .. 9 ... : ... .. . ... : ... .. . ... : ... .. . ...
ROW 1B : ... .. . ... : ... .. . ... : ... .. . ... : ... .. . ... : ... .. . ...
ROW 1C : ... .. . ... : ... .. 8 464 : ... .. . ... : ... .. . ... : ... .. . ...
ROW 1D : ... .. . ... : ... .. . ... : ... .. . ... : ... .. . ... : ... .. . ...
ROW 1E : ... .. . ... : ... .. 7 ... : ... .. . ... : ... .. . ... : ... .. . ...
ROW 1F : ... .. . ... : ... .. . ... : ... .. . ... : ... .. . ... : ... .. . ...
ROW 20 : ... .. 3 V00 : C-4 00 A 400 : ... .. . ... : ... .. . ... : ... .. . ...
ROW 21 : ... .. . ... : ... .. . ... : ... .. . ... : ... .. . ... : ... .. . ...
ROW 22 : ... .. . ... : ... .. 9 ... : ... .. . ... : ... .. . ... : ... .. . ...
ROW 23 : ... .. . ... : ... .. . ... : ... .. . ... : ... .. . ... : ... .. . ...
ROW 24 : ... .. . ... : ... .. 8 464 : E-3 04 . ... : ... .. . ... : ... .. . ...
ROW 25 : ... .. . ... : ... .. . ... : C#2 00 . ... : ... .. . ... : ... .. . ...
ROW 26 : ... .. . V01 : ... .. 7 ... : ... .. . ... : ... .. . ... : ... .. . ...
ROW 27 : ... .. . ... : ... .. . ... : ... .. . ... : ... .. . ... : ... .. . ...
ROW 28 : ... .. . ... : A-3 00 A 400 : E-3 04 . ... : ... .. . ... : ... .. . ...
ROW 29 : ... .. . ... : ... .. . ... : C#2 00 . ... : ... .. . ... : ... .. . ...
ROW 2A : ... .. . ... : ... .. 9 ... : ... .. . ... : ... .. . ... : ... .. . ...
ROW 2B : ... .. . ... : ... .. . ... : ... .. . ... : ... .. . ... : ... .. . ...
ROW 2C : ... .. 2 V02 : ... .. 8 464 : E-3 04 . ... : ... .. . ... : ... .. . ...
ROW 2D : ... .. . ... : ... .. . ... : C#2 00 . ... : ... .. . ... : ... .. . ...
ROW 2E : ... .. . ... : ... .. 7 ... : ... .. . ... : ... .. . ... : ... .. . ...
ROW 2F : ... .. . ... : ... .. . 400 : ... .. . ... : ... .. . ... : ... .. . ...
ROW 30 : ... .. . ... : ... .. . ... : E-3 04 . ... : ... .. . ... : ... .. . ...
ROW 31 : ... .. . ... : ... .. . ... : C#2 00 . ... : ... .. . ... : ... .. . ...
ROW 32 : ... .. . V01 : ... .. . ... : C#3 00 . 308 : ... .. . ... : ... .. . ...
ROW 33 : ... .. . ... : ... .. . ... : ... .. . ... : ... .. . ... : ... .. . ...
ROW 34 : ... .. . ... : ... .. . ... : ... .. . ... : ... .. . ... : ... .. . ...
ROW 35 : ... .. . ... : ... .. . ... : ... .. . ... : ... .. . ... : ... .. . ...
ROW 36 : ... .. . ... : ... .. . ... : ... .. . ... : ... .. . ... : ... .. . ...
ROW 37 : ... .. . ... : ... .. . ... : ... .. . ... : ... .. . ... : ... .. . ...
ROW 38 : ... .. . V00 : ... .. . ... : ... .. . ... : ... .. . ... : ... .. . ...
ROW 39 : ... .. . ... : ... .. . ... : ... .. . ... : ... .. . ... : ... .. . ...
ROW 3A : ... .. . ... : ... .. . ... : ... .. . ... : ... .. . ... : ... .. . ...
ROW 3B : ... .. . ... : ... .. . ... : ... .. . ... : ... .. . ... : ... .. . ...
ROW 3C : ... .. . V01 : ... .. . ... : ... .. . ... : ... .. . ... : ... .. . ...
ROW 3D : ... .. . ... : ... .. . ... : ... .. . ... : ... .. . ... : ... .. . ...
ROW 3E : ... .. . ... : ... .. . ... : ... .. . ... : ... .. . ... : ... .. . ...
ROW 3F : ... .. . ... : ... .. . ... : ... .. . ... : ... .. . ... : ... .. . ...

PATTERN 0F
ROW 00 : B-2 0F 8 V02 : --- .. . ... : C#3 01 . 300 : ... .. . ... : ... .. . ...
ROW 01 : ... .. . ... : ... .. . ... : ... .. . ... : ... .. . ... : ... .. . ...
ROW 02 : ... .. . ... : ... .. . ... : ... .. . ... : ... .. . ... : ... .. . ...
ROW 03 : ... .. . ... : ... .. . ... : ... .. . ... : ... .. . ... : ... .. . ...
ROW 04 : ... .. . V01 : G-3 01 9 V02 : ... .. . ... : ... .. . ... : ... .. . ...
ROW 05 : ... .. . ... : A#3 01 3 V00 : ... .. . ... : ... .. . ... : ... .. . ...
ROW 06 : ... .. 7 ... : D#3 01 9 V02 : ... .. . ... : ... .. . ... : ... .. . ...
ROW 07 : ... .. . ... : G-3 01 3 V00 : ... .. . ... : ... .. . ... : ... .. . ...
ROW 08 : ... .. . V00 : D-3 01 8 V02 : E-3 04 . ... : ... .. . ... : ... .. . ...
ROW 09 : ... .. . ... : D#3 01 3 V00 : C#3 00 . ... : ... .. . ... : ... .. . ...
ROW 0A : ... .. . ... : A#2 01 8 V02 : ... .. . ... : ... .. . ... : ... .. . ...
ROW 0B : ... .. . ... : D-3 01 3 V00 : ... .. . ... : ... .. . ... : ... .. . ...
ROW 0C : ... .. 6 V01 : G-2 01 7 V02 : E-3 04 . ... : ... .. . ... : ... .. . ...
ROW 0D : ... .. . ... : A#2 01 3 V00 : C#3 00 . ... : ... .. . ... : ... .. . ...
ROW 0E : ... .. . ... : D#2 01 7 V02 : ... .. . ... : ... .. . ... : ... .. . ...
ROW 0F : ... .. . ... : G-2 01 3 V00 : ... .. . ... : ... .. . ... : ... .. . ...
ROW 10 : ... .. . V02 : D#4 01 A V02 : E-3 04 . ... : ... .. . ... : ... .. . ...
ROW 11 : ... .. . ... : D#2 01 3 V00 : C#3 00 . ... : ... .. . ... : ... .. . ...
ROW 12 : ... .. 5 ... : C-4 01 A V02 : ... .. . ... : ... .. . ... : ... .. . ...
ROW 13 : ... .. . ... : D#4 01 3 V00 : ... .. . ... : ... .. . ... : ... .. . ...
ROW 14 : ... .. . V01 : G#3 01 9 V02 : E-3 04 . ... : ... .. . ... : ... .. . ...
ROW 15 : ... .. . ... : C-4 01 3 V00 : C#3 00 . ... : ... .. . ... : ... .. . ...
ROW 16 : ... .. . ... : G-3 01 9 V02 : ... .. . ... : ... .. . ... : ... .. . ...
ROW 17 : ... .. . ... : G#3 01 3 V00 : ... .. . ... : ... .. . ... : ... .. . ...
ROW 18 : ... .. 4 V00 : D#3 01 8 V02 : ... .. . ... : ... .. . ... : ... .. . ...
ROW 19 : ... .. . ... : G-3 01 3 V00 : ... .. . ... : ... .. . ... : ... .. . ...
ROW 1A : ... .. . ... : C-3 01 8 V02 : ... .. . ... : ... .. . ... : ... .. . ...
ROW 1B : ... .. . V01 : D#3 01 3 V00 : ... .. . ... : ... .. . ... : ... .. . ...
ROW 1C : ... .. . ... : C-4 01 A V02 : ... .. . ... : ... .. . ... : ... .. . ...
ROW 1D : ... .. . ... : C-3 01 3 V00 : ... .. . ... : ... .. . ... : ... .. . ...
ROW 1E : ... .. . V02 : G#3 01 A V02 : ... .. . ... : ... .. . ... : ... .. . ...
ROW 1F : ... .. . ... : C-4 01 3 V00 : ... .. . ... : ... .. . ... : ... .. . ...
ROW 20 : ... .. 3 ... : F-3 01 9 V02 : ... .. . ... : ... .. . ... : ... .. . ...
ROW 21 : ... .. . V01 : G#3 01 3 V00 : ... .. . ... : ... .. . ... : ... .. . ...
ROW 22 : ... .. . ... : C#3 01 9 V02 : ... .. . ... : ... .. . ... : ... .. . ...
ROW 23 : ... .. . ... : F-3 01 3 V00 : ... .. . ... : ... .. . ... : ... .. . ...
ROW 24 : ... .. . V00 : C-3 01 8 V02 : E-3 04 . ... : ... .. . ... : ... .. . ...
ROW 25 : ... .. . ... : C#3 01 3 V00 : C#3 03 . ... : ... .. . ... : ... .. . ...
ROW 26 : ... .. . ... : G#2 01 8 V02 : ... .. . ... : ... .. . ... : ... .. . ...
ROW 27 : ... .. . V01 : C-3 01 3 V00 : ... .. . ... : ... .. . ... : ... .. . ...
ROW 28 : ... .. . ... : D#4 01 A V02 : E-3 04 . ... : ... .. . ... : ... .. . ...
ROW 29 : ... .. . ... : G#2 01 3 V00 : C#4 03 . ... : ... .. . ... : ... .. . ...
ROW 2A : ... .. . V02 : B-3 01 A V02 : ... .. . ... : ... .. . ... : ... .. . ...
ROW 2B : ... .. . ... : D#4 01 3 V00 : ... .. . ... : ... .. . ... : ... .. . ...
ROW 2C : ... .. 2 ... : A#3 01 9 V02 : E-3 04 . ... : ... .. . ... : ... .. . ...
ROW 2D : ... .. . V01 : B-3 01 3 V00 : C#3 03 . ... : ... .. . ... : ... .. . ...
ROW 2E : ... .. . ... : F#3 01 9 V02 : ... .. . ... : ... .. . ... : ... .. . ...
ROW 2F : ... .. . ... : A#3 01 3 V00 : ... .. . ... : ... .. . ... : ... .. . ...
ROW 30 : ... .. . V00 : D#3 01 8 V02 : E-3 04 . ... : ... .. . ... : ... .. . ...
ROW 31 : ... .. . ... : F#3 01 3 V00 : C#5 03 . ... : ... .. . ... : ... .. . ...
ROW 32 : ... .. . V01 : B-2 01 8 V02 : ... .. . ... : ... .. . ... : ... .. . ...
ROW 33 : ... .. . ... : D#3 01 3 V00 : ... .. . ... : ... .. . ... : ... .. . ...
ROW 34 : ... .. . V02 : A#2 01 7 V02 : ... .. . ... : ... .. . ... : ... .. . ...
ROW 35 : ... .. . ... : B-2 01 3 V00 : ... .. . ... : ... .. . ... : ... .. . ...
ROW 36 : ... .. . V01 : F#2 01 7 V02 : ... .. . ... : ... .. . ... : ... .. . ...
ROW 37 : ... .. . ... : A#2 01 3 V00 : ... .. . ... : ... .. . ... : ... .. . ...
ROW 38 : ... .. . V00 : D#2 01 6 V02 : E-3 04 . ... : ... .. . ... : ... .. . ...
ROW 39 : ... .. . ... : F#2 01 2 V00 : C#6 03 . ... : ... .. . ... : ... .. . ...
ROW 3A : ... .. . V01 : B-1 01 6 V02 : ... .. . ... : ... .. . ... : ... .. . ...
ROW 3B : ... .. . ... : D#2 01 2 V00 : ... .. . ... : ... .. . ... : ... .. . ...
ROW 3C : ... .. . V02 : ... .. . ... : C#5 03 . ... : ... .. . ... : ... .. . ...
ROW 3D : ... .. . ... : ... .. . ... : ... .. . ... : ... .. . ... : ... .. . ...
ROW 3E : ... .. . V01 : ... .. . ... : ... .. . ... : ... .. . ... : ... .. . ...
ROW 3F : ... .. . ... : ... .. . ... : ... .. . ... : ... .. . ... : ... .. . ...

PATTERN 10
ROW 00 : ... .. . ... : C#3 00 A 300 : ... .. . ... : ... .. . ... : ... .. . ...
ROW 01 : ... .. . ... : ... .. 9 ... : ... .. . ... : ... .. . ... : ... .. . ...
ROW 02 : ... .. . ... : ... .. . ... : ... .. . ... : ... .. . ... : ... .. . ...
ROW 03 : ... .. . ... : ... .. 8 ... : ... .. . ... : ... .. . ... : ... .. . ...
ROW 04 : D#3 02 8 V01 : ... .. 7 464 : ... .. . ... : ... .. . ... : ... .. . ...
ROW 05 : ... .. . ... : ... .. . 400 : ... .. . ... : ... .. . ... : ... .. . ...
ROW 06 : ... .. . ... : G#2 00 A 318 : ... .. . ... : ... .. . ... : ... .. . ...
ROW 07 : ... .. . ... : ... .. 9 ... : ... .. . ... : ... .. . ... : ... .. . ...
ROW 08 : --- .. . 200 : ... .. . ... : ... .. . ... : ... .. . ... : ... .. . ...
ROW 09 : ... .. . ... : ... .. 8 ... : ... .. . ... : ... .. . ... : ... .. . ...
ROW 0A : ... .. . ... : ... .. 7 464 : ... .. . ... : ... .. . ... : ... .. . ...
ROW 0B : ... .. . ... : ... .. . ... : ... .. . ... : ... .. . ... : ... .. . ...
ROW 0C : ... .. . ... : F-3 00 A 400 : ... .. . ... : ... .. . ... : ... .. . ...
ROW 0D : ... .. . ... : ... .. 9 ... : ... .. . ... : ... .. . ... : ... .. . ...
ROW 0E : ... .. . ... : ... .. . ... : ... .. . ... : ... .. . ... : ... .. . ...
ROW 0F : ... .. . ... : ... .. 8 ... : ... .. . ... : ... .. . ... : ... .. . ...
ROW 10 : G#3 02 F V00 : ... .. 7 464 : ... .. . ... : ... .. . ... : ... .. . ...
ROW 11 : ... .. . ... : ... .. . ... : ... .. . ... : ... .. . ... : ... .. . ...
ROW 12 : ... .. . ... : C-3 00 A 400 : ... .. . ... : ... .. . ... : ... .. . ...
ROW 13 : ... .. . ... : ... .. 9 ... : ... .. . ... : ... .. . ... : ... .. . ...
ROW 14 : ... .. . V01 : ... .. . ... : ... .. . ... : ... .. . ... : ... .. . ...
ROW 15 : ... .. . ... : ... .. 8 ... : ... .. . ... : ... .. . ... : ... .. . ...
ROW 16 : ... .. . ... : ... .. 7 464 : ... .. . ... : ... .. . ... : ... .. . ...
ROW 17 : ... .. . ... : ... .. . ... : ... .. . ... : ... .. . ... : ... .. . ...
ROW 18 : --- .. . ... : G#3 00 A 400 : ... .. . ... : ... .. . ... : ... .. . ...
ROW 19 : ... .. . ... : ... .. 9 ... : ... .. . ... : ... .. . ... : ... .. . ...
ROW 1A : ... .. . ... : ... .. . ... : ... .. . ... : ... .. . ... : ... .. . ...
ROW 1B : ... .. . ... : ... .. 8 ... : ... .. . ... : ... .. . ... : ... .. . ...
ROW 1C : C#3 02 . V01 : ... .. 7 464 : ... .. . ... : ... .. . ... : ... .. . ...
ROW 1D : ... .. . ... : ... .. . ... : ... .. . ... : ... .. . ... : ... .. . ...
ROW 1E : ... .. . ... : F-3 00 A 400 : ... .. . ... : ... .. . ... : ... .. . ...
ROW 1F : ... .. . ... : ... .. 9 ... : ... .. . ... : ... .. . ... : ... .. . ...
ROW 20 : ... .. . V00 : ... .. . ... : ... .. . ... : ... .. . ... : ... .. . ...
ROW 21 : ... .. . ... : ... .. 8 ... : ... .. . ... : ... .. . ... : ... .. . ...
ROW 22 : ... .. . ... : ... .. 7 464 : ... .. . ... : ... .. . ... : ... .. . ...
ROW 23 : ... .. . ... : ... .. . ... : ... .. . ... : ... .. . ... : ... .. . ...
ROW 24 : --- .. . ... : C-4 00 A 400 : ... .. . ... : ... .. . ... : ... .. . ...
ROW 25 : ... .. . ... : ... .. 9 ... : ... .. . ... : ... .. . ... : ... .. . ...
ROW 26 : ... .. . ... : ... .. . ... : ... .. . ... : ... .. . ... : ... .. . ...
ROW 27 : ... .. . ... : ... .. 8 ... : ... .. . ... : ... .. . ... : ... .. . ...
ROW 28 : B-2 02 . V02 : ... .. 7 464 : ... .. . ... : ... .. . ... : ... .. . ...
ROW 29 : ... .. . ... : ... .. . ... : ... .. . ... : ... .. . ... : ... .. . ...
ROW 2A : ... .. . ... : G#3 00 A 400 : ... .. . ... : ... .. . ... : ... .. . ...
ROW 2B : ... .. . ... : ... .. 9 ... : ... .. . ... : ... .. . ... : ... .. . ...
ROW 2C : ... .. . V01 : ... .. . ... : ... .. . ... : ... .. . ... : ... .. . ...
ROW 2D : ... .. . ... : ... .. 8 300 : ... .. . ... : ... .. . ... : ... .. . ...
ROW 2E : ... .. . ... : ... .. 7 464 : ... .. . ... : ... .. . ... : ... .. . ...
ROW 2F : ... .. . ... : ... .. . 400 : ... .. . ... : ... .. . ... : ... .. . ...
ROW 30 : --- .. . ... : ... .. . ... : ... .. . ... : ... .. . ... : ... .. . ...
ROW 31 : ... .. . ... : ... .. . ... : ... .. . ... : ... .. . ... : ... .. . ...
ROW 32 : ... .. . ... : ... .. . ... : ... .. . ... : ... .. . ... : ... .. . ...
ROW 33 : ... .. . ... : ... .. . ... : ... .. . ... : ... .. . ... : ... .. . ...
ROW 34 : ... .. . ... : ... .. . ... : ... .. . ... : ... .. . ... : ... .. . ...
ROW 35 : ... .. . ... : ... .. . ... : ... .. . ... : ... .. . ... : ... .. . ...
ROW 36 : ... .. . ... : ... .. . ... : ... .. . ... : ... .. . ... : ... .. . ...
ROW 37 : ... .. . ... : ... .. . ... : ... .. . ... : ... .. . ... : ... .. . ...
ROW 38 : ... .. . ... : ... .. . ... : ... .. . ... : ... .. . ... : ... .. . ...
ROW 39 : ... .. . ... : ... .. . ... : ... .. . ... : ... .. . ... : ... .. . ...
ROW 3A : ... .. . ... : ... .. . ... : ... .. . ... : ... .. . ... : ... .. . ...
ROW 3B : ... .. . ... : ... .. . ... : ... .. . ... : ... .. . ... : ... .. . ...
ROW 3C : ... .. . ... : ... .. . ... : ... .. . ... : ... .. . ... : ... .. . ...
ROW 3D : ... .. . ... : ... .. . ... : ... .. . ... : ... .. . ... : ... .. . ...
ROW 3E : ... .. . ... : ... .. . ... : ... .. . ... : ... .. . ... : ... .. . ...
ROW 3F : ... .. . ... : ... .. . ... : ... .. . ... : ... .. . ... : ... .. . ...

PATTERN 11
ROW 00 : G#2 0C . ... : D-4 01 A V02 : ... .. . ... : ... .. . ... : ... .. . ...
ROW 01 : ... .. . ... : ... .. 9 ... : ... .. . ... : ... .. . ... : ... .. . ...
ROW 02 : ... .. . ... : ... .. . ... : ... .. . ... : ... .. . ... : ... .. . ...
ROW 03 : ... .. . ... : ... .. 8 ... : ... .. . ... : ... .. . ... : ... .. . ...
ROW 04 : ... .. . ... : D-4 01 7 ... : ... .. . ... : ... .. . ... : ... .. . ...
ROW 05 : ... .. . ... : ... .. . ... : ... .. . ... : ... .. . ... : ... .. . ...
ROW 06 : ... .. . ... : ... .. 6 ... : ... .. . ... : ... .. . ... : ... .. . ...
ROW 07 : ... .. . ... : ... .. 5 ... : ... .. . ... : ... .. . ... : ... .. . ...
ROW 08 : ... .. . ... : C-4 01 A ... : ... .. . ... : ... .. . ... : ... .. . ...
ROW 09 : ... .. . ... : ... .. 9 ... : ... .. . ... : ... .. . ... : ... .. . ...
ROW 0A : ... .. . ... : ... .. . ... : ... .. . ... : ... .. . ... : ... .. . ...
ROW 0B : ... .. . ... : ... .. 8 ... : ... .. . ... : ... .. . ... : ... .. . ...
ROW 0C : G#2 0C . ... : C-4 01 7 ... : ... .. . ... : ... .. . ... : ... .. . ...
ROW 0D : ... .. . ... : ... .. . ... : ... .. . ... : ... .. . ... : ... .. . ...
ROW 0E : ... .. . ... : ... .. 6 ... : ... .. . ... : ... .. . ... : ... .. . ...
ROW 0F : ... .. . ... : ... .. 5 ... : ... .. . ... : ... .. . ... : ... .. . ...
ROW 10 : ... .. . ... : A-3 01 A ... : ... .. . ... : ... .. . ... : ... .. . ...
ROW 11 : ... .. . ... : ... .. 9 ... : ... .. . ... : ... .. . ... : ... .. . ...
ROW 12 : ... .. . ... : ... .. . ... : ... .. . ... : ... .. . ... : ... .. . ...
ROW 13 : ... .. . ... : ... .. 8 ... : ... .. . ... : ... .. . ... : ... .. . ...
ROW 14 : ... .. . ... : A-3 01 7 ... : ... .. . ... : ... .. . ... : ... .. . ...
ROW 15 : ... .. . ... : ... .. . ... : ... .. . ... : ... .. . ... : ... .. . ...
ROW 16 : ... .. . ... : ... .. 6 ... : ... .. . ... : ... .. . ... : ... .. . ...
ROW 17 : ... .. . ... : ... .. 5 ... : ... .. . ... : ... .. . ... : ... .. . ...
ROW 18 : G#2 0C . ... : G-3 01 A ... : ... .. . ... : ... .. . ... : ... .. . ...
ROW 19 : ... .. . ... : ... .. 9 ... : ... .. . ... : ... .. . ... : ... .. . ...
ROW 1A : ... .. . ... : ... .. . ... : ... .. . ... : ... .. . ... : ... .. . ...
ROW 1B : ... .. . ... : ... .. 8 ... : ... .. . ... : ... .. . ... : ... .. . ...
ROW 1C : ... .. . ... : G-3 01 7 ... : ... .. . ... : ... .. . ... : ... .. . ...
ROW 1D : ... .. . ... : ... .. . ... : ... .. . ... : ... .. . ... : ... .. . ...
ROW 1E : ... .. . ... : ... .. 6 ... : ... .. . ... : ... .. . ... : ... .. . ...
ROW 1F : ... .. . ... : ... .. 5 ... : ... .. . ... : ... .. . ... : ... .. . ...
ROW 20 : ... .. . ... : F-3 01 A ... : ... .. . ... : ... .. . ... : ... .. . ...
ROW 21 : ... .. . ... : ... .. 9 ... : ... .. . ... : ... .. . ... : ... .. . ...
ROW 22 : ... .. . ... : ... .. . ... : ... .. . ... : ... .. . ... : ... .. . ...
ROW 23 : ... .. . ... : ... .. 8 ... : ... .. . ... : ... .. . ... : ... .. . ...
ROW 24 : ... .. . ... : F-3 01 7 ... : ... .. . ... : ... .. . ... : ... .. . ...
ROW 25 : ... .. . ... : ... .. . ... : ... .. . ... : ... .. . ... : ... .. . ...
ROW 26 : ... .. . ... : ... .. 6 ... : ... .. . ... : ... .. . ... : ... .. . ...
ROW 27 : ... .. . ... : ... .. 5 ... : ... .. . ... : ... .. . ... : ... .. . ...
ROW 28 : G#2 0D . ... : D-3 01 A ... : ... .. . ... : ... .. . ... : ... .. . ...
ROW 29 : ... .. . ... : ... .. 9 ... : ... .. . ... : ... .. . ... : ... .. . ...
ROW 2A : ... .. . ... : ... .. . ... : ... .. . ... : ... .. . ... : ... .. . ...
ROW 2B : ... .. . ... : ... .. 8 ... : ... .. . ... : ... .. . ... : ... .. . ...
ROW 2C : G#2 0C . ... : D-3 01 7 ... : ... .. . ... : ... .. . ... : ... .. . ...
ROW 2D : ... .. . ... : ... .. . ... : ... .. . ... : ... .. . ... : ... .. . ...
ROW 2E : ... .. . ... : ... .. 6 ... : ... .. . ... : ... .. . ... : ... .. . ...
ROW 2F : ... .. . ... : ... .. 5 ... : ... .. . ... : ... .. . ... : ... .. . ...
ROW 30 : ... .. . ... : ... .. . ... : ... .. . ... : ... .. . ... : ... .. . ...
ROW 31 : ... .. . ... : ... .. . ... : ... .. . ... : ... .. . ... : ... .. . ...
ROW 32 : ... .. . ... : ... .. . ... : ... .. . ... : ... .. . ... : ... .. . ...
ROW 33 : ... .. . ... : ... .. . ... : ... .. . ... : ... .. . ... : ... .. . ...
ROW 34 : ... .. . ... : ... .. . ... : ... .. . ... : ... .. . ... : ... .. . ...
ROW 35 : ... .. . ... : ... .. . ... : ... .. . ... : ... .. . ... : ... .. . ...
ROW 36 : ... .. . ... : ... .. . ... : ... .. . ... : ... .. . ... : ... .. . ...
ROW 37 : ... .. . ... : ... .. . ... : ... .. . ... : ... .. . ... : ... .. . ...
ROW 38 : ... .. . ... : ... .. . ... : ... .. . ... : ... .. . ... : ... .. . ...
ROW 39 : ... .. . ... : ... .. . ... : ... .. . ... : ... .. . ... : ... .. . ...
ROW 3A : ... .. . ... : ... .. . ... : ... .. . ... : ... .. . ... : ... .. . ...
ROW 3B : ... .. . ... : ... .. . ... : ... .. . ... : ... .. . ... : ... .. . ...
ROW 3C : ... .. . ... : ... .. . ... : ... .. . ... : ... .. . ... : ... .. . ...
ROW 3D : ... .. . ... : ... .. . ... : ... .. . ... : ... .. . ... : ... .. . ...
ROW 3E : ... .. . ... : ... .. . ... : ... .. . ... : ... .. . ... : ... .. . ...
ROW 3F : ... .. . ... : ... .. . ... : ... .. . ... : ... .. . ... : ... .. . ...

PATTERN 12
ROW 00 : A#2 0C . ... : F-4 01 A ... : ... .. . ... : ... .. . ... : ... .. . ...
ROW 01 : ... .. . ... : ... .. 9 ... : ... .. . ... : ... .. . ... : ... .. . ...
ROW 02 : ... .. . ... : ... .. 8 ... : ... .. . ... : ... .. . ... : ... .. . ...
ROW 03 : ... .. . ... : ... .. 7 ... : ... .. . ... : ... .. . ... : ... .. . ...
ROW 04 : ... .. . ... : F-4 01 6 ... : ... .. . ... : ... .. . ... : ... .. . ...
ROW 05 : ... .. . ... : ... .. 5 ... : ... .. . ... : ... .. . ... : ... .. . ...
ROW 06 : ... .. . ... : D#4 01 A ... : ... .. . ... : ... .. . ... : ... .. . ...
ROW 07 : ... .. . ... : ... .. 9 ... : ... .. . ... : ... .. . ... : ... .. . ...
ROW 08 : ... .. . ... : ... .. 8 ... : ... .. . ... : ... .. . ... : ... .. . ...
ROW 09 : ... .. . ... : ... .. 7 ... : ... .. . ... : ... .. . ... : ... .. . ...
ROW 0A : ... .. . ... : D#4 01 6 ... : ... .. . ... : ... .. . ... : ... .. . ...
ROW 0B : ... .. . ... : ... .. 5 ... : ... .. . ... : ... .. . ... : ... .. . ...
ROW 0C : A#2 0C . ... : C-4 01 A ... : ... .. . ... : ... .. . ... : ... .. . ...
ROW 0D : ... .. . ... : ... .. 9 ... : ... .. . ... : ... .. . ... : ... .. . ...
ROW 0E : ... .. . ... : ... .. 8 ... : ... .. . ... : ... .. . ... : ... .. . ...
ROW 0F : ... .. . ... : ... .. 7 ... : ... .. . ... : ... .. . ... : ... .. . ...
ROW 10 : ... .. . ... : C-4 01 6 ... : ... .. . ... : ... .. . ... : ... .. . ...
ROW 11 : ... .. . ... : ... .. 5 ... : ... .. . ... : ... .. . ... : ... .. . ...
ROW 12 : ... .. . ... : A#3 01 A ... : ... .. . ... : ... .. . ... : ... .. . ...
ROW 13 : ... .. . ... : ... .. 9 ... : ... .. . ... : ... .. . ... : ... .. . ...
ROW 14 : ... .. . ... : ... .. 8 ... : ... .. . ... : ... .. . ... : ... .. . ...
ROW 15 : ... .. . ... : ... .. 7 ... : ... .. . ... : ... .. . ... : ... .. . ...
ROW 16 : ... .. . ... : A#3 01 6 ... : ... .. . ... : ... .. . ... : ... .. . ...
ROW 17 : ... .. . ... : ... .. 5 ... : ... .. . ... : ... .. . ... : ... .. . ...
ROW 18 : A#2 0C . ... : G#3 01 A ... : ... .. . ... : ... .. . ... : ... .. . ...
ROW 19 : ... .. . ... : ... .. 9 ... : ... .. . ... : ... .. . ... : ... .. . ...
ROW 1A : ... .. . ... : ... .. 8 ... : ... .. . ... : ... .. . ... : ... .. . ...
ROW 1B : ... .. . ... : ... .. 7 ... : ... .. . ... : ... .. . ... : ... .. . ...
ROW 1C : ... .. . ... : G#3 01 6 ... : ... .. . ... : ... .. . ... : ... .. . ...
ROW 1D : ... .. . ... : ... .. 5 ... : ... .. . ... : ... .. . ... : ... .. . ...
ROW 1E : ... .. . ... : F-3 01 A ... : ... .. . ... : ... .. . ... : ... .. . ...
ROW 1F : ... .. . ... : ... .. 9 ... : ... .. . ... : ... .. . ... : ... .. . ...
ROW 20 : ... .. . ... : ... .. 8 ... : ... .. . ... : ... .. . ... : ... .. . ...
ROW 21 : ... .. . ... : ... .. 7 ... : ... .. . ... : ... .. . ... : ... .. . ...
ROW 22 : ... .. . ... : F-3 01 6 ... : ... .. . ... : ... .. . ... : ... .. . ...
ROW 23 : ... .. . ... : ... .. 5 ... : ... .. . ... : ... .. . ... : ... .. . ...
ROW 24 : ... .. . ... : D#3 01 A ... : ... .. . ... : ... .. . ... : ... .. . ...
ROW 25 : ... .. . ... : ... .. 9 ... : ... .. . ... : ... .. . ... : ... .. . ...
ROW 26 : ... .. . ... : ... .. 8 ... : ... .. . ... : ... .. . ... : ... .. . ...
ROW 27 : ... .. . ... : ... .. 7 ... : ... .. . ... : ... .. . ... : ... .. . ...
ROW 28 : A#2 0D . ... : D#3 01 6 ... : ... .. . ... : ... .. . ... : ... .. . ...
ROW 29 : ... .. . ... : ... .. 5 ... : ... .. . ... : ... .. . ... : ... .. . ...
ROW 2A : ... .. . ... : C-3 01 A ... : ... .. . ... : ... .. . ... : ... .. . ...
ROW 2B : ... .. . ... : ... .. 9 ... : ... .. . ... : ... .. . ... : ... .. . ...
ROW 2C : A#2 0C . ... : ... .. 8 ... : ... .. . ... : ... .. . ... : ... .. . ...
ROW 2D : ... .. . ... : ... .. 7 ... : ... .. . ... : ... .. . ... : ... .. . ...
ROW 2E : ... .. . ... : C-3 01 6 ... : ... .. . ... : ... .. . ... : ... .. . ...
ROW 2F : ... .. . ... : ... .. 5 ... : ... .. . ... : ... .. . ... : ... .. . ...
ROW 30 : ... .. . ... : ... .. . ... : ... .. . ... : ... .. . ... : ... .. . ...
ROW 31 : ... .. . ... : ... .. . ... : ... .. . ... : ... .. . ... : ... .. . ...
ROW 32 : ... .. . ... : ... .. . ... : ... .. . ... : ... .. . ... : ... .. . ...
ROW 33 : ... .. . ... : ... .. . ... : ... .. . ... : ... .. . ... : ... .. . ...
ROW 34 : ... .. . ... : ... .. . ... : ... .. . ... : ... .. . ... : ... .. . ...
ROW 35 : ... .. . ... : ... .. . ... : ... .. . ... : ... .. . ... : ... .. . ...
ROW 36 : ... .. . ... : ... .. . ... : ... .. . ... : ... .. . ... : ... .. . ...
ROW 37 : ... .. . ... : ... .. . ... : ... .. . ... : ... .. . ... : ... .. . ...
ROW 38 : ... .. . ... : ... .. . ... : ... .. . ... : ... .. . ... : ... .. . ...
ROW 39 : ... .. . ... : ... .. . ... : ... .. . ... : ... .. . ... : ... .. . ...
ROW 3A : ... .. . ... : ... .. . ... : ... .. . ... : ... .. . ... : ... .. . ...
ROW 3B : ... .. . ... : ... .. . ... : ... .. . ... : ... .. . ... : ... .. . ...
ROW 3C : ... .. . ... : ... .. . ... : ... .. . ... : ... .. . ... : ... .. . ...
ROW 3D : ... .. . ... : ... .. . ... : ... .. . ... : ... .. . ... : ... .. . ...
ROW 3E : ... .. . ... : ... .. . ... : ... .. . ... : ... .. . ... : ... .. . ...
ROW 3F : ... .. . ... : ... .. . ... : ... .. . ... : ... .. . ... : ... .. . ...

PATTERN 13
ROW 00 : C#3 02 . V02 : G#2 0B B ... : ... .. . ... : ... .. . ... : ... .. . ...
ROW 01 : ... .. . ... : ... .. . ... : ... .. . ... : ... .. . ... : ... .. . ...
ROW 02 : ... .. . ... : ... .. . ... : ... .. . ... : ... .. . ... : ... .. . ...
ROW 03 : ... .. . ... : ... .. . ... : ... .. . ... : ... .. . ... : ... .. . ...
ROW 04 : ... .. . ... : ... .. A ... : ... .. . ... : ... .. . ... : ... .. . ...
ROW 05 : ... .. . ... : ... .. . ... : ... .. . ... : ... .. . ... : ... .. . ...
ROW 06 : ... .. . ... : ... .. . ... : ... .. . ... : ... .. . ... : ... .. . ...
ROW 07 : ... .. . ... : ... .. . ... : ... .. . ... : ... .. . ... : ... .. . ...
ROW 08 : ... .. . ... : ... .. 9 230 : ... .. . ... : ... .. . ... : ... .. . ...
ROW 09 : ... .. . ... : ... .. . ... : ... .. . ... : ... .. . ... : ... .. . ...
ROW 0A : ... .. . ... : ... .. . ... : ... .. . ... : ... .. . ... : ... .. . ...
ROW 0B : ... .. . ... : ... .. . ... : ... .. . ... : ... .. . ... : ... .. . ...
ROW 0C : C#3 02 . V01 : G#2 0B 8 200 : ... .. . ... : ... .. . ... : ... .. . ...
ROW 0D : ... .. . ... : ... .. . ... : ... .. . ... : ... .. . ... : ... .. . ...
ROW 0E : ... .. . ... : ... .. . ... : ... .. . ... : ... .. . ... : ... .. . ...
ROW 0F : ... .. . ... : ... .. . ... : ... .. . ... : ... .. . ... : ... .. . ...
ROW 10 : ... .. . ... : ... .. 7 ... : ... .. . ... : ... .. . ... : ... .. . ...
ROW 11 : ... .. . ... : ... .. . ... : ... .. . ... : ... .. . ... : ... .. . ...
ROW 12 : ... .. . ... : ... .. . ... : ... .. . ... : ... .. . ... : ... .. . ...
ROW 13 : ... .. . ... : ... .. . ... : ... .. . ... : ... .. . ... : ... .. . ...
ROW 14 : ... .. . ... : ... .. 6 230 : ... .. . ... : ... .. . ... : ... .. . ...
ROW 15 : ... .. . ... : ... .. . ... : ... .. . ... : ... .. . ... : ... .. . ...
ROW 16 : ... .. . ... : ... .. . ... : ... .. . ... : ... .. . ... : ... .. . ...
ROW 17 : ... .. . ... : ... .. . ... : ... .. . ... : ... .. . ... : ... .. . ...
ROW 18 : C#3 02 . V00 : G#2 0B 5 200 : ... .. . ... : ... .. . ... : ... .. . ...
ROW 19 : ... .. . ... : ... .. . ... : ... .. . ... : ... .. . ... : ... .. . ...
ROW 1A : ... .. . ... : ... .. . ... : ... .. . ... : ... .. . ... : ... .. . ...
ROW 1B : ... .. . ... : ... .. . ... : ... .. . ... : ... .. . ... : ... .. . ...
ROW 1C : ... .. . ... : ... .. 4 ... : ... .. . ... : ... .. . ... : ... .. . ...
ROW 1D : ... .. . ... : ... .. . ... : ... .. . ... : ... .. . ... : ... .. . ...
ROW 1E : ... .. . ... : ... .. . ... : ... .. . ... : ... .. . ... : ... .. . ...
ROW 1F : ... .. . ... : ... .. . ... : ... .. . ... : ... .. . ... : ... .. . ...
ROW 20 : ... .. . ... : ... .. 3 230 : ... .. . ... : ... .. . ... : ... .. . ...
ROW 21 : ... .. . ... : ... .. . ... : ... .. . ... : ... .. . ... : ... .. . ...
ROW 22 : ... .. . ... : ... .. . ... : ... .. . ... : ... .. . ... : ... .. . ...
ROW 23 : ... .. . ... : ... .. . ... : ... .. . ... : ... .. . ... : ... .. . ...
ROW 24 : ... .. . ... : B-2 0B B 200 : ... .. . ... : ... .. . ... : ... .. . ...
ROW 25 : ... .. . ... : ... .. A ... : ... .. . ... : ... .. . ... : ... .. . ...
ROW 26 : ... .. . ... : ... .. 9 ... : ... .. . ... : ... .. . ... : ... .. . ...
ROW 27 : ... .. . ... : ... .. 8 ... : ... .. . ... : ... .. . ... : ... .. . ...
ROW 28 : F-2 0C . ... : A#2 0B B ... : ... .. . ... : ... .. . ... : ... .. . ...
ROW 29 : ... .. . ... : ... .. A ... : ... .. . ... : ... .. . ... : ... .. . ...
ROW 2A : ... .. . ... : --- .. . ... : ... .. . ... : ... .. . ... : ... .. . ...
ROW 2B : ... .. . ... : ... .. . ... : ... .. . ... : ... .. . ... : ... .. . ...
ROW 2C : ... .. . ... : G#2 0B B ... : ... .. . ... : ... .. . ... : ... .. . ...
ROW 2D : ... .. . ... : ... .. A ... : ... .. . ... : ... .. . ... : ... .. . ...
ROW 2E : ... .. . ... : ... .. 9 ... : ... .. . ... : ... .. . ... : ... .. . ...
ROW 2F : ... .. . ... : ... .. 8 ... : ... .. . ... : ... .. . ... : ... .. . ...
ROW 30 : ... .. . ... : ... .. . ... : ... .. . ... : ... .. . ... : ... .. . ...
ROW 31 : ... .. . ... : ... .. . ... : ... .. . ... : ... .. . ... : ... .. . ...
ROW 32 : ... .. . ... : ... .. . ... : ... .. . ... : ... .. . ... : ... .. . ...
ROW 33 : ... .. . ... : ... .. . ... : ... .. . ... : ... .. . ... : ... .. . ...
ROW 34 : ... .. . ... : ... .. . ... : ... .. . ... : ... .. . ... : ... .. . ...
ROW 35 : ... .. . ... : ... .. . ... : ... .. . ... : ... .. . ... : ... .. . ...
ROW 36 : ... .. . ... : ... .. . ... : ... .. . ... : ... .. . ... : ... .. . ...
ROW 37 : ... .. . ... : ... .. . ... : ... .. . ... : ... .. . ... : ... .. . ...
ROW 38 : ... .. . ... : ... .. . ... : ... .. . ... : ... .. . ... : ... .. . ...
ROW 39 : ... .. . ... : ... .. . ... : ... .. . ... : ... .. . ... : ... .. . ...
ROW 3A : ... .. . ... : ... .. . ... : ... .. . ... : ... .. . ... : ... .. . ...
ROW 3B : ... .. . ... : ... .. . ... : ... .. . ... : ... .. . ... : ... .. . ...
ROW 3C : ... .. . ... : ... .. . ... : ... .. . ... : ... .. . ... : ... .. . ...
ROW 3D : ... .. . ... : ... .. . ... : ... .. . ... : ... .. . ... : ... .. . ...
ROW 3E : ... .. . ... : ... .. . ... : ... .. . ... : ... .. . ... : ... .. . ...
ROW 3F : ... .. . ... : ... .. . ... : ... .. . ... : ... .. . ... : ... .. . ...

PATTERN 14
ROW 00 : ... .. . ... : A#2 0B B ... : ... .. . ... : ... .. . ... : ... .. . ...
ROW 01 : ... .. . ... : ... .. . ... : ... .. . ... : ... .. . ... : ... .. . ...
ROW 02 : ... .. . ... : ... .. . ... : ... .. . ... : ... .. . ... : ... .. . ...
ROW 03 : ... .. . ... : ... .. . ... : ... .. . ... : ... .. . ... : ... .. . ...
ROW 04 : ... .. . ... : ... .. A ... : ... .. . ... : ... .. . ... : ... .. . ...
ROW 05 : ... .. . ... : ... .. . ... : ... .. . ... : ... .. . ... : ... .. . ...
ROW 06 : ... .. . ... : ... .. . ... : ... .. . ... : ... .. . ... : ... .. . ...
ROW 07 : ... .. . ... : ... .. . ... : ... .. . ... : ... .. . ... : ... .. . ...
ROW 08 : ... .. . ... : ... .. 9 230 : ... .. . ... : ... .. . ... : ... .. . ...
ROW 09 : ... .. . ... : ... .. . ... : ... .. . ... : ... .. . ... : ... .. . ...
ROW 0A : ... .. . ... : ... .. . ... : ... .. . ... : ... .. . ... : ... .. . ...
ROW 0B : ... .. . ... : ... .. . ... : ... .. . ... : ... .. . ... : ... .. . ...
ROW 0C : ... .. . ... : A#2 0B 8 200 : ... .. . ... : ... .. . ... : ... .. . ...
ROW 0D : ... .. . ... : ... .. . ... : ... .. . ... : ... .. . ... : ... .. . ...
ROW 0E : ... .. . ... : ... .. . ... : ... .. . ... : ... .. . ... : ... .. . ...
ROW 0F : ... .. . ... : ... .. . ... : ... .. . ... : ... .. . ... : ... .. . ...
ROW 10 : ... .. . ... : ... .. 7 ... : ... .. . ... : ... .. . ... : ... .. . ...
ROW 11 : ... .. . ... : ... .. . ... : ... .. . ... : ... .. . ... : ... .. . ...
ROW 12 : ... .. . ... : ... .. . ... : ... .. . ... : ... .. . ... : ... .. . ...
ROW 13 : ... .. . ... : ... .. . ... : ... .. . ... : ... .. . ... : ... .. . ...
ROW 14 : ... .. . ... : ... .. 6 230 : ... .. . ... : ... .. . ... : ... .. . ...
ROW 15 : ... .. . ... : ... .. . ... : ... .. . ... : ... .. . ... : ... .. . ...
ROW 16 : ... .. . ... : ... .. . ... : ... .. . ... : ... .. . ... : ... .. . ...
ROW 17 : ... .. . ... : ... .. . ... : ... .. . ... : ... .. . ... : ... .. . ...
ROW 18 : ... .. . ... : A#2 0B 5 200 : ... .. . ... : ... .. . ... : ... .. . ...
ROW 19 : ... .. . ... : ... .. . ... : ... .. . ... : ... .. . ... : ... .. . ...
ROW 1A : ... .. . ... : ... .. . ... : ... .. . ... : ... .. . ... : ... .. . ...
ROW 1B : ... .. . ... : ... .. . ... : ... .. . ... : ... .. . ... : ... .. . ...
ROW 1C : ... .. . ... : ... .. 4 ... : ... .. . ... : ... .. . ... : ... .. . ...
ROW 1D : ... .. . ... : ... .. . ... : ... .. . ... : ... .. . ... : ... .. . ...
ROW 1E : ... .. . ... : ... .. . ... : ... .. . ... : ... .. . ... : ... .. . ...
ROW 1F : ... .. . ... : ... .. . ... : ... .. . ... : ... .. . ... : ... .. . ...
ROW 20 : ... .. . ... : ... .. 3 230 : ... .. . ... : ... .. . ... : ... .. . ...
ROW 21 : ... .. . ... : ... .. . ... : ... .. . ... : ... .. . ... : ... .. . ...
ROW 22 : ... .. . ... : ... .. . ... : ... .. . ... : ... .. . ... : ... .. . ...
ROW 23 : ... .. . ... : ... .. . ... : ... .. . ... : ... .. . ... : ... .. . ...
ROW 24 : ... .. . ... : C#3 0B B 200 : ... .. . ... : ... .. . ... : ... .. . ...
ROW 25 : ... .. . ... : ... .. A ... : ... .. . ... : ... .. . ... : ... .. . ...
ROW 26 : ... .. . ... : ... .. 9 ... : ... .. . ... : ... .. . ... : ... .. . ...
ROW 27 : ... .. . ... : ... .. 8 ... : ... .. . ... : ... .. . ... : ... .. . ...
ROW 28 : ... .. . ... : B-2 0B B ... : ... .. . ... : ... .. . ... : ... .. . ...
ROW 29 : ... .. . ... : ... .. A ... : ... .. . ... : ... .. . ... : ... .. . ...
ROW 2A : ... .. . ... : --- .. . ... : ... .. . ... : ... .. . ... : ... .. . ...
ROW 2B : ... .. . ... : ... .. . ... : ... .. . ... : ... .. . ... : ... .. . ...
ROW 2C : ... .. . ... : A#2 0B B ... : ... .. . ... : ... .. . ... : ... .. . ...
ROW 2D : ... .. . ... : ... .. A ... : ... .. . ... : ... .. . ... : ... .. . ...
ROW 2E : ... .. . ... : ... .. 9 ... : ... .. . ... : ... .. . ... : ... .. . ...
ROW 2F : ... .. . ... : ... .. 8 ... : ... .. . ... : ... .. . ... : ... .. . ...
ROW 30 : ... .. . ... : ... .. . ... : ... .. . ... : ... .. . ... : ... .. . ...
ROW 31 : ... .. . ... : ... .. . ... : ... .. . ... : ... .. . ... : ... .. . ...
ROW 32 : ... .. . ... : ... .. . ... : ... .. . ... : ... .. . ... : ... .. . ...
ROW 33 : ... .. . ... : ... .. . ... : ... .. . ... : ... .. . ... : ... .. . ...
ROW 34 : ... .. . ... : ... .. . ... : ... .. . ... : ... .. . ... : ... .. . ...
ROW 35 : ... .. . ... : ... .. . ... : ... .. . ... : ... .. . ... : ... .. . ...
ROW 36 : ... .. . ... : ... .. . ... : ... .. . ... : ... .. . ... : ... .. . ...
ROW 37 : ... .. . ... : ... .. . ... : ... .. . ... : ... .. . ... : ... .. . ...
ROW 38 : ... .. . ... : ... .. . ... : ... .. . ... : ... .. . ... : ... .. . ...
ROW 39 : ... .. . ... : ... .. . ... : ... .. . ... : ... .. . ... : ... .. . ...
ROW 3A : ... .. . ... : ... .. . ... : ... .. . ... : ... .. . ... : ... .. . ...
ROW 3B : ... .. . ... : ... .. . ... : ... .. . ... : ... .. . ... : ... .. . ...
ROW 3C : ... .. . ... : ... .. . ... : ... .. . ... : ... .. . ... : ... .. . ...
ROW 3D : ... .. . ... : ... .. . ... : ... .. . ... : ... .. . ... : ... .. . ...
ROW 3E : ... .. . ... : ... .. . ... : ... .. . ... : ... .. . ... : ... .. . ...
ROW 3F : ... .. . ... : ... .. . ... : ... .. . ... : ... .. . ... : ... .. . ...

PATTERN 15
ROW 00 : ... .. . ... : C#3 0B B ... : ... .. . ... : ... .. . ... : ... .. . ...
ROW 01 : ... .. . ... : ... .. . ... : ... .. . ... : ... .. . ... : ... .. . ...
ROW 02 : ... .. . ... : ... .. . Q42 : ... .. . ... : ... .. . ... : ... .. . ...
ROW 03 : ... .. . ... : ... .. . ... : ... .. . ... : ... .. . ... : ... .. . ...
ROW 04 : ... .. . ... : ... .. . ... : ... .. . ... : ... .. . ... : ... .. . ...
ROW 05 : ... .. . ... : ... .. . ... : ... .. . ... : ... .. . ... : ... .. . ...
ROW 06 : ... .. . ... : ... .. A ... : ... .. . ... : ... .. . ... : ... .. . ...
ROW 07 : ... .. . ... : ... .. . ... : ... .. . ... : ... .. . ... : ... .. . ...
ROW 08 : ... .. . ... : ... .. . ... : ... .. . ... : ... .. . ... : ... .. . ...
ROW 09 : ... .. . ... : ... .. . ... : ... .. . ... : ... .. . ... : ... .. . ...
ROW 0A : ... .. . ... : ... .. . ... : ... .. . ... : ... .. . ... : ... .. . ...
ROW 0B : ... .. . ... : ... .. . ... : ... .. . ... : ... .. . ... : ... .. . ...
ROW 0C : ... .. . ... : ... .. 9 ... : ... .. . ... : ... .. . ... : ... .. . ...
ROW 0D : ... .. . ... : ... .. . ... : ... .. . ... : ... .. . ... : ... .. . ...
ROW 0E : ... .. . ... : ... .. . ... : ... .. . ... : ... .. . ... : ... .. . ...
ROW 0F : ... .. . ... : ... .. . ... : ... .. . ... : ... .. . ... : ... .. . ...
ROW 10 : ... .. . ... : ... .. . ... : ... .. . ... : ... .. . ... : ... .. . ...
ROW 11 : ... .. . ... : ... .. . ... : ... .. . ... : ... .. . ... : ... .. . ...
ROW 12 : ... .. . ... : ... .. 8 ... : ... .. . ... : ... .. . ... : ... .. . ...
ROW 13 : ... .. . ... : ... .. . ... : ... .. . ... : ... .. . ... : ... .. . ...
ROW 14 : ... .. . ... : ... .. . Q75 : ... .. . ... : ... .. . ... : ... .. . ...
ROW 15 : ... .. . ... : ... .. . ... : ... .. . ... : ... .. . ... : ... .. . ...
ROW 16 : ... .. . ... : ... .. . ... : ... .. . ... : ... .. . ... : ... .. . ...
ROW 17 : ... .. . ... : ... .. . ... : ... .. . ... : ... .. . ... : ... .. . ...
ROW 18 : ... .. . ... : ... .. 7 ... : ... .. . ... : ... .. . ... : ... .. . ...
ROW 19 : ... .. . ... : ... .. . R75 : ... .. . ... : ... .. . ... : ... .. . ...
ROW 1A : ... .. . ... : ... .. . ... : ... .. . ... : ... .. . ... : ... .. . ...
ROW 1B : ... .. . ... : ... .. . ... : ... .. . ... : ... .. . ... : ... .. . ...
ROW 1C : ... .. . ... : ... .. . ... : ... .. . ... : ... .. . ... : ... .. . ...
ROW 1D : ... .. . ... : ... .. . ... : ... .. . ... : ... .. . ... : ... .. . ...
ROW 1E : ... .. . ... : ... .. 6 ... : ... .. . ... : ... .. . ... : ... .. . ...
ROW 1F : ... .. . ... : ... .. . ... : ... .. . ... : ... .. . ... : ... .. . ...
ROW 20 : ... .. . ... : ... .. . 458 : ... .. . ... : ... .. . ... : ... .. . ...
ROW 21 : ... .. . ... : ... .. . ... : ... .. . ... : ... .. . ... : ... .. . ...
ROW 22 : ... .. . ... : ... .. . ... : ... .. . ... : ... .. . ... : ... .. . ...
ROW 23 : ... .. . ... : ... .. . ... : ... .. . ... : ... .. . ... : ... .. . ...
ROW 24 : ... .. . ... : ... .. 5 ... : ... .. . ... : ... .. . ... : ... .. . ...
ROW 25 : ... .. . ... : ... .. . ... : ... .. . ... : ... .. . ... : ... .. . ...
ROW 26 : ... .. . ... : ... .. . ... : ... .. . ... : ... .. . ... : ... .. . ...
ROW 27 : ... .. . ... : ... .. . ... : ... .. . ... : ... .. . ... : ... .. . ...
ROW 28 : ... .. . ... : ... .. . 469 : ... .. . ... : ... .. . ... : ... .. . ...
ROW 29 : ... .. . ... : ... .. . ... : ... .. . ... : ... .. . ... : ... .. . ...
ROW 2A : ... .. . ... : ... .. 4 ... : ... .. . ... : ... .. . ... : ... .. . ...
ROW 2B : ... .. . ... : ... .. . ... : ... .. . ... : ... .. . ... : ... .. . ...
ROW 2C : ... .. . ... : ... .. . ... : ... .. . ... : ... .. . ... : ... .. . ...
ROW 2D : ... .. . ... : ... .. . ... : ... .. . ... : ... .. . ... : ... .. . ...
ROW 2E : ... .. . ... : ... .. . ... : ... .. . ... : ... .. . ... : ... .. . ...
ROW 2F : ... .. . ... : ... .. . ... : ... .. . ... : ... .. . ... : ... .. . ...
ROW 30 : ... .. . ... : ... .. 3 47A : ... .. . ... : ... .. . ... : ... .. . ...
ROW 31 : ... .. . ... : ... .. . ... : ... .. . ... : ... .. . ... : ... .. . ...
ROW 32 : ... .. . ... : ... .. . ... : ... .. . ... : ... .. . ... : ... .. . ...
ROW 33 : ... .. . ... : ... .. . ... : ... .. . ... : ... .. . ... : ... .. . ...
ROW 34 : ... .. . ... : ... .. . ... : ... .. . ... : ... .. . ... : ... .. . ...
ROW 35 : ... .. . ... : ... .. . ... : ... .. . ... : ... .. . ... : ... .. . ...
ROW 36 : ... .. . ... : ... .. 2 ... : ... .. . ... : ... .. . ... : ... .. . ...
ROW 37 : ... .. . ... : ... .. . ... : ... .. . ... : ... .. . ... : ... .. . ...
ROW 38 : ... .. . ... : ... .. . 48B : ... .. . ... : ... .. . ... : ... .. . ...
ROW 39 : ... .. . ... : ... .. . ... : ... .. . ... : ... .. . ... : ... .. . ...
ROW 3A : ... .. . ... : ... .. . ... : ... .. . ... : ... .. . ... : ... .. . ...
ROW 3B : ... .. . ... : ... .. . ... : ... .. . ... : ... .. . ... : ... .. . ...
ROW 3C : ... .. . ... : ... .. 1 ... : ... .. . ... : ... .. . ... : ... .. . ...
ROW 3D : ... .. . ... : ... .. . ... : ... .. . ... : ... .. . ... : ... .. . ...
ROW 3E : ... .. . ... : ... .. . ... : ... .. . ... : ... .. . ... : ... .. . ...
ROW 3F : ... .. . ... : ... .. . 400 : ... .. . ... : ... .. . ... : ... .. . ...

PATTERN 16
ROW 00 : ... .. . ... : B-2 00 8 V00 : ... .. . ... : ... .. . ... : ... .. . ...
ROW 01 : ... .. . ... : D#3 00 . ... : ... .. . ... : ... .. . ... : ... .. . ...
ROW 02 : ... .. . ... : F-3 00 . ... : ... .. . ... : ... .. . ... : ... .. . ...
ROW 03 : ... .. . ... : A-3 00 . V01 : ... .. . ... : ... .. . ... : ... .. . ...
ROW 04 : ... .. . ... : F-3 00 . ... : ... .. . ... : ... .. . ... : ... .. . ...
ROW 05 : ... .. . ... : D#3 00 . ... : ... .. . ... : ... .. . ... : ... .. . ...
ROW 06 : ... .. . ... : B-2 00 7 V02 : ... .. . ... : ... .. . ... : ... .. . ...
ROW 07 : ... .. . ... : D#3 00 . ... : ... .. . ... : ... .. . ... : ... .. . ...
ROW 08 : ... .. . ... : F-3 00 . ... : ... .. . ... : ... .. . ... : ... .. . ...
ROW 09 : ... .. . ... : A-3 00 . V01 : ... .. . ... : ... .. . ... : ... .. . ...
ROW 0A : ... .. . ... : F-3 00 . ... : ... .. . ... : ... .. . ... : ... .. . ...
ROW 0B : ... .. . ... : D#3 00 . ... : ... .. . ... : ... .. . ... : ... .. . ...
ROW 0C : ... .. . ... : B-2 00 6 V00 : ... .. . ... : ... .. . ... : ... .. . ...
ROW 0D : ... .. . ... : D#3 00 . ... : ... .. . ... : ... .. . ... : ... .. . ...
ROW 0E : ... .. . ... : F-3 00 . ... : ... .. . ... : ... .. . ... : ... .. . ...
ROW 0F : ... .. . ... : A-3 00 . V01 : ... .. . ... : ... .. . ... : ... .. . ...
ROW 10 : ... .. . ... : F-3 00 . ... : ... .. . ... : ... .. . ... : ... .. . ...
ROW 11 : ... .. . ... : D#3 00 . ... : ... .. . ... : ... .. . ... : ... .. . ...
ROW 12 : ... .. . ... : B-2 00 5 V02 : ... .. . ... : ... .. . ... : ... .. . ...
ROW 13 : ... .. . ... : D#3 00 . ... : ... .. . ... : ... .. . ... : ... .. . ...
ROW 14 : ... .. . ... : F-3 00 . ... : ... .. . ... : ... .. . ... : ... .. . ...
ROW 15 : ... .. . ... : A-3 00 . V01 : ... .. . ... : ... .. . ... : ... .. . ...
ROW 16 : ... .. . ... : F-3 00 . ... : ... .. . ... : ... .. . ... : ... .. . ...
ROW 17 : ... .. . ... : D#3 00 . ... : ... .. . ... : ... .. . ... : ... .. . ...
ROW 18 : ... .. . ... : B-2 00 4 V00 : ... .. . ... : ... .. . ... : ... .. . ...
ROW 19 : ... .. . ... : D#3 00 . ... : ... .. . ... : ... .. . ... : ... .. . ...
ROW 1A : ... .. . ... : F-3 00 . ... : ... .. . ... : ... .. . ... : ... .. . ...
ROW 1B : ... .. . ... : A-3 00 . V01 : ... .. . ... : ... .. . ... : ... .. . ...
ROW 1C : ... .. . ... : F-3 00 . ... : ... .. . ... : ... .. . ... : ... .. . ...
ROW 1D : ... .. . ... : D#3 00 . ... : ... .. . ... : ... .. . ... : ... .. . ...
ROW 1E : ... .. . ... : B-2 00 . V02 : ... .. . ... : ... .. . ... : ... .. . ...
ROW 1F : ... .. . ... : D#3 00 . ... : ... .. . ... : ... .. . ... : ... .. . ...
ROW 20 : ... .. . ... : F-3 00 3 ... : ... .. . ... : ... .. . ... : ... .. . ...
ROW 21 : ... .. . ... : A-3 00 . V01 : ... .. . ... : ... .. . ... : ... .. . ...
ROW 22 : ... .. . ... : F-3 00 . ... : ... .. . ... : ... .. . ... : ... .. . ...
ROW 23 : ... .. . ... : D#3 00 . ... : ... .. . ... : ... .. . ... : ... .. . ...
ROW 24 : ... .. . ... : B-2 00 . V00 : ... .. . ... : ... .. . ... : ... .. . ...
ROW 25 : ... .. . ... : D#3 00 . ... : ... .. . ... : ... .. . ... : ... .. . ...
ROW 26 : ... .. . ... : F-3 00 . ... : ... .. . ... : ... .. . ... : ... .. . ...
ROW 27 : ... .. . ... : A-3 00 . V01 : ... .. . ... : ... .. . ... : ... .. . ...
ROW 28 : ... .. . ... : F-3 00 . ... : ... .. . ... : ... .. . ... : ... .. . ...
ROW 29 : ... .. . ... : D#3 00 . ... : ... .. . ... : ... .. . ... : ... .. . ...
ROW 2A : ... .. . ... : B-2 00 . V02 : ... .. . ... : ... .. . ... : ... .. . ...
ROW 2B : ... .. . ... : D#3 00 . ... : ... .. . ... : ... .. . ... : ... .. . ...
ROW 2C : ... .. . ... : F-3 00 2 ... : ... .. . ... : ... .. . ... : ... .. . ...
ROW 2D : ... .. . ... : A-3 00 . V01 : ... .. . ... : ... .. . ... : ... .. . ...
ROW 2E : ... .. . ... : F-3 00 . ... : ... .. . ... : ... .. . ... : ... .. . ...
ROW 2F : ... .. . ... : D#3 00 . ... : ... .. . ... : ... .. . ... : ... .. . ...
ROW 30 : ... .. . ... : B-2 00 . V00 : ... .. . ... : ... .. . ... : ... .. . ...
ROW 31 : ... .. . ... : D#3 00 . ... : ... .. . ... : ... .. . ... : ... .. . ...
ROW 32 : ... .. . ... : F-3 00 . ... : ... .. . ... : ... .. . ... : ... .. . ...
ROW 33 : ... .. . ... : A-3 00 . V01 : ... .. . ... : ... .. . ... : ... .. . ...
ROW 34 : ... .. . ... : F-3 00 . ... : ... .. . ... : ... .. . ... : ... .. . ...
ROW 35 : ... .. . ... : D#3 00 . ... : ... .. . ... : ... .. . ... : ... .. . ...
ROW 36 : ... .. . ... : B-2 00 . V02 : ... .. . ... : ... .. . ... : ... .. . ...
ROW 37 : ... .. . ... : D#3 00 . ... : ... .. . ... : ... .. . ... : ... .. . ...
ROW 38 : ... .. . ... : F-3 00 . ... : ... .. . ... : ... .. . ... : ... .. . ...
ROW 39 : ... .. . ... : A-3 00 . V01 : ... .. . ... : ... .. . ... : ... .. . ...
ROW 3A : ... .. . ... : F-3 00 . ... : ... .. . ... : ... .. . ... : ... .. . ...
ROW 3B : ... .. . ... : D#3 00 . ... : ... .. . ... : ... .. . ... : ... .. . ...
ROW 3C : ... .. . ... : B-2 00 . V00 : ... .. . ... : ... .. . ... : ... .. . ...
ROW 3D : ... .. . ... : D#3 00 . ... : ... .. . ... : ... .. . ... : ... .. . ...
ROW 3E : ... .. . ... : F-3 00 . ... : ... .. . ... : ... .. . ... : ... .. . ...
ROW 3F : ... .. . ... : A-3 00 . V01 : ... .. . ... : ... .. . ... : ... .. . ...

# End of export
