# FamiTracker text export 0.4.2

# Song information
TITLE           "Belle"
AUTHOR          "www.tadpolemusic.us"
COPYRIGHT       "original by Alan Menken"

# Song comment
COMMENT ""

# Global settings
MACHINE         0
FRAMERATE       0
EXPANSION       0
VIBRATO         1
SPLIT           21

# Macros

# DPCM samples

# Instruments
INST2A03   0    -1  -1  -1  -1  -1 "New instrument"

# Tracks

TRACK 224   1 150 "Belle"
COLUMNS : 4 4 1 1 1

ORDER 00 : 3D 3D 3D 3D 3D
ORDER 01 : 3E 3E 3E 3E 3E
ORDER 02 : 3F 3F 3F 3F 3F
ORDER 03 : 40 40 40 40 40
ORDER 04 : 41 41 41 41 41
ORDER 05 : 42 42 42 42 42
ORDER 06 : 43 43 43 43 43
ORDER 07 : 44 44 44 44 44
ORDER 08 : 45 45 45 45 45
ORDER 09 : 46 46 46 46 46
ORDER 0A : 47 47 47 47 47
ORDER 0B : 48 48 48 48 48
ORDER 0C : 49 49 49 49 49
ORDER 0D : 4A 4A 4A 4A 4A
ORDER 0E : 4C 4C 4C 4C 4C
ORDER 0F : 00 00 00 00 00
ORDER 10 : 01 01 01 01 01
ORDER 11 : 02 02 02 02 02
ORDER 12 : 03 03 03 03 03
ORDER 13 : 04 04 04 04 04
ORDER 14 : 05 05 05 05 05
ORDER 15 : 06 06 06 06 06
ORDER 16 : 07 07 07 07 07
ORDER 17 : 08 08 08 08 08
ORDER 18 : 09 09 09 09 09
ORDER 19 : 0A 0A 0A 0A 0A
ORDER 1A : 0B 0B 0B 0B 0B
ORDER 1B : 0C 0C 0C 0C 0C
ORDER 1C : 0D 0D 0D 0D 0D
ORDER 1D : 0E 0E 0E 0E 0E
ORDER 1E : 0F 0F 0F 0F 0F
ORDER 1F : 10 10 10 10 10
ORDER 20 : 13 13 13 13 13
ORDER 21 : 14 14 14 14 14
ORDER 22 : 15 15 15 15 15
ORDER 23 : 16 16 16 16 16
ORDER 24 : 17 17 17 17 17
ORDER 25 : 18 18 18 18 18
ORDER 26 : 19 19 19 11 19
ORDER 27 : 1A 1A 1A 12 1A
ORDER 28 : 1B 1B 1B 19 1B
ORDER 29 : 1C 1C 1C 1A 1C
ORDER 2A : 1D 1D 1D 1B 1D
ORDER 2B : 1E 1E 1E 1C 1E
ORDER 2C : 1F 1F 1F 1D 1F
ORDER 2D : 20 20 20 1E 20
ORDER 2E : 21 21 21 1F 21
ORDER 2F : 22 22 22 22 22
ORDER 30 : 23 23 23 23 23
ORDER 31 : 24 24 24 24 24
ORDER 32 : 25 25 25 25 25
ORDER 33 : 26 26 26 26 26
ORDER 34 : 27 27 27 27 27
ORDER 35 : 28 28 28 28 28
ORDER 36 : 29 29 29 29 29
ORDER 37 : 2A 2A 2A 2A 2A
ORDER 38 : 2B 2B 2B 2B 2B
ORDER 39 : 2C 2C 2C 2C 2C
ORDER 3A : 2D 2D 2D 2D 2D
ORDER 3B : 2E 2E 2E 2E 2E
ORDER 3C : 2F 2F 2F 2F 2F
ORDER 3D : 30 30 30 30 30
ORDER 3E : 31 31 31 31 31
ORDER 3F : 32 32 32 32 32
ORDER 40 : 33 33 33 33 33
ORDER 41 : 34 34 34 34 34
ORDER 42 : 35 35 35 35 35
ORDER 43 : 36 36 36 36 36
ORDER 44 : 37 37 37 37 37
ORDER 45 : 38 38 38 38 38
ORDER 46 : 39 39 39 39 39
ORDER 47 : 3A 3A 3A 3A 3A
ORDER 48 : 3B 3B 3B 3B 3B
ORDER 49 : 3C 3C 3C 3C 3C
ORDER 4A : 4B 4B 4B 4B 4B

PATTERN 00
ROW 00 : --- .. . ... ... 400 P80 : --- 00 . ... ... ... 400 : C-3 00 . ... : ... .. . F00 : ... .. . ...
ROW 01 : ... .. . ... ... ... ... : ... .. . ... ... ... ... : ... .. . ... : ... .. . ... : ... .. . ...
ROW 02 : ... .. . ... ... ... ... : ... .. . ... ... ... ... : ... .. . ... : ... .. . ... : ... .. . ...
ROW 03 : ... .. . ... ... ... ... : ... .. . ... ... ... ... : ... .. . ... : ... .. . ... : ... .. . ...
ROW 04 : ... .. . ... ... ... ... : ... .. . ... ... ... ... : ... .. . ... : ... .. . ... : ... .. . ...
ROW 05 : ... .. . ... ... ... ... : ... .. . ... ... ... ... : ... .. . ... : ... .. . ... : ... .. . ...
ROW 06 : ... .. . ... ... ... ... : ... .. . ... ... ... ... : ... .. . ... : ... .. . ... : ... .. . ...
ROW 07 : ... .. . ... ... ... ... : ... .. . ... ... ... ... : ... .. . ... : ... .. . ... : ... .. . ...
ROW 08 : ... .. . ... ... ... ... : ... .. . ... ... ... ... : ... .. . ... : ... .. . ... : ... .. . ...
ROW 09 : ... .. . ... ... ... ... : ... .. . ... ... ... ... : ... .. . ... : ... .. . ... : ... .. . ...
ROW 0A : ... .. . ... ... ... ... : ... .. . ... ... ... ... : ... .. . ... : ... .. . ... : ... .. . ...
ROW 0B : ... .. . ... ... ... ... : ... .. . ... ... ... ... : ... .. . ... : ... .. . ... : ... .. . ...
ROW 0C : ... .. . ... ... ... ... : ... .. . ... ... ... ... : ... .. . ... : ... .. . ... : ... .. . ...
ROW 0D : ... .. . ... ... ... ... : ... .. . ... ... ... ... : --- .. . ... : ... .. . ... : ... .. . ...
ROW 0E : E-3 00 6 V01 ... ... ... : --- .. . ... ... ... P7F : ... .. . ... : ... .. . ... : ... .. . ...
ROW 0F : ... .. . ... ... ... ... : ... .. . ... ... ... ... : ... .. . ... : ... .. . ... : ... .. . ...
ROW 10 : ... .. 5 ... ... ... ... : ... .. . ... ... ... ... : ... .. . ... : ... .. . ... : ... .. . ...
ROW 11 : ... .. . ... ... ... ... : ... .. . ... ... ... ... : ... .. . ... : ... .. . ... : ... .. . ...
ROW 12 : ... .. 4 ... ... ... ... : ... .. . ... ... ... ... : ... .. . ... : ... .. . ... : ... .. . ...
ROW 13 : ... .. . ... ... ... ... : ... .. . ... ... ... ... : ... .. . ... : ... .. . ... : ... .. . ...
ROW 14 : ... .. 3 ... ... ... ... : ... .. . ... ... ... ... : ... .. . ... : ... .. . ... : ... .. . ...
ROW 15 : ... .. . ... ... ... P81 : ... .. . ... ... ... ... : ... .. . ... : ... .. . ... : ... .. . ...
ROW 16 : ... .. 2 ... ... ... ... : ... .. . ... ... ... ... : ... .. . ... : ... .. . ... : ... .. . ...
ROW 17 : ... .. . ... ... ... ... : ... .. . ... ... ... ... : ... .. . ... : ... .. . ... : ... .. . ...
ROW 18 : ... .. 1 ... ... ... P80 : ... .. . ... ... ... ... : ... .. . ... : ... .. . ... : ... .. . ...
ROW 19 : ... .. . ... ... ... ... : ... .. . ... ... ... ... : ... .. . ... : ... .. . ... : ... .. . ...
ROW 1A : ... .. . ... ... ... ... : ... .. . ... ... ... ... : ... .. . ... : ... .. . ... : ... .. . ...
ROW 1B : ... .. . ... ... ... P7F : ... .. . ... ... ... ... : ... .. . ... : ... .. . ... : ... .. . ...
ROW 1C : F-3 00 6 ... ... ... P80 : E-3 00 2 V01 P7F ... ... : ... .. . ... : ... .. . ... : ... .. . ...
ROW 1D : ... .. . ... ... ... ... : ... .. . ... ... ... ... : ... .. . ... : ... .. . ... : ... .. . ...
ROW 1E : ... .. 5 ... ... ... ... : ... .. . ... ... ... ... : ... .. . ... : ... .. . ... : ... .. . ...
ROW 1F : ... .. . ... ... ... ... : ... .. . ... ... ... ... : ... .. . ... : ... .. . ... : ... .. . ...
ROW 20 : ... .. 4 ... ... ... ... : ... .. 1 ... ... ... ... : ... .. . ... : ... .. . ... : ... .. . ...
ROW 21 : ... .. . ... ... ... ... : ... .. . ... ... ... ... : ... .. . ... : ... .. . ... : ... .. . ...
ROW 22 : ... .. 3 ... ... ... ... : ... .. . ... ... ... ... : ... .. . ... : ... .. . ... : ... .. . ...
ROW 23 : ... .. . ... ... ... P81 : ... .. . ... ... ... P80 : ... .. . ... : ... .. . ... : ... .. . ...
ROW 24 : ... .. 2 ... ... ... ... : ... .. . ... ... ... ... : ... .. . ... : ... .. . ... : ... .. . ...
ROW 25 : ... .. . ... ... ... ... : ... .. . ... ... ... ... : ... .. . ... : ... .. . ... : ... .. . ...
ROW 26 : ... .. 1 ... ... ... P80 : ... .. . ... ... ... P7F : ... .. . ... : ... .. . ... : ... .. . ...
ROW 27 : E-3 00 . ... ... ... ... : ... .. . ... ... ... ... : ... .. . ... : ... .. . ... : ... .. . ...
ROW 28 : ... .. . ... ... ... ... : ... .. . ... ... ... ... : ... .. . ... : ... .. . ... : ... .. . ...
ROW 29 : ... .. . ... ... ... ... : ... .. . ... ... ... P7E : ... .. . ... : ... .. . ... : ... .. . ...
ROW 2A : A-3 00 6 ... ... ... ... : F-3 00 2 ... ... ... P7F : ... .. . ... : ... .. . ... : ... .. . ...
ROW 2B : ... .. . ... ... ... ... : ... .. . ... ... ... ... : ... .. . ... : ... .. . ... : ... .. . ...
ROW 2C : ... .. 5 ... ... ... ... : ... .. . ... ... ... ... : ... .. . ... : ... .. . ... : ... .. . ...
ROW 2D : ... .. . ... ... ... ... : ... .. . ... ... ... ... : ... .. . ... : ... .. . ... : ... .. . ...
ROW 2E : ... .. 4 ... ... ... ... : ... .. 1 ... ... ... ... : ... .. . ... : ... .. . ... : ... .. . ...
ROW 2F : ... .. . ... ... ... ... : ... .. . ... ... ... ... : ... .. . ... : ... .. . ... : ... .. . ...
ROW 30 : ... .. 3 ... ... ... ... : ... .. . ... ... ... ... : ... .. . ... : ... .. . ... : ... .. . ...
ROW 31 : ... .. . ... ... ... P81 : ... .. . ... ... ... P80 : ... .. . ... : ... .. . ... : ... .. . ...
ROW 32 : ... .. 2 ... ... ... ... : ... .. . ... ... ... ... : ... .. . ... : ... .. . ... : ... .. . ...
ROW 33 : ... .. . ... ... ... ... : ... .. . ... ... ... ... : ... .. . ... : ... .. . ... : ... .. . ...
ROW 34 : ... .. 1 ... ... ... P80 : ... .. . ... ... ... P7F : ... .. . ... : ... .. . ... : ... .. . ...
ROW 35 : F-3 00 . ... ... ... ... : ... .. . ... ... ... ... : ... .. . ... : ... .. . ... : ... .. . ...
ROW 36 : ... .. . ... ... ... ... : ... .. . ... ... ... ... : ... .. . ... : ... .. . ... : ... .. . ...
ROW 37 : ... .. . ... ... ... ... : ... .. . ... ... ... ... : ... .. . ... : ... .. . ... : ... .. . ...
ROW 38 : G-3 00 6 ... ... ... ... : A-3 00 2 ... ... ... ... : ... .. . ... : ... .. . ... : ... .. . ...
ROW 39 : ... .. . ... ... ... ... : ... .. . ... ... ... ... : ... .. . ... : ... .. . ... : ... .. . ...
ROW 3A : ... .. . ... ... ... ... : ... .. . ... ... ... ... : ... .. . ... : ... .. . ... : ... .. . ...
ROW 3B : ... .. 5 ... ... ... ... : ... .. . ... ... ... ... : ... .. . ... : ... .. . ... : ... .. . ...
ROW 3C : ... .. . ... ... ... ... : ... .. 1 ... ... ... ... : ... .. . ... : ... .. . ... : ... .. . ...
ROW 3D : ... .. . ... ... ... ... : ... .. . ... ... ... ... : ... .. . ... : ... .. . ... : ... .. . ...
ROW 3E : ... .. 4 ... ... ... ... : ... .. . ... ... ... ... : ... .. . ... : ... .. . ... : ... .. . ...
ROW 3F : ... .. . ... ... ... P81 : ... .. . ... ... ... P80 : ... .. . ... : ... .. . ... : ... .. . ...
ROW 40 : ... .. . ... ... ... ... : ... .. . ... ... ... ... : ... .. . ... : ... .. . ... : ... .. . ...
ROW 41 : ... .. 3 ... ... ... ... : ... .. . ... ... ... ... : ... .. . ... : ... .. . ... : ... .. . ...
ROW 42 : ... .. . ... ... ... P80 : ... .. . ... ... ... P7F : ... .. . ... : ... .. . ... : ... .. . ...
ROW 43 : ... .. . ... ... ... ... : ... .. . ... ... ... ... : ... .. . ... : ... .. . ... : ... .. . ...
ROW 44 : A-3 00 1 ... ... ... ... : ... .. . ... ... ... ... : ... .. . ... : ... .. . ... : ... .. . ...
ROW 45 : ... .. . ... ... ... ... : ... .. . ... ... ... ... : ... .. . ... : ... .. . ... : ... .. . ...
ROW 46 : E-3 00 6 ... ... ... ... : G-3 00 2 ... ... ... ... : ... .. . ... : ... .. . ... : ... .. . ...
ROW 47 : ... .. . ... ... ... ... : ... .. . ... ... ... ... : ... .. . ... : ... .. . ... : ... .. . ...
ROW 48 : ... .. 5 ... ... ... ... : ... .. . ... ... ... ... : ... .. . ... : ... .. . ... : ... .. . ...
ROW 49 : ... .. . ... ... ... ... : ... .. . ... ... ... ... : ... .. . ... : ... .. . ... : ... .. . ...
ROW 4A : ... .. 4 ... ... ... ... : ... .. 1 ... ... ... ... : ... .. . ... : ... .. . ... : ... .. . ...
ROW 4B : ... .. . ... ... ... ... : ... .. . ... ... ... ... : ... .. . ... : ... .. . ... : ... .. . ...
ROW 4C : ... .. 3 ... ... ... ... : ... .. . ... ... ... ... : ... .. . ... : ... .. . ... : ... .. . ...
ROW 4D : ... .. . ... ... ... P81 : ... .. . ... ... ... P80 : ... .. . ... : ... .. . ... : ... .. . ...
ROW 4E : ... .. 2 ... ... ... ... : ... .. . ... ... ... ... : ... .. . ... : ... .. . ... : ... .. . ...
ROW 4F : ... .. . ... ... ... ... : ... .. . ... ... ... ... : ... .. . ... : ... .. . ... : ... .. . ...
ROW 50 : ... .. 1 ... ... ... P80 : ... .. . ... ... ... P7F : ... .. . ... : ... .. . ... : ... .. . ...
ROW 51 : G-3 00 . ... ... ... ... : ... .. . ... ... ... ... : ... .. . ... : ... .. . ... : ... .. . ...
ROW 52 : ... .. . ... ... ... ... : ... .. . ... ... ... ... : ... .. . ... : ... .. . ... : ... .. . ...
ROW 53 : ... .. . ... ... ... ... : ... .. . ... ... ... ... : ... .. . ... : ... .. . ... : ... .. . ...
ROW 54 : F-3 00 6 ... ... ... ... : E-3 00 2 ... ... ... ... : G-2 00 . ... : ... .. . ... : ... .. . ...
ROW 55 : ... .. . ... ... ... ... : ... .. . ... ... ... ... : ... .. . ... : ... .. . ... : ... .. . ...
ROW 56 : ... .. 5 ... ... ... ... : ... .. . ... ... ... ... : ... .. . ... : ... .. . ... : ... .. . ...
ROW 57 : ... .. . ... ... ... ... : ... .. . ... ... ... ... : ... .. . ... : ... .. . ... : ... .. . ...
ROW 58 : ... .. 4 ... ... ... ... : ... .. 1 ... ... ... ... : ... .. . ... : ... .. . ... : ... .. . ...
ROW 59 : ... .. . ... ... ... ... : ... .. . ... ... ... ... : ... .. . ... : ... .. . ... : ... .. . ...
ROW 5A : ... .. 3 ... ... ... ... : ... .. . ... ... ... ... : ... .. . ... : ... .. . ... : ... .. . ...
ROW 5B : ... .. . ... ... ... P81 : ... .. . ... ... ... P80 : ... .. . ... : ... .. . ... : ... .. . ...
ROW 5C : ... .. 2 ... ... ... ... : ... .. . ... ... ... ... : ... .. . ... : ... .. . ... : ... .. . ...
ROW 5D : ... .. . ... ... ... ... : ... .. . ... ... ... ... : ... .. . ... : ... .. . ... : ... .. . ...
ROW 5E : ... .. 1 ... ... ... P80 : ... .. . ... ... ... P7F : ... .. . ... : ... .. . ... : ... .. . ...
ROW 5F : E-3 00 . ... ... ... ... : ... .. . ... ... ... ... : ... .. . ... : ... .. . ... : ... .. . ...
ROW 60 : ... .. . ... ... ... ... : ... .. . ... ... ... ... : ... .. . ... : ... .. . ... : ... .. . ...
ROW 61 : ... .. . ... ... ... ... : ... .. . ... ... ... ... : --- .. . ... : ... .. . ... : ... .. . ...
ROW 62 : D-3 00 6 ... ... ... ... : F-3 00 2 ... ... ... ... : ... .. . ... : ... .. . ... : ... .. . ...
ROW 63 : ... .. . ... ... ... ... : ... .. . ... ... ... ... : ... .. . ... : ... .. . ... : ... .. . ...
ROW 64 : ... .. 5 ... ... ... ... : ... .. . ... ... ... ... : ... .. . ... : ... .. . ... : ... .. . ...
ROW 65 : ... .. . ... ... ... ... : ... .. . ... ... ... ... : ... .. . ... : ... .. . ... : ... .. . ...
ROW 66 : ... .. 4 ... ... ... ... : ... .. 1 ... ... ... ... : ... .. . ... : ... .. . ... : ... .. . ...
ROW 67 : ... .. . ... ... ... ... : ... .. . ... ... ... ... : ... .. . ... : ... .. . ... : ... .. . ...
ROW 68 : ... .. 3 ... ... ... ... : ... .. . ... ... ... ... : ... .. . ... : ... .. . ... : ... .. . ...
ROW 69 : ... .. . ... ... ... P81 : ... .. . ... ... ... P80 : ... .. . ... : ... .. . ... : ... .. . ...
ROW 6A : ... .. 2 ... ... ... ... : ... .. . ... ... ... ... : ... .. . ... : ... .. . ... : ... .. . ...
ROW 6B : ... .. . ... ... ... ... : ... .. . ... ... ... ... : ... .. . ... : ... .. . ... : ... .. . ...
ROW 6C : ... .. 1 ... ... ... P80 : ... .. . ... ... ... P7F : ... .. . ... : ... .. . ... : ... .. . ...
ROW 6D : F-3 00 . ... ... ... ... : ... .. . ... ... ... ... : ... .. . ... : ... .. . ... : ... .. . ...
ROW 6E : ... .. . ... ... ... ... : ... .. . ... ... ... ... : ... .. . ... : ... .. . ... : ... .. . ...
ROW 6F : ... .. . ... ... ... ... : ... .. . ... ... ... ... : ... .. . ... : ... .. . ... : ... .. . ...
ROW 70 : E-3 00 6 ... ... ... ... : D-3 00 2 ... ... ... ... : C-3 00 . ... : ... .. . ... : ... .. . ...
ROW 71 : ... .. . ... ... ... ... : ... .. . ... ... ... ... : ... .. . ... : ... .. . ... : ... .. . ...
ROW 72 : ... .. 5 ... ... ... ... : ... .. . ... ... ... ... : ... .. . ... : ... .. . ... : ... .. . ...
ROW 73 : ... .. . ... ... ... ... : ... .. . ... ... ... ... : ... .. . ... : ... .. . ... : ... .. . ...
ROW 74 : ... .. 4 ... ... ... ... : ... .. 1 ... ... ... ... : ... .. . ... : ... .. . ... : ... .. . ...
ROW 75 : ... .. . ... ... ... ... : ... .. . ... ... ... ... : ... .. . ... : ... .. . ... : ... .. . ...
ROW 76 : ... .. . ... ... ... ... : ... .. . ... ... ... ... : ... .. . ... : ... .. . ... : ... .. . ...
ROW 77 : ... .. . ... ... ... ... : ... .. . ... ... ... P80 : ... .. . ... : ... .. . ... : ... .. . ...
ROW 78 : ... .. . ... ... ... ... : ... .. . ... ... ... ... : ... .. . ... : ... .. . ... : ... .. . ...
ROW 79 : ... .. . ... ... ... ... : ... .. . ... ... ... ... : ... .. . ... : ... .. . ... : ... .. . ...
ROW 7A : ... .. . ... ... ... ... : ... .. . ... ... ... P7F : ... .. . ... : ... .. . ... : ... .. . ...
ROW 7B : ... .. . ... ... ... ... : ... .. . ... ... ... ... : ... .. . ... : ... .. . ... : ... .. . ...
ROW 7C : ... .. . ... ... ... ... : ... .. . ... ... ... ... : ... .. . ... : ... .. . ... : ... .. . ...
ROW 7D : ... .. . ... ... ... ... : ... .. . ... ... ... ... : --- .. . ... : ... .. . ... : ... .. . ...
ROW 7E : ... .. . ... ... ... P81 : E-3 00 2 ... ... ... ... : ... .. . ... : ... .. . ... : ... .. . ...
ROW 7F : ... .. . ... ... ... ... : ... .. . ... ... ... ... : ... .. . ... : ... .. . ... : ... .. . ...
ROW 80 : ... .. . ... ... ... ... : ... .. . ... ... ... ... : ... .. . ... : ... .. . ... : ... .. . ...
ROW 81 : ... .. . ... ... ... P80 : ... .. . ... ... ... ... : ... .. . ... : ... .. . ... : ... .. . ...
ROW 82 : ... .. . ... ... ... ... : ... .. 1 ... ... ... ... : ... .. . ... : ... .. . ... : ... .. . ...
ROW 83 : ... .. . ... ... ... ... : ... .. . ... ... ... ... : ... .. . ... : ... .. . ... : ... .. . ...
ROW 84 : ... .. . ... ... ... P7F : ... .. . ... ... ... ... : ... .. . ... : ... .. . ... : ... .. . ...
ROW 85 : ... .. . ... ... ... ... : ... .. . ... ... ... ... : ... .. . ... : ... .. . ... : ... .. . ...
ROW 86 : ... .. 3 ... ... ... ... : ... .. . ... ... ... ... : ... .. . ... : ... .. . ... : ... .. . ...
ROW 87 : ... .. . ... ... ... P80 : ... .. . ... ... ... ... : ... .. . ... : ... .. . ... : ... .. . ...
ROW 88 : ... .. 2 ... ... ... ... : ... .. . ... ... ... ... : ... .. . ... : ... .. . ... : ... .. . ...
ROW 89 : ... .. . ... ... ... ... : ... .. . ... ... ... ... : ... .. . ... : ... .. . ... : ... .. . ...
ROW 8A : ... .. 1 ... ... ... P81 : ... .. . ... ... ... ... : ... .. . ... : ... .. . ... : ... .. . ...
ROW 8B : ... .. . ... ... ... ... : ... .. . ... ... ... ... : ... .. . ... : ... .. . ... : ... .. . ...
ROW 8C : G-3 00 6 ... ... ... P80 : ... .. . ... ... ... P80 : G-2 00 . ... : ... .. . ... : ... .. . ...
ROW 8D : ... .. . ... ... ... ... : ... .. . ... ... ... ... : ... .. . ... : ... .. . ... : ... .. . ...
ROW 8E : ... .. 5 ... ... ... ... : ... .. . ... ... ... ... : ... .. . ... : ... .. . ... : ... .. . ...
ROW 8F : ... .. . ... ... ... ... : ... .. . ... ... ... P7F : ... .. . ... : ... .. . ... : ... .. . ...
ROW 90 : ... .. 4 ... ... ... ... : ... .. . ... ... ... ... : ... .. . ... : ... .. . ... : ... .. . ...
ROW 91 : ... .. . ... ... ... ... : ... .. . ... ... ... ... : ... .. . ... : ... .. . ... : ... .. . ...
ROW 92 : ... .. . ... ... ... ... : ... .. . ... ... ... P7E : ... .. . ... : ... .. . ... : ... .. . ...
ROW 93 : ... .. . ... ... ... ... : ... .. . ... ... ... ... : ... .. . ... : ... .. . ... : ... .. . ...
ROW 94 : ... .. . ... ... ... ... : ... .. . ... ... ... ... : ... .. . ... : ... .. . ... : ... .. . ...
ROW 95 : ... .. . ... ... ... ... : ... .. . ... ... ... P7F : ... .. . ... : ... .. . ... : ... .. . ...
ROW 96 : ... .. . ... ... ... ... : ... .. . ... ... ... ... : ... .. . ... : ... .. . ... : ... .. . ...
ROW 97 : ... .. . ... ... ... ... : ... .. . ... ... ... ... : ... .. . ... : ... .. . ... : ... .. . ...
ROW 98 : ... .. . ... ... ... ... : ... .. . ... ... ... P80 : ... .. . ... : ... .. . ... : ... .. . ...
ROW 99 : ... .. . ... ... ... ... : ... .. . ... ... ... ... : --- .. . ... : ... .. . ... : ... .. . ...
ROW 9A : ... .. . ... ... ... P81 : G-3 00 2 ... ... ... P7F : ... .. . ... : ... .. . ... : ... .. . ...
ROW 9B : ... .. . ... ... ... ... : ... .. . ... ... ... ... : ... .. . ... : ... .. . ... : ... .. . ...
ROW 9C : ... .. . ... ... ... ... : ... .. . ... ... ... ... : ... .. . ... : ... .. . ... : ... .. . ...
ROW 9D : ... .. . ... ... ... P80 : ... .. . ... ... ... ... : ... .. . ... : ... .. . ... : ... .. . ...
ROW 9E : ... .. . ... ... ... ... : ... .. 1 ... ... ... ... : ... .. . ... : ... .. . ... : ... .. . ...
ROW 9F : ... .. . ... ... ... ... : ... .. . ... ... ... ... : ... .. . ... : ... .. . ... : ... .. . ...
ROW A0 : ... .. . ... ... ... P7F : ... .. . ... ... ... ... : ... .. . ... : ... .. . ... : ... .. . ...
ROW A1 : ... .. . ... ... ... ... : ... .. . ... ... ... ... : ... .. . ... : ... .. . ... : ... .. . ...
ROW A2 : ... .. 3 ... ... ... ... : ... .. . ... ... ... ... : ... .. . ... : ... .. . ... : ... .. . ...
ROW A3 : ... .. . ... ... ... P80 : ... .. . ... ... ... ... : ... .. . ... : ... .. . ... : ... .. . ...
ROW A4 : ... .. 2 ... ... ... ... : ... .. . ... ... ... ... : ... .. . ... : ... .. . ... : ... .. . ...
ROW A5 : ... .. . ... ... ... ... : ... .. . ... ... ... ... : ... .. . ... : ... .. . ... : ... .. . ...
ROW A6 : ... .. 1 ... ... ... P81 : ... .. . ... ... ... ... : ... .. . ... : ... .. . ... : ... .. . ...
ROW A7 : ... .. . ... ... ... ... : ... .. . ... ... ... ... : ... .. . ... : ... .. . ... : ... .. . ...
ROW A8 : E-3 00 6 ... ... ... P80 : ... .. . ... ... ... P80 : C-3 00 . ... : ... .. . ... : ... .. . ...
ROW A9 : ... .. . ... ... ... ... : ... .. . ... ... ... ... : ... .. . ... : ... .. . ... : ... .. . ...
ROW AA : ... .. 5 ... ... ... ... : ... .. . ... ... ... ... : ... .. . ... : ... .. . ... : ... .. . ...
ROW AB : ... .. . ... ... ... ... : ... .. . ... ... ... P7F : ... .. . ... : ... .. . ... : ... .. . ...
ROW AC : ... .. 4 ... ... ... ... : ... .. . ... ... ... ... : ... .. . ... : ... .. . ... : ... .. . ...
ROW AD : ... .. . ... ... ... ... : ... .. . ... ... ... ... : ... .. . ... : ... .. . ... : ... .. . ...
ROW AE : ... .. . ... ... ... ... : ... .. . ... ... ... P7E : ... .. . ... : ... .. . ... : ... .. . ...
ROW AF : ... .. . ... ... ... ... : ... .. . ... ... ... ... : ... .. . ... : ... .. . ... : ... .. . ...
ROW B0 : ... .. . ... ... ... ... : ... .. . ... ... ... ... : ... .. . ... : ... .. . ... : ... .. . ...
ROW B1 : ... .. . ... ... ... ... : ... .. . ... ... ... P7F : ... .. . ... : ... .. . ... : ... .. . ...
ROW B2 : ... .. . ... ... ... ... : ... .. . ... ... ... ... : ... .. . ... : ... .. . ... : ... .. . ...
ROW B3 : ... .. . ... ... ... ... : ... .. . ... ... ... ... : ... .. . ... : ... .. . ... : ... .. . ...
ROW B4 : ... .. . ... ... ... ... : ... .. . ... ... ... P80 : ... .. . ... : ... .. . ... : ... .. . ...
ROW B5 : ... .. . ... ... ... ... : ... .. . ... ... ... ... : --- .. . ... : ... .. . ... : ... .. . ...
ROW B6 : ... .. . ... ... ... P81 : E-3 00 . ... ... ... P7F : ... .. . ... : ... .. . ... : ... .. . ...
ROW B7 : ... .. . ... ... ... ... : ... .. . ... ... ... ... : ... .. . ... : ... .. . ... : ... .. . ...
ROW B8 : ... .. . ... ... ... ... : ... .. . ... ... ... ... : ... .. . ... : ... .. . ... : ... .. . ...
ROW B9 : ... .. . ... ... ... P80 : ... .. . ... ... ... ... : ... .. . ... : ... .. . ... : ... .. . ...
ROW BA : ... .. . ... ... ... ... : ... .. . ... ... ... ... : ... .. . ... : ... .. . ... : ... .. . ...
ROW BB : ... .. . ... ... ... ... : ... .. . ... ... ... ... : ... .. . ... : ... .. . ... : ... .. . ...
ROW BC : ... .. . ... ... ... P7F : ... .. . ... ... ... ... : ... .. . ... : ... .. . ... : ... .. . ...
ROW BD : ... .. . ... ... ... ... : ... .. . ... ... ... ... : ... .. . ... : ... .. . ... : ... .. . ...
ROW BE : ... .. 3 ... ... ... ... : ... .. . ... ... ... ... : ... .. . ... : ... .. . ... : ... .. . ...
ROW BF : ... .. . ... ... ... P80 : ... .. . ... ... ... ... : ... .. . ... : ... .. . ... : ... .. . ...
ROW C0 : ... .. 2 ... ... ... ... : ... .. . ... ... ... ... : ... .. . ... : ... .. . ... : ... .. . ...
ROW C1 : ... .. . ... ... ... ... : ... .. . ... ... ... ... : ... .. . ... : ... .. . ... : ... .. . ...
ROW C2 : ... .. 1 ... ... ... P81 : ... .. . ... ... ... ... : ... .. . ... : ... .. . ... : ... .. . ...
ROW C3 : ... .. . ... ... ... ... : ... .. . ... ... ... ... : ... .. . ... : ... .. . ... : ... .. . ...
ROW C4 : G-3 00 6 ... ... ... P80 : ... .. . ... ... ... P80 : G-2 00 . ... : ... .. . ... : ... .. . ...
ROW C5 : ... .. . ... ... ... ... : ... .. . ... ... ... ... : ... .. . ... : ... .. . ... : ... .. . ...
ROW C6 : ... .. 5 ... ... ... ... : ... .. . ... ... ... ... : ... .. . ... : ... .. . ... : ... .. . ...
ROW C7 : ... .. . ... ... ... ... : ... .. . ... ... ... P7F : ... .. . ... : ... .. . ... : ... .. . ...
ROW C8 : ... .. 4 ... ... ... ... : ... .. . ... ... ... ... : ... .. . ... : ... .. . ... : ... .. . ...
ROW C9 : ... .. . ... ... ... ... : ... .. . ... ... ... ... : ... .. . ... : ... .. . ... : ... .. . ...
ROW CA : ... .. . ... ... ... ... : ... .. . ... ... ... P7E : ... .. . ... : ... .. . ... : ... .. . ...
ROW CB : ... .. . ... ... ... ... : ... .. . ... ... ... ... : ... .. . ... : ... .. . ... : ... .. . ...
ROW CC : ... .. . ... ... ... ... : ... .. . ... ... ... ... : ... .. . ... : ... .. . ... : ... .. . ...
ROW CD : ... .. . ... ... ... ... : ... .. . ... ... ... P7F : ... .. . ... : ... .. . ... : ... .. . ...
ROW CE : ... .. . ... ... ... ... : ... .. . ... ... ... ... : ... .. . ... : ... .. . ... : ... .. . ...
ROW CF : ... .. . ... ... ... ... : ... .. . ... ... ... ... : ... .. . ... : ... .. . ... : ... .. . ...
ROW D0 : ... .. . ... ... ... ... : ... .. . ... ... ... P80 : ... .. . ... : ... .. . ... : ... .. . ...
ROW D1 : ... .. . ... ... ... ... : ... .. . ... ... ... ... : --- .. . ... : ... .. . ... : ... .. . ...
ROW D2 : ... .. . ... ... ... P81 : G-3 00 2 ... ... ... P7F : ... .. . ... : ... .. . ... : ... .. . ...
ROW D3 : ... .. . ... ... ... ... : ... .. . ... ... ... ... : ... .. . ... : ... .. . ... : ... .. . ...
ROW D4 : ... .. . ... ... ... ... : ... .. . ... ... ... ... : ... .. . ... : ... .. . ... : ... .. . ...
ROW D5 : ... .. . ... ... ... P80 : ... .. . ... ... ... ... : ... .. . ... : ... .. . ... : ... .. . ...
ROW D6 : ... .. . ... ... ... ... : ... .. 1 ... ... ... ... : ... .. . ... : ... .. . ... : ... .. . ...
ROW D7 : ... .. . ... ... ... ... : ... .. . ... ... ... ... : ... .. . ... : ... .. . ... : ... .. . ...
ROW D8 : ... .. . ... ... ... P7F : ... .. . ... ... ... ... : ... .. . ... : ... .. . ... : ... .. . ...
ROW D9 : ... .. . ... ... ... ... : ... .. . ... ... ... ... : ... .. . ... : ... .. . ... : ... .. . ...
ROW DA : ... .. . ... ... ... ... : ... .. . ... ... ... ... : ... .. . ... : ... .. . ... : ... .. . ...
ROW DB : ... .. . ... ... ... P80 : ... .. . ... ... ... ... : ... .. . ... : ... .. . ... : ... .. . ...
ROW DC : ... .. . ... ... ... ... : ... .. . ... ... ... ... : ... .. . ... : ... .. . ... : ... .. . ...
ROW DD : ... .. . ... ... ... ... : ... .. . ... ... ... ... : ... .. . ... : ... .. . ... : ... .. . ...
ROW DE : ... .. . ... ... ... P81 : ... .. . ... ... ... ... : ... .. . ... : ... .. . ... : ... .. . ...
ROW DF : ... .. . ... ... ... ... : ... .. . ... ... ... ... : ... .. . ... : ... .. . ... : ... .. . ...

PATTERN 01
ROW 00 : ... .. . ... ... ... ... : ... .. . ... ... ... P80 : A-2 00 . ... : ... .. . ... : ... .. . ...
ROW 01 : ... .. . ... ... ... P80 : ... .. . ... ... ... ... : ... .. . ... : ... .. . ... : ... .. . ...
ROW 02 : ... .. . ... ... ... ... : ... .. . ... ... ... ... : ... .. . ... : ... .. . ... : ... .. . ...
ROW 03 : ... .. . ... ... ... ... : ... .. . ... ... ... P7F : ... .. . ... : ... .. . ... : ... .. . ...
ROW 04 : ... .. . ... ... ... P7F : ... .. . ... ... ... ... : ... .. . ... : ... .. . ... : ... .. . ...
ROW 05 : ... .. 3 ... ... ... ... : ... .. . ... ... ... ... : ... .. . ... : ... .. . ... : ... .. . ...
ROW 06 : ... .. . ... ... ... ... : ... .. . ... ... ... P7E : ... .. . ... : ... .. . ... : ... .. . ...
ROW 07 : ... .. . ... ... ... P80 : ... .. . ... ... ... ... : ... .. . ... : ... .. . ... : ... .. . ...
ROW 08 : ... .. 2 ... ... ... ... : ... .. . ... ... ... ... : ... .. . ... : ... .. . ... : ... .. . ...
ROW 09 : ... .. . ... ... ... ... : ... .. . ... ... ... P7F : ... .. . ... : ... .. . ... : ... .. . ...
ROW 0A : ... .. . ... ... ... P81 : ... .. . ... ... ... ... : ... .. . ... : ... .. . ... : ... .. . ...
ROW 0B : ... .. 1 ... ... ... ... : ... .. . ... ... ... ... : ... .. . ... : ... .. . ... : ... .. . ...
ROW 0C : ... .. . ... ... ... ... : ... .. . ... ... ... P80 : ... .. . ... : ... .. . ... : ... .. . ...
ROW 0D : ... .. . ... ... ... P80 : ... .. . ... ... ... ... : --- .. . ... : ... .. . ... : ... .. . ...
ROW 0E : C-3 00 6 V01 ... ... ... : ... .. . ... ... ... ... : ... .. . ... : ... .. . ... : ... .. . ...
ROW 0F : ... .. . ... ... ... ... : ... .. . ... ... ... P7F : ... .. . ... : ... .. . ... : ... .. . ...
ROW 10 : ... .. 5 ... ... ... ... : ... .. . ... ... ... ... : ... .. . ... : ... .. . ... : ... .. . ...
ROW 11 : ... .. . ... ... ... ... : ... .. . ... ... ... ... : ... .. . ... : ... .. . ... : ... .. . ...
ROW 12 : ... .. 4 ... ... ... ... : ... .. . ... ... ... P7E : ... .. . ... : ... .. . ... : ... .. . ...
ROW 13 : ... .. . ... ... ... ... : ... .. . ... ... ... ... : ... .. . ... : ... .. . ... : ... .. . ...
ROW 14 : ... .. 3 ... ... ... ... : ... .. . ... ... ... ... : ... .. . ... : ... .. . ... : ... .. . ...
ROW 15 : ... .. . ... ... ... P81 : ... .. . ... ... ... P7F : ... .. . ... : ... .. . ... : ... .. . ...
ROW 16 : ... .. 2 ... ... ... ... : ... .. . ... ... ... ... : ... .. . ... : ... .. . ... : ... .. . ...
ROW 17 : ... .. . ... ... ... ... : ... .. . ... ... ... ... : ... .. . ... : ... .. . ... : ... .. . ...
ROW 18 : ... .. 1 ... ... ... P80 : ... .. . ... ... ... P80 : ... .. . ... : ... .. . ... : ... .. . ...
ROW 19 : ... .. . ... ... ... ... : ... .. . ... ... ... ... : ... .. . ... : ... .. . ... : ... .. . ...
ROW 1A : ... .. . ... ... ... ... : ... .. . ... ... ... ... : ... .. . ... : ... .. . ... : ... .. . ...
ROW 1B : ... .. . ... ... ... ... : ... .. . ... ... ... P7F : ... .. . ... : ... .. . ... : ... .. . ...
ROW 1C : D-3 00 6 ... ... ... ... : C-3 00 2 V01 ... ... ... : ... .. . ... : ... .. . ... : ... .. . ...
ROW 1D : ... .. . ... ... ... ... : ... .. . ... ... ... ... : ... .. . ... : ... .. . ... : ... .. . ...
ROW 1E : ... .. 5 ... ... ... ... : ... .. . ... ... ... ... : ... .. . ... : ... .. . ... : ... .. . ...
ROW 1F : ... .. . ... ... ... ... : ... .. . ... ... ... ... : ... .. . ... : ... .. . ... : ... .. . ...
ROW 20 : ... .. 4 ... ... ... ... : ... .. 1 ... ... ... ... : ... .. . ... : ... .. . ... : ... .. . ...
ROW 21 : ... .. . ... ... ... ... : ... .. . ... ... ... ... : ... .. . ... : ... .. . ... : ... .. . ...
ROW 22 : ... .. 3 ... ... ... ... : ... .. . ... ... ... ... : ... .. . ... : ... .. . ... : ... .. . ...
ROW 23 : ... .. . ... ... ... P81 : ... .. . ... ... ... P80 : ... .. . ... : ... .. . ... : ... .. . ...
ROW 24 : ... .. 2 ... ... ... ... : ... .. . ... ... ... ... : ... .. . ... : ... .. . ... : ... .. . ...
ROW 25 : ... .. . ... ... ... ... : ... .. . ... ... ... ... : ... .. . ... : ... .. . ... : ... .. . ...
ROW 26 : ... .. 1 ... ... ... P80 : ... .. . ... ... ... P7F : ... .. . ... : ... .. . ... : ... .. . ...
ROW 27 : C-3 00 . ... ... ... ... : ... .. . ... ... ... ... : ... .. . ... : ... .. . ... : ... .. . ...
ROW 28 : ... .. . ... ... ... ... : ... .. . ... ... ... ... : ... .. . ... : ... .. . ... : ... .. . ...
ROW 29 : ... .. . ... ... ... ... : ... .. . ... ... ... ... : ... .. . ... : ... .. . ... : ... .. . ...
ROW 2A : F-3 00 6 ... ... ... ... : D-3 00 2 ... ... ... ... : ... .. . ... : ... .. . ... : ... .. . ...
ROW 2B : ... .. . ... ... ... ... : ... .. . ... ... ... ... : ... .. . ... : ... .. . ... : ... .. . ...
ROW 2C : ... .. 5 ... ... ... ... : ... .. . ... ... ... ... : ... .. . ... : ... .. . ... : ... .. . ...
ROW 2D : ... .. . ... ... ... ... : ... .. . ... ... ... ... : ... .. . ... : ... .. . ... : ... .. . ...
ROW 2E : ... .. 4 ... ... ... ... : ... .. 1 ... ... ... ... : ... .. . ... : ... .. . ... : ... .. . ...
ROW 2F : ... .. . ... ... ... ... : ... .. . ... ... ... ... : ... .. . ... : ... .. . ... : ... .. . ...
ROW 30 : ... .. 3 ... ... ... ... : ... .. . ... ... ... ... : ... .. . ... : ... .. . ... : ... .. . ...
ROW 31 : ... .. . ... ... ... P81 : ... .. . ... ... ... P80 : ... .. . ... : ... .. . ... : ... .. . ...
ROW 32 : ... .. 2 ... ... ... ... : ... .. . ... ... ... ... : ... .. . ... : ... .. . ... : ... .. . ...
ROW 33 : ... .. . ... ... ... ... : ... .. . ... ... ... ... : ... .. . ... : ... .. . ... : ... .. . ...
ROW 34 : ... .. 1 ... ... ... P80 : ... .. . ... ... ... P7F : ... .. . ... : ... .. . ... : ... .. . ...
ROW 35 : D-3 00 . ... ... ... ... : ... .. . ... ... ... ... : ... .. . ... : ... .. . ... : ... .. . ...
ROW 36 : ... .. . ... ... ... ... : ... .. . ... ... ... ... : ... .. . ... : ... .. . ... : ... .. . ...
ROW 37 : ... .. . ... ... ... ... : ... .. . ... ... ... ... : ... .. . ... : ... .. . ... : ... .. . ...
ROW 38 : E-3 00 6 ... ... ... ... : F-3 00 2 ... ... ... ... : ... .. . ... : ... .. . ... : ... .. . ...
ROW 39 : ... .. . ... ... ... ... : ... .. . ... ... ... ... : ... .. . ... : ... .. . ... : ... .. . ...
ROW 3A : ... .. . ... ... ... ... : ... .. . ... ... ... ... : ... .. . ... : ... .. . ... : ... .. . ...
ROW 3B : ... .. 5 ... ... ... ... : ... .. . ... ... ... ... : ... .. . ... : ... .. . ... : ... .. . ...
ROW 3C : ... .. . ... ... ... ... : ... .. 1 ... ... ... ... : ... .. . ... : ... .. . ... : ... .. . ...
ROW 3D : ... .. . ... ... ... ... : ... .. . ... ... ... ... : ... .. . ... : ... .. . ... : ... .. . ...
ROW 3E : ... .. 4 ... ... ... ... : ... .. . ... ... ... ... : ... .. . ... : ... .. . ... : ... .. . ...
ROW 3F : ... .. . ... ... ... P81 : ... .. . ... ... ... P80 : ... .. . ... : ... .. . ... : ... .. . ...
ROW 40 : ... .. . ... ... ... ... : ... .. . ... ... ... ... : ... .. . ... : ... .. . ... : ... .. . ...
ROW 41 : ... .. 3 ... ... ... ... : ... .. . ... ... ... ... : ... .. . ... : ... .. . ... : ... .. . ...
ROW 42 : ... .. . ... ... ... P80 : ... .. . ... ... ... P7F : ... .. . ... : ... .. . ... : ... .. . ...
ROW 43 : ... .. . ... ... ... ... : ... .. . ... ... ... ... : ... .. . ... : ... .. . ... : ... .. . ...
ROW 44 : F-3 00 1 ... ... ... ... : ... .. . ... ... ... ... : ... .. . ... : ... .. . ... : ... .. . ...
ROW 45 : ... .. . ... ... ... ... : ... .. . ... ... ... ... : ... .. . ... : ... .. . ... : ... .. . ...
ROW 46 : C-3 00 6 ... ... ... ... : E-3 00 2 ... ... ... ... : ... .. . ... : ... .. . ... : ... .. . ...
ROW 47 : ... .. . ... ... ... ... : ... .. . ... ... ... ... : ... .. . ... : ... .. . ... : ... .. . ...
ROW 48 : ... .. 5 ... ... ... ... : ... .. . ... ... ... ... : ... .. . ... : ... .. . ... : ... .. . ...
ROW 49 : ... .. . ... ... ... ... : ... .. . ... ... ... ... : ... .. . ... : ... .. . ... : ... .. . ...
ROW 4A : ... .. 4 ... ... ... ... : ... .. 1 ... ... ... ... : ... .. . ... : ... .. . ... : ... .. . ...
ROW 4B : ... .. . ... ... ... ... : ... .. . ... ... ... ... : ... .. . ... : ... .. . ... : ... .. . ...
ROW 4C : ... .. 3 ... ... ... ... : ... .. . ... ... ... ... : ... .. . ... : ... .. . ... : ... .. . ...
ROW 4D : ... .. . ... ... ... P81 : ... .. . ... ... ... P80 : ... .. . ... : ... .. . ... : ... .. . ...
ROW 4E : ... .. 2 ... ... ... ... : ... .. . ... ... ... ... : ... .. . ... : ... .. . ... : ... .. . ...
ROW 4F : ... .. . ... ... ... ... : ... .. . ... ... ... ... : ... .. . ... : ... .. . ... : ... .. . ...
ROW 50 : ... .. 1 ... ... ... P80 : ... .. . ... ... ... P7F : ... .. . ... : ... .. . ... : ... .. . ...
ROW 51 : E-3 00 . ... ... ... ... : ... .. . ... ... ... ... : ... .. . ... : ... .. . ... : ... .. . ...
ROW 52 : ... .. . ... ... ... ... : ... .. . ... ... ... ... : ... .. . ... : ... .. . ... : ... .. . ...
ROW 53 : ... .. . ... ... ... ... : ... .. . ... ... ... ... : ... .. . ... : ... .. . ... : ... .. . ...
ROW 54 : D-3 00 6 ... ... ... ... : C-3 00 2 ... ... ... ... : G-2 00 . ... : ... .. . ... : ... .. . ...
ROW 55 : ... .. . ... ... ... ... : ... .. . ... ... ... ... : ... .. . ... : ... .. . ... : ... .. . ...
ROW 56 : ... .. 5 ... ... ... ... : ... .. . ... ... ... ... : ... .. . ... : ... .. . ... : ... .. . ...
ROW 57 : ... .. . ... ... ... ... : ... .. . ... ... ... ... : ... .. . ... : ... .. . ... : ... .. . ...
ROW 58 : ... .. 4 ... ... ... ... : ... .. 1 ... ... ... ... : ... .. . ... : ... .. . ... : ... .. . ...
ROW 59 : ... .. . ... ... ... ... : ... .. . ... ... ... ... : ... .. . ... : ... .. . ... : ... .. . ...
ROW 5A : ... .. 3 ... ... ... ... : ... .. . ... ... ... ... : ... .. . ... : ... .. . ... : ... .. . ...
ROW 5B : ... .. . ... ... ... P81 : ... .. . ... ... ... P80 : ... .. . ... : ... .. . ... : ... .. . ...
ROW 5C : ... .. 2 ... ... ... ... : ... .. . ... ... ... ... : ... .. . ... : ... .. . ... : ... .. . ...
ROW 5D : ... .. . ... ... ... ... : ... .. . ... ... ... ... : ... .. . ... : ... .. . ... : ... .. . ...
ROW 5E : ... .. 1 ... ... ... P80 : ... .. . ... ... ... P7F : ... .. . ... : ... .. . ... : ... .. . ...
ROW 5F : C-3 00 . ... ... ... ... : ... .. . ... ... ... ... : ... .. . ... : ... .. . ... : ... .. . ...
ROW 60 : ... .. . ... ... ... ... : ... .. . ... ... ... ... : ... .. . ... : ... .. . ... : ... .. . ...
ROW 61 : ... .. . ... ... ... ... : ... .. . ... ... ... ... : ... .. . ... : ... .. . ... : ... .. . ...
ROW 62 : A-3 00 6 ... ... ... ... : D-3 00 2 ... ... ... ... : ... .. . ... : ... .. . ... : ... .. . ...
ROW 63 : ... .. . ... ... ... ... : ... .. . ... ... ... ... : ... .. . ... : ... .. . ... : ... .. . ...
ROW 64 : ... .. 5 ... ... ... ... : ... .. . ... ... ... ... : ... .. . ... : ... .. . ... : ... .. . ...
ROW 65 : ... .. . ... ... ... ... : ... .. . ... ... ... ... : ... .. . ... : ... .. . ... : ... .. . ...
ROW 66 : ... .. 4 ... ... ... ... : ... .. 1 ... ... ... ... : ... .. . ... : ... .. . ... : ... .. . ...
ROW 67 : ... .. . ... ... ... ... : ... .. . ... ... ... ... : ... .. . ... : ... .. . ... : ... .. . ...
ROW 68 : ... .. 3 ... ... ... ... : ... .. . ... ... ... ... : ... .. . ... : ... .. . ... : ... .. . ...
ROW 69 : ... .. . ... ... ... P81 : ... .. . ... ... ... P80 : ... .. . ... : ... .. . ... : ... .. . ...
ROW 6A : ... .. 2 ... ... ... ... : ... .. . ... ... ... ... : ... .. . ... : ... .. . ... : ... .. . ...
ROW 6B : ... .. . ... ... ... ... : ... .. . ... ... ... ... : ... .. . ... : ... .. . ... : ... .. . ...
ROW 6C : ... .. 1 ... ... ... P80 : ... .. . ... ... ... P7F : ... .. . ... : ... .. . ... : ... .. . ...
ROW 6D : D-3 00 . ... ... ... ... : ... .. . ... ... ... ... : ... .. . ... : ... .. . ... : ... .. . ...
ROW 6E : ... .. . ... ... ... ... : ... .. . ... ... ... ... : ... .. . ... : ... .. . ... : ... .. . ...
ROW 6F : ... .. . ... ... ... ... : ... .. . ... ... ... ... : ... .. . ... : ... .. . ... : ... .. . ...
ROW 70 : G-3 00 6 ... ... ... ... : A-3 00 2 ... ... ... ... : C-3 00 . ... : ... .. . ... : ... .. . ...
ROW 71 : ... .. . ... ... ... ... : ... .. . ... ... ... ... : ... .. . ... : ... .. . ... : ... .. . ...
ROW 72 : ... .. 5 ... ... ... ... : ... .. . ... ... ... ... : ... .. . ... : ... .. . ... : ... .. . ...
ROW 73 : ... .. . ... ... ... ... : ... .. . ... ... ... ... : ... .. . ... : ... .. . ... : ... .. . ...
ROW 74 : ... .. 4 ... ... ... ... : ... .. 1 ... ... ... ... : ... .. . ... : ... .. . ... : ... .. . ...
ROW 75 : ... .. . ... ... ... ... : ... .. . ... ... ... ... : ... .. . ... : ... .. . ... : ... .. . ...
ROW 76 : ... .. . ... ... ... ... : ... .. . ... ... ... ... : ... .. . ... : ... .. . ... : ... .. . ...
ROW 77 : ... .. . ... ... ... ... : ... .. . ... ... ... P80 : ... .. . ... : ... .. . ... : ... .. . ...
ROW 78 : ... .. . ... ... ... ... : ... .. . ... ... ... ... : ... .. . ... : ... .. . ... : ... .. . ...
ROW 79 : ... .. . ... ... ... ... : ... .. . ... ... ... ... : ... .. . ... : ... .. . ... : ... .. . ...
ROW 7A : ... .. . ... ... ... ... : ... .. . ... ... ... P7F : ... .. . ... : ... .. . ... : ... .. . ...
ROW 7B : ... .. . ... ... ... ... : ... .. . ... ... ... ... : ... .. . ... : ... .. . ... : ... .. . ...
ROW 7C : ... .. . ... ... ... ... : ... .. . ... ... ... ... : ... .. . ... : ... .. . ... : ... .. . ...
ROW 7D : ... .. . ... ... ... ... : ... .. . ... ... ... ... : ... .. . ... : ... .. . ... : ... .. . ...
ROW 7E : ... .. . ... ... ... ... : D-3 00 5 V00 ... ... P80 : F#4 00 . ... : ... .. . ... : ... .. . ...
ROW 7F : ... .. . ... ... ... ... : ... .. . ... ... ... ... : ... .. . ... : ... .. . ... : ... .. . ...
ROW 80 : ... .. . ... ... ... ... : ... .. . ... ... ... ... : ... .. . ... : ... .. . ... : ... .. . ...
ROW 81 : ... .. . ... ... ... ... : ... .. . ... ... ... ... : ... .. . ... : ... .. . ... : ... .. . ...
ROW 82 : ... .. . ... ... ... ... : ... .. . ... ... ... ... : ... .. . ... : ... .. . ... : ... .. . ...
ROW 83 : ... .. . ... ... ... ... : ... .. . ... ... ... ... : ... .. . ... : ... .. . ... : ... .. . ...
ROW 84 : ... .. . ... ... ... ... : ... .. . ... ... ... ... : ... .. . ... : ... .. . ... : ... .. . ...
ROW 85 : ... .. . ... ... ... ... : ... .. . ... ... ... ... : ... .. . ... : ... .. . ... : ... .. . ...
ROW 86 : ... .. . ... ... ... ... : ... .. . ... ... ... ... : ... .. . ... : ... .. . ... : ... .. . ...
ROW 87 : ... .. . ... ... ... ... : ... .. . ... ... ... ... : ... .. . ... : ... .. . ... : ... .. . ...
ROW 88 : ... .. . ... ... ... ... : ... .. . ... ... ... ... : ... .. . ... : ... .. . ... : ... .. . ...
ROW 89 : ... .. . ... ... ... ... : ... .. . ... ... ... ... : ... .. . ... : ... .. . ... : ... .. . ...
ROW 8A : ... .. . ... ... ... ... : ... .. . ... ... ... ... : ... .. . ... : ... .. . ... : ... .. . ...
ROW 8B : ... .. . ... ... ... ... : ... .. . ... ... ... ... : ... .. . ... : ... .. . ... : ... .. . ...
ROW 8C : ... .. . ... ... ... ... : C-3 00 . ... ... ... ... : E-4 00 . ... : ... .. . ... : ... .. . ...
ROW 8D : ... .. . ... ... ... ... : ... .. . ... ... ... ... : ... .. . ... : ... .. . ... : ... .. . ...
ROW 8E : ... .. . ... ... ... ... : ... .. . ... ... ... ... : ... .. . ... : ... .. . ... : ... .. . ...
ROW 8F : ... .. . ... ... ... ... : ... .. . ... ... ... ... : ... .. . ... : ... .. . ... : ... .. . ...
ROW 90 : ... .. . ... ... ... ... : ... .. . ... ... ... ... : ... .. . ... : ... .. . ... : ... .. . ...
ROW 91 : ... .. . ... ... ... ... : ... .. . ... ... ... ... : ... .. . ... : ... .. . ... : ... .. . ...
ROW 92 : ... .. . ... ... ... ... : ... .. . ... ... ... ... : ... .. . ... : ... .. . ... : ... .. . ...
ROW 93 : ... .. . ... ... ... ... : ... .. . ... ... ... ... : ... .. . ... : ... .. . ... : ... .. . ...
ROW 94 : ... .. . ... ... ... ... : ... .. . ... ... ... ... : ... .. . ... : ... .. . ... : ... .. . ...
ROW 95 : ... .. . ... ... ... ... : ... .. . ... ... ... ... : ... .. . ... : ... .. . ... : ... .. . ...
ROW 96 : ... .. . ... ... ... ... : ... .. . ... ... ... ... : ... .. . ... : ... .. . ... : ... .. . ...
ROW 97 : ... .. . ... ... ... ... : ... .. . ... ... ... ... : ... .. . ... : ... .. . ... : ... .. . ...
ROW 98 : ... .. . ... ... ... ... : ... .. . ... ... ... ... : ... .. . ... : ... .. . ... : ... .. . ...
ROW 99 : ... .. . ... ... ... ... : ... .. . ... ... ... ... : ... .. . ... : ... .. . ... : ... .. . ...
ROW 9A : ... .. . ... ... ... ... : D-3 00 1 ... ... ... ... : G-2 00 . ... : ... .. . ... : ... .. . ...
ROW 9B : ... .. . ... ... ... ... : ... .. . ... ... ... ... : ... .. . ... : ... .. . ... : ... .. . ...
ROW 9C : ... .. . ... ... ... ... : ... .. . ... ... ... ... : ... .. . ... : ... .. . ... : ... .. . ...
ROW 9D : ... .. . ... ... ... ... : ... .. . ... ... ... ... : ... .. . ... : ... .. . ... : ... .. . ...
ROW 9E : ... .. . ... ... ... ... : ... .. . ... ... ... ... : ... .. . ... : ... .. . ... : ... .. . ...
ROW 9F : ... .. . ... ... ... ... : ... .. . ... ... ... ... : ... .. . ... : ... .. . ... : ... .. . ...
ROW A0 : ... .. . ... ... ... ... : ... .. . ... ... ... ... : ... .. . ... : ... .. . ... : ... .. . ...
ROW A1 : ... .. . ... ... ... ... : ... .. . ... ... ... ... : ... .. . ... : ... .. . ... : ... .. . ...
ROW A2 : ... .. . ... ... ... ... : ... .. . ... ... ... ... : ... .. . ... : ... .. . ... : ... .. . ...
ROW A3 : ... .. . ... ... ... ... : ... .. . ... ... ... ... : ... .. . ... : ... .. . ... : ... .. . ...
ROW A4 : ... .. . ... ... ... ... : ... .. . ... ... ... ... : ... .. . ... : ... .. . ... : ... .. . ...
ROW A5 : ... .. . ... ... ... ... : ... .. . ... ... ... ... : ... .. . ... : ... .. . ... : ... .. . ...
ROW A6 : ... .. . ... ... ... ... : ... .. . ... ... ... ... : ... .. . ... : ... .. . ... : ... .. . ...
ROW A7 : ... .. . ... ... ... ... : ... .. . ... ... ... ... : ... .. . ... : ... .. . ... : ... .. . ...
ROW A8 : ... .. . ... ... ... P7F : C-3 00 . ... ... ... ... : C-3 00 . ... : ... .. . ... : ... .. . ...
ROW A9 : ... .. . ... ... ... P7E : ... .. . ... ... ... ... : ... .. . ... : ... .. . ... : ... .. . ...
ROW AA : ... .. . ... ... ... P7D : ... .. . ... ... ... ... : ... .. . ... : ... .. . ... : ... .. . ...
ROW AB : ... .. . ... ... ... P7E : ... .. . ... ... ... ... : ... .. . ... : ... .. . ... : ... .. . ...
ROW AC : ... .. . ... ... ... P7F : ... .. . ... ... ... ... : ... .. . ... : ... .. . ... : ... .. . ...
ROW AD : ... .. . ... ... ... P80 : ... .. . ... ... ... ... : ... .. . ... : ... .. . ... : ... .. . ...
ROW AE : ... .. . ... ... ... P81 : ... .. . ... ... ... ... : ... .. . ... : ... .. . ... : ... .. . ...
ROW AF : ... .. . ... ... ... P82 : ... .. . ... ... ... ... : ... .. . ... : ... .. . ... : ... .. . ...
ROW B0 : ... .. . ... ... ... P83 : ... .. . ... ... ... ... : ... .. . ... : ... .. . ... : ... .. . ...
ROW B1 : ... .. . ... ... ... P82 : ... .. . ... ... ... ... : ... .. . ... : ... .. . ... : ... .. . ...
ROW B2 : ... .. . ... ... ... P81 : ... .. . ... ... ... ... : ... .. . ... : ... .. . ... : ... .. . ...
ROW B3 : ... .. . ... ... ... P80 : ... .. . ... ... ... ... : ... .. . ... : ... .. . ... : ... .. . ...
ROW B4 : ... .. . ... ... ... P7F : ... .. . ... ... ... ... : ... .. . ... : ... .. . ... : ... .. . ...
ROW B5 : ... .. . ... ... ... P7E : ... .. . ... ... ... ... : ... .. . ... : ... .. . ... : ... .. . ...
ROW B6 : ... .. . ... ... ... P7D : D-4 00 5 V02 ... ... ... : F#5 00 . ... : ... .. . ... : ... .. . ...
ROW B7 : ... .. . ... ... ... P7E : ... .. . ... ... ... ... : ... .. . ... : ... .. . ... : ... .. . ...
ROW B8 : ... .. . ... ... ... P7F : ... .. . ... ... ... ... : ... .. . ... : ... .. . ... : ... .. . ...
ROW B9 : ... .. . ... ... ... P80 : ... .. . ... ... ... ... : ... .. . ... : ... .. . ... : ... .. . ...
ROW BA : ... .. . ... ... ... P81 : ... .. . ... ... ... ... : ... .. . ... : ... .. . ... : ... .. . ...
ROW BB : ... .. . ... ... ... P82 : ... .. . ... ... ... ... : ... .. . ... : ... .. . ... : ... .. . ...
ROW BC : ... .. . ... ... ... P83 : ... .. . ... ... ... ... : ... .. . ... : ... .. . ... : ... .. . ...
ROW BD : ... .. . ... ... ... P82 : ... .. . ... ... ... ... : ... .. . ... : ... .. . ... : ... .. . ...
ROW BE : ... .. . ... ... ... P81 : ... .. . ... ... ... ... : ... .. . ... : ... .. . ... : ... .. . ...
ROW BF : ... .. . ... ... ... P80 : ... .. . ... ... ... ... : ... .. . ... : ... .. . ... : ... .. . ...
ROW C0 : ... .. . ... ... ... P7F : ... .. . ... ... ... ... : ... .. . ... : ... .. . ... : ... .. . ...
ROW C1 : ... .. . ... ... ... P7E : ... .. . ... ... ... ... : ... .. . ... : ... .. . ... : ... .. . ...
ROW C2 : ... .. . ... ... ... P7D : ... .. . ... ... ... ... : ... .. . ... : ... .. . ... : ... .. . ...
ROW C3 : ... .. . ... ... ... P7E : ... .. . ... ... ... ... : ... .. . ... : ... .. . ... : ... .. . ...
ROW C4 : ... .. . ... ... ... P7F : C-4 00 5 ... ... ... ... : E-5 00 . ... : ... .. . ... : ... .. . ...
ROW C5 : ... .. . ... ... ... P80 : ... .. . ... ... ... ... : ... .. . ... : ... .. . ... : ... .. . ...
ROW C6 : ... .. . ... ... ... P81 : ... .. . ... ... ... ... : ... .. . ... : ... .. . ... : ... .. . ...
ROW C7 : ... .. . ... ... ... P82 : ... .. . ... ... ... ... : ... .. . ... : ... .. . ... : ... .. . ...
ROW C8 : ... .. . ... ... ... P83 : ... .. . ... ... ... ... : ... .. . ... : ... .. . ... : ... .. . ...
ROW C9 : ... .. . ... ... ... P82 : ... .. . ... ... ... ... : ... .. . ... : ... .. . ... : ... .. . ...
ROW CA : ... .. . ... ... ... P81 : ... .. . ... ... ... ... : ... .. . ... : ... .. . ... : ... .. . ...
ROW CB : ... .. . ... ... ... P80 : ... .. . ... ... ... ... : ... .. . ... : ... .. . ... : ... .. . ...
ROW CC : ... .. 3 ... ... ... P7F : ... .. . ... ... ... ... : ... .. . ... : ... .. . ... : ... .. . ...
ROW CD : ... .. . ... ... ... P7E : ... .. . ... ... ... ... : ... .. . ... : ... .. . ... : ... .. . ...
ROW CE : ... .. 2 ... ... ... P7D : ... .. . ... ... ... ... : ... .. . ... : ... .. . ... : ... .. . ...
ROW CF : ... .. . ... ... ... P7E : ... .. . ... ... ... ... : ... .. . ... : ... .. . ... : ... .. . ...
ROW D0 : ... .. 1 ... ... ... P7F : ... .. . ... ... ... ... : ... .. . ... : ... .. . ... : ... .. . ...
ROW D1 : ... .. . ... ... ... P80 : ... .. . ... ... ... ... : ... .. . ... : ... .. . ... : ... .. . ...
ROW D2 : G-3 00 6 ... ... ... ... : ... .. 1 ... ... ... ... : --- .. . ... : ... .. . ... : ... .. . ...
ROW D3 : ... .. . ... ... ... ... : ... .. . ... ... ... ... : ... .. . ... : ... .. . ... : ... .. . ...
ROW D4 : ... .. 5 ... ... ... ... : ... .. . ... ... ... ... : ... .. . ... : ... .. . ... : ... .. . ...
ROW D5 : ... .. . ... ... ... ... : ... .. . ... ... ... ... : ... .. . ... : ... .. . ... : ... .. . ...
ROW D6 : ... .. 4 ... ... ... ... : ... .. . ... ... ... ... : ... .. . ... : ... .. . ... : ... .. . ...
ROW D7 : ... .. . ... ... ... ... : ... .. . ... ... ... ... : ... .. . ... : ... .. . ... : ... .. . ...
ROW D8 : ... .. 3 ... ... ... ... : ... .. . ... ... ... ... : ... .. . ... : ... .. . ... : ... .. . ...
ROW D9 : A-3 00 6 ... ... ... ... : G-3 00 2 V01 ... ... ... : ... .. . ... : ... .. . ... : ... .. . ...
ROW DA : ... .. . ... ... ... ... : ... .. . ... ... ... ... : ... .. . ... : ... .. . ... : ... .. . ...
ROW DB : ... .. 5 ... ... ... ... : ... .. . ... ... ... ... : ... .. . ... : ... .. . ... : ... .. . ...
ROW DC : ... .. . ... ... ... ... : ... .. . ... ... ... ... : ... .. . ... : ... .. . ... : ... .. . ...
ROW DD : ... .. 4 ... ... ... ... : ... .. 1 ... ... ... ... : ... .. . ... : ... .. . ... : ... .. . ...
ROW DE : G-3 00 1 ... ... ... ... : ... .. . ... ... ... ... : ... .. . ... : ... .. . ... : ... .. . ...
ROW DF : ... .. . ... ... ... ... : ... .. . ... ... ... ... : ... .. . ... : ... .. . ... : ... .. . ...

PATTERN 02
ROW 00 : A#3 00 6 V01 ... ... ... : A-3 00 2 V01 ... ... P7F : D#3 00 . ... : ... .. . ... : ... .. . ...
ROW 01 : ... .. . ... ... ... ... : ... .. . ... ... ... ... : ... .. . ... : ... .. . ... : ... .. . ...
ROW 02 : ... .. 5 ... ... ... ... : ... .. . ... ... ... ... : ... .. . ... : ... .. . ... : ... .. . ...
ROW 03 : ... .. . ... ... ... ... : ... .. . ... ... ... ... : ... .. . ... : ... .. . ... : ... .. . ...
ROW 04 : ... .. 4 ... ... ... ... : ... .. 1 ... ... ... ... : ... .. . ... : ... .. . ... : ... .. . ...
ROW 05 : ... .. . ... ... ... ... : ... .. . ... ... ... ... : ... .. . ... : ... .. . ... : ... .. . ...
ROW 06 : ... .. 3 ... ... ... ... : ... .. . ... ... ... ... : ... .. . ... : ... .. . ... : ... .. . ...
ROW 07 : ... .. . ... ... ... P81 : A#3 00 2 ... ... ... ... : ... .. . ... : ... .. . ... : ... .. . ...
ROW 08 : ... .. 2 ... ... ... ... : ... .. . ... ... ... ... : ... .. . ... : ... .. . ... : ... .. . ...
ROW 09 : ... .. . ... ... ... ... : ... .. . ... ... ... ... : ... .. . ... : ... .. . ... : ... .. . ...
ROW 0A : ... .. 1 ... ... ... P80 : ... .. . ... ... ... ... : ... .. . ... : ... .. . ... : ... .. . ...
ROW 0B : A-3 00 . ... ... ... ... : ... .. 1 ... ... ... ... : ... .. . ... : ... .. . ... : ... .. . ...
ROW 0C : ... .. . ... ... ... ... : ... .. . ... ... ... ... : ... .. . ... : ... .. . ... : ... .. . ...
ROW 0D : ... .. . ... ... ... ... : ... .. . ... ... ... ... : ... .. . ... : ... .. . ... : ... .. . ...
ROW 0E : G-3 00 6 ... ... ... ... : ... .. . ... ... ... P80 : ... .. . ... : ... .. . ... : ... .. . ...
ROW 0F : ... .. . ... ... ... ... : ... .. . ... ... ... ... : ... .. . ... : ... .. . ... : ... .. . ...
ROW 10 : ... .. 5 ... ... ... ... : ... .. . ... ... ... ... : ... .. . ... : ... .. . ... : ... .. . ...
ROW 11 : ... .. . ... ... ... ... : ... .. . ... ... ... P7F : ... .. . ... : ... .. . ... : ... .. . ...
ROW 12 : ... .. 4 ... ... ... ... : ... .. . ... ... ... ... : ... .. . ... : ... .. . ... : ... .. . ...
ROW 13 : ... .. . ... ... ... ... : ... .. . ... ... ... ... : ... .. . ... : ... .. . ... : ... .. . ...
ROW 14 : ... .. 3 ... ... ... ... : ... .. . ... ... ... ... : ... .. . ... : ... .. . ... : ... .. . ...
ROW 15 : ... .. . ... ... ... P81 : G-3 00 2 ... ... ... ... : ... .. . ... : ... .. . ... : ... .. . ...
ROW 16 : ... .. 2 ... ... ... ... : ... .. . ... ... ... ... : ... .. . ... : ... .. . ... : ... .. . ...
ROW 17 : ... .. . ... ... ... ... : ... .. . ... ... ... ... : ... .. . ... : ... .. . ... : ... .. . ...
ROW 18 : ... .. 1 ... ... ... P80 : ... .. . ... ... ... ... : ... .. . ... : ... .. . ... : ... .. . ...
ROW 19 : A#3 00 . ... ... ... ... : ... .. 1 ... ... ... ... : ... .. . ... : ... .. . ... : ... .. . ...
ROW 1A : ... .. . ... ... ... ... : ... .. . ... ... ... ... : ... .. . ... : ... .. . ... : ... .. . ...
ROW 1B : ... .. . ... ... ... ... : ... .. . ... ... ... ... : ... .. . ... : ... .. . ... : ... .. . ...
ROW 1C : A-3 00 6 ... ... ... ... : ... .. . ... ... ... P80 : F-3 00 . ... : ... .. . ... : ... .. . ...
ROW 1D : ... .. . ... ... ... ... : ... .. . ... ... ... ... : ... .. . ... : ... .. . ... : ... .. . ...
ROW 1E : ... .. 5 ... ... ... ... : ... .. . ... ... ... ... : ... .. . ... : ... .. . ... : ... .. . ...
ROW 1F : ... .. . ... ... ... ... : ... .. . ... ... ... P7F : ... .. . ... : ... .. . ... : ... .. . ...
ROW 20 : ... .. 4 ... ... ... ... : ... .. . ... ... ... ... : ... .. . ... : ... .. . ... : ... .. . ...
ROW 21 : ... .. . ... ... ... ... : ... .. . ... ... ... ... : ... .. . ... : ... .. . ... : ... .. . ...
ROW 22 : ... .. 3 ... ... ... ... : ... .. . ... ... ... ... : ... .. . ... : ... .. . ... : ... .. . ...
ROW 23 : ... .. . ... ... ... P81 : A-3 00 2 ... ... ... ... : ... .. . ... : ... .. . ... : ... .. . ...
ROW 24 : ... .. 2 ... ... ... ... : ... .. . ... ... ... ... : ... .. . ... : ... .. . ... : ... .. . ...
ROW 25 : ... .. . ... ... ... ... : ... .. . ... ... ... ... : ... .. . ... : ... .. . ... : ... .. . ...
ROW 26 : ... .. 1 ... ... ... P80 : ... .. . ... ... ... ... : ... .. . ... : ... .. . ... : ... .. . ...
ROW 27 : G-3 00 . ... ... ... ... : ... .. 1 ... ... ... ... : ... .. . ... : ... .. . ... : ... .. . ...
ROW 28 : ... .. . ... ... ... ... : ... .. . ... ... ... ... : ... .. . ... : ... .. . ... : ... .. . ...
ROW 29 : ... .. . ... ... ... ... : ... .. . ... ... ... ... : ... .. . ... : ... .. . ... : ... .. . ...
ROW 2A : C-4 00 6 ... ... ... ... : ... .. . ... ... ... P80 : ... .. . ... : ... .. . ... : ... .. . ...
ROW 2B : ... .. . ... ... ... ... : ... .. . ... ... ... ... : ... .. . ... : ... .. . ... : ... .. . ...
ROW 2C : ... .. 5 ... ... ... ... : ... .. . ... ... ... ... : ... .. . ... : ... .. . ... : ... .. . ...
ROW 2D : ... .. . ... ... ... ... : ... .. . ... ... ... P7F : ... .. . ... : ... .. . ... : ... .. . ...
ROW 2E : ... .. 4 ... ... ... ... : ... .. . ... ... ... ... : ... .. . ... : ... .. . ... : ... .. . ...
ROW 2F : ... .. . ... ... ... ... : ... .. . ... ... ... ... : ... .. . ... : ... .. . ... : ... .. . ...
ROW 30 : ... .. 3 ... ... ... ... : ... .. . ... ... ... ... : ... .. . ... : ... .. . ... : ... .. . ...
ROW 31 : ... .. . ... ... ... P81 : C-4 00 2 ... ... ... ... : ... .. . ... : ... .. . ... : ... .. . ...
ROW 32 : ... .. 2 ... ... ... ... : ... .. . ... ... ... ... : ... .. . ... : ... .. . ... : ... .. . ...
ROW 33 : ... .. . ... ... ... ... : ... .. . ... ... ... ... : ... .. . ... : ... .. . ... : ... .. . ...
ROW 34 : ... .. 1 ... ... ... P80 : ... .. . ... ... ... ... : ... .. . ... : ... .. . ... : ... .. . ...
ROW 35 : A-3 00 . ... ... ... ... : ... .. 1 ... ... ... ... : ... .. . ... : ... .. . ... : ... .. . ...
ROW 36 : ... .. . ... ... ... ... : ... .. . ... ... ... ... : ... .. . ... : ... .. . ... : ... .. . ...
ROW 37 : ... .. . ... ... ... ... : ... .. . ... ... ... ... : ... .. . ... : ... .. . ... : ... .. . ...
ROW 38 : F-3 00 6 ... ... ... ... : ... .. . ... ... ... P80 : A#2 00 . ... : ... .. . ... : ... .. . ...
ROW 39 : ... .. . ... ... ... ... : ... .. . ... ... ... ... : ... .. . ... : ... .. . ... : ... .. . ...
ROW 3A : ... .. 5 ... ... ... ... : ... .. . ... ... ... ... : ... .. . ... : ... .. . ... : ... .. . ...
ROW 3B : ... .. . ... ... ... ... : ... .. . ... ... ... P7F : ... .. . ... : ... .. . ... : ... .. . ...
ROW 3C : ... .. 4 ... ... ... ... : ... .. . ... ... ... ... : ... .. . ... : ... .. . ... : ... .. . ...
ROW 3D : ... .. . ... ... ... ... : ... .. . ... ... ... ... : ... .. . ... : ... .. . ... : ... .. . ...
ROW 3E : ... .. . ... ... ... ... : ... .. . ... ... ... ... : ... .. . ... : ... .. . ... : ... .. . ...
ROW 3F : ... .. . ... ... ... ... : F-3 00 2 ... ... ... ... : ... .. . ... : ... .. . ... : ... .. . ...
ROW 40 : ... .. . ... ... ... ... : ... .. . ... ... ... ... : ... .. . ... : ... .. . ... : ... .. . ...
ROW 41 : ... .. . ... ... ... ... : ... .. . ... ... ... ... : ... .. . ... : ... .. . ... : ... .. . ...
ROW 42 : ... .. . ... ... ... ... : ... .. . ... ... ... ... : ... .. . ... : ... .. . ... : ... .. . ...
ROW 43 : ... .. . ... ... ... ... : ... .. 1 ... ... ... ... : ... .. . ... : ... .. . ... : ... .. . ...
ROW 44 : ... .. . ... ... ... ... : ... .. . ... ... ... ... : ... .. . ... : ... .. . ... : ... .. . ...
ROW 45 : ... .. . ... ... ... ... : ... .. . ... ... ... ... : ... .. . ... : ... .. . ... : ... .. . ...
ROW 46 : ... .. . ... ... ... ... : C-3 00 5 V00 ... ... P80 : E-4 00 . ... : ... .. . ... : ... .. . ...
ROW 47 : ... .. . ... ... ... ... : ... .. . ... ... ... ... : ... .. . ... : ... .. . ... : ... .. . ...
ROW 48 : ... .. . ... ... ... ... : ... .. . ... ... ... ... : ... .. . ... : ... .. . ... : ... .. . ...
ROW 49 : ... .. . ... ... ... ... : ... .. . ... ... ... ... : ... .. . ... : ... .. . ... : ... .. . ...
ROW 4A : ... .. . ... ... ... ... : ... .. . ... ... ... ... : ... .. . ... : ... .. . ... : ... .. . ...
ROW 4B : ... .. . ... ... ... ... : ... .. . ... ... ... ... : ... .. . ... : ... .. . ... : ... .. . ...
ROW 4C : ... .. . ... ... ... ... : ... .. . ... ... ... ... : ... .. . ... : ... .. . ... : ... .. . ...
ROW 4D : ... .. . ... ... ... ... : ... .. . ... ... ... ... : ... .. . ... : ... .. . ... : ... .. . ...
ROW 4E : ... .. . ... ... ... ... : ... .. . ... ... ... ... : ... .. . ... : ... .. . ... : ... .. . ...
ROW 4F : ... .. . ... ... ... ... : ... .. . ... ... ... ... : ... .. . ... : ... .. . ... : ... .. . ...
ROW 50 : ... .. . ... ... ... ... : ... .. . ... ... ... ... : ... .. . ... : ... .. . ... : ... .. . ...
ROW 51 : ... .. . ... ... ... ... : ... .. . ... ... ... ... : ... .. . ... : ... .. . ... : ... .. . ...
ROW 52 : ... .. . ... ... ... ... : ... .. . ... ... ... ... : ... .. . ... : ... .. . ... : ... .. . ...
ROW 53 : ... .. . ... ... ... ... : ... .. . ... ... ... ... : ... .. . ... : ... .. . ... : ... .. . ...
ROW 54 : ... .. . ... ... ... P7F : A#2 00 5 ... ... ... ... : D-4 00 . ... : ... .. . ... : ... .. . ...
ROW 55 : ... .. . ... ... ... P7E : ... .. . ... ... ... ... : ... .. . ... : ... .. . ... : ... .. . ...
ROW 56 : ... .. . ... ... ... P7D : ... .. . ... ... ... ... : ... .. . ... : ... .. . ... : ... .. . ...
ROW 57 : ... .. . ... ... ... P7E : ... .. . ... ... ... ... : ... .. . ... : ... .. . ... : ... .. . ...
ROW 58 : ... .. . ... ... ... P7F : ... .. . ... ... ... ... : ... .. . ... : ... .. . ... : ... .. . ...
ROW 59 : ... .. . ... ... ... P80 : ... .. . ... ... ... ... : ... .. . ... : ... .. . ... : ... .. . ...
ROW 5A : ... .. . ... ... ... P81 : ... .. . ... ... ... ... : ... .. . ... : ... .. . ... : ... .. . ...
ROW 5B : ... .. . ... ... ... P82 : ... .. . ... ... ... ... : ... .. . ... : ... .. . ... : ... .. . ...
ROW 5C : ... .. 3 ... ... ... P83 : ... .. . ... ... ... ... : ... .. . ... : ... .. . ... : ... .. . ...
ROW 5D : ... .. . ... ... ... P82 : ... .. . ... ... ... ... : ... .. . ... : ... .. . ... : ... .. . ...
ROW 5E : ... .. 2 ... ... ... P81 : ... .. . ... ... ... ... : ... .. . ... : ... .. . ... : ... .. . ...
ROW 5F : ... .. . ... ... ... P80 : ... .. . ... ... ... ... : ... .. . ... : ... .. . ... : ... .. . ...
ROW 60 : ... .. 1 ... ... ... P7F : ... .. . ... ... ... ... : ... .. . ... : ... .. . ... : ... .. . ...
ROW 61 : ... .. . ... ... ... P7E : ... .. . ... ... ... ... : ... .. . ... : ... .. . ... : ... .. . ...
ROW 62 : F-3 00 6 ... ... ... P80 : C-3 00 1 ... ... ... ... : --- .. . ... : ... .. . ... : ... .. . ...
ROW 63 : ... .. . ... ... ... ... : ... .. . ... ... ... ... : ... .. . ... : ... .. . ... : ... .. . ...
ROW 64 : ... .. 5 ... ... ... ... : ... .. . ... ... ... ... : ... .. . ... : ... .. . ... : ... .. . ...
ROW 65 : ... .. . ... ... ... ... : ... .. . ... ... ... ... : ... .. . ... : ... .. . ... : ... .. . ...
ROW 66 : ... .. 4 ... ... ... ... : ... .. . ... ... ... ... : ... .. . ... : ... .. . ... : ... .. . ...
ROW 67 : ... .. . ... ... ... ... : ... .. . ... ... ... ... : ... .. . ... : ... .. . ... : ... .. . ...
ROW 68 : ... .. 3 ... ... ... ... : ... .. . ... ... ... ... : ... .. . ... : ... .. . ... : ... .. . ...
ROW 69 : G-3 00 6 ... ... ... ... : F-3 00 2 V01 ... ... P7F : ... .. . ... : ... .. . ... : ... .. . ...
ROW 6A : ... .. . ... ... ... ... : ... .. . ... ... ... ... : ... .. . ... : ... .. . ... : ... .. . ...
ROW 6B : ... .. 5 ... ... ... ... : ... .. . ... ... ... ... : ... .. . ... : ... .. . ... : ... .. . ...
ROW 6C : ... .. . ... ... ... ... : ... .. . ... ... ... ... : ... .. . ... : ... .. . ... : ... .. . ...
ROW 6D : ... .. 4 ... ... ... ... : ... .. 1 ... ... ... ... : ... .. . ... : ... .. . ... : ... .. . ...
ROW 6E : F-3 00 1 ... ... ... ... : ... .. . ... ... ... ... : ... .. . ... : ... .. . ... : ... .. . ...
ROW 6F : ... .. . ... ... ... ... : ... .. . ... ... ... ... : ... .. . ... : ... .. . ... : ... .. . ...
ROW 70 : G#3 00 6 ... ... ... ... : G-3 00 2 ... ... ... ... : C#3 00 . ... : ... .. . ... : ... .. . ...
ROW 71 : ... .. . ... ... ... ... : ... .. . ... ... ... ... : ... .. . ... : ... .. . ... : ... .. . ...
ROW 72 : ... .. 5 ... ... ... ... : ... .. . ... ... ... ... : ... .. . ... : ... .. . ... : ... .. . ...
ROW 73 : ... .. . ... ... ... ... : ... .. . ... ... ... ... : ... .. . ... : ... .. . ... : ... .. . ...
ROW 74 : ... .. 4 ... ... ... ... : ... .. 1 ... ... ... ... : ... .. . ... : ... .. . ... : ... .. . ...
ROW 75 : ... .. . ... ... ... ... : ... .. . ... ... ... ... : ... .. . ... : ... .. . ... : ... .. . ...
ROW 76 : ... .. 3 ... ... ... ... : ... .. . ... ... ... ... : ... .. . ... : ... .. . ... : ... .. . ...
ROW 77 : ... .. . ... ... ... P81 : G#3 00 2 ... ... ... ... : ... .. . ... : ... .. . ... : ... .. . ...
ROW 78 : ... .. 2 ... ... ... ... : ... .. . ... ... ... ... : ... .. . ... : ... .. . ... : ... .. . ...
ROW 79 : ... .. . ... ... ... ... : ... .. . ... ... ... ... : ... .. . ... : ... .. . ... : ... .. . ...
ROW 7A : ... .. 1 ... ... ... P80 : ... .. . ... ... ... ... : ... .. . ... : ... .. . ... : ... .. . ...
ROW 7B : G-3 00 . ... ... ... ... : ... .. 1 ... ... ... ... : ... .. . ... : ... .. . ... : ... .. . ...
ROW 7C : ... .. . ... ... ... ... : ... .. . ... ... ... ... : ... .. . ... : ... .. . ... : ... .. . ...
ROW 7D : ... .. . ... ... ... ... : ... .. . ... ... ... ... : ... .. . ... : ... .. . ... : ... .. . ...
ROW 7E : F-3 00 6 ... ... ... ... : ... .. . ... ... ... P80 : ... .. . ... : ... .. . ... : ... .. . ...
ROW 7F : ... .. . ... ... ... ... : ... .. . ... ... ... ... : ... .. . ... : ... .. . ... : ... .. . ...
ROW 80 : ... .. 5 ... ... ... ... : ... .. . ... ... ... ... : ... .. . ... : ... .. . ... : ... .. . ...
ROW 81 : ... .. . ... ... ... ... : ... .. . ... ... ... P7F : ... .. . ... : ... .. . ... : ... .. . ...
ROW 82 : ... .. 4 ... ... ... ... : ... .. . ... ... ... ... : ... .. . ... : ... .. . ... : ... .. . ...
ROW 83 : ... .. . ... ... ... ... : ... .. . ... ... ... ... : ... .. . ... : ... .. . ... : ... .. . ...
ROW 84 : ... .. 3 ... ... ... ... : ... .. . ... ... ... ... : ... .. . ... : ... .. . ... : ... .. . ...
ROW 85 : ... .. . ... ... ... P81 : F-3 00 2 ... ... ... ... : ... .. . ... : ... .. . ... : ... .. . ...
ROW 86 : ... .. 2 ... ... ... ... : ... .. . ... ... ... ... : ... .. . ... : ... .. . ... : ... .. . ...
ROW 87 : ... .. . ... ... ... ... : ... .. . ... ... ... ... : ... .. . ... : ... .. . ... : ... .. . ...
ROW 88 : ... .. 1 ... ... ... P80 : ... .. . ... ... ... ... : ... .. . ... : ... .. . ... : ... .. . ...
ROW 89 : G#3 00 . ... ... ... ... : ... .. 1 ... ... ... ... : ... .. . ... : ... .. . ... : ... .. . ...
ROW 8A : ... .. . ... ... ... ... : ... .. . ... ... ... ... : ... .. . ... : ... .. . ... : ... .. . ...
ROW 8B : ... .. . ... ... ... ... : ... .. . ... ... ... ... : ... .. . ... : ... .. . ... : ... .. . ...
ROW 8C : G-3 00 6 ... ... ... ... : ... .. . ... ... ... P80 : D#3 00 . ... : ... .. . ... : ... .. . ...
ROW 8D : ... .. . ... ... ... ... : ... .. . ... ... ... ... : ... .. . ... : ... .. . ... : ... .. . ...
ROW 8E : ... .. 5 ... ... ... ... : ... .. . ... ... ... ... : ... .. . ... : ... .. . ... : ... .. . ...
ROW 8F : ... .. . ... ... ... ... : ... .. . ... ... ... P7F : ... .. . ... : ... .. . ... : ... .. . ...
ROW 90 : ... .. 4 ... ... ... ... : ... .. . ... ... ... ... : ... .. . ... : ... .. . ... : ... .. . ...
ROW 91 : ... .. . ... ... ... ... : ... .. . ... ... ... ... : ... .. . ... : ... .. . ... : ... .. . ...
ROW 92 : ... .. 3 ... ... ... ... : ... .. . ... ... ... ... : ... .. . ... : ... .. . ... : ... .. . ...
ROW 93 : ... .. . ... ... ... P81 : G-3 00 2 ... ... ... ... : ... .. . ... : ... .. . ... : ... .. . ...
ROW 94 : ... .. 2 ... ... ... ... : ... .. . ... ... ... ... : ... .. . ... : ... .. . ... : ... .. . ...
ROW 95 : ... .. . ... ... ... ... : ... .. . ... ... ... ... : ... .. . ... : ... .. . ... : ... .. . ...
ROW 96 : ... .. 1 ... ... ... P80 : ... .. . ... ... ... ... : ... .. . ... : ... .. . ... : ... .. . ...
ROW 97 : F-3 00 . ... ... ... ... : ... .. 1 ... ... ... ... : ... .. . ... : ... .. . ... : ... .. . ...
ROW 98 : ... .. . ... ... ... ... : ... .. . ... ... ... ... : ... .. . ... : ... .. . ... : ... .. . ...
ROW 99 : ... .. . ... ... ... ... : ... .. . ... ... ... ... : ... .. . ... : ... .. . ... : ... .. . ...
ROW 9A : A#3 00 6 ... ... ... ... : ... .. . ... ... ... P80 : ... .. . ... : ... .. . ... : ... .. . ...
ROW 9B : ... .. . ... ... ... ... : ... .. . ... ... ... ... : ... .. . ... : ... .. . ... : ... .. . ...
ROW 9C : ... .. 5 ... ... ... ... : ... .. . ... ... ... ... : ... .. . ... : ... .. . ... : ... .. . ...
ROW 9D : ... .. . ... ... ... ... : ... .. . ... ... ... P7F : ... .. . ... : ... .. . ... : ... .. . ...
ROW 9E : ... .. 4 ... ... ... ... : ... .. . ... ... ... ... : ... .. . ... : ... .. . ... : ... .. . ...
ROW 9F : ... .. . ... ... ... ... : ... .. . ... ... ... ... : ... .. . ... : ... .. . ... : ... .. . ...
ROW A0 : ... .. 3 ... ... ... ... : ... .. . ... ... ... ... : ... .. . ... : ... .. . ... : ... .. . ...
ROW A1 : ... .. . ... ... ... P81 : A#3 00 2 ... ... ... ... : ... .. . ... : ... .. . ... : ... .. . ...
ROW A2 : ... .. 2 ... ... ... ... : ... .. . ... ... ... ... : ... .. . ... : ... .. . ... : ... .. . ...
ROW A3 : ... .. . ... ... ... ... : ... .. . ... ... ... ... : ... .. . ... : ... .. . ... : ... .. . ...
ROW A4 : ... .. 1 ... ... ... P80 : ... .. . ... ... ... ... : ... .. . ... : ... .. . ... : ... .. . ...
ROW A5 : G-3 00 . ... ... ... ... : ... .. 1 ... ... ... ... : ... .. . ... : ... .. . ... : ... .. . ...
ROW A6 : ... .. . ... ... ... ... : ... .. . ... ... ... ... : ... .. . ... : ... .. . ... : ... .. . ...
ROW A7 : ... .. . ... ... ... ... : ... .. . ... ... ... ... : ... .. . ... : ... .. . ... : ... .. . ...
ROW A8 : D#3 00 6 ... ... ... ... : ... .. . ... ... ... P80 : G#2 00 . ... : ... .. . ... : ... .. . ...
ROW A9 : ... .. . ... ... ... ... : ... .. . ... ... ... ... : ... .. . ... : ... .. . ... : ... .. . ...
ROW AA : ... .. 5 ... ... ... ... : ... .. . ... ... ... ... : ... .. . ... : ... .. . ... : ... .. . ...
ROW AB : ... .. . ... ... ... ... : ... .. . ... ... ... P7F : ... .. . ... : ... .. . ... : ... .. . ...
ROW AC : ... .. 4 ... ... ... ... : ... .. . ... ... ... ... : ... .. . ... : ... .. . ... : ... .. . ...
ROW AD : ... .. . ... ... ... ... : ... .. . ... ... ... ... : ... .. . ... : ... .. . ... : ... .. . ...
ROW AE : ... .. . ... ... ... ... : ... .. . ... ... ... ... : ... .. . ... : ... .. . ... : ... .. . ...
ROW AF : ... .. . ... ... ... ... : D#3 00 2 ... ... ... ... : ... .. . ... : ... .. . ... : ... .. . ...
ROW B0 : ... .. . ... ... ... ... : ... .. . ... ... ... ... : ... .. . ... : ... .. . ... : ... .. . ...
ROW B1 : ... .. . ... ... ... ... : ... .. . ... ... ... ... : ... .. . ... : ... .. . ... : ... .. . ...
ROW B2 : ... .. . ... ... ... ... : ... .. . ... ... ... ... : ... .. . ... : ... .. . ... : ... .. . ...
ROW B3 : ... .. . ... ... ... ... : ... .. 1 ... ... ... ... : ... .. . ... : ... .. . ... : ... .. . ...
ROW B4 : ... .. . ... ... ... ... : ... .. . ... ... ... ... : ... .. . ... : ... .. . ... : ... .. . ...
ROW B5 : ... .. . ... ... ... ... : ... .. . ... ... ... ... : ... .. . ... : ... .. . ... : ... .. . ...
ROW B6 : ... .. . ... ... ... ... : A#2 00 5 V00 ... ... P80 : D-4 00 . ... : ... .. . ... : ... .. . ...
ROW B7 : ... .. . ... ... ... ... : ... .. . ... ... ... ... : ... .. . ... : ... .. . ... : ... .. . ...
ROW B8 : ... .. . ... ... ... ... : ... .. . ... ... ... ... : ... .. . ... : ... .. . ... : ... .. . ...
ROW B9 : ... .. . ... ... ... ... : ... .. . ... ... ... ... : ... .. . ... : ... .. . ... : ... .. . ...
ROW BA : ... .. . ... ... ... ... : ... .. . ... ... ... ... : ... .. . ... : ... .. . ... : ... .. . ...
ROW BB : ... .. . ... ... ... ... : ... .. . ... ... ... ... : ... .. . ... : ... .. . ... : ... .. . ...
ROW BC : ... .. . ... ... ... ... : ... .. . ... ... ... ... : ... .. . ... : ... .. . ... : ... .. . ...
ROW BD : ... .. . ... ... ... ... : ... .. . ... ... ... ... : ... .. . ... : ... .. . ... : ... .. . ...
ROW BE : ... .. . ... ... ... ... : ... .. . ... ... ... ... : ... .. . ... : ... .. . ... : ... .. . ...
ROW BF : ... .. . ... ... ... ... : ... .. . ... ... ... ... : ... .. . ... : ... .. . ... : ... .. . ...
ROW C0 : ... .. . ... ... ... ... : ... .. . ... ... ... ... : ... .. . ... : ... .. . ... : ... .. . ...
ROW C1 : ... .. . ... ... ... ... : ... .. . ... ... ... ... : ... .. . ... : ... .. . ... : ... .. . ...
ROW C2 : ... .. . ... ... ... ... : ... .. . ... ... ... ... : ... .. . ... : ... .. . ... : ... .. . ...
ROW C3 : ... .. . ... ... ... ... : ... .. . ... ... ... ... : ... .. . ... : ... .. . ... : ... .. . ...
ROW C4 : ... .. . ... ... ... P7F : G#2 00 5 ... ... ... ... : C-4 00 . ... : ... .. . ... : ... .. . ...
ROW C5 : ... .. . ... ... ... P7E : ... .. . ... ... ... ... : ... .. . ... : ... .. . ... : ... .. . ...
ROW C6 : ... .. . ... ... ... P7D : ... .. . ... ... ... ... : ... .. . ... : ... .. . ... : ... .. . ...
ROW C7 : ... .. . ... ... ... P7E : ... .. . ... ... ... ... : ... .. . ... : ... .. . ... : ... .. . ...
ROW C8 : ... .. . ... ... ... P7F : ... .. . ... ... ... ... : ... .. . ... : ... .. . ... : ... .. . ...
ROW C9 : ... .. . ... ... ... P80 : ... .. . ... ... ... ... : ... .. . ... : ... .. . ... : ... .. . ...
ROW CA : ... .. . ... ... ... P81 : ... .. . ... ... ... ... : ... .. . ... : ... .. . ... : ... .. . ...
ROW CB : ... .. . ... ... ... P82 : ... .. . ... ... ... ... : ... .. . ... : ... .. . ... : ... .. . ...
ROW CC : ... .. 3 ... ... ... P83 : ... .. . ... ... ... ... : ... .. . ... : ... .. . ... : ... .. . ...
ROW CD : ... .. . ... ... ... P82 : ... .. . ... ... ... ... : ... .. . ... : ... .. . ... : ... .. . ...
ROW CE : ... .. 2 ... ... ... P81 : ... .. . ... ... ... ... : ... .. . ... : ... .. . ... : ... .. . ...
ROW CF : ... .. . ... ... ... P80 : ... .. . ... ... ... ... : ... .. . ... : ... .. . ... : ... .. . ...
ROW D0 : ... .. 1 ... ... ... P7F : ... .. . ... ... ... ... : ... .. . ... : ... .. . ... : ... .. . ...
ROW D1 : ... .. . ... ... ... P7E : ... .. . ... ... ... ... : ... .. . ... : ... .. . ... : ... .. . ...
ROW D2 : D#3 00 6 ... ... ... P80 : A#2 00 1 ... ... ... ... : --- .. . ... : ... .. . ... : ... .. . ...
ROW D3 : ... .. . ... ... ... ... : ... .. . ... ... ... ... : ... .. . ... : ... .. . ... : ... .. . ...
ROW D4 : ... .. 5 ... ... ... ... : ... .. . ... ... ... ... : ... .. . ... : ... .. . ... : ... .. . ...
ROW D5 : ... .. . ... ... ... ... : ... .. . ... ... ... ... : ... .. . ... : ... .. . ... : ... .. . ...
ROW D6 : ... .. 4 ... ... ... ... : ... .. . ... ... ... ... : ... .. . ... : ... .. . ... : ... .. . ...
ROW D7 : ... .. . ... ... ... ... : ... .. . ... ... ... ... : ... .. . ... : ... .. . ... : ... .. . ...
ROW D8 : ... .. 3 ... ... ... ... : ... .. . ... ... ... ... : ... .. . ... : ... .. . ... : ... .. . ...
ROW D9 : F-3 00 6 ... ... ... ... : ... .. . ... ... ... ... : ... .. . ... : ... .. . ... : ... .. . ...
ROW DA : ... .. . ... ... ... ... : ... .. . ... ... ... ... : ... .. . ... : ... .. . ... : ... .. . ...
ROW DB : ... .. 5 ... ... ... ... : ... .. . ... ... ... ... : ... .. . ... : ... .. . ... : ... .. . ...
ROW DC : ... .. . ... ... ... ... : ... .. . ... ... ... ... : ... .. . ... : ... .. . ... : ... .. . ...
ROW DD : ... .. 4 ... ... ... ... : ... .. . ... ... ... ... : ... .. . ... : ... .. . ... : ... .. . ...
ROW DE : D#3 00 1 ... ... ... ... : ... .. . ... ... ... ... : ... .. . ... : ... .. . ... : ... .. . ...
ROW DF : ... .. . ... ... ... ... : ... .. . ... ... ... ... : ... .. . ... : ... .. . ... : ... .. . ...

PATTERN 03
ROW 00 : G-3 00 6 V01 ... ... ... : D#3 00 5 V02 ... ... ... : F-2 00 . ... : ... .. . ... : ... .. . ...
ROW 01 : ... .. . ... ... ... ... : ... .. . ... ... ... ... : ... .. . ... : ... .. . ... : ... .. . ...
ROW 02 : ... .. 5 ... ... ... ... : ... .. 4 ... ... ... ... : ... .. . ... : ... .. . ... : ... .. . ...
ROW 03 : ... .. . ... ... ... ... : ... .. . ... ... ... ... : ... .. . ... : ... .. . ... : ... .. . ...
ROW 04 : ... .. 4 ... ... ... ... : ... .. 3 ... ... ... ... : ... .. . ... : ... .. . ... : ... .. . ...
ROW 05 : ... .. . ... ... ... ... : ... .. . ... ... ... ... : ... .. . ... : ... .. . ... : ... .. . ...
ROW 06 : ... .. . ... ... ... ... : ... .. 2 ... ... ... ... : ... .. . ... : ... .. . ... : ... .. . ...
ROW 07 : ... .. . ... ... ... P81 : ... .. . ... ... ... P80 : ... .. . ... : ... .. . ... : ... .. . ...
ROW 08 : ... .. . ... ... ... ... : ... .. 1 ... ... ... ... : ... .. . ... : ... .. . ... : ... .. . ...
ROW 09 : ... .. . ... ... ... ... : ... .. . ... ... ... ... : ... .. . ... : ... .. . ... : ... .. . ...
ROW 0A : ... .. . ... ... ... P80 : ... .. . ... ... ... P7F : ... .. . ... : ... .. . ... : ... .. . ...
ROW 0B : ... .. . ... ... ... ... : ... .. . ... ... ... ... : ... .. . ... : ... .. . ... : ... .. . ...
ROW 0C : ... .. . ... ... ... ... : ... .. . ... ... ... ... : ... .. . ... : ... .. . ... : ... .. . ...
ROW 0D : ... .. . ... ... ... P7F : ... .. . ... ... ... ... : --- .. . ... : ... .. . ... : ... .. . ...
ROW 0E : ... .. . ... ... ... ... : D#3 00 2 ... ... ... ... : F-2 00 . S01 : ... .. . ... : ... .. . ...
ROW 0F : ... .. 3 ... ... ... ... : ... .. . ... ... ... ... : ... .. . ... : ... .. . ... : ... .. . ...
ROW 10 : ... .. . ... ... ... P80 : ... .. 1 ... ... ... ... : ... .. . ... : ... .. . ... : ... .. . ...
ROW 11 : ... .. 2 ... ... ... ... : ... .. . ... ... ... ... : ... .. . ... : ... .. . ... : ... .. . ...
ROW 12 : ... .. . ... ... ... ... : ... .. . ... ... ... ... : ... .. . ... : ... .. . ... : ... .. . ...
ROW 13 : F-3 00 1 ... ... ... ... : ... .. . ... ... ... ... : ... .. . ... : ... .. . ... : ... .. . ...
ROW 14 : ... .. . ... ... ... ... : ... .. . ... ... ... ... : ... .. . ... : ... .. . ... : ... .. . ...
ROW 15 : D#3 00 6 ... ... ... ... : ... .. . ... ... ... P80 : ... .. . ... : ... .. . ... : ... .. . ...
ROW 16 : ... .. . ... ... ... ... : ... .. . ... ... ... ... : ... .. . ... : ... .. . ... : ... .. . ...
ROW 17 : ... .. 5 ... ... ... ... : ... .. . ... ... ... ... : ... .. . ... : ... .. . ... : ... .. . ...
ROW 18 : ... .. . ... ... ... ... : ... .. . ... ... ... P7F : ... .. . ... : ... .. . ... : ... .. . ...
ROW 19 : ... .. 4 ... ... ... ... : ... .. . ... ... ... ... : ... .. . ... : ... .. . ... : ... .. . ...
ROW 1A : ... .. . ... ... ... ... : ... .. . ... ... ... ... : ... .. . ... : ... .. . ... : ... .. . ...
ROW 1B : ... .. 3 ... ... ... ... : ... .. . ... ... ... ... : ... .. . ... : ... .. . ... : ... .. . ...
ROW 1C : F-3 00 6 ... ... ... ... : D-3 00 5 ... ... ... ... : G-2 00 . ... : ... .. . ... : ... .. . ...
ROW 1D : ... .. . ... ... ... ... : ... .. . ... ... ... ... : ... .. . ... : ... .. . ... : ... .. . ...
ROW 1E : ... .. 5 ... ... ... ... : ... .. 4 ... ... ... ... : ... .. . ... : ... .. . ... : ... .. . ...
ROW 1F : ... .. . ... ... ... ... : ... .. . ... ... ... ... : ... .. . ... : ... .. . ... : ... .. . ...
ROW 20 : ... .. 4 ... ... ... ... : ... .. 3 ... ... ... ... : ... .. . ... : ... .. . ... : ... .. . ...
ROW 21 : ... .. . ... ... ... ... : ... .. . ... ... ... ... : ... .. . ... : ... .. . ... : ... .. . ...
ROW 22 : ... .. 3 ... ... ... ... : ... .. 2 ... ... ... ... : ... .. . ... : ... .. . ... : ... .. . ...
ROW 23 : ... .. . ... ... ... P80 : ... .. . ... ... ... P80 : ... .. . ... : ... .. . ... : ... .. . ...
ROW 24 : ... .. 2 ... ... ... ... : ... .. 1 ... ... ... ... : ... .. . ... : ... .. . ... : ... .. . ...
ROW 25 : ... .. . ... ... ... ... : ... .. . ... ... ... ... : ... .. . ... : ... .. . ... : ... .. . ...
ROW 26 : ... .. 1 ... ... ... P7F : ... .. . ... ... ... P7F : ... .. . ... : ... .. . ... : ... .. . ...
ROW 27 : D#3 00 . ... ... ... ... : ... .. . ... ... ... ... : ... .. . ... : ... .. . ... : ... .. . ...
ROW 28 : ... .. . ... ... ... ... : ... .. . ... ... ... ... : ... .. . ... : ... .. . ... : ... .. . ...
ROW 29 : ... .. . ... ... ... ... : ... .. . ... ... ... ... : --- .. . ... : ... .. . ... : ... .. . ...
ROW 2A : D-3 00 6 ... ... ... ... : ... .. 2 ... ... ... ... : G-2 00 . S01 : ... .. . ... : ... .. . ...
ROW 2B : ... .. . ... ... ... ... : ... .. . ... ... ... ... : ... .. . ... : ... .. . ... : ... .. . ...
ROW 2C : ... .. 5 ... ... ... ... : ... .. 1 ... ... ... ... : ... .. . ... : ... .. . ... : ... .. . ...
ROW 2D : ... .. . ... ... ... ... : ... .. . ... ... ... ... : ... .. . ... : ... .. . ... : ... .. . ...
ROW 2E : ... .. 4 ... ... ... ... : ... .. . ... ... ... ... : ... .. . ... : ... .. . ... : ... .. . ...
ROW 2F : ... .. . ... ... ... ... : ... .. . ... ... ... ... : ... .. . ... : ... .. . ... : ... .. . ...
ROW 30 : ... .. 3 ... ... ... ... : ... .. . ... ... ... ... : ... .. . ... : ... .. . ... : ... .. . ...
ROW 31 : ... .. . ... ... ... P80 : ... .. . ... ... ... P80 : ... .. . ... : ... .. . ... : ... .. . ...
ROW 32 : ... .. 2 ... ... ... ... : ... .. . ... ... ... ... : ... .. . ... : ... .. . ... : ... .. . ...
ROW 33 : ... .. . ... ... ... ... : ... .. . ... ... ... ... : ... .. . ... : ... .. . ... : ... .. . ...
ROW 34 : ... .. 1 ... ... ... P7F : ... .. . ... ... ... P7F : ... .. . ... : ... .. . ... : ... .. . ...
ROW 35 : F-3 00 . ... ... ... ... : ... .. . ... ... ... ... : ... .. . ... : ... .. . ... : ... .. . ...
ROW 36 : ... .. . ... ... ... ... : ... .. . ... ... ... ... : ... .. . ... : ... .. . ... : ... .. . ...
ROW 37 : ... .. . ... ... ... ... : ... .. . ... ... ... ... : ... .. . ... : ... .. . ... : ... .. . ...
ROW 38 : D#3 00 6 ... ... ... ... : C-3 00 5 ... ... ... ... : G#2 00 . ... : ... .. . ... : ... .. . ...
ROW 39 : ... .. . ... ... ... ... : ... .. . ... ... ... ... : ... .. . ... : ... .. . ... : ... .. . ...
ROW 3A : ... .. 5 ... ... ... ... : ... .. 4 ... ... ... ... : ... .. . ... : ... .. . ... : ... .. . ...
ROW 3B : ... .. . ... ... ... ... : ... .. . ... ... ... ... : ... .. . ... : ... .. . ... : ... .. . ...
ROW 3C : ... .. 4 ... ... ... ... : ... .. 3 ... ... ... ... : ... .. . ... : ... .. . ... : ... .. . ...
ROW 3D : ... .. . ... ... ... ... : ... .. . ... ... ... ... : ... .. . ... : ... .. . ... : ... .. . ...
ROW 3E : ... .. . ... ... ... ... : ... .. 2 ... ... ... ... : ... .. . ... : ... .. . ... : ... .. . ...
ROW 3F : ... .. . ... ... ... P81 : ... .. . ... ... ... P80 : ... .. . ... : ... .. . ... : ... .. . ...
ROW 40 : ... .. . ... ... ... ... : ... .. 1 ... ... ... ... : ... .. . ... : ... .. . ... : ... .. . ...
ROW 41 : ... .. . ... ... ... ... : ... .. . ... ... ... ... : ... .. . ... : ... .. . ... : ... .. . ...
ROW 42 : ... .. . ... ... ... P80 : ... .. . ... ... ... P7F : ... .. . ... : ... .. . ... : ... .. . ...
ROW 43 : ... .. . ... ... ... ... : ... .. . ... ... ... ... : ... .. . ... : ... .. . ... : ... .. . ...
ROW 44 : ... .. . ... ... ... ... : ... .. . ... ... ... ... : ... .. . ... : ... .. . ... : ... .. . ...
ROW 45 : ... .. . ... ... ... P7F : ... .. . ... ... ... ... : --- .. . ... : ... .. . ... : ... .. . ...
ROW 46 : ... .. . ... ... ... ... : ... .. 2 ... ... ... ... : G#2 00 . S01 : ... .. . ... : ... .. . ...
ROW 47 : ... .. . ... ... ... ... : ... .. . ... ... ... ... : ... .. . ... : ... .. . ... : ... .. . ...
ROW 48 : ... .. . ... ... ... P80 : ... .. 1 ... ... ... ... : ... .. . ... : ... .. . ... : ... .. . ...
ROW 49 : ... .. . ... ... ... ... : ... .. . ... ... ... ... : ... .. . ... : ... .. . ... : ... .. . ...
ROW 4A : ... .. . ... ... ... ... : ... .. . ... ... ... ... : ... .. . ... : ... .. . ... : ... .. . ...
ROW 4B : ... .. . ... ... ... P81 : ... .. . ... ... ... ... : ... .. . ... : ... .. . ... : ... .. . ...
ROW 4C : ... .. . ... ... ... ... : ... .. . ... ... ... ... : ... .. . ... : ... .. . ... : ... .. . ...
ROW 4D : ... .. . ... ... ... ... : ... .. . ... ... ... P80 : ... .. . ... : ... .. . ... : ... .. . ...
ROW 4E : ... .. 3 ... ... ... P80 : ... .. . ... ... ... ... : ... .. . ... : ... .. . ... : ... .. . ...
ROW 4F : ... .. . ... ... ... ... : ... .. . ... ... ... ... : ... .. . ... : ... .. . ... : ... .. . ...
ROW 50 : ... .. 2 ... ... ... ... : ... .. . ... ... ... P7F : ... .. . ... : ... .. . ... : ... .. . ...
ROW 51 : ... .. . ... ... ... P7F : ... .. . ... ... ... ... : ... .. . ... : ... .. . ... : ... .. . ...
ROW 52 : ... .. 1 ... ... ... ... : ... .. . ... ... ... ... : ... .. . ... : ... .. . ... : ... .. . ...
ROW 53 : ... .. . ... ... ... ... : ... .. . ... ... ... ... : --- .. . ... : ... .. . ... : ... .. . ...
ROW 54 : D-2 00 5 V02 ... ... P80 : B-2 00 5 ... ... ... ... : G-2 00 . ... : ... .. . ... : ... .. . ...
ROW 55 : ... .. . ... ... ... ... : ... .. . ... ... ... ... : ... .. . ... : ... .. . ... : ... .. . ...
ROW 56 : ... .. 4 ... ... ... ... : ... .. 4 ... ... ... ... : ... .. . ... : ... .. . ... : ... .. . ...
ROW 57 : ... .. . ... ... ... ... : ... .. . ... ... ... ... : ... .. . ... : ... .. . ... : ... .. . ...
ROW 58 : ... .. 3 ... ... ... ... : ... .. 3 ... ... ... ... : ... .. . ... : ... .. . ... : ... .. . ...
ROW 59 : ... .. . ... ... ... ... : ... .. . ... ... ... ... : ... .. . ... : ... .. . ... : ... .. . ...
ROW 5A : ... .. 2 ... ... ... ... : ... .. 2 ... ... ... ... : ... .. . ... : ... .. . ... : ... .. . ...
ROW 5B : ... .. . ... ... ... P80 : ... .. . ... ... ... P80 : ... .. . ... : ... .. . ... : ... .. . ...
ROW 5C : ... .. 1 ... ... ... ... : ... .. 1 ... ... ... ... : ... .. . ... : ... .. . ... : ... .. . ...
ROW 5D : ... .. . ... ... ... ... : ... .. . ... ... ... ... : ... .. . ... : ... .. . ... : ... .. . ...
ROW 5E : ... .. . ... ... ... P7F : ... .. . ... ... ... P7F : ... .. . ... : ... .. . ... : ... .. . ...
ROW 5F : ... .. . ... ... ... ... : ... .. . ... ... ... ... : ... .. . ... : ... .. . ... : ... .. . ...
ROW 60 : ... .. . ... ... ... ... : ... .. . ... ... ... ... : ... .. . ... : ... .. . ... : ... .. . ...
ROW 61 : ... .. . ... ... ... ... : ... .. . ... ... ... ... : --- .. . ... : ... .. . ... : ... .. . ...
ROW 62 : ... .. 2 ... ... ... ... : ... .. 2 ... ... ... ... : G-2 00 . S01 : ... .. . ... : ... .. . ...
ROW 63 : ... .. . ... ... ... ... : ... .. . ... ... ... ... : ... .. . ... : ... .. . ... : ... .. . ...
ROW 64 : ... .. 1 ... ... ... ... : ... .. 1 ... ... ... ... : ... .. . ... : ... .. . ... : ... .. . ...
ROW 65 : ... .. . ... ... ... ... : ... .. . ... ... ... ... : ... .. . ... : ... .. . ... : ... .. . ...
ROW 66 : ... .. . ... ... ... ... : ... .. . ... ... ... ... : ... .. . ... : ... .. . ... : ... .. . ...
ROW 67 : ... .. . ... ... ... ... : ... .. . ... ... ... ... : ... .. . ... : ... .. . ... : ... .. . ...
ROW 68 : ... .. . ... ... ... ... : ... .. . ... ... ... ... : ... .. . ... : ... .. . ... : ... .. . ...
ROW 69 : ... .. . ... ... ... P80 : ... .. . ... ... ... P80 : ... .. . ... : ... .. . ... : ... .. . ...
ROW 6A : ... .. . ... ... ... ... : ... .. . ... ... ... ... : ... .. . ... : ... .. . ... : ... .. . ...
ROW 6B : ... .. . ... ... ... ... : ... .. . ... ... ... ... : ... .. . ... : ... .. . ... : ... .. . ...
ROW 6C : ... .. . ... ... ... P7F : ... .. . ... ... ... P7F : ... .. . ... : ... .. . ... : ... .. . ...
ROW 6D : ... .. . ... ... ... ... : ... .. . ... ... ... ... : ... .. . ... : ... .. . ... : ... .. . ...
ROW 6E : ... .. . ... ... ... ... : ... .. . ... ... ... ... : ... .. . ... : ... .. . ... : ... .. . ...
ROW 6F : ... .. . ... ... ... ... : ... .. . ... ... ... D00 : ... .. . ... : ... .. . ... : ... .. . ...
ROW 70 : ... .. . ... ... ... ... : ... .. . ... ... ... ... : C-3 00 . ... : ... .. . ... : ... .. . ...
ROW 71 : ... .. . ... ... ... ... : ... .. . ... ... ... ... : ... .. . ... : ... .. . ... : ... .. . ...
ROW 72 : ... .. . ... ... ... ... : ... .. . ... ... ... ... : ... .. . ... : ... .. . ... : ... .. . ...
ROW 73 : ... .. . ... ... ... ... : ... .. . ... ... ... ... : ... .. . ... : ... .. . ... : ... .. . ...
ROW 74 : ... .. . ... ... ... ... : ... .. . ... ... ... ... : ... .. . ... : ... .. . ... : ... .. . ...
ROW 75 : ... .. . ... ... ... ... : ... .. . ... ... ... ... : ... .. . ... : ... .. . ... : ... .. . ...
ROW 76 : ... .. . ... ... ... ... : ... .. . ... ... ... ... : ... .. . ... : ... .. . ... : ... .. . ...
ROW 77 : ... .. . ... ... ... ... : ... .. . ... ... ... ... : ... .. . ... : ... .. . ... : ... .. . ...
ROW 78 : ... .. . ... ... ... ... : ... .. . ... ... ... ... : ... .. . ... : ... .. . ... : ... .. . ...
ROW 79 : ... .. . ... ... ... ... : ... .. . ... ... ... ... : ... .. . ... : ... .. . ... : ... .. . ...
ROW 7A : ... .. . ... ... ... ... : ... .. . ... ... ... ... : ... .. . ... : ... .. . ... : ... .. . ...
ROW 7B : ... .. . ... ... ... ... : ... .. . ... ... ... ... : ... .. . ... : ... .. . ... : ... .. . ...
ROW 7C : ... .. . ... ... ... ... : ... .. . ... ... ... ... : ... .. . ... : ... .. . ... : ... .. . ...
ROW 7D : ... .. . ... ... ... ... : ... .. . ... ... ... ... : ... .. . ... : ... .. . ... : ... .. . ...
ROW 7E : ... .. . ... ... ... ... : ... .. . ... ... ... ... : ... .. . ... : ... .. . ... : ... .. . ...
ROW 7F : ... .. . ... ... ... ... : ... .. . ... ... ... ... : ... .. . ... : ... .. . ... : ... .. . ...
ROW 80 : ... .. . ... ... ... ... : ... .. . ... ... ... ... : ... .. . ... : ... .. . ... : ... .. . ...
ROW 81 : ... .. . ... ... ... ... : ... .. . ... ... ... ... : ... .. . ... : ... .. . ... : ... .. . ...
ROW 82 : ... .. . ... ... ... ... : ... .. . ... ... ... ... : ... .. . ... : ... .. . ... : ... .. . ...
ROW 83 : ... .. . ... ... ... ... : ... .. . ... ... ... ... : ... .. . ... : ... .. . ... : ... .. . ...
ROW 84 : ... .. . ... ... ... ... : ... .. . ... ... ... ... : ... .. . ... : ... .. . ... : ... .. . ...
ROW 85 : ... .. . ... ... ... ... : ... .. . ... ... ... ... : ... .. . ... : ... .. . ... : ... .. . ...
ROW 86 : ... .. . ... ... ... ... : ... .. . ... ... ... ... : ... .. . ... : ... .. . ... : ... .. . ...
ROW 87 : ... .. . ... ... ... ... : ... .. . ... ... ... ... : ... .. . ... : ... .. . ... : ... .. . ...
ROW 88 : ... .. . ... ... ... ... : ... .. . ... ... ... ... : ... .. . ... : ... .. . ... : ... .. . ...
ROW 89 : ... .. . ... ... ... ... : ... .. . ... ... ... ... : ... .. . ... : ... .. . ... : ... .. . ...
ROW 8A : ... .. . ... ... ... ... : ... .. . ... ... ... ... : ... .. . ... : ... .. . ... : ... .. . ...
ROW 8B : ... .. . ... ... ... ... : ... .. . ... ... ... ... : ... .. . ... : ... .. . ... : ... .. . ...
ROW 8C : ... .. . ... ... ... ... : ... .. . ... ... ... ... : ... .. . ... : ... .. . ... : ... .. . ...
ROW 8D : ... .. . ... ... ... ... : ... .. . ... ... ... ... : ... .. . ... : ... .. . ... : ... .. . ...
ROW 8E : ... .. . ... ... ... ... : ... .. . ... ... ... ... : ... .. . ... : ... .. . ... : ... .. . ...
ROW 8F : ... .. . ... ... ... ... : ... .. . ... ... ... ... : ... .. . ... : ... .. . ... : ... .. . ...
ROW 90 : ... .. . ... ... ... ... : ... .. . ... ... ... ... : ... .. . ... : ... .. . ... : ... .. . ...
ROW 91 : ... .. . ... ... ... ... : ... .. . ... ... ... ... : ... .. . ... : ... .. . ... : ... .. . ...
ROW 92 : ... .. . ... ... ... ... : ... .. . ... ... ... ... : ... .. . ... : ... .. . ... : ... .. . ...
ROW 93 : ... .. . ... ... ... ... : ... .. . ... ... ... ... : ... .. . ... : ... .. . ... : ... .. . ...
ROW 94 : ... .. . ... ... ... ... : ... .. . ... ... ... ... : ... .. . ... : ... .. . ... : ... .. . ...
ROW 95 : ... .. . ... ... ... ... : ... .. . ... ... ... ... : ... .. . ... : ... .. . ... : ... .. . ...
ROW 96 : ... .. . ... ... ... ... : ... .. . ... ... ... ... : ... .. . ... : ... .. . ... : ... .. . ...
ROW 97 : ... .. . ... ... ... ... : ... .. . ... ... ... ... : ... .. . ... : ... .. . ... : ... .. . ...
ROW 98 : ... .. . ... ... ... ... : ... .. . ... ... ... ... : ... .. . ... : ... .. . ... : ... .. . ...
ROW 99 : ... .. . ... ... ... ... : ... .. . ... ... ... ... : ... .. . ... : ... .. . ... : ... .. . ...
ROW 9A : ... .. . ... ... ... ... : ... .. . ... ... ... ... : ... .. . ... : ... .. . ... : ... .. . ...
ROW 9B : ... .. . ... ... ... ... : ... .. . ... ... ... ... : ... .. . ... : ... .. . ... : ... .. . ...
ROW 9C : ... .. . ... ... ... ... : ... .. . ... ... ... ... : ... .. . ... : ... .. . ... : ... .. . ...
ROW 9D : ... .. . ... ... ... ... : ... .. . ... ... ... ... : ... .. . ... : ... .. . ... : ... .. . ...
ROW 9E : ... .. . ... ... ... ... : ... .. . ... ... ... ... : ... .. . ... : ... .. . ... : ... .. . ...
ROW 9F : ... .. . ... ... ... ... : ... .. . ... ... ... ... : ... .. . ... : ... .. . ... : ... .. . ...
ROW A0 : ... .. . ... ... ... ... : ... .. . ... ... ... ... : ... .. . ... : ... .. . ... : ... .. . ...
ROW A1 : ... .. . ... ... ... ... : ... .. . ... ... ... ... : ... .. . ... : ... .. . ... : ... .. . ...
ROW A2 : ... .. . ... ... ... ... : ... .. . ... ... ... ... : ... .. . ... : ... .. . ... : ... .. . ...
ROW A3 : ... .. . ... ... ... ... : ... .. . ... ... ... ... : ... .. . ... : ... .. . ... : ... .. . ...
ROW A4 : ... .. . ... ... ... ... : ... .. . ... ... ... ... : ... .. . ... : ... .. . ... : ... .. . ...
ROW A5 : ... .. . ... ... ... ... : ... .. . ... ... ... ... : ... .. . ... : ... .. . ... : ... .. . ...
ROW A6 : ... .. . ... ... ... ... : ... .. . ... ... ... ... : ... .. . ... : ... .. . ... : ... .. . ...
ROW A7 : ... .. . ... ... ... ... : ... .. . ... ... ... ... : ... .. . ... : ... .. . ... : ... .. . ...
ROW A8 : ... .. . ... ... ... ... : ... .. . ... ... ... ... : ... .. . ... : ... .. . ... : ... .. . ...
ROW A9 : ... .. . ... ... ... ... : ... .. . ... ... ... ... : ... .. . ... : ... .. . ... : ... .. . ...
ROW AA : ... .. . ... ... ... ... : ... .. . ... ... ... ... : ... .. . ... : ... .. . ... : ... .. . ...
ROW AB : ... .. . ... ... ... ... : ... .. . ... ... ... ... : ... .. . ... : ... .. . ... : ... .. . ...
ROW AC : ... .. . ... ... ... ... : ... .. . ... ... ... ... : ... .. . ... : ... .. . ... : ... .. . ...
ROW AD : ... .. . ... ... ... ... : ... .. . ... ... ... ... : ... .. . ... : ... .. . ... : ... .. . ...
ROW AE : ... .. . ... ... ... ... : ... .. . ... ... ... ... : ... .. . ... : ... .. . ... : ... .. . ...
ROW AF : ... .. . ... ... ... ... : ... .. . ... ... ... ... : ... .. . ... : ... .. . ... : ... .. . ...
ROW B0 : ... .. . ... ... ... ... : ... .. . ... ... ... ... : ... .. . ... : ... .. . ... : ... .. . ...
ROW B1 : ... .. . ... ... ... ... : ... .. . ... ... ... ... : ... .. . ... : ... .. . ... : ... .. . ...
ROW B2 : ... .. . ... ... ... ... : ... .. . ... ... ... ... : ... .. . ... : ... .. . ... : ... .. . ...
ROW B3 : ... .. . ... ... ... ... : ... .. . ... ... ... ... : ... .. . ... : ... .. . ... : ... .. . ...
ROW B4 : ... .. . ... ... ... ... : ... .. . ... ... ... ... : ... .. . ... : ... .. . ... : ... .. . ...
ROW B5 : ... .. . ... ... ... ... : ... .. . ... ... ... ... : ... .. . ... : ... .. . ... : ... .. . ...
ROW B6 : ... .. . ... ... ... ... : ... .. . ... ... ... ... : ... .. . ... : ... .. . ... : ... .. . ...
ROW B7 : ... .. . ... ... ... ... : ... .. . ... ... ... ... : ... .. . ... : ... .. . ... : ... .. . ...
ROW B8 : ... .. . ... ... ... ... : ... .. . ... ... ... ... : ... .. . ... : ... .. . ... : ... .. . ...
ROW B9 : ... .. . ... ... ... ... : ... .. . ... ... ... ... : ... .. . ... : ... .. . ... : ... .. . ...
ROW BA : ... .. . ... ... ... ... : ... .. . ... ... ... ... : ... .. . ... : ... .. . ... : ... .. . ...
ROW BB : ... .. . ... ... ... ... : ... .. . ... ... ... ... : ... .. . ... : ... .. . ... : ... .. . ...
ROW BC : ... .. . ... ... ... ... : ... .. . ... ... ... ... : ... .. . ... : ... .. . ... : ... .. . ...
ROW BD : ... .. . ... ... ... ... : ... .. . ... ... ... ... : ... .. . ... : ... .. . ... : ... .. . ...
ROW BE : ... .. . ... ... ... ... : ... .. . ... ... ... ... : ... .. . ... : ... .. . ... : ... .. . ...
ROW BF : ... .. . ... ... ... ... : ... .. . ... ... ... ... : ... .. . ... : ... .. . ... : ... .. . ...
ROW C0 : ... .. . ... ... ... ... : ... .. . ... ... ... ... : ... .. . ... : ... .. . ... : ... .. . ...
ROW C1 : ... .. . ... ... ... ... : ... .. . ... ... ... ... : ... .. . ... : ... .. . ... : ... .. . ...
ROW C2 : ... .. . ... ... ... ... : ... .. . ... ... ... ... : ... .. . ... : ... .. . ... : ... .. . ...
ROW C3 : ... .. . ... ... ... ... : ... .. . ... ... ... ... : ... .. . ... : ... .. . ... : ... .. . ...
ROW C4 : ... .. . ... ... ... ... : ... .. . ... ... ... ... : ... .. . ... : ... .. . ... : ... .. . ...
ROW C5 : ... .. . ... ... ... ... : ... .. . ... ... ... ... : ... .. . ... : ... .. . ... : ... .. . ...
ROW C6 : ... .. . ... ... ... ... : ... .. . ... ... ... ... : ... .. . ... : ... .. . ... : ... .. . ...
ROW C7 : ... .. . ... ... ... ... : ... .. . ... ... ... ... : ... .. . ... : ... .. . ... : ... .. . ...
ROW C8 : ... .. . ... ... ... ... : ... .. . ... ... ... ... : ... .. . ... : ... .. . ... : ... .. . ...
ROW C9 : ... .. . ... ... ... ... : ... .. . ... ... ... ... : ... .. . ... : ... .. . ... : ... .. . ...
ROW CA : ... .. . ... ... ... ... : ... .. . ... ... ... ... : ... .. . ... : ... .. . ... : ... .. . ...
ROW CB : ... .. . ... ... ... ... : ... .. . ... ... ... ... : ... .. . ... : ... .. . ... : ... .. . ...
ROW CC : ... .. . ... ... ... ... : ... .. . ... ... ... ... : ... .. . ... : ... .. . ... : ... .. . ...
ROW CD : ... .. . ... ... ... ... : ... .. . ... ... ... ... : ... .. . ... : ... .. . ... : ... .. . ...
ROW CE : ... .. . ... ... ... ... : ... .. . ... ... ... ... : ... .. . ... : ... .. . ... : ... .. . ...
ROW CF : ... .. . ... ... ... ... : ... .. . ... ... ... ... : ... .. . ... : ... .. . ... : ... .. . ...
ROW D0 : ... .. . ... ... ... ... : ... .. . ... ... ... ... : ... .. . ... : ... .. . ... : ... .. . ...
ROW D1 : ... .. . ... ... ... ... : ... .. . ... ... ... ... : ... .. . ... : ... .. . ... : ... .. . ...
ROW D2 : ... .. . ... ... ... ... : ... .. . ... ... ... ... : ... .. . ... : ... .. . ... : ... .. . ...
ROW D3 : ... .. . ... ... ... ... : ... .. . ... ... ... ... : ... .. . ... : ... .. . ... : ... .. . ...
ROW D4 : ... .. . ... ... ... ... : ... .. . ... ... ... ... : ... .. . ... : ... .. . ... : ... .. . ...
ROW D5 : ... .. . ... ... ... ... : ... .. . ... ... ... ... : ... .. . ... : ... .. . ... : ... .. . ...
ROW D6 : ... .. . ... ... ... ... : ... .. . ... ... ... ... : ... .. . ... : ... .. . ... : ... .. . ...
ROW D7 : ... .. . ... ... ... ... : ... .. . ... ... ... ... : ... .. . ... : ... .. . ... : ... .. . ...
ROW D8 : ... .. . ... ... ... ... : ... .. . ... ... ... ... : ... .. . ... : ... .. . ... : ... .. . ...
ROW D9 : ... .. . ... ... ... ... : ... .. . ... ... ... ... : ... .. . ... : ... .. . ... : ... .. . ...
ROW DA : ... .. 3 ... ... ... ... : ... .. 3 ... ... ... ... : ... .. . ... : ... .. . ... : ... .. . ...
ROW DB : ... .. . ... ... ... ... : ... .. . ... ... ... ... : ... .. . ... : ... .. . ... : ... .. . ...
ROW DC : ... .. 2 ... ... ... ... : ... .. 2 ... ... ... ... : ... .. . ... : ... .. . ... : ... .. . ...
ROW DD : ... .. . ... ... ... ... : ... .. . ... ... ... ... : ... .. . ... : ... .. . ... : ... .. . ...
ROW DE : ... .. 1 ... ... ... ... : ... .. 1 ... ... ... ... : ... .. . ... : ... .. . ... : ... .. . ...
ROW DF : ... .. . ... ... ... ... : ... .. . ... ... ... ... : --- .. . ... : ... .. . ... : ... .. . ...

PATTERN 04
ROW 00 : E-4 00 5 V00 ... ... ... : ... .. . ... ... ... ... : C-3 00 . ... : ... .. . ... : ... .. . ...
ROW 01 : ... .. . ... ... ... ... : D-4 00 5 V00 ... ... ... : ... .. . ... : ... .. . ... : ... .. . ...
ROW 02 : ... .. 4 ... ... ... ... : ... .. . ... ... ... ... : ... .. . ... : ... .. . ... : ... .. . ...
ROW 03 : ... .. . ... ... ... ... : ... .. 4 ... ... ... ... : ... .. . ... : ... .. . ... : ... .. . ...
ROW 04 : ... .. 3 ... ... ... ... : ... .. . ... ... ... ... : ... .. . ... : ... .. . ... : ... .. . ...
ROW 05 : ... .. . ... ... ... ... : ... .. 3 ... ... ... ... : ... .. . ... : ... .. . ... : ... .. . ...
ROW 06 : ... .. 2 ... ... ... ... : ... .. . ... ... ... ... : ... .. . ... : ... .. . ... : ... .. . ...
ROW 07 : ... .. . ... ... ... ... : ... .. 2 ... ... ... ... : ... .. . ... : ... .. . ... : ... .. . ...
ROW 08 : ... .. 1 ... ... ... ... : ... .. . ... ... ... ... : ... .. . ... : ... .. . ... : ... .. . ...
ROW 09 : ... .. . ... ... ... ... : ... .. 1 ... ... ... ... : ... .. . ... : ... .. . ... : ... .. . ...
ROW 0A : ... .. . ... ... ... ... : ... .. . ... ... ... ... : ... .. . ... : ... .. . ... : ... .. . ...
ROW 0B : ... .. . ... ... ... ... : ... .. . ... ... ... ... : ... .. . ... : ... .. . ... : ... .. . ...
ROW 0C : ... .. . ... ... ... ... : ... .. . ... ... ... ... : ... .. . ... : ... .. . ... : ... .. . ...
ROW 0D : ... .. . ... ... ... ... : ... .. . ... ... ... ... : ... .. . ... : ... .. . ... : ... .. . ...
ROW 0E : E-4 00 5 ... ... ... ... : ... .. . ... ... ... ... : ... .. . ... : ... .. . ... : ... .. . ...
ROW 0F : ... .. . ... ... ... ... : D-4 00 5 ... ... ... ... : ... .. . ... : ... .. . ... : ... .. . ...
ROW 10 : ... .. 4 ... ... ... ... : ... .. . ... ... ... ... : ... .. . ... : ... .. . ... : ... .. . ...
ROW 11 : ... .. . ... ... ... ... : ... .. 4 ... ... ... ... : ... .. . ... : ... .. . ... : ... .. . ...
ROW 12 : ... .. 3 ... ... ... ... : ... .. . ... ... ... ... : ... .. . ... : ... .. . ... : ... .. . ...
ROW 13 : ... .. . ... ... ... ... : ... .. 3 ... ... ... ... : ... .. . ... : ... .. . ... : ... .. . ...
ROW 14 : ... .. 2 ... ... ... ... : ... .. . ... ... ... ... : ... .. . ... : ... .. . ... : ... .. . ...
ROW 15 : ... .. . ... ... ... ... : ... .. 2 ... ... ... ... : ... .. . ... : ... .. . ... : ... .. . ...
ROW 16 : ... .. 1 ... ... ... ... : ... .. . ... ... ... ... : ... .. . ... : ... .. . ... : ... .. . ...
ROW 17 : ... .. . ... ... ... ... : ... .. 1 ... ... ... ... : ... .. . ... : ... .. . ... : ... .. . ...
ROW 18 : ... .. . ... ... ... ... : ... .. . ... ... ... ... : ... .. . ... : ... .. . ... : ... .. . ...
ROW 19 : ... .. . ... ... ... ... : ... .. . ... ... ... ... : ... .. . ... : ... .. . ... : ... .. . ...
ROW 1A : ... .. . ... ... ... ... : ... .. . ... ... ... ... : ... .. . ... : ... .. . ... : ... .. . ...
ROW 1B : ... .. . ... ... ... ... : ... .. . ... ... ... ... : ... .. . ... : ... .. . ... : ... .. . ...
ROW 1C : E-4 00 5 ... ... ... ... : ... .. . ... ... ... ... : ... .. . ... : ... .. . ... : ... .. . ...
ROW 1D : ... .. . ... ... ... ... : D-4 00 5 ... ... ... ... : ... .. . ... : ... .. . ... : ... .. . ...
ROW 1E : ... .. 4 ... ... ... ... : ... .. . ... ... ... ... : ... .. . ... : ... .. . ... : ... .. . ...
ROW 1F : ... .. . ... ... ... ... : ... .. 4 ... ... ... ... : ... .. . ... : ... .. . ... : ... .. . ...
ROW 20 : ... .. 3 ... ... ... ... : ... .. . ... ... ... ... : ... .. . ... : ... .. . ... : ... .. . ...
ROW 21 : ... .. . ... ... ... ... : ... .. 3 ... ... ... ... : ... .. . ... : ... .. . ... : ... .. . ...
ROW 22 : ... .. 2 ... ... ... ... : ... .. . ... ... ... ... : ... .. . ... : ... .. . ... : ... .. . ...
ROW 23 : ... .. . ... ... ... ... : ... .. 2 ... ... ... ... : ... .. . ... : ... .. . ... : ... .. . ...
ROW 24 : ... .. 1 ... ... ... ... : ... .. . ... ... ... ... : ... .. . ... : ... .. . ... : ... .. . ...
ROW 25 : ... .. . ... ... ... ... : ... .. 1 ... ... ... ... : ... .. . ... : ... .. . ... : ... .. . ...
ROW 26 : ... .. . ... ... ... ... : ... .. . ... ... ... ... : ... .. . ... : ... .. . ... : ... .. . ...
ROW 27 : ... .. . ... ... ... ... : ... .. . ... ... ... ... : ... .. . ... : ... .. . ... : ... .. . ...
ROW 28 : ... .. . ... ... ... ... : ... .. . ... ... ... ... : ... .. . ... : ... .. . ... : ... .. . ...
ROW 29 : ... .. . ... ... ... ... : ... .. . ... ... ... ... : ... .. . ... : ... .. . ... : ... .. . ...
ROW 2A : E-4 00 5 ... ... ... ... : ... .. . ... ... ... ... : A-3 00 . ... : ... .. . ... : ... .. . ...
ROW 2B : ... .. . ... ... ... ... : D-4 00 5 ... ... ... ... : ... .. . ... : ... .. . ... : ... .. . ...
ROW 2C : ... .. 4 ... ... ... ... : ... .. . ... ... ... ... : ... .. . ... : ... .. . ... : ... .. . ...
ROW 2D : ... .. . ... ... ... ... : ... .. 4 ... ... ... ... : ... .. . ... : ... .. . ... : ... .. . ...
ROW 2E : ... .. 3 ... ... ... ... : ... .. . ... ... ... ... : ... .. . ... : ... .. . ... : ... .. . ...
ROW 2F : ... .. . ... ... ... ... : ... .. 3 ... ... ... ... : ... .. . ... : ... .. . ... : ... .. . ...
ROW 30 : ... .. 2 ... ... ... ... : ... .. . ... ... ... ... : ... .. . ... : ... .. . ... : ... .. . ...
ROW 31 : ... .. . ... ... ... ... : ... .. 2 ... ... ... ... : ... .. . ... : ... .. . ... : ... .. . ...
ROW 32 : ... .. 1 ... ... ... ... : ... .. . ... ... ... ... : ... .. . ... : ... .. . ... : ... .. . ...
ROW 33 : ... .. . ... ... ... ... : ... .. 1 ... ... ... ... : ... .. . ... : ... .. . ... : ... .. . ...
ROW 34 : ... .. . ... ... ... ... : ... .. . ... ... ... ... : ... .. . ... : ... .. . ... : ... .. . ...
ROW 35 : ... .. . ... ... ... ... : ... .. . ... ... ... ... : ... .. . ... : ... .. . ... : ... .. . ...
ROW 36 : ... .. . ... ... ... ... : ... .. . ... ... ... ... : ... .. . ... : ... .. . ... : ... .. . ...
ROW 37 : ... .. . ... ... ... ... : ... .. . ... ... ... ... : ... .. . ... : ... .. . ... : ... .. . ...
ROW 38 : E-4 00 5 ... ... ... ... : ... .. . ... ... ... ... : G-3 00 . ... : ... .. . ... : ... .. . ...
ROW 39 : ... .. . ... ... ... ... : D-4 00 5 ... ... ... ... : ... .. . ... : ... .. . ... : ... .. . ...
ROW 3A : ... .. 4 ... ... ... ... : ... .. . ... ... ... ... : ... .. . ... : ... .. . ... : ... .. . ...
ROW 3B : ... .. . ... ... ... ... : ... .. 4 ... ... ... ... : ... .. . ... : ... .. . ... : ... .. . ...
ROW 3C : ... .. 3 ... ... ... ... : ... .. . ... ... ... ... : ... .. . ... : ... .. . ... : ... .. . ...
ROW 3D : ... .. . ... ... ... ... : ... .. 3 ... ... ... ... : ... .. . ... : ... .. . ... : ... .. . ...
ROW 3E : ... .. 2 ... ... ... ... : ... .. . ... ... ... ... : ... .. . ... : ... .. . ... : ... .. . ...
ROW 3F : ... .. . ... ... ... ... : ... .. 2 ... ... ... ... : ... .. . ... : ... .. . ... : ... .. . ...
ROW 40 : ... .. 1 ... ... ... ... : ... .. . ... ... ... ... : ... .. . ... : ... .. . ... : ... .. . ...
ROW 41 : ... .. . ... ... ... ... : ... .. 1 ... ... ... ... : ... .. . ... : ... .. . ... : ... .. . ...
ROW 42 : ... .. . ... ... ... ... : ... .. . ... ... ... ... : ... .. . ... : ... .. . ... : ... .. . ...
ROW 43 : ... .. . ... ... ... ... : ... .. . ... ... ... ... : ... .. . ... : ... .. . ... : ... .. . ...
ROW 44 : ... .. . ... ... ... ... : ... .. . ... ... ... ... : ... .. . ... : ... .. . ... : ... .. . ...
ROW 45 : ... .. . ... ... ... ... : ... .. . ... ... ... ... : ... .. . ... : ... .. . ... : ... .. . ...
ROW 46 : E-4 00 5 ... ... ... ... : ... .. . ... ... ... ... : ... .. . ... : ... .. . ... : ... .. . ...
ROW 47 : ... .. . ... ... ... ... : D-4 00 5 ... ... ... ... : ... .. . ... : ... .. . ... : ... .. . ...
ROW 48 : ... .. 4 ... ... ... ... : ... .. . ... ... ... ... : ... .. . ... : ... .. . ... : ... .. . ...
ROW 49 : ... .. . ... ... ... ... : ... .. 4 ... ... ... ... : ... .. . ... : ... .. . ... : ... .. . ...
ROW 4A : ... .. 3 ... ... ... ... : ... .. . ... ... ... ... : ... .. . ... : ... .. . ... : ... .. . ...
ROW 4B : ... .. . ... ... ... ... : ... .. 3 ... ... ... ... : ... .. . ... : ... .. . ... : ... .. . ...
ROW 4C : ... .. 2 ... ... ... ... : ... .. . ... ... ... ... : ... .. . ... : ... .. . ... : ... .. . ...
ROW 4D : ... .. . ... ... ... ... : ... .. 2 ... ... ... ... : ... .. . ... : ... .. . ... : ... .. . ...
ROW 4E : ... .. 1 ... ... ... ... : ... .. . ... ... ... ... : ... .. . ... : ... .. . ... : ... .. . ...
ROW 4F : ... .. . ... ... ... ... : ... .. 1 ... ... ... ... : ... .. . ... : ... .. . ... : ... .. . ...
ROW 50 : ... .. . ... ... ... ... : ... .. . ... ... ... ... : ... .. . ... : ... .. . ... : ... .. . ...
ROW 51 : ... .. . ... ... ... ... : ... .. . ... ... ... ... : ... .. . ... : ... .. . ... : ... .. . ...
ROW 52 : ... .. . ... ... ... ... : ... .. . ... ... ... ... : ... .. . ... : ... .. . ... : ... .. . ...
ROW 53 : ... .. . ... ... ... ... : ... .. . ... ... ... ... : ... .. . ... : ... .. . ... : ... .. . ...
ROW 54 : E-4 00 5 ... ... ... ... : ... .. . ... ... ... ... : ... .. . ... : ... .. . ... : ... .. . ...
ROW 55 : ... .. . ... ... ... ... : D-4 00 5 ... ... ... ... : ... .. . ... : ... .. . ... : ... .. . ...
ROW 56 : ... .. 4 ... ... ... ... : ... .. . ... ... ... ... : ... .. . ... : ... .. . ... : ... .. . ...
ROW 57 : ... .. . ... ... ... ... : ... .. 4 ... ... ... ... : ... .. . ... : ... .. . ... : ... .. . ...
ROW 58 : ... .. 3 ... ... ... ... : ... .. . ... ... ... ... : ... .. . ... : ... .. . ... : ... .. . ...
ROW 59 : ... .. . ... ... ... ... : ... .. 3 ... ... ... ... : ... .. . ... : ... .. . ... : ... .. . ...
ROW 5A : ... .. 2 ... ... ... ... : ... .. . ... ... ... ... : ... .. . ... : ... .. . ... : ... .. . ...
ROW 5B : ... .. . ... ... ... ... : ... .. 2 ... ... ... ... : ... .. . ... : ... .. . ... : ... .. . ...
ROW 5C : ... .. 1 ... ... ... ... : ... .. . ... ... ... ... : ... .. . ... : ... .. . ... : ... .. . ...
ROW 5D : ... .. . ... ... ... ... : ... .. 1 ... ... ... ... : ... .. . ... : ... .. . ... : ... .. . ...
ROW 5E : ... .. . ... ... ... ... : ... .. . ... ... ... ... : ... .. . ... : ... .. . ... : ... .. . ...
ROW 5F : ... .. . ... ... ... ... : ... .. . ... ... ... ... : ... .. . ... : ... .. . ... : ... .. . ...
ROW 60 : ... .. . ... ... ... ... : ... .. . ... ... ... ... : ... .. . ... : ... .. . ... : ... .. . ...
ROW 61 : ... .. . ... ... ... ... : ... .. . ... ... ... ... : ... .. . ... : ... .. . ... : ... .. . ...
ROW 62 : E-4 00 5 ... ... ... ... : ... .. . ... ... ... ... : F#3 00 . ... : ... .. . ... : ... .. . ...
ROW 63 : ... .. . ... ... ... ... : D-4 00 5 ... ... ... ... : ... .. . ... : ... .. . ... : ... .. . ...
ROW 64 : ... .. 4 ... ... ... ... : ... .. . ... ... ... ... : ... .. . ... : ... .. . ... : ... .. . ...
ROW 65 : ... .. . ... ... ... ... : ... .. 4 ... ... ... ... : ... .. . ... : ... .. . ... : ... .. . ...
ROW 66 : ... .. 3 ... ... ... ... : ... .. . ... ... ... ... : ... .. . ... : ... .. . ... : ... .. . ...
ROW 67 : ... .. . ... ... ... ... : ... .. 3 ... ... ... ... : ... .. . ... : ... .. . ... : ... .. . ...
ROW 68 : ... .. 2 ... ... ... ... : ... .. . ... ... ... ... : ... .. . ... : ... .. . ... : ... .. . ...
ROW 69 : ... .. . ... ... ... ... : ... .. 2 ... ... ... ... : ... .. . ... : ... .. . ... : ... .. . ...
ROW 6A : ... .. 1 ... ... ... ... : ... .. . ... ... ... ... : ... .. . ... : ... .. . ... : ... .. . ...
ROW 6B : ... .. . ... ... ... ... : ... .. 1 ... ... ... ... : ... .. . ... : ... .. . ... : ... .. . ...
ROW 6C : ... .. . ... ... ... ... : ... .. . ... ... ... ... : ... .. . ... : ... .. . ... : ... .. . ...
ROW 6D : ... .. . ... ... ... ... : ... .. . ... ... ... ... : ... .. . ... : ... .. . ... : ... .. . ...
ROW 6E : ... .. . ... ... ... ... : ... .. . ... ... ... ... : ... .. . ... : ... .. . ... : ... .. . ...
ROW 6F : ... .. . ... ... ... ... : ... .. . ... ... ... ... : ... .. . ... : ... .. . ... : ... .. . ...
ROW 70 : F-4 00 5 V00 ... ... ... : ... .. . ... ... ... ... : G-3 00 . ... : ... .. . ... : ... .. . ...
ROW 71 : ... .. . ... ... ... ... : C-4 00 5 V00 ... ... ... : ... .. . ... : ... .. . ... : ... .. . ...
ROW 72 : ... .. 4 ... ... ... ... : ... .. . ... ... ... ... : ... .. . ... : ... .. . ... : ... .. . ...
ROW 73 : ... .. . ... ... ... ... : ... .. 4 ... ... ... ... : ... .. . ... : ... .. . ... : ... .. . ...
ROW 74 : ... .. 3 ... ... ... ... : ... .. . ... ... ... ... : ... .. . ... : ... .. . ... : ... .. . ...
ROW 75 : ... .. . ... ... ... ... : ... .. 3 ... ... ... ... : ... .. . ... : ... .. . ... : ... .. . ...
ROW 76 : ... .. 2 ... ... ... ... : ... .. . ... ... ... ... : ... .. . ... : ... .. . ... : ... .. . ...
ROW 77 : ... .. . ... ... ... ... : ... .. 2 ... ... ... ... : ... .. . ... : ... .. . ... : ... .. . ...
ROW 78 : ... .. 1 ... ... ... ... : ... .. . ... ... ... ... : ... .. . ... : ... .. . ... : ... .. . ...
ROW 79 : ... .. . ... ... ... ... : ... .. 1 ... ... ... ... : ... .. . ... : ... .. . ... : ... .. . ...
ROW 7A : ... .. . ... ... ... ... : ... .. . ... ... ... ... : ... .. . ... : ... .. . ... : ... .. . ...
ROW 7B : ... .. . ... ... ... ... : ... .. . ... ... ... ... : ... .. . ... : ... .. . ... : ... .. . ...
ROW 7C : ... .. . ... ... ... ... : ... .. . ... ... ... ... : ... .. . ... : ... .. . ... : ... .. . ...
ROW 7D : ... .. . ... ... ... ... : ... .. . ... ... ... ... : ... .. . ... : ... .. . ... : ... .. . ...
ROW 7E : F-4 00 5 ... ... ... ... : ... .. . ... ... ... ... : ... .. . ... : ... .. . ... : ... .. . ...
ROW 7F : ... .. . ... ... ... ... : C-4 00 5 ... ... ... ... : ... .. . ... : ... .. . ... : ... .. . ...
ROW 80 : ... .. 4 ... ... ... ... : ... .. . ... ... ... ... : ... .. . ... : ... .. . ... : ... .. . ...
ROW 81 : ... .. . ... ... ... ... : ... .. 4 ... ... ... ... : ... .. . ... : ... .. . ... : ... .. . ...
ROW 82 : ... .. 3 ... ... ... ... : ... .. . ... ... ... ... : ... .. . ... : ... .. . ... : ... .. . ...
ROW 83 : ... .. . ... ... ... ... : ... .. 3 ... ... ... ... : ... .. . ... : ... .. . ... : ... .. . ...
ROW 84 : ... .. 2 ... ... ... ... : ... .. . ... ... ... ... : ... .. . ... : ... .. . ... : ... .. . ...
ROW 85 : ... .. . ... ... ... ... : ... .. 2 ... ... ... ... : ... .. . ... : ... .. . ... : ... .. . ...
ROW 86 : ... .. 1 ... ... ... ... : ... .. . ... ... ... ... : ... .. . ... : ... .. . ... : ... .. . ...
ROW 87 : ... .. . ... ... ... ... : ... .. 1 ... ... ... ... : ... .. . ... : ... .. . ... : ... .. . ...
ROW 88 : ... .. . ... ... ... ... : ... .. . ... ... ... ... : ... .. . ... : ... .. . ... : ... .. . ...
ROW 89 : ... .. . ... ... ... ... : ... .. . ... ... ... ... : ... .. . ... : ... .. . ... : ... .. . ...
ROW 8A : ... .. . ... ... ... ... : ... .. . ... ... ... ... : ... .. . ... : ... .. . ... : ... .. . ...
ROW 8B : ... .. . ... ... ... ... : ... .. . ... ... ... ... : ... .. . ... : ... .. . ... : ... .. . ...
ROW 8C : F-4 00 5 ... ... ... ... : ... .. . ... ... ... ... : ... .. . ... : ... .. . ... : ... .. . ...
ROW 8D : ... .. . ... ... ... ... : C-4 00 5 ... ... ... ... : ... .. . ... : ... .. . ... : ... .. . ...
ROW 8E : ... .. 4 ... ... ... ... : ... .. . ... ... ... ... : ... .. . ... : ... .. . ... : ... .. . ...
ROW 8F : ... .. . ... ... ... ... : ... .. 4 ... ... ... ... : ... .. . ... : ... .. . ... : ... .. . ...
ROW 90 : ... .. 3 ... ... ... ... : ... .. . ... ... ... ... : ... .. . ... : ... .. . ... : ... .. . ...
ROW 91 : ... .. . ... ... ... ... : ... .. 3 ... ... ... ... : ... .. . ... : ... .. . ... : ... .. . ...
ROW 92 : ... .. 2 ... ... ... ... : ... .. . ... ... ... ... : ... .. . ... : ... .. . ... : ... .. . ...
ROW 93 : ... .. . ... ... ... ... : ... .. 2 ... ... ... ... : ... .. . ... : ... .. . ... : ... .. . ...
ROW 94 : ... .. 1 ... ... ... ... : ... .. . ... ... ... ... : ... .. . ... : ... .. . ... : ... .. . ...
ROW 95 : ... .. . ... ... ... ... : ... .. 1 ... ... ... ... : ... .. . ... : ... .. . ... : ... .. . ...
ROW 96 : ... .. . ... ... ... ... : ... .. . ... ... ... ... : ... .. . ... : ... .. . ... : ... .. . ...
ROW 97 : ... .. . ... ... ... ... : ... .. . ... ... ... ... : ... .. . ... : ... .. . ... : ... .. . ...
ROW 98 : ... .. . ... ... ... ... : ... .. . ... ... ... ... : ... .. . ... : ... .. . ... : ... .. . ...
ROW 99 : ... .. . ... ... ... ... : ... .. . ... ... ... ... : ... .. . ... : ... .. . ... : ... .. . ...
ROW 9A : F-4 00 5 ... ... ... ... : ... .. . ... ... ... ... : ... .. . ... : ... .. . ... : ... .. . ...
ROW 9B : ... .. . ... ... ... ... : C-4 00 5 ... ... ... ... : ... .. . ... : ... .. . ... : ... .. . ...
ROW 9C : ... .. 4 ... ... ... ... : ... .. . ... ... ... ... : ... .. . ... : ... .. . ... : ... .. . ...
ROW 9D : ... .. . ... ... ... ... : ... .. 4 ... ... ... ... : ... .. . ... : ... .. . ... : ... .. . ...
ROW 9E : ... .. 3 ... ... ... ... : ... .. . ... ... ... ... : ... .. . ... : ... .. . ... : ... .. . ...
ROW 9F : ... .. . ... ... ... ... : ... .. 3 ... ... ... ... : ... .. . ... : ... .. . ... : ... .. . ...
ROW A0 : ... .. 2 ... ... ... ... : ... .. . ... ... ... ... : ... .. . ... : ... .. . ... : ... .. . ...
ROW A1 : ... .. . ... ... ... ... : ... .. 2 ... ... ... ... : ... .. . ... : ... .. . ... : ... .. . ...
ROW A2 : ... .. 1 ... ... ... ... : ... .. . ... ... ... ... : ... .. . ... : ... .. . ... : ... .. . ...
ROW A3 : ... .. . ... ... ... ... : ... .. 1 ... ... ... ... : ... .. . ... : ... .. . ... : ... .. . ...
ROW A4 : ... .. . ... ... ... ... : ... .. . ... ... ... ... : ... .. . ... : ... .. . ... : ... .. . ...
ROW A5 : ... .. . ... ... ... ... : ... .. . ... ... ... ... : ... .. . ... : ... .. . ... : ... .. . ...
ROW A6 : ... .. . ... ... ... ... : ... .. . ... ... ... ... : ... .. . ... : ... .. . ... : ... .. . ...
ROW A7 : ... .. . ... ... ... ... : ... .. . ... ... ... ... : ... .. . ... : ... .. . ... : ... .. . ...
ROW A8 : F-4 00 5 ... ... ... ... : ... .. . ... ... ... ... : D-3 00 . ... : ... .. . ... : ... .. . ...
ROW A9 : ... .. . ... ... ... ... : B-3 00 5 ... ... ... ... : ... .. . ... : ... .. . ... : ... .. . ...
ROW AA : ... .. 4 ... ... ... ... : ... .. . ... ... ... ... : ... .. . ... : ... .. . ... : ... .. . ...
ROW AB : ... .. . ... ... ... ... : ... .. 4 ... ... ... ... : ... .. . ... : ... .. . ... : ... .. . ...
ROW AC : ... .. 3 ... ... ... ... : ... .. . ... ... ... ... : ... .. . ... : ... .. . ... : ... .. . ...
ROW AD : ... .. . ... ... ... ... : ... .. 3 ... ... ... ... : ... .. . ... : ... .. . ... : ... .. . ...
ROW AE : ... .. 2 ... ... ... ... : ... .. . ... ... ... ... : ... .. . ... : ... .. . ... : ... .. . ...
ROW AF : ... .. . ... ... ... ... : ... .. 2 ... ... ... ... : ... .. . ... : ... .. . ... : ... .. . ...
ROW B0 : ... .. 1 ... ... ... ... : ... .. . ... ... ... ... : ... .. . ... : ... .. . ... : ... .. . ...
ROW B1 : ... .. . ... ... ... ... : ... .. 1 ... ... ... ... : ... .. . ... : ... .. . ... : ... .. . ...
ROW B2 : ... .. . ... ... ... ... : ... .. . ... ... ... ... : ... .. . ... : ... .. . ... : ... .. . ...
ROW B3 : ... .. . ... ... ... ... : ... .. . ... ... ... ... : ... .. . ... : ... .. . ... : ... .. . ...
ROW B4 : ... .. . ... ... ... ... : ... .. . ... ... ... ... : ... .. . ... : ... .. . ... : ... .. . ...
ROW B5 : ... .. . ... ... ... ... : ... .. . ... ... ... ... : ... .. . ... : ... .. . ... : ... .. . ...
ROW B6 : F-4 00 5 ... ... ... ... : D-4 00 5 V01 ... ... ... : ... .. . ... : ... .. . ... : ... .. . ...
ROW B7 : ... .. . ... ... ... ... : ... .. . ... ... ... ... : ... .. . ... : ... .. . ... : ... .. . ...
ROW B8 : ... .. 4 ... ... ... ... : ... .. . ... ... ... ... : ... .. . ... : ... .. . ... : ... .. . ...
ROW B9 : ... .. . ... ... ... ... : ... .. . ... ... ... ... : ... .. . ... : ... .. . ... : ... .. . ...
ROW BA : ... .. 3 ... ... ... ... : ... .. . ... ... ... ... : ... .. . ... : ... .. . ... : ... .. . ...
ROW BB : ... .. . ... ... ... ... : ... .. 1 ... ... ... ... : ... .. . ... : ... .. . ... : ... .. . ...
ROW BC : ... .. 2 ... ... ... ... : ... .. . ... ... ... ... : ... .. . ... : ... .. . ... : ... .. . ...
ROW BD : ... .. . ... ... ... ... : E-4 00 5 ... ... ... ... : ... .. . ... : ... .. . ... : ... .. . ...
ROW BE : ... .. 1 ... ... ... ... : ... .. . ... ... ... ... : ... .. . ... : ... .. . ... : ... .. . ...
ROW BF : ... .. . ... ... ... ... : ... .. . ... ... ... ... : ... .. . ... : ... .. . ... : ... .. . ...
ROW C0 : ... .. . ... ... ... ... : ... .. . ... ... ... ... : ... .. . ... : ... .. . ... : ... .. . ...
ROW C1 : ... .. . ... ... ... ... : ... .. . ... ... ... ... : ... .. . ... : ... .. . ... : ... .. . ...
ROW C2 : ... .. . ... ... ... ... : D-4 00 1 ... ... ... ... : ... .. . ... : ... .. . ... : ... .. . ...
ROW C3 : ... .. . ... ... ... ... : ... .. . ... ... ... ... : ... .. . ... : ... .. . ... : ... .. . ...
ROW C4 : F-4 00 5 ... ... ... ... : F-4 00 5 ... ... ... ... : ... .. . ... : ... .. . ... : ... .. . ...
ROW C5 : ... .. . ... ... ... ... : ... .. . ... ... ... ... : ... .. . ... : ... .. . ... : ... .. . ...
ROW C6 : ... .. 4 ... ... ... ... : ... .. . ... ... ... ... : ... .. . ... : ... .. . ... : ... .. . ...
ROW C7 : ... .. . ... ... ... ... : ... .. . ... ... ... ... : ... .. . ... : ... .. . ... : ... .. . ...
ROW C8 : ... .. 3 ... ... ... ... : ... .. . ... ... ... ... : ... .. . ... : ... .. . ... : ... .. . ...
ROW C9 : ... .. . ... ... ... ... : ... .. . ... ... ... ... : ... .. . ... : ... .. . ... : ... .. . ...
ROW CA : ... .. 2 ... ... ... ... : ... .. . ... ... ... ... : ... .. . ... : ... .. . ... : ... .. . ...
ROW CB : ... .. . ... ... ... ... : ... .. . ... ... ... P81 : ... .. . ... : ... .. . ... : ... .. . ...
ROW CC : ... .. 1 ... ... ... ... : ... .. . ... ... ... ... : ... .. . ... : ... .. . ... : ... .. . ...
ROW CD : ... .. . ... ... ... ... : ... .. . ... ... ... ... : ... .. . ... : ... .. . ... : ... .. . ...
ROW CE : ... .. . ... ... ... ... : ... .. . ... ... ... P80 : ... .. . ... : ... .. . ... : ... .. . ...
ROW CF : ... .. . ... ... ... ... : E-4 00 1 ... ... ... ... : ... .. . ... : ... .. . ... : ... .. . ...
ROW D0 : ... .. . ... ... ... ... : ... .. . ... ... ... P80 : ... .. . ... : ... .. . ... : ... .. . ...
ROW D1 : ... .. . ... ... ... ... : ... .. . ... ... ... ... : ... .. . ... : ... .. . ... : ... .. . ...
ROW D2 : F-4 00 5 ... ... ... ... : A-4 00 5 ... ... ... ... : ... .. . ... : ... .. . ... : ... .. . ...
ROW D3 : ... .. . ... ... ... ... : ... .. . ... ... ... ... : ... .. . ... : ... .. . ... : ... .. . ...
ROW D4 : ... .. 4 ... ... ... ... : ... .. . ... ... ... ... : ... .. . ... : ... .. . ... : ... .. . ...
ROW D5 : ... .. . ... ... ... ... : ... .. . ... ... ... ... : ... .. . ... : ... .. . ... : ... .. . ...
ROW D6 : ... .. 3 ... ... ... ... : ... .. . ... ... ... ... : ... .. . ... : ... .. . ... : ... .. . ...
ROW D7 : ... .. . ... ... ... ... : ... .. . ... ... ... ... : ... .. . ... : ... .. . ... : ... .. . ...
ROW D8 : ... .. 2 ... ... ... ... : ... .. . ... ... ... ... : ... .. . ... : ... .. . ... : ... .. . ...
ROW D9 : ... .. . ... ... ... ... : ... .. . ... ... ... ... : ... .. . ... : ... .. . ... : ... .. . ...
ROW DA : ... .. 1 ... ... ... ... : ... .. . ... ... ... ... : ... .. . ... : ... .. . ... : ... .. . ...
ROW DB : ... .. . ... ... ... ... : ... .. . ... ... ... ... : ... .. . ... : ... .. . ... : ... .. . ...
ROW DC : ... .. . ... ... ... ... : ... .. . ... ... ... ... : ... .. . ... : ... .. . ... : ... .. . ...
ROW DD : ... .. . ... ... ... ... : ... .. . ... ... ... ... : ... .. . ... : ... .. . ... : ... .. . ...
ROW DE : ... .. . ... ... ... ... : F-4 00 1 ... ... ... ... : ... .. . ... : ... .. . ... : ... .. . ...
ROW DF : ... .. . ... ... ... ... : ... .. . ... ... ... ... : ... .. . ... : ... .. . ... : ... .. . ...

PATTERN 05
ROW 00 : E-4 00 5 V00 ... ... ... : G-4 00 5 V01 ... ... ... : C-3 00 . ... : ... .. . ... : ... .. . ...
ROW 01 : ... .. . ... ... ... ... : ... .. . ... ... ... ... : ... .. . ... : ... .. . ... : ... .. . ...
ROW 02 : ... .. 4 ... ... ... ... : ... .. . ... ... ... ... : ... .. . ... : ... .. . ... : ... .. . ...
ROW 03 : ... .. . ... ... ... ... : ... .. . ... ... ... ... : ... .. . ... : ... .. . ... : ... .. . ...
ROW 04 : ... .. 3 ... ... ... ... : ... .. . ... ... ... ... : ... .. . ... : ... .. . ... : ... .. . ...
ROW 05 : ... .. . ... ... ... ... : ... .. . ... ... ... ... : ... .. . ... : ... .. . ... : ... .. . ...
ROW 06 : ... .. 2 ... ... ... ... : ... .. . ... ... ... ... : ... .. . ... : ... .. . ... : ... .. . ...
ROW 07 : ... .. . ... ... ... ... : ... .. . ... ... ... P81 : ... .. . ... : ... .. . ... : ... .. . ...
ROW 08 : ... .. 1 ... ... ... ... : ... .. . ... ... ... ... : ... .. . ... : ... .. . ... : ... .. . ...
ROW 09 : ... .. . ... ... ... ... : ... .. . ... ... ... ... : ... .. . ... : ... .. . ... : ... .. . ...
ROW 0A : ... .. . ... ... ... ... : ... .. . ... ... ... P80 : ... .. . ... : ... .. . ... : ... .. . ...
ROW 0B : ... .. . ... ... ... ... : ... .. . ... ... ... ... : ... .. . ... : ... .. . ... : ... .. . ...
ROW 0C : ... .. . ... ... ... ... : ... .. . ... ... ... P80 : ... .. . ... : ... .. . ... : ... .. . ...
ROW 0D : ... .. . ... ... ... ... : ... .. . ... ... ... ... : ... .. . ... : ... .. . ... : ... .. . ...
ROW 0E : E-4 00 5 ... ... ... ... : ... .. . ... ... ... ... : ... .. . ... : ... .. . ... : ... .. . ...
ROW 0F : ... .. . ... ... ... ... : D-4 00 5 V00 ... ... ... : ... .. . ... : ... .. . ... : ... .. . ...
ROW 10 : ... .. 4 ... ... ... ... : ... .. . ... ... ... ... : ... .. . ... : ... .. . ... : ... .. . ...
ROW 11 : ... .. . ... ... ... ... : ... .. 4 ... ... ... ... : ... .. . ... : ... .. . ... : ... .. . ...
ROW 12 : ... .. 3 ... ... ... ... : ... .. . ... ... ... ... : ... .. . ... : ... .. . ... : ... .. . ...
ROW 13 : ... .. . ... ... ... ... : ... .. 3 ... ... ... ... : ... .. . ... : ... .. . ... : ... .. . ...
ROW 14 : ... .. 2 ... ... ... ... : ... .. . ... ... ... ... : ... .. . ... : ... .. . ... : ... .. . ...
ROW 15 : ... .. . ... ... ... ... : ... .. 2 ... ... ... ... : ... .. . ... : ... .. . ... : ... .. . ...
ROW 16 : ... .. 1 ... ... ... ... : ... .. . ... ... ... ... : ... .. . ... : ... .. . ... : ... .. . ...
ROW 17 : ... .. . ... ... ... ... : ... .. 1 ... ... ... ... : ... .. . ... : ... .. . ... : ... .. . ...
ROW 18 : ... .. . ... ... ... ... : ... .. . ... ... ... ... : ... .. . ... : ... .. . ... : ... .. . ...
ROW 19 : ... .. . ... ... ... ... : ... .. . ... ... ... ... : ... .. . ... : ... .. . ... : ... .. . ...
ROW 1A : ... .. . ... ... ... ... : ... .. . ... ... ... ... : ... .. . ... : ... .. . ... : ... .. . ...
ROW 1B : ... .. . ... ... ... ... : ... .. . ... ... ... ... : ... .. . ... : ... .. . ... : ... .. . ...
ROW 1C : E-4 00 5 ... ... ... ... : ... .. . ... ... ... ... : ... .. . ... : ... .. . ... : ... .. . ...
ROW 1D : ... .. . ... ... ... ... : D-4 00 5 ... ... ... ... : ... .. . ... : ... .. . ... : ... .. . ...
ROW 1E : ... .. 4 ... ... ... ... : ... .. . ... ... ... ... : ... .. . ... : ... .. . ... : ... .. . ...
ROW 1F : ... .. . ... ... ... ... : ... .. 4 ... ... ... ... : ... .. . ... : ... .. . ... : ... .. . ...
ROW 20 : ... .. 3 ... ... ... ... : ... .. . ... ... ... ... : ... .. . ... : ... .. . ... : ... .. . ...
ROW 21 : ... .. . ... ... ... ... : ... .. 3 ... ... ... ... : ... .. . ... : ... .. . ... : ... .. . ...
ROW 22 : ... .. 2 ... ... ... ... : ... .. . ... ... ... ... : ... .. . ... : ... .. . ... : ... .. . ...
ROW 23 : ... .. . ... ... ... ... : ... .. 2 ... ... ... ... : ... .. . ... : ... .. . ... : ... .. . ...
ROW 24 : ... .. 1 ... ... ... ... : ... .. . ... ... ... ... : ... .. . ... : ... .. . ... : ... .. . ...
ROW 25 : ... .. . ... ... ... ... : ... .. 1 ... ... ... ... : ... .. . ... : ... .. . ... : ... .. . ...
ROW 26 : ... .. . ... ... ... ... : ... .. . ... ... ... ... : ... .. . ... : ... .. . ... : ... .. . ...
ROW 27 : ... .. . ... ... ... ... : ... .. . ... ... ... ... : ... .. . ... : ... .. . ... : ... .. . ...
ROW 28 : ... .. . ... ... ... ... : ... .. . ... ... ... ... : ... .. . ... : ... .. . ... : ... .. . ...
ROW 29 : ... .. . ... ... ... ... : ... .. . ... ... ... ... : ... .. . ... : ... .. . ... : ... .. . ...
ROW 2A : E-4 00 5 ... ... ... ... : ... .. . ... ... ... ... : A-3 00 . ... : ... .. . ... : ... .. . ...
ROW 2B : ... .. . ... ... ... ... : D-4 00 5 ... ... ... ... : ... .. . ... : ... .. . ... : ... .. . ...
ROW 2C : ... .. 4 ... ... ... ... : ... .. . ... ... ... ... : ... .. . ... : ... .. . ... : ... .. . ...
ROW 2D : ... .. . ... ... ... ... : ... .. 4 ... ... ... ... : ... .. . ... : ... .. . ... : ... .. . ...
ROW 2E : ... .. 3 ... ... ... ... : ... .. . ... ... ... ... : ... .. . ... : ... .. . ... : ... .. . ...
ROW 2F : ... .. . ... ... ... ... : ... .. 3 ... ... ... ... : ... .. . ... : ... .. . ... : ... .. . ...
ROW 30 : ... .. 2 ... ... ... ... : ... .. . ... ... ... ... : ... .. . ... : ... .. . ... : ... .. . ...
ROW 31 : ... .. . ... ... ... ... : ... .. 2 ... ... ... ... : ... .. . ... : ... .. . ... : ... .. . ...
ROW 32 : ... .. 1 ... ... ... ... : ... .. . ... ... ... ... : ... .. . ... : ... .. . ... : ... .. . ...
ROW 33 : ... .. . ... ... ... ... : ... .. 1 ... ... ... ... : ... .. . ... : ... .. . ... : ... .. . ...
ROW 34 : ... .. . ... ... ... ... : ... .. . ... ... ... ... : ... .. . ... : ... .. . ... : ... .. . ...
ROW 35 : ... .. . ... ... ... ... : ... .. . ... ... ... ... : ... .. . ... : ... .. . ... : ... .. . ...
ROW 36 : ... .. . ... ... ... ... : ... .. . ... ... ... ... : ... .. . ... : ... .. . ... : ... .. . ...
ROW 37 : ... .. . ... ... ... ... : ... .. . ... ... ... ... : ... .. . ... : ... .. . ... : ... .. . ...
ROW 38 : E-4 00 5 ... ... ... ... : ... .. . ... ... ... ... : G-3 00 . ... : ... .. . ... : ... .. . ...
ROW 39 : ... .. . ... ... ... ... : D-4 00 5 ... ... ... ... : ... .. . ... : ... .. . ... : ... .. . ...
ROW 3A : ... .. 4 ... ... ... ... : ... .. . ... ... ... ... : ... .. . ... : ... .. . ... : ... .. . ...
ROW 3B : ... .. . ... ... ... ... : ... .. 4 ... ... ... ... : ... .. . ... : ... .. . ... : ... .. . ...
ROW 3C : ... .. 3 ... ... ... ... : ... .. . ... ... ... ... : ... .. . ... : ... .. . ... : ... .. . ...
ROW 3D : ... .. . ... ... ... ... : ... .. 3 ... ... ... ... : ... .. . ... : ... .. . ... : ... .. . ...
ROW 3E : ... .. 2 ... ... ... ... : ... .. . ... ... ... ... : ... .. . ... : ... .. . ... : ... .. . ...
ROW 3F : ... .. . ... ... ... ... : ... .. 2 ... ... ... ... : ... .. . ... : ... .. . ... : ... .. . ...
ROW 40 : ... .. 1 ... ... ... ... : ... .. . ... ... ... ... : ... .. . ... : ... .. . ... : ... .. . ...
ROW 41 : ... .. . ... ... ... ... : ... .. 1 ... ... ... ... : ... .. . ... : ... .. . ... : ... .. . ...
ROW 42 : ... .. . ... ... ... ... : ... .. . ... ... ... ... : ... .. . ... : ... .. . ... : ... .. . ...
ROW 43 : ... .. . ... ... ... ... : ... .. . ... ... ... ... : ... .. . ... : ... .. . ... : ... .. . ...
ROW 44 : ... .. . ... ... ... ... : ... .. . ... ... ... ... : ... .. . ... : ... .. . ... : ... .. . ...
ROW 45 : ... .. . ... ... ... ... : ... .. . ... ... ... ... : ... .. . ... : ... .. . ... : ... .. . ...
ROW 46 : E-4 00 5 ... ... ... ... : ... .. . ... ... ... ... : ... .. . ... : ... .. . ... : ... .. . ...
ROW 47 : ... .. . ... ... ... ... : D-4 00 5 ... ... ... ... : ... .. . ... : ... .. . ... : ... .. . ...
ROW 48 : ... .. 4 ... ... ... ... : ... .. . ... ... ... ... : ... .. . ... : ... .. . ... : ... .. . ...
ROW 49 : ... .. . ... ... ... ... : ... .. 4 ... ... ... ... : ... .. . ... : ... .. . ... : ... .. . ...
ROW 4A : ... .. 3 ... ... ... ... : ... .. . ... ... ... ... : ... .. . ... : ... .. . ... : ... .. . ...
ROW 4B : ... .. . ... ... ... ... : ... .. 3 ... ... ... ... : ... .. . ... : ... .. . ... : ... .. . ...
ROW 4C : ... .. 2 ... ... ... ... : ... .. . ... ... ... ... : ... .. . ... : ... .. . ... : ... .. . ...
ROW 4D : ... .. . ... ... ... ... : ... .. 2 ... ... ... ... : ... .. . ... : ... .. . ... : ... .. . ...
ROW 4E : ... .. 1 ... ... ... ... : ... .. . ... ... ... ... : ... .. . ... : ... .. . ... : ... .. . ...
ROW 4F : ... .. . ... ... ... ... : ... .. 1 ... ... ... ... : ... .. . ... : ... .. . ... : ... .. . ...
ROW 50 : ... .. . ... ... ... ... : ... .. . ... ... ... ... : ... .. . ... : ... .. . ... : ... .. . ...
ROW 51 : ... .. . ... ... ... ... : ... .. . ... ... ... ... : ... .. . ... : ... .. . ... : ... .. . ...
ROW 52 : ... .. . ... ... ... ... : ... .. . ... ... ... ... : ... .. . ... : ... .. . ... : ... .. . ...
ROW 53 : ... .. . ... ... ... ... : ... .. . ... ... ... ... : ... .. . ... : ... .. . ... : ... .. . ...
ROW 54 : E-4 00 5 ... ... ... ... : ... .. . ... ... ... ... : ... .. . ... : ... .. . ... : ... .. . ...
ROW 55 : ... .. . ... ... ... ... : D-4 00 5 ... ... ... ... : ... .. . ... : ... .. . ... : ... .. . ...
ROW 56 : ... .. 4 ... ... ... ... : ... .. . ... ... ... ... : ... .. . ... : ... .. . ... : ... .. . ...
ROW 57 : ... .. . ... ... ... ... : ... .. 4 ... ... ... ... : ... .. . ... : ... .. . ... : ... .. . ...
ROW 58 : ... .. 3 ... ... ... ... : ... .. . ... ... ... ... : ... .. . ... : ... .. . ... : ... .. . ...
ROW 59 : ... .. . ... ... ... ... : ... .. 3 ... ... ... ... : ... .. . ... : ... .. . ... : ... .. . ...
ROW 5A : ... .. 2 ... ... ... ... : ... .. . ... ... ... ... : ... .. . ... : ... .. . ... : ... .. . ...
ROW 5B : ... .. . ... ... ... ... : ... .. 2 ... ... ... ... : ... .. . ... : ... .. . ... : ... .. . ...
ROW 5C : ... .. 1 ... ... ... ... : ... .. . ... ... ... ... : ... .. . ... : ... .. . ... : ... .. . ...
ROW 5D : ... .. . ... ... ... ... : ... .. 1 ... ... ... ... : ... .. . ... : ... .. . ... : ... .. . ...
ROW 5E : ... .. . ... ... ... ... : ... .. . ... ... ... ... : ... .. . ... : ... .. . ... : ... .. . ...
ROW 5F : ... .. . ... ... ... ... : ... .. . ... ... ... ... : ... .. . ... : ... .. . ... : ... .. . ...
ROW 60 : ... .. . ... ... ... ... : ... .. . ... ... ... ... : ... .. . ... : ... .. . ... : ... .. . ...
ROW 61 : ... .. . ... ... ... ... : ... .. . ... ... ... ... : ... .. . ... : ... .. . ... : ... .. . ...
ROW 62 : E-4 00 5 ... ... ... ... : ... .. . ... ... ... ... : F#3 00 . ... : ... .. . ... : ... .. . ...
ROW 63 : ... .. . ... ... ... ... : D-4 00 5 ... ... ... ... : ... .. . ... : ... .. . ... : ... .. . ...
ROW 64 : ... .. 4 ... ... ... ... : ... .. . ... ... ... ... : ... .. . ... : ... .. . ... : ... .. . ...
ROW 65 : ... .. . ... ... ... ... : ... .. 4 ... ... ... ... : ... .. . ... : ... .. . ... : ... .. . ...
ROW 66 : ... .. 3 ... ... ... ... : ... .. . ... ... ... ... : ... .. . ... : ... .. . ... : ... .. . ...
ROW 67 : ... .. . ... ... ... ... : ... .. 3 ... ... ... ... : ... .. . ... : ... .. . ... : ... .. . ...
ROW 68 : ... .. 2 ... ... ... ... : ... .. . ... ... ... ... : ... .. . ... : ... .. . ... : ... .. . ...
ROW 69 : ... .. . ... ... ... ... : ... .. 2 ... ... ... ... : ... .. . ... : ... .. . ... : ... .. . ...
ROW 6A : ... .. 1 ... ... ... ... : ... .. . ... ... ... ... : ... .. . ... : ... .. . ... : ... .. . ...
ROW 6B : ... .. . ... ... ... ... : ... .. 1 ... ... ... ... : ... .. . ... : ... .. . ... : ... .. . ...
ROW 6C : ... .. . ... ... ... ... : ... .. . ... ... ... ... : ... .. . ... : ... .. . ... : ... .. . ...
ROW 6D : ... .. . ... ... ... ... : ... .. . ... ... ... ... : ... .. . ... : ... .. . ... : ... .. . ...
ROW 6E : ... .. . ... ... ... ... : ... .. . ... ... ... ... : ... .. . ... : ... .. . ... : ... .. . ...
ROW 6F : ... .. . ... ... ... ... : ... .. . ... ... ... ... : ... .. . ... : ... .. . ... : ... .. . ...
ROW 70 : F-4 00 5 V00 ... ... ... : ... .. . ... ... ... ... : G-3 00 . ... : ... .. . ... : ... .. . ...
ROW 71 : ... .. . ... ... ... ... : C-4 00 5 V00 ... ... ... : ... .. . ... : ... .. . ... : ... .. . ...
ROW 72 : ... .. 4 ... ... ... ... : ... .. . ... ... ... ... : ... .. . ... : ... .. . ... : ... .. . ...
ROW 73 : ... .. . ... ... ... ... : ... .. 4 ... ... ... ... : ... .. . ... : ... .. . ... : ... .. . ...
ROW 74 : ... .. 3 ... ... ... ... : ... .. . ... ... ... ... : ... .. . ... : ... .. . ... : ... .. . ...
ROW 75 : ... .. . ... ... ... ... : ... .. 3 ... ... ... ... : ... .. . ... : ... .. . ... : ... .. . ...
ROW 76 : ... .. 2 ... ... ... ... : ... .. . ... ... ... ... : ... .. . ... : ... .. . ... : ... .. . ...
ROW 77 : ... .. . ... ... ... ... : ... .. 2 ... ... ... ... : ... .. . ... : ... .. . ... : ... .. . ...
ROW 78 : ... .. 1 ... ... ... ... : ... .. . ... ... ... ... : ... .. . ... : ... .. . ... : ... .. . ...
ROW 79 : ... .. . ... ... ... ... : ... .. 1 ... ... ... ... : ... .. . ... : ... .. . ... : ... .. . ...
ROW 7A : ... .. . ... ... ... ... : ... .. . ... ... ... ... : ... .. . ... : ... .. . ... : ... .. . ...
ROW 7B : ... .. . ... ... ... ... : ... .. . ... ... ... ... : ... .. . ... : ... .. . ... : ... .. . ...
ROW 7C : ... .. . ... ... ... ... : ... .. . ... ... ... ... : ... .. . ... : ... .. . ... : ... .. . ...
ROW 7D : ... .. . ... ... ... ... : ... .. . ... ... ... ... : ... .. . ... : ... .. . ... : ... .. . ...
ROW 7E : F-4 00 5 ... ... ... ... : ... .. . ... ... ... ... : ... .. . ... : ... .. . ... : ... .. . ...
ROW 7F : ... .. . ... ... ... ... : C-4 00 5 ... ... ... ... : ... .. . ... : ... .. . ... : ... .. . ...
ROW 80 : ... .. 4 ... ... ... ... : ... .. . ... ... ... ... : ... .. . ... : ... .. . ... : ... .. . ...
ROW 81 : ... .. . ... ... ... ... : ... .. 4 ... ... ... ... : ... .. . ... : ... .. . ... : ... .. . ...
ROW 82 : ... .. 3 ... ... ... ... : ... .. . ... ... ... ... : ... .. . ... : ... .. . ... : ... .. . ...
ROW 83 : ... .. . ... ... ... ... : ... .. 3 ... ... ... ... : ... .. . ... : ... .. . ... : ... .. . ...
ROW 84 : ... .. 2 ... ... ... ... : ... .. . ... ... ... ... : ... .. . ... : ... .. . ... : ... .. . ...
ROW 85 : ... .. . ... ... ... ... : ... .. 2 ... ... ... ... : ... .. . ... : ... .. . ... : ... .. . ...
ROW 86 : ... .. 1 ... ... ... ... : ... .. . ... ... ... ... : ... .. . ... : ... .. . ... : ... .. . ...
ROW 87 : ... .. . ... ... ... ... : ... .. 1 ... ... ... ... : ... .. . ... : ... .. . ... : ... .. . ...
ROW 88 : ... .. . ... ... ... ... : ... .. . ... ... ... ... : ... .. . ... : ... .. . ... : ... .. . ...
ROW 89 : ... .. . ... ... ... ... : ... .. . ... ... ... ... : ... .. . ... : ... .. . ... : ... .. . ...
ROW 8A : ... .. . ... ... ... ... : ... .. . ... ... ... ... : ... .. . ... : ... .. . ... : ... .. . ...
ROW 8B : ... .. . ... ... ... ... : ... .. . ... ... ... ... : ... .. . ... : ... .. . ... : ... .. . ...
ROW 8C : F-4 00 5 ... ... ... ... : ... .. . ... ... ... ... : D-3 00 . ... : ... .. . ... : ... .. . ...
ROW 8D : ... .. . ... ... ... ... : C-4 00 5 ... ... ... ... : ... .. . ... : ... .. . ... : ... .. . ...
ROW 8E : ... .. 4 ... ... ... ... : ... .. . ... ... ... ... : ... .. . ... : ... .. . ... : ... .. . ...
ROW 8F : ... .. . ... ... ... ... : ... .. 4 ... ... ... ... : ... .. . ... : ... .. . ... : ... .. . ...
ROW 90 : ... .. 3 ... ... ... ... : ... .. . ... ... ... ... : ... .. . ... : ... .. . ... : ... .. . ...
ROW 91 : ... .. . ... ... ... ... : ... .. 3 ... ... ... ... : ... .. . ... : ... .. . ... : ... .. . ...
ROW 92 : ... .. 2 ... ... ... ... : ... .. . ... ... ... ... : ... .. . ... : ... .. . ... : ... .. . ...
ROW 93 : ... .. . ... ... ... ... : ... .. 2 ... ... ... ... : ... .. . ... : ... .. . ... : ... .. . ...
ROW 94 : ... .. 1 ... ... ... ... : ... .. . ... ... ... ... : ... .. . ... : ... .. . ... : ... .. . ...
ROW 95 : ... .. . ... ... ... ... : ... .. 1 ... ... ... ... : ... .. . ... : ... .. . ... : ... .. . ...
ROW 96 : ... .. . ... ... ... ... : ... .. . ... ... ... ... : ... .. . ... : ... .. . ... : ... .. . ...
ROW 97 : ... .. . ... ... ... ... : ... .. . ... ... ... ... : ... .. . ... : ... .. . ... : ... .. . ...
ROW 98 : ... .. . ... ... ... ... : ... .. . ... ... ... ... : ... .. . ... : ... .. . ... : ... .. . ...
ROW 99 : ... .. . ... ... ... ... : ... .. . ... ... ... ... : ... .. . ... : ... .. . ... : ... .. . ...
ROW 9A : F-4 00 5 ... ... ... ... : ... .. . ... ... ... ... : ... .. . ... : ... .. . ... : ... .. . ...
ROW 9B : ... .. . ... ... ... ... : C-4 00 5 ... ... ... ... : ... .. . ... : ... .. . ... : ... .. . ...
ROW 9C : ... .. 4 ... ... ... ... : ... .. . ... ... ... ... : ... .. . ... : ... .. . ... : ... .. . ...
ROW 9D : ... .. . ... ... ... ... : ... .. 4 ... ... ... ... : ... .. . ... : ... .. . ... : ... .. . ...
ROW 9E : ... .. 3 ... ... ... ... : ... .. . ... ... ... ... : ... .. . ... : ... .. . ... : ... .. . ...
ROW 9F : ... .. . ... ... ... ... : ... .. 3 ... ... ... ... : ... .. . ... : ... .. . ... : ... .. . ...
ROW A0 : ... .. 2 ... ... ... ... : ... .. . ... ... ... ... : ... .. . ... : ... .. . ... : ... .. . ...
ROW A1 : ... .. . ... ... ... ... : ... .. 2 ... ... ... ... : ... .. . ... : ... .. . ... : ... .. . ...
ROW A2 : ... .. 1 ... ... ... ... : ... .. . ... ... ... ... : ... .. . ... : ... .. . ... : ... .. . ...
ROW A3 : ... .. . ... ... ... ... : ... .. 1 ... ... ... ... : ... .. . ... : ... .. . ... : ... .. . ...
ROW A4 : ... .. . ... ... ... ... : ... .. . ... ... ... ... : ... .. . ... : ... .. . ... : ... .. . ...
ROW A5 : ... .. . ... ... ... ... : ... .. . ... ... ... ... : ... .. . ... : ... .. . ... : ... .. . ...
ROW A6 : ... .. . ... ... ... ... : ... .. . ... ... ... ... : ... .. . ... : ... .. . ... : ... .. . ...
ROW A7 : ... .. . ... ... ... ... : ... .. . ... ... ... ... : ... .. . ... : ... .. . ... : ... .. . ...
ROW A8 : F-4 00 5 ... ... ... ... : ... .. . ... ... ... ... : G-2 00 . ... : ... .. . ... : ... .. . ...
ROW A9 : ... .. . ... ... ... ... : B-3 00 5 ... ... ... ... : ... .. . ... : ... .. . ... : ... .. . ...
ROW AA : ... .. 4 ... ... ... ... : ... .. . ... ... ... ... : ... .. . ... : ... .. . ... : ... .. . ...
ROW AB : ... .. . ... ... ... ... : ... .. 4 ... ... ... ... : ... .. . ... : ... .. . ... : ... .. . ...
ROW AC : ... .. 3 ... ... ... ... : ... .. . ... ... ... ... : ... .. . ... : ... .. . ... : ... .. . ...
ROW AD : ... .. . ... ... ... ... : ... .. 3 ... ... ... ... : ... .. . ... : ... .. . ... : ... .. . ...
ROW AE : ... .. 2 ... ... ... ... : ... .. . ... ... ... ... : ... .. . ... : ... .. . ... : ... .. . ...
ROW AF : ... .. . ... ... ... ... : ... .. 2 ... ... ... ... : ... .. . ... : ... .. . ... : ... .. . ...
ROW B0 : ... .. 1 ... ... ... ... : ... .. . ... ... ... ... : ... .. . ... : ... .. . ... : ... .. . ...
ROW B1 : ... .. . ... ... ... ... : ... .. 1 ... ... ... ... : ... .. . ... : ... .. . ... : ... .. . ...
ROW B2 : ... .. . ... ... ... ... : ... .. . ... ... ... ... : ... .. . ... : ... .. . ... : ... .. . ...
ROW B3 : ... .. . ... ... ... ... : ... .. . ... ... ... ... : ... .. . ... : ... .. . ... : ... .. . ...
ROW B4 : ... .. . ... ... ... ... : ... .. . ... ... ... ... : ... .. . ... : ... .. . ... : ... .. . ...
ROW B5 : ... .. . ... ... ... ... : ... .. . ... ... ... ... : ... .. . ... : ... .. . ... : ... .. . ...
ROW B6 : B-3 00 2 V02 ... ... ... : G-3 00 2 V02 ... ... ... : ... .. . ... : ... .. . ... : ... .. . ...
ROW B7 : ... .. 3 ... ... ... ... : ... .. 3 ... ... ... ... : ... .. . ... : ... .. . ... : ... .. . ...
ROW B8 : ... .. 4 ... ... ... ... : ... .. 4 ... ... ... ... : ... .. . ... : ... .. . ... : ... .. . ...
ROW B9 : ... .. 5 ... ... ... ... : ... .. 5 ... ... ... ... : ... .. . ... : ... .. . ... : ... .. . ...
ROW BA : ... .. . ... ... ... ... : ... .. . ... ... ... ... : ... .. . ... : ... .. . ... : ... .. . ...
ROW BB : ... .. 1 ... ... ... ... : ... .. 1 ... ... ... ... : ... .. . ... : ... .. . ... : ... .. . ...
ROW BC : ... .. . ... ... ... ... : ... .. . ... ... ... ... : ... .. . ... : ... .. . ... : ... .. . ...
ROW BD : C-4 00 2 ... ... ... ... : A-3 00 2 ... ... ... ... : ... .. . ... : ... .. . ... : ... .. . ...
ROW BE : ... .. 3 ... ... ... ... : ... .. 3 ... ... ... ... : ... .. . ... : ... .. . ... : ... .. . ...
ROW BF : ... .. 4 ... ... ... ... : ... .. 4 ... ... ... ... : ... .. . ... : ... .. . ... : ... .. . ...
ROW C0 : ... .. 5 ... ... ... ... : ... .. 5 ... ... ... ... : ... .. . ... : ... .. . ... : ... .. . ...
ROW C1 : ... .. . ... ... ... ... : ... .. . ... ... ... ... : ... .. . ... : ... .. . ... : ... .. . ...
ROW C2 : B-3 00 1 ... ... ... ... : G-3 00 1 ... ... ... ... : ... .. . ... : ... .. . ... : ... .. . ...
ROW C3 : ... .. . ... ... ... ... : ... .. . ... ... ... ... : ... .. . ... : ... .. . ... : ... .. . ...
ROW C4 : D-4 00 2 ... ... ... ... : B-3 00 2 ... ... ... ... : ... .. . ... : ... .. . ... : ... .. . ...
ROW C5 : ... .. 3 ... ... ... ... : ... .. 3 ... ... ... ... : ... .. . ... : ... .. . ... : ... .. . ...
ROW C6 : ... .. 4 ... ... ... ... : ... .. 4 ... ... ... ... : ... .. . ... : ... .. . ... : ... .. . ...
ROW C7 : ... .. 5 ... ... ... ... : ... .. 5 ... ... ... ... : ... .. . ... : ... .. . ... : ... .. . ...
ROW C8 : ... .. . ... ... ... ... : ... .. . ... ... ... ... : ... .. . ... : ... .. . ... : ... .. . ...
ROW C9 : ... .. . ... ... ... ... : ... .. . ... ... ... ... : ... .. . ... : ... .. . ... : ... .. . ...
ROW CA : ... .. . ... ... ... ... : ... .. . ... ... ... ... : ... .. . ... : ... .. . ... : ... .. . ...
ROW CB : ... .. . ... ... ... ... : ... .. . ... ... ... ... : ... .. . ... : ... .. . ... : ... .. . ...
ROW CC : ... .. . ... ... ... ... : ... .. . ... ... ... ... : ... .. . ... : ... .. . ... : ... .. . ...
ROW CD : ... .. . ... ... ... ... : ... .. . ... ... ... ... : ... .. . ... : ... .. . ... : ... .. . ...
ROW CE : ... .. . ... ... ... ... : ... .. . ... ... ... ... : ... .. . ... : ... .. . ... : ... .. . ...
ROW CF : ... .. . ... ... ... ... : ... .. . ... ... ... ... : ... .. . ... : ... .. . ... : ... .. . ...
ROW D0 : C-4 00 1 ... ... ... ... : A-3 00 1 ... ... ... ... : ... .. . ... : ... .. . ... : ... .. . ...
ROW D1 : ... .. . ... ... ... ... : ... .. . ... ... ... ... : ... .. . ... : ... .. . ... : ... .. . ...
ROW D2 : B-3 00 2 ... ... ... ... : G-3 00 2 ... ... ... ... : ... .. . ... : ... .. . ... : ... .. . ...
ROW D3 : ... .. 3 ... ... ... ... : ... .. 3 ... ... ... ... : ... .. . ... : ... .. . ... : ... .. . ...
ROW D4 : ... .. 4 ... ... ... ... : ... .. 4 ... ... ... ... : ... .. . ... : ... .. . ... : ... .. . ...
ROW D5 : ... .. 5 ... ... ... ... : ... .. 5 ... ... ... ... : ... .. . ... : ... .. . ... : ... .. . ...
ROW D6 : ... .. . ... ... ... ... : ... .. . ... ... ... ... : ... .. . ... : ... .. . ... : ... .. . ...
ROW D7 : ... .. . ... ... ... ... : ... .. . ... ... ... ... : ... .. . ... : ... .. . ... : ... .. . ...
ROW D8 : ... .. . ... ... ... ... : ... .. . ... ... ... ... : ... .. . ... : ... .. . ... : ... .. . ...
ROW D9 : ... .. . ... ... ... ... : ... .. . ... ... ... ... : ... .. . ... : ... .. . ... : ... .. . ...
ROW DA : ... .. . ... ... ... ... : ... .. . ... ... ... ... : ... .. . ... : ... .. . ... : ... .. . ...
ROW DB : ... .. . ... ... ... ... : ... .. . ... ... ... ... : ... .. . ... : ... .. . ... : ... .. . ...
ROW DC : ... .. . ... ... ... ... : ... .. . ... ... ... ... : ... .. . ... : ... .. . ... : ... .. . ...
ROW DD : ... .. . ... ... ... ... : ... .. . ... ... ... ... : ... .. . ... : ... .. . ... : ... .. . ...
ROW DE : D-4 00 1 ... ... ... ... : B-3 00 1 ... ... ... ... : ... .. . ... : ... .. . ... : ... .. . ...
ROW DF : ... .. . ... ... ... ... : ... .. . ... ... ... ... : ... .. . ... : ... .. . ... : ... .. . ...

PATTERN 06
ROW 00 : G-3 00 2 ... ... ... ... : E-3 00 2 ... ... ... ... : C-3 00 . ... : ... .. . ... : ... .. . ...
ROW 01 : ... .. 3 ... ... ... ... : ... .. 3 ... ... ... ... : ... .. . ... : ... .. . ... : ... .. . ...
ROW 02 : ... .. 4 ... ... ... ... : ... .. 4 ... ... ... ... : ... .. . ... : ... .. . ... : ... .. . ...
ROW 03 : ... .. 5 ... ... ... ... : ... .. 5 ... ... ... ... : ... .. . ... : ... .. . ... : ... .. . ...
ROW 04 : ... .. . ... ... ... ... : ... .. . ... ... ... ... : ... .. . ... : ... .. . ... : ... .. . ...
ROW 05 : ... .. . ... ... ... ... : ... .. . ... ... ... ... : ... .. . ... : ... .. . ... : ... .. . ...
ROW 06 : ... .. . ... ... ... ... : ... .. . ... ... ... ... : ... .. . ... : ... .. . ... : ... .. . ...
ROW 07 : ... .. . ... ... ... ... : ... .. . ... ... ... ... : ... .. . ... : ... .. . ... : ... .. . ...
ROW 08 : ... .. . ... ... ... ... : ... .. . ... ... ... ... : ... .. . ... : ... .. . ... : ... .. . ...
ROW 09 : ... .. . ... ... ... ... : ... .. . ... ... ... ... : ... .. . ... : ... .. . ... : ... .. . ...
ROW 0A : ... .. . ... ... ... ... : ... .. . ... ... ... ... : ... .. . ... : ... .. . ... : ... .. . ...
ROW 0B : ... .. . ... ... ... ... : ... .. . ... ... ... ... : ... .. . ... : ... .. . ... : ... .. . ...
ROW 0C : ... .. 1 ... ... ... ... : ... .. 1 ... ... ... ... : ... .. . ... : ... .. . ... : ... .. . ...
ROW 0D : ... .. . ... ... ... ... : ... .. . ... ... ... ... : ... .. . ... : ... .. . ... : ... .. . ...
ROW 0E : E-4 00 5 V00 ... ... ... : ... .. . ... ... ... ... : --- .. . ... : ... .. . ... : ... .. . ...
ROW 0F : ... .. . ... ... ... ... : D-4 00 5 V00 ... ... ... : ... .. . ... : ... .. . ... : ... .. . ...
ROW 10 : ... .. 4 ... ... ... ... : ... .. . ... ... ... ... : ... .. . ... : ... .. . ... : ... .. . ...
ROW 11 : ... .. . ... ... ... ... : ... .. 4 ... ... ... ... : ... .. . ... : ... .. . ... : ... .. . ...
ROW 12 : ... .. 3 ... ... ... ... : ... .. . ... ... ... ... : ... .. . ... : ... .. . ... : ... .. . ...
ROW 13 : ... .. . ... ... ... ... : ... .. 3 ... ... ... ... : ... .. . ... : ... .. . ... : ... .. . ...
ROW 14 : ... .. 2 ... ... ... ... : ... .. . ... ... ... ... : ... .. . ... : ... .. . ... : ... .. . ...
ROW 15 : ... .. . ... ... ... ... : ... .. 2 ... ... ... ... : ... .. . ... : ... .. . ... : ... .. . ...
ROW 16 : ... .. 1 ... ... ... ... : ... .. . ... ... ... ... : ... .. . ... : ... .. . ... : ... .. . ...
ROW 17 : ... .. . ... ... ... ... : ... .. 1 ... ... ... ... : ... .. . ... : ... .. . ... : ... .. . ...
ROW 18 : ... .. . ... ... ... ... : ... .. . ... ... ... ... : ... .. . ... : ... .. . ... : ... .. . ...
ROW 19 : ... .. . ... ... ... ... : ... .. . ... ... ... ... : ... .. . ... : ... .. . ... : ... .. . ...
ROW 1A : ... .. . ... ... ... ... : ... .. . ... ... ... ... : ... .. . ... : ... .. . ... : ... .. . ...
ROW 1B : ... .. . ... ... ... ... : ... .. . ... ... ... ... : ... .. . ... : ... .. . ... : ... .. . ...
ROW 1C : E-4 00 5 ... ... ... ... : ... .. . ... ... ... ... : ... .. . ... : ... .. . ... : ... .. . ...
ROW 1D : ... .. . ... ... ... ... : D-4 00 5 ... ... ... ... : ... .. . ... : ... .. . ... : ... .. . ...
ROW 1E : ... .. 4 ... ... ... ... : ... .. . ... ... ... ... : ... .. . ... : ... .. . ... : ... .. . ...
ROW 1F : ... .. . ... ... ... ... : ... .. 4 ... ... ... ... : ... .. . ... : ... .. . ... : ... .. . ...
ROW 20 : ... .. 3 ... ... ... ... : ... .. . ... ... ... ... : ... .. . ... : ... .. . ... : ... .. . ...
ROW 21 : ... .. . ... ... ... ... : ... .. 3 ... ... ... ... : ... .. . ... : ... .. . ... : ... .. . ...
ROW 22 : ... .. 2 ... ... ... ... : ... .. . ... ... ... ... : ... .. . ... : ... .. . ... : ... .. . ...
ROW 23 : ... .. . ... ... ... ... : ... .. 2 ... ... ... ... : ... .. . ... : ... .. . ... : ... .. . ...
ROW 24 : ... .. 1 ... ... ... ... : ... .. . ... ... ... ... : ... .. . ... : ... .. . ... : ... .. . ...
ROW 25 : ... .. . ... ... ... ... : ... .. 1 ... ... ... ... : ... .. . ... : ... .. . ... : ... .. . ...
ROW 26 : ... .. . ... ... ... ... : ... .. . ... ... ... ... : ... .. . ... : ... .. . ... : ... .. . ...
ROW 27 : ... .. . ... ... ... ... : ... .. . ... ... ... ... : ... .. . ... : ... .. . ... : ... .. . ...
ROW 28 : ... .. . ... ... ... ... : ... .. . ... ... ... ... : ... .. . ... : ... .. . ... : ... .. . ...
ROW 29 : ... .. . ... ... ... ... : ... .. . ... ... ... ... : ... .. . ... : ... .. . ... : ... .. . ...
ROW 2A : E-4 00 5 ... ... ... ... : ... .. . ... ... ... ... : ... .. . ... : ... .. . ... : ... .. . ...
ROW 2B : ... .. . ... ... ... ... : D-4 00 5 ... ... ... ... : ... .. . ... : ... .. . ... : ... .. . ...
ROW 2C : ... .. 4 ... ... ... ... : ... .. . ... ... ... ... : ... .. . ... : ... .. . ... : ... .. . ...
ROW 2D : ... .. . ... ... ... ... : ... .. 4 ... ... ... ... : ... .. . ... : ... .. . ... : ... .. . ...
ROW 2E : ... .. 3 ... ... ... ... : ... .. . ... ... ... ... : ... .. . ... : ... .. . ... : ... .. . ...
ROW 2F : ... .. . ... ... ... ... : ... .. 3 ... ... ... ... : ... .. . ... : ... .. . ... : ... .. . ...
ROW 30 : ... .. 2 ... ... ... ... : ... .. . ... ... ... ... : ... .. . ... : ... .. . ... : ... .. . ...
ROW 31 : ... .. . ... ... ... ... : ... .. 2 ... ... ... ... : ... .. . ... : ... .. . ... : ... .. . ...
ROW 32 : ... .. 1 ... ... ... ... : ... .. . ... ... ... ... : ... .. . ... : ... .. . ... : ... .. . ...
ROW 33 : ... .. . ... ... ... ... : ... .. 1 ... ... ... ... : ... .. . ... : ... .. . ... : ... .. . ...
ROW 34 : ... .. . ... ... ... ... : ... .. . ... ... ... ... : ... .. . ... : ... .. . ... : ... .. . ...
ROW 35 : ... .. . ... ... ... ... : ... .. . ... ... ... ... : ... .. . ... : ... .. . ... : ... .. . ...
ROW 36 : ... .. . ... ... ... ... : ... .. . ... ... ... ... : ... .. . ... : ... .. . ... : ... .. . ...
ROW 37 : ... .. . ... ... ... ... : ... .. . ... ... ... ... : ... .. . ... : ... .. . ... : ... .. . ...
ROW 38 : E-4 00 5 ... ... ... ... : ... .. . ... ... ... ... : ... .. . ... : ... .. . ... : ... .. . ...
ROW 39 : ... .. . ... ... ... ... : D-4 00 5 ... ... ... ... : ... .. . ... : ... .. . ... : ... .. . ...
ROW 3A : ... .. 4 ... ... ... ... : ... .. . ... ... ... ... : ... .. . ... : ... .. . ... : ... .. . ...
ROW 3B : ... .. . ... ... ... ... : ... .. 4 ... ... ... ... : ... .. . ... : ... .. . ... : ... .. . ...
ROW 3C : ... .. 3 ... ... ... ... : ... .. . ... ... ... ... : ... .. . ... : ... .. . ... : ... .. . ...
ROW 3D : ... .. . ... ... ... ... : ... .. 3 ... ... ... ... : ... .. . ... : ... .. . ... : ... .. . ...
ROW 3E : ... .. 2 ... ... ... ... : ... .. . ... ... ... ... : ... .. . ... : ... .. . ... : ... .. . ...
ROW 3F : ... .. . ... ... ... ... : ... .. 2 ... ... ... ... : ... .. . ... : ... .. . ... : ... .. . ...
ROW 40 : ... .. 1 ... ... ... ... : ... .. . ... ... ... ... : ... .. . ... : ... .. . ... : ... .. . ...
ROW 41 : ... .. . ... ... ... ... : ... .. 1 ... ... ... ... : ... .. . ... : ... .. . ... : ... .. . ...
ROW 42 : ... .. . ... ... ... ... : ... .. . ... ... ... ... : ... .. . ... : ... .. . ... : ... .. . ...
ROW 43 : ... .. . ... ... ... ... : ... .. . ... ... ... ... : ... .. . ... : ... .. . ... : ... .. . ...
ROW 44 : ... .. . ... ... ... ... : ... .. . ... ... ... ... : ... .. . ... : ... .. . ... : ... .. . ...
ROW 45 : ... .. . ... ... ... ... : ... .. . ... ... ... ... : ... .. . ... : ... .. . ... : ... .. . ...
ROW 46 : E-4 00 5 ... ... ... ... : ... .. . ... ... ... ... : ... .. . ... : ... .. . ... : ... .. . ...
ROW 47 : ... .. . ... ... ... ... : D-4 00 5 ... ... ... ... : ... .. . ... : ... .. . ... : ... .. . ...
ROW 48 : ... .. 4 ... ... ... ... : ... .. . ... ... ... ... : ... .. . ... : ... .. . ... : ... .. . ...
ROW 49 : ... .. . ... ... ... ... : ... .. 4 ... ... ... ... : ... .. . ... : ... .. . ... : ... .. . ...
ROW 4A : ... .. 3 ... ... ... ... : ... .. . ... ... ... ... : ... .. . ... : ... .. . ... : ... .. . ...
ROW 4B : ... .. . ... ... ... ... : ... .. 3 ... ... ... ... : ... .. . ... : ... .. . ... : ... .. . ...
ROW 4C : ... .. 2 ... ... ... ... : ... .. . ... ... ... ... : ... .. . ... : ... .. . ... : ... .. . ...
ROW 4D : ... .. . ... ... ... ... : ... .. 2 ... ... ... ... : ... .. . ... : ... .. . ... : ... .. . ...
ROW 4E : ... .. 1 ... ... ... ... : ... .. . ... ... ... ... : ... .. . ... : ... .. . ... : ... .. . ...
ROW 4F : ... .. . ... ... ... ... : ... .. 1 ... ... ... ... : ... .. . ... : ... .. . ... : ... .. . ...
ROW 50 : ... .. . ... ... ... ... : ... .. . ... ... ... ... : ... .. . ... : ... .. . ... : ... .. . ...
ROW 51 : ... .. . ... ... ... ... : ... .. . ... ... ... ... : ... .. . ... : ... .. . ... : ... .. . ...
ROW 52 : ... .. . ... ... ... ... : ... .. . ... ... ... ... : ... .. . ... : ... .. . ... : ... .. . ...
ROW 53 : ... .. . ... ... ... ... : ... .. . ... ... ... ... : ... .. . ... : ... .. . ... : ... .. . ...
ROW 54 : G-2 00 3 V01 ... ... ... : G-1 00 4 V00 ... ... P82 : G-2 00 . ... : ... .. . ... : ... .. . ...
ROW 55 : ... .. . ... ... ... ... : ... .. . ... ... ... ... : ... .. . ... : ... .. . ... : ... .. . ...
ROW 56 : ... .. . ... ... ... ... : ... .. . ... ... ... ... : ... .. . ... : ... .. . ... : ... .. . ...
ROW 57 : ... .. . ... ... ... ... : ... .. . ... ... ... ... : ... .. . ... : ... .. . ... : ... .. . ...
ROW 58 : ... .. . ... ... ... ... : ... .. . ... ... ... ... : ... .. . ... : ... .. . ... : ... .. . ...
ROW 59 : ... .. . ... ... ... ... : ... .. . ... ... ... ... : ... .. . ... : ... .. . ... : ... .. . ...
ROW 5A : ... .. . ... ... ... ... : ... .. . ... ... ... ... : ... .. . ... : ... .. . ... : ... .. . ...
ROW 5B : ... .. . ... ... ... ... : ... .. . ... ... ... ... : ... .. . ... : ... .. . ... : ... .. . ...
ROW 5C : ... .. . ... ... ... ... : ... .. . ... ... ... ... : ... .. . ... : ... .. . ... : ... .. . ...
ROW 5D : ... .. . ... ... ... ... : ... .. . ... ... ... ... : ... .. . ... : ... .. . ... : ... .. . ...
ROW 5E : ... .. . ... ... ... ... : ... .. . ... ... ... ... : ... .. . ... : ... .. . ... : ... .. . ...
ROW 5F : ... .. . ... ... ... ... : ... .. . ... ... ... ... : ... .. . ... : ... .. . ... : ... .. . ...
ROW 60 : ... .. . ... ... ... ... : ... .. . ... ... ... ... : ... .. . ... : ... .. . ... : ... .. . ...
ROW 61 : ... .. . ... ... ... ... : ... .. . ... ... ... ... : ... .. . ... : ... .. . ... : ... .. . ...
ROW 62 : ... .. . ... ... ... ... : ... .. . ... ... ... ... : ... .. . ... : ... .. . ... : ... .. . ...
ROW 63 : ... .. . ... ... ... ... : ... .. . ... ... ... ... : ... .. . ... : ... .. . ... : ... .. . ...
ROW 64 : ... .. . ... ... ... ... : ... .. . ... ... ... ... : ... .. . ... : ... .. . ... : ... .. . ...
ROW 65 : ... .. . ... ... ... ... : ... .. . ... ... ... ... : ... .. . ... : ... .. . ... : ... .. . ...
ROW 66 : ... .. . ... ... ... ... : ... .. . ... ... ... ... : ... .. . ... : ... .. . ... : ... .. . ...
ROW 67 : ... .. . ... ... ... ... : ... .. . ... ... ... ... : ... .. . ... : ... .. . ... : ... .. . ...
ROW 68 : ... .. . ... ... ... ... : ... .. . ... ... ... ... : ... .. . ... : ... .. . ... : ... .. . ...
ROW 69 : ... .. . ... ... ... ... : ... .. . ... ... ... ... : ... .. . ... : ... .. . ... : ... .. . ...
ROW 6A : ... .. . ... ... ... ... : ... .. . ... ... ... ... : ... .. . ... : ... .. . ... : ... .. . ...
ROW 6B : ... .. . ... ... ... ... : ... .. . ... ... ... ... : ... .. . ... : ... .. . ... : ... .. . ...
ROW 6C : ... .. . ... ... ... ... : ... .. . ... ... ... ... : ... .. . ... : ... .. . ... : ... .. . ...
ROW 6D : ... .. . ... ... ... ... : ... .. . ... ... ... ... : ... .. . ... : ... .. . ... : ... .. . ...
ROW 6E : ... .. . ... ... ... ... : ... .. . ... ... ... ... : ... .. . ... : ... .. . ... : ... .. . ...
ROW 6F : ... .. . ... ... ... ... : ... .. . ... ... ... ... : ... .. . ... : ... .. . ... : ... .. . ...
ROW 70 : C-3 00 3 ... ... ... ... : C-2 00 4 ... ... ... ... : C-3 00 . ... : ... .. . ... : ... .. . ...
ROW 71 : ... .. . ... ... ... ... : ... .. . ... ... ... ... : ... .. . ... : ... .. . ... : ... .. . ...
ROW 72 : ... .. . ... ... ... ... : ... .. . ... ... ... ... : ... .. . ... : ... .. . ... : ... .. . ...
ROW 73 : ... .. . ... ... ... ... : ... .. . ... ... ... ... : ... .. . ... : ... .. . ... : ... .. . ...
ROW 74 : ... .. . ... ... ... ... : ... .. . ... ... ... ... : ... .. . ... : ... .. . ... : ... .. . ...
ROW 75 : ... .. . ... ... ... ... : ... .. . ... ... ... ... : ... .. . ... : ... .. . ... : ... .. . ...
ROW 76 : ... .. . ... ... ... ... : ... .. . ... ... ... ... : ... .. . ... : ... .. . ... : ... .. . ...
ROW 77 : ... .. . ... ... ... ... : ... .. . ... ... ... ... : ... .. . ... : ... .. . ... : ... .. . ...
ROW 78 : ... .. . ... ... ... ... : ... .. . ... ... ... ... : ... .. . ... : ... .. . ... : ... .. . ...
ROW 79 : ... .. . ... ... ... ... : ... .. . ... ... ... ... : ... .. . ... : ... .. . ... : ... .. . ...
ROW 7A : ... .. . ... ... ... ... : ... .. . ... ... ... ... : ... .. . ... : ... .. . ... : ... .. . ...
ROW 7B : ... .. . ... ... ... ... : ... .. . ... ... ... ... : ... .. . ... : ... .. . ... : ... .. . ...
ROW 7C : ... .. . ... ... ... ... : ... .. . ... ... ... ... : ... .. . ... : ... .. . ... : ... .. . ...
ROW 7D : ... .. . ... ... ... ... : ... .. . ... ... ... ... : ... .. . ... : ... .. . ... : ... .. . ...
ROW 7E : ... .. 1 ... ... ... ... : ... .. 1 ... ... ... ... : --- .. . ... : ... .. . ... : ... .. . ...
ROW 7F : ... .. . ... ... ... ... : ... .. . ... ... ... ... : ... .. . ... : ... .. . ... : ... .. . ...
ROW 80 : ... .. . ... ... ... ... : ... .. . ... ... ... ... : ... .. . ... : ... .. . ... : ... .. . ...
ROW 81 : ... .. . ... ... ... ... : ... .. . ... ... ... ... : ... .. . ... : ... .. . ... : ... .. . ...
ROW 82 : ... .. . ... ... ... ... : ... .. . ... ... ... ... : ... .. . ... : ... .. . ... : ... .. . ...
ROW 83 : ... .. . ... ... ... ... : ... .. . ... ... ... ... : ... .. . ... : ... .. . ... : ... .. . ...
ROW 84 : ... .. . ... ... ... ... : ... .. . ... ... ... ... : ... .. . ... : ... .. . ... : ... .. . ...
ROW 85 : --- .. . ... ... ... ... : --- .. . ... ... ... ... : ... .. . ... : ... .. . ... : ... .. . ...
ROW 86 : ... .. . ... ... ... ... : ... .. . ... ... ... ... : ... .. . ... : ... .. . ... : ... .. . ...
ROW 87 : ... .. . ... ... ... ... : ... .. . ... ... ... ... : ... .. . ... : ... .. . ... : ... .. . ...
ROW 88 : ... .. . ... ... ... ... : ... .. . ... ... ... ... : ... .. . ... : ... .. . ... : ... .. . ...
ROW 89 : ... .. . ... ... ... ... : ... .. . ... ... ... ... : ... .. . ... : ... .. . ... : ... .. . ...
ROW 8A : ... .. . ... ... ... ... : ... .. . ... ... ... ... : ... .. . ... : ... .. . ... : ... .. . ...
ROW 8B : ... .. . ... ... ... ... : ... .. . ... ... ... ... : ... .. . ... : ... .. . ... : ... .. . ...
ROW 8C : C-3 00 . ... ... ... ... : C-2 00 . ... ... ... ... : ... .. . ... : ... .. . ... : ... .. . ...
ROW 8D : ... .. . ... ... ... ... : ... .. . ... ... ... ... : ... .. . ... : ... .. . ... : ... .. . ...
ROW 8E : ... .. . ... ... ... ... : ... .. . ... ... ... ... : ... .. . ... : ... .. . ... : ... .. . ...
ROW 8F : ... .. . ... ... ... ... : ... .. . ... ... ... ... : ... .. . ... : ... .. . ... : ... .. . ...
ROW 90 : ... .. . ... ... ... ... : ... .. . ... ... ... ... : ... .. . ... : ... .. . ... : ... .. . ...
ROW 91 : ... .. . ... ... ... ... : ... .. . ... ... ... ... : ... .. . ... : ... .. . ... : ... .. . ...
ROW 92 : ... .. . ... ... ... ... : ... .. . ... ... ... ... : ... .. . ... : ... .. . ... : ... .. . ...
ROW 93 : C-3 00 . ... ... ... ... : C-2 00 . ... ... ... ... : ... .. . ... : ... .. . ... : ... .. . ...
ROW 94 : ... .. . ... ... ... ... : ... .. . ... ... ... ... : ... .. . ... : ... .. . ... : ... .. . ...
ROW 95 : ... .. . ... ... ... ... : ... .. . ... ... ... ... : ... .. . ... : ... .. . ... : ... .. . ...
ROW 96 : ... .. . ... ... ... ... : ... .. . ... ... ... ... : ... .. . ... : ... .. . ... : ... .. . ...
ROW 97 : ... .. . ... ... ... ... : ... .. . ... ... ... ... : ... .. . ... : ... .. . ... : ... .. . ...
ROW 98 : ... .. . ... ... ... ... : ... .. . ... ... ... ... : ... .. . ... : ... .. . ... : ... .. . ...
ROW 99 : ... .. . ... ... ... ... : ... .. . ... ... ... ... : ... .. . ... : ... .. . ... : ... .. . ...
ROW 9A : G-2 00 3 ... ... ... ... : G-1 00 4 ... ... ... ... : G-2 00 . ... : ... .. . ... : ... .. . ...
ROW 9B : ... .. . ... ... ... ... : ... .. . ... ... ... ... : ... .. . ... : ... .. . ... : ... .. . ...
ROW 9C : ... .. . ... ... ... ... : ... .. . ... ... ... ... : ... .. . ... : ... .. . ... : ... .. . ...
ROW 9D : ... .. . ... ... ... ... : ... .. . ... ... ... ... : ... .. . ... : ... .. . ... : ... .. . ...
ROW 9E : ... .. . ... ... ... ... : ... .. . ... ... ... ... : ... .. . ... : ... .. . ... : ... .. . ...
ROW 9F : ... .. . ... ... ... ... : ... .. . ... ... ... ... : ... .. . ... : ... .. . ... : ... .. . ...
ROW A0 : ... .. . ... ... ... ... : ... .. . ... ... ... ... : ... .. . ... : ... .. . ... : ... .. . ...
ROW A1 : ... .. . ... ... ... ... : ... .. . ... ... ... ... : ... .. . ... : ... .. . ... : ... .. . ...
ROW A2 : ... .. . ... ... ... ... : ... .. . ... ... ... ... : ... .. . ... : ... .. . ... : ... .. . ...
ROW A3 : ... .. . ... ... ... ... : ... .. . ... ... ... ... : ... .. . ... : ... .. . ... : ... .. . ...
ROW A4 : ... .. . ... ... ... ... : ... .. . ... ... ... ... : ... .. . ... : ... .. . ... : ... .. . ...
ROW A5 : ... .. . ... ... ... ... : ... .. . ... ... ... ... : ... .. . ... : ... .. . ... : ... .. . ...
ROW A6 : ... .. . ... ... ... ... : ... .. . ... ... ... ... : ... .. . ... : ... .. . ... : ... .. . ...
ROW A7 : ... .. . ... ... ... ... : ... .. . ... ... ... ... : ... .. . ... : ... .. . ... : ... .. . ...
ROW A8 : C-3 00 . ... ... ... ... : C-2 00 . ... ... ... ... : C-3 00 . ... : ... .. . ... : ... .. . ...
ROW A9 : ... .. . ... ... ... ... : ... .. . ... ... ... ... : ... .. . ... : ... .. . ... : ... .. . ...
ROW AA : ... .. . ... ... ... ... : ... .. . ... ... ... ... : ... .. . ... : ... .. . ... : ... .. . ...
ROW AB : ... .. . ... ... ... ... : ... .. . ... ... ... ... : ... .. . ... : ... .. . ... : ... .. . ...
ROW AC : ... .. . ... ... ... ... : ... .. . ... ... ... ... : ... .. . ... : ... .. . ... : ... .. . ...
ROW AD : ... .. . ... ... ... ... : ... .. . ... ... ... ... : ... .. . ... : ... .. . ... : ... .. . ...
ROW AE : ... .. . ... ... ... ... : ... .. . ... ... ... ... : ... .. . ... : ... .. . ... : ... .. . ...
ROW AF : ... .. . ... ... ... ... : ... .. . ... ... ... ... : ... .. . ... : ... .. . ... : ... .. . ...
ROW B0 : ... .. . ... ... ... ... : ... .. . ... ... ... ... : ... .. . ... : ... .. . ... : ... .. . ...
ROW B1 : ... .. . ... ... ... ... : ... .. . ... ... ... ... : ... .. . ... : ... .. . ... : ... .. . ...
ROW B2 : ... .. . ... ... ... ... : ... .. . ... ... ... ... : ... .. . ... : ... .. . ... : ... .. . ...
ROW B3 : ... .. . ... ... ... ... : ... .. . ... ... ... ... : ... .. . ... : ... .. . ... : ... .. . ...
ROW B4 : ... .. . ... ... ... ... : ... .. . ... ... ... ... : ... .. . ... : ... .. . ... : ... .. . ...
ROW B5 : ... .. . ... ... ... ... : ... .. . ... ... ... ... : ... .. . ... : ... .. . ... : ... .. . ...
ROW B6 : ... .. 1 ... ... ... ... : ... .. 1 ... ... ... ... : --- .. . ... : ... .. . ... : ... .. . ...
ROW B7 : ... .. . ... ... ... ... : ... .. . ... ... ... ... : ... .. . ... : ... .. . ... : ... .. . ...
ROW B8 : ... .. . ... ... ... ... : ... .. . ... ... ... ... : ... .. . ... : ... .. . ... : ... .. . ...
ROW B9 : ... .. . ... ... ... ... : ... .. . ... ... ... ... : ... .. . ... : ... .. . ... : ... .. . ...
ROW BA : ... .. . ... ... ... ... : ... .. . ... ... ... ... : ... .. . ... : ... .. . ... : ... .. . ...
ROW BB : ... .. . ... ... ... ... : ... .. . ... ... ... ... : ... .. . ... : ... .. . ... : ... .. . ...
ROW BC : ... .. . ... ... ... ... : ... .. . ... ... ... ... : ... .. . ... : ... .. . ... : ... .. . ...
ROW BD : --- .. . ... ... ... ... : --- .. . ... ... ... ... : ... .. . ... : ... .. . ... : ... .. . ...
ROW BE : ... .. . ... ... ... ... : ... .. . ... ... ... ... : ... .. . ... : ... .. . ... : ... .. . ...
ROW BF : ... .. . ... ... ... ... : ... .. . ... ... ... ... : ... .. . ... : ... .. . ... : ... .. . ...
ROW C0 : ... .. . ... ... ... ... : ... .. . ... ... ... ... : ... .. . ... : ... .. . ... : ... .. . ...
ROW C1 : ... .. . ... ... ... ... : ... .. . ... ... ... ... : ... .. . ... : ... .. . ... : ... .. . ...
ROW C2 : ... .. . ... ... ... ... : ... .. . ... ... ... ... : ... .. . ... : ... .. . ... : ... .. . ...
ROW C3 : ... .. . ... ... ... ... : ... .. . ... ... ... ... : ... .. . ... : ... .. . ... : ... .. . ...
ROW C4 : C-3 00 . ... ... ... ... : C-2 00 . ... ... ... ... : ... .. . ... : ... .. . ... : ... .. . ...
ROW C5 : ... .. . ... ... ... ... : ... .. . ... ... ... ... : ... .. . ... : ... .. . ... : ... .. . ...
ROW C6 : ... .. . ... ... ... ... : ... .. . ... ... ... ... : ... .. . ... : ... .. . ... : ... .. . ...
ROW C7 : ... .. . ... ... ... ... : ... .. . ... ... ... ... : ... .. . ... : ... .. . ... : ... .. . ...
ROW C8 : ... .. . ... ... ... ... : ... .. . ... ... ... ... : ... .. . ... : ... .. . ... : ... .. . ...
ROW C9 : ... .. . ... ... ... ... : ... .. . ... ... ... ... : ... .. . ... : ... .. . ... : ... .. . ...
ROW CA : ... .. . ... ... ... ... : ... .. . ... ... ... ... : ... .. . ... : ... .. . ... : ... .. . ...
ROW CB : ... .. . ... ... ... ... : ... .. . ... ... ... ... : ... .. . ... : ... .. . ... : ... .. . ...
ROW CC : ... .. . ... ... ... ... : ... .. . ... ... ... ... : ... .. . ... : ... .. . ... : ... .. . ...
ROW CD : ... .. . ... ... ... ... : ... .. . ... ... ... ... : ... .. . ... : ... .. . ... : ... .. . ...
ROW CE : ... .. . ... ... ... ... : ... .. . ... ... ... ... : ... .. . ... : ... .. . ... : ... .. . ...
ROW CF : ... .. . ... ... ... ... : ... .. . ... ... ... ... : ... .. . ... : ... .. . ... : ... .. . ...
ROW D0 : ... .. . ... ... ... ... : ... .. . ... ... ... ... : ... .. . ... : ... .. . ... : ... .. . ...
ROW D1 : ... .. . ... ... ... ... : ... .. . ... ... ... ... : ... .. . ... : ... .. . ... : ... .. . ...
ROW D2 : G-2 00 3 ... ... ... ... : G-1 00 4 ... ... ... ... : G-2 00 . ... : ... .. . ... : ... .. . ...
ROW D3 : ... .. . ... ... ... ... : ... .. . ... ... ... ... : ... .. . ... : ... .. . ... : ... .. . ...
ROW D4 : ... .. . ... ... ... ... : ... .. . ... ... ... ... : ... .. . ... : ... .. . ... : ... .. . ...
ROW D5 : ... .. . ... ... ... ... : ... .. . ... ... ... ... : ... .. . ... : ... .. . ... : ... .. . ...
ROW D6 : ... .. . ... ... ... ... : ... .. . ... ... ... ... : ... .. . ... : ... .. . ... : ... .. . ...
ROW D7 : ... .. . ... ... ... ... : ... .. . ... ... ... ... : ... .. . ... : ... .. . ... : ... .. . ...
ROW D8 : ... .. . ... ... ... ... : ... .. . ... ... ... ... : ... .. . ... : ... .. . ... : ... .. . ...
ROW D9 : ... .. . ... ... ... ... : ... .. . ... ... ... ... : ... .. . ... : ... .. . ... : ... .. . ...
ROW DA : ... .. . ... ... ... ... : ... .. . ... ... ... ... : ... .. . ... : ... .. . ... : ... .. . ...
ROW DB : ... .. . ... ... ... ... : ... .. . ... ... ... ... : ... .. . ... : ... .. . ... : ... .. . ...
ROW DC : ... .. . ... ... ... ... : ... .. . ... ... ... ... : ... .. . ... : ... .. . ... : ... .. . ...
ROW DD : ... .. . ... ... ... ... : ... .. . ... ... ... ... : ... .. . ... : ... .. . ... : ... .. . ...
ROW DE : ... .. . ... ... ... ... : ... .. . ... ... ... ... : ... .. . ... : ... .. . ... : ... .. . ...
ROW DF : ... .. . ... ... ... ... : ... .. . ... ... ... ... : ... .. . ... : ... .. . ... : ... .. . ...

PATTERN 07
ROW 00 : --- .. . ... ... ... P80 : --- .. . ... ... ... ... : C-3 00 . ... : 2-# 00 5 V00 : ... .. . ...
ROW 01 : ... .. . ... ... ... ... : ... .. . ... ... ... ... : ... .. . ... : ... .. 4 ... : ... .. . ...
ROW 02 : ... .. . ... ... ... ... : ... .. . ... ... ... ... : ... .. . ... : ... .. 3 ... : ... .. . ...
ROW 03 : ... .. . ... ... ... ... : ... .. . ... ... ... ... : ... .. . ... : ... .. 2 ... : ... .. . ...
ROW 04 : ... .. . ... ... ... ... : ... .. . ... ... ... ... : ... .. . ... : ... .. 1 ... : ... .. . ...
ROW 05 : ... .. . ... ... ... ... : ... .. . ... ... ... ... : ... .. . ... : ... .. 0 ... : ... .. . ...
ROW 06 : ... .. . ... ... ... ... : ... .. . ... ... ... ... : ... .. . ... : ... .. . ... : ... .. . ...
ROW 07 : ... .. . ... ... ... ... : ... .. . ... ... ... ... : --- .. . ... : 2-# 00 1 ... : ... .. . ...
ROW 08 : ... .. . ... ... ... ... : ... .. . ... ... ... ... : ... .. . ... : ... .. 0 ... : ... .. . ...
ROW 09 : ... .. . ... ... ... ... : ... .. . ... ... ... ... : ... .. . ... : ... .. . ... : ... .. . ...
ROW 0A : ... .. . ... ... ... ... : ... .. . ... ... ... ... : ... .. . ... : ... .. . ... : ... .. . ...
ROW 0B : ... .. . ... ... ... ... : ... .. . ... ... ... ... : ... .. . ... : ... .. . ... : ... .. . ...
ROW 0C : ... .. . ... ... ... ... : ... .. . ... ... ... ... : ... .. . ... : ... .. . ... : ... .. . ...
ROW 0D : ... .. . ... ... ... ... : ... .. . ... ... ... ... : ... .. . ... : ... .. . ... : ... .. . ...
ROW 0E : D-3 00 6 V00 ... ... ... : --- .. . ... ... ... P7E : G-3 00 . ... : E-# 00 5 ... : ... .. . ...
ROW 0F : D#3 00 . ... ... ... ... : ... .. . ... ... ... ... : ... .. . ... : ... .. 4 ... : ... .. . ...
ROW 10 : E-3 00 5 ... ... ... ... : ... .. . ... ... ... ... : ... .. . ... : ... .. 3 ... : ... .. . ...
ROW 11 : ... .. . ... ... ... ... : ... .. . ... ... ... ... : ... .. . ... : ... .. 2 ... : ... .. . ...
ROW 12 : ... .. 4 ... ... ... ... : ... .. . ... ... ... ... : ... .. . ... : ... .. 1 ... : ... .. . ...
ROW 13 : ... .. . ... ... ... ... : ... .. . ... ... ... ... : ... .. . ... : ... .. 0 ... : ... .. . ...
ROW 14 : ... .. 3 ... ... ... ... : ... .. . ... ... ... ... : ... .. . ... : ... .. . ... : ... .. . ...
ROW 15 : ... .. . ... ... ... P81 : ... .. . ... ... ... ... : --- .. . ... : F-# 00 5 ... : ... .. . ...
ROW 16 : ... .. 2 ... ... ... ... : ... .. . ... ... ... ... : ... .. . ... : ... .. 4 ... : ... .. . ...
ROW 17 : ... .. . ... ... ... ... : ... .. . ... ... ... ... : ... .. . ... : ... .. 3 ... : ... .. . ...
ROW 18 : ... .. 1 ... ... ... P80 : ... .. . ... ... ... ... : ... .. . ... : ... .. 2 ... : ... .. . ...
ROW 19 : ... .. . ... ... ... ... : ... .. . ... ... ... ... : ... .. . ... : ... .. 1 ... : ... .. . ...
ROW 1A : ... .. . ... ... ... ... : ... .. . ... ... ... ... : ... .. . ... : ... .. 0 ... : ... .. . ...
ROW 1B : ... .. . ... ... ... P7F : ... .. . ... ... ... ... : ... .. . ... : ... .. . ... : ... .. . ...
ROW 1C : D#3 00 6 ... ... ... P80 : D-3 00 2 V00 P7F ... ... : G-2 00 . ... : 7-# 00 5 ... : ... .. . ...
ROW 1D : E-3 00 . ... ... ... ... : D#3 .. . ... ... ... ... : ... .. . ... : ... .. 4 ... : ... .. . ...
ROW 1E : F-3 00 5 ... ... ... ... : E-3 .. . ... ... ... ... : ... .. . ... : ... .. 3 ... : ... .. . ...
ROW 1F : ... .. . ... ... ... ... : ... .. . ... ... ... ... : ... .. . ... : ... .. . ... : ... .. . ...
ROW 20 : ... .. 4 ... ... ... ... : ... .. . ... ... ... ... : ... .. . ... : ... .. 2 ... : ... .. . ...
ROW 21 : ... .. . ... ... ... ... : ... .. . ... ... ... ... : ... .. . ... : ... .. . ... : ... .. . ...
ROW 22 : ... .. 3 ... ... ... ... : ... .. . ... ... ... ... : ... .. . ... : ... .. 1 ... : ... .. . ...
ROW 23 : ... .. . ... ... ... P81 : ... .. . ... ... ... P7F : --- .. . ... : ... .. . ... : ... .. . ...
ROW 24 : ... .. 2 ... ... ... ... : ... .. . ... ... ... ... : ... .. . ... : ... .. 0 ... : ... .. . ...
ROW 25 : ... .. . ... ... ... ... : ... .. . ... ... ... ... : ... .. . ... : ... .. . ... : ... .. . ...
ROW 26 : ... .. 1 ... ... ... P80 : ... .. 1 ... ... ... P7E : ... .. . ... : ... .. . ... : ... .. . ...
ROW 27 : E-3 00 . ... ... ... ... : ... .. . ... ... ... ... : ... .. . ... : ... .. . ... : ... .. . ...
ROW 28 : ... .. . ... ... ... ... : ... .. . ... ... ... ... : ... .. . ... : ... .. . ... : ... .. . ...
ROW 29 : ... .. . ... ... ... ... : ... .. . ... ... ... P7D : ... .. . ... : ... .. . ... : ... .. . ...
ROW 2A : G-3 00 6 ... ... ... ... : D#3 00 2 ... ... ... P7E : G-3 00 . ... : E-# 00 5 ... : ... .. . ...
ROW 2B : G#3 00 . ... ... ... ... : E-3 .. . ... ... ... ... : ... .. . ... : ... .. 4 ... : ... .. . ...
ROW 2C : A-3 00 5 ... ... ... ... : F-3 .. . ... ... ... ... : ... .. . ... : ... .. 3 ... : ... .. . ...
ROW 2D : ... .. . ... ... ... ... : ... .. . ... ... ... ... : ... .. . ... : ... .. 2 ... : ... .. . ...
ROW 2E : ... .. 4 ... ... ... ... : ... .. . ... ... ... ... : ... .. . ... : ... .. 1 ... : ... .. . ...
ROW 2F : ... .. . ... ... ... ... : ... .. . ... ... ... ... : ... .. . ... : ... .. 0 ... : ... .. . ...
ROW 30 : ... .. 3 ... ... ... ... : ... .. . ... ... ... ... : ... .. . ... : ... .. . ... : ... .. . ...
ROW 31 : ... .. . ... ... ... P81 : ... .. . ... ... ... P7F : --- .. . ... : F-# 00 5 ... : ... .. . ...
ROW 32 : ... .. 2 ... ... ... ... : ... .. . ... ... ... ... : ... .. . ... : ... .. 4 ... : ... .. . ...
ROW 33 : ... .. . ... ... ... ... : ... .. . ... ... ... ... : ... .. . ... : ... .. 3 ... : ... .. . ...
ROW 34 : ... .. 1 ... ... ... P80 : ... .. 1 ... ... ... P7E : ... .. . ... : ... .. 2 ... : ... .. . ...
ROW 35 : F-3 00 . 300 ... ... ... : ... .. . ... ... ... ... : ... .. . ... : ... .. 1 ... : ... .. . ...
ROW 36 : ... .. . ... ... ... ... : ... .. . ... ... ... ... : ... .. . ... : ... .. 0 ... : ... .. . ...
ROW 37 : ... .. . ... ... ... ... : ... .. . ... ... ... ... : ... .. . ... : ... .. . ... : ... .. . ...
ROW 38 : F-3 00 6 ... ... ... ... : G-3 00 2 ... ... ... ... : C-3 00 . ... : 2-# 00 5 ... : ... .. . ...
ROW 39 : F#3 00 . ... ... ... ... : G#3 .. . ... ... ... ... : ... .. . ... : ... .. 4 ... : ... .. . ...
ROW 3A : G-3 00 . ... ... ... ... : A-3 .. . ... ... ... ... : ... .. . ... : ... .. 3 ... : ... .. . ...
ROW 3B : ... .. 5 ... ... ... ... : ... .. . ... ... ... ... : ... .. . ... : ... .. 2 ... : ... .. . ...
ROW 3C : ... .. . ... ... ... ... : ... .. . ... ... ... ... : ... .. . ... : ... .. 1 ... : ... .. . ...
ROW 3D : ... .. . ... ... ... ... : ... .. . ... ... ... ... : ... .. . ... : ... .. 0 ... : ... .. . ...
ROW 3E : ... .. 4 ... ... ... ... : ... .. . ... ... ... ... : ... .. . ... : ... .. . ... : ... .. . ...
ROW 3F : ... .. . ... ... ... P81 : ... .. . ... ... ... P7F : --- .. . ... : 2-# 00 1 ... : ... .. . ...
ROW 40 : ... .. . ... ... ... ... : ... .. . ... ... ... ... : ... .. . ... : ... .. 0 ... : ... .. . ...
ROW 41 : ... .. 3 ... ... ... ... : ... .. . ... ... ... ... : ... .. . ... : ... .. . ... : ... .. . ...
ROW 42 : ... .. . ... ... ... P80 : ... .. 1 ... ... ... P7E : ... .. . ... : ... .. . ... : ... .. . ...
ROW 43 : ... .. . ... ... ... ... : ... .. . ... ... ... ... : ... .. . ... : ... .. . ... : ... .. . ...
ROW 44 : A-3 00 1 ... ... ... ... : ... .. . ... ... ... ... : ... .. . ... : ... .. . ... : ... .. . ...
ROW 45 : ... .. . ... ... ... ... : ... .. . ... ... ... ... : ... .. . ... : ... .. . ... : ... .. . ...
ROW 46 : D-3 00 6 ... ... ... ... : F-3 00 2 ... ... ... ... : G-3 00 . ... : E-# 00 5 ... : ... .. . ...
ROW 47 : D#3 00 . ... ... ... ... : F#3 .. . ... ... ... ... : ... .. . ... : ... .. 4 ... : ... .. . ...
ROW 48 : E-3 00 5 ... ... ... ... : G-3 .. . ... ... ... ... : ... .. . ... : ... .. 3 ... : ... .. . ...
ROW 49 : ... .. . ... ... ... ... : ... .. . ... ... ... ... : ... .. . ... : ... .. 2 ... : ... .. . ...
ROW 4A : ... .. 4 ... ... ... ... : ... .. . ... ... ... ... : ... .. . ... : ... .. 1 ... : ... .. . ...
ROW 4B : ... .. . ... ... ... ... : ... .. . ... ... ... ... : ... .. . ... : ... .. 0 ... : ... .. . ...
ROW 4C : ... .. 3 ... ... ... ... : ... .. . ... ... ... ... : ... .. . ... : ... .. . ... : ... .. . ...
ROW 4D : ... .. . ... ... ... P81 : ... .. . ... ... ... P7F : --- .. . ... : F-# 00 5 ... : ... .. . ...
ROW 4E : ... .. 2 ... ... ... ... : ... .. . ... ... ... ... : ... .. . ... : ... .. 4 ... : ... .. . ...
ROW 4F : ... .. . ... ... ... ... : ... .. . ... ... ... ... : ... .. . ... : ... .. 3 ... : ... .. . ...
ROW 50 : ... .. 1 ... ... ... P80 : ... .. 1 ... ... ... P7E : ... .. . ... : ... .. 2 ... : ... .. . ...
ROW 51 : G-3 00 . ... ... ... ... : ... .. . ... ... ... ... : ... .. . ... : ... .. 1 ... : ... .. . ...
ROW 52 : ... .. . ... ... ... ... : ... .. . ... ... ... ... : ... .. . ... : ... .. 0 ... : ... .. . ...
ROW 53 : ... .. . ... ... ... ... : ... .. . ... ... ... ... : ... .. . ... : ... .. . ... : ... .. . ...
ROW 54 : D#3 00 6 ... ... ... ... : D-3 00 2 ... ... ... ... : G-2 00 . ... : 7-# 00 5 ... : ... .. . ...
ROW 55 : E-3 00 . ... ... ... ... : D#3 .. . ... ... ... ... : ... .. . ... : ... .. 4 ... : ... .. . ...
ROW 56 : F-3 00 5 ... ... ... ... : E-3 .. . ... ... ... ... : ... .. . ... : ... .. 3 ... : ... .. . ...
ROW 57 : ... .. . ... ... ... ... : ... .. . ... ... ... ... : ... .. . ... : ... .. . ... : ... .. . ...
ROW 58 : ... .. 4 ... ... ... ... : ... .. . ... ... ... ... : ... .. . ... : ... .. 2 ... : ... .. . ...
ROW 59 : ... .. . ... ... ... ... : ... .. . ... ... ... ... : ... .. . ... : ... .. . ... : ... .. . ...
ROW 5A : ... .. 3 ... ... ... ... : ... .. . ... ... ... ... : ... .. . ... : ... .. 1 ... : ... .. . ...
ROW 5B : ... .. . ... ... ... P81 : ... .. . ... ... ... P7F : --- .. . ... : ... .. . ... : ... .. . ...
ROW 5C : ... .. 2 ... ... ... ... : ... .. . ... ... ... ... : ... .. . ... : ... .. 0 ... : ... .. . ...
ROW 5D : ... .. . ... ... ... ... : ... .. . ... ... ... ... : ... .. . ... : ... .. . ... : ... .. . ...
ROW 5E : ... .. 1 ... ... ... P80 : ... .. 1 ... ... ... P7E : ... .. . ... : ... .. . ... : ... .. . ...
ROW 5F : E-3 00 . ... ... ... ... : ... .. . ... ... ... ... : ... .. . ... : ... .. . ... : ... .. . ...
ROW 60 : ... .. . ... ... ... ... : ... .. . ... ... ... ... : ... .. . ... : ... .. . ... : ... .. . ...
ROW 61 : ... .. . ... ... ... ... : ... .. . ... ... ... ... : ... .. . ... : ... .. . ... : ... .. . ...
ROW 62 : C-3 00 6 ... ... ... ... : D#3 00 2 ... ... ... ... : A-2 00 . ... : E-# 00 5 ... : ... .. . ...
ROW 63 : C#3 00 . ... ... ... ... : E-3 .. . ... ... ... ... : ... .. . ... : ... .. 4 ... : ... .. . ...
ROW 64 : D-3 00 5 ... ... ... ... : F-3 .. . ... ... ... ... : ... .. . ... : ... .. 3 ... : ... .. . ...
ROW 65 : ... .. . ... ... ... ... : ... .. . ... ... ... ... : ... .. . ... : ... .. 2 ... : ... .. . ...
ROW 66 : ... .. 4 ... ... ... ... : ... .. . ... ... ... ... : ... .. . ... : ... .. 1 ... : ... .. . ...
ROW 67 : ... .. . ... ... ... ... : ... .. . ... ... ... ... : ... .. . ... : ... .. 0 ... : ... .. . ...
ROW 68 : ... .. 3 ... ... ... ... : ... .. . ... ... ... ... : --- .. . ... : ... .. . ... : ... .. . ...
ROW 69 : ... .. . ... ... ... P81 : ... .. . ... ... ... P7F : B-2 00 . ... : F-# 00 5 ... : ... .. . ...
ROW 6A : ... .. 2 ... ... ... ... : ... .. . ... ... ... ... : ... .. . ... : ... .. 4 ... : ... .. . ...
ROW 6B : ... .. . ... ... ... ... : ... .. . ... ... ... ... : ... .. . ... : ... .. 3 ... : ... .. . ...
ROW 6C : ... .. 1 ... ... ... P80 : ... .. 1 ... ... ... P7E : ... .. . ... : ... .. 2 ... : ... .. . ...
ROW 6D : F-3 00 . ... ... ... ... : ... .. . ... ... ... ... : ... .. . ... : ... .. 1 ... : ... .. . ...
ROW 6E : ... .. . ... ... ... ... : ... .. . ... ... ... ... : ... .. . ... : ... .. 0 ... : ... .. . ...
ROW 6F : ... .. . ... ... ... ... : ... .. . ... ... ... ... : --- .. . ... : ... .. . ... : ... .. . ...
ROW 70 : D-3 00 6 ... ... ... ... : C-3 00 2 ... ... ... ... : C-3 00 . ... : 2-# 00 5 ... : ... .. . ...
ROW 71 : D#3 00 . ... ... ... ... : C#3 .. . ... ... ... ... : ... .. . ... : ... .. 4 ... : ... .. . ...
ROW 72 : E-3 00 5 ... ... ... ... : D-3 .. . ... ... ... ... : ... .. . ... : ... .. 3 ... : ... .. . ...
ROW 73 : ... .. . ... ... ... ... : ... .. . ... ... ... ... : ... .. . ... : ... .. 2 ... : ... .. . ...
ROW 74 : ... .. 4 ... ... ... ... : ... .. . ... ... ... ... : ... .. . ... : ... .. 1 ... : ... .. . ...
ROW 75 : ... .. . ... ... ... ... : ... .. . ... ... ... ... : ... .. . ... : ... .. 0 ... : ... .. . ...
ROW 76 : ... .. . ... ... ... ... : ... .. . ... ... ... ... : ... .. . ... : ... .. . ... : ... .. . ...
ROW 77 : ... .. . ... ... ... ... : ... .. . ... ... ... P7F : --- .. . ... : 2-# 00 1 ... : ... .. . ...
ROW 78 : ... .. . ... ... ... ... : ... .. . ... ... ... ... : ... .. . ... : ... .. 0 ... : ... .. . ...
ROW 79 : ... .. . ... ... ... ... : ... .. . ... ... ... ... : ... .. . ... : ... .. . ... : ... .. . ...
ROW 7A : ... .. . ... ... ... ... : ... .. 1 ... ... ... P7E : ... .. . ... : ... .. . ... : ... .. . ...
ROW 7B : ... .. . ... ... ... ... : ... .. . ... ... ... ... : ... .. . ... : ... .. . ... : ... .. . ...
ROW 7C : ... .. . ... ... ... ... : ... .. . ... ... ... ... : ... .. . ... : ... .. . ... : ... .. . ...
ROW 7D : ... .. . ... ... ... ... : ... .. . ... ... ... ... : ... .. . ... : ... .. . ... : ... .. . ...
ROW 7E : ... .. . ... ... ... P81 : D-3 00 2 ... ... ... ... : G-3 00 . ... : E-# 00 5 ... : ... .. . ...
ROW 7F : ... .. . ... ... ... ... : D#3 .. . ... ... ... ... : ... .. . ... : ... .. 4 ... : ... .. . ...
ROW 80 : ... .. . ... ... ... ... : E-3 .. . ... ... ... ... : ... .. . ... : ... .. 3 ... : ... .. . ...
ROW 81 : ... .. . ... ... ... P80 : ... .. . ... ... ... ... : ... .. . ... : ... .. 2 ... : ... .. . ...
ROW 82 : ... .. . ... ... ... ... : ... .. . ... ... ... ... : ... .. . ... : ... .. 1 ... : ... .. . ...
ROW 83 : ... .. . ... ... ... ... : ... .. . ... ... ... ... : ... .. . ... : ... .. 0 ... : ... .. . ...
ROW 84 : ... .. . ... ... ... P7F : ... .. . ... ... ... ... : ... .. . ... : ... .. . ... : ... .. . ...
ROW 85 : ... .. . ... ... ... ... : ... .. . ... ... ... ... : --- .. . ... : F-# 00 5 ... : ... .. . ...
ROW 86 : ... .. 3 ... ... ... ... : ... .. . ... ... ... ... : ... .. . ... : ... .. 4 ... : ... .. . ...
ROW 87 : ... .. . ... ... ... P80 : ... .. . ... ... ... ... : ... .. . ... : ... .. 3 ... : ... .. . ...
ROW 88 : ... .. 2 ... ... ... ... : ... .. . ... ... ... ... : ... .. . ... : ... .. 2 ... : ... .. . ...
ROW 89 : ... .. . ... ... ... ... : ... .. . ... ... ... ... : ... .. . ... : ... .. 1 ... : ... .. . ...
ROW 8A : ... .. 1 ... ... ... P81 : ... .. . ... ... ... ... : ... .. . ... : ... .. 0 ... : ... .. . ...
ROW 8B : ... .. . ... ... ... ... : ... .. . ... ... ... ... : ... .. . ... : ... .. . ... : ... .. . ...
ROW 8C : F-3 00 6 ... ... ... P80 : ... .. . ... ... ... P7F : G-2 00 . ... : 7-# 00 5 ... : ... .. . ...
ROW 8D : F#3 00 . ... ... ... ... : ... .. . ... ... ... ... : ... .. . ... : ... .. 4 ... : ... .. . ...
ROW 8E : G-3 00 5 ... ... ... ... : ... .. . ... ... ... ... : ... .. . ... : ... .. 3 ... : ... .. . ...
ROW 8F : ... .. . ... ... ... ... : ... .. . ... ... ... P7E : ... .. . ... : ... .. . ... : ... .. . ...
ROW 90 : ... .. 4 ... ... ... ... : ... .. . ... ... ... ... : ... .. . ... : ... .. 2 ... : ... .. . ...
ROW 91 : ... .. . ... ... ... ... : ... .. . ... ... ... ... : ... .. . ... : ... .. . ... : ... .. . ...
ROW 92 : ... .. . ... ... ... ... : ... .. . ... ... ... P7D : ... .. . ... : ... .. 1 ... : ... .. . ...
ROW 93 : ... .. . ... ... ... ... : ... .. . ... ... ... ... : --- .. . ... : ... .. . ... : ... .. . ...
ROW 94 : ... .. . ... ... ... ... : ... .. . ... ... ... ... : ... .. . ... : ... .. 0 ... : ... .. . ...
ROW 95 : ... .. . ... ... ... ... : ... .. . ... ... ... P7E : ... .. . ... : ... .. . ... : ... .. . ...
ROW 96 : ... .. . ... ... ... ... : ... .. 1 ... ... ... ... : ... .. . ... : ... .. . ... : ... .. . ...
ROW 97 : ... .. . ... ... ... ... : ... .. . ... ... ... ... : ... .. . ... : ... .. . ... : ... .. . ...
ROW 98 : ... .. . ... ... ... ... : ... .. . ... ... ... P7F : ... .. . ... : ... .. . ... : ... .. . ...
ROW 99 : ... .. . ... ... ... ... : ... .. . ... ... ... ... : ... .. . ... : ... .. . ... : ... .. . ...
ROW 9A : ... .. . ... ... ... P81 : F-3 00 2 ... ... ... P7E : G-3 00 . ... : E-# 00 5 ... : ... .. . ...
ROW 9B : ... .. . ... ... ... ... : F#3 .. . ... ... ... ... : ... .. . ... : ... .. 4 ... : ... .. . ...
ROW 9C : ... .. . ... ... ... ... : G-3 .. . ... ... ... ... : ... .. . ... : ... .. 3 ... : ... .. . ...
ROW 9D : ... .. . ... ... ... P80 : ... .. . ... ... ... ... : ... .. . ... : ... .. 2 ... : ... .. . ...
ROW 9E : ... .. . ... ... ... ... : ... .. . ... ... ... ... : ... .. . ... : ... .. 1 ... : ... .. . ...
ROW 9F : ... .. . ... ... ... ... : ... .. . ... ... ... ... : ... .. . ... : ... .. 0 ... : ... .. . ...
ROW A0 : ... .. . ... ... ... P7F : ... .. . ... ... ... ... : ... .. . ... : ... .. . ... : ... .. . ...
ROW A1 : ... .. . ... ... ... ... : ... .. . ... ... ... ... : --- .. . ... : F-# 00 5 ... : ... .. . ...
ROW A2 : ... .. 3 ... ... ... ... : ... .. . ... ... ... ... : ... .. . ... : ... .. 4 ... : ... .. . ...
ROW A3 : ... .. . ... ... ... P80 : ... .. . ... ... ... ... : ... .. . ... : ... .. 3 ... : ... .. . ...
ROW A4 : ... .. 2 ... ... ... ... : ... .. . ... ... ... ... : ... .. . ... : ... .. 2 ... : ... .. . ...
ROW A5 : ... .. . ... ... ... ... : ... .. . ... ... ... ... : ... .. . ... : ... .. 1 ... : ... .. . ...
ROW A6 : ... .. 1 ... ... ... P81 : ... .. . ... ... ... ... : ... .. . ... : ... .. 0 ... : ... .. . ...
ROW A7 : ... .. . ... ... ... ... : ... .. . ... ... ... ... : ... .. . ... : ... .. . ... : ... .. . ...
ROW A8 : D-3 00 6 ... ... ... P80 : ... .. . ... ... ... P7F : C-3 00 . ... : 2-# 00 5 ... : ... .. . ...
ROW A9 : D#3 00 . ... ... ... ... : ... .. . ... ... ... ... : ... .. . ... : ... .. 4 ... : ... .. . ...
ROW AA : E-3 00 5 ... ... ... ... : ... .. . ... ... ... ... : ... .. . ... : ... .. 3 ... : ... .. . ...
ROW AB : ... .. . ... ... ... ... : ... .. . ... ... ... P7E : ... .. . ... : ... .. 2 ... : ... .. . ...
ROW AC : ... .. 4 ... ... ... ... : ... .. . ... ... ... ... : ... .. . ... : ... .. 1 ... : ... .. . ...
ROW AD : ... .. . ... ... ... ... : ... .. . ... ... ... ... : ... .. . ... : ... .. 0 ... : ... .. . ...
ROW AE : ... .. . ... ... ... ... : ... .. . ... ... ... P7D : ... .. . ... : ... .. . ... : ... .. . ...
ROW AF : ... .. . ... ... ... ... : ... .. . ... ... ... ... : --- .. . ... : 2-# 00 1 ... : ... .. . ...
ROW B0 : ... .. . ... ... ... ... : ... .. . ... ... ... ... : ... .. . ... : ... .. 0 ... : ... .. . ...
ROW B1 : ... .. . ... ... ... ... : ... .. . ... ... ... P7E : ... .. . ... : ... .. . ... : ... .. . ...
ROW B2 : ... .. . ... ... ... ... : ... .. 1 ... ... ... ... : ... .. . ... : ... .. . ... : ... .. . ...
ROW B3 : ... .. . ... ... ... ... : ... .. . ... ... ... ... : ... .. . ... : ... .. . ... : ... .. . ...
ROW B4 : ... .. . ... ... ... ... : ... .. . ... ... ... P7F : ... .. . ... : ... .. . ... : ... .. . ...
ROW B5 : ... .. . ... ... ... ... : ... .. . ... ... ... ... : ... .. . ... : ... .. . ... : ... .. . ...
ROW B6 : ... .. . ... ... ... P81 : D-3 00 2 ... ... ... P7E : G-3 00 . ... : E-# 00 5 ... : ... .. . ...
ROW B7 : ... .. . ... ... ... ... : D#3 .. . ... ... ... ... : ... .. . ... : ... .. 4 ... : ... .. . ...
ROW B8 : ... .. . ... ... ... ... : E-3 .. . ... ... ... ... : ... .. . ... : ... .. 3 ... : ... .. . ...
ROW B9 : ... .. . ... ... ... P80 : ... .. . ... ... ... ... : ... .. . ... : ... .. 2 ... : ... .. . ...
ROW BA : ... .. . ... ... ... ... : ... .. . ... ... ... ... : ... .. . ... : ... .. 1 ... : ... .. . ...
ROW BB : ... .. . ... ... ... ... : ... .. . ... ... ... ... : ... .. . ... : ... .. 0 ... : ... .. . ...
ROW BC : ... .. . ... ... ... P7F : ... .. . ... ... ... ... : ... .. . ... : ... .. . ... : ... .. . ...
ROW BD : ... .. . ... ... ... ... : ... .. . ... ... ... ... : --- .. . ... : F-# 00 5 ... : ... .. . ...
ROW BE : ... .. 3 ... ... ... ... : ... .. . ... ... ... ... : ... .. . ... : ... .. 4 ... : ... .. . ...
ROW BF : ... .. . ... ... ... P80 : ... .. . ... ... ... ... : ... .. . ... : ... .. 3 ... : ... .. . ...
ROW C0 : ... .. 2 ... ... ... ... : ... .. . ... ... ... ... : ... .. . ... : ... .. 2 ... : ... .. . ...
ROW C1 : ... .. . ... ... ... ... : ... .. . ... ... ... ... : ... .. . ... : ... .. 1 ... : ... .. . ...
ROW C2 : ... .. 1 ... ... ... P81 : ... .. . ... ... ... ... : ... .. . ... : ... .. 0 ... : ... .. . ...
ROW C3 : ... .. . ... ... ... ... : ... .. . ... ... ... ... : ... .. . ... : ... .. . ... : ... .. . ...
ROW C4 : F-3 00 6 ... ... ... P80 : ... .. . ... ... ... P7F : C-3 00 . ... : 7-# 00 5 ... : ... .. . ...
ROW C5 : F#3 00 . ... ... ... ... : ... .. . ... ... ... ... : ... .. . ... : ... .. 4 ... : ... .. . ...
ROW C6 : G-3 00 5 ... ... ... ... : ... .. . ... ... ... ... : ... .. . ... : ... .. 3 ... : ... .. . ...
ROW C7 : ... .. . ... ... ... ... : ... .. . ... ... ... P7E : ... .. . ... : ... .. . ... : ... .. . ...
ROW C8 : ... .. 4 ... ... ... ... : ... .. . ... ... ... ... : ... .. . ... : ... .. 2 ... : ... .. . ...
ROW C9 : ... .. . ... ... ... ... : ... .. . ... ... ... ... : ... .. . ... : ... .. . ... : ... .. . ...
ROW CA : ... .. . ... ... ... ... : ... .. . ... ... ... P7D : ... .. . ... : ... .. 1 ... : ... .. . ...
ROW CB : ... .. . ... ... ... ... : ... .. . ... ... ... ... : --- .. . ... : ... .. . ... : ... .. . ...
ROW CC : ... .. . ... ... ... ... : ... .. . ... ... ... ... : ... .. . ... : ... .. 0 ... : ... .. . ...
ROW CD : ... .. . ... ... ... ... : ... .. . ... ... ... P7E : ... .. . ... : ... .. . ... : ... .. . ...
ROW CE : ... .. . ... ... ... ... : ... .. 1 ... ... ... ... : ... .. . ... : ... .. . ... : ... .. . ...
ROW CF : ... .. . ... ... ... ... : ... .. . ... ... ... ... : ... .. . ... : ... .. . ... : ... .. . ...
ROW D0 : ... .. . ... ... ... ... : ... .. . ... ... ... P7F : ... .. . ... : ... .. . ... : ... .. . ...
ROW D1 : ... .. . ... ... ... ... : ... .. . ... ... ... ... : ... .. . ... : ... .. . ... : ... .. . ...
ROW D2 : ... .. . ... ... ... P81 : F-3 00 2 ... ... ... P7E : B-2 00 . ... : E-# 00 5 ... : ... .. . ...
ROW D3 : ... .. . ... ... ... ... : F#3 .. . ... ... ... ... : ... .. . ... : ... .. 4 ... : ... .. . ...
ROW D4 : ... .. . ... ... ... ... : G-3 .. . ... ... ... ... : ... .. . ... : ... .. 3 ... : ... .. . ...
ROW D5 : ... .. . ... ... ... P80 : ... .. . ... ... ... ... : ... .. . ... : ... .. 2 ... : ... .. . ...
ROW D6 : ... .. . ... ... ... ... : ... .. . ... ... ... ... : ... .. . ... : ... .. 1 ... : ... .. . ...
ROW D7 : ... .. . ... ... ... ... : ... .. . ... ... ... ... : ... .. . ... : ... .. 0 ... : ... .. . ...
ROW D8 : ... .. . ... ... ... P7F : ... .. . ... ... ... ... : --- .. . ... : ... .. . ... : ... .. . ...
ROW D9 : ... .. . ... ... ... ... : ... .. . ... ... ... ... : A#2 00 . ... : F-# 00 5 ... : ... .. . ...
ROW DA : ... .. . ... ... ... ... : ... .. . ... ... ... ... : ... .. . ... : ... .. 4 ... : ... .. . ...
ROW DB : ... .. . ... ... ... P80 : ... .. . ... ... ... ... : ... .. . ... : ... .. 3 ... : ... .. . ...
ROW DC : ... .. . ... ... ... ... : ... .. . ... ... ... ... : ... .. . ... : ... .. 2 ... : ... .. . ...
ROW DD : ... .. . ... ... ... ... : ... .. . ... ... ... ... : ... .. . ... : ... .. 1 ... : ... .. . ...
ROW DE : ... .. . ... ... ... P81 : ... .. . ... ... ... ... : ... .. . ... : ... .. 0 ... : ... .. . ...
ROW DF : ... .. . ... ... ... ... : ... .. . ... ... ... ... : --- .. . ... : ... .. . ... : ... .. . ...

PATTERN 08
ROW 00 : ... .. . ... ... ... ... : ... .. . ... ... ... P80 : A-2 00 . ... : 2-# 00 5 ... : ... .. . ...
ROW 01 : ... .. . ... ... ... P80 : ... .. . ... ... ... ... : ... .. . ... : ... .. 4 ... : ... .. . ...
ROW 02 : ... .. . ... ... ... ... : ... .. . ... ... ... ... : ... .. . ... : ... .. 3 ... : ... .. . ...
ROW 03 : ... .. . ... ... ... ... : ... .. . ... ... ... P7F : ... .. . ... : ... .. 2 ... : ... .. . ...
ROW 04 : ... .. . ... ... ... P7F : ... .. . ... ... ... ... : ... .. . ... : ... .. 1 ... : ... .. . ...
ROW 05 : ... .. 3 ... ... ... ... : ... .. . ... ... ... ... : ... .. . ... : ... .. 0 ... : ... .. . ...
ROW 06 : ... .. . ... ... ... ... : ... .. . ... ... ... P7E : ... .. . ... : ... .. . ... : ... .. . ...
ROW 07 : ... .. . ... ... ... P80 : ... .. . ... ... ... ... : --- .. . ... : 2-# 00 1 ... : ... .. . ...
ROW 08 : ... .. 2 ... ... ... ... : ... .. . ... ... ... ... : ... .. . ... : ... .. 0 ... : ... .. . ...
ROW 09 : ... .. . ... ... ... ... : ... .. . ... ... ... P7F : ... .. . ... : ... .. . ... : ... .. . ...
ROW 0A : ... .. . ... ... ... P81 : ... .. . ... ... ... ... : ... .. . ... : ... .. . ... : ... .. . ...
ROW 0B : ... .. 1 ... ... ... ... : ... .. . ... ... ... ... : ... .. . ... : ... .. . ... : ... .. . ...
ROW 0C : ... .. . ... ... ... ... : ... .. . ... ... ... P80 : ... .. . ... : ... .. . ... : ... .. . ...
ROW 0D : ... .. . ... ... ... P80 : ... .. . ... ... ... ... : ... .. . ... : ... .. . ... : ... .. . ...
ROW 0E : A#2 00 6 V00 ... ... ... : ... .. . ... ... ... ... : E-3 00 . ... : E-# 00 5 ... : ... .. . ...
ROW 0F : B-2 00 . ... ... ... ... : ... .. . ... ... ... P7F : ... .. . ... : ... .. 4 ... : ... .. . ...
ROW 10 : C-3 00 5 ... ... ... ... : ... .. . ... ... ... ... : ... .. . ... : ... .. 3 ... : ... .. . ...
ROW 11 : ... .. . ... ... ... ... : ... .. . ... ... ... ... : ... .. . ... : ... .. 2 ... : ... .. . ...
ROW 12 : ... .. 4 ... ... ... ... : ... .. . ... ... ... P7E : ... .. . ... : ... .. 1 ... : ... .. . ...
ROW 13 : ... .. . ... ... ... ... : ... .. . ... ... ... ... : ... .. . ... : ... .. 0 ... : ... .. . ...
ROW 14 : ... .. 3 ... ... ... ... : ... .. . ... ... ... ... : ... .. . ... : ... .. . ... : ... .. . ...
ROW 15 : ... .. . ... ... ... P81 : ... .. . ... ... ... P7F : --- .. . ... : F-# 00 5 ... : ... .. . ...
ROW 16 : ... .. 2 ... ... ... ... : ... .. . ... ... ... ... : ... .. . ... : ... .. 4 ... : ... .. . ...
ROW 17 : ... .. . ... ... ... ... : ... .. . ... ... ... ... : ... .. . ... : ... .. 3 ... : ... .. . ...
ROW 18 : ... .. 1 ... ... ... P80 : ... .. . ... ... ... P80 : ... .. . ... : ... .. 2 ... : ... .. . ...
ROW 19 : ... .. . ... ... ... ... : ... .. . ... ... ... ... : ... .. . ... : ... .. 1 ... : ... .. . ...
ROW 1A : ... .. . ... ... ... ... : ... .. . ... ... ... ... : ... .. . ... : ... .. 0 ... : ... .. . ...
ROW 1B : ... .. . ... ... ... ... : ... .. . ... ... ... P7F : ... .. . ... : ... .. . ... : ... .. . ...
ROW 1C : C-3 00 6 ... ... ... ... : C-3 00 2 V00 ... ... ... : E-2 00 . ... : 7-# 00 5 ... : ... .. . ...
ROW 1D : C#3 00 . ... ... ... ... : ... .. . ... ... ... ... : ... .. . ... : ... .. 4 ... : ... .. . ...
ROW 1E : D-3 00 5 ... ... ... ... : ... .. . ... ... ... ... : ... .. . ... : ... .. 3 ... : ... .. . ...
ROW 1F : ... .. . ... ... ... ... : ... .. . ... ... ... ... : ... .. . ... : ... .. . ... : ... .. . ...
ROW 20 : ... .. 4 ... ... ... ... : ... .. 1 ... ... ... ... : ... .. . ... : ... .. 2 ... : ... .. . ...
ROW 21 : ... .. . ... ... ... ... : ... .. . ... ... ... ... : ... .. . ... : ... .. . ... : ... .. . ...
ROW 22 : ... .. 3 ... ... ... ... : ... .. . ... ... ... ... : ... .. . ... : ... .. 1 ... : ... .. . ...
ROW 23 : ... .. . ... ... ... P81 : ... .. . ... ... ... P80 : --- .. . ... : ... .. . ... : ... .. . ...
ROW 24 : ... .. 2 ... ... ... ... : ... .. . ... ... ... ... : ... .. . ... : ... .. 0 ... : ... .. . ...
ROW 25 : ... .. . ... ... ... ... : ... .. . ... ... ... ... : ... .. . ... : ... .. . ... : ... .. . ...
ROW 26 : ... .. 1 ... ... ... P80 : ... .. . ... ... ... P7F : ... .. . ... : ... .. . ... : ... .. . ...
ROW 27 : C-3 00 . ... ... ... ... : ... .. . ... ... ... ... : ... .. . ... : ... .. . ... : ... .. . ...
ROW 28 : ... .. . ... ... ... ... : ... .. . ... ... ... ... : ... .. . ... : ... .. . ... : ... .. . ...
ROW 29 : ... .. . ... ... ... ... : ... .. . ... ... ... ... : ... .. . ... : ... .. . ... : ... .. . ...
ROW 2A : D#3 00 6 ... ... ... ... : D-3 00 2 ... ... ... ... : E-3 00 . ... : E-# 00 5 ... : ... .. . ...
ROW 2B : E-3 00 . ... ... ... ... : ... .. . ... ... ... ... : ... .. . ... : ... .. 4 ... : ... .. . ...
ROW 2C : F-3 00 5 ... ... ... ... : ... .. . ... ... ... ... : ... .. . ... : ... .. 3 ... : ... .. . ...
ROW 2D : ... .. . ... ... ... ... : ... .. . ... ... ... ... : ... .. . ... : ... .. 2 ... : ... .. . ...
ROW 2E : ... .. 4 ... ... ... ... : ... .. 1 ... ... ... ... : ... .. . ... : ... .. 1 ... : ... .. . ...
ROW 2F : ... .. . ... ... ... ... : ... .. . ... ... ... ... : ... .. . ... : ... .. 0 ... : ... .. . ...
ROW 30 : ... .. 3 ... ... ... ... : ... .. . ... ... ... ... : ... .. . ... : ... .. . ... : ... .. . ...
ROW 31 : ... .. . ... ... ... P81 : ... .. . ... ... ... P80 : --- .. . ... : F-# 00 5 ... : ... .. . ...
ROW 32 : ... .. 2 ... ... ... ... : ... .. . ... ... ... ... : ... .. . ... : ... .. 4 ... : ... .. . ...
ROW 33 : ... .. . ... ... ... ... : ... .. . ... ... ... ... : ... .. . ... : ... .. 3 ... : ... .. . ...
ROW 34 : ... .. 1 ... ... ... P80 : ... .. . ... ... ... P7F : ... .. . ... : ... .. 2 ... : ... .. . ...
ROW 35 : D-3 00 . ... ... ... ... : ... .. . ... ... ... ... : ... .. . ... : ... .. 1 ... : ... .. . ...
ROW 36 : ... .. . ... ... ... ... : ... .. . ... ... ... ... : ... .. . ... : ... .. 0 ... : ... .. . ...
ROW 37 : ... .. . ... ... ... ... : ... .. . ... ... ... ... : ... .. . ... : ... .. . ... : ... .. . ...
ROW 38 : D-3 00 6 ... ... ... ... : F-3 00 2 ... ... ... ... : A-2 00 . ... : 2-# 00 5 ... : ... .. . ...
ROW 39 : D#3 00 . ... ... ... ... : ... .. . ... ... ... ... : ... .. . ... : ... .. 4 ... : ... .. . ...
ROW 3A : E-3 00 . ... ... ... ... : ... .. . ... ... ... ... : ... .. . ... : ... .. 3 ... : ... .. . ...
ROW 3B : ... .. 5 ... ... ... ... : ... .. . ... ... ... ... : ... .. . ... : ... .. 2 ... : ... .. . ...
ROW 3C : ... .. . ... ... ... ... : ... .. 1 ... ... ... ... : ... .. . ... : ... .. 1 ... : ... .. . ...
ROW 3D : ... .. . ... ... ... ... : ... .. . ... ... ... ... : ... .. . ... : ... .. 0 ... : ... .. . ...
ROW 3E : ... .. 4 ... ... ... ... : ... .. . ... ... ... ... : ... .. . ... : ... .. . ... : ... .. . ...
ROW 3F : ... .. . ... ... ... P81 : ... .. . ... ... ... P80 : --- .. . ... : 2-# 00 1 ... : ... .. . ...
ROW 40 : ... .. . ... ... ... ... : ... .. . ... ... ... ... : ... .. . ... : ... .. 0 ... : ... .. . ...
ROW 41 : ... .. 3 ... ... ... ... : ... .. . ... ... ... ... : ... .. . ... : ... .. . ... : ... .. . ...
ROW 42 : ... .. . ... ... ... P80 : ... .. . ... ... ... P7F : ... .. . ... : ... .. . ... : ... .. . ...
ROW 43 : ... .. . ... ... ... ... : ... .. . ... ... ... ... : ... .. . ... : ... .. . ... : ... .. . ...
ROW 44 : F-3 00 1 ... ... ... ... : ... .. . ... ... ... ... : ... .. . ... : ... .. . ... : ... .. . ...
ROW 45 : ... .. . ... ... ... ... : ... .. . ... ... ... ... : ... .. . ... : ... .. . ... : ... .. . ...
ROW 46 : A#2 00 6 ... ... ... ... : E-3 00 2 ... ... ... ... : E-3 00 . ... : E-# 00 5 ... : ... .. . ...
ROW 47 : B-2 00 . ... ... ... ... : ... .. . ... ... ... ... : ... .. . ... : ... .. 4 ... : ... .. . ...
ROW 48 : C-3 00 5 ... ... ... ... : ... .. . ... ... ... ... : ... .. . ... : ... .. 3 ... : ... .. . ...
ROW 49 : ... .. . ... ... ... ... : ... .. . ... ... ... ... : ... .. . ... : ... .. 2 ... : ... .. . ...
ROW 4A : ... .. 4 ... ... ... ... : ... .. 1 ... ... ... ... : ... .. . ... : ... .. 1 ... : ... .. . ...
ROW 4B : ... .. . ... ... ... ... : ... .. . ... ... ... ... : ... .. . ... : ... .. 0 ... : ... .. . ...
ROW 4C : ... .. 3 ... ... ... ... : ... .. . ... ... ... ... : ... .. . ... : ... .. . ... : ... .. . ...
ROW 4D : ... .. . ... ... ... P81 : ... .. . ... ... ... P80 : --- .. . ... : F-# 00 5 ... : ... .. . ...
ROW 4E : ... .. 2 ... ... ... ... : ... .. . ... ... ... ... : ... .. . ... : ... .. 4 ... : ... .. . ...
ROW 4F : ... .. . ... ... ... ... : ... .. . ... ... ... ... : ... .. . ... : ... .. 3 ... : ... .. . ...
ROW 50 : ... .. 1 ... ... ... P80 : ... .. . ... ... ... P7F : ... .. . ... : ... .. 2 ... : ... .. . ...
ROW 51 : E-3 00 . ... ... ... ... : ... .. . ... ... ... ... : ... .. . ... : ... .. 1 ... : ... .. . ...
ROW 52 : ... .. . ... ... ... ... : ... .. . ... ... ... ... : ... .. . ... : ... .. 0 ... : ... .. . ...
ROW 53 : ... .. . ... ... ... ... : ... .. . ... ... ... ... : ... .. . ... : ... .. . ... : ... .. . ...
ROW 54 : C-3 00 6 ... ... ... ... : C-3 00 2 ... ... ... ... : G-2 00 . ... : 7-# 00 5 ... : ... .. . ...
ROW 55 : C#3 00 . ... ... ... ... : ... .. . ... ... ... ... : ... .. . ... : ... .. 4 ... : ... .. . ...
ROW 56 : D-3 00 5 ... ... ... ... : ... .. . ... ... ... ... : ... .. . ... : ... .. 3 ... : ... .. . ...
ROW 57 : ... .. . ... ... ... ... : ... .. . ... ... ... ... : ... .. . ... : ... .. . ... : ... .. . ...
ROW 58 : ... .. 4 ... ... ... ... : ... .. 1 ... ... ... ... : ... .. . ... : ... .. 2 ... : ... .. . ...
ROW 59 : ... .. . ... ... ... ... : ... .. . ... ... ... ... : ... .. . ... : ... .. . ... : ... .. . ...
ROW 5A : ... .. 3 ... ... ... ... : ... .. . ... ... ... ... : ... .. . ... : ... .. 1 ... : ... .. . ...
ROW 5B : ... .. . ... ... ... P81 : ... .. . ... ... ... P80 : --- .. . ... : ... .. . ... : ... .. . ...
ROW 5C : ... .. 2 ... ... ... ... : ... .. . ... ... ... ... : ... .. . ... : ... .. 0 ... : ... .. . ...
ROW 5D : ... .. . ... ... ... ... : ... .. . ... ... ... ... : ... .. . ... : ... .. . ... : ... .. . ...
ROW 5E : ... .. 1 ... ... ... P80 : ... .. . ... ... ... P7F : ... .. . ... : ... .. . ... : ... .. . ...
ROW 5F : C-3 00 . ... ... ... ... : ... .. . ... ... ... ... : ... .. . ... : ... .. . ... : ... .. . ...
ROW 60 : ... .. . ... ... ... ... : ... .. . ... ... ... ... : ... .. . ... : ... .. . ... : ... .. . ...
ROW 61 : ... .. . ... ... ... ... : ... .. . ... ... ... ... : ... .. . ... : ... .. . ... : ... .. . ...
ROW 62 : G-3 00 6 ... ... ... ... : D-3 00 2 ... ... ... ... : A-2 00 . ... : E-# 00 5 ... : ... .. . ...
ROW 63 : G#3 00 . ... ... ... ... : ... .. . ... ... ... ... : ... .. . ... : ... .. 4 ... : ... .. . ...
ROW 64 : A-3 00 5 ... ... ... ... : ... .. . ... ... ... ... : ... .. . ... : ... .. 3 ... : ... .. . ...
ROW 65 : ... .. . ... ... ... ... : ... .. . ... ... ... ... : ... .. . ... : ... .. 2 ... : ... .. . ...
ROW 66 : ... .. 4 ... ... ... ... : ... .. 1 ... ... ... ... : ... .. . ... : ... .. 1 ... : ... .. . ...
ROW 67 : ... .. . ... ... ... ... : ... .. . ... ... ... ... : ... .. . ... : ... .. 0 ... : ... .. . ...
ROW 68 : ... .. 3 ... ... ... ... : ... .. . ... ... ... ... : --- .. . ... : ... .. . ... : ... .. . ...
ROW 69 : ... .. . ... ... ... P81 : ... .. . ... ... ... P80 : B-2 00 . ... : F-# 00 5 ... : ... .. . ...
ROW 6A : ... .. 2 ... ... ... ... : ... .. . ... ... ... ... : ... .. . ... : ... .. 4 ... : ... .. . ...
ROW 6B : ... .. . ... ... ... ... : ... .. . ... ... ... ... : ... .. . ... : ... .. 3 ... : ... .. . ...
ROW 6C : ... .. 1 ... ... ... P80 : ... .. . ... ... ... P7F : ... .. . ... : ... .. 2 ... : ... .. . ...
ROW 6D : D-3 00 . ... ... ... ... : ... .. . ... ... ... ... : ... .. . ... : ... .. 1 ... : ... .. . ...
ROW 6E : ... .. . ... ... ... ... : ... .. . ... ... ... ... : ... .. . ... : ... .. 0 ... : ... .. . ...
ROW 6F : ... .. . ... ... ... ... : ... .. . ... ... ... ... : --- .. . ... : ... .. . ... : ... .. . ...
ROW 70 : F-3 00 6 ... ... ... ... : A-3 00 2 ... ... ... ... : C-3 00 . ... : 2-# 00 5 ... : ... .. . ...
ROW 71 : F#3 00 . ... ... ... ... : ... .. . ... ... ... ... : ... .. . ... : ... .. 4 ... : ... .. . ...
ROW 72 : G-3 00 5 ... ... ... ... : ... .. . ... ... ... ... : ... .. . ... : ... .. 3 ... : ... .. . ...
ROW 73 : ... .. . ... ... ... ... : ... .. . ... ... ... ... : ... .. . ... : ... .. 2 ... : ... .. . ...
ROW 74 : ... .. 4 ... ... ... ... : ... .. 1 ... ... ... ... : ... .. . ... : ... .. 1 ... : ... .. . ...
ROW 75 : ... .. . ... ... ... ... : ... .. . ... ... ... ... : ... .. . ... : ... .. 0 ... : ... .. . ...
ROW 76 : ... .. . ... ... ... ... : ... .. . ... ... ... ... : ... .. . ... : ... .. . ... : ... .. . ...
ROW 77 : ... .. . ... ... ... ... : ... .. . ... ... ... P80 : ... .. . ... : 2-# 00 1 ... : ... .. . ...
ROW 78 : ... .. . ... ... ... ... : ... .. . ... ... ... ... : ... .. . ... : ... .. 0 ... : ... .. . ...
ROW 79 : ... .. . ... ... ... ... : ... .. . ... ... ... ... : ... .. . ... : ... .. . ... : ... .. . ...
ROW 7A : ... .. . ... ... ... ... : ... .. . ... ... ... P7F : ... .. . ... : ... .. . ... : ... .. . ...
ROW 7B : ... .. . ... ... ... ... : ... .. . ... ... ... ... : ... .. . ... : ... .. . ... : ... .. . ...
ROW 7C : ... .. . ... ... ... ... : ... .. . ... ... ... ... : ... .. . ... : ... .. . ... : ... .. . ...
ROW 7D : ... .. . ... ... ... ... : ... .. . ... ... ... ... : ... .. . ... : ... .. . ... : ... .. . ...
ROW 7E : ... .. . ... ... ... ... : D-3 00 5 V00 ... ... P80 : F#4 00 . ... : 7-# 00 5 ... : ... .. . ...
ROW 7F : ... .. . ... ... ... ... : ... .. . ... ... ... ... : ... .. . ... : ... .. 4 ... : ... .. . ...
ROW 80 : ... .. . ... ... ... ... : ... .. . ... ... ... ... : ... .. . ... : ... .. 3 ... : ... .. . ...
ROW 81 : ... .. . ... ... ... ... : ... .. . ... ... ... ... : ... .. . ... : ... .. . ... : ... .. . ...
ROW 82 : ... .. . ... ... ... ... : ... .. . ... ... ... ... : ... .. . ... : ... .. 2 ... : ... .. . ...
ROW 83 : ... .. . ... ... ... ... : ... .. . ... ... ... ... : ... .. . ... : ... .. . ... : ... .. . ...
ROW 84 : ... .. . ... ... ... ... : ... .. . ... ... ... ... : ... .. . ... : ... .. 1 ... : ... .. . ...
ROW 85 : ... .. . ... ... ... ... : ... .. . ... ... ... ... : ... .. . ... : ... .. . ... : ... .. . ...
ROW 86 : ... .. . ... ... ... ... : ... .. . ... ... ... ... : ... .. . ... : ... .. 0 ... : ... .. . ...
ROW 87 : ... .. . ... ... ... ... : ... .. . ... ... ... ... : ... .. . ... : ... .. . ... : ... .. . ...
ROW 88 : ... .. . ... ... ... ... : ... .. . ... ... ... ... : ... .. . ... : ... .. . ... : ... .. . ...
ROW 89 : ... .. . ... ... ... ... : ... .. . ... ... ... ... : ... .. . ... : ... .. . ... : ... .. . ...
ROW 8A : ... .. . ... ... ... ... : ... .. . ... ... ... ... : ... .. . ... : ... .. . ... : ... .. . ...
ROW 8B : ... .. . ... ... ... ... : ... .. . ... ... ... ... : ... .. . ... : ... .. . ... : ... .. . ...
ROW 8C : ... .. . ... ... ... ... : C-3 00 . ... ... ... ... : E-4 00 . ... : 7-# 00 5 ... : ... .. . ...
ROW 8D : ... .. . ... ... ... ... : ... .. . ... ... ... ... : ... .. . ... : ... .. 4 ... : ... .. . ...
ROW 8E : ... .. . ... ... ... ... : ... .. . ... ... ... ... : ... .. . ... : ... .. 3 ... : ... .. . ...
ROW 8F : ... .. . ... ... ... ... : ... .. . ... ... ... ... : ... .. . ... : ... .. . ... : ... .. . ...
ROW 90 : ... .. . ... ... ... ... : ... .. . ... ... ... ... : ... .. . ... : ... .. 2 ... : ... .. . ...
ROW 91 : ... .. . ... ... ... ... : ... .. . ... ... ... ... : ... .. . ... : ... .. . ... : ... .. . ...
ROW 92 : ... .. . ... ... ... ... : ... .. . ... ... ... ... : ... .. . ... : ... .. 1 ... : ... .. . ...
ROW 93 : ... .. . ... ... ... ... : ... .. . ... ... ... ... : ... .. . ... : ... .. . ... : ... .. . ...
ROW 94 : ... .. . ... ... ... ... : ... .. . ... ... ... ... : ... .. . ... : ... .. 0 ... : ... .. . ...
ROW 95 : ... .. . ... ... ... ... : ... .. . ... ... ... ... : ... .. . ... : ... .. . ... : ... .. . ...
ROW 96 : ... .. . ... ... ... ... : ... .. . ... ... ... ... : ... .. . ... : ... .. . ... : ... .. . ...
ROW 97 : ... .. . ... ... ... ... : ... .. . ... ... ... ... : ... .. . ... : ... .. . ... : ... .. . ...
ROW 98 : ... .. . ... ... ... ... : ... .. . ... ... ... ... : ... .. . ... : ... .. . ... : ... .. . ...
ROW 99 : ... .. . ... ... ... ... : ... .. . ... ... ... ... : ... .. . ... : ... .. . ... : ... .. . ...
ROW 9A : ... .. . ... ... ... ... : G-3 00 1 ... ... ... ... : G-2 00 . ... : 2-# 00 5 ... : ... .. . ...
ROW 9B : ... .. . ... ... ... ... : ... .. . ... ... ... ... : ... .. . ... : ... .. 4 ... : ... .. . ...
ROW 9C : ... .. . ... ... ... ... : ... .. . ... ... ... ... : ... .. . ... : ... .. 3 ... : ... .. . ...
ROW 9D : ... .. . ... ... ... ... : ... .. . ... ... ... ... : ... .. . ... : ... .. 2 ... : ... .. . ...
ROW 9E : ... .. . ... ... ... ... : ... .. . ... ... ... ... : ... .. . ... : ... .. 1 ... : ... .. . ...
ROW 9F : ... .. . ... ... ... ... : ... .. . ... ... ... ... : ... .. . ... : ... .. 0 ... : ... .. . ...
ROW A0 : ... .. . ... ... ... ... : ... .. . ... ... ... ... : ... .. . ... : ... .. . ... : ... .. . ...
ROW A1 : ... .. . ... ... ... ... : ... .. . ... ... ... ... : ... .. . ... : 2-# 00 1 ... : ... .. . ...
ROW A2 : ... .. . ... ... ... ... : ... .. . ... ... ... ... : ... .. . ... : ... .. 0 ... : ... .. . ...
ROW A3 : ... .. . ... ... ... ... : ... .. . ... ... ... ... : ... .. . ... : ... .. . ... : ... .. . ...
ROW A4 : ... .. . ... ... ... ... : ... .. . ... ... ... ... : ... .. . ... : ... .. . ... : ... .. . ...
ROW A5 : ... .. . ... ... ... ... : ... .. . ... ... ... ... : ... .. . ... : ... .. . ... : ... .. . ...
ROW A6 : ... .. . ... ... ... ... : ... .. . ... ... ... ... : ... .. . ... : ... .. . ... : ... .. . ...
ROW A7 : ... .. . ... ... ... ... : ... .. . ... ... ... ... : ... .. . ... : ... .. . ... : ... .. . ...
ROW A8 : ... .. . ... ... ... P7F : C-3 00 . ... ... ... ... : C-3 00 . ... : 2-# 00 5 ... : ... .. . ...
ROW A9 : ... .. . ... ... ... P7E : ... .. . ... ... ... ... : ... .. . ... : ... .. 4 ... : ... .. . ...
ROW AA : ... .. . ... ... ... P7D : ... .. . ... ... ... ... : ... .. . ... : ... .. 3 ... : ... .. . ...
ROW AB : ... .. . ... ... ... P7E : ... .. . ... ... ... ... : ... .. . ... : ... .. 2 ... : ... .. . ...
ROW AC : ... .. . ... ... ... P7F : ... .. . ... ... ... ... : ... .. . ... : ... .. 1 ... : ... .. . ...
ROW AD : ... .. . ... ... ... P80 : ... .. . ... ... ... ... : ... .. . ... : ... .. 0 ... : ... .. . ...
ROW AE : ... .. . ... ... ... P81 : ... .. . ... ... ... ... : ... .. . ... : ... .. . ... : ... .. . ...
ROW AF : ... .. . ... ... ... P82 : ... .. . ... ... ... ... : ... .. . ... : 2-# 00 1 ... : ... .. . ...
ROW B0 : ... .. . ... ... ... P83 : ... .. . ... ... ... ... : ... .. . ... : ... .. 0 ... : ... .. . ...
ROW B1 : ... .. . ... ... ... P82 : ... .. . ... ... ... ... : ... .. . ... : ... .. . ... : ... .. . ...
ROW B2 : ... .. . ... ... ... P81 : ... .. . ... ... ... ... : ... .. . ... : ... .. . ... : ... .. . ...
ROW B3 : ... .. . ... ... ... P80 : ... .. . ... ... ... ... : ... .. . ... : ... .. . ... : ... .. . ...
ROW B4 : ... .. . ... ... ... P7F : ... .. . ... ... ... ... : ... .. . ... : ... .. . ... : ... .. . ...
ROW B5 : ... .. . ... ... ... P7E : ... .. . ... ... ... ... : ... .. . ... : ... .. . ... : ... .. . ...
ROW B6 : ... .. . ... ... ... P7D : D-4 00 5 V02 ... ... ... : F#5 00 . ... : 7-# 00 5 ... : ... .. . ...
ROW B7 : ... .. . ... ... ... P7E : ... .. . ... ... ... ... : ... .. . ... : ... .. 4 ... : ... .. . ...
ROW B8 : ... .. . ... ... ... P7F : ... .. . ... ... ... ... : ... .. . ... : ... .. 3 ... : ... .. . ...
ROW B9 : ... .. . ... ... ... P80 : ... .. . ... ... ... ... : ... .. . ... : ... .. . ... : ... .. . ...
ROW BA : ... .. . ... ... ... P81 : ... .. . ... ... ... ... : ... .. . ... : ... .. 2 ... : ... .. . ...
ROW BB : ... .. . ... ... ... P82 : ... .. . ... ... ... ... : ... .. . ... : ... .. . ... : ... .. . ...
ROW BC : ... .. . ... ... ... P83 : ... .. . ... ... ... ... : ... .. . ... : ... .. 1 ... : ... .. . ...
ROW BD : ... .. . ... ... ... P82 : ... .. . ... ... ... ... : ... .. . ... : ... .. . ... : ... .. . ...
ROW BE : ... .. . ... ... ... P81 : ... .. . ... ... ... ... : ... .. . ... : ... .. 0 ... : ... .. . ...
ROW BF : ... .. . ... ... ... P80 : ... .. . ... ... ... ... : ... .. . ... : ... .. . ... : ... .. . ...
ROW C0 : ... .. . ... ... ... P7F : ... .. . ... ... ... ... : ... .. . ... : ... .. . ... : ... .. . ...
ROW C1 : ... .. . ... ... ... P7E : ... .. . ... ... ... ... : ... .. . ... : ... .. . ... : ... .. . ...
ROW C2 : ... .. . ... ... ... P7D : ... .. . ... ... ... ... : ... .. . ... : ... .. . ... : ... .. . ...
ROW C3 : ... .. . ... ... ... P7E : ... .. . ... ... ... ... : ... .. . ... : ... .. . ... : ... .. . ...
ROW C4 : ... .. . ... ... ... P7F : C-4 00 5 ... ... ... ... : E-5 00 . ... : 7-# 00 5 ... : ... .. . ...
ROW C5 : ... .. . ... ... ... P80 : ... .. . ... ... ... ... : ... .. . ... : ... .. 4 ... : ... .. . ...
ROW C6 : ... .. . ... ... ... P81 : ... .. . ... ... ... ... : ... .. . ... : ... .. 3 ... : ... .. . ...
ROW C7 : ... .. . ... ... ... P82 : ... .. . ... ... ... ... : ... .. . ... : ... .. . ... : ... .. . ...
ROW C8 : ... .. . ... ... ... P83 : ... .. . ... ... ... ... : ... .. . ... : ... .. 2 ... : ... .. . ...
ROW C9 : ... .. . ... ... ... P82 : ... .. . ... ... ... ... : ... .. . ... : ... .. . ... : ... .. . ...
ROW CA : ... .. . ... ... ... P81 : ... .. . ... ... ... ... : ... .. . ... : ... .. 1 ... : ... .. . ...
ROW CB : ... .. . ... ... ... P80 : ... .. . ... ... ... ... : ... .. . ... : ... .. . ... : ... .. . ...
ROW CC : ... .. 3 ... ... ... P7F : ... .. . ... ... ... ... : ... .. . ... : ... .. 0 ... : ... .. . ...
ROW CD : ... .. . ... ... ... P7E : ... .. . ... ... ... ... : ... .. . ... : ... .. . ... : ... .. . ...
ROW CE : ... .. 2 ... ... ... P7D : ... .. . ... ... ... ... : ... .. . ... : ... .. . ... : ... .. . ...
ROW CF : ... .. . ... ... ... P7E : ... .. . ... ... ... ... : ... .. . ... : ... .. . ... : ... .. . ...
ROW D0 : ... .. 1 ... ... ... P7F : ... .. . ... ... ... ... : ... .. . ... : ... .. . ... : ... .. . ...
ROW D1 : ... .. . ... ... ... P80 : ... .. . ... ... ... ... : ... .. . ... : ... .. . ... : ... .. . ...
ROW D2 : G-3 00 6 V02 ... ... ... : ... .. 1 ... ... ... ... : --- .. . ... : ... .. . ... : ... .. . ...
ROW D3 : G-4 00 . ... ... ... ... : ... .. . ... ... ... ... : ... .. . ... : ... .. . ... : ... .. . ...
ROW D4 : ... .. 5 ... ... ... ... : ... .. . ... ... ... ... : ... .. . ... : ... .. . ... : ... .. . ...
ROW D5 : ... .. . ... ... ... ... : ... .. . ... ... ... ... : ... .. . ... : ... .. . ... : ... .. . ...
ROW D6 : ... .. 4 ... ... ... ... : ... .. . ... ... ... ... : ... .. . ... : ... .. . ... : ... .. . ...
ROW D7 : ... .. . ... ... ... ... : ... .. . ... ... ... ... : ... .. . ... : ... .. . ... : ... .. . ...
ROW D8 : ... .. 3 ... ... ... ... : ... .. . ... ... ... ... : ... .. . ... : ... .. . ... : ... .. . ...
ROW D9 : A-3 00 6 ... ... ... ... : G-4 00 2 V02 ... ... ... : ... .. . ... : ... .. . ... : ... .. . ...
ROW DA : A-4 00 . ... ... ... ... : ... .. . ... ... ... ... : ... .. . ... : ... .. . ... : ... .. . ...
ROW DB : ... .. 5 ... ... ... ... : ... .. . ... ... ... ... : ... .. . ... : ... .. . ... : ... .. . ...
ROW DC : ... .. . ... ... ... ... : ... .. . ... ... ... ... : ... .. . ... : ... .. . ... : ... .. . ...
ROW DD : ... .. 4 ... ... ... ... : ... .. 1 ... ... ... ... : ... .. . ... : ... .. . ... : ... .. . ...
ROW DE : G-4 00 1 ... ... ... ... : ... .. . ... ... ... ... : ... .. . ... : ... .. . ... : ... .. . ...
ROW DF : ... .. . ... ... ... ... : ... .. . ... ... ... ... : ... .. . ... : ... .. . ... : ... .. . ...

PATTERN 09
ROW 00 : A#3 00 6 V02 ... ... ... : A#3 00 6 V02 ... ... ... : D#3 00 . ... : F-# 00 4 ... : ... .. . ...
ROW 01 : ... .. . ... ... ... ... : A#4 00 . ... ... ... ... : ... .. . ... : ... .. 3 ... : ... .. . ...
ROW 02 : ... .. 5 ... ... ... ... : G-3 00 . ... ... ... ... : ... .. . ... : ... .. 2 ... : ... .. . ...
ROW 03 : ... .. . ... ... ... ... : G-4 00 5 ... ... ... ... : ... .. . ... : ... .. 1 ... : ... .. . ...
ROW 04 : A#4 00 4 ... ... ... ... : A#3 00 . ... ... ... ... : --- .. . ... : ... .. 0 ... : ... .. . ...
ROW 05 : ... .. . ... ... ... ... : A#4 00 . ... ... ... ... : ... .. . ... : ... .. . ... : ... .. . ...
ROW 06 : ... .. 3 ... ... ... ... : D#3 00 4 ... ... ... ... : ... .. . ... : ... .. . ... : ... .. . ...
ROW 07 : ... .. . ... ... ... ... : D#4 00 . ... ... ... ... : F-3 00 . ... : ... .. . ... : ... .. . ...
ROW 08 : ... .. 2 ... ... ... ... : G-3 00 . ... ... ... ... : ... .. . ... : ... .. . ... : ... .. . ...
ROW 09 : ... .. . ... ... ... ... : A#3 00 . ... ... ... ... : ... .. . ... : ... .. . ... : ... .. . ...
ROW 0A : ... .. 1 ... ... ... ... : A#4 00 . ... ... ... ... : ... .. . ... : ... .. . ... : ... .. . ...
ROW 0B : A-4 00 . ... ... ... ... : G-3 00 . ... ... ... ... : ... .. . ... : ... .. . ... : ... .. . ...
ROW 0C : ... .. . ... ... ... ... : G-4 00 3 ... ... ... ... : --- .. . ... : ... .. . ... : ... .. . ...
ROW 0D : ... .. . ... ... ... ... : D#4 00 . ... ... ... ... : ... .. . ... : ... .. . ... : ... .. . ...
ROW 0E : G-3 00 6 ... ... ... ... : D#3 00 . ... ... ... ... : G-3 00 . ... : F-# 00 3 ... : ... .. . ...
ROW 0F : ... .. . ... ... ... ... : D#4 00 2 ... ... ... ... : ... .. . ... : ... .. 2 ... : ... .. . ...
ROW 10 : ... .. 5 ... ... ... ... : A#3 00 . ... ... ... ... : ... .. . ... : ... .. 1 ... : ... .. . ...
ROW 11 : ... .. . ... ... ... ... : A#3 00 . ... ... ... ... : ... .. . ... : ... .. 0 ... : ... .. . ...
ROW 12 : G-4 00 4 ... ... ... ... : A#4 00 1 ... ... ... ... : ... .. . ... : ... .. . ... : ... .. . ...
ROW 13 : ... .. . ... ... ... ... : G-3 00 . ... ... ... ... : ... .. . ... : ... .. . ... : ... .. . ...
ROW 14 : ... .. 3 ... ... ... ... : G-4 00 . ... ... ... ... : ... .. . ... : ... .. . ... : ... .. . ...
ROW 15 : ... .. . ... ... ... ... : D#3 00 . ... ... ... ... : --- .. . ... : ... .. . ... : ... .. . ...
ROW 16 : ... .. 2 ... ... ... ... : D#4 00 . ... ... ... ... : ... .. . ... : ... .. . ... : ... .. . ...
ROW 17 : ... .. . ... ... ... ... : A#3 00 . ... ... ... ... : ... .. . ... : ... .. . ... : ... .. . ...
ROW 18 : ... .. 1 ... ... ... ... : A#4 00 . ... ... ... ... : ... .. . ... : ... .. . ... : ... .. . ...
ROW 19 : A#4 00 . ... ... ... ... : G-3 00 . ... ... ... ... : ... .. . ... : ... .. . ... : ... .. . ...
ROW 1A : ... .. . ... ... ... ... : G-4 00 . ... ... ... ... : ... .. . ... : ... .. . ... : ... .. . ...
ROW 1B : ... .. . ... ... ... ... : D#3 00 . ... ... ... ... : ... .. . ... : ... .. . ... : ... .. . ...
ROW 1C : A-3 00 6 ... ... ... ... : A-3 00 6 ... ... ... ... : F-3 00 . ... : F-# 00 3 ... : ... .. . ...
ROW 1D : ... .. . ... ... ... ... : A-4 00 . ... ... ... ... : ... .. . ... : ... .. 2 ... : ... .. . ...
ROW 1E : ... .. 5 ... ... ... ... : F-3 00 . ... ... ... ... : ... .. . ... : ... .. 1 ... : ... .. . ...
ROW 1F : ... .. . ... ... ... ... : F-4 00 5 ... ... ... ... : ... .. . ... : ... .. 0 ... : ... .. . ...
ROW 20 : A-4 00 4 ... ... ... ... : C-3 00 . ... ... ... ... : ... .. . ... : ... .. . ... : ... .. . ...
ROW 21 : ... .. . ... ... ... ... : C-4 00 . ... ... ... ... : ... .. . ... : ... .. . ... : ... .. . ...
ROW 22 : ... .. 3 ... ... ... ... : A-3 00 4 ... ... ... ... : ... .. . ... : ... .. . ... : ... .. . ...
ROW 23 : ... .. . ... ... ... ... : A-4 00 . ... ... ... ... : --- .. . ... : ... .. . ... : ... .. . ...
ROW 24 : ... .. 2 ... ... ... ... : F-3 00 . ... ... ... ... : ... .. . ... : ... .. . ... : ... .. . ...
ROW 25 : ... .. . ... ... ... ... : F-4 00 . ... ... ... ... : ... .. . ... : ... .. . ... : ... .. . ...
ROW 26 : ... .. 1 ... ... ... ... : C-3 00 . ... ... ... ... : ... .. . ... : ... .. . ... : ... .. . ...
ROW 27 : G-4 00 . ... ... ... ... : C-4 00 . ... ... ... ... : ... .. . ... : ... .. . ... : ... .. . ...
ROW 28 : ... .. . ... ... ... ... : A-3 00 3 ... ... ... ... : ... .. . ... : ... .. . ... : ... .. . ...
ROW 29 : ... .. . ... ... ... ... : A-4 00 . ... ... ... ... : ... .. . ... : ... .. . ... : ... .. . ...
ROW 2A : C-4 00 6 ... ... ... ... : F-3 00 . ... ... ... ... : F-2 00 . ... : F-# 00 3 ... : ... .. . ...
ROW 2B : ... .. . ... ... ... ... : F-4 00 2 ... ... ... ... : ... .. . ... : ... .. 2 ... : ... .. . ...
ROW 2C : ... .. 5 ... ... ... ... : C-3 00 . ... ... ... ... : ... .. . ... : ... .. 1 ... : ... .. . ...
ROW 2D : ... .. . ... ... ... ... : C-4 00 . ... ... ... ... : ... .. . ... : ... .. 0 ... : ... .. . ...
ROW 2E : C-5 00 4 ... ... ... ... : A-3 00 1 ... ... ... ... : ... .. . ... : ... .. . ... : ... .. . ...
ROW 2F : ... .. . ... ... ... ... : A-4 00 . ... ... ... ... : ... .. . ... : ... .. . ... : ... .. . ...
ROW 30 : ... .. 3 ... ... ... ... : F-3 00 . ... ... ... ... : ... .. . ... : ... .. . ... : ... .. . ...
ROW 31 : ... .. . ... ... ... ... : F-4 00 . ... ... ... ... : --- .. . ... : ... .. . ... : ... .. . ...
ROW 32 : ... .. 2 ... ... ... ... : C-3 00 . ... ... ... ... : ... .. . ... : ... .. . ... : ... .. . ...
ROW 33 : ... .. . ... ... ... ... : C-4 00 . ... ... ... ... : ... .. . ... : ... .. . ... : ... .. . ...
ROW 34 : ... .. 1 ... ... ... ... : A-3 00 . ... ... ... ... : ... .. . ... : ... .. . ... : ... .. . ...
ROW 35 : A-4 00 . ... ... ... ... : A-4 00 . ... ... ... ... : ... .. . ... : ... .. . ... : ... .. . ...
ROW 36 : ... .. . ... ... ... ... : F-3 00 . ... ... ... ... : ... .. . ... : ... .. . ... : ... .. . ...
ROW 37 : ... .. . ... ... ... ... : F-4 00 . ... ... ... ... : ... .. . ... : ... .. . ... : ... .. . ...
ROW 38 : F-3 00 6 ... ... ... ... : F-3 00 6 ... ... ... ... : A#2 00 . ... : F-# 00 3 ... : ... .. . ...
ROW 39 : ... .. . ... ... ... ... : F-4 00 . ... ... ... ... : ... .. . ... : ... .. 2 ... : ... .. . ...
ROW 3A : ... .. 5 ... ... ... ... : D-3 00 . ... ... ... ... : ... .. . ... : ... .. 1 ... : ... .. . ...
ROW 3B : ... .. . ... ... ... ... : D-4 00 5 ... ... ... ... : ... .. . ... : ... .. 0 ... : ... .. . ...
ROW 3C : F-4 00 4 ... ... ... ... : A#2 00 . ... ... ... ... : ... .. . ... : ... .. . ... : ... .. . ...
ROW 3D : ... .. . ... ... ... ... : A#3 00 . ... ... ... ... : --- .. . ... : ... .. . ... : ... .. . ...
ROW 3E : ... .. . ... ... ... ... : F-3 00 4 ... ... ... ... : ... .. . ... : ... .. . ... : ... .. . ...
ROW 3F : ... .. . ... ... ... ... : F-4 00 . ... ... ... ... : C-3 00 . ... : ... .. . ... : ... .. . ...
ROW 40 : F-3 00 . ... ... ... ... : D-3 00 . ... ... ... ... : ... .. . ... : ... .. . ... : ... .. . ...
ROW 41 : ... .. . ... ... ... ... : D-4 00 . ... ... ... ... : ... .. . ... : ... .. . ... : ... .. . ...
ROW 42 : ... .. . ... ... ... ... : A#2 00 . ... ... ... ... : ... .. . ... : ... .. . ... : ... .. . ...
ROW 43 : ... .. . ... ... ... ... : A#3 00 . ... ... ... ... : ... .. . ... : ... .. . ... : ... .. . ...
ROW 44 : F-4 00 . ... ... ... ... : F-3 00 3 ... ... ... ... : --- .. . ... : ... .. . ... : ... .. . ...
ROW 45 : ... .. . ... ... ... ... : F-4 00 . ... ... ... ... : ... .. . ... : ... .. . ... : ... .. . ...
ROW 46 : ... .. . ... ... ... ... : C-3 00 5 V00 ... ... P80 : E-4 00 . ... : ... .. . ... : ... .. . ...
ROW 47 : ... .. . ... ... ... ... : ... .. . ... ... ... ... : ... .. . ... : ... .. . ... : ... .. . ...
ROW 48 : F-3 00 3 ... ... ... ... : ... .. . ... ... ... ... : ... .. . ... : ... .. . ... : ... .. . ...
ROW 49 : ... .. . ... ... ... ... : ... .. . ... ... ... ... : ... .. . ... : ... .. . ... : ... .. . ...
ROW 4A : ... .. . ... ... ... ... : ... .. . ... ... ... ... : ... .. . ... : ... .. . ... : ... .. . ...
ROW 4B : ... .. . ... ... ... ... : ... .. . ... ... ... ... : ... .. . ... : ... .. . ... : ... .. . ...
ROW 4C : F-4 00 . ... ... ... ... : ... .. . ... ... ... ... : ... .. . ... : ... .. . ... : ... .. . ...
ROW 4D : ... .. . ... ... ... ... : ... .. . ... ... ... ... : ... .. . ... : ... .. . ... : ... .. . ...
ROW 4E : ... .. . ... ... ... ... : ... .. . ... ... ... ... : ... .. . ... : ... .. . ... : ... .. . ...
ROW 4F : ... .. . ... ... ... ... : ... .. . ... ... ... ... : ... .. . ... : ... .. . ... : ... .. . ...
ROW 50 : F-3 00 . ... ... ... ... : ... .. . ... ... ... ... : ... .. . ... : ... .. . ... : ... .. . ...
ROW 51 : ... .. . ... ... ... ... : ... .. . ... ... ... ... : ... .. . ... : ... .. . ... : ... .. . ...
ROW 52 : ... .. . ... ... ... ... : ... .. . ... ... ... ... : ... .. . ... : ... .. . ... : ... .. . ...
ROW 53 : ... .. . ... ... ... ... : ... .. . ... ... ... ... : ... .. . ... : ... .. . ... : ... .. . ...
ROW 54 : F-4 00 2 ... ... ... ... : A#2 00 5 ... ... ... ... : D-4 00 . ... : ... .. . ... : ... .. . ...
ROW 55 : ... .. . ... ... ... ... : ... .. . ... ... ... ... : ... .. . ... : ... .. . ... : ... .. . ...
ROW 56 : ... .. . ... ... ... ... : ... .. . ... ... ... ... : ... .. . ... : ... .. . ... : ... .. . ...
ROW 57 : ... .. . ... ... ... ... : ... .. . ... ... ... ... : ... .. . ... : ... .. . ... : ... .. . ...
ROW 58 : F-3 00 . ... ... ... ... : ... .. . ... ... ... ... : ... .. . ... : ... .. . ... : ... .. . ...
ROW 59 : ... .. . ... ... ... ... : ... .. . ... ... ... ... : ... .. . ... : ... .. . ... : ... .. . ...
ROW 5A : ... .. . ... ... ... ... : ... .. . ... ... ... ... : ... .. . ... : ... .. . ... : ... .. . ...
ROW 5B : ... .. . ... ... ... ... : ... .. . ... ... ... ... : ... .. . ... : ... .. . ... : ... .. . ...
ROW 5C : F-4 00 1 ... ... ... ... : ... .. . ... ... ... ... : ... .. . ... : ... .. . ... : ... .. . ...
ROW 5D : ... .. . ... ... ... ... : ... .. . ... ... ... ... : ... .. . ... : ... .. . ... : ... .. . ...
ROW 5E : ... .. . ... ... ... ... : ... .. . ... ... ... ... : ... .. . ... : ... .. . ... : ... .. . ...
ROW 5F : ... .. . ... ... ... ... : ... .. . ... ... ... ... : ... .. . ... : ... .. . ... : ... .. . ...
ROW 60 : ... .. . ... ... ... ... : ... .. . ... ... ... ... : ... .. . ... : ... .. . ... : ... .. . ...
ROW 61 : ... .. . ... ... ... ... : ... .. . ... ... ... ... : ... .. . ... : ... .. . ... : ... .. . ...
ROW 62 : F-2 00 6 V00 ... ... P81 : C-3 00 1 ... ... ... ... : --- .. . ... : ... .. . ... : ... .. . ...
ROW 63 : ... .. . ... ... ... ... : ... .. . ... ... ... ... : ... .. . ... : ... .. . ... : ... .. . ...
ROW 64 : ... .. . ... ... ... P80 : ... .. . ... ... ... ... : ... .. . ... : ... .. . ... : ... .. . ...
ROW 65 : ... .. . ... ... ... P7F : ... .. . ... ... ... ... : ... .. . ... : ... .. . ... : ... .. . ...
ROW 66 : ... .. . ... ... ... ... : ... .. . ... ... ... ... : ... .. . ... : ... .. . ... : ... .. . ...
ROW 67 : ... .. 2 ... ... ... P81 : ... .. . ... ... ... ... : ... .. . ... : ... .. . ... : ... .. . ...
ROW 68 : ... .. . ... ... ... ... : ... .. . ... ... ... ... : ... .. . ... : ... .. . ... : ... .. . ...
ROW 69 : G-2 00 6 ... ... ... P81 : F-2 00 2 ... ... ... P80 : ... .. . ... : ... .. . ... : ... .. . ...
ROW 6A : ... .. . ... ... ... ... : ... .. . ... ... ... ... : ... .. . ... : ... .. . ... : ... .. . ...
ROW 6B : ... .. . ... ... ... P80 : ... .. . ... ... ... P7F : ... .. . ... : ... .. . ... : ... .. . ...
ROW 6C : ... .. . ... ... ... P7F : ... .. . ... ... ... P7E : ... .. . ... : ... .. . ... : ... .. . ...
ROW 6D : ... .. . ... ... ... ... : ... .. . ... ... ... ... : ... .. . ... : ... .. . ... : ... .. . ...
ROW 6E : F-2 00 2 ... ... ... P81 : ... .. . ... ... ... P80 : ... .. . ... : ... .. . ... : ... .. . ...
ROW 6F : ... .. . ... ... ... ... : ... .. . ... ... ... ... : ... .. . ... : ... .. . ... : ... .. . ...
ROW 70 : G#2 00 6 ... ... ... P81 : G-2 00 . ... ... ... P80 : C#2 00 . ... : F-# 00 4 ... : ... .. . ...
ROW 71 : ... .. . ... ... ... ... : ... .. . ... ... ... ... : ... .. . ... : ... .. 3 ... : ... .. . ...
ROW 72 : ... .. . ... ... ... P80 : ... .. . ... ... ... P7F : ... .. . ... : ... .. 2 ... : ... .. . ...
ROW 73 : ... .. . ... ... ... P7F : ... .. . ... ... ... P7E : ... .. . ... : ... .. 1 ... : ... .. . ...
ROW 74 : ... .. . ... ... ... ... : ... .. . ... ... ... ... : ... .. . ... : ... .. 0 ... : ... .. . ...
ROW 75 : ... .. . ... ... ... P80 : ... .. . ... ... ... P80 : --- .. . ... : ... .. . ... : ... .. . ...
ROW 76 : ... .. . ... ... ... ... : ... .. . ... ... ... ... : ... .. . ... : ... .. . ... : ... .. . ...
ROW 77 : ... .. . ... ... ... P81 : G#2 00 . ... ... ... P80 : D#2 00 . ... : ... .. . ... : ... .. . ...
ROW 78 : ... .. . ... ... ... P80 : ... .. . ... ... ... ... : ... .. . ... : ... .. . ... : ... .. . ...
ROW 79 : ... .. . ... ... ... ... : ... .. . ... ... ... P7F : ... .. . ... : ... .. . ... : ... .. . ...
ROW 7A : ... .. . ... ... ... P7F : ... .. . ... ... ... P7E : ... .. . ... : ... .. . ... : ... .. . ...
ROW 7B : G-2 00 2 ... ... ... P81 : ... .. . ... ... ... ... : ... .. . ... : ... .. . ... : ... .. . ...
ROW 7C : ... .. . ... ... ... ... : ... .. . ... ... ... P7F : --- .. . ... : ... .. . ... : ... .. . ...
ROW 7D : ... .. . ... ... ... P80 : ... .. . ... ... ... ... : ... .. . ... : ... .. . ... : ... .. . ...
ROW 7E : F-2 00 6 ... ... ... P81 : ... .. . ... ... ... P80 : F-2 00 . ... : F-# 00 3 ... : ... .. . ...
ROW 7F : ... .. . ... ... ... ... : ... .. . ... ... ... P7F : ... .. . ... : ... .. 2 ... : ... .. . ...
ROW 80 : ... .. . ... ... ... P80 : ... .. . ... ... ... ... : ... .. . ... : ... .. 1 ... : ... .. . ...
ROW 81 : ... .. . ... ... ... P7F : ... .. . ... ... ... P7E : ... .. . ... : ... .. 0 ... : ... .. . ...
ROW 82 : ... .. . ... ... ... ... : ... .. . ... ... ... P80 : ... .. . ... : ... .. . ... : ... .. . ...
ROW 83 : ... .. . ... ... ... P80 : ... .. . ... ... ... ... : --- .. . ... : ... .. . ... : ... .. . ...
ROW 84 : ... .. . ... ... ... ... : ... .. . ... ... ... P7F : ... .. . ... : ... .. . ... : ... .. . ...
ROW 85 : ... .. . ... ... ... P81 : F-2 00 . ... ... ... P80 : G#2 00 . ... : ... .. . ... : ... .. . ...
ROW 86 : ... .. . ... ... ... P80 : ... .. . ... ... ... ... : ... .. . ... : ... .. . ... : ... .. . ...
ROW 87 : ... .. . ... ... ... ... : ... .. . ... ... ... P7F : ... .. . ... : ... .. . ... : ... .. . ...
ROW 88 : ... .. . ... ... ... P7F : ... .. . ... ... ... P7E : ... .. . ... : ... .. . ... : ... .. . ...
ROW 89 : G#2 00 2 ... ... ... P81 : ... .. . ... ... ... ... : ... .. . ... : ... .. . ... : ... .. . ...
ROW 8A : ... .. . ... ... ... ... : ... .. . ... ... ... P7F : --- .. . ... : ... .. . ... : ... .. . ...
ROW 8B : ... .. . ... ... ... P80 : ... .. . ... ... ... ... : ... .. . ... : ... .. . ... : ... .. . ...
ROW 8C : G-2 00 6 ... ... ... P81 : ... .. . ... ... ... P80 : D#2 00 . ... : F-# 00 3 ... : ... .. . ...
ROW 8D : ... .. . ... ... ... ... : ... .. . ... ... ... P7F : ... .. . ... : ... .. 2 ... : ... .. . ...
ROW 8E : ... .. . ... ... ... P80 : ... .. . ... ... ... ... : ... .. . ... : ... .. 1 ... : ... .. . ...
ROW 8F : ... .. . ... ... ... P7F : ... .. . ... ... ... P7E : ... .. . ... : ... .. 0 ... : ... .. . ...
ROW 90 : ... .. . ... ... ... ... : ... .. . ... ... ... P80 : ... .. . ... : ... .. . ... : ... .. . ...
ROW 91 : ... .. . ... ... ... P80 : ... .. . ... ... ... ... : --- .. . ... : ... .. . ... : ... .. . ...
ROW 92 : ... .. . ... ... ... ... : ... .. . ... ... ... P7F : ... .. . ... : ... .. . ... : ... .. . ...
ROW 93 : ... .. . ... ... ... P81 : G-2 00 . ... ... ... P80 : F-2 00 . ... : ... .. . ... : ... .. . ...
ROW 94 : ... .. . ... ... ... P80 : ... .. . ... ... ... ... : ... .. . ... : ... .. . ... : ... .. . ...
ROW 95 : ... .. . ... ... ... ... : ... .. . ... ... ... P7F : ... .. . ... : ... .. . ... : ... .. . ...
ROW 96 : ... .. . ... ... ... P7F : ... .. . ... ... ... P7E : ... .. . ... : ... .. . ... : ... .. . ...
ROW 97 : F-2 00 2 ... ... ... P81 : ... .. . ... ... ... ... : ... .. . ... : ... .. . ... : ... .. . ...
ROW 98 : ... .. . ... ... ... ... : ... .. . ... ... ... P7F : --- .. . ... : ... .. . ... : ... .. . ...
ROW 99 : ... .. . ... ... ... P80 : ... .. . ... ... ... ... : ... .. . ... : ... .. . ... : ... .. . ...
ROW 9A : A#2 00 6 ... ... ... P81 : ... .. . ... ... ... P80 : G-2 00 . ... : F-# 00 3 ... : ... .. . ...
ROW 9B : ... .. . ... ... ... ... : ... .. . ... ... ... P7F : ... .. . ... : ... .. 2 ... : ... .. . ...
ROW 9C : ... .. . ... ... ... P80 : ... .. . ... ... ... ... : ... .. . ... : ... .. 1 ... : ... .. . ...
ROW 9D : ... .. . ... ... ... P7F : ... .. . ... ... ... P7E : ... .. . ... : ... .. 0 ... : ... .. . ...
ROW 9E : ... .. . ... ... ... ... : ... .. . ... ... ... P80 : ... .. . ... : ... .. . ... : ... .. . ...
ROW 9F : ... .. . ... ... ... P80 : ... .. . ... ... ... ... : --- .. . ... : ... .. . ... : ... .. . ...
ROW A0 : ... .. . ... ... ... ... : ... .. . ... ... ... P7F : ... .. . ... : ... .. . ... : ... .. . ...
ROW A1 : ... .. . ... ... ... P81 : A#2 00 . ... ... ... P80 : A#2 00 . ... : ... .. . ... : ... .. . ...
ROW A2 : ... .. . ... ... ... P80 : ... .. . ... ... ... ... : ... .. . ... : ... .. . ... : ... .. . ...
ROW A3 : ... .. . ... ... ... ... : ... .. . ... ... ... P7F : ... .. . ... : ... .. . ... : ... .. . ...
ROW A4 : ... .. . ... ... ... P7F : ... .. . ... ... ... P7E : ... .. . ... : ... .. . ... : ... .. . ...
ROW A5 : G-2 00 2 ... ... ... P81 : ... .. . ... ... ... ... : ... .. . ... : ... .. . ... : ... .. . ...
ROW A6 : ... .. . ... ... ... ... : ... .. . ... ... ... P7F : --- .. . ... : ... .. . ... : ... .. . ...
ROW A7 : ... .. . ... ... ... P80 : ... .. . ... ... ... ... : ... .. . ... : ... .. . ... : ... .. . ...
ROW A8 : D#2 00 6 ... ... ... P81 : ... .. . ... ... ... P80 : G#2 00 . ... : F-# 00 3 ... : ... .. . ...
ROW A9 : ... .. . ... ... ... ... : ... .. . ... ... ... P7F : ... .. . ... : ... .. 2 ... : ... .. . ...
ROW AA : ... .. . ... ... ... P80 : ... .. . ... ... ... ... : ... .. . ... : ... .. 1 ... : ... .. . ...
ROW AB : ... .. . ... ... ... P7F : ... .. . ... ... ... P7E : ... .. . ... : ... .. 0 ... : ... .. . ...
ROW AC : ... .. . ... ... ... ... : ... .. . ... ... ... P80 : ... .. . ... : ... .. . ... : ... .. . ...
ROW AD : ... .. . ... ... ... P80 : ... .. . ... ... ... ... : ... .. . ... : ... .. . ... : ... .. . ...
ROW AE : ... .. . ... ... ... ... : ... .. . ... ... ... P7F : ... .. . ... : ... .. . ... : ... .. . ...
ROW AF : ... .. . ... ... ... P81 : D#2 00 . ... ... ... P80 : ... .. . ... : ... .. . ... : ... .. . ...
ROW B0 : ... .. . ... ... ... P80 : ... .. . ... ... ... ... : ... .. . ... : ... .. . ... : ... .. . ...
ROW B1 : ... .. . ... ... ... ... : ... .. . ... ... ... P7F : ... .. . ... : ... .. . ... : ... .. . ...
ROW B2 : ... .. . ... ... ... P7F : ... .. . ... ... ... P7E : ... .. . ... : ... .. . ... : ... .. . ...
ROW B3 : ... .. . ... ... ... P80 : ... .. . ... ... ... ... : ... .. . ... : ... .. . ... : ... .. . ...
ROW B4 : ... .. . ... ... ... ... : ... .. . ... ... ... P7F : ... .. . ... : ... .. . ... : ... .. . ...
ROW B5 : ... .. . ... ... ... P81 : ... .. . ... ... ... ... : ... .. . ... : ... .. . ... : ... .. . ...
ROW B6 : ... .. . ... ... ... ... : A#2 00 5 V00 ... ... P80 : D-4 00 . ... : ... .. . ... : ... .. . ...
ROW B7 : ... .. . ... ... ... P80 : ... .. . ... ... ... ... : ... .. . ... : ... .. . ... : ... .. . ...
ROW B8 : ... .. . ... ... ... P7F : ... .. . ... ... ... ... : ... .. . ... : ... .. . ... : ... .. . ...
ROW B9 : ... .. . ... ... ... ... : ... .. . ... ... ... ... : ... .. . ... : ... .. . ... : ... .. . ...
ROW BA : ... .. . ... ... ... P80 : ... .. . ... ... ... ... : ... .. . ... : ... .. . ... : ... .. . ...
ROW BB : ... .. . ... ... ... P81 : ... .. . ... ... ... ... : ... .. . ... : ... .. . ... : ... .. . ...
ROW BC : ... .. . ... ... ... ... : ... .. . ... ... ... ... : ... .. . ... : ... .. . ... : ... .. . ...
ROW BD : ... .. . ... ... ... P80 : ... .. . ... ... ... ... : ... .. . ... : ... .. . ... : ... .. . ...
ROW BE : ... .. . ... ... ... ... : ... .. . ... ... ... ... : ... .. . ... : ... .. . ... : ... .. . ...
ROW BF : ... .. . ... ... ... P7F : ... .. . ... ... ... ... : ... .. . ... : ... .. . ... : ... .. . ...
ROW C0 : ... .. . ... ... ... P80 : ... .. . ... ... ... ... : ... .. . ... : ... .. . ... : ... .. . ...
ROW C1 : ... .. . ... ... ... ... : ... .. . ... ... ... ... : ... .. . ... : ... .. . ... : ... .. . ...
ROW C2 : ... .. . ... ... ... P81 : ... .. . ... ... ... ... : ... .. . ... : ... .. . ... : ... .. . ...
ROW C3 : ... .. . ... ... ... P80 : ... .. . ... ... ... ... : ... .. . ... : ... .. . ... : ... .. . ...
ROW C4 : ... .. . ... ... ... ... : G#2 00 5 ... ... ... ... : C-4 00 . ... : ... .. . ... : ... .. . ...
ROW C5 : ... .. . ... ... ... P7F : ... .. . ... ... ... ... : ... .. . ... : ... .. . ... : ... .. . ...
ROW C6 : ... .. . ... ... ... ... : ... .. . ... ... ... ... : ... .. . ... : ... .. . ... : ... .. . ...
ROW C7 : ... .. . ... ... ... P80 : ... .. . ... ... ... ... : ... .. . ... : ... .. . ... : ... .. . ...
ROW C8 : ... .. . ... ... ... P81 : ... .. . ... ... ... ... : ... .. . ... : ... .. . ... : ... .. . ...
ROW C9 : ... .. . ... ... ... ... : ... .. . ... ... ... ... : ... .. . ... : ... .. . ... : ... .. . ...
ROW CA : ... .. . ... ... ... P80 : ... .. . ... ... ... ... : ... .. . ... : ... .. . ... : ... .. . ...
ROW CB : ... .. . ... ... ... P7F : ... .. . ... ... ... ... : ... .. . ... : ... .. . ... : ... .. . ...
ROW CC : ... .. 3 ... ... ... ... : ... .. . ... ... ... ... : ... .. . ... : ... .. . ... : ... .. . ...
ROW CD : ... .. . ... ... ... P80 : ... .. . ... ... ... ... : ... .. . ... : ... .. . ... : ... .. . ...
ROW CE : ... .. 2 ... ... ... ... : ... .. . ... ... ... ... : ... .. . ... : ... .. . ... : ... .. . ...
ROW CF : ... .. . ... ... ... P81 : ... .. . ... ... ... ... : ... .. . ... : ... .. . ... : ... .. . ...
ROW D0 : ... .. 1 ... ... ... P80 : ... .. . ... ... ... ... : ... .. . ... : ... .. . ... : ... .. . ...
ROW D1 : ... .. . ... ... ... ... : ... .. . ... ... ... ... : ... .. . ... : ... .. . ... : ... .. . ...
ROW D2 : D#3 00 6 V01 ... ... ... : ... .. . ... ... ... ... : --- .. . ... : ... .. . ... : ... .. . ...
ROW D3 : ... .. . ... ... ... ... : D#3 00 6 V01 ... ... P82 : ... .. . ... : ... .. . ... : ... .. . ...
ROW D4 : ... .. 5 ... ... ... ... : ... .. . ... ... ... ... : ... .. . ... : ... .. . ... : ... .. . ...
ROW D5 : ... .. . ... ... ... ... : ... .. 5 ... ... ... ... : ... .. . ... : ... .. . ... : ... .. . ...
ROW D6 : ... .. 4 ... ... ... ... : ... .. . ... ... ... ... : ... .. . ... : ... .. . ... : ... .. . ...
ROW D7 : ... .. . ... ... ... ... : ... .. 4 ... ... ... ... : ... .. . ... : ... .. . ... : ... .. . ...
ROW D8 : ... .. 3 ... ... ... ... : ... .. . ... ... ... ... : ... .. . ... : ... .. . ... : ... .. . ...
ROW D9 : F-3 00 6 ... ... ... ... : ... .. 3 ... ... ... ... : ... .. . ... : ... .. . ... : ... .. . ...
ROW DA : ... .. . ... ... ... ... : F-3 00 6 ... ... ... ... : ... .. . ... : ... .. . ... : ... .. . ...
ROW DB : ... .. 5 ... ... ... ... : ... .. . ... ... ... ... : ... .. . ... : ... .. . ... : ... .. . ...
ROW DC : ... .. . ... ... ... ... : ... .. 5 ... ... ... ... : ... .. . ... : ... .. . ... : ... .. . ...
ROW DD : ... .. 4 ... ... ... ... : ... .. . ... ... ... ... : ... .. . ... : ... .. . ... : ... .. . ...
ROW DE : D#3 00 1 ... ... ... ... : ... .. 4 ... ... ... ... : ... .. . ... : ... .. . ... : ... .. . ...
ROW DF : ... .. . ... ... ... ... : D#3 00 1 ... ... ... ... : ... .. . ... : ... .. . ... : ... .. . ...

PATTERN 0A
ROW 00 : G-3 00 6 V01 ... ... ... : ... .. . ... ... ... ... : F-2 00 . ... : 2-# 00 6 ... : ... .. . ...
ROW 01 : ... .. . ... ... ... ... : G-3 00 6 V01 ... ... P82 : ... .. . ... : ... .. 4 ... : ... .. . ...
ROW 02 : ... .. 5 ... ... ... ... : ... .. . ... ... ... ... : ... .. . ... : ... .. 2 ... : ... .. . ...
ROW 03 : ... .. . ... ... ... ... : ... .. 5 ... ... ... ... : ... .. . ... : ... .. 1 ... : ... .. . ...
ROW 04 : ... .. 4 ... ... ... ... : ... .. . ... ... ... ... : ... .. . ... : ... .. 0 ... : ... .. . ...
ROW 05 : ... .. . ... ... ... ... : ... .. 4 ... ... ... ... : --- .. . ... : ... .. . ... : ... .. . ...
ROW 06 : ... .. 3 ... ... ... ... : ... .. . ... ... ... ... : ... .. . ... : ... .. . ... : ... .. . ...
ROW 07 : ... .. . ... ... ... ... : ... .. 3 ... ... ... ... : C-3 00 . ... : E-# 00 6 ... : ... .. . ...
ROW 08 : ... .. 2 ... ... ... ... : ... .. . ... ... ... ... : ... .. . ... : ... .. 4 ... : ... .. . ...
ROW 09 : ... .. . ... ... ... ... : ... .. 2 ... ... ... ... : ... .. . ... : ... .. 2 ... : ... .. . ...
ROW 0A : ... .. 1 ... ... ... ... : ... .. . ... ... ... ... : ... .. . ... : ... .. 1 ... : ... .. . ...
ROW 0B : F-3 00 . ... ... ... ... : ... .. 1 ... ... ... ... : ... .. . ... : ... .. 0 ... : ... .. . ...
ROW 0C : ... .. . ... ... ... ... : F-3 00 . ... ... ... ... : --- .. . ... : ... .. . ... : ... .. . ...
ROW 0D : ... .. . ... ... ... ... : ... .. . ... ... ... ... : ... .. . ... : ... .. . ... : ... .. . ...
ROW 0E : D#3 00 6 ... ... ... ... : ... .. . ... ... ... ... : F-3 00 . ... : 7-# 00 6 ... : ... .. . ...
ROW 0F : ... .. . ... ... ... ... : D#3 00 6 ... ... ... ... : ... .. . ... : ... .. 4 ... : ... .. . ...
ROW 10 : ... .. 5 ... ... ... ... : ... .. . ... ... ... ... : ... .. . ... : ... .. 2 ... : ... .. . ...
ROW 11 : ... .. . ... ... ... ... : ... .. 5 ... ... ... ... : ... .. . ... : ... .. 1 ... : ... .. . ...
ROW 12 : ... .. 4 ... ... ... ... : ... .. . ... ... ... ... : ... .. . ... : ... .. 0 ... : ... .. . ...
ROW 13 : ... .. . ... ... ... ... : ... .. 4 ... ... ... ... : --- .. . ... : ... .. . ... : ... .. . ...
ROW 14 : ... .. 3 ... ... ... ... : ... .. . ... ... ... ... : ... .. . ... : ... .. . ... : ... .. . ...
ROW 15 : ... .. . ... ... ... ... : ... .. 3 ... ... ... ... : C-4 00 . ... : E-# 00 6 ... : ... .. . ...
ROW 16 : ... .. 2 ... ... ... ... : ... .. . ... ... ... ... : ... .. . ... : ... .. 4 ... : ... .. . ...
ROW 17 : ... .. . ... ... ... ... : ... .. 2 ... ... ... ... : ... .. . ... : ... .. 2 ... : ... .. . ...
ROW 18 : ... .. 1 ... ... ... ... : ... .. . ... ... ... ... : ... .. . ... : ... .. 1 ... : ... .. . ...
ROW 19 : G-3 00 . ... ... ... ... : ... .. 1 ... ... ... ... : ... .. . ... : ... .. 0 ... : ... .. . ...
ROW 1A : ... .. . ... ... ... ... : G-3 00 . ... ... ... ... : --- .. . ... : ... .. . ... : ... .. . ...
ROW 1B : ... .. . ... ... ... ... : ... .. . ... ... ... ... : ... .. . ... : ... .. . ... : ... .. . ...
ROW 1C : F-3 00 6 ... ... ... ... : ... .. . ... ... ... ... : G-2 00 . ... : 2-# 00 6 ... : ... .. . ...
ROW 1D : ... .. . ... ... ... ... : F-3 00 6 ... ... ... ... : ... .. . ... : ... .. 4 ... : ... .. . ...
ROW 1E : ... .. 5 ... ... ... ... : ... .. . ... ... ... ... : ... .. . ... : ... .. 2 ... : ... .. . ...
ROW 1F : ... .. . ... ... ... ... : ... .. 5 ... ... ... ... : ... .. . ... : ... .. 1 ... : ... .. . ...
ROW 20 : ... .. 4 ... ... ... ... : ... .. . ... ... ... ... : ... .. . ... : ... .. 0 ... : ... .. . ...
ROW 21 : ... .. . ... ... ... ... : ... .. 4 ... ... ... ... : --- .. . ... : ... .. . ... : ... .. . ...
ROW 22 : ... .. 3 ... ... ... ... : ... .. . ... ... ... ... : ... .. . ... : ... .. . ... : ... .. . ...
ROW 23 : ... .. . ... ... ... ... : ... .. 3 ... ... ... ... : D-3 00 . ... : E-# 00 6 ... : ... .. . ...
ROW 24 : ... .. 2 ... ... ... ... : ... .. . ... ... ... ... : ... .. . ... : ... .. 4 ... : ... .. . ...
ROW 25 : ... .. . ... ... ... ... : ... .. 2 ... ... ... ... : ... .. . ... : ... .. 2 ... : ... .. . ...
ROW 26 : ... .. 1 ... ... ... ... : ... .. . ... ... ... ... : ... .. . ... : ... .. 1 ... : ... .. . ...
ROW 27 : D#3 00 . ... ... ... ... : ... .. 1 ... ... ... ... : ... .. . ... : ... .. 0 ... : ... .. . ...
ROW 28 : ... .. . ... ... ... ... : D#3 00 . ... ... ... ... : --- .. . ... : ... .. . ... : ... .. . ...
ROW 29 : ... .. . ... ... ... ... : ... .. . ... ... ... ... : ... .. . ... : ... .. . ... : ... .. . ...
ROW 2A : D-3 00 6 ... ... ... ... : ... .. . ... ... ... ... : G-3 00 . ... : 7-# 00 6 ... : ... .. . ...
ROW 2B : ... .. . ... ... ... ... : D-3 00 6 ... ... ... ... : ... .. . ... : ... .. 4 ... : ... .. . ...
ROW 2C : ... .. 5 ... ... ... ... : ... .. . ... ... ... ... : ... .. . ... : ... .. 2 ... : ... .. . ...
ROW 2D : ... .. . ... ... ... ... : ... .. 5 ... ... ... ... : ... .. . ... : ... .. 1 ... : ... .. . ...
ROW 2E : ... .. 4 ... ... ... ... : ... .. . ... ... ... ... : ... .. . ... : ... .. 0 ... : ... .. . ...
ROW 2F : ... .. . ... ... ... ... : ... .. 4 ... ... ... ... : --- .. . ... : ... .. . ... : ... .. . ...
ROW 30 : ... .. 3 ... ... ... ... : ... .. . ... ... ... ... : ... .. . ... : ... .. . ... : ... .. . ...
ROW 31 : ... .. . ... ... ... ... : ... .. 3 ... ... ... ... : D-4 00 . ... : E-# 00 6 ... : ... .. . ...
ROW 32 : ... .. 2 ... ... ... ... : ... .. . ... ... ... ... : ... .. . ... : ... .. 4 ... : ... .. . ...
ROW 33 : ... .. . ... ... ... ... : ... .. 2 ... ... ... ... : ... .. . ... : ... .. 2 ... : ... .. . ...
ROW 34 : ... .. 1 ... ... ... ... : ... .. . ... ... ... ... : ... .. . ... : ... .. 1 ... : ... .. . ...
ROW 35 : F-3 00 . ... ... ... ... : ... .. 1 ... ... ... ... : ... .. . ... : ... .. 0 ... : ... .. . ...
ROW 36 : ... .. . ... ... ... ... : F-3 00 . ... ... ... ... : --- .. . ... : ... .. . ... : ... .. . ...
ROW 37 : ... .. . ... ... ... ... : ... .. . ... ... ... ... : ... .. . ... : ... .. . ... : ... .. . ...
ROW 38 : D#3 00 6 ... ... ... ... : ... .. . ... ... ... ... : G#2 00 . ... : 2-# 00 6 ... : ... .. . ...
ROW 39 : ... .. . ... ... ... ... : D#3 00 6 ... ... ... ... : ... .. . ... : ... .. 4 ... : ... .. . ...
ROW 3A : ... .. 5 ... ... ... ... : ... .. . ... ... ... ... : ... .. . ... : ... .. 2 ... : ... .. . ...
ROW 3B : ... .. . ... ... ... ... : ... .. 5 ... ... ... ... : ... .. . ... : ... .. 1 ... : ... .. . ...
ROW 3C : ... .. 4 ... ... ... ... : ... .. . ... ... ... ... : ... .. . ... : ... .. 0 ... : ... .. . ...
ROW 3D : ... .. . ... ... ... ... : ... .. 4 ... ... ... ... : --- .. . ... : ... .. . ... : ... .. . ...
ROW 3E : ... .. 3 ... ... ... ... : ... .. . ... ... ... ... : ... .. . ... : ... .. . ... : ... .. . ...
ROW 3F : ... .. . ... ... ... ... : ... .. 3 ... ... ... ... : D#3 00 . ... : E-# 00 6 ... : ... .. . ...
ROW 40 : ... .. 2 ... ... ... ... : ... .. . ... ... ... ... : ... .. . ... : ... .. 4 ... : ... .. . ...
ROW 41 : ... .. . ... ... ... ... : ... .. 2 ... ... ... ... : ... .. . ... : ... .. 2 ... : ... .. . ...
ROW 42 : ... .. 1 ... ... ... ... : ... .. . ... ... ... ... : ... .. . ... : ... .. 1 ... : ... .. . ...
ROW 43 : D-3 00 . ... ... ... ... : ... .. 1 ... ... ... ... : ... .. . ... : ... .. 0 ... : ... .. . ...
ROW 44 : ... .. . ... ... ... ... : D-3 00 . ... ... ... ... : --- .. . ... : ... .. . ... : ... .. . ...
ROW 45 : ... .. . ... ... ... ... : ... .. . ... ... ... ... : ... .. . ... : ... .. . ... : ... .. . ...
ROW 46 : C-3 00 6 ... ... ... ... : ... .. . ... ... ... ... : C-4 00 . ... : 7-# 00 6 ... : ... .. . ...
ROW 47 : ... .. . ... ... ... ... : C-3 00 6 ... ... ... ... : ... .. . ... : ... .. 4 ... : ... .. . ...
ROW 48 : ... .. 5 ... ... ... ... : ... .. . ... ... ... ... : ... .. . ... : ... .. 2 ... : ... .. . ...
ROW 49 : ... .. . ... ... ... ... : ... .. 5 ... ... ... ... : ... .. . ... : ... .. 1 ... : ... .. . ...
ROW 4A : ... .. 4 ... ... ... ... : ... .. . ... ... ... ... : ... .. . ... : ... .. 0 ... : ... .. . ...
ROW 4B : ... .. . ... ... ... ... : ... .. 4 ... ... ... ... : --- .. . ... : ... .. . ... : ... .. . ...
ROW 4C : ... .. 3 ... ... ... ... : ... .. . ... ... ... ... : ... .. . ... : ... .. . ... : ... .. . ...
ROW 4D : ... .. . ... ... ... ... : ... .. 3 ... ... ... ... : D#4 00 . ... : E-# 00 6 ... : ... .. . ...
ROW 4E : ... .. 2 ... ... ... ... : ... .. . ... ... ... ... : ... .. . ... : ... .. 4 ... : ... .. . ...
ROW 4F : ... .. . ... ... ... ... : ... .. 2 ... ... ... ... : ... .. . ... : ... .. 2 ... : ... .. . ...
ROW 50 : ... .. 1 ... ... ... ... : ... .. . ... ... ... ... : ... .. . ... : ... .. 1 ... : ... .. . ...
ROW 51 : D#3 00 . ... ... ... ... : ... .. 1 ... ... ... ... : ... .. . ... : ... .. 0 ... : ... .. . ...
ROW 52 : ... .. . ... ... ... ... : D#3 00 . ... ... ... ... : --- .. . ... : ... .. . ... : ... .. . ...
ROW 53 : ... .. . ... ... ... ... : ... .. . ... ... ... ... : ... .. . ... : ... .. . ... : ... .. . ...
ROW 54 : D-3 00 6 ... ... ... ... : ... .. . ... ... ... ... : G-2 00 . ... : 2-# 00 6 ... : ... .. . ...
ROW 55 : ... .. . ... ... ... ... : D-3 00 6 ... ... ... ... : ... .. . ... : ... .. 4 ... : ... .. . ...
ROW 56 : ... .. 5 ... ... ... ... : ... .. . ... ... ... ... : ... .. . ... : ... .. 2 ... : ... .. . ...
ROW 57 : ... .. . ... ... ... ... : ... .. 5 ... ... ... ... : ... .. . ... : ... .. 1 ... : ... .. . ...
ROW 58 : ... .. 4 ... ... ... ... : ... .. . ... ... ... ... : ... .. . ... : ... .. 0 ... : ... .. . ...
ROW 59 : ... .. . ... ... ... ... : ... .. 4 ... ... ... ... : --- .. . ... : ... .. . ... : ... .. . ...
ROW 5A : ... .. 3 ... ... ... ... : ... .. . ... ... ... ... : ... .. . ... : ... .. . ... : ... .. . ...
ROW 5B : ... .. . ... ... ... ... : ... .. 3 ... ... ... ... : D-3 00 . ... : E-# 00 6 ... : ... .. . ...
ROW 5C : ... .. 2 ... ... ... ... : ... .. . ... ... ... ... : ... .. . ... : ... .. 4 ... : ... .. . ...
ROW 5D : ... .. . ... ... ... ... : ... .. 2 ... ... ... ... : ... .. . ... : ... .. 2 ... : ... .. . ...
ROW 5E : ... .. 1 ... ... ... ... : ... .. . ... ... ... ... : ... .. . ... : E-# 00 6 ... : ... .. . ...
ROW 5F : C-3 00 . ... ... ... ... : ... .. 1 ... ... ... ... : ... .. . ... : ... .. 4 ... : ... .. . ...
ROW 60 : ... .. . ... ... ... ... : C-3 00 . ... ... ... ... : --- .. . ... : ... .. 2 ... : ... .. . ...
ROW 61 : ... .. . ... ... ... ... : ... .. . ... ... ... ... : ... .. . ... : ... .. 1 ... : ... .. . ...
ROW 62 : B-2 00 6 ... ... ... ... : ... .. . ... ... ... ... : A-3 00 . ... : 7-# 00 6 ... : ... .. . ...
ROW 63 : ... .. . ... ... ... ... : B-2 00 6 ... ... ... ... : ... .. . ... : ... .. 4 ... : ... .. . ...
ROW 64 : ... .. 5 ... ... ... ... : ... .. . ... ... ... ... : ... .. . ... : ... .. 2 ... : ... .. . ...
ROW 65 : ... .. . ... ... ... ... : ... .. 5 ... ... ... ... : ... .. . ... : ... .. 1 ... : ... .. . ...
ROW 66 : ... .. 4 ... ... ... ... : ... .. . ... ... ... ... : ... .. . ... : ... .. 0 ... : ... .. . ...
ROW 67 : ... .. . ... ... ... ... : ... .. 4 ... ... ... ... : --- .. . ... : ... .. . ... : ... .. . ...
ROW 68 : ... .. 3 ... ... ... ... : ... .. . ... ... ... ... : ... .. . ... : ... .. . ... : ... .. . ...
ROW 69 : ... .. . ... ... ... ... : ... .. 3 ... ... ... ... : B-3 00 . ... : E-# 00 6 ... : ... .. . ...
ROW 6A : ... .. 2 ... ... ... ... : ... .. . ... ... ... ... : ... .. . ... : ... .. 4 ... : ... .. . ...
ROW 6B : ... .. . ... ... ... ... : ... .. 2 ... ... ... ... : ... .. . ... : ... .. 2 ... : ... .. . ...
ROW 6C : ... .. 1 ... ... ... ... : ... .. . ... ... ... ... : ... .. . ... : ... .. 1 ... : ... .. . ...
ROW 6D : D-3 00 . ... ... ... ... : ... .. 1 ... ... ... ... : ... .. . ... : ... .. 0 ... : ... .. . ...
ROW 6E : ... .. . ... ... ... ... : D-3 00 . ... ... ... ... : --- .. . ... : ... .. . ... : ... .. . ...
ROW 6F : ... .. . ... ... ... ... : ... .. . ... ... ... ... : ... .. . ... : ... .. . ... : ... .. . ...
ROW 70 : C-3 00 7 ... ... ... ... : D-4 00 5 V00 ... ... P80 : C-3 00 . ... : 2-# 00 5 V00 : ... .. . ...
ROW 71 : ... .. . ... ... ... ... : ... .. . ... ... ... ... : ... .. . ... : ... .. 4 ... : ... .. . ...
ROW 72 : ... .. 6 ... ... ... ... : E-4 00 4 ... ... ... ... : ... .. . ... : ... .. 3 ... : ... .. . ...
ROW 73 : ... .. . ... ... ... ... : ... .. . ... ... ... ... : ... .. . ... : ... .. 2 ... : ... .. . ...
ROW 74 : ... .. 5 ... ... ... ... : D-4 00 3 ... ... ... ... : ... .. . ... : ... .. 1 ... : ... .. . ...
ROW 75 : ... .. . ... ... ... ... : ... .. . ... ... ... ... : ... .. . ... : ... .. 0 ... : ... .. . ...
ROW 76 : ... .. . ... ... ... ... : E-4 00 2 ... ... ... ... : ... .. . ... : ... .. . ... : ... .. . ...
ROW 77 : ... .. . ... ... ... ... : ... .. . ... ... ... ... : ... .. . ... : 2-# 00 1 ... : ... .. . ...
ROW 78 : ... .. . ... ... ... ... : D-4 00 1 ... ... ... ... : ... .. . ... : ... .. 0 ... : ... .. . ...
ROW 79 : ... .. . ... ... ... ... : ... .. . ... ... ... ... : ... .. . ... : ... .. . ... : ... .. . ...
ROW 7A : ... .. . ... ... ... ... : E-4 00 . ... ... ... ... : ... .. . ... : ... .. . ... : ... .. . ...
ROW 7B : ... .. . ... ... ... ... : ... .. . ... ... ... ... : ... .. . ... : ... .. . ... : ... .. . ...
ROW 7C : ... .. . ... ... ... ... : D-4 00 . ... ... ... ... : ... .. . ... : ... .. . ... : ... .. . ...
ROW 7D : ... .. . ... ... ... ... : ... .. . ... ... ... ... : ... .. . ... : ... .. . ... : ... .. . ...
ROW 7E : ... .. . ... ... ... ... : D-4 00 5 ... ... ... ... : ... .. . ... : 2-# 00 3 ... : ... .. . ...
ROW 7F : ... .. . ... ... ... ... : ... .. . ... ... ... ... : ... .. . ... : ... .. . ... : ... .. . ...
ROW 80 : ... .. . ... ... ... ... : E-4 00 4 ... ... ... ... : ... .. . ... : ... .. 2 ... : ... .. . ...
ROW 81 : ... .. . ... ... ... ... : ... .. . ... ... ... ... : ... .. . ... : ... .. . ... : ... .. . ...
ROW 82 : ... .. . ... ... ... ... : D-4 00 3 ... ... ... ... : ... .. . ... : ... .. 1 ... : ... .. . ...
ROW 83 : ... .. . ... ... ... ... : ... .. . ... ... ... ... : ... .. . ... : ... .. . ... : ... .. . ...
ROW 84 : ... .. . ... ... ... ... : E-4 00 2 ... ... ... ... : ... .. . ... : ... .. 0 ... : ... .. . ...
ROW 85 : ... .. . ... ... ... ... : ... .. . ... ... ... ... : ... .. . ... : ... .. . ... : ... .. . ...
ROW 86 : ... .. . ... ... ... ... : D-4 00 1 ... ... ... ... : ... .. . ... : ... .. . ... : ... .. . ...
ROW 87 : ... .. . ... ... ... ... : ... .. . ... ... ... ... : ... .. . ... : ... .. . ... : ... .. . ...
ROW 88 : ... .. . ... ... ... ... : E-4 00 . ... ... ... ... : ... .. . ... : ... .. . ... : ... .. . ...
ROW 89 : ... .. . ... ... ... ... : ... .. . ... ... ... ... : ... .. . ... : ... .. . ... : ... .. . ...
ROW 8A : ... .. . ... ... ... ... : D-4 00 . ... ... ... ... : ... .. . ... : ... .. . ... : ... .. . ...
ROW 8B : ... .. . ... ... ... ... : ... .. . ... ... ... ... : --- .. . ... : ... .. . ... : ... .. . ...
ROW 8C : ... .. . ... ... ... P7F : D-4 00 5 ... ... ... ... : C-3 00 . ... : 7-# 00 5 ... : ... .. . ...
ROW 8D : ... .. . ... ... ... P7E : ... .. . ... ... ... ... : ... .. . ... : ... .. 4 ... : ... .. . ...
ROW 8E : ... .. . ... ... ... P7D : E-4 00 4 ... ... ... ... : ... .. . ... : ... .. 3 ... : ... .. . ...
ROW 8F : ... .. . ... ... ... P7E : ... .. . ... ... ... ... : ... .. . ... : ... .. . ... : ... .. . ...
ROW 90 : ... .. . ... ... ... P7F : D-4 00 3 ... ... ... ... : ... .. . ... : ... .. 2 ... : ... .. . ...
ROW 91 : ... .. . ... ... ... P80 : ... .. . ... ... ... ... : ... .. . ... : ... .. . ... : ... .. . ...
ROW 92 : ... .. . ... ... ... P81 : E-4 00 2 ... ... ... ... : ... .. . ... : ... .. 1 ... : ... .. . ...
ROW 93 : ... .. . ... ... ... P82 : ... .. . ... ... ... ... : ... .. . ... : ... .. . ... : ... .. . ...
ROW 94 : ... .. . ... ... ... P83 : D-4 00 1 ... ... ... ... : ... .. . ... : ... .. 0 ... : ... .. . ...
ROW 95 : ... .. . ... ... ... P82 : ... .. . ... ... ... ... : ... .. . ... : ... .. . ... : ... .. . ...
ROW 96 : ... .. . ... ... ... P81 : E-4 00 . ... ... ... ... : ... .. . ... : ... .. . ... : ... .. . ...
ROW 97 : ... .. . ... ... ... P80 : ... .. . ... ... ... ... : ... .. . ... : ... .. . ... : ... .. . ...
ROW 98 : ... .. . ... ... ... P7F : D-4 00 . ... ... ... ... : ... .. . ... : ... .. . ... : ... .. . ...
ROW 99 : ... .. . ... ... ... P7E : ... .. . ... ... ... ... : ... .. . ... : ... .. . ... : ... .. . ...
ROW 9A : ... .. . ... ... ... P7D : D-4 00 5 ... ... ... ... : ... .. . ... : 2-# 00 3 ... : ... .. . ...
ROW 9B : ... .. . ... ... ... P7E : ... .. . ... ... ... ... : ... .. . ... : ... .. . ... : ... .. . ...
ROW 9C : ... .. . ... ... ... P7F : E-4 00 4 ... ... ... ... : ... .. . ... : ... .. 2 ... : ... .. . ...
ROW 9D : ... .. . ... ... ... P80 : ... .. . ... ... ... ... : ... .. . ... : ... .. . ... : ... .. . ...
ROW 9E : ... .. . ... ... ... P81 : D-4 00 3 ... ... ... ... : ... .. . ... : ... .. 1 ... : ... .. . ...
ROW 9F : ... .. . ... ... ... P82 : ... .. . ... ... ... ... : ... .. . ... : ... .. . ... : ... .. . ...
ROW A0 : ... .. . ... ... ... P83 : E-4 00 2 ... ... ... ... : ... .. . ... : ... .. 0 ... : ... .. . ...
ROW A1 : ... .. . ... ... ... P82 : ... .. . ... ... ... ... : ... .. . ... : ... .. . ... : ... .. . ...
ROW A2 : ... .. . ... ... ... P81 : D-4 00 1 ... ... ... ... : ... .. . ... : ... .. . ... : ... .. . ...
ROW A3 : ... .. . ... ... ... P80 : ... .. . ... ... ... ... : ... .. . ... : ... .. . ... : ... .. . ...
ROW A4 : ... .. . ... ... ... P7F : E-4 00 . ... ... ... ... : ... .. . ... : ... .. . ... : ... .. . ...
ROW A5 : ... .. . ... ... ... P7E : ... .. . ... ... ... ... : ... .. . ... : ... .. . ... : ... .. . ...
ROW A6 : ... .. . ... ... ... P7D : D-4 00 . ... ... ... ... : ... .. . ... : ... .. . ... : ... .. . ...
ROW A7 : ... .. . ... ... ... P7E : ... .. . ... ... ... ... : --- .. . ... : ... .. . ... : ... .. . ...
ROW A8 : ... .. . ... ... ... P7F : D-4 00 5 ... ... ... ... : G-3 00 . ... : 2-# 00 5 ... : ... .. . ...
ROW A9 : ... .. . ... ... ... P80 : ... .. . ... ... ... ... : ... .. . ... : ... .. 4 ... : ... .. . ...
ROW AA : ... .. . ... ... ... P81 : E-4 00 4 ... ... ... ... : ... .. . ... : ... .. 3 ... : ... .. . ...
ROW AB : ... .. . ... ... ... P82 : ... .. . ... ... ... ... : ... .. . ... : ... .. 2 ... : ... .. . ...
ROW AC : ... .. . ... ... ... P83 : D-4 00 3 ... ... ... ... : ... .. . ... : ... .. 1 ... : ... .. . ...
ROW AD : ... .. . ... ... ... P82 : ... .. . ... ... ... ... : ... .. . ... : ... .. 0 ... : ... .. . ...
ROW AE : ... .. . ... ... ... P81 : E-4 00 2 ... ... ... ... : ... .. . ... : ... .. . ... : ... .. . ...
ROW AF : ... .. . ... ... ... P80 : ... .. . ... ... ... ... : ... .. . ... : 2-# 00 1 ... : ... .. . ...
ROW B0 : ... .. . ... ... ... P7F : D-4 00 1 ... ... ... ... : ... .. . ... : ... .. 0 ... : ... .. . ...
ROW B1 : ... .. . ... ... ... P7E : ... .. . ... ... ... ... : ... .. . ... : ... .. . ... : ... .. . ...
ROW B2 : ... .. . ... ... ... P7D : E-4 00 . ... ... ... ... : ... .. . ... : ... .. . ... : ... .. . ...
ROW B3 : ... .. . ... ... ... P7E : ... .. . ... ... ... ... : ... .. . ... : ... .. . ... : ... .. . ...
ROW B4 : ... .. . ... ... ... P7F : D-4 00 . ... ... ... ... : ... .. . ... : ... .. . ... : ... .. . ...
ROW B5 : ... .. . ... ... ... P80 : ... .. . ... ... ... ... : ... .. . ... : ... .. . ... : ... .. . ...
ROW B6 : ... .. . ... ... ... P81 : D-4 00 5 ... ... ... ... : ... .. . ... : 2-# 00 3 ... : ... .. . ...
ROW B7 : ... .. . ... ... ... P82 : ... .. . ... ... ... ... : ... .. . ... : ... .. . ... : ... .. . ...
ROW B8 : ... .. . ... ... ... P83 : E-4 00 4 ... ... ... ... : ... .. . ... : ... .. 2 ... : ... .. . ...
ROW B9 : ... .. . ... ... ... P82 : ... .. . ... ... ... ... : ... .. . ... : ... .. . ... : ... .. . ...
ROW BA : ... .. . ... ... ... P81 : D-4 00 3 ... ... ... ... : ... .. . ... : ... .. 1 ... : ... .. . ...
ROW BB : ... .. . ... ... ... P80 : ... .. . ... ... ... ... : ... .. . ... : ... .. . ... : ... .. . ...
ROW BC : ... .. . ... ... ... P7F : E-4 00 2 ... ... ... ... : ... .. . ... : ... .. 0 ... : ... .. . ...
ROW BD : ... .. . ... ... ... P7E : ... .. . ... ... ... ... : ... .. . ... : ... .. . ... : ... .. . ...
ROW BE : ... .. . ... ... ... P7D : D-4 00 1 ... ... ... ... : ... .. . ... : ... .. . ... : ... .. . ...
ROW BF : ... .. . ... ... ... P7E : ... .. . ... ... ... ... : ... .. . ... : ... .. . ... : ... .. . ...
ROW C0 : ... .. . ... ... ... P7F : E-4 00 . ... ... ... ... : ... .. . ... : ... .. . ... : ... .. . ...
ROW C1 : ... .. . ... ... ... P80 : ... .. . ... ... ... ... : ... .. . ... : ... .. . ... : ... .. . ...
ROW C2 : ... .. . ... ... ... P81 : D-4 00 . ... ... ... ... : ... .. . ... : ... .. . ... : ... .. . ...
ROW C3 : ... .. . ... ... ... P82 : ... .. . ... ... ... ... : --- .. . ... : ... .. . ... : ... .. . ...
ROW C4 : ... .. . ... ... ... P83 : D-4 00 5 ... ... ... ... : C-4 00 . ... : 7-# 00 5 ... : ... .. . ...
ROW C5 : ... .. . ... ... ... P82 : ... .. . ... ... ... ... : ... .. . ... : ... .. 4 ... : ... .. . ...
ROW C6 : ... .. . ... ... ... P81 : E-4 00 4 ... ... ... ... : ... .. . ... : ... .. 3 ... : ... .. . ...
ROW C7 : ... .. . ... ... ... P80 : ... .. . ... ... ... ... : ... .. . ... : ... .. . ... : ... .. . ...
ROW C8 : ... .. . ... ... ... P7F : D-4 00 3 ... ... ... ... : ... .. . ... : ... .. 2 ... : ... .. . ...
ROW C9 : ... .. . ... ... ... P7E : ... .. . ... ... ... ... : ... .. . ... : ... .. . ... : ... .. . ...
ROW CA : ... .. . ... ... ... P7D : E-4 00 2 ... ... ... ... : ... .. . ... : ... .. 1 ... : ... .. . ...
ROW CB : ... .. . ... ... ... P7E : ... .. . ... ... ... ... : ... .. . ... : ... .. . ... : ... .. . ...
ROW CC : ... .. . ... ... ... P7F : D-4 00 1 ... ... ... ... : ... .. . ... : ... .. 0 ... : ... .. . ...
ROW CD : ... .. . ... ... ... P80 : ... .. . ... ... ... ... : ... .. . ... : ... .. . ... : ... .. . ...
ROW CE : ... .. . ... ... ... P81 : E-4 00 . ... ... ... ... : ... .. . ... : ... .. . ... : ... .. . ...
ROW CF : ... .. . ... ... ... P82 : ... .. . ... ... ... ... : ... .. . ... : ... .. . ... : ... .. . ...
ROW D0 : ... .. . ... ... ... P83 : D-4 00 . ... ... ... ... : ... .. . ... : ... .. . ... : ... .. . ...
ROW D1 : ... .. . ... ... ... P82 : ... .. . ... ... ... ... : ... .. . ... : ... .. . ... : ... .. . ...
ROW D2 : ... .. 4 ... ... ... P81 : D-4 00 5 ... ... ... ... : ... .. . ... : 2-# 00 3 ... : ... .. . ...
ROW D3 : ... .. . ... ... ... P80 : ... .. . ... ... ... ... : ... .. . ... : ... .. . ... : ... .. . ...
ROW D4 : ... .. . ... ... ... P7F : E-4 00 4 ... ... ... ... : ... .. . ... : ... .. 2 ... : ... .. . ...
ROW D5 : ... .. 3 ... ... ... P7E : ... .. . ... ... ... ... : ... .. . ... : ... .. . ... : ... .. . ...
ROW D6 : ... .. . ... ... ... P7D : D-4 00 3 ... ... ... ... : ... .. . ... : ... .. 1 ... : ... .. . ...
ROW D7 : ... .. . ... ... ... P7E : ... .. . ... ... ... ... : ... .. . ... : ... .. . ... : ... .. . ...
ROW D8 : ... .. 2 ... ... ... P7F : E-4 00 2 ... ... ... ... : ... .. . ... : ... .. 0 ... : ... .. . ...
ROW D9 : ... .. . ... ... ... P80 : ... .. . ... ... ... ... : ... .. . ... : ... .. . ... : ... .. . ...
ROW DA : ... .. . ... ... ... P81 : D-4 00 1 ... ... ... ... : ... .. . ... : ... .. . ... : ... .. . ...
ROW DB : ... .. 1 ... ... ... P82 : ... .. . ... ... ... ... : ... .. . ... : ... .. . ... : ... .. . ...
ROW DC : ... .. . ... ... ... P83 : E-4 00 . ... ... ... ... : ... .. . ... : ... .. . ... : ... .. . ...
ROW DD : ... .. . ... ... ... P82 : ... .. . ... ... ... ... : ... .. . ... : ... .. . ... : ... .. . ...
ROW DE : ... .. . ... ... ... P81 : D-4 00 . ... ... ... ... : ... .. . ... : ... .. . ... : ... .. . ...
ROW DF : ... .. . ... ... ... P80 : ... .. . ... ... ... ... : ... .. . ... : ... .. . ... : ... .. . ...

PATTERN 0B
ROW 00 : --- .. . ... ... ... ... : F-3 00 4 V00 ... ... ... : F-3 00 . ... : 2-# 00 5 V00 : ... .. . ...
ROW 01 : ... .. . ... ... ... ... : ... .. . V02 ... ... ... : ... .. . ... : ... .. 4 ... : ... .. . ...
ROW 02 : ... .. . ... ... ... ... : ... .. . ... ... ... ... : ... .. . ... : ... .. 3 ... : ... .. . ...
ROW 03 : ... .. . ... ... ... ... : ... .. 3 ... ... ... ... : ... .. . ... : ... .. 2 ... : ... .. . ...
ROW 04 : ... .. . ... ... ... ... : ... .. . ... ... ... ... : ... .. . ... : ... .. 1 ... : ... .. . ...
ROW 05 : ... .. . ... ... ... ... : ... .. 1 ... ... ... ... : --- .. . ... : ... .. 0 ... : ... .. . ...
ROW 06 : ... .. . ... ... ... ... : ... .. . ... ... ... ... : ... .. . ... : ... .. . ... : ... .. . ...
ROW 07 : ... .. . ... ... ... ... : G-3 00 4 V00 ... ... ... : F-3 00 . ... : 2-# 00 1 ... : ... .. . ...
ROW 08 : ... .. . ... ... ... ... : ... .. . V02 ... ... ... : ... .. . ... : ... .. 0 ... : ... .. . ...
ROW 09 : ... .. . ... ... ... ... : ... .. . ... ... ... ... : ... .. . ... : ... .. . ... : ... .. . ...
ROW 0A : ... .. . ... ... ... ... : ... .. 3 ... ... ... ... : ... .. . ... : ... .. . ... : ... .. . ...
ROW 0B : ... .. . ... ... ... ... : ... .. . ... ... ... ... : ... .. . ... : ... .. . ... : ... .. . ...
ROW 0C : ... .. . ... ... ... ... : F-3 00 1 V00 ... ... P82 : --- .. . ... : ... .. . ... : ... .. . ...
ROW 0D : ... .. . ... ... ... ... : ... .. . V02 ... ... ... : ... .. . ... : ... .. . ... : ... .. . ...
ROW 0E : E-4 00 7 V02 ... ... ... : A-3 00 4 V00 ... ... P80 : F-4 00 . ... : E-# 00 3 ... : ... .. . ...
ROW 0F : A-3 00 . ... ... ... ... : ... .. . V02 ... ... ... : ... .. . ... : ... .. . ... : ... .. . ...
ROW 10 : ... .. 6 ... ... ... ... : ... .. . ... ... ... ... : ... .. . ... : ... .. 2 ... : ... .. . ...
ROW 11 : ... .. . ... ... ... ... : ... .. 3 ... ... ... ... : ... .. . ... : ... .. . ... : ... .. . ...
ROW 12 : ... .. 5 ... ... ... ... : ... .. . ... ... ... ... : ... .. . ... : ... .. 1 ... : ... .. . ...
ROW 13 : ... .. . ... ... ... ... : G-3 00 1 V00 ... ... P82 : ... .. . ... : ... .. . ... : ... .. . ...
ROW 14 : ... .. . ... ... ... ... : ... .. . V02 ... ... ... : ... .. . ... : ... .. . ... : ... .. . ...
ROW 15 : ... .. . ... ... ... ... : C-4 00 4 V00 ... ... P80 : ... .. . ... : ... .. . ... : ... .. . ...
ROW 16 : ... .. . ... ... ... ... : ... .. . V02 ... ... ... : ... .. . ... : ... .. . ... : ... .. . ...
ROW 17 : ... .. . ... ... ... ... : ... .. . ... ... ... ... : ... .. . ... : ... .. . ... : ... .. . ...
ROW 18 : ... .. . ... ... ... ... : ... .. 3 ... ... ... ... : ... .. . ... : ... .. . ... : ... .. . ...
ROW 19 : ... .. 2 ... ... ... ... : ... .. . ... ... ... ... : ... .. . ... : ... .. . ... : ... .. . ...
ROW 1A : ... .. . ... ... ... ... : A-3 00 1 V00 ... ... P82 : ... .. . ... : ... .. . ... : ... .. . ...
ROW 1B : ... .. . ... ... ... ... : ... .. . V02 ... ... ... : ... .. . ... : ... .. . ... : ... .. . ...
ROW 1C : F#4 00 7 ... ... ... ... : F-4 00 4 V00 ... ... P80 : G-4 00 . ... : 7-# 00 5 ... : ... .. . ...
ROW 1D : B-3 00 . ... ... ... ... : ... .. . V02 ... ... ... : ... .. . ... : ... .. 4 ... : ... .. . ...
ROW 1E : ... .. 6 ... ... ... ... : ... .. . ... ... ... ... : ... .. . ... : ... .. 3 ... : ... .. . ...
ROW 1F : ... .. . ... ... ... ... : ... .. 3 ... ... ... ... : ... .. . ... : ... .. . ... : ... .. . ...
ROW 20 : ... .. 5 ... ... ... ... : ... .. . ... ... ... ... : ... .. . ... : ... .. 2 ... : ... .. . ...
ROW 21 : ... .. . ... ... ... ... : C-4 00 1 V00 ... ... P82 : ... .. . ... : ... .. . ... : ... .. . ...
ROW 22 : ... .. . ... ... ... ... : ... .. . V02 ... ... ... : ... .. . ... : ... .. 1 ... : ... .. . ...
ROW 23 : ... .. . ... ... ... ... : C-4 00 4 V00 ... ... P80 : ... .. . ... : ... .. . ... : ... .. . ...
ROW 24 : ... .. . ... ... ... ... : ... .. . V02 ... ... ... : ... .. . ... : ... .. 0 ... : ... .. . ...
ROW 25 : ... .. . ... ... ... ... : ... .. . ... ... ... ... : ... .. . ... : ... .. . ... : ... .. . ...
ROW 26 : ... .. . ... ... ... ... : ... .. 3 ... ... ... ... : ... .. . ... : ... .. . ... : ... .. . ...
ROW 27 : ... .. . ... ... ... ... : ... .. . ... ... ... ... : ... .. . ... : ... .. . ... : ... .. . ...
ROW 28 : ... .. . ... ... ... ... : F-4 00 1 V00 ... ... P82 : ... .. . ... : ... .. . ... : ... .. . ...
ROW 29 : ... .. . ... ... ... ... : ... .. . V02 ... ... ... : ... .. . ... : ... .. . ... : ... .. . ...
ROW 2A : ... .. . ... ... ... ... : A-3 00 4 V00 ... ... P80 : C-3 00 . ... : E-# 00 3 ... : ... .. . ...
ROW 2B : ... .. . ... ... ... ... : ... .. . V02 ... ... ... : ... .. . ... : ... .. . ... : ... .. . ...
ROW 2C : ... .. . ... ... ... ... : ... .. . ... ... ... ... : ... .. . ... : ... .. 2 ... : ... .. . ...
ROW 2D : ... .. . ... ... ... ... : ... .. 3 ... ... ... ... : ... .. . ... : ... .. . ... : ... .. . ...
ROW 2E : ... .. . ... ... ... ... : ... .. . ... ... ... ... : ... .. . ... : ... .. 1 ... : ... .. . ...
ROW 2F : ... .. . ... ... ... ... : C-4 00 1 V00 ... ... P82 : --- .. . ... : ... .. . ... : ... .. . ...
ROW 30 : ... .. . ... ... ... ... : ... .. . V02 ... ... ... : ... .. . ... : ... .. . ... : ... .. . ...
ROW 31 : ... .. . ... ... ... ... : G-3 00 4 V00 ... ... P80 : C-3 00 . ... : ... .. . ... : ... .. . ...
ROW 32 : ... .. . ... ... ... ... : ... .. . V02 ... ... ... : ... .. . ... : ... .. . ... : ... .. . ...
ROW 33 : ... .. . ... ... ... ... : ... .. . ... ... ... ... : ... .. . ... : ... .. . ... : ... .. . ...
ROW 34 : ... .. . ... ... ... ... : ... .. 3 ... ... ... ... : ... .. . ... : ... .. . ... : ... .. . ...
ROW 35 : ... .. . ... ... ... ... : ... .. . ... ... ... ... : ... .. . ... : ... .. . ... : ... .. . ...
ROW 36 : ... .. . ... ... ... ... : A-3 00 1 V00 ... ... P82 : --- .. . ... : ... .. . ... : ... .. . ...
ROW 37 : ... .. . ... ... ... ... : ... .. . V02 ... ... ... : ... .. . ... : ... .. . ... : ... .. . ...
ROW 38 : ... .. . ... ... ... P7F : F-3 00 4 V00 ... ... P80 : F-3 00 . ... : 2-# 00 5 ... : ... .. . ...
ROW 39 : ... .. . ... ... ... P7E : ... .. . V02 ... ... ... : ... .. . ... : ... .. 4 ... : ... .. . ...
ROW 3A : ... .. . ... ... ... P7D : ... .. . ... ... ... ... : ... .. . ... : ... .. 3 ... : ... .. . ...
ROW 3B : ... .. . ... ... ... P7E : ... .. 3 ... ... ... ... : ... .. . ... : ... .. 2 ... : ... .. . ...
ROW 3C : ... .. . ... ... ... P7F : ... .. . ... ... ... ... : ... .. . ... : ... .. 1 ... : ... .. . ...
ROW 3D : ... .. . ... ... ... P80 : G-3 00 1 V00 ... ... P82 : --- .. . ... : ... .. 0 ... : ... .. . ...
ROW 3E : ... .. . ... ... ... P81 : ... .. . V02 ... ... ... : ... .. . ... : ... .. . ... : ... .. . ...
ROW 3F : ... .. 2 ... ... ... P82 : G-3 00 4 V00 ... ... P80 : F-3 00 . ... : 2-# 00 1 ... : ... .. . ...
ROW 40 : ... .. . ... ... ... P83 : ... .. . V02 ... ... ... : ... .. . ... : ... .. 0 ... : ... .. . ...
ROW 41 : ... .. . ... ... ... P82 : ... .. . ... ... ... ... : ... .. . ... : ... .. . ... : ... .. . ...
ROW 42 : ... .. . ... ... ... P81 : ... .. 3 ... ... ... ... : ... .. . ... : ... .. . ... : ... .. . ...
ROW 43 : ... .. . ... ... ... P80 : ... .. . ... ... ... ... : ... .. . ... : ... .. . ... : ... .. . ...
ROW 44 : ... .. . ... ... ... P7F : F-3 00 1 V00 ... ... P82 : --- .. . ... : ... .. . ... : ... .. . ...
ROW 45 : ... .. . ... ... ... P7E : ... .. . V02 ... ... ... : ... .. . ... : ... .. . ... : ... .. . ...
ROW 46 : A-4 00 7 V01 ... ... P80 : A-3 00 4 V00 ... ... P80 : F-4 00 . ... : E-# 00 3 ... : ... .. . ...
ROW 47 : ... .. . ... ... ... ... : ... .. . V02 ... ... ... : ... .. . ... : ... .. . ... : ... .. . ...
ROW 48 : ... .. 6 ... ... ... ... : ... .. . ... ... ... ... : ... .. . ... : ... .. 2 ... : ... .. . ...
ROW 49 : ... .. . ... ... ... ... : ... .. 3 ... ... ... ... : ... .. . ... : ... .. . ... : ... .. . ...
ROW 4A : ... .. 5 ... ... ... ... : ... .. . ... ... ... ... : ... .. . ... : ... .. 1 ... : ... .. . ...
ROW 4B : ... .. . ... ... ... ... : G-3 00 1 V00 ... ... P82 : ... .. . ... : ... .. . ... : ... .. . ...
ROW 4C : ... .. 4 ... ... ... ... : ... .. . V02 ... ... ... : ... .. . ... : ... .. . ... : ... .. . ...
ROW 4D : ... .. . ... ... ... ... : C-4 00 4 V00 ... ... P80 : ... .. . ... : ... .. . ... : ... .. . ...
ROW 4E : ... .. 3 ... ... ... ... : ... .. . V02 ... ... ... : ... .. . ... : ... .. . ... : ... .. . ...
ROW 4F : ... .. . ... ... ... ... : ... .. . ... ... ... ... : ... .. . ... : ... .. . ... : ... .. . ...
ROW 50 : ... .. 2 ... ... ... ... : ... .. 3 ... ... ... ... : ... .. . ... : ... .. . ... : ... .. . ...
ROW 51 : ... .. . ... ... ... ... : ... .. . ... ... ... ... : ... .. . ... : ... .. . ... : ... .. . ...
ROW 52 : ... .. 1 ... ... ... ... : A-3 00 1 V00 ... ... P82 : ... .. . ... : ... .. . ... : ... .. . ...
ROW 53 : ... .. . ... ... ... ... : ... .. . V02 ... ... ... : ... .. . ... : ... .. . ... : ... .. . ...
ROW 54 : B-4 00 7 ... ... ... ... : F-4 00 4 V00 ... ... P80 : G-4 00 . ... : 7-# 00 5 ... : ... .. . ...
ROW 55 : ... .. . ... ... ... ... : ... .. . V02 ... ... ... : ... .. . ... : ... .. 4 ... : ... .. . ...
ROW 56 : ... .. 6 ... ... ... ... : ... .. . ... ... ... ... : ... .. . ... : ... .. 3 ... : ... .. . ...
ROW 57 : ... .. . ... ... ... ... : ... .. 3 ... ... ... ... : ... .. . ... : ... .. . ... : ... .. . ...
ROW 58 : ... .. 5 ... ... ... ... : ... .. . ... ... ... ... : ... .. . ... : ... .. 2 ... : ... .. . ...
ROW 59 : ... .. . ... ... ... ... : C-4 00 1 V00 ... ... P82 : ... .. . ... : ... .. . ... : ... .. . ...
ROW 5A : ... .. . ... ... ... ... : ... .. . V02 ... ... ... : ... .. . ... : ... .. 1 ... : ... .. . ...
ROW 5B : ... .. . ... ... ... ... : C-4 00 4 V00 ... ... P80 : ... .. . ... : ... .. . ... : ... .. . ...
ROW 5C : ... .. . ... ... ... ... : ... .. . V02 ... ... ... : ... .. . ... : ... .. 0 ... : ... .. . ...
ROW 5D : ... .. . ... ... ... ... : ... .. . ... ... ... ... : ... .. . ... : ... .. . ... : ... .. . ...
ROW 5E : ... .. . ... ... ... ... : ... .. 3 ... ... ... ... : ... .. . ... : ... .. . ... : ... .. . ...
ROW 5F : ... .. . ... ... ... ... : ... .. . ... ... ... ... : ... .. . ... : ... .. . ... : ... .. . ...
ROW 60 : ... .. . ... ... ... ... : F-4 00 1 V00 ... ... P82 : ... .. . ... : ... .. . ... : ... .. . ...
ROW 61 : ... .. . ... ... ... ... : ... .. . V02 ... ... ... : ... .. . ... : ... .. . ... : ... .. . ...
ROW 62 : ... .. . ... ... ... P81 : A-3 00 4 V00 ... ... P80 : C-3 00 . ... : E-# 00 3 ... : ... .. . ...
ROW 63 : ... .. . ... ... ... ... : ... .. . V02 ... ... ... : ... .. . ... : ... .. . ... : ... .. . ...
ROW 64 : ... .. . ... ... ... ... : ... .. . ... ... ... ... : ... .. . ... : ... .. 2 ... : ... .. . ...
ROW 65 : ... .. . ... ... ... P80 : ... .. 3 ... ... ... ... : ... .. . ... : ... .. . ... : ... .. . ...
ROW 66 : ... .. . ... ... ... ... : ... .. . ... ... ... ... : ... .. . ... : ... .. 1 ... : ... .. . ...
ROW 67 : ... .. . ... ... ... ... : C-4 00 1 V00 ... ... P82 : --- .. . ... : ... .. . ... : ... .. . ...
ROW 68 : ... .. . ... ... ... P7F : ... .. . V02 ... ... ... : ... .. . ... : ... .. . ... : ... .. . ...
ROW 69 : ... .. . ... ... ... ... : G-3 00 4 V00 ... ... P80 : C-3 00 . ... : ... .. . ... : ... .. . ...
ROW 6A : ... .. . ... ... ... ... : ... .. . V02 ... ... ... : ... .. . ... : ... .. . ... : ... .. . ...
ROW 6B : ... .. . ... ... ... P80 : ... .. . ... ... ... ... : ... .. . ... : ... .. . ... : ... .. . ...
ROW 6C : ... .. . ... ... ... ... : ... .. . ... ... ... ... : ... .. . ... : ... .. . ... : ... .. . ...
ROW 6D : ... .. . ... ... ... ... : ... .. . ... ... ... ... : ... .. . ... : ... .. . ... : ... .. . ...
ROW 6E : ... .. . ... ... ... P81 : A-3 00 1 V00 ... ... P82 : --- .. . ... : ... .. . ... : ... .. . ...
ROW 6F : ... .. . ... ... ... ... : ... .. . V02 ... ... ... : ... .. . ... : ... .. . ... : ... .. . ...
ROW 70 : ... .. . ... ... ... ... : F-3 00 4 V00 ... ... P80 : F-3 00 . ... : 2-# 00 5 V00 : ... .. . ...
ROW 71 : ... .. . ... ... ... P80 : ... .. . V02 ... ... ... : ... .. . ... : ... .. 4 ... : ... .. . ...
ROW 72 : ... .. . ... ... ... ... : ... .. . ... ... ... ... : ... .. . ... : ... .. 3 ... : ... .. . ...
ROW 73 : ... .. . ... ... ... ... : ... .. 3 ... ... ... ... : ... .. . ... : ... .. 2 ... : ... .. . ...
ROW 74 : ... .. . ... ... ... P7F : ... .. . ... ... ... ... : ... .. . ... : ... .. 1 ... : ... .. . ...
ROW 75 : ... .. . ... ... ... ... : G-3 00 1 V00 ... ... P82 : --- .. . ... : ... .. 0 ... : ... .. . ...
ROW 76 : ... .. 4 ... ... ... ... : ... .. . V02 ... ... ... : ... .. . ... : ... .. . ... : ... .. . ...
ROW 77 : ... .. . ... ... ... P80 : G-3 00 4 V00 ... ... P80 : F-3 00 . ... : 2-# 00 1 ... : ... .. . ...
ROW 78 : ... .. 3 ... ... ... ... : ... .. . V02 ... ... ... : ... .. . ... : ... .. 0 ... : ... .. . ...
ROW 79 : ... .. . ... ... ... ... : ... .. . ... ... ... ... : ... .. . ... : ... .. . ... : ... .. . ...
ROW 7A : ... .. 2 ... ... ... P81 : ... .. 3 ... ... ... ... : ... .. . ... : ... .. . ... : ... .. . ...
ROW 7B : ... .. . ... ... ... ... : ... .. . ... ... ... ... : ... .. . ... : ... .. . ... : ... .. . ...
ROW 7C : ... .. 1 ... ... ... ... : F-3 00 1 V00 ... ... P82 : --- .. . ... : ... .. . ... : ... .. . ...
ROW 7D : ... .. . ... ... ... P80 : ... .. . V02 ... ... ... : ... .. . ... : ... .. . ... : ... .. . ...
ROW 7E : A-2 00 7 V00 ... ... P81 : A-3 00 4 V00 ... ... P80 : F-3 00 . ... : E-# 00 3 ... : ... .. . ...
ROW 7F : ... .. . ... ... ... ... : ... .. . V02 ... ... ... : ... .. . ... : ... .. . ... : ... .. . ...
ROW 80 : ... .. . ... ... ... P80 : ... .. . ... ... ... ... : ... .. . ... : ... .. 2 ... : ... .. . ...
ROW 81 : ... .. . ... ... ... P7F : ... .. 3 ... ... ... ... : ... .. . ... : ... .. . ... : ... .. . ...
ROW 82 : ... .. . ... ... ... ... : ... .. . ... ... ... ... : ... .. . ... : ... .. 1 ... : ... .. . ...
ROW 83 : ... .. . ... ... ... P80 : G-3 00 1 V00 ... ... P82 : ... .. . ... : ... .. . ... : ... .. . ...
ROW 84 : ... .. . ... ... ... ... : ... .. . V02 ... ... ... : ... .. . ... : ... .. . ... : ... .. . ...
ROW 85 : ... .. . ... ... ... P81 : C-4 00 4 V00 ... ... P80 : --- .. . ... : ... .. . ... : ... .. . ...
ROW 86 : ... .. . ... ... ... P80 : ... .. . V02 ... ... ... : ... .. . ... : ... .. . ... : ... .. . ...
ROW 87 : ... .. . ... ... ... ... : ... .. . ... ... ... ... : ... .. . ... : ... .. . ... : ... .. . ...
ROW 88 : ... .. . ... ... ... P7F : ... .. 3 ... ... ... ... : ... .. . ... : ... .. . ... : ... .. . ...
ROW 89 : ... .. 2 ... ... ... P80 : ... .. . ... ... ... ... : ... .. . ... : ... .. . ... : ... .. . ...
ROW 8A : ... .. . ... ... ... ... : A-3 00 1 V00 ... ... P82 : ... .. . ... : ... .. . ... : ... .. . ...
ROW 8B : ... .. . ... ... ... P81 : ... .. . V02 ... ... ... : ... .. . ... : ... .. . ... : ... .. . ...
ROW 8C : B-2 00 7 ... ... ... P81 : G-3 00 4 V00 ... ... P80 : G-2 00 . ... : 7-# 00 5 ... : ... .. . ...
ROW 8D : ... .. . ... ... ... ... : ... .. . V02 ... ... ... : ... .. . ... : ... .. 4 ... : ... .. . ...
ROW 8E : ... .. . ... ... ... P80 : ... .. . ... ... ... ... : ... .. . ... : ... .. 3 ... : ... .. . ...
ROW 8F : ... .. . ... ... ... P7F : ... .. 3 ... ... ... ... : ... .. . ... : ... .. . ... : ... .. . ...
ROW 90 : ... .. . ... ... ... ... : ... .. . ... ... ... ... : ... .. . ... : ... .. 2 ... : ... .. . ...
ROW 91 : ... .. . ... ... ... P80 : C-4 00 1 V00 ... ... P82 : --- .. . ... : ... .. . ... : ... .. . ...
ROW 92 : ... .. . ... ... ... ... : ... .. . V02 ... ... ... : ... .. . ... : ... .. 1 ... : ... .. . ...
ROW 93 : ... .. . ... ... ... P81 : A-3 00 4 V00 ... ... P80 : G-2 00 . ... : ... .. . ... : ... .. . ...
ROW 94 : ... .. . ... ... ... P80 : ... .. . V02 ... ... ... : ... .. . ... : ... .. 0 ... : ... .. . ...
ROW 95 : ... .. . ... ... ... ... : ... .. . ... ... ... ... : ... .. . ... : ... .. . ... : ... .. . ...
ROW 96 : ... .. . ... ... ... P7F : ... .. 3 ... ... ... ... : ... .. . ... : ... .. . ... : ... .. . ...
ROW 97 : A-2 00 2 ... ... ... P81 : ... .. . ... ... ... ... : ... .. . ... : ... .. . ... : ... .. . ...
ROW 98 : ... .. . ... ... ... ... : G-3 00 1 V00 ... ... P82 : --- .. . ... : ... .. . ... : ... .. . ...
ROW 99 : ... .. . ... ... ... P80 : ... .. . V02 ... ... ... : ... .. . ... : ... .. . ... : ... .. . ...
ROW 9A : D-3 00 7 ... ... ... P81 : B-3 00 4 V00 ... ... P80 : G-2 00 . ... : E-# 00 3 ... : ... .. . ...
ROW 9B : ... .. . ... ... ... ... : ... .. . V02 ... ... ... : ... .. . ... : ... .. . ... : ... .. . ...
ROW 9C : ... .. . ... ... ... P80 : ... .. . ... ... ... ... : ... .. . ... : ... .. 2 ... : ... .. . ...
ROW 9D : ... .. . ... ... ... P7F : ... .. 3 ... ... ... ... : ... .. . ... : ... .. . ... : ... .. . ...
ROW 9E : ... .. . ... ... ... ... : ... .. . ... ... ... ... : ... .. . ... : ... .. 1 ... : ... .. . ...
ROW 9F : ... .. . ... ... ... P80 : A-3 00 1 V00 ... ... P82 : ... .. . ... : ... .. . ... : ... .. . ...
ROW A0 : ... .. . ... ... ... ... : ... .. . V02 ... ... ... : ... .. . ... : ... .. . ... : ... .. . ...
ROW A1 : ... .. . ... ... ... P81 : D-4 00 4 V00 ... ... P80 : --- .. . ... : ... .. . ... : ... .. . ...
ROW A2 : ... .. . ... ... ... P80 : ... .. . V02 ... ... ... : ... .. . ... : ... .. . ... : ... .. . ...
ROW A3 : ... .. . ... ... ... ... : ... .. . ... ... ... ... : ... .. . ... : ... .. . ... : ... .. . ...
ROW A4 : ... .. . ... ... ... P7F : ... .. 3 ... ... ... ... : ... .. . ... : ... .. . ... : ... .. . ...
ROW A5 : B-2 00 2 ... ... ... P81 : ... .. . ... ... ... ... : ... .. . ... : ... .. . ... : ... .. . ...
ROW A6 : ... .. . ... ... ... ... : B-3 00 1 V00 ... ... P82 : ... .. . ... : ... .. . ... : ... .. . ...
ROW A7 : ... .. . ... ... ... P80 : ... .. . V02 ... ... ... : ... .. . ... : ... .. . ... : ... .. . ...
ROW A8 : C-3 00 7 ... ... ... P81 : C-3 00 4 V00 ... ... P80 : E-3 00 . ... : 2-# 00 5 ... : ... .. . ...
ROW A9 : ... .. . ... ... ... ... : ... .. . V02 ... ... ... : ... .. . ... : ... .. 4 ... : ... .. . ...
ROW AA : ... .. . ... ... ... P80 : ... .. . ... ... ... ... : ... .. . ... : ... .. 3 ... : ... .. . ...
ROW AB : ... .. . ... ... ... P7F : ... .. 3 ... ... ... ... : ... .. . ... : ... .. 2 ... : ... .. . ...
ROW AC : ... .. . ... ... ... ... : ... .. . ... ... ... ... : ... .. . ... : ... .. 1 ... : ... .. . ...
ROW AD : ... .. . ... ... ... P80 : D-4 00 1 V00 ... ... P82 : ... .. . ... : ... .. 0 ... : ... .. . ...
ROW AE : ... .. . ... ... ... ... : ... .. . V02 ... ... ... : --- .. . ... : ... .. . ... : ... .. . ...
ROW AF : ... .. . ... ... ... P81 : D-3 00 4 V00 ... ... P80 : G-3 00 . ... : 2-# 00 1 ... : ... .. . ...
ROW B0 : ... .. . ... ... ... P80 : ... .. . V02 ... ... ... : ... .. . ... : ... .. 0 ... : ... .. . ...
ROW B1 : ... .. . ... ... ... ... : ... .. . ... ... ... ... : ... .. . ... : ... .. . ... : ... .. . ...
ROW B2 : ... .. . ... ... ... P7F : ... .. 3 ... ... ... ... : ... .. . ... : ... .. . ... : ... .. . ...
ROW B3 : ... .. . ... ... ... P80 : ... .. . ... ... ... ... : ... .. . ... : ... .. . ... : ... .. . ...
ROW B4 : ... .. . ... ... ... ... : C-3 00 1 V00 ... ... P82 : ... .. . ... : ... .. . ... : ... .. . ...
ROW B5 : ... .. . ... ... ... P81 : ... .. . V02 ... ... ... : --- .. . ... : ... .. . ... : ... .. . ...
ROW B6 : ... .. . ... ... ... ... : E-3 00 4 V00 ... ... P80 : C-4 00 . ... : E-# 00 3 ... : ... .. . ...
ROW B7 : ... .. . ... ... ... P80 : ... .. . V02 ... ... ... : ... .. . ... : ... .. . ... : ... .. . ...
ROW B8 : ... .. . ... ... ... P7F : ... .. . ... ... ... ... : ... .. . ... : ... .. 2 ... : ... .. . ...
ROW B9 : ... .. . ... ... ... ... : ... .. 3 ... ... ... ... : ... .. . ... : ... .. . ... : ... .. . ...
ROW BA : ... .. . ... ... ... P80 : ... .. . ... ... ... ... : ... .. . ... : ... .. 1 ... : ... .. . ...
ROW BB : ... .. . ... ... ... P81 : D-3 00 1 V00 ... ... P82 : ... .. . ... : ... .. . ... : ... .. . ...
ROW BC : ... .. . ... ... ... ... : ... .. . V02 ... ... ... : --- .. . ... : ... .. . ... : ... .. . ...
ROW BD : ... .. . ... ... ... P80 : G-3 00 4 V00 ... ... P80 : D-4 00 . ... : ... .. . ... : ... .. . ...
ROW BE : ... .. . ... ... ... ... : ... .. . V02 ... ... ... : ... .. . ... : ... .. . ... : ... .. . ...
ROW BF : ... .. . ... ... ... P7F : ... .. . ... ... ... ... : ... .. . ... : ... .. . ... : ... .. . ...
ROW C0 : ... .. . ... ... ... P80 : ... .. 3 ... ... ... ... : ... .. . ... : ... .. . ... : ... .. . ...
ROW C1 : D-3 00 2 ... ... ... P81 : ... .. . ... ... ... ... : ... .. . ... : ... .. . ... : ... .. . ...
ROW C2 : ... .. . ... ... ... ... : E-3 00 1 V00 ... ... P82 : ... .. . ... : ... .. . ... : ... .. . ...
ROW C3 : ... .. . ... ... ... P80 : ... .. . V02 ... ... ... : --- .. . ... : ... .. . ... : ... .. . ...
ROW C4 : G-2 00 7 ... ... ... P81 : C-4 00 4 V00 ... ... P80 : E-4 00 . ... : 7-# 00 5 ... : ... .. . ...
ROW C5 : ... .. . ... ... ... ... : ... .. . V02 ... ... ... : ... .. . ... : ... .. 4 ... : ... .. . ...
ROW C6 : ... .. . ... ... ... P80 : ... .. . ... ... ... ... : ... .. . ... : ... .. 3 ... : ... .. . ...
ROW C7 : ... .. . ... ... ... P7F : ... .. 3 ... ... ... ... : ... .. . ... : ... .. . ... : ... .. . ...
ROW C8 : ... .. . ... ... ... ... : ... .. . ... ... ... ... : ... .. . ... : ... .. 2 ... : ... .. . ...
ROW C9 : ... .. . ... ... ... P80 : G-3 00 1 V00 ... ... P82 : ... .. . ... : ... .. . ... : ... .. . ...
ROW CA : ... .. . ... ... ... ... : ... .. . V02 ... ... ... : --- .. . ... : ... .. 1 ... : ... .. . ...
ROW CB : ... .. . ... ... ... P81 : G-3 00 4 V00 ... ... P80 : C-4 00 . ... : ... .. . ... : ... .. . ...
ROW CC : ... .. . ... ... ... P80 : ... .. . V02 ... ... ... : ... .. . ... : ... .. 0 ... : ... .. . ...
ROW CD : ... .. . ... ... ... ... : ... .. . ... ... ... ... : ... .. . ... : ... .. . ... : ... .. . ...
ROW CE : ... .. . ... ... ... P7F : ... .. 3 ... ... ... ... : ... .. . ... : ... .. . ... : ... .. . ...
ROW CF : ... .. . ... ... ... P80 : ... .. . ... ... ... ... : ... .. . ... : ... .. . ... : ... .. . ...
ROW D0 : ... .. . ... ... ... ... : C-4 00 1 V00 ... ... P82 : ... .. . ... : ... .. . ... : ... .. . ...
ROW D1 : ... .. . ... ... ... P81 : ... .. . V02 ... ... ... : --- .. . ... : ... .. . ... : ... .. . ...
ROW D2 : ... .. . ... ... ... ... : E-3 00 4 V00 ... ... P80 : G-3 00 . ... : 2-# 00 3 ... : ... .. . ...
ROW D3 : ... .. . ... ... ... P80 : ... .. . V02 ... ... ... : ... .. . ... : ... .. . ... : ... .. . ...
ROW D4 : ... .. . ... ... ... P7F : ... .. . ... ... ... ... : ... .. . ... : ... .. 2 ... : ... .. . ...
ROW D5 : ... .. . ... ... ... ... : ... .. 3 ... ... ... ... : ... .. . ... : ... .. . ... : ... .. . ...
ROW D6 : ... .. . ... ... ... P80 : ... .. . ... ... ... ... : ... .. . ... : ... .. 1 ... : ... .. . ...
ROW D7 : ... .. . ... ... ... P81 : G-3 00 1 V00 ... ... P82 : ... .. . ... : ... .. . ... : ... .. . ...
ROW D8 : ... .. . ... ... ... ... : ... .. . V02 ... ... ... : --- .. . ... : ... .. . ... : ... .. . ...
ROW D9 : ... .. . ... ... ... P80 : D-3 00 4 V00 ... ... P80 : E-3 00 . ... : 2-# 00 3 ... : ... .. . ...
ROW DA : ... .. . ... ... ... ... : ... .. . V02 ... ... ... : ... .. . ... : ... .. . ... : ... .. . ...
ROW DB : ... .. . ... ... ... P7F : ... .. . ... ... ... ... : ... .. . ... : ... .. 2 ... : ... .. . ...
ROW DC : ... .. . ... ... ... P80 : ... .. 3 ... ... ... ... : ... .. . ... : ... .. . ... : ... .. . ...
ROW DD : C-3 00 2 ... ... ... P81 : ... .. . ... ... ... ... : ... .. . ... : ... .. 1 ... : ... .. . ...
ROW DE : ... .. . ... ... ... ... : E-3 00 1 V00 ... ... P82 : ... .. . ... : ... .. . ... : ... .. . ...
ROW DF : ... .. . ... ... ... P80 : ... .. . V00 ... ... ... : --- .. . ... : ... .. . ... : ... .. . ...

PATTERN 0C
ROW 00 : --- .. . ... ... ... ... : F-4 00 4 V00 ... ... P80 : F-3 00 . ... : 2-# 00 5 V00 : ... .. . ...
ROW 01 : ... .. . ... ... ... ... : ... .. . ... ... ... ... : ... .. . ... : ... .. 4 ... : ... .. . ...
ROW 02 : ... .. . ... ... ... ... : ... .. . ... ... ... ... : ... .. . ... : ... .. 3 ... : ... .. . ...
ROW 03 : ... .. . ... ... ... ... : ... .. 3 ... ... ... ... : ... .. . ... : ... .. 2 ... : ... .. . ...
ROW 04 : ... .. . ... ... ... ... : ... .. . ... ... ... ... : ... .. . ... : ... .. 1 ... : ... .. . ...
ROW 05 : ... .. . ... ... ... ... : ... .. 1 ... ... ... ... : --- .. . ... : ... .. 0 ... : ... .. . ...
ROW 06 : ... .. . ... ... ... ... : ... .. . ... ... ... ... : ... .. . ... : ... .. . ... : ... .. . ...
ROW 07 : ... .. . ... ... ... ... : G-4 00 4 ... ... ... ... : F-3 00 . ... : F-# 00 5 ... : ... .. . ...
ROW 08 : ... .. . ... ... ... ... : ... .. . ... ... ... ... : ... .. . ... : ... .. 4 ... : ... .. . ...
ROW 09 : ... .. . ... ... ... ... : ... .. . ... ... ... ... : ... .. . ... : ... .. 3 ... : ... .. . ...
ROW 0A : ... .. . ... ... ... ... : ... .. 3 ... ... ... ... : ... .. . ... : ... .. 2 ... : ... .. . ...
ROW 0B : ... .. . ... ... ... ... : ... .. . ... ... ... ... : ... .. . ... : ... .. 1 ... : ... .. . ...
ROW 0C : ... .. . ... ... ... ... : F-4 00 1 ... ... ... ... : --- .. . ... : ... .. 0 ... : ... .. . ...
ROW 0D : ... .. . ... ... ... ... : ... .. . ... ... ... ... : ... .. . ... : ... .. . ... : ... .. . ...
ROW 0E : G-3 00 7 V00 ... ... ... : A-4 00 4 ... ... ... ... : F-4 00 . ... : E-# 00 5 ... : ... .. . ...
ROW 0F : G#3 00 . ... ... ... ... : ... .. . ... ... ... ... : ... .. . ... : ... .. . ... : ... .. . ...
ROW 10 : A-3 00 6 ... ... ... ... : ... .. . ... ... ... ... : ... .. . ... : ... .. 4 ... : ... .. . ...
ROW 11 : ... .. . ... ... ... ... : ... .. 3 ... ... ... ... : ... .. . ... : ... .. . ... : ... .. . ...
ROW 12 : ... .. 5 ... ... ... ... : ... .. . ... ... ... ... : ... .. . ... : ... .. 3 ... : ... .. . ...
ROW 13 : ... .. . ... ... ... ... : G-4 00 1 ... ... ... ... : ... .. . ... : ... .. . ... : ... .. . ...
ROW 14 : ... .. . ... ... ... ... : ... .. . ... ... ... ... : ... .. . ... : ... .. 2 ... : ... .. . ...
ROW 15 : ... .. . ... ... ... ... : C-5 00 4 ... ... ... ... : ... .. . ... : ... .. . ... : ... .. . ...
ROW 16 : ... .. . ... ... ... ... : ... .. . ... ... ... ... : ... .. . ... : ... .. 1 ... : ... .. . ...
ROW 17 : ... .. . ... ... ... ... : ... .. . ... ... ... ... : ... .. . ... : ... .. . ... : ... .. . ...
ROW 18 : ... .. . ... ... ... ... : ... .. 3 ... ... ... ... : ... .. . ... : ... .. . ... : ... .. . ...
ROW 19 : ... .. 2 ... ... ... ... : ... .. . ... ... ... ... : ... .. . ... : ... .. . ... : ... .. . ...
ROW 1A : ... .. . ... ... ... ... : A-4 00 1 ... ... ... ... : ... .. . ... : ... .. . ... : ... .. . ...
ROW 1B : ... .. . ... ... ... ... : ... .. . ... ... ... ... : ... .. . ... : ... .. . ... : ... .. . ...
ROW 1C : A-3 00 7 ... ... ... ... : F-5 00 4 ... ... ... ... : G-4 00 . ... : 7-# 00 5 ... : ... .. . ...
ROW 1D : A#3 00 . ... ... ... ... : ... .. . ... ... ... ... : ... .. . ... : ... .. 4 ... : ... .. . ...
ROW 1E : B-3 00 6 ... ... ... ... : ... .. . ... ... ... ... : ... .. . ... : ... .. 3 ... : ... .. . ...
ROW 1F : ... .. . ... ... ... ... : ... .. 3 ... ... ... ... : ... .. . ... : ... .. . ... : ... .. . ...
ROW 20 : ... .. 5 ... ... ... ... : ... .. . ... ... ... ... : ... .. . ... : ... .. 2 ... : ... .. . ...
ROW 21 : ... .. . ... ... ... ... : C-5 00 1 ... ... ... ... : ... .. . ... : ... .. . ... : ... .. . ...
ROW 22 : ... .. . ... ... ... ... : ... .. . ... ... ... ... : ... .. . ... : ... .. 1 ... : ... .. . ...
ROW 23 : ... .. . ... ... ... ... : C-5 00 4 ... ... ... ... : ... .. . ... : F-# 00 5 ... : ... .. . ...
ROW 24 : ... .. . ... ... ... ... : ... .. . ... ... ... ... : ... .. . ... : ... .. 4 ... : ... .. . ...
ROW 25 : ... .. . ... ... ... ... : ... .. . ... ... ... ... : ... .. . ... : ... .. 3 ... : ... .. . ...
ROW 26 : ... .. . ... ... ... ... : ... .. 3 ... ... ... ... : ... .. . ... : ... .. 2 ... : ... .. . ...
ROW 27 : ... .. . ... ... ... ... : ... .. . ... ... ... ... : ... .. . ... : ... .. 1 ... : ... .. . ...
ROW 28 : ... .. . ... ... ... ... : F-5 00 1 ... ... ... ... : ... .. . ... : ... .. 0 ... : ... .. . ...
ROW 29 : ... .. . ... ... ... ... : ... .. . ... ... ... ... : ... .. . ... : ... .. . ... : ... .. . ...
ROW 2A : ... .. . ... ... ... ... : A-4 00 4 ... ... ... ... : C-3 00 . ... : E-# 00 5 ... : ... .. . ...
ROW 2B : ... .. . ... ... ... ... : ... .. . ... ... ... ... : ... .. . ... : ... .. . ... : ... .. . ...
ROW 2C : ... .. . ... ... ... ... : ... .. . ... ... ... ... : ... .. . ... : ... .. 4 ... : ... .. . ...
ROW 2D : ... .. . ... ... ... ... : ... .. 3 ... ... ... ... : ... .. . ... : ... .. . ... : ... .. . ...
ROW 2E : ... .. . ... ... ... ... : ... .. . ... ... ... ... : ... .. . ... : ... .. 3 ... : ... .. . ...
ROW 2F : ... .. . ... ... ... ... : C-5 00 1 ... ... ... ... : --- .. . ... : ... .. . ... : ... .. . ...
ROW 30 : ... .. . ... ... ... ... : ... .. . ... ... ... ... : ... .. . ... : ... .. 2 ... : ... .. . ...
ROW 31 : ... .. . ... ... ... ... : G-4 00 4 ... ... ... ... : C-3 00 . ... : ... .. . ... : ... .. . ...
ROW 32 : ... .. . ... ... ... ... : ... .. . ... ... ... ... : ... .. . ... : ... .. 1 ... : ... .. . ...
ROW 33 : ... .. . ... ... ... ... : ... .. . ... ... ... ... : ... .. . ... : ... .. . ... : ... .. . ...
ROW 34 : ... .. . ... ... ... ... : ... .. 3 ... ... ... ... : ... .. . ... : ... .. . ... : ... .. . ...
ROW 35 : ... .. . ... ... ... ... : ... .. . ... ... ... ... : ... .. . ... : ... .. . ... : ... .. . ...
ROW 36 : ... .. . ... ... ... ... : A-4 00 1 ... ... ... ... : --- .. . ... : ... .. . ... : ... .. . ...
ROW 37 : ... .. . ... ... ... ... : ... .. . ... ... ... ... : ... .. . ... : ... .. . ... : ... .. . ...
ROW 38 : ... .. . ... ... ... P7F : F-4 00 4 ... ... ... ... : F-3 00 . ... : 2-# 00 5 ... : ... .. . ...
ROW 39 : ... .. . ... ... ... P7E : ... .. . ... ... ... ... : ... .. . ... : ... .. 4 ... : ... .. . ...
ROW 3A : ... .. . ... ... ... P7D : ... .. . ... ... ... ... : ... .. . ... : ... .. 3 ... : ... .. . ...
ROW 3B : ... .. . ... ... ... P7E : ... .. 3 ... ... ... ... : ... .. . ... : ... .. 2 ... : ... .. . ...
ROW 3C : ... .. . ... ... ... P7F : ... .. . ... ... ... ... : ... .. . ... : ... .. 1 ... : ... .. . ...
ROW 3D : ... .. . ... ... ... P80 : G-4 00 1 ... ... ... ... : --- .. . ... : ... .. 0 ... : ... .. . ...
ROW 3E : ... .. . ... ... ... P81 : ... .. . ... ... ... ... : ... .. . ... : ... .. . ... : ... .. . ...
ROW 3F : ... .. 2 ... ... ... P82 : G-4 00 4 ... ... ... ... : F-3 00 . ... : F-# 00 5 ... : ... .. . ...
ROW 40 : ... .. . ... ... ... P83 : ... .. . ... ... ... ... : ... .. . ... : ... .. 4 ... : ... .. . ...
ROW 41 : ... .. . ... ... ... P82 : ... .. . ... ... ... ... : ... .. . ... : ... .. 3 ... : ... .. . ...
ROW 42 : ... .. . ... ... ... P81 : ... .. 3 ... ... ... ... : ... .. . ... : ... .. 2 ... : ... .. . ...
ROW 43 : ... .. . ... ... ... P80 : ... .. . ... ... ... ... : ... .. . ... : ... .. 1 ... : ... .. . ...
ROW 44 : ... .. . ... ... ... P7F : F-4 00 1 ... ... ... ... : --- .. . ... : ... .. 0 ... : ... .. . ...
ROW 45 : ... .. . ... ... ... P7E : ... .. . ... ... ... ... : ... .. . ... : ... .. . ... : ... .. . ...
ROW 46 : G-2 00 7 V02 ... ... P81 : A-4 00 4 ... ... ... ... : F-4 00 . ... : E-# 00 5 ... : ... .. . ...
ROW 47 : G#2 00 . ... ... ... ... : ... .. . ... ... ... ... : ... .. . ... : ... .. . ... : ... .. . ...
ROW 48 : A-2 00 . ... ... ... P80 : ... .. . ... ... ... ... : ... .. . ... : ... .. 4 ... : ... .. . ...
ROW 49 : ... .. . ... ... ... P7F : ... .. 3 ... ... ... ... : ... .. . ... : ... .. . ... : ... .. . ...
ROW 4A : ... .. . ... ... ... ... : ... .. . ... ... ... ... : ... .. . ... : ... .. 3 ... : ... .. . ...
ROW 4B : ... .. . ... ... ... P80 : G-4 00 1 ... ... ... ... : ... .. . ... : ... .. . ... : ... .. . ...
ROW 4C : ... .. . ... ... ... ... : ... .. . ... ... ... ... : ... .. . ... : ... .. 2 ... : ... .. . ...
ROW 4D : ... .. . ... ... ... P81 : C-5 00 4 ... ... ... ... : ... .. . ... : ... .. . ... : ... .. . ...
ROW 4E : ... .. . ... ... ... P80 : ... .. . ... ... ... ... : ... .. . ... : ... .. 1 ... : ... .. . ...
ROW 4F : ... .. . ... ... ... ... : ... .. . ... ... ... ... : ... .. . ... : ... .. . ... : ... .. . ...
ROW 50 : ... .. . ... ... ... P7F : ... .. 3 ... ... ... ... : ... .. . ... : ... .. . ... : ... .. . ...
ROW 51 : ... .. 2 ... ... ... P80 : ... .. . ... ... ... ... : ... .. . ... : ... .. . ... : ... .. . ...
ROW 52 : ... .. . ... ... ... ... : A-4 00 1 ... ... ... ... : ... .. . ... : ... .. . ... : ... .. . ...
ROW 53 : ... .. . ... ... ... P81 : ... .. . ... ... ... ... : ... .. . ... : ... .. . ... : ... .. . ...
ROW 54 : A-2 00 7 ... ... ... P81 : F-5 00 4 ... ... ... ... : G-4 00 . ... : 7-# 00 5 ... : ... .. . ...
ROW 55 : A#2 00 . ... ... ... ... : ... .. . ... ... ... ... : ... .. . ... : ... .. 4 ... : ... .. . ...
ROW 56 : B-2 00 . ... ... ... P80 : ... .. . ... ... ... ... : ... .. . ... : ... .. 3 ... : ... .. . ...
ROW 57 : ... .. . ... ... ... P7F : ... .. 3 ... ... ... ... : ... .. . ... : ... .. . ... : ... .. . ...
ROW 58 : ... .. . ... ... ... ... : ... .. . ... ... ... ... : ... .. . ... : ... .. 2 ... : ... .. . ...
ROW 59 : ... .. . ... ... ... P80 : C-5 00 1 ... ... ... ... : ... .. . ... : ... .. . ... : ... .. . ...
ROW 5A : ... .. . ... ... ... ... : ... .. . ... ... ... ... : ... .. . ... : ... .. 1 ... : ... .. . ...
ROW 5B : ... .. . ... ... ... P81 : C-5 00 4 ... ... ... ... : ... .. . ... : F-# 00 5 ... : ... .. . ...
ROW 5C : ... .. . ... ... ... P80 : ... .. . ... ... ... ... : ... .. . ... : ... .. 4 ... : ... .. . ...
ROW 5D : ... .. . ... ... ... ... : ... .. . ... ... ... ... : ... .. . ... : ... .. 3 ... : ... .. . ...
ROW 5E : ... .. . ... ... ... P7F : ... .. 3 ... ... ... ... : ... .. . ... : ... .. 2 ... : ... .. . ...
ROW 5F : ... .. . ... ... ... P80 : ... .. . ... ... ... ... : ... .. . ... : ... .. 1 ... : ... .. . ...
ROW 60 : ... .. . ... ... ... ... : F-5 00 1 ... ... ... ... : ... .. . ... : ... .. 0 ... : ... .. . ...
ROW 61 : ... .. . ... ... ... P81 : ... .. . ... ... ... ... : ... .. . ... : ... .. . ... : ... .. . ...
ROW 62 : ... .. . ... ... ... ... : A-4 00 4 ... ... ... ... : C-3 00 . ... : E-# 00 5 ... : ... .. . ...
ROW 63 : ... .. . ... ... ... P80 : ... .. . ... ... ... ... : ... .. . ... : ... .. . ... : ... .. . ...
ROW 64 : ... .. . ... ... ... P7F : ... .. . ... ... ... ... : ... .. . ... : ... .. 4 ... : ... .. . ...
ROW 65 : ... .. . ... ... ... ... : ... .. 3 ... ... ... ... : ... .. . ... : ... .. . ... : ... .. . ...
ROW 66 : ... .. . ... ... ... P80 : ... .. . ... ... ... ... : ... .. . ... : ... .. 3 ... : ... .. . ...
ROW 67 : ... .. . ... ... ... P81 : C-5 00 1 ... ... ... ... : --- .. . ... : ... .. . ... : ... .. . ...
ROW 68 : ... .. . ... ... ... ... : ... .. . ... ... ... ... : ... .. . ... : ... .. 2 ... : ... .. . ...
ROW 69 : ... .. . ... ... ... P80 : G-4 00 4 ... ... ... ... : C-3 00 . ... : ... .. . ... : ... .. . ...
ROW 6A : ... .. . ... ... ... ... : ... .. . ... ... ... ... : ... .. . ... : ... .. 1 ... : ... .. . ...
ROW 6B : ... .. . ... ... ... P7F : ... .. . ... ... ... ... : ... .. . ... : ... .. . ... : ... .. . ...
ROW 6C : ... .. . ... ... ... P80 : ... .. . ... ... ... ... : ... .. . ... : ... .. . ... : ... .. . ...
ROW 6D : ... .. . ... ... ... ... : ... .. . ... ... ... ... : ... .. . ... : ... .. . ... : ... .. . ...
ROW 6E : ... .. . ... ... ... P81 : A-4 00 1 ... ... ... ... : --- .. . ... : ... .. . ... : ... .. . ...
ROW 6F : ... .. . ... ... ... P80 : ... .. . ... ... ... ... : ... .. . ... : ... .. . ... : ... .. . ...
ROW 70 : ... .. . ... ... ... ... : F-4 00 4 ... ... ... ... : F-3 00 . ... : 2-# 00 5 V00 : ... .. . ...
ROW 71 : ... .. . ... ... ... P7F : ... .. . ... ... ... ... : ... .. . ... : ... .. 4 ... : ... .. . ...
ROW 72 : ... .. . ... ... ... ... : ... .. . ... ... ... ... : ... .. . ... : ... .. 3 ... : ... .. . ...
ROW 73 : ... .. . ... ... ... P80 : ... .. 3 ... ... ... ... : ... .. . ... : ... .. 2 ... : ... .. . ...
ROW 74 : ... .. . ... ... ... P81 : ... .. . ... ... ... ... : ... .. . ... : ... .. 1 ... : ... .. . ...
ROW 75 : ... .. . ... ... ... ... : G-4 00 1 ... ... ... ... : --- .. . ... : ... .. 0 ... : ... .. . ...
ROW 76 : ... .. . ... ... ... P80 : ... .. . ... ... ... ... : ... .. . ... : ... .. . ... : ... .. . ...
ROW 77 : ... .. . ... ... ... P7F : G-4 00 4 ... ... ... ... : F-3 00 . ... : F-# 00 5 ... : ... .. . ...
ROW 78 : ... .. . ... ... ... ... : ... .. . ... ... ... ... : ... .. . ... : ... .. 4 ... : ... .. . ...
ROW 79 : ... .. . ... ... ... P80 : ... .. . ... ... ... ... : ... .. . ... : ... .. 3 ... : ... .. . ...
ROW 7A : ... .. 2 ... ... ... ... : ... .. 3 ... ... ... ... : ... .. . ... : ... .. 2 ... : ... .. . ...
ROW 7B : ... .. . ... ... ... P81 : ... .. . ... ... ... ... : ... .. . ... : ... .. 1 ... : ... .. . ...
ROW 7C : ... .. . ... ... ... P80 : F-4 00 1 ... ... ... ... : --- .. . ... : ... .. 0 ... : ... .. . ...
ROW 7D : ... .. . ... ... ... ... : ... .. . ... ... ... ... : ... .. . ... : ... .. . ... : ... .. . ...
ROW 7E : A-3 00 6 V02 ... ... ... : A-4 00 4 ... ... ... ... : F-3 00 . ... : E-# 00 5 ... : ... .. . ...
ROW 7F : ... .. . ... ... ... ... : ... .. . ... ... ... ... : ... .. . ... : ... .. . ... : ... .. . ...
ROW 80 : ... .. 5 ... ... ... ... : ... .. . ... ... ... ... : ... .. . ... : ... .. 4 ... : ... .. . ...
ROW 81 : ... .. . ... ... ... ... : ... .. 3 ... ... ... ... : ... .. . ... : ... .. . ... : ... .. . ...
ROW 82 : A-4 00 4 ... ... ... ... : ... .. . ... ... ... ... : ... .. . ... : ... .. 3 ... : ... .. . ...
ROW 83 : ... .. . ... ... ... ... : G-4 00 1 ... ... ... ... : ... .. . ... : ... .. . ... : ... .. . ...
ROW 84 : ... .. 3 ... ... ... ... : ... .. . ... ... ... ... : ... .. . ... : ... .. 2 ... : ... .. . ...
ROW 85 : ... .. . ... ... ... ... : C-5 00 4 ... ... ... ... : --- .. . ... : ... .. . ... : ... .. . ...
ROW 86 : A-3 00 2 ... ... ... ... : ... .. . ... ... ... ... : ... .. . ... : ... .. 1 ... : ... .. . ...
ROW 87 : ... .. . ... ... ... ... : ... .. . ... ... ... ... : ... .. . ... : ... .. . ... : ... .. . ...
ROW 88 : ... .. 1 ... ... ... ... : ... .. 3 ... ... ... ... : ... .. . ... : ... .. . ... : ... .. . ...
ROW 89 : ... .. . ... ... ... ... : ... .. . ... ... ... ... : ... .. . ... : ... .. . ... : ... .. . ...
ROW 8A : ... .. . ... ... ... ... : A-4 00 1 ... ... ... ... : ... .. . ... : ... .. . ... : ... .. . ...
ROW 8B : ... .. . ... ... ... ... : ... .. . ... ... ... ... : ... .. . ... : ... .. . ... : ... .. . ...
ROW 8C : B-3 00 6 ... ... ... ... : G-4 00 4 ... ... ... ... : G-2 00 . ... : 7-# 00 5 ... : ... .. . ...
ROW 8D : ... .. . ... ... ... ... : ... .. . ... ... ... ... : ... .. . ... : ... .. 4 ... : ... .. . ...
ROW 8E : ... .. 5 ... ... ... ... : ... .. . ... ... ... ... : ... .. . ... : ... .. 3 ... : ... .. . ...
ROW 8F : ... .. . ... ... ... ... : ... .. 3 ... ... ... ... : ... .. . ... : ... .. . ... : ... .. . ...
ROW 90 : B-4 00 4 ... ... ... ... : ... .. . ... ... ... ... : ... .. . ... : ... .. 2 ... : ... .. . ...
ROW 91 : ... .. . ... ... ... ... : C-5 00 1 ... ... ... ... : --- .. . ... : ... .. . ... : ... .. . ...
ROW 92 : ... .. 3 ... ... ... ... : ... .. . ... ... ... ... : ... .. . ... : ... .. 1 ... : ... .. . ...
ROW 93 : ... .. . ... ... ... ... : A-4 00 4 ... ... ... ... : G-2 00 . ... : F-# 00 5 ... : ... .. . ...
ROW 94 : B-3 00 2 ... ... ... ... : ... .. . ... ... ... ... : ... .. . ... : ... .. 4 ... : ... .. . ...
ROW 95 : ... .. . ... ... ... ... : ... .. . ... ... ... ... : ... .. . ... : ... .. 3 ... : ... .. . ...
ROW 96 : ... .. 1 ... ... ... ... : ... .. 3 ... ... ... ... : ... .. . ... : ... .. 2 ... : ... .. . ...
ROW 97 : A-4 00 . ... ... ... ... : ... .. . ... ... ... ... : ... .. . ... : ... .. 1 ... : ... .. . ...
ROW 98 : ... .. . ... ... ... ... : G-4 00 1 ... ... ... ... : --- .. . ... : ... .. 0 ... : ... .. . ...
ROW 99 : ... .. . ... ... ... ... : ... .. . ... ... ... ... : ... .. . ... : ... .. . ... : ... .. . ...
ROW 9A : D-4 00 6 ... ... ... ... : B-4 00 4 ... ... ... ... : G-2 00 . ... : E-# 00 5 ... : ... .. . ...
ROW 9B : ... .. . ... ... ... ... : ... .. . ... ... ... ... : ... .. . ... : ... .. . ... : ... .. . ...
ROW 9C : ... .. 5 ... ... ... ... : ... .. . ... ... ... ... : ... .. . ... : ... .. 4 ... : ... .. . ...
ROW 9D : ... .. . ... ... ... ... : ... .. 3 ... ... ... ... : ... .. . ... : ... .. . ... : ... .. . ...
ROW 9E : D-5 00 4 ... ... ... ... : ... .. . ... ... ... ... : ... .. . ... : ... .. 3 ... : ... .. . ...
ROW 9F : ... .. . ... ... ... ... : A-4 00 1 ... ... ... ... : ... .. . ... : ... .. . ... : ... .. . ...
ROW A0 : ... .. 3 ... ... ... ... : ... .. . ... ... ... ... : ... .. . ... : ... .. 2 ... : ... .. . ...
ROW A1 : ... .. . ... ... ... ... : D-5 00 4 ... ... ... ... : --- .. . ... : ... .. . ... : ... .. . ...
ROW A2 : D-4 00 2 ... ... ... ... : ... .. . ... ... ... ... : ... .. . ... : ... .. 1 ... : ... .. . ...
ROW A3 : ... .. . ... ... ... ... : ... .. . ... ... ... ... : ... .. . ... : ... .. . ... : ... .. . ...
ROW A4 : ... .. 1 ... ... ... ... : ... .. 3 ... ... ... ... : ... .. . ... : ... .. . ... : ... .. . ...
ROW A5 : B-4 00 . ... ... ... ... : ... .. . ... ... ... ... : ... .. . ... : ... .. . ... : ... .. . ...
ROW A6 : ... .. . ... ... ... ... : B-4 00 1 ... ... ... ... : ... .. . ... : ... .. . ... : ... .. . ...
ROW A7 : ... .. . ... ... ... ... : ... .. . ... ... ... ... : ... .. . ... : ... .. . ... : ... .. . ...
ROW A8 : G-3 00 6 ... ... ... ... : C-3 00 5 V02 ... ... ... : E-3 00 . ... : 2-# 00 5 ... : ... .. . ...
ROW A9 : ... .. . ... ... ... ... : C-4 00 . ... ... ... ... : ... .. . ... : ... .. 4 ... : ... .. . ...
ROW AA : ... .. 5 ... ... ... ... : ... .. . ... ... ... ... : ... .. . ... : ... .. 3 ... : ... .. . ...
ROW AB : ... .. . ... ... ... ... : D-5 00 1 ... ... ... ... : ... .. . ... : ... .. 2 ... : ... .. . ...
ROW AC : G-4 00 4 ... ... ... ... : ... .. . ... ... ... ... : ... .. . ... : ... .. 1 ... : ... .. . ...
ROW AD : ... .. . ... ... ... ... : E-3 00 5 ... ... ... ... : ... .. . ... : ... .. 0 ... : ... .. . ...
ROW AE : ... .. . ... ... ... ... : E-4 00 . ... ... ... ... : --- .. . ... : ... .. . ... : ... .. . ...
ROW AF : ... .. . ... ... ... ... : ... .. . ... ... ... ... : G-3 00 . ... : F-# 00 5 ... : ... .. . ...
ROW B0 : G-3 00 . ... ... ... ... : C-4 00 1 ... ... ... ... : ... .. . ... : ... .. 4 ... : ... .. . ...
ROW B1 : ... .. . ... ... ... ... : ... .. . ... ... ... ... : ... .. . ... : ... .. 3 ... : ... .. . ...
ROW B2 : ... .. . ... ... ... ... : G-3 00 5 ... ... ... ... : ... .. . ... : ... .. 2 ... : ... .. . ...
ROW B3 : ... .. . ... ... ... ... : G-4 00 . ... ... ... ... : ... .. . ... : ... .. 1 ... : ... .. . ...
ROW B4 : G-4 00 . ... ... ... ... : E-4 00 1 ... ... ... ... : ... .. . ... : ... .. 0 ... : ... .. . ...
ROW B5 : ... .. . ... ... ... ... : ... .. . ... ... ... ... : --- .. . ... : ... .. . ... : ... .. . ...
ROW B6 : ... .. . ... ... ... ... : C-4 00 5 ... ... ... ... : C-4 00 . ... : E-# 00 5 ... : ... .. . ...
ROW B7 : ... .. . ... ... ... ... : C-5 00 . ... ... ... ... : ... .. . ... : ... .. . ... : ... .. . ...
ROW B8 : G-3 00 . ... ... ... ... : ... .. . ... ... ... ... : ... .. . ... : ... .. 4 ... : ... .. . ...
ROW B9 : ... .. . ... ... ... ... : G-4 00 1 ... ... ... ... : ... .. . ... : ... .. . ... : ... .. . ...
ROW BA : ... .. . ... ... ... ... : ... .. . ... ... ... ... : ... .. . ... : ... .. 3 ... : ... .. . ...
ROW BB : ... .. . ... ... ... ... : D-4 00 5 ... ... ... ... : ... .. . ... : ... .. . ... : ... .. . ...
ROW BC : G-4 00 . ... ... ... ... : D-5 00 . ... ... ... ... : --- .. . ... : ... .. 2 ... : ... .. . ...
ROW BD : ... .. . ... ... ... ... : ... .. . ... ... ... ... : D-4 00 . ... : ... .. . ... : ... .. . ...
ROW BE : ... .. . ... ... ... ... : C-5 00 1 ... ... ... ... : ... .. . ... : ... .. 1 ... : ... .. . ...
ROW BF : ... .. . ... ... ... ... : ... .. . ... ... ... ... : ... .. . ... : ... .. . ... : ... .. . ...
ROW C0 : G-3 00 . ... ... ... ... : E-4 00 5 ... ... ... ... : ... .. . ... : ... .. . ... : ... .. . ...
ROW C1 : ... .. . ... ... ... ... : E-5 00 . ... ... ... ... : ... .. . ... : ... .. . ... : ... .. . ...
ROW C2 : ... .. . ... ... ... ... : D-5 00 1 ... ... ... ... : ... .. . ... : ... .. . ... : ... .. . ...
ROW C3 : ... .. . ... ... ... ... : ... .. . ... ... ... ... : --- .. . ... : ... .. . ... : ... .. . ...
ROW C4 : G-4 00 . ... ... ... ... : G-4 00 5 ... ... ... ... : E-4 00 . ... : 7-# 00 5 ... : ... .. . ...
ROW C5 : ... .. . ... ... ... ... : G-5 00 . ... ... ... ... : ... .. . ... : ... .. 4 ... : ... .. . ...
ROW C6 : ... .. . ... ... ... ... : ... .. . ... ... ... ... : ... .. . ... : ... .. 3 ... : ... .. . ...
ROW C7 : ... .. . ... ... ... ... : E-5 00 1 ... ... ... ... : ... .. . ... : ... .. . ... : ... .. . ...
ROW C8 : G-3 00 . ... ... ... ... : ... .. . ... ... ... ... : ... .. . ... : ... .. 2 ... : ... .. . ...
ROW C9 : ... .. . ... ... ... ... : E-4 00 5 ... ... ... ... : ... .. . ... : ... .. . ... : ... .. . ...
ROW CA : ... .. . ... ... ... ... : E-5 00 . ... ... ... ... : --- .. . ... : ... .. 1 ... : ... .. . ...
ROW CB : ... .. . ... ... ... ... : ... .. . ... ... ... ... : C-4 00 . ... : F-# 00 5 ... : ... .. . ...
ROW CC : G-4 00 . ... ... ... ... : G-5 00 1 ... ... ... ... : ... .. . ... : ... .. 4 ... : ... .. . ...
ROW CD : ... .. . ... ... ... ... : ... .. . ... ... ... ... : ... .. . ... : ... .. 3 ... : ... .. . ...
ROW CE : ... .. . ... ... ... ... : D-4 00 5 ... ... ... ... : ... .. . ... : ... .. 2 ... : ... .. . ...
ROW CF : ... .. . ... ... ... ... : D-5 00 . ... ... ... ... : ... .. . ... : ... .. 1 ... : ... .. . ...
ROW D0 : G-3 00 . ... ... ... ... : E-5 00 1 ... ... ... ... : ... .. . ... : ... .. 0 ... : ... .. . ...
ROW D1 : ... .. . ... ... ... ... : ... .. . ... ... ... ... : --- .. . ... : ... .. . ... : ... .. . ...
ROW D2 : ... .. 3 ... ... ... ... : C-4 00 5 ... ... ... ... : G-3 00 . ... : E-# 00 5 ... : ... .. . ...
ROW D3 : ... .. . ... ... ... ... : C-5 00 . ... ... ... ... : ... .. . ... : ... .. . ... : ... .. . ...
ROW D4 : G-4 00 . ... ... ... ... : ... .. . ... ... ... ... : ... .. . ... : ... .. 4 ... : ... .. . ...
ROW D5 : ... .. . ... ... ... ... : D-5 00 1 ... ... ... ... : ... .. . ... : ... .. . ... : ... .. . ...
ROW D6 : ... .. 2 ... ... ... ... : ... .. . ... ... ... ... : ... .. . ... : ... .. 3 ... : ... .. . ...
ROW D7 : ... .. . ... ... ... ... : G-3 00 5 ... ... ... ... : ... .. . ... : ... .. . ... : ... .. . ...
ROW D8 : G-3 00 . ... ... ... ... : G-4 00 . ... ... ... ... : --- .. . ... : ... .. 2 ... : ... .. . ...
ROW D9 : ... .. . ... ... ... ... : ... .. . ... ... ... ... : E-3 00 . ... : ... .. . ... : ... .. . ...
ROW DA : ... .. 1 ... ... ... ... : C-5 00 1 ... ... ... ... : ... .. . ... : ... .. 1 ... : ... .. . ...
ROW DB : ... .. . ... ... ... ... : ... .. . ... ... ... ... : ... .. . ... : ... .. . ... : ... .. . ...
ROW DC : G-4 00 . ... ... ... ... : E-3 00 5 ... ... ... ... : ... .. . ... : ... .. . ... : ... .. . ...
ROW DD : ... .. . ... ... ... ... : E-4 00 . ... ... ... ... : ... .. . ... : ... .. . ... : ... .. . ...
ROW DE : ... .. . ... ... ... ... : G-4 00 1 ... ... ... ... : ... .. . ... : ... .. . ... : ... .. . ...
ROW DF : ... .. . ... ... ... ... : ... .. . ... ... ... ... : --- .. . ... : ... .. . ... : ... .. . ...

PATTERN 0D
ROW 00 : G-3 00 1 ... ... ... ... : G#4 00 6 V00 ... ... ... : G#2 00 . ... : 2-# 00 5 ... : ... .. . ...
ROW 01 : ... .. . ... ... ... ... : G#5 00 . ... ... ... ... : ... .. . ... : ... .. 4 ... : ... .. . ...
ROW 02 : ... .. . ... ... ... ... : D#4 00 5 ... ... ... ... : ... .. . ... : ... .. 3 ... : ... .. . ...
ROW 03 : ... .. . ... ... ... ... : D#5 00 . ... ... ... ... : ... .. . ... : ... .. 2 ... : ... .. . ...
ROW 04 : G-4 00 . ... ... ... ... : C-4 00 4 ... ... ... ... : ... .. . ... : ... .. 1 ... : ... .. . ...
ROW 05 : ... .. . ... ... ... ... : C-5 00 . ... ... ... ... : --- .. . ... : ... .. 0 ... : ... .. . ...
ROW 06 : ... .. . ... ... ... ... : G#3 00 3 ... ... ... ... : ... .. . ... : ... .. . ... : ... .. . ...
ROW 07 : ... .. . ... ... ... ... : G#4 00 . ... ... ... ... : G#2 00 . ... : 2-# 00 5 ... : ... .. . ...
ROW 08 : G-3 00 . ... ... ... ... : G#4 00 2 ... ... ... ... : ... .. . ... : ... .. 4 ... : ... .. . ...
ROW 09 : ... .. . ... ... ... ... : G#5 00 . ... ... ... ... : ... .. . ... : ... .. 3 ... : ... .. . ...
ROW 0A : ... .. . ... ... ... ... : D#4 00 . ... ... ... ... : ... .. . ... : ... .. 2 ... : ... .. . ...
ROW 0B : ... .. . ... ... ... ... : D#5 00 . ... ... ... ... : ... .. . ... : ... .. 1 ... : ... .. . ...
ROW 0C : G-4 00 . ... ... ... ... : C-4 00 . ... ... ... ... : --- .. . ... : ... .. 0 ... : ... .. . ...
ROW 0D : ... .. . ... ... ... ... : C-5 00 . ... ... ... ... : ... .. . ... : ... .. . ... : ... .. . ...
ROW 0E : C-4 00 7 V02 ... ... ... : G#2 00 4 V02 ... ... ... : G#3 00 . ... : 2-# 00 5 ... : ... .. . ...
ROW 0F : ... .. . ... ... ... ... : ... .. . ... ... ... ... : ... .. . ... : ... .. 4 ... : ... .. . ...
ROW 10 : ... .. 6 V01 ... ... ... : ... .. . ... ... ... ... : ... .. . ... : ... .. 3 ... : ... .. . ...
ROW 11 : ... .. . ... ... ... ... : ... .. . ... ... ... ... : ... .. . ... : ... .. 2 ... : ... .. . ...
ROW 12 : ... .. 5 ... ... ... ... : ... .. . ... ... ... ... : ... .. . ... : ... .. 1 ... : ... .. . ...
ROW 13 : ... .. . ... ... ... ... : ... .. . ... ... ... ... : ... .. . ... : ... .. 0 ... : ... .. . ...
ROW 14 : ... .. 4 ... ... ... ... : ... .. . ... ... ... ... : ... .. . ... : ... .. . ... : ... .. . ...
ROW 15 : ... .. . ... ... ... ... : ... .. 1 ... ... ... ... : --- .. . ... : 2-# 00 1 ... : ... .. . ...
ROW 16 : ... .. . ... ... ... ... : ... .. . ... ... ... ... : ... .. . ... : ... .. 0 ... : ... .. . ...
ROW 17 : ... .. . ... ... ... ... : ... .. . ... ... ... ... : ... .. . ... : ... .. . ... : ... .. . ...
ROW 18 : ... .. . ... ... ... ... : ... .. . ... ... ... ... : ... .. . ... : ... .. . ... : ... .. . ...
ROW 19 : ... .. . ... ... ... ... : ... .. . ... ... ... ... : ... .. . ... : ... .. . ... : ... .. . ...
ROW 1A : ... .. 2 ... ... ... ... : ... .. . ... ... ... ... : ... .. . ... : ... .. . ... : ... .. . ...
ROW 1B : ... .. . ... ... ... ... : ... .. . ... ... ... ... : ... .. . ... : ... .. . ... : ... .. . ...
ROW 1C : D-4 00 7 V02 ... ... ... : A#2 00 4 ... ... ... ... : D-4 00 . ... : 7-# 00 5 ... : ... .. . ...
ROW 1D : ... .. . ... ... ... ... : ... .. . ... ... ... ... : ... .. . ... : ... .. 4 ... : ... .. . ...
ROW 1E : ... .. . V01 ... ... ... : ... .. . ... ... ... ... : ... .. . ... : ... .. 3 ... : ... .. . ...
ROW 1F : ... .. 6 ... ... ... ... : ... .. . ... ... ... ... : ... .. . ... : ... .. . ... : ... .. . ...
ROW 20 : ... .. . ... ... ... ... : ... .. . ... ... ... ... : ... .. . ... : ... .. 2 ... : ... .. . ...
ROW 21 : ... .. . ... ... ... ... : ... .. . ... ... ... ... : ... .. . ... : ... .. . ... : ... .. . ...
ROW 22 : ... .. 5 ... ... ... ... : ... .. . ... ... ... ... : ... .. . ... : ... .. 1 ... : ... .. . ...
ROW 23 : ... .. . ... ... ... ... : ... .. . ... ... ... ... : ... .. . ... : ... .. . ... : ... .. . ...
ROW 24 : ... .. . ... ... ... ... : ... .. . ... ... ... ... : ... .. . ... : ... .. . ... : ... .. . ...
ROW 25 : ... .. 4 ... ... ... ... : ... .. . ... ... ... ... : ... .. . ... : ... .. . ... : ... .. . ...
ROW 26 : ... .. . ... ... ... ... : ... .. . ... ... ... ... : ... .. . ... : ... .. 0 ... : ... .. . ...
ROW 27 : ... .. . ... ... ... ... : ... .. . ... ... ... ... : ... .. . ... : ... .. . ... : ... .. . ...
ROW 28 : ... .. . ... ... ... ... : ... .. . ... ... ... ... : ... .. . ... : ... .. . ... : ... .. . ...
ROW 29 : ... .. . ... ... ... ... : ... .. . ... ... ... ... : --- .. . ... : ... .. . ... : ... .. . ...
ROW 2A : ... .. . ... ... ... P81 : D-4 00 1 V02 ... ... ... : D#2 00 . ... : 2-# 00 5 ... : ... .. . ...
ROW 2B : ... .. . ... ... ... ... : ... .. . ... ... ... ... : ... .. . ... : ... .. 4 ... : ... .. . ...
ROW 2C : ... .. . ... ... ... ... : ... .. . ... ... ... ... : ... .. . ... : ... .. 3 ... : ... .. . ...
ROW 2D : ... .. . ... ... ... P80 : ... .. . ... ... ... ... : ... .. . ... : ... .. 2 ... : ... .. . ...
ROW 2E : ... .. . ... ... ... ... : ... .. . ... ... ... ... : ... .. . ... : ... .. 1 ... : ... .. . ...
ROW 2F : ... .. . ... ... ... ... : ... .. . ... ... ... ... : --- .. . ... : ... .. 0 ... : ... .. . ...
ROW 30 : ... .. . ... ... ... P7F : ... .. . ... ... ... ... : ... .. . ... : ... .. . ... : ... .. . ...
ROW 31 : ... .. . ... ... ... ... : ... .. . ... ... ... P80 : D#2 00 . ... : 2-# 00 5 ... : ... .. . ...
ROW 32 : ... .. . ... ... ... ... : ... .. . ... ... ... ... : ... .. . ... : ... .. 4 ... : ... .. . ...
ROW 33 : ... .. . ... ... ... P80 : ... .. . ... ... ... ... : ... .. . ... : ... .. 3 ... : ... .. . ...
ROW 34 : ... .. . ... ... ... ... : ... .. . ... ... ... P7F : ... .. . ... : ... .. 2 ... : ... .. . ...
ROW 35 : ... .. . ... ... ... ... : ... .. . ... ... ... ... : ... .. . ... : ... .. 1 ... : ... .. . ...
ROW 36 : ... .. . ... ... ... P81 : ... .. . ... ... ... ... : --- .. . ... : ... .. 0 ... : ... .. . ...
ROW 37 : ... .. . ... ... ... ... : ... .. . ... ... ... P7E : ... .. . ... : ... .. . ... : ... .. . ...
ROW 38 : ... .. . ... ... ... ... : G#4 00 6 V00 ... ... P80 : G#2 00 . ... : 2-# 00 5 ... : ... .. . ...
ROW 39 : ... .. . ... ... ... P80 : G#5 00 . ... ... ... ... : ... .. . ... : ... .. 4 ... : ... .. . ...
ROW 3A : ... .. . ... ... ... ... : D#4 00 5 ... ... ... ... : ... .. . ... : ... .. 3 ... : ... .. . ...
ROW 3B : ... .. . ... ... ... ... : D#5 00 . ... ... ... ... : ... .. . ... : ... .. 2 ... : ... .. . ...
ROW 3C : ... .. . ... ... ... P7F : C-4 00 4 ... ... ... ... : ... .. . ... : ... .. 1 ... : ... .. . ...
ROW 3D : ... .. . ... ... ... ... : C-5 00 . ... ... ... ... : --- .. . ... : ... .. 0 ... : ... .. . ...
ROW 3E : ... .. . ... ... ... ... : G#3 00 3 ... ... ... ... : ... .. . ... : ... .. . ... : ... .. . ...
ROW 3F : ... .. 2 ... ... ... P80 : G#4 00 . ... ... ... ... : G#2 00 . ... : 2-# 00 5 ... : ... .. . ...
ROW 40 : ... .. . ... ... ... ... : G#4 00 2 ... ... ... ... : ... .. . ... : ... .. 4 ... : ... .. . ...
ROW 41 : ... .. . ... ... ... ... : G#5 00 . ... ... ... ... : ... .. . ... : ... .. 3 ... : ... .. . ...
ROW 42 : ... .. . ... ... ... P81 : D#4 00 . ... ... ... ... : ... .. . ... : ... .. 2 ... : ... .. . ...
ROW 43 : ... .. . ... ... ... ... : D#5 00 . ... ... ... ... : ... .. . ... : ... .. 1 ... : ... .. . ...
ROW 44 : ... .. . ... ... ... ... : C-4 00 . ... ... ... ... : --- .. . ... : ... .. 0 ... : ... .. . ...
ROW 45 : ... .. . ... ... ... P80 : C-5 00 . ... ... ... ... : ... .. . ... : ... .. . ... : ... .. . ...
ROW 46 : C-4 00 7 V02 ... ... ... : G#2 00 4 V02 ... ... P80 : G#3 00 . ... : 2-# 00 5 ... : ... .. . ...
ROW 47 : ... .. . ... ... ... ... : ... .. . ... ... ... ... : ... .. . ... : ... .. 4 ... : ... .. . ...
ROW 48 : ... .. 6 V01 ... ... ... : ... .. . ... ... ... ... : ... .. . ... : ... .. 3 ... : ... .. . ...
ROW 49 : ... .. . ... ... ... ... : ... .. . ... ... ... ... : ... .. . ... : ... .. 2 ... : ... .. . ...
ROW 4A : ... .. 5 ... ... ... ... : ... .. . ... ... ... ... : ... .. . ... : ... .. 1 ... : ... .. . ...
ROW 4B : ... .. . ... ... ... ... : ... .. . ... ... ... ... : ... .. . ... : ... .. 0 ... : ... .. . ...
ROW 4C : ... .. 4 ... ... ... ... : ... .. . ... ... ... ... : ... .. . ... : ... .. . ... : ... .. . ...
ROW 4D : ... .. . ... ... ... ... : ... .. 1 ... ... ... ... : --- .. . ... : 2-# 00 1 ... : ... .. . ...
ROW 4E : ... .. . ... ... ... ... : ... .. . ... ... ... ... : ... .. . ... : ... .. 0 ... : ... .. . ...
ROW 4F : ... .. . ... ... ... ... : ... .. . ... ... ... ... : ... .. . ... : ... .. . ... : ... .. . ...
ROW 50 : ... .. . ... ... ... ... : ... .. . ... ... ... ... : ... .. . ... : ... .. . ... : ... .. . ...
ROW 51 : ... .. . ... ... ... ... : ... .. . ... ... ... ... : ... .. . ... : ... .. . ... : ... .. . ...
ROW 52 : ... .. 2 ... ... ... ... : ... .. . ... ... ... ... : ... .. . ... : ... .. . ... : ... .. . ...
ROW 53 : ... .. . ... ... ... ... : ... .. . ... ... ... ... : ... .. . ... : ... .. . ... : ... .. . ...
ROW 54 : D-4 00 7 V02 ... ... ... : A#2 00 4 ... ... ... ... : D-4 00 . ... : 7-# 00 5 ... : ... .. . ...
ROW 55 : ... .. . ... ... ... ... : ... .. . ... ... ... ... : ... .. . ... : ... .. 4 ... : ... .. . ...
ROW 56 : ... .. . V01 ... ... ... : ... .. . ... ... ... ... : ... .. . ... : ... .. 3 ... : ... .. . ...
ROW 57 : ... .. 6 ... ... ... ... : ... .. . ... ... ... ... : ... .. . ... : ... .. . ... : ... .. . ...
ROW 58 : ... .. . ... ... ... ... : ... .. . ... ... ... ... : ... .. . ... : ... .. 2 ... : ... .. . ...
ROW 59 : ... .. . ... ... ... ... : ... .. . ... ... ... ... : ... .. . ... : ... .. . ... : ... .. . ...
ROW 5A : ... .. 5 ... ... ... ... : ... .. . ... ... ... ... : ... .. . ... : ... .. 1 ... : ... .. . ...
ROW 5B : ... .. . ... ... ... ... : ... .. . ... ... ... ... : ... .. . ... : ... .. . ... : ... .. . ...
ROW 5C : ... .. . ... ... ... ... : ... .. . ... ... ... ... : ... .. . ... : ... .. . ... : ... .. . ...
ROW 5D : ... .. 4 ... ... ... ... : ... .. . ... ... ... ... : ... .. . ... : ... .. . ... : ... .. . ...
ROW 5E : ... .. . ... ... ... ... : ... .. . ... ... ... ... : ... .. . ... : ... .. 0 ... : ... .. . ...
ROW 5F : ... .. . ... ... ... ... : ... .. . ... ... ... ... : ... .. . ... : ... .. . ... : ... .. . ...
ROW 60 : ... .. . ... ... ... ... : ... .. . ... ... ... ... : ... .. . ... : ... .. . ... : ... .. . ...
ROW 61 : ... .. . ... ... ... ... : ... .. . ... ... ... ... : ... .. . ... : ... .. . ... : ... .. . ...
ROW 62 : ... .. . ... ... ... P81 : D-4 00 1 V02 ... ... ... : D#2 00 . ... : 2-# 00 5 ... : ... .. . ...
ROW 63 : ... .. . ... ... ... ... : ... .. . ... ... ... ... : ... .. . ... : ... .. 4 ... : ... .. . ...
ROW 64 : ... .. . ... ... ... ... : ... .. . ... ... ... ... : ... .. . ... : ... .. 3 ... : ... .. . ...
ROW 65 : ... .. . ... ... ... P80 : ... .. . ... ... ... ... : ... .. . ... : ... .. 2 ... : ... .. . ...
ROW 66 : ... .. . ... ... ... ... : ... .. . ... ... ... ... : ... .. . ... : ... .. 1 ... : ... .. . ...
ROW 67 : ... .. . ... ... ... ... : ... .. . ... ... ... ... : --- .. . ... : ... .. 0 ... : ... .. . ...
ROW 68 : ... .. . ... ... ... P7F : ... .. . ... ... ... ... : ... .. . ... : ... .. . ... : ... .. . ...
ROW 69 : ... .. . ... ... ... ... : ... .. . ... ... ... P80 : D#2 00 . ... : 2-# 00 5 ... : ... .. . ...
ROW 6A : ... .. . ... ... ... ... : ... .. . ... ... ... ... : ... .. . ... : ... .. 4 ... : ... .. . ...
ROW 6B : ... .. . ... ... ... P80 : ... .. . ... ... ... ... : ... .. . ... : ... .. 3 ... : ... .. . ...
ROW 6C : ... .. . ... ... ... ... : ... .. . ... ... ... P7F : ... .. . ... : ... .. 2 ... : ... .. . ...
ROW 6D : ... .. . ... ... ... ... : ... .. . ... ... ... ... : ... .. . ... : ... .. 1 ... : ... .. . ...
ROW 6E : ... .. . ... ... ... P81 : ... .. . ... ... ... ... : --- .. . ... : ... .. 0 ... : ... .. . ...
ROW 6F : ... .. . ... ... ... ... : ... .. . ... ... ... P7E : ... .. . ... : ... .. . ... : ... .. . ...
ROW 70 : ... .. . ... ... ... ... : G#4 00 6 V00 ... ... P80 : G#2 00 . ... : 2-# 00 5 ... : ... .. . ...
ROW 71 : ... .. . ... ... ... P80 : G#5 00 . ... ... ... ... : ... .. . ... : ... .. 4 ... : ... .. . ...
ROW 72 : ... .. . ... ... ... ... : D#4 00 5 ... ... ... ... : ... .. . ... : ... .. 3 ... : ... .. . ...
ROW 73 : ... .. . ... ... ... ... : D#5 00 . ... ... ... ... : ... .. . ... : ... .. 2 ... : ... .. . ...
ROW 74 : ... .. . ... ... ... P7F : C-4 00 4 ... ... ... ... : ... .. . ... : ... .. 1 ... : ... .. . ...
ROW 75 : ... .. . ... ... ... ... : C-5 00 . ... ... ... ... : --- .. . ... : ... .. 0 ... : ... .. . ...
ROW 76 : ... .. . ... ... ... ... : G#3 00 3 ... ... ... ... : ... .. . ... : ... .. . ... : ... .. . ...
ROW 77 : ... .. 2 ... ... ... P80 : G#4 00 . ... ... ... ... : G#2 00 . ... : 2-# 00 5 ... : ... .. . ...
ROW 78 : ... .. . ... ... ... ... : G#4 00 2 ... ... ... ... : ... .. . ... : ... .. 4 ... : ... .. . ...
ROW 79 : ... .. . ... ... ... ... : G#5 00 . ... ... ... ... : ... .. . ... : ... .. 3 ... : ... .. . ...
ROW 7A : ... .. . ... ... ... P81 : D#4 00 . ... ... ... ... : ... .. . ... : ... .. 2 ... : ... .. . ...
ROW 7B : ... .. . ... ... ... ... : D#5 00 . ... ... ... ... : ... .. . ... : ... .. 1 ... : ... .. . ...
ROW 7C : ... .. . ... ... ... ... : C-4 00 . ... ... ... ... : --- .. . ... : ... .. 0 ... : ... .. . ...
ROW 7D : ... .. . ... ... ... P80 : C-5 00 . ... ... ... ... : ... .. . ... : ... .. . ... : ... .. . ...
ROW 7E : C-3 00 7 V01 ... ... ... : --- .. . ... ... ... ... : G#3 00 . ... : 2-# 00 5 ... : ... .. . ...
ROW 7F : ... .. . ... ... ... ... : C-3 00 3 V01 ... ... P83 : ... .. . ... : ... .. 4 ... : ... .. . ...
ROW 80 : ... .. . ... ... ... ... : ... .. . ... ... ... ... : ... .. . ... : ... .. 3 ... : ... .. . ...
ROW 81 : ... .. 6 ... ... ... ... : ... .. . ... ... ... ... : ... .. . ... : ... .. 2 ... : ... .. . ...
ROW 82 : ... .. . ... ... ... ... : ... .. . ... ... ... ... : ... .. . ... : ... .. 1 ... : ... .. . ...
ROW 83 : ... .. . ... ... ... ... : ... .. . ... ... ... ... : ... .. . ... : ... .. 0 ... : ... .. . ...
ROW 84 : ... .. 5 ... ... ... ... : ... .. . ... ... ... ... : ... .. . ... : ... .. . ... : ... .. . ...
ROW 85 : ... .. . ... ... ... ... : ... .. 2 ... ... ... ... : --- .. . ... : 2-# 00 1 ... : ... .. . ...
ROW 86 : ... .. . ... ... ... ... : ... .. . ... ... ... ... : ... .. . ... : ... .. 0 ... : ... .. . ...
ROW 87 : ... .. . ... ... ... ... : ... .. . ... ... ... ... : ... .. . ... : ... .. . ... : ... .. . ...
ROW 88 : ... .. . ... ... ... ... : ... .. . ... ... ... ... : ... .. . ... : ... .. . ... : ... .. . ...
ROW 89 : ... .. . ... ... ... ... : ... .. . ... ... ... ... : ... .. . ... : ... .. . ... : ... .. . ...
ROW 8A : ... .. 2 ... ... ... ... : ... .. . ... ... ... ... : ... .. . ... : ... .. . ... : ... .. . ...
ROW 8B : ... .. . ... ... ... ... : ... .. 1 ... ... ... ... : ... .. . ... : ... .. . ... : ... .. . ...
ROW 8C : D-3 00 7 ... ... ... ... : ... .. . ... ... ... ... : A#2 00 . ... : 7-# 00 5 ... : ... .. . ...
ROW 8D : ... .. . ... ... ... ... : D-3 00 3 ... ... ... ... : ... .. . ... : ... .. 4 ... : ... .. . ...
ROW 8E : ... .. . ... ... ... ... : ... .. . ... ... ... ... : ... .. . ... : ... .. 3 ... : ... .. . ...
ROW 8F : ... .. 6 ... ... ... ... : ... .. . ... ... ... ... : ... .. . ... : ... .. . ... : ... .. . ...
ROW 90 : ... .. . ... ... ... ... : ... .. . ... ... ... ... : ... .. . ... : ... .. 2 ... : ... .. . ...
ROW 91 : ... .. . ... ... ... ... : ... .. . ... ... ... ... : --- .. . ... : ... .. . ... : ... .. . ...
ROW 92 : ... .. 5 ... ... ... ... : ... .. . ... ... ... ... : ... .. . ... : ... .. 1 ... : ... .. . ...
ROW 93 : ... .. . ... ... ... ... : ... .. 2 ... ... ... ... : C-3 00 . ... : ... .. . ... : ... .. . ...
ROW 94 : ... .. . ... ... ... ... : ... .. . ... ... ... ... : ... .. . ... : ... .. . ... : ... .. . ...
ROW 95 : ... .. . ... ... ... ... : ... .. . ... ... ... ... : ... .. . ... : ... .. . ... : ... .. . ...
ROW 96 : ... .. . ... ... ... ... : ... .. . ... ... ... ... : ... .. . ... : ... .. 0 ... : ... .. . ...
ROW 97 : ... .. . ... ... ... ... : ... .. . ... ... ... ... : ... .. . ... : ... .. . ... : ... .. . ...
ROW 98 : C-3 00 2 ... ... ... ... : ... .. . ... ... ... ... : --- .. . ... : ... .. . ... : ... .. . ...
ROW 99 : ... .. . ... ... ... ... : C-3 00 1 ... ... ... ... : ... .. . ... : ... .. . ... : ... .. . ...
ROW 9A : F-3 00 7 ... ... ... ... : ... .. . ... ... ... ... : D-3 00 . ... : ... .. . ... : ... .. . ...
ROW 9B : ... .. . ... ... ... ... : F-3 00 3 ... ... ... ... : ... .. . ... : ... .. . ... : ... .. . ...
ROW 9C : ... .. . ... ... ... ... : ... .. . ... ... ... ... : ... .. . ... : ... .. . ... : ... .. . ...
ROW 9D : ... .. 6 ... ... ... ... : ... .. . ... ... ... ... : ... .. . ... : ... .. . ... : ... .. . ...
ROW 9E : ... .. . ... ... ... ... : ... .. . ... ... ... ... : ... .. . ... : ... .. . ... : ... .. . ...
ROW 9F : ... .. . ... ... ... ... : ... .. . ... ... ... ... : --- .. . ... : ... .. . ... : ... .. . ...
ROW A0 : ... .. 5 ... ... ... ... : ... .. . ... ... ... ... : ... .. . ... : ... .. . ... : ... .. . ...
ROW A1 : ... .. . ... ... ... ... : ... .. 2 ... ... ... ... : A#2 00 . ... : ... .. . ... : ... .. . ...
ROW A2 : ... .. . ... ... ... ... : ... .. . ... ... ... ... : ... .. . ... : ... .. . ... : ... .. . ...
ROW A3 : ... .. . ... ... ... ... : ... .. . ... ... ... ... : ... .. . ... : ... .. . ... : ... .. . ...
ROW A4 : ... .. . ... ... ... ... : ... .. . ... ... ... ... : ... .. . ... : ... .. . ... : ... .. . ...
ROW A5 : ... .. . ... ... ... ... : ... .. . ... ... ... ... : ... .. . ... : ... .. . ... : ... .. . ...
ROW A6 : D-3 00 2 ... ... ... ... : ... .. . ... ... ... ... : --- .. . ... : ... .. . ... : ... .. . ...
ROW A7 : ... .. . ... ... ... ... : D-3 00 1 ... ... ... ... : ... .. . ... : ... .. . ... : ... .. . ...
ROW A8 : D#3 00 7 ... ... ... ... : ... .. . ... ... ... ... : D#3 00 . ... : 2-# 00 5 ... : ... .. . ...
ROW A9 : ... .. . ... ... ... ... : D#3 00 3 ... ... ... ... : ... .. . ... : ... .. 4 ... : ... .. . ...
ROW AA : ... .. . ... ... ... ... : ... .. . ... ... ... ... : ... .. . ... : ... .. 3 ... : ... .. . ...
ROW AB : ... .. 6 ... ... ... ... : ... .. . ... ... ... ... : ... .. . ... : ... .. 2 ... : ... .. . ...
ROW AC : ... .. . ... ... ... ... : ... .. . ... ... ... ... : ... .. . ... : ... .. 1 ... : ... .. . ...
ROW AD : ... .. . ... ... ... ... : ... .. . ... ... ... ... : --- .. . ... : ... .. 0 ... : ... .. . ...
ROW AE : ... .. 5 ... ... ... ... : ... .. . ... ... ... ... : ... .. . ... : ... .. . ... : ... .. . ...
ROW AF : ... .. . ... ... ... ... : ... .. 2 ... ... ... ... : F-3 00 . ... : 2-# 00 5 ... : ... .. . ...
ROW B0 : ... .. . ... ... ... ... : ... .. . ... ... ... ... : ... .. . ... : ... .. 4 ... : ... .. . ...
ROW B1 : ... .. . ... ... ... ... : ... .. . ... ... ... ... : ... .. . ... : ... .. 3 ... : ... .. . ...
ROW B2 : ... .. . ... ... ... ... : ... .. . ... ... ... ... : ... .. . ... : ... .. 2 ... : ... .. . ...
ROW B3 : ... .. . ... ... ... ... : ... .. . ... ... ... ... : ... .. . ... : ... .. 1 ... : ... .. . ...
ROW B4 : ... .. . ... ... ... ... : ... .. . ... ... ... ... : --- .. . ... : ... .. 0 ... : ... .. . ...
ROW B5 : ... .. . ... ... ... ... : ... .. . ... ... ... ... : ... .. . ... : ... .. . ... : ... .. . ...
ROW B6 : ... .. . ... ... ... ... : ... .. . ... ... ... ... : G-3 00 . ... : 2-# 00 5 ... : ... .. . ...
ROW B7 : ... .. . ... ... ... ... : ... .. . ... ... ... ... : ... .. . ... : ... .. 4 ... : ... .. . ...
ROW B8 : ... .. . ... ... ... ... : ... .. . ... ... ... ... : ... .. . ... : ... .. 3 ... : ... .. . ...
ROW B9 : ... .. . ... ... ... ... : ... .. . ... ... ... ... : ... .. . ... : ... .. 2 ... : ... .. . ...
ROW BA : ... .. . ... ... ... ... : ... .. . ... ... ... ... : ... .. . ... : ... .. 1 ... : ... .. . ...
ROW BB : ... .. . ... ... ... ... : ... .. . ... ... ... ... : --- .. . ... : ... .. 0 ... : ... .. . ...
ROW BC : ... .. . ... ... ... ... : ... .. . ... ... ... ... : ... .. . ... : ... .. . ... : ... .. . ...
ROW BD : ... .. . ... ... ... ... : ... .. . ... ... ... ... : A#3 00 . ... : 2-# 00 1 ... : ... .. . ...
ROW BE : ... .. . ... ... ... ... : ... .. . ... ... ... ... : ... .. . ... : ... .. 0 ... : ... .. . ...
ROW BF : ... .. . ... ... ... ... : ... .. . ... ... ... ... : ... .. . ... : ... .. . ... : ... .. . ...
ROW C0 : ... .. . ... ... ... ... : ... .. . ... ... ... ... : ... .. . ... : ... .. . ... : ... .. . ...
ROW C1 : F-3 00 2 ... ... ... ... : ... .. . ... ... ... ... : ... .. . ... : ... .. . ... : ... .. . ...
ROW C2 : ... .. . ... ... ... ... : F-3 00 1 ... ... ... ... : --- .. . ... : ... .. . ... : ... .. . ...
ROW C3 : ... .. . ... ... ... ... : ... .. . ... ... ... ... : ... .. . ... : ... .. . ... : ... .. . ...
ROW C4 : A#2 00 7 ... ... ... ... : ... .. . ... ... ... ... : D#4 00 . ... : 7-# 00 5 ... : ... .. . ...
ROW C5 : ... .. . ... ... ... ... : A#2 00 3 ... ... ... ... : ... .. . ... : ... .. 4 ... : ... .. . ...
ROW C6 : ... .. . ... ... ... ... : ... .. . ... ... ... ... : ... .. . ... : ... .. 3 ... : ... .. . ...
ROW C7 : ... .. 6 ... ... ... ... : ... .. . ... ... ... ... : ... .. . ... : ... .. . ... : ... .. . ...
ROW C8 : ... .. . ... ... ... ... : ... .. . ... ... ... ... : ... .. . ... : ... .. 2 ... : ... .. . ...
ROW C9 : ... .. . ... ... ... ... : ... .. . ... ... ... ... : --- .. . ... : ... .. . ... : ... .. . ...
ROW CA : ... .. 5 ... ... ... ... : ... .. . ... ... ... ... : ... .. . ... : ... .. 1 ... : ... .. . ...
ROW CB : ... .. . ... ... ... ... : ... .. 2 ... ... ... ... : D-4 00 . ... : ... .. . ... : ... .. . ...
ROW CC : ... .. . ... ... ... ... : ... .. . ... ... ... ... : ... .. . ... : ... .. . ... : ... .. . ...
ROW CD : ... .. . ... ... ... ... : ... .. . ... ... ... ... : ... .. . ... : ... .. . ... : ... .. . ...
ROW CE : ... .. . ... ... ... ... : ... .. . ... ... ... ... : ... .. . ... : ... .. 0 ... : ... .. . ...
ROW CF : ... .. . ... ... ... ... : ... .. . ... ... ... ... : ... .. . ... : ... .. . ... : ... .. . ...
ROW D0 : ... .. . ... ... ... ... : ... .. . ... ... ... ... : --- .. . ... : ... .. . ... : ... .. . ...
ROW D1 : ... .. . ... ... ... ... : ... .. . ... ... ... ... : ... .. . ... : ... .. . ... : ... .. . ...
ROW D2 : ... .. . ... ... ... ... : D#4 00 6 V01 ... ... P80 : C-4 00 . ... : 2-# 00 5 ... : ... .. . ...
ROW D3 : ... .. . ... ... ... ... : ... .. . ... ... ... ... : ... .. . ... : ... .. 4 ... : ... .. . ...
ROW D4 : ... .. . ... ... ... ... : ... .. 5 ... ... ... ... : ... .. . ... : ... .. 3 ... : ... .. . ...
ROW D5 : ... .. . ... ... ... ... : ... .. . ... ... ... ... : ... .. . ... : ... .. 2 ... : ... .. . ...
ROW D6 : ... .. . ... ... ... ... : ... .. 4 ... ... ... ... : ... .. . ... : ... .. 1 ... : ... .. . ...
ROW D7 : ... .. . ... ... ... ... : ... .. . ... ... ... ... : --- .. . ... : ... .. 0 ... : ... .. . ...
ROW D8 : ... .. . ... ... ... ... : ... .. . ... ... ... ... : ... .. . ... : ... .. . ... : ... .. . ...
ROW D9 : ... .. . ... ... ... ... : ... .. . ... ... ... ... : G-3 00 . ... : 2-# 00 5 ... : ... .. . ...
ROW DA : ... .. . ... ... ... ... : ... .. . ... ... ... ... : ... .. . ... : ... .. 4 ... : ... .. . ...
ROW DB : ... .. . ... ... ... ... : ... .. . ... ... ... ... : ... .. . ... : ... .. 3 ... : ... .. . ...
ROW DC : ... .. . ... ... ... ... : ... .. . ... ... ... ... : ... .. . ... : ... .. 2 ... : ... .. . ...
ROW DD : D#3 00 2 ... ... ... ... : ... .. . ... ... ... ... : ... .. . ... : ... .. 1 ... : ... .. . ...
ROW DE : ... .. . ... ... ... ... : ... .. . ... ... ... ... : --- .. . ... : ... .. 0 ... : ... .. . ...
ROW DF : ... .. . ... ... ... ... : ... .. . ... ... ... ... : ... .. . ... : ... .. . ... : ... .. . ...

PATTERN 0E
ROW 00 : G-2 00 4 V01 ... ... ... : D#4 00 7 V01 ... ... ... : D#2 00 . ... : 2-# 00 6 ... : ... .. . ...
ROW 01 : ... .. . V00 ... ... ... : ... .. . ... ... ... ... : ... .. . ... : ... .. . ... : ... .. . ...
ROW 02 : ... .. . ... ... ... ... : ... .. 6 ... ... ... ... : ... .. . ... : ... .. 5 ... : ... .. . ...
ROW 03 : ... .. . ... ... ... ... : ... .. . ... ... ... ... : ... .. . ... : ... .. . ... : ... .. . ...
ROW 04 : ... .. . ... ... ... ... : ... .. 5 ... ... ... ... : ... .. . ... : ... .. 4 ... : ... .. . ...
ROW 05 : ... .. 1 V01 ... ... ... : ... .. . ... ... ... ... : --- .. . ... : ... .. . ... : ... .. . ...
ROW 06 : ... .. . V00 ... ... ... : ... .. . ... ... ... ... : ... .. . ... : ... .. 3 ... : ... .. . ...
ROW 07 : A#2 00 4 V01 ... ... ... : ... .. . ... ... ... ... : G-2 00 . ... : ... .. . ... : ... .. . ...
ROW 08 : ... .. . V00 ... ... ... : ... .. . ... ... ... ... : ... .. . ... : ... .. 2 ... : ... .. . ...
ROW 09 : ... .. . ... ... ... ... : ... .. . ... ... ... ... : ... .. . ... : ... .. . ... : ... .. . ...
ROW 0A : ... .. . ... ... ... ... : ... .. . ... ... ... ... : ... .. . ... : ... .. 1 ... : ... .. . ...
ROW 0B : ... .. . ... ... ... ... : ... .. . ... ... ... ... : ... .. . ... : ... .. . ... : ... .. . ...
ROW 0C : G-2 .. 1 V01 ... ... ... : ... .. . ... ... ... ... : --- .. . ... : ... .. 0 ... : ... .. . ...
ROW 0D : ... .. . V00 ... ... ... : ... .. . ... ... ... ... : ... .. . ... : ... .. . ... : ... .. . ...
ROW 0E : D#3 00 4 V01 ... ... ... : ... .. . ... ... ... P81 : A#2 00 . ... : ... .. . ... : ... .. . ...
ROW 0F : ... .. . V00 ... ... ... : ... .. . ... ... ... ... : ... .. . ... : ... .. . ... : ... .. . ...
ROW 10 : ... .. . ... ... ... ... : ... .. . ... ... ... ... : ... .. . ... : ... .. . ... : ... .. . ...
ROW 11 : ... .. . ... ... ... ... : ... .. . ... ... ... P80 : ... .. . ... : ... .. . ... : ... .. . ...
ROW 12 : ... .. . ... ... ... ... : ... .. . ... ... ... ... : ... .. . ... : ... .. . ... : ... .. . ...
ROW 13 : A#2 .. 1 V01 ... ... ... : ... .. . ... ... ... ... : --- .. . ... : ... .. . ... : ... .. . ...
ROW 14 : ... .. . V00 ... ... ... : ... .. . ... ... ... P7F : ... .. . ... : ... .. . ... : ... .. . ...
ROW 15 : G-3 00 4 V01 ... ... ... : ... .. 4 ... ... ... ... : D#3 00 . ... : ... .. . ... : ... .. . ...
ROW 16 : ... .. . V00 ... ... ... : ... .. . ... ... ... ... : ... .. . ... : ... .. . ... : ... .. . ...
ROW 17 : ... .. . ... ... ... ... : ... .. 3 ... ... ... P80 : ... .. . ... : ... .. . ... : ... .. . ...
ROW 18 : ... .. . ... ... ... ... : ... .. . ... ... ... ... : ... .. . ... : ... .. . ... : ... .. . ...
ROW 19 : ... .. . ... ... ... ... : ... .. 2 ... ... ... ... : ... .. . ... : ... .. . ... : ... .. . ...
ROW 1A : D#3 .. 1 V01 ... ... ... : ... .. . ... ... ... P81 : --- .. . ... : ... .. . ... : ... .. . ...
ROW 1B : ... .. . V00 ... ... ... : ... .. 1 ... ... ... ... : ... .. . ... : ... .. . ... : ... .. . ...
ROW 1C : A#3 00 4 V01 ... ... ... : D-4 00 7 V01 ... ... P80 : G-3 00 . ... : ... .. . ... : ... .. . ...
ROW 1D : ... .. . V00 ... ... ... : ... .. . ... ... ... ... : ... .. . ... : ... .. . ... : ... .. . ...
ROW 1E : ... .. . ... ... ... ... : ... .. 6 ... ... ... ... : ... .. . ... : ... .. . ... : ... .. . ...
ROW 1F : ... .. . ... ... ... ... : ... .. . ... ... ... ... : ... .. . ... : ... .. . ... : ... .. . ...
ROW 20 : ... .. . ... ... ... ... : ... .. 5 ... ... ... ... : --- .. . ... : ... .. . ... : ... .. . ...
ROW 21 : G-3 .. 1 V01 ... ... ... : ... .. . ... ... ... ... : ... .. . ... : ... .. . ... : ... .. . ...
ROW 22 : ... .. . V00 ... ... ... : ... .. . ... ... ... ... : ... .. . ... : ... .. . ... : ... .. . ...
ROW 23 : G-3 00 4 V01 ... ... ... : ... .. . ... ... ... ... : D#3 00 . ... : ... .. . ... : ... .. . ...
ROW 24 : ... .. . V00 ... ... ... : ... .. . ... ... ... ... : ... .. . ... : ... .. . ... : ... .. . ...
ROW 25 : ... .. . ... ... ... ... : ... .. . ... ... ... ... : ... .. . ... : ... .. . ... : ... .. . ...
ROW 26 : ... .. . ... ... ... ... : ... .. . ... ... ... ... : ... .. . ... : ... .. . ... : ... .. . ...
ROW 27 : ... .. . ... ... ... ... : ... .. . ... ... ... ... : ... .. . ... : ... .. . ... : ... .. . ...
ROW 28 : A#3 .. 1 V01 ... ... ... : ... .. . ... ... ... ... : --- .. . ... : ... .. . ... : ... .. . ...
ROW 29 : ... .. . V00 ... ... ... : ... .. . ... ... ... ... : ... .. . ... : ... .. . ... : ... .. . ...
ROW 2A : D#3 00 4 V01 ... ... ... : ... .. . ... ... ... P81 : A#2 00 . ... : 2-# 00 6 ... : ... .. . ...
ROW 2B : ... .. . V00 ... ... ... : ... .. . ... ... ... ... : ... .. . ... : ... .. . ... : ... .. . ...
ROW 2C : ... .. . ... ... ... ... : ... .. . ... ... ... ... : ... .. . ... : ... .. 5 ... : ... .. . ...
ROW 2D : ... .. . ... ... ... ... : ... .. . ... ... ... P80 : ... .. . ... : ... .. . ... : ... .. . ...
ROW 2E : ... .. . ... ... ... ... : ... .. . ... ... ... ... : ... .. . ... : ... .. 4 ... : ... .. . ...
ROW 2F : G-3 .. 1 V01 ... ... ... : ... .. . ... ... ... ... : --- .. . ... : ... .. . ... : ... .. . ...
ROW 30 : ... .. . V00 ... ... ... : ... .. 4 ... ... ... P7F : ... .. . ... : ... .. 3 ... : ... .. . ...
ROW 31 : A#2 00 4 V01 ... ... ... : ... .. . ... ... ... ... : G-2 00 . ... : ... .. . ... : ... .. . ...
ROW 32 : ... .. . V00 ... ... ... : ... .. 3 ... ... ... ... : ... .. . ... : ... .. 2 ... : ... .. . ...
ROW 33 : ... .. . ... ... ... ... : ... .. . ... ... ... P80 : ... .. . ... : ... .. . ... : ... .. . ...
ROW 34 : ... .. . ... ... ... ... : ... .. 2 ... ... ... ... : ... .. . ... : ... .. 1 ... : ... .. . ...
ROW 35 : ... .. . ... ... ... ... : ... .. . ... ... ... ... : ... .. . ... : ... .. . ... : ... .. . ...
ROW 36 : D#3 .. 1 V01 ... ... ... : D#4 00 1 ... ... ... P81 : --- .. . ... : ... .. 0 ... : ... .. . ...
ROW 37 : ... .. . V00 ... ... ... : ... .. . ... ... ... ... : ... .. . ... : ... .. . ... : ... .. . ...
ROW 38 : A-2 00 4 V01 ... ... ... : C-4 00 7 V01 ... ... P80 : F-2 00 . ... : 2-# 00 6 ... : ... .. . ...
ROW 39 : ... .. . V00 ... ... ... : ... .. . ... ... ... ... : ... .. . ... : ... .. . ... : ... .. . ...
ROW 3A : ... .. . ... ... ... ... : ... .. 6 ... ... ... ... : ... .. . ... : ... .. 5 ... : ... .. . ...
ROW 3B : ... .. . ... ... ... ... : ... .. . ... ... ... ... : ... .. . ... : ... .. . ... : ... .. . ...
ROW 3C : ... .. . ... ... ... ... : ... .. 5 ... ... ... ... : ... .. . ... : ... .. 4 ... : ... .. . ...
ROW 3D : A#2 .. 1 V01 ... ... ... : ... .. . ... ... ... ... : --- .. . ... : ... .. . ... : ... .. . ...
ROW 3E : ... .. . V00 ... ... ... : ... .. . ... ... ... ... : ... .. . ... : ... .. 3 ... : ... .. . ...
ROW 3F : C-3 00 4 V01 ... ... ... : ... .. . ... ... ... ... : A-2 00 . ... : ... .. . ... : ... .. . ...
ROW 40 : ... .. . V00 ... ... ... : ... .. . ... ... ... ... : ... .. . ... : ... .. 2 ... : ... .. . ...
ROW 41 : ... .. . ... ... ... ... : ... .. . ... ... ... ... : ... .. . ... : ... .. . ... : ... .. . ...
ROW 42 : ... .. . ... ... ... ... : ... .. . ... ... ... ... : ... .. . ... : ... .. 1 ... : ... .. . ...
ROW 43 : ... .. . ... ... ... ... : ... .. . ... ... ... ... : ... .. . ... : ... .. . ... : ... .. . ...
ROW 44 : A-2 .. 1 V01 ... ... ... : ... .. . ... ... ... ... : --- .. . ... : ... .. 0 ... : ... .. . ...
ROW 45 : ... .. . V00 ... ... ... : ... .. . ... ... ... ... : ... .. . ... : ... .. . ... : ... .. . ...
ROW 46 : F-3 00 4 V01 ... ... ... : ... .. . ... ... ... P81 : C-3 00 . ... : ... .. . ... : ... .. . ...
ROW 47 : ... .. . V00 ... ... ... : ... .. . ... ... ... ... : ... .. . ... : ... .. . ... : ... .. . ...
ROW 48 : ... .. . ... ... ... ... : ... .. . ... ... ... ... : ... .. . ... : ... .. . ... : ... .. . ...
ROW 49 : ... .. . ... ... ... ... : ... .. . ... ... ... P80 : ... .. . ... : ... .. . ... : ... .. . ...
ROW 4A : ... .. . ... ... ... ... : ... .. . ... ... ... ... : ... .. . ... : ... .. . ... : ... .. . ...
ROW 4B : C-3 .. 1 V01 ... ... ... : ... .. . ... ... ... ... : --- .. . ... : ... .. . ... : ... .. . ...
ROW 4C : ... .. . V00 ... ... ... : ... .. . ... ... ... P7F : ... .. . ... : ... .. . ... : ... .. . ...
ROW 4D : A-3 00 4 V01 ... ... ... : ... .. 3 ... ... ... ... : F-3 00 . ... : ... .. . ... : ... .. . ...
ROW 4E : ... .. . V00 ... ... ... : ... .. . ... ... ... ... : ... .. . ... : ... .. . ... : ... .. . ...
ROW 4F : ... .. . ... ... ... ... : ... .. 2 ... ... ... P80 : ... .. . ... : ... .. . ... : ... .. . ...
ROW 50 : ... .. . ... ... ... ... : ... .. . ... ... ... ... : ... .. . ... : ... .. . ... : ... .. . ...
ROW 51 : ... .. . ... ... ... ... : ... .. 1 ... ... ... ... : ... .. . ... : ... .. . ... : ... .. . ...
ROW 52 : F-3 .. 1 V01 ... ... ... : ... .. . ... ... ... P81 : --- .. . ... : ... .. . ... : ... .. . ...
ROW 53 : ... .. . V00 ... ... ... : ... .. . ... ... ... ... : ... .. . ... : ... .. . ... : ... .. . ...
ROW 54 : C-4 00 4 V01 ... ... ... : B-3 00 7 V01 ... ... P80 : A-3 00 . ... : ... .. . ... : ... .. . ...
ROW 55 : ... .. . V00 ... ... ... : ... .. . ... ... ... ... : ... .. . ... : ... .. . ... : ... .. . ...
ROW 56 : ... .. . ... ... ... ... : ... .. 6 ... ... ... ... : ... .. . ... : ... .. . ... : ... .. . ...
ROW 57 : ... .. . ... ... ... ... : ... .. . ... ... ... ... : ... .. . ... : ... .. . ... : ... .. . ...
ROW 58 : ... .. . ... ... ... ... : ... .. 5 ... ... ... ... : ... .. . ... : ... .. . ... : ... .. . ...
ROW 59 : A-3 .. 1 V01 ... ... ... : ... .. . ... ... ... ... : --- .. . ... : ... .. . ... : ... .. . ...
ROW 5A : ... .. . V00 ... ... ... : ... .. . ... ... ... ... : ... .. . ... : ... .. . ... : ... .. . ...
ROW 5B : A-3 00 4 V01 ... ... ... : ... .. . ... ... ... ... : F-3 00 . ... : ... .. . ... : ... .. . ...
ROW 5C : ... .. . V00 ... ... ... : ... .. . ... ... ... ... : ... .. . ... : ... .. . ... : ... .. . ...
ROW 5D : ... .. . ... ... ... ... : ... .. . ... ... ... ... : ... .. . ... : ... .. . ... : ... .. . ...
ROW 5E : ... .. . ... ... ... ... : ... .. . ... ... ... ... : ... .. . ... : ... .. . ... : ... .. . ...
ROW 5F : ... .. . ... ... ... ... : ... .. . ... ... ... ... : ... .. . ... : ... .. . ... : ... .. . ...
ROW 60 : C-4 .. 1 V01 ... ... ... : ... .. . ... ... ... ... : --- .. . ... : ... .. . ... : ... .. . ...
ROW 61 : ... .. . V00 ... ... ... : ... .. . ... ... ... ... : ... .. . ... : ... .. . ... : ... .. . ...
ROW 62 : F-3 00 4 V01 ... ... ... : ... .. . ... ... ... P81 : C-3 00 . ... : 2-# 00 6 ... : ... .. . ...
ROW 63 : ... .. . V00 ... ... ... : ... .. . ... ... ... ... : ... .. . ... : ... .. . ... : ... .. . ...
ROW 64 : ... .. . ... ... ... ... : ... .. . ... ... ... ... : ... .. . ... : ... .. 5 ... : ... .. . ...
ROW 65 : ... .. . ... ... ... ... : ... .. . ... ... ... P80 : ... .. . ... : ... .. . ... : ... .. . ...
ROW 66 : ... .. . ... ... ... ... : ... .. . ... ... ... ... : ... .. . ... : ... .. 4 ... : ... .. . ...
ROW 67 : A-3 .. 1 V01 ... ... ... : ... .. . ... ... ... ... : --- .. . ... : ... .. . ... : ... .. . ...
ROW 68 : ... .. . V00 ... ... ... : ... .. 4 ... ... ... P7F : ... .. . ... : ... .. 3 ... : ... .. . ...
ROW 69 : C-3 00 4 V01 ... ... ... : ... .. . ... ... ... ... : A-2 00 . ... : ... .. . ... : ... .. . ...
ROW 6A : ... .. . V00 ... ... ... : ... .. 3 ... ... ... ... : ... .. . ... : ... .. 2 ... : ... .. . ...
ROW 6B : ... .. . ... ... ... ... : ... .. . ... ... ... P80 : ... .. . ... : ... .. . ... : ... .. . ...
ROW 6C : ... .. . ... ... ... ... : ... .. 2 ... ... ... ... : ... .. . ... : ... .. 1 ... : ... .. . ...
ROW 6D : ... .. . ... ... ... ... : ... .. . ... ... ... ... : ... .. . ... : ... .. . ... : ... .. . ...
ROW 6E : F-3 .. 1 V01 ... ... ... : ... .. 1 ... ... ... P81 : --- .. . ... : ... .. 0 ... : ... .. . ...
ROW 6F : ... .. . V00 ... ... ... : ... .. . ... ... ... ... : ... .. . ... : ... .. . ... : ... .. . ...
ROW 70 : B-2 00 4 V01 ... ... ... : D#4 00 7 V01 ... ... P80 : G-2 00 . ... : 2-# 00 6 ... : ... .. . ...
ROW 71 : ... .. . V00 ... ... ... : ... .. . ... ... ... ... : ... .. . ... : ... .. . ... : ... .. . ...
ROW 72 : ... .. . ... ... ... ... : ... .. 6 ... ... ... ... : ... .. . ... : ... .. 5 ... : ... .. . ...
ROW 73 : ... .. . ... ... ... ... : ... .. . ... ... ... ... : ... .. . ... : ... .. . ... : ... .. . ...
ROW 74 : ... .. . ... ... ... ... : ... .. 5 ... ... ... ... : ... .. . ... : ... .. 4 ... : ... .. . ...
ROW 75 : C-3 .. 1 V01 ... ... ... : ... .. . ... ... ... ... : --- .. . ... : ... .. . ... : ... .. . ...
ROW 76 : ... .. . V00 ... ... ... : ... .. . ... ... ... ... : ... .. . ... : ... .. 3 ... : ... .. . ...
ROW 77 : D-3 00 4 V01 ... ... ... : ... .. . ... ... ... ... : A-2 00 . ... : ... .. . ... : ... .. . ...
ROW 78 : ... .. . V00 ... ... ... : ... .. . ... ... ... ... : ... .. . ... : ... .. 2 ... : ... .. . ...
ROW 79 : ... .. . ... ... ... ... : ... .. . ... ... ... ... : ... .. . ... : ... .. . ... : ... .. . ...
ROW 7A : ... .. . ... ... ... ... : ... .. . ... ... ... ... : ... .. . ... : ... .. 1 ... : ... .. . ...
ROW 7B : ... .. . ... ... ... ... : ... .. . ... ... ... ... : ... .. . ... : ... .. . ... : ... .. . ...
ROW 7C : B-2 .. 1 V01 ... ... ... : ... .. . ... ... ... ... : --- .. . ... : ... .. 0 ... : ... .. . ...
ROW 7D : ... .. . V00 ... ... ... : ... .. . ... ... ... ... : ... .. . ... : ... .. . ... : ... .. . ...
ROW 7E : G-3 00 4 V01 ... ... ... : ... .. . ... ... ... P81 : B-2 00 . ... : ... .. . ... : ... .. . ...
ROW 7F : ... .. . V00 ... ... ... : ... .. . ... ... ... ... : ... .. . ... : ... .. . ... : ... .. . ...
ROW 80 : ... .. . ... ... ... ... : ... .. . ... ... ... ... : ... .. . ... : ... .. . ... : ... .. . ...
ROW 81 : ... .. . ... ... ... ... : ... .. . ... ... ... P80 : ... .. . ... : ... .. . ... : ... .. . ...
ROW 82 : ... .. . ... ... ... ... : ... .. . ... ... ... ... : ... .. . ... : ... .. . ... : ... .. . ...
ROW 83 : D-3 .. 1 V01 ... ... ... : ... .. . ... ... ... ... : --- .. . ... : ... .. . ... : ... .. . ...
ROW 84 : ... .. . V00 ... ... ... : ... .. 4 ... ... ... P7F : ... .. . ... : ... .. . ... : ... .. . ...
ROW 85 : A-3 00 4 V01 ... ... ... : ... .. . ... ... ... ... : D-3 00 . ... : ... .. . ... : ... .. . ...
ROW 86 : ... .. . V00 ... ... ... : ... .. 3 ... ... ... ... : ... .. . ... : ... .. . ... : ... .. . ...
ROW 87 : ... .. . ... ... ... ... : ... .. . ... ... ... P80 : ... .. . ... : ... .. . ... : ... .. . ...
ROW 88 : ... .. . ... ... ... ... : ... .. 2 ... ... ... ... : ... .. . ... : ... .. . ... : ... .. . ...
ROW 89 : ... .. . ... ... ... ... : ... .. . ... ... ... ... : ... .. . ... : ... .. . ... : ... .. . ...
ROW 8A : G-3 .. 1 V01 ... ... ... : ... .. 1 ... ... ... P81 : --- .. . ... : ... .. . ... : ... .. . ...
ROW 8B : ... .. . V00 ... ... ... : ... .. . ... ... ... ... : ... .. . ... : ... .. . ... : ... .. . ...
ROW 8C : B-3 00 4 V01 ... ... ... : D-4 00 7 V01 ... ... P80 : G-3 00 . ... : ... .. . ... : ... .. . ...
ROW 8D : ... .. . V00 ... ... ... : ... .. . ... ... ... ... : ... .. . ... : ... .. . ... : ... .. . ...
ROW 8E : ... .. . ... ... ... ... : ... .. 6 ... ... ... ... : ... .. . ... : ... .. . ... : ... .. . ...
ROW 8F : ... .. . ... ... ... ... : ... .. . ... ... ... ... : ... .. . ... : ... .. . ... : ... .. . ...
ROW 90 : ... .. . ... ... ... ... : ... .. 5 ... ... ... ... : ... .. . ... : ... .. . ... : ... .. . ...
ROW 91 : A-3 .. 1 V01 ... ... ... : ... .. . ... ... ... ... : --- .. . ... : ... .. . ... : ... .. . ...
ROW 92 : ... .. . V00 ... ... ... : ... .. . ... ... ... ... : ... .. . ... : ... .. . ... : ... .. . ...
ROW 93 : A-3 00 4 V01 ... ... ... : ... .. . ... ... ... ... : A-3 00 . ... : ... .. . ... : ... .. . ...
ROW 94 : ... .. . V00 ... ... ... : ... .. . ... ... ... ... : ... .. . ... : ... .. . ... : ... .. . ...
ROW 95 : ... .. . ... ... ... ... : ... .. . ... ... ... ... : ... .. . ... : ... .. . ... : ... .. . ...
ROW 96 : ... .. . ... ... ... ... : ... .. . ... ... ... ... : ... .. . ... : ... .. . ... : ... .. . ...
ROW 97 : ... .. . ... ... ... ... : ... .. . ... ... ... ... : ... .. . ... : ... .. . ... : ... .. . ...
ROW 98 : B-3 .. 1 V01 ... ... ... : ... .. . ... ... ... ... : --- .. . ... : ... .. . ... : ... .. . ...
ROW 99 : ... .. . V00 ... ... ... : ... .. . ... ... ... ... : ... .. . ... : ... .. . ... : ... .. . ...
ROW 9A : G-3 00 4 V01 ... ... ... : ... .. . ... ... ... P81 : B-3 00 . ... : ... .. . ... : ... .. . ...
ROW 9B : ... .. . V00 ... ... ... : ... .. . ... ... ... ... : ... .. . ... : ... .. . ... : ... .. . ...
ROW 9C : ... .. . ... ... ... ... : ... .. . ... ... ... ... : ... .. . ... : ... .. . ... : ... .. . ...
ROW 9D : ... .. . ... ... ... ... : ... .. . ... ... ... P80 : ... .. . ... : ... .. . ... : ... .. . ...
ROW 9E : ... .. . ... ... ... ... : ... .. . ... ... ... ... : ... .. . ... : ... .. . ... : ... .. . ...
ROW 9F : A-3 .. 1 V01 ... ... ... : ... .. . ... ... ... ... : --- .. . ... : ... .. . ... : ... .. . ...
ROW A0 : ... .. . V00 ... ... ... : ... .. 4 ... ... ... P7F : ... .. . ... : ... .. . ... : ... .. . ...
ROW A1 : D-3 00 4 V01 ... ... ... : ... .. . ... ... ... ... : D-4 00 . ... : ... .. . ... : ... .. . ...
ROW A2 : ... .. . V00 ... ... ... : ... .. 3 ... ... ... ... : ... .. . ... : ... .. . ... : ... .. . ...
ROW A3 : ... .. . ... ... ... ... : ... .. . ... ... ... P80 : ... .. . ... : ... .. . ... : ... .. . ...
ROW A4 : ... .. . ... ... ... ... : ... .. 2 ... ... ... ... : ... .. . ... : ... .. . ... : ... .. . ...
ROW A5 : ... .. . ... ... ... ... : ... .. . ... ... ... ... : ... .. . ... : ... .. . ... : ... .. . ...
ROW A6 : G-3 .. 1 V01 ... ... ... : ... .. 1 ... ... ... P81 : --- .. . ... : ... .. . ... : ... .. . ...
ROW A7 : ... .. . V00 ... ... ... : ... .. . ... ... ... ... : ... .. . ... : ... .. . ... : ... .. . ...
ROW A8 : G-3 00 4 V01 ... ... ... : C-4 00 7 V01 ... ... P80 : G-4 00 . ... : ... .. . ... : ... .. . ...
ROW A9 : ... .. . V00 ... ... ... : ... .. . ... ... ... ... : ... .. . ... : ... .. . ... : ... .. . ...
ROW AA : ... .. . ... ... ... ... : ... .. 6 ... ... ... ... : ... .. . ... : ... .. . ... : ... .. . ...
ROW AB : ... .. . ... ... ... ... : ... .. . ... ... ... ... : ... .. . ... : ... .. . ... : ... .. . ...
ROW AC : ... .. . ... ... ... ... : ... .. 5 ... ... ... ... : ... .. . ... : ... .. . ... : ... .. . ...
ROW AD : D-2 .. 1 V01 ... ... ... : ... .. . ... ... ... ... : ... .. . ... : ... .. . ... : ... .. . ...
ROW AE : ... .. . V00 ... ... ... : ... .. . ... ... ... ... : ... .. . ... : ... .. . ... : ... .. . ...
ROW AF : A-3 00 4 V01 ... ... ... : ... .. . ... ... ... ... : ... .. . ... : ... .. . ... : ... .. . ...
ROW B0 : ... .. . V00 ... ... ... : ... .. . ... ... ... ... : ... .. . ... : ... .. . ... : ... .. . ...
ROW B1 : ... .. . ... ... ... ... : ... .. . ... ... ... ... : ... .. . ... : ... .. . ... : ... .. . ...
ROW B2 : ... .. . ... ... ... ... : ... .. . ... ... ... ... : ... .. . ... : ... .. . ... : ... .. . ...
ROW B3 : ... .. . ... ... ... ... : ... .. . ... ... ... ... : ... .. . ... : ... .. . ... : ... .. . ...
ROW B4 : G-3 .. 1 V01 ... ... ... : ... .. . ... ... ... ... : ... .. . ... : ... .. . ... : ... .. . ...
ROW B5 : ... .. . V00 ... ... ... : ... .. . ... ... ... ... : ... .. . ... : ... .. . ... : ... .. . ...
ROW B6 : B-3 00 4 V01 ... ... ... : ... .. . ... ... ... P81 : ... .. . ... : ... .. . ... : ... .. . ...
ROW B7 : ... .. . V00 ... ... ... : ... .. . ... ... ... ... : ... .. . ... : ... .. . ... : ... .. . ...
ROW B8 : ... .. . ... ... ... ... : ... .. . ... ... ... ... : ... .. . ... : ... .. . ... : ... .. . ...
ROW B9 : ... .. . ... ... ... ... : ... .. . ... ... ... P80 : ... .. . ... : ... .. . ... : ... .. . ...
ROW BA : ... .. . ... ... ... ... : ... .. . ... ... ... ... : ... .. . ... : ... .. . ... : ... .. . ...
ROW BB : A-3 .. 1 V01 ... ... ... : ... .. . ... ... ... ... : ... .. . ... : ... .. . ... : ... .. . ...
ROW BC : ... .. . V00 ... ... ... : ... .. . ... ... ... P7F : ... .. . ... : ... .. . ... : ... .. . ...
ROW BD : D-4 00 4 V01 ... ... ... : D-4 00 . ... ... ... ... : ... .. . ... : ... .. . ... : ... .. . ...
ROW BE : ... .. . V00 ... ... ... : ... .. . ... ... ... ... : ... .. . ... : ... .. . ... : ... .. . ...
ROW BF : ... .. . ... ... ... ... : ... .. . ... ... ... P80 : ... .. . ... : ... .. . ... : ... .. . ...
ROW C0 : ... .. . ... ... ... ... : C-4 00 . ... ... ... ... : ... .. . ... : ... .. . ... : ... .. . ...
ROW C1 : ... .. . ... ... ... ... : ... .. . ... ... ... ... : ... .. . ... : ... .. . ... : ... .. . ...
ROW C2 : B-3 .. 1 V01 ... ... ... : ... .. . ... ... ... P81 : ... .. . ... : ... .. . ... : ... .. . ...
ROW C3 : ... .. . V00 ... ... ... : ... .. . ... ... ... ... : ... .. . ... : ... .. . ... : ... .. . ...
ROW C4 : F-4 00 4 V01 ... ... ... : B-3 00 7 V01 ... ... P80 : G-2 00 . ... : ... .. . ... : ... .. . ...
ROW C5 : ... .. . V00 ... ... ... : ... .. . ... ... ... ... : ... .. . ... : ... .. . ... : ... .. . ...
ROW C6 : ... .. . ... ... ... ... : ... .. 6 ... ... ... ... : ... .. . ... : ... .. . ... : ... .. . ...
ROW C7 : ... .. . ... ... ... ... : ... .. . ... ... ... ... : ... .. . ... : ... .. . ... : ... .. . ...
ROW C8 : ... .. . ... ... ... ... : ... .. 5 ... ... ... ... : ... .. . ... : ... .. . ... : ... .. . ...
ROW C9 : D-4 .. 1 V01 ... ... ... : ... .. . ... ... ... ... : ... .. . ... : ... .. . ... : ... .. . ...
ROW CA : ... .. . V00 ... ... ... : ... .. . ... ... ... ... : ... .. . ... : ... .. . ... : ... .. . ...
ROW CB : D-4 00 4 V01 ... ... ... : ... .. . ... ... ... ... : ... .. . ... : ... .. . ... : ... .. . ...
ROW CC : ... .. . V00 ... ... ... : ... .. . ... ... ... ... : ... .. . ... : ... .. . ... : ... .. . ...
ROW CD : ... .. . ... ... ... ... : ... .. . ... ... ... ... : ... .. . ... : ... .. . ... : ... .. . ...
ROW CE : ... .. . ... ... ... ... : ... .. . ... ... ... ... : ... .. . ... : ... .. . ... : ... .. . ...
ROW CF : ... .. . ... ... ... ... : ... .. . ... ... ... ... : ... .. . ... : ... .. . ... : ... .. . ...
ROW D0 : F-4 .. 1 V01 ... ... ... : ... .. . ... ... ... ... : ... .. . ... : ... .. . ... : ... .. . ...
ROW D1 : ... .. . V00 ... ... ... : ... .. . ... ... ... ... : ... .. . ... : ... .. . ... : ... .. . ...
ROW D2 : B-3 00 4 V01 ... ... ... : ... .. . ... ... ... P81 : ... .. . ... : ... .. . ... : ... .. . ...
ROW D3 : ... .. . V00 ... ... ... : ... .. . ... ... ... ... : ... .. . ... : ... .. . ... : ... .. . ...
ROW D4 : ... .. . ... ... ... ... : ... .. . ... ... ... ... : ... .. . ... : ... .. . ... : ... .. . ...
ROW D5 : ... .. . ... ... ... ... : ... .. . ... ... ... P80 : ... .. . ... : ... .. . ... : ... .. . ...
ROW D6 : ... .. . ... ... ... ... : ... .. . ... ... ... ... : ... .. . ... : ... .. . ... : ... .. . ...
ROW D7 : D-4 .. 1 V01 ... ... ... : ... .. . ... ... ... ... : ... .. . ... : ... .. . ... : ... .. . ...
ROW D8 : ... .. . V00 ... ... ... : ... .. 4 ... ... ... P7F : ... .. . ... : ... .. . ... : ... .. . ...
ROW D9 : G-3 00 4 V01 ... ... ... : ... .. . ... ... ... ... : ... .. . ... : ... .. . ... : ... .. . ...
ROW DA : ... .. . V00 ... ... ... : ... .. 3 ... ... ... ... : ... .. . ... : ... .. . ... : ... .. . ...
ROW DB : ... .. . ... ... ... ... : ... .. . ... ... ... P80 : ... .. . ... : ... .. . ... : ... .. . ...
ROW DC : ... .. . ... ... ... ... : ... .. 2 ... ... ... ... : ... .. . ... : ... .. . ... : ... .. . ...
ROW DD : ... .. . ... ... ... ... : ... .. . ... ... ... ... : ... .. . ... : ... .. . ... : ... .. . ...
ROW DE : B-3 .. 1 V01 ... ... ... : ... .. 1 ... ... ... P81 : ... .. . ... : ... .. . ... : ... .. . ...
ROW DF : ... .. . V00 ... ... ... : ... .. . ... ... ... ... : ... .. . ... : ... .. . ... : ... .. . ...

PATTERN 0F
ROW 00 : E-4 00 5 V00 ... ... ... : ... .. . ... ... ... ... : C-3 00 . ... : ... .. . ... : ... .. . ...
ROW 01 : ... .. . ... ... ... ... : D-4 00 5 V00 ... ... ... : ... .. . ... : ... .. . ... : ... .. . ...
ROW 02 : ... .. 4 ... ... ... ... : ... .. . ... ... ... ... : ... .. . ... : ... .. . ... : ... .. . ...
ROW 03 : ... .. . ... ... ... ... : ... .. 4 ... ... ... ... : ... .. . ... : ... .. . ... : ... .. . ...
ROW 04 : ... .. 3 ... ... ... ... : ... .. . ... ... ... ... : ... .. . ... : ... .. . ... : ... .. . ...
ROW 05 : ... .. . ... ... ... ... : ... .. 3 ... ... ... ... : ... .. . ... : ... .. . ... : ... .. . ...
ROW 06 : ... .. 2 ... ... ... ... : ... .. . ... ... ... ... : ... .. . ... : ... .. . ... : ... .. . ...
ROW 07 : ... .. . ... ... ... ... : ... .. 2 ... ... ... ... : ... .. . ... : ... .. . ... : ... .. . ...
ROW 08 : ... .. 1 ... ... ... ... : ... .. . ... ... ... ... : ... .. . ... : ... .. . ... : ... .. . ...
ROW 09 : ... .. . ... ... ... ... : ... .. 1 ... ... ... ... : ... .. . ... : ... .. . ... : ... .. . ...
ROW 0A : ... .. . ... ... ... ... : ... .. . ... ... ... ... : ... .. . ... : ... .. . ... : ... .. . ...
ROW 0B : ... .. . ... ... ... ... : ... .. . ... ... ... ... : ... .. . ... : ... .. . ... : ... .. . ...
ROW 0C : ... .. . ... ... ... ... : ... .. . ... ... ... ... : ... .. . ... : ... .. . ... : ... .. . ...
ROW 0D : ... .. . ... ... ... ... : ... .. . ... ... ... ... : ... .. . ... : ... .. . ... : ... .. . ...
ROW 0E : E-4 00 5 ... ... ... ... : ... .. . ... ... ... ... : ... .. . ... : ... .. . ... : ... .. . ...
ROW 0F : ... .. . ... ... ... ... : D-4 00 5 ... ... ... ... : ... .. . ... : ... .. . ... : ... .. . ...
ROW 10 : ... .. 4 ... ... ... ... : ... .. . ... ... ... ... : ... .. . ... : ... .. . ... : ... .. . ...
ROW 11 : ... .. . ... ... ... ... : ... .. 4 ... ... ... ... : ... .. . ... : ... .. . ... : ... .. . ...
ROW 12 : ... .. 3 ... ... ... ... : ... .. . ... ... ... ... : ... .. . ... : ... .. . ... : ... .. . ...
ROW 13 : ... .. . ... ... ... ... : ... .. 3 ... ... ... ... : ... .. . ... : ... .. . ... : ... .. . ...
ROW 14 : ... .. 2 ... ... ... ... : ... .. . ... ... ... ... : ... .. . ... : ... .. . ... : ... .. . ...
ROW 15 : ... .. . ... ... ... ... : ... .. 2 ... ... ... ... : ... .. . ... : ... .. . ... : ... .. . ...
ROW 16 : ... .. 1 ... ... ... ... : ... .. . ... ... ... ... : ... .. . ... : ... .. . ... : ... .. . ...
ROW 17 : ... .. . ... ... ... ... : ... .. 1 ... ... ... ... : ... .. . ... : ... .. . ... : ... .. . ...
ROW 18 : ... .. . ... ... ... ... : ... .. . ... ... ... ... : ... .. . ... : ... .. . ... : ... .. . ...
ROW 19 : ... .. . ... ... ... ... : ... .. . ... ... ... ... : ... .. . ... : ... .. . ... : ... .. . ...
ROW 1A : ... .. . ... ... ... ... : ... .. . ... ... ... ... : ... .. . ... : ... .. . ... : ... .. . ...
ROW 1B : ... .. . ... ... ... ... : ... .. . ... ... ... ... : ... .. . ... : ... .. . ... : ... .. . ...
ROW 1C : E-4 00 5 ... ... ... ... : ... .. . ... ... ... ... : ... .. . ... : F-# 00 5 V01 : ... .. . ...
ROW 1D : ... .. . ... ... ... ... : D-4 00 5 ... ... ... ... : ... .. . ... : ... .. 4 ... : ... .. . ...
ROW 1E : ... .. 4 ... ... ... ... : ... .. . ... ... ... ... : ... .. . ... : ... .. 3 ... : ... .. . ...
ROW 1F : ... .. . ... ... ... ... : ... .. 4 ... ... ... ... : ... .. . ... : ... .. 2 ... : ... .. . ...
ROW 20 : ... .. 3 ... ... ... ... : ... .. . ... ... ... ... : ... .. . ... : ... .. 1 ... : ... .. . ...
ROW 21 : ... .. . ... ... ... ... : ... .. 3 ... ... ... ... : ... .. . ... : ... .. 0 ... : ... .. . ...
ROW 22 : ... .. 2 ... ... ... ... : ... .. . ... ... ... ... : ... .. . ... : ... .. . ... : ... .. . ...
ROW 23 : ... .. . ... ... ... ... : ... .. 2 ... ... ... ... : ... .. . ... : ... .. . ... : ... .. . ...
ROW 24 : ... .. 1 ... ... ... ... : ... .. . ... ... ... ... : ... .. . ... : ... .. . ... : ... .. . ...
ROW 25 : ... .. . ... ... ... ... : ... .. 1 ... ... ... ... : ... .. . ... : ... .. . ... : ... .. . ...
ROW 26 : ... .. . ... ... ... ... : ... .. . ... ... ... ... : ... .. . ... : ... .. . ... : ... .. . ...
ROW 27 : ... .. . ... ... ... ... : ... .. . ... ... ... ... : ... .. . ... : ... .. . ... : ... .. . ...
ROW 28 : ... .. . ... ... ... ... : ... .. . ... ... ... ... : ... .. . ... : ... .. . ... : ... .. . ...
ROW 29 : ... .. . ... ... ... ... : ... .. . ... ... ... ... : ... .. . ... : ... .. . ... : ... .. . ...
ROW 2A : E-4 00 5 ... ... ... ... : ... .. . ... ... ... ... : F-3 00 . ... : ... .. . ... : ... .. . ...
ROW 2B : ... .. . ... ... ... ... : D-4 00 5 ... ... ... ... : F#3 00 . ... : ... .. . ... : ... .. . ...
ROW 2C : ... .. 4 ... ... ... ... : ... .. . ... ... ... ... : G-3 00 . ... : ... .. . ... : ... .. . ...
ROW 2D : ... .. . ... ... ... ... : ... .. 4 ... ... ... ... : G#3 00 . ... : ... .. . ... : ... .. . ...
ROW 2E : ... .. 3 ... ... ... ... : ... .. . ... ... ... ... : A-3 00 . ... : ... .. . ... : ... .. . ...
ROW 2F : ... .. . ... ... ... ... : ... .. 3 ... ... ... ... : ... .. . ... : ... .. . ... : ... .. . ...
ROW 30 : ... .. 2 ... ... ... ... : ... .. . ... ... ... ... : ... .. . ... : ... .. . ... : ... .. . ...
ROW 31 : ... .. . ... ... ... ... : ... .. 2 ... ... ... ... : ... .. . ... : ... .. . ... : ... .. . ...
ROW 32 : ... .. 1 ... ... ... ... : ... .. . ... ... ... ... : ... .. . ... : ... .. . ... : ... .. . ...
ROW 33 : ... .. . ... ... ... ... : ... .. 1 ... ... ... ... : ... .. . ... : ... .. . ... : ... .. . ...
ROW 34 : ... .. . ... ... ... ... : ... .. . ... ... ... ... : ... .. . ... : ... .. . ... : ... .. . ...
ROW 35 : ... .. . ... ... ... ... : ... .. . ... ... ... ... : ... .. . ... : ... .. . ... : ... .. . ...
ROW 36 : ... .. . ... ... ... ... : ... .. . ... ... ... ... : ... .. . ... : ... .. . ... : ... .. . ...
ROW 37 : ... .. . ... ... ... ... : ... .. . ... ... ... ... : ... .. . ... : ... .. . ... : ... .. . ...
ROW 38 : E-4 00 5 ... ... ... ... : ... .. . ... ... ... ... : G-3 00 . ... : ... .. . ... : ... .. . ...
ROW 39 : ... .. . ... ... ... ... : D-4 00 5 ... ... ... ... : ... .. . ... : ... .. . ... : ... .. . ...
ROW 3A : ... .. 4 ... ... ... ... : ... .. . ... ... ... ... : ... .. . ... : ... .. . ... : ... .. . ...
ROW 3B : ... .. . ... ... ... ... : ... .. 4 ... ... ... ... : ... .. . ... : ... .. . ... : ... .. . ...
ROW 3C : ... .. 3 ... ... ... ... : ... .. . ... ... ... ... : ... .. . ... : ... .. . ... : ... .. . ...
ROW 3D : ... .. . ... ... ... ... : ... .. 3 ... ... ... ... : ... .. . ... : ... .. . ... : ... .. . ...
ROW 3E : ... .. 2 ... ... ... ... : ... .. . ... ... ... ... : ... .. . ... : ... .. . ... : ... .. . ...
ROW 3F : ... .. . ... ... ... ... : ... .. 2 ... ... ... ... : ... .. . ... : ... .. . ... : ... .. . ...
ROW 40 : ... .. 1 ... ... ... ... : ... .. . ... ... ... ... : ... .. . ... : ... .. . ... : ... .. . ...
ROW 41 : ... .. . ... ... ... ... : ... .. 1 ... ... ... ... : ... .. . ... : ... .. . ... : ... .. . ...
ROW 42 : ... .. . ... ... ... ... : ... .. . ... ... ... ... : ... .. . ... : ... .. . ... : ... .. . ...
ROW 43 : ... .. . ... ... ... ... : ... .. . ... ... ... ... : ... .. . ... : ... .. . ... : ... .. . ...
ROW 44 : ... .. . ... ... ... ... : ... .. . ... ... ... ... : ... .. . ... : ... .. . ... : ... .. . ...
ROW 45 : ... .. . ... ... ... ... : ... .. . ... ... ... ... : ... .. . ... : ... .. . ... : ... .. . ...
ROW 46 : E-4 00 5 ... ... ... ... : ... .. . ... ... ... ... : ... .. . ... : ... .. . ... : ... .. . ...
ROW 47 : ... .. . ... ... ... ... : D-4 00 5 ... ... ... ... : ... .. . ... : ... .. . ... : ... .. . ...
ROW 48 : ... .. 4 ... ... ... ... : ... .. . ... ... ... ... : ... .. . ... : ... .. . ... : ... .. . ...
ROW 49 : ... .. . ... ... ... ... : ... .. 4 ... ... ... ... : ... .. . ... : ... .. . ... : ... .. . ...
ROW 4A : ... .. 3 ... ... ... ... : ... .. . ... ... ... ... : ... .. . ... : ... .. . ... : ... .. . ...
ROW 4B : ... .. . ... ... ... ... : ... .. 3 ... ... ... ... : ... .. . ... : ... .. . ... : ... .. . ...
ROW 4C : ... .. 2 ... ... ... ... : ... .. . ... ... ... ... : ... .. . ... : ... .. . ... : ... .. . ...
ROW 4D : ... .. . ... ... ... ... : ... .. 2 ... ... ... ... : ... .. . ... : ... .. . ... : ... .. . ...
ROW 4E : ... .. 1 ... ... ... ... : ... .. . ... ... ... ... : ... .. . ... : ... .. . ... : ... .. . ...
ROW 4F : ... .. . ... ... ... ... : ... .. 1 ... ... ... ... : ... .. . ... : ... .. . ... : ... .. . ...
ROW 50 : ... .. . ... ... ... ... : ... .. . ... ... ... ... : ... .. . ... : ... .. . ... : ... .. . ...
ROW 51 : ... .. . ... ... ... ... : ... .. . ... ... ... ... : ... .. . ... : ... .. . ... : ... .. . ...
ROW 52 : ... .. . ... ... ... ... : ... .. . ... ... ... ... : ... .. . ... : ... .. . ... : ... .. . ...
ROW 53 : ... .. . ... ... ... ... : ... .. . ... ... ... ... : ... .. . ... : ... .. . ... : ... .. . ...
ROW 54 : E-4 00 5 ... ... ... ... : ... .. . ... ... ... ... : ... .. . ... : F-# 00 5 V01 : ... .. . ...
ROW 55 : ... .. . ... ... ... ... : D-4 00 5 ... ... ... ... : ... .. . ... : ... .. 4 ... : ... .. . ...
ROW 56 : ... .. 4 ... ... ... ... : ... .. . ... ... ... ... : ... .. . ... : ... .. 3 ... : ... .. . ...
ROW 57 : ... .. . ... ... ... ... : ... .. 4 ... ... ... ... : ... .. . ... : ... .. 2 ... : ... .. . ...
ROW 58 : ... .. 3 ... ... ... ... : ... .. . ... ... ... ... : ... .. . ... : ... .. 1 ... : ... .. . ...
ROW 59 : ... .. . ... ... ... ... : ... .. 3 ... ... ... ... : ... .. . ... : ... .. 0 ... : ... .. . ...
ROW 5A : ... .. 2 ... ... ... ... : ... .. . ... ... ... ... : ... .. . ... : ... .. . ... : ... .. . ...
ROW 5B : ... .. . ... ... ... ... : ... .. 2 ... ... ... ... : ... .. . ... : ... .. . ... : ... .. . ...
ROW 5C : ... .. 1 ... ... ... ... : ... .. . ... ... ... ... : ... .. . ... : ... .. . ... : ... .. . ...
ROW 5D : ... .. . ... ... ... ... : ... .. 1 ... ... ... ... : ... .. . ... : ... .. . ... : ... .. . ...
ROW 5E : ... .. . ... ... ... ... : ... .. . ... ... ... ... : ... .. . ... : ... .. . ... : ... .. . ...
ROW 5F : ... .. . ... ... ... ... : ... .. . ... ... ... ... : ... .. . ... : ... .. . ... : ... .. . ...
ROW 60 : ... .. . ... ... ... ... : ... .. . ... ... ... ... : ... .. . ... : ... .. . ... : ... .. . ...
ROW 61 : ... .. . ... ... ... ... : ... .. . ... ... ... ... : ... .. . ... : ... .. . ... : ... .. . ...
ROW 62 : E-4 00 5 ... ... ... ... : ... .. . ... ... ... ... : F#3 00 . ... : ... .. . ... : ... .. . ...
ROW 63 : ... .. . ... ... ... ... : D-4 00 5 ... ... ... ... : ... .. . ... : ... .. . ... : ... .. . ...
ROW 64 : ... .. 4 ... ... ... ... : ... .. . ... ... ... ... : ... .. . ... : ... .. . ... : ... .. . ...
ROW 65 : ... .. . ... ... ... ... : ... .. 4 ... ... ... ... : ... .. . ... : ... .. . ... : ... .. . ...
ROW 66 : ... .. 3 ... ... ... ... : ... .. . ... ... ... ... : ... .. . ... : ... .. . ... : ... .. . ...
ROW 67 : ... .. . ... ... ... ... : ... .. 3 ... ... ... ... : ... .. . ... : ... .. . ... : ... .. . ...
ROW 68 : ... .. 2 ... ... ... ... : ... .. . ... ... ... ... : ... .. . ... : ... .. . ... : ... .. . ...
ROW 69 : ... .. . ... ... ... ... : ... .. 2 ... ... ... ... : ... .. . ... : ... .. . ... : ... .. . ...
ROW 6A : ... .. 1 ... ... ... ... : ... .. . ... ... ... ... : ... .. . ... : ... .. . ... : ... .. . ...
ROW 6B : ... .. . ... ... ... ... : ... .. 1 ... ... ... ... : ... .. . ... : ... .. . ... : ... .. . ...
ROW 6C : ... .. . ... ... ... ... : ... .. . ... ... ... ... : ... .. . ... : ... .. . ... : ... .. . ...
ROW 6D : ... .. . ... ... ... ... : ... .. . ... ... ... ... : ... .. . ... : ... .. . ... : ... .. . ...
ROW 6E : ... .. . ... ... ... ... : ... .. . ... ... ... ... : ... .. . ... : ... .. . ... : ... .. . ...
ROW 6F : ... .. . ... ... ... ... : ... .. . ... ... ... ... : ... .. . ... : ... .. . ... : ... .. . ...
ROW 70 : F-4 00 5 V00 ... ... ... : ... .. . ... ... ... ... : G-3 00 . ... : ... .. . ... : ... .. . ...
ROW 71 : ... .. . ... ... ... ... : C-4 00 5 V00 ... ... ... : ... .. . ... : ... .. . ... : ... .. . ...
ROW 72 : ... .. 4 ... ... ... ... : ... .. . ... ... ... ... : ... .. . ... : ... .. . ... : ... .. . ...
ROW 73 : ... .. . ... ... ... ... : ... .. 4 ... ... ... ... : ... .. . ... : ... .. . ... : ... .. . ...
ROW 74 : ... .. 3 ... ... ... ... : ... .. . ... ... ... ... : ... .. . ... : ... .. . ... : ... .. . ...
ROW 75 : ... .. . ... ... ... ... : ... .. 3 ... ... ... ... : ... .. . ... : ... .. . ... : ... .. . ...
ROW 76 : ... .. 2 ... ... ... ... : ... .. . ... ... ... ... : ... .. . ... : ... .. . ... : ... .. . ...
ROW 77 : ... .. . ... ... ... ... : ... .. 2 ... ... ... ... : ... .. . ... : ... .. . ... : ... .. . ...
ROW 78 : ... .. 1 ... ... ... ... : ... .. . ... ... ... ... : ... .. . ... : ... .. . ... : ... .. . ...
ROW 79 : ... .. . ... ... ... ... : ... .. 1 ... ... ... ... : ... .. . ... : ... .. . ... : ... .. . ...
ROW 7A : ... .. . ... ... ... ... : ... .. . ... ... ... ... : ... .. . ... : ... .. . ... : ... .. . ...
ROW 7B : ... .. . ... ... ... ... : ... .. . ... ... ... ... : ... .. . ... : ... .. . ... : ... .. . ...
ROW 7C : ... .. . ... ... ... ... : ... .. . ... ... ... ... : ... .. . ... : ... .. . ... : ... .. . ...
ROW 7D : ... .. . ... ... ... ... : ... .. . ... ... ... ... : ... .. . ... : ... .. . ... : ... .. . ...
ROW 7E : F-4 00 5 ... ... ... ... : ... .. . ... ... ... ... : ... .. . ... : ... .. . ... : ... .. . ...
ROW 7F : ... .. . ... ... ... ... : C-4 00 5 ... ... ... ... : ... .. . ... : ... .. . ... : ... .. . ...
ROW 80 : ... .. 4 ... ... ... ... : ... .. . ... ... ... ... : ... .. . ... : ... .. . ... : ... .. . ...
ROW 81 : ... .. . ... ... ... ... : ... .. 4 ... ... ... ... : ... .. . ... : ... .. . ... : ... .. . ...
ROW 82 : ... .. 3 ... ... ... ... : ... .. . ... ... ... ... : ... .. . ... : ... .. . ... : ... .. . ...
ROW 83 : ... .. . ... ... ... ... : ... .. 3 ... ... ... ... : ... .. . ... : ... .. . ... : ... .. . ...
ROW 84 : ... .. 2 ... ... ... ... : ... .. . ... ... ... ... : ... .. . ... : ... .. . ... : ... .. . ...
ROW 85 : ... .. . ... ... ... ... : ... .. 2 ... ... ... ... : ... .. . ... : ... .. . ... : ... .. . ...
ROW 86 : ... .. 1 ... ... ... ... : ... .. . ... ... ... ... : ... .. . ... : ... .. . ... : ... .. . ...
ROW 87 : ... .. . ... ... ... ... : ... .. 1 ... ... ... ... : ... .. . ... : ... .. . ... : ... .. . ...
ROW 88 : ... .. . ... ... ... ... : ... .. . ... ... ... ... : ... .. . ... : ... .. . ... : ... .. . ...
ROW 89 : ... .. . ... ... ... ... : ... .. . ... ... ... ... : ... .. . ... : ... .. . ... : ... .. . ...
ROW 8A : ... .. . ... ... ... ... : ... .. . ... ... ... ... : ... .. . ... : ... .. . ... : ... .. . ...
ROW 8B : ... .. . ... ... ... ... : ... .. . ... ... ... ... : ... .. . ... : ... .. . ... : ... .. . ...
ROW 8C : F-4 00 5 ... ... ... ... : ... .. . ... ... ... ... : ... .. . ... : F-# 00 5 V01 : ... .. . ...
ROW 8D : ... .. . ... ... ... ... : C-4 00 5 ... ... ... ... : ... .. . ... : ... .. 4 ... : ... .. . ...
ROW 8E : ... .. 4 ... ... ... ... : ... .. . ... ... ... ... : ... .. . ... : ... .. 3 ... : ... .. . ...
ROW 8F : ... .. . ... ... ... ... : ... .. 4 ... ... ... ... : ... .. . ... : ... .. 2 ... : ... .. . ...
ROW 90 : ... .. 3 ... ... ... ... : ... .. . ... ... ... ... : ... .. . ... : ... .. 1 ... : ... .. . ...
ROW 91 : ... .. . ... ... ... ... : ... .. 3 ... ... ... ... : ... .. . ... : ... .. 0 ... : ... .. . ...
ROW 92 : ... .. 2 ... ... ... ... : ... .. . ... ... ... ... : ... .. . ... : ... .. . ... : ... .. . ...
ROW 93 : ... .. . ... ... ... ... : ... .. 2 ... ... ... ... : ... .. . ... : ... .. . ... : ... .. . ...
ROW 94 : ... .. 1 ... ... ... ... : ... .. . ... ... ... ... : ... .. . ... : ... .. . ... : ... .. . ...
ROW 95 : ... .. . ... ... ... ... : ... .. 1 ... ... ... ... : ... .. . ... : ... .. . ... : ... .. . ...
ROW 96 : ... .. . ... ... ... ... : ... .. . ... ... ... ... : ... .. . ... : ... .. . ... : ... .. . ...
ROW 97 : ... .. . ... ... ... ... : ... .. . ... ... ... ... : ... .. . ... : ... .. . ... : ... .. . ...
ROW 98 : ... .. . ... ... ... ... : ... .. . ... ... ... ... : ... .. . ... : ... .. . ... : ... .. . ...
ROW 99 : ... .. . ... ... ... ... : ... .. . ... ... ... ... : ... .. . ... : ... .. . ... : ... .. . ...
ROW 9A : F-4 00 5 ... ... ... ... : ... .. . ... ... ... ... : ... .. . ... : ... .. . ... : ... .. . ...
ROW 9B : ... .. . ... ... ... ... : C-4 00 5 ... ... ... ... : ... .. . ... : ... .. . ... : ... .. . ...
ROW 9C : ... .. 4 ... ... ... ... : ... .. . ... ... ... ... : ... .. . ... : ... .. . ... : ... .. . ...
ROW 9D : ... .. . ... ... ... ... : ... .. 4 ... ... ... ... : ... .. . ... : ... .. . ... : ... .. . ...
ROW 9E : ... .. 3 ... ... ... ... : ... .. . ... ... ... ... : ... .. . ... : ... .. . ... : ... .. . ...
ROW 9F : ... .. . ... ... ... ... : ... .. 3 ... ... ... ... : ... .. . ... : ... .. . ... : ... .. . ...
ROW A0 : ... .. 2 ... ... ... ... : ... .. . ... ... ... ... : ... .. . ... : ... .. . ... : ... .. . ...
ROW A1 : ... .. . ... ... ... ... : ... .. 2 ... ... ... ... : ... .. . ... : ... .. . ... : ... .. . ...
ROW A2 : ... .. 1 ... ... ... ... : ... .. . ... ... ... ... : ... .. . ... : ... .. . ... : ... .. . ...
ROW A3 : ... .. . ... ... ... ... : ... .. 1 ... ... ... ... : ... .. . ... : ... .. . ... : ... .. . ...
ROW A4 : ... .. . ... ... ... ... : ... .. . ... ... ... ... : ... .. . ... : ... .. . ... : ... .. . ...
ROW A5 : ... .. . ... ... ... ... : ... .. . ... ... ... ... : ... .. . ... : ... .. . ... : ... .. . ...
ROW A6 : ... .. . ... ... ... ... : ... .. . ... ... ... ... : ... .. . ... : ... .. . ... : ... .. . ...
ROW A7 : ... .. . ... ... ... ... : ... .. . ... ... ... ... : ... .. . ... : ... .. . ... : ... .. . ...
ROW A8 : F-4 00 5 ... ... ... ... : ... .. . ... ... ... ... : D-3 00 . ... : ... .. . ... : ... .. . ...
ROW A9 : ... .. . ... ... ... ... : B-3 00 5 ... ... ... ... : ... .. . ... : ... .. . ... : ... .. . ...
ROW AA : ... .. 4 ... ... ... ... : ... .. . ... ... ... ... : ... .. . ... : ... .. . ... : ... .. . ...
ROW AB : ... .. . ... ... ... ... : ... .. 4 ... ... ... ... : ... .. . ... : ... .. . ... : ... .. . ...
ROW AC : ... .. 3 ... ... ... ... : ... .. . ... ... ... ... : ... .. . ... : ... .. . ... : ... .. . ...
ROW AD : ... .. . ... ... ... ... : ... .. 3 ... ... ... ... : ... .. . ... : ... .. . ... : ... .. . ...
ROW AE : ... .. 2 ... ... ... ... : ... .. . ... ... ... ... : ... .. . ... : ... .. . ... : ... .. . ...
ROW AF : ... .. . ... ... ... ... : ... .. 2 ... ... ... ... : ... .. . ... : ... .. . ... : ... .. . ...
ROW B0 : ... .. 1 ... ... ... ... : ... .. . ... ... ... ... : ... .. . ... : ... .. . ... : ... .. . ...
ROW B1 : ... .. . ... ... ... ... : ... .. 1 ... ... ... ... : ... .. . ... : ... .. . ... : ... .. . ...
ROW B2 : ... .. . ... ... ... ... : ... .. . ... ... ... ... : ... .. . ... : ... .. . ... : ... .. . ...
ROW B3 : ... .. . ... ... ... ... : ... .. . ... ... ... ... : ... .. . ... : ... .. . ... : ... .. . ...
ROW B4 : ... .. . ... ... ... ... : ... .. . ... ... ... ... : ... .. . ... : ... .. . ... : ... .. . ...
ROW B5 : ... .. . ... ... ... ... : ... .. . ... ... ... ... : ... .. . ... : ... .. . ... : ... .. . ...
ROW B6 : F-4 00 5 ... ... ... ... : ... .. . ... ... ... ... : ... .. . ... : ... .. . ... : ... .. . ...
ROW B7 : ... .. . ... ... ... ... : B-3 00 5 ... ... ... ... : ... .. . ... : ... .. . ... : ... .. . ...
ROW B8 : ... .. 4 ... ... ... ... : ... .. . ... ... ... ... : ... .. . ... : ... .. . ... : ... .. . ...
ROW B9 : ... .. . ... ... ... ... : ... .. 4 ... ... ... ... : ... .. . ... : ... .. . ... : ... .. . ...
ROW BA : ... .. 3 ... ... ... ... : ... .. . ... ... ... ... : ... .. . ... : ... .. . ... : ... .. . ...
ROW BB : ... .. . ... ... ... ... : ... .. 3 ... ... ... ... : ... .. . ... : ... .. . ... : ... .. . ...
ROW BC : ... .. 2 ... ... ... ... : ... .. . ... ... ... ... : ... .. . ... : ... .. . ... : ... .. . ...
ROW BD : ... .. . ... ... ... ... : ... .. 2 ... ... ... ... : ... .. . ... : ... .. . ... : ... .. . ...
ROW BE : ... .. 1 ... ... ... ... : ... .. . ... ... ... ... : ... .. . ... : ... .. . ... : ... .. . ...
ROW BF : ... .. . ... ... ... ... : ... .. 1 ... ... ... ... : ... .. . ... : ... .. . ... : ... .. . ...
ROW C0 : ... .. . ... ... ... ... : ... .. . ... ... ... ... : ... .. . ... : ... .. . ... : ... .. . ...
ROW C1 : ... .. . ... ... ... ... : ... .. . ... ... ... ... : ... .. . ... : ... .. . ... : ... .. . ...
ROW C2 : ... .. . ... ... ... ... : ... .. . ... ... ... ... : ... .. . ... : ... .. . ... : ... .. . ...
ROW C3 : ... .. . ... ... ... ... : ... .. . ... ... ... ... : ... .. . ... : ... .. . ... : ... .. . ...
ROW C4 : F-4 00 5 ... ... ... ... : ... .. . ... ... ... ... : ... .. . ... : F-# 00 5 V01 : ... .. . ...
ROW C5 : ... .. . ... ... ... ... : B-3 00 5 ... ... ... ... : ... .. . ... : ... .. 4 ... : ... .. . ...
ROW C6 : ... .. 4 ... ... ... ... : ... .. . ... ... ... ... : ... .. . ... : ... .. 3 ... : ... .. . ...
ROW C7 : ... .. . ... ... ... ... : ... .. 4 ... ... ... ... : ... .. . ... : ... .. 2 ... : ... .. . ...
ROW C8 : ... .. 3 ... ... ... ... : ... .. . ... ... ... ... : ... .. . ... : ... .. 1 ... : ... .. . ...
ROW C9 : ... .. . ... ... ... ... : ... .. 3 ... ... ... ... : ... .. . ... : ... .. 0 ... : ... .. . ...
ROW CA : ... .. 2 ... ... ... ... : ... .. . ... ... ... ... : ... .. . ... : ... .. . ... : ... .. . ...
ROW CB : ... .. . ... ... ... ... : ... .. 2 ... ... ... ... : ... .. . ... : ... .. . ... : ... .. . ...
ROW CC : ... .. 1 ... ... ... ... : ... .. . ... ... ... ... : ... .. . ... : ... .. . ... : ... .. . ...
ROW CD : ... .. . ... ... ... ... : ... .. 1 ... ... ... ... : ... .. . ... : ... .. . ... : ... .. . ...
ROW CE : ... .. . ... ... ... ... : ... .. . ... ... ... ... : ... .. . ... : ... .. . ... : ... .. . ...
ROW CF : ... .. . ... ... ... ... : ... .. . ... ... ... ... : ... .. . ... : ... .. . ... : ... .. . ...
ROW D0 : ... .. . ... ... ... ... : ... .. . ... ... ... ... : ... .. . ... : ... .. . ... : ... .. . ...
ROW D1 : ... .. . ... ... ... ... : ... .. . ... ... ... ... : ... .. . ... : ... .. . ... : ... .. . ...
ROW D2 : F-4 00 5 ... ... ... ... : ... .. . ... ... ... ... : ... .. . ... : ... .. . ... : ... .. . ...
ROW D3 : ... .. . ... ... ... ... : B-3 00 5 ... ... ... ... : ... .. . ... : ... .. . ... : ... .. . ...
ROW D4 : ... .. 4 ... ... ... ... : ... .. . ... ... ... ... : ... .. . ... : ... .. . ... : ... .. . ...
ROW D5 : ... .. . ... ... ... ... : ... .. 4 ... ... ... ... : ... .. . ... : ... .. . ... : ... .. . ...
ROW D6 : ... .. 3 ... ... ... ... : ... .. . ... ... ... ... : ... .. . ... : ... .. . ... : ... .. . ...
ROW D7 : ... .. . ... ... ... ... : ... .. 3 ... ... ... ... : ... .. . ... : ... .. . ... : ... .. . ...
ROW D8 : ... .. 2 ... ... ... ... : ... .. . ... ... ... ... : ... .. . ... : ... .. . ... : ... .. . ...
ROW D9 : ... .. . ... ... ... ... : ... .. 2 ... ... ... ... : ... .. . ... : ... .. . ... : ... .. . ...
ROW DA : ... .. 1 ... ... ... ... : ... .. . ... ... ... ... : ... .. . ... : ... .. . ... : ... .. . ...
ROW DB : ... .. . ... ... ... ... : ... .. 1 ... ... ... ... : ... .. . ... : ... .. . ... : ... .. . ...
ROW DC : ... .. . ... ... ... ... : ... .. . ... ... ... ... : ... .. . ... : ... .. . ... : ... .. . ...
ROW DD : ... .. . ... ... ... ... : ... .. . ... ... ... ... : ... .. . ... : ... .. . ... : ... .. . ...
ROW DE : ... .. . ... ... ... ... : ... .. . ... ... ... ... : ... .. . ... : ... .. . ... : ... .. . ...
ROW DF : ... .. . ... ... ... ... : ... .. . ... ... ... ... : ... .. . ... : ... .. . ... : ... .. . ...

PATTERN 10
ROW 00 : E-4 00 5 V00 ... ... ... : ... .. . ... ... ... ... : C-3 00 . ... : ... .. . ... : ... .. . ...
ROW 01 : ... .. . ... ... ... ... : D-4 00 5 V00 ... ... ... : ... .. . ... : ... .. . ... : ... .. . ...
ROW 02 : ... .. 4 ... ... ... ... : ... .. . ... ... ... ... : ... .. . ... : ... .. . ... : ... .. . ...
ROW 03 : ... .. . ... ... ... ... : ... .. 4 ... ... ... ... : ... .. . ... : ... .. . ... : ... .. . ...
ROW 04 : ... .. 3 ... ... ... ... : ... .. . ... ... ... ... : ... .. . ... : ... .. . ... : ... .. . ...
ROW 05 : ... .. . ... ... ... ... : ... .. 3 ... ... ... ... : ... .. . ... : ... .. . ... : ... .. . ...
ROW 06 : ... .. 2 ... ... ... ... : ... .. . ... ... ... ... : ... .. . ... : ... .. . ... : ... .. . ...
ROW 07 : ... .. . ... ... ... ... : ... .. 2 ... ... ... ... : ... .. . ... : ... .. . ... : ... .. . ...
ROW 08 : ... .. 1 ... ... ... ... : ... .. . ... ... ... ... : ... .. . ... : ... .. . ... : ... .. . ...
ROW 09 : ... .. . ... ... ... ... : ... .. 1 ... ... ... ... : ... .. . ... : ... .. . ... : ... .. . ...
ROW 0A : ... .. . ... ... ... ... : ... .. . ... ... ... ... : ... .. . ... : ... .. . ... : ... .. . ...
ROW 0B : ... .. . ... ... ... ... : ... .. . ... ... ... ... : ... .. . ... : ... .. . ... : ... .. . ...
ROW 0C : ... .. . ... ... ... ... : ... .. . ... ... ... ... : ... .. . ... : ... .. . ... : ... .. . ...
ROW 0D : ... .. . ... ... ... ... : ... .. . ... ... ... ... : ... .. . ... : ... .. . ... : ... .. . ...
ROW 0E : E-4 00 5 ... ... ... ... : ... .. . ... ... ... ... : ... .. . ... : ... .. . ... : ... .. . ...
ROW 0F : ... .. . ... ... ... ... : D-4 00 5 ... ... ... ... : ... .. . ... : ... .. . ... : ... .. . ...
ROW 10 : ... .. 4 ... ... ... ... : ... .. . ... ... ... ... : ... .. . ... : ... .. . ... : ... .. . ...
ROW 11 : ... .. . ... ... ... ... : ... .. 4 ... ... ... ... : ... .. . ... : ... .. . ... : ... .. . ...
ROW 12 : ... .. 3 ... ... ... ... : ... .. . ... ... ... ... : ... .. . ... : ... .. . ... : ... .. . ...
ROW 13 : ... .. . ... ... ... ... : ... .. 3 ... ... ... ... : ... .. . ... : ... .. . ... : ... .. . ...
ROW 14 : ... .. 2 ... ... ... ... : ... .. . ... ... ... ... : ... .. . ... : ... .. . ... : ... .. . ...
ROW 15 : ... .. . ... ... ... ... : ... .. 2 ... ... ... ... : ... .. . ... : ... .. . ... : ... .. . ...
ROW 16 : ... .. 1 ... ... ... ... : ... .. . ... ... ... ... : ... .. . ... : ... .. . ... : ... .. . ...
ROW 17 : ... .. . ... ... ... ... : ... .. 1 ... ... ... ... : ... .. . ... : ... .. . ... : ... .. . ...
ROW 18 : ... .. . ... ... ... ... : ... .. . ... ... ... ... : ... .. . ... : ... .. . ... : ... .. . ...
ROW 19 : ... .. . ... ... ... ... : ... .. . ... ... ... ... : ... .. . ... : ... .. . ... : ... .. . ...
ROW 1A : ... .. . ... ... ... ... : ... .. . ... ... ... ... : ... .. . ... : ... .. . ... : ... .. . ...
ROW 1B : ... .. . ... ... ... ... : ... .. . ... ... ... ... : ... .. . ... : ... .. . ... : ... .. . ...
ROW 1C : E-4 00 5 ... ... ... ... : ... .. . ... ... ... ... : ... .. . ... : F-# 00 5 V01 : ... .. . ...
ROW 1D : ... .. . ... ... ... ... : D-4 00 5 ... ... ... ... : ... .. . ... : ... .. 4 ... : ... .. . ...
ROW 1E : ... .. 4 ... ... ... ... : ... .. . ... ... ... ... : ... .. . ... : ... .. 3 ... : ... .. . ...
ROW 1F : ... .. . ... ... ... ... : ... .. 4 ... ... ... ... : ... .. . ... : ... .. 2 ... : ... .. . ...
ROW 20 : ... .. 3 ... ... ... ... : ... .. . ... ... ... ... : ... .. . ... : ... .. 1 ... : ... .. . ...
ROW 21 : ... .. . ... ... ... ... : ... .. 3 ... ... ... ... : ... .. . ... : ... .. 0 ... : ... .. . ...
ROW 22 : ... .. 2 ... ... ... ... : ... .. . ... ... ... ... : ... .. . ... : ... .. . ... : ... .. . ...
ROW 23 : ... .. . ... ... ... ... : ... .. 2 ... ... ... ... : ... .. . ... : ... .. . ... : ... .. . ...
ROW 24 : ... .. 1 ... ... ... ... : ... .. . ... ... ... ... : ... .. . ... : ... .. . ... : ... .. . ...
ROW 25 : ... .. . ... ... ... ... : ... .. 1 ... ... ... ... : ... .. . ... : ... .. . ... : ... .. . ...
ROW 26 : ... .. . ... ... ... ... : ... .. . ... ... ... ... : ... .. . ... : ... .. . ... : ... .. . ...
ROW 27 : ... .. . ... ... ... ... : ... .. . ... ... ... ... : ... .. . ... : ... .. . ... : ... .. . ...
ROW 28 : ... .. . ... ... ... ... : ... .. . ... ... ... ... : ... .. . ... : ... .. . ... : ... .. . ...
ROW 29 : ... .. . ... ... ... ... : ... .. . ... ... ... ... : ... .. . ... : ... .. . ... : ... .. . ...
ROW 2A : E-4 00 5 ... ... ... ... : ... .. . ... ... ... ... : F-3 00 . ... : ... .. . ... : ... .. . ...
ROW 2B : ... .. . ... ... ... ... : D-4 00 5 ... ... ... ... : F#3 00 . ... : ... .. . ... : ... .. . ...
ROW 2C : ... .. 4 ... ... ... ... : ... .. . ... ... ... ... : G-3 00 . ... : ... .. . ... : ... .. . ...
ROW 2D : ... .. . ... ... ... ... : ... .. 4 ... ... ... ... : G#3 00 . ... : ... .. . ... : ... .. . ...
ROW 2E : ... .. 3 ... ... ... ... : ... .. . ... ... ... ... : A-3 00 . ... : ... .. . ... : ... .. . ...
ROW 2F : ... .. . ... ... ... ... : ... .. 3 ... ... ... ... : ... .. . ... : ... .. . ... : ... .. . ...
ROW 30 : ... .. 2 ... ... ... ... : ... .. . ... ... ... ... : ... .. . ... : ... .. . ... : ... .. . ...
ROW 31 : ... .. . ... ... ... ... : ... .. 2 ... ... ... ... : ... .. . ... : ... .. . ... : ... .. . ...
ROW 32 : ... .. 1 ... ... ... ... : ... .. . ... ... ... ... : ... .. . ... : ... .. . ... : ... .. . ...
ROW 33 : ... .. . ... ... ... ... : ... .. 1 ... ... ... ... : ... .. . ... : ... .. . ... : ... .. . ...
ROW 34 : ... .. . ... ... ... ... : ... .. . ... ... ... ... : ... .. . ... : ... .. . ... : ... .. . ...
ROW 35 : ... .. . ... ... ... ... : ... .. . ... ... ... ... : ... .. . ... : ... .. . ... : ... .. . ...
ROW 36 : ... .. . ... ... ... ... : ... .. . ... ... ... ... : ... .. . ... : ... .. . ... : ... .. . ...
ROW 37 : ... .. . ... ... ... ... : ... .. . ... ... ... ... : ... .. . ... : ... .. . ... : ... .. . ...
ROW 38 : E-4 00 5 ... ... ... ... : ... .. . ... ... ... ... : G-3 00 . ... : ... .. . ... : ... .. . ...
ROW 39 : ... .. . ... ... ... ... : D-4 00 5 ... ... ... ... : ... .. . ... : ... .. . ... : ... .. . ...
ROW 3A : ... .. 4 ... ... ... ... : ... .. . ... ... ... ... : ... .. . ... : ... .. . ... : ... .. . ...
ROW 3B : ... .. . ... ... ... ... : ... .. 4 ... ... ... ... : ... .. . ... : ... .. . ... : ... .. . ...
ROW 3C : ... .. 3 ... ... ... ... : ... .. . ... ... ... ... : ... .. . ... : ... .. . ... : ... .. . ...
ROW 3D : ... .. . ... ... ... ... : ... .. 3 ... ... ... ... : ... .. . ... : ... .. . ... : ... .. . ...
ROW 3E : ... .. 2 ... ... ... ... : ... .. . ... ... ... ... : ... .. . ... : ... .. . ... : ... .. . ...
ROW 3F : ... .. . ... ... ... ... : ... .. 2 ... ... ... ... : ... .. . ... : ... .. . ... : ... .. . ...
ROW 40 : ... .. 1 ... ... ... ... : ... .. . ... ... ... ... : ... .. . ... : ... .. . ... : ... .. . ...
ROW 41 : ... .. . ... ... ... ... : ... .. 1 ... ... ... ... : ... .. . ... : ... .. . ... : ... .. . ...
ROW 42 : ... .. . ... ... ... ... : ... .. . ... ... ... ... : ... .. . ... : ... .. . ... : ... .. . ...
ROW 43 : ... .. . ... ... ... ... : ... .. . ... ... ... ... : ... .. . ... : ... .. . ... : ... .. . ...
ROW 44 : ... .. . ... ... ... ... : ... .. . ... ... ... ... : ... .. . ... : ... .. . ... : ... .. . ...
ROW 45 : ... .. . ... ... ... ... : ... .. . ... ... ... ... : ... .. . ... : ... .. . ... : ... .. . ...
ROW 46 : E-4 00 5 ... ... ... ... : ... .. . ... ... ... ... : ... .. . ... : ... .. . ... : ... .. . ...
ROW 47 : ... .. . ... ... ... ... : D-4 00 5 ... ... ... ... : ... .. . ... : ... .. . ... : ... .. . ...
ROW 48 : ... .. 4 ... ... ... ... : ... .. . ... ... ... ... : ... .. . ... : ... .. . ... : ... .. . ...
ROW 49 : ... .. . ... ... ... ... : ... .. 4 ... ... ... ... : ... .. . ... : ... .. . ... : ... .. . ...
ROW 4A : ... .. 3 ... ... ... ... : ... .. . ... ... ... ... : ... .. . ... : ... .. . ... : ... .. . ...
ROW 4B : ... .. . ... ... ... ... : ... .. 3 ... ... ... ... : ... .. . ... : ... .. . ... : ... .. . ...
ROW 4C : ... .. 2 ... ... ... ... : ... .. . ... ... ... ... : ... .. . ... : ... .. . ... : ... .. . ...
ROW 4D : ... .. . ... ... ... ... : ... .. 2 ... ... ... ... : ... .. . ... : ... .. . ... : ... .. . ...
ROW 4E : ... .. 1 ... ... ... ... : ... .. . ... ... ... ... : ... .. . ... : ... .. . ... : ... .. . ...
ROW 4F : ... .. . ... ... ... ... : ... .. 1 ... ... ... ... : ... .. . ... : ... .. . ... : ... .. . ...
ROW 50 : ... .. . ... ... ... ... : ... .. . ... ... ... ... : ... .. . ... : ... .. . ... : ... .. . ...
ROW 51 : ... .. . ... ... ... ... : ... .. . ... ... ... ... : ... .. . ... : ... .. . ... : ... .. . ...
ROW 52 : ... .. . ... ... ... ... : ... .. . ... ... ... ... : ... .. . ... : ... .. . ... : ... .. . ...
ROW 53 : ... .. . ... ... ... ... : ... .. . ... ... ... ... : ... .. . ... : ... .. . ... : ... .. . ...
ROW 54 : E-4 00 5 ... ... ... ... : ... .. . ... ... ... ... : ... .. . ... : F-# 00 5 V01 : ... .. . ...
ROW 55 : ... .. . ... ... ... ... : D-4 00 5 ... ... ... ... : ... .. . ... : ... .. 4 ... : ... .. . ...
ROW 56 : ... .. 4 ... ... ... ... : ... .. . ... ... ... ... : ... .. . ... : ... .. 3 ... : ... .. . ...
ROW 57 : ... .. . ... ... ... ... : ... .. 4 ... ... ... ... : ... .. . ... : ... .. 2 ... : ... .. . ...
ROW 58 : ... .. 3 ... ... ... ... : ... .. . ... ... ... ... : ... .. . ... : ... .. 1 ... : ... .. . ...
ROW 59 : ... .. . ... ... ... ... : ... .. 3 ... ... ... ... : ... .. . ... : ... .. 0 ... : ... .. . ...
ROW 5A : ... .. 2 ... ... ... ... : ... .. . ... ... ... ... : ... .. . ... : ... .. . ... : ... .. . ...
ROW 5B : ... .. . ... ... ... ... : ... .. 2 ... ... ... ... : ... .. . ... : ... .. . ... : ... .. . ...
ROW 5C : ... .. 1 ... ... ... ... : ... .. . ... ... ... ... : ... .. . ... : ... .. . ... : ... .. . ...
ROW 5D : ... .. . ... ... ... ... : ... .. 1 ... ... ... ... : ... .. . ... : ... .. . ... : ... .. . ...
ROW 5E : ... .. . ... ... ... ... : ... .. . ... ... ... ... : ... .. . ... : ... .. . ... : ... .. . ...
ROW 5F : ... .. . ... ... ... ... : ... .. . ... ... ... ... : ... .. . ... : ... .. . ... : ... .. . ...
ROW 60 : ... .. . ... ... ... ... : ... .. . ... ... ... ... : ... .. . ... : ... .. . ... : ... .. . ...
ROW 61 : ... .. . ... ... ... ... : ... .. . ... ... ... ... : ... .. . ... : ... .. . ... : ... .. . ...
ROW 62 : E-4 00 5 ... ... ... ... : ... .. . ... ... ... ... : F#3 00 . ... : ... .. . ... : ... .. . ...
ROW 63 : ... .. . ... ... ... ... : D-4 00 5 ... ... ... ... : ... .. . ... : ... .. . ... : ... .. . ...
ROW 64 : ... .. 4 ... ... ... ... : ... .. . ... ... ... ... : ... .. . ... : ... .. . ... : ... .. . ...
ROW 65 : ... .. . ... ... ... ... : ... .. 4 ... ... ... ... : ... .. . ... : ... .. . ... : ... .. . ...
ROW 66 : ... .. 3 ... ... ... ... : ... .. . ... ... ... ... : ... .. . ... : ... .. . ... : ... .. . ...
ROW 67 : ... .. . ... ... ... ... : ... .. 3 ... ... ... ... : ... .. . ... : ... .. . ... : ... .. . ...
ROW 68 : ... .. 2 ... ... ... ... : ... .. . ... ... ... ... : ... .. . ... : ... .. . ... : ... .. . ...
ROW 69 : ... .. . ... ... ... ... : ... .. 2 ... ... ... ... : ... .. . ... : ... .. . ... : ... .. . ...
ROW 6A : ... .. 1 ... ... ... ... : ... .. . ... ... ... ... : ... .. . ... : ... .. . ... : ... .. . ...
ROW 6B : ... .. . ... ... ... ... : ... .. 1 ... ... ... ... : ... .. . ... : ... .. . ... : ... .. . ...
ROW 6C : ... .. . ... ... ... ... : ... .. . ... ... ... ... : ... .. . ... : ... .. . ... : ... .. . ...
ROW 6D : ... .. . ... ... ... ... : ... .. . ... ... ... ... : ... .. . ... : ... .. . ... : ... .. . ...
ROW 6E : ... .. . ... ... ... ... : ... .. . ... ... ... ... : ... .. . ... : ... .. . ... : ... .. . ...
ROW 6F : ... .. . ... ... ... ... : ... .. . ... ... ... ... : ... .. . ... : ... .. . ... : ... .. . ...
ROW 70 : F-4 00 5 V00 ... ... ... : ... .. . ... ... ... ... : G-3 00 . ... : ... .. . ... : ... .. . ...
ROW 71 : ... .. . ... ... ... ... : C-4 00 5 V00 ... ... ... : ... .. . ... : ... .. . ... : ... .. . ...
ROW 72 : ... .. 4 ... ... ... ... : ... .. . ... ... ... ... : ... .. . ... : ... .. . ... : ... .. . ...
ROW 73 : ... .. . ... ... ... ... : ... .. 4 ... ... ... ... : ... .. . ... : ... .. . ... : ... .. . ...
ROW 74 : ... .. 3 ... ... ... ... : ... .. . ... ... ... ... : ... .. . ... : ... .. . ... : ... .. . ...
ROW 75 : ... .. . ... ... ... ... : ... .. 3 ... ... ... ... : ... .. . ... : ... .. . ... : ... .. . ...
ROW 76 : ... .. 2 ... ... ... ... : ... .. . ... ... ... ... : ... .. . ... : ... .. . ... : ... .. . ...
ROW 77 : ... .. . ... ... ... ... : ... .. 2 ... ... ... ... : ... .. . ... : ... .. . ... : ... .. . ...
ROW 78 : ... .. 1 ... ... ... ... : ... .. . ... ... ... ... : ... .. . ... : ... .. . ... : ... .. . ...
ROW 79 : ... .. . ... ... ... ... : ... .. 1 ... ... ... ... : ... .. . ... : ... .. . ... : ... .. . ...
ROW 7A : ... .. . ... ... ... ... : ... .. . ... ... ... ... : ... .. . ... : ... .. . ... : ... .. . ...
ROW 7B : ... .. . ... ... ... ... : ... .. . ... ... ... ... : ... .. . ... : ... .. . ... : ... .. . ...
ROW 7C : ... .. . ... ... ... ... : ... .. . ... ... ... ... : ... .. . ... : ... .. . ... : ... .. . ...
ROW 7D : ... .. . ... ... ... ... : ... .. . ... ... ... ... : ... .. . ... : ... .. . ... : ... .. . ...
ROW 7E : F-4 00 5 ... ... ... ... : ... .. . ... ... ... ... : ... .. . ... : ... .. . ... : ... .. . ...
ROW 7F : ... .. . ... ... ... ... : C-4 00 5 ... ... ... ... : ... .. . ... : ... .. . ... : ... .. . ...
ROW 80 : ... .. 4 ... ... ... ... : ... .. . ... ... ... ... : ... .. . ... : ... .. . ... : ... .. . ...
ROW 81 : ... .. . ... ... ... ... : ... .. 4 ... ... ... ... : ... .. . ... : ... .. . ... : ... .. . ...
ROW 82 : ... .. 3 ... ... ... ... : ... .. . ... ... ... ... : ... .. . ... : ... .. . ... : ... .. . ...
ROW 83 : ... .. . ... ... ... ... : ... .. 3 ... ... ... ... : ... .. . ... : ... .. . ... : ... .. . ...
ROW 84 : ... .. 2 ... ... ... ... : ... .. . ... ... ... ... : ... .. . ... : ... .. . ... : ... .. . ...
ROW 85 : ... .. . ... ... ... ... : ... .. 2 ... ... ... ... : ... .. . ... : ... .. . ... : ... .. . ...
ROW 86 : ... .. 1 ... ... ... ... : ... .. . ... ... ... ... : ... .. . ... : ... .. . ... : ... .. . ...
ROW 87 : ... .. . ... ... ... ... : ... .. 1 ... ... ... ... : ... .. . ... : ... .. . ... : ... .. . ...
ROW 88 : ... .. . ... ... ... ... : ... .. . ... ... ... ... : ... .. . ... : ... .. . ... : ... .. . ...
ROW 89 : ... .. . ... ... ... ... : ... .. . ... ... ... ... : ... .. . ... : ... .. . ... : ... .. . ...
ROW 8A : ... .. . ... ... ... ... : ... .. . ... ... ... ... : ... .. . ... : ... .. . ... : ... .. . ...
ROW 8B : ... .. . ... ... ... ... : ... .. . ... ... ... ... : ... .. . ... : ... .. . ... : ... .. . ...
ROW 8C : F-4 00 5 ... ... ... ... : ... .. . ... ... ... ... : D-3 00 . ... : F-# 00 5 V01 : ... .. . ...
ROW 8D : ... .. . ... ... ... ... : C-4 00 5 ... ... ... ... : ... .. . ... : ... .. 4 ... : ... .. . ...
ROW 8E : ... .. 4 ... ... ... ... : ... .. . ... ... ... ... : ... .. . ... : ... .. 3 ... : ... .. . ...
ROW 8F : ... .. . ... ... ... ... : ... .. 4 ... ... ... ... : ... .. . ... : ... .. 2 ... : ... .. . ...
ROW 90 : ... .. 3 ... ... ... ... : ... .. . ... ... ... ... : ... .. . ... : ... .. 1 ... : ... .. . ...
ROW 91 : ... .. . ... ... ... ... : ... .. 3 ... ... ... ... : ... .. . ... : ... .. 0 ... : ... .. . ...
ROW 92 : ... .. 2 ... ... ... ... : ... .. . ... ... ... ... : ... .. . ... : ... .. . ... : ... .. . ...
ROW 93 : ... .. . ... ... ... ... : ... .. 2 ... ... ... ... : ... .. . ... : ... .. . ... : ... .. . ...
ROW 94 : ... .. 1 ... ... ... ... : ... .. . ... ... ... ... : ... .. . ... : ... .. . ... : ... .. . ...
ROW 95 : ... .. . ... ... ... ... : ... .. 1 ... ... ... ... : ... .. . ... : ... .. . ... : ... .. . ...
ROW 96 : ... .. . ... ... ... ... : ... .. . ... ... ... ... : ... .. . ... : ... .. . ... : ... .. . ...
ROW 97 : ... .. . ... ... ... ... : ... .. . ... ... ... ... : ... .. . ... : ... .. . ... : ... .. . ...
ROW 98 : ... .. . ... ... ... ... : ... .. . ... ... ... ... : ... .. . ... : ... .. . ... : ... .. . ...
ROW 99 : ... .. . ... ... ... ... : ... .. . ... ... ... ... : ... .. . ... : ... .. . ... : ... .. . ...
ROW 9A : F-4 00 5 ... ... ... ... : G-2 00 5 V02 ... ... ... : ... .. . ... : ... .. . ... : ... .. . ...
ROW 9B : ... .. . ... ... ... ... : ... .. . ... ... ... ... : ... .. . ... : ... .. . ... : ... .. . ...
ROW 9C : ... .. 4 ... ... ... ... : ... .. . ... ... ... ... : ... .. . ... : ... .. . ... : ... .. . ...
ROW 9D : ... .. . ... ... ... ... : ... .. . ... ... ... ... : ... .. . ... : ... .. . ... : ... .. . ...
ROW 9E : ... .. 3 ... ... ... ... : ... .. 1 ... ... ... ... : ... .. . ... : ... .. . ... : ... .. . ...
ROW 9F : ... .. . ... ... ... ... : B-2 00 5 ... ... ... ... : ... .. . ... : ... .. . ... : ... .. . ...
ROW A0 : ... .. 2 ... ... ... ... : ... .. . ... ... ... ... : ... .. . ... : ... .. . ... : ... .. . ...
ROW A1 : ... .. . ... ... ... ... : ... .. . ... ... ... ... : ... .. . ... : ... .. . ... : ... .. . ...
ROW A2 : ... .. 1 ... ... ... ... : ... .. . ... ... ... ... : ... .. . ... : ... .. . ... : ... .. . ...
ROW A3 : ... .. . ... ... ... ... : G-2 00 1 ... ... ... ... : ... .. . ... : ... .. . ... : ... .. . ...
ROW A4 : ... .. . ... ... ... ... : D-3 00 5 ... ... ... ... : ... .. . ... : ... .. . ... : ... .. . ...
ROW A5 : ... .. . ... ... ... ... : ... .. . ... ... ... ... : ... .. . ... : ... .. . ... : ... .. . ...
ROW A6 : ... .. . ... ... ... ... : ... .. . ... ... ... ... : ... .. . ... : ... .. . ... : ... .. . ...
ROW A7 : ... .. . ... ... ... ... : B-2 00 1 ... ... ... ... : ... .. . ... : ... .. . ... : ... .. . ...
ROW A8 : F-4 00 5 ... ... ... ... : A-3 00 5 ... ... ... ... : G-2 00 . ... : ... .. . ... : ... .. . ...
ROW A9 : ... .. . ... ... ... ... : ... .. . ... ... ... ... : ... .. . ... : ... .. . ... : ... .. . ...
ROW AA : ... .. 4 ... ... ... ... : ... .. . ... ... ... ... : ... .. . ... : ... .. . ... : ... .. . ...
ROW AB : ... .. . ... ... ... ... : ... .. . ... ... ... ... : ... .. . ... : ... .. . ... : ... .. . ...
ROW AC : ... .. 3 ... ... ... ... : ... .. . ... ... ... ... : ... .. . ... : ... .. . ... : ... .. . ...
ROW AD : ... .. . ... ... ... ... : ... .. . ... ... ... ... : ... .. . ... : ... .. . ... : ... .. . ...
ROW AE : ... .. 2 ... ... ... ... : ... .. . ... ... ... ... : ... .. . ... : ... .. . ... : ... .. . ...
ROW AF : ... .. . ... ... ... ... : ... .. . ... ... ... ... : ... .. . ... : ... .. . ... : ... .. . ...
ROW B0 : ... .. 1 ... ... ... ... : ... .. . ... ... ... ... : ... .. . ... : ... .. . ... : ... .. . ...
ROW B1 : ... .. . ... ... ... ... : ... .. . ... ... ... ... : ... .. . ... : ... .. . ... : ... .. . ...
ROW B2 : ... .. . ... ... ... ... : ... .. . ... ... ... ... : ... .. . ... : ... .. . ... : ... .. . ...
ROW B3 : ... .. . ... ... ... ... : ... .. . ... ... ... ... : ... .. . ... : ... .. . ... : ... .. . ...
ROW B4 : ... .. . ... ... ... ... : D-3 00 1 ... ... ... ... : ... .. . ... : ... .. . ... : ... .. . ...
ROW B5 : ... .. . ... ... ... ... : ... .. . ... ... ... ... : ... .. . ... : ... .. . ... : ... .. . ...
ROW B6 : F-4 00 5 ... ... ... ... : G-3 00 5 ... ... ... ... : ... .. . ... : ... .. . ... : ... .. . ...
ROW B7 : ... .. . ... ... ... ... : ... .. . ... ... ... ... : ... .. . ... : ... .. . ... : ... .. . ...
ROW B8 : ... .. 4 ... ... ... ... : ... .. . ... ... ... ... : ... .. . ... : ... .. . ... : ... .. . ...
ROW B9 : ... .. . ... ... ... ... : ... .. . ... ... ... ... : ... .. . ... : ... .. . ... : ... .. . ...
ROW BA : ... .. 3 ... ... ... ... : ... .. . ... ... ... ... : ... .. . ... : ... .. . ... : ... .. . ...
ROW BB : ... .. . ... ... ... ... : ... .. . ... ... ... ... : ... .. . ... : ... .. . ... : ... .. . ...
ROW BC : ... .. 2 ... ... ... ... : ... .. . ... ... ... ... : ... .. . ... : ... .. . ... : ... .. . ...
ROW BD : ... .. . ... ... ... ... : ... .. . ... ... ... ... : ... .. . ... : ... .. . ... : ... .. . ...
ROW BE : ... .. 1 ... ... ... ... : ... .. . ... ... ... ... : ... .. . ... : ... .. . ... : ... .. . ...
ROW BF : ... .. . ... ... ... ... : ... .. . ... ... ... ... : ... .. . ... : ... .. . ... : ... .. . ...
ROW C0 : ... .. . ... ... ... ... : ... .. . ... ... ... ... : ... .. . ... : ... .. . ... : ... .. . ...
ROW C1 : ... .. . ... ... ... ... : ... .. . ... ... ... ... : ... .. . ... : ... .. . ... : ... .. . ...
ROW C2 : ... .. . ... ... ... ... : A-3 00 1 ... ... ... ... : ... .. . ... : ... .. . ... : ... .. . ...
ROW C3 : ... .. . ... ... ... ... : ... .. . ... ... ... ... : ... .. . ... : ... .. . ... : ... .. . ...
ROW C4 : F-4 00 5 ... ... ... ... : G-3 00 5 ... ... ... ... : ... .. . ... : F-# 00 5 V01 : ... .. . ...
ROW C5 : ... .. . ... ... ... ... : ... .. . ... ... ... ... : ... .. . ... : ... .. 4 ... : ... .. . ...
ROW C6 : ... .. 4 ... ... ... ... : ... .. . ... ... ... ... : ... .. . ... : ... .. 3 ... : ... .. . ...
ROW C7 : ... .. . ... ... ... ... : ... .. . ... ... ... ... : ... .. . ... : ... .. 2 ... : ... .. . ...
ROW C8 : ... .. 3 ... ... ... ... : ... .. . ... ... ... ... : ... .. . ... : ... .. 1 ... : ... .. . ...
ROW C9 : ... .. . ... ... ... ... : ... .. . ... ... ... ... : ... .. . ... : ... .. 0 ... : ... .. . ...
ROW CA : ... .. 2 ... ... ... ... : ... .. . ... ... ... ... : ... .. . ... : ... .. . ... : ... .. . ...
ROW CB : ... .. . ... ... ... ... : ... .. . ... ... ... P81 : ... .. . ... : ... .. . ... : ... .. . ...
ROW CC : ... .. 1 ... ... ... ... : ... .. . ... ... ... ... : ... .. . ... : ... .. . ... : ... .. . ...
ROW CD : ... .. . ... ... ... ... : ... .. . ... ... ... P80 : ... .. . ... : ... .. . ... : ... .. . ...
ROW CE : ... .. . ... ... ... ... : ... .. . ... ... ... P7F : ... .. . ... : ... .. . ... : ... .. . ...
ROW CF : ... .. . ... ... ... ... : ... .. . ... ... ... ... : ... .. . ... : ... .. . ... : ... .. . ...
ROW D0 : ... .. . ... ... ... ... : ... .. . ... ... ... P80 : ... .. . ... : ... .. . ... : ... .. . ...
ROW D1 : ... .. . ... ... ... ... : ... .. . ... ... ... ... : ... .. . ... : ... .. . ... : ... .. . ...
ROW D2 : F-4 00 5 ... ... ... ... : ... .. . ... ... ... P81 : ... .. . ... : ... .. . ... : ... .. . ...
ROW D3 : ... .. . ... ... ... ... : ... .. . ... ... ... P80 : ... .. . ... : ... .. . ... : ... .. . ...
ROW D4 : ... .. 4 ... ... ... ... : ... .. . ... ... ... ... : ... .. . ... : ... .. . ... : ... .. . ...
ROW D5 : ... .. . ... ... ... ... : ... .. . ... ... ... P7F : ... .. . ... : ... .. . ... : ... .. . ...
ROW D6 : ... .. 3 ... ... ... ... : ... .. . ... ... ... P80 : ... .. . ... : ... .. . ... : ... .. . ...
ROW D7 : ... .. . ... ... ... ... : G-3 00 1 ... ... ... ... : ... .. . ... : ... .. . ... : ... .. . ...
ROW D8 : ... .. 2 ... ... ... ... : ... .. . ... ... ... P81 : ... .. . ... : ... .. . ... : ... .. . ...
ROW D9 : ... .. . ... ... ... ... : F-3 00 5 ... ... ... P80 : ... .. . ... : ... .. . ... : ... .. . ...
ROW DA : ... .. 1 ... ... ... ... : ... .. . ... ... ... ... : ... .. . ... : ... .. . ... : ... .. . ...
ROW DB : ... .. . ... ... ... ... : ... .. . ... ... ... ... : ... .. . ... : ... .. . ... : ... .. . ...
ROW DC : ... .. . ... ... ... ... : G-3 00 . ... ... ... ... : ... .. . ... : ... .. . ... : ... .. . ...
ROW DD : ... .. . ... ... ... ... : ... .. . ... ... ... ... : ... .. . ... : ... .. . ... : ... .. . ...
ROW DE : ... .. . ... ... ... ... : F-3 00 . ... ... ... ... : ... .. . ... : ... .. . ... : ... .. . ...
ROW DF : ... .. . ... ... ... ... : ... .. . ... ... ... ... : ... .. . ... : ... .. . ... : ... .. . ...

PATTERN 11
ROW 00 : E-4 00 5 V00 ... ... ... : E-3 00 5 V02 ... ... ... : C-3 00 . ... : E-# 00 4 V00 : ... .. . F01
ROW 01 : ... .. . ... ... ... ... : ... .. . ... ... ... ... : ... .. . ... : ... .. . ... : ... .. . ...
ROW 02 : ... .. 4 ... ... ... ... : ... .. . ... ... ... ... : ... .. . ... : ... .. 3 ... : ... .. . ...
ROW 03 : ... .. . ... ... ... ... : ... .. . ... ... ... ... : ... .. . ... : ... .. . ... : ... .. . ...
ROW 04 : ... .. 3 ... ... ... ... : ... .. . ... ... ... ... : ... .. . ... : ... .. 2 ... : ... .. . ...
ROW 05 : ... .. . ... ... ... ... : ... .. . ... ... ... ... : ... .. . ... : ... .. . ... : ... .. . ...
ROW 06 : ... .. 2 ... ... ... ... : ... .. . ... ... ... ... : ... .. . ... : ... .. 1 ... : ... .. . ...
ROW 07 : ... .. . ... ... ... ... : ... .. . ... ... ... ... : ... .. . ... : ... .. . ... : ... .. . ...
ROW 08 : ... .. 1 ... ... ... ... : ... .. . ... ... ... ... : ... .. . ... : ... .. 0 ... : ... .. . ...
ROW 09 : ... .. . ... ... ... ... : ... .. . ... ... ... ... : ... .. . ... : ... .. . ... : ... .. . ...
ROW 0A : ... .. . ... ... ... ... : ... .. . ... ... ... ... : ... .. . ... : ... .. 1 ... : ... .. . ...
ROW 0B : ... .. . ... ... ... ... : ... .. . ... ... ... ... : ... .. . ... : ... .. . ... : ... .. . ...
ROW 0C : ... .. . ... ... ... ... : ... .. . ... ... ... ... : ... .. . ... : ... .. 0 ... : ... .. . ...
ROW 0D : ... .. . ... ... ... ... : ... .. . ... ... ... ... : ... .. . ... : ... .. . ... : ... .. . ...
ROW 0E : E-4 00 5 ... ... ... ... : ... .. . ... ... ... ... : ... .. . ... : ... .. . ... : ... .. . ...
ROW 0F : ... .. . ... ... ... ... : D-4 00 5 V00 ... ... ... : ... .. . ... : ... .. . ... : ... .. . ...
ROW 10 : ... .. 4 ... ... ... ... : ... .. . ... ... ... ... : ... .. . ... : ... .. . ... : ... .. . ...
ROW 11 : ... .. . ... ... ... ... : ... .. 4 ... ... ... ... : ... .. . ... : ... .. . ... : ... .. . ...
ROW 12 : ... .. 3 ... ... ... ... : ... .. . ... ... ... ... : ... .. . ... : ... .. . ... : ... .. . ...
ROW 13 : ... .. . ... ... ... ... : ... .. 3 ... ... ... ... : ... .. . ... : ... .. 1 ... : ... .. . ...
ROW 14 : ... .. 2 ... ... ... ... : ... .. . ... ... ... ... : ... .. . ... : ... .. . ... : ... .. . ...
ROW 15 : ... .. . ... ... ... ... : ... .. 2 ... ... ... ... : ... .. . ... : ... .. 0 ... : ... .. . ...
ROW 16 : ... .. 1 ... ... ... ... : ... .. . ... ... ... ... : ... .. . ... : ... .. . ... : ... .. . ...
ROW 17 : ... .. . ... ... ... ... : ... .. 1 ... ... ... ... : ... .. . ... : ... .. . ... : ... .. . ...
ROW 18 : ... .. . ... ... ... ... : ... .. . ... ... ... ... : ... .. . ... : ... .. . ... : ... .. . ...
ROW 19 : ... .. . ... ... ... ... : ... .. . ... ... ... ... : ... .. . ... : ... .. . ... : ... .. . ...
ROW 1A : ... .. . ... ... ... ... : ... .. . ... ... ... ... : ... .. . ... : ... .. . ... : ... .. . ...
ROW 1B : ... .. . ... ... ... ... : ... .. . ... ... ... ... : ... .. . ... : ... .. . ... : ... .. . ...
ROW 1C : E-4 00 5 ... ... ... ... : ... .. . ... ... ... ... : ... .. . ... : ... .. . ... : ... .. . ...
ROW 1D : ... .. . ... ... ... ... : D-4 00 5 ... ... ... ... : ... .. . ... : ... .. . ... : ... .. . ...
ROW 1E : ... .. 4 ... ... ... ... : ... .. . ... ... ... ... : ... .. . ... : ... .. . ... : ... .. . ...
ROW 1F : ... .. . ... ... ... ... : ... .. 4 ... ... ... ... : ... .. . ... : ... .. . ... : ... .. . ...
ROW 20 : ... .. 3 ... ... ... ... : ... .. . ... ... ... ... : ... .. . ... : ... .. . ... : ... .. . ...
ROW 21 : ... .. . ... ... ... ... : ... .. 3 ... ... ... ... : ... .. . ... : ... .. . ... : ... .. . ...
ROW 22 : ... .. 2 ... ... ... ... : ... .. . ... ... ... ... : ... .. . ... : ... .. . ... : ... .. . ...
ROW 23 : ... .. . ... ... ... ... : ... .. 2 ... ... ... ... : ... .. . ... : ... .. . ... : ... .. . ...
ROW 24 : ... .. 1 ... ... ... ... : ... .. . ... ... ... ... : ... .. . ... : ... .. . ... : ... .. . ...
ROW 25 : ... .. . ... ... ... ... : ... .. 1 ... ... ... ... : ... .. . ... : ... .. . ... : ... .. . ...
ROW 26 : ... .. . ... ... ... ... : ... .. . ... ... ... ... : ... .. . ... : ... .. . ... : ... .. . ...
ROW 27 : ... .. . ... ... ... ... : ... .. . ... ... ... ... : ... .. . ... : ... .. . ... : ... .. . ...
ROW 28 : ... .. . ... ... ... ... : ... .. . ... ... ... ... : ... .. . ... : ... .. . ... : ... .. . ...
ROW 29 : ... .. . ... ... ... ... : ... .. . ... ... ... ... : ... .. . ... : ... .. . ... : ... .. . ...
ROW 2A : E-4 00 5 ... ... ... ... : ... .. . ... ... ... ... : F-3 00 . ... : ... .. . ... : ... .. . ...
ROW 2B : ... .. . ... ... ... ... : D-4 00 5 ... ... ... ... : F#3 00 . ... : ... .. . ... : ... .. . ...
ROW 2C : ... .. 4 ... ... ... ... : ... .. . ... ... ... ... : G-3 00 . ... : ... .. . ... : ... .. . ...
ROW 2D : ... .. . ... ... ... ... : ... .. 4 ... ... ... ... : G#3 00 . ... : ... .. . ... : ... .. . ...
ROW 2E : ... .. 3 ... ... ... ... : ... .. . ... ... ... ... : A-3 00 . ... : ... .. . ... : ... .. . ...
ROW 2F : ... .. . ... ... ... ... : ... .. 3 ... ... ... ... : ... .. . ... : ... .. . ... : ... .. . ...
ROW 30 : ... .. 2 ... ... ... ... : ... .. . ... ... ... ... : ... .. . ... : ... .. . ... : ... .. . ...
ROW 31 : ... .. . ... ... ... ... : ... .. 2 ... ... ... ... : ... .. . ... : ... .. . ... : ... .. . ...
ROW 32 : ... .. 1 ... ... ... ... : ... .. . ... ... ... ... : ... .. . ... : ... .. . ... : ... .. . ...
ROW 33 : ... .. . ... ... ... ... : ... .. 1 ... ... ... ... : ... .. . ... : ... .. . ... : ... .. . ...
ROW 34 : ... .. . ... ... ... ... : ... .. . ... ... ... ... : ... .. . ... : ... .. . ... : ... .. . ...
ROW 35 : ... .. . ... ... ... ... : ... .. . ... ... ... ... : ... .. . ... : ... .. . ... : ... .. . ...
ROW 36 : ... .. . ... ... ... ... : ... .. . ... ... ... ... : ... .. . ... : ... .. . ... : ... .. . ...
ROW 37 : ... .. . ... ... ... ... : ... .. . ... ... ... ... : ... .. . ... : ... .. . ... : ... .. . ...
ROW 38 : E-4 00 5 ... ... ... ... : ... .. . ... ... ... ... : G-3 00 . ... : C-# 00 3 V01 : ... .. . ...
ROW 39 : ... .. . ... ... ... ... : D-4 00 5 ... ... ... ... : ... .. . ... : ... .. . ... : ... .. . ...
ROW 3A : ... .. 4 ... ... ... ... : ... .. . ... ... ... ... : ... .. . ... : ... .. 2 ... : ... .. . ...
ROW 3B : ... .. . ... ... ... ... : ... .. 4 ... ... ... ... : ... .. . ... : ... .. . ... : ... .. . ...
ROW 3C : ... .. 3 ... ... ... ... : ... .. . ... ... ... ... : ... .. . ... : ... .. 1 ... : ... .. . ...
ROW 3D : ... .. . ... ... ... ... : ... .. 3 ... ... ... ... : ... .. . ... : ... .. . ... : ... .. . ...
ROW 3E : ... .. 2 ... ... ... ... : ... .. . ... ... ... ... : ... .. . ... : ... .. 0 ... : ... .. . ...
ROW 3F : ... .. . ... ... ... ... : ... .. 2 ... ... ... ... : ... .. . ... : ... .. . ... : ... .. . ...
ROW 40 : ... .. 1 ... ... ... ... : ... .. . ... ... ... ... : ... .. . ... : ... .. . ... : ... .. . ...
ROW 41 : ... .. . ... ... ... ... : ... .. 1 ... ... ... ... : ... .. . ... : ... .. . ... : ... .. . ...
ROW 42 : ... .. . ... ... ... ... : ... .. . ... ... ... ... : ... .. . ... : ... .. 1 ... : ... .. . ...
ROW 43 : ... .. . ... ... ... ... : ... .. . ... ... ... ... : ... .. . ... : ... .. . ... : ... .. . ...
ROW 44 : ... .. . ... ... ... ... : ... .. . ... ... ... ... : ... .. . ... : ... .. 0 ... : ... .. . ...
ROW 45 : ... .. . ... ... ... ... : ... .. . ... ... ... ... : ... .. . ... : ... .. . ... : ... .. . ...
ROW 46 : E-4 00 5 ... ... ... ... : ... .. . ... ... ... ... : ... .. . ... : ... .. . ... : ... .. . ...
ROW 47 : ... .. . ... ... ... ... : D-4 00 5 ... ... ... ... : ... .. . ... : ... .. . ... : ... .. . ...
ROW 48 : ... .. 4 ... ... ... ... : ... .. . ... ... ... ... : ... .. . ... : ... .. . ... : ... .. . ...
ROW 49 : ... .. . ... ... ... ... : ... .. 4 ... ... ... ... : ... .. . ... : ... .. . ... : ... .. . ...
ROW 4A : ... .. 3 ... ... ... ... : ... .. . ... ... ... ... : ... .. . ... : ... .. . ... : ... .. . ...
ROW 4B : ... .. . ... ... ... ... : ... .. 3 ... ... ... ... : ... .. . ... : ... .. 1 ... : ... .. . ...
ROW 4C : ... .. 2 ... ... ... ... : ... .. . ... ... ... ... : ... .. . ... : ... .. . ... : ... .. . ...
ROW 4D : ... .. . ... ... ... ... : ... .. 2 ... ... ... ... : ... .. . ... : ... .. 0 ... : ... .. . ...
ROW 4E : ... .. 1 ... ... ... ... : ... .. . ... ... ... ... : ... .. . ... : ... .. . ... : ... .. . ...
ROW 4F : ... .. . ... ... ... ... : ... .. 1 ... ... ... ... : ... .. . ... : ... .. . ... : ... .. . ...
ROW 50 : ... .. . ... ... ... ... : ... .. . ... ... ... ... : ... .. . ... : ... .. . ... : ... .. . ...
ROW 51 : ... .. . ... ... ... ... : ... .. . ... ... ... ... : ... .. . ... : ... .. . ... : ... .. . ...
ROW 52 : ... .. . ... ... ... ... : ... .. . ... ... ... ... : ... .. . ... : ... .. . ... : ... .. . ...
ROW 53 : ... .. . ... ... ... ... : ... .. . ... ... ... ... : ... .. . ... : ... .. . ... : ... .. . ...
ROW 54 : E-4 00 5 ... ... ... ... : ... .. . ... ... ... ... : ... .. . ... : ... .. . ... : ... .. . ...
ROW 55 : ... .. . ... ... ... ... : D-4 00 5 ... ... ... ... : ... .. . ... : ... .. . ... : ... .. . ...
ROW 56 : ... .. 4 ... ... ... ... : ... .. . ... ... ... ... : ... .. . ... : ... .. . ... : ... .. . ...
ROW 57 : ... .. . ... ... ... ... : ... .. 4 ... ... ... ... : ... .. . ... : ... .. . ... : ... .. . ...
ROW 58 : ... .. 3 ... ... ... ... : ... .. . ... ... ... ... : ... .. . ... : ... .. . ... : ... .. . ...
ROW 59 : ... .. . ... ... ... ... : ... .. 3 ... ... ... ... : ... .. . ... : ... .. . ... : ... .. . ...
ROW 5A : ... .. 2 ... ... ... ... : ... .. . ... ... ... ... : ... .. . ... : ... .. . ... : ... .. . ...
ROW 5B : ... .. . ... ... ... ... : ... .. 2 ... ... ... ... : ... .. . ... : ... .. . ... : ... .. . ...
ROW 5C : ... .. 1 ... ... ... ... : ... .. . ... ... ... ... : ... .. . ... : ... .. . ... : ... .. . ...
ROW 5D : ... .. . ... ... ... ... : ... .. 1 ... ... ... ... : ... .. . ... : ... .. . ... : ... .. . ...
ROW 5E : ... .. . ... ... ... ... : ... .. . ... ... ... ... : ... .. . ... : ... .. . ... : ... .. . ...
ROW 5F : ... .. . ... ... ... ... : ... .. . ... ... ... ... : ... .. . ... : ... .. . ... : ... .. . ...
ROW 60 : ... .. . ... ... ... ... : ... .. . ... ... ... ... : ... .. . ... : ... .. . ... : ... .. . ...
ROW 61 : ... .. . ... ... ... ... : ... .. . ... ... ... ... : ... .. . ... : ... .. . ... : ... .. . ...
ROW 62 : E-4 00 5 ... ... ... ... : ... .. . ... ... ... ... : F#3 00 . ... : ... .. . ... : ... .. . ...
ROW 63 : ... .. . ... ... ... ... : D-4 00 5 ... ... ... ... : ... .. . ... : ... .. . ... : ... .. . ...
ROW 64 : ... .. 4 ... ... ... ... : ... .. . ... ... ... ... : ... .. . ... : ... .. . ... : ... .. . ...
ROW 65 : ... .. . ... ... ... ... : ... .. 4 ... ... ... ... : ... .. . ... : ... .. . ... : ... .. . ...
ROW 66 : ... .. 3 ... ... ... ... : ... .. . ... ... ... ... : ... .. . ... : ... .. . ... : ... .. . ...
ROW 67 : ... .. . ... ... ... ... : ... .. 3 ... ... ... ... : ... .. . ... : ... .. . ... : ... .. . ...
ROW 68 : ... .. 2 ... ... ... ... : ... .. . ... ... ... ... : ... .. . ... : ... .. . ... : ... .. . ...
ROW 69 : ... .. . ... ... ... ... : ... .. 2 ... ... ... ... : ... .. . ... : ... .. . ... : ... .. . ...
ROW 6A : ... .. 1 ... ... ... ... : ... .. . ... ... ... ... : ... .. . ... : ... .. . ... : ... .. . ...
ROW 6B : ... .. . ... ... ... ... : ... .. 1 ... ... ... ... : ... .. . ... : ... .. . ... : ... .. . ...
ROW 6C : ... .. . ... ... ... ... : ... .. . ... ... ... ... : ... .. . ... : ... .. . ... : ... .. . ...
ROW 6D : ... .. . ... ... ... ... : ... .. . ... ... ... ... : ... .. . ... : ... .. . ... : ... .. . ...
ROW 6E : ... .. . ... ... ... ... : ... .. . ... ... ... ... : ... .. . ... : ... .. . ... : ... .. . ...
ROW 6F : ... .. . ... ... ... ... : ... .. . ... ... ... ... : ... .. . ... : ... .. . ... : ... .. . ...
ROW 70 : F-4 00 5 V00 ... ... ... : ... .. . ... ... ... ... : G-3 00 . ... : E-# 00 4 V00 : ... .. . ...
ROW 71 : ... .. . ... ... ... ... : C-4 00 5 V00 ... ... ... : ... .. . ... : ... .. . ... : ... .. . ...
ROW 72 : ... .. 4 ... ... ... ... : ... .. . ... ... ... ... : ... .. . ... : ... .. 3 ... : ... .. . ...
ROW 73 : ... .. . ... ... ... ... : ... .. 4 ... ... ... ... : ... .. . ... : ... .. . ... : ... .. . ...
ROW 74 : ... .. 3 ... ... ... ... : ... .. . ... ... ... ... : ... .. . ... : ... .. 2 ... : ... .. . ...
ROW 75 : ... .. . ... ... ... ... : ... .. 3 ... ... ... ... : ... .. . ... : ... .. . ... : ... .. . ...
ROW 76 : ... .. 2 ... ... ... ... : ... .. . ... ... ... ... : ... .. . ... : ... .. 1 ... : ... .. . ...
ROW 77 : ... .. . ... ... ... ... : ... .. 2 ... ... ... ... : ... .. . ... : ... .. . ... : ... .. . ...
ROW 78 : ... .. 1 ... ... ... ... : ... .. . ... ... ... ... : ... .. . ... : ... .. 0 ... : ... .. . ...
ROW 79 : ... .. . ... ... ... ... : ... .. 1 ... ... ... ... : ... .. . ... : ... .. . ... : ... .. . ...
ROW 7A : ... .. . ... ... ... ... : ... .. . ... ... ... ... : ... .. . ... : ... .. 1 ... : ... .. . ...
ROW 7B : ... .. . ... ... ... ... : ... .. . ... ... ... ... : ... .. . ... : ... .. . ... : ... .. . ...
ROW 7C : ... .. . ... ... ... ... : ... .. . ... ... ... ... : ... .. . ... : ... .. 0 ... : ... .. . ...
ROW 7D : ... .. . ... ... ... ... : ... .. . ... ... ... ... : ... .. . ... : ... .. . ... : ... .. . ...
ROW 7E : F-4 00 5 ... ... ... ... : ... .. . ... ... ... ... : ... .. . ... : ... .. . ... : ... .. . ...
ROW 7F : ... .. . ... ... ... ... : C-4 00 5 ... ... ... ... : ... .. . ... : ... .. . ... : ... .. . ...
ROW 80 : ... .. 4 ... ... ... ... : ... .. . ... ... ... ... : ... .. . ... : ... .. . ... : ... .. . ...
ROW 81 : ... .. . ... ... ... ... : ... .. 4 ... ... ... ... : ... .. . ... : ... .. . ... : ... .. . ...
ROW 82 : ... .. 3 ... ... ... ... : ... .. . ... ... ... ... : ... .. . ... : ... .. . ... : ... .. . ...
ROW 83 : ... .. . ... ... ... ... : ... .. 3 ... ... ... ... : ... .. . ... : ... .. 1 ... : ... .. . ...
ROW 84 : ... .. 2 ... ... ... ... : ... .. . ... ... ... ... : ... .. . ... : ... .. . ... : ... .. . ...
ROW 85 : ... .. . ... ... ... ... : ... .. 2 ... ... ... ... : ... .. . ... : ... .. 0 ... : ... .. . ...
ROW 86 : ... .. 1 ... ... ... ... : ... .. . ... ... ... ... : ... .. . ... : ... .. . ... : ... .. . ...
ROW 87 : ... .. . ... ... ... ... : ... .. 1 ... ... ... ... : ... .. . ... : ... .. . ... : ... .. . ...
ROW 88 : ... .. . ... ... ... ... : ... .. . ... ... ... ... : ... .. . ... : ... .. . ... : ... .. . ...
ROW 89 : ... .. . ... ... ... ... : ... .. . ... ... ... ... : ... .. . ... : ... .. . ... : ... .. . ...
ROW 8A : ... .. . ... ... ... ... : ... .. . ... ... ... ... : ... .. . ... : ... .. . ... : ... .. . ...
ROW 8B : ... .. . ... ... ... ... : ... .. . ... ... ... ... : ... .. . ... : ... .. . ... : ... .. . ...
ROW 8C : F-4 00 5 ... ... ... ... : ... .. . ... ... ... ... : ... .. . ... : ... .. . ... : ... .. . ...
ROW 8D : ... .. . ... ... ... ... : C-4 00 5 ... ... ... ... : ... .. . ... : ... .. . ... : ... .. . ...
ROW 8E : ... .. 4 ... ... ... ... : ... .. . ... ... ... ... : ... .. . ... : ... .. . ... : ... .. . ...
ROW 8F : ... .. . ... ... ... ... : ... .. 4 ... ... ... ... : ... .. . ... : ... .. . ... : ... .. . ...
ROW 90 : ... .. 3 ... ... ... ... : ... .. . ... ... ... ... : ... .. . ... : ... .. . ... : ... .. . ...
ROW 91 : ... .. . ... ... ... ... : ... .. 3 ... ... ... ... : ... .. . ... : ... .. . ... : ... .. . ...
ROW 92 : ... .. 2 ... ... ... ... : ... .. . ... ... ... ... : ... .. . ... : ... .. . ... : ... .. . ...
ROW 93 : ... .. . ... ... ... ... : ... .. 2 ... ... ... ... : ... .. . ... : ... .. . ... : ... .. . ...
ROW 94 : ... .. 1 ... ... ... ... : ... .. . ... ... ... ... : ... .. . ... : ... .. . ... : ... .. . ...
ROW 95 : ... .. . ... ... ... ... : ... .. 1 ... ... ... ... : ... .. . ... : ... .. . ... : ... .. . ...
ROW 96 : ... .. . ... ... ... ... : ... .. . ... ... ... ... : ... .. . ... : ... .. . ... : ... .. . ...
ROW 97 : ... .. . ... ... ... ... : ... .. . ... ... ... ... : ... .. . ... : ... .. . ... : ... .. . ...
ROW 98 : ... .. . ... ... ... ... : ... .. . ... ... ... ... : ... .. . ... : ... .. . ... : ... .. . ...
ROW 99 : ... .. . ... ... ... ... : ... .. . ... ... ... ... : ... .. . ... : ... .. . ... : ... .. . ...
ROW 9A : F-4 00 5 ... ... ... ... : ... .. . ... ... ... ... : ... .. . ... : ... .. . ... : ... .. . ...
ROW 9B : ... .. . ... ... ... ... : C-4 00 5 ... ... ... ... : ... .. . ... : ... .. . ... : ... .. . ...
ROW 9C : ... .. 4 ... ... ... ... : ... .. . ... ... ... ... : ... .. . ... : ... .. . ... : ... .. . ...
ROW 9D : ... .. . ... ... ... ... : ... .. 4 ... ... ... ... : ... .. . ... : ... .. . ... : ... .. . ...
ROW 9E : ... .. 3 ... ... ... ... : ... .. . ... ... ... ... : ... .. . ... : ... .. . ... : ... .. . ...
ROW 9F : ... .. . ... ... ... ... : ... .. 3 ... ... ... ... : ... .. . ... : ... .. . ... : ... .. . ...
ROW A0 : ... .. 2 ... ... ... ... : ... .. . ... ... ... ... : ... .. . ... : ... .. . ... : ... .. . ...
ROW A1 : ... .. . ... ... ... ... : ... .. 2 ... ... ... ... : ... .. . ... : ... .. . ... : ... .. . ...
ROW A2 : ... .. 1 ... ... ... ... : ... .. . ... ... ... ... : ... .. . ... : ... .. . ... : ... .. . ...
ROW A3 : ... .. . ... ... ... ... : ... .. 1 ... ... ... ... : ... .. . ... : ... .. . ... : ... .. . ...
ROW A4 : ... .. . ... ... ... ... : ... .. . ... ... ... ... : ... .. . ... : ... .. . ... : ... .. . ...
ROW A5 : ... .. . ... ... ... ... : ... .. . ... ... ... ... : ... .. . ... : ... .. . ... : ... .. . ...
ROW A6 : ... .. . ... ... ... ... : ... .. . ... ... ... ... : ... .. . ... : ... .. . ... : ... .. . ...
ROW A7 : ... .. . ... ... ... ... : ... .. . ... ... ... ... : ... .. . ... : ... .. . ... : ... .. . ...
ROW A8 : F-4 00 5 ... ... ... ... : ... .. . ... ... ... ... : D-3 00 . ... : C-# 00 3 V01 : ... .. . ...
ROW A9 : ... .. . ... ... ... ... : B-3 00 5 ... ... ... ... : ... .. . ... : ... .. . ... : ... .. . ...
ROW AA : ... .. 4 ... ... ... ... : ... .. . ... ... ... ... : ... .. . ... : ... .. 2 ... : ... .. . ...
ROW AB : ... .. . ... ... ... ... : ... .. 4 ... ... ... ... : ... .. . ... : ... .. . ... : ... .. . ...
ROW AC : ... .. 3 ... ... ... ... : ... .. . ... ... ... ... : ... .. . ... : ... .. 1 ... : ... .. . ...
ROW AD : ... .. . ... ... ... ... : ... .. 3 ... ... ... ... : ... .. . ... : ... .. . ... : ... .. . ...
ROW AE : ... .. 2 ... ... ... ... : ... .. . ... ... ... ... : ... .. . ... : ... .. 0 ... : ... .. . ...
ROW AF : ... .. . ... ... ... ... : ... .. 2 ... ... ... ... : ... .. . ... : ... .. . ... : ... .. . ...
ROW B0 : ... .. 1 ... ... ... ... : ... .. . ... ... ... ... : ... .. . ... : ... .. . ... : ... .. . ...
ROW B1 : ... .. . ... ... ... ... : ... .. 1 ... ... ... ... : ... .. . ... : ... .. . ... : ... .. . ...
ROW B2 : ... .. . ... ... ... ... : ... .. . ... ... ... ... : ... .. . ... : ... .. 1 ... : ... .. . ...
ROW B3 : ... .. . ... ... ... ... : ... .. . ... ... ... ... : ... .. . ... : ... .. . ... : ... .. . ...
ROW B4 : ... .. . ... ... ... ... : ... .. . ... ... ... ... : ... .. . ... : ... .. 0 ... : ... .. . ...
ROW B5 : ... .. . ... ... ... ... : ... .. . ... ... ... ... : ... .. . ... : ... .. . ... : ... .. . ...
ROW B6 : F-4 00 5 ... ... ... ... : ... .. . ... ... ... ... : ... .. . ... : ... .. . ... : ... .. . ...
ROW B7 : ... .. . ... ... ... ... : B-3 00 5 ... ... ... ... : ... .. . ... : ... .. . ... : ... .. . ...
ROW B8 : ... .. 4 ... ... ... ... : ... .. . ... ... ... ... : ... .. . ... : ... .. . ... : ... .. . ...
ROW B9 : ... .. . ... ... ... ... : ... .. 4 ... ... ... ... : ... .. . ... : ... .. . ... : ... .. . ...
ROW BA : ... .. 3 ... ... ... ... : ... .. . ... ... ... ... : ... .. . ... : ... .. . ... : ... .. . ...
ROW BB : ... .. . ... ... ... ... : ... .. 3 ... ... ... ... : ... .. . ... : ... .. 1 ... : ... .. . ...
ROW BC : ... .. 2 ... ... ... ... : ... .. . ... ... ... ... : ... .. . ... : ... .. . ... : ... .. . ...
ROW BD : ... .. . ... ... ... ... : ... .. 2 ... ... ... ... : ... .. . ... : ... .. 0 ... : ... .. . ...
ROW BE : ... .. 1 ... ... ... ... : ... .. . ... ... ... ... : ... .. . ... : ... .. . ... : ... .. . ...
ROW BF : ... .. . ... ... ... ... : ... .. 1 ... ... ... ... : ... .. . ... : ... .. . ... : ... .. . ...
ROW C0 : ... .. . ... ... ... ... : ... .. . ... ... ... ... : ... .. . ... : ... .. . ... : ... .. . ...
ROW C1 : ... .. . ... ... ... ... : ... .. . ... ... ... ... : ... .. . ... : ... .. . ... : ... .. . ...
ROW C2 : ... .. . ... ... ... ... : ... .. . ... ... ... ... : ... .. . ... : ... .. . ... : ... .. . ...
ROW C3 : ... .. . ... ... ... ... : ... .. . ... ... ... ... : ... .. . ... : ... .. . ... : ... .. . ...
ROW C4 : F-4 00 5 ... ... ... ... : ... .. . ... ... ... ... : ... .. . ... : ... .. . ... : ... .. . ...
ROW C5 : ... .. . ... ... ... ... : B-3 00 5 ... ... ... ... : ... .. . ... : ... .. . ... : ... .. . ...
ROW C6 : ... .. 4 ... ... ... ... : ... .. . ... ... ... ... : ... .. . ... : ... .. . ... : ... .. . ...
ROW C7 : ... .. . ... ... ... ... : ... .. 4 ... ... ... ... : ... .. . ... : ... .. . ... : ... .. . ...
ROW C8 : ... .. 3 ... ... ... ... : ... .. . ... ... ... ... : ... .. . ... : ... .. . ... : ... .. . ...
ROW C9 : ... .. . ... ... ... ... : ... .. 3 ... ... ... ... : ... .. . ... : ... .. . ... : ... .. . ...
ROW CA : ... .. 2 ... ... ... ... : ... .. . ... ... ... ... : ... .. . ... : ... .. . ... : ... .. . ...
ROW CB : ... .. . ... ... ... ... : ... .. 2 ... ... ... ... : ... .. . ... : ... .. . ... : ... .. . ...
ROW CC : ... .. 1 ... ... ... ... : ... .. . ... ... ... ... : ... .. . ... : ... .. . ... : ... .. . ...
ROW CD : ... .. . ... ... ... ... : ... .. 1 ... ... ... ... : ... .. . ... : ... .. . ... : ... .. . ...
ROW CE : ... .. . ... ... ... ... : ... .. . ... ... ... ... : ... .. . ... : ... .. . ... : ... .. . ...
ROW CF : ... .. . ... ... ... ... : ... .. . ... ... ... ... : ... .. . ... : ... .. . ... : ... .. . ...
ROW D0 : ... .. . ... ... ... ... : ... .. . ... ... ... ... : ... .. . ... : ... .. . ... : ... .. . ...
ROW D1 : ... .. . ... ... ... ... : ... .. . ... ... ... ... : ... .. . ... : ... .. . ... : ... .. . ...
ROW D2 : F-4 00 5 ... ... ... ... : ... .. . ... ... ... ... : ... .. . ... : ... .. . ... : ... .. . ...
ROW D3 : ... .. . ... ... ... ... : B-3 00 5 ... ... ... ... : ... .. . ... : ... .. . ... : ... .. . ...
ROW D4 : ... .. 4 ... ... ... ... : ... .. . ... ... ... ... : ... .. . ... : ... .. . ... : ... .. . ...
ROW D5 : ... .. . ... ... ... ... : ... .. 4 ... ... ... ... : ... .. . ... : ... .. . ... : ... .. . ...
ROW D6 : ... .. 3 ... ... ... ... : ... .. . ... ... ... ... : ... .. . ... : ... .. . ... : ... .. . ...
ROW D7 : ... .. . ... ... ... ... : ... .. 3 ... ... ... ... : ... .. . ... : ... .. . ... : ... .. . ...
ROW D8 : ... .. 2 ... ... ... ... : ... .. . ... ... ... ... : ... .. . ... : ... .. . ... : ... .. . ...
ROW D9 : ... .. . ... ... ... ... : ... .. 2 ... ... ... ... : ... .. . ... : ... .. . ... : ... .. . ...
ROW DA : ... .. 1 ... ... ... ... : ... .. . ... ... ... ... : ... .. . ... : ... .. . ... : ... .. . ...
ROW DB : ... .. . ... ... ... ... : ... .. 1 ... ... ... ... : ... .. . ... : ... .. . ... : ... .. . ...
ROW DC : ... .. . ... ... ... ... : ... .. . ... ... ... ... : ... .. . ... : ... .. . ... : ... .. . ...
ROW DD : ... .. . ... ... ... ... : ... .. . ... ... ... ... : ... .. . ... : ... .. . ... : ... .. . ...
ROW DE : ... .. . ... ... ... ... : ... .. . ... ... ... ... : ... .. . ... : ... .. . ... : ... .. . ...
ROW DF : ... .. . ... ... ... ... : ... .. . ... ... ... ... : ... .. . ... : ... .. . ... : ... .. . ...

PATTERN 12
ROW 00 : E-4 00 5 V00 ... ... ... : ... .. . ... ... ... ... : C-3 00 . ... : E-# 00 4 V00 : ... .. . F01
ROW 01 : ... .. . ... ... ... ... : D-4 00 5 V00 ... ... ... : ... .. . ... : ... .. . ... : ... .. . ...
ROW 02 : ... .. 4 ... ... ... ... : ... .. . ... ... ... ... : ... .. . ... : ... .. 3 ... : ... .. . ...
ROW 03 : ... .. . ... ... ... ... : ... .. 4 ... ... ... ... : ... .. . ... : ... .. . ... : ... .. . ...
ROW 04 : ... .. 3 ... ... ... ... : ... .. . ... ... ... ... : ... .. . ... : ... .. 2 ... : ... .. . ...
ROW 05 : ... .. . ... ... ... ... : ... .. 3 ... ... ... ... : ... .. . ... : ... .. . ... : ... .. . ...
ROW 06 : ... .. 2 ... ... ... ... : ... .. . ... ... ... ... : ... .. . ... : ... .. 1 ... : ... .. . ...
ROW 07 : ... .. . ... ... ... ... : ... .. 2 ... ... ... ... : ... .. . ... : ... .. . ... : ... .. . ...
ROW 08 : ... .. 1 ... ... ... ... : ... .. . ... ... ... ... : ... .. . ... : ... .. 0 ... : ... .. . ...
ROW 09 : ... .. . ... ... ... ... : ... .. 1 ... ... ... ... : ... .. . ... : ... .. . ... : ... .. . ...
ROW 0A : ... .. . ... ... ... ... : ... .. . ... ... ... ... : ... .. . ... : ... .. 1 ... : ... .. . ...
ROW 0B : ... .. . ... ... ... ... : ... .. . ... ... ... ... : ... .. . ... : ... .. . ... : ... .. . ...
ROW 0C : ... .. . ... ... ... ... : ... .. . ... ... ... ... : ... .. . ... : ... .. 0 ... : ... .. . ...
ROW 0D : ... .. . ... ... ... ... : ... .. . ... ... ... ... : ... .. . ... : ... .. . ... : ... .. . ...
ROW 0E : E-4 00 5 ... ... ... ... : ... .. . ... ... ... ... : ... .. . ... : ... .. . ... : ... .. . ...
ROW 0F : ... .. . ... ... ... ... : D-4 00 5 V00 ... ... ... : ... .. . ... : ... .. . ... : ... .. . ...
ROW 10 : ... .. 4 ... ... ... ... : ... .. . ... ... ... ... : ... .. . ... : ... .. . ... : ... .. . ...
ROW 11 : ... .. . ... ... ... ... : ... .. 4 ... ... ... ... : ... .. . ... : ... .. . ... : ... .. . ...
ROW 12 : ... .. 3 ... ... ... ... : ... .. . ... ... ... ... : ... .. . ... : ... .. . ... : ... .. . ...
ROW 13 : ... .. . ... ... ... ... : ... .. 3 ... ... ... ... : ... .. . ... : ... .. 1 ... : ... .. . ...
ROW 14 : ... .. 2 ... ... ... ... : ... .. . ... ... ... ... : ... .. . ... : ... .. . ... : ... .. . ...
ROW 15 : ... .. . ... ... ... ... : ... .. 2 ... ... ... ... : ... .. . ... : ... .. 0 ... : ... .. . ...
ROW 16 : ... .. 1 ... ... ... ... : ... .. . ... ... ... ... : ... .. . ... : ... .. . ... : ... .. . ...
ROW 17 : ... .. . ... ... ... ... : ... .. 1 ... ... ... ... : ... .. . ... : ... .. . ... : ... .. . ...
ROW 18 : ... .. . ... ... ... ... : ... .. . ... ... ... ... : ... .. . ... : ... .. . ... : ... .. . ...
ROW 19 : ... .. . ... ... ... ... : ... .. . ... ... ... ... : ... .. . ... : ... .. . ... : ... .. . ...
ROW 1A : ... .. . ... ... ... ... : ... .. . ... ... ... ... : ... .. . ... : ... .. . ... : ... .. . ...
ROW 1B : ... .. . ... ... ... ... : ... .. . ... ... ... ... : ... .. . ... : ... .. . ... : ... .. . ...
ROW 1C : E-4 00 5 ... ... ... ... : ... .. . ... ... ... ... : ... .. . ... : ... .. . ... : ... .. . ...
ROW 1D : ... .. . ... ... ... ... : D-4 00 5 ... ... ... ... : ... .. . ... : ... .. . ... : ... .. . ...
ROW 1E : ... .. 4 ... ... ... ... : ... .. . ... ... ... ... : ... .. . ... : ... .. . ... : ... .. . ...
ROW 1F : ... .. . ... ... ... ... : ... .. 4 ... ... ... ... : ... .. . ... : ... .. . ... : ... .. . ...
ROW 20 : ... .. 3 ... ... ... ... : ... .. . ... ... ... ... : ... .. . ... : ... .. . ... : ... .. . ...
ROW 21 : ... .. . ... ... ... ... : ... .. 3 ... ... ... ... : ... .. . ... : ... .. . ... : ... .. . ...
ROW 22 : ... .. 2 ... ... ... ... : ... .. . ... ... ... ... : ... .. . ... : ... .. . ... : ... .. . ...
ROW 23 : ... .. . ... ... ... ... : ... .. 2 ... ... ... ... : ... .. . ... : ... .. . ... : ... .. . ...
ROW 24 : ... .. 1 ... ... ... ... : ... .. . ... ... ... ... : ... .. . ... : ... .. . ... : ... .. . ...
ROW 25 : ... .. . ... ... ... ... : ... .. 1 ... ... ... ... : ... .. . ... : ... .. . ... : ... .. . ...
ROW 26 : ... .. . ... ... ... ... : ... .. . ... ... ... ... : ... .. . ... : ... .. . ... : ... .. . ...
ROW 27 : ... .. . ... ... ... ... : ... .. . ... ... ... ... : ... .. . ... : ... .. . ... : ... .. . ...
ROW 28 : ... .. . ... ... ... ... : ... .. . ... ... ... ... : ... .. . ... : ... .. . ... : ... .. . ...
ROW 29 : ... .. . ... ... ... ... : ... .. . ... ... ... ... : ... .. . ... : ... .. . ... : ... .. . ...
ROW 2A : E-4 00 5 ... ... ... ... : ... .. . ... ... ... ... : F-3 00 . ... : ... .. . ... : ... .. . ...
ROW 2B : ... .. . ... ... ... ... : D-4 00 5 ... ... ... ... : F#3 00 . ... : ... .. . ... : ... .. . ...
ROW 2C : ... .. 4 ... ... ... ... : ... .. . ... ... ... ... : G-3 00 . ... : ... .. . ... : ... .. . ...
ROW 2D : ... .. . ... ... ... ... : ... .. 4 ... ... ... ... : G#3 00 . ... : ... .. . ... : ... .. . ...
ROW 2E : ... .. 3 ... ... ... ... : ... .. . ... ... ... ... : A-3 00 . ... : ... .. . ... : ... .. . ...
ROW 2F : ... .. . ... ... ... ... : ... .. 3 ... ... ... ... : ... .. . ... : ... .. . ... : ... .. . ...
ROW 30 : ... .. 2 ... ... ... ... : ... .. . ... ... ... ... : ... .. . ... : ... .. . ... : ... .. . ...
ROW 31 : ... .. . ... ... ... ... : ... .. 2 ... ... ... ... : ... .. . ... : ... .. . ... : ... .. . ...
ROW 32 : ... .. 1 ... ... ... ... : ... .. . ... ... ... ... : ... .. . ... : ... .. . ... : ... .. . ...
ROW 33 : ... .. . ... ... ... ... : ... .. 1 ... ... ... ... : ... .. . ... : ... .. . ... : ... .. . ...
ROW 34 : ... .. . ... ... ... ... : ... .. . ... ... ... ... : ... .. . ... : ... .. . ... : ... .. . ...
ROW 35 : ... .. . ... ... ... ... : ... .. . ... ... ... ... : ... .. . ... : ... .. . ... : ... .. . ...
ROW 36 : ... .. . ... ... ... ... : ... .. . ... ... ... ... : ... .. . ... : ... .. . ... : ... .. . ...
ROW 37 : ... .. . ... ... ... ... : ... .. . ... ... ... ... : ... .. . ... : ... .. . ... : ... .. . ...
ROW 38 : E-4 00 5 ... ... ... ... : ... .. . ... ... ... ... : G-3 00 . ... : C-# 00 3 V01 : ... .. . ...
ROW 39 : ... .. . ... ... ... ... : D-4 00 5 ... ... ... ... : ... .. . ... : ... .. . ... : ... .. . ...
ROW 3A : ... .. 4 ... ... ... ... : ... .. . ... ... ... ... : ... .. . ... : ... .. 2 ... : ... .. . ...
ROW 3B : ... .. . ... ... ... ... : ... .. 4 ... ... ... ... : ... .. . ... : ... .. . ... : ... .. . ...
ROW 3C : ... .. 3 ... ... ... ... : ... .. . ... ... ... ... : ... .. . ... : ... .. 1 ... : ... .. . ...
ROW 3D : ... .. . ... ... ... ... : ... .. 3 ... ... ... ... : ... .. . ... : ... .. . ... : ... .. . ...
ROW 3E : ... .. 2 ... ... ... ... : ... .. . ... ... ... ... : ... .. . ... : ... .. 0 ... : ... .. . ...
ROW 3F : ... .. . ... ... ... ... : ... .. 2 ... ... ... ... : ... .. . ... : ... .. . ... : ... .. . ...
ROW 40 : ... .. 1 ... ... ... ... : ... .. . ... ... ... ... : ... .. . ... : ... .. . ... : ... .. . ...
ROW 41 : ... .. . ... ... ... ... : ... .. 1 ... ... ... ... : ... .. . ... : ... .. . ... : ... .. . ...
ROW 42 : ... .. . ... ... ... ... : ... .. . ... ... ... ... : ... .. . ... : ... .. 1 ... : ... .. . ...
ROW 43 : ... .. . ... ... ... ... : ... .. . ... ... ... ... : ... .. . ... : ... .. . ... : ... .. . ...
ROW 44 : ... .. . ... ... ... ... : ... .. . ... ... ... ... : ... .. . ... : ... .. 0 ... : ... .. . ...
ROW 45 : ... .. . ... ... ... ... : ... .. . ... ... ... ... : ... .. . ... : ... .. . ... : ... .. . ...
ROW 46 : E-4 00 5 ... ... ... ... : ... .. . ... ... ... ... : ... .. . ... : ... .. . ... : ... .. . ...
ROW 47 : ... .. . ... ... ... ... : D-4 00 5 ... ... ... ... : ... .. . ... : ... .. . ... : ... .. . ...
ROW 48 : ... .. 4 ... ... ... ... : ... .. . ... ... ... ... : ... .. . ... : ... .. . ... : ... .. . ...
ROW 49 : ... .. . ... ... ... ... : ... .. 4 ... ... ... ... : ... .. . ... : ... .. . ... : ... .. . ...
ROW 4A : ... .. 3 ... ... ... ... : ... .. . ... ... ... ... : ... .. . ... : ... .. . ... : ... .. . ...
ROW 4B : ... .. . ... ... ... ... : ... .. 3 ... ... ... ... : ... .. . ... : ... .. 1 ... : ... .. . ...
ROW 4C : ... .. 2 ... ... ... ... : ... .. . ... ... ... ... : ... .. . ... : ... .. . ... : ... .. . ...
ROW 4D : ... .. . ... ... ... ... : ... .. 2 ... ... ... ... : ... .. . ... : ... .. 0 ... : ... .. . ...
ROW 4E : ... .. 1 ... ... ... ... : ... .. . ... ... ... ... : ... .. . ... : ... .. . ... : ... .. . ...
ROW 4F : ... .. . ... ... ... ... : ... .. 1 ... ... ... ... : ... .. . ... : ... .. . ... : ... .. . ...
ROW 50 : ... .. . ... ... ... ... : ... .. . ... ... ... ... : ... .. . ... : ... .. . ... : ... .. . ...
ROW 51 : ... .. . ... ... ... ... : ... .. . ... ... ... ... : ... .. . ... : ... .. . ... : ... .. . ...
ROW 52 : ... .. . ... ... ... ... : ... .. . ... ... ... ... : ... .. . ... : ... .. . ... : ... .. . ...
ROW 53 : ... .. . ... ... ... ... : ... .. . ... ... ... ... : ... .. . ... : ... .. . ... : ... .. . ...
ROW 54 : E-4 00 5 ... ... ... ... : ... .. . ... ... ... ... : ... .. . ... : ... .. . ... : ... .. . ...
ROW 55 : ... .. . ... ... ... ... : D-4 00 5 ... ... ... ... : ... .. . ... : ... .. . ... : ... .. . ...
ROW 56 : ... .. 4 ... ... ... ... : ... .. . ... ... ... ... : ... .. . ... : ... .. . ... : ... .. . ...
ROW 57 : ... .. . ... ... ... ... : ... .. 4 ... ... ... ... : ... .. . ... : ... .. . ... : ... .. . ...
ROW 58 : ... .. 3 ... ... ... ... : ... .. . ... ... ... ... : ... .. . ... : ... .. . ... : ... .. . ...
ROW 59 : ... .. . ... ... ... ... : ... .. 3 ... ... ... ... : ... .. . ... : ... .. . ... : ... .. . ...
ROW 5A : ... .. 2 ... ... ... ... : ... .. . ... ... ... ... : ... .. . ... : ... .. . ... : ... .. . ...
ROW 5B : ... .. . ... ... ... ... : ... .. 2 ... ... ... ... : ... .. . ... : ... .. . ... : ... .. . ...
ROW 5C : ... .. 1 ... ... ... ... : ... .. . ... ... ... ... : ... .. . ... : ... .. . ... : ... .. . ...
ROW 5D : ... .. . ... ... ... ... : ... .. 1 ... ... ... ... : ... .. . ... : ... .. . ... : ... .. . ...
ROW 5E : ... .. . ... ... ... ... : ... .. . ... ... ... ... : ... .. . ... : ... .. . ... : ... .. . ...
ROW 5F : ... .. . ... ... ... ... : ... .. . ... ... ... ... : ... .. . ... : ... .. . ... : ... .. . ...
ROW 60 : ... .. . ... ... ... ... : ... .. . ... ... ... ... : ... .. . ... : ... .. . ... : ... .. . ...
ROW 61 : ... .. . ... ... ... ... : ... .. . ... ... ... ... : ... .. . ... : ... .. . ... : ... .. . ...
ROW 62 : E-4 00 5 ... ... ... ... : ... .. . ... ... ... ... : F#3 00 . ... : ... .. . ... : ... .. . ...
ROW 63 : ... .. . ... ... ... ... : D-4 00 5 ... ... ... ... : ... .. . ... : ... .. . ... : ... .. . ...
ROW 64 : ... .. 4 ... ... ... ... : ... .. . ... ... ... ... : ... .. . ... : ... .. . ... : ... .. . ...
ROW 65 : ... .. . ... ... ... ... : ... .. 4 ... ... ... ... : ... .. . ... : ... .. . ... : ... .. . ...
ROW 66 : ... .. 3 ... ... ... ... : ... .. . ... ... ... ... : ... .. . ... : ... .. . ... : ... .. . ...
ROW 67 : ... .. . ... ... ... ... : ... .. 3 ... ... ... ... : ... .. . ... : ... .. . ... : ... .. . ...
ROW 68 : ... .. 2 ... ... ... ... : ... .. . ... ... ... ... : ... .. . ... : ... .. . ... : ... .. . ...
ROW 69 : ... .. . ... ... ... ... : ... .. 2 ... ... ... ... : ... .. . ... : ... .. . ... : ... .. . ...
ROW 6A : ... .. 1 ... ... ... ... : ... .. . ... ... ... ... : ... .. . ... : ... .. . ... : ... .. . ...
ROW 6B : ... .. . ... ... ... ... : ... .. 1 ... ... ... ... : ... .. . ... : ... .. . ... : ... .. . ...
ROW 6C : ... .. . ... ... ... ... : ... .. . ... ... ... ... : ... .. . ... : ... .. . ... : ... .. . ...
ROW 6D : ... .. . ... ... ... ... : ... .. . ... ... ... ... : ... .. . ... : ... .. . ... : ... .. . ...
ROW 6E : ... .. . ... ... ... ... : ... .. . ... ... ... ... : ... .. . ... : ... .. . ... : ... .. . ...
ROW 6F : ... .. . ... ... ... ... : ... .. . ... ... ... ... : ... .. . ... : ... .. . ... : ... .. . ...
ROW 70 : F-4 00 5 V00 ... ... ... : ... .. . ... ... ... ... : G-3 00 . ... : E-# 00 4 V00 : ... .. . ...
ROW 71 : ... .. . ... ... ... ... : C-4 00 5 V00 ... ... ... : ... .. . ... : ... .. . ... : ... .. . ...
ROW 72 : ... .. 4 ... ... ... ... : ... .. . ... ... ... ... : ... .. . ... : ... .. 3 ... : ... .. . ...
ROW 73 : ... .. . ... ... ... ... : ... .. 4 ... ... ... ... : ... .. . ... : ... .. . ... : ... .. . ...
ROW 74 : ... .. 3 ... ... ... ... : ... .. . ... ... ... ... : ... .. . ... : ... .. 2 ... : ... .. . ...
ROW 75 : ... .. . ... ... ... ... : ... .. 3 ... ... ... ... : ... .. . ... : ... .. . ... : ... .. . ...
ROW 76 : ... .. 2 ... ... ... ... : ... .. . ... ... ... ... : ... .. . ... : ... .. 1 ... : ... .. . ...
ROW 77 : ... .. . ... ... ... ... : ... .. 2 ... ... ... ... : ... .. . ... : ... .. . ... : ... .. . ...
ROW 78 : ... .. 1 ... ... ... ... : ... .. . ... ... ... ... : ... .. . ... : ... .. 0 ... : ... .. . ...
ROW 79 : ... .. . ... ... ... ... : ... .. 1 ... ... ... ... : ... .. . ... : ... .. . ... : ... .. . ...
ROW 7A : ... .. . ... ... ... ... : ... .. . ... ... ... ... : ... .. . ... : ... .. 1 ... : ... .. . ...
ROW 7B : ... .. . ... ... ... ... : ... .. . ... ... ... ... : ... .. . ... : ... .. . ... : ... .. . ...
ROW 7C : ... .. . ... ... ... ... : ... .. . ... ... ... ... : ... .. . ... : ... .. 0 ... : ... .. . ...
ROW 7D : ... .. . ... ... ... ... : ... .. . ... ... ... ... : ... .. . ... : ... .. . ... : ... .. . ...
ROW 7E : F-4 00 5 ... ... ... ... : ... .. . ... ... ... ... : ... .. . ... : ... .. . ... : ... .. . ...
ROW 7F : ... .. . ... ... ... ... : C-4 00 5 ... ... ... ... : ... .. . ... : ... .. . ... : ... .. . ...
ROW 80 : ... .. 4 ... ... ... ... : ... .. . ... ... ... ... : ... .. . ... : ... .. . ... : ... .. . ...
ROW 81 : ... .. . ... ... ... ... : ... .. 4 ... ... ... ... : ... .. . ... : ... .. . ... : ... .. . ...
ROW 82 : ... .. 3 ... ... ... ... : ... .. . ... ... ... ... : ... .. . ... : ... .. . ... : ... .. . ...
ROW 83 : ... .. . ... ... ... ... : ... .. 3 ... ... ... ... : ... .. . ... : ... .. 1 ... : ... .. . ...
ROW 84 : ... .. 2 ... ... ... ... : ... .. . ... ... ... ... : ... .. . ... : ... .. . ... : ... .. . ...
ROW 85 : ... .. . ... ... ... ... : ... .. 2 ... ... ... ... : ... .. . ... : ... .. 0 ... : ... .. . ...
ROW 86 : ... .. 1 ... ... ... ... : ... .. . ... ... ... ... : ... .. . ... : ... .. . ... : ... .. . ...
ROW 87 : ... .. . ... ... ... ... : ... .. 1 ... ... ... ... : ... .. . ... : ... .. . ... : ... .. . ...
ROW 88 : ... .. . ... ... ... ... : ... .. . ... ... ... ... : ... .. . ... : ... .. . ... : ... .. . ...
ROW 89 : ... .. . ... ... ... ... : ... .. . ... ... ... ... : ... .. . ... : ... .. . ... : ... .. . ...
ROW 8A : ... .. . ... ... ... ... : ... .. . ... ... ... ... : ... .. . ... : ... .. . ... : ... .. . ...
ROW 8B : ... .. . ... ... ... ... : ... .. . ... ... ... ... : ... .. . ... : ... .. . ... : ... .. . ...
ROW 8C : F-4 00 5 ... ... ... ... : ... .. . ... ... ... ... : D-3 00 . ... : ... .. . ... : ... .. . ...
ROW 8D : ... .. . ... ... ... ... : C-4 00 5 ... ... ... ... : ... .. . ... : ... .. . ... : ... .. . ...
ROW 8E : ... .. 4 ... ... ... ... : ... .. . ... ... ... ... : ... .. . ... : ... .. . ... : ... .. . ...
ROW 8F : ... .. . ... ... ... ... : ... .. 4 ... ... ... ... : ... .. . ... : ... .. . ... : ... .. . ...
ROW 90 : ... .. 3 ... ... ... ... : ... .. . ... ... ... ... : ... .. . ... : ... .. . ... : ... .. . ...
ROW 91 : ... .. . ... ... ... ... : ... .. 3 ... ... ... ... : ... .. . ... : ... .. . ... : ... .. . ...
ROW 92 : ... .. 2 ... ... ... ... : ... .. . ... ... ... ... : ... .. . ... : ... .. . ... : ... .. . ...
ROW 93 : ... .. . ... ... ... ... : ... .. 2 ... ... ... ... : ... .. . ... : ... .. . ... : ... .. . ...
ROW 94 : ... .. 1 ... ... ... ... : ... .. . ... ... ... ... : ... .. . ... : ... .. . ... : ... .. . ...
ROW 95 : ... .. . ... ... ... ... : ... .. 1 ... ... ... ... : ... .. . ... : ... .. . ... : ... .. . ...
ROW 96 : ... .. . ... ... ... ... : ... .. . ... ... ... ... : ... .. . ... : ... .. . ... : ... .. . ...
ROW 97 : ... .. . ... ... ... ... : ... .. . ... ... ... ... : ... .. . ... : ... .. . ... : ... .. . ...
ROW 98 : ... .. . ... ... ... ... : ... .. . ... ... ... ... : ... .. . ... : ... .. . ... : ... .. . ...
ROW 99 : ... .. . ... ... ... ... : ... .. . ... ... ... ... : ... .. . ... : ... .. . ... : ... .. . ...
ROW 9A : F-4 00 5 ... ... ... ... : ... .. . ... ... ... ... : ... .. . ... : ... .. . ... : ... .. . ...
ROW 9B : ... .. . ... ... ... ... : C-4 00 5 ... ... ... ... : ... .. . ... : ... .. . ... : ... .. . ...
ROW 9C : ... .. 4 ... ... ... ... : ... .. . ... ... ... ... : ... .. . ... : ... .. . ... : ... .. . ...
ROW 9D : ... .. . ... ... ... ... : ... .. 4 ... ... ... ... : ... .. . ... : ... .. . ... : ... .. . ...
ROW 9E : ... .. 3 ... ... ... ... : ... .. . ... ... ... ... : ... .. . ... : ... .. . ... : ... .. . ...
ROW 9F : ... .. . ... ... ... ... : ... .. 3 ... ... ... ... : ... .. . ... : ... .. . ... : ... .. . ...
ROW A0 : ... .. 2 ... ... ... ... : ... .. . ... ... ... ... : ... .. . ... : ... .. . ... : ... .. . ...
ROW A1 : ... .. . ... ... ... ... : ... .. 2 ... ... ... ... : ... .. . ... : ... .. . ... : ... .. . ...
ROW A2 : ... .. 1 ... ... ... ... : ... .. . ... ... ... ... : ... .. . ... : ... .. . ... : ... .. . ...
ROW A3 : ... .. . ... ... ... ... : ... .. 1 ... ... ... ... : ... .. . ... : ... .. . ... : ... .. . ...
ROW A4 : ... .. . ... ... ... ... : ... .. . ... ... ... ... : ... .. . ... : ... .. . ... : ... .. . ...
ROW A5 : ... .. . ... ... ... ... : ... .. . ... ... ... ... : ... .. . ... : ... .. . ... : ... .. . ...
ROW A6 : ... .. . ... ... ... ... : ... .. . ... ... ... ... : ... .. . ... : ... .. . ... : ... .. . ...
ROW A7 : ... .. . ... ... ... ... : ... .. . ... ... ... ... : ... .. . ... : ... .. . ... : ... .. . ...
ROW A8 : F-4 00 5 ... ... ... ... : ... .. . ... ... ... ... : G-2 00 . ... : C-# 00 3 V01 : ... .. . ...
ROW A9 : ... .. . ... ... ... ... : B-3 00 5 ... ... ... ... : ... .. . ... : ... .. . ... : ... .. . ...
ROW AA : ... .. 4 ... ... ... ... : ... .. . ... ... ... ... : ... .. . ... : ... .. 2 ... : ... .. . ...
ROW AB : ... .. . ... ... ... ... : ... .. 4 ... ... ... ... : ... .. . ... : ... .. . ... : ... .. . ...
ROW AC : ... .. 3 ... ... ... ... : ... .. . ... ... ... ... : ... .. . ... : ... .. 1 ... : ... .. . ...
ROW AD : ... .. . ... ... ... ... : ... .. 3 ... ... ... ... : ... .. . ... : ... .. . ... : ... .. . ...
ROW AE : ... .. 2 ... ... ... ... : ... .. . ... ... ... ... : ... .. . ... : ... .. 0 ... : ... .. . ...
ROW AF : ... .. . ... ... ... ... : ... .. 2 ... ... ... ... : ... .. . ... : ... .. . ... : ... .. . ...
ROW B0 : ... .. 1 ... ... ... ... : ... .. . ... ... ... ... : ... .. . ... : ... .. . ... : ... .. . ...
ROW B1 : ... .. . ... ... ... ... : ... .. 1 ... ... ... ... : ... .. . ... : ... .. . ... : ... .. . ...
ROW B2 : ... .. . ... ... ... ... : ... .. . ... ... ... ... : ... .. . ... : ... .. 1 ... : ... .. . ...
ROW B3 : ... .. . ... ... ... ... : ... .. . ... ... ... ... : ... .. . ... : ... .. . ... : ... .. . ...
ROW B4 : ... .. . ... ... ... ... : ... .. . ... ... ... ... : ... .. . ... : ... .. 0 ... : ... .. . ...
ROW B5 : ... .. . ... ... ... ... : ... .. . ... ... ... ... : ... .. . ... : ... .. . ... : ... .. . ...
ROW B6 : F-4 00 5 ... ... ... ... : ... .. . ... ... ... ... : ... .. . ... : ... .. . ... : ... .. . ...
ROW B7 : ... .. . ... ... ... ... : B-3 00 5 ... ... ... ... : ... .. . ... : ... .. . ... : ... .. . ...
ROW B8 : ... .. 4 ... ... ... ... : ... .. . ... ... ... ... : ... .. . ... : ... .. . ... : ... .. . ...
ROW B9 : ... .. . ... ... ... ... : ... .. 4 ... ... ... ... : ... .. . ... : ... .. . ... : ... .. . ...
ROW BA : ... .. 3 ... ... ... ... : ... .. . ... ... ... ... : ... .. . ... : ... .. . ... : ... .. . ...
ROW BB : ... .. . ... ... ... ... : ... .. 3 ... ... ... ... : ... .. . ... : ... .. 1 ... : ... .. . ...
ROW BC : ... .. 2 ... ... ... ... : ... .. . ... ... ... ... : ... .. . ... : ... .. . ... : ... .. . ...
ROW BD : ... .. . ... ... ... ... : ... .. 2 ... ... ... ... : ... .. . ... : ... .. 0 ... : ... .. . ...
ROW BE : ... .. 1 ... ... ... ... : ... .. . ... ... ... ... : ... .. . ... : ... .. . ... : ... .. . ...
ROW BF : ... .. . ... ... ... ... : ... .. 1 ... ... ... ... : ... .. . ... : ... .. . ... : ... .. . ...
ROW C0 : ... .. . ... ... ... ... : ... .. . ... ... ... ... : ... .. . ... : ... .. . ... : ... .. . ...
ROW C1 : ... .. . ... ... ... ... : ... .. . ... ... ... ... : ... .. . ... : ... .. . ... : ... .. . ...
ROW C2 : ... .. . ... ... ... ... : ... .. . ... ... ... ... : ... .. . ... : ... .. . ... : ... .. . ...
ROW C3 : ... .. . ... ... ... ... : ... .. . ... ... ... ... : ... .. . ... : ... .. . ... : ... .. . ...
ROW C4 : F-4 00 5 ... ... ... ... : ... .. . ... ... ... ... : ... .. . ... : ... .. . ... : ... .. . ...
ROW C5 : ... .. . ... ... ... ... : B-3 00 5 ... ... ... ... : ... .. . ... : ... .. . ... : ... .. . ...
ROW C6 : ... .. 4 ... ... ... ... : ... .. . ... ... ... ... : ... .. . ... : ... .. . ... : ... .. . ...
ROW C7 : ... .. . ... ... ... ... : ... .. 4 ... ... ... ... : ... .. . ... : ... .. . ... : ... .. . ...
ROW C8 : ... .. 3 ... ... ... ... : ... .. . ... ... ... ... : ... .. . ... : ... .. . ... : ... .. . ...
ROW C9 : ... .. . ... ... ... ... : ... .. 3 ... ... ... ... : ... .. . ... : ... .. . ... : ... .. . ...
ROW CA : ... .. 2 ... ... ... ... : ... .. . ... ... ... ... : ... .. . ... : ... .. . ... : ... .. . ...
ROW CB : ... .. . ... ... ... ... : ... .. 2 ... ... ... ... : ... .. . ... : ... .. . ... : ... .. . ...
ROW CC : ... .. 1 ... ... ... ... : ... .. . ... ... ... ... : ... .. . ... : ... .. . ... : ... .. . ...
ROW CD : ... .. . ... ... ... ... : ... .. 1 ... ... ... ... : ... .. . ... : ... .. . ... : ... .. . ...
ROW CE : ... .. . ... ... ... ... : ... .. . ... ... ... ... : ... .. . ... : ... .. . ... : ... .. . ...
ROW CF : ... .. . ... ... ... ... : ... .. . ... ... ... ... : ... .. . ... : ... .. . ... : ... .. . ...
ROW D0 : ... .. . ... ... ... ... : ... .. . ... ... ... ... : ... .. . ... : ... .. . ... : ... .. . ...
ROW D1 : ... .. . ... ... ... ... : ... .. . ... ... ... ... : ... .. . ... : ... .. . ... : ... .. . ...
ROW D2 : F-4 00 5 ... ... ... ... : ... .. . ... ... ... ... : ... .. . ... : ... .. . ... : ... .. . ...
ROW D3 : ... .. . ... ... ... ... : B-3 00 5 ... ... ... ... : ... .. . ... : ... .. . ... : ... .. . ...
ROW D4 : ... .. 4 ... ... ... ... : ... .. . ... ... ... ... : ... .. . ... : ... .. . ... : ... .. . ...
ROW D5 : ... .. . ... ... ... ... : ... .. 4 ... ... ... ... : ... .. . ... : ... .. . ... : ... .. . ...
ROW D6 : ... .. 3 ... ... ... ... : ... .. . ... ... ... ... : ... .. . ... : ... .. . ... : ... .. . ...
ROW D7 : ... .. . ... ... ... ... : ... .. 3 ... ... ... ... : ... .. . ... : ... .. . ... : ... .. . ...
ROW D8 : ... .. 2 ... ... ... ... : ... .. . ... ... ... ... : ... .. . ... : ... .. . ... : ... .. . ...
ROW D9 : ... .. . ... ... ... ... : ... .. 2 ... ... ... ... : ... .. . ... : ... .. . ... : ... .. . ...
ROW DA : ... .. 1 ... ... ... ... : ... .. . ... ... ... ... : ... .. . ... : ... .. . ... : ... .. . ...
ROW DB : ... .. . ... ... ... ... : ... .. 1 ... ... ... ... : ... .. . ... : ... .. . ... : ... .. . ...
ROW DC : ... .. . ... ... ... ... : ... .. . ... ... ... ... : ... .. . ... : ... .. . ... : ... .. . ...
ROW DD : ... .. . ... ... ... ... : ... .. . ... ... ... ... : ... .. . ... : ... .. . ... : ... .. . ...
ROW DE : ... .. . ... ... ... ... : ... .. . ... ... ... ... : ... .. . ... : ... .. . ... : ... .. . ...
ROW DF : ... .. . ... ... ... ... : ... .. . ... ... ... ... : ... .. . ... : ... .. . ... : ... .. . ...

PATTERN 13
ROW 00 : G-4 00 5 V00 ... ... ... : D#3 00 . ... ... ... ... : D#3 00 . ... : ... .. . ... : ... .. . ...
ROW 01 : ... .. . ... ... ... ... : ... .. . ... ... ... ... : ... .. . ... : ... .. . ... : ... .. . ...
ROW 02 : ... .. 4 ... ... ... ... : ... .. . ... ... ... ... : ... .. . ... : ... .. . ... : ... .. . ...
ROW 03 : ... .. . ... ... ... ... : ... .. . ... ... ... ... : ... .. . ... : ... .. . ... : ... .. . ...
ROW 04 : ... .. 3 ... ... ... ... : ... .. . ... ... ... ... : ... .. . ... : ... .. . ... : ... .. . ...
ROW 05 : ... .. . ... ... ... ... : ... .. . ... ... ... ... : ... .. . ... : ... .. . ... : ... .. . ...
ROW 06 : ... .. 2 ... ... ... ... : ... .. . ... ... ... ... : ... .. . ... : ... .. . ... : ... .. . ...
ROW 07 : ... .. . ... ... ... ... : ... .. . ... ... ... ... : ... .. . ... : ... .. . ... : ... .. . ...
ROW 08 : ... .. 1 ... ... ... ... : ... .. . ... ... ... ... : ... .. . ... : ... .. . ... : ... .. . ...
ROW 09 : ... .. . ... ... ... ... : ... .. . ... ... ... ... : ... .. . ... : ... .. . ... : ... .. . ...
ROW 0A : ... .. . ... ... ... ... : ... .. . ... ... ... ... : ... .. . ... : ... .. . ... : ... .. . ...
ROW 0B : ... .. . ... ... ... ... : ... .. . ... ... ... ... : ... .. . ... : ... .. . ... : ... .. . ...
ROW 0C : ... .. . ... ... ... ... : ... .. . ... ... ... ... : ... .. . ... : ... .. . ... : ... .. . ...
ROW 0D : ... .. . ... ... ... ... : ... .. . ... ... ... ... : ... .. . ... : ... .. . ... : ... .. . ...
ROW 0E : G-4 00 5 ... ... ... ... : ... .. . ... ... ... ... : ... .. . ... : ... .. . ... : ... .. . ...
ROW 0F : ... .. . ... ... ... ... : F-4 00 5 V00 ... ... ... : ... .. . ... : ... .. . ... : ... .. . ...
ROW 10 : ... .. 4 ... ... ... ... : ... .. . ... ... ... ... : ... .. . ... : ... .. . ... : ... .. . ...
ROW 11 : ... .. . ... ... ... ... : ... .. 4 ... ... ... ... : ... .. . ... : ... .. . ... : ... .. . ...
ROW 12 : ... .. 3 ... ... ... ... : ... .. . ... ... ... ... : ... .. . ... : ... .. . ... : ... .. . ...
ROW 13 : ... .. . ... ... ... ... : ... .. 3 ... ... ... ... : ... .. . ... : ... .. . ... : ... .. . ...
ROW 14 : ... .. 2 ... ... ... ... : ... .. . ... ... ... ... : ... .. . ... : ... .. . ... : ... .. . ...
ROW 15 : ... .. . ... ... ... ... : ... .. 2 ... ... ... ... : ... .. . ... : ... .. . ... : ... .. . ...
ROW 16 : ... .. 1 ... ... ... ... : ... .. . ... ... ... ... : ... .. . ... : ... .. . ... : ... .. . ...
ROW 17 : ... .. . ... ... ... ... : ... .. 1 ... ... ... ... : ... .. . ... : ... .. . ... : ... .. . ...
ROW 18 : ... .. . ... ... ... ... : ... .. . ... ... ... ... : ... .. . ... : ... .. . ... : ... .. . ...
ROW 19 : ... .. . ... ... ... ... : ... .. . ... ... ... ... : ... .. . ... : ... .. . ... : ... .. . ...
ROW 1A : ... .. . ... ... ... ... : ... .. . ... ... ... ... : ... .. . ... : ... .. . ... : ... .. . ...
ROW 1B : ... .. . ... ... ... ... : ... .. . ... ... ... ... : ... .. . ... : ... .. . ... : ... .. . ...
ROW 1C : G-4 00 5 ... ... ... ... : ... .. . ... ... ... ... : ... .. . ... : F-# 00 5 V01 : ... .. . ...
ROW 1D : ... .. . ... ... ... ... : F-4 00 5 ... ... ... ... : ... .. . ... : ... .. 4 ... : ... .. . ...
ROW 1E : ... .. 4 ... ... ... ... : ... .. . ... ... ... ... : ... .. . ... : ... .. 3 ... : ... .. . ...
ROW 1F : ... .. . ... ... ... ... : ... .. 4 ... ... ... ... : ... .. . ... : ... .. 2 ... : ... .. . ...
ROW 20 : ... .. 3 ... ... ... ... : ... .. . ... ... ... ... : ... .. . ... : ... .. 1 ... : ... .. . ...
ROW 21 : ... .. . ... ... ... ... : ... .. 3 ... ... ... ... : ... .. . ... : ... .. 0 ... : ... .. . ...
ROW 22 : ... .. 2 ... ... ... ... : ... .. . ... ... ... ... : ... .. . ... : ... .. . ... : ... .. . ...
ROW 23 : ... .. . ... ... ... ... : ... .. 2 ... ... ... ... : ... .. . ... : ... .. . ... : ... .. . ...
ROW 24 : ... .. 1 ... ... ... ... : ... .. . ... ... ... ... : ... .. . ... : ... .. . ... : ... .. . ...
ROW 25 : ... .. . ... ... ... ... : ... .. 1 ... ... ... ... : ... .. . ... : ... .. . ... : ... .. . ...
ROW 26 : ... .. . ... ... ... ... : ... .. . ... ... ... ... : ... .. . ... : ... .. . ... : ... .. . ...
ROW 27 : ... .. . ... ... ... ... : ... .. . ... ... ... ... : ... .. . ... : ... .. . ... : ... .. . ...
ROW 28 : ... .. . ... ... ... ... : ... .. . ... ... ... ... : ... .. . ... : ... .. . ... : ... .. . ...
ROW 29 : ... .. . ... ... ... ... : ... .. . ... ... ... ... : ... .. . ... : ... .. . ... : ... .. . ...
ROW 2A : G-4 00 5 ... ... ... ... : ... .. . ... ... ... ... : G#3 00 . ... : ... .. . ... : ... .. . ...
ROW 2B : ... .. . ... ... ... ... : F-4 00 5 ... ... ... ... : A-3 00 . ... : ... .. . ... : ... .. . ...
ROW 2C : ... .. 4 ... ... ... ... : ... .. . ... ... ... ... : A#3 00 . ... : ... .. . ... : ... .. . ...
ROW 2D : ... .. . ... ... ... ... : ... .. 4 ... ... ... ... : B-3 00 . ... : ... .. . ... : ... .. . ...
ROW 2E : ... .. 3 ... ... ... ... : ... .. . ... ... ... ... : C-4 00 . ... : ... .. . ... : ... .. . ...
ROW 2F : ... .. . ... ... ... ... : ... .. 3 ... ... ... ... : ... .. . ... : ... .. . ... : ... .. . ...
ROW 30 : ... .. 2 ... ... ... ... : ... .. . ... ... ... ... : ... .. . ... : ... .. . ... : ... .. . ...
ROW 31 : ... .. . ... ... ... ... : ... .. 2 ... ... ... ... : ... .. . ... : ... .. . ... : ... .. . ...
ROW 32 : ... .. 1 ... ... ... ... : ... .. . ... ... ... ... : ... .. . ... : ... .. . ... : ... .. . ...
ROW 33 : ... .. . ... ... ... ... : ... .. 1 ... ... ... ... : ... .. . ... : ... .. . ... : ... .. . ...
ROW 34 : ... .. . ... ... ... ... : ... .. . ... ... ... ... : ... .. . ... : ... .. . ... : ... .. . ...
ROW 35 : ... .. . ... ... ... ... : ... .. . ... ... ... ... : ... .. . ... : ... .. . ... : ... .. . ...
ROW 36 : ... .. . ... ... ... ... : ... .. . ... ... ... ... : ... .. . ... : ... .. . ... : ... .. . ...
ROW 37 : ... .. . ... ... ... ... : ... .. . ... ... ... ... : ... .. . ... : ... .. . ... : ... .. . ...
ROW 38 : G-4 00 5 ... ... ... ... : ... .. . ... ... ... ... : A#3 00 . ... : ... .. . ... : ... .. . ...
ROW 39 : ... .. . ... ... ... ... : F-4 00 5 ... ... ... ... : ... .. . ... : ... .. . ... : ... .. . ...
ROW 3A : ... .. 4 ... ... ... ... : ... .. . ... ... ... ... : ... .. . ... : ... .. . ... : ... .. . ...
ROW 3B : ... .. . ... ... ... ... : ... .. 4 ... ... ... ... : ... .. . ... : ... .. . ... : ... .. . ...
ROW 3C : ... .. 3 ... ... ... ... : ... .. . ... ... ... ... : ... .. . ... : ... .. . ... : ... .. . ...
ROW 3D : ... .. . ... ... ... ... : ... .. 3 ... ... ... ... : ... .. . ... : ... .. . ... : ... .. . ...
ROW 3E : ... .. 2 ... ... ... ... : ... .. . ... ... ... ... : ... .. . ... : ... .. . ... : ... .. . ...
ROW 3F : ... .. . ... ... ... ... : ... .. 2 ... ... ... ... : ... .. . ... : ... .. . ... : ... .. . ...
ROW 40 : ... .. 1 ... ... ... ... : ... .. . ... ... ... ... : ... .. . ... : ... .. . ... : ... .. . ...
ROW 41 : ... .. . ... ... ... ... : ... .. 1 ... ... ... ... : ... .. . ... : ... .. . ... : ... .. . ...
ROW 42 : ... .. . ... ... ... ... : ... .. . ... ... ... ... : ... .. . ... : ... .. . ... : ... .. . ...
ROW 43 : ... .. . ... ... ... ... : ... .. . ... ... ... ... : ... .. . ... : ... .. . ... : ... .. . ...
ROW 44 : ... .. . ... ... ... ... : ... .. . ... ... ... ... : ... .. . ... : ... .. . ... : ... .. . ...
ROW 45 : ... .. . ... ... ... ... : ... .. . ... ... ... ... : ... .. . ... : ... .. . ... : ... .. . ...
ROW 46 : G-4 00 5 ... ... ... ... : ... .. . ... ... ... ... : ... .. . ... : ... .. . ... : ... .. . ...
ROW 47 : ... .. . ... ... ... ... : F-4 00 5 ... ... ... ... : ... .. . ... : ... .. . ... : ... .. . ...
ROW 48 : ... .. 4 ... ... ... ... : ... .. . ... ... ... ... : ... .. . ... : ... .. . ... : ... .. . ...
ROW 49 : ... .. . ... ... ... ... : ... .. 4 ... ... ... ... : ... .. . ... : ... .. . ... : ... .. . ...
ROW 4A : ... .. 3 ... ... ... ... : ... .. . ... ... ... ... : ... .. . ... : ... .. . ... : ... .. . ...
ROW 4B : ... .. . ... ... ... ... : ... .. 3 ... ... ... ... : ... .. . ... : ... .. . ... : ... .. . ...
ROW 4C : ... .. 2 ... ... ... ... : ... .. . ... ... ... ... : ... .. . ... : ... .. . ... : ... .. . ...
ROW 4D : ... .. . ... ... ... ... : ... .. 2 ... ... ... ... : ... .. . ... : ... .. . ... : ... .. . ...
ROW 4E : ... .. 1 ... ... ... ... : ... .. . ... ... ... ... : ... .. . ... : ... .. . ... : ... .. . ...
ROW 4F : ... .. . ... ... ... ... : ... .. 1 ... ... ... ... : ... .. . ... : ... .. . ... : ... .. . ...
ROW 50 : ... .. . ... ... ... ... : ... .. . ... ... ... ... : ... .. . ... : ... .. . ... : ... .. . ...
ROW 51 : ... .. . ... ... ... ... : ... .. . ... ... ... ... : ... .. . ... : ... .. . ... : ... .. . ...
ROW 52 : ... .. . ... ... ... ... : ... .. . ... ... ... ... : ... .. . ... : ... .. . ... : ... .. . ...
ROW 53 : ... .. . ... ... ... ... : ... .. . ... ... ... ... : ... .. . ... : ... .. . ... : ... .. . ...
ROW 54 : G-4 00 5 ... ... ... ... : ... .. . ... ... ... ... : ... .. . ... : F-# 00 5 V01 : ... .. . ...
ROW 55 : ... .. . ... ... ... ... : F-4 00 5 ... ... ... ... : ... .. . ... : ... .. 4 ... : ... .. . ...
ROW 56 : ... .. 4 ... ... ... ... : ... .. . ... ... ... ... : ... .. . ... : ... .. 3 ... : ... .. . ...
ROW 57 : ... .. . ... ... ... ... : ... .. 4 ... ... ... ... : ... .. . ... : ... .. 2 ... : ... .. . ...
ROW 58 : ... .. 3 ... ... ... ... : ... .. . ... ... ... ... : ... .. . ... : ... .. 1 ... : ... .. . ...
ROW 59 : ... .. . ... ... ... ... : ... .. 3 ... ... ... ... : ... .. . ... : ... .. 0 ... : ... .. . ...
ROW 5A : ... .. 2 ... ... ... ... : ... .. . ... ... ... ... : ... .. . ... : ... .. . ... : ... .. . ...
ROW 5B : ... .. . ... ... ... ... : ... .. 2 ... ... ... ... : ... .. . ... : ... .. . ... : ... .. . ...
ROW 5C : ... .. 1 ... ... ... ... : ... .. . ... ... ... ... : ... .. . ... : ... .. . ... : ... .. . ...
ROW 5D : ... .. . ... ... ... ... : ... .. 1 ... ... ... ... : ... .. . ... : ... .. . ... : ... .. . ...
ROW 5E : ... .. . ... ... ... ... : ... .. . ... ... ... ... : ... .. . ... : ... .. . ... : ... .. . ...
ROW 5F : ... .. . ... ... ... ... : ... .. . ... ... ... ... : ... .. . ... : ... .. . ... : ... .. . ...
ROW 60 : ... .. . ... ... ... ... : ... .. . ... ... ... ... : ... .. . ... : ... .. . ... : ... .. . ...
ROW 61 : ... .. . ... ... ... ... : ... .. . ... ... ... ... : ... .. . ... : ... .. . ... : ... .. . ...
ROW 62 : G-4 00 5 ... ... ... ... : ... .. . ... ... ... ... : A-3 00 . ... : ... .. . ... : ... .. . ...
ROW 63 : ... .. . ... ... ... ... : F-4 00 5 ... ... ... ... : ... .. . ... : ... .. . ... : ... .. . ...
ROW 64 : ... .. 4 ... ... ... ... : ... .. . ... ... ... ... : ... .. . ... : ... .. . ... : ... .. . ...
ROW 65 : ... .. . ... ... ... ... : ... .. 4 ... ... ... ... : ... .. . ... : ... .. . ... : ... .. . ...
ROW 66 : ... .. 3 ... ... ... ... : ... .. . ... ... ... ... : ... .. . ... : ... .. . ... : ... .. . ...
ROW 67 : ... .. . ... ... ... ... : ... .. 3 ... ... ... ... : ... .. . ... : ... .. . ... : ... .. . ...
ROW 68 : ... .. 2 ... ... ... ... : ... .. . ... ... ... ... : ... .. . ... : ... .. . ... : ... .. . ...
ROW 69 : ... .. . ... ... ... ... : ... .. 2 ... ... ... ... : ... .. . ... : ... .. . ... : ... .. . ...
ROW 6A : ... .. 1 ... ... ... ... : ... .. . ... ... ... ... : ... .. . ... : ... .. . ... : ... .. . ...
ROW 6B : ... .. . ... ... ... ... : ... .. 1 ... ... ... ... : ... .. . ... : ... .. . ... : ... .. . ...
ROW 6C : ... .. . ... ... ... ... : ... .. . ... ... ... ... : ... .. . ... : ... .. . ... : ... .. . ...
ROW 6D : ... .. . ... ... ... ... : ... .. . ... ... ... ... : ... .. . ... : ... .. . ... : ... .. . ...
ROW 6E : ... .. . ... ... ... ... : ... .. . ... ... ... ... : ... .. . ... : ... .. . ... : ... .. . ...
ROW 6F : ... .. . ... ... ... ... : ... .. . ... ... ... ... : ... .. . ... : ... .. . ... : ... .. . ...
ROW 70 : G#4 00 5 V00 ... ... ... : ... .. . ... ... ... ... : A#3 00 . ... : ... .. . ... : ... .. . ...
ROW 71 : ... .. . ... ... ... ... : D#4 00 5 V00 ... ... ... : ... .. . ... : ... .. . ... : ... .. . ...
ROW 72 : ... .. 4 ... ... ... ... : ... .. . ... ... ... ... : ... .. . ... : ... .. . ... : ... .. . ...
ROW 73 : ... .. . ... ... ... ... : ... .. 4 ... ... ... ... : ... .. . ... : ... .. . ... : ... .. . ...
ROW 74 : ... .. 3 ... ... ... ... : ... .. . ... ... ... ... : ... .. . ... : ... .. . ... : ... .. . ...
ROW 75 : ... .. . ... ... ... ... : ... .. 3 ... ... ... ... : ... .. . ... : ... .. . ... : ... .. . ...
ROW 76 : ... .. 2 ... ... ... ... : ... .. . ... ... ... ... : ... .. . ... : ... .. . ... : ... .. . ...
ROW 77 : ... .. . ... ... ... ... : ... .. 2 ... ... ... ... : ... .. . ... : ... .. . ... : ... .. . ...
ROW 78 : ... .. 1 ... ... ... ... : ... .. . ... ... ... ... : ... .. . ... : ... .. . ... : ... .. . ...
ROW 79 : ... .. . ... ... ... ... : ... .. 1 ... ... ... ... : ... .. . ... : ... .. . ... : ... .. . ...
ROW 7A : ... .. . ... ... ... ... : ... .. . ... ... ... ... : ... .. . ... : ... .. . ... : ... .. . ...
ROW 7B : ... .. . ... ... ... ... : ... .. . ... ... ... ... : ... .. . ... : ... .. . ... : ... .. . ...
ROW 7C : ... .. . ... ... ... ... : ... .. . ... ... ... ... : ... .. . ... : ... .. . ... : ... .. . ...
ROW 7D : ... .. . ... ... ... ... : ... .. . ... ... ... ... : ... .. . ... : ... .. . ... : ... .. . ...
ROW 7E : G#4 00 5 ... ... ... ... : ... .. . ... ... ... ... : ... .. . ... : ... .. . ... : ... .. . ...
ROW 7F : ... .. . ... ... ... ... : D#4 00 5 ... ... ... ... : ... .. . ... : ... .. . ... : ... .. . ...
ROW 80 : ... .. 4 ... ... ... ... : ... .. . ... ... ... ... : ... .. . ... : ... .. . ... : ... .. . ...
ROW 81 : ... .. . ... ... ... ... : ... .. 4 ... ... ... ... : ... .. . ... : ... .. . ... : ... .. . ...
ROW 82 : ... .. 3 ... ... ... ... : ... .. . ... ... ... ... : ... .. . ... : ... .. . ... : ... .. . ...
ROW 83 : ... .. . ... ... ... ... : ... .. 3 ... ... ... ... : ... .. . ... : ... .. . ... : ... .. . ...
ROW 84 : ... .. 2 ... ... ... ... : ... .. . ... ... ... ... : ... .. . ... : ... .. . ... : ... .. . ...
ROW 85 : ... .. . ... ... ... ... : ... .. 2 ... ... ... ... : ... .. . ... : ... .. . ... : ... .. . ...
ROW 86 : ... .. 1 ... ... ... ... : ... .. . ... ... ... ... : ... .. . ... : ... .. . ... : ... .. . ...
ROW 87 : ... .. . ... ... ... ... : ... .. 1 ... ... ... ... : ... .. . ... : ... .. . ... : ... .. . ...
ROW 88 : ... .. . ... ... ... ... : ... .. . ... ... ... ... : ... .. . ... : ... .. . ... : ... .. . ...
ROW 89 : ... .. . ... ... ... ... : ... .. . ... ... ... ... : ... .. . ... : ... .. . ... : ... .. . ...
ROW 8A : ... .. . ... ... ... ... : ... .. . ... ... ... ... : ... .. . ... : ... .. . ... : ... .. . ...
ROW 8B : ... .. . ... ... ... ... : ... .. . ... ... ... ... : ... .. . ... : ... .. . ... : ... .. . ...
ROW 8C : G#4 00 5 ... ... ... ... : ... .. . ... ... ... ... : F-3 00 . ... : F-# 00 5 V01 : ... .. . ...
ROW 8D : ... .. . ... ... ... ... : D#4 00 5 ... ... ... ... : ... .. . ... : ... .. 4 ... : ... .. . ...
ROW 8E : ... .. 4 ... ... ... ... : ... .. . ... ... ... ... : ... .. . ... : ... .. 3 ... : ... .. . ...
ROW 8F : ... .. . ... ... ... ... : ... .. 4 ... ... ... ... : ... .. . ... : ... .. 2 ... : ... .. . ...
ROW 90 : ... .. 3 ... ... ... ... : ... .. . ... ... ... ... : ... .. . ... : ... .. 1 ... : ... .. . ...
ROW 91 : ... .. . ... ... ... ... : ... .. 3 ... ... ... ... : ... .. . ... : ... .. 0 ... : ... .. . ...
ROW 92 : ... .. 2 ... ... ... ... : ... .. . ... ... ... ... : ... .. . ... : ... .. . ... : ... .. . ...
ROW 93 : ... .. . ... ... ... ... : ... .. 2 ... ... ... ... : ... .. . ... : ... .. . ... : ... .. . ...
ROW 94 : ... .. 1 ... ... ... ... : ... .. . ... ... ... ... : ... .. . ... : ... .. . ... : ... .. . ...
ROW 95 : ... .. . ... ... ... ... : ... .. 1 ... ... ... ... : ... .. . ... : ... .. . ... : ... .. . ...
ROW 96 : ... .. . ... ... ... ... : ... .. . ... ... ... ... : ... .. . ... : ... .. . ... : ... .. . ...
ROW 97 : ... .. . ... ... ... ... : ... .. . ... ... ... ... : ... .. . ... : ... .. . ... : ... .. . ...
ROW 98 : ... .. . ... ... ... ... : ... .. . ... ... ... ... : ... .. . ... : ... .. . ... : ... .. . ...
ROW 99 : ... .. . ... ... ... ... : ... .. . ... ... ... ... : ... .. . ... : ... .. . ... : ... .. . ...
ROW 9A : G#4 00 5 ... ... ... ... : ... .. . ... ... ... ... : ... .. . ... : ... .. . ... : ... .. . ...
ROW 9B : ... .. . ... ... ... ... : D#4 00 5 ... ... ... ... : ... .. . ... : ... .. . ... : ... .. . ...
ROW 9C : ... .. 4 ... ... ... ... : ... .. . ... ... ... ... : ... .. . ... : ... .. . ... : ... .. . ...
ROW 9D : ... .. . ... ... ... ... : ... .. 4 ... ... ... ... : ... .. . ... : ... .. . ... : ... .. . ...
ROW 9E : ... .. 3 ... ... ... ... : ... .. . ... ... ... ... : ... .. . ... : ... .. . ... : ... .. . ...
ROW 9F : ... .. . ... ... ... ... : ... .. 3 ... ... ... ... : ... .. . ... : ... .. . ... : ... .. . ...
ROW A0 : ... .. 2 ... ... ... ... : ... .. . ... ... ... ... : ... .. . ... : ... .. . ... : ... .. . ...
ROW A1 : ... .. . ... ... ... ... : ... .. 2 ... ... ... ... : ... .. . ... : ... .. . ... : ... .. . ...
ROW A2 : ... .. 1 ... ... ... ... : ... .. . ... ... ... ... : ... .. . ... : ... .. . ... : ... .. . ...
ROW A3 : ... .. . ... ... ... ... : ... .. 1 ... ... ... ... : ... .. . ... : ... .. . ... : ... .. . ...
ROW A4 : ... .. . ... ... ... ... : ... .. . ... ... ... ... : ... .. . ... : ... .. . ... : ... .. . ...
ROW A5 : ... .. . ... ... ... ... : ... .. . ... ... ... ... : ... .. . ... : ... .. . ... : ... .. . ...
ROW A6 : ... .. . ... ... ... ... : ... .. . ... ... ... ... : ... .. . ... : ... .. . ... : ... .. . ...
ROW A7 : ... .. . ... ... ... ... : ... .. . ... ... ... ... : ... .. . ... : ... .. . ... : ... .. . ...
ROW A8 : G#4 00 5 ... ... ... ... : ... .. . ... ... ... ... : A#2 00 . ... : ... .. . ... : ... .. . ...
ROW A9 : ... .. . ... ... ... ... : D-4 00 5 ... ... ... ... : ... .. . ... : ... .. . ... : ... .. . ...
ROW AA : ... .. 4 ... ... ... ... : ... .. . ... ... ... ... : ... .. . ... : ... .. . ... : ... .. . ...
ROW AB : ... .. . ... ... ... ... : ... .. 4 ... ... ... ... : ... .. . ... : ... .. . ... : ... .. . ...
ROW AC : ... .. 3 ... ... ... ... : ... .. . ... ... ... ... : ... .. . ... : ... .. . ... : ... .. . ...
ROW AD : ... .. . ... ... ... ... : ... .. 3 ... ... ... ... : ... .. . ... : ... .. . ... : ... .. . ...
ROW AE : ... .. 2 ... ... ... ... : ... .. . ... ... ... ... : ... .. . ... : ... .. . ... : ... .. . ...
ROW AF : ... .. . ... ... ... ... : ... .. 2 ... ... ... ... : ... .. . ... : ... .. . ... : ... .. . ...
ROW B0 : ... .. 1 ... ... ... ... : ... .. . ... ... ... ... : ... .. . ... : ... .. . ... : ... .. . ...
ROW B1 : ... .. . ... ... ... ... : ... .. 1 ... ... ... ... : ... .. . ... : ... .. . ... : ... .. . ...
ROW B2 : ... .. . ... ... ... ... : ... .. . ... ... ... ... : ... .. . ... : ... .. . ... : ... .. . ...
ROW B3 : ... .. . ... ... ... ... : ... .. . ... ... ... ... : ... .. . ... : ... .. . ... : ... .. . ...
ROW B4 : ... .. . ... ... ... ... : ... .. . ... ... ... ... : ... .. . ... : ... .. . ... : ... .. . ...
ROW B5 : ... .. . ... ... ... ... : ... .. . ... ... ... ... : ... .. . ... : ... .. . ... : ... .. . ...
ROW B6 : G#4 00 5 ... ... ... ... : ... .. . ... ... ... ... : ... .. . ... : ... .. . ... : ... .. . ...
ROW B7 : ... .. . ... ... ... ... : D-4 00 5 ... ... ... ... : ... .. . ... : ... .. . ... : ... .. . ...
ROW B8 : ... .. 4 ... ... ... ... : ... .. . ... ... ... ... : ... .. . ... : ... .. . ... : ... .. . ...
ROW B9 : ... .. . ... ... ... ... : ... .. 4 ... ... ... ... : ... .. . ... : ... .. . ... : ... .. . ...
ROW BA : ... .. 3 ... ... ... ... : ... .. . ... ... ... ... : ... .. . ... : ... .. . ... : ... .. . ...
ROW BB : ... .. . ... ... ... ... : ... .. 3 ... ... ... ... : ... .. . ... : ... .. . ... : ... .. . ...
ROW BC : ... .. 2 ... ... ... ... : ... .. . ... ... ... ... : ... .. . ... : ... .. . ... : ... .. . ...
ROW BD : ... .. . ... ... ... ... : ... .. 2 ... ... ... ... : ... .. . ... : ... .. . ... : ... .. . ...
ROW BE : ... .. 1 ... ... ... ... : ... .. . ... ... ... ... : ... .. . ... : ... .. . ... : ... .. . ...
ROW BF : ... .. . ... ... ... ... : ... .. 1 ... ... ... ... : ... .. . ... : ... .. . ... : ... .. . ...
ROW C0 : ... .. . ... ... ... ... : ... .. . ... ... ... ... : ... .. . ... : ... .. . ... : ... .. . ...
ROW C1 : ... .. . ... ... ... ... : ... .. . ... ... ... ... : ... .. . ... : ... .. . ... : ... .. . ...
ROW C2 : ... .. . ... ... ... ... : ... .. . ... ... ... ... : ... .. . ... : ... .. . ... : ... .. . ...
ROW C3 : ... .. . ... ... ... ... : ... .. . ... ... ... ... : ... .. . ... : ... .. . ... : ... .. . ...
ROW C4 : G#4 00 5 ... ... ... ... : ... .. . ... ... ... ... : ... .. . ... : 9-# 00 2 V00 : ... .. . ...
ROW C5 : ... .. . ... ... ... ... : D-4 00 5 ... ... ... ... : ... .. . ... : ... .. . ... : ... .. . ...
ROW C6 : ... .. 4 ... ... ... ... : ... .. . ... ... ... ... : ... .. . ... : --- .. . ... : ... .. . ...
ROW C7 : ... .. . ... ... ... ... : ... .. 4 ... ... ... ... : ... .. . ... : 8-# 00 . ... : ... .. . ...
ROW C8 : ... .. 3 ... ... ... ... : ... .. . ... ... ... ... : ... .. . ... : ... .. . ... : ... .. . ...
ROW C9 : ... .. . ... ... ... ... : ... .. 3 ... ... ... ... : ... .. . ... : --- .. . ... : ... .. . ...
ROW CA : ... .. 2 ... ... ... ... : ... .. . ... ... ... ... : ... .. . ... : 7-# 00 . ... : ... .. . ...
ROW CB : ... .. . ... ... ... ... : ... .. 2 ... ... ... ... : ... .. . ... : ... .. . ... : ... .. . ...
ROW CC : ... .. 1 ... ... ... ... : ... .. . ... ... ... ... : ... .. . ... : --- .. . ... : ... .. . ...
ROW CD : ... .. . ... ... ... ... : ... .. 1 ... ... ... ... : ... .. . ... : 6-# 00 . ... : ... .. . ...
ROW CE : ... .. . ... ... ... ... : ... .. . ... ... ... ... : ... .. . ... : ... .. . ... : ... .. . ...
ROW CF : ... .. . ... ... ... ... : ... .. . ... ... ... ... : ... .. . ... : --- .. . ... : ... .. . ...
ROW D0 : ... .. . ... ... ... ... : ... .. . ... ... ... ... : ... .. . ... : 5-# 00 . ... : ... .. . ...
ROW D1 : ... .. . ... ... ... ... : ... .. . ... ... ... ... : ... .. . ... : ... .. . ... : ... .. . ...
ROW D2 : G#4 00 5 ... ... ... ... : ... .. . ... ... ... ... : A#2 00 . ... : --- .. . ... : ... .. . ...
ROW D3 : ... .. . ... ... ... ... : D-4 00 5 ... ... ... ... : ... .. . ... : 4-# 00 . ... : ... .. . ...
ROW D4 : ... .. 4 ... ... ... ... : ... .. . ... ... ... ... : ... .. . ... : ... .. . ... : ... .. . ...
ROW D5 : ... .. . ... ... ... ... : ... .. 4 ... ... ... ... : ... .. . ... : --- .. . ... : ... .. . ...
ROW D6 : ... .. 3 ... ... ... ... : ... .. . ... ... ... ... : ... .. . ... : 3-# 00 . ... : ... .. . ...
ROW D7 : ... .. . ... ... ... ... : ... .. 3 ... ... ... ... : A-2 00 . ... : ... .. . ... : ... .. . ...
ROW D8 : ... .. 2 ... ... ... ... : ... .. . ... ... ... ... : ... .. . ... : --- .. . ... : ... .. . ...
ROW D9 : ... .. . ... ... ... ... : ... .. 2 ... ... ... ... : ... .. . ... : 2-# 00 . ... : ... .. . ...
ROW DA : ... .. 1 ... ... ... ... : ... .. . ... ... ... ... : ... .. . ... : ... .. . ... : ... .. . ...
ROW DB : ... .. . ... ... ... ... : ... .. 1 ... ... ... ... : ... .. . ... : --- .. . ... : ... .. . ...
ROW DC : ... .. . ... ... ... ... : ... .. . ... ... ... ... : G#2 00 . ... : 1-# 00 . ... : ... .. . ...
ROW DD : ... .. . ... ... ... ... : ... .. . ... ... ... ... : ... .. . ... : ... .. . ... : ... .. . ...
ROW DE : ... .. . ... ... ... ... : ... .. . ... ... ... ... : ... .. . ... : --- .. . ... : ... .. . ...
ROW DF : ... .. . ... ... ... ... : ... .. . ... ... ... ... : ... .. . ... : 0-# 00 . ... : ... .. . ...

PATTERN 14
ROW 00 : G-1 00 6 V00 ... ... ... : G-3 00 4 V01 ... ... ... : G-3 00 . ... : 0-# 00 3 ... : ... .. . ...
ROW 01 : ... .. . ... ... ... ... : ... .. . ... ... ... ... : ... .. . ... : ... .. . ... : ... .. . ...
ROW 02 : ... .. . ... ... ... ... : G-4 00 3 ... ... ... ... : ... .. . ... : ... .. . ... : ... .. . ...
ROW 03 : ... .. . ... ... ... ... : ... .. . ... ... ... ... : ... .. . ... : ... .. . ... : ... .. . ...
ROW 04 : ... .. . ... ... ... ... : G-3 00 2 ... ... ... ... : ... .. . ... : ... .. . ... : ... .. . ...
ROW 05 : ... .. . ... ... ... ... : ... .. 1 ... ... ... ... : ... .. . ... : ... .. . ... : ... .. . ...
ROW 06 : ... .. . ... ... ... ... : ... .. . ... ... ... ... : ... .. . ... : ... .. . ... : ... .. . ...
ROW 07 : ... .. . ... ... ... ... : C-4 00 4 ... ... ... ... : ... .. . ... : ... .. . ... : ... .. . ...
ROW 08 : ... .. . ... ... ... ... : ... .. . ... ... ... ... : ... .. . ... : ... .. . ... : ... .. . ...
ROW 09 : ... .. . ... ... ... ... : C-5 00 3 ... ... ... ... : ... .. . ... : ... .. . ... : ... .. . ...
ROW 0A : ... .. . ... ... ... ... : ... .. . ... ... ... ... : ... .. . ... : ... .. . ... : ... .. . ...
ROW 0B : ... .. . ... ... ... ... : C-4 00 2 ... ... ... ... : ... .. . ... : ... .. . ... : ... .. . ...
ROW 0C : ... .. . ... ... ... ... : G-3 00 1 ... ... ... ... : --- .. . ... : ... .. . ... : ... .. . ...
ROW 0D : ... .. . ... ... ... ... : ... .. . ... ... ... ... : ... .. . ... : ... .. . ... : ... .. . ...
ROW 0E : ... .. . ... ... ... ... : D-4 00 4 ... ... ... ... : A-3 00 . ... : 1-# 00 2 ... : ... .. . ...
ROW 0F : ... .. . ... ... ... ... : ... .. . ... ... ... ... : ... .. . ... : ... .. . ... : ... .. . ...
ROW 10 : ... .. . ... ... ... ... : D-5 00 3 ... ... ... ... : ... .. . ... : ... .. . ... : ... .. . ...
ROW 11 : ... .. . ... ... ... ... : ... .. . ... ... ... ... : ... .. . ... : 2-# 00 . ... : ... .. . ...
ROW 12 : ... .. . ... ... ... ... : D-4 00 2 ... ... ... ... : ... .. . ... : ... .. . ... : ... .. . ...
ROW 13 : ... .. . ... ... ... ... : C-4 00 1 ... ... ... ... : ... .. . ... : ... .. . ... : ... .. . ...
ROW 14 : ... .. . ... ... ... ... : ... .. . ... ... ... ... : ... .. . ... : 3-# 00 . ... : ... .. . ...
ROW 15 : ... .. . ... ... ... ... : F-4 00 4 ... ... ... ... : ... .. . ... : ... .. . ... : ... .. . ...
ROW 16 : ... .. . ... ... ... ... : ... .. . ... ... ... ... : ... .. . ... : ... .. . ... : ... .. . ...
ROW 17 : ... .. . ... ... ... ... : F-5 00 3 ... ... ... ... : ... .. . ... : 4-# 00 . ... : ... .. . ...
ROW 18 : ... .. . ... ... ... ... : ... .. . ... ... ... ... : ... .. . ... : ... .. . ... : ... .. . ...
ROW 19 : ... .. . ... ... ... ... : F-4 00 2 ... ... ... ... : ... .. . ... : ... .. . ... : ... .. . ...
ROW 1A : ... .. . ... ... ... ... : D-4 00 1 ... ... ... ... : --- .. . ... : 5-# 00 . ... : ... .. . ...
ROW 1B : ... .. . ... ... ... ... : ... .. . ... ... ... ... : ... .. . ... : ... .. . ... : ... .. . ...
ROW 1C : ... .. . ... ... ... P7F : G-4 00 4 ... ... ... ... : B-3 00 . ... : ... .. . ... : ... .. . ...
ROW 1D : ... .. . ... ... ... P7E : ... .. . ... ... ... ... : ... .. . ... : 6-# 00 . ... : ... .. . ...
ROW 1E : ... .. . ... ... ... P7D : G-5 00 3 ... ... ... ... : ... .. . ... : ... .. . ... : ... .. . ...
ROW 1F : ... .. . ... ... ... P7E : ... .. . ... ... ... ... : ... .. . ... : ... .. . ... : ... .. . ...
ROW 20 : ... .. . ... ... ... P7F : G-4 00 2 ... ... ... ... : ... .. . ... : 7-# 00 . ... : ... .. . ...
ROW 21 : ... .. . ... ... ... P80 : F-4 00 1 ... ... ... ... : ... .. . ... : ... .. . ... : ... .. . ...
ROW 22 : ... .. . ... ... ... P81 : ... .. . ... ... ... ... : ... .. . ... : ... .. . ... : ... .. . ...
ROW 23 : ... .. . ... ... ... P82 : F-4 00 4 ... ... ... ... : ... .. . ... : 8-# 00 . ... : ... .. . ...
ROW 24 : ... .. . ... ... ... P83 : ... .. . ... ... ... ... : ... .. . ... : ... .. . ... : ... .. . ...
ROW 25 : ... .. . ... ... ... P82 : F-5 00 3 ... ... ... ... : ... .. . ... : ... .. . ... : ... .. . ...
ROW 26 : ... .. . ... ... ... P81 : ... .. . ... ... ... ... : ... .. . ... : 9-# 00 . ... : ... .. . ...
ROW 27 : ... .. . ... ... ... P80 : F-4 00 2 ... ... ... ... : ... .. . ... : ... .. . ... : ... .. . ...
ROW 28 : ... .. . ... ... ... P7F : G-4 00 1 ... ... ... ... : --- .. . ... : ... .. . ... : ... .. . ...
ROW 29 : ... .. . ... ... ... P7E : ... .. . ... ... ... ... : ... .. . ... : A-# 00 2 ... : ... .. . ...
ROW 2A : ... .. . ... ... ... P7D : D-4 00 4 ... ... ... ... : C-4 00 . ... : ... .. . ... : ... .. . ...
ROW 2B : ... .. . ... ... ... P7E : ... .. . ... ... ... ... : ... .. . ... : ... .. . ... : ... .. . ...
ROW 2C : ... .. . ... ... ... P7F : D-5 00 3 ... ... ... ... : ... .. . ... : B-# 00 . ... : ... .. . ...
ROW 2D : G#1 00 . ... ... ... P80 : ... .. . ... ... ... ... : ... .. . ... : ... .. . ... : ... .. . ...
ROW 2E : A-1 00 . ... ... ... ... : D-4 00 2 ... ... ... ... : ... .. . ... : ... .. . ... : ... .. . ...
ROW 2F : A#1 00 . ... ... ... ... : F-4 00 1 ... ... ... ... : ... .. . ... : C-# 00 3 ... : ... .. . ...
ROW 30 : B-1 00 . ... ... ... ... : ... .. . ... ... ... ... : ... .. . ... : ... .. . ... : ... .. . ...
ROW 31 : C-2 00 . ... ... ... ... : C-4 00 4 ... ... ... ... : ... .. . ... : ... .. . ... : ... .. . ...
ROW 32 : C#2 00 . ... ... ... ... : ... .. . ... ... ... ... : ... .. . ... : D-# 00 . ... : ... .. . ...
ROW 33 : D-2 00 . ... ... ... ... : C-5 00 3 ... ... ... ... : ... .. . ... : ... .. . ... : ... .. . ...
ROW 34 : D#2 00 . ... ... ... ... : ... .. . ... ... ... ... : ... .. . ... : ... .. . ... : ... .. . ...
ROW 35 : E-2 00 . ... ... ... ... : C-4 00 2 ... ... ... ... : ... .. . ... : E-# 00 4 ... : ... .. . ...
ROW 36 : F-2 00 . ... ... ... ... : D-4 00 1 ... ... ... ... : --- .. . ... : ... .. . ... : ... .. . ...
ROW 37 : F#2 00 . ... ... ... ... : ... .. . ... ... ... ... : ... .. . ... : ... .. . ... : ... .. . ...
ROW 38 : G-2 00 . ... ... ... ... : G-3 00 4 ... ... ... ... : D-4 00 . ... : F-# 00 5 ... : ... .. . ...
ROW 39 : ... .. . ... ... ... ... : ... .. . ... ... ... ... : ... .. . ... : ... .. . ... : ... .. . ...
ROW 3A : ... .. . ... ... ... ... : G-4 00 3 ... ... ... ... : ... .. . ... : ... .. . ... : ... .. . ...
ROW 3B : ... .. . ... ... ... ... : ... .. . ... ... ... ... : ... .. . ... : ... .. . ... : ... .. . ...
ROW 3C : ... .. . ... ... ... ... : G-3 00 2 ... ... ... ... : ... .. . ... : ... .. . ... : ... .. . ...
ROW 3D : ... .. . ... ... ... ... : C-4 00 1 ... ... ... ... : ... .. . ... : ... .. . ... : ... .. . ...
ROW 3E : ... .. . ... ... ... ... : ... .. . ... ... ... ... : ... .. . ... : ... .. . ... : ... .. . ...
ROW 3F : ... .. . ... ... ... ... : C-4 00 4 ... ... ... ... : ... .. . ... : ... .. . ... : ... .. . ...
ROW 40 : ... .. . ... ... ... ... : ... .. . ... ... ... ... : ... .. . ... : ... .. . ... : ... .. . ...
ROW 41 : ... .. . ... ... ... ... : C-5 00 3 ... ... ... ... : ... .. . ... : ... .. . ... : ... .. . ...
ROW 42 : ... .. . ... ... ... ... : ... .. . ... ... ... ... : ... .. . ... : ... .. . ... : ... .. . ...
ROW 43 : ... .. . ... ... ... ... : C-4 00 2 ... ... ... ... : ... .. . ... : ... .. . ... : ... .. . ...
ROW 44 : ... .. . ... ... ... ... : G-3 00 1 ... ... ... ... : --- .. . ... : ... .. . ... : ... .. . ...
ROW 45 : ... .. . ... ... ... ... : ... .. . ... ... ... ... : ... .. . ... : ... .. . ... : ... .. . ...
ROW 46 : ... .. . ... ... ... ... : D-4 00 4 ... ... ... ... : E-4 00 . ... : E-# 00 4 ... : ... .. . ...
ROW 47 : ... .. . ... ... ... ... : ... .. . ... ... ... ... : ... .. . ... : ... .. . ... : ... .. . ...
ROW 48 : ... .. . ... ... ... ... : D-5 00 3 ... ... ... ... : ... .. . ... : ... .. . ... : ... .. . ...
ROW 49 : ... .. . ... ... ... ... : ... .. . ... ... ... ... : ... .. . ... : D-# 00 . ... : ... .. . ...
ROW 4A : ... .. . ... ... ... ... : D-4 00 2 ... ... ... ... : ... .. . ... : ... .. . ... : ... .. . ...
ROW 4B : ... .. . ... ... ... ... : C-4 00 1 ... ... ... ... : ... .. . ... : ... .. . ... : ... .. . ...
ROW 4C : ... .. . ... ... ... ... : ... .. . ... ... ... ... : ... .. . ... : C-# 00 3 ... : ... .. . ...
ROW 4D : ... .. . ... ... ... ... : F-4 00 4 ... ... ... ... : ... .. . ... : ... .. . ... : ... .. . ...
ROW 4E : ... .. . ... ... ... ... : ... .. . ... ... ... ... : ... .. . ... : ... .. . ... : ... .. . ...
ROW 4F : ... .. . ... ... ... ... : F-5 00 3 ... ... ... ... : ... .. . ... : B-# 00 . ... : ... .. . ...
ROW 50 : ... .. . ... ... ... ... : ... .. . ... ... ... ... : ... .. . ... : ... .. . ... : ... .. . ...
ROW 51 : ... .. . ... ... ... ... : F-4 00 2 ... ... ... ... : ... .. . ... : ... .. . ... : ... .. . ...
ROW 52 : ... .. . ... ... ... ... : D-4 00 1 ... ... ... ... : --- .. . ... : A-# 00 2 ... : ... .. . ...
ROW 53 : ... .. . ... ... ... ... : ... .. . ... ... ... ... : ... .. . ... : ... .. . ... : ... .. . ...
ROW 54 : ... .. . ... ... ... P7F : G-4 00 4 ... ... ... ... : F-4 00 . ... : ... .. . ... : ... .. . ...
ROW 55 : ... .. . ... ... ... P7E : ... .. . ... ... ... ... : ... .. . ... : 9-# 00 . ... : ... .. . ...
ROW 56 : ... .. . ... ... ... P7D : G-5 00 3 ... ... ... ... : ... .. . ... : ... .. . ... : ... .. . ...
ROW 57 : ... .. . ... ... ... P7E : ... .. . ... ... ... ... : ... .. . ... : ... .. . ... : ... .. . ...
ROW 58 : ... .. 5 ... ... ... P7F : G-4 00 2 ... ... ... ... : ... .. . ... : 8-# 00 . ... : ... .. . ...
ROW 59 : ... .. . ... ... ... P80 : F-4 00 1 ... ... ... ... : ... .. . ... : ... .. . ... : ... .. . ...
ROW 5A : ... .. 4 ... ... ... P81 : ... .. . ... ... ... ... : ... .. . ... : ... .. . ... : ... .. . ...
ROW 5B : ... .. . ... ... ... P82 : F-4 00 4 ... ... ... ... : ... .. . ... : 7-# 00 . ... : ... .. . ...
ROW 5C : ... .. 3 ... ... ... P83 : ... .. . ... ... ... ... : ... .. . ... : ... .. . ... : ... .. . ...
ROW 5D : ... .. . ... ... ... P82 : F-5 00 3 ... ... ... ... : ... .. . ... : ... .. . ... : ... .. . ...
ROW 5E : ... .. 2 ... ... ... P81 : ... .. . ... ... ... ... : ... .. . ... : 6-# 00 . ... : ... .. . ...
ROW 5F : ... .. . ... ... ... P80 : F-4 00 2 ... ... ... ... : ... .. . ... : ... .. . ... : ... .. . ...
ROW 60 : ... .. 1 ... ... ... P7F : G-4 00 1 ... ... ... ... : --- .. . ... : ... .. . ... : ... .. . ...
ROW 61 : ... .. . ... ... ... P7E : ... .. . ... ... ... ... : ... .. . ... : 5-# 00 . ... : ... .. . ...
ROW 62 : D-1 00 6 ... ... ... P80 : D-4 00 4 ... ... ... ... : F#4 00 . ... : ... .. . ... : ... .. . ...
ROW 63 : ... .. . ... ... ... ... : ... .. . ... ... ... ... : ... .. . ... : ... .. . ... : ... .. . ...
ROW 64 : ... .. . ... ... ... ... : D-5 00 3 ... ... ... ... : ... .. . ... : 4-# 00 . ... : ... .. . ...
ROW 65 : ... .. . ... ... ... ... : ... .. . ... ... ... ... : ... .. . ... : ... .. . ... : ... .. . ...
ROW 66 : ... .. . ... ... ... ... : D-4 00 2 ... ... ... ... : ... .. . ... : ... .. . ... : ... .. . ...
ROW 67 : ... .. . ... ... ... ... : F-4 00 1 ... ... ... ... : ... .. . ... : 3-# 00 . ... : ... .. . ...
ROW 68 : ... .. . ... ... ... ... : ... .. . ... ... ... ... : ... .. . ... : ... .. . ... : ... .. . ...
ROW 69 : ... .. . ... ... ... ... : C-4 00 4 ... ... ... ... : ... .. . ... : ... .. . ... : ... .. . ...
ROW 6A : ... .. . ... ... ... ... : ... .. . ... ... ... ... : ... .. . ... : 2-# 00 . ... : ... .. . ...
ROW 6B : ... .. . ... ... ... ... : C-5 00 3 ... ... ... ... : ... .. . ... : ... .. . ... : ... .. . ...
ROW 6C : ... .. . ... ... ... ... : ... .. . ... ... ... ... : ... .. . ... : ... .. . ... : ... .. . ...
ROW 6D : ... .. 4 ... ... ... ... : C-4 00 2 ... ... ... ... : ... .. . ... : 1-# 00 . ... : ... .. . ...
ROW 6E : ... .. 2 ... ... ... ... : D-4 00 1 ... ... ... ... : --- .. . ... : ... .. . ... : ... .. . ...
ROW 6F : ... .. 1 ... ... ... ... : ... .. . ... ... ... ... : ... .. . ... : ... .. . ... : ... .. . ...
ROW 70 : G-1 00 6 ... ... ... ... : G-3 00 4 ... ... ... ... : G-4 00 . ... : 0-# 00 3 ... : ... .. . ...
ROW 71 : ... .. . ... ... ... ... : ... .. . ... ... ... ... : ... .. . ... : ... .. . ... : ... .. . ...
ROW 72 : ... .. . ... ... ... ... : G-4 00 3 ... ... ... ... : ... .. . ... : ... .. . ... : ... .. . ...
ROW 73 : ... .. . ... ... ... ... : ... .. . ... ... ... ... : ... .. . ... : ... .. . ... : ... .. . ...
ROW 74 : ... .. . ... ... ... ... : G-3 00 2 ... ... ... ... : ... .. . ... : ... .. . ... : ... .. . ...
ROW 75 : ... .. . ... ... ... ... : C-4 00 1 ... ... ... ... : ... .. . ... : ... .. . ... : ... .. . ...
ROW 76 : ... .. . ... ... ... ... : ... .. . ... ... ... ... : ... .. . ... : ... .. . ... : ... .. . ...
ROW 77 : ... .. . ... ... ... ... : B-3 00 4 ... ... ... ... : ... .. . ... : ... .. . ... : ... .. . ...
ROW 78 : ... .. . ... ... ... ... : ... .. . ... ... ... ... : ... .. . ... : ... .. . ... : ... .. . ...
ROW 79 : ... .. . ... ... ... ... : B-4 00 3 ... ... ... ... : ... .. . ... : ... .. . ... : ... .. . ...
ROW 7A : ... .. . ... ... ... ... : ... .. . ... ... ... ... : ... .. . ... : ... .. . ... : ... .. . ...
ROW 7B : ... .. . ... ... ... ... : B-3 00 2 ... ... ... ... : ... .. . ... : ... .. . ... : ... .. . ...
ROW 7C : ... .. . ... ... ... ... : G-3 00 1 ... ... ... ... : ... .. . ... : ... .. . ... : ... .. . ...
ROW 7D : ... .. . ... ... ... ... : ... .. . ... ... ... ... : ... .. . ... : ... .. . ... : ... .. . ...
ROW 7E : ... .. . ... ... ... ... : D-4 00 4 ... ... ... ... : ... .. . ... : ... .. . ... : ... .. . ...
ROW 7F : ... .. . ... ... ... ... : ... .. . ... ... ... ... : ... .. . ... : ... .. . ... : ... .. . ...
ROW 80 : ... .. . ... ... ... ... : D-5 00 3 ... ... ... ... : ... .. . ... : ... .. . ... : ... .. . ...
ROW 81 : ... .. . ... ... ... ... : ... .. . ... ... ... ... : ... .. . ... : ... .. . ... : ... .. . ...
ROW 82 : ... .. . ... ... ... ... : D-4 00 2 ... ... ... ... : ... .. . ... : ... .. . ... : ... .. . ...
ROW 83 : ... .. . ... ... ... ... : B-3 00 1 ... ... ... ... : ... .. . ... : ... .. . ... : ... .. . ...
ROW 84 : ... .. . ... ... ... ... : ... .. . ... ... ... ... : ... .. . ... : ... .. . ... : ... .. . ...
ROW 85 : ... .. . ... ... ... ... : F-4 00 4 ... ... ... ... : ... .. . ... : ... .. . ... : ... .. . ...
ROW 86 : ... .. . ... ... ... ... : ... .. . ... ... ... ... : ... .. . ... : ... .. . ... : ... .. . ...
ROW 87 : ... .. . ... ... ... ... : F-5 00 3 ... ... ... ... : ... .. . ... : ... .. . ... : ... .. . ...
ROW 88 : ... .. . ... ... ... ... : ... .. . ... ... ... ... : ... .. . ... : ... .. . ... : ... .. . ...
ROW 89 : ... .. . ... ... ... ... : F-4 00 2 ... ... ... ... : ... .. . ... : ... .. . ... : ... .. . ...
ROW 8A : ... .. . ... ... ... ... : D-4 00 1 ... ... ... ... : ... .. . ... : ... .. . ... : ... .. . ...
ROW 8B : ... .. . ... ... ... ... : ... .. . ... ... ... ... : ... .. . ... : ... .. . ... : ... .. . ...
ROW 8C : ... .. . ... ... ... P7F : G-4 00 4 ... ... ... ... : D-4 00 . ... : ... .. . ... : ... .. . ...
ROW 8D : ... .. . ... ... ... P7E : ... .. . ... ... ... ... : ... .. . ... : ... .. . ... : ... .. . ...
ROW 8E : ... .. . ... ... ... P7D : G-5 00 3 ... ... ... ... : ... .. . ... : ... .. . ... : ... .. . ...
ROW 8F : ... .. . ... ... ... P7E : ... .. . ... ... ... ... : ... .. . ... : ... .. . ... : ... .. . ...
ROW 90 : ... .. . ... ... ... P7F : G-4 00 2 ... ... ... ... : ... .. . ... : 1-# 00 . ... : ... .. . ...
ROW 91 : ... .. . ... ... ... P80 : F-4 00 1 ... ... ... ... : ... .. . ... : ... .. . ... : ... .. . ...
ROW 92 : ... .. . ... ... ... P81 : ... .. . ... ... ... ... : ... .. . ... : --- .. . ... : ... .. . ...
ROW 93 : ... .. . ... ... ... P82 : F-4 00 4 ... ... ... ... : ... .. . ... : 2-# 00 . ... : ... .. . ...
ROW 94 : ... .. . ... ... ... P83 : ... .. . ... ... ... ... : ... .. . ... : ... .. . ... : ... .. . ...
ROW 95 : ... .. . ... ... ... P82 : F-5 00 3 ... ... ... ... : ... .. . ... : --- .. . ... : ... .. . ...
ROW 96 : ... .. . ... ... ... P81 : ... .. . ... ... ... ... : ... .. . ... : 3-# 00 . ... : ... .. . ...
ROW 97 : ... .. . ... ... ... P80 : F-4 00 2 ... ... ... ... : ... .. . ... : ... .. . ... : ... .. . ...
ROW 98 : ... .. . ... ... ... P7F : G-4 00 1 ... ... ... ... : ... .. . ... : --- .. . ... : ... .. . ...
ROW 99 : ... .. . ... ... ... P7E : ... .. . ... ... ... ... : ... .. . ... : 4-# 00 . ... : ... .. . ...
ROW 9A : ... .. . ... ... ... P7D : D-4 00 4 ... ... ... ... : ... .. . ... : ... .. . ... : ... .. . ...
ROW 9B : ... .. . ... ... ... P7E : ... .. . ... ... ... ... : ... .. . ... : --- .. . ... : ... .. . ...
ROW 9C : ... .. . ... ... ... P7F : D-5 00 3 ... ... ... ... : ... .. . ... : 5-# 00 . ... : ... .. . ...
ROW 9D : ... .. . ... ... ... P80 : ... .. . ... ... ... ... : ... .. . ... : ... .. . ... : ... .. . ...
ROW 9E : ... .. . ... ... ... P81 : D-4 00 2 ... ... ... ... : ... .. . ... : --- .. . ... : ... .. . ...
ROW 9F : ... .. . ... ... ... P82 : F-4 00 1 ... ... ... ... : ... .. . ... : 6-# 00 . ... : ... .. . ...
ROW A0 : ... .. . ... ... ... P83 : ... .. . ... ... ... ... : ... .. . ... : ... .. . ... : ... .. . ...
ROW A1 : ... .. . ... ... ... P82 : B-3 00 4 ... ... ... ... : ... .. . ... : --- .. . ... : ... .. . ...
ROW A2 : ... .. . ... ... ... P81 : ... .. . ... ... ... ... : ... .. . ... : 7-# 00 . ... : ... .. . ...
ROW A3 : ... .. . ... ... ... P80 : B-4 00 3 ... ... ... ... : ... .. . ... : ... .. . ... : ... .. . ...
ROW A4 : ... .. . ... ... ... P7F : ... .. . ... ... ... ... : ... .. . ... : --- .. . ... : ... .. . ...
ROW A5 : ... .. . ... ... ... P7E : B-3 00 2 ... ... ... ... : ... .. . ... : 8-# 00 . ... : ... .. . ...
ROW A6 : ... .. . ... ... ... P7D : D-4 00 1 ... ... ... ... : ... .. . ... : ... .. . ... : ... .. . ...
ROW A7 : ... .. . ... ... ... P7E : ... .. . ... ... ... ... : ... .. . ... : --- .. . ... : ... .. . ...
ROW A8 : ... .. . ... ... ... P7F : G-3 00 4 ... ... ... ... : G-3 00 . ... : 9-# 00 3 ... : ... .. . ...
ROW A9 : ... .. . ... ... ... P80 : ... .. . ... ... ... ... : ... .. . ... : ... .. . ... : ... .. . ...
ROW AA : ... .. . ... ... ... P81 : G-4 00 3 ... ... ... ... : ... .. . ... : ... .. . ... : ... .. . ...
ROW AB : ... .. . ... ... ... P82 : ... .. . ... ... ... ... : ... .. . ... : ... .. . ... : ... .. . ...
ROW AC : ... .. . ... ... ... P83 : ... .. 2 ... ... ... ... : ... .. . ... : ... .. 2 ... : ... .. . ...
ROW AD : ... .. . ... ... ... P82 : ... .. 1 ... ... ... ... : ... .. . ... : ... .. . ... : ... .. . ...
ROW AE : ... .. . ... ... ... P81 : ... .. . ... ... ... ... : ... .. . ... : ... .. . ... : ... .. . ...
ROW AF : ... .. . ... ... ... P80 : ... .. . ... ... ... ... : ... .. . ... : ... .. . ... : ... .. . ...
ROW B0 : ... .. . ... ... ... P7F : ... .. . ... ... ... ... : ... .. . ... : ... .. 1 ... : ... .. . ...
ROW B1 : ... .. . ... ... ... P7E : ... .. . ... ... ... ... : ... .. . ... : ... .. . ... : ... .. . ...
ROW B2 : ... .. . ... ... ... P7D : ... .. . ... ... ... ... : ... .. . ... : ... .. . ... : ... .. . ...
ROW B3 : ... .. . ... ... ... P7E : ... .. . ... ... ... ... : ... .. . ... : ... .. 0 ... : ... .. . ...
ROW B4 : ... .. . ... ... ... P7F : ... .. . ... ... ... ... : ... .. . ... : ... .. . ... : ... .. . ...
ROW B5 : ... .. . ... ... ... P80 : ... .. . ... ... ... ... : ... .. . ... : ... .. . ... : ... .. . ...
ROW B6 : ... .. 5 ... ... ... P81 : ... .. . ... ... ... ... : ... .. . ... : ... .. . ... : ... .. . ...
ROW B7 : ... .. . ... ... ... P82 : ... .. . ... ... ... ... : ... .. . ... : ... .. . ... : ... .. . ...
ROW B8 : ... .. . ... ... ... P83 : ... .. . ... ... ... ... : ... .. . ... : ... .. . ... : ... .. . ...
ROW B9 : ... .. 4 ... ... ... P82 : ... .. . ... ... ... ... : ... .. . ... : ... .. . ... : ... .. . ...
ROW BA : ... .. . ... ... ... P81 : ... .. . ... ... ... ... : ... .. . ... : ... .. . ... : ... .. . ...
ROW BB : ... .. . ... ... ... P80 : ... .. . ... ... ... ... : ... .. . ... : ... .. . ... : ... .. . ...
ROW BC : ... .. 3 ... ... ... P7F : ... .. . ... ... ... ... : ... .. . ... : ... .. . ... : ... .. . ...
ROW BD : ... .. . ... ... ... P7E : G-5 00 4 ... ... ... ... : ... .. . ... : ... .. . ... : ... .. . ...
ROW BE : ... .. . ... ... ... P7D : ... .. . ... ... ... ... : ... .. . ... : ... .. . ... : ... .. . ...
ROW BF : ... .. 2 ... ... ... P7E : ... .. 3 ... ... ... ... : ... .. . ... : ... .. . ... : ... .. . ...
ROW C0 : ... .. . ... ... ... P7F : B-5 00 4 ... ... ... ... : ... .. . ... : ... .. . ... : ... .. . ...
ROW C1 : ... .. . ... ... ... P80 : ... .. . ... ... ... ... : ... .. . ... : ... .. . ... : ... .. . ...
ROW C2 : ... .. 1 ... ... ... P81 : D-6 00 . ... ... ... ... : ... .. . ... : ... .. . ... : ... .. . ...
ROW C3 : ... .. . ... ... ... P82 : ... .. . ... ... ... ... : ... .. . ... : ... .. . ... : ... .. . ...
ROW C4 : G-5 00 1 ... ... ... P81 : G-6 00 4 V02 ... ... ... : ... .. . ... : A-# 00 5 ... : ... .. . ...
ROW C5 : ... .. . ... ... ... ... : ... .. . ... ... ... ... : ... .. . ... : ... .. . ... : ... .. . ...
ROW C6 : ... .. . ... ... ... ... : ... .. 3 ... ... ... ... : ... .. . ... : ... .. . ... : ... .. . ...
ROW C7 : B-5 00 . ... ... ... ... : ... .. . ... ... ... ... : ... .. . ... : ... .. 4 ... : ... .. . ...
ROW C8 : ... .. . ... ... ... ... : ... .. 2 ... ... ... ... : ... .. . ... : ... .. . ... : ... .. . ...
ROW C9 : D-6 00 . ... ... ... ... : ... .. . ... ... ... ... : ... .. . ... : ... .. . ... : ... .. . ...
ROW CA : ... .. . ... ... ... ... : ... .. 1 ... ... ... ... : ... .. . ... : ... .. 3 ... : ... .. . ...
ROW CB : G-6 00 . ... ... ... ... : G-5 00 2 ... ... ... ... : ... .. . ... : ... .. . ... : ... .. . ...
ROW CC : ... .. . ... ... ... ... : ... .. . ... ... ... ... : ... .. . ... : ... .. . ... : ... .. . ...
ROW CD : ... .. . ... ... ... ... : ... .. . ... ... ... ... : ... .. . ... : ... .. 2 ... : ... .. . ...
ROW CE : ... .. . ... ... ... ... : B-5 00 . ... ... ... ... : ... .. . ... : ... .. . ... : ... .. . ...
ROW CF : ... .. . ... ... ... ... : ... .. . ... ... ... ... : ... .. . ... : ... .. . ... : ... .. . ...
ROW D0 : ... .. . ... ... ... ... : D-6 00 . ... ... ... ... : ... .. . ... : ... .. 1 ... : ... .. . ...
ROW D1 : ... .. . ... ... ... ... : ... .. . ... ... ... ... : ... .. . ... : ... .. . ... : ... .. . ...
ROW D2 : G-5 00 . ... ... ... ... : G-6 00 . ... ... ... ... : G-2 00 . ... : ... .. . ... : ... .. . ...
ROW D3 : ... .. . ... ... ... ... : ... .. . ... ... ... ... : ... .. . ... : ... .. 0 ... : ... .. . ...
ROW D4 : ... .. . ... ... ... ... : ... .. . ... ... ... ... : ... .. . ... : ... .. . ... : ... .. . ...
ROW D5 : B-5 00 . ... ... ... ... : ... .. . ... ... ... ... : ... .. . ... : ... .. . ... : ... .. . ...
ROW D6 : ... .. . ... ... ... ... : ... .. . ... ... ... ... : ... .. . ... : ... .. . ... : ... .. . ...
ROW D7 : D-6 00 . ... ... ... ... : ... .. . ... ... ... ... : --- .. . ... : ... .. . ... : ... .. . ...
ROW D8 : ... .. . ... ... ... ... : ... .. . ... ... ... ... : ... .. . ... : ... .. . ... : ... .. . ...
ROW D9 : G-6 00 . ... ... ... ... : --- 00 . ... ... ... ... : G-2 00 . ... : ... .. . ... : ... .. . ...
ROW DA : ... .. . ... ... ... ... : ... .. . ... ... ... ... : ... .. . ... : ... .. . ... : ... .. . ...
ROW DB : ... .. . ... ... ... ... : ... .. . ... ... ... ... : ... .. . ... : ... .. . ... : ... .. . ...
ROW DC : ... .. . ... ... ... ... : ... .. . ... ... ... ... : ... .. . ... : ... .. . ... : ... .. . ...
ROW DD : ... .. . ... ... ... ... : ... .. . ... ... ... ... : ... .. . ... : ... .. . ... : ... .. . ...
ROW DE : ... .. . ... ... ... ... : ... .. . ... ... ... ... : --- .. . ... : ... .. . ... : ... .. . ...
ROW DF : ... .. . ... ... ... ... : ... .. . ... ... ... ... : ... .. . ... : ... .. . ... : ... .. . ...

PATTERN 15
ROW 00 : --- .. . ... ... ... P80 : E-4 00 5 V02 ... ... ... : C-3 00 . ... : 2-# 00 7 ... : ... .. . ...
ROW 01 : ... .. . ... ... ... ... : E-5 00 . ... ... ... ... : ... .. . ... : ... .. 6 ... : ... .. . ...
ROW 02 : ... .. . ... ... ... ... : C-4 00 . ... ... ... ... : ... .. . ... : ... .. 5 ... : ... .. . ...
ROW 03 : ... .. . ... ... ... ... : C-5 00 . ... ... ... ... : ... .. . ... : ... .. 4 ... : ... .. . ...
ROW 04 : ... .. . ... ... ... ... : G-3 00 4 ... ... ... ... : ... .. . ... : ... .. 3 ... : ... .. . ...
ROW 05 : ... .. . ... ... ... ... : G-4 00 . ... ... ... ... : --- .. . ... : ... .. 2 ... : ... .. . ...
ROW 06 : ... .. . ... ... ... ... : E-4 00 . ... ... ... ... : ... .. . ... : ... .. 1 ... : ... .. . ...
ROW 07 : ... .. . ... ... ... ... : E-5 00 . ... ... ... ... : C-3 00 . ... : D-# 00 7 ... : ... .. . ...
ROW 08 : ... .. . ... ... ... ... : C-4 00 3 ... ... ... ... : ... .. . ... : ... .. 3 ... : ... .. . ...
ROW 09 : ... .. . ... ... ... ... : C-5 00 . ... ... ... ... : ... .. . ... : ... .. 1 ... : ... .. . ...
ROW 0A : ... .. . ... ... ... ... : G-3 00 . ... ... ... ... : ... .. . ... : ... .. 0 ... : ... .. . ...
ROW 0B : ... .. . ... ... ... ... : G-4 00 . ... ... ... ... : ... .. . ... : ... .. . ... : ... .. . ...
ROW 0C : ... .. . ... ... ... ... : E-4 00 2 ... ... ... ... : --- .. . ... : ... .. . ... : ... .. . ...
ROW 0D : ... .. . ... ... ... ... : E-5 00 . ... ... ... ... : ... .. . ... : ... .. . ... : ... .. . ...
ROW 0E : E-3 00 6 V02 ... ... ... : C-4 00 . ... ... ... ... : C-3 00 . ... : D-# 00 7 ... : ... .. . ...
ROW 0F : ... .. . ... ... ... ... : C-5 00 . ... ... ... ... : ... .. . ... : ... .. 3 ... : ... .. . ...
ROW 10 : ... .. 5 V01 ... ... ... : G-3 00 1 ... ... ... ... : ... .. . ... : ... .. 1 ... : ... .. . ...
ROW 11 : ... .. . ... ... ... ... : G-4 00 . ... ... ... ... : ... .. . ... : ... .. 0 ... : ... .. . ...
ROW 12 : ... .. 4 ... ... ... ... : E-4 00 . ... ... ... ... : ... .. . ... : ... .. . ... : ... .. . ...
ROW 13 : ... .. . ... ... ... ... : E-5 00 . ... ... ... ... : --- .. . ... : ... .. . ... : ... .. . ...
ROW 14 : ... .. 3 ... ... ... ... : C-4 00 . ... ... ... ... : ... .. . ... : ... .. . ... : ... .. . ...
ROW 15 : ... .. . ... ... ... P81 : E-3 00 3 V02 ... ... P7F : ... .. . ... : ... .. . ... : ... .. . ...
ROW 16 : ... .. 2 ... ... ... ... : ... .. . ... ... ... ... : ... .. . ... : ... .. . ... : ... .. . ...
ROW 17 : ... .. . ... ... ... ... : ... .. 2 V01 ... ... ... : ... .. . ... : ... .. . ... : ... .. . ...
ROW 18 : ... .. 1 ... ... ... P80 : ... .. . ... ... ... ... : ... .. . ... : ... .. . ... : ... .. . ...
ROW 19 : ... .. . ... ... ... ... : ... .. . ... ... ... ... : ... .. . ... : ... .. . ... : ... .. . ...
ROW 1A : ... .. . ... ... ... ... : ... .. . ... ... ... ... : --- .. . ... : ... .. . ... : ... .. . ...
ROW 1B : ... .. . ... ... ... P7F : ... .. . ... ... ... ... : ... .. . ... : ... .. . ... : ... .. . ...
ROW 1C : F-3 00 6 V02 ... ... P80 : ... .. . ... ... ... ... : A-3 00 . P86 : 4-# 00 7 ... : ... .. . ...
ROW 1D : ... .. . ... ... ... ... : ... .. . ... ... ... ... : G#3 00 . P80 : 6-# 00 6 ... : ... .. . ...
ROW 1E : ... .. 5 V01 ... ... ... : ... .. . ... ... ... ... : G-3 00 . P7B : 8-# 00 5 ... : ... .. . ...
ROW 1F : ... .. . ... ... ... ... : ... .. . ... ... ... ... : F-3 00 . P88 : A-# 00 4 ... : ... .. . ...
ROW 20 : ... .. 4 ... ... ... ... : ... .. . ... ... ... ... : E-3 00 . P86 : C-# 00 3 ... : ... .. . ...
ROW 21 : ... .. . ... ... ... ... : ... .. . ... ... ... ... : D#3 00 . P85 : E-# 00 2 ... : ... .. . ...
ROW 22 : ... .. 3 ... ... ... ... : ... .. . ... ... ... ... : D-3 00 . P86 : 0-# 00 1 ... : ... .. . ...
ROW 23 : ... .. . ... ... ... P81 : F-3 00 3 V02 ... ... ... : C#3 00 . P87 : 2-# 00 0 ... : ... .. . ...
ROW 24 : ... .. 2 ... ... ... ... : ... .. . ... ... ... ... : C-3 00 . P8A : 4-# 00 0 ... : ... .. . ...
ROW 25 : ... .. . ... ... ... ... : ... .. 2 V01 ... ... ... : --- .. . ... : ... .. . ... : ... .. . ...
ROW 26 : ... .. 1 ... ... ... P80 : ... .. . ... ... ... ... : ... .. . ... : ... .. . ... : ... .. . ...
ROW 27 : E-3 00 . ... ... ... ... : ... .. . ... ... ... ... : ... .. . ... : ... .. . ... : ... .. . ...
ROW 28 : ... .. . ... ... ... ... : ... .. . ... ... ... ... : ... .. . ... : ... .. . ... : ... .. . ...
ROW 29 : ... .. . ... ... ... ... : ... .. . ... ... ... ... : ... .. . ... : ... .. . ... : ... .. . ...
ROW 2A : A-3 00 6 V02 ... ... ... : F-4 00 5 V02 ... ... P80 : C-3 00 . P80 : D-# 00 7 ... : ... .. . ...
ROW 2B : ... .. . ... ... ... ... : F-5 00 . ... ... ... ... : ... .. . ... : ... .. 3 ... : ... .. . ...
ROW 2C : ... .. 5 V01 ... ... ... : C-4 00 . ... ... ... ... : ... .. . ... : ... .. 1 ... : ... .. . ...
ROW 2D : ... .. . ... ... ... ... : C-5 00 . ... ... ... ... : ... .. . ... : ... .. 0 ... : ... .. . ...
ROW 2E : ... .. 4 ... ... ... ... : A-3 00 4 ... ... ... ... : ... .. . ... : ... .. . ... : ... .. . ...
ROW 2F : ... .. . ... ... ... ... : A-4 00 . ... ... ... ... : --- .. . ... : ... .. . ... : ... .. . ...
ROW 30 : ... .. 3 ... ... ... ... : F-4 00 . ... ... ... ... : ... .. . ... : ... .. . ... : ... .. . ...
ROW 31 : ... .. . ... ... ... P81 : F-5 00 . ... ... ... ... : C-3 00 . ... : D-# 00 7 ... : ... .. . ...
ROW 32 : ... .. 2 ... ... ... ... : C-4 00 3 ... ... ... ... : ... .. . ... : ... .. 3 ... : ... .. . ...
ROW 33 : ... .. . ... ... ... ... : C-5 00 . ... ... ... ... : ... .. . ... : ... .. 1 ... : ... .. . ...
ROW 34 : ... .. 1 ... ... ... P80 : A-3 00 . ... ... ... ... : ... .. . ... : ... .. 0 ... : ... .. . ...
ROW 35 : F-3 00 . ... ... ... ... : A-4 00 . ... ... ... ... : ... .. . ... : ... .. . ... : ... .. . ...
ROW 36 : ... .. . ... ... ... ... : F-4 00 2 ... ... ... ... : --- .. . ... : ... .. . ... : ... .. . ...
ROW 37 : ... .. . ... ... ... ... : F-5 00 . ... ... ... ... : ... .. . ... : ... .. . ... : ... .. . ...
ROW 38 : G-3 00 6 V02 ... ... ... : C-4 00 . ... ... ... ... : C-3 00 . ... : 2-# 00 7 ... : ... .. . ...
ROW 39 : ... .. . ... ... ... ... : C-5 00 . ... ... ... ... : ... .. . ... : ... .. 6 ... : ... .. . ...
ROW 3A : ... .. . V01 ... ... ... : A-3 00 1 ... ... ... ... : ... .. . ... : ... .. 5 ... : ... .. . ...
ROW 3B : ... .. 5 ... ... ... ... : A-4 00 . ... ... ... ... : ... .. . ... : ... .. 4 ... : ... .. . ...
ROW 3C : ... .. . ... ... ... ... : F-4 00 . ... ... ... ... : ... .. . ... : ... .. 3 ... : ... .. . ...
ROW 3D : ... .. . ... ... ... ... : F-5 00 . ... ... ... ... : --- .. . ... : ... .. 2 ... : ... .. . ...
ROW 3E : ... .. 4 ... ... ... ... : C-4 00 . ... ... ... ... : ... .. . ... : ... .. 1 ... : ... .. . ...
ROW 3F : ... .. . ... ... ... P81 : G-3 00 3 V02 ... ... P7F : ... .. . ... : ... .. 0 ... : ... .. . ...
ROW 40 : ... .. . ... ... ... ... : ... .. . ... ... ... ... : ... .. . ... : ... .. . ... : ... .. . ...
ROW 41 : ... .. 3 ... ... ... ... : ... .. 2 V01 ... ... ... : ... .. . ... : ... .. . ... : ... .. . ...
ROW 42 : ... .. . ... ... ... P80 : ... .. . ... ... ... ... : ... .. . ... : ... .. . ... : ... .. . ...
ROW 43 : ... .. . ... ... ... ... : ... .. . ... ... ... ... : ... .. . ... : ... .. . ... : ... .. . ...
ROW 44 : A-3 00 1 ... ... ... ... : ... .. . ... ... ... ... : ... .. . ... : ... .. . ... : ... .. . ...
ROW 45 : ... .. . ... ... ... ... : ... .. . ... ... ... ... : ... .. . ... : ... .. . ... : ... .. . ...
ROW 46 : E-3 00 6 V02 ... ... ... : ... .. . ... ... ... ... : ... .. . ... : D-# 00 7 ... : ... .. . ...
ROW 47 : ... .. . ... ... ... ... : ... .. . ... ... ... ... : ... .. . ... : ... .. 3 ... : ... .. . ...
ROW 48 : ... .. 5 V01 ... ... ... : ... .. . ... ... ... ... : ... .. . ... : ... .. 1 ... : ... .. . ...
ROW 49 : ... .. . ... ... ... ... : ... .. . ... ... ... ... : ... .. . ... : ... .. 0 ... : ... .. . ...
ROW 4A : ... .. 4 ... ... ... ... : ... .. . ... ... ... ... : ... .. . ... : ... .. . ... : ... .. . ...
ROW 4B : ... .. . ... ... ... ... : ... .. . ... ... ... ... : --- .. . ... : ... .. . ... : ... .. . ...
ROW 4C : ... .. 3 ... ... ... ... : ... .. . ... ... ... ... : ... .. . ... : ... .. . ... : ... .. . ...
ROW 4D : ... .. . ... ... ... P81 : E-3 00 3 V02 ... ... ... : C-3 00 . ... : D-# 00 7 ... : ... .. . ...
ROW 4E : ... .. 2 ... ... ... ... : ... .. . ... ... ... ... : ... .. . ... : ... .. 3 ... : ... .. . ...
ROW 4F : ... .. . ... ... ... ... : ... .. 2 V01 ... ... ... : ... .. . ... : ... .. 1 ... : ... .. . ...
ROW 50 : ... .. 1 ... ... ... P80 : ... .. . ... ... ... ... : ... .. . ... : ... .. 0 ... : ... .. . ...
ROW 51 : G-3 00 . ... ... ... ... : ... .. . ... ... ... ... : ... .. . ... : ... .. . ... : ... .. . ...
ROW 52 : ... .. . ... ... ... ... : ... .. . ... ... ... ... : --- .. . ... : ... .. . ... : ... .. . ...
ROW 53 : ... .. . ... ... ... ... : ... .. . ... ... ... ... : ... .. . ... : ... .. . ... : ... .. . ...
ROW 54 : F-3 00 6 V02 ... ... ... : ... .. . ... ... ... ... : A-3 00 . P86 : 4-# 00 7 ... : ... .. . ...
ROW 55 : ... .. . ... ... ... ... : ... .. . ... ... ... ... : G#3 00 . P80 : 6-# 00 6 ... : ... .. . ...
ROW 56 : ... .. 5 V01 ... ... ... : ... .. . ... ... ... ... : G-3 00 . P7B : 8-# 00 5 ... : ... .. . ...
ROW 57 : ... .. . ... ... ... ... : ... .. . ... ... ... ... : F-3 00 . P88 : A-# 00 4 ... : ... .. . ...
ROW 58 : ... .. 4 ... ... ... ... : ... .. . ... ... ... ... : E-3 00 . P86 : C-# 00 3 ... : ... .. . ...
ROW 59 : ... .. . ... ... ... ... : ... .. . ... ... ... ... : D#3 00 . P85 : E-# 00 2 ... : ... .. . ...
ROW 5A : ... .. 3 ... ... ... ... : ... .. . ... ... ... ... : D-3 00 . P86 : 0-# 00 1 ... : ... .. . ...
ROW 5B : ... .. . ... ... ... P81 : F-3 00 3 V02 ... ... P7F : C#3 00 . P87 : 2-# 00 0 ... : ... .. . ...
ROW 5C : ... .. 2 ... ... ... ... : ... .. . ... ... ... ... : C-3 00 . P8A : 4-# 00 0 ... : ... .. . ...
ROW 5D : ... .. . ... ... ... ... : ... .. 2 V01 ... ... ... : --- .. . ... : ... .. . ... : ... .. . ...
ROW 5E : ... .. 1 ... ... ... P80 : ... .. . ... ... ... ... : ... .. . ... : ... .. . ... : ... .. . ...
ROW 5F : E-3 00 . ... ... ... ... : ... .. . ... ... ... ... : ... .. . ... : ... .. . ... : ... .. . ...
ROW 60 : ... .. . ... ... ... ... : ... .. . ... ... ... ... : ... .. . ... : ... .. . ... : ... .. . ...
ROW 61 : ... .. . ... ... ... ... : ... .. . ... ... ... ... : ... .. . ... : ... .. . ... : ... .. . ...
ROW 62 : D-3 00 6 V02 ... ... ... : ... .. . ... ... ... ... : C-3 00 . ... : D-# 00 7 ... : ... .. . ...
ROW 63 : ... .. . ... ... ... ... : ... .. . ... ... ... ... : ... .. . ... : ... .. 3 ... : ... .. . ...
ROW 64 : ... .. 5 V01 ... ... ... : ... .. . ... ... ... ... : ... .. . ... : ... .. 1 ... : ... .. . ...
ROW 65 : ... .. . ... ... ... ... : ... .. . ... ... ... ... : ... .. . ... : ... .. 0 ... : ... .. . ...
ROW 66 : ... .. 4 ... ... ... ... : ... .. . ... ... ... ... : ... .. . ... : ... .. . ... : ... .. . ...
ROW 67 : ... .. . ... ... ... ... : ... .. . ... ... ... ... : --- .. . ... : ... .. . ... : ... .. . ...
ROW 68 : ... .. 3 ... ... ... ... : ... .. . ... ... ... ... : ... .. . ... : ... .. . ... : ... .. . ...
ROW 69 : ... .. . ... ... ... P81 : D-3 00 3 V02 ... ... P7F : C-3 00 . ... : D-# 00 7 ... : ... .. . ...
ROW 6A : ... .. 2 ... ... ... ... : ... .. . ... ... ... ... : ... .. . ... : ... .. 3 ... : ... .. . ...
ROW 6B : ... .. . ... ... ... ... : ... .. 2 V01 ... ... ... : ... .. . ... : ... .. 1 ... : ... .. . ...
ROW 6C : ... .. 1 ... ... ... P80 : ... .. . ... ... ... ... : ... .. . ... : ... .. 0 ... : ... .. . ...
ROW 6D : F-3 00 . ... ... ... ... : ... .. . ... ... ... ... : ... .. . ... : ... .. . ... : ... .. . ...
ROW 6E : ... .. . ... ... ... ... : ... .. . ... ... ... ... : --- .. . ... : ... .. . ... : ... .. . ...
ROW 6F : ... .. . ... ... ... ... : ... .. . ... ... ... ... : ... .. . ... : ... .. . ... : ... .. . ...
ROW 70 : E-3 00 6 V02 ... ... ... : D-4 00 5 V02 ... ... P80 : C-3 00 . ... : 2-# 00 7 ... : ... .. . ...
ROW 71 : ... .. . ... ... ... ... : D-5 00 . ... ... ... ... : ... .. . ... : ... .. 6 ... : ... .. . ...
ROW 72 : ... .. 5 V01 ... ... ... : B-3 00 . ... ... ... ... : ... .. . ... : ... .. 5 ... : ... .. . ...
ROW 73 : ... .. . ... ... ... ... : B-4 00 . ... ... ... ... : ... .. . ... : ... .. 4 ... : ... .. . ...
ROW 74 : ... .. 4 ... ... ... ... : G-3 00 4 ... ... ... ... : ... .. . ... : ... .. 3 ... : ... .. . ...
ROW 75 : ... .. . ... ... ... ... : G-4 00 . ... ... ... ... : --- .. . ... : ... .. 2 ... : ... .. . ...
ROW 76 : ... .. . ... ... ... ... : D-4 .. . ... ... ... ... : ... .. . ... : ... .. 1 ... : ... .. . ...
ROW 77 : ... .. . ... ... ... ... : D-5 .. . ... ... ... ... : C-3 00 . ... : D-# 00 7 ... : ... .. . ...
ROW 78 : ... .. . ... ... ... ... : B-3 .. 3 ... ... ... ... : ... .. . ... : ... .. 3 ... : ... .. . ...
ROW 79 : ... .. . ... ... ... ... : B-4 .. . ... ... ... ... : ... .. . ... : ... .. 1 ... : ... .. . ...
ROW 7A : ... .. . ... ... ... ... : G-3 .. . ... ... ... ... : ... .. . ... : ... .. 0 ... : ... .. . ...
ROW 7B : ... .. . ... ... ... ... : G-4 .. . ... ... ... ... : ... .. . ... : ... .. . ... : ... .. . ...
ROW 7C : ... .. . ... ... ... ... : D-4 .. 2 ... ... ... ... : --- .. . ... : ... .. . ... : ... .. . ...
ROW 7D : ... .. . ... ... ... ... : D-5 .. . ... ... ... ... : ... .. . ... : ... .. . ... : ... .. . ...
ROW 7E : ... .. . ... ... ... P81 : B-3 .. . ... ... ... ... : C-3 00 . ... : D-# 00 7 ... : ... .. . ...
ROW 7F : ... .. . ... ... ... ... : B-4 .. . ... ... ... ... : ... .. . ... : ... .. 3 ... : ... .. . ...
ROW 80 : ... .. . ... ... ... ... : G-3 .. 1 ... ... ... ... : ... .. . ... : ... .. 1 ... : ... .. . ...
ROW 81 : ... .. . ... ... ... P80 : G-4 .. . ... ... ... ... : ... .. . ... : ... .. 0 ... : ... .. . ...
ROW 82 : ... .. . ... ... ... ... : D-4 .. . ... ... ... ... : ... .. . ... : ... .. . ... : ... .. . ...
ROW 83 : ... .. . ... ... ... ... : D-5 .. . ... ... ... ... : --- .. . ... : ... .. . ... : ... .. . ...
ROW 84 : ... .. . ... ... ... P7F : B-3 .. . ... ... ... ... : ... .. . ... : ... .. . ... : ... .. . ...
ROW 85 : ... .. . ... ... ... ... : E-3 00 2 V02 ... ... P7F : ... .. . ... : ... .. . ... : ... .. . ...
ROW 86 : ... .. 3 ... ... ... ... : ... .. . ... ... ... ... : ... .. . ... : ... .. . ... : ... .. . ...
ROW 87 : ... .. . ... ... ... P80 : ... .. . V01 ... ... ... : ... .. . ... : ... .. . ... : ... .. . ...
ROW 88 : ... .. 2 ... ... ... ... : ... .. . ... ... ... ... : ... .. . ... : ... .. . ... : ... .. . ...
ROW 89 : ... .. . ... ... ... ... : ... .. . ... ... ... ... : ... .. . ... : ... .. . ... : ... .. . ...
ROW 8A : ... .. 1 ... ... ... P81 : ... .. . ... ... ... ... : --- .. . ... : ... .. . ... : ... .. . ...
ROW 8B : ... .. . ... ... ... ... : ... .. . ... ... ... ... : ... .. . ... : ... .. . ... : ... .. . ...
ROW 8C : G-3 00 6 V02 ... ... P80 : ... .. . ... ... ... ... : A-3 00 . P86 : 4-# 00 7 ... : ... .. . ...
ROW 8D : ... .. . ... ... ... ... : ... .. . ... ... ... ... : G#3 00 . P80 : 6-# 00 6 ... : ... .. . ...
ROW 8E : ... .. 5 V01 ... ... ... : ... .. . ... ... ... ... : G-3 00 . P7B : 8-# 00 5 ... : ... .. . ...
ROW 8F : ... .. . ... ... ... ... : ... .. . ... ... ... ... : F-3 00 . P88 : A-# 00 4 ... : ... .. . ...
ROW 90 : ... .. 4 ... ... ... ... : ... .. . ... ... ... ... : E-3 00 . P86 : C-# 00 3 ... : ... .. . ...
ROW 91 : ... .. . ... ... ... ... : ... .. . ... ... ... ... : D#3 00 . P85 : E-# 00 2 ... : ... .. . ...
ROW 92 : ... .. . ... ... ... ... : ... .. . ... ... ... ... : D-3 00 . P86 : 0-# 00 1 ... : ... .. . ...
ROW 93 : ... .. . ... ... ... ... : G-3 00 3 V02 ... ... ... : C#3 00 . P87 : 2-# 00 0 ... : ... .. . ...
ROW 94 : ... .. . ... ... ... ... : ... .. . ... ... ... ... : C-3 00 . P8A : 4-# 00 0 ... : ... .. . ...
ROW 95 : ... .. . ... ... ... ... : ... .. 2 V01 ... ... ... : --- .. . ... : ... .. . ... : ... .. . ...
ROW 96 : ... .. . ... ... ... ... : ... .. . ... ... ... ... : ... .. . ... : ... .. . ... : ... .. . ...
ROW 97 : ... .. . ... ... ... ... : ... .. . ... ... ... ... : ... .. . ... : ... .. . ... : ... .. . ...
ROW 98 : ... .. . ... ... ... ... : ... .. . ... ... ... ... : --- .. . ... : ... .. . ... : ... .. . ...
ROW 99 : ... .. . ... ... ... ... : ... .. . ... ... ... ... : ... .. . ... : ... .. . ... : ... .. . ...
ROW 9A : ... .. . ... ... ... P81 : E-4 00 5 V02 ... ... P80 : C-3 00 . ... : D-# 00 7 ... : ... .. . ...
ROW 9B : ... .. . ... ... ... ... : E-5 00 . ... ... ... ... : ... .. . ... : ... .. 3 ... : ... .. . ...
ROW 9C : ... .. . ... ... ... ... : C-4 00 . ... ... ... ... : ... .. . ... : ... .. 1 ... : ... .. . ...
ROW 9D : ... .. . ... ... ... P80 : C-5 00 . ... ... ... ... : ... .. . ... : ... .. 0 ... : ... .. . ...
ROW 9E : ... .. . ... ... ... ... : G-3 00 4 ... ... ... ... : ... .. . ... : ... .. . ... : ... .. . ...
ROW 9F : ... .. . ... ... ... ... : G-4 00 . ... ... ... ... : --- .. . ... : ... .. . ... : ... .. . ...
ROW A0 : ... .. . ... ... ... P7F : E-4 00 . ... ... ... ... : ... .. . ... : ... .. . ... : ... .. . ...
ROW A1 : ... .. . ... ... ... ... : E-5 00 . ... ... ... ... : C-3 00 . ... : D-# 00 7 ... : ... .. . ...
ROW A2 : ... .. 3 ... ... ... ... : C-4 00 3 ... ... ... ... : ... .. . ... : ... .. 3 ... : ... .. . ...
ROW A3 : ... .. . ... ... ... P80 : C-5 00 . ... ... ... ... : ... .. . ... : ... .. 1 ... : ... .. . ...
ROW A4 : ... .. 2 ... ... ... ... : G-3 00 . ... ... ... ... : ... .. . ... : ... .. 0 ... : ... .. . ...
ROW A5 : ... .. . ... ... ... ... : G-4 00 . ... ... ... ... : ... .. . ... : ... .. . ... : ... .. . ...
ROW A6 : ... .. 1 ... ... ... P81 : E-4 00 2 ... ... ... ... : --- .. . ... : ... .. . ... : ... .. . ...
ROW A7 : ... .. . ... ... ... ... : E-5 00 . ... ... ... ... : ... .. . ... : ... .. . ... : ... .. . ...
ROW A8 : E-3 00 6 V02 ... ... P80 : C-4 00 . ... ... ... ... : C-3 00 . ... : 2-# 00 7 ... : ... .. . ...
ROW A9 : ... .. . ... ... ... ... : C-5 00 . ... ... ... ... : ... .. . ... : ... .. 6 ... : ... .. . ...
ROW AA : ... .. 5 V01 ... ... ... : G-3 00 1 ... ... ... ... : ... .. . ... : ... .. 5 ... : ... .. . ...
ROW AB : ... .. . ... ... ... ... : G-4 00 . ... ... ... ... : ... .. . ... : ... .. 4 ... : ... .. . ...
ROW AC : ... .. 4 ... ... ... ... : E-4 00 . ... ... ... ... : ... .. . ... : ... .. 3 ... : ... .. . ...
ROW AD : ... .. . ... ... ... ... : E-5 00 . ... ... ... ... : --- .. . ... : ... .. 2 ... : ... .. . ...
ROW AE : ... .. . ... ... ... ... : C-4 00 . ... ... ... ... : ... .. . ... : ... .. 1 ... : ... .. . ...
ROW AF : ... .. . ... ... ... ... : E-3 00 3 V02 ... ... P7F : ... .. . ... : ... .. 0 ... : ... .. . ...
ROW B0 : ... .. . ... ... ... ... : ... .. . ... ... ... ... : ... .. . ... : ... .. . ... : ... .. . ...
ROW B1 : ... .. . ... ... ... ... : ... .. 2 V01 ... ... ... : ... .. . ... : ... .. . ... : ... .. . ...
ROW B2 : ... .. . ... ... ... ... : ... .. . ... ... ... ... : ... .. . ... : ... .. . ... : ... .. . ...
ROW B3 : ... .. . ... ... ... ... : ... .. . ... ... ... ... : ... .. . ... : ... .. . ... : ... .. . ...
ROW B4 : ... .. . ... ... ... ... : ... .. . ... ... ... ... : --- .. . ... : ... .. . ... : ... .. . ...
ROW B5 : ... .. . ... ... ... ... : ... .. . ... ... ... ... : ... .. . ... : ... .. . ... : ... .. . ...
ROW B6 : ... .. . ... ... ... P81 : ... .. . ... ... ... ... : C-3 00 . ... : D-# 00 7 ... : ... .. . ...
ROW B7 : ... .. . ... ... ... ... : ... .. . ... ... ... ... : ... .. . ... : ... .. 3 ... : ... .. . ...
ROW B8 : ... .. . ... ... ... ... : ... .. . ... ... ... ... : ... .. . ... : ... .. 1 ... : ... .. . ...
ROW B9 : ... .. . ... ... ... P80 : ... .. . ... ... ... ... : ... .. . ... : ... .. 0 ... : ... .. . ...
ROW BA : ... .. . ... ... ... ... : ... .. . ... ... ... ... : ... .. . ... : ... .. . ... : ... .. . ...
ROW BB : ... .. . ... ... ... ... : ... .. . ... ... ... ... : --- .. . ... : ... .. . ... : ... .. . ...
ROW BC : ... .. . ... ... ... P7F : ... .. . ... ... ... ... : ... .. . ... : ... .. . ... : ... .. . ...
ROW BD : ... .. . ... ... ... ... : ... .. . ... ... ... ... : C-3 00 . ... : D-# 00 7 ... : ... .. . ...
ROW BE : ... .. 3 ... ... ... ... : ... .. . ... ... ... ... : ... .. . ... : ... .. 3 ... : ... .. . ...
ROW BF : ... .. . ... ... ... P80 : ... .. . ... ... ... ... : ... .. . ... : ... .. 1 ... : ... .. . ...
ROW C0 : ... .. 2 ... ... ... ... : ... .. . ... ... ... ... : ... .. . ... : ... .. 0 ... : ... .. . ...
ROW C1 : ... .. . ... ... ... ... : ... .. . ... ... ... ... : ... .. . ... : ... .. . ... : ... .. . ...
ROW C2 : ... .. 1 ... ... ... P81 : ... .. . ... ... ... ... : --- .. . ... : ... .. . ... : ... .. . ...
ROW C3 : ... .. . ... ... ... ... : ... .. . ... ... ... ... : ... .. . ... : ... .. . ... : ... .. . ...
ROW C4 : G-3 00 6 V02 ... ... P80 : ... .. . ... ... ... ... : A-3 00 . P86 : 4-# 00 7 ... : ... .. . ...
ROW C5 : ... .. . ... ... ... ... : ... .. . ... ... ... ... : G#3 00 . P80 : 6-# 00 6 ... : ... .. . ...
ROW C6 : ... .. 5 V01 ... ... ... : ... .. . ... ... ... ... : G-3 00 . P7B : 8-# 00 5 ... : ... .. . ...
ROW C7 : ... .. . ... ... ... ... : ... .. . ... ... ... ... : F-3 00 . P88 : A-# 00 4 ... : ... .. . ...
ROW C8 : ... .. 4 ... ... ... ... : ... .. . ... ... ... ... : E-3 00 . P86 : C-# 00 3 ... : ... .. . ...
ROW C9 : ... .. . ... ... ... ... : ... .. . ... ... ... ... : D#3 00 . P85 : E-# 00 2 ... : ... .. . ...
ROW CA : ... .. . ... ... ... ... : ... .. . ... ... ... ... : D-3 00 . P86 : 0-# 00 1 ... : ... .. . ...
ROW CB : ... .. . ... ... ... ... : G-3 00 3 V02 ... ... ... : C#3 00 . P87 : 2-# 00 0 ... : ... .. . ...
ROW CC : ... .. . ... ... ... ... : ... .. . ... ... ... ... : C-3 00 . P8A : 4-# 00 0 ... : ... .. . ...
ROW CD : ... .. . ... ... ... ... : ... .. 2 V01 ... ... ... : --- .. . ... : ... .. . ... : ... .. . ...
ROW CE : ... .. . ... ... ... ... : ... .. . ... ... ... ... : ... .. . ... : ... .. . ... : ... .. . ...
ROW CF : ... .. . ... ... ... ... : ... .. . ... ... ... ... : ... .. . ... : ... .. . ... : ... .. . ...
ROW D0 : ... .. . ... ... ... ... : ... .. . ... ... ... ... : ... .. . ... : ... .. . ... : ... .. . ...
ROW D1 : ... .. . ... ... ... ... : ... .. . ... ... ... ... : ... .. . ... : ... .. . ... : ... .. . ...
ROW D2 : ... .. . ... ... ... P81 : ... .. . ... ... ... ... : C-3 00 . ... : D-# 00 7 ... : ... .. . ...
ROW D3 : ... .. . ... ... ... ... : ... .. . ... ... ... ... : ... .. . ... : ... .. 3 ... : ... .. . ...
ROW D4 : ... .. . ... ... ... ... : ... .. . ... ... ... ... : ... .. . ... : ... .. 1 ... : ... .. . ...
ROW D5 : ... .. . ... ... ... P80 : ... .. . ... ... ... ... : ... .. . ... : ... .. 0 ... : ... .. . ...
ROW D6 : ... .. . ... ... ... ... : ... .. . ... ... ... ... : ... .. . ... : ... .. . ... : ... .. . ...
ROW D7 : ... .. . ... ... ... ... : ... .. . ... ... ... ... : --- .. . ... : ... .. . ... : ... .. . ...
ROW D8 : ... .. . ... ... ... P7F : ... .. . ... ... ... ... : ... .. . ... : ... .. . ... : ... .. . ...
ROW D9 : ... .. . ... ... ... ... : ... .. . ... ... ... ... : C-3 00 . ... : D-# 00 7 ... : ... .. . ...
ROW DA : ... .. . ... ... ... ... : ... .. . ... ... ... ... : ... .. . ... : ... .. 3 ... : ... .. . ...
ROW DB : ... .. . ... ... ... P80 : ... .. . ... ... ... ... : ... .. . ... : ... .. 1 ... : ... .. . ...
ROW DC : ... .. . ... ... ... ... : ... .. . ... ... ... ... : ... .. . ... : ... .. 0 ... : ... .. . ...
ROW DD : ... .. . ... ... ... ... : ... .. . ... ... ... ... : ... .. . ... : ... .. . ... : ... .. . ...
ROW DE : ... .. . ... ... ... P81 : ... .. . ... ... ... ... : --- .. . ... : ... .. . ... : ... .. . ...
ROW DF : ... .. . ... ... ... ... : ... .. . ... ... ... ... : ... .. . P80 : ... .. . ... : ... .. . ...

PATTERN 16
ROW 00 : ... .. . ... ... ... ... : C-4 00 5 V02 ... ... ... : C-3 00 . ... : 2-# 00 7 ... : ... .. . ...
ROW 01 : ... .. . ... ... ... P80 : C-5 00 . ... ... ... ... : ... .. . ... : ... .. 6 ... : ... .. . ...
ROW 02 : ... .. . ... ... ... ... : A-3 00 . ... ... ... ... : ... .. . ... : ... .. 5 ... : ... .. . ...
ROW 03 : ... .. . ... ... ... ... : A-4 00 . ... ... ... ... : ... .. . ... : ... .. 4 ... : ... .. . ...
ROW 04 : ... .. . ... ... ... P7F : F-3 00 4 ... ... ... ... : ... .. . ... : ... .. 3 ... : ... .. . ...
ROW 05 : ... .. . ... ... ... ... : F-4 00 . ... ... ... ... : --- .. . ... : ... .. 2 ... : ... .. . ...
ROW 06 : ... .. . ... ... ... ... : C-4 00 . ... ... ... ... : ... .. . ... : ... .. 1 ... : ... .. . ...
ROW 07 : ... .. 4 ... ... ... P80 : C-5 00 . ... ... ... ... : C-3 00 . ... : D-# 00 7 ... : ... .. . ...
ROW 08 : ... .. . ... ... ... ... : A-3 00 3 ... ... ... ... : ... .. . ... : ... .. 3 ... : ... .. . ...
ROW 09 : ... .. 3 ... ... ... ... : A-4 00 . ... ... ... ... : ... .. . ... : ... .. 1 ... : ... .. . ...
ROW 0A : ... .. . ... ... ... P81 : F-3 00 . ... ... ... ... : ... .. . ... : ... .. 0 ... : ... .. . ...
ROW 0B : ... .. 2 ... ... ... ... : F-4 00 . ... ... ... ... : ... .. . ... : ... .. . ... : ... .. . ...
ROW 0C : ... .. . ... ... ... ... : C-4 00 2 ... ... ... ... : --- .. . ... : ... .. . ... : ... .. . ...
ROW 0D : ... .. 1 ... ... ... P80 : C-5 00 . ... ... ... ... : ... .. . ... : ... .. . ... : ... .. . ...
ROW 0E : C-3 00 6 V02 ... ... ... : A-3 00 . ... ... ... ... : C-3 00 . ... : D-# 00 7 ... : ... .. . ...
ROW 0F : ... .. . ... ... ... ... : A-4 00 . ... ... ... ... : ... .. . ... : ... .. 3 ... : ... .. . ...
ROW 10 : ... .. 5 V01 ... ... ... : F-3 00 1 ... ... ... ... : ... .. . ... : ... .. 1 ... : ... .. . ...
ROW 11 : ... .. . ... ... ... ... : F-4 00 . ... ... ... ... : ... .. . ... : ... .. 0 ... : ... .. . ...
ROW 12 : ... .. 4 ... ... ... ... : C-4 00 . ... ... ... ... : ... .. . ... : ... .. . ... : ... .. . ...
ROW 13 : ... .. . ... ... ... ... : C-5 00 . ... ... ... ... : --- .. . ... : ... .. . ... : ... .. . ...
ROW 14 : ... .. 3 ... ... ... ... : A-3 00 . ... ... ... ... : ... .. . ... : ... .. . ... : ... .. . ...
ROW 15 : ... .. . ... ... ... P81 : C-3 00 3 V02 ... ... P7F : ... .. . ... : ... .. . ... : ... .. . ...
ROW 16 : ... .. 2 ... ... ... ... : ... .. . ... ... ... ... : ... .. . ... : ... .. . ... : ... .. . ...
ROW 17 : ... .. . ... ... ... ... : ... .. 2 V01 ... ... ... : ... .. . ... : ... .. . ... : ... .. . ...
ROW 18 : ... .. 1 ... ... ... P80 : ... .. . ... ... ... ... : ... .. . ... : ... .. . ... : ... .. . ...
ROW 19 : ... .. . ... ... ... ... : ... .. . ... ... ... ... : ... .. . ... : ... .. . ... : ... .. . ...
ROW 1A : ... .. . ... ... ... ... : ... .. . ... ... ... ... : --- .. . ... : ... .. . ... : ... .. . ...
ROW 1B : ... .. . ... ... ... ... : ... .. . ... ... ... ... : ... .. . ... : ... .. . ... : ... .. . ...
ROW 1C : D-3 00 6 V02 ... ... ... : ... .. . ... ... ... ... : A-3 00 . P86 : 4-# 00 7 ... : ... .. . ...
ROW 1D : ... .. . ... ... ... ... : ... .. . ... ... ... ... : G#3 00 . P80 : 6-# 00 6 ... : ... .. . ...
ROW 1E : ... .. 5 V01 ... ... ... : ... .. . ... ... ... ... : G-3 00 . P7B : 8-# 00 5 ... : ... .. . ...
ROW 1F : ... .. . ... ... ... ... : ... .. . ... ... ... ... : F-3 00 . P88 : A-# 00 4 ... : ... .. . ...
ROW 20 : ... .. 4 ... ... ... ... : ... .. . ... ... ... ... : E-3 00 . P86 : C-# 00 3 ... : ... .. . ...
ROW 21 : ... .. . ... ... ... ... : ... .. . ... ... ... ... : D#3 00 . P85 : E-# 00 2 ... : ... .. . ...
ROW 22 : ... .. 3 ... ... ... ... : ... .. . ... ... ... ... : D-3 00 . P86 : 0-# 00 1 ... : ... .. . ...
ROW 23 : ... .. . ... ... ... P81 : D-3 00 3 V02 ... ... P7F : C#3 00 . P87 : 2-# 00 0 ... : ... .. . ...
ROW 24 : ... .. 2 ... ... ... ... : ... .. . ... ... ... ... : C-3 00 . P8A : 4-# 00 0 ... : ... .. . ...
ROW 25 : ... .. . ... ... ... ... : ... .. 2 V01 ... ... ... : --- .. . ... : ... .. . ... : ... .. . ...
ROW 26 : ... .. 1 ... ... ... P80 : ... .. . ... ... ... ... : ... .. . ... : ... .. . ... : ... .. . ...
ROW 27 : C-3 00 . ... ... ... ... : ... .. . ... ... ... ... : ... .. . ... : ... .. . ... : ... .. . ...
ROW 28 : ... .. . ... ... ... ... : ... .. . ... ... ... ... : ... .. . ... : ... .. . ... : ... .. . ...
ROW 29 : ... .. . ... ... ... ... : ... .. . ... ... ... ... : ... .. . ... : ... .. . ... : ... .. . ...
ROW 2A : F-3 00 6 V02 ... ... ... : D-4 00 5 V02 ... ... P80 : C-3 00 . P80 : D-# 00 7 ... : ... .. . ...
ROW 2B : ... .. . ... ... ... ... : D-5 00 . ... ... ... ... : ... .. . ... : ... .. 3 ... : ... .. . ...
ROW 2C : ... .. 5 V01 ... ... ... : B-3 00 . ... ... ... ... : ... .. . ... : ... .. 1 ... : ... .. . ...
ROW 2D : ... .. . ... ... ... ... : B-4 00 . ... ... ... ... : ... .. . ... : ... .. 0 ... : ... .. . ...
ROW 2E : ... .. 4 ... ... ... ... : G-3 00 4 ... ... ... ... : ... .. . ... : ... .. . ... : ... .. . ...
ROW 2F : ... .. . ... ... ... ... : G-4 00 . ... ... ... ... : --- .. . ... : ... .. . ... : ... .. . ...
ROW 30 : ... .. 3 ... ... ... ... : D-4 00 . ... ... ... ... : ... .. . ... : ... .. . ... : ... .. . ...
ROW 31 : ... .. . ... ... ... P81 : D-5 00 . ... ... ... ... : C-3 00 . ... : D-# 00 7 ... : ... .. . ...
ROW 32 : ... .. 2 ... ... ... ... : B-3 00 3 ... ... ... ... : ... .. . ... : ... .. 3 ... : ... .. . ...
ROW 33 : ... .. . ... ... ... ... : B-4 00 . ... ... ... ... : ... .. . ... : ... .. 1 ... : ... .. . ...
ROW 34 : ... .. 1 ... ... ... P80 : G-3 00 . ... ... ... ... : ... .. . ... : ... .. 0 ... : ... .. . ...
ROW 35 : D-3 00 . ... ... ... ... : G-4 00 . ... ... ... ... : ... .. . ... : ... .. . ... : ... .. . ...
ROW 36 : ... .. . ... ... ... ... : D-4 00 2 ... ... ... ... : --- .. . ... : ... .. . ... : ... .. . ...
ROW 37 : ... .. . ... ... ... ... : D-5 00 . ... ... ... ... : ... .. . ... : ... .. . ... : ... .. . ...
ROW 38 : E-3 00 6 V02 ... ... ... : B-3 00 . ... ... ... ... : C-3 00 . ... : 2-# 00 7 ... : ... .. . ...
ROW 39 : ... .. . ... ... ... ... : B-4 00 . ... ... ... ... : ... .. . ... : ... .. 6 ... : ... .. . ...
ROW 3A : ... .. . V01 ... ... ... : G-3 00 1 ... ... ... ... : ... .. . ... : ... .. 5 ... : ... .. . ...
ROW 3B : ... .. 5 ... ... ... ... : G-4 00 . ... ... ... ... : ... .. . ... : ... .. 4 ... : ... .. . ...
ROW 3C : ... .. . ... ... ... ... : D-4 00 . ... ... ... ... : ... .. . ... : ... .. 3 ... : ... .. . ...
ROW 3D : ... .. . ... ... ... ... : D-5 00 . ... ... ... ... : --- .. . ... : ... .. 2 ... : ... .. . ...
ROW 3E : ... .. 4 ... ... ... ... : B-3 00 . ... ... ... ... : ... .. . ... : ... .. 1 ... : ... .. . ...
ROW 3F : ... .. . ... ... ... P81 : E-3 00 3 V02 ... ... P7F : ... .. . ... : ... .. 0 ... : ... .. . ...
ROW 40 : ... .. . ... ... ... ... : ... .. . ... ... ... ... : ... .. . ... : ... .. . ... : ... .. . ...
ROW 41 : ... .. 3 ... ... ... ... : ... .. 2 V01 ... ... ... : ... .. . ... : ... .. . ... : ... .. . ...
ROW 42 : ... .. . ... ... ... P80 : ... .. . ... ... ... ... : ... .. . ... : ... .. . ... : ... .. . ...
ROW 43 : ... .. . ... ... ... ... : ... .. . ... ... ... ... : ... .. . ... : ... .. . ... : ... .. . ...
ROW 44 : F-3 00 1 ... ... ... ... : ... .. . ... ... ... ... : ... .. . ... : ... .. . ... : ... .. . ...
ROW 45 : ... .. . ... ... ... ... : ... .. . ... ... ... ... : ... .. . ... : ... .. . ... : ... .. . ...
ROW 46 : C-3 00 6 V02 ... ... ... : ... .. . ... ... ... ... : ... .. . ... : D-# 00 7 ... : ... .. . ...
ROW 47 : ... .. . ... ... ... ... : ... .. . ... ... ... ... : ... .. . ... : ... .. 3 ... : ... .. . ...
ROW 48 : ... .. 5 V01 ... ... ... : ... .. . ... ... ... ... : ... .. . ... : ... .. 1 ... : ... .. . ...
ROW 49 : ... .. . ... ... ... ... : ... .. . ... ... ... ... : ... .. . ... : ... .. 0 ... : ... .. . ...
ROW 4A : ... .. 4 ... ... ... ... : ... .. . ... ... ... ... : ... .. . ... : ... .. . ... : ... .. . ...
ROW 4B : ... .. . ... ... ... ... : ... .. . ... ... ... ... : --- .. . ... : ... .. . ... : ... .. . ...
ROW 4C : ... .. 3 ... ... ... ... : ... .. . ... ... ... ... : ... .. . ... : ... .. . ... : ... .. . ...
ROW 4D : ... .. . ... ... ... P81 : C-3 00 3 V02 ... ... P7F : C-3 00 . ... : D-# 00 7 ... : ... .. . ...
ROW 4E : ... .. 2 ... ... ... ... : ... .. . ... ... ... ... : ... .. . ... : ... .. 3 ... : ... .. . ...
ROW 4F : ... .. . ... ... ... ... : ... .. 2 V01 ... ... ... : ... .. . ... : ... .. 1 ... : ... .. . ...
ROW 50 : ... .. 1 ... ... ... P80 : ... .. . ... ... ... ... : ... .. . ... : ... .. 0 ... : ... .. . ...
ROW 51 : E-3 00 . ... ... ... ... : ... .. . ... ... ... ... : ... .. . ... : ... .. . ... : ... .. . ...
ROW 52 : ... .. . ... ... ... ... : ... .. . ... ... ... ... : --- .. . ... : ... .. . ... : ... .. . ...
ROW 53 : ... .. . ... ... ... ... : ... .. . ... ... ... ... : ... .. . ... : ... .. . ... : ... .. . ...
ROW 54 : D-3 00 6 V02 ... ... ... : ... .. . ... ... ... ... : A-3 00 . P86 : 4-# 00 7 ... : ... .. . ...
ROW 55 : ... .. . ... ... ... ... : ... .. . ... ... ... ... : G#3 00 . P80 : 6-# 00 6 ... : ... .. . ...
ROW 56 : ... .. 5 V01 ... ... ... : ... .. . ... ... ... ... : G-3 00 . P7B : 8-# 00 5 ... : ... .. . ...
ROW 57 : ... .. . ... ... ... ... : ... .. . ... ... ... ... : F-3 00 . P88 : A-# 00 4 ... : ... .. . ...
ROW 58 : ... .. 4 ... ... ... ... : ... .. . ... ... ... ... : E-3 00 . P86 : C-# 00 3 ... : ... .. . ...
ROW 59 : ... .. . ... ... ... ... : ... .. . ... ... ... ... : D#3 00 . P85 : E-# 00 2 ... : ... .. . ...
ROW 5A : ... .. 3 ... ... ... ... : ... .. . ... ... ... ... : D-3 00 . P86 : 0-# 00 1 ... : ... .. . ...
ROW 5B : ... .. . ... ... ... P81 : D-3 00 3 V02 ... ... P7F : C#3 00 . P87 : 2-# 00 0 ... : ... .. . ...
ROW 5C : ... .. 2 ... ... ... ... : ... .. . ... ... ... ... : C-3 00 . P8A : 4-# 00 0 ... : ... .. . ...
ROW 5D : ... .. . ... ... ... ... : ... .. 2 V01 ... ... ... : --- .. . ... : ... .. . ... : ... .. . ...
ROW 5E : ... .. 1 ... ... ... P80 : ... .. . ... ... ... ... : ... .. . ... : ... .. . ... : ... .. . ...
ROW 5F : C-3 00 . ... ... ... ... : ... .. . ... ... ... ... : ... .. . ... : ... .. . ... : ... .. . ...
ROW 60 : ... .. . ... ... ... ... : ... .. . ... ... ... ... : ... .. . ... : ... .. . ... : ... .. . ...
ROW 61 : ... .. . ... ... ... ... : ... .. . ... ... ... ... : ... .. . ... : ... .. . ... : ... .. . ...
ROW 62 : A-3 00 6 V02 ... ... ... : ... .. . ... ... ... ... : C-3 00 . ... : D-# 00 7 ... : ... .. . ...
ROW 63 : ... .. . ... ... ... ... : ... .. . ... ... ... ... : ... .. . ... : ... .. 3 ... : ... .. . ...
ROW 64 : ... .. 5 V01 ... ... ... : ... .. . ... ... ... ... : ... .. . ... : ... .. 1 ... : ... .. . ...
ROW 65 : ... .. . ... ... ... ... : ... .. . ... ... ... ... : ... .. . ... : ... .. 0 ... : ... .. . ...
ROW 66 : ... .. 4 ... ... ... ... : ... .. . ... ... ... ... : ... .. . ... : ... .. . ... : ... .. . ...
ROW 67 : ... .. . ... ... ... ... : ... .. . ... ... ... ... : --- .. . ... : ... .. . ... : ... .. . ...
ROW 68 : ... .. 3 ... ... ... ... : ... .. . ... ... ... ... : ... .. . ... : ... .. . ... : ... .. . ...
ROW 69 : ... .. . ... ... ... P81 : A-3 00 3 V02 ... ... P7F : C-3 00 . ... : D-# 00 7 ... : ... .. . ...
ROW 6A : ... .. 2 ... ... ... ... : ... .. . ... ... ... ... : ... .. . ... : ... .. 3 ... : ... .. . ...
ROW 6B : ... .. . ... ... ... ... : ... .. 2 V01 ... ... ... : ... .. . ... : ... .. 1 ... : ... .. . ...
ROW 6C : ... .. 1 ... ... ... P80 : ... .. . ... ... ... ... : ... .. . ... : ... .. 0 ... : ... .. . ...
ROW 6D : D-3 00 . ... ... ... ... : ... .. . ... ... ... ... : ... .. . ... : ... .. . ... : ... .. . ...
ROW 6E : ... .. . ... ... ... ... : ... .. . ... ... ... ... : --- .. . ... : ... .. . ... : ... .. . ...
ROW 6F : ... .. . ... ... ... ... : ... .. . ... ... ... ... : ... .. . ... : ... .. . ... : ... .. . ...
ROW 70 : G-3 00 6 V02 ... ... ... : D-4 00 5 V02 ... ... P80 : C-3 00 . ... : 2-# 00 7 ... : ... .. . ...
ROW 71 : ... .. . ... ... ... ... : D-5 00 . ... ... ... ... : ... .. . ... : ... .. 6 ... : ... .. . ...
ROW 72 : ... .. 5 V01 ... ... ... : B-3 00 . ... ... ... ... : ... .. . ... : ... .. 5 ... : ... .. . ...
ROW 73 : ... .. . ... ... ... ... : B-4 00 . ... ... ... ... : ... .. . ... : ... .. 4 ... : ... .. . ...
ROW 74 : ... .. 4 ... ... ... ... : G-3 00 4 ... ... ... ... : ... .. . ... : ... .. 3 ... : ... .. . ...
ROW 75 : ... .. . ... ... ... ... : G-4 00 . ... ... ... ... : --- .. . ... : ... .. 2 ... : ... .. . ...
ROW 76 : ... .. . ... ... ... ... : D-4 00 . ... ... ... ... : ... .. . ... : ... .. 1 ... : ... .. . ...
ROW 77 : ... .. . ... ... ... ... : D-5 00 . ... ... ... ... : C-3 00 . ... : D-# 00 7 ... : ... .. . ...
ROW 78 : ... .. . ... ... ... ... : B-3 00 3 ... ... ... ... : ... .. . ... : ... .. 3 ... : ... .. . ...
ROW 79 : ... .. . ... ... ... ... : B-4 00 . ... ... ... ... : ... .. . ... : ... .. 1 ... : ... .. . ...
ROW 7A : ... .. . ... ... ... ... : G-3 00 . ... ... ... ... : ... .. . ... : ... .. 0 ... : ... .. . ...
ROW 7B : ... .. . ... ... ... ... : G-4 00 . ... ... ... ... : ... .. . ... : ... .. . ... : ... .. . ...
ROW 7C : ... .. . ... ... ... ... : D-4 00 2 ... ... ... ... : --- .. . ... : ... .. . ... : ... .. . ...
ROW 7D : ... .. . ... ... ... ... : D-5 00 . ... ... ... ... : ... .. . ... : ... .. . ... : ... .. . ...
ROW 7E : ... .. . ... ... ... ... : B-3 00 . ... ... ... ... : C-3 00 . ... : D-# 00 7 ... : ... .. . ...
ROW 7F : ... .. . ... ... ... ... : B-4 00 . ... ... ... ... : ... .. . ... : ... .. 3 ... : ... .. . ...
ROW 80 : ... .. . ... ... ... ... : G-3 00 1 ... ... ... ... : ... .. . ... : ... .. 1 ... : ... .. . ...
ROW 81 : ... .. . ... ... ... ... : G-4 00 . ... ... ... ... : ... .. . ... : ... .. 0 ... : ... .. . ...
ROW 82 : ... .. . ... ... ... ... : D-4 00 . ... ... ... ... : ... .. . ... : ... .. . ... : ... .. . ...
ROW 83 : ... .. . ... ... ... ... : D-5 00 . ... ... ... ... : --- .. . ... : ... .. . ... : ... .. . ...
ROW 84 : ... .. . ... ... ... ... : B-3 00 . ... ... ... ... : ... .. . ... : ... .. . ... : ... .. . ...
ROW 85 : ... .. . ... ... ... ... : G-3 00 3 V02 ... ... P7F : ... .. . ... : ... .. . ... : ... .. . ...
ROW 86 : ... .. . ... ... ... ... : ... .. . ... ... ... ... : ... .. . ... : ... .. . ... : ... .. . ...
ROW 87 : ... .. . ... ... ... ... : ... .. 2 V01 ... ... ... : ... .. . ... : ... .. . ... : ... .. . ...
ROW 88 : ... .. . ... ... ... ... : ... .. . ... ... ... ... : ... .. . ... : ... .. . ... : ... .. . ...
ROW 89 : ... .. . ... ... ... ... : ... .. . ... ... ... ... : ... .. . ... : ... .. . ... : ... .. . ...
ROW 8A : ... .. . ... ... ... ... : ... .. . ... ... ... ... : --- .. . ... : ... .. . ... : ... .. . ...
ROW 8B : ... .. . ... ... ... ... : ... .. . ... ... ... ... : ... .. . ... : ... .. . ... : ... .. . ...
ROW 8C : ... .. . ... ... ... ... : ... .. . ... ... ... ... : A-3 00 . P86 : 4-# 00 7 ... : ... .. . ...
ROW 8D : ... .. . ... ... ... ... : ... .. . ... ... ... ... : G#3 00 . P80 : 6-# 00 6 ... : ... .. . ...
ROW 8E : ... .. . ... ... ... ... : ... .. . ... ... ... ... : G-3 00 . P7B : 8-# 00 5 ... : ... .. . ...
ROW 8F : ... .. . ... ... ... ... : ... .. . ... ... ... ... : F-3 00 . P88 : A-# 00 4 ... : ... .. . ...
ROW 90 : ... .. . ... ... ... ... : ... .. . ... ... ... ... : E-3 00 . P86 : C-# 00 3 ... : ... .. . ...
ROW 91 : ... .. . ... ... ... ... : ... .. . ... ... ... ... : D#3 00 . P85 : E-# 00 2 ... : ... .. . ...
ROW 92 : ... .. . ... ... ... ... : ... .. . ... ... ... ... : D-3 00 . P86 : 0-# 00 1 ... : ... .. . ...
ROW 93 : ... .. . ... ... ... ... : ... .. . ... ... ... ... : C#3 00 . P87 : 2-# 00 0 ... : ... .. . ...
ROW 94 : ... .. . ... ... ... ... : ... .. . ... ... ... ... : C-3 00 . P8A : 4-# 00 0 ... : ... .. . ...
ROW 95 : ... .. . ... ... ... ... : ... .. . ... ... ... ... : --- .. . ... : ... .. . ... : ... .. . ...
ROW 96 : ... .. . ... ... ... ... : ... .. . ... ... ... ... : ... .. . ... : ... .. . ... : ... .. . ...
ROW 97 : ... .. . ... ... ... ... : ... .. . ... ... ... ... : ... .. . ... : ... .. . ... : ... .. . ...
ROW 98 : ... .. . ... ... ... ... : ... .. . ... ... ... ... : --- .. . ... : ... .. . ... : ... .. . ...
ROW 99 : ... .. . ... ... ... ... : ... .. . ... ... ... ... : ... .. . ... : ... .. . ... : ... .. . ...
ROW 9A : ... .. . ... ... ... ... : E-4 00 5 V02 ... ... P80 : C-3 00 . P80 : D-# 00 7 ... : ... .. . ...
ROW 9B : ... .. . ... ... ... ... : E-5 00 . ... ... ... ... : ... .. . ... : ... .. 3 ... : ... .. . ...
ROW 9C : ... .. . ... ... ... ... : C-4 00 . ... ... ... ... : ... .. . ... : ... .. 1 ... : ... .. . ...
ROW 9D : ... .. . ... ... ... ... : C-5 00 . ... ... ... ... : ... .. . ... : ... .. 0 ... : ... .. . ...
ROW 9E : ... .. . ... ... ... ... : G-3 00 4 ... ... ... ... : ... .. . ... : ... .. . ... : ... .. . ...
ROW 9F : ... .. . ... ... ... ... : G-4 00 . ... ... ... ... : --- .. . ... : ... .. . ... : ... .. . ...
ROW A0 : ... .. . ... ... ... ... : E-4 00 . ... ... ... ... : ... .. . ... : ... .. . ... : ... .. . ...
ROW A1 : ... .. . ... ... ... ... : E-5 00 . ... ... ... ... : C-3 00 . ... : D-# 00 7 ... : ... .. . ...
ROW A2 : ... .. . ... ... ... ... : C-4 00 3 ... ... ... ... : ... .. . ... : ... .. 3 ... : ... .. . ...
ROW A3 : ... .. . ... ... ... ... : C-5 00 . ... ... ... ... : ... .. . ... : ... .. 1 ... : ... .. . ...
ROW A4 : ... .. . ... ... ... ... : G-3 00 . ... ... ... ... : ... .. . ... : ... .. 0 ... : ... .. . ...
ROW A5 : ... .. . ... ... ... ... : G-4 00 . ... ... ... ... : ... .. . ... : ... .. . ... : ... .. . ...
ROW A6 : ... .. . ... ... ... ... : E-4 00 2 ... ... ... ... : --- .. . ... : ... .. . ... : ... .. . ...
ROW A7 : ... .. . ... ... ... ... : E-5 00 . ... ... ... ... : ... .. . ... : ... .. . ... : ... .. . ...
ROW A8 : ... .. . ... ... ... P7F : C-4 00 . ... ... ... ... : C-3 00 . ... : 2-# 00 7 ... : ... .. . ...
ROW A9 : ... .. . ... ... ... P7E : C-5 00 . ... ... ... ... : ... .. . ... : ... .. 6 ... : ... .. . ...
ROW AA : ... .. . ... ... ... P7D : G-3 00 1 ... ... ... ... : ... .. . ... : ... .. 5 ... : ... .. . ...
ROW AB : ... .. . ... ... ... P7E : G-4 00 . ... ... ... ... : ... .. . ... : ... .. 4 ... : ... .. . ...
ROW AC : ... .. . ... ... ... P7F : E-4 00 . ... ... ... ... : ... .. . ... : ... .. 3 ... : ... .. . ...
ROW AD : ... .. . ... ... ... P80 : E-5 00 . ... ... ... ... : --- .. . ... : ... .. 2 ... : ... .. . ...
ROW AE : ... .. . ... ... ... P81 : C-4 00 . ... ... ... ... : ... .. . ... : ... .. 1 ... : ... .. . ...
ROW AF : ... .. . ... ... ... P82 : G-3 00 3 V02 ... ... P7F : C-4 00 . ... : ... .. 0 ... : ... .. . ...
ROW B0 : ... .. . ... ... ... P83 : ... .. . ... ... ... ... : ... .. . ... : ... .. . ... : ... .. . ...
ROW B1 : ... .. . ... ... ... P82 : ... .. 2 V01 ... ... ... : ... .. . ... : ... .. . ... : ... .. . ...
ROW B2 : ... .. . ... ... ... P81 : ... .. . ... ... ... ... : ... .. . ... : ... .. . ... : ... .. . ...
ROW B3 : ... .. . ... ... ... P80 : ... .. . ... ... ... ... : ... .. . ... : ... .. . ... : ... .. . ...
ROW B4 : ... .. . ... ... ... P7F : ... .. . ... ... ... ... : --- .. . ... : ... .. . ... : ... .. . ...
ROW B5 : ... .. . ... ... ... P7E : ... .. . ... ... ... ... : ... .. . ... : ... .. . ... : ... .. . ...
ROW B6 : ... .. . ... ... ... P7D : C-3 00 4 V02 ... ... P82 : B-3 00 . ... : D-# 00 7 ... : ... .. . ...
ROW B7 : ... .. . ... ... ... P7E : ... .. . ... ... ... ... : ... .. . ... : ... .. 3 ... : ... .. . ...
ROW B8 : ... .. . ... ... ... P7F : ... .. . ... ... ... ... : ... .. . ... : ... .. 1 ... : ... .. . ...
ROW B9 : ... .. . ... ... ... P80 : ... .. . ... ... ... ... : ... .. . ... : ... .. 0 ... : ... .. . ...
ROW BA : ... .. . ... ... ... P81 : ... .. . ... ... ... ... : ... .. . ... : ... .. . ... : ... .. . ...
ROW BB : ... .. . ... ... ... P82 : ... .. 2 ... ... ... ... : --- .. . ... : ... .. . ... : ... .. . ...
ROW BC : ... .. . ... ... ... P83 : ... .. . ... ... ... ... : ... .. . ... : ... .. . ... : ... .. . ...
ROW BD : ... .. . ... ... ... P82 : B-2 00 4 V02 ... ... P82 : G-3 00 . ... : D-# 00 7 ... : ... .. . ...
ROW BE : ... .. . ... ... ... P81 : ... .. . ... ... ... ... : ... .. . ... : ... .. 3 ... : ... .. . ...
ROW BF : ... .. . ... ... ... P80 : ... .. . ... ... ... ... : ... .. . ... : ... .. 1 ... : ... .. . ...
ROW C0 : ... .. . ... ... ... P7F : ... .. . ... ... ... ... : ... .. . ... : ... .. 0 ... : ... .. . ...
ROW C1 : ... .. . ... ... ... P7E : ... .. . ... ... ... ... : ... .. . ... : ... .. . ... : ... .. . ...
ROW C2 : ... .. . ... ... ... P7D : ... .. 2 ... ... ... ... : --- .. . ... : ... .. . ... : ... .. . ...
ROW C3 : ... .. . ... ... ... P7E : ... .. . ... ... ... ... : ... .. . ... : ... .. . ... : ... .. . ...
ROW C4 : ... .. . ... ... ... P7F : G-2 00 4 ... ... ... ... : C-3 00 . ... : 4-# 00 7 ... : ... .. . ...
ROW C5 : ... .. . ... ... ... P80 : ... .. . ... ... ... ... : ... .. . ... : 6-# 00 6 ... : ... .. . ...
ROW C6 : ... .. . ... ... ... P81 : ... .. . ... ... ... ... : ... .. . ... : 8-# 00 5 ... : ... .. . ...
ROW C7 : ... .. . ... ... ... P82 : ... .. . ... ... ... ... : ... .. . ... : A-# 00 4 ... : ... .. . ...
ROW C8 : ... .. . ... ... ... P83 : ... .. . ... ... ... ... : ... .. . ... : C-# 00 3 ... : ... .. . ...
ROW C9 : ... .. . ... ... ... P82 : ... .. 2 ... ... ... ... : --- .. . ... : E-# 00 2 ... : ... .. . ...
ROW CA : ... .. . ... ... ... P81 : ... .. . ... ... ... ... : ... .. . ... : 0-# 00 1 ... : ... .. . ...
ROW CB : ... .. 4 ... ... ... P80 : C-2 00 4 ... ... ... ... : C-3 00 . ... : 2-# 00 0 ... : ... .. . ...
ROW CC : ... .. . ... ... ... P7F : ... .. . ... ... ... ... : ... .. . ... : 4-# 00 0 ... : ... .. . ...
ROW CD : ... .. 3 ... ... ... P7E : ... .. . ... ... ... ... : ... .. . ... : ... .. . ... : ... .. . ...
ROW CE : ... .. . ... ... ... P7D : ... .. . ... ... ... ... : ... .. . ... : ... .. . ... : ... .. . ...
ROW CF : ... .. 2 ... ... ... P7E : ... .. . ... ... ... ... : ... .. . ... : ... .. . ... : ... .. . ...
ROW D0 : ... .. . ... ... ... P7F : ... .. 2 ... ... ... ... : --- .. . ... : ... .. . ... : ... .. . ...
ROW D1 : ... .. 1 ... ... ... P80 : ... .. . ... ... ... ... : ... .. . ... : ... .. . ... : ... .. . ...
ROW D2 : G-3 00 6 V02 ... ... ... : C-3 00 4 ... ... ... ... : G-3 00 . ... : D-# 00 7 ... : ... .. . ...
ROW D3 : ... .. . ... ... ... ... : ... .. . ... ... ... ... : ... .. . ... : ... .. 3 ... : ... .. . ...
ROW D4 : ... .. 5 ... ... ... ... : ... .. . ... ... ... ... : ... .. . ... : ... .. 1 ... : ... .. . ...
ROW D5 : ... .. . ... ... ... ... : ... .. . ... ... ... ... : ... .. . ... : ... .. 0 ... : ... .. . ...
ROW D6 : G-4 00 4 ... ... ... ... : ... .. . ... ... ... ... : ... .. . ... : ... .. . ... : ... .. . ...
ROW D7 : ... .. . ... ... ... ... : ... .. 2 ... ... ... ... : --- .. . ... : ... .. . ... : ... .. . ...
ROW D8 : ... .. 3 ... ... ... ... : ... .. . ... ... ... ... : ... .. . ... : ... .. . ... : ... .. . ...
ROW D9 : A-3 00 6 ... ... ... ... : B-2 00 4 ... ... ... ... : C-4 00 . ... : D-# 00 7 ... : ... .. . ...
ROW DA : ... .. . ... ... ... ... : ... .. . ... ... ... ... : ... .. . ... : ... .. 3 ... : ... .. . ...
ROW DB : ... .. 5 ... ... ... ... : ... .. . ... ... ... ... : ... .. . ... : ... .. 1 ... : ... .. . ...
ROW DC : ... .. . ... ... ... ... : ... .. . ... ... ... ... : ... .. . ... : ... .. 0 ... : ... .. . ...
ROW DD : A-4 00 4 ... ... ... ... : ... .. . ... ... ... ... : ... .. . ... : ... .. . ... : ... .. . ...
ROW DE : G-3 00 1 ... ... ... ... : ... .. 2 ... ... ... ... : --- .. . ... : ... .. . ... : ... .. . ...
ROW DF : ... .. . ... ... ... ... : ... .. . ... ... ... ... : ... .. . ... : ... .. . ... : ... .. . ...

PATTERN 17
ROW 00 : A#3 00 6 V02 ... ... ... : G-2 00 4 ... ... ... ... : D#3 00 . ... : 2-# 00 7 ... : ... .. . ...
ROW 01 : ... .. . ... ... ... ... : ... .. . ... ... ... ... : ... .. . ... : ... .. 6 ... : ... .. . ...
ROW 02 : ... .. 5 ... ... ... ... : ... .. . ... ... ... ... : ... .. . ... : ... .. 5 ... : ... .. . ...
ROW 03 : ... .. . ... ... ... ... : ... .. . ... ... ... ... : ... .. . ... : ... .. 4 ... : ... .. . ...
ROW 04 : A#4 00 4 ... ... ... ... : ... .. . ... ... ... ... : --- .. . ... : ... .. 3 ... : ... .. . ...
ROW 05 : ... .. . ... ... ... ... : ... .. 2 ... ... ... ... : ... .. . ... : ... .. 2 ... : ... .. . ...
ROW 06 : ... .. 3 ... ... ... ... : ... .. . ... ... ... ... : ... .. . ... : ... .. 1 ... : ... .. . ...
ROW 07 : ... .. . ... ... ... ... : D#2 00 4 V02 ... ... P82 : D#3 00 . ... : F-# 00 6 ... : ... .. . ...
ROW 08 : ... .. 2 ... ... ... ... : ... .. . ... ... ... ... : ... .. . ... : ... .. 5 ... : ... .. . ...
ROW 09 : ... .. . ... ... ... ... : ... .. . ... ... ... ... : ... .. . ... : ... .. 4 ... : ... .. . ...
ROW 0A : ... .. 1 ... ... ... ... : ... .. . ... ... ... ... : ... .. . ... : ... .. 3 ... : ... .. . ...
ROW 0B : A-4 00 . ... ... ... ... : ... .. . ... ... ... ... : ... .. . ... : ... .. 2 ... : ... .. . ...
ROW 0C : ... .. . ... ... ... ... : ... .. 2 ... ... ... ... : --- .. . ... : ... .. 1 ... : ... .. . ...
ROW 0D : ... .. . ... ... ... ... : ... .. . ... ... ... ... : ... .. . ... : ... .. . ... : ... .. . ...
ROW 0E : G-3 00 6 ... ... ... ... : D#2 00 4 ... ... ... ... : A#3 00 . ... : D-# 00 6 ... : ... .. . ...
ROW 0F : ... .. . ... ... ... ... : ... .. . ... ... ... ... : ... .. . ... : ... .. . ... : ... .. . ...
ROW 10 : ... .. 5 ... ... ... ... : ... .. . ... ... ... ... : ... .. . ... : ... .. 5 ... : ... .. . ...
ROW 11 : ... .. . ... ... ... ... : ... .. . ... ... ... ... : ... .. . ... : ... .. . ... : ... .. . ...
ROW 12 : G-4 00 4 ... ... ... ... : ... .. . ... ... ... ... : ... .. . ... : ... .. 4 ... : ... .. . ...
ROW 13 : ... .. . ... ... ... ... : ... .. 2 ... ... ... ... : --- .. . ... : ... .. . ... : ... .. . ...
ROW 14 : ... .. 3 ... ... ... ... : ... .. . ... ... ... ... : ... .. . ... : ... .. 3 ... : ... .. . ...
ROW 15 : ... .. . ... ... ... ... : A#2 00 4 ... ... ... ... : D#4 00 . ... : ... .. . ... : ... .. . ...
ROW 16 : ... .. 2 ... ... ... ... : ... .. . ... ... ... ... : ... .. . ... : ... .. 2 ... : ... .. . ...
ROW 17 : ... .. . ... ... ... ... : ... .. . ... ... ... ... : ... .. . ... : ... .. . ... : ... .. . ...
ROW 18 : ... .. 1 ... ... ... ... : ... .. . ... ... ... ... : ... .. . ... : ... .. 1 ... : ... .. . ...
ROW 19 : A#4 00 . ... ... ... ... : ... .. . ... ... ... ... : ... .. . ... : ... .. . ... : ... .. . ...
ROW 1A : ... .. . ... ... ... ... : ... .. 2 ... ... ... ... : --- .. . ... : ... .. . ... : ... .. . ...
ROW 1B : ... .. . ... ... ... ... : ... .. . ... ... ... ... : ... .. . ... : ... .. . ... : ... .. . ...
ROW 1C : A-3 00 6 ... ... ... ... : D#3 00 4 ... ... ... ... : F-3 00 . ... : 2-# 00 7 ... : ... .. . ...
ROW 1D : ... .. . ... ... ... ... : ... .. . ... ... ... ... : ... .. . ... : ... .. 6 ... : ... .. . ...
ROW 1E : ... .. 5 ... ... ... ... : ... .. . ... ... ... ... : ... .. . ... : ... .. 5 ... : ... .. . ...
ROW 1F : ... .. . ... ... ... ... : ... .. . ... ... ... ... : ... .. . ... : ... .. 4 ... : ... .. . ...
ROW 20 : A-4 00 4 ... ... ... ... : ... .. . ... ... ... ... : ... .. . ... : ... .. 3 ... : ... .. . ...
ROW 21 : ... .. . ... ... ... ... : ... .. 2 ... ... ... ... : --- .. . ... : ... .. 2 ... : ... .. . ...
ROW 22 : ... .. 3 ... ... ... ... : ... .. . ... ... ... ... : ... .. . ... : ... .. 1 ... : ... .. . ...
ROW 23 : ... .. . ... ... ... ... : F-2 00 4 ... ... ... ... : F-3 00 . ... : F-# 00 6 ... : ... .. . ...
ROW 24 : ... .. 2 ... ... ... ... : ... .. . ... ... ... ... : ... .. . ... : ... .. 5 ... : ... .. . ...
ROW 25 : ... .. . ... ... ... ... : ... .. . ... ... ... ... : ... .. . ... : ... .. 4 ... : ... .. . ...
ROW 26 : ... .. 1 ... ... ... ... : ... .. . ... ... ... ... : ... .. . ... : ... .. 3 ... : ... .. . ...
ROW 27 : G-4 00 . ... ... ... ... : ... .. . ... ... ... ... : ... .. . ... : ... .. 2 ... : ... .. . ...
ROW 28 : ... .. . ... ... ... ... : ... .. 2 ... ... ... ... : --- .. . ... : ... .. 1 ... : ... .. . ...
ROW 29 : ... .. . ... ... ... ... : ... .. . ... ... ... ... : ... .. . ... : ... .. . ... : ... .. . ...
ROW 2A : C-4 00 6 ... ... ... ... : F-2 00 4 ... ... ... ... : C-4 00 . ... : D-# 00 6 ... : ... .. . ...
ROW 2B : ... .. . ... ... ... ... : ... .. . ... ... ... ... : ... .. . ... : ... .. . ... : ... .. . ...
ROW 2C : ... .. 5 ... ... ... ... : ... .. . ... ... ... ... : ... .. . ... : ... .. 5 ... : ... .. . ...
ROW 2D : ... .. . ... ... ... ... : ... .. . ... ... ... ... : ... .. . ... : ... .. . ... : ... .. . ...
ROW 2E : C-5 00 4 ... ... ... ... : ... .. . ... ... ... ... : ... .. . ... : ... .. 4 ... : ... .. . ...
ROW 2F : ... .. . ... ... ... ... : ... .. 2 ... ... ... ... : --- .. . ... : ... .. . ... : ... .. . ...
ROW 30 : ... .. 3 ... ... ... ... : ... .. . ... ... ... ... : ... .. . ... : ... .. 3 ... : ... .. . ...
ROW 31 : ... .. . ... ... ... ... : C-3 00 4 ... ... ... ... : F-4 00 . ... : ... .. . ... : ... .. . ...
ROW 32 : ... .. 2 ... ... ... ... : ... .. . ... ... ... ... : ... .. . ... : ... .. 2 ... : ... .. . ...
ROW 33 : ... .. . ... ... ... ... : ... .. . ... ... ... ... : ... .. . ... : ... .. . ... : ... .. . ...
ROW 34 : ... .. 1 ... ... ... ... : ... .. . ... ... ... ... : ... .. . ... : ... .. 1 ... : ... .. . ...
ROW 35 : A-4 00 . ... ... ... ... : ... .. . ... ... ... ... : ... .. . ... : ... .. . ... : ... .. . ...
ROW 36 : ... .. . ... ... ... ... : ... .. 2 ... ... ... ... : --- .. . ... : ... .. . ... : ... .. . ...
ROW 37 : ... .. . ... ... ... ... : ... .. . ... ... ... ... : ... .. . ... : ... .. . ... : ... .. . ...
ROW 38 : F-3 00 6 ... ... ... ... : F-3 00 4 ... ... ... ... : A#3 00 . ... : 2-# 00 7 ... : ... .. . ...
ROW 39 : ... .. . ... ... ... ... : ... .. . ... ... ... ... : ... .. . ... : ... .. 6 ... : ... .. . ...
ROW 3A : ... .. 5 ... ... ... ... : ... .. . ... ... ... ... : ... .. . ... : ... .. 5 ... : ... .. . ...
ROW 3B : ... .. . ... ... ... ... : ... .. . ... ... ... ... : ... .. . ... : ... .. 4 ... : ... .. . ...
ROW 3C : F-4 00 4 ... ... ... ... : ... .. . ... ... ... ... : ... .. . ... : ... .. 3 ... : ... .. . ...
ROW 3D : ... .. . ... ... ... ... : ... .. 2 ... ... ... ... : ... .. . ... : ... .. 2 ... : ... .. . ...
ROW 3E : ... .. . ... ... ... ... : ... .. . ... ... ... ... : ... .. . ... : ... .. 1 ... : ... .. . ...
ROW 3F : ... .. . ... ... ... ... : A#2 00 4 ... ... ... ... : ... .. . ... : ... .. 0 ... : ... .. . ...
ROW 40 : F-3 00 . ... ... ... ... : ... .. . ... ... ... ... : ... .. . ... : ... .. . ... : ... .. . ...
ROW 41 : ... .. . ... ... ... ... : ... .. . ... ... ... ... : ... .. . ... : ... .. . ... : ... .. . ...
ROW 42 : ... .. . ... ... ... ... : ... .. . ... ... ... ... : ... .. . ... : ... .. . ... : ... .. . ...
ROW 43 : ... .. . ... ... ... ... : ... .. . ... ... ... ... : ... .. . ... : ... .. . ... : ... .. . ...
ROW 44 : F-4 00 . ... ... ... ... : ... .. 2 ... ... ... ... : --- .. . ... : ... .. . ... : ... .. . ...
ROW 45 : ... .. . ... ... ... ... : ... .. . ... ... ... ... : ... .. . ... : ... .. . ... : ... .. . ...
ROW 46 : ... .. . ... ... ... ... : C-3 00 5 V00 ... ... P80 : E-4 00 . ... : ... .. . ... : ... .. . ...
ROW 47 : ... .. . ... ... ... ... : ... .. . ... ... ... ... : ... .. . ... : ... .. . ... : ... .. . ...
ROW 48 : F-3 00 3 ... ... ... ... : ... .. . ... ... ... ... : ... .. . ... : ... .. . ... : ... .. . ...
ROW 49 : ... .. . ... ... ... ... : ... .. . ... ... ... ... : ... .. . ... : ... .. . ... : ... .. . ...
ROW 4A : ... .. . ... ... ... ... : D-3 00 . ... ... ... ... : F-4 00 . ... : ... .. . ... : ... .. . ...
ROW 4B : ... .. . ... ... ... ... : ... .. . ... ... ... ... : ... .. . ... : ... .. . ... : ... .. . ...
ROW 4C : F-4 00 . ... ... ... ... : ... .. . ... ... ... ... : ... .. . ... : ... .. . ... : ... .. . ...
ROW 4D : ... .. . ... ... ... ... : C-3 00 . ... ... ... ... : E-4 00 . ... : ... .. . ... : ... .. . ...
ROW 4E : ... .. . ... ... ... ... : ... .. . ... ... ... ... : ... .. . ... : ... .. . ... : ... .. . ...
ROW 4F : ... .. . ... ... ... ... : ... .. . ... ... ... ... : ... .. . ... : ... .. . ... : ... .. . ...
ROW 50 : F-3 00 . ... ... ... ... : ... .. . ... ... ... ... : ... .. . ... : ... .. . ... : ... .. . ...
ROW 51 : ... .. . ... ... ... ... : ... .. . ... ... ... ... : ... .. . ... : ... .. . ... : ... .. . ...
ROW 52 : ... .. . ... ... ... ... : ... .. . ... ... ... ... : ... .. . ... : ... .. . ... : ... .. . ...
ROW 53 : ... .. . ... ... ... ... : ... .. . ... ... ... ... : ... .. . ... : ... .. . ... : ... .. . ...
ROW 54 : F-4 00 2 ... ... ... ... : A#2 00 5 ... ... ... ... : D-4 00 . ... : E-# 00 6 V01 : ... .. . ...
ROW 55 : ... .. . ... ... ... ... : ... .. . ... ... ... ... : ... .. . ... : ... .. 5 ... : ... .. . ...
ROW 56 : ... .. . ... ... ... ... : ... .. . ... ... ... ... : ... .. . ... : ... .. 4 ... : ... .. . ...
ROW 57 : ... .. . ... ... ... ... : ... .. . ... ... ... ... : ... .. . ... : ... .. 3 ... : ... .. . ...
ROW 58 : F-3 00 . ... ... ... ... : ... .. . ... ... ... ... : ... .. . ... : ... .. 2 ... : ... .. . ...
ROW 59 : ... .. . ... ... ... ... : ... .. . ... ... ... ... : ... .. . ... : ... .. 1 ... : ... .. . ...
ROW 5A : ... .. . ... ... ... ... : ... .. . ... ... ... ... : ... .. . ... : ... .. 0 ... : ... .. . ...
ROW 5B : ... .. . ... ... ... ... : ... .. . ... ... ... ... : ... .. . ... : ... .. . ... : ... .. . ...
ROW 5C : F-4 00 1 ... ... ... ... : ... .. . ... ... ... ... : ... .. . ... : ... .. . ... : ... .. . ...
ROW 5D : ... .. . ... ... ... ... : ... .. . ... ... ... ... : ... .. . ... : ... .. . ... : ... .. . ...
ROW 5E : ... .. . ... ... ... ... : ... .. . ... ... ... ... : ... .. . ... : ... .. . ... : ... .. . ...
ROW 5F : ... .. . ... ... ... ... : ... .. . ... ... ... ... : ... .. . ... : ... .. . ... : ... .. . ...
ROW 60 : ... .. . ... ... ... ... : ... .. . ... ... ... ... : ... .. . ... : ... .. . ... : ... .. . ...
ROW 61 : ... .. . ... ... ... ... : ... .. . ... ... ... ... : ... .. . ... : ... .. . ... : ... .. . ...
ROW 62 : F-3 00 6 V00 ... ... P81 : C-3 00 1 ... ... ... ... : --- .. . ... : ... .. . ... : ... .. . ...
ROW 63 : ... .. . ... ... ... ... : ... .. . ... ... ... ... : ... .. . ... : ... .. . ... : ... .. . ...
ROW 64 : ... .. . ... ... ... P80 : ... .. . ... ... ... ... : ... .. . ... : ... .. . ... : ... .. . ...
ROW 65 : ... .. . ... ... ... P7F : ... .. . ... ... ... ... : ... .. . ... : ... .. . ... : ... .. . ...
ROW 66 : ... .. . ... ... ... ... : ... .. . ... ... ... ... : ... .. . ... : ... .. . ... : ... .. . ...
ROW 67 : ... .. 2 ... ... ... P81 : ... .. . ... ... ... ... : ... .. . ... : ... .. . ... : ... .. . ...
ROW 68 : ... .. . ... ... ... ... : ... .. . ... ... ... ... : ... .. . ... : ... .. . ... : ... .. . ...
ROW 69 : G-3 00 6 ... ... ... P81 : F-3 00 2 V00 ... ... P80 : ... .. . ... : ... .. . ... : ... .. . ...
ROW 6A : ... .. . ... ... ... ... : ... .. . ... ... ... ... : ... .. . ... : ... .. . ... : ... .. . ...
ROW 6B : ... .. . ... ... ... P80 : ... .. . ... ... ... P7F : ... .. . ... : ... .. . ... : ... .. . ...
ROW 6C : ... .. . ... ... ... P7F : ... .. . ... ... ... P7E : ... .. . ... : ... .. . ... : ... .. . ...
ROW 6D : ... .. . ... ... ... ... : ... .. . ... ... ... ... : ... .. . ... : ... .. . ... : ... .. . ...
ROW 6E : F-3 00 2 ... ... ... P81 : ... .. 1 ... ... ... P80 : ... .. . ... : ... .. . ... : ... .. . ...
ROW 6F : ... .. . ... ... ... ... : ... .. . ... ... ... ... : ... .. . ... : ... .. . ... : ... .. . ...
ROW 70 : G#3 00 6 ... ... ... P81 : G-3 00 2 ... ... ... P80 : C#2 00 . ... : 2-# 00 7 V00 : ... .. . ...
ROW 71 : ... .. . ... ... ... ... : ... .. . ... ... ... ... : ... .. . ... : ... .. 6 ... : ... .. . ...
ROW 72 : ... .. . ... ... ... P80 : ... .. . ... ... ... P7F : ... .. . ... : ... .. 5 ... : ... .. . ...
ROW 73 : ... .. . ... ... ... P7F : ... .. . ... ... ... P7E : ... .. . ... : ... .. 4 ... : ... .. . ...
ROW 74 : ... .. . ... ... ... ... : ... .. . ... ... ... ... : ... .. . ... : ... .. 3 ... : ... .. . ...
ROW 75 : ... .. . ... ... ... P80 : ... .. 1 ... ... ... P80 : --- .. . ... : ... .. 2 ... : ... .. . ...
ROW 76 : ... .. . ... ... ... ... : ... .. . ... ... ... ... : ... .. . ... : ... .. 1 ... : ... .. . ...
ROW 77 : ... .. . ... ... ... P81 : G#3 00 2 ... ... ... P80 : C#2 00 . ... : F-# 00 6 ... : ... .. . ...
ROW 78 : ... .. . ... ... ... P80 : ... .. . ... ... ... ... : ... .. . ... : ... .. 5 ... : ... .. . ...
ROW 79 : ... .. . ... ... ... ... : ... .. . ... ... ... P7F : ... .. . ... : ... .. 4 ... : ... .. . ...
ROW 7A : ... .. . ... ... ... P7F : ... .. . ... ... ... P7E : ... .. . ... : ... .. 3 ... : ... .. . ...
ROW 7B : ... .. . ... ... ... P81 : ... .. . ... ... ... ... : ... .. . ... : ... .. 2 ... : ... .. . ...
ROW 7C : ... .. . ... ... ... ... : ... .. . ... ... ... P7F : --- .. . ... : ... .. 1 ... : ... .. . ...
ROW 7D : ... .. . ... ... ... P80 : ... .. . ... ... ... ... : ... .. . ... : ... .. . ... : ... .. . ...
ROW 7E : ... .. . ... ... ... P81 : ... .. . ... ... ... P80 : G#2 00 . ... : D-# 00 6 ... : ... .. . ...
ROW 7F : ... .. . ... ... ... ... : ... .. . ... ... ... P7F : ... .. . ... : ... .. . ... : ... .. . ...
ROW 80 : ... .. . ... ... ... P80 : ... .. . ... ... ... ... : ... .. . ... : ... .. 5 ... : ... .. . ...
ROW 81 : ... .. . ... ... ... P7F : ... .. . ... ... ... P7E : ... .. . ... : ... .. . ... : ... .. . ...
ROW 82 : ... .. . ... ... ... ... : ... .. . ... ... ... P80 : ... .. . ... : ... .. 4 ... : ... .. . ...
ROW 83 : ... .. . ... ... ... P80 : ... .. . ... ... ... ... : --- .. . ... : ... .. . ... : ... .. . ...
ROW 84 : ... .. . ... ... ... ... : ... .. . ... ... ... P7F : ... .. . ... : ... .. 3 ... : ... .. . ...
ROW 85 : G#3 00 2 ... ... ... P81 : ... .. . ... ... ... P80 : C#3 00 . ... : ... .. . ... : ... .. . ...
ROW 86 : ... .. . ... ... ... P80 : ... .. . ... ... ... ... : ... .. . ... : ... .. 2 ... : ... .. . ...
ROW 87 : ... .. . ... ... ... ... : ... .. . ... ... ... P7F : ... .. . ... : ... .. . ... : ... .. . ...
ROW 88 : ... .. . ... ... ... P7F : ... .. . ... ... ... P7E : ... .. . ... : ... .. 1 ... : ... .. . ...
ROW 89 : ... .. . ... ... ... P80 : ... .. . ... ... ... ... : ... .. . ... : ... .. . ... : ... .. . ...
ROW 8A : ... .. . ... ... ... ... : ... .. . ... ... ... P7F : --- .. . ... : ... .. . ... : ... .. . ...
ROW 8B : ... .. . ... ... ... ... : ... .. . ... ... ... ... : ... .. . ... : ... .. . ... : ... .. . ...
ROW 8C : G-3 00 6 ... ... ... ... : ... .. 1 ... ... ... P80 : D#2 00 . ... : 2-# 00 7 ... : ... .. . ...
ROW 8D : ... .. . ... ... ... ... : ... .. . ... ... ... P7F : ... .. . ... : ... .. 6 ... : ... .. . ...
ROW 8E : ... .. . ... ... ... P80 : ... .. . ... ... ... ... : ... .. . ... : ... .. 5 ... : ... .. . ...
ROW 8F : ... .. . ... ... ... P7F : ... .. . ... ... ... P7E : ... .. . ... : ... .. 4 ... : ... .. . ...
ROW 90 : ... .. . ... ... ... ... : ... .. . ... ... ... P80 : ... .. . ... : ... .. 3 ... : ... .. . ...
ROW 91 : ... .. . ... ... ... P80 : ... .. . ... ... ... ... : --- .. . ... : ... .. 2 ... : ... .. . ...
ROW 92 : ... .. . ... ... ... ... : ... .. . ... ... ... P7F : ... .. . ... : ... .. 1 ... : ... .. . ...
ROW 93 : ... .. . ... ... ... P81 : G-3 00 2 ... ... ... P80 : D#2 00 . ... : F-# 00 6 ... : ... .. . ...
ROW 94 : G#3 00 2 ... ... ... P80 : ... .. . ... ... ... ... : ... .. . ... : ... .. 5 ... : ... .. . ...
ROW 95 : ... .. . ... ... ... ... : ... .. . ... ... ... P7F : ... .. . ... : ... .. 4 ... : ... .. . ...
ROW 96 : G#3 00 6 ... ... ... P7F : ... .. . ... ... ... P7E : ... .. . ... : ... .. 3 ... : ... .. . ...
ROW 97 : ... .. . ... ... ... P81 : ... .. . ... ... ... ... : ... .. . ... : ... .. 2 ... : ... .. . ...
ROW 98 : ... .. . ... ... ... ... : ... .. . ... ... ... P7F : --- .. . ... : ... .. 1 ... : ... .. . ...
ROW 99 : ... .. . ... ... ... P80 : ... .. . ... ... ... ... : ... .. . ... : ... .. . ... : ... .. . ...
ROW 9A : ... .. . ... ... ... P81 : ... .. . ... ... ... P80 : A#2 00 . ... : D-# 00 6 ... : ... .. . ...
ROW 9B : ... .. . ... ... ... ... : ... .. 1 ... ... ... P7F : ... .. . ... : ... .. . ... : ... .. . ...
ROW 9C : ... .. . ... ... ... P80 : ... .. . ... ... ... ... : ... .. . ... : ... .. 5 ... : ... .. . ...
ROW 9D : G-3 00 2 ... ... ... P7F : G#3 00 2 ... ... ... P7E : ... .. . ... : ... .. . ... : ... .. . ...
ROW 9E : ... .. . ... ... ... P80 : ... .. . ... ... ... P80 : ... .. . ... : ... .. 4 ... : ... .. . ...
ROW 9F : A#3 00 6 ... ... ... ... : ... .. . ... ... ... ... : --- .. . ... : ... .. . ... : ... .. . ...
ROW A0 : ... .. . ... ... ... ... : ... .. . ... ... ... P7F : ... .. . ... : ... .. 3 ... : ... .. . ...
ROW A1 : ... .. . ... ... ... P81 : ... .. . ... ... ... P80 : D#3 00 . ... : ... .. . ... : ... .. . ...
ROW A2 : ... .. . ... ... ... P80 : ... .. . ... ... ... ... : ... .. . ... : ... .. 2 ... : ... .. . ...
ROW A3 : ... .. . ... ... ... ... : ... .. . ... ... ... P7F : ... .. . ... : ... .. . ... : ... .. . ...
ROW A4 : ... .. . ... ... ... P7F : ... .. 1 ... ... ... P7E : ... .. . ... : ... .. 1 ... : ... .. . ...
ROW A5 : ... .. . ... ... ... P81 : ... .. . ... ... ... ... : ... .. . ... : ... .. . ... : ... .. . ...
ROW A6 : G#3 00 2 ... ... ... ... : A#3 00 2 ... ... ... P7F : --- .. . ... : ... .. . ... : ... .. . ...
ROW A7 : ... .. . ... ... ... P80 : ... .. . ... ... ... ... : ... .. . ... : ... .. . ... : ... .. . ...
ROW A8 : D#3 00 6 ... ... ... P81 : ... .. . ... ... ... P80 : G#2 00 . ... : 2-# 00 7 ... : ... .. . ...
ROW A9 : ... .. . ... ... ... ... : ... .. . ... ... ... P7F : ... .. . ... : ... .. 6 ... : ... .. . ...
ROW AA : ... .. . ... ... ... P80 : ... .. . ... ... ... ... : ... .. . ... : ... .. 5 ... : ... .. . ...
ROW AB : ... .. . ... ... ... P7F : ... .. . ... ... ... P7E : ... .. . ... : ... .. 4 ... : ... .. . ...
ROW AC : ... .. . ... ... ... ... : ... .. . ... ... ... P80 : ... .. . ... : ... .. 3 ... : ... .. . ...
ROW AD : ... .. . ... ... ... P80 : ... .. 1 ... ... ... ... : ... .. . ... : ... .. 2 ... : ... .. . ...
ROW AE : ... .. . ... ... ... ... : ... .. . ... ... ... P7F : ... .. . ... : ... .. 1 ... : ... .. . ...
ROW AF : ... .. . ... ... ... P81 : D#3 00 2 ... ... ... P80 : ... .. . ... : ... .. 0 ... : ... .. . ...
ROW B0 : ... .. . ... ... ... P80 : ... .. . ... ... ... ... : ... .. . ... : ... .. . ... : ... .. . ...
ROW B1 : ... .. . ... ... ... ... : ... .. . ... ... ... P7F : ... .. . ... : ... .. . ... : ... .. . ...
ROW B2 : ... .. . ... ... ... P7F : ... .. . ... ... ... P7E : ... .. . ... : ... .. . ... : ... .. . ...
ROW B3 : ... .. . ... ... ... P80 : ... .. . ... ... ... ... : ... .. . ... : ... .. . ... : ... .. . ...
ROW B4 : ... .. . ... ... ... ... : ... .. . ... ... ... P7F : ... .. . ... : ... .. . ... : ... .. . ...
ROW B5 : ... .. . ... ... ... P81 : ... .. . ... ... ... ... : ... .. . ... : ... .. . ... : ... .. . ...
ROW B6 : ... .. . ... ... ... ... : A#2 00 5 V00 ... ... P80 : D-4 00 . ... : ... .. . ... : ... .. . ...
ROW B7 : ... .. . ... ... ... P80 : ... .. . ... ... ... ... : ... .. . ... : ... .. . ... : ... .. . ...
ROW B8 : ... .. . ... ... ... P7F : ... .. . ... ... ... ... : ... .. . ... : ... .. . ... : ... .. . ...
ROW B9 : ... .. . ... ... ... ... : ... .. . ... ... ... ... : ... .. . ... : ... .. . ... : ... .. . ...
ROW BA : ... .. . ... ... ... P80 : C-3 00 . ... ... ... ... : D#4 00 . ... : ... .. . ... : ... .. . ...
ROW BB : ... .. . ... ... ... P81 : ... .. . ... ... ... ... : ... .. . ... : ... .. . ... : ... .. . ...
ROW BC : ... .. . ... ... ... ... : ... .. . ... ... ... ... : ... .. . ... : ... .. . ... : ... .. . ...
ROW BD : ... .. . ... ... ... P80 : A#2 00 . ... ... ... ... : D-4 00 . ... : ... .. . ... : ... .. . ...
ROW BE : ... .. . ... ... ... ... : ... .. . ... ... ... ... : ... .. . ... : ... .. . ... : ... .. . ...
ROW BF : ... .. . ... ... ... P7F : ... .. . ... ... ... ... : ... .. . ... : ... .. . ... : ... .. . ...
ROW C0 : ... .. . ... ... ... P80 : ... .. . ... ... ... ... : ... .. . ... : ... .. . ... : ... .. . ...
ROW C1 : ... .. . ... ... ... ... : ... .. . ... ... ... ... : ... .. . ... : ... .. . ... : ... .. . ...
ROW C2 : ... .. . ... ... ... P81 : ... .. . ... ... ... ... : ... .. . ... : ... .. . ... : ... .. . ...
ROW C3 : ... .. . ... ... ... P80 : ... .. . ... ... ... ... : ... .. . ... : ... .. . ... : ... .. . ...
ROW C4 : ... .. . ... ... ... ... : G#2 00 5 ... ... ... ... : C-4 00 . ... : E-# 00 6 V01 : ... .. . ...
ROW C5 : ... .. . ... ... ... P7F : ... .. . ... ... ... ... : ... .. . ... : ... .. 5 ... : ... .. . ...
ROW C6 : ... .. . ... ... ... ... : ... .. . ... ... ... ... : ... .. . ... : ... .. 4 ... : ... .. . ...
ROW C7 : ... .. . ... ... ... P80 : ... .. . ... ... ... ... : ... .. . ... : ... .. 3 ... : ... .. . ...
ROW C8 : ... .. . ... ... ... P81 : ... .. . ... ... ... ... : ... .. . ... : ... .. 2 ... : ... .. . ...
ROW C9 : ... .. . ... ... ... ... : ... .. . ... ... ... ... : ... .. . ... : ... .. 1 ... : ... .. . ...
ROW CA : ... .. . ... ... ... P80 : ... .. . ... ... ... ... : ... .. . ... : ... .. 0 ... : ... .. . ...
ROW CB : ... .. . ... ... ... P7F : ... .. . ... ... ... ... : ... .. . ... : ... .. . ... : ... .. . ...
ROW CC : ... .. 3 ... ... ... ... : ... .. . ... ... ... ... : ... .. . ... : ... .. . ... : ... .. . ...
ROW CD : ... .. . ... ... ... P80 : ... .. . ... ... ... ... : ... .. . ... : ... .. . ... : ... .. . ...
ROW CE : ... .. 2 ... ... ... ... : ... .. . ... ... ... ... : ... .. . ... : ... .. . ... : ... .. . ...
ROW CF : ... .. . ... ... ... P81 : ... .. . ... ... ... ... : ... .. . ... : ... .. . ... : ... .. . ...
ROW D0 : ... .. 1 ... ... ... P80 : ... .. . ... ... ... ... : ... .. . ... : ... .. . ... : ... .. . ...
ROW D1 : ... .. . ... ... ... ... : ... .. . ... ... ... ... : ... .. . ... : ... .. . ... : ... .. . ...
ROW D2 : D#4 00 6 V01 ... ... ... : ... .. . ... ... ... ... : --- .. . ... : ... .. . ... : ... .. . ...
ROW D3 : ... .. . ... ... ... ... : D#4 00 6 V01 ... ... P82 : ... .. . ... : ... .. . ... : ... .. . ...
ROW D4 : ... .. 5 ... ... ... ... : ... .. . ... ... ... ... : ... .. . ... : ... .. . ... : ... .. . ...
ROW D5 : ... .. . ... ... ... ... : ... .. 5 ... ... ... ... : ... .. . ... : ... .. . ... : ... .. . ...
ROW D6 : ... .. 4 ... ... ... ... : ... .. . ... ... ... ... : ... .. . ... : ... .. . ... : ... .. . ...
ROW D7 : ... .. . ... ... ... ... : ... .. 4 ... ... ... ... : ... .. . ... : ... .. . ... : ... .. . ...
ROW D8 : ... .. 3 ... ... ... ... : ... .. . ... ... ... ... : ... .. . ... : ... .. . ... : ... .. . ...
ROW D9 : F-4 00 6 ... ... ... ... : ... .. 3 ... ... ... ... : ... .. . ... : ... .. . ... : ... .. . ...
ROW DA : ... .. . ... ... ... ... : F-4 00 6 ... ... ... ... : ... .. . ... : ... .. . ... : ... .. . ...
ROW DB : ... .. 5 ... ... ... ... : ... .. . ... ... ... ... : ... .. . ... : ... .. . ... : ... .. . ...
ROW DC : ... .. . ... ... ... ... : ... .. 5 ... ... ... ... : ... .. . ... : ... .. . ... : ... .. . ...
ROW DD : ... .. 4 ... ... ... ... : ... .. . ... ... ... ... : ... .. . ... : ... .. . ... : ... .. . ...
ROW DE : D#4 00 1 ... ... ... ... : ... .. 4 ... ... ... ... : ... .. . ... : ... .. . ... : ... .. . ...
ROW DF : ... .. . ... ... ... ... : D#4 00 1 ... ... ... ... : ... .. . ... : ... .. . ... : ... .. . ...

PATTERN 18
ROW 00 : G-4 00 6 V01 ... ... ... : ... .. . ... ... ... ... : F-2 00 . ... : 2-# 00 8 V00 : ... .. . ...
ROW 01 : ... .. . ... ... ... ... : G-4 00 6 V01 ... ... P82 : ... .. . ... : ... .. 6 ... : ... .. . ...
ROW 02 : ... .. 5 ... ... ... ... : ... .. . ... ... ... ... : ... .. . ... : ... .. 4 ... : ... .. . ...
ROW 03 : ... .. . ... ... ... ... : ... .. 5 ... ... ... ... : ... .. . ... : ... .. 2 ... : ... .. . ...
ROW 04 : ... .. 4 ... ... ... ... : ... .. . ... ... ... ... : ... .. . ... : ... .. 1 ... : ... .. . ...
ROW 05 : ... .. . ... ... ... ... : ... .. 4 ... ... ... ... : --- .. . ... : ... .. 0 ... : ... .. . ...
ROW 06 : ... .. 3 ... ... ... ... : ... .. . ... ... ... ... : ... .. . ... : ... .. . ... : ... .. . ...
ROW 07 : ... .. . ... ... ... ... : ... .. 3 ... ... ... ... : C-3 00 . ... : F-# 00 8 ... : ... .. . ...
ROW 08 : ... .. 2 ... ... ... ... : ... .. . ... ... ... ... : ... .. . ... : ... .. 6 ... : ... .. . ...
ROW 09 : ... .. . ... ... ... ... : ... .. 2 ... ... ... ... : ... .. . ... : ... .. 4 ... : ... .. . ...
ROW 0A : ... .. 1 ... ... ... ... : ... .. . ... ... ... ... : ... .. . ... : ... .. 2 ... : ... .. . ...
ROW 0B : F-4 00 . ... ... ... ... : ... .. 1 ... ... ... ... : ... .. . ... : ... .. 1 ... : ... .. . ...
ROW 0C : ... .. . ... ... ... ... : F-4 00 . ... ... ... ... : --- .. . ... : ... .. 0 ... : ... .. . ...
ROW 0D : ... .. . ... ... ... ... : ... .. . ... ... ... ... : ... .. . ... : ... .. . ... : ... .. . ...
ROW 0E : D#4 00 6 ... ... ... ... : ... .. . ... ... ... ... : F-3 00 . ... : E-# 00 8 ... : ... .. . ...
ROW 0F : ... .. . ... ... ... ... : D#4 00 6 ... ... ... ... : ... .. . ... : ... .. 6 ... : ... .. . ...
ROW 10 : ... .. 5 ... ... ... ... : ... .. . ... ... ... ... : ... .. . ... : ... .. 4 ... : ... .. . ...
ROW 11 : ... .. . ... ... ... ... : ... .. 5 ... ... ... ... : ... .. . ... : ... .. 2 ... : ... .. . ...
ROW 12 : ... .. 4 ... ... ... ... : ... .. . ... ... ... ... : ... .. . ... : ... .. 1 ... : ... .. . ...
ROW 13 : ... .. . ... ... ... ... : ... .. 4 ... ... ... ... : --- .. . ... : ... .. 0 ... : ... .. . ...
ROW 14 : ... .. 3 ... ... ... ... : ... .. . ... ... ... ... : ... .. . ... : ... .. . ... : ... .. . ...
ROW 15 : ... .. . ... ... ... ... : ... .. 3 ... ... ... ... : C-4 00 . ... : F-# 00 8 ... : ... .. . ...
ROW 16 : ... .. 2 ... ... ... ... : ... .. . ... ... ... ... : ... .. . ... : ... .. 6 ... : ... .. . ...
ROW 17 : ... .. . ... ... ... ... : ... .. 2 ... ... ... ... : ... .. . ... : ... .. 4 ... : ... .. . ...
ROW 18 : ... .. 1 ... ... ... ... : ... .. . ... ... ... ... : ... .. . ... : ... .. 2 ... : ... .. . ...
ROW 19 : G-4 00 . ... ... ... ... : ... .. 1 ... ... ... ... : ... .. . ... : ... .. 1 ... : ... .. . ...
ROW 1A : ... .. . ... ... ... ... : G-4 00 . ... ... ... ... : --- .. . ... : ... .. 0 ... : ... .. . ...
ROW 1B : ... .. . ... ... ... ... : ... .. . ... ... ... ... : ... .. . ... : ... .. . ... : ... .. . ...
ROW 1C : F-4 00 6 ... ... ... ... : ... .. . ... ... ... ... : G-2 00 . ... : 2-# 00 8 ... : ... .. . ...
ROW 1D : ... .. . ... ... ... ... : F-4 00 6 ... ... ... ... : ... .. . ... : ... .. 6 ... : ... .. . ...
ROW 1E : ... .. 5 ... ... ... ... : ... .. . ... ... ... ... : ... .. . ... : ... .. 4 ... : ... .. . ...
ROW 1F : ... .. . ... ... ... ... : ... .. 5 ... ... ... ... : ... .. . ... : ... .. 2 ... : ... .. . ...
ROW 20 : ... .. 4 ... ... ... ... : ... .. . ... ... ... ... : ... .. . ... : ... .. 1 ... : ... .. . ...
ROW 21 : ... .. . ... ... ... ... : ... .. 4 ... ... ... ... : --- .. . ... : ... .. 0 ... : ... .. . ...
ROW 22 : ... .. 3 ... ... ... ... : ... .. . ... ... ... ... : ... .. . ... : ... .. . ... : ... .. . ...
ROW 23 : ... .. . ... ... ... ... : ... .. 3 ... ... ... ... : D-3 00 . ... : F-# 00 8 ... : ... .. . ...
ROW 24 : ... .. 2 ... ... ... ... : ... .. . ... ... ... ... : ... .. . ... : ... .. 6 ... : ... .. . ...
ROW 25 : ... .. . ... ... ... ... : ... .. 2 ... ... ... ... : ... .. . ... : ... .. 4 ... : ... .. . ...
ROW 26 : ... .. 1 ... ... ... ... : ... .. . ... ... ... ... : ... .. . ... : ... .. 2 ... : ... .. . ...
ROW 27 : D#4 00 . ... ... ... ... : ... .. 1 ... ... ... ... : ... .. . ... : ... .. 1 ... : ... .. . ...
ROW 28 : ... .. . ... ... ... ... : D#4 00 . ... ... ... ... : --- .. . ... : ... .. 0 ... : ... .. . ...
ROW 29 : ... .. . ... ... ... ... : ... .. . ... ... ... ... : ... .. . ... : ... .. . ... : ... .. . ...
ROW 2A : D-4 00 6 ... ... ... ... : ... .. . ... ... ... ... : G-3 00 . ... : E-# 00 8 ... : ... .. . ...
ROW 2B : ... .. . ... ... ... ... : D-4 00 6 ... ... ... ... : ... .. . ... : ... .. 6 ... : ... .. . ...
ROW 2C : ... .. 5 ... ... ... ... : ... .. . ... ... ... ... : ... .. . ... : ... .. 4 ... : ... .. . ...
ROW 2D : ... .. . ... ... ... ... : ... .. 5 ... ... ... ... : ... .. . ... : ... .. 2 ... : ... .. . ...
ROW 2E : ... .. 4 ... ... ... ... : ... .. . ... ... ... ... : ... .. . ... : ... .. 1 ... : ... .. . ...
ROW 2F : ... .. . ... ... ... ... : ... .. 4 ... ... ... ... : --- .. . ... : ... .. 0 ... : ... .. . ...
ROW 30 : ... .. 3 ... ... ... ... : ... .. . ... ... ... ... : ... .. . ... : ... .. . ... : ... .. . ...
ROW 31 : ... .. . ... ... ... ... : ... .. 3 ... ... ... ... : D-4 00 . ... : F-# 00 8 ... : ... .. . ...
ROW 32 : ... .. 2 ... ... ... ... : ... .. . ... ... ... ... : ... .. . ... : ... .. 6 ... : ... .. . ...
ROW 33 : ... .. . ... ... ... ... : ... .. 2 ... ... ... ... : ... .. . ... : ... .. 4 ... : ... .. . ...
ROW 34 : ... .. 1 ... ... ... ... : ... .. . ... ... ... ... : ... .. . ... : ... .. 2 ... : ... .. . ...
ROW 35 : F-4 00 . ... ... ... ... : ... .. 1 ... ... ... ... : ... .. . ... : ... .. 1 ... : ... .. . ...
ROW 36 : ... .. . ... ... ... ... : F-4 00 . ... ... ... ... : --- .. . ... : ... .. 0 ... : ... .. . ...
ROW 37 : ... .. . ... ... ... ... : ... .. . ... ... ... ... : ... .. . ... : ... .. . ... : ... .. . ...
ROW 38 : D#4 00 6 ... ... ... ... : ... .. . ... ... ... ... : G#2 00 . ... : 2-# 00 8 ... : ... .. . ...
ROW 39 : ... .. . ... ... ... ... : D#4 00 6 ... ... ... ... : ... .. . ... : ... .. 6 ... : ... .. . ...
ROW 3A : ... .. 5 ... ... ... ... : ... .. . ... ... ... ... : ... .. . ... : ... .. 4 ... : ... .. . ...
ROW 3B : ... .. . ... ... ... ... : ... .. 5 ... ... ... ... : ... .. . ... : ... .. 2 ... : ... .. . ...
ROW 3C : ... .. 4 ... ... ... ... : ... .. . ... ... ... ... : ... .. . ... : ... .. 1 ... : ... .. . ...
ROW 3D : ... .. . ... ... ... ... : ... .. 4 ... ... ... ... : --- .. . ... : ... .. 0 ... : ... .. . ...
ROW 3E : ... .. 3 ... ... ... ... : ... .. . ... ... ... ... : ... .. . ... : ... .. . ... : ... .. . ...
ROW 3F : ... .. . ... ... ... ... : ... .. 3 ... ... ... ... : D#3 00 . ... : F-# 00 8 ... : ... .. . ...
ROW 40 : ... .. 2 ... ... ... ... : ... .. . ... ... ... ... : ... .. . ... : ... .. 6 ... : ... .. . ...
ROW 41 : ... .. . ... ... ... ... : ... .. 2 ... ... ... ... : ... .. . ... : ... .. 4 ... : ... .. . ...
ROW 42 : ... .. 1 ... ... ... ... : ... .. . ... ... ... ... : ... .. . ... : ... .. 2 ... : ... .. . ...
ROW 43 : D-4 00 . ... ... ... ... : ... .. 1 ... ... ... ... : ... .. . ... : ... .. 1 ... : ... .. . ...
ROW 44 : ... .. . ... ... ... ... : D-4 00 . ... ... ... ... : --- .. . ... : ... .. 0 ... : ... .. . ...
ROW 45 : ... .. . ... ... ... ... : ... .. . ... ... ... ... : ... .. . ... : ... .. . ... : ... .. . ...
ROW 46 : C-4 00 6 ... ... ... ... : ... .. . ... ... ... ... : C-4 00 . ... : E-# 00 8 ... : ... .. . ...
ROW 47 : ... .. . ... ... ... ... : C-4 00 6 ... ... ... ... : ... .. . ... : ... .. 6 ... : ... .. . ...
ROW 48 : ... .. 5 ... ... ... ... : ... .. . ... ... ... ... : ... .. . ... : ... .. 4 ... : ... .. . ...
ROW 49 : ... .. . ... ... ... ... : ... .. 5 ... ... ... ... : ... .. . ... : ... .. 2 ... : ... .. . ...
ROW 4A : ... .. 4 ... ... ... ... : ... .. . ... ... ... ... : ... .. . ... : ... .. 1 ... : ... .. . ...
ROW 4B : ... .. . ... ... ... ... : ... .. 4 ... ... ... ... : --- .. . ... : ... .. 0 ... : ... .. . ...
ROW 4C : ... .. 3 ... ... ... ... : ... .. . ... ... ... ... : ... .. . ... : ... .. . ... : ... .. . ...
ROW 4D : ... .. . ... ... ... ... : ... .. 3 ... ... ... ... : D#4 00 . ... : F-# 00 8 ... : ... .. . ...
ROW 4E : ... .. 2 ... ... ... ... : ... .. . ... ... ... ... : ... .. . ... : ... .. 6 ... : ... .. . ...
ROW 4F : ... .. . ... ... ... ... : ... .. 2 ... ... ... ... : ... .. . ... : ... .. 4 ... : ... .. . ...
ROW 50 : ... .. 1 ... ... ... ... : ... .. . ... ... ... ... : ... .. . ... : ... .. 2 ... : ... .. . ...
ROW 51 : D#4 00 . ... ... ... ... : ... .. 1 ... ... ... ... : ... .. . ... : ... .. 1 ... : ... .. . ...
ROW 52 : ... .. . ... ... ... ... : D#4 00 . ... ... ... ... : --- .. . ... : ... .. 0 ... : ... .. . ...
ROW 53 : ... .. . ... ... ... ... : ... .. . ... ... ... ... : ... .. . ... : ... .. . ... : ... .. . ...
ROW 54 : D-4 00 6 ... ... ... ... : ... .. . ... ... ... ... : G-2 00 . ... : 2-# 00 8 ... : ... .. . ...
ROW 55 : ... .. . ... ... ... ... : D-4 00 6 ... ... ... ... : ... .. . ... : ... .. 6 ... : ... .. . ...
ROW 56 : ... .. 5 ... ... ... ... : ... .. . ... ... ... ... : ... .. . ... : ... .. 4 ... : ... .. . ...
ROW 57 : ... .. . ... ... ... ... : ... .. 5 ... ... ... ... : ... .. . ... : ... .. 2 ... : ... .. . ...
ROW 58 : ... .. 4 ... ... ... ... : ... .. . ... ... ... ... : ... .. . ... : ... .. 1 ... : ... .. . ...
ROW 59 : ... .. . ... ... ... ... : ... .. 4 ... ... ... ... : --- .. . ... : ... .. 0 ... : ... .. . ...
ROW 5A : ... .. 3 ... ... ... ... : ... .. . ... ... ... ... : ... .. . ... : ... .. . ... : ... .. . ...
ROW 5B : ... .. . ... ... ... ... : ... .. 3 ... ... ... ... : D-3 00 . ... : F-# 00 8 ... : ... .. . ...
ROW 5C : ... .. 2 ... ... ... ... : ... .. . ... ... ... ... : ... .. . ... : ... .. 6 ... : ... .. . ...
ROW 5D : ... .. . ... ... ... ... : ... .. 2 ... ... ... ... : ... .. . ... : ... .. 4 ... : ... .. . ...
ROW 5E : ... .. 1 ... ... ... ... : ... .. . ... ... ... ... : ... .. . ... : ... .. 2 ... : ... .. . ...
ROW 5F : C-4 00 . ... ... ... ... : ... .. 1 ... ... ... ... : ... .. . ... : ... .. 1 ... : ... .. . ...
ROW 60 : ... .. . ... ... ... ... : C-4 00 . ... ... ... ... : --- .. . ... : ... .. 0 ... : ... .. . ...
ROW 61 : ... .. . ... ... ... ... : ... .. . ... ... ... ... : ... .. . ... : ... .. . ... : ... .. . ...
ROW 62 : B-3 00 6 ... ... ... ... : ... .. . ... ... ... ... : A-3 00 . ... : E-# 00 8 ... : ... .. . ...
ROW 63 : ... .. . ... ... ... ... : B-3 00 6 ... ... ... ... : ... .. . ... : ... .. 6 ... : ... .. . ...
ROW 64 : ... .. 5 ... ... ... ... : ... .. . ... ... ... ... : ... .. . ... : ... .. 4 ... : ... .. . ...
ROW 65 : ... .. . ... ... ... ... : ... .. 5 ... ... ... ... : ... .. . ... : ... .. 2 ... : ... .. . ...
ROW 66 : ... .. 4 ... ... ... ... : ... .. . ... ... ... ... : ... .. . ... : ... .. 1 ... : ... .. . ...
ROW 67 : ... .. . ... ... ... ... : ... .. 4 ... ... ... ... : --- .. . ... : ... .. 0 ... : ... .. . ...
ROW 68 : ... .. 3 ... ... ... ... : ... .. . ... ... ... ... : ... .. . ... : ... .. . ... : ... .. . ...
ROW 69 : ... .. . ... ... ... ... : ... .. 3 ... ... ... ... : B-3 00 . ... : F-# 00 8 ... : ... .. . ...
ROW 6A : ... .. 2 ... ... ... ... : ... .. . ... ... ... ... : ... .. . ... : ... .. 6 ... : ... .. . ...
ROW 6B : ... .. . ... ... ... ... : ... .. 2 ... ... ... ... : ... .. . ... : ... .. 4 ... : ... .. . ...
ROW 6C : ... .. 1 ... ... ... ... : ... .. . ... ... ... ... : ... .. . ... : ... .. 2 ... : ... .. . ...
ROW 6D : D-4 00 . ... ... ... ... : ... .. 1 ... ... ... ... : ... .. . ... : ... .. 1 ... : ... .. . ...
ROW 6E : ... .. . ... ... ... ... : D-4 00 . ... ... ... ... : --- .. . ... : ... .. 0 ... : ... .. . ...
ROW 6F : ... .. . ... ... ... ... : ... .. . ... ... ... ... : ... .. . ... : ... .. . ... : ... .. . ...
ROW 70 : C-4 00 7 ... ... ... ... : E-3 00 5 V02 ... ... P80 : C-3 00 . ... : 2-# 00 5 V00 : ... .. . ...
ROW 71 : ... .. . ... ... ... ... : ... .. . ... ... ... ... : ... .. . ... : ... .. 4 ... : ... .. . ...
ROW 72 : ... .. 6 ... ... ... ... : ... .. . ... ... ... ... : ... .. . ... : ... .. 3 ... : ... .. . ...
ROW 73 : ... .. . ... ... ... ... : ... .. . ... ... ... ... : ... .. . ... : ... .. 2 ... : ... .. . ...
ROW 74 : ... .. 5 ... ... ... ... : ... .. . ... ... ... ... : ... .. . ... : ... .. 1 ... : ... .. . ...
ROW 75 : ... .. . ... ... ... ... : ... .. . ... ... ... ... : ... .. . ... : ... .. 0 ... : ... .. . ...
ROW 76 : ... .. . ... ... ... ... : ... .. . ... ... ... ... : ... .. . ... : ... .. . ... : ... .. . ...
ROW 77 : ... .. . ... ... ... ... : ... .. . ... ... ... ... : ... .. . ... : 2-# 00 1 ... : ... .. . ...
ROW 78 : ... .. . ... ... ... ... : ... .. . ... ... ... ... : ... .. . ... : ... .. 0 ... : ... .. . ...
ROW 79 : ... .. . ... ... ... ... : ... .. . ... ... ... ... : ... .. . ... : ... .. . ... : ... .. . ...
ROW 7A : ... .. . ... ... ... ... : ... .. . ... ... ... ... : ... .. . ... : ... .. . ... : ... .. . ...
ROW 7B : ... .. . ... ... ... ... : ... .. . ... ... ... ... : ... .. . ... : ... .. . ... : ... .. . ...
ROW 7C : ... .. . ... ... ... ... : ... .. . ... ... ... ... : ... .. . ... : ... .. . ... : ... .. . ...
ROW 7D : ... .. . ... ... ... ... : ... .. . ... ... ... ... : ... .. . ... : ... .. . ... : ... .. . ...
ROW 7E : ... .. . ... ... ... ... : ... .. . ... ... ... ... : ... .. . ... : E-# 00 8 ... : ... .. . ...
ROW 7F : ... .. . ... ... ... ... : ... .. . ... ... ... ... : ... .. . ... : ... .. 6 ... : ... .. . ...
ROW 80 : ... .. . ... ... ... ... : ... .. . ... ... ... ... : ... .. . ... : ... .. 4 ... : ... .. . ...
ROW 81 : ... .. . ... ... ... ... : ... .. . ... ... ... ... : ... .. . ... : ... .. 2 ... : ... .. . ...
ROW 82 : ... .. . ... ... ... ... : ... .. . ... ... ... ... : ... .. . ... : ... .. 1 ... : ... .. . ...
ROW 83 : ... .. . ... ... ... ... : ... .. . ... ... ... ... : ... .. . ... : ... .. 0 ... : ... .. . ...
ROW 84 : ... .. . ... ... ... ... : ... .. . ... ... ... ... : ... .. . ... : ... .. . ... : ... .. . ...
ROW 85 : ... .. . ... ... ... ... : ... .. . ... ... ... ... : ... .. . ... : ... .. . ... : ... .. . ...
ROW 86 : ... .. . ... ... ... ... : ... .. . ... ... ... ... : ... .. . ... : ... .. . ... : ... .. . ...
ROW 87 : ... .. . ... ... ... ... : ... .. . ... ... ... ... : ... .. . ... : ... .. . ... : ... .. . ...
ROW 88 : ... .. . ... ... ... ... : ... .. . ... ... ... ... : ... .. . ... : ... .. . ... : ... .. . ...
ROW 89 : ... .. . ... ... ... ... : ... .. . ... ... ... ... : ... .. . ... : ... .. . ... : ... .. . ...
ROW 8A : ... .. . ... ... ... ... : ... .. 2 ... ... ... ... : ... .. . ... : ... .. . ... : ... .. . ...
ROW 8B : ... .. . ... ... ... ... : ... .. . ... ... ... ... : --- .. . ... : ... .. . ... : ... .. . ...
ROW 8C : ... .. . ... ... ... P7F : E-2 00 5 ... ... ... ... : C-3 00 . ... : 7-# 00 5 ... : ... .. . ...
ROW 8D : ... .. . ... ... ... P7E : ... .. . ... ... ... ... : ... .. . ... : ... .. 4 ... : ... .. . ...
ROW 8E : ... .. . ... ... ... P7D : ... .. . ... ... ... ... : ... .. . ... : ... .. 3 ... : ... .. . ...
ROW 8F : ... .. . ... ... ... P7E : ... .. . ... ... ... ... : ... .. . ... : ... .. . ... : ... .. . ...
ROW 90 : ... .. . ... ... ... P7F : ... .. . ... ... ... ... : ... .. . ... : ... .. 2 ... : ... .. . ...
ROW 91 : ... .. . ... ... ... P80 : ... .. . ... ... ... ... : ... .. . ... : ... .. . ... : ... .. . ...
ROW 92 : ... .. . ... ... ... P81 : ... .. . ... ... ... ... : ... .. . ... : ... .. 1 ... : ... .. . ...
ROW 93 : ... .. . ... ... ... P82 : ... .. . ... ... ... ... : ... .. . ... : ... .. . ... : ... .. . ...
ROW 94 : ... .. . ... ... ... P83 : ... .. . ... ... ... ... : ... .. . ... : ... .. 0 ... : ... .. . ...
ROW 95 : ... .. . ... ... ... P82 : ... .. . ... ... ... ... : ... .. . ... : ... .. . ... : ... .. . ...
ROW 96 : ... .. . ... ... ... P81 : ... .. . ... ... ... ... : ... .. . ... : ... .. . ... : ... .. . ...
ROW 97 : ... .. . ... ... ... P80 : ... .. . ... ... ... ... : ... .. . ... : ... .. . ... : ... .. . ...
ROW 98 : ... .. . ... ... ... P7F : E-3 00 2 ... ... ... ... : ... .. . ... : ... .. . ... : ... .. . ...
ROW 99 : ... .. . ... ... ... P7E : ... .. . ... ... ... ... : ... .. . ... : ... .. . ... : ... .. . ...
ROW 9A : ... .. . ... ... ... P7D : G-2 00 5 ... ... ... ... : D-3 00 . ... : E-# 00 8 ... : ... .. . ...
ROW 9B : ... .. . ... ... ... P7E : ... .. . ... ... ... ... : ... .. . ... : ... .. 6 ... : ... .. . ...
ROW 9C : ... .. . ... ... ... P7F : ... .. . ... ... ... ... : ... .. . ... : ... .. 4 ... : ... .. . ...
ROW 9D : ... .. . ... ... ... P80 : ... .. . ... ... ... ... : ... .. . ... : ... .. 2 ... : ... .. . ...
ROW 9E : ... .. . ... ... ... P81 : ... .. . ... ... ... ... : ... .. . ... : ... .. 1 ... : ... .. . ...
ROW 9F : ... .. . ... ... ... P82 : ... .. . ... ... ... ... : ... .. . ... : ... .. 0 ... : ... .. . ...
ROW A0 : ... .. . ... ... ... P83 : ... .. . ... ... ... ... : ... .. . ... : ... .. . ... : ... .. . ...
ROW A1 : ... .. . ... ... ... P82 : ... .. . ... ... ... ... : ... .. . ... : ... .. . ... : ... .. . ...
ROW A2 : ... .. . ... ... ... P81 : ... .. . ... ... ... ... : ... .. . ... : ... .. . ... : ... .. . ...
ROW A3 : ... .. . ... ... ... P80 : ... .. . ... ... ... ... : ... .. . ... : ... .. . ... : ... .. . ...
ROW A4 : ... .. . ... ... ... P7F : ... .. . ... ... ... ... : ... .. . ... : ... .. . ... : ... .. . ...
ROW A5 : ... .. . ... ... ... P7E : ... .. . ... ... ... ... : ... .. . ... : ... .. . ... : ... .. . ...
ROW A6 : ... .. . ... ... ... P7D : E-2 00 2 ... ... ... ... : ... .. . ... : ... .. . ... : ... .. . ...
ROW A7 : ... .. . ... ... ... P7E : ... .. . ... ... ... ... : ... .. . ... : ... .. . ... : ... .. . ...
ROW A8 : ... .. . ... ... ... P7F : C-3 00 5 ... ... ... ... : E-3 00 . ... : 2-# 00 5 ... : ... .. . ...
ROW A9 : ... .. . ... ... ... P80 : ... .. . ... ... ... ... : ... .. . ... : ... .. 4 ... : ... .. . ...
ROW AA : ... .. . ... ... ... P81 : ... .. . ... ... ... ... : ... .. . ... : ... .. 3 ... : ... .. . ...
ROW AB : ... .. . ... ... ... P82 : ... .. . ... ... ... ... : ... .. . ... : ... .. 2 ... : ... .. . ...
ROW AC : ... .. . ... ... ... P83 : ... .. . ... ... ... ... : ... .. . ... : ... .. 1 ... : ... .. . ...
ROW AD : ... .. . ... ... ... P82 : ... .. . ... ... ... ... : ... .. . ... : ... .. 0 ... : ... .. . ...
ROW AE : ... .. . ... ... ... P81 : ... .. . ... ... ... ... : ... .. . ... : ... .. . ... : ... .. . ...
ROW AF : ... .. . ... ... ... P80 : ... .. . ... ... ... ... : ... .. . ... : 2-# 00 1 ... : ... .. . ...
ROW B0 : ... .. . ... ... ... P7F : ... .. . ... ... ... ... : ... .. . ... : ... .. 0 ... : ... .. . ...
ROW B1 : ... .. . ... ... ... P7E : ... .. . ... ... ... ... : ... .. . ... : ... .. . ... : ... .. . ...
ROW B2 : ... .. . ... ... ... P7D : ... .. . ... ... ... ... : ... .. . ... : ... .. . ... : ... .. . ...
ROW B3 : ... .. . ... ... ... P7E : ... .. . ... ... ... ... : ... .. . ... : ... .. . ... : ... .. . ...
ROW B4 : ... .. . ... ... ... P7F : G-2 00 2 ... ... ... ... : ... .. . ... : ... .. . ... : ... .. . ...
ROW B5 : ... .. . ... ... ... P80 : ... .. . ... ... ... ... : ... .. . ... : ... .. . ... : ... .. . ...
ROW B6 : ... .. . ... ... ... P81 : E-3 00 5 ... ... ... ... : G-3 00 . ... : E-# 00 8 ... : ... .. . ...
ROW B7 : ... .. . ... ... ... P82 : ... .. . ... ... ... ... : ... .. . ... : ... .. 6 ... : ... .. . ...
ROW B8 : ... .. . ... ... ... P83 : ... .. . ... ... ... ... : ... .. . ... : ... .. 4 ... : ... .. . ...
ROW B9 : ... .. . ... ... ... P82 : ... .. . ... ... ... ... : ... .. . ... : ... .. 2 ... : ... .. . ...
ROW BA : ... .. . ... ... ... P81 : ... .. . ... ... ... ... : ... .. . ... : ... .. 1 ... : ... .. . ...
ROW BB : ... .. . ... ... ... P80 : ... .. . ... ... ... ... : ... .. . ... : ... .. 0 ... : ... .. . ...
ROW BC : ... .. . ... ... ... P7F : ... .. . ... ... ... ... : ... .. . ... : ... .. . ... : ... .. . ...
ROW BD : ... .. . ... ... ... P7E : ... .. . ... ... ... ... : ... .. . ... : ... .. . ... : ... .. . ...
ROW BE : ... .. . ... ... ... P7D : ... .. . ... ... ... ... : ... .. . ... : ... .. . ... : ... .. . ...
ROW BF : ... .. . ... ... ... P7E : ... .. . ... ... ... ... : ... .. . ... : ... .. . ... : ... .. . ...
ROW C0 : ... .. . ... ... ... P7F : ... .. . ... ... ... ... : ... .. . ... : ... .. . ... : ... .. . ...
ROW C1 : ... .. . ... ... ... P80 : ... .. . ... ... ... ... : ... .. . ... : ... .. . ... : ... .. . ...
ROW C2 : ... .. . ... ... ... P81 : C-3 00 2 ... ... ... ... : ... .. . ... : ... .. . ... : ... .. . ...
ROW C3 : ... .. . ... ... ... P82 : ... .. . ... ... ... ... : ... .. . ... : ... .. . ... : ... .. . ...
ROW C4 : ... .. . ... ... ... P83 : G-3 00 5 ... ... ... ... : C-4 00 . ... : 7-# 00 5 ... : ... .. . ...
ROW C5 : ... .. . ... ... ... P82 : ... .. . ... ... ... ... : ... .. . ... : ... .. 4 ... : ... .. . ...
ROW C6 : ... .. . ... ... ... P81 : ... .. . ... ... ... ... : ... .. . ... : ... .. 3 ... : ... .. . ...
ROW C7 : ... .. . ... ... ... P80 : ... .. . ... ... ... ... : ... .. . ... : ... .. . ... : ... .. . ...
ROW C8 : ... .. . ... ... ... P7F : ... .. . ... ... ... ... : ... .. . ... : ... .. 2 ... : ... .. . ...
ROW C9 : ... .. . ... ... ... P7E : ... .. . ... ... ... ... : ... .. . ... : ... .. . ... : ... .. . ...
ROW CA : ... .. . ... ... ... P7D : ... .. . ... ... ... ... : ... .. . ... : ... .. 1 ... : ... .. . ...
ROW CB : ... .. . ... ... ... P7E : ... .. . ... ... ... ... : ... .. . ... : ... .. . ... : ... .. . ...
ROW CC : ... .. . ... ... ... P7F : ... .. . ... ... ... ... : ... .. . ... : ... .. 0 ... : ... .. . ...
ROW CD : ... .. . ... ... ... P80 : ... .. . ... ... ... ... : ... .. . ... : ... .. . ... : ... .. . ...
ROW CE : ... .. . ... ... ... P81 : ... .. . ... ... ... ... : ... .. . ... : ... .. . ... : ... .. . ...
ROW CF : ... .. . ... ... ... P82 : ... .. . ... ... ... ... : ... .. . ... : ... .. . ... : ... .. . ...
ROW D0 : ... .. . ... ... ... P83 : E-3 00 2 ... ... ... ... : ... .. . ... : ... .. . ... : ... .. . ...
ROW D1 : ... .. . ... ... ... P82 : ... .. . ... ... ... ... : ... .. . ... : ... .. . ... : ... .. . ...
ROW D2 : ... .. 4 ... ... ... P81 : C-4 00 5 ... ... ... ... : G-3 00 . ... : E-# 00 8 ... : ... .. . ...
ROW D3 : ... .. . ... ... ... P80 : ... .. . ... ... ... ... : ... .. . ... : ... .. 6 ... : ... .. . ...
ROW D4 : ... .. . ... ... ... P7F : ... .. . ... ... ... ... : ... .. . ... : ... .. 4 ... : ... .. . ...
ROW D5 : ... .. 3 ... ... ... P7E : ... .. . ... ... ... ... : ... .. . ... : ... .. 2 ... : ... .. . ...
ROW D6 : ... .. . ... ... ... P7D : ... .. . ... ... ... ... : ... .. . ... : ... .. 1 ... : ... .. . ...
ROW D7 : ... .. . ... ... ... P7E : ... .. . ... ... ... ... : ... .. . ... : ... .. 0 ... : ... .. . ...
ROW D8 : ... .. 2 ... ... ... P7F : ... .. . ... ... ... ... : ... .. . ... : ... .. . ... : ... .. . ...
ROW D9 : ... .. . ... ... ... P80 : ... .. . ... ... ... ... : ... .. . ... : ... .. . ... : ... .. . ...
ROW DA : ... .. . ... ... ... P81 : ... .. . ... ... ... ... : ... .. . ... : ... .. . ... : ... .. . ...
ROW DB : ... .. 1 ... ... ... P82 : ... .. . ... ... ... ... : ... .. . ... : ... .. . ... : ... .. . ...
ROW DC : ... .. . ... ... ... P83 : ... .. . ... ... ... ... : ... .. . ... : ... .. . ... : ... .. . ...
ROW DD : ... .. . ... ... ... P82 : ... .. . ... ... ... ... : ... .. . ... : ... .. . ... : ... .. . ...
ROW DE : ... .. . ... ... ... P81 : G-3 00 2 ... ... ... ... : ... .. . ... : ... .. . ... : ... .. . ...
ROW DF : ... .. . ... ... ... P80 : ... .. . ... ... ... ... : ... .. . ... : ... .. . ... : ... .. . ...

PATTERN 19
ROW 00 : A-4 00 6 V01 ... ... ... : F-4 00 B V02 ... ... ... : F-4 00 . ... : 2-# 00 3 V00 : ... .. . ...
ROW 01 : ... .. . ... ... ... ... : ... .. 6 ... ... ... ... : ... .. . ... : ... .. . ... : ... .. . ...
ROW 02 : ... .. 5 ... ... ... ... : ... .. 3 ... ... ... ... : ... .. . ... : ... .. 2 ... : ... .. . ...
ROW 03 : ... .. . ... ... ... ... : ... .. 2 ... ... ... ... : ... .. . ... : ... .. . ... : ... .. . ...
ROW 04 : ... .. 4 ... ... ... ... : ... .. 1 ... ... ... ... : ... .. . ... : ... .. 1 ... : ... .. . ...
ROW 05 : ... .. . ... ... ... ... : ... .. . ... ... ... ... : ... .. . ... : ... .. . ... : ... .. . ...
ROW 06 : ... .. . ... ... ... ... : ... .. . ... ... ... ... : ... .. . ... : ... .. 0 ... : ... .. . ...
ROW 07 : ... .. . ... ... ... ... : ... .. . ... ... ... ... : ... .. . ... : ... .. . ... : ... .. . ...
ROW 08 : ... .. . ... ... ... ... : ... .. . ... ... ... ... : ... .. . ... : ... .. . ... : ... .. . ...
ROW 09 : ... .. . ... ... ... ... : ... .. . ... ... ... ... : ... .. . ... : ... .. . ... : ... .. . ...
ROW 0A : ... .. . ... ... ... ... : ... .. 2 ... ... ... ... : ... .. . ... : ... .. . ... : ... .. . ...
ROW 0B : ... .. . ... ... ... ... : ... .. 4 ... ... ... ... : ... .. . ... : ... .. . ... : ... .. . ...
ROW 0C : ... .. . ... ... ... ... : ... .. 4 ... ... ... ... : ... .. . ... : ... .. . ... : ... .. . ...
ROW 0D : ... .. . ... ... ... ... : ... .. 2 ... ... ... ... : ... .. . ... : ... .. . ... : ... .. . ...
ROW 0E : ... .. . ... ... ... ... : ... .. 1 ... ... ... ... : ... .. . ... : F-# 00 3 ... : ... .. . ...
ROW 0F : ... .. . ... ... ... ... : ... .. . ... ... ... ... : ... .. . ... : ... .. . ... : ... .. . ...
ROW 10 : ... .. . ... ... ... ... : ... .. . ... ... ... ... : ... .. . ... : ... .. 2 ... : ... .. . ...
ROW 11 : ... .. . ... ... ... ... : ... .. . ... ... ... ... : ... .. . ... : ... .. . ... : ... .. . ...
ROW 12 : ... .. . ... ... ... ... : ... .. . ... ... ... ... : ... .. . ... : ... .. 1 ... : ... .. . ...
ROW 13 : ... .. . ... ... ... ... : ... .. 1 ... ... ... ... : ... .. . ... : ... .. . ... : ... .. . ...
ROW 14 : ... .. . ... ... ... ... : ... .. 3 ... ... ... ... : ... .. . ... : ... .. 0 ... : ... .. . ...
ROW 15 : ... .. . ... ... ... ... : ... .. 3 ... ... ... ... : ... .. . ... : ... .. . ... : ... .. . ...
ROW 16 : ... .. . ... ... ... ... : ... .. 1 ... ... ... ... : ... .. . ... : ... .. . ... : ... .. . ...
ROW 17 : ... .. . ... ... ... ... : ... .. . ... ... ... ... : ... .. . ... : ... .. . ... : ... .. . ...
ROW 18 : ... .. . ... ... ... ... : ... .. . ... ... ... ... : ... .. . ... : ... .. . ... : ... .. . ...
ROW 19 : ... .. . ... ... ... ... : ... .. . ... ... ... ... : ... .. . ... : ... .. . ... : ... .. . ...
ROW 1A : ... .. . ... ... ... ... : ... .. . ... ... ... ... : ... .. . ... : ... .. . ... : ... .. . ...
ROW 1B : ... .. . ... ... ... ... : ... .. . ... ... ... ... : ... .. . ... : ... .. . ... : ... .. . ...
ROW 1C : ... .. . ... ... ... ... : C-4 00 B ... ... ... ... : ... .. . P81 : 7-# 00 3 ... : ... .. . ...
ROW 1D : ... .. . ... ... ... ... : ... .. 6 ... ... ... ... : ... .. . ... : ... .. . ... : ... .. . ...
ROW 1E : ... .. . ... ... ... ... : ... .. 3 ... ... ... ... : ... .. . ... : ... .. 2 ... : ... .. . ...
ROW 1F : ... .. . ... ... ... ... : ... .. 2 ... ... ... ... : ... .. . P80 : ... .. . ... : ... .. . ...
ROW 20 : ... .. . ... ... ... ... : ... .. 1 ... ... ... ... : ... .. . ... : ... .. 1 ... : ... .. . ...
ROW 21 : ... .. . ... ... ... ... : ... .. . ... ... ... ... : ... .. . ... : ... .. . ... : ... .. . ...
ROW 22 : ... .. . ... ... ... ... : ... .. . ... ... ... ... : ... .. . P7F : ... .. 0 ... : ... .. . ...
ROW 23 : ... .. . ... ... ... ... : ... .. . ... ... ... ... : ... .. . ... : ... .. . ... : ... .. . ...
ROW 24 : ... .. . ... ... ... ... : ... .. . ... ... ... ... : ... .. . ... : ... .. . ... : ... .. . ...
ROW 25 : ... .. . ... ... ... ... : ... .. . ... ... ... ... : ... .. . P80 : ... .. . ... : ... .. . ...
ROW 26 : ... .. . ... ... ... ... : ... .. 2 ... ... ... ... : ... .. . ... : ... .. . ... : ... .. . ...
ROW 27 : ... .. . ... ... ... ... : ... .. 4 ... ... ... ... : ... .. . ... : ... .. . ... : ... .. . ...
ROW 28 : ... .. . ... ... ... ... : ... .. 4 ... ... ... ... : ... .. . P81 : ... .. . ... : ... .. . ...
ROW 29 : ... .. . ... ... ... ... : ... .. 2 ... ... ... ... : ... .. . ... : ... .. . ... : ... .. . ...
ROW 2A : ... .. . ... ... ... ... : ... .. 1 ... ... ... ... : G-4 00 . P80 : 2-# 00 3 ... : ... .. . ...
ROW 2B : ... .. . ... ... ... ... : ... .. . ... ... ... ... : ... .. . ... : ... .. . ... : ... .. . ...
ROW 2C : ... .. . ... ... ... ... : ... .. . ... ... ... ... : ... .. . ... : ... .. 2 ... : ... .. . ...
ROW 2D : ... .. . ... ... ... ... : ... .. . ... ... ... ... : ... .. . ... : ... .. . ... : ... .. . ...
ROW 2E : ... .. . ... ... ... ... : ... .. . ... ... ... ... : ... .. . ... : ... .. 1 ... : ... .. . ...
ROW 2F : ... .. . ... ... ... ... : ... .. 1 ... ... ... ... : ... .. . ... : ... .. . ... : ... .. . ...
ROW 30 : ... .. . ... ... ... ... : ... .. 3 ... ... ... ... : ... .. . ... : ... .. 0 ... : ... .. . ...
ROW 31 : ... .. . ... ... ... ... : ... .. 3 ... ... ... ... : F-4 00 . ... : ... .. . ... : ... .. . ...
ROW 32 : ... .. . ... ... ... ... : ... .. 1 ... ... ... ... : ... .. . ... : ... .. . ... : ... .. . ...
ROW 33 : ... .. . ... ... ... ... : ... .. . ... ... ... ... : ... .. . ... : ... .. . ... : ... .. . ...
ROW 34 : ... .. . ... ... ... ... : ... .. . ... ... ... ... : ... .. . ... : ... .. . ... : ... .. . ...
ROW 35 : ... .. . ... ... ... ... : ... .. . ... ... ... ... : ... .. . ... : ... .. . ... : ... .. . ...
ROW 36 : ... .. . ... ... ... ... : ... .. . ... ... ... ... : ... .. . ... : ... .. . ... : ... .. . ...
ROW 37 : ... .. . ... ... ... ... : ... .. . ... ... ... ... : ... .. . ... : ... .. . ... : ... .. . ...
ROW 38 : ... .. . ... ... ... ... : D-4 00 B ... ... ... ... : E-4 00 . ... : ... .. . ... : ... .. . ...
ROW 39 : ... .. . ... ... ... ... : ... .. 6 ... ... ... ... : ... .. . ... : ... .. . ... : ... .. . ...
ROW 3A : ... .. . ... ... ... ... : ... .. 3 ... ... ... ... : ... .. . ... : ... .. . ... : ... .. . ...
ROW 3B : ... .. . ... ... ... ... : ... .. 2 ... ... ... ... : ... .. . ... : ... .. . ... : ... .. . ...
ROW 3C : ... .. . ... ... ... ... : ... .. 1 ... ... ... ... : ... .. . ... : ... .. . ... : ... .. . ...
ROW 3D : ... .. . ... ... ... ... : ... .. . ... ... ... ... : ... .. . ... : ... .. . ... : ... .. . ...
ROW 3E : ... .. . ... ... ... ... : ... .. . ... ... ... ... : ... .. . ... : ... .. . ... : ... .. . ...
ROW 3F : ... .. . ... ... ... ... : ... .. . ... ... ... ... : ... .. . ... : ... .. . ... : ... .. . ...
ROW 40 : ... .. . ... ... ... ... : ... .. . ... ... ... ... : ... .. . ... : ... .. . ... : ... .. . ...
ROW 41 : ... .. . ... ... ... ... : ... .. . ... ... ... ... : ... .. . ... : ... .. . ... : ... .. . ...
ROW 42 : ... .. . ... ... ... ... : ... .. 2 ... ... ... ... : ... .. . ... : ... .. . ... : ... .. . ...
ROW 43 : ... .. . ... ... ... ... : ... .. 4 ... ... ... ... : ... .. . ... : ... .. . ... : ... .. . ...
ROW 44 : ... .. . ... ... ... ... : ... .. 4 ... ... ... ... : ... .. . ... : ... .. . ... : ... .. . ...
ROW 45 : ... .. . ... ... ... ... : ... .. 2 ... ... ... ... : ... .. . ... : ... .. . ... : ... .. . ...
ROW 46 : ... .. . ... ... ... ... : ... .. 1 ... ... ... ... : ... .. . ... : 2-# 00 3 ... : ... .. . ...
ROW 47 : ... .. . ... ... ... ... : ... .. . ... ... ... ... : ... .. . ... : ... .. . ... : ... .. . ...
ROW 48 : ... .. . ... ... ... ... : ... .. . ... ... ... ... : ... .. . ... : ... .. 2 ... : ... .. . ...
ROW 49 : ... .. . ... ... ... ... : ... .. . ... ... ... ... : ... .. . ... : ... .. . ... : ... .. . ...
ROW 4A : ... .. . ... ... ... ... : ... .. . ... ... ... ... : ... .. . ... : ... .. 1 ... : ... .. . ...
ROW 4B : ... .. . ... ... ... ... : ... .. 1 ... ... ... ... : ... .. . ... : ... .. . ... : ... .. . ...
ROW 4C : ... .. . ... ... ... ... : ... .. 3 ... ... ... ... : ... .. . ... : ... .. 0 ... : ... .. . ...
ROW 4D : ... .. . ... ... ... ... : ... .. 3 ... ... ... ... : ... .. . ... : ... .. . ... : ... .. . ...
ROW 4E : ... .. . ... ... ... ... : ... .. 1 ... ... ... ... : ... .. . ... : ... .. . ... : ... .. . ...
ROW 4F : ... .. . ... ... ... ... : ... .. . ... ... ... ... : ... .. . ... : ... .. . ... : ... .. . ...
ROW 50 : ... .. . ... ... ... ... : ... .. . ... ... ... ... : ... .. . ... : ... .. . ... : ... .. . ...
ROW 51 : ... .. . ... ... ... ... : ... .. . ... ... ... ... : ... .. . ... : ... .. . ... : ... .. . ...
ROW 52 : ... .. . ... ... ... ... : ... .. . ... ... ... ... : ... .. . ... : ... .. . ... : ... .. . ...
ROW 53 : ... .. . ... ... ... ... : ... .. . ... ... ... ... : ... .. . ... : ... .. . ... : ... .. . ...
ROW 54 : ... .. . ... ... ... P81 : B-3 00 B ... ... ... ... : ... .. . P81 : 7-# 00 3 ... : ... .. . ...
ROW 55 : ... .. . ... ... ... ... : ... .. 6 ... ... ... ... : ... .. . ... : ... .. . ... : ... .. . ...
ROW 56 : ... .. . ... ... ... ... : ... .. 3 ... ... ... ... : ... .. . ... : ... .. 2 ... : ... .. . ...
ROW 57 : ... .. . ... ... ... P80 : ... .. 2 ... ... ... ... : ... .. . P80 : ... .. . ... : ... .. . ...
ROW 58 : ... .. . ... ... ... ... : ... .. 1 ... ... ... ... : ... .. . ... : ... .. 1 ... : ... .. . ...
ROW 59 : ... .. . ... ... ... ... : ... .. . ... ... ... ... : ... .. . ... : ... .. . ... : ... .. . ...
ROW 5A : ... .. . ... ... ... P7F : ... .. . ... ... ... ... : ... .. . P7F : ... .. 0 ... : ... .. . ...
ROW 5B : ... .. . ... ... ... ... : ... .. . ... ... ... ... : ... .. . ... : ... .. . ... : ... .. . ...
ROW 5C : ... .. . ... ... ... ... : ... .. . ... ... ... ... : ... .. . ... : ... .. . ... : ... .. . ...
ROW 5D : ... .. . ... ... ... P80 : ... .. . ... ... ... ... : ... .. . P80 : ... .. . ... : ... .. . ...
ROW 5E : ... .. . ... ... ... ... : ... .. 2 ... ... ... ... : ... .. . ... : ... .. . ... : ... .. . ...
ROW 5F : ... .. . ... ... ... ... : ... .. 4 ... ... ... ... : ... .. . ... : ... .. . ... : ... .. . ...
ROW 60 : ... .. . ... ... ... P81 : ... .. 4 ... ... ... ... : ... .. . P81 : ... .. . ... : ... .. . ...
ROW 61 : ... .. . ... ... ... ... : ... .. 2 ... ... ... ... : ... .. . ... : ... .. . ... : ... .. . ...
ROW 62 : ... .. 3 ... ... ... ... : ... .. 1 ... ... ... ... : ... .. . ... : 2-# 00 3 ... : ... .. . ...
ROW 63 : ... .. . ... ... ... P80 : ... .. . ... ... ... ... : ... .. . P80 : ... .. . ... : ... .. . ...
ROW 64 : ... .. . ... ... ... ... : ... .. . ... ... ... ... : ... .. . ... : ... .. 2 ... : ... .. . ...
ROW 65 : ... .. . ... ... ... ... : ... .. . ... ... ... ... : ... .. . ... : ... .. . ... : ... .. . ...
ROW 66 : ... .. . ... ... ... P7F : ... .. . ... ... ... ... : ... .. . P7F : ... .. 1 ... : ... .. . ...
ROW 67 : ... .. . ... ... ... ... : ... .. 1 ... ... ... ... : ... .. . ... : ... .. . ... : ... .. . ...
ROW 68 : ... .. . ... ... ... ... : ... .. 3 ... ... ... ... : ... .. . ... : ... .. 0 ... : ... .. . ...
ROW 69 : ... .. . ... ... ... P80 : ... .. 3 ... ... ... ... : ... .. . P80 : ... .. . ... : ... .. . ...
ROW 6A : ... .. . ... ... ... ... : ... .. 1 ... ... ... ... : ... .. . ... : ... .. . ... : ... .. . ...
ROW 6B : ... .. . ... ... ... ... : ... .. . ... ... ... ... : ... .. . ... : ... .. . ... : ... .. . ...
ROW 6C : ... .. . ... ... ... P81 : ... .. . ... ... ... ... : ... .. . P81 : ... .. . ... : ... .. . ...
ROW 6D : ... .. . ... ... ... ... : ... .. . ... ... ... ... : ... .. . ... : ... .. . ... : ... .. . ...
ROW 6E : ... .. . ... ... ... ... : ... .. . ... ... ... ... : ... .. . ... : ... .. . ... : ... .. . ...
ROW 6F : ... .. . ... ... ... P80 : ... .. . ... ... ... ... : ... .. . P80 : ... .. . ... : ... .. . ...
ROW 70 : A-3 00 . V02 ... ... ... : C-4 00 B ... ... ... ... : D-4 00 . ... : 2-# 00 3 ... : ... .. . ...
ROW 71 : ... .. . ... ... ... ... : ... .. 6 ... ... ... ... : ... .. . ... : ... .. . ... : ... .. . ...
ROW 72 : ... .. . ... ... ... ... : ... .. 3 ... ... ... ... : ... .. . ... : ... .. 2 ... : ... .. . ...
ROW 73 : ... .. . ... ... ... ... : ... .. 2 ... ... ... ... : ... .. . ... : ... .. . ... : ... .. . ...
ROW 74 : ... .. . ... ... ... ... : ... .. 1 ... ... ... ... : ... .. . ... : ... .. 1 ... : ... .. . ...
ROW 75 : ... .. . ... ... ... ... : ... .. . ... ... ... ... : ... .. . ... : ... .. . ... : ... .. . ...
ROW 76 : ... .. . ... ... ... ... : ... .. . ... ... ... ... : ... .. . ... : ... .. 0 ... : ... .. . ...
ROW 77 : ... .. . ... ... ... ... : ... .. . ... ... ... ... : ... .. . ... : ... .. . ... : ... .. . ...
ROW 78 : ... .. . ... ... ... ... : ... .. . ... ... ... ... : ... .. . ... : ... .. . ... : ... .. . ...
ROW 79 : ... .. . ... ... ... ... : ... .. . ... ... ... ... : ... .. . ... : ... .. . ... : ... .. . ...
ROW 7A : ... .. . ... ... ... ... : ... .. 2 ... ... ... ... : ... .. . ... : ... .. . ... : ... .. . ...
ROW 7B : ... .. . ... ... ... ... : ... .. 4 ... ... ... ... : ... .. . ... : ... .. . ... : ... .. . ...
ROW 7C : ... .. . ... ... ... ... : ... .. 4 ... ... ... ... : ... .. . ... : ... .. . ... : ... .. . ...
ROW 7D : ... .. . ... ... ... ... : ... .. 2 ... ... ... ... : ... .. . ... : ... .. . ... : ... .. . ...
ROW 7E : ... .. . ... ... ... ... : ... .. 1 ... ... ... ... : ... .. . ... : 2-# 00 3 ... : ... .. . ...
ROW 7F : ... .. . ... ... ... ... : ... .. . ... ... ... ... : ... .. . ... : ... .. . ... : ... .. . ...
ROW 80 : ... .. . ... ... ... ... : ... .. . ... ... ... ... : ... .. . ... : ... .. 2 ... : ... .. . ...
ROW 81 : ... .. . ... ... ... ... : ... .. . ... ... ... ... : ... .. . ... : ... .. . ... : ... .. . ...
ROW 82 : ... .. . ... ... ... ... : ... .. . ... ... ... ... : ... .. . ... : ... .. 1 ... : ... .. . ...
ROW 83 : ... .. . ... ... ... ... : ... .. 1 ... ... ... ... : ... .. . ... : ... .. . ... : ... .. . ...
ROW 84 : ... .. . ... ... ... ... : ... .. 3 ... ... ... ... : ... .. . ... : ... .. 0 ... : ... .. . ...
ROW 85 : ... .. 3 ... ... ... ... : ... .. 3 ... ... ... ... : ... .. . ... : ... .. . ... : ... .. . ...
ROW 86 : ... .. . ... ... ... ... : ... .. 1 ... ... ... ... : ... .. . ... : ... .. . ... : ... .. . ...
ROW 87 : ... .. 2 ... ... ... ... : ... .. . ... ... ... ... : ... .. . ... : ... .. . ... : ... .. . ...
ROW 88 : ... .. . ... ... ... ... : ... .. . ... ... ... ... : ... .. . ... : ... .. . ... : ... .. . ...
ROW 89 : ... .. 1 ... ... ... ... : ... .. . ... ... ... ... : ... .. . ... : ... .. . ... : ... .. . ...
ROW 8A : ... .. . ... ... ... ... : ... .. . ... ... ... ... : --- .. . ... : ... .. . ... : ... .. . ...
ROW 8B : ... .. . ... ... ... ... : ... .. . ... ... ... ... : ... .. . ... : ... .. . ... : ... .. . ...
ROW 8C : A-4 00 6 V01 ... ... ... : C-4 00 2 ... ... ... ... : D-4 00 . ... : 7-# 00 3 ... : ... .. . ...
ROW 8D : ... .. . ... ... ... ... : ... .. 3 ... ... ... ... : ... .. . ... : ... .. . ... : ... .. . ...
ROW 8E : ... .. 5 ... ... ... ... : ... .. 4 ... ... ... ... : ... .. . ... : ... .. 2 ... : ... .. . ...
ROW 8F : ... .. . ... ... ... ... : ... .. . ... ... ... ... : ... .. . ... : ... .. . ... : ... .. . ...
ROW 90 : ... .. 4 ... ... ... ... : ... .. . ... ... ... ... : ... .. . ... : ... .. 1 ... : ... .. . ...
ROW 91 : ... .. . ... ... ... ... : ... .. . ... ... ... ... : ... .. . ... : ... .. . ... : ... .. . ...
ROW 92 : ... .. . ... ... ... ... : ... .. . ... ... ... ... : ... .. . ... : ... .. 0 ... : ... .. . ...
ROW 93 : ... .. . ... ... ... ... : ... .. . ... ... ... ... : ... .. . ... : ... .. . ... : ... .. . ...
ROW 94 : ... .. . ... ... ... ... : ... .. . ... ... ... ... : ... .. . ... : ... .. . ... : ... .. . ...
ROW 95 : ... .. . ... ... ... ... : ... .. . ... ... ... ... : ... .. . ... : ... .. . ... : ... .. . ...
ROW 96 : ... .. . ... ... ... ... : ... .. 3 ... ... ... ... : ... .. . ... : ... .. . ... : ... .. . ...
ROW 97 : ... .. . ... ... ... ... : ... .. . ... ... ... ... : --- .. . ... : ... .. . ... : ... .. . ...
ROW 98 : ... .. 2 ... ... ... ... : ... .. 1 ... ... ... ... : ... .. . ... : ... .. . ... : ... .. . ...
ROW 99 : ... .. . ... ... ... ... : ... .. . ... ... ... ... : ... .. . ... : ... .. . ... : ... .. . ...
ROW 9A : B-4 00 6 ... ... ... ... : D-4 00 2 ... ... ... ... : E-4 00 . ... : 2-# 00 3 ... : ... .. . ...
ROW 9B : ... .. . ... ... ... ... : ... .. 3 ... ... ... ... : ... .. . ... : ... .. . ... : ... .. . ...
ROW 9C : ... .. 5 ... ... ... ... : ... .. 4 ... ... ... ... : ... .. . ... : ... .. 2 ... : ... .. . ...
ROW 9D : ... .. . ... ... ... ... : ... .. . ... ... ... ... : ... .. . ... : ... .. . ... : ... .. . ...
ROW 9E : ... .. 4 ... ... ... ... : ... .. . ... ... ... ... : ... .. . ... : ... .. 1 ... : ... .. . ...
ROW 9F : ... .. . ... ... ... ... : ... .. . ... ... ... ... : ... .. . ... : ... .. . ... : ... .. . ...
ROW A0 : ... .. . ... ... ... ... : ... .. . ... ... ... ... : ... .. . ... : ... .. 0 ... : ... .. . ...
ROW A1 : ... .. . ... ... ... ... : ... .. . ... ... ... ... : ... .. . ... : ... .. . ... : ... .. . ...
ROW A2 : ... .. . ... ... ... ... : ... .. . ... ... ... ... : ... .. . ... : ... .. . ... : ... .. . ...
ROW A3 : ... .. . ... ... ... ... : ... .. . ... ... ... ... : ... .. . ... : ... .. . ... : ... .. . ...
ROW A4 : ... .. . ... ... ... ... : ... .. 3 ... ... ... ... : ... .. . ... : ... .. . ... : ... .. . ...
ROW A5 : ... .. . ... ... ... ... : ... .. . ... ... ... ... : --- .. . ... : ... .. . ... : ... .. . ...
ROW A6 : A-4 00 2 ... ... ... ... : C-4 00 1 ... ... ... ... : ... .. . ... : ... .. . ... : ... .. . ...
ROW A7 : ... .. . ... ... ... ... : ... .. . ... ... ... ... : ... .. . ... : ... .. . ... : ... .. . ...
ROW A8 : C-5 00 6 ... ... ... ... : F-4 00 2 ... ... ... ... : G-3 00 . ... : ... .. . ... : ... .. . ...
ROW A9 : ... .. . ... ... ... ... : ... .. 3 ... ... ... ... : ... .. . ... : ... .. . ... : ... .. . ...
ROW AA : ... .. 5 ... ... ... ... : ... .. 4 ... ... ... ... : ... .. . ... : ... .. . ... : ... .. . ...
ROW AB : ... .. . ... ... ... ... : ... .. . ... ... ... ... : ... .. . ... : ... .. . ... : ... .. . ...
ROW AC : ... .. 4 ... ... ... ... : ... .. . ... ... ... ... : ... .. . ... : ... .. . ... : ... .. . ...
ROW AD : ... .. . ... ... ... ... : ... .. . ... ... ... ... : ... .. . ... : ... .. . ... : ... .. . ...
ROW AE : ... .. . ... ... ... ... : ... .. . ... ... ... ... : ... .. . ... : ... .. . ... : ... .. . ...
ROW AF : ... .. . ... ... ... ... : ... .. . ... ... ... ... : ... .. . ... : ... .. . ... : ... .. . ...
ROW B0 : ... .. . ... ... ... ... : ... .. . ... ... ... ... : ... .. . ... : ... .. . ... : ... .. . ...
ROW B1 : ... .. . ... ... ... ... : ... .. . ... ... ... ... : ... .. . ... : ... .. . ... : ... .. . ...
ROW B2 : ... .. . ... ... ... ... : ... .. . ... ... ... ... : ... .. . ... : ... .. . ... : ... .. . ...
ROW B3 : ... .. . ... ... ... ... : ... .. . ... ... ... ... : ... .. . ... : ... .. . ... : ... .. . ...
ROW B4 : ... .. . ... ... ... ... : ... .. . ... ... ... ... : ... .. . ... : ... .. . ... : ... .. . ...
ROW B5 : ... .. . ... ... ... ... : ... .. . ... ... ... ... : ... .. . ... : ... .. . ... : ... .. . ...
ROW B6 : ... .. . ... ... ... ... : ... .. . ... ... ... ... : ... .. . P81 : 2-# 00 3 ... : ... .. . ...
ROW B7 : ... .. . ... ... ... ... : ... .. . ... ... ... ... : ... .. . ... : ... .. . ... : ... .. . ...
ROW B8 : ... .. . ... ... ... ... : ... .. . ... ... ... ... : ... .. . ... : ... .. 2 ... : ... .. . ...
ROW B9 : ... .. . ... ... ... ... : ... .. . ... ... ... ... : ... .. . P80 : ... .. . ... : ... .. . ...
ROW BA : ... .. . ... ... ... ... : ... .. . ... ... ... ... : ... .. . ... : ... .. 1 ... : ... .. . ...
ROW BB : ... .. . ... ... ... ... : ... .. . ... ... ... ... : ... .. . ... : ... .. . ... : ... .. . ...
ROW BC : ... .. . ... ... ... ... : ... .. . ... ... ... ... : ... .. . P7F : ... .. 0 ... : ... .. . ...
ROW BD : ... .. . ... ... ... ... : ... .. . ... ... ... ... : ... .. . ... : ... .. . ... : ... .. . ...
ROW BE : ... .. . ... ... ... ... : ... .. . ... ... ... ... : ... .. . ... : ... .. . ... : ... .. . ...
ROW BF : ... .. . ... ... ... ... : ... .. . ... ... ... ... : ... .. . P80 : ... .. . ... : ... .. . ...
ROW C0 : ... .. . ... ... ... ... : ... .. . ... ... ... ... : ... .. . ... : ... .. . ... : ... .. . ...
ROW C1 : ... .. . ... ... ... ... : ... .. . ... ... ... ... : ... .. . ... : ... .. . ... : ... .. . ...
ROW C2 : ... .. . ... ... ... ... : ... .. . ... ... ... ... : ... .. . P81 : ... .. . ... : ... .. . ...
ROW C3 : ... .. . ... ... ... ... : ... .. . ... ... ... ... : ... .. . ... : ... .. . ... : ... .. . ...
ROW C4 : ... .. . ... ... ... ... : ... .. . ... ... ... ... : ... .. . ... : 7-# 00 3 ... : ... .. . ...
ROW C5 : ... .. . ... ... ... ... : ... .. . ... ... ... ... : ... .. . P80 : ... .. . ... : ... .. . ...
ROW C6 : ... .. . ... ... ... ... : ... .. . ... ... ... ... : ... .. . ... : ... .. 2 ... : ... .. . ...
ROW C7 : ... .. . ... ... ... P81 : ... .. . ... ... ... P81 : ... .. . ... : ... .. . ... : ... .. . ...
ROW C8 : ... .. . ... ... ... ... : ... .. . ... ... ... ... : ... .. . P7F : ... .. 1 ... : ... .. . ...
ROW C9 : ... .. . ... ... ... ... : ... .. . ... ... ... ... : ... .. . ... : ... .. . ... : ... .. . ...
ROW CA : ... .. . ... ... ... P80 : ... .. . ... ... ... P80 : ... .. . ... : ... .. 0 ... : ... .. . ...
ROW CB : ... .. 3 ... ... ... ... : ... .. . ... ... ... ... : ... .. . P80 : ... .. . ... : ... .. . ...
ROW CC : ... .. . ... ... ... ... : ... .. . ... ... ... ... : ... .. . ... : ... .. . ... : ... .. . ...
ROW CD : ... .. 2 ... ... ... P7F : ... .. . ... ... ... P7F : ... .. . ... : ... .. . ... : ... .. . ...
ROW CE : ... .. . ... ... ... ... : ... .. . ... ... ... ... : ... .. . P81 : ... .. . ... : ... .. . ...
ROW CF : ... .. 1 ... ... ... ... : ... .. . ... ... ... ... : ... .. . ... : ... .. . ... : ... .. . ...
ROW D0 : ... .. . ... ... ... P80 : ... .. . ... ... ... P80 : --- .. . ... : ... .. . ... : ... .. . ...
ROW D1 : ... .. . ... ... ... ... : ... .. . ... ... ... ... : ... .. . P80 : ... .. . ... : ... .. . ...
ROW D2 : B-4 00 6 ... ... ... ... : ... .. . ... ... ... ... : G-3 00 . ... : 2-# 00 3 ... : ... .. . ...
ROW D3 : ... .. . ... ... ... ... : ... .. . ... ... ... P81 : ... .. . ... : ... .. . ... : ... .. . ...
ROW D4 : ... .. 5 ... ... ... ... : ... .. . ... ... ... ... : ... .. . ... : ... .. 2 ... : ... .. . ...
ROW D5 : ... .. . ... ... ... ... : ... .. . ... ... ... ... : ... .. . ... : ... .. . ... : ... .. . ...
ROW D6 : ... .. 4 ... ... ... ... : ... .. . ... ... ... P80 : ... .. . ... : ... .. 1 ... : ... .. . ...
ROW D7 : ... .. . ... ... ... ... : ... .. . ... ... ... ... : ... .. . ... : ... .. . ... : ... .. . ...
ROW D8 : ... .. . ... ... ... ... : ... .. . ... ... ... ... : ... .. . ... : ... .. 0 ... : ... .. . ...
ROW D9 : ... .. . ... ... ... ... : ... .. . ... ... ... P7F : ... .. . ... : ... .. . ... : ... .. . ...
ROW DA : ... .. . ... ... ... ... : ... .. . ... ... ... ... : ... .. . ... : ... .. . ... : ... .. . ...
ROW DB : ... .. . ... ... ... ... : ... .. . ... ... ... ... : ... .. . ... : ... .. . ... : ... .. . ...
ROW DC : ... .. . ... ... ... ... : ... .. . ... ... ... P80 : ... .. . ... : ... .. . ... : ... .. . ...
ROW DD : ... .. . ... ... ... ... : ... .. . ... ... ... ... : ... .. . ... : ... .. . ... : ... .. . ...
ROW DE : C-5 00 2 ... ... ... ... : ... .. . ... ... ... ... : --- .. . ... : ... .. . ... : ... .. . ...
ROW DF : ... .. . ... ... ... V00 : ... .. . ... ... ... P81 : ... .. . ... : ... .. . ... : ... .. . ...

PATTERN 1A
ROW 00 : B-4 00 6 V01 ... ... ... : D-4 00 B V02 ... ... ... : E-4 00 . ... : E-# 00 4 V00 : ... .. . ...
ROW 01 : ... .. . ... ... ... ... : ... .. 6 ... ... ... ... : ... .. . ... : ... .. . ... : ... .. . ...
ROW 02 : ... .. 5 ... ... ... ... : ... .. 3 ... ... ... ... : ... .. . ... : ... .. 3 ... : ... .. . ...
ROW 03 : ... .. . ... ... ... ... : ... .. 2 ... ... ... ... : ... .. . ... : ... .. . ... : ... .. . ...
ROW 04 : ... .. 4 ... ... ... ... : ... .. 1 ... ... ... ... : ... .. . ... : ... .. 2 ... : ... .. . ...
ROW 05 : ... .. . ... ... ... ... : ... .. . ... ... ... ... : ... .. . ... : ... .. . ... : ... .. . ...
ROW 06 : ... .. . ... ... ... ... : ... .. . ... ... ... ... : ... .. . ... : ... .. 1 ... : ... .. . ...
ROW 07 : ... .. . ... ... ... ... : ... .. . ... ... ... ... : ... .. . ... : ... .. . ... : ... .. . ...
ROW 08 : ... .. . ... ... ... ... : ... .. . ... ... ... ... : ... .. . ... : ... .. 0 ... : ... .. . ...
ROW 09 : ... .. . ... ... ... ... : ... .. . ... ... ... ... : ... .. . ... : ... .. . ... : ... .. . ...
ROW 0A : ... .. . ... ... ... ... : ... .. 2 ... ... ... ... : ... .. . ... : ... .. 1 ... : ... .. . ...
ROW 0B : ... .. . ... ... ... ... : ... .. 4 ... ... ... ... : ... .. . ... : ... .. . ... : ... .. . ...
ROW 0C : ... .. . ... ... ... ... : ... .. 4 ... ... ... ... : ... .. . ... : ... .. 0 ... : ... .. . ...
ROW 0D : ... .. . ... ... ... ... : ... .. 2 ... ... ... ... : ... .. . ... : ... .. . ... : ... .. . ...
ROW 0E : ... .. . ... ... ... ... : ... .. 1 ... ... ... ... : ... .. . ... : ... .. . ... : ... .. . ...
ROW 0F : ... .. . ... ... ... ... : ... .. . ... ... ... ... : ... .. . ... : ... .. . ... : ... .. . ...
ROW 10 : ... .. . ... ... ... ... : ... .. . ... ... ... ... : ... .. . ... : ... .. . ... : ... .. . ...
ROW 11 : ... .. . ... ... ... ... : ... .. . ... ... ... ... : ... .. . ... : ... .. . ... : ... .. . ...
ROW 12 : ... .. . ... ... ... ... : ... .. . ... ... ... ... : ... .. . ... : ... .. . ... : ... .. . ...
ROW 13 : ... .. . ... ... ... ... : ... .. 1 ... ... ... ... : ... .. . ... : ... .. 1 ... : ... .. . ...
ROW 14 : ... .. . ... ... ... ... : ... .. 3 ... ... ... ... : ... .. . ... : ... .. . ... : ... .. . ...
ROW 15 : ... .. . ... ... ... ... : ... .. 3 ... ... ... ... : ... .. . ... : ... .. 0 ... : ... .. . ...
ROW 16 : ... .. . ... ... ... ... : ... .. 1 ... ... ... ... : ... .. . ... : ... .. . ... : ... .. . ...
ROW 17 : ... .. . ... ... ... ... : ... .. . ... ... ... ... : ... .. . ... : ... .. . ... : ... .. . ...
ROW 18 : ... .. . ... ... ... ... : ... .. . ... ... ... ... : ... .. . ... : ... .. . ... : ... .. . ...
ROW 19 : ... .. . ... ... ... ... : ... .. . ... ... ... ... : ... .. . ... : ... .. . ... : ... .. . ...
ROW 1A : ... .. . ... ... ... ... : ... .. . ... ... ... ... : ... .. . ... : ... .. . ... : ... .. . ...
ROW 1B : ... .. . ... ... ... ... : ... .. . ... ... ... ... : ... .. . ... : ... .. . ... : ... .. . ...
ROW 1C : ... .. . ... ... ... ... : B-3 00 B ... ... ... ... : F#4 00 . ... : ... .. . ... : ... .. . ...
ROW 1D : ... .. . ... ... ... ... : ... .. 6 ... ... ... ... : ... .. . ... : ... .. . ... : ... .. . ...
ROW 1E : ... .. . ... ... ... ... : ... .. 3 ... ... ... ... : ... .. . ... : ... .. . ... : ... .. . ...
ROW 1F : ... .. . ... ... ... ... : ... .. 2 ... ... ... ... : ... .. . ... : ... .. . ... : ... .. . ...
ROW 20 : ... .. . ... ... ... ... : ... .. 1 ... ... ... ... : ... .. . ... : ... .. . ... : ... .. . ...
ROW 21 : ... .. . ... ... ... P81 : ... .. . ... ... ... ... : ... .. . ... : ... .. . ... : ... .. . ...
ROW 22 : ... .. . ... ... ... ... : ... .. . ... ... ... ... : ... .. . ... : ... .. . ... : ... .. . ...
ROW 23 : ... .. 3 ... ... ... ... : ... .. . ... ... ... ... : ... .. . ... : ... .. . ... : ... .. . ...
ROW 24 : ... .. . ... ... ... P80 : ... .. . ... ... ... ... : ... .. . ... : ... .. . ... : ... .. . ...
ROW 25 : ... .. 2 ... ... ... ... : ... .. . ... ... ... ... : ... .. . ... : ... .. . ... : ... .. . ...
ROW 26 : ... .. . ... ... ... ... : ... .. 2 ... ... ... ... : ... .. . ... : ... .. . ... : ... .. . ...
ROW 27 : ... .. 1 ... ... ... P7F : ... .. 4 ... ... ... ... : ... .. . ... : ... .. . ... : ... .. . ...
ROW 28 : ... .. . ... ... ... ... : ... .. 4 ... ... ... ... : ... .. . ... : ... .. . ... : ... .. . ...
ROW 29 : ... .. . ... ... ... ... : ... .. 2 ... ... ... ... : ... .. . ... : ... .. . ... : ... .. . ...
ROW 2A : G-4 00 6 ... ... ... P80 : ... .. 1 ... ... ... ... : ... .. . ... : 2-# 00 4 ... : ... .. . ...
ROW 2B : ... .. . ... ... ... ... : ... .. . ... ... ... ... : ... .. . ... : ... .. 2 ... : ... .. . ...
ROW 2C : ... .. 5 ... ... ... ... : ... .. . ... ... ... ... : ... .. . ... : ... .. 1 ... : ... .. . ...
ROW 2D : ... .. . ... ... ... ... : ... .. . ... ... ... ... : ... .. . ... : ... .. 0 ... : ... .. . ...
ROW 2E : ... .. 4 ... ... ... ... : ... .. . ... ... ... ... : ... .. . ... : ... .. . ... : ... .. . ...
ROW 2F : ... .. . ... ... ... ... : ... .. 1 ... ... ... ... : ... .. . ... : ... .. . ... : ... .. . ...
ROW 30 : ... .. . ... ... ... ... : ... .. 3 ... ... ... ... : ... .. . ... : ... .. . ... : ... .. . ...
ROW 31 : ... .. . ... ... ... ... : ... .. 3 ... ... ... ... : ... .. . ... : ... .. . ... : ... .. . ...
ROW 32 : ... .. . ... ... ... ... : ... .. 1 ... ... ... ... : ... .. . ... : ... .. . ... : ... .. . ...
ROW 33 : ... .. . ... ... ... ... : ... .. . ... ... ... ... : ... .. . ... : ... .. . ... : ... .. . ...
ROW 34 : ... .. . ... ... ... ... : ... .. . ... ... ... ... : ... .. . ... : ... .. . ... : ... .. . ...
ROW 35 : ... .. . ... ... ... ... : ... .. . ... ... ... ... : ... .. . ... : ... .. . ... : ... .. . ...
ROW 36 : ... .. . ... ... ... ... : ... .. . ... ... ... ... : ... .. . ... : ... .. . ... : ... .. . ...
ROW 37 : ... .. . ... ... ... ... : ... .. . ... ... ... ... : ... .. . ... : ... .. . ... : ... .. . ...
ROW 38 : ... .. . ... ... ... ... : E-4 00 B ... ... ... ... : G-4 00 . ... : C-# 00 3 V01 : ... .. . ...
ROW 39 : ... .. . ... ... ... ... : ... .. 6 ... ... ... ... : ... .. . ... : ... .. . ... : ... .. . ...
ROW 3A : ... .. . ... ... ... ... : ... .. 3 ... ... ... ... : ... .. . ... : ... .. 2 ... : ... .. . ...
ROW 3B : ... .. . ... ... ... ... : ... .. 2 ... ... ... ... : ... .. . ... : ... .. . ... : ... .. . ...
ROW 3C : ... .. . ... ... ... ... : ... .. 1 ... ... ... ... : ... .. . ... : ... .. 1 ... : ... .. . ...
ROW 3D : ... .. . ... ... ... ... : ... .. . ... ... ... ... : ... .. . ... : ... .. . ... : ... .. . ...
ROW 3E : ... .. . ... ... ... ... : ... .. . ... ... ... ... : ... .. . ... : ... .. 0 ... : ... .. . ...
ROW 3F : ... .. . ... ... ... ... : ... .. . ... ... ... ... : ... .. . ... : ... .. . ... : ... .. . ...
ROW 40 : ... .. . ... ... ... ... : ... .. . ... ... ... ... : ... .. . ... : ... .. . ... : ... .. . ...
ROW 41 : ... .. . ... ... ... ... : ... .. . ... ... ... ... : ... .. . ... : ... .. . ... : ... .. . ...
ROW 42 : ... .. . ... ... ... ... : ... .. 2 ... ... ... ... : ... .. . ... : ... .. 1 ... : ... .. . ...
ROW 43 : ... .. . ... ... ... ... : ... .. 4 ... ... ... ... : ... .. . ... : ... .. . ... : ... .. . ...
ROW 44 : ... .. . ... ... ... ... : ... .. 4 ... ... ... ... : ... .. . ... : ... .. 0 ... : ... .. . ...
ROW 45 : ... .. . ... ... ... ... : ... .. 2 ... ... ... ... : ... .. . ... : ... .. . ... : ... .. . ...
ROW 46 : ... .. . ... ... ... ... : ... .. 1 ... ... ... ... : ... .. . ... : ... .. . ... : ... .. . ...
ROW 47 : ... .. . ... ... ... ... : ... .. . ... ... ... ... : ... .. . ... : ... .. . ... : ... .. . ...
ROW 48 : ... .. . ... ... ... ... : ... .. . ... ... ... ... : ... .. . ... : ... .. . ... : ... .. . ...
ROW 49 : ... .. . ... ... ... ... : ... .. . ... ... ... ... : ... .. . ... : ... .. . ... : ... .. . ...
ROW 4A : ... .. . ... ... ... ... : ... .. . ... ... ... ... : ... .. . ... : ... .. . ... : ... .. . ...
ROW 4B : ... .. . ... ... ... ... : ... .. 1 ... ... ... ... : ... .. . ... : ... .. 1 ... : ... .. . ...
ROW 4C : ... .. . ... ... ... ... : ... .. 3 ... ... ... ... : ... .. . ... : ... .. . ... : ... .. . ...
ROW 4D : ... .. . ... ... ... ... : ... .. 3 ... ... ... ... : ... .. . ... : ... .. 0 ... : ... .. . ...
ROW 4E : ... .. . ... ... ... ... : ... .. 1 ... ... ... ... : ... .. . ... : ... .. . ... : ... .. . ...
ROW 4F : ... .. . ... ... ... ... : ... .. . ... ... ... ... : ... .. . ... : ... .. . ... : ... .. . ...
ROW 50 : ... .. . ... ... ... ... : ... .. . ... ... ... ... : ... .. . ... : ... .. . ... : ... .. . ...
ROW 51 : ... .. . ... ... ... ... : ... .. . ... ... ... ... : ... .. . ... : ... .. . ... : ... .. . ...
ROW 52 : ... .. . ... ... ... ... : ... .. . ... ... ... ... : ... .. . ... : ... .. . ... : ... .. . ...
ROW 53 : ... .. . ... ... ... ... : ... .. . ... ... ... ... : ... .. . ... : ... .. . ... : ... .. . ...
ROW 54 : ... .. . ... ... ... ... : D-4 00 B ... ... ... ... : A-4 00 . ... : ... .. . ... : ... .. . ...
ROW 55 : ... .. . ... ... ... ... : ... .. 6 ... ... ... ... : ... .. . ... : ... .. . ... : ... .. . ...
ROW 56 : ... .. . ... ... ... ... : ... .. 3 ... ... ... ... : B-4 00 . ... : ... .. . ... : ... .. . ...
ROW 57 : ... .. . ... ... ... ... : ... .. 2 ... ... ... ... : ... .. . ... : ... .. . ... : ... .. . ...
ROW 58 : ... .. . ... ... ... ... : ... .. 1 ... ... ... ... : ... .. . ... : ... .. . ... : ... .. . ...
ROW 59 : ... .. . ... ... ... ... : ... .. . ... ... ... ... : ... .. . ... : ... .. . ... : ... .. . ...
ROW 5A : ... .. . ... ... ... ... : ... .. . ... ... ... ... : ... .. . ... : ... .. . ... : ... .. . ...
ROW 5B : ... .. . ... ... ... ... : ... .. . ... ... ... ... : ... .. . ... : ... .. . ... : ... .. . ...
ROW 5C : ... .. . ... ... ... ... : ... .. . ... ... ... ... : ... .. . ... : ... .. . ... : ... .. . ...
ROW 5D : ... .. . ... ... ... ... : ... .. . ... ... ... ... : ... .. . ... : ... .. . ... : ... .. . ...
ROW 5E : ... .. . ... ... ... ... : ... .. 2 ... ... ... ... : ... .. . ... : ... .. . ... : ... .. . ...
ROW 5F : ... .. . ... ... ... ... : ... .. 4 ... ... ... ... : ... .. . ... : ... .. . ... : ... .. . ...
ROW 60 : ... .. . ... ... ... ... : ... .. 4 ... ... ... ... : ... .. . ... : ... .. . ... : ... .. . ...
ROW 61 : ... .. . ... ... ... ... : ... .. 2 ... ... ... ... : ... .. . ... : ... .. . ... : ... .. . ...
ROW 62 : ... .. . ... ... ... ... : ... .. 1 ... ... ... ... : ... .. . ... : 2-# 00 4 V00 : ... .. . ...
ROW 63 : ... .. . ... ... ... ... : ... .. . ... ... ... ... : ... .. . ... : ... .. 2 ... : ... .. . ...
ROW 64 : ... .. . ... ... ... ... : ... .. . ... ... ... ... : ... .. . ... : ... .. 1 ... : ... .. . ...
ROW 65 : ... .. . ... ... ... ... : ... .. . ... ... ... ... : ... .. . ... : ... .. 0 ... : ... .. . ...
ROW 66 : ... .. . ... ... ... ... : ... .. . ... ... ... ... : ... .. . ... : ... .. . ... : ... .. . ...
ROW 67 : ... .. . ... ... ... ... : ... .. 1 ... ... ... ... : ... .. . ... : ... .. . ... : ... .. . ...
ROW 68 : ... .. . ... ... ... ... : ... .. 3 ... ... ... ... : ... .. . ... : ... .. . ... : ... .. . ...
ROW 69 : ... .. . ... ... ... ... : ... .. 3 ... ... ... ... : ... .. . ... : ... .. . ... : ... .. . ...
ROW 6A : ... .. . ... ... ... ... : ... .. 1 ... ... ... ... : ... .. . ... : ... .. . ... : ... .. . ...
ROW 6B : ... .. . ... ... ... ... : ... .. . ... ... ... ... : ... .. . ... : ... .. . ... : ... .. . ...
ROW 6C : ... .. . ... ... ... ... : ... .. . ... ... ... ... : ... .. . ... : ... .. . ... : ... .. . ...
ROW 6D : ... .. . ... ... ... ... : ... .. . ... ... ... ... : ... .. . ... : ... .. . ... : ... .. . ...
ROW 6E : ... .. . ... ... ... ... : ... .. . ... ... ... ... : ... .. . ... : ... .. . ... : ... .. . ...
ROW 6F : ... .. . ... ... ... ... : ... .. . ... ... ... ... : ... .. . ... : ... .. . ... : ... .. . ...
ROW 70 : ... .. . ... ... ... P81 : C#4 00 B ... ... ... ... : A-4 00 . ... : E-# 00 4 V00 : ... .. . ...
ROW 71 : ... .. . ... ... ... ... : ... .. 6 ... ... ... ... : ... .. . ... : ... .. . ... : ... .. . ...
ROW 72 : ... .. . ... ... ... ... : ... .. 3 ... ... ... ... : ... .. . ... : ... .. 3 ... : ... .. . ...
ROW 73 : ... .. . ... ... ... P80 : ... .. 2 ... ... ... ... : ... .. . ... : ... .. . ... : ... .. . ...
ROW 74 : ... .. . ... ... ... ... : ... .. 1 ... ... ... ... : ... .. . ... : ... .. 2 ... : ... .. . ...
ROW 75 : ... .. . ... ... ... ... : ... .. . ... ... ... ... : ... .. . ... : ... .. . ... : ... .. . ...
ROW 76 : ... .. . ... ... ... P7F : ... .. . ... ... ... ... : ... .. . ... : ... .. 1 ... : ... .. . ...
ROW 77 : ... .. . ... ... ... ... : ... .. . ... ... ... ... : ... .. . ... : ... .. . ... : ... .. . ...
ROW 78 : ... .. . ... ... ... ... : ... .. . ... ... ... ... : ... .. . ... : ... .. 0 ... : ... .. . ...
ROW 79 : ... .. . ... ... ... P80 : ... .. . ... ... ... ... : ... .. . ... : ... .. . ... : ... .. . ...
ROW 7A : ... .. . ... ... ... ... : ... .. 2 ... ... ... ... : ... .. . ... : ... .. 1 ... : ... .. . ...
ROW 7B : ... .. . ... ... ... ... : ... .. 4 ... ... ... ... : ... .. . ... : ... .. . ... : ... .. . ...
ROW 7C : ... .. . ... ... ... P81 : ... .. 4 ... ... ... ... : ... .. . ... : ... .. 0 ... : ... .. . ...
ROW 7D : ... .. . ... ... ... ... : ... .. 2 ... ... ... ... : ... .. . ... : ... .. . ... : ... .. . ...
ROW 7E : ... .. 3 ... ... ... ... : ... .. 1 ... ... ... ... : ... .. . ... : ... .. . ... : ... .. . ...
ROW 7F : ... .. . ... ... ... P80 : ... .. . ... ... ... ... : ... .. . ... : ... .. . ... : ... .. . ...
ROW 80 : ... .. . ... ... ... ... : ... .. . ... ... ... ... : ... .. . ... : ... .. . ... : ... .. . ...
ROW 81 : ... .. . ... ... ... ... : ... .. . ... ... ... ... : ... .. . ... : ... .. . ... : ... .. . ...
ROW 82 : ... .. 2 ... ... ... P7F : ... .. . ... ... ... ... : ... .. . ... : ... .. . ... : ... .. . ...
ROW 83 : ... .. . ... ... ... ... : ... .. 1 ... ... ... ... : ... .. . ... : ... .. 1 ... : ... .. . ...
ROW 84 : ... .. . ... ... ... ... : ... .. 3 ... ... ... ... : ... .. . ... : ... .. . ... : ... .. . ...
ROW 85 : ... .. . ... ... ... P80 : ... .. 3 ... ... ... ... : ... .. . ... : ... .. 0 ... : ... .. . ...
ROW 86 : ... .. 1 ... ... ... ... : ... .. 1 ... ... ... ... : ... .. . ... : ... .. . ... : ... .. . ...
ROW 87 : ... .. . ... ... ... ... : ... .. . ... ... ... ... : ... .. . ... : ... .. . ... : ... .. . ...
ROW 88 : ... .. . ... ... ... P81 : ... .. . ... ... ... ... : ... .. . ... : ... .. . ... : ... .. . ...
ROW 89 : ... .. . ... ... ... ... : ... .. . ... ... ... ... : ... .. . ... : ... .. . ... : ... .. . ...
ROW 8A : ... .. . ... ... ... ... : ... .. . ... ... ... ... : ... .. . ... : ... .. . ... : ... .. . ...
ROW 8B : ... .. . ... ... ... P80 : ... .. . ... ... ... ... : ... .. . ... : ... .. . ... : ... .. . ...
ROW 8C : G-4 00 6 ... ... ... ... : ... .. 1 ... ... ... ... : ... .. . P81 : ... .. . ... : ... .. . ...
ROW 8D : ... .. . ... ... ... ... : ... .. 2 ... ... ... ... : ... .. . ... : ... .. . ... : ... .. . ...
ROW 8E : ... .. 5 ... ... ... ... : ... .. 2 ... ... ... ... : ... .. . ... : ... .. . ... : ... .. . ...
ROW 8F : ... .. . ... ... ... ... : ... .. 1 ... ... ... ... : ... .. . P80 : ... .. . ... : ... .. . ...
ROW 90 : ... .. 4 ... ... ... ... : ... .. . ... ... ... ... : ... .. . ... : ... .. . ... : ... .. . ...
ROW 91 : ... .. . ... ... ... ... : ... .. . ... ... ... ... : ... .. . ... : ... .. . ... : ... .. . ...
ROW 92 : ... .. . ... ... ... ... : ... .. . ... ... ... ... : ... .. . P7F : ... .. . ... : ... .. . ...
ROW 93 : ... .. . ... ... ... ... : ... .. . ... ... ... ... : ... .. . ... : ... .. . ... : ... .. . ...
ROW 94 : ... .. . ... ... ... ... : ... .. . ... ... ... ... : ... .. . ... : ... .. . ... : ... .. . ...
ROW 95 : ... .. . ... ... ... ... : ... .. . ... ... ... ... : ... .. . P80 : ... .. . ... : ... .. . ...
ROW 96 : ... .. . ... ... ... ... : ... .. 1 ... ... ... ... : ... .. . ... : ... .. . ... : ... .. . ...
ROW 97 : ... .. . ... ... ... ... : ... .. 2 ... ... ... ... : ... .. . ... : ... .. . ... : ... .. . ...
ROW 98 : ... .. 2 ... ... ... ... : ... .. 2 ... ... ... ... : ... .. . P81 : ... .. . ... : ... .. . ...
ROW 99 : ... .. . ... ... ... ... : ... .. 1 ... ... ... ... : ... .. . ... : ... .. . ... : ... .. . ...
ROW 9A : A-4 00 6 ... ... ... ... : ... .. . ... ... ... ... : ... .. . ... : 2-# 00 4 ... : ... .. . ...
ROW 9B : ... .. . ... ... ... ... : ... .. . ... ... ... ... : ... .. . P80 : ... .. 2 ... : ... .. . ...
ROW 9C : ... .. 5 ... ... ... ... : ... .. . ... ... ... ... : ... .. . ... : ... .. 1 ... : ... .. . ...
ROW 9D : ... .. . ... ... ... ... : ... .. . ... ... ... ... : ... .. . ... : ... .. 0 ... : ... .. . ...
ROW 9E : ... .. 4 ... ... ... ... : ... .. . ... ... ... ... : ... .. . P7F : ... .. . ... : ... .. . ...
ROW 9F : ... .. . ... ... ... ... : ... .. 1 ... ... ... ... : ... .. . ... : ... .. . ... : ... .. . ...
ROW A0 : ... .. . ... ... ... ... : ... .. 2 ... ... ... ... : ... .. . ... : ... .. . ... : ... .. . ...
ROW A1 : ... .. . ... ... ... ... : ... .. 2 ... ... ... ... : ... .. . P80 : ... .. . ... : ... .. . ...
ROW A2 : ... .. . ... ... ... ... : ... .. 1 ... ... ... ... : ... .. . ... : ... .. . ... : ... .. . ...
ROW A3 : ... .. . ... ... ... ... : ... .. . ... ... ... ... : ... .. . ... : ... .. . ... : ... .. . ...
ROW A4 : ... .. . ... ... ... ... : ... .. . ... ... ... ... : ... .. . P81 : ... .. . ... : ... .. . ...
ROW A5 : ... .. . ... ... ... ... : ... .. . ... ... ... ... : ... .. . ... : ... .. . ... : ... .. . ...
ROW A6 : G-4 00 2 ... ... ... ... : ... .. . ... ... ... ... : ... .. . ... : ... .. . ... : ... .. . ...
ROW A7 : ... .. . ... ... ... ... : ... .. . ... ... ... ... : ... .. . P80 : ... .. . ... : ... .. . ...
ROW A8 : B-4 00 6 ... ... ... ... : C#4 00 B ... ... ... ... : G-4 00 . ... : C-# 00 3 V01 : ... .. . ...
ROW A9 : ... .. . ... ... ... ... : ... .. 6 ... ... ... ... : ... .. . ... : ... .. . ... : ... .. . ...
ROW AA : ... .. 5 ... ... ... ... : ... .. 3 ... ... ... ... : ... .. . ... : ... .. 2 ... : ... .. . ...
ROW AB : ... .. . ... ... ... ... : ... .. 2 ... ... ... ... : ... .. . ... : ... .. . ... : ... .. . ...
ROW AC : ... .. 4 ... ... ... ... : ... .. 1 ... ... ... ... : ... .. . ... : ... .. 1 ... : ... .. . ...
ROW AD : ... .. . ... ... ... ... : ... .. . ... ... ... ... : ... .. . ... : ... .. . ... : ... .. . ...
ROW AE : ... .. . ... ... ... ... : ... .. . ... ... ... ... : ... .. . ... : ... .. 0 ... : ... .. . ...
ROW AF : ... .. . ... ... ... ... : ... .. . ... ... ... ... : ... .. . ... : ... .. . ... : ... .. . ...
ROW B0 : ... .. . ... ... ... ... : ... .. . ... ... ... ... : ... .. . ... : ... .. . ... : ... .. . ...
ROW B1 : ... .. . ... ... ... ... : ... .. . ... ... ... ... : ... .. . ... : ... .. . ... : ... .. . ...
ROW B2 : ... .. . ... ... ... ... : ... .. 2 ... ... ... ... : ... .. . ... : ... .. 1 ... : ... .. . ...
ROW B3 : ... .. . ... ... ... ... : ... .. 4 ... ... ... ... : ... .. . ... : ... .. . ... : ... .. . ...
ROW B4 : ... .. . ... ... ... ... : ... .. 4 ... ... ... ... : ... .. . ... : ... .. 0 ... : ... .. . ...
ROW B5 : ... .. . ... ... ... ... : ... .. 2 ... ... ... ... : ... .. . ... : ... .. . ... : ... .. . ...
ROW B6 : ... .. . ... ... ... ... : ... .. 1 ... ... ... ... : ... .. . ... : ... .. . ... : ... .. . ...
ROW B7 : ... .. . ... ... ... ... : ... .. . ... ... ... ... : ... .. . ... : ... .. . ... : ... .. . ...
ROW B8 : ... .. . ... ... ... ... : ... .. . ... ... ... ... : ... .. . ... : ... .. . ... : ... .. . ...
ROW B9 : ... .. . ... ... ... ... : ... .. . ... ... ... ... : ... .. . ... : ... .. . ... : ... .. . ...
ROW BA : ... .. . ... ... ... ... : ... .. . ... ... ... ... : ... .. . ... : ... .. . ... : ... .. . ...
ROW BB : ... .. . ... ... ... ... : ... .. 1 ... ... ... ... : ... .. . ... : ... .. 1 ... : ... .. . ...
ROW BC : ... .. . ... ... ... ... : ... .. 3 ... ... ... ... : ... .. . ... : ... .. . ... : ... .. . ...
ROW BD : ... .. . ... ... ... ... : ... .. 3 ... ... ... ... : ... .. . ... : ... .. 0 ... : ... .. . ...
ROW BE : ... .. . ... ... ... ... : ... .. 1 ... ... ... ... : ... .. . ... : ... .. . ... : ... .. . ...
ROW BF : ... .. . ... ... ... ... : ... .. . ... ... ... ... : ... .. . ... : ... .. . ... : ... .. . ...
ROW C0 : ... .. . ... ... ... ... : ... .. . ... ... ... ... : ... .. . ... : ... .. . ... : ... .. . ...
ROW C1 : ... .. . ... ... ... ... : ... .. . ... ... ... ... : ... .. . ... : ... .. . ... : ... .. . ...
ROW C2 : ... .. . ... ... ... ... : ... .. . ... ... ... ... : ... .. . ... : ... .. . ... : ... .. . ...
ROW C3 : ... .. . ... ... ... ... : ... .. . ... ... ... ... : ... .. . ... : ... .. . ... : ... .. . ...
ROW C4 : ... .. . ... ... ... ... : ... .. 1 ... ... ... ... : A-3 00 . ... : E-# 00 4 V00 : ... .. . ...
ROW C5 : ... .. . ... ... ... ... : ... .. 2 ... ... ... ... : ... .. . ... : ... .. . ... : ... .. . ...
ROW C6 : ... .. . ... ... ... ... : ... .. 2 ... ... ... ... : ... .. . ... : ... .. 3 ... : ... .. . ...
ROW C7 : ... .. . ... ... ... ... : ... .. 1 ... ... ... ... : ... .. . ... : ... .. . ... : ... .. . ...
ROW C8 : ... .. . ... ... ... ... : ... .. . ... ... ... ... : ... .. . ... : ... .. 2 ... : ... .. . ...
ROW C9 : ... .. . ... ... ... P81 : ... .. . ... ... ... ... : ... .. . ... : ... .. . ... : ... .. . ...
ROW CA : ... .. 4 ... ... ... ... : ... .. . ... ... ... ... : ... .. . ... : ... .. 1 ... : ... .. . ...
ROW CB : ... .. . ... ... ... ... : ... .. . ... ... ... ... : ... .. . ... : ... .. . ... : ... .. . ...
ROW CC : ... .. 3 ... ... ... P80 : ... .. . ... ... ... ... : ... .. . ... : ... .. 0 ... : ... .. . ...
ROW CD : ... .. . ... ... ... ... : ... .. . ... ... ... ... : ... .. . ... : ... .. . ... : ... .. . ...
ROW CE : ... .. 2 ... ... ... ... : ... .. 1 ... ... ... ... : ... .. . ... : ... .. 1 ... : ... .. . ...
ROW CF : ... .. . ... ... ... P7F : ... .. 2 ... ... ... ... : ... .. . ... : ... .. . ... : ... .. . ...
ROW D0 : ... .. 1 ... ... ... ... : ... .. 2 ... ... ... ... : ... .. . ... : ... .. 0 ... : ... .. . ...
ROW D1 : ... .. . ... ... ... ... : ... .. 1 ... ... ... ... : ... .. . ... : ... .. . ... : ... .. . ...
ROW D2 : A-4 00 6 ... ... ... P80 : ... .. . ... ... ... ... : ... .. . ... : 2-# 00 4 ... : ... .. . ...
ROW D3 : ... .. . ... ... ... ... : ... .. . ... ... ... ... : ... .. . ... : ... .. 2 ... : ... .. . ...
ROW D4 : ... .. 5 ... ... ... ... : ... .. . ... ... ... ... : ... .. . ... : ... .. 1 ... : ... .. . ...
ROW D5 : ... .. . ... ... ... ... : ... .. . ... ... ... ... : ... .. . ... : ... .. 0 ... : ... .. . ...
ROW D6 : ... .. 4 ... ... ... ... : ... .. . ... ... ... ... : ... .. . ... : ... .. . ... : ... .. . ...
ROW D7 : ... .. . ... ... ... ... : ... .. 1 ... ... ... ... : ... .. . ... : ... .. . ... : ... .. . ...
ROW D8 : ... .. . ... ... ... ... : ... .. 2 ... ... ... ... : ... .. . ... : ... .. . ... : ... .. . ...
ROW D9 : ... .. . ... ... ... ... : ... .. 2 ... ... ... ... : ... .. . ... : ... .. . ... : ... .. . ...
ROW DA : ... .. . ... ... ... ... : ... .. 1 ... ... ... ... : ... .. . ... : ... .. . ... : ... .. . ...
ROW DB : ... .. . ... ... ... ... : ... .. . ... ... ... ... : ... .. . ... : ... .. . ... : ... .. . ...
ROW DC : ... .. . ... ... ... ... : ... .. . ... ... ... ... : ... .. . ... : ... .. . ... : ... .. . ...
ROW DD : ... .. . ... ... ... ... : ... .. . ... ... ... ... : ... .. . ... : ... .. . ... : ... .. . ...
ROW DE : ... .. . ... ... ... ... : ... .. . ... ... ... ... : ... .. . ... : ... .. . ... : ... .. . ...
ROW DF : ... .. . ... ... ... ... : ... .. . ... ... ... ... : ... .. . ... : ... .. . ... : ... .. . ...

PATTERN 1B
ROW 00 : D-4 00 6 V01 ... ... ... : --- .. . ... ... ... ... : D-4 00 . ... : E-# 00 4 V00 : ... .. . ...
ROW 01 : ... .. . ... ... ... ... : ... .. . ... ... ... ... : ... .. . ... : ... .. . ... : ... .. . ...
ROW 02 : D#4 00 5 ... ... ... ... : ... .. . ... ... ... ... : ... .. . ... : ... .. 3 ... : ... .. . ...
ROW 03 : ... .. . ... ... ... ... : ... .. . ... ... ... ... : ... .. . ... : ... .. . ... : ... .. . ...
ROW 04 : E-4 00 4 ... ... ... ... : ... .. . ... ... ... ... : ... .. . ... : ... .. 2 ... : ... .. . ...
ROW 05 : ... .. . ... ... ... ... : ... .. . ... ... ... ... : ... .. . ... : ... .. . ... : ... .. . ...
ROW 06 : ... .. . ... ... ... ... : ... .. . ... ... ... ... : ... .. . ... : ... .. 1 ... : ... .. . ...
ROW 07 : ... .. . ... ... ... ... : ... .. . ... ... ... ... : ... .. . ... : ... .. . ... : ... .. . ...
ROW 08 : ... .. . ... ... ... ... : ... .. . ... ... ... ... : ... .. . ... : ... .. 0 ... : ... .. . ...
ROW 09 : ... .. . ... ... ... ... : ... .. . ... ... ... ... : ... .. . ... : ... .. . ... : ... .. . ...
ROW 0A : ... .. . ... ... ... ... : ... .. . ... ... ... ... : ... .. . ... : ... .. 1 ... : ... .. . ...
ROW 0B : ... .. . ... ... ... ... : ... .. . ... ... ... ... : ... .. . ... : ... .. . ... : ... .. . ...
ROW 0C : ... .. . ... ... ... ... : ... .. . ... ... ... ... : ... .. . ... : ... .. 0 ... : ... .. . ...
ROW 0D : ... .. . ... ... ... ... : ... .. . ... ... ... ... : ... .. . ... : ... .. . ... : ... .. . ...
ROW 0E : ... .. . ... ... ... ... : D-4 00 2 V01 ... ... P81 : ... .. . ... : ... .. . ... : ... .. . ...
ROW 0F : ... .. . ... ... ... ... : ... .. . ... ... ... ... : ... .. . ... : ... .. . ... : ... .. . ...
ROW 10 : ... .. . ... ... ... ... : D#4 00 . ... ... ... ... : ... .. . ... : ... .. . ... : ... .. . ...
ROW 11 : ... .. . ... ... ... ... : ... .. . ... ... ... ... : ... .. . ... : ... .. . ... : ... .. . ...
ROW 12 : ... .. . ... ... ... ... : E-4 00 . ... ... ... ... : ... .. . ... : ... .. . ... : ... .. . ...
ROW 13 : ... .. . ... ... ... ... : ... .. . ... ... ... ... : ... .. . ... : ... .. 1 ... : ... .. . ...
ROW 14 : ... .. . ... ... ... ... : ... .. . ... ... ... ... : ... .. . ... : ... .. . ... : ... .. . ...
ROW 15 : ... .. . ... ... ... ... : ... .. . ... ... ... ... : ... .. . ... : ... .. 0 ... : ... .. . ...
ROW 16 : ... .. . ... ... ... ... : ... .. . ... ... ... ... : ... .. . ... : ... .. . ... : ... .. . ...
ROW 17 : ... .. . ... ... ... ... : ... .. . ... ... ... ... : ... .. . ... : ... .. . ... : ... .. . ...
ROW 18 : ... .. . ... ... ... ... : ... .. . ... ... ... ... : ... .. . ... : ... .. . ... : ... .. . ...
ROW 19 : ... .. . ... ... ... ... : ... .. . ... ... ... ... : ... .. . ... : ... .. . ... : ... .. . ...
ROW 1A : ... .. . ... ... ... ... : ... .. . ... ... ... ... : --- .. . ... : ... .. . ... : ... .. . ...
ROW 1B : ... .. . ... ... ... ... : ... .. . ... ... ... ... : ... .. . ... : ... .. . ... : ... .. . ...
ROW 1C : ... .. . ... ... ... ... : F-3 00 5 V02 ... ... P80 : A-3 00 . ... : ... .. . ... : ... .. . ...
ROW 1D : ... .. . ... ... ... ... : ... .. . ... ... ... ... : ... .. . ... : ... .. . ... : ... .. . ...
ROW 1E : ... .. . ... ... ... ... : ... .. . ... ... ... ... : ... .. . ... : ... .. . ... : ... .. . ...
ROW 1F : ... .. . ... ... ... ... : ... .. . ... ... ... ... : ... .. . ... : ... .. . ... : ... .. . ...
ROW 20 : ... .. . ... ... ... ... : ... .. . ... ... ... ... : ... .. . ... : ... .. . ... : ... .. . ...
ROW 21 : ... .. . ... ... ... ... : ... .. . ... ... ... ... : ... .. . ... : ... .. . ... : ... .. . ...
ROW 22 : ... .. . ... ... ... ... : ... .. . ... ... ... ... : ... .. . ... : ... .. . ... : ... .. . ...
ROW 23 : ... .. . ... ... ... ... : ... .. 1 ... ... ... ... : --- .. . ... : ... .. . ... : ... .. . ...
ROW 24 : ... .. . ... ... ... ... : ... .. . ... ... ... ... : ... .. . ... : ... .. . ... : ... .. . ...
ROW 25 : ... .. . ... ... ... ... : ... .. . ... ... ... ... : ... .. . ... : ... .. . ... : ... .. . ...
ROW 26 : ... .. . ... ... ... ... : ... .. . ... ... ... ... : ... .. . ... : ... .. . ... : ... .. . ...
ROW 27 : ... .. . ... ... ... ... : ... .. . ... ... ... ... : ... .. . ... : ... .. . ... : ... .. . ...
ROW 28 : ... .. . ... ... ... ... : ... .. . ... ... ... ... : ... .. . ... : ... .. . ... : ... .. . ...
ROW 29 : ... .. . ... ... ... ... : ... .. . ... ... ... ... : ... .. . ... : ... .. . ... : ... .. . ...
ROW 2A : ... .. . ... ... ... P81 : E-4 00 2 V01 ... ... P81 : ... .. . ... : ... .. . ... : ... .. . ...
ROW 2B : ... .. . ... ... ... ... : ... .. . ... ... ... ... : ... .. . ... : ... .. . ... : ... .. . ...
ROW 2C : ... .. . ... ... ... ... : ... .. . ... ... ... ... : ... .. . ... : ... .. . ... : ... .. . ...
ROW 2D : ... .. . ... ... ... P80 : ... .. . ... ... ... ... : ... .. . ... : ... .. . ... : ... .. . ...
ROW 2E : ... .. . ... ... ... ... : ... .. . ... ... ... ... : ... .. . ... : ... .. . ... : ... .. . ...
ROW 2F : ... .. . ... ... ... ... : ... .. . ... ... ... ... : ... .. . ... : ... .. . ... : ... .. . ...
ROW 30 : ... .. . ... ... ... P7F : ... .. . ... ... ... ... : ... .. . ... : ... .. . ... : ... .. . ...
ROW 31 : ... .. 3 ... ... ... ... : ... .. . ... ... ... ... : ... .. . ... : ... .. . ... : ... .. . ...
ROW 32 : ... .. . ... ... ... ... : ... .. . ... ... ... ... : ... .. . ... : ... .. . ... : ... .. . ...
ROW 33 : ... .. 2 ... ... ... P80 : ... .. . ... ... ... ... : ... .. . ... : ... .. . ... : ... .. . ...
ROW 34 : ... .. . ... ... ... ... : ... .. . ... ... ... ... : ... .. . ... : ... .. . ... : ... .. . ...
ROW 35 : ... .. 1 ... ... ... ... : ... .. . ... ... ... ... : ... .. . ... : ... .. . ... : ... .. . ...
ROW 36 : ... .. . ... ... ... P81 : ... .. . ... ... ... ... : ... .. . ... : ... .. . ... : ... .. . ...
ROW 37 : ... .. . ... ... ... ... : ... .. . ... ... ... ... : ... .. . ... : ... .. . ... : ... .. . ...
ROW 38 : C-4 00 6 ... ... ... P80 : ... .. . ... ... ... ... : ... .. . ... : C-# 00 3 V01 : ... .. . ...
ROW 39 : ... .. . ... ... ... ... : ... .. . ... ... ... ... : ... .. . ... : ... .. . ... : ... .. . ...
ROW 3A : ... .. 5 ... ... ... ... : ... .. . ... ... ... ... : ... .. . ... : ... .. 2 ... : ... .. . ...
ROW 3B : ... .. . ... ... ... ... : ... .. . ... ... ... ... : ... .. . ... : ... .. . ... : ... .. . ...
ROW 3C : ... .. 4 ... ... ... ... : ... .. . ... ... ... ... : ... .. . ... : ... .. 1 ... : ... .. . ...
ROW 3D : ... .. . ... ... ... ... : ... .. . ... ... ... ... : ... .. . ... : ... .. . ... : ... .. . ...
ROW 3E : ... .. . ... ... ... ... : ... .. . ... ... ... ... : ... .. . ... : ... .. 0 ... : ... .. . ...
ROW 3F : ... .. . ... ... ... ... : ... .. . ... ... ... ... : ... .. . ... : ... .. . ... : ... .. . ...
ROW 40 : ... .. . ... ... ... ... : ... .. . ... ... ... ... : ... .. . ... : ... .. . ... : ... .. . ...
ROW 41 : ... .. . ... ... ... ... : ... .. . ... ... ... ... : ... .. . ... : ... .. . ... : ... .. . ...
ROW 42 : ... .. . ... ... ... ... : ... .. . ... ... ... ... : ... .. . ... : ... .. 1 ... : ... .. . ...
ROW 43 : ... .. . ... ... ... ... : ... .. 1 ... ... ... ... : ... .. . ... : ... .. . ... : ... .. . ...
ROW 44 : ... .. . ... ... ... ... : ... .. . ... ... ... ... : ... .. . ... : ... .. 0 ... : ... .. . ...
ROW 45 : ... .. . ... ... ... ... : ... .. . ... ... ... ... : ... .. . ... : ... .. . ... : ... .. . ...
ROW 46 : ... .. . ... ... ... ... : C-4 00 2 ... ... ... ... : ... .. . ... : ... .. . ... : ... .. . ...
ROW 47 : ... .. . ... ... ... ... : ... .. . ... ... ... ... : ... .. . ... : ... .. . ... : ... .. . ...
ROW 48 : ... .. . ... ... ... ... : ... .. . ... ... ... ... : ... .. . ... : ... .. . ... : ... .. . ...
ROW 49 : ... .. . ... ... ... ... : ... .. . ... ... ... ... : ... .. . ... : ... .. . ... : ... .. . ...
ROW 4A : ... .. . ... ... ... ... : ... .. . ... ... ... ... : ... .. . ... : ... .. . ... : ... .. . ...
ROW 4B : ... .. . ... ... ... ... : ... .. . ... ... ... ... : ... .. . ... : ... .. 1 ... : ... .. . ...
ROW 4C : ... .. . ... ... ... ... : ... .. . ... ... ... ... : ... .. . ... : ... .. . ... : ... .. . ...
ROW 4D : ... .. . ... ... ... ... : ... .. . ... ... ... ... : ... .. . ... : ... .. 0 ... : ... .. . ...
ROW 4E : ... .. . ... ... ... ... : ... .. . ... ... ... ... : ... .. . ... : ... .. . ... : ... .. . ...
ROW 4F : ... .. . ... ... ... ... : ... .. . ... ... ... ... : ... .. . ... : ... .. . ... : ... .. . ...
ROW 50 : ... .. . ... ... ... ... : ... .. . ... ... ... ... : ... .. . ... : ... .. . ... : ... .. . ...
ROW 51 : ... .. . ... ... ... ... : ... .. . ... ... ... ... : --- .. . ... : ... .. . ... : ... .. . ...
ROW 52 : ... .. . ... ... ... ... : ... .. . ... ... ... ... : ... .. . ... : ... .. . ... : ... .. . ...
ROW 53 : ... .. . ... ... ... ... : ... .. . ... ... ... ... : ... .. . ... : ... .. . ... : ... .. . ...
ROW 54 : ... .. . ... ... ... ... : F-3 00 5 V02 ... ... P80 : A-3 00 . ... : ... .. . ... : ... .. . ...
ROW 55 : ... .. . ... ... ... ... : ... .. . ... ... ... ... : ... .. . ... : ... .. . ... : ... .. . ...
ROW 56 : ... .. . ... ... ... ... : ... .. . ... ... ... ... : ... .. . ... : ... .. . ... : ... .. . ...
ROW 57 : ... .. . ... ... ... ... : ... .. . ... ... ... ... : ... .. . ... : ... .. . ... : ... .. . ...
ROW 58 : ... .. . ... ... ... ... : ... .. . ... ... ... ... : ... .. . ... : ... .. . ... : ... .. . ...
ROW 59 : ... .. . ... ... ... ... : ... .. . ... ... ... ... : ... .. . ... : ... .. . ... : ... .. . ...
ROW 5A : ... .. . ... ... ... ... : ... .. . ... ... ... ... : ... .. . ... : ... .. . ... : ... .. . ...
ROW 5B : ... .. . ... ... ... ... : ... .. 1 ... ... ... ... : --- .. . ... : ... .. . ... : ... .. . ...
ROW 5C : ... .. . ... ... ... ... : ... .. . ... ... ... ... : ... .. . ... : ... .. . ... : ... .. . ...
ROW 5D : ... .. . ... ... ... ... : ... .. . ... ... ... ... : ... .. . ... : ... .. . ... : ... .. . ...
ROW 5E : ... .. . ... ... ... ... : ... .. . ... ... ... ... : ... .. . ... : ... .. . ... : ... .. . ...
ROW 5F : ... .. . ... ... ... ... : ... .. . ... ... ... ... : ... .. . ... : ... .. . ... : ... .. . ...
ROW 60 : ... .. . ... ... ... ... : ... .. . ... ... ... ... : ... .. . ... : ... .. . ... : ... .. . ...
ROW 61 : ... .. . ... ... ... ... : ... .. . ... ... ... ... : ... .. . ... : ... .. . ... : ... .. . ...
ROW 62 : ... .. . ... ... ... P81 : C-4 00 2 V01 ... ... P81 : ... .. . ... : ... .. . ... : ... .. . ...
ROW 63 : ... .. . ... ... ... ... : ... .. . ... ... ... ... : ... .. . ... : ... .. . ... : ... .. . ...
ROW 64 : ... .. . ... ... ... ... : ... .. . ... ... ... ... : ... .. . ... : ... .. . ... : ... .. . ...
ROW 65 : ... .. . ... ... ... P80 : ... .. . ... ... ... ... : ... .. . ... : ... .. . ... : ... .. . ...
ROW 66 : ... .. . ... ... ... ... : ... .. . ... ... ... ... : ... .. . ... : ... .. . ... : ... .. . ...
ROW 67 : ... .. . ... ... ... ... : ... .. . ... ... ... ... : ... .. . ... : ... .. . ... : ... .. . ...
ROW 68 : ... .. . ... ... ... P7F : ... .. . ... ... ... ... : ... .. . ... : ... .. . ... : ... .. . ...
ROW 69 : ... .. 3 ... ... ... ... : ... .. . ... ... ... ... : ... .. . ... : ... .. . ... : ... .. . ...
ROW 6A : ... .. . ... ... ... ... : ... .. . ... ... ... ... : ... .. . ... : ... .. . ... : ... .. . ...
ROW 6B : ... .. 2 ... ... ... P80 : ... .. . ... ... ... ... : ... .. . ... : ... .. . ... : ... .. . ...
ROW 6C : ... .. . ... ... ... ... : ... .. . ... ... ... ... : ... .. . ... : ... .. . ... : ... .. . ...
ROW 6D : ... .. 1 ... ... ... ... : ... .. . ... ... ... ... : ... .. . ... : ... .. . ... : ... .. . ...
ROW 6E : ... .. . ... ... ... P81 : ... .. . ... ... ... ... : ... .. . ... : ... .. . ... : ... .. . ...
ROW 6F : ... .. . ... ... ... ... : ... .. . ... ... ... ... : ... .. . ... : ... .. . ... : ... .. . ...
ROW 70 : D-4 00 6 ... ... ... P80 : ... .. . ... ... ... ... : F-4 00 . ... : E-# 00 4 V00 : ... .. . ...
ROW 71 : ... .. . ... ... ... ... : ... .. . ... ... ... ... : ... .. . ... : ... .. . ... : ... .. . ...
ROW 72 : ... .. 5 ... ... ... ... : ... .. . ... ... ... ... : G-4 00 . ... : ... .. 3 ... : ... .. . ...
ROW 73 : ... .. . ... ... ... ... : ... .. . ... ... ... ... : ... .. . ... : ... .. . ... : ... .. . ...
ROW 74 : ... .. 4 ... ... ... ... : ... .. . ... ... ... ... : ... .. . ... : ... .. 2 ... : ... .. . ...
ROW 75 : ... .. . ... ... ... ... : ... .. . ... ... ... ... : ... .. . ... : ... .. . ... : ... .. . ...
ROW 76 : ... .. . ... ... ... ... : ... .. . ... ... ... ... : ... .. . ... : ... .. 1 ... : ... .. . ...
ROW 77 : ... .. . ... ... ... ... : ... .. . ... ... ... ... : ... .. . ... : ... .. . ... : ... .. . ...
ROW 78 : ... .. . ... ... ... ... : ... .. . ... ... ... ... : ... .. . ... : ... .. 0 ... : ... .. . ...
ROW 79 : ... .. . ... ... ... ... : ... .. . ... ... ... ... : ... .. . ... : ... .. . ... : ... .. . ...
ROW 7A : ... .. . ... ... ... ... : ... .. . ... ... ... ... : ... .. . ... : ... .. 1 ... : ... .. . ...
ROW 7B : ... .. . ... ... ... ... : ... .. 1 ... ... ... ... : ... .. . ... : ... .. . ... : ... .. . ...
ROW 7C : ... .. . ... ... ... ... : ... .. . ... ... ... ... : ... .. . ... : ... .. 0 ... : ... .. . ...
ROW 7D : ... .. . ... ... ... ... : ... .. . ... ... ... ... : ... .. . ... : ... .. . ... : ... .. . ...
ROW 7E : ... .. . ... ... ... ... : D-4 00 2 ... ... ... ... : ... .. . ... : ... .. . ... : ... .. . ...
ROW 7F : ... .. . ... ... ... ... : ... .. . ... ... ... ... : ... .. . ... : ... .. . ... : ... .. . ...
ROW 80 : ... .. . ... ... ... ... : ... .. . ... ... ... ... : ... .. . ... : ... .. . ... : ... .. . ...
ROW 81 : ... .. . ... ... ... ... : ... .. . ... ... ... ... : ... .. . ... : ... .. . ... : ... .. . ...
ROW 82 : ... .. . ... ... ... ... : ... .. . ... ... ... ... : ... .. . ... : ... .. . ... : ... .. . ...
ROW 83 : ... .. . ... ... ... ... : ... .. . ... ... ... ... : ... .. . ... : ... .. 1 ... : ... .. . ...
ROW 84 : ... .. . ... ... ... ... : ... .. . ... ... ... ... : ... .. . ... : ... .. . ... : ... .. . ...
ROW 85 : ... .. . ... ... ... ... : ... .. . ... ... ... ... : ... .. . ... : ... .. 0 ... : ... .. . ...
ROW 86 : ... .. . ... ... ... ... : ... .. . ... ... ... ... : ... .. . ... : ... .. . ... : ... .. . ...
ROW 87 : ... .. . ... ... ... ... : ... .. . ... ... ... ... : ... .. . ... : ... .. . ... : ... .. . ...
ROW 88 : ... .. . ... ... ... ... : ... .. . ... ... ... ... : ... .. . ... : ... .. . ... : ... .. . ...
ROW 89 : ... .. . ... ... ... ... : ... .. . ... ... ... ... : --- .. . ... : ... .. . ... : ... .. . ...
ROW 8A : ... .. . ... ... ... ... : ... .. . ... ... ... ... : ... .. . ... : ... .. . ... : ... .. . ...
ROW 8B : ... .. . ... ... ... ... : ... .. . ... ... ... ... : ... .. . ... : ... .. . ... : ... .. . ...
ROW 8C : ... .. . ... ... ... ... : F-3 00 5 V02 ... ... P80 : G-3 00 . ... : ... .. . ... : ... .. . ...
ROW 8D : ... .. . ... ... ... ... : ... .. . ... ... ... ... : ... .. . ... : ... .. . ... : ... .. . ...
ROW 8E : ... .. . ... ... ... ... : ... .. . ... ... ... ... : ... .. . ... : ... .. . ... : ... .. . ...
ROW 8F : ... .. . ... ... ... ... : ... .. . ... ... ... ... : ... .. . ... : ... .. . ... : ... .. . ...
ROW 90 : ... .. . ... ... ... ... : ... .. . ... ... ... ... : ... .. . ... : ... .. . ... : ... .. . ...
ROW 91 : ... .. . ... ... ... ... : ... .. . ... ... ... ... : ... .. . ... : ... .. . ... : ... .. . ...
ROW 92 : ... .. . ... ... ... ... : ... .. . ... ... ... ... : ... .. . ... : ... .. . ... : ... .. . ...
ROW 93 : ... .. . ... ... ... ... : ... .. 1 ... ... ... ... : --- .. . ... : ... .. . ... : ... .. . ...
ROW 94 : ... .. . ... ... ... ... : ... .. . ... ... ... ... : ... .. . ... : ... .. . ... : ... .. . ...
ROW 95 : ... .. . ... ... ... ... : ... .. . ... ... ... ... : ... .. . ... : ... .. . ... : ... .. . ...
ROW 96 : ... .. . ... ... ... ... : ... .. . ... ... ... ... : ... .. . ... : ... .. . ... : ... .. . ...
ROW 97 : ... .. . ... ... ... ... : ... .. . ... ... ... ... : ... .. . ... : ... .. . ... : ... .. . ...
ROW 98 : ... .. . ... ... ... ... : ... .. . ... ... ... ... : ... .. . ... : ... .. . ... : ... .. . ...
ROW 99 : ... .. . ... ... ... ... : ... .. . ... ... ... ... : ... .. . ... : ... .. . ... : ... .. . ...
ROW 9A : ... .. . ... ... ... P81 : D-4 00 2 V01 ... ... P81 : ... .. . ... : ... .. . ... : ... .. . ...
ROW 9B : ... .. . ... ... ... ... : ... .. . ... ... ... ... : ... .. . ... : ... .. . ... : ... .. . ...
ROW 9C : ... .. . ... ... ... ... : ... .. . ... ... ... ... : ... .. . ... : ... .. . ... : ... .. . ...
ROW 9D : ... .. . ... ... ... P80 : ... .. . ... ... ... ... : ... .. . ... : ... .. . ... : ... .. . ...
ROW 9E : ... .. . ... ... ... ... : ... .. . ... ... ... ... : ... .. . ... : ... .. . ... : ... .. . ...
ROW 9F : ... .. . ... ... ... ... : ... .. . ... ... ... ... : ... .. . ... : ... .. . ... : ... .. . ...
ROW A0 : ... .. . ... ... ... P7F : ... .. . ... ... ... ... : ... .. . ... : ... .. . ... : ... .. . ...
ROW A1 : ... .. . ... ... ... ... : ... .. . ... ... ... ... : ... .. . ... : ... .. . ... : ... .. . ...
ROW A2 : ... .. . ... ... ... ... : ... .. . ... ... ... ... : ... .. . ... : ... .. . ... : ... .. . ...
ROW A3 : ... .. . ... ... ... P80 : ... .. . ... ... ... ... : ... .. . ... : ... .. . ... : ... .. . ...
ROW A4 : ... .. . ... ... ... ... : ... .. . ... ... ... ... : ... .. . ... : ... .. . ... : ... .. . ...
ROW A5 : ... .. . ... ... ... ... : ... .. . ... ... ... ... : ... .. . ... : ... .. . ... : ... .. . ...
ROW A6 : ... .. . ... ... ... P81 : ... .. . ... ... ... ... : ... .. . ... : ... .. . ... : ... .. . ...
ROW A7 : ... .. . ... ... ... ... : ... .. . ... ... ... ... : ... .. . ... : ... .. . ... : ... .. . ...
ROW A8 : ... .. . ... ... ... ... : ... .. . ... ... ... ... : ... .. . ... : C-# 00 3 V01 : ... .. . ...
ROW A9 : ... .. . ... ... ... P80 : ... .. . ... ... ... ... : ... .. . ... : ... .. . ... : ... .. . ...
ROW AA : ... .. . ... ... ... ... : ... .. . ... ... ... ... : ... .. . ... : ... .. 2 ... : ... .. . ...
ROW AB : ... .. . ... ... ... ... : ... .. . ... ... ... ... : ... .. . ... : ... .. . ... : ... .. . ...
ROW AC : ... .. . ... ... ... P7F : ... .. . ... ... ... ... : ... .. . ... : ... .. 1 ... : ... .. . ...
ROW AD : ... .. . ... ... ... ... : ... .. . ... ... ... ... : ... .. . ... : ... .. . ... : ... .. . ...
ROW AE : ... .. . ... ... ... ... : ... .. . ... ... ... ... : ... .. . ... : ... .. 0 ... : ... .. . ...
ROW AF : ... .. . ... ... ... P80 : ... .. . ... ... ... ... : ... .. . ... : ... .. . ... : ... .. . ...
ROW B0 : ... .. . ... ... ... ... : ... .. . ... ... ... ... : ... .. . ... : ... .. . ... : ... .. . ...
ROW B1 : ... .. . ... ... ... ... : ... .. . ... ... ... ... : ... .. . ... : ... .. . ... : ... .. . ...
ROW B2 : ... .. . ... ... ... P81 : ... .. . ... ... ... ... : ... .. . ... : ... .. 1 ... : ... .. . ...
ROW B3 : ... .. . ... ... ... ... : ... .. . ... ... ... ... : ... .. . ... : ... .. . ... : ... .. . ...
ROW B4 : ... .. . ... ... ... ... : ... .. . ... ... ... ... : ... .. . ... : ... .. 0 ... : ... .. . ...
ROW B5 : ... .. . ... ... ... P80 : ... .. . ... ... ... ... : ... .. . ... : ... .. . ... : ... .. . ...
ROW B6 : ... .. . ... ... ... ... : ... .. . ... ... ... ... : ... .. . ... : ... .. . ... : ... .. . ...
ROW B7 : ... .. . ... ... ... ... : ... .. . ... ... ... ... : ... .. . ... : ... .. . ... : ... .. . ...
ROW B8 : ... .. . ... ... ... P7F : ... .. . ... ... ... ... : ... .. . ... : ... .. . ... : ... .. . ...
ROW B9 : ... .. . ... ... ... ... : ... .. . ... ... ... ... : ... .. . ... : ... .. . ... : ... .. . ...
ROW BA : ... .. . ... ... ... ... : ... .. . ... ... ... ... : ... .. . ... : ... .. . ... : ... .. . ...
ROW BB : ... .. . ... ... ... P80 : ... .. . ... ... ... ... : ... .. . ... : ... .. 1 ... : ... .. . ...
ROW BC : ... .. . ... ... ... ... : ... .. . ... ... ... ... : ... .. . ... : ... .. . ... : ... .. . ...
ROW BD : ... .. 3 ... ... ... ... : ... .. . ... ... ... ... : ... .. . ... : ... .. 0 ... : ... .. . ...
ROW BE : ... .. . ... ... ... P81 : ... .. . ... ... ... ... : ... .. . ... : ... .. . ... : ... .. . ...
ROW BF : ... .. 2 ... ... ... ... : ... .. . ... ... ... ... : ... .. . ... : ... .. . ... : ... .. . ...
ROW C0 : ... .. . ... ... ... ... : ... .. . ... ... ... ... : ... .. . ... : ... .. . ... : ... .. . ...
ROW C1 : ... .. 1 ... ... ... P80 : ... .. . ... ... ... ... : ... .. . ... : ... .. . ... : ... .. . ...
ROW C2 : ... .. . ... ... ... ... : ... .. . ... ... ... ... : ... .. . ... : ... .. . ... : ... .. . ...
ROW C3 : ... .. . ... ... ... ... : ... .. . ... ... ... ... : ... .. . ... : ... .. . ... : ... .. . ...
ROW C4 : G-4 00 6 ... ... ... ... : F-3 00 5 V02 ... ... P80 : G-3 00 . ... : ... .. . ... : ... .. . ...
ROW C5 : ... .. . ... ... ... ... : ... .. . ... ... ... ... : ... .. . ... : ... .. . ... : ... .. . ...
ROW C6 : ... .. . ... ... ... ... : ... .. . ... ... ... ... : ... .. . ... : ... .. . ... : ... .. . ...
ROW C7 : ... .. . ... ... ... ... : ... .. . ... ... ... ... : ... .. . ... : ... .. . ... : ... .. . ...
ROW C8 : ... .. . ... ... ... ... : ... .. . ... ... ... ... : ... .. . ... : ... .. . ... : ... .. . ...
ROW C9 : A-4 00 6 ... ... ... ... : ... .. . ... ... ... ... : ... .. . ... : ... .. . ... : ... .. . ...
ROW CA : ... .. . ... ... ... ... : ... .. . ... ... ... ... : ... .. . ... : ... .. . ... : ... .. . ...
ROW CB : ... .. 5 ... ... ... ... : ... .. 1 ... ... ... ... : --- .. . ... : ... .. . ... : ... .. . ...
ROW CC : ... .. . ... ... ... ... : ... .. . ... ... ... ... : ... .. . ... : ... .. . ... : ... .. . ...
ROW CD : ... .. 4 ... ... ... ... : ... .. . ... ... ... ... : ... .. . ... : ... .. . ... : ... .. . ...
ROW CE : ... .. . ... ... ... ... : ... .. . ... ... ... ... : ... .. . ... : ... .. . ... : ... .. . ...
ROW CF : ... .. . ... ... ... ... : ... .. . ... ... ... ... : ... .. . ... : ... .. . ... : ... .. . ...
ROW D0 : ... .. . ... ... ... ... : ... .. . ... ... ... ... : ... .. . ... : ... .. . ... : ... .. . ...
ROW D1 : ... .. . ... ... ... ... : ... .. . ... ... ... ... : ... .. . ... : ... .. . ... : ... .. . ...
ROW D2 : ... .. . ... ... ... ... : G-4 00 2 V01 ... ... P81 : ... .. . ... : ... .. . ... : ... .. . ...
ROW D3 : ... .. . ... ... ... ... : ... .. . ... ... ... ... : ... .. . ... : ... .. . ... : ... .. . ...
ROW D4 : ... .. . ... ... ... ... : ... .. . ... ... ... ... : ... .. . ... : ... .. . ... : ... .. . ...
ROW D5 : ... .. . ... ... ... ... : ... .. . ... ... ... ... : ... .. . ... : ... .. . ... : ... .. . ...
ROW D6 : ... .. . ... ... ... ... : ... .. . ... ... ... ... : ... .. . ... : ... .. . ... : ... .. . ...
ROW D7 : ... .. . ... ... ... ... : A-4 00 . ... ... ... ... : ... .. . ... : ... .. . ... : ... .. . ...
ROW D8 : ... .. . ... ... ... ... : ... .. . ... ... ... ... : ... .. . ... : ... .. . ... : ... .. . ...
ROW D9 : ... .. . ... ... ... ... : ... .. . ... ... ... ... : ... .. . ... : ... .. . ... : ... .. . ...
ROW DA : ... .. . ... ... ... ... : ... .. . ... ... ... ... : ... .. . ... : ... .. . ... : ... .. . ...
ROW DB : ... .. . ... ... ... ... : ... .. . ... ... ... ... : ... .. . ... : ... .. . ... : ... .. . ...
ROW DC : ... .. . ... ... ... ... : ... .. . ... ... ... ... : ... .. . ... : ... .. . ... : ... .. . ...
ROW DD : ... .. . ... ... ... ... : ... .. . ... ... ... ... : ... .. . ... : ... .. . ... : ... .. . ...
ROW DE : ... .. . ... ... ... ... : ... .. . ... ... ... ... : ... .. . ... : ... .. . ... : ... .. . ...
ROW DF : ... .. . ... ... ... ... : ... .. . ... ... ... ... : ... .. . ... : ... .. . ... : ... .. . ...

PATTERN 1C
ROW 00 : ... .. . ... ... ... ... : A#3 00 1 V02 ... ... ... : C-3 00 . ... : E-# 00 4 V00 : ... .. . ...
ROW 01 : ... .. . ... ... ... ... : ... .. 2 ... ... ... ... : ... .. . ... : ... .. . ... : ... .. . ...
ROW 02 : ... .. . ... ... ... ... : ... .. 3 ... ... ... ... : ... .. . ... : ... .. 3 ... : ... .. . ...
ROW 03 : ... .. . ... ... ... ... : ... .. 4 ... ... ... ... : ... .. . ... : ... .. . ... : ... .. . ...
ROW 04 : ... .. . ... ... ... ... : ... .. . ... ... ... ... : ... .. . ... : ... .. 2 ... : ... .. . ...
ROW 05 : ... .. . ... ... ... ... : ... .. . ... ... ... ... : ... .. . ... : ... .. . ... : ... .. . ...
ROW 06 : ... .. . ... ... ... ... : ... .. . ... ... ... ... : ... .. . ... : ... .. 1 ... : ... .. . ...
ROW 07 : ... .. 3 ... ... ... ... : ... .. . ... ... ... ... : ... .. . ... : ... .. . ... : ... .. . ...
ROW 08 : ... .. . ... ... ... ... : ... .. . ... ... ... ... : ... .. . ... : ... .. 0 ... : ... .. . ...
ROW 09 : ... .. . ... ... ... ... : ... .. . ... ... ... ... : ... .. . ... : ... .. . ... : ... .. . ...
ROW 0A : ... .. 2 ... ... ... ... : ... .. . ... ... ... ... : ... .. . ... : ... .. 1 ... : ... .. . ...
ROW 0B : ... .. . ... ... ... ... : ... .. . ... ... ... ... : ... .. . ... : ... .. . ... : ... .. . ...
ROW 0C : ... .. 1 ... ... ... ... : ... .. . ... ... ... ... : ... .. . ... : ... .. 0 ... : ... .. . ...
ROW 0D : ... .. . ... ... ... ... : ... .. . ... ... ... ... : ... .. . ... : ... .. . ... : ... .. . ...
ROW 0E : G-4 00 6 V01 ... ... ... : ... .. . ... ... ... ... : ... .. . ... : ... .. . ... : ... .. . ...
ROW 0F : ... .. . ... ... ... ... : ... .. . ... ... ... ... : ... .. . ... : ... .. . ... : ... .. . ...
ROW 10 : ... .. 5 ... ... ... ... : ... .. . ... ... ... ... : ... .. . ... : ... .. . ... : ... .. . ...
ROW 11 : ... .. . ... ... ... ... : ... .. . ... ... ... ... : ... .. . ... : ... .. . ... : ... .. . ...
ROW 12 : ... .. 4 ... ... ... ... : ... .. . ... ... ... ... : ... .. . ... : ... .. . ... : ... .. . ...
ROW 13 : ... .. . ... ... ... ... : ... .. . ... ... ... ... : ... .. . ... : ... .. 1 ... : ... .. . ...
ROW 14 : ... .. . ... ... ... ... : ... .. . ... ... ... ... : ... .. . ... : ... .. . ... : ... .. . ...
ROW 15 : ... .. . ... ... ... ... : ... .. . ... ... ... ... : ... .. . ... : ... .. 0 ... : ... .. . ...
ROW 16 : ... .. . ... ... ... ... : ... .. . ... ... ... ... : ... .. . ... : ... .. . ... : ... .. . ...
ROW 17 : ... .. . ... ... ... ... : ... .. . ... ... ... ... : ... .. . ... : ... .. . ... : ... .. . ...
ROW 18 : ... .. . ... ... ... ... : ... .. . ... ... ... ... : ... .. . ... : ... .. . ... : ... .. . ...
ROW 19 : ... .. . ... ... ... ... : ... .. . ... ... ... ... : ... .. . ... : ... .. . ... : ... .. . ...
ROW 1A : ... .. . ... ... ... ... : ... .. . ... ... ... ... : ... .. . ... : ... .. . ... : ... .. . ...
ROW 1B : ... .. . ... ... ... ... : ... .. . ... ... ... ... : --- .. . ... : ... .. . ... : ... .. . ...
ROW 1C : ... .. . ... ... ... ... : ... .. . ... ... ... ... : C-3 00 . ... : ... .. . ... : ... .. . ...
ROW 1D : ... .. . ... ... ... ... : ... .. . ... ... ... ... : ... .. . ... : ... .. . ... : ... .. . ...
ROW 1E : ... .. . ... ... ... ... : ... .. . ... ... ... ... : ... .. . ... : ... .. . ... : ... .. . ...
ROW 1F : ... .. . ... ... ... ... : ... .. . ... ... ... ... : ... .. . ... : ... .. . ... : ... .. . ...
ROW 20 : ... .. . ... ... ... ... : ... .. . ... ... ... ... : ... .. . ... : ... .. . ... : ... .. . ...
ROW 21 : ... .. . ... ... ... ... : ... .. . ... ... ... ... : ... .. . ... : ... .. . ... : ... .. . ...
ROW 22 : ... .. . ... ... ... ... : ... .. . ... ... ... ... : ... .. . ... : ... .. . ... : ... .. . ...
ROW 23 : ... .. . ... ... ... ... : ... .. . ... ... ... ... : ... .. . ... : ... .. . ... : ... .. . ...
ROW 24 : ... .. . ... ... ... ... : ... .. . ... ... ... ... : ... .. . ... : ... .. . ... : ... .. . ...
ROW 25 : ... .. . ... ... ... ... : ... .. . ... ... ... ... : ... .. . ... : ... .. . ... : ... .. . ...
ROW 26 : ... .. . ... ... ... ... : ... .. . ... ... ... ... : ... .. . ... : ... .. . ... : ... .. . ...
ROW 27 : ... .. . ... ... ... ... : ... .. . ... ... ... ... : ... .. . ... : ... .. . ... : ... .. . ...
ROW 28 : ... .. . ... ... ... ... : ... .. . ... ... ... ... : ... .. . ... : ... .. . ... : ... .. . ...
ROW 29 : ... .. . ... ... ... ... : ... .. . ... ... ... ... : ... .. . ... : ... .. . ... : ... .. . ...
ROW 2A : ... .. . ... ... ... ... : ... .. . ... ... ... P81 : ... .. . ... : ... .. . ... : ... .. . ...
ROW 2B : ... .. . ... ... ... ... : ... .. . ... ... ... ... : ... .. . ... : ... .. . ... : ... .. . ...
ROW 2C : ... .. . ... ... ... ... : ... .. . ... ... ... ... : ... .. . ... : ... .. . ... : ... .. . ...
ROW 2D : ... .. . ... ... ... ... : ... .. . ... ... ... P80 : ... .. . ... : ... .. . ... : ... .. . ...
ROW 2E : ... .. . ... ... ... ... : ... .. . ... ... ... ... : ... .. . ... : ... .. . ... : ... .. . ...
ROW 2F : ... .. . ... ... ... ... : ... .. . ... ... ... ... : ... .. . ... : ... .. . ... : ... .. . ...
ROW 30 : ... .. . ... ... ... ... : ... .. . ... ... ... P7F : ... .. . ... : ... .. . ... : ... .. . ...
ROW 31 : ... .. . ... ... ... ... : ... .. 3 ... ... ... ... : ... .. . ... : ... .. . ... : ... .. . ...
ROW 32 : ... .. 2 ... ... ... ... : ... .. . ... ... ... ... : ... .. . ... : ... .. . ... : ... .. . ...
ROW 33 : ... .. . ... ... ... ... : ... .. 2 ... ... ... P80 : ... .. . ... : ... .. . ... : ... .. . ...
ROW 34 : ... .. . ... ... ... ... : ... .. . ... ... ... ... : ... .. . ... : ... .. . ... : ... .. . ...
ROW 35 : ... .. 1 ... ... ... ... : ... .. 1 ... ... ... ... : ... .. . ... : ... .. . ... : ... .. . ...
ROW 36 : ... .. . ... ... ... ... : ... .. . ... ... ... P81 : ... .. . ... : ... .. . ... : ... .. . ...
ROW 37 : ... .. . ... ... ... ... : ... .. . ... ... ... ... : --- .. . ... : ... .. . ... : ... .. . ...
ROW 38 : ... .. . ... ... ... ... : C-4 00 1 V02 ... ... P80 : C-3 00 . ... : C-# 00 3 V01 : ... .. . ...
ROW 39 : E-4 00 1 V02 ... ... ... : ... .. 2 ... ... ... ... : ... .. . ... : ... .. . ... : ... .. . ...
ROW 3A : ... .. 2 ... ... ... ... : ... .. 3 ... ... ... ... : ... .. . ... : ... .. 2 ... : ... .. . ...
ROW 3B : ... .. 3 ... ... ... ... : ... .. 4 ... ... ... ... : ... .. . ... : ... .. . ... : ... .. . ...
ROW 3C : ... .. . ... ... ... ... : ... .. . ... ... ... ... : ... .. . ... : ... .. 1 ... : ... .. . ...
ROW 3D : ... .. . ... ... ... ... : ... .. . ... ... ... ... : ... .. . ... : ... .. . ... : ... .. . ...
ROW 3E : ... .. . ... ... ... ... : ... .. . ... ... ... ... : ... .. . ... : ... .. 0 ... : ... .. . ...
ROW 3F : ... .. . ... ... ... ... : ... .. . ... ... ... ... : ... .. . ... : ... .. . ... : ... .. . ...
ROW 40 : ... .. . ... ... ... ... : ... .. . ... ... ... ... : ... .. . ... : ... .. . ... : ... .. . ...
ROW 41 : ... .. . ... ... ... ... : ... .. . ... ... ... ... : ... .. . ... : ... .. . ... : ... .. . ...
ROW 42 : ... .. . ... ... ... ... : ... .. . ... ... ... ... : ... .. . ... : ... .. 1 ... : ... .. . ...
ROW 43 : ... .. . ... ... ... ... : ... .. . ... ... ... ... : ... .. . ... : ... .. . ... : ... .. . ...
ROW 44 : ... .. . ... ... ... ... : ... .. . ... ... ... ... : ... .. . ... : ... .. 0 ... : ... .. . ...
ROW 45 : ... .. . ... ... ... ... : ... .. . ... ... ... ... : ... .. . ... : ... .. . ... : ... .. . ...
ROW 46 : ... .. . ... ... ... ... : ... .. . ... ... ... ... : ... .. . ... : ... .. . ... : ... .. . ...
ROW 47 : ... .. . ... ... ... ... : ... .. . ... ... ... ... : ... .. . ... : ... .. . ... : ... .. . ...
ROW 48 : ... .. . ... ... ... ... : ... .. . ... ... ... ... : ... .. . ... : ... .. . ... : ... .. . ...
ROW 49 : ... .. . ... ... ... ... : ... .. . ... ... ... ... : ... .. . ... : ... .. . ... : ... .. . ...
ROW 4A : ... .. . ... ... ... ... : ... .. . ... ... ... ... : ... .. . ... : ... .. . ... : ... .. . ...
ROW 4B : ... .. . ... ... ... ... : ... .. . ... ... ... ... : ... .. . ... : ... .. 1 ... : ... .. . ...
ROW 4C : ... .. . ... ... ... ... : ... .. . ... ... ... ... : ... .. . ... : ... .. . ... : ... .. . ...
ROW 4D : ... .. . ... ... ... ... : ... .. . ... ... ... ... : ... .. . ... : ... .. 0 ... : ... .. . ...
ROW 4E : ... .. . ... ... ... ... : ... .. . ... ... ... ... : ... .. . ... : ... .. . ... : ... .. . ...
ROW 4F : ... .. . ... ... ... ... : ... .. . ... ... ... ... : ... .. . ... : ... .. . ... : ... .. . ...
ROW 50 : ... .. . ... ... ... ... : ... .. . ... ... ... ... : ... .. . ... : ... .. . ... : ... .. . ...
ROW 51 : ... .. . ... ... ... ... : ... .. . ... ... ... ... : ... .. . ... : ... .. . ... : ... .. . ...
ROW 52 : ... .. . ... ... ... ... : ... .. . ... ... ... ... : ... .. . ... : ... .. . ... : ... .. . ...
ROW 53 : ... .. . ... ... ... ... : ... .. . ... ... ... ... : --- .. . ... : ... .. . ... : ... .. . ...
ROW 54 : ... .. . ... ... ... ... : ... .. . ... ... ... ... : C-3 00 . ... : ... .. . ... : ... .. . ...
ROW 55 : ... .. . ... ... ... ... : ... .. . ... ... ... ... : ... .. . ... : ... .. . ... : ... .. . ...
ROW 56 : ... .. . ... ... ... ... : ... .. . ... ... ... ... : ... .. . ... : ... .. . ... : ... .. . ...
ROW 57 : ... .. . ... ... ... ... : ... .. . ... ... ... ... : ... .. . ... : ... .. . ... : ... .. . ...
ROW 58 : ... .. . ... ... ... ... : ... .. . ... ... ... ... : ... .. . ... : ... .. . ... : ... .. . ...
ROW 59 : ... .. . ... ... ... ... : ... .. . ... ... ... ... : ... .. . ... : ... .. . ... : ... .. . ...
ROW 5A : ... .. . ... ... ... ... : ... .. . ... ... ... ... : ... .. . ... : ... .. . ... : ... .. . ...
ROW 5B : ... .. . ... ... ... ... : ... .. . ... ... ... ... : ... .. . ... : ... .. . ... : ... .. . ...
ROW 5C : ... .. . ... ... ... ... : ... .. . ... ... ... ... : ... .. . ... : ... .. . ... : ... .. . ...
ROW 5D : ... .. . ... ... ... ... : ... .. . ... ... ... ... : ... .. . ... : ... .. . ... : ... .. . ...
ROW 5E : ... .. . ... ... ... ... : ... .. . ... ... ... ... : ... .. . ... : ... .. . ... : ... .. . ...
ROW 5F : ... .. . ... ... ... ... : ... .. . ... ... ... ... : ... .. . ... : ... .. . ... : ... .. . ...
ROW 60 : ... .. . ... ... ... ... : ... .. . ... ... ... ... : ... .. . ... : ... .. . ... : ... .. . ...
ROW 61 : ... .. . ... ... ... ... : ... .. . ... ... ... ... : --- .. . ... : ... .. . ... : ... .. . ...
ROW 62 : ... .. . ... ... ... ... : ... .. . ... ... ... P81 : F-3 00 . ... : ... .. . ... : ... .. . ...
ROW 63 : ... .. . ... ... ... ... : ... .. . ... ... ... ... : ... .. . ... : ... .. . ... : ... .. . ...
ROW 64 : ... .. . ... ... ... ... : ... .. . ... ... ... ... : ... .. . ... : ... .. . ... : ... .. . ...
ROW 65 : ... .. . ... ... ... ... : ... .. . ... ... ... P80 : ... .. . ... : ... .. . ... : ... .. . ...
ROW 66 : ... .. . ... ... ... ... : ... .. . ... ... ... ... : ... .. . ... : ... .. . ... : ... .. . ...
ROW 67 : ... .. . ... ... ... ... : ... .. . ... ... ... ... : ... .. . ... : ... .. . ... : ... .. . ...
ROW 68 : ... .. . ... ... ... ... : ... .. . ... ... ... P7F : --- .. . ... : ... .. . ... : ... .. . ...
ROW 69 : ... .. . ... ... ... ... : ... .. 3 ... ... ... ... : G-3 00 . ... : ... .. . ... : ... .. . ...
ROW 6A : ... .. 2 ... ... ... ... : ... .. . ... ... ... ... : ... .. . ... : ... .. . ... : ... .. . ...
ROW 6B : ... .. . ... ... ... ... : ... .. 2 ... ... ... P80 : ... .. . ... : ... .. . ... : ... .. . ...
ROW 6C : ... .. . ... ... ... ... : ... .. . ... ... ... ... : ... .. . ... : ... .. . ... : ... .. . ...
ROW 6D : ... .. 1 ... ... ... ... : ... .. 1 ... ... ... ... : ... .. . ... : ... .. . ... : ... .. . ...
ROW 6E : ... .. . ... ... ... ... : ... .. . ... ... ... P81 : ... .. . ... : ... .. . ... : ... .. . ...
ROW 6F : ... .. . ... ... ... ... : ... .. . ... ... ... ... : --- .. . ... : ... .. . ... : ... .. . ...
ROW 70 : ... .. . ... ... ... ... : A#3 00 1 ... ... ... P80 : C-4 00 . ... : E-# 00 4 V00 : ... .. . ...
ROW 71 : F-4 00 1 ... ... ... ... : ... .. 2 ... ... ... ... : ... .. . ... : ... .. . ... : ... .. . ...
ROW 72 : ... .. 2 ... ... ... ... : ... .. 3 ... ... ... ... : ... .. . ... : ... .. 3 ... : ... .. . ...
ROW 73 : ... .. 3 ... ... ... ... : ... .. 4 ... ... ... ... : ... .. . ... : ... .. . ... : ... .. . ...
ROW 74 : ... .. . ... ... ... ... : ... .. . ... ... ... ... : ... .. . ... : ... .. 2 ... : ... .. . ...
ROW 75 : ... .. . ... ... ... ... : ... .. . ... ... ... ... : ... .. . ... : ... .. . ... : ... .. . ...
ROW 76 : ... .. . ... ... ... ... : ... .. . ... ... ... ... : ... .. . ... : ... .. 1 ... : ... .. . ...
ROW 77 : ... .. . ... ... ... ... : ... .. . ... ... ... ... : ... .. . ... : ... .. . ... : ... .. . ...
ROW 78 : ... .. . ... ... ... ... : ... .. . ... ... ... ... : ... .. . ... : ... .. 0 ... : ... .. . ...
ROW 79 : ... .. . ... ... ... ... : ... .. . ... ... ... ... : ... .. . ... : ... .. . ... : ... .. . ...
ROW 7A : ... .. . ... ... ... ... : ... .. . ... ... ... ... : ... .. . ... : ... .. 1 ... : ... .. . ...
ROW 7B : ... .. . ... ... ... ... : ... .. . ... ... ... ... : ... .. . ... : ... .. . ... : ... .. . ...
ROW 7C : ... .. . ... ... ... ... : ... .. . ... ... ... ... : ... .. . ... : ... .. 0 ... : ... .. . ...
ROW 7D : ... .. . ... ... ... ... : ... .. . ... ... ... ... : ... .. . ... : ... .. . ... : ... .. . ...
ROW 7E : ... .. . ... ... ... ... : ... .. . ... ... ... ... : ... .. . ... : ... .. . ... : ... .. . ...
ROW 7F : ... .. . ... ... ... ... : ... .. . ... ... ... ... : ... .. . ... : ... .. . ... : ... .. . ...
ROW 80 : ... .. . ... ... ... ... : ... .. . ... ... ... ... : ... .. . ... : ... .. . ... : ... .. . ...
ROW 81 : ... .. . ... ... ... ... : ... .. . ... ... ... ... : ... .. . ... : ... .. . ... : ... .. . ...
ROW 82 : ... .. . ... ... ... ... : ... .. . ... ... ... ... : ... .. . ... : ... .. . ... : ... .. . ...
ROW 83 : ... .. . ... ... ... ... : ... .. . ... ... ... ... : ... .. . ... : ... .. 1 ... : ... .. . ...
ROW 84 : ... .. . ... ... ... ... : ... .. . ... ... ... ... : ... .. . ... : ... .. . ... : ... .. . ...
ROW 85 : ... .. . ... ... ... ... : ... .. . ... ... ... ... : ... .. . ... : ... .. 0 ... : ... .. . ...
ROW 86 : ... .. . ... ... ... ... : ... .. . ... ... ... ... : ... .. . ... : ... .. . ... : ... .. . ...
ROW 87 : ... .. . ... ... ... ... : ... .. . ... ... ... ... : ... .. . ... : ... .. . ... : ... .. . ...
ROW 88 : ... .. . ... ... ... ... : ... .. . ... ... ... ... : ... .. . ... : ... .. . ... : ... .. . ...
ROW 89 : ... .. . ... ... ... ... : ... .. . ... ... ... ... : ... .. . ... : ... .. . ... : ... .. . ...
ROW 8A : ... .. . ... ... ... ... : ... .. . ... ... ... ... : ... .. . ... : ... .. . ... : ... .. . ...
ROW 8B : ... .. . ... ... ... ... : ... .. . ... ... ... ... : ... .. . ... : ... .. . ... : ... .. . ...
ROW 8C : ... .. . ... ... ... ... : ... .. . ... ... ... ... : ... .. . P81 : ... .. . ... : ... .. . ...
ROW 8D : ... .. . ... ... ... ... : ... .. . ... ... ... ... : ... .. . ... : ... .. . ... : ... .. . ...
ROW 8E : ... .. . ... ... ... ... : ... .. . ... ... ... ... : ... .. . ... : ... .. . ... : ... .. . ...
ROW 8F : ... .. . ... ... ... ... : ... .. . ... ... ... ... : ... .. . P80 : ... .. . ... : ... .. . ...
ROW 90 : ... .. . ... ... ... ... : ... .. . ... ... ... ... : ... .. . ... : ... .. . ... : ... .. . ...
ROW 91 : ... .. . ... ... ... ... : ... .. . ... ... ... ... : ... .. . ... : ... .. . ... : ... .. . ...
ROW 92 : ... .. . ... ... ... ... : ... .. . ... ... ... ... : ... .. . P7F : ... .. . ... : ... .. . ...
ROW 93 : ... .. . ... ... ... ... : ... .. . ... ... ... ... : ... .. . ... : ... .. . ... : ... .. . ...
ROW 94 : ... .. . ... ... ... ... : ... .. . ... ... ... ... : ... .. . ... : ... .. . ... : ... .. . ...
ROW 95 : ... .. . ... ... ... ... : ... .. . ... ... ... ... : ... .. . P80 : ... .. . ... : ... .. . ...
ROW 96 : ... .. . ... ... ... ... : ... .. . ... ... ... ... : ... .. . ... : ... .. . ... : ... .. . ...
ROW 97 : ... .. . ... ... ... ... : ... .. . ... ... ... ... : ... .. . ... : ... .. . ... : ... .. . ...
ROW 98 : ... .. . ... ... ... ... : ... .. . ... ... ... ... : ... .. . P81 : ... .. . ... : ... .. . ...
ROW 99 : ... .. . ... ... ... ... : ... .. . ... ... ... ... : ... .. . ... : ... .. . ... : ... .. . ...
ROW 9A : ... .. . ... ... ... ... : ... .. . ... ... ... P81 : ... .. . ... : ... .. . ... : ... .. . ...
ROW 9B : ... .. . ... ... ... ... : ... .. . ... ... ... ... : ... .. . P80 : ... .. . ... : ... .. . ...
ROW 9C : ... .. . ... ... ... ... : ... .. . ... ... ... ... : ... .. . ... : ... .. . ... : ... .. . ...
ROW 9D : ... .. . ... ... ... ... : ... .. . ... ... ... P80 : ... .. . ... : ... .. . ... : ... .. . ...
ROW 9E : ... .. . ... ... ... ... : ... .. . ... ... ... ... : ... .. . P7F : ... .. . ... : ... .. . ...
ROW 9F : ... .. . ... ... ... ... : ... .. . ... ... ... ... : ... .. . ... : ... .. . ... : ... .. . ...
ROW A0 : ... .. . ... ... ... ... : ... .. . ... ... ... P7F : ... .. . ... : ... .. . ... : ... .. . ...
ROW A1 : ... .. . ... ... ... ... : ... .. 3 ... ... ... ... : ... .. . P80 : ... .. . ... : ... .. . ...
ROW A2 : ... .. 2 ... ... ... ... : ... .. . ... ... ... ... : ... .. . ... : ... .. . ... : ... .. . ...
ROW A3 : ... .. . ... ... ... ... : ... .. 2 ... ... ... P80 : ... .. . ... : ... .. . ... : ... .. . ...
ROW A4 : ... .. . ... ... ... ... : ... .. . ... ... ... ... : ... .. . P81 : ... .. . ... : ... .. . ...
ROW A5 : ... .. 1 ... ... ... ... : ... .. 1 ... ... ... ... : ... .. . ... : ... .. . ... : ... .. . ...
ROW A6 : ... .. . ... ... ... ... : ... .. . ... ... ... P81 : ... .. . ... : ... .. . ... : ... .. . ...
ROW A7 : ... .. . ... ... ... ... : ... .. . ... ... ... ... : ... .. . P80 : ... .. . ... : ... .. . ...
ROW A8 : ... .. . ... ... ... ... : A#3 00 1 ... ... ... P80 : ... .. . ... : C-# 00 3 V01 : ... .. . ...
ROW A9 : G-4 00 1 ... ... ... ... : ... .. 2 ... ... ... ... : ... .. . ... : ... .. . ... : ... .. . ...
ROW AA : ... .. 2 ... ... ... ... : ... .. 3 ... ... ... ... : ... .. . P7F : ... .. 2 ... : ... .. . ...
ROW AB : ... .. 3 ... ... ... ... : ... .. 4 ... ... ... ... : ... .. . ... : ... .. . ... : ... .. . ...
ROW AC : ... .. . ... ... ... ... : ... .. . ... ... ... ... : ... .. . ... : ... .. 1 ... : ... .. . ...
ROW AD : ... .. . ... ... ... ... : ... .. . ... ... ... ... : ... .. . P80 : ... .. . ... : ... .. . ...
ROW AE : ... .. . ... ... ... ... : ... .. . ... ... ... ... : ... .. . ... : ... .. 0 ... : ... .. . ...
ROW AF : ... .. . ... ... ... ... : ... .. . ... ... ... ... : ... .. . ... : ... .. . ... : ... .. . ...
ROW B0 : ... .. . ... ... ... ... : ... .. . ... ... ... ... : ... .. . P81 : ... .. . ... : ... .. . ...
ROW B1 : ... .. . ... ... ... ... : ... .. . ... ... ... ... : ... .. . ... : ... .. . ... : ... .. . ...
ROW B2 : ... .. . ... ... ... ... : ... .. . ... ... ... ... : ... .. . ... : ... .. 1 ... : ... .. . ...
ROW B3 : ... .. . ... ... ... ... : ... .. . ... ... ... ... : ... .. . P80 : ... .. . ... : ... .. . ...
ROW B4 : ... .. . ... ... ... ... : ... .. . ... ... ... ... : ... .. . ... : ... .. 0 ... : ... .. . ...
ROW B5 : ... .. . ... ... ... ... : ... .. . ... ... ... ... : ... .. . ... : ... .. . ... : ... .. . ...
ROW B6 : ... .. . ... ... ... ... : ... .. . ... ... ... ... : ... .. . P7F : ... .. . ... : ... .. . ...
ROW B7 : ... .. . ... ... ... ... : ... .. . ... ... ... ... : ... .. . ... : ... .. . ... : ... .. . ...
ROW B8 : ... .. . ... ... ... ... : ... .. . ... ... ... ... : ... .. . ... : ... .. . ... : ... .. . ...
ROW B9 : ... .. . ... ... ... ... : ... .. . ... ... ... ... : ... .. . P80 : ... .. . ... : ... .. . ...
ROW BA : ... .. . ... ... ... ... : ... .. . ... ... ... ... : ... .. . ... : ... .. . ... : ... .. . ...
ROW BB : ... .. . ... ... ... ... : ... .. . ... ... ... ... : ... .. . ... : ... .. 1 ... : ... .. . ...
ROW BC : ... .. . ... ... ... ... : ... .. . ... ... ... ... : ... .. . P81 : ... .. . ... : ... .. . ...
ROW BD : ... .. . ... ... ... ... : ... .. . ... ... ... ... : ... .. . ... : ... .. 0 ... : ... .. . ...
ROW BE : ... .. . ... ... ... ... : ... .. . ... ... ... ... : ... .. . ... : ... .. . ... : ... .. . ...
ROW BF : ... .. . ... ... ... ... : ... .. . ... ... ... ... : ... .. . P80 : ... .. . ... : ... .. . ...
ROW C0 : ... .. . ... ... ... ... : ... .. . ... ... ... ... : ... .. . ... : ... .. . ... : ... .. . ...
ROW C1 : ... .. . ... ... ... ... : ... .. . ... ... ... ... : ... .. . ... : ... .. . ... : ... .. . ...
ROW C2 : ... .. . ... ... ... ... : ... .. . ... ... ... ... : ... .. . P7F : ... .. . ... : ... .. . ...
ROW C3 : ... .. . ... ... ... ... : ... .. . ... ... ... ... : ... .. . ... : ... .. . ... : ... .. . ...
ROW C4 : ... .. . ... ... ... ... : ... .. . ... ... ... ... : ... .. . ... : ... .. . ... : ... .. . ...
ROW C5 : ... .. . ... ... ... ... : ... .. . ... ... ... ... : ... .. . P80 : ... .. . ... : ... .. . ...
ROW C6 : ... .. . ... ... ... ... : ... .. . ... ... ... ... : ... .. . ... : ... .. . ... : ... .. . ...
ROW C7 : ... .. . ... ... ... ... : ... .. . ... ... ... ... : ... .. . ... : ... .. . ... : ... .. . ...
ROW C8 : ... .. . ... ... ... ... : ... .. . ... ... ... ... : ... .. . P81 : ... .. . ... : ... .. . ...
ROW C9 : ... .. . ... ... ... ... : ... .. . ... ... ... ... : ... .. . ... : ... .. . ... : ... .. . ...
ROW CA : ... .. . ... ... ... ... : ... .. . ... ... ... ... : ... .. . ... : ... .. . ... : ... .. . ...
ROW CB : ... .. . ... ... ... ... : ... .. . ... ... ... ... : ... .. . P80 : ... .. . ... : ... .. . ...
ROW CC : ... .. . ... ... ... ... : ... .. . ... ... ... ... : ... .. . ... : ... .. . ... : ... .. . ...
ROW CD : ... .. . ... ... ... ... : ... .. . ... ... ... ... : ... .. . ... : ... .. . ... : ... .. . ...
ROW CE : ... .. . ... ... ... ... : ... .. . ... ... ... ... : ... .. . P7F : ... .. . ... : ... .. . ...
ROW CF : ... .. . ... ... ... ... : ... .. . ... ... ... ... : ... .. . ... : ... .. . ... : ... .. . ...
ROW D0 : ... .. . ... ... ... ... : ... .. . ... ... ... ... : ... .. . ... : ... .. . ... : ... .. . ...
ROW D1 : ... .. . ... ... ... ... : ... .. . ... ... ... ... : ... .. . P80 : ... .. . ... : ... .. . ...
ROW D2 : ... .. . ... ... ... ... : ... .. . ... ... ... P81 : ... .. . ... : ... .. . ... : ... .. . ...
ROW D3 : ... .. . ... ... ... ... : ... .. . ... ... ... ... : ... .. . ... : ... .. . ... : ... .. . ...
ROW D4 : ... .. . ... ... ... ... : ... .. . ... ... ... ... : ... .. . P81 : ... .. . ... : ... .. . ...
ROW D5 : ... .. . ... ... ... ... : ... .. . ... ... ... P80 : ... .. . ... : ... .. . ... : ... .. . ...
ROW D6 : ... .. . ... ... ... ... : ... .. . ... ... ... ... : ... .. . ... : ... .. . ... : ... .. . ...
ROW D7 : ... .. . ... ... ... ... : ... .. . ... ... ... ... : ... .. . P80 : ... .. . ... : ... .. . ...
ROW D8 : ... .. . ... ... ... ... : ... .. . ... ... ... P7F : ... .. . ... : ... .. . ... : ... .. . ...
ROW D9 : ... .. 2 ... ... ... ... : ... .. 3 ... ... ... ... : ... .. . ... : ... .. . ... : ... .. . ...
ROW DA : ... .. . ... ... ... ... : ... .. . ... ... ... ... : ... .. . P7F : ... .. . ... : ... .. . ...
ROW DB : ... .. . ... ... ... ... : ... .. 2 ... ... ... P80 : ... .. . ... : ... .. . ... : ... .. . ...
ROW DC : ... .. . ... ... ... ... : ... .. . ... ... ... ... : ... .. . ... : ... .. . ... : ... .. . ...
ROW DD : ... .. 1 ... ... ... ... : ... .. 1 ... ... ... ... : ... .. . P80 : ... .. . ... : ... .. . ...
ROW DE : ... .. . ... ... ... ... : ... .. . ... ... ... P81 : ... .. . ... : ... .. . ... : ... .. . ...
ROW DF : ... .. . ... ... ... ... : ... .. . ... ... ... ... : ... .. . ... : ... .. . ... : ... .. . ...

PATTERN 1D
ROW 00 : A-4 00 6 V01 ... ... ... : F-4 00 B V02 ... ... ... : F-4 00 . ... : 2-# 00 3 V00 : ... .. . ...
ROW 01 : ... .. . ... ... ... ... : ... .. 6 ... ... ... ... : ... .. . ... : ... .. . ... : ... .. . ...
ROW 02 : ... .. 5 ... ... ... ... : ... .. 3 ... ... ... ... : ... .. . ... : ... .. 2 ... : ... .. . ...
ROW 03 : ... .. . ... ... ... ... : ... .. 2 ... ... ... ... : ... .. . ... : ... .. . ... : ... .. . ...
ROW 04 : ... .. 4 ... ... ... ... : ... .. 1 ... ... ... ... : ... .. . ... : ... .. 1 ... : ... .. . ...
ROW 05 : ... .. . ... ... ... ... : ... .. . ... ... ... ... : ... .. . ... : ... .. . ... : ... .. . ...
ROW 06 : ... .. . ... ... ... ... : ... .. . ... ... ... ... : ... .. . ... : ... .. 0 ... : ... .. . ...
ROW 07 : ... .. . ... ... ... ... : ... .. . ... ... ... ... : ... .. . ... : ... .. . ... : ... .. . ...
ROW 08 : ... .. . ... ... ... ... : ... .. . ... ... ... ... : ... .. . ... : ... .. . ... : ... .. . ...
ROW 09 : ... .. . ... ... ... ... : ... .. . ... ... ... ... : ... .. . ... : ... .. . ... : ... .. . ...
ROW 0A : ... .. . ... ... ... ... : ... .. 2 ... ... ... ... : ... .. . ... : ... .. . ... : ... .. . ...
ROW 0B : ... .. . ... ... ... ... : ... .. 4 ... ... ... ... : ... .. . ... : ... .. . ... : ... .. . ...
ROW 0C : ... .. . ... ... ... ... : ... .. 4 ... ... ... ... : ... .. . ... : ... .. . ... : ... .. . ...
ROW 0D : ... .. . ... ... ... ... : ... .. 2 ... ... ... ... : ... .. . ... : ... .. . ... : ... .. . ...
ROW 0E : ... .. . ... ... ... ... : ... .. 1 ... ... ... ... : ... .. . ... : E-# 00 3 ... : ... .. . ...
ROW 0F : ... .. . ... ... ... ... : ... .. . ... ... ... ... : ... .. . ... : ... .. 1 ... : ... .. . ...
ROW 10 : ... .. . ... ... ... ... : ... .. . ... ... ... ... : ... .. . ... : ... .. 0 ... : ... .. . ...
ROW 11 : ... .. . ... ... ... ... : ... .. . ... ... ... ... : ... .. . ... : ... .. . ... : ... .. . ...
ROW 12 : ... .. . ... ... ... ... : ... .. . ... ... ... ... : ... .. . ... : ... .. . ... : ... .. . ...
ROW 13 : ... .. . ... ... ... ... : ... .. 1 ... ... ... ... : ... .. . ... : ... .. . ... : ... .. . ...
ROW 14 : ... .. . ... ... ... ... : ... .. 3 ... ... ... ... : ... .. . ... : ... .. . ... : ... .. . ...
ROW 15 : ... .. . ... ... ... ... : ... .. 3 ... ... ... ... : ... .. . ... : ... .. . ... : ... .. . ...
ROW 16 : ... .. . ... ... ... ... : ... .. 1 ... ... ... ... : ... .. . ... : ... .. . ... : ... .. . ...
ROW 17 : ... .. . ... ... ... ... : ... .. . ... ... ... ... : ... .. . ... : ... .. . ... : ... .. . ...
ROW 18 : ... .. . ... ... ... ... : ... .. . ... ... ... ... : ... .. . ... : ... .. . ... : ... .. . ...
ROW 19 : ... .. . ... ... ... ... : ... .. . ... ... ... ... : ... .. . ... : ... .. . ... : ... .. . ...
ROW 1A : ... .. . ... ... ... ... : ... .. . ... ... ... ... : ... .. . ... : ... .. . ... : ... .. . ...
ROW 1B : ... .. . ... ... ... ... : ... .. . ... ... ... ... : ... .. . ... : ... .. . ... : ... .. . ...
ROW 1C : ... .. . ... ... ... ... : C-4 00 B ... ... ... ... : ... .. . P81 : E-# 00 3 ... : ... .. . ...
ROW 1D : ... .. . ... ... ... ... : ... .. 6 ... ... ... ... : ... .. . ... : ... .. 1 ... : ... .. . ...
ROW 1E : ... .. . ... ... ... ... : ... .. 3 ... ... ... ... : ... .. . ... : ... .. 0 ... : ... .. . ...
ROW 1F : ... .. . ... ... ... ... : ... .. 2 ... ... ... ... : ... .. . P80 : ... .. . ... : ... .. . ...
ROW 20 : ... .. . ... ... ... ... : ... .. 1 ... ... ... ... : ... .. . ... : ... .. . ... : ... .. . ...
ROW 21 : ... .. . ... ... ... ... : ... .. . ... ... ... ... : ... .. . ... : ... .. . ... : ... .. . ...
ROW 22 : ... .. . ... ... ... ... : ... .. . ... ... ... ... : ... .. . P7F : ... .. . ... : ... .. . ...
ROW 23 : ... .. . ... ... ... ... : ... .. . ... ... ... ... : ... .. . ... : ... .. . ... : ... .. . ...
ROW 24 : ... .. . ... ... ... ... : ... .. . ... ... ... ... : ... .. . ... : ... .. . ... : ... .. . ...
ROW 25 : ... .. . ... ... ... ... : ... .. . ... ... ... ... : ... .. . P80 : ... .. . ... : ... .. . ...
ROW 26 : ... .. . ... ... ... ... : ... .. 2 ... ... ... ... : ... .. . ... : ... .. . ... : ... .. . ...
ROW 27 : ... .. . ... ... ... ... : ... .. 4 ... ... ... ... : ... .. . ... : ... .. . ... : ... .. . ...
ROW 28 : ... .. . ... ... ... ... : ... .. 4 ... ... ... ... : ... .. . P81 : ... .. . ... : ... .. . ...
ROW 29 : ... .. . ... ... ... ... : ... .. 2 ... ... ... ... : ... .. . ... : ... .. . ... : ... .. . ...
ROW 2A : ... .. . ... ... ... ... : ... .. 1 ... ... ... ... : ... .. . P80 : E-# 00 3 ... : ... .. . ...
ROW 2B : ... .. . ... ... ... ... : ... .. . ... ... ... ... : ... .. . ... : ... .. 1 ... : ... .. . ...
ROW 2C : ... .. . ... ... ... ... : ... .. . ... ... ... ... : ... .. . ... : ... .. 0 ... : ... .. . ...
ROW 2D : ... .. . ... ... ... ... : ... .. . ... ... ... ... : ... .. . ... : ... .. . ... : ... .. . ...
ROW 2E : ... .. . ... ... ... ... : ... .. . ... ... ... ... : ... .. . ... : ... .. . ... : ... .. . ...
ROW 2F : ... .. . ... ... ... ... : ... .. 1 ... ... ... ... : ... .. . ... : ... .. . ... : ... .. . ...
ROW 30 : ... .. . ... ... ... ... : ... .. 3 ... ... ... ... : ... .. . ... : ... .. . ... : ... .. . ...
ROW 31 : ... .. . ... ... ... ... : ... .. 3 ... ... ... ... : ... .. . ... : ... .. . ... : ... .. . ...
ROW 32 : ... .. . ... ... ... ... : ... .. 1 ... ... ... ... : ... .. . ... : ... .. . ... : ... .. . ...
ROW 33 : ... .. . ... ... ... ... : ... .. . ... ... ... ... : ... .. . ... : ... .. . ... : ... .. . ...
ROW 34 : ... .. . ... ... ... ... : ... .. . ... ... ... ... : ... .. . ... : ... .. . ... : ... .. . ...
ROW 35 : ... .. . ... ... ... ... : ... .. . ... ... ... ... : ... .. . ... : ... .. . ... : ... .. . ...
ROW 36 : ... .. . ... ... ... ... : ... .. . ... ... ... ... : ... .. . ... : ... .. . ... : ... .. . ...
ROW 37 : ... .. . ... ... ... ... : ... .. . ... ... ... ... : ... .. . ... : ... .. . ... : ... .. . ...
ROW 38 : ... .. . ... ... ... ... : D-4 00 B ... ... ... ... : E-4 00 . ... : E-# 00 3 ... : ... .. . ...
ROW 39 : ... .. . ... ... ... ... : ... .. 6 ... ... ... ... : ... .. . ... : ... .. 1 ... : ... .. . ...
ROW 3A : ... .. . ... ... ... ... : ... .. 3 ... ... ... ... : ... .. . ... : ... .. 0 ... : ... .. . ...
ROW 3B : ... .. . ... ... ... ... : ... .. 2 ... ... ... ... : ... .. . ... : ... .. . ... : ... .. . ...
ROW 3C : ... .. . ... ... ... ... : ... .. 1 ... ... ... ... : ... .. . ... : ... .. . ... : ... .. . ...
ROW 3D : ... .. . ... ... ... ... : ... .. . ... ... ... ... : ... .. . ... : ... .. . ... : ... .. . ...
ROW 3E : ... .. . ... ... ... ... : ... .. . ... ... ... ... : ... .. . ... : ... .. . ... : ... .. . ...
ROW 3F : ... .. . ... ... ... ... : ... .. . ... ... ... ... : ... .. . ... : ... .. . ... : ... .. . ...
ROW 40 : ... .. . ... ... ... ... : ... .. . ... ... ... ... : ... .. . ... : ... .. . ... : ... .. . ...
ROW 41 : ... .. . ... ... ... ... : ... .. . ... ... ... ... : ... .. . ... : ... .. . ... : ... .. . ...
ROW 42 : ... .. . ... ... ... ... : ... .. 2 ... ... ... ... : ... .. . ... : ... .. . ... : ... .. . ...
ROW 43 : ... .. . ... ... ... ... : ... .. 4 ... ... ... ... : ... .. . ... : ... .. . ... : ... .. . ...
ROW 44 : ... .. . ... ... ... ... : ... .. 4 ... ... ... ... : ... .. . ... : ... .. . ... : ... .. . ...
ROW 45 : ... .. . ... ... ... ... : ... .. 2 ... ... ... ... : ... .. . ... : ... .. . ... : ... .. . ...
ROW 46 : ... .. . ... ... ... ... : ... .. 1 ... ... ... ... : ... .. . ... : E-# 00 3 ... : ... .. . ...
ROW 47 : ... .. . ... ... ... ... : ... .. . ... ... ... ... : ... .. . ... : ... .. 1 ... : ... .. . ...
ROW 48 : ... .. . ... ... ... ... : ... .. . ... ... ... ... : ... .. . ... : ... .. 0 ... : ... .. . ...
ROW 49 : ... .. . ... ... ... ... : ... .. . ... ... ... ... : ... .. . ... : ... .. . ... : ... .. . ...
ROW 4A : ... .. . ... ... ... ... : ... .. . ... ... ... ... : ... .. . ... : ... .. . ... : ... .. . ...
ROW 4B : ... .. . ... ... ... ... : ... .. 1 ... ... ... ... : ... .. . ... : ... .. . ... : ... .. . ...
ROW 4C : ... .. . ... ... ... ... : ... .. 3 ... ... ... ... : ... .. . ... : ... .. . ... : ... .. . ...
ROW 4D : ... .. . ... ... ... ... : ... .. 3 ... ... ... ... : ... .. . ... : ... .. . ... : ... .. . ...
ROW 4E : ... .. . ... ... ... ... : ... .. 1 ... ... ... ... : ... .. . ... : ... .. . ... : ... .. . ...
ROW 4F : ... .. . ... ... ... ... : ... .. . ... ... ... ... : ... .. . ... : ... .. . ... : ... .. . ...
ROW 50 : ... .. . ... ... ... ... : ... .. . ... ... ... ... : ... .. . ... : ... .. . ... : ... .. . ...
ROW 51 : ... .. . ... ... ... ... : ... .. . ... ... ... ... : ... .. . ... : ... .. . ... : ... .. . ...
ROW 52 : ... .. . ... ... ... ... : ... .. . ... ... ... ... : ... .. . ... : ... .. . ... : ... .. . ...
ROW 53 : ... .. . ... ... ... ... : ... .. . ... ... ... ... : ... .. . ... : ... .. . ... : ... .. . ...
ROW 54 : ... .. . ... ... ... P81 : B-3 00 B ... ... ... ... : ... .. . P81 : E-# 00 3 ... : ... .. . ...
ROW 55 : ... .. . ... ... ... ... : ... .. 6 ... ... ... ... : ... .. . ... : ... .. 1 ... : ... .. . ...
ROW 56 : ... .. . ... ... ... ... : ... .. 3 ... ... ... ... : ... .. . ... : ... .. 0 ... : ... .. . ...
ROW 57 : ... .. . ... ... ... P80 : ... .. 2 ... ... ... ... : ... .. . P80 : ... .. . ... : ... .. . ...
ROW 58 : ... .. . ... ... ... ... : ... .. 1 ... ... ... ... : ... .. . ... : ... .. . ... : ... .. . ...
ROW 59 : ... .. . ... ... ... ... : ... .. . ... ... ... ... : ... .. . ... : ... .. . ... : ... .. . ...
ROW 5A : ... .. . ... ... ... P7F : ... .. . ... ... ... ... : ... .. . P7F : ... .. . ... : ... .. . ...
ROW 5B : ... .. . ... ... ... ... : ... .. . ... ... ... ... : ... .. . ... : ... .. . ... : ... .. . ...
ROW 5C : ... .. . ... ... ... ... : ... .. . ... ... ... ... : ... .. . ... : ... .. . ... : ... .. . ...
ROW 5D : ... .. . ... ... ... P80 : ... .. . ... ... ... ... : ... .. . P80 : ... .. . ... : ... .. . ...
ROW 5E : ... .. . ... ... ... ... : ... .. 2 ... ... ... ... : ... .. . ... : ... .. . ... : ... .. . ...
ROW 5F : ... .. . ... ... ... ... : ... .. 4 ... ... ... ... : ... .. . ... : ... .. . ... : ... .. . ...
ROW 60 : ... .. . ... ... ... P81 : ... .. 4 ... ... ... ... : ... .. . P81 : ... .. . ... : ... .. . ...
ROW 61 : ... .. . ... ... ... ... : ... .. 2 ... ... ... ... : ... .. . ... : ... .. . ... : ... .. . ...
ROW 62 : ... .. 3 ... ... ... ... : C-4 00 B ... ... ... ... : ... .. . ... : 2-# 00 3 ... : ... .. . ...
ROW 63 : ... .. . ... ... ... P80 : ... .. 6 ... ... ... ... : ... .. . P80 : ... .. . ... : ... .. . ...
ROW 64 : ... .. . ... ... ... ... : ... .. 3 ... ... ... ... : ... .. . ... : ... .. 2 ... : ... .. . ...
ROW 65 : ... .. . ... ... ... ... : ... .. 2 ... ... ... ... : ... .. . ... : ... .. . ... : ... .. . ...
ROW 66 : ... .. . ... ... ... P7F : ... .. 1 ... ... ... ... : ... .. . P7F : ... .. 1 ... : ... .. . ...
ROW 67 : ... .. . ... ... ... ... : ... .. . ... ... ... ... : ... .. . ... : ... .. . ... : ... .. . ...
ROW 68 : ... .. . ... ... ... ... : ... .. . ... ... ... ... : ... .. . ... : ... .. 0 ... : ... .. . ...
ROW 69 : ... .. . ... ... ... P80 : B-3 00 B ... ... ... ... : ... .. . P80 : ... .. . ... : ... .. . ...
ROW 6A : ... .. . ... ... ... ... : ... .. 6 ... ... ... ... : ... .. . ... : ... .. . ... : ... .. . ...
ROW 6B : ... .. . ... ... ... ... : ... .. 3 ... ... ... ... : ... .. . ... : ... .. . ... : ... .. . ...
ROW 6C : ... .. . ... ... ... P81 : ... .. 2 ... ... ... ... : ... .. . P81 : ... .. . ... : ... .. . ...
ROW 6D : ... .. . ... ... ... ... : ... .. 1 ... ... ... ... : ... .. . ... : ... .. . ... : ... .. . ...
ROW 6E : ... .. . ... ... ... ... : ... .. . ... ... ... ... : ... .. . ... : ... .. . ... : ... .. . ...
ROW 6F : ... .. . ... ... ... P80 : ... .. . ... ... ... ... : ... .. . P80 : ... .. . ... : ... .. . ...
ROW 70 : A-3 00 . V02 ... ... ... : C-4 00 B ... ... ... ... : D-4 00 . ... : 2-# 00 3 ... : ... .. . ...
ROW 71 : ... .. . ... ... ... ... : ... .. 6 ... ... ... ... : ... .. . ... : ... .. . ... : ... .. . ...
ROW 72 : ... .. . ... ... ... ... : ... .. 3 ... ... ... ... : ... .. . ... : ... .. 2 ... : ... .. . ...
ROW 73 : ... .. . ... ... ... ... : ... .. 2 ... ... ... ... : ... .. . ... : ... .. . ... : ... .. . ...
ROW 74 : ... .. . ... ... ... ... : ... .. 1 ... ... ... ... : ... .. . ... : ... .. 1 ... : ... .. . ...
ROW 75 : ... .. . ... ... ... ... : ... .. . ... ... ... ... : ... .. . ... : ... .. . ... : ... .. . ...
ROW 76 : ... .. . ... ... ... ... : ... .. . ... ... ... ... : ... .. . ... : ... .. 0 ... : ... .. . ...
ROW 77 : ... .. . ... ... ... ... : ... .. . ... ... ... ... : ... .. . ... : ... .. . ... : ... .. . ...
ROW 78 : ... .. . ... ... ... ... : ... .. . ... ... ... ... : ... .. . ... : ... .. . ... : ... .. . ...
ROW 79 : ... .. . ... ... ... ... : ... .. . ... ... ... ... : ... .. . ... : ... .. . ... : ... .. . ...
ROW 7A : ... .. . ... ... ... ... : ... .. 2 ... ... ... ... : ... .. . ... : ... .. . ... : ... .. . ...
ROW 7B : ... .. . ... ... ... ... : ... .. 4 ... ... ... ... : ... .. . ... : ... .. . ... : ... .. . ...
ROW 7C : ... .. . ... ... ... ... : ... .. 4 ... ... ... ... : ... .. . ... : ... .. . ... : ... .. . ...
ROW 7D : ... .. . ... ... ... ... : ... .. 2 ... ... ... ... : ... .. . ... : ... .. . ... : ... .. . ...
ROW 7E : ... .. . ... ... ... ... : ... .. 1 ... ... ... ... : ... .. . ... : E-# 00 3 ... : ... .. . ...
ROW 7F : ... .. . ... ... ... ... : ... .. . ... ... ... ... : ... .. . ... : ... .. 1 ... : ... .. . ...
ROW 80 : ... .. . ... ... ... ... : ... .. . ... ... ... ... : ... .. . ... : ... .. 0 ... : ... .. . ...
ROW 81 : ... .. . ... ... ... ... : ... .. . ... ... ... ... : ... .. . ... : ... .. . ... : ... .. . ...
ROW 82 : ... .. . ... ... ... ... : ... .. . ... ... ... ... : ... .. . ... : ... .. . ... : ... .. . ...
ROW 83 : ... .. . ... ... ... ... : ... .. 1 ... ... ... ... : ... .. . ... : ... .. . ... : ... .. . ...
ROW 84 : ... .. . ... ... ... ... : ... .. 3 ... ... ... ... : ... .. . ... : ... .. . ... : ... .. . ...
ROW 85 : ... .. 3 ... ... ... ... : ... .. 3 ... ... ... ... : ... .. . ... : ... .. . ... : ... .. . ...
ROW 86 : ... .. . ... ... ... ... : ... .. 1 ... ... ... ... : ... .. . ... : ... .. . ... : ... .. . ...
ROW 87 : ... .. 2 ... ... ... ... : ... .. . ... ... ... ... : ... .. . ... : ... .. . ... : ... .. . ...
ROW 88 : ... .. . ... ... ... ... : ... .. . ... ... ... ... : ... .. . ... : ... .. . ... : ... .. . ...
ROW 89 : ... .. 1 ... ... ... ... : ... .. . ... ... ... ... : ... .. . ... : ... .. . ... : ... .. . ...
ROW 8A : ... .. . ... ... ... ... : ... .. . ... ... ... ... : --- .. . ... : ... .. . ... : ... .. . ...
ROW 8B : ... .. . ... ... ... ... : ... .. . ... ... ... ... : ... .. . ... : ... .. . ... : ... .. . ...
ROW 8C : A-4 00 6 V01 ... ... ... : C-4 00 2 ... ... ... ... : D-4 00 . ... : E-# 00 3 ... : ... .. . ...
ROW 8D : ... .. . ... ... ... ... : ... .. 3 ... ... ... ... : ... .. . ... : ... .. 1 ... : ... .. . ...
ROW 8E : ... .. 5 ... ... ... ... : ... .. 4 ... ... ... ... : ... .. . ... : ... .. 0 ... : ... .. . ...
ROW 8F : ... .. . ... ... ... ... : ... .. . ... ... ... ... : ... .. . ... : ... .. . ... : ... .. . ...
ROW 90 : ... .. 4 ... ... ... ... : ... .. . ... ... ... ... : ... .. . ... : ... .. . ... : ... .. . ...
ROW 91 : ... .. . ... ... ... ... : ... .. . ... ... ... ... : ... .. . ... : ... .. . ... : ... .. . ...
ROW 92 : ... .. . ... ... ... ... : ... .. . ... ... ... ... : ... .. . ... : ... .. . ... : ... .. . ...
ROW 93 : ... .. . ... ... ... ... : ... .. . ... ... ... ... : ... .. . ... : ... .. . ... : ... .. . ...
ROW 94 : ... .. . ... ... ... ... : ... .. . ... ... ... ... : ... .. . ... : ... .. . ... : ... .. . ...
ROW 95 : ... .. . ... ... ... ... : ... .. . ... ... ... ... : ... .. . ... : ... .. . ... : ... .. . ...
ROW 96 : ... .. . ... ... ... ... : ... .. 3 ... ... ... ... : ... .. . ... : ... .. . ... : ... .. . ...
ROW 97 : ... .. . ... ... ... ... : ... .. . ... ... ... ... : --- .. . ... : ... .. . ... : ... .. . ...
ROW 98 : ... .. 2 ... ... ... ... : ... .. 1 ... ... ... ... : ... .. . ... : ... .. . ... : ... .. . ...
ROW 99 : ... .. . ... ... ... ... : ... .. . ... ... ... ... : ... .. . ... : ... .. . ... : ... .. . ...
ROW 9A : B-4 00 6 ... ... ... ... : D-4 00 2 ... ... ... ... : E-4 00 . ... : E-# 00 3 ... : ... .. . ...
ROW 9B : ... .. . ... ... ... ... : ... .. 3 ... ... ... ... : ... .. . ... : ... .. 1 ... : ... .. . ...
ROW 9C : ... .. 5 ... ... ... ... : ... .. 4 ... ... ... ... : ... .. . ... : ... .. 0 ... : ... .. . ...
ROW 9D : ... .. . ... ... ... ... : ... .. . ... ... ... ... : ... .. . ... : ... .. . ... : ... .. . ...
ROW 9E : ... .. 4 ... ... ... ... : ... .. . ... ... ... ... : ... .. . ... : ... .. . ... : ... .. . ...
ROW 9F : ... .. . ... ... ... ... : ... .. . ... ... ... ... : ... .. . ... : ... .. . ... : ... .. . ...
ROW A0 : ... .. . ... ... ... ... : ... .. . ... ... ... ... : ... .. . ... : ... .. . ... : ... .. . ...
ROW A1 : ... .. . ... ... ... ... : ... .. . ... ... ... ... : ... .. . ... : ... .. . ... : ... .. . ...
ROW A2 : ... .. . ... ... ... ... : ... .. . ... ... ... ... : ... .. . ... : ... .. . ... : ... .. . ...
ROW A3 : ... .. . ... ... ... ... : ... .. . ... ... ... ... : ... .. . ... : ... .. . ... : ... .. . ...
ROW A4 : ... .. . ... ... ... ... : ... .. 3 ... ... ... ... : ... .. . ... : ... .. . ... : ... .. . ...
ROW A5 : ... .. . ... ... ... ... : ... .. . ... ... ... ... : --- .. . ... : ... .. . ... : ... .. . ...
ROW A6 : A-4 00 2 ... ... ... ... : C-4 00 1 ... ... ... ... : ... .. . ... : ... .. . ... : ... .. . ...
ROW A7 : ... .. . ... ... ... ... : ... .. . ... ... ... ... : ... .. . ... : ... .. . ... : ... .. . ...
ROW A8 : C-5 00 6 ... ... ... ... : F-4 00 2 ... ... ... ... : G-3 00 . ... : E-# 00 3 ... : ... .. . ...
ROW A9 : ... .. . ... ... ... ... : ... .. 3 ... ... ... ... : ... .. . ... : ... .. 1 ... : ... .. . ...
ROW AA : ... .. 5 ... ... ... ... : ... .. 4 ... ... ... ... : ... .. . ... : ... .. 0 ... : ... .. . ...
ROW AB : ... .. . ... ... ... ... : ... .. . ... ... ... ... : ... .. . ... : ... .. . ... : ... .. . ...
ROW AC : ... .. 4 ... ... ... ... : ... .. . ... ... ... ... : ... .. . ... : ... .. . ... : ... .. . ...
ROW AD : D-5 00 6 ... ... ... ... : ... .. . ... ... ... ... : ... .. . ... : ... .. . ... : ... .. . ...
ROW AE : ... .. . ... ... ... ... : ... .. . ... ... ... ... : ... .. . ... : ... .. . ... : ... .. . ...
ROW AF : ... .. 5 ... ... ... ... : ... .. . ... ... ... ... : ... .. . ... : ... .. . ... : ... .. . ...
ROW B0 : ... .. . ... ... ... ... : ... .. . ... ... ... ... : ... .. . ... : ... .. . ... : ... .. . ...
ROW B1 : ... .. 4 ... ... ... ... : ... .. . ... ... ... ... : ... .. . ... : ... .. . ... : ... .. . ...
ROW B2 : ... .. . ... ... ... ... : ... .. . ... ... ... ... : ... .. . ... : ... .. . ... : ... .. . ...
ROW B3 : ... .. . ... ... ... ... : ... .. . ... ... ... ... : ... .. . ... : ... .. . ... : ... .. . ...
ROW B4 : ... .. . ... ... ... ... : ... .. . ... ... ... ... : ... .. . ... : ... .. . ... : ... .. . ...
ROW B5 : ... .. . ... ... ... ... : ... .. . ... ... ... ... : ... .. . ... : ... .. . ... : ... .. . ...
ROW B6 : ... .. . ... ... ... ... : ... .. . ... ... ... ... : ... .. . P81 : E-# 00 3 ... : ... .. . ...
ROW B7 : ... .. . ... ... ... ... : ... .. . ... ... ... ... : ... .. . ... : ... .. 1 ... : ... .. . ...
ROW B8 : ... .. . ... ... ... ... : ... .. . ... ... ... ... : ... .. . ... : ... .. 0 ... : ... .. . ...
ROW B9 : ... .. . ... ... ... ... : ... .. . ... ... ... ... : ... .. . P80 : ... .. . ... : ... .. . ...
ROW BA : ... .. . ... ... ... ... : ... .. . ... ... ... ... : ... .. . ... : ... .. . ... : ... .. . ...
ROW BB : ... .. . ... ... ... ... : ... .. . ... ... ... ... : ... .. . ... : ... .. . ... : ... .. . ...
ROW BC : ... .. . ... ... ... ... : ... .. . ... ... ... ... : ... .. . P7F : ... .. . ... : ... .. . ...
ROW BD : ... .. . ... ... ... ... : ... .. . ... ... ... ... : ... .. . ... : ... .. . ... : ... .. . ...
ROW BE : ... .. . ... ... ... ... : ... .. . ... ... ... ... : ... .. . ... : ... .. . ... : ... .. . ...
ROW BF : ... .. . ... ... ... ... : ... .. . ... ... ... ... : ... .. . P80 : ... .. . ... : ... .. . ...
ROW C0 : ... .. . ... ... ... ... : ... .. . ... ... ... ... : ... .. . ... : ... .. . ... : ... .. . ...
ROW C1 : ... .. . ... ... ... ... : ... .. . ... ... ... ... : ... .. . ... : ... .. . ... : ... .. . ...
ROW C2 : ... .. . ... ... ... ... : ... .. . ... ... ... ... : ... .. . P81 : ... .. . ... : ... .. . ...
ROW C3 : ... .. . ... ... ... ... : ... .. . ... ... ... ... : ... .. . ... : ... .. . ... : ... .. . ...
ROW C4 : ... .. . ... ... ... ... : ... .. . ... ... ... ... : ... .. . ... : E-# 00 3 ... : ... .. . ...
ROW C5 : ... .. . ... ... ... ... : ... .. . ... ... ... ... : ... .. . P80 : ... .. 1 ... : ... .. . ...
ROW C6 : ... .. . ... ... ... ... : ... .. . ... ... ... ... : ... .. . ... : ... .. 0 ... : ... .. . ...
ROW C7 : ... .. . ... ... ... P81 : ... .. . ... ... ... P81 : ... .. . ... : ... .. . ... : ... .. . ...
ROW C8 : ... .. . ... ... ... ... : ... .. . ... ... ... ... : ... .. . P7F : ... .. . ... : ... .. . ...
ROW C9 : ... .. . ... ... ... ... : ... .. . ... ... ... ... : ... .. . ... : ... .. . ... : ... .. . ...
ROW CA : ... .. . ... ... ... P80 : ... .. . ... ... ... P80 : ... .. . ... : ... .. . ... : ... .. . ...
ROW CB : ... .. 3 ... ... ... ... : ... .. . ... ... ... ... : ... .. . P80 : ... .. . ... : ... .. . ...
ROW CC : ... .. . ... ... ... ... : ... .. . ... ... ... ... : ... .. . ... : ... .. . ... : ... .. . ...
ROW CD : ... .. 2 ... ... ... P7F : ... .. . ... ... ... P7F : ... .. . ... : ... .. . ... : ... .. . ...
ROW CE : ... .. . ... ... ... ... : ... .. . ... ... ... ... : ... .. . P81 : ... .. . ... : ... .. . ...
ROW CF : ... .. 1 ... ... ... ... : ... .. . ... ... ... ... : ... .. . ... : ... .. . ... : ... .. . ...
ROW D0 : ... .. . ... ... ... P80 : ... .. . ... ... ... P80 : --- .. . ... : ... .. . ... : ... .. . ...
ROW D1 : ... .. . ... ... ... ... : ... .. . ... ... ... ... : ... .. . P80 : ... .. . ... : ... .. . ...
ROW D2 : C-5 00 6 ... ... ... ... : ... .. . ... ... ... ... : G-3 00 . ... : 2-# 00 3 ... : ... .. . ...
ROW D3 : ... .. . ... ... ... ... : ... .. . ... ... ... P81 : ... .. . ... : ... .. . ... : ... .. . ...
ROW D4 : ... .. 5 ... ... ... ... : ... .. . ... ... ... ... : ... .. . ... : ... .. 2 ... : ... .. . ...
ROW D5 : ... .. . ... ... ... ... : ... .. . ... ... ... ... : ... .. . ... : ... .. . ... : ... .. . ...
ROW D6 : ... .. 4 ... ... ... ... : ... .. . ... ... ... P80 : ... .. . ... : ... .. 1 ... : ... .. . ...
ROW D7 : ... .. . ... ... ... ... : ... .. . ... ... ... ... : ... .. . ... : ... .. . ... : ... .. . ...
ROW D8 : ... .. . ... ... ... ... : ... .. . ... ... ... ... : ... .. . ... : ... .. 0 ... : ... .. . ...
ROW D9 : ... .. . ... ... ... ... : ... .. . ... ... ... P7F : ... .. . ... : ... .. . ... : ... .. . ...
ROW DA : ... .. . ... ... ... ... : ... .. . ... ... ... ... : ... .. . ... : ... .. . ... : ... .. . ...
ROW DB : ... .. . ... ... ... ... : ... .. . ... ... ... ... : ... .. . ... : ... .. . ... : ... .. . ...
ROW DC : ... .. . ... ... ... ... : ... .. . ... ... ... P80 : ... .. . ... : ... .. . ... : ... .. . ...
ROW DD : ... .. . ... ... ... ... : ... .. . ... ... ... ... : ... .. . ... : ... .. . ... : ... .. . ...
ROW DE : D-5 00 2 ... ... ... ... : ... .. . ... ... ... ... : --- .. . ... : ... .. . ... : ... .. . ...
ROW DF : ... .. . ... ... ... V00 : ... .. . ... ... ... P81 : ... .. . ... : ... .. . ... : ... .. . ...

PATTERN 1E
ROW 00 : B-4 00 6 V01 ... ... ... : D-4 00 B V02 ... ... ... : E-4 00 . ... : 2-# 00 3 ... : ... .. . ...
ROW 01 : ... .. . ... ... ... ... : ... .. 6 ... ... ... ... : ... .. . ... : ... .. . ... : ... .. . ...
ROW 02 : ... .. 5 ... ... ... ... : ... .. 3 ... ... ... ... : ... .. . ... : ... .. 2 ... : ... .. . ...
ROW 03 : ... .. . ... ... ... ... : ... .. 2 ... ... ... ... : ... .. . ... : ... .. . ... : ... .. . ...
ROW 04 : ... .. 4 ... ... ... ... : ... .. 1 ... ... ... ... : ... .. . ... : ... .. 1 ... : ... .. . ...
ROW 05 : ... .. . ... ... ... ... : ... .. . ... ... ... ... : ... .. . ... : ... .. . ... : ... .. . ...
ROW 06 : ... .. . ... ... ... ... : ... .. . ... ... ... ... : ... .. . ... : ... .. 0 ... : ... .. . ...
ROW 07 : ... .. . ... ... ... ... : ... .. . ... ... ... ... : ... .. . ... : ... .. . ... : ... .. . ...
ROW 08 : ... .. . ... ... ... ... : ... .. . ... ... ... ... : ... .. . ... : ... .. . ... : ... .. . ...
ROW 09 : ... .. . ... ... ... ... : ... .. . ... ... ... ... : ... .. . ... : ... .. . ... : ... .. . ...
ROW 0A : ... .. . ... ... ... ... : ... .. 2 ... ... ... ... : ... .. . ... : ... .. . ... : ... .. . ...
ROW 0B : ... .. . ... ... ... ... : ... .. 4 ... ... ... ... : ... .. . ... : ... .. . ... : ... .. . ...
ROW 0C : ... .. . ... ... ... ... : ... .. 4 ... ... ... ... : ... .. . ... : ... .. . ... : ... .. . ...
ROW 0D : ... .. . ... ... ... ... : ... .. 2 ... ... ... ... : ... .. . ... : ... .. . ... : ... .. . ...
ROW 0E : ... .. . ... ... ... ... : ... .. 1 ... ... ... ... : ... .. . ... : ... .. . ... : ... .. . ...
ROW 0F : ... .. . ... ... ... ... : ... .. . ... ... ... ... : ... .. . ... : ... .. . ... : ... .. . ...
ROW 10 : ... .. . ... ... ... ... : ... .. . ... ... ... ... : ... .. . ... : ... .. . ... : ... .. . ...
ROW 11 : ... .. . ... ... ... ... : ... .. . ... ... ... ... : ... .. . ... : ... .. . ... : ... .. . ...
ROW 12 : ... .. . ... ... ... ... : ... .. . ... ... ... ... : ... .. . ... : ... .. . ... : ... .. . ...
ROW 13 : ... .. . ... ... ... ... : ... .. 1 ... ... ... ... : ... .. . ... : ... .. . ... : ... .. . ...
ROW 14 : ... .. . ... ... ... ... : ... .. 3 ... ... ... ... : ... .. . ... : ... .. . ... : ... .. . ...
ROW 15 : ... .. . ... ... ... ... : ... .. 3 ... ... ... ... : ... .. . ... : ... .. . ... : ... .. . ...
ROW 16 : ... .. . ... ... ... ... : ... .. 1 ... ... ... ... : ... .. . ... : ... .. . ... : ... .. . ...
ROW 17 : ... .. . ... ... ... ... : ... .. . ... ... ... ... : ... .. . ... : ... .. . ... : ... .. . ...
ROW 18 : ... .. . ... ... ... ... : ... .. . ... ... ... ... : ... .. . ... : ... .. . ... : ... .. . ...
ROW 19 : ... .. . ... ... ... ... : ... .. . ... ... ... ... : ... .. . ... : ... .. . ... : ... .. . ...
ROW 1A : ... .. . ... ... ... ... : ... .. . ... ... ... ... : ... .. . ... : ... .. . ... : ... .. . ...
ROW 1B : ... .. . ... ... ... ... : ... .. . ... ... ... ... : ... .. . ... : ... .. . ... : ... .. . ...
ROW 1C : ... .. . ... ... ... ... : B-3 00 B ... ... ... ... : F#4 00 . ... : ... .. . ... : ... .. . ...
ROW 1D : ... .. . ... ... ... ... : ... .. 6 ... ... ... ... : ... .. . ... : ... .. . ... : ... .. . ...
ROW 1E : ... .. . ... ... ... ... : ... .. 3 ... ... ... ... : ... .. . ... : ... .. . ... : ... .. . ...
ROW 1F : ... .. . ... ... ... ... : ... .. 2 ... ... ... ... : ... .. . ... : ... .. . ... : ... .. . ...
ROW 20 : ... .. . ... ... ... ... : ... .. 1 ... ... ... ... : ... .. . ... : ... .. . ... : ... .. . ...
ROW 21 : ... .. . ... ... ... P81 : ... .. . ... ... ... ... : ... .. . ... : ... .. . ... : ... .. . ...
ROW 22 : ... .. . ... ... ... ... : ... .. . ... ... ... ... : ... .. . ... : ... .. . ... : ... .. . ...
ROW 23 : ... .. 3 ... ... ... ... : ... .. . ... ... ... ... : ... .. . ... : ... .. . ... : ... .. . ...
ROW 24 : ... .. . ... ... ... P80 : ... .. . ... ... ... ... : ... .. . ... : ... .. . ... : ... .. . ...
ROW 25 : ... .. 2 ... ... ... ... : ... .. . ... ... ... ... : ... .. . ... : ... .. . ... : ... .. . ...
ROW 26 : ... .. . ... ... ... ... : ... .. 2 ... ... ... ... : ... .. . ... : ... .. . ... : ... .. . ...
ROW 27 : ... .. 1 ... ... ... P7F : ... .. 4 ... ... ... ... : ... .. . ... : ... .. . ... : ... .. . ...
ROW 28 : ... .. . ... ... ... ... : ... .. 4 ... ... ... ... : ... .. . ... : ... .. . ... : ... .. . ...
ROW 29 : ... .. . ... ... ... ... : ... .. 2 ... ... ... ... : ... .. . ... : ... .. . ... : ... .. . ...
ROW 2A : G-4 00 6 ... ... ... P80 : ... .. 1 ... ... ... ... : ... .. . ... : 2-# 00 3 ... : ... .. . ...
ROW 2B : ... .. . ... ... ... ... : ... .. . ... ... ... ... : ... .. . ... : ... .. . ... : ... .. . ...
ROW 2C : ... .. 5 ... ... ... ... : ... .. . ... ... ... ... : ... .. . ... : ... .. 2 ... : ... .. . ...
ROW 2D : ... .. . ... ... ... ... : ... .. . ... ... ... ... : ... .. . ... : ... .. . ... : ... .. . ...
ROW 2E : ... .. 4 ... ... ... ... : ... .. . ... ... ... ... : ... .. . ... : ... .. 1 ... : ... .. . ...
ROW 2F : ... .. . ... ... ... ... : ... .. 1 ... ... ... ... : ... .. . ... : ... .. . ... : ... .. . ...
ROW 30 : ... .. . ... ... ... ... : ... .. 3 ... ... ... ... : ... .. . ... : ... .. 0 ... : ... .. . ...
ROW 31 : ... .. . ... ... ... ... : ... .. 3 ... ... ... ... : ... .. . ... : ... .. . ... : ... .. . ...
ROW 32 : ... .. . ... ... ... ... : ... .. 1 ... ... ... ... : ... .. . ... : ... .. . ... : ... .. . ...
ROW 33 : ... .. . ... ... ... ... : ... .. . ... ... ... ... : ... .. . ... : ... .. . ... : ... .. . ...
ROW 34 : ... .. . ... ... ... ... : ... .. . ... ... ... ... : ... .. . ... : ... .. . ... : ... .. . ...
ROW 35 : ... .. . ... ... ... ... : ... .. . ... ... ... ... : ... .. . ... : ... .. . ... : ... .. . ...
ROW 36 : ... .. . ... ... ... ... : ... .. . ... ... ... ... : ... .. . ... : ... .. . ... : ... .. . ...
ROW 37 : ... .. . ... ... ... ... : ... .. . ... ... ... ... : ... .. . ... : ... .. . ... : ... .. . ...
ROW 38 : ... .. . ... ... ... ... : E-4 00 B ... ... ... ... : G-4 00 . ... : 2-# 00 3 ... : ... .. . ...
ROW 39 : ... .. . ... ... ... ... : ... .. 6 ... ... ... ... : ... .. . ... : ... .. . ... : ... .. . ...
ROW 3A : ... .. . ... ... ... ... : ... .. 3 ... ... ... ... : ... .. . ... : ... .. 2 ... : ... .. . ...
ROW 3B : ... .. . ... ... ... ... : ... .. 2 ... ... ... ... : ... .. . ... : ... .. . ... : ... .. . ...
ROW 3C : ... .. . ... ... ... ... : ... .. 1 ... ... ... ... : ... .. . ... : ... .. 1 ... : ... .. . ...
ROW 3D : ... .. . ... ... ... ... : ... .. . ... ... ... ... : ... .. . ... : ... .. . ... : ... .. . ...
ROW 3E : ... .. . ... ... ... ... : ... .. . ... ... ... ... : ... .. . ... : ... .. 0 ... : ... .. . ...
ROW 3F : ... .. . ... ... ... ... : ... .. . ... ... ... ... : ... .. . ... : ... .. . ... : ... .. . ...
ROW 40 : ... .. . ... ... ... ... : ... .. . ... ... ... ... : ... .. . ... : ... .. . ... : ... .. . ...
ROW 41 : ... .. . ... ... ... ... : ... .. . ... ... ... ... : ... .. . ... : ... .. . ... : ... .. . ...
ROW 42 : ... .. . ... ... ... ... : ... .. 2 ... ... ... ... : ... .. . ... : ... .. . ... : ... .. . ...
ROW 43 : ... .. . ... ... ... ... : ... .. 4 ... ... ... ... : ... .. . ... : ... .. . ... : ... .. . ...
ROW 44 : ... .. . ... ... ... ... : ... .. 4 ... ... ... ... : ... .. . ... : ... .. . ... : ... .. . ...
ROW 45 : ... .. . ... ... ... ... : ... .. 2 ... ... ... ... : ... .. . ... : ... .. . ... : ... .. . ...
ROW 46 : ... .. . ... ... ... ... : ... .. 1 ... ... ... ... : ... .. . ... : ... .. . ... : ... .. . ...
ROW 47 : ... .. . ... ... ... ... : ... .. . ... ... ... ... : ... .. . ... : ... .. . ... : ... .. . ...
ROW 48 : ... .. . ... ... ... ... : ... .. . ... ... ... ... : ... .. . ... : ... .. . ... : ... .. . ...
ROW 49 : ... .. . ... ... ... ... : ... .. . ... ... ... ... : ... .. . ... : ... .. . ... : ... .. . ...
ROW 4A : ... .. . ... ... ... ... : ... .. . ... ... ... ... : ... .. . ... : ... .. . ... : ... .. . ...
ROW 4B : ... .. . ... ... ... ... : ... .. 1 ... ... ... ... : ... .. . ... : ... .. . ... : ... .. . ...
ROW 4C : ... .. . ... ... ... ... : ... .. 3 ... ... ... ... : ... .. . ... : ... .. . ... : ... .. . ...
ROW 4D : ... .. . ... ... ... ... : ... .. 3 ... ... ... ... : ... .. . ... : ... .. . ... : ... .. . ...
ROW 4E : ... .. . ... ... ... ... : ... .. 1 ... ... ... ... : ... .. . ... : ... .. . ... : ... .. . ...
ROW 4F : ... .. . ... ... ... ... : ... .. . ... ... ... ... : ... .. . ... : ... .. . ... : ... .. . ...
ROW 50 : ... .. . ... ... ... ... : ... .. . ... ... ... ... : ... .. . ... : ... .. . ... : ... .. . ...
ROW 51 : ... .. . ... ... ... ... : ... .. . ... ... ... ... : ... .. . ... : ... .. . ... : ... .. . ...
ROW 52 : ... .. . ... ... ... ... : ... .. . ... ... ... ... : ... .. . ... : ... .. . ... : ... .. . ...
ROW 53 : ... .. . ... ... ... ... : ... .. . ... ... ... ... : ... .. . ... : ... .. . ... : ... .. . ...
ROW 54 : ... .. . ... ... ... ... : D-4 00 B ... ... ... ... : A-4 00 . ... : ... .. . ... : ... .. . ...
ROW 55 : ... .. . ... ... ... ... : ... .. 6 ... ... ... ... : ... .. . ... : ... .. . ... : ... .. . ...
ROW 56 : ... .. . ... ... ... ... : ... .. 3 ... ... ... ... : B-4 00 . ... : ... .. . ... : ... .. . ...
ROW 57 : ... .. . ... ... ... ... : ... .. 2 ... ... ... ... : ... .. . ... : ... .. . ... : ... .. . ...
ROW 58 : ... .. . ... ... ... ... : ... .. 1 ... ... ... ... : ... .. . ... : ... .. . ... : ... .. . ...
ROW 59 : ... .. . ... ... ... ... : ... .. . ... ... ... ... : ... .. . ... : ... .. . ... : ... .. . ...
ROW 5A : ... .. . ... ... ... ... : ... .. . ... ... ... ... : ... .. . ... : ... .. . ... : ... .. . ...
ROW 5B : ... .. . ... ... ... ... : ... .. . ... ... ... ... : ... .. . ... : ... .. . ... : ... .. . ...
ROW 5C : ... .. . ... ... ... ... : ... .. . ... ... ... ... : ... .. . ... : ... .. . ... : ... .. . ...
ROW 5D : ... .. . ... ... ... ... : ... .. . ... ... ... ... : ... .. . ... : ... .. . ... : ... .. . ...
ROW 5E : ... .. . ... ... ... ... : ... .. 2 ... ... ... ... : ... .. . ... : ... .. . ... : ... .. . ...
ROW 5F : ... .. . ... ... ... ... : ... .. 4 ... ... ... ... : ... .. . ... : ... .. . ... : ... .. . ...
ROW 60 : ... .. . ... ... ... ... : ... .. 4 ... ... ... ... : ... .. . ... : ... .. . ... : ... .. . ...
ROW 61 : ... .. . ... ... ... ... : ... .. 2 ... ... ... ... : ... .. . ... : ... .. . ... : ... .. . ...
ROW 62 : ... .. . ... ... ... ... : ... .. 1 ... ... ... ... : ... .. . ... : 2-# 00 3 ... : ... .. . ...
ROW 63 : ... .. . ... ... ... ... : ... .. . ... ... ... ... : ... .. . ... : ... .. . ... : ... .. . ...
ROW 64 : ... .. . ... ... ... ... : ... .. . ... ... ... ... : ... .. . ... : ... .. 2 ... : ... .. . ...
ROW 65 : ... .. . ... ... ... ... : ... .. . ... ... ... ... : ... .. . ... : ... .. . ... : ... .. . ...
ROW 66 : ... .. . ... ... ... ... : ... .. . ... ... ... ... : ... .. . ... : ... .. 1 ... : ... .. . ...
ROW 67 : ... .. . ... ... ... ... : ... .. 1 ... ... ... ... : ... .. . ... : ... .. . ... : ... .. . ...
ROW 68 : ... .. . ... ... ... ... : ... .. 3 ... ... ... ... : ... .. . ... : ... .. 0 ... : ... .. . ...
ROW 69 : ... .. . ... ... ... ... : ... .. 3 ... ... ... ... : ... .. . ... : ... .. . ... : ... .. . ...
ROW 6A : ... .. . ... ... ... ... : ... .. 1 ... ... ... ... : ... .. . ... : ... .. . ... : ... .. . ...
ROW 6B : ... .. . ... ... ... ... : ... .. . ... ... ... ... : ... .. . ... : ... .. . ... : ... .. . ...
ROW 6C : ... .. . ... ... ... ... : ... .. . ... ... ... ... : ... .. . ... : ... .. . ... : ... .. . ...
ROW 6D : ... .. . ... ... ... ... : ... .. . ... ... ... ... : ... .. . ... : ... .. . ... : ... .. . ...
ROW 6E : ... .. . ... ... ... ... : ... .. . ... ... ... ... : ... .. . ... : ... .. . ... : ... .. . ...
ROW 6F : ... .. . ... ... ... ... : ... .. . ... ... ... ... : ... .. . ... : ... .. . ... : ... .. . ...
ROW 70 : ... .. . ... ... ... P81 : C#4 00 B ... ... ... ... : A-4 00 . ... : 2-# 00 3 ... : ... .. . ...
ROW 71 : ... .. . ... ... ... ... : ... .. 6 ... ... ... ... : ... .. . ... : ... .. . ... : ... .. . ...
ROW 72 : ... .. . ... ... ... ... : ... .. 3 ... ... ... ... : ... .. . ... : ... .. 2 ... : ... .. . ...
ROW 73 : ... .. . ... ... ... P80 : ... .. 2 ... ... ... ... : ... .. . ... : ... .. . ... : ... .. . ...
ROW 74 : ... .. . ... ... ... ... : ... .. 1 ... ... ... ... : ... .. . ... : ... .. 1 ... : ... .. . ...
ROW 75 : ... .. . ... ... ... ... : ... .. . ... ... ... ... : ... .. . ... : ... .. . ... : ... .. . ...
ROW 76 : ... .. . ... ... ... P7F : ... .. . ... ... ... ... : ... .. . ... : ... .. 0 ... : ... .. . ...
ROW 77 : ... .. . ... ... ... ... : ... .. . ... ... ... ... : ... .. . ... : ... .. . ... : ... .. . ...
ROW 78 : ... .. . ... ... ... ... : ... .. . ... ... ... ... : ... .. . ... : ... .. . ... : ... .. . ...
ROW 79 : ... .. . ... ... ... P80 : ... .. . ... ... ... ... : ... .. . ... : ... .. . ... : ... .. . ...
ROW 7A : ... .. . ... ... ... ... : ... .. 2 ... ... ... ... : ... .. . ... : ... .. . ... : ... .. . ...
ROW 7B : ... .. . ... ... ... ... : ... .. 4 ... ... ... ... : ... .. . ... : ... .. . ... : ... .. . ...
ROW 7C : ... .. . ... ... ... P81 : ... .. 4 ... ... ... ... : ... .. . ... : ... .. . ... : ... .. . ...
ROW 7D : ... .. . ... ... ... ... : ... .. 2 ... ... ... ... : ... .. . ... : ... .. . ... : ... .. . ...
ROW 7E : ... .. 3 ... ... ... ... : ... .. 1 ... ... ... ... : ... .. . ... : ... .. . ... : ... .. . ...
ROW 7F : ... .. . ... ... ... P80 : ... .. . ... ... ... ... : ... .. . ... : ... .. . ... : ... .. . ...
ROW 80 : ... .. . ... ... ... ... : ... .. . ... ... ... ... : ... .. . ... : ... .. . ... : ... .. . ...
ROW 81 : ... .. . ... ... ... ... : ... .. . ... ... ... ... : ... .. . ... : ... .. . ... : ... .. . ...
ROW 82 : ... .. 2 ... ... ... P7F : ... .. . ... ... ... ... : ... .. . ... : ... .. . ... : ... .. . ...
ROW 83 : ... .. . ... ... ... ... : ... .. 1 ... ... ... ... : ... .. . ... : ... .. . ... : ... .. . ...
ROW 84 : ... .. . ... ... ... ... : ... .. 3 ... ... ... ... : ... .. . ... : ... .. . ... : ... .. . ...
ROW 85 : ... .. . ... ... ... P80 : ... .. 3 ... ... ... ... : ... .. . ... : ... .. . ... : ... .. . ...
ROW 86 : ... .. 1 ... ... ... ... : ... .. 1 ... ... ... ... : ... .. . ... : ... .. . ... : ... .. . ...
ROW 87 : ... .. . ... ... ... ... : ... .. . ... ... ... ... : ... .. . ... : ... .. . ... : ... .. . ...
ROW 88 : ... .. . ... ... ... P81 : ... .. . ... ... ... ... : ... .. . ... : ... .. . ... : ... .. . ...
ROW 89 : ... .. . ... ... ... ... : ... .. . ... ... ... ... : ... .. . ... : ... .. . ... : ... .. . ...
ROW 8A : ... .. . ... ... ... ... : ... .. . ... ... ... ... : ... .. . ... : ... .. . ... : ... .. . ...
ROW 8B : ... .. . ... ... ... P80 : ... .. . ... ... ... ... : ... .. . ... : ... .. . ... : ... .. . ...
ROW 8C : G-4 00 6 ... ... ... ... : ... .. 1 ... ... ... ... : ... .. . P81 : ... .. . ... : ... .. . ...
ROW 8D : ... .. . ... ... ... ... : ... .. 2 ... ... ... ... : ... .. . ... : ... .. . ... : ... .. . ...
ROW 8E : ... .. 5 ... ... ... ... : ... .. 2 ... ... ... ... : ... .. . ... : ... .. . ... : ... .. . ...
ROW 8F : ... .. . ... ... ... ... : ... .. 1 ... ... ... ... : ... .. . P80 : ... .. . ... : ... .. . ...
ROW 90 : ... .. 4 ... ... ... ... : ... .. . ... ... ... ... : ... .. . ... : ... .. . ... : ... .. . ...
ROW 91 : ... .. . ... ... ... ... : ... .. . ... ... ... ... : ... .. . ... : ... .. . ... : ... .. . ...
ROW 92 : ... .. . ... ... ... ... : ... .. . ... ... ... ... : ... .. . P7F : ... .. . ... : ... .. . ...
ROW 93 : ... .. . ... ... ... ... : ... .. . ... ... ... ... : ... .. . ... : ... .. . ... : ... .. . ...
ROW 94 : ... .. . ... ... ... ... : ... .. . ... ... ... ... : ... .. . ... : ... .. . ... : ... .. . ...
ROW 95 : ... .. . ... ... ... ... : ... .. . ... ... ... ... : ... .. . P80 : ... .. . ... : ... .. . ...
ROW 96 : ... .. . ... ... ... ... : ... .. 1 ... ... ... ... : ... .. . ... : ... .. . ... : ... .. . ...
ROW 97 : ... .. . ... ... ... ... : ... .. 2 ... ... ... ... : ... .. . ... : ... .. . ... : ... .. . ...
ROW 98 : ... .. 2 ... ... ... ... : ... .. 2 ... ... ... ... : ... .. . P81 : ... .. . ... : ... .. . ...
ROW 99 : ... .. . ... ... ... ... : ... .. 1 ... ... ... ... : ... .. . ... : ... .. . ... : ... .. . ...
ROW 9A : A-4 00 6 ... ... ... ... : ... .. . ... ... ... ... : ... .. . ... : 2-# 00 3 ... : ... .. . ...
ROW 9B : ... .. . ... ... ... ... : ... .. . ... ... ... ... : ... .. . P80 : ... .. . ... : ... .. . ...
ROW 9C : ... .. 5 ... ... ... ... : ... .. . ... ... ... ... : ... .. . ... : ... .. 2 ... : ... .. . ...
ROW 9D : ... .. . ... ... ... ... : ... .. . ... ... ... ... : ... .. . ... : ... .. . ... : ... .. . ...
ROW 9E : ... .. 4 ... ... ... ... : ... .. . ... ... ... ... : ... .. . P7F : ... .. 1 ... : ... .. . ...
ROW 9F : ... .. . ... ... ... ... : ... .. 1 ... ... ... ... : ... .. . ... : ... .. . ... : ... .. . ...
ROW A0 : ... .. . ... ... ... ... : ... .. 2 ... ... ... ... : ... .. . ... : ... .. 0 ... : ... .. . ...
ROW A1 : ... .. . ... ... ... ... : ... .. 2 ... ... ... ... : ... .. . P80 : ... .. . ... : ... .. . ...
ROW A2 : ... .. . ... ... ... ... : ... .. 1 ... ... ... ... : ... .. . ... : ... .. . ... : ... .. . ...
ROW A3 : ... .. . ... ... ... ... : ... .. . ... ... ... ... : ... .. . ... : ... .. . ... : ... .. . ...
ROW A4 : ... .. . ... ... ... ... : ... .. . ... ... ... ... : ... .. . P81 : ... .. . ... : ... .. . ...
ROW A5 : ... .. . ... ... ... ... : ... .. . ... ... ... ... : ... .. . ... : ... .. . ... : ... .. . ...
ROW A6 : G-4 00 2 ... ... ... ... : ... .. . ... ... ... ... : ... .. . ... : ... .. . ... : ... .. . ...
ROW A7 : ... .. . ... ... ... ... : ... .. . ... ... ... ... : --- .. . P80 : ... .. . ... : ... .. . ...
ROW A8 : A-4 00 6 ... ... ... ... : C#4 00 B ... ... ... ... : A-3 00 . ... : 2-# 00 3 ... : ... .. . ...
ROW A9 : ... .. . ... ... ... ... : ... .. 6 ... ... ... ... : ... .. . ... : ... .. . ... : ... .. . ...
ROW AA : ... .. . ... ... ... ... : ... .. 3 ... ... ... ... : ... .. . ... : ... .. 2 ... : ... .. . ...
ROW AB : ... .. . ... ... ... ... : ... .. 2 ... ... ... ... : ... .. . ... : ... .. . ... : ... .. . ...
ROW AC : B-4 00 6 ... ... ... ... : ... .. 1 ... ... ... ... : ... .. . ... : ... .. 1 ... : ... .. . ...
ROW AD : ... .. . ... ... ... ... : ... .. . ... ... ... ... : ... .. . ... : ... .. . ... : ... .. . ...
ROW AE : ... .. 5 ... ... ... ... : ... .. . ... ... ... ... : ... .. . ... : ... .. 0 ... : ... .. . ...
ROW AF : ... .. . ... ... ... ... : ... .. . ... ... ... ... : ... .. . ... : ... .. . ... : ... .. . ...
ROW B0 : ... .. 4 ... ... ... ... : ... .. . ... ... ... ... : ... .. . ... : ... .. . ... : ... .. . ...
ROW B1 : ... .. . ... ... ... ... : ... .. . ... ... ... ... : ... .. . ... : ... .. . ... : ... .. . ...
ROW B2 : ... .. . ... ... ... ... : ... .. 2 ... ... ... ... : ... .. . ... : ... .. . ... : ... .. . ...
ROW B3 : ... .. . ... ... ... ... : ... .. 4 ... ... ... ... : ... .. . ... : ... .. . ... : ... .. . ...
ROW B4 : ... .. . ... ... ... ... : ... .. 4 ... ... ... ... : ... .. . ... : ... .. . ... : ... .. . ...
ROW B5 : ... .. . ... ... ... ... : ... .. 2 ... ... ... ... : ... .. . ... : ... .. . ... : ... .. . ...
ROW B6 : ... .. . ... ... ... ... : ... .. 1 ... ... ... ... : ... .. . P81 : ... .. . ... : ... .. . ...
ROW B7 : ... .. . ... ... ... ... : ... .. . ... ... ... ... : ... .. . ... : ... .. . ... : ... .. . ...
ROW B8 : ... .. . ... ... ... ... : ... .. . ... ... ... ... : ... .. . ... : ... .. . ... : ... .. . ...
ROW B9 : ... .. . ... ... ... ... : ... .. . ... ... ... ... : ... .. . P80 : ... .. . ... : ... .. . ...
ROW BA : ... .. . ... ... ... ... : ... .. . ... ... ... ... : ... .. . ... : ... .. . ... : ... .. . ...
ROW BB : ... .. . ... ... ... ... : ... .. 1 ... ... ... ... : ... .. . ... : ... .. . ... : ... .. . ...
ROW BC : ... .. . ... ... ... ... : ... .. 3 ... ... ... ... : ... .. . P7F : ... .. . ... : ... .. . ...
ROW BD : ... .. . ... ... ... ... : ... .. 3 ... ... ... ... : ... .. . ... : ... .. . ... : ... .. . ...
ROW BE : ... .. . ... ... ... ... : ... .. 1 ... ... ... ... : ... .. . ... : ... .. . ... : ... .. . ...
ROW BF : ... .. . ... ... ... ... : ... .. . ... ... ... ... : ... .. . P80 : ... .. . ... : ... .. . ...
ROW C0 : ... .. . ... ... ... ... : ... .. . ... ... ... ... : ... .. . ... : ... .. . ... : ... .. . ...
ROW C1 : ... .. . ... ... ... ... : ... .. . ... ... ... ... : ... .. . ... : ... .. . ... : ... .. . ...
ROW C2 : ... .. . ... ... ... ... : ... .. . ... ... ... ... : ... .. . P81 : ... .. . ... : ... .. . ...
ROW C3 : ... .. . ... ... ... ... : ... .. . ... ... ... ... : ... .. . ... : ... .. . ... : ... .. . ...
ROW C4 : ... .. . ... ... ... ... : ... .. 1 ... ... ... ... : ... .. . ... : F-# 00 1 ... : ... .. . ...
ROW C5 : ... .. . ... ... ... ... : ... .. 2 ... ... ... ... : ... .. . P80 : ... .. . ... : ... .. . ...
ROW C6 : ... .. . ... ... ... ... : ... .. 2 ... ... ... ... : ... .. . ... : E-# 00 . ... : ... .. . ...
ROW C7 : ... .. . ... ... ... ... : ... .. 1 ... ... ... ... : ... .. . ... : ... .. . ... : ... .. . ...
ROW C8 : ... .. . ... ... ... ... : ... .. . ... ... ... ... : ... .. . P7F : D-# 00 . ... : ... .. . ...
ROW C9 : ... .. . ... ... ... P81 : ... .. . ... ... ... ... : ... .. . ... : ... .. . ... : ... .. . ...
ROW CA : ... .. . ... ... ... ... : ... .. . ... ... ... ... : ... .. . ... : C-# 00 . ... : ... .. . ...
ROW CB : ... .. . ... ... ... ... : ... .. . ... ... ... ... : ... .. . P80 : ... .. . ... : ... .. . ...
ROW CC : ... .. . ... ... ... P80 : ... .. . ... ... ... ... : ... .. . ... : B-# 00 . ... : ... .. . ...
ROW CD : ... .. . ... ... ... ... : ... .. . ... ... ... ... : ... .. . ... : ... .. . ... : ... .. . ...
ROW CE : ... .. . ... ... ... ... : ... .. 1 ... ... ... ... : ... .. . P81 : A-# 00 . ... : ... .. . ...
ROW CF : ... .. . ... ... ... P7F : ... .. 2 ... ... ... ... : ... .. . ... : ... .. . ... : ... .. . ...
ROW D0 : ... .. 2 ... ... ... ... : ... .. 2 ... ... ... ... : ... .. . ... : 9-# 00 . ... : ... .. . ...
ROW D1 : ... .. . ... ... ... ... : ... .. 1 ... ... ... ... : ... .. . P80 : ... .. . ... : ... .. . ...
ROW D2 : A-4 00 6 ... ... ... P80 : ... .. . ... ... ... ... : ... .. . ... : 8-# 00 2 ... : ... .. . ...
ROW D3 : ... .. . ... ... ... ... : ... .. . ... ... ... ... : ... .. . ... : ... .. . ... : ... .. . ...
ROW D4 : ... .. 5 ... ... ... ... : ... .. . ... ... ... ... : ... .. . P7F : 7-# 00 . ... : ... .. . ...
ROW D5 : ... .. . ... ... ... ... : ... .. . ... ... ... ... : ... .. . ... : ... .. . ... : ... .. . ...
ROW D6 : ... .. 4 ... ... ... ... : ... .. . ... ... ... ... : ... .. . ... : 6-# 00 . ... : ... .. . ...
ROW D7 : ... .. . ... ... ... ... : ... .. 1 ... ... ... ... : ... .. . P80 : ... .. . ... : ... .. . ...
ROW D8 : ... .. . ... ... ... ... : ... .. 2 ... ... ... ... : ... .. . ... : 5-# 00 . ... : ... .. . ...
ROW D9 : ... .. . ... ... ... ... : ... .. 2 ... ... ... ... : ... .. . ... : ... .. . ... : ... .. . ...
ROW DA : ... .. . ... ... ... ... : ... .. 1 ... ... ... ... : ... .. . P81 : 4-# 00 . ... : ... .. . ...
ROW DB : ... .. . ... ... ... ... : ... .. . ... ... ... ... : ... .. . ... : ... .. . ... : ... .. . ...
ROW DC : ... .. . ... ... ... ... : ... .. . ... ... ... ... : ... .. . ... : 3-# 00 . ... : ... .. . ...
ROW DD : ... .. . ... ... ... ... : ... .. . ... ... ... ... : ... .. . P80 : ... .. . ... : ... .. . ...
ROW DE : ... .. . ... ... ... ... : ... .. . ... ... ... ... : ... .. . ... : 2-# 00 . ... : ... .. . ...
ROW DF : ... .. . ... ... ... ... : ... .. . ... ... ... ... : ... .. . ... : ... .. . ... : ... .. . ...

PATTERN 1F
ROW 00 : E-4 00 6 V01 ... ... ... : --- .. . ... ... ... ... : D-3 00 . ... : 2-# 00 6 ... : ... .. . ...
ROW 01 : ... .. . ... ... ... ... : ... .. . ... ... ... ... : ... .. . ... : ... .. 4 ... : ... .. . ...
ROW 02 : ... .. 5 ... ... ... ... : ... .. . ... ... ... ... : ... .. . ... : ... .. 2 ... : ... .. . ...
ROW 03 : ... .. . ... ... ... ... : ... .. . ... ... ... ... : ... .. . ... : ... .. 1 ... : ... .. . ...
ROW 04 : ... .. 4 ... ... ... ... : ... .. . ... ... ... ... : ... .. . ... : ... .. 0 ... : ... .. . ...
ROW 05 : ... .. . ... ... ... ... : ... .. . ... ... ... ... : ... .. . ... : ... .. . ... : ... .. . ...
ROW 06 : ... .. . ... ... ... ... : ... .. . ... ... ... ... : ... .. . ... : ... .. . ... : ... .. . ...
ROW 07 : ... .. . ... ... ... ... : ... .. . ... ... ... ... : --- .. . ... : F-# 00 6 ... : ... .. . ...
ROW 08 : ... .. . ... ... ... ... : ... .. . ... ... ... ... : ... .. . ... : ... .. 4 ... : ... .. . ...
ROW 09 : ... .. . ... ... ... ... : ... .. . ... ... ... ... : ... .. . ... : ... .. 2 ... : ... .. . ...
ROW 0A : ... .. . ... ... ... ... : ... .. . ... ... ... ... : ... .. . ... : ... .. 1 ... : ... .. . ...
ROW 0B : ... .. . ... ... ... ... : ... .. . ... ... ... ... : ... .. . ... : ... .. 0 ... : ... .. . ...
ROW 0C : ... .. . ... ... ... ... : ... .. . ... ... ... ... : ... .. . ... : ... .. . ... : ... .. . ...
ROW 0D : ... .. . ... ... ... ... : ... .. . ... ... ... ... : ... .. . ... : ... .. . ... : ... .. . ...
ROW 0E : ... .. . ... ... ... ... : C-3 00 8 V02 ... ... P80 : ... .. . ... : E-# 00 6 ... : ... .. . ...
ROW 0F : ... .. . ... ... ... ... : ... .. . ... ... ... ... : A-4 00 . ... : ... .. 4 ... : ... .. . ...
ROW 10 : ... .. . ... ... ... ... : ... .. . ... ... ... ... : ... .. . ... : ... .. 2 ... : ... .. . ...
ROW 11 : ... .. . ... ... ... ... : ... .. . ... ... ... ... : ... .. . ... : ... .. 1 ... : ... .. . ...
ROW 12 : ... .. . ... ... ... ... : ... .. 1 ... ... ... ... : --- .. . ... : ... .. 0 ... : ... .. . ...
ROW 13 : ... .. . ... ... ... ... : ... .. . ... ... ... ... : ... .. . ... : ... .. . ... : ... .. . ...
ROW 14 : ... .. . ... ... ... ... : ... .. . ... ... ... ... : ... .. . ... : ... .. . ... : ... .. . ...
ROW 15 : ... .. 3 ... ... ... ... : E-4 00 1 V01 ... ... P81 : ... .. . ... : 2-# 00 6 ... : ... .. . ...
ROW 16 : ... .. . ... ... ... ... : ... .. . ... ... ... ... : ... .. . ... : ... .. 4 ... : ... .. . ...
ROW 17 : ... .. 2 ... ... ... ... : ... .. . ... ... ... ... : ... .. . ... : ... .. 2 ... : ... .. . ...
ROW 18 : ... .. . ... ... ... ... : ... .. . ... ... ... ... : ... .. . ... : ... .. 1 ... : ... .. . ...
ROW 19 : ... .. 1 ... ... ... ... : ... .. . ... ... ... ... : ... .. . ... : ... .. 0 ... : ... .. . ...
ROW 1A : ... .. . ... ... ... ... : ... .. . ... ... ... ... : ... .. . ... : ... .. . ... : ... .. . ...
ROW 1B : ... .. . ... ... ... ... : ... .. . ... ... ... ... : ... .. . ... : ... .. . ... : ... .. . ...
ROW 1C : D-4 00 6 ... ... ... ... : C-3 00 8 V02 ... ... P80 : ... .. . ... : 7-# 00 6 ... : ... .. . ...
ROW 1D : ... .. . ... ... ... ... : ... .. . ... ... ... ... : A-4 00 . ... : ... .. 4 ... : ... .. . ...
ROW 1E : ... .. 5 ... ... ... ... : ... .. . ... ... ... ... : ... .. . ... : ... .. 2 ... : ... .. . ...
ROW 1F : ... .. . ... ... ... ... : ... .. . ... ... ... ... : ... .. . ... : ... .. 1 ... : ... .. . ...
ROW 20 : ... .. 4 ... ... ... ... : ... .. 1 ... ... ... ... : --- .. . ... : ... .. 0 ... : ... .. . ...
ROW 21 : ... .. . ... ... ... ... : ... .. . ... ... ... ... : ... .. . ... : ... .. . ... : ... .. . ...
ROW 22 : ... .. . ... ... ... ... : ... .. . ... ... ... ... : ... .. . ... : ... .. . ... : ... .. . ...
ROW 23 : ... .. . ... ... ... ... : D-4 00 . V01 ... ... P81 : ... .. . ... : F-# 00 6 ... : ... .. . ...
ROW 24 : ... .. . ... ... ... ... : ... .. . ... ... ... ... : ... .. . ... : ... .. 4 ... : ... .. . ...
ROW 25 : ... .. . ... ... ... ... : ... .. . ... ... ... ... : ... .. . ... : ... .. 2 ... : ... .. . ...
ROW 26 : ... .. . ... ... ... ... : ... .. . ... ... ... ... : ... .. . ... : ... .. 1 ... : ... .. . ...
ROW 27 : ... .. . ... ... ... ... : ... .. . ... ... ... ... : ... .. . ... : ... .. 0 ... : ... .. . ...
ROW 28 : ... .. . ... ... ... ... : ... .. . ... ... ... ... : ... .. . ... : ... .. . ... : ... .. . ...
ROW 29 : ... .. . ... ... ... ... : ... .. . ... ... ... ... : ... .. . ... : ... .. . ... : ... .. . ...
ROW 2A : ... .. . ... ... ... ... : C-3 00 8 V02 ... ... P80 : ... .. . ... : E-# 00 6 ... : ... .. . ...
ROW 2B : ... .. . ... ... ... ... : ... .. . ... ... ... ... : A-4 00 . ... : ... .. 4 ... : ... .. . ...
ROW 2C : ... .. . ... ... ... ... : ... .. . ... ... ... ... : ... .. . ... : ... .. 2 ... : ... .. . ...
ROW 2D : ... .. . ... ... ... ... : ... .. . ... ... ... ... : ... .. . ... : ... .. 1 ... : ... .. . ...
ROW 2E : ... .. . ... ... ... ... : ... .. 1 ... ... ... ... : --- .. . ... : ... .. 0 ... : ... .. . ...
ROW 2F : ... .. . ... ... ... ... : ... .. . ... ... ... ... : ... .. . ... : ... .. . ... : ... .. . ...
ROW 30 : ... .. . ... ... ... ... : ... .. . ... ... ... ... : ... .. . ... : ... .. . ... : ... .. . ...
ROW 31 : ... .. 3 ... ... ... ... : D-4 00 . V01 ... ... P81 : ... .. . ... : 2-# 00 6 ... : ... .. . ...
ROW 32 : ... .. . ... ... ... ... : ... .. . ... ... ... ... : ... .. . ... : ... .. 4 ... : ... .. . ...
ROW 33 : ... .. 2 ... ... ... ... : ... .. . ... ... ... ... : ... .. . ... : ... .. 2 ... : ... .. . ...
ROW 34 : ... .. . ... ... ... ... : ... .. . ... ... ... ... : ... .. . ... : ... .. 1 ... : ... .. . ...
ROW 35 : ... .. 1 ... ... ... ... : ... .. . ... ... ... ... : ... .. . ... : ... .. 0 ... : ... .. . ...
ROW 36 : ... .. . ... ... ... ... : ... .. . ... ... ... ... : ... .. . ... : ... .. . ... : ... .. . ...
ROW 37 : ... .. . ... ... ... ... : ... .. . ... ... ... ... : ... .. . ... : ... .. . ... : ... .. . ...
ROW 38 : C-4 00 6 ... ... ... ... : C-3 00 8 V02 ... ... P80 : ... .. . ... : F-# 00 6 ... : ... .. . ...
ROW 39 : ... .. . ... ... ... ... : ... .. . ... ... ... ... : A-4 00 . ... : ... .. 4 ... : ... .. . ...
ROW 3A : ... .. 5 ... ... ... ... : ... .. . ... ... ... ... : ... .. . ... : ... .. 2 ... : ... .. . ...
ROW 3B : ... .. . ... ... ... ... : ... .. . ... ... ... ... : ... .. . ... : ... .. 1 ... : ... .. . ...
ROW 3C : ... .. 4 ... ... ... ... : ... .. 1 ... ... ... ... : --- .. . ... : ... .. 0 ... : ... .. . ...
ROW 3D : ... .. . ... ... ... ... : ... .. . ... ... ... ... : ... .. . ... : ... .. . ... : ... .. . ...
ROW 3E : ... .. . ... ... ... ... : ... .. . ... ... ... ... : ... .. . ... : ... .. . ... : ... .. . ...
ROW 3F : ... .. . ... ... ... ... : C-4 00 . V01 ... ... P81 : ... .. . ... : E-# 00 6 ... : ... .. . ...
ROW 40 : ... .. . ... ... ... ... : ... .. . ... ... ... ... : ... .. . ... : ... .. 4 ... : ... .. . ...
ROW 41 : ... .. . ... ... ... ... : ... .. . ... ... ... ... : ... .. . ... : ... .. 2 ... : ... .. . ...
ROW 42 : ... .. . ... ... ... ... : ... .. . ... ... ... ... : ... .. . ... : ... .. 1 ... : ... .. . ...
ROW 43 : ... .. . ... ... ... ... : ... .. . ... ... ... ... : ... .. . ... : ... .. 0 ... : ... .. . ...
ROW 44 : ... .. . ... ... ... ... : ... .. . ... ... ... ... : ... .. . ... : ... .. . ... : ... .. . ...
ROW 45 : ... .. . ... ... ... ... : ... .. . ... ... ... ... : ... .. . ... : ... .. . ... : ... .. . ...
ROW 46 : ... .. . ... ... ... ... : C-3 00 8 V02 ... ... P80 : ... .. . ... : 2-# 00 6 ... : ... .. . ...
ROW 47 : ... .. . ... ... ... ... : ... .. . ... ... ... ... : A-4 00 . ... : ... .. 4 ... : ... .. . ...
ROW 48 : ... .. . ... ... ... ... : ... .. . ... ... ... ... : ... .. . ... : ... .. 2 ... : ... .. . ...
ROW 49 : ... .. . ... ... ... ... : ... .. . ... ... ... ... : ... .. . ... : ... .. 1 ... : ... .. . ...
ROW 4A : ... .. . ... ... ... ... : ... .. 1 ... ... ... ... : --- .. . ... : ... .. 0 ... : ... .. . ...
ROW 4B : ... .. . ... ... ... ... : ... .. . ... ... ... ... : ... .. . ... : ... .. . ... : ... .. . ...
ROW 4C : ... .. . ... ... ... ... : ... .. . ... ... ... ... : ... .. . ... : ... .. . ... : ... .. . ...
ROW 4D : ... .. 3 ... ... ... ... : C-4 00 . V01 ... ... P81 : ... .. . ... : F-# 00 6 ... : ... .. . ...
ROW 4E : ... .. . ... ... ... ... : ... .. . ... ... ... ... : ... .. . ... : ... .. 4 ... : ... .. . ...
ROW 4F : ... .. 2 ... ... ... ... : ... .. . ... ... ... ... : ... .. . ... : ... .. 2 ... : ... .. . ...
ROW 50 : ... .. . ... ... ... ... : ... .. . ... ... ... ... : ... .. . ... : ... .. 1 ... : ... .. . ...
ROW 51 : ... .. 1 ... ... ... ... : ... .. . ... ... ... ... : ... .. . ... : ... .. 0 ... : ... .. . ...
ROW 52 : ... .. . ... ... ... ... : ... .. . ... ... ... ... : ... .. . ... : ... .. . ... : ... .. . ...
ROW 53 : ... .. . ... ... ... ... : ... .. . ... ... ... ... : ... .. . ... : ... .. . ... : ... .. . ...
ROW 54 : E-4 00 6 ... ... ... ... : C-3 00 8 V02 ... ... P80 : ... .. . ... : 7-# 00 6 ... : ... .. . ...
ROW 55 : ... .. . ... ... ... ... : ... .. . ... ... ... ... : A-4 00 . ... : ... .. 4 ... : ... .. . ...
ROW 56 : ... .. 5 ... ... ... ... : ... .. . ... ... ... ... : ... .. . ... : ... .. 2 ... : ... .. . ...
ROW 57 : ... .. . ... ... ... ... : ... .. . ... ... ... ... : ... .. . ... : ... .. 1 ... : ... .. . ...
ROW 58 : ... .. 4 ... ... ... ... : ... .. 1 ... ... ... ... : --- .. . ... : ... .. 0 ... : ... .. . ...
ROW 59 : ... .. . ... ... ... ... : ... .. . ... ... ... ... : ... .. . ... : ... .. . ... : ... .. . ...
ROW 5A : ... .. . ... ... ... ... : ... .. . ... ... ... ... : ... .. . ... : ... .. . ... : ... .. . ...
ROW 5B : ... .. . ... ... ... ... : E-4 00 . V01 ... ... P81 : ... .. . ... : F-# 00 6 ... : ... .. . ...
ROW 5C : ... .. . ... ... ... ... : ... .. . ... ... ... ... : ... .. . ... : ... .. 4 ... : ... .. . ...
ROW 5D : ... .. . ... ... ... ... : ... .. . ... ... ... ... : ... .. . ... : ... .. 2 ... : ... .. . ...
ROW 5E : ... .. . ... ... ... ... : ... .. . ... ... ... ... : ... .. . ... : ... .. 1 ... : ... .. . ...
ROW 5F : ... .. . ... ... ... ... : ... .. . ... ... ... ... : ... .. . ... : ... .. 0 ... : ... .. . ...
ROW 60 : ... .. . ... ... ... ... : ... .. . ... ... ... ... : ... .. . ... : ... .. . ... : ... .. . ...
ROW 61 : ... .. . ... ... ... ... : ... .. . ... ... ... ... : ... .. . ... : ... .. . ... : ... .. . ...
ROW 62 : ... .. . ... ... ... ... : ... .. . ... ... ... ... : A-2 00 . ... : E-# 00 6 ... : ... .. . ...
ROW 63 : ... .. . ... ... ... ... : ... .. . ... ... ... ... : ... .. . ... : ... .. 4 ... : ... .. . ...
ROW 64 : ... .. . ... ... ... ... : ... .. . ... ... ... ... : ... .. . ... : ... .. 2 ... : ... .. . ...
ROW 65 : ... .. . ... ... ... ... : ... .. . ... ... ... ... : ... .. . ... : ... .. 1 ... : ... .. . ...
ROW 66 : ... .. . ... ... ... ... : ... .. . ... ... ... ... : ... .. . ... : ... .. 0 ... : ... .. . ...
ROW 67 : ... .. . ... ... ... ... : ... .. . ... ... ... ... : ... .. . ... : ... .. . ... : ... .. . ...
ROW 68 : ... .. . ... ... ... ... : ... .. . ... ... ... ... : ... .. . ... : ... .. . ... : ... .. . ...
ROW 69 : ... .. 3 ... ... ... ... : ... .. . ... ... ... ... : --- .. . ... : 2-# 00 6 ... : ... .. . ...
ROW 6A : ... .. . ... ... ... ... : ... .. . ... ... ... ... : ... .. . ... : ... .. 4 ... : ... .. . ...
ROW 6B : ... .. 2 ... ... ... ... : ... .. . ... ... ... ... : ... .. . ... : ... .. 2 ... : ... .. . ...
ROW 6C : ... .. . ... ... ... ... : ... .. . ... ... ... ... : ... .. . ... : ... .. 1 ... : ... .. . ...
ROW 6D : ... .. 1 ... ... ... ... : ... .. . ... ... ... ... : ... .. . ... : ... .. 0 ... : ... .. . ...
ROW 6E : ... .. . ... ... ... ... : ... .. . ... ... ... ... : ... .. . ... : ... .. . ... : ... .. . ...
ROW 6F : ... .. . ... ... ... ... : ... .. . ... ... ... ... : ... .. . ... : ... .. . ... : ... .. . ...
ROW 70 : G-4 00 6 ... ... ... ... : ... .. . ... ... ... ... : D-3 00 . ... : 2-# 00 6 ... : ... .. . ...
ROW 71 : ... .. . ... ... ... ... : ... .. . ... ... ... ... : ... .. . ... : ... .. 4 ... : ... .. . ...
ROW 72 : ... .. . ... ... ... ... : ... .. . ... ... ... ... : ... .. . ... : ... .. 2 ... : ... .. . ...
ROW 73 : ... .. . ... ... ... ... : ... .. . ... ... ... ... : ... .. . ... : ... .. 1 ... : ... .. . ...
ROW 74 : A-4 00 6 ... ... ... ... : ... .. . ... ... ... ... : ... .. . ... : ... .. 0 ... : ... .. . ...
ROW 75 : ... .. . ... ... ... ... : ... .. . ... ... ... ... : ... .. . ... : ... .. . ... : ... .. . ...
ROW 76 : ... .. 5 ... ... ... ... : ... .. . ... ... ... ... : ... .. . ... : ... .. . ... : ... .. . ...
ROW 77 : ... .. . ... ... ... ... : A-4 00 . ... ... ... ... : --- .. . ... : F-# 00 6 ... : ... .. . ...
ROW 78 : ... .. 4 ... ... ... ... : ... .. . ... ... ... ... : ... .. . ... : ... .. 4 ... : ... .. . ...
ROW 79 : ... .. . ... ... ... ... : ... .. . ... ... ... ... : ... .. . ... : ... .. 2 ... : ... .. . ...
ROW 7A : ... .. . ... ... ... ... : ... .. . ... ... ... ... : ... .. . ... : ... .. 1 ... : ... .. . ...
ROW 7B : ... .. . ... ... ... ... : ... .. . ... ... ... ... : ... .. . ... : ... .. 0 ... : ... .. . ...
ROW 7C : ... .. . ... ... ... ... : ... .. . ... ... ... ... : ... .. . ... : ... .. . ... : ... .. . ...
ROW 7D : ... .. . ... ... ... ... : ... .. . ... ... ... ... : ... .. . ... : ... .. . ... : ... .. . ...
ROW 7E : ... .. . ... ... ... ... : C-3 00 8 V02 ... ... P80 : ... .. . ... : E-# 00 6 ... : ... .. . ...
ROW 7F : ... .. . ... ... ... ... : ... .. . ... ... ... ... : A-4 00 . ... : ... .. 4 ... : ... .. . ...
ROW 80 : ... .. . ... ... ... ... : ... .. . ... ... ... ... : ... .. . ... : ... .. 2 ... : ... .. . ...
ROW 81 : ... .. . ... ... ... ... : ... .. . ... ... ... ... : ... .. . ... : ... .. 1 ... : ... .. . ...
ROW 82 : ... .. . ... ... ... ... : ... .. 1 ... ... ... ... : --- .. . ... : ... .. 0 ... : ... .. . ...
ROW 83 : ... .. . ... ... ... ... : ... .. . ... ... ... ... : ... .. . ... : ... .. . ... : ... .. . ...
ROW 84 : ... .. . ... ... ... ... : ... .. . ... ... ... ... : ... .. . ... : ... .. . ... : ... .. . ...
ROW 85 : ... .. . ... ... ... ... : A-4 00 . V01 ... ... P81 : ... .. . ... : 2-# 00 6 ... : ... .. . ...
ROW 86 : ... .. . ... ... ... ... : ... .. . ... ... ... ... : ... .. . ... : ... .. 4 ... : ... .. . ...
ROW 87 : ... .. . ... ... ... ... : ... .. . ... ... ... ... : ... .. . ... : ... .. 2 ... : ... .. . ...
ROW 88 : ... .. . ... ... ... ... : ... .. . ... ... ... ... : ... .. . ... : ... .. 1 ... : ... .. . ...
ROW 89 : ... .. . ... ... ... ... : ... .. . ... ... ... ... : ... .. . ... : ... .. 0 ... : ... .. . ...
ROW 8A : ... .. . ... ... ... ... : ... .. . ... ... ... ... : ... .. . ... : ... .. . ... : ... .. . ...
ROW 8B : ... .. . ... ... ... ... : ... .. . ... ... ... ... : ... .. . ... : ... .. . ... : ... .. . ...
ROW 8C : ... .. . ... ... ... ... : C-3 00 8 V02 ... ... P80 : ... .. . ... : 7-# 00 6 ... : ... .. . ...
ROW 8D : ... .. . ... ... ... ... : ... .. . ... ... ... ... : A-4 00 . ... : ... .. 4 ... : ... .. . ...
ROW 8E : ... .. . ... ... ... ... : ... .. . ... ... ... ... : ... .. . ... : ... .. 2 ... : ... .. . ...
ROW 8F : ... .. . ... ... ... ... : ... .. . ... ... ... ... : ... .. . ... : ... .. 1 ... : ... .. . ...
ROW 90 : ... .. . ... ... ... ... : ... .. 1 ... ... ... ... : --- .. . ... : ... .. 0 ... : ... .. . ...
ROW 91 : ... .. . ... ... ... P81 : ... .. . ... ... ... ... : ... .. . ... : ... .. . ... : ... .. . ...
ROW 92 : ... .. . ... ... ... ... : ... .. . ... ... ... ... : ... .. . ... : ... .. . ... : ... .. . ...
ROW 93 : ... .. 3 ... ... ... ... : A-4 00 . V01 ... ... P81 : ... .. . ... : F-# 00 6 ... : ... .. . ...
ROW 94 : ... .. . ... ... ... P80 : ... .. . ... ... ... ... : ... .. . ... : ... .. 4 ... : ... .. . ...
ROW 95 : ... .. 2 ... ... ... ... : ... .. . ... ... ... ... : ... .. . ... : ... .. 2 ... : ... .. . ...
ROW 96 : ... .. . ... ... ... ... : ... .. . ... ... ... ... : ... .. . ... : ... .. 1 ... : ... .. . ...
ROW 97 : ... .. 1 ... ... ... P7F : ... .. . ... ... ... ... : ... .. . ... : ... .. 0 ... : ... .. . ...
ROW 98 : ... .. . ... ... ... ... : ... .. . ... ... ... ... : ... .. . ... : ... .. . ... : ... .. . ...
ROW 99 : ... .. . ... ... ... ... : ... .. . ... ... ... ... : ... .. . ... : ... .. . ... : ... .. . ...
ROW 9A : E-4 00 6 ... ... ... P80 : C-3 00 8 V02 ... ... P80 : ... .. . ... : E-# 00 6 ... : ... .. . ...
ROW 9B : ... .. . ... ... ... ... : ... .. . ... ... ... ... : A-4 00 . ... : ... .. 4 ... : ... .. . ...
ROW 9C : ... .. 5 ... ... ... ... : ... .. . ... ... ... ... : ... .. . ... : ... .. 2 ... : ... .. . ...
ROW 9D : ... .. . ... ... ... ... : ... .. . ... ... ... ... : ... .. . ... : ... .. 1 ... : ... .. . ...
ROW 9E : ... .. 4 ... ... ... ... : ... .. 1 ... ... ... ... : --- .. . ... : ... .. 0 ... : ... .. . ...
ROW 9F : ... .. . ... ... ... ... : ... .. . ... ... ... ... : ... .. . ... : ... .. . ... : ... .. . ...
ROW A0 : ... .. . ... ... ... ... : ... .. . ... ... ... ... : ... .. . ... : ... .. . ... : ... .. . ...
ROW A1 : ... .. . ... ... ... ... : E-4 00 . V01 ... ... P81 : ... .. . ... : 2-# 00 6 ... : ... .. . ...
ROW A2 : ... .. . ... ... ... ... : ... .. . ... ... ... ... : ... .. . ... : ... .. 4 ... : ... .. . ...
ROW A3 : ... .. . ... ... ... ... : ... .. . ... ... ... ... : ... .. . ... : ... .. 2 ... : ... .. . ...
ROW A4 : ... .. . ... ... ... ... : ... .. . ... ... ... ... : ... .. . ... : ... .. 1 ... : ... .. . ...
ROW A5 : ... .. . ... ... ... ... : ... .. . ... ... ... ... : ... .. . ... : ... .. 0 ... : ... .. . ...
ROW A6 : ... .. 2 ... ... ... ... : ... .. . ... ... ... ... : ... .. . ... : ... .. . ... : ... .. . ...
ROW A7 : ... .. . ... ... ... ... : ... .. . ... ... ... ... : ... .. . ... : ... .. . ... : ... .. . ...
ROW A8 : C-4 00 6 ... ... ... ... : C-3 00 8 V02 ... ... P80 : ... .. . ... : F-# 00 6 ... : ... .. . ...
ROW A9 : ... .. . ... ... ... ... : ... .. . ... ... ... ... : A-4 00 . ... : ... .. 4 ... : ... .. . ...
ROW AA : ... .. 5 ... ... ... ... : ... .. . ... ... ... ... : ... .. . ... : ... .. 2 ... : ... .. . ...
ROW AB : ... .. . ... ... ... ... : ... .. . ... ... ... ... : ... .. . ... : ... .. 1 ... : ... .. . ...
ROW AC : ... .. 4 ... ... ... ... : ... .. 1 ... ... ... ... : --- .. . ... : ... .. 0 ... : ... .. . ...
ROW AD : ... .. . ... ... ... ... : ... .. . ... ... ... ... : ... .. . ... : ... .. . ... : ... .. . ...
ROW AE : ... .. . ... ... ... ... : ... .. . ... ... ... ... : ... .. . ... : ... .. . ... : ... .. . ...
ROW AF : ... .. . ... ... ... ... : C-4 00 . V01 ... ... P81 : ... .. . ... : E-# 00 6 ... : ... .. . ...
ROW B0 : ... .. . ... ... ... ... : ... .. . ... ... ... ... : ... .. . ... : ... .. 4 ... : ... .. . ...
ROW B1 : ... .. . ... ... ... ... : ... .. . ... ... ... ... : ... .. . ... : ... .. 2 ... : ... .. . ...
ROW B2 : ... .. . ... ... ... ... : ... .. . ... ... ... ... : ... .. . ... : ... .. 1 ... : ... .. . ...
ROW B3 : ... .. . ... ... ... ... : ... .. . ... ... ... ... : ... .. . ... : ... .. 0 ... : ... .. . ...
ROW B4 : ... .. . ... ... ... ... : ... .. . ... ... ... ... : ... .. . ... : ... .. . ... : ... .. . ...
ROW B5 : ... .. . ... ... ... ... : ... .. . ... ... ... ... : ... .. . ... : ... .. . ... : ... .. . ...
ROW B6 : ... .. . ... ... ... ... : C-3 00 8 V02 ... ... P80 : ... .. . ... : 2-# 00 6 ... : ... .. . ...
ROW B7 : ... .. . ... ... ... ... : ... .. . ... ... ... ... : A-4 00 . ... : ... .. 4 ... : ... .. . ...
ROW B8 : ... .. . ... ... ... ... : ... .. . ... ... ... ... : ... .. . ... : ... .. 2 ... : ... .. . ...
ROW B9 : ... .. . ... ... ... ... : ... .. . ... ... ... ... : ... .. . ... : ... .. 1 ... : ... .. . ...
ROW BA : ... .. . ... ... ... ... : ... .. 1 ... ... ... ... : --- .. . ... : ... .. 0 ... : ... .. . ...
ROW BB : ... .. . ... ... ... ... : ... .. . ... ... ... ... : ... .. . ... : ... .. . ... : ... .. . ...
ROW BC : ... .. . ... ... ... ... : ... .. . ... ... ... ... : ... .. . ... : ... .. . ... : ... .. . ...
ROW BD : ... .. 3 ... ... ... ... : C-4 00 . V01 ... ... P81 : ... .. . ... : F-# 00 6 ... : ... .. . ...
ROW BE : ... .. . ... ... ... ... : ... .. . ... ... ... ... : ... .. . ... : ... .. 4 ... : ... .. . ...
ROW BF : ... .. 2 ... ... ... ... : ... .. . ... ... ... ... : ... .. . ... : ... .. 2 ... : ... .. . ...
ROW C0 : ... .. . ... ... ... ... : ... .. . ... ... ... ... : ... .. . ... : ... .. 1 ... : ... .. . ...
ROW C1 : ... .. 1 ... ... ... ... : ... .. . ... ... ... ... : ... .. . ... : ... .. 0 ... : ... .. . ...
ROW C2 : ... .. . ... ... ... ... : ... .. . ... ... ... ... : ... .. . ... : ... .. . ... : ... .. . ...
ROW C3 : ... .. . ... ... ... ... : ... .. . ... ... ... ... : ... .. . ... : ... .. . ... : ... .. . ...
ROW C4 : E-4 00 6 ... ... ... ... : C-3 00 8 V02 ... ... P80 : ... .. . ... : 7-# 00 6 ... : ... .. . ...
ROW C5 : ... .. . ... ... ... ... : ... .. . ... ... ... ... : A-4 00 . ... : ... .. 4 ... : ... .. . ...
ROW C6 : ... .. 5 ... ... ... ... : ... .. . ... ... ... ... : ... .. . ... : ... .. 2 ... : ... .. . ...
ROW C7 : ... .. . ... ... ... ... : ... .. . ... ... ... ... : ... .. . ... : ... .. 1 ... : ... .. . ...
ROW C8 : ... .. 4 ... ... ... ... : ... .. 1 ... ... ... ... : --- .. . ... : ... .. 0 ... : ... .. . ...
ROW C9 : ... .. . ... ... ... ... : ... .. . ... ... ... ... : ... .. . ... : ... .. . ... : ... .. . ...
ROW CA : ... .. . ... ... ... ... : ... .. . ... ... ... ... : ... .. . ... : ... .. . ... : ... .. . ...
ROW CB : ... .. . ... ... ... ... : E-4 00 . V01 ... ... P81 : ... .. . ... : F-# 00 6 ... : ... .. . ...
ROW CC : ... .. . ... ... ... ... : ... .. . ... ... ... ... : ... .. . ... : ... .. 4 ... : ... .. . ...
ROW CD : ... .. . ... ... ... ... : ... .. . ... ... ... ... : ... .. . ... : ... .. 2 ... : ... .. . ...
ROW CE : ... .. . ... ... ... ... : ... .. . ... ... ... ... : ... .. . ... : ... .. 1 ... : ... .. . ...
ROW CF : ... .. . ... ... ... ... : ... .. . ... ... ... ... : ... .. . ... : ... .. 0 ... : ... .. . ...
ROW D0 : ... .. . ... ... ... ... : ... .. . ... ... ... ... : ... .. . ... : ... .. . ... : ... .. . ...
ROW D1 : ... .. . ... ... ... ... : ... .. . ... ... ... ... : ... .. . ... : ... .. . ... : ... .. . ...
ROW D2 : ... .. . ... ... ... ... : C-3 00 8 V02 ... ... P80 : ... .. . ... : E-# 00 6 ... : ... .. . ...
ROW D3 : ... .. . ... ... ... ... : ... .. . ... ... ... ... : A-4 00 . ... : ... .. 4 ... : ... .. . ...
ROW D4 : ... .. . ... ... ... ... : ... .. . ... ... ... ... : ... .. . ... : ... .. 2 ... : ... .. . ...
ROW D5 : ... .. . ... ... ... ... : ... .. . ... ... ... ... : ... .. . ... : ... .. 1 ... : ... .. . ...
ROW D6 : ... .. . ... ... ... ... : ... .. 1 ... ... ... ... : --- .. . ... : ... .. 0 ... : ... .. . ...
ROW D7 : ... .. . ... ... ... ... : ... .. . ... ... ... ... : ... .. . ... : ... .. . ... : ... .. . ...
ROW D8 : ... .. . ... ... ... ... : ... .. . ... ... ... ... : ... .. . ... : ... .. . ... : ... .. . ...
ROW D9 : ... .. 3 ... ... ... ... : E-4 00 . ... ... P81 ... : ... .. . ... : 2-# 00 6 ... : ... .. . ...
ROW DA : ... .. . ... ... ... ... : ... .. . ... ... ... ... : ... .. . ... : ... .. 4 ... : ... .. . ...
ROW DB : ... .. 2 ... ... ... ... : ... .. . ... ... ... ... : ... .. . ... : ... .. 2 ... : ... .. . ...
ROW DC : ... .. . ... ... ... ... : ... .. . ... ... ... ... : ... .. . ... : ... .. 1 ... : ... .. . ...
ROW DD : ... .. 1 ... ... ... ... : ... .. . ... ... ... ... : ... .. . ... : ... .. 0 ... : ... .. . ...
ROW DE : ... .. . ... ... ... ... : ... .. . ... ... ... ... : ... .. . ... : ... .. . ... : ... .. . ...
ROW DF : ... .. . ... ... ... ... : ... .. . ... ... ... ... : ... .. . ... : ... .. . ... : ... .. . ...

PATTERN 20
ROW 00 : F-4 00 6 V01 ... ... ... : ... .. . ... ... ... ... : D#2 00 . ... : --- .. . ... : ... .. . ...
ROW 01 : ... .. . ... ... ... ... : ... .. . ... ... ... ... : ... .. . ... : ... .. . ... : ... .. . ...
ROW 02 : ... .. . ... ... ... ... : ... .. . ... ... ... ... : ... .. . ... : ... .. . ... : ... .. . ...
ROW 03 : ... .. . ... ... ... ... : ... .. . ... ... ... ... : ... .. . ... : ... .. . ... : ... .. . ...
ROW 04 : G-4 00 6 ... ... ... ... : ... .. . ... ... ... ... : ... .. . ... : ... .. . ... : ... .. . ...
ROW 05 : ... .. . ... ... ... ... : ... .. . ... ... ... ... : ... .. . ... : ... .. . ... : ... .. . ...
ROW 06 : ... .. 5 ... ... ... ... : ... .. . ... ... ... ... : ... .. . ... : ... .. . ... : ... .. . ...
ROW 07 : ... .. . ... ... ... ... : ... .. . ... ... ... ... : ... .. . ... : ... .. . ... : ... .. . ...
ROW 08 : ... .. 4 ... ... ... ... : ... .. . ... ... ... ... : ... .. . ... : ... .. . ... : ... .. . ...
ROW 09 : ... .. . ... ... ... ... : ... .. . ... ... ... ... : ... .. . ... : ... .. . ... : ... .. . ...
ROW 0A : ... .. . ... ... ... ... : ... .. . ... ... ... ... : ... .. . ... : ... .. . ... : ... .. . ...
ROW 0B : ... .. . ... ... ... ... : ... .. . ... ... ... ... : ... .. . ... : ... .. . ... : ... .. . ...
ROW 0C : ... .. . ... ... ... ... : ... .. . ... ... ... ... : ... .. . ... : ... .. . ... : ... .. . ...
ROW 0D : ... .. . ... ... ... ... : ... .. . ... ... ... ... : ... .. . ... : ... .. . ... : ... .. . ...
ROW 0E : ... .. . ... ... ... ... : A#2 00 5 V00 ... ... ... : D-4 00 . ... : ... .. . ... : ... .. . ...
ROW 0F : ... .. . ... ... ... ... : ... .. . ... ... ... ... : ... .. . ... : ... .. . ... : ... .. . ...
ROW 10 : ... .. . ... ... ... ... : ... .. . ... ... ... ... : ... .. . ... : ... .. . ... : ... .. . ...
ROW 11 : ... .. . ... ... ... ... : ... .. . ... ... ... ... : ... .. . ... : ... .. . ... : ... .. . ...
ROW 12 : ... .. . ... ... ... ... : ... .. . ... ... ... ... : ... .. . ... : ... .. . ... : ... .. . ...
ROW 13 : ... .. . ... ... ... ... : ... .. . ... ... ... ... : ... .. . ... : ... .. . ... : ... .. . ...
ROW 14 : ... .. . ... ... ... ... : ... .. . ... ... ... ... : ... .. . ... : ... .. . ... : ... .. . ...
ROW 15 : ... .. . ... ... ... ... : ... .. . ... ... ... ... : ... .. . ... : ... .. . ... : ... .. . ...
ROW 16 : ... .. . ... ... ... ... : ... .. . ... ... ... ... : ... .. . ... : ... .. . ... : ... .. . ...
ROW 17 : ... .. . ... ... ... ... : ... .. . ... ... ... ... : ... .. . ... : ... .. . ... : ... .. . ...
ROW 18 : ... .. . ... ... ... ... : ... .. . ... ... ... ... : ... .. . ... : ... .. . ... : ... .. . ...
ROW 19 : ... .. . ... ... ... ... : ... .. . ... ... ... ... : ... .. . ... : ... .. . ... : ... .. . ...
ROW 1A : ... .. . ... ... ... ... : ... .. . ... ... ... ... : ... .. . ... : ... .. . ... : ... .. . ...
ROW 1B : ... .. . ... ... ... ... : ... .. . ... ... ... ... : ... .. . ... : ... .. . ... : ... .. . ...
ROW 1C : ... .. . ... ... ... ... : G-2 00 5 ... ... ... ... : C-4 00 . ... : ... .. . ... : ... .. . ...
ROW 1D : ... .. . ... ... ... ... : ... .. . ... ... ... ... : ... .. . ... : ... .. . ... : ... .. . ...
ROW 1E : ... .. . ... ... ... ... : ... .. . ... ... ... ... : ... .. . ... : ... .. . ... : ... .. . ...
ROW 1F : ... .. . ... ... ... ... : ... .. . ... ... ... ... : ... .. . ... : ... .. . ... : ... .. . ...
ROW 20 : ... .. . ... ... ... ... : ... .. . ... ... ... ... : ... .. . ... : ... .. . ... : ... .. . ...
ROW 21 : ... .. . ... ... ... ... : ... .. . ... ... ... ... : ... .. . ... : ... .. . ... : ... .. . ...
ROW 22 : ... .. . ... ... ... ... : ... .. . ... ... ... ... : ... .. . ... : ... .. . ... : ... .. . ...
ROW 23 : ... .. . ... ... ... ... : ... .. . ... ... ... ... : ... .. . ... : ... .. . ... : ... .. . ...
ROW 24 : ... .. . ... ... ... ... : ... .. . ... ... ... ... : ... .. . ... : ... .. . ... : ... .. . ...
ROW 25 : ... .. . ... ... ... ... : ... .. . ... ... ... ... : ... .. . ... : ... .. . ... : ... .. . ...
ROW 26 : ... .. . ... ... ... ... : ... .. . ... ... ... ... : ... .. . ... : ... .. . ... : ... .. . ...
ROW 27 : ... .. . ... ... ... ... : ... .. . ... ... ... ... : ... .. . ... : ... .. . ... : ... .. . ...
ROW 28 : ... .. . ... ... ... ... : ... .. . ... ... ... ... : ... .. . ... : ... .. . ... : ... .. . ...
ROW 29 : ... .. . ... ... ... ... : ... .. . ... ... ... ... : ... .. . ... : ... .. . ... : ... .. . ...
ROW 2A : ... .. . ... ... ... ... : G-4 00 1 V01 ... ... P81 : A#1 00 . ... : ... .. . ... : ... .. . ...
ROW 2B : ... .. . ... ... ... ... : ... .. . ... ... ... ... : ... .. . ... : ... .. . ... : ... .. . ...
ROW 2C : ... .. . ... ... ... ... : ... .. . ... ... ... ... : ... .. . ... : ... .. . ... : ... .. . ...
ROW 2D : ... .. . ... ... ... ... : ... .. . ... ... ... ... : ... .. . ... : ... .. . ... : ... .. . ...
ROW 2E : ... .. . ... ... ... ... : ... .. . ... ... ... ... : ... .. . ... : ... .. . ... : ... .. . ...
ROW 2F : ... .. . ... ... ... ... : ... .. . ... ... ... ... : ... .. . ... : ... .. . ... : ... .. . ...
ROW 30 : ... .. . ... ... ... ... : ... .. . ... ... ... ... : ... .. . ... : ... .. . ... : ... .. . ...
ROW 31 : ... .. . ... ... ... ... : ... .. . ... ... ... ... : ... .. . ... : ... .. . ... : ... .. . ...
ROW 32 : ... .. . ... ... ... ... : ... .. . ... ... ... ... : ... .. . ... : ... .. . ... : ... .. . ...
ROW 33 : ... .. . ... ... ... ... : ... .. . ... ... ... ... : ... .. . ... : ... .. . ... : ... .. . ...
ROW 34 : ... .. . ... ... ... ... : ... .. . ... ... ... ... : ... .. . ... : ... .. . ... : ... .. . ...
ROW 35 : ... .. . ... ... ... ... : ... .. . ... ... ... ... : ... .. . ... : ... .. . ... : ... .. . ...
ROW 36 : ... .. . ... ... ... ... : ... .. . ... ... ... ... : ... .. . ... : ... .. . ... : ... .. . ...
ROW 37 : ... .. . ... ... ... ... : ... .. . ... ... ... ... : ... .. . ... : ... .. . ... : ... .. . ...
ROW 38 : ... .. . ... ... ... P7F : ... .. . ... ... ... ... : D#2 00 . ... : ... .. . ... : ... .. . ...
ROW 39 : ... .. . ... ... ... P7E : ... .. . ... ... ... ... : ... .. . ... : ... .. . ... : ... .. . ...
ROW 3A : ... .. . ... ... ... P7D : ... .. . ... ... ... ... : ... .. . ... : ... .. . ... : ... .. . ...
ROW 3B : ... .. . ... ... ... P7E : ... .. . ... ... ... ... : ... .. . ... : ... .. . ... : ... .. . ...
ROW 3C : ... .. . ... ... ... P7F : ... .. . ... ... ... ... : ... .. . ... : ... .. . ... : ... .. . ...
ROW 3D : ... .. . ... ... ... P80 : ... .. . ... ... ... ... : ... .. . ... : ... .. . ... : ... .. . ...
ROW 3E : ... .. . ... ... ... P81 : ... .. . ... ... ... ... : ... .. . ... : ... .. . ... : ... .. . ...
ROW 3F : ... .. . ... ... ... P82 : ... .. . ... ... ... ... : ... .. . ... : ... .. . ... : ... .. . ...
ROW 40 : ... .. . ... ... ... P83 : ... .. . ... ... ... ... : ... .. . ... : ... .. . ... : ... .. . ...
ROW 41 : ... .. . ... ... ... P82 : ... .. . ... ... ... ... : ... .. . ... : ... .. . ... : ... .. . ...
ROW 42 : ... .. . ... ... ... P81 : ... .. . ... ... ... ... : ... .. . ... : ... .. . ... : ... .. . ...
ROW 43 : ... .. . ... ... ... P80 : ... .. . ... ... ... ... : ... .. . ... : ... .. . ... : ... .. . ...
ROW 44 : ... .. . ... ... ... P7F : ... .. . ... ... ... ... : ... .. . ... : ... .. . ... : ... .. . ...
ROW 45 : ... .. . ... ... ... P7E : ... .. . ... ... ... ... : ... .. . ... : ... .. . ... : ... .. . ...
ROW 46 : ... .. . ... ... ... P7D : A#3 00 5 V02 ... ... P80 : D-5 00 . ... : ... .. . ... : ... .. . ...
ROW 47 : ... .. . ... ... ... P7E : ... .. . ... ... ... ... : ... .. . ... : ... .. . ... : ... .. . ...
ROW 48 : ... .. . ... ... ... P7F : ... .. . ... ... ... ... : ... .. . ... : ... .. . ... : ... .. . ...
ROW 49 : ... .. . ... ... ... P80 : ... .. . ... ... ... ... : ... .. . ... : ... .. . ... : ... .. . ...
ROW 4A : ... .. . ... ... ... P81 : ... .. . ... ... ... ... : ... .. . ... : ... .. . ... : ... .. . ...
ROW 4B : ... .. . ... ... ... P82 : ... .. . ... ... ... ... : ... .. . ... : ... .. . ... : ... .. . ...
ROW 4C : ... .. . ... ... ... P83 : ... .. . ... ... ... ... : ... .. . ... : ... .. . ... : ... .. . ...
ROW 4D : ... .. . ... ... ... P82 : ... .. . ... ... ... ... : ... .. . ... : ... .. . ... : ... .. . ...
ROW 4E : ... .. . ... ... ... P81 : ... .. . ... ... ... ... : ... .. . ... : ... .. . ... : ... .. . ...
ROW 4F : ... .. . ... ... ... P80 : ... .. . ... ... ... ... : ... .. . ... : ... .. . ... : ... .. . ...
ROW 50 : ... .. . ... ... ... P7F : ... .. . ... ... ... ... : ... .. . ... : ... .. . ... : ... .. . ...
ROW 51 : ... .. . ... ... ... P7E : ... .. . ... ... ... ... : ... .. . ... : ... .. . ... : ... .. . ...
ROW 52 : ... .. . ... ... ... P7D : ... .. . ... ... ... ... : ... .. . ... : ... .. . ... : ... .. . ...
ROW 53 : ... .. . ... ... ... P7E : ... .. . ... ... ... ... : ... .. . ... : ... .. . ... : ... .. . ...
ROW 54 : ... .. . ... ... ... P7F : G-3 00 5 ... ... ... ... : C-5 00 . P80 : ... .. . ... : ... .. . ...
ROW 55 : ... .. . ... ... ... P80 : ... .. . ... ... ... ... : ... .. . ... : ... .. . ... : ... .. . ...
ROW 56 : ... .. . ... ... ... P81 : ... .. . ... ... ... ... : ... .. . ... : ... .. . ... : ... .. . ...
ROW 57 : ... .. . ... ... ... P82 : ... .. . ... ... ... ... : ... .. . ... : ... .. . ... : ... .. . ...
ROW 58 : ... .. . ... ... ... P83 : ... .. . ... ... ... ... : ... .. . ... : ... .. . ... : ... .. . ...
ROW 59 : ... .. . ... ... ... P82 : ... .. . ... ... ... ... : ... .. . ... : ... .. . ... : ... .. . ...
ROW 5A : ... .. . ... ... ... P81 : ... .. . ... ... ... ... : ... .. . ... : ... .. . ... : ... .. . ...
ROW 5B : ... .. . ... ... ... P80 : ... .. . ... ... ... ... : ... .. . ... : ... .. . ... : ... .. . ...
ROW 5C : ... .. . ... ... ... P7F : ... .. . ... ... ... ... : ... .. . ... : ... .. . ... : ... .. . ...
ROW 5D : ... .. . ... ... ... P7E : ... .. . ... ... ... ... : ... .. . ... : ... .. . ... : ... .. . ...
ROW 5E : ... .. . ... ... ... P7D : ... .. . ... ... ... ... : ... .. . ... : ... .. . ... : ... .. . ...
ROW 5F : ... .. . ... ... ... P7E : ... .. . ... ... ... ... : ... .. . ... : ... .. . ... : ... .. . ...
ROW 60 : ... .. . ... ... ... P7F : ... .. . ... ... ... ... : ... .. . ... : ... .. . ... : ... .. . ...
ROW 61 : ... .. . ... ... ... P80 : ... .. . ... ... ... ... : ... .. . ... : ... .. . ... : ... .. . ...
ROW 62 : ... .. . ... ... ... P7F : G-4 00 1 V01 ... ... P81 : D#2 00 . ... : ... .. . ... : ... .. . ...
ROW 63 : ... .. . ... ... ... P7E : ... .. . ... ... ... ... : ... .. . ... : ... .. . ... : ... .. . ...
ROW 64 : ... .. . ... ... ... P7D : ... .. . ... ... ... ... : ... .. . ... : ... .. . ... : ... .. . ...
ROW 65 : ... .. . ... ... ... P7E : ... .. . ... ... ... ... : ... .. . ... : ... .. . ... : ... .. . ...
ROW 66 : ... .. . ... ... ... P7F : ... .. . ... ... ... ... : ... .. . ... : ... .. . ... : ... .. . ...
ROW 67 : ... .. . ... ... ... P80 : ... .. . ... ... ... ... : ... .. . ... : ... .. . ... : ... .. . ...
ROW 68 : ... .. . ... ... ... P81 : ... .. . ... ... ... ... : ... .. . ... : ... .. . ... : ... .. . ...
ROW 69 : ... .. . ... ... ... P82 : ... .. . ... ... ... ... : ... .. . ... : ... .. . ... : ... .. . ...
ROW 6A : ... .. . ... ... ... P83 : ... .. . ... ... ... ... : ... .. . ... : ... .. . ... : ... .. . ...
ROW 6B : ... .. . ... ... ... P82 : ... .. . ... ... ... ... : ... .. . ... : ... .. . ... : ... .. . ...
ROW 6C : ... .. . ... ... ... P81 : ... .. . ... ... ... ... : ... .. . ... : ... .. . ... : ... .. . ...
ROW 6D : ... .. . ... ... ... P80 : ... .. . ... ... ... ... : ... .. . ... : ... .. . ... : ... .. . ...
ROW 6E : ... .. . ... ... ... P7F : ... .. . ... ... ... ... : ... .. . ... : ... .. . ... : ... .. . ...
ROW 6F : ... .. . ... ... ... P7E : ... .. . ... ... ... ... : ... .. . ... : ... .. . ... : ... .. . ...
ROW 70 : ... .. . ... ... ... P7D : ... .. . ... ... ... ... : D-2 00 . ... : ... .. . ... : ... .. . ...
ROW 71 : ... .. . ... ... ... P7E : ... .. . ... ... ... ... : ... .. . ... : ... .. . ... : ... .. . ...
ROW 72 : ... .. . ... ... ... P7F : ... .. . ... ... ... ... : ... .. . ... : ... .. . ... : ... .. . ...
ROW 73 : ... .. . ... ... ... P80 : ... .. . ... ... ... ... : ... .. . ... : ... .. . ... : ... .. . ...
ROW 74 : ... .. . ... ... ... P81 : ... .. . ... ... ... ... : ... .. . ... : ... .. . ... : ... .. . ...
ROW 75 : ... .. . ... ... ... P82 : ... .. . ... ... ... ... : ... .. . ... : ... .. . ... : ... .. . ...
ROW 76 : ... .. . ... ... ... P83 : ... .. . ... ... ... ... : ... .. . ... : ... .. . ... : ... .. . ...
ROW 77 : ... .. . ... ... ... P82 : ... .. . ... ... ... ... : ... .. . ... : ... .. . ... : ... .. . ...
ROW 78 : ... .. . ... ... ... P81 : ... .. . ... ... ... ... : ... .. . ... : ... .. . ... : ... .. . ...
ROW 79 : ... .. . ... ... ... P80 : ... .. . ... ... ... ... : ... .. . ... : ... .. . ... : ... .. . ...
ROW 7A : ... .. . ... ... ... P7F : ... .. . ... ... ... ... : ... .. . ... : ... .. . ... : ... .. . ...
ROW 7B : ... .. . ... ... ... P7E : ... .. . ... ... ... ... : ... .. . ... : ... .. . ... : ... .. . ...
ROW 7C : ... .. . ... ... ... P7D : ... .. . ... ... ... ... : ... .. . ... : ... .. . ... : ... .. . ...
ROW 7D : ... .. . ... ... ... P7E : ... .. . ... ... ... ... : ... .. . ... : ... .. . ... : ... .. . ...
ROW 7E : ... .. . ... ... ... P7F : C-3 00 8 V01 ... ... P80 : D-4 00 . ... : ... .. . ... : ... .. . ...
ROW 7F : ... .. . ... ... ... P80 : ... .. 5 ... ... ... ... : ... .. . ... : ... .. . ... : ... .. . ...
ROW 80 : ... .. . ... ... ... P7F : ... .. . ... ... ... ... : ... .. . ... : ... .. . ... : ... .. . ...
ROW 81 : ... .. . ... ... ... P7E : ... .. . ... ... ... ... : ... .. . ... : ... .. . ... : ... .. . ...
ROW 82 : ... .. . ... ... ... P7D : ... .. . ... ... ... ... : ... .. . ... : ... .. . ... : ... .. . ...
ROW 83 : ... .. . ... ... ... P7E : ... .. . ... ... ... ... : ... .. . ... : ... .. . ... : ... .. . ...
ROW 84 : ... .. . ... ... ... P7F : ... .. . ... ... ... ... : ... .. . ... : ... .. . ... : ... .. . ...
ROW 85 : ... .. . ... ... ... P80 : ... .. . ... ... ... ... : ... .. . ... : ... .. . ... : ... .. . ...
ROW 86 : ... .. . ... ... ... P81 : ... .. . ... ... ... ... : ... .. . ... : ... .. . ... : ... .. . ...
ROW 87 : ... .. . ... ... ... P82 : ... .. . ... ... ... ... : ... .. . ... : ... .. . ... : ... .. . ...
ROW 88 : ... .. . ... ... ... P83 : ... .. . ... ... ... ... : ... .. . ... : ... .. . ... : ... .. . ...
ROW 89 : ... .. . ... ... ... P82 : ... .. . ... ... ... ... : ... .. . ... : ... .. . ... : ... .. . ...
ROW 8A : ... .. . ... ... ... P81 : ... .. 2 ... ... ... ... : ... .. . ... : ... .. . ... : ... .. . ...
ROW 8B : ... .. . ... ... ... P80 : ... .. . ... ... ... ... : ... .. . ... : ... .. . ... : ... .. . ...
ROW 8C : ... .. 3 ... ... ... P7F : G-4 00 1 V01 ... ... P81 : D-3 00 . ... : ... .. . ... : ... .. . ...
ROW 8D : ... .. . ... ... ... P7E : ... .. . ... ... ... ... : ... .. . ... : ... .. . ... : ... .. . ...
ROW 8E : ... .. . ... ... ... P7D : ... .. . ... ... ... ... : ... .. . ... : ... .. . ... : ... .. . ...
ROW 8F : ... .. . ... ... ... P7E : ... .. . ... ... ... ... : ... .. . ... : ... .. . ... : ... .. . ...
ROW 90 : ... .. . ... ... ... P7F : ... .. . ... ... ... ... : ... .. . ... : ... .. . ... : ... .. . ...
ROW 91 : ... .. . ... ... ... P80 : ... .. . ... ... ... ... : ... .. . ... : ... .. . ... : ... .. . ...
ROW 92 : ... .. . ... ... ... P81 : ... .. . ... ... ... ... : ... .. . ... : ... .. . ... : ... .. . ...
ROW 93 : ... .. . ... ... ... P82 : ... .. . ... ... ... ... : ... .. . ... : ... .. . ... : ... .. . ...
ROW 94 : ... .. . ... ... ... P83 : ... .. . ... ... ... ... : ... .. . ... : ... .. . ... : ... .. . ...
ROW 95 : ... .. . ... ... ... P82 : ... .. . ... ... ... ... : ... .. . ... : ... .. . ... : ... .. . ...
ROW 96 : ... .. . ... ... ... P81 : ... .. . ... ... ... ... : ... .. . ... : ... .. . ... : ... .. . ...
ROW 97 : ... .. . ... ... ... P80 : ... .. . ... ... ... ... : ... .. . ... : ... .. . ... : ... .. . ...
ROW 98 : ... .. . ... ... ... P7F : ... .. . ... ... ... ... : ... .. . ... : ... .. . ... : ... .. . ...
ROW 99 : ... .. . ... ... ... P7E : ... .. . ... ... ... ... : ... .. . ... : ... .. . ... : ... .. . ...
ROW 9A : ... .. . ... ... ... P7D : C-3 00 8 V01 ... ... P80 : D-2 00 . ... : ... .. . ... : ... .. . ...
ROW 9B : ... .. . ... ... ... P7E : ... .. 5 ... ... ... ... : ... .. . ... : ... .. . ... : ... .. . ...
ROW 9C : ... .. . ... ... ... P7F : ... .. . ... ... ... ... : ... .. . ... : ... .. . ... : ... .. . ...
ROW 9D : ... .. . ... ... ... P80 : ... .. . ... ... ... ... : ... .. . ... : ... .. . ... : ... .. . ...
ROW 9E : ... .. . ... ... ... P81 : ... .. . ... ... ... ... : ... .. . ... : ... .. . ... : ... .. . ...
ROW 9F : ... .. . ... ... ... P82 : ... .. . ... ... ... ... : ... .. . ... : ... .. . ... : ... .. . ...
ROW A0 : ... .. . ... ... ... P83 : ... .. . ... ... ... ... : ... .. . ... : ... .. . ... : ... .. . ...
ROW A1 : ... .. . ... ... ... P82 : ... .. . ... ... ... ... : ... .. . ... : ... .. . ... : ... .. . ...
ROW A2 : ... .. . ... ... ... P81 : ... .. . ... ... ... ... : ... .. . ... : ... .. . ... : ... .. . ...
ROW A3 : ... .. . ... ... ... P80 : ... .. . ... ... ... ... : ... .. . ... : ... .. . ... : ... .. . ...
ROW A4 : ... .. . ... ... ... P7F : ... .. . ... ... ... ... : ... .. . ... : ... .. . ... : ... .. . ...
ROW A5 : ... .. . ... ... ... P7E : ... .. . ... ... ... ... : ... .. . ... : ... .. . ... : ... .. . ...
ROW A6 : ... .. . ... ... ... P7D : ... .. 2 ... ... ... ... : --- .. . ... : ... .. . ... : ... .. . ...
ROW A7 : ... .. . ... ... ... P7E : ... .. . ... ... ... ... : ... .. . ... : ... .. . ... : ... .. . ...
ROW A8 : ... .. 2 ... ... ... P7F : B-2 00 8 V00 ... ... ... : G-1 00 . ... : ... .. . ... : ... .. . ...
ROW A9 : ... .. . ... ... ... P80 : ... .. 5 ... ... ... ... : ... .. . ... : ... .. . ... : ... .. . ...
ROW AA : ... .. . ... ... ... P81 : ... .. . ... ... ... ... : ... .. . ... : ... .. . ... : ... .. . ...
ROW AB : ... .. . ... ... ... P82 : ... .. . ... ... ... ... : ... .. . ... : ... .. . ... : ... .. . ...
ROW AC : ... .. . ... ... ... P83 : ... .. . ... ... ... ... : ... .. . ... : ... .. . ... : ... .. . ...
ROW AD : ... .. . ... ... ... P82 : ... .. . ... ... ... ... : ... .. . ... : ... .. . ... : ... .. . ...
ROW AE : ... .. . ... ... ... P81 : ... .. . ... ... ... ... : ... .. . ... : ... .. . ... : ... .. . ...
ROW AF : ... .. . ... ... ... P80 : ... .. . ... ... ... ... : ... .. . ... : ... .. . ... : ... .. . ...
ROW B0 : ... .. . ... ... ... P7F : ... .. . ... ... ... ... : ... .. . ... : ... .. . ... : ... .. . ...
ROW B1 : ... .. . ... ... ... P7E : ... .. . ... ... ... ... : ... .. . ... : ... .. . ... : ... .. . ...
ROW B2 : ... .. . ... ... ... P7D : ... .. . ... ... ... ... : ... .. . ... : ... .. . ... : ... .. . ...
ROW B3 : ... .. . ... ... ... P7E : ... .. . ... ... ... ... : ... .. . ... : ... .. . ... : ... .. . ...
ROW B4 : ... .. . ... ... ... P7F : ... .. 2 ... ... ... ... : --- .. . ... : ... .. . ... : ... .. . ...
ROW B5 : ... .. . ... ... ... P80 : ... .. . ... ... ... ... : ... .. . ... : ... .. . ... : ... .. . ...
ROW B6 : ... .. . ... ... ... P81 : G-1 00 5 V00 ... ... P7E : G-2 00 . ... : ... .. . ... : ... .. . ...
ROW B7 : ... .. . ... ... ... P82 : ... .. . ... ... ... ... : ... .. . ... : ... .. . ... : ... .. . ...
ROW B8 : ... .. . ... ... ... P83 : ... .. . ... ... ... ... : ... .. . ... : ... .. . ... : ... .. . ...
ROW B9 : ... .. . ... ... ... P82 : ... .. . ... ... ... ... : ... .. . ... : ... .. . ... : ... .. . ...
ROW BA : ... .. . ... ... ... P81 : ... .. . ... ... ... ... : ... .. . ... : ... .. . ... : ... .. . ...
ROW BB : ... .. . ... ... ... P80 : ... .. . ... ... ... ... : ... .. . ... : ... .. . ... : ... .. . ...
ROW BC : ... .. . ... ... ... P7F : ... .. . ... ... ... ... : ... .. . ... : ... .. . ... : ... .. . ...
ROW BD : ... .. . ... ... ... P7E : ... .. . ... ... ... ... : ... .. . ... : ... .. . ... : ... .. . ...
ROW BE : ... .. . ... ... ... P7D : ... .. . ... ... ... ... : ... .. . ... : ... .. . ... : ... .. . ...
ROW BF : ... .. . ... ... ... P7E : ... .. . ... ... ... ... : ... .. . ... : ... .. . ... : ... .. . ...
ROW C0 : ... .. . ... ... ... P7F : ... .. . ... ... ... ... : ... .. . ... : ... .. . ... : ... .. . ...
ROW C1 : ... .. . ... ... ... P80 : ... .. . ... ... ... ... : ... .. . ... : ... .. . ... : ... .. . ...
ROW C2 : ... .. . ... ... ... P81 : ... .. 2 ... ... ... ... : --- .. . ... : ... .. . ... : ... .. . ...
ROW C3 : ... .. . ... ... ... P82 : ... .. . ... ... ... ... : ... .. . ... : ... .. . ... : ... .. . ...
ROW C4 : ... .. 1 ... ... ... P83 : G-2 00 5 ... ... ... ... : G-3 00 . ... : ... .. . ... : ... .. . ...
ROW C5 : ... .. . ... ... ... P82 : ... .. . ... ... ... ... : ... .. . ... : ... .. . ... : ... .. . ...
ROW C6 : ... .. . ... ... ... P81 : ... .. . ... ... ... ... : ... .. . ... : ... .. . ... : ... .. . ...
ROW C7 : ... .. . ... ... ... P80 : ... .. . ... ... ... ... : ... .. . ... : ... .. . ... : ... .. . ...
ROW C8 : ... .. . ... ... ... P7F : ... .. . ... ... ... ... : ... .. . ... : ... .. . ... : ... .. . ...
ROW C9 : ... .. . ... ... ... P7E : ... .. . ... ... ... ... : ... .. . ... : ... .. . ... : ... .. . ...
ROW CA : ... .. . ... ... ... P7D : ... .. . ... ... ... ... : ... .. . ... : ... .. . ... : ... .. . ...
ROW CB : ... .. . ... ... ... P7E : ... .. . ... ... ... ... : ... .. . ... : ... .. . ... : ... .. . ...
ROW CC : ... .. . ... ... ... P7F : ... .. . ... ... ... ... : ... .. . ... : ... .. . ... : ... .. . ...
ROW CD : ... .. . ... ... ... P80 : ... .. . ... ... ... ... : ... .. . ... : ... .. . ... : ... .. . ...
ROW CE : ... .. . ... ... ... P81 : ... .. . ... ... ... ... : ... .. . ... : ... .. . ... : ... .. . ...
ROW CF : ... .. . ... ... ... P82 : ... .. . ... ... ... ... : ... .. . ... : ... .. . ... : ... .. . ...
ROW D0 : ... .. . ... ... ... P83 : ... .. 2 ... ... ... ... : --- .. . ... : ... .. . ... : ... .. . ...
ROW D1 : ... .. . ... ... ... P82 : ... .. . ... ... ... ... : ... .. . ... : ... .. . ... : ... .. . ...
ROW D2 : ... .. . ... ... ... P81 : G-3 00 5 ... ... ... ... : G-4 00 . ... : ... .. . ... : ... .. . ...
ROW D3 : ... .. . ... ... ... P80 : ... .. . ... ... ... ... : ... .. . ... : ... .. . ... : ... .. . ...
ROW D4 : ... .. . ... ... ... P7F : ... .. . ... ... ... ... : ... .. . ... : ... .. . ... : ... .. . ...
ROW D5 : ... .. . ... ... ... P7E : ... .. . ... ... ... ... : ... .. . ... : ... .. . ... : ... .. . ...
ROW D6 : ... .. . ... ... ... P7D : ... .. . ... ... ... ... : ... .. . ... : ... .. . ... : ... .. . ...
ROW D7 : ... .. . ... ... ... P7E : ... .. . ... ... ... ... : ... .. . ... : ... .. . ... : ... .. . ...
ROW D8 : ... .. . ... ... ... P7F : ... .. . ... ... ... ... : ... .. . ... : ... .. . ... : ... .. . ...
ROW D9 : ... .. . ... ... ... P80 : ... .. . ... ... ... ... : ... .. . ... : ... .. . ... : ... .. . ...
ROW DA : ... .. . ... ... ... P81 : ... .. . ... ... ... ... : ... .. . ... : ... .. . ... : ... .. . ...
ROW DB : ... .. . ... ... ... P82 : ... .. . ... ... ... ... : ... .. . ... : ... .. . ... : ... .. . ...
ROW DC : ... .. . ... ... ... P83 : ... .. . ... ... ... ... : ... .. . ... : ... .. . ... : ... .. . ...
ROW DD : ... .. . ... ... ... P82 : ... .. . ... ... ... ... : ... .. . ... : ... .. . ... : ... .. . ...
ROW DE : ... .. . ... ... ... P81 : ... .. 2 ... ... ... ... : --- .. . ... : ... .. . ... : ... .. . ...
ROW DF : ... .. . ... ... ... P80 : ... .. . ... ... ... ... : ... .. . ... : ... .. . ... : ... .. . ...

PATTERN 21
ROW 00 : --- .. . ... ... ... P80 : --- .. . ... ... ... ... : C-3 00 . ... : --- .. . ... : ... .. . ...
ROW 01 : ... .. . ... ... ... ... : ... .. . ... ... ... ... : ... .. . ... : ... .. . ... : ... .. . ...
ROW 02 : ... .. . ... ... ... ... : ... .. . ... ... ... ... : ... .. . ... : ... .. . ... : ... .. . ...
ROW 03 : ... .. . ... ... ... ... : ... .. . ... ... ... ... : ... .. . ... : ... .. . ... : ... .. . ...
ROW 04 : ... .. . ... ... ... ... : ... .. . ... ... ... ... : ... .. . ... : ... .. . ... : ... .. . ...
ROW 05 : ... .. . ... ... ... ... : ... .. . ... ... ... ... : ... .. . ... : ... .. . ... : ... .. . ...
ROW 06 : ... .. . ... ... ... ... : ... .. . ... ... ... ... : ... .. . ... : ... .. . ... : ... .. . ...
ROW 07 : ... .. . ... ... ... ... : ... .. . ... ... ... ... : ... .. . ... : ... .. . ... : ... .. . ...
ROW 08 : ... .. . ... ... ... ... : ... .. . ... ... ... ... : ... .. . ... : ... .. . ... : ... .. . ...
ROW 09 : ... .. . ... ... ... ... : ... .. . ... ... ... ... : ... .. . ... : ... .. . ... : ... .. . ...
ROW 0A : ... .. . ... ... ... ... : ... .. . ... ... ... ... : ... .. . ... : ... .. . ... : ... .. . ...
ROW 0B : ... .. . ... ... ... ... : ... .. . ... ... ... ... : ... .. . ... : ... .. . ... : ... .. . ...
ROW 0C : ... .. . ... ... ... ... : ... .. . ... ... ... ... : ... .. . ... : ... .. . ... : ... .. . ...
ROW 0D : ... .. . ... ... ... ... : ... .. . ... ... ... ... : --- .. . ... : ... .. . ... : ... .. . ...
ROW 0E : E-4 00 6 V02 ... ... ... : ... .. . ... ... ... ... : ... .. . ... : ... .. . ... : ... .. . ...
ROW 0F : ... .. . ... ... ... ... : ... .. . ... ... ... ... : ... .. . ... : ... .. . ... : ... .. . ...
ROW 10 : ... .. 5 ... ... ... ... : ... .. . ... ... ... ... : ... .. . ... : ... .. . ... : ... .. . ...
ROW 11 : ... .. . ... ... ... ... : ... .. . ... ... ... ... : ... .. . ... : ... .. . ... : ... .. . ...
ROW 12 : ... .. 4 ... ... ... ... : ... .. . ... ... ... ... : ... .. . ... : ... .. . ... : ... .. . ...
ROW 13 : ... .. . ... ... ... ... : ... .. . ... ... ... ... : ... .. . ... : ... .. . ... : ... .. . ...
ROW 14 : ... .. 3 ... ... ... ... : ... .. . ... ... ... ... : ... .. . ... : ... .. . ... : ... .. . ...
ROW 15 : ... .. . ... ... ... P81 : C-3 00 6 V01 ... ... ... : C-3 00 . ... : ... .. . ... : ... .. . ...
ROW 16 : ... .. 2 ... ... ... ... : ... .. . ... ... ... ... : ... .. . ... : ... .. . ... : ... .. . ...
ROW 17 : ... .. . ... ... ... ... : E-3 00 . ... ... ... ... : ... .. . ... : ... .. . ... : ... .. . ...
ROW 18 : ... .. 1 ... ... ... P80 : ... .. 5 ... ... ... ... : ... .. . ... : ... .. . ... : ... .. . ...
ROW 19 : ... .. . ... ... ... ... : F-3 00 . ... ... ... ... : --- .. . ... : ... .. . ... : ... .. . ...
ROW 1A : ... .. . ... ... ... ... : ... .. . ... ... ... ... : ... .. . ... : ... .. . ... : ... .. . ...
ROW 1B : ... .. . ... ... ... P7F : A#3 00 4 ... ... ... ... : ... .. . ... : ... .. . ... : ... .. . ...
ROW 1C : F-4 00 6 ... ... ... P80 : ... .. . ... ... ... ... : A#3 00 . ... : ... .. . ... : ... .. . ...
ROW 1D : ... .. . ... ... ... ... : C-3 00 . ... ... ... ... : ... .. . ... : ... .. . ... : ... .. . ...
ROW 1E : ... .. 5 ... ... ... ... : ... .. 3 ... ... ... ... : ... .. . ... : ... .. . ... : ... .. . ...
ROW 1F : ... .. . ... ... ... ... : E-3 00 . ... ... ... ... : --- .. . ... : ... .. . ... : ... .. . ...
ROW 20 : ... .. 4 ... ... ... ... : ... .. . ... ... ... ... : ... .. . ... : ... .. . ... : ... .. . ...
ROW 21 : ... .. . ... ... ... ... : F-3 00 2 ... ... ... ... : ... .. . ... : ... .. . ... : ... .. . ...
ROW 22 : ... .. 3 ... ... ... ... : ... .. . ... ... ... ... : ... .. . ... : ... .. . ... : ... .. . ...
ROW 23 : ... .. . ... ... ... P81 : A#3 00 . ... ... ... ... : D#3 00 . ... : ... .. . ... : ... .. . ...
ROW 24 : ... .. 2 ... ... ... ... : ... .. 1 ... ... ... ... : ... .. . ... : ... .. . ... : ... .. . ...
ROW 25 : ... .. . ... ... ... ... : C-3 00 . ... ... ... ... : ... .. . ... : ... .. . ... : ... .. . ...
ROW 26 : ... .. 1 ... ... ... P80 : ... .. . ... ... ... ... : --- .. . ... : ... .. . ... : ... .. . ...
ROW 27 : E-4 00 . ... ... ... ... : E-3 00 . ... ... ... ... : ... .. . ... : ... .. . ... : ... .. . ...
ROW 28 : ... .. . ... ... ... ... : ... .. . ... ... ... ... : ... .. . ... : ... .. . ... : ... .. . ...
ROW 29 : ... .. . ... ... ... ... : F-3 00 . ... ... ... ... : ... .. . ... : ... .. . ... : ... .. . ...
ROW 2A : A-4 00 6 ... ... ... ... : F-4 00 1 V02 ... ... P81 : A#2 00 . ... : ... .. . ... : ... .. . ...
ROW 2B : ... .. . ... ... ... ... : ... .. . ... ... ... ... : ... .. . ... : ... .. . ... : ... .. . ...
ROW 2C : ... .. 5 ... ... ... ... : ... .. . ... ... ... ... : ... .. . ... : ... .. . ... : ... .. . ...
ROW 2D : ... .. . ... ... ... ... : ... .. . ... ... ... ... : ... .. . ... : ... .. . ... : ... .. . ...
ROW 2E : ... .. 4 ... ... ... ... : ... .. . ... ... ... ... : --- .. . ... : ... .. . ... : ... .. . ...
ROW 2F : ... .. . ... ... ... ... : ... .. . ... ... ... ... : ... .. . ... : ... .. . ... : ... .. . ...
ROW 30 : ... .. 3 ... ... ... ... : ... .. . ... ... ... ... : ... .. . ... : ... .. . ... : ... .. . ...
ROW 31 : ... .. . ... ... ... P81 : ... .. . ... ... ... ... : C-3 00 . ... : ... .. . ... : ... .. . ...
ROW 32 : ... .. 2 ... ... ... ... : ... .. . ... ... ... ... : ... .. . ... : ... .. . ... : ... .. . ...
ROW 33 : ... .. . ... ... ... ... : ... .. . ... ... ... ... : ... .. . ... : ... .. . ... : ... .. . ...
ROW 34 : ... .. 1 ... ... ... P80 : ... .. . ... ... ... ... : ... .. . ... : ... .. . ... : ... .. . ...
ROW 35 : F-4 00 . ... ... ... ... : ... .. . ... ... ... ... : ... .. . ... : ... .. . ... : ... .. . ...
ROW 36 : ... .. . ... ... ... ... : ... .. . ... ... ... ... : ... .. . ... : ... .. . ... : ... .. . ...
ROW 37 : ... .. . ... ... ... ... : ... .. . ... ... ... ... : ... .. . ... : ... .. . ... : ... .. . ...
ROW 38 : G-4 00 6 ... ... ... ... : A-4 00 . ... ... ... ... : ... .. . ... : ... .. . ... : ... .. . ...
ROW 39 : ... .. . ... ... ... ... : ... .. . ... ... ... ... : ... .. . ... : ... .. . ... : ... .. . ...
ROW 3A : ... .. . ... ... ... ... : ... .. . ... ... ... ... : ... .. . ... : ... .. . ... : ... .. . ...
ROW 3B : ... .. 5 ... ... ... ... : ... .. . ... ... ... ... : ... .. . ... : ... .. . ... : ... .. . ...
ROW 3C : ... .. . ... ... ... ... : ... .. . ... ... ... ... : ... .. . ... : ... .. . ... : ... .. . ...
ROW 3D : ... .. . ... ... ... ... : ... .. . ... ... ... ... : ... .. . ... : ... .. . ... : ... .. . ...
ROW 3E : ... .. 4 ... ... ... ... : ... .. . ... ... ... ... : ... .. . ... : ... .. . ... : ... .. . ...
ROW 3F : ... .. . ... ... ... P81 : ... .. . ... ... ... ... : ... .. . ... : ... .. . ... : ... .. . ...
ROW 40 : ... .. . ... ... ... ... : ... .. . ... ... ... ... : ... .. . ... : ... .. . ... : ... .. . ...
ROW 41 : ... .. 3 ... ... ... ... : ... .. . ... ... ... ... : ... .. . ... : ... .. . ... : ... .. . ...
ROW 42 : ... .. . ... ... ... P80 : ... .. . ... ... ... ... : ... .. . ... : ... .. . ... : ... .. . ...
ROW 43 : ... .. . ... ... ... ... : ... .. . ... ... ... ... : ... .. . ... : ... .. . ... : ... .. . ...
ROW 44 : A-4 00 1 ... ... ... ... : ... .. . ... ... ... ... : ... .. . ... : ... .. . ... : ... .. . ...
ROW 45 : ... .. . ... ... ... ... : ... .. . ... ... ... ... : ... .. . ... : ... .. . ... : ... .. . ...
ROW 46 : E-4 00 6 ... ... ... ... : G-4 00 . ... ... ... ... : D#4 00 . ... : ... .. . ... : ... .. . ...
ROW 47 : ... .. . ... ... ... ... : ... .. . ... ... ... ... : ... .. . ... : ... .. . ... : ... .. . ...
ROW 48 : ... .. 5 ... ... ... ... : ... .. . ... ... ... ... : F-4 00 . ... : ... .. . ... : ... .. . ...
ROW 49 : ... .. . ... ... ... ... : ... .. . ... ... ... ... : ... .. . ... : ... .. . ... : ... .. . ...
ROW 4A : ... .. 4 ... ... ... ... : ... .. . ... ... ... ... : ... .. . ... : ... .. . ... : ... .. . ...
ROW 4B : ... .. . ... ... ... ... : ... .. . ... ... ... ... : ... .. . ... : ... .. . ... : ... .. . ...
ROW 4C : ... .. 3 ... ... ... ... : ... .. . ... ... ... ... : ... .. . ... : ... .. . ... : ... .. . ...
ROW 4D : ... .. . ... ... ... P81 : ... .. . ... ... ... ... : ... .. . ... : ... .. . ... : ... .. . ...
ROW 4E : ... .. 2 ... ... ... ... : ... .. . ... ... ... ... : ... .. . ... : ... .. . ... : ... .. . ...
ROW 4F : ... .. . ... ... ... ... : ... .. . ... ... ... ... : ... .. . ... : ... .. . ... : ... .. . ...
ROW 50 : ... .. 1 ... ... ... P80 : ... .. . ... ... ... ... : ... .. . ... : ... .. . ... : ... .. . ...
ROW 51 : G-4 00 . ... ... ... ... : ... .. . ... ... ... ... : ... .. . ... : ... .. . ... : ... .. . ...
ROW 52 : ... .. . ... ... ... ... : ... .. . ... ... ... ... : ... .. . ... : ... .. . ... : ... .. . ...
ROW 53 : ... .. . ... ... ... ... : ... .. . ... ... ... ... : ... .. . ... : ... .. . ... : ... .. . ...
ROW 54 : F-4 00 6 ... ... ... ... : E-4 00 . ... ... ... ... : D#4 00 . ... : ... .. . ... : ... .. . ...
ROW 55 : ... .. . ... ... ... ... : ... .. . ... ... ... ... : ... .. . ... : ... .. . ... : ... .. . ...
ROW 56 : ... .. 5 ... ... ... ... : ... .. . ... ... ... ... : ... .. . ... : ... .. . ... : ... .. . ...
ROW 57 : ... .. . ... ... ... ... : ... .. . ... ... ... ... : --- .. . ... : ... .. . ... : ... .. . ...
ROW 58 : ... .. 4 ... ... ... ... : ... .. . ... ... ... ... : ... .. . ... : ... .. . ... : ... .. . ...
ROW 59 : ... .. . ... ... ... ... : ... .. . ... ... ... ... : ... .. . ... : ... .. . ... : ... .. . ...
ROW 5A : ... .. 3 ... ... ... ... : ... .. . ... ... ... ... : ... .. . ... : ... .. . ... : ... .. . ...
ROW 5B : ... .. . ... ... ... P81 : ... .. . ... ... ... ... : C-4 00 . ... : ... .. . ... : ... .. . ...
ROW 5C : ... .. 2 ... ... ... ... : ... .. . ... ... ... ... : ... .. . ... : ... .. . ... : ... .. . ...
ROW 5D : ... .. . ... ... ... ... : ... .. . ... ... ... ... : ... .. . ... : ... .. . ... : ... .. . ...
ROW 5E : ... .. 1 ... ... ... P80 : ... .. . ... ... ... ... : --- .. . ... : ... .. . ... : ... .. . ...
ROW 5F : E-4 00 . ... ... ... ... : ... .. . ... ... ... ... : ... .. . ... : ... .. . ... : ... .. . ...
ROW 60 : ... .. . ... ... ... ... : ... .. . ... ... ... ... : ... .. . ... : ... .. . ... : ... .. . ...
ROW 61 : ... .. . ... ... ... ... : ... .. . ... ... ... ... : ... .. . ... : ... .. . ... : ... .. . ...
ROW 62 : D-4 00 6 ... ... ... ... : C-3 00 6 V01 ... ... P80 : A#3 00 . ... : ... .. . ... : ... .. . ...
ROW 63 : ... .. . ... ... ... ... : ... .. . ... ... ... ... : ... .. . ... : ... .. . ... : ... .. . ...
ROW 64 : ... .. 5 ... ... ... ... : E-3 00 . ... ... ... ... : ... .. . ... : ... .. . ... : ... .. . ...
ROW 65 : ... .. . ... ... ... ... : ... .. 5 ... ... ... ... : --- .. . ... : ... .. . ... : ... .. . ...
ROW 66 : ... .. 4 ... ... ... ... : F-3 00 . ... ... ... ... : ... .. . ... : ... .. . ... : ... .. . ...
ROW 67 : ... .. . ... ... ... ... : ... .. . ... ... ... ... : ... .. . ... : ... .. . ... : ... .. . ...
ROW 68 : ... .. 3 ... ... ... ... : A#3 00 4 ... ... ... ... : ... .. . ... : ... .. . ... : ... .. . ...
ROW 69 : ... .. . ... ... ... P81 : ... .. . ... ... ... ... : G-3 00 . ... : ... .. . ... : ... .. . ...
ROW 6A : ... .. 2 ... ... ... ... : C-3 00 . ... ... ... ... : ... .. . ... : ... .. . ... : ... .. . ...
ROW 6B : ... .. . ... ... ... ... : ... .. 3 ... ... ... ... : ... .. . ... : ... .. . ... : ... .. . ...
ROW 6C : ... .. 1 ... ... ... P80 : E-3 00 . ... ... ... ... : --- .. . ... : ... .. . ... : ... .. . ...
ROW 6D : F-4 00 . ... ... ... ... : ... .. . ... ... ... ... : ... .. . ... : ... .. . ... : ... .. . ...
ROW 6E : ... .. . ... ... ... ... : F-3 00 2 ... ... ... ... : ... .. . ... : ... .. . ... : ... .. . ...
ROW 6F : ... .. . ... ... ... ... : ... .. . ... ... ... ... : ... .. . ... : ... .. . ... : ... .. . ...
ROW 70 : E-4 00 6 ... ... ... ... : A#3 00 . ... ... ... ... : A#2 00 . ... : ... .. . ... : ... .. . ...
ROW 71 : ... .. . ... ... ... ... : ... .. 1 ... ... ... ... : ... .. . ... : ... .. . ... : ... .. . ...
ROW 72 : ... .. 5 ... ... ... ... : C-3 00 . ... ... ... ... : ... .. . ... : ... .. . ... : ... .. . ...
ROW 73 : ... .. . ... ... ... ... : ... .. . ... ... ... ... : --- .. . ... : ... .. . ... : ... .. . ...
ROW 74 : ... .. 4 ... ... ... ... : E-3 00 . ... ... ... ... : ... .. . ... : ... .. . ... : ... .. . ...
ROW 75 : ... .. . ... ... ... ... : ... .. . ... ... ... ... : ... .. . ... : ... .. . ... : ... .. . ...
ROW 76 : ... .. . ... ... ... ... : F-3 00 . ... ... ... ... : ... .. . ... : ... .. . ... : ... .. . ...
ROW 77 : ... .. . ... ... ... ... : D-4 00 1 V02 ... ... P81 : C-3 00 . ... : ... .. . ... : ... .. . ...
ROW 78 : ... .. . ... ... ... ... : ... .. . ... ... ... ... : ... .. . ... : ... .. . ... : ... .. . ...
ROW 79 : ... .. . ... ... ... ... : ... .. . ... ... ... ... : ... .. . ... : ... .. . ... : ... .. . ...
ROW 7A : ... .. . ... ... ... ... : ... .. . ... ... ... ... : --- .. . ... : ... .. . ... : ... .. . ...
ROW 7B : ... .. . ... ... ... ... : ... .. . ... ... ... ... : ... .. . ... : ... .. . ... : ... .. . ...
ROW 7C : ... .. . ... ... ... ... : ... .. . ... ... ... ... : ... .. . ... : ... .. . ... : ... .. . ...
ROW 7D : ... .. . ... ... ... ... : ... .. . ... ... ... ... : ... .. . ... : ... .. . ... : ... .. . ...
ROW 7E : ... .. . ... ... ... P81 : E-4 00 . ... ... ... ... : ... .. . ... : ... .. . ... : ... .. . ...
ROW 7F : ... .. . ... ... ... ... : ... .. . ... ... ... ... : ... .. . ... : ... .. . ... : ... .. . ...
ROW 80 : ... .. . ... ... ... ... : ... .. . ... ... ... ... : ... .. . ... : ... .. . ... : ... .. . ...
ROW 81 : ... .. . ... ... ... P80 : ... .. . ... ... ... ... : ... .. . ... : ... .. . ... : ... .. . ...
ROW 82 : ... .. . ... ... ... ... : ... .. . ... ... ... ... : ... .. . ... : ... .. . ... : ... .. . ...
ROW 83 : ... .. . ... ... ... ... : ... .. . ... ... ... ... : ... .. . ... : ... .. . ... : ... .. . ...
ROW 84 : ... .. . ... ... ... P7F : ... .. . ... ... ... ... : ... .. . ... : ... .. . ... : ... .. . ...
ROW 85 : ... .. . ... ... ... ... : ... .. . ... ... ... ... : D#3 00 . ... : ... .. . ... : ... .. . ...
ROW 86 : ... .. 3 ... ... ... ... : ... .. . ... ... ... ... : ... .. . ... : ... .. . ... : ... .. . ...
ROW 87 : ... .. . ... ... ... P80 : ... .. . ... ... ... ... : ... .. . ... : ... .. . ... : ... .. . ...
ROW 88 : ... .. 2 ... ... ... ... : ... .. . ... ... ... ... : ... .. . ... : ... .. . ... : ... .. . ...
ROW 89 : ... .. . ... ... ... ... : ... .. . ... ... ... ... : ... .. . ... : ... .. . ... : ... .. . ...
ROW 8A : ... .. 1 ... ... ... P81 : ... .. . ... ... ... ... : ... .. . ... : ... .. . ... : ... .. . ...
ROW 8B : ... .. . ... ... ... ... : ... .. . ... ... ... ... : ... .. . ... : ... .. . ... : ... .. . ...
ROW 8C : G-4 00 6 ... ... ... P80 : ... .. . ... ... ... ... : ... .. . ... : ... .. . ... : ... .. . ...
ROW 8D : ... .. . ... ... ... ... : ... .. . ... ... ... ... : ... .. . ... : ... .. . ... : ... .. . ...
ROW 8E : ... .. 5 ... ... ... ... : ... .. . ... ... ... ... : ... .. . ... : ... .. . ... : ... .. . ...
ROW 8F : ... .. . ... ... ... ... : ... .. . ... ... ... ... : --- .. . ... : ... .. . ... : ... .. . ...
ROW 90 : ... .. 4 ... ... ... ... : ... .. . ... ... ... ... : ... .. . ... : ... .. . ... : ... .. . ...
ROW 91 : ... .. . ... ... ... ... : ... .. . ... ... ... ... : ... .. . ... : ... .. . ... : ... .. . ...
ROW 92 : ... .. . ... ... ... ... : ... .. . ... ... ... ... : ... .. . ... : ... .. . ... : ... .. . ...
ROW 93 : ... .. . ... ... ... ... : C-3 00 6 V01 ... ... P80 : G-2 00 . ... : ... .. . ... : ... .. . ...
ROW 94 : ... .. . ... ... ... ... : ... .. . ... ... ... ... : ... .. . ... : ... .. . ... : ... .. . ...
ROW 95 : ... .. . ... ... ... ... : E-3 00 . ... ... ... ... : ... .. . ... : ... .. . ... : ... .. . ...
ROW 96 : ... .. . ... ... ... ... : ... .. 5 ... ... ... ... : --- .. . ... : ... .. . ... : ... .. . ...
ROW 97 : ... .. . ... ... ... ... : F-3 00 . ... ... ... ... : ... .. . ... : ... .. . ... : ... .. . ...
ROW 98 : ... .. . ... ... ... ... : ... .. . ... ... ... ... : ... .. . ... : ... .. . ... : ... .. . ...
ROW 99 : ... .. . ... ... ... ... : A#3 00 4 ... ... ... ... : ... .. . ... : ... .. . ... : ... .. . ...
ROW 9A : ... .. . ... ... ... P81 : ... .. . ... ... ... ... : A#2 00 . ... : ... .. . ... : ... .. . ...
ROW 9B : ... .. . ... ... ... ... : C-3 00 . ... ... ... ... : ... .. . ... : ... .. . ... : ... .. . ...
ROW 9C : ... .. . ... ... ... ... : ... .. 3 ... ... ... ... : ... .. . ... : ... .. . ... : ... .. . ...
ROW 9D : ... .. . ... ... ... P80 : E-3 00 . ... ... ... ... : ... .. . ... : ... .. . ... : ... .. . ...
ROW 9E : ... .. . ... ... ... ... : ... .. . ... ... ... ... : --- .. . ... : ... .. . ... : ... .. . ...
ROW 9F : ... .. . ... ... ... ... : F-3 00 2 ... ... ... ... : ... .. . ... : ... .. . ... : ... .. . ...
ROW A0 : ... .. . ... ... ... P7F : ... .. . ... ... ... ... : ... .. . ... : ... .. . ... : ... .. . ...
ROW A1 : ... .. . ... ... ... ... : A#3 00 . ... ... ... ... : C-3 00 . ... : ... .. . ... : ... .. . ...
ROW A2 : ... .. 3 ... ... ... ... : ... .. 1 ... ... ... ... : ... .. . ... : ... .. . ... : ... .. . ...
ROW A3 : ... .. . ... ... ... P80 : C-3 00 . ... ... ... ... : ... .. . ... : ... .. . ... : ... .. . ...
ROW A4 : ... .. 2 ... ... ... ... : ... .. . ... ... ... ... : ... .. . ... : ... .. . ... : ... .. . ...
ROW A5 : ... .. . ... ... ... ... : E-3 00 . ... ... ... ... : ... .. . ... : ... .. . ... : ... .. . ...
ROW A6 : ... .. 1 ... ... ... P81 : ... .. . ... ... ... ... : ... .. . ... : ... .. . ... : ... .. . ...
ROW A7 : ... .. . ... ... ... ... : F-3 00 . ... ... ... ... : ... .. . ... : ... .. . ... : ... .. . ...
ROW A8 : E-4 00 6 ... ... ... P80 : G-4 00 1 V02 ... ... P81 : ... .. . ... : ... .. . ... : ... .. . ...
ROW A9 : ... .. . ... ... ... ... : ... .. . ... ... ... ... : ... .. . ... : ... .. . ... : ... .. . ...
ROW AA : ... .. 5 ... ... ... ... : ... .. . ... ... ... ... : ... .. . ... : ... .. . ... : ... .. . ...
ROW AB : ... .. . ... ... ... ... : ... .. . ... ... ... ... : ... .. . ... : ... .. . ... : ... .. . ...
ROW AC : ... .. 4 ... ... ... ... : ... .. . ... ... ... ... : ... .. . ... : ... .. . ... : ... .. . ...
ROW AD : ... .. . ... ... ... ... : ... .. . ... ... ... ... : ... .. . ... : ... .. . ... : ... .. . ...
ROW AE : ... .. . ... ... ... ... : ... .. . ... ... ... ... : ... .. . ... : ... .. . ... : ... .. . ...
ROW AF : ... .. . ... ... ... ... : ... .. . ... ... ... ... : ... .. . ... : ... .. . ... : ... .. . ...
ROW B0 : ... .. . ... ... ... ... : ... .. . ... ... ... ... : ... .. . ... : ... .. . ... : ... .. . ...
ROW B1 : ... .. . ... ... ... ... : ... .. . ... ... ... ... : ... .. . ... : ... .. . ... : ... .. . ...
ROW B2 : ... .. . ... ... ... ... : ... .. . ... ... ... ... : ... .. . ... : ... .. . ... : ... .. . ...
ROW B3 : ... .. . ... ... ... ... : ... .. . ... ... ... ... : ... .. . ... : ... .. . ... : ... .. . ...
ROW B4 : ... .. . ... ... ... ... : ... .. . ... ... ... ... : ... .. . ... : ... .. . ... : ... .. . ...
ROW B5 : ... .. . ... ... ... ... : ... .. . ... ... ... ... : ... .. . ... : ... .. . ... : ... .. . ...
ROW B6 : ... .. . ... ... ... P81 : E-4 00 . ... ... ... ... : ... .. . ... : ... .. . ... : ... .. . ...
ROW B7 : ... .. . ... ... ... ... : ... .. . ... ... ... ... : ... .. . ... : ... .. . ... : ... .. . ...
ROW B8 : ... .. . ... ... ... ... : ... .. . ... ... ... ... : ... .. . ... : ... .. . ... : ... .. . ...
ROW B9 : ... .. . ... ... ... P80 : ... .. . ... ... ... ... : ... .. . ... : ... .. . ... : ... .. . ...
ROW BA : ... .. . ... ... ... ... : ... .. . ... ... ... ... : --- .. . ... : ... .. . ... : ... .. . ...
ROW BB : ... .. . ... ... ... ... : ... .. . ... ... ... ... : ... .. . ... : ... .. . ... : ... .. . ...
ROW BC : ... .. . ... ... ... P7F : ... .. . ... ... ... ... : ... .. . ... : ... .. . ... : ... .. . ...
ROW BD : ... .. . ... ... ... ... : ... .. . ... ... ... ... : C-3 00 . ... : ... .. . ... : ... .. . ...
ROW BE : ... .. 3 ... ... ... ... : ... .. . ... ... ... ... : ... .. . ... : ... .. . ... : ... .. . ...
ROW BF : ... .. . ... ... ... P80 : ... .. . ... ... ... ... : ... .. . ... : ... .. . ... : ... .. . ...
ROW C0 : ... .. 2 ... ... ... ... : ... .. . ... ... ... ... : --- .. . ... : ... .. . ... : ... .. . ...
ROW C1 : ... .. . ... ... ... ... : ... .. . ... ... ... ... : ... .. . ... : ... .. . ... : ... .. . ...
ROW C2 : ... .. 1 ... ... ... P81 : ... .. . ... ... ... ... : ... .. . ... : ... .. . ... : ... .. . ...
ROW C3 : ... .. . ... ... ... ... : ... .. . ... ... ... ... : ... .. . ... : ... .. . ... : ... .. . ...
ROW C4 : G-4 00 6 ... ... ... P80 : ... .. . ... ... ... ... : F-3 00 . ... : ... .. . ... : ... .. . ...
ROW C5 : ... .. . ... ... ... ... : ... .. . ... ... ... ... : ... .. . ... : ... .. . ... : ... .. . ...
ROW C6 : ... .. 5 ... ... ... ... : ... .. . ... ... ... ... : ... .. . ... : ... .. . ... : ... .. . ...
ROW C7 : ... .. . ... ... ... ... : ... .. . ... ... ... ... : --- .. . ... : ... .. . ... : ... .. . ...
ROW C8 : ... .. 4 ... ... ... ... : ... .. . ... ... ... ... : ... .. . ... : ... .. . ... : ... .. . ...
ROW C9 : ... .. . ... ... ... ... : ... .. . ... ... ... ... : ... .. . ... : ... .. . ... : ... .. . ...
ROW CA : ... .. . ... ... ... ... : ... .. . ... ... ... ... : ... .. . ... : ... .. . ... : ... .. . ...
ROW CB : ... .. . ... ... ... ... : ... .. . ... ... ... ... : G-3 00 . ... : ... .. . ... : ... .. . ...
ROW CC : ... .. . ... ... ... ... : ... .. . ... ... ... ... : ... .. . ... : ... .. . ... : ... .. . ...
ROW CD : ... .. . ... ... ... ... : ... .. . ... ... ... ... : ... .. . ... : ... .. . ... : ... .. . ...
ROW CE : ... .. . ... ... ... ... : ... .. . ... ... ... ... : ... .. . ... : ... .. . ... : ... .. . ...
ROW CF : ... .. . ... ... ... ... : ... .. . ... ... ... ... : --- .. . ... : ... .. . ... : ... .. . ...
ROW D0 : ... .. . ... ... ... ... : ... .. . ... ... ... ... : ... .. . ... : ... .. . ... : ... .. . ...
ROW D1 : ... .. . ... ... ... ... : ... .. . ... ... ... ... : ... .. . ... : ... .. . ... : ... .. . ...
ROW D2 : ... .. . ... ... ... P81 : C-3 00 6 V01 ... ... ... : A#3 00 . ... : ... .. . ... : ... .. . ...
ROW D3 : ... .. . ... ... ... ... : ... .. . ... ... ... ... : ... .. . ... : ... .. . ... : ... .. . ...
ROW D4 : ... .. . ... ... ... ... : E-3 00 . ... ... ... ... : ... .. . ... : ... .. . ... : ... .. . ...
ROW D5 : ... .. . ... ... ... P80 : ... .. 5 ... ... ... ... : --- .. . ... : ... .. . ... : ... .. . ...
ROW D6 : ... .. . ... ... ... ... : F-3 00 . ... ... ... ... : ... .. . ... : ... .. . ... : ... .. . ...
ROW D7 : ... .. . ... ... ... ... : ... .. . ... ... ... ... : ... .. . ... : ... .. . ... : ... .. . ...
ROW D8 : ... .. . ... ... ... P7F : A#3 00 4 ... ... ... ... : ... .. . ... : ... .. . ... : ... .. . ...
ROW D9 : ... .. . ... ... ... ... : ... .. . ... ... ... ... : C-4 00 . ... : ... .. . ... : ... .. . ...
ROW DA : ... .. . ... ... ... ... : C-3 00 . ... ... ... ... : ... .. . ... : ... .. . ... : ... .. . ...
ROW DB : ... .. . ... ... ... P80 : ... .. 3 ... ... ... ... : ... .. . ... : ... .. . ... : ... .. . ...
ROW DC : ... .. . ... ... ... ... : E-3 00 . ... ... ... ... : ... .. . ... : ... .. . ... : ... .. . ...
ROW DD : ... .. . ... ... ... ... : ... .. . ... ... ... ... : --- .. . ... : ... .. . ... : ... .. . ...
ROW DE : ... .. . ... ... ... P81 : F-3 00 2 ... ... ... ... : ... .. . ... : ... .. . ... : ... .. . ...
ROW DF : ... .. . ... ... ... ... : ... .. . ... ... ... ... : ... .. . ... : ... .. . ... : ... .. . ...

PATTERN 22
ROW 00 : ... .. . ... ... ... ... : --- .. . ... ... ... ... : G#1 00 . ... : 2-# 00 6 ... : ... .. . ...
ROW 01 : ... .. . ... ... ... P80 : ... .. . ... ... ... ... : ... .. . ... : ... .. 4 ... : ... .. . ...
ROW 02 : ... .. . ... ... ... ... : ... .. . ... ... ... ... : ... .. . ... : ... .. 2 ... : ... .. . ...
ROW 03 : ... .. . ... ... ... ... : ... .. . ... ... ... ... : ... .. . ... : ... .. 1 ... : ... .. . ...
ROW 04 : ... .. . ... ... ... P7F : ... .. . ... ... ... ... : --- .. . ... : ... .. 0 ... : ... .. . ...
ROW 05 : ... .. 3 ... ... ... ... : ... .. . ... ... ... ... : ... .. . ... : ... .. . ... : ... .. . ...
ROW 06 : ... .. . ... ... ... ... : ... .. . ... ... ... ... : ... .. . ... : ... .. . ... : ... .. . ...
ROW 07 : ... .. . ... ... ... P80 : ... .. . ... ... ... ... : G#1 00 . ... : F-# 00 6 ... : ... .. . ...
ROW 08 : ... .. 2 ... ... ... ... : ... .. . ... ... ... ... : ... .. . ... : ... .. 4 ... : ... .. . ...
ROW 09 : ... .. . ... ... ... ... : ... .. . ... ... ... ... : ... .. . ... : ... .. 2 ... : ... .. . ...
ROW 0A : ... .. . ... ... ... P81 : ... .. . ... ... ... ... : ... .. . ... : ... .. 1 ... : ... .. . ...
ROW 0B : ... .. 1 ... ... ... ... : ... .. . ... ... ... ... : ... .. . ... : ... .. 0 ... : ... .. . ...
ROW 0C : ... .. . ... ... ... ... : ... .. . ... ... ... ... : --- .. . ... : ... .. . ... : ... .. . ...
ROW 0D : ... .. . ... ... ... P80 : ... .. . ... ... ... ... : ... .. . ... : ... .. . ... : ... .. . ...
ROW 0E : C-4 00 6 V02 ... ... ... : ... .. . ... ... ... ... : G#1 00 . ... : E-# 00 6 ... : ... .. . ...
ROW 0F : ... .. . ... ... ... ... : ... .. . ... ... ... ... : ... .. . ... : ... .. 4 ... : ... .. . ...
ROW 10 : ... .. 5 ... ... ... ... : ... .. . ... ... ... ... : ... .. . ... : ... .. 2 ... : ... .. . ...
ROW 11 : ... .. . ... ... ... ... : ... .. . ... ... ... ... : ... .. . ... : ... .. 1 ... : ... .. . ...
ROW 12 : ... .. 4 ... ... ... ... : ... .. . ... ... ... ... : --- .. . ... : ... .. 0 ... : ... .. . ...
ROW 13 : ... .. . ... ... ... ... : ... .. . ... ... ... ... : ... .. . ... : ... .. . ... : ... .. . ...
ROW 14 : ... .. 3 ... ... ... ... : ... .. . ... ... ... ... : ... .. . ... : ... .. . ... : ... .. . ...
ROW 15 : ... .. . ... ... ... P81 : G-3 00 6 V01 ... ... P80 : ... .. . ... : 2-# 00 6 ... : ... .. . ...
ROW 16 : ... .. 2 ... ... ... ... : ... .. . ... ... ... ... : ... .. . ... : ... .. 4 ... : ... .. . ...
ROW 17 : ... .. . ... ... ... ... : G#3 00 . ... ... ... ... : ... .. . ... : ... .. 2 ... : ... .. . ...
ROW 18 : ... .. 1 ... ... ... P80 : ... .. 5 ... ... ... ... : ... .. . ... : ... .. 1 ... : ... .. . ...
ROW 19 : ... .. . ... ... ... ... : C-4 00 . ... ... ... ... : ... .. . ... : ... .. 0 ... : ... .. . ...
ROW 1A : ... .. . ... ... ... ... : ... .. . ... ... ... ... : ... .. . ... : ... .. . ... : ... .. . ...
ROW 1B : ... .. . ... ... ... ... : D#4 00 4 ... ... ... ... : ... .. . ... : ... .. . ... : ... .. . ...
ROW 1C : D-4 00 6 ... ... ... ... : ... .. . ... ... ... ... : ... .. . ... : 7-# 00 6 ... : ... .. . ...
ROW 1D : ... .. . ... ... ... ... : G-3 00 . ... ... ... ... : ... .. . ... : ... .. 4 ... : ... .. . ...
ROW 1E : ... .. 5 ... ... ... ... : ... .. 3 ... ... ... ... : ... .. . ... : ... .. 2 ... : ... .. . ...
ROW 1F : ... .. . ... ... ... ... : G#3 00 . ... ... ... ... : ... .. . ... : ... .. 1 ... : ... .. . ...
ROW 20 : ... .. 4 ... ... ... ... : ... .. . ... ... ... ... : ... .. . ... : ... .. 0 ... : ... .. . ...
ROW 21 : ... .. . ... ... ... ... : C-4 00 2 ... ... ... ... : ... .. . ... : ... .. . ... : ... .. . ...
ROW 22 : ... .. 3 ... ... ... ... : ... .. . ... ... ... ... : ... .. . ... : ... .. . ... : ... .. . ...
ROW 23 : ... .. . ... ... ... P81 : D#4 00 . ... ... ... ... : ... .. . ... : F-# 00 6 ... : ... .. . ...
ROW 24 : ... .. 2 ... ... ... ... : ... .. 1 ... ... ... ... : ... .. . ... : ... .. 4 ... : ... .. . ...
ROW 25 : ... .. . ... ... ... ... : G#3 00 . ... ... ... ... : ... .. . ... : ... .. 2 ... : ... .. . ...
ROW 26 : ... .. 1 ... ... ... P80 : ... .. . ... ... ... ... : ... .. . ... : ... .. 1 ... : ... .. . ...
ROW 27 : C-4 00 . ... ... ... ... : A#3 00 . ... ... ... ... : ... .. . ... : ... .. 0 ... : ... .. . ...
ROW 28 : ... .. . ... ... ... ... : ... .. . ... ... ... ... : ... .. . ... : ... .. . ... : ... .. . ...
ROW 29 : ... .. . ... ... ... ... : C-4 00 . ... ... ... ... : ... .. . ... : ... .. . ... : ... .. . ...
ROW 2A : E-4 00 6 ... ... ... ... : D-4 00 1 V02 ... ... P81 : A#1 00 . ... : E-# 00 6 ... : ... .. . ...
ROW 2B : ... .. . ... ... ... ... : ... .. . ... ... ... ... : ... .. . ... : ... .. 4 ... : ... .. . ...
ROW 2C : ... .. 5 ... ... ... ... : ... .. . ... ... ... ... : ... .. . ... : ... .. 2 ... : ... .. . ...
ROW 2D : F-4 00 . ... ... ... ... : ... .. . ... ... ... ... : ... .. . ... : ... .. 1 ... : ... .. . ...
ROW 2E : ... .. 4 ... ... ... ... : ... .. . ... ... ... ... : ... .. . ... : ... .. 0 ... : ... .. . ...
ROW 2F : ... .. . ... ... ... ... : ... .. . ... ... ... ... : --- .. . ... : ... .. . ... : ... .. . ...
ROW 30 : ... .. 3 ... ... ... ... : ... .. . ... ... ... ... : ... .. . ... : ... .. . ... : ... .. . ...
ROW 31 : ... .. . ... ... ... P81 : ... .. . ... ... ... ... : A#1 00 . ... : 2-# 00 6 ... : ... .. . ...
ROW 32 : ... .. 2 ... ... ... ... : ... .. . ... ... ... ... : ... .. . ... : ... .. 4 ... : ... .. . ...
ROW 33 : ... .. . ... ... ... ... : ... .. . ... ... ... ... : ... .. . ... : ... .. 2 ... : ... .. . ...
ROW 34 : ... .. 1 ... ... ... P80 : ... .. . ... ... ... ... : ... .. . ... : ... .. 1 ... : ... .. . ...
ROW 35 : D-4 00 . ... ... ... ... : ... .. . ... ... ... ... : ... .. . ... : ... .. 0 ... : ... .. . ...
ROW 36 : ... .. . ... ... ... ... : ... .. . ... ... ... ... : --- .. . ... : ... .. . ... : ... .. . ...
ROW 37 : ... .. . ... ... ... ... : ... .. . ... ... ... ... : ... .. . ... : ... .. . ... : ... .. . ...
ROW 38 : E-4 00 6 ... ... ... ... : E-4 00 . ... ... ... ... : ... .. . ... : F-# 00 6 ... : ... .. . ...
ROW 39 : ... .. . ... ... ... ... : ... .. . ... ... ... ... : ... .. . ... : ... .. 4 ... : ... .. . ...
ROW 3A : ... .. . ... ... ... ... : ... .. . ... ... ... ... : ... .. . ... : ... .. 2 ... : ... .. . ...
ROW 3B : ... .. 5 ... ... ... ... : F-4 00 . ... ... ... ... : ... .. . ... : ... .. 1 ... : ... .. . ...
ROW 3C : ... .. . ... ... ... ... : ... .. . ... ... ... ... : ... .. . ... : ... .. 0 ... : ... .. . ...
ROW 3D : ... .. . ... ... ... ... : ... .. . ... ... ... ... : ... .. . ... : ... .. . ... : ... .. . ...
ROW 3E : ... .. 4 ... ... ... ... : ... .. . ... ... ... ... : ... .. . ... : ... .. . ... : ... .. . ...
ROW 3F : ... .. . ... ... ... P81 : ... .. . ... ... ... ... : E-2 00 . ... : E-# 00 6 ... : ... .. . ...
ROW 40 : ... .. . ... ... ... ... : ... .. . ... ... ... ... : ... .. . ... : ... .. 4 ... : ... .. . ...
ROW 41 : ... .. 3 ... ... ... ... : ... .. . ... ... ... ... : ... .. . ... : ... .. 2 ... : ... .. . ...
ROW 42 : ... .. . ... ... ... P80 : ... .. . ... ... ... ... : --- .. . ... : ... .. 1 ... : ... .. . ...
ROW 43 : ... .. . ... ... ... ... : ... .. . ... ... ... ... : ... .. . ... : ... .. 0 ... : ... .. . ...
ROW 44 : F-4 00 1 ... ... ... ... : ... .. . ... ... ... ... : ... .. . ... : ... .. . ... : ... .. . ...
ROW 45 : ... .. . ... ... ... ... : ... .. . ... ... ... ... : ... .. . ... : ... .. . ... : ... .. . ...
ROW 46 : C-4 00 6 ... ... ... ... : E-4 00 . ... ... ... ... : A#2 00 . ... : 2-# 00 6 ... : ... .. . ...
ROW 47 : ... .. . ... ... ... ... : ... .. . ... ... ... ... : ... .. . ... : ... .. 4 ... : ... .. . ...
ROW 48 : ... .. 5 ... ... ... ... : ... .. . ... ... ... ... : ... .. . ... : ... .. 2 ... : ... .. . ...
ROW 49 : ... .. . ... ... ... ... : ... .. . ... ... ... ... : ... .. . ... : ... .. 1 ... : ... .. . ...
ROW 4A : ... .. 4 ... ... ... ... : ... .. . ... ... ... ... : ... .. . ... : ... .. 0 ... : ... .. . ...
ROW 4B : ... .. . ... ... ... ... : ... .. . ... ... ... ... : ... .. . ... : ... .. . ... : ... .. . ...
ROW 4C : ... .. 3 ... ... ... ... : ... .. . ... ... ... ... : ... .. . ... : ... .. . ... : ... .. . ...
ROW 4D : ... .. . ... ... ... P81 : ... .. . ... ... ... ... : ... .. . ... : F-# 00 6 ... : ... .. . ...
ROW 4E : ... .. 2 ... ... ... ... : ... .. . ... ... ... ... : ... .. . ... : ... .. 4 ... : ... .. . ...
ROW 4F : ... .. . ... ... ... ... : ... .. . ... ... ... ... : ... .. . ... : ... .. 2 ... : ... .. . ...
ROW 50 : ... .. 1 ... ... ... P80 : ... .. . ... ... ... ... : ... .. . ... : ... .. 1 ... : ... .. . ...
ROW 51 : E-4 00 . ... ... ... ... : ... .. . ... ... ... ... : ... .. . ... : ... .. 0 ... : ... .. . ...
ROW 52 : ... .. . ... ... ... ... : ... .. . ... ... ... ... : ... .. . ... : ... .. . ... : ... .. . ...
ROW 53 : ... .. . ... ... ... ... : ... .. . ... ... ... ... : ... .. . ... : ... .. . ... : ... .. . ...
ROW 54 : D-4 00 6 ... ... ... ... : A#3 00 6 V01 ... ... P80 : ... .. . ... : 7-# 00 6 ... : ... .. . ...
ROW 55 : ... .. . ... ... ... ... : ... .. . ... ... ... ... : ... .. . ... : ... .. 4 ... : ... .. . ...
ROW 56 : ... .. 5 ... ... ... ... : C-4 00 . ... ... ... ... : ... .. . ... : ... .. 2 ... : ... .. . ...
ROW 57 : ... .. . ... ... ... ... : ... .. 5 ... ... ... ... : ... .. . ... : ... .. 1 ... : ... .. . ...
ROW 58 : ... .. 4 ... ... ... ... : D-4 00 . ... ... ... ... : ... .. . ... : ... .. 0 ... : ... .. . ...
ROW 59 : ... .. . ... ... ... ... : ... .. . ... ... ... ... : ... .. . ... : ... .. . ... : ... .. . ...
ROW 5A : ... .. 3 ... ... ... ... : F-4 00 4 ... ... ... ... : ... .. . ... : ... .. . ... : ... .. . ...
ROW 5B : ... .. . ... ... ... P81 : ... .. . ... ... ... ... : ... .. . ... : F-# 00 6 ... : ... .. . ...
ROW 5C : ... .. 2 ... ... ... ... : A#3 00 . ... ... ... ... : ... .. . ... : ... .. 4 ... : ... .. . ...
ROW 5D : ... .. . ... ... ... ... : ... .. 3 ... ... ... ... : ... .. . ... : ... .. 2 ... : ... .. . ...
ROW 5E : ... .. 1 ... ... ... P80 : C-4 00 . ... ... ... ... : ... .. . ... : ... .. 1 ... : ... .. . ...
ROW 5F : C-4 00 . ... ... ... ... : ... .. . ... ... ... ... : --- .. . ... : ... .. 0 ... : ... .. . ...
ROW 60 : ... .. . ... ... ... ... : D-4 00 2 ... ... ... ... : ... .. . ... : ... .. . ... : ... .. . ...
ROW 61 : ... .. . ... ... ... ... : ... .. . ... ... ... ... : ... .. . ... : ... .. . ... : ... .. . ...
ROW 62 : A-4 00 6 ... ... ... ... : F-4 00 . ... ... ... ... : G-1 00 . ... : E-# 00 6 ... : ... .. . ...
ROW 63 : ... .. . ... ... ... ... : ... .. 1 ... ... ... ... : ... .. . ... : ... .. 4 ... : ... .. . ...
ROW 64 : ... .. 5 ... ... ... ... : A#3 00 . ... ... ... ... : ... .. . ... : ... .. 2 ... : ... .. . ...
ROW 65 : ... .. . ... ... ... ... : ... .. . ... ... ... ... : --- .. . ... : ... .. 1 ... : ... .. . ...
ROW 66 : ... .. 4 ... ... ... ... : C-4 00 . ... ... ... ... : ... .. . ... : ... .. 0 ... : ... .. . ...
ROW 67 : ... .. . ... ... ... ... : ... .. . ... ... ... ... : ... .. . ... : ... .. . ... : ... .. . ...
ROW 68 : ... .. 3 ... ... ... ... : D-4 00 . ... ... ... ... : ... .. . ... : ... .. . ... : ... .. . ...
ROW 69 : ... .. . ... ... ... P81 : D-4 00 1 V02 ... ... P81 : A#1 00 . ... : 2-# 00 6 ... : ... .. . ...
ROW 6A : ... .. 2 ... ... ... ... : ... .. . ... ... ... ... : ... .. . ... : ... .. 4 ... : ... .. . ...
ROW 6B : ... .. . ... ... ... ... : ... .. . ... ... ... ... : ... .. . ... : ... .. 2 ... : ... .. . ...
ROW 6C : ... .. 1 ... ... ... P80 : ... .. . ... ... ... ... : ... .. . ... : ... .. 1 ... : ... .. . ...
ROW 6D : D-4 00 . ... ... ... ... : ... .. . ... ... ... ... : --- .. . ... : ... .. 0 ... : ... .. . ...
ROW 6E : ... .. . ... ... ... ... : ... .. . ... ... ... ... : ... .. . ... : ... .. . ... : ... .. . ...
ROW 6F : ... .. . ... ... ... ... : ... .. . ... ... ... ... : ... .. . ... : ... .. . ... : ... .. . ...
ROW 70 : G-4 00 6 ... ... ... ... : A-4 00 . ... ... ... ... : C-2 00 . ... : 2-# 00 6 ... : ... .. . ...
ROW 71 : ... .. . ... ... ... ... : ... .. . ... ... ... ... : ... .. . ... : ... .. 4 ... : ... .. . ...
ROW 72 : ... .. 5 ... ... ... ... : ... .. . ... ... ... ... : ... .. . ... : ... .. 2 ... : ... .. . ...
ROW 73 : ... .. . ... ... ... ... : ... .. . ... ... ... ... : ... .. . ... : ... .. 1 ... : ... .. . ...
ROW 74 : ... .. 4 ... ... ... ... : ... .. . ... ... ... ... : ... .. . ... : ... .. 0 ... : ... .. . ...
ROW 75 : ... .. . ... ... ... ... : ... .. . ... ... ... ... : ... .. . ... : ... .. . ... : ... .. . ...
ROW 76 : ... .. . ... ... ... ... : ... .. . ... ... ... ... : ... .. . ... : ... .. . ... : ... .. . ...
ROW 77 : A-4 00 6 ... ... ... ... : ... .. . ... ... ... ... : ... .. . ... : F-# 00 6 ... : ... .. . ...
ROW 78 : ... .. . ... ... ... ... : ... .. . ... ... ... ... : ... .. . ... : ... .. 4 ... : ... .. . ...
ROW 79 : ... .. 5 ... ... ... ... : ... .. . ... ... ... ... : ... .. . ... : ... .. 2 ... : ... .. . ...
ROW 7A : ... .. . ... ... ... ... : ... .. . ... ... ... ... : ... .. . ... : ... .. 1 ... : ... .. . ...
ROW 7B : ... .. 4 ... ... ... ... : ... .. . ... ... ... ... : --- .. . ... : ... .. 0 ... : ... .. . ...
ROW 7C : ... .. . ... ... ... ... : ... .. . ... ... ... ... : ... .. . ... : ... .. . ... : ... .. . ...
ROW 7D : ... .. . ... ... ... ... : ... .. . ... ... ... ... : ... .. . ... : ... .. . ... : ... .. . ...
ROW 7E : G-4 00 6 ... ... ... ... : G-4 00 . ... ... ... ... : C-2 00 . ... : E-# 00 6 ... : ... .. . ...
ROW 7F : ... .. . ... ... ... ... : ... .. . ... ... ... ... : ... .. . ... : ... .. 4 ... : ... .. . ...
ROW 80 : ... .. 5 ... ... ... ... : ... .. . ... ... ... ... : ... .. . ... : ... .. 2 ... : ... .. . ...
ROW 81 : ... .. . ... ... ... ... : ... .. . ... ... ... ... : ... .. . ... : ... .. 1 ... : ... .. . ...
ROW 82 : ... .. 4 ... ... ... ... : ... .. . ... ... ... ... : ... .. . ... : ... .. 0 ... : ... .. . ...
ROW 83 : ... .. . ... ... ... ... : ... .. . ... ... ... ... : --- .. . ... : ... .. . ... : ... .. . ...
ROW 84 : ... .. . ... ... ... ... : ... .. . ... ... ... ... : ... .. . ... : ... .. . ... : ... .. . ...
ROW 85 : ... .. . ... ... ... ... : ... .. . ... ... ... ... : C-2 00 . ... : 2-# 00 6 ... : ... .. . ...
ROW 86 : ... .. . ... ... ... ... : ... .. . ... ... ... ... : ... .. . ... : ... .. 4 ... : ... .. . ...
ROW 87 : ... .. . ... ... ... ... : ... .. . ... ... ... ... : ... .. . ... : ... .. 2 ... : ... .. . ...
ROW 88 : ... .. . ... ... ... ... : ... .. . ... ... ... ... : ... .. . ... : ... .. 1 ... : ... .. . ...
ROW 89 : ... .. . ... ... ... ... : ... .. . ... ... ... ... : ... .. . ... : ... .. 0 ... : ... .. . ...
ROW 8A : ... .. . ... ... ... ... : ... .. . ... ... ... ... : ... .. . ... : ... .. . ... : ... .. . ...
ROW 8B : ... .. . ... ... ... ... : ... .. . ... ... ... ... : ... .. . ... : ... .. . ... : ... .. . ...
ROW 8C : ... .. . ... ... ... ... : F-4 00 5 V02 ... ... P80 : ... .. . ... : 7-# 00 6 ... : ... .. . ...
ROW 8D : ... .. . ... ... ... ... : ... .. . ... ... ... ... : ... .. . ... : ... .. 4 ... : ... .. . ...
ROW 8E : ... .. . ... ... ... ... : ... .. 4 ... ... ... ... : ... .. . ... : ... .. 2 ... : ... .. . ...
ROW 8F : ... .. . ... ... ... ... : ... .. . ... ... ... ... : ... .. . ... : ... .. 1 ... : ... .. . ...
ROW 90 : ... .. . ... ... ... ... : ... .. 3 ... ... ... ... : ... .. . ... : ... .. 0 ... : ... .. . ...
ROW 91 : ... .. . ... ... ... ... : ... .. . ... ... ... ... : --- .. . ... : ... .. . ... : ... .. . ...
ROW 92 : ... .. . ... ... ... ... : ... .. . ... ... ... ... : ... .. . ... : ... .. . ... : ... .. . ...
ROW 93 : ... .. . ... ... ... ... : ... .. . ... ... ... ... : F-2 00 . ... : F-# 00 6 ... : ... .. . ...
ROW 94 : ... .. . ... ... ... ... : ... .. . ... ... ... ... : ... .. . ... : ... .. 4 ... : ... .. . ...
ROW 95 : ... .. . ... ... ... ... : ... .. . ... ... ... ... : ... .. . ... : ... .. 2 ... : ... .. . ...
ROW 96 : ... .. . ... ... ... ... : ... .. . ... ... ... ... : ... .. . ... : ... .. 1 ... : ... .. . ...
ROW 97 : ... .. . ... ... ... ... : ... .. . ... ... ... ... : ... .. . ... : ... .. 0 ... : ... .. . ...
ROW 98 : ... .. . ... ... ... ... : ... .. . ... ... ... ... : --- .. . ... : ... .. . ... : ... .. . ...
ROW 99 : ... .. . ... ... ... ... : ... .. . ... ... ... ... : ... .. . ... : ... .. . ... : ... .. . ...
ROW 9A : ... .. . ... ... ... ... : ... .. . ... ... ... ... : G-2 00 . ... : E-# 00 6 ... : ... .. . ...
ROW 9B : ... .. . ... ... ... ... : ... .. . ... ... ... ... : ... .. . ... : ... .. 4 ... : ... .. . ...
ROW 9C : ... .. . ... ... ... ... : ... .. . ... ... ... ... : ... .. . ... : ... .. 2 ... : ... .. . ...
ROW 9D : ... .. . ... ... ... ... : ... .. . ... ... ... ... : ... .. . ... : ... .. 1 ... : ... .. . ...
ROW 9E : ... .. . ... ... ... ... : ... .. . ... ... ... ... : ... .. . ... : ... .. 0 ... : ... .. . ...
ROW 9F : ... .. . ... ... ... ... : ... .. . ... ... ... ... : --- .. . ... : ... .. . ... : ... .. . ...
ROW A0 : ... .. . ... ... ... ... : ... .. . ... ... ... ... : ... .. . ... : ... .. . ... : ... .. . ...
ROW A1 : ... .. . ... ... ... ... : ... .. 1 ... ... ... ... : C-3 00 . ... : 2-# 00 6 ... : ... .. . ...
ROW A2 : ... .. . ... ... ... ... : ... .. . ... ... ... ... : ... .. . ... : ... .. 4 ... : ... .. . ...
ROW A3 : ... .. . ... ... ... ... : ... .. . ... ... ... ... : ... .. . ... : ... .. 2 ... : ... .. . ...
ROW A4 : ... .. . ... ... ... ... : ... .. . ... ... ... ... : ... .. . ... : ... .. 1 ... : ... .. . ...
ROW A5 : ... .. . ... ... ... ... : ... .. . ... ... ... ... : ... .. . ... : ... .. 0 ... : ... .. . ...
ROW A6 : ... .. . ... ... ... ... : ... .. . ... ... ... ... : ... .. . ... : ... .. . ... : ... .. . ...
ROW A7 : ... .. . ... ... ... ... : ... .. . ... ... ... ... : ... .. . ... : ... .. . ... : ... .. . ...
ROW A8 : ... .. . ... ... ... P7F : E-4 00 5 ... ... ... ... : ... .. . ... : F-# 00 6 ... : ... .. . ...
ROW A9 : ... .. . ... ... ... P7E : ... .. . ... ... ... ... : ... .. . ... : ... .. 4 ... : ... .. . ...
ROW AA : ... .. . ... ... ... P7D : ... .. 4 ... ... ... ... : ... .. . ... : ... .. 2 ... : ... .. . ...
ROW AB : ... .. . ... ... ... P7E : ... .. . ... ... ... ... : ... .. . ... : ... .. 1 ... : ... .. . ...
ROW AC : ... .. . ... ... ... P7F : ... .. 3 ... ... ... ... : ... .. . ... : ... .. 0 ... : ... .. . ...
ROW AD : ... .. . ... ... ... P80 : ... .. . ... ... ... ... : ... .. . ... : ... .. . ... : ... .. . ...
ROW AE : ... .. . ... ... ... P81 : ... .. . ... ... ... ... : ... .. . ... : ... .. . ... : ... .. . ...
ROW AF : ... .. . ... ... ... P82 : ... .. . ... ... ... ... : ... .. . ... : E-# 00 6 ... : ... .. . ...
ROW B0 : ... .. . ... ... ... P83 : ... .. . ... ... ... ... : ... .. . ... : ... .. 4 ... : ... .. . ...
ROW B1 : ... .. . ... ... ... P82 : ... .. . ... ... ... ... : ... .. . ... : ... .. 2 ... : ... .. . ...
ROW B2 : ... .. . ... ... ... P81 : ... .. . ... ... ... ... : ... .. . ... : ... .. 1 ... : ... .. . ...
ROW B3 : ... .. . ... ... ... P80 : ... .. . ... ... ... ... : ... .. . ... : ... .. 0 ... : ... .. . ...
ROW B4 : ... .. . ... ... ... P7F : ... .. . ... ... ... ... : ... .. . ... : ... .. . ... : ... .. . ...
ROW B5 : ... .. . ... ... ... P7E : ... .. . ... ... ... ... : ... .. . ... : ... .. . ... : ... .. . ...
ROW B6 : ... .. . ... ... ... P7D : ... .. . ... ... ... ... : ... .. . ... : 2-# 00 6 ... : ... .. . ...
ROW B7 : ... .. . ... ... ... P7E : ... .. . ... ... ... ... : ... .. . ... : ... .. 4 ... : ... .. . ...
ROW B8 : ... .. . ... ... ... P7F : ... .. . ... ... ... ... : ... .. . ... : ... .. 2 ... : ... .. . ...
ROW B9 : ... .. . ... ... ... P80 : ... .. . ... ... ... ... : ... .. . ... : ... .. 1 ... : ... .. . ...
ROW BA : ... .. . ... ... ... P81 : ... .. . ... ... ... ... : ... .. . ... : ... .. 0 ... : ... .. . ...
ROW BB : ... .. . ... ... ... P82 : ... .. . ... ... ... ... : ... .. . ... : ... .. . ... : ... .. . ...
ROW BC : ... .. . ... ... ... P83 : ... .. . ... ... ... ... : ... .. . ... : ... .. . ... : ... .. . ...
ROW BD : ... .. . ... ... ... P82 : ... .. . ... ... ... ... : ... .. . ... : F-# 00 6 ... : ... .. . ...
ROW BE : ... .. . ... ... ... P81 : ... .. . ... ... ... ... : ... .. . ... : ... .. 4 ... : ... .. . ...
ROW BF : ... .. . ... ... ... P80 : ... .. . ... ... ... ... : ... .. . ... : ... .. 2 ... : ... .. . ...
ROW C0 : ... .. . ... ... ... P7F : ... .. . ... ... ... ... : ... .. . ... : ... .. 1 ... : ... .. . ...
ROW C1 : ... .. . ... ... ... P7E : ... .. . ... ... ... ... : --- .. . ... : ... .. 0 ... : ... .. . ...
ROW C2 : ... .. . ... ... ... P7D : ... .. . ... ... ... ... : ... .. . ... : ... .. . ... : ... .. . ...
ROW C3 : ... .. . ... ... ... P7E : ... .. . ... ... ... ... : ... .. . ... : ... .. . ... : ... .. . ...
ROW C4 : ... .. . ... ... ... P7F : E-2 00 5 ... ... ... P80 : C-2 00 . ... : 7-# 00 6 ... : ... .. . ...
ROW C5 : ... .. . ... ... ... P80 : ... .. . ... ... ... ... : ... .. . ... : ... .. 4 ... : ... .. . ...
ROW C6 : ... .. . ... ... ... P81 : ... .. . ... ... ... ... : ... .. . ... : ... .. 2 ... : ... .. . ...
ROW C7 : ... .. . ... ... ... P82 : ... .. . ... ... ... ... : ... .. . ... : ... .. 1 ... : ... .. . ...
ROW C8 : ... .. . ... ... ... P83 : ... .. . ... ... ... ... : ... .. . ... : ... .. 0 ... : ... .. . ...
ROW C9 : ... .. . ... ... ... P82 : ... .. 1 ... ... ... ... : --- .. . ... : ... .. . ... : ... .. . ...
ROW CA : ... .. . ... ... ... P81 : ... .. . ... ... ... ... : ... .. . ... : ... .. . ... : ... .. . ...
ROW CB : ... .. . ... ... ... P80 : G-2 00 5 ... ... ... ... : E-2 00 . ... : F-# 00 6 ... : ... .. . ...
ROW CC : ... .. 3 ... ... ... P7F : ... .. . ... ... ... ... : ... .. . ... : ... .. 4 ... : ... .. . ...
ROW CD : ... .. . ... ... ... P7E : ... .. . ... ... ... ... : ... .. . ... : ... .. 2 ... : ... .. . ...
ROW CE : ... .. 2 ... ... ... P7D : ... .. . ... ... ... ... : ... .. . ... : ... .. 1 ... : ... .. . ...
ROW CF : ... .. . ... ... ... P7E : ... .. . ... ... ... ... : ... .. . ... : ... .. 0 ... : ... .. . ...
ROW D0 : ... .. 1 ... ... ... P7F : E-2 00 1 ... ... ... ... : --- .. . ... : ... .. . ... : ... .. . ...
ROW D1 : ... .. . ... ... ... P80 : ... .. . ... ... ... ... : ... .. . ... : ... .. . ... : ... .. . ...
ROW D2 : G-3 00 6 V00 ... ... P81 : C-3 00 5 ... ... ... ... : G-2 00 . ... : E-# 00 6 ... : ... .. . ...
ROW D3 : ... .. . ... ... ... ... : ... .. . ... ... ... ... : ... .. . ... : ... .. 4 ... : ... .. . ...
ROW D4 : ... .. . ... ... ... P80 : ... .. . ... ... ... ... : ... .. . ... : ... .. 2 ... : ... .. . ...
ROW D5 : ... .. . ... ... ... P7F : ... .. . ... ... ... ... : ... .. . ... : ... .. 1 ... : ... .. . ...
ROW D6 : ... .. . ... ... ... ... : ... .. . ... ... ... ... : ... .. . ... : ... .. 0 ... : ... .. . ...
ROW D7 : ... .. . ... ... ... P80 : G-2 00 1 ... ... ... ... : --- .. . ... : ... .. . ... : ... .. . ...
ROW D8 : ... .. 2 ... ... ... ... : ... .. . ... ... ... ... : ... .. . ... : ... .. . ... : ... .. . ...
ROW D9 : A-3 00 6 ... ... ... P81 : E-3 00 5 ... ... ... ... : C-3 00 . ... : 2-# 00 6 ... : ... .. . ...
ROW DA : ... .. . ... ... ... ... : ... .. . ... ... ... ... : ... .. . ... : ... .. 4 ... : ... .. . ...
ROW DB : ... .. . ... ... ... P80 : ... .. . ... ... ... ... : ... .. . ... : ... .. 2 ... : ... .. . ...
ROW DC : ... .. . ... ... ... P7F : ... .. . ... ... ... ... : ... .. . ... : ... .. 1 ... : ... .. . ...
ROW DD : ... .. . ... ... ... ... : ... .. . ... ... ... ... : ... .. . ... : ... .. 0 ... : ... .. . ...
ROW DE : G-3 00 2 ... ... ... P81 : C-3 00 1 ... ... ... ... : --- .. . ... : ... .. . ... : ... .. . ...
ROW DF : ... .. . ... ... ... ... : ... .. . ... ... ... ... : ... .. . ... : ... .. . ... : ... .. . ...

PATTERN 23
ROW 00 : A#3 00 6 ... ... ... P81 : D-5 00 6 V00 ... ... ... : D#2 00 . ... : F-# 00 2 ... : ... .. . ...
ROW 01 : ... .. . ... ... ... ... : ... .. 3 ... ... ... ... : ... .. . ... : ... .. . ... : ... .. . ...
ROW 02 : ... .. . ... ... ... P80 : A#4 00 6 ... ... ... ... : ... .. . ... : ... .. . ... : ... .. . ...
ROW 03 : ... .. . ... ... ... P7F : D-5 00 3 ... ... ... ... : ... .. . ... : ... .. . ... : ... .. . ...
ROW 04 : ... .. . ... ... ... ... : G-4 00 6 ... ... ... ... : ... .. . ... : E-# 00 . ... : ... .. . ...
ROW 05 : ... .. . ... ... ... P80 : A#4 00 3 ... ... ... ... : --- .. . ... : ... .. . ... : ... .. . ...
ROW 06 : ... .. . ... ... ... ... : F-4 00 6 ... ... ... ... : ... .. . ... : ... .. . ... : ... .. . ...
ROW 07 : ... .. . ... ... ... P81 : G-4 00 3 ... ... ... ... : A#2 00 . ... : ... .. . ... : ... .. . ...
ROW 08 : ... .. . ... ... ... P80 : D#4 00 6 ... ... ... ... : ... .. . ... : D-# 00 . ... : ... .. . ...
ROW 09 : ... .. . ... ... ... ... : ... .. 3 ... ... ... ... : ... .. . ... : ... .. . ... : ... .. . ...
ROW 0A : ... .. . ... ... ... P7F : F-4 00 3 ... ... ... ... : ... .. . ... : ... .. . ... : ... .. . ...
ROW 0B : A-3 00 2 ... ... ... P81 : A#3 00 6 ... ... ... ... : ... .. . ... : ... .. . ... : ... .. . ...
ROW 0C : ... .. . ... ... ... ... : D#4 00 3 ... ... ... ... : --- .. . ... : C-# 00 . ... : ... .. . ...
ROW 0D : ... .. . ... ... ... P80 : G-3 00 6 ... ... ... ... : ... .. . ... : ... .. . ... : ... .. . ...
ROW 0E : G-3 00 6 ... ... ... P81 : A#3 00 3 ... ... ... ... : D#3 00 . ... : ... .. . ... : ... .. . ...
ROW 0F : ... .. . ... ... ... ... : F-3 00 6 ... ... ... ... : ... .. . ... : ... .. . ... : ... .. . ...
ROW 10 : ... .. . ... ... ... P80 : G-3 00 3 ... ... ... ... : ... .. . ... : B-# 00 . ... : ... .. . ...
ROW 11 : ... .. . ... ... ... P7F : D#3 00 6 ... ... ... ... : ... .. . ... : ... .. . ... : ... .. . ...
ROW 12 : ... .. . ... ... ... ... : ... .. 3 ... ... ... ... : ... .. . ... : ... .. . ... : ... .. . ...
ROW 13 : ... .. . ... ... ... P80 : F-3 00 3 ... ... ... ... : --- .. . ... : ... .. . ... : ... .. . ...
ROW 14 : ... .. . ... ... ... ... : A#2 00 6 ... ... ... ... : ... .. . ... : A-# 00 . ... : ... .. . ...
ROW 15 : ... .. . ... ... ... P81 : D#3 00 3 ... ... ... ... : G-3 00 . ... : ... .. . ... : ... .. . ...
ROW 16 : ... .. . ... ... ... P80 : G-2 00 6 ... ... ... ... : ... .. . ... : ... .. . ... : ... .. . ...
ROW 17 : ... .. . ... ... ... ... : A#2 00 3 ... ... ... ... : ... .. . ... : ... .. . ... : ... .. . ...
ROW 18 : ... .. . ... ... ... P7F : F-2 00 6 ... ... ... ... : ... .. . ... : 9-# 00 . ... : ... .. . ...
ROW 19 : A#3 00 2 ... ... ... P81 : ... .. 3 ... ... ... ... : ... .. . ... : ... .. . ... : ... .. . ...
ROW 1A : ... .. . ... ... ... ... : G-2 00 3 ... ... ... ... : --- .. . ... : ... .. . ... : ... .. . ...
ROW 1B : ... .. . ... ... ... P80 : D#2 00 6 ... ... ... ... : ... .. . ... : ... .. . ... : ... .. . ...
ROW 1C : A-3 00 6 ... ... ... P81 : F-5 00 6 ... ... ... ... : F-2 00 . ... : 8-# 00 . ... : ... .. . ...
ROW 1D : ... .. . ... ... ... ... : ... .. 3 ... ... ... ... : ... .. . ... : ... .. . ... : ... .. . ...
ROW 1E : ... .. . ... ... ... P80 : D#2 00 3 ... ... ... ... : ... .. . ... : ... .. . ... : ... .. . ...
ROW 1F : ... .. . ... ... ... P7F : C-5 00 6 ... ... ... ... : ... .. . ... : ... .. . ... : ... .. . ...
ROW 20 : ... .. . ... ... ... ... : F-5 00 3 ... ... ... ... : ... .. . ... : 7-# 00 . ... : ... .. . ...
ROW 21 : ... .. . ... ... ... P80 : A-4 00 6 ... ... ... ... : --- .. . ... : ... .. . ... : ... .. . ...
ROW 22 : ... .. . ... ... ... ... : C-5 00 3 ... ... ... ... : ... .. . ... : ... .. . ... : ... .. . ...
ROW 23 : ... .. . ... ... ... P81 : G-4 00 6 ... ... ... ... : C-3 00 . ... : ... .. . ... : ... .. . ...
ROW 24 : ... .. . ... ... ... P80 : A-4 00 3 ... ... ... ... : ... .. . ... : 6-# 00 . ... : ... .. . ...
ROW 25 : ... .. . ... ... ... ... : F-4 00 6 ... ... ... ... : ... .. . ... : ... .. . ... : ... .. . ...
ROW 26 : ... .. . ... ... ... P7F : G-4 00 3 ... ... ... ... : ... .. . ... : ... .. . ... : ... .. . ...
ROW 27 : G-3 00 2 ... ... ... P81 : C-4 00 6 ... ... ... ... : ... .. . ... : ... .. . ... : ... .. . ...
ROW 28 : ... .. . ... ... ... ... : ... .. 3 ... ... ... ... : --- .. . ... : 5-# 00 . ... : ... .. . ...
ROW 29 : ... .. . ... ... ... P80 : F-4 00 3 ... ... ... ... : ... .. . ... : ... .. . ... : ... .. . ...
ROW 2A : C-4 00 6 ... ... ... P81 : A-3 00 6 ... ... ... ... : F-3 00 . ... : ... .. . ... : ... .. . ...
ROW 2B : ... .. . ... ... ... ... : C-4 00 3 ... ... ... ... : ... .. . ... : ... .. . ... : ... .. . ...
ROW 2C : ... .. . ... ... ... P80 : G-3 00 6 ... ... ... ... : ... .. . ... : 4-# 00 . ... : ... .. . ...
ROW 2D : ... .. . ... ... ... P7F : A-3 00 3 ... ... ... ... : ... .. . ... : ... .. . ... : ... .. . ...
ROW 2E : ... .. . ... ... ... ... : F-3 00 6 ... ... ... ... : ... .. . ... : ... .. . ... : ... .. . ...
ROW 2F : ... .. . ... ... ... P80 : G-3 00 3 ... ... ... ... : --- .. . ... : ... .. . ... : ... .. . ...
ROW 30 : ... .. . ... ... ... ... : C-3 00 6 ... ... ... ... : ... .. . ... : 3-# 00 . ... : ... .. . ...
ROW 31 : ... .. . ... ... ... P81 : ... .. 3 ... ... ... ... : A-3 00 . ... : ... .. . ... : ... .. . ...
ROW 32 : ... .. . ... ... ... P80 : F-3 00 3 ... ... ... ... : ... .. . ... : ... .. . ... : ... .. . ...
ROW 33 : ... .. . ... ... ... ... : A-2 00 6 ... ... ... ... : ... .. . ... : ... .. . ... : ... .. . ...
ROW 34 : ... .. . ... ... ... P7F : C-3 00 3 ... ... ... ... : ... .. . ... : 2-# 00 . ... : ... .. . ...
ROW 35 : A-3 00 2 ... ... ... P81 : G-2 00 6 ... ... ... ... : ... .. . ... : ... .. . ... : ... .. . ...
ROW 36 : ... .. . ... ... ... ... : ... .. 3 ... ... ... ... : --- .. . ... : ... .. . ... : ... .. . ...
ROW 37 : ... .. . ... ... ... P80 : A-2 00 3 ... ... ... ... : ... .. . ... : ... .. . ... : ... .. . ...
ROW 38 : F-3 00 6 ... ... ... P81 : A#0 00 4 V00 ... ... ... : A#2 00 . ... : 1-# 00 . ... : ... .. . ...
ROW 39 : ... .. . ... ... ... ... : ... .. . ... ... ... ... : ... .. . ... : ... .. . ... : ... .. . ...
ROW 3A : ... .. . ... ... ... P80 : ... .. . ... ... ... ... : ... .. . ... : ... .. . ... : ... .. . ...
ROW 3B : ... .. . ... ... ... P7F : ... .. . ... ... ... ... : ... .. . ... : ... .. . ... : ... .. . ...
ROW 3C : ... .. . ... ... ... ... : ... .. . ... ... ... ... : ... .. . ... : ... .. . ... : ... .. . ...
ROW 3D : ... .. . ... ... ... P80 : ... .. . ... ... ... ... : ... .. . ... : ... .. . ... : ... .. . ...
ROW 3E : ... .. . ... ... ... ... : ... .. . ... ... ... ... : ... .. . ... : ... .. . ... : ... .. . ...
ROW 3F : ... .. . ... ... ... P81 : ... .. . ... ... ... ... : ... .. . ... : ... .. . ... : ... .. . ...
ROW 40 : ... .. . ... ... ... P80 : ... .. . ... ... ... ... : ... .. . ... : ... .. . ... : ... .. . ...
ROW 41 : ... .. . ... ... ... ... : ... .. . ... ... ... ... : ... .. . ... : ... .. . ... : ... .. . ...
ROW 42 : ... .. . ... ... ... P7F : ... .. . ... ... ... ... : ... .. . ... : ... .. . ... : ... .. . ...
ROW 43 : ... .. . ... ... ... P80 : ... .. . ... ... ... ... : ... .. . ... : ... .. . ... : ... .. . ...
ROW 44 : ... .. . ... ... ... ... : ... .. . ... ... ... ... : ... .. . ... : ... .. . ... : ... .. . ...
ROW 45 : ... .. . ... ... ... P81 : ... .. . ... ... ... ... : ... .. . ... : ... .. . ... : ... .. . ...
ROW 46 : ... .. . ... ... ... ... : C-3 00 5 V00 ... ... P80 : E-4 00 . ... : ... .. . ... : ... .. . ...
ROW 47 : ... .. . ... ... ... P80 : ... .. . ... ... ... ... : ... .. . ... : ... .. . ... : ... .. . ...
ROW 48 : ... .. . ... ... ... P7F : ... .. . ... ... ... ... : ... .. . ... : ... .. . ... : ... .. . ...
ROW 49 : ... .. . ... ... ... ... : ... .. . ... ... ... ... : ... .. . ... : ... .. . ... : ... .. . ...
ROW 4A : ... .. . ... ... ... P80 : ... .. . ... ... ... ... : ... .. . ... : ... .. . ... : ... .. . ...
ROW 4B : ... .. . ... ... ... P81 : ... .. . ... ... ... ... : ... .. . ... : ... .. . ... : ... .. . ...
ROW 4C : ... .. . ... ... ... ... : ... .. . ... ... ... ... : ... .. . ... : ... .. . ... : ... .. . ...
ROW 4D : ... .. . ... ... ... P80 : ... .. . ... ... ... ... : ... .. . ... : ... .. . ... : ... .. . ...
ROW 4E : ... .. . ... ... ... ... : ... .. . ... ... ... ... : ... .. . ... : ... .. . ... : ... .. . ...
ROW 4F : ... .. . ... ... ... P7F : ... .. . ... ... ... ... : ... .. . ... : ... .. . ... : ... .. . ...
ROW 50 : ... .. . ... ... ... P80 : ... .. . ... ... ... ... : ... .. . ... : ... .. . ... : ... .. . ...
ROW 51 : ... .. . ... ... ... ... : ... .. . ... ... ... ... : ... .. . ... : ... .. . ... : ... .. . ...
ROW 52 : ... .. . ... ... ... P81 : ... .. . ... ... ... ... : ... .. . ... : ... .. . ... : ... .. . ...
ROW 53 : ... .. . ... ... ... P80 : ... .. . ... ... ... ... : ... .. . ... : ... .. . ... : ... .. . ...
ROW 54 : ... .. . ... ... ... ... : A#2 00 5 ... ... ... ... : D-4 00 . ... : ... .. 2 ... : ... .. . ...
ROW 55 : ... .. . ... ... ... P7F : ... .. . ... ... ... ... : ... .. . ... : ... .. . ... : ... .. . ...
ROW 56 : ... .. . ... ... ... ... : ... .. . ... ... ... ... : ... .. . ... : ... .. . ... : ... .. . ...
ROW 57 : ... .. . ... ... ... P80 : ... .. . ... ... ... ... : ... .. . ... : ... .. . ... : ... .. . ...
ROW 58 : ... .. . ... ... ... P81 : ... .. . ... ... ... ... : ... .. . ... : ... .. . ... : ... .. . ...
ROW 59 : ... .. . ... ... ... ... : ... .. . ... ... ... ... : ... .. . ... : ... .. . ... : ... .. . ...
ROW 5A : ... .. . ... ... ... P80 : ... .. . ... ... ... ... : ... .. . ... : ... .. . ... : ... .. . ...
ROW 5B : ... .. . ... ... ... P7F : ... .. . ... ... ... ... : ... .. . ... : ... .. . ... : ... .. . ...
ROW 5C : ... .. 3 ... ... ... ... : ... .. . ... ... ... ... : ... .. . ... : ... .. . ... : ... .. . ...
ROW 5D : ... .. . ... ... ... P80 : ... .. . ... ... ... ... : ... .. . ... : ... .. . ... : ... .. . ...
ROW 5E : ... .. 2 ... ... ... ... : ... .. . ... ... ... ... : ... .. . ... : ... .. . ... : ... .. . ...
ROW 5F : ... .. . ... ... ... P81 : ... .. . ... ... ... ... : ... .. . ... : ... .. . ... : ... .. . ...
ROW 60 : ... .. 1 ... ... ... P80 : ... .. . ... ... ... ... : ... .. . ... : ... .. . ... : ... .. . ...
ROW 61 : ... .. . ... ... ... P7E : ... .. . ... ... ... ... : ... .. . ... : ... .. . ... : ... .. . ...
ROW 62 : F-3 00 6 ... ... ... P81 : C-3 00 1 ... ... ... ... : --- .. . ... : ... .. 1 ... : ... .. . ...
ROW 63 : ... .. . ... ... ... ... : ... .. . ... ... ... ... : ... .. . ... : ... .. . ... : ... .. . ...
ROW 64 : ... .. . ... ... ... P80 : ... .. . ... ... ... ... : ... .. . ... : ... .. . ... : ... .. . ...
ROW 65 : ... .. . ... ... ... P7F : ... .. . ... ... ... ... : ... .. . ... : ... .. . ... : ... .. . ...
ROW 66 : ... .. . ... ... ... ... : ... .. . ... ... ... ... : ... .. . ... : ... .. . ... : ... .. . ...
ROW 67 : ... .. . ... ... ... P80 : ... .. . ... ... ... ... : ... .. . ... : ... .. . ... : ... .. . ...
ROW 68 : ... .. 2 ... ... ... ... : ... .. . ... ... ... ... : ... .. . ... : ... .. . ... : ... .. . ...
ROW 69 : G-3 00 6 ... ... ... P81 : --- .. . ... ... ... ... : ... .. . ... : ... .. . ... : ... .. . ...
ROW 6A : ... .. . ... ... ... ... : ... .. . ... ... ... ... : ... .. . ... : ... .. . ... : ... .. . ...
ROW 6B : ... .. . ... ... ... P80 : ... .. . ... ... ... ... : ... .. . ... : ... .. . ... : ... .. . ...
ROW 6C : ... .. . ... ... ... P7F : ... .. . ... ... ... ... : ... .. . ... : ... .. . ... : ... .. . ...
ROW 6D : ... .. . ... ... ... ... : ... .. . ... ... ... ... : ... .. . ... : ... .. . ... : ... .. . ...
ROW 6E : F-3 00 2 ... ... ... P80 : ... .. . ... ... ... ... : ... .. . ... : ... .. . ... : ... .. . ...
ROW 6F : ... .. . ... ... ... ... : ... .. . ... ... ... ... : ... .. . ... : ... .. . ... : ... .. . ...
ROW 70 : G#3 00 6 ... ... ... P81 : D#2 00 6 ... ... ... ... : F-3 00 . ... : 0-# 00 2 ... : ... .. . ...
ROW 71 : ... .. . ... ... ... ... : ... .. 3 ... ... ... ... : ... .. . ... : ... .. . ... : ... .. . ...
ROW 72 : ... .. . ... ... ... P80 : F-2 00 6 ... ... ... ... : ... .. . ... : ... .. . ... : ... .. . ...
ROW 73 : ... .. . ... ... ... P7F : D#2 00 3 ... ... ... ... : ... .. . ... : ... .. . ... : ... .. . ...
ROW 74 : ... .. . ... ... ... ... : G#2 00 6 ... ... ... ... : ... .. . ... : 1-# 00 . ... : ... .. . ...
ROW 75 : ... .. . ... ... ... P80 : F-2 00 3 ... ... ... ... : --- .. . ... : ... .. . ... : ... .. . ...
ROW 76 : ... .. . ... ... ... ... : C-3 00 6 ... ... ... ... : ... .. . ... : ... .. . ... : ... .. . ...
ROW 77 : ... .. . ... ... ... P81 : G#2 00 3 ... ... ... ... : C#3 00 . ... : ... .. . ... : ... .. . ...
ROW 78 : ... .. . ... ... ... P80 : C#3 00 6 ... ... ... ... : ... .. . ... : 2-# 00 . ... : ... .. . ...
ROW 79 : ... .. . ... ... ... ... : ... .. 3 ... ... ... ... : ... .. . ... : ... .. . ... : ... .. . ...
ROW 7A : ... .. . ... ... ... P7F : C-3 00 3 ... ... ... ... : ... .. . ... : ... .. . ... : ... .. . ...
ROW 7B : G-3 00 2 ... ... ... P80 : D#3 00 6 ... ... ... ... : ... .. . ... : ... .. . ... : ... .. . ...
ROW 7C : ... .. . ... ... ... ... : C#3 00 3 ... ... ... ... : --- .. . ... : 3-# 00 . ... : ... .. . ...
ROW 7D : ... .. . ... ... ... P81 : F-3 00 6 ... ... ... ... : ... .. . ... : ... .. . ... : ... .. . ...
ROW 7E : F-3 00 6 ... ... ... P81 : D#3 00 3 ... ... ... ... : G#2 00 . ... : ... .. . ... : ... .. . ...
ROW 7F : ... .. . ... ... ... ... : G#3 00 6 ... ... ... ... : ... .. . ... : ... .. . ... : ... .. . ...
ROW 80 : ... .. . ... ... ... P80 : F-3 00 3 ... ... ... ... : ... .. . ... : 4-# 00 . ... : ... .. . ...
ROW 81 : ... .. . ... ... ... P7F : C#4 00 6 ... ... ... ... : ... .. . ... : ... .. . ... : ... .. . ...
ROW 82 : ... .. . ... ... ... ... : ... .. 3 ... ... ... ... : ... .. . ... : ... .. . ... : ... .. . ...
ROW 83 : ... .. . ... ... ... P80 : G#3 00 3 ... ... ... ... : --- .. . ... : ... .. . ... : ... .. . ...
ROW 84 : ... .. . ... ... ... ... : D#4 00 6 ... ... ... ... : ... .. . ... : 5-# 00 . ... : ... .. . ...
ROW 85 : ... .. . ... ... ... P81 : C#4 00 3 ... ... ... ... : F-2 00 . ... : ... .. . ... : ... .. . ...
ROW 86 : ... .. . ... ... ... P80 : F-4 00 6 ... ... ... ... : ... .. . ... : ... .. . ... : ... .. . ...
ROW 87 : ... .. . ... ... ... ... : D#4 00 3 ... ... ... ... : ... .. . ... : ... .. . ... : ... .. . ...
ROW 88 : ... .. . ... ... ... P7F : G#4 00 6 ... ... ... ... : ... .. . ... : 6-# 00 . ... : ... .. . ...
ROW 89 : G#3 00 2 ... ... ... P80 : ... .. 3 ... ... ... ... : ... .. . ... : ... .. . ... : ... .. . ...
ROW 8A : ... .. . ... ... ... ... : F-4 00 3 ... ... ... ... : --- .. . ... : ... .. . ... : ... .. . ...
ROW 8B : ... .. . ... ... ... P81 : C#5 00 6 ... ... ... ... : ... .. . ... : ... .. . ... : ... .. . ...
ROW 8C : G-3 00 6 ... ... ... P81 : F-2 00 6 ... ... ... ... : D#3 00 . ... : 7-# 00 . ... : ... .. . ...
ROW 8D : ... .. . ... ... ... ... : ... .. 3 ... ... ... ... : ... .. . ... : ... .. . ... : ... .. . ...
ROW 8E : ... .. . ... ... ... P80 : C#5 00 3 ... ... ... ... : ... .. . ... : ... .. . ... : ... .. . ...
ROW 8F : ... .. . ... ... ... P7F : G-2 00 6 ... ... ... ... : ... .. . ... : ... .. . ... : ... .. . ...
ROW 90 : ... .. . ... ... ... ... : F-2 00 3 ... ... ... ... : ... .. . ... : 8-# 00 . ... : ... .. . ...
ROW 91 : ... .. . ... ... ... P80 : A#2 00 6 ... ... ... ... : --- .. . ... : ... .. . ... : ... .. . ...
ROW 92 : ... .. . ... ... ... ... : G-2 00 3 ... ... ... ... : ... .. . ... : ... .. . ... : ... .. . ...
ROW 93 : ... .. . ... ... ... P81 : D-3 00 6 ... ... ... ... : A#2 00 . ... : ... .. . ... : ... .. . ...
ROW 94 : ... .. . ... ... ... P80 : G#2 00 3 ... ... ... ... : ... .. . ... : 9-# 00 . ... : ... .. . ...
ROW 95 : ... .. . ... ... ... ... : D#3 00 6 ... ... ... ... : ... .. . ... : ... .. . ... : ... .. . ...
ROW 96 : ... .. . ... ... ... P7F : D-3 00 3 ... ... ... ... : ... .. . ... : ... .. . ... : ... .. . ...
ROW 97 : F-3 00 2 ... ... ... P81 : F-3 00 6 ... ... ... ... : ... .. . ... : ... .. . ... : ... .. . ...
ROW 98 : ... .. . ... ... ... ... : ... .. 3 ... ... ... ... : --- .. . ... : A-# 00 . ... : ... .. . ...
ROW 99 : ... .. . ... ... ... P80 : D#3 00 3 ... ... ... ... : ... .. . ... : ... .. . ... : ... .. . ...
ROW 9A : A#3 00 6 ... ... ... P81 : G-3 00 6 ... ... ... ... : G-2 00 . ... : ... .. . ... : ... .. . ...
ROW 9B : ... .. . ... ... ... ... : F-3 00 3 ... ... ... ... : ... .. . ... : ... .. . ... : ... .. . ...
ROW 9C : ... .. . ... ... ... P80 : A#3 00 6 ... ... ... ... : ... .. . ... : B-# 00 . ... : ... .. . ...
ROW 9D : ... .. . ... ... ... P7F : G-3 00 3 ... ... ... ... : ... .. . ... : ... .. . ... : ... .. . ...
ROW 9E : ... .. . ... ... ... ... : D#4 00 6 ... ... ... ... : ... .. . ... : ... .. . ... : ... .. . ...
ROW 9F : ... .. . ... ... ... P80 : G#3 00 3 ... ... ... ... : --- .. . ... : ... .. . ... : ... .. . ...
ROW A0 : ... .. . ... ... ... ... : F-4 00 6 ... ... ... ... : ... .. . ... : C-# 00 . ... : ... .. . ...
ROW A1 : ... .. . ... ... ... P81 : ... .. 3 ... ... ... ... : D#2 00 . ... : ... .. . ... : ... .. . ...
ROW A2 : ... .. . ... ... ... P80 : D#4 00 3 ... ... ... ... : ... .. . ... : ... .. . ... : ... .. . ...
ROW A3 : ... .. . ... ... ... ... : G-4 00 6 ... ... ... ... : ... .. . ... : ... .. . ... : ... .. . ...
ROW A4 : ... .. . ... ... ... P7F : F-4 00 3 ... ... ... ... : ... .. . ... : D-# 00 . ... : ... .. . ...
ROW A5 : G-3 00 2 ... ... ... P81 : A#4 00 6 ... ... ... ... : ... .. . ... : ... .. . ... : ... .. . ...
ROW A6 : ... .. . ... ... ... ... : ... .. 3 ... ... ... ... : --- .. . ... : ... .. . ... : ... .. . ...
ROW A7 : ... .. . ... ... ... P80 : G#4 00 3 ... ... ... ... : ... .. . ... : ... .. . ... : ... .. . ...
ROW A8 : D#3 00 6 ... ... ... P81 : G#1 00 4 V00 ... ... ... : G#1 00 . ... : E-# 00 . ... : ... .. . ...
ROW A9 : ... .. . ... ... ... ... : ... .. . ... ... ... ... : ... .. . ... : ... .. . ... : ... .. . ...
ROW AA : ... .. . ... ... ... P80 : ... .. . ... ... ... ... : ... .. . ... : ... .. . ... : ... .. . ...
ROW AB : ... .. . ... ... ... P7F : ... .. . ... ... ... ... : ... .. . ... : D-# 00 . ... : ... .. . ...
ROW AC : ... .. . ... ... ... ... : ... .. . ... ... ... ... : ... .. . ... : ... .. . ... : ... .. . ...
ROW AD : ... .. . ... ... ... P80 : ... .. . ... ... ... ... : ... .. . ... : ... .. . ... : ... .. . ...
ROW AE : ... .. . ... ... ... ... : ... .. . ... ... ... ... : ... .. . ... : C-# 00 . ... : ... .. . ...
ROW AF : ... .. . ... ... ... P81 : ... .. . ... ... ... ... : ... .. . ... : ... .. . ... : ... .. . ...
ROW B0 : ... .. . ... ... ... P80 : ... .. . ... ... ... ... : ... .. . ... : ... .. . ... : ... .. . ...
ROW B1 : ... .. . ... ... ... ... : ... .. . ... ... ... ... : ... .. . ... : B-# 00 . ... : ... .. . ...
ROW B2 : ... .. . ... ... ... P7F : ... .. . ... ... ... ... : ... .. . ... : ... .. . ... : ... .. . ...
ROW B3 : ... .. . ... ... ... P80 : ... .. . ... ... ... ... : ... .. . ... : ... .. . ... : ... .. . ...
ROW B4 : ... .. . ... ... ... ... : ... .. . ... ... ... ... : ... .. . ... : A-# 00 . ... : ... .. . ...
ROW B5 : ... .. . ... ... ... P81 : ... .. . ... ... ... ... : ... .. . ... : ... .. . ... : ... .. . ...
ROW B6 : ... .. . ... ... ... ... : A#2 00 5 V00 ... ... P80 : D-4 00 . ... : ... .. . ... : ... .. . ...
ROW B7 : ... .. . ... ... ... P80 : ... .. . ... ... ... ... : ... .. . ... : 9-# 00 . ... : ... .. . ...
ROW B8 : ... .. . ... ... ... P7F : ... .. . ... ... ... ... : ... .. . ... : ... .. . ... : ... .. . ...
ROW B9 : ... .. . ... ... ... ... : ... .. . ... ... ... ... : ... .. . ... : ... .. . ... : ... .. . ...
ROW BA : ... .. . ... ... ... P80 : ... .. . ... ... ... ... : ... .. . ... : 8-# 00 . ... : ... .. . ...
ROW BB : ... .. . ... ... ... P81 : ... .. . ... ... ... ... : ... .. . ... : ... .. . ... : ... .. . ...
ROW BC : ... .. . ... ... ... ... : ... .. . ... ... ... ... : ... .. . ... : ... .. . ... : ... .. . ...
ROW BD : ... .. . ... ... ... P80 : ... .. . ... ... ... ... : ... .. . ... : 7-# 00 . ... : ... .. . ...
ROW BE : ... .. . ... ... ... ... : ... .. . ... ... ... ... : ... .. . ... : ... .. . ... : ... .. . ...
ROW BF : ... .. . ... ... ... P7F : ... .. . ... ... ... ... : ... .. . ... : ... .. . ... : ... .. . ...
ROW C0 : ... .. . ... ... ... P80 : ... .. . ... ... ... ... : ... .. . ... : 6-# 00 . ... : ... .. . ...
ROW C1 : ... .. . ... ... ... ... : ... .. . ... ... ... ... : ... .. . ... : ... .. . ... : ... .. . ...
ROW C2 : ... .. . ... ... ... P81 : ... .. . ... ... ... ... : ... .. . ... : ... .. . ... : ... .. . ...
ROW C3 : ... .. . ... ... ... P80 : ... .. . ... ... ... ... : ... .. . ... : 5-# 00 . ... : ... .. . ...
ROW C4 : ... .. . ... ... ... ... : G#2 00 5 ... ... ... ... : C-4 00 . ... : ... .. . ... : ... .. . ...
ROW C5 : ... .. . ... ... ... P7F : ... .. . ... ... ... ... : ... .. . ... : ... .. . ... : ... .. . ...
ROW C6 : ... .. . ... ... ... ... : ... .. . ... ... ... ... : ... .. . ... : 4-# 00 . ... : ... .. . ...
ROW C7 : ... .. . ... ... ... P80 : ... .. . ... ... ... ... : ... .. . ... : ... .. . ... : ... .. . ...
ROW C8 : ... .. . ... ... ... P81 : ... .. . ... ... ... ... : ... .. . ... : ... .. . ... : ... .. . ...
ROW C9 : ... .. . ... ... ... ... : ... .. . ... ... ... ... : ... .. . ... : 3-# 00 . ... : ... .. . ...
ROW CA : ... .. . ... ... ... P80 : ... .. . ... ... ... ... : ... .. . ... : ... .. . ... : ... .. . ...
ROW CB : ... .. . ... ... ... P7F : ... .. . ... ... ... ... : ... .. . ... : ... .. . ... : ... .. . ...
ROW CC : ... .. 3 ... ... ... ... : ... .. . ... ... ... ... : ... .. . ... : 2-# 00 . ... : ... .. . ...
ROW CD : ... .. . ... ... ... P80 : ... .. . ... ... ... ... : ... .. . ... : ... .. . ... : ... .. . ...
ROW CE : ... .. 2 ... ... ... ... : ... .. . ... ... ... ... : ... .. . ... : ... .. . ... : ... .. . ...
ROW CF : ... .. . ... ... ... P81 : ... .. . ... ... ... ... : ... .. . ... : 1-# 00 . ... : ... .. . ...
ROW D0 : ... .. 1 ... ... ... P80 : ... .. . ... ... ... ... : ... .. . ... : ... .. . ... : ... .. . ...
ROW D1 : ... .. . ... ... ... P7E : ... .. . ... ... ... ... : ... .. . ... : ... .. . ... : ... .. . ...
ROW D2 : D#3 00 6 ... ... ... P80 : ... .. 1 ... ... ... ... : --- .. . ... : 0-# 00 . ... : ... .. . ...
ROW D3 : ... .. . ... ... ... ... : D#3 00 6 ... ... ... P82 : ... .. . ... : ... .. . ... : ... .. . ...
ROW D4 : ... .. 5 ... ... ... ... : ... .. . ... ... ... ... : ... .. . ... : ... .. . ... : ... .. . ...
ROW D5 : ... .. . ... ... ... ... : ... .. 5 ... ... ... ... : ... .. . ... : ... .. . ... : ... .. . ...
ROW D6 : ... .. 4 ... ... ... ... : ... .. . ... ... ... ... : ... .. . ... : ... .. . ... : ... .. . ...
ROW D7 : ... .. . ... ... ... ... : ... .. 4 ... ... ... ... : ... .. . ... : ... .. . ... : ... .. . ...
ROW D8 : ... .. 2 ... ... ... ... : ... .. . ... ... ... ... : ... .. . ... : ... .. . ... : ... .. . ...
ROW D9 : F-3 00 6 ... ... ... ... : ... .. 2 ... ... ... ... : ... .. . ... : ... .. . ... : ... .. . ...
ROW DA : ... .. . ... ... ... ... : F-3 00 6 ... ... ... ... : ... .. . ... : ... .. . ... : ... .. . ...
ROW DB : ... .. 5 ... ... ... ... : ... .. . ... ... ... ... : ... .. . ... : ... .. . ... : ... .. . ...
ROW DC : ... .. . ... ... ... ... : ... .. 5 ... ... ... ... : ... .. . ... : ... .. . ... : ... .. . ...
ROW DD : ... .. 4 ... ... ... ... : ... .. . ... ... ... ... : ... .. . ... : ... .. . ... : ... .. . ...
ROW DE : D#3 00 2 ... ... ... ... : ... .. 4 ... ... ... ... : ... .. . ... : ... .. . ... : ... .. . ...
ROW DF : ... .. . ... ... ... ... : D#3 00 2 ... ... ... ... : ... .. . ... : ... .. . ... : ... .. . ...

PATTERN 24
ROW 00 : G-3 00 6 V01 ... ... ... : ... .. . ... ... ... ... : F-2 00 . ... : 2-# 00 6 ... : ... .. . ...
ROW 01 : ... .. . ... ... ... ... : G-3 00 6 V01 ... ... P82 : ... .. . ... : ... .. 4 ... : ... .. . ...
ROW 02 : ... .. 5 ... ... ... ... : ... .. . ... ... ... ... : ... .. . ... : ... .. 2 ... : ... .. . ...
ROW 03 : ... .. . ... ... ... ... : ... .. 5 ... ... ... ... : ... .. . ... : ... .. 1 ... : ... .. . ...
ROW 04 : ... .. 4 ... ... ... ... : ... .. . ... ... ... ... : ... .. . ... : ... .. 0 ... : ... .. . ...
ROW 05 : ... .. . ... ... ... ... : ... .. 4 ... ... ... ... : --- .. . ... : ... .. . ... : ... .. . ...
ROW 06 : ... .. 3 ... ... ... ... : ... .. . ... ... ... ... : ... .. . ... : ... .. . ... : ... .. . ...
ROW 07 : ... .. . ... ... ... ... : ... .. 3 ... ... ... ... : C-3 00 . ... : E-# 00 6 ... : ... .. . ...
ROW 08 : ... .. 2 ... ... ... ... : ... .. . ... ... ... ... : ... .. . ... : ... .. 4 ... : ... .. . ...
ROW 09 : ... .. . ... ... ... ... : ... .. 2 ... ... ... ... : ... .. . ... : ... .. 2 ... : ... .. . ...
ROW 0A : ... .. 1 ... ... ... ... : ... .. . ... ... ... ... : ... .. . ... : ... .. 1 ... : ... .. . ...
ROW 0B : F-3 00 . ... ... ... ... : ... .. 1 ... ... ... ... : ... .. . ... : ... .. 0 ... : ... .. . ...
ROW 0C : ... .. . ... ... ... ... : F-3 00 . ... ... ... ... : --- .. . ... : ... .. . ... : ... .. . ...
ROW 0D : ... .. . ... ... ... ... : ... .. . ... ... ... ... : ... .. . ... : ... .. . ... : ... .. . ...
ROW 0E : D#3 00 6 ... ... ... ... : ... .. . ... ... ... ... : F-3 00 . ... : 7-# 00 6 ... : ... .. . ...
ROW 0F : ... .. . ... ... ... ... : D#3 00 6 ... ... ... ... : ... .. . ... : ... .. 4 ... : ... .. . ...
ROW 10 : ... .. 5 ... ... ... ... : ... .. . ... ... ... ... : ... .. . ... : ... .. 2 ... : ... .. . ...
ROW 11 : ... .. . ... ... ... ... : ... .. 5 ... ... ... ... : ... .. . ... : ... .. 1 ... : ... .. . ...
ROW 12 : ... .. 4 ... ... ... ... : ... .. . ... ... ... ... : ... .. . ... : ... .. 0 ... : ... .. . ...
ROW 13 : ... .. . ... ... ... ... : ... .. 4 ... ... ... ... : --- .. . ... : ... .. . ... : ... .. . ...
ROW 14 : ... .. 3 ... ... ... ... : ... .. . ... ... ... ... : ... .. . ... : ... .. . ... : ... .. . ...
ROW 15 : ... .. . ... ... ... ... : ... .. 3 ... ... ... ... : C-4 00 . ... : E-# 00 6 ... : ... .. . ...
ROW 16 : ... .. 2 ... ... ... ... : ... .. . ... ... ... ... : ... .. . ... : ... .. 4 ... : ... .. . ...
ROW 17 : ... .. . ... ... ... ... : ... .. 2 ... ... ... ... : ... .. . ... : ... .. 2 ... : ... .. . ...
ROW 18 : ... .. 1 ... ... ... ... : ... .. . ... ... ... ... : ... .. . ... : ... .. 1 ... : ... .. . ...
ROW 19 : G-3 00 . ... ... ... ... : ... .. 1 ... ... ... ... : ... .. . ... : ... .. 0 ... : ... .. . ...
ROW 1A : ... .. . ... ... ... ... : G-3 00 . ... ... ... ... : --- .. . ... : ... .. . ... : ... .. . ...
ROW 1B : ... .. . ... ... ... ... : ... .. . ... ... ... ... : ... .. . ... : ... .. . ... : ... .. . ...
ROW 1C : F-3 00 6 ... ... ... ... : ... .. . ... ... ... ... : G-2 00 . ... : 2-# 00 6 ... : ... .. . ...
ROW 1D : ... .. . ... ... ... ... : F-3 00 6 ... ... ... ... : ... .. . ... : ... .. 4 ... : ... .. . ...
ROW 1E : ... .. 5 ... ... ... ... : ... .. . ... ... ... ... : ... .. . ... : ... .. 2 ... : ... .. . ...
ROW 1F : ... .. . ... ... ... ... : ... .. 5 ... ... ... ... : ... .. . ... : ... .. 1 ... : ... .. . ...
ROW 20 : ... .. 4 ... ... ... ... : ... .. . ... ... ... ... : ... .. . ... : ... .. 0 ... : ... .. . ...
ROW 21 : ... .. . ... ... ... ... : ... .. 4 ... ... ... ... : --- .. . ... : ... .. . ... : ... .. . ...
ROW 22 : ... .. 3 ... ... ... ... : ... .. . ... ... ... ... : ... .. . ... : ... .. . ... : ... .. . ...
ROW 23 : ... .. . ... ... ... ... : ... .. 3 ... ... ... ... : D-3 00 . ... : E-# 00 6 ... : ... .. . ...
ROW 24 : ... .. 2 ... ... ... ... : ... .. . ... ... ... ... : ... .. . ... : ... .. 4 ... : ... .. . ...
ROW 25 : ... .. . ... ... ... ... : ... .. 2 ... ... ... ... : ... .. . ... : ... .. 2 ... : ... .. . ...
ROW 26 : ... .. 1 ... ... ... ... : ... .. . ... ... ... ... : ... .. . ... : ... .. 1 ... : ... .. . ...
ROW 27 : D#3 00 . ... ... ... ... : ... .. 1 ... ... ... ... : ... .. . ... : ... .. 0 ... : ... .. . ...
ROW 28 : ... .. . ... ... ... ... : D#3 00 . ... ... ... ... : --- .. . ... : ... .. . ... : ... .. . ...
ROW 29 : ... .. . ... ... ... ... : ... .. . ... ... ... ... : ... .. . ... : ... .. . ... : ... .. . ...
ROW 2A : D-3 00 6 ... ... ... ... : ... .. . ... ... ... ... : G-3 00 . ... : 7-# 00 6 ... : ... .. . ...
ROW 2B : ... .. . ... ... ... ... : D-3 00 6 ... ... ... ... : ... .. . ... : ... .. 4 ... : ... .. . ...
ROW 2C : ... .. 5 ... ... ... ... : ... .. . ... ... ... ... : ... .. . ... : ... .. 2 ... : ... .. . ...
ROW 2D : ... .. . ... ... ... ... : ... .. 5 ... ... ... ... : ... .. . ... : ... .. 1 ... : ... .. . ...
ROW 2E : ... .. 4 ... ... ... ... : ... .. . ... ... ... ... : ... .. . ... : ... .. 0 ... : ... .. . ...
ROW 2F : ... .. . ... ... ... ... : ... .. 4 ... ... ... ... : --- .. . ... : ... .. . ... : ... .. . ...
ROW 30 : ... .. 3 ... ... ... ... : ... .. . ... ... ... ... : ... .. . ... : ... .. . ... : ... .. . ...
ROW 31 : ... .. . ... ... ... ... : ... .. 3 ... ... ... ... : D-4 00 . ... : E-# 00 6 ... : ... .. . ...
ROW 32 : ... .. 2 ... ... ... ... : ... .. . ... ... ... ... : ... .. . ... : ... .. 4 ... : ... .. . ...
ROW 33 : ... .. . ... ... ... ... : ... .. 2 ... ... ... ... : ... .. . ... : ... .. 2 ... : ... .. . ...
ROW 34 : ... .. 1 ... ... ... ... : ... .. . ... ... ... ... : ... .. . ... : ... .. 1 ... : ... .. . ...
ROW 35 : F-3 00 . ... ... ... ... : ... .. 1 ... ... ... ... : ... .. . ... : ... .. 0 ... : ... .. . ...
ROW 36 : ... .. . ... ... ... ... : F-3 00 . ... ... ... ... : --- .. . ... : ... .. . ... : ... .. . ...
ROW 37 : ... .. . ... ... ... ... : ... .. . ... ... ... ... : ... .. . ... : ... .. . ... : ... .. . ...
ROW 38 : D#3 00 6 ... ... ... ... : ... .. . ... ... ... ... : G#2 00 . ... : 2-# 00 6 ... : ... .. . ...
ROW 39 : ... .. . ... ... ... ... : D#3 00 6 ... ... ... ... : ... .. . ... : ... .. 4 ... : ... .. . ...
ROW 3A : ... .. 5 ... ... ... ... : ... .. . ... ... ... ... : ... .. . ... : ... .. 2 ... : ... .. . ...
ROW 3B : ... .. . ... ... ... ... : ... .. 5 ... ... ... ... : ... .. . ... : ... .. 1 ... : ... .. . ...
ROW 3C : ... .. 4 ... ... ... ... : ... .. . ... ... ... ... : ... .. . ... : ... .. 0 ... : ... .. . ...
ROW 3D : ... .. . ... ... ... ... : ... .. 4 ... ... ... ... : --- .. . ... : ... .. . ... : ... .. . ...
ROW 3E : ... .. 3 ... ... ... ... : ... .. . ... ... ... ... : ... .. . ... : ... .. . ... : ... .. . ...
ROW 3F : ... .. . ... ... ... ... : ... .. 3 ... ... ... ... : D#3 00 . ... : E-# 00 6 ... : ... .. . ...
ROW 40 : ... .. 2 ... ... ... ... : ... .. . ... ... ... ... : ... .. . ... : ... .. 4 ... : ... .. . ...
ROW 41 : ... .. . ... ... ... ... : ... .. 2 ... ... ... ... : ... .. . ... : ... .. 2 ... : ... .. . ...
ROW 42 : ... .. 1 ... ... ... ... : ... .. . ... ... ... ... : ... .. . ... : ... .. 1 ... : ... .. . ...
ROW 43 : D-3 00 . ... ... ... ... : ... .. 1 ... ... ... ... : ... .. . ... : ... .. 0 ... : ... .. . ...
ROW 44 : ... .. . ... ... ... ... : D-3 00 . ... ... ... ... : --- .. . ... : ... .. . ... : ... .. . ...
ROW 45 : ... .. . ... ... ... ... : ... .. . ... ... ... ... : ... .. . ... : ... .. . ... : ... .. . ...
ROW 46 : C-3 00 6 ... ... ... ... : ... .. . ... ... ... ... : C-4 00 . ... : 7-# 00 6 ... : ... .. . ...
ROW 47 : ... .. . ... ... ... ... : C-3 00 6 ... ... ... ... : ... .. . ... : ... .. 4 ... : ... .. . ...
ROW 48 : ... .. 5 ... ... ... ... : ... .. . ... ... ... ... : ... .. . ... : ... .. 2 ... : ... .. . ...
ROW 49 : ... .. . ... ... ... ... : ... .. 5 ... ... ... ... : ... .. . ... : ... .. 1 ... : ... .. . ...
ROW 4A : ... .. 4 ... ... ... ... : ... .. . ... ... ... ... : ... .. . ... : ... .. 0 ... : ... .. . ...
ROW 4B : ... .. . ... ... ... ... : ... .. 4 ... ... ... ... : --- .. . ... : ... .. . ... : ... .. . ...
ROW 4C : ... .. 3 ... ... ... ... : ... .. . ... ... ... ... : ... .. . ... : ... .. . ... : ... .. . ...
ROW 4D : ... .. . ... ... ... ... : ... .. 3 ... ... ... ... : D#4 00 . ... : E-# 00 6 ... : ... .. . ...
ROW 4E : ... .. 2 ... ... ... ... : ... .. . ... ... ... ... : ... .. . ... : ... .. 4 ... : ... .. . ...
ROW 4F : ... .. . ... ... ... ... : ... .. 2 ... ... ... ... : ... .. . ... : ... .. 2 ... : ... .. . ...
ROW 50 : ... .. 1 ... ... ... ... : ... .. . ... ... ... ... : ... .. . ... : ... .. 1 ... : ... .. . ...
ROW 51 : D#3 00 . ... ... ... ... : ... .. 1 ... ... ... ... : ... .. . ... : ... .. 0 ... : ... .. . ...
ROW 52 : ... .. . ... ... ... ... : D#3 00 . ... ... ... ... : --- .. . ... : ... .. . ... : ... .. . ...
ROW 53 : ... .. . ... ... ... ... : ... .. . ... ... ... ... : ... .. . ... : ... .. . ... : ... .. . ...
ROW 54 : D-3 00 6 ... ... ... ... : ... .. . ... ... ... ... : A#2 00 . ... : 2-# 00 6 ... : ... .. . ...
ROW 55 : ... .. . ... ... ... ... : D-3 00 6 ... ... ... ... : ... .. . ... : ... .. 4 ... : ... .. . ...
ROW 56 : ... .. 5 ... ... ... ... : ... .. . ... ... ... ... : ... .. . ... : ... .. 2 ... : ... .. . ...
ROW 57 : ... .. . ... ... ... ... : ... .. 5 ... ... ... ... : ... .. . ... : ... .. 1 ... : ... .. . ...
ROW 58 : ... .. 4 ... ... ... ... : ... .. . ... ... ... ... : ... .. . ... : ... .. 0 ... : ... .. . ...
ROW 59 : ... .. . ... ... ... ... : ... .. 4 ... ... ... ... : --- .. . ... : ... .. . ... : ... .. . ...
ROW 5A : ... .. 3 ... ... ... ... : ... .. . ... ... ... ... : ... .. . ... : ... .. . ... : ... .. . ...
ROW 5B : ... .. . ... ... ... ... : ... .. 3 ... ... ... ... : F-3 00 . ... : E-# 00 6 ... : ... .. . ...
ROW 5C : ... .. 2 ... ... ... ... : ... .. . ... ... ... ... : ... .. . ... : ... .. 4 ... : ... .. . ...
ROW 5D : ... .. . ... ... ... ... : ... .. 2 ... ... ... ... : ... .. . ... : ... .. 2 ... : ... .. . ...
ROW 5E : ... .. 1 ... ... ... ... : ... .. . ... ... ... ... : ... .. . ... : E-# 00 6 ... : ... .. . ...
ROW 5F : C-3 00 . ... ... ... ... : ... .. 1 ... ... ... ... : ... .. . ... : ... .. 4 ... : ... .. . ...
ROW 60 : ... .. . ... ... ... ... : C-3 00 . ... ... ... ... : --- .. . ... : ... .. 2 ... : ... .. . ...
ROW 61 : ... .. . ... ... ... ... : ... .. . ... ... ... ... : ... .. . ... : ... .. 1 ... : ... .. . ...
ROW 62 : A#3 00 6 ... ... ... ... : ... .. . ... ... ... ... : C-4 00 . ... : 7-# 00 6 ... : ... .. . ...
ROW 63 : ... .. . ... ... ... ... : A#3 00 6 ... ... ... ... : ... .. . ... : ... .. 4 ... : ... .. . ...
ROW 64 : ... .. 5 ... ... ... ... : ... .. . ... ... ... ... : ... .. . ... : ... .. 2 ... : ... .. . ...
ROW 65 : ... .. . ... ... ... ... : ... .. 5 ... ... ... ... : ... .. . ... : ... .. 1 ... : ... .. . ...
ROW 66 : ... .. 4 ... ... ... ... : ... .. . ... ... ... ... : ... .. . ... : ... .. 0 ... : ... .. . ...
ROW 67 : ... .. . ... ... ... ... : ... .. 4 ... ... ... ... : --- .. . ... : ... .. . ... : ... .. . ...
ROW 68 : ... .. 3 ... ... ... ... : ... .. . ... ... ... ... : ... .. . ... : ... .. . ... : ... .. . ...
ROW 69 : ... .. . ... ... ... ... : ... .. 3 ... ... ... ... : D-4 00 . ... : E-# 00 6 ... : ... .. . ...
ROW 6A : ... .. 2 ... ... ... ... : ... .. . ... ... ... ... : ... .. . ... : ... .. 4 ... : ... .. . ...
ROW 6B : ... .. . ... ... ... ... : ... .. 2 ... ... ... ... : ... .. . ... : ... .. 2 ... : ... .. . ...
ROW 6C : ... .. 1 ... ... ... ... : ... .. . ... ... ... ... : ... .. . ... : ... .. 1 ... : ... .. . ...
ROW 6D : D-3 00 . ... ... ... ... : ... .. 1 ... ... ... ... : ... .. . ... : ... .. 0 ... : ... .. . ...
ROW 6E : ... .. . ... ... ... ... : D-3 00 . ... ... ... ... : --- .. . ... : ... .. . ... : ... .. . ...
ROW 6F : ... .. . ... ... ... ... : ... .. . ... ... ... ... : ... .. . ... : ... .. . ... : ... .. . ...
ROW 70 : A#3 00 6 ... ... ... ... : ... .. . ... ... ... ... : G#2 00 . ... : 2-# 00 6 ... : ... .. . ...
ROW 71 : ... .. . ... ... ... ... : A#3 00 6 V01 ... ... P82 : ... .. . ... : ... .. 4 ... : ... .. . ...
ROW 72 : ... .. 5 ... ... ... ... : ... .. . ... ... ... ... : ... .. . ... : ... .. 2 ... : ... .. . ...
ROW 73 : ... .. . ... ... ... ... : ... .. 5 ... ... ... ... : ... .. . ... : ... .. 1 ... : ... .. . ...
ROW 74 : ... .. 4 ... ... ... ... : ... .. . ... ... ... ... : ... .. . ... : ... .. 0 ... : ... .. . ...
ROW 75 : ... .. . ... ... ... ... : ... .. 4 ... ... ... ... : --- .. . ... : ... .. . ... : ... .. . ...
ROW 76 : ... .. 3 ... ... ... ... : ... .. . ... ... ... ... : ... .. . ... : ... .. . ... : ... .. . ...
ROW 77 : ... .. . ... ... ... ... : ... .. 3 ... ... ... ... : D#3 00 . ... : E-# 00 6 ... : ... .. . ...
ROW 78 : ... .. 2 ... ... ... ... : ... .. . ... ... ... ... : ... .. . ... : ... .. 4 ... : ... .. . ...
ROW 79 : ... .. . ... ... ... ... : ... .. 2 ... ... ... ... : ... .. . ... : ... .. 2 ... : ... .. . ...
ROW 7A : ... .. 1 ... ... ... ... : ... .. . ... ... ... ... : ... .. . ... : ... .. 1 ... : ... .. . ...
ROW 7B : ... .. . ... ... ... ... : ... .. 1 ... ... ... ... : ... .. . ... : ... .. 0 ... : ... .. . ...
ROW 7C : ... .. . ... ... ... ... : ... .. . ... ... ... ... : --- .. . ... : ... .. . ... : ... .. . ...
ROW 7D : ... .. . ... ... ... ... : ... .. . ... ... ... ... : ... .. . ... : ... .. . ... : ... .. . ...
ROW 7E : G-3 00 6 ... ... ... ... : ... .. . ... ... ... ... : A#3 00 . ... : 7-# 00 6 ... : ... .. . ...
ROW 7F : ... .. . ... ... ... ... : G-3 00 6 ... ... ... ... : ... .. . ... : ... .. 4 ... : ... .. . ...
ROW 80 : ... .. 5 ... ... ... ... : ... .. . ... ... ... ... : ... .. . ... : ... .. 2 ... : ... .. . ...
ROW 81 : ... .. . ... ... ... ... : ... .. 5 ... ... ... ... : ... .. . ... : ... .. 1 ... : ... .. . ...
ROW 82 : ... .. 4 ... ... ... ... : ... .. . ... ... ... ... : ... .. . ... : ... .. 0 ... : ... .. . ...
ROW 83 : ... .. . ... ... ... ... : ... .. 4 ... ... ... ... : --- .. . ... : ... .. . ... : ... .. . ...
ROW 84 : ... .. 3 ... ... ... ... : ... .. . ... ... ... ... : ... .. . ... : ... .. . ... : ... .. . ...
ROW 85 : ... .. . ... ... ... ... : ... .. 3 ... ... ... ... : C-4 00 . ... : E-# 00 6 ... : ... .. . ...
ROW 86 : ... .. 2 ... ... ... ... : ... .. . ... ... ... ... : ... .. . ... : ... .. 4 ... : ... .. . ...
ROW 87 : ... .. . ... ... ... ... : ... .. 2 ... ... ... ... : ... .. . ... : ... .. 2 ... : ... .. . ...
ROW 88 : ... .. 1 ... ... ... ... : ... .. . ... ... ... ... : ... .. . ... : ... .. 1 ... : ... .. . ...
ROW 89 : A#3 00 . ... ... ... ... : ... .. 1 ... ... ... ... : ... .. . ... : ... .. 0 ... : ... .. . ...
ROW 8A : ... .. . ... ... ... ... : A#3 00 . ... ... ... ... : --- .. . ... : ... .. . ... : ... .. . ...
ROW 8B : ... .. . ... ... ... ... : ... .. . ... ... ... ... : ... .. . ... : ... .. . ... : ... .. . ...
ROW 8C : G#3 00 6 ... ... ... ... : ... .. . ... ... ... ... : A#2 00 . ... : 2-# 00 6 ... : ... .. . ...
ROW 8D : ... .. . ... ... ... ... : G#3 00 6 ... ... ... ... : ... .. . ... : ... .. 4 ... : ... .. . ...
ROW 8E : ... .. 5 ... ... ... ... : ... .. . ... ... ... ... : ... .. . ... : ... .. 2 ... : ... .. . ...
ROW 8F : ... .. . ... ... ... ... : ... .. 5 ... ... ... ... : ... .. . ... : ... .. 1 ... : ... .. . ...
ROW 90 : ... .. 4 ... ... ... ... : ... .. . ... ... ... ... : ... .. . ... : ... .. 0 ... : ... .. . ...
ROW 91 : ... .. . ... ... ... ... : ... .. 4 ... ... ... ... : --- .. . ... : ... .. . ... : ... .. . ...
ROW 92 : ... .. 3 ... ... ... ... : ... .. . ... ... ... ... : ... .. . ... : ... .. . ... : ... .. . ...
ROW 93 : ... .. . ... ... ... ... : ... .. 3 ... ... ... ... : F-3 00 . ... : E-# 00 6 ... : ... .. . ...
ROW 94 : ... .. 2 ... ... ... ... : ... .. . ... ... ... ... : ... .. . ... : ... .. 4 ... : ... .. . ...
ROW 95 : ... .. . ... ... ... ... : ... .. 2 ... ... ... ... : ... .. . ... : ... .. 2 ... : ... .. . ...
ROW 96 : ... .. 1 ... ... ... ... : ... .. . ... ... ... ... : ... .. . ... : ... .. 1 ... : ... .. . ...
ROW 97 : G-3 00 . ... ... ... ... : ... .. 1 ... ... ... ... : ... .. . ... : ... .. 0 ... : ... .. . ...
ROW 98 : ... .. . ... ... ... ... : G-3 00 . ... ... ... ... : --- .. . ... : ... .. . ... : ... .. . ...
ROW 99 : ... .. . ... ... ... ... : ... .. . ... ... ... ... : ... .. . ... : ... .. . ... : ... .. . ...
ROW 9A : F-3 00 6 ... ... ... ... : ... .. . ... ... ... ... : C-4 00 . ... : 7-# 00 6 ... : ... .. . ...
ROW 9B : ... .. . ... ... ... ... : F-3 00 6 ... ... ... ... : ... .. . ... : ... .. 4 ... : ... .. . ...
ROW 9C : ... .. 5 ... ... ... ... : ... .. . ... ... ... ... : ... .. . ... : ... .. 2 ... : ... .. . ...
ROW 9D : ... .. . ... ... ... ... : ... .. 5 ... ... ... ... : ... .. . ... : ... .. 1 ... : ... .. . ...
ROW 9E : ... .. 4 ... ... ... ... : ... .. . ... ... ... ... : ... .. . ... : ... .. 0 ... : ... .. . ...
ROW 9F : ... .. . ... ... ... ... : ... .. 4 ... ... ... ... : --- .. . ... : ... .. . ... : ... .. . ...
ROW A0 : ... .. 3 ... ... ... ... : ... .. . ... ... ... ... : ... .. . ... : ... .. . ... : ... .. . ...
ROW A1 : ... .. . ... ... ... ... : ... .. 3 ... ... ... ... : D-4 00 . ... : E-# 00 6 ... : ... .. . ...
ROW A2 : ... .. 2 ... ... ... ... : ... .. . ... ... ... ... : ... .. . ... : ... .. 4 ... : ... .. . ...
ROW A3 : ... .. . ... ... ... ... : ... .. 2 ... ... ... ... : ... .. . ... : ... .. 2 ... : ... .. . ...
ROW A4 : ... .. 1 ... ... ... ... : ... .. . ... ... ... ... : ... .. . ... : ... .. 1 ... : ... .. . ...
ROW A5 : ... .. . ... ... ... ... : ... .. 1 ... ... ... ... : ... .. . ... : ... .. 0 ... : ... .. . ...
ROW A6 : G#3 00 . ... ... ... ... : G#3 00 . ... ... ... ... : --- .. . ... : ... .. . ... : ... .. . ...
ROW A7 : ... .. . ... ... ... ... : ... .. . ... ... ... ... : ... .. . ... : ... .. . ... : ... .. . ...
ROW A8 : G-3 00 6 ... ... ... ... : ... .. . ... ... ... ... : C-3 00 . ... : 2-# 00 6 ... : ... .. . ...
ROW A9 : ... .. . ... ... ... ... : G-3 00 6 ... ... ... ... : ... .. . ... : ... .. 4 ... : ... .. . ...
ROW AA : ... .. 5 ... ... ... ... : ... .. . ... ... ... ... : ... .. . ... : ... .. 2 ... : ... .. . ...
ROW AB : ... .. . ... ... ... ... : ... .. 5 ... ... ... ... : ... .. . ... : ... .. 1 ... : ... .. . ...
ROW AC : ... .. 4 ... ... ... ... : ... .. . ... ... ... ... : ... .. . ... : ... .. 0 ... : ... .. . ...
ROW AD : ... .. . ... ... ... ... : ... .. 4 ... ... ... ... : --- .. . ... : ... .. . ... : ... .. . ...
ROW AE : ... .. 3 ... ... ... ... : ... .. . ... ... ... ... : ... .. . ... : ... .. . ... : ... .. . ...
ROW AF : ... .. . ... ... ... ... : ... .. 3 ... ... ... ... : D#3 00 . ... : E-# 00 6 ... : ... .. . ...
ROW B0 : ... .. 2 ... ... ... ... : ... .. . ... ... ... ... : ... .. . ... : ... .. 4 ... : ... .. . ...
ROW B1 : ... .. . ... ... ... ... : ... .. 2 ... ... ... ... : ... .. . ... : ... .. 2 ... : ... .. . ...
ROW B2 : ... .. 1 ... ... ... ... : ... .. . ... ... ... ... : ... .. . ... : ... .. 1 ... : ... .. . ...
ROW B3 : ... .. . ... ... ... ... : ... .. 1 ... ... ... ... : ... .. . ... : ... .. 0 ... : ... .. . ...
ROW B4 : F-3 00 . ... ... ... ... : F-3 00 . ... ... ... ... : --- .. . ... : ... .. . ... : ... .. . ...
ROW B5 : ... .. . ... ... ... ... : ... .. . ... ... ... ... : ... .. . ... : ... .. . ... : ... .. . ...
ROW B6 : D#3 00 6 ... ... ... ... : ... .. . ... ... ... ... : A#3 00 . ... : 7-# 00 6 ... : ... .. . ...
ROW B7 : ... .. . ... ... ... ... : D#3 00 6 ... ... ... ... : ... .. . ... : ... .. 4 ... : ... .. . ...
ROW B8 : ... .. 5 ... ... ... ... : ... .. . ... ... ... ... : ... .. . ... : ... .. 2 ... : ... .. . ...
ROW B9 : ... .. . ... ... ... ... : ... .. 5 ... ... ... ... : ... .. . ... : ... .. 1 ... : ... .. . ...
ROW BA : ... .. 4 ... ... ... ... : ... .. . ... ... ... ... : ... .. . ... : ... .. 0 ... : ... .. . ...
ROW BB : ... .. . ... ... ... ... : ... .. 4 ... ... ... ... : --- .. . ... : ... .. . ... : ... .. . ...
ROW BC : ... .. 3 ... ... ... ... : ... .. . ... ... ... ... : ... .. . ... : ... .. . ... : ... .. . ...
ROW BD : ... .. . ... ... ... ... : ... .. 3 ... ... ... ... : C-4 00 . ... : E-# 00 6 ... : ... .. . ...
ROW BE : ... .. 2 ... ... ... ... : ... .. . ... ... ... ... : ... .. . ... : ... .. 4 ... : ... .. . ...
ROW BF : ... .. . ... ... ... ... : ... .. 2 ... ... ... ... : ... .. . ... : ... .. 2 ... : ... .. . ...
ROW C0 : ... .. 1 ... ... ... ... : ... .. . ... ... ... ... : ... .. . ... : ... .. 1 ... : ... .. . ...
ROW C1 : ... .. . ... ... ... ... : ... .. 1 ... ... ... ... : ... .. . ... : ... .. 0 ... : ... .. . ...
ROW C2 : G-3 00 . ... ... ... ... : G-3 00 . ... ... ... ... : --- .. . ... : ... .. . ... : ... .. . ...
ROW C3 : ... .. . ... ... ... ... : ... .. . ... ... ... ... : ... .. . ... : ... .. . ... : ... .. . ...
ROW C4 : F-3 00 6 ... ... ... ... : ... .. . ... ... ... ... : D-3 00 . ... : 2-# 00 6 ... : ... .. . ...
ROW C5 : ... .. . ... ... ... ... : F-3 00 6 ... ... ... ... : ... .. . ... : ... .. 4 ... : ... .. . ...
ROW C6 : ... .. 5 ... ... ... ... : ... .. . ... ... ... ... : ... .. . ... : ... .. 2 ... : ... .. . ...
ROW C7 : ... .. . ... ... ... ... : ... .. 5 ... ... ... ... : ... .. . ... : ... .. 1 ... : ... .. . ...
ROW C8 : ... .. 4 ... ... ... ... : ... .. . ... ... ... ... : ... .. . ... : ... .. 0 ... : ... .. . ...
ROW C9 : ... .. . ... ... ... ... : ... .. 4 ... ... ... ... : --- .. . ... : ... .. . ... : ... .. . ...
ROW CA : ... .. 3 ... ... ... ... : ... .. . ... ... ... ... : ... .. . ... : ... .. . ... : ... .. . ...
ROW CB : ... .. . ... ... ... ... : ... .. 3 ... ... ... ... : F-3 00 . ... : E-# 00 6 ... : ... .. . ...
ROW CC : ... .. 2 ... ... ... ... : ... .. . ... ... ... ... : ... .. . ... : ... .. 4 ... : ... .. . ...
ROW CD : ... .. . ... ... ... ... : ... .. 2 ... ... ... ... : ... .. . ... : ... .. 2 ... : ... .. . ...
ROW CE : ... .. 1 ... ... ... ... : ... .. . ... ... ... ... : ... .. . ... : E-# 00 6 ... : ... .. . ...
ROW CF : ... .. . ... ... ... ... : ... .. 1 ... ... ... ... : ... .. . ... : ... .. 4 ... : ... .. . ...
ROW D0 : D#3 00 . ... ... ... ... : D#3 00 . ... ... ... ... : --- .. . ... : ... .. 2 ... : ... .. . ...
ROW D1 : ... .. . ... ... ... ... : ... .. . ... ... ... ... : ... .. . ... : ... .. 1 ... : ... .. . ...
ROW D2 : C-4 00 6 ... ... ... ... : ... .. . ... ... ... ... : C-4 00 . ... : 7-# 00 6 ... : ... .. . ...
ROW D3 : ... .. . ... ... ... ... : C-4 00 6 ... ... ... ... : ... .. . ... : ... .. 4 ... : ... .. . ...
ROW D4 : ... .. 5 ... ... ... ... : ... .. . ... ... ... ... : ... .. . ... : ... .. 2 ... : ... .. . ...
ROW D5 : ... .. . ... ... ... ... : ... .. 5 ... ... ... ... : ... .. . ... : ... .. 1 ... : ... .. . ...
ROW D6 : ... .. 4 ... ... ... ... : ... .. . ... ... ... ... : ... .. . ... : ... .. 0 ... : ... .. . ...
ROW D7 : ... .. . ... ... ... ... : ... .. 4 ... ... ... ... : --- .. . ... : ... .. . ... : ... .. . ...
ROW D8 : ... .. 3 ... ... ... ... : ... .. . ... ... ... ... : ... .. . ... : ... .. . ... : ... .. . ...
ROW D9 : ... .. . ... ... ... ... : ... .. 3 ... ... ... ... : D-4 00 . ... : E-# 00 6 ... : ... .. . ...
ROW DA : ... .. 2 ... ... ... ... : ... .. . ... ... ... ... : ... .. . ... : ... .. 4 ... : ... .. . ...
ROW DB : ... .. . ... ... ... ... : ... .. 2 ... ... ... ... : ... .. . ... : ... .. 2 ... : ... .. . ...
ROW DC : ... .. 1 ... ... ... ... : ... .. . ... ... ... ... : ... .. . ... : ... .. 1 ... : ... .. . ...
ROW DD : ... .. . ... ... ... ... : ... .. 1 ... ... ... ... : ... .. . ... : ... .. 0 ... : ... .. . ...
ROW DE : F-3 00 . ... ... ... ... : F-3 00 . ... ... ... ... : --- .. . ... : ... .. . ... : ... .. . ...
ROW DF : ... .. . ... ... ... ... : ... .. . ... ... ... ... : ... .. . ... : ... .. . ... : ... .. . ...

PATTERN 25
ROW 00 : C-4 00 6 V01 ... ... ... : G#3 00 6 V01 ... ... P80 : F-2 00 . ... : 2-# 00 6 ... : ... .. . ...
ROW 01 : ... .. . ... ... ... ... : ... .. . ... ... ... ... : ... .. . ... : ... .. 4 ... : ... .. . ...
ROW 02 : ... .. 5 ... ... ... ... : ... .. 5 ... ... ... ... : ... .. . ... : ... .. 2 ... : ... .. . ...
ROW 03 : ... .. . ... ... ... ... : ... .. . ... ... ... ... : ... .. . ... : ... .. 1 ... : ... .. . ...
ROW 04 : ... .. 4 ... ... ... ... : ... .. 4 ... ... ... ... : ... .. . ... : ... .. 0 ... : ... .. . ...
ROW 05 : ... .. . ... ... ... ... : ... .. . ... ... ... ... : --- .. . ... : ... .. . ... : ... .. . ...
ROW 06 : ... .. 3 ... ... ... ... : ... .. 3 ... ... ... ... : ... .. . ... : ... .. . ... : ... .. . ...
ROW 07 : ... .. . ... ... ... ... : ... .. . ... ... ... ... : C-3 00 . ... : E-# 00 6 ... : ... .. . ...
ROW 08 : ... .. 2 ... ... ... ... : ... .. 2 ... ... ... ... : ... .. . ... : ... .. 4 ... : ... .. . ...
ROW 09 : ... .. . ... ... ... ... : ... .. . ... ... ... ... : ... .. . ... : ... .. 2 ... : ... .. . ...
ROW 0A : ... .. 1 ... ... ... ... : ... .. 1 ... ... ... ... : ... .. . ... : ... .. 1 ... : ... .. . ...
ROW 0B : ... .. . ... ... ... ... : C-4 00 . ... ... ... ... : ... .. . ... : ... .. 0 ... : ... .. . ...
ROW 0C : ... .. . ... ... ... ... : ... .. . ... ... ... ... : --- .. . ... : ... .. . ... : ... .. . ...
ROW 0D : ... .. . ... ... ... ... : ... .. . ... ... ... ... : ... .. . ... : ... .. . ... : ... .. . ...
ROW 0E : A#3 00 6 ... ... ... ... : D#3 00 6 ... ... ... ... : F-3 00 . ... : 7-# 00 6 ... : ... .. . ...
ROW 0F : ... .. . ... ... ... ... : ... .. . ... ... ... ... : ... .. . ... : ... .. 4 ... : ... .. . ...
ROW 10 : ... .. 5 ... ... ... ... : ... .. 5 ... ... ... ... : ... .. . ... : ... .. 2 ... : ... .. . ...
ROW 11 : ... .. . ... ... ... ... : ... .. . ... ... ... ... : ... .. . ... : ... .. 1 ... : ... .. . ...
ROW 12 : ... .. 4 ... ... ... ... : ... .. 4 ... ... ... ... : ... .. . ... : ... .. 0 ... : ... .. . ...
ROW 13 : ... .. . ... ... ... ... : ... .. . ... ... ... ... : --- .. . ... : ... .. . ... : ... .. . ...
ROW 14 : ... .. 3 ... ... ... ... : ... .. 3 ... ... ... ... : ... .. . ... : ... .. . ... : ... .. . ...
ROW 15 : ... .. . ... ... ... ... : ... .. . ... ... ... ... : C-4 00 . ... : E-# 00 6 ... : ... .. . ...
ROW 16 : ... .. 2 ... ... ... ... : ... .. 2 ... ... ... ... : ... .. . ... : ... .. 4 ... : ... .. . ...
ROW 17 : ... .. . ... ... ... ... : ... .. . ... ... ... ... : ... .. . ... : ... .. 2 ... : ... .. . ...
ROW 18 : ... .. 1 ... ... ... ... : ... .. 1 ... ... ... ... : ... .. . ... : ... .. 1 ... : ... .. . ...
ROW 19 : G-3 00 . ... ... ... ... : G-3 00 . ... ... ... ... : ... .. . ... : ... .. 0 ... : ... .. . ...
ROW 1A : ... .. . ... ... ... ... : ... .. . ... ... ... ... : --- .. . ... : ... .. . ... : ... .. . ...
ROW 1B : ... .. . ... ... ... ... : ... .. . ... ... ... ... : ... .. . ... : ... .. . ... : ... .. . ...
ROW 1C : G#3 00 6 ... ... ... ... : C-3 00 6 ... ... ... ... : G-2 00 . ... : 2-# 00 6 ... : ... .. . ...
ROW 1D : ... .. . ... ... ... ... : ... .. . ... ... ... ... : ... .. . ... : ... .. 4 ... : ... .. . ...
ROW 1E : ... .. 5 ... ... ... ... : ... .. 5 ... ... ... ... : ... .. . ... : ... .. 2 ... : ... .. . ...
ROW 1F : ... .. . ... ... ... ... : ... .. . ... ... ... ... : ... .. . ... : ... .. 1 ... : ... .. . ...
ROW 20 : ... .. 4 ... ... ... ... : ... .. 4 ... ... ... ... : ... .. . ... : ... .. 0 ... : ... .. . ...
ROW 21 : ... .. . ... ... ... ... : ... .. . ... ... ... ... : --- .. . ... : ... .. . ... : ... .. . ...
ROW 22 : ... .. 3 ... ... ... ... : ... .. 3 ... ... ... ... : ... .. . ... : ... .. . ... : ... .. . ...
ROW 23 : ... .. . ... ... ... ... : ... .. . ... ... ... ... : D-3 00 . ... : E-# 00 6 ... : ... .. . ...
ROW 24 : ... .. 2 ... ... ... ... : ... .. 2 ... ... ... ... : ... .. . ... : ... .. 4 ... : ... .. . ...
ROW 25 : ... .. . ... ... ... ... : ... .. . ... ... ... ... : ... .. . ... : ... .. 2 ... : ... .. . ...
ROW 26 : ... .. 1 ... ... ... ... : ... .. 1 ... ... ... ... : ... .. . ... : ... .. 1 ... : ... .. . ...
ROW 27 : A#3 00 . ... ... ... ... : D#3 00 . ... ... ... ... : ... .. . ... : ... .. 0 ... : ... .. . ...
ROW 28 : ... .. . ... ... ... ... : ... .. . ... ... ... ... : --- .. . ... : ... .. . ... : ... .. . ...
ROW 29 : ... .. . ... ... ... ... : ... .. . ... ... ... ... : ... .. . ... : ... .. . ... : ... .. . ...
ROW 2A : A#3 00 6 ... ... ... ... : D-3 00 6 ... ... ... ... : G-3 00 . ... : 7-# 00 6 ... : ... .. . ...
ROW 2B : ... .. . ... ... ... ... : ... .. . ... ... ... ... : ... .. . ... : ... .. 4 ... : ... .. . ...
ROW 2C : ... .. 5 ... ... ... ... : ... .. 5 ... ... ... ... : ... .. . ... : ... .. 2 ... : ... .. . ...
ROW 2D : ... .. . ... ... ... ... : ... .. . ... ... ... ... : ... .. . ... : ... .. 1 ... : ... .. . ...
ROW 2E : ... .. 4 ... ... ... ... : ... .. 4 ... ... ... ... : ... .. . ... : ... .. 0 ... : ... .. . ...
ROW 2F : ... .. . ... ... ... ... : ... .. . ... ... ... ... : --- .. . ... : ... .. . ... : ... .. . ...
ROW 30 : ... .. 3 ... ... ... ... : ... .. 3 ... ... ... ... : ... .. . ... : ... .. . ... : ... .. . ...
ROW 31 : ... .. . ... ... ... ... : ... .. . ... ... ... ... : D-4 00 . ... : E-# 00 6 ... : ... .. . ...
ROW 32 : ... .. 2 ... ... ... ... : ... .. 2 ... ... ... ... : ... .. . ... : ... .. 4 ... : ... .. . ...
ROW 33 : ... .. . ... ... ... ... : ... .. . ... ... ... ... : ... .. . ... : ... .. 2 ... : ... .. . ...
ROW 34 : ... .. 1 ... ... ... ... : ... .. 1 ... ... ... ... : ... .. . ... : ... .. 1 ... : ... .. . ...
ROW 35 : G#3 00 . ... ... ... ... : C-3 00 . ... ... ... ... : ... .. . ... : ... .. 0 ... : ... .. . ...
ROW 36 : ... .. . ... ... ... ... : ... .. . ... ... ... ... : --- .. . ... : ... .. . ... : ... .. . ...
ROW 37 : ... .. . ... ... ... ... : ... .. . ... ... ... ... : ... .. . ... : ... .. . ... : ... .. . ...
ROW 38 : C-4 00 6 ... ... ... ... : D#3 00 6 ... ... ... ... : G#2 00 . ... : 2-# 00 6 ... : ... .. . ...
ROW 39 : ... .. . ... ... ... ... : ... .. . ... ... ... ... : ... .. . ... : ... .. 4 ... : ... .. . ...
ROW 3A : ... .. 5 ... ... ... ... : ... .. 5 ... ... ... ... : ... .. . ... : ... .. 2 ... : ... .. . ...
ROW 3B : ... .. . ... ... ... ... : ... .. . ... ... ... ... : ... .. . ... : ... .. 1 ... : ... .. . ...
ROW 3C : ... .. 4 ... ... ... ... : ... .. 4 ... ... ... ... : ... .. . ... : ... .. 0 ... : ... .. . ...
ROW 3D : ... .. . ... ... ... ... : ... .. . ... ... ... ... : --- .. . ... : ... .. . ... : ... .. . ...
ROW 3E : ... .. 3 ... ... ... ... : ... .. 3 ... ... ... ... : ... .. . ... : ... .. . ... : ... .. . ...
ROW 3F : ... .. . ... ... ... ... : ... .. . ... ... ... ... : D#3 00 . ... : E-# 00 6 ... : ... .. . ...
ROW 40 : ... .. 2 ... ... ... ... : ... .. 2 ... ... ... ... : ... .. . ... : ... .. 4 ... : ... .. . ...
ROW 41 : ... .. . ... ... ... ... : ... .. . ... ... ... ... : ... .. . ... : ... .. 2 ... : ... .. . ...
ROW 42 : ... .. 1 ... ... ... ... : ... .. 1 ... ... ... ... : ... .. . ... : ... .. 1 ... : ... .. . ...
ROW 43 : A#3 00 . ... ... ... ... : D-3 00 . ... ... ... ... : ... .. . ... : ... .. 0 ... : ... .. . ...
ROW 44 : ... .. . ... ... ... ... : ... .. . ... ... ... ... : --- .. . ... : ... .. . ... : ... .. . ...
ROW 45 : ... .. . ... ... ... ... : ... .. . ... ... ... ... : ... .. . ... : ... .. . ... : ... .. . ...
ROW 46 : A#3 00 6 ... ... ... ... : D#3 00 6 ... ... ... ... : C-4 00 . ... : 7-# 00 6 ... : ... .. . ...
ROW 47 : ... .. . ... ... ... ... : ... .. . ... ... ... ... : ... .. . ... : ... .. 4 ... : ... .. . ...
ROW 48 : ... .. 5 ... ... ... ... : ... .. 5 ... ... ... ... : ... .. . ... : ... .. 2 ... : ... .. . ...
ROW 49 : ... .. . ... ... ... ... : ... .. . ... ... ... ... : ... .. . ... : ... .. 1 ... : ... .. . ...
ROW 4A : ... .. 4 ... ... ... ... : ... .. 4 ... ... ... ... : ... .. . ... : ... .. 0 ... : ... .. . ...
ROW 4B : ... .. . ... ... ... ... : ... .. . ... ... ... ... : --- .. . ... : ... .. . ... : ... .. . ...
ROW 4C : ... .. 3 ... ... ... ... : ... .. 3 ... ... ... ... : ... .. . ... : ... .. . ... : ... .. . ...
ROW 4D : ... .. . ... ... ... ... : ... .. . ... ... ... ... : D#4 00 . ... : E-# 00 6 ... : ... .. . ...
ROW 4E : ... .. 2 ... ... ... ... : ... .. 2 ... ... ... ... : ... .. . ... : ... .. 4 ... : ... .. . ...
ROW 4F : ... .. . ... ... ... ... : ... .. . ... ... ... ... : ... .. . ... : ... .. 2 ... : ... .. . ...
ROW 50 : ... .. 1 ... ... ... ... : ... .. 1 ... ... ... ... : ... .. . ... : ... .. 1 ... : ... .. . ...
ROW 51 : C-4 00 . ... ... ... ... : D#3 00 . ... ... ... ... : ... .. . ... : ... .. 0 ... : ... .. . ...
ROW 52 : ... .. . ... ... ... ... : ... .. . ... ... ... ... : --- .. . ... : ... .. . ... : ... .. . ...
ROW 53 : ... .. . ... ... ... ... : ... .. . ... ... ... ... : ... .. . ... : ... .. . ... : ... .. . ...
ROW 54 : D-4 00 6 ... ... ... ... : F-3 00 6 ... ... ... ... : G-1 00 . ... : 2-# 00 6 ... : ... .. . ...
ROW 55 : ... .. . ... ... ... ... : ... .. . ... ... ... ... : ... .. . ... : ... .. 4 ... : ... .. . ...
ROW 56 : ... .. 5 ... ... ... ... : ... .. 5 ... ... ... ... : ... .. . ... : ... .. 2 ... : ... .. . ...
ROW 57 : ... .. . ... ... ... ... : ... .. . ... ... ... ... : ... .. . ... : ... .. 1 ... : ... .. . ...
ROW 58 : ... .. 4 ... ... ... ... : ... .. 4 ... ... ... ... : ... .. . ... : ... .. 0 ... : ... .. . ...
ROW 59 : ... .. . ... ... ... ... : ... .. . ... ... ... ... : --- .. . ... : ... .. . ... : ... .. . ...
ROW 5A : ... .. 3 ... ... ... ... : ... .. 3 ... ... ... ... : ... .. . ... : ... .. . ... : ... .. . ...
ROW 5B : ... .. . ... ... ... ... : ... .. . ... ... ... ... : D-2 00 . ... : E-# 00 6 ... : ... .. . ...
ROW 5C : ... .. 2 ... ... ... ... : ... .. 2 ... ... ... ... : ... .. . ... : ... .. 4 ... : ... .. . ...
ROW 5D : ... .. . ... ... ... ... : ... .. . ... ... ... ... : ... .. . ... : ... .. 2 ... : ... .. . ...
ROW 5E : ... .. 1 ... ... ... ... : ... .. 1 ... ... ... ... : ... .. . ... : E-# 00 6 ... : ... .. . ...
ROW 5F : A#3 00 . ... ... ... ... : D#3 00 . ... ... ... ... : ... .. . ... : ... .. 4 ... : ... .. . ...
ROW 60 : ... .. . ... ... ... ... : ... .. . ... ... ... ... : --- .. . ... : ... .. 2 ... : ... .. . ...
ROW 61 : ... .. . ... ... ... ... : ... .. . ... ... ... ... : ... .. . ... : ... .. 1 ... : ... .. . ...
ROW 62 : B-3 00 6 ... ... ... ... : F-3 00 6 ... ... ... ... : G-2 00 . ... : 7-# 00 6 ... : ... .. . ...
ROW 63 : ... .. . ... ... ... ... : ... .. . ... ... ... ... : ... .. . ... : ... .. 4 ... : ... .. . ...
ROW 64 : ... .. 5 ... ... ... ... : ... .. 5 ... ... ... ... : ... .. . ... : ... .. 2 ... : ... .. . ...
ROW 65 : ... .. . ... ... ... ... : ... .. . ... ... ... ... : ... .. . ... : ... .. 1 ... : ... .. . ...
ROW 66 : ... .. 4 ... ... ... ... : ... .. 4 ... ... ... ... : ... .. . ... : ... .. 0 ... : ... .. . ...
ROW 67 : ... .. . ... ... ... ... : ... .. . ... ... ... ... : --- .. . ... : ... .. . ... : ... .. . ...
ROW 68 : ... .. 3 ... ... ... ... : ... .. 3 ... ... ... ... : ... .. . ... : ... .. . ... : ... .. . ...
ROW 69 : ... .. . ... ... ... ... : ... .. . ... ... ... ... : B-2 00 . ... : E-# 00 6 ... : ... .. . ...
ROW 6A : ... .. 2 ... ... ... ... : ... .. 2 ... ... ... ... : ... .. . ... : ... .. 4 ... : ... .. . ...
ROW 6B : ... .. . ... ... ... ... : ... .. . ... ... ... ... : ... .. . ... : ... .. 2 ... : ... .. . ...
ROW 6C : ... .. 1 ... ... ... ... : ... .. 1 ... ... ... ... : ... .. . ... : ... .. 1 ... : ... .. . ...
ROW 6D : D-4 00 . ... ... ... ... : D-3 00 . ... ... ... ... : ... .. . ... : ... .. 0 ... : ... .. . ...
ROW 6E : ... .. . ... ... ... ... : ... .. . ... ... ... ... : --- .. . ... : ... .. . ... : ... .. . ...
ROW 6F : ... .. . ... ... ... ... : ... .. . ... ... ... ... : ... .. . ... : ... .. . ... : ... .. . ...
ROW 70 : C-4 00 7 ... ... ... ... : E-3 00 7 ... ... ... ... : C-3 00 . ... : 2-# 00 5 V00 : ... .. . ...
ROW 71 : ... .. . ... ... ... ... : ... .. . ... ... ... ... : ... .. . ... : ... .. 4 ... : ... .. . ...
ROW 72 : ... .. 6 ... ... ... ... : ... .. 6 ... ... ... ... : ... .. . ... : ... .. 3 ... : ... .. . ...
ROW 73 : ... .. . ... ... ... ... : ... .. . ... ... ... ... : ... .. . ... : ... .. 2 ... : ... .. . ...
ROW 74 : ... .. 5 ... ... ... ... : ... .. 5 ... ... ... ... : ... .. . ... : ... .. 1 ... : ... .. . ...
ROW 75 : ... .. . ... ... ... ... : ... .. . ... ... ... ... : --- .. . ... : ... .. 0 ... : ... .. . ...
ROW 76 : ... .. . ... ... ... ... : ... .. . ... ... ... ... : ... .. . ... : ... .. . ... : ... .. . ...
ROW 77 : ... .. . ... ... ... ... : ... .. . ... ... ... ... : ... .. . ... : 2-# 00 1 ... : ... .. . ...
ROW 78 : ... .. . ... ... ... ... : ... .. . ... ... ... ... : ... .. . ... : ... .. 0 ... : ... .. . ...
ROW 79 : ... .. . ... ... ... ... : ... .. . ... ... ... ... : ... .. . ... : ... .. . ... : ... .. . ...
ROW 7A : ... .. . ... ... ... ... : ... .. . ... ... ... ... : ... .. . ... : ... .. . ... : ... .. . ...
ROW 7B : ... .. . ... ... ... ... : ... .. . ... ... ... ... : ... .. . ... : ... .. . ... : ... .. . ...
ROW 7C : ... .. . ... ... ... ... : ... .. . ... ... ... ... : ... .. . ... : ... .. . ... : ... .. . ...
ROW 7D : ... .. . ... ... ... ... : ... .. . ... ... ... ... : ... .. . ... : ... .. . ... : ... .. . ...
ROW 7E : ... .. . ... ... ... ... : ... .. . ... ... ... ... : C-3 00 . ... : F-# 00 6 ... : ... .. . ...
ROW 7F : ... .. . ... ... ... ... : ... .. . ... ... ... ... : ... .. . ... : ... .. 4 ... : ... .. . ...
ROW 80 : ... .. . ... ... ... ... : ... .. . ... ... ... ... : ... .. . ... : ... .. 2 ... : ... .. . ...
ROW 81 : ... .. . ... ... ... ... : ... .. . ... ... ... ... : ... .. . ... : ... .. 1 ... : ... .. . ...
ROW 82 : ... .. . ... ... ... ... : ... .. . ... ... ... ... : ... .. . ... : ... .. 0 ... : ... .. . ...
ROW 83 : ... .. . ... ... ... ... : ... .. . ... ... ... ... : --- .. . ... : ... .. . ... : ... .. . ...
ROW 84 : ... .. . ... ... ... ... : ... .. . ... ... ... ... : ... .. . ... : ... .. . ... : ... .. . ...
ROW 85 : ... .. . ... ... ... ... : ... .. . ... ... ... ... : C-3 00 . ... : E-# 00 6 ... : ... .. . ...
ROW 86 : ... .. . ... ... ... ... : ... .. . ... ... ... ... : ... .. . ... : ... .. 4 ... : ... .. . ...
ROW 87 : ... .. . ... ... ... ... : ... .. . ... ... ... ... : ... .. . ... : ... .. 2 ... : ... .. . ...
ROW 88 : ... .. . ... ... ... ... : ... .. . ... ... ... ... : ... .. . ... : ... .. 1 ... : ... .. . ...
ROW 89 : ... .. . ... ... ... ... : ... .. . ... ... ... ... : ... .. . ... : ... .. 0 ... : ... .. . ...
ROW 8A : ... .. . ... ... ... ... : ... .. . ... ... ... ... : ... .. . ... : ... .. . ... : ... .. . ...
ROW 8B : ... .. . ... ... ... ... : ... .. . ... ... ... ... : ... .. . ... : ... .. . ... : ... .. . ...
ROW 8C : ... .. . ... ... ... P7F : ... .. . ... ... ... P7F : A#3 00 . P86 : 4-# 00 4 ... : ... .. . ...
ROW 8D : ... .. . ... ... ... P7E : ... .. . ... ... ... P7E : A-3 00 . P80 : 6-# 00 . ... : ... .. . ...
ROW 8E : ... .. . ... ... ... P7D : ... .. . ... ... ... P7D : G#3 00 . P7B : 8-# 00 3 ... : ... .. . ...
ROW 8F : ... .. . ... ... ... P7E : ... .. . ... ... ... P7E : F#3 00 . P88 : A-# 00 . ... : ... .. . ...
ROW 90 : ... .. . ... ... ... P7F : ... .. . ... ... ... P7F : F-3 00 . P86 : C-# 00 2 ... : ... .. . ...
ROW 91 : ... .. . ... ... ... P80 : ... .. . ... ... ... P80 : E-3 00 . P85 : E-# 00 . ... : ... .. . ...
ROW 92 : ... .. . ... ... ... P81 : ... .. . ... ... ... P81 : D#3 00 . P86 : 0-# 00 1 ... : ... .. . ...
ROW 93 : ... .. . ... ... ... P82 : ... .. . ... ... ... P82 : D-3 00 . P87 : 2-# 00 0 ... : ... .. . ...
ROW 94 : ... .. . ... ... ... P83 : ... .. . ... ... ... P83 : C#3 00 . P8A : ... .. 0 ... : ... .. . ...
ROW 95 : ... .. . ... ... ... P82 : ... .. . ... ... ... P82 : --- .. . ... : ... .. . ... : ... .. . ...
ROW 96 : ... .. . ... ... ... P81 : ... .. . ... ... ... P81 : ... .. . ... : ... .. . ... : ... .. . ...
ROW 97 : ... .. . ... ... ... P80 : ... .. . ... ... ... P80 : ... .. . ... : ... .. . ... : ... .. . ...
ROW 98 : ... .. . ... ... ... P7F : ... .. . ... ... ... P7F : ... .. . ... : ... .. . ... : ... .. . ...
ROW 99 : ... .. . ... ... ... P7E : ... .. . ... ... ... P7E : ... .. . ... : ... .. . ... : ... .. . ...
ROW 9A : ... .. . ... ... ... P7D : ... .. . ... ... ... P7D : C-3 00 . P80 : F-# 00 6 ... : ... .. . ...
ROW 9B : ... .. . ... ... ... P7E : ... .. . ... ... ... P7E : ... .. . ... : ... .. 4 ... : ... .. . ...
ROW 9C : ... .. . ... ... ... P7F : ... .. . ... ... ... P7F : ... .. . ... : ... .. 2 ... : ... .. . ...
ROW 9D : ... .. . ... ... ... P80 : ... .. . ... ... ... P80 : ... .. . ... : ... .. 1 ... : ... .. . ...
ROW 9E : ... .. . ... ... ... P81 : ... .. . ... ... ... P81 : ... .. . ... : ... .. 0 ... : ... .. . ...
ROW 9F : ... .. . ... ... ... P82 : ... .. . ... ... ... P82 : --- .. . ... : ... .. . ... : ... .. . ...
ROW A0 : ... .. . ... ... ... P83 : ... .. . ... ... ... P83 : ... .. . ... : ... .. . ... : ... .. . ...
ROW A1 : C-4 00 . ... ... ... P80 : F-3 00 . ... ... ... P80 : C-3 00 . ... : E-# 00 6 ... : ... .. . ...
ROW A2 : ... .. . ... ... ... ... : F#3 00 . ... ... ... ... : ... .. . ... : ... .. 4 ... : ... .. . ...
ROW A3 : C#4 00 . ... ... ... ... : G-3 00 . ... ... ... ... : ... .. . ... : ... .. 2 ... : ... .. . ...
ROW A4 : ... .. . ... ... ... ... : G#3 00 . ... ... ... ... : ... .. . ... : ... .. 1 ... : ... .. . ...
ROW A5 : D-4 00 . ... ... ... ... : A-3 00 . ... ... ... ... : ... .. . ... : ... .. 0 ... : ... .. . ...
ROW A6 : ... .. . ... ... ... ... : A#3 00 . ... ... ... ... : --- .. . ... : ... .. . ... : ... .. . ...
ROW A7 : D#4 00 . ... ... ... ... : B-3 00 . ... ... ... ... : ... .. . ... : ... .. . ... : ... .. . ...
ROW A8 : E-4 00 . ... ... ... ... : C-4 00 . ... ... ... ... : C-3 00 . ... : 2-# 00 5 ... : ... .. . ...
ROW A9 : ... .. . ... ... ... ... : ... .. . ... ... ... ... : ... .. . ... : ... .. 4 ... : ... .. . ...
ROW AA : ... .. . ... ... ... ... : ... .. . ... ... ... ... : ... .. . ... : ... .. 3 ... : ... .. . ...
ROW AB : ... .. . ... ... ... ... : ... .. . ... ... ... ... : ... .. . ... : ... .. 2 ... : ... .. . ...
ROW AC : ... .. . ... ... ... ... : ... .. . ... ... ... ... : ... .. . ... : ... .. 1 ... : ... .. . ...
ROW AD : ... .. . ... ... ... ... : ... .. . ... ... ... ... : ... .. . ... : ... .. 0 ... : ... .. . ...
ROW AE : ... .. . ... ... ... ... : ... .. . ... ... ... ... : ... .. . ... : ... .. . ... : ... .. . ...
ROW AF : ... .. . ... ... ... ... : ... .. . ... ... ... ... : --- .. . ... : 2-# 00 1 ... : ... .. . ...
ROW B0 : ... .. . ... ... ... ... : ... .. . ... ... ... ... : ... .. . ... : ... .. 0 ... : ... .. . ...
ROW B1 : ... .. . ... ... ... ... : ... .. . ... ... ... ... : ... .. . ... : ... .. . ... : ... .. . ...
ROW B2 : ... .. . ... ... ... ... : ... .. . ... ... ... ... : ... .. . ... : ... .. . ... : ... .. . ...
ROW B3 : ... .. . ... ... ... ... : ... .. . ... ... ... ... : ... .. . ... : ... .. . ... : ... .. . ...
ROW B4 : ... .. . ... ... ... ... : ... .. . ... ... ... ... : ... .. . ... : ... .. . ... : ... .. . ...
ROW B5 : ... .. . ... ... ... ... : ... .. . ... ... ... ... : ... .. . ... : ... .. . ... : ... .. . ...
ROW B6 : ... .. . ... ... ... ... : ... .. . ... ... ... ... : C-3 00 . ... : F-# 00 6 ... : ... .. . ...
ROW B7 : ... .. . ... ... ... ... : ... .. . ... ... ... ... : ... .. . ... : ... .. 4 ... : ... .. . ...
ROW B8 : ... .. . ... ... ... ... : ... .. . ... ... ... ... : ... .. . ... : ... .. 2 ... : ... .. . ...
ROW B9 : ... .. . ... ... ... ... : ... .. . ... ... ... ... : ... .. . ... : ... .. 1 ... : ... .. . ...
ROW BA : ... .. . ... ... ... ... : ... .. . ... ... ... ... : ... .. . ... : ... .. 0 ... : ... .. . ...
ROW BB : ... .. . ... ... ... ... : ... .. . ... ... ... ... : --- .. . ... : ... .. . ... : ... .. . ...
ROW BC : ... .. . ... ... ... ... : ... .. . ... ... ... ... : ... .. . ... : ... .. . ... : ... .. . ...
ROW BD : ... .. . ... ... ... ... : ... .. . ... ... ... ... : C-3 00 . ... : E-# 00 6 ... : ... .. . ...
ROW BE : ... .. . ... ... ... ... : ... .. . ... ... ... ... : ... .. . ... : ... .. 4 ... : ... .. . ...
ROW BF : ... .. . ... ... ... ... : ... .. . ... ... ... ... : ... .. . ... : ... .. 2 ... : ... .. . ...
ROW C0 : ... .. . ... ... ... ... : ... .. . ... ... ... ... : ... .. . ... : ... .. 1 ... : ... .. . ...
ROW C1 : ... .. . ... ... ... ... : ... .. . ... ... ... ... : ... .. . ... : ... .. 0 ... : ... .. . ...
ROW C2 : ... .. . ... ... ... ... : ... .. . ... ... ... ... : ... .. . ... : ... .. . ... : ... .. . ...
ROW C3 : ... .. . ... ... ... ... : ... .. . ... ... ... ... : ... .. . ... : ... .. . ... : ... .. . ...
ROW C4 : ... .. . ... ... ... P7F : ... .. . ... ... ... P7F : A#3 00 . P86 : 4-# 00 4 ... : ... .. . ...
ROW C5 : ... .. . ... ... ... P7E : ... .. . ... ... ... P7E : A-3 00 . P80 : 6-# 00 . ... : ... .. . ...
ROW C6 : ... .. . ... ... ... P7D : ... .. . ... ... ... P7D : G#3 00 . P7B : 8-# 00 3 ... : ... .. . ...
ROW C7 : ... .. . ... ... ... P7E : ... .. . ... ... ... P7E : F#3 00 . P88 : A-# 00 . ... : ... .. . ...
ROW C8 : ... .. . ... ... ... P7F : ... .. . ... ... ... P7F : F-3 00 . P86 : C-# 00 2 ... : ... .. . ...
ROW C9 : ... .. . ... ... ... P80 : ... .. . ... ... ... P80 : E-3 00 . P85 : E-# 00 . ... : ... .. . ...
ROW CA : ... .. . ... ... ... P81 : ... .. . ... ... ... P81 : D#3 00 . P86 : 0-# 00 1 ... : ... .. . ...
ROW CB : ... .. . ... ... ... P82 : ... .. . ... ... ... P82 : D-3 00 . P87 : 2-# 00 0 ... : ... .. . ...
ROW CC : ... .. . ... ... ... P83 : ... .. . ... ... ... P83 : C#3 00 . P8A : ... .. 0 ... : ... .. . ...
ROW CD : ... .. . ... ... ... P82 : ... .. . ... ... ... P82 : --- .. . ... : ... .. . ... : ... .. . ...
ROW CE : ... .. . ... ... ... P81 : ... .. . ... ... ... P81 : ... .. . ... : ... .. . ... : ... .. . ...
ROW CF : ... .. . ... ... ... P80 : ... .. . ... ... ... P80 : ... .. . ... : ... .. . ... : ... .. . ...
ROW D0 : ... .. . ... ... ... P7F : ... .. . ... ... ... P7F : ... .. . ... : ... .. . ... : ... .. . ...
ROW D1 : ... .. . ... ... ... P7E : ... .. . ... ... ... P7E : ... .. . ... : ... .. . ... : ... .. . ...
ROW D2 : ... .. 4 ... ... ... P7D : ... .. 4 ... ... ... P7D : C-3 00 . P80 : F-# 00 6 ... : ... .. . ...
ROW D3 : ... .. . ... ... ... P7E : ... .. . ... ... ... P7E : ... .. . ... : ... .. 4 ... : ... .. . ...
ROW D4 : ... .. . ... ... ... P7F : ... .. . ... ... ... P7F : ... .. . ... : ... .. 2 ... : ... .. . ...
ROW D5 : ... .. 3 ... ... ... P80 : ... .. 3 ... ... ... P80 : ... .. . ... : ... .. 1 ... : ... .. . ...
ROW D6 : ... .. . ... ... ... P81 : ... .. . ... ... ... P81 : ... .. . ... : ... .. 0 ... : ... .. . ...
ROW D7 : ... .. . ... ... ... P82 : ... .. . ... ... ... P82 : --- .. . ... : ... .. . ... : ... .. . ...
ROW D8 : ... .. 2 ... ... ... P83 : ... .. 2 ... ... ... P83 : ... .. . ... : ... .. . ... : ... .. . ...
ROW D9 : ... .. . ... ... ... P82 : ... .. . ... ... ... P82 : C-3 00 . ... : E-# 00 6 ... : ... .. . ...
ROW DA : ... .. . ... ... ... P81 : ... .. . ... ... ... P81 : ... .. . ... : ... .. 4 ... : ... .. . ...
ROW DB : ... .. 1 ... ... ... P80 : ... .. 1 ... ... ... P80 : ... .. . ... : ... .. 2 ... : ... .. . ...
ROW DC : ... .. . ... ... ... P7F : ... .. . ... ... ... P7F : ... .. . ... : ... .. 1 ... : ... .. . ...
ROW DD : ... .. . ... ... ... P7E : ... .. . ... ... ... P7E : ... .. . ... : ... .. 0 ... : ... .. . ...
ROW DE : ... .. . ... ... ... P7D : ... .. . ... ... ... P7D : --- .. . ... : ... .. . ... : ... .. . ...
ROW DF : ... .. . ... ... ... P7E : ... .. . ... ... ... P7E : ... .. . ... : ... .. . ... : ... .. . ...

PATTERN 26
ROW 00 : E-4 00 5 V00 ... ... P80 : ... .. . ... ... ... P80 : C-3 00 . ... : 2-# 00 5 V00 : ... .. . ...
ROW 01 : ... .. . ... ... ... ... : D-4 00 5 V00 ... ... ... : ... .. . ... : ... .. 4 ... : ... .. . ...
ROW 02 : ... .. 4 ... ... ... ... : ... .. . ... ... ... ... : ... .. . ... : ... .. 3 ... : ... .. . ...
ROW 03 : ... .. . ... ... ... ... : ... .. 4 ... ... ... ... : ... .. . ... : ... .. 2 ... : ... .. . ...
ROW 04 : ... .. 3 ... ... ... ... : ... .. . ... ... ... ... : ... .. . ... : ... .. 1 ... : ... .. . ...
ROW 05 : ... .. . ... ... ... ... : ... .. 3 ... ... ... ... : ... .. . ... : ... .. 0 ... : ... .. . ...
ROW 06 : ... .. 2 ... ... ... ... : ... .. . ... ... ... ... : ... .. . ... : ... .. . ... : ... .. . ...
ROW 07 : ... .. . ... ... ... ... : ... .. 2 ... ... ... ... : ... .. . ... : 2-# 00 1 ... : ... .. . ...
ROW 08 : ... .. 1 ... ... ... ... : ... .. . ... ... ... ... : ... .. . ... : ... .. 0 ... : ... .. . ...
ROW 09 : ... .. . ... ... ... ... : ... .. 1 ... ... ... ... : ... .. . ... : ... .. . ... : ... .. . ...
ROW 0A : ... .. . ... ... ... ... : ... .. . ... ... ... ... : ... .. . ... : ... .. . ... : ... .. . ...
ROW 0B : ... .. . ... ... ... ... : ... .. . ... ... ... ... : ... .. . ... : ... .. . ... : ... .. . ...
ROW 0C : ... .. . ... ... ... ... : ... .. . ... ... ... ... : ... .. . ... : ... .. . ... : ... .. . ...
ROW 0D : ... .. . ... ... ... ... : ... .. . ... ... ... ... : ... .. . ... : ... .. . ... : ... .. . ...
ROW 0E : E-4 00 5 ... ... ... ... : ... .. . ... ... ... ... : ... .. . ... : F-# 00 6 ... : ... .. . ...
ROW 0F : ... .. . ... ... ... ... : D-4 00 5 ... ... ... ... : ... .. . ... : ... .. 4 ... : ... .. . ...
ROW 10 : ... .. 4 ... ... ... ... : ... .. . ... ... ... ... : ... .. . ... : ... .. 2 ... : ... .. . ...
ROW 11 : ... .. . ... ... ... ... : ... .. 4 ... ... ... ... : ... .. . ... : ... .. 1 ... : ... .. . ...
ROW 12 : ... .. 3 ... ... ... ... : ... .. . ... ... ... ... : ... .. . ... : ... .. 0 ... : ... .. . ...
ROW 13 : ... .. . ... ... ... ... : ... .. 3 ... ... ... ... : ... .. . ... : ... .. . ... : ... .. . ...
ROW 14 : ... .. 2 ... ... ... ... : ... .. . ... ... ... ... : ... .. . ... : ... .. . ... : ... .. . ...
ROW 15 : ... .. . ... ... ... ... : ... .. 2 ... ... ... ... : ... .. . ... : E-# 00 6 ... : ... .. . ...
ROW 16 : ... .. 1 ... ... ... ... : ... .. . ... ... ... ... : ... .. . ... : ... .. 4 ... : ... .. . ...
ROW 17 : ... .. . ... ... ... ... : ... .. 1 ... ... ... ... : ... .. . ... : ... .. 2 ... : ... .. . ...
ROW 18 : ... .. . ... ... ... ... : ... .. . ... ... ... ... : ... .. . ... : ... .. 1 ... : ... .. . ...
ROW 19 : ... .. . ... ... ... ... : ... .. . ... ... ... ... : ... .. . ... : ... .. 0 ... : ... .. . ...
ROW 1A : ... .. . ... ... ... ... : ... .. . ... ... ... ... : ... .. . ... : ... .. . ... : ... .. . ...
ROW 1B : ... .. . ... ... ... ... : ... .. . ... ... ... ... : ... .. . ... : ... .. . ... : ... .. . ...
ROW 1C : E-4 00 5 ... ... ... ... : ... .. . ... ... ... ... : ... .. . ... : 4-# 00 4 ... : ... .. . ...
ROW 1D : ... .. . ... ... ... ... : D-4 00 5 ... ... ... ... : ... .. . ... : 6-# 00 . ... : ... .. . ...
ROW 1E : ... .. 4 ... ... ... ... : ... .. . ... ... ... ... : ... .. . ... : 8-# 00 3 ... : ... .. . ...
ROW 1F : ... .. . ... ... ... ... : ... .. 4 ... ... ... ... : ... .. . ... : A-# 00 . ... : ... .. . ...
ROW 20 : ... .. 3 ... ... ... ... : ... .. . ... ... ... ... : ... .. . ... : C-# 00 2 ... : ... .. . ...
ROW 21 : ... .. . ... ... ... ... : ... .. 3 ... ... ... ... : ... .. . ... : E-# 00 . ... : ... .. . ...
ROW 22 : ... .. 2 ... ... ... ... : ... .. . ... ... ... ... : ... .. . ... : 0-# 00 1 ... : ... .. . ...
ROW 23 : ... .. . ... ... ... ... : ... .. 2 ... ... ... ... : ... .. . ... : 2-# 00 0 ... : ... .. . ...
ROW 24 : ... .. 1 ... ... ... ... : ... .. . ... ... ... ... : ... .. . ... : ... .. 0 ... : ... .. . ...
ROW 25 : ... .. . ... ... ... ... : ... .. 1 ... ... ... ... : ... .. . ... : ... .. . ... : ... .. . ...
ROW 26 : ... .. . ... ... ... ... : ... .. . ... ... ... ... : ... .. . ... : ... .. . ... : ... .. . ...
ROW 27 : ... .. . ... ... ... ... : ... .. . ... ... ... ... : ... .. . ... : ... .. . ... : ... .. . ...
ROW 28 : ... .. . ... ... ... ... : ... .. . ... ... ... ... : ... .. . ... : ... .. . ... : ... .. . ...
ROW 29 : ... .. . ... ... ... ... : ... .. . ... ... ... ... : ... .. . ... : ... .. . ... : ... .. . ...
ROW 2A : E-4 00 5 ... ... ... ... : ... .. . ... ... ... ... : F-3 00 . ... : F-# 00 6 ... : ... .. . ...
ROW 2B : ... .. . ... ... ... ... : D-4 00 5 ... ... ... ... : F#3 00 . ... : ... .. 4 ... : ... .. . ...
ROW 2C : ... .. 4 ... ... ... ... : ... .. . ... ... ... ... : G-3 00 . ... : ... .. 2 ... : ... .. . ...
ROW 2D : ... .. . ... ... ... ... : ... .. 4 ... ... ... ... : G#3 00 . ... : ... .. 1 ... : ... .. . ...
ROW 2E : ... .. 3 ... ... ... ... : ... .. . ... ... ... ... : A-3 00 . ... : ... .. 0 ... : ... .. . ...
ROW 2F : ... .. . ... ... ... ... : ... .. 3 ... ... ... ... : ... .. . ... : ... .. . ... : ... .. . ...
ROW 30 : ... .. 2 ... ... ... ... : ... .. . ... ... ... ... : ... .. . ... : ... .. . ... : ... .. . ...
ROW 31 : ... .. . ... ... ... ... : ... .. 2 ... ... ... ... : ... .. . ... : E-# 00 6 ... : ... .. . ...
ROW 32 : ... .. 1 ... ... ... ... : ... .. . ... ... ... ... : ... .. . ... : ... .. 4 ... : ... .. . ...
ROW 33 : ... .. . ... ... ... ... : ... .. 1 ... ... ... ... : ... .. . ... : ... .. 2 ... : ... .. . ...
ROW 34 : ... .. . ... ... ... ... : ... .. . ... ... ... ... : ... .. . ... : ... .. 1 ... : ... .. . ...
ROW 35 : ... .. . ... ... ... ... : ... .. . ... ... ... ... : ... .. . ... : ... .. 0 ... : ... .. . ...
ROW 36 : ... .. . ... ... ... ... : ... .. . ... ... ... ... : ... .. . ... : ... .. . ... : ... .. . ...
ROW 37 : ... .. . ... ... ... ... : ... .. . ... ... ... ... : ... .. . ... : ... .. . ... : ... .. . ...
ROW 38 : E-4 00 5 ... ... ... ... : ... .. . ... ... ... ... : G-3 00 . ... : 2-# 00 5 ... : ... .. . ...
ROW 39 : ... .. . ... ... ... ... : D-4 00 5 ... ... ... ... : ... .. . ... : ... .. 4 ... : ... .. . ...
ROW 3A : ... .. 4 ... ... ... ... : ... .. . ... ... ... ... : ... .. . ... : ... .. 3 ... : ... .. . ...
ROW 3B : ... .. . ... ... ... ... : ... .. 4 ... ... ... ... : ... .. . ... : ... .. 2 ... : ... .. . ...
ROW 3C : ... .. 3 ... ... ... ... : ... .. . ... ... ... ... : ... .. . ... : ... .. 1 ... : ... .. . ...
ROW 3D : ... .. . ... ... ... ... : ... .. 3 ... ... ... ... : ... .. . ... : ... .. 0 ... : ... .. . ...
ROW 3E : ... .. 2 ... ... ... ... : ... .. . ... ... ... ... : ... .. . ... : ... .. . ... : ... .. . ...
ROW 3F : ... .. . ... ... ... ... : ... .. 2 ... ... ... ... : ... .. . ... : 2-# 00 1 ... : ... .. . ...
ROW 40 : ... .. 1 ... ... ... ... : ... .. . ... ... ... ... : ... .. . ... : ... .. 0 ... : ... .. . ...
ROW 41 : ... .. . ... ... ... ... : ... .. 1 ... ... ... ... : ... .. . ... : ... .. . ... : ... .. . ...
ROW 42 : ... .. . ... ... ... ... : ... .. . ... ... ... ... : ... .. . ... : ... .. . ... : ... .. . ...
ROW 43 : ... .. . ... ... ... ... : ... .. . ... ... ... ... : ... .. . ... : ... .. . ... : ... .. . ...
ROW 44 : ... .. . ... ... ... ... : ... .. . ... ... ... ... : ... .. . ... : ... .. . ... : ... .. . ...
ROW 45 : ... .. . ... ... ... ... : ... .. . ... ... ... ... : ... .. . ... : ... .. . ... : ... .. . ...
ROW 46 : E-4 00 5 ... ... ... ... : ... .. . ... ... ... ... : ... .. . ... : F-# 00 6 ... : ... .. . ...
ROW 47 : ... .. . ... ... ... ... : D-4 00 5 ... ... ... ... : ... .. . ... : ... .. 4 ... : ... .. . ...
ROW 48 : ... .. 4 ... ... ... ... : ... .. . ... ... ... ... : ... .. . ... : ... .. 2 ... : ... .. . ...
ROW 49 : ... .. . ... ... ... ... : ... .. 4 ... ... ... ... : ... .. . ... : ... .. 1 ... : ... .. . ...
ROW 4A : ... .. 3 ... ... ... ... : ... .. . ... ... ... ... : ... .. . ... : ... .. 0 ... : ... .. . ...
ROW 4B : ... .. . ... ... ... ... : ... .. 3 ... ... ... ... : ... .. . ... : ... .. . ... : ... .. . ...
ROW 4C : ... .. 2 ... ... ... ... : ... .. . ... ... ... ... : ... .. . ... : ... .. . ... : ... .. . ...
ROW 4D : ... .. . ... ... ... ... : ... .. 2 ... ... ... ... : ... .. . ... : E-# 00 6 ... : ... .. . ...
ROW 4E : ... .. 1 ... ... ... ... : ... .. . ... ... ... ... : ... .. . ... : ... .. 4 ... : ... .. . ...
ROW 4F : ... .. . ... ... ... ... : ... .. 1 ... ... ... ... : ... .. . ... : ... .. 2 ... : ... .. . ...
ROW 50 : ... .. . ... ... ... ... : ... .. . ... ... ... ... : ... .. . ... : ... .. 1 ... : ... .. . ...
ROW 51 : ... .. . ... ... ... ... : ... .. . ... ... ... ... : ... .. . ... : ... .. 0 ... : ... .. . ...
ROW 52 : ... .. . ... ... ... ... : ... .. . ... ... ... ... : ... .. . ... : ... .. . ... : ... .. . ...
ROW 53 : ... .. . ... ... ... ... : ... .. . ... ... ... ... : ... .. . ... : ... .. . ... : ... .. . ...
ROW 54 : E-4 00 5 ... ... ... ... : ... .. . ... ... ... ... : ... .. . ... : 4-# 00 4 ... : ... .. . ...
ROW 55 : ... .. . ... ... ... ... : D-4 00 5 ... ... ... ... : ... .. . ... : 6-# 00 . ... : ... .. . ...
ROW 56 : ... .. 4 ... ... ... ... : ... .. . ... ... ... ... : ... .. . ... : 8-# 00 3 ... : ... .. . ...
ROW 57 : ... .. . ... ... ... ... : ... .. 4 ... ... ... ... : ... .. . ... : A-# 00 . ... : ... .. . ...
ROW 58 : ... .. 3 ... ... ... ... : ... .. . ... ... ... ... : ... .. . ... : C-# 00 2 ... : ... .. . ...
ROW 59 : ... .. . ... ... ... ... : ... .. 3 ... ... ... ... : ... .. . ... : E-# 00 . ... : ... .. . ...
ROW 5A : ... .. 2 ... ... ... ... : ... .. . ... ... ... ... : ... .. . ... : 0-# 00 1 ... : ... .. . ...
ROW 5B : ... .. . ... ... ... ... : ... .. 2 ... ... ... ... : ... .. . ... : 2-# 00 0 ... : ... .. . ...
ROW 5C : ... .. 1 ... ... ... ... : ... .. . ... ... ... ... : ... .. . ... : ... .. 0 ... : ... .. . ...
ROW 5D : ... .. . ... ... ... ... : ... .. 1 ... ... ... ... : ... .. . ... : ... .. . ... : ... .. . ...
ROW 5E : ... .. . ... ... ... ... : ... .. . ... ... ... ... : ... .. . ... : ... .. . ... : ... .. . ...
ROW 5F : ... .. . ... ... ... ... : ... .. . ... ... ... ... : ... .. . ... : ... .. . ... : ... .. . ...
ROW 60 : ... .. . ... ... ... ... : ... .. . ... ... ... ... : ... .. . ... : ... .. . ... : ... .. . ...
ROW 61 : ... .. . ... ... ... ... : ... .. . ... ... ... ... : ... .. . ... : ... .. . ... : ... .. . ...
ROW 62 : E-4 00 5 ... ... ... ... : ... .. . ... ... ... ... : F#3 00 . ... : F-# 00 6 ... : ... .. . ...
ROW 63 : ... .. . ... ... ... ... : D-4 00 5 ... ... ... ... : ... .. . ... : ... .. 4 ... : ... .. . ...
ROW 64 : ... .. 4 ... ... ... ... : ... .. . ... ... ... ... : ... .. . ... : ... .. 2 ... : ... .. . ...
ROW 65 : ... .. . ... ... ... ... : ... .. 4 ... ... ... ... : ... .. . ... : ... .. 1 ... : ... .. . ...
ROW 66 : ... .. 3 ... ... ... ... : ... .. . ... ... ... ... : ... .. . ... : ... .. 0 ... : ... .. . ...
ROW 67 : ... .. . ... ... ... ... : ... .. 3 ... ... ... ... : ... .. . ... : ... .. . ... : ... .. . ...
ROW 68 : ... .. 2 ... ... ... ... : ... .. . ... ... ... ... : ... .. . ... : ... .. . ... : ... .. . ...
ROW 69 : ... .. . ... ... ... ... : ... .. 2 ... ... ... ... : ... .. . ... : E-# 00 6 ... : ... .. . ...
ROW 6A : ... .. 1 ... ... ... ... : ... .. . ... ... ... ... : ... .. . ... : ... .. 4 ... : ... .. . ...
ROW 6B : ... .. . ... ... ... ... : ... .. 1 ... ... ... ... : ... .. . ... : ... .. 2 ... : ... .. . ...
ROW 6C : ... .. . ... ... ... ... : ... .. . ... ... ... ... : ... .. . ... : ... .. 1 ... : ... .. . ...
ROW 6D : ... .. . ... ... ... ... : ... .. . ... ... ... ... : ... .. . ... : ... .. 0 ... : ... .. . ...
ROW 6E : ... .. . ... ... ... ... : ... .. . ... ... ... ... : ... .. . ... : ... .. . ... : ... .. . ...
ROW 6F : ... .. . ... ... ... ... : ... .. . ... ... ... ... : ... .. . ... : ... .. . ... : ... .. . ...
ROW 70 : F-4 00 5 V00 ... ... ... : ... .. . ... ... ... ... : G-3 00 . ... : 2-# 00 5 V00 : ... .. . ...
ROW 71 : ... .. . ... ... ... ... : C-4 00 5 V00 ... ... ... : ... .. . ... : ... .. 4 ... : ... .. . ...
ROW 72 : ... .. 4 ... ... ... ... : ... .. . ... ... ... ... : ... .. . ... : ... .. 3 ... : ... .. . ...
ROW 73 : ... .. . ... ... ... ... : ... .. 4 ... ... ... ... : ... .. . ... : ... .. 2 ... : ... .. . ...
ROW 74 : ... .. 3 ... ... ... ... : ... .. . ... ... ... ... : ... .. . ... : ... .. 1 ... : ... .. . ...
ROW 75 : ... .. . ... ... ... ... : ... .. 3 ... ... ... ... : ... .. . ... : ... .. 0 ... : ... .. . ...
ROW 76 : ... .. 2 ... ... ... ... : ... .. . ... ... ... ... : ... .. . ... : ... .. . ... : ... .. . ...
ROW 77 : ... .. . ... ... ... ... : ... .. 2 ... ... ... ... : ... .. . ... : 2-# 00 1 ... : ... .. . ...
ROW 78 : ... .. 1 ... ... ... ... : ... .. . ... ... ... ... : ... .. . ... : ... .. 0 ... : ... .. . ...
ROW 79 : ... .. . ... ... ... ... : ... .. 1 ... ... ... ... : ... .. . ... : ... .. . ... : ... .. . ...
ROW 7A : ... .. . ... ... ... ... : ... .. . ... ... ... ... : ... .. . ... : ... .. . ... : ... .. . ...
ROW 7B : ... .. . ... ... ... ... : ... .. . ... ... ... ... : ... .. . ... : ... .. . ... : ... .. . ...
ROW 7C : ... .. . ... ... ... ... : ... .. . ... ... ... ... : ... .. . ... : ... .. . ... : ... .. . ...
ROW 7D : ... .. . ... ... ... ... : ... .. . ... ... ... ... : ... .. . ... : ... .. . ... : ... .. . ...
ROW 7E : F-4 00 5 ... ... ... ... : ... .. . ... ... ... ... : ... .. . ... : F-# 00 6 ... : ... .. . ...
ROW 7F : ... .. . ... ... ... ... : C-4 00 5 ... ... ... ... : ... .. . ... : ... .. 4 ... : ... .. . ...
ROW 80 : ... .. 4 ... ... ... ... : ... .. . ... ... ... ... : ... .. . ... : ... .. 2 ... : ... .. . ...
ROW 81 : ... .. . ... ... ... ... : ... .. 4 ... ... ... ... : ... .. . ... : ... .. 1 ... : ... .. . ...
ROW 82 : ... .. 3 ... ... ... ... : ... .. . ... ... ... ... : ... .. . ... : ... .. 0 ... : ... .. . ...
ROW 83 : ... .. . ... ... ... ... : ... .. 3 ... ... ... ... : ... .. . ... : ... .. . ... : ... .. . ...
ROW 84 : ... .. 2 ... ... ... ... : ... .. . ... ... ... ... : ... .. . ... : ... .. . ... : ... .. . ...
ROW 85 : ... .. . ... ... ... ... : ... .. 2 ... ... ... ... : ... .. . ... : E-# 00 6 ... : ... .. . ...
ROW 86 : ... .. 1 ... ... ... ... : ... .. . ... ... ... ... : ... .. . ... : ... .. 4 ... : ... .. . ...
ROW 87 : ... .. . ... ... ... ... : ... .. 1 ... ... ... ... : ... .. . ... : ... .. 2 ... : ... .. . ...
ROW 88 : ... .. . ... ... ... ... : ... .. . ... ... ... ... : ... .. . ... : ... .. 1 ... : ... .. . ...
ROW 89 : ... .. . ... ... ... ... : ... .. . ... ... ... ... : ... .. . ... : ... .. 0 ... : ... .. . ...
ROW 8A : ... .. . ... ... ... ... : ... .. . ... ... ... ... : ... .. . ... : ... .. . ... : ... .. . ...
ROW 8B : ... .. . ... ... ... ... : ... .. . ... ... ... ... : ... .. . ... : ... .. . ... : ... .. . ...
ROW 8C : F-4 00 5 ... ... ... ... : ... .. . ... ... ... ... : ... .. . ... : 4-# 00 4 ... : ... .. . ...
ROW 8D : ... .. . ... ... ... ... : C-4 00 5 ... ... ... ... : ... .. . ... : 6-# 00 . ... : ... .. . ...
ROW 8E : ... .. 4 ... ... ... ... : ... .. . ... ... ... ... : ... .. . ... : 8-# 00 3 ... : ... .. . ...
ROW 8F : ... .. . ... ... ... ... : ... .. 4 ... ... ... ... : ... .. . ... : A-# 00 . ... : ... .. . ...
ROW 90 : ... .. 3 ... ... ... ... : ... .. . ... ... ... ... : ... .. . ... : C-# 00 2 ... : ... .. . ...
ROW 91 : ... .. . ... ... ... ... : ... .. 3 ... ... ... ... : ... .. . ... : E-# 00 . ... : ... .. . ...
ROW 92 : ... .. 2 ... ... ... ... : ... .. . ... ... ... ... : ... .. . ... : 0-# 00 1 ... : ... .. . ...
ROW 93 : ... .. . ... ... ... ... : ... .. 2 ... ... ... ... : ... .. . ... : 2-# 00 0 ... : ... .. . ...
ROW 94 : ... .. 1 ... ... ... ... : ... .. . ... ... ... ... : ... .. . ... : ... .. 0 ... : ... .. . ...
ROW 95 : ... .. . ... ... ... ... : ... .. 1 ... ... ... ... : ... .. . ... : ... .. . ... : ... .. . ...
ROW 96 : ... .. . ... ... ... ... : ... .. . ... ... ... ... : ... .. . ... : ... .. . ... : ... .. . ...
ROW 97 : ... .. . ... ... ... ... : ... .. . ... ... ... ... : ... .. . ... : ... .. . ... : ... .. . ...
ROW 98 : ... .. . ... ... ... ... : ... .. . ... ... ... ... : ... .. . ... : ... .. . ... : ... .. . ...
ROW 99 : ... .. . ... ... ... ... : ... .. . ... ... ... ... : ... .. . ... : ... .. . ... : ... .. . ...
ROW 9A : F-4 00 5 ... ... ... ... : ... .. . ... ... ... ... : ... .. . ... : F-# 00 6 ... : ... .. . ...
ROW 9B : ... .. . ... ... ... ... : C-4 00 5 ... ... ... ... : ... .. . ... : ... .. 4 ... : ... .. . ...
ROW 9C : ... .. 4 ... ... ... ... : ... .. . ... ... ... ... : ... .. . ... : ... .. 2 ... : ... .. . ...
ROW 9D : ... .. . ... ... ... ... : ... .. 4 ... ... ... ... : ... .. . ... : ... .. 1 ... : ... .. . ...
ROW 9E : ... .. 3 ... ... ... ... : ... .. . ... ... ... ... : ... .. . ... : ... .. 0 ... : ... .. . ...
ROW 9F : ... .. . ... ... ... ... : ... .. 3 ... ... ... ... : ... .. . ... : ... .. . ... : ... .. . ...
ROW A0 : ... .. 2 ... ... ... ... : ... .. . ... ... ... ... : ... .. . ... : ... .. . ... : ... .. . ...
ROW A1 : ... .. . ... ... ... ... : ... .. 2 ... ... ... ... : ... .. . ... : E-# 00 6 ... : ... .. . ...
ROW A2 : ... .. 1 ... ... ... ... : ... .. . ... ... ... ... : ... .. . ... : ... .. 4 ... : ... .. . ...
ROW A3 : ... .. . ... ... ... ... : ... .. 1 ... ... ... ... : ... .. . ... : ... .. 2 ... : ... .. . ...
ROW A4 : ... .. . ... ... ... ... : ... .. . ... ... ... ... : ... .. . ... : ... .. 1 ... : ... .. . ...
ROW A5 : ... .. . ... ... ... ... : ... .. . ... ... ... ... : ... .. . ... : ... .. 0 ... : ... .. . ...
ROW A6 : ... .. . ... ... ... ... : ... .. . ... ... ... ... : ... .. . ... : ... .. . ... : ... .. . ...
ROW A7 : ... .. . ... ... ... ... : ... .. . ... ... ... ... : ... .. . ... : ... .. . ... : ... .. . ...
ROW A8 : F-4 00 5 ... ... ... ... : ... .. . ... ... ... ... : D-3 00 . ... : 2-# 00 5 ... : ... .. . ...
ROW A9 : ... .. . ... ... ... ... : B-3 00 5 ... ... ... ... : ... .. . ... : ... .. 4 ... : ... .. . ...
ROW AA : ... .. 4 ... ... ... ... : ... .. . ... ... ... ... : ... .. . ... : ... .. 3 ... : ... .. . ...
ROW AB : ... .. . ... ... ... ... : ... .. 4 ... ... ... ... : ... .. . ... : ... .. 2 ... : ... .. . ...
ROW AC : ... .. 3 ... ... ... ... : ... .. . ... ... ... ... : ... .. . ... : ... .. 1 ... : ... .. . ...
ROW AD : ... .. . ... ... ... ... : ... .. 3 ... ... ... ... : ... .. . ... : ... .. 0 ... : ... .. . ...
ROW AE : ... .. 2 ... ... ... ... : ... .. . ... ... ... ... : ... .. . ... : ... .. . ... : ... .. . ...
ROW AF : ... .. . ... ... ... ... : ... .. 2 ... ... ... ... : ... .. . ... : 2-# 00 1 ... : ... .. . ...
ROW B0 : ... .. 1 ... ... ... ... : ... .. . ... ... ... ... : ... .. . ... : ... .. 0 ... : ... .. . ...
ROW B1 : ... .. . ... ... ... ... : ... .. 1 ... ... ... ... : ... .. . ... : ... .. . ... : ... .. . ...
ROW B2 : ... .. . ... ... ... ... : ... .. . ... ... ... ... : ... .. . ... : ... .. . ... : ... .. . ...
ROW B3 : ... .. . ... ... ... ... : ... .. . ... ... ... ... : ... .. . ... : ... .. . ... : ... .. . ...
ROW B4 : ... .. . ... ... ... ... : ... .. . ... ... ... ... : ... .. . ... : ... .. . ... : ... .. . ...
ROW B5 : ... .. . ... ... ... ... : ... .. . ... ... ... ... : ... .. . ... : ... .. . ... : ... .. . ...
ROW B6 : F-4 00 5 ... ... ... ... : ... .. . ... ... ... ... : ... .. . ... : F-# 00 6 ... : ... .. . ...
ROW B7 : ... .. . ... ... ... ... : B-3 00 5 ... ... ... ... : ... .. . ... : ... .. 4 ... : ... .. . ...
ROW B8 : ... .. 4 ... ... ... ... : ... .. . ... ... ... ... : ... .. . ... : ... .. 2 ... : ... .. . ...
ROW B9 : ... .. . ... ... ... ... : ... .. 4 ... ... ... ... : ... .. . ... : ... .. 1 ... : ... .. . ...
ROW BA : ... .. 3 ... ... ... ... : ... .. . ... ... ... ... : ... .. . ... : ... .. 0 ... : ... .. . ...
ROW BB : ... .. . ... ... ... ... : ... .. 3 ... ... ... ... : ... .. . ... : ... .. . ... : ... .. . ...
ROW BC : ... .. 2 ... ... ... ... : ... .. . ... ... ... ... : ... .. . ... : ... .. . ... : ... .. . ...
ROW BD : ... .. . ... ... ... ... : ... .. 2 ... ... ... ... : ... .. . ... : E-# 00 6 ... : ... .. . ...
ROW BE : ... .. 1 ... ... ... ... : ... .. . ... ... ... ... : ... .. . ... : ... .. 4 ... : ... .. . ...
ROW BF : ... .. . ... ... ... ... : ... .. 1 ... ... ... ... : ... .. . ... : ... .. 2 ... : ... .. . ...
ROW C0 : ... .. . ... ... ... ... : ... .. . ... ... ... ... : ... .. . ... : ... .. 1 ... : ... .. . ...
ROW C1 : ... .. . ... ... ... ... : ... .. . ... ... ... ... : ... .. . ... : ... .. 0 ... : ... .. . ...
ROW C2 : ... .. . ... ... ... ... : ... .. . ... ... ... ... : ... .. . ... : ... .. . ... : ... .. . ...
ROW C3 : ... .. . ... ... ... ... : ... .. . ... ... ... ... : ... .. . ... : ... .. . ... : ... .. . ...
ROW C4 : F-4 00 5 ... ... ... ... : ... .. . ... ... ... ... : ... .. . ... : 4-# 00 4 ... : ... .. . ...
ROW C5 : ... .. . ... ... ... ... : B-3 00 5 ... ... ... ... : ... .. . ... : 6-# 00 . ... : ... .. . ...
ROW C6 : ... .. 4 ... ... ... ... : ... .. . ... ... ... ... : ... .. . ... : 8-# 00 3 ... : ... .. . ...
ROW C7 : ... .. . ... ... ... ... : ... .. 4 ... ... ... ... : ... .. . ... : A-# 00 . ... : ... .. . ...
ROW C8 : ... .. 3 ... ... ... ... : ... .. . ... ... ... ... : ... .. . ... : C-# 00 2 ... : ... .. . ...
ROW C9 : ... .. . ... ... ... ... : ... .. 3 ... ... ... ... : ... .. . ... : E-# 00 . ... : ... .. . ...
ROW CA : ... .. 2 ... ... ... ... : ... .. . ... ... ... ... : ... .. . ... : 0-# 00 1 ... : ... .. . ...
ROW CB : ... .. . ... ... ... ... : ... .. 2 ... ... ... ... : ... .. . ... : 2-# 00 0 ... : ... .. . ...
ROW CC : ... .. 1 ... ... ... ... : ... .. . ... ... ... ... : ... .. . ... : ... .. 0 ... : ... .. . ...
ROW CD : ... .. . ... ... ... ... : ... .. 1 ... ... ... ... : ... .. . ... : ... .. . ... : ... .. . ...
ROW CE : ... .. . ... ... ... ... : ... .. . ... ... ... ... : ... .. . ... : ... .. . ... : ... .. . ...
ROW CF : ... .. . ... ... ... ... : ... .. . ... ... ... ... : ... .. . ... : ... .. . ... : ... .. . ...
ROW D0 : ... .. . ... ... ... ... : ... .. . ... ... ... ... : ... .. . ... : ... .. . ... : ... .. . ...
ROW D1 : ... .. . ... ... ... ... : ... .. . ... ... ... ... : ... .. . ... : ... .. . ... : ... .. . ...
ROW D2 : F-4 00 5 ... ... ... ... : ... .. . ... ... ... ... : ... .. . ... : F-# 00 6 ... : ... .. . ...
ROW D3 : ... .. . ... ... ... ... : B-3 00 5 ... ... ... ... : ... .. . ... : ... .. 4 ... : ... .. . ...
ROW D4 : ... .. 4 ... ... ... ... : ... .. . ... ... ... ... : ... .. . ... : ... .. 2 ... : ... .. . ...
ROW D5 : ... .. . ... ... ... ... : ... .. 4 ... ... ... ... : ... .. . ... : ... .. 1 ... : ... .. . ...
ROW D6 : ... .. 3 ... ... ... ... : ... .. . ... ... ... ... : ... .. . ... : ... .. 0 ... : ... .. . ...
ROW D7 : ... .. . ... ... ... ... : ... .. 3 ... ... ... ... : ... .. . ... : ... .. . ... : ... .. . ...
ROW D8 : ... .. 2 ... ... ... ... : ... .. . ... ... ... ... : ... .. . ... : ... .. . ... : ... .. . ...
ROW D9 : ... .. . ... ... ... ... : ... .. 2 ... ... ... ... : ... .. . ... : E-# 00 6 ... : ... .. . ...
ROW DA : ... .. 1 ... ... ... ... : ... .. . ... ... ... ... : ... .. . ... : ... .. 4 ... : ... .. . ...
ROW DB : ... .. . ... ... ... ... : ... .. 1 ... ... ... ... : ... .. . ... : ... .. 2 ... : ... .. . ...
ROW DC : ... .. . ... ... ... ... : ... .. . ... ... ... ... : ... .. . ... : ... .. 1 ... : ... .. . ...
ROW DD : ... .. . ... ... ... ... : ... .. . ... ... ... ... : ... .. . ... : ... .. 0 ... : ... .. . ...
ROW DE : ... .. . ... ... ... ... : ... .. . ... ... ... ... : ... .. . ... : ... .. . ... : ... .. . ...
ROW DF : ... .. . ... ... ... ... : ... .. . ... ... ... ... : ... .. . ... : ... .. . ... : ... .. . ...

PATTERN 27
ROW 00 : E-4 00 5 V00 ... ... ... : ... .. . ... ... ... P80 : C-3 00 . ... : 2-# 00 5 V00 : ... .. . ...
ROW 01 : ... .. . ... ... ... ... : D-4 00 5 V00 ... ... ... : ... .. . ... : ... .. 4 ... : ... .. . ...
ROW 02 : ... .. 4 ... ... ... ... : ... .. . ... ... ... ... : ... .. . ... : ... .. 3 ... : ... .. . ...
ROW 03 : ... .. . ... ... ... ... : ... .. 4 ... ... ... ... : ... .. . ... : ... .. 2 ... : ... .. . ...
ROW 04 : ... .. 3 ... ... ... ... : ... .. . ... ... ... ... : ... .. . ... : ... .. 1 ... : ... .. . ...
ROW 05 : ... .. . ... ... ... ... : ... .. 3 ... ... ... ... : ... .. . ... : ... .. 0 ... : ... .. . ...
ROW 06 : ... .. 2 ... ... ... ... : ... .. . ... ... ... ... : ... .. . ... : ... .. . ... : ... .. . ...
ROW 07 : ... .. . ... ... ... ... : ... .. 2 ... ... ... ... : ... .. . ... : 2-# 00 1 ... : ... .. . ...
ROW 08 : ... .. 1 ... ... ... ... : ... .. . ... ... ... ... : ... .. . ... : ... .. 0 ... : ... .. . ...
ROW 09 : ... .. . ... ... ... ... : ... .. 1 ... ... ... ... : ... .. . ... : ... .. . ... : ... .. . ...
ROW 0A : ... .. . ... ... ... ... : ... .. . ... ... ... ... : ... .. . ... : ... .. . ... : ... .. . ...
ROW 0B : ... .. . ... ... ... ... : ... .. . ... ... ... ... : ... .. . ... : ... .. . ... : ... .. . ...
ROW 0C : ... .. . ... ... ... ... : ... .. . ... ... ... ... : ... .. . ... : ... .. . ... : ... .. . ...
ROW 0D : ... .. . ... ... ... ... : ... .. . ... ... ... ... : ... .. . ... : ... .. . ... : ... .. . ...
ROW 0E : E-4 00 5 ... ... ... ... : ... .. . ... ... ... ... : ... .. . ... : F-# 00 6 ... : ... .. . ...
ROW 0F : ... .. . ... ... ... ... : D-4 00 5 ... ... ... ... : ... .. . ... : ... .. 4 ... : ... .. . ...
ROW 10 : ... .. 4 ... ... ... ... : ... .. . ... ... ... ... : ... .. . ... : ... .. 2 ... : ... .. . ...
ROW 11 : ... .. . ... ... ... ... : ... .. 4 ... ... ... ... : ... .. . ... : ... .. 1 ... : ... .. . ...
ROW 12 : ... .. 3 ... ... ... ... : ... .. . ... ... ... ... : ... .. . ... : ... .. 0 ... : ... .. . ...
ROW 13 : ... .. . ... ... ... ... : ... .. 3 ... ... ... ... : ... .. . ... : ... .. . ... : ... .. . ...
ROW 14 : ... .. 2 ... ... ... ... : ... .. . ... ... ... ... : ... .. . ... : ... .. . ... : ... .. . ...
ROW 15 : ... .. . ... ... ... ... : ... .. 2 ... ... ... ... : ... .. . ... : E-# 00 6 ... : ... .. . ...
ROW 16 : ... .. 1 ... ... ... ... : ... .. . ... ... ... ... : ... .. . ... : ... .. 4 ... : ... .. . ...
ROW 17 : ... .. . ... ... ... ... : ... .. 1 ... ... ... ... : ... .. . ... : ... .. 2 ... : ... .. . ...
ROW 18 : ... .. . ... ... ... ... : ... .. . ... ... ... ... : ... .. . ... : ... .. 1 ... : ... .. . ...
ROW 19 : ... .. . ... ... ... ... : ... .. . ... ... ... ... : ... .. . ... : ... .. 0 ... : ... .. . ...
ROW 1A : ... .. . ... ... ... ... : ... .. . ... ... ... ... : ... .. . ... : ... .. . ... : ... .. . ...
ROW 1B : ... .. . ... ... ... ... : ... .. . ... ... ... ... : ... .. . ... : ... .. . ... : ... .. . ...
ROW 1C : E-4 00 5 ... ... ... ... : ... .. . ... ... ... ... : ... .. . ... : 4-# 00 4 ... : ... .. . ...
ROW 1D : ... .. . ... ... ... ... : D-4 00 5 ... ... ... ... : ... .. . ... : 6-# 00 . ... : ... .. . ...
ROW 1E : ... .. 4 ... ... ... ... : ... .. . ... ... ... ... : ... .. . ... : 8-# 00 3 ... : ... .. . ...
ROW 1F : ... .. . ... ... ... ... : ... .. 4 ... ... ... ... : ... .. . ... : A-# 00 . ... : ... .. . ...
ROW 20 : ... .. 3 ... ... ... ... : ... .. . ... ... ... ... : ... .. . ... : C-# 00 2 ... : ... .. . ...
ROW 21 : ... .. . ... ... ... ... : ... .. 3 ... ... ... ... : ... .. . ... : E-# 00 . ... : ... .. . ...
ROW 22 : ... .. 2 ... ... ... ... : ... .. . ... ... ... ... : ... .. . ... : 0-# 00 1 ... : ... .. . ...
ROW 23 : ... .. . ... ... ... ... : ... .. 2 ... ... ... ... : ... .. . ... : 2-# 00 0 ... : ... .. . ...
ROW 24 : ... .. 1 ... ... ... ... : ... .. . ... ... ... ... : ... .. . ... : ... .. 0 ... : ... .. . ...
ROW 25 : ... .. . ... ... ... ... : ... .. 1 ... ... ... ... : ... .. . ... : ... .. . ... : ... .. . ...
ROW 26 : ... .. . ... ... ... ... : ... .. . ... ... ... ... : ... .. . ... : ... .. . ... : ... .. . ...
ROW 27 : ... .. . ... ... ... ... : ... .. . ... ... ... ... : ... .. . ... : ... .. . ... : ... .. . ...
ROW 28 : ... .. . ... ... ... ... : ... .. . ... ... ... ... : ... .. . ... : ... .. . ... : ... .. . ...
ROW 29 : ... .. . ... ... ... ... : ... .. . ... ... ... ... : ... .. . ... : ... .. . ... : ... .. . ...
ROW 2A : E-4 00 5 ... ... ... ... : ... .. . ... ... ... ... : F-3 00 . ... : F-# 00 6 ... : ... .. . ...
ROW 2B : ... .. . ... ... ... ... : D-4 00 5 ... ... ... ... : F#3 00 . ... : ... .. 4 ... : ... .. . ...
ROW 2C : ... .. 4 ... ... ... ... : ... .. . ... ... ... ... : G-3 00 . ... : ... .. 2 ... : ... .. . ...
ROW 2D : ... .. . ... ... ... ... : ... .. 4 ... ... ... ... : G#3 00 . ... : ... .. 1 ... : ... .. . ...
ROW 2E : ... .. 3 ... ... ... ... : ... .. . ... ... ... ... : A-3 00 . ... : ... .. 0 ... : ... .. . ...
ROW 2F : ... .. . ... ... ... ... : ... .. 3 ... ... ... ... : ... .. . ... : ... .. . ... : ... .. . ...
ROW 30 : ... .. 2 ... ... ... ... : ... .. . ... ... ... ... : ... .. . ... : ... .. . ... : ... .. . ...
ROW 31 : ... .. . ... ... ... ... : ... .. 2 ... ... ... ... : ... .. . ... : E-# 00 6 ... : ... .. . ...
ROW 32 : ... .. 1 ... ... ... ... : ... .. . ... ... ... ... : ... .. . ... : ... .. 4 ... : ... .. . ...
ROW 33 : ... .. . ... ... ... ... : ... .. 1 ... ... ... ... : ... .. . ... : ... .. 2 ... : ... .. . ...
ROW 34 : ... .. . ... ... ... ... : ... .. . ... ... ... ... : ... .. . ... : ... .. 1 ... : ... .. . ...
ROW 35 : ... .. . ... ... ... ... : ... .. . ... ... ... ... : ... .. . ... : ... .. 0 ... : ... .. . ...
ROW 36 : ... .. . ... ... ... ... : ... .. . ... ... ... ... : ... .. . ... : ... .. . ... : ... .. . ...
ROW 37 : ... .. . ... ... ... ... : ... .. . ... ... ... ... : ... .. . ... : ... .. . ... : ... .. . ...
ROW 38 : E-4 00 5 ... ... ... ... : ... .. . ... ... ... ... : G-3 00 . ... : 2-# 00 5 ... : ... .. . ...
ROW 39 : ... .. . ... ... ... ... : D-4 00 5 ... ... ... ... : ... .. . ... : ... .. 4 ... : ... .. . ...
ROW 3A : ... .. 4 ... ... ... ... : ... .. . ... ... ... ... : ... .. . ... : ... .. 3 ... : ... .. . ...
ROW 3B : ... .. . ... ... ... ... : ... .. 4 ... ... ... ... : ... .. . ... : ... .. 2 ... : ... .. . ...
ROW 3C : ... .. 3 ... ... ... ... : ... .. . ... ... ... ... : ... .. . ... : ... .. 1 ... : ... .. . ...
ROW 3D : ... .. . ... ... ... ... : ... .. 3 ... ... ... ... : ... .. . ... : ... .. 0 ... : ... .. . ...
ROW 3E : ... .. 2 ... ... ... ... : ... .. . ... ... ... ... : ... .. . ... : ... .. . ... : ... .. . ...
ROW 3F : ... .. . ... ... ... ... : ... .. 2 ... ... ... ... : ... .. . ... : 2-# 00 1 ... : ... .. . ...
ROW 40 : ... .. 1 ... ... ... ... : ... .. . ... ... ... ... : ... .. . ... : ... .. 0 ... : ... .. . ...
ROW 41 : ... .. . ... ... ... ... : ... .. 1 ... ... ... ... : ... .. . ... : ... .. . ... : ... .. . ...
ROW 42 : ... .. . ... ... ... ... : ... .. . ... ... ... ... : ... .. . ... : ... .. . ... : ... .. . ...
ROW 43 : ... .. . ... ... ... ... : ... .. . ... ... ... ... : ... .. . ... : ... .. . ... : ... .. . ...
ROW 44 : ... .. . ... ... ... ... : ... .. . ... ... ... ... : ... .. . ... : ... .. . ... : ... .. . ...
ROW 45 : ... .. . ... ... ... ... : ... .. . ... ... ... ... : ... .. . ... : ... .. . ... : ... .. . ...
ROW 46 : E-4 00 5 ... ... ... ... : ... .. . ... ... ... ... : ... .. . ... : F-# 00 6 ... : ... .. . ...
ROW 47 : ... .. . ... ... ... ... : D-4 00 5 ... ... ... ... : ... .. . ... : ... .. 4 ... : ... .. . ...
ROW 48 : ... .. 4 ... ... ... ... : ... .. . ... ... ... ... : ... .. . ... : ... .. 2 ... : ... .. . ...
ROW 49 : ... .. . ... ... ... ... : ... .. 4 ... ... ... ... : ... .. . ... : ... .. 1 ... : ... .. . ...
ROW 4A : ... .. 3 ... ... ... ... : ... .. . ... ... ... ... : ... .. . ... : ... .. 0 ... : ... .. . ...
ROW 4B : ... .. . ... ... ... ... : ... .. 3 ... ... ... ... : ... .. . ... : ... .. . ... : ... .. . ...
ROW 4C : ... .. 2 ... ... ... ... : ... .. . ... ... ... ... : ... .. . ... : ... .. . ... : ... .. . ...
ROW 4D : ... .. . ... ... ... ... : ... .. 2 ... ... ... ... : ... .. . ... : E-# 00 6 ... : ... .. . ...
ROW 4E : ... .. 1 ... ... ... ... : ... .. . ... ... ... ... : ... .. . ... : ... .. 4 ... : ... .. . ...
ROW 4F : ... .. . ... ... ... ... : ... .. 1 ... ... ... ... : ... .. . ... : ... .. 2 ... : ... .. . ...
ROW 50 : ... .. . ... ... ... ... : ... .. . ... ... ... ... : ... .. . ... : ... .. 1 ... : ... .. . ...
ROW 51 : ... .. . ... ... ... ... : ... .. . ... ... ... ... : ... .. . ... : ... .. 0 ... : ... .. . ...
ROW 52 : ... .. . ... ... ... ... : ... .. . ... ... ... ... : ... .. . ... : ... .. . ... : ... .. . ...
ROW 53 : ... .. . ... ... ... ... : ... .. . ... ... ... ... : ... .. . ... : ... .. . ... : ... .. . ...
ROW 54 : E-4 00 5 ... ... ... ... : ... .. . ... ... ... ... : ... .. . ... : 4-# 00 4 ... : ... .. . ...
ROW 55 : ... .. . ... ... ... ... : D-4 00 5 ... ... ... ... : ... .. . ... : 6-# 00 . ... : ... .. . ...
ROW 56 : ... .. 4 ... ... ... ... : ... .. . ... ... ... ... : ... .. . ... : 8-# 00 3 ... : ... .. . ...
ROW 57 : ... .. . ... ... ... ... : ... .. 4 ... ... ... ... : ... .. . ... : A-# 00 . ... : ... .. . ...
ROW 58 : ... .. 3 ... ... ... ... : ... .. . ... ... ... ... : ... .. . ... : C-# 00 2 ... : ... .. . ...
ROW 59 : ... .. . ... ... ... ... : ... .. 3 ... ... ... ... : ... .. . ... : E-# 00 . ... : ... .. . ...
ROW 5A : ... .. 2 ... ... ... ... : ... .. . ... ... ... ... : ... .. . ... : 0-# 00 1 ... : ... .. . ...
ROW 5B : ... .. . ... ... ... ... : ... .. 2 ... ... ... ... : ... .. . ... : 2-# 00 0 ... : ... .. . ...
ROW 5C : ... .. 1 ... ... ... ... : ... .. . ... ... ... ... : ... .. . ... : ... .. 0 ... : ... .. . ...
ROW 5D : ... .. . ... ... ... ... : ... .. 1 ... ... ... ... : ... .. . ... : ... .. . ... : ... .. . ...
ROW 5E : ... .. . ... ... ... ... : ... .. . ... ... ... ... : ... .. . ... : ... .. . ... : ... .. . ...
ROW 5F : ... .. . ... ... ... ... : ... .. . ... ... ... ... : ... .. . ... : ... .. . ... : ... .. . ...
ROW 60 : ... .. . ... ... ... ... : ... .. . ... ... ... ... : ... .. . ... : ... .. . ... : ... .. . ...
ROW 61 : ... .. . ... ... ... ... : ... .. . ... ... ... ... : ... .. . ... : ... .. . ... : ... .. . ...
ROW 62 : E-4 00 5 ... ... ... ... : ... .. . ... ... ... ... : F#3 00 . ... : F-# 00 6 ... : ... .. . ...
ROW 63 : ... .. . ... ... ... ... : D-4 00 5 ... ... ... ... : ... .. . ... : ... .. 4 ... : ... .. . ...
ROW 64 : ... .. 4 ... ... ... ... : ... .. . ... ... ... ... : ... .. . ... : ... .. 2 ... : ... .. . ...
ROW 65 : ... .. . ... ... ... ... : ... .. 4 ... ... ... ... : ... .. . ... : ... .. 1 ... : ... .. . ...
ROW 66 : ... .. 3 ... ... ... ... : ... .. . ... ... ... ... : ... .. . ... : ... .. 0 ... : ... .. . ...
ROW 67 : ... .. . ... ... ... ... : ... .. 3 ... ... ... ... : ... .. . ... : ... .. . ... : ... .. . ...
ROW 68 : ... .. 2 ... ... ... ... : ... .. . ... ... ... ... : ... .. . ... : ... .. . ... : ... .. . ...
ROW 69 : ... .. . ... ... ... ... : ... .. 2 ... ... ... ... : ... .. . ... : E-# 00 6 ... : ... .. . ...
ROW 6A : ... .. 1 ... ... ... ... : ... .. . ... ... ... ... : ... .. . ... : ... .. 4 ... : ... .. . ...
ROW 6B : ... .. . ... ... ... ... : ... .. 1 ... ... ... ... : ... .. . ... : ... .. 2 ... : ... .. . ...
ROW 6C : ... .. . ... ... ... ... : ... .. . ... ... ... ... : ... .. . ... : ... .. 1 ... : ... .. . ...
ROW 6D : ... .. . ... ... ... ... : ... .. . ... ... ... ... : ... .. . ... : ... .. 0 ... : ... .. . ...
ROW 6E : ... .. . ... ... ... ... : ... .. . ... ... ... ... : ... .. . ... : ... .. . ... : ... .. . ...
ROW 6F : ... .. . ... ... ... ... : ... .. . ... ... ... ... : ... .. . ... : ... .. . ... : ... .. . ...
ROW 70 : F-4 00 5 V00 ... ... ... : ... .. . ... ... ... ... : G-3 00 . ... : 2-# 00 5 V00 : ... .. . ...
ROW 71 : ... .. . ... ... ... ... : C-4 00 5 V00 ... ... ... : ... .. . ... : ... .. 4 ... : ... .. . ...
ROW 72 : ... .. 4 ... ... ... ... : ... .. . ... ... ... ... : ... .. . ... : ... .. 3 ... : ... .. . ...
ROW 73 : ... .. . ... ... ... ... : ... .. 4 ... ... ... ... : ... .. . ... : ... .. 2 ... : ... .. . ...
ROW 74 : ... .. 3 ... ... ... ... : ... .. . ... ... ... ... : ... .. . ... : ... .. 1 ... : ... .. . ...
ROW 75 : ... .. . ... ... ... ... : ... .. 3 ... ... ... ... : ... .. . ... : ... .. 0 ... : ... .. . ...
ROW 76 : ... .. 2 ... ... ... ... : ... .. . ... ... ... ... : ... .. . ... : ... .. . ... : ... .. . ...
ROW 77 : ... .. . ... ... ... ... : ... .. 2 ... ... ... ... : ... .. . ... : 2-# 00 1 ... : ... .. . ...
ROW 78 : ... .. 1 ... ... ... ... : ... .. . ... ... ... ... : ... .. . ... : ... .. 0 ... : ... .. . ...
ROW 79 : ... .. . ... ... ... ... : ... .. 1 ... ... ... ... : ... .. . ... : ... .. . ... : ... .. . ...
ROW 7A : ... .. . ... ... ... ... : ... .. . ... ... ... ... : ... .. . ... : ... .. . ... : ... .. . ...
ROW 7B : ... .. . ... ... ... ... : ... .. . ... ... ... ... : ... .. . ... : ... .. . ... : ... .. . ...
ROW 7C : ... .. . ... ... ... ... : ... .. . ... ... ... ... : ... .. . ... : ... .. . ... : ... .. . ...
ROW 7D : ... .. . ... ... ... ... : ... .. . ... ... ... ... : ... .. . ... : ... .. . ... : ... .. . ...
ROW 7E : F-4 00 5 ... ... ... ... : ... .. . ... ... ... ... : ... .. . ... : F-# 00 6 ... : ... .. . ...
ROW 7F : ... .. . ... ... ... ... : C-4 00 5 ... ... ... ... : ... .. . ... : ... .. 4 ... : ... .. . ...
ROW 80 : ... .. 4 ... ... ... ... : ... .. . ... ... ... ... : ... .. . ... : ... .. 2 ... : ... .. . ...
ROW 81 : ... .. . ... ... ... ... : ... .. 4 ... ... ... ... : ... .. . ... : ... .. 1 ... : ... .. . ...
ROW 82 : ... .. 3 ... ... ... ... : ... .. . ... ... ... ... : ... .. . ... : ... .. 0 ... : ... .. . ...
ROW 83 : ... .. . ... ... ... ... : ... .. 3 ... ... ... ... : ... .. . ... : ... .. . ... : ... .. . ...
ROW 84 : ... .. 2 ... ... ... ... : ... .. . ... ... ... ... : ... .. . ... : ... .. . ... : ... .. . ...
ROW 85 : ... .. . ... ... ... ... : ... .. 2 ... ... ... ... : ... .. . ... : E-# 00 6 ... : ... .. . ...
ROW 86 : ... .. 1 ... ... ... ... : ... .. . ... ... ... ... : ... .. . ... : ... .. 4 ... : ... .. . ...
ROW 87 : ... .. . ... ... ... ... : ... .. 1 ... ... ... ... : ... .. . ... : ... .. 2 ... : ... .. . ...
ROW 88 : ... .. . ... ... ... ... : ... .. . ... ... ... ... : ... .. . ... : ... .. 1 ... : ... .. . ...
ROW 89 : ... .. . ... ... ... ... : ... .. . ... ... ... ... : ... .. . ... : ... .. 0 ... : ... .. . ...
ROW 8A : ... .. . ... ... ... ... : ... .. . ... ... ... ... : ... .. . ... : ... .. . ... : ... .. . ...
ROW 8B : ... .. . ... ... ... ... : ... .. . ... ... ... ... : ... .. . ... : ... .. . ... : ... .. . ...
ROW 8C : F-4 00 5 ... ... ... ... : ... .. . ... ... ... ... : D-3 00 . ... : 4-# 00 4 ... : ... .. . ...
ROW 8D : ... .. . ... ... ... ... : C-4 00 5 ... ... ... ... : ... .. . ... : 6-# 00 . ... : ... .. . ...
ROW 8E : ... .. 4 ... ... ... ... : ... .. . ... ... ... ... : ... .. . ... : 8-# 00 3 ... : ... .. . ...
ROW 8F : ... .. . ... ... ... ... : ... .. 4 ... ... ... ... : ... .. . ... : A-# 00 . ... : ... .. . ...
ROW 90 : ... .. 3 ... ... ... ... : ... .. . ... ... ... ... : ... .. . ... : C-# 00 2 ... : ... .. . ...
ROW 91 : ... .. . ... ... ... ... : ... .. 3 ... ... ... ... : ... .. . ... : E-# 00 . ... : ... .. . ...
ROW 92 : ... .. 2 ... ... ... ... : ... .. . ... ... ... ... : ... .. . ... : 0-# 00 1 ... : ... .. . ...
ROW 93 : ... .. . ... ... ... ... : ... .. 2 ... ... ... ... : ... .. . ... : 2-# 00 0 ... : ... .. . ...
ROW 94 : ... .. 1 ... ... ... ... : ... .. . ... ... ... ... : ... .. . ... : ... .. 0 ... : ... .. . ...
ROW 95 : ... .. . ... ... ... ... : ... .. 1 ... ... ... ... : ... .. . ... : ... .. . ... : ... .. . ...
ROW 96 : ... .. . ... ... ... ... : ... .. . ... ... ... ... : ... .. . ... : ... .. . ... : ... .. . ...
ROW 97 : ... .. . ... ... ... ... : ... .. . ... ... ... ... : ... .. . ... : ... .. . ... : ... .. . ...
ROW 98 : ... .. . ... ... ... ... : ... .. . ... ... ... ... : ... .. . ... : ... .. . ... : ... .. . ...
ROW 99 : ... .. . ... ... ... ... : ... .. . ... ... ... ... : ... .. . ... : ... .. . ... : ... .. . ...
ROW 9A : F-4 00 5 ... ... ... ... : ... .. . ... ... ... ... : ... .. . ... : F-# 00 6 ... : ... .. . ...
ROW 9B : ... .. . ... ... ... ... : C-4 00 5 ... ... ... ... : ... .. . ... : ... .. 4 ... : ... .. . ...
ROW 9C : ... .. 4 ... ... ... ... : ... .. . ... ... ... ... : ... .. . ... : ... .. 2 ... : ... .. . ...
ROW 9D : ... .. . ... ... ... ... : ... .. 4 ... ... ... ... : ... .. . ... : ... .. 1 ... : ... .. . ...
ROW 9E : ... .. 3 ... ... ... ... : ... .. . ... ... ... ... : ... .. . ... : ... .. 0 ... : ... .. . ...
ROW 9F : ... .. . ... ... ... ... : ... .. 3 ... ... ... ... : ... .. . ... : ... .. . ... : ... .. . ...
ROW A0 : ... .. 2 ... ... ... ... : ... .. . ... ... ... ... : ... .. . ... : ... .. . ... : ... .. . ...
ROW A1 : ... .. . ... ... ... ... : ... .. 2 ... ... ... ... : ... .. . ... : E-# 00 6 ... : ... .. . ...
ROW A2 : ... .. 1 ... ... ... ... : ... .. . ... ... ... ... : ... .. . ... : ... .. 4 ... : ... .. . ...
ROW A3 : ... .. . ... ... ... ... : ... .. 1 ... ... ... ... : ... .. . ... : ... .. 2 ... : ... .. . ...
ROW A4 : ... .. . ... ... ... ... : ... .. . ... ... ... ... : ... .. . ... : ... .. 1 ... : ... .. . ...
ROW A5 : ... .. . ... ... ... ... : ... .. . ... ... ... ... : ... .. . ... : ... .. 0 ... : ... .. . ...
ROW A6 : ... .. . ... ... ... ... : ... .. . ... ... ... ... : ... .. . ... : ... .. . ... : ... .. . ...
ROW A7 : ... .. . ... ... ... ... : ... .. . ... ... ... ... : ... .. . ... : ... .. . ... : ... .. . ...
ROW A8 : F-4 00 5 ... ... ... ... : ... .. . ... ... ... ... : G-2 00 . ... : 2-# 00 5 ... : ... .. . ...
ROW A9 : ... .. . ... ... ... ... : B-3 00 5 ... ... ... ... : ... .. . ... : ... .. 4 ... : ... .. . ...
ROW AA : ... .. 4 ... ... ... ... : ... .. . ... ... ... ... : ... .. . ... : ... .. 3 ... : ... .. . ...
ROW AB : ... .. . ... ... ... ... : ... .. 4 ... ... ... ... : ... .. . ... : ... .. 2 ... : ... .. . ...
ROW AC : ... .. 3 ... ... ... ... : ... .. . ... ... ... ... : ... .. . ... : ... .. 1 ... : ... .. . ...
ROW AD : ... .. . ... ... ... ... : ... .. 3 ... ... ... ... : ... .. . ... : ... .. 0 ... : ... .. . ...
ROW AE : ... .. 2 ... ... ... ... : ... .. . ... ... ... ... : ... .. . ... : ... .. . ... : ... .. . ...
ROW AF : ... .. . ... ... ... ... : ... .. 2 ... ... ... ... : ... .. . ... : 2-# 00 1 ... : ... .. . ...
ROW B0 : ... .. 1 ... ... ... ... : ... .. . ... ... ... ... : ... .. . ... : ... .. 0 ... : ... .. . ...
ROW B1 : ... .. . ... ... ... ... : ... .. 1 ... ... ... ... : ... .. . ... : ... .. . ... : ... .. . ...
ROW B2 : ... .. . ... ... ... ... : ... .. . ... ... ... ... : ... .. . ... : ... .. . ... : ... .. . ...
ROW B3 : ... .. . ... ... ... ... : ... .. . ... ... ... ... : ... .. . ... : ... .. . ... : ... .. . ...
ROW B4 : ... .. . ... ... ... ... : ... .. . ... ... ... ... : ... .. . ... : ... .. . ... : ... .. . ...
ROW B5 : ... .. . ... ... ... ... : ... .. . ... ... ... ... : ... .. . ... : ... .. . ... : ... .. . ...
ROW B6 : F-4 00 5 ... ... ... ... : ... .. . ... ... ... ... : ... .. . ... : F-# 00 6 ... : ... .. . ...
ROW B7 : ... .. . ... ... ... ... : B-3 00 5 ... ... ... ... : ... .. . ... : ... .. 4 ... : ... .. . ...
ROW B8 : ... .. 4 ... ... ... ... : ... .. . ... ... ... ... : ... .. . ... : ... .. 2 ... : ... .. . ...
ROW B9 : ... .. . ... ... ... ... : ... .. 4 ... ... ... ... : ... .. . ... : ... .. 1 ... : ... .. . ...
ROW BA : ... .. 3 ... ... ... ... : ... .. . ... ... ... ... : ... .. . ... : ... .. 0 ... : ... .. . ...
ROW BB : ... .. . ... ... ... ... : ... .. 3 ... ... ... ... : ... .. . ... : ... .. . ... : ... .. . ...
ROW BC : ... .. 2 ... ... ... ... : ... .. . ... ... ... ... : ... .. . ... : ... .. . ... : ... .. . ...
ROW BD : ... .. . ... ... ... ... : ... .. 2 ... ... ... ... : ... .. . ... : E-# 00 6 ... : ... .. . ...
ROW BE : ... .. 1 ... ... ... ... : ... .. . ... ... ... ... : ... .. . ... : ... .. 4 ... : ... .. . ...
ROW BF : ... .. . ... ... ... ... : ... .. 1 ... ... ... ... : ... .. . ... : ... .. 2 ... : ... .. . ...
ROW C0 : ... .. . ... ... ... ... : ... .. . ... ... ... ... : ... .. . ... : ... .. 1 ... : ... .. . ...
ROW C1 : ... .. . ... ... ... ... : ... .. . ... ... ... ... : ... .. . ... : ... .. 0 ... : ... .. . ...
ROW C2 : ... .. . ... ... ... ... : ... .. . ... ... ... ... : ... .. . ... : ... .. . ... : ... .. . ...
ROW C3 : ... .. . ... ... ... ... : ... .. . ... ... ... ... : --- .. . ... : ... .. . ... : ... .. . ...
ROW C4 : F-4 00 5 ... ... ... ... : ... .. . ... ... ... ... : G-2 00 . ... : F-# 00 2 V01 : ... .. . ...
ROW C5 : ... .. . ... ... ... ... : B-3 00 5 ... ... ... ... : ... .. . ... : ... .. . ... : ... .. . ...
ROW C6 : ... .. 4 ... ... ... ... : ... .. . ... ... ... ... : ... .. . ... : E-# 00 . ... : ... .. . ...
ROW C7 : ... .. . ... ... ... ... : ... .. 4 ... ... ... ... : ... .. . ... : ... .. . ... : ... .. . ...
ROW C8 : ... .. 3 ... ... ... ... : ... .. . ... ... ... ... : ... .. . ... : D-# 00 . ... : ... .. . ...
ROW C9 : ... .. . ... ... ... ... : ... .. 3 ... ... ... ... : ... .. . ... : ... .. . ... : ... .. . ...
ROW CA : ... .. 2 ... ... ... ... : ... .. . ... ... ... ... : ... .. . ... : C-# 00 . ... : ... .. . ...
ROW CB : ... .. . ... ... ... ... : ... .. 2 ... ... ... ... : ... .. . ... : ... .. . ... : ... .. . ...
ROW CC : ... .. 1 ... ... ... ... : ... .. . ... ... ... ... : ... .. . ... : B-# 00 . ... : ... .. . ...
ROW CD : ... .. . ... ... ... ... : ... .. 1 ... ... ... ... : ... .. . ... : ... .. . ... : ... .. . ...
ROW CE : ... .. . ... ... ... ... : ... .. . ... ... ... ... : ... .. . ... : A-# 00 . ... : ... .. . ...
ROW CF : ... .. . ... ... ... ... : ... .. . ... ... ... ... : ... .. . ... : ... .. . ... : ... .. . ...
ROW D0 : ... .. . ... ... ... ... : ... .. . ... ... ... ... : ... .. . ... : 9-# 00 . ... : ... .. . ...
ROW D1 : ... .. . ... ... ... ... : ... .. . ... ... ... ... : ... .. . ... : --- .. . ... : ... .. . ...
ROW D2 : F-4 00 5 ... ... ... ... : ... .. . ... ... ... ... : ... .. . ... : 8-# 00 . ... : ... .. . ...
ROW D3 : ... .. . ... ... ... ... : B-3 00 5 ... ... ... ... : ... .. . ... : --- .. . ... : ... .. . ...
ROW D4 : ... .. 4 ... ... ... ... : ... .. . ... ... ... ... : ... .. . ... : 7-# 00 . ... : ... .. . ...
ROW D5 : ... .. . ... ... ... ... : ... .. 4 ... ... ... ... : ... .. . ... : --- .. . ... : ... .. . ...
ROW D6 : ... .. 3 ... ... ... ... : ... .. . ... ... ... ... : ... .. . ... : 6-# 00 . ... : ... .. . ...
ROW D7 : ... .. . ... ... ... ... : ... .. 3 ... ... ... ... : ... .. . ... : --- .. . ... : ... .. . ...
ROW D8 : ... .. 2 ... ... ... ... : ... .. . ... ... ... ... : ... .. . ... : 5-# 00 . ... : ... .. . ...
ROW D9 : ... .. . ... ... ... ... : ... .. 2 ... ... ... ... : G#2 00 . ... : --- .. . ... : ... .. . ...
ROW DA : ... .. 1 ... ... ... ... : ... .. . ... ... ... ... : ... .. . ... : 4-# 00 . ... : ... .. . ...
ROW DB : ... .. . ... ... ... ... : ... .. 1 ... ... ... ... : ... .. . ... : --- .. . ... : ... .. . ...
ROW DC : ... .. . ... ... ... ... : ... .. . ... ... ... ... : A-2 00 . ... : 3-# 00 . ... : ... .. . ...
ROW DD : ... .. . ... ... ... ... : ... .. . ... ... ... ... : ... .. . ... : --- .. . ... : ... .. . ...
ROW DE : ... .. . ... ... ... ... : ... .. . ... ... ... ... : ... .. . ... : 2-# 00 . ... : ... .. . ...
ROW DF : ... .. . ... ... ... ... : ... .. . ... ... ... ... : ... .. . ... : --- .. . ... : ... .. . ...

PATTERN 28
ROW 00 : --- .. . ... ... ... ... : A#1 00 5 ... ... ... P7F : A#2 00 . ... : 2-# 00 4 V00 : ... .. . ...
ROW 01 : ... .. . ... ... ... ... : ... .. . ... ... ... ... : ... .. . ... : ... .. . ... : ... .. . ...
ROW 02 : ... .. . ... ... ... ... : ... .. . ... ... ... ... : ... .. . ... : ... .. . ... : ... .. . ...
ROW 03 : ... .. . ... ... ... ... : ... .. . ... ... ... ... : ... .. . ... : ... .. 3 ... : ... .. . ...
ROW 04 : ... .. . ... ... ... ... : ... .. . ... ... ... ... : ... .. . ... : ... .. . ... : ... .. . ...
ROW 05 : ... .. . ... ... ... ... : ... .. . ... ... ... ... : ... .. . ... : ... .. . ... : ... .. . ...
ROW 06 : ... .. . ... ... ... ... : ... .. . ... ... ... ... : ... .. . ... : ... .. 2 ... : ... .. . ...
ROW 07 : ... .. . ... ... ... ... : ... .. . ... ... ... ... : ... .. . ... : ... .. . ... : ... .. . ...
ROW 08 : ... .. . ... ... ... ... : ... .. . ... ... ... ... : ... .. . ... : ... .. . ... : ... .. . ...
ROW 09 : ... .. . ... ... ... ... : ... .. . ... ... ... ... : ... .. . ... : ... .. 1 ... : ... .. . ...
ROW 0A : ... .. . ... ... ... ... : ... .. . ... ... ... ... : ... .. . ... : ... .. . ... : ... .. . ...
ROW 0B : ... .. . ... ... ... ... : ... .. . ... ... ... ... : ... .. . ... : ... .. . ... : ... .. . ...
ROW 0C : ... .. . ... ... ... ... : ... .. . ... ... ... ... : ... .. . ... : ... .. . ... : ... .. . ...
ROW 0D : ... .. . ... ... ... ... : ... .. . ... ... ... ... : --- .. . ... : ... .. . ... : ... .. . ...
ROW 0E : ... .. . ... ... ... ... : ... .. 0 ... ... ... ... : A#2 00 . S01 : ... .. 0 ... : ... .. . ...
ROW 0F : ... .. . ... ... ... ... : ... .. . ... ... ... ... : ... .. . ... : ... .. . ... : ... .. . ...
ROW 10 : ... .. . ... ... ... ... : ... .. . ... ... ... ... : ... .. . ... : ... .. . ... : ... .. . ...
ROW 11 : ... .. . ... ... ... ... : ... .. . ... ... ... ... : ... .. . ... : ... .. . ... : ... .. . ...
ROW 12 : ... .. . ... ... ... ... : ... .. . ... ... ... ... : ... .. . ... : ... .. . ... : ... .. . ...
ROW 13 : ... .. . ... ... ... ... : ... .. . ... ... ... ... : ... .. . ... : ... .. . ... : ... .. . ...
ROW 14 : ... .. . ... ... ... ... : ... .. . ... ... ... ... : ... .. . ... : ... .. . ... : ... .. . ...
ROW 15 : ... .. 1 ... ... ... ... : ... .. 1 ... ... ... ... : ... .. . ... : ... .. 1 ... : ... .. . ...
ROW 16 : ... .. . ... ... ... ... : ... .. . ... ... ... ... : ... .. . ... : ... .. 0 ... : ... .. . ...
ROW 17 : ... .. . ... ... ... ... : ... .. . ... ... ... ... : ... .. . ... : ... .. . ... : ... .. . ...
ROW 18 : ... .. . ... ... ... ... : ... .. . ... ... ... ... : ... .. . ... : ... .. . ... : ... .. . ...
ROW 19 : ... .. . ... ... ... ... : ... .. . ... ... ... ... : ... .. . ... : ... .. . ... : ... .. . ...
ROW 1A : ... .. . ... ... ... ... : ... .. . ... ... ... ... : ... .. . ... : ... .. . ... : ... .. . ...
ROW 1B : ... .. . ... ... ... ... : ... .. . ... ... ... ... : ... .. . ... : ... .. . ... : ... .. . ...
ROW 1C : A#3 00 4 ... ... ... ... : F-3 00 4 V02 ... ... P80 : D-4 00 . ... : 7-# 00 4 ... : ... .. . ...
ROW 1D : ... .. . ... ... ... ... : ... .. . ... ... ... ... : ... .. . ... : ... .. . ... : ... .. . ...
ROW 1E : ... .. . ... ... ... ... : ... .. . ... ... ... ... : ... .. . ... : ... .. . ... : ... .. . ...
ROW 1F : ... .. . ... ... ... ... : ... .. . ... ... ... ... : ... .. . ... : ... .. 3 ... : ... .. . ...
ROW 20 : ... .. . ... ... ... ... : ... .. . ... ... ... ... : ... .. . ... : ... .. . ... : ... .. . ...
ROW 21 : ... .. . ... ... ... ... : ... .. . ... ... ... ... : ... .. . ... : ... .. . ... : ... .. . ...
ROW 22 : ... .. . ... ... ... ... : ... .. . ... ... ... ... : ... .. . ... : ... .. 2 ... : ... .. . ...
ROW 23 : ... .. . ... ... ... ... : ... .. . ... ... ... ... : ... .. . ... : ... .. . ... : ... .. . ...
ROW 24 : ... .. 1 ... ... ... ... : ... .. 1 ... ... ... ... : --- .. . ... : ... .. . ... : ... .. . ...
ROW 25 : ... .. . ... ... ... ... : ... .. . ... ... ... ... : ... .. . ... : ... .. 1 ... : ... .. . ...
ROW 26 : A#3 00 4 ... ... ... ... : ... .. 4 ... ... ... ... : D-4 00 . ... : 7-# 00 3 ... : ... .. . ...
ROW 27 : ... .. . ... ... ... ... : ... .. . ... ... ... ... : ... .. . ... : ... .. . ... : ... .. . ...
ROW 28 : ... .. . ... ... ... ... : ... .. . ... ... ... ... : ... .. . ... : ... .. . ... : ... .. . ...
ROW 29 : ... .. . ... ... ... ... : ... .. . ... ... ... ... : ... .. . ... : ... .. 2 ... : ... .. . ...
ROW 2A : ... .. . ... ... ... ... : ... .. . ... ... ... ... : ... .. . ... : ... .. . ... : ... .. . ...
ROW 2B : ... .. . ... ... ... ... : ... .. . ... ... ... ... : ... .. . ... : ... .. . ... : ... .. . ...
ROW 2C : ... .. . ... ... ... ... : ... .. . ... ... ... ... : ... .. . ... : ... .. 1 ... : ... .. . ...
ROW 2D : ... .. 1 ... ... ... ... : ... .. 1 ... ... ... ... : --- .. . ... : ... .. . ... : ... .. . ...
ROW 2E : ... .. . ... ... ... ... : ... .. . ... ... ... ... : ... .. . ... : ... .. . ... : ... .. . ...
ROW 2F : A#3 00 4 ... ... ... ... : ... .. 4 ... ... ... ... : D-4 00 . ... : 7-# 00 3 ... : ... .. . ...
ROW 30 : ... .. . ... ... ... ... : ... .. . ... ... ... ... : ... .. . ... : ... .. . ... : ... .. . ...
ROW 31 : ... .. . ... ... ... ... : ... .. . ... ... ... ... : ... .. . ... : ... .. . ... : ... .. . ...
ROW 32 : ... .. . ... ... ... ... : ... .. . ... ... ... ... : ... .. . ... : ... .. 2 ... : ... .. . ...
ROW 33 : ... .. . ... ... ... ... : ... .. . ... ... ... ... : ... .. . ... : ... .. . ... : ... .. . ...
ROW 34 : ... .. . ... ... ... ... : ... .. . ... ... ... ... : ... .. . ... : ... .. . ... : ... .. . ...
ROW 35 : ... .. . ... ... ... ... : ... .. . ... ... ... ... : ... .. . ... : ... .. 1 ... : ... .. . ...
ROW 36 : ... .. 1 ... ... ... ... : ... .. 1 ... ... ... ... : --- .. . ... : ... .. . ... : ... .. . ...
ROW 37 : ... .. . ... ... ... ... : ... .. . ... ... ... ... : ... .. . ... : ... .. . ... : ... .. . ...
ROW 38 : A#3 00 4 ... ... ... ... : ... .. 4 ... ... ... ... : D-4 00 . ... : 7-# 00 4 ... : ... .. . ...
ROW 39 : ... .. . ... ... ... ... : ... .. . ... ... ... ... : ... .. . ... : ... .. . ... : ... .. . ...
ROW 3A : ... .. . ... ... ... ... : ... .. . ... ... ... ... : ... .. . ... : ... .. . ... : ... .. . ...
ROW 3B : ... .. . ... ... ... ... : ... .. . ... ... ... ... : ... .. . ... : ... .. 3 ... : ... .. . ...
ROW 3C : ... .. . ... ... ... ... : ... .. . ... ... ... ... : ... .. . ... : ... .. . ... : ... .. . ...
ROW 3D : ... .. . ... ... ... ... : ... .. . ... ... ... ... : ... .. . ... : ... .. . ... : ... .. . ...
ROW 3E : ... .. . ... ... ... ... : ... .. . ... ... ... ... : ... .. . ... : ... .. 2 ... : ... .. . ...
ROW 3F : ... .. . ... ... ... ... : ... .. . ... ... ... ... : ... .. . ... : ... .. . ... : ... .. . ...
ROW 40 : ... .. . ... ... ... ... : ... .. . ... ... ... ... : ... .. . ... : ... .. . ... : ... .. . ...
ROW 41 : ... .. . ... ... ... ... : ... .. . ... ... ... ... : ... .. . ... : ... .. 1 ... : ... .. . ...
ROW 42 : ... .. . ... ... ... ... : ... .. . ... ... ... ... : ... .. . ... : ... .. . ... : ... .. . ...
ROW 43 : ... .. . ... ... ... ... : ... .. . ... ... ... ... : ... .. . ... : ... .. . ... : ... .. . ...
ROW 44 : ... .. . ... ... ... ... : ... .. . ... ... ... ... : ... .. . ... : ... .. 0 ... : ... .. . ...
ROW 45 : ... .. . ... ... ... ... : ... .. . ... ... ... ... : --- .. . ... : ... .. . ... : ... .. . ...
ROW 46 : ... .. 0 ... ... ... ... : ... .. 0 ... ... ... ... : D-4 00 . S01 : ... .. . ... : ... .. . ...
ROW 47 : ... .. . ... ... ... ... : ... .. . ... ... ... ... : ... .. . ... : ... .. . ... : ... .. . ...
ROW 48 : ... .. . ... ... ... ... : ... .. . ... ... ... ... : ... .. . ... : ... .. . ... : ... .. . ...
ROW 49 : ... .. . ... ... ... ... : ... .. . ... ... ... ... : ... .. . ... : ... .. . ... : ... .. . ...
ROW 4A : ... .. . ... ... ... ... : ... .. . ... ... ... ... : ... .. . ... : ... .. . ... : ... .. . ...
ROW 4B : ... .. . ... ... ... ... : ... .. . ... ... ... ... : ... .. . ... : ... .. . ... : ... .. . ...
ROW 4C : ... .. . ... ... ... ... : ... .. . ... ... ... ... : ... .. . ... : ... .. . ... : ... .. . ...
ROW 4D : ... .. 1 ... ... ... ... : ... .. 1 ... ... ... ... : ... .. . ... : ... .. 1 ... : ... .. . ...
ROW 4E : ... .. . ... ... ... ... : ... .. . ... ... ... ... : ... .. . ... : ... .. 0 ... : ... .. . ...
ROW 4F : ... .. . ... ... ... ... : ... .. . ... ... ... ... : ... .. . ... : ... .. . ... : ... .. . ...
ROW 50 : ... .. . ... ... ... ... : ... .. . ... ... ... ... : ... .. . ... : ... .. . ... : ... .. . ...
ROW 51 : ... .. . ... ... ... ... : ... .. . ... ... ... ... : ... .. . ... : ... .. . ... : ... .. . ...
ROW 52 : ... .. . ... ... ... ... : ... .. . ... ... ... ... : ... .. . ... : ... .. . ... : ... .. . ...
ROW 53 : ... .. . ... ... ... ... : ... .. . ... ... ... ... : ... .. . ... : ... .. . ... : ... .. . ...
ROW 54 : --- .. . ... ... ... ... : F-1 00 6 V00 ... ... ... : F-2 00 . ... : 2-# 00 4 ... : ... .. . ...
ROW 55 : ... .. . ... ... ... ... : ... .. . ... ... ... ... : ... .. . ... : ... .. . ... : ... .. . ...
ROW 56 : ... .. . ... ... ... ... : ... .. . ... ... ... ... : ... .. . ... : ... .. . ... : ... .. . ...
ROW 57 : ... .. . ... ... ... ... : ... .. . ... ... ... ... : ... .. . ... : ... .. 3 ... : ... .. . ...
ROW 58 : ... .. . ... ... ... ... : ... .. . ... ... ... ... : ... .. . ... : ... .. . ... : ... .. . ...
ROW 59 : ... .. . ... ... ... ... : ... .. . ... ... ... ... : ... .. . ... : ... .. . ... : ... .. . ...
ROW 5A : ... .. . ... ... ... ... : ... .. . ... ... ... ... : ... .. . ... : ... .. 2 ... : ... .. . ...
ROW 5B : ... .. . ... ... ... ... : ... .. . ... ... ... ... : ... .. . ... : ... .. . ... : ... .. . ...
ROW 5C : ... .. . ... ... ... ... : ... .. . ... ... ... ... : ... .. . ... : ... .. . ... : ... .. . ...
ROW 5D : ... .. . ... ... ... ... : ... .. . ... ... ... ... : ... .. . ... : ... .. 1 ... : ... .. . ...
ROW 5E : ... .. . ... ... ... ... : ... .. . ... ... ... ... : ... .. . ... : ... .. . ... : ... .. . ...
ROW 5F : ... .. . ... ... ... ... : ... .. . ... ... ... ... : ... .. . ... : ... .. . ... : ... .. . ...
ROW 60 : ... .. . ... ... ... ... : ... .. . ... ... ... ... : ... .. . ... : ... .. . ... : ... .. . ...
ROW 61 : ... .. . ... ... ... ... : ... .. . ... ... ... ... : --- .. . ... : ... .. . ... : ... .. . ...
ROW 62 : ... .. . ... ... ... ... : ... .. 0 ... ... ... ... : F-2 00 . S01 : ... .. 0 ... : ... .. . ...
ROW 63 : ... .. . ... ... ... ... : ... .. . ... ... ... ... : ... .. . ... : ... .. . ... : ... .. . ...
ROW 64 : ... .. . ... ... ... ... : ... .. . ... ... ... ... : ... .. . ... : ... .. . ... : ... .. . ...
ROW 65 : ... .. . ... ... ... ... : ... .. . ... ... ... ... : ... .. . ... : ... .. . ... : ... .. . ...
ROW 66 : ... .. . ... ... ... ... : ... .. . ... ... ... ... : ... .. . ... : ... .. . ... : ... .. . ...
ROW 67 : ... .. . ... ... ... ... : ... .. . ... ... ... ... : ... .. . ... : ... .. . ... : ... .. . ...
ROW 68 : ... .. . ... ... ... ... : ... .. . ... ... ... ... : ... .. . ... : ... .. . ... : ... .. . ...
ROW 69 : ... .. . ... ... ... ... : ... .. 1 ... ... ... ... : ... .. . ... : ... .. 1 ... : ... .. . ...
ROW 6A : ... .. . ... ... ... ... : ... .. . ... ... ... ... : ... .. . ... : ... .. 0 ... : ... .. . ...
ROW 6B : ... .. . ... ... ... ... : ... .. . ... ... ... ... : ... .. . ... : ... .. . ... : ... .. . ...
ROW 6C : ... .. . ... ... ... ... : ... .. . ... ... ... ... : ... .. . ... : ... .. . ... : ... .. . ...
ROW 6D : ... .. . ... ... ... ... : ... .. . ... ... ... ... : ... .. . ... : ... .. . ... : ... .. . ...
ROW 6E : ... .. . ... ... ... ... : ... .. . ... ... ... ... : ... .. . ... : ... .. . ... : ... .. . ...
ROW 6F : ... .. . ... ... ... ... : ... .. . ... ... ... ... : ... .. . ... : ... .. . ... : ... .. . ...
ROW 70 : ... .. . ... ... ... ... : A#1 00 4 ... ... ... ... : A#2 00 . ... : 2-# 00 4 ... : ... .. . ...
ROW 71 : ... .. . ... ... ... ... : ... .. . ... ... ... ... : ... .. . ... : ... .. . ... : ... .. . ...
ROW 72 : ... .. . ... ... ... ... : ... .. . ... ... ... ... : ... .. . ... : ... .. . ... : ... .. . ...
ROW 73 : ... .. . ... ... ... ... : ... .. . ... ... ... ... : ... .. . ... : ... .. 3 ... : ... .. . ...
ROW 74 : ... .. . ... ... ... ... : ... .. . ... ... ... ... : ... .. . ... : ... .. . ... : ... .. . ...
ROW 75 : ... .. . ... ... ... ... : ... .. . ... ... ... ... : ... .. . ... : ... .. . ... : ... .. . ...
ROW 76 : ... .. . ... ... ... ... : ... .. . ... ... ... ... : ... .. . ... : ... .. 2 ... : ... .. . ...
ROW 77 : ... .. . ... ... ... ... : ... .. . ... ... ... ... : ... .. . ... : ... .. . ... : ... .. . ...
ROW 78 : ... .. . ... ... ... ... : ... .. . ... ... ... ... : ... .. . ... : ... .. . ... : ... .. . ...
ROW 79 : ... .. . ... ... ... ... : ... .. . ... ... ... ... : ... .. . ... : ... .. 1 ... : ... .. . ...
ROW 7A : ... .. . ... ... ... ... : ... .. . ... ... ... ... : ... .. . ... : ... .. . ... : ... .. . ...
ROW 7B : ... .. . ... ... ... ... : ... .. . ... ... ... ... : ... .. . ... : ... .. . ... : ... .. . ...
ROW 7C : ... .. . ... ... ... ... : ... .. . ... ... ... ... : ... .. . ... : ... .. . ... : ... .. . ...
ROW 7D : ... .. . ... ... ... ... : ... .. . ... ... ... ... : --- .. . ... : ... .. . ... : ... .. . ...
ROW 7E : ... .. . ... ... ... ... : ... .. 0 ... ... ... ... : A#2 00 . S01 : ... .. 0 ... : ... .. . ...
ROW 7F : ... .. . ... ... ... ... : ... .. . ... ... ... ... : ... .. . ... : ... .. . ... : ... .. . ...
ROW 80 : ... .. . ... ... ... ... : ... .. . ... ... ... ... : ... .. . ... : ... .. . ... : ... .. . ...
ROW 81 : ... .. . ... ... ... ... : ... .. . ... ... ... ... : ... .. . ... : ... .. . ... : ... .. . ...
ROW 82 : ... .. . ... ... ... ... : ... .. . ... ... ... ... : ... .. . ... : ... .. . ... : ... .. . ...
ROW 83 : ... .. . ... ... ... ... : ... .. . ... ... ... ... : ... .. . ... : ... .. . ... : ... .. . ...
ROW 84 : ... .. . ... ... ... ... : ... .. . ... ... ... ... : ... .. . ... : ... .. . ... : ... .. . ...
ROW 85 : ... .. . ... ... ... ... : ... .. 1 ... ... ... ... : ... .. . ... : ... .. 1 ... : ... .. . ...
ROW 86 : ... .. . ... ... ... ... : ... .. . ... ... ... ... : ... .. . ... : ... .. 0 ... : ... .. . ...
ROW 87 : ... .. . ... ... ... ... : ... .. . ... ... ... ... : ... .. . ... : ... .. . ... : ... .. . ...
ROW 88 : ... .. . ... ... ... ... : ... .. . ... ... ... ... : ... .. . ... : ... .. . ... : ... .. . ...
ROW 89 : ... .. . ... ... ... ... : ... .. . ... ... ... ... : ... .. . ... : ... .. . ... : ... .. . ...
ROW 8A : ... .. . ... ... ... ... : ... .. . ... ... ... ... : ... .. . ... : ... .. . ... : ... .. . ...
ROW 8B : ... .. . ... ... ... ... : ... .. . ... ... ... ... : ... .. . ... : ... .. . ... : ... .. . ...
ROW 8C : A#3 00 4 ... ... ... ... : F-3 00 4 V02 ... ... ... : D-4 00 . ... : 7-# 00 4 ... : ... .. . ...
ROW 8D : ... .. . ... ... ... ... : ... .. . ... ... ... ... : ... .. . ... : ... .. . ... : ... .. . ...
ROW 8E : ... .. . ... ... ... ... : ... .. . ... ... ... ... : ... .. . ... : ... .. . ... : ... .. . ...
ROW 8F : ... .. . ... ... ... ... : ... .. . ... ... ... ... : ... .. . ... : ... .. 3 ... : ... .. . ...
ROW 90 : ... .. . ... ... ... ... : ... .. . ... ... ... ... : ... .. . ... : ... .. . ... : ... .. . ...
ROW 91 : ... .. . ... ... ... ... : ... .. . ... ... ... ... : ... .. . ... : ... .. . ... : ... .. . ...
ROW 92 : ... .. . ... ... ... ... : ... .. . ... ... ... ... : ... .. . ... : ... .. 2 ... : ... .. . ...
ROW 93 : ... .. . ... ... ... ... : ... .. . ... ... ... ... : ... .. . ... : ... .. . ... : ... .. . ...
ROW 94 : ... .. . ... ... ... ... : ... .. . ... ... ... ... : ... .. . ... : ... .. . ... : ... .. . ...
ROW 95 : ... .. . ... ... ... ... : ... .. . ... ... ... ... : ... .. . ... : ... .. 1 ... : ... .. . ...
ROW 96 : ... .. . ... ... ... ... : ... .. . ... ... ... ... : ... .. . ... : ... .. . ... : ... .. . ...
ROW 97 : ... .. . ... ... ... ... : ... .. . ... ... ... ... : ... .. . ... : ... .. . ... : ... .. . ...
ROW 98 : ... .. . ... ... ... ... : ... .. . ... ... ... ... : ... .. . ... : ... .. 0 ... : ... .. . ...
ROW 99 : ... .. . ... ... ... ... : ... .. . ... ... ... ... : --- .. . ... : ... .. . ... : ... .. . ...
ROW 9A : ... .. 0 ... ... ... ... : ... .. 0 ... ... ... ... : D-4 00 . S01 : ... .. . ... : ... .. . ...
ROW 9B : ... .. . ... ... ... ... : ... .. . ... ... ... ... : ... .. . ... : ... .. . ... : ... .. . ...
ROW 9C : ... .. . ... ... ... ... : ... .. . ... ... ... ... : ... .. . ... : ... .. . ... : ... .. . ...
ROW 9D : ... .. . ... ... ... ... : ... .. . ... ... ... ... : ... .. . ... : ... .. . ... : ... .. . ...
ROW 9E : ... .. . ... ... ... ... : ... .. . ... ... ... ... : ... .. . ... : ... .. . ... : ... .. . ...
ROW 9F : ... .. . ... ... ... ... : ... .. . ... ... ... ... : ... .. . ... : ... .. . ... : ... .. . ...
ROW A0 : ... .. . ... ... ... ... : ... .. . ... ... ... ... : ... .. . ... : ... .. . ... : ... .. . ...
ROW A1 : ... .. 1 ... ... ... ... : ... .. 1 ... ... ... ... : ... .. . ... : ... .. 1 ... : ... .. . ...
ROW A2 : ... .. . ... ... ... ... : ... .. . ... ... ... ... : ... .. . ... : ... .. 0 ... : ... .. . ...
ROW A3 : ... .. . ... ... ... ... : ... .. . ... ... ... ... : ... .. . ... : ... .. . ... : ... .. . ...
ROW A4 : ... .. . ... ... ... ... : ... .. . ... ... ... ... : ... .. . ... : ... .. . ... : ... .. . ...
ROW A5 : ... .. . ... ... ... ... : ... .. . ... ... ... ... : ... .. . ... : ... .. . ... : ... .. . ...
ROW A6 : ... .. . ... ... ... ... : ... .. . ... ... ... ... : ... .. . ... : ... .. . ... : ... .. . ...
ROW A7 : ... .. . ... ... ... ... : ... .. . ... ... ... ... : ... .. . ... : ... .. . ... : ... .. . ...
ROW A8 : G#3 00 4 ... ... ... ... : D#3 00 4 ... ... ... ... : C-4 00 . ... : 7-# 00 4 ... : ... .. . ...
ROW A9 : ... .. . ... ... ... ... : ... .. . ... ... ... ... : ... .. . ... : ... .. . ... : ... .. . ...
ROW AA : ... .. . ... ... ... ... : ... .. . ... ... ... ... : ... .. . ... : ... .. . ... : ... .. . ...
ROW AB : ... .. . ... ... ... ... : ... .. . ... ... ... ... : ... .. . ... : ... .. 3 ... : ... .. . ...
ROW AC : ... .. . ... ... ... ... : ... .. . ... ... ... ... : ... .. . ... : ... .. . ... : ... .. . ...
ROW AD : ... .. . ... ... ... ... : ... .. . ... ... ... ... : ... .. . ... : ... .. . ... : ... .. . ...
ROW AE : ... .. . ... ... ... ... : ... .. . ... ... ... ... : ... .. . ... : ... .. 2 ... : ... .. . ...
ROW AF : ... .. . ... ... ... ... : ... .. . ... ... ... ... : ... .. . ... : ... .. . ... : ... .. . ...
ROW B0 : ... .. . ... ... ... ... : ... .. . ... ... ... ... : ... .. . ... : ... .. . ... : ... .. . ...
ROW B1 : ... .. . ... ... ... ... : ... .. . ... ... ... ... : ... .. . ... : ... .. 1 ... : ... .. . ...
ROW B2 : ... .. . ... ... ... ... : ... .. . ... ... ... ... : ... .. . ... : ... .. . ... : ... .. . ...
ROW B3 : ... .. . ... ... ... ... : ... .. . ... ... ... ... : ... .. . ... : ... .. . ... : ... .. . ...
ROW B4 : ... .. . ... ... ... ... : ... .. . ... ... ... ... : ... .. . ... : ... .. 0 ... : ... .. . ...
ROW B5 : ... .. . ... ... ... ... : ... .. . ... ... ... ... : --- .. . ... : ... .. . ... : ... .. . ...
ROW B6 : ... .. 0 ... ... ... ... : ... .. 0 ... ... ... ... : C-4 00 . S01 : ... .. . ... : ... .. . ...
ROW B7 : ... .. . ... ... ... ... : ... .. . ... ... ... ... : ... .. . ... : ... .. . ... : ... .. . ...
ROW B8 : ... .. . ... ... ... ... : ... .. . ... ... ... ... : ... .. . ... : ... .. . ... : ... .. . ...
ROW B9 : ... .. . ... ... ... ... : ... .. . ... ... ... ... : ... .. . ... : ... .. . ... : ... .. . ...
ROW BA : ... .. . ... ... ... ... : ... .. . ... ... ... ... : ... .. . ... : ... .. . ... : ... .. . ...
ROW BB : ... .. . ... ... ... ... : ... .. . ... ... ... ... : ... .. . ... : ... .. . ... : ... .. . ...
ROW BC : ... .. . ... ... ... ... : ... .. . ... ... ... ... : ... .. . ... : ... .. . ... : ... .. . ...
ROW BD : ... .. 1 ... ... ... ... : ... .. 1 ... ... ... ... : ... .. . ... : ... .. 1 ... : ... .. . ...
ROW BE : ... .. . ... ... ... ... : ... .. . ... ... ... ... : ... .. . ... : ... .. 0 ... : ... .. . ...
ROW BF : ... .. . ... ... ... ... : ... .. . ... ... ... ... : ... .. . ... : ... .. . ... : ... .. . ...
ROW C0 : ... .. . ... ... ... ... : ... .. . ... ... ... ... : ... .. . ... : ... .. . ... : ... .. . ...
ROW C1 : ... .. . ... ... ... ... : ... .. . ... ... ... ... : ... .. . ... : ... .. . ... : ... .. . ...
ROW C2 : ... .. . ... ... ... ... : ... .. 1 ... ... ... ... : ... .. . ... : ... .. . ... : ... .. . ...
ROW C3 : ... .. . ... ... ... ... : ... .. . ... ... ... ... : ... .. . ... : ... .. . ... : ... .. . ...
ROW C4 : C-4 00 4 ... ... ... ... : G-4 00 4 ... ... ... ... : D#4 00 . ... : 2-# 00 4 ... : ... .. . ...
ROW C5 : ... .. . ... ... ... ... : ... .. . ... ... ... ... : ... .. . ... : ... .. . ... : ... .. . ...
ROW C6 : ... .. . ... ... ... ... : ... .. . ... ... ... ... : ... .. . ... : ... .. . ... : ... .. . ...
ROW C7 : ... .. . ... ... ... ... : ... .. . ... ... ... ... : ... .. . ... : ... .. 3 ... : ... .. . ...
ROW C8 : ... .. . ... ... ... ... : ... .. . ... ... ... ... : ... .. . ... : ... .. . ... : ... .. . ...
ROW C9 : ... .. . ... ... ... ... : ... .. . ... ... ... ... : ... .. . ... : ... .. . ... : ... .. . ...
ROW CA : ... .. . ... ... ... ... : ... .. . ... ... ... ... : ... .. . ... : ... .. 2 ... : ... .. . ...
ROW CB : ... .. . ... ... ... ... : ... .. . ... ... ... ... : ... .. . ... : ... .. . ... : ... .. . ...
ROW CC : ... .. . ... ... ... ... : ... .. . ... ... ... ... : ... .. . ... : ... .. . ... : ... .. . ...
ROW CD : ... .. . ... ... ... ... : ... .. . ... ... ... ... : ... .. . ... : ... .. 1 ... : ... .. . ...
ROW CE : ... .. . ... ... ... ... : ... .. . ... ... ... ... : ... .. . ... : ... .. . ... : ... .. . ...
ROW CF : ... .. . ... ... ... ... : ... .. . ... ... ... ... : ... .. . ... : ... .. . ... : ... .. . ...
ROW D0 : ... .. . ... ... ... ... : ... .. . ... ... ... ... : ... .. . ... : ... .. . ... : ... .. . ...
ROW D1 : ... .. . ... ... ... ... : ... .. . ... ... ... ... : ... .. . ... : ... .. . ... : ... .. . ...
ROW D2 : ... .. . ... ... ... ... : ... .. . ... ... ... ... : ... .. . ... : ... .. 0 ... : ... .. . ...
ROW D3 : ... .. . ... ... ... ... : ... .. . ... ... ... ... : ... .. . ... : ... .. . ... : ... .. . ...
ROW D4 : ... .. . ... ... ... ... : ... .. . ... ... ... ... : ... .. . ... : ... .. . ... : ... .. . ...
ROW D5 : ... .. . ... ... ... ... : ... .. . ... ... ... ... : ... .. . ... : ... .. . ... : ... .. . ...
ROW D6 : ... .. . ... ... ... ... : ... .. . ... ... ... ... : ... .. . ... : ... .. . ... : ... .. . ...
ROW D7 : ... .. . ... ... ... ... : ... .. . ... ... ... ... : ... .. . ... : ... .. . ... : ... .. . ...
ROW D8 : ... .. . ... ... ... ... : ... .. . ... ... ... ... : ... .. . ... : ... .. . ... : ... .. . ...
ROW D9 : ... .. . ... ... ... ... : ... .. . ... ... ... ... : ... .. . ... : ... .. 1 ... : ... .. . ...
ROW DA : ... .. . ... ... ... ... : ... .. . ... ... ... ... : ... .. . ... : ... .. 0 ... : ... .. . ...
ROW DB : ... .. . ... ... ... ... : ... .. . ... ... ... ... : ... .. . ... : ... .. . ... : ... .. . ...
ROW DC : ... .. . ... ... ... ... : ... .. . ... ... ... ... : ... .. . ... : ... .. . ... : ... .. . ...
ROW DD : ... .. 1 ... ... ... ... : ... .. 1 ... ... ... ... : ... .. . ... : ... .. . ... : ... .. . ...
ROW DE : ... .. . ... ... ... ... : ... .. . ... ... ... ... : ... .. . ... : ... .. . ... : ... .. . ...
ROW DF : ... .. . ... ... ... ... : ... .. . ... ... ... ... : ... .. . ... : ... .. . ... : ... .. . ...

PATTERN 29
ROW 00 : D-4 00 4 V00 ... ... ... : F-4 00 5 V02 ... ... P80 : A#2 00 . ... : 2-# 00 4 ... : ... .. . ...
ROW 01 : ... .. . ... ... ... ... : ... .. . ... ... ... ... : ... .. . ... : ... .. . ... : ... .. . ...
ROW 02 : ... .. . ... ... ... ... : ... .. . ... ... ... ... : ... .. . ... : ... .. . ... : ... .. . ...
ROW 03 : ... .. . ... ... ... ... : ... .. . ... ... ... ... : ... .. . ... : ... .. 3 ... : ... .. . ...
ROW 04 : ... .. . ... ... ... ... : ... .. . ... ... ... ... : ... .. . ... : ... .. . ... : ... .. . ...
ROW 05 : ... .. . ... ... ... ... : ... .. . ... ... ... ... : ... .. . ... : ... .. . ... : ... .. . ...
ROW 06 : ... .. . ... ... ... ... : ... .. . ... ... ... ... : ... .. . ... : ... .. 2 ... : ... .. . ...
ROW 07 : ... .. . ... ... ... ... : ... .. . ... ... ... ... : ... .. . ... : ... .. . ... : ... .. . ...
ROW 08 : ... .. . ... ... ... ... : ... .. . ... ... ... ... : ... .. . ... : ... .. . ... : ... .. . ...
ROW 09 : ... .. . ... ... ... ... : ... .. . ... ... ... ... : ... .. . ... : ... .. 1 ... : ... .. . ...
ROW 0A : ... .. . ... ... ... ... : ... .. . ... ... ... ... : ... .. . ... : ... .. . ... : ... .. . ...
ROW 0B : ... .. . ... ... ... ... : ... .. . ... ... ... ... : ... .. . ... : ... .. . ... : ... .. . ...
ROW 0C : ... .. . ... ... ... ... : ... .. . ... ... ... ... : ... .. . ... : ... .. . ... : ... .. . ...
ROW 0D : ... .. . ... ... ... ... : ... .. . ... ... ... ... : --- .. . ... : ... .. . ... : ... .. . ...
ROW 0E : ... .. 0 ... ... ... ... : ... .. . ... ... ... ... : A#2 00 . S01 : ... .. 0 ... : ... .. . ...
ROW 0F : ... .. . ... ... ... ... : ... .. . ... ... ... ... : ... .. . ... : ... .. . ... : ... .. . ...
ROW 10 : ... .. . ... ... ... ... : ... .. . ... ... ... ... : ... .. . ... : ... .. . ... : ... .. . ...
ROW 11 : ... .. . ... ... ... ... : ... .. . ... ... ... ... : ... .. . ... : ... .. . ... : ... .. . ...
ROW 12 : ... .. . ... ... ... ... : ... .. . ... ... ... ... : ... .. . ... : ... .. . ... : ... .. . ...
ROW 13 : ... .. . ... ... ... ... : ... .. . ... ... ... ... : ... .. . ... : ... .. . ... : ... .. . ...
ROW 14 : ... .. . ... ... ... ... : ... .. . ... ... ... ... : ... .. . ... : ... .. . ... : ... .. . ...
ROW 15 : ... .. 1 ... ... ... ... : ... .. 4 ... ... ... ... : ... .. . ... : ... .. 1 ... : ... .. . ...
ROW 16 : ... .. . ... ... ... ... : ... .. . ... ... ... ... : ... .. . ... : ... .. . ... : ... .. . ...
ROW 17 : ... .. . ... ... ... ... : ... .. 3 ... ... ... ... : ... .. . ... : ... .. 0 ... : ... .. . ...
ROW 18 : ... .. . ... ... ... ... : ... .. . ... ... ... ... : ... .. . ... : ... .. . ... : ... .. . ...
ROW 19 : ... .. . ... ... ... ... : ... .. 2 ... ... ... ... : ... .. . ... : ... .. . ... : ... .. . ...
ROW 1A : ... .. . ... ... ... ... : ... .. . ... ... ... ... : ... .. . ... : ... .. . ... : ... .. . ...
ROW 1B : ... .. . ... ... ... ... : ... .. 1 ... ... ... ... : ... .. . ... : ... .. . ... : ... .. . ...
ROW 1C : A#3 00 4 ... ... ... ... : F-3 00 4 V02 ... ... P80 : D-4 00 . ... : 7-# 00 4 ... : ... .. . ...
ROW 1D : ... .. . ... ... ... ... : ... .. . ... ... ... ... : ... .. . ... : ... .. . ... : ... .. . ...
ROW 1E : ... .. . ... ... ... ... : ... .. . ... ... ... ... : ... .. . ... : ... .. . ... : ... .. . ...
ROW 1F : ... .. . ... ... ... ... : ... .. . ... ... ... ... : ... .. . ... : ... .. 3 ... : ... .. . ...
ROW 20 : ... .. . ... ... ... ... : ... .. . ... ... ... ... : ... .. . ... : ... .. . ... : ... .. . ...
ROW 21 : ... .. . ... ... ... ... : ... .. . ... ... ... ... : ... .. . ... : ... .. . ... : ... .. . ...
ROW 22 : ... .. . ... ... ... ... : ... .. . ... ... ... ... : ... .. . ... : ... .. 2 ... : ... .. . ...
ROW 23 : ... .. . ... ... ... ... : ... .. . ... ... ... ... : ... .. . ... : ... .. . ... : ... .. . ...
ROW 24 : ... .. 1 ... ... ... ... : ... .. 1 ... ... ... ... : --- .. . ... : ... .. . ... : ... .. . ...
ROW 25 : ... .. . ... ... ... ... : ... .. . ... ... ... ... : ... .. . ... : ... .. 1 ... : ... .. . ...
ROW 26 : A#3 00 4 ... ... ... ... : ... .. 4 ... ... ... ... : D-4 00 . ... : 7-# 00 3 ... : ... .. . ...
ROW 27 : ... .. . ... ... ... ... : ... .. . ... ... ... ... : ... .. . ... : ... .. . ... : ... .. . ...
ROW 28 : ... .. . ... ... ... ... : ... .. . ... ... ... ... : ... .. . ... : ... .. . ... : ... .. . ...
ROW 29 : ... .. . ... ... ... ... : ... .. . ... ... ... ... : ... .. . ... : ... .. 2 ... : ... .. . ...
ROW 2A : ... .. . ... ... ... ... : ... .. . ... ... ... ... : ... .. . ... : ... .. . ... : ... .. . ...
ROW 2B : ... .. . ... ... ... ... : ... .. . ... ... ... ... : ... .. . ... : ... .. . ... : ... .. . ...
ROW 2C : ... .. . ... ... ... ... : ... .. . ... ... ... ... : ... .. . ... : ... .. 1 ... : ... .. . ...
ROW 2D : ... .. 1 ... ... ... ... : ... .. 1 ... ... ... ... : --- .. . ... : ... .. . ... : ... .. . ...
ROW 2E : ... .. . ... ... ... ... : ... .. . ... ... ... ... : ... .. . ... : ... .. . ... : ... .. . ...
ROW 2F : A#3 00 4 ... ... ... ... : ... .. 4 ... ... ... ... : D-4 00 . ... : 7-# 00 3 ... : ... .. . ...
ROW 30 : ... .. . ... ... ... ... : ... .. . ... ... ... ... : ... .. . ... : ... .. . ... : ... .. . ...
ROW 31 : ... .. . ... ... ... ... : ... .. . ... ... ... ... : ... .. . ... : ... .. . ... : ... .. . ...
ROW 32 : ... .. . ... ... ... ... : ... .. . ... ... ... ... : ... .. . ... : ... .. 2 ... : ... .. . ...
ROW 33 : ... .. . ... ... ... ... : ... .. . ... ... ... ... : ... .. . ... : ... .. . ... : ... .. . ...
ROW 34 : ... .. . ... ... ... ... : ... .. . ... ... ... ... : ... .. . ... : ... .. . ... : ... .. . ...
ROW 35 : ... .. . ... ... ... ... : ... .. . ... ... ... ... : ... .. . ... : ... .. 1 ... : ... .. . ...
ROW 36 : ... .. 1 ... ... ... ... : ... .. 1 ... ... ... ... : --- .. . ... : ... .. . ... : ... .. . ...
ROW 37 : ... .. . ... ... ... ... : ... .. . ... ... ... ... : ... .. . ... : ... .. . ... : ... .. . ...
ROW 38 : A#3 00 4 ... ... ... ... : ... .. 4 ... ... ... ... : D-4 00 . ... : 7-# 00 4 ... : ... .. . ...
ROW 39 : ... .. . ... ... ... ... : ... .. . ... ... ... ... : ... .. . ... : ... .. . ... : ... .. . ...
ROW 3A : ... .. . ... ... ... ... : ... .. . ... ... ... ... : ... .. . ... : ... .. . ... : ... .. . ...
ROW 3B : ... .. . ... ... ... ... : ... .. . ... ... ... ... : ... .. . ... : ... .. 3 ... : ... .. . ...
ROW 3C : ... .. . ... ... ... ... : ... .. . ... ... ... ... : ... .. . ... : ... .. . ... : ... .. . ...
ROW 3D : ... .. . ... ... ... ... : ... .. . ... ... ... ... : ... .. . ... : ... .. . ... : ... .. . ...
ROW 3E : ... .. . ... ... ... ... : ... .. . ... ... ... ... : ... .. . ... : ... .. 2 ... : ... .. . ...
ROW 3F : ... .. . ... ... ... ... : ... .. . ... ... ... ... : ... .. . ... : ... .. . ... : ... .. . ...
ROW 40 : ... .. . ... ... ... ... : ... .. . ... ... ... ... : ... .. . ... : ... .. . ... : ... .. . ...
ROW 41 : ... .. . ... ... ... ... : ... .. . ... ... ... ... : ... .. . ... : ... .. 1 ... : ... .. . ...
ROW 42 : ... .. . ... ... ... ... : ... .. . ... ... ... ... : ... .. . ... : ... .. . ... : ... .. . ...
ROW 43 : ... .. . ... ... ... ... : ... .. . ... ... ... ... : ... .. . ... : ... .. . ... : ... .. . ...
ROW 44 : ... .. . ... ... ... ... : ... .. . ... ... ... ... : ... .. . ... : ... .. 0 ... : ... .. . ...
ROW 45 : ... .. . ... ... ... ... : ... .. . ... ... ... ... : --- .. . ... : ... .. . ... : ... .. . ...
ROW 46 : ... .. 0 ... ... ... ... : ... .. 0 ... ... ... ... : D-4 00 . S01 : ... .. . ... : ... .. . ...
ROW 47 : ... .. . ... ... ... ... : ... .. . ... ... ... ... : ... .. . ... : ... .. . ... : ... .. . ...
ROW 48 : ... .. . ... ... ... ... : ... .. . ... ... ... ... : ... .. . ... : ... .. . ... : ... .. . ...
ROW 49 : ... .. . ... ... ... ... : ... .. . ... ... ... ... : ... .. . ... : ... .. . ... : ... .. . ...
ROW 4A : ... .. . ... ... ... ... : ... .. . ... ... ... ... : ... .. . ... : ... .. . ... : ... .. . ...
ROW 4B : ... .. . ... ... ... ... : ... .. . ... ... ... ... : ... .. . ... : ... .. . ... : ... .. . ...
ROW 4C : ... .. . ... ... ... ... : ... .. . ... ... ... ... : ... .. . ... : ... .. . ... : ... .. . ...
ROW 4D : ... .. 1 ... ... ... ... : ... .. 1 ... ... ... ... : ... .. . ... : ... .. 1 ... : ... .. . ...
ROW 4E : ... .. . ... ... ... ... : ... .. . ... ... ... ... : ... .. . ... : ... .. 0 ... : ... .. . ...
ROW 4F : ... .. . ... ... ... ... : ... .. . ... ... ... ... : ... .. . ... : ... .. . ... : ... .. . ...
ROW 50 : ... .. . ... ... ... ... : ... .. . ... ... ... ... : ... .. . ... : ... .. . ... : ... .. . ...
ROW 51 : ... .. . ... ... ... ... : ... .. . ... ... ... ... : ... .. . ... : ... .. . ... : ... .. . ...
ROW 52 : ... .. . ... ... ... ... : ... .. . ... ... ... ... : ... .. . ... : ... .. . ... : ... .. . ...
ROW 53 : ... .. . ... ... ... ... : ... .. . ... ... ... ... : ... .. . ... : ... .. . ... : ... .. . ...
ROW 54 : --- .. . ... ... ... ... : F-1 00 6 V00 ... ... ... : F-2 00 . ... : 2-# 00 4 ... : ... .. . ...
ROW 55 : ... .. . ... ... ... ... : ... .. . ... ... ... ... : ... .. . ... : ... .. . ... : ... .. . ...
ROW 56 : ... .. . ... ... ... ... : ... .. . ... ... ... ... : ... .. . ... : ... .. . ... : ... .. . ...
ROW 57 : ... .. . ... ... ... ... : ... .. . ... ... ... ... : ... .. . ... : ... .. 3 ... : ... .. . ...
ROW 58 : ... .. . ... ... ... ... : ... .. . ... ... ... ... : ... .. . ... : ... .. . ... : ... .. . ...
ROW 59 : ... .. . ... ... ... ... : ... .. . ... ... ... ... : ... .. . ... : ... .. . ... : ... .. . ...
ROW 5A : ... .. . ... ... ... ... : ... .. . ... ... ... ... : ... .. . ... : ... .. 2 ... : ... .. . ...
ROW 5B : ... .. . ... ... ... ... : ... .. . ... ... ... ... : ... .. . ... : ... .. . ... : ... .. . ...
ROW 5C : ... .. . ... ... ... ... : ... .. . ... ... ... ... : ... .. . ... : ... .. . ... : ... .. . ...
ROW 5D : ... .. . ... ... ... ... : ... .. . ... ... ... ... : ... .. . ... : ... .. 1 ... : ... .. . ...
ROW 5E : ... .. . ... ... ... ... : ... .. . ... ... ... ... : ... .. . ... : ... .. . ... : ... .. . ...
ROW 5F : ... .. . ... ... ... ... : ... .. . ... ... ... ... : ... .. . ... : ... .. . ... : ... .. . ...
ROW 60 : ... .. . ... ... ... ... : ... .. . ... ... ... ... : ... .. . ... : ... .. . ... : ... .. . ...
ROW 61 : ... .. . ... ... ... ... : ... .. . ... ... ... ... : --- .. . ... : ... .. . ... : ... .. . ...
ROW 62 : ... .. 0 ... ... ... ... : ... .. 0 ... ... ... ... : F-2 00 . S01 : ... .. 0 ... : ... .. . ...
ROW 63 : ... .. . ... ... ... ... : ... .. . ... ... ... ... : ... .. . ... : ... .. . ... : ... .. . ...
ROW 64 : ... .. . ... ... ... ... : ... .. . ... ... ... ... : ... .. . ... : ... .. . ... : ... .. . ...
ROW 65 : ... .. . ... ... ... ... : ... .. . ... ... ... ... : ... .. . ... : ... .. . ... : ... .. . ...
ROW 66 : ... .. . ... ... ... ... : ... .. . ... ... ... ... : ... .. . ... : ... .. . ... : ... .. . ...
ROW 67 : ... .. . ... ... ... ... : ... .. . ... ... ... ... : ... .. . ... : ... .. . ... : ... .. . ...
ROW 68 : ... .. . ... ... ... ... : ... .. . ... ... ... ... : ... .. . ... : ... .. . ... : ... .. . ...
ROW 69 : ... .. 1 ... ... ... ... : ... .. 1 ... ... ... ... : ... .. . ... : ... .. 1 ... : ... .. . ...
ROW 6A : ... .. . ... ... ... ... : ... .. . ... ... ... ... : ... .. . ... : ... .. 0 ... : ... .. . ...
ROW 6B : ... .. . ... ... ... ... : ... .. . ... ... ... ... : ... .. . ... : ... .. . ... : ... .. . ...
ROW 6C : ... .. . ... ... ... ... : ... .. . ... ... ... ... : ... .. . ... : ... .. . ... : ... .. . ...
ROW 6D : ... .. . ... ... ... ... : ... .. . ... ... ... ... : ... .. . ... : ... .. . ... : ... .. . ...
ROW 6E : ... .. . ... ... ... ... : ... .. . ... ... ... ... : ... .. . ... : ... .. . ... : ... .. . ...
ROW 6F : ... .. . ... ... ... ... : ... .. . ... ... ... ... : ... .. . ... : ... .. . ... : ... .. . ...
ROW 70 : ... .. . ... ... ... ... : A#1 00 4 ... ... ... ... : A#2 00 . ... : 2-# 00 4 ... : ... .. . ...
ROW 71 : ... .. . ... ... ... ... : ... .. . ... ... ... ... : ... .. . ... : ... .. . ... : ... .. . ...
ROW 72 : ... .. . ... ... ... ... : ... .. . ... ... ... ... : ... .. . ... : ... .. . ... : ... .. . ...
ROW 73 : ... .. . ... ... ... ... : ... .. . ... ... ... ... : ... .. . ... : ... .. 3 ... : ... .. . ...
ROW 74 : ... .. . ... ... ... ... : ... .. . ... ... ... ... : ... .. . ... : ... .. . ... : ... .. . ...
ROW 75 : ... .. . ... ... ... ... : ... .. . ... ... ... ... : ... .. . ... : ... .. . ... : ... .. . ...
ROW 76 : ... .. . ... ... ... ... : ... .. . ... ... ... ... : ... .. . ... : ... .. 2 ... : ... .. . ...
ROW 77 : ... .. . ... ... ... ... : ... .. . ... ... ... ... : ... .. . ... : ... .. . ... : ... .. . ...
ROW 78 : ... .. . ... ... ... ... : ... .. . ... ... ... ... : ... .. . ... : ... .. . ... : ... .. . ...
ROW 79 : ... .. . ... ... ... ... : ... .. . ... ... ... ... : ... .. . ... : ... .. 1 ... : ... .. . ...
ROW 7A : ... .. . ... ... ... ... : ... .. . ... ... ... ... : ... .. . ... : ... .. . ... : ... .. . ...
ROW 7B : ... .. . ... ... ... ... : ... .. . ... ... ... ... : ... .. . ... : ... .. . ... : ... .. . ...
ROW 7C : ... .. . ... ... ... ... : ... .. . ... ... ... ... : ... .. . ... : ... .. . ... : ... .. . ...
ROW 7D : ... .. . ... ... ... ... : ... .. . ... ... ... ... : --- .. . ... : ... .. . ... : ... .. . ...
ROW 7E : ... .. 0 ... ... ... ... : ... .. 0 ... ... ... ... : A#2 00 . S01 : ... .. 0 ... : ... .. . ...
ROW 7F : ... .. . ... ... ... ... : ... .. . ... ... ... ... : ... .. . ... : ... .. . ... : ... .. . ...
ROW 80 : ... .. . ... ... ... ... : ... .. . ... ... ... ... : ... .. . ... : ... .. . ... : ... .. . ...
ROW 81 : ... .. . ... ... ... ... : ... .. . ... ... ... ... : ... .. . ... : ... .. . ... : ... .. . ...
ROW 82 : ... .. . ... ... ... ... : ... .. . ... ... ... ... : ... .. . ... : ... .. . ... : ... .. . ...
ROW 83 : ... .. . ... ... ... ... : ... .. . ... ... ... ... : ... .. . ... : ... .. . ... : ... .. . ...
ROW 84 : ... .. . ... ... ... ... : ... .. . ... ... ... ... : ... .. . ... : ... .. . ... : ... .. . ...
ROW 85 : ... .. 1 ... ... ... ... : ... .. 1 ... ... ... ... : ... .. . ... : ... .. 1 ... : ... .. . ...
ROW 86 : ... .. . ... ... ... ... : ... .. . ... ... ... ... : ... .. . ... : ... .. 0 ... : ... .. . ...
ROW 87 : ... .. . ... ... ... ... : ... .. . ... ... ... ... : ... .. . ... : ... .. 0 ... : ... .. . ...
ROW 88 : ... .. . ... ... ... ... : ... .. . ... ... ... ... : ... .. . ... : ... .. . ... : ... .. . ...
ROW 89 : ... .. . ... ... ... ... : ... .. . ... ... ... ... : ... .. . ... : ... .. . ... : ... .. . ...
ROW 8A : ... .. . ... ... ... ... : ... .. . ... ... ... ... : ... .. . ... : ... .. . ... : ... .. . ...
ROW 8B : ... .. . ... ... ... ... : ... .. . ... ... ... ... : ... .. . ... : ... .. . ... : ... .. . ...
ROW 8C : A#3 00 4 ... ... ... ... : F-3 00 4 V02 ... ... ... : D-4 00 . ... : 7-# 00 4 ... : ... .. . ...
ROW 8D : ... .. . ... ... ... ... : ... .. . ... ... ... ... : ... .. . ... : ... .. . ... : ... .. . ...
ROW 8E : ... .. . ... ... ... ... : ... .. . ... ... ... ... : ... .. . ... : ... .. . ... : ... .. . ...
ROW 8F : ... .. . ... ... ... ... : ... .. . ... ... ... ... : ... .. . ... : ... .. 3 ... : ... .. . ...
ROW 90 : ... .. . ... ... ... ... : ... .. . ... ... ... ... : ... .. . ... : ... .. . ... : ... .. . ...
ROW 91 : ... .. . ... ... ... ... : ... .. . ... ... ... ... : ... .. . ... : ... .. . ... : ... .. . ...
ROW 92 : ... .. . ... ... ... ... : ... .. . ... ... ... ... : ... .. . ... : ... .. 2 ... : ... .. . ...
ROW 93 : ... .. . ... ... ... ... : ... .. . ... ... ... ... : ... .. . ... : ... .. . ... : ... .. . ...
ROW 94 : ... .. . ... ... ... ... : ... .. . ... ... ... ... : ... .. . ... : ... .. . ... : ... .. . ...
ROW 95 : ... .. . ... ... ... ... : ... .. . ... ... ... ... : ... .. . ... : ... .. 1 ... : ... .. . ...
ROW 96 : ... .. . ... ... ... ... : ... .. . ... ... ... ... : ... .. . ... : ... .. . ... : ... .. . ...
ROW 97 : ... .. . ... ... ... ... : ... .. . ... ... ... ... : ... .. . ... : ... .. . ... : ... .. . ...
ROW 98 : ... .. . ... ... ... ... : ... .. . ... ... ... ... : ... .. . ... : ... .. 0 ... : ... .. . ...
ROW 99 : ... .. . ... ... ... ... : ... .. . ... ... ... ... : --- .. . ... : ... .. . ... : ... .. . ...
ROW 9A : ... .. 0 ... ... ... ... : ... .. 0 ... ... ... ... : D-4 00 . S01 : ... .. . ... : ... .. . ...
ROW 9B : ... .. . ... ... ... ... : ... .. . ... ... ... ... : ... .. . ... : ... .. . ... : ... .. . ...
ROW 9C : ... .. . ... ... ... ... : ... .. . ... ... ... ... : ... .. . ... : ... .. . ... : ... .. . ...
ROW 9D : ... .. . ... ... ... ... : ... .. . ... ... ... ... : ... .. . ... : ... .. . ... : ... .. . ...
ROW 9E : ... .. . ... ... ... ... : ... .. . ... ... ... ... : ... .. . ... : ... .. . ... : ... .. . ...
ROW 9F : ... .. . ... ... ... ... : ... .. . ... ... ... ... : ... .. . ... : ... .. . ... : ... .. . ...
ROW A0 : ... .. . ... ... ... ... : ... .. . ... ... ... ... : ... .. . ... : ... .. . ... : ... .. . ...
ROW A1 : ... .. 1 ... ... ... ... : ... .. 1 ... ... ... ... : ... .. . ... : ... .. 1 ... : ... .. . ...
ROW A2 : ... .. . ... ... ... ... : ... .. . ... ... ... ... : ... .. . ... : ... .. 0 ... : ... .. . ...
ROW A3 : ... .. . ... ... ... ... : ... .. . ... ... ... ... : ... .. . ... : ... .. . ... : ... .. . ...
ROW A4 : ... .. . ... ... ... ... : ... .. . ... ... ... ... : ... .. . ... : ... .. . ... : ... .. . ...
ROW A5 : ... .. . ... ... ... ... : ... .. . ... ... ... ... : ... .. . ... : ... .. . ... : ... .. . ...
ROW A6 : ... .. . ... ... ... ... : ... .. . ... ... ... ... : ... .. . ... : ... .. . ... : ... .. . ...
ROW A7 : ... .. . ... ... ... ... : ... .. . ... ... ... ... : ... .. . ... : ... .. . ... : ... .. . ...
ROW A8 : G#3 00 4 ... ... ... ... : D#3 00 4 ... ... ... ... : C-4 00 . ... : 7-# 00 4 ... : ... .. . ...
ROW A9 : ... .. . ... ... ... ... : ... .. . ... ... ... ... : ... .. . ... : ... .. . ... : ... .. . ...
ROW AA : ... .. . ... ... ... ... : ... .. . ... ... ... ... : ... .. . ... : ... .. . ... : ... .. . ...
ROW AB : ... .. . ... ... ... ... : ... .. . ... ... ... ... : ... .. . ... : ... .. 3 ... : ... .. . ...
ROW AC : ... .. . ... ... ... ... : ... .. . ... ... ... ... : ... .. . ... : ... .. . ... : ... .. . ...
ROW AD : ... .. . ... ... ... ... : ... .. . ... ... ... ... : ... .. . ... : ... .. . ... : ... .. . ...
ROW AE : ... .. . ... ... ... ... : ... .. . ... ... ... ... : ... .. . ... : ... .. 2 ... : ... .. . ...
ROW AF : ... .. . ... ... ... ... : ... .. . ... ... ... ... : ... .. . ... : ... .. . ... : ... .. . ...
ROW B0 : ... .. . ... ... ... ... : ... .. . ... ... ... ... : ... .. . ... : ... .. . ... : ... .. . ...
ROW B1 : ... .. . ... ... ... ... : ... .. . ... ... ... ... : ... .. . ... : ... .. 1 ... : ... .. . ...
ROW B2 : ... .. . ... ... ... ... : ... .. . ... ... ... ... : ... .. . ... : ... .. . ... : ... .. . ...
ROW B3 : ... .. . ... ... ... ... : ... .. . ... ... ... ... : ... .. . ... : ... .. . ... : ... .. . ...
ROW B4 : ... .. . ... ... ... ... : ... .. . ... ... ... ... : ... .. . ... : ... .. 0 ... : ... .. . ...
ROW B5 : ... .. . ... ... ... ... : ... .. . ... ... ... ... : --- .. . ... : ... .. . ... : ... .. . ...
ROW B6 : ... .. 0 ... ... ... ... : ... .. 0 ... ... ... ... : C-4 00 . S01 : ... .. . ... : ... .. . ...
ROW B7 : ... .. . ... ... ... ... : ... .. . ... ... ... ... : ... .. . ... : ... .. . ... : ... .. . ...
ROW B8 : ... .. . ... ... ... ... : ... .. . ... ... ... ... : ... .. . ... : ... .. . ... : ... .. . ...
ROW B9 : ... .. . ... ... ... ... : ... .. . ... ... ... ... : ... .. . ... : ... .. . ... : ... .. . ...
ROW BA : ... .. . ... ... ... ... : ... .. . ... ... ... ... : ... .. . ... : ... .. . ... : ... .. . ...
ROW BB : ... .. . ... ... ... ... : ... .. . ... ... ... ... : ... .. . ... : ... .. . ... : ... .. . ...
ROW BC : ... .. . ... ... ... ... : ... .. . ... ... ... ... : ... .. . ... : ... .. . ... : ... .. . ...
ROW BD : ... .. 1 ... ... ... ... : ... .. 1 ... ... ... ... : ... .. . ... : ... .. 1 ... : ... .. . ...
ROW BE : ... .. . ... ... ... ... : ... .. . ... ... ... ... : ... .. . ... : ... .. 0 ... : ... .. . ...
ROW BF : ... .. . ... ... ... ... : ... .. . ... ... ... ... : ... .. . ... : ... .. . ... : ... .. . ...
ROW C0 : ... .. . ... ... ... ... : ... .. . ... ... ... ... : ... .. . ... : ... .. . ... : ... .. . ...
ROW C1 : ... .. . ... ... ... ... : ... .. . ... ... ... ... : ... .. . ... : ... .. . ... : ... .. . ...
ROW C2 : ... .. . ... ... ... ... : ... .. 1 ... ... ... ... : ... .. . ... : ... .. . ... : ... .. . ...
ROW C3 : ... .. . ... ... ... ... : ... .. . ... ... ... ... : ... .. . ... : ... .. . ... : ... .. . ...
ROW C4 : --- 00 4 ... ... ... ... : --- 00 4 ... ... ... ... : --- 00 . ... : 2-# 00 4 ... : ... .. . ...
ROW C5 : ... .. . ... ... ... ... : ... .. . ... ... ... ... : ... .. . ... : ... .. . ... : ... .. . ...
ROW C6 : ... .. . ... ... ... ... : ... .. . ... ... ... ... : ... .. . ... : ... .. . ... : ... .. . ...
ROW C7 : ... .. . ... ... ... ... : ... .. . ... ... ... ... : ... .. . ... : ... .. 3 ... : ... .. . ...
ROW C8 : ... .. . ... ... ... ... : ... .. . ... ... ... ... : ... .. . ... : ... .. . ... : ... .. . ...
ROW C9 : ... .. . ... ... ... ... : ... .. . ... ... ... ... : ... .. . ... : ... .. . ... : ... .. . ...
ROW CA : ... .. . ... ... ... ... : ... .. . ... ... ... ... : ... .. . ... : ... .. 2 ... : ... .. . ...
ROW CB : ... .. . ... ... ... ... : ... .. . ... ... ... ... : ... .. . ... : ... .. . ... : ... .. . ...
ROW CC : ... .. . ... ... ... ... : ... .. . ... ... ... ... : ... .. . ... : ... .. . ... : ... .. . ...
ROW CD : ... .. . ... ... ... ... : ... .. . ... ... ... ... : ... .. . ... : ... .. 1 ... : ... .. . ...
ROW CE : ... .. . ... ... ... ... : ... .. . ... ... ... ... : ... .. . ... : ... .. . ... : ... .. . ...
ROW CF : ... .. . ... ... ... ... : ... .. . ... ... ... ... : ... .. . ... : ... .. . ... : ... .. . ...
ROW D0 : ... .. . ... ... ... ... : ... .. . ... ... ... ... : ... .. . ... : ... .. . ... : ... .. . ...
ROW D1 : ... .. . ... ... ... ... : ... .. . ... ... ... ... : ... .. . ... : ... .. . ... : ... .. . ...
ROW D2 : ... .. 0 ... ... ... ... : ... .. 0 ... ... ... ... : ... .. . ... : ... .. 0 ... : ... .. . ...
ROW D3 : ... .. . ... ... ... ... : ... .. . ... ... ... ... : ... .. . ... : ... .. . ... : ... .. . ...
ROW D4 : ... .. . ... ... ... ... : ... .. . ... ... ... ... : ... .. . ... : ... .. . ... : ... .. . ...
ROW D5 : ... .. . ... ... ... ... : ... .. . ... ... ... ... : ... .. . ... : ... .. . ... : ... .. . ...
ROW D6 : ... .. . ... ... ... ... : ... .. . ... ... ... ... : ... .. . ... : ... .. . ... : ... .. . ...
ROW D7 : ... .. . ... ... ... ... : ... .. . ... ... ... ... : ... .. . ... : ... .. . ... : ... .. . ...
ROW D8 : ... .. . ... ... ... ... : ... .. . ... ... ... ... : ... .. . ... : ... .. . ... : ... .. . ...
ROW D9 : ... .. 1 ... ... ... ... : ... .. 1 ... ... ... ... : ... .. . ... : ... .. 1 ... : ... .. . ...
ROW DA : ... .. . ... ... ... ... : ... .. . ... ... ... ... : ... .. . ... : ... .. 0 ... : ... .. . ...
ROW DB : ... .. . ... ... ... ... : ... .. . ... ... ... ... : ... .. . ... : ... .. . ... : ... .. . ...
ROW DC : ... .. . ... ... ... ... : ... .. . ... ... ... ... : ... .. . ... : ... .. . ... : ... .. . ...
ROW DD : ... .. . ... ... ... ... : ... .. . ... ... ... ... : ... .. . ... : ... .. . ... : ... .. . ...
ROW DE : ... .. . ... ... ... ... : ... .. . ... ... ... ... : ... .. . ... : ... .. . ... : ... .. . ...
ROW DF : ... .. . ... ... ... ... : ... .. . ... ... ... ... : ... .. . ... : ... .. . ... : ... .. . ...

PATTERN 2A
ROW 00 : --- .. . ... ... ... P80 : A#2 00 7 V01 ... ... ... : A#1 00 . ... : 2-# 00 7 ... : ... .. . ...
ROW 01 : ... .. . ... ... ... ... : ... .. 6 ... ... ... ... : ... .. . ... : ... .. 5 ... : ... .. . ...
ROW 02 : ... .. . ... ... ... ... : ... .. 3 ... ... ... ... : ... .. . ... : ... .. 3 ... : ... .. . ...
ROW 03 : ... .. . ... ... ... ... : ... .. 2 ... ... ... ... : ... .. . ... : ... .. 1 ... : ... .. . ...
ROW 04 : ... .. . ... ... ... ... : ... .. . ... ... ... ... : ... .. . ... : ... .. 0 ... : ... .. . ...
ROW 05 : ... .. . ... ... ... ... : ... .. 0 ... ... ... ... : ... .. . ... : ... .. . ... : ... .. . ...
ROW 06 : ... .. . ... ... ... ... : ... .. . ... ... ... ... : ... .. . ... : ... .. . ... : ... .. . ...
ROW 07 : ... .. . ... ... ... ... : ... .. 2 ... ... ... ... : ... .. . ... : ... .. . ... : ... .. . ...
ROW 08 : ... .. . ... ... ... ... : ... .. 1 ... ... ... ... : ... .. . ... : ... .. . ... : ... .. . ...
ROW 09 : ... .. . ... ... ... ... : ... .. . ... ... ... ... : ... .. . ... : ... .. . ... : ... .. . ...
ROW 0A : ... .. . ... ... ... ... : ... .. . ... ... ... ... : ... .. . ... : ... .. . ... : ... .. . ...
ROW 0B : ... .. . ... ... ... ... : ... .. . ... ... ... ... : ... .. . ... : ... .. . ... : ... .. . ...
ROW 0C : ... .. . ... ... ... ... : ... .. . ... ... ... ... : --- .. . ... : ... .. . ... : ... .. . ...
ROW 0D : ... .. . ... ... ... ... : ... .. . ... ... ... ... : ... .. . ... : ... .. . ... : ... .. . ...
ROW 0E : D-4 00 5 V02 ... ... ... : D-3 00 7 ... ... ... ... : ... .. . ... : ... .. 2 ... : ... .. . ...
ROW 0F : ... .. . ... ... ... ... : ... .. 6 ... ... ... ... : ... .. . ... : ... .. 1 ... : ... .. . ...
ROW 10 : ... .. 6 ... ... ... ... : ... .. 3 ... ... ... ... : ... .. . ... : ... .. 0 ... : ... .. . ...
ROW 11 : ... .. . ... ... ... ... : ... .. 1 ... ... ... ... : ... .. . ... : ... .. . ... : ... .. . ...
ROW 12 : ... .. . ... ... ... ... : ... .. . ... ... ... ... : ... .. . ... : ... .. . ... : ... .. . ...
ROW 13 : ... .. 5 ... ... ... ... : ... .. . ... ... ... ... : ... .. . ... : ... .. . ... : ... .. . ...
ROW 14 : ... .. 3 ... ... ... ... : ... .. . ... ... ... ... : ... .. . ... : ... .. . ... : ... .. . ...
ROW 15 : ... .. . ... ... ... P81 : F-2 00 7 ... ... ... ... : F-2 00 . ... : ... .. 5 ... : ... .. . ...
ROW 16 : ... .. . ... ... ... ... : ... .. 6 ... ... ... ... : ... .. . ... : ... .. 3 ... : ... .. . ...
ROW 17 : ... .. 2 ... ... ... ... : ... .. 3 ... ... ... ... : ... .. . ... : ... .. 1 ... : ... .. . ...
ROW 18 : ... .. . ... ... ... P80 : ... .. 2 ... ... ... ... : ... .. . ... : ... .. 0 ... : ... .. . ...
ROW 19 : ... .. 1 ... ... ... ... : ... .. . ... ... ... ... : ... .. . ... : ... .. . ... : ... .. . ...
ROW 1A : ... .. . ... ... ... ... : ... .. 0 ... ... ... ... : ... .. . ... : ... .. . ... : ... .. . ...
ROW 1B : ... .. . ... ... ... P7F : ... .. . ... ... ... ... : ... .. . ... : ... .. . ... : ... .. . ...
ROW 1C : D#4 00 5 ... ... ... P80 : D-3 00 2 ... ... ... ... : ... .. . ... : 7-# 00 7 ... : ... .. . ...
ROW 1D : ... .. . ... ... ... ... : ... .. 1 ... ... ... ... : ... .. . ... : ... .. 5 ... : ... .. . ...
ROW 1E : ... .. 6 ... ... ... ... : ... .. . ... ... ... ... : ... .. . ... : ... .. 3 ... : ... .. . ...
ROW 1F : ... .. . ... ... ... ... : ... .. . ... ... ... ... : ... .. . ... : ... .. 1 ... : ... .. . ...
ROW 20 : ... .. . ... ... ... ... : ... .. . ... ... ... ... : ... .. . ... : ... .. 0 ... : ... .. . ...
ROW 21 : ... .. 5 ... ... ... ... : ... .. . ... ... ... ... : --- .. . ... : ... .. . ... : ... .. . ...
ROW 22 : ... .. 3 ... ... ... ... : ... .. . ... ... ... ... : ... .. . ... : ... .. . ... : ... .. . ...
ROW 23 : ... .. . ... ... ... P81 : G#2 00 7 ... ... ... ... : ... .. . ... : ... .. . ... : ... .. . ...
ROW 24 : ... .. . ... ... ... ... : ... .. 6 ... ... ... ... : ... .. . ... : ... .. . ... : ... .. . ...
ROW 25 : ... .. 2 ... ... ... ... : ... .. 3 ... ... ... ... : ... .. . ... : ... .. . ... : ... .. . ...
ROW 26 : ... .. . ... ... ... P80 : ... .. 2 ... ... ... ... : ... .. . ... : ... .. . ... : ... .. . ...
ROW 27 : D-4 00 1 ... ... ... ... : ... .. . ... ... ... ... : ... .. . ... : ... .. . ... : ... .. . ...
ROW 28 : ... .. . ... ... ... ... : ... .. 0 ... ... ... ... : ... .. . ... : ... .. . ... : ... .. . ...
ROW 29 : ... .. . ... ... ... ... : ... .. . ... ... ... ... : ... .. . ... : ... .. . ... : ... .. . ...
ROW 2A : G-4 00 5 ... ... ... ... : C#3 00 2 ... ... ... ... : A#2 00 . ... : ... .. 2 ... : ... .. . ...
ROW 2B : ... .. . ... ... ... ... : ... .. 1 ... ... ... ... : ... .. . ... : ... .. 1 ... : ... .. . ...
ROW 2C : ... .. 6 ... ... ... ... : ... .. . ... ... ... ... : ... .. . ... : ... .. 0 ... : ... .. . ...
ROW 2D : ... .. . ... ... ... ... : ... .. 0 ... ... ... ... : ... .. . ... : ... .. . ... : ... .. . ...
ROW 2E : ... .. . ... ... ... ... : ... .. . ... ... ... ... : ... .. . ... : ... .. . ... : ... .. . ...
ROW 2F : ... .. 5 ... ... ... ... : ... .. . ... ... ... ... : ... .. . ... : ... .. . ... : ... .. . ...
ROW 30 : ... .. 3 ... ... ... ... : ... .. . ... ... ... ... : ... .. . ... : ... .. . ... : ... .. . ...
ROW 31 : ... .. . ... ... ... P81 : A#2 00 7 ... ... ... ... : ... .. . ... : 2-# 00 5 ... : ... .. . ...
ROW 32 : ... .. . ... ... ... ... : ... .. 6 ... ... ... ... : ... .. . ... : ... .. 3 ... : ... .. . ...
ROW 33 : ... .. 2 ... ... ... ... : ... .. 3 ... ... ... ... : ... .. . ... : ... .. 1 ... : ... .. . ...
ROW 34 : ... .. . ... ... ... P80 : ... .. 2 ... ... ... ... : ... .. . ... : ... .. 0 ... : ... .. . ...
ROW 35 : D#4 00 1 ... ... ... ... : ... .. . ... ... ... ... : ... .. . ... : ... .. . ... : ... .. . ...
ROW 36 : ... .. . ... ... ... ... : ... .. 0 ... ... ... ... : --- .. . ... : ... .. . ... : ... .. . ...
ROW 37 : ... .. . ... ... ... ... : ... .. . ... ... ... ... : ... .. . ... : ... .. . ... : ... .. . ...
ROW 38 : F-4 00 5 ... ... ... ... : G#2 00 2 ... ... ... ... : A#1 00 . ... : 2-# 00 5 ... : ... .. . ...
ROW 39 : ... .. . ... ... ... ... : ... .. 1 ... ... ... ... : ... .. . ... : ... .. 3 ... : ... .. . ...
ROW 3A : ... .. 6 ... ... ... ... : ... .. . ... ... ... ... : ... .. . ... : ... .. 1 ... : ... .. . ...
ROW 3B : ... .. . ... ... ... ... : ... .. . ... ... ... ... : ... .. . ... : ... .. 0 ... : ... .. . ...
ROW 3C : ... .. . ... ... ... ... : ... .. . ... ... ... ... : ... .. . ... : ... .. . ... : ... .. . ...
ROW 3D : ... .. 5 ... ... ... ... : ... .. . ... ... ... ... : ... .. . ... : ... .. . ... : ... .. . ...
ROW 3E : ... .. 3 ... ... ... ... : ... .. . ... ... ... ... : ... .. . ... : ... .. . ... : ... .. . ...
ROW 3F : ... .. . ... ... ... P81 : D-3 00 7 ... ... ... ... : ... .. . ... : ... .. . ... : ... .. . ...
ROW 40 : ... .. . ... ... ... ... : ... .. 6 ... ... ... ... : ... .. . ... : ... .. . ... : ... .. . ...
ROW 41 : ... .. 2 ... ... ... ... : ... .. 3 ... ... ... ... : ... .. . ... : ... .. . ... : ... .. . ...
ROW 42 : ... .. . ... ... ... P80 : ... .. 2 ... ... ... ... : ... .. . ... : ... .. . ... : ... .. . ...
ROW 43 : ... .. 1 ... ... ... ... : ... .. . ... ... ... ... : ... .. . ... : ... .. . ... : ... .. . ...
ROW 44 : G-4 00 . ... ... ... ... : ... .. . ... ... ... ... : --- .. . ... : ... .. . ... : ... .. . ...
ROW 45 : ... .. . ... ... ... ... : ... .. . ... ... ... ... : ... .. . ... : ... .. . ... : ... .. . ...
ROW 46 : D-4 00 5 ... ... ... ... : F-2 00 7 ... ... ... ... : ... .. . ... : ... .. 2 ... : ... .. . ...
ROW 47 : ... .. . ... ... ... ... : ... .. 6 ... ... ... ... : ... .. . ... : ... .. 1 ... : ... .. . ...
ROW 48 : ... .. 6 ... ... ... ... : ... .. 3 ... ... ... ... : ... .. . ... : ... .. 0 ... : ... .. . ...
ROW 49 : ... .. . ... ... ... ... : ... .. 2 ... ... ... ... : ... .. . ... : ... .. . ... : ... .. . ...
ROW 4A : ... .. . ... ... ... ... : ... .. . ... ... ... ... : ... .. . ... : ... .. . ... : ... .. . ...
ROW 4B : ... .. 5 ... ... ... ... : ... .. 0 ... ... ... ... : ... .. . ... : ... .. . ... : ... .. . ...
ROW 4C : ... .. 3 ... ... ... ... : ... .. . ... ... ... ... : ... .. . ... : ... .. . ... : ... .. . ...
ROW 4D : ... .. . ... ... ... P81 : D-3 00 2 ... ... ... ... : F-2 00 . ... : ... .. 5 ... : ... .. . ...
ROW 4E : ... .. . ... ... ... ... : ... .. 1 ... ... ... ... : ... .. . ... : ... .. 3 ... : ... .. . ...
ROW 4F : ... .. 2 ... ... ... ... : ... .. . ... ... ... ... : ... .. . ... : ... .. 1 ... : ... .. . ...
ROW 50 : ... .. . ... ... ... P80 : ... .. . ... ... ... ... : ... .. . ... : ... .. 0 ... : ... .. . ...
ROW 51 : F-4 00 1 ... ... ... ... : ... .. . ... ... ... ... : ... .. . ... : ... .. . ... : ... .. . ...
ROW 52 : ... .. . ... ... ... ... : ... .. . ... ... ... ... : ... .. . ... : ... .. . ... : ... .. . ...
ROW 53 : ... .. . ... ... ... ... : ... .. . ... ... ... ... : ... .. . ... : ... .. . ... : ... .. . ...
ROW 54 : D#4 00 5 ... ... ... ... : A#2 00 7 ... ... ... ... : ... .. . ... : 6-# 00 7 ... : ... .. . ...
ROW 55 : ... .. . ... ... ... ... : ... .. 6 ... ... ... ... : ... .. . ... : ... .. 5 ... : ... .. . ...
ROW 56 : ... .. 6 ... ... ... ... : ... .. 3 ... ... ... ... : ... .. . ... : ... .. 3 ... : ... .. . ...
ROW 57 : ... .. . ... ... ... ... : ... .. 2 ... ... ... ... : ... .. . ... : ... .. 1 ... : ... .. . ...
ROW 58 : ... .. . ... ... ... ... : ... .. . ... ... ... ... : ... .. . ... : ... .. 0 ... : ... .. . ...
ROW 59 : ... .. 5 ... ... ... ... : ... .. 0 ... ... ... ... : --- .. . ... : ... .. . ... : ... .. . ...
ROW 5A : ... .. 3 ... ... ... ... : ... .. . ... ... ... ... : ... .. . ... : ... .. . ... : ... .. . ...
ROW 5B : ... .. . ... ... ... P81 : F-2 00 2 ... ... ... ... : ... .. . ... : ... .. . ... : ... .. . ...
ROW 5C : ... .. . ... ... ... ... : ... .. 1 ... ... ... ... : ... .. . ... : ... .. . ... : ... .. . ...
ROW 5D : ... .. 2 ... ... ... ... : ... .. . ... ... ... ... : ... .. . ... : ... .. . ... : ... .. . ...
ROW 5E : ... .. . ... ... ... P80 : ... .. . ... ... ... ... : ... .. . ... : ... .. . ... : ... .. . ...
ROW 5F : D-4 00 1 ... ... ... ... : ... .. . ... ... ... ... : ... .. . ... : ... .. . ... : ... .. . ...
ROW 60 : ... .. . ... ... ... ... : ... .. . ... ... ... ... : ... .. . ... : ... .. . ... : ... .. . ...
ROW 61 : ... .. . ... ... ... ... : ... .. . ... ... ... ... : ... .. . ... : ... .. . ... : ... .. . ...
ROW 62 : C-4 00 5 ... ... ... ... : G#2 00 7 ... ... ... ... : A#2 00 . ... : ... .. 2 ... : ... .. . ...
ROW 63 : ... .. . ... ... ... ... : ... .. 6 ... ... ... ... : ... .. . ... : ... .. 1 ... : ... .. . ...
ROW 64 : ... .. 6 ... ... ... ... : ... .. 3 ... ... ... ... : ... .. . ... : ... .. 0 ... : ... .. . ...
ROW 65 : ... .. . ... ... ... ... : ... .. 2 ... ... ... ... : ... .. . ... : ... .. . ... : ... .. . ...
ROW 66 : ... .. . ... ... ... ... : ... .. . ... ... ... ... : ... .. . ... : ... .. . ... : ... .. . ...
ROW 67 : ... .. 5 ... ... ... ... : ... .. 0 ... ... ... ... : ... .. . ... : ... .. . ... : ... .. . ...
ROW 68 : ... .. 3 ... ... ... ... : ... .. . ... ... ... ... : ... .. . ... : ... .. . ... : ... .. . ...
ROW 69 : ... .. . ... ... ... P81 : A#2 00 2 ... ... ... ... : ... .. . ... : 2-# 00 5 ... : ... .. . ...
ROW 6A : ... .. . ... ... ... ... : ... .. 1 ... ... ... ... : ... .. . ... : ... .. 3 ... : ... .. . ...
ROW 6B : ... .. 2 ... ... ... ... : ... .. . ... ... ... ... : ... .. . ... : ... .. 1 ... : ... .. . ...
ROW 6C : ... .. . ... ... ... P80 : ... .. . ... ... ... ... : ... .. . ... : ... .. 0 ... : ... .. . ...
ROW 6D : D#4 00 1 ... ... ... ... : ... .. . ... ... ... ... : ... .. . ... : ... .. . ... : ... .. . ...
ROW 6E : ... .. . ... ... ... ... : ... .. . ... ... ... ... : --- .. . ... : ... .. . ... : ... .. . ...
ROW 6F : ... .. . ... ... ... ... : ... .. . ... ... ... ... : ... .. . ... : ... .. . ... : ... .. . ...
ROW 70 : C#4 00 5 ... ... ... ... : F-2 00 7 ... ... ... ... : C#2 00 . ... : 2-# 00 7 ... : ... .. . ...
ROW 71 : ... .. . ... ... ... ... : ... .. 6 ... ... ... ... : ... .. . ... : ... .. 5 ... : ... .. . ...
ROW 72 : ... .. 6 ... ... ... ... : ... .. 3 ... ... ... ... : ... .. . ... : ... .. 3 ... : ... .. . ...
ROW 73 : ... .. . ... ... ... ... : ... .. 2 ... ... ... ... : ... .. . ... : ... .. 1 ... : ... .. . ...
ROW 74 : ... .. . ... ... ... ... : ... .. . ... ... ... ... : ... .. . ... : ... .. 0 ... : ... .. . ...
ROW 75 : ... .. . ... ... ... ... : ... .. 0 ... ... ... ... : ... .. . ... : ... .. . ... : ... .. . ...
ROW 76 : ... .. . ... ... ... ... : ... .. . ... ... ... ... : ... .. . ... : ... .. . ... : ... .. . ...
ROW 77 : ... .. . ... ... ... ... : G#2 00 2 ... ... ... ... : ... .. . ... : ... .. . ... : ... .. . ...
ROW 78 : ... .. . ... ... ... ... : ... .. 1 ... ... ... ... : ... .. . ... : ... .. . ... : ... .. . ...
ROW 79 : ... .. . ... ... ... ... : ... .. . ... ... ... ... : ... .. . ... : ... .. . ... : ... .. . ...
ROW 7A : ... .. . ... ... ... ... : ... .. . ... ... ... ... : ... .. . ... : ... .. . ... : ... .. . ...
ROW 7B : ... .. . ... ... ... ... : ... .. . ... ... ... ... : ... .. . ... : ... .. . ... : ... .. . ...
ROW 7C : ... .. . ... ... ... ... : ... .. . ... ... ... ... : --- .. . ... : ... .. . ... : ... .. . ...
ROW 7D : ... .. . ... ... ... ... : ... .. . ... ... ... ... : ... .. . ... : ... .. . ... : ... .. . ...
ROW 7E : ... .. . ... ... ... P81 : G#2 00 7 ... ... ... ... : ... .. . ... : ... .. 2 ... : ... .. . ...
ROW 7F : ... .. . ... ... ... ... : ... .. 6 ... ... ... ... : ... .. . ... : ... .. 1 ... : ... .. . ...
ROW 80 : ... .. . ... ... ... ... : ... .. 3 ... ... ... ... : ... .. . ... : ... .. 0 ... : ... .. . ...
ROW 81 : ... .. . ... ... ... P80 : ... .. 2 ... ... ... ... : ... .. . ... : ... .. . ... : ... .. . ...
ROW 82 : ... .. . ... ... ... ... : ... .. . ... ... ... ... : ... .. . ... : ... .. . ... : ... .. . ...
ROW 83 : ... .. . ... ... ... ... : ... .. 0 ... ... ... ... : ... .. . ... : ... .. . ... : ... .. . ...
ROW 84 : ... .. . ... ... ... P7F : ... .. . ... ... ... ... : ... .. . ... : ... .. . ... : ... .. . ...
ROW 85 : ... .. 4 ... ... ... ... : B-1 00 7 ... ... ... ... : G#2 00 . ... : ... .. 5 ... : ... .. . ...
ROW 86 : ... .. . ... ... ... ... : ... .. 6 ... ... ... ... : ... .. . ... : ... .. 3 ... : ... .. . ...
ROW 87 : ... .. 3 ... ... ... P80 : ... .. 3 ... ... ... ... : ... .. . ... : ... .. 1 ... : ... .. . ...
ROW 88 : ... .. . ... ... ... ... : ... .. 2 ... ... ... ... : ... .. . ... : ... .. 0 ... : ... .. . ...
ROW 89 : ... .. 2 ... ... ... ... : ... .. . ... ... ... ... : ... .. . ... : ... .. . ... : ... .. . ...
ROW 8A : ... .. . ... ... ... P81 : ... .. 0 ... ... ... ... : ... .. . ... : ... .. . ... : ... .. . ...
ROW 8B : ... .. 1 ... ... ... ... : ... .. . ... ... ... ... : ... .. . ... : ... .. . ... : ... .. . ...
ROW 8C : F-4 00 5 ... ... ... P80 : F#2 00 2 ... ... ... ... : ... .. . ... : 7-# 00 7 ... : ... .. . ...
ROW 8D : ... .. . ... ... ... ... : ... .. 1 ... ... ... ... : ... .. . ... : ... .. 5 ... : ... .. . ...
ROW 8E : ... .. 6 ... ... ... ... : ... .. . ... ... ... ... : ... .. . ... : ... .. 3 ... : ... .. . ...
ROW 8F : ... .. . ... ... ... ... : ... .. . ... ... ... ... : ... .. . ... : ... .. 1 ... : ... .. . ...
ROW 90 : ... .. . ... ... ... ... : ... .. . ... ... ... ... : ... .. . ... : ... .. 0 ... : ... .. . ...
ROW 91 : ... .. 5 ... ... ... ... : ... .. . ... ... ... ... : --- .. . ... : ... .. . ... : ... .. . ...
ROW 92 : ... .. . ... ... ... ... : ... .. . ... ... ... ... : ... .. . ... : ... .. . ... : ... .. . ...
ROW 93 : ... .. . ... ... ... ... : C#2 00 7 ... ... ... ... : ... .. . ... : ... .. . ... : ... .. . ...
ROW 94 : ... .. . ... ... ... ... : ... .. 6 ... ... ... ... : ... .. . ... : ... .. . ... : ... .. . ...
ROW 95 : ... .. . ... ... ... ... : ... .. 3 ... ... ... ... : ... .. . ... : ... .. . ... : ... .. . ...
ROW 96 : ... .. . ... ... ... ... : ... .. 2 ... ... ... ... : ... .. . ... : ... .. . ... : ... .. . ...
ROW 97 : ... .. . ... ... ... ... : ... .. . ... ... ... ... : ... .. . ... : ... .. . ... : ... .. . ...
ROW 98 : ... .. . ... ... ... ... : ... .. 0 ... ... ... ... : ... .. . ... : ... .. . ... : ... .. . ...
ROW 99 : ... .. . ... ... ... ... : ... .. . ... ... ... ... : ... .. . ... : ... .. . ... : ... .. . ...
ROW 9A : ... .. . ... ... ... P81 : B-1 00 2 ... ... ... ... : C#3 00 . ... : ... .. 2 ... : ... .. . ...
ROW 9B : ... .. . ... ... ... ... : ... .. 1 ... ... ... ... : ... .. . ... : ... .. 1 ... : ... .. . ...
ROW 9C : ... .. . ... ... ... ... : ... .. . ... ... ... ... : ... .. . ... : ... .. 0 ... : ... .. . ...
ROW 9D : ... .. . ... ... ... P80 : ... .. . ... ... ... ... : ... .. . ... : ... .. . ... : ... .. . ...
ROW 9E : ... .. . ... ... ... ... : ... .. . ... ... ... ... : ... .. . ... : ... .. . ... : ... .. . ...
ROW 9F : ... .. . ... ... ... ... : ... .. . ... ... ... ... : ... .. . ... : ... .. . ... : ... .. . ...
ROW A0 : ... .. . ... ... ... P7F : ... .. . ... ... ... ... : ... .. . ... : ... .. . ... : ... .. . ...
ROW A1 : ... .. 4 ... ... ... ... : F-2 00 7 ... ... ... ... : ... .. . ... : 2-# 00 5 ... : ... .. . ...
ROW A2 : ... .. . ... ... ... ... : ... .. 6 ... ... ... ... : ... .. . ... : ... .. 3 ... : ... .. . ...
ROW A3 : ... .. 3 ... ... ... P80 : ... .. 3 ... ... ... ... : ... .. . ... : ... .. 1 ... : ... .. . ...
ROW A4 : ... .. . ... ... ... ... : ... .. 2 ... ... ... ... : ... .. . ... : ... .. 0 ... : ... .. . ...
ROW A5 : ... .. 2 ... ... ... ... : ... .. . ... ... ... ... : ... .. . ... : ... .. . ... : ... .. . ...
ROW A6 : ... .. . ... ... ... P81 : ... .. 0 ... ... ... ... : --- .. . ... : ... .. . ... : ... .. . ...
ROW A7 : ... .. 1 ... ... ... ... : ... .. . ... ... ... ... : ... .. . ... : ... .. . ... : ... .. . ...
ROW A8 : C#4 00 6 ... ... ... P80 : C#2 00 2 ... ... ... ... : C#2 00 . ... : 2-# 00 5 ... : ... .. . ...
ROW A9 : ... .. . ... ... ... ... : ... .. 1 ... ... ... ... : ... .. . ... : ... .. 3 ... : ... .. . ...
ROW AA : ... .. . ... ... ... ... : ... .. . ... ... ... ... : ... .. . ... : ... .. 1 ... : ... .. . ...
ROW AB : ... .. . ... ... ... ... : ... .. . ... ... ... ... : ... .. . ... : ... .. 0 ... : ... .. . ...
ROW AC : ... .. . ... ... ... ... : ... .. . ... ... ... ... : ... .. . ... : ... .. . ... : ... .. . ...
ROW AD : ... .. . ... ... ... ... : ... .. . ... ... ... ... : ... .. . ... : ... .. . ... : ... .. . ...
ROW AE : ... .. . ... ... ... ... : ... .. . ... ... ... ... : ... .. . ... : ... .. . ... : ... .. . ...
ROW AF : ... .. . ... ... ... ... : G#2 00 7 ... ... ... ... : ... .. . ... : ... .. . ... : ... .. . ...
ROW B0 : ... .. . ... ... ... ... : ... .. 6 ... ... ... ... : ... .. . ... : ... .. . ... : ... .. . ...
ROW B1 : ... .. . ... ... ... ... : ... .. 3 ... ... ... ... : ... .. . ... : ... .. . ... : ... .. . ...
ROW B2 : ... .. . ... ... ... ... : ... .. 2 ... ... ... ... : ... .. . ... : ... .. . ... : ... .. . ...
ROW B3 : ... .. . ... ... ... ... : ... .. . ... ... ... ... : ... .. . ... : ... .. . ... : ... .. . ...
ROW B4 : ... .. . ... ... ... ... : ... .. 0 ... ... ... ... : --- .. . ... : ... .. . ... : ... .. . ...
ROW B5 : ... .. . ... ... ... ... : ... .. . ... ... ... ... : ... .. . ... : ... .. . ... : ... .. . ...
ROW B6 : ... .. . ... ... ... P81 : B-1 00 7 ... ... ... ... : ... .. . ... : ... .. 2 ... : ... .. . ...
ROW B7 : ... .. . ... ... ... ... : ... .. 6 ... ... ... ... : ... .. . ... : ... .. 1 ... : ... .. . ...
ROW B8 : ... .. . ... ... ... ... : ... .. 3 ... ... ... ... : ... .. . ... : ... .. 0 ... : ... .. . ...
ROW B9 : ... .. . ... ... ... P80 : ... .. 2 ... ... ... ... : ... .. . ... : ... .. . ... : ... .. . ...
ROW BA : ... .. . ... ... ... ... : ... .. . ... ... ... ... : ... .. . ... : ... .. . ... : ... .. . ...
ROW BB : ... .. . ... ... ... ... : ... .. 0 ... ... ... ... : ... .. . ... : ... .. . ... : ... .. . ...
ROW BC : ... .. . ... ... ... P7F : ... .. . ... ... ... ... : ... .. . ... : ... .. . ... : ... .. . ...
ROW BD : ... .. . ... ... ... ... : G#2 00 2 ... ... ... ... : G#2 00 . ... : ... .. 5 ... : ... .. . ...
ROW BE : ... .. 3 ... ... ... ... : ... .. 1 ... ... ... ... : ... .. . ... : ... .. 3 ... : ... .. . ...
ROW BF : ... .. . ... ... ... P80 : ... .. . ... ... ... ... : ... .. . ... : ... .. 1 ... : ... .. . ...
ROW C0 : ... .. 2 ... ... ... ... : ... .. . ... ... ... ... : ... .. . ... : ... .. 0 ... : ... .. . ...
ROW C1 : ... .. . ... ... ... ... : ... .. . ... ... ... ... : ... .. . ... : ... .. . ... : ... .. . ...
ROW C2 : ... .. 1 ... ... ... P81 : ... .. . ... ... ... ... : ... .. . ... : ... .. . ... : ... .. . ...
ROW C3 : ... .. . ... ... ... ... : ... .. . ... ... ... ... : ... .. . ... : ... .. . ... : ... .. . ...
ROW C4 : F-4 00 5 ... ... ... P80 : C#2 00 7 ... ... ... ... : ... .. . ... : 6-# 00 7 ... : ... .. . ...
ROW C5 : ... .. . ... ... ... ... : ... .. 6 ... ... ... ... : ... .. . ... : ... .. 5 ... : ... .. . ...
ROW C6 : ... .. 6 ... ... ... ... : ... .. 3 ... ... ... ... : ... .. . ... : ... .. 3 ... : ... .. . ...
ROW C7 : ... .. . ... ... ... ... : ... .. 2 ... ... ... ... : ... .. . ... : ... .. 1 ... : ... .. . ...
ROW C8 : ... .. . ... ... ... ... : ... .. . ... ... ... ... : ... .. . ... : ... .. 0 ... : ... .. . ...
ROW C9 : ... .. 5 ... ... ... ... : ... .. 0 ... ... ... ... : --- .. . ... : ... .. . ... : ... .. . ...
ROW CA : ... .. . ... ... ... ... : ... .. . ... ... ... ... : ... .. . ... : ... .. . ... : ... .. . ...
ROW CB : ... .. . ... ... ... ... : B-1 00 2 ... ... ... ... : ... .. . ... : ... .. . ... : ... .. . ...
ROW CC : ... .. . ... ... ... ... : ... .. 1 ... ... ... ... : ... .. . ... : ... .. . ... : ... .. . ...
ROW CD : ... .. . ... ... ... ... : ... .. . ... ... ... ... : ... .. . ... : ... .. . ... : ... .. . ...
ROW CE : ... .. . ... ... ... ... : ... .. . ... ... ... ... : ... .. . ... : ... .. . ... : ... .. . ...
ROW CF : ... .. . ... ... ... ... : ... .. . ... ... ... ... : ... .. . ... : ... .. . ... : ... .. . ...
ROW D0 : ... .. . ... ... ... ... : ... .. . ... ... ... ... : ... .. . ... : ... .. . ... : ... .. . ...
ROW D1 : ... .. . ... ... ... ... : ... .. . ... ... ... ... : ... .. . ... : ... .. . ... : ... .. . ...
ROW D2 : ... .. . ... ... ... P81 : F-2 00 7 ... ... ... ... : C#3 00 . ... : ... .. 2 ... : ... .. . ...
ROW D3 : ... .. . ... ... ... ... : ... .. 6 ... ... ... ... : ... .. . ... : ... .. 1 ... : ... .. . ...
ROW D4 : ... .. . ... ... ... ... : ... .. 3 ... ... ... ... : ... .. . ... : ... .. 0 ... : ... .. . ...
ROW D5 : ... .. . ... ... ... P80 : ... .. 2 ... ... ... ... : ... .. . ... : ... .. . ... : ... .. . ...
ROW D6 : ... .. . ... ... ... ... : ... .. . ... ... ... ... : ... .. . ... : ... .. . ... : ... .. . ...
ROW D7 : ... .. . ... ... ... ... : ... .. 0 ... ... ... ... : ... .. . ... : ... .. . ... : ... .. . ...
ROW D8 : ... .. . ... ... ... P7F : ... .. . ... ... ... ... : ... .. . ... : ... .. . ... : ... .. . ...
ROW D9 : ... .. . ... ... ... ... : C#2 00 2 ... ... ... ... : ... .. . ... : 2-# 00 5 ... : ... .. . ...
ROW DA : ... .. . ... ... ... ... : ... .. 1 ... ... ... ... : ... .. . ... : ... .. 3 ... : ... .. . ...
ROW DB : ... .. . ... ... ... P80 : ... .. . ... ... ... ... : ... .. . ... : ... .. 1 ... : ... .. . ...
ROW DC : ... .. . ... ... ... ... : ... .. . ... ... ... ... : ... .. . ... : ... .. 0 ... : ... .. . ...
ROW DD : ... .. . ... ... ... ... : ... .. . ... ... ... ... : ... .. . ... : ... .. . ... : ... .. . ...
ROW DE : ... .. . ... ... ... P81 : ... .. . ... ... ... ... : --- .. . ... : ... .. . ... : ... .. . ...
ROW DF : ... .. . ... ... ... ... : ... .. . ... ... ... ... : ... .. . ... : ... .. . ... : ... .. . ...

PATTERN 2B
ROW 00 : ... .. . ... ... ... ... : C#3 00 7 V01 ... ... ... : F#1 00 . ... : 2-# 00 7 ... : ... .. . ...
ROW 01 : ... .. . ... ... ... P80 : ... .. 6 ... ... ... ... : ... .. . ... : ... .. 5 ... : ... .. . ...
ROW 02 : ... .. . ... ... ... ... : ... .. 3 ... ... ... ... : ... .. . ... : ... .. 3 ... : ... .. . ...
ROW 03 : ... .. . ... ... ... ... : ... .. 2 ... ... ... ... : ... .. . ... : ... .. 1 ... : ... .. . ...
ROW 04 : ... .. . ... ... ... P7F : ... .. . ... ... ... ... : ... .. . ... : ... .. 0 ... : ... .. . ...
ROW 05 : ... .. . ... ... ... ... : ... .. 0 ... ... ... ... : ... .. . ... : ... .. . ... : ... .. . ...
ROW 06 : ... .. . ... ... ... ... : ... .. . ... ... ... ... : ... .. . ... : ... .. . ... : ... .. . ...
ROW 07 : ... .. 4 ... ... ... P80 : F-2 00 2 ... ... ... ... : ... .. . ... : ... .. . ... : ... .. . ...
ROW 08 : ... .. . ... ... ... ... : ... .. 1 ... ... ... ... : ... .. . ... : ... .. . ... : ... .. . ...
ROW 09 : ... .. 3 ... ... ... ... : ... .. . ... ... ... ... : ... .. . ... : ... .. . ... : ... .. . ...
ROW 0A : ... .. . ... ... ... P81 : ... .. . ... ... ... ... : ... .. . ... : ... .. . ... : ... .. . ...
ROW 0B : ... .. 2 ... ... ... ... : ... .. . ... ... ... ... : ... .. . ... : ... .. . ... : ... .. . ...
ROW 0C : ... .. . ... ... ... ... : ... .. . ... ... ... ... : --- .. . ... : ... .. . ... : ... .. . ...
ROW 0D : ... .. 1 ... ... ... P80 : ... .. . ... ... ... ... : ... .. . ... : ... .. . ... : ... .. . ...
ROW 0E : F#3 00 5 V02 ... ... ... : F-3 00 7 ... ... ... ... : F#1 00 . S01 : ... .. 2 ... : ... .. . ...
ROW 0F : ... .. . ... ... ... ... : ... .. 6 ... ... ... ... : ... .. . ... : ... .. 1 ... : ... .. . ...
ROW 10 : ... .. 6 ... ... ... ... : ... .. 3 ... ... ... ... : ... .. . ... : ... .. 0 ... : ... .. . ...
ROW 11 : ... .. . ... ... ... ... : ... .. 1 ... ... ... ... : ... .. . ... : ... .. . ... : ... .. . ...
ROW 12 : ... .. . ... ... ... ... : ... .. . ... ... ... ... : ... .. . ... : ... .. . ... : ... .. . ...
ROW 13 : ... .. 5 ... ... ... ... : ... .. . ... ... ... ... : ... .. . ... : ... .. . ... : ... .. . ...
ROW 14 : ... .. 3 ... ... ... ... : ... .. . ... ... ... ... : ... .. . ... : ... .. . ... : ... .. . ...
ROW 15 : ... .. . ... ... ... P81 : G#2 00 7 ... ... ... ... : C#2 00 . ... : ... .. 5 ... : ... .. . ...
ROW 16 : ... .. . ... ... ... ... : ... .. 6 ... ... ... ... : ... .. . ... : ... .. 3 ... : ... .. . ...
ROW 17 : ... .. 2 ... ... ... ... : ... .. 3 ... ... ... ... : ... .. . ... : ... .. 1 ... : ... .. . ...
ROW 18 : ... .. . ... ... ... P80 : ... .. 2 ... ... ... ... : ... .. . ... : ... .. 0 ... : ... .. . ...
ROW 19 : ... .. 1 ... ... ... ... : ... .. . ... ... ... ... : ... .. . ... : ... .. . ... : ... .. . ...
ROW 1A : ... .. . ... ... ... ... : ... .. 0 ... ... ... ... : ... .. . ... : ... .. . ... : ... .. . ...
ROW 1B : ... .. . ... ... ... ... : ... .. . ... ... ... ... : ... .. . ... : ... .. . ... : ... .. . ...
ROW 1C : A#3 00 5 ... ... ... ... : F-3 00 2 ... ... ... ... : ... .. . ... : 7-# 00 7 ... : ... .. . ...
ROW 1D : ... .. . ... ... ... ... : ... .. 1 ... ... ... ... : ... .. . ... : ... .. 5 ... : ... .. . ...
ROW 1E : ... .. 6 ... ... ... ... : ... .. . ... ... ... ... : ... .. . ... : ... .. 3 ... : ... .. . ...
ROW 1F : ... .. . ... ... ... ... : ... .. . ... ... ... ... : ... .. . ... : ... .. 1 ... : ... .. . ...
ROW 20 : ... .. . ... ... ... ... : ... .. . ... ... ... ... : ... .. . ... : ... .. 0 ... : ... .. . ...
ROW 21 : ... .. 5 ... ... ... ... : ... .. . ... ... ... ... : --- .. . ... : ... .. . ... : ... .. . ...
ROW 22 : ... .. 3 ... ... ... ... : ... .. . ... ... ... ... : ... .. . ... : ... .. . ... : ... .. . ...
ROW 23 : ... .. . ... ... ... P81 : A#2 00 7 ... ... ... ... : C#2 00 . S01 : ... .. . ... : ... .. . ...
ROW 24 : ... .. . ... ... ... ... : ... .. 6 ... ... ... ... : ... .. . ... : ... .. . ... : ... .. . ...
ROW 25 : ... .. 2 ... ... ... ... : ... .. 3 ... ... ... ... : ... .. . ... : ... .. . ... : ... .. . ...
ROW 26 : ... .. . ... ... ... P80 : ... .. 2 ... ... ... ... : ... .. . ... : ... .. . ... : ... .. . ...
ROW 27 : F#3 00 1 ... ... ... ... : ... .. . ... ... ... ... : ... .. . ... : ... .. . ... : ... .. . ...
ROW 28 : ... .. . ... ... ... ... : ... .. 0 ... ... ... ... : ... .. . ... : ... .. . ... : ... .. . ...
ROW 29 : ... .. . ... ... ... ... : ... .. . ... ... ... ... : ... .. . ... : ... .. . ... : ... .. . ...
ROW 2A : C#4 00 5 ... ... ... ... : G#2 00 2 ... ... ... ... : F#2 00 . ... : ... .. 2 ... : ... .. . ...
ROW 2B : ... .. . ... ... ... ... : ... .. 1 ... ... ... ... : ... .. . ... : ... .. 1 ... : ... .. . ...
ROW 2C : ... .. 6 ... ... ... ... : ... .. . ... ... ... ... : ... .. . ... : ... .. 0 ... : ... .. . ...
ROW 2D : ... .. . ... ... ... ... : ... .. 0 ... ... ... ... : ... .. . ... : ... .. . ... : ... .. . ...
ROW 2E : ... .. . ... ... ... ... : ... .. . ... ... ... ... : ... .. . ... : ... .. . ... : ... .. . ...
ROW 2F : ... .. 5 ... ... ... ... : ... .. . ... ... ... ... : ... .. . ... : ... .. . ... : ... .. . ...
ROW 30 : ... .. 3 ... ... ... ... : ... .. . ... ... ... ... : ... .. . ... : ... .. . ... : ... .. . ...
ROW 31 : ... .. . ... ... ... P81 : C-3 00 7 ... ... ... ... : ... .. . ... : 2-# 00 5 ... : ... .. . ...
ROW 32 : ... .. . ... ... ... ... : ... .. 6 ... ... ... ... : ... .. . ... : ... .. 3 ... : ... .. . ...
ROW 33 : ... .. 2 ... ... ... ... : ... .. 3 ... ... ... ... : ... .. . ... : ... .. 1 ... : ... .. . ...
ROW 34 : ... .. . ... ... ... P80 : ... .. 2 ... ... ... ... : ... .. . ... : ... .. 0 ... : ... .. . ...
ROW 35 : A#3 00 1 ... ... ... ... : ... .. . ... ... ... ... : ... .. . ... : ... .. . ... : ... .. . ...
ROW 36 : ... .. . ... ... ... ... : ... .. 0 ... ... ... ... : --- .. . ... : ... .. . ... : ... .. . ...
ROW 37 : ... .. . ... ... ... ... : ... .. . ... ... ... ... : ... .. . ... : ... .. . ... : ... .. . ...
ROW 38 : C-4 00 5 ... ... ... ... : G#2 00 2 ... ... ... ... : G#1 00 . ... : 2-# 00 5 ... : ... .. . ...
ROW 39 : ... .. . ... ... ... ... : ... .. 1 ... ... ... ... : ... .. . ... : ... .. 3 ... : ... .. . ...
ROW 3A : ... .. 6 ... ... ... ... : ... .. . ... ... ... ... : ... .. . ... : ... .. 1 ... : ... .. . ...
ROW 3B : ... .. . ... ... ... ... : ... .. . ... ... ... ... : ... .. . ... : ... .. 0 ... : ... .. . ...
ROW 3C : ... .. . ... ... ... ... : ... .. . ... ... ... ... : ... .. . ... : ... .. . ... : ... .. . ...
ROW 3D : ... .. 5 ... ... ... ... : ... .. . ... ... ... ... : ... .. . ... : ... .. . ... : ... .. . ...
ROW 3E : ... .. 3 ... ... ... ... : ... .. . ... ... ... ... : ... .. . ... : ... .. . ... : ... .. . ...
ROW 3F : ... .. . ... ... ... P81 : D#3 00 7 ... ... ... ... : ... .. . ... : ... .. . ... : ... .. . ...
ROW 40 : ... .. . ... ... ... ... : ... .. 6 ... ... ... ... : ... .. . ... : ... .. . ... : ... .. . ...
ROW 41 : ... .. 2 ... ... ... ... : ... .. 3 ... ... ... ... : ... .. . ... : ... .. . ... : ... .. . ...
ROW 42 : ... .. . ... ... ... P80 : ... .. 2 ... ... ... ... : ... .. . ... : ... .. . ... : ... .. . ...
ROW 43 : ... .. 1 ... ... ... ... : ... .. . ... ... ... ... : ... .. . ... : ... .. . ... : ... .. . ...
ROW 44 : D#4 00 . ... ... ... ... : ... .. . ... ... ... ... : --- .. . ... : ... .. . ... : ... .. . ...
ROW 45 : ... .. . ... ... ... ... : ... .. . ... ... ... ... : ... .. . ... : ... .. . ... : ... .. . ...
ROW 46 : G#3 00 5 ... ... ... ... : D#2 00 7 ... ... ... ... : G#1 00 . S01 : ... .. 2 ... : ... .. . ...
ROW 47 : ... .. . ... ... ... ... : ... .. 6 ... ... ... ... : ... .. . ... : ... .. 1 ... : ... .. . ...
ROW 48 : ... .. 6 ... ... ... ... : ... .. 3 ... ... ... ... : ... .. . ... : ... .. 0 ... : ... .. . ...
ROW 49 : ... .. . ... ... ... ... : ... .. 2 ... ... ... ... : ... .. . ... : ... .. . ... : ... .. . ...
ROW 4A : ... .. . ... ... ... ... : ... .. . ... ... ... ... : ... .. . ... : ... .. . ... : ... .. . ...
ROW 4B : ... .. 5 ... ... ... ... : ... .. 0 ... ... ... ... : ... .. . ... : ... .. . ... : ... .. . ...
ROW 4C : ... .. 3 ... ... ... ... : ... .. . ... ... ... ... : ... .. . ... : ... .. . ... : ... .. . ...
ROW 4D : ... .. . ... ... ... P81 : D#3 00 2 ... ... ... ... : D#2 00 . ... : ... .. 5 ... : ... .. . ...
ROW 4E : ... .. . ... ... ... ... : ... .. 1 ... ... ... ... : ... .. . ... : ... .. 3 ... : ... .. . ...
ROW 4F : ... .. 2 ... ... ... ... : ... .. . ... ... ... ... : ... .. . ... : ... .. 1 ... : ... .. . ...
ROW 50 : ... .. . ... ... ... P80 : ... .. . ... ... ... ... : ... .. . ... : ... .. 0 ... : ... .. . ...
ROW 51 : C-4 00 1 ... ... ... ... : ... .. . ... ... ... ... : ... .. . ... : ... .. . ... : ... .. . ...
ROW 52 : ... .. . ... ... ... ... : ... .. . ... ... ... ... : ... .. . ... : ... .. . ... : ... .. . ...
ROW 53 : ... .. . ... ... ... ... : ... .. . ... ... ... ... : ... .. . ... : ... .. . ... : ... .. . ...
ROW 54 : C-4 00 5 ... ... ... ... : A#2 00 7 ... ... ... ... : ... .. . ... : 6-# 00 7 ... : ... .. . ...
ROW 55 : ... .. . ... ... ... ... : ... .. 6 ... ... ... ... : ... .. . ... : ... .. 5 ... : ... .. . ...
ROW 56 : ... .. 6 ... ... ... ... : ... .. 3 ... ... ... ... : ... .. . ... : ... .. 3 ... : ... .. . ...
ROW 57 : ... .. . ... ... ... ... : ... .. 2 ... ... ... ... : ... .. . ... : ... .. 1 ... : ... .. . ...
ROW 58 : ... .. . ... ... ... ... : ... .. . ... ... ... ... : ... .. . ... : ... .. 0 ... : ... .. . ...
ROW 59 : ... .. 5 ... ... ... ... : ... .. 0 ... ... ... ... : --- .. . ... : ... .. . ... : ... .. . ...
ROW 5A : ... .. 3 ... ... ... ... : ... .. . ... ... ... ... : ... .. . ... : ... .. . ... : ... .. . ...
ROW 5B : ... .. . ... ... ... P81 : D#2 00 2 ... ... ... ... : D#2 00 . S01 : ... .. . ... : ... .. . ...
ROW 5C : ... .. . ... ... ... ... : ... .. 1 ... ... ... ... : ... .. . ... : ... .. . ... : ... .. . ...
ROW 5D : ... .. 2 ... ... ... ... : ... .. . ... ... ... ... : ... .. . ... : ... .. . ... : ... .. . ...
ROW 5E : ... .. . ... ... ... P80 : ... .. . ... ... ... ... : ... .. . ... : ... .. . ... : ... .. . ...
ROW 5F : G#3 00 1 ... ... ... ... : ... .. . ... ... ... ... : ... .. . ... : ... .. . ... : ... .. . ...
ROW 60 : ... .. . ... ... ... ... : ... .. . ... ... ... ... : ... .. . ... : ... .. . ... : ... .. . ...
ROW 61 : ... .. . ... ... ... ... : ... .. . ... ... ... ... : ... .. . ... : ... .. . ... : ... .. . ...
ROW 62 : G-4 00 5 ... ... ... ... : C-3 00 7 ... ... ... ... : G#2 00 . ... : ... .. 2 ... : ... .. . ...
ROW 63 : ... .. . ... ... ... ... : ... .. 6 ... ... ... ... : ... .. . ... : ... .. 1 ... : ... .. . ...
ROW 64 : ... .. 6 ... ... ... ... : ... .. 3 ... ... ... ... : ... .. . ... : ... .. 0 ... : ... .. . ...
ROW 65 : ... .. . ... ... ... ... : ... .. 2 ... ... ... ... : ... .. . ... : ... .. . ... : ... .. . ...
ROW 66 : ... .. . ... ... ... ... : ... .. . ... ... ... ... : ... .. . ... : ... .. . ... : ... .. . ...
ROW 67 : ... .. 5 ... ... ... ... : ... .. 0 ... ... ... ... : ... .. . ... : ... .. . ... : ... .. . ...
ROW 68 : ... .. 3 ... ... ... ... : ... .. . ... ... ... ... : ... .. . ... : ... .. . ... : ... .. . ...
ROW 69 : ... .. . ... ... ... P81 : A#2 00 2 ... ... ... ... : ... .. . ... : 2-# 00 5 ... : ... .. . ...
ROW 6A : ... .. . ... ... ... ... : ... .. 1 ... ... ... ... : ... .. . ... : ... .. 3 ... : ... .. . ...
ROW 6B : ... .. 2 ... ... ... ... : ... .. . ... ... ... ... : ... .. . ... : ... .. 1 ... : ... .. . ...
ROW 6C : ... .. . ... ... ... P80 : ... .. . ... ... ... ... : ... .. . ... : ... .. 0 ... : ... .. . ...
ROW 6D : C-4 00 1 ... ... ... ... : ... .. . ... ... ... ... : ... .. . ... : ... .. . ... : ... .. . ...
ROW 6E : ... .. . ... ... ... ... : ... .. . ... ... ... ... : --- .. . ... : ... .. . ... : ... .. . ...
ROW 6F : ... .. . ... ... ... ... : ... .. . ... ... ... ... : ... .. . ... : ... .. . ... : ... .. . ...
ROW 70 : F-4 00 5 ... ... ... ... : A#2 00 7 V01 ... ... ... : A#1 00 . ... : 2-# 00 7 ... : ... .. . ...
ROW 71 : ... .. . ... ... ... ... : ... .. 6 ... ... ... ... : ... .. . ... : ... .. 5 ... : ... .. . ...
ROW 72 : ... .. . ... ... ... ... : ... .. 3 ... ... ... ... : ... .. . ... : ... .. 3 ... : ... .. . ...
ROW 73 : ... .. 6 ... ... ... ... : ... .. 2 ... ... ... ... : ... .. . ... : ... .. 1 ... : ... .. . ...
ROW 74 : G-4 00 5 ... ... ... ... : ... .. . ... ... ... ... : ... .. . ... : ... .. 0 ... : ... .. . ...
ROW 75 : ... .. . ... ... ... ... : ... .. 0 ... ... ... ... : ... .. . ... : ... .. . ... : ... .. . ...
ROW 76 : ... .. . ... ... ... ... : ... .. . ... ... ... ... : ... .. . ... : ... .. . ... : ... .. . ...
ROW 77 : F-4 00 5 ... ... ... ... : C-3 00 2 ... ... ... ... : ... .. . ... : ... .. . ... : ... .. . ...
ROW 78 : ... .. . ... ... ... ... : ... .. 1 ... ... ... ... : ... .. . ... : ... .. . ... : ... .. . ...
ROW 79 : ... .. 6 ... ... ... ... : ... .. . ... ... ... ... : ... .. . ... : ... .. . ... : ... .. . ...
ROW 7A : ... .. . ... ... ... ... : ... .. . ... ... ... ... : ... .. . ... : ... .. . ... : ... .. . ...
ROW 7B : ... .. . ... ... ... ... : ... .. . ... ... ... ... : ... .. . ... : ... .. . ... : ... .. . ...
ROW 7C : ... .. 5 ... ... ... ... : ... .. . ... ... ... ... : --- .. . ... : ... .. . ... : ... .. . ...
ROW 7D : ... .. . ... ... ... ... : ... .. . ... ... ... ... : ... .. . ... : ... .. . ... : ... .. . ...
ROW 7E : ... .. . ... ... ... ... : D-3 00 7 ... ... ... ... : A#1 00 . S01 : ... .. 2 ... : ... .. . ...
ROW 7F : ... .. . ... ... ... ... : ... .. 6 ... ... ... ... : ... .. . ... : ... .. 1 ... : ... .. . ...
ROW 80 : ... .. . ... ... ... ... : ... .. 3 ... ... ... ... : ... .. . ... : ... .. 0 ... : ... .. . ...
ROW 81 : ... .. . ... ... ... ... : ... .. 1 ... ... ... ... : ... .. . ... : ... .. . ... : ... .. . ...
ROW 82 : ... .. . ... ... ... ... : ... .. . ... ... ... ... : ... .. . ... : ... .. . ... : ... .. . ...
ROW 83 : ... .. . ... ... ... ... : ... .. . ... ... ... ... : ... .. . ... : ... .. . ... : ... .. . ...
ROW 84 : ... .. . ... ... ... ... : ... .. . ... ... ... ... : ... .. . ... : ... .. . ... : ... .. . ...
ROW 85 : ... .. . ... ... ... ... : F-2 00 7 ... ... ... ... : F-2 00 . ... : ... .. 5 ... : ... .. . ...
ROW 86 : ... .. . ... ... ... ... : ... .. 6 ... ... ... ... : ... .. . ... : ... .. 3 ... : ... .. . ...
ROW 87 : ... .. . ... ... ... ... : ... .. 3 ... ... ... ... : ... .. . ... : ... .. 1 ... : ... .. . ...
ROW 88 : ... .. . ... ... ... ... : ... .. 2 ... ... ... ... : ... .. . ... : ... .. 0 ... : ... .. . ...
ROW 89 : ... .. . ... ... ... ... : ... .. . ... ... ... ... : ... .. . ... : ... .. . ... : ... .. . ...
ROW 8A : ... .. . ... ... ... ... : ... .. 0 ... ... ... ... : ... .. . ... : ... .. . ... : ... .. . ...
ROW 8B : ... .. . ... ... ... ... : ... .. . ... ... ... ... : ... .. . ... : ... .. . ... : ... .. . ...
ROW 8C : ... .. . ... ... ... ... : D-3 00 2 ... ... ... ... : ... .. . ... : 7-# 00 7 ... : ... .. . ...
ROW 8D : ... .. . ... ... ... ... : ... .. 1 ... ... ... ... : ... .. . ... : ... .. 5 ... : ... .. . ...
ROW 8E : ... .. . ... ... ... ... : ... .. . ... ... ... ... : ... .. . ... : ... .. 3 ... : ... .. . ...
ROW 8F : ... .. . ... ... ... ... : ... .. . ... ... ... ... : ... .. . ... : ... .. 1 ... : ... .. . ...
ROW 90 : ... .. . ... ... ... ... : ... .. . ... ... ... ... : ... .. . ... : ... .. 0 ... : ... .. . ...
ROW 91 : ... .. . ... ... ... ... : ... .. . ... ... ... ... : --- .. . ... : ... .. . ... : ... .. . ...
ROW 92 : ... .. . ... ... ... ... : ... .. . ... ... ... ... : ... .. . ... : ... .. . ... : ... .. . ...
ROW 93 : ... .. . ... ... ... ... : G#2 00 7 ... ... ... ... : F-2 00 . S01 : ... .. . ... : ... .. . ...
ROW 94 : ... .. . ... ... ... ... : ... .. 6 ... ... ... ... : ... .. . ... : ... .. . ... : ... .. . ...
ROW 95 : ... .. . ... ... ... ... : ... .. 3 ... ... ... ... : ... .. . ... : ... .. . ... : ... .. . ...
ROW 96 : ... .. . ... ... ... ... : ... .. 2 ... ... ... ... : ... .. . ... : ... .. . ... : ... .. . ...
ROW 97 : ... .. . ... ... ... ... : ... .. . ... ... ... ... : ... .. . ... : ... .. . ... : ... .. . ...
ROW 98 : ... .. . ... ... ... ... : ... .. 0 ... ... ... ... : ... .. . ... : ... .. . ... : ... .. . ...
ROW 99 : ... .. . ... ... ... ... : ... .. . ... ... ... ... : ... .. . ... : ... .. . ... : ... .. . ...
ROW 9A : ... .. . ... ... ... ... : C#3 00 2 ... ... ... ... : A#2 00 . ... : ... .. 2 ... : ... .. . ...
ROW 9B : ... .. . ... ... ... ... : ... .. 1 ... ... ... ... : ... .. . ... : ... .. 1 ... : ... .. . ...
ROW 9C : ... .. . ... ... ... ... : ... .. . ... ... ... ... : ... .. . ... : ... .. 0 ... : ... .. . ...
ROW 9D : ... .. . ... ... ... ... : ... .. 0 ... ... ... ... : ... .. . ... : ... .. . ... : ... .. . ...
ROW 9E : ... .. . ... ... ... ... : ... .. . ... ... ... ... : ... .. . ... : ... .. . ... : ... .. . ...
ROW 9F : ... .. . ... ... ... ... : ... .. . ... ... ... ... : ... .. . ... : ... .. . ... : ... .. . ...
ROW A0 : ... .. . ... ... ... ... : ... .. . ... ... ... ... : ... .. . ... : ... .. . ... : ... .. . ...
ROW A1 : ... .. . ... ... ... ... : A#2 00 7 ... ... ... ... : ... .. . ... : 2-# 00 5 ... : ... .. . ...
ROW A2 : ... .. . ... ... ... ... : ... .. 6 ... ... ... ... : ... .. . ... : ... .. 3 ... : ... .. . ...
ROW A3 : ... .. . ... ... ... ... : ... .. 3 ... ... ... ... : ... .. . ... : ... .. 1 ... : ... .. . ...
ROW A4 : ... .. . ... ... ... ... : ... .. 2 ... ... ... ... : ... .. . ... : ... .. 0 ... : ... .. . ...
ROW A5 : ... .. . ... ... ... ... : ... .. . ... ... ... ... : ... .. . ... : ... .. . ... : ... .. . ...
ROW A6 : ... .. . ... ... ... ... : ... .. 0 ... ... ... ... : --- .. . ... : ... .. . ... : ... .. . ...
ROW A7 : ... .. . ... ... ... ... : ... .. . ... ... ... ... : ... .. . ... : ... .. . ... : ... .. . ...
ROW A8 : ... .. . ... ... ... P7F : G#2 00 2 ... ... ... ... : A#1 00 . ... : 2-# 00 5 ... : ... .. . ...
ROW A9 : ... .. . ... ... ... P7E : ... .. 1 ... ... ... ... : ... .. . ... : ... .. 3 ... : ... .. . ...
ROW AA : ... .. . ... ... ... P7D : ... .. . ... ... ... ... : ... .. . ... : ... .. 1 ... : ... .. . ...
ROW AB : ... .. . ... ... ... P7E : ... .. . ... ... ... ... : ... .. . ... : ... .. 0 ... : ... .. . ...
ROW AC : ... .. . ... ... ... P7F : ... .. . ... ... ... ... : ... .. . ... : ... .. . ... : ... .. . ...
ROW AD : ... .. . ... ... ... P80 : ... .. . ... ... ... ... : ... .. . ... : ... .. . ... : ... .. . ...
ROW AE : ... .. . ... ... ... P81 : ... .. . ... ... ... ... : ... .. . ... : ... .. . ... : ... .. . ...
ROW AF : ... .. . ... ... ... P82 : D-3 00 7 ... ... ... ... : ... .. . ... : ... .. . ... : ... .. . ...
ROW B0 : ... .. . ... ... ... P83 : ... .. 6 ... ... ... ... : ... .. . ... : ... .. . ... : ... .. . ...
ROW B1 : ... .. . ... ... ... P82 : ... .. 3 ... ... ... ... : ... .. . ... : ... .. . ... : ... .. . ...
ROW B2 : ... .. . ... ... ... P81 : ... .. 2 ... ... ... ... : ... .. . ... : ... .. . ... : ... .. . ...
ROW B3 : ... .. . ... ... ... P80 : ... .. . ... ... ... ... : ... .. . ... : ... .. . ... : ... .. . ...
ROW B4 : ... .. . ... ... ... P7F : ... .. . ... ... ... ... : --- .. . ... : ... .. . ... : ... .. . ...
ROW B5 : ... .. . ... ... ... P7E : ... .. . ... ... ... ... : ... .. . ... : ... .. . ... : ... .. . ...
ROW B6 : ... .. . ... ... ... P7D : F-2 00 7 ... ... ... ... : A#1 00 . S01 : ... .. 2 ... : ... .. . ...
ROW B7 : ... .. . ... ... ... P7E : ... .. 6 ... ... ... ... : ... .. . ... : ... .. 1 ... : ... .. . ...
ROW B8 : ... .. . ... ... ... P7F : ... .. 3 ... ... ... ... : ... .. . ... : ... .. 0 ... : ... .. . ...
ROW B9 : ... .. . ... ... ... P80 : ... .. 2 ... ... ... ... : ... .. . ... : ... .. . ... : ... .. . ...
ROW BA : ... .. . ... ... ... P81 : ... .. . ... ... ... ... : ... .. . ... : ... .. . ... : ... .. . ...
ROW BB : ... .. . ... ... ... P82 : ... .. 0 ... ... ... ... : ... .. . ... : ... .. . ... : ... .. . ...
ROW BC : ... .. . ... ... ... P83 : ... .. . ... ... ... ... : ... .. . ... : ... .. . ... : ... .. . ...
ROW BD : ... .. . ... ... ... P82 : D-3 00 2 ... ... ... ... : F-2 00 . ... : ... .. 5 ... : ... .. . ...
ROW BE : ... .. . ... ... ... P81 : ... .. 1 ... ... ... ... : ... .. . ... : ... .. 3 ... : ... .. . ...
ROW BF : ... .. . ... ... ... P80 : ... .. . ... ... ... ... : ... .. . ... : ... .. 1 ... : ... .. . ...
ROW C0 : ... .. . ... ... ... P7F : ... .. . ... ... ... ... : ... .. . ... : ... .. 0 ... : ... .. . ...
ROW C1 : ... .. . ... ... ... P7E : ... .. . ... ... ... ... : ... .. . ... : ... .. . ... : ... .. . ...
ROW C2 : ... .. . ... ... ... P7D : ... .. . ... ... ... ... : ... .. . ... : ... .. . ... : ... .. . ...
ROW C3 : ... .. . ... ... ... P7E : ... .. . ... ... ... ... : ... .. . ... : ... .. . ... : ... .. . ...
ROW C4 : ... .. . ... ... ... P7F : G#2 00 7 ... ... ... ... : ... .. . ... : 6-# 00 7 ... : ... .. . ...
ROW C5 : ... .. . ... ... ... P80 : ... .. 6 ... ... ... ... : ... .. . ... : ... .. 5 ... : ... .. . ...
ROW C6 : ... .. . ... ... ... P81 : ... .. 3 ... ... ... ... : ... .. . ... : ... .. 3 ... : ... .. . ...
ROW C7 : ... .. . ... ... ... P82 : ... .. 2 ... ... ... ... : ... .. . ... : ... .. 1 ... : ... .. . ...
ROW C8 : ... .. . ... ... ... P83 : ... .. . ... ... ... ... : ... .. . ... : ... .. 0 ... : ... .. . ...
ROW C9 : ... .. . ... ... ... P82 : ... .. 0 ... ... ... ... : --- .. . ... : ... .. . ... : ... .. . ...
ROW CA : ... .. . ... ... ... P81 : ... .. . ... ... ... ... : ... .. . ... : ... .. . ... : ... .. . ...
ROW CB : ... .. 4 ... ... ... P80 : F-2 00 2 ... ... ... ... : F-2 00 . S01 : ... .. . ... : ... .. . ...
ROW CC : ... .. . ... ... ... P7F : ... .. 1 ... ... ... ... : ... .. . ... : ... .. . ... : ... .. . ...
ROW CD : ... .. 3 ... ... ... P7E : ... .. . ... ... ... ... : ... .. . ... : ... .. . ... : ... .. . ...
ROW CE : ... .. . ... ... ... P7D : ... .. . ... ... ... ... : ... .. . ... : ... .. . ... : ... .. . ...
ROW CF : ... .. 2 ... ... ... P7E : ... .. . ... ... ... ... : ... .. . ... : ... .. . ... : ... .. . ...
ROW D0 : ... .. . ... ... ... P7F : ... .. . ... ... ... ... : ... .. . ... : ... .. . ... : ... .. . ...
ROW D1 : ... .. 1 ... ... ... P80 : ... .. . ... ... ... ... : ... .. . ... : ... .. . ... : ... .. . ...
ROW D2 : F-4 00 5 ... ... ... ... : A#2 00 7 ... ... ... ... : A#2 00 . ... : ... .. 2 ... : ... .. . ...
ROW D3 : ... .. . ... ... ... ... : ... .. 6 ... ... ... ... : ... .. . ... : ... .. 1 ... : ... .. . ...
ROW D4 : ... .. 6 ... ... ... ... : ... .. 3 ... ... ... ... : ... .. . ... : ... .. 0 ... : ... .. . ...
ROW D5 : ... .. . ... ... ... ... : ... .. 2 ... ... ... ... : ... .. . ... : ... .. . ... : ... .. . ...
ROW D6 : ... .. . ... ... ... ... : ... .. . ... ... ... ... : ... .. . ... : ... .. . ... : ... .. . ...
ROW D7 : ... .. 5 ... ... ... ... : ... .. 0 ... ... ... ... : ... .. . ... : ... .. . ... : ... .. . ...
ROW D8 : ... .. 3 ... ... ... ... : ... .. . ... ... ... ... : ... .. . ... : ... .. . ... : ... .. . ...
ROW D9 : G-4 00 5 ... ... ... ... : G#2 00 2 ... ... ... ... : ... .. . ... : 2-# 00 5 ... : ... .. . ...
ROW DA : ... .. . ... ... ... ... : ... .. 1 ... ... ... ... : ... .. . ... : ... .. 3 ... : ... .. . ...
ROW DB : ... .. 6 ... ... ... ... : ... .. . ... ... ... ... : ... .. . ... : ... .. 1 ... : ... .. . ...
ROW DC : ... .. . ... ... ... ... : ... .. . ... ... ... ... : ... .. . ... : ... .. 0 ... : ... .. . ...
ROW DD : ... .. . ... ... ... ... : ... .. . ... ... ... ... : ... .. . ... : ... .. . ... : ... .. . ...
ROW DE : F-4 00 2 ... ... ... ... : ... .. . ... ... ... ... : --- .. . ... : ... .. . ... : ... .. . ...
ROW DF : ... .. . ... ... ... ... : ... .. . ... ... ... ... : ... .. . ... : ... .. . ... : ... .. . ...

PATTERN 2C
ROW 00 : G#4 00 5 V02 ... ... ... : F-3 00 7 V01 ... ... ... : C#3 00 . ... : 2-# 00 7 ... : ... .. . ...
ROW 01 : ... .. . ... ... ... ... : ... .. 6 ... ... ... ... : ... .. . ... : ... .. 5 ... : ... .. . ...
ROW 02 : ... .. 6 ... ... ... ... : ... .. 3 ... ... ... ... : ... .. . ... : ... .. 3 ... : ... .. . ...
ROW 03 : ... .. . ... ... ... ... : ... .. 2 ... ... ... ... : ... .. . ... : ... .. 1 ... : ... .. . ...
ROW 04 : ... .. . ... ... ... ... : ... .. . ... ... ... ... : ... .. . ... : ... .. 0 ... : ... .. . ...
ROW 05 : ... .. 5 ... ... ... ... : ... .. 0 ... ... ... ... : ... .. . ... : ... .. . ... : ... .. . ...
ROW 06 : ... .. 3 ... ... ... ... : ... .. . ... ... ... ... : ... .. . ... : ... .. . ... : ... .. . ...
ROW 07 : ... .. . ... ... ... P81 : A#3 00 2 ... ... ... ... : ... .. . ... : ... .. . ... : ... .. . ...
ROW 08 : ... .. . ... ... ... ... : ... .. 1 ... ... ... ... : ... .. . ... : ... .. . ... : ... .. . ...
ROW 09 : ... .. 2 ... ... ... ... : ... .. . ... ... ... ... : ... .. . ... : ... .. . ... : ... .. . ...
ROW 0A : ... .. . ... ... ... P80 : ... .. . ... ... ... ... : ... .. . ... : ... .. . ... : ... .. . ...
ROW 0B : G-4 00 1 ... ... ... ... : ... .. . ... ... ... ... : ... .. . ... : ... .. . ... : ... .. . ...
ROW 0C : ... .. . ... ... ... ... : ... .. . ... ... ... ... : --- .. . ... : ... .. . ... : ... .. . ...
ROW 0D : ... .. . ... ... ... ... : ... .. . ... ... ... ... : ... .. . ... : ... .. . ... : ... .. . ...
ROW 0E : F-4 00 5 ... ... ... ... : G#3 00 7 ... ... ... ... : C#3 00 . S01 : ... .. 2 ... : ... .. . ...
ROW 0F : ... .. . ... ... ... ... : ... .. 6 ... ... ... ... : ... .. . ... : ... .. 1 ... : ... .. . ...
ROW 10 : ... .. 6 ... ... ... ... : ... .. 3 ... ... ... ... : ... .. . ... : ... .. 0 ... : ... .. . ...
ROW 11 : ... .. . ... ... ... ... : ... .. 1 ... ... ... ... : ... .. . ... : ... .. . ... : ... .. . ...
ROW 12 : ... .. . ... ... ... ... : ... .. . ... ... ... ... : ... .. . ... : ... .. . ... : ... .. . ...
ROW 13 : ... .. 5 ... ... ... ... : ... .. . ... ... ... ... : ... .. . ... : ... .. . ... : ... .. . ...
ROW 14 : ... .. 3 ... ... ... ... : ... .. . ... ... ... ... : ... .. . ... : ... .. . ... : ... .. . ...
ROW 15 : ... .. . ... ... ... P81 : G-3 00 7 ... ... ... ... : D#3 00 . ... : ... .. 5 ... : ... .. . ...
ROW 16 : ... .. . ... ... ... ... : ... .. 6 ... ... ... ... : ... .. . ... : ... .. 3 ... : ... .. . ...
ROW 17 : ... .. 2 ... ... ... ... : ... .. 3 ... ... ... ... : ... .. . ... : ... .. 1 ... : ... .. . ...
ROW 18 : ... .. . ... ... ... P80 : ... .. 2 ... ... ... ... : ... .. . ... : ... .. 0 ... : ... .. . ...
ROW 19 : G#4 00 1 ... ... ... ... : ... .. . ... ... ... ... : ... .. . ... : ... .. . ... : ... .. . ...
ROW 1A : ... .. . ... ... ... ... : ... .. 0 ... ... ... ... : ... .. . ... : ... .. . ... : ... .. . ...
ROW 1B : ... .. . ... ... ... ... : ... .. . ... ... ... ... : ... .. . ... : ... .. . ... : ... .. . ...
ROW 1C : G-4 00 5 ... ... ... ... : G#3 00 2 ... ... ... ... : ... .. . ... : 7-# 00 7 ... : ... .. . ...
ROW 1D : ... .. . ... ... ... ... : ... .. 1 ... ... ... ... : ... .. . ... : ... .. 5 ... : ... .. . ...
ROW 1E : ... .. 6 ... ... ... ... : ... .. . ... ... ... ... : ... .. . ... : ... .. 3 ... : ... .. . ...
ROW 1F : ... .. . ... ... ... ... : ... .. . ... ... ... ... : ... .. . ... : ... .. 1 ... : ... .. . ...
ROW 20 : ... .. . ... ... ... ... : ... .. . ... ... ... ... : ... .. . ... : ... .. 0 ... : ... .. . ...
ROW 21 : ... .. 5 ... ... ... ... : ... .. . ... ... ... ... : --- .. . ... : ... .. . ... : ... .. . ...
ROW 22 : ... .. 3 ... ... ... ... : ... .. . ... ... ... ... : ... .. . ... : ... .. . ... : ... .. . ...
ROW 23 : ... .. . ... ... ... P81 : A#3 00 7 ... ... ... ... : D#3 00 . S01 : ... .. . ... : ... .. . ...
ROW 24 : ... .. . ... ... ... ... : ... .. 6 ... ... ... ... : ... .. . ... : ... .. . ... : ... .. . ...
ROW 25 : ... .. 2 ... ... ... ... : ... .. 3 ... ... ... ... : ... .. . ... : ... .. . ... : ... .. . ...
ROW 26 : ... .. . ... ... ... P80 : ... .. 2 ... ... ... ... : ... .. . ... : ... .. . ... : ... .. . ...
ROW 27 : F-4 00 1 ... ... ... ... : ... .. . ... ... ... ... : ... .. . ... : ... .. . ... : ... .. . ...
ROW 28 : ... .. . ... ... ... ... : ... .. 0 ... ... ... ... : ... .. . ... : ... .. . ... : ... .. . ...
ROW 29 : ... .. . ... ... ... ... : ... .. . ... ... ... ... : ... .. . ... : ... .. . ... : ... .. . ...
ROW 2A : A#4 00 5 ... ... ... ... : A#3 00 2 ... ... ... ... : D#2 00 . ... : ... .. 2 ... : ... .. . ...
ROW 2B : ... .. . ... ... ... ... : ... .. 1 ... ... ... ... : ... .. . ... : ... .. 1 ... : ... .. . ...
ROW 2C : ... .. 6 ... ... ... ... : ... .. . ... ... ... ... : ... .. . ... : ... .. 0 ... : ... .. . ...
ROW 2D : ... .. . ... ... ... ... : ... .. 0 ... ... ... ... : ... .. . ... : ... .. . ... : ... .. . ...
ROW 2E : ... .. . ... ... ... ... : ... .. . ... ... ... ... : ... .. . ... : ... .. . ... : ... .. . ...
ROW 2F : ... .. 5 ... ... ... ... : ... .. . ... ... ... ... : ... .. . ... : ... .. . ... : ... .. . ...
ROW 30 : ... .. 3 ... ... ... ... : ... .. . ... ... ... ... : ... .. . ... : ... .. . ... : ... .. . ...
ROW 31 : ... .. . ... ... ... P81 : C-3 00 7 ... ... ... ... : ... .. . ... : 2-# 00 5 ... : ... .. . ...
ROW 32 : ... .. . ... ... ... ... : ... .. 6 ... ... ... ... : ... .. . ... : ... .. 3 ... : ... .. . ...
ROW 33 : ... .. 2 ... ... ... ... : ... .. 3 ... ... ... ... : ... .. . ... : ... .. 1 ... : ... .. . ...
ROW 34 : ... .. . ... ... ... P80 : ... .. 2 ... ... ... ... : ... .. . ... : ... .. 0 ... : ... .. . ...
ROW 35 : G-4 00 1 ... ... ... ... : ... .. . ... ... ... ... : ... .. . ... : ... .. . ... : ... .. . ...
ROW 36 : ... .. . ... ... ... ... : ... .. 0 ... ... ... ... : --- .. . ... : ... .. . ... : ... .. . ...
ROW 37 : ... .. . ... ... ... ... : ... .. . ... ... ... ... : ... .. . ... : ... .. . ... : ... .. . ...
ROW 38 : D#4 00 5 ... ... ... ... : G#3 00 2 ... ... ... ... : G#2 00 . ... : 2-# 00 5 ... : ... .. . ...
ROW 39 : ... .. . ... ... ... ... : ... .. 1 ... ... ... ... : ... .. . ... : ... .. 3 ... : ... .. . ...
ROW 3A : ... .. 6 ... ... ... ... : ... .. . ... ... ... ... : ... .. . ... : ... .. 1 ... : ... .. . ...
ROW 3B : ... .. . ... ... ... ... : ... .. . ... ... ... ... : ... .. . ... : ... .. 0 ... : ... .. . ...
ROW 3C : ... .. . ... ... ... ... : ... .. . ... ... ... ... : ... .. . ... : ... .. . ... : ... .. . ...
ROW 3D : ... .. 5 ... ... ... ... : ... .. . ... ... ... ... : ... .. . ... : ... .. . ... : ... .. . ...
ROW 3E : ... .. . ... ... ... ... : ... .. . ... ... ... ... : ... .. . ... : ... .. . ... : ... .. . ...
ROW 3F : ... .. . ... ... ... ... : C-3 00 7 ... ... ... ... : ... .. . ... : ... .. . ... : ... .. . ...
ROW 40 : ... .. . ... ... ... ... : ... .. 6 ... ... ... ... : ... .. . ... : ... .. . ... : ... .. . ...
ROW 41 : ... .. . ... ... ... ... : ... .. 3 ... ... ... ... : ... .. . ... : ... .. . ... : ... .. . ...
ROW 42 : ... .. . ... ... ... ... : ... .. 2 ... ... ... ... : ... .. . ... : ... .. . ... : ... .. . ...
ROW 43 : ... .. . ... ... ... ... : ... .. . ... ... ... ... : ... .. . ... : ... .. . ... : ... .. . ...
ROW 44 : ... .. . ... ... ... ... : ... .. . ... ... ... ... : ... .. . ... : ... .. . ... : ... .. . ...
ROW 45 : ... .. . ... ... ... ... : ... .. . ... ... ... ... : ... .. . ... : ... .. . ... : ... .. . ...
ROW 46 : ... .. . ... ... ... ... : A#2 00 5 V00 ... ... ... : D-4 00 . ... : ... .. . ... : ... .. . ...
ROW 47 : ... .. . ... ... ... ... : ... .. . ... ... ... ... : ... .. . ... : ... .. . ... : ... .. . ...
ROW 48 : ... .. . ... ... ... ... : ... .. . ... ... ... ... : ... .. . ... : ... .. . ... : ... .. . ...
ROW 49 : ... .. . ... ... ... ... : ... .. . ... ... ... ... : ... .. . ... : ... .. . ... : ... .. . ...
ROW 4A : ... .. . ... ... ... ... : ... .. . ... ... ... ... : ... .. . ... : ... .. . ... : ... .. . ...
ROW 4B : ... .. . ... ... ... ... : ... .. . ... ... ... ... : ... .. . ... : ... .. . ... : ... .. . ...
ROW 4C : ... .. . ... ... ... ... : ... .. . ... ... ... ... : ... .. . ... : ... .. . ... : ... .. . ...
ROW 4D : ... .. . ... ... ... ... : ... .. . ... ... ... ... : ... .. . ... : ... .. . ... : ... .. . ...
ROW 4E : ... .. . ... ... ... ... : ... .. . ... ... ... ... : ... .. . ... : ... .. . ... : ... .. . ...
ROW 4F : ... .. . ... ... ... ... : ... .. . ... ... ... ... : ... .. . ... : ... .. . ... : ... .. . ...
ROW 50 : ... .. . ... ... ... ... : ... .. . ... ... ... ... : ... .. . ... : ... .. . ... : ... .. . ...
ROW 51 : ... .. . ... ... ... ... : ... .. . ... ... ... ... : ... .. . ... : ... .. . ... : ... .. . ...
ROW 52 : ... .. . ... ... ... ... : ... .. . ... ... ... ... : ... .. . ... : ... .. . ... : ... .. . ...
ROW 53 : ... .. . ... ... ... ... : ... .. . ... ... ... ... : ... .. . ... : ... .. . ... : ... .. . ...
ROW 54 : ... .. . ... ... ... P7F : G#2 00 5 ... ... ... ... : C-4 00 . ... : ... .. . ... : ... .. . ...
ROW 55 : ... .. . ... ... ... P7E : ... .. . ... ... ... ... : ... .. . ... : ... .. . ... : ... .. . ...
ROW 56 : ... .. . ... ... ... P7D : ... .. . ... ... ... ... : ... .. . ... : ... .. . ... : ... .. . ...
ROW 57 : ... .. . ... ... ... P7E : ... .. . ... ... ... ... : ... .. . ... : ... .. . ... : ... .. . ...
ROW 58 : ... .. . ... ... ... P7F : ... .. . ... ... ... ... : ... .. . ... : ... .. . ... : ... .. . ...
ROW 59 : ... .. . ... ... ... P80 : ... .. . ... ... ... ... : ... .. . ... : ... .. . ... : ... .. . ...
ROW 5A : ... .. . ... ... ... P81 : ... .. . ... ... ... ... : ... .. . ... : ... .. . ... : ... .. . ...
ROW 5B : ... .. 4 ... ... ... P82 : ... .. . ... ... ... ... : ... .. . ... : ... .. . ... : ... .. . ...
ROW 5C : ... .. . ... ... ... P83 : ... .. . ... ... ... ... : ... .. . ... : ... .. . ... : ... .. . ...
ROW 5D : ... .. 3 ... ... ... P82 : ... .. . ... ... ... ... : ... .. . ... : ... .. . ... : ... .. . ...
ROW 5E : ... .. . ... ... ... P81 : ... .. . ... ... ... ... : ... .. . ... : ... .. . ... : ... .. . ...
ROW 5F : ... .. 2 ... ... ... P80 : ... .. . ... ... ... ... : ... .. . ... : ... .. . ... : ... .. . ...
ROW 60 : ... .. . ... ... ... P7F : ... .. . ... ... ... ... : ... .. . ... : ... .. . ... : ... .. . ...
ROW 61 : ... .. 1 ... ... ... P7E : ... .. . ... ... ... ... : ... .. . ... : ... .. . ... : ... .. . ...
ROW 62 : D#4 00 5 ... ... ... P80 : D#4 00 1 V02 ... ... P7F : C-4 00 . ... : ... .. . ... : ... .. . ...
ROW 63 : ... .. . ... ... ... ... : ... .. . ... ... ... ... : ... .. . ... : ... .. . ... : ... .. . ...
ROW 64 : ... .. 6 ... ... ... ... : ... .. . ... ... ... ... : ... .. . ... : ... .. . ... : ... .. . ...
ROW 65 : ... .. . ... ... ... ... : ... .. . ... ... ... ... : ... .. . ... : ... .. . ... : ... .. . ...
ROW 66 : ... .. . ... ... ... ... : ... .. . ... ... ... ... : ... .. . ... : ... .. . ... : ... .. . ...
ROW 67 : ... .. 5 ... ... ... ... : ... .. . ... ... ... ... : ... .. . ... : ... .. . ... : ... .. . ...
ROW 68 : ... .. 3 ... ... ... ... : ... .. . ... ... ... ... : ... .. . ... : ... .. . ... : ... .. . ...
ROW 69 : F-4 00 5 ... ... ... ... : D#4 00 . ... ... ... ... : ... .. . ... : ... .. . ... : ... .. . ...
ROW 6A : ... .. . ... ... ... ... : ... .. . ... ... ... ... : ... .. . ... : ... .. . ... : ... .. . ...
ROW 6B : ... .. 6 ... ... ... ... : ... .. . ... ... ... ... : ... .. . ... : ... .. . ... : ... .. . ...
ROW 6C : ... .. . ... ... ... ... : ... .. . ... ... ... ... : ... .. . ... : ... .. . ... : ... .. . ...
ROW 6D : ... .. . ... ... ... ... : ... .. . ... ... ... ... : ... .. . ... : ... .. . ... : ... .. . ...
ROW 6E : D#4 00 2 ... ... ... ... : ... .. . ... ... ... ... : ... .. . ... : ... .. . ... : ... .. . ...
ROW 6F : ... .. . ... ... ... ... : ... .. . ... ... ... ... : ... .. . ... : ... .. . ... : ... .. . ...
ROW 70 : F#4 00 5 V02 ... ... ... : D#3 00 7 V01 ... ... P80 : B-2 00 . ... : 2-# 00 7 ... : ... .. . ...
ROW 71 : ... .. . ... ... ... ... : ... .. 6 ... ... ... ... : ... .. . ... : ... .. 5 ... : ... .. . ...
ROW 72 : ... .. 6 ... ... ... ... : ... .. 3 ... ... ... ... : ... .. . ... : ... .. 3 ... : ... .. . ...
ROW 73 : ... .. . ... ... ... ... : ... .. 2 ... ... ... ... : ... .. . ... : ... .. 1 ... : ... .. . ...
ROW 74 : ... .. . ... ... ... ... : ... .. . ... ... ... ... : ... .. . ... : ... .. 0 ... : ... .. . ...
ROW 75 : ... .. 5 ... ... ... ... : ... .. 0 ... ... ... ... : ... .. . ... : ... .. . ... : ... .. . ...
ROW 76 : ... .. 3 ... ... ... ... : ... .. . ... ... ... ... : ... .. . ... : ... .. . ... : ... .. . ...
ROW 77 : ... .. . ... ... ... P81 : G#3 00 2 ... ... ... ... : ... .. . ... : ... .. . ... : ... .. . ...
ROW 78 : ... .. . ... ... ... ... : ... .. 1 ... ... ... ... : ... .. . ... : ... .. . ... : ... .. . ...
ROW 79 : ... .. 2 ... ... ... ... : ... .. . ... ... ... ... : ... .. . ... : ... .. . ... : ... .. . ...
ROW 7A : ... .. . ... ... ... P80 : ... .. . ... ... ... ... : ... .. . ... : ... .. . ... : ... .. . ...
ROW 7B : ... .. 1 ... ... ... ... : ... .. . ... ... ... ... : ... .. . ... : ... .. . ... : ... .. . ...
ROW 7C : ... .. . ... ... ... ... : ... .. . ... ... ... ... : --- .. . ... : ... .. . ... : ... .. . ...
ROW 7D : ... .. . ... ... ... ... : ... .. . ... ... ... ... : ... .. . ... : ... .. . ... : ... .. . ...
ROW 7E : D#4 00 5 ... ... ... ... : F#3 00 7 ... ... ... ... : B-2 00 . S01 : ... .. 2 ... : ... .. . ...
ROW 7F : ... .. . ... ... ... ... : ... .. 6 ... ... ... ... : ... .. . ... : ... .. 1 ... : ... .. . ...
ROW 80 : ... .. 6 ... ... ... ... : ... .. 3 ... ... ... ... : ... .. . ... : ... .. 0 ... : ... .. . ...
ROW 81 : ... .. . ... ... ... ... : ... .. 1 ... ... ... ... : ... .. . ... : ... .. . ... : ... .. . ...
ROW 82 : ... .. . ... ... ... ... : ... .. . ... ... ... ... : ... .. . ... : ... .. . ... : ... .. . ...
ROW 83 : ... .. 5 ... ... ... ... : ... .. . ... ... ... ... : ... .. . ... : ... .. . ... : ... .. . ...
ROW 84 : ... .. 3 ... ... ... ... : ... .. . ... ... ... ... : ... .. . ... : ... .. . ... : ... .. . ...
ROW 85 : ... .. . ... ... ... P81 : F-3 00 7 ... ... ... ... : C#3 00 . ... : ... .. 5 ... : ... .. . ...
ROW 86 : ... .. . ... ... ... ... : ... .. 6 ... ... ... ... : ... .. . ... : ... .. 3 ... : ... .. . ...
ROW 87 : ... .. 2 ... ... ... ... : ... .. 3 ... ... ... ... : ... .. . ... : ... .. 1 ... : ... .. . ...
ROW 88 : ... .. . ... ... ... P80 : ... .. 2 ... ... ... ... : ... .. . ... : ... .. 0 ... : ... .. . ...
ROW 89 : F#4 00 1 ... ... ... ... : ... .. . ... ... ... ... : ... .. . ... : ... .. . ... : ... .. . ...
ROW 8A : ... .. . ... ... ... ... : ... .. 0 ... ... ... ... : ... .. . ... : ... .. . ... : ... .. . ...
ROW 8B : ... .. . ... ... ... ... : ... .. . ... ... ... ... : ... .. . ... : ... .. . ... : ... .. . ...
ROW 8C : F-4 00 5 ... ... ... ... : F#3 00 2 ... ... ... ... : ... .. . ... : 7-# 00 7 ... : ... .. . ...
ROW 8D : ... .. . ... ... ... ... : ... .. 1 ... ... ... ... : ... .. . ... : ... .. 5 ... : ... .. . ...
ROW 8E : ... .. 6 ... ... ... ... : ... .. . ... ... ... ... : ... .. . ... : ... .. 3 ... : ... .. . ...
ROW 8F : ... .. . ... ... ... ... : ... .. . ... ... ... ... : ... .. . ... : ... .. 1 ... : ... .. . ...
ROW 90 : ... .. . ... ... ... ... : ... .. . ... ... ... ... : ... .. . ... : ... .. 0 ... : ... .. . ...
ROW 91 : ... .. 5 ... ... ... ... : ... .. . ... ... ... ... : --- .. . ... : ... .. . ... : ... .. . ...
ROW 92 : ... .. 3 ... ... ... ... : ... .. . ... ... ... ... : ... .. . ... : ... .. . ... : ... .. . ...
ROW 93 : ... .. . ... ... ... P81 : G#3 00 7 ... ... ... ... : C#3 00 . S01 : ... .. . ... : ... .. . ...
ROW 94 : ... .. . ... ... ... ... : ... .. 6 ... ... ... ... : ... .. . ... : ... .. . ... : ... .. . ...
ROW 95 : ... .. 2 ... ... ... ... : ... .. 3 ... ... ... ... : ... .. . ... : ... .. . ... : ... .. . ...
ROW 96 : ... .. . ... ... ... P80 : ... .. 2 ... ... ... ... : ... .. . ... : ... .. . ... : ... .. . ...
ROW 97 : D#4 00 1 ... ... ... ... : ... .. . ... ... ... ... : ... .. . ... : ... .. . ... : ... .. . ...
ROW 98 : ... .. . ... ... ... ... : ... .. 0 ... ... ... ... : ... .. . ... : ... .. . ... : ... .. . ...
ROW 99 : ... .. . ... ... ... ... : ... .. . ... ... ... ... : ... .. . ... : ... .. . ... : ... .. . ...
ROW 9A : G#4 00 5 ... ... ... ... : G#3 00 2 ... ... ... ... : C#2 00 . ... : ... .. 2 ... : ... .. . ...
ROW 9B : ... .. . ... ... ... ... : ... .. 1 ... ... ... ... : ... .. . ... : ... .. 1 ... : ... .. . ...
ROW 9C : ... .. 6 ... ... ... ... : ... .. . ... ... ... ... : ... .. . ... : ... .. 0 ... : ... .. . ...
ROW 9D : ... .. . ... ... ... ... : ... .. 0 ... ... ... ... : ... .. . ... : ... .. . ... : ... .. . ...
ROW 9E : ... .. . ... ... ... ... : ... .. . ... ... ... ... : ... .. . ... : ... .. . ... : ... .. . ...
ROW 9F : ... .. 5 ... ... ... ... : ... .. . ... ... ... ... : ... .. . ... : ... .. . ... : ... .. . ...
ROW A0 : ... .. 3 ... ... ... ... : ... .. . ... ... ... ... : ... .. . ... : ... .. . ... : ... .. . ...
ROW A1 : ... .. . ... ... ... P81 : A#2 00 7 ... ... ... ... : ... .. . ... : 2-# 00 5 ... : ... .. . ...
ROW A2 : ... .. . ... ... ... ... : ... .. 6 ... ... ... ... : ... .. . ... : ... .. 3 ... : ... .. . ...
ROW A3 : ... .. 2 ... ... ... ... : ... .. 3 ... ... ... ... : ... .. . ... : ... .. 1 ... : ... .. . ...
ROW A4 : ... .. . ... ... ... P80 : ... .. 2 ... ... ... ... : ... .. . ... : ... .. 0 ... : ... .. . ...
ROW A5 : F-4 00 1 ... ... ... ... : ... .. . ... ... ... ... : ... .. . ... : ... .. . ... : ... .. . ...
ROW A6 : ... .. . ... ... ... ... : ... .. 0 ... ... ... ... : --- .. . ... : ... .. . ... : ... .. . ...
ROW A7 : ... .. . ... ... ... ... : ... .. . ... ... ... ... : ... .. . ... : ... .. . ... : ... .. . ...
ROW A8 : C#4 00 5 ... ... ... ... : F#3 00 2 ... ... ... ... : F#2 00 . ... : 2-# 00 5 ... : ... .. . ...
ROW A9 : ... .. . ... ... ... ... : ... .. 1 ... ... ... ... : ... .. . ... : ... .. 3 ... : ... .. . ...
ROW AA : ... .. 6 ... ... ... ... : ... .. . ... ... ... ... : ... .. . ... : ... .. 1 ... : ... .. . ...
ROW AB : ... .. . ... ... ... ... : ... .. . ... ... ... ... : ... .. . ... : ... .. 0 ... : ... .. . ...
ROW AC : ... .. . ... ... ... ... : ... .. . ... ... ... ... : ... .. . ... : ... .. . ... : ... .. . ...
ROW AD : ... .. 5 ... ... ... ... : ... .. . ... ... ... ... : ... .. . ... : ... .. . ... : ... .. . ...
ROW AE : ... .. . ... ... ... ... : ... .. . ... ... ... ... : ... .. . ... : ... .. . ... : ... .. . ...
ROW AF : ... .. . ... ... ... ... : A#2 00 7 ... ... ... ... : ... .. . ... : ... .. . ... : ... .. . ...
ROW B0 : ... .. . ... ... ... ... : ... .. 6 ... ... ... ... : ... .. . ... : ... .. . ... : ... .. . ...
ROW B1 : ... .. . ... ... ... ... : ... .. 3 ... ... ... ... : ... .. . ... : ... .. . ... : ... .. . ...
ROW B2 : ... .. . ... ... ... ... : ... .. 2 ... ... ... ... : ... .. . ... : ... .. . ... : ... .. . ...
ROW B3 : ... .. . ... ... ... ... : ... .. . ... ... ... ... : ... .. . ... : ... .. . ... : ... .. . ...
ROW B4 : ... .. . ... ... ... ... : ... .. . ... ... ... ... : ... .. . ... : ... .. . ... : ... .. . ...
ROW B5 : ... .. . ... ... ... ... : ... .. . ... ... ... ... : ... .. . ... : ... .. . ... : ... .. . ...
ROW B6 : ... .. . ... ... ... ... : G#2 00 5 ... ... ... ... : C-4 00 . ... : ... .. . ... : ... .. . ...
ROW B7 : ... .. . ... ... ... ... : ... .. . ... ... ... ... : ... .. . ... : ... .. . ... : ... .. . ...
ROW B8 : ... .. . ... ... ... ... : ... .. . ... ... ... ... : ... .. . ... : ... .. . ... : ... .. . ...
ROW B9 : ... .. . ... ... ... ... : ... .. . ... ... ... ... : ... .. . ... : ... .. . ... : ... .. . ...
ROW BA : ... .. . ... ... ... ... : ... .. . ... ... ... ... : ... .. . ... : ... .. . ... : ... .. . ...
ROW BB : ... .. . ... ... ... ... : ... .. . ... ... ... ... : ... .. . ... : ... .. . ... : ... .. . ...
ROW BC : ... .. . ... ... ... ... : ... .. . ... ... ... ... : ... .. . ... : ... .. . ... : ... .. . ...
ROW BD : ... .. . ... ... ... ... : ... .. . ... ... ... ... : ... .. . ... : ... .. . ... : ... .. . ...
ROW BE : ... .. . ... ... ... ... : ... .. . ... ... ... ... : ... .. . ... : ... .. . ... : ... .. . ...
ROW BF : ... .. . ... ... ... ... : ... .. . ... ... ... ... : ... .. . ... : ... .. . ... : ... .. . ...
ROW C0 : ... .. . ... ... ... ... : ... .. . ... ... ... ... : ... .. . ... : ... .. . ... : ... .. . ...
ROW C1 : ... .. . ... ... ... ... : ... .. . ... ... ... ... : ... .. . ... : ... .. . ... : ... .. . ...
ROW C2 : ... .. . ... ... ... ... : ... .. . ... ... ... ... : ... .. . ... : ... .. . ... : ... .. . ...
ROW C3 : ... .. . ... ... ... ... : ... .. . ... ... ... ... : ... .. . ... : ... .. . ... : ... .. . ...
ROW C4 : ... .. . ... ... ... P7F : F#2 00 . ... ... ... ... : A#3 00 . ... : ... .. . ... : ... .. . ...
ROW C5 : ... .. . ... ... ... P7E : ... .. . ... ... ... ... : ... .. . ... : ... .. . ... : ... .. . ...
ROW C6 : ... .. . ... ... ... P7D : ... .. . ... ... ... ... : ... .. . ... : ... .. . ... : ... .. . ...
ROW C7 : ... .. . ... ... ... P7E : ... .. . ... ... ... ... : ... .. . ... : ... .. . ... : ... .. . ...
ROW C8 : ... .. . ... ... ... P7F : ... .. . ... ... ... ... : ... .. . ... : ... .. . ... : ... .. . ...
ROW C9 : ... .. . ... ... ... P80 : ... .. . ... ... ... ... : ... .. . ... : ... .. . ... : ... .. . ...
ROW CA : ... .. . ... ... ... P81 : ... .. . ... ... ... ... : ... .. . ... : ... .. . ... : ... .. . ...
ROW CB : ... .. 4 ... ... ... P82 : ... .. . ... ... ... ... : ... .. . ... : ... .. . ... : ... .. . ...
ROW CC : ... .. . ... ... ... P83 : ... .. . ... ... ... ... : ... .. . ... : ... .. . ... : ... .. . ...
ROW CD : ... .. 3 ... ... ... P82 : ... .. . ... ... ... ... : ... .. . ... : ... .. . ... : ... .. . ...
ROW CE : ... .. . ... ... ... P81 : ... .. . ... ... ... ... : ... .. . ... : ... .. . ... : ... .. . ...
ROW CF : ... .. 2 ... ... ... P80 : ... .. . ... ... ... ... : ... .. . ... : ... .. . ... : ... .. . ...
ROW D0 : ... .. . ... ... ... P7F : ... .. . ... ... ... ... : ... .. . ... : ... .. . ... : ... .. . ...
ROW D1 : ... .. 1 ... ... ... P7E : ... .. . ... ... ... ... : ... .. . ... : ... .. . ... : ... .. . ...
ROW D2 : C#4 00 5 ... ... ... P80 : C#4 00 1 V02 ... ... P7F : ... .. . ... : ... .. . ... : ... .. . ...
ROW D3 : ... .. . ... ... ... ... : ... .. . ... ... ... ... : ... .. . ... : ... .. . ... : ... .. . ...
ROW D4 : ... .. 6 ... ... ... ... : ... .. . ... ... ... ... : ... .. . ... : ... .. . ... : ... .. . ...
ROW D5 : ... .. . ... ... ... ... : ... .. . ... ... ... ... : ... .. . ... : ... .. . ... : ... .. . ...
ROW D6 : ... .. . ... ... ... ... : ... .. . ... ... ... ... : ... .. . ... : ... .. . ... : ... .. . ...
ROW D7 : ... .. 5 ... ... ... ... : ... .. . ... ... ... ... : ... .. . ... : ... .. . ... : ... .. . ...
ROW D8 : ... .. 3 ... ... ... ... : ... .. . ... ... ... ... : ... .. . ... : ... .. . ... : ... .. . ...
ROW D9 : D#4 00 5 ... ... ... ... : C#4 00 . ... ... ... ... : ... .. . ... : 2-# 00 5 ... : ... .. . ...
ROW DA : ... .. . ... ... ... ... : ... .. . ... ... ... ... : ... .. . ... : ... .. 3 ... : ... .. . ...
ROW DB : ... .. 6 ... ... ... ... : ... .. . ... ... ... ... : ... .. . ... : ... .. 1 ... : ... .. . ...
ROW DC : ... .. . ... ... ... ... : ... .. . ... ... ... ... : ... .. . ... : ... .. 0 ... : ... .. . ...
ROW DD : ... .. . ... ... ... ... : ... .. . ... ... ... ... : ... .. . ... : ... .. . ... : ... .. . ...
ROW DE : C#4 00 2 ... ... ... ... : ... .. . ... ... ... ... : ... .. . ... : ... .. . ... : ... .. . ...
ROW DF : ... .. . ... ... ... ... : ... .. . ... ... ... ... : ... .. . ... : ... .. . ... : ... .. . ...

PATTERN 2D
ROW 00 : F-4 00 5 V02 ... ... ... : C#3 00 7 V01 ... ... P80 : F#1 00 . ... : 2-# 00 7 ... : ... .. . ...
ROW 01 : ... .. . ... ... ... ... : ... .. 6 ... ... ... ... : ... .. . ... : ... .. 5 ... : ... .. . ...
ROW 02 : ... .. 6 ... ... ... ... : ... .. 3 ... ... ... ... : ... .. . ... : ... .. 3 ... : ... .. . ...
ROW 03 : ... .. . ... ... ... ... : ... .. 2 ... ... ... ... : ... .. . ... : ... .. 1 ... : ... .. . ...
ROW 04 : ... .. . ... ... ... ... : ... .. . ... ... ... ... : ... .. . ... : ... .. 0 ... : ... .. . ...
ROW 05 : ... .. 5 ... ... ... ... : ... .. 0 ... ... ... ... : ... .. . ... : ... .. . ... : ... .. . ...
ROW 06 : ... .. 3 ... ... ... ... : ... .. . ... ... ... ... : ... .. . ... : ... .. . ... : ... .. . ...
ROW 07 : ... .. . ... ... ... ... : F-2 00 2 ... ... ... ... : ... .. . ... : ... .. . ... : ... .. . ...
ROW 08 : ... .. . ... ... ... ... : ... .. 1 ... ... ... ... : ... .. . ... : ... .. . ... : ... .. . ...
ROW 09 : ... .. 2 ... ... ... ... : ... .. . ... ... ... ... : ... .. . ... : ... .. . ... : ... .. . ...
ROW 0A : ... .. . ... ... ... ... : ... .. . ... ... ... ... : ... .. . ... : ... .. . ... : ... .. . ...
ROW 0B : D#4 00 1 ... ... ... ... : ... .. . ... ... ... ... : ... .. . ... : ... .. . ... : ... .. . ...
ROW 0C : ... .. . ... ... ... ... : ... .. . ... ... ... ... : --- .. . ... : ... .. . ... : ... .. . ...
ROW 0D : ... .. . ... ... ... ... : ... .. . ... ... ... ... : ... .. . ... : ... .. . ... : ... .. . ...
ROW 0E : C#4 00 5 ... ... ... ... : F-3 00 7 ... ... ... ... : F#1 00 . S01 : ... .. 2 ... : ... .. . ...
ROW 0F : ... .. . ... ... ... ... : ... .. 6 ... ... ... ... : ... .. . ... : ... .. 1 ... : ... .. . ...
ROW 10 : ... .. 6 ... ... ... ... : ... .. 3 ... ... ... ... : ... .. . ... : ... .. 0 ... : ... .. . ...
ROW 11 : ... .. . ... ... ... ... : ... .. 1 ... ... ... ... : ... .. . ... : ... .. . ... : ... .. . ...
ROW 12 : ... .. . ... ... ... ... : ... .. . ... ... ... ... : ... .. . ... : ... .. . ... : ... .. . ...
ROW 13 : ... .. 5 ... ... ... ... : ... .. . ... ... ... ... : ... .. . ... : ... .. . ... : ... .. . ...
ROW 14 : ... .. 3 ... ... ... ... : ... .. . ... ... ... ... : ... .. . ... : ... .. . ... : ... .. . ...
ROW 15 : ... .. . ... ... ... ... : G#2 00 7 ... ... ... ... : C#2 00 . ... : ... .. 5 ... : ... .. . ...
ROW 16 : ... .. . ... ... ... ... : ... .. 6 ... ... ... ... : ... .. . ... : ... .. 3 ... : ... .. . ...
ROW 17 : ... .. 2 ... ... ... ... : ... .. 3 ... ... ... ... : ... .. . ... : ... .. 1 ... : ... .. . ...
ROW 18 : ... .. . ... ... ... ... : ... .. 2 ... ... ... ... : ... .. . ... : ... .. 0 ... : ... .. . ...
ROW 19 : F-4 00 1 ... ... ... ... : ... .. . ... ... ... ... : ... .. . ... : ... .. . ... : ... .. . ...
ROW 1A : ... .. . ... ... ... ... : ... .. 0 ... ... ... ... : ... .. . ... : ... .. . ... : ... .. . ...
ROW 1B : ... .. . ... ... ... ... : ... .. . ... ... ... ... : ... .. . ... : ... .. . ... : ... .. . ...
ROW 1C : D#4 00 5 ... ... ... ... : F-3 00 2 ... ... ... ... : ... .. . ... : 7-# 00 7 ... : ... .. . ...
ROW 1D : ... .. . ... ... ... ... : ... .. 1 ... ... ... ... : ... .. . ... : ... .. 5 ... : ... .. . ...
ROW 1E : ... .. 6 ... ... ... ... : ... .. . ... ... ... ... : ... .. . ... : ... .. 3 ... : ... .. . ...
ROW 1F : ... .. . ... ... ... ... : ... .. . ... ... ... ... : ... .. . ... : ... .. 1 ... : ... .. . ...
ROW 20 : ... .. . ... ... ... ... : ... .. . ... ... ... ... : ... .. . ... : ... .. 0 ... : ... .. . ...
ROW 21 : ... .. 5 ... ... ... ... : ... .. . ... ... ... ... : --- .. . ... : ... .. . ... : ... .. . ...
ROW 22 : ... .. 3 ... ... ... ... : ... .. . ... ... ... ... : ... .. . ... : ... .. . ... : ... .. . ...
ROW 23 : ... .. . ... ... ... ... : A#2 00 7 ... ... ... ... : C#2 00 . S01 : ... .. . ... : ... .. . ...
ROW 24 : ... .. . ... ... ... ... : ... .. 6 ... ... ... ... : ... .. . ... : ... .. . ... : ... .. . ...
ROW 25 : ... .. 2 ... ... ... ... : ... .. 3 ... ... ... ... : ... .. . ... : ... .. . ... : ... .. . ...
ROW 26 : ... .. . ... ... ... ... : ... .. 2 ... ... ... ... : ... .. . ... : ... .. . ... : ... .. . ...
ROW 27 : C#4 00 1 ... ... ... ... : ... .. . ... ... ... ... : ... .. . ... : ... .. . ... : ... .. . ...
ROW 28 : ... .. . ... ... ... ... : ... .. 0 ... ... ... ... : ... .. . ... : ... .. . ... : ... .. . ...
ROW 29 : ... .. . ... ... ... ... : ... .. . ... ... ... ... : ... .. . ... : ... .. . ... : ... .. . ...
ROW 2A : C-4 00 5 ... ... ... ... : G#2 00 2 ... ... ... ... : F#2 00 . ... : ... .. 2 ... : ... .. . ...
ROW 2B : ... .. . ... ... ... ... : ... .. 1 ... ... ... ... : ... .. . ... : ... .. 1 ... : ... .. . ...
ROW 2C : ... .. 6 ... ... ... ... : ... .. . ... ... ... ... : ... .. . ... : ... .. 0 ... : ... .. . ...
ROW 2D : ... .. . ... ... ... ... : ... .. 0 ... ... ... ... : ... .. . ... : ... .. . ... : ... .. . ...
ROW 2E : ... .. . ... ... ... ... : ... .. . ... ... ... ... : ... .. . ... : ... .. . ... : ... .. . ...
ROW 2F : ... .. 5 ... ... ... ... : ... .. . ... ... ... ... : ... .. . ... : ... .. . ... : ... .. . ...
ROW 30 : ... .. 3 ... ... ... ... : ... .. . ... ... ... ... : ... .. . ... : ... .. . ... : ... .. . ...
ROW 31 : ... .. . ... ... ... ... : C-3 00 7 ... ... ... ... : ... .. . ... : 2-# 00 5 ... : ... .. . ...
ROW 32 : ... .. . ... ... ... ... : ... .. 6 ... ... ... ... : ... .. . ... : ... .. 3 ... : ... .. . ...
ROW 33 : ... .. 2 ... ... ... ... : ... .. 3 ... ... ... ... : ... .. . ... : ... .. 1 ... : ... .. . ...
ROW 34 : ... .. . ... ... ... ... : ... .. 2 ... ... ... ... : ... .. . ... : ... .. 0 ... : ... .. . ...
ROW 35 : D#4 00 1 ... ... ... ... : ... .. . ... ... ... ... : ... .. . ... : ... .. . ... : ... .. . ...
ROW 36 : ... .. . ... ... ... ... : ... .. 0 ... ... ... ... : --- .. . ... : ... .. . ... : ... .. . ...
ROW 37 : ... .. . ... ... ... ... : ... .. . ... ... ... ... : ... .. . ... : ... .. . ... : ... .. . ...
ROW 38 : C#4 00 5 ... ... ... ... : G#2 00 2 ... ... ... ... : G#1 00 . ... : 2-# 00 5 ... : ... .. . ...
ROW 39 : ... .. . ... ... ... ... : ... .. 1 ... ... ... ... : ... .. . ... : ... .. 3 ... : ... .. . ...
ROW 3A : ... .. 6 ... ... ... ... : ... .. . ... ... ... ... : ... .. . ... : ... .. 1 ... : ... .. . ...
ROW 3B : ... .. . ... ... ... ... : ... .. . ... ... ... ... : ... .. . ... : ... .. 0 ... : ... .. . ...
ROW 3C : ... .. . ... ... ... ... : ... .. . ... ... ... ... : ... .. . ... : ... .. . ... : ... .. . ...
ROW 3D : ... .. 5 ... ... ... ... : ... .. . ... ... ... ... : ... .. . ... : ... .. . ... : ... .. . ...
ROW 3E : ... .. 3 ... ... ... ... : ... .. . ... ... ... ... : ... .. . ... : ... .. . ... : ... .. . ...
ROW 3F : ... .. . ... ... ... ... : D#3 00 7 ... ... ... ... : ... .. . ... : ... .. . ... : ... .. . ...
ROW 40 : ... .. . ... ... ... ... : ... .. 6 ... ... ... ... : ... .. . ... : ... .. . ... : ... .. . ...
ROW 41 : ... .. 2 ... ... ... ... : ... .. 3 ... ... ... ... : ... .. . ... : ... .. . ... : ... .. . ...
ROW 42 : ... .. . ... ... ... ... : ... .. 2 ... ... ... ... : ... .. . ... : ... .. . ... : ... .. . ...
ROW 43 : C-4 00 1 ... ... ... ... : ... .. . ... ... ... ... : ... .. . ... : ... .. . ... : ... .. . ...
ROW 44 : ... .. . ... ... ... ... : ... .. . ... ... ... ... : --- .. . ... : ... .. . ... : ... .. . ...
ROW 45 : ... .. . ... ... ... ... : ... .. . ... ... ... ... : ... .. . ... : ... .. . ... : ... .. . ...
ROW 46 : A#3 00 5 ... ... ... ... : D#2 00 7 ... ... ... ... : G#1 00 . S01 : ... .. 2 ... : ... .. . ...
ROW 47 : ... .. . ... ... ... ... : ... .. 6 ... ... ... ... : ... .. . ... : ... .. 1 ... : ... .. . ...
ROW 48 : ... .. 6 ... ... ... ... : ... .. 3 ... ... ... ... : ... .. . ... : ... .. 0 ... : ... .. . ...
ROW 49 : ... .. . ... ... ... ... : ... .. 2 ... ... ... ... : ... .. . ... : ... .. . ... : ... .. . ...
ROW 4A : ... .. . ... ... ... ... : ... .. . ... ... ... ... : ... .. . ... : ... .. . ... : ... .. . ...
ROW 4B : ... .. 5 ... ... ... ... : ... .. 0 ... ... ... ... : ... .. . ... : ... .. . ... : ... .. . ...
ROW 4C : ... .. 3 ... ... ... ... : ... .. . ... ... ... ... : ... .. . ... : ... .. . ... : ... .. . ...
ROW 4D : ... .. . ... ... ... ... : D#3 00 2 ... ... ... ... : D#2 00 . ... : ... .. 5 ... : ... .. . ...
ROW 4E : ... .. . ... ... ... ... : ... .. 1 ... ... ... ... : ... .. . ... : ... .. 3 ... : ... .. . ...
ROW 4F : ... .. 2 ... ... ... ... : ... .. . ... ... ... ... : ... .. . ... : ... .. 1 ... : ... .. . ...
ROW 50 : ... .. . ... ... ... ... : ... .. . ... ... ... ... : ... .. . ... : ... .. 0 ... : ... .. . ...
ROW 51 : C#4 00 1 ... ... ... ... : ... .. . ... ... ... ... : ... .. . ... : ... .. . ... : ... .. . ...
ROW 52 : ... .. . ... ... ... ... : ... .. . ... ... ... ... : ... .. . ... : ... .. . ... : ... .. . ...
ROW 53 : ... .. . ... ... ... ... : ... .. . ... ... ... ... : ... .. . ... : ... .. . ... : ... .. . ...
ROW 54 : C-4 00 5 ... ... ... ... : A#2 00 7 ... ... ... ... : ... .. . ... : 6-# 00 7 ... : ... .. . ...
ROW 55 : ... .. . ... ... ... ... : ... .. 6 ... ... ... ... : ... .. . ... : ... .. 5 ... : ... .. . ...
ROW 56 : ... .. 6 ... ... ... ... : ... .. 3 ... ... ... ... : ... .. . ... : ... .. 3 ... : ... .. . ...
ROW 57 : ... .. . ... ... ... ... : ... .. 2 ... ... ... ... : ... .. . ... : ... .. 1 ... : ... .. . ...
ROW 58 : ... .. . ... ... ... ... : ... .. . ... ... ... ... : ... .. . ... : ... .. 0 ... : ... .. . ...
ROW 59 : ... .. 5 ... ... ... ... : ... .. 0 ... ... ... ... : --- .. . ... : ... .. . ... : ... .. . ...
ROW 5A : ... .. 3 ... ... ... ... : ... .. . ... ... ... ... : ... .. . ... : ... .. . ... : ... .. . ...
ROW 5B : ... .. . ... ... ... ... : D#2 00 2 ... ... ... ... : D#2 00 . S01 : ... .. . ... : ... .. . ...
ROW 5C : ... .. . ... ... ... ... : ... .. 1 ... ... ... ... : ... .. . ... : ... .. . ... : ... .. . ...
ROW 5D : ... .. 2 ... ... ... ... : ... .. . ... ... ... ... : ... .. . ... : ... .. . ... : ... .. . ...
ROW 5E : ... .. . ... ... ... ... : ... .. . ... ... ... ... : ... .. . ... : ... .. . ... : ... .. . ...
ROW 5F : A#3 00 1 ... ... ... ... : ... .. . ... ... ... ... : ... .. . ... : ... .. . ... : ... .. . ...
ROW 60 : ... .. . ... ... ... ... : ... .. . ... ... ... ... : ... .. . ... : ... .. . ... : ... .. . ...
ROW 61 : ... .. . ... ... ... ... : ... .. . ... ... ... ... : ... .. . ... : ... .. . ... : ... .. . ...
ROW 62 : G#3 00 5 ... ... ... ... : C-3 00 7 ... ... ... ... : G#2 00 . ... : ... .. 2 ... : ... .. . ...
ROW 63 : ... .. . ... ... ... ... : ... .. 6 ... ... ... ... : ... .. . ... : ... .. 1 ... : ... .. . ...
ROW 64 : ... .. 6 ... ... ... ... : ... .. 3 ... ... ... ... : ... .. . ... : ... .. 0 ... : ... .. . ...
ROW 65 : ... .. . ... ... ... ... : ... .. 2 ... ... ... ... : ... .. . ... : ... .. . ... : ... .. . ...
ROW 66 : ... .. . ... ... ... ... : ... .. . ... ... ... ... : ... .. . ... : ... .. . ... : ... .. . ...
ROW 67 : ... .. 5 ... ... ... ... : ... .. 0 ... ... ... ... : ... .. . ... : ... .. . ... : ... .. . ...
ROW 68 : ... .. 3 ... ... ... ... : ... .. . ... ... ... ... : ... .. . ... : ... .. . ... : ... .. . ...
ROW 69 : ... .. . ... ... ... ... : A#2 00 2 ... ... ... ... : ... .. . ... : 2-# 00 5 ... : ... .. . ...
ROW 6A : ... .. . ... ... ... ... : ... .. 1 ... ... ... ... : ... .. . ... : ... .. 3 ... : ... .. . ...
ROW 6B : ... .. 2 ... ... ... ... : ... .. . ... ... ... ... : ... .. . ... : ... .. 1 ... : ... .. . ...
ROW 6C : ... .. . ... ... ... ... : ... .. . ... ... ... ... : ... .. . ... : ... .. 0 ... : ... .. . ...
ROW 6D : C-4 00 1 ... ... ... ... : ... .. . ... ... ... ... : ... .. . ... : ... .. . ... : ... .. . ...
ROW 6E : ... .. . ... ... ... ... : ... .. . ... ... ... ... : --- .. . ... : ... .. . ... : ... .. . ...
ROW 6F : ... .. . ... ... ... ... : ... .. . ... ... ... ... : ... .. . ... : ... .. . ... : ... .. . ...
ROW 70 : A#3 00 5 ... ... ... ... : A#2 00 7 V01 ... ... ... : A#1 00 . ... : 2-# 00 7 ... : ... .. . ...
ROW 71 : ... .. . ... ... ... ... : ... .. 6 ... ... ... ... : ... .. . ... : ... .. 5 ... : ... .. . ...
ROW 72 : ... .. 6 ... ... ... ... : ... .. 3 ... ... ... ... : ... .. . ... : ... .. 3 ... : ... .. . ...
ROW 73 : ... .. . ... ... ... ... : ... .. 2 ... ... ... ... : ... .. . ... : ... .. 1 ... : ... .. . ...
ROW 74 : ... .. . ... ... ... ... : ... .. . ... ... ... ... : ... .. . ... : ... .. 0 ... : ... .. . ...
ROW 75 : ... .. 5 ... ... ... ... : ... .. 0 ... ... ... ... : ... .. . ... : ... .. . ... : ... .. . ...
ROW 76 : ... .. . ... ... ... ... : ... .. . ... ... ... ... : ... .. . ... : ... .. . ... : ... .. . ...
ROW 77 : ... .. . ... ... ... ... : C-3 00 2 ... ... ... ... : ... .. . ... : ... .. . ... : ... .. . ...
ROW 78 : ... .. . ... ... ... ... : ... .. 1 ... ... ... ... : ... .. . ... : ... .. . ... : ... .. . ...
ROW 79 : ... .. . ... ... ... ... : ... .. . ... ... ... ... : ... .. . ... : ... .. . ... : ... .. . ...
ROW 7A : ... .. . ... ... ... ... : ... .. . ... ... ... ... : ... .. . ... : ... .. . ... : ... .. . ...
ROW 7B : ... .. . ... ... ... ... : ... .. . ... ... ... ... : ... .. . ... : ... .. . ... : ... .. . ...
ROW 7C : ... .. . ... ... ... ... : ... .. . ... ... ... ... : --- .. . ... : ... .. . ... : ... .. . ...
ROW 7D : ... .. . ... ... ... ... : ... .. . ... ... ... ... : ... .. . ... : ... .. . ... : ... .. . ...
ROW 7E : ... .. . ... ... ... ... : D-3 00 7 ... ... ... ... : A#1 00 . S01 : ... .. 2 ... : ... .. . ...
ROW 7F : ... .. . ... ... ... ... : ... .. 6 ... ... ... ... : ... .. . ... : ... .. 1 ... : ... .. . ...
ROW 80 : ... .. . ... ... ... ... : ... .. 3 ... ... ... ... : ... .. . ... : ... .. 0 ... : ... .. . ...
ROW 81 : ... .. . ... ... ... ... : ... .. 1 ... ... ... ... : ... .. . ... : ... .. . ... : ... .. . ...
ROW 82 : ... .. . ... ... ... ... : ... .. . ... ... ... ... : ... .. . ... : ... .. . ... : ... .. . ...
ROW 83 : ... .. . ... ... ... ... : ... .. . ... ... ... ... : ... .. . ... : ... .. . ... : ... .. . ...
ROW 84 : ... .. . ... ... ... ... : ... .. . ... ... ... ... : ... .. . ... : ... .. . ... : ... .. . ...
ROW 85 : ... .. . ... ... ... ... : F-2 00 7 ... ... ... ... : F-2 00 . ... : ... .. 5 ... : ... .. . ...
ROW 86 : ... .. . ... ... ... ... : ... .. 6 ... ... ... ... : ... .. . ... : ... .. 3 ... : ... .. . ...
ROW 87 : ... .. . ... ... ... ... : ... .. 3 ... ... ... ... : ... .. . ... : ... .. 1 ... : ... .. . ...
ROW 88 : ... .. . ... ... ... ... : ... .. 2 ... ... ... ... : ... .. . ... : ... .. 0 ... : ... .. . ...
ROW 89 : ... .. . ... ... ... ... : ... .. . ... ... ... ... : ... .. . ... : ... .. . ... : ... .. . ...
ROW 8A : ... .. . ... ... ... ... : ... .. 0 ... ... ... ... : ... .. . ... : ... .. . ... : ... .. . ...
ROW 8B : ... .. . ... ... ... ... : ... .. . ... ... ... ... : ... .. . ... : ... .. . ... : ... .. . ...
ROW 8C : ... .. . ... ... ... P7F : D-3 00 2 ... ... ... ... : ... .. . ... : 7-# 00 7 ... : ... .. . ...
ROW 8D : ... .. . ... ... ... P7E : ... .. 1 ... ... ... ... : ... .. . ... : ... .. 5 ... : ... .. . ...
ROW 8E : ... .. . ... ... ... P7D : ... .. . ... ... ... ... : ... .. . ... : ... .. 3 ... : ... .. . ...
ROW 8F : ... .. . ... ... ... P7E : ... .. . ... ... ... ... : ... .. . ... : ... .. 1 ... : ... .. . ...
ROW 90 : ... .. . ... ... ... P7F : ... .. . ... ... ... ... : ... .. . ... : ... .. 0 ... : ... .. . ...
ROW 91 : ... .. . ... ... ... P80 : ... .. . ... ... ... ... : --- .. . ... : ... .. . ... : ... .. . ...
ROW 92 : ... .. . ... ... ... P81 : ... .. . ... ... ... ... : ... .. . ... : ... .. . ... : ... .. . ...
ROW 93 : ... .. . ... ... ... P82 : G#2 00 7 ... ... ... ... : F-2 00 . S01 : ... .. . ... : ... .. . ...
ROW 94 : ... .. . ... ... ... P83 : ... .. 6 ... ... ... ... : ... .. . ... : ... .. . ... : ... .. . ...
ROW 95 : ... .. . ... ... ... P82 : ... .. 3 ... ... ... ... : ... .. . ... : ... .. . ... : ... .. . ...
ROW 96 : ... .. . ... ... ... P81 : ... .. 2 ... ... ... ... : ... .. . ... : ... .. . ... : ... .. . ...
ROW 97 : ... .. . ... ... ... P80 : ... .. . ... ... ... ... : ... .. . ... : ... .. . ... : ... .. . ...
ROW 98 : ... .. . ... ... ... P7F : ... .. 0 ... ... ... ... : ... .. . ... : ... .. . ... : ... .. . ...
ROW 99 : ... .. . ... ... ... P7E : ... .. . ... ... ... ... : ... .. . ... : ... .. . ... : ... .. . ...
ROW 9A : ... .. . ... ... ... P7D : C#3 00 2 ... ... ... ... : A#2 00 . ... : ... .. 2 ... : ... .. . ...
ROW 9B : ... .. . ... ... ... P7E : ... .. 1 ... ... ... ... : ... .. . ... : ... .. 1 ... : ... .. . ...
ROW 9C : ... .. . ... ... ... P7F : ... .. . ... ... ... ... : ... .. . ... : ... .. 0 ... : ... .. . ...
ROW 9D : ... .. . ... ... ... P80 : ... .. 0 ... ... ... ... : ... .. . ... : ... .. . ... : ... .. . ...
ROW 9E : ... .. . ... ... ... P81 : ... .. . ... ... ... ... : ... .. . ... : ... .. . ... : ... .. . ...
ROW 9F : ... .. . ... ... ... P82 : ... .. . ... ... ... ... : ... .. . ... : ... .. . ... : ... .. . ...
ROW A0 : ... .. . ... ... ... P83 : ... .. . ... ... ... ... : ... .. . ... : ... .. . ... : ... .. . ...
ROW A1 : ... .. . ... ... ... P82 : A#2 00 7 ... ... ... ... : ... .. . ... : 2-# 00 5 ... : ... .. . ...
ROW A2 : ... .. . ... ... ... P81 : ... .. 6 ... ... ... ... : ... .. . ... : ... .. 3 ... : ... .. . ...
ROW A3 : ... .. . ... ... ... P80 : ... .. 3 ... ... ... ... : ... .. . ... : ... .. 1 ... : ... .. . ...
ROW A4 : ... .. . ... ... ... P7F : ... .. 2 ... ... ... ... : ... .. . ... : ... .. 0 ... : ... .. . ...
ROW A5 : ... .. . ... ... ... P7E : ... .. . ... ... ... ... : ... .. . ... : ... .. . ... : ... .. . ...
ROW A6 : ... .. . ... ... ... P7D : ... .. 0 ... ... ... ... : --- .. . ... : ... .. . ... : ... .. . ...
ROW A7 : ... .. . ... ... ... P7E : ... .. . ... ... ... ... : ... .. . ... : ... .. . ... : ... .. . ...
ROW A8 : ... .. . ... ... ... P7F : G#2 00 2 ... ... ... ... : A#1 00 . ... : 2-# 00 5 ... : ... .. . ...
ROW A9 : ... .. . ... ... ... P80 : ... .. 1 ... ... ... ... : ... .. . ... : ... .. 3 ... : ... .. . ...
ROW AA : ... .. . ... ... ... P81 : ... .. . ... ... ... ... : ... .. . ... : ... .. 1 ... : ... .. . ...
ROW AB : ... .. . ... ... ... P82 : ... .. . ... ... ... ... : ... .. . ... : ... .. 0 ... : ... .. . ...
ROW AC : ... .. . ... ... ... P83 : ... .. . ... ... ... ... : ... .. . ... : ... .. . ... : ... .. . ...
ROW AD : ... .. . ... ... ... P82 : ... .. . ... ... ... ... : ... .. . ... : ... .. . ... : ... .. . ...
ROW AE : ... .. . ... ... ... P81 : ... .. . ... ... ... ... : ... .. . ... : ... .. . ... : ... .. . ...
ROW AF : ... .. . ... ... ... P80 : D-3 00 7 ... ... ... ... : ... .. . ... : ... .. . ... : ... .. . ...
ROW B0 : ... .. . ... ... ... P7F : ... .. 6 ... ... ... ... : ... .. . ... : ... .. . ... : ... .. . ...
ROW B1 : ... .. . ... ... ... P7E : ... .. 3 ... ... ... ... : ... .. . ... : ... .. . ... : ... .. . ...
ROW B2 : ... .. . ... ... ... P7D : ... .. 2 ... ... ... ... : ... .. . ... : ... .. . ... : ... .. . ...
ROW B3 : ... .. . ... ... ... P7E : ... .. . ... ... ... ... : ... .. . ... : ... .. . ... : ... .. . ...
ROW B4 : ... .. . ... ... ... P7F : ... .. . ... ... ... ... : --- .. . ... : ... .. . ... : ... .. . ...
ROW B5 : ... .. . ... ... ... P80 : ... .. . ... ... ... ... : ... .. . ... : ... .. . ... : ... .. . ...
ROW B6 : ... .. . ... ... ... P81 : F-2 00 7 ... ... ... ... : A#1 00 . S01 : ... .. 2 ... : ... .. . ...
ROW B7 : ... .. . ... ... ... P82 : ... .. 6 ... ... ... ... : ... .. . ... : ... .. 1 ... : ... .. . ...
ROW B8 : ... .. . ... ... ... P83 : ... .. 3 ... ... ... ... : ... .. . ... : ... .. 0 ... : ... .. . ...
ROW B9 : ... .. . ... ... ... P82 : ... .. 2 ... ... ... ... : ... .. . ... : ... .. . ... : ... .. . ...
ROW BA : ... .. . ... ... ... P81 : ... .. . ... ... ... ... : ... .. . ... : ... .. . ... : ... .. . ...
ROW BB : ... .. . ... ... ... P80 : ... .. 0 ... ... ... ... : ... .. . ... : ... .. . ... : ... .. . ...
ROW BC : ... .. . ... ... ... P7F : ... .. . ... ... ... ... : ... .. . ... : ... .. . ... : ... .. . ...
ROW BD : ... .. . ... ... ... P7E : D-3 00 2 ... ... ... ... : F-2 00 . ... : ... .. 5 ... : ... .. . ...
ROW BE : ... .. . ... ... ... P7D : ... .. 1 ... ... ... ... : ... .. . ... : ... .. 3 ... : ... .. . ...
ROW BF : ... .. . ... ... ... P7E : ... .. . ... ... ... ... : ... .. . ... : ... .. 1 ... : ... .. . ...
ROW C0 : ... .. . ... ... ... P7F : ... .. . ... ... ... ... : ... .. . ... : ... .. 0 ... : ... .. . ...
ROW C1 : ... .. . ... ... ... P80 : ... .. . ... ... ... ... : ... .. . ... : ... .. . ... : ... .. . ...
ROW C2 : ... .. . ... ... ... P81 : ... .. . ... ... ... ... : ... .. . ... : ... .. . ... : ... .. . ...
ROW C3 : ... .. . ... ... ... P82 : ... .. . ... ... ... ... : ... .. . ... : ... .. . ... : ... .. . ...
ROW C4 : ... .. . ... ... ... P83 : G#2 00 7 ... ... ... ... : ... .. . ... : 6-# 00 7 ... : ... .. . ...
ROW C5 : ... .. . ... ... ... P82 : ... .. 6 ... ... ... ... : ... .. . ... : ... .. 5 ... : ... .. . ...
ROW C6 : ... .. . ... ... ... P81 : ... .. 3 ... ... ... ... : ... .. . ... : ... .. 3 ... : ... .. . ...
ROW C7 : ... .. . ... ... ... P80 : ... .. 2 ... ... ... ... : ... .. . ... : ... .. 1 ... : ... .. . ...
ROW C8 : ... .. . ... ... ... P7F : ... .. . ... ... ... ... : ... .. . ... : ... .. 0 ... : ... .. . ...
ROW C9 : ... .. . ... ... ... P7E : ... .. 0 ... ... ... ... : --- .. . ... : ... .. . ... : ... .. . ...
ROW CA : ... .. . ... ... ... P7D : ... .. . ... ... ... ... : ... .. . ... : ... .. . ... : ... .. . ...
ROW CB : ... .. . ... ... ... P7E : F-2 00 2 ... ... ... ... : F-2 00 . S01 : ... .. . ... : ... .. . ...
ROW CC : ... .. . ... ... ... P7F : ... .. 1 ... ... ... ... : ... .. . ... : ... .. . ... : ... .. . ...
ROW CD : ... .. . ... ... ... P80 : ... .. . ... ... ... ... : ... .. . ... : ... .. . ... : ... .. . ...
ROW CE : ... .. . ... ... ... P81 : ... .. . ... ... ... ... : ... .. . ... : ... .. . ... : ... .. . ...
ROW CF : ... .. . ... ... ... P82 : ... .. . ... ... ... ... : ... .. . ... : ... .. . ... : ... .. . ...
ROW D0 : ... .. . ... ... ... P83 : ... .. . ... ... ... ... : ... .. . ... : ... .. . ... : ... .. . ...
ROW D1 : ... .. . ... ... ... P82 : ... .. . ... ... ... ... : ... .. . ... : ... .. . ... : ... .. . ...
ROW D2 : ... .. 4 ... ... ... P81 : A#2 00 7 ... ... ... ... : A#2 00 . ... : ... .. 2 ... : ... .. . ...
ROW D3 : ... .. . ... ... ... P80 : ... .. 6 ... ... ... ... : ... .. . ... : ... .. 1 ... : ... .. . ...
ROW D4 : ... .. . ... ... ... P7F : ... .. 3 ... ... ... ... : ... .. . ... : ... .. 0 ... : ... .. . ...
ROW D5 : ... .. 3 ... ... ... P7E : ... .. 2 ... ... ... ... : ... .. . ... : ... .. . ... : ... .. . ...
ROW D6 : ... .. . ... ... ... P7D : ... .. . ... ... ... ... : ... .. . ... : ... .. . ... : ... .. . ...
ROW D7 : ... .. . ... ... ... P7E : ... .. 0 ... ... ... ... : ... .. . ... : ... .. . ... : ... .. . ...
ROW D8 : ... .. 2 ... ... ... P7F : ... .. . ... ... ... ... : ... .. . ... : ... .. . ... : ... .. . ...
ROW D9 : ... .. . ... ... ... P80 : G#2 00 2 ... ... ... ... : ... .. . ... : 2-# 00 5 ... : ... .. . ...
ROW DA : ... .. . ... ... ... P81 : ... .. 1 ... ... ... ... : ... .. . ... : ... .. 3 ... : ... .. . ...
ROW DB : ... .. 1 ... ... ... P82 : ... .. . ... ... ... ... : ... .. . ... : ... .. 1 ... : ... .. . ...
ROW DC : ... .. . ... ... ... P83 : ... .. . ... ... ... ... : ... .. . ... : ... .. 0 ... : ... .. . ...
ROW DD : ... .. . ... ... ... P82 : ... .. . ... ... ... ... : ... .. . ... : ... .. . ... : ... .. . ...
ROW DE : ... .. . ... ... ... P81 : ... .. . ... ... ... ... : --- .. . ... : ... .. . ... : ... .. . ...
ROW DF : ... .. . ... ... ... P80 : ... .. . ... ... ... ... : ... .. . ... : ... .. . ... : ... .. . ...

PATTERN 2E
ROW 00 : --- .. . ... ... ... ... : --- .. . ... ... ... ... : D#3 00 . ... : 5-# 00 7 ... : ... .. . ...
ROW 01 : ... .. . ... ... ... ... : ... .. . ... ... ... ... : ... .. . ... : ... .. . ... : ... .. . ...
ROW 02 : ... .. . ... ... ... ... : ... .. . ... ... ... ... : ... .. . ... : ... .. . ... : ... .. . ...
ROW 03 : ... .. . ... ... ... ... : ... .. . ... ... ... ... : ... .. . ... : ... .. 0 ... : ... .. . ...
ROW 04 : ... .. . ... ... ... ... : ... .. . ... ... ... ... : ... .. . ... : ... .. . ... : ... .. . ...
ROW 05 : ... .. . ... ... ... ... : ... .. . ... ... ... ... : ... .. . ... : ... .. . ... : ... .. . ...
ROW 06 : ... .. . ... ... ... ... : ... .. . ... ... ... ... : ... .. . ... : ... .. . ... : ... .. . ...
ROW 07 : ... .. . ... ... ... ... : ... .. . ... ... ... ... : --- .. . ... : ... .. . ... : ... .. . ...
ROW 08 : ... .. . ... ... ... ... : ... .. . ... ... ... ... : ... .. . ... : ... .. . ... : ... .. . ...
ROW 09 : ... .. . ... ... ... ... : ... .. . ... ... ... ... : ... .. . ... : ... .. . ... : ... .. . ...
ROW 0A : ... .. . ... ... ... ... : ... .. . ... ... ... ... : ... .. . ... : ... .. . ... : ... .. . ...
ROW 0B : ... .. . ... ... ... ... : ... .. . ... ... ... ... : ... .. . ... : ... .. . ... : ... .. . ...
ROW 0C : ... .. . ... ... ... ... : ... .. . ... ... ... ... : ... .. . ... : ... .. . ... : ... .. . ...
ROW 0D : ... .. . ... ... ... ... : ... .. . ... ... ... ... : ... .. . ... : ... .. . ... : ... .. . ...
ROW 0E : G-3 00 4 P82 V02 ... ... : D#3 00 4 P82 V02 ... P80 : ... .. . ... : ... .. . ... : ... .. . ...
ROW 0F : ... .. . ... ... ... ... : ... .. . ... ... ... ... : ... .. . ... : ... .. . ... : ... .. . ...
ROW 10 : ... .. . ... ... ... ... : ... .. . ... ... ... ... : ... .. . ... : ... .. . ... : ... .. . ...
ROW 11 : ... .. . ... ... ... ... : ... .. . ... ... ... ... : ... .. . ... : ... .. . ... : ... .. . ...
ROW 12 : ... .. . P7E ... ... ... : ... .. . P7E ... ... ... : ... .. . ... : ... .. . ... : ... .. . ...
ROW 13 : ... .. . ... ... ... ... : ... .. . ... ... ... ... : ... .. . ... : ... .. . ... : ... .. . ...
ROW 14 : ... .. . ... ... ... ... : ... .. . ... ... ... ... : ... .. . ... : ... .. . ... : ... .. . ...
ROW 15 : ... .. 3 ... ... ... ... : ... .. 3 ... ... ... ... : --- .. . ... : ... .. . ... : ... .. . ...
ROW 16 : ... .. . P82 ... ... ... : ... .. . P82 ... ... ... : ... .. . ... : ... .. . ... : ... .. . ...
ROW 17 : ... .. . ... ... ... ... : ... .. . ... ... ... ... : ... .. . ... : ... .. . ... : ... .. . ...
ROW 18 : ... .. . ... ... ... ... : ... .. . ... ... ... ... : ... .. . ... : ... .. . ... : ... .. . ...
ROW 19 : ... .. . ... ... ... ... : ... .. . ... ... ... ... : ... .. . ... : ... .. . ... : ... .. . ...
ROW 1A : ... .. . P7E ... ... ... : ... .. . P7E ... ... ... : ... .. . ... : ... .. . ... : ... .. . ...
ROW 1B : ... .. . ... ... ... ... : ... .. . ... ... ... ... : ... .. . ... : ... .. . ... : ... .. . ...
ROW 1C : A-3 00 4 P82 V02 ... ... : F-3 00 4 P82 V02 ... ... : A#2 00 . ... : 5-# 00 7 ... : ... .. . ...
ROW 1D : ... .. . ... ... ... ... : ... .. . ... ... ... ... : ... .. . ... : ... .. . ... : ... .. . ...
ROW 1E : ... .. . ... ... ... ... : ... .. . ... ... ... ... : ... .. . ... : ... .. . ... : ... .. . ...
ROW 1F : ... .. . ... ... ... ... : ... .. . ... ... ... ... : ... .. . ... : ... .. 0 ... : ... .. . ...
ROW 20 : ... .. . P7E ... ... ... : ... .. . P7E ... ... ... : ... .. . ... : ... .. . ... : ... .. . ...
ROW 21 : ... .. . ... ... ... ... : ... .. . ... ... ... ... : ... .. . ... : ... .. . ... : ... .. . ...
ROW 22 : ... .. . ... ... ... ... : ... .. . ... ... ... ... : ... .. . ... : ... .. . ... : ... .. . ...
ROW 23 : ... .. 3 ... ... ... ... : ... .. 3 ... ... ... ... : --- .. . ... : ... .. . ... : ... .. . ...
ROW 24 : ... .. . P82 ... ... ... : ... .. . P82 ... ... ... : ... .. . ... : ... .. . ... : ... .. . ...
ROW 25 : ... .. . ... ... ... ... : ... .. . ... ... ... ... : ... .. . ... : ... .. . ... : ... .. . ...
ROW 26 : ... .. . ... ... ... ... : ... .. . ... ... ... ... : ... .. . ... : ... .. . ... : ... .. . ...
ROW 27 : ... .. . ... ... ... ... : ... .. . ... ... ... ... : ... .. . ... : ... .. . ... : ... .. . ...
ROW 28 : ... .. . P7E ... ... ... : ... .. . P7E ... ... ... : ... .. . ... : ... .. . ... : ... .. . ...
ROW 29 : ... .. . ... ... ... ... : ... .. . ... ... ... ... : ... .. . ... : ... .. . ... : ... .. . ...
ROW 2A : ... .. 2 ... ... ... ... : ... .. 2 ... ... ... ... : D#3 00 . ... : 5-# 00 7 ... : ... .. . ...
ROW 2B : ... .. . ... ... ... ... : ... .. . ... ... ... ... : ... .. . ... : ... .. . ... : ... .. . ...
ROW 2C : ... .. . P82 ... ... ... : ... .. . P82 ... ... ... : ... .. . ... : ... .. . ... : ... .. . ...
ROW 2D : ... .. . ... ... ... ... : ... .. . ... ... ... ... : ... .. . ... : ... .. 0 ... : ... .. . ...
ROW 2E : ... .. . ... ... ... ... : ... .. . ... ... ... ... : ... .. . ... : ... .. . ... : ... .. . ...
ROW 2F : ... .. . ... ... ... ... : ... .. . ... ... ... ... : ... .. . ... : ... .. . ... : ... .. . ...
ROW 30 : ... .. . P7E ... ... ... : ... .. . P7E ... ... ... : ... .. . ... : ... .. . ... : ... .. . ...
ROW 31 : ... .. 1 ... ... ... ... : ... .. 1 ... ... ... ... : --- .. . ... : ... .. . ... : ... .. . ...
ROW 32 : ... .. . ... ... ... ... : ... .. . ... ... ... ... : ... .. . ... : ... .. . ... : ... .. . ...
ROW 33 : ... .. . ... ... ... ... : ... .. . ... ... ... ... : ... .. . ... : ... .. . ... : ... .. . ...
ROW 34 : ... .. . P82 ... ... ... : ... .. . P82 ... ... ... : ... .. . ... : ... .. . ... : ... .. . ...
ROW 35 : ... .. . ... ... ... ... : ... .. . ... ... ... ... : ... .. . ... : ... .. . ... : ... .. . ...
ROW 36 : ... .. . ... ... ... ... : ... .. . ... ... ... ... : ... .. . ... : ... .. . ... : ... .. . ...
ROW 37 : ... .. . ... ... ... ... : ... .. . ... ... ... ... : ... .. . ... : ... .. . ... : ... .. . ...
ROW 38 : --- .. . ... ... ... ... : --- .. . ... ... ... ... : ... .. . ... : ... .. . ... : ... .. . ...
ROW 39 : ... .. . ... ... ... ... : ... .. . ... ... ... ... : ... .. . ... : ... .. . ... : ... .. . ...
ROW 3A : ... .. . ... ... ... ... : ... .. . ... ... ... ... : ... .. . ... : ... .. . ... : ... .. . ...
ROW 3B : ... .. . ... ... ... ... : ... .. . ... ... ... ... : ... .. . ... : ... .. . ... : ... .. . ...
ROW 3C : ... .. . ... ... ... ... : ... .. . ... ... ... ... : ... .. . ... : ... .. . ... : ... .. . ...
ROW 3D : ... .. . ... ... ... ... : ... .. . ... ... ... ... : ... .. . ... : ... .. . ... : ... .. . ...
ROW 3E : ... .. . ... ... ... ... : ... .. . ... ... ... ... : ... .. . ... : ... .. . ... : ... .. . ...
ROW 3F : ... .. . ... ... ... ... : ... .. . ... ... ... ... : ... .. . ... : ... .. . ... : ... .. . ...
ROW 40 : ... .. . ... ... ... ... : ... .. . ... ... ... ... : ... .. . ... : ... .. . ... : ... .. . ...
ROW 41 : ... .. . ... ... ... ... : ... .. . ... ... ... ... : ... .. . ... : ... .. . ... : ... .. . ...
ROW 42 : ... .. . ... ... ... ... : ... .. . ... ... ... ... : ... .. . ... : ... .. . ... : ... .. . ...
ROW 43 : ... .. . ... ... ... ... : ... .. . ... ... ... ... : ... .. . ... : ... .. . ... : ... .. . ...
ROW 44 : ... .. . ... ... ... ... : ... .. . ... ... ... ... : ... .. . ... : ... .. . ... : ... .. . ...
ROW 45 : ... .. . ... ... ... ... : ... .. . ... ... ... ... : ... .. . ... : ... .. . ... : ... .. . ...
ROW 46 : G-3 00 4 P82 V02 ... ... : D#3 00 4 P82 V02 ... P80 : D#3 00 . ... : 5-# 00 7 ... : ... .. . ...
ROW 47 : ... .. . ... ... ... ... : ... .. . ... ... ... ... : ... .. . ... : ... .. . ... : ... .. . ...
ROW 48 : ... .. . ... ... ... ... : ... .. . ... ... ... ... : ... .. . ... : ... .. . ... : ... .. . ...
ROW 49 : ... .. . ... ... ... ... : ... .. . ... ... ... ... : ... .. . ... : ... .. 0 ... : ... .. . ...
ROW 4A : ... .. . P7E ... ... ... : ... .. . P7E ... ... ... : ... .. . ... : ... .. . ... : ... .. . ...
ROW 4B : ... .. . ... ... ... ... : ... .. . ... ... ... ... : ... .. . ... : ... .. . ... : ... .. . ...
ROW 4C : ... .. . ... ... ... ... : ... .. . ... ... ... ... : ... .. . ... : ... .. . ... : ... .. . ...
ROW 4D : ... .. 3 ... ... ... ... : ... .. 3 ... ... ... ... : --- .. . ... : ... .. . ... : ... .. . ...
ROW 4E : ... .. . P82 ... ... ... : ... .. . P82 ... ... ... : ... .. . ... : ... .. . ... : ... .. . ...
ROW 4F : ... .. . ... ... ... ... : ... .. . ... ... ... ... : ... .. . ... : ... .. . ... : ... .. . ...
ROW 50 : ... .. . ... ... ... ... : ... .. . ... ... ... ... : ... .. . ... : ... .. . ... : ... .. . ...
ROW 51 : ... .. . ... ... ... ... : ... .. . ... ... ... ... : ... .. . ... : ... .. . ... : ... .. . ...
ROW 52 : ... .. . P7E ... ... ... : ... .. . P7E ... ... ... : ... .. . ... : ... .. . ... : ... .. . ...
ROW 53 : ... .. . ... ... ... ... : ... .. . ... ... ... ... : ... .. . ... : ... .. . ... : ... .. . ...
ROW 54 : A-3 00 4 P82 V02 ... ... : F-3 00 4 P82 V02 ... ... : ... .. . ... : ... .. . ... : ... .. . ...
ROW 55 : ... .. . ... ... ... ... : ... .. . ... ... ... ... : ... .. . ... : ... .. . ... : ... .. . ...
ROW 56 : ... .. . ... ... ... ... : ... .. . ... ... ... ... : ... .. . ... : ... .. . ... : ... .. . ...
ROW 57 : ... .. . ... ... ... ... : ... .. . ... ... ... ... : ... .. . ... : ... .. . ... : ... .. . ...
ROW 58 : ... .. . P7E ... ... ... : ... .. . P7E ... ... ... : ... .. . ... : ... .. . ... : ... .. . ...
ROW 59 : ... .. . ... ... ... ... : ... .. . ... ... ... ... : ... .. . ... : ... .. . ... : ... .. . ...
ROW 5A : ... .. . ... ... ... ... : ... .. . ... ... ... ... : ... .. . ... : ... .. . ... : ... .. . ...
ROW 5B : ... .. 3 ... ... ... ... : ... .. 3 ... ... ... ... : --- .. . ... : ... .. . ... : ... .. . ...
ROW 5C : ... .. . P82 ... ... ... : ... .. . P82 ... ... ... : ... .. . ... : ... .. . ... : ... .. . ...
ROW 5D : ... .. . ... ... ... ... : ... .. . ... ... ... ... : ... .. . ... : ... .. . ... : ... .. . ...
ROW 5E : ... .. . ... ... ... ... : ... .. . ... ... ... ... : ... .. . ... : ... .. . ... : ... .. . ...
ROW 5F : ... .. . ... ... ... ... : ... .. . ... ... ... ... : ... .. . ... : ... .. . ... : ... .. . ...
ROW 60 : ... .. . P7E ... ... ... : ... .. . P7E ... ... ... : ... .. . ... : ... .. . ... : ... .. . ...
ROW 61 : ... .. . ... ... ... ... : ... .. . ... ... ... ... : ... .. . ... : ... .. . ... : ... .. . ...
ROW 62 : ... .. 2 ... ... ... ... : ... .. 2 ... ... ... ... : A#2 00 . ... : 5-# 00 7 ... : ... .. . ...
ROW 63 : ... .. . ... ... ... ... : ... .. . ... ... ... ... : ... .. . ... : ... .. . ... : ... .. . ...
ROW 64 : ... .. . P82 ... ... ... : ... .. . P82 ... ... ... : ... .. . ... : ... .. . ... : ... .. . ...
ROW 65 : ... .. . ... ... ... ... : ... .. . ... ... ... ... : ... .. . ... : ... .. 0 ... : ... .. . ...
ROW 66 : ... .. . ... ... ... ... : ... .. . ... ... ... ... : ... .. . ... : ... .. . ... : ... .. . ...
ROW 67 : ... .. . ... ... ... ... : ... .. . ... ... ... ... : ... .. . ... : ... .. . ... : ... .. . ...
ROW 68 : ... .. . P7E ... ... ... : ... .. . P7E ... ... ... : ... .. . ... : ... .. . ... : ... .. . ...
ROW 69 : ... .. 1 ... ... ... ... : ... .. 1 ... ... ... ... : --- .. . ... : ... .. . ... : ... .. . ...
ROW 6A : ... .. . ... ... ... ... : ... .. . ... ... ... ... : ... .. . ... : ... .. . ... : ... .. . ...
ROW 6B : ... .. . ... ... ... ... : ... .. . ... ... ... ... : ... .. . ... : ... .. . ... : ... .. . ...
ROW 6C : ... .. . P82 ... ... ... : ... .. . P82 ... ... ... : ... .. . ... : ... .. . ... : ... .. . ...
ROW 6D : ... .. . ... ... ... ... : ... .. . ... ... ... ... : ... .. . ... : ... .. . ... : ... .. . ...
ROW 6E : ... .. . ... ... ... ... : ... .. . ... ... ... ... : ... .. . ... : ... .. . ... : ... .. . ...
ROW 6F : ... .. . ... ... ... ... : ... .. . ... ... ... ... : ... .. . ... : ... .. . ... : ... .. . ...
ROW 70 : --- .. . ... ... ... ... : --- .. . ... ... ... ... : D#3 00 . ... : 5-# 00 7 ... : ... .. . ...
ROW 71 : ... .. . ... ... ... ... : ... .. . ... ... ... ... : ... .. . ... : ... .. . ... : ... .. . ...
ROW 72 : ... .. . ... ... ... ... : ... .. . ... ... ... ... : ... .. . ... : ... .. . ... : ... .. . ...
ROW 73 : ... .. . ... ... ... ... : ... .. . ... ... ... ... : ... .. . ... : ... .. 0 ... : ... .. . ...
ROW 74 : ... .. . ... ... ... ... : ... .. . ... ... ... ... : ... .. . ... : ... .. . ... : ... .. . ...
ROW 75 : ... .. . ... ... ... ... : ... .. . ... ... ... ... : ... .. . ... : ... .. . ... : ... .. . ...
ROW 76 : ... .. . ... ... ... ... : ... .. . ... ... ... ... : ... .. . ... : ... .. . ... : ... .. . ...
ROW 77 : ... .. . ... ... ... ... : ... .. . ... ... ... ... : --- .. . ... : ... .. . ... : ... .. . ...
ROW 78 : ... .. . ... ... ... ... : ... .. . ... ... ... ... : ... .. . ... : ... .. . ... : ... .. . ...
ROW 79 : ... .. . ... ... ... ... : ... .. . ... ... ... ... : ... .. . ... : ... .. . ... : ... .. . ...
ROW 7A : ... .. . ... ... ... ... : ... .. . ... ... ... ... : ... .. . ... : ... .. . ... : ... .. . ...
ROW 7B : ... .. . ... ... ... ... : ... .. . ... ... ... ... : ... .. . ... : ... .. . ... : ... .. . ...
ROW 7C : ... .. . ... ... ... ... : ... .. . ... ... ... ... : ... .. . ... : ... .. . ... : ... .. . ...
ROW 7D : ... .. . ... ... ... ... : ... .. . ... ... ... ... : ... .. . ... : ... .. . ... : ... .. . ...
ROW 7E : G-3 00 4 P82 V02 ... ... : D#3 00 4 P82 V02 ... P80 : ... .. . ... : ... .. . ... : ... .. . ...
ROW 7F : ... .. . ... ... ... ... : ... .. . ... ... ... ... : ... .. . ... : ... .. . ... : ... .. . ...
ROW 80 : ... .. . ... ... ... ... : ... .. . ... ... ... ... : ... .. . ... : ... .. . ... : ... .. . ...
ROW 81 : ... .. . ... ... ... ... : ... .. . ... ... ... ... : ... .. . ... : ... .. . ... : ... .. . ...
ROW 82 : ... .. . P7E ... ... ... : ... .. . P7E ... ... ... : ... .. . ... : ... .. . ... : ... .. . ...
ROW 83 : ... .. . ... ... ... ... : ... .. . ... ... ... ... : ... .. . ... : ... .. . ... : ... .. . ...
ROW 84 : ... .. . ... ... ... ... : ... .. . ... ... ... ... : ... .. . ... : ... .. . ... : ... .. . ...
ROW 85 : ... .. 3 ... ... ... ... : ... .. 3 ... ... ... ... : --- .. . ... : ... .. . ... : ... .. . ...
ROW 86 : ... .. . P82 ... ... ... : ... .. . P82 ... ... ... : ... .. . ... : ... .. . ... : ... .. . ...
ROW 87 : ... .. . ... ... ... ... : ... .. . ... ... ... ... : ... .. . ... : ... .. . ... : ... .. . ...
ROW 88 : ... .. . ... ... ... ... : ... .. . ... ... ... ... : ... .. . ... : ... .. . ... : ... .. . ...
ROW 89 : ... .. . ... ... ... ... : ... .. . ... ... ... ... : ... .. . ... : ... .. . ... : ... .. . ...
ROW 8A : ... .. . P7E ... ... ... : ... .. . P7E ... ... ... : ... .. . ... : ... .. . ... : ... .. . ...
ROW 8B : ... .. . ... ... ... ... : ... .. . ... ... ... ... : ... .. . ... : ... .. . ... : ... .. . ...
ROW 8C : A-3 00 4 P82 V02 ... ... : D#3 00 4 P82 V02 ... ... : D#3 00 . ... : 5-# 00 7 ... : ... .. . ...
ROW 8D : ... .. . ... ... ... ... : ... .. . ... ... ... ... : ... .. . ... : ... .. . ... : ... .. . ...
ROW 8E : ... .. . ... ... ... ... : ... .. . ... ... ... ... : ... .. . ... : ... .. . ... : ... .. . ...
ROW 8F : ... .. . ... ... ... ... : ... .. . ... ... ... ... : ... .. . ... : ... .. 0 ... : ... .. . ...
ROW 90 : ... .. . P7E ... ... ... : ... .. . P7E ... ... ... : ... .. . ... : ... .. . ... : ... .. . ...
ROW 91 : ... .. . ... ... ... ... : ... .. . ... ... ... ... : ... .. . ... : ... .. . ... : ... .. . ...
ROW 92 : ... .. . ... ... ... ... : ... .. . ... ... ... ... : ... .. . ... : ... .. . ... : ... .. . ...
ROW 93 : ... .. 3 ... ... ... ... : ... .. 3 ... ... ... ... : --- .. . ... : ... .. . ... : ... .. . ...
ROW 94 : ... .. . P82 ... ... ... : ... .. . P82 ... ... ... : ... .. . ... : ... .. . ... : ... .. . ...
ROW 95 : ... .. . ... ... ... ... : ... .. . ... ... ... ... : ... .. . ... : ... .. . ... : ... .. . ...
ROW 96 : ... .. . ... ... ... ... : ... .. . ... ... ... ... : ... .. . ... : ... .. . ... : ... .. . ...
ROW 97 : ... .. . ... ... ... ... : ... .. . ... ... ... ... : ... .. . ... : ... .. . ... : ... .. . ...
ROW 98 : ... .. . P7E ... ... ... : ... .. . P7E ... ... ... : ... .. . ... : ... .. . ... : ... .. . ...
ROW 99 : ... .. . ... ... ... ... : ... .. . ... ... ... ... : ... .. . ... : ... .. . ... : ... .. . ...
ROW 9A : C-4 00 4 P82 V02 ... ... : D#3 00 4 P82 V02 ... ... : A#2 00 . ... : 5-# 00 7 ... : ... .. . ...
ROW 9B : ... .. . ... ... ... ... : ... .. . ... ... ... ... : ... .. . ... : ... .. . ... : ... .. . ...
ROW 9C : ... .. . ... ... ... ... : ... .. . ... ... ... ... : ... .. . ... : ... .. . ... : ... .. . ...
ROW 9D : ... .. . ... ... ... ... : ... .. . ... ... ... ... : ... .. . ... : ... .. 0 ... : ... .. . ...
ROW 9E : ... .. . P7E ... ... ... : ... .. . P7E ... ... ... : ... .. . ... : ... .. . ... : ... .. . ...
ROW 9F : ... .. . ... ... ... ... : ... .. . ... ... ... ... : ... .. . ... : ... .. . ... : ... .. . ...
ROW A0 : ... .. . ... ... ... ... : ... .. . ... ... ... ... : ... .. . ... : ... .. . ... : ... .. . ...
ROW A1 : ... .. 3 ... ... ... ... : ... .. 3 ... ... ... ... : --- .. . ... : ... .. . ... : ... .. . ...
ROW A2 : ... .. . P82 ... ... ... : ... .. . P82 ... ... ... : ... .. . ... : ... .. . ... : ... .. . ...
ROW A3 : ... .. . ... ... ... ... : ... .. . ... ... ... ... : ... .. . ... : ... .. . ... : ... .. . ...
ROW A4 : ... .. . ... ... ... ... : ... .. . ... ... ... ... : ... .. . ... : ... .. . ... : ... .. . ...
ROW A5 : ... .. . ... ... ... ... : ... .. . ... ... ... ... : ... .. . ... : ... .. . ... : ... .. . ...
ROW A6 : ... .. . P7E ... ... ... : ... .. . P7E ... ... ... : ... .. . ... : ... .. . ... : ... .. . ...
ROW A7 : ... .. . ... ... ... ... : ... .. . ... ... ... ... : ... .. . ... : ... .. . ... : ... .. . ...
ROW A8 : A#3 00 4 P82 V02 ... ... : D-3 00 4 P82 V02 ... ... : ... .. . ... : ... .. . ... : ... .. . ...
ROW A9 : ... .. . ... ... ... ... : ... .. . ... ... ... ... : ... .. . ... : ... .. . ... : ... .. . ...
ROW AA : ... .. . ... ... ... ... : ... .. . ... ... ... ... : ... .. . ... : ... .. . ... : ... .. . ...
ROW AB : ... .. . ... ... ... ... : ... .. . ... ... ... ... : ... .. . ... : ... .. . ... : ... .. . ...
ROW AC : ... .. . P7E ... ... ... : ... .. . P7E ... ... ... : ... .. . ... : ... .. . ... : ... .. . ...
ROW AD : ... .. . ... ... ... ... : ... .. . ... ... ... ... : ... .. . ... : ... .. . ... : ... .. . ...
ROW AE : ... .. . ... ... ... ... : ... .. . ... ... ... ... : ... .. . ... : ... .. . ... : ... .. . ...
ROW AF : ... .. 3 ... ... ... ... : ... .. 3 ... ... ... ... : ... .. . ... : ... .. . ... : ... .. . ...
ROW B0 : ... .. . P82 ... ... ... : ... .. . P82 ... ... ... : ... .. . ... : ... .. . ... : ... .. . ...
ROW B1 : ... .. . ... ... ... ... : ... .. . ... ... ... ... : ... .. . ... : ... .. . ... : ... .. . ...
ROW B2 : ... .. . ... ... ... ... : ... .. . ... ... ... ... : ... .. . ... : ... .. . ... : ... .. . ...
ROW B3 : ... .. . ... ... ... ... : ... .. . ... ... ... ... : ... .. . ... : ... .. . ... : ... .. . ...
ROW B4 : ... .. . P7E ... ... ... : ... .. . P7E ... ... ... : ... .. . ... : ... .. . ... : ... .. . ...
ROW B5 : ... .. . ... ... ... ... : ... .. . ... ... ... ... : ... .. . ... : ... .. . ... : ... .. . ...
ROW B6 : ... .. 2 ... ... ... ... : ... .. 2 ... ... ... ... : A#2 00 . ... : 5-# 00 7 ... : ... .. . ...
ROW B7 : ... .. . ... ... ... ... : ... .. . ... ... ... ... : ... .. . ... : ... .. . ... : ... .. . ...
ROW B8 : ... .. . P82 ... ... ... : ... .. . P82 ... ... ... : ... .. . ... : ... .. . ... : ... .. . ...
ROW B9 : ... .. . ... ... ... ... : ... .. . ... ... ... ... : ... .. . ... : ... .. 0 ... : ... .. . ...
ROW BA : ... .. . ... ... ... ... : ... .. . ... ... ... ... : ... .. . ... : ... .. . ... : ... .. . ...
ROW BB : ... .. . ... ... ... ... : ... .. . ... ... ... ... : ... .. . ... : ... .. . ... : ... .. . ...
ROW BC : ... .. . P7E ... ... ... : ... .. . P7E ... ... ... : ... .. . ... : ... .. . ... : ... .. . ...
ROW BD : ... .. 1 ... ... ... ... : ... .. 1 ... ... ... ... : --- .. . ... : ... .. . ... : ... .. . ...
ROW BE : ... .. . ... ... ... ... : ... .. . ... ... ... ... : ... .. . ... : ... .. . ... : ... .. . ...
ROW BF : ... .. . ... ... ... ... : ... .. . ... ... ... ... : ... .. . ... : ... .. . ... : ... .. . ...
ROW C0 : ... .. . P82 ... ... ... : ... .. . P82 ... ... ... : ... .. . ... : ... .. . ... : ... .. . ...
ROW C1 : ... .. . ... ... ... ... : ... .. . ... ... ... ... : ... .. . ... : ... .. . ... : ... .. . ...
ROW C2 : ... .. . ... ... ... ... : ... .. . ... ... ... ... : ... .. . ... : ... .. . ... : ... .. . ...
ROW C3 : ... .. . ... ... ... ... : ... .. . ... ... ... ... : ... .. . ... : ... .. . ... : ... .. . ...
ROW C4 : F-3 00 4 P82 V02 ... ... : D-3 00 4 P82 V02 ... ... : ... .. . ... : ... .. . ... : ... .. . ...
ROW C5 : ... .. . ... ... ... ... : ... .. . ... ... ... ... : ... .. . ... : ... .. . ... : ... .. . ...
ROW C6 : ... .. . ... ... ... ... : ... .. . ... ... ... ... : ... .. . ... : ... .. . ... : ... .. . ...
ROW C7 : ... .. . ... ... ... ... : ... .. . ... ... ... ... : ... .. . ... : ... .. . ... : ... .. . ...
ROW C8 : ... .. . P7E ... ... ... : ... .. . P7E ... ... ... : ... .. . ... : ... .. . ... : ... .. . ...
ROW C9 : ... .. . ... ... ... ... : ... .. . ... ... ... ... : ... .. . ... : ... .. . ... : ... .. . ...
ROW CA : ... .. . ... ... ... ... : ... .. . ... ... ... ... : ... .. . ... : ... .. . ... : ... .. . ...
ROW CB : ... .. 3 ... ... ... ... : ... .. 3 ... ... ... ... : ... .. . ... : ... .. . ... : ... .. . ...
ROW CC : ... .. . P82 ... ... ... : ... .. . P82 ... ... ... : ... .. . ... : ... .. . ... : ... .. . ...
ROW CD : ... .. . ... ... ... ... : ... .. . ... ... ... ... : ... .. . ... : ... .. . ... : ... .. . ...
ROW CE : ... .. . ... ... ... ... : ... .. . ... ... ... ... : ... .. . ... : ... .. . ... : ... .. . ...
ROW CF : ... .. . ... ... ... ... : ... .. . ... ... ... ... : ... .. . ... : ... .. . ... : ... .. . ...
ROW D0 : ... .. . P7E ... ... ... : ... .. . P7E ... ... ... : ... .. . ... : ... .. . ... : ... .. . ...
ROW D1 : ... .. . ... ... ... ... : ... .. . ... ... ... ... : ... .. . ... : ... .. . ... : ... .. . ...
ROW D2 : ... .. 2 ... ... ... ... : E-5 00 2 P80 V02 I63 ... : A#2 00 . ... : 5-# 00 7 ... : ... .. . ...
ROW D3 : ... .. . ... ... ... ... : ... .. . ... ... ... ... : ... .. . ... : ... .. . ... : ... .. . ...
ROW D4 : ... .. . P82 ... ... ... : ... .. . ... ... ... ... : ... .. . ... : ... .. . ... : ... .. . ...
ROW D5 : ... .. . ... ... ... ... : ... .. . ... ... ... ... : ... .. . ... : ... .. 0 ... : ... .. . ...
ROW D6 : ... .. . ... ... ... ... : ... .. . ... ... ... ... : ... .. . ... : ... .. . ... : ... .. . ...
ROW D7 : ... .. . ... ... ... ... : ... .. . ... ... ... ... : ... .. . ... : ... .. . ... : ... .. . ...
ROW D8 : ... .. . P7E ... ... ... : ... .. . ... ... ... ... : ... .. . ... : ... .. . ... : ... .. . ...
ROW D9 : ... .. 1 ... ... ... ... : ... .. . ... ... ... ... : --- .. . ... : ... .. . ... : ... .. . ...
ROW DA : ... .. . ... ... ... ... : ... .. . ... ... ... ... : ... .. . ... : ... .. . ... : ... .. . ...
ROW DB : ... .. . ... ... ... ... : ... .. . ... ... ... ... : ... .. . ... : ... .. . ... : ... .. . ...
ROW DC : ... .. . P82 ... ... ... : ... .. . ... ... ... ... : ... .. . ... : ... .. . ... : ... .. . ...
ROW DD : ... .. . ... ... ... ... : ... .. . ... ... ... ... : ... .. . ... : ... .. . ... : ... .. . ...
ROW DE : ... .. . ... ... ... ... : D-5 00 2 P7F ... I63 ... : ... .. . ... : ... .. . ... : ... .. . ...
ROW DF : ... .. . ... ... ... ... : ... .. . ... ... ... ... : ... .. . ... : ... .. . ... : ... .. . ...

PATTERN 2F
ROW 00 : --- .. . ... ... ... ... : ... .. . ... ... ... ... : D#3 00 . ... : 5-# 00 7 ... : ... .. . ...
ROW 01 : ... .. . ... ... ... ... : ... .. . ... ... ... ... : ... .. . ... : ... .. . ... : ... .. . ...
ROW 02 : ... .. . ... ... ... ... : ... .. . ... ... ... ... : ... .. . ... : ... .. . ... : ... .. . ...
ROW 03 : ... .. . ... ... ... ... : ... .. . ... ... ... ... : ... .. . ... : ... .. 0 ... : ... .. . ...
ROW 04 : ... .. . ... ... ... ... : ... .. . ... ... ... ... : ... .. . ... : ... .. . ... : ... .. . ...
ROW 05 : ... .. . ... ... ... ... : ... .. . ... ... ... ... : ... .. . ... : ... .. . ... : ... .. . ...
ROW 06 : ... .. . ... ... ... ... : ... .. . ... ... ... ... : ... .. . ... : ... .. . ... : ... .. . ...
ROW 07 : ... .. . ... ... ... ... : ... .. . ... ... ... ... : --- .. . ... : ... .. . ... : ... .. . ...
ROW 08 : ... .. . ... ... ... ... : ... .. . ... ... ... ... : ... .. . ... : ... .. . ... : ... .. . ...
ROW 09 : ... .. . ... ... ... ... : ... .. . ... ... ... ... : ... .. . ... : ... .. . ... : ... .. . ...
ROW 0A : ... .. . ... ... ... ... : --- .. . ... ... ... ... : ... .. . ... : ... .. . ... : ... .. . ...
ROW 0B : ... .. . ... ... ... ... : ... .. . ... ... ... ... : ... .. . ... : ... .. . ... : ... .. . ...
ROW 0C : ... .. . ... ... ... ... : ... .. . ... ... ... ... : ... .. . ... : ... .. . ... : ... .. . ...
ROW 0D : ... .. . ... ... ... ... : ... .. . ... ... ... ... : ... .. . ... : ... .. . ... : ... .. . ...
ROW 0E : G-3 00 4 P82 V02 ... ... : D#3 00 4 P82 V02 ... P80 : ... .. . ... : ... .. . ... : ... .. . ...
ROW 0F : ... .. . ... ... ... ... : ... .. . ... ... ... ... : ... .. . ... : ... .. . ... : ... .. . ...
ROW 10 : ... .. . ... ... ... ... : ... .. . ... ... ... ... : ... .. . ... : ... .. . ... : ... .. . ...
ROW 11 : ... .. . ... ... ... ... : ... .. . ... ... ... ... : ... .. . ... : ... .. . ... : ... .. . ...
ROW 12 : ... .. . P7E ... ... ... : ... .. . P7E ... ... ... : ... .. . ... : ... .. . ... : ... .. . ...
ROW 13 : ... .. . ... ... ... ... : ... .. . ... ... ... ... : ... .. . ... : ... .. . ... : ... .. . ...
ROW 14 : ... .. . ... ... ... ... : ... .. . ... ... ... ... : ... .. . ... : ... .. . ... : ... .. . ...
ROW 15 : ... .. 3 ... ... ... ... : ... .. 3 ... ... ... ... : --- .. . ... : ... .. . ... : ... .. . ...
ROW 16 : ... .. . P82 ... ... ... : ... .. . P82 ... ... ... : ... .. . ... : ... .. . ... : ... .. . ...
ROW 17 : ... .. . ... ... ... ... : ... .. . ... ... ... ... : ... .. . ... : ... .. . ... : ... .. . ...
ROW 18 : ... .. . ... ... ... ... : ... .. . ... ... ... ... : ... .. . ... : ... .. . ... : ... .. . ...
ROW 19 : ... .. . ... ... ... ... : ... .. . ... ... ... ... : ... .. . ... : ... .. . ... : ... .. . ...
ROW 1A : ... .. . P7E ... ... ... : ... .. . P7E ... ... ... : ... .. . ... : ... .. . ... : ... .. . ...
ROW 1B : ... .. . ... ... ... ... : ... .. . ... ... ... ... : ... .. . ... : ... .. . ... : ... .. . ...
ROW 1C : A-3 00 4 P82 V02 ... ... : F-3 00 4 P82 V02 ... ... : A#2 00 . ... : 5-# 00 7 ... : ... .. . ...
ROW 1D : ... .. . ... ... ... ... : ... .. . ... ... ... ... : ... .. . ... : ... .. . ... : ... .. . ...
ROW 1E : ... .. . ... ... ... ... : ... .. . ... ... ... ... : ... .. . ... : ... .. . ... : ... .. . ...
ROW 1F : ... .. . ... ... ... ... : ... .. . ... ... ... ... : ... .. . ... : ... .. 0 ... : ... .. . ...
ROW 20 : ... .. . P7E ... ... ... : ... .. . P7E ... ... ... : ... .. . ... : ... .. . ... : ... .. . ...
ROW 21 : ... .. . ... ... ... ... : ... .. . ... ... ... ... : ... .. . ... : ... .. . ... : ... .. . ...
ROW 22 : ... .. . ... ... ... ... : ... .. . ... ... ... ... : ... .. . ... : ... .. . ... : ... .. . ...
ROW 23 : ... .. 3 ... ... ... ... : ... .. 3 ... ... ... ... : --- .. . ... : ... .. . ... : ... .. . ...
ROW 24 : ... .. . P82 ... ... ... : ... .. . P82 ... ... ... : ... .. . ... : ... .. . ... : ... .. . ...
ROW 25 : ... .. . ... ... ... ... : ... .. . ... ... ... ... : ... .. . ... : ... .. . ... : ... .. . ...
ROW 26 : ... .. . ... ... ... ... : ... .. . ... ... ... ... : ... .. . ... : ... .. . ... : ... .. . ...
ROW 27 : ... .. . ... ... ... ... : ... .. . ... ... ... ... : ... .. . ... : ... .. . ... : ... .. . ...
ROW 28 : ... .. . P7E ... ... ... : ... .. . P7E ... ... ... : ... .. . ... : ... .. . ... : ... .. . ...
ROW 29 : ... .. . ... ... ... ... : ... .. . ... ... ... ... : ... .. . ... : ... .. . ... : ... .. . ...
ROW 2A : ... .. 2 ... ... ... ... : ... .. 2 ... ... ... ... : D#3 00 . ... : 5-# 00 7 ... : ... .. . ...
ROW 2B : ... .. . ... ... ... ... : ... .. . ... ... ... ... : ... .. . ... : ... .. . ... : ... .. . ...
ROW 2C : ... .. . P82 ... ... ... : ... .. . P82 ... ... ... : ... .. . ... : ... .. . ... : ... .. . ...
ROW 2D : ... .. . ... ... ... ... : ... .. . ... ... ... ... : ... .. . ... : ... .. 0 ... : ... .. . ...
ROW 2E : ... .. . ... ... ... ... : ... .. . ... ... ... ... : ... .. . ... : ... .. . ... : ... .. . ...
ROW 2F : ... .. . ... ... ... ... : ... .. . ... ... ... ... : ... .. . ... : ... .. . ... : ... .. . ...
ROW 30 : ... .. . P7E ... ... ... : ... .. . P7E ... ... ... : ... .. . ... : ... .. . ... : ... .. . ...
ROW 31 : ... .. 1 ... ... ... ... : ... .. 1 ... ... ... ... : --- .. . ... : ... .. . ... : ... .. . ...
ROW 32 : ... .. . ... ... ... ... : ... .. . ... ... ... ... : ... .. . ... : ... .. . ... : ... .. . ...
ROW 33 : ... .. . ... ... ... ... : ... .. . ... ... ... ... : ... .. . ... : ... .. . ... : ... .. . ...
ROW 34 : ... .. . P82 ... ... ... : ... .. . P82 ... ... ... : ... .. . ... : ... .. . ... : ... .. . ...
ROW 35 : ... .. . ... ... ... ... : ... .. . ... ... ... ... : ... .. . ... : ... .. . ... : ... .. . ...
ROW 36 : ... .. . ... ... ... ... : ... .. . ... ... ... ... : ... .. . ... : ... .. . ... : ... .. . ...
ROW 37 : ... .. . ... ... ... ... : ... .. . ... ... ... ... : ... .. . ... : ... .. . ... : ... .. . ...
ROW 38 : ... .. 0 ... ... ... ... : ... .. 0 ... ... ... ... : ... .. . ... : ... .. . ... : ... .. . ...
ROW 39 : ... .. . ... ... ... ... : ... .. . ... ... ... ... : ... .. . ... : ... .. . ... : ... .. . ...
ROW 3A : ... .. . ... ... ... ... : ... .. . ... ... ... ... : ... .. . ... : ... .. . ... : ... .. . ...
ROW 3B : ... .. . ... ... ... ... : ... .. . ... ... ... ... : ... .. . ... : ... .. . ... : ... .. . ...
ROW 3C : ... .. . ... ... ... ... : ... .. . ... ... ... ... : ... .. . ... : ... .. . ... : ... .. . ...
ROW 3D : ... .. . ... ... ... ... : ... .. . ... ... ... ... : ... .. . ... : ... .. . ... : ... .. . ...
ROW 3E : ... .. . ... ... ... ... : ... .. . ... ... ... ... : ... .. . ... : ... .. . ... : ... .. . ...
ROW 3F : ... .. . ... ... ... ... : ... .. . ... ... ... ... : ... .. . ... : ... .. . ... : ... .. . ...
ROW 40 : ... .. . ... ... ... ... : ... .. . ... ... ... ... : ... .. . ... : ... .. . ... : ... .. . ...
ROW 41 : ... .. . ... ... ... ... : ... .. . ... ... ... ... : ... .. . ... : ... .. . ... : ... .. . ...
ROW 42 : ... .. . ... ... ... ... : ... .. . ... ... ... ... : ... .. . ... : ... .. . ... : ... .. . ...
ROW 43 : ... .. . ... ... ... ... : ... .. . ... ... ... ... : ... .. . ... : ... .. . ... : ... .. . ...
ROW 44 : ... .. . ... ... ... ... : ... .. . ... ... ... ... : ... .. . ... : ... .. . ... : ... .. . ...
ROW 45 : ... .. . ... ... ... ... : ... .. . ... ... ... ... : ... .. . ... : ... .. . ... : ... .. . ...
ROW 46 : G-3 00 4 P82 V02 ... ... : D#3 00 4 P82 V02 ... P80 : D#3 00 . ... : 5-# 00 7 ... : ... .. . ...
ROW 47 : ... .. . ... ... ... ... : ... .. . ... ... ... ... : ... .. . ... : ... .. . ... : ... .. . ...
ROW 48 : ... .. . ... ... ... ... : ... .. . ... ... ... ... : ... .. . ... : ... .. . ... : ... .. . ...
ROW 49 : ... .. . ... ... ... ... : ... .. . ... ... ... ... : ... .. . ... : ... .. 0 ... : ... .. . ...
ROW 4A : ... .. . P7E ... ... ... : ... .. . P7E ... ... ... : ... .. . ... : ... .. . ... : ... .. . ...
ROW 4B : ... .. . ... ... ... ... : ... .. . ... ... ... ... : ... .. . ... : ... .. . ... : ... .. . ...
ROW 4C : ... .. . ... ... ... ... : ... .. . ... ... ... ... : ... .. . ... : ... .. . ... : ... .. . ...
ROW 4D : ... .. 3 ... ... ... ... : ... .. 3 ... ... ... ... : --- .. . ... : ... .. . ... : ... .. . ...
ROW 4E : ... .. . P82 ... ... ... : ... .. . P82 ... ... ... : ... .. . ... : ... .. . ... : ... .. . ...
ROW 4F : ... .. . ... ... ... ... : ... .. . ... ... ... ... : ... .. . ... : ... .. . ... : ... .. . ...
ROW 50 : ... .. . ... ... ... ... : ... .. . ... ... ... ... : ... .. . ... : ... .. . ... : ... .. . ...
ROW 51 : ... .. . ... ... ... ... : ... .. . ... ... ... ... : ... .. . ... : ... .. . ... : ... .. . ...
ROW 52 : ... .. . P7E ... ... ... : ... .. . P7E ... ... ... : ... .. . ... : ... .. . ... : ... .. . ...
ROW 53 : ... .. . ... ... ... ... : ... .. . ... ... ... ... : ... .. . ... : ... .. . ... : ... .. . ...
ROW 54 : A-3 00 4 P82 V02 ... ... : F-3 00 4 P82 V02 ... ... : ... .. . ... : ... .. . ... : ... .. . ...
ROW 55 : ... .. . ... ... ... ... : ... .. . ... ... ... ... : ... .. . ... : ... .. . ... : ... .. . ...
ROW 56 : ... .. . ... ... ... ... : ... .. . ... ... ... ... : ... .. . ... : ... .. . ... : ... .. . ...
ROW 57 : ... .. . ... ... ... ... : ... .. . ... ... ... ... : ... .. . ... : ... .. . ... : ... .. . ...
ROW 58 : ... .. . P7E ... ... ... : ... .. . P7E ... ... ... : ... .. . ... : ... .. . ... : ... .. . ...
ROW 59 : ... .. . ... ... ... ... : ... .. . ... ... ... ... : ... .. . ... : ... .. . ... : ... .. . ...
ROW 5A : ... .. . ... ... ... ... : ... .. . ... ... ... ... : ... .. . ... : ... .. . ... : ... .. . ...
ROW 5B : ... .. 3 ... ... ... ... : ... .. 3 ... ... ... ... : --- .. . ... : ... .. . ... : ... .. . ...
ROW 5C : ... .. . P82 ... ... ... : ... .. . P82 ... ... ... : ... .. . ... : ... .. . ... : ... .. . ...
ROW 5D : ... .. . ... ... ... ... : ... .. . ... ... ... ... : ... .. . ... : ... .. . ... : ... .. . ...
ROW 5E : ... .. . ... ... ... ... : ... .. . ... ... ... ... : ... .. . ... : ... .. . ... : ... .. . ...
ROW 5F : ... .. . ... ... ... ... : ... .. . ... ... ... ... : ... .. . ... : ... .. . ... : ... .. . ...
ROW 60 : ... .. . P7E ... ... ... : ... .. . P7E ... ... ... : ... .. . ... : ... .. . ... : ... .. . ...
ROW 61 : ... .. . ... ... ... ... : ... .. . ... ... ... ... : ... .. . ... : ... .. . ... : ... .. . ...
ROW 62 : ... .. 2 ... ... ... ... : ... .. 2 ... ... ... ... : A#2 00 . ... : 5-# 00 7 ... : ... .. . ...
ROW 63 : ... .. . ... ... ... ... : ... .. . ... ... ... ... : ... .. . ... : ... .. . ... : ... .. . ...
ROW 64 : ... .. . P82 ... ... ... : ... .. . P82 ... ... ... : ... .. . ... : ... .. . ... : ... .. . ...
ROW 65 : ... .. . ... ... ... ... : ... .. . ... ... ... ... : ... .. . ... : ... .. 0 ... : ... .. . ...
ROW 66 : ... .. . ... ... ... ... : ... .. . ... ... ... ... : ... .. . ... : ... .. . ... : ... .. . ...
ROW 67 : ... .. . ... ... ... ... : ... .. . ... ... ... ... : ... .. . ... : ... .. . ... : ... .. . ...
ROW 68 : ... .. . P7E ... ... ... : ... .. . P7E ... ... ... : ... .. . ... : ... .. . ... : ... .. . ...
ROW 69 : ... .. 1 ... ... ... ... : ... .. 1 ... ... ... ... : --- .. . ... : ... .. . ... : ... .. . ...
ROW 6A : ... .. . ... ... ... ... : ... .. . ... ... ... ... : ... .. . ... : ... .. . ... : ... .. . ...
ROW 6B : ... .. . ... ... ... ... : ... .. . ... ... ... ... : ... .. . ... : ... .. . ... : ... .. . ...
ROW 6C : ... .. . P82 ... ... ... : ... .. . P82 ... ... ... : ... .. . ... : ... .. . ... : ... .. . ...
ROW 6D : ... .. . ... ... ... ... : ... .. . ... ... ... ... : ... .. . ... : ... .. . ... : ... .. . ...
ROW 6E : ... .. . ... ... ... ... : ... .. . ... ... ... ... : ... .. . ... : ... .. . ... : ... .. . ...
ROW 6F : ... .. . ... ... ... ... : ... .. . ... ... ... ... : ... .. . ... : ... .. . ... : ... .. . ...
ROW 70 : ... .. 0 ... ... ... ... : ... .. 0 ... ... ... ... : D#3 00 . ... : 5-# 00 7 ... : ... .. . ...
ROW 71 : ... .. . ... ... ... ... : ... .. . ... ... ... ... : ... .. . ... : ... .. . ... : ... .. . ...
ROW 72 : ... .. . ... ... ... ... : ... .. . ... ... ... ... : ... .. . ... : ... .. . ... : ... .. . ...
ROW 73 : ... .. . ... ... ... ... : ... .. . ... ... ... ... : ... .. . ... : ... .. 0 ... : ... .. . ...
ROW 74 : ... .. . ... ... ... ... : ... .. . ... ... ... ... : ... .. . ... : ... .. . ... : ... .. . ...
ROW 75 : ... .. . ... ... ... ... : ... .. . ... ... ... ... : ... .. . ... : ... .. . ... : ... .. . ...
ROW 76 : ... .. . ... ... ... ... : ... .. . ... ... ... ... : ... .. . ... : ... .. . ... : ... .. . ...
ROW 77 : ... .. . ... ... ... ... : ... .. . ... ... ... ... : --- .. . ... : ... .. . ... : ... .. . ...
ROW 78 : ... .. . ... ... ... ... : ... .. . ... ... ... ... : ... .. . ... : ... .. . ... : ... .. . ...
ROW 79 : ... .. . ... ... ... ... : ... .. . ... ... ... ... : ... .. . ... : ... .. . ... : ... .. . ...
ROW 7A : ... .. . ... ... ... ... : ... .. . ... ... ... ... : ... .. . ... : ... .. . ... : ... .. . ...
ROW 7B : ... .. . ... ... ... ... : ... .. . ... ... ... ... : ... .. . ... : ... .. . ... : ... .. . ...
ROW 7C : ... .. . ... ... ... ... : ... .. . ... ... ... ... : ... .. . ... : ... .. . ... : ... .. . ...
ROW 7D : ... .. . ... ... ... ... : ... .. . ... ... ... ... : ... .. . ... : ... .. . ... : ... .. . ...
ROW 7E : G-3 00 4 P82 V02 ... ... : D#3 00 4 P82 V02 ... P80 : ... .. . ... : ... .. . ... : ... .. . ...
ROW 7F : ... .. . ... ... ... ... : ... .. . ... ... ... ... : ... .. . ... : ... .. . ... : ... .. . ...
ROW 80 : ... .. . ... ... ... ... : ... .. . ... ... ... ... : ... .. . ... : ... .. . ... : ... .. . ...
ROW 81 : ... .. . ... ... ... ... : ... .. . ... ... ... ... : ... .. . ... : ... .. . ... : ... .. . ...
ROW 82 : ... .. . P7E ... ... ... : ... .. . P7E ... ... ... : ... .. . ... : ... .. . ... : ... .. . ...
ROW 83 : ... .. . ... ... ... ... : ... .. . ... ... ... ... : ... .. . ... : ... .. . ... : ... .. . ...
ROW 84 : ... .. . ... ... ... ... : ... .. . ... ... ... ... : ... .. . ... : ... .. . ... : ... .. . ...
ROW 85 : ... .. 3 ... ... ... ... : ... .. 3 ... ... ... ... : --- .. . ... : ... .. . ... : ... .. . ...
ROW 86 : ... .. . P82 ... ... ... : ... .. . P82 ... ... ... : ... .. . ... : ... .. . ... : ... .. . ...
ROW 87 : ... .. . ... ... ... ... : ... .. . ... ... ... ... : ... .. . ... : ... .. . ... : ... .. . ...
ROW 88 : ... .. . ... ... ... ... : ... .. . ... ... ... ... : ... .. . ... : ... .. . ... : ... .. . ...
ROW 89 : ... .. . ... ... ... ... : ... .. . ... ... ... ... : ... .. . ... : ... .. . ... : ... .. . ...
ROW 8A : ... .. . P7E ... ... ... : ... .. . P7E ... ... ... : ... .. . ... : ... .. . ... : ... .. . ...
ROW 8B : ... .. . ... ... ... ... : ... .. . ... ... ... ... : ... .. . ... : ... .. . ... : ... .. . ...
ROW 8C : A-3 00 4 P82 V02 ... ... : D#3 00 4 P82 V02 ... ... : D#3 00 . ... : 5-# 00 7 ... : ... .. . ...
ROW 8D : ... .. . ... ... ... ... : ... .. . ... ... ... ... : ... .. . ... : ... .. . ... : ... .. . ...
ROW 8E : ... .. . ... ... ... ... : ... .. . ... ... ... ... : ... .. . ... : ... .. . ... : ... .. . ...
ROW 8F : ... .. . ... ... ... ... : ... .. . ... ... ... ... : ... .. . ... : ... .. 0 ... : ... .. . ...
ROW 90 : ... .. . P7E ... ... ... : ... .. . P7E ... ... ... : ... .. . ... : ... .. . ... : ... .. . ...
ROW 91 : ... .. . ... ... ... ... : ... .. . ... ... ... ... : ... .. . ... : ... .. . ... : ... .. . ...
ROW 92 : ... .. . ... ... ... ... : ... .. . ... ... ... ... : ... .. . ... : ... .. . ... : ... .. . ...
ROW 93 : ... .. 3 ... ... ... ... : ... .. 3 ... ... ... ... : --- .. . ... : ... .. . ... : ... .. . ...
ROW 94 : ... .. . P82 ... ... ... : ... .. . P82 ... ... ... : ... .. . ... : ... .. . ... : ... .. . ...
ROW 95 : ... .. . ... ... ... ... : ... .. . ... ... ... ... : ... .. . ... : ... .. . ... : ... .. . ...
ROW 96 : ... .. . ... ... ... ... : ... .. . ... ... ... ... : ... .. . ... : ... .. . ... : ... .. . ...
ROW 97 : ... .. . ... ... ... ... : ... .. . ... ... ... ... : ... .. . ... : ... .. . ... : ... .. . ...
ROW 98 : ... .. . P7E ... ... ... : ... .. . P7E ... ... ... : ... .. . ... : ... .. . ... : ... .. . ...
ROW 99 : ... .. . ... ... ... ... : ... .. . ... ... ... ... : ... .. . ... : ... .. . ... : ... .. . ...
ROW 9A : C-4 00 4 P82 V02 ... ... : D#3 00 4 P82 V02 ... ... : D-3 00 . ... : 5-# 00 7 ... : ... .. . ...
ROW 9B : ... .. . ... ... ... ... : ... .. . ... ... ... ... : ... .. . ... : ... .. . ... : ... .. . ...
ROW 9C : ... .. . ... ... ... ... : ... .. . ... ... ... ... : ... .. . ... : ... .. . ... : ... .. . ...
ROW 9D : ... .. . ... ... ... ... : ... .. . ... ... ... ... : ... .. . ... : ... .. 0 ... : ... .. . ...
ROW 9E : ... .. . P7E ... ... ... : ... .. . P7E ... ... ... : ... .. . ... : ... .. . ... : ... .. . ...
ROW 9F : ... .. . ... ... ... ... : ... .. . ... ... ... ... : ... .. . ... : ... .. . ... : ... .. . ...
ROW A0 : ... .. . ... ... ... ... : ... .. . ... ... ... ... : ... .. . ... : ... .. . ... : ... .. . ...
ROW A1 : ... .. 3 ... ... ... ... : ... .. 3 ... ... ... ... : --- .. . ... : ... .. . ... : ... .. . ...
ROW A2 : ... .. . P82 ... ... ... : ... .. . P82 ... ... ... : ... .. . ... : ... .. . ... : ... .. . ...
ROW A3 : ... .. . ... ... ... ... : ... .. . ... ... ... ... : ... .. . ... : ... .. . ... : ... .. . ...
ROW A4 : ... .. . ... ... ... ... : ... .. . ... ... ... ... : ... .. . ... : ... .. . ... : ... .. . ...
ROW A5 : ... .. . ... ... ... ... : ... .. . ... ... ... ... : ... .. . ... : ... .. . ... : ... .. . ...
ROW A6 : ... .. . P7E ... ... ... : ... .. . P7E ... ... ... : ... .. . ... : ... .. . ... : ... .. . ...
ROW A7 : ... .. . ... ... ... ... : ... .. . ... ... ... ... : ... .. . ... : ... .. . ... : ... .. . ...
ROW A8 : F-3 00 4 P82 V01 ... ... : D-3 00 4 P82 V02 ... ... : ... .. . ... : ... .. . ... : ... .. . ...
ROW A9 : ... .. . ... ... ... ... : ... .. . ... ... ... ... : ... .. . ... : ... .. . ... : ... .. . ...
ROW AA : ... .. . ... ... ... ... : ... .. . ... ... ... ... : ... .. . ... : ... .. . ... : ... .. . ...
ROW AB : ... .. . ... ... ... ... : ... .. . ... ... ... ... : ... .. . ... : ... .. . ... : ... .. . ...
ROW AC : ... .. . P7E ... ... ... : ... .. . P7E ... ... ... : ... .. . ... : ... .. . ... : ... .. . ...
ROW AD : ... .. . ... ... ... ... : ... .. . ... ... ... ... : ... .. . ... : ... .. . ... : ... .. . ...
ROW AE : ... .. . ... ... ... ... : ... .. . ... ... ... ... : ... .. . ... : ... .. . ... : ... .. . ...
ROW AF : D#3 00 4 P82 ... ... ... : ... .. 3 ... ... ... ... : ... .. . ... : ... .. . ... : ... .. . ...
ROW B0 : ... .. . ... ... ... ... : ... .. . P82 ... ... ... : ... .. . ... : ... .. . ... : ... .. . ...
ROW B1 : ... .. . ... ... ... ... : ... .. . ... ... ... ... : ... .. . ... : ... .. . ... : ... .. . ...
ROW B2 : ... .. . ... ... ... ... : ... .. . ... ... ... ... : ... .. . ... : ... .. . ... : ... .. . ...
ROW B3 : ... .. . P7E ... ... ... : ... .. . ... ... ... ... : ... .. . ... : ... .. . ... : ... .. . ...
ROW B4 : ... .. . ... ... ... ... : ... .. . P7E ... ... ... : ... .. . ... : ... .. . ... : ... .. . ...
ROW B5 : ... .. . ... ... ... ... : ... .. . ... ... ... ... : ... .. . ... : ... .. . ... : ... .. . ...
ROW B6 : D-3 00 4 P82 ... ... ... : ... .. 2 ... ... ... ... : D-3 00 . ... : 5-# 00 7 ... : ... .. . ...
ROW B7 : ... .. . ... ... ... ... : ... .. . ... ... ... ... : ... .. . ... : ... .. . ... : ... .. . ...
ROW B8 : ... .. . ... ... ... ... : ... .. . P82 ... ... ... : ... .. . ... : ... .. . ... : ... .. . ...
ROW B9 : ... .. . ... ... ... ... : ... .. . ... ... ... ... : ... .. . ... : ... .. 0 ... : ... .. . ...
ROW BA : ... .. . P7E ... ... ... : ... .. . ... ... ... ... : ... .. . ... : ... .. . ... : ... .. . ...
ROW BB : ... .. . ... ... ... ... : ... .. . ... ... ... ... : ... .. . ... : ... .. . ... : ... .. . ...
ROW BC : ... .. . ... ... ... ... : ... .. . P7E ... ... ... : ... .. . ... : ... .. . ... : ... .. . ...
ROW BD : D#3 00 4 P82 ... ... ... : ... .. 1 ... ... ... ... : --- .. . ... : ... .. . ... : ... .. . ...
ROW BE : ... .. . ... ... ... ... : ... .. . ... ... ... ... : ... .. . ... : ... .. . ... : ... .. . ...
ROW BF : ... .. . ... ... ... ... : ... .. . ... ... ... ... : ... .. . ... : ... .. . ... : ... .. . ...
ROW C0 : ... .. . ... ... ... ... : ... .. . P82 ... ... ... : ... .. . ... : ... .. . ... : ... .. . ...
ROW C1 : ... .. . P7E ... ... ... : ... .. . ... ... ... ... : ... .. . ... : ... .. . ... : ... .. . ...
ROW C2 : ... .. . ... ... ... ... : ... .. . ... ... ... ... : ... .. . ... : ... .. . ... : ... .. . ...
ROW C3 : ... .. . ... ... ... ... : ... .. . ... ... ... ... : ... .. . ... : ... .. . ... : ... .. . ...
ROW C4 : F-3 00 4 P82 ... ... ... : D#3 00 2 P82 V01 ... ... : ... .. . ... : ... .. . ... : ... .. . ...
ROW C5 : ... .. . ... ... ... ... : ... .. . ... ... ... ... : ... .. . ... : ... .. . ... : ... .. . ...
ROW C6 : ... .. . ... ... ... ... : ... .. 1 ... ... ... ... : ... .. . ... : ... .. . ... : ... .. . ...
ROW C7 : ... .. . ... ... ... ... : ... .. . ... ... ... ... : ... .. . ... : ... .. . ... : ... .. . ...
ROW C8 : ... .. . P7E ... ... ... : ... .. . P7E ... ... ... : ... .. . ... : ... .. . ... : ... .. . ...
ROW C9 : ... .. . ... ... ... ... : ... .. . ... ... ... ... : ... .. . ... : ... .. . ... : ... .. . ...
ROW CA : ... .. . ... ... ... ... : ... .. . ... ... ... ... : ... .. . ... : ... .. . ... : ... .. . ...
ROW CB : ... .. 3 ... ... ... ... : F-3 00 2 P82 ... ... ... : ... .. . ... : ... .. . ... : ... .. . ...
ROW CC : ... .. . P82 ... ... ... : ... .. . ... ... ... ... : ... .. . ... : ... .. . ... : ... .. . ...
ROW CD : ... .. . ... ... ... ... : ... .. 1 ... ... ... ... : ... .. . ... : ... .. . ... : ... .. . ...
ROW CE : ... .. . ... ... ... ... : ... .. . ... ... ... ... : ... .. . ... : ... .. . ... : ... .. . ...
ROW CF : ... .. . ... ... ... ... : ... .. . P7E ... ... ... : ... .. . ... : ... .. . ... : ... .. . ...
ROW D0 : ... .. . P7E ... ... ... : ... .. . ... ... ... ... : ... .. . ... : ... .. . ... : ... .. . ...
ROW D1 : ... .. . ... ... ... ... : ... .. . ... ... ... ... : ... .. . ... : ... .. . ... : ... .. . ...
ROW D2 : A#3 00 4 P82 ... ... ... : ... .. . ... ... ... ... : D-3 00 . ... : 5-# 00 7 ... : ... .. . ...
ROW D3 : ... .. . ... ... ... ... : ... .. . P82 ... ... ... : ... .. . ... : ... .. . ... : ... .. . ...
ROW D4 : ... .. . ... ... ... ... : ... .. . ... ... ... ... : ... .. . ... : ... .. . ... : ... .. . ...
ROW D5 : ... .. . ... ... ... ... : ... .. . ... ... ... ... : ... .. . ... : ... .. 0 ... : ... .. . ...
ROW D6 : ... .. . P7E ... ... ... : ... .. . ... ... ... ... : ... .. . ... : ... .. . ... : ... .. . ...
ROW D7 : ... .. . ... ... ... ... : ... .. . P7E ... ... ... : ... .. . ... : ... .. . ... : ... .. . ...
ROW D8 : ... .. . ... ... ... ... : ... .. . ... ... ... ... : ... .. . ... : ... .. . ... : ... .. . ...
ROW D9 : ... .. 3 ... ... ... ... : A#3 00 2 P82 ... ... ... : --- .. . ... : ... .. . ... : ... .. . ...
ROW DA : ... .. . P82 ... ... ... : ... .. . ... ... ... ... : ... .. . ... : ... .. . ... : ... .. . ...
ROW DB : ... .. . ... ... ... ... : ... .. 1 ... ... ... ... : ... .. . ... : ... .. . ... : ... .. . ...
ROW DC : ... .. . ... ... ... ... : ... .. . ... ... ... ... : ... .. . ... : ... .. . ... : ... .. . ...
ROW DD : ... .. . ... ... ... ... : ... .. . P7E ... ... ... : ... .. . ... : ... .. . ... : ... .. . ...
ROW DE : ... .. . P7E ... ... ... : ... .. . ... ... ... ... : ... .. . ... : ... .. . ... : ... .. . ...
ROW DF : ... .. . ... ... ... ... : ... .. . ... ... ... ... : ... .. . ... : ... .. . ... : ... .. . ...

PATTERN 30
ROW 00 : F#3 00 4 P82 ... ... ... : ... .. . ... ... ... ... : F#3 00 . ... : 2-# 00 7 ... : ... .. . ...
ROW 01 : ... .. . ... ... ... ... : ... .. . P82 ... ... ... : ... .. . ... : ... .. 5 ... : ... .. . ...
ROW 02 : ... .. . ... ... ... ... : ... .. . ... ... ... ... : ... .. . ... : ... .. 3 ... : ... .. . ...
ROW 03 : ... .. . ... ... ... ... : ... .. . ... ... ... ... : ... .. . ... : ... .. 2 ... : ... .. . ...
ROW 04 : ... .. . P7E ... ... ... : ... .. . ... ... ... ... : ... .. . ... : ... .. 0 ... : ... .. . ...
ROW 05 : ... .. . ... ... ... ... : ... .. . P7E ... ... ... : ... .. . ... : ... .. . ... : ... .. . ...
ROW 06 : ... .. . ... ... ... ... : ... .. . ... ... ... ... : ... .. . ... : ... .. . ... : ... .. . ...
ROW 07 : ... .. 3 ... ... ... ... : F#3 00 2 P82 ... ... ... : ... .. . ... : ... .. . ... : ... .. . ...
ROW 08 : ... .. . P82 ... ... ... : ... .. . ... ... ... ... : ... .. . ... : ... .. . ... : ... .. . ...
ROW 09 : ... .. . ... ... ... ... : ... .. 1 ... ... ... ... : ... .. . ... : ... .. . ... : ... .. . ...
ROW 0A : ... .. . ... ... ... ... : ... .. . ... ... ... ... : ... .. . ... : ... .. . ... : ... .. . ...
ROW 0B : ... .. . ... ... ... ... : ... .. . P7E ... ... ... : --- .. . ... : ... .. . ... : ... .. . ...
ROW 0C : ... .. . P7E ... ... ... : ... .. . ... ... ... ... : ... .. . ... : ... .. . ... : ... .. . ...
ROW 0D : ... .. . ... ... ... ... : ... .. . ... ... ... ... : ... .. . ... : ... .. . ... : ... .. . ...
ROW 0E : A#3 00 7 V01 ... ... P7F : F#3 00 6 V02 ... ... P80 : F#4 00 . ... : 7-# 00 7 ... : ... .. . ...
ROW 0F : ... .. . ... ... ... ... : ... .. . ... ... ... P7F : ... .. . ... : ... .. 5 ... : ... .. . ...
ROW 10 : ... .. . ... ... ... P7E : ... .. . ... ... ... ... : ... .. . ... : ... .. 3 ... : ... .. . ...
ROW 11 : ... .. 6 ... ... ... ... : ... .. 5 ... ... ... P7E : ... .. . ... : ... .. 2 ... : ... .. . ...
ROW 12 : ... .. . ... ... ... ... : ... .. . ... ... ... P7D : ... .. . ... : ... .. 0 ... : ... .. . ...
ROW 13 : ... .. . ... ... ... P7F : ... .. . ... ... ... P7E : ... .. . ... : ... .. . ... : ... .. . ...
ROW 14 : ... .. . ... ... ... P80 : ... .. . ... ... ... P7F : ... .. . ... : ... .. . ... : ... .. . ...
ROW 15 : ... .. 5 ... ... ... P81 : ... .. 4 ... ... ... P80 : ... .. . ... : ... .. . ... : ... .. . ...
ROW 16 : ... .. . ... ... ... ... : ... .. . ... ... ... ... : ... .. . ... : ... .. . ... : ... .. . ...
ROW 17 : ... .. . ... ... ... ... : ... .. . ... ... ... P81 : ... .. . ... : ... .. . ... : ... .. . ...
ROW 18 : ... .. . ... ... ... P80 : ... .. . ... ... ... ... : --- .. . ... : ... .. . ... : ... .. . ...
ROW 19 : ... .. . ... ... ... P7F : ... .. . ... ... ... P80 : ... .. . ... : ... .. . ... : ... .. . ...
ROW 1A : ... .. 3 ... ... ... ... : ... .. 2 ... ... ... P7F : ... .. . ... : ... .. . ... : ... .. . ...
ROW 1B : ... .. . ... ... ... P7E : ... .. . ... ... ... P7E : ... .. . ... : ... .. . ... : ... .. . ...
ROW 1C : C-4 00 7 ... ... ... P7F : G#3 00 6 ... ... ... P80 : F#4 00 . ... : 2-# 00 7 ... : ... .. . ...
ROW 1D : ... .. . ... ... ... ... : ... .. . ... ... ... P7F : ... .. . ... : ... .. 5 ... : ... .. . ...
ROW 1E : ... .. . ... ... ... P7E : ... .. . ... ... ... ... : ... .. . ... : ... .. 3 ... : ... .. . ...
ROW 1F : ... .. 6 ... ... ... ... : ... .. 5 ... ... ... P7E : ... .. . ... : ... .. 2 ... : ... .. . ...
ROW 20 : ... .. . ... ... ... ... : ... .. . ... ... ... P7D : ... .. . ... : ... .. 0 ... : ... .. . ...
ROW 21 : ... .. . ... ... ... P7F : ... .. . ... ... ... P7E : ... .. . ... : ... .. . ... : ... .. . ...
ROW 22 : ... .. . ... ... ... P80 : ... .. . ... ... ... P7F : ... .. . ... : ... .. . ... : ... .. . ...
ROW 23 : ... .. 5 ... ... ... P81 : ... .. 4 ... ... ... P80 : ... .. . ... : ... .. . ... : ... .. . ...
ROW 24 : ... .. . ... ... ... ... : ... .. . ... ... ... ... : ... .. . ... : ... .. . ... : ... .. . ...
ROW 25 : ... .. . ... ... ... ... : ... .. . ... ... ... P81 : ... .. . ... : ... .. . ... : ... .. . ...
ROW 26 : ... .. . ... ... ... P80 : ... .. . ... ... ... ... : --- .. . ... : ... .. . ... : ... .. . ...
ROW 27 : ... .. . ... ... ... P7F : ... .. . ... ... ... P80 : ... .. . ... : ... .. . ... : ... .. . ...
ROW 28 : ... .. . ... ... ... ... : ... .. . ... ... ... P7F : ... .. . ... : ... .. . ... : ... .. . ...
ROW 29 : ... .. . ... ... ... P7E : ... .. . ... ... ... P7E : ... .. . ... : ... .. . ... : ... .. . ...
ROW 2A : ... .. 4 ... ... ... ... : ... .. 3 ... ... ... ... : F#3 00 . ... : 7-# 00 7 ... : ... .. . ...
ROW 2B : ... .. . ... ... ... P7F : ... .. . ... ... ... ... : ... .. . ... : ... .. 5 ... : ... .. . ...
ROW 2C : ... .. . ... ... ... ... : ... .. . ... ... ... ... : ... .. . ... : ... .. 3 ... : ... .. . ...
ROW 2D : ... .. . ... ... ... P80 : ... .. . ... ... ... P7F : ... .. . ... : ... .. 2 ... : ... .. . ...
ROW 2E : ... .. . ... ... ... P81 : ... .. . ... ... ... P80 : ... .. . ... : ... .. 0 ... : ... .. . ...
ROW 2F : ... .. . ... ... ... ... : ... .. . ... ... ... ... : --- .. . ... : ... .. . ... : ... .. . ...
ROW 30 : ... .. . ... ... ... ... : ... .. . ... ... ... P81 : ... .. . ... : ... .. . ... : ... .. . ...
ROW 31 : ... .. 3 ... ... ... P80 : ... .. 2 ... ... ... P80 : F#3 00 . ... : 2-# 00 7 ... : ... .. . ...
ROW 32 : ... .. . ... ... ... P7F : ... .. . ... ... ... ... : ... .. . ... : ... .. 5 ... : ... .. . ...
ROW 33 : ... .. . ... ... ... ... : ... .. . ... ... ... P7F : ... .. . ... : ... .. 3 ... : ... .. . ...
ROW 34 : ... .. . ... ... ... P7E : ... .. . ... ... ... P7E : ... .. . ... : ... .. 2 ... : ... .. . ...
ROW 35 : ... .. . ... ... ... ... : ... .. . ... ... ... ... : ... .. . ... : ... .. 0 ... : ... .. . ...
ROW 36 : ... .. . ... ... ... P7F : ... .. . ... ... ... ... : ... .. . ... : ... .. . ... : ... .. . ...
ROW 37 : ... .. . ... ... ... ... : ... .. . ... ... ... ... : ... .. . ... : ... .. . ... : ... .. . ...
ROW 38 : ... .. 2 ... ... ... P80 : ... .. 1 ... ... ... P7F : ... .. . ... : ... .. . ... : ... .. . ...
ROW 39 : ... .. . ... ... ... P81 : ... .. . ... ... ... P80 : ... .. . ... : ... .. . ... : ... .. . ...
ROW 3A : ... .. . ... ... ... ... : ... .. . ... ... ... ... : ... .. . ... : ... .. . ... : ... .. . ...
ROW 3B : ... .. . ... ... ... ... : ... .. . ... ... ... P81 : --- .. . ... : ... .. . ... : ... .. . ...
ROW 3C : ... .. . ... ... ... P80 : ... .. . ... ... ... P80 : ... .. . ... : ... .. . ... : ... .. . ...
ROW 3D : ... .. . ... ... ... P7F : ... .. . ... ... ... ... : ... .. . ... : ... .. . ... : ... .. . ...
ROW 3E : ... .. . ... ... ... ... : ... .. . ... ... ... P7F : ... .. . ... : ... .. . ... : ... .. . ...
ROW 3F : ... .. 1 ... ... ... P7E : ... .. . ... ... ... P7E : F#4 00 . ... : 2-# 00 7 ... : ... .. . ...
ROW 40 : ... .. . ... ... ... ... : ... .. . ... ... ... ... : ... .. . ... : ... .. 5 ... : ... .. . ...
ROW 41 : ... .. . ... ... ... P7F : ... .. . ... ... ... ... : ... .. . ... : ... .. 3 ... : ... .. . ...
ROW 42 : ... .. . ... ... ... ... : ... .. . ... ... ... ... : ... .. . ... : ... .. 2 ... : ... .. . ...
ROW 43 : ... .. . ... ... ... P80 : ... .. . ... ... ... P7F : ... .. . ... : ... .. 0 ... : ... .. . ...
ROW 44 : ... .. . ... ... ... P81 : ... .. . ... ... ... P80 : ... .. . ... : ... .. . ... : ... .. . ...
ROW 45 : ... .. . ... ... ... ... : ... .. . ... ... ... P81 : ... .. . ... : ... .. . ... : ... .. . ...
ROW 46 : A#3 00 7 V01 ... ... P7F : F#3 00 6 V02 ... ... P80 : ... .. . ... : 7-# 00 7 ... : ... .. . ...
ROW 47 : ... .. . ... ... ... ... : ... .. . ... ... ... P7F : ... .. . ... : ... .. 5 ... : ... .. . ...
ROW 48 : ... .. . ... ... ... P7E : ... .. . ... ... ... ... : ... .. . ... : ... .. 3 ... : ... .. . ...
ROW 49 : ... .. 6 ... ... ... ... : ... .. 5 ... ... ... P7E : --- .. . ... : ... .. 2 ... : ... .. . ...
ROW 4A : ... .. . ... ... ... ... : ... .. . ... ... ... P7D : ... .. . ... : ... .. 0 ... : ... .. . ...
ROW 4B : ... .. . ... ... ... P7F : ... .. . ... ... ... P7E : ... .. . ... : ... .. . ... : ... .. . ...
ROW 4C : ... .. . ... ... ... P80 : ... .. . ... ... ... P7F : ... .. . ... : ... .. . ... : ... .. . ...
ROW 4D : ... .. 5 ... ... ... P81 : ... .. 4 ... ... ... P80 : F#4 00 . ... : 2-# 00 7 ... : ... .. . ...
ROW 4E : ... .. . ... ... ... ... : ... .. . ... ... ... ... : ... .. . ... : ... .. 5 ... : ... .. . ...
ROW 4F : ... .. . ... ... ... ... : ... .. . ... ... ... P81 : ... .. . ... : ... .. 3 ... : ... .. . ...
ROW 50 : ... .. . ... ... ... P80 : ... .. . ... ... ... ... : ... .. . ... : ... .. 2 ... : ... .. . ...
ROW 51 : ... .. . ... ... ... P7F : ... .. . ... ... ... P80 : ... .. . ... : ... .. 0 ... : ... .. . ...
ROW 52 : ... .. 2 ... ... ... ... : ... .. 2 ... ... ... P7F : --- .. . ... : ... .. . ... : ... .. . ...
ROW 53 : ... .. . ... ... ... P7E : ... .. . ... ... ... P7E : ... .. . ... : ... .. . ... : ... .. . ...
ROW 54 : C-4 00 7 ... ... ... P7F : G#3 00 6 ... ... ... P80 : F#4 00 . ... : 2-# 00 7 ... : ... .. . ...
ROW 55 : ... .. . ... ... ... ... : ... .. . ... ... ... P7F : ... .. . ... : ... .. 5 ... : ... .. . ...
ROW 56 : ... .. . ... ... ... P7E : ... .. . ... ... ... ... : ... .. . ... : ... .. 3 ... : ... .. . ...
ROW 57 : ... .. 6 ... ... ... ... : ... .. 5 ... ... ... P7E : ... .. . ... : ... .. 2 ... : ... .. . ...
ROW 58 : ... .. . ... ... ... ... : ... .. . ... ... ... P7D : ... .. . ... : ... .. 0 ... : ... .. . ...
ROW 59 : ... .. . ... ... ... P7F : ... .. . ... ... ... P7E : ... .. . ... : ... .. . ... : ... .. . ...
ROW 5A : ... .. . ... ... ... P80 : ... .. . ... ... ... P7F : ... .. . ... : ... .. . ... : ... .. . ...
ROW 5B : ... .. 5 ... ... ... P81 : ... .. 4 ... ... ... P80 : ... .. . ... : ... .. . ... : ... .. . ...
ROW 5C : ... .. . ... ... ... ... : ... .. . ... ... ... ... : ... .. . ... : ... .. . ... : ... .. . ...
ROW 5D : ... .. . ... ... ... ... : ... .. . ... ... ... P81 : ... .. . ... : ... .. . ... : ... .. . ...
ROW 5E : ... .. . ... ... ... P80 : ... .. . ... ... ... ... : --- .. . ... : ... .. . ... : ... .. . ...
ROW 5F : ... .. . ... ... ... P7F : ... .. . ... ... ... P80 : ... .. . ... : ... .. . ... : ... .. . ...
ROW 60 : ... .. . ... ... ... ... : ... .. . ... ... ... P7F : ... .. . ... : ... .. . ... : ... .. . ...
ROW 61 : ... .. . ... ... ... P7E : ... .. . ... ... ... P7E : ... .. . ... : ... .. . ... : ... .. . ...
ROW 62 : ... .. 4 ... ... ... ... : ... .. 3 ... ... ... ... : F#3 00 . ... : 7-# 00 7 ... : ... .. . ...
ROW 63 : ... .. . ... ... ... P7F : ... .. . ... ... ... ... : ... .. . ... : ... .. 5 ... : ... .. . ...
ROW 64 : ... .. . ... ... ... ... : ... .. . ... ... ... ... : ... .. . ... : ... .. 3 ... : ... .. . ...
ROW 65 : ... .. . ... ... ... P80 : ... .. . ... ... ... P7F : ... .. . ... : ... .. 2 ... : ... .. . ...
ROW 66 : ... .. . ... ... ... P81 : ... .. . ... ... ... P80 : ... .. . ... : ... .. 0 ... : ... .. . ...
ROW 67 : ... .. . ... ... ... ... : ... .. . ... ... ... ... : ... .. . ... : ... .. . ... : ... .. . ...
ROW 68 : ... .. . ... ... ... ... : ... .. . ... ... ... P81 : ... .. . ... : ... .. . ... : ... .. . ...
ROW 69 : ... .. 3 ... ... ... P80 : ... .. 2 ... ... ... P80 : ... .. . ... : ... .. . ... : ... .. . ...
ROW 6A : ... .. . ... ... ... P7F : ... .. . ... ... ... ... : ... .. . ... : ... .. . ... : ... .. . ...
ROW 6B : ... .. . ... ... ... ... : ... .. . ... ... ... P7F : ... .. . ... : ... .. . ... : ... .. . ...
ROW 6C : ... .. . ... ... ... P7E : ... .. . ... ... ... P7E : --- .. . ... : ... .. . ... : ... .. . ...
ROW 6D : ... .. . ... ... ... ... : ... .. . ... ... ... ... : ... .. . ... : ... .. . ... : ... .. . ...
ROW 6E : ... .. . ... ... ... P7F : ... .. . ... ... ... ... : ... .. . ... : ... .. . ... : ... .. . ...
ROW 6F : ... .. . ... ... ... ... : ... .. . ... ... ... ... : ... .. . ... : ... .. . ... : ... .. . ...
ROW 70 : ... .. 2 ... ... ... P80 : ... .. 1 ... ... ... P7F : F#3 00 . ... : 2-# 00 7 ... : ... .. . ...
ROW 71 : ... .. . ... ... ... P81 : ... .. . ... ... ... P80 : ... .. . ... : ... .. 5 ... : ... .. . ...
ROW 72 : ... .. . ... ... ... ... : ... .. . ... ... ... ... : ... .. . ... : ... .. 3 ... : ... .. . ...
ROW 73 : ... .. . ... ... ... ... : ... .. . ... ... ... P81 : ... .. . ... : ... .. 2 ... : ... .. . ...
ROW 74 : ... .. . ... ... ... P80 : ... .. . ... ... ... P80 : ... .. . ... : ... .. 0 ... : ... .. . ...
ROW 75 : ... .. . ... ... ... P7F : ... .. . ... ... ... ... : ... .. . ... : ... .. . ... : ... .. . ...
ROW 76 : ... .. . ... ... ... ... : ... .. . ... ... ... P7F : ... .. . ... : ... .. . ... : ... .. . ...
ROW 77 : ... .. 1 ... ... ... P7E : ... .. . ... ... ... P7E : ... .. . ... : ... .. . ... : ... .. . ...
ROW 78 : ... .. . ... ... ... ... : ... .. . ... ... ... ... : ... .. . ... : ... .. . ... : ... .. . ...
ROW 79 : ... .. . ... ... ... P7F : ... .. . ... ... ... ... : ... .. . ... : ... .. . ... : ... .. . ...
ROW 7A : ... .. . ... ... ... ... : ... .. . ... ... ... ... : --- .. . ... : ... .. . ... : ... .. . ...
ROW 7B : ... .. . ... ... ... P80 : ... .. . ... ... ... P7F : ... .. . ... : ... .. . ... : ... .. . ...
ROW 7C : ... .. . ... ... ... P81 : ... .. . ... ... ... P80 : ... .. . ... : ... .. . ... : ... .. . ...
ROW 7D : ... .. . ... ... ... ... : ... .. . ... ... ... P81 : ... .. . ... : ... .. . ... : ... .. . ...
ROW 7E : A#3 00 7 V01 ... ... P7F : F#3 00 6 V02 ... ... P80 : F#4 00 . ... : 7-# 00 7 ... : ... .. . ...
ROW 7F : ... .. . ... ... ... ... : ... .. . ... ... ... P7F : ... .. . ... : ... .. 5 ... : ... .. . ...
ROW 80 : ... .. . ... ... ... P7E : ... .. . ... ... ... ... : ... .. . ... : ... .. 3 ... : ... .. . ...
ROW 81 : ... .. 6 ... ... ... ... : ... .. 5 ... ... ... P7E : ... .. . ... : ... .. 2 ... : ... .. . ...
ROW 82 : ... .. . ... ... ... ... : ... .. . ... ... ... P7D : ... .. . ... : ... .. 0 ... : ... .. . ...
ROW 83 : ... .. . ... ... ... P7F : ... .. . ... ... ... P7E : ... .. . ... : ... .. . ... : ... .. . ...
ROW 84 : ... .. . ... ... ... P80 : ... .. . ... ... ... P7F : ... .. . ... : ... .. . ... : ... .. . ...
ROW 85 : ... .. 5 ... ... ... P81 : ... .. 4 ... ... ... P80 : ... .. . ... : ... .. . ... : ... .. . ...
ROW 86 : ... .. . ... ... ... ... : ... .. . ... ... ... ... : ... .. . ... : ... .. . ... : ... .. . ...
ROW 87 : ... .. . ... ... ... ... : ... .. . ... ... ... P81 : ... .. . ... : ... .. . ... : ... .. . ...
ROW 88 : ... .. . ... ... ... P80 : ... .. . ... ... ... ... : --- .. . ... : ... .. . ... : ... .. . ...
ROW 89 : ... .. . ... ... ... P7F : ... .. . ... ... ... P80 : ... .. . ... : ... .. . ... : ... .. . ...
ROW 8A : ... .. 2 ... ... ... ... : ... .. 2 ... ... ... P7F : ... .. . ... : ... .. . ... : ... .. . ...
ROW 8B : ... .. . ... ... ... P7E : ... .. . ... ... ... P7E : ... .. . ... : ... .. . ... : ... .. . ...
ROW 8C : C-4 00 7 ... ... ... P7F : F#3 00 6 ... ... ... P80 : F#4 00 . ... : 2-# 00 7 ... : ... .. . ...
ROW 8D : ... .. . ... ... ... ... : ... .. . ... ... ... P7F : ... .. . ... : ... .. 5 ... : ... .. . ...
ROW 8E : ... .. . ... ... ... P7E : ... .. . ... ... ... ... : ... .. . ... : ... .. 3 ... : ... .. . ...
ROW 8F : ... .. 6 ... ... ... ... : ... .. 5 ... ... ... P7E : ... .. . ... : ... .. 2 ... : ... .. . ...
ROW 90 : ... .. . ... ... ... ... : ... .. . ... ... ... P7D : ... .. . ... : ... .. 0 ... : ... .. . ...
ROW 91 : ... .. . ... ... ... P7F : ... .. . ... ... ... P7E : ... .. . ... : ... .. . ... : ... .. . ...
ROW 92 : ... .. . ... ... ... P80 : ... .. . ... ... ... P7F : ... .. . ... : ... .. . ... : ... .. . ...
ROW 93 : ... .. 5 ... ... ... P81 : ... .. 4 ... ... ... P80 : ... .. . ... : ... .. . ... : ... .. . ...
ROW 94 : ... .. . ... ... ... ... : ... .. . ... ... ... ... : ... .. . ... : ... .. . ... : ... .. . ...
ROW 95 : ... .. . ... ... ... ... : ... .. . ... ... ... P81 : ... .. . ... : ... .. . ... : ... .. . ...
ROW 96 : ... .. . ... ... ... P80 : ... .. . ... ... ... ... : --- .. . ... : ... .. . ... : ... .. . ...
ROW 97 : ... .. . ... ... ... P7F : ... .. . ... ... ... P80 : ... .. . ... : ... .. . ... : ... .. . ...
ROW 98 : ... .. 2 ... ... ... ... : ... .. 2 ... ... ... P7F : ... .. . ... : ... .. . ... : ... .. . ...
ROW 99 : ... .. . ... ... ... P7E : ... .. . ... ... ... P7E : ... .. . ... : ... .. . ... : ... .. . ...
ROW 9A : D#4 00 7 ... ... ... P7F : F#3 00 6 ... ... ... P80 : F#3 00 . ... : 7-# 00 7 ... : ... .. . ...
ROW 9B : ... .. . ... ... ... ... : ... .. . ... ... ... P7F : ... .. . ... : ... .. 5 ... : ... .. . ...
ROW 9C : ... .. . ... ... ... P7E : ... .. . ... ... ... ... : ... .. . ... : ... .. 3 ... : ... .. . ...
ROW 9D : ... .. 6 ... ... ... ... : ... .. 5 ... ... ... P7E : ... .. . ... : ... .. 2 ... : ... .. . ...
ROW 9E : ... .. . ... ... ... ... : ... .. . ... ... ... P7D : ... .. . ... : ... .. 0 ... : ... .. . ...
ROW 9F : ... .. . ... ... ... P7F : ... .. . ... ... ... P7E : --- .. . ... : ... .. . ... : ... .. . ...
ROW A0 : ... .. . ... ... ... P80 : ... .. . ... ... ... P7F : ... .. . ... : ... .. . ... : ... .. . ...
ROW A1 : ... .. 5 ... ... ... P81 : ... .. 4 ... ... ... P80 : F-3 00 . ... : 2-# 00 7 ... : ... .. . ...
ROW A2 : ... .. . ... ... ... ... : ... .. . ... ... ... ... : ... .. . ... : ... .. 5 ... : ... .. . ...
ROW A3 : ... .. . ... ... ... ... : ... .. . ... ... ... P81 : ... .. . ... : ... .. 3 ... : ... .. . ...
ROW A4 : ... .. . ... ... ... P80 : ... .. . ... ... ... ... : ... .. . ... : ... .. 2 ... : ... .. . ...
ROW A5 : ... .. . ... ... ... P7F : ... .. . ... ... ... P80 : ... .. . ... : ... .. 0 ... : ... .. . ...
ROW A6 : ... .. 2 ... ... ... ... : ... .. 2 ... ... ... P7F : ... .. . ... : ... .. . ... : ... .. . ...
ROW A7 : ... .. . ... ... ... P7E : ... .. . ... ... ... P7E : ... .. . ... : ... .. . ... : ... .. . ...
ROW A8 : C#4 00 7 ... ... ... P7F : F-3 00 6 ... ... ... P80 : ... .. . ... : ... .. . ... : ... .. . ...
ROW A9 : ... .. . ... ... ... ... : ... .. . ... ... ... P7F : ... .. . ... : ... .. . ... : ... .. . ...
ROW AA : ... .. . ... ... ... P7E : ... .. . ... ... ... ... : ... .. . ... : ... .. . ... : ... .. . ...
ROW AB : ... .. 6 ... ... ... ... : ... .. 5 ... ... ... P7E : --- .. . ... : ... .. . ... : ... .. . ...
ROW AC : ... .. . ... ... ... ... : ... .. . ... ... ... P7D : ... .. . ... : ... .. . ... : ... .. . ...
ROW AD : ... .. . ... ... ... P7F : ... .. . ... ... ... P7E : ... .. . ... : ... .. . ... : ... .. . ...
ROW AE : ... .. . ... ... ... P80 : ... .. . ... ... ... P7F : ... .. . ... : ... .. . ... : ... .. . ...
ROW AF : ... .. 5 ... ... ... P81 : ... .. 4 ... ... ... P80 : F-4 00 . ... : 2-# 00 7 ... : ... .. . ...
ROW B0 : ... .. . ... ... ... ... : ... .. . ... ... ... ... : ... .. . ... : ... .. 5 ... : ... .. . ...
ROW B1 : ... .. . ... ... ... ... : ... .. . ... ... ... P81 : ... .. . ... : ... .. 3 ... : ... .. . ...
ROW B2 : ... .. . ... ... ... P80 : ... .. . ... ... ... ... : ... .. . ... : ... .. 2 ... : ... .. . ...
ROW B3 : ... .. . ... ... ... P7F : ... .. . ... ... ... P80 : ... .. . ... : ... .. 0 ... : ... .. . ...
ROW B4 : ... .. . ... ... ... ... : ... .. . ... ... ... P7F : ... .. . ... : ... .. . ... : ... .. . ...
ROW B5 : ... .. . ... ... ... P7E : ... .. . ... ... ... P7E : ... .. . ... : ... .. . ... : ... .. . ...
ROW B6 : ... .. 4 ... ... ... ... : ... .. 3 ... ... ... ... : ... .. . ... : 7-# 00 7 ... : ... .. . ...
ROW B7 : ... .. . ... ... ... P7F : ... .. . ... ... ... ... : ... .. . ... : ... .. 5 ... : ... .. . ...
ROW B8 : ... .. . ... ... ... ... : ... .. . ... ... ... ... : ... .. . ... : ... .. 3 ... : ... .. . ...
ROW B9 : ... .. . ... ... ... P80 : ... .. . ... ... ... P7F : --- .. . ... : ... .. 2 ... : ... .. . ...
ROW BA : ... .. . ... ... ... P81 : ... .. . ... ... ... P80 : ... .. . ... : ... .. 0 ... : ... .. . ...
ROW BB : ... .. . ... ... ... ... : ... .. . ... ... ... ... : ... .. . ... : ... .. . ... : ... .. . ...
ROW BC : ... .. . ... ... ... ... : ... .. . ... ... ... P81 : ... .. . ... : ... .. . ... : ... .. . ...
ROW BD : ... .. 3 ... ... ... P80 : ... .. 2 ... ... ... P80 : F-4 00 . ... : 2-# 00 7 ... : ... .. . ...
ROW BE : ... .. . ... ... ... P7F : ... .. . ... ... ... ... : ... .. . ... : ... .. 5 ... : ... .. . ...
ROW BF : ... .. . ... ... ... ... : ... .. . ... ... ... P7F : ... .. . ... : ... .. 3 ... : ... .. . ...
ROW C0 : ... .. . ... ... ... P7E : ... .. . ... ... ... P7E : ... .. . ... : ... .. 2 ... : ... .. . ...
ROW C1 : ... .. . ... ... ... ... : ... .. . ... ... ... ... : ... .. . ... : ... .. 0 ... : ... .. . ...
ROW C2 : ... .. . ... ... ... P7F : ... .. . ... ... ... ... : --- .. . ... : ... .. . ... : ... .. . ...
ROW C3 : ... .. . ... ... ... ... : ... .. . ... ... ... ... : ... .. . ... : ... .. . ... : ... .. . ...
ROW C4 : G#3 00 7 ... ... ... P7F : F-3 00 6 ... ... ... P80 : F-4 00 . ... : 2-# 00 7 ... : ... .. . ...
ROW C5 : ... .. . ... ... ... ... : ... .. . ... ... ... P7F : ... .. . ... : ... .. 5 ... : ... .. . ...
ROW C6 : ... .. . ... ... ... P7E : ... .. . ... ... ... ... : ... .. . ... : ... .. 3 ... : ... .. . ...
ROW C7 : ... .. 6 ... ... ... ... : ... .. 5 ... ... ... P7E : ... .. . ... : ... .. 2 ... : ... .. . ...
ROW C8 : ... .. . ... ... ... ... : ... .. . ... ... ... P7D : ... .. . ... : ... .. 0 ... : ... .. . ...
ROW C9 : ... .. . ... ... ... P7F : ... .. . ... ... ... P7E : ... .. . ... : ... .. . ... : ... .. . ...
ROW CA : ... .. . ... ... ... P80 : ... .. . ... ... ... P7F : ... .. . ... : ... .. . ... : ... .. . ...
ROW CB : ... .. 5 ... ... ... P81 : ... .. 4 ... ... ... P80 : ... .. . ... : ... .. . ... : ... .. . ...
ROW CC : ... .. . ... ... ... ... : ... .. . ... ... ... ... : ... .. . ... : ... .. . ... : ... .. . ...
ROW CD : ... .. . ... ... ... ... : ... .. . ... ... ... P81 : ... .. . ... : ... .. . ... : ... .. . ...
ROW CE : ... .. . ... ... ... P80 : ... .. . ... ... ... ... : --- .. . ... : ... .. . ... : ... .. . ...
ROW CF : ... .. . ... ... ... P7F : ... .. . ... ... ... P80 : ... .. . ... : ... .. . ... : ... .. . ...
ROW D0 : ... .. 2 ... ... ... ... : ... .. 2 ... ... ... P7F : ... .. . ... : ... .. . ... : ... .. . ...
ROW D1 : ... .. . ... ... ... P7E : ... .. . ... ... ... P7E : ... .. . ... : ... .. . ... : ... .. . ...
ROW D2 : C#4 00 7 ... ... ... P7F : C#4 00 6 ... ... ... ... : F-3 00 . ... : 7-# 00 7 ... : ... .. . ...
ROW D3 : ... .. . ... ... ... ... : ... .. . ... ... ... ... : ... .. . ... : ... .. 5 ... : ... .. . ...
ROW D4 : ... .. . ... ... ... P7E : ... .. . ... ... ... ... : ... .. . ... : ... .. 3 ... : ... .. . ...
ROW D5 : ... .. 6 ... ... ... ... : ... .. 5 ... ... ... P7F : ... .. . ... : ... .. 2 ... : ... .. . ...
ROW D6 : ... .. . ... ... ... ... : ... .. . ... ... ... P80 : ... .. . ... : ... .. 0 ... : ... .. . ...
ROW D7 : ... .. . ... ... ... P7F : ... .. . ... ... ... ... : ... .. . ... : ... .. . ... : ... .. . ...
ROW D8 : ... .. . ... ... ... P80 : ... .. . ... ... ... P81 : ... .. . ... : ... .. . ... : ... .. . ...
ROW D9 : ... .. 5 ... ... ... P81 : ... .. 4 ... ... ... P80 : ... .. . ... : ... .. . ... : ... .. . ...
ROW DA : ... .. . ... ... ... ... : ... .. . ... ... ... ... : ... .. . ... : ... .. . ... : ... .. . ...
ROW DB : ... .. . ... ... ... ... : ... .. . ... ... ... P7F : ... .. . ... : ... .. . ... : ... .. . ...
ROW DC : ... .. . ... ... ... P80 : ... .. . ... ... ... P7E : --- .. . ... : ... .. . ... : ... .. . ...
ROW DD : ... .. . ... ... ... P7F : ... .. . ... ... ... ... : ... .. . ... : ... .. . ... : ... .. . ...
ROW DE : ... .. . ... ... ... ... : ... .. . ... ... ... ... : ... .. . ... : ... .. . ... : ... .. . ...
ROW DF : ... .. . ... ... ... P7E : ... .. . ... ... ... ... : ... .. . ... : ... .. . ... : ... .. . ...

PATTERN 31
ROW 00 : C#4 00 7 P7F V01 ... ... : F-3 00 6 V01 ... ... P7F : C#3 00 . ... : 2-# 00 7 ... : ... .. . ...
ROW 01 : ... .. . ... ... ... ... : ... .. . ... ... ... ... : ... .. . ... : ... .. 5 ... : ... .. . ...
ROW 02 : ... .. . P7E ... ... ... : ... .. . ... ... ... P7E : ... .. . ... : ... .. 3 ... : ... .. . ...
ROW 03 : ... .. 6 ... ... ... ... : ... .. 5 ... ... ... P7D : ... .. . ... : ... .. 2 ... : ... .. . ...
ROW 04 : ... .. . ... ... ... ... : ... .. . ... ... ... P7E : ... .. . ... : ... .. 0 ... : ... .. . ...
ROW 05 : ... .. . P7F ... ... ... : ... .. . ... ... ... P7F : ... .. . ... : ... .. . ... : ... .. . ...
ROW 06 : ... .. . P80 ... ... ... : ... .. . ... ... ... P80 : ... .. . ... : ... .. . ... : ... .. . ...
ROW 07 : ... .. 5 P81 ... ... ... : ... .. 4 ... ... ... ... : --- .. . ... : ... .. . ... : ... .. . ...
ROW 08 : ... .. . ... ... ... ... : ... .. . ... ... ... P81 : ... .. . ... : ... .. . ... : ... .. . ...
ROW 09 : ... .. . P80 ... ... ... : ... .. . ... ... ... ... : ... .. . ... : ... .. . ... : ... .. . ...
ROW 0A : ... .. . P7F ... ... ... : ... .. . ... ... ... P80 : ... .. . ... : ... .. . ... : ... .. . ...
ROW 0B : ... .. . ... ... ... ... : ... .. . ... ... ... P7F : ... .. . ... : ... .. . ... : ... .. . ...
ROW 0C : ... .. . P7E ... ... ... : ... .. . ... ... ... P7E : ... .. . ... : ... .. . ... : ... .. . ...
ROW 0D : ... .. . ... ... ... ... : ... .. . ... ... ... ... : ... .. . ... : ... .. . ... : ... .. . ...
ROW 0E : ... .. 4 P7F ... ... ... : ... .. 3 ... ... ... ... : C#3 00 . ... : 7-# 00 7 ... : ... .. . ...
ROW 0F : ... .. . ... ... ... ... : ... .. . ... ... ... ... : ... .. . ... : ... .. 5 ... : ... .. . ...
ROW 10 : ... .. . P80 ... ... ... : ... .. . ... ... ... P7F : ... .. . ... : ... .. 3 ... : ... .. . ...
ROW 11 : ... .. . P81 ... ... ... : ... .. . ... ... ... P80 : ... .. . ... : ... .. 2 ... : ... .. . ...
ROW 12 : ... .. . ... ... ... ... : ... .. . ... ... ... ... : ... .. . ... : ... .. 0 ... : ... .. . ...
ROW 13 : ... .. . ... ... ... ... : ... .. . ... ... ... P81 : ... .. . ... : ... .. . ... : ... .. . ...
ROW 14 : ... .. . P80 ... ... ... : ... .. . ... ... ... P80 : ... .. . ... : ... .. . ... : ... .. . ...
ROW 15 : ... .. 3 P7F ... ... ... : ... .. 2 ... ... ... ... : --- .. . ... : ... .. . ... : ... .. . ...
ROW 16 : ... .. . ... ... ... ... : ... .. . ... ... ... P7F : ... .. . ... : ... .. . ... : ... .. . ...
ROW 17 : ... .. . P7E ... ... ... : ... .. . ... ... ... P7E : ... .. . ... : ... .. . ... : ... .. . ...
ROW 18 : ... .. . ... ... ... ... : ... .. . ... ... ... ... : ... .. . ... : ... .. . ... : ... .. . ...
ROW 19 : ... .. . P7F ... ... ... : ... .. . ... ... ... ... : ... .. . ... : ... .. . ... : ... .. . ...
ROW 1A : ... .. . ... ... ... ... : ... .. . ... ... ... ... : ... .. . ... : ... .. . ... : ... .. . ...
ROW 1B : ... .. . P80 ... ... ... : ... .. . ... ... ... P7F : ... .. . ... : ... .. . ... : ... .. . ...
ROW 1C : C-4 00 7 P7F ... ... ... : F-3 00 6 ... ... ... P7F : C#3 00 . ... : 2-# 00 7 ... : ... .. . ...
ROW 1D : ... .. . ... ... ... ... : ... .. . ... ... ... ... : ... .. . ... : ... .. 5 ... : ... .. . ...
ROW 1E : ... .. . P7E ... ... ... : ... .. . ... ... ... P7E : ... .. . ... : ... .. 3 ... : ... .. . ...
ROW 1F : ... .. 6 ... ... ... ... : ... .. 5 ... ... ... P7D : ... .. . ... : ... .. 2 ... : ... .. . ...
ROW 20 : ... .. . ... ... ... ... : ... .. . ... ... ... P7E : ... .. . ... : ... .. 0 ... : ... .. . ...
ROW 21 : ... .. . P7F ... ... ... : ... .. . ... ... ... P7F : ... .. . ... : ... .. . ... : ... .. . ...
ROW 22 : ... .. . P80 ... ... ... : ... .. . ... ... ... P80 : ... .. . ... : ... .. . ... : ... .. . ...
ROW 23 : ... .. 5 P81 ... ... ... : ... .. 4 ... ... ... ... : --- .. . ... : ... .. . ... : ... .. . ...
ROW 24 : ... .. . ... ... ... ... : ... .. . ... ... ... P81 : ... .. . ... : ... .. . ... : ... .. . ...
ROW 25 : ... .. . P80 ... ... ... : ... .. . ... ... ... ... : ... .. . ... : ... .. . ... : ... .. . ...
ROW 26 : ... .. . P7F ... ... ... : ... .. . ... ... ... P80 : ... .. . ... : ... .. . ... : ... .. . ...
ROW 27 : ... .. . ... ... ... ... : ... .. . ... ... ... P7F : ... .. . ... : ... .. . ... : ... .. . ...
ROW 28 : ... .. . P7E ... ... ... : ... .. . ... ... ... P7E : ... .. . ... : ... .. . ... : ... .. . ...
ROW 29 : ... .. . ... ... ... ... : ... .. . ... ... ... ... : ... .. . ... : ... .. . ... : ... .. . ...
ROW 2A : ... .. 4 P7F ... ... ... : ... .. 3 ... ... ... ... : C#3 00 . ... : 7-# 00 7 ... : ... .. . ...
ROW 2B : ... .. . ... ... ... ... : ... .. . ... ... ... ... : ... .. . ... : ... .. 5 ... : ... .. . ...
ROW 2C : ... .. . P80 ... ... ... : ... .. . ... ... ... P7F : ... .. . ... : ... .. 3 ... : ... .. . ...
ROW 2D : ... .. . P81 ... ... ... : ... .. . ... ... ... P80 : ... .. . ... : ... .. 2 ... : ... .. . ...
ROW 2E : ... .. . ... ... ... ... : ... .. . ... ... ... ... : ... .. . ... : ... .. 0 ... : ... .. . ...
ROW 2F : ... .. . ... ... ... ... : ... .. . ... ... ... P81 : ... .. . ... : ... .. . ... : ... .. . ...
ROW 30 : ... .. . P80 ... ... ... : ... .. . ... ... ... P80 : ... .. . ... : ... .. . ... : ... .. . ...
ROW 31 : ... .. 3 P7F ... ... ... : ... .. 2 ... ... ... ... : D#3 00 . ... : 2-# 00 7 ... : ... .. . ...
ROW 32 : ... .. . ... ... ... ... : ... .. . ... ... ... P7F : ... .. . ... : ... .. 5 ... : ... .. . ...
ROW 33 : ... .. . P7E ... ... ... : ... .. . ... ... ... P7E : ... .. . ... : ... .. 3 ... : ... .. . ...
ROW 34 : ... .. . ... ... ... ... : ... .. . ... ... ... ... : ... .. . ... : ... .. 2 ... : ... .. . ...
ROW 35 : ... .. . P7F ... ... ... : ... .. . ... ... ... ... : ... .. . ... : ... .. 0 ... : ... .. . ...
ROW 36 : ... .. . ... ... ... ... : ... .. . ... ... ... ... : ... .. . ... : ... .. . ... : ... .. . ...
ROW 37 : ... .. . P80 ... ... ... : ... .. . ... ... ... P7F : ... .. . ... : ... .. . ... : ... .. . ...
ROW 38 : A#3 00 7 P7F ... ... ... : G-3 00 6 ... ... ... P7F : --- .. . ... : ... .. . ... : ... .. . ...
ROW 39 : ... .. . ... ... ... ... : ... .. . ... ... ... ... : ... .. . ... : ... .. . ... : ... .. . ...
ROW 3A : ... .. . P7E ... ... ... : ... .. . ... ... ... P7E : ... .. . ... : ... .. . ... : ... .. . ...
ROW 3B : ... .. 6 ... ... ... ... : ... .. 5 ... ... ... P7D : ... .. . ... : ... .. . ... : ... .. . ...
ROW 3C : ... .. . ... ... ... ... : ... .. . ... ... ... P7E : ... .. . ... : ... .. . ... : ... .. . ...
ROW 3D : ... .. . P7F ... ... ... : ... .. . ... ... ... P7F : ... .. . ... : ... .. . ... : ... .. . ...
ROW 3E : ... .. . P80 ... ... ... : ... .. . ... ... ... P80 : ... .. . ... : ... .. . ... : ... .. . ...
ROW 3F : ... .. 5 P81 ... ... ... : ... .. 4 ... ... ... ... : D#3 00 . ... : 2-# 00 7 ... : ... .. . ...
ROW 40 : ... .. . ... ... ... ... : ... .. . ... ... ... P81 : ... .. . ... : ... .. 5 ... : ... .. . ...
ROW 41 : ... .. . P80 ... ... ... : ... .. . ... ... ... ... : ... .. . ... : ... .. 3 ... : ... .. . ...
ROW 42 : ... .. . P7F ... ... ... : ... .. . ... ... ... P80 : ... .. . ... : ... .. 2 ... : ... .. . ...
ROW 43 : ... .. . ... ... ... ... : ... .. . ... ... ... P7F : ... .. . ... : ... .. 0 ... : ... .. . ...
ROW 44 : ... .. . P7E ... ... ... : ... .. . ... ... ... P7E : ... .. . ... : ... .. . ... : ... .. . ...
ROW 45 : ... .. . ... ... ... ... : F-3 00 2 ... ... ... ... : ... .. . ... : ... .. . ... : ... .. . ...
ROW 46 : ... .. 4 P7F ... ... ... : G-2 00 6 ... ... ... P7F : --- .. . ... : 7-# 00 7 ... : ... .. . ...
ROW 47 : ... .. . ... ... ... ... : ... .. . ... ... ... ... : ... .. . ... : ... .. 5 ... : ... .. . ...
ROW 48 : ... .. . P80 ... ... ... : ... .. . ... ... ... P7E : ... .. . ... : ... .. 3 ... : ... .. . ...
ROW 49 : ... .. . P81 ... ... ... : ... .. 5 ... ... ... P7D : ... .. . ... : ... .. 2 ... : ... .. . ...
ROW 4A : ... .. . ... ... ... ... : ... .. . ... ... ... P7E : ... .. . ... : ... .. 0 ... : ... .. . ...
ROW 4B : ... .. . ... ... ... ... : ... .. . ... ... ... P7F : ... .. . ... : ... .. . ... : ... .. . ...
ROW 4C : ... .. . P80 ... ... ... : ... .. . ... ... ... P80 : ... .. . ... : ... .. . ... : ... .. . ...
ROW 4D : ... .. 3 P7F ... ... ... : ... .. 4 ... ... ... ... : D#3 00 . ... : 2-# 00 7 ... : ... .. . ...
ROW 4E : ... .. . ... ... ... ... : ... .. . ... ... ... P81 : ... .. . ... : ... .. 5 ... : ... .. . ...
ROW 4F : ... .. . P7E ... ... ... : ... .. . ... ... ... ... : ... .. . ... : ... .. 3 ... : ... .. . ...
ROW 50 : ... .. . ... ... ... ... : ... .. . ... ... ... P80 : ... .. . ... : ... .. 2 ... : ... .. . ...
ROW 51 : ... .. . P7F ... ... ... : ... .. . ... ... ... P7F : ... .. . ... : ... .. 0 ... : ... .. . ...
ROW 52 : ... .. . ... ... ... ... : ... .. . ... ... ... P7E : ... .. . ... : ... .. . ... : ... .. . ...
ROW 53 : ... .. . P80 ... ... ... : F-3 00 2 ... ... ... ... : --- .. . ... : ... .. . ... : ... .. . ...
ROW 54 : A-3 00 7 P7F ... ... ... : A#2 00 7 ... ... ... P7F : D#3 00 . ... : 2-# 00 7 ... : ... .. . ...
ROW 55 : ... .. . ... ... ... ... : ... .. . ... ... ... ... : ... .. . ... : ... .. 5 ... : ... .. . ...
ROW 56 : ... .. . P7E ... ... ... : ... .. . ... ... ... P7E : ... .. . ... : ... .. 3 ... : ... .. . ...
ROW 57 : ... .. 6 ... ... ... ... : ... .. 6 ... ... ... P7D : ... .. . ... : ... .. 2 ... : ... .. . ...
ROW 58 : ... .. . ... ... ... ... : ... .. . ... ... ... P7E : ... .. . ... : ... .. 0 ... : ... .. . ...
ROW 59 : ... .. . P7F ... ... ... : ... .. . ... ... ... P7F : ... .. . ... : ... .. . ... : ... .. . ...
ROW 5A : ... .. . P80 ... ... ... : ... .. . ... ... ... P80 : ... .. . ... : ... .. . ... : ... .. . ...
ROW 5B : ... .. 5 P81 ... ... ... : ... .. 5 ... ... ... ... : --- .. . ... : ... .. . ... : ... .. . ...
ROW 5C : ... .. . ... ... ... ... : ... .. . ... ... ... P81 : ... .. . ... : ... .. . ... : ... .. . ...
ROW 5D : ... .. . P80 ... ... ... : ... .. . ... ... ... ... : ... .. . ... : ... .. . ... : ... .. . ...
ROW 5E : ... .. . P7F ... ... ... : ... .. . ... ... ... P80 : ... .. . ... : ... .. . ... : ... .. . ...
ROW 5F : ... .. . ... ... ... ... : ... .. . ... ... ... P7F : ... .. . ... : ... .. . ... : ... .. . ...
ROW 60 : ... .. . P7E ... ... ... : ... .. . ... ... ... P7E : ... .. . ... : ... .. . ... : ... .. . ...
ROW 61 : ... .. . ... ... ... ... : F-3 00 2 ... ... ... ... : ... .. . ... : ... .. . ... : ... .. . ...
ROW 62 : ... .. 4 P7F ... ... ... : D#3 00 7 ... ... ... P7F : D#3 00 . ... : 7-# 00 7 ... : ... .. . ...
ROW 63 : ... .. . ... ... ... ... : ... .. . ... ... ... ... : ... .. . ... : ... .. 5 ... : ... .. . ...
ROW 64 : ... .. . P80 ... ... ... : ... .. . ... ... ... P7E : ... .. . ... : ... .. 3 ... : ... .. . ...
ROW 65 : ... .. . P81 ... ... ... : ... .. 6 ... ... ... P7D : ... .. . ... : ... .. 2 ... : ... .. . ...
ROW 66 : ... .. . ... ... ... ... : ... .. . ... ... ... P7E : ... .. . ... : ... .. 0 ... : ... .. . ...
ROW 67 : ... .. . ... ... ... ... : ... .. . ... ... ... P7F : ... .. . ... : ... .. . ... : ... .. . ...
ROW 68 : ... .. . P80 ... ... ... : ... .. . ... ... ... P80 : ... .. . ... : ... .. . ... : ... .. . ...
ROW 69 : ... .. 3 P7F ... ... ... : ... .. 5 ... ... ... ... : --- .. . ... : ... .. . ... : ... .. . ...
ROW 6A : ... .. . ... ... ... ... : ... .. . ... ... ... P81 : ... .. . ... : ... .. . ... : ... .. . ...
ROW 6B : ... .. . P7E ... ... ... : ... .. . ... ... ... ... : ... .. . ... : ... .. . ... : ... .. . ...
ROW 6C : ... .. . ... ... ... ... : ... .. . ... ... ... P80 : ... .. . ... : ... .. . ... : ... .. . ...
ROW 6D : ... .. . P7F ... ... ... : ... .. . ... ... ... P7F : ... .. . ... : ... .. . ... : ... .. . ...
ROW 6E : ... .. . ... ... ... ... : ... .. . ... ... ... P7E : ... .. . ... : ... .. . ... : ... .. . ...
ROW 6F : ... .. . P80 ... ... ... : F-3 00 2 ... ... ... ... : ... .. . ... : ... .. . ... : ... .. . ...
ROW 70 : C#4 00 7 P7F ... ... ... : D#3 00 7 V01 ... ... P7F : F-3 00 . ... : 2-# 00 7 ... : ... .. . ...
ROW 71 : ... .. . ... ... ... ... : ... .. . ... ... ... ... : ... .. . ... : ... .. 5 ... : ... .. . ...
ROW 72 : ... .. . P7E ... ... ... : ... .. . ... ... ... P7E : ... .. . ... : ... .. 3 ... : ... .. . ...
ROW 73 : ... .. 6 ... ... ... ... : ... .. 6 ... ... ... P7D : ... .. . ... : ... .. 2 ... : ... .. . ...
ROW 74 : ... .. . ... ... ... ... : ... .. . ... ... ... P7E : ... .. . ... : ... .. 0 ... : ... .. . ...
ROW 75 : ... .. . P7F ... ... ... : ... .. . ... ... ... P7F : ... .. . ... : ... .. . ... : ... .. . ...
ROW 76 : ... .. . P80 ... ... ... : ... .. . ... ... ... P80 : ... .. . ... : ... .. . ... : ... .. . ...
ROW 77 : ... .. 5 P81 ... ... ... : ... .. 5 ... ... ... ... : --- .. . ... : ... .. . ... : ... .. . ...
ROW 78 : ... .. . ... ... ... ... : ... .. . ... ... ... P81 : ... .. . ... : ... .. . ... : ... .. . ...
ROW 79 : ... .. . P80 ... ... ... : ... .. . ... ... ... ... : ... .. . ... : ... .. . ... : ... .. . ...
ROW 7A : ... .. . P7F ... ... ... : ... .. . ... ... ... P80 : ... .. . ... : ... .. . ... : ... .. . ...
ROW 7B : ... .. . ... ... ... ... : ... .. . ... ... ... P7F : ... .. . ... : ... .. . ... : ... .. . ...
ROW 7C : ... .. . P7E ... ... ... : ... .. . ... ... ... P7E : ... .. . ... : ... .. . ... : ... .. . ...
ROW 7D : ... .. . ... ... ... ... : ... .. . ... ... ... ... : ... .. . ... : ... .. . ... : ... .. . ...
ROW 7E : ... .. 4 P7F ... ... ... : ... .. 4 ... ... ... ... : F-3 00 . ... : 7-# 00 7 ... : ... .. . ...
ROW 7F : ... .. . ... ... ... ... : ... .. . ... ... ... ... : ... .. . ... : ... .. 5 ... : ... .. . ...
ROW 80 : ... .. . P80 ... ... ... : ... .. . ... ... ... P7F : ... .. . ... : ... .. 3 ... : ... .. . ...
ROW 81 : ... .. . P81 ... ... ... : ... .. . ... ... ... P80 : ... .. . ... : ... .. 2 ... : ... .. . ...
ROW 82 : ... .. . ... ... ... ... : ... .. . ... ... ... ... : ... .. . ... : ... .. 0 ... : ... .. . ...
ROW 83 : ... .. . ... ... ... ... : ... .. . ... ... ... P81 : ... .. . ... : ... .. . ... : ... .. . ...
ROW 84 : ... .. . P80 ... ... ... : ... .. . ... ... ... P80 : ... .. . ... : ... .. . ... : ... .. . ...
ROW 85 : ... .. 3 P7F ... ... ... : ... .. 3 ... ... ... ... : --- .. . ... : ... .. . ... : ... .. . ...
ROW 86 : ... .. . ... ... ... ... : ... .. . ... ... ... P7F : ... .. . ... : ... .. . ... : ... .. . ...
ROW 87 : ... .. . P7E ... ... ... : ... .. . ... ... ... P7E : ... .. . ... : ... .. . ... : ... .. . ...
ROW 88 : ... .. . ... ... ... ... : ... .. . ... ... ... ... : ... .. . ... : ... .. . ... : ... .. . ...
ROW 89 : ... .. . P7F ... ... ... : ... .. . ... ... ... ... : ... .. . ... : ... .. . ... : ... .. . ...
ROW 8A : ... .. . ... ... ... ... : ... .. . ... ... ... ... : ... .. . ... : ... .. . ... : ... .. . ...
ROW 8B : ... .. . P80 ... ... ... : ... .. . ... ... ... P7F : ... .. . ... : ... .. . ... : ... .. . ...
ROW 8C : C-4 00 7 P7F ... ... ... : D#3 00 7 V01 ... ... P7F : F-3 00 . ... : 2-# 00 7 ... : ... .. . ...
ROW 8D : ... .. . ... ... ... ... : ... .. . ... ... ... ... : ... .. . ... : ... .. 5 ... : ... .. . ...
ROW 8E : ... .. . P7E ... ... ... : ... .. . ... ... ... P7E : ... .. . ... : ... .. 3 ... : ... .. . ...
ROW 8F : ... .. 6 ... ... ... ... : ... .. 6 ... ... ... P7D : ... .. . ... : ... .. 2 ... : ... .. . ...
ROW 90 : ... .. . ... ... ... ... : ... .. . ... ... ... P7E : ... .. . ... : ... .. 0 ... : ... .. . ...
ROW 91 : ... .. . P7F ... ... ... : ... .. . ... ... ... P7F : ... .. . ... : ... .. . ... : ... .. . ...
ROW 92 : ... .. . P80 ... ... ... : ... .. . ... ... ... P80 : ... .. . ... : ... .. . ... : ... .. . ...
ROW 93 : ... .. 5 P81 ... ... ... : ... .. 5 ... ... ... ... : --- .. . ... : ... .. . ... : ... .. . ...
ROW 94 : ... .. . ... ... ... ... : ... .. . ... ... ... P81 : ... .. . ... : ... .. . ... : ... .. . ...
ROW 95 : ... .. . P80 ... ... ... : ... .. . ... ... ... ... : ... .. . ... : ... .. . ... : ... .. . ...
ROW 96 : ... .. . P7F ... ... ... : ... .. . ... ... ... P80 : ... .. . ... : ... .. . ... : ... .. . ...
ROW 97 : ... .. . ... ... ... ... : ... .. . ... ... ... P7F : ... .. . ... : ... .. . ... : ... .. . ...
ROW 98 : ... .. . P7E ... ... ... : ... .. . ... ... ... P7E : ... .. . ... : ... .. . ... : ... .. . ...
ROW 99 : ... .. . ... ... ... ... : ... .. . ... ... ... ... : ... .. . ... : ... .. . ... : ... .. . ...
ROW 9A : ... .. 4 P7F ... ... ... : ... .. 4 ... ... ... ... : F-3 00 . ... : 7-# 00 7 ... : ... .. . ...
ROW 9B : ... .. . ... ... ... ... : ... .. . ... ... ... ... : ... .. . ... : ... .. 5 ... : ... .. . ...
ROW 9C : ... .. . P80 ... ... ... : ... .. . ... ... ... P7F : ... .. . ... : ... .. 3 ... : ... .. . ...
ROW 9D : ... .. . P81 ... ... ... : ... .. . ... ... ... P80 : ... .. . ... : ... .. 2 ... : ... .. . ...
ROW 9E : ... .. . ... ... ... ... : ... .. . ... ... ... ... : ... .. . ... : ... .. 0 ... : ... .. . ...
ROW 9F : ... .. . ... ... ... ... : ... .. . ... ... ... P81 : ... .. . ... : ... .. . ... : ... .. . ...
ROW A0 : ... .. . P80 ... ... ... : ... .. . ... ... ... P80 : --- .. . ... : ... .. . ... : ... .. . ...
ROW A1 : ... .. 3 P7F ... ... ... : ... .. 3 ... ... ... ... : F-3 00 . ... : 2-# 00 7 ... : ... .. . ...
ROW A2 : ... .. . ... ... ... ... : ... .. . ... ... ... P7F : ... .. . ... : ... .. 5 ... : ... .. . ...
ROW A3 : ... .. . P7E ... ... ... : ... .. . ... ... ... P7E : ... .. . ... : ... .. 3 ... : ... .. . ...
ROW A4 : ... .. . ... ... ... ... : ... .. . ... ... ... ... : ... .. . ... : ... .. 2 ... : ... .. . ...
ROW A5 : ... .. . P7F ... ... ... : ... .. . ... ... ... ... : ... .. . ... : ... .. 0 ... : ... .. . ...
ROW A6 : ... .. . ... ... ... ... : ... .. . ... ... ... ... : ... .. . ... : ... .. . ... : ... .. . ...
ROW A7 : ... .. . P80 ... ... ... : ... .. . ... ... ... P7F : ... .. . ... : ... .. . ... : ... .. . ...
ROW A8 : A#3 00 7 P7F ... ... ... : D#3 00 7 V01 ... ... P7F : --- 00 . ... : ... .. . ... : ... .. . ...
ROW A9 : ... .. . ... ... ... ... : ... .. . ... ... ... ... : ... .. . ... : ... .. . ... : ... .. . ...
ROW AA : ... .. . P7E ... ... ... : ... .. . ... ... ... P7E : ... .. . ... : ... .. . ... : ... .. . ...
ROW AB : ... .. 6 ... ... ... ... : ... .. 6 ... ... ... P7D : ... .. . ... : ... .. . ... : ... .. . ...
ROW AC : ... .. . ... ... ... ... : ... .. . ... ... ... P7E : ... .. . ... : ... .. . ... : ... .. . ...
ROW AD : ... .. . P7F ... ... ... : ... .. . ... ... ... P7F : ... .. . ... : ... .. . ... : ... .. . ...
ROW AE : ... .. . P80 ... ... ... : ... .. . ... ... ... P80 : ... .. . ... : ... .. . ... : ... .. . ...
ROW AF : ... .. 5 P81 ... ... ... : ... .. 5 ... ... ... ... : F-3 00 . ... : 2-# 00 7 ... : ... .. . ...
ROW B0 : ... .. . ... ... ... ... : ... .. . ... ... ... P81 : ... .. . ... : ... .. 5 ... : ... .. . ...
ROW B1 : ... .. . P80 ... ... ... : ... .. . ... ... ... ... : ... .. . ... : ... .. 3 ... : ... .. . ...
ROW B2 : ... .. . P7F ... ... ... : ... .. . ... ... ... P80 : ... .. . ... : ... .. 2 ... : ... .. . ...
ROW B3 : ... .. . ... ... ... ... : ... .. . ... ... ... P7F : ... .. . ... : ... .. 0 ... : ... .. . ...
ROW B4 : ... .. . P7E ... ... ... : ... .. . ... ... ... P7E : ... .. . ... : ... .. . ... : ... .. . ...
ROW B5 : ... .. . ... ... ... ... : ... .. . ... ... ... ... : ... .. . ... : ... .. . ... : ... .. . ...
ROW B6 : ... .. 4 P7F ... ... ... : ... .. 4 ... ... ... ... : --- .. . ... : 7-# 00 7 ... : ... .. . ...
ROW B7 : ... .. . ... ... ... ... : ... .. . ... ... ... ... : ... .. . ... : ... .. 5 ... : ... .. . ...
ROW B8 : ... .. . P80 ... ... ... : ... .. . ... ... ... P7F : ... .. . ... : ... .. 3 ... : ... .. . ...
ROW B9 : ... .. . P81 ... ... ... : ... .. . ... ... ... P80 : ... .. . ... : ... .. 2 ... : ... .. . ...
ROW BA : ... .. . ... ... ... ... : ... .. . ... ... ... ... : ... .. . ... : ... .. 0 ... : ... .. . ...
ROW BB : ... .. . ... ... ... ... : ... .. . ... ... ... P81 : ... .. . ... : ... .. . ... : ... .. . ...
ROW BC : ... .. . P80 ... ... ... : ... .. . ... ... ... P80 : ... .. . ... : ... .. . ... : ... .. . ...
ROW BD : C-4 00 7 P7F ... ... ... : ... .. 3 ... ... ... ... : F-3 00 . ... : 2-# 00 7 ... : ... .. . ...
ROW BE : ... .. . ... ... ... ... : ... .. . ... ... ... P7F : ... .. . ... : ... .. 5 ... : ... .. . ...
ROW BF : ... .. . P7E ... ... ... : ... .. . ... ... ... P7E : ... .. . ... : ... .. 3 ... : ... .. . ...
ROW C0 : A#3 00 7 P7F ... ... ... : ... .. . ... ... ... ... : ... .. . ... : ... .. 2 ... : ... .. . ...
ROW C1 : ... .. . ... ... ... ... : ... .. . ... ... ... ... : ... .. . ... : ... .. 0 ... : ... .. . ...
ROW C2 : ... .. . P7E ... ... ... : ... .. . ... ... ... ... : ... .. . ... : ... .. . ... : ... .. . ...
ROW C3 : ... .. 6 ... ... ... ... : ... .. . ... ... ... P7F : --- .. . ... : ... .. . ... : ... .. . ...
ROW C4 : A-3 00 7 P7F ... ... ... : D#3 00 7 V01 ... ... P7F : F-3 00 . ... : 2-# 00 7 ... : ... .. . ...
ROW C5 : ... .. . ... ... ... ... : ... .. . ... ... ... ... : ... .. . ... : ... .. 5 ... : ... .. . ...
ROW C6 : ... .. . P7E ... ... ... : ... .. . ... ... ... P7E : ... .. . ... : ... .. 3 ... : ... .. . ...
ROW C7 : ... .. 6 ... ... ... ... : ... .. 6 ... ... ... P7D : ... .. . ... : ... .. 2 ... : ... .. . ...
ROW C8 : ... .. . ... ... ... ... : ... .. . ... ... ... P7E : ... .. . ... : ... .. 0 ... : ... .. . ...
ROW C9 : ... .. . P7F ... ... ... : ... .. . ... ... ... P7F : ... .. . ... : ... .. . ... : ... .. . ...
ROW CA : ... .. . P80 ... ... ... : ... .. . ... ... ... P80 : ... .. . ... : ... .. . ... : ... .. . ...
ROW CB : ... .. 5 P81 ... ... ... : ... .. 5 ... ... ... ... : --- .. . ... : ... .. . ... : ... .. . ...
ROW CC : ... .. . ... ... ... ... : ... .. . ... ... ... P81 : ... .. . ... : ... .. . ... : ... .. . ...
ROW CD : ... .. . P80 ... ... ... : ... .. . ... ... ... ... : ... .. . ... : ... .. . ... : ... .. . ...
ROW CE : ... .. . P7F ... ... ... : ... .. . ... ... ... P80 : ... .. . ... : ... .. . ... : ... .. . ...
ROW CF : ... .. . ... ... ... ... : ... .. . ... ... ... P7F : ... .. . ... : ... .. . ... : ... .. . ...
ROW D0 : ... .. . P7E ... ... ... : ... .. . ... ... ... P7E : ... .. . ... : ... .. . ... : ... .. . ...
ROW D1 : ... .. . ... ... ... ... : ... .. . ... ... ... ... : ... .. . ... : ... .. . ... : ... .. . ...
ROW D2 : ... .. 4 P7F ... ... ... : ... .. 4 ... ... ... ... : F-3 00 . ... : 7-# 00 7 ... : ... .. . ...
ROW D3 : ... .. . ... ... ... ... : ... .. . ... ... ... ... : ... .. . ... : ... .. 5 ... : ... .. . ...
ROW D4 : ... .. . P80 ... ... ... : ... .. . ... ... ... P7F : ... .. . ... : ... .. 3 ... : ... .. . ...
ROW D5 : ... .. . P81 ... ... ... : ... .. . ... ... ... P80 : ... .. . ... : ... .. 2 ... : ... .. . ...
ROW D6 : ... .. . ... ... ... ... : ... .. . ... ... ... ... : ... .. . ... : ... .. 0 ... : ... .. . ...
ROW D7 : ... .. . ... ... ... ... : ... .. . ... ... ... P81 : ... .. . ... : ... .. . ... : ... .. . ...
ROW D8 : ... .. . P80 ... ... ... : ... .. . ... ... ... P80 : ... .. . ... : ... .. . ... : ... .. . ...
ROW D9 : ... .. 3 P7F ... ... ... : ... .. 3 ... ... ... ... : --- .. . ... : ... .. . ... : ... .. . ...
ROW DA : ... .. . ... ... ... ... : ... .. . ... ... ... P7F : ... .. . ... : ... .. . ... : ... .. . ...
ROW DB : ... .. . P7E ... ... ... : ... .. . ... ... ... P7E : ... .. . ... : ... .. . ... : ... .. . ...
ROW DC : ... .. . ... ... ... ... : ... .. . ... ... ... ... : ... .. . ... : ... .. . ... : ... .. . ...
ROW DD : ... .. . P7F ... ... ... : ... .. . ... ... ... ... : ... .. . ... : ... .. . ... : ... .. . ...
ROW DE : ... .. . ... ... ... ... : ... .. . ... ... ... ... : ... .. . ... : ... .. . ... : ... .. . ...
ROW DF : ... .. . P80 ... ... ... : ... .. . ... ... ... P7F : ... .. . ... : ... .. . ... : ... .. . ...

PATTERN 32
ROW 00 : --- .. . ... ... ... ... : G-3 00 7 V02 ... ... ... : C-3 00 . ... : 2-# 00 5 V00 : ... .. . ...
ROW 01 : ... .. . ... ... ... ... : ... .. . ... ... ... ... : ... .. . ... : ... .. 4 ... : ... .. . ...
ROW 02 : ... .. . ... ... ... ... : ... .. 6 ... ... ... ... : ... .. . ... : ... .. 3 ... : ... .. . ...
ROW 03 : ... .. . ... ... ... ... : ... .. . ... ... ... ... : ... .. . ... : ... .. 2 ... : ... .. . ...
ROW 04 : ... .. . ... ... ... ... : ... .. 5 ... ... ... ... : ... .. . ... : ... .. 1 ... : ... .. . ...
ROW 05 : ... .. . ... ... ... ... : ... .. . ... ... ... ... : ... .. . ... : ... .. 0 ... : ... .. . ...
ROW 06 : ... .. . ... ... ... ... : ... .. . ... ... ... ... : ... .. . ... : ... .. . ... : ... .. . ...
ROW 07 : G-3 00 2 V02 ... ... P80 : ... .. . ... ... ... ... : ... .. . ... : 2-# 00 1 ... : ... .. . ...
ROW 08 : ... .. . ... ... ... ... : ... .. . ... ... ... ... : ... .. . ... : ... .. 0 ... : ... .. . ...
ROW 09 : ... .. . ... ... ... ... : ... .. . ... ... ... ... : ... .. . ... : ... .. . ... : ... .. . ...
ROW 0A : ... .. . ... ... ... ... : ... .. . ... ... ... ... : ... .. . ... : ... .. . ... : ... .. . ...
ROW 0B : ... .. . ... ... ... ... : ... .. . ... ... ... ... : ... .. . ... : ... .. . ... : ... .. . ...
ROW 0C : ... .. . ... ... ... ... : ... .. . ... ... ... ... : --- .. . ... : ... .. . ... : ... .. . ...
ROW 0D : ... .. . ... ... ... ... : ... .. . ... ... ... ... : ... .. . ... : ... .. . ... : ... .. . ...
ROW 0E : ... .. . ... ... ... ... : C-3 00 5 V02 ... ... ... : E-4 00 . ... : E-# 00 3 ... : ... .. . ...
ROW 0F : ... .. . ... ... ... ... : ... .. . ... ... ... ... : ... .. . ... : ... .. . ... : ... .. . ...
ROW 10 : ... .. . ... ... ... ... : ... .. . ... ... ... ... : ... .. . ... : ... .. 2 ... : ... .. . ...
ROW 11 : ... .. . ... ... ... ... : ... .. . ... ... ... ... : ... .. . ... : ... .. . ... : ... .. . ...
ROW 12 : ... .. . ... ... ... ... : ... .. . ... ... ... ... : ... .. . ... : ... .. 1 ... : ... .. . ...
ROW 13 : ... .. . ... ... ... ... : ... .. . ... ... ... ... : ... .. . ... : ... .. . ... : ... .. . ...
ROW 14 : ... .. . ... ... ... ... : ... .. . ... ... ... ... : ... .. . ... : ... .. . ... : ... .. . ...
ROW 15 : E-3 00 . ... ... ... ... : ... .. . ... ... ... ... : ... .. . ... : ... .. . ... : ... .. . ...
ROW 16 : ... .. . ... ... ... ... : ... .. . ... ... ... ... : ... .. . ... : ... .. . ... : ... .. . ...
ROW 17 : ... .. . ... ... ... ... : ... .. . ... ... ... ... : ... .. . ... : ... .. . ... : ... .. . ...
ROW 18 : ... .. . ... ... ... ... : ... .. . ... ... ... ... : ... .. . ... : ... .. . ... : ... .. . ...
ROW 19 : ... .. . ... ... ... ... : ... .. 2 ... ... ... ... : ... .. . ... : ... .. . ... : ... .. . ...
ROW 1A : ... .. . ... ... ... ... : ... .. . ... ... ... ... : ... .. . ... : ... .. . ... : ... .. . ...
ROW 1B : ... .. . ... ... ... ... : ... .. . ... ... ... ... : ... .. . ... : ... .. . ... : ... .. . ...
ROW 1C : ... .. . ... ... ... ... : D-3 00 5 ... ... ... ... : F#4 00 . ... : 7-# 00 5 ... : ... .. . ...
ROW 1D : ... .. . ... ... ... ... : ... .. . ... ... ... ... : ... .. . ... : ... .. 4 ... : ... .. . ...
ROW 1E : ... .. . ... ... ... ... : ... .. . ... ... ... ... : ... .. . ... : ... .. 3 ... : ... .. . ...
ROW 1F : ... .. . ... ... ... ... : ... .. . ... ... ... ... : ... .. . ... : ... .. . ... : ... .. . ...
ROW 20 : ... .. . ... ... ... ... : ... .. . ... ... ... ... : ... .. . ... : ... .. 2 ... : ... .. . ...
ROW 21 : ... .. . ... ... ... ... : ... .. . ... ... ... ... : ... .. . ... : ... .. . ... : ... .. . ...
ROW 22 : ... .. . ... ... ... ... : ... .. . ... ... ... ... : ... .. . ... : ... .. 1 ... : ... .. . ...
ROW 23 : F#3 00 . ... ... ... ... : ... .. . ... ... ... ... : ... .. . ... : ... .. . ... : ... .. . ...
ROW 24 : ... .. . ... ... ... ... : ... .. . ... ... ... ... : ... .. . ... : ... .. 0 ... : ... .. . ...
ROW 25 : ... .. . ... ... ... ... : ... .. . ... ... ... ... : ... .. . ... : ... .. . ... : ... .. . ...
ROW 26 : ... .. . ... ... ... ... : ... .. . ... ... ... ... : ... .. . ... : ... .. . ... : ... .. . ...
ROW 27 : ... .. . ... ... ... ... : ... .. . ... ... ... ... : ... .. . ... : ... .. . ... : ... .. . ...
ROW 28 : ... .. . ... ... ... ... : ... .. . ... ... ... ... : ... .. . ... : ... .. . ... : ... .. . ...
ROW 29 : ... .. . ... ... ... ... : ... .. . ... ... ... ... : ... .. . ... : ... .. . ... : ... .. . ...
ROW 2A : D-3 00 6 V00 ... ... P81 : ... .. 2 ... ... ... ... : G-2 00 . ... : E-# 00 3 ... : ... .. . ...
ROW 2B : ... .. . ... ... ... ... : ... .. . ... ... ... ... : ... .. . ... : ... .. . ... : ... .. . ...
ROW 2C : ... .. . ... ... ... P80 : ... .. . ... ... ... ... : ... .. . ... : ... .. 2 ... : ... .. . ...
ROW 2D : ... .. . ... ... ... P7F : ... .. . ... ... ... ... : ... .. . ... : ... .. . ... : ... .. . ...
ROW 2E : ... .. . ... ... ... ... : ... .. . ... ... ... ... : ... .. . ... : ... .. 1 ... : ... .. . ...
ROW 2F : ... .. . ... ... ... P80 : ... .. . ... ... ... ... : ... .. . ... : ... .. . ... : ... .. . ...
ROW 30 : ... .. . ... ... ... ... : ... .. . ... ... ... ... : ... .. . ... : ... .. . ... : ... .. . ...
ROW 31 : ... .. . ... ... ... P81 : D-3 00 2 V00 ... ... P81 : ... .. . ... : ... .. . ... : ... .. . ...
ROW 32 : ... .. . ... ... ... P80 : ... .. . ... ... ... ... : ... .. . ... : ... .. . ... : ... .. . ...
ROW 33 : ... .. . ... ... ... ... : ... .. . ... ... ... ... : ... .. . ... : ... .. . ... : ... .. . ...
ROW 34 : ... .. . ... ... ... P7F : ... .. . ... ... ... ... : ... .. . ... : ... .. . ... : ... .. . ...
ROW 35 : ... .. . ... ... ... P80 : ... .. . ... ... ... ... : ... .. . ... : ... .. . ... : ... .. . ...
ROW 36 : ... .. 2 ... ... ... ... : ... .. . ... ... ... ... : --- .. . ... : ... .. . ... : ... .. . ...
ROW 37 : ... .. . ... ... ... P81 : ... .. . ... ... ... ... : ... .. . ... : ... .. . ... : ... .. . ...
ROW 38 : E-3 00 6 ... ... ... P81 : ... .. . ... ... ... ... : C-3 00 . ... : 2-# 00 5 ... : ... .. . ...
ROW 39 : ... .. . ... ... ... ... : ... .. . ... ... ... ... : ... .. . ... : ... .. 4 ... : ... .. . ...
ROW 3A : ... .. . ... ... ... P80 : ... .. . ... ... ... ... : ... .. . ... : ... .. 3 ... : ... .. . ...
ROW 3B : ... .. . ... ... ... P7F : ... .. . ... ... ... ... : ... .. . ... : ... .. 2 ... : ... .. . ...
ROW 3C : ... .. . ... ... ... ... : ... .. . ... ... ... ... : ... .. . ... : ... .. 1 ... : ... .. . ...
ROW 3D : ... .. . ... ... ... P80 : ... .. . ... ... ... ... : ... .. . ... : ... .. 0 ... : ... .. . ...
ROW 3E : ... .. . ... ... ... ... : ... .. . ... ... ... ... : ... .. . ... : ... .. . ... : ... .. . ...
ROW 3F : ... .. 5 ... ... ... P81 : E-3 00 2 ... ... ... ... : ... .. . ... : 2-# 00 1 ... : ... .. . ...
ROW 40 : ... .. . ... ... ... P80 : ... .. . ... ... ... ... : ... .. . ... : ... .. 0 ... : ... .. . ...
ROW 41 : ... .. . ... ... ... ... : ... .. . ... ... ... ... : ... .. . ... : ... .. . ... : ... .. . ...
ROW 42 : ... .. . ... ... ... P7F : ... .. . ... ... ... ... : ... .. . ... : ... .. . ... : ... .. . ...
ROW 43 : ... .. . ... ... ... P80 : ... .. . ... ... ... ... : ... .. . ... : ... .. . ... : ... .. . ...
ROW 44 : ... .. . ... ... ... ... : ... .. . ... ... ... ... : --- .. . ... : ... .. . ... : ... .. . ...
ROW 45 : ... .. . ... ... ... P81 : ... .. . ... ... ... ... : ... .. . ... : ... .. . ... : ... .. . ...
ROW 46 : ... .. 4 ... ... ... ... : C-3 00 5 V02 ... ... ... : E-4 00 . ... : E-# 00 3 ... : ... .. . ...
ROW 47 : ... .. . ... ... ... P80 : ... .. . ... ... ... ... : ... .. . ... : ... .. . ... : ... .. . ...
ROW 48 : ... .. . ... ... ... ... : ... .. . ... ... ... ... : ... .. . ... : ... .. 2 ... : ... .. . ...
ROW 49 : ... .. . ... ... ... P81 : ... .. . ... ... ... ... : ... .. . ... : ... .. . ... : ... .. . ...
ROW 4A : ... .. . ... ... ... ... : ... .. . ... ... ... ... : ... .. . ... : ... .. 1 ... : ... .. . ...
ROW 4B : ... .. . ... ... ... P81 : ... .. . ... ... ... ... : ... .. . ... : ... .. . ... : ... .. . ...
ROW 4C : ... .. . ... ... ... ... : ... .. . ... ... ... ... : ... .. . ... : ... .. . ... : ... .. . ...
ROW 4D : ... .. 3 ... ... ... P80 : ... .. . ... ... ... ... : ... .. . ... : ... .. . ... : ... .. . ...
ROW 4E : ... .. . ... ... ... P7F : ... .. . ... ... ... ... : ... .. . ... : ... .. . ... : ... .. . ...
ROW 4F : ... .. . ... ... ... ... : ... .. . ... ... ... ... : ... .. . ... : ... .. . ... : ... .. . ...
ROW 50 : ... .. . ... ... ... P80 : ... .. . ... ... ... ... : ... .. . ... : ... .. . ... : ... .. . ...
ROW 51 : ... .. . ... ... ... ... : ... .. 2 ... ... ... ... : ... .. . ... : ... .. . ... : ... .. . ...
ROW 52 : ... .. . ... ... ... P81 : ... .. . ... ... ... ... : ... .. . ... : ... .. . ... : ... .. . ...
ROW 53 : ... .. . ... ... ... P80 : ... .. . ... ... ... ... : ... .. . ... : ... .. . ... : ... .. . ...
ROW 54 : ... .. 2 ... ... ... ... : D-3 00 5 ... ... ... ... : F#4 00 . ... : 7-# 00 5 ... : ... .. . ...
ROW 55 : ... .. . ... ... ... P7F : ... .. . ... ... ... ... : ... .. . ... : ... .. 4 ... : ... .. . ...
ROW 56 : ... .. . ... ... ... P80 : ... .. . ... ... ... ... : ... .. . ... : ... .. 3 ... : ... .. . ...
ROW 57 : ... .. . ... ... ... ... : ... .. . ... ... ... ... : ... .. . ... : ... .. . ... : ... .. . ...
ROW 58 : ... .. . ... ... ... P81 : ... .. . ... ... ... ... : ... .. . ... : ... .. 2 ... : ... .. . ...
ROW 59 : ... .. . ... ... ... P81 : ... .. . ... ... ... ... : ... .. . ... : ... .. . ... : ... .. . ...
ROW 5A : ... .. . ... ... ... ... : ... .. . ... ... ... ... : ... .. . ... : ... .. 1 ... : ... .. . ...
ROW 5B : ... .. 1 ... ... ... P80 : ... .. . ... ... ... ... : ... .. . ... : ... .. . ... : ... .. . ...
ROW 5C : ... .. . ... ... ... P7F : ... .. . ... ... ... ... : ... .. . ... : ... .. 0 ... : ... .. . ...
ROW 5D : ... .. . ... ... ... ... : ... .. . ... ... ... ... : ... .. . ... : ... .. . ... : ... .. . ...
ROW 5E : ... .. . ... ... ... P80 : ... .. . ... ... ... ... : ... .. . ... : ... .. . ... : ... .. . ...
ROW 5F : ... .. . ... ... ... ... : ... .. . ... ... ... ... : ... .. . ... : ... .. . ... : ... .. . ...
ROW 60 : ... .. . ... ... ... P81 : ... .. . ... ... ... ... : ... .. . ... : ... .. . ... : ... .. . ...
ROW 61 : ... .. . ... ... ... P80 : ... .. . ... ... ... ... : ... .. . ... : ... .. . ... : ... .. . ...
ROW 62 : G-1 00 5 ... ... ... P7F : ... .. 2 ... ... ... ... : G-2 00 . ... : E-# 00 3 ... : ... .. . ...
ROW 63 : ... .. . ... ... ... P7E : ... .. . ... ... ... ... : ... .. . ... : ... .. . ... : ... .. . ...
ROW 64 : ... .. . ... ... ... P7D : ... .. . ... ... ... ... : ... .. . ... : ... .. 2 ... : ... .. . ...
ROW 65 : ... .. . ... ... ... P7E : ... .. . ... ... ... ... : ... .. . ... : ... .. . ... : ... .. . ...
ROW 66 : ... .. . ... ... ... P7F : ... .. . ... ... ... ... : ... .. . ... : ... .. 1 ... : ... .. . ...
ROW 67 : ... .. . ... ... ... P80 : ... .. . ... ... ... ... : ... .. . ... : ... .. . ... : ... .. . ...
ROW 68 : ... .. . ... ... ... P81 : ... .. . ... ... ... ... : ... .. . ... : ... .. . ... : ... .. . ...
ROW 69 : ... .. . ... ... ... P82 : G-1 00 . V00 ... ... P82 : ... .. . ... : ... .. . ... : ... .. . ...
ROW 6A : ... .. . ... ... ... P83 : ... .. . ... ... ... P81 : ... .. . ... : ... .. . ... : ... .. . ...
ROW 6B : ... .. . ... ... ... P82 : ... .. . ... ... ... P80 : ... .. . ... : ... .. . ... : ... .. . ...
ROW 6C : ... .. . ... ... ... P81 : ... .. . ... ... ... P81 : ... .. . ... : ... .. . ... : ... .. . ...
ROW 6D : ... .. . ... ... ... P80 : ... .. . ... ... ... P82 : ... .. . ... : ... .. . ... : ... .. . ...
ROW 6E : ... .. 2 ... ... ... P7F : ... .. . ... ... ... P83 : --- .. . ... : ... .. . ... : ... .. . ...
ROW 6F : ... .. . ... ... ... P7E : ... .. . ... ... ... P84 : ... .. . ... : ... .. . ... : ... .. . ...
ROW 70 : C-2 00 5 ... ... ... P7F : ... .. . ... ... ... P85 : C-3 00 . ... : 2-# 00 5 V00 : ... .. . ...
ROW 71 : ... .. . ... ... ... P7E : ... .. . ... ... ... P86 : ... .. . ... : ... .. 4 ... : ... .. . ...
ROW 72 : ... .. . ... ... ... P7D : ... .. . ... ... ... P85 : ... .. . ... : ... .. 3 ... : ... .. . ...
ROW 73 : ... .. . ... ... ... P7E : ... .. . ... ... ... P84 : ... .. . ... : ... .. 2 ... : ... .. . ...
ROW 74 : ... .. . ... ... ... P7F : ... .. . ... ... ... P83 : ... .. . ... : ... .. 1 ... : ... .. . ...
ROW 75 : ... .. . ... ... ... P80 : ... .. . ... ... ... P82 : ... .. . ... : ... .. 0 ... : ... .. . ...
ROW 76 : ... .. . ... ... ... P81 : ... .. . ... ... ... P81 : ... .. . ... : ... .. . ... : ... .. . ...
ROW 77 : ... .. . ... ... ... P82 : C-2 00 . ... ... ... P80 : ... .. . ... : 2-# 00 1 ... : ... .. . ...
ROW 78 : ... .. . ... ... ... P83 : ... .. . ... ... ... P81 : ... .. . ... : ... .. 0 ... : ... .. . ...
ROW 79 : ... .. . ... ... ... P82 : ... .. . ... ... ... P82 : ... .. . ... : ... .. . ... : ... .. . ...
ROW 7A : ... .. . ... ... ... P81 : ... .. . ... ... ... P83 : ... .. . ... : ... .. . ... : ... .. . ...
ROW 7B : ... .. . ... ... ... P80 : ... .. . ... ... ... P84 : ... .. . ... : ... .. . ... : ... .. . ...
ROW 7C : ... .. . ... ... ... P7F : ... .. . ... ... ... P85 : --- .. . ... : ... .. . ... : ... .. . ...
ROW 7D : ... .. . ... ... ... P7E : ... .. . ... ... ... P86 : ... .. . ... : ... .. . ... : ... .. . ...
ROW 7E : ... .. 2 ... ... ... P7D : E-3 00 5 V02 ... ... P80 : ... .. . ... : E-# 00 3 ... : ... .. . ...
ROW 7F : ... .. . ... ... ... P7E : ... .. . ... ... ... ... : ... .. . ... : ... .. . ... : ... .. . ...
ROW 80 : ... .. . ... ... ... P7F : ... .. . ... ... ... ... : ... .. . ... : ... .. 2 ... : ... .. . ...
ROW 81 : ... .. . ... ... ... P80 : E-4 00 . ... ... ... ... : ... .. . ... : ... .. . ... : ... .. . ...
ROW 82 : ... .. . ... ... ... P81 : ... .. . ... ... ... ... : ... .. . ... : ... .. 1 ... : ... .. . ...
ROW 83 : ... .. . ... ... ... P82 : ... .. . ... ... ... ... : ... .. . ... : ... .. . ... : ... .. . ...
ROW 84 : ... .. . ... ... ... P83 : E-3 00 . ... ... ... ... : ... .. . ... : ... .. . ... : ... .. . ...
ROW 85 : E-3 00 1 V02 ... ... P7F : ... .. . ... ... ... ... : ... .. . ... : ... .. . ... : ... .. . ...
ROW 86 : ... .. . ... ... ... ... : ... .. . ... ... ... ... : ... .. . ... : ... .. . ... : ... .. . ...
ROW 87 : ... .. . ... ... ... ... : E-4 00 4 ... ... ... ... : ... .. . ... : ... .. . ... : ... .. . ...
ROW 88 : E-4 00 . ... ... ... ... : ... .. . ... ... ... ... : ... .. . ... : ... .. . ... : ... .. . ...
ROW 89 : ... .. . ... ... ... ... : ... .. 2 ... ... ... ... : ... .. . ... : ... .. . ... : ... .. . ...
ROW 8A : ... .. . ... ... ... ... : E-3 00 . ... ... ... ... : ... .. . ... : ... .. . ... : ... .. . ...
ROW 8B : E-3 00 . ... ... ... ... : ... .. . ... ... ... ... : ... .. . ... : ... .. . ... : ... .. . ...
ROW 8C : ... .. . ... ... ... ... : F#3 00 5 ... ... ... ... : D-3 00 . ... : 7-# 00 5 ... : ... .. . ...
ROW 8D : ... .. . ... ... ... ... : ... .. . ... ... ... ... : ... .. . ... : ... .. 4 ... : ... .. . ...
ROW 8E : E-4 00 . ... ... ... ... : ... .. . ... ... ... ... : ... .. . ... : ... .. 3 ... : ... .. . ...
ROW 8F : ... .. . ... ... ... ... : F#4 00 . ... ... ... ... : ... .. . ... : ... .. . ... : ... .. . ...
ROW 90 : ... .. . ... ... ... ... : ... .. . ... ... ... ... : ... .. . ... : ... .. 2 ... : ... .. . ...
ROW 91 : E-3 00 . ... ... ... ... : ... .. . ... ... ... ... : ... .. . ... : ... .. . ... : ... .. . ...
ROW 92 : ... .. . ... ... ... ... : F#3 00 . ... ... ... ... : ... .. . ... : ... .. 1 ... : ... .. . ...
ROW 93 : F#3 00 . ... ... ... ... : ... .. . ... ... ... ... : ... .. . ... : ... .. . ... : ... .. . ...
ROW 94 : ... .. . ... ... ... ... : ... .. . ... ... ... ... : ... .. . ... : ... .. 0 ... : ... .. . ...
ROW 95 : ... .. . ... ... ... ... : F#4 00 4 ... ... ... ... : ... .. . ... : ... .. . ... : ... .. . ...
ROW 96 : F#4 00 . ... ... ... ... : ... .. . ... ... ... ... : ... .. . ... : ... .. . ... : ... .. . ...
ROW 97 : ... .. . ... ... ... ... : E-2 00 2 ... ... ... ... : ... .. . ... : ... .. . ... : ... .. . ...
ROW 98 : ... .. . ... ... ... ... : ... .. . ... ... ... ... : --- .. . ... : ... .. . ... : ... .. . ...
ROW 99 : F#3 00 . ... ... ... ... : ... .. . ... ... ... ... : ... .. . ... : ... .. . ... : ... .. . ...
ROW 9A : ... .. . ... ... ... ... : A-3 00 5 ... ... ... ... : ... .. . ... : E-# 00 3 ... : ... .. . ...
ROW 9B : ... .. . ... ... ... ... : ... .. . ... ... ... ... : ... .. . ... : ... .. . ... : ... .. . ...
ROW 9C : F#4 00 . ... ... ... ... : ... .. . ... ... ... ... : ... .. . ... : ... .. 2 ... : ... .. . ...
ROW 9D : ... .. . ... ... ... ... : A-4 00 . ... ... ... ... : ... .. . ... : ... .. . ... : ... .. . ...
ROW 9E : ... .. . ... ... ... ... : ... .. . ... ... ... ... : ... .. . ... : ... .. 1 ... : ... .. . ...
ROW 9F : F#3 00 . ... ... ... ... : ... .. . ... ... ... ... : ... .. . ... : ... .. . ... : ... .. . ...
ROW A0 : ... .. . ... ... ... ... : A-3 00 . ... ... ... ... : ... .. . ... : ... .. . ... : ... .. . ...
ROW A1 : A-3 00 . ... ... ... ... : ... .. . ... ... ... ... : ... .. . ... : ... .. . ... : ... .. . ...
ROW A2 : ... .. . ... ... ... ... : ... .. . ... ... ... ... : ... .. . ... : ... .. . ... : ... .. . ...
ROW A3 : ... .. . ... ... ... ... : A-4 00 4 ... ... ... ... : ... .. . ... : ... .. . ... : ... .. . ...
ROW A4 : A-4 00 . ... ... ... ... : ... .. . ... ... ... ... : ... .. . ... : ... .. . ... : ... .. . ...
ROW A5 : ... .. . ... ... ... ... : F#2 00 2 ... ... ... ... : ... .. . ... : ... .. . ... : ... .. . ...
ROW A6 : ... .. . ... ... ... ... : ... .. . ... ... ... ... : ... .. . ... : ... .. . ... : ... .. . ...
ROW A7 : A-3 00 . ... ... ... ... : ... .. . ... ... ... ... : ... .. . ... : ... .. . ... : ... .. . ...
ROW A8 : ... .. . ... ... ... ... : G-3 00 5 ... ... ... ... : G-2 00 . ... : 2-# 00 5 ... : ... .. . ...
ROW A9 : ... .. . ... ... ... ... : ... .. . ... ... ... ... : ... .. . ... : ... .. 4 ... : ... .. . ...
ROW AA : A-4 00 . ... ... ... ... : ... .. . ... ... ... ... : ... .. . ... : ... .. 3 ... : ... .. . ...
ROW AB : ... .. . ... ... ... ... : G-4 00 . ... ... ... ... : ... .. . ... : ... .. 2 ... : ... .. . ...
ROW AC : ... .. . ... ... ... ... : ... .. . ... ... ... ... : ... .. . ... : ... .. 1 ... : ... .. . ...
ROW AD : A-3 00 . ... ... ... ... : ... .. . ... ... ... ... : ... .. . ... : ... .. 0 ... : ... .. . ...
ROW AE : ... .. . ... ... ... ... : G-3 00 . ... ... ... ... : ... .. . ... : ... .. . ... : ... .. . ...
ROW AF : G-3 00 . ... ... ... ... : ... .. . ... ... ... ... : ... .. . ... : 2-# 00 1 ... : ... .. . ...
ROW B0 : ... .. . ... ... ... ... : ... .. . ... ... ... ... : ... .. . ... : ... .. 0 ... : ... .. . ...
ROW B1 : ... .. . ... ... ... ... : G-4 00 4 ... ... ... ... : ... .. . ... : ... .. . ... : ... .. . ...
ROW B2 : G-4 00 . ... ... ... ... : ... .. . ... ... ... ... : ... .. . ... : ... .. . ... : ... .. . ...
ROW B3 : ... .. . ... ... ... ... : ... .. . ... ... ... ... : ... .. . ... : ... .. . ... : ... .. . ...
ROW B4 : ... .. . ... ... ... ... : G-3 00 . ... ... ... ... : ... .. . ... : ... .. . ... : ... .. . ...
ROW B5 : G-3 00 . ... ... ... ... : ... .. . ... ... ... ... : --- .. . ... : ... .. . ... : ... .. . ...
ROW B6 : G#4 00 5 V01 ... ... P80 : ... .. . ... ... ... ... : ... .. . ... : E-# 00 3 ... : ... .. . ...
ROW B7 : A-4 00 . ... ... ... ... : G-4 00 . ... ... ... ... : ... .. . ... : ... .. . ... : ... .. . ...
ROW B8 : A#4 00 . ... ... ... ... : ... .. . ... ... ... ... : ... .. . ... : ... .. 2 ... : ... .. . ...
ROW B9 : B-4 00 4 ... ... ... ... : ... .. . ... ... ... ... : ... .. . ... : ... .. . ... : ... .. . ...
ROW BA : ... .. . ... ... ... ... : G-3 00 3 ... ... ... ... : ... .. . ... : ... .. 1 ... : ... .. . ...
ROW BB : ... .. . ... ... ... ... : ... .. . ... ... ... ... : ... .. . ... : ... .. . ... : ... .. . ...
ROW BC : ... .. 3 ... ... ... ... : ... .. . ... ... ... ... : ... .. . ... : ... .. . ... : ... .. . ...
ROW BD : ... .. . ... ... ... ... : G-4 00 . ... ... ... ... : ... .. . ... : ... .. . ... : ... .. . ...
ROW BE : ... .. . ... ... ... ... : ... .. . ... ... ... ... : ... .. . ... : ... .. . ... : ... .. . ...
ROW BF : ... .. 2 ... ... ... ... : ... .. . ... ... ... ... : ... .. . ... : ... .. . ... : ... .. . ...
ROW C0 : ... .. . ... ... ... ... : G-3 00 . ... ... ... ... : ... .. . ... : ... .. . ... : ... .. . ...
ROW C1 : ... .. . ... ... ... ... : A-2 00 2 ... ... ... ... : ... .. . ... : ... .. . ... : ... .. . ...
ROW C2 : ... .. 1 ... ... ... ... : ... .. . ... ... ... ... : ... .. . ... : ... .. . ... : ... .. . ...
ROW C3 : ... .. . ... ... ... ... : ... .. . ... ... ... ... : ... .. . ... : ... .. . ... : ... .. . ...
ROW C4 : F#4 00 5 ... ... ... ... : D-3 00 5 ... ... ... ... : ... .. . ... : 7-# 00 5 ... : ... .. . ...
ROW C5 : G-4 00 . ... ... ... ... : ... .. . ... ... ... ... : ... .. . ... : ... .. 4 ... : ... .. . ...
ROW C6 : G#4 00 . ... ... ... ... : ... .. . ... ... ... ... : ... .. . ... : ... .. 3 ... : ... .. . ...
ROW C7 : A-4 00 4 ... ... ... ... : D-4 00 . ... ... ... ... : ... .. . ... : ... .. . ... : ... .. . ...
ROW C8 : ... .. . ... ... ... ... : ... .. . ... ... ... ... : ... .. . ... : ... .. 2 ... : ... .. . ...
ROW C9 : ... .. . ... ... ... ... : ... .. . ... ... ... ... : ... .. . ... : ... .. . ... : ... .. . ...
ROW CA : ... .. 3 ... ... ... ... : D-3 00 . ... ... ... ... : ... .. . ... : ... .. 1 ... : ... .. . ...
ROW CB : ... .. . ... ... ... ... : ... .. . ... ... ... ... : ... .. . ... : ... .. . ... : ... .. . ...
ROW CC : ... .. . ... ... ... ... : ... .. . ... ... ... ... : ... .. . ... : ... .. 0 ... : ... .. . ...
ROW CD : ... .. 2 ... ... ... ... : D-4 00 4 ... ... ... ... : ... .. . ... : ... .. . ... : ... .. . ...
ROW CE : ... .. . ... ... ... ... : ... .. . ... ... ... ... : ... .. . ... : ... .. . ... : ... .. . ...
ROW CF : B-4 00 1 ... ... ... ... : ... .. . ... ... ... ... : ... .. . ... : ... .. . ... : ... .. . ...
ROW D0 : ... .. . ... ... ... ... : D-3 00 . ... ... ... ... : ... .. . ... : ... .. . ... : ... .. . ...
ROW D1 : ... .. . ... ... ... ... : ... .. . ... ... ... ... : ... .. . ... : ... .. . ... : ... .. . ...
ROW D2 : E-4 00 5 ... ... ... ... : ... .. . ... ... ... ... : ... .. . ... : 2-# 00 3 ... : ... .. . ...
ROW D3 : F-4 00 . ... ... ... ... : D-4 00 . ... ... ... ... : ... .. . ... : ... .. . ... : ... .. . ...
ROW D4 : F#4 00 . ... ... ... ... : ... .. . ... ... ... ... : ... .. . ... : ... .. 2 ... : ... .. . ...
ROW D5 : G-4 00 4 ... ... ... ... : ... .. . ... ... ... ... : ... .. . ... : ... .. . ... : ... .. . ...
ROW D6 : ... .. . ... ... ... ... : D-3 00 3 ... ... ... ... : ... .. . ... : ... .. 1 ... : ... .. . ...
ROW D7 : ... .. . ... ... ... ... : ... .. . ... ... ... ... : ... .. . ... : ... .. . ... : ... .. . ...
ROW D8 : ... .. 3 ... ... ... ... : ... .. . ... ... ... ... : ... .. . ... : ... .. . ... : ... .. . ...
ROW D9 : ... .. . ... ... ... ... : D-4 00 . ... ... ... ... : ... .. . ... : 2-# 00 3 ... : ... .. . ...
ROW DA : ... .. . ... ... ... ... : ... .. . ... ... ... ... : ... .. . ... : ... .. . ... : ... .. . ...
ROW DB : ... .. 2 ... ... ... ... : ... .. . ... ... ... ... : ... .. . ... : ... .. 2 ... : ... .. . ...
ROW DC : ... .. . ... ... ... ... : D-3 00 . ... ... ... ... : ... .. . ... : ... .. . ... : ... .. . ...
ROW DD : A-4 00 1 ... ... ... ... : ... .. . ... ... ... ... : ... .. . ... : ... .. 1 ... : ... .. . ...
ROW DE : ... .. . ... ... ... ... : ... .. . ... ... ... ... : ... .. . ... : ... .. . ... : ... .. . ...
ROW DF : ... .. . ... ... ... ... : D-4 00 2 ... ... ... ... : ... .. . ... : ... .. 0 ... : ... .. . ...

PATTERN 33
ROW 00 : C#4 00 5 V01 ... ... ... : ... .. . ... ... ... ... : C-3 00 . ... : 2-# 00 5 V00 : ... .. . ...
ROW 01 : D-4 00 . ... ... ... ... : ... .. . ... ... ... ... : ... .. . ... : ... .. 4 ... : ... .. . ...
ROW 02 : D#4 00 . ... ... ... ... : D-3 00 . ... ... ... ... : ... .. . ... : ... .. 3 ... : ... .. . ...
ROW 03 : E-4 00 4 ... ... ... ... : ... .. . ... ... ... ... : ... .. . ... : ... .. 2 ... : ... .. . ...
ROW 04 : ... .. . ... ... ... ... : ... .. . ... ... ... ... : ... .. . ... : ... .. 1 ... : ... .. . ...
ROW 05 : ... .. . ... ... ... ... : D-4 00 1 ... ... ... ... : ... .. . ... : ... .. 0 ... : ... .. . ...
ROW 06 : ... .. 3 ... ... ... ... : ... .. . ... ... ... ... : ... .. . ... : ... .. . ... : ... .. . ...
ROW 07 : ... .. . ... ... ... ... : C#4 00 1 V01 ... ... P81 : ... .. . ... : 2-# 00 1 ... : ... .. . ...
ROW 08 : ... .. . ... ... ... ... : D-4 00 . ... ... ... ... : ... .. . ... : ... .. 0 ... : ... .. . ...
ROW 09 : ... .. 2 ... ... ... ... : D#4 00 . ... ... ... ... : ... .. . ... : ... .. . ... : ... .. . ...
ROW 0A : ... .. . ... ... ... ... : E-4 00 . ... ... ... ... : ... .. . ... : ... .. . ... : ... .. . ...
ROW 0B : ... .. . ... ... ... ... : ... .. . ... ... ... ... : ... .. . ... : ... .. . ... : ... .. . ...
ROW 0C : ... .. . ... ... ... ... : ... .. . ... ... ... ... : --- .. . ... : ... .. . ... : ... .. . ...
ROW 0D : ... .. . ... ... ... ... : ... .. . ... ... ... ... : ... .. . ... : ... .. . ... : ... .. . ...
ROW 0E : D#4 00 1 ... ... ... ... : C-3 00 5 V02 ... ... P80 : E-4 00 . ... : E-# 00 3 ... : ... .. . ...
ROW 0F : D-4 00 . ... ... ... ... : ... .. . ... ... ... ... : ... .. . ... : ... .. . ... : ... .. . ...
ROW 10 : C#4 00 . ... ... ... ... : ... .. . ... ... ... ... : ... .. . ... : ... .. 2 ... : ... .. . ...
ROW 11 : C-4 00 . ... ... ... ... : ... .. . ... ... ... ... : ... .. . ... : ... .. . ... : ... .. . ...
ROW 12 : B-3 00 . ... ... ... ... : ... .. . ... ... ... ... : ... .. . ... : ... .. 1 ... : ... .. . ...
ROW 13 : A#3 00 . ... ... ... ... : ... .. . ... ... ... ... : ... .. . ... : ... .. . ... : ... .. . ...
ROW 14 : A-3 00 . ... ... ... ... : ... .. . ... ... ... ... : ... .. . ... : ... .. . ... : ... .. . ...
ROW 15 : G#3 00 . ... ... ... ... : ... .. . ... ... ... ... : ... .. . ... : ... .. . ... : ... .. . ...
ROW 16 : G-3 00 . ... ... ... ... : ... .. . ... ... ... ... : ... .. . ... : ... .. . ... : ... .. . ...
ROW 17 : F#3 00 . ... ... ... ... : ... .. . ... ... ... ... : ... .. . ... : ... .. . ... : ... .. . ...
ROW 18 : F-3 00 . ... ... ... ... : ... .. . ... ... ... ... : ... .. . ... : ... .. . ... : ... .. . ...
ROW 19 : E-3 00 . ... ... ... ... : ... .. 2 ... ... ... ... : ... .. . ... : ... .. . ... : ... .. . ...
ROW 1A : D#3 00 . ... ... ... ... : ... .. . ... ... ... ... : ... .. . ... : ... .. . ... : ... .. . ...
ROW 1B : D-3 00 . ... ... ... ... : ... .. . ... ... ... ... : ... .. . ... : ... .. . ... : ... .. . ...
ROW 1C : C#3 00 . ... ... ... ... : D-3 00 5 ... ... ... ... : F#4 00 . ... : 7-# 00 5 ... : ... .. . ...
ROW 1D : C-3 00 . ... ... ... ... : ... .. . ... ... ... ... : ... .. . ... : ... .. 4 ... : ... .. . ...
ROW 1E : B-2 00 . ... ... ... ... : ... .. . ... ... ... ... : ... .. . ... : ... .. 3 ... : ... .. . ...
ROW 1F : A#2 00 . ... ... ... ... : ... .. . ... ... ... ... : ... .. . ... : ... .. . ... : ... .. . ...
ROW 20 : A-2 00 . ... ... ... ... : ... .. . ... ... ... ... : ... .. . ... : ... .. 2 ... : ... .. . ...
ROW 21 : G#2 00 . ... ... ... ... : ... .. . ... ... ... ... : ... .. . ... : ... .. . ... : ... .. . ...
ROW 22 : G-2 00 . ... ... ... ... : ... .. . ... ... ... ... : ... .. . ... : ... .. 1 ... : ... .. . ...
ROW 23 : D-3 00 1 ... ... ... P81 : ... .. . ... ... ... ... : ... .. . ... : ... .. . ... : ... .. . ...
ROW 24 : ... .. . ... ... ... ... : ... .. . ... ... ... ... : ... .. . ... : ... .. 0 ... : ... .. . ...
ROW 25 : ... .. . ... ... ... ... : ... .. . ... ... ... ... : ... .. . ... : ... .. . ... : ... .. . ...
ROW 26 : ... .. . ... ... ... ... : ... .. . ... ... ... ... : ... .. . ... : ... .. . ... : ... .. . ...
ROW 27 : ... .. . ... ... ... ... : ... .. . ... ... ... ... : ... .. . ... : ... .. . ... : ... .. . ...
ROW 28 : ... .. . ... ... ... ... : ... .. . ... ... ... ... : ... .. . ... : ... .. . ... : ... .. . ...
ROW 29 : ... .. . ... ... ... ... : ... .. . ... ... ... ... : ... .. . ... : ... .. . ... : ... .. . ...
ROW 2A : D-3 00 6 V00 ... ... P81 : ... .. 2 ... ... ... ... : G-2 00 . ... : E-# 00 3 ... : ... .. . ...
ROW 2B : ... .. . ... ... ... ... : ... .. . ... ... ... ... : ... .. . ... : ... .. . ... : ... .. . ...
ROW 2C : ... .. 5 ... ... ... P80 : ... .. . ... ... ... ... : ... .. . ... : ... .. 2 ... : ... .. . ...
ROW 2D : ... .. . ... ... ... P7F : ... .. . ... ... ... ... : ... .. . ... : ... .. . ... : ... .. . ...
ROW 2E : ... .. 4 ... ... ... ... : ... .. . ... ... ... ... : ... .. . ... : ... .. 1 ... : ... .. . ...
ROW 2F : ... .. . ... ... ... P80 : ... .. . ... ... ... ... : ... .. . ... : ... .. . ... : ... .. . ...
ROW 30 : ... .. . ... ... ... ... : ... .. . ... ... ... ... : ... .. . ... : ... .. . ... : ... .. . ...
ROW 31 : ... .. . ... ... ... P81 : D-3 00 . V00 ... ... P7E : ... .. . ... : ... .. . ... : ... .. . ...
ROW 32 : ... .. . ... ... ... P80 : ... .. . ... ... ... ... : ... .. . ... : ... .. . ... : ... .. . ...
ROW 33 : ... .. . ... ... ... ... : ... .. . ... ... ... ... : ... .. . ... : ... .. . ... : ... .. . ...
ROW 34 : ... .. . ... ... ... P7F : ... .. . ... ... ... ... : ... .. . ... : ... .. . ... : ... .. . ...
ROW 35 : ... .. . ... ... ... P80 : ... .. . ... ... ... ... : ... .. . ... : ... .. . ... : ... .. . ...
ROW 36 : ... .. 2 ... ... ... ... : ... .. . ... ... ... ... : --- .. . ... : ... .. . ... : ... .. . ...
ROW 37 : ... .. . ... ... ... P81 : ... .. . ... ... ... ... : ... .. . ... : ... .. . ... : ... .. . ...
ROW 38 : E-3 00 6 ... ... ... P81 : ... .. . ... ... ... ... : C-3 00 . ... : 2-# 00 5 ... : ... .. . ...
ROW 39 : ... .. . ... ... ... ... : ... .. . ... ... ... ... : ... .. . ... : ... .. 4 ... : ... .. . ...
ROW 3A : ... .. 5 ... ... ... P80 : ... .. . ... ... ... ... : ... .. . ... : ... .. 3 ... : ... .. . ...
ROW 3B : ... .. . ... ... ... P7F : ... .. . ... ... ... ... : ... .. . ... : ... .. 2 ... : ... .. . ...
ROW 3C : ... .. 4 ... ... ... ... : ... .. . ... ... ... ... : ... .. . ... : ... .. 1 ... : ... .. . ...
ROW 3D : ... .. . ... ... ... P80 : ... .. . ... ... ... ... : ... .. . ... : ... .. 0 ... : ... .. . ...
ROW 3E : ... .. . ... ... ... ... : ... .. . ... ... ... ... : ... .. . ... : ... .. . ... : ... .. . ...
ROW 3F : ... .. . ... ... ... P81 : E-3 00 2 ... ... ... ... : ... .. . ... : 2-# 00 1 ... : ... .. . ...
ROW 40 : ... .. . ... ... ... P80 : ... .. . ... ... ... ... : ... .. . ... : ... .. 0 ... : ... .. . ...
ROW 41 : ... .. . ... ... ... ... : ... .. . ... ... ... ... : ... .. . ... : ... .. . ... : ... .. . ...
ROW 42 : ... .. . ... ... ... P7F : ... .. . ... ... ... ... : ... .. . ... : ... .. . ... : ... .. . ...
ROW 43 : ... .. . ... ... ... P80 : ... .. . ... ... ... ... : ... .. . ... : ... .. . ... : ... .. . ...
ROW 44 : ... .. . ... ... ... ... : ... .. . ... ... ... ... : --- .. . ... : ... .. . ... : ... .. . ...
ROW 45 : ... .. . ... ... ... P81 : ... .. . ... ... ... ... : ... .. . ... : ... .. . ... : ... .. . ...
ROW 46 : ... .. 2 ... ... ... ... : C-3 00 5 V02 ... ... P80 : E-4 00 . ... : E-# 00 3 ... : ... .. . ...
ROW 47 : ... .. . ... ... ... P80 : ... .. . ... ... ... ... : ... .. . ... : ... .. . ... : ... .. . ...
ROW 48 : ... .. . ... ... ... ... : ... .. . ... ... ... ... : ... .. . ... : ... .. 2 ... : ... .. . ...
ROW 49 : ... .. . ... ... ... P81 : ... .. . ... ... ... ... : ... .. . ... : ... .. . ... : ... .. . ...
ROW 4A : ... .. . ... ... ... ... : ... .. . ... ... ... ... : ... .. . ... : ... .. 1 ... : ... .. . ...
ROW 4B : ... .. . ... ... ... P81 : ... .. . ... ... ... ... : ... .. . ... : ... .. . ... : ... .. . ...
ROW 4C : ... .. . ... ... ... ... : ... .. . ... ... ... ... : ... .. . ... : ... .. . ... : ... .. . ...
ROW 4D : E-3 00 2 V02 ... ... P81 : ... .. . ... ... ... ... : ... .. . ... : ... .. . ... : ... .. . ...
ROW 4E : ... .. . ... ... ... ... : ... .. . ... ... ... ... : ... .. . ... : ... .. . ... : ... .. . ...
ROW 4F : ... .. . ... ... ... ... : ... .. . ... ... ... ... : ... .. . ... : ... .. . ... : ... .. . ...
ROW 50 : ... .. . ... ... ... ... : ... .. . ... ... ... ... : ... .. . ... : ... .. . ... : ... .. . ...
ROW 51 : ... .. . ... ... ... ... : ... .. 2 ... ... ... ... : ... .. . ... : ... .. . ... : ... .. . ...
ROW 52 : ... .. . ... ... ... ... : ... .. . ... ... ... ... : ... .. . ... : ... .. . ... : ... .. . ...
ROW 53 : ... .. . ... ... ... ... : ... .. . ... ... ... ... : ... .. . ... : ... .. . ... : ... .. . ...
ROW 54 : ... .. . ... ... ... ... : D-3 00 5 ... ... ... ... : F#4 00 . ... : 7-# 00 5 ... : ... .. . ...
ROW 55 : ... .. . ... ... ... ... : ... .. . ... ... ... ... : ... .. . ... : ... .. 4 ... : ... .. . ...
ROW 56 : ... .. . ... ... ... ... : ... .. . ... ... ... ... : ... .. . ... : ... .. 3 ... : ... .. . ...
ROW 57 : ... .. . ... ... ... ... : ... .. . ... ... ... ... : ... .. . ... : ... .. . ... : ... .. . ...
ROW 58 : ... .. . ... ... ... ... : ... .. . ... ... ... ... : ... .. . ... : ... .. 2 ... : ... .. . ...
ROW 59 : ... .. 1 ... ... ... ... : ... .. . ... ... ... ... : ... .. . ... : ... .. . ... : ... .. . ...
ROW 5A : ... .. . ... ... ... ... : ... .. . ... ... ... ... : ... .. . ... : ... .. 1 ... : ... .. . ...
ROW 5B : F#3 00 2 ... ... ... ... : ... .. . ... ... ... ... : ... .. . ... : ... .. . ... : ... .. . ...
ROW 5C : ... .. . ... ... ... ... : ... .. . ... ... ... ... : ... .. . ... : ... .. 0 ... : ... .. . ...
ROW 5D : ... .. . ... ... ... ... : ... .. . ... ... ... ... : ... .. . ... : ... .. . ... : ... .. . ...
ROW 5E : ... .. . ... ... ... ... : ... .. . ... ... ... ... : ... .. . ... : ... .. . ... : ... .. . ...
ROW 5F : ... .. . ... ... ... ... : ... .. . ... ... ... ... : ... .. . ... : ... .. . ... : ... .. . ...
ROW 60 : ... .. . ... ... ... ... : ... .. . ... ... ... ... : ... .. . ... : ... .. . ... : ... .. . ...
ROW 61 : ... .. . ... ... ... ... : ... .. . ... ... ... ... : ... .. . ... : ... .. . ... : ... .. . ...
ROW 62 : G-3 00 4 V01 ... ... P80 : E-3 00 3 ... ... ... ... : G-2 00 . ... : E-# 00 3 ... : ... .. . ...
ROW 63 : ... .. . ... ... ... ... : ... .. . ... ... ... ... : ... .. . ... : ... .. . ... : ... .. . ...
ROW 64 : ... .. . ... ... ... ... : ... .. . ... ... ... ... : ... .. . ... : ... .. 2 ... : ... .. . ...
ROW 65 : G-4 00 . ... ... ... ... : E-4 00 . ... ... ... ... : ... .. . ... : ... .. . ... : ... .. . ...
ROW 66 : ... .. . ... ... ... ... : ... .. . ... ... ... ... : ... .. . ... : ... .. 1 ... : ... .. . ...
ROW 67 : ... .. . ... ... ... ... : ... .. . ... ... ... ... : ... .. . ... : ... .. . ... : ... .. . ...
ROW 68 : G-3 00 . ... ... ... ... : E-3 00 . ... ... ... ... : ... .. . ... : ... .. . ... : ... .. . ...
ROW 69 : ... .. . ... ... ... ... : ... .. . ... ... ... ... : ... .. . ... : ... .. . ... : ... .. . ...
ROW 6A : ... .. . ... ... ... ... : ... .. . ... ... ... ... : ... .. . ... : ... .. . ... : ... .. . ...
ROW 6B : G-4 00 . ... ... ... ... : E-4 00 . ... ... ... ... : ... .. . ... : ... .. . ... : ... .. . ...
ROW 6C : ... .. . ... ... ... ... : ... .. . ... ... ... ... : ... .. . ... : ... .. . ... : ... .. . ...
ROW 6D : ... .. . ... ... ... ... : ... .. . ... ... ... ... : ... .. . ... : ... .. . ... : ... .. . ...
ROW 6E : G-3 00 2 ... ... ... ... : E-3 00 1 ... ... ... ... : --- .. . ... : ... .. . ... : ... .. . ...
ROW 6F : ... .. . ... ... ... ... : ... .. . ... ... ... ... : ... .. . ... : ... .. . ... : ... .. . ...
ROW 70 : C-4 00 4 ... ... ... ... : G-3 00 3 ... ... ... ... : C-3 00 . ... : 2-# 00 5 V00 : ... .. . ...
ROW 71 : ... .. . ... ... ... ... : ... .. . ... ... ... ... : ... .. . ... : ... .. 4 ... : ... .. . ...
ROW 72 : ... .. . ... ... ... ... : ... .. . ... ... ... ... : ... .. . ... : ... .. 3 ... : ... .. . ...
ROW 73 : C-5 00 . ... ... ... ... : G-4 00 . ... ... ... ... : ... .. . ... : ... .. 2 ... : ... .. . ...
ROW 74 : ... .. . ... ... ... ... : ... .. . ... ... ... ... : ... .. . ... : ... .. 1 ... : ... .. . ...
ROW 75 : ... .. . ... ... ... ... : ... .. . ... ... ... ... : ... .. . ... : ... .. 0 ... : ... .. . ...
ROW 76 : C-4 00 . ... ... ... ... : G-3 00 . ... ... ... ... : ... .. . ... : ... .. . ... : ... .. . ...
ROW 77 : ... .. . ... ... ... ... : ... .. . ... ... ... ... : ... .. . ... : 2-# 00 1 ... : ... .. . ...
ROW 78 : ... .. . ... ... ... ... : ... .. . ... ... ... ... : ... .. . ... : ... .. 0 ... : ... .. . ...
ROW 79 : C-5 00 . ... ... ... ... : G-4 00 . ... ... ... ... : ... .. . ... : ... .. . ... : ... .. . ...
ROW 7A : ... .. . ... ... ... ... : ... .. . ... ... ... ... : ... .. . ... : ... .. . ... : ... .. . ...
ROW 7B : ... .. . ... ... ... ... : ... .. . ... ... ... ... : ... .. . ... : ... .. . ... : ... .. . ...
ROW 7C : C-4 00 . ... ... ... ... : G-3 00 . ... ... ... ... : --- .. . ... : ... .. . ... : ... .. . ...
ROW 7D : ... .. . ... ... ... ... : ... .. . ... ... ... ... : ... .. . ... : ... .. . ... : ... .. . ...
ROW 7E : ... .. 2 ... ... ... ... : E-2 00 5 V02 ... ... P81 : ... .. . ... : E-# 00 3 ... : ... .. . ...
ROW 7F : C-5 00 . ... ... ... ... : ... .. . ... ... ... ... : ... .. . ... : ... .. . ... : ... .. . ...
ROW 80 : ... .. . ... ... ... ... : ... .. . ... ... ... P80 : ... .. . ... : ... .. 2 ... : ... .. . ...
ROW 81 : ... .. . ... ... ... ... : ... .. . ... ... ... P7F : ... .. . ... : ... .. . ... : ... .. . ...
ROW 82 : C-4 00 . ... ... ... ... : ... .. . ... ... ... ... : ... .. . ... : ... .. 1 ... : ... .. . ...
ROW 83 : ... .. . ... ... ... ... : ... .. . ... ... ... P80 : ... .. . ... : ... .. . ... : ... .. . ...
ROW 84 : ... .. . ... ... ... ... : ... .. . ... ... ... ... : ... .. . ... : ... .. . ... : ... .. . ...
ROW 85 : E-2 00 3 V02 ... ... P7D : ... .. . ... ... ... P81 : ... .. . ... : ... .. . ... : ... .. . ...
ROW 86 : ... .. . ... ... ... ... : ... .. . ... ... ... P80 : ... .. . ... : ... .. . ... : ... .. . ...
ROW 87 : ... .. . ... ... ... ... : ... .. . ... ... ... ... : ... .. . ... : ... .. . ... : ... .. . ...
ROW 88 : ... .. 2 ... ... ... ... : ... .. . ... ... ... P7F : ... .. . ... : ... .. . ... : ... .. . ...
ROW 89 : ... .. . ... ... ... ... : ... .. 2 ... ... ... P80 : ... .. . ... : ... .. . ... : ... .. . ...
ROW 8A : ... .. . ... ... ... ... : ... .. . ... ... ... ... : ... .. . ... : ... .. . ... : ... .. . ...
ROW 8B : ... .. . ... ... ... ... : ... .. . ... ... ... P81 : ... .. . ... : ... .. . ... : ... .. . ...
ROW 8C : ... .. . ... ... ... ... : F#2 00 5 ... ... ... P81 : D-3 00 . ... : 7-# 00 5 ... : ... .. . ...
ROW 8D : ... .. . ... ... ... ... : ... .. . ... ... ... ... : ... .. . ... : ... .. 4 ... : ... .. . ...
ROW 8E : ... .. . ... ... ... ... : ... .. . ... ... ... P80 : ... .. . ... : ... .. 3 ... : ... .. . ...
ROW 8F : ... .. . ... ... ... ... : ... .. . ... ... ... P7F : ... .. . ... : ... .. . ... : ... .. . ...
ROW 90 : ... .. 1 ... ... ... ... : ... .. . ... ... ... ... : ... .. . ... : ... .. 2 ... : ... .. . ...
ROW 91 : ... .. . ... ... ... ... : ... .. . ... ... ... P80 : ... .. . ... : ... .. . ... : ... .. . ...
ROW 92 : ... .. . ... ... ... ... : ... .. . ... ... ... ... : ... .. . ... : ... .. 1 ... : ... .. . ...
ROW 93 : F#2 00 3 ... ... ... ... : ... .. . ... ... ... P81 : ... .. . ... : ... .. . ... : ... .. . ...
ROW 94 : ... .. . ... ... ... ... : ... .. . ... ... ... P80 : ... .. . ... : ... .. 0 ... : ... .. . ...
ROW 95 : ... .. . ... ... ... ... : ... .. . ... ... ... ... : ... .. . ... : ... .. . ... : ... .. . ...
ROW 96 : ... .. . ... ... ... ... : ... .. . ... ... ... P7F : ... .. . ... : ... .. . ... : ... .. . ...
ROW 97 : ... .. 2 ... ... ... ... : E-2 00 2 ... ... ... P81 : ... .. . ... : ... .. . ... : ... .. . ...
ROW 98 : ... .. . ... ... ... ... : ... .. . ... ... ... ... : --- .. . ... : ... .. . ... : ... .. . ...
ROW 99 : ... .. . ... ... ... ... : ... .. . ... ... ... P80 : ... .. . ... : ... .. . ... : ... .. . ...
ROW 9A : ... .. . ... ... ... ... : A-2 00 5 ... ... ... P81 : ... .. . ... : E-# 00 3 ... : ... .. . ...
ROW 9B : ... .. . ... ... ... ... : ... .. . ... ... ... ... : ... .. . ... : ... .. . ... : ... .. . ...
ROW 9C : ... .. . ... ... ... ... : ... .. . ... ... ... P80 : ... .. . ... : ... .. 2 ... : ... .. . ...
ROW 9D : ... .. . ... ... ... ... : ... .. . ... ... ... P7F : ... .. . ... : ... .. . ... : ... .. . ...
ROW 9E : ... .. . ... ... ... ... : ... .. . ... ... ... ... : ... .. . ... : ... .. 1 ... : ... .. . ...
ROW 9F : ... .. 1 ... ... ... ... : ... .. . ... ... ... P80 : ... .. . ... : ... .. . ... : ... .. . ...
ROW A0 : ... .. . ... ... ... ... : ... .. . ... ... ... ... : ... .. . ... : ... .. . ... : ... .. . ...
ROW A1 : A-2 00 3 ... ... ... ... : ... .. . ... ... ... P81 : ... .. . ... : ... .. . ... : ... .. . ...
ROW A2 : ... .. . ... ... ... ... : ... .. . ... ... ... P80 : ... .. . ... : ... .. . ... : ... .. . ...
ROW A3 : ... .. . ... ... ... ... : ... .. . ... ... ... ... : ... .. . ... : ... .. . ... : ... .. . ...
ROW A4 : ... .. . ... ... ... ... : ... .. . ... ... ... P7F : ... .. . ... : ... .. . ... : ... .. . ...
ROW A5 : ... .. 2 ... ... ... ... : F#2 00 2 ... ... ... P81 : ... .. . ... : ... .. . ... : ... .. . ...
ROW A6 : ... .. . ... ... ... ... : ... .. . ... ... ... ... : ... .. . ... : ... .. . ... : ... .. . ...
ROW A7 : ... .. . ... ... ... ... : ... .. . ... ... ... P80 : ... .. . ... : ... .. . ... : ... .. . ...
ROW A8 : ... .. . ... ... ... ... : D-2 00 5 ... ... ... P81 : G-2 00 . ... : 2-# 00 5 ... : ... .. . ...
ROW A9 : ... .. . ... ... ... ... : ... .. . ... ... ... ... : ... .. . ... : ... .. 4 ... : ... .. . ...
ROW AA : ... .. . ... ... ... ... : ... .. . ... ... ... P80 : ... .. . ... : ... .. 3 ... : ... .. . ...
ROW AB : ... .. . ... ... ... ... : ... .. . ... ... ... P7F : ... .. . ... : ... .. 2 ... : ... .. . ...
ROW AC : ... .. . ... ... ... ... : ... .. . ... ... ... ... : ... .. . ... : ... .. 1 ... : ... .. . ...
ROW AD : ... .. 1 ... ... ... ... : ... .. . ... ... ... P80 : ... .. . ... : ... .. 0 ... : ... .. . ...
ROW AE : ... .. . ... ... ... ... : ... .. . ... ... ... ... : ... .. . ... : ... .. . ... : ... .. . ...
ROW AF : D-2 00 3 ... ... ... ... : ... .. . ... ... ... P81 : ... .. . ... : 2-# 00 1 ... : ... .. . ...
ROW B0 : ... .. . ... ... ... ... : ... .. . ... ... ... P80 : ... .. . ... : ... .. 0 ... : ... .. . ...
ROW B1 : ... .. . ... ... ... ... : ... .. . ... ... ... ... : ... .. . ... : ... .. . ... : ... .. . ...
ROW B2 : ... .. . ... ... ... ... : ... .. . ... ... ... P7F : ... .. . ... : ... .. . ... : ... .. . ...
ROW B3 : ... .. 2 ... ... ... ... : ... .. . ... ... ... P80 : ... .. . ... : ... .. . ... : ... .. . ...
ROW B4 : ... .. . ... ... ... ... : ... .. . ... ... ... ... : ... .. . ... : ... .. . ... : ... .. . ...
ROW B5 : ... .. . ... ... ... ... : ... .. . ... ... ... P81 : --- .. . ... : ... .. . ... : ... .. . ...
ROW B6 : A#2 00 5 V00 ... ... P80 : --- .. . ... ... ... ... : ... .. . ... : E-# 00 3 ... : ... .. . ...
ROW B7 : ... .. . ... ... ... ... : A#2 00 4 V00 ... ... P82 : ... .. . ... : ... .. . ... : ... .. . ...
ROW B8 : ... .. . ... ... ... ... : ... .. . ... ... ... ... : ... .. . ... : ... .. 2 ... : ... .. . ...
ROW B9 : ... .. . ... ... ... ... : ... .. . ... ... ... ... : ... .. . ... : ... .. . ... : ... .. . ...
ROW BA : ... .. . ... ... ... ... : ... .. . ... ... ... ... : ... .. . ... : ... .. 1 ... : ... .. . ...
ROW BB : ... .. . ... ... ... ... : ... .. . ... ... ... ... : ... .. . ... : ... .. . ... : ... .. . ...
ROW BC : ... .. . ... ... ... ... : ... .. . ... ... ... ... : ... .. . ... : ... .. . ... : ... .. . ...
ROW BD : ... .. . ... ... ... ... : ... .. . ... ... ... ... : ... .. . ... : ... .. . ... : ... .. . ...
ROW BE : ... .. . ... ... ... ... : ... .. . ... ... ... ... : ... .. . ... : ... .. . ... : ... .. . ...
ROW BF : ... .. . ... ... ... ... : ... .. . ... ... ... ... : ... .. . ... : ... .. . ... : ... .. . ...
ROW C0 : ... .. . ... ... ... ... : ... .. . ... ... ... ... : ... .. . ... : ... .. . ... : ... .. . ...
ROW C1 : ... .. 2 ... ... ... ... : ... .. . ... ... ... ... : ... .. . ... : ... .. . ... : ... .. . ...
ROW C2 : ... .. . ... ... ... ... : ... .. 1 ... ... ... ... : ... .. . ... : ... .. . ... : ... .. . ...
ROW C3 : ... .. . ... ... ... ... : ... .. . ... ... ... ... : ... .. . ... : ... .. . ... : ... .. . ...
ROW C4 : A-2 00 5 ... ... ... ... : ... .. . ... ... ... ... : ... .. . ... : 7-# 00 5 ... : ... .. . ...
ROW C5 : ... .. . ... ... ... ... : A-2 00 4 ... ... ... ... : ... .. . ... : ... .. 4 ... : ... .. . ...
ROW C6 : ... .. . ... ... ... ... : ... .. . ... ... ... ... : ... .. . ... : ... .. 3 ... : ... .. . ...
ROW C7 : ... .. . ... ... ... ... : ... .. . ... ... ... ... : ... .. . ... : ... .. . ... : ... .. . ...
ROW C8 : ... .. . ... ... ... ... : ... .. . ... ... ... ... : ... .. . ... : ... .. 2 ... : ... .. . ...
ROW C9 : ... .. . ... ... ... ... : ... .. . ... ... ... ... : ... .. . ... : ... .. . ... : ... .. . ...
ROW CA : ... .. . ... ... ... ... : ... .. . ... ... ... ... : ... .. . ... : ... .. 1 ... : ... .. . ...
ROW CB : ... .. . ... ... ... ... : ... .. . ... ... ... ... : ... .. . ... : ... .. . ... : ... .. . ...
ROW CC : ... .. . ... ... ... ... : ... .. . ... ... ... ... : ... .. . ... : ... .. 0 ... : ... .. . ...
ROW CD : ... .. . ... ... ... ... : ... .. . ... ... ... ... : ... .. . ... : ... .. . ... : ... .. . ...
ROW CE : ... .. . ... ... ... ... : ... .. . ... ... ... ... : ... .. . ... : ... .. . ... : ... .. . ...
ROW CF : ... .. 2 ... ... ... ... : ... .. . ... ... ... ... : ... .. . ... : ... .. . ... : ... .. . ...
ROW D0 : ... .. . ... ... ... ... : ... .. 1 ... ... ... ... : ... .. . ... : ... .. . ... : ... .. . ...
ROW D1 : ... .. . ... ... ... ... : ... .. . ... ... ... ... : ... .. . ... : ... .. . ... : ... .. . ...
ROW D2 : G-2 00 5 ... ... ... ... : ... .. . ... ... ... ... : ... .. . ... : 2-# 00 3 ... : ... .. . ...
ROW D3 : ... .. . ... ... ... ... : G-2 00 4 ... ... ... ... : ... .. . ... : ... .. . ... : ... .. . ...
ROW D4 : ... .. . ... ... ... ... : ... .. . ... ... ... ... : ... .. . ... : ... .. 2 ... : ... .. . ...
ROW D5 : ... .. . ... ... ... ... : ... .. . ... ... ... ... : ... .. . ... : ... .. . ... : ... .. . ...
ROW D6 : ... .. . ... ... ... ... : ... .. . ... ... ... ... : ... .. . ... : ... .. 1 ... : ... .. . ...
ROW D7 : ... .. . ... ... ... ... : ... .. . ... ... ... ... : ... .. . ... : ... .. . ... : ... .. . ...
ROW D8 : ... .. . ... ... ... ... : ... .. . ... ... ... ... : ... .. . ... : ... .. . ... : ... .. . ...
ROW D9 : ... .. . ... ... ... ... : ... .. . ... ... ... ... : ... .. . ... : 2-# 00 3 ... : ... .. . ...
ROW DA : ... .. . ... ... ... ... : ... .. . ... ... ... ... : ... .. . ... : ... .. . ... : ... .. . ...
ROW DB : ... .. . ... ... ... ... : ... .. . ... ... ... ... : ... .. . ... : ... .. 2 ... : ... .. . ...
ROW DC : ... .. . ... ... ... ... : ... .. . ... ... ... ... : ... .. . ... : ... .. . ... : ... .. . ...
ROW DD : ... .. 2 ... ... ... ... : ... .. . ... ... ... ... : ... .. . ... : ... .. 1 ... : ... .. . ...
ROW DE : ... .. . ... ... ... ... : ... .. 1 ... ... ... ... : ... .. . ... : ... .. . ... : ... .. . ...
ROW DF : ... .. . ... ... ... ... : ... .. . ... ... ... ... : ... .. . ... : ... .. 0 ... : ... .. . ...

PATTERN 34
ROW 00 : D#3 00 5 V00 ... ... ... : ... .. . ... ... ... ... : D#2 00 . ... : 2-# 00 5 V00 : ... .. . ...
ROW 01 : ... .. . ... ... ... ... : D#3 00 4 ... ... ... ... : ... .. . ... : ... .. 4 ... : ... .. . ...
ROW 02 : ... .. . ... ... ... ... : ... .. . ... ... ... ... : ... .. . ... : ... .. 3 ... : ... .. . ...
ROW 03 : ... .. . ... ... ... ... : ... .. . ... ... ... ... : ... .. . ... : ... .. 2 ... : ... .. . ...
ROW 04 : ... .. . ... ... ... ... : ... .. . ... ... ... ... : ... .. . ... : ... .. 1 ... : ... .. . ...
ROW 05 : ... .. . ... ... ... ... : ... .. . ... ... ... ... : ... .. . ... : ... .. 0 ... : ... .. . ...
ROW 06 : ... .. . ... ... ... ... : ... .. . ... ... ... ... : ... .. . ... : ... .. . ... : ... .. . ...
ROW 07 : ... .. . ... ... ... ... : ... .. . ... ... ... ... : ... .. . ... : 2-# 00 1 ... : ... .. . ...
ROW 08 : ... .. . ... ... ... ... : ... .. . ... ... ... ... : ... .. . ... : ... .. 0 ... : ... .. . ...
ROW 09 : ... .. . ... ... ... ... : ... .. . ... ... ... ... : ... .. . ... : ... .. . ... : ... .. . ...
ROW 0A : ... .. . ... ... ... ... : ... .. . ... ... ... ... : ... .. . ... : ... .. . ... : ... .. . ...
ROW 0B : ... .. . ... ... ... ... : ... .. . ... ... ... ... : ... .. . ... : ... .. . ... : ... .. . ...
ROW 0C : ... .. . ... ... ... ... : ... .. . ... ... ... ... : --- .. . ... : ... .. . ... : ... .. . ...
ROW 0D : ... .. . ... ... ... ... : ... .. . ... ... ... ... : ... .. . ... : ... .. . ... : ... .. . ...
ROW 0E : ... .. 2 ... ... ... ... : D#3 00 5 V02 ... ... ... : G-4 00 . ... : E-# 00 3 ... : ... .. . ...
ROW 0F : ... .. . ... ... ... ... : ... .. . ... ... ... ... : ... .. . ... : ... .. . ... : ... .. . ...
ROW 10 : ... .. . ... ... ... ... : ... .. . ... ... ... ... : ... .. . ... : ... .. 2 ... : ... .. . ...
ROW 11 : ... .. . ... ... ... ... : ... .. . ... ... ... ... : ... .. . ... : ... .. . ... : ... .. . ...
ROW 12 : ... .. . ... ... ... ... : ... .. . ... ... ... ... : ... .. . ... : ... .. 1 ... : ... .. . ...
ROW 13 : ... .. . ... ... ... ... : ... .. . ... ... ... ... : ... .. . ... : ... .. . ... : ... .. . ...
ROW 14 : ... .. . ... ... ... ... : ... .. . ... ... ... ... : ... .. . ... : ... .. . ... : ... .. . ...
ROW 15 : G-3 00 . V02 ... ... P81 : ... .. . ... ... ... ... : ... .. . ... : ... .. . ... : ... .. . ...
ROW 16 : ... .. . ... ... ... ... : ... .. . ... ... ... ... : ... .. . ... : ... .. . ... : ... .. . ...
ROW 17 : ... .. . ... ... ... ... : ... .. . ... ... ... ... : ... .. . ... : ... .. . ... : ... .. . ...
ROW 18 : ... .. . ... ... ... ... : ... .. . ... ... ... ... : ... .. . ... : ... .. . ... : ... .. . ...
ROW 19 : ... .. . ... ... ... ... : ... .. 2 ... ... ... ... : ... .. . ... : ... .. . ... : ... .. . ...
ROW 1A : ... .. . ... ... ... ... : ... .. . ... ... ... ... : ... .. . ... : ... .. . ... : ... .. . ...
ROW 1B : ... .. . ... ... ... ... : ... .. . ... ... ... ... : ... .. . ... : ... .. . ... : ... .. . ...
ROW 1C : ... .. . ... ... ... ... : F-3 00 5 ... ... ... ... : A-4 00 . ... : 7-# 00 5 ... : ... .. . ...
ROW 1D : ... .. . ... ... ... ... : ... .. . ... ... ... ... : ... .. . ... : ... .. 4 ... : ... .. . ...
ROW 1E : ... .. . ... ... ... ... : ... .. . ... ... ... ... : ... .. . ... : ... .. 3 ... : ... .. . ...
ROW 1F : ... .. . ... ... ... ... : ... .. . ... ... ... ... : ... .. . ... : ... .. . ... : ... .. . ...
ROW 20 : ... .. . ... ... ... ... : ... .. . ... ... ... ... : ... .. . ... : ... .. 2 ... : ... .. . ...
ROW 21 : ... .. 1 ... ... ... ... : ... .. . ... ... ... ... : ... .. . ... : ... .. . ... : ... .. . ...
ROW 22 : ... .. . ... ... ... ... : ... .. . ... ... ... ... : ... .. . ... : ... .. 1 ... : ... .. . ...
ROW 23 : A-3 00 2 ... ... ... ... : ... .. . ... ... ... ... : ... .. . ... : ... .. . ... : ... .. . ...
ROW 24 : ... .. . ... ... ... ... : ... .. . ... ... ... ... : ... .. . ... : ... .. 0 ... : ... .. . ...
ROW 25 : ... .. . ... ... ... ... : ... .. . ... ... ... ... : ... .. . ... : ... .. . ... : ... .. . ...
ROW 26 : ... .. . ... ... ... ... : ... .. . ... ... ... ... : ... .. . ... : ... .. . ... : ... .. . ...
ROW 27 : ... .. . ... ... ... ... : ... .. . ... ... ... ... : ... .. . ... : ... .. . ... : ... .. . ...
ROW 28 : ... .. . ... ... ... ... : ... .. . ... ... ... ... : ... .. . ... : ... .. . ... : ... .. . ...
ROW 29 : ... .. . ... ... ... ... : ... .. . ... ... ... ... : ... .. . ... : ... .. . ... : ... .. . ...
ROW 2A : A-2 00 5 V01 ... ... P80 : ... .. 2 ... ... ... ... : A#2 00 . ... : E-# 00 3 ... : ... .. . ...
ROW 2B : ... .. . ... ... ... ... : ... .. . ... ... ... ... : ... .. . ... : ... .. . ... : ... .. . ...
ROW 2C : ... .. . ... ... ... ... : ... .. . ... ... ... ... : ... .. . ... : ... .. 2 ... : ... .. . ...
ROW 2D : ... .. . ... ... ... ... : ... .. . ... ... ... ... : ... .. . ... : ... .. . ... : ... .. . ...
ROW 2E : ... .. . ... ... ... ... : ... .. . ... ... ... ... : ... .. . ... : ... .. 1 ... : ... .. . ...
ROW 2F : ... .. . ... ... ... ... : ... .. . ... ... ... ... : ... .. . ... : ... .. . ... : ... .. . ...
ROW 30 : ... .. . ... ... ... ... : ... .. . ... ... ... ... : ... .. . ... : ... .. . ... : ... .. . ...
ROW 31 : ... .. . ... ... ... ... : A-2 00 . V01 ... ... P86 : ... .. . ... : ... .. . ... : ... .. . ...
ROW 32 : ... .. . ... ... ... ... : ... .. . ... ... ... ... : ... .. . ... : ... .. . ... : ... .. . ...
ROW 33 : ... .. . ... ... ... ... : ... .. . ... ... ... ... : ... .. . ... : ... .. . ... : ... .. . ...
ROW 34 : ... .. . ... ... ... ... : ... .. . ... ... ... ... : ... .. . ... : ... .. . ... : ... .. . ...
ROW 35 : ... .. . ... ... ... ... : ... .. . ... ... ... ... : ... .. . ... : ... .. . ... : ... .. . ...
ROW 36 : ... .. 2 ... ... ... ... : ... .. . ... ... ... ... : --- .. . ... : ... .. . ... : ... .. . ...
ROW 37 : ... .. . ... ... ... ... : ... .. . ... ... ... ... : ... .. . ... : ... .. . ... : ... .. . ...
ROW 38 : A#2 00 5 ... ... ... ... : ... .. . ... ... ... ... : D#3 00 . ... : 2-# 00 5 ... : ... .. . ...
ROW 39 : ... .. . ... ... ... ... : ... .. . ... ... ... ... : ... .. . ... : ... .. 4 ... : ... .. . ...
ROW 3A : ... .. . ... ... ... ... : ... .. . ... ... ... ... : ... .. . ... : ... .. 3 ... : ... .. . ...
ROW 3B : ... .. . ... ... ... ... : ... .. . ... ... ... ... : ... .. . ... : ... .. 2 ... : ... .. . ...
ROW 3C : ... .. . ... ... ... ... : ... .. . ... ... ... ... : ... .. . ... : ... .. 1 ... : ... .. . ...
ROW 3D : ... .. . ... ... ... ... : ... .. 1 ... ... ... ... : ... .. . ... : ... .. 0 ... : ... .. . ...
ROW 3E : ... .. . ... ... ... ... : ... .. . ... ... ... ... : ... .. . ... : ... .. . ... : ... .. . ...
ROW 3F : ... .. . ... ... ... ... : A#2 00 2 ... ... ... ... : ... .. . ... : 2-# 00 1 ... : ... .. . ...
ROW 40 : ... .. . ... ... ... ... : ... .. . ... ... ... ... : ... .. . ... : ... .. 0 ... : ... .. . ...
ROW 41 : ... .. . ... ... ... ... : ... .. . ... ... ... ... : ... .. . ... : ... .. . ... : ... .. . ...
ROW 42 : ... .. . ... ... ... ... : ... .. . ... ... ... ... : ... .. . ... : ... .. . ... : ... .. . ...
ROW 43 : ... .. . ... ... ... ... : ... .. . ... ... ... ... : ... .. . ... : ... .. . ... : ... .. . ...
ROW 44 : ... .. . ... ... ... ... : ... .. . ... ... ... ... : --- .. . ... : ... .. . ... : ... .. . ...
ROW 45 : ... .. . ... ... ... ... : ... .. . ... ... ... ... : ... .. . ... : ... .. . ... : ... .. . ...
ROW 46 : ... .. 2 ... ... ... ... : D#3 00 5 V02 ... ... P80 : G-4 00 . ... : E-# 00 3 ... : ... .. . ...
ROW 47 : ... .. . ... ... ... ... : ... .. . ... ... ... ... : ... .. . ... : ... .. . ... : ... .. . ...
ROW 48 : ... .. . ... ... ... ... : ... .. . ... ... ... ... : ... .. . ... : ... .. 2 ... : ... .. . ...
ROW 49 : ... .. . ... ... ... ... : ... .. . ... ... ... ... : ... .. . ... : ... .. . ... : ... .. . ...
ROW 4A : ... .. . ... ... ... ... : ... .. . ... ... ... ... : ... .. . ... : ... .. 1 ... : ... .. . ...
ROW 4B : ... .. . ... ... ... ... : ... .. . ... ... ... ... : ... .. . ... : ... .. . ... : ... .. . ...
ROW 4C : ... .. . ... ... ... ... : ... .. . ... ... ... ... : ... .. . ... : ... .. . ... : ... .. . ...
ROW 4D : G-3 00 2 V02 ... ... P81 : ... .. . ... ... ... ... : ... .. . ... : ... .. . ... : ... .. . ...
ROW 4E : ... .. . ... ... ... ... : ... .. . ... ... ... ... : ... .. . ... : ... .. . ... : ... .. . ...
ROW 4F : ... .. . ... ... ... ... : ... .. . ... ... ... ... : ... .. . ... : ... .. . ... : ... .. . ...
ROW 50 : ... .. . ... ... ... ... : ... .. . ... ... ... ... : ... .. . ... : ... .. . ... : ... .. . ...
ROW 51 : ... .. . ... ... ... ... : ... .. 2 ... ... ... ... : ... .. . ... : ... .. . ... : ... .. . ...
ROW 52 : ... .. . ... ... ... ... : ... .. . ... ... ... ... : ... .. . ... : ... .. . ... : ... .. . ...
ROW 53 : ... .. . ... ... ... ... : ... .. . ... ... ... ... : ... .. . ... : ... .. . ... : ... .. . ...
ROW 54 : ... .. . ... ... ... ... : F-3 00 5 ... ... ... ... : A-4 00 . ... : 7-# 00 5 ... : ... .. . ...
ROW 55 : ... .. . ... ... ... ... : ... .. . ... ... ... ... : ... .. . ... : ... .. 4 ... : ... .. . ...
ROW 56 : ... .. . ... ... ... ... : ... .. . ... ... ... ... : ... .. . ... : ... .. 3 ... : ... .. . ...
ROW 57 : ... .. . ... ... ... ... : ... .. . ... ... ... ... : ... .. . ... : ... .. . ... : ... .. . ...
ROW 58 : ... .. . ... ... ... ... : ... .. . ... ... ... ... : ... .. . ... : ... .. 2 ... : ... .. . ...
ROW 59 : ... .. 1 ... ... ... ... : ... .. . ... ... ... ... : ... .. . ... : ... .. . ... : ... .. . ...
ROW 5A : ... .. . ... ... ... ... : ... .. . ... ... ... ... : ... .. . ... : ... .. 1 ... : ... .. . ...
ROW 5B : A-3 00 2 ... ... ... ... : ... .. . ... ... ... ... : ... .. . ... : ... .. . ... : ... .. . ...
ROW 5C : ... .. . ... ... ... ... : ... .. . ... ... ... ... : ... .. . ... : ... .. 0 ... : ... .. . ...
ROW 5D : ... .. . ... ... ... ... : ... .. . ... ... ... ... : ... .. . ... : ... .. . ... : ... .. . ...
ROW 5E : ... .. . ... ... ... ... : ... .. . ... ... ... ... : ... .. . ... : ... .. . ... : ... .. . ...
ROW 5F : ... .. . ... ... ... ... : ... .. . ... ... ... ... : ... .. . ... : ... .. . ... : ... .. . ...
ROW 60 : ... .. . ... ... ... ... : ... .. . ... ... ... ... : ... .. . ... : ... .. . ... : ... .. . ...
ROW 61 : ... .. . ... ... ... ... : ... .. . ... ... ... ... : ... .. . ... : ... .. . ... : ... .. . ...
ROW 62 : D#2 00 5 V00 ... ... P81 : ... .. 2 ... ... ... ... : D#2 00 . ... : E-# 00 3 ... : ... .. . ...
ROW 63 : ... .. . ... ... ... ... : ... .. . ... ... ... ... : ... .. . ... : ... .. . ... : ... .. . ...
ROW 64 : E-2 00 . ... ... ... P80 : ... .. . ... ... ... ... : ... .. . ... : ... .. 2 ... : ... .. . ...
ROW 65 : ... .. . ... ... ... P7F : ... .. . ... ... ... ... : ... .. . ... : ... .. . ... : ... .. . ...
ROW 66 : F-2 00 . ... ... ... ... : ... .. . ... ... ... ... : ... .. . ... : ... .. 1 ... : ... .. . ...
ROW 67 : ... .. . ... ... ... P80 : ... .. . ... ... ... ... : ... .. . ... : ... .. . ... : ... .. . ...
ROW 68 : ... .. . ... ... ... ... : ... .. . ... ... ... ... : ... .. . ... : ... .. . ... : ... .. . ...
ROW 69 : ... .. . ... ... ... P81 : D#2 00 2 V00 ... ... P7E : ... .. . ... : ... .. . ... : ... .. . ...
ROW 6A : ... .. . ... ... ... P80 : ... .. . ... ... ... ... : ... .. . ... : ... .. . ... : ... .. . ...
ROW 6B : ... .. . ... ... ... ... : E-2 00 . ... ... ... ... : ... .. . ... : ... .. . ... : ... .. . ...
ROW 6C : ... .. . ... ... ... P7F : ... .. . ... ... ... ... : ... .. . ... : ... .. . ... : ... .. . ...
ROW 6D : ... .. 2 ... ... ... P80 : F-2 00 . ... ... ... ... : ... .. . ... : ... .. . ... : ... .. . ...
ROW 6E : ... .. . ... ... ... ... : ... .. . ... ... ... ... : --- .. . ... : ... .. . ... : ... .. . ...
ROW 6F : ... .. . ... ... ... P81 : ... .. . ... ... ... ... : ... .. . ... : ... .. . ... : ... .. . ...
ROW 70 : F-2 00 5 ... ... ... P81 : ... .. . ... ... ... ... : D#2 00 . ... : 2-# 00 5 V00 : ... .. . ...
ROW 71 : ... .. . ... ... ... ... : ... .. . ... ... ... ... : ... .. . ... : ... .. 4 ... : ... .. . ...
ROW 72 : F#2 00 . ... ... ... P80 : ... .. . ... ... ... ... : ... .. . ... : ... .. 3 ... : ... .. . ...
ROW 73 : ... .. . ... ... ... P7F : ... .. . ... ... ... ... : ... .. . ... : ... .. 2 ... : ... .. . ...
ROW 74 : G-2 00 . ... ... ... ... : ... .. . ... ... ... ... : ... .. . ... : ... .. 1 ... : ... .. . ...
ROW 75 : ... .. . ... ... ... P80 : ... .. . ... ... ... ... : ... .. . ... : ... .. 0 ... : ... .. . ...
ROW 76 : ... .. . ... ... ... ... : ... .. . ... ... ... ... : ... .. . ... : ... .. . ... : ... .. . ...
ROW 77 : ... .. . ... ... ... P81 : F-2 00 . ... ... ... ... : ... .. . ... : 2-# 00 1 ... : ... .. . ...
ROW 78 : ... .. . ... ... ... P80 : ... .. . ... ... ... ... : ... .. . ... : ... .. 0 ... : ... .. . ...
ROW 79 : ... .. . ... ... ... ... : F#2 00 . ... ... ... ... : ... .. . ... : ... .. . ... : ... .. . ...
ROW 7A : ... .. . ... ... ... P7F : ... .. . ... ... ... ... : ... .. . ... : ... .. . ... : ... .. . ...
ROW 7B : ... .. . ... ... ... P80 : G-2 00 . ... ... ... ... : ... .. . ... : ... .. . ... : ... .. . ...
ROW 7C : ... .. . ... ... ... ... : ... .. . ... ... ... ... : --- .. . ... : ... .. . ... : ... .. . ...
ROW 7D : ... .. . ... ... ... P81 : ... .. . ... ... ... ... : ... .. . ... : ... .. . ... : ... .. . ...
ROW 7E : ... .. . ... ... ... ... : F-4 00 4 V02 ... ... P80 : ... .. . ... : E-# 00 3 ... : ... .. . ...
ROW 7F : G-4 00 2 V02 ... ... P82 : F#4 00 . ... ... ... ... : ... .. . ... : ... .. . ... : ... .. . ...
ROW 80 : ... .. . ... ... ... ... : G-4 00 . ... ... ... ... : ... .. . ... : ... .. 2 ... : ... .. . ...
ROW 81 : ... .. . ... ... ... ... : ... .. . ... ... ... ... : ... .. . ... : ... .. . ... : ... .. . ...
ROW 82 : ... .. . ... ... ... ... : ... .. . ... ... ... ... : ... .. . ... : ... .. 1 ... : ... .. . ...
ROW 83 : ... .. . ... ... ... ... : ... .. . ... ... ... ... : ... .. . ... : ... .. . ... : ... .. . ...
ROW 84 : ... .. . ... ... ... ... : ... .. . ... ... ... ... : ... .. . ... : ... .. . ... : ... .. . ...
ROW 85 : ... .. . ... ... ... ... : ... .. . ... ... ... ... : ... .. . ... : ... .. . ... : ... .. . ...
ROW 86 : ... .. . ... ... ... ... : ... .. . ... ... ... ... : ... .. . ... : ... .. . ... : ... .. . ...
ROW 87 : ... .. . ... ... ... ... : ... .. . ... ... ... ... : ... .. . ... : ... .. . ... : ... .. . ...
ROW 88 : ... .. . ... ... ... ... : ... .. . ... ... ... ... : ... .. . ... : ... .. . ... : ... .. . ...
ROW 89 : ... .. . ... ... ... ... : ... .. 2 ... ... ... ... : ... .. . ... : ... .. . ... : ... .. . ...
ROW 8A : ... .. 1 ... ... ... ... : ... .. . ... ... ... ... : ... .. . ... : ... .. . ... : ... .. . ...
ROW 8B : ... .. . ... ... ... ... : ... .. . ... ... ... ... : ... .. . ... : ... .. . ... : ... .. . ...
ROW 8C : ... .. . ... ... ... ... : G-4 00 4 ... ... ... ... : F-3 00 . ... : 7-# 00 5 ... : ... .. . ...
ROW 8D : A-4 00 2 ... ... ... ... : G#4 00 . ... ... ... ... : ... .. . ... : ... .. 4 ... : ... .. . ...
ROW 8E : ... .. . ... ... ... ... : A-4 00 . ... ... ... ... : ... .. . ... : ... .. 3 ... : ... .. . ...
ROW 8F : ... .. . ... ... ... ... : ... .. . ... ... ... ... : ... .. . ... : ... .. . ... : ... .. . ...
ROW 90 : ... .. . ... ... ... ... : ... .. . ... ... ... ... : ... .. . ... : ... .. 2 ... : ... .. . ...
ROW 91 : ... .. . ... ... ... ... : ... .. . ... ... ... ... : ... .. . ... : ... .. . ... : ... .. . ...
ROW 92 : ... .. . ... ... ... ... : ... .. . ... ... ... ... : ... .. . ... : ... .. 1 ... : ... .. . ...
ROW 93 : ... .. . ... ... ... ... : ... .. . ... ... ... ... : ... .. . ... : ... .. . ... : ... .. . ...
ROW 94 : ... .. . ... ... ... ... : ... .. . ... ... ... ... : ... .. . ... : ... .. 0 ... : ... .. . ...
ROW 95 : ... .. . ... ... ... ... : ... .. . ... ... ... ... : ... .. . ... : ... .. . ... : ... .. . ...
ROW 96 : ... .. . ... ... ... ... : ... .. . ... ... ... ... : ... .. . ... : ... .. . ... : ... .. . ...
ROW 97 : ... .. . ... ... ... ... : G-4 00 2 ... ... ... ... : ... .. . ... : ... .. . ... : ... .. . ...
ROW 98 : G-4 00 1 ... ... ... ... : ... .. . ... ... ... ... : --- .. . ... : ... .. . ... : ... .. . ...
ROW 99 : ... .. . ... ... ... ... : ... .. . ... ... ... ... : ... .. . ... : ... .. . ... : ... .. . ...
ROW 9A : ... .. . ... ... ... ... : A#4 00 4 ... ... ... ... : ... .. . ... : E-# 00 3 ... : ... .. . ...
ROW 9B : C-5 00 2 ... ... ... ... : B-4 00 . ... ... ... ... : ... .. . ... : ... .. . ... : ... .. . ...
ROW 9C : ... .. . ... ... ... ... : C-5 00 . ... ... ... ... : ... .. . ... : ... .. 2 ... : ... .. . ...
ROW 9D : ... .. . ... ... ... ... : ... .. . ... ... ... ... : ... .. . ... : ... .. . ... : ... .. . ...
ROW 9E : ... .. . ... ... ... ... : ... .. . ... ... ... ... : ... .. . ... : ... .. 1 ... : ... .. . ...
ROW 9F : ... .. . ... ... ... ... : ... .. . ... ... ... ... : ... .. . ... : ... .. . ... : ... .. . ...
ROW A0 : ... .. . ... ... ... ... : ... .. . ... ... ... ... : ... .. . ... : ... .. . ... : ... .. . ...
ROW A1 : ... .. . ... ... ... ... : ... .. . ... ... ... ... : ... .. . ... : ... .. . ... : ... .. . ...
ROW A2 : ... .. . ... ... ... ... : ... .. . ... ... ... ... : ... .. . ... : ... .. . ... : ... .. . ...
ROW A3 : ... .. . ... ... ... ... : ... .. . ... ... ... ... : ... .. . ... : ... .. . ... : ... .. . ...
ROW A4 : ... .. . ... ... ... ... : ... .. . ... ... ... ... : ... .. . ... : ... .. . ... : ... .. . ...
ROW A5 : ... .. . ... ... ... ... : A-4 00 2 ... ... ... ... : ... .. . ... : ... .. . ... : ... .. . ...
ROW A6 : A-4 00 1 ... ... ... ... : ... .. . ... ... ... ... : ... .. . ... : ... .. . ... : ... .. . ...
ROW A7 : ... .. . ... ... ... ... : ... .. . ... ... ... ... : ... .. . ... : ... .. . ... : ... .. . ...
ROW A8 : ... .. . ... ... ... ... : G#4 00 4 ... ... ... ... : A#2 00 . ... : 2-# 00 5 ... : ... .. . ...
ROW A9 : A#4 00 2 ... ... ... ... : A-4 00 . ... ... ... ... : ... .. . ... : ... .. 4 ... : ... .. . ...
ROW AA : ... .. . ... ... ... ... : A#4 00 . ... ... ... ... : ... .. . ... : ... .. 3 ... : ... .. . ...
ROW AB : ... .. . ... ... ... ... : ... .. . ... ... ... ... : ... .. . ... : ... .. 2 ... : ... .. . ...
ROW AC : ... .. . ... ... ... ... : ... .. . ... ... ... ... : ... .. . ... : ... .. 1 ... : ... .. . ...
ROW AD : ... .. . ... ... ... ... : ... .. . ... ... ... ... : ... .. . ... : ... .. 0 ... : ... .. . ...
ROW AE : ... .. . ... ... ... ... : ... .. . ... ... ... ... : ... .. . ... : ... .. . ... : ... .. . ...
ROW AF : ... .. . ... ... ... ... : ... .. . ... ... ... ... : ... .. . ... : 2-# 00 1 ... : ... .. . ...
ROW B0 : ... .. . ... ... ... ... : ... .. . ... ... ... ... : ... .. . ... : ... .. 0 ... : ... .. . ...
ROW B1 : ... .. . ... ... ... ... : ... .. . ... ... ... ... : ... .. . ... : ... .. . ... : ... .. . ...
ROW B2 : ... .. . ... ... ... ... : ... .. . ... ... ... ... : ... .. . ... : ... .. . ... : ... .. . ...
ROW B3 : ... .. . ... ... ... ... : ... .. . ... ... ... ... : ... .. . ... : ... .. . ... : ... .. . ...
ROW B4 : ... .. . ... ... ... ... : ... .. . ... ... ... ... : ... .. . ... : ... .. . ... : ... .. . ...
ROW B5 : ... .. . ... ... ... ... : ... .. . ... ... ... ... : --- .. . ... : ... .. . ... : ... .. . ...
ROW B6 : ... .. . ... ... ... ... : ... .. . ... ... ... ... : ... .. . ... : E-# 00 3 ... : ... .. . ...
ROW B7 : ... .. . ... ... ... ... : ... .. . ... ... ... ... : ... .. . ... : ... .. . ... : ... .. . ...
ROW B8 : ... .. . ... ... ... ... : ... .. . ... ... ... ... : ... .. . ... : ... .. 2 ... : ... .. . ...
ROW B9 : ... .. . ... ... ... ... : ... .. . ... ... ... ... : ... .. . ... : ... .. . ... : ... .. . ...
ROW BA : ... .. . ... ... ... ... : ... .. . ... ... ... ... : ... .. . ... : ... .. 1 ... : ... .. . ...
ROW BB : ... .. . ... ... ... ... : ... .. . ... ... ... ... : ... .. . ... : ... .. . ... : ... .. . ...
ROW BC : ... .. . ... ... ... ... : ... .. . ... ... ... ... : ... .. . ... : ... .. . ... : ... .. . ...
ROW BD : ... .. . ... ... ... ... : ... .. . ... ... ... ... : ... .. . ... : ... .. . ... : ... .. . ...
ROW BE : ... .. . ... ... ... ... : ... .. . ... ... ... ... : ... .. . ... : ... .. . ... : ... .. . ...
ROW BF : ... .. . ... ... ... ... : ... .. . ... ... ... ... : ... .. . ... : ... .. . ... : ... .. . ...
ROW C0 : ... .. . ... ... ... ... : ... .. . ... ... ... ... : ... .. . ... : ... .. . ... : ... .. . ...
ROW C1 : ... .. . ... ... ... ... : C-5 00 2 ... ... ... ... : ... .. . ... : ... .. . ... : ... .. . ...
ROW C2 : C-5 00 1 ... ... ... ... : ... .. . ... ... ... ... : ... .. . ... : ... .. . ... : ... .. . ...
ROW C3 : ... .. . ... ... ... ... : ... .. . ... ... ... ... : ... .. . ... : ... .. . ... : ... .. . ...
ROW C4 : ... .. . ... ... ... ... : D#4 00 4 ... ... ... ... : ... .. . ... : 7-# 00 5 ... : ... .. . ...
ROW C5 : F-4 00 3 ... ... ... ... : E-4 00 . ... ... ... ... : ... .. . ... : ... .. 4 ... : ... .. . ...
ROW C6 : ... .. . ... ... ... ... : F-4 00 . ... ... ... ... : ... .. . ... : ... .. 3 ... : ... .. . ...
ROW C7 : ... .. . ... ... ... ... : ... .. . ... ... ... ... : ... .. . ... : ... .. . ... : ... .. . ...
ROW C8 : ... .. . ... ... ... ... : ... .. . ... ... ... ... : ... .. . ... : ... .. 2 ... : ... .. . ...
ROW C9 : ... .. . ... ... ... ... : ... .. . ... ... ... ... : ... .. . ... : ... .. . ... : ... .. . ...
ROW CA : ... .. . ... ... ... ... : ... .. . ... ... ... ... : ... .. . ... : ... .. 1 ... : ... .. . ...
ROW CB : ... .. . ... ... ... ... : ... .. . ... ... ... ... : ... .. . ... : ... .. . ... : ... .. . ...
ROW CC : ... .. . ... ... ... ... : ... .. . ... ... ... ... : ... .. . ... : ... .. 0 ... : ... .. . ...
ROW CD : ... .. . ... ... ... ... : ... .. . ... ... ... ... : ... .. . ... : ... .. . ... : ... .. . ...
ROW CE : ... .. . ... ... ... ... : ... .. . ... ... ... ... : ... .. . ... : ... .. . ... : ... .. . ...
ROW CF : ... .. . ... ... ... ... : ... .. . ... ... ... ... : ... .. . ... : ... .. . ... : ... .. . ...
ROW D0 : ... .. . ... ... ... ... : ... .. . ... ... ... ... : ... .. . ... : ... .. . ... : ... .. . ...
ROW D1 : ... .. . ... ... ... ... : ... .. . ... ... ... ... : ... .. . ... : ... .. . ... : ... .. . ...
ROW D2 : --- .. . ... ... ... ... : A#3 00 6 V01 ... ... P80 : A#2 00 . ... : 2-# 00 3 ... : ... .. . ...
ROW D3 : ... .. . ... ... ... ... : ... .. . ... ... ... ... : ... .. . ... : ... .. . ... : ... .. . ...
ROW D4 : ... .. . ... ... ... ... : ... .. 5 ... ... ... ... : ... .. . ... : ... .. 2 ... : ... .. . ...
ROW D5 : ... .. . ... ... ... ... : ... .. . ... ... ... ... : ... .. . ... : ... .. . ... : ... .. . ...
ROW D6 : ... .. . ... ... ... ... : ... .. 4 ... ... ... ... : ... .. . ... : ... .. 1 ... : ... .. . ...
ROW D7 : ... .. . ... ... ... ... : ... .. . ... ... ... ... : ... .. . ... : ... .. . ... : ... .. . ...
ROW D8 : ... .. . ... ... ... ... : ... .. . ... ... ... ... : ... .. . ... : ... .. . ... : ... .. . ...
ROW D9 : ... .. . ... ... ... ... : ... .. . ... ... ... ... : ... .. . ... : 2-# 00 3 ... : ... .. . ...
ROW DA : ... .. . ... ... ... ... : ... .. . ... ... ... ... : ... .. . ... : ... .. . ... : ... .. . ...
ROW DB : ... .. . ... ... ... ... : ... .. . ... ... ... ... : ... .. . ... : ... .. 2 ... : ... .. . ...
ROW DC : ... .. . ... ... ... ... : ... .. . ... ... ... ... : ... .. . ... : ... .. . ... : ... .. . ...
ROW DD : ... .. . ... ... ... ... : ... .. . ... ... ... ... : ... .. . ... : ... .. 1 ... : ... .. . ...
ROW DE : ... .. . ... ... ... ... : ... .. . ... ... ... ... : ... .. . ... : ... .. . ... : ... .. . ...
ROW DF : ... .. . ... ... ... ... : ... .. . ... ... ... ... : ... .. . ... : ... .. 0 ... : ... .. . ...

PATTERN 35
ROW 00 : D-3 00 4 V01 ... ... P80 : A#3 00 7 V01 ... ... ... : A#2 00 . ... : 2-# 00 6 ... : ... .. . ...
ROW 01 : ... .. . V00 ... ... ... : ... .. . ... ... ... ... : ... .. . ... : ... .. . ... : ... .. . ...
ROW 02 : ... .. . ... ... ... ... : ... .. 6 ... ... ... ... : ... .. . ... : ... .. 5 ... : ... .. . ...
ROW 03 : ... .. . ... ... ... ... : ... .. . ... ... ... ... : ... .. . ... : ... .. . ... : ... .. . ...
ROW 04 : ... .. . ... ... ... ... : ... .. 5 ... ... ... ... : ... .. . ... : ... .. 4 ... : ... .. . ...
ROW 05 : ... .. 1 V01 ... ... ... : ... .. . ... ... ... ... : --- .. . ... : ... .. . ... : ... .. . ...
ROW 06 : ... .. . V00 ... ... ... : ... .. . ... ... ... ... : ... .. . ... : ... .. 3 ... : ... .. . ...
ROW 07 : F-3 00 4 V01 ... ... ... : ... .. . ... ... ... ... : D-3 00 . ... : ... .. . ... : ... .. . ...
ROW 08 : ... .. . V00 ... ... ... : ... .. . ... ... ... ... : ... .. . ... : ... .. 2 ... : ... .. . ...
ROW 09 : ... .. . ... ... ... ... : ... .. . ... ... ... ... : ... .. . ... : ... .. . ... : ... .. . ...
ROW 0A : ... .. . ... ... ... ... : ... .. . ... ... ... ... : ... .. . ... : ... .. 1 ... : ... .. . ...
ROW 0B : ... .. . ... ... ... ... : ... .. . ... ... ... ... : ... .. . ... : ... .. . ... : ... .. . ...
ROW 0C : D-3 .. 1 V01 ... ... ... : ... .. . ... ... ... ... : --- .. . ... : ... .. 0 ... : ... .. . ...
ROW 0D : ... .. . V00 ... ... ... : ... .. . ... ... ... ... : ... .. . ... : ... .. . ... : ... .. . ...
ROW 0E : A#3 00 4 V01 ... ... ... : ... .. . ... ... ... P81 : F-3 00 . ... : ... .. . ... : ... .. . ...
ROW 0F : ... .. . V00 ... ... ... : ... .. . ... ... ... ... : ... .. . ... : ... .. . ... : ... .. . ...
ROW 10 : ... .. . ... ... ... ... : ... .. . ... ... ... ... : ... .. . ... : ... .. . ... : ... .. . ...
ROW 11 : ... .. . ... ... ... ... : ... .. . ... ... ... P80 : ... .. . ... : ... .. . ... : ... .. . ...
ROW 12 : ... .. . ... ... ... ... : ... .. . ... ... ... ... : ... .. . ... : ... .. . ... : ... .. . ...
ROW 13 : F-3 .. 1 V01 ... ... ... : ... .. . ... ... ... ... : --- .. . ... : ... .. . ... : ... .. . ...
ROW 14 : ... .. . V00 ... ... ... : ... .. . ... ... ... P7F : ... .. . ... : ... .. . ... : ... .. . ...
ROW 15 : D-4 00 4 V01 ... ... ... : ... .. 4 ... ... ... ... : A#3 00 . ... : ... .. . ... : ... .. . ...
ROW 16 : ... .. . V00 ... ... ... : ... .. . ... ... ... ... : ... .. . ... : ... .. . ... : ... .. . ...
ROW 17 : ... .. . ... ... ... ... : ... .. 3 ... ... ... P80 : ... .. . ... : ... .. . ... : ... .. . ...
ROW 18 : ... .. . ... ... ... ... : ... .. . ... ... ... ... : ... .. . ... : ... .. . ... : ... .. . ...
ROW 19 : ... .. . ... ... ... ... : ... .. 2 ... ... ... ... : ... .. . ... : ... .. . ... : ... .. . ...
ROW 1A : A#3 .. 1 V01 ... ... ... : ... .. . ... ... ... P81 : --- .. . ... : ... .. . ... : ... .. . ...
ROW 1B : ... .. . V00 ... ... ... : ... .. 1 ... ... ... ... : ... .. . ... : ... .. . ... : ... .. . ...
ROW 1C : F-4 00 4 V01 ... ... ... : A-3 00 7 V01 ... ... P80 : D-4 00 . ... : ... .. . ... : ... .. . ...
ROW 1D : ... .. . V00 ... ... ... : ... .. . ... ... ... ... : ... .. . ... : ... .. . ... : ... .. . ...
ROW 1E : ... .. . ... ... ... ... : ... .. 6 ... ... ... ... : ... .. . ... : ... .. . ... : ... .. . ...
ROW 1F : ... .. . ... ... ... ... : ... .. . ... ... ... ... : ... .. . ... : ... .. . ... : ... .. . ...
ROW 20 : ... .. . ... ... ... ... : ... .. 5 ... ... ... ... : --- .. . ... : ... .. . ... : ... .. . ...
ROW 21 : D-4 .. 1 V01 ... ... ... : ... .. . ... ... ... ... : ... .. . ... : ... .. . ... : ... .. . ...
ROW 22 : ... .. . V00 ... ... ... : ... .. . ... ... ... ... : ... .. . ... : ... .. . ... : ... .. . ...
ROW 23 : D-4 00 4 V01 ... ... ... : ... .. . ... ... ... ... : A#3 00 . ... : ... .. . ... : ... .. . ...
ROW 24 : ... .. . V00 ... ... ... : ... .. . ... ... ... ... : ... .. . ... : ... .. . ... : ... .. . ...
ROW 25 : ... .. . ... ... ... ... : ... .. . ... ... ... ... : ... .. . ... : ... .. . ... : ... .. . ...
ROW 26 : ... .. . ... ... ... ... : ... .. . ... ... ... ... : ... .. . ... : ... .. . ... : ... .. . ...
ROW 27 : ... .. . ... ... ... ... : ... .. . ... ... ... ... : ... .. . ... : ... .. . ... : ... .. . ...
ROW 28 : F-4 .. 1 V01 ... ... ... : ... .. . ... ... ... ... : --- .. . ... : ... .. . ... : ... .. . ...
ROW 29 : ... .. . V00 ... ... ... : ... .. . ... ... ... ... : ... .. . ... : ... .. . ... : ... .. . ...
ROW 2A : A#3 00 4 V01 ... ... ... : ... .. . ... ... ... P81 : F-3 00 . ... : 2-# 00 6 ... : ... .. . ...
ROW 2B : ... .. . V00 ... ... ... : ... .. . ... ... ... ... : ... .. . ... : ... .. . ... : ... .. . ...
ROW 2C : ... .. . ... ... ... ... : ... .. . ... ... ... ... : ... .. . ... : ... .. 5 ... : ... .. . ...
ROW 2D : ... .. . ... ... ... ... : ... .. . ... ... ... P80 : ... .. . ... : ... .. . ... : ... .. . ...
ROW 2E : ... .. . ... ... ... ... : ... .. . ... ... ... ... : ... .. . ... : ... .. 4 ... : ... .. . ...
ROW 2F : D-4 .. 1 V01 ... ... ... : ... .. . ... ... ... ... : --- .. . ... : ... .. . ... : ... .. . ...
ROW 30 : ... .. . V00 ... ... ... : ... .. 4 ... ... ... P7F : ... .. . ... : ... .. 3 ... : ... .. . ...
ROW 31 : F-3 00 4 V01 ... ... ... : ... .. . ... ... ... ... : D-3 00 . ... : ... .. . ... : ... .. . ...
ROW 32 : ... .. . V00 ... ... ... : ... .. 3 ... ... ... ... : ... .. . ... : ... .. 2 ... : ... .. . ...
ROW 33 : ... .. . ... ... ... ... : ... .. . ... ... ... P80 : ... .. . ... : ... .. . ... : ... .. . ...
ROW 34 : ... .. . ... ... ... ... : ... .. 2 ... ... ... ... : ... .. . ... : ... .. 1 ... : ... .. . ...
ROW 35 : ... .. . ... ... ... ... : ... .. . ... ... ... ... : ... .. . ... : ... .. . ... : ... .. . ...
ROW 36 : A#3 .. 1 V01 ... ... ... : A#3 00 1 ... ... ... P81 : --- .. . ... : ... .. 0 ... : ... .. . ...
ROW 37 : ... .. . V00 ... ... ... : ... .. . ... ... ... ... : ... .. . ... : ... .. . ... : ... .. . ...
ROW 38 : E-3 00 4 V01 ... ... ... : G-3 00 7 V01 ... ... P80 : C-3 00 . ... : 2-# 00 6 ... : ... .. . ...
ROW 39 : ... .. . V00 ... ... ... : ... .. . ... ... ... ... : ... .. . ... : ... .. . ... : ... .. . ...
ROW 3A : ... .. . ... ... ... ... : ... .. 6 ... ... ... ... : ... .. . ... : ... .. 5 ... : ... .. . ...
ROW 3B : ... .. . ... ... ... ... : ... .. . ... ... ... ... : ... .. . ... : ... .. . ... : ... .. . ...
ROW 3C : ... .. . ... ... ... ... : ... .. 5 ... ... ... ... : ... .. . ... : ... .. 4 ... : ... .. . ...
ROW 3D : F-3 .. 1 V01 ... ... ... : ... .. . ... ... ... ... : --- .. . ... : ... .. . ... : ... .. . ...
ROW 3E : ... .. . V00 ... ... ... : ... .. . ... ... ... ... : ... .. . ... : ... .. 3 ... : ... .. . ...
ROW 3F : G-3 00 4 V01 ... ... ... : ... .. . ... ... ... ... : E-3 00 . ... : ... .. . ... : ... .. . ...
ROW 40 : ... .. . V00 ... ... ... : ... .. . ... ... ... ... : ... .. . ... : ... .. 2 ... : ... .. . ...
ROW 41 : ... .. . ... ... ... ... : ... .. . ... ... ... ... : ... .. . ... : ... .. . ... : ... .. . ...
ROW 42 : ... .. . ... ... ... ... : ... .. . ... ... ... ... : ... .. . ... : ... .. 1 ... : ... .. . ...
ROW 43 : ... .. . ... ... ... ... : ... .. . ... ... ... ... : ... .. . ... : ... .. . ... : ... .. . ...
ROW 44 : E-3 .. 1 V01 ... ... ... : ... .. 2 ... ... ... ... : --- .. . ... : ... .. 0 ... : ... .. . ...
ROW 45 : ... .. . V00 ... ... ... : ... .. . ... ... ... ... : ... .. . ... : ... .. . ... : ... .. . ...
ROW 46 : C-4 00 4 V01 ... ... ... : F#3 00 7 ... ... ... ... : G-3 00 . ... : ... .. . ... : ... .. . ...
ROW 47 : ... .. . V00 ... ... ... : ... .. . ... ... ... ... : ... .. . ... : ... .. . ... : ... .. . ...
ROW 48 : ... .. . ... ... ... ... : ... .. 6 ... ... ... ... : ... .. . ... : ... .. . ... : ... .. . ...
ROW 49 : ... .. . ... ... ... ... : ... .. . ... ... ... ... : ... .. . ... : ... .. . ... : ... .. . ...
ROW 4A : ... .. . ... ... ... ... : ... .. 5 ... ... ... ... : ... .. . ... : ... .. . ... : ... .. . ...
ROW 4B : G-3 .. 1 V01 ... ... ... : ... .. . ... ... ... ... : --- .. . ... : ... .. . ... : ... .. . ...
ROW 4C : ... .. . V00 ... ... ... : ... .. . ... ... ... ... : ... .. . ... : ... .. . ... : ... .. . ...
ROW 4D : E-4 00 4 V01 ... ... ... : ... .. . ... ... ... ... : C-4 00 . ... : ... .. . ... : ... .. . ...
ROW 4E : ... .. . V00 ... ... ... : ... .. . ... ... ... ... : ... .. . ... : ... .. . ... : ... .. . ...
ROW 4F : ... .. . ... ... ... ... : ... .. . ... ... ... ... : ... .. . ... : ... .. . ... : ... .. . ...
ROW 50 : ... .. . ... ... ... ... : ... .. . ... ... ... ... : ... .. . ... : ... .. . ... : ... .. . ...
ROW 51 : ... .. . ... ... ... ... : ... .. . ... ... ... ... : ... .. . ... : ... .. . ... : ... .. . ...
ROW 52 : C-4 .. 1 V01 ... ... ... : G-3 00 2 ... ... ... ... : --- .. . ... : ... .. . ... : ... .. . ...
ROW 53 : ... .. . V00 ... ... ... : ... .. . ... ... ... ... : ... .. . ... : ... .. . ... : ... .. . ...
ROW 54 : G-4 00 4 V01 ... ... ... : G-3 00 7 ... ... ... ... : E-4 00 . ... : ... .. . ... : ... .. . ...
ROW 55 : ... .. . V00 ... ... ... : ... .. . ... ... ... ... : ... .. . ... : ... .. . ... : ... .. . ...
ROW 56 : ... .. . ... ... ... ... : ... .. 6 ... ... ... ... : ... .. . ... : ... .. . ... : ... .. . ...
ROW 57 : ... .. . ... ... ... ... : ... .. . ... ... ... ... : ... .. . ... : ... .. . ... : ... .. . ...
ROW 58 : ... .. . ... ... ... ... : ... .. 5 ... ... ... ... : ... .. . ... : ... .. . ... : ... .. . ...
ROW 59 : E-4 .. 1 V01 ... ... ... : ... .. . ... ... ... ... : --- .. . ... : ... .. . ... : ... .. . ...
ROW 5A : ... .. . V00 ... ... ... : ... .. . ... ... ... ... : ... .. . ... : ... .. . ... : ... .. . ...
ROW 5B : E-4 00 4 V01 ... ... ... : ... .. . ... ... ... ... : C-4 00 . ... : ... .. . ... : ... .. . ...
ROW 5C : ... .. . V00 ... ... ... : ... .. . ... ... ... ... : ... .. . ... : ... .. . ... : ... .. . ...
ROW 5D : ... .. . ... ... ... ... : ... .. . ... ... ... ... : ... .. . ... : ... .. . ... : ... .. . ...
ROW 5E : ... .. . ... ... ... ... : ... .. . ... ... ... ... : ... .. . ... : ... .. . ... : ... .. . ...
ROW 5F : ... .. . ... ... ... ... : ... .. . ... ... ... ... : ... .. . ... : ... .. . ... : ... .. . ...
ROW 60 : G-4 .. 1 V01 ... ... ... : F#3 00 2 ... ... ... ... : --- .. . ... : ... .. . ... : ... .. . ...
ROW 61 : ... .. . V00 ... ... ... : ... .. . ... ... ... ... : ... .. . ... : ... .. . ... : ... .. . ...
ROW 62 : C-4 00 4 V01 ... ... ... : F#3 00 7 ... ... ... ... : G-3 00 . ... : 2-# 00 6 ... : ... .. . ...
ROW 63 : ... .. . V00 ... ... ... : ... .. . ... ... ... ... : ... .. . ... : ... .. . ... : ... .. . ...
ROW 64 : ... .. . ... ... ... ... : ... .. 6 ... ... ... ... : ... .. . ... : ... .. 5 ... : ... .. . ...
ROW 65 : ... .. . ... ... ... ... : ... .. . ... ... ... ... : ... .. . ... : ... .. . ... : ... .. . ...
ROW 66 : ... .. . ... ... ... ... : ... .. 5 ... ... ... ... : ... .. . ... : ... .. 4 ... : ... .. . ...
ROW 67 : E-4 .. 1 V01 ... ... ... : ... .. . ... ... ... ... : --- .. . ... : ... .. . ... : ... .. . ...
ROW 68 : ... .. . V00 ... ... ... : ... .. . ... ... ... ... : ... .. . ... : ... .. 3 ... : ... .. . ...
ROW 69 : G-3 00 4 V01 ... ... ... : ... .. . ... ... ... ... : E-3 00 . ... : ... .. . ... : ... .. . ...
ROW 6A : ... .. . V00 ... ... ... : ... .. . ... ... ... ... : ... .. . ... : ... .. 2 ... : ... .. . ...
ROW 6B : ... .. . ... ... ... ... : ... .. . ... ... ... ... : ... .. . ... : ... .. . ... : ... .. . ...
ROW 6C : ... .. . ... ... ... ... : ... .. . ... ... ... ... : ... .. . ... : ... .. 1 ... : ... .. . ...
ROW 6D : ... .. . ... ... ... ... : ... .. . ... ... ... ... : ... .. . ... : ... .. . ... : ... .. . ...
ROW 6E : C-4 .. 1 V01 ... ... ... : ... .. 2 ... ... ... ... : --- .. . ... : ... .. 0 ... : ... .. . ...
ROW 6F : ... .. . V00 ... ... ... : ... .. . ... ... ... ... : ... .. . ... : ... .. . ... : ... .. . ...
ROW 70 : F#3 00 4 V01 ... ... ... : G-3 00 7 V01 ... ... ... : D-2 00 . ... : 2-# 00 6 ... : ... .. . ...
ROW 71 : ... .. . V00 ... ... ... : ... .. . ... ... ... ... : ... .. . ... : ... .. . ... : ... .. . ...
ROW 72 : ... .. . ... ... ... ... : ... .. 6 ... ... ... ... : ... .. . ... : ... .. 5 ... : ... .. . ...
ROW 73 : ... .. . ... ... ... ... : ... .. . ... ... ... ... : ... .. . ... : ... .. . ... : ... .. . ...
ROW 74 : ... .. . ... ... ... ... : ... .. 5 ... ... ... ... : ... .. . ... : ... .. 4 ... : ... .. . ...
ROW 75 : G-3 .. 1 V01 ... ... ... : ... .. . ... ... ... ... : --- .. . ... : ... .. . ... : ... .. . ...
ROW 76 : ... .. . V00 ... ... ... : ... .. . ... ... ... ... : ... .. . ... : ... .. 3 ... : ... .. . ...
ROW 77 : A-3 00 4 V01 ... ... ... : ... .. . ... ... ... ... : E-2 00 . ... : ... .. . ... : ... .. . ...
ROW 78 : ... .. . V00 ... ... ... : ... .. . ... ... ... ... : ... .. . ... : ... .. 2 ... : ... .. . ...
ROW 79 : ... .. . ... ... ... ... : ... .. . ... ... ... ... : ... .. . ... : ... .. . ... : ... .. . ...
ROW 7A : ... .. . ... ... ... ... : ... .. . ... ... ... ... : ... .. . ... : ... .. 1 ... : ... .. . ...
ROW 7B : ... .. . ... ... ... ... : ... .. . ... ... ... ... : ... .. . ... : ... .. . ... : ... .. . ...
ROW 7C : F#3 .. 1 V01 ... ... ... : ... .. . ... ... ... ... : --- .. . ... : ... .. 0 ... : ... .. . ...
ROW 7D : ... .. . V00 ... ... ... : ... .. . ... ... ... ... : ... .. . ... : ... .. . ... : ... .. . ...
ROW 7E : D-4 00 4 V01 ... ... ... : ... .. . ... ... ... P81 : F#2 00 . ... : ... .. . ... : ... .. . ...
ROW 7F : ... .. . V00 ... ... ... : ... .. . ... ... ... ... : ... .. . ... : ... .. . ... : ... .. . ...
ROW 80 : ... .. . ... ... ... ... : ... .. . ... ... ... ... : ... .. . ... : ... .. . ... : ... .. . ...
ROW 81 : ... .. . ... ... ... ... : ... .. . ... ... ... P80 : ... .. . ... : ... .. . ... : ... .. . ...
ROW 82 : ... .. . ... ... ... ... : ... .. . ... ... ... ... : ... .. . ... : ... .. . ... : ... .. . ...
ROW 83 : A-3 .. 1 V01 ... ... ... : ... .. . ... ... ... ... : --- .. . ... : ... .. . ... : ... .. . ...
ROW 84 : ... .. . V00 ... ... ... : ... .. 4 ... ... ... P7F : ... .. . ... : ... .. . ... : ... .. . ...
ROW 85 : E-4 00 4 V01 ... ... ... : ... .. . ... ... ... ... : A-2 00 . ... : ... .. . ... : ... .. . ...
ROW 86 : ... .. . V00 ... ... ... : ... .. 3 ... ... ... ... : ... .. . ... : ... .. . ... : ... .. . ...
ROW 87 : ... .. . ... ... ... ... : ... .. . ... ... ... P80 : ... .. . ... : ... .. . ... : ... .. . ...
ROW 88 : ... .. . ... ... ... ... : ... .. 2 ... ... ... ... : ... .. . ... : ... .. . ... : ... .. . ...
ROW 89 : ... .. . ... ... ... ... : ... .. . ... ... ... ... : ... .. . ... : ... .. . ... : ... .. . ...
ROW 8A : D-4 .. 1 V01 ... ... ... : ... .. 1 ... ... ... P81 : --- .. . ... : ... .. . ... : ... .. . ...
ROW 8B : ... .. . V00 ... ... ... : ... .. . ... ... ... ... : ... .. . ... : ... .. . ... : ... .. . ...
ROW 8C : F#4 00 4 V01 ... ... ... : F#3 00 7 V01 ... ... P80 : D-3 00 . ... : ... .. . ... : ... .. . ...
ROW 8D : ... .. . V00 ... ... ... : ... .. . ... ... ... ... : ... .. . ... : ... .. . ... : ... .. . ...
ROW 8E : ... .. . ... ... ... ... : ... .. 6 ... ... ... ... : ... .. . ... : ... .. . ... : ... .. . ...
ROW 8F : ... .. . ... ... ... ... : ... .. . ... ... ... ... : ... .. . ... : ... .. . ... : ... .. . ...
ROW 90 : ... .. . ... ... ... ... : ... .. 5 ... ... ... ... : ... .. . ... : ... .. . ... : ... .. . ...
ROW 91 : E-4 .. 1 V01 ... ... ... : ... .. . ... ... ... ... : --- .. . ... : ... .. . ... : ... .. . ...
ROW 92 : ... .. . V00 ... ... ... : ... .. . ... ... ... ... : ... .. . ... : ... .. . ... : ... .. . ...
ROW 93 : E-4 00 4 V01 ... ... ... : ... .. . ... ... ... ... : E-3 00 . ... : ... .. . ... : ... .. . ...
ROW 94 : ... .. . V00 ... ... ... : ... .. . ... ... ... ... : ... .. . ... : ... .. . ... : ... .. . ...
ROW 95 : ... .. . ... ... ... ... : ... .. . ... ... ... ... : ... .. . ... : ... .. . ... : ... .. . ...
ROW 96 : ... .. . ... ... ... ... : ... .. . ... ... ... ... : ... .. . ... : ... .. . ... : ... .. . ...
ROW 97 : ... .. . ... ... ... ... : ... .. . ... ... ... ... : ... .. . ... : ... .. . ... : ... .. . ...
ROW 98 : F#4 .. 1 V01 ... ... ... : ... .. . ... ... ... ... : --- .. . ... : ... .. . ... : ... .. . ...
ROW 99 : ... .. . V00 ... ... ... : ... .. . ... ... ... ... : ... .. . ... : ... .. . ... : ... .. . ...
ROW 9A : D-4 00 4 V01 ... ... ... : ... .. . ... ... ... P81 : F#3 00 . ... : ... .. . ... : ... .. . ...
ROW 9B : ... .. . V00 ... ... ... : ... .. . ... ... ... ... : ... .. . ... : ... .. . ... : ... .. . ...
ROW 9C : ... .. . ... ... ... ... : ... .. . ... ... ... ... : ... .. . ... : ... .. . ... : ... .. . ...
ROW 9D : ... .. . ... ... ... ... : ... .. . ... ... ... P80 : ... .. . ... : ... .. . ... : ... .. . ...
ROW 9E : ... .. . ... ... ... ... : ... .. . ... ... ... ... : ... .. . ... : ... .. . ... : ... .. . ...
ROW 9F : E-4 .. 1 V01 ... ... ... : ... .. . ... ... ... ... : --- .. . ... : ... .. . ... : ... .. . ...
ROW A0 : ... .. . V00 ... ... ... : ... .. 4 ... ... ... P7F : ... .. . ... : ... .. . ... : ... .. . ...
ROW A1 : A-3 00 4 V01 ... ... ... : ... .. . ... ... ... ... : A-3 00 . ... : ... .. . ... : ... .. . ...
ROW A2 : ... .. . V00 ... ... ... : ... .. 3 ... ... ... ... : ... .. . ... : ... .. . ... : ... .. . ...
ROW A3 : ... .. . ... ... ... ... : ... .. . ... ... ... P80 : ... .. . ... : ... .. . ... : ... .. . ...
ROW A4 : ... .. . ... ... ... ... : ... .. 2 ... ... ... ... : ... .. . ... : ... .. . ... : ... .. . ...
ROW A5 : ... .. . ... ... ... ... : ... .. . ... ... ... ... : ... .. . ... : ... .. . ... : ... .. . ...
ROW A6 : D-4 .. 1 V01 ... ... ... : ... .. 1 ... ... ... P81 : --- .. . ... : ... .. . ... : ... .. . ...
ROW A7 : ... .. . V00 ... ... ... : ... .. . ... ... ... ... : ... .. . ... : ... .. . ... : ... .. . ...
ROW A8 : D-4 00 4 V01 ... ... ... : G-3 00 7 V01 ... ... P80 : D-4 00 . ... : ... .. . ... : ... .. . ...
ROW A9 : ... .. . V00 ... ... ... : ... .. . ... ... ... ... : ... .. . ... : ... .. . ... : ... .. . ...
ROW AA : ... .. . ... ... ... ... : ... .. . ... ... ... ... : ... .. . ... : ... .. . ... : ... .. . ...
ROW AB : ... .. . ... ... ... ... : A-3 00 7 ... ... ... ... : ... .. . ... : ... .. . ... : ... .. . ...
ROW AC : ... .. . ... ... ... ... : ... .. . ... ... ... ... : ... .. . ... : ... .. . ... : ... .. . ...
ROW AD : A-2 .. 1 V01 ... ... ... : ... .. 6 ... ... ... ... : ... .. . ... : ... .. . ... : ... .. . ...
ROW AE : ... .. . V00 ... ... ... : ... .. . ... ... ... ... : ... .. . ... : ... .. . ... : ... .. . ...
ROW AF : E-4 00 4 V01 ... ... ... : ... .. 5 ... ... ... ... : ... .. . ... : ... .. . ... : ... .. . ...
ROW B0 : ... .. . V00 ... ... ... : ... .. . ... ... ... ... : ... .. . ... : ... .. . ... : ... .. . ...
ROW B1 : ... .. . ... ... ... ... : ... .. . ... ... ... ... : ... .. . ... : ... .. . ... : ... .. . ...
ROW B2 : ... .. . ... ... ... ... : ... .. . ... ... ... ... : ... .. . ... : ... .. . ... : ... .. . ...
ROW B3 : ... .. . ... ... ... ... : ... .. . ... ... ... ... : ... .. . ... : ... .. . ... : ... .. . ...
ROW B4 : D-4 .. 1 V01 ... ... ... : ... .. . ... ... ... ... : ... .. . ... : ... .. . ... : ... .. . ...
ROW B5 : ... .. . V00 ... ... ... : ... .. . ... ... ... ... : ... .. . ... : ... .. . ... : ... .. . ...
ROW B6 : F#4 00 4 V01 ... ... ... : ... .. . ... ... ... P81 : ... .. . ... : ... .. . ... : ... .. . ...
ROW B7 : ... .. . V00 ... ... ... : ... .. . ... ... ... ... : ... .. . ... : ... .. . ... : ... .. . ...
ROW B8 : ... .. . ... ... ... ... : ... .. . ... ... ... ... : ... .. . ... : ... .. . ... : ... .. . ...
ROW B9 : ... .. . ... ... ... ... : ... .. . ... ... ... P80 : ... .. . ... : ... .. . ... : ... .. . ...
ROW BA : ... .. . ... ... ... ... : ... .. . ... ... ... ... : ... .. . ... : ... .. . ... : ... .. . ...
ROW BB : E-4 .. 1 V01 ... ... ... : ... .. . ... ... ... ... : ... .. . ... : ... .. . ... : ... .. . ...
ROW BC : ... .. . V00 ... ... ... : ... .. . ... ... ... P7F : ... .. . ... : ... .. . ... : ... .. . ...
ROW BD : A-4 00 4 V01 ... ... ... : ... .. . ... ... ... ... : ... .. . ... : ... .. . ... : ... .. . ...
ROW BE : ... .. . V00 ... ... ... : ... .. . ... ... ... ... : ... .. . ... : ... .. . ... : ... .. . ...
ROW BF : ... .. . ... ... ... ... : ... .. . ... ... ... P80 : ... .. . ... : ... .. . ... : ... .. . ...
ROW C0 : ... .. . ... ... ... ... : ... .. . ... ... ... ... : ... .. . ... : ... .. . ... : ... .. . ...
ROW C1 : ... .. . ... ... ... ... : ... .. . ... ... ... ... : ... .. . ... : ... .. . ... : ... .. . ...
ROW C2 : F#4 .. 1 V01 ... ... ... : ... .. . ... ... ... P81 : ... .. . ... : ... .. . ... : ... .. . ...
ROW C3 : ... .. . V00 ... ... ... : ... .. . ... ... ... ... : ... .. . ... : ... .. . ... : ... .. . ...
ROW C4 : C-5 00 4 V01 ... ... ... : D-3 00 7 V00 ... ... P80 : ... .. . ... : ... .. . ... : ... .. . ...
ROW C5 : ... .. . V00 ... ... ... : ... .. . ... ... ... ... : ... .. . ... : ... .. . ... : ... .. . ...
ROW C6 : ... .. . ... ... ... ... : ... .. 6 V02 ... ... ... : ... .. . ... : ... .. . ... : ... .. . ...
ROW C7 : ... .. . ... ... ... ... : ... .. . ... ... ... ... : ... .. . ... : ... .. . ... : ... .. . ...
ROW C8 : ... .. . ... ... ... ... : ... .. 5 ... ... ... ... : ... .. . ... : ... .. . ... : ... .. . ...
ROW C9 : A-4 .. 1 V01 ... ... ... : ... .. . ... ... ... ... : ... .. . ... : ... .. . ... : ... .. . ...
ROW CA : ... .. . V00 ... ... ... : ... .. . ... ... ... ... : ... .. . ... : ... .. . ... : ... .. . ...
ROW CB : A-4 00 4 V01 ... ... ... : ... .. . ... ... ... ... : ... .. . ... : ... .. . ... : ... .. . ...
ROW CC : ... .. . V00 ... ... ... : ... .. . ... ... ... ... : ... .. . ... : ... .. . ... : ... .. . ...
ROW CD : ... .. . ... ... ... ... : ... .. . ... ... ... ... : ... .. . ... : ... .. . ... : ... .. . ...
ROW CE : ... .. . ... ... ... ... : ... .. . ... ... ... ... : ... .. . ... : ... .. . ... : ... .. . ...
ROW CF : ... .. . ... ... ... ... : ... .. . ... ... ... ... : ... .. . ... : ... .. . ... : ... .. . ...
ROW D0 : C-5 .. 1 V01 ... ... ... : ... .. 2 ... ... ... ... : ... .. . ... : ... .. . ... : ... .. . ...
ROW D1 : ... .. . V00 ... ... ... : ... .. . ... ... ... ... : ... .. . ... : ... .. . ... : ... .. . ...
ROW D2 : F#4 00 4 V01 ... ... ... : C-4 00 7 V00 ... ... ... : G-3 00 . ... : ... .. . ... : ... .. . ...
ROW D3 : ... .. . V00 ... ... ... : ... .. . ... ... ... ... : ... .. . ... : ... .. . ... : ... .. . ...
ROW D4 : ... .. . ... ... ... ... : ... .. 6 V02 ... ... ... : ... .. . ... : ... .. . ... : ... .. . ...
ROW D5 : ... .. . ... ... ... ... : ... .. . ... ... ... ... : ... .. . ... : ... .. . ... : ... .. . ...
ROW D6 : ... .. . ... ... ... ... : ... .. 5 ... ... ... ... : ... .. . ... : ... .. . ... : ... .. . ...
ROW D7 : A-4 .. 1 V01 ... ... ... : ... .. . ... ... ... ... : --- .. . ... : ... .. . ... : ... .. . ...
ROW D8 : ... .. . V00 ... ... ... : ... .. . ... ... ... ... : ... .. . ... : ... .. . ... : ... .. . ...
ROW D9 : D-4 00 4 V01 ... ... ... : ... .. . ... ... ... ... : G-3 00 . ... : ... .. . ... : ... .. . ...
ROW DA : ... .. . V00 ... ... ... : ... .. . ... ... ... ... : ... .. . ... : ... .. . ... : ... .. . ...
ROW DB : ... .. . ... ... ... ... : ... .. . ... ... ... ... : ... .. . ... : ... .. . ... : ... .. . ...
ROW DC : ... .. . ... ... ... ... : ... .. . ... ... ... ... : ... .. . ... : ... .. . ... : ... .. . ...
ROW DD : ... .. . ... ... ... ... : ... .. . ... ... ... ... : ... .. . ... : ... .. . ... : ... .. . ...
ROW DE : F#4 .. 1 V01 ... ... ... : D-3 00 2 ... ... ... ... : --- .. . ... : ... .. . ... : ... .. . ...
ROW DF : ... .. . V00 ... ... ... : ... .. . ... ... ... ... : ... .. . ... : ... .. . ... : ... .. . ...

PATTERN 36
ROW 00 : C-4 00 7 V00 ... ... ... : A-3 00 B V02 ... ... ... : G-3 00 . ... : 2-# 00 4 ... : ... .. . ...
ROW 01 : ... .. . ... ... ... ... : ... .. 6 ... ... ... ... : ... .. . ... : ... .. 3 ... : ... .. . ...
ROW 02 : ... .. 6 V02 ... ... ... : ... .. 3 ... ... ... ... : ... .. . ... : ... .. 2 ... : ... .. . ...
ROW 03 : ... .. . ... ... ... ... : ... .. 2 ... ... ... ... : ... .. . ... : ... .. 1 ... : ... .. . ...
ROW 04 : ... .. 5 ... ... ... ... : ... .. 1 ... ... ... ... : ... .. . ... : ... .. 0 ... : ... .. . ...
ROW 05 : ... .. . ... ... ... ... : ... .. . ... ... ... ... : ... .. . ... : ... .. . ... : ... .. . ...
ROW 06 : ... .. . ... ... ... ... : ... .. . ... ... ... ... : ... .. . ... : ... .. . ... : ... .. . ...
ROW 07 : ... .. . ... ... ... ... : ... .. . ... ... ... ... : ... .. . ... : ... .. . ... : ... .. . ...
ROW 08 : ... .. . ... ... ... ... : ... .. . ... ... ... ... : ... .. . ... : ... .. . ... : ... .. . ...
ROW 09 : ... .. . ... ... ... ... : ... .. . ... ... ... ... : ... .. . ... : ... .. . ... : ... .. . ...
ROW 0A : ... .. . ... ... ... ... : ... .. 2 ... ... ... ... : ... .. . ... : ... .. . ... : ... .. . ...
ROW 0B : ... .. . ... ... ... ... : ... .. 4 ... ... ... ... : ... .. . ... : ... .. . ... : ... .. . ...
ROW 0C : ... .. . ... ... ... ... : ... .. 4 ... ... ... ... : ... .. . ... : ... .. . ... : ... .. . ...
ROW 0D : ... .. . ... ... ... ... : ... .. 2 ... ... ... ... : ... .. . ... : ... .. . ... : ... .. . ...
ROW 0E : ... .. . ... ... ... P81 : ... .. 1 ... ... ... ... : ... .. . ... : E-# 00 4 ... : ... .. . ...
ROW 0F : ... .. . ... ... ... ... : ... .. . ... ... ... ... : ... .. . ... : ... .. 3 ... : ... .. . ...
ROW 10 : ... .. . ... ... ... ... : ... .. . ... ... ... ... : ... .. . ... : ... .. 2 ... : ... .. . ...
ROW 11 : ... .. . ... ... ... P80 : ... .. . ... ... ... ... : ... .. . ... : ... .. 1 ... : ... .. . ...
ROW 12 : ... .. . ... ... ... ... : ... .. . ... ... ... ... : ... .. . ... : ... .. 0 ... : ... .. . ...
ROW 13 : ... .. . ... ... ... ... : ... .. 1 ... ... ... ... : ... .. . ... : ... .. . ... : ... .. . ...
ROW 14 : ... .. . ... ... ... P7F : ... .. 3 ... ... ... ... : ... .. . ... : ... .. . ... : ... .. . ...
ROW 15 : ... .. 4 ... ... ... ... : ... .. 3 ... ... ... ... : ... .. . ... : E-# 00 4 ... : ... .. . ...
ROW 16 : ... .. . ... ... ... ... : ... .. 1 ... ... ... ... : ... .. . ... : ... .. 3 ... : ... .. . ...
ROW 17 : ... .. 3 ... ... ... P80 : ... .. . ... ... ... ... : ... .. . ... : ... .. 2 ... : ... .. . ...
ROW 18 : ... .. . ... ... ... ... : ... .. . ... ... ... ... : ... .. . ... : ... .. 1 ... : ... .. . ...
ROW 19 : ... .. 2 ... ... ... ... : ... .. . ... ... ... ... : ... .. . ... : ... .. 0 ... : ... .. . ...
ROW 1A : ... .. . ... ... ... P81 : ... .. . ... ... ... ... : ... .. . ... : ... .. . ... : ... .. . ...
ROW 1B : ... .. 1 ... ... ... ... : ... .. . ... ... ... ... : ... .. . ... : ... .. . ... : ... .. . ...
ROW 1C : B-3 00 7 V00 ... ... P80 : G-3 00 B ... ... ... ... : ... .. . ... : 8-# 00 4 ... : ... .. . ...
ROW 1D : ... .. . ... ... ... ... : ... .. 6 ... ... ... ... : ... .. . ... : ... .. . ... : ... .. . ...
ROW 1E : ... .. 6 V02 ... ... ... : ... .. 3 ... ... ... ... : ... .. . ... : ... .. . ... : ... .. . ...
ROW 1F : ... .. . ... ... ... ... : ... .. 2 ... ... ... ... : ... .. . ... : ... .. 3 ... : ... .. . ...
ROW 20 : ... .. 5 ... ... ... ... : ... .. 1 ... ... ... ... : ... .. . ... : ... .. . ... : ... .. . ...
ROW 21 : ... .. . ... ... ... ... : ... .. . ... ... ... ... : ... .. . ... : ... .. . ... : ... .. . ...
ROW 22 : ... .. . ... ... ... ... : ... .. . ... ... ... ... : ... .. . ... : ... .. 2 ... : ... .. . ...
ROW 23 : ... .. . ... ... ... ... : ... .. . ... ... ... ... : ... .. . ... : ... .. . ... : ... .. . ...
ROW 24 : ... .. . ... ... ... ... : ... .. . ... ... ... ... : ... .. . ... : ... .. . ... : ... .. . ...
ROW 25 : ... .. . ... ... ... ... : ... .. . ... ... ... ... : ... .. . ... : ... .. 1 ... : ... .. . ...
ROW 26 : ... .. . ... ... ... ... : ... .. 2 ... ... ... ... : ... .. . ... : ... .. . ... : ... .. . ...
ROW 27 : ... .. . ... ... ... ... : ... .. 4 ... ... ... ... : ... .. . ... : ... .. . ... : ... .. . ...
ROW 28 : ... .. . ... ... ... ... : ... .. 4 ... ... ... ... : ... .. . ... : ... .. 0 ... : ... .. . ...
ROW 29 : ... .. . ... ... ... ... : ... .. 2 ... ... ... ... : --- .. . ... : ... .. . ... : ... .. . ...
ROW 2A : ... .. . ... ... ... P81 : ... .. 1 ... ... ... ... : G-3 00 . ... : E-# 00 4 ... : ... .. . ...
ROW 2B : ... .. . ... ... ... ... : ... .. . ... ... ... ... : ... .. . ... : ... .. 3 ... : ... .. . ...
ROW 2C : ... .. . ... ... ... ... : ... .. . ... ... ... ... : ... .. . ... : ... .. 2 ... : ... .. . ...
ROW 2D : ... .. . ... ... ... P80 : ... .. . ... ... ... ... : ... .. . ... : ... .. 1 ... : ... .. . ...
ROW 2E : ... .. . ... ... ... ... : ... .. . ... ... ... ... : ... .. . ... : ... .. 0 ... : ... .. . ...
ROW 2F : ... .. . ... ... ... ... : ... .. 1 ... ... ... ... : ... .. . ... : ... .. . ... : ... .. . ...
ROW 30 : ... .. . ... ... ... P7F : ... .. 3 ... ... ... ... : --- .. . ... : ... .. . ... : ... .. . ...
ROW 31 : ... .. 4 ... ... ... ... : ... .. 3 ... ... ... ... : G-3 00 . ... : E-# 00 4 ... : ... .. . ...
ROW 32 : ... .. . ... ... ... ... : ... .. 1 ... ... ... ... : ... .. . ... : ... .. 3 ... : ... .. . ...
ROW 33 : ... .. 3 ... ... ... P80 : ... .. . ... ... ... ... : ... .. . ... : ... .. 2 ... : ... .. . ...
ROW 34 : ... .. . ... ... ... ... : ... .. . ... ... ... ... : ... .. . ... : ... .. 1 ... : ... .. . ...
ROW 35 : ... .. 2 ... ... ... ... : ... .. . ... ... ... ... : ... .. . ... : ... .. 0 ... : ... .. . ...
ROW 36 : ... .. . ... ... ... P81 : ... .. . ... ... ... ... : ... .. . ... : ... .. . ... : ... .. . ...
ROW 37 : ... .. 1 ... ... ... ... : ... .. . ... ... ... ... : --- .. . ... : ... .. . ... : ... .. . ...
ROW 38 : A-3 00 7 V00 ... ... P80 : F-3 00 B ... ... ... ... : G-3 00 . ... : 2-# 00 4 ... : ... .. . ...
ROW 39 : ... .. . ... ... ... ... : ... .. 6 ... ... ... ... : ... .. . ... : ... .. 3 ... : ... .. . ...
ROW 3A : ... .. 6 V02 ... ... ... : ... .. 3 ... ... ... ... : ... .. . ... : ... .. 2 ... : ... .. . ...
ROW 3B : ... .. . ... ... ... ... : ... .. 2 ... ... ... ... : ... .. . ... : ... .. 1 ... : ... .. . ...
ROW 3C : ... .. 5 ... ... ... ... : ... .. 1 ... ... ... ... : ... .. . ... : ... .. 0 ... : ... .. . ...
ROW 3D : ... .. . ... ... ... ... : ... .. . ... ... ... ... : ... .. . ... : ... .. . ... : ... .. . ...
ROW 3E : ... .. . ... ... ... ... : ... .. . ... ... ... ... : ... .. . ... : ... .. . ... : ... .. . ...
ROW 3F : ... .. . ... ... ... ... : ... .. . ... ... ... ... : ... .. . ... : ... .. . ... : ... .. . ...
ROW 40 : ... .. . ... ... ... ... : ... .. . ... ... ... ... : ... .. . ... : ... .. . ... : ... .. . ...
ROW 41 : ... .. . ... ... ... ... : ... .. . ... ... ... ... : ... .. . ... : ... .. . ... : ... .. . ...
ROW 42 : ... .. . ... ... ... ... : ... .. 2 ... ... ... ... : ... .. . ... : ... .. . ... : ... .. . ...
ROW 43 : ... .. . ... ... ... ... : ... .. 4 ... ... ... ... : ... .. . ... : ... .. . ... : ... .. . ...
ROW 44 : B-3 00 2 ... ... ... ... : ... .. 4 ... ... ... ... : ... .. . ... : ... .. . ... : ... .. . ...
ROW 45 : ... .. . ... ... ... ... : ... .. 2 ... ... ... ... : ... .. . ... : ... .. . ... : ... .. . ...
ROW 46 : B-3 00 7 V00 ... ... ... : G-3 00 B ... ... ... ... : ... .. . ... : E-# 00 4 ... : ... .. . ...
ROW 47 : ... .. . ... ... ... ... : ... .. 6 ... ... ... ... : ... .. . ... : ... .. 3 ... : ... .. . ...
ROW 48 : ... .. 6 V02 ... ... ... : ... .. 3 ... ... ... ... : ... .. . ... : ... .. 2 ... : ... .. . ...
ROW 49 : ... .. . ... ... ... ... : ... .. 2 ... ... ... ... : ... .. . ... : ... .. 1 ... : ... .. . ...
ROW 4A : ... .. 5 ... ... ... ... : ... .. 1 ... ... ... ... : ... .. . ... : ... .. 0 ... : ... .. . ...
ROW 4B : ... .. . ... ... ... ... : ... .. . ... ... ... ... : ... .. . ... : ... .. . ... : ... .. . ...
ROW 4C : ... .. . ... ... ... ... : ... .. . ... ... ... ... : ... .. . ... : ... .. . ... : ... .. . ...
ROW 4D : ... .. . ... ... ... ... : ... .. . ... ... ... ... : ... .. . ... : E-# 00 4 ... : ... .. . ...
ROW 4E : ... .. . ... ... ... ... : ... .. . ... ... ... ... : ... .. . ... : ... .. 3 ... : ... .. . ...
ROW 4F : ... .. . ... ... ... ... : ... .. . ... ... ... ... : ... .. . ... : ... .. 2 ... : ... .. . ...
ROW 50 : ... .. . ... ... ... ... : ... .. 2 ... ... ... ... : ... .. . ... : ... .. 1 ... : ... .. . ...
ROW 51 : ... .. . ... ... ... ... : ... .. 4 ... ... ... ... : ... .. . ... : ... .. 0 ... : ... .. . ...
ROW 52 : A-3 00 2 ... ... ... ... : ... .. 4 ... ... ... ... : ... .. . ... : ... .. . ... : ... .. . ...
ROW 53 : ... .. . ... ... ... ... : ... .. 2 ... ... ... ... : ... .. . ... : ... .. . ... : ... .. . ...
ROW 54 : C-4 00 7 V00 ... ... ... : A-3 00 B ... ... ... ... : ... .. . ... : 8-# 00 4 ... : ... .. . ...
ROW 55 : ... .. . ... ... ... ... : ... .. 6 ... ... ... ... : ... .. . ... : ... .. . ... : ... .. . ...
ROW 56 : ... .. 6 V02 ... ... ... : ... .. 3 ... ... ... ... : ... .. . ... : ... .. . ... : ... .. . ...
ROW 57 : ... .. . ... ... ... ... : ... .. 2 ... ... ... ... : ... .. . ... : ... .. 3 ... : ... .. . ...
ROW 58 : ... .. 5 ... ... ... ... : ... .. 1 ... ... ... ... : ... .. . ... : ... .. . ... : ... .. . ...
ROW 59 : ... .. . ... ... ... ... : ... .. . ... ... ... ... : ... .. . ... : ... .. . ... : ... .. . ...
ROW 5A : ... .. . ... ... ... ... : ... .. . ... ... ... ... : ... .. . ... : ... .. 2 ... : ... .. . ...
ROW 5B : ... .. . ... ... ... ... : ... .. . ... ... ... ... : ... .. . ... : ... .. . ... : ... .. . ...
ROW 5C : ... .. . ... ... ... ... : ... .. . ... ... ... ... : ... .. . ... : ... .. . ... : ... .. . ...
ROW 5D : ... .. . ... ... ... ... : ... .. . ... ... ... ... : ... .. . ... : ... .. 1 ... : ... .. . ...
ROW 5E : ... .. . ... ... ... ... : ... .. 2 ... ... ... ... : ... .. . ... : ... .. . ... : ... .. . ...
ROW 5F : ... .. . ... ... ... ... : ... .. 4 ... ... ... ... : ... .. . ... : ... .. . ... : ... .. . ...
ROW 60 : B-3 00 2 ... ... ... ... : ... .. 4 ... ... ... ... : ... .. . ... : ... .. 0 ... : ... .. . ...
ROW 61 : ... .. . ... ... ... ... : ... .. 2 ... ... ... ... : --- .. . ... : ... .. . ... : ... .. . ...
ROW 62 : A-3 00 7 V00 ... ... ... : F-3 00 B ... ... ... ... : G-3 00 . ... : E-# 00 4 ... : ... .. . ...
ROW 63 : ... .. . ... ... ... ... : ... .. 6 ... ... ... ... : ... .. . ... : ... .. 3 ... : ... .. . ...
ROW 64 : ... .. 6 V02 ... ... ... : ... .. 3 ... ... ... ... : ... .. . ... : ... .. 2 ... : ... .. . ...
ROW 65 : ... .. . ... ... ... ... : ... .. 2 ... ... ... ... : ... .. . ... : ... .. 1 ... : ... .. . ...
ROW 66 : ... .. 5 ... ... ... ... : ... .. 1 ... ... ... ... : ... .. . ... : ... .. 0 ... : ... .. . ...
ROW 67 : ... .. . ... ... ... ... : ... .. . ... ... ... ... : ... .. . ... : ... .. . ... : ... .. . ...
ROW 68 : ... .. . ... ... ... ... : ... .. . ... ... ... ... : --- .. . ... : ... .. . ... : ... .. . ...
ROW 69 : ... .. . ... ... ... ... : ... .. . ... ... ... ... : G-3 00 . ... : E-# 00 4 ... : ... .. . ...
ROW 6A : ... .. . ... ... ... ... : ... .. . ... ... ... ... : ... .. . ... : ... .. 3 ... : ... .. . ...
ROW 6B : ... .. . ... ... ... ... : ... .. . ... ... ... ... : ... .. . ... : ... .. 2 ... : ... .. . ...
ROW 6C : ... .. . ... ... ... ... : ... .. 2 ... ... ... ... : ... .. . ... : ... .. 1 ... : ... .. . ...
ROW 6D : ... .. . ... ... ... ... : ... .. 4 ... ... ... ... : ... .. . ... : ... .. 0 ... : ... .. . ...
ROW 6E : C-4 00 2 ... ... ... ... : ... .. 4 ... ... ... ... : ... .. . ... : ... .. . ... : ... .. . ...
ROW 6F : ... .. . ... ... ... ... : ... .. 2 ... ... ... ... : --- .. . ... : ... .. . ... : ... .. . ...
ROW 70 : C-4 00 7 V00 ... ... ... : F-2 00 1 V00 ... ... ... : G-3 00 . ... : 2-# 00 4 ... : ... .. . ...
ROW 71 : ... .. . ... ... ... ... : ... .. 2 ... ... ... ... : ... .. . ... : ... .. 3 ... : ... .. . ...
ROW 72 : ... .. 6 V02 ... ... ... : ... .. 3 ... ... ... ... : ... .. . ... : ... .. 2 ... : ... .. . ...
ROW 73 : ... .. . ... ... ... ... : ... .. 4 ... ... ... ... : ... .. . ... : ... .. 1 ... : ... .. . ...
ROW 74 : ... .. 5 ... ... ... ... : ... .. 5 ... ... ... ... : ... .. . ... : ... .. 0 ... : ... .. . ...
ROW 75 : ... .. . ... ... ... ... : ... .. 6 ... ... ... ... : ... .. . ... : ... .. . ... : ... .. . ...
ROW 76 : ... .. . ... ... ... ... : ... .. . ... ... ... ... : ... .. . ... : ... .. . ... : ... .. . ...
ROW 77 : ... .. . ... ... ... ... : ... .. . ... ... ... ... : ... .. . ... : ... .. . ... : ... .. . ...
ROW 78 : ... .. . ... ... ... ... : ... .. . ... ... ... ... : ... .. . ... : ... .. . ... : ... .. . ...
ROW 79 : ... .. . ... ... ... ... : ... .. . ... ... ... ... : ... .. . ... : ... .. . ... : ... .. . ...
ROW 7A : ... .. . ... ... ... ... : ... .. . ... ... ... ... : ... .. . ... : ... .. . ... : ... .. . ...
ROW 7B : ... .. . ... ... ... ... : ... .. . ... ... ... ... : ... .. . ... : ... .. . ... : ... .. . ...
ROW 7C : ... .. . ... ... ... ... : ... .. 2 ... ... ... ... : ... .. . ... : ... .. . ... : ... .. . ...
ROW 7D : ... .. . ... ... ... ... : ... .. . ... ... ... ... : ... .. . ... : ... .. . ... : ... .. . ...
ROW 7E : ... .. . ... ... ... P81 : A-2 00 1 ... ... ... ... : ... .. . ... : E-# 00 4 ... : ... .. . ...
ROW 7F : ... .. . ... ... ... ... : ... .. 2 ... ... ... ... : ... .. . ... : ... .. 3 ... : ... .. . ...
ROW 80 : ... .. . ... ... ... ... : ... .. 3 ... ... ... ... : ... .. . ... : ... .. 2 ... : ... .. . ...
ROW 81 : ... .. . ... ... ... P80 : ... .. 4 ... ... ... ... : ... .. . ... : ... .. 1 ... : ... .. . ...
ROW 82 : ... .. . ... ... ... ... : ... .. 5 ... ... ... ... : ... .. . ... : ... .. 0 ... : ... .. . ...
ROW 83 : ... .. . ... ... ... ... : ... .. 6 ... ... ... ... : ... .. . ... : ... .. . ... : ... .. . ...
ROW 84 : ... .. . ... ... ... P7F : ... .. . ... ... ... ... : ... .. . ... : ... .. . ... : ... .. . ...
ROW 85 : ... .. 4 ... ... ... ... : ... .. . ... ... ... ... : ... .. . ... : E-# 00 4 ... : ... .. . ...
ROW 86 : ... .. . ... ... ... ... : ... .. . ... ... ... ... : ... .. . ... : ... .. 3 ... : ... .. . ...
ROW 87 : ... .. 3 ... ... ... P80 : ... .. . ... ... ... ... : ... .. . ... : ... .. 2 ... : ... .. . ...
ROW 88 : ... .. . ... ... ... ... : ... .. . ... ... ... ... : ... .. . ... : ... .. 1 ... : ... .. . ...
ROW 89 : ... .. 2 ... ... ... ... : ... .. . ... ... ... ... : ... .. . ... : ... .. 0 ... : ... .. . ...
ROW 8A : ... .. . ... ... ... P81 : F-2 00 2 ... ... ... ... : ... .. . ... : ... .. . ... : ... .. . ...
ROW 8B : ... .. 1 ... ... ... ... : ... .. . ... ... ... ... : ... .. . ... : ... .. . ... : ... .. . ...
ROW 8C : A-3 00 7 V00 ... ... P80 : C-3 00 1 ... ... ... ... : ... .. . ... : 8-# 00 4 ... : ... .. . ...
ROW 8D : ... .. . ... ... ... ... : ... .. 2 ... ... ... ... : ... .. . ... : ... .. . ... : ... .. . ...
ROW 8E : ... .. 6 V02 ... ... ... : ... .. 3 ... ... ... ... : ... .. . ... : ... .. . ... : ... .. . ...
ROW 8F : ... .. . ... ... ... ... : ... .. 4 ... ... ... ... : ... .. . ... : ... .. 3 ... : ... .. . ...
ROW 90 : ... .. 5 ... ... ... ... : ... .. 5 ... ... ... ... : ... .. . ... : ... .. . ... : ... .. . ...
ROW 91 : ... .. . ... ... ... ... : ... .. 6 ... ... ... ... : ... .. . ... : ... .. . ... : ... .. . ...
ROW 92 : ... .. . ... ... ... ... : ... .. . ... ... ... ... : ... .. . ... : ... .. 2 ... : ... .. . ...
ROW 93 : ... .. . ... ... ... ... : ... .. . ... ... ... ... : ... .. . ... : ... .. . ... : ... .. . ...
ROW 94 : ... .. . ... ... ... ... : ... .. . ... ... ... ... : ... .. . ... : ... .. . ... : ... .. . ...
ROW 95 : ... .. . ... ... ... ... : ... .. . ... ... ... ... : ... .. . ... : ... .. 1 ... : ... .. . ...
ROW 96 : ... .. . ... ... ... ... : ... .. . ... ... ... ... : ... .. . ... : ... .. . ... : ... .. . ...
ROW 97 : ... .. . ... ... ... ... : ... .. . ... ... ... ... : ... .. . ... : ... .. . ... : ... .. . ...
ROW 98 : ... .. . ... ... ... ... : A-2 00 2 ... ... ... ... : --- .. . ... : ... .. 0 ... : ... .. . ...
ROW 99 : ... .. . ... ... ... ... : ... .. . ... ... ... ... : ... .. . ... : ... .. . ... : ... .. . ...
ROW 9A : ... .. . ... ... ... P81 : D-3 00 1 ... ... ... ... : G-3 00 . ... : E-# 00 4 ... : ... .. . ...
ROW 9B : ... .. . ... ... ... ... : ... .. 2 ... ... ... ... : ... .. . ... : ... .. 3 ... : ... .. . ...
ROW 9C : ... .. . ... ... ... ... : E-3 00 3 ... ... ... ... : ... .. . ... : ... .. 2 ... : ... .. . ...
ROW 9D : ... .. . ... ... ... P80 : ... .. 4 ... ... ... ... : ... .. . ... : ... .. 1 ... : ... .. . ...
ROW 9E : ... .. . ... ... ... ... : ... .. 5 ... ... ... ... : ... .. . ... : ... .. 0 ... : ... .. . ...
ROW 9F : ... .. . ... ... ... ... : ... .. 6 ... ... ... ... : --- .. . ... : ... .. . ... : ... .. . ...
ROW A0 : ... .. . ... ... ... P7F : ... .. . ... ... ... ... : ... .. . ... : ... .. . ... : ... .. . ...
ROW A1 : ... .. 4 ... ... ... ... : ... .. . ... ... ... ... : G-3 00 . ... : E-# 00 4 ... : ... .. . ...
ROW A2 : ... .. . ... ... ... ... : ... .. . ... ... ... ... : ... .. . ... : ... .. 3 ... : ... .. . ...
ROW A3 : ... .. 3 ... ... ... P80 : ... .. . ... ... ... ... : ... .. . ... : ... .. 2 ... : ... .. . ...
ROW A4 : ... .. . ... ... ... ... : ... .. . ... ... ... ... : ... .. . ... : ... .. 1 ... : ... .. . ...
ROW A5 : ... .. 2 ... ... ... ... : ... .. . ... ... ... ... : ... .. . ... : ... .. 0 ... : ... .. . ...
ROW A6 : ... .. . ... ... ... P81 : C-3 00 2 ... ... ... ... : --- .. . ... : ... .. . ... : ... .. . ...
ROW A7 : ... .. 1 ... ... ... ... : ... .. . ... ... ... ... : ... .. . ... : ... .. . ... : ... .. . ...
ROW A8 : D-4 00 7 V00 ... ... P80 : B-2 00 1 ... ... ... ... : G-3 00 . ... : 2-# 00 4 ... : ... .. . ...
ROW A9 : ... .. . ... ... ... ... : ... .. 2 ... ... ... ... : ... .. . ... : ... .. 3 ... : ... .. . ...
ROW AA : ... .. 6 V02 ... ... ... : ... .. 3 ... ... ... ... : ... .. . ... : ... .. 2 ... : ... .. . ...
ROW AB : ... .. . ... ... ... ... : ... .. 4 ... ... ... ... : ... .. . ... : ... .. 1 ... : ... .. . ...
ROW AC : ... .. 5 ... ... ... ... : ... .. 5 ... ... ... ... : ... .. . ... : ... .. 0 ... : ... .. . ...
ROW AD : ... .. . ... ... ... ... : ... .. 6 ... ... ... ... : ... .. . ... : ... .. . ... : ... .. . ...
ROW AE : ... .. . ... ... ... ... : ... .. . ... ... ... ... : ... .. . ... : ... .. . ... : ... .. . ...
ROW AF : ... .. . ... ... ... ... : ... .. . ... ... ... ... : ... .. . ... : ... .. . ... : ... .. . ...
ROW B0 : ... .. . ... ... ... ... : ... .. . ... ... ... ... : ... .. . ... : ... .. . ... : ... .. . ...
ROW B1 : ... .. . ... ... ... ... : ... .. . ... ... ... ... : ... .. . ... : ... .. . ... : ... .. . ...
ROW B2 : ... .. . ... ... ... ... : ... .. . ... ... ... ... : ... .. . ... : ... .. . ... : ... .. . ...
ROW B3 : ... .. . ... ... ... ... : ... .. . ... ... ... ... : ... .. . ... : ... .. . ... : ... .. . ...
ROW B4 : ... .. . ... ... ... ... : ... .. . ... ... ... ... : ... .. . ... : ... .. . ... : ... .. . ...
ROW B5 : ... .. . ... ... ... ... : ... .. . ... ... ... ... : ... .. . ... : ... .. . ... : ... .. . ...
ROW B6 : ... .. . ... ... ... ... : ... .. . ... ... ... ... : --- .. . ... : E-# 00 4 ... : ... .. . ...
ROW B7 : ... .. . ... ... ... ... : ... .. . ... ... ... ... : ... .. . ... : ... .. 3 ... : ... .. . ...
ROW B8 : ... .. . ... ... ... ... : ... .. . ... ... ... ... : ... .. . ... : ... .. 2 ... : ... .. . ...
ROW B9 : ... .. . ... ... ... ... : ... .. . ... ... ... ... : ... .. . ... : ... .. 1 ... : ... .. . ...
ROW BA : ... .. . ... ... ... ... : ... .. . ... ... ... ... : ... .. . ... : ... .. 0 ... : ... .. . ...
ROW BB : ... .. . ... ... ... ... : ... .. . ... ... ... ... : ... .. . ... : ... .. . ... : ... .. . ...
ROW BC : ... .. . ... ... ... ... : ... .. . ... ... ... ... : ... .. . ... : ... .. . ... : ... .. . ...
ROW BD : ... .. . ... ... ... ... : ... .. . ... ... ... ... : ... .. . ... : E-# 00 4 ... : ... .. . ...
ROW BE : ... .. . ... ... ... ... : ... .. . ... ... ... ... : ... .. . ... : ... .. 3 ... : ... .. . ...
ROW BF : ... .. . ... ... ... ... : ... .. . ... ... ... ... : ... .. . ... : ... .. 2 ... : ... .. . ...
ROW C0 : ... .. . ... ... ... P81 : ... .. . ... ... ... ... : ... .. . ... : ... .. 1 ... : ... .. . ...
ROW C1 : ... .. . ... ... ... ... : ... .. . ... ... ... ... : ... .. . ... : ... .. 0 ... : ... .. . ...
ROW C2 : ... .. . ... ... ... ... : ... .. . ... ... ... ... : ... .. . ... : ... .. . ... : ... .. . ...
ROW C3 : ... .. . ... ... ... P80 : ... .. . ... ... ... ... : --- .. . ... : ... .. . ... : ... .. . ...
ROW C4 : ... .. . ... ... ... ... : G-1 00 5 V00 ... ... P82 : G-3 00 . ... : 8-# 00 4 ... : ... .. . ...
ROW C5 : ... .. . ... ... ... ... : ... .. . ... ... ... ... : ... .. . ... : ... .. . ... : ... .. . ...
ROW C6 : ... .. . ... ... ... P7F : ... .. . ... ... ... ... : ... .. . ... : ... .. . ... : ... .. . ...
ROW C7 : ... .. . ... ... ... ... : ... .. . ... ... ... ... : ... .. . ... : ... .. 3 ... : ... .. . ...
ROW C8 : ... .. . ... ... ... ... : ... .. . ... ... ... ... : ... .. . ... : ... .. . ... : ... .. . ...
ROW C9 : ... .. . ... ... ... P80 : ... .. . ... ... ... ... : ... .. . ... : ... .. . ... : ... .. . ...
ROW CA : ... .. . ... ... ... ... : ... .. . ... ... ... ... : ... .. . ... : ... .. 2 ... : ... .. . ...
ROW CB : ... .. . ... ... ... ... : ... .. . ... ... ... ... : ... .. . ... : ... .. . ... : ... .. . ...
ROW CC : ... .. . ... ... ... P81 : ... .. . ... ... ... ... : ... .. . ... : ... .. . ... : ... .. . ...
ROW CD : ... .. . ... ... ... ... : ... .. . ... ... ... ... : ... .. . ... : ... .. 1 ... : ... .. . ...
ROW CE : ... .. . ... ... ... ... : ... .. . ... ... ... ... : ... .. . ... : ... .. . ... : ... .. . ...
ROW CF : ... .. . ... ... ... P80 : ... .. . ... ... ... ... : ... .. . ... : ... .. . ... : ... .. . ...
ROW D0 : ... .. . ... ... ... ... : ... .. . ... ... ... ... : ... .. . ... : ... .. 0 ... : ... .. . ...
ROW D1 : ... .. . ... ... ... ... : ... .. . ... ... ... ... : ... .. . ... : ... .. . ... : ... .. . ...
ROW D2 : ... .. . ... ... ... P7F : ... .. . ... ... ... ... : ... .. . ... : E-# 00 4 ... : ... .. . ...
ROW D3 : ... .. . ... ... ... ... : ... .. . ... ... ... ... : ... .. . ... : ... .. 3 ... : ... .. . ...
ROW D4 : ... .. . ... ... ... ... : ... .. . ... ... ... ... : ... .. . ... : ... .. 2 ... : ... .. . ...
ROW D5 : ... .. . ... ... ... P80 : ... .. . ... ... ... ... : ... .. . ... : ... .. 1 ... : ... .. . ...
ROW D6 : ... .. . ... ... ... ... : ... .. . ... ... ... ... : ... .. . ... : ... .. 0 ... : ... .. . ...
ROW D7 : ... .. . ... ... ... ... : ... .. . ... ... ... ... : ... .. . ... : ... .. . ... : ... .. . ...
ROW D8 : ... .. . ... ... ... P81 : ... .. . ... ... ... ... : ... .. . ... : ... .. . ... : ... .. . ...
ROW D9 : ... .. . ... ... ... ... : ... .. . ... ... ... ... : ... .. . ... : E-# 00 4 ... : ... .. . ...
ROW DA : ... .. . ... ... ... ... : ... .. . ... ... ... ... : ... .. . ... : ... .. 3 ... : ... .. . ...
ROW DB : ... .. . ... ... ... P80 : ... .. . ... ... ... ... : ... .. . ... : ... .. 2 ... : ... .. . ...
ROW DC : ... .. . ... ... ... ... : ... .. . ... ... ... ... : ... .. . ... : ... .. 1 ... : ... .. . ...
ROW DD : ... .. . ... ... ... ... : ... .. . ... ... ... ... : ... .. . ... : ... .. 0 ... : ... .. . ...
ROW DE : ... .. . ... ... ... P7F : ... .. . ... ... ... ... : ... .. . ... : ... .. . ... : ... .. . ...
ROW DF : ... .. . ... ... ... ... : ... .. . ... ... ... ... : ... .. . ... : ... .. . ... : ... .. . ...

PATTERN 37
ROW 00 : C-2 00 9 V02 ... ... P80 : --- .. . ... ... ... ... : --- .. . ... : 2-# 00 5 ... : ... .. . ...
ROW 01 : ... .. 8 ... ... ... ... : ... .. . ... ... ... ... : ... .. . ... : ... .. 3 ... : ... .. . ...
ROW 02 : ... .. 7 ... ... ... ... : ... .. . ... ... ... ... : ... .. . ... : ... .. 2 ... : ... .. . ...
ROW 03 : ... .. 6 ... ... ... ... : ... .. . ... ... ... ... : ... .. . ... : ... .. 1 ... : ... .. . ...
ROW 04 : ... .. 5 ... ... ... ... : ... .. . ... ... ... ... : ... .. . ... : ... .. 0 ... : ... .. . ...
ROW 05 : ... .. 4 ... ... ... ... : ... .. . ... ... ... ... : ... .. . ... : ... .. . ... : ... .. . ...
ROW 06 : ... .. 3 ... ... ... ... : ... .. . ... ... ... ... : ... .. . ... : ... .. . ... : ... .. . ...
ROW 07 : ... .. 2 ... ... ... ... : --- .. . ... ... ... ... : ... .. . ... : D-# 00 5 ... : ... .. . ...
ROW 08 : ... .. 1 ... ... ... ... : ... .. . ... ... ... ... : ... .. . ... : ... .. 3 ... : ... .. . ...
ROW 09 : ... .. . ... ... ... ... : ... .. . ... ... ... ... : ... .. . ... : ... .. 2 ... : ... .. . ...
ROW 0A : ... .. . ... ... ... ... : ... .. . ... ... ... ... : ... .. . ... : ... .. 1 ... : ... .. . ...
ROW 0B : ... .. . ... ... ... ... : ... .. . ... ... ... ... : ... .. . ... : ... .. 0 ... : ... .. . ...
ROW 0C : ... .. . ... ... ... ... : ... .. . ... ... ... ... : ... .. . ... : ... .. . ... : ... .. . ...
ROW 0D : ... .. . ... ... ... ... : ... .. . ... ... ... ... : ... .. . ... : ... .. . ... : ... .. . ...
ROW 0E : G-2 00 9 ... ... ... ... : ... .. . ... ... ... ... : E-4 00 . V02 : A-# 00 5 ... : ... .. . ...
ROW 0F : ... .. 8 ... ... ... ... : ... .. . ... ... ... ... : ... .. . ... : ... .. 3 ... : ... .. . ...
ROW 10 : ... .. 7 ... ... ... ... : ... .. . ... ... ... ... : ... .. . ... : ... .. 2 ... : ... .. . ...
ROW 11 : ... .. 6 ... ... ... ... : ... .. . ... ... ... ... : ... .. . ... : ... .. 1 ... : ... .. . ...
ROW 12 : ... .. 5 ... ... ... ... : ... .. . ... ... ... ... : ... .. . ... : ... .. 0 ... : ... .. . ...
ROW 13 : ... .. 4 ... ... ... ... : ... .. . ... ... ... ... : ... .. . ... : ... .. . ... : ... .. . ...
ROW 14 : ... .. 3 ... ... ... ... : ... .. . ... ... ... ... : ... .. . ... : ... .. . ... : ... .. . ...
ROW 15 : C-2 00 2 ... ... ... ... : ... .. . ... ... ... ... : ... .. . ... : D-# 00 5 ... : ... .. . ...
ROW 16 : ... .. 1 ... ... ... ... : ... .. . ... ... ... ... : ... .. . ... : ... .. 3 ... : ... .. . ...
ROW 17 : ... .. . ... ... ... ... : ... .. . ... ... ... ... : ... .. . ... : ... .. 2 ... : ... .. . ...
ROW 18 : ... .. . ... ... ... ... : ... .. . ... ... ... ... : ... .. . ... : ... .. 1 ... : ... .. . ...
ROW 19 : ... .. . ... ... ... ... : ... .. . ... ... ... ... : ... .. . ... : ... .. 0 ... : ... .. . ...
ROW 1A : ... .. . ... ... ... ... : ... .. . ... ... ... ... : ... .. . ... : ... .. . ... : ... .. . ...
ROW 1B : ... .. . ... ... ... ... : ... .. . ... ... ... ... : ... .. . ... : ... .. . ... : ... .. . ...
ROW 1C : C-3 00 9 ... ... ... ... : E-4 00 7 V01 ... ... P80 : F-4 00 . ... : 2-# 00 5 ... : ... .. . ...
ROW 1D : ... .. 8 ... ... ... ... : ... .. . ... ... ... ... : ... .. . ... : ... .. 3 ... : ... .. . ...
ROW 1E : ... .. 7 ... ... ... ... : C-4 00 6 ... ... ... ... : ... .. . ... : ... .. 2 ... : ... .. . ...
ROW 1F : ... .. 6 ... ... ... ... : ... .. . ... ... ... ... : ... .. . ... : ... .. 1 ... : ... .. . ...
ROW 20 : ... .. 5 ... ... ... ... : G-3 00 5 ... ... ... ... : ... .. . ... : ... .. 0 ... : ... .. . ...
ROW 21 : ... .. 4 ... ... ... ... : ... .. . ... ... ... ... : ... .. . ... : ... .. . ... : ... .. . ...
ROW 22 : ... .. 3 ... ... ... ... : C-3 00 4 ... ... ... ... : ... .. . ... : ... .. . ... : ... .. . ...
ROW 23 : G-2 00 2 ... ... ... ... : ... .. . ... ... ... ... : ... .. . ... : D-# 00 5 ... : ... .. . ...
ROW 24 : ... .. 1 ... ... ... ... : E-4 00 3 ... ... ... ... : ... .. . ... : ... .. 3 ... : ... .. . ...
ROW 25 : ... .. . ... ... ... ... : ... .. . ... ... ... ... : ... .. . ... : ... .. 2 ... : ... .. . ...
ROW 26 : ... .. . ... ... ... ... : C-4 00 2 ... ... ... ... : ... .. . ... : ... .. 1 ... : ... .. . ...
ROW 27 : ... .. . ... ... ... ... : ... .. . ... ... ... ... : ... .. . ... : ... .. 0 ... : ... .. . ...
ROW 28 : ... .. . ... ... ... ... : G-3 00 1 ... ... ... ... : ... .. . ... : ... .. . ... : ... .. . ...
ROW 29 : ... .. . ... ... ... ... : ... .. . ... ... ... ... : ... .. . ... : ... .. . ... : ... .. . ...
ROW 2A : G-2 00 9 ... ... ... ... : F-3 00 3 V02 ... ... P7F : G-4 00 . ... : 2-# 00 5 ... : ... .. . ...
ROW 2B : ... .. 8 ... ... ... ... : ... .. . ... ... ... ... : G#4 00 . ... : ... .. 3 ... : ... .. . ...
ROW 2C : ... .. 7 ... ... ... ... : ... .. . ... ... ... ... : A-4 00 . ... : ... .. 2 ... : ... .. . ...
ROW 2D : ... .. 6 ... ... ... ... : ... .. . ... ... ... ... : ... .. . ... : ... .. 1 ... : ... .. . ...
ROW 2E : ... .. 5 ... ... ... ... : ... .. . ... ... ... ... : ... .. . ... : ... .. 0 ... : ... .. . ...
ROW 2F : ... .. 4 ... ... ... ... : ... .. . ... ... ... ... : ... .. . ... : ... .. . ... : ... .. . ...
ROW 30 : ... .. 3 ... ... ... ... : ... .. . ... ... ... ... : ... .. . ... : ... .. . ... : ... .. . ...
ROW 31 : D-3 00 9 ... ... ... ... : ... .. 2 ... ... ... ... : ... .. . ... : 2-# 00 5 ... : ... .. . ...
ROW 32 : ... .. 8 ... ... ... ... : ... .. . ... ... ... ... : ... .. . ... : ... .. 3 ... : ... .. . ...
ROW 33 : ... .. 7 ... ... ... ... : ... .. . ... ... ... ... : ... .. . ... : ... .. 2 ... : ... .. . ...
ROW 34 : ... .. 6 ... ... ... ... : ... .. . ... ... ... ... : ... .. . ... : ... .. 1 ... : ... .. . ...
ROW 35 : ... .. 5 ... ... ... ... : ... .. . ... ... ... ... : ... .. . ... : ... .. 0 ... : ... .. . ...
ROW 36 : ... .. 4 ... ... ... ... : ... .. . ... ... ... ... : ... .. . ... : ... .. . ... : ... .. . ...
ROW 37 : ... .. 3 ... ... ... ... : ... .. . ... ... ... ... : ... .. . ... : ... .. . ... : ... .. . ...
ROW 38 : ... .. 2 ... ... ... ... : G-3 00 3 ... ... ... ... : G-4 00 . ... : D-# 00 5 ... : ... .. . ...
ROW 39 : ... .. 1 ... ... ... ... : G#3 00 . ... ... ... ... : ... .. . ... : ... .. 3 ... : ... .. . ...
ROW 3A : ... .. . ... ... ... ... : A-3 00 . ... ... ... ... : ... .. . ... : ... .. 2 ... : ... .. . ...
ROW 3B : ... .. . ... ... ... ... : ... .. . ... ... ... ... : ... .. . ... : ... .. 1 ... : ... .. . ...
ROW 3C : ... .. . ... ... ... ... : ... .. . ... ... ... ... : ... .. . ... : ... .. 0 ... : ... .. . ...
ROW 3D : ... .. . ... ... ... ... : ... .. . ... ... ... ... : ... .. . ... : ... .. . ... : ... .. . ...
ROW 3E : ... .. . ... ... ... ... : ... .. . ... ... ... ... : ... .. . ... : ... .. . ... : ... .. . ...
ROW 3F : D-3 00 2 ... ... ... ... : ... .. 2 ... ... ... ... : ... .. . ... : D-# 00 5 ... : ... .. . ...
ROW 40 : ... .. 1 ... ... ... ... : ... .. . ... ... ... ... : ... .. . ... : ... .. 3 ... : ... .. . ...
ROW 41 : ... .. . ... ... ... ... : ... .. . ... ... ... ... : ... .. . ... : ... .. 2 ... : ... .. . ...
ROW 42 : ... .. . ... ... ... ... : ... .. . ... ... ... ... : ... .. . ... : ... .. 1 ... : ... .. . ...
ROW 43 : ... .. . ... ... ... ... : ... .. . ... ... ... ... : ... .. . ... : ... .. 0 ... : ... .. . ...
ROW 44 : ... .. . ... ... ... ... : ... .. . ... ... ... ... : ... .. . ... : ... .. . ... : ... .. . ...
ROW 45 : ... .. . ... ... ... ... : ... .. . ... ... ... ... : ... .. . ... : ... .. . ... : ... .. . ...
ROW 46 : G-2 00 9 ... ... ... ... : G-3 00 3 ... ... ... ... : E-4 00 . ... : 2-# 00 5 ... : ... .. . ...
ROW 47 : ... .. 8 ... ... ... ... : ... .. . ... ... ... ... : ... .. . ... : ... .. 3 ... : ... .. . ...
ROW 48 : ... .. 7 ... ... ... ... : ... .. . ... ... ... ... : ... .. . ... : ... .. 2 ... : ... .. . ...
ROW 49 : ... .. 6 ... ... ... ... : ... .. . ... ... ... ... : ... .. . ... : ... .. 1 ... : ... .. . ...
ROW 4A : ... .. 5 ... ... ... ... : ... .. . ... ... ... ... : ... .. . ... : ... .. 0 ... : ... .. . ...
ROW 4B : ... .. 4 ... ... ... ... : ... .. . ... ... ... ... : ... .. . ... : ... .. . ... : ... .. . ...
ROW 4C : ... .. 3 ... ... ... ... : ... .. . ... ... ... ... : ... .. . ... : ... .. . ... : ... .. . ...
ROW 4D : E-3 00 2 ... ... ... ... : ... .. 2 ... ... ... ... : ... .. . ... : D-# 00 5 ... : ... .. . ...
ROW 4E : ... .. 1 ... ... ... ... : ... .. . ... ... ... ... : ... .. . ... : ... .. 3 ... : ... .. . ...
ROW 4F : ... .. . ... ... ... ... : ... .. . ... ... ... ... : ... .. . ... : ... .. 2 ... : ... .. . ...
ROW 50 : ... .. . ... ... ... ... : ... .. . ... ... ... ... : ... .. . ... : ... .. 1 ... : ... .. . ...
ROW 51 : ... .. . ... ... ... ... : ... .. . ... ... ... ... : ... .. . ... : ... .. 0 ... : ... .. . ...
ROW 52 : ... .. . ... ... ... ... : ... .. . ... ... ... ... : ... .. . ... : ... .. . ... : ... .. . ...
ROW 53 : ... .. . ... ... ... ... : ... .. . ... ... ... ... : ... .. . ... : ... .. . ... : ... .. . ...
ROW 54 : D-3 00 9 ... ... ... ... : F-4 00 7 V01 ... ... P80 : F-4 00 . ... : 7-# 00 5 ... : ... .. . ...
ROW 55 : ... .. 8 ... ... ... ... : ... .. . ... ... ... ... : ... .. . ... : ... .. 3 ... : ... .. . ...
ROW 56 : ... .. 7 ... ... ... ... : C-4 00 6 ... ... ... ... : ... .. . ... : ... .. 2 ... : ... .. . ...
ROW 57 : ... .. 6 ... ... ... ... : ... .. . ... ... ... ... : ... .. . ... : ... .. 1 ... : ... .. . ...
ROW 58 : ... .. 5 ... ... ... ... : A-3 00 5 ... ... ... ... : ... .. . ... : ... .. 0 ... : ... .. . ...
ROW 59 : ... .. 4 ... ... ... ... : ... .. . ... ... ... ... : ... .. . ... : ... .. . ... : ... .. . ...
ROW 5A : ... .. 3 ... ... ... ... : C-3 00 4 ... ... ... ... : ... .. . ... : ... .. . ... : ... .. . ...
ROW 5B : E-3 00 2 ... ... ... ... : ... .. . ... ... ... ... : ... .. . ... : D-# 00 5 ... : ... .. . ...
ROW 5C : ... .. 1 ... ... ... ... : F-4 00 3 ... ... ... ... : ... .. . ... : ... .. 3 ... : ... .. . ...
ROW 5D : ... .. . ... ... ... ... : ... .. . ... ... ... ... : ... .. . ... : ... .. 2 ... : ... .. . ...
ROW 5E : ... .. . ... ... ... ... : C-4 00 2 ... ... ... ... : ... .. . ... : ... .. 1 ... : ... .. . ...
ROW 5F : ... .. . ... ... ... ... : ... .. . ... ... ... ... : ... .. . ... : ... .. 0 ... : ... .. . ...
ROW 60 : ... .. . ... ... ... ... : A-3 00 1 ... ... ... ... : ... .. . ... : ... .. . ... : ... .. . ...
ROW 61 : ... .. . ... ... ... ... : ... .. . ... ... ... ... : ... .. . ... : ... .. . ... : ... .. . ...
ROW 62 : G-2 00 9 ... ... ... ... : F-3 00 3 V02 ... ... P7F : D-4 00 . ... : D-# 00 5 ... : ... .. . ...
ROW 63 : ... .. 8 ... ... ... ... : ... .. . ... ... ... ... : ... .. . ... : ... .. 3 ... : ... .. . ...
ROW 64 : ... .. 7 ... ... ... ... : ... .. . ... ... ... ... : ... .. . ... : ... .. 2 ... : ... .. . ...
ROW 65 : ... .. 6 ... ... ... ... : ... .. . ... ... ... ... : ... .. . ... : ... .. 1 ... : ... .. . ...
ROW 66 : ... .. 5 ... ... ... ... : ... .. . ... ... ... ... : ... .. . ... : ... .. 0 ... : ... .. . ...
ROW 67 : ... .. 4 ... ... ... ... : ... .. . ... ... ... ... : ... .. . ... : ... .. . ... : ... .. . ...
ROW 68 : ... .. 3 ... ... ... ... : ... .. . ... ... ... ... : ... .. . ... : ... .. . ... : ... .. . ...
ROW 69 : ... .. 2 ... ... ... ... : ... .. 2 ... ... ... ... : ... .. . ... : D-# 00 5 ... : ... .. . ...
ROW 6A : ... .. 1 ... ... ... ... : ... .. . ... ... ... ... : ... .. . ... : ... .. 3 ... : ... .. . ...
ROW 6B : ... .. . ... ... ... ... : ... .. . ... ... ... ... : ... .. . ... : ... .. 2 ... : ... .. . ...
ROW 6C : ... .. . ... ... ... ... : ... .. . ... ... ... ... : ... .. . ... : ... .. 1 ... : ... .. . ...
ROW 6D : ... .. . ... ... ... ... : ... .. . ... ... ... ... : ... .. . ... : ... .. 0 ... : ... .. . ...
ROW 6E : ... .. . ... ... ... ... : ... .. . ... ... ... ... : ... .. . ... : ... .. . ... : ... .. . ...
ROW 6F : ... .. . ... ... ... ... : ... .. . ... ... ... ... : ... .. . ... : ... .. . ... : ... .. . ...
ROW 70 : C-3 00 9 V02 ... ... ... : D-3 00 3 ... ... ... ... : D-4 00 . ... : 2-# 00 5 ... : ... .. . ...
ROW 71 : ... .. 8 ... ... ... ... : ... .. . ... ... ... ... : D#4 00 . ... : ... .. 3 ... : ... .. . ...
ROW 72 : ... .. 7 ... ... ... ... : ... .. . ... ... ... ... : E-4 00 . ... : ... .. 2 ... : ... .. . ...
ROW 73 : ... .. 6 ... ... ... ... : ... .. . ... ... ... ... : ... .. . ... : ... .. 1 ... : ... .. . ...
ROW 74 : ... .. 5 ... ... ... ... : ... .. . ... ... ... ... : ... .. . ... : ... .. 0 ... : ... .. . ...
ROW 75 : ... .. 4 ... ... ... ... : ... .. . ... ... ... ... : ... .. . ... : ... .. . ... : ... .. . ...
ROW 76 : ... .. 3 ... ... ... ... : ... .. . ... ... ... ... : ... .. . ... : ... .. . ... : ... .. . ...
ROW 77 : G-2 00 2 ... ... ... ... : ... .. 2 ... ... ... ... : ... .. . ... : D-# 00 5 ... : ... .. . ...
ROW 78 : ... .. 1 ... ... ... ... : ... .. . ... ... ... ... : ... .. . ... : ... .. 3 ... : ... .. . ...
ROW 79 : ... .. . ... ... ... ... : ... .. . ... ... ... ... : ... .. . ... : ... .. 2 ... : ... .. . ...
ROW 7A : ... .. . ... ... ... ... : ... .. . ... ... ... ... : ... .. . ... : ... .. 1 ... : ... .. . ...
ROW 7B : ... .. . ... ... ... ... : ... .. . ... ... ... ... : ... .. . ... : ... .. 0 ... : ... .. . ...
ROW 7C : ... .. . ... ... ... ... : ... .. . ... ... ... ... : ... .. . ... : ... .. . ... : ... .. . ...
ROW 7D : ... .. . ... ... ... ... : ... .. . ... ... ... ... : ... .. . ... : ... .. . ... : ... .. . ...
ROW 7E : G-2 00 9 ... ... ... ... : D-3 00 3 ... ... ... ... : ... .. . ... : A-# 00 5 ... : ... .. . ...
ROW 7F : ... .. 8 ... ... ... ... : D#3 00 . ... ... ... ... : ... .. . ... : ... .. 3 ... : ... .. . ...
ROW 80 : ... .. 7 ... ... ... ... : E-3 00 . ... ... ... ... : ... .. . ... : ... .. 2 ... : ... .. . ...
ROW 81 : ... .. 6 ... ... ... ... : ... .. . ... ... ... ... : ... .. . ... : ... .. 1 ... : ... .. . ...
ROW 82 : ... .. 5 ... ... ... ... : ... .. . ... ... ... ... : ... .. . ... : ... .. 0 ... : ... .. . ...
ROW 83 : ... .. 4 ... ... ... ... : ... .. . ... ... ... ... : ... .. . ... : ... .. . ... : ... .. . ...
ROW 84 : ... .. 3 ... ... ... ... : ... .. . ... ... ... ... : ... .. . ... : ... .. . ... : ... .. . ...
ROW 85 : C-3 00 2 ... ... ... ... : ... .. 2 ... ... ... ... : ... .. . ... : D-# 00 5 ... : ... .. . ...
ROW 86 : ... .. 1 ... ... ... ... : ... .. . ... ... ... ... : ... .. . ... : ... .. 3 ... : ... .. . ...
ROW 87 : ... .. . ... ... ... ... : ... .. . ... ... ... ... : ... .. . ... : ... .. 2 ... : ... .. . ...
ROW 88 : ... .. . ... ... ... ... : ... .. . ... ... ... ... : ... .. . ... : ... .. 1 ... : ... .. . ...
ROW 89 : ... .. . ... ... ... ... : ... .. . ... ... ... ... : ... .. . ... : ... .. 0 ... : ... .. . ...
ROW 8A : ... .. . ... ... ... ... : ... .. . ... ... ... ... : ... .. . ... : ... .. . ... : ... .. . ...
ROW 8B : ... .. . ... ... ... ... : ... .. . ... ... ... ... : ... .. . ... : ... .. . ... : ... .. . ...
ROW 8C : E-3 00 9 ... ... ... ... : D-4 00 7 V01 ... ... P80 : G-4 00 . ... : 2-# 00 5 ... : ... .. . ...
ROW 8D : ... .. 8 ... ... ... ... : ... .. . ... ... ... ... : ... .. . ... : ... .. 3 ... : ... .. . ...
ROW 8E : ... .. 7 ... ... ... ... : B-3 00 6 ... ... ... ... : ... .. . ... : ... .. 2 ... : ... .. . ...
ROW 8F : ... .. 6 ... ... ... ... : ... .. . ... ... ... ... : ... .. . ... : ... .. 1 ... : ... .. . ...
ROW 90 : ... .. 5 ... ... ... ... : G-3 00 5 ... ... ... ... : ... .. . ... : ... .. 0 ... : ... .. . ...
ROW 91 : ... .. 4 ... ... ... ... : ... .. . ... ... ... ... : ... .. . ... : ... .. . ... : ... .. . ...
ROW 92 : ... .. 3 ... ... ... ... : C-3 00 4 ... ... ... ... : ... .. . ... : ... .. . ... : ... .. . ...
ROW 93 : G-2 00 2 ... ... ... ... : ... .. . ... ... ... ... : ... .. . ... : D-# 00 5 ... : ... .. . ...
ROW 94 : ... .. 1 ... ... ... ... : D-4 00 3 ... ... ... ... : ... .. . ... : ... .. 3 ... : ... .. . ...
ROW 95 : ... .. . ... ... ... ... : ... .. . ... ... ... ... : ... .. . ... : ... .. 2 ... : ... .. . ...
ROW 96 : ... .. . ... ... ... ... : B-3 00 2 ... ... ... ... : ... .. . ... : ... .. 1 ... : ... .. . ...
ROW 97 : ... .. . ... ... ... ... : ... .. . ... ... ... ... : ... .. . ... : ... .. 0 ... : ... .. . ...
ROW 98 : ... .. . ... ... ... ... : G-3 00 1 ... ... ... ... : ... .. . ... : ... .. . ... : ... .. . ...
ROW 99 : ... .. . ... ... ... ... : ... .. . ... ... ... ... : ... .. . ... : ... .. . ... : ... .. . ...
ROW 9A : G-2 00 9 ... ... ... ... : G-3 00 3 V02 ... ... P7F : ... .. . ... : 2-# 00 5 ... : ... .. . ...
ROW 9B : ... .. 8 ... ... ... ... : ... .. . ... ... ... ... : ... .. . ... : ... .. 3 ... : ... .. . ...
ROW 9C : ... .. 7 ... ... ... ... : ... .. . ... ... ... ... : ... .. . ... : ... .. 2 ... : ... .. . ...
ROW 9D : ... .. 6 ... ... ... ... : ... .. . ... ... ... ... : ... .. . ... : ... .. 1 ... : ... .. . ...
ROW 9E : ... .. 5 ... ... ... ... : ... .. . ... ... ... ... : ... .. . ... : ... .. 0 ... : ... .. . ...
ROW 9F : ... .. 4 ... ... ... ... : ... .. . ... ... ... ... : ... .. . ... : ... .. . ... : ... .. . ...
ROW A0 : ... .. 3 ... ... ... ... : ... .. . ... ... ... ... : ... .. . ... : ... .. . ... : ... .. . ...
ROW A1 : B-2 00 9 ... ... ... ... : ... .. 2 ... ... ... ... : ... .. . ... : 2-# 00 5 ... : ... .. . ...
ROW A2 : ... .. 8 ... ... ... ... : ... .. . ... ... ... ... : ... .. . ... : ... .. 3 ... : ... .. . ...
ROW A3 : ... .. 7 ... ... ... ... : ... .. . ... ... ... ... : ... .. . ... : ... .. 2 ... : ... .. . ...
ROW A4 : ... .. 6 ... ... ... ... : ... .. . ... ... ... ... : ... .. . ... : ... .. 1 ... : ... .. . ...
ROW A5 : ... .. 5 ... ... ... ... : ... .. . ... ... ... ... : ... .. . ... : ... .. 0 ... : ... .. . ...
ROW A6 : ... .. 4 ... ... ... ... : ... .. . ... ... ... ... : ... .. . ... : ... .. . ... : ... .. . ...
ROW A7 : ... .. 3 ... ... ... ... : ... .. . ... ... ... ... : ... .. . ... : ... .. . ... : ... .. . ...
ROW A8 : ... .. 2 ... ... ... ... : ... .. . ... ... ... ... : D-4 00 . ... : D-# 00 5 ... : ... .. . ...
ROW A9 : ... .. 1 ... ... ... ... : ... .. . ... ... ... ... : D#4 00 . ... : ... .. 3 ... : ... .. . ...
ROW AA : ... .. . ... ... ... ... : ... .. . ... ... ... ... : E-4 00 . ... : ... .. 2 ... : ... .. . ...
ROW AB : ... .. . ... ... ... ... : ... .. . ... ... ... ... : ... .. . ... : ... .. 1 ... : ... .. . ...
ROW AC : ... .. . ... ... ... ... : ... .. . ... ... ... ... : ... .. . ... : ... .. 0 ... : ... .. . ...
ROW AD : ... .. . ... ... ... ... : ... .. . ... ... ... ... : ... .. . ... : ... .. . ... : ... .. . ...
ROW AE : ... .. . ... ... ... ... : ... .. . ... ... ... ... : ... .. . ... : ... .. . ... : ... .. . ...
ROW AF : G-2 00 2 ... ... ... ... : ... .. . ... ... ... ... : ... .. . ... : D-# 00 5 ... : ... .. . ...
ROW B0 : ... .. 1 ... ... ... ... : ... .. . ... ... ... ... : ... .. . ... : ... .. 3 ... : ... .. . ...
ROW B1 : ... .. . ... ... ... ... : ... .. . ... ... ... ... : ... .. . ... : ... .. 2 ... : ... .. . ...
ROW B2 : ... .. . ... ... ... ... : ... .. . ... ... ... ... : ... .. . ... : ... .. 1 ... : ... .. . ...
ROW B3 : ... .. . ... ... ... ... : ... .. . ... ... ... ... : ... .. . ... : ... .. 0 ... : ... .. . ...
ROW B4 : ... .. . ... ... ... ... : ... .. . ... ... ... ... : ... .. . ... : ... .. . ... : ... .. . ...
ROW B5 : ... .. . ... ... ... ... : ... .. . ... ... ... ... : ... .. . ... : ... .. . ... : ... .. . ...
ROW B6 : G-2 00 9 ... ... ... ... : D-3 00 3 ... ... ... ... : ... .. . ... : 2-# 00 5 ... : ... .. . ...
ROW B7 : ... .. 8 ... ... ... ... : D#3 00 . ... ... ... ... : ... .. . ... : ... .. 3 ... : ... .. . ...
ROW B8 : ... .. 7 ... ... ... ... : E-3 00 . ... ... ... ... : ... .. . ... : ... .. 2 ... : ... .. . ...
ROW B9 : ... .. 6 ... ... ... ... : ... .. . ... ... ... ... : ... .. . ... : ... .. 1 ... : ... .. . ...
ROW BA : ... .. 5 ... ... ... ... : ... .. . ... ... ... ... : ... .. . ... : ... .. 0 ... : ... .. . ...
ROW BB : ... .. 4 ... ... ... ... : ... .. . ... ... ... ... : ... .. . ... : ... .. . ... : ... .. . ...
ROW BC : ... .. 3 ... ... ... ... : ... .. . ... ... ... ... : ... .. . ... : ... .. . ... : ... .. . ...
ROW BD : B-2 00 2 ... ... ... ... : ... .. 2 ... ... ... ... : ... .. . ... : D-# 00 5 ... : ... .. . ...
ROW BE : ... .. 1 ... ... ... ... : ... .. . ... ... ... ... : ... .. . ... : ... .. 3 ... : ... .. . ...
ROW BF : ... .. . ... ... ... ... : ... .. . ... ... ... ... : ... .. . ... : ... .. 2 ... : ... .. . ...
ROW C0 : ... .. . ... ... ... ... : ... .. . ... ... ... ... : ... .. . ... : ... .. 1 ... : ... .. . ...
ROW C1 : ... .. . ... ... ... ... : ... .. . ... ... ... ... : ... .. . ... : ... .. 0 ... : ... .. . ...
ROW C2 : ... .. . ... ... ... ... : ... .. . ... ... ... ... : ... .. . ... : ... .. . ... : ... .. . ...
ROW C3 : ... .. . ... ... ... ... : ... .. . ... ... ... ... : ... .. . ... : ... .. . ... : ... .. . ...
ROW C4 : C-3 00 9 ... ... ... ... : E-4 00 7 V01 ... ... P80 : G-4 00 . ... : 7-# 00 5 ... : ... .. . ...
ROW C5 : ... .. 8 ... ... ... ... : ... .. . ... ... ... ... : ... .. . ... : ... .. 3 ... : ... .. . ...
ROW C6 : ... .. 7 ... ... ... ... : C-4 00 6 ... ... ... ... : ... .. . ... : ... .. 2 ... : ... .. . ...
ROW C7 : ... .. 6 ... ... ... ... : ... .. . ... ... ... ... : ... .. . ... : ... .. 1 ... : ... .. . ...
ROW C8 : ... .. 5 ... ... ... ... : G-3 00 5 ... ... ... ... : ... .. . ... : ... .. 0 ... : ... .. . ...
ROW C9 : ... .. 4 ... ... ... ... : ... .. . ... ... ... ... : ... .. . ... : ... .. . ... : ... .. . ...
ROW CA : ... .. 3 ... ... ... ... : C-3 00 4 ... ... ... ... : ... .. . ... : ... .. . ... : ... .. . ...
ROW CB : G-2 00 2 ... ... ... ... : ... .. . ... ... ... ... : ... .. . ... : D-# 00 5 ... : ... .. . ...
ROW CC : ... .. 1 ... ... ... ... : E-4 00 3 ... ... ... ... : ... .. . ... : ... .. 3 ... : ... .. . ...
ROW CD : ... .. . ... ... ... ... : ... .. . ... ... ... ... : ... .. . ... : ... .. 2 ... : ... .. . ...
ROW CE : ... .. . ... ... ... ... : C-4 00 2 ... ... ... ... : ... .. . ... : ... .. 1 ... : ... .. . ...
ROW CF : ... .. . ... ... ... ... : ... .. . ... ... ... ... : ... .. . ... : ... .. 0 ... : ... .. . ...
ROW D0 : ... .. . ... ... ... ... : G-3 00 1 ... ... ... ... : ... .. . ... : ... .. . ... : ... .. . ...
ROW D1 : ... .. . ... ... ... ... : ... .. . ... ... ... ... : ... .. . ... : ... .. . ... : ... .. . ...
ROW D2 : B-2 00 9 ... ... ... ... : G-3 00 3 V02 ... ... P7F : ... .. . ... : D-# 00 5 ... : ... .. . ...
ROW D3 : ... .. 8 ... ... ... ... : ... .. . ... ... ... ... : ... .. . ... : ... .. 3 ... : ... .. . ...
ROW D4 : ... .. 7 ... ... ... ... : ... .. . ... ... ... ... : ... .. . ... : ... .. 2 ... : ... .. . ...
ROW D5 : ... .. 6 ... ... ... ... : ... .. . ... ... ... ... : ... .. . ... : ... .. 1 ... : ... .. . ...
ROW D6 : ... .. 5 ... ... ... ... : ... .. . ... ... ... ... : ... .. . ... : ... .. 0 ... : ... .. . ...
ROW D7 : ... .. 4 ... ... ... ... : ... .. . ... ... ... ... : ... .. . ... : ... .. . ... : ... .. . ...
ROW D8 : ... .. 3 ... ... ... ... : ... .. . ... ... ... ... : ... .. . ... : ... .. . ... : ... .. . ...
ROW D9 : C-3 00 2 ... ... ... ... : ... .. 2 ... ... ... ... : ... .. . ... : D-# 00 5 ... : ... .. . ...
ROW DA : ... .. 1 ... ... ... ... : ... .. . ... ... ... ... : ... .. . ... : ... .. 3 ... : ... .. . ...
ROW DB : ... .. . ... ... ... ... : ... .. . ... ... ... ... : ... .. . ... : ... .. 2 ... : ... .. . ...
ROW DC : ... .. . ... ... ... ... : ... .. . ... ... ... ... : ... .. . ... : ... .. 1 ... : ... .. . ...
ROW DD : ... .. . ... ... ... ... : ... .. . ... ... ... ... : ... .. . ... : ... .. 0 ... : ... .. . ...
ROW DE : ... .. . ... ... ... ... : ... .. . ... ... ... ... : ... .. . ... : ... .. . ... : ... .. . ...
ROW DF : ... .. . ... ... ... ... : ... .. . ... ... ... ... : ... .. . ... : ... .. . ... : ... .. . ...

PATTERN 38
ROW 00 : A-1 00 9 V02 ... ... ... : ... .. . ... ... ... ... : --- .. . ... : 2-# 00 5 ... : ... .. . ...
ROW 01 : ... .. 8 ... ... ... ... : ... .. . ... ... ... ... : ... .. . ... : ... .. 3 ... : ... .. . ...
ROW 02 : ... .. 7 ... ... ... ... : ... .. . ... ... ... ... : ... .. . ... : ... .. 2 ... : ... .. . ...
ROW 03 : ... .. 6 ... ... ... ... : ... .. . ... ... ... ... : ... .. . ... : ... .. 1 ... : ... .. . ...
ROW 04 : ... .. 5 ... ... ... ... : ... .. . ... ... ... ... : ... .. . ... : ... .. 0 ... : ... .. . ...
ROW 05 : ... .. 4 ... ... ... ... : ... .. . ... ... ... ... : ... .. . ... : ... .. . ... : ... .. . ...
ROW 06 : ... .. 3 ... ... ... ... : ... .. . ... ... ... ... : ... .. . ... : ... .. . ... : ... .. . ...
ROW 07 : ... .. 2 ... ... ... ... : ... .. . ... ... ... ... : ... .. . ... : D-# 00 5 ... : ... .. . ...
ROW 08 : ... .. 1 ... ... ... ... : ... .. . ... ... ... ... : ... .. . ... : ... .. 3 ... : ... .. . ...
ROW 09 : ... .. . ... ... ... ... : ... .. . ... ... ... ... : ... .. . ... : ... .. 2 ... : ... .. . ...
ROW 0A : ... .. . ... ... ... ... : ... .. . ... ... ... ... : ... .. . ... : ... .. 1 ... : ... .. . ...
ROW 0B : ... .. . ... ... ... ... : ... .. . ... ... ... ... : ... .. . ... : ... .. 0 ... : ... .. . ...
ROW 0C : ... .. . ... ... ... ... : ... .. . ... ... ... ... : ... .. . ... : ... .. . ... : ... .. . ...
ROW 0D : ... .. . ... ... ... ... : ... .. . ... ... ... ... : ... .. . ... : ... .. . ... : ... .. . ...
ROW 0E : E-2 00 9 ... ... ... ... : ... .. . ... ... ... ... : C-4 00 . ... : A-# 00 5 ... : ... .. . ...
ROW 0F : ... .. 8 ... ... ... ... : ... .. . ... ... ... ... : ... .. . ... : ... .. 3 ... : ... .. . ...
ROW 10 : ... .. 7 ... ... ... ... : ... .. . ... ... ... ... : ... .. . ... : ... .. 2 ... : ... .. . ...
ROW 11 : ... .. 6 ... ... ... ... : ... .. . ... ... ... ... : ... .. . ... : ... .. 1 ... : ... .. . ...
ROW 12 : ... .. 5 ... ... ... ... : ... .. . ... ... ... ... : ... .. . ... : ... .. 0 ... : ... .. . ...
ROW 13 : ... .. 4 ... ... ... ... : ... .. . ... ... ... ... : ... .. . ... : ... .. . ... : ... .. . ...
ROW 14 : ... .. 3 ... ... ... ... : ... .. . ... ... ... ... : ... .. . ... : ... .. . ... : ... .. . ...
ROW 15 : A-1 00 2 ... ... ... ... : ... .. . ... ... ... ... : ... .. . ... : D-# 00 5 ... : ... .. . ...
ROW 16 : ... .. 1 ... ... ... ... : ... .. . ... ... ... ... : ... .. . ... : ... .. 3 ... : ... .. . ...
ROW 17 : ... .. . ... ... ... ... : ... .. . ... ... ... ... : ... .. . ... : ... .. 2 ... : ... .. . ...
ROW 18 : ... .. . ... ... ... ... : ... .. . ... ... ... ... : ... .. . ... : ... .. 1 ... : ... .. . ...
ROW 19 : ... .. . ... ... ... ... : ... .. . ... ... ... ... : ... .. . ... : ... .. 0 ... : ... .. . ...
ROW 1A : ... .. . ... ... ... ... : ... .. . ... ... ... ... : ... .. . ... : ... .. . ... : ... .. . ...
ROW 1B : ... .. . ... ... ... ... : ... .. . ... ... ... ... : ... .. . ... : ... .. . ... : ... .. . ...
ROW 1C : A-2 00 9 ... ... ... ... : A-4 00 7 V01 ... ... P80 : D-4 00 . ... : 2-# 00 5 ... : ... .. . ...
ROW 1D : ... .. 8 ... ... ... ... : ... .. . ... ... ... ... : ... .. . ... : ... .. 3 ... : ... .. . ...
ROW 1E : ... .. 7 ... ... ... ... : E-4 00 6 ... ... ... ... : ... .. . ... : ... .. 2 ... : ... .. . ...
ROW 1F : ... .. 6 ... ... ... ... : ... .. . ... ... ... ... : ... .. . ... : ... .. 1 ... : ... .. . ...
ROW 20 : ... .. 5 ... ... ... ... : C-4 00 5 ... ... ... ... : ... .. . ... : ... .. 0 ... : ... .. . ...
ROW 21 : ... .. 4 ... ... ... ... : ... .. . ... ... ... ... : ... .. . ... : ... .. . ... : ... .. . ...
ROW 22 : ... .. 3 ... ... ... ... : A-3 00 4 ... ... ... ... : ... .. . ... : ... .. . ... : ... .. . ...
ROW 23 : E-2 00 2 ... ... ... ... : ... .. . ... ... ... ... : ... .. . ... : D-# 00 5 ... : ... .. . ...
ROW 24 : ... .. 1 ... ... ... ... : A-4 00 3 ... ... ... ... : ... .. . ... : ... .. 3 ... : ... .. . ...
ROW 25 : ... .. . ... ... ... ... : ... .. . ... ... ... ... : ... .. . ... : ... .. 2 ... : ... .. . ...
ROW 26 : ... .. . ... ... ... ... : E-4 00 2 ... ... ... ... : ... .. . ... : ... .. 1 ... : ... .. . ...
ROW 27 : ... .. . ... ... ... ... : ... .. . ... ... ... ... : ... .. . ... : ... .. 0 ... : ... .. . ...
ROW 28 : ... .. . ... ... ... ... : C-4 00 1 ... ... ... ... : ... .. . ... : ... .. . ... : ... .. . ...
ROW 29 : ... .. . ... ... ... ... : ... .. . ... ... ... ... : ... .. . ... : ... .. . ... : ... .. . ...
ROW 2A : E-2 00 9 ... ... ... ... : D-3 00 3 V02 ... ... P7F : D#4 00 . ... : 2-# 00 5 ... : ... .. . ...
ROW 2B : ... .. 8 ... ... ... ... : ... .. . ... ... ... ... : E-4 00 . ... : ... .. 3 ... : ... .. . ...
ROW 2C : ... .. 7 ... ... ... ... : ... .. . ... ... ... ... : F-4 00 . ... : ... .. 2 ... : ... .. . ...
ROW 2D : ... .. 6 ... ... ... ... : ... .. . ... ... ... ... : ... .. . ... : ... .. 1 ... : ... .. . ...
ROW 2E : ... .. 5 ... ... ... ... : ... .. . ... ... ... ... : ... .. . ... : ... .. 0 ... : ... .. . ...
ROW 2F : ... .. 4 ... ... ... ... : ... .. . ... ... ... ... : ... .. . ... : ... .. . ... : ... .. . ...
ROW 30 : ... .. 3 ... ... ... ... : ... .. . ... ... ... ... : ... .. . ... : ... .. . ... : ... .. . ...
ROW 31 : A-1 00 9 ... ... ... ... : ... .. 2 ... ... ... ... : ... .. . ... : 2-# 00 5 ... : ... .. . ...
ROW 32 : ... .. 8 ... ... ... ... : ... .. . ... ... ... ... : ... .. . ... : ... .. 3 ... : ... .. . ...
ROW 33 : ... .. 7 ... ... ... ... : ... .. . ... ... ... ... : ... .. . ... : ... .. 2 ... : ... .. . ...
ROW 34 : ... .. 6 ... ... ... ... : ... .. . ... ... ... ... : ... .. . ... : ... .. 1 ... : ... .. . ...
ROW 35 : ... .. 5 ... ... ... ... : ... .. . ... ... ... ... : ... .. . ... : ... .. 0 ... : ... .. . ...
ROW 36 : ... .. 4 ... ... ... ... : ... .. . ... ... ... ... : ... .. . ... : ... .. . ... : ... .. . ...
ROW 37 : ... .. 3 ... ... ... ... : ... .. . ... ... ... ... : ... .. . ... : ... .. . ... : ... .. . ...
ROW 38 : ... .. 2 ... ... ... ... : D#3 00 3 ... ... ... ... : E-4 00 . ... : D-# 00 5 ... : ... .. . ...
ROW 39 : ... .. 1 ... ... ... ... : E-3 00 . ... ... ... ... : ... .. . ... : ... .. 3 ... : ... .. . ...
ROW 3A : ... .. . ... ... ... ... : F-3 00 . ... ... ... ... : ... .. . ... : ... .. 2 ... : ... .. . ...
ROW 3B : ... .. . ... ... ... ... : ... .. . ... ... ... ... : ... .. . ... : ... .. 1 ... : ... .. . ...
ROW 3C : ... .. . ... ... ... ... : ... .. . ... ... ... ... : ... .. . ... : ... .. 0 ... : ... .. . ...
ROW 3D : ... .. . ... ... ... ... : ... .. . ... ... ... ... : ... .. . ... : ... .. . ... : ... .. . ...
ROW 3E : ... .. . ... ... ... ... : ... .. . ... ... ... ... : ... .. . ... : ... .. . ... : ... .. . ...
ROW 3F : C-2 00 2 ... ... ... ... : ... .. 2 ... ... ... ... : ... .. . ... : D-# 00 5 ... : ... .. . ...
ROW 40 : ... .. 1 ... ... ... ... : ... .. . ... ... ... ... : ... .. . ... : ... .. 3 ... : ... .. . ...
ROW 41 : ... .. . ... ... ... ... : ... .. . ... ... ... ... : ... .. . ... : ... .. 2 ... : ... .. . ...
ROW 42 : ... .. . ... ... ... ... : ... .. . ... ... ... ... : ... .. . ... : ... .. 1 ... : ... .. . ...
ROW 43 : ... .. . ... ... ... ... : ... .. . ... ... ... ... : ... .. . ... : ... .. 0 ... : ... .. . ...
ROW 44 : ... .. . ... ... ... ... : ... .. . ... ... ... ... : ... .. . ... : ... .. . ... : ... .. . ...
ROW 45 : ... .. . ... ... ... ... : ... .. . ... ... ... ... : ... .. . ... : ... .. . ... : ... .. . ...
ROW 46 : E-2 00 9 ... ... ... ... : E-3 00 3 ... ... ... ... : C-4 00 . ... : 2-# 00 5 ... : ... .. . ...
ROW 47 : ... .. 8 ... ... ... ... : ... .. . ... ... ... ... : ... .. . ... : ... .. 3 ... : ... .. . ...
ROW 48 : ... .. 7 ... ... ... ... : ... .. . ... ... ... ... : ... .. . ... : ... .. 2 ... : ... .. . ...
ROW 49 : ... .. 6 ... ... ... ... : ... .. . ... ... ... ... : ... .. . ... : ... .. 1 ... : ... .. . ...
ROW 4A : ... .. 5 ... ... ... ... : ... .. . ... ... ... ... : ... .. . ... : ... .. 0 ... : ... .. . ...
ROW 4B : ... .. 4 ... ... ... ... : ... .. . ... ... ... ... : ... .. . ... : ... .. . ... : ... .. . ...
ROW 4C : ... .. 3 ... ... ... ... : ... .. . ... ... ... ... : ... .. . ... : ... .. . ... : ... .. . ...
ROW 4D : A-1 00 2 ... ... ... ... : ... .. 2 ... ... ... ... : ... .. . ... : D-# 00 5 ... : ... .. . ...
ROW 4E : ... .. 1 ... ... ... ... : ... .. . ... ... ... ... : ... .. . ... : ... .. 3 ... : ... .. . ...
ROW 4F : ... .. . ... ... ... ... : ... .. . ... ... ... ... : ... .. . ... : ... .. 2 ... : ... .. . ...
ROW 50 : ... .. . ... ... ... ... : ... .. . ... ... ... ... : ... .. . ... : ... .. 1 ... : ... .. . ...
ROW 51 : ... .. . ... ... ... ... : ... .. . ... ... ... ... : ... .. . ... : ... .. 0 ... : ... .. . ...
ROW 52 : ... .. . ... ... ... ... : ... .. . ... ... ... ... : ... .. . ... : ... .. . ... : ... .. . ...
ROW 53 : ... .. . ... ... ... ... : ... .. . ... ... ... ... : ... .. . ... : ... .. . ... : ... .. . ...
ROW 54 : A-2 00 9 ... ... ... ... : B-4 00 7 V01 ... ... P80 : D-4 00 . ... : 7-# 00 5 ... : ... .. . ...
ROW 55 : ... .. 8 ... ... ... ... : ... .. . ... ... ... ... : ... .. . ... : ... .. 3 ... : ... .. . ...
ROW 56 : ... .. 7 ... ... ... ... : G-4 00 6 ... ... ... ... : ... .. . ... : ... .. 2 ... : ... .. . ...
ROW 57 : ... .. 6 ... ... ... ... : ... .. . ... ... ... ... : ... .. . ... : ... .. 1 ... : ... .. . ...
ROW 58 : ... .. 5 ... ... ... ... : D-4 00 5 ... ... ... ... : ... .. . ... : ... .. 0 ... : ... .. . ...
ROW 59 : ... .. 4 ... ... ... ... : ... .. . ... ... ... ... : ... .. . ... : ... .. . ... : ... .. . ...
ROW 5A : ... .. 3 ... ... ... ... : G-3 00 4 ... ... ... ... : ... .. . ... : ... .. . ... : ... .. . ...
ROW 5B : E-2 00 2 ... ... ... ... : ... .. . ... ... ... ... : ... .. . ... : D-# 00 5 ... : ... .. . ...
ROW 5C : ... .. 1 ... ... ... ... : B-4 00 3 ... ... ... ... : ... .. . ... : ... .. 3 ... : ... .. . ...
ROW 5D : ... .. . ... ... ... ... : ... .. . ... ... ... ... : ... .. . ... : ... .. 2 ... : ... .. . ...
ROW 5E : ... .. . ... ... ... ... : G-4 00 2 ... ... ... ... : ... .. . ... : ... .. 1 ... : ... .. . ...
ROW 5F : ... .. . ... ... ... ... : ... .. . ... ... ... ... : ... .. . ... : ... .. 0 ... : ... .. . ...
ROW 60 : ... .. . ... ... ... ... : D-4 00 1 ... ... ... ... : ... .. . ... : ... .. . ... : ... .. . ...
ROW 61 : ... .. . ... ... ... ... : ... .. . ... ... ... ... : ... .. . ... : ... .. . ... : ... .. . ...
ROW 62 : B-1 00 9 ... ... ... ... : D-3 00 3 V02 ... ... P7F : G-4 00 . ... : D-# 00 5 ... : ... .. . ...
ROW 63 : ... .. 8 ... ... ... ... : ... .. . ... ... ... ... : G#4 00 . ... : ... .. 3 ... : ... .. . ...
ROW 64 : ... .. 7 ... ... ... ... : ... .. . ... ... ... ... : A-4 00 . ... : ... .. 2 ... : ... .. . ...
ROW 65 : ... .. 6 ... ... ... ... : ... .. . ... ... ... ... : ... .. . ... : ... .. 1 ... : ... .. . ...
ROW 66 : ... .. 5 ... ... ... ... : ... .. . ... ... ... ... : ... .. . ... : ... .. 0 ... : ... .. . ...
ROW 67 : ... .. 4 ... ... ... ... : ... .. . ... ... ... ... : ... .. . ... : ... .. . ... : ... .. . ...
ROW 68 : ... .. 3 ... ... ... ... : ... .. . ... ... ... ... : ... .. . ... : ... .. . ... : ... .. . ...
ROW 69 : ... .. 2 ... ... ... ... : ... .. 2 ... ... ... ... : ... .. . ... : D-# 00 5 ... : ... .. . ...
ROW 6A : ... .. 1 ... ... ... ... : ... .. . ... ... ... ... : ... .. . ... : ... .. 3 ... : ... .. . ...
ROW 6B : ... .. . ... ... ... ... : ... .. . ... ... ... ... : ... .. . ... : ... .. 2 ... : ... .. . ...
ROW 6C : ... .. . ... ... ... ... : ... .. . ... ... ... ... : ... .. . ... : ... .. 1 ... : ... .. . ...
ROW 6D : ... .. . ... ... ... ... : ... .. . ... ... ... ... : ... .. . ... : ... .. 0 ... : ... .. . ...
ROW 6E : ... .. . ... ... ... ... : ... .. . ... ... ... ... : ... .. . ... : ... .. . ... : ... .. . ...
ROW 6F : ... .. . ... ... ... ... : ... .. . ... ... ... ... : ... .. . ... : ... .. . ... : ... .. . ...
ROW 70 : C-1 00 9 V02 ... ... ... : G-3 00 3 ... ... ... ... : G-4 00 . ... : 2-# 00 5 ... : ... .. . ...
ROW 71 : ... .. 8 ... ... ... ... : G#3 00 . ... ... ... ... : ... .. . ... : ... .. 3 ... : ... .. . ...
ROW 72 : ... .. 7 ... ... ... ... : A-3 00 . ... ... ... ... : ... .. . ... : ... .. 2 ... : ... .. . ...
ROW 73 : ... .. 6 ... ... ... ... : ... .. . ... ... ... ... : ... .. . ... : ... .. 1 ... : ... .. . ...
ROW 74 : ... .. 5 ... ... ... ... : ... .. . ... ... ... ... : ... .. . ... : ... .. 0 ... : ... .. . ...
ROW 75 : ... .. 4 ... ... ... ... : ... .. . ... ... ... ... : ... .. . ... : ... .. . ... : ... .. . ...
ROW 76 : ... .. 3 ... ... ... ... : ... .. . ... ... ... ... : ... .. . ... : ... .. . ... : ... .. . ...
ROW 77 : G-1 00 2 ... ... ... ... : ... .. 2 ... ... ... ... : A-4 00 . ... : D-# 00 5 ... : ... .. . ...
ROW 78 : ... .. 1 ... ... ... ... : ... .. . ... ... ... ... : ... .. . ... : ... .. 3 ... : ... .. . ...
ROW 79 : ... .. . ... ... ... ... : ... .. . ... ... ... ... : ... .. . ... : ... .. 2 ... : ... .. . ...
ROW 7A : ... .. . ... ... ... ... : ... .. . ... ... ... ... : ... .. . ... : ... .. 1 ... : ... .. . ...
ROW 7B : ... .. . ... ... ... ... : ... .. . ... ... ... ... : ... .. . ... : ... .. 0 ... : ... .. . ...
ROW 7C : ... .. . ... ... ... ... : ... .. . ... ... ... ... : ... .. . ... : ... .. . ... : ... .. . ...
ROW 7D : ... .. . ... ... ... ... : ... .. . ... ... ... ... : ... .. . ... : ... .. . ... : ... .. . ...
ROW 7E : F#3 00 9 ... ... ... ... : D-3 00 9 V02 ... ... P80 : G-4 00 . ... : A-# 00 5 ... : ... .. . ...
ROW 7F : ... .. 8 ... ... ... ... : ... .. 8 ... ... ... ... : ... .. . ... : ... .. 3 ... : ... .. . ...
ROW 80 : ... .. 7 ... ... ... ... : ... .. 7 ... ... ... ... : ... .. . ... : ... .. 2 ... : ... .. . ...
ROW 81 : ... .. 6 ... ... ... ... : ... .. 6 ... ... ... ... : ... .. . ... : ... .. 1 ... : ... .. . ...
ROW 82 : ... .. 5 ... ... ... ... : ... .. 5 ... ... ... ... : ... .. . ... : ... .. 0 ... : ... .. . ...
ROW 83 : ... .. 4 ... ... ... ... : ... .. 4 ... ... ... ... : ... .. . ... : ... .. . ... : ... .. . ...
ROW 84 : ... .. 3 ... ... ... ... : ... .. 3 ... ... ... ... : ... .. . ... : ... .. . ... : ... .. . ...
ROW 85 : C-1 00 2 ... ... ... ... : ... .. 2 ... ... ... ... : F#4 00 . ... : D-# 00 5 ... : ... .. . ...
ROW 86 : ... .. 1 ... ... ... ... : ... .. 1 ... ... ... ... : ... .. . ... : ... .. 3 ... : ... .. . ...
ROW 87 : ... .. . ... ... ... ... : ... .. . ... ... ... ... : ... .. . ... : ... .. 2 ... : ... .. . ...
ROW 88 : ... .. . ... ... ... ... : ... .. . ... ... ... ... : ... .. . ... : ... .. 1 ... : ... .. . ...
ROW 89 : ... .. . ... ... ... ... : ... .. . ... ... ... ... : ... .. . ... : ... .. 0 ... : ... .. . ...
ROW 8A : ... .. . ... ... ... ... : ... .. . ... ... ... ... : ... .. . ... : ... .. . ... : ... .. . ...
ROW 8B : ... .. . ... ... ... ... : ... .. . ... ... ... ... : ... .. . ... : ... .. . ... : ... .. . ...
ROW 8C : E-3 00 9 ... ... ... ... : C-3 00 9 ... ... ... ... : G-4 00 . ... : 2-# 00 5 ... : ... .. . ...
ROW 8D : ... .. 8 ... ... ... ... : ... .. 8 ... ... ... ... : ... .. . ... : ... .. 3 ... : ... .. . ...
ROW 8E : ... .. 7 ... ... ... ... : ... .. 7 ... ... ... ... : ... .. . ... : ... .. 2 ... : ... .. . ...
ROW 8F : ... .. 6 ... ... ... ... : ... .. 6 ... ... ... ... : ... .. . ... : ... .. 1 ... : ... .. . ...
ROW 90 : ... .. 5 ... ... ... ... : ... .. 5 ... ... ... ... : ... .. . ... : ... .. 0 ... : ... .. . ...
ROW 91 : ... .. 4 ... ... ... ... : ... .. 4 ... ... ... ... : ... .. . ... : ... .. . ... : ... .. . ...
ROW 92 : ... .. 3 ... ... ... ... : ... .. 3 ... ... ... ... : ... .. . ... : ... .. . ... : ... .. . ...
ROW 93 : F#3 00 2 ... ... ... ... : D-3 00 2 ... ... ... ... : ... .. . ... : D-# 00 5 ... : ... .. . ...
ROW 94 : ... .. 1 ... ... ... ... : ... .. 1 ... ... ... ... : ... .. . ... : ... .. 3 ... : ... .. . ...
ROW 95 : ... .. . ... ... ... ... : ... .. . ... ... ... ... : ... .. . ... : ... .. 2 ... : ... .. . ...
ROW 96 : ... .. . ... ... ... ... : ... .. . ... ... ... ... : ... .. . ... : ... .. 1 ... : ... .. . ...
ROW 97 : ... .. . ... ... ... ... : ... .. . ... ... ... ... : ... .. . ... : ... .. 0 ... : ... .. . ...
ROW 98 : ... .. . ... ... ... ... : ... .. . ... ... ... ... : ... .. . ... : ... .. . ... : ... .. . ...
ROW 99 : ... .. . ... ... ... ... : ... .. . ... ... ... ... : ... .. . ... : ... .. . ... : ... .. . ...
ROW 9A : G-1 00 9 ... ... ... ... : G-3 00 2 V02 ... ... P7F : ... .. . ... : 2-# 00 5 ... : ... .. . ...
ROW 9B : ... .. 8 ... ... ... ... : ... .. . ... ... ... ... : ... .. . ... : ... .. 3 ... : ... .. . ...
ROW 9C : ... .. 7 ... ... ... ... : ... .. . ... ... ... ... : ... .. . ... : ... .. 2 ... : ... .. . ...
ROW 9D : ... .. 6 ... ... ... ... : ... .. . ... ... ... ... : ... .. . ... : ... .. 1 ... : ... .. . ...
ROW 9E : ... .. 5 ... ... ... ... : ... .. . ... ... ... ... : ... .. . ... : ... .. 0 ... : ... .. . ...
ROW 9F : ... .. 4 ... ... ... ... : ... .. . ... ... ... ... : ... .. . ... : ... .. . ... : ... .. . ...
ROW A0 : ... .. 3 ... ... ... ... : ... .. . ... ... ... ... : ... .. . ... : ... .. . ... : ... .. . ...
ROW A1 : C-2 00 9 ... ... ... ... : ... .. . ... ... ... ... : ... .. . ... : 2-# 00 5 ... : ... .. . ...
ROW A2 : ... .. 8 ... ... ... ... : ... .. . ... ... ... ... : ... .. . ... : ... .. 3 ... : ... .. . ...
ROW A3 : ... .. 7 ... ... ... ... : ... .. . ... ... ... ... : ... .. . ... : ... .. 2 ... : ... .. . ...
ROW A4 : ... .. 6 ... ... ... ... : ... .. . ... ... ... ... : ... .. . ... : ... .. 1 ... : ... .. . ...
ROW A5 : ... .. 5 ... ... ... ... : ... .. . ... ... ... ... : ... .. . ... : ... .. 0 ... : ... .. . ...
ROW A6 : ... .. 4 ... ... ... ... : ... .. . ... ... ... ... : ... .. . ... : ... .. . ... : ... .. . ...
ROW A7 : ... .. 3 ... ... ... ... : ... .. . ... ... ... ... : ... .. . ... : ... .. . ... : ... .. . ...
ROW A8 : ... .. 2 ... ... ... ... : ... .. . ... ... ... ... : ... .. . ... : D-# 00 5 ... : ... .. . ...
ROW A9 : ... .. 1 ... ... ... ... : ... .. . ... ... ... ... : ... .. . ... : ... .. 3 ... : ... .. . ...
ROW AA : ... .. . ... ... ... ... : ... .. . ... ... ... ... : ... .. . ... : ... .. 2 ... : ... .. . ...
ROW AB : ... .. . ... ... ... ... : ... .. . ... ... ... ... : ... .. . ... : ... .. 1 ... : ... .. . ...
ROW AC : ... .. . ... ... ... ... : ... .. . ... ... ... ... : ... .. . ... : ... .. 0 ... : ... .. . ...
ROW AD : ... .. . ... ... ... ... : ... .. . ... ... ... ... : ... .. . ... : ... .. . ... : ... .. . ...
ROW AE : ... .. . ... ... ... ... : ... .. . ... ... ... ... : ... .. . ... : ... .. . ... : ... .. . ...
ROW AF : C-2 00 2 ... ... ... ... : ... .. . ... ... ... ... : ... .. . ... : D-# 00 5 ... : ... .. . ...
ROW B0 : ... .. 1 ... ... ... ... : ... .. . ... ... ... ... : ... .. . ... : ... .. 3 ... : ... .. . ...
ROW B1 : ... .. . ... ... ... ... : ... .. . ... ... ... ... : ... .. . ... : ... .. 2 ... : ... .. . ...
ROW B2 : ... .. . ... ... ... ... : ... .. . ... ... ... ... : ... .. . ... : ... .. 1 ... : ... .. . ...
ROW B3 : ... .. . ... ... ... ... : ... .. . ... ... ... ... : ... .. . ... : ... .. 0 ... : ... .. . ...
ROW B4 : ... .. . ... ... ... ... : ... .. . ... ... ... ... : ... .. . ... : ... .. . ... : ... .. . ...
ROW B5 : ... .. . ... ... ... ... : ... .. . ... ... ... ... : ... .. . ... : ... .. . ... : ... .. . ...
ROW B6 : F#3 00 9 ... ... ... ... : D-3 00 9 V02 ... ... P7F : ... .. . ... : 2-# 00 5 ... : ... .. . ...
ROW B7 : ... .. 8 ... ... ... ... : ... .. 8 ... ... ... ... : ... .. . ... : ... .. 3 ... : ... .. . ...
ROW B8 : ... .. 7 ... ... ... ... : ... .. 7 ... ... ... ... : ... .. . ... : ... .. 2 ... : ... .. . ...
ROW B9 : ... .. 6 ... ... ... ... : ... .. 6 ... ... ... ... : ... .. . ... : ... .. 1 ... : ... .. . ...
ROW BA : ... .. 5 ... ... ... ... : ... .. 5 ... ... ... ... : ... .. . ... : ... .. 0 ... : ... .. . ...
ROW BB : ... .. 4 ... ... ... ... : ... .. 4 ... ... ... ... : ... .. . ... : ... .. . ... : ... .. . ...
ROW BC : ... .. 3 ... ... ... ... : ... .. 3 ... ... ... ... : ... .. . ... : ... .. . ... : ... .. . ...
ROW BD : C-1 00 2 ... ... ... ... : ... .. 2 ... ... ... ... : ... .. . ... : D-# 00 5 ... : ... .. . ...
ROW BE : ... .. 1 ... ... ... ... : ... .. 1 ... ... ... ... : ... .. . ... : ... .. 3 ... : ... .. . ...
ROW BF : ... .. . ... ... ... ... : ... .. . ... ... ... ... : ... .. . ... : ... .. 2 ... : ... .. . ...
ROW C0 : ... .. . ... ... ... ... : ... .. . ... ... ... ... : ... .. . ... : ... .. 1 ... : ... .. . ...
ROW C1 : ... .. . ... ... ... ... : ... .. . ... ... ... ... : ... .. . ... : ... .. 0 ... : ... .. . ...
ROW C2 : ... .. . ... ... ... ... : ... .. . ... ... ... ... : ... .. . ... : ... .. . ... : ... .. . ...
ROW C3 : ... .. . ... ... ... ... : ... .. . ... ... ... ... : ... .. . ... : ... .. . ... : ... .. . ...
ROW C4 : E-3 00 9 ... ... ... ... : C-3 00 9 ... ... ... ... : --- .. . ... : 7-# 00 5 ... : ... .. . ...
ROW C5 : ... .. 8 ... ... ... ... : ... .. 8 ... ... ... ... : ... .. . ... : ... .. 3 ... : ... .. . ...
ROW C6 : ... .. 7 ... ... ... ... : ... .. 7 ... ... ... ... : ... .. . ... : ... .. 2 ... : ... .. . ...
ROW C7 : ... .. 6 ... ... ... ... : ... .. 6 ... ... ... ... : ... .. . ... : ... .. 1 ... : ... .. . ...
ROW C8 : ... .. 5 ... ... ... ... : ... .. 5 ... ... ... ... : ... .. . ... : ... .. 0 ... : ... .. . ...
ROW C9 : ... .. 4 ... ... ... ... : ... .. 4 ... ... ... ... : ... .. . ... : ... .. . ... : ... .. . ...
ROW CA : ... .. 3 ... ... ... ... : ... .. 3 ... ... ... ... : ... .. . ... : ... .. . ... : ... .. . ...
ROW CB : F#3 00 2 ... ... ... ... : D-3 00 2 ... ... ... ... : ... .. . ... : D-# 00 5 ... : ... .. . ...
ROW CC : ... .. 1 ... ... ... ... : ... .. 1 ... ... ... ... : ... .. . ... : ... .. 3 ... : ... .. . ...
ROW CD : ... .. . ... ... ... ... : ... .. . ... ... ... ... : ... .. . ... : ... .. 2 ... : ... .. . ...
ROW CE : ... .. . ... ... ... ... : ... .. . ... ... ... ... : ... .. . ... : ... .. 1 ... : ... .. . ...
ROW CF : ... .. . ... ... ... ... : ... .. . ... ... ... ... : ... .. . ... : ... .. 0 ... : ... .. . ...
ROW D0 : ... .. . ... ... ... ... : ... .. . ... ... ... ... : ... .. . ... : ... .. . ... : ... .. . ...
ROW D1 : ... .. . ... ... ... ... : ... .. . ... ... ... ... : ... .. . ... : ... .. . ... : ... .. . ...
ROW D2 : G-1 00 9 ... ... ... ... : --- 00 . ... ... ... ... : G-4 00 . ... : D-# 00 5 ... : ... .. . ...
ROW D3 : ... .. 8 ... ... ... ... : ... .. . ... ... ... ... : ... .. . ... : ... .. 3 ... : ... .. . ...
ROW D4 : ... .. 7 ... ... ... ... : ... .. . ... ... ... ... : ... .. . ... : ... .. 2 ... : ... .. . ...
ROW D5 : ... .. 6 ... ... ... ... : ... .. . ... ... ... ... : ... .. . ... : ... .. 1 ... : ... .. . ...
ROW D6 : ... .. 5 ... ... ... ... : ... .. . ... ... ... ... : ... .. . ... : ... .. 0 ... : ... .. . ...
ROW D7 : ... .. 4 ... ... ... ... : ... .. . ... ... ... ... : ... .. . ... : ... .. . ... : ... .. . ...
ROW D8 : ... .. 3 ... ... ... ... : ... .. . ... ... ... ... : ... .. . ... : ... .. . ... : ... .. . ...
ROW D9 : E-3 00 2 ... ... ... ... : ... .. . ... ... ... ... : A-4 00 . ... : D-# 00 5 ... : ... .. . ...
ROW DA : ... .. 1 ... ... ... ... : ... .. . ... ... ... ... : ... .. . ... : ... .. 3 ... : ... .. . ...
ROW DB : ... .. . ... ... ... ... : ... .. . ... ... ... ... : ... .. . ... : ... .. 2 ... : ... .. . ...
ROW DC : ... .. . ... ... ... ... : ... .. . ... ... ... ... : ... .. . ... : ... .. 1 ... : ... .. . ...
ROW DD : ... .. . ... ... ... ... : ... .. . ... ... ... ... : ... .. . ... : ... .. 0 ... : ... .. . ...
ROW DE : ... .. . ... ... ... ... : ... .. . ... ... ... ... : ... .. . ... : ... .. . ... : ... .. . ...
ROW DF : ... .. . ... ... ... ... : ... .. . ... ... ... ... : ... .. . ... : ... .. . ... : ... .. . ...

PATTERN 39
ROW 00 : D#1 00 9 V00 ... ... ... : D#2 00 4 V02 ... ... P7D : A#4 00 . ... : 0-# 00 7 ... : ... .. . ...
ROW 01 : ... .. . ... ... ... ... : ... .. . ... ... ... ... : ... .. . ... : ... .. . ... : ... .. . ...
ROW 02 : ... .. . ... ... ... ... : ... .. . ... ... ... ... : ... .. . ... : 1-# 00 6 ... : ... .. . ...
ROW 03 : ... .. 8 ... ... ... ... : ... .. . ... ... ... ... : ... .. . ... : ... .. . ... : ... .. . ...
ROW 04 : ... .. . ... ... ... ... : ... .. . ... ... ... ... : ... .. . ... : 2-# 00 5 ... : ... .. . ...
ROW 05 : ... .. . ... ... ... ... : ... .. . ... ... ... ... : ... .. . ... : ... .. . ... : ... .. . ...
ROW 06 : ... .. 7 ... ... ... ... : ... .. . ... ... ... ... : ... .. . ... : ... .. 4 ... : ... .. . ...
ROW 07 : ... .. . ... ... ... ... : ... .. . ... ... ... ... : ... .. . ... : ... .. . ... : ... .. . ...
ROW 08 : ... .. . ... ... ... ... : ... .. . ... ... ... ... : ... .. . ... : ... .. 3 ... : ... .. . ...
ROW 09 : ... .. 6 ... ... ... ... : ... .. . ... ... ... ... : ... .. . ... : ... .. . ... : ... .. . ...
ROW 0A : ... .. . ... ... ... ... : ... .. . ... ... ... ... : ... .. . ... : ... .. 2 ... : ... .. . ...
ROW 0B : ... .. . ... ... ... ... : ... .. . ... ... ... ... : ... .. . ... : ... .. . ... : ... .. . ...
ROW 0C : ... .. 5 ... ... ... ... : ... .. 1 ... ... ... ... : ... .. . ... : ... .. . ... : ... .. . ...
ROW 0D : ... .. . ... ... ... ... : ... .. . ... ... ... ... : ... .. . ... : ... .. . ... : ... .. . ...
ROW 0E : D#2 00 9 ... ... ... ... : D#3 00 4 ... ... ... ... : G-4 00 . ... : ... .. . ... : ... .. . ...
ROW 0F : ... .. . ... ... ... ... : ... .. . ... ... ... ... : ... .. . ... : ... .. . ... : ... .. . ...
ROW 10 : ... .. . ... ... ... ... : ... .. . ... ... ... ... : ... .. . ... : ... .. . ... : ... .. . ...
ROW 11 : ... .. 8 ... ... ... ... : ... .. . ... ... ... ... : ... .. . ... : ... .. . ... : ... .. . ...
ROW 12 : ... .. . ... ... ... ... : ... .. . ... ... ... ... : ... .. . ... : ... .. . ... : ... .. . ...
ROW 13 : ... .. . ... ... ... ... : ... .. . ... ... ... ... : ... .. . ... : ... .. . ... : ... .. . ...
ROW 14 : ... .. 7 ... ... ... ... : ... .. . ... ... ... ... : ... .. . ... : ... .. . ... : ... .. . ...
ROW 15 : ... .. . ... ... ... ... : ... .. . ... ... ... ... : ... .. . ... : ... .. 1 ... : ... .. . ...
ROW 16 : ... .. . ... ... ... ... : ... .. . ... ... ... ... : ... .. . ... : ... .. . ... : ... .. . ...
ROW 17 : ... .. 6 ... ... ... ... : ... .. . ... ... ... ... : ... .. . ... : ... .. . ... : ... .. . ...
ROW 18 : ... .. . ... ... ... ... : ... .. . ... ... ... ... : ... .. . ... : ... .. . ... : ... .. . ...
ROW 19 : ... .. . ... ... ... ... : ... .. . ... ... ... ... : ... .. . ... : ... .. . ... : ... .. . ...
ROW 1A : D#1 00 3 ... ... ... ... : ... .. 1 ... ... ... ... : ... .. . ... : ... .. . ... : ... .. . ...
ROW 1B : ... .. . ... ... ... ... : ... .. . ... ... ... ... : ... .. . ... : ... .. . ... : ... .. . ...
ROW 1C : F-1 00 9 ... ... ... ... : F-2 00 4 ... ... ... ... : A-4 00 . ... : 0-# 00 7 ... : ... .. . ...
ROW 1D : ... .. . ... ... ... ... : ... .. . ... ... ... ... : ... .. . ... : ... .. . ... : ... .. . ...
ROW 1E : ... .. . ... ... ... ... : ... .. . ... ... ... ... : ... .. . ... : 1-# 00 6 ... : ... .. . ...
ROW 1F : ... .. 8 ... ... ... ... : ... .. . ... ... ... ... : ... .. . ... : ... .. . ... : ... .. . ...
ROW 20 : ... .. . ... ... ... ... : ... .. . ... ... ... ... : ... .. . ... : 2-# 00 5 ... : ... .. . ...
ROW 21 : ... .. . ... ... ... ... : ... .. . ... ... ... ... : ... .. . ... : ... .. . ... : ... .. . ...
ROW 22 : ... .. 7 ... ... ... ... : ... .. . ... ... ... ... : ... .. . ... : ... .. 4 ... : ... .. . ...
ROW 23 : ... .. . ... ... ... ... : ... .. . ... ... ... ... : ... .. . ... : ... .. . ... : ... .. . ...
ROW 24 : ... .. . ... ... ... ... : ... .. . ... ... ... ... : ... .. . ... : ... .. 3 ... : ... .. . ...
ROW 25 : ... .. 6 ... ... ... ... : ... .. . ... ... ... ... : ... .. . ... : ... .. . ... : ... .. . ...
ROW 26 : ... .. . ... ... ... ... : ... .. . ... ... ... ... : ... .. . ... : ... .. 2 ... : ... .. . ...
ROW 27 : ... .. . ... ... ... ... : ... .. . ... ... ... ... : ... .. . ... : ... .. . ... : ... .. . ...
ROW 28 : D#2 00 3 ... ... ... ... : ... .. 1 ... ... ... ... : ... .. . ... : ... .. . ... : ... .. . ...
ROW 29 : ... .. . ... ... ... ... : ... .. . ... ... ... ... : ... .. . ... : ... .. . ... : ... .. . ...
ROW 2A : F-2 00 9 ... ... ... ... : F-3 00 4 ... ... ... ... : C-5 00 . ... : ... .. . ... : ... .. . ...
ROW 2B : ... .. . ... ... ... ... : ... .. . ... ... ... ... : ... .. . ... : ... .. . ... : ... .. . ...
ROW 2C : ... .. . ... ... ... ... : ... .. . ... ... ... ... : ... .. . ... : ... .. . ... : ... .. . ...
ROW 2D : ... .. 8 ... ... ... ... : ... .. . ... ... ... ... : ... .. . ... : ... .. . ... : ... .. . ...
ROW 2E : ... .. . ... ... ... ... : ... .. . ... ... ... ... : ... .. . ... : ... .. . ... : ... .. . ...
ROW 2F : ... .. . ... ... ... ... : ... .. . ... ... ... ... : ... .. . ... : ... .. . ... : ... .. . ...
ROW 30 : ... .. 7 ... ... ... ... : ... .. . ... ... ... ... : ... .. . ... : ... .. . ... : ... .. . ...
ROW 31 : ... .. . ... ... ... ... : ... .. . ... ... ... ... : ... .. . ... : ... .. 1 ... : ... .. . ...
ROW 32 : ... .. . ... ... ... ... : ... .. . ... ... ... ... : ... .. . ... : ... .. . ... : ... .. . ...
ROW 33 : ... .. 6 ... ... ... ... : ... .. . ... ... ... ... : ... .. . ... : ... .. . ... : ... .. . ...
ROW 34 : ... .. . ... ... ... ... : ... .. . ... ... ... ... : ... .. . ... : ... .. . ... : ... .. . ...
ROW 35 : ... .. . ... ... ... ... : ... .. . ... ... ... ... : ... .. . ... : ... .. . ... : ... .. . ...
ROW 36 : F-1 00 3 ... ... ... ... : ... .. 1 ... ... ... ... : ... .. . ... : ... .. . ... : ... .. . ...
ROW 37 : ... .. . ... ... ... ... : ... .. . ... ... ... ... : ... .. . ... : ... .. . ... : ... .. . ...
ROW 38 : A#0 00 9 ... ... ... ... : A#1 00 4 ... ... ... ... : F-4 00 . ... : 0-# 00 7 ... : ... .. . ...
ROW 39 : ... .. . ... ... ... ... : ... .. . ... ... ... ... : ... .. . ... : ... .. . ... : ... .. . ...
ROW 3A : ... .. . ... ... ... ... : ... .. . ... ... ... ... : ... .. . ... : 1-# 00 6 ... : ... .. . ...
ROW 3B : ... .. 8 ... ... ... ... : ... .. . ... ... ... ... : ... .. . ... : ... .. . ... : ... .. . ...
ROW 3C : ... .. . ... ... ... ... : ... .. . ... ... ... ... : ... .. . ... : 2-# 00 5 ... : ... .. . ...
ROW 3D : ... .. . ... ... ... ... : ... .. . ... ... ... ... : ... .. . ... : ... .. . ... : ... .. . ...
ROW 3E : ... .. 7 ... ... ... ... : ... .. . ... ... ... ... : ... .. . ... : ... .. 4 ... : ... .. . ...
ROW 3F : ... .. . ... ... ... ... : ... .. . ... ... ... ... : ... .. . ... : ... .. . ... : ... .. . ...
ROW 40 : ... .. . ... ... ... ... : ... .. . ... ... ... ... : ... .. . ... : ... .. 3 ... : ... .. . ...
ROW 41 : ... .. 6 ... ... ... ... : ... .. . ... ... ... ... : ... .. . ... : ... .. . ... : ... .. . ...
ROW 42 : ... .. . ... ... ... ... : ... .. . ... ... ... ... : ... .. . ... : ... .. 2 ... : ... .. . ...
ROW 43 : ... .. . ... ... ... ... : ... .. . ... ... ... ... : ... .. . ... : ... .. . ... : ... .. . ...
ROW 44 : F-2 00 3 ... ... ... ... : ... .. . ... ... ... ... : ... .. . ... : ... .. 1 ... : ... .. . ...
ROW 45 : ... .. . ... ... ... ... : ... .. . ... ... ... ... : ... .. . ... : ... .. . ... : ... .. . ...
ROW 46 : E-3 00 9 V02 ... ... P80 : F-3 00 6 V02 ... ... P80 : ... .. . ... : 8-# 00 5 ... : ... .. . ...
ROW 47 : ... .. 8 ... ... ... ... : ... .. . ... ... ... ... : ... .. . ... : ... .. 4 ... : ... .. . ...
ROW 48 : ... .. 7 ... ... ... ... : ... .. . ... ... ... ... : ... .. . ... : 8-# 00 5 ... : ... .. . ...
ROW 49 : ... .. 6 ... ... ... ... : ... .. . ... ... ... ... : ... .. . ... : ... .. 4 ... : ... .. . ...
ROW 4A : ... .. 5 ... ... ... ... : ... .. . ... ... ... ... : ... .. . ... : ... .. 3 ... : ... .. . ...
ROW 4B : ... .. 4 ... ... ... ... : G-3 00 . ... ... ... ... : ... .. . ... : ... .. 2 ... : ... .. . ...
ROW 4C : ... .. 3 ... ... ... ... : ... .. . ... ... ... ... : ... .. . ... : ... .. 1 ... : ... .. . ...
ROW 4D : ... .. 2 ... ... ... ... : ... .. . ... ... ... ... : ... .. . ... : ... .. . ... : ... .. . ...
ROW 4E : ... .. 1 ... ... ... ... : ... .. . ... ... ... ... : ... .. . ... : ... .. . ... : ... .. . ...
ROW 4F : ... .. . ... ... ... ... : ... .. . ... ... ... ... : ... .. . ... : ... .. . ... : ... .. . ...
ROW 50 : ... .. . ... ... ... ... : A-3 00 . ... ... ... ... : ... .. . ... : ... .. . ... : ... .. . ...
ROW 51 : ... .. . ... ... ... ... : ... .. . ... ... ... ... : ... .. . ... : ... .. . ... : ... .. . ...
ROW 52 : ... .. . ... ... ... ... : ... .. . ... ... ... ... : ... .. . ... : ... .. . ... : ... .. . ...
ROW 53 : ... .. . ... ... ... ... : ... .. . ... ... ... ... : ... .. . ... : ... .. . ... : ... .. . ...
ROW 54 : D-3 00 9 ... ... ... ... : A#3 00 9 ... ... ... ... : --- .. . ... : 8-# 00 5 ... : ... .. . ...
ROW 55 : ... .. 8 ... ... ... ... : ... .. 8 ... ... ... ... : ... .. . ... : ... .. 4 ... : ... .. . ...
ROW 56 : ... .. 7 ... ... ... ... : ... .. 7 ... ... ... ... : ... .. . ... : 8-# 00 5 ... : ... .. . ...
ROW 57 : ... .. 6 ... ... ... ... : ... .. 6 ... ... ... ... : ... .. . ... : ... .. 4 ... : ... .. . ...
ROW 58 : ... .. 5 ... ... ... ... : ... .. 5 ... ... ... ... : ... .. . ... : ... .. 3 ... : ... .. . ...
ROW 59 : ... .. 4 ... ... ... ... : ... .. 4 ... ... ... ... : ... .. . ... : ... .. 2 ... : ... .. . ...
ROW 5A : ... .. 3 ... ... ... ... : ... .. 3 ... ... ... ... : ... .. . ... : ... .. 1 ... : ... .. . ...
ROW 5B : ... .. 2 ... ... ... ... : ... .. 2 ... ... ... ... : ... .. . ... : ... .. . ... : ... .. . ...
ROW 5C : ... .. 1 ... ... ... ... : ... .. 1 ... ... ... ... : ... .. . ... : ... .. . ... : ... .. . ...
ROW 5D : ... .. . ... ... ... ... : ... .. . ... ... ... ... : ... .. . ... : ... .. . ... : ... .. . ...
ROW 5E : ... .. . ... ... ... ... : ... .. . ... ... ... ... : ... .. . ... : 2-# 00 . ... : ... .. . ...
ROW 5F : ... .. . ... ... ... ... : ... .. . ... ... ... ... : ... .. . ... : ... .. . ... : ... .. . ...
ROW 60 : ... .. . ... ... ... ... : ... .. . ... ... ... ... : ... .. . ... : ... .. . ... : ... .. . ...
ROW 61 : ... .. . ... ... ... ... : ... .. . ... ... ... ... : ... .. . ... : ... .. . ... : ... .. . ...
ROW 62 : E-3 00 . ... ... ... ... : F-3 00 . ... ... ... ... : G-4 00 . ... : ... .. . ... : ... .. . ...
ROW 63 : ... .. . ... ... ... ... : ... .. . ... ... ... ... : ... .. . ... : ... .. . ... : ... .. . ...
ROW 64 : ... .. . ... ... ... ... : ... .. . ... ... ... ... : ... .. . ... : ... .. . ... : ... .. . ...
ROW 65 : ... .. . ... ... ... ... : ... .. . ... ... ... ... : ... .. . ... : ... .. . ... : ... .. . ...
ROW 66 : ... .. . ... ... ... ... : ... .. . ... ... ... ... : ... .. . ... : ... .. . ... : ... .. . ...
ROW 67 : ... .. . ... ... ... ... : G-3 00 . ... ... ... ... : ... .. . ... : ... .. . ... : ... .. . ...
ROW 68 : ... .. . ... ... ... ... : ... .. . ... ... ... ... : ... .. . ... : ... .. . ... : ... .. . ...
ROW 69 : D-3 00 . ... ... ... ... : ... .. . ... ... ... ... : ... .. . ... : ... .. . ... : ... .. . ...
ROW 6A : ... .. . ... ... ... ... : ... .. . ... ... ... ... : ... .. . ... : ... .. . ... : ... .. . ...
ROW 6B : ... .. . ... ... ... ... : ... .. . ... ... ... ... : ... .. . ... : ... .. . ... : ... .. . ...
ROW 6C : ... .. . ... ... ... ... : A-3 00 . ... ... ... ... : ... .. . ... : ... .. . ... : ... .. . ...
ROW 6D : ... .. . ... ... ... ... : ... .. . ... ... ... ... : ... .. . ... : ... .. . ... : ... .. . ...
ROW 6E : ... .. . ... ... ... ... : ... .. . ... ... ... ... : ... .. . ... : ... .. . ... : ... .. . ...
ROW 6F : ... .. . ... ... ... ... : ... .. . ... ... ... ... : ... .. . ... : ... .. . ... : ... .. . ...
ROW 70 : C#1 00 9 V00 ... ... ... : C#2 00 4 V02 ... ... P7D : G#4 00 . ... : 0-# 00 7 ... : ... .. . ...
ROW 71 : ... .. . ... ... ... ... : ... .. . ... ... ... ... : ... .. . ... : ... .. . ... : ... .. . ...
ROW 72 : ... .. . ... ... ... ... : ... .. . ... ... ... ... : ... .. . ... : 1-# 00 6 ... : ... .. . ...
ROW 73 : ... .. 8 ... ... ... ... : ... .. . ... ... ... ... : ... .. . ... : ... .. . ... : ... .. . ...
ROW 74 : ... .. . ... ... ... ... : ... .. . ... ... ... ... : ... .. . ... : 2-# 00 5 ... : ... .. . ...
ROW 75 : ... .. . ... ... ... ... : ... .. . ... ... ... ... : ... .. . ... : ... .. . ... : ... .. . ...
ROW 76 : ... .. 7 ... ... ... ... : ... .. . ... ... ... ... : ... .. . ... : ... .. 4 ... : ... .. . ...
ROW 77 : ... .. . ... ... ... ... : ... .. . ... ... ... ... : ... .. . ... : ... .. . ... : ... .. . ...
ROW 78 : ... .. . ... ... ... ... : ... .. . ... ... ... ... : ... .. . ... : ... .. 3 ... : ... .. . ...
ROW 79 : ... .. 6 ... ... ... ... : ... .. . ... ... ... ... : ... .. . ... : ... .. . ... : ... .. . ...
ROW 7A : ... .. . ... ... ... ... : ... .. . ... ... ... ... : ... .. . ... : ... .. 2 ... : ... .. . ...
ROW 7B : ... .. . ... ... ... ... : ... .. . ... ... ... ... : ... .. . ... : ... .. . ... : ... .. . ...
ROW 7C : ... .. 5 ... ... ... ... : ... .. 1 ... ... ... ... : ... .. . ... : ... .. . ... : ... .. . ...
ROW 7D : ... .. . ... ... ... ... : ... .. . ... ... ... ... : ... .. . ... : ... .. . ... : ... .. . ...
ROW 7E : C#2 00 9 ... ... ... ... : C#3 00 4 ... ... ... ... : F-4 00 . ... : ... .. . ... : ... .. . ...
ROW 7F : ... .. . ... ... ... ... : ... .. . ... ... ... ... : ... .. . ... : ... .. . ... : ... .. . ...
ROW 80 : ... .. . ... ... ... ... : ... .. . ... ... ... ... : ... .. . ... : ... .. . ... : ... .. . ...
ROW 81 : ... .. 8 ... ... ... ... : ... .. . ... ... ... ... : ... .. . ... : ... .. . ... : ... .. . ...
ROW 82 : ... .. . ... ... ... ... : ... .. . ... ... ... ... : ... .. . ... : ... .. . ... : ... .. . ...
ROW 83 : ... .. . ... ... ... ... : ... .. . ... ... ... ... : ... .. . ... : ... .. . ... : ... .. . ...
ROW 84 : ... .. 7 ... ... ... ... : ... .. . ... ... ... ... : ... .. . ... : ... .. . ... : ... .. . ...
ROW 85 : ... .. . ... ... ... ... : ... .. . ... ... ... ... : ... .. . ... : ... .. 1 ... : ... .. . ...
ROW 86 : ... .. . ... ... ... ... : ... .. . ... ... ... ... : ... .. . ... : ... .. . ... : ... .. . ...
ROW 87 : ... .. 6 ... ... ... ... : ... .. . ... ... ... ... : ... .. . ... : ... .. . ... : ... .. . ...
ROW 88 : ... .. . ... ... ... ... : ... .. . ... ... ... ... : ... .. . ... : ... .. . ... : ... .. . ...
ROW 89 : ... .. . ... ... ... ... : ... .. . ... ... ... ... : ... .. . ... : ... .. . ... : ... .. . ...
ROW 8A : C#1 00 3 ... ... ... ... : ... .. 1 ... ... ... ... : ... .. . ... : ... .. . ... : ... .. . ...
ROW 8B : ... .. . ... ... ... ... : ... .. . ... ... ... ... : ... .. . ... : ... .. . ... : ... .. . ...
ROW 8C : D#1 00 9 ... ... ... ... : D#2 00 4 ... ... ... ... : G-4 00 . ... : 0-# 00 7 ... : ... .. . ...
ROW 8D : ... .. . ... ... ... ... : ... .. . ... ... ... ... : ... .. . ... : ... .. . ... : ... .. . ...
ROW 8E : ... .. . ... ... ... ... : ... .. . ... ... ... ... : ... .. . ... : 1-# 00 6 ... : ... .. . ...
ROW 8F : ... .. 8 ... ... ... ... : ... .. . ... ... ... ... : ... .. . ... : ... .. . ... : ... .. . ...
ROW 90 : ... .. . ... ... ... ... : ... .. . ... ... ... ... : ... .. . ... : 2-# 00 5 ... : ... .. . ...
ROW 91 : ... .. . ... ... ... ... : ... .. . ... ... ... ... : ... .. . ... : ... .. . ... : ... .. . ...
ROW 92 : ... .. 7 ... ... ... ... : ... .. . ... ... ... ... : ... .. . ... : ... .. 4 ... : ... .. . ...
ROW 93 : ... .. . ... ... ... ... : ... .. . ... ... ... ... : ... .. . ... : ... .. . ... : ... .. . ...
ROW 94 : ... .. . ... ... ... ... : ... .. . ... ... ... ... : ... .. . ... : ... .. 3 ... : ... .. . ...
ROW 95 : ... .. 6 ... ... ... ... : ... .. . ... ... ... ... : ... .. . ... : ... .. . ... : ... .. . ...
ROW 96 : ... .. . ... ... ... ... : ... .. . ... ... ... ... : ... .. . ... : ... .. 2 ... : ... .. . ...
ROW 97 : ... .. . ... ... ... ... : ... .. . ... ... ... ... : ... .. . ... : ... .. . ... : ... .. . ...
ROW 98 : C#2 00 3 ... ... ... ... : ... .. 1 ... ... ... ... : ... .. . ... : ... .. . ... : ... .. . ...
ROW 99 : ... .. . ... ... ... ... : ... .. . ... ... ... ... : ... .. . ... : ... .. . ... : ... .. . ...
ROW 9A : D#2 00 9 ... ... ... ... : D#3 00 4 ... ... ... ... : A#4 00 . ... : ... .. . ... : ... .. . ...
ROW 9B : ... .. . ... ... ... ... : ... .. . ... ... ... ... : ... .. . ... : ... .. . ... : ... .. . ...
ROW 9C : ... .. . ... ... ... ... : ... .. . ... ... ... ... : ... .. . ... : ... .. . ... : ... .. . ...
ROW 9D : ... .. 8 ... ... ... ... : ... .. . ... ... ... ... : ... .. . ... : ... .. . ... : ... .. . ...
ROW 9E : ... .. . ... ... ... ... : ... .. . ... ... ... ... : ... .. . ... : ... .. . ... : ... .. . ...
ROW 9F : ... .. . ... ... ... ... : ... .. . ... ... ... ... : ... .. . ... : ... .. . ... : ... .. . ...
ROW A0 : ... .. 7 ... ... ... ... : ... .. . ... ... ... ... : ... .. . ... : ... .. . ... : ... .. . ...
ROW A1 : ... .. . ... ... ... ... : ... .. . ... ... ... ... : ... .. . ... : ... .. 1 ... : ... .. . ...
ROW A2 : ... .. . ... ... ... ... : ... .. . ... ... ... ... : ... .. . ... : ... .. . ... : ... .. . ...
ROW A3 : ... .. 6 ... ... ... ... : ... .. . ... ... ... ... : ... .. . ... : ... .. . ... : ... .. . ...
ROW A4 : ... .. . ... ... ... ... : ... .. . ... ... ... ... : ... .. . ... : ... .. . ... : ... .. . ...
ROW A5 : ... .. . ... ... ... ... : ... .. . ... ... ... ... : ... .. . ... : ... .. . ... : ... .. . ...
ROW A6 : D#1 00 3 ... ... ... ... : ... .. 1 ... ... ... ... : ... .. . ... : ... .. . ... : ... .. . ...
ROW A7 : ... .. . ... ... ... ... : ... .. . ... ... ... ... : ... .. . ... : ... .. . ... : ... .. . ...
ROW A8 : G#1 00 9 ... ... ... ... : G#2 00 4 ... ... ... ... : D#4 00 . ... : 0-# 00 7 ... : ... .. . ...
ROW A9 : ... .. . ... ... ... ... : ... .. . ... ... ... ... : ... .. . ... : ... .. . ... : ... .. . ...
ROW AA : ... .. . ... ... ... ... : ... .. . ... ... ... ... : ... .. . ... : 1-# 00 6 ... : ... .. . ...
ROW AB : ... .. 8 ... ... ... ... : ... .. . ... ... ... ... : ... .. . ... : ... .. . ... : ... .. . ...
ROW AC : ... .. . ... ... ... ... : ... .. . ... ... ... ... : ... .. . ... : 2-# 00 5 ... : ... .. . ...
ROW AD : ... .. . ... ... ... ... : ... .. . ... ... ... ... : ... .. . ... : ... .. . ... : ... .. . ...
ROW AE : ... .. 7 ... ... ... ... : ... .. . ... ... ... ... : ... .. . ... : ... .. 4 ... : ... .. . ...
ROW AF : ... .. . ... ... ... ... : ... .. . ... ... ... ... : ... .. . ... : ... .. . ... : ... .. . ...
ROW B0 : ... .. . ... ... ... ... : ... .. . ... ... ... ... : ... .. . ... : ... .. 3 ... : ... .. . ...
ROW B1 : ... .. 6 ... ... ... ... : ... .. . ... ... ... ... : ... .. . ... : ... .. . ... : ... .. . ...
ROW B2 : ... .. . ... ... ... ... : ... .. . ... ... ... ... : ... .. . ... : ... .. 2 ... : ... .. . ...
ROW B3 : ... .. . ... ... ... ... : ... .. . ... ... ... ... : ... .. . ... : ... .. . ... : ... .. . ...
ROW B4 : D#2 00 3 ... ... ... ... : ... .. 1 ... ... ... ... : ... .. . ... : ... .. 1 ... : ... .. . ...
ROW B5 : ... .. . ... ... ... ... : ... .. . ... ... ... ... : ... .. . ... : ... .. . ... : ... .. . ...
ROW B6 : D-3 00 9 V02 ... ... P80 : D#3 00 6 V02 ... ... P80 : ... .. . ... : 8-# 00 5 ... : ... .. . ...
ROW B7 : ... .. 8 ... ... ... ... : ... .. . ... ... ... ... : ... .. . ... : ... .. 4 ... : ... .. . ...
ROW B8 : ... .. 7 ... ... ... ... : ... .. . ... ... ... ... : ... .. . ... : 8-# 00 5 ... : ... .. . ...
ROW B9 : ... .. 6 ... ... ... ... : ... .. . ... ... ... ... : ... .. . ... : ... .. 4 ... : ... .. . ...
ROW BA : ... .. 5 ... ... ... ... : ... .. . ... ... ... ... : ... .. . ... : ... .. 3 ... : ... .. . ...
ROW BB : ... .. 4 ... ... ... ... : F-3 00 . ... ... ... ... : ... .. . ... : ... .. 2 ... : ... .. . ...
ROW BC : ... .. 3 ... ... ... ... : ... .. . ... ... ... ... : ... .. . ... : ... .. 1 ... : ... .. . ...
ROW BD : ... .. 2 ... ... ... ... : ... .. . ... ... ... ... : ... .. . ... : ... .. . ... : ... .. . ...
ROW BE : ... .. 1 ... ... ... ... : ... .. . ... ... ... ... : ... .. . ... : ... .. . ... : ... .. . ...
ROW BF : ... .. . ... ... ... ... : ... .. . ... ... ... ... : ... .. . ... : ... .. . ... : ... .. . ...
ROW C0 : ... .. . ... ... ... ... : G-3 00 . ... ... ... ... : ... .. . ... : ... .. . ... : ... .. . ...
ROW C1 : ... .. . ... ... ... ... : ... .. . ... ... ... ... : ... .. . ... : ... .. . ... : ... .. . ...
ROW C2 : ... .. . ... ... ... ... : ... .. . ... ... ... ... : ... .. . ... : ... .. . ... : ... .. . ...
ROW C3 : ... .. . ... ... ... ... : ... .. . ... ... ... ... : ... .. . ... : ... .. . ... : ... .. . ...
ROW C4 : C-3 00 9 ... ... ... ... : G#3 00 9 ... ... ... ... : --- .. . ... : 8-# 00 5 ... : ... .. . ...
ROW C5 : ... .. 8 ... ... ... ... : ... .. 8 ... ... ... ... : ... .. . ... : ... .. 4 ... : ... .. . ...
ROW C6 : ... .. 7 ... ... ... ... : ... .. 7 ... ... ... ... : ... .. . ... : 8-# 00 5 ... : ... .. . ...
ROW C7 : ... .. 6 ... ... ... ... : ... .. 6 ... ... ... ... : ... .. . ... : ... .. 4 ... : ... .. . ...
ROW C8 : ... .. 5 ... ... ... ... : ... .. 5 ... ... ... ... : ... .. . ... : ... .. 3 ... : ... .. . ...
ROW C9 : ... .. 4 ... ... ... ... : ... .. 4 ... ... ... ... : ... .. . ... : ... .. 2 ... : ... .. . ...
ROW CA : ... .. 3 ... ... ... ... : ... .. 3 ... ... ... ... : ... .. . ... : ... .. 1 ... : ... .. . ...
ROW CB : D-3 00 2 ... ... ... ... : ... .. 2 ... ... ... ... : ... .. . ... : ... .. . ... : ... .. . ...
ROW CC : ... .. 1 ... ... ... ... : ... .. 1 ... ... ... ... : ... .. . ... : ... .. . ... : ... .. . ...
ROW CD : ... .. . ... ... ... ... : ... .. . ... ... ... ... : ... .. . ... : ... .. . ... : ... .. . ...
ROW CE : ... .. . ... ... ... ... : ... .. . ... ... ... ... : ... .. . ... : 2-# 00 . ... : ... .. . ...
ROW CF : --- .. . ... ... ... ... : --- .. . ... ... ... ... : ... .. . ... : ... .. . ... : ... .. . ...
ROW D0 : ... .. . ... ... ... ... : ... .. . ... ... ... ... : ... .. . ... : ... .. . ... : ... .. . ...
ROW D1 : ... .. . ... ... ... ... : ... .. . ... ... ... ... : ... .. . ... : ... .. . ... : ... .. . ...
ROW D2 : D#3 00 5 V02 ... ... P80 : ... .. . ... ... ... ... : ... .. . ... : ... .. . ... : ... .. . ...
ROW D3 : ... .. . ... ... ... ... : ... .. . ... ... ... ... : ... .. . ... : ... .. . ... : ... .. . ...
ROW D4 : ... .. . ... ... ... ... : ... .. . ... ... ... ... : ... .. . ... : ... .. . ... : ... .. . ...
ROW D5 : ... .. . ... ... ... ... : ... .. . ... ... ... ... : ... .. . ... : ... .. . ... : ... .. . ...
ROW D6 : ... .. . ... ... ... ... : ... .. . ... ... ... ... : ... .. . ... : ... .. . ... : ... .. . ...
ROW D7 : ... .. 1 ... ... ... ... : ... .. . ... ... ... ... : ... .. . ... : ... .. . ... : ... .. . ...
ROW D8 : ... .. . ... ... ... ... : ... .. . ... ... ... ... : ... .. . ... : ... .. . ... : ... .. . ...
ROW D9 : F-3 00 5 ... ... ... ... : ... .. . ... ... ... ... : ... .. . ... : ... .. . ... : ... .. . ...
ROW DA : ... .. . ... ... ... ... : ... .. . ... ... ... ... : ... .. . ... : ... .. . ... : ... .. . ...
ROW DB : ... .. . ... ... ... ... : ... .. . ... ... ... ... : ... .. . ... : ... .. . ... : ... .. . ...
ROW DC : ... .. . ... ... ... ... : ... .. . ... ... ... ... : ... .. . ... : ... .. . ... : ... .. . ...
ROW DD : ... .. . ... ... ... ... : ... .. . ... ... ... ... : ... .. . ... : ... .. . ... : ... .. . ...
ROW DE : D#3 00 1 ... ... ... ... : ... .. . ... ... ... ... : ... .. . ... : ... .. . ... : ... .. . ...
ROW DF : ... .. . ... ... ... ... : ... .. . ... ... ... ... : ... .. . ... : ... .. . ... : ... .. . ...

PATTERN 3A
ROW 00 : G-3 00 5 V02 ... ... ... : G#2 00 9 V00 ... ... ... : F-2 00 . ... : 2-# 00 4 ... : ... .. . ...
ROW 01 : ... .. . ... ... ... ... : ... .. . ... ... ... ... : ... .. . ... : ... .. . ... : ... .. . ...
ROW 02 : ... .. . ... ... ... ... : ... .. 8 ... ... ... ... : ... .. . ... : ... .. . ... : ... .. . ...
ROW 03 : ... .. . ... ... ... ... : ... .. . ... ... ... ... : ... .. . ... : ... .. 3 ... : ... .. . ...
ROW 04 : ... .. . ... ... ... ... : ... .. 7 ... ... ... ... : ... .. . ... : ... .. . ... : ... .. . ...
ROW 05 : ... .. . ... ... ... ... : ... .. . ... ... ... ... : ... .. . ... : ... .. . ... : ... .. . ...
ROW 06 : ... .. . ... ... ... ... : ... .. 6 ... ... ... ... : ... .. . ... : ... .. 2 ... : ... .. . ...
ROW 07 : ... .. . ... ... ... ... : ... .. . ... ... ... ... : ... .. . ... : ... .. . ... : ... .. . ...
ROW 08 : ... .. . ... ... ... ... : ... .. 5 ... ... ... ... : ... .. . ... : ... .. . ... : ... .. . ...
ROW 09 : ... .. 3 ... ... ... ... : ... .. . ... ... ... ... : ... .. . ... : ... .. 1 ... : ... .. . ...
ROW 0A : ... .. . ... ... ... ... : ... .. 4 ... ... ... ... : ... .. . ... : ... .. . ... : ... .. . ...
ROW 0B : F-3 00 1 ... ... ... ... : ... .. . ... ... ... ... : ... .. . ... : ... .. . ... : ... .. . ...
ROW 0C : ... .. . ... ... ... ... : ... .. 3 ... ... ... ... : ... .. . ... : ... .. . ... : ... .. . ...
ROW 0D : ... .. . ... ... ... ... : ... .. . ... ... ... ... : --- .. . ... : ... .. . ... : ... .. . ...
ROW 0E : D#3 00 5 ... ... ... ... : ... .. 2 ... ... ... ... : F-2 00 . ... : ... .. 0 ... : ... .. . ...
ROW 0F : ... .. . ... ... ... ... : ... .. . ... ... ... ... : --- .. . ... : ... .. . ... : ... .. . ...
ROW 10 : ... .. . ... ... ... ... : ... .. 1 ... ... ... ... : ... .. . ... : ... .. . ... : ... .. . ...
ROW 11 : ... .. . ... ... ... ... : ... .. . ... ... ... ... : ... .. . ... : ... .. . ... : ... .. . ...
ROW 12 : ... .. . ... ... ... ... : ... .. 0 ... ... ... ... : ... .. . ... : ... .. . ... : ... .. . ...
ROW 13 : ... .. . ... ... ... ... : ... .. . ... ... ... ... : ... .. . ... : ... .. . ... : ... .. . ...
ROW 14 : ... .. . ... ... ... ... : ... .. . ... ... ... ... : ... .. . ... : ... .. . ... : ... .. . ...
ROW 15 : ... .. . ... ... ... ... : ... .. 1 ... ... ... ... : ... .. . ... : ... .. 1 ... : ... .. . ...
ROW 16 : ... .. . ... ... ... ... : ... .. . ... ... ... ... : ... .. . ... : ... .. . ... : ... .. . ...
ROW 17 : ... .. 3 ... ... ... ... : ... .. . ... ... ... ... : ... .. . ... : ... .. 0 ... : ... .. . ...
ROW 18 : ... .. . ... ... ... ... : ... .. . ... ... ... ... : ... .. . ... : ... .. . ... : ... .. . ...
ROW 19 : G-3 00 1 ... ... ... ... : ... .. 0 ... ... ... ... : ... .. . ... : ... .. . ... : ... .. . ...
ROW 1A : ... .. . ... ... ... ... : ... .. . ... ... ... ... : ... .. . ... : ... .. . ... : ... .. . ...
ROW 1B : ... .. . ... ... ... ... : ... .. . ... ... ... ... : ... .. . ... : ... .. . ... : ... .. . ...
ROW 1C : F-3 00 5 ... ... ... ... : A#2 00 9 ... ... ... ... : G-2 00 . ... : 6-# 00 4 ... : ... .. . ...
ROW 1D : ... .. . ... ... ... ... : ... .. . ... ... ... ... : ... .. . ... : ... .. . ... : ... .. . ...
ROW 1E : ... .. . ... ... ... ... : ... .. 8 ... ... ... ... : ... .. . ... : ... .. . ... : ... .. . ...
ROW 1F : ... .. . ... ... ... ... : ... .. . ... ... ... ... : ... .. . ... : ... .. 3 ... : ... .. . ...
ROW 20 : ... .. . ... ... ... ... : ... .. 7 ... ... ... ... : ... .. . ... : ... .. . ... : ... .. . ...
ROW 21 : ... .. . ... ... ... ... : ... .. . ... ... ... ... : ... .. . ... : ... .. . ... : ... .. . ...
ROW 22 : ... .. . ... ... ... ... : ... .. 6 ... ... ... ... : ... .. . ... : ... .. 2 ... : ... .. . ...
ROW 23 : ... .. . ... ... ... ... : ... .. . ... ... ... ... : ... .. . ... : ... .. . ... : ... .. . ...
ROW 24 : ... .. . ... ... ... ... : ... .. 5 ... ... ... ... : ... .. . ... : ... .. . ... : ... .. . ...
ROW 25 : ... .. 3 ... ... ... ... : ... .. . ... ... ... ... : ... .. . ... : ... .. 1 ... : ... .. . ...
ROW 26 : ... .. . ... ... ... ... : ... .. 4 ... ... ... ... : ... .. . ... : ... .. . ... : ... .. . ...
ROW 27 : D#3 00 1 ... ... ... ... : ... .. . ... ... ... ... : ... .. . ... : ... .. . ... : ... .. . ...
ROW 28 : ... .. . ... ... ... ... : ... .. 3 ... ... ... ... : ... .. . ... : ... .. . ... : ... .. . ...
ROW 29 : ... .. . ... ... ... ... : ... .. . ... ... ... ... : --- .. . ... : ... .. . ... : ... .. . ...
ROW 2A : D-3 00 5 ... ... ... ... : ... .. 2 ... ... ... ... : G-2 00 . ... : ... .. 0 ... : ... .. . ...
ROW 2B : ... .. . ... ... ... ... : ... .. . ... ... ... ... : --- .. . ... : ... .. . ... : ... .. . ...
ROW 2C : ... .. . ... ... ... ... : ... .. 1 ... ... ... ... : ... .. . ... : ... .. . ... : ... .. . ...
ROW 2D : ... .. . ... ... ... ... : ... .. . ... ... ... ... : ... .. . ... : ... .. . ... : ... .. . ...
ROW 2E : ... .. . ... ... ... ... : ... .. 0 ... ... ... ... : ... .. . ... : ... .. . ... : ... .. . ...
ROW 2F : ... .. . ... ... ... ... : ... .. . ... ... ... ... : ... .. . ... : ... .. . ... : ... .. . ...
ROW 30 : ... .. . ... ... ... ... : ... .. . ... ... ... ... : ... .. . ... : ... .. . ... : ... .. . ...
ROW 31 : ... .. . ... ... ... ... : ... .. 1 ... ... ... ... : ... .. . ... : ... .. 1 ... : ... .. . ...
ROW 32 : ... .. . ... ... ... ... : ... .. . ... ... ... ... : ... .. . ... : ... .. . ... : ... .. . ...
ROW 33 : ... .. 3 ... ... ... ... : ... .. . ... ... ... ... : ... .. . ... : ... .. 0 ... : ... .. . ...
ROW 34 : ... .. . ... ... ... ... : ... .. . ... ... ... ... : ... .. . ... : ... .. . ... : ... .. . ...
ROW 35 : F-3 00 1 ... ... ... ... : ... .. 0 ... ... ... ... : ... .. . ... : ... .. . ... : ... .. . ...
ROW 36 : ... .. . ... ... ... ... : ... .. . ... ... ... ... : ... .. . ... : ... .. . ... : ... .. . ...
ROW 37 : ... .. . ... ... ... ... : ... .. . ... ... ... ... : ... .. . ... : ... .. . ... : ... .. . ...
ROW 38 : D#3 00 5 ... ... ... ... : C-3 00 9 ... ... ... ... : G#2 00 . ... : 2-# 00 4 ... : ... .. . ...
ROW 39 : ... .. . ... ... ... ... : ... .. . ... ... ... ... : ... .. . ... : ... .. . ... : ... .. . ...
ROW 3A : ... .. . ... ... ... ... : ... .. 8 ... ... ... ... : ... .. . ... : ... .. . ... : ... .. . ...
ROW 3B : ... .. . ... ... ... ... : ... .. . ... ... ... ... : ... .. . ... : ... .. 3 ... : ... .. . ...
ROW 3C : ... .. . ... ... ... ... : ... .. 7 ... ... ... ... : ... .. . ... : ... .. . ... : ... .. . ...
ROW 3D : ... .. . ... ... ... ... : ... .. . ... ... ... ... : ... .. . ... : ... .. . ... : ... .. . ...
ROW 3E : ... .. . ... ... ... ... : ... .. 6 ... ... ... ... : ... .. . ... : ... .. 2 ... : ... .. . ...
ROW 3F : ... .. . ... ... ... ... : ... .. . ... ... ... ... : ... .. . ... : ... .. . ... : ... .. . ...
ROW 40 : ... .. . ... ... ... ... : ... .. 5 ... ... ... ... : ... .. . ... : ... .. . ... : ... .. . ...
ROW 41 : ... .. 3 ... ... ... ... : ... .. . ... ... ... ... : ... .. . ... : ... .. 1 ... : ... .. . ...
ROW 42 : ... .. . ... ... ... ... : ... .. 4 ... ... ... ... : ... .. . ... : ... .. . ... : ... .. . ...
ROW 43 : D-3 00 1 ... ... ... ... : ... .. . ... ... ... ... : ... .. . ... : ... .. . ... : ... .. . ...
ROW 44 : ... .. . ... ... ... ... : ... .. 3 ... ... ... ... : ... .. . ... : ... .. . ... : ... .. . ...
ROW 45 : ... .. . ... ... ... ... : ... .. . ... ... ... ... : --- .. . ... : ... .. . ... : ... .. . ...
ROW 46 : C-3 00 5 ... ... ... ... : ... .. 2 ... ... ... ... : G#2 00 . ... : ... .. 0 ... : ... .. . ...
ROW 47 : ... .. . ... ... ... ... : ... .. . ... ... ... ... : --- .. . ... : ... .. . ... : ... .. . ...
ROW 48 : ... .. . ... ... ... ... : ... .. 1 ... ... ... ... : ... .. . ... : ... .. . ... : ... .. . ...
ROW 49 : ... .. . ... ... ... ... : ... .. . ... ... ... ... : ... .. . ... : ... .. . ... : ... .. . ...
ROW 4A : ... .. . ... ... ... ... : ... .. 0 ... ... ... ... : ... .. . ... : ... .. . ... : ... .. . ...
ROW 4B : ... .. . ... ... ... ... : ... .. . ... ... ... ... : ... .. . ... : ... .. . ... : ... .. . ...
ROW 4C : ... .. . ... ... ... ... : ... .. . ... ... ... ... : ... .. . ... : ... .. . ... : ... .. . ...
ROW 4D : ... .. . ... ... ... ... : ... .. 1 ... ... ... ... : ... .. . ... : ... .. 1 ... : ... .. . ...
ROW 4E : ... .. . ... ... ... ... : ... .. . ... ... ... ... : ... .. . ... : ... .. . ... : ... .. . ...
ROW 4F : ... .. 3 ... ... ... ... : ... .. . ... ... ... ... : ... .. . ... : ... .. 0 ... : ... .. . ...
ROW 50 : ... .. . ... ... ... ... : ... .. . ... ... ... ... : ... .. . ... : ... .. . ... : ... .. . ...
ROW 51 : D#3 00 1 ... ... ... ... : ... .. 0 ... ... ... ... : ... .. . ... : ... .. . ... : ... .. . ...
ROW 52 : ... .. . ... ... ... ... : ... .. . ... ... ... ... : ... .. . ... : ... .. . ... : ... .. . ...
ROW 53 : ... .. . ... ... ... ... : ... .. . ... ... ... ... : ... .. . ... : ... .. . ... : ... .. . ...
ROW 54 : D-3 00 5 ... ... ... ... : A#2 00 9 ... ... ... ... : G-2 00 . ... : 6-# 00 6 ... : ... .. . ...
ROW 55 : ... .. . ... ... ... ... : ... .. . ... ... ... ... : ... .. . ... : ... .. . ... : ... .. . ...
ROW 56 : ... .. . ... ... ... ... : ... .. 8 ... ... ... ... : ... .. . ... : ... .. 5 ... : ... .. . ...
ROW 57 : ... .. . ... ... ... ... : ... .. . ... ... ... ... : ... .. . ... : ... .. . ... : ... .. . ...
ROW 58 : ... .. . ... ... ... ... : ... .. 7 ... ... ... ... : ... .. . ... : ... .. 4 ... : ... .. . ...
ROW 59 : ... .. . ... ... ... ... : ... .. . ... ... ... ... : ... .. . ... : ... .. . ... : ... .. . ...
ROW 5A : ... .. . ... ... ... ... : ... .. 6 ... ... ... ... : ... .. . ... : ... .. 3 ... : ... .. . ...
ROW 5B : ... .. . ... ... ... ... : ... .. . ... ... ... ... : ... .. . ... : ... .. . ... : ... .. . ...
ROW 5C : ... .. . ... ... ... ... : ... .. 5 ... ... ... ... : ... .. . ... : ... .. 2 ... : ... .. . ...
ROW 5D : ... .. 3 ... ... ... ... : ... .. . ... ... ... ... : ... .. . ... : ... .. 1 ... : ... .. . ...
ROW 5E : ... .. . ... ... ... ... : ... .. 4 ... ... ... ... : ... .. . ... : 2-# 00 3 ... : ... .. . ...
ROW 5F : C-3 00 1 ... ... ... ... : ... .. . ... ... ... ... : ... .. . ... : ... .. . ... : ... .. . ...
ROW 60 : ... .. . ... ... ... ... : ... .. 3 ... ... ... ... : ... .. . ... : ... .. . ... : ... .. . ...
ROW 61 : ... .. . ... ... ... ... : ... .. . ... ... ... ... : --- .. . ... : ... .. 2 ... : ... .. . ...
ROW 62 : A#3 00 5 V00 ... ... P81 : ... .. 2 ... ... ... ... : G-2 00 . ... : ... .. . ... : ... .. . ...
ROW 63 : ... .. . ... ... ... ... : ... .. . ... ... ... ... : --- .. . ... : ... .. . ... : ... .. . ...
ROW 64 : ... .. . ... ... ... P80 : ... .. 1 ... ... ... ... : ... .. . ... : ... .. 1 ... : ... .. . ...
ROW 65 : ... .. . ... ... ... P7F : ... .. . ... ... ... ... : ... .. . ... : ... .. . ... : ... .. . ...
ROW 66 : ... .. . ... ... ... ... : ... .. 0 ... ... ... ... : ... .. . ... : ... .. . ... : ... .. . ...
ROW 67 : ... .. . ... ... ... P80 : ... .. . ... ... ... ... : ... .. . ... : 2-# 00 3 ... : ... .. . ...
ROW 68 : ... .. . ... ... ... ... : ... .. . ... ... ... ... : ... .. . ... : ... .. . ... : ... .. . ...
ROW 69 : ... .. . ... ... ... P81 : ... .. 1 ... ... ... ... : ... .. . ... : ... .. . ... : ... .. . ...
ROW 6A : ... .. . ... ... ... P80 : ... .. . ... ... ... ... : ... .. . ... : ... .. 2 ... : ... .. . ...
ROW 6B : ... .. 3 ... ... ... ... : ... .. . ... ... ... ... : ... .. . ... : ... .. . ... : ... .. . ...
ROW 6C : ... .. . ... ... ... P7F : ... .. . ... ... ... ... : ... .. . ... : ... .. . ... : ... .. . ...
ROW 6D : D-3 00 1 ... ... ... P80 : ... .. 0 ... ... ... ... : ... .. . ... : ... .. 1 ... : ... .. . ...
ROW 6E : ... .. . ... ... ... ... : ... .. . ... ... ... ... : ... .. . ... : ... .. . ... : ... .. . ...
ROW 6F : ... .. . ... ... ... P81 : ... .. . ... ... ... ... : ... .. . ... : ... .. . ... : ... .. . ...
ROW 70 : A#3 00 6 ... ... ... P81 : G#3 00 6 V01 ... ... ... : F-2 00 . ... : 2-# 00 4 ... : ... .. . ...
ROW 71 : ... .. . ... ... ... ... : ... .. 5 ... ... ... ... : ... .. . ... : ... .. . ... : ... .. . ...
ROW 72 : ... .. . ... ... ... P80 : G#4 00 4 ... ... ... ... : ... .. . ... : ... .. . ... : ... .. . ...
ROW 73 : ... .. . ... ... ... P7F : ... .. 3 ... ... ... ... : ... .. . ... : ... .. 3 ... : ... .. . ...
ROW 74 : ... .. 5 ... ... ... ... : ... .. 2 ... ... ... ... : ... .. . ... : ... .. . ... : ... .. . ...
ROW 75 : ... .. . ... ... ... P80 : ... .. 1 ... ... ... ... : ... .. . ... : ... .. . ... : ... .. . ...
ROW 76 : ... .. . ... ... ... ... : ... .. . ... ... ... ... : ... .. . ... : ... .. 2 ... : ... .. . ...
ROW 77 : ... .. . ... ... ... P81 : C-4 00 6 ... ... ... ... : ... .. . ... : ... .. . ... : ... .. . ...
ROW 78 : ... .. . ... ... ... P80 : ... .. 5 ... ... ... ... : ... .. . ... : ... .. . ... : ... .. . ...
ROW 79 : ... .. . ... ... ... ... : C-5 00 4 ... ... ... ... : ... .. . ... : ... .. 1 ... : ... .. . ...
ROW 7A : ... .. . ... ... ... P7F : ... .. 3 ... ... ... ... : ... .. . ... : ... .. . ... : ... .. . ...
ROW 7B : ... .. . ... ... ... P80 : G#3 .. 2 ... ... ... ... : ... .. . ... : ... .. . ... : ... .. . ...
ROW 7C : ... .. 1 ... ... ... ... : ... .. 1 ... ... ... ... : ... .. . ... : ... .. 0 ... : ... .. . ...
ROW 7D : ... .. . ... ... ... P81 : ... .. . ... ... ... ... : --- .. . ... : ... .. . ... : ... .. . ...
ROW 7E : G-3 00 6 ... ... ... P81 : D#4 00 6 ... ... ... ... : F-2 00 . ... : ... .. . ... : ... .. . ...
ROW 7F : ... .. . ... ... ... ... : ... .. 5 ... ... ... ... : --- .. . ... : ... .. . ... : ... .. . ...
ROW 80 : ... .. . ... ... ... P80 : D#5 00 4 ... ... ... ... : ... .. . ... : ... .. . ... : ... .. . ...
ROW 81 : ... .. . ... ... ... P7F : ... .. 3 ... ... ... ... : ... .. . ... : ... .. . ... : ... .. . ...
ROW 82 : ... .. 5 ... ... ... ... : C-4 .. 2 ... ... ... ... : ... .. . ... : ... .. . ... : ... .. . ...
ROW 83 : ... .. . ... ... ... P80 : ... .. 1 ... ... ... ... : ... .. . ... : ... .. . ... : ... .. . ...
ROW 84 : ... .. . ... ... ... ... : ... .. . ... ... ... ... : ... .. . ... : ... .. . ... : ... .. . ...
ROW 85 : ... .. . ... ... ... P81 : G#4 00 6 ... ... ... ... : ... .. . ... : ... .. 1 ... : ... .. . ...
ROW 86 : ... .. . ... ... ... P80 : ... .. 5 ... ... ... ... : ... .. . ... : ... .. 0 ... : ... .. . ...
ROW 87 : ... .. . ... ... ... ... : G#5 00 4 ... ... ... ... : ... .. . ... : ... .. . ... : ... .. . ...
ROW 88 : ... .. . ... ... ... P7F : ... .. 3 ... ... ... ... : ... .. . ... : ... .. . ... : ... .. . ...
ROW 89 : A#3 00 2 ... ... ... P80 : D#4 .. 2 ... ... ... ... : ... .. . ... : ... .. . ... : ... .. . ...
ROW 8A : ... .. . ... ... ... ... : ... .. 1 ... ... ... ... : ... .. . ... : ... .. . ... : ... .. . ...
ROW 8B : ... .. . ... ... ... P81 : ... .. . ... ... ... ... : ... .. . ... : ... .. . ... : ... .. . ...
ROW 8C : G#3 00 6 ... ... ... P81 : G-3 00 6 ... ... ... ... : G-2 00 . ... : 6-# 00 4 ... : ... .. . ...
ROW 8D : ... .. . ... ... ... ... : ... .. 5 ... ... ... ... : ... .. . ... : ... .. . ... : ... .. . ...
ROW 8E : ... .. . ... ... ... P80 : G-4 00 4 ... ... ... ... : ... .. . ... : ... .. . ... : ... .. . ...
ROW 8F : ... .. . ... ... ... P7F : ... .. 3 ... ... ... ... : ... .. . ... : ... .. 3 ... : ... .. . ...
ROW 90 : ... .. 5 ... ... ... ... : G#4 .. 2 ... ... ... ... : ... .. . ... : ... .. . ... : ... .. . ...
ROW 91 : ... .. . ... ... ... P80 : ... .. 1 ... ... ... ... : ... .. . ... : ... .. . ... : ... .. . ...
ROW 92 : ... .. . ... ... ... ... : ... .. . ... ... ... ... : ... .. . ... : ... .. 2 ... : ... .. . ...
ROW 93 : ... .. . ... ... ... P81 : A#3 00 6 ... ... ... ... : ... .. . ... : ... .. . ... : ... .. . ...
ROW 94 : ... .. . ... ... ... P80 : ... .. 5 ... ... ... ... : ... .. . ... : ... .. . ... : ... .. . ...
ROW 95 : ... .. . ... ... ... ... : A#4 00 4 ... ... ... ... : ... .. . ... : ... .. 1 ... : ... .. . ...
ROW 96 : ... .. . ... ... ... P7F : ... .. 3 ... ... ... ... : ... .. . ... : ... .. . ... : ... .. . ...
ROW 97 : G-3 00 2 ... ... ... P80 : G-3 .. 2 ... ... ... ... : ... .. . ... : ... .. . ... : ... .. . ...
ROW 98 : ... .. . ... ... ... ... : ... .. 1 ... ... ... ... : ... .. . ... : ... .. 0 ... : ... .. . ...
ROW 99 : ... .. . ... ... ... P81 : ... .. . ... ... ... ... : --- .. . ... : ... .. . ... : ... .. . ...
ROW 9A : F-3 00 6 ... ... ... P81 : D-4 00 6 ... ... ... ... : G-2 00 . ... : ... .. . ... : ... .. . ...
ROW 9B : ... .. . ... ... ... ... : ... .. 5 ... ... ... ... : --- .. . ... : ... .. . ... : ... .. . ...
ROW 9C : ... .. . ... ... ... P80 : D-5 00 4 ... ... ... ... : ... .. . ... : ... .. . ... : ... .. . ...
ROW 9D : ... .. . ... ... ... P7F : ... .. 3 ... ... ... ... : ... .. . ... : ... .. . ... : ... .. . ...
ROW 9E : ... .. 5 ... ... ... ... : A#3 .. 2 ... ... ... ... : ... .. . ... : ... .. . ... : ... .. . ...
ROW 9F : ... .. . ... ... ... P80 : ... .. 1 ... ... ... ... : ... .. . ... : ... .. . ... : ... .. . ...
ROW A0 : ... .. . ... ... ... ... : ... .. . ... ... ... ... : ... .. . ... : ... .. . ... : ... .. . ...
ROW A1 : ... .. . ... ... ... P81 : G-4 00 6 ... ... ... ... : ... .. . ... : ... .. 1 ... : ... .. . ...
ROW A2 : ... .. . ... ... ... P80 : ... .. 5 ... ... ... ... : ... .. . ... : ... .. 0 ... : ... .. . ...
ROW A3 : ... .. . ... ... ... ... : G-5 00 4 ... ... ... ... : ... .. . ... : ... .. . ... : ... .. . ...
ROW A4 : ... .. . ... ... ... P7F : ... .. 3 ... ... ... ... : ... .. . ... : ... .. . ... : ... .. . ...
ROW A5 : G#3 00 2 ... ... ... P80 : D-4 .. 2 ... ... ... ... : ... .. . ... : ... .. . ... : ... .. . ...
ROW A6 : ... .. . ... ... ... ... : ... .. 1 ... ... ... ... : ... .. . ... : ... .. . ... : ... .. . ...
ROW A7 : ... .. . ... ... ... P81 : ... .. . ... ... ... ... : ... .. . ... : ... .. . ... : ... .. . ...
ROW A8 : G-3 00 6 ... ... ... P81 : C-4 00 6 ... ... ... ... : G#2 00 . ... : 2-# 00 4 ... : ... .. . ...
ROW A9 : ... .. . ... ... ... ... : ... .. 5 ... ... ... ... : ... .. . ... : ... .. . ... : ... .. . ...
ROW AA : ... .. . ... ... ... P80 : C-5 00 4 ... ... ... ... : ... .. . ... : ... .. . ... : ... .. . ...
ROW AB : ... .. . ... ... ... P7F : ... .. 3 ... ... ... ... : ... .. . ... : ... .. 3 ... : ... .. . ...
ROW AC : ... .. 5 ... ... ... ... : F-4 .. 2 ... ... ... ... : ... .. . ... : ... .. . ... : ... .. . ...
ROW AD : ... .. . ... ... ... P80 : ... .. 1 ... ... ... ... : ... .. . ... : ... .. . ... : ... .. . ...
ROW AE : ... .. . ... ... ... ... : ... .. . ... ... ... ... : ... .. . ... : ... .. 2 ... : ... .. . ...
ROW AF : ... .. . ... ... ... P81 : D#4 00 6 ... ... ... ... : ... .. . ... : ... .. . ... : ... .. . ...
ROW B0 : ... .. . ... ... ... P80 : ... .. 5 ... ... ... ... : ... .. . ... : ... .. . ... : ... .. . ...
ROW B1 : ... .. . ... ... ... ... : D#5 00 4 ... ... ... ... : ... .. . ... : ... .. 1 ... : ... .. . ...
ROW B2 : ... .. . ... ... ... P7F : ... .. 3 ... ... ... ... : ... .. . ... : ... .. . ... : ... .. . ...
ROW B3 : F-3 00 2 ... ... ... P80 : G#3 .. 2 ... ... ... ... : ... .. . ... : ... .. . ... : ... .. . ...
ROW B4 : ... .. . ... ... ... ... : ... .. 1 ... ... ... ... : ... .. . ... : ... .. 0 ... : ... .. . ...
ROW B5 : ... .. . ... ... ... P81 : ... .. . ... ... ... ... : --- .. . ... : ... .. . ... : ... .. . ...
ROW B6 : D#3 00 6 ... ... ... P81 : G#4 00 6 ... ... ... ... : G#2 00 . ... : ... .. . ... : ... .. . ...
ROW B7 : ... .. . ... ... ... ... : ... .. 5 ... ... ... ... : --- .. . ... : ... .. . ... : ... .. . ...
ROW B8 : ... .. . ... ... ... P80 : G#5 00 4 ... ... ... ... : ... .. . ... : ... .. . ... : ... .. . ...
ROW B9 : ... .. . ... ... ... P7F : ... .. 3 ... ... ... ... : ... .. . ... : ... .. . ... : ... .. . ...
ROW BA : ... .. 5 ... ... ... ... : C-4 .. 2 ... ... ... ... : ... .. . ... : ... .. . ... : ... .. . ...
ROW BB : ... .. . ... ... ... P80 : ... .. 1 ... ... ... ... : ... .. . ... : ... .. . ... : ... .. . ...
ROW BC : ... .. . ... ... ... ... : ... .. . ... ... ... ... : ... .. . ... : ... .. . ... : ... .. . ...
ROW BD : ... .. . ... ... ... P81 : C-5 00 6 ... ... ... ... : ... .. . ... : ... .. 1 ... : ... .. . ...
ROW BE : ... .. . ... ... ... P80 : ... .. 5 ... ... ... ... : ... .. . ... : ... .. 0 ... : ... .. . ...
ROW BF : ... .. . ... ... ... ... : C-6 00 4 ... ... ... ... : ... .. . ... : ... .. . ... : ... .. . ...
ROW C0 : ... .. . ... ... ... P7F : ... .. 3 ... ... ... ... : ... .. . ... : ... .. . ... : ... .. . ...
ROW C1 : G-3 00 2 ... ... ... P80 : D#4 .. 2 ... ... ... ... : ... .. . ... : ... .. . ... : ... .. . ...
ROW C2 : ... .. . ... ... ... ... : ... .. 1 ... ... ... ... : ... .. . ... : ... .. . ... : ... .. . ...
ROW C3 : ... .. . ... ... ... P81 : ... .. . ... ... ... ... : ... .. . ... : ... .. . ... : ... .. . ...
ROW C4 : F-3 00 6 ... ... ... P81 : A#3 00 6 ... ... ... ... : G-2 00 . ... : 6-# 00 6 ... : ... .. . ...
ROW C5 : ... .. . ... ... ... ... : ... .. 5 ... ... ... ... : ... .. . ... : ... .. . ... : ... .. . ...
ROW C6 : ... .. . ... ... ... P80 : A#4 00 4 ... ... ... ... : ... .. . ... : ... .. 5 ... : ... .. . ...
ROW C7 : ... .. . ... ... ... P7F : ... .. 3 ... ... ... ... : ... .. . ... : ... .. . ... : ... .. . ...
ROW C8 : ... .. 5 ... ... ... ... : G#4 .. 2 ... ... ... ... : ... .. . ... : ... .. 4 ... : ... .. . ...
ROW C9 : ... .. . ... ... ... P80 : ... .. 1 ... ... ... ... : ... .. . ... : ... .. . ... : ... .. . ...
ROW CA : ... .. . ... ... ... ... : ... .. . ... ... ... ... : ... .. . ... : ... .. 3 ... : ... .. . ...
ROW CB : ... .. . ... ... ... P81 : D-4 00 6 ... ... ... ... : ... .. . ... : ... .. . ... : ... .. . ...
ROW CC : ... .. . ... ... ... P80 : ... .. 5 ... ... ... ... : ... .. . ... : ... .. 2 ... : ... .. . ...
ROW CD : ... .. . ... ... ... ... : D-5 00 4 ... ... ... ... : ... .. . ... : ... .. 1 ... : ... .. . ...
ROW CE : ... .. . ... ... ... P7F : ... .. 3 ... ... ... ... : ... .. . ... : 2-# 00 3 ... : ... .. . ...
ROW CF : D#3 00 2 ... ... ... P80 : A#3 .. 2 ... ... ... ... : ... .. . ... : ... .. . ... : ... .. . ...
ROW D0 : ... .. . ... ... ... ... : ... .. 1 ... ... ... ... : ... .. . ... : ... .. . ... : ... .. . ...
ROW D1 : ... .. . ... ... ... P81 : ... .. . ... ... ... ... : --- .. . ... : ... .. 2 ... : ... .. . ...
ROW D2 : C-4 00 7 V01 ... ... P80 : F-4 00 6 ... ... ... ... : G-2 00 . ... : ... .. . ... : ... .. . ...
ROW D3 : ... .. . V01 ... ... ... : ... .. 5 ... ... ... ... : --- .. . ... : ... .. . ... : ... .. . ...
ROW D4 : ... .. 6 ... ... ... ... : F-5 00 4 ... ... ... ... : ... .. . ... : ... .. 1 ... : ... .. . ...
ROW D5 : ... .. . ... ... ... ... : ... .. 3 ... ... ... ... : ... .. . ... : ... .. . ... : ... .. . ...
ROW D6 : ... .. 5 ... ... ... ... : D-4 .. 2 ... ... ... ... : ... .. . ... : ... .. . ... : ... .. . ...
ROW D7 : ... .. . ... ... ... ... : ... .. 1 ... ... ... ... : ... .. . ... : 2-# 00 3 ... : ... .. . ...
ROW D8 : ... .. . ... ... ... ... : ... .. . ... ... ... ... : ... .. . ... : ... .. . ... : ... .. . ...
ROW D9 : ... .. . ... ... ... ... : A#4 00 6 ... ... ... ... : ... .. . ... : ... .. . ... : ... .. . ...
ROW DA : ... .. . ... ... ... ... : ... .. 5 ... ... ... ... : ... .. . ... : ... .. 2 ... : ... .. . ...
ROW DB : ... .. . ... ... ... ... : A#5 00 4 ... ... ... ... : ... .. . ... : ... .. . ... : ... .. . ...
ROW DC : ... .. . ... ... ... ... : ... .. 3 ... ... ... ... : ... .. . ... : ... .. . ... : ... .. . ...
ROW DD : ... .. 2 ... ... ... ... : F-4 .. 2 ... ... ... ... : ... .. . ... : ... .. 1 ... : ... .. . ...
ROW DE : ... .. . ... ... ... ... : ... .. 1 ... ... ... ... : ... .. . ... : ... .. . ... : ... .. . ...
ROW DF : ... .. . ... ... ... ... : ... .. . ... ... ... ... : ... .. . ... : ... .. . ... : ... .. . ...

PATTERN 3B
ROW 00 : C-4 00 7 V02 ... ... ... : C-4 00 6 V01 ... ... ... : F-2 00 . ... : 2-# 00 4 ... : ... .. . ...
ROW 01 : ... .. . V01 ... ... ... : ... .. 5 ... ... ... ... : ... .. . ... : ... .. . ... : ... .. . ...
ROW 02 : ... .. 6 ... ... ... ... : C-5 00 4 ... ... ... ... : ... .. . ... : ... .. . ... : ... .. . ...
ROW 03 : ... .. . ... ... ... ... : ... .. 3 ... ... ... ... : ... .. . ... : ... .. 3 ... : ... .. . ...
ROW 04 : ... .. 5 ... ... ... ... : ... .. 2 ... ... ... ... : ... .. . ... : ... .. . ... : ... .. . ...
ROW 05 : ... .. . ... ... ... ... : ... .. 1 ... ... ... ... : --- .. . ... : ... .. . ... : ... .. . ...
ROW 06 : ... .. . ... ... ... ... : ... .. . ... ... ... ... : ... .. . ... : ... .. 2 ... : ... .. . ...
ROW 07 : ... .. . ... ... ... ... : D#4 00 6 ... ... ... ... : G#2 00 . ... : ... .. . ... : ... .. . ...
ROW 08 : ... .. . ... ... ... ... : ... .. 5 ... ... ... ... : ... .. . ... : ... .. . ... : ... .. . ...
ROW 09 : ... .. . ... ... ... ... : D#5 00 4 ... ... ... ... : ... .. . ... : ... .. 1 ... : ... .. . ...
ROW 0A : ... .. . ... ... ... ... : ... .. 3 ... ... ... ... : ... .. . ... : ... .. . ... : ... .. . ...
ROW 0B : ... .. 2 ... ... ... ... : C-4 00 2 ... ... ... ... : ... .. . ... : ... .. . ... : ... .. . ...
ROW 0C : ... .. . ... ... ... ... : ... .. 1 ... ... ... ... : --- .. . ... : ... .. . ... : ... .. . ...
ROW 0D : ... .. . ... ... ... ... : ... .. . ... ... ... ... : ... .. . ... : ... .. . ... : ... .. . ...
ROW 0E : A#3 00 7 V02 ... ... ... : G#4 00 6 ... ... ... ... : C-3 00 . ... : 2-# 00 4 ... : ... .. . ...
ROW 0F : ... .. . V01 ... ... ... : ... .. 5 ... ... ... ... : ... .. . ... : ... .. . ... : ... .. . ...
ROW 10 : ... .. 6 ... ... ... ... : G#5 00 4 ... ... ... ... : ... .. . ... : ... .. . ... : ... .. . ...
ROW 11 : ... .. . ... ... ... ... : ... .. 3 ... ... ... ... : ... .. . ... : ... .. 3 ... : ... .. . ...
ROW 12 : ... .. 5 ... ... ... ... : D#4 00 2 ... ... ... ... : ... .. . ... : ... .. . ... : ... .. . ...
ROW 13 : ... .. . ... ... ... ... : ... .. 1 ... ... ... ... : --- .. . ... : ... .. . ... : ... .. . ...
ROW 14 : ... .. . ... ... ... ... : ... .. . ... ... ... ... : ... .. . ... : ... .. 2 ... : ... .. . ...
ROW 15 : ... .. . ... ... ... ... : C-5 00 6 ... ... ... ... : D#3 00 . ... : ... .. . ... : ... .. . ...
ROW 16 : ... .. . ... ... ... ... : ... .. 5 ... ... ... ... : ... .. . ... : ... .. . ... : ... .. . ...
ROW 17 : ... .. . ... ... ... ... : C-6 00 4 ... ... ... ... : ... .. . ... : ... .. 1 ... : ... .. . ...
ROW 18 : ... .. . ... ... ... ... : ... .. 3 ... ... ... ... : ... .. . ... : ... .. . ... : ... .. . ...
ROW 19 : C-4 00 2 V02 ... ... ... : G#4 00 2 ... ... ... ... : ... .. . ... : ... .. . ... : ... .. . ...
ROW 1A : ... .. . V01 ... ... ... : ... .. 1 ... ... ... ... : --- .. . ... : ... .. . ... : ... .. . ...
ROW 1B : ... .. . ... ... ... ... : ... .. . ... ... ... ... : ... .. . ... : ... .. . ... : ... .. . ...
ROW 1C : G#3 00 7 V02 ... ... ... : D-4 00 6 ... ... ... ... : G-2 00 . ... : 6-# 00 4 ... : ... .. . ...
ROW 1D : ... .. . V01 ... ... ... : ... .. 5 ... ... ... ... : ... .. . ... : ... .. . ... : ... .. . ...
ROW 1E : ... .. 6 ... ... ... ... : D-5 00 4 ... ... ... ... : ... .. . ... : ... .. . ... : ... .. . ...
ROW 1F : ... .. . ... ... ... ... : ... .. 3 ... ... ... ... : ... .. . ... : ... .. 3 ... : ... .. . ...
ROW 20 : ... .. 5 ... ... ... ... : C-5 00 2 ... ... ... ... : ... .. . ... : ... .. . ... : ... .. . ...
ROW 21 : ... .. . ... ... ... ... : ... .. 1 ... ... ... ... : --- .. . ... : ... .. . ... : ... .. . ...
ROW 22 : ... .. . ... ... ... ... : ... .. . ... ... ... ... : ... .. . ... : ... .. 2 ... : ... .. . ...
ROW 23 : ... .. . ... ... ... ... : F-4 00 6 ... ... ... ... : A#2 00 . ... : ... .. . ... : ... .. . ...
ROW 24 : ... .. . ... ... ... ... : ... .. 5 ... ... ... ... : ... .. . ... : ... .. . ... : ... .. . ...
ROW 25 : ... .. . ... ... ... ... : F-5 00 4 ... ... ... ... : ... .. . ... : ... .. 1 ... : ... .. . ...
ROW 26 : ... .. . ... ... ... ... : ... .. 3 ... ... ... ... : ... .. . ... : ... .. . ... : ... .. . ...
ROW 27 : A#3 00 2 V02 ... ... ... : D-4 00 2 ... ... ... ... : ... .. . ... : ... .. . ... : ... .. . ...
ROW 28 : ... .. . V01 ... ... ... : ... .. 1 ... ... ... ... : --- .. . ... : ... .. . ... : ... .. . ...
ROW 29 : ... .. . ... ... ... ... : ... .. . ... ... ... ... : ... .. . ... : ... .. . ... : ... .. . ...
ROW 2A : A#3 00 7 V02 ... ... ... : A#4 00 6 ... ... ... ... : D-3 00 . ... : ... .. 0 ... : ... .. . ...
ROW 2B : ... .. . V01 ... ... ... : ... .. 5 ... ... ... ... : ... .. . ... : ... .. . ... : ... .. . ...
ROW 2C : ... .. 6 ... ... ... ... : A#5 00 4 ... ... ... ... : ... .. . ... : ... .. . ... : ... .. . ...
ROW 2D : ... .. . ... ... ... ... : ... .. 3 ... ... ... ... : ... .. . ... : ... .. . ... : ... .. . ...
ROW 2E : ... .. 5 ... ... ... ... : F-4 00 2 ... ... ... ... : ... .. . ... : ... .. . ... : ... .. . ...
ROW 2F : ... .. . ... ... ... ... : ... .. 1 ... ... ... ... : --- .. . ... : ... .. . ... : ... .. . ...
ROW 30 : ... .. . ... ... ... ... : ... .. . ... ... ... ... : ... .. . ... : ... .. . ... : ... .. . ...
ROW 31 : ... .. . ... ... ... ... : D-5 00 6 ... ... ... ... : F-3 00 . ... : ... .. 1 ... : ... .. . ...
ROW 32 : ... .. . ... ... ... ... : ... .. 5 ... ... ... ... : ... .. . ... : ... .. . ... : ... .. . ...
ROW 33 : ... .. . ... ... ... ... : D-6 00 4 ... ... ... ... : ... .. . ... : ... .. 0 ... : ... .. . ...
ROW 34 : ... .. . ... ... ... ... : ... .. 3 ... ... ... ... : ... .. . ... : ... .. . ... : ... .. . ...
ROW 35 : G#3 00 2 V02 ... ... ... : A#4 00 2 ... ... ... ... : ... .. . ... : ... .. . ... : ... .. . ...
ROW 36 : ... .. . V01 ... ... ... : ... .. 1 ... ... ... ... : --- .. . ... : ... .. . ... : ... .. . ...
ROW 37 : ... .. . ... ... ... ... : ... .. . ... ... ... ... : ... .. . ... : ... .. . ... : ... .. . ...
ROW 38 : C-4 00 7 V02 ... ... ... : D#4 00 6 ... ... ... ... : G#2 00 . ... : 2-# 00 4 ... : ... .. . ...
ROW 39 : ... .. . V01 ... ... ... : ... .. 5 ... ... ... ... : ... .. . ... : ... .. . ... : ... .. . ...
ROW 3A : ... .. 6 ... ... ... ... : D#5 00 4 ... ... ... ... : ... .. . ... : ... .. . ... : ... .. . ...
ROW 3B : ... .. . ... ... ... ... : ... .. 3 ... ... ... ... : ... .. . ... : ... .. 3 ... : ... .. . ...
ROW 3C : ... .. 5 ... ... ... ... : D-5 00 2 ... ... ... ... : ... .. . ... : ... .. . ... : ... .. . ...
ROW 3D : ... .. . ... ... ... ... : ... .. 1 ... ... ... ... : --- .. . ... : ... .. . ... : ... .. . ...
ROW 3E : ... .. . ... ... ... ... : ... .. . ... ... ... ... : ... .. . ... : ... .. 2 ... : ... .. . ...
ROW 3F : ... .. . ... ... ... ... : G#4 00 6 ... ... ... ... : C-3 00 . ... : ... .. . ... : ... .. . ...
ROW 40 : ... .. . ... ... ... ... : ... .. 5 ... ... ... ... : ... .. . ... : ... .. . ... : ... .. . ...
ROW 41 : ... .. . ... ... ... ... : G#5 00 4 ... ... ... ... : ... .. . ... : ... .. 1 ... : ... .. . ...
ROW 42 : ... .. . ... ... ... ... : ... .. 3 ... ... ... ... : ... .. . ... : ... .. . ... : ... .. . ...
ROW 43 : A#3 00 2 V02 ... ... ... : D#4 00 2 ... ... ... ... : ... .. . ... : ... .. . ... : ... .. . ...
ROW 44 : ... .. . V01 ... ... ... : ... .. 1 ... ... ... ... : --- .. . ... : ... .. . ... : ... .. . ...
ROW 45 : ... .. . ... ... ... ... : ... .. . ... ... ... ... : ... .. . ... : ... .. . ... : ... .. . ...
ROW 46 : A#3 00 7 V02 ... ... ... : C-5 00 6 ... ... ... ... : D#3 00 . ... : 2-# 00 4 ... : ... .. . ...
ROW 47 : ... .. . V01 ... ... ... : ... .. 5 ... ... ... ... : ... .. . ... : ... .. . ... : ... .. . ...
ROW 48 : ... .. 6 ... ... ... ... : C-6 00 4 ... ... ... ... : ... .. . ... : ... .. . ... : ... .. . ...
ROW 49 : ... .. . ... ... ... ... : ... .. 3 ... ... ... ... : ... .. . ... : ... .. 3 ... : ... .. . ...
ROW 4A : ... .. 5 ... ... ... ... : G#4 00 2 ... ... ... ... : ... .. . ... : ... .. . ... : ... .. . ...
ROW 4B : ... .. . ... ... ... ... : ... .. 1 ... ... ... ... : --- .. . ... : ... .. . ... : ... .. . ...
ROW 4C : ... .. . ... ... ... ... : ... .. . ... ... ... ... : ... .. . ... : ... .. 2 ... : ... .. . ...
ROW 4D : ... .. . ... ... ... ... : D#5 00 6 ... ... ... ... : G#3 00 . ... : ... .. . ... : ... .. . ...
ROW 4E : ... .. . ... ... ... ... : ... .. 5 ... ... ... ... : ... .. . ... : ... .. . ... : ... .. . ...
ROW 4F : ... .. . ... ... ... ... : D#6 00 4 ... ... ... ... : ... .. . ... : ... .. 1 ... : ... .. . ...
ROW 50 : ... .. . ... ... ... ... : ... .. 3 ... ... ... ... : ... .. . ... : ... .. . ... : ... .. . ...
ROW 51 : C-4 00 2 V02 ... ... ... : C-5 00 2 ... ... ... ... : ... .. . ... : ... .. . ... : ... .. . ...
ROW 52 : ... .. . V01 ... ... ... : ... .. 1 ... ... ... ... : --- .. . ... : ... .. . ... : ... .. . ...
ROW 53 : ... .. . ... ... ... ... : ... .. . ... ... ... ... : ... .. . ... : ... .. . ... : ... .. . ...
ROW 54 : D-4 00 7 V02 ... ... ... : F-4 00 6 ... ... ... ... : G-2 00 . ... : 0-# 00 . ... : ... .. . ...
ROW 55 : ... .. . V01 ... ... ... : ... .. 5 ... ... ... ... : ... .. . ... : ... .. . ... : ... .. . ...
ROW 56 : ... .. 6 ... ... ... ... : F-5 00 4 ... ... ... ... : ... .. . ... : ... .. . ... : ... .. . ...
ROW 57 : ... .. . ... ... ... ... : ... .. 3 ... ... ... ... : ... .. . ... : ... .. . ... : ... .. . ...
ROW 58 : ... .. 5 ... ... ... ... : D#5 00 2 ... ... ... ... : ... .. . ... : ... .. . ... : ... .. . ...
ROW 59 : ... .. . ... ... ... ... : ... .. 1 ... ... ... ... : ... .. . ... : ... .. . ... : ... .. . ...
ROW 5A : ... .. . ... ... ... ... : ... .. . ... ... ... ... : ... .. . ... : ... .. . ... : ... .. . ...
ROW 5B : ... .. . ... ... ... ... : A#4 00 6 ... ... ... ... : ... .. . ... : ... .. . ... : ... .. . ...
ROW 5C : ... .. . ... ... ... ... : ... .. 5 ... ... ... ... : ... .. . ... : ... .. . ... : ... .. . ...
ROW 5D : ... .. . ... ... ... ... : A#5 00 4 ... ... ... ... : ... .. . ... : ... .. . ... : ... .. . ...
ROW 5E : ... .. . ... ... ... ... : ... .. 3 ... ... ... ... : ... .. . ... : ... .. . ... : ... .. . ...
ROW 5F : ... .. . ... ... ... ... : F-4 00 2 ... ... ... ... : --- .. . ... : ... .. . ... : ... .. . ...
ROW 60 : ... .. . ... ... ... ... : ... .. 1 ... ... ... ... : ... .. . ... : ... .. . ... : ... .. . ...
ROW 61 : ... .. . ... ... ... ... : ... .. . ... ... ... ... : ... .. . ... : ... .. . ... : ... .. . ...
ROW 62 : ... .. . ... ... ... ... : D-5 00 6 ... ... ... ... : G-2 00 . ... : ... .. . ... : ... .. . ...
ROW 63 : ... .. . ... ... ... ... : ... .. 5 ... ... ... ... : ... .. . ... : ... .. . ... : ... .. . ...
ROW 64 : ... .. . ... ... ... ... : D-6 00 4 ... ... ... ... : ... .. . ... : ... .. . ... : ... .. . ...
ROW 65 : ... .. . ... ... ... ... : ... .. 3 ... ... ... ... : ... .. . ... : ... .. . ... : ... .. . ...
ROW 66 : ... .. . ... ... ... ... : A#4 00 2 ... ... ... ... : ... .. . ... : ... .. . ... : ... .. . ...
ROW 67 : ... .. . ... ... ... ... : ... .. 1 ... ... ... ... : --- .. . ... : ... .. . ... : ... .. . ...
ROW 68 : ... .. . ... ... ... ... : ... .. . ... ... ... ... : ... .. . ... : ... .. . ... : ... .. . ...
ROW 69 : ... .. . ... ... ... ... : F-5 00 6 ... ... ... ... : G-2 00 . ... : ... .. . ... : ... .. . ...
ROW 6A : ... .. . ... ... ... ... : ... .. 5 ... ... ... ... : ... .. . ... : ... .. . ... : ... .. . ...
ROW 6B : ... .. . ... ... ... ... : F-6 00 4 ... ... ... ... : ... .. . ... : ... .. . ... : ... .. . ...
ROW 6C : ... .. . ... ... ... ... : ... .. 3 ... ... ... ... : ... .. . ... : ... .. . ... : ... .. . ...
ROW 6D : ... .. . ... ... ... ... : D-5 00 2 ... ... ... ... : ... .. . ... : ... .. . ... : ... .. . ...
ROW 6E : ... .. . ... ... ... ... : ... .. 1 ... ... ... ... : --- .. . ... : ... .. . ... : ... .. . ...
ROW 6F : ... .. . ... ... ... ... : ... .. . ... ... ... ... : ... .. . ... : ... .. . ... : ... .. . ...
ROW 70 : ... .. 6 ... ... ... P81 : C-5 00 1 P80 V02 ... ... : G-2 00 . ... : ... .. . ... : ... .. . ...
ROW 71 : ... .. . ... ... ... ... : ... .. . ... ... ... ... : ... .. . ... : ... .. . ... : ... .. . ...
ROW 72 : ... .. . ... ... ... ... : ... .. . ... ... ... ... : ... .. . ... : ... .. . ... : ... .. . ...
ROW 73 : ... .. . ... ... ... P80 : ... .. 0 ... ... ... ... : ... .. . ... : ... .. . ... : ... .. . ...
ROW 74 : ... .. . ... ... ... ... : ... .. . ... ... ... ... : ... .. . ... : ... .. . ... : ... .. . ...
ROW 75 : ... .. . ... ... ... ... : ... .. . ... ... ... ... : ... .. . ... : ... .. . ... : ... .. . ...
ROW 76 : ... .. . ... ... ... P7F : ... .. . ... ... ... ... : ... .. . ... : ... .. . ... : ... .. . ...
ROW 77 : ... .. . ... ... ... ... : C-5 00 1 ... ... ... ... : ... .. . ... : ... .. . ... : ... .. . ...
ROW 78 : ... .. . ... ... ... ... : ... .. . ... ... ... ... : ... .. . ... : ... .. . ... : ... .. . ...
ROW 79 : ... .. . ... ... ... P80 : ... .. . ... ... ... ... : ... .. . ... : ... .. . ... : ... .. . ...
ROW 7A : ... .. . ... ... ... ... : ... .. 0 ... ... ... ... : ... .. . ... : ... .. . ... : ... .. . ...
ROW 7B : ... .. . ... ... ... ... : ... .. . ... ... ... ... : ... .. . ... : ... .. . ... : ... .. . ...
ROW 7C : ... .. . ... ... ... P81 : ... .. . ... ... ... ... : --- .. . ... : ... .. . ... : ... .. . ...
ROW 7D : ... .. . ... ... ... ... : ... .. . ... ... ... ... : ... .. . ... : ... .. . ... : ... .. . ...
ROW 7E : ... .. . ... ... ... ... : B-4 00 2 ... ... ... ... : G-3 00 . ... : ... .. . ... : ... .. . ...
ROW 7F : ... .. . ... ... ... P80 : ... .. 1 ... ... ... ... : ... .. . ... : ... .. . ... : ... .. . ...
ROW 80 : ... .. . ... ... ... ... : ... .. . ... ... ... ... : ... .. . ... : ... .. . ... : ... .. . ...
ROW 81 : ... .. . ... ... ... ... : ... .. . ... ... ... ... : ... .. . ... : ... .. . ... : ... .. . ...
ROW 82 : ... .. . ... ... ... P7F : ... .. . ... ... ... ... : ... .. . ... : ... .. . ... : ... .. . ...
ROW 83 : ... .. . ... ... ... ... : ... .. 0 ... ... ... ... : --- .. . ... : ... .. . ... : ... .. . ...
ROW 84 : ... .. . ... ... ... ... : ... .. . ... ... ... ... : ... .. . ... : ... .. . ... : ... .. . ...
ROW 85 : ... .. . ... ... ... P80 : B-4 00 2 ... ... ... ... : G-3 00 . ... : ... .. . ... : ... .. . ...
ROW 86 : ... .. . ... ... ... ... : ... .. 1 ... ... ... ... : ... .. . ... : ... .. . ... : ... .. . ...
ROW 87 : ... .. . ... ... ... ... : ... .. . ... ... ... ... : ... .. . ... : ... .. . ... : ... .. . ...
ROW 88 : ... .. . ... ... ... P81 : ... .. . ... ... ... ... : ... .. . ... : ... .. . ... : ... .. . ...
ROW 89 : ... .. . ... ... ... ... : ... .. . ... ... ... ... : ... .. . ... : ... .. . ... : ... .. . ...
ROW 8A : ... .. . ... ... ... ... : ... .. 0 ... ... ... ... : --- .. . ... : ... .. . ... : ... .. . ...
ROW 8B : ... .. . ... ... ... P80 : ... .. . ... ... ... ... : ... .. . ... : ... .. . ... : ... .. . ...
ROW 8C : ... .. . ... ... ... ... : G-4 00 2 ... ... ... ... : G-3 00 . ... : ... .. . ... : ... .. . ...
ROW 8D : ... .. . ... ... ... ... : ... .. . ... ... ... ... : ... .. . ... : ... .. . ... : ... .. . ...
ROW 8E : ... .. . ... ... ... P7F : ... .. . ... ... ... ... : ... .. . ... : ... .. . ... : ... .. . ...
ROW 8F : ... .. . ... ... ... ... : ... .. 1 ... ... ... ... : ... .. . ... : ... .. . ... : ... .. . ...
ROW 90 : ... .. . ... ... ... ... : ... .. . ... ... ... ... : ... .. . ... : ... .. . ... : ... .. . ...
ROW 91 : ... .. . ... ... ... P80 : ... .. . ... ... ... ... : ... .. . ... : ... .. . ... : ... .. . ...
ROW 92 : ... .. . ... ... ... ... : ... .. . ... ... ... ... : ... .. . ... : ... .. . ... : ... .. . ...
ROW 93 : ... .. . ... ... ... ... : G-4 00 2 ... ... ... ... : ... .. . ... : ... .. . ... : ... .. . ...
ROW 94 : ... .. . ... ... ... P81 : ... .. . ... ... ... ... : ... .. . ... : ... .. . ... : ... .. . ...
ROW 95 : ... .. . ... ... ... ... : ... .. . ... ... ... ... : ... .. . ... : ... .. . ... : ... .. . ...
ROW 96 : ... .. . ... ... ... ... : ... .. 1 ... ... ... ... : ... .. . ... : ... .. . ... : ... .. . ...
ROW 97 : ... .. . ... ... ... P80 : ... .. . ... ... ... ... : --- .. . ... : ... .. . ... : ... .. . ...
ROW 98 : ... .. . ... ... ... ... : ... .. . ... ... ... ... : ... .. . ... : ... .. . ... : ... .. . ...
ROW 99 : ... .. . ... ... ... ... : ... .. . ... ... ... ... : ... .. . ... : ... .. . ... : ... .. . ...
ROW 9A : ... .. . ... ... ... P7F : D-4 00 3 ... ... ... ... : G-2 00 . ... : ... .. . ... : ... .. . ...
ROW 9B : ... .. . ... ... ... ... : ... .. 2 ... ... ... ... : ... .. . ... : ... .. . ... : ... .. . ...
ROW 9C : ... .. . ... ... ... ... : ... .. . ... ... ... ... : ... .. . ... : ... .. . ... : ... .. . ...
ROW 9D : ... .. . ... ... ... P80 : ... .. . ... ... ... ... : ... .. . ... : ... .. . ... : ... .. . ...
ROW 9E : ... .. . ... ... ... ... : ... .. . ... ... ... ... : ... .. . ... : ... .. . ... : ... .. . ...
ROW 9F : ... .. . ... ... ... ... : ... .. 1 ... ... ... ... : --- .. . ... : ... .. . ... : ... .. . ...
ROW A0 : ... .. . ... ... ... P81 : ... .. . ... ... ... ... : ... .. . ... : ... .. . ... : ... .. . ...
ROW A1 : ... .. . ... ... ... ... : D-4 00 3 ... ... ... ... : G-2 00 . ... : ... .. . ... : ... .. . ...
ROW A2 : ... .. . ... ... ... ... : ... .. 2 ... ... ... ... : ... .. . ... : ... .. . ... : ... .. . ...
ROW A3 : ... .. . ... ... ... P80 : ... .. . ... ... ... ... : ... .. . ... : ... .. . ... : ... .. . ...
ROW A4 : ... .. . ... ... ... ... : ... .. . ... ... ... ... : ... .. . ... : ... .. . ... : ... .. . ...
ROW A5 : ... .. . ... ... ... ... : ... .. . ... ... ... ... : ... .. . ... : ... .. . ... : ... .. . ...
ROW A6 : ... .. . ... ... ... P7F : ... .. 1 ... ... ... ... : --- .. . ... : ... .. . ... : ... .. . ...
ROW A7 : ... .. . ... ... ... ... : ... .. . ... ... ... ... : ... .. . ... : ... .. . ... : ... .. . ...
ROW A8 : ... .. 5 ... ... ... ... : C-5 00 3 ... ... ... ... : G-2 00 . ... : ... .. 2 ... : ... .. . ...
ROW A9 : ... .. . ... ... ... P80 : ... .. . ... ... ... ... : ... .. . ... : ... .. . ... : ... .. . ...
ROW AA : ... .. . ... ... ... ... : ... .. . ... ... ... ... : ... .. . ... : ... .. . ... : ... .. . ...
ROW AB : ... .. . ... ... ... ... : ... .. 2 ... ... ... ... : ... .. . ... : ... .. . ... : ... .. . ...
ROW AC : ... .. . ... ... ... P81 : ... .. . ... ... ... ... : ... .. . ... : ... .. . ... : ... .. . ...
ROW AD : ... .. . ... ... ... ... : ... .. . ... ... ... ... : ... .. . ... : ... .. . ... : ... .. . ...
ROW AE : ... .. . ... ... ... ... : ... .. 1 ... ... ... ... : ... .. . ... : ... .. . ... : ... .. . ...
ROW AF : ... .. . ... ... ... P80 : C-5 00 3 ... ... ... ... : ... .. . ... : ... .. . ... : ... .. . ...
ROW B0 : ... .. . ... ... ... ... : ... .. . ... ... ... ... : ... .. . ... : ... .. . ... : ... .. . ...
ROW B1 : ... .. . ... ... ... ... : ... .. . ... ... ... ... : ... .. . ... : ... .. . ... : ... .. . ...
ROW B2 : ... .. . ... ... ... P7F : ... .. 2 ... ... ... ... : ... .. . ... : ... .. . ... : ... .. . ...
ROW B3 : ... .. . ... ... ... ... : ... .. . ... ... ... ... : ... .. . ... : ... .. . ... : ... .. . ...
ROW B4 : ... .. . ... ... ... ... : ... .. . ... ... ... ... : --- .. . ... : ... .. . ... : ... .. . ...
ROW B5 : ... .. . ... ... ... P80 : ... .. 1 ... ... ... ... : ... .. . ... : ... .. . ... : ... .. . ...
ROW B6 : ... .. . ... ... ... ... : B-4 00 4 ... ... ... ... : G-3 00 . ... : ... .. . ... : ... .. . ...
ROW B7 : ... .. . ... ... ... ... : ... .. 3 ... ... ... ... : ... .. . ... : ... .. . ... : ... .. . ...
ROW B8 : ... .. . ... ... ... P81 : ... .. . ... ... ... ... : ... .. . ... : ... .. . ... : ... .. . ...
ROW B9 : ... .. . ... ... ... ... : ... .. . ... ... ... ... : ... .. . ... : ... .. . ... : ... .. . ...
ROW BA : ... .. . ... ... ... ... : ... .. . ... ... ... ... : ... .. . ... : ... .. . ... : ... .. . ...
ROW BB : ... .. . ... ... ... P80 : ... .. 2 ... ... ... ... : --- .. . ... : ... .. . ... : ... .. . ...
ROW BC : ... .. . ... ... ... ... : ... .. 1 ... ... ... ... : ... .. . ... : ... .. . ... : ... .. . ...
ROW BD : ... .. 4 ... ... ... ... : B-4 00 4 ... ... ... ... : G-3 00 . ... : ... .. . ... : ... .. . ...
ROW BE : ... .. . ... ... ... P7F : ... .. 3 ... ... ... ... : ... .. . ... : ... .. . ... : ... .. . ...
ROW BF : ... .. 3 ... ... ... ... : ... .. . ... ... ... ... : ... .. . ... : ... .. . ... : ... .. . ...
ROW C0 : ... .. . ... ... ... ... : ... .. . ... ... ... ... : ... .. . ... : ... .. . ... : ... .. . ...
ROW C1 : ... .. 2 ... ... ... P80 : ... .. . ... ... ... ... : ... .. . ... : ... .. . ... : ... .. . ...
ROW C2 : ... .. . ... ... ... ... : ... .. 2 ... ... ... ... : --- .. . ... : ... .. . ... : ... .. . ...
ROW C3 : ... .. 1 ... ... ... ... : ... .. 1 ... ... ... ... : ... .. . ... : ... .. . ... : ... .. . ...
ROW C4 : B-3 00 7 V02 ... ... ... : G-4 00 4 ... ... ... ... : G-3 00 . ... : ... .. . ... : ... .. . ...
ROW C5 : ... .. . V01 ... ... ... : ... .. . ... ... ... ... : ... .. . ... : ... .. . ... : ... .. . ...
ROW C6 : ... .. 6 ... ... ... ... : ... .. . ... ... ... ... : ... .. . ... : ... .. . ... : ... .. . ...
ROW C7 : ... .. . ... ... ... ... : ... .. 3 ... ... ... ... : ... .. . ... : ... .. . ... : ... .. . ...
ROW C8 : ... .. 5 ... ... ... ... : ... .. . ... ... ... ... : ... .. . ... : ... .. . ... : ... .. . ...
ROW C9 : ... .. . ... ... ... ... : ... .. . ... ... ... ... : ... .. . ... : ... .. . ... : ... .. . ...
ROW CA : ... .. . ... ... ... ... : ... .. 1 ... ... ... ... : ... .. . ... : ... .. . ... : ... .. . ...
ROW CB : ... .. . ... ... ... ... : G-4 00 4 ... ... ... ... : ... .. . ... : ... .. . ... : ... .. . ...
ROW CC : ... .. . ... ... ... ... : ... .. . ... ... ... ... : ... .. . ... : ... .. . ... : ... .. . ...
ROW CD : ... .. . ... ... ... ... : ... .. . ... ... ... ... : ... .. . ... : ... .. . ... : ... .. . ...
ROW CE : ... .. . ... ... ... ... : ... .. 3 ... ... ... ... : ... .. . ... : ... .. . ... : ... .. . ...
ROW CF : ... .. . ... ... ... ... : ... .. . ... ... ... ... : ... .. . ... : ... .. . ... : ... .. . ...
ROW D0 : ... .. . ... ... ... ... : ... .. . ... ... ... ... : --- .. . ... : ... .. . ... : ... .. . ...
ROW D1 : ... .. . ... ... ... ... : ... .. 1 ... ... ... ... : ... .. . ... : ... .. . ... : ... .. . ...
ROW D2 : ... .. . ... ... ... P81 : D-4 00 4 ... ... ... ... : G-2 00 . ... : ... .. . ... : ... .. . ...
ROW D3 : ... .. . ... ... ... ... : ... .. . ... ... ... ... : ... .. . ... : ... .. . ... : ... .. . ...
ROW D4 : ... .. . ... ... ... ... : ... .. . ... ... ... ... : ... .. . ... : ... .. . ... : ... .. . ...
ROW D5 : ... .. . ... ... ... P80 : ... .. 3 ... ... ... ... : ... .. . ... : ... .. . ... : ... .. . ...
ROW D6 : ... .. . ... ... ... ... : ... .. . ... ... ... ... : ... .. . ... : ... .. . ... : ... .. . ...
ROW D7 : ... .. . ... ... ... ... : ... .. . ... ... ... ... : --- .. . ... : ... .. . ... : ... .. . ...
ROW D8 : ... .. . ... ... ... P7F : ... .. 1 ... ... ... ... : ... .. . ... : ... .. . ... : ... .. . ...
ROW D9 : ... .. 4 ... ... ... ... : D-4 00 4 ... ... ... ... : G-2 00 . ... : ... .. . ... : ... .. . ...
ROW DA : ... .. . ... ... ... ... : ... .. . ... ... ... ... : ... .. . ... : ... .. . ... : ... .. . ...
ROW DB : ... .. 3 ... ... ... P80 : ... .. . ... ... ... ... : ... .. . ... : ... .. . ... : ... .. . ...
ROW DC : ... .. . ... ... ... ... : ... .. 3 ... ... ... ... : ... .. . ... : ... .. . ... : ... .. . ...
ROW DD : ... .. 2 ... ... ... ... : ... .. . ... ... ... ... : ... .. . ... : ... .. . ... : ... .. . ...
ROW DE : ... .. . ... ... ... P81 : ... .. . ... ... ... ... : --- .. . ... : ... .. . ... : ... .. . ...
ROW DF : ... .. 1 ... ... ... ... : ... .. 1 ... ... ... ... : ... .. . ... : ... .. . ... : ... .. . ...

PATTERN 3C
ROW 00 : C-4 00 7 V02 ... ... ... : --- .. . ... ... ... ... : C-3 00 . ... : 2-# 00 5 ... : ... .. . ...
ROW 01 : ... .. . V01 ... ... ... : ... .. . ... ... ... ... : ... .. . ... : ... .. 4 ... : ... .. . ...
ROW 02 : ... .. 6 ... ... ... ... : ... .. . ... ... ... ... : ... .. . ... : ... .. 3 ... : ... .. . ...
ROW 03 : ... .. . ... ... ... ... : ... .. . ... ... ... ... : ... .. . ... : ... .. 2 ... : ... .. . ...
ROW 04 : ... .. 5 ... ... ... ... : ... .. . ... ... ... ... : ... .. . ... : ... .. 1 ... : ... .. . ...
ROW 05 : ... .. . ... ... ... ... : ... .. . ... ... ... ... : ... .. . ... : ... .. 0 ... : ... .. . ...
ROW 06 : ... .. . ... ... ... ... : ... .. . ... ... ... ... : ... .. . ... : ... .. . ... : ... .. . ...
ROW 07 : ... .. . ... ... ... ... : C-4 00 1 V01 ... ... P81 : ... .. . ... : 2-# 00 5 ... : ... .. . ...
ROW 08 : ... .. . ... ... ... ... : ... .. . ... ... ... ... : ... .. . ... : ... .. 4 ... : ... .. . ...
ROW 09 : ... .. . ... ... ... ... : ... .. . ... ... ... ... : ... .. . ... : ... .. 3 ... : ... .. . ...
ROW 0A : ... .. . ... ... ... ... : ... .. . ... ... ... ... : ... .. . ... : ... .. 2 ... : ... .. . ...
ROW 0B : ... .. . ... ... ... ... : ... .. . ... ... ... ... : ... .. . ... : ... .. 1 ... : ... .. . ...
ROW 0C : ... .. . ... ... ... ... : ... .. . ... ... ... ... : ... .. . ... : ... .. 0 ... : ... .. . ...
ROW 0D : ... .. . ... ... ... ... : ... .. . ... ... ... ... : ... .. . ... : ... .. . ... : ... .. . ...
ROW 0E : ... .. . ... ... ... ... : C-3 00 5 V00 ... ... P80 : E-4 00 . ... : 2-# 00 5 ... : ... .. . ...
ROW 0F : ... .. . ... ... ... ... : ... .. . ... ... ... ... : ... .. . ... : ... .. 4 ... : ... .. . ...
ROW 10 : ... .. . ... ... ... ... : ... .. . ... ... ... ... : ... .. . ... : ... .. 3 ... : ... .. . ...
ROW 11 : ... .. . ... ... ... ... : ... .. . ... ... ... ... : ... .. . ... : ... .. 2 ... : ... .. . ...
ROW 12 : ... .. . ... ... ... ... : ... .. . ... ... ... ... : ... .. . ... : ... .. 1 ... : ... .. . ...
ROW 13 : ... .. . ... ... ... ... : ... .. . ... ... ... ... : ... .. . ... : ... .. 0 ... : ... .. . ...
ROW 14 : ... .. . ... ... ... ... : ... .. . ... ... ... ... : ... .. . ... : ... .. . ... : ... .. . ...
ROW 15 : ... .. . ... ... ... ... : ... .. . ... ... ... ... : ... .. . ... : 2-# 00 1 ... : ... .. . ...
ROW 16 : ... .. . ... ... ... ... : ... .. . ... ... ... ... : ... .. . ... : ... .. 0 ... : ... .. . ...
ROW 17 : ... .. . ... ... ... ... : ... .. . ... ... ... ... : ... .. . ... : ... .. . ... : ... .. . ...
ROW 18 : ... .. . ... ... ... ... : ... .. . ... ... ... ... : ... .. . ... : ... .. . ... : ... .. . ...
ROW 19 : ... .. . ... ... ... ... : ... .. . ... ... ... ... : ... .. . ... : ... .. . ... : ... .. . ...
ROW 1A : ... .. . ... ... ... ... : ... .. . ... ... ... ... : ... .. . ... : ... .. . ... : ... .. . ...
ROW 1B : ... .. . ... ... ... ... : ... .. . ... ... ... ... : ... .. . ... : ... .. . ... : ... .. . ...
ROW 1C : ... .. . ... ... ... P81 : D-3 00 . ... ... ... ... : F#4 00 . ... : 7-# 00 5 ... : ... .. . ...
ROW 1D : ... .. . ... ... ... ... : ... .. . ... ... ... ... : ... .. . ... : ... .. 4 ... : ... .. . ...
ROW 1E : ... .. . ... ... ... ... : ... .. . ... ... ... ... : ... .. . ... : ... .. 3 ... : ... .. . ...
ROW 1F : ... .. . ... ... ... P80 : ... .. . ... ... ... ... : ... .. . ... : ... .. . ... : ... .. . ...
ROW 20 : ... .. . ... ... ... ... : ... .. . ... ... ... ... : ... .. . ... : ... .. 2 ... : ... .. . ...
ROW 21 : ... .. . ... ... ... ... : ... .. . ... ... ... ... : ... .. . ... : ... .. . ... : ... .. . ...
ROW 22 : ... .. . ... ... ... P7F : ... .. . ... ... ... ... : ... .. . ... : ... .. 1 ... : ... .. . ...
ROW 23 : ... .. . ... ... ... ... : ... .. . ... ... ... ... : ... .. . ... : ... .. . ... : ... .. . ...
ROW 24 : ... .. . ... ... ... ... : ... .. . ... ... ... ... : ... .. . ... : ... .. . ... : ... .. . ...
ROW 25 : ... .. . ... ... ... P80 : ... .. . ... ... ... ... : ... .. . ... : ... .. . ... : ... .. . ...
ROW 26 : ... .. . ... ... ... ... : ... .. . ... ... ... ... : ... .. . ... : ... .. 0 ... : ... .. . ...
ROW 27 : ... .. . ... ... ... ... : ... .. . ... ... ... ... : ... .. . ... : ... .. . ... : ... .. . ...
ROW 28 : ... .. . ... ... ... P81 : ... .. . ... ... ... ... : ... .. . ... : ... .. . ... : ... .. . ...
ROW 29 : ... .. . ... ... ... ... : ... .. . ... ... ... ... : ... .. . ... : ... .. . ... : ... .. . ...
ROW 2A : ... .. . ... ... ... ... : C-4 00 1 V01 ... ... P82 : G-2 00 . ... : 2-# 00 5 ... : ... .. . ...
ROW 2B : ... .. . ... ... ... P80 : ... .. . ... ... ... ... : ... .. . ... : ... .. 4 ... : ... .. . ...
ROW 2C : ... .. . ... ... ... ... : ... .. . ... ... ... ... : ... .. . ... : ... .. 3 ... : ... .. . ...
ROW 2D : ... .. . ... ... ... ... : ... .. . ... ... ... P81 : ... .. . ... : ... .. 2 ... : ... .. . ...
ROW 2E : ... .. . ... ... ... P7F : ... .. . ... ... ... ... : ... .. . ... : ... .. 1 ... : ... .. . ...
ROW 2F : ... .. . ... ... ... ... : ... .. . ... ... ... ... : ... .. . ... : ... .. 0 ... : ... .. . ...
ROW 30 : ... .. . ... ... ... ... : ... .. . ... ... ... P80 : ... .. . ... : ... .. . ... : ... .. . ...
ROW 31 : ... .. . ... ... ... P80 : ... .. . ... ... ... ... : ... .. . ... : 2-# 00 5 ... : ... .. . ...
ROW 32 : ... .. . ... ... ... ... : ... .. . ... ... ... ... : ... .. . ... : ... .. 4 ... : ... .. . ...
ROW 33 : ... .. . ... ... ... ... : ... .. . ... ... ... P81 : ... .. . ... : ... .. 3 ... : ... .. . ...
ROW 34 : ... .. . ... ... ... P81 : ... .. . ... ... ... ... : ... .. . ... : ... .. 2 ... : ... .. . ...
ROW 35 : ... .. . ... ... ... ... : ... .. . ... ... ... ... : ... .. . ... : ... .. 1 ... : ... .. . ...
ROW 36 : ... .. . ... ... ... ... : ... .. . ... ... ... P82 : ... .. . ... : ... .. 0 ... : ... .. . ...
ROW 37 : ... .. . ... ... ... P80 : ... .. . ... ... ... ... : ... .. . ... : ... .. . ... : ... .. . ...
ROW 38 : ... .. . ... ... ... ... : ... .. . ... ... ... ... : C-3 00 . ... : 2-# 00 5 ... : ... .. . ...
ROW 39 : ... .. . ... ... ... ... : ... .. . ... ... ... P81 : ... .. . ... : ... .. 4 ... : ... .. . ...
ROW 3A : ... .. . ... ... ... P7F : ... .. . ... ... ... ... : ... .. . ... : ... .. 3 ... : ... .. . ...
ROW 3B : ... .. . ... ... ... ... : ... .. . ... ... ... ... : ... .. . ... : ... .. 2 ... : ... .. . ...
ROW 3C : ... .. . ... ... ... ... : ... .. . ... ... ... P80 : ... .. . ... : ... .. 1 ... : ... .. . ...
ROW 3D : ... .. . ... ... ... P80 : ... .. . ... ... ... ... : ... .. . ... : ... .. 0 ... : ... .. . ...
ROW 3E : ... .. . ... ... ... ... : ... .. . ... ... ... ... : ... .. . ... : ... .. . ... : ... .. . ...
ROW 3F : ... .. . ... ... ... ... : ... .. . ... ... ... P81 : ... .. . ... : 2-# 00 5 ... : ... .. . ...
ROW 40 : ... .. . ... ... ... P81 : ... .. . ... ... ... ... : ... .. . ... : ... .. 4 ... : ... .. . ...
ROW 41 : ... .. . ... ... ... ... : ... .. . ... ... ... ... : ... .. . ... : ... .. 3 ... : ... .. . ...
ROW 42 : ... .. . ... ... ... ... : ... .. . ... ... ... P82 : ... .. . ... : ... .. 2 ... : ... .. . ...
ROW 43 : ... .. . ... ... ... P80 : ... .. . ... ... ... ... : ... .. . ... : ... .. 1 ... : ... .. . ...
ROW 44 : ... .. . ... ... ... ... : ... .. . ... ... ... ... : ... .. . ... : ... .. 0 ... : ... .. . ...
ROW 45 : ... .. . ... ... ... ... : ... .. . ... ... ... P81 : ... .. . ... : ... .. . ... : ... .. . ...
ROW 46 : ... .. . ... ... ... P7F : C-3 00 5 V00 ... ... P80 : E-4 00 . ... : 2-# 00 5 ... : ... .. . ...
ROW 47 : ... .. . ... ... ... ... : ... .. . ... ... ... ... : ... .. . ... : ... .. 4 ... : ... .. . ...
ROW 48 : ... .. . ... ... ... ... : ... .. . ... ... ... ... : ... .. . ... : ... .. 3 ... : ... .. . ...
ROW 49 : ... .. . ... ... ... P80 : ... .. . ... ... ... ... : ... .. . ... : ... .. 2 ... : ... .. . ...
ROW 4A : ... .. . ... ... ... ... : ... .. . ... ... ... ... : ... .. . ... : ... .. 1 ... : ... .. . ...
ROW 4B : ... .. . ... ... ... ... : ... .. . ... ... ... ... : ... .. . ... : ... .. 0 ... : ... .. . ...
ROW 4C : ... .. . ... ... ... P81 : ... .. . ... ... ... ... : ... .. . ... : ... .. . ... : ... .. . ...
ROW 4D : ... .. . ... ... ... ... : ... .. . ... ... ... ... : ... .. . ... : 2-# 00 1 ... : ... .. . ...
ROW 4E : ... .. . ... ... ... ... : ... .. . ... ... ... ... : ... .. . ... : ... .. 0 ... : ... .. . ...
ROW 4F : ... .. . ... ... ... P80 : ... .. . ... ... ... ... : ... .. . ... : ... .. . ... : ... .. . ...
ROW 50 : ... .. . ... ... ... ... : ... .. . ... ... ... ... : ... .. . ... : ... .. . ... : ... .. . ...
ROW 51 : ... .. . ... ... ... ... : ... .. . ... ... ... ... : ... .. . ... : ... .. . ... : ... .. . ...
ROW 52 : ... .. . ... ... ... P7F : ... .. . ... ... ... ... : ... .. . ... : ... .. . ... : ... .. . ...
ROW 53 : ... .. . ... ... ... ... : ... .. . ... ... ... ... : ... .. . ... : ... .. . ... : ... .. . ...
ROW 54 : ... .. . ... ... ... ... : D-3 00 . ... ... ... ... : F#4 00 . ... : 7-# 00 5 ... : ... .. . ...
ROW 55 : ... .. . ... ... ... P80 : ... .. . ... ... ... ... : ... .. . ... : ... .. 4 ... : ... .. . ...
ROW 56 : ... .. . ... ... ... ... : ... .. . ... ... ... ... : ... .. . ... : ... .. 3 ... : ... .. . ...
ROW 57 : ... .. . ... ... ... ... : ... .. . ... ... ... ... : ... .. . ... : ... .. . ... : ... .. . ...
ROW 58 : ... .. . ... ... ... P81 : ... .. . ... ... ... ... : ... .. . ... : ... .. 2 ... : ... .. . ...
ROW 59 : ... .. . ... ... ... ... : ... .. . ... ... ... ... : ... .. . ... : ... .. . ... : ... .. . ...
ROW 5A : ... .. . ... ... ... ... : ... .. . ... ... ... ... : ... .. . ... : ... .. 1 ... : ... .. . ...
ROW 5B : ... .. . ... ... ... P80 : ... .. . ... ... ... ... : ... .. . ... : ... .. . ... : ... .. . ...
ROW 5C : ... .. . ... ... ... ... : ... .. . ... ... ... ... : ... .. . ... : ... .. . ... : ... .. . ...
ROW 5D : ... .. . ... ... ... ... : ... .. . ... ... ... ... : ... .. . ... : ... .. . ... : ... .. . ...
ROW 5E : ... .. . ... ... ... P7F : ... .. . ... ... ... ... : ... .. . ... : ... .. 0 ... : ... .. . ...
ROW 5F : ... .. . ... ... ... ... : ... .. . ... ... ... ... : ... .. . ... : ... .. . ... : ... .. . ...
ROW 60 : ... .. . ... ... ... ... : ... .. . ... ... ... ... : ... .. . ... : ... .. . ... : ... .. . ...
ROW 61 : ... .. . ... ... ... P80 : ... .. . ... ... ... ... : ... .. . ... : ... .. . ... : ... .. . ...
ROW 62 : ... .. . ... ... ... ... : C-4 00 1 V01 ... ... P81 : G-2 00 . ... : 2-# 00 5 ... : ... .. . ...
ROW 63 : ... .. . ... ... ... ... : ... .. . ... ... ... ... : ... .. . ... : ... .. 4 ... : ... .. . ...
ROW 64 : ... .. . ... ... ... P81 : ... .. . ... ... ... ... : ... .. . ... : ... .. 3 ... : ... .. . ...
ROW 65 : ... .. . ... ... ... ... : ... .. . ... ... ... ... : ... .. . ... : ... .. 2 ... : ... .. . ...
ROW 66 : ... .. . ... ... ... ... : ... .. . ... ... ... P82 : ... .. . ... : ... .. 1 ... : ... .. . ...
ROW 67 : ... .. . ... ... ... P80 : ... .. . ... ... ... ... : ... .. . ... : ... .. 0 ... : ... .. . ...
ROW 68 : ... .. . ... ... ... ... : ... .. . ... ... ... ... : ... .. . ... : ... .. . ... : ... .. . ...
ROW 69 : ... .. . ... ... ... ... : ... .. . ... ... ... P81 : ... .. . ... : 2-# 00 5 ... : ... .. . ...
ROW 6A : ... .. . ... ... ... P7F : ... .. . ... ... ... ... : ... .. . ... : ... .. 4 ... : ... .. . ...
ROW 6B : ... .. . ... ... ... ... : ... .. . ... ... ... ... : ... .. . ... : ... .. 3 ... : ... .. . ...
ROW 6C : ... .. . ... ... ... ... : ... .. . ... ... ... P80 : ... .. . ... : ... .. 2 ... : ... .. . ...
ROW 6D : ... .. . ... ... ... P80 : ... .. . ... ... ... ... : ... .. . ... : ... .. 1 ... : ... .. . ...
ROW 6E : ... .. . ... ... ... ... : ... .. . ... ... ... ... : ... .. . ... : ... .. 0 ... : ... .. . ...
ROW 6F : ... .. . ... ... ... ... : ... .. . ... ... ... P81 : ... .. . ... : ... .. . ... : ... .. . ...
ROW 70 : ... .. . ... ... ... P81 : ... .. . ... ... ... ... : C-3 00 . ... : 2-# 00 5 ... : ... .. . ...
ROW 71 : ... .. . ... ... ... ... : ... .. . ... ... ... ... : ... .. . ... : ... .. 4 ... : ... .. . ...
ROW 72 : ... .. . ... ... ... ... : ... .. . ... ... ... P82 : ... .. . ... : ... .. 3 ... : ... .. . ...
ROW 73 : ... .. . ... ... ... P80 : ... .. . ... ... ... ... : ... .. . ... : ... .. 2 ... : ... .. . ...
ROW 74 : ... .. . ... ... ... ... : ... .. . ... ... ... ... : ... .. . ... : ... .. 1 ... : ... .. . ...
ROW 75 : ... .. . ... ... ... ... : ... .. . ... ... ... P81 : ... .. . ... : ... .. 0 ... : ... .. . ...
ROW 76 : ... .. . ... ... ... P7F : ... .. . ... ... ... ... : ... .. . ... : ... .. . ... : ... .. . ...
ROW 77 : ... .. . ... ... ... ... : ... .. . ... ... ... ... : ... .. . ... : 2-# 00 5 ... : ... .. . ...
ROW 78 : ... .. . ... ... ... ... : ... .. . ... ... ... P80 : ... .. . ... : ... .. 4 ... : ... .. . ...
ROW 79 : ... .. . ... ... ... P80 : ... .. . ... ... ... ... : ... .. . ... : ... .. 3 ... : ... .. . ...
ROW 7A : ... .. . ... ... ... ... : ... .. . ... ... ... ... : ... .. . ... : ... .. 2 ... : ... .. . ...
ROW 7B : ... .. . ... ... ... ... : ... .. . ... ... ... P81 : ... .. . ... : ... .. 1 ... : ... .. . ...
ROW 7C : ... .. . ... ... ... P81 : ... .. . ... ... ... ... : ... .. . ... : ... .. 0 ... : ... .. . ...
ROW 7D : ... .. . ... ... ... ... : ... .. . ... ... ... ... : ... .. . ... : ... .. . ... : ... .. . ...
ROW 7E : ... .. . ... ... ... ... : ... .. . ... ... ... P82 : --- .. . ... : 2-# 00 5 ... : ... .. . ...
ROW 7F : ... .. . ... ... ... P80 : ... .. . ... ... ... ... : ... .. . ... : ... .. 4 ... : ... .. . ...
ROW 80 : ... .. . ... ... ... ... : ... .. . ... ... ... ... : ... .. . ... : ... .. 3 ... : ... .. . ...
ROW 81 : ... .. . ... ... ... ... : ... .. . ... ... ... P81 : ... .. . ... : ... .. 2 ... : ... .. . ...
ROW 82 : ... .. . ... ... ... P7F : ... .. . ... ... ... ... : ... .. . ... : ... .. 1 ... : ... .. . ...
ROW 83 : ... .. . ... ... ... ... : ... .. . ... ... ... ... : ... .. . ... : ... .. 0 ... : ... .. . ...
ROW 84 : ... .. . ... ... ... ... : ... .. . ... ... ... P80 : ... .. . ... : ... .. . ... : ... .. . ...
ROW 85 : ... .. . ... ... ... P80 : ... .. . ... ... ... ... : ... .. . ... : 2-# 00 1 ... : ... .. . ...
ROW 86 : ... .. . ... ... ... ... : ... .. . ... ... ... ... : ... .. . ... : ... .. 0 ... : ... .. . ...
ROW 87 : ... .. . ... ... ... ... : ... .. . ... ... ... P81 : ... .. . ... : ... .. . ... : ... .. . ...
ROW 88 : ... .. . ... ... ... P81 : ... .. . ... ... ... ... : ... .. . ... : ... .. . ... : ... .. . ...
ROW 89 : ... .. . ... ... ... ... : ... .. . ... ... ... ... : ... .. . ... : ... .. . ... : ... .. . ...
ROW 8A : ... .. . ... ... ... ... : ... .. . ... ... ... P82 : ... .. . ... : ... .. . ... : ... .. . ...
ROW 8B : ... .. . ... ... ... P80 : ... .. . ... ... ... ... : ... .. . ... : ... .. . ... : ... .. . ...
ROW 8C : ... .. . ... ... ... ... : ... .. . ... ... ... ... : C-3 00 . ... : 7-# 00 5 ... : ... .. . ...
ROW 8D : ... .. . ... ... ... ... : ... .. . ... ... ... P81 : ... .. . ... : ... .. 4 ... : ... .. . ...
ROW 8E : ... .. . ... ... ... P7F : ... .. . ... ... ... ... : ... .. . ... : ... .. 3 ... : ... .. . ...
ROW 8F : ... .. . ... ... ... ... : ... .. . ... ... ... ... : ... .. . ... : ... .. . ... : ... .. . ...
ROW 90 : ... .. . ... ... ... ... : ... .. . ... ... ... P80 : ... .. . ... : ... .. 2 ... : ... .. . ...
ROW 91 : ... .. . ... ... ... P80 : ... .. . ... ... ... ... : ... .. . ... : ... .. . ... : ... .. . ...
ROW 92 : ... .. . ... ... ... ... : ... .. . ... ... ... ... : ... .. . ... : ... .. 1 ... : ... .. . ...
ROW 93 : ... .. . ... ... ... ... : ... .. . ... ... ... P81 : ... .. . ... : ... .. . ... : ... .. . ...
ROW 94 : ... .. . ... ... ... P81 : ... .. . ... ... ... ... : ... .. . ... : ... .. . ... : ... .. . ...
ROW 95 : ... .. . ... ... ... ... : ... .. . ... ... ... ... : ... .. . ... : ... .. . ... : ... .. . ...
ROW 96 : ... .. . ... ... ... ... : ... .. . ... ... ... P82 : ... .. . ... : ... .. 0 ... : ... .. . ...
ROW 97 : ... .. . ... ... ... P80 : ... .. . ... ... ... ... : ... .. . ... : ... .. . ... : ... .. . ...
ROW 98 : ... .. . ... ... ... ... : ... .. . ... ... ... ... : ... .. . ... : ... .. . ... : ... .. . ...
ROW 99 : ... .. . ... ... ... ... : ... .. . ... ... ... P81 : ... .. . ... : ... .. . ... : ... .. . ...
ROW 9A : ... .. . ... ... ... P7F : ... .. . ... ... ... ... : --- .. . ... : ... .. . ... : ... .. . ...
ROW 9B : ... .. . ... ... ... ... : ... .. . ... ... ... ... : ... .. . ... : ... .. . ... : ... .. . ...
ROW 9C : ... .. . ... ... ... ... : ... .. . ... ... ... P80 : ... .. . ... : ... .. . ... : ... .. . ...
ROW 9D : ... .. . ... ... ... P80 : ... .. . ... ... ... ... : ... .. . ... : ... .. . ... : ... .. . ...
ROW 9E : ... .. . ... ... ... ... : ... .. . ... ... ... ... : ... .. . ... : ... .. . ... : ... .. . ...
ROW 9F : ... .. . ... ... ... ... : ... .. . ... ... ... P81 : ... .. . ... : ... .. . ... : ... .. . ...
ROW A0 : ... .. . ... ... ... P81 : ... .. . ... ... ... ... : ... .. . ... : ... .. . ... : ... .. . ...
ROW A1 : ... .. . ... ... ... ... : ... .. . ... ... ... ... : ... .. . ... : ... .. . ... : ... .. . ...
ROW A2 : ... .. . ... ... ... ... : ... .. . ... ... ... P82 : ... .. . ... : ... .. . ... : ... .. . ...
ROW A3 : ... .. . ... ... ... P80 : ... .. . ... ... ... ... : ... .. . ... : ... .. . ... : ... .. . ...
ROW A4 : ... .. . ... ... ... ... : ... .. . ... ... ... ... : ... .. . ... : ... .. . ... : ... .. . ...
ROW A5 : ... .. . ... ... ... ... : ... .. . ... ... ... P81 : ... .. . ... : ... .. . ... : ... .. . ...
ROW A6 : ... .. . ... ... ... P7F : ... .. . ... ... ... ... : ... .. . ... : ... .. . ... : ... .. . ...
ROW A7 : ... .. . ... ... ... ... : ... .. . ... ... ... ... : ... .. . ... : ... .. . ... : ... .. . ...
ROW A8 : ... .. . ... ... ... ... : ... .. . ... ... ... P80 : C-2 00 . ... : 2-# 00 5 ... : ... .. . ...
ROW A9 : ... .. . ... ... ... P80 : ... .. . ... ... ... ... : ... .. . ... : ... .. 4 ... : ... .. . ...
ROW AA : ... .. . ... ... ... ... : ... .. . ... ... ... ... : ... .. . ... : ... .. 3 ... : ... .. . ...
ROW AB : ... .. . ... ... ... ... : ... .. . ... ... ... P81 : ... .. . ... : ... .. 2 ... : ... .. . ...
ROW AC : ... .. . ... ... ... P81 : ... .. . ... ... ... ... : ... .. . ... : ... .. 1 ... : ... .. . ...
ROW AD : ... .. . ... ... ... ... : ... .. . ... ... ... ... : ... .. . ... : ... .. 0 ... : ... .. . ...
ROW AE : ... .. . ... ... ... ... : ... .. . ... ... ... P82 : ... .. . ... : ... .. . ... : ... .. . ...
ROW AF : ... .. . ... ... ... P80 : ... .. . ... ... ... ... : ... .. . ... : ... .. . ... : ... .. . ...
ROW B0 : ... .. . ... ... ... ... : ... .. . ... ... ... ... : ... .. . ... : ... .. . ... : ... .. . ...
ROW B1 : ... .. . ... ... ... ... : ... .. . ... ... ... P81 : ... .. . ... : ... .. . ... : ... .. . ...
ROW B2 : ... .. . ... ... ... P7F : ... .. . ... ... ... ... : ... .. . ... : ... .. . ... : ... .. . ...
ROW B3 : ... .. . ... ... ... ... : ... .. . ... ... ... ... : ... .. . ... : ... .. . ... : ... .. . ...
ROW B4 : ... .. . ... ... ... ... : ... .. . ... ... ... P80 : ... .. . ... : ... .. . ... : ... .. . ...
ROW B5 : ... .. . ... ... ... P80 : ... .. . ... ... ... ... : ... .. . ... : ... .. . ... : ... .. . ...
ROW B6 : ... .. 4 ... ... ... ... : ... .. . ... ... ... ... : --- .. . ... : ... .. . ... : ... .. . ...
ROW B7 : ... .. . ... ... ... ... : ... .. . ... ... ... P81 : ... .. . ... : ... .. . ... : ... .. . ...
ROW B8 : ... .. 3 ... ... ... P81 : ... .. . ... ... ... ... : ... .. . ... : ... .. . ... : ... .. . ...
ROW B9 : ... .. . ... ... ... ... : ... .. . ... ... ... ... : ... .. . ... : ... .. . ... : ... .. . ...
ROW BA : ... .. 2 ... ... ... ... : ... .. . ... ... ... P82 : ... .. . ... : ... .. . ... : ... .. . ...
ROW BB : ... .. . ... ... ... P80 : ... .. . ... ... ... ... : ... .. . ... : ... .. . ... : ... .. . ...
ROW BC : ... .. 1 ... ... ... ... : ... .. . ... ... ... ... : ... .. . ... : ... .. . ... : ... .. . ...
ROW BD : ... .. . ... ... ... ... : ... .. . ... ... ... P81 : ... .. . ... : ... .. . ... : ... .. . ...
ROW BE : ... .. 0 ... ... ... P7F : --- .. . ... ... ... ... : ... .. . F06 : ... .. . ... : ... .. . ...
ROW BF : ... .. . ... ... ... D00 : ... .. . ... ... ... ... : ... .. . ... : ... .. . ... : ... .. . ...
ROW C0 : C-3 00 4 V02 ... ... ... : ... .. . ... ... ... ... : ... .. . ... : ... .. . ... : ... .. . ...
ROW C1 : ... .. . ... ... ... ... : ... .. . ... ... ... ... : ... .. . ... : ... .. . ... : ... .. . ...
ROW C2 : ... .. . ... ... ... ... : ... .. . ... ... ... ... : ... .. . ... : ... .. . ... : ... .. . ...
ROW C3 : ... .. . ... ... ... ... : D-4 00 4 V02 ... ... ... : ... .. . ... : ... .. . ... : ... .. . ...
ROW C4 : ... .. . ... ... ... ... : ... .. . ... ... ... ... : ... .. . ... : ... .. . ... : ... .. . ...
ROW C5 : ... .. . ... ... ... ... : ... .. . ... ... ... ... : ... .. . ... : ... .. . ... : ... .. . ...
ROW C6 : E-4 00 . ... ... ... ... : ... .. . ... ... ... ... : ... .. . ... : ... .. . ... : ... .. . ...
ROW C7 : ... .. . ... ... ... ... : ... .. . ... ... ... ... : ... .. . ... : ... .. . ... : ... .. . ...
ROW C8 : ... .. . ... ... ... ... : ... .. . ... ... ... ... : ... .. . ... : ... .. . ... : ... .. . ...
ROW C9 : ... .. . ... ... ... ... : G-4 00 . ... ... ... ... : ... .. . ... : ... .. . ... : ... .. . ...
ROW CA : ... .. . ... ... ... ... : ... .. . ... ... ... ... : ... .. . ... : ... .. . ... : ... .. . ...
ROW CB : ... .. . ... ... ... ... : ... .. . ... ... ... ... : ... .. . ... : ... .. . ... : ... .. . ...
ROW CC : B-4 00 4 ... ... ... ... : ... .. . ... ... ... ... : ... .. . ... : ... .. . ... : ... .. . ...
ROW CD : ... .. . ... ... ... ... : ... .. . ... ... ... ... : ... .. . ... : ... .. . ... : ... .. . ...
ROW CE : ... .. . ... ... ... ... : ... .. . ... ... ... ... : ... .. . ... : ... .. . ... : ... .. . ...
ROW CF : ... .. 3 ... ... ... ... : ... .. . ... ... ... ... : ... .. . ... : ... .. . ... : ... .. . ...
ROW D0 : ... .. . ... ... ... ... : ... .. . ... ... ... ... : ... .. . ... : ... .. . ... : ... .. . ...
ROW D1 : ... .. . ... ... ... ... : ... .. . ... ... ... ... : ... .. . ... : ... .. . ... : ... .. . ...
ROW D2 : ... .. 2 ... ... ... ... : ... .. . ... ... ... ... : ... .. . ... : ... .. . ... : ... .. . ...
ROW D3 : ... .. . ... ... ... ... : ... .. . ... ... ... ... : ... .. . ... : ... .. . ... : ... .. . ...
ROW D4 : ... .. . ... ... ... ... : ... .. . ... ... ... ... : ... .. . ... : ... .. . ... : ... .. . ...
ROW D5 : ... .. 1 ... ... ... ... : ... .. . ... ... ... ... : ... .. . ... : ... .. . ... : ... .. . ...
ROW D6 : ... .. . ... ... ... ... : ... .. . ... ... ... ... : ... .. . ... : ... .. . ... : ... .. . ...
ROW D7 : ... .. . ... ... ... ... : ... .. . ... ... ... ... : ... .. . ... : ... .. . ... : ... .. . ...
ROW D8 : ... .. . ... ... ... ... : ... .. . ... ... ... ... : ... .. . ... : ... .. . ... : ... .. . ...
ROW D9 : ... .. . ... ... ... ... : ... .. . ... ... ... ... : ... .. . ... : ... .. . ... : ... .. . ...
ROW DA : ... .. . ... ... ... ... : ... .. . ... ... ... ... : ... .. . ... : ... .. . ... : ... .. . ...
ROW DB : ... .. . ... ... ... ... : ... .. . ... ... ... ... : ... .. . ... : ... .. . ... : ... .. . ...
ROW DC : ... .. . ... ... ... ... : ... .. . ... ... ... ... : ... .. . ... : ... .. . ... : ... .. . ...
ROW DD : ... .. . ... ... ... ... : ... .. . ... ... ... ... : ... .. . ... : ... .. . ... : ... .. . ...
ROW DE : ... .. . ... ... ... ... : ... .. . ... ... ... ... : ... .. . ... : ... .. . ... : ... .. . ...
ROW DF : ... .. . ... ... ... ... : ... .. . ... ... ... ... : ... .. . ... : ... .. . ... : ... .. . ...

PATTERN 3D
ROW 00 : C-4 00 1 V02 ... ... ... : ... .. . ... ... ... ... : ... .. . ... : ... .. . ... : ... .. . ...
ROW 01 : ... .. 2 ... ... ... ... : ... .. . ... ... ... ... : ... .. . ... : ... .. . ... : ... .. . ...
ROW 02 : ... .. 3 ... ... ... ... : ... .. . ... ... ... ... : ... .. . ... : ... .. . ... : ... .. . ...
ROW 03 : ... .. 4 ... ... ... ... : ... .. . ... ... ... ... : ... .. . ... : ... .. . ... : ... .. . ...
ROW 04 : ... .. . ... ... ... ... : ... .. . ... ... ... ... : ... .. . ... : ... .. . ... : ... .. . ...
ROW 05 : ... .. . ... ... ... ... : ... .. . ... ... ... ... : ... .. . ... : ... .. . ... : ... .. . ...
ROW 06 : ... .. . ... ... ... ... : ... .. . ... ... ... ... : ... .. . ... : ... .. . ... : ... .. . ...
ROW 07 : ... .. . ... ... ... ... : ... .. . ... ... ... ... : ... .. . ... : ... .. . ... : ... .. . ...
ROW 08 : ... .. . ... ... ... ... : ... .. . ... ... ... ... : ... .. . ... : ... .. . ... : ... .. . ...
ROW 09 : ... .. . ... ... ... ... : ... .. . ... ... ... ... : ... .. . ... : ... .. . ... : ... .. . ...
ROW 0A : ... .. . ... ... ... ... : ... .. . ... ... ... ... : ... .. . ... : ... .. . ... : ... .. . ...
ROW 0B : ... .. . ... ... ... ... : ... .. . ... ... ... ... : ... .. . ... : ... .. . ... : ... .. . ...
ROW 0C : ... .. 1 ... ... ... ... : ... .. . ... ... ... ... : ... .. . ... : ... .. . ... : ... .. . ...
ROW 0D : ... .. . ... ... ... ... : ... .. . ... ... ... ... : ... .. . ... : ... .. . ... : ... .. . ...
ROW 0E : A-4 00 1 ... ... ... ... : C-4 00 1 V02 ... ... ... : ... .. . ... : ... .. . ... : ... .. . ...
ROW 0F : ... .. 2 ... ... ... ... : ... .. . ... ... ... ... : ... .. . ... : ... .. . ... : ... .. . ...
ROW 10 : ... .. 3 ... ... ... ... : ... .. . ... ... ... ... : ... .. . ... : ... .. . ... : ... .. . ...
ROW 11 : ... .. 4 ... ... ... ... : ... .. . ... ... ... ... : ... .. . ... : ... .. . ... : ... .. . ...
ROW 12 : ... .. . ... ... ... ... : ... .. . ... ... ... ... : ... .. . ... : ... .. . ... : ... .. . ...
ROW 13 : ... .. . ... ... ... ... : ... .. . ... ... ... ... : ... .. . ... : ... .. . ... : ... .. . ...
ROW 14 : ... .. . ... ... ... ... : ... .. . ... ... ... ... : ... .. . ... : ... .. . ... : ... .. . ...
ROW 15 : ... .. . ... ... ... ... : ... .. . ... ... ... ... : ... .. . ... : ... .. . ... : ... .. . ...
ROW 16 : ... .. . ... ... ... ... : ... .. . ... ... ... ... : ... .. . ... : ... .. . ... : ... .. . ...
ROW 17 : ... .. . ... ... ... ... : ... .. . ... ... ... ... : ... .. . ... : ... .. . ... : ... .. . ...
ROW 18 : ... .. . ... ... ... ... : ... .. . ... ... ... ... : ... .. . ... : ... .. . ... : ... .. . ...
ROW 19 : ... .. . ... ... ... ... : ... .. . ... ... ... ... : ... .. . ... : ... .. . ... : ... .. . ...
ROW 1A : ... .. 1 ... ... ... ... : ... .. . ... ... ... ... : ... .. . ... : ... .. . ... : ... .. . ...
ROW 1B : ... .. . ... ... ... ... : ... .. . ... ... ... ... : ... .. . ... : ... .. . ... : ... .. . ...
ROW 1C : G-4 00 1 ... ... ... ... : A-4 00 . ... ... ... ... : ... .. . ... : ... .. . ... : ... .. . ...
ROW 1D : ... .. 2 ... ... ... ... : ... .. . ... ... ... ... : ... .. . ... : ... .. . ... : ... .. . ...
ROW 1E : ... .. 3 ... ... ... ... : ... .. . ... ... ... ... : ... .. . ... : ... .. . ... : ... .. . ...
ROW 1F : ... .. 4 ... ... ... ... : ... .. . ... ... ... ... : ... .. . ... : ... .. . ... : ... .. . ...
ROW 20 : ... .. . ... ... ... ... : ... .. . ... ... ... ... : ... .. . ... : ... .. . ... : ... .. . ...
ROW 21 : ... .. . ... ... ... ... : ... .. . ... ... ... ... : ... .. . ... : ... .. . ... : ... .. . ...
ROW 22 : ... .. . ... ... ... ... : ... .. . ... ... ... ... : ... .. . ... : ... .. . ... : ... .. . ...
ROW 23 : ... .. . ... ... ... ... : ... .. . ... ... ... ... : ... .. . ... : ... .. . ... : ... .. . ...
ROW 24 : ... .. . ... ... ... ... : ... .. . ... ... ... ... : ... .. . ... : ... .. . ... : ... .. . ...
ROW 25 : ... .. . ... ... ... ... : ... .. . ... ... ... ... : ... .. . ... : ... .. . ... : ... .. . ...
ROW 26 : ... .. . ... ... ... ... : ... .. . ... ... ... ... : ... .. . ... : ... .. . ... : ... .. . ...
ROW 27 : ... .. . ... ... ... ... : ... .. . ... ... ... ... : ... .. . ... : ... .. . ... : ... .. . ...
ROW 28 : ... .. . ... ... ... ... : ... .. . ... ... ... ... : ... .. . ... : ... .. . ... : ... .. . ...
ROW 29 : ... .. . ... ... ... ... : ... .. . ... ... ... ... : ... .. . ... : ... .. . ... : ... .. . ...
ROW 2A : ... .. . ... ... ... ... : G-4 00 . ... ... ... ... : ... .. . ... : ... .. . ... : ... .. . ...
ROW 2B : ... .. . ... ... ... ... : ... .. . ... ... ... ... : ... .. . ... : ... .. . ... : ... .. . ...
ROW 2C : ... .. . ... ... ... ... : ... .. . ... ... ... ... : ... .. . ... : ... .. . ... : ... .. . ...
ROW 2D : ... .. . ... ... ... ... : ... .. . ... ... ... ... : ... .. . ... : ... .. . ... : ... .. . ...
ROW 2E : ... .. . ... ... ... ... : ... .. . ... ... ... ... : ... .. . ... : ... .. . ... : ... .. . ...
ROW 2F : ... .. . ... ... ... ... : ... .. . ... ... ... ... : ... .. . ... : ... .. . ... : ... .. . ...
ROW 30 : ... .. . ... ... ... ... : ... .. . ... ... ... ... : ... .. . ... : ... .. . ... : ... .. . ...
ROW 31 : ... .. . ... ... ... ... : ... .. . ... ... ... ... : ... .. . ... : ... .. . ... : ... .. . ...
ROW 32 : ... .. . ... ... ... ... : ... .. . ... ... ... ... : ... .. . ... : ... .. . ... : ... .. . ...
ROW 33 : ... .. . ... ... ... ... : ... .. . ... ... ... ... : ... .. . ... : ... .. . ... : ... .. . ...
ROW 34 : ... .. . ... ... ... ... : ... .. . ... ... ... ... : ... .. . ... : ... .. . ... : ... .. . ...
ROW 35 : ... .. . ... ... ... ... : ... .. . ... ... ... ... : ... .. . ... : ... .. . ... : ... .. . ...
ROW 36 : ... .. . ... ... ... ... : ... .. . ... ... ... ... : ... .. . ... : ... .. . ... : ... .. . ...
ROW 37 : ... .. . ... ... ... ... : ... .. . ... ... ... ... : ... .. . ... : ... .. . ... : ... .. . ...
ROW 38 : ... .. . ... ... ... P81 : ... .. . ... ... ... ... : ... .. . ... : ... .. . ... : ... .. . ...
ROW 39 : ... .. . ... ... ... ... : ... .. . ... ... ... ... : ... .. . ... : ... .. . ... : ... .. . ...
ROW 3A : ... .. . ... ... ... ... : ... .. . ... ... ... ... : ... .. . ... : ... .. . ... : ... .. . ...
ROW 3B : ... .. . ... ... ... P80 : ... .. . ... ... ... ... : ... .. . ... : ... .. . ... : ... .. . ...
ROW 3C : ... .. . ... ... ... ... : ... .. . ... ... ... ... : ... .. . ... : ... .. . ... : ... .. . ...
ROW 3D : ... .. . ... ... ... ... : ... .. . ... ... ... ... : ... .. . ... : ... .. . ... : ... .. . ...
ROW 3E : ... .. . ... ... ... P7F : ... .. . ... ... ... ... : ... .. . ... : ... .. . ... : ... .. . ...
ROW 3F : ... .. . ... ... ... ... : ... .. . ... ... ... ... : ... .. . ... : ... .. . ... : ... .. . ...
ROW 40 : ... .. . ... ... ... ... : ... .. . ... ... ... ... : ... .. . ... : ... .. . ... : ... .. . ...
ROW 41 : ... .. . ... ... ... P80 : ... .. . ... ... ... ... : ... .. . ... : ... .. . ... : ... .. . ...
ROW 42 : ... .. . ... ... ... ... : ... .. . ... ... ... ... : ... .. . ... : ... .. . ... : ... .. . ...
ROW 43 : ... .. . ... ... ... ... : ... .. . ... ... ... ... : ... .. . ... : ... .. . ... : ... .. . ...
ROW 44 : ... .. . ... ... ... P81 : ... .. . ... ... ... ... : ... .. . ... : ... .. . ... : ... .. . ...
ROW 45 : ... .. . ... ... ... ... : ... .. . ... ... ... ... : ... .. . ... : ... .. . ... : ... .. . ...
ROW 46 : ... .. . ... ... ... ... : ... .. . ... ... ... P81 : ... .. . ... : ... .. . ... : ... .. . ...
ROW 47 : ... .. . ... ... ... P80 : ... .. . ... ... ... ... : ... .. . ... : ... .. . ... : ... .. . ...
ROW 48 : ... .. . ... ... ... ... : ... .. . ... ... ... ... : ... .. . ... : ... .. . ... : ... .. . ...
ROW 49 : ... .. . ... ... ... ... : ... .. . ... ... ... P80 : ... .. . ... : ... .. . ... : ... .. . ...
ROW 4A : ... .. . ... ... ... P7F : ... .. . ... ... ... ... : ... .. . ... : ... .. . ... : ... .. . ...
ROW 4B : ... .. . ... ... ... ... : ... .. . ... ... ... ... : ... .. . ... : ... .. . ... : ... .. . ...
ROW 4C : ... .. . ... ... ... ... : ... .. . ... ... ... P7F : ... .. . ... : ... .. . ... : ... .. . ...
ROW 4D : ... .. . ... ... ... P80 : ... .. . ... ... ... ... : ... .. . ... : ... .. . ... : ... .. . ...
ROW 4E : ... .. . ... ... ... ... : ... .. . ... ... ... ... : ... .. . ... : ... .. . ... : ... .. . ...
ROW 4F : ... .. . ... ... ... ... : ... .. . ... ... ... P80 : ... .. . ... : ... .. . ... : ... .. . ...
ROW 50 : ... .. . ... ... ... P81 : ... .. . ... ... ... ... : ... .. . ... : ... .. . ... : ... .. . ...
ROW 51 : ... .. . ... ... ... ... : ... .. . ... ... ... ... : ... .. . ... : ... .. . ... : ... .. . ...
ROW 52 : ... .. . ... ... ... ... : ... .. . ... ... ... P81 : ... .. . ... : ... .. . ... : ... .. . ...
ROW 53 : ... .. . ... ... ... P80 : ... .. . ... ... ... ... : ... .. . ... : ... .. . ... : ... .. . ...
ROW 54 : ... .. . ... ... ... ... : ... .. . ... ... ... ... : ... .. . ... : ... .. . ... : ... .. . ...
ROW 55 : ... .. . ... ... ... ... : ... .. . ... ... ... P80 : ... .. . ... : ... .. . ... : ... .. . ...
ROW 56 : ... .. . ... ... ... P7F : ... .. . ... ... ... ... : ... .. . ... : ... .. . ... : ... .. . ...
ROW 57 : ... .. . ... ... ... ... : ... .. . ... ... ... ... : ... .. . ... : ... .. . ... : ... .. . ...
ROW 58 : ... .. . ... ... ... ... : ... .. . ... ... ... P7F : ... .. . ... : ... .. . ... : ... .. . ...
ROW 59 : ... .. . ... ... ... P80 : ... .. . ... ... ... ... : ... .. . ... : ... .. . ... : ... .. . ...
ROW 5A : ... .. . ... ... ... ... : ... .. . ... ... ... ... : ... .. . ... : ... .. . ... : ... .. . ...
ROW 5B : ... .. . ... ... ... ... : ... .. . ... ... ... P80 : ... .. . ... : ... .. . ... : ... .. . ...
ROW 5C : ... .. . ... ... ... P81 : ... .. . ... ... ... ... : ... .. . ... : ... .. . ... : ... .. . ...
ROW 5D : ... .. . ... ... ... ... : ... .. . ... ... ... ... : ... .. . ... : ... .. . ... : ... .. . ...
ROW 5E : ... .. . ... ... ... ... : ... .. . ... ... ... P81 : ... .. . ... : ... .. . ... : ... .. . ...
ROW 5F : ... .. . ... ... ... P80 : ... .. . ... ... ... ... : ... .. . ... : ... .. . ... : ... .. . ...
ROW 60 : ... .. . ... ... ... ... : ... .. . ... ... ... ... : ... .. . ... : ... .. . ... : ... .. . ...
ROW 61 : ... .. . ... ... ... ... : ... .. . ... ... ... P80 : ... .. . ... : ... .. . ... : ... .. . ...
ROW 62 : ... .. . ... ... ... P7F : ... .. . ... ... ... ... : ... .. . ... : ... .. . ... : ... .. . ...
ROW 63 : ... .. . ... ... ... ... : ... .. . ... ... ... ... : ... .. . ... : ... .. . ... : ... .. . ...
ROW 64 : ... .. . ... ... ... ... : ... .. . ... ... ... P7F : ... .. . ... : ... .. . ... : ... .. . ...
ROW 65 : ... .. . ... ... ... P80 : ... .. . ... ... ... ... : ... .. . ... : ... .. . ... : ... .. . ...
ROW 66 : ... .. . ... ... ... ... : ... .. . ... ... ... ... : ... .. . ... : ... .. . ... : ... .. . ...
ROW 67 : ... .. . ... ... ... ... : ... .. . ... ... ... P80 : ... .. . ... : ... .. . ... : ... .. . ...
ROW 68 : ... .. . ... ... ... P81 : ... .. . ... ... ... ... : ... .. . ... : ... .. . ... : ... .. . ...
ROW 69 : ... .. . ... ... ... ... : ... .. . ... ... ... ... : ... .. . ... : ... .. . ... : ... .. . ...
ROW 6A : ... .. . ... ... ... ... : ... .. . ... ... ... P81 : ... .. . ... : ... .. . ... : ... .. . ...
ROW 6B : ... .. . ... ... ... P80 : ... .. . ... ... ... ... : ... .. . ... : ... .. . ... : ... .. . ...
ROW 6C : ... .. . ... ... ... ... : ... .. . ... ... ... ... : ... .. . ... : ... .. . ... : ... .. . ...
ROW 6D : ... .. . ... ... ... ... : ... .. . ... ... ... P80 : ... .. . ... : ... .. . ... : ... .. . ...
ROW 6E : ... .. . ... ... ... P7F : ... .. . ... ... ... ... : ... .. . ... : ... .. . ... : ... .. . ...
ROW 6F : ... .. . ... ... ... ... : ... .. . ... ... ... ... : ... .. . ... : ... .. . ... : ... .. . ...
ROW 70 : ... .. 3 ... ... ... ... : C-4 00 4 V01 ... ... ... : ... .. . ... : ... .. . ... : ... .. . ...
ROW 71 : ... .. . ... ... ... P80 : ... .. . ... ... ... ... : ... .. . ... : ... .. . ... : ... .. . ...
ROW 72 : ... .. . ... ... ... ... : ... .. 3 ... ... ... ... : ... .. . ... : ... .. . ... : ... .. . ...
ROW 73 : ... .. . ... ... ... ... : ... .. . ... ... ... ... : ... .. . ... : ... .. . ... : ... .. . ...
ROW 74 : ... .. . ... ... ... P81 : ... .. 2 ... ... ... ... : ... .. . ... : ... .. . ... : ... .. . ...
ROW 75 : ... .. . ... ... ... ... : ... .. . ... ... ... ... : ... .. . ... : ... .. . ... : ... .. . ...
ROW 76 : ... .. . ... ... ... ... : ... .. . ... ... ... ... : ... .. . ... : ... .. . ... : ... .. . ...
ROW 77 : ... .. . ... ... ... P80 : ... .. . ... ... ... ... : ... .. . ... : ... .. . ... : ... .. . ...
ROW 78 : ... .. . ... ... ... ... : ... .. . ... ... ... ... : ... .. . ... : ... .. . ... : ... .. . ...
ROW 79 : ... .. . ... ... ... ... : ... .. . ... ... ... ... : ... .. . ... : ... .. . ... : ... .. . ...
ROW 7A : ... .. . ... ... ... P7F : ... .. . ... ... ... ... : ... .. . ... : ... .. . ... : ... .. . ...
ROW 7B : ... .. . ... ... ... ... : ... .. . ... ... ... ... : ... .. . ... : ... .. . ... : ... .. . ...
ROW 7C : ... .. . ... ... ... ... : ... .. 1 ... ... ... ... : ... .. . ... : ... .. . ... : ... .. . ...
ROW 7D : ... .. . ... ... ... P80 : ... .. . ... ... ... ... : ... .. . ... : ... .. . ... : ... .. . ...
ROW 7E : ... .. 2 ... ... ... ... : F-4 00 4 ... ... ... ... : ... .. . ... : ... .. . ... : ... .. . ...
ROW 7F : ... .. . ... ... ... ... : ... .. . ... ... ... ... : ... .. . ... : ... .. . ... : ... .. . ...
ROW 80 : ... .. . ... ... ... P81 : ... .. 3 ... ... ... ... : ... .. . ... : ... .. . ... : ... .. . ...
ROW 81 : ... .. . ... ... ... ... : ... .. . ... ... ... ... : ... .. . ... : ... .. . ... : ... .. . ...
ROW 82 : ... .. . ... ... ... ... : ... .. 2 ... ... ... ... : ... .. . ... : ... .. . ... : ... .. . ...
ROW 83 : ... .. . ... ... ... P80 : ... .. . ... ... ... ... : ... .. . ... : ... .. . ... : ... .. . ...
ROW 84 : ... .. . ... ... ... ... : ... .. . ... ... ... ... : ... .. . ... : ... .. . ... : ... .. . ...
ROW 85 : ... .. . ... ... ... ... : ... .. . ... ... ... ... : ... .. . ... : ... .. . ... : ... .. . ...
ROW 86 : ... .. . ... ... ... P7F : ... .. . ... ... ... ... : ... .. . ... : ... .. . ... : ... .. . ...
ROW 87 : ... .. . ... ... ... ... : ... .. . ... ... ... ... : ... .. . ... : ... .. . ... : ... .. . ...
ROW 88 : ... .. . ... ... ... ... : ... .. . ... ... ... ... : ... .. . ... : ... .. . ... : ... .. . ...
ROW 89 : ... .. . ... ... ... P80 : ... .. . ... ... ... ... : ... .. . ... : ... .. . ... : ... .. . ...
ROW 8A : ... .. . ... ... ... ... : ... .. 1 ... ... ... ... : ... .. . ... : ... .. . ... : ... .. . ...
ROW 8B : ... .. . ... ... ... ... : ... .. . ... ... ... ... : ... .. . ... : ... .. . ... : ... .. . ...
ROW 8C : ... .. 1 ... ... ... P81 : E-4 00 4 ... ... ... ... : ... .. . ... : ... .. . ... : ... .. . ...
ROW 8D : ... .. . ... ... ... ... : ... .. . ... ... ... ... : ... .. . ... : ... .. . ... : ... .. . ...
ROW 8E : ... .. . ... ... ... ... : ... .. 3 ... ... ... ... : ... .. . ... : ... .. . ... : ... .. . ...
ROW 8F : ... .. . ... ... ... P80 : ... .. . ... ... ... ... : ... .. . ... : ... .. . ... : ... .. . ...
ROW 90 : ... .. . ... ... ... ... : ... .. 2 ... ... ... ... : ... .. . ... : ... .. . ... : ... .. . ...
ROW 91 : ... .. . ... ... ... ... : ... .. . ... ... ... ... : ... .. . ... : ... .. . ... : ... .. . ...
ROW 92 : ... .. . ... ... ... P7F : ... .. . ... ... ... ... : ... .. . ... : ... .. . ... : ... .. . ...
ROW 93 : ... .. . ... ... ... ... : ... .. . ... ... ... ... : ... .. . ... : ... .. . ... : ... .. . ...
ROW 94 : ... .. . ... ... ... ... : ... .. . ... ... ... ... : ... .. . ... : ... .. . ... : ... .. . ...
ROW 95 : ... .. . ... ... ... P80 : ... .. . ... ... ... ... : ... .. . ... : ... .. . ... : ... .. . ...
ROW 96 : ... .. . ... ... ... ... : ... .. . ... ... ... ... : ... .. . ... : ... .. . ... : ... .. . ...
ROW 97 : ... .. . ... ... ... ... : ... .. . ... ... ... ... : ... .. . ... : ... .. . ... : ... .. . ...
ROW 98 : ... .. . ... ... ... P81 : ... .. . ... ... ... ... : ... .. . ... : ... .. . ... : ... .. . ...
ROW 99 : ... .. . ... ... ... ... : ... .. . ... ... ... ... : ... .. . ... : ... .. . ... : ... .. . ...
ROW 9A : ... .. . ... ... ... ... : ... .. . ... ... ... ... : ... .. . ... : ... .. . ... : ... .. . ...
ROW 9B : ... .. . ... ... ... P80 : ... .. . ... ... ... ... : ... .. . ... : ... .. . ... : ... .. . ...
ROW 9C : ... .. . ... ... ... ... : ... .. . ... ... ... ... : ... .. . ... : ... .. . ... : ... .. . ...
ROW 9D : ... .. . ... ... ... ... : ... .. . ... ... ... ... : ... .. . ... : ... .. . ... : ... .. . ...
ROW 9E : ... .. . ... ... ... P7F : ... .. . ... ... ... ... : ... .. . ... : ... .. . ... : ... .. . ...
ROW 9F : ... .. . ... ... ... ... : ... .. . ... ... ... ... : ... .. . ... : ... .. . ... : ... .. . ...
ROW A0 : ... .. . ... ... ... ... : ... .. . ... ... ... ... : ... .. . ... : ... .. . ... : ... .. . ...
ROW A1 : ... .. . ... ... ... P80 : ... .. . ... ... ... ... : ... .. . ... : ... .. . ... : ... .. . ...
ROW A2 : ... .. . ... ... ... ... : ... .. . ... ... ... ... : ... .. . ... : ... .. . ... : ... .. . ...
ROW A3 : ... .. . ... ... ... ... : ... .. . ... ... ... ... : ... .. . ... : ... .. . ... : ... .. . ...
ROW A4 : ... .. . ... ... ... P81 : ... .. . ... ... ... ... : ... .. . ... : ... .. . ... : ... .. . ...
ROW A5 : ... .. . ... ... ... ... : ... .. . ... ... ... ... : ... .. . ... : ... .. . ... : ... .. . ...
ROW A6 : ... .. . ... ... ... ... : ... .. . ... ... ... ... : ... .. . ... : ... .. . ... : ... .. . ...
ROW A7 : ... .. . ... ... ... P80 : ... .. . ... ... ... ... : ... .. . ... : ... .. . ... : ... .. . ...
ROW A8 : ... .. . ... ... ... ... : ... .. . ... ... ... P81 : ... .. . ... : ... .. . ... : ... .. . ...
ROW A9 : ... .. . ... ... ... ... : ... .. . ... ... ... ... : ... .. . ... : ... .. . ... : ... .. . ...
ROW AA : ... .. . ... ... ... P7F : ... .. . ... ... ... ... : ... .. . ... : ... .. . ... : ... .. . ...
ROW AB : ... .. . ... ... ... ... : ... .. . ... ... ... P80 : ... .. . ... : ... .. . ... : ... .. . ...
ROW AC : ... .. . ... ... ... ... : ... .. . ... ... ... ... : ... .. . ... : ... .. . ... : ... .. . ...
ROW AD : ... .. . ... ... ... P80 : ... .. . ... ... ... ... : ... .. . ... : ... .. . ... : ... .. . ...
ROW AE : ... .. . ... ... ... ... : ... .. . ... ... ... P7F : ... .. . ... : ... .. . ... : ... .. . ...
ROW AF : ... .. . ... ... ... ... : ... .. . ... ... ... ... : ... .. . ... : ... .. . ... : ... .. . ...
ROW B0 : ... .. . ... ... ... P81 : ... .. . ... ... ... ... : ... .. . ... : ... .. . ... : ... .. . ...
ROW B1 : ... .. . ... ... ... ... : ... .. . ... ... ... P80 : ... .. . ... : ... .. . ... : ... .. . ...
ROW B2 : ... .. . ... ... ... ... : ... .. . ... ... ... ... : ... .. . ... : ... .. . ... : ... .. . ...
ROW B3 : ... .. . ... ... ... P80 : ... .. . ... ... ... ... : ... .. . ... : ... .. . ... : ... .. . ...
ROW B4 : ... .. . ... ... ... ... : ... .. . ... ... ... P81 : ... .. . ... : ... .. . ... : ... .. . ...
ROW B5 : ... .. . ... ... ... ... : ... .. . ... ... ... ... : ... .. . ... : ... .. . ... : ... .. . ...
ROW B6 : ... .. . ... ... ... P7F : ... .. . ... ... ... ... : ... .. . ... : ... .. . ... : ... .. . ...
ROW B7 : ... .. . ... ... ... ... : ... .. . ... ... ... P80 : ... .. . ... : ... .. . ... : ... .. . ...
ROW B8 : ... .. . ... ... ... ... : ... .. . ... ... ... ... : ... .. . ... : ... .. . ... : ... .. . ...
ROW B9 : ... .. . ... ... ... P80 : ... .. . ... ... ... ... : ... .. . ... : ... .. . ... : ... .. . ...
ROW BA : ... .. . ... ... ... ... : ... .. . ... ... ... P7F : ... .. . ... : ... .. . ... : ... .. . ...
ROW BB : ... .. . ... ... ... ... : ... .. . ... ... ... ... : ... .. . ... : ... .. . ... : ... .. . ...
ROW BC : ... .. . ... ... ... P81 : ... .. . ... ... ... ... : ... .. . ... : ... .. . ... : ... .. . ...
ROW BD : ... .. . ... ... ... ... : ... .. . ... ... ... P80 : ... .. . ... : ... .. . ... : ... .. . ...
ROW BE : ... .. . ... ... ... ... : ... .. . ... ... ... ... : ... .. . ... : ... .. . ... : ... .. . ...
ROW BF : ... .. . ... ... ... P80 : ... .. . ... ... ... ... : ... .. . ... : ... .. . ... : ... .. . ...
ROW C0 : ... .. . ... ... ... ... : ... .. . ... ... ... P81 : ... .. . ... : ... .. . ... : ... .. . ...
ROW C1 : ... .. . ... ... ... ... : ... .. . ... ... ... ... : ... .. . ... : ... .. . ... : ... .. . ...
ROW C2 : ... .. . ... ... ... P7F : ... .. . ... ... ... ... : ... .. . ... : ... .. . ... : ... .. . ...
ROW C3 : ... .. . ... ... ... ... : ... .. . ... ... ... P80 : ... .. . ... : ... .. . ... : ... .. . ...
ROW C4 : ... .. . ... ... ... ... : ... .. . ... ... ... ... : ... .. . ... : ... .. . ... : ... .. . ...
ROW C5 : ... .. . ... ... ... P80 : ... .. . ... ... ... ... : ... .. . ... : ... .. . ... : ... .. . ...
ROW C6 : ... .. . ... ... ... ... : ... .. . ... ... ... P7F : ... .. . ... : ... .. . ... : ... .. . ...
ROW C7 : ... .. . ... ... ... ... : ... .. . ... ... ... ... : ... .. . ... : ... .. . ... : ... .. . ...
ROW C8 : ... .. . ... ... ... P81 : ... .. . ... ... ... ... : ... .. . ... : ... .. . ... : ... .. . ...
ROW C9 : ... .. . ... ... ... ... : ... .. . ... ... ... P80 : ... .. . ... : ... .. . ... : ... .. . ...
ROW CA : ... .. . ... ... ... ... : ... .. . ... ... ... ... : ... .. . ... : ... .. . ... : ... .. . ...
ROW CB : ... .. . ... ... ... P80 : ... .. . ... ... ... ... : ... .. . ... : ... .. . ... : ... .. . ...
ROW CC : ... .. . ... ... ... ... : ... .. . ... ... ... P81 : ... .. . ... : ... .. . ... : ... .. . ...
ROW CD : ... .. . ... ... ... ... : ... .. . ... ... ... ... : ... .. . ... : ... .. . ... : ... .. . ...
ROW CE : ... .. . ... ... ... P7F : ... .. . ... ... ... ... : ... .. . ... : ... .. . ... : ... .. . ...
ROW CF : ... .. . ... ... ... ... : ... .. . ... ... ... P80 : ... .. . ... : ... .. . ... : ... .. . ...
ROW D0 : ... .. . ... ... ... ... : ... .. . ... ... ... ... : ... .. . ... : ... .. . ... : ... .. . ...
ROW D1 : ... .. . ... ... ... P80 : ... .. . ... ... ... ... : ... .. . ... : ... .. . ... : ... .. . ...
ROW D2 : ... .. . ... ... ... ... : ... .. 2 ... ... ... P7F : ... .. . ... : ... .. . ... : ... .. . ...
ROW D3 : ... .. . ... ... ... ... : ... .. . ... ... ... ... : ... .. . ... : ... .. . ... : ... .. . ...
ROW D4 : ... .. . ... ... ... P81 : ... .. . ... ... ... ... : ... .. . ... : ... .. . ... : ... .. . ...
ROW D5 : ... .. . ... ... ... ... : ... .. . ... ... ... P80 : ... .. . ... : ... .. . ... : ... .. . ...
ROW D6 : ... .. . ... ... ... ... : ... .. . ... ... ... ... : ... .. . ... : ... .. . ... : ... .. . ...
ROW D7 : ... .. . ... ... ... P80 : ... .. . ... ... ... ... : ... .. . ... : ... .. . ... : ... .. . ...
ROW D8 : ... .. . ... ... ... ... : ... .. . ... ... ... P81 : ... .. . ... : ... .. . ... : ... .. . ...
ROW D9 : ... .. . ... ... ... ... : ... .. . ... ... ... ... : ... .. . ... : ... .. . ... : ... .. . ...
ROW DA : ... .. . ... ... ... P7F : ... .. . ... ... ... ... : ... .. . ... : ... .. . ... : ... .. . ...
ROW DB : ... .. . ... ... ... ... : ... .. . ... ... ... P80 : ... .. . ... : ... .. . ... : ... .. . ...
ROW DC : ... .. . ... ... ... ... : ... .. . ... ... ... ... : ... .. . ... : ... .. . ... : ... .. . ...
ROW DD : ... .. . ... ... ... P80 : ... .. . ... ... ... ... : ... .. . ... : ... .. . ... : ... .. . ...
ROW DE : ... .. . ... ... ... ... : ... .. . ... ... ... P7F : ... .. . ... : ... .. . ... : ... .. . ...
ROW DF : ... .. . ... ... ... ... : ... .. . ... ... ... ... : ... .. . ... : ... .. . ... : ... .. . ...

PATTERN 3E
ROW 00 : A-3 00 1 V02 ... ... ... : ... .. 1 ... ... ... P80 : ... .. . ... : ... .. . ... : ... .. . ...
ROW 01 : ... .. 2 ... ... ... ... : ... .. . ... ... ... ... : ... .. . ... : ... .. . ... : ... .. . ...
ROW 02 : ... .. 3 ... ... ... ... : ... .. . ... ... ... ... : ... .. . ... : ... .. . ... : ... .. . ...
ROW 03 : ... .. 4 ... ... ... ... : ... .. . ... ... ... P81 : ... .. . ... : ... .. . ... : ... .. . ...
ROW 04 : ... .. . ... ... ... ... : ... .. . ... ... ... ... : ... .. . ... : ... .. . ... : ... .. . ...
ROW 05 : ... .. . ... ... ... ... : ... .. . ... ... ... ... : ... .. . ... : ... .. . ... : ... .. . ...
ROW 06 : ... .. . ... ... ... ... : ... .. . ... ... ... P80 : ... .. . ... : ... .. . ... : ... .. . ...
ROW 07 : ... .. . ... ... ... ... : ... .. . ... ... ... ... : ... .. . ... : ... .. . ... : ... .. . ...
ROW 08 : ... .. . ... ... ... ... : ... .. . ... ... ... ... : ... .. . ... : ... .. . ... : ... .. . ...
ROW 09 : ... .. . ... ... ... ... : ... .. . ... ... ... P7F : ... .. . ... : ... .. . ... : ... .. . ...
ROW 0A : ... .. . ... ... ... ... : ... .. . ... ... ... ... : ... .. . ... : ... .. . ... : ... .. . ...
ROW 0B : ... .. . ... ... ... ... : ... .. . ... ... ... ... : ... .. . ... : ... .. . ... : ... .. . ...
ROW 0C : ... .. 1 ... ... ... ... : ... .. . ... ... ... P80 : ... .. . ... : ... .. . ... : ... .. . ...
ROW 0D : ... .. . ... ... ... ... : ... .. . ... ... ... ... : ... .. . ... : ... .. . ... : ... .. . ...
ROW 0E : C-4 00 1 ... ... ... ... : A-3 00 1 V02 ... ... ... : ... .. . ... : ... .. . ... : ... .. . ...
ROW 0F : ... .. 2 ... ... ... ... : ... .. . ... ... ... ... : ... .. . ... : ... .. . ... : ... .. . ...
ROW 10 : ... .. 3 ... ... ... ... : ... .. . ... ... ... ... : ... .. . ... : ... .. . ... : ... .. . ...
ROW 11 : ... .. 4 ... ... ... ... : ... .. . ... ... ... ... : ... .. . ... : ... .. . ... : ... .. . ...
ROW 12 : ... .. . ... ... ... ... : ... .. . ... ... ... ... : ... .. . ... : ... .. . ... : ... .. . ...
ROW 13 : ... .. . ... ... ... ... : ... .. . ... ... ... ... : ... .. . ... : ... .. . ... : ... .. . ...
ROW 14 : ... .. . ... ... ... ... : ... .. . ... ... ... ... : ... .. . ... : ... .. . ... : ... .. . ...
ROW 15 : ... .. . ... ... ... ... : ... .. . ... ... ... ... : ... .. . ... : ... .. . ... : ... .. . ...
ROW 16 : ... .. . ... ... ... ... : ... .. . ... ... ... ... : ... .. . ... : ... .. . ... : ... .. . ...
ROW 17 : ... .. . ... ... ... ... : ... .. . ... ... ... ... : ... .. . ... : ... .. . ... : ... .. . ...
ROW 18 : ... .. . ... ... ... ... : ... .. . ... ... ... ... : ... .. . ... : ... .. . ... : ... .. . ...
ROW 19 : ... .. . ... ... ... ... : ... .. . ... ... ... ... : ... .. . ... : ... .. . ... : ... .. . ...
ROW 1A : ... .. 1 ... ... ... ... : ... .. . ... ... ... ... : ... .. . ... : ... .. . ... : ... .. . ...
ROW 1B : ... .. . ... ... ... ... : ... .. . ... ... ... ... : ... .. . ... : ... .. . ... : ... .. . ...
ROW 1C : G-4 00 1 ... ... ... ... : C-4 00 . ... ... ... ... : ... .. . ... : ... .. . ... : ... .. . ...
ROW 1D : ... .. 2 ... ... ... ... : ... .. . ... ... ... ... : ... .. . ... : ... .. . ... : ... .. . ...
ROW 1E : ... .. 3 ... ... ... ... : ... .. . ... ... ... ... : ... .. . ... : ... .. . ... : ... .. . ...
ROW 1F : ... .. 4 ... ... ... ... : ... .. . ... ... ... ... : ... .. . ... : ... .. . ... : ... .. . ...
ROW 20 : ... .. . ... ... ... ... : ... .. . ... ... ... ... : ... .. . ... : ... .. . ... : ... .. . ...
ROW 21 : ... .. . ... ... ... ... : ... .. . ... ... ... ... : ... .. . ... : ... .. . ... : ... .. . ...
ROW 22 : ... .. . ... ... ... ... : ... .. . ... ... ... ... : ... .. . ... : ... .. . ... : ... .. . ...
ROW 23 : ... .. . ... ... ... ... : ... .. . ... ... ... ... : ... .. . ... : ... .. . ... : ... .. . ...
ROW 24 : ... .. . ... ... ... ... : ... .. . ... ... ... ... : ... .. . ... : ... .. . ... : ... .. . ...
ROW 25 : ... .. . ... ... ... ... : ... .. . ... ... ... ... : ... .. . ... : ... .. . ... : ... .. . ...
ROW 26 : ... .. . ... ... ... ... : ... .. . ... ... ... ... : ... .. . ... : ... .. . ... : ... .. . ...
ROW 27 : ... .. . ... ... ... ... : ... .. . ... ... ... ... : ... .. . ... : ... .. . ... : ... .. . ...
ROW 28 : ... .. . ... ... ... ... : ... .. . ... ... ... ... : ... .. . ... : ... .. . ... : ... .. . ...
ROW 29 : ... .. . ... ... ... ... : ... .. . ... ... ... ... : ... .. . ... : ... .. . ... : ... .. . ...
ROW 2A : ... .. . ... ... ... ... : G-4 00 . ... ... ... ... : ... .. . ... : ... .. . ... : ... .. . ...
ROW 2B : ... .. . ... ... ... ... : ... .. . ... ... ... ... : ... .. . ... : ... .. . ... : ... .. . ...
ROW 2C : ... .. . ... ... ... ... : ... .. . ... ... ... ... : ... .. . ... : ... .. . ... : ... .. . ...
ROW 2D : ... .. . ... ... ... ... : ... .. . ... ... ... ... : ... .. . ... : ... .. . ... : ... .. . ...
ROW 2E : ... .. . ... ... ... ... : ... .. . ... ... ... ... : ... .. . ... : ... .. . ... : ... .. . ...
ROW 2F : ... .. . ... ... ... ... : ... .. . ... ... ... ... : ... .. . ... : ... .. . ... : ... .. . ...
ROW 30 : ... .. . ... ... ... ... : ... .. . ... ... ... ... : ... .. . ... : ... .. . ... : ... .. . ...
ROW 31 : ... .. . ... ... ... ... : ... .. . ... ... ... ... : ... .. . ... : ... .. . ... : ... .. . ...
ROW 32 : ... .. . ... ... ... ... : ... .. . ... ... ... ... : ... .. . ... : ... .. . ... : ... .. . ...
ROW 33 : ... .. . ... ... ... ... : ... .. . ... ... ... ... : ... .. . ... : ... .. . ... : ... .. . ...
ROW 34 : ... .. . ... ... ... ... : ... .. . ... ... ... ... : ... .. . ... : ... .. . ... : ... .. . ...
ROW 35 : ... .. . ... ... ... ... : ... .. . ... ... ... ... : ... .. . ... : ... .. . ... : ... .. . ...
ROW 36 : ... .. . ... ... ... ... : ... .. . ... ... ... ... : ... .. . ... : ... .. . ... : ... .. . ...
ROW 37 : ... .. . ... ... ... ... : ... .. . ... ... ... ... : ... .. . ... : ... .. . ... : ... .. . ...
ROW 38 : ... .. . ... ... ... P81 : ... .. . ... ... ... ... : ... .. . ... : ... .. . ... : ... .. . ...
ROW 39 : ... .. . ... ... ... ... : ... .. . ... ... ... ... : ... .. . ... : ... .. . ... : ... .. . ...
ROW 3A : ... .. . ... ... ... ... : ... .. . ... ... ... ... : ... .. . ... : ... .. . ... : ... .. . ...
ROW 3B : ... .. . ... ... ... P80 : ... .. . ... ... ... ... : ... .. . ... : ... .. . ... : ... .. . ...
ROW 3C : ... .. . ... ... ... ... : ... .. . ... ... ... ... : ... .. . ... : ... .. . ... : ... .. . ...
ROW 3D : ... .. . ... ... ... ... : ... .. . ... ... ... ... : ... .. . ... : ... .. . ... : ... .. . ...
ROW 3E : ... .. . ... ... ... P7F : ... .. . ... ... ... ... : ... .. . ... : ... .. . ... : ... .. . ...
ROW 3F : ... .. . ... ... ... ... : ... .. . ... ... ... ... : ... .. . ... : ... .. . ... : ... .. . ...
ROW 40 : ... .. . ... ... ... ... : ... .. . ... ... ... ... : ... .. . ... : ... .. . ... : ... .. . ...
ROW 41 : ... .. . ... ... ... P80 : ... .. . ... ... ... ... : ... .. . ... : ... .. . ... : ... .. . ...
ROW 42 : ... .. . ... ... ... ... : ... .. . ... ... ... ... : ... .. . ... : ... .. . ... : ... .. . ...
ROW 43 : ... .. . ... ... ... ... : ... .. . ... ... ... ... : ... .. . ... : ... .. . ... : ... .. . ...
ROW 44 : ... .. . ... ... ... P81 : ... .. . ... ... ... ... : ... .. . ... : ... .. . ... : ... .. . ...
ROW 45 : ... .. . ... ... ... ... : ... .. . ... ... ... ... : ... .. . ... : ... .. . ... : ... .. . ...
ROW 46 : ... .. . ... ... ... ... : ... .. . ... ... ... P81 : ... .. . ... : ... .. . ... : ... .. . ...
ROW 47 : ... .. . ... ... ... P80 : ... .. . ... ... ... ... : ... .. . ... : ... .. . ... : ... .. . ...
ROW 48 : ... .. . ... ... ... ... : ... .. . ... ... ... ... : ... .. . ... : ... .. . ... : ... .. . ...
ROW 49 : ... .. . ... ... ... ... : ... .. . ... ... ... P80 : ... .. . ... : ... .. . ... : ... .. . ...
ROW 4A : ... .. . ... ... ... P7F : ... .. . ... ... ... ... : ... .. . ... : ... .. . ... : ... .. . ...
ROW 4B : ... .. . ... ... ... ... : ... .. . ... ... ... ... : ... .. . ... : ... .. . ... : ... .. . ...
ROW 4C : ... .. . ... ... ... ... : ... .. . ... ... ... P7F : ... .. . ... : ... .. . ... : ... .. . ...
ROW 4D : ... .. . ... ... ... P80 : ... .. . ... ... ... ... : ... .. . ... : ... .. . ... : ... .. . ...
ROW 4E : ... .. . ... ... ... ... : ... .. . ... ... ... ... : ... .. . ... : ... .. . ... : ... .. . ...
ROW 4F : ... .. . ... ... ... ... : ... .. . ... ... ... P80 : ... .. . ... : ... .. . ... : ... .. . ...
ROW 50 : ... .. . ... ... ... P81 : ... .. . ... ... ... ... : ... .. . ... : ... .. . ... : ... .. . ...
ROW 51 : ... .. . ... ... ... ... : ... .. . ... ... ... ... : ... .. . ... : ... .. . ... : ... .. . ...
ROW 52 : ... .. . ... ... ... ... : ... .. . ... ... ... P81 : ... .. . ... : ... .. . ... : ... .. . ...
ROW 53 : ... .. . ... ... ... P80 : ... .. . ... ... ... ... : ... .. . ... : ... .. . ... : ... .. . ...
ROW 54 : ... .. . ... ... ... ... : ... .. . ... ... ... ... : ... .. . ... : ... .. . ... : ... .. . ...
ROW 55 : ... .. . ... ... ... ... : ... .. . ... ... ... P80 : ... .. . ... : ... .. . ... : ... .. . ...
ROW 56 : ... .. . ... ... ... P7F : ... .. . ... ... ... ... : ... .. . ... : ... .. . ... : ... .. . ...
ROW 57 : ... .. . ... ... ... ... : ... .. . ... ... ... ... : ... .. . ... : ... .. . ... : ... .. . ...
ROW 58 : ... .. . ... ... ... ... : ... .. . ... ... ... P7F : ... .. . ... : ... .. . ... : ... .. . ...
ROW 59 : ... .. . ... ... ... P80 : ... .. . ... ... ... ... : ... .. . ... : ... .. . ... : ... .. . ...
ROW 5A : ... .. . ... ... ... ... : ... .. . ... ... ... ... : ... .. . ... : ... .. . ... : ... .. . ...
ROW 5B : ... .. . ... ... ... ... : ... .. . ... ... ... P80 : ... .. . ... : ... .. . ... : ... .. . ...
ROW 5C : ... .. . ... ... ... P81 : ... .. . ... ... ... ... : ... .. . ... : ... .. . ... : ... .. . ...
ROW 5D : ... .. . ... ... ... ... : ... .. . ... ... ... ... : ... .. . ... : ... .. . ... : ... .. . ...
ROW 5E : ... .. . ... ... ... ... : ... .. . ... ... ... P81 : ... .. . ... : ... .. . ... : ... .. . ...
ROW 5F : ... .. . ... ... ... P80 : ... .. . ... ... ... ... : ... .. . ... : ... .. . ... : ... .. . ...
ROW 60 : ... .. . ... ... ... ... : ... .. . ... ... ... ... : ... .. . ... : ... .. . ... : ... .. . ...
ROW 61 : ... .. . ... ... ... ... : ... .. . ... ... ... P80 : ... .. . ... : ... .. . ... : ... .. . ...
ROW 62 : ... .. . ... ... ... P7F : ... .. . ... ... ... ... : ... .. . ... : ... .. . ... : ... .. . ...
ROW 63 : ... .. . ... ... ... ... : ... .. . ... ... ... ... : ... .. . ... : ... .. . ... : ... .. . ...
ROW 64 : ... .. . ... ... ... ... : ... .. . ... ... ... P7F : ... .. . ... : ... .. . ... : ... .. . ...
ROW 65 : ... .. . ... ... ... P80 : ... .. . ... ... ... ... : ... .. . ... : ... .. . ... : ... .. . ...
ROW 66 : ... .. . ... ... ... ... : ... .. . ... ... ... ... : ... .. . ... : ... .. . ... : ... .. . ...
ROW 67 : ... .. . ... ... ... ... : ... .. . ... ... ... P80 : ... .. . ... : ... .. . ... : ... .. . ...
ROW 68 : ... .. . ... ... ... P81 : ... .. . ... ... ... ... : ... .. . ... : ... .. . ... : ... .. . ...
ROW 69 : ... .. . ... ... ... ... : ... .. . ... ... ... ... : ... .. . ... : ... .. . ... : ... .. . ...
ROW 6A : ... .. . ... ... ... ... : ... .. . ... ... ... P81 : ... .. . ... : ... .. . ... : ... .. . ...
ROW 6B : ... .. . ... ... ... P80 : ... .. . ... ... ... ... : ... .. . ... : ... .. . ... : ... .. . ...
ROW 6C : ... .. . ... ... ... ... : ... .. . ... ... ... ... : ... .. . ... : ... .. . ... : ... .. . ...
ROW 6D : ... .. . ... ... ... ... : ... .. . ... ... ... P80 : ... .. . ... : ... .. . ... : ... .. . ...
ROW 6E : ... .. . ... ... ... P7F : ... .. . ... ... ... ... : ... .. . ... : ... .. . ... : ... .. . ...
ROW 6F : ... .. . ... ... ... ... : ... .. . ... ... ... ... : ... .. . ... : ... .. . ... : ... .. . ...
ROW 70 : ... .. 3 ... ... ... ... : ... .. . ... ... ... P7F : ... .. . ... : ... .. . ... : ... .. . ...
ROW 71 : ... .. . ... ... ... P80 : ... .. . ... ... ... ... : ... .. . ... : ... .. . ... : ... .. . ...
ROW 72 : ... .. . ... ... ... ... : ... .. . ... ... ... ... : ... .. . ... : ... .. . ... : ... .. . ...
ROW 73 : ... .. . ... ... ... ... : ... .. . ... ... ... P80 : ... .. . ... : ... .. . ... : ... .. . ...
ROW 74 : ... .. . ... ... ... P81 : ... .. . ... ... ... ... : ... .. . ... : ... .. . ... : ... .. . ...
ROW 75 : ... .. . ... ... ... ... : ... .. . ... ... ... ... : ... .. . ... : ... .. . ... : ... .. . ...
ROW 76 : ... .. . ... ... ... ... : ... .. . ... ... ... P81 : ... .. . ... : ... .. . ... : ... .. . ...
ROW 77 : ... .. . ... ... ... P80 : ... .. . ... ... ... ... : ... .. . ... : ... .. . ... : ... .. . ...
ROW 78 : ... .. . ... ... ... ... : ... .. . ... ... ... ... : ... .. . ... : ... .. . ... : ... .. . ...
ROW 79 : ... .. . ... ... ... ... : ... .. . ... ... ... P80 : ... .. . ... : ... .. . ... : ... .. . ...
ROW 7A : ... .. . ... ... ... P7F : ... .. . ... ... ... ... : ... .. . ... : ... .. . ... : ... .. . ...
ROW 7B : ... .. . ... ... ... ... : ... .. . ... ... ... ... : ... .. . ... : ... .. . ... : ... .. . ...
ROW 7C : ... .. . ... ... ... ... : ... .. . ... ... ... P7F : ... .. . ... : ... .. . ... : ... .. . ...
ROW 7D : ... .. . ... ... ... P80 : ... .. . ... ... ... ... : ... .. . ... : ... .. . ... : ... .. . ...
ROW 7E : ... .. 2 ... ... ... ... : ... .. . ... ... ... ... : ... .. . ... : ... .. . ... : ... .. . ...
ROW 7F : ... .. . ... ... ... ... : ... .. . ... ... ... P80 : ... .. . ... : ... .. . ... : ... .. . ...
ROW 80 : ... .. . ... ... ... P81 : ... .. . ... ... ... ... : ... .. . ... : ... .. . ... : ... .. . ...
ROW 81 : ... .. . ... ... ... ... : ... .. . ... ... ... ... : ... .. . ... : ... .. . ... : ... .. . ...
ROW 82 : ... .. . ... ... ... ... : ... .. . ... ... ... P81 : ... .. . ... : ... .. . ... : ... .. . ...
ROW 83 : ... .. . ... ... ... P80 : ... .. . ... ... ... ... : ... .. . ... : ... .. . ... : ... .. . ...
ROW 84 : ... .. . ... ... ... ... : ... .. . ... ... ... ... : ... .. . ... : ... .. . ... : ... .. . ...
ROW 85 : ... .. . ... ... ... ... : ... .. . ... ... ... P80 : ... .. . ... : ... .. . ... : ... .. . ...
ROW 86 : ... .. . ... ... ... P7F : ... .. . ... ... ... ... : ... .. . ... : ... .. . ... : ... .. . ...
ROW 87 : ... .. . ... ... ... ... : ... .. . ... ... ... ... : ... .. . ... : ... .. . ... : ... .. . ...
ROW 88 : ... .. . ... ... ... ... : ... .. . ... ... ... P7F : ... .. . ... : ... .. . ... : ... .. . ...
ROW 89 : ... .. . ... ... ... P80 : ... .. . ... ... ... ... : ... .. . ... : ... .. . ... : ... .. . ...
ROW 8A : ... .. . ... ... ... ... : ... .. . ... ... ... ... : ... .. . ... : ... .. . ... : ... .. . ...
ROW 8B : ... .. . ... ... ... D00 : ... .. . ... ... ... P80 : ... .. . ... : ... .. . ... : ... .. . ...
ROW 8C : ... .. . ... ... ... ... : ... .. . ... ... ... ... : ... .. . ... : ... .. . ... : ... .. . ...
ROW 8D : ... .. . ... ... ... ... : ... .. . ... ... ... ... : ... .. . ... : ... .. . ... : ... .. . ...
ROW 8E : ... .. . ... ... ... ... : ... .. . ... ... ... ... : ... .. . ... : ... .. . ... : ... .. . ...
ROW 8F : ... .. . ... ... ... ... : ... .. . ... ... ... ... : ... .. . ... : ... .. . ... : ... .. . ...
ROW 90 : ... .. . ... ... ... ... : ... .. . ... ... ... ... : ... .. . ... : ... .. . ... : ... .. . ...
ROW 91 : ... .. . ... ... ... ... : ... .. . ... ... ... ... : ... .. . ... : ... .. . ... : ... .. . ...
ROW 92 : ... .. . ... ... ... ... : ... .. . ... ... ... ... : ... .. . ... : ... .. . ... : ... .. . ...
ROW 93 : ... .. . ... ... ... ... : ... .. . ... ... ... ... : ... .. . ... : ... .. . ... : ... .. . ...
ROW 94 : ... .. . ... ... ... ... : ... .. . ... ... ... ... : ... .. . ... : ... .. . ... : ... .. . ...
ROW 95 : ... .. . ... ... ... ... : ... .. . ... ... ... ... : ... .. . ... : ... .. . ... : ... .. . ...
ROW 96 : ... .. . ... ... ... ... : ... .. . ... ... ... ... : ... .. . ... : ... .. . ... : ... .. . ...
ROW 97 : ... .. . ... ... ... ... : ... .. . ... ... ... ... : ... .. . ... : ... .. . ... : ... .. . ...
ROW 98 : ... .. . ... ... ... ... : ... .. . ... ... ... ... : ... .. . ... : ... .. . ... : ... .. . ...
ROW 99 : ... .. . ... ... ... ... : ... .. . ... ... ... ... : ... .. . ... : ... .. . ... : ... .. . ...
ROW 9A : ... .. . ... ... ... ... : ... .. . ... ... ... ... : ... .. . ... : ... .. . ... : ... .. . ...
ROW 9B : ... .. . ... ... ... ... : ... .. . ... ... ... ... : ... .. . ... : ... .. . ... : ... .. . ...
ROW 9C : ... .. . ... ... ... ... : ... .. . ... ... ... ... : ... .. . ... : ... .. . ... : ... .. . ...
ROW 9D : ... .. . ... ... ... ... : ... .. . ... ... ... ... : ... .. . ... : ... .. . ... : ... .. . ...
ROW 9E : ... .. . ... ... ... ... : ... .. . ... ... ... ... : ... .. . ... : ... .. . ... : ... .. . ...
ROW 9F : ... .. . ... ... ... ... : ... .. . ... ... ... ... : ... .. . ... : ... .. . ... : ... .. . ...
ROW A0 : ... .. . ... ... ... ... : ... .. . ... ... ... ... : ... .. . ... : ... .. . ... : ... .. . ...
ROW A1 : ... .. . ... ... ... ... : ... .. . ... ... ... ... : ... .. . ... : ... .. . ... : ... .. . ...
ROW A2 : ... .. . ... ... ... ... : ... .. . ... ... ... ... : ... .. . ... : ... .. . ... : ... .. . ...
ROW A3 : ... .. . ... ... ... ... : ... .. . ... ... ... ... : ... .. . ... : ... .. . ... : ... .. . ...
ROW A4 : ... .. . ... ... ... ... : ... .. . ... ... ... ... : ... .. . ... : ... .. . ... : ... .. . ...
ROW A5 : ... .. . ... ... ... ... : ... .. . ... ... ... ... : ... .. . ... : ... .. . ... : ... .. . ...
ROW A6 : ... .. . ... ... ... ... : ... .. . ... ... ... ... : ... .. . ... : ... .. . ... : ... .. . ...
ROW A7 : ... .. . ... ... ... ... : ... .. . ... ... ... ... : ... .. . ... : ... .. . ... : ... .. . ...
ROW A8 : ... .. . ... ... ... ... : ... .. . ... ... ... ... : ... .. . ... : ... .. . ... : ... .. . ...
ROW A9 : ... .. . ... ... ... ... : ... .. . ... ... ... ... : ... .. . ... : ... .. . ... : ... .. . ...
ROW AA : ... .. . ... ... ... ... : ... .. . ... ... ... ... : ... .. . ... : ... .. . ... : ... .. . ...
ROW AB : ... .. . ... ... ... ... : ... .. . ... ... ... ... : ... .. . ... : ... .. . ... : ... .. . ...
ROW AC : ... .. . ... ... ... ... : ... .. . ... ... ... ... : ... .. . ... : ... .. . ... : ... .. . ...
ROW AD : ... .. . ... ... ... ... : ... .. . ... ... ... ... : ... .. . ... : ... .. . ... : ... .. . ...
ROW AE : ... .. . ... ... ... ... : ... .. . ... ... ... ... : ... .. . ... : ... .. . ... : ... .. . ...
ROW AF : ... .. . ... ... ... ... : ... .. . ... ... ... ... : ... .. . ... : ... .. . ... : ... .. . ...
ROW B0 : ... .. . ... ... ... ... : ... .. . ... ... ... ... : ... .. . ... : ... .. . ... : ... .. . ...
ROW B1 : ... .. . ... ... ... ... : ... .. . ... ... ... ... : ... .. . ... : ... .. . ... : ... .. . ...
ROW B2 : ... .. . ... ... ... ... : ... .. . ... ... ... ... : ... .. . ... : ... .. . ... : ... .. . ...
ROW B3 : ... .. . ... ... ... ... : ... .. . ... ... ... ... : ... .. . ... : ... .. . ... : ... .. . ...
ROW B4 : ... .. . ... ... ... ... : ... .. . ... ... ... ... : ... .. . ... : ... .. . ... : ... .. . ...
ROW B5 : ... .. . ... ... ... ... : ... .. . ... ... ... ... : ... .. . ... : ... .. . ... : ... .. . ...
ROW B6 : ... .. . ... ... ... ... : ... .. . ... ... ... ... : ... .. . ... : ... .. . ... : ... .. . ...
ROW B7 : ... .. . ... ... ... ... : ... .. . ... ... ... ... : ... .. . ... : ... .. . ... : ... .. . ...
ROW B8 : ... .. . ... ... ... ... : ... .. . ... ... ... ... : ... .. . ... : ... .. . ... : ... .. . ...
ROW B9 : ... .. . ... ... ... ... : ... .. . ... ... ... ... : ... .. . ... : ... .. . ... : ... .. . ...
ROW BA : ... .. . ... ... ... ... : ... .. . ... ... ... ... : ... .. . ... : ... .. . ... : ... .. . ...
ROW BB : ... .. . ... ... ... ... : ... .. . ... ... ... ... : ... .. . ... : ... .. . ... : ... .. . ...
ROW BC : ... .. . ... ... ... ... : ... .. . ... ... ... ... : ... .. . ... : ... .. . ... : ... .. . ...
ROW BD : ... .. . ... ... ... ... : ... .. . ... ... ... ... : ... .. . ... : ... .. . ... : ... .. . ...
ROW BE : ... .. . ... ... ... ... : ... .. . ... ... ... ... : ... .. . ... : ... .. . ... : ... .. . ...
ROW BF : ... .. . ... ... ... ... : ... .. . ... ... ... ... : ... .. . ... : ... .. . ... : ... .. . ...
ROW C0 : ... .. . ... ... ... ... : ... .. . ... ... ... ... : ... .. . ... : ... .. . ... : ... .. . ...
ROW C1 : ... .. . ... ... ... ... : ... .. . ... ... ... ... : ... .. . ... : ... .. . ... : ... .. . ...
ROW C2 : ... .. . ... ... ... ... : ... .. . ... ... ... ... : ... .. . ... : ... .. . ... : ... .. . ...
ROW C3 : ... .. . ... ... ... ... : ... .. . ... ... ... ... : ... .. . ... : ... .. . ... : ... .. . ...
ROW C4 : ... .. . ... ... ... ... : ... .. . ... ... ... ... : ... .. . ... : ... .. . ... : ... .. . ...
ROW C5 : ... .. . ... ... ... ... : ... .. . ... ... ... ... : ... .. . ... : ... .. . ... : ... .. . ...
ROW C6 : ... .. . ... ... ... ... : ... .. . ... ... ... ... : ... .. . ... : ... .. . ... : ... .. . ...
ROW C7 : ... .. . ... ... ... ... : ... .. . ... ... ... ... : ... .. . ... : ... .. . ... : ... .. . ...
ROW C8 : ... .. . ... ... ... ... : ... .. . ... ... ... ... : ... .. . ... : ... .. . ... : ... .. . ...
ROW C9 : ... .. . ... ... ... ... : ... .. . ... ... ... ... : ... .. . ... : ... .. . ... : ... .. . ...
ROW CA : ... .. . ... ... ... ... : ... .. . ... ... ... ... : ... .. . ... : ... .. . ... : ... .. . ...
ROW CB : ... .. . ... ... ... ... : ... .. . ... ... ... ... : ... .. . ... : ... .. . ... : ... .. . ...
ROW CC : ... .. . ... ... ... ... : ... .. . ... ... ... ... : ... .. . ... : ... .. . ... : ... .. . ...
ROW CD : ... .. . ... ... ... ... : ... .. . ... ... ... ... : ... .. . ... : ... .. . ... : ... .. . ...
ROW CE : ... .. . ... ... ... ... : ... .. . ... ... ... ... : ... .. . ... : ... .. . ... : ... .. . ...
ROW CF : ... .. . ... ... ... ... : ... .. . ... ... ... ... : ... .. . ... : ... .. . ... : ... .. . ...
ROW D0 : ... .. . ... ... ... ... : ... .. . ... ... ... ... : ... .. . ... : ... .. . ... : ... .. . ...
ROW D1 : ... .. . ... ... ... ... : ... .. . ... ... ... ... : ... .. . ... : ... .. . ... : ... .. . ...
ROW D2 : ... .. . ... ... ... ... : ... .. . ... ... ... ... : ... .. . ... : ... .. . ... : ... .. . ...
ROW D3 : ... .. . ... ... ... ... : ... .. . ... ... ... ... : ... .. . ... : ... .. . ... : ... .. . ...
ROW D4 : ... .. . ... ... ... ... : ... .. . ... ... ... ... : ... .. . ... : ... .. . ... : ... .. . ...
ROW D5 : ... .. . ... ... ... ... : ... .. . ... ... ... ... : ... .. . ... : ... .. . ... : ... .. . ...
ROW D6 : ... .. . ... ... ... ... : ... .. . ... ... ... ... : ... .. . ... : ... .. . ... : ... .. . ...
ROW D7 : ... .. . ... ... ... ... : ... .. . ... ... ... ... : ... .. . ... : ... .. . ... : ... .. . ...
ROW D8 : ... .. . ... ... ... ... : ... .. . ... ... ... ... : ... .. . ... : ... .. . ... : ... .. . ...
ROW D9 : ... .. . ... ... ... ... : ... .. . ... ... ... ... : ... .. . ... : ... .. . ... : ... .. . ...
ROW DA : ... .. . ... ... ... ... : ... .. . ... ... ... ... : ... .. . ... : ... .. . ... : ... .. . ...
ROW DB : ... .. . ... ... ... ... : ... .. . ... ... ... ... : ... .. . ... : ... .. . ... : ... .. . ...
ROW DC : ... .. . ... ... ... ... : ... .. . ... ... ... ... : ... .. . ... : ... .. . ... : ... .. . ...
ROW DD : ... .. . ... ... ... ... : ... .. . ... ... ... ... : ... .. . ... : ... .. . ... : ... .. . ...
ROW DE : ... .. . ... ... ... ... : ... .. . ... ... ... ... : ... .. . ... : ... .. . ... : ... .. . ...
ROW DF : ... .. . ... ... ... ... : ... .. . ... ... ... ... : ... .. . ... : ... .. . ... : ... .. . ...

PATTERN 3F
ROW 00 : C-4 00 4 V01 ... ... ... : A-3 00 4 V01 ... ... ... : G-2 00 . ... : ... .. . ... : ... .. . ...
ROW 01 : ... .. . ... ... ... ... : ... .. . ... ... ... ... : ... .. . ... : ... .. . ... : ... .. . ...
ROW 02 : ... .. 3 ... ... ... ... : ... .. 3 ... ... ... ... : ... .. . ... : ... .. . ... : ... .. . ...
ROW 03 : ... .. . ... ... ... ... : ... .. . ... ... ... ... : ... .. . ... : ... .. . ... : ... .. . ...
ROW 04 : ... .. 2 ... ... ... ... : ... .. 2 ... ... ... ... : ... .. . ... : ... .. . ... : ... .. . ...
ROW 05 : ... .. . ... ... ... ... : ... .. . ... ... ... ... : ... .. . ... : ... .. . ... : ... .. . ...
ROW 06 : ... .. . ... ... ... ... : ... .. . ... ... ... ... : ... .. . ... : ... .. . ... : ... .. . ...
ROW 07 : ... .. . ... ... ... ... : ... .. . ... ... ... ... : ... .. . ... : ... .. . ... : ... .. . ...
ROW 08 : ... .. . ... ... ... ... : ... .. . ... ... ... ... : ... .. . ... : ... .. . ... : ... .. . ...
ROW 09 : ... .. . ... ... ... ... : ... .. . ... ... ... ... : ... .. . ... : ... .. . ... : ... .. . ...
ROW 0A : ... .. . ... ... ... ... : ... .. . ... ... ... ... : ... .. . ... : ... .. . ... : ... .. . ...
ROW 0B : ... .. . ... ... ... ... : ... .. . ... ... ... ... : ... .. . ... : ... .. . ... : ... .. . ...
ROW 0C : ... .. . ... ... ... ... : ... .. . ... ... ... ... : ... .. . ... : ... .. . ... : ... .. . ...
ROW 0D : ... .. . ... ... ... ... : ... .. . ... ... ... ... : ... .. . ... : ... .. . ... : ... .. . ...
ROW 0E : ... .. . ... ... ... ... : ... .. . ... ... ... ... : ... .. . ... : ... .. . ... : ... .. . ...
ROW 0F : ... .. . ... ... ... ... : ... .. . ... ... ... ... : ... .. . ... : ... .. . ... : ... .. . ...
ROW 10 : ... .. . ... ... ... ... : ... .. . ... ... ... ... : ... .. . ... : ... .. . ... : ... .. . ...
ROW 11 : ... .. . ... ... ... ... : ... .. . ... ... ... ... : ... .. . ... : ... .. . ... : ... .. . ...
ROW 12 : ... .. . ... ... ... ... : ... .. . ... ... ... ... : ... .. . ... : ... .. . ... : ... .. . ...
ROW 13 : ... .. . ... ... ... ... : ... .. . ... ... ... ... : ... .. . ... : ... .. . ... : ... .. . ...
ROW 14 : ... .. . ... ... ... ... : ... .. . ... ... ... ... : ... .. . ... : ... .. . ... : ... .. . ...
ROW 15 : ... .. . ... ... ... P81 : ... .. . ... ... ... P81 : ... .. . ... : ... .. . ... : ... .. . ...
ROW 16 : ... .. . ... ... ... ... : ... .. . ... ... ... ... : ... .. . ... : ... .. . ... : ... .. . ...
ROW 17 : ... .. . ... ... ... ... : ... .. . ... ... ... ... : ... .. . ... : ... .. . ... : ... .. . ...
ROW 18 : ... .. . ... ... ... P80 : ... .. . ... ... ... P80 : ... .. . ... : ... .. . ... : ... .. . ...
ROW 19 : ... .. . ... ... ... ... : ... .. . ... ... ... ... : ... .. . ... : ... .. . ... : ... .. . ...
ROW 1A : ... .. . ... ... ... ... : ... .. . ... ... ... ... : ... .. . ... : ... .. . ... : ... .. . ...
ROW 1B : ... .. . ... ... ... P7F : ... .. . ... ... ... P7F : ... .. . ... : ... .. . ... : ... .. . ...
ROW 1C : ... .. . ... ... ... ... : ... .. . ... ... ... ... : ... .. . ... : ... .. . ... : ... .. . ...
ROW 1D : ... .. . ... ... ... ... : ... .. . ... ... ... ... : ... .. . ... : ... .. . ... : ... .. . ...
ROW 1E : ... .. . ... ... ... P80 : ... .. . ... ... ... P80 : ... .. . ... : ... .. . ... : ... .. . ...
ROW 1F : ... .. . ... ... ... ... : ... .. . ... ... ... ... : ... .. . ... : ... .. . ... : ... .. . ...
ROW 20 : ... .. . ... ... ... ... : ... .. . ... ... ... ... : ... .. . ... : ... .. . ... : ... .. . ...
ROW 21 : ... .. . ... ... ... P81 : ... .. . ... ... ... P81 : ... .. . ... : ... .. . ... : ... .. . ...
ROW 22 : ... .. . ... ... ... ... : ... .. . ... ... ... ... : ... .. . ... : ... .. . ... : ... .. . ...
ROW 23 : ... .. . ... ... ... ... : ... .. . ... ... ... ... : ... .. . ... : ... .. . ... : ... .. . ...
ROW 24 : ... .. . ... ... ... P80 : ... .. . ... ... ... P80 : ... .. . ... : ... .. . ... : ... .. . ...
ROW 25 : ... .. . ... ... ... ... : ... .. . ... ... ... ... : ... .. . ... : ... .. . ... : ... .. . ...
ROW 26 : ... .. . ... ... ... ... : ... .. . ... ... ... ... : ... .. . ... : ... .. . ... : ... .. . ...
ROW 27 : ... .. . ... ... ... P7F : ... .. . ... ... ... P7F : ... .. . ... : ... .. . ... : ... .. . ...
ROW 28 : ... .. . ... ... ... ... : ... .. . ... ... ... ... : ... .. . ... : ... .. . ... : ... .. . ...
ROW 29 : ... .. . ... ... ... ... : ... .. . ... ... ... ... : ... .. . ... : ... .. . ... : ... .. . ...
ROW 2A : ... .. . ... ... ... P80 : ... .. . ... ... ... P80 : ... .. . ... : ... .. . ... : ... .. . ...
ROW 2B : ... .. . ... ... ... ... : ... .. . ... ... ... ... : ... .. . ... : ... .. . ... : ... .. . ...
ROW 2C : ... .. . ... ... ... ... : ... .. . ... ... ... ... : ... .. . ... : ... .. . ... : ... .. . ...
ROW 2D : ... .. . ... ... ... P81 : ... .. . ... ... ... P81 : ... .. . ... : ... .. . ... : ... .. . ...
ROW 2E : ... .. . ... ... ... ... : ... .. . ... ... ... ... : ... .. . ... : ... .. . ... : ... .. . ...
ROW 2F : ... .. . ... ... ... ... : ... .. . ... ... ... ... : ... .. . ... : ... .. . ... : ... .. . ...
ROW 30 : ... .. . ... ... ... P80 : ... .. . ... ... ... P80 : ... .. . ... : ... .. . ... : ... .. . ...
ROW 31 : ... .. . ... ... ... ... : ... .. . ... ... ... ... : ... .. . ... : ... .. . ... : ... .. . ...
ROW 32 : ... .. . ... ... ... ... : ... .. . ... ... ... ... : ... .. . ... : ... .. . ... : ... .. . ...
ROW 33 : ... .. . ... ... ... P7F : ... .. . ... ... ... P7F : ... .. . ... : ... .. . ... : ... .. . ...
ROW 34 : ... .. . ... ... ... ... : ... .. . ... ... ... ... : ... .. . ... : ... .. . ... : ... .. . ...
ROW 35 : ... .. . ... ... ... ... : ... .. . ... ... ... ... : ... .. . ... : ... .. . ... : ... .. . ...
ROW 36 : ... .. . ... ... ... P80 : ... .. . ... ... ... P80 : ... .. . ... : ... .. . ... : ... .. . ...
ROW 37 : ... .. . ... ... ... ... : ... .. . ... ... ... ... : ... .. . ... : ... .. . ... : ... .. . ...
ROW 38 : ... .. . ... ... ... ... : ... .. . ... ... ... ... : ... .. . ... : ... .. . ... : ... .. . ...
ROW 39 : ... .. . ... ... ... P81 : ... .. . ... ... ... P81 : ... .. . ... : ... .. . ... : ... .. . ...
ROW 3A : ... .. . ... ... ... ... : ... .. . ... ... ... ... : ... .. . ... : ... .. . ... : ... .. . ...
ROW 3B : ... .. . ... ... ... ... : ... .. . ... ... ... ... : ... .. . ... : ... .. . ... : ... .. . ...
ROW 3C : ... .. . ... ... ... P80 : ... .. . ... ... ... P80 : ... .. . ... : ... .. . ... : ... .. . ...
ROW 3D : ... .. . ... ... ... ... : ... .. . ... ... ... ... : ... .. . ... : ... .. . ... : ... .. . ...
ROW 3E : ... .. . ... ... ... ... : ... .. . ... ... ... ... : ... .. . ... : ... .. . ... : ... .. . ...
ROW 3F : ... .. 2 ... ... ... P7F : ... .. 2 ... ... ... P7F : ... .. . ... : ... .. . ... : ... .. . ...
ROW 40 : ... .. . ... ... ... ... : ... .. . ... ... ... ... : ... .. . ... : ... .. . ... : ... .. . ...
ROW 41 : ... .. . ... ... ... ... : ... .. . ... ... ... ... : ... .. . ... : ... .. . ... : ... .. . ...
ROW 42 : ... .. . ... ... ... P80 : ... .. . ... ... ... P80 : ... .. . ... : ... .. . ... : ... .. . ...
ROW 43 : ... .. . ... ... ... ... : ... .. . ... ... ... ... : ... .. . ... : ... .. . ... : ... .. . ...
ROW 44 : ... .. . ... ... ... ... : ... .. . ... ... ... ... : ... .. . ... : ... .. . ... : ... .. . ...
ROW 45 : ... .. . ... ... ... P81 : ... .. . ... ... ... P81 : ... .. . ... : ... .. . ... : ... .. . ...
ROW 46 : ... .. 1 ... ... ... ... : ... .. 1 ... ... ... ... : ... .. . ... : ... .. . ... : ... .. . ...
ROW 47 : ... .. . ... ... ... ... : ... .. . ... ... ... ... : ... .. . ... : ... .. . ... : ... .. . ...
ROW 48 : ... .. . ... ... ... P80 : ... .. . ... ... ... P80 : ... .. . ... : ... .. . ... : ... .. . ...
ROW 49 : ... .. . ... ... ... ... : ... .. . ... ... ... ... : ... .. . ... : ... .. . ... : ... .. . ...
ROW 4A : ... .. . ... ... ... ... : ... .. . ... ... ... ... : ... .. . ... : ... .. . ... : ... .. . ...
ROW 4B : ... .. . ... ... ... P7F : ... .. . ... ... ... P7F : --- .. . ... : ... .. . ... : ... .. . ...
ROW 4C : ... .. . ... ... ... ... : ... .. . ... ... ... ... : ... .. . ... : ... .. . ... : ... .. . ...
ROW 4D : B-3 00 4 ... ... ... ... : G-3 00 4 ... ... ... P80 : G-2 00 . ... : ... .. . ... : ... .. . ...
ROW 4E : ... .. . ... ... ... ... : ... .. . ... ... ... ... : ... .. . ... : ... .. . ... : ... .. . ...
ROW 4F : ... .. 3 ... ... ... ... : ... .. 3 ... ... ... ... : ... .. . ... : ... .. . ... : ... .. . ...
ROW 50 : ... .. . ... ... ... ... : ... .. . ... ... ... ... : ... .. . ... : ... .. . ... : ... .. . ...
ROW 51 : ... .. 2 ... ... ... ... : ... .. 2 ... ... ... ... : ... .. . ... : ... .. . ... : ... .. . ...
ROW 52 : ... .. . ... ... ... ... : ... .. . ... ... ... ... : ... .. . ... : ... .. . ... : ... .. . ...
ROW 53 : ... .. . ... ... ... ... : ... .. . ... ... ... ... : ... .. . ... : ... .. . ... : ... .. . ...
ROW 54 : ... .. . ... ... ... ... : ... .. . ... ... ... ... : ... .. . ... : ... .. . ... : ... .. . ...
ROW 55 : ... .. . ... ... ... ... : ... .. . ... ... ... ... : ... .. . ... : ... .. . ... : ... .. . ...
ROW 56 : ... .. . ... ... ... ... : ... .. . ... ... ... ... : ... .. . ... : ... .. . ... : ... .. . ...
ROW 57 : ... .. . ... ... ... ... : ... .. . ... ... ... ... : ... .. . ... : ... .. . ... : ... .. . ...
ROW 58 : ... .. 1 ... ... ... ... : ... .. 1 ... ... ... ... : --- .. . ... : ... .. . ... : ... .. . ...
ROW 59 : ... .. . ... ... ... ... : ... .. . ... ... ... ... : ... .. . ... : ... .. . ... : ... .. . ...
ROW 5A : C-4 00 4 ... ... ... ... : A-3 00 4 ... ... ... ... : G-2 00 . ... : ... .. . ... : ... .. . ...
ROW 5B : ... .. . ... ... ... ... : ... .. . ... ... ... ... : ... .. . ... : ... .. . ... : ... .. . ...
ROW 5C : ... .. 3 ... ... ... ... : ... .. 3 ... ... ... ... : ... .. . ... : ... .. . ... : ... .. . ...
ROW 5D : ... .. . ... ... ... ... : ... .. . ... ... ... ... : ... .. . ... : ... .. . ... : ... .. . ...
ROW 5E : ... .. 2 ... ... ... ... : ... .. 2 ... ... ... ... : ... .. . ... : ... .. . ... : ... .. . ...
ROW 5F : ... .. . ... ... ... ... : ... .. . ... ... ... ... : ... .. . ... : ... .. . ... : ... .. . ...
ROW 60 : ... .. . ... ... ... ... : ... .. . ... ... ... ... : ... .. . ... : ... .. . ... : ... .. . ...
ROW 61 : ... .. . ... ... ... ... : ... .. . ... ... ... ... : ... .. . ... : ... .. . ... : ... .. . ...
ROW 62 : ... .. . ... ... ... ... : ... .. . ... ... ... ... : ... .. . ... : ... .. . ... : ... .. . ...
ROW 63 : ... .. . ... ... ... ... : ... .. . ... ... ... ... : ... .. . ... : ... .. . ... : ... .. . ...
ROW 64 : ... .. . ... ... ... ... : ... .. . ... ... ... ... : ... .. . ... : ... .. . ... : ... .. . ...
ROW 65 : ... .. 1 ... ... ... ... : ... .. 1 ... ... ... ... : --- .. . ... : ... .. . ... : ... .. . ...
ROW 66 : ... .. . ... ... ... ... : ... .. . ... ... ... ... : ... .. . ... : ... .. . ... : ... .. . ...
ROW 67 : D-4 00 4 ... ... ... ... : B-3 00 4 ... ... ... ... : G-1 00 . ... : ... .. . ... : ... .. . ...
ROW 68 : ... .. . ... ... ... ... : ... .. . ... ... ... ... : ... .. . ... : ... .. . ... : ... .. . ...
ROW 69 : ... .. 3 ... ... ... ... : ... .. 3 ... ... ... ... : ... .. . ... : ... .. . ... : ... .. . ...
ROW 6A : ... .. . ... ... ... ... : ... .. . ... ... ... ... : ... .. . ... : ... .. . ... : ... .. . ...
ROW 6B : ... .. 2 ... ... ... ... : ... .. 2 ... ... ... ... : ... .. . ... : ... .. . ... : ... .. . ...
ROW 6C : ... .. . ... ... ... ... : ... .. . ... ... ... ... : ... .. . ... : ... .. . ... : ... .. . ...
ROW 6D : ... .. . ... ... ... ... : ... .. . ... ... ... ... : ... .. . ... : ... .. . ... : ... .. . ...
ROW 6E : ... .. . ... ... ... ... : ... .. . ... ... ... ... : ... .. . ... : ... .. . ... : ... .. . ...
ROW 6F : ... .. . ... ... ... ... : ... .. . ... ... ... ... : ... .. . ... : ... .. . ... : ... .. . ...
ROW 70 : ... .. . ... ... ... ... : ... .. . ... ... ... ... : ... .. . ... : ... .. . ... : ... .. . ...
ROW 71 : ... .. . ... ... ... ... : ... .. . ... ... ... ... : ... .. . ... : ... .. . ... : ... .. . ...
ROW 72 : ... .. . ... ... ... ... : ... .. . ... ... ... ... : ... .. . ... : ... .. . ... : ... .. . ...
ROW 73 : ... .. . ... ... ... P81 : ... .. . ... ... ... P81 : ... .. . ... : ... .. . ... : ... .. . ...
ROW 74 : ... .. . ... ... ... ... : ... .. . ... ... ... ... : ... .. . ... : ... .. . ... : ... .. . ...
ROW 75 : ... .. . ... ... ... ... : ... .. . ... ... ... ... : ... .. . ... : ... .. . ... : ... .. . ...
ROW 76 : ... .. . ... ... ... P80 : ... .. . ... ... ... P80 : ... .. . ... : ... .. . ... : ... .. . ...
ROW 77 : ... .. . ... ... ... ... : ... .. . ... ... ... ... : ... .. . ... : ... .. . ... : ... .. . ...
ROW 78 : ... .. . ... ... ... ... : ... .. . ... ... ... ... : ... .. . ... : ... .. . ... : ... .. . ...
ROW 79 : ... .. . ... ... ... P7F : ... .. . ... ... ... P7F : ... .. . ... : ... .. . ... : ... .. . ...
ROW 7A : ... .. . ... ... ... ... : ... .. . ... ... ... ... : ... .. . ... : ... .. . ... : ... .. . ...
ROW 7B : ... .. . ... ... ... ... : ... .. . ... ... ... ... : ... .. . ... : ... .. . ... : ... .. . ...
ROW 7C : ... .. . ... ... ... P80 : ... .. . ... ... ... P80 : ... .. . ... : ... .. . ... : ... .. . ...
ROW 7D : ... .. . ... ... ... ... : ... .. . ... ... ... ... : ... .. . ... : ... .. . ... : ... .. . ...
ROW 7E : ... .. . ... ... ... ... : ... .. . ... ... ... ... : ... .. . ... : ... .. . ... : ... .. . ...
ROW 7F : ... .. 1 ... ... ... P81 : ... .. 1 ... ... ... P81 : --- .. . ... : ... .. . ... : ... .. . ...
ROW 80 : ... .. . ... ... ... ... : ... .. . ... ... ... ... : ... .. . ... : ... .. . ... : ... .. . ...
ROW 81 : B-3 00 4 ... ... ... P80 : G-3 00 4 ... ... ... P80 : G-2 00 . ... : ... .. . ... : ... .. . ...
ROW 82 : ... .. . ... ... ... ... : ... .. . ... ... ... ... : ... .. . ... : ... .. . ... : ... .. . ...
ROW 83 : ... .. 3 ... ... ... ... : ... .. 3 ... ... ... ... : ... .. . ... : ... .. . ... : ... .. . ...
ROW 84 : ... .. . ... ... ... ... : ... .. . ... ... ... ... : ... .. . ... : ... .. . ... : ... .. . ...
ROW 85 : ... .. 2 ... ... ... ... : ... .. 2 ... ... ... ... : ... .. . ... : ... .. . ... : ... .. . ...
ROW 86 : ... .. . ... ... ... ... : ... .. . ... ... ... ... : ... .. . ... : ... .. . ... : ... .. . ...
ROW 87 : ... .. . ... ... ... ... : ... .. . ... ... ... ... : ... .. . ... : ... .. . ... : ... .. . ...
ROW 88 : ... .. . ... ... ... ... : ... .. . ... ... ... ... : ... .. . ... : ... .. . ... : ... .. . ...
ROW 89 : ... .. . ... ... ... ... : ... .. . ... ... ... ... : ... .. . ... : ... .. . ... : ... .. . ...
ROW 8A : ... .. . ... ... ... ... : ... .. . ... ... ... ... : ... .. . ... : ... .. . ... : ... .. . ...
ROW 8B : ... .. . ... ... ... ... : ... .. . ... ... ... ... : ... .. . ... : ... .. . ... : ... .. . ...
ROW 8C : ... .. . ... ... ... ... : ... .. . ... ... ... ... : ... .. . ... : ... .. . ... : ... .. . ...
ROW 8D : ... .. . ... ... ... ... : ... .. . ... ... ... ... : ... .. . ... : ... .. . ... : ... .. . ...
ROW 8E : ... .. . ... ... ... ... : ... .. . ... ... ... ... : ... .. . ... : ... .. . ... : ... .. . ...
ROW 8F : ... .. . ... ... ... P81 : ... .. . ... ... ... P81 : ... .. . ... : ... .. . ... : ... .. . ...
ROW 90 : ... .. . ... ... ... ... : ... .. . ... ... ... ... : ... .. . ... : ... .. . ... : ... .. . ...
ROW 91 : ... .. . ... ... ... ... : ... .. . ... ... ... ... : ... .. . ... : ... .. . ... : ... .. . ...
ROW 92 : ... .. . ... ... ... P80 : ... .. . ... ... ... P80 : ... .. . ... : ... .. . ... : ... .. . ...
ROW 93 : ... .. . ... ... ... ... : ... .. . ... ... ... ... : ... .. . ... : ... .. . ... : ... .. . ...
ROW 94 : ... .. . ... ... ... ... : ... .. . ... ... ... ... : ... .. . ... : ... .. . ... : ... .. . ...
ROW 95 : ... .. . ... ... ... P7F : ... .. . ... ... ... P7F : ... .. . ... : ... .. . ... : ... .. . ...
ROW 96 : ... .. . ... ... ... ... : ... .. . ... ... ... ... : ... .. . ... : ... .. . ... : ... .. . ...
ROW 97 : ... .. . ... ... ... ... : ... .. . ... ... ... ... : ... .. . ... : ... .. . ... : ... .. . ...
ROW 98 : ... .. . ... ... ... P80 : ... .. . ... ... ... P80 : ... .. . ... : ... .. . ... : ... .. . ...
ROW 99 : ... .. . ... ... ... ... : ... .. . ... ... ... ... : ... .. . ... : ... .. . ... : ... .. . ...
ROW 9A : ... .. . ... ... ... ... : ... .. . ... ... ... ... : --- .. . ... : ... .. . ... : ... .. . ...
ROW 9B : ... .. 1 ... ... ... P81 : ... .. 1 ... ... ... P81 : ... .. . ... : ... .. . ... : ... .. . ...
ROW 9C : ... .. . ... ... ... D00 : ... .. . ... ... ... ... : ... .. . ... : ... .. . ... : ... .. . ...
ROW 9D : C-4 00 1 V02 ... ... ... : A-3 00 1 V02 ... ... ... : G-2 00 . ... : ... .. . ... : ... .. . ...
ROW 9E : ... .. 2 ... ... ... ... : ... .. 2 ... ... ... ... : ... .. . ... : ... .. . ... : ... .. . ...
ROW 9F : ... .. 3 ... ... ... ... : ... .. 3 ... ... ... ... : ... .. . ... : ... .. . ... : ... .. . ...
ROW A0 : ... .. 4 ... ... ... ... : ... .. 4 ... ... ... ... : ... .. . ... : ... .. . ... : ... .. . ...
ROW A1 : ... .. . ... ... ... ... : ... .. . ... ... ... ... : ... .. . ... : ... .. . ... : ... .. . ...
ROW A2 : ... .. . ... ... ... ... : ... .. . ... ... ... ... : ... .. . ... : ... .. . ... : ... .. . ...
ROW A3 : ... .. . ... ... ... ... : ... .. . ... ... ... ... : ... .. . ... : ... .. . ... : ... .. . ...
ROW A4 : ... .. . ... ... ... ... : ... .. . ... ... ... ... : ... .. . ... : ... .. . ... : ... .. . ...
ROW A5 : ... .. . ... ... ... ... : ... .. . ... ... ... ... : ... .. . ... : ... .. . ... : ... .. . ...
ROW A6 : ... .. . ... ... ... ... : ... .. . ... ... ... ... : ... .. . ... : ... .. . ... : ... .. . ...
ROW A7 : ... .. . ... ... ... ... : ... .. . ... ... ... ... : ... .. . ... : ... .. . ... : ... .. . ...
ROW A8 : ... .. . ... ... ... ... : ... .. . ... ... ... ... : ... .. . ... : ... .. . ... : ... .. . ...
ROW A9 : ... .. . ... ... ... ... : ... .. . ... ... ... ... : ... .. . ... : ... .. . ... : ... .. . ...
ROW AA : ... .. . ... ... ... ... : ... .. . ... ... ... ... : ... .. . ... : ... .. . ... : ... .. . ...
ROW AB : ... .. . ... ... ... ... : ... .. . ... ... ... ... : ... .. . ... : ... .. . ... : ... .. . ...
ROW AC : ... .. . ... ... ... ... : ... .. . ... ... ... ... : ... .. . ... : ... .. . ... : ... .. . ...
ROW AD : ... .. . ... ... ... ... : ... .. . ... ... ... ... : ... .. . ... : ... .. . ... : ... .. . ...
ROW AE : ... .. . ... ... ... ... : ... .. . ... ... ... ... : ... .. . ... : ... .. . ... : ... .. . ...
ROW AF : ... .. . ... ... ... ... : ... .. . ... ... ... ... : ... .. . ... : ... .. . ... : ... .. . ...
ROW B0 : ... .. . ... ... ... ... : ... .. . ... ... ... ... : ... .. . ... : ... .. . ... : ... .. . ...
ROW B1 : ... .. . ... ... ... ... : ... .. . ... ... ... ... : ... .. . ... : ... .. . ... : ... .. . ...
ROW B2 : ... .. . ... ... ... ... : ... .. . ... ... ... ... : ... .. . ... : ... .. . ... : ... .. . ...
ROW B3 : ... .. . ... ... ... ... : ... .. . ... ... ... ... : ... .. . ... : ... .. . ... : ... .. . ...
ROW B4 : ... .. . ... ... ... ... : ... .. . ... ... ... ... : ... .. . ... : ... .. . ... : ... .. . ...
ROW B5 : ... .. . ... ... ... ... : ... .. . ... ... ... ... : ... .. . ... : ... .. . ... : ... .. . ...
ROW B6 : ... .. . ... ... ... ... : ... .. . ... ... ... ... : ... .. . ... : ... .. . ... : ... .. . ...
ROW B7 : ... .. . ... ... ... ... : ... .. . ... ... ... ... : ... .. . ... : ... .. . ... : ... .. . ...
ROW B8 : ... .. . ... ... ... ... : ... .. . ... ... ... ... : ... .. . ... : ... .. . ... : ... .. . ...
ROW B9 : ... .. . ... ... ... P81 : ... .. . ... ... ... P81 : ... .. . ... : ... .. . ... : ... .. . ...
ROW BA : ... .. . ... ... ... ... : ... .. . ... ... ... ... : ... .. . ... : ... .. . ... : ... .. . ...
ROW BB : ... .. . ... ... ... ... : ... .. . ... ... ... ... : ... .. . ... : ... .. . ... : ... .. . ...
ROW BC : ... .. . ... ... ... P80 : ... .. . ... ... ... P80 : ... .. . ... : ... .. . ... : ... .. . ...
ROW BD : ... .. . ... ... ... ... : ... .. . ... ... ... ... : ... .. . ... : ... .. . ... : ... .. . ...
ROW BE : ... .. . ... ... ... ... : ... .. . ... ... ... ... : ... .. . ... : ... .. . ... : ... .. . ...
ROW BF : ... .. . ... ... ... P7F : ... .. . ... ... ... P7F : ... .. . ... : ... .. . ... : ... .. . ...
ROW C0 : ... .. . ... ... ... ... : ... .. . ... ... ... ... : ... .. . ... : ... .. . ... : ... .. . ...
ROW C1 : ... .. . ... ... ... ... : ... .. . ... ... ... ... : ... .. . ... : ... .. . ... : ... .. . ...
ROW C2 : ... .. . ... ... ... P80 : ... .. . ... ... ... P80 : ... .. . ... : ... .. . ... : ... .. . ...
ROW C3 : ... .. . ... ... ... ... : ... .. . ... ... ... ... : ... .. . ... : ... .. . ... : ... .. . ...
ROW C4 : ... .. . ... ... ... ... : ... .. . ... ... ... ... : ... .. . ... : ... .. . ... : ... .. . ...
ROW C5 : ... .. . ... ... ... P81 : ... .. . ... ... ... P81 : ... .. . ... : ... .. . ... : ... .. . ...
ROW C6 : ... .. . ... ... ... ... : ... .. . ... ... ... ... : ... .. . ... : ... .. . ... : ... .. . ...
ROW C7 : ... .. . ... ... ... ... : ... .. . ... ... ... ... : ... .. . ... : ... .. . ... : ... .. . ...
ROW C8 : ... .. . ... ... ... P80 : ... .. . ... ... ... P80 : ... .. . ... : ... .. . ... : ... .. . ...
ROW C9 : ... .. . ... ... ... ... : ... .. . ... ... ... ... : ... .. . ... : ... .. . ... : ... .. . ...
ROW CA : ... .. . ... ... ... ... : ... .. . ... ... ... ... : ... .. . ... : ... .. . ... : ... .. . ...
ROW CB : ... .. . ... ... ... P7F : ... .. . ... ... ... P7F : ... .. . ... : ... .. . ... : ... .. . ...
ROW CC : ... .. . ... ... ... ... : ... .. . ... ... ... ... : ... .. . ... : ... .. . ... : ... .. . ...
ROW CD : ... .. . ... ... ... ... : ... .. . ... ... ... ... : ... .. . ... : ... .. . ... : ... .. . ...
ROW CE : ... .. . ... ... ... P80 : ... .. . ... ... ... P80 : ... .. . ... : ... .. . ... : ... .. . ...
ROW CF : ... .. . ... ... ... ... : ... .. . ... ... ... ... : ... .. . ... : ... .. . ... : ... .. . ...
ROW D0 : ... .. . ... ... ... ... : ... .. . ... ... ... ... : ... .. . ... : ... .. . ... : ... .. . ...
ROW D1 : ... .. . ... ... ... P81 : ... .. . ... ... ... P81 : ... .. . ... : ... .. . ... : ... .. . ...
ROW D2 : ... .. . ... ... ... ... : ... .. . ... ... ... ... : ... .. . ... : ... .. . ... : ... .. . ...
ROW D3 : ... .. . ... ... ... ... : ... .. . ... ... ... ... : ... .. . ... : ... .. . ... : ... .. . ...
ROW D4 : ... .. . ... ... ... P80 : ... .. . ... ... ... P80 : ... .. . ... : ... .. . ... : ... .. . ...
ROW D5 : ... .. . ... ... ... ... : ... .. . ... ... ... ... : ... .. . ... : ... .. . ... : ... .. . ...
ROW D6 : ... .. . ... ... ... ... : ... .. . ... ... ... ... : ... .. . ... : ... .. . ... : ... .. . ...
ROW D7 : ... .. . ... ... ... ... : ... .. . ... ... ... ... : ... .. . ... : ... .. . ... : ... .. . ...
ROW D8 : ... .. . ... ... ... ... : ... .. . ... ... ... ... : ... .. . ... : ... .. . ... : ... .. . ...
ROW D9 : ... .. . ... ... ... ... : ... .. . ... ... ... ... : ... .. . ... : ... .. . ... : ... .. . ...
ROW DA : ... .. . ... ... ... ... : ... .. . ... ... ... ... : ... .. . ... : ... .. . ... : ... .. . ...
ROW DB : ... .. . ... ... ... ... : ... .. . ... ... ... ... : ... .. . ... : ... .. . ... : ... .. . ...
ROW DC : ... .. . ... ... ... ... : ... .. . ... ... ... ... : ... .. . ... : ... .. . ... : ... .. . ...
ROW DD : ... .. . ... ... ... ... : ... .. . ... ... ... ... : ... .. . ... : ... .. . ... : ... .. . ...
ROW DE : ... .. . ... ... ... ... : ... .. . ... ... ... ... : ... .. . ... : ... .. . ... : ... .. . ...
ROW DF : ... .. . ... ... ... ... : ... .. . ... ... ... ... : ... .. . ... : ... .. . ... : ... .. . ...

PATTERN 40
ROW 00 : C-4 00 5 V01 ... ... P80 : D-3 00 4 V01 ... ... P80 : G-2 00 . ... : ... .. . ... : ... .. . ...
ROW 01 : ... .. . ... ... ... ... : ... .. . ... ... ... ... : ... .. . ... : ... .. . ... : ... .. . ...
ROW 02 : ... .. 4 ... ... ... ... : ... .. 3 ... ... ... ... : ... .. . ... : ... .. . ... : ... .. . ...
ROW 03 : ... .. . ... ... ... ... : ... .. . ... ... ... ... : ... .. . ... : ... .. . ... : ... .. . ...
ROW 04 : ... .. 3 ... ... ... ... : ... .. 2 ... ... ... ... : ... .. . ... : ... .. . ... : ... .. . ...
ROW 05 : ... .. . ... ... ... ... : ... .. . ... ... ... ... : ... .. . ... : ... .. . ... : ... .. . ...
ROW 06 : ... .. . ... ... ... ... : ... .. . ... ... ... ... : ... .. . ... : ... .. . ... : ... .. . ...
ROW 07 : ... .. . ... ... ... ... : ... .. . ... ... ... ... : ... .. . ... : ... .. . ... : ... .. . ...
ROW 08 : ... .. . ... ... ... ... : ... .. . ... ... ... ... : ... .. . ... : ... .. . ... : ... .. . ...
ROW 09 : ... .. . ... ... ... ... : ... .. . ... ... ... ... : ... .. . ... : ... .. . ... : ... .. . ...
ROW 0A : ... .. . ... ... ... ... : ... .. . ... ... ... ... : ... .. . ... : ... .. . ... : ... .. . ...
ROW 0B : ... .. . ... ... ... ... : ... .. . ... ... ... ... : ... .. . ... : ... .. . ... : ... .. . ...
ROW 0C : ... .. . ... ... ... ... : ... .. . ... ... ... ... : ... .. . ... : ... .. . ... : ... .. . ...
ROW 0D : ... .. . ... ... ... ... : ... .. . ... ... ... ... : ... .. . ... : ... .. . ... : ... .. . ...
ROW 0E : ... .. . ... ... ... ... : ... .. . ... ... ... ... : ... .. . ... : ... .. . ... : ... .. . ...
ROW 0F : ... .. . ... ... ... ... : ... .. . ... ... ... ... : ... .. . ... : ... .. . ... : ... .. . ...
ROW 10 : ... .. . ... ... ... ... : ... .. . ... ... ... ... : ... .. . ... : ... .. . ... : ... .. . ...
ROW 11 : ... .. . ... ... ... ... : ... .. . ... ... ... ... : ... .. . ... : ... .. . ... : ... .. . ...
ROW 12 : ... .. . ... ... ... ... : ... .. . ... ... ... ... : ... .. . ... : ... .. . ... : ... .. . ...
ROW 13 : ... .. . ... ... ... ... : ... .. . ... ... ... ... : ... .. . ... : ... .. . ... : ... .. . ...
ROW 14 : ... .. . ... ... ... ... : ... .. . ... ... ... ... : ... .. . ... : ... .. . ... : ... .. . ...
ROW 15 : ... .. . ... ... ... P81 : ... .. . ... ... ... P81 : ... .. . ... : ... .. . ... : ... .. . ...
ROW 16 : ... .. . ... ... ... ... : ... .. . ... ... ... ... : ... .. . ... : ... .. . ... : ... .. . ...
ROW 17 : ... .. . ... ... ... ... : ... .. . ... ... ... ... : ... .. . ... : ... .. . ... : ... .. . ...
ROW 18 : ... .. . ... ... ... ... : ... .. . ... ... ... ... : ... .. . ... : ... .. . ... : ... .. . ...
ROW 19 : ... .. . ... ... ... P80 : ... .. . ... ... ... P80 : ... .. . ... : ... .. . ... : ... .. . ...
ROW 1A : ... .. . ... ... ... ... : ... .. . ... ... ... ... : ... .. . ... : ... .. . ... : ... .. . ...
ROW 1B : ... .. . ... ... ... ... : ... .. . ... ... ... ... : ... .. . ... : ... .. . ... : ... .. . ...
ROW 1C : ... .. . ... ... ... ... : ... .. . ... ... ... ... : ... .. . ... : ... .. . ... : ... .. . ...
ROW 1D : ... .. . ... ... ... P7F : ... .. . ... ... ... P7F : ... .. . ... : ... .. . ... : ... .. . ...
ROW 1E : ... .. . ... ... ... ... : ... .. . ... ... ... ... : ... .. . ... : ... .. . ... : ... .. . ...
ROW 1F : ... .. . ... ... ... ... : ... .. . ... ... ... ... : ... .. . ... : ... .. . ... : ... .. . ...
ROW 20 : ... .. . ... ... ... ... : ... .. . ... ... ... ... : ... .. . ... : ... .. . ... : ... .. . ...
ROW 21 : ... .. . ... ... ... P80 : ... .. . ... ... ... P80 : ... .. . ... : ... .. . ... : ... .. . ...
ROW 22 : ... .. . ... ... ... ... : ... .. . ... ... ... ... : ... .. . ... : ... .. . ... : ... .. . ...
ROW 23 : ... .. . ... ... ... ... : ... .. . ... ... ... ... : ... .. . ... : ... .. . ... : ... .. . ...
ROW 24 : ... .. . ... ... ... ... : ... .. . ... ... ... ... : ... .. . ... : ... .. . ... : ... .. . ...
ROW 25 : ... .. . ... ... ... P81 : ... .. . ... ... ... P81 : ... .. . ... : ... .. . ... : ... .. . ...
ROW 26 : ... .. . ... ... ... ... : ... .. . ... ... ... ... : ... .. . ... : ... .. . ... : ... .. . ...
ROW 27 : ... .. . ... ... ... ... : ... .. . ... ... ... ... : ... .. . ... : ... .. . ... : ... .. . ...
ROW 28 : ... .. . ... ... ... ... : ... .. . ... ... ... ... : ... .. . ... : ... .. . ... : ... .. . ...
ROW 29 : ... .. . ... ... ... P80 : ... .. . ... ... ... P80 : ... .. . ... : ... .. . ... : ... .. . ...
ROW 2A : ... .. . ... ... ... ... : ... .. . ... ... ... ... : ... .. . ... : ... .. . ... : ... .. . ...
ROW 2B : ... .. . ... ... ... ... : ... .. . ... ... ... ... : ... .. . ... : ... .. . ... : ... .. . ...
ROW 2C : ... .. . ... ... ... ... : ... .. . ... ... ... ... : ... .. . ... : ... .. . ... : ... .. . ...
ROW 2D : ... .. . ... ... ... P7F : ... .. . ... ... ... P7F : ... .. . ... : ... .. . ... : ... .. . ...
ROW 2E : ... .. . ... ... ... ... : ... .. . ... ... ... ... : ... .. . ... : ... .. . ... : ... .. . ...
ROW 2F : ... .. . ... ... ... ... : ... .. . ... ... ... ... : ... .. . ... : ... .. . ... : ... .. . ...
ROW 30 : ... .. . ... ... ... ... : ... .. . ... ... ... ... : ... .. . ... : ... .. . ... : ... .. . ...
ROW 31 : ... .. . ... ... ... P80 : ... .. . ... ... ... P80 : ... .. . ... : ... .. . ... : ... .. . ...
ROW 32 : ... .. . ... ... ... ... : ... .. . ... ... ... ... : ... .. . ... : ... .. . ... : ... .. . ...
ROW 33 : ... .. . ... ... ... ... : ... .. . ... ... ... ... : ... .. . ... : ... .. . ... : ... .. . ...
ROW 34 : ... .. . ... ... ... ... : ... .. . ... ... ... ... : ... .. . ... : ... .. . ... : ... .. . ...
ROW 35 : ... .. . ... ... ... P81 : ... .. . ... ... ... P81 : ... .. . ... : ... .. . ... : ... .. . ...
ROW 36 : ... .. . ... ... ... ... : ... .. . ... ... ... ... : ... .. . ... : ... .. . ... : ... .. . ...
ROW 37 : ... .. . ... ... ... ... : ... .. . ... ... ... ... : ... .. . ... : ... .. . ... : ... .. . ...
ROW 38 : ... .. . ... ... ... ... : ... .. . ... ... ... ... : ... .. . ... : ... .. . ... : ... .. . ...
ROW 39 : ... .. . ... ... ... P80 : ... .. . ... ... ... P80 : ... .. . ... : ... .. . ... : ... .. . ...
ROW 3A : ... .. . ... ... ... ... : ... .. . ... ... ... ... : ... .. . ... : ... .. . ... : ... .. . ...
ROW 3B : ... .. . ... ... ... ... : ... .. . ... ... ... ... : ... .. . ... : ... .. . ... : ... .. . ...
ROW 3C : ... .. . ... ... ... ... : ... .. . ... ... ... ... : ... .. . ... : ... .. . ... : ... .. . ...
ROW 3D : ... .. . ... ... ... P7F : ... .. . ... ... ... P7F : ... .. . ... : ... .. . ... : ... .. . ...
ROW 3E : ... .. . ... ... ... ... : ... .. . ... ... ... ... : ... .. . ... : ... .. . ... : ... .. . ...
ROW 3F : ... .. 2 ... ... ... ... : ... .. 1 ... ... ... ... : ... .. . ... : ... .. . ... : ... .. . ...
ROW 40 : ... .. . ... ... ... ... : ... .. . ... ... ... ... : ... .. . ... : ... .. . ... : ... .. . ...
ROW 41 : ... .. . ... ... ... P80 : ... .. . ... ... ... P80 : ... .. . ... : ... .. . ... : ... .. . ...
ROW 42 : ... .. . ... ... ... ... : ... .. . ... ... ... ... : ... .. . ... : ... .. . ... : ... .. . ...
ROW 43 : ... .. . ... ... ... ... : ... .. . ... ... ... ... : ... .. . ... : ... .. . ... : ... .. . ...
ROW 44 : ... .. . ... ... ... ... : ... .. . ... ... ... ... : ... .. . ... : ... .. . ... : ... .. . ...
ROW 45 : ... .. 1 ... ... ... P81 : ... .. . ... ... ... P81 : ... .. . ... : ... .. . ... : ... .. . ...
ROW 46 : ... .. . ... ... ... ... : ... .. . ... ... ... ... : ... .. . ... : ... .. . ... : ... .. . ...
ROW 47 : ... .. . ... ... ... ... : ... .. . ... ... ... ... : ... .. . ... : ... .. . ... : ... .. . ...
ROW 48 : ... .. . ... ... ... ... : ... .. . ... ... ... ... : ... .. . ... : ... .. . ... : ... .. . ...
ROW 49 : ... .. . ... ... ... P80 : ... .. . ... ... ... P80 : ... .. . ... : ... .. . ... : ... .. . ...
ROW 4A : ... .. . ... ... ... ... : ... .. . ... ... ... ... : ... .. . ... : ... .. . ... : ... .. . ...
ROW 4B : ... .. . ... ... ... ... : ... .. . ... ... ... ... : --- .. . ... : ... .. . ... : ... .. . ...
ROW 4C : ... .. . ... ... ... ... : ... .. . ... ... ... ... : ... .. . ... : ... .. . ... : ... .. . ...
ROW 4D : B-3 00 5 ... ... ... P80 : D-3 00 4 ... ... ... P80 : G-2 00 . ... : ... .. . ... : ... .. . ...
ROW 4E : ... .. . ... ... ... ... : ... .. . ... ... ... ... : ... .. . ... : ... .. . ... : ... .. . ...
ROW 4F : ... .. 4 ... ... ... ... : ... .. 3 ... ... ... ... : ... .. . ... : ... .. . ... : ... .. . ...
ROW 50 : ... .. . ... ... ... ... : ... .. . ... ... ... ... : ... .. . ... : ... .. . ... : ... .. . ...
ROW 51 : ... .. 3 ... ... ... ... : ... .. 2 ... ... ... ... : ... .. . ... : ... .. . ... : ... .. . ...
ROW 52 : ... .. . ... ... ... ... : ... .. . ... ... ... ... : ... .. . ... : ... .. . ... : ... .. . ...
ROW 53 : ... .. . ... ... ... ... : ... .. . ... ... ... ... : ... .. . ... : ... .. . ... : ... .. . ...
ROW 54 : ... .. . ... ... ... ... : ... .. . ... ... ... ... : ... .. . ... : ... .. . ... : ... .. . ...
ROW 55 : ... .. . ... ... ... ... : ... .. . ... ... ... ... : ... .. . ... : ... .. . ... : ... .. . ...
ROW 56 : ... .. . ... ... ... ... : ... .. . ... ... ... ... : ... .. . ... : ... .. . ... : ... .. . ...
ROW 57 : ... .. . ... ... ... ... : ... .. . ... ... ... ... : ... .. . ... : ... .. . ... : ... .. . ...
ROW 58 : ... .. 1 ... ... ... ... : ... .. 1 ... ... ... ... : --- .. . ... : ... .. . ... : ... .. . ...
ROW 59 : ... .. . ... ... ... ... : ... .. . ... ... ... ... : ... .. . ... : ... .. . ... : ... .. . ...
ROW 5A : C-4 00 5 ... ... ... ... : D-3 00 4 ... ... ... ... : G-2 00 . ... : ... .. . ... : ... .. . ...
ROW 5B : ... .. . ... ... ... ... : ... .. . ... ... ... ... : ... .. . ... : ... .. . ... : ... .. . ...
ROW 5C : ... .. 4 ... ... ... ... : ... .. 3 ... ... ... ... : ... .. . ... : ... .. . ... : ... .. . ...
ROW 5D : ... .. . ... ... ... ... : ... .. . ... ... ... ... : ... .. . ... : ... .. . ... : ... .. . ...
ROW 5E : ... .. 3 ... ... ... ... : ... .. 2 ... ... ... ... : ... .. . ... : ... .. . ... : ... .. . ...
ROW 5F : ... .. . ... ... ... ... : ... .. . ... ... ... ... : ... .. . ... : ... .. . ... : ... .. . ...
ROW 60 : ... .. . ... ... ... ... : ... .. . ... ... ... ... : ... .. . ... : ... .. . ... : ... .. . ...
ROW 61 : ... .. . ... ... ... ... : ... .. . ... ... ... ... : ... .. . ... : ... .. . ... : ... .. . ...
ROW 62 : ... .. . ... ... ... ... : ... .. . ... ... ... ... : ... .. . ... : ... .. . ... : ... .. . ...
ROW 63 : ... .. . ... ... ... ... : ... .. . ... ... ... ... : ... .. . ... : ... .. . ... : ... .. . ...
ROW 64 : ... .. . ... ... ... ... : ... .. . ... ... ... ... : ... .. . ... : ... .. . ... : ... .. . ...
ROW 65 : ... .. 1 ... ... ... ... : ... .. 1 ... ... ... ... : --- .. . ... : ... .. . ... : ... .. . ...
ROW 66 : ... .. . ... ... ... ... : ... .. . ... ... ... ... : ... .. . ... : ... .. . ... : ... .. . ...
ROW 67 : D-4 00 5 ... ... ... ... : B-3 00 4 ... ... ... ... : G-1 00 . ... : ... .. . ... : ... .. . ...
ROW 68 : ... .. . ... ... ... ... : ... .. . ... ... ... ... : ... .. . ... : ... .. . ... : ... .. . ...
ROW 69 : ... .. 4 ... ... ... ... : ... .. 3 ... ... ... ... : ... .. . ... : ... .. . ... : ... .. . ...
ROW 6A : ... .. . ... ... ... ... : ... .. . ... ... ... ... : ... .. . ... : ... .. . ... : ... .. . ...
ROW 6B : ... .. 3 ... ... ... ... : ... .. 2 ... ... ... ... : ... .. . ... : ... .. . ... : ... .. . ...
ROW 6C : ... .. . ... ... ... ... : ... .. . ... ... ... ... : ... .. . ... : ... .. . ... : ... .. . ...
ROW 6D : ... .. . ... ... ... ... : ... .. . ... ... ... ... : ... .. . ... : ... .. . ... : ... .. . ...
ROW 6E : ... .. . ... ... ... ... : ... .. . ... ... ... ... : ... .. . ... : ... .. . ... : ... .. . ...
ROW 6F : ... .. . ... ... ... ... : ... .. . ... ... ... ... : ... .. . ... : ... .. . ... : ... .. . ...
ROW 70 : ... .. . ... ... ... ... : ... .. . ... ... ... ... : ... .. . ... : ... .. . ... : ... .. . ...
ROW 71 : ... .. . ... ... ... ... : ... .. . ... ... ... ... : ... .. . ... : ... .. . ... : ... .. . ...
ROW 72 : ... .. . ... ... ... ... : ... .. . ... ... ... ... : ... .. . ... : ... .. . ... : ... .. . ...
ROW 73 : ... .. . ... ... ... P81 : ... .. . ... ... ... ... : ... .. . ... : ... .. . ... : ... .. . ...
ROW 74 : ... .. . ... ... ... ... : ... .. . ... ... ... ... : ... .. . ... : ... .. . ... : ... .. . ...
ROW 75 : ... .. . ... ... ... ... : ... .. . ... ... ... ... : ... .. . ... : ... .. . ... : ... .. . ...
ROW 76 : ... .. . ... ... ... ... : ... .. . ... ... ... ... : ... .. . ... : ... .. . ... : ... .. . ...
ROW 77 : ... .. . ... ... ... P80 : ... .. . ... ... ... ... : ... .. . ... : ... .. . ... : ... .. . ...
ROW 78 : ... .. 2 ... ... ... ... : ... .. 1 ... ... ... ... : ... .. . ... : ... .. . ... : ... .. . ...
ROW 79 : ... .. . ... ... ... ... : ... .. . ... ... ... ... : ... .. . ... : ... .. . ... : ... .. . ...
ROW 7A : ... .. . ... ... ... ... : ... .. . ... ... ... ... : ... .. . ... : ... .. . ... : ... .. . ...
ROW 7B : ... .. . ... ... ... P7F : ... .. . ... ... ... ... : ... .. . ... : ... .. . ... : ... .. . ...
ROW 7C : ... .. 1 ... ... ... ... : ... .. . ... ... ... ... : ... .. . ... : ... .. . ... : ... .. . ...
ROW 7D : ... .. . ... ... ... ... : ... .. . ... ... ... ... : ... .. . ... : ... .. . ... : ... .. . ...
ROW 7E : ... .. . ... ... ... ... : ... .. . ... ... ... ... : ... .. . ... : ... .. . ... : ... .. . ...
ROW 7F : ... .. . ... ... ... P80 : ... .. . ... ... ... ... : --- .. . ... : ... .. . ... : ... .. . ...
ROW 80 : ... .. . ... ... ... ... : ... .. . ... ... ... ... : ... .. . ... : ... .. . ... : ... .. . ...
ROW 81 : B-3 00 5 ... ... ... ... : D-3 00 4 ... ... ... ... : G-2 00 . ... : ... .. . ... : ... .. . ...
ROW 82 : ... .. . ... ... ... ... : ... .. . ... ... ... ... : ... .. . ... : ... .. . ... : ... .. . ...
ROW 83 : ... .. 4 ... ... ... ... : ... .. 3 ... ... ... ... : ... .. . ... : ... .. . ... : ... .. . ...
ROW 84 : ... .. . ... ... ... ... : ... .. . ... ... ... ... : ... .. . ... : ... .. . ... : ... .. . ...
ROW 85 : ... .. 3 ... ... ... ... : ... .. 2 ... ... ... ... : ... .. . ... : ... .. . ... : ... .. . ...
ROW 86 : ... .. . ... ... ... ... : ... .. . ... ... ... ... : ... .. . ... : ... .. . ... : ... .. . ...
ROW 87 : ... .. . ... ... ... ... : ... .. . ... ... ... ... : ... .. . ... : ... .. . ... : ... .. . ...
ROW 88 : ... .. . ... ... ... ... : ... .. . ... ... ... ... : ... .. . ... : ... .. . ... : ... .. . ...
ROW 89 : ... .. . ... ... ... ... : ... .. . ... ... ... ... : ... .. . ... : ... .. . ... : ... .. . ...
ROW 8A : ... .. . ... ... ... ... : ... .. . ... ... ... ... : ... .. . ... : ... .. . ... : ... .. . ...
ROW 8B : ... .. . ... ... ... ... : ... .. . ... ... ... ... : ... .. . ... : ... .. . ... : ... .. . ...
ROW 8C : ... .. . ... ... ... ... : ... .. . ... ... ... ... : ... .. . ... : ... .. . ... : ... .. . ...
ROW 8D : ... .. . ... ... ... ... : ... .. . ... ... ... ... : ... .. . ... : ... .. . ... : ... .. . ...
ROW 8E : ... .. . ... ... ... ... : ... .. . ... ... ... ... : ... .. . ... : ... .. . ... : ... .. . ...
ROW 8F : ... .. . ... ... ... P81 : ... .. . ... ... ... ... : ... .. . ... : ... .. . ... : ... .. . ...
ROW 90 : ... .. . ... ... ... ... : ... .. . ... ... ... ... : ... .. . ... : ... .. . ... : ... .. . ...
ROW 91 : ... .. . ... ... ... ... : ... .. . ... ... ... ... : ... .. . ... : ... .. . ... : ... .. . ...
ROW 92 : ... .. . ... ... ... ... : ... .. . ... ... ... ... : ... .. . ... : ... .. . ... : ... .. . ...
ROW 93 : ... .. . ... ... ... P80 : ... .. . ... ... ... ... : ... .. . ... : ... .. . ... : ... .. . ...
ROW 94 : ... .. . ... ... ... ... : ... .. . ... ... ... ... : ... .. . ... : ... .. . ... : ... .. . ...
ROW 95 : ... .. . ... ... ... ... : ... .. . ... ... ... ... : ... .. . ... : ... .. . ... : ... .. . ...
ROW 96 : ... .. 3 ... ... ... ... : ... .. 1 ... ... ... ... : ... .. . ... : ... .. . ... : ... .. . ...
ROW 97 : ... .. . ... ... ... P7F : ... .. . ... ... ... ... : ... .. . ... : ... .. . ... : ... .. . ...
ROW 98 : ... .. 2 ... ... ... ... : ... .. . ... ... ... ... : ... .. . ... : ... .. . ... : ... .. . ...
ROW 99 : ... .. . ... ... ... ... : ... .. . ... ... ... ... : ... .. . ... : ... .. . ... : ... .. . ...
ROW 9A : ... .. . ... ... ... ... : ... .. . ... ... ... ... : --- .. . ... : ... .. . ... : ... .. . ...
ROW 9B : ... .. 1 ... ... ... P80 : ... .. . ... ... ... ... : ... .. . ... : ... .. . ... : ... .. . ...
ROW 9C : ... .. . ... ... ... D00 : ... .. . ... ... ... ... : ... .. . ... : ... .. . ... : ... .. . ...
ROW 9D : ... .. . ... ... ... ... : ... .. . ... ... ... ... : ... .. . ... : ... .. . ... : ... .. . ...
ROW 9E : ... .. . ... ... ... ... : ... .. . ... ... ... ... : ... .. . ... : ... .. . ... : ... .. . ...
ROW 9F : ... .. . ... ... ... ... : ... .. . ... ... ... ... : ... .. . ... : ... .. . ... : ... .. . ...
ROW A0 : ... .. . ... ... ... ... : ... .. . ... ... ... ... : ... .. . ... : ... .. . ... : ... .. . ...
ROW A1 : ... .. . ... ... ... ... : ... .. . ... ... ... ... : ... .. . ... : ... .. . ... : ... .. . ...
ROW A2 : ... .. . ... ... ... ... : ... .. . ... ... ... ... : ... .. . ... : ... .. . ... : ... .. . ...
ROW A3 : ... .. . ... ... ... ... : ... .. . ... ... ... ... : ... .. . ... : ... .. . ... : ... .. . ...
ROW A4 : ... .. . ... ... ... ... : ... .. . ... ... ... ... : ... .. . ... : ... .. . ... : ... .. . ...
ROW A5 : ... .. . ... ... ... ... : ... .. . ... ... ... ... : ... .. . ... : ... .. . ... : ... .. . ...
ROW A6 : ... .. . ... ... ... ... : ... .. . ... ... ... ... : ... .. . ... : ... .. . ... : ... .. . ...
ROW A7 : ... .. . ... ... ... ... : ... .. . ... ... ... ... : ... .. . ... : ... .. . ... : ... .. . ...
ROW A8 : ... .. . ... ... ... ... : ... .. . ... ... ... ... : ... .. . ... : ... .. . ... : ... .. . ...
ROW A9 : ... .. . ... ... ... ... : ... .. . ... ... ... ... : ... .. . ... : ... .. . ... : ... .. . ...
ROW AA : ... .. . ... ... ... ... : ... .. . ... ... ... ... : ... .. . ... : ... .. . ... : ... .. . ...
ROW AB : ... .. . ... ... ... ... : ... .. . ... ... ... ... : ... .. . ... : ... .. . ... : ... .. . ...
ROW AC : ... .. . ... ... ... ... : ... .. . ... ... ... ... : ... .. . ... : ... .. . ... : ... .. . ...
ROW AD : ... .. . ... ... ... ... : ... .. . ... ... ... ... : ... .. . ... : ... .. . ... : ... .. . ...
ROW AE : ... .. . ... ... ... ... : ... .. . ... ... ... ... : ... .. . ... : ... .. . ... : ... .. . ...
ROW AF : ... .. . ... ... ... ... : ... .. . ... ... ... ... : ... .. . ... : ... .. . ... : ... .. . ...
ROW B0 : ... .. . ... ... ... ... : ... .. . ... ... ... ... : ... .. . ... : ... .. . ... : ... .. . ...
ROW B1 : ... .. . ... ... ... ... : ... .. . ... ... ... ... : ... .. . ... : ... .. . ... : ... .. . ...
ROW B2 : ... .. . ... ... ... ... : ... .. . ... ... ... ... : ... .. . ... : ... .. . ... : ... .. . ...
ROW B3 : ... .. . ... ... ... ... : ... .. . ... ... ... ... : ... .. . ... : ... .. . ... : ... .. . ...
ROW B4 : ... .. . ... ... ... ... : ... .. . ... ... ... ... : ... .. . ... : ... .. . ... : ... .. . ...
ROW B5 : ... .. . ... ... ... ... : ... .. . ... ... ... ... : ... .. . ... : ... .. . ... : ... .. . ...
ROW B6 : ... .. . ... ... ... ... : ... .. . ... ... ... ... : ... .. . ... : ... .. . ... : ... .. . ...
ROW B7 : ... .. . ... ... ... ... : ... .. . ... ... ... ... : ... .. . ... : ... .. . ... : ... .. . ...
ROW B8 : ... .. . ... ... ... ... : ... .. . ... ... ... ... : ... .. . ... : ... .. . ... : ... .. . ...
ROW B9 : ... .. . ... ... ... ... : ... .. . ... ... ... ... : ... .. . ... : ... .. . ... : ... .. . ...
ROW BA : ... .. . ... ... ... ... : ... .. . ... ... ... ... : ... .. . ... : ... .. . ... : ... .. . ...
ROW BB : ... .. . ... ... ... ... : ... .. . ... ... ... ... : ... .. . ... : ... .. . ... : ... .. . ...
ROW BC : ... .. . ... ... ... ... : ... .. . ... ... ... ... : ... .. . ... : ... .. . ... : ... .. . ...
ROW BD : ... .. . ... ... ... ... : ... .. . ... ... ... ... : ... .. . ... : ... .. . ... : ... .. . ...
ROW BE : ... .. . ... ... ... ... : ... .. . ... ... ... ... : ... .. . ... : ... .. . ... : ... .. . ...
ROW BF : ... .. . ... ... ... ... : ... .. . ... ... ... ... : ... .. . ... : ... .. . ... : ... .. . ...
ROW C0 : ... .. . ... ... ... ... : ... .. . ... ... ... ... : ... .. . ... : ... .. . ... : ... .. . ...
ROW C1 : ... .. . ... ... ... ... : ... .. . ... ... ... ... : ... .. . ... : ... .. . ... : ... .. . ...
ROW C2 : ... .. . ... ... ... ... : ... .. . ... ... ... ... : ... .. . ... : ... .. . ... : ... .. . ...
ROW C3 : ... .. . ... ... ... ... : ... .. . ... ... ... ... : ... .. . ... : ... .. . ... : ... .. . ...
ROW C4 : ... .. . ... ... ... ... : ... .. . ... ... ... ... : ... .. . ... : ... .. . ... : ... .. . ...
ROW C5 : ... .. . ... ... ... ... : ... .. . ... ... ... ... : ... .. . ... : ... .. . ... : ... .. . ...
ROW C6 : ... .. . ... ... ... ... : ... .. . ... ... ... ... : ... .. . ... : ... .. . ... : ... .. . ...
ROW C7 : ... .. . ... ... ... ... : ... .. . ... ... ... ... : ... .. . ... : ... .. . ... : ... .. . ...
ROW C8 : ... .. . ... ... ... ... : ... .. . ... ... ... ... : ... .. . ... : ... .. . ... : ... .. . ...
ROW C9 : ... .. . ... ... ... ... : ... .. . ... ... ... ... : ... .. . ... : ... .. . ... : ... .. . ...
ROW CA : ... .. . ... ... ... ... : ... .. . ... ... ... ... : ... .. . ... : ... .. . ... : ... .. . ...
ROW CB : ... .. . ... ... ... ... : ... .. . ... ... ... ... : ... .. . ... : ... .. . ... : ... .. . ...
ROW CC : ... .. . ... ... ... ... : ... .. . ... ... ... ... : ... .. . ... : ... .. . ... : ... .. . ...
ROW CD : ... .. . ... ... ... ... : ... .. . ... ... ... ... : ... .. . ... : ... .. . ... : ... .. . ...
ROW CE : ... .. . ... ... ... ... : ... .. . ... ... ... ... : ... .. . ... : ... .. . ... : ... .. . ...
ROW CF : ... .. . ... ... ... ... : ... .. . ... ... ... ... : ... .. . ... : ... .. . ... : ... .. . ...
ROW D0 : ... .. . ... ... ... ... : ... .. . ... ... ... ... : ... .. . ... : ... .. . ... : ... .. . ...
ROW D1 : ... .. . ... ... ... ... : ... .. . ... ... ... ... : ... .. . ... : ... .. . ... : ... .. . ...
ROW D2 : ... .. . ... ... ... ... : ... .. . ... ... ... ... : ... .. . ... : ... .. . ... : ... .. . ...
ROW D3 : ... .. . ... ... ... ... : ... .. . ... ... ... ... : ... .. . ... : ... .. . ... : ... .. . ...
ROW D4 : ... .. . ... ... ... ... : ... .. . ... ... ... ... : ... .. . ... : ... .. . ... : ... .. . ...
ROW D5 : ... .. . ... ... ... ... : ... .. . ... ... ... ... : ... .. . ... : ... .. . ... : ... .. . ...
ROW D6 : ... .. . ... ... ... ... : ... .. . ... ... ... ... : ... .. . ... : ... .. . ... : ... .. . ...
ROW D7 : ... .. . ... ... ... ... : ... .. . ... ... ... ... : ... .. . ... : ... .. . ... : ... .. . ...
ROW D8 : ... .. . ... ... ... ... : ... .. . ... ... ... ... : ... .. . ... : ... .. . ... : ... .. . ...
ROW D9 : ... .. . ... ... ... ... : ... .. . ... ... ... ... : ... .. . ... : ... .. . ... : ... .. . ...
ROW DA : ... .. . ... ... ... ... : ... .. . ... ... ... ... : ... .. . ... : ... .. . ... : ... .. . ...
ROW DB : ... .. . ... ... ... ... : ... .. . ... ... ... ... : ... .. . ... : ... .. . ... : ... .. . ...
ROW DC : ... .. . ... ... ... ... : ... .. . ... ... ... ... : ... .. . ... : ... .. . ... : ... .. . ...
ROW DD : ... .. . ... ... ... ... : ... .. . ... ... ... ... : ... .. . ... : ... .. . ... : ... .. . ...
ROW DE : ... .. . ... ... ... ... : ... .. . ... ... ... ... : ... .. . ... : ... .. . ... : ... .. . ...
ROW DF : ... .. . ... ... ... ... : ... .. . ... ... ... ... : ... .. . ... : ... .. . ... : ... .. . ...

PATTERN 41
ROW 00 : C-4 00 1 V01 ... ... ... : G-1 00 3 V02 ... ... P83 : G-2 00 . ... : ... .. . ... : ... .. . ...
ROW 01 : ... .. 2 ... ... ... ... : ... .. . ... ... ... ... : ... .. . ... : ... .. . ... : ... .. . ...
ROW 02 : ... .. 3 ... ... ... ... : ... .. . ... ... ... ... : ... .. . ... : ... .. . ... : ... .. . ...
ROW 03 : ... .. 4 ... ... ... ... : ... .. . ... ... ... ... : ... .. . ... : ... .. . ... : ... .. . ...
ROW 04 : ... .. . ... ... ... ... : ... .. . ... ... ... ... : ... .. . ... : ... .. . ... : ... .. . ...
ROW 05 : ... .. . ... ... ... ... : ... .. . ... ... ... ... : ... .. . ... : ... .. . ... : ... .. . ...
ROW 06 : ... .. . ... ... ... ... : ... .. . ... ... ... ... : ... .. . ... : ... .. . ... : ... .. . ...
ROW 07 : ... .. . ... ... ... ... : ... .. . ... ... ... ... : ... .. . ... : ... .. . ... : ... .. . ...
ROW 08 : ... .. . ... ... ... ... : ... .. . ... ... ... ... : ... .. . ... : ... .. . ... : ... .. . ...
ROW 09 : ... .. . ... ... ... ... : ... .. . ... ... ... ... : ... .. . ... : ... .. . ... : ... .. . ...
ROW 0A : ... .. . ... ... ... ... : ... .. . ... ... ... ... : ... .. . ... : ... .. . ... : ... .. . ...
ROW 0B : ... .. . ... ... ... ... : ... .. . ... ... ... ... : ... .. . ... : ... .. . ... : ... .. . ...
ROW 0C : ... .. . ... ... ... P81 : ... .. . ... ... ... ... : ... .. . ... : ... .. . ... : ... .. . ...
ROW 0D : ... .. . ... ... ... ... : ... .. . ... ... ... ... : ... .. . ... : ... .. . ... : ... .. . ...
ROW 0E : ... .. . ... ... ... ... : ... .. . ... ... ... ... : ... .. . ... : ... .. . ... : ... .. . ...
ROW 0F : ... .. . ... ... ... P80 : ... .. . ... ... ... ... : ... .. . ... : ... .. . ... : ... .. . ...
ROW 10 : ... .. . ... ... ... ... : ... .. . ... ... ... ... : ... .. . ... : ... .. . ... : ... .. . ...
ROW 11 : ... .. . ... ... ... ... : ... .. . ... ... ... ... : ... .. . ... : ... .. . ... : ... .. . ...
ROW 12 : ... .. 3 ... ... ... P7F : ... .. . ... ... ... ... : ... .. . ... : ... .. . ... : ... .. . ...
ROW 13 : ... .. . ... ... ... ... : ... .. . ... ... ... ... : ... .. . ... : ... .. . ... : ... .. . ...
ROW 14 : ... .. 2 ... ... ... ... : ... .. . ... ... ... ... : ... .. . ... : ... .. . ... : ... .. . ...
ROW 15 : ... .. . ... ... ... P80 : ... .. . ... ... ... ... : ... .. . ... : ... .. . ... : ... .. . ...
ROW 16 : ... .. 1 ... ... ... ... : ... .. . ... ... ... ... : ... .. . ... : ... .. . ... : ... .. . ...
ROW 17 : ... .. . ... ... ... ... : ... .. . ... ... ... ... : ... .. . ... : ... .. . ... : ... .. . ...
ROW 18 : B-3 00 1 ... ... ... P80 : ... .. . ... ... ... ... : D-3 00 . ... : ... .. . ... : ... .. . ...
ROW 19 : ... .. 2 ... ... ... ... : ... .. . ... ... ... ... : ... .. . ... : ... .. . ... : ... .. . ...
ROW 1A : ... .. 3 ... ... ... ... : ... .. . ... ... ... ... : ... .. . ... : ... .. . ... : ... .. . ...
ROW 1B : ... .. 4 ... ... ... ... : ... .. . ... ... ... ... : ... .. . ... : ... .. . ... : ... .. . ...
ROW 1C : ... .. . ... ... ... ... : ... .. . ... ... ... ... : ... .. . ... : ... .. . ... : ... .. . ...
ROW 1D : ... .. . ... ... ... ... : ... .. . ... ... ... ... : ... .. . ... : ... .. . ... : ... .. . ...
ROW 1E : ... .. . ... ... ... ... : D-2 00 . ... ... ... ... : ... .. . ... : ... .. . ... : ... .. . ...
ROW 1F : ... .. . ... ... ... ... : ... .. . ... ... ... ... : ... .. . ... : ... .. . ... : ... .. . ...
ROW 20 : ... .. . ... ... ... ... : ... .. . ... ... ... ... : ... .. . ... : ... .. . ... : ... .. . ...
ROW 21 : ... .. . ... ... ... ... : ... .. . ... ... ... ... : ... .. . ... : ... .. . ... : ... .. . ...
ROW 22 : C-4 00 1 ... ... ... ... : ... .. . ... ... ... ... : ... .. . ... : ... .. . ... : ... .. . ...
ROW 23 : ... .. . ... ... ... ... : ... .. . ... ... ... ... : ... .. . ... : ... .. . ... : ... .. . ...
ROW 24 : C-4 00 1 ... ... ... ... : ... .. . ... ... ... ... : ... .. . ... : ... .. . ... : ... .. . ...
ROW 25 : ... .. 2 ... ... ... ... : ... .. . ... ... ... ... : ... .. . ... : ... .. . ... : ... .. . ...
ROW 26 : ... .. 3 ... ... ... ... : ... .. . ... ... ... ... : ... .. . ... : ... .. . ... : ... .. . ...
ROW 27 : ... .. 4 ... ... ... ... : ... .. . ... ... ... ... : ... .. . ... : ... .. . ... : ... .. . ...
ROW 28 : ... .. . ... ... ... ... : ... .. . ... ... ... ... : ... .. . ... : ... .. . ... : ... .. . ...
ROW 29 : ... .. . ... ... ... ... : ... .. . ... ... ... ... : ... .. . ... : ... .. . ... : ... .. . ...
ROW 2A : ... .. . ... ... ... ... : ... .. . ... ... ... ... : ... .. . ... : ... .. . ... : ... .. . ...
ROW 2B : ... .. . ... ... ... ... : ... .. . ... ... ... ... : ... .. . ... : ... .. . ... : ... .. . ...
ROW 2C : ... .. . ... ... ... ... : ... .. . ... ... ... ... : ... .. . ... : ... .. . ... : ... .. . ...
ROW 2D : ... .. . ... ... ... ... : ... .. . ... ... ... ... : ... .. . ... : ... .. . ... : ... .. . ...
ROW 2E : B-3 00 1 ... ... ... ... : ... .. . ... ... ... ... : ... .. . ... : ... .. . ... : ... .. . ...
ROW 2F : ... .. . ... ... ... ... : ... .. . ... ... ... ... : ... .. . ... : ... .. . ... : ... .. . ...
ROW 30 : D-4 00 1 ... ... ... ... : ... .. . ... ... ... ... : A-3 00 . ... : ... .. . ... : ... .. . ...
ROW 31 : ... .. 2 ... ... ... ... : ... .. . ... ... ... ... : ... .. . ... : ... .. . ... : ... .. . ...
ROW 32 : ... .. 3 ... ... ... ... : ... .. . ... ... ... ... : ... .. . ... : ... .. . ... : ... .. . ...
ROW 33 : ... .. 4 ... ... ... ... : ... .. . ... ... ... ... : ... .. . ... : ... .. . ... : ... .. . ...
ROW 34 : ... .. . ... ... ... ... : ... .. . ... ... ... ... : ... .. . ... : ... .. . ... : ... .. . ...
ROW 35 : ... .. . ... ... ... ... : ... .. . ... ... ... ... : ... .. . ... : ... .. . ... : ... .. . ...
ROW 36 : ... .. . ... ... ... ... : A-2 00 . ... ... ... ... : ... .. . ... : ... .. . ... : ... .. . ...
ROW 37 : ... .. . ... ... ... ... : ... .. . ... ... ... ... : ... .. . ... : ... .. . ... : ... .. . ...
ROW 38 : ... .. . ... ... ... ... : ... .. . ... ... ... ... : ... .. . ... : ... .. . ... : ... .. . ...
ROW 39 : ... .. . ... ... ... ... : ... .. . ... ... ... ... : ... .. . ... : ... .. . ... : ... .. . ...
ROW 3A : ... .. . ... ... ... ... : ... .. . ... ... ... ... : ... .. . ... : ... .. . ... : ... .. . ...
ROW 3B : ... .. . ... ... ... ... : ... .. . ... ... ... ... : ... .. . ... : ... .. . ... : ... .. . ...
ROW 3C : ... .. . ... ... ... P81 : ... .. . ... ... ... ... : ... .. . ... : ... .. . ... : ... .. . ...
ROW 3D : ... .. . ... ... ... ... : ... .. . ... ... ... ... : ... .. . ... : ... .. . ... : ... .. . ...
ROW 3E : ... .. . ... ... ... ... : ... .. . ... ... ... ... : ... .. . ... : ... .. . ... : ... .. . ...
ROW 3F : ... .. . ... ... ... P80 : ... .. . ... ... ... ... : ... .. . ... : ... .. . ... : ... .. . ...
ROW 40 : ... .. . ... ... ... ... : ... .. . ... ... ... ... : ... .. . ... : ... .. . ... : ... .. . ...
ROW 41 : ... .. . ... ... ... ... : ... .. . ... ... ... ... : ... .. . ... : ... .. . ... : ... .. . ...
ROW 42 : ... .. 3 ... ... ... P7F : ... .. . ... ... ... ... : ... .. . ... : ... .. . ... : ... .. . ...
ROW 43 : ... .. . ... ... ... ... : ... .. . ... ... ... ... : ... .. . ... : ... .. . ... : ... .. . ...
ROW 44 : ... .. 2 ... ... ... ... : ... .. . ... ... ... ... : ... .. . ... : ... .. . ... : ... .. . ...
ROW 45 : ... .. . ... ... ... P80 : ... .. . ... ... ... ... : ... .. . ... : ... .. . ... : ... .. . ...
ROW 46 : C-4 00 1 ... ... ... ... : ... .. . ... ... ... ... : ... .. . ... : ... .. . ... : ... .. . ...
ROW 47 : ... .. . ... ... ... ... : ... .. . ... ... ... ... : ... .. . ... : ... .. . ... : ... .. . ...
ROW 48 : B-3 00 1 ... ... ... P80 : ... .. . ... ... ... ... : D-3 00 . ... : ... .. . ... : ... .. . ...
ROW 49 : ... .. 2 ... ... ... ... : ... .. . ... ... ... ... : ... .. . ... : ... .. . ... : ... .. . ...
ROW 4A : ... .. 3 ... ... ... ... : ... .. . ... ... ... ... : ... .. . ... : ... .. . ... : ... .. . ...
ROW 4B : ... .. 4 ... ... ... ... : ... .. . ... ... ... ... : ... .. . ... : ... .. . ... : ... .. . ...
ROW 4C : ... .. . ... ... ... ... : ... .. . ... ... ... ... : ... .. . ... : ... .. . ... : ... .. . ...
ROW 4D : ... .. . ... ... ... ... : ... .. . ... ... ... ... : ... .. . ... : ... .. . ... : ... .. . ...
ROW 4E : ... .. . ... ... ... ... : D-2 00 . ... ... ... ... : ... .. . ... : ... .. . ... : ... .. . ...
ROW 4F : ... .. . ... ... ... ... : ... .. . ... ... ... ... : ... .. . ... : ... .. . ... : ... .. . ...
ROW 50 : ... .. . ... ... ... ... : ... .. . ... ... ... ... : ... .. . ... : ... .. . ... : ... .. . ...
ROW 51 : ... .. . ... ... ... ... : ... .. . ... ... ... ... : ... .. . ... : ... .. . ... : ... .. . ...
ROW 52 : ... .. . ... ... ... ... : ... .. . ... ... ... ... : ... .. . ... : ... .. . ... : ... .. . ...
ROW 53 : ... .. . ... ... ... ... : ... .. . ... ... ... ... : ... .. . ... : ... .. . ... : ... .. . ...
ROW 54 : ... .. . ... ... ... P81 : ... .. . ... ... ... ... : ... .. . ... : ... .. . ... : ... .. . ...
ROW 55 : ... .. . ... ... ... ... : ... .. . ... ... ... ... : ... .. . ... : ... .. . ... : ... .. . ...
ROW 56 : ... .. . ... ... ... ... : ... .. . ... ... ... ... : ... .. . ... : ... .. . ... : ... .. . ...
ROW 57 : ... .. . ... ... ... P80 : ... .. . ... ... ... ... : ... .. . ... : ... .. . ... : ... .. . ...
ROW 58 : ... .. . ... ... ... ... : ... .. . ... ... ... ... : ... .. . ... : ... .. . ... : ... .. . ...
ROW 59 : ... .. . ... ... ... ... : ... .. . ... ... ... ... : ... .. . ... : ... .. . ... : ... .. . ...
ROW 5A : ... .. 3 ... ... ... P7F : ... .. . ... ... ... ... : ... .. . ... : ... .. . ... : ... .. . ...
ROW 5B : ... .. . ... ... ... ... : ... .. . ... ... ... ... : ... .. . ... : ... .. . ... : ... .. . ...
ROW 5C : ... .. 2 ... ... ... ... : ... .. . ... ... ... ... : ... .. . ... : ... .. . ... : ... .. . ...
ROW 5D : ... .. . ... ... ... P80 : ... .. . ... ... ... ... : ... .. . ... : ... .. . ... : ... .. . ...
ROW 5E : D-4 00 1 ... ... ... ... : ... .. . ... ... ... ... : ... .. . ... : ... .. . ... : ... .. . ...
ROW 5F : ... .. . ... ... ... ... : ... .. . ... ... ... ... : ... .. . ... : ... .. . ... : ... .. . ...
ROW 60 : C-5 00 5 V02 ... ... P80 : ... .. . ... ... ... ... : G-2 00 . ... : ... .. . ... : ... .. . ...
ROW 61 : ... .. . ... ... ... ... : A-4 00 4 V02 ... ... P80 : ... .. . ... : ... .. . ... : ... .. . ...
ROW 62 : ... .. 4 ... ... ... ... : ... .. . ... ... ... ... : ... .. . ... : ... .. . ... : ... .. . ...
ROW 63 : ... .. . ... ... ... ... : ... .. 3 ... ... ... ... : ... .. . ... : ... .. . ... : ... .. . ...
ROW 64 : ... .. 3 ... ... ... ... : ... .. . ... ... ... ... : ... .. . ... : ... .. . ... : ... .. . ...
ROW 65 : ... .. . ... ... ... ... : ... .. 2 ... ... ... ... : ... .. . ... : ... .. . ... : ... .. . ...
ROW 66 : ... .. . ... ... ... ... : ... .. . ... ... ... ... : ... .. . ... : ... .. . ... : ... .. . ...
ROW 67 : ... .. . ... ... ... ... : ... .. . ... ... ... ... : ... .. . ... : ... .. . ... : ... .. . ...
ROW 68 : ... .. . ... ... ... ... : ... .. . ... ... ... ... : ... .. . ... : ... .. . ... : ... .. . ...
ROW 69 : ... .. . ... ... ... ... : ... .. . ... ... ... ... : ... .. . ... : ... .. . ... : ... .. . ...
ROW 6A : ... .. . ... ... ... ... : ... .. . ... ... ... ... : ... .. . ... : ... .. . ... : ... .. . ...
ROW 6B : ... .. . ... ... ... ... : ... .. . ... ... ... ... : ... .. . ... : ... .. . ... : ... .. . ...
ROW 6C : ... .. . ... ... ... ... : ... .. . ... ... ... ... : ... .. . ... : ... .. . ... : ... .. . ...
ROW 6D : ... .. . ... ... ... ... : ... .. . ... ... ... ... : ... .. . ... : ... .. . ... : ... .. . ...
ROW 6E : ... .. . ... ... ... ... : ... .. . ... ... ... ... : ... .. . ... : ... .. . ... : ... .. . ...
ROW 6F : ... .. . ... ... ... ... : ... .. . ... ... ... ... : ... .. . ... : ... .. . ... : ... .. . ...
ROW 70 : ... .. . ... ... ... ... : ... .. . ... ... ... ... : ... .. . ... : ... .. . ... : ... .. . ...
ROW 71 : ... .. . ... ... ... ... : ... .. . ... ... ... ... : ... .. . ... : ... .. . ... : ... .. . ...
ROW 72 : ... .. 1 ... ... ... ... : ... .. . ... ... ... ... : ... .. . ... : ... .. . ... : ... .. . ...
ROW 73 : ... .. . ... ... ... ... : ... .. 1 ... ... ... ... : ... .. . ... : ... .. . ... : ... .. . ...
ROW 74 : ... .. . ... ... ... ... : ... .. . ... ... ... ... : ... .. . ... : ... .. . ... : ... .. . ...
ROW 75 : ... .. . ... ... ... ... : ... .. . ... ... ... ... : ... .. . ... : ... .. . ... : ... .. . ...
ROW 76 : ... .. 1 ... ... ... ... : ... .. . ... ... ... ... : ... .. . ... : ... .. . ... : ... .. . ...
ROW 77 : ... .. . ... ... ... ... : ... .. . ... ... ... ... : ... .. . ... : ... .. . ... : ... .. . ...
ROW 78 : B-4 00 5 ... ... ... ... : ... .. . ... ... ... ... : D-3 00 . ... : ... .. . ... : ... .. . ...
ROW 79 : ... .. . ... ... ... ... : G-4 00 4 ... ... ... ... : ... .. . ... : ... .. . ... : ... .. . ...
ROW 7A : ... .. 4 ... ... ... ... : ... .. . ... ... ... ... : ... .. . ... : ... .. . ... : ... .. . ...
ROW 7B : ... .. . ... ... ... ... : ... .. 3 ... ... ... ... : ... .. . ... : ... .. . ... : ... .. . ...
ROW 7C : ... .. 3 ... ... ... ... : ... .. . ... ... ... ... : ... .. . ... : ... .. . ... : ... .. . ...
ROW 7D : ... .. . ... ... ... ... : ... .. 2 ... ... ... ... : ... .. . ... : ... .. . ... : ... .. . ...
ROW 7E : ... .. . ... ... ... ... : ... .. . ... ... ... ... : ... .. . ... : ... .. . ... : ... .. . ...
ROW 7F : ... .. . ... ... ... ... : ... .. . ... ... ... ... : ... .. . ... : ... .. . ... : ... .. . ...
ROW 80 : ... .. . ... ... ... ... : ... .. . ... ... ... ... : ... .. . ... : ... .. . ... : ... .. . ...
ROW 81 : C-5 00 1 ... ... ... ... : ... .. . ... ... ... ... : ... .. . ... : ... .. . ... : ... .. . ...
ROW 82 : ... .. . ... ... ... ... : A-4 00 1 ... ... ... ... : ... .. . ... : ... .. . ... : ... .. . ...
ROW 83 : ... .. . ... ... ... ... : ... .. . ... ... ... ... : ... .. . ... : ... .. . ... : ... .. . ...
ROW 84 : C-5 00 5 ... ... ... ... : ... .. . ... ... ... ... : ... .. . ... : ... .. . ... : ... .. . ...
ROW 85 : ... .. . ... ... ... ... : A-4 00 4 ... ... ... ... : ... .. . ... : ... .. . ... : ... .. . ...
ROW 86 : ... .. 4 ... ... ... ... : ... .. . ... ... ... ... : ... .. . ... : ... .. . ... : ... .. . ...
ROW 87 : ... .. . ... ... ... ... : ... .. 3 ... ... ... ... : ... .. . ... : ... .. . ... : ... .. . ...
ROW 88 : ... .. 3 ... ... ... ... : ... .. . ... ... ... ... : ... .. . ... : ... .. . ... : ... .. . ...
ROW 89 : ... .. . ... ... ... ... : ... .. 2 ... ... ... ... : ... .. . ... : ... .. . ... : ... .. . ...
ROW 8A : ... .. . ... ... ... ... : ... .. . ... ... ... ... : ... .. . ... : ... .. . ... : ... .. . ...
ROW 8B : ... .. . ... ... ... ... : ... .. . ... ... ... ... : ... .. . ... : ... .. . ... : ... .. . ...
ROW 8C : ... .. . ... ... ... ... : ... .. . ... ... ... ... : ... .. . ... : ... .. . ... : ... .. . ...
ROW 8D : B-4 00 1 ... ... ... ... : ... .. . ... ... ... ... : ... .. . ... : ... .. . ... : ... .. . ...
ROW 8E : ... .. . ... ... ... ... : A-4 00 1 ... ... ... ... : ... .. . ... : ... .. . ... : ... .. . ...
ROW 8F : ... .. . ... ... ... ... : ... .. . ... ... ... ... : ... .. . ... : ... .. . ... : ... .. . ...
ROW 90 : D-5 00 5 ... ... ... ... : ... .. . ... ... ... ... : A-3 00 . ... : ... .. . ... : ... .. . ...
ROW 91 : ... .. . ... ... ... ... : B-4 00 4 ... ... ... ... : ... .. . ... : ... .. . ... : ... .. . ...
ROW 92 : ... .. 4 ... ... ... ... : ... .. . ... ... ... ... : ... .. . ... : ... .. . ... : ... .. . ...
ROW 93 : ... .. . ... ... ... ... : ... .. 3 ... ... ... ... : ... .. . ... : ... .. . ... : ... .. . ...
ROW 94 : ... .. 3 ... ... ... ... : ... .. . ... ... ... ... : ... .. . ... : ... .. . ... : ... .. . ...
ROW 95 : ... .. . ... ... ... ... : ... .. 2 ... ... ... ... : ... .. . ... : ... .. . ... : ... .. . ...
ROW 96 : ... .. . ... ... ... ... : ... .. . ... ... ... ... : ... .. . ... : ... .. . ... : ... .. . ...
ROW 97 : ... .. . ... ... ... ... : ... .. . ... ... ... ... : ... .. . ... : ... .. . ... : ... .. . ...
ROW 98 : ... .. . ... ... ... ... : ... .. . ... ... ... ... : ... .. . ... : ... .. . ... : ... .. . ...
ROW 99 : ... .. . ... ... ... ... : ... .. . ... ... ... ... : ... .. . ... : ... .. . ... : ... .. . ...
ROW 9A : ... .. . ... ... ... ... : ... .. . ... ... ... ... : ... .. . ... : ... .. . ... : ... .. . ...
ROW 9B : ... .. . ... ... ... ... : ... .. . ... ... ... ... : ... .. . ... : ... .. . ... : ... .. . ...
ROW 9C : ... .. . ... ... ... ... : ... .. . ... ... ... ... : ... .. . ... : ... .. . ... : ... .. . ...
ROW 9D : ... .. . ... ... ... ... : ... .. . ... ... ... ... : ... .. . ... : ... .. . ... : ... .. . ...
ROW 9E : ... .. . ... ... ... ... : ... .. . ... ... ... ... : ... .. . ... : ... .. . ... : ... .. . ...
ROW 9F : ... .. . ... ... ... ... : ... .. . ... ... ... ... : ... .. . ... : ... .. . ... : ... .. . ...
ROW A0 : ... .. . ... ... ... ... : ... .. . ... ... ... ... : ... .. . ... : ... .. . ... : ... .. . ...
ROW A1 : ... .. 2 ... ... ... ... : ... .. . ... ... ... ... : ... .. . ... : ... .. . ... : ... .. . ...
ROW A2 : ... .. . ... ... ... ... : ... .. 1 ... ... ... ... : ... .. . ... : ... .. . ... : ... .. . ...
ROW A3 : ... .. 1 ... ... ... ... : ... .. . ... ... ... ... : ... .. . ... : ... .. . ... : ... .. . ...
ROW A4 : ... .. . ... ... ... ... : ... .. . ... ... ... ... : ... .. . ... : ... .. . ... : ... .. . ...
ROW A5 : C-5 00 1 ... ... ... ... : ... .. . ... ... ... ... : ... .. . ... : ... .. . ... : ... .. . ...
ROW A6 : ... .. . ... ... ... ... : ... .. . ... ... ... ... : ... .. . ... : ... .. . ... : ... .. . ...
ROW A7 : ... .. . ... ... ... ... : ... .. . ... ... ... ... : ... .. . ... : ... .. . ... : ... .. . ...
ROW A8 : B-4 00 5 ... ... ... ... : ... .. . ... ... ... ... : D-3 00 . ... : ... .. . ... : ... .. . ...
ROW A9 : ... .. . ... ... ... ... : G-4 00 4 ... ... ... ... : ... .. . ... : ... .. . ... : ... .. . ...
ROW AA : ... .. 4 ... ... ... ... : ... .. . ... ... ... ... : ... .. . ... : ... .. . ... : ... .. . ...
ROW AB : ... .. . ... ... ... ... : ... .. 3 ... ... ... ... : ... .. . ... : ... .. . ... : ... .. . ...
ROW AC : ... .. 3 ... ... ... ... : ... .. . ... ... ... ... : ... .. . ... : ... .. . ... : ... .. . ...
ROW AD : ... .. . ... ... ... ... : ... .. 2 ... ... ... ... : ... .. . ... : ... .. . ... : ... .. . ...
ROW AE : ... .. . ... ... ... ... : ... .. . ... ... ... ... : ... .. . ... : ... .. . ... : ... .. . ...
ROW AF : ... .. . ... ... ... ... : ... .. . ... ... ... ... : ... .. . ... : ... .. . ... : ... .. . ...
ROW B0 : ... .. . ... ... ... ... : ... .. . ... ... ... ... : ... .. . ... : ... .. . ... : ... .. . ...
ROW B1 : ... .. . ... ... ... ... : ... .. . ... ... ... ... : ... .. . ... : ... .. . ... : ... .. . ...
ROW B2 : ... .. . ... ... ... ... : ... .. . ... ... ... ... : ... .. . ... : ... .. . ... : ... .. . ...
ROW B3 : ... .. . ... ... ... ... : ... .. . ... ... ... ... : ... .. . ... : ... .. . ... : ... .. . ...
ROW B4 : ... .. . ... ... ... ... : ... .. . ... ... ... ... : ... .. . ... : ... .. . ... : ... .. . ...
ROW B5 : ... .. . ... ... ... ... : ... .. . ... ... ... ... : ... .. . ... : ... .. . ... : ... .. . ...
ROW B6 : ... .. . ... ... ... ... : ... .. . ... ... ... ... : ... .. . ... : ... .. . ... : ... .. . ...
ROW B7 : ... .. . ... ... ... ... : ... .. . ... ... ... ... : ... .. . ... : ... .. . ... : ... .. . ...
ROW B8 : ... .. . ... ... ... ... : ... .. . ... ... ... ... : ... .. . ... : ... .. . ... : ... .. . ...
ROW B9 : ... .. . ... ... ... ... : ... .. . ... ... ... ... : ... .. . ... : ... .. . ... : ... .. . ...
ROW BA : ... .. 2 ... ... ... ... : ... .. 1 ... ... ... ... : ... .. . ... : ... .. . ... : ... .. . ...
ROW BB : ... .. . ... ... ... ... : ... .. . ... ... ... ... : ... .. . ... : ... .. . ... : ... .. . ...
ROW BC : ... .. . ... ... ... ... : ... .. . ... ... ... ... : ... .. . ... : ... .. . ... : ... .. . ...
ROW BD : D-5 00 1 ... ... ... ... : ... .. . ... ... ... ... : ... .. . ... : ... .. . ... : ... .. . ...
ROW BE : ... .. . ... ... ... ... : ... .. . ... ... ... ... : ... .. . ... : ... .. . ... : ... .. . ...
ROW BF : ... .. . ... ... ... ... : ... .. . ... ... ... ... : ... .. . ... : ... .. . ... : ... .. . ...
ROW C0 : ... .. . ... ... ... ... : ... .. . ... ... ... D00 : ... .. . ... : ... .. . ... : ... .. . ...
ROW C1 : ... .. . ... ... ... ... : ... .. . ... ... ... ... : ... .. . ... : ... .. . ... : ... .. . ...
ROW C2 : ... .. . ... ... ... ... : ... .. . ... ... ... ... : ... .. . ... : ... .. . ... : ... .. . ...
ROW C3 : ... .. . ... ... ... ... : ... .. . ... ... ... ... : ... .. . ... : ... .. . ... : ... .. . ...
ROW C4 : ... .. . ... ... ... ... : ... .. . ... ... ... ... : ... .. . ... : ... .. . ... : ... .. . ...
ROW C5 : ... .. . ... ... ... ... : ... .. . ... ... ... ... : ... .. . ... : ... .. . ... : ... .. . ...
ROW C6 : ... .. . ... ... ... ... : ... .. . ... ... ... ... : ... .. . ... : ... .. . ... : ... .. . ...
ROW C7 : ... .. . ... ... ... ... : ... .. . ... ... ... ... : ... .. . ... : ... .. . ... : ... .. . ...
ROW C8 : ... .. . ... ... ... ... : ... .. . ... ... ... ... : ... .. . ... : ... .. . ... : ... .. . ...
ROW C9 : ... .. . ... ... ... ... : ... .. . ... ... ... ... : ... .. . ... : ... .. . ... : ... .. . ...
ROW CA : ... .. . ... ... ... ... : ... .. . ... ... ... ... : ... .. . ... : ... .. . ... : ... .. . ...
ROW CB : ... .. . ... ... ... ... : ... .. . ... ... ... ... : ... .. . ... : ... .. . ... : ... .. . ...
ROW CC : ... .. . ... ... ... ... : ... .. . ... ... ... ... : ... .. . ... : ... .. . ... : ... .. . ...
ROW CD : ... .. . ... ... ... ... : ... .. . ... ... ... ... : ... .. . ... : ... .. . ... : ... .. . ...
ROW CE : ... .. . ... ... ... ... : ... .. . ... ... ... ... : ... .. . ... : ... .. . ... : ... .. . ...
ROW CF : ... .. . ... ... ... ... : ... .. . ... ... ... ... : ... .. . ... : ... .. . ... : ... .. . ...
ROW D0 : ... .. . ... ... ... ... : ... .. . ... ... ... ... : ... .. . ... : ... .. . ... : ... .. . ...
ROW D1 : ... .. . ... ... ... ... : ... .. . ... ... ... ... : ... .. . ... : ... .. . ... : ... .. . ...
ROW D2 : ... .. . ... ... ... ... : ... .. . ... ... ... ... : ... .. . ... : ... .. . ... : ... .. . ...
ROW D3 : ... .. . ... ... ... ... : ... .. . ... ... ... ... : ... .. . ... : ... .. . ... : ... .. . ...
ROW D4 : ... .. . ... ... ... ... : ... .. . ... ... ... ... : ... .. . ... : ... .. . ... : ... .. . ...
ROW D5 : ... .. . ... ... ... ... : ... .. . ... ... ... ... : ... .. . ... : ... .. . ... : ... .. . ...
ROW D6 : ... .. . ... ... ... ... : ... .. . ... ... ... ... : ... .. . ... : ... .. . ... : ... .. . ...
ROW D7 : ... .. . ... ... ... ... : ... .. . ... ... ... ... : ... .. . ... : ... .. . ... : ... .. . ...
ROW D8 : ... .. . ... ... ... ... : ... .. . ... ... ... ... : ... .. . ... : ... .. . ... : ... .. . ...
ROW D9 : ... .. . ... ... ... ... : ... .. . ... ... ... ... : ... .. . ... : ... .. . ... : ... .. . ...
ROW DA : ... .. . ... ... ... ... : ... .. . ... ... ... ... : ... .. . ... : ... .. . ... : ... .. . ...
ROW DB : ... .. . ... ... ... ... : ... .. . ... ... ... ... : ... .. . ... : ... .. . ... : ... .. . ...
ROW DC : ... .. . ... ... ... ... : ... .. . ... ... ... ... : ... .. . ... : ... .. . ... : ... .. . ...
ROW DD : ... .. . ... ... ... ... : ... .. . ... ... ... ... : ... .. . ... : ... .. . ... : ... .. . ...
ROW DE : ... .. . ... ... ... ... : ... .. . ... ... ... ... : ... .. . ... : ... .. . ... : ... .. . ...
ROW DF : ... .. . ... ... ... ... : ... .. . ... ... ... ... : ... .. . ... : ... .. . ... : ... .. . ...

PATTERN 42
ROW 00 : D-4 00 2 V02 ... ... ... : D-2 00 5 V00 ... ... ... : D-3 00 . ... : F-# 00 4 ... : ... .. . ...
ROW 01 : D-5 00 3 ... ... ... ... : ... .. . V02 ... ... ... : C-3 00 . ... : ... .. . ... : ... .. . ...
ROW 02 : ... .. 4 ... ... ... ... : ... .. 3 ... ... ... ... : G-2 00 . ... : ... .. . ... : ... .. . ...
ROW 03 : ... .. 5 ... ... ... ... : ... .. . ... ... ... ... : ... .. . ... : ... .. 3 ... : ... .. . ...
ROW 04 : ... .. . ... ... ... ... : ... .. 2 ... ... ... ... : ... .. . ... : ... .. . ... : ... .. . ...
ROW 05 : ... .. . ... ... ... ... : ... .. . ... ... ... ... : ... .. . ... : ... .. . ... : ... .. . ...
ROW 06 : ... .. . ... ... ... ... : ... .. 1 ... ... ... ... : ... .. . ... : ... .. 2 ... : ... .. . ...
ROW 07 : ... .. . ... ... ... ... : ... .. . ... ... ... ... : ... .. . ... : ... .. . ... : ... .. . ...
ROW 08 : ... .. 2 ... ... ... ... : ... .. . ... ... ... ... : ... .. . ... : ... .. . ... : ... .. . ...
ROW 09 : ... .. . ... ... ... ... : ... .. . ... ... ... ... : ... .. . ... : ... .. 1 ... : ... .. . ...
ROW 0A : ... .. 1 ... ... ... ... : ... .. . ... ... ... ... : ... .. . ... : ... .. . ... : ... .. . ...
ROW 0B : ... .. . ... ... ... ... : ... .. . ... ... ... ... : ... .. . ... : ... .. . ... : ... .. . ...
ROW 0C : D#5 00 2 ... ... ... ... : F-2 00 5 V00 ... ... ... : ... .. . ... : ... .. 0 ... : ... .. . ...
ROW 0D : E-5 00 3 ... ... ... ... : ... .. . V02 ... ... ... : ... .. . ... : ... .. . ... : ... .. . ...
ROW 0E : ... .. 4 ... ... ... ... : ... .. 3 ... ... ... ... : ... .. . ... : ... .. . ... : ... .. . ...
ROW 0F : ... .. 5 ... ... ... ... : ... .. . ... ... ... ... : ... .. . ... : ... .. . ... : ... .. . ...
ROW 10 : ... .. . ... ... ... ... : ... .. 2 ... ... ... ... : ... .. . ... : ... .. . ... : ... .. . ...
ROW 11 : ... .. . ... ... ... ... : ... .. . ... ... ... ... : ... .. . ... : ... .. . ... : ... .. . ...
ROW 12 : ... .. . ... ... ... ... : ... .. 1 ... ... ... ... : ... .. . ... : ... .. . ... : ... .. . ...
ROW 13 : ... .. . ... ... ... ... : ... .. . ... ... ... ... : ... .. . ... : ... .. . ... : ... .. . ...
ROW 14 : ... .. 2 ... ... ... ... : D-2 .. 2 ... ... ... ... : ... .. . ... : ... .. . ... : ... .. . ...
ROW 15 : ... .. . ... ... ... ... : ... .. 1 ... ... ... ... : ... .. . ... : ... .. . ... : ... .. . ...
ROW 16 : D-5 00 1 ... ... ... ... : ... .. . ... ... ... ... : ... .. . ... : ... .. . ... : ... .. . ...
ROW 17 : ... .. . ... ... ... ... : ... .. . ... ... ... ... : ... .. . ... : ... .. . ... : ... .. . ...
ROW 18 : C#5 00 2 ... ... ... ... : A-2 00 5 V00 ... ... ... : ... .. . ... : ... .. . ... : ... .. . ...
ROW 19 : D-5 00 3 ... ... ... ... : ... .. . V02 ... ... ... : ... .. . ... : ... .. . ... : ... .. . ...
ROW 1A : ... .. 4 ... ... ... ... : ... .. 3 ... ... ... ... : ... .. . ... : ... .. . ... : ... .. . ...
ROW 1B : ... .. 5 ... ... ... ... : ... .. . ... ... ... ... : ... .. . ... : ... .. . ... : ... .. . ...
ROW 1C : ... .. . ... ... ... ... : ... .. 2 ... ... ... ... : ... .. . ... : ... .. . ... : ... .. . ...
ROW 1D : ... .. . ... ... ... ... : ... .. . ... ... ... ... : ... .. . ... : ... .. . ... : ... .. . ...
ROW 1E : ... .. . ... ... ... ... : ... .. 1 ... ... ... ... : ... .. . ... : ... .. . ... : ... .. . ...
ROW 1F : ... .. . ... ... ... ... : ... .. . ... ... ... ... : ... .. . ... : ... .. . ... : ... .. . ...
ROW 20 : ... .. 2 ... ... ... ... : F-2 .. 2 ... ... ... ... : ... .. . ... : ... .. . ... : ... .. . ...
ROW 21 : ... .. . ... ... ... ... : ... .. 1 ... ... ... ... : ... .. . ... : ... .. . ... : ... .. . ...
ROW 22 : E-5 00 1 ... ... ... ... : ... .. . ... ... ... ... : ... .. . ... : ... .. . ... : ... .. . ...
ROW 23 : ... .. . ... ... ... ... : ... .. . ... ... ... ... : ... .. . ... : ... .. . ... : ... .. . ...
ROW 24 : B-4 00 2 ... ... ... ... : C-3 00 5 V00 ... ... ... : ... .. . ... : ... .. . ... : ... .. . ...
ROW 25 : C-5 00 3 ... ... ... ... : ... .. . V02 ... ... ... : ... .. . ... : ... .. . ... : ... .. . ...
ROW 26 : ... .. 4 ... ... ... ... : ... .. 3 ... ... ... ... : ... .. . ... : ... .. . ... : ... .. . ...
ROW 27 : ... .. 5 ... ... ... ... : ... .. . ... ... ... ... : ... .. . ... : ... .. . ... : ... .. . ...
ROW 28 : ... .. . ... ... ... ... : ... .. 2 ... ... ... ... : ... .. . ... : ... .. . ... : ... .. . ...
ROW 29 : ... .. . ... ... ... ... : ... .. . ... ... ... ... : ... .. . ... : ... .. . ... : ... .. . ...
ROW 2A : ... .. . ... ... ... ... : ... .. 1 ... ... ... ... : ... .. . ... : ... .. . ... : ... .. . ...
ROW 2B : ... .. . ... ... ... ... : ... .. . ... ... ... ... : ... .. . ... : ... .. . ... : ... .. . ...
ROW 2C : ... .. 2 ... ... ... ... : A-2 .. 2 ... ... ... ... : ... .. . ... : ... .. . ... : ... .. . ...
ROW 2D : ... .. . ... ... ... ... : ... .. 1 ... ... ... ... : ... .. . ... : ... .. . ... : ... .. . ...
ROW 2E : D-5 00 1 ... ... ... ... : ... .. . ... ... ... ... : ... .. . ... : ... .. . ... : ... .. . ...
ROW 2F : ... .. . ... ... ... ... : ... .. . ... ... ... ... : ... .. . ... : ... .. . ... : ... .. . ...
ROW 30 : G#4 00 2 ... ... ... ... : E-2 00 5 V00 ... ... ... : ... .. . ... : F-# 00 4 ... : ... .. . ...
ROW 31 : A-4 00 3 ... ... ... ... : ... .. . V02 ... ... ... : ... .. . ... : ... .. . ... : ... .. . ...
ROW 32 : ... .. 4 ... ... ... ... : ... .. 3 ... ... ... ... : ... .. . ... : ... .. . ... : ... .. . ...
ROW 33 : ... .. 5 ... ... ... ... : ... .. . ... ... ... ... : ... .. . ... : ... .. 3 ... : ... .. . ...
ROW 34 : ... .. . ... ... ... ... : ... .. 2 ... ... ... ... : ... .. . ... : ... .. . ... : ... .. . ...
ROW 35 : ... .. . ... ... ... ... : ... .. . ... ... ... ... : ... .. . ... : ... .. . ... : ... .. . ...
ROW 36 : ... .. . ... ... ... ... : ... .. 1 ... ... ... ... : ... .. . ... : ... .. 2 ... : ... .. . ...
ROW 37 : ... .. . ... ... ... ... : ... .. . ... ... ... ... : ... .. . ... : ... .. . ... : ... .. . ...
ROW 38 : ... .. 2 ... ... ... ... : C-3 .. 2 ... ... ... ... : ... .. . ... : ... .. . ... : ... .. . ...
ROW 39 : ... .. . ... ... ... ... : ... .. 1 ... ... ... ... : ... .. . ... : ... .. 1 ... : ... .. . ...
ROW 3A : C-5 00 1 ... ... ... ... : ... .. . ... ... ... ... : ... .. . ... : ... .. . ... : ... .. . ...
ROW 3B : ... .. . ... ... ... ... : ... .. . ... ... ... ... : ... .. . ... : ... .. . ... : ... .. . ...
ROW 3C : F#4 00 2 ... ... ... ... : G-2 00 5 V00 ... ... ... : ... .. . ... : ... .. 0 ... : ... .. . ...
ROW 3D : G-4 00 3 ... ... ... ... : ... .. . V02 ... ... ... : ... .. . ... : ... .. . ... : ... .. . ...
ROW 3E : ... .. 4 ... ... ... ... : ... .. 3 ... ... ... ... : ... .. . ... : ... .. . ... : ... .. . ...
ROW 3F : ... .. 5 ... ... ... ... : ... .. . ... ... ... ... : ... .. . ... : ... .. . ... : ... .. . ...
ROW 40 : ... .. . ... ... ... ... : ... .. 2 ... ... ... ... : ... .. . ... : ... .. . ... : ... .. . ...
ROW 41 : ... .. . ... ... ... ... : ... .. . ... ... ... ... : ... .. . ... : ... .. . ... : ... .. . ...
ROW 42 : ... .. . ... ... ... ... : ... .. 1 ... ... ... ... : ... .. . ... : ... .. . ... : ... .. . ...
ROW 43 : ... .. . ... ... ... ... : ... .. . ... ... ... ... : ... .. . ... : ... .. . ... : ... .. . ...
ROW 44 : ... .. 2 ... ... ... ... : E-2 .. 2 ... ... ... ... : ... .. . ... : ... .. . ... : ... .. . ...
ROW 45 : ... .. . ... ... ... ... : ... .. 1 ... ... ... ... : ... .. . ... : ... .. . ... : ... .. . ...
ROW 46 : A-4 00 1 ... ... ... ... : ... .. . ... ... ... ... : ... .. . ... : ... .. . ... : ... .. . ...
ROW 47 : ... .. . ... ... ... ... : ... .. . ... ... ... ... : ... .. . ... : ... .. . ... : ... .. . ...
ROW 48 : D#4 00 2 ... ... ... ... : C-3 00 5 V00 ... ... ... : ... .. . ... : ... .. . ... : ... .. . ...
ROW 49 : E-4 00 3 ... ... ... ... : ... .. . V02 ... ... ... : ... .. . ... : ... .. . ... : ... .. . ...
ROW 4A : ... .. 4 ... ... ... ... : ... .. 3 ... ... ... ... : ... .. . ... : ... .. . ... : ... .. . ...
ROW 4B : ... .. 5 ... ... ... ... : ... .. . ... ... ... ... : ... .. . ... : ... .. . ... : ... .. . ...
ROW 4C : ... .. . ... ... ... ... : ... .. 2 ... ... ... ... : ... .. . ... : ... .. . ... : ... .. . ...
ROW 4D : ... .. . ... ... ... ... : ... .. . ... ... ... ... : ... .. . ... : ... .. . ... : ... .. . ...
ROW 4E : ... .. . ... ... ... ... : ... .. 1 ... ... ... ... : ... .. . ... : ... .. . ... : ... .. . ...
ROW 4F : ... .. . ... ... ... ... : ... .. . ... ... ... ... : ... .. . ... : ... .. . ... : ... .. . ...
ROW 50 : ... .. 2 ... ... ... ... : G-2 .. 2 ... ... ... ... : ... .. . ... : ... .. . ... : ... .. . ...
ROW 51 : ... .. . ... ... ... ... : ... .. 1 ... ... ... ... : ... .. . ... : ... .. . ... : ... .. . ...
ROW 52 : G-4 00 1 ... ... ... ... : ... .. . ... ... ... ... : --- .. . ... : ... .. . ... : ... .. . ...
ROW 53 : ... .. . ... ... ... ... : ... .. . ... ... ... ... : ... .. . ... : ... .. . ... : ... .. . ...
ROW 54 : B-3 00 2 ... ... ... ... : E-3 00 5 V00 ... ... ... : G-2 00 . ... : ... .. . ... : ... .. . ...
ROW 55 : C-4 00 3 ... ... ... ... : ... .. . V02 ... ... ... : ... .. . ... : ... .. . ... : ... .. . ...
ROW 56 : ... .. 4 ... ... ... ... : ... .. 3 ... ... ... ... : ... .. . ... : ... .. . ... : ... .. . ...
ROW 57 : ... .. 5 ... ... ... ... : ... .. . ... ... ... ... : ... .. . ... : ... .. . ... : ... .. . ...
ROW 58 : ... .. . ... ... ... ... : ... .. 2 ... ... ... ... : ... .. . ... : ... .. . ... : ... .. . ...
ROW 59 : ... .. . ... ... ... ... : ... .. . ... ... ... ... : --- .. . ... : ... .. . ... : ... .. . ...
ROW 5A : ... .. . ... ... ... ... : ... .. 1 ... ... ... ... : G-2 00 . ... : ... .. . ... : ... .. . ...
ROW 5B : ... .. . ... ... ... ... : ... .. . ... ... ... ... : ... .. . ... : ... .. . ... : ... .. . ...
ROW 5C : ... .. 2 ... ... ... ... : C-3 .. 2 ... ... ... ... : ... .. . ... : ... .. . ... : ... .. . ...
ROW 5D : ... .. . ... ... ... ... : ... .. 1 ... ... ... ... : ... .. . ... : ... .. . ... : ... .. . ...
ROW 5E : E-4 00 1 ... ... ... ... : ... .. . ... ... ... ... : ... .. . ... : ... .. . ... : ... .. . ...
ROW 5F : ... .. . ... ... ... ... : ... .. . ... ... ... ... : --- .. . ... : ... .. . ... : ... .. . ...
ROW 60 : C#4 00 2 V02 ... ... ... : F-2 00 5 V00 ... ... ... : D-3 00 . ... : F-# 00 4 ... : ... .. . ...
ROW 61 : D-4 00 3 ... ... ... ... : ... .. . V02 ... ... ... : C-3 00 . ... : ... .. . ... : ... .. . ...
ROW 62 : ... .. 4 ... ... ... ... : ... .. 3 ... ... ... ... : G-2 00 . ... : ... .. . ... : ... .. . ...
ROW 63 : ... .. 5 ... ... ... ... : ... .. . ... ... ... ... : ... .. . ... : ... .. 3 ... : ... .. . ...
ROW 64 : ... .. . ... ... ... ... : ... .. 2 ... ... ... ... : ... .. . ... : ... .. . ... : ... .. . ...
ROW 65 : ... .. . ... ... ... ... : ... .. . ... ... ... ... : ... .. . ... : ... .. . ... : ... .. . ...
ROW 66 : ... .. . ... ... ... ... : ... .. 1 ... ... ... ... : ... .. . ... : ... .. 2 ... : ... .. . ...
ROW 67 : ... .. . ... ... ... ... : ... .. . ... ... ... ... : ... .. . ... : ... .. . ... : ... .. . ...
ROW 68 : ... .. 2 ... ... ... ... : E-3 .. 2 ... ... ... ... : ... .. . ... : ... .. . ... : ... .. . ...
ROW 69 : ... .. . ... ... ... ... : ... .. 1 ... ... ... ... : ... .. . ... : ... .. 1 ... : ... .. . ...
ROW 6A : C-4 00 1 ... ... ... ... : ... .. . ... ... ... ... : ... .. . ... : ... .. . ... : ... .. . ...
ROW 6B : ... .. . ... ... ... ... : ... .. . ... ... ... ... : ... .. . ... : ... .. . ... : ... .. . ...
ROW 6C : D#4 00 2 ... ... ... ... : A-2 00 5 V00 ... ... ... : ... .. . ... : ... .. 0 ... : ... .. . ...
ROW 6D : E-4 00 3 ... ... ... ... : ... .. . V02 ... ... ... : ... .. . ... : ... .. . ... : ... .. . ...
ROW 6E : ... .. 4 ... ... ... ... : ... .. 3 ... ... ... ... : ... .. . ... : ... .. . ... : ... .. . ...
ROW 6F : ... .. 5 ... ... ... ... : ... .. . ... ... ... ... : ... .. . ... : ... .. . ... : ... .. . ...
ROW 70 : ... .. . ... ... ... ... : ... .. 2 ... ... ... ... : ... .. . ... : ... .. . ... : ... .. . ...
ROW 71 : ... .. . ... ... ... ... : ... .. . ... ... ... ... : ... .. . ... : ... .. . ... : ... .. . ...
ROW 72 : ... .. . ... ... ... ... : ... .. 1 ... ... ... ... : ... .. . ... : ... .. . ... : ... .. . ...
ROW 73 : ... .. . ... ... ... ... : ... .. . ... ... ... ... : ... .. . ... : ... .. . ... : ... .. . ...
ROW 74 : ... .. 2 ... ... ... ... : F-2 .. 2 ... ... ... ... : ... .. . ... : ... .. . ... : ... .. . ...
ROW 75 : ... .. . ... ... ... ... : ... .. 1 ... ... ... ... : ... .. . ... : ... .. . ... : ... .. . ...
ROW 76 : D-4 00 1 ... ... ... ... : ... .. . ... ... ... ... : ... .. . ... : ... .. . ... : ... .. . ...
ROW 77 : ... .. . ... ... ... ... : ... .. . ... ... ... ... : ... .. . ... : ... .. . ... : ... .. . ...
ROW 78 : C#4 00 2 ... ... ... ... : C-3 00 5 V00 ... ... ... : ... .. . ... : ... .. . ... : ... .. . ...
ROW 79 : D-4 00 3 ... ... ... ... : ... .. . V02 ... ... ... : ... .. . ... : ... .. . ... : ... .. . ...
ROW 7A : ... .. 4 ... ... ... ... : ... .. 3 ... ... ... ... : ... .. . ... : ... .. . ... : ... .. . ...
ROW 7B : ... .. 5 ... ... ... ... : ... .. . ... ... ... ... : ... .. . ... : ... .. . ... : ... .. . ...
ROW 7C : ... .. . ... ... ... ... : ... .. 2 ... ... ... ... : ... .. . ... : ... .. . ... : ... .. . ...
ROW 7D : ... .. . ... ... ... ... : ... .. . ... ... ... ... : ... .. . ... : ... .. . ... : ... .. . ...
ROW 7E : ... .. . ... ... ... ... : ... .. 1 ... ... ... ... : ... .. . ... : ... .. . ... : ... .. . ...
ROW 7F : ... .. . ... ... ... ... : ... .. . ... ... ... ... : ... .. . ... : ... .. . ... : ... .. . ...
ROW 80 : ... .. 2 ... ... ... ... : A-2 .. 2 ... ... ... ... : ... .. . ... : ... .. . ... : ... .. . ...
ROW 81 : ... .. . ... ... ... ... : ... .. 1 ... ... ... ... : ... .. . ... : ... .. . ... : ... .. . ...
ROW 82 : E-4 00 1 ... ... ... ... : ... .. . ... ... ... ... : ... .. . ... : ... .. . ... : ... .. . ...
ROW 83 : ... .. . ... ... ... ... : ... .. . ... ... ... ... : ... .. . ... : ... .. . ... : ... .. . ...
ROW 84 : B-3 00 2 ... ... ... ... : F-3 00 5 V00 ... ... ... : ... .. . ... : ... .. . ... : ... .. . ...
ROW 85 : C-4 00 3 ... ... ... ... : ... .. . V02 ... ... ... : ... .. . ... : ... .. . ... : ... .. . ...
ROW 86 : ... .. 4 ... ... ... ... : ... .. 3 ... ... ... ... : ... .. . ... : ... .. . ... : ... .. . ...
ROW 87 : ... .. 5 ... ... ... ... : ... .. . ... ... ... ... : ... .. . ... : ... .. . ... : ... .. . ...
ROW 88 : ... .. . ... ... ... ... : ... .. 2 ... ... ... ... : ... .. . ... : ... .. . ... : ... .. . ...
ROW 89 : ... .. . ... ... ... ... : ... .. . ... ... ... ... : ... .. . ... : ... .. . ... : ... .. . ...
ROW 8A : ... .. . ... ... ... ... : ... .. 1 ... ... ... ... : ... .. . ... : ... .. . ... : ... .. . ...
ROW 8B : ... .. . ... ... ... ... : ... .. . ... ... ... ... : ... .. . ... : ... .. . ... : ... .. . ...
ROW 8C : ... .. 2 ... ... ... ... : C-3 .. 2 ... ... ... ... : ... .. . ... : ... .. . ... : ... .. . ...
ROW 8D : ... .. . ... ... ... ... : ... .. 1 ... ... ... ... : ... .. . ... : ... .. . ... : ... .. . ...
ROW 8E : D-4 00 1 ... ... ... ... : ... .. . ... ... ... ... : ... .. . ... : ... .. . ... : ... .. . ...
ROW 8F : ... .. . ... ... ... ... : ... .. . ... ... ... ... : ... .. . ... : ... .. . ... : ... .. . ...
ROW 90 : G#3 00 2 ... ... ... ... : E-2 00 5 V00 ... ... ... : ... .. . ... : F-# 00 4 ... : ... .. . ...
ROW 91 : A-3 00 3 ... ... ... ... : ... .. . V02 ... ... ... : ... .. . ... : ... .. . ... : ... .. . ...
ROW 92 : ... .. 4 ... ... ... ... : ... .. 3 ... ... ... ... : ... .. . ... : ... .. . ... : ... .. . ...
ROW 93 : ... .. 5 ... ... ... ... : ... .. . ... ... ... ... : ... .. . ... : ... .. 3 ... : ... .. . ...
ROW 94 : ... .. . ... ... ... ... : ... .. 2 ... ... ... ... : ... .. . ... : ... .. . ... : ... .. . ...
ROW 95 : ... .. . ... ... ... ... : ... .. . ... ... ... ... : ... .. . ... : ... .. . ... : ... .. . ...
ROW 96 : ... .. . ... ... ... ... : ... .. 1 ... ... ... ... : ... .. . ... : ... .. 2 ... : ... .. . ...
ROW 97 : ... .. . ... ... ... ... : ... .. . ... ... ... ... : ... .. . ... : ... .. . ... : ... .. . ...
ROW 98 : ... .. 2 ... ... ... ... : F-3 .. 2 ... ... ... ... : ... .. . ... : ... .. . ... : ... .. . ...
ROW 99 : ... .. . ... ... ... ... : ... .. 1 ... ... ... ... : ... .. . ... : ... .. 1 ... : ... .. . ...
ROW 9A : C-4 00 1 ... ... ... ... : ... .. . ... ... ... ... : ... .. . ... : ... .. . ... : ... .. . ...
ROW 9B : ... .. . ... ... ... ... : ... .. . ... ... ... ... : ... .. . ... : ... .. . ... : ... .. . ...
ROW 9C : F#3 00 2 ... ... ... ... : G-2 00 5 V00 ... ... ... : ... .. . ... : ... .. 0 ... : ... .. . ...
ROW 9D : G-3 00 3 ... ... ... ... : ... .. . V02 ... ... ... : ... .. . ... : ... .. . ... : ... .. . ...
ROW 9E : ... .. 4 ... ... ... ... : ... .. 3 ... ... ... ... : ... .. . ... : ... .. . ... : ... .. . ...
ROW 9F : ... .. 5 ... ... ... ... : ... .. . ... ... ... ... : ... .. . ... : ... .. . ... : ... .. . ...
ROW A0 : ... .. . ... ... ... ... : ... .. 2 ... ... ... ... : ... .. . ... : ... .. . ... : ... .. . ...
ROW A1 : ... .. . ... ... ... ... : ... .. . ... ... ... ... : ... .. . ... : ... .. . ... : ... .. . ...
ROW A2 : ... .. . ... ... ... ... : ... .. 1 ... ... ... ... : ... .. . ... : ... .. . ... : ... .. . ...
ROW A3 : ... .. . ... ... ... ... : ... .. . ... ... ... ... : ... .. . ... : ... .. . ... : ... .. . ...
ROW A4 : ... .. 2 ... ... ... ... : E-2 .. 2 ... ... ... ... : ... .. . ... : ... .. . ... : ... .. . ...
ROW A5 : ... .. . ... ... ... ... : ... .. 1 ... ... ... ... : ... .. . ... : ... .. . ... : ... .. . ...
ROW A6 : A-3 00 1 ... ... ... ... : ... .. . ... ... ... ... : ... .. . ... : ... .. . ... : ... .. . ...
ROW A7 : ... .. . ... ... ... ... : ... .. . ... ... ... ... : ... .. . ... : ... .. . ... : ... .. . ...
ROW A8 : D#3 00 2 ... ... ... ... : C-3 00 5 V00 ... ... ... : ... .. . ... : ... .. . ... : ... .. . ...
ROW A9 : E-3 00 3 ... ... ... ... : ... .. . V02 ... ... ... : ... .. . ... : ... .. . ... : ... .. . ...
ROW AA : ... .. 4 ... ... ... ... : ... .. 3 ... ... ... ... : ... .. . ... : ... .. . ... : ... .. . ...
ROW AB : ... .. 5 ... ... ... ... : ... .. . ... ... ... ... : ... .. . ... : ... .. . ... : ... .. . ...
ROW AC : ... .. . ... ... ... ... : ... .. 2 ... ... ... ... : ... .. . ... : ... .. . ... : ... .. . ...
ROW AD : ... .. . ... ... ... ... : ... .. . ... ... ... ... : ... .. . ... : ... .. . ... : ... .. . ...
ROW AE : ... .. . ... ... ... ... : ... .. 1 ... ... ... ... : ... .. . ... : ... .. . ... : ... .. . ...
ROW AF : ... .. . ... ... ... ... : ... .. . ... ... ... ... : ... .. . ... : ... .. . ... : ... .. . ...
ROW B0 : ... .. 2 ... ... ... ... : G-2 .. 2 ... ... ... ... : ... .. . ... : ... .. . ... : ... .. . ...
ROW B1 : ... .. . ... ... ... ... : ... .. 1 ... ... ... ... : ... .. . ... : ... .. . ... : ... .. . ...
ROW B2 : G-3 00 1 ... ... ... ... : ... .. . ... ... ... ... : --- .. . ... : ... .. . ... : ... .. . ...
ROW B3 : ... .. . ... ... ... ... : ... .. . ... ... ... ... : ... .. . ... : ... .. . ... : ... .. . ...
ROW B4 : B-2 00 2 ... ... ... ... : E-3 00 5 V00 ... ... ... : G-2 00 . ... : ... .. . ... : ... .. . ...
ROW B5 : C-3 00 3 ... ... ... ... : ... .. . V02 ... ... ... : ... .. . ... : ... .. . ... : ... .. . ...
ROW B6 : ... .. 4 ... ... ... ... : ... .. 3 ... ... ... ... : ... .. . ... : ... .. . ... : ... .. . ...
ROW B7 : ... .. 5 ... ... ... ... : ... .. . ... ... ... ... : ... .. . ... : ... .. . ... : ... .. . ...
ROW B8 : ... .. . ... ... ... ... : ... .. 2 ... ... ... ... : ... .. . ... : ... .. . ... : ... .. . ...
ROW B9 : ... .. . ... ... ... ... : ... .. . ... ... ... ... : --- .. . ... : ... .. . ... : ... .. . ...
ROW BA : ... .. . ... ... ... ... : ... .. 1 ... ... ... ... : G-2 00 . ... : ... .. . ... : ... .. . ...
ROW BB : ... .. . ... ... ... ... : ... .. . ... ... ... ... : ... .. . ... : ... .. . ... : ... .. . ...
ROW BC : ... .. 2 ... ... ... ... : C-3 .. 2 ... ... ... ... : ... .. . ... : ... .. . ... : ... .. . ...
ROW BD : ... .. . ... ... ... ... : ... .. 1 ... ... ... ... : ... .. . ... : ... .. . ... : ... .. . ...
ROW BE : E-3 00 1 ... ... ... ... : ... .. . ... ... ... ... : ... .. . ... : ... .. . ... : ... .. . ...
ROW BF : ... .. . ... ... ... ... : ... .. . ... ... ... ... : --- .. . D00 : ... .. . ... : ... .. . ...
ROW C0 : ... .. . ... ... ... ... : ... .. . ... ... ... ... : ... .. . ... : ... .. . ... : ... .. . ...
ROW C1 : ... .. . ... ... ... ... : ... .. . ... ... ... ... : ... .. . ... : ... .. . ... : ... .. . ...
ROW C2 : ... .. . ... ... ... ... : ... .. . ... ... ... ... : ... .. . ... : ... .. . ... : ... .. . ...
ROW C3 : ... .. . ... ... ... ... : ... .. . ... ... ... ... : ... .. . ... : ... .. . ... : ... .. . ...
ROW C4 : ... .. . ... ... ... ... : ... .. . ... ... ... ... : ... .. . ... : ... .. . ... : ... .. . ...
ROW C5 : ... .. . ... ... ... ... : ... .. . ... ... ... ... : ... .. . ... : ... .. . ... : ... .. . ...
ROW C6 : ... .. . ... ... ... ... : ... .. . ... ... ... ... : ... .. . ... : ... .. . ... : ... .. . ...
ROW C7 : ... .. . ... ... ... ... : ... .. . ... ... ... ... : ... .. . ... : ... .. . ... : ... .. . ...
ROW C8 : ... .. . ... ... ... ... : ... .. . ... ... ... ... : ... .. . ... : ... .. . ... : ... .. . ...
ROW C9 : ... .. . ... ... ... ... : ... .. . ... ... ... ... : ... .. . ... : ... .. . ... : ... .. . ...
ROW CA : ... .. . ... ... ... ... : ... .. . ... ... ... ... : ... .. . ... : ... .. . ... : ... .. . ...
ROW CB : ... .. . ... ... ... ... : ... .. . ... ... ... ... : ... .. . ... : ... .. . ... : ... .. . ...
ROW CC : ... .. . ... ... ... ... : ... .. . ... ... ... ... : ... .. . ... : ... .. . ... : ... .. . ...
ROW CD : ... .. . ... ... ... ... : ... .. . ... ... ... ... : ... .. . ... : ... .. . ... : ... .. . ...
ROW CE : ... .. . ... ... ... ... : ... .. . ... ... ... ... : ... .. . ... : ... .. . ... : ... .. . ...
ROW CF : ... .. . ... ... ... ... : ... .. . ... ... ... ... : ... .. . ... : ... .. . ... : ... .. . ...
ROW D0 : ... .. . ... ... ... ... : ... .. . ... ... ... ... : ... .. . ... : ... .. . ... : ... .. . ...
ROW D1 : ... .. . ... ... ... ... : ... .. . ... ... ... ... : ... .. . ... : ... .. . ... : ... .. . ...
ROW D2 : ... .. . ... ... ... ... : ... .. . ... ... ... ... : ... .. . ... : ... .. . ... : ... .. . ...
ROW D3 : ... .. . ... ... ... ... : ... .. . ... ... ... ... : ... .. . ... : ... .. . ... : ... .. . ...
ROW D4 : ... .. . ... ... ... ... : ... .. . ... ... ... ... : ... .. . ... : ... .. . ... : ... .. . ...
ROW D5 : ... .. . ... ... ... ... : ... .. . ... ... ... ... : ... .. . ... : ... .. . ... : ... .. . ...
ROW D6 : ... .. . ... ... ... ... : ... .. . ... ... ... ... : ... .. . ... : ... .. . ... : ... .. . ...
ROW D7 : ... .. . ... ... ... ... : ... .. . ... ... ... ... : ... .. . ... : ... .. . ... : ... .. . ...
ROW D8 : ... .. . ... ... ... ... : ... .. . ... ... ... ... : ... .. . ... : ... .. . ... : ... .. . ...
ROW D9 : ... .. . ... ... ... ... : ... .. . ... ... ... ... : ... .. . ... : ... .. . ... : ... .. . ...
ROW DA : ... .. . ... ... ... ... : ... .. . ... ... ... ... : ... .. . ... : ... .. . ... : ... .. . ...
ROW DB : ... .. . ... ... ... ... : ... .. . ... ... ... ... : ... .. . ... : ... .. . ... : ... .. . ...
ROW DC : ... .. . ... ... ... ... : ... .. . ... ... ... ... : ... .. . ... : ... .. . ... : ... .. . ...
ROW DD : ... .. . ... ... ... ... : ... .. . ... ... ... ... : ... .. . ... : ... .. . ... : ... .. . ...
ROW DE : ... .. . ... ... ... ... : ... .. . ... ... ... ... : ... .. . ... : ... .. . ... : ... .. . ...
ROW DF : ... .. . ... ... ... ... : ... .. . ... ... ... ... : ... .. . ... : ... .. . ... : ... .. . ...

PATTERN 43
ROW 00 : C#5 00 2 V02 ... ... ... : F-3 00 5 V00 ... ... P80 : D-3 00 . ... : 2-# 00 3 ... : ... .. . ...
ROW 01 : D-5 00 3 ... ... ... ... : ... .. . ... ... ... ... : C-3 00 . ... : ... .. . ... : ... .. . ...
ROW 02 : ... .. 4 ... ... ... ... : ... .. 4 ... ... ... ... : G-2 00 . ... : ... .. 2 ... : ... .. . ...
ROW 03 : ... .. 5 ... ... ... ... : ... .. . ... ... ... ... : ... .. . ... : ... .. . ... : ... .. . ...
ROW 04 : ... .. . ... ... ... ... : ... .. 3 ... ... ... ... : ... .. . ... : ... .. 1 ... : ... .. . ...
ROW 05 : ... .. . ... ... ... ... : ... .. . ... ... ... ... : ... .. . ... : ... .. . ... : ... .. . ...
ROW 06 : ... .. . ... ... ... ... : ... .. . ... ... ... ... : ... .. . ... : ... .. 0 ... : ... .. . ...
ROW 07 : ... .. . ... ... ... ... : ... .. . ... ... ... ... : ... .. . ... : ... .. . ... : ... .. . ...
ROW 08 : ... .. 2 ... ... ... ... : E-2 00 2 ... ... ... ... : ... .. . ... : ... .. . ... : ... .. . ...
ROW 09 : ... .. . ... ... ... ... : ... .. 1 ... ... ... ... : ... .. . ... : ... .. . ... : ... .. . ...
ROW 0A : ... .. 1 ... ... ... ... : ... .. . ... ... ... ... : ... .. . ... : ... .. . ... : ... .. . ...
ROW 0B : ... .. . ... ... ... ... : ... .. . ... ... ... ... : ... .. . ... : ... .. . ... : ... .. . ...
ROW 0C : D#5 00 2 ... ... ... ... : D-2 00 5 ... ... ... ... : ... .. . ... : F-# 00 6 ... : ... .. . ...
ROW 0D : E-5 00 3 ... ... ... ... : ... .. . ... ... ... ... : ... .. . ... : ... .. 4 ... : ... .. . ...
ROW 0E : ... .. 4 ... ... ... ... : ... .. 4 ... ... ... ... : ... .. . ... : ... .. 2 ... : ... .. . ...
ROW 0F : ... .. 5 ... ... ... ... : ... .. . ... ... ... ... : ... .. . ... : ... .. 1 ... : ... .. . ...
ROW 10 : ... .. . ... ... ... ... : ... .. 3 ... ... ... ... : ... .. . ... : ... .. 0 ... : ... .. . ...
ROW 11 : ... .. . ... ... ... ... : ... .. . ... ... ... ... : ... .. . ... : ... .. . ... : ... .. . ...
ROW 12 : ... .. . ... ... ... ... : ... .. . ... ... ... ... : ... .. . ... : ... .. . ... : ... .. . ...
ROW 13 : ... .. . ... ... ... ... : ... .. . ... ... ... ... : ... .. . ... : ... .. . ... : ... .. . ...
ROW 14 : ... .. 2 ... ... ... ... : F-3 .. 2 ... ... ... ... : ... .. . ... : ... .. . ... : ... .. . ...
ROW 15 : ... .. . ... ... ... ... : ... .. 1 ... ... ... ... : ... .. . ... : ... .. . ... : ... .. . ...
ROW 16 : D-5 00 1 ... ... ... ... : ... .. . ... ... ... ... : ... .. . ... : ... .. . ... : ... .. . ...
ROW 17 : ... .. . ... ... ... ... : ... .. . ... ... ... ... : ... .. . ... : ... .. . ... : ... .. . ...
ROW 18 : C#5 00 2 ... ... ... ... : G-2 00 5 ... ... ... ... : ... .. . ... : F-# 00 4 ... : ... .. . ...
ROW 19 : D-5 00 3 ... ... ... ... : ... .. . ... ... ... ... : ... .. . ... : ... .. . ... : ... .. . ...
ROW 1A : ... .. 4 ... ... ... ... : ... .. 4 ... ... ... ... : ... .. . ... : ... .. . ... : ... .. . ...
ROW 1B : ... .. 5 ... ... ... ... : ... .. . ... ... ... ... : ... .. . ... : ... .. 3 ... : ... .. . ...
ROW 1C : ... .. . ... ... ... ... : ... .. 3 ... ... ... ... : ... .. . ... : ... .. . ... : ... .. . ...
ROW 1D : ... .. . ... ... ... ... : ... .. . ... ... ... ... : ... .. . ... : ... .. . ... : ... .. . ...
ROW 1E : ... .. . ... ... ... ... : ... .. . ... ... ... ... : ... .. . ... : ... .. 2 ... : ... .. . ...
ROW 1F : ... .. . ... ... ... ... : ... .. . ... ... ... ... : ... .. . ... : ... .. . ... : ... .. . ...
ROW 20 : ... .. 2 ... ... ... ... : D-2 .. 2 ... ... ... ... : ... .. . ... : ... .. . ... : ... .. . ...
ROW 21 : ... .. . ... ... ... ... : ... .. 1 ... ... ... ... : ... .. . ... : ... .. 1 ... : ... .. . ...
ROW 22 : E-5 00 1 ... ... ... ... : ... .. . ... ... ... ... : ... .. . ... : ... .. . ... : ... .. . ...
ROW 23 : ... .. . ... ... ... ... : ... .. . ... ... ... ... : ... .. . ... : ... .. . ... : ... .. . ...
ROW 24 : B-4 00 2 ... ... ... ... : C-3 00 5 ... ... ... ... : ... .. . ... : ... .. . ... : ... .. . ...
ROW 25 : C-5 00 3 ... ... ... ... : ... .. . ... ... ... ... : ... .. . ... : ... .. . ... : ... .. . ...
ROW 26 : ... .. 4 ... ... ... ... : ... .. 4 ... ... ... ... : ... .. . ... : ... .. . ... : ... .. . ...
ROW 27 : ... .. 5 ... ... ... ... : ... .. . ... ... ... ... : ... .. . ... : ... .. . ... : ... .. . ...
ROW 28 : ... .. . ... ... ... ... : ... .. 3 ... ... ... ... : ... .. . ... : ... .. . ... : ... .. . ...
ROW 29 : ... .. . ... ... ... ... : ... .. . ... ... ... ... : ... .. . ... : ... .. . ... : ... .. . ...
ROW 2A : ... .. . ... ... ... ... : ... .. . ... ... ... ... : ... .. . ... : ... .. 0 ... : ... .. . ...
ROW 2B : ... .. . ... ... ... ... : ... .. . ... ... ... ... : ... .. . ... : ... .. . ... : ... .. . ...
ROW 2C : ... .. 2 ... ... ... ... : G-2 .. 2 ... ... ... ... : ... .. . ... : ... .. . ... : ... .. . ...
ROW 2D : ... .. . ... ... ... ... : ... .. 1 ... ... ... ... : ... .. . ... : ... .. . ... : ... .. . ...
ROW 2E : D-5 00 1 ... ... ... ... : ... .. . ... ... ... ... : ... .. . ... : ... .. . ... : ... .. . ...
ROW 2F : ... .. . ... ... ... ... : ... .. . ... ... ... ... : ... .. . ... : ... .. . ... : ... .. . ...
ROW 30 : G#4 00 2 ... ... ... ... : E-3 00 5 ... ... ... ... : ... .. . ... : 2-# 00 3 ... : ... .. . ...
ROW 31 : A-4 00 3 ... ... ... ... : ... .. . ... ... ... ... : ... .. . ... : ... .. . ... : ... .. . ...
ROW 32 : ... .. 4 ... ... ... ... : ... .. 4 ... ... ... ... : ... .. . ... : ... .. 2 ... : ... .. . ...
ROW 33 : ... .. 5 ... ... ... ... : ... .. . ... ... ... ... : ... .. . ... : ... .. . ... : ... .. . ...
ROW 34 : ... .. . ... ... ... ... : ... .. 3 ... ... ... ... : ... .. . ... : ... .. 1 ... : ... .. . ...
ROW 35 : ... .. . ... ... ... ... : ... .. . ... ... ... ... : ... .. . ... : ... .. . ... : ... .. . ...
ROW 36 : ... .. . ... ... ... ... : ... .. . ... ... ... ... : ... .. . ... : ... .. 0 ... : ... .. . ...
ROW 37 : ... .. . ... ... ... ... : ... .. . ... ... ... ... : ... .. . ... : ... .. . ... : ... .. . ...
ROW 38 : ... .. 2 ... ... ... ... : C-3 .. 2 ... ... ... ... : ... .. . ... : ... .. . ... : ... .. . ...
ROW 39 : ... .. . ... ... ... ... : ... .. 1 ... ... ... ... : ... .. . ... : ... .. . ... : ... .. . ...
ROW 3A : C-5 00 1 ... ... ... ... : ... .. . ... ... ... ... : ... .. . ... : ... .. . ... : ... .. . ...
ROW 3B : ... .. . ... ... ... ... : ... .. . ... ... ... ... : ... .. . ... : ... .. . ... : ... .. . ...
ROW 3C : F#4 00 2 ... ... ... ... : E-2 00 5 ... ... ... ... : ... .. . ... : F-# 00 6 ... : ... .. . ...
ROW 3D : G-4 00 3 ... ... ... ... : ... .. . ... ... ... ... : ... .. . ... : ... .. 4 ... : ... .. . ...
ROW 3E : ... .. 4 ... ... ... ... : ... .. 4 ... ... ... ... : ... .. . ... : ... .. 2 ... : ... .. . ...
ROW 3F : ... .. 5 ... ... ... ... : ... .. . ... ... ... ... : ... .. . ... : ... .. 1 ... : ... .. . ...
ROW 40 : ... .. . ... ... ... ... : ... .. 3 ... ... ... ... : ... .. . ... : ... .. 0 ... : ... .. . ...
ROW 41 : ... .. . ... ... ... ... : ... .. . ... ... ... ... : ... .. . ... : ... .. . ... : ... .. . ...
ROW 42 : ... .. . ... ... ... ... : ... .. . ... ... ... ... : ... .. . ... : ... .. . ... : ... .. . ...
ROW 43 : ... .. . ... ... ... ... : ... .. . ... ... ... ... : ... .. . ... : ... .. . ... : ... .. . ...
ROW 44 : ... .. 2 ... ... ... ... : E-3 .. 2 ... ... ... ... : ... .. . ... : ... .. . ... : ... .. . ...
ROW 45 : ... .. . ... ... ... ... : ... .. 1 ... ... ... ... : ... .. . ... : ... .. . ... : ... .. . ...
ROW 46 : A-4 00 1 ... ... ... ... : ... .. . ... ... ... ... : ... .. . ... : ... .. . ... : ... .. . ...
ROW 47 : ... .. . ... ... ... ... : ... .. . ... ... ... ... : ... .. . ... : ... .. . ... : ... .. . ...
ROW 48 : D#4 00 2 ... ... ... ... : G-2 00 5 ... ... ... ... : ... .. . ... : F-# 00 4 ... : ... .. . ...
ROW 49 : E-4 00 3 ... ... ... ... : ... .. . ... ... ... ... : ... .. . ... : ... .. . ... : ... .. . ...
ROW 4A : ... .. 4 ... ... ... ... : ... .. 4 ... ... ... ... : ... .. . ... : ... .. . ... : ... .. . ...
ROW 4B : ... .. 5 ... ... ... ... : ... .. . ... ... ... ... : ... .. . ... : ... .. 3 ... : ... .. . ...
ROW 4C : ... .. . ... ... ... ... : ... .. 3 ... ... ... ... : ... .. . ... : ... .. . ... : ... .. . ...
ROW 4D : ... .. . ... ... ... ... : ... .. . ... ... ... ... : ... .. . ... : ... .. . ... : ... .. . ...
ROW 4E : ... .. . ... ... ... ... : ... .. . ... ... ... ... : ... .. . ... : ... .. 2 ... : ... .. . ...
ROW 4F : ... .. . ... ... ... ... : ... .. . ... ... ... ... : ... .. . ... : ... .. . ... : ... .. . ...
ROW 50 : ... .. 2 ... ... ... ... : E-2 .. 2 ... ... ... ... : ... .. . ... : ... .. . ... : ... .. . ...
ROW 51 : ... .. . ... ... ... ... : ... .. 1 ... ... ... ... : ... .. . ... : ... .. 1 ... : ... .. . ...
ROW 52 : G-4 00 1 ... ... ... ... : ... .. . ... ... ... ... : --- .. . ... : ... .. . ... : ... .. . ...
ROW 53 : ... .. . ... ... ... ... : ... .. . ... ... ... ... : ... .. . ... : ... .. . ... : ... .. . ...
ROW 54 : B-3 00 2 ... ... ... ... : C-3 00 5 ... ... ... ... : G-2 00 . ... : ... .. . ... : ... .. . ...
ROW 55 : C-4 00 3 ... ... ... ... : ... .. . ... ... ... ... : ... .. . ... : ... .. . ... : ... .. . ...
ROW 56 : ... .. 4 ... ... ... ... : ... .. 4 ... ... ... ... : ... .. . ... : ... .. . ... : ... .. . ...
ROW 57 : ... .. 5 ... ... ... ... : ... .. . ... ... ... ... : ... .. . ... : ... .. . ... : ... .. . ...
ROW 58 : ... .. . ... ... ... ... : ... .. 3 ... ... ... ... : ... .. . ... : ... .. . ... : ... .. . ...
ROW 59 : ... .. . ... ... ... ... : ... .. . ... ... ... ... : --- .. . ... : ... .. . ... : ... .. . ...
ROW 5A : ... .. . ... ... ... ... : ... .. . ... ... ... ... : G-2 00 . ... : ... .. 0 ... : ... .. . ...
ROW 5B : ... .. . ... ... ... ... : ... .. . ... ... ... ... : ... .. . ... : ... .. . ... : ... .. . ...
ROW 5C : ... .. 2 ... ... ... ... : G-2 .. 2 ... ... ... ... : ... .. . ... : ... .. . ... : ... .. . ...
ROW 5D : ... .. . ... ... ... ... : ... .. 1 ... ... ... ... : ... .. . ... : ... .. . ... : ... .. . ...
ROW 5E : E-4 00 1 ... ... ... ... : ... .. . ... ... ... ... : ... .. . ... : ... .. . ... : ... .. . ...
ROW 5F : ... .. . ... ... ... ... : ... .. . ... ... ... ... : --- .. . ... : ... .. . ... : ... .. . ...
ROW 60 : C#4 00 2 V02 ... ... ... : F-2 00 5 ... ... ... ... : D-3 00 . ... : 2-# 00 3 ... : ... .. . ...
ROW 61 : D-4 00 3 ... ... ... ... : ... .. . ... ... ... ... : C-3 00 . ... : ... .. . ... : ... .. . ...
ROW 62 : ... .. 4 ... ... ... ... : ... .. 4 ... ... ... ... : G-2 00 . ... : ... .. 2 ... : ... .. . ...
ROW 63 : ... .. 5 ... ... ... ... : ... .. . ... ... ... ... : ... .. . ... : ... .. . ... : ... .. . ...
ROW 64 : ... .. . ... ... ... ... : ... .. 3 ... ... ... ... : ... .. . ... : ... .. 1 ... : ... .. . ...
ROW 65 : ... .. . ... ... ... ... : ... .. . ... ... ... ... : ... .. . ... : ... .. . ... : ... .. . ...
ROW 66 : ... .. . ... ... ... ... : ... .. . ... ... ... ... : ... .. . ... : ... .. 0 ... : ... .. . ...
ROW 67 : ... .. . ... ... ... ... : ... .. . ... ... ... ... : ... .. . ... : ... .. . ... : ... .. . ...
ROW 68 : ... .. 2 ... ... ... ... : C-3 .. 2 ... ... ... ... : ... .. . ... : ... .. . ... : ... .. . ...
ROW 69 : ... .. . ... ... ... ... : ... .. 1 ... ... ... ... : ... .. . ... : ... .. . ... : ... .. . ...
ROW 6A : C-4 00 1 ... ... ... ... : ... .. . ... ... ... ... : ... .. . ... : ... .. . ... : ... .. . ...
ROW 6B : ... .. . ... ... ... ... : ... .. . ... ... ... ... : ... .. . ... : ... .. . ... : ... .. . ...
ROW 6C : D#4 00 2 ... ... ... ... : A-2 00 5 ... ... ... ... : ... .. . ... : F-# 00 6 ... : ... .. . ...
ROW 6D : E-4 00 3 ... ... ... ... : ... .. . ... ... ... ... : ... .. . ... : ... .. 4 ... : ... .. . ...
ROW 6E : ... .. 4 ... ... ... ... : ... .. 4 ... ... ... ... : ... .. . ... : ... .. 2 ... : ... .. . ...
ROW 6F : ... .. 5 ... ... ... ... : ... .. . ... ... ... ... : ... .. . ... : ... .. 1 ... : ... .. . ...
ROW 70 : ... .. . ... ... ... ... : ... .. 3 ... ... ... ... : ... .. . ... : ... .. 0 ... : ... .. . ...
ROW 71 : ... .. . ... ... ... ... : ... .. . ... ... ... ... : ... .. . ... : ... .. . ... : ... .. . ...
ROW 72 : ... .. . ... ... ... ... : ... .. . ... ... ... ... : ... .. . ... : ... .. . ... : ... .. . ...
ROW 73 : ... .. . ... ... ... ... : ... .. . ... ... ... ... : ... .. . ... : ... .. . ... : ... .. . ...
ROW 74 : ... .. 2 ... ... ... ... : F-2 .. 2 ... ... ... ... : ... .. . ... : ... .. . ... : ... .. . ...
ROW 75 : ... .. . ... ... ... ... : ... .. 1 ... ... ... ... : ... .. . ... : ... .. . ... : ... .. . ...
ROW 76 : D-4 00 1 ... ... ... ... : ... .. . ... ... ... ... : ... .. . ... : ... .. . ... : ... .. . ...
ROW 77 : ... .. . ... ... ... ... : ... .. . ... ... ... ... : ... .. . ... : ... .. . ... : ... .. . ...
ROW 78 : C#4 00 2 ... ... ... ... : C-3 00 5 ... ... ... ... : ... .. . ... : F-# 00 4 ... : ... .. . ...
ROW 79 : D-4 00 3 ... ... ... ... : ... .. . ... ... ... ... : ... .. . ... : ... .. . ... : ... .. . ...
ROW 7A : ... .. 4 ... ... ... ... : ... .. 4 ... ... ... ... : ... .. . ... : ... .. . ... : ... .. . ...
ROW 7B : ... .. 5 ... ... ... ... : ... .. . ... ... ... ... : ... .. . ... : ... .. 3 ... : ... .. . ...
ROW 7C : ... .. . ... ... ... ... : ... .. 3 ... ... ... ... : ... .. . ... : ... .. . ... : ... .. . ...
ROW 7D : ... .. . ... ... ... ... : ... .. . ... ... ... ... : ... .. . ... : ... .. . ... : ... .. . ...
ROW 7E : ... .. . ... ... ... ... : ... .. . ... ... ... ... : ... .. . ... : ... .. 2 ... : ... .. . ...
ROW 7F : ... .. . ... ... ... ... : ... .. . ... ... ... ... : ... .. . ... : ... .. . ... : ... .. . ...
ROW 80 : ... .. 2 ... ... ... ... : A-2 .. 2 ... ... ... ... : ... .. . ... : ... .. . ... : ... .. . ...
ROW 81 : ... .. . ... ... ... ... : ... .. 1 ... ... ... ... : ... .. . ... : ... .. 1 ... : ... .. . ...
ROW 82 : E-4 00 1 ... ... ... ... : ... .. . ... ... ... ... : ... .. . ... : ... .. . ... : ... .. . ...
ROW 83 : ... .. . ... ... ... ... : ... .. . ... ... ... ... : ... .. . ... : ... .. . ... : ... .. . ...
ROW 84 : B-3 00 2 ... ... ... ... : F-3 00 5 ... ... ... ... : ... .. . ... : ... .. . ... : ... .. . ...
ROW 85 : C-4 00 3 ... ... ... ... : ... .. . ... ... ... ... : ... .. . ... : ... .. . ... : ... .. . ...
ROW 86 : ... .. 4 ... ... ... ... : ... .. 4 ... ... ... ... : ... .. . ... : ... .. . ... : ... .. . ...
ROW 87 : ... .. 5 ... ... ... ... : ... .. . ... ... ... ... : ... .. . ... : ... .. . ... : ... .. . ...
ROW 88 : ... .. . ... ... ... ... : ... .. 3 ... ... ... ... : ... .. . ... : ... .. . ... : ... .. . ...
ROW 89 : ... .. . ... ... ... ... : ... .. . ... ... ... ... : ... .. . ... : ... .. . ... : ... .. . ...
ROW 8A : ... .. . ... ... ... ... : ... .. . ... ... ... ... : ... .. . ... : ... .. 0 ... : ... .. . ...
ROW 8B : ... .. . ... ... ... ... : ... .. . ... ... ... ... : ... .. . ... : ... .. . ... : ... .. . ...
ROW 8C : ... .. 2 ... ... ... ... : C-3 .. 2 ... ... ... ... : ... .. . ... : ... .. . ... : ... .. . ...
ROW 8D : ... .. . ... ... ... ... : ... .. 1 ... ... ... ... : ... .. . ... : ... .. . ... : ... .. . ...
ROW 8E : D-4 00 1 ... ... ... ... : ... .. . ... ... ... ... : ... .. . ... : ... .. . ... : ... .. . ...
ROW 8F : ... .. . ... ... ... ... : ... .. . ... ... ... ... : --- .. . ... : ... .. . ... : ... .. . ...
ROW 90 : G#3 00 2 ... ... ... ... : G-3 00 5 ... ... ... ... : D-3 00 . ... : B-# 00 1 ... : ... .. . ...
ROW 91 : A-3 00 3 ... ... ... ... : ... .. . ... ... ... ... : C-3 00 . ... : ... .. . ... : ... .. . ...
ROW 92 : ... .. 4 ... ... ... ... : ... .. 4 ... ... ... ... : G-2 00 . ... : ... .. . ... : ... .. . ...
ROW 93 : ... .. 5 ... ... ... ... : ... .. . ... ... ... ... : ... .. . ... : A-# 00 . ... : ... .. . ...
ROW 94 : ... .. . ... ... ... ... : ... .. 3 ... ... ... ... : ... .. . ... : ... .. . ... : ... .. . ...
ROW 95 : ... .. . ... ... ... ... : ... .. . ... ... ... ... : ... .. . ... : ... .. . ... : ... .. . ...
ROW 96 : ... .. . ... ... ... ... : ... .. 2 ... ... ... ... : ... .. . ... : 9-# 00 . ... : ... .. . ...
ROW 97 : ... .. . ... ... ... ... : ... .. . ... ... ... ... : ... .. . ... : ... .. . ... : ... .. . ...
ROW 98 : ... .. 2 ... ... ... ... : ... .. 1 ... ... ... ... : ... .. . ... : ... .. . ... : ... .. . ...
ROW 99 : ... .. . ... ... ... ... : ... .. . ... ... ... ... : ... .. . ... : 8-# 00 . ... : ... .. . ...
ROW 9A : C-4 00 1 ... ... ... ... : ... .. . ... ... ... ... : ... .. . ... : ... .. . ... : ... .. . ...
ROW 9B : ... .. . ... ... ... ... : ... .. . ... ... ... ... : ... .. . ... : ... .. . ... : ... .. . ...
ROW 9C : F#3 00 1 ... ... ... ... : ... .. . ... ... ... ... : ... .. . ... : 7-# 00 . ... : ... .. . ...
ROW 9D : G-3 00 2 ... ... ... ... : ... .. . ... ... ... ... : --- .. . ... : ... .. . ... : ... .. . ...
ROW 9E : ... .. 3 ... ... ... ... : ... .. . ... ... ... ... : ... .. . ... : ... .. . ... : ... .. . ...
ROW 9F : ... .. 4 ... ... ... ... : ... .. . ... ... ... ... : ... .. . ... : 6-# 00 . ... : ... .. . ...
ROW A0 : ... .. . ... ... ... ... : ... .. . ... ... ... ... : ... .. . ... : ... .. . ... : ... .. . ...
ROW A1 : ... .. . ... ... ... ... : ... .. . ... ... ... ... : ... .. . ... : ... .. . ... : ... .. . ...
ROW A2 : ... .. . ... ... ... ... : ... .. . ... ... ... ... : ... .. . ... : 5-# 00 . ... : ... .. . ...
ROW A3 : ... .. . ... ... ... ... : ... .. . ... ... ... ... : ... .. . ... : ... .. . ... : ... .. . ...
ROW A4 : ... .. 2 ... ... ... ... : ... .. . ... ... ... ... : ... .. . ... : ... .. . ... : ... .. . ...
ROW A5 : ... .. . ... ... ... ... : ... .. . ... ... ... ... : ... .. . ... : 4-# 00 . ... : ... .. . ...
ROW A6 : A-3 00 1 ... ... ... ... : ... .. . ... ... ... ... : ... .. . ... : ... .. . ... : ... .. . ...
ROW A7 : ... .. . ... ... ... ... : ... .. . ... ... ... ... : ... .. . ... : ... .. . ... : ... .. . ...
ROW A8 : D#3 00 1 ... ... ... ... : ... .. . ... ... ... ... : ... .. . ... : 3-# 00 . ... : ... .. . ...
ROW A9 : E-3 00 . ... ... ... ... : G-3 00 1 V01 ... ... ... : ... .. . ... : ... .. . ... : ... .. . ...
ROW AA : ... .. 2 ... ... ... ... : ... .. 2 ... ... ... ... : ... .. . ... : ... .. . ... : ... .. . ...
ROW AB : ... .. 3 ... ... ... ... : ... .. 3 ... ... ... ... : ... .. . ... : 2-# 00 . ... : ... .. . ...
ROW AC : ... .. . ... ... ... ... : ... .. 4 ... ... ... ... : ... .. . ... : ... .. . ... : ... .. . ...
ROW AD : ... .. . ... ... ... ... : ... .. . ... ... ... ... : ... .. . ... : ... .. . ... : ... .. . ...
ROW AE : ... .. . ... ... ... ... : ... .. . ... ... ... ... : ... .. . ... : 1-# 00 . ... : ... .. . ...
ROW AF : ... .. . ... ... ... ... : ... .. . ... ... ... ... : ... .. . ... : ... .. . ... : ... .. . ...
ROW B0 : ... .. . ... ... ... ... : ... .. . ... ... ... ... : ... .. . ... : ... .. . ... : ... .. . ...
ROW B1 : ... .. . ... ... ... ... : ... .. . ... ... ... ... : ... .. . ... : 0-# 00 . ... : ... .. . ...
ROW B2 : G-3 00 1 ... ... ... ... : ... .. . ... ... ... ... : ... .. . ... : ... .. . ... : ... .. . ...
ROW B3 : ... .. . ... ... ... ... : ... .. 1 ... ... ... ... : ... .. . ... : ... .. . ... : ... .. . ...
ROW B4 : B-2 00 1 ... ... ... ... : ... .. . ... ... ... ... : ... .. . ... : ... .. . ... : ... .. . ...
ROW B5 : C-3 00 2 ... ... ... ... : C-4 00 1 ... ... ... ... : ... .. . ... : ... .. . ... : ... .. . ...
ROW B6 : ... .. . ... ... ... ... : ... .. 2 ... ... ... ... : ... .. . ... : ... .. . ... : ... .. . ...
ROW B7 : ... .. . ... ... ... ... : ... .. 3 ... ... ... ... : ... .. . ... : ... .. . ... : ... .. . ...
ROW B8 : ... .. . ... ... ... ... : ... .. 4 ... ... ... ... : ... .. . ... : ... .. . ... : ... .. . ...
ROW B9 : ... .. . ... ... ... ... : ... .. . ... ... ... ... : ... .. . ... : ... .. . ... : ... .. . ...
ROW BA : ... .. . ... ... ... ... : ... .. . ... ... ... ... : ... .. . ... : ... .. . ... : ... .. . ...
ROW BB : ... .. . ... ... ... ... : ... .. . ... ... ... ... : ... .. . ... : ... .. . ... : ... .. . ...
ROW BC : ... .. . ... ... ... ... : ... .. . ... ... ... ... : ... .. . ... : ... .. . ... : ... .. . ...
ROW BD : ... .. . ... ... ... ... : ... .. . ... ... ... ... : ... .. . ... : ... .. . ... : ... .. . ...
ROW BE : E-3 00 1 ... ... ... ... : ... .. . ... ... ... ... : ... .. . ... : ... .. . ... : ... .. . ...
ROW BF : ... .. . ... ... ... ... : ... .. 1 ... ... ... ... : ... .. . ... : ... .. . D00 : ... .. . ...
ROW C0 : ... .. . ... ... ... ... : ... .. . ... ... ... ... : ... .. . ... : ... .. . ... : ... .. . ...
ROW C1 : ... .. . ... ... ... ... : ... .. . ... ... ... ... : ... .. . ... : ... .. . ... : ... .. . ...
ROW C2 : ... .. . ... ... ... ... : ... .. . ... ... ... ... : ... .. . ... : ... .. . ... : ... .. . ...
ROW C3 : ... .. . ... ... ... ... : ... .. . ... ... ... ... : ... .. . ... : ... .. . ... : ... .. . ...
ROW C4 : ... .. . ... ... ... ... : ... .. . ... ... ... ... : ... .. . ... : ... .. . ... : ... .. . ...
ROW C5 : ... .. . ... ... ... ... : ... .. . ... ... ... ... : ... .. . ... : ... .. . ... : ... .. . ...
ROW C6 : ... .. . ... ... ... ... : ... .. . ... ... ... ... : ... .. . ... : ... .. . ... : ... .. . ...
ROW C7 : ... .. . ... ... ... ... : ... .. . ... ... ... ... : ... .. . ... : ... .. . ... : ... .. . ...
ROW C8 : ... .. . ... ... ... ... : ... .. . ... ... ... ... : ... .. . ... : ... .. . ... : ... .. . ...
ROW C9 : ... .. . ... ... ... ... : ... .. . ... ... ... ... : ... .. . ... : ... .. . ... : ... .. . ...
ROW CA : ... .. . ... ... ... ... : ... .. . ... ... ... ... : ... .. . ... : ... .. . ... : ... .. . ...
ROW CB : ... .. . ... ... ... ... : ... .. . ... ... ... ... : ... .. . ... : ... .. . ... : ... .. . ...
ROW CC : ... .. . ... ... ... ... : ... .. . ... ... ... ... : ... .. . ... : ... .. . ... : ... .. . ...
ROW CD : ... .. . ... ... ... ... : ... .. . ... ... ... ... : ... .. . ... : ... .. . ... : ... .. . ...
ROW CE : ... .. . ... ... ... ... : ... .. . ... ... ... ... : ... .. . ... : ... .. . ... : ... .. . ...
ROW CF : ... .. . ... ... ... ... : ... .. . ... ... ... ... : ... .. . ... : ... .. . ... : ... .. . ...
ROW D0 : ... .. . ... ... ... ... : ... .. . ... ... ... ... : ... .. . ... : ... .. . ... : ... .. . ...
ROW D1 : ... .. . ... ... ... ... : ... .. . ... ... ... ... : ... .. . ... : ... .. . ... : ... .. . ...
ROW D2 : ... .. . ... ... ... ... : ... .. . ... ... ... ... : ... .. . ... : ... .. . ... : ... .. . ...
ROW D3 : ... .. . ... ... ... ... : ... .. . ... ... ... ... : ... .. . ... : ... .. . ... : ... .. . ...
ROW D4 : ... .. . ... ... ... ... : ... .. . ... ... ... ... : ... .. . ... : ... .. . ... : ... .. . ...
ROW D5 : ... .. . ... ... ... ... : ... .. . ... ... ... ... : ... .. . ... : ... .. . ... : ... .. . ...
ROW D6 : ... .. . ... ... ... ... : ... .. . ... ... ... ... : ... .. . ... : ... .. . ... : ... .. . ...
ROW D7 : ... .. . ... ... ... ... : ... .. . ... ... ... ... : ... .. . ... : ... .. . ... : ... .. . ...
ROW D8 : ... .. . ... ... ... ... : ... .. . ... ... ... ... : ... .. . ... : ... .. . ... : ... .. . ...
ROW D9 : ... .. . ... ... ... ... : ... .. . ... ... ... ... : ... .. . ... : ... .. . ... : ... .. . ...
ROW DA : ... .. . ... ... ... ... : ... .. . ... ... ... ... : ... .. . ... : ... .. . ... : ... .. . ...
ROW DB : ... .. . ... ... ... ... : ... .. . ... ... ... ... : ... .. . ... : ... .. . ... : ... .. . ...
ROW DC : ... .. . ... ... ... ... : ... .. . ... ... ... ... : ... .. . ... : ... .. . ... : ... .. . ...
ROW DD : ... .. . ... ... ... ... : ... .. . ... ... ... ... : ... .. . ... : ... .. . ... : ... .. . ...
ROW DE : ... .. . ... ... ... ... : ... .. . ... ... ... ... : ... .. . ... : ... .. . ... : ... .. . ...
ROW DF : ... .. . ... ... ... ... : ... .. . ... ... ... ... : ... .. . ... : ... .. . ... : ... .. . ...

PATTERN 44
ROW 00 : D-4 00 1 V01 ... ... ... : C-4 00 1 V01 ... ... P81 : D-3 00 . ... : F-# 00 2 ... : ... .. . ...
ROW 01 : ... .. 2 ... ... ... ... : ... .. . ... ... ... ... : C-3 00 . ... : ... .. 1 ... : ... .. . ...
ROW 02 : ... .. 3 ... ... ... ... : ... .. . ... ... ... ... : G-1 00 . ... : ... .. 0 ... : ... .. . ...
ROW 03 : ... .. 4 ... ... ... ... : ... .. . ... ... ... ... : ... .. . ... : ... .. . ... : ... .. . ...
ROW 04 : ... .. 5 ... ... ... ... : ... .. . ... ... ... ... : ... .. . ... : ... .. . ... : ... .. . ...
ROW 05 : ... .. . ... ... ... ... : ... .. . ... ... ... ... : ... .. . ... : ... .. . ... : ... .. . ...
ROW 06 : ... .. . ... ... ... ... : ... .. . ... ... ... ... : ... .. . ... : ... .. . ... : ... .. . ...
ROW 07 : ... .. . ... ... ... ... : ... .. . ... ... ... ... : ... .. . ... : ... .. . ... : ... .. . ...
ROW 08 : ... .. . ... ... ... ... : ... .. . ... ... ... ... : ... .. . ... : ... .. . ... : ... .. . ...
ROW 09 : ... .. . ... ... ... ... : ... .. . ... ... ... ... : ... .. . ... : ... .. . ... : ... .. . ...
ROW 0A : ... .. . ... ... ... ... : ... .. . ... ... ... ... : --- .. . ... : ... .. . ... : ... .. . ...
ROW 0B : ... .. . ... ... ... ... : ... .. . ... ... ... ... : ... .. . ... : ... .. . ... : ... .. . ...
ROW 0C : ... .. . ... ... ... ... : D-4 00 . V01 ... ... P81 : D-3 00 . ... : ... .. . ... : ... .. . ...
ROW 0D : ... .. . ... ... ... ... : ... .. . ... ... ... ... : C-3 00 . ... : ... .. . ... : ... .. . ...
ROW 0E : ... .. . ... ... ... ... : ... .. . ... ... ... ... : G-1 00 . ... : ... .. . ... : ... .. . ...
ROW 0F : ... .. . ... ... ... ... : ... .. . ... ... ... ... : ... .. . ... : ... .. . ... : ... .. . ...
ROW 10 : ... .. . ... ... ... ... : ... .. . ... ... ... ... : ... .. . ... : ... .. . ... : ... .. . ...
ROW 11 : ... .. . ... ... ... ... : ... .. . ... ... ... ... : ... .. . ... : ... .. . ... : ... .. . ...
ROW 12 : ... .. . ... ... ... ... : ... .. . ... ... ... ... : ... .. . ... : ... .. . ... : ... .. . ...
ROW 13 : ... .. . ... ... ... ... : ... .. . ... ... ... ... : ... .. . ... : ... .. . ... : ... .. . ...
ROW 14 : ... .. . ... ... ... ... : ... .. . ... ... ... ... : ... .. . ... : ... .. . ... : ... .. . ...
ROW 15 : ... .. . ... ... ... ... : ... .. . ... ... ... ... : ... .. . ... : ... .. . ... : ... .. . ...
ROW 16 : ... .. . ... ... ... ... : ... .. . ... ... ... ... : --- .. . ... : ... .. . ... : ... .. . ...
ROW 17 : ... .. . ... ... ... ... : ... .. . ... ... ... ... : ... .. . ... : ... .. . ... : ... .. . ...
ROW 18 : ... .. . ... ... ... ... : ... .. . ... ... ... ... : ... .. . ... : B-# 00 1 ... : ... .. . ...
ROW 19 : ... .. . ... ... ... ... : ... .. . ... ... ... ... : ... .. . ... : ... .. 0 ... : ... .. . ...
ROW 1A : ... .. . ... ... ... ... : ... .. . ... ... ... ... : ... .. . ... : ... .. . ... : ... .. . ...
ROW 1B : ... .. . ... ... ... ... : ... .. . ... ... ... ... : ... .. . ... : ... .. . ... : ... .. . ...
ROW 1C : ... .. . ... ... ... ... : ... .. . ... ... ... ... : ... .. . ... : ... .. . ... : ... .. . ...
ROW 1D : ... .. . ... ... ... ... : ... .. . ... ... ... ... : ... .. . ... : ... .. . ... : ... .. . ...
ROW 1E : ... .. . ... ... ... ... : ... .. . ... ... ... ... : ... .. . ... : ... .. . ... : ... .. . ...
ROW 1F : ... .. . ... ... ... ... : ... .. . ... ... ... ... : ... .. . ... : ... .. . ... : ... .. . ...
ROW 20 : ... .. . ... ... ... ... : ... .. . ... ... ... ... : ... .. . ... : ... .. . ... : ... .. . ...
ROW 21 : ... .. . ... ... ... ... : ... .. . ... ... ... ... : ... .. . ... : ... .. . ... : ... .. . ...
ROW 22 : ... .. . ... ... ... ... : ... .. . ... ... ... ... : ... .. . ... : ... .. . ... : ... .. . ...
ROW 23 : ... .. . ... ... ... ... : ... .. . ... ... ... ... : ... .. . ... : ... .. . ... : ... .. . ...
ROW 24 : ... .. . ... ... ... ... : ... .. . ... ... ... ... : ... .. . ... : F-# 00 1 ... : ... .. . ...
ROW 25 : ... .. . ... ... ... ... : ... .. . ... ... ... ... : ... .. . ... : ... .. 0 ... : ... .. . ...
ROW 26 : ... .. . ... ... ... ... : ... .. . ... ... ... ... : ... .. . ... : ... .. . ... : ... .. . ...
ROW 27 : ... .. . ... ... ... ... : ... .. . ... ... ... ... : ... .. . ... : ... .. . ... : ... .. . ...
ROW 28 : ... .. . ... ... ... ... : ... .. . ... ... ... ... : ... .. . ... : ... .. . ... : ... .. . ...
ROW 29 : ... .. . ... ... ... ... : ... .. . ... ... ... ... : ... .. . ... : ... .. . ... : ... .. . ...
ROW 2A : ... .. . ... ... ... ... : ... .. . ... ... ... ... : ... .. . ... : ... .. . ... : ... .. . ...
ROW 2B : ... .. . ... ... ... ... : ... .. . ... ... ... ... : ... .. . ... : ... .. . ... : ... .. . ...
ROW 2C : ... .. . ... ... ... ... : ... .. . ... ... ... ... : ... .. . ... : ... .. . ... : ... .. . ...
ROW 2D : ... .. . ... ... ... ... : ... .. . ... ... ... ... : ... .. . ... : ... .. . ... : ... .. . ...
ROW 2E : ... .. . ... ... ... ... : ... .. . ... ... ... ... : ... .. . ... : ... .. . ... : ... .. . ...
ROW 2F : ... .. . ... ... ... ... : ... .. . ... ... ... ... : ... .. . ... : ... .. . ... : ... .. . ...
ROW 30 : ... .. . ... ... ... ... : ... .. . ... ... ... ... : ... .. . ... : B-# 00 1 ... : ... .. . ...
ROW 31 : ... .. . ... ... ... ... : ... .. . ... ... ... ... : ... .. . ... : ... .. 0 ... : ... .. . ...
ROW 32 : ... .. . ... ... ... ... : ... .. . ... ... ... ... : ... .. . ... : ... .. . ... : ... .. . ...
ROW 33 : ... .. . ... ... ... ... : ... .. . ... ... ... ... : ... .. . ... : ... .. . ... : ... .. . ...
ROW 34 : ... .. . ... ... ... ... : ... .. . ... ... ... ... : ... .. . ... : ... .. . ... : ... .. . ...
ROW 35 : ... .. . ... ... ... ... : ... .. . ... ... ... ... : ... .. . ... : ... .. . ... : ... .. . ...
ROW 36 : ... .. . ... ... ... ... : ... .. . ... ... ... ... : ... .. . ... : ... .. . ... : ... .. . ...
ROW 37 : ... .. . ... ... ... ... : ... .. . ... ... ... ... : ... .. . ... : ... .. . ... : ... .. . ...
ROW 38 : ... .. . ... ... ... ... : ... .. . ... ... ... ... : ... .. . ... : ... .. . ... : ... .. . ...
ROW 39 : ... .. . ... ... ... ... : ... .. . ... ... ... ... : ... .. . ... : ... .. . ... : ... .. . ...
ROW 3A : ... .. . ... ... ... ... : ... .. . ... ... ... ... : ... .. . ... : ... .. . ... : ... .. . ...
ROW 3B : ... .. . ... ... ... ... : ... .. . ... ... ... ... : ... .. . ... : ... .. . ... : ... .. . ...
ROW 3C : ... .. . ... ... ... ... : ... .. . ... ... ... ... : ... .. . ... : F-# 00 1 ... : ... .. . ...
ROW 3D : ... .. . ... ... ... ... : ... .. . ... ... ... ... : ... .. . ... : ... .. 0 ... : ... .. . ...
ROW 3E : ... .. . ... ... ... ... : ... .. . ... ... ... ... : ... .. . ... : ... .. . ... : ... .. . ...
ROW 3F : ... .. . ... ... ... ... : ... .. . ... ... ... ... : ... .. . ... : ... .. . ... : ... .. . ...
ROW 40 : ... .. 4 ... ... ... ... : ... .. . ... ... ... ... : ... .. . ... : ... .. . ... : ... .. . ...
ROW 41 : ... .. . ... ... ... ... : ... .. . ... ... ... ... : ... .. . ... : ... .. . ... : ... .. . ...
ROW 42 : ... .. 3 ... ... ... ... : ... .. . ... ... ... ... : ... .. . ... : ... .. . ... : ... .. . ...
ROW 43 : ... .. . ... ... ... ... : ... .. . ... ... ... ... : ... .. . ... : ... .. . ... : ... .. . ...
ROW 44 : ... .. 2 ... ... ... ... : ... .. . ... ... ... ... : ... .. . ... : ... .. . ... : ... .. . ...
ROW 45 : ... .. . ... ... ... ... : ... .. . ... ... ... ... : ... .. . ... : ... .. . ... : ... .. . ...
ROW 46 : ... .. 1 ... ... ... ... : ... .. . ... ... ... ... : ... .. . ... : ... .. . ... : ... .. . ...
ROW 47 : ... .. . ... ... ... ... : ... .. . ... ... ... ... : ... .. . ... : ... .. . ... : ... .. . ...
ROW 48 : G-3 00 1 ... ... ... ... : ... .. . ... ... ... ... : ... .. . ... : B-# 00 1 ... : ... .. . ...
ROW 49 : ... .. 2 ... ... ... ... : ... .. . ... ... ... ... : ... .. . ... : ... .. 0 ... : ... .. . ...
ROW 4A : ... .. 3 ... ... ... ... : ... .. . ... ... ... ... : ... .. . ... : ... .. . ... : ... .. . ...
ROW 4B : ... .. 4 ... ... ... ... : ... .. . ... ... ... ... : ... .. . ... : ... .. . ... : ... .. . ...
ROW 4C : ... .. 5 ... ... ... ... : ... .. . ... ... ... ... : ... .. . ... : ... .. . ... : ... .. . ...
ROW 4D : ... .. . ... ... ... ... : ... .. . ... ... ... ... : ... .. . ... : ... .. . ... : ... .. . ...
ROW 4E : ... .. . ... ... ... ... : ... .. . ... ... ... ... : ... .. . ... : ... .. . ... : ... .. . ...
ROW 4F : ... .. . ... ... ... ... : ... .. . ... ... ... ... : ... .. . ... : ... .. . ... : ... .. . ...
ROW 50 : ... .. . ... ... ... ... : ... .. . ... ... ... ... : ... .. . ... : ... .. . ... : ... .. . ...
ROW 51 : ... .. . ... ... ... ... : ... .. . ... ... ... ... : ... .. . ... : ... .. . ... : ... .. . ...
ROW 52 : ... .. 2 ... ... ... ... : ... .. . ... ... ... ... : ... .. . ... : ... .. . ... : ... .. . ...
ROW 53 : ... .. . ... ... ... ... : ... .. . ... ... ... ... : ... .. . ... : ... .. . ... : ... .. . ...
ROW 54 : D-4 00 1 ... ... ... ... : G-3 00 . ... ... ... ... : ... .. . ... : F-# 00 1 ... : ... .. . ...
ROW 55 : ... .. 2 ... ... ... ... : ... .. . ... ... ... ... : ... .. . ... : ... .. 0 ... : ... .. . ...
ROW 56 : ... .. 3 ... ... ... ... : ... .. . ... ... ... ... : ... .. . ... : ... .. . ... : ... .. . ...
ROW 57 : ... .. 4 ... ... ... ... : ... .. . ... ... ... ... : ... .. . ... : ... .. . ... : ... .. . ...
ROW 58 : ... .. 5 ... ... ... ... : ... .. . ... ... ... ... : ... .. . ... : ... .. . ... : ... .. . ...
ROW 59 : ... .. . ... ... ... ... : ... .. . ... ... ... ... : ... .. . ... : ... .. . ... : ... .. . ...
ROW 5A : ... .. . ... ... ... ... : ... .. . ... ... ... ... : ... .. . ... : ... .. . ... : ... .. . ...
ROW 5B : ... .. . ... ... ... ... : ... .. . ... ... ... ... : ... .. . ... : ... .. . ... : ... .. . ...
ROW 5C : ... .. . ... ... ... ... : ... .. . ... ... ... ... : ... .. . ... : ... .. . ... : ... .. . ...
ROW 5D : ... .. . ... ... ... ... : ... .. . ... ... ... ... : ... .. . ... : ... .. . ... : ... .. . ...
ROW 5E : ... .. 2 ... ... ... ... : ... .. . ... ... ... ... : ... .. . ... : ... .. . ... : ... .. . ...
ROW 5F : ... .. . ... ... ... ... : ... .. . ... ... ... ... : ... .. . ... : ... .. . ... : ... .. . ...
ROW 60 : F-4 00 1 ... ... ... ... : D-4 00 . ... ... ... ... : ... .. . ... : B-# 00 1 ... : ... .. . ...
ROW 61 : ... .. 2 ... ... ... ... : ... .. . ... ... ... ... : ... .. . ... : ... .. 0 ... : ... .. . ...
ROW 62 : ... .. 3 ... ... ... ... : ... .. . ... ... ... ... : ... .. . ... : ... .. . ... : ... .. . ...
ROW 63 : ... .. 4 ... ... ... ... : ... .. . ... ... ... ... : ... .. . ... : ... .. . ... : ... .. . ...
ROW 64 : ... .. 5 ... ... ... ... : ... .. . ... ... ... ... : ... .. . ... : ... .. . ... : ... .. . ...
ROW 65 : ... .. . ... ... ... ... : ... .. . ... ... ... ... : ... .. . ... : ... .. . ... : ... .. . ...
ROW 66 : ... .. . ... ... ... ... : ... .. . ... ... ... ... : ... .. . ... : ... .. . ... : ... .. . ...
ROW 67 : ... .. . ... ... ... ... : ... .. . ... ... ... ... : ... .. . ... : ... .. . ... : ... .. . ...
ROW 68 : ... .. . ... ... ... ... : ... .. . ... ... ... ... : ... .. . ... : ... .. . ... : ... .. . ...
ROW 69 : ... .. . ... ... ... ... : ... .. . ... ... ... ... : ... .. . ... : ... .. . ... : ... .. . ...
ROW 6A : ... .. . ... ... ... ... : ... .. . ... ... ... ... : ... .. . ... : ... .. . ... : ... .. . ...
ROW 6B : ... .. . ... ... ... ... : ... .. . ... ... ... ... : ... .. . ... : ... .. . ... : ... .. . ...
ROW 6C : ... .. . ... ... ... ... : F-4 00 . ... ... ... ... : ... .. . ... : F-# 00 1 ... : ... .. . ...
ROW 6D : ... .. . ... ... ... ... : ... .. . ... ... ... ... : ... .. . ... : ... .. 0 ... : ... .. . ...
ROW 6E : ... .. . ... ... ... ... : ... .. . ... ... ... ... : ... .. . ... : ... .. . ... : ... .. . ...
ROW 6F : ... .. . ... ... ... ... : ... .. . ... ... ... ... : ... .. . ... : ... .. . ... : ... .. . ...
ROW 70 : ... .. . ... ... ... ... : ... .. . ... ... ... ... : ... .. . ... : ... .. . ... : ... .. . ...
ROW 71 : ... .. . ... ... ... ... : ... .. . ... ... ... ... : ... .. . ... : ... .. . ... : ... .. . ...
ROW 72 : ... .. . ... ... ... ... : ... .. . ... ... ... ... : ... .. . ... : ... .. . ... : ... .. . ...
ROW 73 : ... .. . ... ... ... ... : ... .. . ... ... ... ... : ... .. . ... : ... .. . ... : ... .. . ...
ROW 74 : ... .. . ... ... ... ... : ... .. . ... ... ... ... : ... .. . ... : ... .. . ... : ... .. . ...
ROW 75 : ... .. 2 ... ... ... ... : ... .. . ... ... ... ... : ... .. . ... : ... .. . ... : ... .. . ...
ROW 76 : ... .. . ... ... ... ... : ... .. . ... ... ... ... : ... .. . ... : ... .. . ... : ... .. . ...
ROW 77 : ... .. . ... ... ... ... : ... .. . ... ... ... ... : ... .. . ... : ... .. . ... : ... .. . ...
ROW 78 : E-4 00 1 ... ... ... ... : ... .. . ... ... ... ... : ... .. . ... : B-# 00 1 ... : ... .. . ...
ROW 79 : ... .. 2 ... ... ... ... : ... .. . ... ... ... ... : ... .. . ... : ... .. 0 ... : ... .. . ...
ROW 7A : ... .. 3 ... ... ... ... : ... .. . ... ... ... ... : ... .. . ... : ... .. . ... : ... .. . ...
ROW 7B : ... .. 4 ... ... ... ... : ... .. . ... ... ... ... : ... .. . ... : ... .. . ... : ... .. . ...
ROW 7C : ... .. 5 ... ... ... ... : ... .. . ... ... ... ... : ... .. . ... : ... .. . ... : ... .. . ...
ROW 7D : ... .. . ... ... ... ... : ... .. . ... ... ... ... : ... .. . ... : ... .. . ... : ... .. . ...
ROW 7E : ... .. . ... ... ... ... : ... .. . ... ... ... ... : ... .. . ... : ... .. . ... : ... .. . ...
ROW 7F : ... .. . ... ... ... ... : ... .. . ... ... ... ... : ... .. . ... : ... .. . ... : ... .. . ...
ROW 80 : ... .. . ... ... ... ... : ... .. . ... ... ... ... : ... .. . ... : ... .. . ... : ... .. . ...
ROW 81 : ... .. . ... ... ... ... : ... .. . ... ... ... ... : ... .. . ... : ... .. . ... : ... .. . ...
ROW 82 : ... .. . ... ... ... ... : ... .. . ... ... ... ... : ... .. . ... : ... .. . ... : ... .. . ...
ROW 83 : ... .. . ... ... ... ... : ... .. . ... ... ... ... : ... .. . ... : ... .. . ... : ... .. . ...
ROW 84 : ... .. . ... ... ... ... : E-4 00 . ... ... ... ... : ... .. . ... : F-# 00 1 ... : ... .. . ...
ROW 85 : ... .. . ... ... ... ... : ... .. . ... ... ... ... : ... .. . ... : ... .. 0 ... : ... .. . ...
ROW 86 : ... .. . ... ... ... ... : ... .. . ... ... ... ... : ... .. . ... : ... .. . ... : ... .. . ...
ROW 87 : ... .. . ... ... ... ... : ... .. . ... ... ... ... : ... .. . ... : ... .. . ... : ... .. . ...
ROW 88 : ... .. . ... ... ... ... : ... .. . ... ... ... ... : ... .. . ... : ... .. . ... : ... .. . ...
ROW 89 : ... .. . ... ... ... ... : ... .. . ... ... ... ... : ... .. . ... : ... .. . ... : ... .. . ...
ROW 8A : ... .. . ... ... ... ... : ... .. . ... ... ... ... : ... .. . ... : ... .. . ... : ... .. . ...
ROW 8B : ... .. . ... ... ... ... : ... .. . ... ... ... ... : ... .. . ... : ... .. . ... : ... .. . ...
ROW 8C : ... .. . ... ... ... ... : ... .. . ... ... ... ... : ... .. . ... : ... .. . ... : ... .. . ...
ROW 8D : ... .. . ... ... ... ... : ... .. . ... ... ... ... : ... .. . ... : ... .. . ... : ... .. . ...
ROW 8E : ... .. 2 ... ... ... ... : ... .. . ... ... ... ... : ... .. . ... : ... .. . ... : ... .. . ...
ROW 8F : ... .. . ... ... ... ... : ... .. . ... ... ... ... : ... .. . ... : ... .. . ... : ... .. . ...
ROW 90 : D-4 00 1 ... ... ... ... : ... .. . ... ... ... ... : ... .. . ... : B-# 00 1 ... : ... .. . ...
ROW 91 : ... .. 2 ... ... ... ... : ... .. . ... ... ... ... : ... .. . ... : ... .. 0 ... : ... .. . ...
ROW 92 : ... .. 3 ... ... ... ... : ... .. . ... ... ... ... : ... .. . ... : ... .. . ... : ... .. . ...
ROW 93 : ... .. 4 ... ... ... ... : ... .. . ... ... ... ... : ... .. . ... : ... .. . ... : ... .. . ...
ROW 94 : ... .. 5 ... ... ... ... : ... .. . ... ... ... ... : ... .. . ... : ... .. . ... : ... .. . ...
ROW 95 : ... .. . ... ... ... ... : ... .. . ... ... ... ... : ... .. . ... : ... .. . ... : ... .. . ...
ROW 96 : ... .. . ... ... ... ... : ... .. . ... ... ... ... : ... .. . ... : ... .. . ... : ... .. . ...
ROW 97 : ... .. . ... ... ... ... : ... .. . ... ... ... ... : ... .. . ... : ... .. . ... : ... .. . ...
ROW 98 : ... .. . ... ... ... ... : ... .. . ... ... ... ... : ... .. . ... : ... .. . ... : ... .. . ...
ROW 99 : ... .. . ... ... ... ... : ... .. . ... ... ... ... : ... .. . ... : ... .. . ... : ... .. . ...
ROW 9A : ... .. . ... ... ... ... : ... .. . ... ... ... ... : ... .. . ... : ... .. . ... : ... .. . ...
ROW 9B : ... .. . ... ... ... ... : ... .. . ... ... ... ... : ... .. . ... : ... .. . ... : ... .. . ...
ROW 9C : ... .. . ... ... ... ... : D-4 00 . ... ... ... ... : ... .. . ... : F-# 00 1 ... : ... .. . ...
ROW 9D : ... .. . ... ... ... ... : ... .. . ... ... ... ... : ... .. . ... : ... .. 0 ... : ... .. . ...
ROW 9E : ... .. . ... ... ... ... : ... .. . ... ... ... ... : ... .. . ... : ... .. . ... : ... .. . ...
ROW 9F : ... .. . ... ... ... ... : ... .. . ... ... ... ... : ... .. . ... : ... .. . ... : ... .. . ...
ROW A0 : ... .. . ... ... ... ... : ... .. . ... ... ... ... : ... .. . ... : ... .. . ... : ... .. . ...
ROW A1 : ... .. . ... ... ... ... : ... .. . ... ... ... ... : ... .. . ... : ... .. . ... : ... .. . ...
ROW A2 : ... .. . ... ... ... ... : ... .. . ... ... ... ... : ... .. . ... : ... .. . ... : ... .. . ...
ROW A3 : ... .. . ... ... ... ... : ... .. . ... ... ... ... : ... .. . ... : ... .. . ... : ... .. . ...
ROW A4 : ... .. . ... ... ... ... : ... .. . ... ... ... ... : ... .. . ... : ... .. . ... : ... .. . ...
ROW A5 : ... .. . ... ... ... ... : ... .. . ... ... ... ... : ... .. . ... : ... .. . ... : ... .. . ...
ROW A6 : ... .. 2 ... ... ... ... : ... .. . ... ... ... ... : ... .. . ... : ... .. . ... : ... .. . ...
ROW A7 : ... .. . ... ... ... ... : ... .. . ... ... ... ... : ... .. . ... : ... .. . ... : ... .. . ...
ROW A8 : C-4 00 1 ... ... ... ... : ... .. . ... ... ... ... : ... .. . ... : B-# 00 1 ... : ... .. . ...
ROW A9 : ... .. 2 ... ... ... ... : ... .. . ... ... ... ... : ... .. . ... : ... .. 0 ... : ... .. . ...
ROW AA : ... .. 3 ... ... ... ... : ... .. . ... ... ... ... : ... .. . ... : ... .. . ... : ... .. . ...
ROW AB : ... .. 4 ... ... ... ... : ... .. . ... ... ... ... : ... .. . ... : ... .. . ... : ... .. . ...
ROW AC : ... .. 5 ... ... ... ... : ... .. . ... ... ... ... : ... .. . ... : ... .. . ... : ... .. . ...
ROW AD : ... .. . ... ... ... ... : ... .. . ... ... ... ... : ... .. . ... : ... .. . ... : ... .. . ...
ROW AE : ... .. . ... ... ... ... : ... .. . ... ... ... ... : ... .. . ... : ... .. . ... : ... .. . ...
ROW AF : ... .. . ... ... ... ... : ... .. . ... ... ... ... : ... .. . ... : ... .. . ... : ... .. . ...
ROW B0 : ... .. . ... ... ... ... : ... .. . ... ... ... ... : ... .. . ... : ... .. . ... : ... .. . ...
ROW B1 : ... .. . ... ... ... ... : ... .. . ... ... ... ... : ... .. . ... : ... .. . ... : ... .. . ...
ROW B2 : ... .. . ... ... ... ... : ... .. . ... ... ... ... : ... .. . ... : ... .. . ... : ... .. . ...
ROW B3 : ... .. . ... ... ... ... : ... .. . ... ... ... ... : ... .. . ... : ... .. . ... : ... .. . ...
ROW B4 : ... .. . ... ... ... ... : C-4 00 . ... ... ... ... : ... .. . ... : F-# 00 1 ... : ... .. . ...
ROW B5 : ... .. . ... ... ... ... : ... .. . ... ... ... ... : ... .. . ... : ... .. 0 ... : ... .. . ...
ROW B6 : ... .. . ... ... ... ... : ... .. . ... ... ... ... : ... .. . ... : ... .. . ... : ... .. . ...
ROW B7 : ... .. . ... ... ... ... : ... .. . ... ... ... ... : ... .. . ... : ... .. . ... : ... .. . ...
ROW B8 : ... .. . ... ... ... ... : ... .. . ... ... ... ... : ... .. . ... : ... .. . ... : ... .. . ...
ROW B9 : ... .. . ... ... ... ... : ... .. . ... ... ... ... : ... .. . ... : ... .. . ... : ... .. . ...
ROW BA : ... .. . ... ... ... ... : ... .. . ... ... ... ... : ... .. . ... : ... .. . ... : ... .. . ...
ROW BB : ... .. . ... ... ... ... : ... .. . ... ... ... ... : ... .. . ... : ... .. . ... : ... .. . ...
ROW BC : ... .. . ... ... ... ... : ... .. . ... ... ... ... : ... .. . ... : ... .. . ... : ... .. . ...
ROW BD : ... .. . ... ... ... ... : ... .. . ... ... ... ... : ... .. . ... : ... .. . ... : ... .. . ...
ROW BE : ... .. . ... ... ... ... : ... .. . ... ... ... ... : ... .. . ... : ... .. . ... : ... .. . ...
ROW BF : ... .. . ... ... ... D00 : ... .. . ... ... ... ... : ... .. . ... : ... .. . ... : ... .. . ...
ROW C0 : ... .. . ... ... ... ... : ... .. . ... ... ... ... : ... .. . ... : 2-# 00 4 ... : ... .. . ...
ROW C1 : ... .. . ... ... ... ... : ... .. . ... ... ... ... : ... .. . ... : ... .. 3 ... : ... .. . ...
ROW C2 : ... .. . ... ... ... ... : ... .. . ... ... ... ... : ... .. . ... : ... .. 2 ... : ... .. . ...
ROW C3 : ... .. . ... ... ... ... : ... .. . ... ... ... ... : ... .. . ... : ... .. 1 ... : ... .. . ...
ROW C4 : ... .. . ... ... ... ... : ... .. . ... ... ... ... : ... .. . ... : ... .. 0 ... : ... .. . ...
ROW C5 : ... .. . ... ... ... ... : ... .. . ... ... ... ... : ... .. . ... : ... .. . ... : ... .. . ...
ROW C6 : ... .. . ... ... ... ... : ... .. . ... ... ... ... : ... .. . ... : ... .. . ... : ... .. . ...
ROW C7 : ... .. . ... ... ... ... : ... .. . ... ... ... ... : ... .. . ... : ... .. . ... : ... .. . ...
ROW C8 : ... .. . ... ... ... ... : ... .. . ... ... ... ... : ... .. . ... : ... .. . ... : ... .. . ...
ROW C9 : ... .. . ... ... ... ... : ... .. . ... ... ... ... : ... .. . ... : ... .. . ... : ... .. . ...
ROW CA : ... .. . ... ... ... ... : ... .. . ... ... ... ... : ... .. . ... : ... .. . ... : ... .. . ...
ROW CB : ... .. . ... ... ... ... : ... .. . ... ... ... ... : ... .. . ... : ... .. . ... : ... .. . ...
ROW CC : ... .. . ... ... ... ... : ... .. . ... ... ... ... : ... .. . ... : ... .. . ... : ... .. . ...
ROW CD : ... .. . ... ... ... ... : ... .. . ... ... ... ... : ... .. . ... : ... .. . ... : ... .. . ...
ROW CE : ... .. . ... ... ... ... : ... .. . ... ... ... ... : ... .. . ... : ... .. . ... : ... .. . ...
ROW CF : ... .. . ... ... ... ... : ... .. . ... ... ... ... : ... .. . ... : ... .. . ... : ... .. . ...
ROW D0 : ... .. . ... ... ... ... : ... .. . ... ... ... ... : ... .. . ... : ... .. . ... : ... .. . ...
ROW D1 : ... .. . ... ... ... ... : ... .. . ... ... ... ... : ... .. . ... : ... .. . ... : ... .. . ...
ROW D2 : ... .. . ... ... ... ... : ... .. . ... ... ... ... : ... .. . ... : ... .. . ... : ... .. . ...
ROW D3 : ... .. . ... ... ... ... : ... .. . ... ... ... ... : ... .. . ... : ... .. . ... : ... .. . ...
ROW D4 : ... .. . ... ... ... ... : ... .. . ... ... ... ... : ... .. . ... : ... .. . ... : ... .. . ...
ROW D5 : ... .. . ... ... ... ... : ... .. . ... ... ... ... : ... .. . ... : ... .. . ... : ... .. . ...
ROW D6 : ... .. . ... ... ... ... : ... .. . ... ... ... ... : ... .. . ... : ... .. . ... : ... .. . ...
ROW D7 : ... .. . ... ... ... ... : ... .. . ... ... ... ... : ... .. . ... : ... .. . ... : ... .. . ...
ROW D8 : ... .. . ... ... ... ... : ... .. . ... ... ... ... : ... .. . ... : ... .. . ... : ... .. . ...
ROW D9 : ... .. . ... ... ... ... : ... .. . ... ... ... ... : ... .. . ... : ... .. . ... : ... .. . ...
ROW DA : ... .. . ... ... ... ... : ... .. . ... ... ... ... : ... .. . ... : ... .. . ... : ... .. . ...
ROW DB : ... .. . ... ... ... ... : ... .. . ... ... ... ... : ... .. . ... : ... .. . ... : ... .. . ...
ROW DC : ... .. . ... ... ... ... : ... .. . ... ... ... ... : ... .. . ... : ... .. . ... : ... .. . ...
ROW DD : ... .. . ... ... ... ... : ... .. . ... ... ... ... : ... .. . ... : ... .. . ... : ... .. . ...
ROW DE : ... .. . ... ... ... ... : ... .. . ... ... ... ... : ... .. . ... : ... .. . ... : ... .. . ...
ROW DF : ... .. . ... ... ... ... : ... .. . ... ... ... ... : ... .. . ... : ... .. . ... : ... .. . ...

PATTERN 45
ROW 00 : ... .. . ... ... ... ... : ... .. . ... ... ... ... : ... .. . ... : B-# 00 1 ... : ... .. . ...
ROW 01 : ... .. . ... ... ... ... : ... .. . ... ... ... ... : ... .. . ... : ... .. 0 ... : ... .. . ...
ROW 02 : ... .. . ... ... ... ... : ... .. . ... ... ... ... : ... .. . ... : ... .. . ... : ... .. . ...
ROW 03 : ... .. . ... ... ... ... : ... .. . ... ... ... ... : ... .. . ... : ... .. . ... : ... .. . ...
ROW 04 : ... .. . ... ... ... ... : ... .. . ... ... ... ... : ... .. . ... : ... .. . ... : ... .. . ...
ROW 05 : ... .. . ... ... ... ... : ... .. . ... ... ... ... : ... .. . ... : ... .. . ... : ... .. . ...
ROW 06 : ... .. . ... ... ... ... : ... .. . ... ... ... ... : ... .. . ... : ... .. . ... : ... .. . ...
ROW 07 : ... .. . ... ... ... ... : ... .. . ... ... ... ... : ... .. . ... : ... .. . ... : ... .. . ...
ROW 08 : ... .. . ... ... ... ... : ... .. . ... ... ... ... : ... .. . ... : ... .. . ... : ... .. . ...
ROW 09 : ... .. . ... ... ... ... : ... .. . ... ... ... ... : ... .. . ... : ... .. . ... : ... .. . ...
ROW 0A : ... .. . ... ... ... ... : ... .. . ... ... ... ... : ... .. . ... : ... .. . ... : ... .. . ...
ROW 0B : ... .. . ... ... ... ... : ... .. . ... ... ... ... : ... .. . ... : ... .. . ... : ... .. . ...
ROW 0C : ... .. . ... ... ... ... : ... .. . ... ... ... ... : ... .. . ... : F-# 00 1 ... : ... .. . ...
ROW 0D : ... .. . ... ... ... ... : ... .. . ... ... ... ... : ... .. . ... : ... .. 0 ... : ... .. . ...
ROW 0E : ... .. . ... ... ... ... : ... .. . ... ... ... ... : ... .. . ... : ... .. . ... : ... .. . ...
ROW 0F : ... .. . ... ... ... ... : ... .. . ... ... ... ... : ... .. . ... : ... .. . ... : ... .. . ...
ROW 10 : ... .. . ... ... ... ... : ... .. . ... ... ... ... : ... .. . ... : ... .. . ... : ... .. . ...
ROW 11 : ... .. . ... ... ... ... : ... .. . ... ... ... ... : ... .. . ... : ... .. . ... : ... .. . ...
ROW 12 : ... .. . ... ... ... ... : ... .. . ... ... ... ... : ... .. . ... : ... .. . ... : ... .. . ...
ROW 13 : ... .. . ... ... ... ... : ... .. . ... ... ... ... : ... .. . ... : ... .. . ... : ... .. . ...
ROW 14 : ... .. . ... ... ... ... : ... .. . ... ... ... ... : ... .. . ... : ... .. . ... : ... .. . ...
ROW 15 : ... .. . ... ... ... ... : ... .. . ... ... ... ... : ... .. . ... : ... .. . ... : ... .. . ...
ROW 16 : ... .. . ... ... ... ... : ... .. . ... ... ... ... : ... .. . ... : ... .. . ... : ... .. . ...
ROW 17 : ... .. . ... ... ... ... : ... .. . ... ... ... ... : ... .. . ... : ... .. . ... : ... .. . ...
ROW 18 : ... .. . ... ... ... ... : ... .. . ... ... ... ... : ... .. . ... : B-# 00 1 ... : ... .. . ...
ROW 19 : ... .. . ... ... ... ... : ... .. . ... ... ... ... : ... .. . ... : ... .. 0 ... : ... .. . ...
ROW 1A : ... .. . ... ... ... ... : ... .. . ... ... ... ... : ... .. . ... : ... .. . ... : ... .. . ...
ROW 1B : ... .. . ... ... ... ... : ... .. . ... ... ... ... : ... .. . ... : ... .. . ... : ... .. . ...
ROW 1C : ... .. . ... ... ... ... : ... .. . ... ... ... ... : ... .. . ... : ... .. . ... : ... .. . ...
ROW 1D : ... .. . ... ... ... ... : ... .. . ... ... ... ... : ... .. . ... : ... .. . ... : ... .. . ...
ROW 1E : ... .. . ... ... ... ... : ... .. . ... ... ... ... : ... .. . ... : ... .. . ... : ... .. . ...
ROW 1F : ... .. . ... ... ... ... : ... .. . ... ... ... ... : ... .. . ... : ... .. . ... : ... .. . ...
ROW 20 : ... .. . ... ... ... ... : ... .. . ... ... ... ... : ... .. . ... : ... .. . ... : ... .. . ...
ROW 21 : ... .. . ... ... ... ... : ... .. . ... ... ... ... : ... .. . ... : ... .. . ... : ... .. . ...
ROW 22 : ... .. . ... ... ... ... : ... .. . ... ... ... ... : ... .. . ... : ... .. . ... : ... .. . ...
ROW 23 : ... .. . ... ... ... ... : ... .. . ... ... ... ... : ... .. . ... : ... .. . ... : ... .. . ...
ROW 24 : ... .. . ... ... ... ... : ... .. . ... ... ... ... : ... .. . ... : F-# 00 1 ... : ... .. . ...
ROW 25 : ... .. . ... ... ... ... : ... .. . ... ... ... ... : ... .. . ... : ... .. 0 ... : ... .. . ...
ROW 26 : ... .. . ... ... ... ... : ... .. . ... ... ... ... : ... .. . ... : ... .. . ... : ... .. . ...
ROW 27 : ... .. . ... ... ... ... : ... .. . ... ... ... ... : ... .. . ... : ... .. . ... : ... .. . ...
ROW 28 : ... .. . ... ... ... ... : ... .. . ... ... ... ... : ... .. . ... : ... .. . ... : ... .. . ...
ROW 29 : ... .. . ... ... ... ... : ... .. . ... ... ... ... : ... .. . ... : ... .. . ... : ... .. . ...
ROW 2A : ... .. . ... ... ... ... : ... .. . ... ... ... ... : ... .. . ... : ... .. . ... : ... .. . ...
ROW 2B : ... .. . ... ... ... ... : ... .. . ... ... ... ... : ... .. . ... : ... .. . ... : ... .. . ...
ROW 2C : ... .. . ... ... ... ... : ... .. . ... ... ... ... : ... .. . ... : ... .. . ... : ... .. . ...
ROW 2D : ... .. . ... ... ... ... : ... .. . ... ... ... ... : ... .. . ... : ... .. . ... : ... .. . ...
ROW 2E : ... .. . ... ... ... ... : ... .. . ... ... ... ... : ... .. . ... : ... .. . ... : ... .. . ...
ROW 2F : ... .. . ... ... ... ... : ... .. . ... ... ... ... : ... .. . ... : ... .. . ... : ... .. . ...
ROW 30 : ... .. 4 ... ... ... ... : ... .. . ... ... ... ... : ... .. . ... : B-# 00 1 ... : ... .. . ...
ROW 31 : ... .. . ... ... ... ... : ... .. . ... ... ... ... : ... .. . ... : ... .. 0 ... : ... .. . ...
ROW 32 : ... .. . ... ... ... ... : ... .. . ... ... ... ... : ... .. . ... : ... .. . ... : ... .. . ...
ROW 33 : ... .. . ... ... ... ... : ... .. . ... ... ... ... : ... .. . ... : ... .. . ... : ... .. . ...
ROW 34 : ... .. . ... ... ... ... : ... .. . ... ... ... ... : ... .. . ... : ... .. . ... : ... .. . ...
ROW 35 : ... .. . ... ... ... ... : ... .. . ... ... ... ... : ... .. . ... : ... .. . ... : ... .. . ...
ROW 36 : ... .. . ... ... ... ... : ... .. . ... ... ... ... : ... .. . ... : ... .. . ... : ... .. . ...
ROW 37 : ... .. . ... ... ... ... : ... .. . ... ... ... ... : ... .. . ... : ... .. . ... : ... .. . ...
ROW 38 : ... .. . ... ... ... ... : ... .. . ... ... ... ... : ... .. . ... : ... .. . ... : ... .. . ...
ROW 39 : ... .. . ... ... ... ... : ... .. . ... ... ... ... : ... .. . ... : ... .. . ... : ... .. . ...
ROW 3A : ... .. . ... ... ... ... : ... .. . ... ... ... ... : ... .. . ... : ... .. . ... : ... .. . ...
ROW 3B : ... .. . ... ... ... ... : ... .. . ... ... ... ... : ... .. . ... : ... .. . ... : ... .. . ...
ROW 3C : ... .. . ... ... ... ... : ... .. . ... ... ... ... : ... .. . ... : F-# 00 1 ... : ... .. . ...
ROW 3D : ... .. . ... ... ... ... : ... .. . ... ... ... ... : ... .. . ... : ... .. 0 ... : ... .. . ...
ROW 3E : ... .. . ... ... ... ... : ... .. . ... ... ... ... : ... .. . ... : ... .. . ... : ... .. . ...
ROW 3F : ... .. . ... ... ... ... : ... .. . ... ... ... ... : ... .. . ... : ... .. . ... : ... .. . ...
ROW 40 : ... .. . ... ... ... ... : ... .. . ... ... ... ... : ... .. . ... : ... .. . ... : ... .. . ...
ROW 41 : ... .. . ... ... ... ... : ... .. . ... ... ... ... : ... .. . ... : ... .. . ... : ... .. . ...
ROW 42 : ... .. . ... ... ... ... : ... .. . ... ... ... ... : ... .. . ... : ... .. . ... : ... .. . ...
ROW 43 : ... .. . ... ... ... ... : ... .. . ... ... ... ... : ... .. . ... : ... .. . ... : ... .. . ...
ROW 44 : ... .. . ... ... ... ... : ... .. . ... ... ... ... : ... .. . ... : ... .. . ... : ... .. . ...
ROW 45 : ... .. . ... ... ... ... : ... .. . ... ... ... ... : ... .. . ... : ... .. . ... : ... .. . ...
ROW 46 : ... .. . ... ... ... ... : ... .. . ... ... ... ... : ... .. . ... : ... .. . ... : ... .. . ...
ROW 47 : ... .. . ... ... ... ... : ... .. . ... ... ... ... : ... .. . ... : ... .. . ... : ... .. . ...
ROW 48 : ... .. . ... ... ... ... : ... .. . ... ... ... ... : ... .. . ... : B-# 00 1 ... : ... .. . ...
ROW 49 : ... .. . ... ... ... ... : ... .. . ... ... ... ... : ... .. . ... : ... .. 0 ... : ... .. . ...
ROW 4A : ... .. . ... ... ... ... : ... .. . ... ... ... ... : ... .. . ... : ... .. . ... : ... .. . ...
ROW 4B : ... .. . ... ... ... ... : ... .. . ... ... ... ... : ... .. . ... : ... .. . ... : ... .. . ...
ROW 4C : ... .. . ... ... ... ... : ... .. . ... ... ... ... : ... .. . ... : ... .. . ... : ... .. . ...
ROW 4D : ... .. . ... ... ... ... : ... .. . ... ... ... ... : ... .. . ... : ... .. . ... : ... .. . ...
ROW 4E : ... .. . ... ... ... ... : ... .. . ... ... ... ... : ... .. . ... : ... .. . ... : ... .. . ...
ROW 4F : ... .. . ... ... ... ... : ... .. . ... ... ... ... : ... .. . ... : ... .. . ... : ... .. . ...
ROW 50 : ... .. . ... ... ... ... : ... .. . ... ... ... ... : ... .. . ... : ... .. . ... : ... .. . ...
ROW 51 : ... .. . ... ... ... ... : ... .. . ... ... ... ... : ... .. . ... : ... .. . ... : ... .. . ...
ROW 52 : ... .. . ... ... ... ... : ... .. . ... ... ... ... : ... .. . ... : ... .. . ... : ... .. . ...
ROW 53 : ... .. . ... ... ... ... : ... .. . ... ... ... ... : ... .. . ... : ... .. . ... : ... .. . ...
ROW 54 : ... .. . ... ... ... ... : ... .. . ... ... ... ... : ... .. . ... : F-# 00 1 ... : ... .. . ...
ROW 55 : ... .. . ... ... ... ... : ... .. . ... ... ... ... : ... .. . ... : ... .. 0 ... : ... .. . ...
ROW 56 : ... .. . ... ... ... ... : ... .. . ... ... ... ... : ... .. . ... : ... .. . ... : ... .. . ...
ROW 57 : ... .. . ... ... ... ... : ... .. . ... ... ... ... : ... .. . ... : ... .. . ... : ... .. . ...
ROW 58 : ... .. . ... ... ... ... : ... .. . ... ... ... ... : ... .. . ... : ... .. . ... : ... .. . ...
ROW 59 : ... .. . ... ... ... ... : ... .. . ... ... ... ... : ... .. . ... : ... .. . ... : ... .. . ...
ROW 5A : ... .. . ... ... ... ... : ... .. . ... ... ... ... : ... .. . ... : ... .. . ... : ... .. . ...
ROW 5B : ... .. . ... ... ... ... : ... .. . ... ... ... ... : ... .. . ... : ... .. . ... : ... .. . ...
ROW 5C : ... .. . ... ... ... ... : ... .. . ... ... ... ... : ... .. . ... : ... .. . ... : ... .. . ...
ROW 5D : ... .. . ... ... ... ... : ... .. . ... ... ... ... : ... .. . ... : ... .. . ... : ... .. . ...
ROW 5E : ... .. . ... ... ... ... : ... .. . ... ... ... ... : ... .. . ... : ... .. . ... : ... .. . ...
ROW 5F : ... .. . ... ... ... ... : ... .. . ... ... ... ... : ... .. . ... : ... .. . ... : ... .. . ...
ROW 60 : ... .. 3 ... ... ... ... : ... .. . ... ... ... ... : ... .. . ... : B-# 00 1 ... : ... .. . ...
ROW 61 : ... .. . ... ... ... ... : ... .. . ... ... ... ... : ... .. . ... : ... .. 0 ... : ... .. . ...
ROW 62 : ... .. . ... ... ... ... : ... .. . ... ... ... ... : ... .. . ... : ... .. . ... : ... .. . ...
ROW 63 : ... .. . ... ... ... ... : ... .. . ... ... ... ... : ... .. . ... : ... .. . ... : ... .. . ...
ROW 64 : ... .. . ... ... ... ... : ... .. . ... ... ... ... : ... .. . ... : ... .. . ... : ... .. . ...
ROW 65 : ... .. . ... ... ... ... : ... .. . ... ... ... ... : ... .. . ... : ... .. . ... : ... .. . ...
ROW 66 : ... .. . ... ... ... ... : ... .. . ... ... ... ... : ... .. . ... : ... .. . ... : ... .. . ...
ROW 67 : ... .. . ... ... ... ... : ... .. . ... ... ... ... : ... .. . ... : ... .. . ... : ... .. . ...
ROW 68 : ... .. . ... ... ... ... : ... .. . ... ... ... ... : ... .. . ... : ... .. . ... : ... .. . ...
ROW 69 : ... .. . ... ... ... ... : ... .. . ... ... ... ... : ... .. . ... : ... .. . ... : ... .. . ...
ROW 6A : ... .. . ... ... ... ... : ... .. . ... ... ... ... : ... .. . ... : ... .. . ... : ... .. . ...
ROW 6B : ... .. . ... ... ... ... : ... .. . ... ... ... ... : ... .. . ... : ... .. . ... : ... .. . ...
ROW 6C : ... .. . ... ... ... ... : ... .. . ... ... ... ... : ... .. . ... : F-# 00 1 ... : ... .. . ...
ROW 6D : ... .. . ... ... ... ... : ... .. . ... ... ... ... : ... .. . ... : ... .. 0 ... : ... .. . ...
ROW 6E : ... .. . ... ... ... ... : ... .. . ... ... ... ... : ... .. . ... : ... .. . ... : ... .. . ...
ROW 6F : ... .. . ... ... ... ... : ... .. . ... ... ... ... : ... .. . ... : ... .. . ... : ... .. . ...
ROW 70 : ... .. . ... ... ... ... : ... .. . ... ... ... ... : ... .. . ... : ... .. . ... : ... .. . ...
ROW 71 : ... .. . ... ... ... ... : ... .. . ... ... ... ... : ... .. . ... : ... .. . ... : ... .. . ...
ROW 72 : ... .. . ... ... ... ... : ... .. . ... ... ... ... : ... .. . ... : ... .. . ... : ... .. . ...
ROW 73 : ... .. . ... ... ... ... : ... .. . ... ... ... ... : ... .. . ... : ... .. . ... : ... .. . ...
ROW 74 : ... .. . ... ... ... ... : ... .. . ... ... ... ... : ... .. . ... : ... .. . ... : ... .. . ...
ROW 75 : ... .. . ... ... ... ... : ... .. . ... ... ... ... : ... .. . ... : ... .. . ... : ... .. . ...
ROW 76 : ... .. . ... ... ... ... : ... .. . ... ... ... ... : ... .. . ... : ... .. . ... : ... .. . ...
ROW 77 : ... .. . ... ... ... ... : ... .. . ... ... ... ... : ... .. . ... : ... .. . ... : ... .. . ...
ROW 78 : ... .. . ... ... ... ... : ... .. . ... ... ... ... : ... .. . ... : B-# 00 1 ... : ... .. . ...
ROW 79 : ... .. . ... ... ... ... : ... .. . ... ... ... ... : ... .. . ... : ... .. 0 ... : ... .. . ...
ROW 7A : ... .. . ... ... ... ... : ... .. . ... ... ... ... : ... .. . ... : ... .. . ... : ... .. . ...
ROW 7B : ... .. . ... ... ... ... : ... .. . ... ... ... ... : ... .. . ... : ... .. . ... : ... .. . ...
ROW 7C : ... .. . ... ... ... ... : ... .. . ... ... ... ... : ... .. . ... : ... .. . ... : ... .. . ...
ROW 7D : ... .. . ... ... ... ... : ... .. . ... ... ... ... : ... .. . ... : ... .. . ... : ... .. . ...
ROW 7E : ... .. . ... ... ... ... : ... .. . ... ... ... ... : ... .. . ... : ... .. . ... : ... .. . ...
ROW 7F : ... .. . ... ... ... ... : ... .. . ... ... ... ... : ... .. . ... : ... .. . ... : ... .. . ...
ROW 80 : ... .. . ... ... ... ... : ... .. . ... ... ... ... : ... .. . ... : ... .. . ... : ... .. . ...
ROW 81 : ... .. . ... ... ... ... : ... .. . ... ... ... ... : ... .. . ... : ... .. . ... : ... .. . ...
ROW 82 : ... .. . ... ... ... ... : ... .. . ... ... ... ... : ... .. . ... : ... .. . ... : ... .. . ...
ROW 83 : ... .. . ... ... ... ... : ... .. . ... ... ... ... : ... .. . ... : ... .. . ... : ... .. . ...
ROW 84 : ... .. . ... ... ... ... : ... .. . ... ... ... ... : ... .. . ... : F-# 00 1 ... : ... .. . ...
ROW 85 : ... .. . ... ... ... ... : ... .. . ... ... ... ... : ... .. . ... : ... .. 0 ... : ... .. . ...
ROW 86 : ... .. . ... ... ... ... : ... .. . ... ... ... ... : ... .. . ... : ... .. . ... : ... .. . ...
ROW 87 : ... .. . ... ... ... ... : ... .. . ... ... ... ... : ... .. . ... : ... .. . ... : ... .. . ...
ROW 88 : ... .. . ... ... ... ... : ... .. . ... ... ... ... : ... .. . ... : ... .. . ... : ... .. . ...
ROW 89 : ... .. . ... ... ... ... : ... .. . ... ... ... ... : ... .. . ... : ... .. . ... : ... .. . ...
ROW 8A : ... .. . ... ... ... ... : ... .. . ... ... ... ... : ... .. . ... : ... .. . ... : ... .. . ...
ROW 8B : ... .. . ... ... ... ... : ... .. . ... ... ... ... : ... .. . ... : ... .. . ... : ... .. . ...
ROW 8C : ... .. . ... ... ... ... : ... .. . ... ... ... ... : ... .. . ... : ... .. . ... : ... .. . ...
ROW 8D : ... .. . ... ... ... ... : ... .. . ... ... ... ... : ... .. . ... : ... .. . ... : ... .. . ...
ROW 8E : ... .. . ... ... ... ... : ... .. . ... ... ... ... : ... .. . ... : ... .. . ... : ... .. . ...
ROW 8F : ... .. . ... ... ... ... : ... .. . ... ... ... ... : ... .. . ... : ... .. . ... : ... .. . ...
ROW 90 : ... .. 2 ... ... ... ... : ... .. . ... ... ... ... : ... .. . ... : B-# 00 1 ... : ... .. . ...
ROW 91 : ... .. . ... ... ... ... : ... .. . ... ... ... ... : ... .. . ... : ... .. 0 ... : ... .. . ...
ROW 92 : ... .. . ... ... ... ... : ... .. . ... ... ... ... : ... .. . ... : ... .. . ... : ... .. . ...
ROW 93 : ... .. . ... ... ... ... : ... .. . ... ... ... ... : ... .. . ... : ... .. . ... : ... .. . ...
ROW 94 : ... .. . ... ... ... ... : ... .. . ... ... ... ... : ... .. . ... : ... .. . ... : ... .. . ...
ROW 95 : ... .. . ... ... ... ... : ... .. . ... ... ... ... : ... .. . ... : ... .. . ... : ... .. . ...
ROW 96 : ... .. . ... ... ... ... : ... .. . ... ... ... ... : ... .. . ... : ... .. . ... : ... .. . ...
ROW 97 : ... .. . ... ... ... ... : ... .. . ... ... ... ... : ... .. . ... : ... .. . ... : ... .. . ...
ROW 98 : ... .. . ... ... ... ... : ... .. . ... ... ... ... : ... .. . ... : ... .. . ... : ... .. . ...
ROW 99 : ... .. . ... ... ... ... : ... .. . ... ... ... ... : ... .. . ... : ... .. . ... : ... .. . ...
ROW 9A : ... .. . ... ... ... ... : ... .. . ... ... ... ... : ... .. . ... : ... .. . ... : ... .. . ...
ROW 9B : ... .. . ... ... ... ... : ... .. . ... ... ... ... : ... .. . ... : ... .. . ... : ... .. . ...
ROW 9C : ... .. . ... ... ... ... : ... .. . ... ... ... ... : ... .. . ... : F-# 00 1 ... : ... .. . ...
ROW 9D : ... .. . ... ... ... ... : ... .. . ... ... ... ... : ... .. . ... : ... .. 0 ... : ... .. . ...
ROW 9E : ... .. . ... ... ... ... : ... .. . ... ... ... ... : ... .. . ... : ... .. . ... : ... .. . ...
ROW 9F : ... .. . ... ... ... ... : ... .. . ... ... ... ... : ... .. . ... : ... .. . ... : ... .. . ...
ROW A0 : ... .. . ... ... ... ... : ... .. . ... ... ... ... : ... .. . ... : ... .. . ... : ... .. . ...
ROW A1 : ... .. . ... ... ... ... : ... .. . ... ... ... ... : ... .. . ... : ... .. . ... : ... .. . ...
ROW A2 : ... .. 1 ... ... ... ... : ... .. . ... ... ... ... : ... .. . ... : ... .. . ... : ... .. . ...
ROW A3 : ... .. . ... ... ... ... : ... .. . ... ... ... ... : ... .. . ... : ... .. . ... : ... .. . ...
ROW A4 : ... .. . ... ... ... ... : ... .. . ... ... ... ... : ... .. . ... : ... .. . ... : ... .. . ...
ROW A5 : ... .. . ... ... ... ... : ... .. . ... ... ... ... : ... .. . ... : ... .. . ... : ... .. . ...
ROW A6 : ... .. . ... ... ... ... : ... .. . ... ... ... ... : ... .. . ... : ... .. . ... : ... .. . ...
ROW A7 : ... .. . ... ... ... ... : ... .. . ... ... ... ... : ... .. . ... : ... .. . ... : ... .. . ...
ROW A8 : G-3 00 1 V01 ... ... ... : ... .. . ... ... ... ... : G-2 00 . ... : B-# 00 1 ... : ... .. . ...
ROW A9 : ... .. 2 ... ... ... ... : ... .. . ... ... ... ... : F#2 00 . ... : ... .. 0 ... : ... .. . ...
ROW AA : ... .. 3 ... ... ... ... : ... .. . ... ... ... ... : F-2 00 . ... : ... .. . ... : ... .. . ...
ROW AB : ... .. 4 ... ... ... ... : ... .. . ... ... ... ... : E-2 00 . ... : ... .. . ... : ... .. . ...
ROW AC : ... .. 5 ... ... ... ... : ... .. . ... ... ... ... : D#2 00 . ... : ... .. . ... : ... .. . ...
ROW AD : ... .. . ... ... ... ... : ... .. . ... ... ... ... : D-2 00 . ... : ... .. . ... : ... .. . ...
ROW AE : ... .. . ... ... ... ... : ... .. . ... ... ... ... : C#2 00 . ... : ... .. . ... : ... .. . ...
ROW AF : ... .. . ... ... ... ... : ... .. . ... ... ... ... : C-2 00 . ... : ... .. . ... : ... .. . ...
ROW B0 : ... .. . ... ... ... ... : ... .. . ... ... ... ... : B-1 00 . ... : ... .. . ... : ... .. . ...
ROW B1 : ... .. . ... ... ... ... : ... .. . ... ... ... ... : A#1 00 . ... : ... .. . ... : ... .. . ...
ROW B2 : ... .. 2 ... ... ... ... : ... .. . ... ... ... ... : A-1 00 . ... : ... .. . ... : ... .. . ...
ROW B3 : ... .. . ... ... ... ... : ... .. . ... ... ... ... : G#1 00 . ... : ... .. . ... : ... .. . ...
ROW B4 : C-4 00 1 ... ... ... ... : G-3 00 1 V01 ... ... P81 : G-1 00 . ... : F-# 00 1 ... : ... .. . ...
ROW B5 : ... .. 2 ... ... ... ... : ... .. . ... ... ... ... : F#1 00 . ... : ... .. 0 ... : ... .. . ...
ROW B6 : ... .. 3 ... ... ... ... : ... .. . ... ... ... ... : F-1 00 . ... : ... .. . ... : ... .. . ...
ROW B7 : ... .. 4 ... ... ... ... : ... .. . ... ... ... ... : E-1 00 . ... : ... .. . ... : ... .. . ...
ROW B8 : ... .. 5 ... ... ... ... : ... .. . ... ... ... ... : D#1 00 . ... : ... .. . ... : ... .. . ...
ROW B9 : ... .. . ... ... ... ... : ... .. . ... ... ... ... : D-1 00 . ... : ... .. . ... : ... .. . ...
ROW BA : ... .. . ... ... ... ... : ... .. . ... ... ... ... : C#1 00 . ... : ... .. . ... : ... .. . ...
ROW BB : ... .. . ... ... ... ... : ... .. . ... ... ... ... : C-1 00 . ... : ... .. . ... : ... .. . ...
ROW BC : ... .. . ... ... ... ... : ... .. . ... ... ... ... : B-0 00 . ... : ... .. . ... : ... .. . ...
ROW BD : ... .. . ... ... ... ... : ... .. . ... ... ... ... : A#0 00 . ... : ... .. . ... : ... .. . ...
ROW BE : ... .. 2 ... ... ... ... : ... .. . ... ... ... ... : A-0 00 . ... : ... .. . ... : ... .. . ...
ROW BF : ... .. . ... ... ... D00 : ... .. . ... ... ... ... : G#0 00 . ... : ... .. . ... : ... .. . ...
ROW C0 : ... .. . ... ... ... ... : ... .. . ... ... ... ... : ... .. . ... : ... .. . ... : ... .. . ...
ROW C1 : ... .. . ... ... ... ... : ... .. . ... ... ... ... : ... .. . ... : ... .. . ... : ... .. . ...
ROW C2 : ... .. . ... ... ... ... : ... .. . ... ... ... ... : ... .. . ... : ... .. . ... : ... .. . ...
ROW C3 : ... .. . ... ... ... ... : ... .. . ... ... ... ... : ... .. . ... : ... .. . ... : ... .. . ...
ROW C4 : ... .. . ... ... ... ... : ... .. . ... ... ... ... : ... .. . ... : ... .. . ... : ... .. . ...
ROW C5 : ... .. . ... ... ... ... : ... .. . ... ... ... ... : ... .. . ... : ... .. . ... : ... .. . ...
ROW C6 : ... .. . ... ... ... ... : ... .. . ... ... ... ... : ... .. . ... : ... .. . ... : ... .. . ...
ROW C7 : ... .. . ... ... ... ... : ... .. . ... ... ... ... : ... .. . ... : ... .. . ... : ... .. . ...
ROW C8 : ... .. . ... ... ... ... : ... .. . ... ... ... ... : ... .. . ... : ... .. . ... : ... .. . ...
ROW C9 : ... .. . ... ... ... ... : ... .. . ... ... ... ... : ... .. . ... : ... .. . ... : ... .. . ...
ROW CA : ... .. . ... ... ... ... : ... .. . ... ... ... ... : ... .. . ... : ... .. . ... : ... .. . ...
ROW CB : ... .. . ... ... ... ... : ... .. . ... ... ... ... : ... .. . ... : ... .. . ... : ... .. . ...
ROW CC : ... .. . ... ... ... ... : ... .. . ... ... ... ... : ... .. . ... : ... .. . ... : ... .. . ...
ROW CD : ... .. . ... ... ... ... : ... .. . ... ... ... ... : ... .. . ... : ... .. . ... : ... .. . ...
ROW CE : ... .. . ... ... ... ... : ... .. . ... ... ... ... : ... .. . ... : ... .. . ... : ... .. . ...
ROW CF : ... .. . ... ... ... ... : ... .. . ... ... ... ... : ... .. . ... : ... .. . ... : ... .. . ...
ROW D0 : ... .. . ... ... ... ... : ... .. . ... ... ... ... : ... .. . ... : ... .. . ... : ... .. . ...
ROW D1 : ... .. . ... ... ... ... : ... .. . ... ... ... ... : ... .. . ... : ... .. . ... : ... .. . ...
ROW D2 : ... .. . ... ... ... ... : ... .. . ... ... ... ... : ... .. . ... : ... .. . ... : ... .. . ...
ROW D3 : ... .. . ... ... ... ... : ... .. . ... ... ... ... : ... .. . ... : ... .. . ... : ... .. . ...
ROW D4 : ... .. . ... ... ... ... : ... .. . ... ... ... ... : ... .. . ... : ... .. . ... : ... .. . ...
ROW D5 : ... .. . ... ... ... ... : ... .. . ... ... ... ... : ... .. . ... : ... .. . ... : ... .. . ...
ROW D6 : ... .. . ... ... ... ... : ... .. . ... ... ... ... : ... .. . ... : ... .. . ... : ... .. . ...
ROW D7 : ... .. . ... ... ... ... : ... .. . ... ... ... ... : ... .. . ... : ... .. . ... : ... .. . ...
ROW D8 : ... .. . ... ... ... ... : ... .. . ... ... ... ... : ... .. . ... : ... .. . ... : ... .. . ...
ROW D9 : ... .. . ... ... ... ... : ... .. . ... ... ... ... : ... .. . ... : ... .. . ... : ... .. . ...
ROW DA : ... .. . ... ... ... ... : ... .. . ... ... ... ... : ... .. . ... : ... .. . ... : ... .. . ...
ROW DB : ... .. . ... ... ... ... : ... .. . ... ... ... ... : ... .. . ... : ... .. . ... : ... .. . ...
ROW DC : ... .. . ... ... ... ... : ... .. . ... ... ... ... : ... .. . ... : ... .. . ... : ... .. . ...
ROW DD : ... .. . ... ... ... ... : ... .. . ... ... ... ... : ... .. . ... : ... .. . ... : ... .. . ...
ROW DE : ... .. . ... ... ... ... : ... .. . ... ... ... ... : ... .. . ... : ... .. . ... : ... .. . ...
ROW DF : ... .. . ... ... ... ... : ... .. . ... ... ... ... : ... .. . ... : ... .. . ... : ... .. . ...

PATTERN 46
ROW 00 : D-4 00 1 V01 ... ... ... : C-4 00 1 V01 ... ... P81 : D-3 00 . ... : B-# 00 1 ... : ... .. . ...
ROW 01 : ... .. 2 ... ... ... ... : ... .. . ... ... ... ... : C-3 00 . ... : ... .. 0 ... : ... .. . ...
ROW 02 : ... .. 3 ... ... ... ... : ... .. . ... ... ... ... : G-1 00 . ... : ... .. . ... : ... .. . ...
ROW 03 : ... .. 4 ... ... ... ... : ... .. . ... ... ... ... : ... .. . ... : ... .. . ... : ... .. . ...
ROW 04 : ... .. 5 ... ... ... ... : ... .. . ... ... ... ... : ... .. . ... : ... .. . ... : ... .. . ...
ROW 05 : ... .. . ... ... ... ... : ... .. . ... ... ... ... : ... .. . ... : ... .. . ... : ... .. . ...
ROW 06 : ... .. . ... ... ... ... : ... .. . ... ... ... ... : ... .. . ... : ... .. . ... : ... .. . ...
ROW 07 : ... .. . ... ... ... ... : ... .. . ... ... ... ... : ... .. . ... : ... .. . ... : ... .. . ...
ROW 08 : ... .. . ... ... ... ... : ... .. . ... ... ... ... : ... .. . ... : ... .. . ... : ... .. . ...
ROW 09 : ... .. . ... ... ... ... : ... .. . ... ... ... ... : ... .. . ... : ... .. . ... : ... .. . ...
ROW 0A : ... .. . ... ... ... ... : ... .. . ... ... ... ... : --- .. . ... : ... .. . ... : ... .. . ...
ROW 0B : ... .. . ... ... ... ... : ... .. . ... ... ... ... : ... .. . ... : ... .. . ... : ... .. . ...
ROW 0C : ... .. . ... ... ... ... : D-4 00 1 V01 ... ... ... : D-3 00 . ... : F-# 00 1 ... : ... .. . ...
ROW 0D : ... .. . ... ... ... ... : ... .. . ... ... ... ... : C-3 00 . ... : ... .. 0 ... : ... .. . ...
ROW 0E : ... .. . ... ... ... ... : ... .. . ... ... ... ... : G-1 00 . ... : ... .. . ... : ... .. . ...
ROW 0F : ... .. . ... ... ... ... : ... .. . ... ... ... ... : ... .. . ... : ... .. . ... : ... .. . ...
ROW 10 : ... .. . ... ... ... ... : ... .. . ... ... ... ... : ... .. . ... : ... .. . ... : ... .. . ...
ROW 11 : ... .. . ... ... ... ... : ... .. . ... ... ... ... : ... .. . ... : ... .. . ... : ... .. . ...
ROW 12 : ... .. . ... ... ... ... : ... .. . ... ... ... ... : ... .. . ... : ... .. . ... : ... .. . ...
ROW 13 : ... .. . ... ... ... ... : ... .. . ... ... ... ... : ... .. . ... : ... .. . ... : ... .. . ...
ROW 14 : ... .. . ... ... ... ... : ... .. . ... ... ... ... : ... .. . ... : ... .. . ... : ... .. . ...
ROW 15 : ... .. . ... ... ... ... : ... .. . ... ... ... ... : ... .. . ... : ... .. . ... : ... .. . ...
ROW 16 : ... .. . ... ... ... ... : ... .. . ... ... ... ... : --- .. . ... : ... .. . ... : ... .. . ...
ROW 17 : ... .. . ... ... ... ... : ... .. . ... ... ... ... : ... .. . ... : ... .. . ... : ... .. . ...
ROW 18 : ... .. . ... ... ... ... : ... .. . ... ... ... ... : ... .. . ... : B-# 00 1 ... : ... .. . ...
ROW 19 : ... .. . ... ... ... ... : ... .. . ... ... ... ... : ... .. . ... : ... .. 0 ... : ... .. . ...
ROW 1A : ... .. . ... ... ... ... : ... .. . ... ... ... ... : ... .. . ... : ... .. . ... : ... .. . ...
ROW 1B : ... .. . ... ... ... ... : ... .. . ... ... ... ... : ... .. . ... : ... .. . ... : ... .. . ...
ROW 1C : ... .. . ... ... ... ... : ... .. . ... ... ... ... : ... .. . ... : ... .. . ... : ... .. . ...
ROW 1D : ... .. . ... ... ... ... : ... .. . ... ... ... ... : ... .. . ... : ... .. . ... : ... .. . ...
ROW 1E : ... .. . ... ... ... ... : ... .. . ... ... ... ... : ... .. . ... : ... .. . ... : ... .. . ...
ROW 1F : ... .. . ... ... ... ... : ... .. . ... ... ... ... : ... .. . ... : ... .. . ... : ... .. . ...
ROW 20 : ... .. . ... ... ... ... : ... .. . ... ... ... ... : ... .. . ... : ... .. . ... : ... .. . ...
ROW 21 : ... .. . ... ... ... ... : ... .. . ... ... ... ... : ... .. . ... : ... .. . ... : ... .. . ...
ROW 22 : ... .. . ... ... ... ... : ... .. . ... ... ... ... : ... .. . ... : ... .. . ... : ... .. . ...
ROW 23 : ... .. . ... ... ... ... : ... .. . ... ... ... ... : ... .. . ... : ... .. . ... : ... .. . ...
ROW 24 : ... .. . ... ... ... ... : ... .. . ... ... ... ... : ... .. . ... : F-# 00 1 ... : ... .. . ...
ROW 25 : ... .. . ... ... ... ... : ... .. . ... ... ... ... : ... .. . ... : ... .. 0 ... : ... .. . ...
ROW 26 : ... .. . ... ... ... ... : ... .. . ... ... ... ... : ... .. . ... : ... .. . ... : ... .. . ...
ROW 27 : ... .. . ... ... ... ... : ... .. . ... ... ... ... : ... .. . ... : ... .. . ... : ... .. . ...
ROW 28 : ... .. . ... ... ... ... : ... .. . ... ... ... ... : ... .. . ... : ... .. . ... : ... .. . ...
ROW 29 : ... .. . ... ... ... ... : ... .. . ... ... ... ... : ... .. . ... : ... .. . ... : ... .. . ...
ROW 2A : ... .. . ... ... ... ... : ... .. . ... ... ... ... : ... .. . ... : ... .. . ... : ... .. . ...
ROW 2B : ... .. . ... ... ... ... : ... .. . ... ... ... ... : ... .. . ... : ... .. . ... : ... .. . ...
ROW 2C : ... .. . ... ... ... ... : ... .. . ... ... ... ... : ... .. . ... : ... .. . ... : ... .. . ...
ROW 2D : ... .. . ... ... ... ... : ... .. . ... ... ... ... : ... .. . ... : ... .. . ... : ... .. . ...
ROW 2E : ... .. . ... ... ... ... : ... .. . ... ... ... ... : ... .. . ... : ... .. . ... : ... .. . ...
ROW 2F : ... .. . ... ... ... ... : ... .. . ... ... ... ... : ... .. . ... : ... .. . ... : ... .. . ...
ROW 30 : ... .. . ... ... ... ... : ... .. . ... ... ... ... : ... .. . ... : B-# 00 1 ... : ... .. . ...
ROW 31 : ... .. . ... ... ... ... : ... .. . ... ... ... ... : ... .. . ... : ... .. 0 ... : ... .. . ...
ROW 32 : ... .. . ... ... ... ... : ... .. . ... ... ... ... : ... .. . ... : ... .. . ... : ... .. . ...
ROW 33 : ... .. . ... ... ... ... : ... .. . ... ... ... ... : ... .. . ... : ... .. . ... : ... .. . ...
ROW 34 : ... .. . ... ... ... ... : ... .. . ... ... ... ... : ... .. . ... : ... .. . ... : ... .. . ...
ROW 35 : ... .. . ... ... ... ... : ... .. . ... ... ... ... : ... .. . ... : ... .. . ... : ... .. . ...
ROW 36 : ... .. . ... ... ... ... : ... .. . ... ... ... ... : ... .. . ... : ... .. . ... : ... .. . ...
ROW 37 : ... .. . ... ... ... ... : ... .. . ... ... ... ... : ... .. . ... : ... .. . ... : ... .. . ...
ROW 38 : ... .. . ... ... ... ... : ... .. . ... ... ... ... : ... .. . ... : ... .. . ... : ... .. . ...
ROW 39 : ... .. . ... ... ... ... : ... .. . ... ... ... ... : ... .. . ... : ... .. . ... : ... .. . ...
ROW 3A : ... .. . ... ... ... ... : ... .. . ... ... ... ... : ... .. . ... : ... .. . ... : ... .. . ...
ROW 3B : ... .. . ... ... ... ... : ... .. . ... ... ... ... : ... .. . ... : ... .. . ... : ... .. . ...
ROW 3C : ... .. . ... ... ... ... : ... .. . ... ... ... ... : ... .. . ... : F-# 00 1 ... : ... .. . ...
ROW 3D : ... .. . ... ... ... ... : ... .. . ... ... ... ... : ... .. . ... : ... .. 0 ... : ... .. . ...
ROW 3E : ... .. . ... ... ... ... : ... .. . ... ... ... ... : ... .. . ... : ... .. . ... : ... .. . ...
ROW 3F : ... .. . ... ... ... ... : ... .. . ... ... ... ... : ... .. . ... : ... .. . ... : ... .. . ...
ROW 40 : ... .. 4 ... ... ... ... : ... .. . ... ... ... ... : ... .. . ... : ... .. . ... : ... .. . ...
ROW 41 : ... .. . ... ... ... ... : ... .. . ... ... ... ... : ... .. . ... : ... .. . ... : ... .. . ...
ROW 42 : ... .. 3 ... ... ... ... : ... .. . ... ... ... ... : ... .. . ... : ... .. . ... : ... .. . ...
ROW 43 : ... .. . ... ... ... ... : ... .. . ... ... ... ... : ... .. . ... : ... .. . ... : ... .. . ...
ROW 44 : ... .. 2 ... ... ... ... : ... .. . ... ... ... ... : ... .. . ... : ... .. . ... : ... .. . ...
ROW 45 : ... .. . ... ... ... ... : ... .. . ... ... ... ... : ... .. . ... : ... .. . ... : ... .. . ...
ROW 46 : ... .. 1 ... ... ... ... : ... .. . ... ... ... ... : ... .. . ... : ... .. . ... : ... .. . ...
ROW 47 : ... .. . ... ... ... ... : ... .. . ... ... ... ... : ... .. . ... : ... .. . ... : ... .. . ...
ROW 48 : G-3 00 1 ... ... ... ... : ... .. . ... ... ... ... : ... .. . ... : B-# 00 1 ... : ... .. . ...
ROW 49 : ... .. 2 ... ... ... ... : ... .. . ... ... ... ... : ... .. . ... : ... .. 0 ... : ... .. . ...
ROW 4A : ... .. 3 ... ... ... ... : ... .. . ... ... ... ... : ... .. . ... : ... .. . ... : ... .. . ...
ROW 4B : ... .. 4 ... ... ... ... : ... .. . ... ... ... ... : ... .. . ... : ... .. . ... : ... .. . ...
ROW 4C : ... .. 5 ... ... ... ... : ... .. . ... ... ... ... : ... .. . ... : ... .. . ... : ... .. . ...
ROW 4D : ... .. . ... ... ... ... : ... .. . ... ... ... ... : ... .. . ... : ... .. . ... : ... .. . ...
ROW 4E : ... .. . ... ... ... ... : ... .. . ... ... ... ... : ... .. . ... : ... .. . ... : ... .. . ...
ROW 4F : ... .. . ... ... ... ... : ... .. . ... ... ... ... : ... .. . ... : ... .. . ... : ... .. . ...
ROW 50 : ... .. . ... ... ... ... : ... .. . ... ... ... ... : ... .. . ... : ... .. . ... : ... .. . ...
ROW 51 : ... .. . ... ... ... ... : ... .. . ... ... ... ... : ... .. . ... : ... .. . ... : ... .. . ...
ROW 52 : ... .. 2 ... ... ... ... : ... .. . ... ... ... ... : ... .. . ... : ... .. . ... : ... .. . ...
ROW 53 : ... .. . ... ... ... ... : ... .. . ... ... ... ... : ... .. . ... : ... .. . ... : ... .. . ...
ROW 54 : D-4 00 1 ... ... ... ... : G-3 00 . ... ... ... ... : ... .. . ... : F-# 00 1 ... : ... .. . ...
ROW 55 : ... .. 2 ... ... ... ... : ... .. . ... ... ... ... : ... .. . ... : ... .. 0 ... : ... .. . ...
ROW 56 : ... .. 3 ... ... ... ... : ... .. . ... ... ... ... : ... .. . ... : ... .. . ... : ... .. . ...
ROW 57 : ... .. 4 ... ... ... ... : ... .. . ... ... ... ... : ... .. . ... : ... .. . ... : ... .. . ...
ROW 58 : ... .. 5 ... ... ... ... : ... .. . ... ... ... ... : ... .. . ... : ... .. . ... : ... .. . ...
ROW 59 : ... .. . ... ... ... ... : ... .. . ... ... ... ... : ... .. . ... : ... .. . ... : ... .. . ...
ROW 5A : ... .. . ... ... ... ... : ... .. . ... ... ... ... : ... .. . ... : ... .. . ... : ... .. . ...
ROW 5B : ... .. . ... ... ... ... : ... .. . ... ... ... ... : ... .. . ... : ... .. . ... : ... .. . ...
ROW 5C : ... .. . ... ... ... ... : ... .. . ... ... ... ... : ... .. . ... : ... .. . ... : ... .. . ...
ROW 5D : ... .. . ... ... ... ... : ... .. . ... ... ... ... : ... .. . ... : ... .. . ... : ... .. . ...
ROW 5E : ... .. 2 ... ... ... ... : ... .. . ... ... ... ... : ... .. . ... : ... .. . ... : ... .. . ...
ROW 5F : ... .. . ... ... ... ... : ... .. . ... ... ... ... : ... .. . ... : ... .. . ... : ... .. . ...
ROW 60 : F-4 00 1 ... ... ... ... : D-4 00 . ... ... ... ... : ... .. . ... : B-# 00 1 ... : ... .. . ...
ROW 61 : ... .. 2 ... ... ... ... : ... .. . ... ... ... ... : ... .. . ... : ... .. 0 ... : ... .. . ...
ROW 62 : ... .. 3 ... ... ... ... : ... .. . ... ... ... ... : ... .. . ... : ... .. . ... : ... .. . ...
ROW 63 : ... .. 4 ... ... ... ... : ... .. . ... ... ... ... : ... .. . ... : ... .. . ... : ... .. . ...
ROW 64 : ... .. 5 ... ... ... ... : ... .. . ... ... ... ... : ... .. . ... : ... .. . ... : ... .. . ...
ROW 65 : ... .. . ... ... ... ... : ... .. . ... ... ... ... : ... .. . ... : ... .. . ... : ... .. . ...
ROW 66 : ... .. . ... ... ... ... : ... .. . ... ... ... ... : ... .. . ... : ... .. . ... : ... .. . ...
ROW 67 : ... .. . ... ... ... ... : ... .. . ... ... ... ... : ... .. . ... : ... .. . ... : ... .. . ...
ROW 68 : ... .. . ... ... ... ... : ... .. . ... ... ... ... : ... .. . ... : ... .. . ... : ... .. . ...
ROW 69 : ... .. . ... ... ... ... : ... .. . ... ... ... ... : ... .. . ... : ... .. . ... : ... .. . ...
ROW 6A : ... .. . ... ... ... ... : ... .. . ... ... ... ... : ... .. . ... : ... .. . ... : ... .. . ...
ROW 6B : ... .. . ... ... ... ... : ... .. . ... ... ... ... : ... .. . ... : ... .. . ... : ... .. . ...
ROW 6C : ... .. . ... ... ... ... : F-4 00 . ... ... ... ... : ... .. . ... : F-# 00 1 ... : ... .. . ...
ROW 6D : ... .. . ... ... ... ... : ... .. . ... ... ... ... : ... .. . ... : ... .. 0 ... : ... .. . ...
ROW 6E : ... .. . ... ... ... ... : ... .. . ... ... ... ... : ... .. . ... : ... .. . ... : ... .. . ...
ROW 6F : ... .. . ... ... ... ... : ... .. . ... ... ... ... : ... .. . ... : ... .. . ... : ... .. . ...
ROW 70 : ... .. . ... ... ... ... : ... .. . ... ... ... ... : ... .. . ... : ... .. . ... : ... .. . ...
ROW 71 : ... .. . ... ... ... ... : ... .. . ... ... ... ... : ... .. . ... : ... .. . ... : ... .. . ...
ROW 72 : ... .. . ... ... ... ... : ... .. . ... ... ... ... : ... .. . ... : ... .. . ... : ... .. . ...
ROW 73 : ... .. . ... ... ... ... : ... .. . ... ... ... ... : ... .. . ... : ... .. . ... : ... .. . ...
ROW 74 : ... .. . ... ... ... ... : ... .. . ... ... ... ... : ... .. . ... : ... .. . ... : ... .. . ...
ROW 75 : ... .. . ... ... ... ... : ... .. . ... ... ... ... : ... .. . ... : ... .. . ... : ... .. . ...
ROW 76 : ... .. . ... ... ... ... : ... .. . ... ... ... ... : ... .. . ... : ... .. . ... : ... .. . ...
ROW 77 : ... .. . ... ... ... ... : ... .. . ... ... ... ... : ... .. . ... : ... .. . ... : ... .. . ...
ROW 78 : ... .. . ... ... ... ... : ... .. . ... ... ... ... : D-3 00 . ... : B-# 00 1 ... : ... .. . ...
ROW 79 : ... .. . ... ... ... ... : ... .. . ... ... ... ... : C-3 00 . ... : ... .. 0 ... : ... .. . ...
ROW 7A : ... .. . ... ... ... ... : ... .. . ... ... ... ... : G-1 00 . ... : ... .. . ... : ... .. . ...
ROW 7B : ... .. . ... ... ... ... : ... .. . ... ... ... ... : ... .. . ... : ... .. . ... : ... .. . ...
ROW 7C : ... .. . ... ... ... ... : ... .. . ... ... ... ... : ... .. . ... : ... .. . ... : ... .. . ...
ROW 7D : ... .. . ... ... ... ... : ... .. . ... ... ... ... : ... .. . ... : ... .. . ... : ... .. . ...
ROW 7E : ... .. . ... ... ... ... : ... .. . ... ... ... ... : ... .. . ... : ... .. . ... : ... .. . ...
ROW 7F : ... .. . ... ... ... ... : ... .. . ... ... ... ... : ... .. . ... : ... .. . ... : ... .. . ...
ROW 80 : ... .. . ... ... ... ... : ... .. . ... ... ... ... : ... .. . ... : ... .. . ... : ... .. . ...
ROW 81 : ... .. . ... ... ... ... : ... .. . ... ... ... ... : ... .. . ... : ... .. . ... : ... .. . ...
ROW 82 : ... .. 2 ... ... ... ... : ... .. . ... ... ... ... : ... .. . ... : ... .. . ... : ... .. . ...
ROW 83 : ... .. . ... ... ... ... : ... .. . ... ... ... ... : ... .. . ... : ... .. . ... : ... .. . ...
ROW 84 : G-4 00 1 ... ... ... ... : G-4 00 . ... ... ... ... : ... .. . ... : F-# 00 1 ... : ... .. . ...
ROW 85 : ... .. 2 ... ... ... ... : ... .. . ... ... ... ... : ... .. . ... : ... .. 0 ... : ... .. . ...
ROW 86 : ... .. 3 ... ... ... ... : ... .. . ... ... ... ... : ... .. . ... : ... .. . ... : ... .. . ...
ROW 87 : ... .. 4 ... ... ... ... : ... .. . ... ... ... ... : ... .. . ... : ... .. . ... : ... .. . ...
ROW 88 : ... .. 5 ... ... ... ... : ... .. . ... ... ... ... : ... .. . ... : ... .. . ... : ... .. . ...
ROW 89 : ... .. . ... ... ... ... : ... .. . ... ... ... ... : ... .. . ... : ... .. . ... : ... .. . ...
ROW 8A : ... .. . ... ... ... ... : ... .. . ... ... ... ... : ... .. . ... : ... .. . ... : ... .. . ...
ROW 8B : ... .. . ... ... ... ... : ... .. . ... ... ... ... : ... .. . ... : ... .. . ... : ... .. . ...
ROW 8C : ... .. . ... ... ... ... : ... .. . ... ... ... ... : ... .. . ... : ... .. . ... : ... .. . ...
ROW 8D : ... .. . ... ... ... ... : ... .. . ... ... ... ... : ... .. . ... : ... .. . ... : ... .. . ...
ROW 8E : ... .. 2 ... ... ... ... : ... .. . ... ... ... ... : ... .. . ... : ... .. . ... : ... .. . ...
ROW 8F : ... .. . ... ... ... ... : ... .. . ... ... ... ... : ... .. . ... : ... .. . ... : ... .. . ...
ROW 90 : E-4 00 1 ... ... ... ... : ... .. . ... ... ... ... : D-3 00 . ... : 1-# 00 6 ... : ... .. . ...
ROW 91 : ... .. 2 ... ... ... ... : G-3 00 5 V02 ... ... P80 : C-3 00 . ... : ... .. 5 ... : ... .. . ...
ROW 92 : ... .. 3 ... ... ... ... : ... .. . ... ... ... ... : C-2 00 . ... : ... .. 4 ... : ... .. . ...
ROW 93 : ... .. 4 ... ... ... ... : ... .. 4 ... ... ... ... : ... .. . ... : ... .. 3 ... : ... .. . ...
ROW 94 : ... .. 5 ... ... ... ... : ... .. . ... ... ... ... : ... .. . ... : ... .. . ... : ... .. . ...
ROW 95 : ... .. . ... ... ... ... : ... .. 3 ... ... ... ... : ... .. . ... : ... .. . ... : ... .. . ...
ROW 96 : ... .. . ... ... ... ... : ... .. . ... ... ... ... : ... .. . ... : ... .. . ... : ... .. . ...
ROW 97 : ... .. . ... ... ... ... : ... .. . ... ... ... ... : ... .. . ... : ... .. . ... : ... .. . ...
ROW 98 : ... .. . ... ... ... ... : ... .. . ... ... ... ... : ... .. . ... : ... .. . ... : ... .. . ...
ROW 99 : ... .. . ... ... ... ... : ... .. . ... ... ... ... : ... .. . ... : ... .. . ... : ... .. . ...
ROW 9A : ... .. . ... ... ... ... : ... .. . ... ... ... ... : ... .. . ... : ... .. . ... : ... .. . ...
ROW 9B : ... .. . ... ... ... ... : ... .. . ... ... ... ... : ... .. . ... : ... .. . ... : ... .. . ...
ROW 9C : ... .. . ... ... ... ... : ... .. . ... ... ... ... : ... .. . ... : ... .. 2 ... : ... .. . ...
ROW 9D : ... .. . ... ... ... ... : ... .. . ... ... ... ... : ... .. . ... : ... .. . ... : ... .. . ...
ROW 9E : ... .. . ... ... ... ... : ... .. . ... ... ... ... : ... .. . ... : ... .. . ... : ... .. . ...
ROW 9F : ... .. . ... ... ... ... : ... .. . ... ... ... ... : ... .. . ... : ... .. . ... : ... .. . ...
ROW A0 : ... .. . ... ... ... ... : ... .. . ... ... ... ... : ... .. . ... : ... .. . ... : ... .. . ...
ROW A1 : ... .. . ... ... ... ... : ... .. . ... ... ... ... : ... .. . ... : ... .. . ... : ... .. . ...
ROW A2 : ... .. . ... ... ... ... : ... .. . ... ... ... ... : ... .. . ... : ... .. . ... : ... .. . ...
ROW A3 : ... .. . ... ... ... ... : ... .. . ... ... ... ... : ... .. . ... : ... .. . ... : ... .. . ...
ROW A4 : ... .. . ... ... ... F02 : ... .. . ... ... ... ... : ... .. . ... : ... .. . ... : ... .. . ...
ROW A5 : ... .. . ... ... ... ... : ... .. . ... ... ... ... : ... .. . ... : ... .. . ... : ... .. . ...
ROW A6 : ... .. . ... ... ... ... : ... .. . ... ... ... ... : ... .. . ... : ... .. . ... : ... .. . ...
ROW A7 : ... .. . ... ... ... ... : ... .. . ... ... ... ... : ... .. . ... : ... .. . ... : ... .. . ...
ROW A8 : ... .. 4 ... ... ... F01 : ... .. . ... ... ... ... : ... .. . ... : ... .. 1 ... : ... .. . ...
ROW A9 : ... .. . ... ... ... ... : ... .. . ... ... ... ... : ... .. . ... : ... .. . ... : ... .. . ...
ROW AA : ... .. . ... ... ... ... : ... .. . ... ... ... ... : ... .. . ... : ... .. . ... : ... .. . ...
ROW AB : ... .. . ... ... ... ... : ... .. . ... ... ... ... : ... .. . ... : ... .. . ... : ... .. . ...
ROW AC : ... .. . ... ... ... ... : ... .. . ... ... ... ... : ... .. . ... : ... .. . ... : ... .. . ...
ROW AD : ... .. . ... ... ... ... : ... .. . ... ... ... ... : ... .. . ... : ... .. . ... : ... .. . ...
ROW AE : ... .. 3 ... ... ... ... : ... .. . ... ... ... ... : ... .. . ... : ... .. . ... : ... .. . ...
ROW AF : ... .. . ... ... ... ... : ... .. . ... ... ... ... : ... .. . ... : ... .. . ... : ... .. . ...
ROW B0 : ... .. . ... ... ... ... : ... .. . ... ... ... ... : ... .. . ... : ... .. . ... : ... .. . ...
ROW B1 : ... .. . ... ... ... ... : ... .. . ... ... ... ... : ... .. . ... : ... .. . ... : ... .. . ...
ROW B2 : ... .. . ... ... ... ... : ... .. . ... ... ... ... : ... .. . ... : ... .. . ... : ... .. . ...
ROW B3 : ... .. . ... ... ... ... : ... .. . ... ... ... ... : ... .. . ... : ... .. . ... : ... .. . ...
ROW B4 : ... .. 2 ... ... ... ... : ... .. 2 ... ... ... ... : ... .. . ... : ... .. . ... : ... .. . ...
ROW B5 : ... .. . ... ... ... ... : ... .. . ... ... ... ... : ... .. . ... : ... .. . ... : ... .. . ...
ROW B6 : ... .. . ... ... ... ... : ... .. . ... ... ... ... : ... .. . ... : ... .. . ... : ... .. . ...
ROW B7 : ... .. . ... ... ... ... : ... .. . ... ... ... ... : ... .. . ... : ... .. . ... : ... .. . ...
ROW B8 : ... .. . ... ... ... ... : ... .. . ... ... ... ... : ... .. . ... : ... .. . ... : ... .. . ...
ROW B9 : ... .. . ... ... ... ... : ... .. . ... ... ... ... : ... .. . ... : ... .. . ... : ... .. . ...
ROW BA : ... .. 1 ... ... ... ... : ... .. 1 ... ... ... ... : ... .. . ... : ... .. . ... : ... .. . ...
ROW BB : ... .. . ... ... ... ... : ... .. . ... ... ... ... : ... .. . ... : ... .. . ... : ... .. . ...
ROW BC : ... .. . ... ... ... ... : ... .. . ... ... ... ... : ... .. . ... : ... .. . ... : ... .. . ...
ROW BD : ... .. . ... ... ... ... : ... .. . ... ... ... ... : ... .. . ... : ... .. . ... : ... .. . ...
ROW BE : ... .. . ... ... ... ... : ... .. . ... ... ... ... : ... .. . ... : ... .. . ... : ... .. . ...
ROW BF : ... .. . ... ... ... D00 : ... .. . ... ... ... ... : --- .. . ... : ... .. . ... : ... .. . ...
ROW C0 : ... .. . ... ... ... ... : ... .. . ... ... ... ... : ... .. . ... : ... .. . ... : ... .. . ...
ROW C1 : ... .. . ... ... ... ... : ... .. . ... ... ... ... : ... .. . ... : ... .. . ... : ... .. . ...
ROW C2 : ... .. . ... ... ... ... : ... .. . ... ... ... ... : ... .. . ... : ... .. . ... : ... .. . ...
ROW C3 : ... .. . ... ... ... ... : ... .. . ... ... ... ... : ... .. . ... : ... .. . ... : ... .. . ...
ROW C4 : ... .. . ... ... ... ... : ... .. . ... ... ... ... : ... .. . ... : ... .. . ... : ... .. . ...
ROW C5 : ... .. . ... ... ... ... : ... .. . ... ... ... ... : ... .. . ... : ... .. . ... : ... .. . ...
ROW C6 : ... .. . ... ... ... ... : ... .. . ... ... ... ... : ... .. . ... : ... .. . ... : ... .. . ...
ROW C7 : ... .. . ... ... ... ... : ... .. . ... ... ... ... : ... .. . ... : ... .. . ... : ... .. . ...
ROW C8 : ... .. . ... ... ... ... : ... .. . ... ... ... ... : ... .. . ... : ... .. . ... : ... .. . ...
ROW C9 : ... .. . ... ... ... ... : ... .. . ... ... ... ... : ... .. . ... : ... .. . ... : ... .. . ...
ROW CA : ... .. . ... ... ... ... : ... .. . ... ... ... ... : ... .. . ... : ... .. . ... : ... .. . ...
ROW CB : ... .. . ... ... ... ... : ... .. . ... ... ... ... : ... .. . ... : ... .. . ... : ... .. . ...
ROW CC : ... .. . ... ... ... ... : ... .. . ... ... ... ... : ... .. . ... : ... .. . ... : ... .. . ...
ROW CD : ... .. . ... ... ... ... : ... .. . ... ... ... ... : ... .. . ... : ... .. . ... : ... .. . ...
ROW CE : ... .. . ... ... ... ... : ... .. . ... ... ... ... : ... .. . ... : ... .. . ... : ... .. . ...
ROW CF : ... .. . ... ... ... ... : ... .. . ... ... ... ... : ... .. . ... : ... .. . ... : ... .. . ...
ROW D0 : ... .. . ... ... ... ... : ... .. . ... ... ... ... : ... .. . ... : ... .. . ... : ... .. . ...
ROW D1 : ... .. . ... ... ... ... : ... .. . ... ... ... ... : ... .. . ... : ... .. . ... : ... .. . ...
ROW D2 : ... .. . ... ... ... ... : ... .. . ... ... ... ... : ... .. . ... : ... .. . ... : ... .. . ...
ROW D3 : ... .. . ... ... ... ... : ... .. . ... ... ... ... : ... .. . ... : ... .. . ... : ... .. . ...
ROW D4 : ... .. . ... ... ... ... : ... .. . ... ... ... ... : ... .. . ... : ... .. . ... : ... .. . ...
ROW D5 : ... .. . ... ... ... ... : ... .. . ... ... ... ... : ... .. . ... : ... .. . ... : ... .. . ...
ROW D6 : ... .. . ... ... ... ... : ... .. . ... ... ... ... : ... .. . ... : ... .. . ... : ... .. . ...
ROW D7 : ... .. . ... ... ... ... : ... .. . ... ... ... ... : ... .. . ... : ... .. . ... : ... .. . ...
ROW D8 : ... .. . ... ... ... ... : ... .. . ... ... ... ... : ... .. . ... : ... .. . ... : ... .. . ...
ROW D9 : ... .. . ... ... ... ... : ... .. . ... ... ... ... : ... .. . ... : ... .. . ... : ... .. . ...
ROW DA : ... .. . ... ... ... ... : ... .. . ... ... ... ... : ... .. . ... : ... .. . ... : ... .. . ...
ROW DB : ... .. . ... ... ... ... : ... .. . ... ... ... ... : ... .. . ... : ... .. . ... : ... .. . ...
ROW DC : ... .. . ... ... ... ... : ... .. . ... ... ... ... : ... .. . ... : ... .. . ... : ... .. . ...
ROW DD : ... .. . ... ... ... ... : ... .. . ... ... ... ... : ... .. . ... : ... .. . ... : ... .. . ...
ROW DE : ... .. . ... ... ... ... : ... .. . ... ... ... ... : ... .. . ... : ... .. . ... : ... .. . ...
ROW DF : ... .. . ... ... ... ... : ... .. . ... ... ... ... : ... .. . ... : ... .. . ... : ... .. . ...

PATTERN 47
ROW 00 : B-2 00 5 V02 ... ... ... : G-3 00 5 V02 ... ... ... : D-3 00 . ... : 6-# 00 6 ... : ... .. . ...
ROW 01 : ... .. . ... ... ... ... : ... .. . ... ... ... ... : C-3 00 . ... : ... .. 5 ... : ... .. . ...
ROW 02 : ... .. 4 ... ... ... ... : ... .. 4 ... ... ... ... : C-3 00 . ... : ... .. 4 ... : ... .. . ...
ROW 03 : ... .. . ... ... ... ... : ... .. . ... ... ... ... : ... .. . ... : ... .. 3 ... : ... .. . ...
ROW 04 : ... .. 3 ... ... ... ... : ... .. 3 ... ... ... ... : ... .. . ... : ... .. . ... : ... .. . ...
ROW 05 : ... .. . ... ... ... ... : ... .. . ... ... ... ... : ... .. . ... : ... .. . ... : ... .. . ...
ROW 06 : ... .. . ... ... ... ... : ... .. . ... ... ... ... : ... .. . ... : ... .. . ... : ... .. . ...
ROW 07 : ... .. . ... ... ... ... : ... .. . ... ... ... ... : ... .. . ... : ... .. . ... : ... .. . ...
ROW 08 : ... .. . ... ... ... ... : ... .. . ... ... ... ... : ... .. . ... : ... .. . ... : ... .. . ...
ROW 09 : ... .. . ... ... ... ... : ... .. . ... ... ... ... : ... .. . ... : ... .. . ... : ... .. . ...
ROW 0A : ... .. . ... ... ... ... : ... .. . ... ... ... ... : ... .. . ... : ... .. . ... : ... .. . ...
ROW 0B : ... .. . ... ... ... ... : ... .. . ... ... ... ... : ... .. . ... : ... .. . ... : ... .. . ...
ROW 0C : ... .. . ... ... ... ... : ... .. . ... ... ... ... : ... .. . ... : ... .. 2 ... : ... .. . ...
ROW 0D : ... .. . ... ... ... ... : ... .. . ... ... ... ... : ... .. . ... : ... .. . ... : ... .. . ...
ROW 0E : ... .. . ... ... ... ... : ... .. . ... ... ... ... : ... .. . ... : ... .. . ... : ... .. . ...
ROW 0F : ... .. . ... ... ... ... : ... .. . ... ... ... ... : ... .. . ... : ... .. . ... : ... .. . ...
ROW 10 : ... .. . ... ... ... ... : ... .. . ... ... ... ... : ... .. . ... : ... .. . ... : ... .. . ...
ROW 11 : ... .. . ... ... ... ... : ... .. . ... ... ... ... : ... .. . ... : ... .. . ... : ... .. . ...
ROW 12 : ... .. . ... ... ... ... : ... .. . ... ... ... ... : ... .. . ... : ... .. . ... : ... .. . ...
ROW 13 : ... .. . ... ... ... ... : ... .. . ... ... ... ... : ... .. . ... : ... .. . ... : ... .. . ...
ROW 14 : ... .. . ... ... ... ... : ... .. . ... ... ... ... : ... .. . ... : ... .. . ... : ... .. . ...
ROW 15 : ... .. . ... ... ... ... : ... .. . ... ... ... ... : ... .. . ... : ... .. . ... : ... .. . ...
ROW 16 : ... .. . ... ... ... ... : ... .. . ... ... ... ... : ... .. . ... : ... .. . ... : ... .. . ...
ROW 17 : ... .. . ... ... ... ... : ... .. . ... ... ... ... : ... .. . ... : ... .. . ... : ... .. . ...
ROW 18 : ... .. . ... ... ... ... : ... .. . ... ... ... ... : ... .. . ... : ... .. 1 ... : ... .. . ...
ROW 19 : ... .. . ... ... ... ... : ... .. . ... ... ... ... : ... .. . ... : ... .. . ... : ... .. . ...
ROW 1A : ... .. . ... ... ... ... : ... .. . ... ... ... ... : ... .. . ... : ... .. . ... : ... .. . ...
ROW 1B : ... .. . ... ... ... ... : ... .. . ... ... ... ... : ... .. . ... : ... .. . ... : ... .. . ...
ROW 1C : ... .. . ... ... ... ... : ... .. . ... ... ... ... : ... .. . ... : ... .. . ... : ... .. . ...
ROW 1D : ... .. . ... ... ... ... : ... .. . ... ... ... ... : ... .. . ... : ... .. . ... : ... .. . ...
ROW 1E : ... .. . ... ... ... F02 : ... .. . ... ... ... ... : ... .. . ... : ... .. . ... : ... .. . ...
ROW 1F : ... .. . ... ... ... ... : ... .. . ... ... ... ... : ... .. . ... : ... .. . ... : ... .. . ...
ROW 20 : ... .. . ... ... ... ... : ... .. . ... ... ... ... : ... .. . ... : ... .. . ... : ... .. . ...
ROW 21 : ... .. . ... ... ... ... : ... .. . ... ... ... ... : ... .. . ... : ... .. . ... : ... .. . ...
ROW 22 : ... .. . ... ... ... ... : ... .. . ... ... ... ... : ... .. . ... : ... .. . ... : ... .. . ...
ROW 23 : ... .. . ... ... ... ... : ... .. . ... ... ... ... : ... .. . ... : ... .. . ... : ... .. . ...
ROW 24 : ... .. 2 ... ... ... F01 : ... .. 2 ... ... ... ... : ... .. . ... : --- .. . ... : ... .. . ...
ROW 25 : ... .. . ... ... ... ... : ... .. . ... ... ... ... : ... .. . ... : ... .. . ... : ... .. . ...
ROW 26 : ... .. . ... ... ... ... : ... .. . ... ... ... ... : ... .. . ... : ... .. . ... : ... .. . ...
ROW 27 : ... .. . ... ... ... ... : ... .. . ... ... ... ... : ... .. . ... : ... .. . ... : ... .. . ...
ROW 28 : ... .. . ... ... ... ... : ... .. . ... ... ... ... : ... .. . ... : ... .. . ... : ... .. . ...
ROW 29 : ... .. . ... ... ... ... : ... .. . ... ... ... ... : ... .. . ... : ... .. . ... : ... .. . ...
ROW 2A : ... .. 1 ... ... ... ... : ... .. 1 ... ... ... ... : ... .. . ... : ... .. . ... : ... .. . ...
ROW 2B : ... .. . ... ... ... ... : ... .. . ... ... ... ... : ... .. . ... : ... .. . ... : ... .. . ...
ROW 2C : ... .. . ... ... ... ... : ... .. . ... ... ... ... : ... .. . ... : ... .. . ... : ... .. . ...
ROW 2D : ... .. . ... ... ... ... : ... .. . ... ... ... ... : ... .. . ... : ... .. . ... : ... .. . ...
ROW 2E : ... .. . ... ... ... ... : ... .. . ... ... ... ... : ... .. . ... : ... .. . ... : ... .. . ...
ROW 2F : ... .. . ... ... ... ... : ... .. . ... ... ... ... : --- .. . ... : ... .. . ... : ... .. . ...
ROW 30 : A-2 00 5 ... ... ... ... : E-3 00 5 ... ... ... ... : D-3 00 . ... : 6-# 00 6 ... : ... .. . ...
ROW 31 : ... .. . ... ... ... ... : ... .. . ... ... ... ... : C-3 00 . ... : ... .. 5 ... : ... .. . ...
ROW 32 : ... .. 4 ... ... ... ... : ... .. 4 ... ... ... ... : C-3 00 . ... : ... .. 4 ... : ... .. . ...
ROW 33 : ... .. . ... ... ... ... : ... .. . ... ... ... ... : ... .. . ... : ... .. 3 ... : ... .. . ...
ROW 34 : ... .. 3 ... ... ... ... : ... .. 3 ... ... ... ... : ... .. . ... : ... .. . ... : ... .. . ...
ROW 35 : ... .. . ... ... ... ... : ... .. . ... ... ... ... : ... .. . ... : ... .. . ... : ... .. . ...
ROW 36 : ... .. . ... ... ... ... : ... .. . ... ... ... ... : ... .. . ... : ... .. . ... : ... .. . ...
ROW 37 : ... .. . ... ... ... ... : ... .. . ... ... ... ... : ... .. . ... : ... .. . ... : ... .. . ...
ROW 38 : ... .. . ... ... ... ... : ... .. . ... ... ... ... : ... .. . ... : ... .. . ... : ... .. . ...
ROW 39 : ... .. . ... ... ... ... : ... .. . ... ... ... ... : ... .. . ... : ... .. . ... : ... .. . ...
ROW 3A : ... .. . ... ... ... ... : ... .. . ... ... ... ... : ... .. . ... : ... .. . ... : ... .. . ...
ROW 3B : ... .. . ... ... ... ... : ... .. . ... ... ... ... : ... .. . ... : ... .. . ... : ... .. . ...
ROW 3C : ... .. . ... ... ... ... : ... .. . ... ... ... ... : ... .. . ... : ... .. 2 ... : ... .. . ...
ROW 3D : ... .. . ... ... ... ... : ... .. . ... ... ... ... : ... .. . ... : ... .. . ... : ... .. . ...
ROW 3E : ... .. . ... ... ... ... : ... .. . ... ... ... ... : ... .. . ... : ... .. . ... : ... .. . ...
ROW 3F : ... .. . ... ... ... ... : ... .. . ... ... ... ... : ... .. . ... : ... .. . ... : ... .. . ...
ROW 40 : ... .. . ... ... ... ... : ... .. . ... ... ... ... : ... .. . ... : ... .. . ... : ... .. . ...
ROW 41 : ... .. . ... ... ... ... : ... .. . ... ... ... ... : ... .. . ... : ... .. . ... : ... .. . ...
ROW 42 : ... .. . ... ... ... ... : ... .. . ... ... ... ... : ... .. . ... : ... .. . ... : ... .. . ...
ROW 43 : ... .. . ... ... ... ... : ... .. . ... ... ... ... : ... .. . ... : ... .. . ... : ... .. . ...
ROW 44 : ... .. . ... ... ... ... : ... .. . ... ... ... ... : ... .. . ... : ... .. . ... : ... .. . ...
ROW 45 : ... .. . ... ... ... ... : ... .. . ... ... ... ... : ... .. . ... : ... .. . ... : ... .. . ...
ROW 46 : ... .. . ... ... ... ... : ... .. . ... ... ... ... : ... .. . ... : ... .. . ... : ... .. . ...
ROW 47 : ... .. . ... ... ... ... : ... .. . ... ... ... ... : ... .. . ... : ... .. . ... : ... .. . ...
ROW 48 : ... .. . ... ... ... ... : ... .. . ... ... ... ... : ... .. . ... : ... .. 1 ... : ... .. . ...
ROW 49 : ... .. . ... ... ... ... : ... .. . ... ... ... ... : ... .. . ... : ... .. . ... : ... .. . ...
ROW 4A : ... .. . ... ... ... ... : ... .. . ... ... ... ... : ... .. . ... : ... .. . ... : ... .. . ...
ROW 4B : ... .. . ... ... ... ... : ... .. . ... ... ... ... : ... .. . ... : ... .. . ... : ... .. . ...
ROW 4C : ... .. . ... ... ... ... : ... .. . ... ... ... ... : ... .. . ... : ... .. . ... : ... .. . ...
ROW 4D : ... .. . ... ... ... ... : ... .. . ... ... ... ... : ... .. . ... : ... .. . ... : ... .. . ...
ROW 4E : ... .. . ... ... ... F02 : ... .. . ... ... ... ... : ... .. . ... : ... .. . ... : ... .. . ...
ROW 4F : ... .. . ... ... ... ... : ... .. . ... ... ... ... : ... .. . ... : ... .. . ... : ... .. . ...
ROW 50 : ... .. . ... ... ... ... : ... .. . ... ... ... ... : ... .. . ... : ... .. . ... : ... .. . ...
ROW 51 : ... .. . ... ... ... ... : ... .. . ... ... ... ... : ... .. . ... : ... .. . ... : ... .. . ...
ROW 52 : ... .. . ... ... ... ... : ... .. . ... ... ... ... : ... .. . ... : ... .. . ... : ... .. . ...
ROW 53 : ... .. . ... ... ... ... : ... .. . ... ... ... ... : ... .. . ... : ... .. . ... : ... .. . ...
ROW 54 : ... .. 2 ... ... ... F01 : ... .. 2 ... ... ... ... : ... .. . ... : --- .. . ... : ... .. . ...
ROW 55 : ... .. . ... ... ... ... : ... .. . ... ... ... ... : ... .. . ... : ... .. . ... : ... .. . ...
ROW 56 : ... .. . ... ... ... ... : ... .. . ... ... ... ... : ... .. . ... : ... .. . ... : ... .. . ...
ROW 57 : ... .. . ... ... ... ... : ... .. . ... ... ... ... : ... .. . ... : ... .. . ... : ... .. . ...
ROW 58 : ... .. . ... ... ... ... : ... .. . ... ... ... ... : ... .. . ... : ... .. . ... : ... .. . ...
ROW 59 : ... .. . ... ... ... ... : ... .. . ... ... ... ... : ... .. . ... : ... .. . ... : ... .. . ...
ROW 5A : ... .. 1 ... ... ... ... : ... .. 1 ... ... ... ... : ... .. . ... : ... .. . ... : ... .. . ...
ROW 5B : ... .. . ... ... ... ... : ... .. . ... ... ... ... : ... .. . ... : ... .. . ... : ... .. . ...
ROW 5C : ... .. . ... ... ... ... : ... .. . ... ... ... ... : ... .. . ... : ... .. . ... : ... .. . ...
ROW 5D : ... .. . ... ... ... ... : ... .. . ... ... ... ... : ... .. . ... : ... .. . ... : ... .. . ...
ROW 5E : ... .. . ... ... ... ... : ... .. . ... ... ... ... : ... .. . ... : ... .. . ... : ... .. . ...
ROW 5F : ... .. . ... ... ... ... : ... .. . ... ... ... ... : --- .. . ... : ... .. . ... : ... .. . ...
ROW 60 : G-2 00 5 ... ... ... ... : E-3 00 5 ... ... ... ... : D-3 00 . ... : 6-# 00 6 ... : ... .. . ...
ROW 61 : ... .. . ... ... ... ... : ... .. . ... ... ... ... : C-3 00 . ... : ... .. 5 ... : ... .. . ...
ROW 62 : ... .. 4 ... ... ... ... : ... .. 4 ... ... ... ... : C-3 00 . ... : ... .. 4 ... : ... .. . ...
ROW 63 : ... .. . ... ... ... ... : ... .. . ... ... ... ... : ... .. . ... : ... .. 3 ... : ... .. . ...
ROW 64 : ... .. 3 ... ... ... ... : ... .. 3 ... ... ... ... : ... .. . ... : ... .. . ... : ... .. . ...
ROW 65 : ... .. . ... ... ... ... : ... .. . ... ... ... ... : ... .. . ... : ... .. . ... : ... .. . ...
ROW 66 : ... .. . ... ... ... ... : ... .. . ... ... ... ... : ... .. . ... : ... .. . ... : ... .. . ...
ROW 67 : ... .. . ... ... ... ... : ... .. . ... ... ... ... : ... .. . ... : ... .. . ... : ... .. . ...
ROW 68 : ... .. . ... ... ... ... : ... .. . ... ... ... ... : ... .. . ... : ... .. . ... : ... .. . ...
ROW 69 : ... .. . ... ... ... ... : ... .. . ... ... ... ... : ... .. . ... : ... .. . ... : ... .. . ...
ROW 6A : ... .. . ... ... ... ... : ... .. . ... ... ... ... : ... .. . ... : ... .. . ... : ... .. . ...
ROW 6B : ... .. . ... ... ... ... : ... .. . ... ... ... ... : ... .. . ... : ... .. . ... : ... .. . ...
ROW 6C : ... .. . ... ... ... ... : ... .. . ... ... ... ... : ... .. . ... : ... .. 2 ... : ... .. . ...
ROW 6D : ... .. . ... ... ... ... : ... .. . ... ... ... ... : ... .. . ... : ... .. . ... : ... .. . ...
ROW 6E : ... .. . ... ... ... ... : ... .. . ... ... ... ... : ... .. . ... : ... .. . ... : ... .. . ...
ROW 6F : ... .. . ... ... ... ... : ... .. . ... ... ... ... : ... .. . ... : ... .. . ... : ... .. . ...
ROW 70 : ... .. . ... ... ... ... : ... .. . ... ... ... ... : ... .. . ... : ... .. . ... : ... .. . ...
ROW 71 : ... .. . ... ... ... ... : ... .. . ... ... ... ... : ... .. . ... : ... .. . ... : ... .. . ...
ROW 72 : ... .. . ... ... ... ... : ... .. . ... ... ... ... : ... .. . ... : ... .. . ... : ... .. . ...
ROW 73 : ... .. . ... ... ... ... : ... .. . ... ... ... ... : ... .. . ... : ... .. . ... : ... .. . ...
ROW 74 : ... .. . ... ... ... ... : ... .. . ... ... ... ... : ... .. . ... : ... .. . ... : ... .. . ...
ROW 75 : ... .. . ... ... ... F02 : ... .. . ... ... ... ... : ... .. . ... : ... .. . ... : ... .. . ...
ROW 76 : ... .. . ... ... ... ... : ... .. . ... ... ... ... : ... .. . ... : ... .. . ... : ... .. . ...
ROW 77 : ... .. . ... ... ... ... : ... .. . ... ... ... ... : ... .. . ... : ... .. . ... : ... .. . ...
ROW 78 : G-3 00 1 V01 ... ... F01 : ... .. 2 ... ... ... ... : ... .. . ... : ... .. 1 ... : ... .. . ...
ROW 79 : ... .. 2 ... ... ... ... : ... .. . ... ... ... ... : ... .. . ... : ... .. . ... : ... .. . ...
ROW 7A : ... .. 3 ... ... ... ... : ... .. . ... ... ... ... : ... .. . ... : ... .. . ... : ... .. . ...
ROW 7B : ... .. 4 ... ... ... ... : ... .. . ... ... ... ... : ... .. . ... : ... .. . ... : ... .. . ...
ROW 7C : ... .. 5 ... ... ... ... : ... .. . ... ... ... ... : ... .. . ... : ... .. . ... : ... .. . ...
ROW 7D : ... .. . ... ... ... ... : ... .. . ... ... ... ... : ... .. . ... : ... .. . ... : ... .. . ...
ROW 7E : ... .. . ... ... ... ... : ... .. 1 ... ... ... ... : ... .. . ... : ... .. . ... : ... .. . ...
ROW 7F : ... .. . ... ... ... ... : ... .. . ... ... ... ... : ... .. . ... : ... .. . ... : ... .. . ...
ROW 80 : ... .. . ... ... ... ... : ... .. . ... ... ... ... : ... .. . ... : ... .. . ... : ... .. . ...
ROW 81 : ... .. . ... ... ... ... : ... .. . ... ... ... ... : ... .. . ... : ... .. . ... : ... .. . ...
ROW 82 : ... .. 2 ... ... ... ... : ... .. . ... ... ... ... : ... .. . ... : ... .. . ... : ... .. . ...
ROW 83 : ... .. . ... ... ... ... : ... .. . ... ... ... ... : ... .. . ... : ... .. . ... : ... .. . ...
ROW 84 : C-4 00 1 ... ... ... ... : G-3 00 1 V01 ... ... P81 : ... .. . ... : --- .. . ... : ... .. . ...
ROW 85 : ... .. 2 ... ... ... ... : ... .. . ... ... ... ... : ... .. . ... : ... .. . ... : ... .. . ...
ROW 86 : ... .. 3 ... ... ... ... : ... .. . ... ... ... ... : ... .. . ... : ... .. . ... : ... .. . ...
ROW 87 : ... .. 4 ... ... ... ... : ... .. . ... ... ... ... : ... .. . ... : ... .. . ... : ... .. . ...
ROW 88 : ... .. 5 ... ... ... ... : ... .. . ... ... ... ... : ... .. . ... : ... .. . ... : ... .. . ...
ROW 89 : ... .. . ... ... ... ... : ... .. . ... ... ... ... : ... .. . ... : ... .. . ... : ... .. . ...
ROW 8A : ... .. . ... ... ... ... : C-4 00 . ... ... ... ... : ... .. . ... : ... .. . ... : ... .. . ...
ROW 8B : ... .. . ... ... ... ... : ... .. . ... ... ... ... : ... .. . ... : ... .. . ... : ... .. . ...
ROW 8C : ... .. . ... ... ... ... : ... .. . ... ... ... ... : ... .. . ... : ... .. . ... : ... .. . ...
ROW 8D : ... .. . ... ... ... ... : ... .. . ... ... ... ... : ... .. . ... : ... .. . ... : ... .. . ...
ROW 8E : ... .. 2 ... ... ... ... : ... .. . ... ... ... ... : ... .. . ... : ... .. . ... : ... .. . ...
ROW 8F : ... .. . ... ... ... D00 : ... .. . ... ... ... ... : ... .. . ... : ... .. . ... : ... .. . ...
ROW 90 : ... .. . ... ... ... ... : ... .. . ... ... ... ... : ... .. . ... : ... .. . ... : ... .. . ...
ROW 91 : ... .. . ... ... ... ... : ... .. . ... ... ... ... : ... .. . ... : ... .. . ... : ... .. . ...
ROW 92 : ... .. . ... ... ... ... : ... .. . ... ... ... ... : ... .. . ... : ... .. . ... : ... .. . ...
ROW 93 : ... .. . ... ... ... ... : ... .. . ... ... ... ... : ... .. . ... : ... .. . ... : ... .. . ...
ROW 94 : ... .. . ... ... ... ... : ... .. . ... ... ... ... : ... .. . ... : ... .. . ... : ... .. . ...
ROW 95 : ... .. . ... ... ... ... : ... .. . ... ... ... ... : ... .. . ... : ... .. . ... : ... .. . ...
ROW 96 : ... .. . ... ... ... ... : ... .. . ... ... ... ... : ... .. . ... : ... .. . ... : ... .. . ...
ROW 97 : ... .. . ... ... ... ... : ... .. . ... ... ... ... : ... .. . ... : ... .. . ... : ... .. . ...
ROW 98 : ... .. . ... ... ... ... : ... .. . ... ... ... ... : ... .. . ... : ... .. . ... : ... .. . ...
ROW 99 : ... .. . ... ... ... ... : ... .. . ... ... ... ... : ... .. . ... : ... .. . ... : ... .. . ...
ROW 9A : ... .. . ... ... ... ... : ... .. . ... ... ... ... : ... .. . ... : ... .. . ... : ... .. . ...
ROW 9B : ... .. . ... ... ... ... : ... .. . ... ... ... ... : ... .. . ... : ... .. . ... : ... .. . ...
ROW 9C : ... .. . ... ... ... ... : ... .. . ... ... ... ... : ... .. . ... : ... .. . ... : ... .. . ...
ROW 9D : ... .. . ... ... ... ... : ... .. . ... ... ... ... : ... .. . ... : ... .. . ... : ... .. . ...
ROW 9E : ... .. . ... ... ... ... : ... .. . ... ... ... ... : ... .. . ... : ... .. . ... : ... .. . ...
ROW 9F : ... .. . ... ... ... ... : ... .. . ... ... ... ... : ... .. . ... : ... .. . ... : ... .. . ...
ROW A0 : ... .. . ... ... ... ... : ... .. . ... ... ... ... : ... .. . ... : ... .. . ... : ... .. . ...
ROW A1 : ... .. . ... ... ... ... : ... .. . ... ... ... ... : ... .. . ... : ... .. . ... : ... .. . ...
ROW A2 : ... .. . ... ... ... ... : ... .. . ... ... ... ... : ... .. . ... : ... .. . ... : ... .. . ...
ROW A3 : ... .. . ... ... ... ... : ... .. . ... ... ... ... : ... .. . ... : ... .. . ... : ... .. . ...
ROW A4 : ... .. . ... ... ... ... : ... .. . ... ... ... ... : ... .. . ... : ... .. . ... : ... .. . ...
ROW A5 : ... .. . ... ... ... ... : ... .. . ... ... ... ... : ... .. . ... : ... .. . ... : ... .. . ...
ROW A6 : ... .. . ... ... ... ... : ... .. . ... ... ... ... : ... .. . ... : ... .. . ... : ... .. . ...
ROW A7 : ... .. . ... ... ... ... : ... .. . ... ... ... ... : ... .. . ... : ... .. . ... : ... .. . ...
ROW A8 : ... .. 1 ... ... ... ... : ... .. . ... ... ... ... : ... .. . ... : ... .. . ... : ... .. . ...
ROW A9 : ... .. . ... ... ... ... : ... .. . ... ... ... ... : ... .. . ... : ... .. . ... : ... .. . ...
ROW AA : ... .. . ... ... ... ... : ... .. . ... ... ... ... : ... .. . ... : ... .. . ... : ... .. . ...
ROW AB : ... .. . ... ... ... ... : ... .. . ... ... ... ... : ... .. . ... : ... .. . ... : ... .. . ...
ROW AC : ... .. . ... ... ... ... : ... .. . ... ... ... ... : ... .. . ... : ... .. . ... : ... .. . ...
ROW AD : ... .. . ... ... ... ... : ... .. . ... ... ... ... : ... .. . ... : ... .. . ... : ... .. . ...
ROW AE : ... .. . ... ... ... ... : ... .. . ... ... ... ... : ... .. . ... : ... .. . ... : ... .. . ...
ROW AF : ... .. . ... ... ... ... : ... .. . ... ... ... ... : ... .. . ... : ... .. . ... : ... .. . ...
ROW B0 : ... .. . ... ... ... ... : ... .. . ... ... ... ... : ... .. . ... : ... .. . ... : ... .. . ...
ROW B1 : ... .. . ... ... ... ... : ... .. . ... ... ... ... : ... .. . ... : ... .. . ... : ... .. . ...
ROW B2 : ... .. . ... ... ... ... : ... .. . ... ... ... ... : ... .. . ... : ... .. . ... : ... .. . ...
ROW B3 : ... .. . ... ... ... ... : ... .. . ... ... ... ... : ... .. . ... : ... .. . ... : ... .. . ...
ROW B4 : ... .. . ... ... ... ... : G-3 00 1 V01 ... ... P81 : ... .. . ... : ... .. . ... : ... .. . ...
ROW B5 : ... .. . ... ... ... ... : ... .. . ... ... ... ... : ... .. . ... : ... .. . ... : ... .. . ...
ROW B6 : ... .. . ... ... ... ... : ... .. . ... ... ... ... : ... .. . ... : ... .. . ... : ... .. . ...
ROW B7 : ... .. . ... ... ... ... : ... .. . ... ... ... ... : ... .. . ... : ... .. . ... : ... .. . ...
ROW B8 : ... .. . ... ... ... ... : ... .. . ... ... ... ... : ... .. . ... : ... .. . ... : ... .. . ...
ROW B9 : ... .. . ... ... ... ... : ... .. . ... ... ... ... : ... .. . ... : ... .. . ... : ... .. . ...
ROW BA : ... .. . ... ... ... ... : ... .. . ... ... ... ... : ... .. . ... : ... .. . ... : ... .. . ...
ROW BB : ... .. . ... ... ... ... : ... .. . ... ... ... ... : ... .. . ... : ... .. . ... : ... .. . ...
ROW BC : ... .. . ... ... ... ... : ... .. . ... ... ... ... : ... .. . ... : ... .. . ... : ... .. . ...
ROW BD : ... .. . ... ... ... ... : ... .. . ... ... ... ... : ... .. . ... : ... .. . ... : ... .. . ...
ROW BE : ... .. . ... ... ... ... : ... .. . ... ... ... ... : ... .. . ... : ... .. . ... : ... .. . ...
ROW BF : ... .. . ... ... ... ... : ... .. . ... ... ... ... : ... .. . ... : ... .. . ... : ... .. . ...
ROW C0 : G-3 00 1 V01 ... ... ... : ... .. . ... ... ... ... : ... .. . ... : ... .. . ... : ... .. . ...
ROW C1 : ... .. 2 ... ... ... ... : ... .. . ... ... ... ... : ... .. . ... : ... .. . ... : ... .. . ...
ROW C2 : ... .. 3 ... ... ... ... : ... .. . ... ... ... ... : ... .. . ... : ... .. . ... : ... .. . ...
ROW C3 : ... .. 4 ... ... ... ... : ... .. . ... ... ... ... : ... .. . ... : ... .. . ... : ... .. . ...
ROW C4 : ... .. . ... ... ... ... : ... .. . ... ... ... ... : ... .. . ... : ... .. . ... : ... .. . ...
ROW C5 : ... .. . ... ... ... ... : ... .. . ... ... ... ... : ... .. . ... : ... .. . ... : ... .. . ...
ROW C6 : ... .. . ... ... ... ... : ... .. . ... ... ... ... : ... .. . ... : ... .. . ... : ... .. . ...
ROW C7 : ... .. . ... ... ... ... : ... .. . ... ... ... ... : ... .. . ... : ... .. . ... : ... .. . ...
ROW C8 : ... .. . ... ... ... ... : ... .. . ... ... ... ... : ... .. . ... : ... .. . ... : ... .. . ...
ROW C9 : ... .. . ... ... ... ... : ... .. . ... ... ... ... : ... .. . ... : ... .. . ... : ... .. . ...
ROW CA : ... .. 1 ... ... ... ... : ... .. . ... ... ... ... : ... .. . ... : ... .. . ... : ... .. . ...
ROW CB : ... .. . ... ... ... ... : ... .. . ... ... ... ... : ... .. . ... : ... .. . ... : ... .. . ...
ROW CC : C-4 00 1 ... ... ... ... : ... .. . ... ... ... ... : ... .. . ... : ... .. . ... : ... .. . ...
ROW CD : ... .. 2 ... ... ... ... : ... .. . ... ... ... ... : ... .. . ... : ... .. . ... : ... .. . ...
ROW CE : ... .. 3 ... ... ... ... : ... .. . ... ... ... ... : ... .. . ... : ... .. . ... : ... .. . ...
ROW CF : ... .. 4 ... ... ... ... : ... .. . ... ... ... ... : ... .. . ... : ... .. . ... : ... .. . ...
ROW D0 : ... .. . ... ... ... ... : ... .. . ... ... ... ... : ... .. . ... : ... .. . ... : ... .. . ...
ROW D1 : ... .. . ... ... ... ... : ... .. . ... ... ... ... : ... .. . ... : ... .. . ... : ... .. . ...
ROW D2 : ... .. . ... ... ... ... : ... .. . ... ... ... ... : ... .. . ... : ... .. . ... : ... .. . ...
ROW D3 : ... .. . ... ... ... ... : ... .. . ... ... ... ... : ... .. . ... : ... .. . ... : ... .. . ...
ROW D4 : ... .. . ... ... ... ... : ... .. . ... ... ... ... : ... .. . ... : ... .. . ... : ... .. . ...
ROW D5 : ... .. . ... ... ... ... : ... .. . ... ... ... ... : ... .. . ... : ... .. . ... : ... .. . ...
ROW D6 : ... .. . ... ... ... ... : ... .. . ... ... ... ... : ... .. . ... : ... .. . ... : ... .. . ...
ROW D7 : ... .. . ... ... ... D00 : ... .. . ... ... ... ... : ... .. . ... : ... .. . ... : ... .. . ...
ROW D8 : ... .. . ... ... ... ... : ... .. . ... ... ... ... : ... .. . ... : ... .. . ... : ... .. . ...
ROW D9 : ... .. . ... ... ... ... : ... .. . ... ... ... ... : ... .. . ... : ... .. . ... : ... .. . ...
ROW DA : ... .. . ... ... ... ... : ... .. . ... ... ... ... : ... .. . ... : ... .. . ... : ... .. . ...
ROW DB : ... .. . ... ... ... ... : ... .. . ... ... ... ... : ... .. . ... : ... .. . ... : ... .. . ...
ROW DC : ... .. . ... ... ... ... : ... .. . ... ... ... ... : ... .. . ... : ... .. . ... : ... .. . ...
ROW DD : ... .. . ... ... ... ... : ... .. . ... ... ... ... : ... .. . ... : ... .. . ... : ... .. . ...
ROW DE : ... .. . ... ... ... ... : ... .. . ... ... ... ... : ... .. . ... : ... .. . ... : ... .. . ...
ROW DF : ... .. . ... ... ... ... : ... .. . ... ... ... ... : ... .. . ... : ... .. . ... : ... .. . ...

PATTERN 48
ROW 00 : G-4 00 6 V01 ... ... ... : A-3 00 5 V02 ... ... P80 : E-3 00 . ... : 2-# 00 4 ... : ... .. . ...
ROW 01 : ... .. . ... ... ... ... : ... .. 4 ... ... ... ... : ... .. . ... : ... .. . ... : ... .. . ...
ROW 02 : ... .. 5 ... ... ... ... : ... .. 3 ... ... ... ... : ... .. . ... : ... .. 3 ... : ... .. . ...
ROW 03 : ... .. . ... ... ... ... : ... .. 2 ... ... ... ... : ... .. . ... : ... .. . ... : ... .. . ...
ROW 04 : ... .. 4 ... ... ... ... : ... .. 1 ... ... ... ... : ... .. . ... : ... .. 2 ... : ... .. . ...
ROW 05 : ... .. . ... ... ... ... : ... .. . ... ... ... ... : ... .. . ... : ... .. . ... : ... .. . ...
ROW 06 : ... .. . ... ... ... ... : ... .. 0 ... ... ... ... : ... .. . ... : ... .. 1 ... : ... .. . ...
ROW 07 : ... .. . ... ... ... ... : ... .. . ... ... ... ... : ... .. . ... : ... .. . ... : ... .. . ...
ROW 08 : ... .. . ... ... ... ... : ... .. . ... ... ... ... : ... .. . ... : ... .. 0 ... : ... .. . ...
ROW 09 : ... .. . ... ... ... ... : ... .. 2 ... ... ... ... : ... .. . ... : ... .. . ... : ... .. . ...
ROW 0A : ... .. . ... ... ... ... : ... .. 1 ... ... ... ... : ... .. . ... : ... .. . ... : ... .. . ...
ROW 0B : ... .. . ... ... ... ... : ... .. . ... ... ... ... : ... .. . ... : ... .. . ... : ... .. . ...
ROW 0C : ... .. . ... ... ... ... : B-3 00 5 ... ... ... ... : --- .. . ... : F-# 00 4 ... : ... .. . ...
ROW 0D : ... .. . ... ... ... ... : ... .. 4 ... ... ... ... : ... .. . ... : ... .. . ... : ... .. . ...
ROW 0E : ... .. . ... ... ... ... : ... .. 3 ... ... ... ... : ... .. . ... : ... .. 3 ... : ... .. . ...
ROW 0F : ... .. . ... ... ... ... : ... .. 2 ... ... ... ... : ... .. . ... : ... .. . ... : ... .. . ...
ROW 10 : ... .. . ... ... ... ... : ... .. 1 ... ... ... ... : ... .. . ... : ... .. 2 ... : ... .. . ...
ROW 11 : ... .. . ... ... ... ... : ... .. . ... ... ... ... : ... .. . ... : ... .. . ... : ... .. . ...
ROW 12 : ... .. . ... ... ... ... : ... .. 0 ... ... ... ... : ... .. . ... : ... .. 1 ... : ... .. . ...
ROW 13 : ... .. . ... ... ... ... : ... .. . ... ... ... ... : ... .. . ... : ... .. . ... : ... .. . ...
ROW 14 : ... .. . ... ... ... ... : ... .. . ... ... ... ... : ... .. . ... : ... .. 0 ... : ... .. . ...
ROW 15 : ... .. . ... ... ... ... : A-3 00 2 ... ... ... ... : ... .. . ... : ... .. . ... : ... .. . ...
ROW 16 : ... .. . ... ... ... ... : ... .. 1 ... ... ... ... : ... .. . ... : ... .. . ... : ... .. . ...
ROW 17 : ... .. . ... ... ... ... : ... .. . ... ... ... ... : ... .. . ... : ... .. . ... : ... .. . ...
ROW 18 : ... .. . ... ... ... ... : D-4 00 5 ... ... ... ... : E-3 00 . ... : D-# 00 4 ... : ... .. . ...
ROW 19 : ... .. . ... ... ... ... : ... .. 4 ... ... ... ... : ... .. . ... : ... .. . ... : ... .. . ...
ROW 1A : ... .. . ... ... ... ... : ... .. 3 ... ... ... ... : ... .. . ... : ... .. . ... : ... .. . ...
ROW 1B : ... .. . ... ... ... ... : ... .. 2 ... ... ... ... : ... .. . ... : ... .. . ... : ... .. . ...
ROW 1C : ... .. . ... ... ... ... : ... .. 1 ... ... ... ... : ... .. . ... : ... .. 3 ... : ... .. . ...
ROW 1D : ... .. . ... ... ... ... : ... .. . ... ... ... ... : ... .. . ... : ... .. . ... : ... .. . ...
ROW 1E : ... .. . ... ... ... ... : ... .. . ... ... ... ... : ... .. . ... : ... .. . ... : ... .. . ...
ROW 1F : ... .. . ... ... ... ... : ... .. . ... ... ... ... : ... .. . ... : ... .. . ... : ... .. . ...
ROW 20 : ... .. . ... ... ... ... : ... .. . ... ... ... ... : ... .. . ... : ... .. 2 ... : ... .. . ...
ROW 21 : ... .. . ... ... ... ... : B-3 00 2 ... ... ... ... : ... .. . ... : ... .. . ... : ... .. . ...
ROW 22 : ... .. . ... ... ... ... : ... .. 1 ... ... ... ... : ... .. . ... : ... .. . ... : ... .. . ...
ROW 23 : ... .. . ... ... ... ... : ... .. . ... ... ... ... : ... .. . ... : ... .. . ... : ... .. . ...
ROW 24 : ... .. . ... ... ... ... : G-4 00 5 ... ... ... ... : --- 00 . ... : ... .. 1 ... : ... .. . ...
ROW 25 : ... .. . ... ... ... ... : ... .. 4 ... ... ... ... : ... .. . ... : ... .. . ... : ... .. . ...
ROW 26 : ... .. . ... ... ... ... : ... .. 3 ... ... ... ... : ... .. . ... : ... .. . ... : ... .. . ...
ROW 27 : ... .. . ... ... ... ... : ... .. 2 ... ... ... ... : ... .. . ... : ... .. . ... : ... .. . ...
ROW 28 : ... .. . ... ... ... ... : ... .. 1 ... ... ... ... : ... .. . ... : ... .. . ... : ... .. . ...
ROW 29 : ... .. . ... ... ... ... : ... .. . ... ... ... ... : ... .. . ... : ... .. . ... : ... .. . ...
ROW 2A : ... .. . ... ... ... ... : ... .. 0 ... ... ... ... : ... .. . ... : ... .. . ... : ... .. . ...
ROW 2B : ... .. . ... ... ... ... : ... .. . ... ... ... ... : ... .. . ... : ... .. . ... : ... .. . ...
ROW 2C : ... .. . ... ... ... ... : ... .. . ... ... ... ... : ... .. . ... : ... .. . ... : ... .. . ...
ROW 2D : ... .. . ... ... ... ... : D-4 00 3 ... ... ... ... : ... .. . ... : ... .. . ... : ... .. . ...
ROW 2E : ... .. . ... ... ... ... : ... .. 2 ... ... ... ... : ... .. . ... : ... .. . ... : ... .. . ...
ROW 2F : ... .. . ... ... ... ... : ... .. 1 ... ... ... ... : ... .. . ... : ... .. . ... : ... .. . ...
ROW 30 : ... .. . ... ... ... ... : B-3 00 5 ... ... ... ... : E-3 00 . ... : 6-# 00 4 ... : ... .. . ...
ROW 31 : ... .. . ... ... ... ... : ... .. 4 ... ... ... ... : ... .. . ... : ... .. . ... : ... .. . ...
ROW 32 : ... .. . ... ... ... ... : ... .. 3 ... ... ... ... : ... .. . ... : ... .. 3 ... : ... .. . ...
ROW 33 : ... .. . ... ... ... ... : ... .. 2 ... ... ... ... : ... .. . ... : ... .. . ... : ... .. . ...
ROW 34 : ... .. . ... ... ... ... : ... .. 1 ... ... ... ... : ... .. . ... : ... .. 2 ... : ... .. . ...
ROW 35 : ... .. . ... ... ... ... : ... .. . ... ... ... ... : ... .. . ... : ... .. . ... : ... .. . ...
ROW 36 : ... .. . ... ... ... ... : ... .. 0 ... ... ... ... : ... .. . ... : ... .. 1 ... : ... .. . ...
ROW 37 : ... .. . ... ... ... ... : ... .. . ... ... ... ... : ... .. . ... : ... .. . ... : ... .. . ...
ROW 38 : ... .. . ... ... ... ... : ... .. . ... ... ... ... : ... .. . ... : ... .. 0 ... : ... .. . ...
ROW 39 : ... .. . ... ... ... ... : G-4 00 2 ... ... ... ... : ... .. . ... : ... .. . ... : ... .. . ...
ROW 3A : ... .. . ... ... ... ... : ... .. 1 ... ... ... ... : ... .. . ... : ... .. . ... : ... .. . ...
ROW 3B : ... .. . ... ... ... ... : ... .. . ... ... ... ... : ... .. . ... : ... .. . ... : ... .. . ...
ROW 3C : ... .. . ... ... ... ... : D-4 00 5 ... ... ... ... : --- .. . ... : F-# 00 4 ... : ... .. . ...
ROW 3D : ... .. . ... ... ... ... : ... .. 4 ... ... ... ... : ... .. . ... : ... .. . ... : ... .. . ...
ROW 3E : ... .. . ... ... ... ... : ... .. 3 ... ... ... ... : ... .. . ... : ... .. 3 ... : ... .. . ...
ROW 3F : ... .. 3 ... ... ... ... : ... .. 2 ... ... ... ... : ... .. . ... : ... .. . ... : ... .. . ...
ROW 40 : ... .. . ... ... ... ... : ... .. 1 ... ... ... ... : ... .. . ... : ... .. 2 ... : ... .. . ...
ROW 41 : ... .. . ... ... ... ... : ... .. . ... ... ... ... : ... .. . ... : ... .. . ... : ... .. . ...
ROW 42 : ... .. 2 ... ... ... ... : ... .. 0 ... ... ... ... : ... .. . ... : ... .. 1 ... : ... .. . ...
ROW 43 : ... .. . ... ... ... ... : ... .. . ... ... ... ... : ... .. . ... : ... .. . ... : ... .. . ...
ROW 44 : ... .. . ... ... ... ... : ... .. . ... ... ... ... : ... .. . ... : ... .. 0 ... : ... .. . ...
ROW 45 : ... .. 1 ... ... ... ... : B-3 00 2 ... ... ... ... : ... .. . ... : ... .. . ... : ... .. . ...
ROW 46 : ... .. . ... ... ... ... : ... .. 1 ... ... ... ... : ... .. . ... : ... .. . ... : ... .. . ...
ROW 47 : ... .. . ... ... ... ... : ... .. . ... ... ... ... : ... .. . ... : ... .. . ... : ... .. . ...
ROW 48 : E-4 00 6 ... ... ... ... : G-4 00 5 ... ... ... ... : E-3 00 . ... : D-# 00 4 ... : ... .. . ...
ROW 49 : ... .. . ... ... ... ... : ... .. 4 ... ... ... ... : ... .. . ... : ... .. . ... : ... .. . ...
ROW 4A : ... .. 5 ... ... ... ... : ... .. 3 ... ... ... ... : ... .. . ... : ... .. . ... : ... .. . ...
ROW 4B : ... .. . ... ... ... ... : ... .. 2 ... ... ... ... : ... .. . ... : ... .. . ... : ... .. . ...
ROW 4C : ... .. 4 ... ... ... ... : ... .. 1 ... ... ... ... : ... .. . ... : ... .. 3 ... : ... .. . ...
ROW 4D : ... .. . ... ... ... ... : ... .. . ... ... ... ... : ... .. . ... : ... .. . ... : ... .. . ...
ROW 4E : ... .. . ... ... ... ... : ... .. 0 ... ... ... ... : ... .. . ... : ... .. . ... : ... .. . ...
ROW 4F : ... .. . ... ... ... ... : ... .. . ... ... ... ... : ... .. . ... : ... .. . ... : ... .. . ...
ROW 50 : ... .. . ... ... ... ... : ... .. . ... ... ... ... : ... .. . ... : ... .. 2 ... : ... .. . ...
ROW 51 : ... .. 3 ... ... ... ... : D-4 00 2 ... ... ... ... : ... .. . ... : ... .. . ... : ... .. . ...
ROW 52 : ... .. 2 ... ... ... ... : ... .. 1 ... ... ... ... : ... .. . ... : ... .. . ... : ... .. . ...
ROW 53 : ... .. 1 ... ... ... ... : ... .. . ... ... ... ... : ... .. . ... : ... .. . ... : ... .. . ...
ROW 54 : G-4 00 6 ... ... ... ... : B-4 00 5 ... ... ... ... : --- .. . ... : ... .. 1 ... : ... .. . ...
ROW 55 : ... .. . ... ... ... ... : ... .. 4 ... ... ... ... : ... .. . ... : ... .. . ... : ... .. . ...
ROW 56 : ... .. 5 ... ... ... ... : ... .. 3 ... ... ... ... : ... .. . ... : ... .. . ... : ... .. . ...
ROW 57 : ... .. . ... ... ... ... : ... .. 2 ... ... ... ... : ... .. . ... : ... .. . ... : ... .. . ...
ROW 58 : ... .. 4 ... ... ... ... : ... .. 1 ... ... ... ... : ... .. . ... : ... .. . ... : ... .. . ...
ROW 59 : ... .. . ... ... ... ... : ... .. . ... ... ... ... : ... .. . ... : ... .. . ... : ... .. . ...
ROW 5A : ... .. . ... ... ... ... : ... .. . ... ... ... ... : ... .. . ... : ... .. . ... : ... .. . ...
ROW 5B : ... .. . ... ... ... ... : ... .. . ... ... ... ... : ... .. . ... : ... .. . ... : ... .. . ...
ROW 5C : ... .. . ... ... ... ... : ... .. . ... ... ... ... : ... .. . ... : ... .. . ... : ... .. . ...
ROW 5D : ... .. 3 ... ... ... ... : G-4 00 2 ... ... ... ... : ... .. . ... : ... .. . ... : ... .. . ...
ROW 5E : ... .. 2 ... ... ... ... : ... .. 1 ... ... ... ... : ... .. . ... : ... .. . ... : ... .. . ...
ROW 5F : ... .. 1 ... ... ... ... : ... .. . ... ... ... ... : ... .. . ... : ... .. . ... : ... .. . ...
ROW 60 : B-4 00 6 ... ... ... ... : E-4 00 5 ... ... ... ... : E-3 00 . ... : 2-# 00 4 ... : ... .. . ...
ROW 61 : ... .. . ... ... ... ... : ... .. 4 ... ... ... ... : ... .. . ... : ... .. . ... : ... .. . ...
ROW 62 : ... .. 5 ... ... ... ... : ... .. 3 ... ... ... ... : ... .. . ... : ... .. 3 ... : ... .. . ...
ROW 63 : ... .. . ... ... ... ... : ... .. 2 ... ... ... ... : ... .. . ... : ... .. . ... : ... .. . ...
ROW 64 : ... .. 4 ... ... ... ... : ... .. 1 ... ... ... ... : ... .. . ... : ... .. 2 ... : ... .. . ...
ROW 65 : ... .. . ... ... ... ... : ... .. . ... ... ... ... : ... .. . ... : ... .. . ... : ... .. . ...
ROW 66 : ... .. . ... ... ... ... : ... .. 0 ... ... ... ... : ... .. . ... : ... .. 1 ... : ... .. . ...
ROW 67 : ... .. . ... ... ... ... : ... .. . ... ... ... ... : ... .. . ... : ... .. . ... : ... .. . ...
ROW 68 : ... .. . ... ... ... ... : ... .. . ... ... ... ... : ... .. . ... : ... .. 0 ... : ... .. . ...
ROW 69 : ... .. . ... ... ... ... : B-4 00 2 ... ... ... ... : ... .. . ... : ... .. . ... : ... .. . ...
ROW 6A : ... .. . ... ... ... ... : ... .. 1 ... ... ... ... : ... .. . ... : ... .. . ... : ... .. . ...
ROW 6B : ... .. . ... ... ... ... : ... .. . ... ... ... ... : ... .. . ... : ... .. . ... : ... .. . ...
ROW 6C : ... .. . ... ... ... ... : G-4 00 5 ... ... ... ... : --- .. . ... : F-# 00 4 ... : ... .. . ...
ROW 6D : ... .. . ... ... ... ... : ... .. 4 ... ... ... ... : ... .. . ... : ... .. . ... : ... .. . ...
ROW 6E : ... .. . ... ... ... ... : ... .. 3 ... ... ... ... : ... .. . ... : ... .. 3 ... : ... .. . ...
ROW 6F : ... .. . ... ... ... ... : ... .. 2 ... ... ... ... : ... .. . ... : ... .. . ... : ... .. . ...
ROW 70 : ... .. . ... ... ... ... : ... .. 1 ... ... ... ... : ... .. . ... : ... .. 2 ... : ... .. . ...
ROW 71 : ... .. . ... ... ... ... : ... .. . ... ... ... ... : ... .. . ... : ... .. . ... : ... .. . ...
ROW 72 : ... .. . ... ... ... ... : ... .. 0 ... ... ... ... : ... .. . ... : ... .. 1 ... : ... .. . ...
ROW 73 : ... .. . ... ... ... ... : ... .. . ... ... ... ... : ... .. . ... : ... .. . ... : ... .. . ...
ROW 74 : ... .. . ... ... ... ... : ... .. . ... ... ... ... : ... .. . ... : ... .. 0 ... : ... .. . ...
ROW 75 : ... .. . ... ... ... ... : E-4 00 2 ... ... ... ... : ... .. . ... : ... .. . ... : ... .. . ...
ROW 76 : ... .. . ... ... ... ... : ... .. 1 ... ... ... ... : ... .. . ... : ... .. . ... : ... .. . ...
ROW 77 : ... .. . ... ... ... ... : ... .. . ... ... ... ... : ... .. . ... : ... .. . ... : ... .. . ...
ROW 78 : ... .. . ... ... ... ... : B-4 00 5 ... ... ... ... : E-3 00 . ... : D-# 00 4 ... : ... .. . ...
ROW 79 : ... .. . ... ... ... ... : ... .. 4 ... ... ... ... : ... .. . ... : ... .. . ... : ... .. . ...
ROW 7A : ... .. . ... ... ... ... : ... .. 3 ... ... ... ... : ... .. . ... : ... .. . ... : ... .. . ...
ROW 7B : ... .. . ... ... ... ... : ... .. 2 ... ... ... ... : ... .. . ... : ... .. . ... : ... .. . ...
ROW 7C : ... .. . ... ... ... ... : ... .. 1 ... ... ... ... : ... .. . ... : ... .. 3 ... : ... .. . ...
ROW 7D : ... .. . ... ... ... ... : ... .. . ... ... ... ... : ... .. . ... : ... .. . ... : ... .. . ...
ROW 7E : ... .. 3 ... ... ... ... : ... .. 0 ... ... ... ... : ... .. . ... : ... .. . ... : ... .. . ...
ROW 7F : ... .. . ... ... ... ... : ... .. . ... ... ... ... : ... .. . ... : ... .. . ... : ... .. . ...
ROW 80 : ... .. 2 ... ... ... ... : ... .. . ... ... ... ... : ... .. . ... : ... .. 2 ... : ... .. . ...
ROW 81 : ... .. . ... ... ... ... : G-4 00 2 ... ... ... ... : ... .. . ... : ... .. . ... : ... .. . ...
ROW 82 : ... .. 1 ... ... ... ... : ... .. 1 ... ... ... ... : ... .. . ... : ... .. . ... : ... .. . ...
ROW 83 : ... .. . ... ... ... ... : ... .. . ... ... ... ... : ... .. . ... : ... .. . ... : ... .. . ...
ROW 84 : A-4 00 6 ... ... ... ... : D-5 00 5 ... ... ... ... : --- .. . ... : ... .. 1 ... : ... .. . ...
ROW 85 : ... .. . ... ... ... ... : ... .. 4 ... ... ... ... : ... .. . ... : ... .. . ... : ... .. . ...
ROW 86 : ... .. 5 ... ... ... ... : ... .. 3 ... ... ... ... : ... .. . ... : ... .. . ... : ... .. . ...
ROW 87 : ... .. . ... ... ... ... : ... .. 2 ... ... ... ... : ... .. . ... : ... .. . ... : ... .. . ...
ROW 88 : ... .. 4 ... ... ... ... : ... .. 1 ... ... ... ... : ... .. . ... : ... .. . ... : ... .. . ...
ROW 89 : ... .. . ... ... ... ... : ... .. . ... ... ... ... : ... .. . ... : ... .. . ... : ... .. . ...
ROW 8A : ... .. . ... ... ... ... : ... .. 0 ... ... ... ... : ... .. . ... : ... .. . ... : ... .. . ...
ROW 8B : ... .. . ... ... ... ... : ... .. . ... ... ... ... : ... .. . ... : ... .. . ... : ... .. . ...
ROW 8C : ... .. 3 ... ... ... ... : ... .. . ... ... ... ... : ... .. . ... : ... .. . ... : ... .. . ...
ROW 8D : ... .. . ... ... ... ... : B-4 00 2 ... ... ... ... : ... .. . ... : ... .. . ... : ... .. . ...
ROW 8E : ... .. 2 ... ... ... ... : ... .. 1 ... ... ... ... : ... .. . ... : ... .. . ... : ... .. . ...
ROW 8F : ... .. 1 ... ... ... D00 : ... .. . ... ... ... ... : ... .. . ... : ... .. . ... : ... .. . ...
ROW 90 : ... .. . ... ... ... ... : ... .. . ... ... ... ... : ... .. . ... : ... .. . ... : ... .. . ...
ROW 91 : ... .. . ... ... ... ... : ... .. . ... ... ... ... : ... .. . ... : ... .. . ... : ... .. . ...
ROW 92 : ... .. . ... ... ... ... : ... .. . ... ... ... ... : ... .. . ... : ... .. . ... : ... .. . ...
ROW 93 : ... .. . ... ... ... ... : ... .. . ... ... ... ... : ... .. . ... : ... .. . ... : ... .. . ...
ROW 94 : ... .. . ... ... ... ... : ... .. . ... ... ... ... : ... .. . ... : ... .. . ... : ... .. . ...
ROW 95 : ... .. . ... ... ... ... : ... .. . ... ... ... ... : ... .. . ... : ... .. . ... : ... .. . ...
ROW 96 : ... .. . ... ... ... ... : ... .. . ... ... ... ... : ... .. . ... : ... .. . ... : ... .. . ...
ROW 97 : ... .. . ... ... ... ... : ... .. . ... ... ... ... : ... .. . ... : ... .. . ... : ... .. . ...
ROW 98 : ... .. . ... ... ... ... : ... .. . ... ... ... ... : ... .. . ... : ... .. . ... : ... .. . ...
ROW 99 : ... .. . ... ... ... ... : ... .. . ... ... ... ... : ... .. . ... : ... .. . ... : ... .. . ...
ROW 9A : ... .. . ... ... ... ... : ... .. . ... ... ... ... : ... .. . ... : ... .. . ... : ... .. . ...
ROW 9B : ... .. . ... ... ... ... : ... .. . ... ... ... ... : ... .. . ... : ... .. . ... : ... .. . ...
ROW 9C : ... .. . ... ... ... ... : ... .. . ... ... ... ... : ... .. . ... : ... .. . ... : ... .. . ...
ROW 9D : ... .. . ... ... ... ... : ... .. . ... ... ... ... : ... .. . ... : ... .. . ... : ... .. . ...
ROW 9E : ... .. . ... ... ... ... : ... .. . ... ... ... ... : ... .. . ... : ... .. . ... : ... .. . ...
ROW 9F : ... .. . ... ... ... ... : ... .. . ... ... ... ... : ... .. . ... : ... .. . ... : ... .. . ...
ROW A0 : ... .. . ... ... ... ... : ... .. . ... ... ... ... : ... .. . ... : ... .. . ... : ... .. . ...
ROW A1 : ... .. . ... ... ... ... : ... .. . ... ... ... ... : ... .. . ... : ... .. . ... : ... .. . ...
ROW A2 : ... .. . ... ... ... ... : ... .. . ... ... ... ... : ... .. . ... : ... .. . ... : ... .. . ...
ROW A3 : ... .. . ... ... ... ... : ... .. . ... ... ... ... : ... .. . ... : ... .. . ... : ... .. . ...
ROW A4 : ... .. . ... ... ... ... : ... .. . ... ... ... ... : ... .. . ... : ... .. . ... : ... .. . ...
ROW A5 : ... .. . ... ... ... ... : ... .. . ... ... ... ... : ... .. . ... : ... .. . ... : ... .. . ...
ROW A6 : ... .. . ... ... ... ... : ... .. . ... ... ... ... : ... .. . ... : ... .. . ... : ... .. . ...
ROW A7 : ... .. . ... ... ... ... : ... .. . ... ... ... ... : ... .. . ... : ... .. . ... : ... .. . ...
ROW A8 : ... .. . ... ... ... ... : ... .. . ... ... ... ... : ... .. . ... : ... .. . ... : ... .. . ...
ROW A9 : ... .. . ... ... ... ... : ... .. . ... ... ... ... : ... .. . ... : ... .. . ... : ... .. . ...
ROW AA : ... .. . ... ... ... ... : ... .. . ... ... ... ... : ... .. . ... : ... .. . ... : ... .. . ...
ROW AB : ... .. . ... ... ... ... : ... .. . ... ... ... ... : ... .. . ... : ... .. . ... : ... .. . ...
ROW AC : ... .. . ... ... ... ... : ... .. . ... ... ... ... : ... .. . ... : ... .. . ... : ... .. . ...
ROW AD : ... .. . ... ... ... ... : ... .. . ... ... ... ... : ... .. . ... : ... .. . ... : ... .. . ...
ROW AE : ... .. . ... ... ... ... : ... .. . ... ... ... ... : ... .. . ... : ... .. . ... : ... .. . ...
ROW AF : ... .. . ... ... ... ... : ... .. . ... ... ... ... : ... .. . ... : ... .. . ... : ... .. . ...
ROW B0 : ... .. . ... ... ... ... : ... .. . ... ... ... ... : ... .. . ... : ... .. . ... : ... .. . ...
ROW B1 : ... .. . ... ... ... ... : ... .. . ... ... ... ... : ... .. . ... : ... .. . ... : ... .. . ...
ROW B2 : ... .. . ... ... ... ... : ... .. . ... ... ... ... : ... .. . ... : ... .. . ... : ... .. . ...
ROW B3 : ... .. . ... ... ... ... : ... .. . ... ... ... ... : ... .. . ... : ... .. . ... : ... .. . ...
ROW B4 : ... .. . ... ... ... ... : ... .. . ... ... ... ... : ... .. . ... : ... .. . ... : ... .. . ...
ROW B5 : ... .. . ... ... ... ... : ... .. . ... ... ... ... : ... .. . ... : ... .. . ... : ... .. . ...
ROW B6 : ... .. . ... ... ... ... : ... .. . ... ... ... ... : ... .. . ... : ... .. . ... : ... .. . ...
ROW B7 : ... .. . ... ... ... ... : ... .. . ... ... ... ... : ... .. . ... : ... .. . ... : ... .. . ...
ROW B8 : ... .. . ... ... ... ... : ... .. . ... ... ... ... : ... .. . ... : ... .. . ... : ... .. . ...
ROW B9 : ... .. . ... ... ... ... : ... .. . ... ... ... ... : ... .. . ... : ... .. . ... : ... .. . ...
ROW BA : ... .. . ... ... ... ... : ... .. . ... ... ... ... : ... .. . ... : ... .. . ... : ... .. . ...
ROW BB : ... .. . ... ... ... ... : ... .. . ... ... ... ... : ... .. . ... : ... .. . ... : ... .. . ...
ROW BC : ... .. . ... ... ... ... : ... .. . ... ... ... ... : ... .. . ... : ... .. . ... : ... .. . ...
ROW BD : ... .. . ... ... ... ... : ... .. . ... ... ... ... : ... .. . ... : ... .. . ... : ... .. . ...
ROW BE : ... .. . ... ... ... ... : ... .. . ... ... ... ... : ... .. . ... : ... .. . ... : ... .. . ...
ROW BF : ... .. . ... ... ... ... : ... .. . ... ... ... ... : ... .. . ... : ... .. . ... : ... .. . ...
ROW C0 : ... .. . ... ... ... ... : ... .. . ... ... ... ... : ... .. . ... : ... .. . ... : ... .. . ...
ROW C1 : ... .. . ... ... ... ... : ... .. . ... ... ... ... : ... .. . ... : ... .. . ... : ... .. . ...
ROW C2 : ... .. . ... ... ... ... : ... .. . ... ... ... ... : ... .. . ... : ... .. . ... : ... .. . ...
ROW C3 : ... .. . ... ... ... ... : ... .. . ... ... ... ... : ... .. . ... : ... .. . ... : ... .. . ...
ROW C4 : ... .. . ... ... ... ... : ... .. . ... ... ... ... : ... .. . ... : ... .. . ... : ... .. . ...
ROW C5 : ... .. . ... ... ... ... : ... .. . ... ... ... ... : ... .. . ... : ... .. . ... : ... .. . ...
ROW C6 : ... .. . ... ... ... ... : ... .. . ... ... ... ... : ... .. . ... : ... .. . ... : ... .. . ...
ROW C7 : ... .. . ... ... ... ... : ... .. . ... ... ... ... : ... .. . ... : ... .. . ... : ... .. . ...
ROW C8 : ... .. . ... ... ... ... : ... .. . ... ... ... ... : ... .. . ... : ... .. . ... : ... .. . ...
ROW C9 : ... .. . ... ... ... ... : ... .. . ... ... ... ... : ... .. . ... : ... .. . ... : ... .. . ...
ROW CA : ... .. . ... ... ... ... : ... .. . ... ... ... ... : ... .. . ... : ... .. . ... : ... .. . ...
ROW CB : ... .. . ... ... ... ... : ... .. . ... ... ... ... : ... .. . ... : ... .. . ... : ... .. . ...
ROW CC : ... .. . ... ... ... ... : ... .. . ... ... ... ... : ... .. . ... : ... .. . ... : ... .. . ...
ROW CD : ... .. . ... ... ... ... : ... .. . ... ... ... ... : ... .. . ... : ... .. . ... : ... .. . ...
ROW CE : ... .. . ... ... ... ... : ... .. . ... ... ... ... : ... .. . ... : ... .. . ... : ... .. . ...
ROW CF : ... .. . ... ... ... ... : ... .. . ... ... ... ... : ... .. . ... : ... .. . ... : ... .. . ...
ROW D0 : ... .. . ... ... ... ... : ... .. . ... ... ... ... : ... .. . ... : ... .. . ... : ... .. . ...
ROW D1 : ... .. . ... ... ... ... : ... .. . ... ... ... ... : ... .. . ... : ... .. . ... : ... .. . ...
ROW D2 : ... .. . ... ... ... ... : ... .. . ... ... ... ... : ... .. . ... : ... .. . ... : ... .. . ...
ROW D3 : ... .. . ... ... ... ... : ... .. . ... ... ... ... : ... .. . ... : ... .. . ... : ... .. . ...
ROW D4 : ... .. . ... ... ... ... : ... .. . ... ... ... ... : ... .. . ... : ... .. . ... : ... .. . ...
ROW D5 : ... .. . ... ... ... ... : ... .. . ... ... ... ... : ... .. . ... : ... .. . ... : ... .. . ...
ROW D6 : ... .. . ... ... ... ... : ... .. . ... ... ... ... : ... .. . ... : ... .. . ... : ... .. . ...
ROW D7 : ... .. . ... ... ... ... : ... .. . ... ... ... ... : ... .. . ... : ... .. . ... : ... .. . ...
ROW D8 : ... .. . ... ... ... ... : ... .. . ... ... ... ... : ... .. . ... : ... .. . ... : ... .. . ...
ROW D9 : ... .. . ... ... ... ... : ... .. . ... ... ... ... : ... .. . ... : ... .. . ... : ... .. . ...
ROW DA : ... .. . ... ... ... ... : ... .. . ... ... ... ... : ... .. . ... : ... .. . ... : ... .. . ...
ROW DB : ... .. . ... ... ... ... : ... .. . ... ... ... ... : ... .. . ... : ... .. . ... : ... .. . ...
ROW DC : ... .. . ... ... ... ... : ... .. . ... ... ... ... : ... .. . ... : ... .. . ... : ... .. . ...
ROW DD : ... .. . ... ... ... ... : ... .. . ... ... ... ... : ... .. . ... : ... .. . ... : ... .. . ...
ROW DE : ... .. . ... ... ... ... : ... .. . ... ... ... ... : ... .. . ... : ... .. . ... : ... .. . ...
ROW DF : ... .. . ... ... ... ... : ... .. . ... ... ... ... : ... .. . ... : ... .. . ... : ... .. . ...

PATTERN 49
ROW 00 : E-4 00 6 V01 ... ... ... : G-3 00 5 V00 ... ... ... : A-3 00 . ... : 6-# 00 6 ... : ... .. . ...
ROW 01 : ... .. . ... ... ... ... : ... .. . ... ... ... ... : ... .. . ... : ... .. 5 ... : ... .. . ...
ROW 02 : ... .. 5 ... ... ... ... : ... .. 4 ... ... ... ... : ... .. . ... : ... .. 4 ... : ... .. . ...
ROW 03 : ... .. . ... ... ... ... : ... .. . ... ... ... ... : ... .. . ... : ... .. 3 ... : ... .. . ...
ROW 04 : ... .. 4 ... ... ... ... : ... .. 3 ... ... ... ... : ... .. . ... : ... .. . ... : ... .. . ...
ROW 05 : ... .. . ... ... ... ... : ... .. . ... ... ... ... : ... .. . ... : ... .. . ... : ... .. . ...
ROW 06 : ... .. . ... ... ... ... : ... .. . ... ... ... ... : ... .. . ... : ... .. . ... : ... .. . ...
ROW 07 : ... .. . ... ... ... ... : ... .. . ... ... ... ... : ... .. . ... : ... .. . ... : ... .. . ...
ROW 08 : ... .. . ... ... ... ... : ... .. . ... ... ... ... : ... .. . ... : ... .. . ... : ... .. . ...
ROW 09 : ... .. . ... ... ... ... : ... .. . ... ... ... ... : ... .. . ... : ... .. . ... : ... .. . ...
ROW 0A : ... .. . ... ... ... ... : ... .. . ... ... ... ... : ... .. . ... : ... .. . ... : ... .. . ...
ROW 0B : ... .. . ... ... ... ... : ... .. . ... ... ... ... : ... .. . ... : ... .. . ... : ... .. . ...
ROW 0C : ... .. . ... ... ... ... : ... .. . ... ... ... ... : --- .. . ... : ... .. 2 ... : ... .. . ...
ROW 0D : ... .. . ... ... ... ... : ... .. . ... ... ... ... : ... .. . ... : ... .. . ... : ... .. . ...
ROW 0E : ... .. . ... ... ... ... : ... .. . ... ... ... ... : ... .. . ... : ... .. . ... : ... .. . ...
ROW 0F : ... .. . ... ... ... ... : ... .. . ... ... ... ... : ... .. . ... : ... .. . ... : ... .. . ...
ROW 10 : ... .. . ... ... ... ... : ... .. . ... ... ... ... : ... .. . ... : ... .. . ... : ... .. . ...
ROW 11 : ... .. . ... ... ... ... : ... .. . ... ... ... ... : ... .. . ... : ... .. . ... : ... .. . ...
ROW 12 : ... .. 3 ... ... ... ... : ... .. 2 ... ... ... ... : ... .. . ... : ... .. . ... : ... .. . ...
ROW 13 : ... .. . ... ... ... ... : ... .. . ... ... ... ... : ... .. . ... : ... .. . ... : ... .. . ...
ROW 14 : ... .. 2 ... ... ... ... : ... .. . ... ... ... ... : ... .. . ... : ... .. . ... : ... .. . ...
ROW 15 : ... .. . ... ... ... ... : ... .. 1 ... ... ... ... : ... .. . ... : ... .. . ... : ... .. . ...
ROW 16 : ... .. 1 ... ... ... ... : ... .. . ... ... ... ... : ... .. . ... : ... .. . ... : ... .. . ...
ROW 17 : ... .. . ... ... ... ... : ... .. . ... ... ... ... : ... .. . ... : ... .. . ... : ... .. . ...
ROW 18 : C-4 00 6 ... ... ... ... : E-3 00 5 ... ... ... ... : A-3 00 . ... : ... .. 1 ... : ... .. . ...
ROW 19 : ... .. . ... ... ... ... : ... .. . ... ... ... ... : ... .. . ... : ... .. . ... : ... .. . ...
ROW 1A : ... .. 5 ... ... ... ... : ... .. 4 ... ... ... ... : ... .. . ... : ... .. . ... : ... .. . ...
ROW 1B : ... .. . ... ... ... ... : ... .. . ... ... ... ... : ... .. . ... : ... .. . ... : ... .. . ...
ROW 1C : ... .. 4 ... ... ... ... : ... .. 3 ... ... ... ... : ... .. . ... : ... .. . ... : ... .. . ...
ROW 1D : ... .. . ... ... ... ... : ... .. . ... ... ... ... : ... .. . ... : ... .. . ... : ... .. . ...
ROW 1E : ... .. . ... ... ... ... : ... .. . ... ... ... ... : ... .. . ... : ... .. . ... : ... .. . ...
ROW 1F : ... .. . ... ... ... ... : ... .. . ... ... ... ... : ... .. . ... : ... .. . ... : ... .. . ...
ROW 20 : ... .. . ... ... ... ... : ... .. . ... ... ... ... : ... .. . ... : ... .. . ... : ... .. . ...
ROW 21 : ... .. . ... ... ... ... : ... .. . ... ... ... ... : ... .. . ... : ... .. . ... : ... .. . ...
ROW 22 : ... .. . ... ... ... ... : ... .. . ... ... ... ... : ... .. . ... : ... .. . ... : ... .. . ...
ROW 23 : ... .. . ... ... ... ... : ... .. . ... ... ... ... : ... .. . ... : ... .. . ... : ... .. . ...
ROW 24 : ... .. . ... ... ... ... : ... .. . ... ... ... ... : --- .. . ... : --- .. . ... : ... .. . ...
ROW 25 : ... .. . ... ... ... ... : ... .. . ... ... ... ... : ... .. . ... : ... .. . ... : ... .. . ...
ROW 26 : ... .. . ... ... ... ... : ... .. . ... ... ... ... : ... .. . ... : ... .. . ... : ... .. . ...
ROW 27 : ... .. . ... ... ... ... : ... .. . ... ... ... ... : ... .. . ... : ... .. . ... : ... .. . ...
ROW 28 : ... .. . ... ... ... ... : ... .. . ... ... ... ... : ... .. . ... : ... .. . ... : ... .. . ...
ROW 29 : ... .. . ... ... ... ... : ... .. . ... ... ... ... : ... .. . ... : ... .. . ... : ... .. . ...
ROW 2A : ... .. . ... ... ... ... : ... .. . ... ... ... ... : ... .. . ... : ... .. . ... : ... .. . ...
ROW 2B : ... .. . ... ... ... ... : ... .. . ... ... ... ... : ... .. . ... : ... .. . ... : ... .. . ...
ROW 2C : ... .. . ... ... ... ... : ... .. . ... ... ... ... : ... .. . ... : ... .. . ... : ... .. . ...
ROW 2D : ... .. . ... ... ... ... : ... .. . ... ... ... ... : ... .. . ... : ... .. . ... : ... .. . ...
ROW 2E : ... .. . ... ... ... ... : ... .. . ... ... ... ... : ... .. . ... : ... .. . ... : ... .. . ...
ROW 2F : ... .. . ... ... ... ... : ... .. . ... ... ... ... : ... .. . ... : ... .. . ... : ... .. . ...
ROW 30 : ... .. . ... ... ... ... : B-4 00 5 V02 ... ... ... : A-3 00 . ... : 6-# 00 6 ... : ... .. . ...
ROW 31 : ... .. . ... ... ... ... : ... .. 4 ... ... ... ... : ... .. . ... : ... .. 5 ... : ... .. . ...
ROW 32 : ... .. . ... ... ... ... : ... .. 3 ... ... ... ... : ... .. . ... : ... .. 4 ... : ... .. . ...
ROW 33 : ... .. . ... ... ... ... : ... .. 2 ... ... ... ... : ... .. . ... : ... .. 3 ... : ... .. . ...
ROW 34 : ... .. . ... ... ... ... : ... .. 1 ... ... ... ... : ... .. . ... : ... .. . ... : ... .. . ...
ROW 35 : ... .. . ... ... ... ... : ... .. . ... ... ... ... : ... .. . ... : ... .. . ... : ... .. . ...
ROW 36 : ... .. . ... ... ... ... : ... .. 0 ... ... ... ... : ... .. . ... : ... .. . ... : ... .. . ...
ROW 37 : ... .. . ... ... ... ... : ... .. . ... ... ... ... : ... .. . ... : ... .. . ... : ... .. . ...
ROW 38 : ... .. . ... ... ... ... : ... .. . ... ... ... ... : ... .. . ... : ... .. . ... : ... .. . ...
ROW 39 : ... .. . ... ... ... ... : ... .. 2 ... ... ... ... : ... .. . ... : ... .. . ... : ... .. . ...
ROW 3A : ... .. . ... ... ... ... : ... .. 1 ... ... ... ... : ... .. . ... : ... .. . ... : ... .. . ...
ROW 3B : ... .. . ... ... ... ... : ... .. . ... ... ... ... : ... .. . ... : ... .. . ... : ... .. . ...
ROW 3C : ... .. . ... ... ... ... : C-5 00 5 ... ... ... ... : --- .. . ... : ... .. 2 ... : ... .. . ...
ROW 3D : ... .. . ... ... ... ... : ... .. 4 ... ... ... ... : ... .. . ... : ... .. . ... : ... .. . ...
ROW 3E : ... .. . ... ... ... ... : ... .. 3 ... ... ... ... : ... .. . ... : ... .. . ... : ... .. . ...
ROW 3F : ... .. . ... ... ... ... : ... .. 2 ... ... ... ... : ... .. . ... : ... .. . ... : ... .. . ...
ROW 40 : ... .. . ... ... ... ... : ... .. 1 ... ... ... ... : ... .. . ... : ... .. . ... : ... .. . ...
ROW 41 : ... .. . ... ... ... ... : ... .. . ... ... ... ... : ... .. . ... : ... .. . ... : ... .. . ...
ROW 42 : ... .. . ... ... ... ... : ... .. 0 ... ... ... ... : ... .. . ... : ... .. . ... : ... .. . ...
ROW 43 : ... .. . ... ... ... ... : ... .. . ... ... ... ... : ... .. . ... : ... .. . ... : ... .. . ...
ROW 44 : ... .. . ... ... ... ... : ... .. . ... ... ... ... : ... .. . ... : ... .. . ... : ... .. . ...
ROW 45 : ... .. . ... ... ... ... : B-4 00 2 ... ... ... ... : ... .. . ... : ... .. . ... : ... .. . ...
ROW 46 : ... .. . ... ... ... ... : ... .. 1 ... ... ... ... : ... .. . ... : ... .. . ... : ... .. . ...
ROW 47 : ... .. . ... ... ... ... : ... .. . ... ... ... ... : ... .. . ... : ... .. . ... : ... .. . ...
ROW 48 : ... .. . ... ... ... ... : E-5 00 5 ... ... ... ... : A-3 00 . ... : ... .. 1 ... : ... .. . ...
ROW 49 : ... .. . ... ... ... ... : ... .. 4 ... ... ... ... : ... .. . ... : ... .. . ... : ... .. . ...
ROW 4A : ... .. . ... ... ... ... : ... .. 3 ... ... ... ... : ... .. . ... : ... .. . ... : ... .. . ...
ROW 4B : ... .. . ... ... ... ... : ... .. 2 ... ... ... ... : ... .. . ... : ... .. . ... : ... .. . ...
ROW 4C : ... .. . ... ... ... ... : ... .. 1 ... ... ... ... : ... .. . ... : ... .. . ... : ... .. . ...
ROW 4D : ... .. . ... ... ... ... : ... .. . ... ... ... ... : ... .. . ... : ... .. . ... : ... .. . ...
ROW 4E : ... .. . ... ... ... ... : ... .. . ... ... ... ... : ... .. . ... : ... .. . ... : ... .. . ...
ROW 4F : ... .. . ... ... ... ... : ... .. . ... ... ... ... : ... .. . ... : ... .. . ... : ... .. . ...
ROW 50 : ... .. . ... ... ... ... : ... .. . ... ... ... ... : ... .. . ... : ... .. . ... : ... .. . ...
ROW 51 : ... .. . ... ... ... ... : C-5 00 2 ... ... ... ... : ... .. . ... : ... .. . ... : ... .. . ...
ROW 52 : ... .. . ... ... ... ... : ... .. 1 ... ... ... ... : ... .. . ... : ... .. . ... : ... .. . ...
ROW 53 : ... .. . ... ... ... ... : ... .. . ... ... ... ... : ... .. . ... : ... .. . ... : ... .. . ...
ROW 54 : ... .. . ... ... ... ... : G-5 00 5 ... ... ... ... : --- .. . ... : ... .. . ... : ... .. . ...
ROW 55 : ... .. . ... ... ... ... : ... .. 4 ... ... ... ... : ... .. . ... : ... .. . ... : ... .. . ...
ROW 56 : ... .. . ... ... ... ... : ... .. 3 ... ... ... ... : ... .. . ... : ... .. . ... : ... .. . ...
ROW 57 : ... .. . ... ... ... ... : ... .. 2 ... ... ... ... : ... .. . ... : ... .. . ... : ... .. . ...
ROW 58 : ... .. . ... ... ... ... : ... .. 1 ... ... ... ... : ... .. . ... : ... .. . ... : ... .. . ...
ROW 59 : ... .. . ... ... ... ... : ... .. . ... ... ... ... : ... .. . ... : ... .. . ... : ... .. . ...
ROW 5A : ... .. . ... ... ... ... : ... .. 0 ... ... ... ... : ... .. . ... : ... .. . ... : ... .. . ...
ROW 5B : ... .. . ... ... ... ... : ... .. . ... ... ... ... : ... .. . ... : ... .. . ... : ... .. . ...
ROW 5C : ... .. . ... ... ... ... : ... .. . ... ... ... ... : ... .. . ... : ... .. . ... : ... .. . ...
ROW 5D : ... .. . ... ... ... ... : E-5 00 3 ... ... ... ... : ... .. . ... : ... .. . ... : ... .. . ...
ROW 5E : ... .. . ... ... ... ... : ... .. 2 ... ... ... ... : ... .. . ... : ... .. . ... : ... .. . ...
ROW 5F : ... .. . ... ... ... ... : ... .. 1 ... ... ... ... : ... .. . ... : ... .. . ... : ... .. . ...
ROW 60 : ... .. . ... ... ... ... : D-5 00 5 ... ... ... ... : A-3 00 . ... : 6-# 00 6 ... : ... .. . ...
ROW 61 : ... .. . ... ... ... ... : ... .. 4 ... ... ... ... : ... .. . ... : ... .. 5 ... : ... .. . ...
ROW 62 : ... .. . ... ... ... ... : ... .. 3 ... ... ... ... : ... .. . ... : ... .. 4 ... : ... .. . ...
ROW 63 : ... .. . ... ... ... ... : ... .. 2 ... ... ... ... : ... .. . ... : ... .. 3 ... : ... .. . ...
ROW 64 : ... .. . ... ... ... ... : ... .. 1 ... ... ... ... : ... .. . ... : ... .. . ... : ... .. . ...
ROW 65 : ... .. . ... ... ... ... : ... .. . ... ... ... ... : ... .. . ... : ... .. . ... : ... .. . ...
ROW 66 : ... .. . ... ... ... ... : ... .. 0 ... ... ... ... : ... .. . ... : ... .. . ... : ... .. . ...
ROW 67 : ... .. . ... ... ... ... : ... .. . ... ... ... ... : ... .. . ... : ... .. . ... : ... .. . ...
ROW 68 : ... .. . ... ... ... ... : ... .. . ... ... ... ... : ... .. . ... : ... .. . ... : ... .. . ...
ROW 69 : ... .. . ... ... ... ... : G-5 00 2 ... ... ... ... : ... .. . ... : ... .. . ... : ... .. . ...
ROW 6A : ... .. . ... ... ... ... : ... .. 1 ... ... ... ... : ... .. . ... : ... .. . ... : ... .. . ...
ROW 6B : ... .. . ... ... ... ... : ... .. . ... ... ... ... : ... .. . ... : ... .. . ... : ... .. . ...
ROW 6C : ... .. 3 ... ... ... ... : E-5 00 5 ... ... ... ... : --- .. . ... : ... .. 2 ... : ... .. . ...
ROW 6D : ... .. . ... ... ... ... : ... .. 4 ... ... ... ... : ... .. . ... : ... .. . ... : ... .. . ...
ROW 6E : ... .. . ... ... ... ... : ... .. 3 ... ... ... ... : ... .. . ... : ... .. . ... : ... .. . ...
ROW 6F : ... .. . ... ... ... ... : ... .. 2 ... ... ... ... : ... .. . ... : ... .. . ... : ... .. . ...
ROW 70 : ... .. 2 ... ... ... ... : ... .. 1 ... ... ... ... : ... .. . ... : ... .. . ... : ... .. . ...
ROW 71 : ... .. . ... ... ... ... : ... .. . ... ... ... ... : ... .. . ... : ... .. . ... : ... .. . ...
ROW 72 : ... .. . ... ... ... ... : ... .. 0 ... ... ... ... : ... .. . ... : ... .. . ... : ... .. . ...
ROW 73 : ... .. . ... ... ... ... : ... .. . ... ... ... ... : ... .. . ... : ... .. . ... : ... .. . ...
ROW 74 : ... .. 1 ... ... ... ... : ... .. . ... ... ... ... : ... .. . ... : ... .. . ... : ... .. . ...
ROW 75 : ... .. . ... ... ... ... : D-5 00 2 ... ... ... ... : ... .. . ... : ... .. . ... : ... .. . ...
ROW 76 : ... .. . ... ... ... ... : ... .. 1 ... ... ... ... : ... .. . ... : ... .. . ... : ... .. . ...
ROW 77 : ... .. . ... ... ... ... : ... .. . ... ... ... ... : ... .. . ... : ... .. . ... : ... .. . ...
ROW 78 : E-4 00 6 ... ... ... ... : G-5 00 5 ... ... ... ... : A-3 00 . ... : ... .. 1 ... : ... .. . ...
ROW 79 : ... .. . ... ... ... ... : ... .. 4 ... ... ... ... : ... .. . ... : ... .. . ... : ... .. . ...
ROW 7A : ... .. 5 ... ... ... ... : ... .. 3 ... ... ... ... : ... .. . ... : ... .. . ... : ... .. . ...
ROW 7B : ... .. . ... ... ... ... : ... .. 2 ... ... ... ... : ... .. . ... : ... .. . ... : ... .. . ...
ROW 7C : ... .. 4 ... ... ... ... : ... .. 1 ... ... ... ... : ... .. . ... : ... .. . ... : ... .. . ...
ROW 7D : ... .. . ... ... ... ... : ... .. . ... ... ... ... : ... .. . ... : ... .. . ... : ... .. . ...
ROW 7E : ... .. . ... ... ... ... : ... .. 0 ... ... ... ... : ... .. . ... : ... .. . ... : ... .. . ...
ROW 7F : ... .. . ... ... ... ... : ... .. . ... ... ... ... : ... .. . ... : ... .. . ... : ... .. . ...
ROW 80 : ... .. . ... ... ... ... : ... .. . ... ... ... ... : ... .. . ... : ... .. . ... : ... .. . ...
ROW 81 : ... .. 3 ... ... ... ... : E-5 00 2 ... ... ... ... : ... .. . ... : ... .. . ... : ... .. . ...
ROW 82 : ... .. 2 ... ... ... ... : ... .. 1 ... ... ... ... : ... .. . ... : ... .. . ... : ... .. . ...
ROW 83 : ... .. 1 ... ... ... ... : ... .. . ... ... ... ... : ... .. . ... : ... .. . ... : ... .. . ...
ROW 84 : F-4 00 6 ... ... ... ... : C-6 00 5 ... ... ... ... : --- .. . ... : --- .. . ... : ... .. . ...
ROW 85 : ... .. . ... ... ... ... : ... .. 4 ... ... ... ... : ... .. . ... : ... .. . ... : ... .. . ...
ROW 86 : ... .. 5 ... ... ... ... : ... .. 3 ... ... ... ... : ... .. . ... : ... .. . ... : ... .. . ...
ROW 87 : ... .. . ... ... ... ... : ... .. 2 ... ... ... ... : ... .. . ... : ... .. . ... : ... .. . ...
ROW 88 : ... .. 4 ... ... ... ... : ... .. 1 ... ... ... ... : ... .. . ... : ... .. . ... : ... .. . ...
ROW 89 : ... .. . ... ... ... ... : ... .. . ... ... ... ... : ... .. . ... : ... .. . ... : ... .. . ...
ROW 8A : ... .. . ... ... ... ... : ... .. . ... ... ... ... : ... .. . ... : ... .. . ... : ... .. . ...
ROW 8B : ... .. . ... ... ... ... : ... .. . ... ... ... ... : ... .. . ... : ... .. . ... : ... .. . ...
ROW 8C : ... .. . ... ... ... ... : ... .. . ... ... ... ... : ... .. . ... : ... .. . ... : ... .. . ...
ROW 8D : ... .. . ... ... ... ... : G-5 00 2 ... ... ... ... : ... .. . ... : ... .. . ... : ... .. . ...
ROW 8E : ... .. . ... ... ... ... : ... .. 1 ... ... ... ... : ... .. . ... : ... .. . ... : ... .. . ...
ROW 8F : ... .. . ... ... ... D00 : ... .. . ... ... ... ... : ... .. . ... : ... .. . ... : ... .. . ...
ROW 90 : ... .. . ... ... ... ... : E-5 00 5 ... ... ... ... : A-2 00 . ... : 6-# 00 6 ... : ... .. . ...
ROW 91 : ... .. . ... ... ... ... : ... .. 4 ... ... ... ... : ... .. . ... : ... .. 5 ... : ... .. . ...
ROW 92 : ... .. . ... ... ... ... : ... .. 3 ... ... ... ... : ... .. . ... : ... .. 4 ... : ... .. . ...
ROW 93 : ... .. . ... ... ... ... : ... .. 2 ... ... ... ... : ... .. . ... : ... .. 3 ... : ... .. . ...
ROW 94 : ... .. . ... ... ... ... : ... .. 1 ... ... ... ... : ... .. . ... : ... .. . ... : ... .. . ...
ROW 95 : ... .. . ... ... ... ... : ... .. . ... ... ... ... : ... .. . ... : ... .. . ... : ... .. . ...
ROW 96 : ... .. . ... ... ... ... : ... .. 0 ... ... ... ... : ... .. . ... : ... .. . ... : ... .. . ...
ROW 97 : ... .. . ... ... ... ... : ... .. . ... ... ... ... : ... .. . ... : ... .. . ... : ... .. . ...
ROW 98 : ... .. . ... ... ... ... : ... .. . ... ... ... ... : ... .. . ... : ... .. . ... : ... .. . ...
ROW 99 : ... .. . ... ... ... ... : G-5 00 2 ... ... ... ... : ... .. . ... : ... .. . ... : ... .. . ...
ROW 9A : ... .. . ... ... ... ... : ... .. 1 ... ... ... ... : ... .. . ... : ... .. . ... : ... .. . ...
ROW 9B : ... .. . ... ... ... ... : ... .. . ... ... ... ... : ... .. . ... : ... .. . ... : ... .. . ...
ROW 9C : ... .. . ... ... ... ... : G-5 00 5 ... ... ... ... : --- .. . ... : ... .. 2 ... : ... .. . ...
ROW 9D : ... .. . ... ... ... ... : ... .. 4 ... ... ... ... : ... .. . ... : ... .. . ... : ... .. . ...
ROW 9E : ... .. . ... ... ... ... : ... .. 3 ... ... ... ... : ... .. . ... : ... .. . ... : ... .. . ...
ROW 9F : ... .. . ... ... ... ... : ... .. 2 ... ... ... ... : ... .. . ... : ... .. . ... : ... .. . ...
ROW A0 : ... .. . ... ... ... ... : ... .. 1 ... ... ... ... : ... .. . ... : ... .. . ... : ... .. . ...
ROW A1 : ... .. . ... ... ... ... : ... .. . ... ... ... ... : ... .. . ... : ... .. . ... : ... .. . ...
ROW A2 : ... .. . ... ... ... ... : ... .. 0 ... ... ... ... : ... .. . ... : ... .. . ... : ... .. . ...
ROW A3 : ... .. . ... ... ... ... : ... .. . ... ... ... ... : ... .. . ... : ... .. . ... : ... .. . ...
ROW A4 : ... .. . ... ... ... ... : ... .. . ... ... ... ... : ... .. . ... : ... .. . ... : ... .. . ...
ROW A5 : ... .. . ... ... ... ... : E-5 00 2 ... ... ... ... : ... .. . ... : ... .. . ... : ... .. . ...
ROW A6 : ... .. . ... ... ... ... : ... .. 1 ... ... ... ... : ... .. . ... : ... .. . ... : ... .. . ...
ROW A7 : ... .. . ... ... ... ... : ... .. . ... ... ... ... : ... .. . ... : ... .. . ... : ... .. . ...
ROW A8 : ... .. . ... ... ... ... : B-5 00 5 ... ... ... ... : A-2 00 . ... : ... .. 1 ... : ... .. . ...
ROW A9 : ... .. . ... ... ... ... : ... .. 4 ... ... ... ... : ... .. . ... : ... .. . ... : ... .. . ...
ROW AA : ... .. . ... ... ... ... : ... .. 3 ... ... ... ... : ... .. . ... : ... .. . ... : ... .. . ...
ROW AB : ... .. . ... ... ... ... : ... .. 2 ... ... ... ... : ... .. . ... : ... .. . ... : ... .. . ...
ROW AC : ... .. . ... ... ... ... : ... .. 1 ... ... ... ... : ... .. . ... : ... .. . ... : ... .. . ...
ROW AD : ... .. . ... ... ... ... : ... .. . ... ... ... ... : ... .. . ... : ... .. . ... : ... .. . ...
ROW AE : ... .. . ... ... ... ... : ... .. 0 ... ... ... ... : ... .. . ... : ... .. . ... : ... .. . ...
ROW AF : ... .. . ... ... ... ... : ... .. . ... ... ... ... : ... .. . ... : ... .. . ... : ... .. . ...
ROW B0 : ... .. . ... ... ... ... : ... .. . ... ... ... ... : ... .. . ... : ... .. . ... : ... .. . ...
ROW B1 : ... .. . ... ... ... ... : G-5 00 2 ... ... ... ... : ... .. . ... : ... .. . ... : ... .. . ...
ROW B2 : ... .. . ... ... ... ... : ... .. 1 ... ... ... ... : ... .. . ... : ... .. . ... : ... .. . ...
ROW B3 : ... .. . ... ... ... ... : ... .. . ... ... ... ... : ... .. . ... : ... .. . ... : ... .. . ...
ROW B4 : ... .. . ... ... ... ... : D-6 00 5 ... ... ... ... : --- .. . ... : ... .. . ... : ... .. . ...
ROW B5 : ... .. . ... ... ... ... : ... .. 4 ... ... ... ... : ... .. . ... : ... .. . ... : ... .. . ...
ROW B6 : ... .. . ... ... ... ... : ... .. 3 ... ... ... ... : ... .. . ... : ... .. . ... : ... .. . ...
ROW B7 : ... .. . ... ... ... ... : ... .. 2 ... ... ... ... : ... .. . ... : ... .. . ... : ... .. . ...
ROW B8 : ... .. . ... ... ... ... : ... .. 1 ... ... ... ... : ... .. . ... : ... .. . ... : ... .. . ...
ROW B9 : ... .. . ... ... ... ... : ... .. . ... ... ... ... : ... .. . ... : ... .. . ... : ... .. . ...
ROW BA : ... .. . ... ... ... ... : ... .. 0 ... ... ... ... : ... .. . ... : ... .. . ... : ... .. . ...
ROW BB : ... .. . ... ... ... ... : ... .. . ... ... ... ... : ... .. . ... : ... .. . ... : ... .. . ...
ROW BC : ... .. . ... ... ... ... : ... .. . ... ... ... ... : ... .. . ... : ... .. . ... : ... .. . ...
ROW BD : ... .. . ... ... ... ... : B-5 00 2 ... ... ... ... : ... .. . ... : ... .. . ... : ... .. . ...
ROW BE : ... .. . ... ... ... ... : ... .. 1 ... ... ... ... : ... .. . ... : ... .. . ... : ... .. . ...
ROW BF : ... .. . ... ... ... ... : ... .. . ... ... ... ... : ... .. . ... : ... .. . ... : ... .. . ...
ROW C0 : ... .. . ... ... ... ... : ... .. . ... ... ... ... : A-3 00 . ... : ... .. . ... : ... .. . ...
ROW C1 : ... .. . ... ... ... ... : ... .. . ... ... ... ... : ... .. . ... : ... .. . ... : ... .. . ...
ROW C2 : ... .. . ... ... ... ... : ... .. . ... ... ... ... : ... .. . ... : ... .. . ... : ... .. . ...
ROW C3 : ... .. . ... ... ... ... : ... .. . ... ... ... ... : ... .. . ... : ... .. . ... : ... .. . ...
ROW C4 : ... .. . ... ... ... ... : ... .. . ... ... ... ... : ... .. . ... : ... .. . ... : ... .. . ...
ROW C5 : ... .. . ... ... ... ... : ... .. . ... ... ... ... : ... .. . ... : ... .. . ... : ... .. . ...
ROW C6 : ... .. . ... ... ... ... : ... .. . ... ... ... ... : ... .. . ... : ... .. . ... : ... .. . ...
ROW C7 : ... .. . ... ... ... ... : ... .. . ... ... ... ... : ... .. . ... : ... .. . ... : ... .. . ...
ROW C8 : ... .. . ... ... ... ... : ... .. . ... ... ... ... : ... .. . ... : ... .. . ... : ... .. . ...
ROW C9 : ... .. . ... ... ... ... : ... .. . ... ... ... ... : ... .. . ... : ... .. . ... : ... .. . ...
ROW CA : ... .. . ... ... ... ... : ... .. . ... ... ... ... : ... .. . ... : ... .. . ... : ... .. . ...
ROW CB : ... .. . ... ... ... ... : ... .. . ... ... ... ... : ... .. . ... : ... .. . ... : ... .. . ...
ROW CC : ... .. . ... ... ... ... : ... .. . ... ... ... ... : --- .. . ... : ... .. . ... : ... .. . ...
ROW CD : ... .. . ... ... ... ... : ... .. . ... ... ... ... : ... .. . ... : ... .. . ... : ... .. . ...
ROW CE : ... .. . ... ... ... ... : ... .. . ... ... ... ... : ... .. . ... : ... .. . ... : ... .. . ...
ROW CF : ... .. . ... ... ... ... : ... .. . ... ... ... ... : ... .. . ... : ... .. . ... : ... .. . ...
ROW D0 : ... .. . ... ... ... ... : ... .. . ... ... ... ... : ... .. . ... : ... .. . ... : ... .. . ...
ROW D1 : ... .. . ... ... ... ... : ... .. . ... ... ... ... : ... .. . ... : ... .. . ... : ... .. . ...
ROW D2 : ... .. . ... ... ... ... : ... .. . ... ... ... ... : ... .. . ... : ... .. . ... : ... .. . ...
ROW D3 : ... .. . ... ... ... ... : ... .. . ... ... ... ... : ... .. . ... : ... .. . ... : ... .. . ...
ROW D4 : ... .. . ... ... ... ... : ... .. . ... ... ... ... : ... .. . ... : ... .. . ... : ... .. . ...
ROW D5 : ... .. . ... ... ... ... : ... .. . ... ... ... ... : ... .. . ... : ... .. . ... : ... .. . ...
ROW D6 : ... .. . ... ... ... ... : ... .. . ... ... ... ... : ... .. . ... : ... .. . ... : ... .. . ...
ROW D7 : ... .. . ... ... ... ... : ... .. . ... ... ... ... : ... .. . ... : ... .. . ... : ... .. . ...
ROW D8 : ... .. . ... ... ... ... : ... .. . ... ... ... ... : ... .. . ... : ... .. . ... : ... .. . ...
ROW D9 : ... .. . ... ... ... ... : ... .. . ... ... ... ... : ... .. . ... : ... .. . ... : ... .. . ...
ROW DA : ... .. . ... ... ... ... : ... .. . ... ... ... ... : ... .. . ... : ... .. . ... : ... .. . ...
ROW DB : ... .. . ... ... ... ... : ... .. . ... ... ... ... : ... .. . ... : ... .. . ... : ... .. . ...
ROW DC : ... .. . ... ... ... ... : ... .. . ... ... ... ... : ... .. . ... : ... .. . ... : ... .. . ...
ROW DD : ... .. . ... ... ... ... : ... .. . ... ... ... ... : ... .. . ... : ... .. . ... : ... .. . ...
ROW DE : ... .. . ... ... ... ... : ... .. . ... ... ... ... : ... .. . ... : ... .. . ... : ... .. . ...
ROW DF : ... .. . ... ... ... ... : ... .. . ... ... ... ... : ... .. . ... : ... .. . ... : ... .. . ...

PATTERN 4A
ROW 00 : ... .. . ... ... ... ... : ... .. . ... ... ... ... : D-4 00 . ... : 6-# 00 6 ... : ... .. . ...
ROW 01 : ... .. . ... ... ... ... : ... .. . ... ... ... ... : ... .. . ... : ... .. 5 ... : ... .. . ...
ROW 02 : ... .. . ... ... ... ... : A-3 00 6 V02 ... ... ... : ... .. . ... : ... .. 4 ... : ... .. . ...
ROW 03 : ... .. . ... ... ... ... : ... .. . ... ... ... ... : ... .. . ... : ... .. 3 ... : ... .. . ...
ROW 04 : G-4 00 7 V01 ... ... ... : ... .. . ... ... ... ... : ... .. . ... : ... .. . ... : ... .. . ...
ROW 05 : ... .. . ... ... ... ... : ... .. . ... ... ... ... : ... .. . ... : ... .. . ... : ... .. . ...
ROW 06 : ... .. . ... ... ... ... : ... .. 5 ... ... ... ... : ... .. . ... : ... .. . ... : ... .. . ...
ROW 07 : ... .. . ... ... ... ... : ... .. . ... ... ... ... : ... .. . ... : ... .. . ... : ... .. . ...
ROW 08 : ... .. 6 ... ... ... ... : ... .. . ... ... ... ... : ... .. . ... : ... .. . ... : ... .. . ...
ROW 09 : ... .. . ... ... ... ... : ... .. . ... ... ... ... : ... .. . ... : ... .. . ... : ... .. . ...
ROW 0A : ... .. . ... ... ... ... : ... .. 4 ... ... ... ... : ... .. . ... : ... .. . ... : ... .. . ...
ROW 0B : ... .. . ... ... ... ... : ... .. . ... ... ... ... : ... .. . ... : ... .. . ... : ... .. . ...
ROW 0C : ... .. 5 ... ... ... ... : ... .. . ... ... ... ... : ... .. . ... : ... .. 2 ... : ... .. . ...
ROW 0D : ... .. . ... ... ... ... : ... .. . ... ... ... ... : ... .. . ... : ... .. . ... : ... .. . ...
ROW 0E : ... .. . ... ... ... ... : ... .. . ... ... ... ... : ... .. . ... : ... .. . ... : ... .. . ...
ROW 0F : ... .. . ... ... ... ... : ... .. . ... ... ... ... : ... .. . ... : ... .. . ... : ... .. . ...
ROW 10 : ... .. . ... ... ... ... : ... .. . ... ... ... ... : ... .. . ... : ... .. . ... : ... .. . ...
ROW 11 : ... .. . ... ... ... ... : ... .. . ... ... ... ... : ... .. . ... : ... .. . ... : ... .. . ...
ROW 12 : ... .. . ... ... ... ... : ... .. . ... ... ... ... : ... .. . ... : ... .. . ... : ... .. . ...
ROW 13 : ... .. . ... ... ... ... : ... .. . ... ... ... ... : ... .. . ... : ... .. . ... : ... .. . ...
ROW 14 : ... .. . ... ... ... ... : ... .. . ... ... ... ... : ... .. . ... : ... .. . ... : ... .. . ...
ROW 15 : ... .. . ... ... ... ... : ... .. . ... ... ... ... : ... .. . ... : ... .. . ... : ... .. . ...
ROW 16 : ... .. . ... ... ... ... : ... .. . ... ... ... 451 : ... .. . ... : ... .. . ... : ... .. . ...
ROW 17 : ... .. . ... ... ... ... : ... .. . ... ... ... ... : ... .. . ... : ... .. . ... : ... .. . ...
ROW 18 : ... .. . ... ... ... 451 : ... .. . ... ... ... ... : ... .. . ... : ... .. 1 ... : ... .. . ...
ROW 19 : ... .. . ... ... ... ... : ... .. . ... ... ... ... : ... .. . ... : ... .. . ... : ... .. . ...
ROW 1A : ... .. . ... ... ... ... : ... .. . ... ... ... ... : ... .. . ... : ... .. . ... : ... .. . ...
ROW 1B : ... .. . ... ... ... ... : ... .. . ... ... ... ... : ... .. . ... : ... .. . ... : ... .. . ...
ROW 1C : ... .. . ... ... ... ... : ... .. . ... ... ... ... : ... .. . ... : ... .. . ... : ... .. . ...
ROW 1D : ... .. . ... ... ... ... : ... .. . ... ... ... ... : ... .. . ... : ... .. . ... : ... .. . ...
ROW 1E : ... .. . ... ... ... ... : ... .. . ... ... ... ... : ... .. . ... : ... .. . ... : ... .. . ...
ROW 1F : ... .. . ... ... ... ... : ... .. . ... ... ... ... : ... .. . ... : ... .. . ... : ... .. . ...
ROW 20 : ... .. . ... ... ... ... : ... .. . ... ... ... ... : ... .. . ... : ... .. . ... : ... .. . ...
ROW 21 : ... .. . ... ... ... ... : ... .. . ... ... ... ... : ... .. . ... : ... .. . ... : ... .. . ...
ROW 22 : ... .. . ... ... ... ... : ... .. . ... ... ... ... : ... .. . ... : ... .. . ... : ... .. . ...
ROW 23 : ... .. . ... ... ... ... : ... .. . ... ... ... ... : ... .. . ... : ... .. . ... : ... .. . ...
ROW 24 : ... .. . ... ... ... ... : ... .. . ... ... ... ... : ... .. . ... : --- .. . ... : ... .. . ...
ROW 25 : ... .. . ... ... ... ... : ... .. . ... ... ... ... : ... .. . ... : ... .. . ... : ... .. . ...
ROW 26 : ... .. . ... ... ... ... : ... .. . ... ... ... ... : ... .. . ... : ... .. . ... : ... .. . ...
ROW 27 : ... .. . ... ... ... ... : ... .. . ... ... ... ... : ... .. . ... : ... .. . ... : ... .. . ...
ROW 28 : ... .. . ... ... ... ... : ... .. . ... ... ... ... : ... .. . ... : ... .. . ... : ... .. . ...
ROW 29 : ... .. . ... ... ... ... : ... .. . ... ... ... ... : ... .. . ... : ... .. . ... : ... .. . ...
ROW 2A : ... .. . ... ... ... ... : ... .. . ... ... ... ... : ... .. . F02 : ... .. . ... : ... .. . ...
ROW 2B : ... .. . ... ... ... ... : ... .. . ... ... ... ... : ... .. . ... : ... .. . ... : ... .. . ...
ROW 2C : ... .. . ... ... ... ... : ... .. . ... ... ... ... : ... .. . ... : ... .. . ... : ... .. . ...
ROW 2D : ... .. 3 ... ... ... ... : ... .. 3 ... ... ... ... : ... .. . ... : ... .. . ... : ... .. . ...
ROW 2E : ... .. . ... ... ... ... : ... .. . ... ... ... ... : ... .. . ... : ... .. . ... : ... .. . ...
ROW 2F : ... .. . ... ... ... ... : ... .. . ... ... ... ... : ... .. . ... : ... .. . ... : ... .. . ...
ROW 30 : ... .. 2 ... ... ... ... : ... .. 2 ... ... ... ... : ... .. . ... : ... .. . ... : ... .. . ...
ROW 31 : ... .. . ... ... ... ... : ... .. . ... ... ... ... : ... .. . ... : ... .. . ... : ... .. . ...
ROW 32 : ... .. . ... ... ... ... : ... .. . ... ... ... ... : --- .. . ... : ... .. . ... : ... .. . ...
ROW 33 : ... .. 1 ... ... ... ... : ... .. 1 ... ... ... ... : ... .. . ... : ... .. . ... : ... .. . ...
ROW 34 : ... .. . ... ... ... ... : ... .. . ... ... ... ... : A-4 00 . F01 : 6-# 00 6 ... : ... .. . ...
ROW 35 : ... .. . ... ... ... ... : ... .. . ... ... ... ... : ... .. . ... : ... .. 5 ... : ... .. . ...
ROW 36 : ... .. . ... ... ... ... : C-4 00 6 V02 ... ... 400 : ... .. . ... : ... .. 4 ... : ... .. . ...
ROW 37 : ... .. . ... ... ... ... : ... .. . ... ... ... ... : ... .. . ... : ... .. 3 ... : ... .. . ...
ROW 38 : F-4 00 7 V01 ... ... 400 : ... .. . ... ... ... ... : ... .. . ... : ... .. . ... : ... .. . ...
ROW 39 : ... .. . ... ... ... ... : ... .. . ... ... ... ... : ... .. . ... : ... .. . ... : ... .. . ...
ROW 3A : ... .. . ... ... ... ... : ... .. 5 ... ... ... ... : ... .. . ... : ... .. . ... : ... .. . ...
ROW 3B : ... .. . ... ... ... ... : ... .. . ... ... ... ... : ... .. . ... : ... .. . ... : ... .. . ...
ROW 3C : ... .. 6 ... ... ... ... : ... .. . ... ... ... ... : ... .. . ... : ... .. . ... : ... .. . ...
ROW 3D : ... .. . ... ... ... ... : ... .. . ... ... ... ... : ... .. . ... : ... .. . ... : ... .. . ...
ROW 3E : ... .. . ... ... ... ... : ... .. 4 ... ... ... ... : ... .. . ... : ... .. . ... : ... .. . ...
ROW 3F : ... .. . ... ... ... ... : ... .. . ... ... ... ... : ... .. . ... : ... .. . ... : ... .. . ...
ROW 40 : ... .. 5 ... ... ... ... : ... .. . ... ... ... ... : ... .. . ... : ... .. 2 ... : ... .. . ...
ROW 41 : ... .. . ... ... ... ... : ... .. . ... ... ... ... : ... .. . ... : ... .. . ... : ... .. . ...
ROW 42 : ... .. . ... ... ... ... : ... .. . ... ... ... ... : ... .. . ... : ... .. . ... : ... .. . ...
ROW 43 : ... .. . ... ... ... ... : ... .. . ... ... ... ... : ... .. . ... : ... .. . ... : ... .. . ...
ROW 44 : ... .. . ... ... ... ... : ... .. . ... ... ... ... : ... .. . ... : ... .. . ... : ... .. . ...
ROW 45 : ... .. . ... ... ... ... : ... .. . ... ... ... ... : ... .. . ... : ... .. . ... : ... .. . ...
ROW 46 : ... .. . ... ... ... ... : ... .. . ... ... ... ... : ... .. . ... : ... .. . ... : ... .. . ...
ROW 47 : ... .. . ... ... ... ... : ... .. . ... ... ... ... : ... .. . ... : ... .. . ... : ... .. . ...
ROW 48 : ... .. . ... ... ... ... : ... .. . ... ... ... ... : ... .. . ... : ... .. . ... : ... .. . ...
ROW 49 : ... .. . ... ... ... ... : ... .. . ... ... ... ... : ... .. . ... : ... .. . ... : ... .. . ...
ROW 4A : ... .. . ... ... ... ... : ... .. . ... ... ... ... : ... .. . ... : ... .. . ... : ... .. . ...
ROW 4B : ... .. . ... ... ... ... : ... .. . ... ... ... ... : ... .. . ... : ... .. . ... : ... .. . ...
ROW 4C : ... .. . ... ... ... ... : ... .. . ... ... ... ... : ... .. . ... : ... .. 1 ... : ... .. . ...
ROW 4D : ... .. . ... ... ... ... : ... .. . ... ... ... ... : ... .. . ... : ... .. . ... : ... .. . ...
ROW 4E : ... .. . ... ... ... ... : ... .. . ... ... ... ... : ... .. . ... : ... .. . ... : ... .. . ...
ROW 4F : ... .. . ... ... ... ... : ... .. . ... ... ... ... : ... .. . ... : ... .. . ... : ... .. . ...
ROW 50 : ... .. . ... ... ... ... : ... .. . ... ... ... ... : ... .. . ... : ... .. . ... : ... .. . ...
ROW 51 : ... .. . ... ... ... ... : ... .. . ... ... ... ... : ... .. . ... : ... .. . ... : ... .. . ...
ROW 52 : ... .. . ... ... ... ... : ... .. . ... ... ... 451 : ... .. . ... : ... .. . ... : ... .. . ...
ROW 53 : ... .. . ... ... ... ... : ... .. . ... ... ... ... : ... .. . ... : ... .. . ... : ... .. . ...
ROW 54 : ... .. . ... ... ... 451 : ... .. . ... ... ... ... : ... .. . ... : ... .. . ... : ... .. . ...
ROW 55 : ... .. . ... ... ... ... : ... .. . ... ... ... ... : ... .. . ... : ... .. . ... : ... .. . ...
ROW 56 : ... .. . ... ... ... ... : ... .. . ... ... ... ... : ... .. . ... : ... .. . ... : ... .. . ...
ROW 57 : ... .. . ... ... ... ... : ... .. . ... ... ... ... : ... .. . ... : ... .. . ... : ... .. . ...
ROW 58 : ... .. . ... ... ... ... : ... .. . ... ... ... ... : ... .. . ... : ... .. . ... : ... .. . ...
ROW 59 : ... .. . ... ... ... ... : ... .. . ... ... ... ... : ... .. . ... : ... .. . ... : ... .. . ...
ROW 5A : ... .. . ... ... ... ... : ... .. . ... ... ... ... : ... .. . ... : ... .. . ... : ... .. . ...
ROW 5B : ... .. . ... ... ... ... : ... .. . ... ... ... ... : ... .. . ... : ... .. . ... : ... .. . ...
ROW 5C : ... .. . ... ... ... ... : ... .. . ... ... ... ... : ... .. . ... : ... .. . ... : ... .. . ...
ROW 5D : ... .. . ... ... ... ... : ... .. . ... ... ... ... : ... .. . ... : ... .. . ... : ... .. . ...
ROW 5E : ... .. . ... ... ... ... : ... .. . ... ... ... ... : ... .. . ... : ... .. . ... : ... .. . ...
ROW 5F : ... .. . ... ... ... ... : ... .. . ... ... ... ... : ... .. . ... : ... .. . ... : ... .. . ...
ROW 60 : ... .. . ... ... ... ... : ... .. . ... ... ... ... : ... .. . F02 : ... .. . ... : ... .. . ...
ROW 61 : ... .. 3 ... ... ... ... : ... .. 3 ... ... ... ... : ... .. . ... : ... .. . ... : ... .. . ...
ROW 62 : ... .. . ... ... ... ... : ... .. . ... ... ... ... : ... .. . ... : ... .. . ... : ... .. . ...
ROW 63 : ... .. . ... ... ... ... : ... .. . ... ... ... ... : ... .. . ... : ... .. . ... : ... .. . ...
ROW 64 : ... .. 2 ... ... ... ... : ... .. 2 ... ... ... ... : ... .. . ... : ... .. . ... : ... .. . ...
ROW 65 : ... .. . ... ... ... ... : ... .. . ... ... ... ... : ... .. . ... : ... .. . ... : ... .. . ...
ROW 66 : ... .. . ... ... ... ... : ... .. . ... ... ... ... : --- .. . ... : ... .. . ... : ... .. . ...
ROW 67 : ... .. 1 ... ... ... ... : ... .. 1 ... ... ... ... : ... .. . ... : ... .. . ... : ... .. . ...
ROW 68 : ... .. . ... ... ... ... : ... .. . ... ... ... ... : G-4 00 . F01 : 6-# 00 6 ... : ... .. . ...
ROW 69 : ... .. . ... ... ... ... : ... .. . ... ... ... ... : ... .. . ... : ... .. 5 ... : ... .. . ...
ROW 6A : ... .. . ... ... ... ... : C-4 00 6 V02 ... ... 400 : ... .. . ... : ... .. 4 ... : ... .. . ...
ROW 6B : ... .. . ... ... ... ... : ... .. . ... ... ... ... : ... .. . ... : ... .. 3 ... : ... .. . ...
ROW 6C : D-4 00 7 V01 ... ... 400 : ... .. . ... ... ... ... : ... .. . ... : ... .. . ... : ... .. . ...
ROW 6D : ... .. . ... ... ... ... : ... .. . ... ... ... ... : ... .. . ... : ... .. . ... : ... .. . ...
ROW 6E : ... .. . ... ... ... ... : ... .. 5 ... ... ... ... : ... .. . ... : ... .. . ... : ... .. . ...
ROW 6F : ... .. . ... ... ... ... : ... .. . ... ... ... ... : ... .. . ... : ... .. . ... : ... .. . ...
ROW 70 : ... .. 6 ... ... ... ... : ... .. . ... ... ... ... : ... .. . ... : ... .. . ... : ... .. . ...
ROW 71 : ... .. . ... ... ... ... : ... .. . ... ... ... ... : ... .. . ... : ... .. . ... : ... .. . ...
ROW 72 : ... .. . ... ... ... ... : ... .. 4 ... ... ... ... : ... .. . ... : ... .. . ... : ... .. . ...
ROW 73 : ... .. . ... ... ... ... : ... .. . ... ... ... ... : ... .. . ... : ... .. . ... : ... .. . ...
ROW 74 : ... .. 5 ... ... ... ... : ... .. . ... ... ... ... : ... .. . ... : ... .. 2 ... : ... .. . ...
ROW 75 : ... .. . ... ... ... ... : ... .. . ... ... ... ... : ... .. . ... : ... .. . ... : ... .. . ...
ROW 76 : ... .. . ... ... ... ... : ... .. . ... ... ... ... : ... .. . ... : ... .. . ... : ... .. . ...
ROW 77 : ... .. . ... ... ... ... : ... .. . ... ... ... ... : ... .. . ... : ... .. . ... : ... .. . ...
ROW 78 : ... .. . ... ... ... ... : ... .. . ... ... ... ... : ... .. . ... : ... .. . ... : ... .. . ...
ROW 79 : ... .. . ... ... ... ... : ... .. . ... ... ... ... : ... .. . ... : ... .. . ... : ... .. . ...
ROW 7A : ... .. . ... ... ... ... : ... .. . ... ... ... ... : ... .. . ... : ... .. . ... : ... .. . ...
ROW 7B : ... .. . ... ... ... ... : ... .. . ... ... ... ... : ... .. . ... : ... .. . ... : ... .. . ...
ROW 7C : ... .. . ... ... ... ... : ... .. . ... ... ... ... : ... .. . ... : ... .. . ... : ... .. . ...
ROW 7D : ... .. . ... ... ... ... : ... .. . ... ... ... ... : ... .. . ... : ... .. . ... : ... .. . ...
ROW 7E : ... .. . ... ... ... ... : ... .. . ... ... ... ... : ... .. . ... : ... .. . ... : ... .. . ...
ROW 7F : ... .. . ... ... ... ... : ... .. . ... ... ... ... : ... .. . ... : ... .. . ... : ... .. . ...
ROW 80 : ... .. . ... ... ... ... : ... .. . ... ... ... ... : ... .. . ... : ... .. 1 ... : ... .. . ...
ROW 81 : ... .. . ... ... ... ... : ... .. . ... ... ... ... : ... .. . ... : ... .. . ... : ... .. . ...
ROW 82 : ... .. . ... ... ... ... : ... .. . ... ... ... ... : ... .. . ... : ... .. . ... : ... .. . ...
ROW 83 : ... .. . ... ... ... ... : ... .. . ... ... ... ... : ... .. . ... : ... .. . ... : ... .. . ...
ROW 84 : ... .. . ... ... ... ... : ... .. . ... ... ... ... : ... .. . ... : ... .. . ... : ... .. . ...
ROW 85 : ... .. . ... ... ... ... : ... .. . ... ... ... ... : ... .. . ... : ... .. . ... : ... .. . ...
ROW 86 : ... .. . ... ... ... ... : ... .. . ... ... ... ... : ... .. . ... : ... .. . ... : ... .. . ...
ROW 87 : ... .. . ... ... ... ... : ... .. . ... ... ... ... : ... .. . ... : ... .. . ... : ... .. . ...
ROW 88 : ... .. . ... ... ... ... : ... .. . ... ... ... ... : ... .. . ... : ... .. . ... : ... .. . ...
ROW 89 : ... .. . ... ... ... ... : ... .. . ... ... ... ... : ... .. . ... : ... .. . ... : ... .. . ...
ROW 8A : ... .. . ... ... ... ... : ... .. . ... ... ... ... : ... .. . ... : ... .. . ... : ... .. . ...
ROW 8B : ... .. . ... ... ... ... : ... .. . ... ... ... ... : ... .. . ... : ... .. . ... : ... .. . ...
ROW 8C : ... .. . ... ... ... ... : ... .. . ... ... ... ... : ... .. . ... : --- .. . ... : ... .. . ...
ROW 8D : ... .. . ... ... ... ... : ... .. . ... ... ... ... : ... .. . ... : ... .. . ... : ... .. . ...
ROW 8E : ... .. . ... ... ... ... : ... .. . ... ... ... 451 : ... .. . ... : ... .. . ... : ... .. . ...
ROW 8F : ... .. . ... ... ... ... : ... .. . ... ... ... ... : ... .. . ... : ... .. . ... : ... .. . ...
ROW 90 : ... .. . ... ... ... 451 : ... .. . ... ... ... ... : ... .. . ... : ... .. . ... : ... .. . ...
ROW 91 : ... .. . ... ... ... ... : ... .. . ... ... ... ... : ... .. . ... : ... .. . ... : ... .. . ...
ROW 92 : ... .. . ... ... ... ... : ... .. . ... ... ... ... : ... .. . ... : ... .. . ... : ... .. . ...
ROW 93 : ... .. . ... ... ... ... : ... .. . ... ... ... ... : ... .. . ... : ... .. . ... : ... .. . ...
ROW 94 : ... .. . ... ... ... ... : ... .. . ... ... ... ... : ... .. . ... : ... .. . ... : ... .. . ...
ROW 95 : ... .. . ... ... ... ... : ... .. . ... ... ... ... : ... .. . ... : ... .. . ... : ... .. . ...
ROW 96 : ... .. . ... ... ... ... : ... .. . ... ... ... ... : ... .. . ... : ... .. . ... : ... .. . ...
ROW 97 : ... .. . ... ... ... ... : ... .. . ... ... ... ... : ... .. . ... : ... .. . ... : ... .. . ...
ROW 98 : ... .. . ... ... ... ... : ... .. . ... ... ... ... : ... .. . ... : ... .. . ... : ... .. . ...
ROW 99 : ... .. . ... ... ... ... : ... .. . ... ... ... ... : ... .. . ... : ... .. . ... : ... .. . ...
ROW 9A : ... .. . ... ... ... ... : ... .. . ... ... ... ... : ... .. . ... : ... .. . ... : ... .. . ...
ROW 9B : ... .. . ... ... ... ... : ... .. . ... ... ... ... : ... .. . ... : ... .. . ... : ... .. . ...
ROW 9C : ... .. . ... ... ... ... : ... .. . ... ... ... ... : ... .. . F02 : ... .. . ... : ... .. . ...
ROW 9D : ... .. . ... ... ... ... : ... .. . ... ... ... ... : ... .. . ... : ... .. . ... : ... .. . ...
ROW 9E : ... .. . ... ... ... ... : ... .. . ... ... ... ... : ... .. . ... : ... .. . ... : ... .. . ...
ROW 9F : ... .. . ... ... ... ... : ... .. . ... ... ... ... : ... .. . ... : ... .. . ... : ... .. . ...
ROW A0 : ... .. . ... ... ... ... : ... .. . ... ... ... ... : ... .. . ... : ... .. . ... : ... .. . ...
ROW A1 : ... .. 3 ... ... ... ... : ... .. 3 ... ... ... ... : ... .. . ... : ... .. . ... : ... .. . ...
ROW A2 : ... .. . ... ... ... ... : ... .. . ... ... ... ... : ... .. . ... : ... .. . ... : ... .. . ...
ROW A3 : ... .. . ... ... ... ... : ... .. . ... ... ... ... : ... .. . ... : ... .. . ... : ... .. . ...
ROW A4 : ... .. 2 ... ... ... ... : ... .. 2 ... ... ... ... : ... .. . ... : ... .. . ... : ... .. . ...
ROW A5 : ... .. . ... ... ... ... : ... .. . ... ... ... ... : ... .. . ... : ... .. . ... : ... .. . ...
ROW A6 : ... .. . ... ... ... ... : ... .. . ... ... ... ... : --- .. . ... : ... .. . ... : ... .. . ...
ROW A7 : ... .. 1 ... ... ... ... : ... .. 1 ... ... ... ... : ... .. . ... : ... .. . ... : ... .. . ...
ROW A8 : ... .. . ... ... ... ... : ... .. . ... ... ... ... : G-3 00 . F01 : 6-# 00 6 ... : ... .. . ...
ROW A9 : ... .. . ... ... ... ... : ... .. . ... ... ... ... : ... .. . ... : ... .. 5 ... : ... .. . ...
ROW AA : ... .. . ... ... ... ... : F-3 00 6 V02 ... ... 400 : ... .. . ... : ... .. 4 ... : ... .. . ...
ROW AB : ... .. . ... ... ... ... : ... .. . ... ... ... ... : ... .. . ... : ... .. 3 ... : ... .. . ...
ROW AC : D-4 00 7 V01 ... ... 400 : ... .. . ... ... ... ... : ... .. . ... : ... .. . ... : ... .. . ...
ROW AD : ... .. . ... ... ... ... : ... .. . ... ... ... ... : ... .. . ... : ... .. . ... : ... .. . ...
ROW AE : ... .. . ... ... ... ... : ... .. 5 ... ... ... ... : ... .. . ... : ... .. . ... : ... .. . ...
ROW AF : ... .. . ... ... ... ... : ... .. . ... ... ... ... : ... .. . ... : ... .. . ... : ... .. . ...
ROW B0 : ... .. 6 ... ... ... ... : ... .. . ... ... ... ... : ... .. . ... : ... .. . ... : ... .. . ...
ROW B1 : ... .. . ... ... ... ... : ... .. . ... ... ... ... : ... .. . ... : ... .. . ... : ... .. . ...
ROW B2 : ... .. . ... ... ... ... : ... .. 4 ... ... ... ... : ... .. . ... : ... .. . ... : ... .. . ...
ROW B3 : ... .. . ... ... ... ... : ... .. . ... ... ... ... : ... .. . ... : ... .. . ... : ... .. . ...
ROW B4 : ... .. 5 ... ... ... ... : ... .. . ... ... ... ... : ... .. . ... : ... .. 2 ... : ... .. . ...
ROW B5 : ... .. . ... ... ... ... : ... .. . ... ... ... ... : ... .. . ... : ... .. . ... : ... .. . ...
ROW B6 : ... .. . ... ... ... ... : ... .. . ... ... ... ... : ... .. . ... : ... .. . ... : ... .. . ...
ROW B7 : ... .. . ... ... ... ... : ... .. . ... ... ... ... : ... .. . ... : ... .. . ... : ... .. . ...
ROW B8 : ... .. . ... ... ... ... : ... .. . ... ... ... ... : ... .. . ... : ... .. . ... : ... .. . ...
ROW B9 : ... .. . ... ... ... ... : ... .. . ... ... ... ... : ... .. . ... : ... .. . ... : ... .. . ...
ROW BA : ... .. . ... ... ... ... : ... .. . ... ... ... ... : ... .. . ... : ... .. . ... : ... .. . ...
ROW BB : ... .. . ... ... ... ... : ... .. . ... ... ... ... : ... .. . ... : ... .. . ... : ... .. . ...
ROW BC : ... .. . ... ... ... ... : ... .. . ... ... ... ... : ... .. . ... : ... .. . ... : ... .. . ...
ROW BD : ... .. . ... ... ... ... : ... .. . ... ... ... ... : ... .. . ... : ... .. . ... : ... .. . ...
ROW BE : ... .. . ... ... ... ... : ... .. . ... ... ... ... : ... .. . ... : ... .. . ... : ... .. . ...
ROW BF : ... .. . ... ... ... ... : ... .. . ... ... ... ... : ... .. . ... : ... .. . ... : ... .. . ...
ROW C0 : ... .. . ... ... ... ... : ... .. . ... ... ... ... : ... .. . ... : ... .. 1 ... : ... .. . ...
ROW C1 : ... .. . ... ... ... ... : ... .. . ... ... ... ... : ... .. . ... : ... .. . ... : ... .. . ...
ROW C2 : ... .. . ... ... ... ... : ... .. . ... ... ... ... : ... .. . ... : ... .. . ... : ... .. . ...
ROW C3 : ... .. . ... ... ... ... : ... .. . ... ... ... ... : ... .. . ... : ... .. . ... : ... .. . ...
ROW C4 : ... .. . ... ... ... ... : ... .. . ... ... ... ... : ... .. . ... : ... .. . ... : ... .. . ...
ROW C5 : ... .. . ... ... ... ... : ... .. . ... ... ... ... : ... .. . ... : ... .. . ... : ... .. . ...
ROW C6 : ... .. . ... ... ... ... : ... .. . ... ... ... ... : ... .. . ... : ... .. . ... : ... .. . ...
ROW C7 : ... .. . ... ... ... ... : ... .. . ... ... ... ... : ... .. . ... : ... .. . ... : ... .. . ...
ROW C8 : ... .. . ... ... ... ... : ... .. . ... ... ... ... : ... .. . ... : ... .. . ... : ... .. . ...
ROW C9 : ... .. . ... ... ... ... : ... .. . ... ... ... ... : ... .. . ... : ... .. . ... : ... .. . ...
ROW CA : ... .. . ... ... ... ... : ... .. . ... ... ... 451 : ... .. . ... : ... .. . ... : ... .. . ...
ROW CB : ... .. . ... ... ... ... : ... .. . ... ... ... ... : ... .. . ... : ... .. . ... : ... .. . ...
ROW CC : ... .. . ... ... ... 451 : ... .. . ... ... ... ... : ... .. . ... : --- .. . ... : ... .. . ...
ROW CD : ... .. . ... ... ... ... : ... .. . ... ... ... ... : ... .. . ... : ... .. . ... : ... .. . ...
ROW CE : ... .. . ... ... ... ... : ... .. . ... ... ... ... : ... .. . ... : ... .. . ... : ... .. . ...
ROW CF : ... .. . ... ... ... ... : ... .. . ... ... ... ... : ... .. . ... : ... .. . ... : ... .. . ...
ROW D0 : ... .. . ... ... ... ... : ... .. . ... ... ... ... : ... .. . ... : ... .. . ... : ... .. . ...
ROW D1 : ... .. . ... ... ... ... : ... .. . ... ... ... ... : ... .. . ... : ... .. . ... : ... .. . ...
ROW D2 : ... .. . ... ... ... ... : ... .. . ... ... ... ... : ... .. . ... : ... .. . ... : ... .. . ...
ROW D3 : ... .. . ... ... ... ... : ... .. . ... ... ... ... : ... .. . ... : ... .. . ... : ... .. . ...
ROW D4 : ... .. . ... ... ... ... : ... .. . ... ... ... ... : ... .. . ... : ... .. . ... : ... .. . ...
ROW D5 : ... .. . ... ... ... ... : ... .. . ... ... ... ... : ... .. . ... : ... .. . ... : ... .. . ...
ROW D6 : ... .. . ... ... ... ... : ... .. . ... ... ... ... : ... .. . ... : ... .. . ... : ... .. . ...
ROW D7 : ... .. . ... ... ... ... : ... .. . ... ... ... ... : ... .. . ... : ... .. . ... : ... .. . ...
ROW D8 : ... .. 3 ... ... ... ... : ... .. 3 ... ... ... ... : ... .. . ... : ... .. . F07 : ... .. . ...
ROW D9 : ... .. . ... ... ... ... : ... .. . ... ... ... ... : ... .. . ... : ... .. . ... : ... .. . ...
ROW DA : ... .. . ... ... ... ... : ... .. . ... ... ... ... : ... .. . ... : ... .. . ... : ... .. . ...
ROW DB : ... .. 2 ... ... ... ... : ... .. 2 ... ... ... ... : ... .. . ... : ... .. . ... : ... .. . ...
ROW DC : ... .. . ... ... ... ... : ... .. . ... ... ... ... : ... .. . ... : ... .. . ... : ... .. . ...
ROW DD : ... .. . ... ... ... ... : ... .. . ... ... ... ... : ... .. . ... : ... .. . ... : ... .. . ...
ROW DE : ... .. 1 ... ... ... ... : ... .. 1 ... ... ... ... : --- .. . ... : ... .. . ... : ... .. . ...
ROW DF : ... .. . ... ... ... 400 : ... .. . ... ... ... 400 : ... .. . ... : ... .. . ... : ... .. . ...

PATTERN 4B
ROW 00 : C-3 00 4 V02 ... ... P80 : ... .. . ... ... ... P80 : C-4 00 . P80 : ... .. . F01 : ... .. . ...
ROW 01 : ... .. . ... ... ... ... : ... .. . ... ... ... ... : ... .. . ... : ... .. . ... : ... .. . ...
ROW 02 : ... .. . ... ... ... ... : ... .. . ... ... ... ... : ... .. . ... : ... .. . ... : ... .. . ...
ROW 03 : ... .. . ... ... ... ... : ... .. . ... ... ... ... : ... .. . ... : ... .. . ... : ... .. . ...
ROW 04 : ... .. 3 ... ... ... ... : ... .. . ... ... ... ... : ... .. . ... : ... .. . ... : ... .. . ...
ROW 05 : ... .. . ... ... ... ... : ... .. . ... ... ... ... : ... .. . ... : ... .. . ... : ... .. . ...
ROW 06 : ... .. . ... ... ... ... : ... .. . ... ... ... ... : ... .. . ... : ... .. . ... : ... .. . ...
ROW 07 : ... .. . ... ... ... ... : D-4 00 4 V02 ... ... ... : ... .. . ... : ... .. . ... : ... .. . ...
ROW 08 : ... .. 2 ... ... ... ... : ... .. . ... ... ... ... : ... .. . ... : ... .. . ... : ... .. . ...
ROW 09 : ... .. . ... ... ... ... : ... .. . ... ... ... ... : ... .. . ... : ... .. . ... : ... .. . ...
ROW 0A : ... .. . ... ... ... ... : ... .. . ... ... ... ... : ... .. . ... : ... .. . ... : ... .. . ...
ROW 0B : ... .. . ... ... ... ... : ... .. 3 ... ... ... ... : ... .. . ... : ... .. . ... : ... .. . ...
ROW 0C : ... .. . ... ... ... ... : ... .. . ... ... ... ... : ... .. . ... : ... .. . ... : ... .. . ...
ROW 0D : ... .. . ... ... ... ... : ... .. . ... ... ... ... : ... .. . ... : ... .. . ... : ... .. . ...
ROW 0E : E-4 00 4 ... ... ... ... : ... .. . ... ... ... ... : ... .. . ... : ... .. . ... : ... .. . ...
ROW 0F : ... .. . ... ... ... ... : ... .. 2 ... ... ... ... : ... .. . ... : ... .. . ... : ... .. . ...
ROW 10 : ... .. . ... ... ... ... : ... .. . ... ... ... ... : ... .. . ... : ... .. . ... : ... .. . ...
ROW 11 : ... .. . ... ... ... ... : ... .. . ... ... ... ... : ... .. . ... : ... .. . ... : ... .. . ...
ROW 12 : ... .. 3 ... ... ... ... : ... .. . ... ... ... ... : ... .. . ... : ... .. . ... : ... .. . ...
ROW 13 : ... .. . ... ... ... ... : ... .. . ... ... ... ... : ... .. . ... : ... .. . ... : ... .. . ...
ROW 14 : ... .. . ... ... ... ... : ... .. . ... ... ... ... : ... .. . ... : ... .. . ... : ... .. . ...
ROW 15 : ... .. 2 ... ... ... ... : G-4 00 4 ... ... ... ... : ... .. . ... : ... .. . ... : ... .. . ...
ROW 16 : ... .. . ... ... ... ... : ... .. . ... ... ... ... : ... .. . ... : ... .. . ... : ... .. . ...
ROW 17 : ... .. . ... ... ... ... : ... .. . ... ... ... ... : ... .. . ... : ... .. . ... : ... .. . ...
ROW 18 : ... .. . ... ... ... ... : ... .. . ... ... ... ... : ... .. . ... : ... .. . ... : ... .. . ...
ROW 19 : ... .. . ... ... ... ... : ... .. 3 ... ... ... ... : ... .. . ... : ... .. . ... : ... .. . ...
ROW 1A : ... .. . ... ... ... ... : ... .. . ... ... ... ... : ... .. . ... : ... .. . ... : ... .. . ...
ROW 1B : ... .. . ... ... ... ... : ... .. . ... ... ... ... : ... .. . ... : ... .. . ... : ... .. . ...
ROW 1C : B-4 00 4 ... ... ... ... : ... .. . ... ... ... ... : ... .. . ... : ... .. . ... : ... .. . ...
ROW 1D : ... .. . ... ... ... ... : ... .. 2 ... ... ... ... : ... .. . ... : ... .. . ... : ... .. . ...
ROW 1E : ... .. . ... ... ... ... : ... .. . ... ... ... ... : ... .. . ... : ... .. . ... : ... .. . ...
ROW 1F : ... .. . ... ... ... ... : ... .. . ... ... ... ... : ... .. . ... : ... .. . ... : ... .. . ...
ROW 20 : ... .. 3 ... ... ... ... : ... .. . ... ... ... ... : ... .. . ... : ... .. . ... : ... .. . ...
ROW 21 : ... .. . ... ... ... ... : ... .. . ... ... ... ... : ... .. . ... : ... .. . ... : ... .. . ...
ROW 22 : ... .. . ... ... ... ... : ... .. 1 ... ... ... ... : --- .. . ... : ... .. . ... : ... .. . ...
ROW 23 : ... .. . ... ... ... ... : ... .. . ... ... ... ... : C-4 00 . ... : ... .. . ... : ... .. . ...
ROW 24 : ... .. 2 ... ... ... ... : ... .. . ... ... ... ... : --- .. . ... : ... .. . ... : ... .. . ...
ROW 25 : ... .. . ... ... ... ... : ... .. 0 ... ... ... ... : ... .. . ... : ... .. . ... : ... .. . ...
ROW 26 : ... .. . ... ... ... ... : ... .. . ... ... ... ... : ... .. . ... : ... .. . ... : ... .. . ...
ROW 27 : ... .. . ... ... ... ... : ... .. . ... ... ... ... : ... .. . ... : ... .. . ... : ... .. . ...
ROW 28 : ... .. . ... ... ... ... : ... .. . ... ... ... ... : ... .. . ... : ... .. . ... : ... .. . ...
ROW 29 : ... .. 1 ... ... ... ... : ... .. . ... ... ... ... : ... .. . ... : ... .. . ... : ... .. . ...
ROW 2A : ... .. . ... ... ... ... : ... .. . ... ... ... ... : ... .. . ... : ... .. . ... : ... .. . ...
ROW 2B : ... .. . ... ... ... ... : ... .. . ... ... ... ... : ... .. . ... : ... .. . ... : ... .. . ...
ROW 2C : ... .. 0 ... ... ... ... : ... .. . ... ... ... ... : ... .. . ... : ... .. . ... : ... .. . ...
ROW 2D : ... .. . ... ... ... ... : ... .. . ... ... ... ... : ... .. . ... : ... .. . ... : ... .. . ...
ROW 2E : ... .. . ... ... ... ... : ... .. . ... ... ... ... : ... .. . ... : ... .. . ... : ... .. . ...
ROW 2F : ... .. . ... ... ... ... : ... .. . ... ... ... ... : ... .. . ... : ... .. . ... : ... .. . ...
ROW 30 : ... .. . ... ... ... ... : ... .. . ... ... ... ... : ... .. . ... : ... .. . ... : ... .. . ...
ROW 31 : ... .. . ... ... ... ... : ... .. . ... ... ... ... : ... .. . ... : ... .. . ... : ... .. . ...
ROW 32 : ... .. . ... ... ... ... : ... .. . ... ... ... ... : ... .. . ... : ... .. . ... : ... .. . ...
ROW 33 : ... .. . ... ... ... ... : ... .. . ... ... ... ... : ... .. . ... : ... .. . ... : ... .. . ...
ROW 34 : ... .. . ... ... ... ... : ... .. . ... ... ... ... : ... .. . ... : ... .. . ... : ... .. . ...
ROW 35 : ... .. . ... ... ... ... : ... .. . ... ... ... ... : ... .. . ... : ... .. . ... : ... .. . ...
ROW 36 : ... .. . ... ... ... C00 : ... .. . ... ... ... ... : ... .. . ... : ... .. . ... : ... .. . ...
ROW 37 : ... .. . ... ... ... ... : ... .. . ... ... ... ... : ... .. . ... : ... .. . ... : ... .. . ...
ROW 38 : ... .. . ... ... ... ... : ... .. . ... ... ... ... : ... .. . ... : ... .. . ... : ... .. . ...
ROW 39 : ... .. . ... ... ... ... : ... .. . ... ... ... ... : ... .. . ... : ... .. . ... : ... .. . ...
ROW 3A : ... .. . ... ... ... ... : ... .. . ... ... ... ... : ... .. . ... : ... .. . ... : ... .. . ...
ROW 3B : ... .. . ... ... ... ... : ... .. . ... ... ... ... : ... .. . ... : ... .. . ... : ... .. . ...
ROW 3C : ... .. . ... ... ... ... : ... .. . ... ... ... ... : ... .. . ... : ... .. . ... : ... .. . ...
ROW 3D : ... .. . ... ... ... ... : ... .. . ... ... ... ... : ... .. . ... : ... .. . ... : ... .. . ...
ROW 3E : ... .. . ... ... ... ... : ... .. . ... ... ... ... : ... .. . ... : ... .. . ... : ... .. . ...
ROW 3F : ... .. . ... ... ... ... : ... .. . ... ... ... ... : ... .. . ... : ... .. . ... : ... .. . ...
ROW 40 : ... .. . ... ... ... ... : ... .. . ... ... ... ... : ... .. . ... : ... .. . ... : ... .. . ...
ROW 41 : ... .. . ... ... ... ... : ... .. . ... ... ... ... : ... .. . ... : ... .. . ... : ... .. . ...
ROW 42 : ... .. . ... ... ... ... : ... .. . ... ... ... ... : ... .. . ... : ... .. . ... : ... .. . ...
ROW 43 : ... .. . ... ... ... ... : ... .. . ... ... ... ... : ... .. . ... : ... .. . ... : ... .. . ...
ROW 44 : ... .. . ... ... ... ... : ... .. . ... ... ... ... : ... .. . ... : ... .. . ... : ... .. . ...
ROW 45 : ... .. . ... ... ... ... : ... .. . ... ... ... ... : ... .. . ... : ... .. . ... : ... .. . ...
ROW 46 : ... .. . ... ... ... ... : ... .. . ... ... ... ... : ... .. . ... : ... .. . ... : ... .. . ...
ROW 47 : ... .. . ... ... ... ... : ... .. . ... ... ... ... : ... .. . ... : ... .. . ... : ... .. . ...
ROW 48 : ... .. . ... ... ... ... : ... .. . ... ... ... ... : ... .. . ... : ... .. . ... : ... .. . ...
ROW 49 : ... .. . ... ... ... ... : ... .. . ... ... ... ... : ... .. . ... : ... .. . ... : ... .. . ...
ROW 4A : ... .. . ... ... ... ... : ... .. . ... ... ... ... : ... .. . ... : ... .. . ... : ... .. . ...
ROW 4B : ... .. . ... ... ... ... : ... .. . ... ... ... ... : ... .. . ... : ... .. . ... : ... .. . ...
ROW 4C : ... .. . ... ... ... ... : ... .. . ... ... ... ... : ... .. . ... : ... .. . ... : ... .. . ...
ROW 4D : ... .. . ... ... ... ... : ... .. . ... ... ... ... : ... .. . ... : ... .. . ... : ... .. . ...
ROW 4E : ... .. . ... ... ... ... : ... .. . ... ... ... ... : ... .. . ... : ... .. . ... : ... .. . ...
ROW 4F : ... .. . ... ... ... ... : ... .. . ... ... ... ... : ... .. . ... : ... .. . ... : ... .. . ...
ROW 50 : ... .. . ... ... ... ... : ... .. . ... ... ... ... : ... .. . ... : ... .. . ... : ... .. . ...
ROW 51 : ... .. . ... ... ... ... : ... .. . ... ... ... ... : ... .. . ... : ... .. . ... : ... .. . ...
ROW 52 : ... .. . ... ... ... ... : ... .. . ... ... ... ... : ... .. . ... : ... .. . ... : ... .. . ...
ROW 53 : ... .. . ... ... ... ... : ... .. . ... ... ... ... : ... .. . ... : ... .. . ... : ... .. . ...
ROW 54 : ... .. . ... ... ... ... : ... .. . ... ... ... ... : ... .. . ... : ... .. . ... : ... .. . ...
ROW 55 : ... .. . ... ... ... ... : ... .. . ... ... ... ... : ... .. . ... : ... .. . ... : ... .. . ...
ROW 56 : ... .. . ... ... ... ... : ... .. . ... ... ... ... : ... .. . ... : ... .. . ... : ... .. . ...
ROW 57 : ... .. . ... ... ... ... : ... .. . ... ... ... ... : ... .. . ... : ... .. . ... : ... .. . ...
ROW 58 : ... .. . ... ... ... ... : ... .. . ... ... ... ... : ... .. . ... : ... .. . ... : ... .. . ...
ROW 59 : ... .. . ... ... ... ... : ... .. . ... ... ... ... : ... .. . ... : ... .. . ... : ... .. . ...
ROW 5A : ... .. . ... ... ... ... : ... .. . ... ... ... ... : ... .. . ... : ... .. . ... : ... .. . ...
ROW 5B : ... .. . ... ... ... ... : ... .. . ... ... ... ... : ... .. . ... : ... .. . ... : ... .. . ...
ROW 5C : ... .. . ... ... ... ... : ... .. . ... ... ... ... : ... .. . ... : ... .. . ... : ... .. . ...
ROW 5D : ... .. . ... ... ... ... : ... .. . ... ... ... ... : ... .. . ... : ... .. . ... : ... .. . ...
ROW 5E : ... .. . ... ... ... ... : ... .. . ... ... ... ... : ... .. . ... : ... .. . ... : ... .. . ...
ROW 5F : ... .. . ... ... ... ... : ... .. . ... ... ... ... : ... .. . ... : ... .. . ... : ... .. . ...
ROW 60 : ... .. . ... ... ... ... : ... .. . ... ... ... ... : ... .. . ... : ... .. . ... : ... .. . ...
ROW 61 : ... .. . ... ... ... ... : ... .. . ... ... ... ... : ... .. . ... : ... .. . ... : ... .. . ...
ROW 62 : ... .. . ... ... ... ... : ... .. . ... ... ... ... : ... .. . ... : ... .. . ... : ... .. . ...
ROW 63 : ... .. . ... ... ... ... : ... .. . ... ... ... ... : ... .. . ... : ... .. . ... : ... .. . ...
ROW 64 : ... .. . ... ... ... ... : ... .. . ... ... ... ... : ... .. . ... : ... .. . ... : ... .. . ...
ROW 65 : ... .. . ... ... ... ... : ... .. . ... ... ... ... : ... .. . ... : ... .. . ... : ... .. . ...
ROW 66 : ... .. . ... ... ... ... : ... .. . ... ... ... ... : ... .. . ... : ... .. . ... : ... .. . ...
ROW 67 : ... .. . ... ... ... ... : ... .. . ... ... ... ... : ... .. . ... : ... .. . ... : ... .. . ...
ROW 68 : ... .. . ... ... ... ... : ... .. . ... ... ... ... : ... .. . ... : ... .. . ... : ... .. . ...
ROW 69 : ... .. . ... ... ... ... : ... .. . ... ... ... ... : ... .. . ... : ... .. . ... : ... .. . ...
ROW 6A : ... .. . ... ... ... ... : ... .. . ... ... ... ... : ... .. . ... : ... .. . ... : ... .. . ...
ROW 6B : ... .. . ... ... ... ... : ... .. . ... ... ... ... : ... .. . ... : ... .. . ... : ... .. . ...
ROW 6C : ... .. . ... ... ... ... : ... .. . ... ... ... ... : ... .. . ... : ... .. . ... : ... .. . ...
ROW 6D : ... .. . ... ... ... ... : ... .. . ... ... ... ... : ... .. . ... : ... .. . ... : ... .. . ...
ROW 6E : ... .. . ... ... ... ... : ... .. . ... ... ... ... : ... .. . ... : ... .. . ... : ... .. . ...
ROW 6F : ... .. . ... ... ... ... : ... .. . ... ... ... ... : ... .. . ... : ... .. . ... : ... .. . ...
ROW 70 : ... .. . ... ... ... ... : ... .. . ... ... ... ... : ... .. . ... : ... .. . ... : ... .. . ...
ROW 71 : ... .. . ... ... ... ... : ... .. . ... ... ... ... : ... .. . ... : ... .. . ... : ... .. . ...
ROW 72 : ... .. . ... ... ... ... : ... .. . ... ... ... ... : ... .. . ... : ... .. . ... : ... .. . ...
ROW 73 : ... .. . ... ... ... ... : ... .. . ... ... ... ... : ... .. . ... : ... .. . ... : ... .. . ...
ROW 74 : ... .. . ... ... ... ... : ... .. . ... ... ... ... : ... .. . ... : ... .. . ... : ... .. . ...
ROW 75 : ... .. . ... ... ... ... : ... .. . ... ... ... ... : ... .. . ... : ... .. . ... : ... .. . ...
ROW 76 : ... .. . ... ... ... ... : ... .. . ... ... ... ... : ... .. . ... : ... .. . ... : ... .. . ...
ROW 77 : ... .. . ... ... ... ... : ... .. . ... ... ... ... : ... .. . ... : ... .. . ... : ... .. . ...
ROW 78 : ... .. . ... ... ... ... : ... .. . ... ... ... ... : ... .. . ... : ... .. . ... : ... .. . ...
ROW 79 : ... .. . ... ... ... ... : ... .. . ... ... ... ... : ... .. . ... : ... .. . ... : ... .. . ...
ROW 7A : ... .. . ... ... ... ... : ... .. . ... ... ... ... : ... .. . ... : ... .. . ... : ... .. . ...
ROW 7B : ... .. . ... ... ... ... : ... .. . ... ... ... ... : ... .. . ... : ... .. . ... : ... .. . ...
ROW 7C : ... .. . ... ... ... ... : ... .. . ... ... ... ... : ... .. . ... : ... .. . ... : ... .. . ...
ROW 7D : ... .. . ... ... ... ... : ... .. . ... ... ... ... : ... .. . ... : ... .. . ... : ... .. . ...
ROW 7E : ... .. . ... ... ... ... : ... .. . ... ... ... ... : ... .. . ... : ... .. . ... : ... .. . ...
ROW 7F : ... .. . ... ... ... ... : ... .. . ... ... ... ... : ... .. . ... : ... .. . ... : ... .. . ...
ROW 80 : ... .. . ... ... ... ... : ... .. . ... ... ... ... : ... .. . ... : ... .. . ... : ... .. . ...
ROW 81 : ... .. . ... ... ... ... : ... .. . ... ... ... ... : ... .. . ... : ... .. . ... : ... .. . ...
ROW 82 : ... .. . ... ... ... ... : ... .. . ... ... ... ... : ... .. . ... : ... .. . ... : ... .. . ...
ROW 83 : ... .. . ... ... ... ... : ... .. . ... ... ... ... : ... .. . ... : ... .. . ... : ... .. . ...
ROW 84 : ... .. . ... ... ... ... : ... .. . ... ... ... ... : ... .. . ... : ... .. . ... : ... .. . ...
ROW 85 : ... .. . ... ... ... ... : ... .. . ... ... ... ... : ... .. . ... : ... .. . ... : ... .. . ...
ROW 86 : ... .. . ... ... ... ... : ... .. . ... ... ... ... : ... .. . ... : ... .. . ... : ... .. . ...
ROW 87 : ... .. . ... ... ... ... : ... .. . ... ... ... ... : ... .. . ... : ... .. . ... : ... .. . ...
ROW 88 : ... .. . ... ... ... ... : ... .. . ... ... ... ... : ... .. . ... : ... .. . ... : ... .. . ...
ROW 89 : ... .. . ... ... ... ... : ... .. . ... ... ... ... : ... .. . ... : ... .. . ... : ... .. . ...
ROW 8A : ... .. . ... ... ... ... : ... .. . ... ... ... ... : ... .. . ... : ... .. . ... : ... .. . ...
ROW 8B : ... .. . ... ... ... ... : ... .. . ... ... ... ... : ... .. . ... : ... .. . ... : ... .. . ...
ROW 8C : ... .. . ... ... ... ... : ... .. . ... ... ... ... : ... .. . ... : ... .. . ... : ... .. . ...
ROW 8D : ... .. . ... ... ... ... : ... .. . ... ... ... ... : ... .. . ... : ... .. . ... : ... .. . ...
ROW 8E : ... .. . ... ... ... ... : ... .. . ... ... ... ... : ... .. . ... : ... .. . ... : ... .. . ...
ROW 8F : ... .. . ... ... ... ... : ... .. . ... ... ... ... : ... .. . ... : ... .. . ... : ... .. . ...
ROW 90 : ... .. . ... ... ... ... : ... .. . ... ... ... ... : ... .. . ... : ... .. . ... : ... .. . ...
ROW 91 : ... .. . ... ... ... ... : ... .. . ... ... ... ... : ... .. . ... : ... .. . ... : ... .. . ...
ROW 92 : ... .. . ... ... ... ... : ... .. . ... ... ... ... : ... .. . ... : ... .. . ... : ... .. . ...
ROW 93 : ... .. . ... ... ... ... : ... .. . ... ... ... ... : ... .. . ... : ... .. . ... : ... .. . ...
ROW 94 : ... .. . ... ... ... ... : ... .. . ... ... ... ... : ... .. . ... : ... .. . ... : ... .. . ...
ROW 95 : ... .. . ... ... ... ... : ... .. . ... ... ... ... : ... .. . ... : ... .. . ... : ... .. . ...
ROW 96 : ... .. . ... ... ... ... : ... .. . ... ... ... ... : ... .. . ... : ... .. . ... : ... .. . ...
ROW 97 : ... .. . ... ... ... ... : ... .. . ... ... ... ... : ... .. . ... : ... .. . ... : ... .. . ...
ROW 98 : ... .. . ... ... ... ... : ... .. . ... ... ... ... : ... .. . ... : ... .. . ... : ... .. . ...
ROW 99 : ... .. . ... ... ... ... : ... .. . ... ... ... ... : ... .. . ... : ... .. . ... : ... .. . ...
ROW 9A : ... .. . ... ... ... ... : ... .. . ... ... ... ... : ... .. . ... : ... .. . ... : ... .. . ...
ROW 9B : ... .. . ... ... ... ... : ... .. . ... ... ... ... : ... .. . ... : ... .. . ... : ... .. . ...
ROW 9C : ... .. . ... ... ... ... : ... .. . ... ... ... ... : ... .. . ... : ... .. . ... : ... .. . ...
ROW 9D : ... .. . ... ... ... ... : ... .. . ... ... ... ... : ... .. . ... : ... .. . ... : ... .. . ...
ROW 9E : ... .. . ... ... ... ... : ... .. . ... ... ... ... : ... .. . ... : ... .. . ... : ... .. . ...
ROW 9F : ... .. . ... ... ... ... : ... .. . ... ... ... ... : ... .. . ... : ... .. . ... : ... .. . ...
ROW A0 : ... .. . ... ... ... ... : ... .. . ... ... ... ... : ... .. . ... : ... .. . ... : ... .. . ...
ROW A1 : ... .. . ... ... ... ... : ... .. . ... ... ... ... : ... .. . ... : ... .. . ... : ... .. . ...
ROW A2 : ... .. . ... ... ... ... : ... .. . ... ... ... ... : ... .. . ... : ... .. . ... : ... .. . ...
ROW A3 : ... .. . ... ... ... ... : ... .. . ... ... ... ... : ... .. . ... : ... .. . ... : ... .. . ...
ROW A4 : ... .. . ... ... ... ... : ... .. . ... ... ... ... : ... .. . ... : ... .. . ... : ... .. . ...
ROW A5 : ... .. . ... ... ... ... : ... .. . ... ... ... ... : ... .. . ... : ... .. . ... : ... .. . ...
ROW A6 : ... .. . ... ... ... ... : ... .. . ... ... ... ... : ... .. . ... : ... .. . ... : ... .. . ...
ROW A7 : ... .. . ... ... ... ... : ... .. . ... ... ... ... : ... .. . ... : ... .. . ... : ... .. . ...
ROW A8 : ... .. . ... ... ... ... : ... .. . ... ... ... ... : ... .. . ... : ... .. . ... : ... .. . ...
ROW A9 : ... .. . ... ... ... ... : ... .. . ... ... ... ... : ... .. . ... : ... .. . ... : ... .. . ...
ROW AA : ... .. . ... ... ... ... : ... .. . ... ... ... ... : ... .. . ... : ... .. . ... : ... .. . ...
ROW AB : ... .. . ... ... ... ... : ... .. . ... ... ... ... : ... .. . ... : ... .. . ... : ... .. . ...
ROW AC : ... .. . ... ... ... ... : ... .. . ... ... ... ... : ... .. . ... : ... .. . ... : ... .. . ...
ROW AD : ... .. . ... ... ... ... : ... .. . ... ... ... ... : ... .. . ... : ... .. . ... : ... .. . ...
ROW AE : ... .. . ... ... ... ... : ... .. . ... ... ... ... : ... .. . ... : ... .. . ... : ... .. . ...
ROW AF : ... .. . ... ... ... ... : ... .. . ... ... ... ... : ... .. . ... : ... .. . ... : ... .. . ...
ROW B0 : ... .. . ... ... ... ... : ... .. . ... ... ... ... : ... .. . ... : ... .. . ... : ... .. . ...
ROW B1 : ... .. . ... ... ... ... : ... .. . ... ... ... ... : ... .. . ... : ... .. . ... : ... .. . ...
ROW B2 : ... .. . ... ... ... ... : ... .. . ... ... ... ... : ... .. . ... : ... .. . ... : ... .. . ...
ROW B3 : ... .. . ... ... ... ... : ... .. . ... ... ... ... : ... .. . ... : ... .. . ... : ... .. . ...
ROW B4 : ... .. . ... ... ... ... : ... .. . ... ... ... ... : ... .. . ... : ... .. . ... : ... .. . ...
ROW B5 : ... .. . ... ... ... ... : ... .. . ... ... ... ... : ... .. . ... : ... .. . ... : ... .. . ...
ROW B6 : ... .. . ... ... ... ... : ... .. . ... ... ... ... : ... .. . ... : ... .. . ... : ... .. . ...
ROW B7 : ... .. . ... ... ... ... : ... .. . ... ... ... ... : ... .. . ... : ... .. . ... : ... .. . ...
ROW B8 : ... .. . ... ... ... ... : ... .. . ... ... ... ... : ... .. . ... : ... .. . ... : ... .. . ...
ROW B9 : ... .. . ... ... ... ... : ... .. . ... ... ... ... : ... .. . ... : ... .. . ... : ... .. . ...
ROW BA : ... .. . ... ... ... ... : ... .. . ... ... ... ... : ... .. . ... : ... .. . ... : ... .. . ...
ROW BB : ... .. . ... ... ... ... : ... .. . ... ... ... ... : ... .. . ... : ... .. . ... : ... .. . ...
ROW BC : ... .. . ... ... ... ... : ... .. . ... ... ... ... : ... .. . ... : ... .. . ... : ... .. . ...
ROW BD : ... .. . ... ... ... ... : ... .. . ... ... ... ... : ... .. . ... : ... .. . ... : ... .. . ...
ROW BE : ... .. . ... ... ... ... : ... .. . ... ... ... ... : ... .. . ... : ... .. . ... : ... .. . ...
ROW BF : ... .. . ... ... ... ... : ... .. . ... ... ... ... : ... .. . ... : ... .. . ... : ... .. . ...
ROW C0 : ... .. . ... ... ... ... : ... .. . ... ... ... ... : ... .. . ... : ... .. . ... : ... .. . ...
ROW C1 : ... .. . ... ... ... ... : ... .. . ... ... ... ... : ... .. . ... : ... .. . ... : ... .. . ...
ROW C2 : ... .. . ... ... ... ... : ... .. . ... ... ... ... : ... .. . ... : ... .. . ... : ... .. . ...
ROW C3 : ... .. . ... ... ... ... : ... .. . ... ... ... ... : ... .. . ... : ... .. . ... : ... .. . ...
ROW C4 : ... .. . ... ... ... ... : ... .. . ... ... ... ... : ... .. . ... : ... .. . ... : ... .. . ...
ROW C5 : ... .. . ... ... ... ... : ... .. . ... ... ... ... : ... .. . ... : ... .. . ... : ... .. . ...
ROW C6 : ... .. . ... ... ... ... : ... .. . ... ... ... ... : ... .. . ... : ... .. . ... : ... .. . ...
ROW C7 : ... .. . ... ... ... ... : ... .. . ... ... ... ... : ... .. . ... : ... .. . ... : ... .. . ...
ROW C8 : ... .. . ... ... ... ... : ... .. . ... ... ... ... : ... .. . ... : ... .. . ... : ... .. . ...
ROW C9 : ... .. . ... ... ... ... : ... .. . ... ... ... ... : ... .. . ... : ... .. . ... : ... .. . ...
ROW CA : ... .. . ... ... ... ... : ... .. . ... ... ... ... : ... .. . ... : ... .. . ... : ... .. . ...
ROW CB : ... .. . ... ... ... ... : ... .. . ... ... ... ... : ... .. . ... : ... .. . ... : ... .. . ...
ROW CC : ... .. . ... ... ... ... : ... .. . ... ... ... ... : ... .. . ... : ... .. . ... : ... .. . ...
ROW CD : ... .. . ... ... ... ... : ... .. . ... ... ... ... : ... .. . ... : ... .. . ... : ... .. . ...
ROW CE : ... .. . ... ... ... ... : ... .. . ... ... ... ... : ... .. . ... : ... .. . ... : ... .. . ...
ROW CF : ... .. . ... ... ... ... : ... .. . ... ... ... ... : ... .. . ... : ... .. . ... : ... .. . ...
ROW D0 : ... .. . ... ... ... ... : ... .. . ... ... ... ... : ... .. . ... : ... .. . ... : ... .. . ...
ROW D1 : ... .. . ... ... ... ... : ... .. . ... ... ... ... : ... .. . ... : ... .. . ... : ... .. . ...
ROW D2 : ... .. . ... ... ... ... : ... .. . ... ... ... ... : ... .. . ... : ... .. . ... : ... .. . ...
ROW D3 : ... .. . ... ... ... ... : ... .. . ... ... ... ... : ... .. . ... : ... .. . ... : ... .. . ...
ROW D4 : ... .. . ... ... ... ... : ... .. . ... ... ... ... : ... .. . ... : ... .. . ... : ... .. . ...
ROW D5 : ... .. . ... ... ... ... : ... .. . ... ... ... ... : ... .. . ... : ... .. . ... : ... .. . ...
ROW D6 : ... .. . ... ... ... ... : ... .. . ... ... ... ... : ... .. . ... : ... .. . ... : ... .. . ...
ROW D7 : ... .. . ... ... ... ... : ... .. . ... ... ... ... : ... .. . ... : ... .. . ... : ... .. . ...
ROW D8 : ... .. . ... ... ... ... : ... .. . ... ... ... ... : ... .. . ... : ... .. . ... : ... .. . ...
ROW D9 : ... .. . ... ... ... ... : ... .. . ... ... ... ... : ... .. . ... : ... .. . ... : ... .. . ...
ROW DA : ... .. . ... ... ... ... : ... .. . ... ... ... ... : ... .. . ... : ... .. . ... : ... .. . ...
ROW DB : ... .. . ... ... ... ... : ... .. . ... ... ... ... : ... .. . ... : ... .. . ... : ... .. . ...
ROW DC : ... .. . ... ... ... ... : ... .. . ... ... ... ... : ... .. . ... : ... .. . ... : ... .. . ...
ROW DD : ... .. . ... ... ... ... : ... .. . ... ... ... ... : ... .. . ... : ... .. . ... : ... .. . ...
ROW DE : ... .. . ... ... ... ... : ... .. . ... ... ... ... : ... .. . ... : ... .. . ... : ... .. . ...
ROW DF : ... .. . ... ... ... ... : ... .. . ... ... ... ... : ... .. . ... : ... .. . ... : ... .. . ...

PATTERN 4C
ROW 00 : C-2 00 5 V00 ... ... P83 : C-3 00 3 V02 ... ... P7F : C-3 00 . F01 : 2-# 00 5 ... : ... .. . ...
ROW 01 : ... .. . ... ... ... ... : ... .. . ... ... ... ... : ... .. . ... : ... .. 4 ... : ... .. . ...
ROW 02 : ... .. . ... ... ... ... : ... .. . ... ... ... ... : ... .. . ... : ... .. 3 ... : ... .. . ...
ROW 03 : ... .. . ... ... ... ... : ... .. . ... ... ... ... : ... .. . ... : ... .. 2 ... : ... .. . ...
ROW 04 : ... .. . ... ... ... ... : ... .. . ... ... ... ... : ... .. . ... : ... .. 1 ... : ... .. . ...
ROW 05 : ... .. . ... ... ... ... : ... .. . ... ... ... ... : ... .. . ... : ... .. 0 ... : ... .. . ...
ROW 06 : ... .. . ... ... ... ... : ... .. . ... ... ... ... : ... .. . ... : ... .. . ... : ... .. . ...
ROW 07 : ... .. . ... ... ... ... : ... .. . ... ... ... ... : ... .. . ... : ... .. . ... : ... .. . ...
ROW 08 : ... .. . ... ... ... ... : ... .. . ... ... ... ... : ... .. . ... : ... .. . ... : ... .. . ...
ROW 09 : ... .. . ... ... ... ... : ... .. . ... ... ... ... : ... .. . ... : ... .. . ... : ... .. . ...
ROW 0A : ... .. . ... ... ... ... : ... .. . ... ... ... ... : ... .. . ... : ... .. . ... : ... .. . ...
ROW 0B : ... .. . ... ... ... ... : ... .. . ... ... ... ... : ... .. . ... : ... .. . ... : ... .. . ...
ROW 0C : ... .. . ... ... ... ... : ... .. . ... ... ... ... : ... .. . ... : ... .. . ... : ... .. . ...
ROW 0D : ... .. . ... ... ... ... : ... .. . ... ... ... ... : ... .. . ... : ... .. . ... : ... .. . ...
ROW 0E : ... .. 0 ... ... ... ... : C-3 00 5 V00 ... ... P80 : E-4 00 . ... : ... .. . ... : ... .. . ...
ROW 0F : ... .. . ... ... ... ... : ... .. . ... ... ... ... : ... .. . ... : ... .. . ... : ... .. . ...
ROW 10 : ... .. . ... ... ... ... : ... .. . ... ... ... ... : ... .. . ... : ... .. . ... : ... .. . ...
ROW 11 : ... .. . ... ... ... ... : ... .. . ... ... ... ... : ... .. . ... : ... .. . ... : ... .. . ...
ROW 12 : ... .. . ... ... ... ... : ... .. . ... ... ... ... : ... .. . ... : ... .. . ... : ... .. . ...
ROW 13 : ... .. . ... ... ... ... : ... .. . ... ... ... ... : ... .. . ... : ... .. . ... : ... .. . ...
ROW 14 : ... .. . ... ... ... ... : ... .. . ... ... ... ... : ... .. . ... : ... .. . ... : ... .. . ...
ROW 15 : ... .. . ... ... ... ... : ... .. . ... ... ... ... : ... .. . ... : ... .. . ... : ... .. . ...
ROW 16 : ... .. . ... ... ... ... : ... .. . ... ... ... ... : ... .. . ... : ... .. . ... : ... .. . ...
ROW 17 : ... .. . ... ... ... ... : ... .. . ... ... ... ... : ... .. . ... : ... .. . ... : ... .. . ...
ROW 18 : ... .. . ... ... ... ... : ... .. . ... ... ... ... : ... .. . ... : ... .. . ... : ... .. . ...
ROW 19 : ... .. . ... ... ... ... : ... .. . ... ... ... ... : ... .. . ... : ... .. . ... : ... .. . ...
ROW 1A : ... .. . ... ... ... ... : ... .. . ... ... ... ... : ... .. . ... : ... .. . ... : ... .. . ...
ROW 1B : ... .. . ... ... ... ... : ... .. . ... ... ... ... : ... .. . ... : ... .. . ... : ... .. . ...
ROW 1C : ... .. 1 ... ... ... ... : D-3 00 . ... ... ... ... : F#4 00 . ... : ... .. 1 ... : ... .. . ...
ROW 1D : ... .. . ... ... ... ... : ... .. . ... ... ... ... : ... .. . ... : ... .. . ... : ... .. . ...
ROW 1E : ... .. . ... ... ... ... : ... .. . ... ... ... ... : ... .. . ... : ... .. 0 ... : ... .. . ...
ROW 1F : ... .. . ... ... ... ... : ... .. . ... ... ... ... : ... .. . ... : ... .. . ... : ... .. . ...
ROW 20 : ... .. . ... ... ... ... : ... .. . ... ... ... ... : ... .. . ... : ... .. . ... : ... .. . ...
ROW 21 : ... .. . ... ... ... ... : ... .. . ... ... ... ... : ... .. . ... : ... .. . ... : ... .. . ...
ROW 22 : ... .. . ... ... ... ... : ... .. . ... ... ... ... : ... .. . ... : ... .. . ... : ... .. . ...
ROW 23 : ... .. . ... ... ... ... : ... .. . ... ... ... ... : ... .. . ... : ... .. . ... : ... .. . ...
ROW 24 : ... .. . ... ... ... ... : ... .. . ... ... ... ... : ... .. . ... : ... .. . ... : ... .. . ...
ROW 25 : ... .. . ... ... ... ... : ... .. . ... ... ... ... : ... .. . ... : ... .. . ... : ... .. . ...
ROW 26 : ... .. . ... ... ... ... : ... .. . ... ... ... ... : ... .. . ... : ... .. . ... : ... .. . ...
ROW 27 : ... .. . ... ... ... ... : ... .. . ... ... ... ... : ... .. . ... : ... .. . ... : ... .. . ...
ROW 28 : ... .. . ... ... ... ... : ... .. . ... ... ... ... : ... .. . ... : ... .. . ... : ... .. . ...
ROW 29 : ... .. . ... ... ... ... : ... .. . ... ... ... ... : ... .. . ... : ... .. . ... : ... .. . ...
ROW 2A : G-1 00 5 ... ... ... ... : G-2 00 3 V02 ... ... P7F : G-2 00 . ... : 2-# 00 5 ... : ... .. . ...
ROW 2B : ... .. . ... ... ... ... : ... .. . ... ... ... ... : ... .. . ... : ... .. 4 ... : ... .. . ...
ROW 2C : ... .. . ... ... ... ... : ... .. . ... ... ... ... : ... .. . ... : ... .. 3 ... : ... .. . ...
ROW 2D : ... .. . ... ... ... ... : ... .. . ... ... ... ... : ... .. . ... : ... .. 2 ... : ... .. . ...
ROW 2E : ... .. . ... ... ... ... : ... .. . ... ... ... ... : ... .. . ... : ... .. 1 ... : ... .. . ...
ROW 2F : ... .. . ... ... ... ... : ... .. . ... ... ... ... : ... .. . ... : ... .. 0 ... : ... .. . ...
ROW 30 : ... .. . ... ... ... ... : ... .. . ... ... ... ... : ... .. . ... : ... .. . ... : ... .. . ...
ROW 31 : ... .. . ... ... ... ... : ... .. . ... ... ... ... : ... .. . ... : ... .. . ... : ... .. . ...
ROW 32 : ... .. . ... ... ... ... : ... .. . ... ... ... ... : ... .. . ... : ... .. . ... : ... .. . ...
ROW 33 : ... .. . ... ... ... ... : ... .. . ... ... ... ... : ... .. . ... : ... .. . ... : ... .. . ...
ROW 34 : ... .. . ... ... ... ... : ... .. . ... ... ... ... : ... .. . ... : ... .. . ... : ... .. . ...
ROW 35 : ... .. . ... ... ... ... : ... .. . ... ... ... ... : ... .. . ... : ... .. . ... : ... .. . ...
ROW 36 : ... .. . ... ... ... ... : ... .. . ... ... ... ... : ... .. . ... : ... .. . ... : ... .. . ...
ROW 37 : ... .. . ... ... ... ... : ... .. . ... ... ... ... : ... .. . ... : ... .. . ... : ... .. . ...
ROW 38 : C-2 00 . ... ... ... ... : C-3 00 . ... ... ... ... : C-3 00 . ... : 2-# 00 5 ... : ... .. . ...
ROW 39 : ... .. . ... ... ... ... : ... .. . ... ... ... ... : ... .. . ... : ... .. 4 ... : ... .. . ...
ROW 3A : ... .. . ... ... ... ... : ... .. . ... ... ... ... : ... .. . ... : ... .. 3 ... : ... .. . ...
ROW 3B : ... .. . ... ... ... ... : ... .. . ... ... ... ... : ... .. . ... : ... .. 2 ... : ... .. . ...
ROW 3C : ... .. . ... ... ... ... : ... .. . ... ... ... ... : ... .. . ... : ... .. 1 ... : ... .. . ...
ROW 3D : ... .. . ... ... ... ... : ... .. . ... ... ... ... : ... .. . ... : ... .. 0 ... : ... .. . ...
ROW 3E : ... .. . ... ... ... ... : ... .. . ... ... ... ... : ... .. . ... : ... .. . ... : ... .. . ...
ROW 3F : ... .. . ... ... ... ... : ... .. . ... ... ... ... : ... .. . ... : ... .. . ... : ... .. . ...
ROW 40 : ... .. . ... ... ... ... : ... .. . ... ... ... ... : ... .. . ... : ... .. . ... : ... .. . ...
ROW 41 : ... .. . ... ... ... ... : ... .. . ... ... ... ... : ... .. . ... : ... .. . ... : ... .. . ...
ROW 42 : ... .. . ... ... ... ... : ... .. . ... ... ... ... : ... .. . ... : ... .. . ... : ... .. . ...
ROW 43 : ... .. . ... ... ... ... : ... .. . ... ... ... ... : ... .. . ... : ... .. . ... : ... .. . ...
ROW 44 : ... .. . ... ... ... ... : ... .. . ... ... ... ... : ... .. . ... : ... .. . ... : ... .. . ...
ROW 45 : ... .. . ... ... ... ... : ... .. . ... ... ... ... : ... .. . ... : ... .. . ... : ... .. . ...
ROW 46 : ... .. 0 ... ... ... ... : C-3 00 5 V00 ... ... P80 : E-4 00 . ... : ... .. . ... : ... .. . ...
ROW 47 : ... .. . ... ... ... ... : ... .. . ... ... ... ... : ... .. . ... : ... .. . ... : ... .. . ...
ROW 48 : ... .. . ... ... ... ... : ... .. . ... ... ... ... : ... .. . ... : ... .. . ... : ... .. . ...
ROW 49 : ... .. . ... ... ... ... : ... .. . ... ... ... ... : ... .. . ... : ... .. . ... : ... .. . ...
ROW 4A : ... .. . ... ... ... ... : ... .. . ... ... ... ... : ... .. . ... : ... .. . ... : ... .. . ...
ROW 4B : ... .. . ... ... ... ... : ... .. . ... ... ... ... : ... .. . ... : ... .. . ... : ... .. . ...
ROW 4C : ... .. . ... ... ... ... : ... .. . ... ... ... ... : ... .. . ... : ... .. . ... : ... .. . ...
ROW 4D : ... .. . ... ... ... ... : ... .. . ... ... ... ... : ... .. . ... : ... .. . ... : ... .. . ...
ROW 4E : ... .. . ... ... ... ... : ... .. . ... ... ... ... : ... .. . ... : ... .. . ... : ... .. . ...
ROW 4F : ... .. . ... ... ... ... : ... .. . ... ... ... ... : ... .. . ... : ... .. . ... : ... .. . ...
ROW 50 : ... .. . ... ... ... ... : ... .. . ... ... ... ... : ... .. . ... : ... .. . ... : ... .. . ...
ROW 51 : ... .. . ... ... ... ... : ... .. . ... ... ... ... : ... .. . ... : ... .. . ... : ... .. . ...
ROW 52 : ... .. . ... ... ... ... : ... .. . ... ... ... ... : ... .. . ... : ... .. . ... : ... .. . ...
ROW 53 : ... .. . ... ... ... ... : ... .. . ... ... ... ... : ... .. . ... : ... .. . ... : ... .. . ...
ROW 54 : ... .. 1 ... ... ... ... : D-3 00 . ... ... ... ... : F#4 00 . ... : ... .. 1 ... : ... .. . ...
ROW 55 : ... .. . ... ... ... ... : ... .. . ... ... ... ... : ... .. . ... : ... .. . ... : ... .. . ...
ROW 56 : ... .. . ... ... ... ... : ... .. . ... ... ... ... : ... .. . ... : ... .. 0 ... : ... .. . ...
ROW 57 : ... .. . ... ... ... ... : ... .. . ... ... ... ... : ... .. . ... : ... .. . ... : ... .. . ...
ROW 58 : ... .. . ... ... ... ... : ... .. . ... ... ... ... : ... .. . ... : ... .. . ... : ... .. . ...
ROW 59 : ... .. . ... ... ... ... : ... .. . ... ... ... ... : ... .. . ... : ... .. . ... : ... .. . ...
ROW 5A : ... .. . ... ... ... ... : ... .. . ... ... ... ... : ... .. . ... : ... .. . ... : ... .. . ...
ROW 5B : ... .. . ... ... ... ... : ... .. . ... ... ... ... : ... .. . ... : ... .. . ... : ... .. . ...
ROW 5C : ... .. . ... ... ... ... : ... .. . ... ... ... ... : ... .. . ... : ... .. . ... : ... .. . ...
ROW 5D : ... .. . ... ... ... ... : ... .. . ... ... ... ... : ... .. . ... : ... .. . ... : ... .. . ...
ROW 5E : ... .. . ... ... ... ... : ... .. . ... ... ... ... : ... .. . ... : ... .. . ... : ... .. . ...
ROW 5F : ... .. . ... ... ... ... : ... .. . ... ... ... ... : ... .. . ... : ... .. . ... : ... .. . ...
ROW 60 : ... .. . ... ... ... ... : ... .. . ... ... ... ... : ... .. . ... : ... .. . ... : ... .. . ...
ROW 61 : ... .. . ... ... ... ... : ... .. . ... ... ... ... : ... .. . ... : ... .. . ... : ... .. . ...
ROW 62 : G-1 00 5 ... ... ... ... : G-2 00 3 V02 ... ... P7F : G-2 00 . ... : 2-# 00 5 ... : ... .. . ...
ROW 63 : ... .. . ... ... ... ... : ... .. . ... ... ... ... : ... .. . ... : ... .. 4 ... : ... .. . ...
ROW 64 : ... .. . ... ... ... ... : ... .. . ... ... ... ... : ... .. . ... : ... .. 3 ... : ... .. . ...
ROW 65 : ... .. . ... ... ... ... : ... .. . ... ... ... ... : ... .. . ... : ... .. 2 ... : ... .. . ...
ROW 66 : ... .. . ... ... ... ... : ... .. . ... ... ... ... : ... .. . ... : ... .. 1 ... : ... .. . ...
ROW 67 : ... .. . ... ... ... ... : ... .. . ... ... ... ... : ... .. . ... : ... .. 0 ... : ... .. . ...
ROW 68 : ... .. . ... ... ... ... : ... .. . ... ... ... ... : ... .. . ... : ... .. . ... : ... .. . ...
ROW 69 : ... .. . ... ... ... ... : ... .. . ... ... ... ... : ... .. . ... : ... .. . ... : ... .. . ...
ROW 6A : ... .. . ... ... ... ... : ... .. . ... ... ... ... : ... .. . ... : ... .. . ... : ... .. . ...
ROW 6B : ... .. . ... ... ... ... : ... .. . ... ... ... ... : ... .. . ... : ... .. . ... : ... .. . ...
ROW 6C : ... .. . ... ... ... ... : ... .. . ... ... ... ... : ... .. . ... : ... .. . ... : ... .. . ...
ROW 6D : ... .. . ... ... ... ... : ... .. . ... ... ... ... : ... .. . ... : ... .. . ... : ... .. . ...
ROW 6E : ... .. . ... ... ... ... : ... .. . ... ... ... ... : ... .. . ... : ... .. . ... : ... .. . ...
ROW 6F : ... .. . ... ... ... ... : ... .. . ... ... ... ... : ... .. . ... : ... .. . ... : ... .. . ...
ROW 70 : C-2 00 . ... ... ... ... : C-3 00 . ... ... ... ... : C-3 00 . ... : 2-# 00 5 ... : ... .. . ...
ROW 71 : ... .. . ... ... ... ... : ... .. . ... ... ... ... : ... .. . ... : ... .. 4 ... : ... .. . ...
ROW 72 : ... .. . ... ... ... ... : ... .. . ... ... ... ... : ... .. . ... : ... .. 3 ... : ... .. . ...
ROW 73 : ... .. . ... ... ... ... : ... .. . ... ... ... ... : ... .. . ... : ... .. 2 ... : ... .. . ...
ROW 74 : ... .. . ... ... ... ... : ... .. . ... ... ... ... : ... .. . ... : ... .. 1 ... : ... .. . ...
ROW 75 : ... .. . ... ... ... ... : ... .. . ... ... ... ... : ... .. . ... : ... .. 0 ... : ... .. . ...
ROW 76 : ... .. . ... ... ... ... : ... .. . ... ... ... ... : ... .. . ... : ... .. . ... : ... .. . ...
ROW 77 : ... .. . ... ... ... ... : ... .. . ... ... ... ... : ... .. . ... : ... .. . ... : ... .. . ...
ROW 78 : ... .. . ... ... ... ... : ... .. . ... ... ... ... : ... .. . ... : ... .. . ... : ... .. . ...
ROW 79 : ... .. . ... ... ... ... : ... .. . ... ... ... ... : ... .. . ... : ... .. . ... : ... .. . ...
ROW 7A : ... .. . ... ... ... ... : ... .. . ... ... ... ... : ... .. . ... : ... .. . ... : ... .. . ...
ROW 7B : ... .. . ... ... ... ... : ... .. . ... ... ... ... : ... .. . ... : ... .. . ... : ... .. . ...
ROW 7C : ... .. . ... ... ... ... : ... .. . ... ... ... ... : ... .. . ... : ... .. . ... : ... .. . ...
ROW 7D : ... .. . ... ... ... ... : ... .. . ... ... ... ... : ... .. . ... : ... .. . ... : ... .. . ...
ROW 7E : ... .. 0 ... ... ... ... : ... .. 0 ... ... ... ... : --- .. . ... : ... .. . ... : ... .. . ...
ROW 7F : ... .. . ... ... ... ... : ... .. . ... ... ... ... : ... .. . ... : ... .. . ... : ... .. . ...
ROW 80 : ... .. . ... ... ... ... : ... .. . ... ... ... ... : ... .. . ... : ... .. . ... : ... .. . ...
ROW 81 : ... .. . ... ... ... ... : ... .. . ... ... ... ... : ... .. . ... : ... .. . ... : ... .. . ...
ROW 82 : ... .. . ... ... ... ... : ... .. . ... ... ... ... : ... .. . ... : ... .. . ... : ... .. . ...
ROW 83 : ... .. . ... ... ... ... : ... .. . ... ... ... ... : ... .. . ... : ... .. . ... : ... .. . ...
ROW 84 : ... .. . ... ... ... ... : ... .. . ... ... ... ... : ... .. . ... : ... .. . ... : ... .. . ...
ROW 85 : ... .. 1 ... ... ... ... : ... .. 1 ... ... ... ... : ... .. . ... : ... .. 1 ... : ... .. . ...
ROW 86 : ... .. . ... ... ... ... : ... .. . ... ... ... ... : ... .. . ... : ... .. . ... : ... .. . ...
ROW 87 : ... .. . ... ... ... ... : ... .. . ... ... ... ... : ... .. . ... : ... .. 0 ... : ... .. . ...
ROW 88 : ... .. . ... ... ... ... : ... .. . ... ... ... ... : ... .. . ... : ... .. . ... : ... .. . ...
ROW 89 : ... .. . ... ... ... ... : ... .. . ... ... ... ... : ... .. . ... : ... .. . ... : ... .. . ...
ROW 8A : ... .. . ... ... ... ... : ... .. . ... ... ... ... : ... .. . ... : ... .. . ... : ... .. . ...
ROW 8B : ... .. . ... ... ... ... : ... .. . ... ... ... ... : ... .. . ... : ... .. . ... : ... .. . ...
ROW 8C : C-2 00 5 ... ... ... ... : ... .. 3 ... ... ... ... : C-3 00 . ... : 2-# 00 5 ... : ... .. . ...
ROW 8D : ... .. . ... ... ... ... : ... .. . ... ... ... ... : ... .. . ... : ... .. 4 ... : ... .. . ...
ROW 8E : ... .. . ... ... ... ... : ... .. . ... ... ... ... : ... .. . ... : ... .. 3 ... : ... .. . ...
ROW 8F : ... .. . ... ... ... ... : ... .. . ... ... ... ... : ... .. . ... : ... .. 2 ... : ... .. . ...
ROW 90 : ... .. . ... ... ... ... : ... .. . ... ... ... ... : ... .. . ... : ... .. 1 ... : ... .. . ...
ROW 91 : ... .. . ... ... ... ... : ... .. . ... ... ... ... : ... .. . ... : ... .. 0 ... : ... .. . ...
ROW 92 : ... .. . ... ... ... ... : ... .. . ... ... ... ... : ... .. . ... : ... .. . ... : ... .. . ...
ROW 93 : ... .. . ... ... ... ... : ... .. . ... ... ... ... : ... .. . ... : ... .. . ... : ... .. . ...
ROW 94 : ... .. . ... ... ... ... : ... .. . ... ... ... ... : ... .. . ... : ... .. . ... : ... .. . ...
ROW 95 : ... .. . ... ... ... ... : ... .. . ... ... ... ... : ... .. . ... : ... .. . ... : ... .. . ...
ROW 96 : ... .. . ... ... ... ... : ... .. . ... ... ... ... : ... .. . ... : ... .. . ... : ... .. . ...
ROW 97 : ... .. . ... ... ... ... : ... .. . ... ... ... ... : ... .. . ... : ... .. . ... : ... .. . ...
ROW 98 : ... .. . ... ... ... ... : ... .. . ... ... ... ... : ... .. . ... : ... .. . ... : ... .. . ...
ROW 99 : ... .. . ... ... ... ... : ... .. . ... ... ... ... : ... .. . ... : ... .. . ... : ... .. . ...
ROW 9A : ... .. 0 ... ... ... ... : ... .. 0 ... ... ... ... : --- .. . ... : ... .. . ... : ... .. . ...
ROW 9B : ... .. . ... ... ... ... : ... .. . ... ... ... ... : ... .. . ... : ... .. . ... : ... .. . ...
ROW 9C : ... .. . ... ... ... ... : ... .. . ... ... ... ... : ... .. . ... : ... .. . ... : ... .. . ...
ROW 9D : ... .. . ... ... ... ... : ... .. . ... ... ... ... : ... .. . ... : ... .. . ... : ... .. . ...
ROW 9E : ... .. . ... ... ... ... : ... .. . ... ... ... ... : ... .. . ... : ... .. . ... : ... .. . ...
ROW 9F : ... .. . ... ... ... ... : ... .. . ... ... ... ... : ... .. . ... : ... .. . ... : ... .. . ...
ROW A0 : ... .. . ... ... ... ... : ... .. . ... ... ... ... : ... .. . ... : ... .. . ... : ... .. . ...
ROW A1 : ... .. 1 ... ... ... ... : ... .. 1 ... ... ... ... : ... .. . ... : ... .. 1 ... : ... .. . ...
ROW A2 : ... .. . ... ... ... ... : ... .. . ... ... ... ... : ... .. . ... : ... .. . ... : ... .. . ...
ROW A3 : ... .. . ... ... ... ... : ... .. . ... ... ... ... : ... .. . ... : ... .. 0 ... : ... .. . ...
ROW A4 : ... .. . ... ... ... ... : ... .. . ... ... ... ... : ... .. . ... : ... .. . ... : ... .. . ...
ROW A5 : ... .. . ... ... ... ... : ... .. . ... ... ... ... : ... .. . ... : ... .. . ... : ... .. . ...
ROW A6 : ... .. . ... ... ... ... : ... .. . ... ... ... ... : ... .. . ... : ... .. . ... : ... .. . ...
ROW A7 : ... .. . ... ... ... ... : ... .. . ... ... ... ... : ... .. . ... : ... .. . ... : ... .. . ...
ROW A8 : G-1 00 5 ... ... ... ... : G-2 00 3 ... ... ... ... : G-2 00 . ... : 2-# 00 5 ... : ... .. . ...
ROW A9 : ... .. . ... ... ... ... : ... .. . ... ... ... ... : ... .. . ... : ... .. 4 ... : ... .. . ...
ROW AA : ... .. . ... ... ... ... : ... .. . ... ... ... ... : ... .. . ... : ... .. 3 ... : ... .. . ...
ROW AB : ... .. . ... ... ... ... : ... .. . ... ... ... ... : ... .. . ... : ... .. 2 ... : ... .. . ...
ROW AC : ... .. . ... ... ... ... : ... .. . ... ... ... ... : ... .. . ... : ... .. 1 ... : ... .. . ...
ROW AD : ... .. . ... ... ... ... : ... .. . ... ... ... ... : ... .. . ... : ... .. 0 ... : ... .. . ...
ROW AE : ... .. . ... ... ... ... : ... .. . ... ... ... ... : ... .. . ... : ... .. . ... : ... .. . ...
ROW AF : ... .. . ... ... ... ... : ... .. . ... ... ... ... : ... .. . ... : ... .. . ... : ... .. . ...
ROW B0 : ... .. . ... ... ... ... : ... .. . ... ... ... ... : ... .. . ... : ... .. . ... : ... .. . ...
ROW B1 : ... .. . ... ... ... ... : ... .. . ... ... ... ... : ... .. . ... : ... .. . ... : ... .. . ...
ROW B2 : ... .. . ... ... ... ... : ... .. . ... ... ... ... : ... .. . ... : ... .. . ... : ... .. . ...
ROW B3 : ... .. . ... ... ... ... : ... .. . ... ... ... ... : ... .. . ... : ... .. . ... : ... .. . ...
ROW B4 : ... .. . ... ... ... ... : ... .. . ... ... ... ... : ... .. . ... : ... .. . ... : ... .. . ...
ROW B5 : ... .. . ... ... ... ... : ... .. . ... ... ... ... : ... .. . ... : ... .. . ... : ... .. . ...
ROW B6 : ... .. 0 ... ... ... ... : --- .. . ... ... ... ... : --- .. . ... : ... .. . ... : ... .. . ...
ROW B7 : ... .. . ... ... ... ... : ... .. . ... ... ... ... : ... .. . ... : ... .. . ... : ... .. . ...
ROW B8 : ... .. . ... ... ... ... : ... .. . ... ... ... ... : ... .. . ... : ... .. . ... : ... .. . ...
ROW B9 : ... .. . ... ... ... ... : ... .. . ... ... ... ... : ... .. . ... : ... .. . ... : ... .. . ...
ROW BA : ... .. . ... ... ... ... : ... .. . ... ... ... ... : ... .. . ... : ... .. . ... : ... .. . ...
ROW BB : ... .. . ... ... ... ... : ... .. . ... ... ... ... : ... .. . ... : ... .. . ... : ... .. . ...
ROW BC : ... .. . ... ... ... ... : ... .. . ... ... ... ... : ... .. . ... : ... .. . ... : ... .. . ...
ROW BD : ... .. . ... ... ... ... : D-5 00 4 V02 ... ... ... : ... .. . ... : ... .. . ... : ... .. . ...
ROW BE : ... .. . ... ... ... ... : ... .. . ... ... ... ... : ... .. . ... : ... .. . ... : ... .. . ...
ROW BF : ... .. . ... ... ... ... : E-5 00 . ... ... ... ... : ... .. . ... : ... .. . ... : ... .. . ...
ROW C0 : ... .. . ... ... ... ... : ... .. . ... ... ... ... : ... .. . ... : ... .. . ... : ... .. . ...
ROW C1 : ... .. . ... ... ... ... : F-5 00 . ... ... ... ... : ... .. . ... : ... .. . ... : ... .. . ...
ROW C2 : ... .. . ... ... ... ... : ... .. . ... ... ... ... : ... .. . ... : ... .. . ... : ... .. . ...
ROW C3 : ... .. . ... ... ... ... : ... .. . ... ... ... ... : ... .. . ... : ... .. . ... : ... .. . ...
ROW C4 : ... .. 1 ... ... ... ... : G-5 00 . ... ... ... ... : G-3 00 . ... : ... .. 1 ... : ... .. . ...
ROW C5 : ... .. . ... ... ... ... : ... .. . ... ... ... ... : ... .. . ... : ... .. . ... : ... .. . ...
ROW C6 : ... .. . ... ... ... ... : ... .. . ... ... ... ... : ... .. . ... : ... .. 0 ... : ... .. . ...
ROW C7 : ... .. . ... ... ... ... : ... .. . ... ... ... ... : ... .. . ... : ... .. . ... : ... .. . ...
ROW C8 : ... .. . ... ... ... ... : ... .. . ... ... ... ... : ... .. . ... : ... .. . ... : ... .. . ...
ROW C9 : ... .. . ... ... ... ... : ... .. . ... ... ... ... : ... .. . ... : ... .. . ... : ... .. . ...
ROW CA : ... .. . ... ... ... ... : ... .. . ... ... ... ... : ... .. . ... : ... .. . ... : ... .. . ...
ROW CB : ... .. . ... ... ... ... : D-5 00 1 ... ... ... ... : ... .. . ... : ... .. . ... : ... .. . ...
ROW CC : ... .. . ... ... ... ... : ... .. . ... ... ... ... : ... .. . ... : ... .. . ... : ... .. . ...
ROW CD : ... .. . ... ... ... ... : E-5 00 . ... ... ... ... : ... .. . ... : ... .. . ... : ... .. . ...
ROW CE : ... .. . ... ... ... ... : ... .. . ... ... ... ... : ... .. . ... : ... .. . ... : ... .. . ...
ROW CF : ... .. . ... ... ... ... : F-5 00 . ... ... ... ... : ... .. . ... : ... .. . ... : ... .. . ...
ROW D0 : ... .. . ... ... ... ... : ... .. . ... ... ... ... : ... .. . ... : ... .. . ... : ... .. . ...
ROW D1 : ... .. . ... ... ... ... : ... .. . ... ... ... ... : ... .. . ... : ... .. . ... : ... .. . ...
ROW D2 : ... .. 0 ... ... ... ... : G-5 00 . ... ... ... ... : --- .. . ... : ... .. . ... : ... .. . ...
ROW D3 : ... .. . ... ... ... ... : ... .. . ... ... ... ... : ... .. . ... : ... .. . ... : ... .. . ...
ROW D4 : ... .. . ... ... ... ... : ... .. . ... ... ... ... : ... .. . ... : ... .. . ... : ... .. . ...
ROW D5 : ... .. . ... ... ... ... : ... .. . ... ... ... ... : ... .. . ... : ... .. . ... : ... .. . ...
ROW D6 : ... .. . ... ... ... ... : ... .. . ... ... ... ... : ... .. . ... : ... .. . ... : ... .. . ...
ROW D7 : ... .. . ... ... ... ... : ... .. . ... ... ... ... : ... .. . ... : ... .. . ... : ... .. . ...
ROW D8 : ... .. . ... ... ... ... : ... .. . ... ... ... ... : ... .. . ... : ... .. . ... : ... .. . ...
ROW D9 : ... .. . ... ... ... ... : --- .. . ... ... ... ... : ... .. . ... : ... .. . ... : ... .. . ...
ROW DA : ... .. . ... ... ... ... : ... .. . ... ... ... ... : ... .. . ... : ... .. . ... : ... .. . ...
ROW DB : ... .. . ... ... ... ... : ... .. . ... ... ... ... : ... .. . ... : ... .. . ... : ... .. . ...
ROW DC : ... .. . ... ... ... ... : ... .. . ... ... ... ... : ... .. . ... : ... .. . ... : ... .. . ...
ROW DD : ... .. . ... ... ... ... : ... .. . ... ... ... ... : ... .. . ... : ... .. . ... : ... .. . ...
ROW DE : ... .. . ... ... ... ... : ... .. . ... ... ... ... : ... .. . ... : ... .. . ... : ... .. . ...
ROW DF : ... .. . ... ... ... ... : ... .. . ... ... ... ... : ... .. . ... : ... .. . ... : ... .. . ...

# End of export
