# FamiTracker text export 0.4.2

# Song information
TITLE           "The Gusts of Aeolus"
AUTHOR          "fluidvolt"
COPYRIGHT       "2012"

# Song comment
COMMENT ""

# Global settings
MACHINE         0
FRAMERATE       0
EXPANSION       0
VIBRATO         1
SPLIT           21

# Macros
MACRO       0   0  -1  -1   0 : 15 14 13 12 12 11 10 10 9 8 8 7 6 6 5 4 3 3 2 2 2 2 2 2 2 2 2 2 2 1 1 1 1 1 1 1 1 1 1 1 1 1 1 1 1 1 1 1 1 1 1 1 1 1 1 1 1 1 1 1 1 1 1 1 1 1 0
MACRO       0   1  -1  -1   0 : 0 15
MACRO       0   2  -1  -1   0 : 15 14 14 13 13 12 12 12 11 11 10 10 10 9 9 9 8 8 8 7 7 7 7 6
MACRO       0   3  -1  -1   0 : 0 15 15 15 15 0
MACRO       0   4  -1  -1   0 : 15 9 8 6 2 9 10 11 13 13 0 0
MACRO       0   5  -1  -1   0 : 15 13 12 11 11 10 10 9 9 8 8 8 7 7 7 7 7 7 6 6 6 6 6 6 6 6 5 5 5 5 5 5 5 5 4 4 4 4 4 4 4 4 3 3 3 3 3 3 3 3 2 2 2 2 2 2 2 2 2 2 2 2 2 1 1 1 1 1 1 1 1 1 1 1 1 1 1 1 1 0
MACRO       0   6  -1  -1   0 : 15 13 8 5 2 0
MACRO       0   7  -1  -1   0 : 1 2 3 4 3 3 3 3 2 2 2 2 2 2 2 1
MACRO       0   8  -1  -1   0 : 15 15 6 1 0
MACRO       0   9  -1  -1   0 : 15 15 15 15 15 15 15 15 15 15 0
MACRO       0  10  -1  -1   0 : 7 4 4 4 4 4 3 3 3 3 2 2 2 2 1 1 1 1 1 0
MACRO       0  11  -1  -1   0 : 15 15 15 0
MACRO       0  12  -1  -1   0 : 3 4 7 11 14
MACRO       0  16  -1  -1   0 : 13 10 9 8 7 3 2 1 0
MACRO       0  17  -1  -1   0 : 10 5 3 2 1 0
MACRO       0  21  -1  -1   0 : 15 11 10 8 6 6 4 4 3 3 3 3 2 2 1 0
MACRO       1   0  -1  -1   0 : -1 -1 -1 -1 0
MACRO       1   1   0  -1   0 : 0 0 4 4 7 7 14 14 16 16
MACRO       1   2   0  -1   0 : 0 0 3 3 7 7 10 10
MACRO       1   3   0  -1   0 : -1 -1 3 3 7 7 10 10
MACRO       1   4   0  -1   0 : 0 0 4 4 7 7 10 10 0 0 5 5 7 7 10 10
MACRO       1   5  -1  -1   0 : 12 12 -1 0
MACRO       1   6  -1  -1   0 : 12 12 0
MACRO       1   7   0  -1   0 : 0 0 4 4 7 7 11 11
MACRO       1   8   0  -1   0 : 0 0 7 7 12 12 19 19
MACRO       1   9   0  -1   0 : 4 4 7 7 11 11 12 12 14 14
MACRO       1  10  -1  -1   0 : 5 -1 -2 -3 -3 -4 -5 -6 -7
MACRO       1  11  -1  -1   0 : 0 1 2
MACRO       1  12   0  -1   0 : 0 0 5 5 7 7 12 12
MACRO       1  13   0  -1   0 : 0 0 5 5 -7 -7 17 17
MACRO       1  14   0  -1   0 : 0 0 3 3 5 5 8 8
MACRO       1  15  -1  -1   0 : 18 10 0
MACRO       1  16   0  -1   0 : 0 0 0 5 5 5 12 12 12 -7 -7 -7
MACRO       1  17  -1  -1   0 : 0 0 0 -1 -4
MACRO       1  19  -1  -1   0 : 0 0 0 0 2 2 2 2 0
MACRO       1  20  -1  -1   0 : -2 -1 -1 0
MACRO       1  23   0  -1   0 : 0 0 5 5 14 14 19 19
MACRO       2   0   0  -1   0 : 0 0 0 1 0 -1 0 0 0 0
MACRO       2   1   0  -1   0 : 1 0 -1 0 0
MACRO       4   0  -1  -1   0 : 1
MACRO       4   1  -1  -1   0 : 0 0 0 1
MACRO       4   2  -1  -1   0 : 2 2 2 2 2 2 2 2 2 2 2 2 1
MACRO       4   3  -1  -1   0 : 2 2 1 1
MACRO       4   4   0  -1   0 : 0 0 0 0 1 1 1
MACRO       4   5  -1  -1   0 : 0 0 0 1

# DPCM samples

# Instruments
INST2A03   0    -1  -1  -1  -1  -1 "Blank"
INST2A03   1     0  -1  -1  -1  -1 "Piano"
INST2A03   2     1  -1  -1  -1  -1 "Articulated"
INST2A03   3    -1   1  -1  -1   1 "Add9"
INST2A03   4     2  -1  -1  -1  -1 "Lead 2"
INST2A03   5    -1   2  -1  -1  -1 "m7"
INST2A03   6    -1   3  -1  -1  -1 "m7 Semitone"
INST2A03   7    -1   4  -1  -1  -1 "7sus4"
INST2A03   8     3   5  -1  -1  -1 "Octave Pop"
INST2A03   9    -1  -1  -1  -1   2 "Lead 1"
INST2A03  10     5  -1  -1  -1  -1 "Keys"
INST2A03  11     1   6  -1  -1  -1 "Articulate Octave"
INST2A03  12    -1   7  -1  -1  -1 "M7"
INST2A03  13    -1   8  -1  -1  -1 "5ths"
INST2A03  14     7  -1  -1  -1  -1 "Open Hat"
INST2A03  15    -1   9  -1  -1  -1 "M9 1st Inv"
INST2A03  18     9  10  -1  -1  -1 "TriSnare"
INST2A03  19    10  11  -1  -1  -1 "Noise Snare"
INST2A03  20    -1  12  -1  -1  -1 "PedalChord1"
INST2A03  21    -1  13  -1  -1  -1 "PedalChord2"
INST2A03  22    -1  14  -1  -1  -1 "PedalChord3"
INST2A03  23    -1  15  -1  -1  -1 "TriKick"
INST2A03  24    11  -1  -1  -1  -1 "Blip"
INST2A03  25    -1  16  -1  -1  -1 "4ths"
INST2A03  26    -1  16   1  -1   4 "4ths Phasing"
INST2A03  27    16  -1  -1  -1  -1 "Kick"
INST2A03  28    17  -1  -1  -1  -1 "Hat"
INST2A03  32    -1  23  -1  -1  -1 "Pedal Chord 4"
INST2A03  33    -1  19  -1  -1  -1 "WholeToneTrill"
INST2A03  34    21  20  -1  -1  -1 "Snare"

# Tracks

TRACK  48   5 150 "New song"
COLUMNS : 2 2 1 1 1

ORDER 00 : 00 00 00 00 00
ORDER 01 : 01 01 01 01 01
ORDER 02 : 02 02 02 02 02
ORDER 03 : 03 03 03 03 03
ORDER 04 : 04 04 04 04 04
ORDER 05 : 05 05 05 05 05
ORDER 06 : 06 06 06 06 06
ORDER 07 : 07 07 07 07 07
ORDER 08 : 08 08 08 08 08
ORDER 09 : 09 09 09 09 09
ORDER 0A : 0A 0A 0A 0A 0A
ORDER 0B : 0B 0B 0B 0B 0B
ORDER 0C : 0C 0C 0C 0C 0C
ORDER 0D : 0D 0D 0D 0D 0D
ORDER 0E : 0E 0E 0E 0E 0E
ORDER 0F : 0F 0F 0F 0F 0F
ORDER 10 : 10 10 10 10 10
ORDER 11 : 11 11 11 11 11
ORDER 12 : 12 12 12 12 12
ORDER 13 : 13 13 13 13 13
ORDER 14 : 14 14 14 14 14
ORDER 15 : 15 15 15 15 15
ORDER 16 : 16 16 16 16 16
ORDER 17 : 17 17 17 17 17
ORDER 18 : 18 18 18 18 18
ORDER 19 : 19 19 19 19 19
ORDER 1A : 1A 1A 1A 1A 1A
ORDER 1B : 1B 1B 1B 1B 1B
ORDER 1C : 1C 1C 1C 1C 1C
ORDER 1D : 1D 1D 1D 1D 1D
ORDER 1E : 1E 1E 1E 1E 1E
ORDER 1F : 1F 1F 1F 1F 1F
ORDER 20 : 20 20 20 20 20
ORDER 21 : 21 21 21 21 21
ORDER 22 : 22 22 22 22 22
ORDER 23 : 23 23 23 23 23
ORDER 24 : 24 24 24 24 24
ORDER 25 : 25 25 25 25 25
ORDER 26 : 26 26 26 26 26
ORDER 27 : 27 27 27 27 27
ORDER 28 : 28 28 28 28 28
ORDER 29 : 29 29 29 29 29
ORDER 2A : 2A 2A 2A 2A 2A
ORDER 2B : 2B 2B 2B 2B 2B
ORDER 2C : 2C 2C 2C 2C 2C
ORDER 2D : 2D 2D 2D 2D 2D
ORDER 2E : 2E 2E 2E 2E 2E
ORDER 2F : 2F 2F 2F 2F 2F
ORDER 30 : 30 30 30 30 30
ORDER 31 : 31 31 31 31 31
ORDER 32 : 32 32 32 32 32

PATTERN 00
ROW 00 : B-2 00 4 V01 P80 : --- .. . 000 200 : B-1 02 . ... : ... .. . ... : ... .. . F05
ROW 01 : ... .. . ... ... : ... .. . ... ... : --- .. . ... : ... .. . ... : ... .. . F04
ROW 02 : F#2 00 . ... ... : ... .. . ... ... : B-1 02 . ... : ... .. . ... : ... .. . F05
ROW 03 : ... .. . ... ... : B-2 00 1 V01 P7F : --- .. . ... : ... .. . ... : ... .. . F04
ROW 04 : B-2 00 . ... ... : ... .. . ... ... : B-1 02 . ... : ... .. . ... : ... .. . F05
ROW 05 : ... .. . ... ... : F#2 00 . ... ... : ... .. . ... : ... .. . ... : ... .. . F04
ROW 06 : E-3 00 . ... ... : ... .. . ... ... : B-1 02 . ... : ... .. . ... : ... .. . F05
ROW 07 : F#3 00 . 30A ... : B-2 00 . ... ... : ... .. . ... : ... .. . ... : ... .. . F04
ROW 08 : ... .. . ... ... : ... .. . ... ... : ... .. . ... : ... .. . ... : ... .. . F05
ROW 09 : ... .. . ... ... : E-3 00 . ... ... : ... .. . ... : ... .. . ... : ... .. . F04
ROW 0A : ... .. . ... ... : F#3 00 . 30A ... : B-1 02 . ... : ... .. . ... : ... .. . F05
ROW 0B : ... .. . ... ... : ... .. . ... ... : ... .. . ... : ... .. . ... : ... .. . F04
ROW 0C : ... .. . ... 453 : ... .. . ... ... : ... .. . ... : ... .. . ... : ... .. . F05
ROW 0D : ... .. . ... ... : ... .. . ... ... : ... .. . ... : ... .. . ... : ... .. . F04
ROW 0E : ... .. . ... ... : ... .. . ... ... : ... .. . ... : ... .. . ... : ... .. . F05
ROW 0F : ... .. . ... ... : ... .. . ... 453 : ... .. . ... : ... .. . ... : ... .. . F04
ROW 10 : ... .. . 400 ... : ... .. . ... ... : ... .. . ... : ... .. . ... : ... .. . F05
ROW 11 : ... .. . ... 201 : ... .. . ... ... : ... .. . ... : ... .. . ... : ... .. . F04
ROW 12 : E-3 00 . ... 200 : ... .. . ... ... : ... .. . ... : ... .. . ... : ... .. . F05
ROW 13 : ... .. . ... ... : ... .. . 400 ... : ... .. . ... : ... .. . ... : ... .. . F04
ROW 14 : ... .. . 453 ... : ... .. . ... 201 : ... .. . ... : ... .. . ... : ... .. . F05
ROW 15 : ... .. . ... ... : E-3 00 . ... 200 : ... .. . ... : ... .. . ... : ... .. . F04
ROW 16 : D#3 00 . 300 400 : ... .. . ... ... : ... .. . ... : ... .. . ... : ... .. . F05
ROW 17 : ... .. . ... ... : ... .. . 453 ... : ... .. . ... : ... .. . ... : ... .. . F04
ROW 18 : ... .. . ... ... : ... .. . ... ... : A-1 02 . ... : ... .. . ... : ... .. . F05
ROW 19 : ... .. . ... ... : D#3 00 . 300 400 : ... .. . ... : ... .. . ... : ... .. . F04
ROW 1A : ... .. . ... ... : ... .. . ... ... : ... .. . ... : ... .. . ... : ... .. . F05
ROW 1B : ... .. . ... ... : ... .. . ... ... : ... .. . ... : ... .. . ... : ... .. . F04
ROW 1C : ... .. . ... ... : ... .. . ... ... : ... .. . ... : ... .. . ... : ... .. . F05
ROW 1D : ... .. . ... ... : ... .. . ... ... : ... .. . ... : ... .. . ... : ... .. . F04
ROW 1E : ... .. . ... ... : ... .. . ... ... : ... .. . ... : ... .. . ... : ... .. . F05
ROW 1F : ... .. . ... ... : ... .. . ... ... : ... .. . ... : ... .. . ... : ... .. . F04
ROW 20 : E-3 00 . ... ... : ... .. . ... ... : ... .. . ... : ... .. . ... : ... .. . F05
ROW 21 : ... .. . ... ... : ... .. . ... ... : ... .. . ... : ... .. . ... : ... .. . F04
ROW 22 : F#3 00 . ... ... : ... .. . ... ... : ... .. . ... : ... .. . ... : ... .. . F05
ROW 23 : ... .. . ... ... : E-3 00 . ... ... : ... .. . ... : ... .. . ... : ... .. . F04
ROW 24 : E-3 00 . ... ... : ... .. . ... ... : ... .. . ... : ... .. . ... : ... .. . F05
ROW 25 : ... .. . ... ... : F#3 00 . ... ... : ... .. . ... : ... .. . ... : ... .. . F04
ROW 26 : ... .. . 453 ... : ... .. . ... ... : ... .. . ... : ... .. . ... : ... .. . F05
ROW 27 : ... .. . ... ... : E-3 00 . ... ... : ... .. . ... : ... .. . ... : ... .. . F04
ROW 28 : ... .. . 400 201 : ... .. . ... ... : ... .. . ... : ... .. . ... : ... .. . F05
ROW 29 : ... .. . ... ... : ... .. . 453 ... : ... .. . ... : ... .. . ... : ... .. . F04
ROW 2A : D#3 00 . 200 ... : ... .. . ... ... : ... .. . ... : ... .. . ... : ... .. . F05
ROW 2B : ... .. . ... ... : ... .. . 400 201 : ... .. . ... : ... .. . ... : ... .. . F04
ROW 2C : ... .. . ... ... : ... .. . ... ... : ... .. . ... : ... .. . ... : ... .. . F05
ROW 2D : ... .. . ... ... : D#3 00 . 200 ... : ... .. . ... : ... .. . ... : ... .. . F04
ROW 2E : ... .. . ... ... : ... .. . ... ... : ... .. . ... : ... .. . ... : ... .. . F05
ROW 2F : ... .. . ... ... : ... .. . ... ... : ... .. . ... : ... .. . ... : ... .. . F04

PATTERN 01
ROW 00 : B-2 00 4 V01 ... : ... .. . ... ... : E-1 02 . ... : ... .. . ... : ... .. . F05
ROW 01 : ... .. . ... ... : ... .. . ... ... : --- .. . ... : ... .. . ... : ... .. . F04
ROW 02 : F#2 00 . ... ... : ... .. . ... ... : E-1 02 . ... : ... .. . ... : ... .. . F05
ROW 03 : ... .. . ... ... : B-2 00 1 V01 P7F : --- .. . ... : ... .. . ... : ... .. . F04
ROW 04 : B-2 00 . ... ... : ... .. . ... ... : E-1 02 . ... : ... .. . ... : ... .. . F05
ROW 05 : ... .. . ... ... : F#2 00 . ... ... : ... .. . ... : ... .. . ... : ... .. . F04
ROW 06 : E-3 00 . ... ... : ... .. . ... ... : E-1 02 . ... : ... .. . ... : ... .. . F05
ROW 07 : F#3 00 . 30A ... : B-2 00 . ... ... : ... .. . ... : ... .. . ... : ... .. . F04
ROW 08 : ... .. . ... ... : ... .. . ... ... : ... .. . ... : ... .. . ... : ... .. . F05
ROW 09 : ... .. . ... ... : E-3 00 . ... ... : ... .. . ... : ... .. . ... : ... .. . F04
ROW 0A : ... .. . ... ... : F#3 00 . 30A ... : E-1 02 . ... : ... .. . ... : ... .. . F05
ROW 0B : ... .. . ... ... : ... .. . ... ... : ... .. . ... : ... .. . ... : ... .. . F04
ROW 0C : ... .. . ... 453 : ... .. . ... ... : ... .. . ... : ... .. . ... : ... .. . F05
ROW 0D : ... .. . ... ... : ... .. . ... ... : ... .. . ... : ... .. . ... : ... .. . F04
ROW 0E : ... .. . ... ... : ... .. . ... ... : ... .. . ... : ... .. . ... : ... .. . F05
ROW 0F : ... .. . ... ... : ... .. . ... 453 : ... .. . ... : ... .. . ... : ... .. . F04
ROW 10 : ... .. . 400 ... : ... .. . ... ... : ... .. . ... : ... .. . ... : ... .. . F05
ROW 11 : ... .. . ... 201 : ... .. . ... ... : ... .. . ... : ... .. . ... : ... .. . F04
ROW 12 : E-3 00 . ... 200 : ... .. . ... ... : ... .. . ... : ... .. . ... : ... .. . F05
ROW 13 : ... .. . ... ... : ... .. . 400 ... : ... .. . ... : ... .. . ... : ... .. . F04
ROW 14 : ... .. . 453 ... : ... .. . ... 201 : ... .. . ... : ... .. . ... : ... .. . F05
ROW 15 : ... .. . ... ... : E-3 00 . ... 200 : ... .. . ... : ... .. . ... : ... .. . F04
ROW 16 : D#3 00 . 300 400 : ... .. . ... ... : ... .. . ... : ... .. . ... : ... .. . F05
ROW 17 : ... .. . ... ... : ... .. . 453 ... : ... .. . ... : ... .. . ... : ... .. . F04
ROW 18 : ... .. . ... ... : ... .. . ... ... : G-1 02 . ... : ... .. . ... : ... .. . F05
ROW 19 : ... .. . ... ... : D#3 00 . ... 400 : ... .. . ... : ... .. . ... : ... .. . F04
ROW 1A : B-1 01 3 V00 ... : ... .. . ... ... : G-1 02 . ... : ... .. . ... : ... .. . F05
ROW 1B : ... .. . ... ... : ... .. . ... ... : ... .. . ... : ... .. . ... : ... .. . F04
ROW 1C : B-1 01 5 ... ... : F#2 01 5 V00 P80 : G-1 02 . ... : ... .. . ... : ... .. . F05
ROW 1D : --- .. . ... ... : --- .. . ... ... : ... .. . ... : ... .. . ... : ... .. . F04
ROW 1E : B-1 01 7 ... ... : F#2 01 7 ... ... : G-1 02 . ... : ... .. . ... : ... .. . F05
ROW 1F : ... .. . ... ... : ... .. . ... ... : ... .. . ... : ... .. . ... : ... .. . F04
ROW 20 : ... .. . ... ... : ... .. . ... ... : G-1 02 . ... : ... .. . ... : ... .. . F05
ROW 21 : ... .. . ... ... : ... .. . ... ... : ... .. . ... : ... .. . ... : ... .. . F04
ROW 22 : B-1 01 9 ... ... : F#2 01 9 ... ... : G-1 02 . ... : ... .. . ... : ... .. . F05
ROW 23 : ... .. 8 ... ... : ... .. 8 ... ... : ... .. . ... : ... .. . ... : ... .. . F04
ROW 24 : ... .. 7 ... 201 : ... .. 7 201 ... : A-1 02 . ... : ... .. . ... : ... .. . F05
ROW 25 : --- .. . ... 200 : --- .. . 200 ... : ... .. . ... : ... .. . ... : ... .. . F04
ROW 26 : A-1 01 3 ... ... : E-2 01 3 ... ... : A-1 02 . ... : ... .. . ... : ... .. . F05
ROW 27 : ... .. . ... ... : ... .. . ... ... : ... .. . ... : ... .. . ... : ... .. . F04
ROW 28 : A-1 01 5 ... ... : E-2 01 5 ... ... : A-1 02 . ... : ... .. . ... : ... .. . F05
ROW 29 : --- .. . ... ... : --- .. . ... ... : ... .. . ... : ... .. . ... : ... .. . F04
ROW 2A : A-1 01 7 S06 ... : E-2 01 7 S06 ... : A-1 02 . ... : ... .. . ... : ... .. . F05
ROW 2B : ... .. . ... ... : ... .. . ... ... : ... .. . ... : ... .. . ... : ... .. . F04
ROW 2C : A-1 01 4 ... ... : E-2 01 4 ... ... : A-1 02 . ... : ... .. . ... : ... .. . F05
ROW 2D : ... .. . ... ... : ... .. . ... ... : ... .. . ... : ... .. . ... : ... .. . F04
ROW 2E : A-1 01 9 ... ... : D#2 01 9 ... ... : A-1 02 . ... : ... .. . ... : ... .. . F05
ROW 2F : ... .. 8 ... ... : ... .. 8 ... ... : ... .. . ... : ... .. . ... : ... .. . F04

PATTERN 02
ROW 00 : B-2 00 4 V01 ... : ... .. . ... ... : B-1 02 . ... : ... .. . ... : ... .. . F05
ROW 01 : ... .. . ... ... : ... .. . ... ... : --- .. . ... : ... .. . ... : ... .. . F04
ROW 02 : F#2 00 . ... ... : ... .. . ... ... : B-1 02 . ... : ... .. . ... : ... .. . F05
ROW 03 : ... .. . ... ... : B-2 00 1 V01 P7F : --- .. . ... : ... .. . ... : ... .. . F04
ROW 04 : B-2 00 . ... ... : ... .. . ... ... : B-1 02 . ... : ... .. . ... : ... .. . F05
ROW 05 : ... .. . ... ... : F#2 00 . ... ... : ... .. . ... : ... .. . ... : ... .. . F04
ROW 06 : E-3 00 . ... ... : ... .. . ... ... : B-1 02 . ... : ... .. . ... : ... .. . F05
ROW 07 : F#3 00 . 30A ... : B-2 00 . ... ... : ... .. . ... : ... .. . ... : ... .. . F04
ROW 08 : ... .. . ... ... : ... .. . ... ... : ... .. . ... : ... .. . ... : ... .. . F05
ROW 09 : ... .. . ... ... : E-3 00 . ... ... : ... .. . ... : ... .. . ... : ... .. . F04
ROW 0A : ... .. . ... ... : F#3 00 . 30A ... : B-1 02 . ... : ... .. . ... : ... .. . F05
ROW 0B : ... .. . ... ... : ... .. . ... ... : ... .. . ... : ... .. . ... : ... .. . F04
ROW 0C : ... .. . ... 453 : ... .. . ... ... : ... .. . ... : ... .. . ... : ... .. . F05
ROW 0D : ... .. . ... ... : ... .. . ... ... : ... .. . ... : ... .. . ... : ... .. . F04
ROW 0E : ... .. . ... ... : ... .. . ... ... : ... .. . ... : ... .. . ... : ... .. . F05
ROW 0F : ... .. . ... ... : ... .. . ... 453 : ... .. . ... : ... .. . ... : ... .. . F04
ROW 10 : ... .. . 400 ... : ... .. . ... ... : ... .. . ... : ... .. . ... : ... .. . F05
ROW 11 : ... .. . ... 201 : ... .. . ... ... : ... .. . ... : ... .. . ... : ... .. . F04
ROW 12 : E-3 21 . ... 200 : ... .. . ... ... : ... .. . ... : ... .. . ... : ... .. . F05
ROW 13 : ... .. . ... ... : ... .. . 400 ... : ... .. . ... : ... .. . ... : ... .. . F04
ROW 14 : ... .. . 453 ... : ... .. . ... 201 : ... .. . ... : ... .. . ... : ... .. . F05
ROW 15 : ... .. . ... ... : E-3 21 . ... 200 : ... .. . ... : ... .. . ... : ... .. . F04
ROW 16 : D#3 00 . 300 400 : ... .. . ... ... : ... .. . ... : ... .. . ... : ... .. . F05
ROW 17 : ... .. . ... ... : ... .. . 453 ... : ... .. . ... : ... .. . ... : ... .. . F04
ROW 18 : ... .. . ... ... : ... .. . ... ... : A-1 02 . ... : ... .. . ... : ... .. . F05
ROW 19 : ... .. . ... ... : D#3 00 . 300 400 : ... .. . ... : ... .. . ... : ... .. . F04
ROW 1A : ... .. . ... ... : ... .. . ... ... : ... .. . ... : ... .. . ... : ... .. . F05
ROW 1B : ... .. . ... ... : ... .. . ... ... : ... .. . ... : ... .. . ... : ... .. . F04
ROW 1C : ... .. . ... ... : ... .. . ... ... : ... .. . ... : ... .. . ... : ... .. . F05
ROW 1D : ... .. . ... ... : ... .. . ... ... : ... .. . ... : ... .. . ... : ... .. . F04
ROW 1E : ... .. . ... ... : ... .. . ... ... : ... .. . ... : ... .. . ... : ... .. . F05
ROW 1F : ... .. . ... ... : ... .. . ... ... : ... .. . ... : ... .. . ... : ... .. . F04
ROW 20 : E-3 00 . ... ... : ... .. . ... ... : ... .. . ... : ... .. . ... : ... .. . F05
ROW 21 : ... .. . ... ... : ... .. . ... ... : ... .. . ... : ... .. . ... : ... .. . F04
ROW 22 : F#3 00 . ... ... : ... .. . ... ... : ... .. . ... : ... .. . ... : ... .. . F05
ROW 23 : ... .. . ... ... : E-3 00 . ... ... : ... .. . ... : ... .. . ... : ... .. . F04
ROW 24 : E-3 21 . ... ... : ... .. . ... ... : ... .. . ... : ... .. . ... : ... .. . F05
ROW 25 : ... .. . ... ... : F#3 00 . ... ... : ... .. . ... : ... .. . ... : ... .. . F04
ROW 26 : ... .. . 453 ... : ... .. . ... ... : ... .. . ... : ... .. . ... : ... .. . F05
ROW 27 : ... .. . ... ... : E-3 21 . ... ... : ... .. . ... : ... .. . ... : ... .. . F04
ROW 28 : ... .. . 400 201 : ... .. . ... ... : ... .. . ... : ... .. . ... : ... .. . F05
ROW 29 : ... .. . ... ... : ... .. . 453 ... : ... .. . ... : ... .. . ... : ... .. . F04
ROW 2A : D#3 00 4 200 ... : ... .. . ... ... : ... .. . ... : ... .. . ... : ... .. . F05
ROW 2B : ... .. . ... ... : ... .. . 400 201 : ... .. . ... : ... .. . ... : ... .. . F04
ROW 2C : ... .. . ... ... : ... .. . ... ... : ... .. . ... : ... .. . ... : ... .. . F05
ROW 2D : ... .. . ... ... : D#3 00 . 200 ... : ... .. . ... : ... .. . ... : ... .. . F04
ROW 2E : ... .. . ... ... : ... .. . ... ... : ... .. . ... : ... .. . ... : ... .. . F05
ROW 2F : ... .. . ... ... : ... .. . ... ... : ... .. . ... : ... .. . ... : ... .. . F04

PATTERN 03
ROW 00 : ... .. 3 ... ... : G#2 01 3 V00 ... : G#1 02 . ... : ... .. . ... : ... .. . F05
ROW 01 : ... .. . ... ... : ... .. . ... ... : ... .. . ... : ... .. . ... : ... .. . F04
ROW 02 : ... .. 2 201 ... : B-2 01 3 ... ... : --- .. . ... : ... .. . ... : ... .. . F05
ROW 03 : ... .. . 200 ... : G#2 01 1 ... ... : ... .. . ... : ... .. . ... : ... .. . F04
ROW 04 : ... .. 1 201 ... : E-3 01 3 ... ... : G#1 01 . ... : ... .. . ... : ... .. . F05
ROW 05 : ... .. . 200 ... : B-2 01 1 ... ... : ... .. . ... : ... .. . ... : ... .. . ...
ROW 06 : --- .. . 200 ... : G#2 01 3 ... ... : --- .. . ... : ... .. . ... : ... .. . ...
ROW 07 : ... .. . ... ... : E-3 01 1 ... ... : ... .. . ... : ... .. . ... : ... .. . ...
ROW 08 : ... .. . ... ... : B-2 01 3 ... ... : G#1 01 . ... : ... .. . ... : ... .. . F06
ROW 09 : ... .. . ... ... : G#2 01 1 ... ... : ... .. . ... : ... .. . ... : ... .. . F04
ROW 0A : ... .. . ... ... : E-3 01 3 ... ... : --- .. . ... : ... .. . ... : ... .. . F06
ROW 0B : ... .. . ... ... : B-2 01 1 ... ... : ... .. . ... : ... .. . ... : ... .. . F04
ROW 0C : ... .. . ... ... : G-2 01 3 ... ... : G-1 01 . ... : ... .. . ... : ... .. . F06
ROW 0D : ... .. . ... ... : E-3 01 1 ... ... : ... .. . ... : ... .. . ... : ... .. . F05
ROW 0E : ... .. . ... ... : B-2 01 3 ... ... : --- .. . ... : ... .. . ... : ... .. . F06
ROW 0F : ... .. . ... ... : G-2 01 1 ... ... : ... .. . ... : ... .. . ... : ... .. . F05
ROW 10 : ... .. . ... ... : E-3 01 3 ... ... : ... .. . ... : ... .. . ... : ... .. . F06
ROW 11 : ... .. . ... ... : B-2 01 1 ... ... : ... .. . ... : ... .. . ... : ... .. . ...
ROW 12 : ... .. . ... ... : G-2 01 3 ... ... : ... .. . ... : ... .. . ... : ... .. . F07
ROW 13 : ... .. . ... ... : E-3 01 1 ... ... : ... .. . ... : ... .. . ... : ... .. . ...
ROW 14 : ... .. . ... ... : B-2 01 3 ... ... : ... .. . ... : ... .. . ... : ... .. . F08
ROW 15 : ... .. . ... ... : G-2 01 1 ... ... : ... .. . ... : ... .. . ... : ... .. . ...
ROW 16 : ... .. . ... ... : E-3 01 3 ... ... : ... .. . ... : ... .. . ... : ... .. . F0C
ROW 17 : ... .. . ... ... : B-2 01 1 ... ... : ... .. . ... : ... .. . ... : ... .. . ...
ROW 18 : F#3 01 3 V00 ... : B-3 01 3 V00 ... : F#1 02 . ... : ... .. . ... : ... .. . F05
ROW 19 : --- .. . ... ... : --- .. . ... ... : --- .. . ... : ... .. . ... : ... .. . ...
ROW 1A : F#3 01 7 ... ... : B-3 01 7 ... ... : F#1 02 . ... : ... .. . ... : ... .. . ...
ROW 1B : --- .. . ... ... : --- .. . ... ... : --- .. . ... : ... .. . ... : ... .. . ...
ROW 1C : F#3 01 9 ... ... : B-3 01 9 ... ... : F#1 02 . ... : ... .. . ... : ... .. . ...
ROW 1D : --- .. . ... ... : --- .. . ... ... : ... .. . ... : ... .. . ... : ... .. . ...
ROW 1E : ... .. . ... ... : ... .. . ... ... : --- .. . ... : ... .. . ... : ... .. . F07
ROW 1F : ... .. . ... ... : ... .. . ... ... : ... .. . ... : ... .. . ... : ... .. . ...
ROW 20 : F#3 00 2 ... ... : B-3 00 2 ... ... : F#1 02 . ... : ... .. . ... : ... .. . F05
ROW 21 : --- .. . ... ... : --- .. . ... ... : --- .. . ... : ... .. . ... : ... .. . ...
ROW 22 : F#3 01 3 ... ... : B-3 01 3 ... ... : F#1 02 . ... : ... .. . ... : ... .. . ...
ROW 23 : --- .. . ... ... : --- .. . ... ... : --- .. . ... : ... .. . ... : ... .. . ...
ROW 24 : F#3 01 7 ... ... : A#3 01 7 ... ... : F#1 02 . ... : ... .. . ... : ... .. . ...
ROW 25 : --- .. . ... ... : --- .. . ... ... : ... .. . ... : ... .. . ... : ... .. . ...
ROW 26 : F#3 01 9 ... ... : A#3 01 9 ... ... : ... .. . ... : ... .. . ... : ... .. . ...
ROW 27 : --- .. . ... ... : --- .. . ... ... : ... .. . ... : ... .. . ... : ... .. . ...
ROW 28 : F#3 01 A ... ... : A#3 01 A ... ... : ... .. . ... : ... .. . ... : ... .. . F05
ROW 29 : --- .. . ... ... : --- .. . ... ... : ... .. . ... : ... .. . ... : ... .. . F04
ROW 2A : B-2 03 1 ... ... : A#3 01 4 V02 ... : --- .. . ... : ... .. . ... : ... .. . F05
ROW 2B : ... .. 2 ... ... : --- .. . ... ... : ... .. . ... : ... .. . ... : ... .. . F04
ROW 2C : ... .. 3 ... ... : A#3 01 3 P7F ... : ... .. . ... : ... .. . ... : ... .. . F05
ROW 2D : ... .. 4 ... ... : --- .. . ... ... : ... .. . ... : ... .. . ... : ... .. . F04
ROW 2E : ... .. 5 ... ... : A#3 01 3 P7E ... : ... .. . ... : ... .. . ... : ... .. . F05
ROW 2F : ... .. . ... ... : --- .. . ... ... : ... .. . ... : ... .. . ... : ... .. . F08

PATTERN 04
ROW 00 : ... .. 4 ... ... : B-3 01 3 V00 P80 : B-1 02 . ... : 0-# 1B 8 ... : ... .. . F05
ROW 01 : ... .. . ... ... : ... .. . ... ... : ... .. . ... : ... .. . ... : ... .. . F04
ROW 02 : ... .. . ... ... : D#4 01 3 ... ... : B-1 02 . ... : F-# 1C A ... : ... .. . F05
ROW 03 : ... .. . ... ... : B-3 01 1 ... ... : ... .. . ... : ... .. . ... : ... .. . F04
ROW 04 : ... .. 3 ... ... : F#4 01 3 ... ... : B-1 02 . ... : F-# 1C . ... : ... .. . F05
ROW 05 : ... .. . ... ... : D#4 01 1 ... ... : ... .. . ... : ... .. . ... : ... .. . F04
ROW 06 : ... .. . ... ... : E-5 01 3 ... ... : F#2 02 . ... : 7-# 22 . ... : ... .. . F05
ROW 07 : ... .. . ... ... : F#4 01 1 ... ... : ... .. . ... : ... .. . ... : ... .. . F04
ROW 08 : ... .. 2 V02 ... : F#4 01 3 ... ... : B-1 02 . ... : F-# 1C . ... : ... .. . F05
ROW 09 : ... .. . ... ... : E-5 01 1 ... ... : ... .. . ... : ... .. . ... : ... .. . F04
ROW 0A : ... .. . ... ... : D#4 01 3 ... ... : B-1 02 . ... : F-# 1C . ... : ... .. . F05
ROW 0B : ... .. . ... ... : F#4 01 1 ... ... : ... .. . ... : ... .. . ... : ... .. . F03
ROW 0C : ... .. 1 ... ... : B-3 01 3 ... ... : E-2 02 . ... : 0-# 1B 8 ... : ... .. . F05
ROW 0D : ... .. . ... ... : D#4 01 1 ... ... : ... .. . ... : ... .. . ... : ... .. . F04
ROW 0E : ... .. . ... ... : D#4 01 3 ... ... : B-1 02 . ... : F-# 1C A ... : ... .. . F05
ROW 0F : ... .. . ... ... : B-3 01 1 ... ... : ... .. . ... : ... .. . ... : ... .. . F03
ROW 10 : ... .. . V01 ... : F#4 01 3 ... ... : B-1 02 . ... : F-# 1C . ... : ... .. . F05
ROW 11 : ... .. . ... ... : D#4 01 1 ... ... : ... .. . ... : ... .. . ... : ... .. . F04
ROW 12 : ... .. . ... ... : E-5 01 3 ... ... : D#2 02 . ... : 7-# 22 . ... : ... .. . F05
ROW 13 : ... .. . ... ... : F#4 01 1 ... ... : ... .. . ... : ... .. . ... : ... .. . F03
ROW 14 : ... .. . V00 ... : F#4 01 3 ... ... : B-1 02 . ... : F-# 1C . ... : ... .. . F05
ROW 15 : ... .. . ... ... : E-5 01 1 ... ... : ... .. . ... : ... .. . ... : ... .. . F04
ROW 16 : ... .. . ... ... : D#4 01 3 ... ... : B-1 17 . ... : F-# 1C . ... : ... .. . F05
ROW 17 : ... .. . ... ... : F#4 01 1 ... ... : ... .. . ... : ... .. . ... : ... .. . F03
ROW 18 : --- .. . ... ... : B-3 01 3 ... ... : B-1 17 . ... : 0-# 1B 8 ... : ... .. . F05
ROW 19 : ... .. . ... ... : D#4 01 1 ... ... : ... .. . ... : ... .. . ... : ... .. . F03
ROW 1A : ... .. . ... ... : D#4 01 3 ... ... : B-1 02 . ... : F-# 1C A ... : ... .. . F05
ROW 1B : ... .. . ... ... : B-3 01 1 ... ... : ... .. . ... : ... .. . ... : ... .. . F03
ROW 1C : ... .. . ... ... : F#4 01 3 ... ... : B-1 02 . ... : F-# 1C . ... : ... .. . F05
ROW 1D : ... .. . ... ... : D#4 01 1 ... ... : ... .. . ... : ... .. . ... : ... .. . F03
ROW 1E : ... .. . ... ... : E-5 01 3 ... ... : F#2 02 . ... : 7-# 22 . ... : ... .. . F05
ROW 1F : ... .. . ... ... : F#4 01 1 ... ... : ... .. . ... : ... .. . ... : ... .. . F03
ROW 20 : B-4 00 1 453 V02 : F#4 01 3 ... ... : B-1 02 . ... : F-# 1C . ... : ... .. . F05
ROW 21 : ... .. . ... ... : E-5 01 1 ... ... : ... .. . ... : ... .. . ... : ... .. . F03
ROW 22 : ... .. . ... ... : D#4 01 3 ... ... : B-1 02 . ... : 7-# 22 . ... : ... .. . F05
ROW 23 : ... .. . ... ... : F#4 01 1 ... ... : ... .. . ... : ... .. . ... : ... .. . F03
ROW 24 : ... .. . ... ... : B-3 01 3 ... ... : E-2 02 . ... : 0-# 1B 8 ... : ... .. . F05
ROW 25 : ... .. . ... ... : D#4 01 1 ... ... : ... .. . ... : ... .. . ... : ... .. . F03
ROW 26 : ... .. 2 ... ... : D#4 01 3 ... ... : B-1 02 . ... : 7-# 22 6 ... : ... .. . F05
ROW 27 : ... .. . ... ... : B-3 01 1 ... ... : ... .. . ... : ... .. . ... : ... .. . F03
ROW 28 : ... .. . ... ... : F#4 01 3 ... ... : B-1 02 . ... : 7-# 22 8 ... : ... .. . F05
ROW 29 : ... .. . ... ... : D#4 01 1 ... ... : ... .. . ... : ... .. . ... : ... .. . F03
ROW 2A : ... .. . ... ... : E-5 01 3 ... ... : D#2 02 . ... : 7-# 22 A ... : ... .. . F05
ROW 2B : ... .. . ... ... : F#4 01 1 ... ... : ... .. . ... : ... .. . ... : ... .. . F03
ROW 2C : ... .. 3 ... ... : F#4 01 3 ... ... : B-1 02 . ... : F-# 1C . ... : ... .. . F05
ROW 2D : ... .. . ... ... : E-5 01 1 ... ... : ... .. . ... : ... .. . ... : ... .. . F03
ROW 2E : ... .. . ... ... : D#4 01 3 ... ... : B-1 02 . ... : 7-# 22 . ... : ... .. . F05
ROW 2F : ... .. . ... ... : F#4 01 1 ... ... : ... .. . ... : ... .. . ... : ... .. . F03

PATTERN 05
ROW 00 : B-3 00 4 V02 400 : B-3 01 3 ... ... : B-1 02 . ... : 0-# 1B 8 ... : ... .. . F05
ROW 01 : ... .. . ... ... : ... .. . ... ... : ... .. . ... : ... .. . ... : ... .. . F03
ROW 02 : F#3 00 . 400 ... : D#4 01 3 ... ... : B-1 02 . ... : F-# 1C A ... : ... .. . F05
ROW 03 : ... .. . ... ... : B-3 01 1 ... ... : ... .. . ... : ... .. . ... : ... .. . F03
ROW 04 : B-3 00 . ... ... : F#4 01 3 ... ... : B-1 02 . ... : F-# 1C . ... : ... .. . F05
ROW 05 : ... .. . ... ... : D#4 01 1 ... ... : ... .. . ... : ... .. . ... : ... .. . F03
ROW 06 : E-4 00 . ... ... : E-5 01 3 ... ... : F#2 02 . ... : 7-# 22 . ... : ... .. . F05
ROW 07 : F#4 00 . 30A ... : F#4 01 1 ... ... : ... .. . ... : ... .. . ... : ... .. . F03
ROW 08 : ... .. . ... ... : F#4 01 3 ... ... : B-1 02 . ... : F-# 1C . ... : ... .. . F05
ROW 09 : ... .. . ... ... : E-5 01 1 ... ... : ... .. . ... : ... .. . ... : ... .. . F03
ROW 0A : ... .. . ... ... : D#4 01 3 ... ... : B-1 02 . ... : F-# 1C . ... : ... .. . F05
ROW 0B : ... .. . ... ... : F#4 01 1 ... ... : ... .. . ... : ... .. . ... : ... .. . F03
ROW 0C : ... .. . ... 453 : B-3 01 3 ... ... : E-2 02 . ... : F-# 1C . ... : ... .. . F05
ROW 0D : ... .. . ... ... : D#4 01 1 ... ... : ... .. . ... : ... .. . ... : ... .. . F03
ROW 0E : ... .. . ... ... : D#4 01 3 ... ... : B-1 02 . ... : F-# 1C . ... : ... .. . F05
ROW 0F : ... .. . ... ... : B-3 01 1 ... ... : ... .. . ... : ... .. . ... : ... .. . F03
ROW 10 : ... .. . 400 ... : F#4 01 3 ... ... : B-1 02 . ... : F-# 1C . ... : ... .. . F05
ROW 11 : ... .. . ... 201 : D#4 01 1 ... ... : ... .. . ... : ... .. . ... : ... .. . F03
ROW 12 : E-4 00 . ... 200 : E-5 01 3 ... ... : D#2 02 . ... : 7-# 22 . ... : ... .. . F05
ROW 13 : ... .. . ... ... : F#4 01 1 ... ... : ... .. . ... : ... .. . ... : ... .. . F03
ROW 14 : ... .. . 453 ... : F#4 01 3 ... ... : B-1 02 . ... : F-# 1C . ... : ... .. . F05
ROW 15 : ... .. . ... ... : E-5 01 1 ... ... : ... .. . ... : ... .. . ... : ... .. . F03
ROW 16 : D#4 00 . 300 400 : D#4 01 3 ... ... : B-1 02 . ... : F-# 1C . ... : ... .. . F05
ROW 17 : ... .. . ... ... : F#4 01 1 ... ... : ... .. . ... : ... .. . ... : ... .. . F03
ROW 18 : ... .. . 411 ... : A-3 01 3 ... ... : A-1 02 . ... : 0-# 1B 8 ... : ... .. . F05
ROW 19 : ... .. . 421 ... : D#4 01 1 ... ... : ... .. . ... : ... .. . ... : ... .. . F03
ROW 1A : ... .. . 432 ... : D#4 01 3 ... ... : A-1 02 . ... : F-# 1C A ... : ... .. . F05
ROW 1B : ... .. . 442 ... : A-3 01 1 ... ... : ... .. . ... : ... .. . ... : ... .. . F03
ROW 1C : ... .. . 453 ... : E-4 01 3 ... ... : A-1 02 . ... : F-# 1C . ... : ... .. . F05
ROW 1D : ... .. . ... ... : D#4 01 1 ... ... : ... .. . ... : ... .. . ... : ... .. . F03
ROW 1E : ... .. . ... ... : A-4 01 3 ... ... : E-2 02 . ... : 7-# 22 . ... : ... .. . F05
ROW 1F : ... .. . ... ... : E-4 01 1 ... ... : ... .. . ... : ... .. . ... : ... .. . F03
ROW 20 : E-4 00 . 400 ... : E-4 01 3 ... ... : A-1 02 . ... : F-# 1C . ... : ... .. . F05
ROW 21 : ... .. . ... ... : A-4 01 1 ... ... : ... .. . ... : ... .. . ... : ... .. . F03
ROW 22 : F#4 00 . ... ... : D#4 01 3 ... ... : A-1 02 . ... : 7-# 22 . ... : ... .. . F05
ROW 23 : ... .. . ... ... : E-4 01 1 ... ... : ... .. . ... : ... .. . ... : ... .. . F03
ROW 24 : E-4 00 . ... ... : A-3 01 3 ... ... : D#2 02 . ... : 0-# 1B 8 ... : ... .. . F05
ROW 25 : ... .. . ... ... : D#4 01 1 ... ... : ... .. . ... : ... .. . ... : ... .. . F03
ROW 26 : ... .. . 453 ... : D#4 01 3 ... ... : A-1 02 . ... : 7-# 22 6 ... : ... .. . F05
ROW 27 : ... .. . ... ... : A-3 01 1 ... ... : ... .. . ... : ... .. . ... : ... .. . F03
ROW 28 : ... .. . 400 ... : E-4 01 3 ... ... : A-1 02 . ... : 7-# 22 8 ... : ... .. . F05
ROW 29 : ... .. . ... ... : D#4 01 1 ... ... : ... .. . ... : ... .. . ... : ... .. . F03
ROW 2A : D#4 00 . 200 ... : A-4 01 3 ... ... : C#2 02 . ... : 7-# 22 A ... : ... .. . F05
ROW 2B : ... .. . ... ... : E-4 01 1 ... ... : ... .. . ... : ... .. . ... : ... .. . F03
ROW 2C : ... .. . ... ... : E-4 01 3 ... ... : A-1 02 . ... : F-# 1C . ... : ... .. . F05
ROW 2D : ... .. . ... ... : A-4 01 1 ... ... : ... .. . ... : ... .. . ... : ... .. . F03
ROW 2E : ... .. . ... ... : D#4 01 3 ... ... : A-1 02 . ... : 7-# 22 . ... : ... .. . F05
ROW 2F : ... .. . ... ... : E-4 01 1 ... ... : ... .. . ... : ... .. . ... : ... .. . F03

PATTERN 06
ROW 00 : B-3 00 5 V01 ... : B-3 01 3 ... ... : E-1 02 . ... : 0-# 1B 8 ... : ... .. . F05
ROW 01 : ... .. . ... ... : ... .. . ... ... : ... .. . ... : ... .. . ... : ... .. . F03
ROW 02 : F#3 00 . ... ... : D#4 01 3 ... ... : E-1 02 . ... : F-# 1C A ... : ... .. . F05
ROW 03 : ... .. . ... ... : B-3 01 1 ... ... : ... .. . ... : ... .. . ... : ... .. . F03
ROW 04 : B-3 00 . ... ... : F#4 01 3 ... ... : E-1 02 . ... : F-# 1C . ... : ... .. . F05
ROW 05 : ... .. . ... ... : D#4 01 1 ... ... : ... .. . ... : ... .. . ... : ... .. . F03
ROW 06 : E-4 00 . ... ... : E-5 01 3 ... ... : B-1 02 . ... : 7-# 22 . ... : ... .. . F05
ROW 07 : F#4 00 . 30A ... : F#4 01 1 ... ... : ... .. . ... : ... .. . ... : ... .. . F03
ROW 08 : ... .. . ... ... : F#4 01 3 ... ... : E-1 02 . ... : F-# 1C . ... : ... .. . F05
ROW 09 : ... .. . ... ... : E-5 01 1 ... ... : ... .. . ... : ... .. . ... : ... .. . F03
ROW 0A : ... .. . ... ... : D#4 01 3 ... ... : E-1 02 . ... : F-# 1C . ... : ... .. . F05
ROW 0B : ... .. . ... ... : F#4 01 1 ... ... : ... .. . ... : ... .. . ... : ... .. . F03
ROW 0C : ... .. . ... 453 : B-3 01 3 ... ... : A-1 02 . ... : F-# 1C . ... : ... .. . F05
ROW 0D : ... .. . ... ... : D#4 01 1 ... ... : ... .. . ... : ... .. . ... : ... .. . F03
ROW 0E : ... .. . ... ... : D#4 01 3 ... ... : E-1 02 . ... : F-# 1C . ... : ... .. . F05
ROW 0F : ... .. . ... ... : B-3 01 1 ... ... : ... .. . ... : ... .. . ... : ... .. . F03
ROW 10 : ... .. . 400 ... : F#4 01 3 ... ... : E-1 02 . ... : F-# 1C . ... : ... .. . F05
ROW 11 : ... .. . ... 201 : D#4 01 1 ... ... : ... .. . ... : ... .. . ... : ... .. . F03
ROW 12 : E-4 00 . ... 200 : E-5 01 3 ... ... : G#1 02 . ... : 7-# 22 . ... : ... .. . F05
ROW 13 : ... .. . ... ... : F#4 01 1 ... ... : ... .. . ... : ... .. . ... : ... .. . F03
ROW 14 : ... .. . 453 ... : F#4 01 3 ... ... : E-1 02 . ... : F-# 1C . ... : ... .. . F05
ROW 15 : ... .. . ... ... : E-5 01 1 ... ... : ... .. . ... : ... .. . ... : ... .. . F03
ROW 16 : D#4 00 . 300 400 : D#4 01 3 ... ... : E-1 02 . ... : F-# 1C . ... : ... .. . F05
ROW 17 : ... .. . ... ... : F#4 01 1 ... ... : ... .. . ... : ... .. . ... : ... .. . F03
ROW 18 : ... .. . ... ... : A-3 01 3 ... ... : G-1 02 . ... : 0-# 1B 8 ... : ... .. . F05
ROW 19 : ... .. . ... ... : D#4 01 1 ... ... : ... .. . ... : ... .. . ... : ... .. . F03
ROW 1A : B-2 01 3 V00 ... : D#4 01 3 ... ... : G-1 02 . ... : F-# 1C A ... : ... .. . F05
ROW 1B : ... .. . ... ... : A-3 01 1 ... ... : ... .. . ... : ... .. . ... : ... .. . F03
ROW 1C : B-2 01 5 ... ... : E-4 01 3 ... ... : G-1 02 . ... : F-# 1C . ... : ... .. . F05
ROW 1D : --- .. . ... ... : D#4 01 1 ... ... : ... .. . ... : ... .. . ... : ... .. . F03
ROW 1E : B-2 01 7 ... ... : A-4 01 3 ... ... : G-2 02 . ... : 7-# 22 . ... : ... .. . F05
ROW 1F : ... .. . ... ... : E-4 01 1 ... ... : ... .. . ... : ... .. . ... : ... .. . F03
ROW 20 : ... .. . ... ... : E-4 01 3 ... ... : G-1 02 . ... : F-# 1C . ... : ... .. . F05
ROW 21 : ... .. . ... ... : A-4 01 1 ... ... : ... .. . ... : ... .. . ... : ... .. . F03
ROW 22 : B-2 01 9 ... ... : D#4 01 3 ... ... : G-1 02 . ... : F-# 18 4 ... : ... .. . F05
ROW 23 : ... .. 8 ... ... : E-4 01 1 ... ... : ... .. . ... : ... .. . ... : ... .. . F03
ROW 24 : ... .. 7 ... 201 : A-3 01 3 ... ... : A-1 02 . ... : C-# 0E 8 ... : ... .. . F05
ROW 25 : --- .. . ... 200 : D#4 01 1 ... ... : ... .. . ... : ... .. . ... : ... .. . F03
ROW 26 : A-2 01 3 ... ... : D#4 01 3 ... ... : A-1 02 . ... : F-# 18 9 ... : ... .. . F05
ROW 27 : ... .. . ... ... : A-3 01 1 ... ... : ... .. . ... : ... .. . ... : ... .. . F03
ROW 28 : A-2 01 5 ... ... : E-4 01 3 ... ... : A-1 02 . ... : F-# 18 A ... : ... .. . F05
ROW 29 : --- .. . ... ... : D#4 01 1 ... ... : ... .. . ... : ... .. . ... : ... .. . F03
ROW 2A : A-2 01 7 ... ... : A-4 01 3 ... ... : A-2 02 . ... : 5-# 1B 9 ... : ... .. . F05
ROW 2B : ... .. . ... ... : E-4 01 1 ... ... : ... .. . ... : ... .. . ... : ... .. . F03
ROW 2C : ... .. . ... ... : E-4 01 3 ... ... : A-1 02 . ... : F-# 1C A ... : ... .. . F05
ROW 2D : ... .. . ... ... : A-4 01 1 ... ... : ... .. . ... : ... .. . ... : ... .. . F03
ROW 2E : A-2 01 9 ... ... : D#4 01 3 ... ... : A-1 02 . ... : 7-# 22 . ... : ... .. . F05
ROW 2F : ... .. 8 ... ... : E-4 01 1 ... ... : ... .. . ... : ... .. . ... : ... .. . F03

PATTERN 07
ROW 00 : B-3 09 5 V01 400 : B-3 01 3 ... ... : B-1 02 . ... : 0-# 1B 8 ... : ... .. . F05
ROW 01 : ... .. . V02 ... : ... .. . ... ... : ... .. . ... : ... .. . ... : ... .. . F03
ROW 02 : F#3 09 . 400 ... : D#4 01 3 ... ... : B-1 02 . ... : F-# 1C A ... : ... .. . F05
ROW 03 : ... .. . ... ... : B-3 01 1 ... ... : ... .. . ... : ... .. . ... : ... .. . F03
ROW 04 : B-3 09 . ... ... : F#4 01 3 ... ... : B-1 02 . ... : F-# 1C . ... : ... .. . F05
ROW 05 : ... .. . ... ... : D#4 01 1 ... ... : ... .. . ... : ... .. . ... : ... .. . F03
ROW 06 : E-4 09 . ... ... : E-5 01 3 ... ... : F#2 02 . ... : 7-# 22 . ... : ... .. . F05
ROW 07 : F#4 09 . 30A ... : F#4 01 1 ... ... : ... .. . ... : ... .. . ... : ... .. . F03
ROW 08 : ... .. . ... ... : F#4 01 3 ... ... : B-1 02 . ... : F-# 1C . ... : ... .. . F05
ROW 09 : ... .. . ... ... : E-5 01 1 ... ... : ... .. . ... : ... .. . ... : ... .. . F03
ROW 0A : ... .. . ... ... : D#4 01 3 ... ... : B-1 02 . ... : F-# 1C . ... : ... .. . F05
ROW 0B : ... .. . ... ... : F#4 01 1 ... ... : ... .. . ... : ... .. . ... : ... .. . F03
ROW 0C : ... .. . ... 453 : B-3 01 3 ... ... : E-2 02 . ... : 0-# 1B 4 ... : ... .. . F05
ROW 0D : ... .. . ... ... : D#4 01 1 ... ... : ... .. . ... : ... .. . ... : ... .. . F03
ROW 0E : ... .. . ... ... : D#4 01 3 ... ... : B-1 02 . ... : 0-# 1B 7 ... : ... .. . F05
ROW 0F : ... .. . ... ... : B-3 01 1 ... ... : ... .. . ... : ... .. . ... : ... .. . F03
ROW 10 : ... .. . 400 ... : F#4 01 3 ... ... : B-1 02 . ... : 0-# 1B 9 ... : ... .. . F05
ROW 11 : ... .. . ... 201 : D#4 01 1 ... ... : ... .. . ... : ... .. . ... : ... .. . F03
ROW 12 : E-4 09 . ... 200 : E-5 01 3 ... ... : D#2 02 . ... : 7-# 22 A ... : ... .. . F05
ROW 13 : ... .. . ... ... : F#4 01 1 ... ... : ... .. . ... : ... .. . ... : ... .. . F03
ROW 14 : ... .. . 453 ... : F#4 01 3 ... ... : B-1 02 . ... : F-# 1C . ... : ... .. . F05
ROW 15 : ... .. . ... ... : E-5 01 1 ... ... : ... .. . ... : ... .. . ... : ... .. . F03
ROW 16 : D#4 09 . 300 400 : D#4 01 3 ... ... : B-1 02 . ... : F-# 1C . ... : ... .. . F05
ROW 17 : ... .. . ... ... : F#4 01 1 ... ... : ... .. . ... : ... .. . ... : ... .. . F03
ROW 18 : ... .. . 411 ... : A-3 01 3 ... ... : A-1 02 . ... : 0-# 1B 8 ... : ... .. . F05
ROW 19 : ... .. . 421 ... : D#4 01 1 ... ... : ... .. . ... : ... .. . ... : ... .. . F03
ROW 1A : ... .. . 432 ... : D#4 01 3 ... ... : A-1 02 . ... : F-# 1C A ... : ... .. . F05
ROW 1B : ... .. . 442 ... : A-3 01 1 ... ... : ... .. . ... : ... .. . ... : ... .. . F03
ROW 1C : ... .. . 453 ... : E-4 01 3 ... ... : A-1 02 . ... : F-# 1C . ... : ... .. . F05
ROW 1D : ... .. . ... ... : D#4 01 1 ... ... : ... .. . ... : ... .. . ... : ... .. . F03
ROW 1E : ... .. . ... ... : A-4 01 3 ... ... : E-2 02 . ... : 7-# 22 . ... : ... .. . F05
ROW 1F : ... .. . ... ... : E-4 01 1 ... ... : ... .. . ... : ... .. . ... : ... .. . F03
ROW 20 : E-4 09 . 400 ... : E-4 01 3 ... ... : A-1 02 . ... : F-# 1C . ... : ... .. . F05
ROW 21 : ... .. . ... ... : A-4 01 1 ... ... : ... .. . ... : ... .. . ... : ... .. . F03
ROW 22 : F#4 09 . ... ... : D#4 01 3 ... ... : A-1 02 . ... : 7-# 22 . ... : ... .. . F05
ROW 23 : ... .. . ... ... : E-4 01 1 ... ... : ... .. . ... : ... .. . ... : ... .. . F03
ROW 24 : E-4 09 . ... ... : A-3 01 3 ... ... : D#2 02 . ... : 0-# 1B 8 ... : ... .. . F05
ROW 25 : ... .. . ... ... : D#4 01 1 ... ... : ... .. . ... : ... .. . ... : ... .. . F03
ROW 26 : ... .. . 453 ... : D#4 01 3 ... ... : A-1 02 . ... : 7-# 22 6 ... : ... .. . F05
ROW 27 : ... .. . ... ... : A-3 01 1 ... ... : ... .. . ... : ... .. . ... : ... .. . F03
ROW 28 : F-4 09 . ... ... : E-4 01 3 ... ... : A-1 02 . ... : 0-# 1B 8 ... : ... .. . F05
ROW 29 : E-4 09 . ... ... : D#4 01 1 ... ... : ... .. . ... : ... .. . ... : ... .. . F03
ROW 2A : D#4 09 4 200 ... : A-4 01 3 ... ... : C#2 02 . ... : 7-# 22 A ... : ... .. . F05
ROW 2B : ... .. . ... ... : E-4 01 1 ... ... : ... .. . ... : ... .. . ... : ... .. . F03
ROW 2C : ... .. . 453 ... : G#3 01 4 200 V00 : A-1 02 . ... : F-# 1C . ... : ... .. . F05
ROW 2D : ... .. . ... ... : ... .. . ... ... : ... .. . ... : ... .. . ... : ... .. . F03
ROW 2E : ... .. 3 ... ... : A-3 01 6 ... ... : A-1 02 . ... : 7-# 22 . ... : ... .. . F05
ROW 2F : ... .. . ... ... : ... .. . ... ... : ... .. . ... : ... .. . ... : ... .. . F03

PATTERN 08
ROW 00 : ... .. 2 ... ... : A-3 01 8 V00 30A : G#1 17 . ... : 0-# 1B 8 ... : ... .. . F05
ROW 01 : ... .. . ... ... : B-3 01 . ... ... : ... .. . ... : ... .. . ... : ... .. . F03
ROW 02 : ... .. 1 ... ... : ... .. . ... ... : G#2 02 . ... : F-# 1C A ... : ... .. . F05
ROW 03 : ... .. . ... ... : ... .. . ... ... : ... .. . ... : ... .. . ... : ... .. . F03
ROW 04 : A-3 01 8 400 V00 : G#2 05 3 V00 300 : G#1 02 . ... : F-# 1C . ... : ... .. . F05
ROW 05 : B-3 01 . ... ... : ... .. . ... ... : ... .. . ... : ... .. . ... : ... .. . F03
ROW 06 : ... .. . ... ... : ... .. 4 ... ... : G#2 02 . ... : 7-# 22 . ... : ... .. . F05
ROW 07 : ... .. . ... ... : ... .. . ... ... : ... .. . ... : ... .. . ... : ... .. . F03
ROW 08 : A-3 01 . ... ... : ... .. 3 ... ... : D#2 02 . ... : F-# 1C . ... : ... .. . F05
ROW 09 : A#3 01 . ... ... : ... .. . ... ... : ... .. . ... : ... .. . ... : ... .. . F03
ROW 0A : B-3 01 . ... ... : ... .. 2 ... ... : G#1 02 . ... : F-# 1C . ... : ... .. . F05
ROW 0B : ... .. . ... ... : ... .. . ... ... : ... .. . ... : ... .. . ... : ... .. . F03
ROW 0C : A#3 01 . V01 ... : G#2 06 1 V02 ... : G-1 17 . ... : 0-# 1B 4 ... : ... .. . F05
ROW 0D : B-3 01 . ... ... : ... .. . ... ... : ... .. . ... : ... .. . ... : ... .. . F03
ROW 0E : G-3 01 . ... ... : ... .. 2 V01 ... : G-2 02 . ... : 0-# 1B 7 ... : ... .. . F05
ROW 0F : ... .. . ... ... : ... .. . ... ... : ... .. . ... : ... .. . ... : ... .. . F03
ROW 10 : F#3 01 7 ... ... : ... .. 3 V00 ... : G-1 02 . ... : 0-# 1B 9 ... : ... .. . F05
ROW 11 : ... .. . ... ... : ... .. . ... ... : ... .. . ... : ... .. . ... : ... .. . F03
ROW 12 : G-3 01 5 ... ... : ... .. 4 ... ... : G-2 02 . ... : 7-# 22 A ... : ... .. . F05
ROW 13 : ... .. . ... ... : ... .. . ... ... : ... .. . ... : ... .. . ... : ... .. . F03
ROW 14 : F#3 01 3 ... ... : ... .. 3 ... ... : D-2 02 . ... : F-# 1C . ... : ... .. . F05
ROW 15 : ... .. . ... ... : ... .. . ... ... : ... .. . ... : ... .. . ... : ... .. . F03
ROW 16 : G-3 01 2 ... ... : ... .. 2 ... ... : G-1 02 . ... : F-# 1C . ... : ... .. . F05
ROW 17 : ... .. . ... ... : ... .. . ... ... : ... .. . ... : ... .. . ... : ... .. . F03
ROW 18 : F#3 01 3 ... ... : F#2 07 1 V02 ... : F#1 17 . ... : 0-# 1B 8 ... : ... .. . F05
ROW 19 : ... .. . ... ... : ... .. . ... ... : ... .. . ... : ... .. . ... : ... .. . F03
ROW 1A : B-3 01 4 ... ... : ... .. 2 V01 ... : F#2 02 . ... : F-# 1C A ... : ... .. . F05
ROW 1B : ... .. . ... ... : ... .. . ... ... : ... .. . ... : ... .. . ... : ... .. . F03
ROW 1C : F#3 01 5 ... ... : ... .. 3 V00 ... : F#1 02 . ... : F-# 1C . ... : ... .. . F05
ROW 1D : ... .. . ... ... : ... .. . ... ... : ... .. . ... : ... .. . ... : ... .. . F03
ROW 1E : B-3 01 6 ... ... : ... .. 4 ... ... : F#2 02 . ... : 7-# 22 . ... : ... .. . F05
ROW 1F : ... .. . ... ... : ... .. . ... ... : ... .. . ... : ... .. . ... : ... .. . F03
ROW 20 : F#3 01 7 ... ... : ... .. 3 ... ... : F#1 02 . ... : F-# 1C . ... : ... .. . F05
ROW 21 : ... .. . ... ... : ... .. . ... ... : ... .. . ... : ... .. . ... : ... .. . F03
ROW 22 : B-3 01 . ... ... : ... .. . ... ... : F#2 02 . ... : 7-# 22 . ... : ... .. . F05
ROW 23 : ... .. . ... ... : ... .. . ... ... : ... .. . ... : ... .. . ... : ... .. . F03
ROW 24 : A#3 01 6 ... ... : ... .. 2 ... ... : F#1 02 . ... : 0-# 1B 8 ... : ... .. . F05
ROW 25 : ... .. . ... ... : ... .. . ... ... : ... .. . ... : ... .. . ... : ... .. . F03
ROW 26 : F#3 01 . ... ... : ... .. . ... ... : F#1 02 . ... : 7-# 22 6 ... : ... .. . F05
ROW 27 : ... .. . ... ... : ... .. . ... ... : ... .. . ... : ... .. . ... : ... .. . F03
ROW 28 : A#3 01 5 ... ... : ... .. 1 ... ... : F#2 02 . ... : 0-# 1B 8 ... : ... .. . F05
ROW 29 : ... .. . ... ... : ... .. . ... ... : ... .. . ... : ... .. . ... : ... .. . F03
ROW 2A : F#3 01 4 ... ... : ... .. . ... ... : F#1 02 . ... : 7-# 22 A ... : ... .. . F05
ROW 2B : ... .. . ... ... : ... .. . ... ... : ... .. . ... : ... .. . ... : ... .. . F03
ROW 2C : A#3 01 3 ... ... : ... .. . ... ... : F#2 02 . ... : F-# 1C . ... : ... .. . F05
ROW 2D : ... .. . ... ... : ... .. . ... ... : ... .. . ... : ... .. . ... : ... .. . F03
ROW 2E : F#3 01 2 ... ... : ... .. . ... ... : F#1 02 . ... : 7-# 22 . ... : ... .. . F05
ROW 2F : ... .. . ... ... : ... .. . S02 ... : ... .. . ... : ... .. . ... : ... .. . F03

PATTERN 09
ROW 00 : B-3 01 5 V01 ... : G#2 05 1 V02 ... : G#1 00 . ... : ... .. . ... : ... .. . F05
ROW 01 : ... .. . ... ... : ... .. . ... ... : ... .. . ... : ... .. . ... : ... .. . F03
ROW 02 : F#3 01 . ... ... : ... .. 2 ... ... : ... .. . ... : ... .. . ... : ... .. . F05
ROW 03 : ... .. . ... ... : ... .. . ... ... : ... .. . ... : ... .. . ... : ... .. . F03
ROW 04 : B-3 01 . ... ... : ... .. 3 ... ... : ... .. . ... : ... .. . ... : ... .. . F05
ROW 05 : ... .. . ... ... : ... .. . ... ... : ... .. . ... : ... .. . ... : ... .. . F03
ROW 06 : F#4 01 . ... ... : ... .. 4 ... ... : ... .. . ... : ... .. . ... : ... .. . F05
ROW 07 : ... .. . ... ... : ... .. . ... ... : ... .. . ... : ... .. . ... : ... .. . F03
ROW 08 : ... .. . ... ... : ... .. 3 V01 ... : ... .. . ... : ... .. . ... : ... .. . F05
ROW 09 : ... .. . ... ... : ... .. . ... ... : ... .. . ... : ... .. . ... : ... .. . F03
ROW 0A : ... .. . ... ... : ... .. . ... ... : ... .. . ... : ... .. . ... : ... .. . F05
ROW 0B : ... .. . ... ... : ... .. . ... ... : ... .. . ... : ... .. . ... : ... .. . F03
ROW 0C : E-4 01 . ... ... : ... .. . V00 ... : ... .. . ... : ... .. . ... : ... .. . F05
ROW 0D : ... .. . ... ... : ... .. . ... ... : ... .. . ... : ... .. . ... : ... .. . F03
ROW 0E : ... .. . ... ... : ... .. . ... ... : ... .. . ... : ... .. . ... : ... .. . F05
ROW 0F : ... .. . ... ... : ... .. . ... ... : ... .. . ... : ... .. . ... : ... .. . F03
ROW 10 : ... .. . ... ... : ... .. 2 ... ... : A-1 00 . 301 : ... .. . ... : ... .. . F05
ROW 11 : ... .. . ... ... : ... .. . ... ... : ... .. . ... : ... .. . ... : ... .. . F03
ROW 12 : D#4 01 . ... ... : ... .. . ... ... : ... .. . 302 : ... .. . ... : ... .. . F05
ROW 13 : ... .. . ... ... : ... .. . ... ... : ... .. . ... : ... .. . ... : ... .. . F03
ROW 14 : ... .. . ... ... : ... .. 1 ... ... : ... .. . 301 : ... .. . ... : ... .. . F05
ROW 15 : ... .. . ... ... : ... .. . ... ... : ... .. . ... : ... .. . ... : ... .. . F03
ROW 16 : ... .. . ... ... : ... .. . ... ... : ... .. . 302 : ... .. . ... : ... .. . F05
ROW 17 : ... .. . ... ... : ... .. . ... ... : ... .. . ... : ... .. . ... : ... .. . F03
ROW 18 : C#4 01 . ... ... : A-2 0C 1 V02 ... : A-1 00 . 30A : ... .. . ... : ... .. . F05
ROW 19 : ... .. . ... ... : ... .. . ... ... : ... .. . ... : ... .. . ... : ... .. . F03
ROW 1A : ... .. . ... ... : ... .. 2 ... ... : ... .. . 300 : ... .. . ... : ... .. . F05
ROW 1B : ... .. . ... ... : ... .. . ... ... : ... .. . ... : ... .. . ... : ... .. . F03
ROW 1C : ... .. . ... ... : ... .. 3 ... ... : ... .. . ... : ... .. . ... : ... .. . F05
ROW 1D : ... .. . ... ... : ... .. . ... ... : ... .. . ... : ... .. . ... : ... .. . F03
ROW 1E : ... .. . ... ... : ... .. 4 ... ... : ... .. . ... : ... .. . ... : ... .. . F05
ROW 1F : ... .. . ... ... : ... .. . ... ... : ... .. . ... : ... .. . ... : ... .. . F03
ROW 20 : D-4 01 2 ... ... : ... .. 3 V01 ... : ... .. . ... : ... .. . ... : ... .. . F05
ROW 21 : ... .. 3 ... ... : ... .. . ... ... : ... .. . ... : ... .. . ... : ... .. . F03
ROW 22 : D#4 01 4 ... ... : ... .. . ... ... : ... .. . ... : ... .. . ... : ... .. . F05
ROW 23 : ... .. . ... ... : ... .. . ... ... : ... .. . ... : ... .. . ... : ... .. . F03
ROW 24 : E-4 01 5 ... ... : ... .. . V00 ... : ... .. . ... : ... .. . ... : ... .. . F05
ROW 25 : ... .. . ... ... : ... .. . ... ... : ... .. . ... : ... .. . ... : ... .. . F03
ROW 26 : ... .. . ... ... : ... .. . ... ... : ... .. . ... : ... .. . ... : ... .. . F05
ROW 27 : ... .. . ... ... : ... .. . ... ... : ... .. . ... : ... .. . ... : ... .. . F03
ROW 28 : ... .. . ... ... : ... .. 2 ... ... : ... .. . ... : ... .. . ... : ... .. . F05
ROW 29 : ... .. . ... ... : ... .. . ... ... : ... .. . ... : ... .. . ... : ... .. . F03
ROW 2A : ... .. . ... ... : ... .. . ... ... : ... .. . ... : ... .. . ... : ... .. . F05
ROW 2B : ... .. . ... ... : ... .. . ... ... : ... .. . ... : ... .. . ... : ... .. . F03
ROW 2C : ... .. . ... ... : ... .. 1 ... ... : ... .. . ... : ... .. . ... : ... .. . F05
ROW 2D : ... .. . ... ... : ... .. . ... ... : ... .. . ... : ... .. . ... : ... .. . F03
ROW 2E : ... .. . ... ... : ... .. . ... ... : ... .. . ... : ... .. . ... : ... .. . F05
ROW 2F : ... .. . ... ... : ... .. . ... ... : ... .. . ... : ... .. . ... : ... .. . F03

PATTERN 0A
ROW 00 : C#3 01 8 V00 ... : A#2 05 1 V02 ... : A#1 17 . ... : 0-# 1B 8 ... : ... .. . F05
ROW 01 : ... .. . ... ... : ... .. . ... ... : ... .. . ... : ... .. . ... : ... .. . F03
ROW 02 : G#2 01 . ... ... : ... .. 2 ... ... : ... .. . ... : F-# 1C A ... : ... .. . F05
ROW 03 : ... .. . ... ... : ... .. . ... ... : ... .. . ... : ... .. . ... : ... .. . F03
ROW 04 : C#3 01 . ... ... : ... .. 3 ... ... : A#1 02 . ... : F-# 1C . ... : ... .. . F05
ROW 05 : ... .. . ... ... : ... .. . ... ... : ... .. . ... : ... .. . ... : ... .. . F03
ROW 06 : G#3 01 . ... ... : ... .. 4 ... ... : A#2 02 . ... : 7-# 22 . ... : ... .. . F05
ROW 07 : ... .. . ... ... : ... .. . ... ... : F-2 02 . ... : ... .. . ... : ... .. . F03
ROW 08 : ... .. . ... ... : ... .. 3 V01 ... : A#1 02 . ... : F-# 1C . ... : ... .. . F05
ROW 09 : ... .. . ... ... : ... .. . ... ... : ... .. . ... : ... .. . ... : ... .. . F03
ROW 0A : ... .. . ... ... : ... .. . ... ... : ... .. . ... : F-# 1C . ... : ... .. . F05
ROW 0B : ... .. . ... ... : ... .. . ... ... : ... .. . ... : ... .. . ... : ... .. . F03
ROW 0C : F#3 01 . ... ... : ... .. . V00 ... : A#1 02 . ... : 0-# 1B 4 ... : ... .. . F05
ROW 0D : ... .. . ... ... : ... .. . ... ... : --- .. . ... : ... .. . ... : ... .. . F03
ROW 0E : ... .. . ... ... : ... .. . ... ... : A#1 02 . ... : 0-# 1B 7 ... : ... .. . F05
ROW 0F : ... .. . ... ... : ... .. . ... ... : --- .. . ... : ... .. . ... : ... .. . F03
ROW 10 : ... .. . ... ... : ... .. 2 ... ... : A#1 02 . ... : 0-# 1B 9 ... : ... .. . F05
ROW 11 : ... .. . ... ... : ... .. . ... ... : --- .. . ... : ... .. . ... : ... .. . F03
ROW 12 : F-3 01 . ... ... : ... .. . ... ... : A#2 02 . ... : 7-# 22 A ... : ... .. . F05
ROW 13 : ... .. . ... ... : ... .. . ... ... : --- .. . ... : ... .. . ... : ... .. . F03
ROW 14 : ... .. . ... ... : ... .. 1 ... ... : F-2 02 . ... : F-# 1C . ... : ... .. . F05
ROW 15 : ... .. . ... ... : ... .. . ... ... : --- .. . ... : ... .. . ... : ... .. . F03
ROW 16 : ... .. . ... ... : ... .. . ... ... : A#1 17 . ... : F-# 1C . ... : ... .. . F05
ROW 17 : ... .. . ... ... : ... .. . ... ... : --- .. . ... : ... .. . ... : ... .. . F03
ROW 18 : D#3 01 . ... ... : B-2 0C 1 V02 ... : B-1 17 . 30A : 0-# 1B 8 ... : ... .. . F05
ROW 19 : ... .. . ... ... : ... .. . ... ... : ... .. . ... : ... .. . ... : ... .. . F03
ROW 1A : ... .. . ... ... : ... .. 2 ... ... : ... .. . 300 : F-# 1C A ... : ... .. . F05
ROW 1B : ... .. . ... ... : ... .. . ... ... : ... .. . ... : ... .. . ... : ... .. . F03
ROW 1C : ... .. . ... ... : ... .. 3 ... ... : B-1 02 . ... : F-# 1C . ... : ... .. . F05
ROW 1D : ... .. . ... ... : ... .. . ... ... : ... .. . ... : ... .. . ... : ... .. . F03
ROW 1E : ... .. . ... ... : ... .. 4 ... ... : B-2 02 . ... : 7-# 22 . ... : ... .. . F05
ROW 1F : ... .. . ... ... : ... .. . ... ... : --- 02 . ... : ... .. . ... : ... .. . F03
ROW 20 : E-3 01 . ... ... : ... .. 3 V01 ... : B-2 02 . ... : F-# 1C . ... : ... .. . F05
ROW 21 : ... .. . ... ... : ... .. . ... ... : --- .. . ... : ... .. . ... : ... .. . F03
ROW 22 : F-3 01 . ... ... : ... .. . ... ... : B-1 02 . ... : 7-# 22 . ... : ... .. . F05
ROW 23 : ... .. . ... ... : ... .. . ... ... : --- .. . ... : ... .. . ... : ... .. . F03
ROW 24 : F#3 01 . ... ... : ... .. . V00 ... : B-1 02 . ... : 0-# 1B 8 ... : ... .. . F05
ROW 25 : ... .. . ... ... : ... .. . V01 ... : --- .. . ... : ... .. . ... : ... .. . F03
ROW 26 : ... .. . ... ... : ... .. . V02 ... : B-1 02 . ... : 7-# 22 6 ... : ... .. . F05
ROW 27 : ... .. . ... ... : ... .. . V01 ... : --- .. . ... : ... .. . ... : ... .. . F03
ROW 28 : ... .. . ... ... : ... .. 2 V02 ... : B-1 02 . ... : 0-# 1B 8 ... : ... .. . F05
ROW 29 : ... .. . ... ... : ... .. . V01 ... : --- .. . ... : ... .. . ... : ... .. . F03
ROW 2A : ... .. . ... ... : ... .. . V00 ... : B-1 02 . ... : 7-# 22 A ... : ... .. . F05
ROW 2B : ... .. . ... ... : ... .. . ... ... : ... .. . ... : ... .. . ... : ... .. . F03
ROW 2C : ... .. . ... ... : ... .. 1 V02 ... : ... .. . ... : F-# 1C . ... : ... .. . F05
ROW 2D : ... .. . ... ... : ... .. . V01 ... : ... .. . ... : ... .. . ... : ... .. . F03
ROW 2E : ... .. . ... ... : ... .. . V00 ... : ... .. . ... : 7-# 22 . ... : ... .. . F05
ROW 2F : ... .. . ... ... : ... .. . ... ... : ... .. . ... : ... .. . ... : ... .. . F03

PATTERN 0B
ROW 00 : B-3 01 5 V01 ... : G#2 05 1 V02 ... : G#1 00 . ... : ... .. . ... : ... .. . F05
ROW 01 : ... .. . ... ... : ... .. . ... ... : ... .. . ... : ... .. . ... : ... .. . F03
ROW 02 : F#3 01 . ... ... : ... .. 2 ... ... : ... .. . ... : ... .. . ... : ... .. . F05
ROW 03 : ... .. . ... ... : ... .. . ... ... : ... .. . ... : ... .. . ... : ... .. . F03
ROW 04 : B-3 01 . ... ... : ... .. 3 ... ... : ... .. . ... : ... .. . ... : ... .. . F05
ROW 05 : ... .. . ... ... : ... .. . ... ... : ... .. . ... : ... .. . ... : ... .. . F03
ROW 06 : F#4 01 . ... ... : ... .. 4 ... ... : ... .. . ... : ... .. . ... : ... .. . F05
ROW 07 : ... .. . ... ... : ... .. . ... ... : ... .. . ... : ... .. . ... : ... .. . F03
ROW 08 : ... .. . ... ... : ... .. 3 V01 ... : ... .. . ... : ... .. . ... : ... .. . F05
ROW 09 : ... .. . ... ... : ... .. . ... ... : ... .. . ... : ... .. . ... : ... .. . F03
ROW 0A : ... .. . ... ... : ... .. . ... ... : ... .. . ... : ... .. . ... : ... .. . F05
ROW 0B : ... .. . ... ... : ... .. . ... ... : ... .. . ... : ... .. . ... : ... .. . F03
ROW 0C : ... .. . ... ... : ... .. . V00 ... : ... .. . ... : ... .. . ... : ... .. . F05
ROW 0D : ... .. . ... ... : ... .. . ... ... : ... .. . ... : ... .. . ... : ... .. . F03
ROW 0E : ... .. . ... ... : ... .. . ... ... : ... .. . ... : ... .. . ... : ... .. . F05
ROW 0F : ... .. . ... ... : ... .. . ... ... : ... .. . ... : ... .. . ... : ... .. . F03
ROW 10 : ... .. . ... ... : ... .. 2 ... ... : A-1 00 . 301 : ... .. . ... : ... .. . F05
ROW 11 : ... .. . ... ... : ... .. . ... ... : ... .. . ... : ... .. . ... : ... .. . F03
ROW 12 : E-4 01 . ... ... : ... .. . ... ... : ... .. . 302 : ... .. . ... : ... .. . F05
ROW 13 : ... .. . ... ... : ... .. . ... ... : ... .. . ... : ... .. . ... : ... .. . F03
ROW 14 : ... .. . ... ... : ... .. 1 ... ... : ... .. . 301 : ... .. . ... : ... .. . F05
ROW 15 : ... .. . ... ... : ... .. . ... ... : ... .. . ... : ... .. . ... : ... .. . F03
ROW 16 : D#4 01 . ... ... : ... .. . ... ... : ... .. . 302 : ... .. . ... : ... .. . F05
ROW 17 : ... .. . ... ... : ... .. . ... ... : ... .. . ... : ... .. . ... : ... .. . F03
ROW 18 : C#4 01 . ... ... : A-2 0D 1 V02 ... : A-1 00 . 30A : ... .. . ... : ... .. . F05
ROW 19 : ... .. . ... ... : ... .. . ... ... : ... .. . ... : ... .. . ... : ... .. . F03
ROW 1A : ... .. . ... ... : ... .. 2 ... ... : ... .. . 300 : ... .. . ... : ... .. . F05
ROW 1B : ... .. . ... ... : ... .. . ... ... : ... .. . ... : ... .. . ... : ... .. . F03
ROW 1C : ... .. . ... ... : ... .. 3 ... ... : ... .. . ... : ... .. . ... : ... .. . F05
ROW 1D : ... .. . ... ... : ... .. . ... ... : ... .. . ... : ... .. . ... : ... .. . F03
ROW 1E : ... .. . ... ... : ... .. 4 ... ... : ... .. . ... : ... .. . ... : ... .. . F05
ROW 1F : ... .. . ... ... : ... .. . ... ... : ... .. . ... : ... .. . ... : ... .. . F03
ROW 20 : D-4 01 2 ... ... : ... .. 3 V01 ... : ... .. . ... : ... .. . ... : ... .. . F05
ROW 21 : ... .. 3 ... ... : ... .. . ... ... : ... .. . ... : ... .. . ... : ... .. . F03
ROW 22 : D#4 01 4 ... ... : ... .. . ... ... : ... .. . ... : ... .. . ... : ... .. . F05
ROW 23 : ... .. . ... ... : ... .. . ... ... : ... .. . ... : ... .. . ... : ... .. . F03
ROW 24 : E-4 01 5 ... ... : ... .. . V00 ... : ... .. . ... : ... .. . ... : ... .. . F05
ROW 25 : ... .. . ... ... : ... .. . ... ... : ... .. . ... : ... .. . ... : ... .. . F03
ROW 26 : ... .. . ... ... : ... .. . ... ... : ... .. . ... : ... .. . ... : ... .. . F05
ROW 27 : ... .. . ... ... : ... .. . ... ... : ... .. . ... : ... .. . ... : ... .. . F03
ROW 28 : ... .. . ... ... : ... .. 2 ... ... : ... .. . ... : ... .. . ... : ... .. . F05
ROW 29 : ... .. . ... ... : ... .. . ... ... : ... .. . ... : ... .. . ... : ... .. . F03
ROW 2A : A-0 17 1 V01 ... : ... .. . ... ... : B-1 17 . ... : 0-# 1B 1 ... : ... .. . F05
ROW 2B : --- .. . ... ... : ... .. . ... ... : --- .. . ... : --- .. . ... : ... .. . F03
ROW 2C : A-0 17 3 ... ... : ... .. 1 ... ... : B-1 17 . ... : 0-# 1B 4 ... : ... .. . F05
ROW 2D : --- .. . ... ... : ... .. . ... ... : --- .. . ... : --- .. . ... : ... .. . F03
ROW 2E : A-0 17 5 ... ... : ... .. . ... ... : B-1 17 . ... : 0-# 1B 7 ... : ... .. . F05
ROW 2F : --- .. . ... ... : ... .. . ... ... : --- .. . ... : --- .. . ... : ... .. . F03

PATTERN 0C
ROW 00 : A-3 01 8 V00 ... : G#2 05 1 V02 ... : G#1 08 . ... : 0-# 1B 8 ... : ... .. . F05
ROW 01 : B-3 01 . 30A ... : ... .. . ... ... : ... .. . ... : ... .. . ... : ... .. . F03
ROW 02 : ... .. . ... ... : ... .. 2 V01 ... : G#2 08 . ... : F-# 1C A ... : ... .. . F05
ROW 03 : ... .. . ... ... : ... .. . ... ... : ... .. . ... : ... .. . ... : ... .. . F03
ROW 04 : A-3 01 . 300 ... : ... .. 3 V00 ... : G#1 08 . ... : F-# 1C . ... : ... .. . F05
ROW 05 : B-3 01 . ... ... : ... .. . ... ... : ... .. . ... : ... .. . ... : ... .. . F03
ROW 06 : ... .. . ... ... : ... .. 4 ... ... : G#2 08 . ... : 7-# 22 . ... : ... .. . F05
ROW 07 : ... .. . ... ... : ... .. . ... ... : ... .. . ... : ... .. . ... : ... .. . F03
ROW 08 : A-3 01 . ... ... : ... .. 3 ... ... : D#2 08 . ... : F-# 1C . ... : ... .. . F05
ROW 09 : A#3 01 . ... ... : ... .. . ... ... : ... .. . ... : ... .. . ... : ... .. . F03
ROW 0A : B-3 01 . ... ... : ... .. 2 ... ... : G#1 08 . ... : F-# 1C . ... : ... .. . F05
ROW 0B : ... .. . ... ... : ... .. . ... ... : ... .. . ... : ... .. . ... : ... .. . F03
ROW 0C : A#3 01 . V01 ... : G#2 06 1 V02 ... : G-1 08 . ... : 0-# 1B 4 ... : ... .. . F05
ROW 0D : B-3 01 . ... ... : ... .. . ... ... : ... .. . ... : ... .. . ... : ... .. . F03
ROW 0E : G-3 01 . ... ... : ... .. 2 V01 ... : G-2 08 . ... : 0-# 1B 7 ... : ... .. . F05
ROW 0F : ... .. . ... ... : ... .. . ... ... : ... .. . ... : ... .. . ... : ... .. . F03
ROW 10 : F#3 01 7 ... ... : ... .. 3 V00 ... : G-1 08 . ... : 0-# 1B 9 ... : ... .. . F05
ROW 11 : ... .. . ... ... : ... .. . ... ... : ... .. . ... : ... .. . ... : ... .. . F03
ROW 12 : G-3 01 5 ... ... : ... .. 4 ... ... : G-2 08 . ... : 7-# 22 A ... : ... .. . F05
ROW 13 : ... .. . ... ... : ... .. . ... ... : ... .. . ... : ... .. . ... : ... .. . F03
ROW 14 : F#3 01 3 ... ... : ... .. 3 ... ... : D-2 08 . ... : F-# 1C . ... : ... .. . F05
ROW 15 : ... .. . ... ... : ... .. . ... ... : ... .. . ... : ... .. . ... : ... .. . F03
ROW 16 : G-3 01 2 ... ... : ... .. 2 ... ... : G-1 08 . ... : F-# 1C . ... : ... .. . F05
ROW 17 : ... .. . ... ... : ... .. . ... ... : ... .. . ... : ... .. . ... : ... .. . F03
ROW 18 : F#3 01 3 ... ... : F#2 07 1 V02 ... : F#1 08 . ... : 0-# 1B 8 ... : ... .. . F05
ROW 19 : ... .. . ... ... : ... .. . ... ... : ... .. . ... : ... .. . ... : ... .. . F03
ROW 1A : B-3 01 4 ... ... : ... .. 2 V01 ... : F#2 08 . ... : F-# 1C A ... : ... .. . F05
ROW 1B : ... .. . ... ... : ... .. . ... ... : ... .. . ... : ... .. . ... : ... .. . F03
ROW 1C : F#3 01 5 ... ... : ... .. 3 V00 ... : F#1 08 . ... : F-# 1C . ... : ... .. . F05
ROW 1D : ... .. . ... ... : ... .. . ... ... : ... .. . ... : ... .. . ... : ... .. . F03
ROW 1E : B-3 01 6 ... ... : ... .. 4 ... ... : F#2 08 . ... : 7-# 22 . ... : ... .. . F05
ROW 1F : ... .. . ... ... : ... .. . ... ... : ... .. . ... : ... .. . ... : ... .. . F03
ROW 20 : F#3 01 7 ... ... : ... .. 3 ... ... : F#1 08 . ... : F-# 1C . ... : ... .. . F05
ROW 21 : ... .. . ... ... : ... .. . ... ... : ... .. . ... : ... .. . ... : ... .. . F03
ROW 22 : B-3 01 . ... ... : ... .. . ... ... : F#2 08 . ... : F-# 1C . ... : ... .. . F05
ROW 23 : ... .. . ... ... : ... .. . ... ... : ... .. . ... : ... .. . ... : ... .. . F03
ROW 24 : A#3 01 6 ... ... : ... .. 2 ... ... : F#2 08 . ... : 0-# 1B 8 ... : ... .. . F05
ROW 25 : ... .. . ... ... : ... .. . ... ... : ... .. . ... : ... .. . ... : ... .. . F03
ROW 26 : F#3 01 . ... ... : ... .. . ... ... : F#1 08 . ... : 7-# 22 6 ... : ... .. . F05
ROW 27 : ... .. . ... ... : ... .. . ... ... : ... .. . ... : ... .. . ... : ... .. . F03
ROW 28 : A#3 01 5 ... ... : ... .. 1 ... ... : F#2 08 . ... : 0-# 1B 8 ... : ... .. . F05
ROW 29 : ... .. . ... ... : ... .. . ... ... : ... .. . ... : ... .. . ... : ... .. . F03
ROW 2A : F#3 01 4 ... ... : ... .. . ... ... : F#1 08 . ... : 7-# 22 A ... : ... .. . F05
ROW 2B : ... .. . ... ... : ... .. . ... ... : ... .. . ... : ... .. . ... : ... .. . F03
ROW 2C : A#3 01 3 ... ... : ... .. . ... ... : F#2 08 . ... : F-# 1C . ... : ... .. . F05
ROW 2D : ... .. . ... ... : ... .. . ... ... : ... .. . ... : ... .. . ... : ... .. . F03
ROW 2E : F#3 01 2 ... ... : ... .. . ... ... : F#1 08 . ... : 7-# 22 . ... : ... .. . F05
ROW 2F : ... .. . ... ... : ... .. . S02 ... : ... .. . ... : ... .. . ... : ... .. . F03

PATTERN 0D
ROW 00 : A-3 01 2 V00 ... : G#2 05 1 V02 ... : --- .. . ... : --- .. . ... : ... .. . F05
ROW 01 : B-3 01 3 30A ... : ... .. . ... ... : ... .. . ... : ... .. . ... : ... .. . ...
ROW 02 : ... .. . ... ... : ... .. 2 V01 ... : ... .. . ... : ... .. . ... : ... .. . F03
ROW 03 : ... .. . ... ... : ... .. . ... ... : ... .. . ... : ... .. . ... : ... .. F ...
ROW 04 : A-3 01 2 300 ... : ... .. 3 V00 ... : ... .. . ... : E-# 1C 1 ... : ... .. . F05
ROW 05 : B-3 01 3 ... ... : ... .. . ... ... : ... .. . ... : ... .. . ... : ... .. . ...
ROW 06 : ... .. . ... ... : ... .. 4 ... ... : ... .. . ... : ... .. . ... : ... .. . F03
ROW 07 : ... .. . ... ... : ... .. . ... ... : ... .. . ... : ... .. . ... : ... .. . ...
ROW 08 : A-3 01 3 ... ... : ... .. 3 ... ... : ... .. . ... : E-# 1C 2 ... : ... .. . F05
ROW 09 : A#3 01 . ... ... : ... .. . ... ... : ... .. . ... : ... .. . ... : ... .. . ...
ROW 0A : B-3 01 4 ... ... : ... .. 2 ... ... : ... .. . ... : ... .. . ... : ... .. . F03
ROW 0B : ... .. . ... ... : ... .. . ... ... : ... .. . ... : ... .. . ... : ... .. . ...
ROW 0C : A#3 01 3 V01 ... : G#2 06 1 V02 ... : ... .. . ... : E-# 1C 3 ... : ... .. . F05
ROW 0D : B-3 01 4 ... ... : ... .. . ... ... : ... .. . ... : ... .. . ... : ... .. . ...
ROW 0E : G-3 01 5 ... ... : ... .. 2 V01 ... : ... .. . ... : ... .. . ... : ... .. . F03
ROW 0F : ... .. . ... ... : ... .. . ... ... : ... .. . ... : ... .. . ... : ... .. . ...
ROW 10 : F#3 01 5 ... ... : ... .. 3 V00 ... : ... .. . ... : E-# 1C 4 ... : ... .. . F05
ROW 11 : ... .. . ... ... : ... .. . ... ... : ... .. . ... : ... .. . ... : ... .. . ...
ROW 12 : G-3 01 3 ... ... : ... .. 4 ... ... : ... .. . ... : F-# 1C . ... : ... .. . F03
ROW 13 : ... .. . ... ... : ... .. . ... ... : ... .. . ... : ... .. . ... : ... .. . ...
ROW 14 : F#3 01 1 ... ... : ... .. 3 ... ... : ... .. . ... : E-# 1C . ... : ... .. . F05
ROW 15 : ... .. . ... ... : ... .. . ... ... : ... .. . ... : ... .. . ... : ... .. . ...
ROW 16 : G-3 01 . ... ... : ... .. 2 ... ... : ... .. . ... : ... .. . ... : ... .. . F03
ROW 17 : ... .. . ... ... : ... .. . ... ... : ... .. . ... : ... .. . ... : ... .. . ...
ROW 18 : F#3 01 1 ... ... : F#2 07 1 V02 ... : ... .. . ... : E-# 1C 8 ... : ... .. . F05
ROW 19 : ... .. . ... ... : ... .. . ... ... : ... .. . ... : ... .. . ... : ... .. . ...
ROW 1A : B-3 01 2 ... ... : ... .. 2 V01 ... : ... .. . ... : F-# 1C 9 ... : ... .. . F03
ROW 1B : ... .. . ... ... : ... .. . ... ... : ... .. . ... : ... .. . ... : ... .. . ...
ROW 1C : F#3 01 3 ... ... : ... .. 3 V00 ... : ... .. . ... : E-# 1C 3 ... : ... .. . F05
ROW 1D : ... .. . ... ... : ... .. . ... ... : ... .. . ... : ... .. . ... : ... .. . ...
ROW 1E : B-3 01 4 ... ... : ... .. 4 ... ... : ... .. . ... : ... .. . ... : ... .. . F03
ROW 1F : ... .. . ... ... : ... .. . ... ... : ... .. . ... : ... .. . ... : ... .. . ...
ROW 20 : F#3 01 5 ... ... : ... .. 3 ... ... : ... .. . ... : E-# 1C A ... : ... .. . F05
ROW 21 : ... .. . ... ... : ... .. . ... ... : ... .. . ... : ... .. . ... : ... .. . ...
ROW 22 : B-3 01 . ... ... : ... .. . ... ... : ... .. . ... : ... .. . ... : ... .. . F03
ROW 23 : ... .. . ... ... : ... .. . ... ... : ... .. . ... : ... .. . ... : ... .. . ...
ROW 24 : A#3 01 4 ... ... : ... .. 2 ... ... : ... .. . ... : E-# 1C A ... : ... .. . F05
ROW 25 : ... .. . ... ... : ... .. . ... ... : ... .. . ... : ... .. . ... : ... .. . ...
ROW 26 : F#3 01 . ... ... : ... .. . ... ... : ... .. . ... : ... .. . ... : ... .. . F03
ROW 27 : ... .. . ... ... : ... .. . ... ... : ... .. . ... : ... .. . ... : ... .. . ...
ROW 28 : A#3 01 3 ... ... : ... .. 1 ... ... : ... .. . ... : E-# 1C 3 ... : ... .. . F05
ROW 29 : ... .. . ... ... : ... .. . ... ... : ... .. . ... : ... .. . ... : ... .. . ...
ROW 2A : F#3 01 2 ... ... : ... .. . ... ... : ... .. . ... : E-# 1C 7 ... : ... .. . F03
ROW 2B : ... .. . ... ... : ... .. . ... ... : ... .. . ... : ... .. . ... : ... .. . ...
ROW 2C : A#3 01 1 ... ... : ... .. . ... ... : ... .. . ... : E-# 1C A ... : ... .. . F05
ROW 2D : ... .. . ... ... : ... .. . ... ... : ... .. . ... : ... .. . ... : ... .. . ...
ROW 2E : F#3 01 . ... ... : ... .. . ... ... : ... .. . ... : E-# 0E . ... : ... .. . F03
ROW 2F : ... .. . ... ... : ... .. . ... ... : ... .. . ... : ... .. . ... : ... .. . ...

PATTERN 0E
ROW 00 : A#3 01 1 ... ... : G#2 05 1 V02 ... : --- .. . ... : E-# 1C A ... : ... .. . F05
ROW 01 : ... .. . ... ... : ... .. . ... ... : ... .. . ... : ... .. . ... : ... .. . ...
ROW 02 : --- .. . ... ... : ... .. 2 V01 ... : ... .. . ... : F-# 1C . ... : ... .. . F03
ROW 03 : ... .. . ... ... : ... .. . ... ... : ... .. . ... : ... .. . ... : ... .. F ...
ROW 04 : G#3 0A 5 V01 ... : ... .. 3 V00 ... : ... .. . ... : E-# 1C 3 ... : ... .. . F05
ROW 05 : ... .. . ... ... : ... .. . ... ... : ... .. . ... : ... .. . ... : ... .. . ...
ROW 06 : ... .. . ... ... : ... .. 4 ... ... : ... .. . ... : ... .. . ... : ... .. . F03
ROW 07 : ... .. . ... ... : ... .. . ... ... : ... .. . ... : ... .. . ... : ... .. . ...
ROW 08 : B-3 0A 6 ... ... : ... .. 3 ... ... : ... .. . ... : E-# 1C A ... : ... .. . F05
ROW 09 : ... .. . ... ... : ... .. . ... ... : ... .. . ... : ... .. . ... : ... .. . ...
ROW 0A : ... .. . ... ... : ... .. 2 ... ... : ... .. . ... : ... .. . ... : ... .. . F03
ROW 0B : ... .. . ... ... : ... .. . ... ... : ... .. . ... : ... .. . ... : ... .. . ...
ROW 0C : C-4 0A 7 ... ... : G#2 06 1 V02 ... : ... .. . ... : E-# 1C A ... : ... .. . F05
ROW 0D : C#4 0A . ... ... : ... .. . ... ... : ... .. . ... : ... .. . ... : ... .. . ...
ROW 0E : ... .. . ... ... : ... .. 2 V01 ... : ... .. . ... : ... .. . ... : ... .. . F03
ROW 0F : ... .. . ... ... : ... .. . ... ... : ... .. . ... : ... .. . ... : ... .. . ...
ROW 10 : ... .. . 453 ... : ... .. 3 V00 ... : ... .. . ... : E-# 1C 3 ... : ... .. . F05
ROW 11 : ... .. . ... ... : ... .. . ... ... : ... .. . ... : ... .. . ... : ... .. . ...
ROW 12 : ... .. . ... ... : ... .. 4 ... ... : ... .. . ... : E-# 1C 7 ... : ... .. . F03
ROW 13 : ... .. . ... ... : ... .. . ... ... : ... .. . ... : ... .. . ... : ... .. . ...
ROW 14 : C-4 0A . 400 ... : ... .. 3 ... ... : ... .. . ... : E-# 1C A ... : ... .. . F05
ROW 15 : ... .. . ... ... : ... .. . ... ... : ... .. . ... : ... .. . ... : ... .. . ...
ROW 16 : ... .. . ... ... : ... .. 2 ... ... : ... .. . ... : ... .. . ... : ... .. . F03
ROW 17 : ... .. . ... ... : ... .. . ... ... : ... .. . ... : ... .. . ... : ... .. . ...
ROW 18 : B-3 0A 7 ... ... : F#2 07 1 V02 ... : ... .. . ... : E-# 1C A ... : ... .. . F05
ROW 19 : ... .. . ... ... : ... .. . ... ... : ... .. . ... : ... .. . ... : ... .. . ...
ROW 1A : C#4 0A 5 ... ... : ... .. 2 V01 ... : ... .. . ... : F-# 1C 4 ... : ... .. . F03
ROW 1B : ... .. . ... ... : ... .. . ... ... : ... .. . ... : ... .. . ... : ... .. . ...
ROW 1C : C-4 0A 6 ... ... : ... .. 3 V00 ... : ... .. . ... : E-# 1C A ... : ... .. . F05
ROW 1D : ... .. . ... ... : ... .. . ... ... : ... .. . ... : ... .. . ... : ... .. . ...
ROW 1E : B-3 0A 7 ... ... : ... .. 4 ... ... : ... .. . ... : F-# 1C 4 ... : ... .. . F03
ROW 1F : ... .. . ... ... : ... .. . ... ... : ... .. . ... : ... .. . ... : ... .. . ...
ROW 20 : G#3 0A 6 ... ... : ... .. 3 ... ... : ... .. . ... : E-# 1C A ... : ... .. . F05
ROW 21 : ... .. . ... ... : ... .. . ... ... : ... .. . ... : ... .. . ... : ... .. . ...
ROW 22 : B-3 0A 5 ... ... : ... .. . ... ... : ... .. . ... : F-# 1C 4 ... : ... .. . F03
ROW 23 : ... .. . ... ... : ... .. . ... ... : ... .. . ... : ... .. . ... : ... .. . ...
ROW 24 : C#4 0A 4 ... ... : ... .. 2 ... ... : ... .. . ... : E-# 1C A ... : ... .. . F05
ROW 25 : ... .. . ... ... : ... .. . ... ... : ... .. . ... : ... .. . ... : ... .. . ...
ROW 26 : B-3 0A 3 ... ... : ... .. . ... ... : ... .. . ... : F-# 1C 4 ... : ... .. . F03
ROW 27 : ... .. . ... ... : ... .. . ... ... : ... .. . ... : ... .. . ... : ... .. . ...
ROW 28 : G#3 0A 2 ... ... : ... .. 1 ... ... : ... .. . ... : E-# 1C A ... : ... .. . F05
ROW 29 : ... .. . ... ... : ... .. . ... ... : ... .. . ... : ... .. . ... : ... .. . ...
ROW 2A : B-3 0A 3 ... ... : ... .. . ... ... : ... .. . ... : F-# 1C 4 ... : ... .. . F03
ROW 2B : ... .. . ... ... : ... .. . ... ... : ... .. . ... : ... .. . ... : ... .. . ...
ROW 2C : G#3 0A 4 ... ... : ... .. . ... ... : ... .. . ... : E-# 1C A ... : ... .. . F05
ROW 2D : ... .. . ... ... : ... .. . ... ... : ... .. . ... : ... .. . ... : ... .. . ...
ROW 2E : B-3 0A 5 ... ... : ... .. . ... ... : ... .. . ... : F-# 1C 4 ... : ... .. . F03
ROW 2F : ... .. . ... ... : ... .. . ... ... : ... .. . ... : ... .. . ... : ... .. . ...

PATTERN 0F
ROW 00 : D-4 0A 2 V01 ... : G#2 05 1 V02 ... : --- .. . ... : E-# 1C A ... : ... .. . F05
ROW 01 : D#4 0A 3 ... ... : ... .. . ... ... : ... .. . ... : ... .. . ... : ... .. . ...
ROW 02 : --- .. . ... ... : ... .. 2 V01 ... : ... .. . ... : F-# 1C . ... : ... .. . F03
ROW 03 : ... .. . ... ... : ... .. . ... ... : ... .. . ... : ... .. . ... : ... .. F ...
ROW 04 : D-4 0A 3 ... ... : ... .. 3 V00 ... : ... .. . ... : E-# 1C 3 ... : ... .. . F05
ROW 05 : D#4 0A 5 ... ... : ... .. . ... ... : ... .. . ... : ... .. . ... : ... .. . ...
ROW 06 : --- .. . ... ... : ... .. 4 ... ... : ... .. . ... : ... .. . ... : ... .. . F03
ROW 07 : ... .. . ... ... : ... .. . ... ... : ... .. . ... : ... .. . ... : ... .. . ...
ROW 08 : D-4 0A 4 ... ... : ... .. 3 ... ... : ... .. . ... : E-# 1C A ... : ... .. . F05
ROW 09 : D#4 0A 7 ... ... : ... .. . ... ... : ... .. . ... : ... .. . ... : ... .. . ...
ROW 0A : --- .. . ... ... : ... .. 2 ... ... : ... .. . ... : ... .. . ... : ... .. . F03
ROW 0B : ... .. . ... ... : ... .. . ... ... : ... .. . ... : ... .. . ... : ... .. . ...
ROW 0C : E-4 0A 6 ... ... : G#2 06 1 V02 ... : ... .. . ... : E-# 1C A ... : ... .. . F05
ROW 0D : F#4 0A 8 ... ... : ... .. . ... ... : ... .. . ... : ... .. . ... : ... .. . ...
ROW 0E : ... .. . ... ... : ... .. 2 V01 ... : ... .. . ... : ... .. . ... : ... .. . F03
ROW 0F : ... .. . ... ... : ... .. . ... ... : ... .. . ... : ... .. . ... : ... .. . ...
ROW 10 : ... .. . ... ... : ... .. 3 V00 ... : ... .. . ... : E-# 1C 3 ... : ... .. . F05
ROW 11 : ... .. . ... ... : ... .. . ... ... : ... .. . ... : ... .. . ... : ... .. . ...
ROW 12 : F#4 0A . ... ... : ... .. 4 ... ... : ... .. . ... : E-# 1C 7 ... : ... .. . F03
ROW 13 : --- .. . ... ... : ... .. . ... ... : ... .. . ... : ... .. . ... : ... .. . ...
ROW 14 : C#4 0A 7 ... ... : ... .. 3 ... ... : ... .. . ... : E-# 1C A ... : ... .. . F05
ROW 15 : D#4 0A 6 ... ... : ... .. . ... ... : ... .. . ... : ... .. . ... : ... .. . ...
ROW 16 : C#4 0A 5 ... ... : ... .. 2 ... ... : ... .. . ... : ... .. . ... : ... .. . F03
ROW 17 : B-3 0A 6 ... ... : ... .. . ... ... : ... .. . ... : ... .. . ... : ... .. . ...
ROW 18 : C#4 0A 7 ... ... : F#2 07 1 V02 ... : ... .. . ... : E-# 1C A ... : ... .. . F05
ROW 19 : ... .. . ... ... : ... .. . ... ... : ... .. . ... : ... .. . ... : ... .. . ...
ROW 1A : ... .. . ... ... : ... .. 2 V01 ... : ... .. . ... : F-# 1C 4 ... : ... .. . F03
ROW 1B : ... .. . ... ... : ... .. . ... ... : ... .. . ... : ... .. . ... : ... .. . ...
ROW 1C : G#3 0A 7 ... ... : ... .. 3 V00 ... : ... .. . ... : E-# 1C A ... : ... .. . F05
ROW 1D : ... .. . ... ... : ... .. . ... ... : ... .. . ... : ... .. . ... : ... .. . ...
ROW 1E : ... .. . ... ... : ... .. 4 ... ... : ... .. . ... : F-# 1C 4 ... : ... .. . F03
ROW 1F : ... .. . ... ... : ... .. . ... ... : ... .. . ... : ... .. . ... : ... .. . ...
ROW 20 : B-3 0A 4 ... ... : ... .. 3 ... ... : ... .. . ... : E-# 1C A ... : ... .. . F05
ROW 21 : ... .. . ... ... : ... .. . ... ... : ... .. . ... : ... .. . ... : ... .. . ...
ROW 22 : ... .. . ... ... : ... .. . ... ... : ... .. . ... : F-# 1C 4 ... : ... .. . F03
ROW 23 : ... .. . ... ... : ... .. . ... ... : ... .. . ... : ... .. . ... : ... .. . ...
ROW 24 : B-3 0A 5 ... ... : A-3 0A 3 ... ... : F-1 0B . ... : E-# 1C A ... : ... .. . F05
ROW 25 : C#4 0A . ... ... : A#3 0A 4 ... ... : ... .. . ... : ... .. . ... : ... .. . ...
ROW 26 : ... .. . ... ... : ... .. . ... ... : --- .. . ... : F-# 1C 4 ... : ... .. . F03
ROW 27 : ... .. . ... ... : ... .. . ... ... : ... .. . ... : ... .. . ... : ... .. . ...
ROW 28 : ... .. . ... ... : ... .. . ... ... : F#1 0B . ... : E-# 1C A ... : ... .. . F05
ROW 29 : ... .. . ... ... : ... .. . ... ... : ... .. . ... : ... .. . ... : ... .. . ...
ROW 2A : G#3 0A 5 ... ... : ... .. . ... ... : --- .. . ... : F-# 1C 4 ... : ... .. . F03
ROW 2B : ... .. . ... ... : ... .. . ... ... : ... .. . ... : ... .. . ... : ... .. . ...
ROW 2C : B-3 0A 7 ... ... : F#3 0A 5 ... ... : G-1 0B . ... : E-# 1C A ... : ... .. . F05
ROW 2D : ... .. . ... ... : ... .. . ... ... : ... .. . ... : ... .. . ... : ... .. . ...
ROW 2E : ... .. . ... ... : ... .. . ... ... : --- .. . ... : F-# 1C 4 ... : ... .. . F03
ROW 2F : ... .. . 204 ... : ... .. . 204 ... : ... .. . ... : ... .. . ... : ... .. . ...

PATTERN 10
ROW 00 : D-4 0A 2 V01 200 : G#3 05 8 S04 V01 : G#1 0B . ... : E-# 1C A ... : ... .. . F05
ROW 01 : D#4 0A 3 ... ... : ... .. . ... ... : ... .. . ... : ... .. . ... : ... .. . ...
ROW 02 : --- .. . ... ... : G#3 05 3 S04 200 : --- .. . ... : F-# 1C . ... : ... .. . F03
ROW 03 : ... .. . ... ... : ... .. . ... ... : ... .. . ... : ... .. . ... : ... .. F ...
ROW 04 : D-4 0A 3 ... ... : G#3 05 2 S04 ... : D#1 0B . ... : E-# 1C 3 ... : ... .. . F05
ROW 05 : D#4 0A 5 ... ... : ... .. . ... ... : ... .. . ... : ... .. . ... : ... .. . ...
ROW 06 : --- .. . ... ... : G#4 00 3 S03 V02 : --- .. . ... : ... .. . ... : ... .. . F03
ROW 07 : ... .. . ... ... : ... .. . ... ... : ... .. . ... : ... .. . ... : ... .. . ...
ROW 08 : D-4 0A 4 ... ... : G#3 05 1 ... V01 : F#1 0B . ... : E-# 1C A ... : ... .. . F05
ROW 09 : D#4 0A 7 ... ... : ... .. . ... ... : ... .. . ... : ... .. . ... : ... .. . ...
ROW 0A : --- .. . ... ... : ... .. 2 ... ... : --- .. . ... : E-# 0E . ... : ... .. . F03
ROW 0B : ... .. . ... ... : ... .. 3 ... ... : ... .. . ... : ... .. . ... : ... .. . ...
ROW 0C : E-4 0A 6 ... ... : G-3 0C 8 S04 ... : G-1 0B . ... : E-# 1C A ... : ... .. . F05
ROW 0D : F#4 0A 8 ... ... : ... .. . ... ... : ... .. . ... : ... .. . ... : ... .. . ...
ROW 0E : ... .. . ... ... : G-3 0C 3 S04 ... : --- .. . ... : ... .. . ... : ... .. . F03
ROW 0F : ... .. . ... ... : ... .. . ... ... : ... .. . ... : ... .. . ... : ... .. . ...
ROW 10 : ... .. . ... ... : G-3 0C 2 S04 ... : B-1 0B . ... : E-# 1C 3 ... : ... .. . F05
ROW 11 : ... .. . ... ... : ... .. . ... ... : ... .. . ... : ... .. . ... : ... .. . ...
ROW 12 : F#4 0A . ... ... : F#4 00 2 S03 V02 : --- .. . ... : E-# 1C 7 ... : ... .. . F03
ROW 13 : --- .. . ... ... : ... .. . ... ... : ... .. . ... : ... .. . ... : ... .. . ...
ROW 14 : C#4 0A A ... ... : G-3 0C 1 S04 ... : G-1 0B . ... : E-# 0E A ... : ... .. . F05
ROW 15 : D#4 0A 7 ... ... : ... .. . ... ... : ... .. . ... : ... .. . ... : ... .. . ...
ROW 16 : C#4 0A 8 ... ... : F#4 00 1 S03 V02 : --- .. . ... : E-# 1C A ... : ... .. . F03
ROW 17 : B-3 0A 9 ... ... : ... .. . ... ... : ... .. . ... : ... .. . ... : ... .. . ...
ROW 18 : C#4 0A A ... ... : F#2 07 1 V02 ... : F#1 0B . ... : E-# 1C A ... : ... .. . F05
ROW 19 : ... .. . ... ... : F#3 07 . ... ... : ... .. . ... : ... .. . ... : ... .. . ...
ROW 1A : ... .. . ... ... : ... .. 2 ... ... : --- .. . ... : F-# 1C 4 ... : ... .. . F03
ROW 1B : ... .. . ... ... : ... .. . ... ... : ... .. . ... : ... .. . ... : ... .. . ...
ROW 1C : G#3 0A 8 ... ... : ... .. 3 V01 ... : D-1 0B . ... : E-# 1C A ... : ... .. . F05
ROW 1D : ... .. . ... ... : ... .. . ... ... : ... .. . ... : ... .. . ... : ... .. . ...
ROW 1E : ... .. . ... ... : ... .. 4 ... ... : --- .. . ... : F-# 1C 4 ... : ... .. . F03
ROW 1F : ... .. . ... ... : ... .. . ... ... : ... .. . ... : ... .. . ... : ... .. . ...
ROW 20 : B-3 0A 5 ... ... : ... .. 3 V00 ... : E-1 0B . ... : E-# 1C A ... : ... .. . F05
ROW 21 : ... .. . ... ... : ... .. . ... ... : ... .. . ... : ... .. . ... : ... .. . ...
ROW 22 : ... .. . ... ... : ... .. . ... ... : --- .. . ... : F-# 1C 4 ... : ... .. . F03
ROW 23 : ... .. . ... ... : ... .. . ... ... : ... .. . ... : ... .. . ... : ... .. . ...
ROW 24 : B-3 0A 6 V00 ... : ... .. 2 ... ... : F-1 0B . ... : E-# 0E A ... : ... .. . F05
ROW 25 : C#4 0A . ... ... : ... .. . ... ... : ... .. . ... : ... .. . ... : ... .. . ...
ROW 26 : ... .. . ... ... : ... .. . ... ... : --- .. . ... : F-# 1C 4 ... : ... .. . F03
ROW 27 : ... .. . ... ... : ... .. . ... ... : ... .. . ... : ... .. . ... : ... .. . ...
ROW 28 : G#3 0A 5 ... ... : ... .. 1 ... ... : F#1 0B . ... : E-# 1C A ... : ... .. . F05
ROW 29 : ... .. . ... ... : ... .. . ... ... : ... .. . ... : ... .. . ... : ... .. . ...
ROW 2A : ... .. . ... ... : ... .. . ... ... : --- .. . ... : F-# 1C 4 ... : ... .. . F03
ROW 2B : ... .. . ... ... : ... .. . ... ... : ... .. . ... : ... .. . ... : ... .. . ...
ROW 2C : B-3 0A 7 ... ... : ... .. . ... ... : G-1 0B . ... : E-# 1C A ... : ... .. . F05
ROW 2D : ... .. . ... ... : ... .. . ... ... : ... .. . ... : ... .. . ... : ... .. . ...
ROW 2E : ... .. . ... ... : ... .. . ... ... : --- .. . ... : F-# 1C 4 ... : ... .. . F03
ROW 2F : ... .. . 204 ... : ... .. . ... ... : ... .. . ... : ... .. . ... : ... .. . ...

PATTERN 11
ROW 00 : F#3 0A 4 V01 200 : G#3 05 8 S04 V01 : G#1 0B . ... : E-# 1C A ... : ... .. . F05
ROW 01 : G#3 0A 5 ... ... : ... .. . ... ... : ... .. . ... : ... .. . ... : ... .. . ...
ROW 02 : B-3 0A 6 ... ... : G#3 05 3 S04 200 : --- .. . ... : F-# 1C . ... : ... .. . F03
ROW 03 : ... .. . ... ... : ... .. . ... ... : ... .. . ... : ... .. . ... : ... .. F ...
ROW 04 : F#3 0A 5 ... ... : G#3 05 2 S04 ... : D#1 0B . ... : E-# 1C 3 ... : ... .. . F05
ROW 05 : G#3 0A 6 ... ... : ... .. . ... ... : ... .. . ... : ... .. . ... : ... .. . ...
ROW 06 : B-3 0A 7 ... ... : G#4 00 3 S03 V02 : --- .. . ... : ... .. . ... : ... .. . F03
ROW 07 : ... .. . ... ... : ... .. . ... ... : ... .. . ... : ... .. . ... : ... .. . ...
ROW 08 : C#4 0A 6 ... ... : D-3 0F 1 ... V01 : C#1 0B . ... : E-# 1C A ... : ... .. . F05
ROW 09 : ... .. . ... ... : ... .. . ... ... : ... .. . ... : ... .. . ... : ... .. . ...
ROW 0A : D#4 0A 7 ... ... : ... .. 2 ... ... : --- .. . ... : E-# 0E . ... : ... .. . F03
ROW 0B : ... .. . ... ... : ... .. 3 ... ... : ... .. . ... : ... .. . ... : ... .. . ...
ROW 0C : F#4 0A 8 ... ... : D-3 0F 8 S04 ... : D-1 0B . ... : E-# 1C A ... : ... .. . F05
ROW 0D : ... .. . ... ... : ... .. . ... ... : ... .. . ... : ... .. . ... : ... .. . ...
ROW 0E : ... .. . ... ... : D-3 0F 3 S04 ... : --- .. . ... : ... .. . ... : ... .. . F03
ROW 0F : E-4 0A . G04 ... : ... .. . ... ... : ... .. . ... : ... .. . ... : ... .. . ...
ROW 10 : D#4 0A . G02 ... : D-3 0F 2 S04 ... : A-1 0B . ... : E-# 1C 3 ... : ... .. . F05
ROW 11 : ... .. . ... ... : ... .. . ... ... : ... .. . ... : ... .. . ... : ... .. . ...
ROW 12 : --- .. . ... ... : F#4 00 2 S03 V02 : --- .. . ... : E-# 1C 7 ... : ... .. . F03
ROW 13 : E-4 0A . G04 ... : ... .. . ... ... : ... .. . ... : ... .. . ... : ... .. . ...
ROW 14 : D#4 0A . G02 ... : G-3 0C 1 S04 ... : G#1 0B . ... : E-# 0E A ... : ... .. . F05
ROW 15 : ... .. . ... ... : ... .. . ... ... : ... .. . ... : ... .. . ... : ... .. . ...
ROW 16 : --- .. . ... ... : F#4 00 1 S03 V02 : --- .. . ... : E-# 1C A ... : ... .. . F03
ROW 17 : ... .. . ... ... : ... .. . ... ... : ... .. . ... : ... .. . ... : ... .. . ...
ROW 18 : F#4 0A 1 ... ... : G-2 0C 1 V02 ... : G-1 0B . ... : E-# 1C A ... : ... .. . F05
ROW 19 : ... .. . ... ... : G-3 0C . ... ... : ... .. . ... : ... .. . ... : ... .. . ...
ROW 1A : D-4 0A 2 ... ... : ... .. 2 ... ... : --- .. . ... : F-# 1C 4 ... : ... .. . F03
ROW 1B : ... .. . ... ... : ... .. . ... ... : ... .. . ... : ... .. . ... : ... .. . ...
ROW 1C : F#4 0A 3 ... ... : ... .. 3 V01 ... : B-1 0B . ... : E-# 1C A ... : ... .. . F05
ROW 1D : ... .. . ... ... : ... .. . ... ... : ... .. . ... : ... .. . ... : ... .. . ...
ROW 1E : D-4 0A 4 ... ... : ... .. 4 ... ... : --- .. . ... : F-# 1C 4 ... : ... .. . F03
ROW 1F : ... .. . ... ... : ... .. . ... ... : ... .. . ... : ... .. . ... : ... .. . ...
ROW 20 : F#4 0A 6 ... ... : ... .. 3 V00 ... : A-1 0B . ... : E-# 1C A ... : ... .. . F05
ROW 21 : ... .. . ... ... : ... .. . ... ... : ... .. . ... : ... .. . ... : ... .. . ...
ROW 22 : D-4 0A 7 ... ... : ... .. . ... ... : --- .. . ... : F-# 1C 4 ... : ... .. . F03
ROW 23 : ... .. . ... ... : ... .. . ... ... : ... .. . ... : ... .. . ... : ... .. . ...
ROW 24 : F#4 0A 6 ... ... : ... .. 2 ... ... : D-2 0B . ... : E-# 0E A ... : ... .. . F05
ROW 25 : ... .. . ... ... : ... .. . ... ... : ... .. . ... : ... .. . ... : ... .. . ...
ROW 26 : D-4 0A 5 ... ... : ... .. . ... ... : --- .. . ... : F-# 1C 4 ... : ... .. . F03
ROW 27 : ... .. . ... ... : ... .. . ... ... : ... .. . ... : ... .. . ... : ... .. . ...
ROW 28 : F#4 0A 4 ... ... : ... .. 1 ... ... : B-1 0B . ... : E-# 1C A ... : ... .. . F05
ROW 29 : ... .. . ... ... : ... .. . ... ... : ... .. . ... : ... .. . ... : ... .. . ...
ROW 2A : D-4 0A 3 ... ... : ... .. . ... ... : --- .. . ... : F-# 1C 4 ... : ... .. . F03
ROW 2B : ... .. . ... ... : ... .. . ... ... : ... .. . ... : ... .. . ... : ... .. . ...
ROW 2C : F#4 0A 2 ... ... : ... .. . ... ... : A-1 0B . ... : E-# 1C A ... : ... .. . F05
ROW 2D : ... .. . ... ... : ... .. . ... ... : ... .. . ... : ... .. . ... : ... .. . ...
ROW 2E : D-4 0A 1 ... ... : ... .. . ... ... : --- .. . ... : F-# 1C 4 ... : ... .. . F03
ROW 2F : ... .. . ... ... : ... .. . ... ... : ... .. . ... : ... .. . ... : ... .. . ...

PATTERN 12
ROW 00 : A-3 00 2 V00 ... : --- .. . ... ... : G#1 0B . ... : E-# 1C A ... : ... .. . F05
ROW 01 : B-3 00 3 304 ... : ... .. . ... ... : ... .. . ... : ... .. . ... : ... .. . ...
ROW 02 : ... .. . ... ... : ... .. . ... ... : --- .. . ... : F-# 1C . ... : ... .. . F03
ROW 03 : ... .. . ... ... : A-3 00 1 V00 P7F : ... .. . ... : ... .. . ... : ... .. F ...
ROW 04 : A-3 00 2 300 ... : B-3 00 . 304 ... : D#1 0B . ... : E-# 1C 3 ... : ... .. . F05
ROW 05 : B-3 00 3 30A ... : ... .. . ... ... : ... .. . ... : ... .. . ... : ... .. . ...
ROW 06 : ... .. . ... ... : ... .. . ... ... : --- .. . ... : ... .. . ... : ... .. . F03
ROW 07 : ... .. . ... ... : A-3 00 . 300 ... : ... .. . ... : ... .. . ... : ... .. . ...
ROW 08 : A-3 00 3 300 ... : B-3 00 . 30A ... : F#1 0B . ... : E-# 1C A ... : ... .. . F05
ROW 09 : A#3 00 . ... ... : ... .. . ... ... : ... .. . ... : ... .. . ... : ... .. . ...
ROW 0A : B-3 00 4 ... ... : ... .. . ... ... : --- .. . ... : E-# 0E . ... : ... .. . F03
ROW 0B : ... .. . ... ... : A-3 00 . 300 ... : ... .. . ... : ... .. . ... : ... .. . ...
ROW 0C : A#3 00 3 V01 ... : A#3 00 . ... ... : G-1 0B . ... : E-# 1C A ... : ... .. . F05
ROW 0D : B-3 00 4 ... ... : B-3 00 . ... ... : ... .. . ... : ... .. . ... : ... .. . ...
ROW 0E : G-3 00 5 ... ... : ... .. . ... ... : --- .. . ... : ... .. . ... : ... .. . F03
ROW 0F : ... .. . ... ... : A#3 00 . V01 ... : ... .. . ... : ... .. . ... : ... .. . ...
ROW 10 : F#3 01 5 ... ... : B-3 00 . ... ... : D-1 0B . ... : E-# 1C 3 ... : ... .. . F05
ROW 11 : ... .. . ... ... : G-3 00 . ... ... : ... .. . ... : ... .. . ... : ... .. . ...
ROW 12 : G-3 01 3 ... ... : ... .. . ... ... : --- .. . ... : E-# 1C 7 ... : ... .. . F03
ROW 13 : ... .. . ... ... : F#3 01 . ... ... : ... .. . ... : ... .. . ... : ... .. . ...
ROW 14 : F#3 01 1 ... ... : ... .. . ... ... : F-1 0B . ... : E-# 0E A ... : ... .. . F05
ROW 15 : ... .. . ... ... : G-3 01 . ... ... : ... .. . ... : ... .. . ... : ... .. . ...
ROW 16 : G-3 01 . ... ... : ... .. . ... ... : --- .. . ... : E-# 1C A ... : ... .. . F03
ROW 17 : ... .. . ... ... : F#3 01 . ... ... : ... .. . ... : ... .. . ... : ... .. . ...
ROW 18 : F#3 01 1 ... ... : ... .. . ... ... : F#1 0B . ... : E-# 1C A ... : ... .. . F05
ROW 19 : ... .. . ... ... : G-3 01 . ... ... : ... .. . ... : ... .. . ... : ... .. . ...
ROW 1A : B-3 01 2 ... ... : ... .. . ... ... : --- .. . ... : F-# 1C 4 ... : ... .. . F03
ROW 1B : ... .. . ... ... : F#3 01 . ... ... : ... .. . ... : ... .. . ... : ... .. . ...
ROW 1C : F#3 01 3 ... ... : ... .. . ... ... : C#1 0B . ... : E-# 1C A ... : ... .. . F05
ROW 1D : ... .. . ... ... : B-3 01 . ... ... : ... .. . ... : ... .. . ... : ... .. . ...
ROW 1E : B-3 01 4 ... ... : ... .. . ... ... : --- .. . ... : F-# 1C 4 ... : ... .. . F03
ROW 1F : ... .. . ... ... : F#3 01 . ... ... : ... .. . ... : ... .. . ... : ... .. . ...
ROW 20 : F#3 01 5 ... ... : ... .. . ... ... : E-1 0B . ... : E-# 1C A ... : ... .. . F05
ROW 21 : ... .. . ... ... : B-3 01 . ... ... : ... .. . ... : ... .. . ... : ... .. . ...
ROW 22 : B-3 01 . ... ... : ... .. . ... ... : --- .. . ... : F-# 1C 4 ... : ... .. . F03
ROW 23 : ... .. . ... ... : F#3 01 . ... ... : ... .. . ... : ... .. . ... : ... .. . ...
ROW 24 : A#3 01 4 ... ... : ... .. . ... ... : F#1 0B . ... : E-# 0E A ... : ... .. . F05
ROW 25 : ... .. . ... ... : B-3 01 . ... ... : ... .. . ... : ... .. . ... : ... .. . ...
ROW 26 : F#3 01 . ... ... : ... .. . ... ... : --- .. . ... : F-# 1C 4 ... : ... .. . F03
ROW 27 : ... .. . ... ... : A#3 01 . ... ... : ... .. . ... : ... .. . ... : ... .. . ...
ROW 28 : A#3 01 3 ... ... : ... .. . ... ... : C#1 0B . ... : E-# 1C A ... : ... .. . F05
ROW 29 : ... .. . ... ... : F#3 01 . ... ... : ... .. . ... : ... .. . ... : ... .. . ...
ROW 2A : F#3 01 2 ... ... : ... .. . ... ... : --- .. . ... : F-# 1C 4 ... : ... .. . F03
ROW 2B : ... .. . ... ... : A#3 01 . ... ... : ... .. . ... : ... .. . ... : ... .. . ...
ROW 2C : A#3 01 1 ... ... : ... .. . ... ... : G-1 0B . ... : E-# 1C A ... : ... .. . F05
ROW 2D : ... .. . ... ... : F#3 01 . ... ... : ... .. . ... : ... .. . ... : ... .. . ...
ROW 2E : F#3 01 . ... ... : ... .. . ... ... : --- .. . ... : F-# 1C 4 ... : ... .. . F03
ROW 2F : ... .. . ... ... : A#3 01 . ... ... : ... .. . ... : ... .. . ... : ... .. . ...

PATTERN 13
ROW 00 : A-3 00 2 V00 ... : ... .. . ... ... : G#1 0B . ... : E-# 1C A ... : ... .. . F05
ROW 01 : B-3 00 3 304 ... : F#3 01 1 V00 P7F : ... .. . ... : ... .. . ... : ... .. . ...
ROW 02 : ... .. . ... ... : ... .. . ... ... : --- .. . ... : F-# 1C . ... : ... .. . F03
ROW 03 : ... .. . ... ... : A-3 00 . 300 ... : ... .. . ... : ... .. . ... : ... .. F ...
ROW 04 : A-3 00 2 300 ... : B-3 00 . 304 ... : D#1 0B . ... : E-# 1C 3 ... : ... .. . F05
ROW 05 : B-3 00 3 30A ... : ... .. . ... ... : ... .. . ... : ... .. . ... : ... .. . ...
ROW 06 : ... .. . ... ... : ... .. . ... ... : --- .. . ... : ... .. . ... : ... .. . F03
ROW 07 : ... .. . ... ... : A-3 00 . 300 ... : ... .. . ... : ... .. . ... : ... .. . ...
ROW 08 : A-3 00 3 300 ... : B-3 00 . 30A ... : F#1 0B . ... : E-# 1C A ... : ... .. . F05
ROW 09 : A#3 00 . ... ... : ... .. . ... ... : ... .. . ... : ... .. . ... : ... .. . ...
ROW 0A : B-3 00 4 ... ... : ... .. . ... ... : --- .. . ... : E-# 0E . ... : ... .. . F03
ROW 0B : ... .. . ... ... : A-3 00 . 300 ... : ... .. . ... : ... .. . ... : ... .. . ...
ROW 0C : A#3 00 3 V01 ... : A#3 00 . ... ... : G-1 0B . ... : E-# 1C A ... : ... .. . F05
ROW 0D : B-3 00 4 ... ... : B-3 00 . ... ... : ... .. . ... : ... .. . ... : ... .. . ...
ROW 0E : G-3 00 5 ... ... : ... .. . ... ... : --- .. . ... : ... .. . ... : ... .. . F03
ROW 0F : ... .. . ... ... : A#3 00 . V01 ... : ... .. . ... : ... .. . ... : ... .. . ...
ROW 10 : F#3 01 5 ... ... : B-3 00 . ... ... : D-1 0B . ... : E-# 1C 3 ... : ... .. . F05
ROW 11 : ... .. . ... ... : G-3 00 . ... ... : ... .. . ... : ... .. . ... : ... .. . ...
ROW 12 : G-3 01 3 ... ... : ... .. . ... ... : --- .. . ... : E-# 1C 7 ... : ... .. . F03
ROW 13 : ... .. . ... ... : F#3 01 . ... ... : ... .. . ... : ... .. . ... : ... .. . ...
ROW 14 : F#3 01 1 ... ... : ... .. . ... ... : F-1 0B . ... : E-# 0E A ... : ... .. . F05
ROW 15 : ... .. . ... ... : G-3 01 . ... ... : ... .. . ... : ... .. . ... : ... .. . ...
ROW 16 : G-3 01 . ... ... : ... .. . ... ... : --- .. . ... : E-# 1C A ... : ... .. . F03
ROW 17 : ... .. . ... ... : F#3 01 . ... ... : ... .. . ... : ... .. . ... : ... .. . ...
ROW 18 : F#3 01 1 ... ... : ... .. . ... ... : F#1 0B . ... : E-# 1C A ... : ... .. . F05
ROW 19 : ... .. . ... ... : G-3 01 . ... ... : ... .. . ... : ... .. . ... : ... .. . ...
ROW 1A : B-3 01 2 ... ... : ... .. . ... ... : --- .. . ... : F-# 1C 4 ... : ... .. . F03
ROW 1B : ... .. . ... ... : F#3 01 . ... ... : ... .. . ... : ... .. . ... : ... .. . ...
ROW 1C : F#3 01 3 ... ... : ... .. . ... ... : C#1 0B . ... : E-# 1C A ... : ... .. . F05
ROW 1D : ... .. . ... ... : B-3 01 . ... ... : ... .. . ... : ... .. . ... : ... .. . ...
ROW 1E : B-3 01 4 ... ... : ... .. . ... ... : --- .. . ... : F-# 1C 4 ... : ... .. . F03
ROW 1F : ... .. . ... ... : F#3 01 . ... ... : ... .. . ... : ... .. . ... : ... .. . ...
ROW 20 : F#3 01 5 ... ... : ... .. . ... ... : E-1 0B . ... : E-# 1C A ... : ... .. . F05
ROW 21 : ... .. . ... ... : B-3 01 . ... ... : ... .. . ... : ... .. . ... : ... .. . ...
ROW 22 : B-3 01 . ... ... : ... .. . ... ... : --- .. . ... : F-# 1C 4 ... : ... .. . F03
ROW 23 : ... .. . ... ... : F#3 01 . ... ... : ... .. . ... : ... .. . ... : ... .. . ...
ROW 24 : A#3 01 4 ... ... : ... .. . ... ... : F#1 0B . ... : E-# 0E A ... : ... .. . F05
ROW 25 : ... .. . ... ... : B-3 01 . ... ... : ... .. . ... : ... .. . ... : ... .. . ...
ROW 26 : F#3 01 . ... ... : ... .. . ... ... : --- .. . ... : F-# 1C 4 ... : ... .. . F03
ROW 27 : ... .. . ... ... : A#3 01 . ... ... : ... .. . ... : ... .. . ... : ... .. . ...
ROW 28 : A#3 01 3 ... ... : ... .. . ... ... : C#1 0B . ... : E-# 1C A ... : ... .. . F05
ROW 29 : ... .. . ... ... : ... .. . ... ... : ... .. . ... : ... .. . ... : ... .. . ...
ROW 2A : F#3 01 2 ... ... : F#3 04 4 V01 P7F : --- .. . ... : F-# 1C 4 ... : ... .. . F03
ROW 2B : ... .. . ... ... : ... .. . ... ... : ... .. . ... : ... .. . ... : ... .. . ...
ROW 2C : A#3 01 1 ... ... : G#3 04 5 P80 ... : G-1 0B . ... : E-# 1C A ... : ... .. . F05
ROW 2D : ... .. . ... ... : ... .. . ... ... : ... .. . ... : ... .. . ... : ... .. . ...
ROW 2E : F#3 01 . ... ... : B-3 04 6 ... ... : --- .. . ... : F-# 1C 4 ... : ... .. . F03
ROW 2F : ... .. . ... ... : ... .. . ... ... : ... .. . ... : ... .. . ... : ... .. . ...

PATTERN 14
ROW 00 : G#3 04 8 V01 200 : G#2 05 1 V02 ... : G#1 0B . ... : E-# 1C A ... : ... .. . F05
ROW 01 : ... .. . ... ... : ... .. . ... ... : ... .. . ... : ... .. . ... : ... .. . ...
ROW 02 : ... .. . 202 ... : ... .. 2 V01 ... : --- .. . ... : F-# 1C . ... : ... .. . F03
ROW 03 : ... .. . 204 ... : ... .. . ... ... : ... .. . ... : ... .. . ... : ... .. F ...
ROW 04 : --- .. . 200 ... : ... .. 3 V00 ... : D#1 0B . ... : E-# 1C 3 ... : ... .. . F05
ROW 05 : ... .. . ... ... : ... .. . ... ... : ... .. . ... : ... .. . ... : ... .. . ...
ROW 06 : G#3 04 . 200 ... : ... .. 4 ... ... : --- .. . ... : ... .. . ... : ... .. . F03
ROW 07 : ... .. . ... ... : ... .. . ... ... : ... .. . ... : ... .. . ... : ... .. . ...
ROW 08 : C#4 04 . ... ... : ... .. 3 ... ... : F#1 0B . ... : E-# 1C A ... : ... .. . F05
ROW 09 : ... .. . ... ... : ... .. . ... ... : ... .. . ... : ... .. . ... : ... .. . ...
ROW 0A : D#4 04 . ... ... : ... .. 2 ... ... : --- .. . ... : E-# 0E . ... : ... .. . F03
ROW 0B : ... .. . ... ... : ... .. . ... ... : ... .. . ... : ... .. . ... : ... .. . ...
ROW 0C : B-3 04 . ... ... : G#2 06 1 V02 ... : G-1 0B . ... : E-# 1C A ... : ... .. . F05
ROW 0D : ... .. . ... ... : ... .. . ... ... : ... .. . ... : ... .. . ... : ... .. . ...
ROW 0E : ... .. . 20F ... : ... .. 2 V01 ... : --- .. . ... : ... .. . ... : ... .. . F03
ROW 0F : ... .. . ... ... : ... .. . ... ... : ... .. . ... : ... .. . ... : ... .. . ...
ROW 10 : G#3 04 . 200 ... : ... .. 3 V00 ... : B-1 0B . ... : E-# 1C 3 ... : ... .. . F05
ROW 11 : ... .. . ... ... : ... .. . ... ... : ... .. . ... : ... .. . ... : ... .. . ...
ROW 12 : ... .. . ... ... : ... .. 4 ... ... : --- .. . ... : E-# 1C 7 ... : ... .. . F03
ROW 13 : ... .. . ... ... : ... .. . ... ... : ... .. . ... : ... .. . ... : ... .. . ...
ROW 14 : B-3 04 . ... ... : ... .. 3 ... ... : G-1 0B . ... : E-# 0E A ... : ... .. . F05
ROW 15 : ... .. . ... ... : ... .. . ... ... : ... .. . ... : ... .. . ... : ... .. . ...
ROW 16 : ... .. . ... ... : ... .. 2 ... ... : --- .. . ... : E-# 1C A ... : ... .. . F03
ROW 17 : ... .. . ... ... : ... .. . ... ... : ... .. . ... : ... .. . ... : ... .. . ...
ROW 18 : C#4 04 . ... ... : F#2 07 1 V02 ... : F#1 0B . ... : E-# 1C A ... : ... .. . F05
ROW 19 : B-3 04 . ... ... : ... .. . ... ... : ... .. . ... : ... .. . ... : ... .. . ...
ROW 1A : G#3 04 . ... ... : ... .. 2 V01 ... : --- .. . ... : F-# 1C 4 ... : ... .. . F03
ROW 1B : ... .. . ... ... : ... .. . ... ... : ... .. . ... : ... .. . ... : ... .. . ...
ROW 1C : F#3 04 . S08 ... : ... .. 3 V00 ... : D-1 0B . ... : E-# 1C A ... : ... .. . F05
ROW 1D : ... .. . ... ... : ... .. . ... ... : ... .. . ... : ... .. . ... : ... .. . ...
ROW 1E : F#3 04 . S04 ... : ... .. 4 ... ... : --- .. . ... : F-# 1C 4 ... : ... .. . F03
ROW 1F : ... .. . ... ... : ... .. . ... ... : ... .. . ... : ... .. . ... : ... .. . ...
ROW 20 : G#3 04 . ... ... : ... .. 3 ... ... : E-1 0B . ... : E-# 1C A ... : ... .. . F05
ROW 21 : ... .. . ... ... : ... .. . ... ... : ... .. . ... : ... .. . ... : ... .. . ...
ROW 22 : ... .. . ... ... : ... .. . ... ... : --- .. . ... : F-# 1C 4 ... : ... .. . F03
ROW 23 : ... .. . ... ... : ... .. . ... ... : ... .. . ... : ... .. . ... : ... .. . ...
ROW 24 : B-3 04 6 ... ... : ... .. 2 ... ... : F-1 0B . ... : E-# 0E A ... : ... .. . F05
ROW 25 : ... .. . ... ... : ... .. . ... ... : ... .. . ... : ... .. . ... : ... .. . ...
ROW 26 : ... .. . ... ... : ... .. . ... ... : --- .. . ... : F-# 1C 4 ... : ... .. . F03
ROW 27 : ... .. . ... ... : ... .. . ... ... : ... .. . ... : ... .. . ... : ... .. . ...
ROW 28 : A#3 04 6 ... ... : ... .. 1 ... ... : F#1 0B . ... : E-# 1C A ... : ... .. . F05
ROW 29 : B-3 04 4 S04 ... : ... .. . ... ... : ... .. . ... : ... .. . ... : ... .. . ...
ROW 2A : B-3 04 7 ... ... : ... .. . ... ... : --- .. . ... : F-# 1C 4 ... : ... .. . F03
ROW 2B : ... .. . ... ... : ... .. . ... ... : ... .. . ... : ... .. . ... : ... .. . ...
ROW 2C : G#3 04 8 ... ... : ... .. . ... ... : G-1 0B . ... : E-# 1C A ... : ... .. . F05
ROW 2D : ... .. . ... ... : ... .. . ... ... : ... .. . ... : ... .. . ... : ... .. . ...
ROW 2E : F#3 04 6 ... ... : ... .. . ... ... : --- .. . ... : F-# 1C 4 ... : ... .. . F03
ROW 2F : ... .. . ... ... : ... .. . ... ... : ... .. . ... : ... .. . ... : ... .. . ...

PATTERN 15
ROW 00 : G#3 04 8 V01 200 : G#2 05 1 V02 ... : G#1 0B . ... : E-# 1C A ... : ... .. . F05
ROW 01 : ... .. . ... ... : ... .. . ... ... : ... .. . ... : ... .. . ... : ... .. . ...
ROW 02 : ... .. . 202 ... : ... .. 2 V01 ... : --- .. . ... : F-# 1C . ... : ... .. . F03
ROW 03 : ... .. . 204 ... : ... .. . ... ... : ... .. . ... : ... .. . ... : ... .. F ...
ROW 04 : --- .. . 200 ... : ... .. 3 V00 ... : D#1 0B . ... : E-# 1C 3 ... : ... .. . F05
ROW 05 : ... .. . ... ... : ... .. . ... ... : ... .. . ... : ... .. . ... : ... .. . ...
ROW 06 : G#3 04 6 200 ... : ... .. 4 ... ... : --- .. . ... : ... .. . ... : ... .. . F03
ROW 07 : ... .. . ... ... : ... .. . ... ... : ... .. . ... : ... .. . ... : ... .. . ...
ROW 08 : C#4 04 7 ... ... : ... .. 3 ... ... : F#1 0B . ... : E-# 1C A ... : ... .. . F05
ROW 09 : ... .. . ... ... : ... .. . ... ... : ... .. . ... : ... .. . ... : ... .. . ...
ROW 0A : D#4 04 8 ... ... : ... .. 2 ... ... : --- .. . ... : E-# 0E . ... : ... .. . F03
ROW 0B : ... .. . ... ... : ... .. . ... ... : ... .. . ... : ... .. . ... : ... .. . ...
ROW 0C : B-3 04 . ... ... : G#2 06 1 V02 ... : G-1 0B . ... : E-# 1C A ... : ... .. . F05
ROW 0D : ... .. . ... ... : ... .. . ... ... : ... .. . ... : ... .. . ... : ... .. . ...
ROW 0E : ... .. . 20F ... : ... .. 2 V01 ... : --- .. . ... : ... .. . ... : ... .. . F03
ROW 0F : ... .. . ... ... : ... .. . ... ... : ... .. . ... : ... .. . ... : ... .. . ...
ROW 10 : --- .. . ... ... : ... .. 3 V00 ... : B-1 0B . ... : E-# 1C 3 ... : ... .. . F05
ROW 11 : ... .. . ... ... : ... .. . ... ... : ... .. . ... : ... .. . ... : ... .. . ...
ROW 12 : B-3 04 . 200 ... : ... .. 4 ... ... : --- .. . ... : E-# 1C 7 ... : ... .. . F03
ROW 13 : ... .. . ... ... : ... .. . ... ... : ... .. . ... : ... .. . ... : ... .. . ...
ROW 14 : C#4 04 . ... ... : ... .. 3 ... ... : G-1 0B . ... : E-# 0E A ... : ... .. . F05
ROW 15 : ... .. . ... ... : ... .. . ... ... : ... .. . ... : ... .. . ... : ... .. . ...
ROW 16 : F#4 04 . ... ... : ... .. 2 ... ... : --- .. . ... : E-# 1C A ... : ... .. . F03
ROW 17 : ... .. . ... ... : ... .. . ... ... : ... .. . ... : ... .. . ... : ... .. . ...
ROW 18 : D#4 04 . ... ... : F#2 07 1 V02 ... : F#1 0B . ... : E-# 1C A ... : ... .. . F05
ROW 19 : ... .. . ... ... : ... .. . ... ... : ... .. . ... : ... .. . ... : ... .. . ...
ROW 1A : ... .. . 20F ... : ... .. 2 V01 ... : --- .. . ... : F-# 1C 4 ... : ... .. . F03
ROW 1B : ... .. . ... ... : ... .. . ... ... : ... .. . ... : ... .. . ... : ... .. . ...
ROW 1C : B-3 04 . 200 ... : ... .. 3 V00 ... : D-1 0B . ... : E-# 1C A ... : ... .. . F05
ROW 1D : ... .. . ... ... : ... .. . ... ... : ... .. . ... : ... .. . ... : ... .. . ...
ROW 1E : ... .. . 453 ... : ... .. 4 ... ... : --- .. . ... : F-# 1C 4 ... : ... .. . F03
ROW 1F : ... .. . ... ... : ... .. . ... ... : ... .. . ... : ... .. . ... : ... .. . ...
ROW 20 : ... .. . ... ... : ... .. 3 ... ... : E-1 0B . ... : E-# 1C A ... : ... .. . F05
ROW 21 : ... .. . ... ... : ... .. . ... ... : ... .. . ... : ... .. . ... : ... .. . ...
ROW 22 : B-3 04 . 400 ... : ... .. . ... ... : --- .. . ... : F-# 1C 4 ... : ... .. . F03
ROW 23 : ... .. . ... ... : ... .. . ... ... : ... .. . ... : ... .. . ... : ... .. . ...
ROW 24 : C#4 04 . ... ... : ... .. 2 ... ... : F-1 0B . ... : E-# 0E A ... : ... .. . F05
ROW 25 : ... .. . ... ... : ... .. . ... ... : ... .. . ... : ... .. . ... : ... .. . ...
ROW 26 : --- .. . ... ... : ... .. . ... ... : --- .. . ... : F-# 1C 4 ... : ... .. . F03
ROW 27 : ... .. . ... ... : ... .. . ... ... : ... .. . ... : ... .. . ... : ... .. . ...
ROW 28 : G#3 04 . ... ... : ... .. 1 ... ... : F#1 0B . ... : E-# 1C A ... : ... .. . F05
ROW 29 : ... .. . ... ... : ... .. . ... ... : ... .. . ... : ... .. . ... : ... .. . ...
ROW 2A : ... .. . 453 ... : ... .. . ... ... : --- .. . ... : F-# 1C 4 ... : ... .. . F03
ROW 2B : ... .. . ... ... : ... .. . ... ... : ... .. . ... : ... .. . ... : ... .. . ...
ROW 2C : ... .. . ... ... : ... .. . ... ... : G-1 0B . ... : E-# 1C A ... : ... .. . F05
ROW 2D : ... .. . ... ... : ... .. . ... ... : ... .. . ... : ... .. . ... : ... .. . ...
ROW 2E : ... .. . ... ... : ... .. . ... ... : --- .. . ... : F-# 1C 4 ... : ... .. . F03
ROW 2F : ... .. . ... ... : ... .. . ... ... : ... .. . ... : ... .. . ... : ... .. . ...

PATTERN 16
ROW 00 : G#3 04 8 V01 400 : D-2 0C 1 V02 ... : G#1 0B . ... : E-# 1C A ... : ... .. . F05
ROW 01 : ... .. . ... ... : ... .. . ... ... : ... .. . ... : ... .. . ... : ... .. . ...
ROW 02 : ... .. . ... ... : ... .. 2 V01 ... : --- .. . ... : F-# 1C . ... : ... .. . F03
ROW 03 : ... .. . 453 ... : ... .. . ... ... : ... .. . ... : ... .. . ... : ... .. F ...
ROW 04 : ... .. . ... ... : ... .. 3 V00 ... : A-1 0B . ... : E-# 1C 3 ... : ... .. . F05
ROW 05 : ... .. . ... ... : ... .. . ... ... : ... .. . ... : ... .. . ... : ... .. . ...
ROW 06 : G#3 04 . 400 ... : ... .. 4 ... ... : --- .. . ... : ... .. . ... : ... .. . F03
ROW 07 : ... .. . ... ... : ... .. . ... ... : ... .. . ... : ... .. . ... : ... .. . ...
ROW 08 : C#4 04 . ... ... : ... .. 3 ... ... : F#1 0B . ... : E-# 1C A ... : ... .. . F05
ROW 09 : ... .. . ... ... : ... .. . ... ... : ... .. . ... : ... .. . ... : ... .. . ...
ROW 0A : D#4 04 . ... ... : ... .. 2 ... ... : --- .. . ... : E-# 0E . ... : ... .. . F03
ROW 0B : A#3 04 6 G03 ... : ... .. . ... ... : ... .. . ... : ... .. . ... : ... .. . ...
ROW 0C : B-3 04 7 305 G02 : D-2 0C 1 V02 ... : D-1 0B . ... : E-# 1C A ... : ... .. . F05
ROW 0D : ... .. . ... ... : ... .. . ... ... : ... .. . ... : ... .. . ... : ... .. . ...
ROW 0E : ... .. . ... ... : ... .. 2 V01 ... : --- .. . ... : ... .. . ... : ... .. . F03
ROW 0F : ... .. . 453 ... : ... .. . ... ... : ... .. . ... : ... .. . ... : ... .. . ...
ROW 10 : ... .. . ... ... : ... .. 3 V00 ... : B-1 0B . ... : E-# 1C 3 ... : ... .. . F05
ROW 11 : ... .. . ... ... : ... .. . ... ... : ... .. . ... : ... .. . ... : ... .. . ...
ROW 12 : B-3 04 7 400 300 : ... .. 4 ... ... : --- .. . ... : E-# 1C 7 ... : ... .. . F03
ROW 13 : ... .. . ... ... : ... .. . ... ... : ... .. . ... : ... .. . ... : ... .. . ...
ROW 14 : C#4 04 8 ... ... : ... .. 3 ... ... : A-1 0B . ... : E-# 0E A ... : ... .. . F05
ROW 15 : ... .. . ... ... : ... .. . ... ... : ... .. . ... : ... .. . ... : ... .. . ...
ROW 16 : F#4 04 . ... ... : ... .. 2 ... ... : --- .. . ... : E-# 1C A ... : ... .. . F03
ROW 17 : D-4 04 . G03 ... : ... .. . ... ... : ... .. . ... : ... .. . ... : ... .. . ...
ROW 18 : D#4 04 . G02 ... : E-2 0C 1 V02 ... : G#1 0B . ... : E-# 1C A ... : ... .. . F05
ROW 19 : ... .. . ... ... : ... .. . ... ... : ... .. . ... : ... .. . ... : ... .. . ...
ROW 1A : ... .. . ... ... : ... .. 2 V01 ... : --- .. . ... : F-# 1C 4 ... : ... .. . F03
ROW 1B : ... .. . 453 ... : ... .. . ... ... : ... .. . ... : ... .. . ... : ... .. . ...
ROW 1C : ... .. . ... ... : ... .. 3 V00 ... : B-1 0B . ... : E-# 1C A ... : ... .. . F05
ROW 1D : ... .. . ... ... : ... .. . ... ... : ... .. . ... : ... .. . ... : ... .. . ...
ROW 1E : C#4 04 7 400 ... : ... .. 4 ... ... : --- .. . ... : F-# 1C 4 ... : ... .. . F03
ROW 1F : ... .. . ... ... : ... .. . ... ... : ... .. . ... : ... .. . ... : ... .. . ...
ROW 20 : D#4 04 8 ... ... : ... .. 3 ... ... : G#1 0B . ... : E-# 1C A ... : ... .. . F05
ROW 21 : ... .. . ... ... : ... .. . ... ... : ... .. . ... : ... .. . ... : ... .. . ...
ROW 22 : E-4 04 . ... ... : ... .. . ... ... : --- .. . ... : F-# 1C 4 ... : ... .. . F03
ROW 23 : ... .. . ... ... : ... .. . ... ... : ... .. . ... : ... .. . ... : ... .. . ...
ROW 24 : G#4 04 . ... ... : ... .. 2 ... ... : E-1 0B . ... : E-# 0E A ... : ... .. . F05
ROW 25 : ... .. . ... ... : ... .. . ... ... : ... .. . ... : ... .. . ... : ... .. . ...
ROW 26 : ... .. . 20F ... : ... .. . ... ... : --- .. . ... : F-# 1C 4 ... : ... .. . F03
ROW 27 : ... .. . ... ... : ... .. . ... ... : ... .. . ... : ... .. . ... : ... .. . ...
ROW 28 : D#4 04 . 200 ... : F#3 00 2 V01 ... : D#1 0B . ... : E-# 1C A ... : ... .. . F05
ROW 29 : ... .. . ... ... : ... .. 3 ... ... : ... .. . ... : ... .. . ... : ... .. . ...
ROW 2A : ... .. . 453 ... : ... .. 4 ... ... : --- .. . ... : F-# 1C 4 ... : ... .. . F03
ROW 2B : ... .. . ... ... : ... .. . ... ... : ... .. . ... : ... .. . ... : ... .. . ...
ROW 2C : ... .. 7 ... ... : G#3 00 2 ... ... : E-1 0B . ... : E-# 1C A ... : ... .. . F05
ROW 2D : ... .. 6 ... ... : ... .. 3 ... ... : ... .. . ... : ... .. . ... : ... .. . ...
ROW 2E : ... .. 5 ... ... : ... .. 4 ... ... : --- .. . ... : F-# 1C 4 ... : ... .. . F03
ROW 2F : ... .. 4 ... ... : ... .. . ... ... : ... .. . ... : ... .. . ... : ... .. . ...

PATTERN 17
ROW 00 : A-3 00 1 V01 400 : F-2 0C 1 V02 ... : F-1 17 . ... : E-# 1C A ... : ... .. . F05
ROW 01 : ... .. 2 ... ... : ... .. . ... ... : ... .. . ... : ... .. . ... : ... .. . ...
ROW 02 : ... .. 3 ... ... : ... .. 2 V01 ... : --- .. . ... : F-# 1C . ... : ... .. . F03
ROW 03 : ... .. 4 ... ... : ... .. . ... ... : ... .. . ... : ... .. . ... : ... .. F ...
ROW 04 : ... .. 5 ... ... : ... .. 3 V00 ... : F-2 0B . ... : E-# 1C 3 ... : ... .. . F05
ROW 05 : ... .. 6 ... ... : ... .. . ... ... : ... .. . ... : ... .. . ... : ... .. . ...
ROW 06 : ... .. . 452 ... : ... .. 4 ... ... : --- .. . ... : ... .. . ... : ... .. . F03
ROW 07 : ... .. . ... ... : ... .. . ... ... : ... .. . ... : ... .. . ... : ... .. . ...
ROW 08 : ... .. 4 ... ... : ... .. 3 ... ... : A-1 0B . ... : E-# 1C A ... : ... .. . F05
ROW 09 : ... .. . ... ... : ... .. . ... ... : ... .. . ... : ... .. . ... : ... .. . ...
ROW 0A : ... .. 3 ... ... : ... .. 2 ... ... : --- .. . ... : E-# 0E . ... : ... .. . F03
ROW 0B : ... .. . ... ... : ... .. . ... ... : ... .. . ... : ... .. . ... : ... .. . ...
ROW 0C : G-3 00 1 400 ... : F-2 0C 1 V02 ... : F-1 0B . ... : E-# 1C A ... : ... .. . F05
ROW 0D : ... .. 2 ... ... : ... .. . ... ... : ... .. . ... : ... .. . ... : ... .. . ...
ROW 0E : ... .. 3 ... ... : ... .. 2 V01 ... : --- .. . ... : ... .. . ... : ... .. . F03
ROW 0F : ... .. 4 ... ... : ... .. . ... ... : ... .. . ... : ... .. . ... : ... .. . ...
ROW 10 : ... .. 5 ... ... : ... .. 3 V00 ... : C-1 0B . ... : E-# 1C 3 ... : ... .. . F05
ROW 11 : ... .. 6 ... ... : ... .. . ... ... : ... .. . ... : ... .. . ... : ... .. . ...
ROW 12 : ... .. . 453 ... : ... .. 4 ... ... : --- .. . ... : E-# 1C 7 ... : ... .. . F03
ROW 13 : ... .. . ... ... : ... .. . ... ... : ... .. . ... : ... .. . ... : ... .. . ...
ROW 14 : ... .. 4 ... ... : ... .. 3 ... ... : F#1 0B . ... : E-# 0E A ... : ... .. . F05
ROW 15 : ... .. . ... ... : ... .. . ... ... : ... .. . ... : ... .. . ... : ... .. . ...
ROW 16 : ... .. 3 ... ... : ... .. 2 ... ... : --- .. . ... : E-# 1C A ... : ... .. . F03
ROW 17 : ... .. . ... ... : ... .. . ... ... : ... .. . ... : ... .. . ... : ... .. . ...
ROW 18 : E-3 00 1 400 ... : G-2 0C 1 V02 ... : G-1 17 . ... : E-# 1C A ... : ... .. . F05
ROW 19 : ... .. 2 ... ... : ... .. . ... ... : ... .. . ... : ... .. . ... : ... .. . ...
ROW 1A : ... .. 3 ... ... : ... .. 2 V01 ... : --- .. . ... : F-# 1C 4 ... : ... .. . F03
ROW 1B : ... .. 4 ... ... : ... .. . ... ... : ... .. . ... : ... .. . ... : ... .. . ...
ROW 1C : ... .. 5 ... ... : ... .. 3 V00 ... : D-1 0B . ... : E-# 1C A ... : ... .. . F05
ROW 1D : ... .. . ... ... : ... .. . ... ... : ... .. . ... : ... .. . ... : ... .. . ...
ROW 1E : ... .. 6 ... ... : ... .. 4 ... ... : --- .. . ... : F-# 1C 4 ... : ... .. . F03
ROW 1F : ... .. . ... ... : ... .. . ... ... : ... .. . ... : ... .. . ... : ... .. . ...
ROW 20 : ... .. . 453 ... : ... .. 3 ... ... : F#1 0B . ... : E-# 1C A ... : ... .. . F05
ROW 21 : ... .. . ... ... : ... .. . ... ... : ... .. . ... : ... .. . ... : ... .. . ...
ROW 22 : ... .. 5 ... ... : ... .. . ... ... : --- .. . ... : F-# 1C 4 ... : ... .. . F03
ROW 23 : ... .. . ... ... : ... .. . ... ... : ... .. . ... : ... .. . ... : ... .. . ...
ROW 24 : ... .. 4 ... ... : ... .. 2 ... ... : G-1 0B . ... : E-# 0E A ... : ... .. . F05
ROW 25 : ... .. . ... ... : ... .. . ... ... : ... .. . ... : ... .. . ... : ... .. . ...
ROW 26 : ... .. . ... ... : ... .. . ... ... : --- .. . ... : F-# 1C 4 ... : ... .. . F03
ROW 27 : ... .. . ... ... : ... .. . ... ... : ... .. . ... : ... .. . ... : ... .. . ...
ROW 28 : ... .. 3 ... ... : ... .. 1 ... ... : B-1 0B . ... : E-# 1C A ... : ... .. . F05
ROW 29 : ... .. . ... ... : ... .. . ... ... : ... .. . ... : ... .. . ... : ... .. . ...
ROW 2A : ... .. . ... ... : ... .. . ... ... : --- .. . ... : F-# 1C 4 ... : ... .. . F03
ROW 2B : ... .. . ... ... : ... .. . ... ... : ... .. . ... : ... .. . ... : ... .. . ...
ROW 2C : ... .. 2 ... ... : ... .. . ... ... : D-2 0B . ... : E-# 1C A ... : ... .. . F05
ROW 2D : ... .. . ... ... : ... .. . ... ... : ... .. . ... : ... .. . ... : ... .. . ...
ROW 2E : ... .. . ... ... : ... .. . ... ... : --- .. . ... : F-# 1C 4 ... : ... .. . F03
ROW 2F : ... .. 1 ... ... : ... .. . ... ... : ... .. . ... : ... .. . ... : ... .. . ...

PATTERN 18
ROW 00 : --- .. . ... ... : --- .. . ... ... : ... .. . ... : --- .. . ... : ... .. . F05
ROW 01 : ... .. . ... ... : ... .. . ... ... : ... .. . ... : ... .. . ... : ... .. . ...
ROW 02 : ... .. . ... ... : ... .. . ... ... : ... .. . ... : ... .. . ... : ... .. . F03
ROW 03 : ... .. . ... ... : ... .. . ... ... : ... .. . ... : ... .. . ... : ... .. F ...
ROW 04 : ... .. . ... ... : ... .. . ... ... : ... .. . ... : ... .. . ... : ... .. . F05
ROW 05 : ... .. . ... ... : ... .. . ... ... : ... .. . ... : ... .. . ... : ... .. . ...
ROW 06 : ... .. . ... ... : ... .. . ... ... : ... .. . ... : ... .. . ... : ... .. . F03
ROW 07 : ... .. . ... ... : ... .. . ... ... : ... .. . ... : ... .. . ... : ... .. . ...
ROW 08 : ... .. . ... ... : ... .. . ... ... : ... .. . ... : ... .. . ... : ... .. . F05
ROW 09 : ... .. . ... ... : ... .. . ... ... : ... .. . ... : ... .. . ... : ... .. . ...
ROW 0A : ... .. . ... ... : ... .. . ... ... : ... .. . ... : ... .. . ... : ... .. . F03
ROW 0B : ... .. . ... ... : ... .. . ... ... : ... .. . ... : ... .. . ... : ... .. . ...
ROW 0C : D-3 00 1 400 V01 : B-2 00 1 400 V00 : ... .. . ... : ... .. . ... : ... .. . F05
ROW 0D : ... .. 2 ... ... : ... .. . ... ... : ... .. . ... : ... .. . ... : ... .. . ...
ROW 0E : ... .. 3 ... ... : ... .. 2 ... ... : ... .. . ... : ... .. . ... : ... .. . F03
ROW 0F : ... .. 4 ... ... : ... .. . ... ... : ... .. . ... : ... .. . ... : ... .. . ...
ROW 10 : ... .. 5 ... ... : ... .. 3 ... ... : ... .. . ... : ... .. . ... : ... .. . F05
ROW 11 : ... .. . ... ... : ... .. . ... ... : ... .. . ... : ... .. . ... : ... .. . ...
ROW 12 : ... .. 6 ... ... : ... .. . ... ... : ... .. . ... : ... .. . ... : ... .. . F03
ROW 13 : ... .. . ... ... : ... .. . ... ... : ... .. . ... : ... .. . ... : ... .. . ...
ROW 14 : ... .. 5 453 ... : ... .. 2 453 ... : ... .. . ... : ... .. . ... : ... .. . F05
ROW 15 : ... .. 4 ... ... : ... .. . ... ... : ... .. . ... : ... .. . ... : ... .. . ...
ROW 16 : ... .. . ... ... : ... .. 1 ... ... : ... .. . ... : ... .. . ... : ... .. . F03
ROW 17 : ... .. 3 ... ... : ... .. . 400 D00 : ... .. . ... : ... .. . ... : ... .. . ...
ROW 18 : ... .. . ... ... : ... .. . ... ... : ... .. . ... : ... .. . ... : ... .. . F05
ROW 19 : ... .. . ... ... : ... .. . ... ... : ... .. . ... : ... .. . ... : ... .. . ...
ROW 1A : ... .. . ... ... : ... .. . ... ... : ... .. . ... : ... .. . ... : ... .. . F03
ROW 1B : ... .. . ... ... : ... .. . ... ... : ... .. . ... : ... .. . ... : ... .. . ...
ROW 1C : ... .. . ... ... : ... .. . ... ... : ... .. . ... : ... .. . ... : ... .. . F05
ROW 1D : ... .. . ... ... : ... .. . ... ... : ... .. . ... : ... .. . ... : ... .. . ...
ROW 1E : ... .. . ... ... : ... .. . ... ... : ... .. . ... : ... .. . ... : ... .. . F03
ROW 1F : ... .. . ... ... : ... .. . ... ... : ... .. . ... : ... .. . ... : ... .. . ...
ROW 20 : ... .. . ... ... : ... .. . ... ... : ... .. . ... : ... .. . ... : ... .. . F05
ROW 21 : ... .. . ... ... : ... .. . ... ... : ... .. . ... : ... .. . ... : ... .. . ...
ROW 22 : ... .. . ... ... : ... .. . ... ... : ... .. . ... : ... .. . ... : ... .. . F03
ROW 23 : ... .. . ... ... : ... .. . ... ... : ... .. . ... : ... .. . ... : ... .. . ...
ROW 24 : ... .. . ... ... : ... .. . ... ... : ... .. . ... : ... .. . ... : ... .. . F05
ROW 25 : ... .. . ... ... : ... .. . ... ... : ... .. . ... : ... .. . ... : ... .. . ...
ROW 26 : ... .. . ... ... : ... .. . ... ... : ... .. . ... : ... .. . ... : ... .. . F03
ROW 27 : ... .. . ... ... : ... .. . ... ... : ... .. . ... : ... .. . ... : ... .. . ...
ROW 28 : ... .. . ... ... : ... .. . ... ... : ... .. . ... : ... .. . ... : ... .. . F05
ROW 29 : ... .. . ... ... : ... .. . ... ... : ... .. . ... : ... .. . ... : ... .. . ...
ROW 2A : ... .. . ... ... : ... .. . ... ... : ... .. . ... : ... .. . ... : ... .. . F03
ROW 2B : ... .. . ... ... : ... .. . ... ... : ... .. . ... : ... .. . ... : ... .. . ...
ROW 2C : ... .. . ... ... : ... .. . ... ... : ... .. . ... : ... .. . ... : ... .. . F05
ROW 2D : ... .. . ... ... : ... .. . ... ... : ... .. . ... : ... .. . ... : ... .. . ...
ROW 2E : ... .. . ... ... : ... .. . ... ... : ... .. . ... : ... .. . ... : ... .. . F03
ROW 2F : ... .. . ... ... : ... .. . ... ... : ... .. . ... : ... .. . ... : ... .. . ...

PATTERN 19
ROW 00 : C#3 00 1 V01 400 : C-3 0C 1 V02 ... : ... .. . ... : ... .. . ... : ... .. . F05
ROW 01 : ... .. 2 ... ... : C#3 0C . ... ... : ... .. . ... : ... .. . ... : ... .. . ...
ROW 02 : ... .. 3 ... ... : D-3 0C . ... ... : ... .. . ... : ... .. . ... : ... .. . F03
ROW 03 : ... .. 4 ... ... : ... .. . ... ... : ... .. . ... : ... .. . ... : ... .. . ...
ROW 04 : ... .. 5 ... ... : ... .. . V01 ... : ... .. . ... : ... .. . ... : ... .. . F05
ROW 05 : ... .. . ... ... : ... .. . ... ... : ... .. . ... : ... .. . ... : ... .. . ...
ROW 06 : ... .. 4 ... ... : ... .. . ... ... : ... .. . ... : ... .. . ... : ... .. . F03
ROW 07 : ... .. . ... ... : ... .. . ... ... : ... .. . ... : ... .. . ... : ... .. . ...
ROW 08 : ... .. . 453 ... : ... .. . V00 ... : ... .. . ... : ... .. . ... : ... .. . F05
ROW 09 : ... .. . ... ... : ... .. . ... ... : ... .. . ... : ... .. . ... : ... .. . ...
ROW 0A : ... .. 3 ... ... : ... .. . ... ... : ... .. . ... : ... .. . ... : ... .. . F03
ROW 0B : ... .. . ... ... : ... .. . ... ... : ... .. . ... : ... .. . ... : ... .. . ...
ROW 0C : ... .. . ... ... : ... .. . V02 ... : ... .. . ... : ... .. . ... : ... .. . F05
ROW 0D : ... .. . ... ... : ... .. . ... ... : ... .. . ... : ... .. . ... : ... .. . ...
ROW 0E : ... .. . ... ... : ... .. . ... ... : ... .. . ... : ... .. . ... : ... .. . F03
ROW 0F : ... .. . ... ... : ... .. . ... ... : ... .. . ... : ... .. . ... : ... .. . ...
ROW 10 : ... .. 2 ... ... : ... .. . V01 ... : ... .. . ... : ... .. . ... : ... .. . F05
ROW 11 : ... .. . ... ... : ... .. . ... ... : ... .. . ... : ... .. . ... : ... .. . ...
ROW 12 : ... .. . ... ... : ... .. . ... ... : ... .. . ... : ... .. . ... : ... .. . F03
ROW 13 : ... .. . ... ... : ... .. . ... ... : ... .. . ... : ... .. . ... : ... .. . ...
ROW 14 : ... .. 1 ... ... : ... .. . V00 ... : ... .. . ... : ... .. . ... : ... .. . F05
ROW 15 : ... .. . ... ... : ... .. . ... ... : ... .. . ... : ... .. . ... : ... .. . ...
ROW 16 : ... .. . ... ... : ... .. . ... ... : ... .. . ... : ... .. . ... : ... .. . F03
ROW 17 : ... .. . ... ... : ... .. . ... ... : ... .. . ... : ... .. . ... : ... .. . ...
ROW 18 : ... .. . 203 ... : ... .. . V02 ... : ... .. . ... : ... .. . ... : ... .. . F05
ROW 19 : ... .. . 206 ... : ... .. . ... ... : ... .. . ... : ... .. . ... : ... .. . ...
ROW 1A : --- .. . 200 400 : ... .. . ... ... : ... .. . ... : ... .. . ... : ... .. . F03
ROW 1B : ... .. . ... ... : ... .. . ... ... : ... .. . ... : ... .. . ... : ... .. . ...
ROW 1C : ... .. . ... ... : ... .. . V01 ... : ... .. . ... : ... .. . ... : ... .. . F05
ROW 1D : ... .. . ... ... : ... .. . ... ... : ... .. . ... : ... .. . ... : ... .. . ...
ROW 1E : ... .. . ... ... : ... .. . ... ... : ... .. . ... : ... .. . ... : ... .. . F03
ROW 1F : ... .. . ... ... : ... .. . ... ... : ... .. . ... : ... .. . ... : ... .. . ...
ROW 20 : ... .. . ... ... : ... .. . V00 ... : ... .. . ... : ... .. . ... : ... .. . F05
ROW 21 : ... .. . ... ... : ... .. . ... ... : ... .. . ... : ... .. . ... : ... .. . ...
ROW 22 : ... .. . ... ... : ... .. . ... ... : ... .. . ... : ... .. . ... : ... .. . F03
ROW 23 : ... .. . ... ... : ... .. . ... ... : ... .. . ... : ... .. . ... : ... .. . ...
ROW 24 : ... .. . ... ... : ... .. . V02 ... : ... .. . ... : ... .. . ... : ... .. . F05
ROW 25 : ... .. . ... ... : ... .. . ... ... : ... .. . ... : ... .. . ... : ... .. . ...
ROW 26 : ... .. . ... ... : ... .. . ... ... : ... .. . ... : ... .. . ... : ... .. . F03
ROW 27 : ... .. . ... ... : ... .. . ... ... : ... .. . ... : ... .. . ... : ... .. . ...
ROW 28 : ... .. . ... ... : ... .. . V01 ... : ... .. . ... : ... .. . ... : ... .. . F05
ROW 29 : ... .. . ... ... : ... .. . ... ... : ... .. . ... : ... .. . ... : ... .. . ...
ROW 2A : ... .. . ... ... : ... .. . ... ... : ... .. . ... : ... .. . ... : ... .. . F03
ROW 2B : ... .. . ... ... : ... .. . ... ... : ... .. . ... : ... .. . ... : ... .. . ...
ROW 2C : ... .. . ... ... : ... .. . V00 ... : ... .. . ... : ... .. . ... : ... .. . F05
ROW 2D : ... .. . ... ... : ... .. . ... ... : ... .. . ... : ... .. . ... : ... .. . ...
ROW 2E : ... .. . ... ... : ... .. . ... ... : ... .. . ... : ... .. . ... : ... .. . F03
ROW 2F : ... .. . ... ... : ... .. . ... ... : ... .. . ... : ... .. . ... : ... .. . ...

PATTERN 1A
ROW 00 : --- .. . ... ... : D-3 0C 1 V02 ... : ... .. . ... : ... .. . ... : ... .. . F05
ROW 01 : ... .. . ... ... : ... .. . ... ... : ... .. . ... : ... .. . ... : ... .. . ...
ROW 02 : ... .. . ... ... : ... .. . ... ... : ... .. . ... : ... .. . ... : ... .. . F03
ROW 03 : ... .. . ... ... : ... .. . ... ... : ... .. . ... : ... .. . ... : ... .. . ...
ROW 04 : ... .. . ... ... : ... .. . V01 ... : ... .. . ... : ... .. . ... : ... .. . F05
ROW 05 : ... .. . ... ... : ... .. . ... ... : ... .. . ... : ... .. . ... : ... .. . ...
ROW 06 : ... .. . ... ... : ... .. . ... ... : ... .. . ... : ... .. . ... : ... .. . F03
ROW 07 : ... .. . ... ... : ... .. . ... ... : ... .. . ... : ... .. . ... : ... .. . ...
ROW 08 : ... .. . ... ... : ... .. . V00 ... : ... .. . ... : ... .. . ... : ... .. . F05
ROW 09 : ... .. . ... ... : ... .. . ... ... : ... .. . ... : ... .. . ... : ... .. . ...
ROW 0A : ... .. . ... ... : ... .. . ... ... : ... .. . ... : ... .. . ... : ... .. . F03
ROW 0B : ... .. . ... ... : ... .. . ... ... : ... .. . ... : ... .. . ... : ... .. . ...
ROW 0C : A-3 00 1 V00 ... : ... .. . ... ... : ... .. . ... : ... .. . ... : ... .. . F05
ROW 0D : ... .. 2 ... ... : ... .. . ... ... : ... .. . ... : ... .. . ... : ... .. . ...
ROW 0E : ... .. 3 ... ... : ... .. . ... ... : ... .. . ... : ... .. . ... : ... .. . F03
ROW 0F : ... .. . ... ... : ... .. . ... ... : ... .. . ... : ... .. . ... : ... .. . ...
ROW 10 : ... .. . ... ... : ... .. . ... ... : ... .. . ... : ... .. . ... : ... .. . F05
ROW 11 : ... .. . ... ... : ... .. . ... ... : ... .. . ... : ... .. . ... : ... .. . ...
ROW 12 : ... .. . ... ... : ... .. . ... ... : ... .. . ... : ... .. . ... : ... .. . F03
ROW 13 : ... .. . ... ... : ... .. . ... ... : ... .. . ... : ... .. . ... : ... .. . ...
ROW 14 : ... .. . 452 ... : ... .. . ... ... : ... .. . ... : ... .. . ... : ... .. . F05
ROW 15 : ... .. . ... ... : ... .. . ... ... : ... .. . ... : ... .. . ... : ... .. . ...
ROW 16 : ... .. . ... ... : ... .. . ... ... : ... .. . ... : ... .. . ... : ... .. . F03
ROW 17 : ... .. . ... ... : ... .. . ... ... : ... .. . ... : ... .. . ... : ... .. . ...
ROW 18 : F#3 00 1 400 ... : D-3 0C . V02 ... : ... .. . ... : ... .. . ... : ... .. . F05
ROW 19 : ... .. 2 ... ... : ... .. . ... ... : ... .. . ... : ... .. . ... : ... .. . ...
ROW 1A : ... .. 3 ... ... : ... .. . V01 ... : ... .. . ... : ... .. . ... : ... .. . F03
ROW 1B : ... .. . ... ... : ... .. . ... ... : ... .. . ... : ... .. . ... : ... .. . ...
ROW 1C : ... .. . ... ... : ... .. . V00 ... : ... .. . ... : ... .. . ... : ... .. . F05
ROW 1D : ... .. . ... ... : ... .. . ... ... : ... .. . ... : ... .. . ... : ... .. . ...
ROW 1E : ... .. . ... ... : ... .. . ... ... : ... .. . ... : ... .. . ... : ... .. . F03
ROW 1F : ... .. . ... ... : ... .. . ... ... : ... .. . ... : ... .. . ... : ... .. . ...
ROW 20 : ... .. . 201 ... : ... .. . ... ... : ... .. . ... : ... .. . ... : ... .. . F05
ROW 21 : ... .. . ... ... : ... .. . ... ... : ... .. . ... : ... .. . ... : ... .. . ...
ROW 22 : ... .. . ... ... : ... .. . ... ... : ... .. . ... : ... .. . ... : ... .. . F03
ROW 23 : ... .. . ... ... : ... .. . ... ... : ... .. . ... : ... .. . ... : ... .. . ...
ROW 24 : E-3 00 . 200 ... : ... .. . ... ... : ... .. . ... : ... .. . ... : ... .. . F05
ROW 25 : ... .. . ... ... : ... .. . ... ... : ... .. . ... : ... .. . ... : ... .. . ...
ROW 26 : ... .. . ... ... : ... .. . ... ... : ... .. . ... : ... .. . ... : ... .. . F03
ROW 27 : ... .. . ... ... : ... .. . ... ... : ... .. . ... : ... .. . ... : ... .. . ...
ROW 28 : ... .. 2 ... ... : ... .. . ... ... : ... .. . ... : ... .. . ... : ... .. . F05
ROW 29 : ... .. . ... ... : ... .. . ... ... : ... .. . ... : ... .. . ... : ... .. . ...
ROW 2A : ... .. . 453 ... : ... .. . ... ... : ... .. . ... : ... .. . ... : ... .. . F03
ROW 2B : ... .. . ... ... : ... .. . ... ... : ... .. . ... : ... .. . ... : ... .. . ...
ROW 2C : ... .. . ... ... : ... .. . ... ... : ... .. . ... : ... .. . ... : ... .. . F05
ROW 2D : ... .. . ... ... : ... .. . ... ... : ... .. . ... : ... .. . ... : ... .. . ...
ROW 2E : ... .. 1 ... ... : ... .. . ... ... : ... .. . ... : ... .. . ... : ... .. . F03
ROW 2F : ... .. . ... ... : ... .. . ... ... : ... .. . ... : ... .. . ... : ... .. . ...

PATTERN 1B
ROW 00 : F-3 00 1 400 ... : G-3 0C 1 V02 ... : ... .. . ... : ... .. . ... : ... .. . F05
ROW 01 : F#3 00 2 301 ... : ... .. . ... ... : ... .. . ... : ... .. . ... : ... .. . ...
ROW 02 : ... .. . ... ... : ... .. . ... ... : ... .. . ... : ... .. . ... : ... .. . F03
ROW 03 : ... .. . ... ... : ... .. . ... ... : ... .. . ... : ... .. . ... : ... .. . ...
ROW 04 : ... .. 3 ... ... : ... .. . V01 ... : ... .. . ... : ... .. . ... : ... .. . F05
ROW 05 : ... .. . ... ... : ... .. . ... ... : ... .. . ... : ... .. . ... : ... .. . ...
ROW 06 : ... .. . ... ... : ... .. . ... ... : ... .. . ... : ... .. . ... : ... .. . F03
ROW 07 : ... .. . ... ... : ... .. . ... ... : ... .. . ... : ... .. . ... : ... .. . ...
ROW 08 : ... .. . ... ... : ... .. . V00 ... : ... .. . ... : ... .. . ... : ... .. . F05
ROW 09 : ... .. . ... ... : ... .. . ... ... : ... .. . ... : ... .. . ... : ... .. . ...
ROW 0A : ... .. . ... ... : ... .. . ... ... : ... .. . ... : ... .. . ... : ... .. . F03
ROW 0B : ... .. . ... ... : ... .. . ... ... : ... .. . ... : ... .. . ... : ... .. . ...
ROW 0C : ... .. 2 453 ... : ... .. . V02 ... : ... .. . ... : ... .. . ... : ... .. . F05
ROW 0D : ... .. . ... ... : ... .. . ... ... : ... .. . ... : ... .. . ... : ... .. . ...
ROW 0E : ... .. . ... ... : ... .. . ... ... : ... .. . ... : ... .. . ... : ... .. . F03
ROW 0F : ... .. . ... ... : ... .. . ... ... : ... .. . ... : ... .. . ... : ... .. . ...
ROW 10 : ... .. . ... ... : ... .. . V01 ... : ... .. . ... : ... .. . ... : ... .. . F05
ROW 11 : ... .. . ... ... : ... .. . ... ... : ... .. . ... : ... .. . ... : ... .. . ...
ROW 12 : ... .. . ... ... : ... .. . ... ... : ... .. . ... : ... .. . ... : ... .. . F03
ROW 13 : ... .. . ... ... : ... .. . ... ... : ... .. . ... : ... .. . ... : ... .. . ...
ROW 14 : ... .. . ... ... : ... .. . V00 ... : ... .. . ... : ... .. . ... : ... .. . F05
ROW 15 : ... .. . ... ... : ... .. . ... ... : ... .. . ... : ... .. . ... : ... .. . ...
ROW 16 : ... .. . ... ... : ... .. . ... ... : ... .. . ... : ... .. . ... : ... .. . F03
ROW 17 : ... .. . ... ... : ... .. . ... ... : ... .. . ... : ... .. . ... : ... .. . ...
ROW 18 : ... .. . ... ... : ... .. . V02 ... : ... .. . ... : ... .. . ... : ... .. . F05
ROW 19 : ... .. 1 ... ... : ... .. . ... ... : ... .. . ... : ... .. . ... : ... .. . ...
ROW 1A : ... .. . ... ... : ... .. . ... ... : ... .. . ... : ... .. . ... : ... .. . F03
ROW 1B : ... .. . ... ... : ... .. . ... ... : ... .. . ... : ... .. . ... : ... .. . ...
ROW 1C : ... .. . ... ... : ... .. . V01 ... : ... .. . ... : ... .. . ... : ... .. . F05
ROW 1D : ... .. . ... ... : ... .. . ... ... : ... .. . ... : ... .. . ... : ... .. . ...
ROW 1E : ... .. . ... ... : ... .. . ... ... : ... .. . ... : ... .. . ... : ... .. . F03
ROW 1F : ... .. . ... ... : ... .. . ... ... : ... .. . ... : ... .. . ... : ... .. . ...
ROW 20 : ... .. . ... ... : ... .. . V00 ... : ... .. . ... : ... .. . ... : ... .. . F05
ROW 21 : ... .. . ... ... : ... .. . ... ... : ... .. . ... : ... .. . ... : ... .. . ...
ROW 22 : ... .. . ... ... : ... .. . ... ... : ... .. . ... : ... .. . ... : ... .. . F03
ROW 23 : ... .. . ... ... : ... .. . ... ... : ... .. . ... : ... .. . ... : ... .. . ...
ROW 24 : ... .. . ... ... : ... .. . V02 ... : ... .. . ... : ... .. . ... : ... .. . F05
ROW 25 : ... .. . ... ... : ... .. . ... ... : ... .. . ... : ... .. . ... : ... .. . ...
ROW 26 : ... .. . ... ... : ... .. . ... ... : ... .. . ... : ... .. . ... : ... .. . F03
ROW 27 : ... .. . ... ... : ... .. . ... ... : ... .. . ... : ... .. . ... : ... .. . ...
ROW 28 : ... .. . ... ... : ... .. . V01 ... : ... .. . ... : ... .. . ... : ... .. . F05
ROW 29 : ... .. . ... ... : ... .. . ... ... : ... .. . ... : ... .. . ... : ... .. . ...
ROW 2A : ... .. . ... ... : ... .. . ... ... : ... .. . ... : ... .. . ... : ... .. . F03
ROW 2B : ... .. . ... ... : ... .. . ... ... : ... .. . ... : ... .. . ... : ... .. . ...
ROW 2C : ... .. . ... ... : ... .. . V00 ... : ... .. . ... : ... .. . ... : ... .. . F05
ROW 2D : ... .. . ... ... : ... .. . ... ... : ... .. . ... : ... .. . ... : ... .. . ...
ROW 2E : ... .. . ... ... : ... .. . ... ... : ... .. . ... : ... .. . ... : ... .. . F03
ROW 2F : ... .. . ... ... : ... .. . ... ... : ... .. . ... : ... .. . ... : ... .. . ...

PATTERN 1C
ROW 00 : --- .. . 400 300 : D-3 0C 1 V02 ... : ... .. . ... : ... .. . ... : ... .. . F05
ROW 01 : ... .. . ... ... : ... .. . ... ... : ... .. . ... : ... .. . ... : ... .. . ...
ROW 02 : ... .. . ... ... : ... .. . ... ... : ... .. . ... : ... .. . ... : ... .. . F03
ROW 03 : ... .. . ... ... : ... .. . ... ... : ... .. . ... : ... .. . ... : ... .. . ...
ROW 04 : ... .. . ... ... : ... .. . V01 ... : ... .. . ... : ... .. . ... : ... .. . F05
ROW 05 : ... .. . ... ... : ... .. . ... ... : ... .. . ... : ... .. . ... : ... .. . ...
ROW 06 : ... .. . ... ... : ... .. . ... ... : ... .. . ... : ... .. . ... : ... .. . F03
ROW 07 : ... .. . ... ... : ... .. . ... ... : ... .. . ... : ... .. . ... : ... .. . ...
ROW 08 : ... .. . ... ... : ... .. . V00 ... : ... .. . ... : ... .. . ... : ... .. . F05
ROW 09 : ... .. . ... ... : ... .. . ... ... : ... .. . ... : ... .. . ... : ... .. . ...
ROW 0A : ... .. . ... ... : ... .. . ... ... : ... .. . ... : ... .. . ... : ... .. . F03
ROW 0B : ... .. . ... ... : ... .. . ... ... : ... .. . ... : ... .. . ... : ... .. . ...
ROW 0C : B-3 00 1 V00 ... : ... .. . ... ... : ... .. . ... : ... .. . ... : ... .. . F05
ROW 0D : ... .. 2 ... ... : ... .. . ... ... : ... .. . ... : ... .. . ... : ... .. . ...
ROW 0E : ... .. 3 ... ... : ... .. . ... ... : ... .. . ... : ... .. . ... : ... .. . F03
ROW 0F : ... .. . ... ... : ... .. . ... ... : ... .. . ... : ... .. . ... : ... .. . ...
ROW 10 : ... .. . ... ... : ... .. . ... ... : ... .. . ... : ... .. . ... : ... .. . F05
ROW 11 : ... .. . ... ... : ... .. . ... ... : ... .. . ... : ... .. . ... : ... .. . ...
ROW 12 : ... .. . ... ... : ... .. . ... ... : ... .. . ... : ... .. . ... : ... .. . F03
ROW 13 : ... .. . ... ... : ... .. . ... ... : ... .. . ... : ... .. . ... : ... .. . ...
ROW 14 : ... .. . 452 ... : ... .. . ... ... : ... .. . ... : ... .. . ... : ... .. . F05
ROW 15 : ... .. . ... ... : ... .. . ... ... : ... .. . ... : ... .. . ... : ... .. . ...
ROW 16 : ... .. . ... ... : ... .. . ... ... : ... .. . ... : ... .. . ... : ... .. . F03
ROW 17 : ... .. . ... ... : ... .. . ... ... : ... .. . ... : ... .. . ... : ... .. . ...
ROW 18 : F#3 00 1 400 ... : D-3 0C . V02 ... : ... .. . ... : ... .. . ... : ... .. . F05
ROW 19 : ... .. 2 ... ... : ... .. . ... ... : ... .. . ... : ... .. . ... : ... .. . ...
ROW 1A : ... .. 3 ... ... : ... .. . V01 ... : ... .. . ... : ... .. . ... : ... .. . F03
ROW 1B : ... .. . ... ... : ... .. . ... ... : ... .. . ... : ... .. . ... : ... .. . ...
ROW 1C : ... .. . ... ... : ... .. . V00 ... : ... .. . ... : ... .. . ... : ... .. . F05
ROW 1D : ... .. . ... ... : ... .. . ... ... : ... .. . ... : ... .. . ... : ... .. . ...
ROW 1E : ... .. . ... ... : ... .. . ... ... : ... .. . ... : ... .. . ... : ... .. . F03
ROW 1F : ... .. . ... ... : ... .. . ... ... : ... .. . ... : ... .. . ... : ... .. . ...
ROW 20 : ... .. . 201 ... : ... .. . ... ... : ... .. . ... : ... .. . ... : ... .. . F05
ROW 21 : ... .. . ... ... : ... .. . ... ... : ... .. . ... : ... .. . ... : ... .. . ...
ROW 22 : ... .. . ... ... : ... .. . ... ... : ... .. . ... : ... .. . ... : ... .. . F03
ROW 23 : ... .. . ... ... : ... .. . ... ... : ... .. . ... : ... .. . ... : ... .. . ...
ROW 24 : E-3 00 . 200 ... : ... .. . ... ... : ... .. . ... : ... .. . ... : ... .. . F05
ROW 25 : ... .. . ... ... : ... .. . ... ... : ... .. . ... : ... .. . ... : ... .. . ...
ROW 26 : ... .. . ... ... : ... .. . ... ... : ... .. . ... : ... .. . ... : ... .. . F03
ROW 27 : ... .. . ... ... : ... .. . ... ... : ... .. . ... : ... .. . ... : ... .. . ...
ROW 28 : ... .. 2 ... ... : ... .. . ... ... : ... .. . ... : ... .. . ... : ... .. . F05
ROW 29 : ... .. . ... ... : ... .. . ... ... : ... .. . ... : ... .. . ... : ... .. . ...
ROW 2A : ... .. . 453 ... : ... .. . ... ... : ... .. . ... : ... .. . ... : ... .. . F03
ROW 2B : ... .. . ... ... : ... .. . ... ... : ... .. . ... : ... .. . ... : ... .. . ...
ROW 2C : ... .. . ... ... : ... .. . ... ... : ... .. . ... : ... .. . ... : ... .. . F05
ROW 2D : ... .. . ... ... : ... .. . ... ... : ... .. . ... : ... .. . ... : ... .. . ...
ROW 2E : ... .. 1 ... ... : ... .. . ... ... : ... .. . ... : ... .. . ... : ... .. . F03
ROW 2F : ... .. . ... ... : ... .. . ... ... : ... .. . ... : ... .. . ... : ... .. . ...

PATTERN 1D
ROW 00 : G#3 00 1 400 ... : G-3 0C 1 V02 ... : ... .. . ... : ... .. . ... : ... .. . F05
ROW 01 : A-3 00 2 301 ... : ... .. . ... ... : ... .. . ... : ... .. . ... : ... .. . ...
ROW 02 : ... .. . ... ... : ... .. . ... ... : ... .. . ... : ... .. . ... : ... .. . F03
ROW 03 : ... .. . ... ... : ... .. . ... ... : ... .. . ... : ... .. . ... : ... .. . ...
ROW 04 : ... .. 3 ... ... : ... .. . V01 ... : ... .. . ... : ... .. . ... : ... .. . F05
ROW 05 : ... .. . ... ... : ... .. . ... ... : ... .. . ... : ... .. . ... : ... .. . ...
ROW 06 : ... .. . ... ... : ... .. . ... ... : ... .. . ... : ... .. . ... : ... .. . F03
ROW 07 : ... .. . ... ... : ... .. . ... ... : ... .. . ... : ... .. . ... : ... .. . ...
ROW 08 : ... .. . 452 ... : ... .. . V00 ... : ... .. . ... : ... .. . ... : ... .. . F05
ROW 09 : ... .. . ... ... : ... .. . ... ... : ... .. . ... : ... .. . ... : ... .. . ...
ROW 0A : ... .. . ... ... : ... .. . ... ... : ... .. . ... : ... .. . ... : ... .. . F03
ROW 0B : ... .. . ... ... : ... .. . ... ... : ... .. . ... : ... .. . ... : ... .. . ...
ROW 0C : F#3 00 1 400 300 : ... .. . V02 ... : ... .. . ... : ... .. . ... : ... .. . F05
ROW 0D : ... .. 2 ... ... : ... .. . ... ... : ... .. . ... : ... .. . ... : ... .. . ...
ROW 0E : ... .. 3 ... ... : ... .. . ... ... : ... .. . ... : ... .. . ... : ... .. . F03
ROW 0F : ... .. . ... ... : ... .. . ... ... : ... .. . ... : ... .. . ... : ... .. . ...
ROW 10 : ... .. . ... ... : ... .. . V01 ... : ... .. . ... : ... .. . ... : ... .. . F05
ROW 11 : ... .. . ... ... : ... .. . ... ... : ... .. . ... : ... .. . ... : ... .. . ...
ROW 12 : E-3 00 . 301 ... : ... .. . ... ... : ... .. . ... : ... .. . ... : ... .. . F03
ROW 13 : ... .. . ... ... : ... .. . ... ... : ... .. . ... : ... .. . ... : ... .. . ...
ROW 14 : ... .. . ... ... : ... .. . V00 ... : ... .. . ... : ... .. . ... : ... .. . F05
ROW 15 : ... .. 2 ... ... : ... .. . ... ... : ... .. . ... : ... .. . ... : ... .. . ...
ROW 16 : ... .. . ... ... : ... .. . ... ... : ... .. . ... : ... .. . ... : ... .. . F03
ROW 17 : ... .. . ... ... : ... .. . ... ... : ... .. . ... : ... .. . ... : ... .. . ...
ROW 18 : E-3 00 1 400 300 : ... .. . V02 ... : ... .. . ... : ... .. . ... : ... .. . F05
ROW 19 : ... .. 2 ... ... : ... .. . ... ... : ... .. . ... : ... .. . ... : ... .. . ...
ROW 1A : ... .. . ... ... : ... .. . ... ... : ... .. . ... : ... .. . ... : ... .. . F03
ROW 1B : ... .. . ... ... : ... .. . ... ... : ... .. . ... : ... .. . ... : ... .. . ...
ROW 1C : ... .. 3 ... ... : ... .. . V01 ... : ... .. . ... : ... .. . ... : ... .. . F05
ROW 1D : ... .. . ... ... : ... .. . ... ... : ... .. . ... : ... .. . ... : ... .. . ...
ROW 1E : ... .. . ... ... : ... .. . ... ... : ... .. . ... : ... .. . ... : ... .. . F03
ROW 1F : ... .. . ... ... : ... .. . ... ... : ... .. . ... : ... .. . ... : ... .. . ...
ROW 20 : ... .. . ... ... : ... .. . V00 ... : ... .. . ... : ... .. . ... : ... .. . F05
ROW 21 : ... .. . ... ... : ... .. . ... ... : ... .. . ... : ... .. . ... : ... .. . ...
ROW 22 : ... .. 2 453 ... : ... .. . ... ... : ... .. . ... : ... .. . ... : ... .. . F03
ROW 23 : ... .. . ... ... : ... .. . ... ... : ... .. . ... : ... .. . ... : ... .. . ...
ROW 24 : ... .. . ... ... : ... .. . V02 ... : ... .. . ... : ... .. . ... : ... .. . F05
ROW 25 : ... .. . ... ... : ... .. . ... ... : ... .. . ... : ... .. . ... : ... .. . ...
ROW 26 : ... .. . ... ... : ... .. . ... ... : ... .. . ... : ... .. . ... : ... .. . F03
ROW 27 : ... .. . ... ... : ... .. . ... ... : ... .. . ... : ... .. . ... : ... .. . ...
ROW 28 : ... .. . ... ... : ... .. . V01 ... : ... .. . ... : ... .. . ... : ... .. . F05
ROW 29 : ... .. . ... ... : ... .. . ... ... : ... .. . ... : ... .. . ... : ... .. . ...
ROW 2A : ... .. . ... ... : ... .. . ... ... : ... .. . ... : ... .. . ... : ... .. . F03
ROW 2B : ... .. . ... ... : ... .. . ... ... : ... .. . ... : ... .. . ... : ... .. . ...
ROW 2C : ... .. . ... ... : ... .. . V00 ... : ... .. . ... : ... .. . ... : ... .. . F05
ROW 2D : ... .. . ... ... : ... .. . ... ... : ... .. . ... : ... .. . ... : ... .. . ...
ROW 2E : ... .. . ... ... : ... .. . ... ... : ... .. . ... : ... .. . ... : ... .. . F03
ROW 2F : ... .. . ... ... : ... .. . ... ... : ... .. . ... : ... .. . ... : ... .. . ...

PATTERN 1E
ROW 00 : F#3 00 3 V00 400 : --- .. . ... ... : B-1 00 . ... : ... .. . ... : ... .. . F05
ROW 01 : ... .. 4 ... ... : ... .. . ... ... : ... .. . ... : ... .. . ... : ... .. . ...
ROW 02 : ... .. . ... ... : ... .. . ... ... : ... .. . ... : ... .. . ... : ... .. . F03
ROW 03 : ... .. . ... ... : F#3 00 1 V00 P7F : ... .. . ... : ... .. . ... : ... .. . ...
ROW 04 : ... .. . ... ... : ... .. . ... ... : ... .. . ... : ... .. . ... : ... .. . F05
ROW 05 : ... .. . ... ... : ... .. . ... ... : ... .. . ... : ... .. . ... : ... .. . ...
ROW 06 : ... .. . ... ... : ... .. . ... ... : ... .. . ... : ... .. . ... : ... .. . F03
ROW 07 : ... .. . ... ... : ... .. . ... ... : ... .. . ... : ... .. . ... : ... .. . ...
ROW 08 : ... .. . ... ... : ... .. . ... ... : ... .. . ... : ... .. . ... : ... .. . F05
ROW 09 : ... .. . ... ... : ... .. . ... ... : ... .. . ... : ... .. . ... : ... .. . F04
ROW 0A : ... .. . ... ... : ... .. . ... ... : ... .. . ... : ... .. . ... : ... .. . F05
ROW 0B : ... .. . ... ... : ... .. . ... ... : ... .. . ... : ... .. . ... : ... .. . F04
ROW 0C : E-3 00 . ... ... : ... .. . ... ... : ... .. . ... : ... .. . ... : ... .. . F05
ROW 0D : ... .. . ... ... : ... .. . ... ... : ... .. . ... : ... .. . ... : ... .. . F04
ROW 0E : ... .. . ... ... : ... .. . ... ... : ... .. . ... : ... .. . ... : ... .. . F05
ROW 0F : ... .. . ... ... : E-3 00 . ... ... : ... .. . ... : ... .. . ... : ... .. . F04
ROW 10 : ... .. . ... ... : ... .. . ... ... : ... .. . ... : ... .. . ... : ... .. . F05
ROW 11 : ... .. . ... ... : ... .. . ... ... : ... .. . ... : ... .. . ... : ... .. . F04
ROW 12 : ... .. . ... ... : ... .. . ... ... : ... .. . ... : ... .. . ... : ... .. . F05
ROW 13 : ... .. . ... ... : ... .. . ... ... : ... .. . ... : ... .. . ... : ... .. . F04
ROW 14 : ... .. . ... ... : ... .. . ... ... : ... .. . ... : ... .. . ... : ... .. . F05
ROW 15 : ... .. . ... ... : ... .. . ... ... : ... .. . ... : ... .. . ... : ... .. . F04
ROW 16 : ... .. . ... ... : ... .. . ... ... : ... .. . ... : ... .. . ... : ... .. . F05
ROW 17 : ... .. . ... ... : ... .. . ... ... : ... .. . ... : ... .. . ... : ... .. . F04
ROW 18 : E-3 00 . ... ... : ... .. . ... ... : A#1 00 . ... : ... .. . ... : ... .. . F05
ROW 19 : F#3 00 . 304 ... : ... .. . ... ... : ... .. . ... : ... .. . ... : ... .. . F04
ROW 1A : ... .. . ... ... : ... .. . ... ... : ... .. . ... : ... .. . ... : ... .. . F05
ROW 1B : ... .. . ... ... : E-3 00 . ... ... : ... .. . ... : ... .. . ... : ... .. . F04
ROW 1C : ... .. . ... ... : F#3 00 . 304 ... : ... .. . ... : ... .. . ... : ... .. . F05
ROW 1D : ... .. . ... ... : ... .. . ... ... : ... .. . ... : ... .. . ... : ... .. . F04
ROW 1E : ... .. . ... ... : ... .. . ... ... : ... .. . ... : ... .. . ... : ... .. . F05
ROW 1F : ... .. . ... ... : ... .. . ... ... : ... .. . ... : ... .. . ... : ... .. . F04
ROW 20 : ... .. . ... ... : ... .. . ... ... : ... .. . ... : ... .. . ... : ... .. . F05
ROW 21 : ... .. . ... ... : ... .. . ... ... : ... .. . ... : ... .. . ... : ... .. . F04
ROW 22 : ... .. . ... ... : ... .. . ... ... : ... .. . ... : ... .. . ... : ... .. . F05
ROW 23 : ... .. . ... ... : ... .. . ... ... : ... .. . ... : ... .. . ... : ... .. . F04
ROW 24 : D-3 00 . 300 ... : ... .. . ... ... : ... .. . ... : ... .. . ... : ... .. . F05
ROW 25 : ... .. . ... ... : ... .. . ... ... : ... .. . ... : ... .. . ... : ... .. . F04
ROW 26 : ... .. . ... ... : ... .. . ... ... : ... .. . ... : ... .. . ... : ... .. . F05
ROW 27 : ... .. . ... ... : D-3 00 . 300 ... : ... .. . ... : ... .. . ... : ... .. . F04
ROW 28 : ... .. . ... ... : ... .. . ... ... : ... .. . ... : ... .. . ... : ... .. . F05
ROW 29 : ... .. . ... ... : ... .. . ... ... : ... .. . ... : ... .. . ... : ... .. . F04
ROW 2A : ... .. . ... ... : ... .. . ... ... : ... .. . ... : ... .. . ... : ... .. . F05
ROW 2B : ... .. . ... ... : ... .. . ... ... : ... .. . ... : ... .. . ... : ... .. . F04
ROW 2C : ... .. . ... ... : ... .. . ... ... : ... .. . ... : ... .. . ... : ... .. . F05
ROW 2D : ... .. . ... ... : ... .. . ... ... : ... .. . ... : ... .. . ... : ... .. . F04
ROW 2E : ... .. . ... ... : ... .. . ... ... : ... .. . ... : ... .. . ... : ... .. . F05
ROW 2F : ... .. . ... ... : ... .. . ... ... : ... .. . ... : ... .. . ... : ... .. . F04

PATTERN 1F
ROW 00 : D-3 00 3 ... ... : ... .. . ... ... : A-1 00 . ... : ... .. . ... : ... .. . F05
ROW 01 : ... .. . ... ... : ... .. . ... ... : ... .. . ... : ... .. . ... : ... .. . ...
ROW 02 : ... .. . ... ... : ... .. . ... ... : ... .. . ... : ... .. . ... : ... .. . F04
ROW 03 : ... .. . ... ... : D-3 00 1 ... ... : ... .. . ... : ... .. . ... : ... .. . ...
ROW 04 : ... .. . ... ... : ... .. . ... ... : ... .. . ... : ... .. . ... : ... .. . F05
ROW 05 : ... .. . ... ... : ... .. . ... ... : ... .. . ... : ... .. . ... : ... .. . ...
ROW 06 : ... .. . ... ... : ... .. . ... ... : ... .. . ... : ... .. . ... : ... .. . F04
ROW 07 : ... .. . ... ... : ... .. . ... ... : ... .. . ... : ... .. . ... : ... .. . ...
ROW 08 : ... .. . ... ... : ... .. . ... ... : ... .. . ... : ... .. . ... : ... .. . F05
ROW 09 : ... .. . ... ... : ... .. . ... ... : ... .. . ... : ... .. . ... : ... .. . ...
ROW 0A : ... .. . ... ... : ... .. . ... ... : ... .. . ... : ... .. . ... : ... .. . F04
ROW 0B : ... .. . ... ... : ... .. . ... ... : ... .. . ... : ... .. . ... : ... .. . ...
ROW 0C : C#3 00 . ... ... : ... .. . ... ... : ... .. . ... : ... .. . ... : ... .. . F05
ROW 0D : ... .. . ... ... : ... .. . ... ... : ... .. . ... : ... .. . ... : ... .. . ...
ROW 0E : ... .. . ... ... : ... .. . ... ... : ... .. . ... : ... .. . ... : ... .. . F04
ROW 0F : ... .. . ... ... : C#3 00 . ... ... : ... .. . ... : ... .. . ... : ... .. . ...
ROW 10 : ... .. . ... ... : ... .. . ... ... : ... .. . ... : ... .. . ... : ... .. . F05
ROW 11 : ... .. . ... ... : ... .. . ... ... : ... .. . ... : ... .. . ... : ... .. . ...
ROW 12 : ... .. . ... ... : ... .. . ... ... : ... .. . ... : ... .. . ... : ... .. . ...
ROW 13 : ... .. . ... ... : ... .. . ... ... : ... .. . ... : ... .. . ... : ... .. . ...
ROW 14 : ... .. . ... ... : ... .. . ... ... : ... .. . ... : ... .. . ... : ... .. . F05
ROW 15 : ... .. . ... ... : ... .. . ... ... : ... .. . ... : ... .. . ... : ... .. . ...
ROW 16 : ... .. . ... ... : ... .. . ... ... : ... .. . ... : ... .. . ... : ... .. . F04
ROW 17 : ... .. . ... ... : ... .. . ... ... : ... .. . ... : ... .. . ... : ... .. . ...
ROW 18 : D-3 00 . ... ... : ... .. . ... ... : G#1 00 . ... : ... .. . ... : ... .. . F05
ROW 19 : ... .. . ... ... : ... .. . ... ... : ... .. . ... : ... .. . ... : ... .. . ...
ROW 1A : ... .. . ... ... : ... .. . ... ... : ... .. . ... : ... .. . ... : ... .. . ...
ROW 1B : ... .. . ... ... : D-3 00 . ... ... : ... .. . ... : ... .. . ... : ... .. . ...
ROW 1C : ... .. . ... ... : ... .. . ... ... : ... .. . ... : ... .. . ... : ... .. . F04
ROW 1D : ... .. . ... ... : ... .. . ... ... : ... .. . ... : ... .. . ... : ... .. . ...
ROW 1E : ... .. . ... ... : ... .. . ... ... : ... .. . ... : ... .. . ... : ... .. . ...
ROW 1F : ... .. . ... ... : ... .. . ... ... : ... .. . ... : ... .. . ... : ... .. . ...
ROW 20 : ... .. . ... ... : ... .. . ... ... : ... .. . ... : ... .. . ... : ... .. . F05
ROW 21 : ... .. . ... ... : ... .. . ... ... : ... .. . ... : ... .. . ... : ... .. . ...
ROW 22 : B-2 00 . 302 ... : ... .. . ... ... : ... .. . ... : ... .. . ... : ... .. . ...
ROW 23 : ... .. . 303 ... : ... .. . ... ... : ... .. . ... : ... .. . ... : ... .. . ...
ROW 24 : ... .. . 304 ... : ... .. . ... ... : ... .. . ... : ... .. . ... : ... .. . ...
ROW 25 : ... .. . ... ... : B-2 00 . 302 ... : ... .. . ... : ... .. . ... : ... .. . ...
ROW 26 : ... .. . ... ... : ... .. . 303 ... : ... .. . ... : ... .. . ... : ... .. . ...
ROW 27 : ... .. . ... ... : ... .. . 304 ... : ... .. . ... : ... .. . ... : ... .. . ...
ROW 28 : ... .. . ... ... : ... .. . ... ... : ... .. . ... : ... .. . ... : ... .. . F08
ROW 29 : ... .. . ... ... : ... .. . ... ... : ... .. . ... : ... .. . ... : ... .. . ...
ROW 2A : ... .. . ... ... : ... .. . ... ... : ... .. . ... : ... .. . ... : ... .. . F0F
ROW 2B : ... .. . ... ... : ... .. . ... ... : ... .. . ... : ... .. . ... : ... .. . ...
ROW 2C : ... .. . 300 ... : ... .. . ... ... : ... .. . ... : ... .. . ... : ... .. . ...
ROW 2D : ... .. . ... ... : ... .. . ... ... : ... .. . ... : ... .. . ... : ... .. . ...
ROW 2E : ... .. . ... ... : ... .. . ... ... : ... .. . ... : ... .. . ... : ... .. . F1D
ROW 2F : ... .. . ... ... : ... .. . 300 ... : ... .. . ... : ... .. . ... : ... .. . ...

PATTERN 20
ROW 00 : D-3 01 1 P7F V01 : ... .. . V00 ... : --- .. . ... : ... .. . ... : ... .. . F05
ROW 01 : ... .. . ... ... : ... .. . ... ... : ... .. . ... : ... .. . ... : ... .. . ...
ROW 02 : G-3 01 2 ... ... : ... .. . ... 201 : ... .. . ... : ... .. . ... : ... .. . F03
ROW 03 : ... .. . ... ... : ... .. . ... ... : ... .. . ... : ... .. . ... : ... .. . ...
ROW 04 : ... .. . ... ... : A-3 01 3 P80 200 : ... .. . ... : ... .. . ... : ... .. . F05
ROW 05 : ... .. . ... ... : ... .. . ... ... : ... .. . ... : ... .. . ... : ... .. . ...
ROW 06 : D-3 01 4 ... ... : ... .. . ... ... : ... .. . ... : ... .. . ... : ... .. . F03
ROW 07 : ... .. . ... ... : ... .. . ... ... : ... .. . ... : ... .. . ... : ... .. . ...
ROW 08 : D-4 01 5 ... ... : ... .. . ... ... : ... .. . ... : ... .. . ... : ... .. . F05
ROW 09 : ... .. . ... ... : ... .. . ... ... : ... .. . ... : ... .. . ... : ... .. . ...
ROW 0A : ... .. . ... ... : A-3 01 6 ... ... : ... .. . ... : ... .. . ... : ... .. . F03
ROW 0B : ... .. . ... ... : ... .. . ... ... : ... .. . ... : ... .. . ... : ... .. . ...
ROW 0C : D-3 01 . ... ... : ... .. . ... ... : ... .. . ... : ... .. . ... : ... .. . F05
ROW 0D : ... .. . ... ... : ... .. . ... ... : ... .. . ... : ... .. . ... : ... .. . ...
ROW 0E : G-3 01 . ... ... : ... .. . ... ... : ... .. . ... : ... .. . ... : ... .. . F03
ROW 0F : ... .. . ... ... : ... .. . ... ... : ... .. . ... : ... .. . ... : ... .. . ...
ROW 10 : ... .. . ... ... : A-3 01 . ... ... : ... .. . ... : ... .. . ... : ... .. . F05
ROW 11 : ... .. . ... ... : ... .. . ... ... : ... .. . ... : ... .. . ... : ... .. . ...
ROW 12 : D-3 01 . ... ... : ... .. . ... ... : ... .. . ... : ... .. . ... : ... .. . F03
ROW 13 : ... .. . ... ... : ... .. . ... ... : ... .. . ... : ... .. . ... : ... .. . ...
ROW 14 : D-4 01 . ... ... : ... .. . ... ... : ... .. . ... : ... .. . ... : ... .. . F05
ROW 15 : ... .. . ... ... : ... .. . ... ... : ... .. . ... : ... .. . ... : ... .. . ...
ROW 16 : ... .. . ... ... : A-3 01 . ... ... : ... .. . ... : ... .. . ... : ... .. . F03
ROW 17 : ... .. . ... ... : ... .. . ... ... : ... .. . ... : ... .. . ... : ... .. . ...
ROW 18 : E-3 01 . ... ... : ... .. . ... ... : ... .. . ... : ... .. . ... : ... .. . F05
ROW 19 : ... .. . ... ... : ... .. . ... ... : ... .. . ... : ... .. . ... : ... .. . ...
ROW 1A : A-3 01 . ... ... : ... .. . ... ... : ... .. . ... : ... .. . ... : ... .. . F03
ROW 1B : ... .. . ... ... : ... .. . ... ... : ... .. . ... : ... .. . ... : ... .. . ...
ROW 1C : ... .. . ... ... : A-3 01 . P81 ... : ... .. . ... : ... .. . ... : ... .. . F05
ROW 1D : ... .. . ... ... : ... .. . P82 ... : ... .. . ... : ... .. . ... : ... .. . ...
ROW 1E : E-3 01 . ... ... : ... .. . P83 ... : ... .. . ... : ... .. . ... : ... .. . F03
ROW 1F : ... .. . ... ... : ... .. . ... ... : ... .. . ... : ... .. . ... : ... .. . ...
ROW 20 : D-4 01 . ... ... : ... .. . ... ... : ... .. . ... : ... .. . ... : ... .. . F05
ROW 21 : ... .. . ... ... : ... .. . ... ... : ... .. . ... : ... .. . ... : ... .. . ...
ROW 22 : ... .. . ... ... : A-3 01 . P80 ... : ... .. . ... : ... .. . ... : ... .. . F03
ROW 23 : ... .. . ... ... : ... .. . ... ... : ... .. . ... : ... .. . ... : ... .. . ...
ROW 24 : F#3 01 . ... ... : ... .. . ... ... : ... .. . ... : ... .. . ... : ... .. . F05
ROW 25 : ... .. . ... ... : ... .. . ... ... : ... .. . ... : ... .. . ... : ... .. . ...
ROW 26 : B-3 01 . ... ... : ... .. . ... ... : ... .. . ... : ... .. . ... : ... .. . F03
ROW 27 : ... .. . ... ... : ... .. . ... ... : ... .. . ... : ... .. . ... : ... .. . ...
ROW 28 : ... .. . ... ... : A-3 01 . ... ... : ... .. . ... : ... .. . ... : ... .. . F05
ROW 29 : ... .. . ... ... : ... .. . ... ... : ... .. . ... : ... .. . ... : ... .. . ...
ROW 2A : F#3 01 . ... ... : ... .. . ... ... : ... .. . ... : ... .. . ... : ... .. . F03
ROW 2B : ... .. . ... ... : ... .. . ... ... : ... .. . ... : ... .. . ... : ... .. . ...
ROW 2C : D-4 01 . ... ... : ... .. . ... ... : ... .. . ... : ... .. . ... : ... .. . F05
ROW 2D : ... .. . ... ... : ... .. . ... ... : ... .. . ... : ... .. . ... : ... .. . ...
ROW 2E : ... .. . ... ... : A-3 01 . ... ... : ... .. . ... : ... .. . ... : ... .. . F03
ROW 2F : ... .. . ... ... : ... .. . ... ... : ... .. . ... : ... .. . ... : ... .. . ...

PATTERN 21
ROW 00 : D-3 01 5 P7F V01 : ... .. . ... ... : --- 00 . ... : ... .. . ... : ... .. . F05
ROW 01 : ... .. . ... ... : ... .. . ... ... : ... .. . ... : ... .. . ... : ... .. . ...
ROW 02 : G-3 01 . ... ... : ... .. . ... ... : ... .. . ... : ... .. . ... : ... .. . F03
ROW 03 : ... .. . ... ... : ... .. . ... ... : ... .. . ... : ... .. . ... : ... .. . ...
ROW 04 : ... .. . ... ... : A-3 01 6 P80 V00 : ... .. . ... : ... .. . ... : ... .. . F05
ROW 05 : ... .. . ... ... : ... .. . ... ... : ... .. . ... : ... .. . ... : ... .. . ...
ROW 06 : D-3 01 . ... ... : ... .. . ... ... : ... .. . ... : ... .. . ... : ... .. . F03
ROW 07 : ... .. . ... ... : ... .. . ... ... : ... .. . ... : ... .. . ... : ... .. . ...
ROW 08 : D-4 01 . ... ... : ... .. . ... ... : ... .. . ... : ... .. . ... : ... .. . F05
ROW 09 : ... .. . ... ... : ... .. . ... ... : ... .. . ... : ... .. . ... : ... .. . ...
ROW 0A : ... .. . ... ... : A-3 01 . ... ... : ... .. . ... : ... .. . ... : ... .. . F03
ROW 0B : ... .. . ... ... : ... .. . ... ... : ... .. . ... : ... .. . ... : ... .. . ...
ROW 0C : D-3 01 . ... ... : ... .. . ... ... : ... .. . ... : ... .. . ... : ... .. . F05
ROW 0D : ... .. . ... ... : ... .. . ... ... : ... .. . ... : ... .. . ... : ... .. . ...
ROW 0E : G-3 01 . ... ... : ... .. . ... ... : ... .. . ... : ... .. . ... : ... .. . F03
ROW 0F : ... .. . ... ... : ... .. . ... ... : ... .. . ... : ... .. . ... : ... .. . ...
ROW 10 : ... .. . ... ... : A-3 01 . ... ... : ... .. . ... : ... .. . ... : ... .. . F05
ROW 11 : ... .. . ... ... : ... .. . ... ... : ... .. . ... : ... .. . ... : ... .. . ...
ROW 12 : D-3 01 . ... ... : ... .. . ... ... : ... .. . ... : ... .. . ... : ... .. . F03
ROW 13 : ... .. . ... ... : ... .. . ... ... : ... .. . ... : ... .. . ... : ... .. . ...
ROW 14 : D-4 01 . ... ... : ... .. . ... ... : ... .. . ... : ... .. . ... : ... .. . F05
ROW 15 : ... .. . ... ... : ... .. . ... ... : ... .. . ... : ... .. . ... : ... .. . ...
ROW 16 : ... .. . ... ... : A-3 01 . ... ... : ... .. . ... : ... .. . ... : ... .. . F03
ROW 17 : D#3 01 . G02 ... : ... .. . ... ... : ... .. . ... : ... .. . ... : ... .. . ...
ROW 18 : E-3 01 . ... ... : ... .. . ... ... : ... .. . ... : ... .. . ... : ... .. . F05
ROW 19 : ... .. . ... ... : ... .. . ... ... : ... .. . ... : ... .. . ... : ... .. . ...
ROW 1A : A-3 01 . ... ... : ... .. . ... ... : ... .. . ... : ... .. . ... : ... .. . F03
ROW 1B : ... .. . ... ... : ... .. . ... ... : ... .. . ... : ... .. . ... : ... .. . ...
ROW 1C : ... .. . ... ... : A-3 01 . P81 ... : ... .. . ... : ... .. . ... : ... .. . F05
ROW 1D : ... .. . ... ... : ... .. . P82 ... : ... .. . ... : ... .. . ... : ... .. . ...
ROW 1E : E-3 01 . ... ... : ... .. . P83 ... : ... .. . ... : ... .. . ... : ... .. . F03
ROW 1F : ... .. . ... ... : ... .. . ... ... : ... .. . ... : ... .. . ... : ... .. . ...
ROW 20 : D-4 01 . ... ... : ... .. . ... ... : ... .. . ... : ... .. . ... : ... .. . F05
ROW 21 : ... .. . ... ... : ... .. . ... ... : ... .. . ... : ... .. . ... : ... .. . ...
ROW 22 : ... .. . ... ... : A-3 01 . P80 ... : ... .. . ... : ... .. . ... : ... .. . F03
ROW 23 : ... .. . ... ... : ... .. . ... ... : ... .. . ... : ... .. . ... : ... .. . ...
ROW 24 : F#3 01 . ... ... : ... .. . ... ... : G-3 00 . ... : ... .. . ... : ... .. . F05
ROW 25 : ... .. . ... ... : ... .. . ... ... : ... .. . ... : ... .. . ... : ... .. . ...
ROW 26 : B-3 01 . ... ... : ... .. . ... ... : ... .. . ... : ... .. . ... : ... .. . F03
ROW 27 : ... .. . ... ... : ... .. . ... ... : ... .. . ... : ... .. . ... : ... .. . ...
ROW 28 : ... .. . ... ... : A-3 01 . ... ... : ... .. . ... : ... .. . ... : ... .. . F05
ROW 29 : ... .. . ... ... : ... .. . ... ... : ... .. . ... : ... .. . ... : ... .. . ...
ROW 2A : F#3 01 . ... ... : ... .. . ... ... : G-2 00 . 303 : ... .. . ... : ... .. . F03
ROW 2B : ... .. . ... ... : ... .. . ... ... : ... .. . 305 : ... .. . ... : ... .. . ...
ROW 2C : D-4 01 . ... ... : ... .. . ... ... : ... .. . 307 : ... .. . ... : ... .. . F05
ROW 2D : ... .. . ... ... : ... .. . ... ... : ... .. . 309 : ... .. . ... : ... .. . ...
ROW 2E : ... .. . ... ... : A-3 01 . ... ... : ... .. . 30C : ... .. . ... : ... .. . F03
ROW 2F : ... .. . ... ... : ... .. . ... ... : ... .. . 30F : ... .. . ... : ... .. . ...

PATTERN 22
ROW 00 : D-3 01 5 P7F V01 : ... .. . ... ... : G-2 00 . 310 : F-# 1C C ... : ... .. . F05
ROW 01 : ... .. . ... ... : ... .. . ... ... : ... .. . 317 : ... .. . ... : ... .. . ...
ROW 02 : G-3 01 . ... ... : ... .. . ... ... : ... .. . 31F : F-# 1C 7 ... : ... .. . F03
ROW 03 : ... .. . ... ... : ... .. . ... ... : ... .. . 3FF : ... .. . ... : ... .. . ...
ROW 04 : ... .. . ... ... : A-3 01 6 P80 V00 : ... .. . ... : F-# 1C C ... : ... .. . F05
ROW 05 : ... .. . ... ... : ... .. . ... ... : ... .. . ... : ... .. . ... : ... .. . ...
ROW 06 : D-3 01 . ... ... : ... .. . ... ... : ... .. . 300 : C-# 0E . ... : ... .. . F03
ROW 07 : ... .. . ... ... : ... .. . ... ... : ... .. . ... : ... .. . ... : ... .. . ...
ROW 08 : D-4 01 . ... ... : ... .. . ... ... : ... .. . ... : F-# 1C . ... : ... .. . F05
ROW 09 : ... .. . ... ... : ... .. . ... ... : ... .. . ... : ... .. . ... : ... .. . ...
ROW 0A : ... .. . ... ... : A-3 01 . ... ... : ... .. . ... : F-# 1C 7 ... : ... .. . F03
ROW 0B : ... .. . ... ... : ... .. . ... ... : ... .. . ... : ... .. . ... : ... .. . ...
ROW 0C : D-3 01 . ... ... : ... .. . ... ... : ... .. . ... : F-# 1C C ... : ... .. . F05
ROW 0D : ... .. . ... ... : ... .. . ... ... : ... .. . ... : ... .. . ... : ... .. . ...
ROW 0E : G-3 01 . ... ... : ... .. . ... ... : ... .. . ... : C-# 0E . ... : ... .. . F03
ROW 0F : ... .. . ... ... : ... .. . ... ... : ... .. . ... : ... .. . ... : ... .. . ...
ROW 10 : ... .. . ... ... : A-3 01 . ... ... : ... .. . ... : F-# 1C . ... : ... .. . F05
ROW 11 : ... .. . ... ... : ... .. . ... ... : ... .. . ... : ... .. . ... : ... .. . ...
ROW 12 : D-3 01 . ... ... : ... .. . ... ... : ... .. . ... : C-# 0E . ... : ... .. . F03
ROW 13 : ... .. . ... ... : ... .. . ... ... : ... .. . ... : ... .. . ... : ... .. . ...
ROW 14 : D-4 01 . ... ... : ... .. . ... ... : ... .. . ... : F-# 1C . ... : ... .. . F05
ROW 15 : ... .. . ... ... : ... .. . ... ... : ... .. . ... : ... .. . ... : ... .. . ...
ROW 16 : ... .. . ... ... : A-3 01 . ... ... : ... .. . ... : F-# 1C 7 ... : ... .. . F03
ROW 17 : ... .. . ... ... : ... .. . ... ... : ... .. . ... : ... .. . ... : ... .. . ...
ROW 18 : E-3 01 . ... ... : ... .. . ... ... : A-2 00 . ... : F-# 1C C ... : ... .. . F05
ROW 19 : ... .. . ... ... : ... .. . ... ... : ... .. . ... : ... .. . ... : ... .. . ...
ROW 1A : A-3 01 . ... ... : ... .. . ... ... : ... .. . ... : F-# 1C 7 ... : ... .. . F03
ROW 1B : ... .. . ... ... : ... .. . ... ... : ... .. . ... : ... .. . ... : ... .. . ...
ROW 1C : ... .. . ... ... : A-3 01 . P81 ... : ... .. . ... : F-# 1C C ... : ... .. . F05
ROW 1D : ... .. . ... ... : ... .. . P82 ... : ... .. . ... : ... .. . ... : ... .. . ...
ROW 1E : E-3 01 . ... ... : ... .. . P83 ... : ... .. . ... : C-# 0E . ... : ... .. . F03
ROW 1F : ... .. . ... ... : ... .. . ... ... : ... .. . ... : ... .. . ... : ... .. . ...
ROW 20 : D-4 01 . ... ... : ... .. . ... ... : ... .. . ... : F-# 1C . ... : ... .. . F05
ROW 21 : ... .. . ... ... : ... .. . ... ... : ... .. . ... : ... .. . ... : ... .. . ...
ROW 22 : ... .. . ... ... : A-3 01 . P80 ... : ... .. . ... : F-# 1C 7 ... : ... .. . F03
ROW 23 : ... .. . ... ... : ... .. . ... ... : ... .. . ... : ... .. . ... : ... .. . ...
ROW 24 : F#3 01 . ... ... : ... .. . ... ... : E-2 00 . ... : F-# 1C C ... : ... .. . F05
ROW 25 : ... .. . ... ... : ... .. . ... ... : ... .. . ... : ... .. . ... : ... .. . ...
ROW 26 : B-3 01 . ... ... : ... .. . ... ... : ... .. . ... : F-# 1C 7 ... : ... .. . F03
ROW 27 : ... .. . ... ... : ... .. . ... ... : ... .. . ... : ... .. . ... : ... .. . ...
ROW 28 : ... .. . ... ... : A-3 01 . ... ... : ... .. . ... : F-# 1C C ... : ... .. . F05
ROW 29 : ... .. . ... ... : ... .. . ... ... : ... .. . ... : ... .. . ... : ... .. . ...
ROW 2A : F#3 01 . ... ... : ... .. . ... ... : G-1 00 . 302 : F-# 1C 7 ... : ... .. . F03
ROW 2B : ... .. . ... ... : ... .. . ... ... : ... .. . 304 : ... .. . ... : ... .. . ...
ROW 2C : D-4 01 . ... ... : ... .. . ... ... : ... .. . 306 : F-# 1C C ... : ... .. . F05
ROW 2D : ... .. . ... ... : ... .. . ... ... : ... .. . 308 : ... .. . ... : ... .. . ...
ROW 2E : ... .. . ... ... : A-3 01 . ... ... : ... .. . 30A : F-# 1C 7 ... : ... .. . F03
ROW 2F : ... .. . ... ... : ... .. . ... ... : ... .. . 30C : ... .. . ... : ... .. . ...

PATTERN 23
ROW 00 : D-3 01 5 P7F V01 : ... .. . ... ... : G-1 00 . 310 : F-# 1C C ... : ... .. . F05
ROW 01 : ... .. . ... ... : ... .. . ... ... : ... .. . 317 : ... .. . ... : ... .. . ...
ROW 02 : G-3 01 . ... ... : ... .. . ... ... : ... .. . 31F : F-# 1C 7 ... : ... .. . F03
ROW 03 : ... .. . ... ... : ... .. . ... ... : ... .. . 3FF : ... .. . ... : ... .. . ...
ROW 04 : ... .. . ... ... : A-3 01 6 P80 V00 : ... .. . ... : F-# 1C C ... : ... .. . F05
ROW 05 : ... .. . ... ... : ... .. . ... ... : ... .. . ... : ... .. . ... : ... .. . ...
ROW 06 : D-3 01 . ... ... : ... .. . ... ... : ... .. . 300 : C-# 0E . ... : ... .. . F03
ROW 07 : ... .. . ... ... : ... .. . ... ... : ... .. . ... : ... .. . ... : ... .. . ...
ROW 08 : D-4 01 . ... ... : ... .. . ... ... : ... .. . ... : F-# 1C . ... : ... .. . F05
ROW 09 : ... .. . ... ... : ... .. . ... ... : ... .. . ... : ... .. . ... : ... .. . ...
ROW 0A : ... .. . ... ... : A-3 01 . ... ... : ... .. . ... : F-# 1C 7 ... : ... .. . F03
ROW 0B : ... .. . ... ... : ... .. . ... ... : ... .. . ... : ... .. . ... : ... .. . ...
ROW 0C : D-3 01 . ... ... : ... .. . ... ... : ... .. . ... : F-# 1C C ... : ... .. . F05
ROW 0D : ... .. . ... ... : ... .. . ... ... : ... .. . ... : ... .. . ... : ... .. . ...
ROW 0E : G-3 01 . ... ... : ... .. . ... ... : ... .. . ... : C-# 0E . ... : ... .. . F03
ROW 0F : ... .. . ... ... : ... .. . ... ... : ... .. . ... : ... .. . ... : ... .. . ...
ROW 10 : ... .. . ... ... : A-3 01 . ... ... : ... .. . ... : F-# 1C . ... : ... .. . F05
ROW 11 : ... .. . ... ... : ... .. . ... ... : ... .. . ... : ... .. . ... : ... .. . ...
ROW 12 : D-3 01 . ... ... : ... .. . ... ... : ... .. . ... : C-# 0E . ... : ... .. . F03
ROW 13 : ... .. . ... ... : ... .. . ... ... : ... .. . ... : ... .. . ... : ... .. . ...
ROW 14 : D-4 01 . ... ... : ... .. . ... ... : ... .. . ... : F-# 1C . ... : ... .. . F05
ROW 15 : ... .. . ... ... : ... .. . ... ... : ... .. . ... : ... .. . ... : ... .. . ...
ROW 16 : ... .. . ... ... : A-3 01 . ... ... : ... .. . ... : F-# 1C 7 ... : ... .. . F03
ROW 17 : ... .. . ... ... : ... .. . ... ... : ... .. . ... : ... .. . ... : ... .. . ...
ROW 18 : E-3 01 . ... ... : ... .. . ... ... : A-1 00 . ... : F-# 1C C ... : ... .. . F05
ROW 19 : ... .. . ... ... : ... .. . ... ... : ... .. . ... : ... .. . ... : ... .. . ...
ROW 1A : A-3 01 . ... ... : ... .. . ... ... : ... .. . ... : F-# 1C 7 ... : ... .. . F03
ROW 1B : ... .. . ... ... : ... .. . ... ... : ... .. . ... : ... .. . ... : ... .. . ...
ROW 1C : ... .. . ... ... : A-3 01 . P81 ... : ... .. . ... : F-# 1C C ... : ... .. . F05
ROW 1D : ... .. . ... ... : ... .. . P82 ... : ... .. . ... : ... .. . ... : ... .. . ...
ROW 1E : E-3 01 . ... ... : ... .. . P83 ... : E-3 12 . ... : 7-# 13 . ... : ... .. . F03
ROW 1F : ... .. . ... ... : ... .. . ... ... : ... .. . ... : ... .. . ... : ... .. . ...
ROW 20 : D-4 01 . ... ... : ... .. . ... ... : A-1 00 . ... : F-# 1C C ... : ... .. . F05
ROW 21 : ... .. . ... ... : ... .. . ... ... : ... .. . ... : ... .. . ... : ... .. . ...
ROW 22 : ... .. . ... ... : A-3 01 . P80 ... : ... .. . ... : F-# 1C 7 ... : ... .. . F03
ROW 23 : ... .. . ... ... : ... .. . ... ... : ... .. . ... : ... .. . ... : ... .. . ...
ROW 24 : F#3 01 . ... ... : ... .. . ... ... : F#1 00 . ... : F-# 1C C ... : ... .. . F05
ROW 25 : ... .. . ... ... : ... .. . ... ... : ... .. . ... : ... .. . ... : ... .. . ...
ROW 26 : B-3 01 . ... ... : ... .. . ... ... : ... .. . ... : F-# 1C 7 ... : ... .. . F03
ROW 27 : ... .. . ... ... : ... .. . ... ... : ... .. . ... : ... .. . ... : ... .. . ...
ROW 28 : ... .. . ... ... : A-3 01 . ... ... : E-3 12 . ... : 7-# 13 C ... : ... .. . F05
ROW 29 : ... .. . ... ... : ... .. . ... ... : F#1 00 . ... : ... .. . ... : ... .. . ...
ROW 2A : F#3 01 . ... ... : ... .. . ... ... : ... .. . ... : F-# 1C 7 ... : ... .. . F03
ROW 2B : ... .. . ... ... : ... .. . ... ... : ... .. . ... : ... .. . ... : ... .. . ...
ROW 2C : D-4 01 . ... ... : ... .. . ... ... : E-3 12 . ... : 7-# 13 C ... : ... .. . F05
ROW 2D : ... .. . ... ... : ... .. . ... ... : F#1 00 . ... : ... .. . ... : ... .. . ...
ROW 2E : ... .. . ... ... : A-3 01 . ... ... : ... .. . ... : F-# 1C 7 ... : ... .. . F03
ROW 2F : ... .. . ... ... : ... .. . ... ... : ... .. . ... : ... .. . ... : ... .. . ...

PATTERN 24
ROW 00 : D-3 01 5 P7E V01 : --- .. . ... ... : G-1 17 . ... : F-# 1C C ... : ... .. . F05
ROW 01 : ... .. . ... ... : ... .. . ... ... : ... .. . ... : ... .. . ... : ... .. . ...
ROW 02 : G-3 01 . ... ... : ... .. . ... ... : ... .. . ... : F-# 1C 7 ... : ... .. . F03
ROW 03 : D-3 01 2 ... ... : B-3 0A 8 V00 ... : ... .. . ... : ... .. . ... : ... .. . ...
ROW 04 : A-3 01 5 ... ... : C#4 0A 9 30A ... : ... .. . ... : F-# 1C C ... : ... .. . F05
ROW 05 : G-3 01 2 ... ... : ... .. . ... ... : ... .. . ... : ... .. . ... : ... .. . ...
ROW 06 : ... .. . ... ... : ... .. . ... ... : ... .. . ... : C-# 0E . ... : ... .. . F03
ROW 07 : A-3 01 2 ... ... : ... .. . 453 ... : ... .. . ... : ... .. . ... : ... .. . ...
ROW 08 : D-4 01 5 ... ... : ... .. . ... ... : ... .. . ... : F-# 1C . ... : ... .. . F05
ROW 09 : D-3 14 2 ... ... : ... .. . ... ... : ... .. . ... : ... .. . ... : ... .. . ...
ROW 0A : A-3 01 5 ... ... : D-4 0A A 300 400 : ... .. . ... : F-# 1C 7 ... : ... .. . F03
ROW 0B : D-4 01 2 ... ... : --- .. . ... ... : ... .. . ... : ... .. . ... : ... .. . ...
ROW 0C : D-3 01 5 ... ... : E-4 0A B ... ... : ... .. . ... : F-# 1C C ... : ... .. . F05
ROW 0D : A-3 01 2 ... ... : ... .. . ... ... : ... .. . ... : ... .. . ... : ... .. . ...
ROW 0E : D-3 14 3 ... ... : ... .. . ... ... : ... .. . ... : C-# 0E . ... : ... .. . F03
ROW 0F : ... .. 4 ... ... : ... .. . ... ... : ... .. . ... : ... .. . ... : ... .. . ...
ROW 10 : ... .. 5 ... ... : D-4 0A . ... ... : ... .. . ... : F-# 1C . ... : ... .. . F05
ROW 11 : ... .. 6 ... ... : ... .. . ... ... : ... .. . ... : ... .. . ... : ... .. . ...
ROW 12 : D-3 01 5 ... ... : ... .. . ... ... : ... .. . ... : C-# 0E . ... : ... .. . F03
ROW 13 : ... .. . ... ... : ... .. . ... ... : ... .. . ... : ... .. . ... : ... .. . ...
ROW 14 : D-4 01 . ... ... : E-4 0A . ... ... : ... .. . ... : F-# 1C . ... : ... .. . F05
ROW 15 : D-3 01 2 ... ... : ... .. . ... ... : ... .. . ... : ... .. . ... : ... .. . ...
ROW 16 : A-3 01 5 ... ... : ... .. . ... ... : ... .. . ... : F-# 1C 7 ... : ... .. . F03
ROW 17 : D-4 01 2 ... ... : ... .. . ... ... : ... .. . ... : ... .. . ... : ... .. . ...
ROW 18 : E-3 01 5 ... ... : F-4 0A . ... ... : G-1 17 . ... : F-# 1C C ... : ... .. . F05
ROW 19 : A-3 01 2 ... ... : F#4 0A . ... ... : A-1 00 . ... : ... .. . ... : ... .. . ...
ROW 1A : A-3 01 5 ... ... : ... .. . ... ... : ... .. . ... : F-# 1C 7 ... : ... .. . F03
ROW 1B : E-3 01 2 ... ... : ... .. . ... ... : ... .. . ... : ... .. . ... : ... .. . ...
ROW 1C : E-3 15 5 ... ... : ... .. . ... ... : ... .. . ... : F-# 1C C ... : ... .. . F05
ROW 1D : A-3 01 2 ... ... : ... .. . ... ... : ... .. . ... : ... .. . ... : ... .. . ...
ROW 1E : E-3 01 5 ... ... : D-4 0A . ... ... : E-3 12 . ... : 7-# 13 . ... : ... .. . F03
ROW 1F : E-3 15 2 ... ... : ... .. . ... ... : ... .. . ... : ... .. . ... : ... .. . ...
ROW 20 : D-4 01 5 ... ... : --- .. . ... ... : A-1 00 . ... : F-# 1C C ... : ... .. . F05
ROW 21 : E-3 01 2 ... ... : ... .. . ... ... : ... .. . ... : ... .. . ... : ... .. . ...
ROW 22 : A-3 01 5 ... ... : ... .. . ... ... : ... .. . ... : F-# 1C 7 ... : ... .. . F03
ROW 23 : D-4 01 2 ... ... : ... .. . ... ... : ... .. . ... : ... .. . ... : ... .. . ...
ROW 24 : F#3 01 5 ... ... : C#4 0A B ... ... : F#1 00 . ... : F-# 1C C ... : ... .. . F05
ROW 25 : A-3 01 2 ... ... : ... .. . ... ... : ... .. . ... : ... .. . ... : ... .. . ...
ROW 26 : B-3 01 5 ... ... : --- .. . ... ... : ... .. . ... : F-# 1C 7 ... : ... .. . F03
ROW 27 : F#3 01 2 ... ... : C#4 0A 3 ... ... : ... .. . ... : ... .. . ... : ... .. . ...
ROW 28 : F#3 16 5 ... ... : B-3 0A C ... ... : E-3 12 . ... : 7-# 13 C ... : ... .. . F05
ROW 29 : B-3 01 2 ... ... : ... .. . ... ... : F#1 00 . ... : ... .. . ... : ... .. . ...
ROW 2A : F#3 01 5 ... ... : --- .. . ... ... : ... .. . ... : F-# 1C 7 ... : ... .. . F03
ROW 2B : F#3 16 2 ... ... : B-3 0A 4 ... ... : ... .. . ... : ... .. . ... : ... .. . ...
ROW 2C : D-4 01 5 ... ... : A-3 0A D ... ... : E-3 12 . ... : 7-# 13 C ... : ... .. . F05
ROW 2D : F#3 01 2 ... ... : ... .. . ... ... : F#1 00 . ... : ... .. . ... : ... .. . ...
ROW 2E : A-3 01 5 ... ... : ... .. . ... ... : ... .. . ... : F-# 1C 7 ... : ... .. . F03
ROW 2F : D-4 01 2 ... ... : A-3 0A 4 ... ... : ... .. . ... : ... .. . ... : ... .. . ...

PATTERN 25
ROW 00 : D-3 01 5 P7E ... : --- .. . ... ... : G-1 17 . ... : F-# 1C C ... : ... .. . F05
ROW 01 : ... .. . ... ... : ... .. . ... ... : ... .. . ... : ... .. . ... : ... .. . ...
ROW 02 : G-3 01 . ... ... : ... .. . ... ... : ... .. . ... : F-# 1C 7 ... : ... .. . F03
ROW 03 : D-3 01 2 ... ... : B-3 0A A V01 ... : ... .. . ... : ... .. . ... : ... .. . ...
ROW 04 : A-3 01 5 ... ... : C#4 0A B 30A ... : ... .. . ... : F-# 1C C ... : ... .. . F05
ROW 05 : G-3 01 2 ... ... : ... .. . ... ... : ... .. . ... : ... .. . ... : ... .. . ...
ROW 06 : ... .. . ... ... : ... .. . ... ... : ... .. . ... : C-# 0E . ... : ... .. . F03
ROW 07 : A-3 01 2 ... ... : ... .. . 453 ... : ... .. . ... : ... .. . ... : ... .. . ...
ROW 08 : D-4 01 5 ... ... : ... .. . ... ... : ... .. . ... : F-# 1C . ... : ... .. . F05
ROW 09 : D-3 14 2 ... ... : ... .. . ... ... : ... .. . ... : ... .. . ... : ... .. . ...
ROW 0A : A-3 01 5 ... ... : D-4 0A . 300 ... : ... .. . ... : F-# 1C 7 ... : ... .. . F03
ROW 0B : D-4 01 2 ... ... : --- .. . ... ... : ... .. . ... : ... .. . ... : ... .. . ...
ROW 0C : D-3 01 5 ... ... : E-4 0A . 400 ... : E-3 12 . ... : 7-# 13 C ... : ... .. . F05
ROW 0D : A-3 01 2 ... ... : ... .. . ... ... : ... .. . ... : ... .. . ... : ... .. . ...
ROW 0E : D-3 14 3 ... ... : ... .. . ... ... : G-1 00 . ... : C-# 0E . ... : ... .. . F03
ROW 0F : ... .. 4 ... ... : ... .. . ... ... : ... .. . ... : ... .. . ... : ... .. . ...
ROW 10 : ... .. 5 ... ... : D-4 0A . ... ... : ... .. . ... : F-# 1C . ... : ... .. . F05
ROW 11 : ... .. 6 ... ... : ... .. . ... ... : ... .. . ... : ... .. . ... : ... .. . ...
ROW 12 : D-3 01 5 ... ... : ... .. . ... ... : ... .. . ... : C-# 0E . ... : ... .. . F03
ROW 13 : ... .. . ... ... : ... .. . ... ... : ... .. . ... : ... .. . ... : ... .. . ...
ROW 14 : D-4 01 . ... ... : E-4 0A . ... ... : ... .. . ... : F-# 1C . ... : ... .. . F05
ROW 15 : D-3 01 2 ... ... : ... .. . ... ... : ... .. . ... : ... .. . ... : ... .. . ...
ROW 16 : A-3 01 5 ... ... : ... .. . ... ... : ... .. . ... : F-# 1C 7 ... : ... .. . F03
ROW 17 : D-4 01 2 ... ... : ... .. . ... ... : ... .. . ... : ... .. . ... : ... .. . ...
ROW 18 : E-3 01 5 ... ... : F-4 0A . ... ... : G-1 17 . ... : F-# 1C C ... : ... .. . F05
ROW 19 : A-3 01 2 ... ... : F#4 0A . 303 ... : A-1 00 . ... : ... .. . ... : ... .. . ...
ROW 1A : A-3 01 5 ... ... : ... .. . ... ... : ... .. . ... : F-# 1C 7 ... : ... .. . F03
ROW 1B : E-3 01 2 ... ... : ... .. . ... ... : ... .. . ... : ... .. . ... : ... .. . ...
ROW 1C : E-3 15 5 ... ... : ... .. . 453 ... : ... .. . ... : F-# 1C C ... : ... .. . F05
ROW 1D : A-3 01 2 ... ... : ... .. . 300 ... : ... .. . ... : ... .. . ... : ... .. . ...
ROW 1E : E-3 01 5 ... ... : G-4 0A . 400 ... : E-3 12 . ... : 7-# 13 . ... : ... .. . F03
ROW 1F : E-3 15 2 ... ... : ... .. . ... ... : ... .. . ... : ... .. . ... : ... .. . ...
ROW 20 : D-4 01 5 ... ... : --- .. . ... ... : A-1 00 . ... : F-# 1C C ... : ... .. . F05
ROW 21 : E-3 01 2 ... ... : ... .. . ... ... : ... .. . ... : ... .. . ... : ... .. . ...
ROW 22 : A-3 01 5 ... ... : A-4 0A B ... ... : ... .. . ... : F-# 1C 7 ... : ... .. . F03
ROW 23 : D-4 01 2 ... ... : ... .. . ... ... : ... .. . ... : ... .. . ... : ... .. . ...
ROW 24 : F#3 01 5 ... ... : G-4 0A A ... ... : B-1 00 . ... : F-# 1C C ... : ... .. . F05
ROW 25 : A-3 01 2 ... ... : ... .. . ... ... : ... .. . ... : ... .. . ... : ... .. . ...
ROW 26 : B-3 01 5 ... ... : --- .. . ... ... : ... .. . ... : F-# 1C 7 ... : ... .. . F03
ROW 27 : F#3 01 2 ... ... : A-4 0A 4 ... ... : ... .. . ... : ... .. . ... : ... .. . ...
ROW 28 : F#3 16 5 ... ... : F#4 0A 9 ... ... : E-3 12 . ... : 7-# 13 C ... : ... .. . F05
ROW 29 : B-3 01 2 ... ... : ... .. . ... ... : B-1 00 . ... : ... .. . ... : ... .. . ...
ROW 2A : F#3 01 5 ... ... : --- .. . ... ... : ... .. . ... : F-# 1C 7 ... : ... .. . F03
ROW 2B : F#3 16 2 ... ... : G-4 0A 3 ... ... : ... .. . ... : ... .. . ... : ... .. . ...
ROW 2C : D-4 01 5 ... ... : E-4 0A 8 ... ... : E-3 12 . ... : 7-# 13 C ... : ... .. . F05
ROW 2D : F#3 01 2 ... ... : ... .. . ... ... : B-1 00 . ... : ... .. . ... : ... .. . ...
ROW 2E : A-3 01 5 ... ... : --- .. . ... ... : ... .. . ... : F-# 1C 7 ... : ... .. . F03
ROW 2F : D-4 01 2 ... ... : F#4 0A 2 ... ... : ... .. . ... : ... .. . ... : ... .. . ...

PATTERN 26
ROW 00 : D-3 01 5 P7E ... : A-4 0A 1 V02 ... : G-1 17 . ... : F-# 1C C ... : ... .. . F05
ROW 01 : ... .. . ... ... : ... .. . ... ... : ... .. . ... : ... .. . ... : ... .. . ...
ROW 02 : G-3 01 . ... ... : F#4 0A 2 ... ... : ... .. . ... : F-# 1C 7 ... : ... .. . F03
ROW 03 : D-3 01 2 ... ... : ... .. . ... ... : ... .. . ... : ... .. . ... : ... .. . ...
ROW 04 : A-3 01 5 ... ... : A-4 0A 3 ... ... : ... .. . ... : F-# 1C C ... : ... .. . F05
ROW 05 : G-3 01 2 ... ... : ... .. . ... ... : ... .. . ... : ... .. . ... : ... .. . ...
ROW 06 : ... .. . ... ... : F#4 0A . ... ... : ... .. . ... : C-# 0E . ... : ... .. . F03
ROW 07 : A-3 01 2 ... ... : ... .. . ... ... : ... .. . ... : ... .. . ... : ... .. . ...
ROW 08 : D-4 01 5 ... ... : A-4 0A 4 ... ... : ... .. . ... : F-# 1C . ... : ... .. . F05
ROW 09 : D-3 14 2 ... ... : ... .. . ... ... : ... .. . ... : ... .. . ... : ... .. . ...
ROW 0A : A-3 01 5 ... ... : F#4 0A . ... ... : ... .. . ... : F-# 1C 7 ... : ... .. . F03
ROW 0B : D-4 01 2 ... ... : ... .. . ... ... : ... .. . ... : ... .. . ... : ... .. . ...
ROW 0C : D-3 01 5 ... ... : A-4 0A 5 V01 ... : E-3 12 . ... : 7-# 13 C ... : ... .. . F05
ROW 0D : A-3 01 2 ... ... : ... .. . ... ... : ... .. . ... : ... .. . ... : ... .. . ...
ROW 0E : D-3 14 3 ... ... : F#4 0A . ... ... : G-1 00 . ... : C-# 0E . ... : ... .. . F03
ROW 0F : ... .. 4 ... ... : ... .. . ... ... : ... .. . ... : ... .. . ... : ... .. . ...
ROW 10 : ... .. 5 ... ... : A-4 0A 6 ... ... : ... .. . ... : F-# 1C . ... : ... .. . F05
ROW 11 : ... .. 6 ... ... : ... .. . ... ... : ... .. . ... : ... .. . ... : ... .. . ...
ROW 12 : D-3 01 5 ... ... : F#4 0A 7 ... ... : ... .. . ... : C-# 0E . ... : ... .. . F03
ROW 13 : ... .. . ... ... : ... .. . ... ... : ... .. . ... : ... .. . ... : ... .. . ...
ROW 14 : D-4 01 . ... ... : A-4 0A 8 ... ... : ... .. . ... : F-# 1C . ... : ... .. . F05
ROW 15 : D-3 01 2 ... ... : ... .. . ... ... : ... .. . ... : ... .. . ... : ... .. . ...
ROW 16 : A-3 01 5 ... ... : F#4 0A 9 ... ... : ... .. . ... : F-# 1C 7 ... : ... .. . F03
ROW 17 : D-4 01 2 ... ... : ... .. . ... ... : ... .. . ... : ... .. . ... : ... .. . ...
ROW 18 : E-3 01 5 ... ... : A-4 0A A ... ... : G-1 17 . ... : F-# 1C C ... : ... .. . F05
ROW 19 : A-3 01 2 ... ... : B-4 0A . 303 ... : A-1 00 . ... : ... .. . ... : ... .. . ...
ROW 1A : A-3 01 5 ... ... : ... .. . ... ... : ... .. . ... : F-# 1C 7 ... : ... .. . F03
ROW 1B : E-3 01 2 ... ... : ... .. . ... ... : ... .. . ... : ... .. . ... : ... .. . ...
ROW 1C : E-3 15 5 ... ... : A-4 0A B ... ... : ... .. . ... : F-# 1C C ... : ... .. . F05
ROW 1D : A-3 01 2 ... ... : ... .. . ... ... : ... .. . ... : ... .. . ... : ... .. . ...
ROW 1E : E-3 01 5 ... ... : ... .. . ... ... : E-3 12 . ... : 7-# 13 . ... : ... .. . F03
ROW 1F : E-3 15 2 ... ... : ... .. . ... ... : ... .. . ... : ... .. . ... : ... .. . ...
ROW 20 : D-4 01 5 ... ... : F#4 0A A 300 ... : A-1 00 . ... : F-# 1C C ... : ... .. . F05
ROW 21 : E-3 01 2 ... ... : ... .. . ... ... : ... .. . ... : ... .. . ... : ... .. . ...
ROW 22 : A-3 01 5 ... ... : ... .. . 453 ... : ... .. . ... : F-# 1C 7 ... : ... .. . F03
ROW 23 : D-4 01 2 ... ... : ... .. . ... ... : ... .. . ... : ... .. . ... : ... .. . ...
ROW 24 : F#3 01 5 ... ... : E-4 0A 9 400 ... : B-1 00 . ... : F-# 1C C ... : ... .. . F05
ROW 25 : A-3 01 2 ... ... : ... .. . ... ... : ... .. . ... : ... .. . ... : ... .. . ...
ROW 26 : B-3 01 5 ... ... : ... .. . ... ... : ... .. . ... : F-# 1C 7 ... : ... .. . F03
ROW 27 : F#3 01 2 ... ... : ... .. . ... ... : ... .. . ... : ... .. . ... : ... .. . ...
ROW 28 : F#3 16 5 ... ... : D-4 0A 8 ... ... : E-3 12 . ... : 7-# 13 C ... : ... .. . F05
ROW 29 : B-3 01 2 ... ... : ... .. . ... ... : B-1 00 . ... : ... .. . ... : ... .. . ...
ROW 2A : F#3 01 5 ... ... : ... .. . ... ... : ... .. . ... : F-# 1C 7 ... : ... .. . F03
ROW 2B : F#3 16 2 ... ... : ... .. . ... ... : ... .. . ... : ... .. . ... : ... .. . ...
ROW 2C : D-4 01 5 ... ... : C#4 0A 7 ... ... : E-3 12 . ... : 7-# 13 C ... : ... .. . F05
ROW 2D : F#3 01 2 ... ... : ... .. . ... ... : B-1 00 . ... : ... .. . ... : ... .. . ...
ROW 2E : A-3 01 5 ... ... : ... .. . ... ... : ... .. . ... : F-# 1C 7 ... : ... .. . F03
ROW 2F : D-4 01 2 ... ... : ... .. . ... ... : ... .. . ... : ... .. . ... : ... .. . ...

PATTERN 27
ROW 00 : D-3 01 5 P7E ... : D-4 00 1 V00 ... : G-1 17 . ... : F-# 1C C ... : ... .. . F05
ROW 01 : ... .. . ... ... : ... .. . ... ... : ... .. . ... : ... .. . ... : ... .. . ...
ROW 02 : G-3 01 . ... ... : ... .. 2 ... ... : ... .. . ... : F-# 1C 7 ... : ... .. . F03
ROW 03 : D-3 01 2 ... ... : ... .. . ... ... : ... .. . ... : ... .. . ... : ... .. . ...
ROW 04 : A-3 01 5 ... ... : ... .. 3 ... ... : ... .. . ... : F-# 1C C ... : ... .. . F05
ROW 05 : G-3 01 2 ... ... : ... .. . ... ... : ... .. . ... : ... .. . ... : ... .. . ...
ROW 06 : ... .. . ... ... : ... .. 4 ... ... : ... .. . ... : C-# 0E . ... : ... .. . F03
ROW 07 : A-3 01 2 ... ... : ... .. . ... ... : ... .. . ... : ... .. . ... : ... .. . ...
ROW 08 : D-4 01 5 ... ... : ... .. 5 ... ... : ... .. . ... : F-# 1C . ... : ... .. . F05
ROW 09 : D-3 14 2 ... ... : ... .. . ... ... : ... .. . ... : ... .. . ... : ... .. . ...
ROW 0A : A-3 01 5 ... ... : ... .. 6 ... ... : ... .. . ... : F-# 1C 7 ... : ... .. . F03
ROW 0B : D-4 01 2 ... ... : ... .. . ... ... : ... .. . ... : ... .. . ... : ... .. . ...
ROW 0C : D-3 01 5 ... ... : C#4 0A 8 V01 ... : E-3 12 . ... : 7-# 13 C ... : ... .. . F05
ROW 0D : A-3 01 2 ... ... : ... .. . ... ... : ... .. . ... : ... .. . ... : ... .. . ...
ROW 0E : D-3 14 3 ... ... : ... .. . ... ... : G-1 00 . ... : C-# 0E . ... : ... .. . F03
ROW 0F : ... .. 4 ... ... : ... .. . ... ... : ... .. . ... : ... .. . ... : ... .. . ...
ROW 10 : ... .. 5 ... ... : ... .. . ... ... : ... .. . ... : F-# 1C . ... : ... .. . F05
ROW 11 : ... .. 6 ... ... : ... .. . ... ... : ... .. . ... : ... .. . ... : ... .. . ...
ROW 12 : D-3 01 5 ... ... : ... .. . ... ... : ... .. . ... : C-# 0E . ... : ... .. . F03
ROW 13 : ... .. . ... ... : ... .. . ... ... : ... .. . ... : ... .. . ... : ... .. . ...
ROW 14 : D-4 01 . ... ... : ... .. . ... ... : ... .. . ... : F-# 1C . ... : ... .. . F05
ROW 15 : D-3 01 2 ... ... : ... .. . ... ... : ... .. . ... : ... .. . ... : ... .. . ...
ROW 16 : A-3 01 5 ... ... : ... .. . ... ... : ... .. . ... : F-# 1C 7 ... : ... .. . F03
ROW 17 : D-4 01 2 ... ... : ... .. . ... ... : ... .. . ... : ... .. . ... : ... .. . ...
ROW 18 : E-3 01 5 ... ... : B-3 00 1 V00 ... : G-1 17 . ... : F-# 1C C ... : ... .. . F05
ROW 19 : A-3 01 2 ... ... : ... .. . ... ... : A-1 00 . ... : ... .. . ... : ... .. . ...
ROW 1A : A-3 01 5 ... ... : ... .. 2 ... ... : ... .. . ... : F-# 1C 7 ... : ... .. . F03
ROW 1B : E-3 01 2 ... ... : ... .. . ... ... : ... .. . ... : ... .. . ... : ... .. . ...
ROW 1C : E-3 15 5 ... ... : ... .. 3 ... ... : ... .. . ... : F-# 1C C ... : ... .. . F05
ROW 1D : A-3 01 2 ... ... : ... .. . ... ... : ... .. . ... : ... .. . ... : ... .. . ...
ROW 1E : E-3 01 5 ... ... : ... .. 4 ... ... : E-3 12 . ... : 7-# 13 . ... : ... .. . F03
ROW 1F : E-3 15 2 ... ... : ... .. . ... ... : ... .. . ... : ... .. . ... : ... .. . ...
ROW 20 : D-4 01 5 ... ... : ... .. 5 ... ... : A-1 00 . ... : F-# 1C C ... : ... .. . F05
ROW 21 : E-3 01 2 ... ... : ... .. . ... ... : ... .. . ... : ... .. . ... : ... .. . ...
ROW 22 : A-3 01 5 ... ... : ... .. 6 ... ... : ... .. . ... : F-# 1C 7 ... : ... .. . F03
ROW 23 : D-4 01 2 ... ... : ... .. . ... ... : ... .. . ... : ... .. . ... : ... .. . ...
ROW 24 : F#3 01 5 ... ... : C#4 0A A V01 ... : B-1 00 . ... : F-# 1C C ... : ... .. . F05
ROW 25 : A-3 01 2 ... ... : ... .. . ... ... : ... .. . ... : ... .. . ... : ... .. . ...
ROW 26 : B-3 01 5 ... ... : ... .. . ... ... : ... .. . ... : F-# 1C 7 ... : ... .. . F03
ROW 27 : F#3 01 2 ... ... : ... .. . ... ... : ... .. . ... : ... .. . ... : ... .. . ...
ROW 28 : F#3 16 5 ... ... : ... .. . ... ... : E-3 12 . ... : 7-# 13 C ... : ... .. . F05
ROW 29 : B-3 01 2 ... ... : ... .. . ... ... : B-1 00 . ... : ... .. . ... : ... .. . ...
ROW 2A : F#3 01 5 ... ... : ... .. . ... ... : ... .. . ... : F-# 1C 7 ... : ... .. . F03
ROW 2B : F#3 16 2 ... ... : ... .. . ... ... : ... .. . ... : ... .. . ... : ... .. . ...
ROW 2C : D-4 01 5 ... ... : ... .. . ... ... : E-3 12 . ... : 7-# 13 C ... : ... .. . F05
ROW 2D : F#3 01 2 ... ... : ... .. . ... ... : B-1 00 . ... : ... .. . ... : ... .. . ...
ROW 2E : A-3 01 5 ... ... : ... .. . ... ... : ... .. . ... : F-# 1C 7 ... : ... .. . F03
ROW 2F : D-4 01 2 ... ... : ... .. . ... ... : ... .. . ... : ... .. . ... : ... .. . ...

PATTERN 28
ROW 00 : D-3 00 7 V00 ... : C#3 00 9 V00 P80 : G-1 17 . ... : F-# 1C C ... : ... .. . F05
ROW 01 : ... .. 6 ... ... : ... .. 8 ... P81 : ... .. . ... : ... .. . ... : ... .. . ...
ROW 02 : ... .. 5 ... ... : ... .. 7 ... P82 : ... .. . ... : F-# 1C 7 ... : ... .. . F03
ROW 03 : ... .. . ... ... : ... .. 6 ... P83 : ... .. . ... : ... .. . ... : ... .. . ...
ROW 04 : ... .. 4 ... ... : ... .. 5 ... P84 : G-2 00 . ... : F-# 1C C ... : ... .. . F05
ROW 05 : ... .. . ... ... : ... .. . ... P85 : ... .. . ... : ... .. . ... : ... .. . ...
ROW 06 : ... .. . ... ... : ... .. . ... P86 : ... .. . ... : C-# 0E . ... : ... .. . F03
ROW 07 : ... .. . ... ... : ... .. . ... P87 : ... .. . ... : ... .. . ... : ... .. . ...
ROW 08 : ... .. 3 ... ... : ... .. 4 ... P88 : G-1 00 . ... : F-# 1C . ... : ... .. . F05
ROW 09 : ... .. . ... ... : ... .. . ... P89 : ... .. . ... : ... .. . ... : ... .. . ...
ROW 0A : ... .. . ... ... : ... .. . ... P8A : ... .. . ... : F-# 1C 7 ... : ... .. . F03
ROW 0B : ... .. . ... ... : ... .. . ... P8B : ... .. . ... : ... .. . ... : ... .. . ...
ROW 0C : ... .. 2 ... ... : ... .. 3 ... P8C : G-1 17 . ... : F-# 1C C ... : ... .. . F05
ROW 0D : ... .. . ... ... : ... .. . ... P8D : ... .. . ... : ... .. . ... : ... .. . ...
ROW 0E : ... .. . ... ... : ... .. . ... P8F : ... .. . ... : C-# 0E . ... : ... .. . F03
ROW 0F : ... .. . ... ... : ... .. . ... P92 : ... .. . ... : ... .. . ... : ... .. . ...
ROW 10 : ... .. 1 ... ... : ... .. 2 ... P95 : ... .. . ... : F-# 1C . ... : ... .. . F05
ROW 11 : ... .. . ... ... : ... .. . ... ... : ... .. . ... : ... .. . ... : ... .. . ...
ROW 12 : ... .. . ... ... : ... .. . ... ... : ... .. . ... : C-# 0E . ... : ... .. . F03
ROW 13 : ... .. . ... ... : ... .. . ... ... : ... .. . ... : ... .. . ... : ... .. . ...
ROW 14 : ... .. . ... ... : ... .. 1 453 ... : ... .. . ... : F-# 1C . ... : ... .. . F05
ROW 15 : ... .. . ... ... : ... .. . ... ... : ... .. . ... : ... .. . ... : ... .. . ...
ROW 16 : ... .. . ... ... : ... .. . ... ... : ... .. . ... : F-# 1C 7 ... : ... .. . F03
ROW 17 : ... .. . ... ... : ... .. . ... ... : ... .. . ... : ... .. . ... : ... .. . ...
ROW 18 : E-3 01 5 ... ... : B-3 0A 1 400 P80 : G-1 17 . ... : F-# 1C C ... : ... .. . F05
ROW 19 : A-3 01 2 ... ... : ... .. 2 ... ... : A-1 00 . ... : ... .. . ... : ... .. . ...
ROW 1A : A-3 01 5 ... ... : ... .. 3 ... ... : ... .. . ... : F-# 1C 7 ... : ... .. . F03
ROW 1B : E-3 01 2 ... ... : ... .. 4 ... ... : ... .. . ... : ... .. . ... : ... .. . ...
ROW 1C : E-3 15 5 ... ... : ... .. 5 ... ... : ... .. . ... : F-# 1C C ... : ... .. . F05
ROW 1D : A-3 01 2 ... ... : ... .. 6 ... ... : ... .. . ... : ... .. . ... : ... .. . ...
ROW 1E : E-3 01 5 ... ... : ... .. 7 ... ... : E-3 12 . ... : 7-# 13 . ... : ... .. . F03
ROW 1F : E-3 15 2 ... ... : ... .. 8 ... ... : ... .. . ... : ... .. . ... : ... .. . ...
ROW 20 : D-4 01 5 ... ... : ... .. 9 ... ... : A-1 00 . ... : F-# 1C C ... : ... .. . F05
ROW 21 : E-3 01 2 ... ... : ... .. A ... ... : ... .. . ... : ... .. . ... : ... .. . ...
ROW 22 : A-3 01 5 ... ... : ... .. B ... ... : ... .. . ... : F-# 1C 7 ... : ... .. . F03
ROW 23 : D-4 01 2 ... ... : ... .. C ... ... : ... .. . ... : ... .. . ... : ... .. . ...
ROW 24 : F#3 01 5 ... ... : C#4 0A 8 V01 ... : B-1 00 . ... : F-# 1C C ... : ... .. . F05
ROW 25 : A-3 01 2 ... ... : ... .. . ... ... : ... .. . ... : ... .. . ... : ... .. . ...
ROW 26 : B-3 01 5 ... ... : ... .. . ... ... : ... .. . ... : F-# 1C 7 ... : ... .. . F03
ROW 27 : F#3 01 2 ... ... : ... .. . ... ... : ... .. . ... : ... .. . ... : ... .. . ...
ROW 28 : F#3 16 5 ... ... : ... .. . ... ... : E-3 12 . ... : 7-# 13 C ... : ... .. . F05
ROW 29 : B-3 01 2 ... ... : ... .. . ... ... : B-1 00 . ... : ... .. . ... : ... .. . ...
ROW 2A : F#3 01 5 ... ... : ... .. . ... ... : ... .. . ... : F-# 1C 7 ... : ... .. . F03
ROW 2B : F#3 16 2 ... ... : ... .. . ... ... : ... .. . ... : ... .. . ... : ... .. . ...
ROW 2C : D-4 01 5 ... ... : ... .. . ... ... : E-3 12 . ... : 7-# 13 C ... : ... .. . F05
ROW 2D : F#3 01 2 ... ... : ... .. . ... ... : B-1 00 . ... : ... .. . ... : ... .. . ...
ROW 2E : A-3 01 5 ... ... : ... .. . ... ... : ... .. . ... : F-# 1C 7 ... : ... .. . F03
ROW 2F : D-4 01 2 ... ... : ... .. . ... ... : ... .. . ... : ... .. . ... : ... .. . ...

PATTERN 29
ROW 00 : D-3 00 7 V00 ... : C#3 00 9 V00 P80 : G-1 17 . ... : F-# 1C C ... : ... .. . F05
ROW 01 : ... .. 6 ... ... : ... .. 8 ... P81 : ... .. . ... : ... .. . ... : ... .. . ...
ROW 02 : ... .. 5 ... ... : ... .. 7 ... P82 : ... .. . ... : F-# 1C 7 ... : ... .. . F03
ROW 03 : ... .. . ... ... : ... .. 6 ... P83 : ... .. . ... : ... .. . ... : ... .. . ...
ROW 04 : ... .. 4 ... ... : ... .. 5 ... P84 : G-2 00 . ... : F-# 1C C ... : ... .. . F05
ROW 05 : ... .. . ... ... : ... .. . ... P85 : ... .. . ... : ... .. . ... : ... .. . ...
ROW 06 : ... .. . ... ... : ... .. . ... P86 : ... .. . ... : C-# 0E . ... : ... .. . F03
ROW 07 : ... .. . ... ... : ... .. . ... P87 : ... .. . ... : ... .. . ... : ... .. . ...
ROW 08 : ... .. 3 ... ... : ... .. 4 ... P88 : G-1 00 . ... : F-# 1C . ... : ... .. . F05
ROW 09 : ... .. . ... ... : ... .. . ... P89 : ... .. . ... : ... .. . ... : ... .. . ...
ROW 0A : ... .. . ... ... : ... .. . ... P8A : ... .. . ... : F-# 1C 7 ... : ... .. . F03
ROW 0B : ... .. . ... ... : ... .. . ... P8B : ... .. . ... : ... .. . ... : ... .. . ...
ROW 0C : ... .. 2 ... ... : ... .. 3 ... P8C : G-1 17 . ... : F-# 1C C ... : ... .. . F05
ROW 0D : ... .. . ... ... : ... .. . ... P8D : ... .. . ... : ... .. . ... : ... .. . ...
ROW 0E : ... .. . ... ... : ... .. . ... P8F : ... .. . ... : C-# 0E . ... : ... .. . F03
ROW 0F : ... .. . ... ... : ... .. . ... P92 : ... .. . ... : ... .. . ... : ... .. . ...
ROW 10 : ... .. 1 ... ... : ... .. 2 ... P95 : ... .. . ... : F-# 1C . ... : ... .. . F05
ROW 11 : ... .. . ... ... : ... .. . ... ... : ... .. . ... : ... .. . ... : ... .. . ...
ROW 12 : ... .. . ... ... : ... .. . ... ... : ... .. . ... : C-# 0E . ... : ... .. . F03
ROW 13 : ... .. . ... ... : ... .. . ... ... : ... .. . ... : ... .. . ... : ... .. . ...
ROW 14 : ... .. . ... ... : ... .. 1 453 ... : ... .. . ... : F-# 1C . ... : ... .. . F05
ROW 15 : ... .. . ... ... : ... .. . ... ... : ... .. . ... : ... .. . ... : ... .. . ...
ROW 16 : ... .. . ... ... : ... .. . ... ... : ... .. . ... : F-# 1C 7 ... : ... .. . F03
ROW 17 : ... .. . ... ... : ... .. . ... ... : ... .. . ... : ... .. . ... : ... .. . ...
ROW 18 : E-3 01 5 ... ... : B-3 0A 1 400 P80 : G-1 17 . ... : F-# 1C C ... : ... .. . F05
ROW 19 : A-3 01 2 ... ... : ... .. 2 ... ... : A-1 00 . ... : ... .. . ... : ... .. . ...
ROW 1A : A-3 01 5 ... ... : ... .. 3 ... ... : ... .. . ... : F-# 1C 7 ... : ... .. . F03
ROW 1B : E-3 01 2 ... ... : ... .. 4 ... ... : ... .. . ... : ... .. . ... : ... .. . ...
ROW 1C : E-3 15 5 ... ... : ... .. 5 ... ... : ... .. . ... : F-# 1C C ... : ... .. . F05
ROW 1D : A-3 01 2 ... ... : ... .. 6 ... ... : ... .. . ... : ... .. . ... : ... .. . ...
ROW 1E : E-3 01 5 ... ... : ... .. 7 ... ... : E-3 12 . ... : 7-# 13 . ... : ... .. . F03
ROW 1F : E-3 15 2 ... ... : ... .. 8 ... ... : ... .. . ... : ... .. . ... : ... .. . ...
ROW 20 : D-4 01 5 ... ... : ... .. 9 ... ... : A-1 00 . ... : F-# 1C C ... : ... .. . F05
ROW 21 : E-3 01 2 ... ... : ... .. A ... ... : ... .. . ... : ... .. . ... : ... .. . ...
ROW 22 : A-3 01 5 ... ... : ... .. B ... ... : ... .. . ... : F-# 1C 7 ... : ... .. . F03
ROW 23 : D-4 01 2 ... ... : ... .. C ... ... : ... .. . ... : ... .. . ... : ... .. . ...
ROW 24 : F#3 01 5 ... ... : C#4 0A A V01 ... : B-1 00 . ... : F-# 1C C ... : ... .. . F05
ROW 25 : ... .. . ... ... : ... .. . ... ... : ... .. . ... : ... .. . ... : ... .. . ...
ROW 26 : E-3 01 5 ... ... : ... .. . ... ... : ... .. . ... : F-# 1C 7 ... : ... .. . F04
ROW 27 : F#3 01 2 ... ... : ... .. . ... ... : ... .. . ... : ... .. . ... : ... .. . ...
ROW 28 : B-3 01 5 ... ... : ... .. . ... ... : E-3 12 . ... : 7-# 13 C ... : ... .. . F06
ROW 29 : E-3 01 2 ... ... : ... .. . ... ... : B-1 00 . ... : ... .. . ... : ... .. . ...
ROW 2A : E-3 01 4 ... ... : ... .. . ... ... : ... .. . ... : F-# 1C 7 ... : ... .. . F03
ROW 2B : B-3 01 2 ... ... : ... .. . ... ... : ... .. . ... : ... .. . ... : ... .. . ...
ROW 2C : C#4 01 4 ... ... : ... .. . ... ... : E-3 12 . ... : 7-# 13 C ... : ... .. . F06
ROW 2D : E-3 01 2 ... ... : ... .. . ... ... : B-1 00 . ... : ... .. . ... : ... .. . ...
ROW 2E : D-4 01 3 ... ... : ... .. . ... ... : ... .. . ... : F-# 1C 7 ... : ... .. . F05
ROW 2F : C#4 01 2 ... ... : ... .. . ... ... : ... .. . ... : ... .. . ... : ... .. . ...

PATTERN 2A
ROW 00 : A-3 19 1 V00 ... : F#3 19 1 V02 ... : G-1 17 . ... : ... .. . ... : ... .. . F06
ROW 01 : ... .. . ... ... : ... .. . ... ... : ... .. . ... : ... .. . ... : ... .. . ...
ROW 02 : ... .. 2 ... ... : ... .. 2 ... ... : ... .. . ... : ... .. . ... : ... .. . F04
ROW 03 : ... .. . ... ... : ... .. . ... ... : ... .. . ... : ... .. . ... : ... .. . ...
ROW 04 : ... .. 3 V01 ... : ... .. 3 ... ... : ... .. . ... : F-# 1C 9 ... : ... .. . F06
ROW 05 : ... .. . ... ... : ... .. . ... ... : ... .. . ... : ... .. . ... : ... .. . ...
ROW 06 : ... .. 4 ... ... : ... .. 4 ... ... : ... .. . ... : B-# 0E . ... : ... .. . F04
ROW 07 : ... .. . ... ... : ... .. . ... ... : ... .. . ... : ... .. . ... : ... .. . ...
ROW 08 : ... .. 3 ... ... : ... .. 3 ... ... : ... .. . ... : F-# 1C . ... : ... .. . F06
ROW 09 : ... .. . ... ... : ... .. . ... ... : ... .. . ... : ... .. . ... : ... .. . ...
ROW 0A : ... .. 2 ... ... : ... .. 2 ... ... : ... .. . ... : ... .. . ... : ... .. . F04
ROW 0B : ... .. . ... ... : ... .. . ... ... : ... .. . ... : ... .. . ... : ... .. . ...
ROW 0C : A-3 19 1 V00 ... : E-3 19 1 ... ... : G-1 17 . ... : ... .. . ... : ... .. . F06
ROW 0D : ... .. . ... ... : ... .. . ... ... : G-2 00 . ... : ... .. . ... : ... .. . ...
ROW 0E : ... .. 2 ... ... : ... .. 2 ... ... : ... .. . ... : ... .. . ... : ... .. . F04
ROW 0F : ... .. . ... ... : ... .. . ... ... : ... .. . ... : ... .. . ... : ... .. . ...
ROW 10 : ... .. 3 V01 ... : ... .. 3 ... ... : ... .. . ... : F-# 1C . ... : ... .. . F06
ROW 11 : ... .. . ... ... : ... .. . ... ... : ... .. . ... : ... .. . ... : ... .. . ...
ROW 12 : ... .. 4 ... ... : ... .. 4 ... ... : ... .. . ... : ... .. . ... : ... .. . F04
ROW 13 : ... .. . ... ... : ... .. . ... ... : ... .. . ... : ... .. . ... : ... .. . ...
ROW 14 : ... .. 3 ... ... : ... .. 3 ... ... : ... .. . ... : F-# 1C . ... : ... .. . F06
ROW 15 : ... .. . ... ... : ... .. . ... ... : ... .. . ... : ... .. . ... : ... .. . ...
ROW 16 : ... .. 2 ... ... : ... .. 2 ... ... : ... .. . ... : ... .. . ... : ... .. . F04
ROW 17 : ... .. . ... ... : ... .. . ... ... : ... .. . ... : ... .. . ... : ... .. . ...
ROW 18 : A-3 19 1 V00 ... : D-3 19 1 ... ... : G-1 17 . ... : ... .. . ... : ... .. . F06
ROW 19 : ... .. . ... ... : ... .. . ... ... : A-2 00 . ... : ... .. . ... : ... .. . ...
ROW 1A : ... .. 2 ... ... : ... .. 2 ... ... : ... .. . ... : ... .. . ... : ... .. . F04
ROW 1B : ... .. . ... ... : ... .. . ... ... : ... .. . ... : ... .. . ... : ... .. . ...
ROW 1C : ... .. 3 V01 ... : ... .. 3 ... ... : ... .. . ... : F-# 1C . ... : ... .. . F06
ROW 1D : ... .. . ... ... : ... .. . ... ... : ... .. . ... : ... .. . ... : ... .. . ...
ROW 1E : ... .. 4 ... ... : ... .. 4 ... ... : ... .. . ... : ... .. . ... : ... .. . F04
ROW 1F : ... .. . ... ... : ... .. . ... ... : ... .. . ... : ... .. . ... : ... .. . ...
ROW 20 : ... .. 3 ... ... : ... .. 3 ... ... : ... .. . ... : F-# 1C . ... : ... .. . F06
ROW 21 : ... .. . ... ... : ... .. . ... ... : ... .. . ... : ... .. . ... : ... .. . ...
ROW 22 : ... .. 2 ... ... : ... .. 2 ... ... : ... .. . ... : ... .. . ... : ... .. . F04
ROW 23 : ... .. . ... ... : ... .. . ... ... : ... .. . ... : ... .. . ... : ... .. . ...
ROW 24 : A-3 19 1 V00 ... : E-3 19 1 ... ... : G-1 17 . ... : ... .. . ... : ... .. . F06
ROW 25 : ... .. . ... ... : ... .. . ... ... : E-2 00 . ... : ... .. . ... : ... .. . ...
ROW 26 : ... .. 2 ... ... : ... .. 2 ... ... : ... .. . ... : ... .. . ... : ... .. . F04
ROW 27 : ... .. . ... ... : ... .. . ... ... : ... .. . ... : ... .. . ... : ... .. . ...
ROW 28 : ... .. 3 V01 ... : ... .. 3 ... ... : ... .. . ... : F-# 1C . ... : ... .. . F06
ROW 29 : ... .. . ... ... : ... .. . ... ... : ... .. . ... : ... .. . ... : ... .. . ...
ROW 2A : ... .. 4 ... ... : ... .. 4 ... ... : ... .. . ... : ... .. . ... : ... .. . F04
ROW 2B : ... .. . ... ... : ... .. . ... ... : ... .. . ... : ... .. . ... : ... .. . ...
ROW 2C : ... .. 3 ... ... : ... .. 3 ... ... : ... .. . ... : F-# 1C . ... : ... .. . F06
ROW 2D : ... .. . ... ... : ... .. . ... ... : ... .. . ... : ... .. . ... : ... .. . ...
ROW 2E : ... .. 2 ... ... : ... .. 2 ... ... : ... .. . ... : ... .. . ... : ... .. . F04
ROW 2F : ... .. . ... ... : ... .. . ... ... : ... .. . ... : ... .. . ... : ... .. . ...

PATTERN 2B
ROW 00 : A-3 19 1 V00 ... : F#3 19 1 V02 ... : G-1 17 . ... : ... .. . ... : ... .. . F06
ROW 01 : ... .. . ... ... : ... .. . ... ... : ... .. . ... : ... .. . ... : ... .. . ...
ROW 02 : ... .. 2 ... ... : ... .. 2 ... ... : G-1 02 . ... : ... .. . ... : ... .. . F04
ROW 03 : ... .. . ... ... : ... .. . ... ... : ... .. . ... : ... .. . ... : ... .. . ...
ROW 04 : ... .. 3 V01 ... : ... .. 3 ... ... : ... .. . ... : F-# 1C 9 ... : ... .. . F06
ROW 05 : ... .. . ... ... : ... .. . ... ... : ... .. . ... : ... .. . ... : ... .. . ...
ROW 06 : ... .. 4 ... ... : ... .. 4 ... ... : ... .. . ... : B-# 0E . ... : ... .. . F04
ROW 07 : ... .. . ... ... : ... .. . ... ... : ... .. . ... : ... .. . ... : ... .. . ...
ROW 08 : ... .. 3 ... ... : ... .. 3 ... ... : ... .. . ... : F-# 1C . ... : ... .. . F06
ROW 09 : ... .. . ... ... : ... .. . ... ... : ... .. . ... : ... .. . ... : ... .. . ...
ROW 0A : ... .. 2 ... ... : ... .. 2 ... ... : ... .. . ... : ... .. . ... : ... .. . F04
ROW 0B : ... .. . ... ... : ... .. . ... ... : ... .. . ... : ... .. . ... : ... .. . ...
ROW 0C : A-3 19 1 V00 ... : E-3 19 1 ... ... : G-1 17 . ... : ... .. . ... : ... .. . F06
ROW 0D : ... .. . ... ... : ... .. . ... ... : ... .. . ... : ... .. . ... : ... .. . ...
ROW 0E : ... .. 2 ... ... : ... .. 2 ... ... : G-1 02 . ... : ... .. . ... : ... .. . F04
ROW 0F : ... .. . ... ... : ... .. . ... ... : ... .. . ... : ... .. . ... : ... .. . ...
ROW 10 : ... .. 3 V01 ... : ... .. 3 ... ... : ... .. . ... : F-# 1C . ... : ... .. . F06
ROW 11 : ... .. . ... ... : ... .. . ... ... : ... .. . ... : ... .. . ... : ... .. . ...
ROW 12 : ... .. 4 ... ... : ... .. 4 ... ... : ... .. . ... : ... .. . ... : ... .. . F04
ROW 13 : ... .. . ... ... : ... .. . ... ... : ... .. . ... : ... .. . ... : ... .. . ...
ROW 14 : ... .. 3 ... ... : ... .. 3 ... ... : ... .. . ... : F-# 1C . ... : ... .. . F06
ROW 15 : ... .. . ... ... : ... .. . ... ... : ... .. . ... : ... .. . ... : ... .. . ...
ROW 16 : ... .. 2 ... ... : ... .. 2 ... ... : ... .. . ... : ... .. . ... : ... .. . F04
ROW 17 : ... .. . ... ... : F#3 19 . ... ... : ... .. . ... : ... .. . ... : ... .. . ...
ROW 18 : A-3 19 1 V00 ... : G-3 19 1 ... ... : G-1 17 . ... : ... .. . ... : ... .. . F06
ROW 19 : ... .. . ... ... : ... .. . ... ... : C-1 00 . ... : ... .. . ... : ... .. . ...
ROW 1A : ... .. 2 ... ... : ... .. 2 ... ... : ... .. . ... : ... .. . ... : ... .. . F04
ROW 1B : ... .. . ... ... : ... .. . ... ... : ... .. . ... : ... .. . ... : ... .. . ...
ROW 1C : ... .. 3 V01 ... : ... .. 3 ... ... : ... .. . ... : F-# 1C . ... : ... .. . F06
ROW 1D : ... .. . ... ... : ... .. . ... ... : ... .. . ... : ... .. . ... : ... .. . ...
ROW 1E : ... .. 4 ... ... : ... .. 4 ... ... : ... .. . ... : ... .. . ... : ... .. . F04
ROW 1F : ... .. . ... ... : ... .. . ... ... : ... .. . ... : ... .. . ... : ... .. . ...
ROW 20 : ... .. 3 ... ... : ... .. 3 ... ... : ... .. . ... : F-# 1C . ... : ... .. . F06
ROW 21 : ... .. . ... ... : ... .. . ... ... : ... .. . ... : ... .. . ... : ... .. . ...
ROW 22 : ... .. . ... ... : ... .. . ... ... : ... .. . ... : ... .. . ... : ... .. . F04
ROW 23 : ... .. . ... ... : ... .. . ... ... : ... .. . ... : ... .. . ... : ... .. . ...
ROW 24 : ... .. 2 ... ... : ... .. 2 ... ... : ... .. . ... : ... .. . ... : ... .. . F06
ROW 25 : ... .. . ... ... : ... .. . ... ... : ... .. . ... : ... .. . ... : ... .. . ...
ROW 26 : ... .. . ... ... : ... .. . ... ... : ... .. . ... : ... .. . ... : ... .. . F04
ROW 27 : ... .. . ... ... : ... .. . ... ... : ... .. . ... : ... .. . ... : ... .. . ...
ROW 28 : ... .. . ... ... : ... .. . ... ... : ... .. . ... : F-# 1C . ... : ... .. . F06
ROW 29 : ... .. . ... ... : ... .. . ... ... : ... .. . ... : ... .. . ... : ... .. . ...
ROW 2A : ... .. 1 ... ... : ... .. 1 ... ... : ... .. . ... : ... .. . ... : ... .. . F04
ROW 2B : ... .. . ... ... : ... .. . ... ... : ... .. . ... : ... .. . ... : ... .. . ...
ROW 2C : ... .. . ... ... : ... .. . ... ... : ... .. . ... : F-# 1C . ... : ... .. . F06
ROW 2D : ... .. . ... ... : ... .. . ... ... : ... .. . ... : ... .. . ... : ... .. . ...
ROW 2E : ... .. . ... ... : ... .. . ... ... : ... .. . ... : B-# 0E . ... : ... .. . F04
ROW 2F : ... .. . ... ... : ... .. . ... ... : ... .. . ... : ... .. . ... : ... .. . ...

PATTERN 2C
ROW 00 : A-3 1A 1 V00 ... : F#3 1A 1 V02 ... : G-1 17 . ... : --- .. . ... : ... .. . F06
ROW 01 : ... .. . ... ... : ... .. . ... ... : ... .. . ... : ... .. . ... : ... .. . ...
ROW 02 : ... .. 2 ... ... : ... .. 2 ... ... : ... .. . ... : ... .. . ... : ... .. . F04
ROW 03 : ... .. . ... ... : ... .. . ... ... : ... .. . ... : ... .. . ... : ... .. . ...
ROW 04 : ... .. 3 V01 ... : ... .. 3 ... ... : ... .. . ... : F-# 1C 9 ... : ... .. . F06
ROW 05 : ... .. . ... ... : ... .. . ... ... : ... .. . ... : ... .. . ... : ... .. . ...
ROW 06 : ... .. 4 ... ... : ... .. 4 ... ... : ... .. . ... : B-# 0E . ... : ... .. . F04
ROW 07 : ... .. . ... ... : ... .. . ... ... : ... .. . ... : ... .. . ... : ... .. . ...
ROW 08 : ... .. 3 ... ... : ... .. 3 ... ... : ... .. . ... : F-# 1C . ... : ... .. . F06
ROW 09 : ... .. . ... ... : ... .. . ... ... : ... .. . ... : ... .. . ... : ... .. . ...
ROW 0A : ... .. 2 ... ... : ... .. 2 ... ... : ... .. . ... : ... .. . ... : ... .. . F04
ROW 0B : ... .. . ... ... : ... .. . ... ... : ... .. . ... : ... .. . ... : ... .. . ...
ROW 0C : A-3 1A 1 V00 ... : E-3 1A 1 ... ... : G-1 17 . ... : ... .. . ... : ... .. . F06
ROW 0D : ... .. . ... ... : ... .. . ... ... : G-2 00 . ... : ... .. . ... : ... .. . ...
ROW 0E : ... .. 2 ... ... : ... .. 2 ... ... : ... .. . ... : ... .. . ... : ... .. . F04
ROW 0F : ... .. . ... ... : ... .. . ... ... : ... .. . ... : ... .. . ... : ... .. . ...
ROW 10 : ... .. 3 V01 ... : ... .. 3 ... ... : ... .. . ... : F-# 1C . ... : ... .. . F06
ROW 11 : ... .. . ... ... : ... .. . ... ... : ... .. . ... : ... .. . ... : ... .. . ...
ROW 12 : ... .. 4 ... ... : ... .. 4 ... ... : ... .. . ... : ... .. . ... : ... .. . F04
ROW 13 : ... .. . ... ... : ... .. . ... ... : ... .. . ... : ... .. . ... : ... .. . ...
ROW 14 : ... .. 3 ... ... : ... .. 3 ... ... : ... .. . ... : F-# 1C . ... : ... .. . F06
ROW 15 : ... .. . ... ... : ... .. . ... ... : ... .. . ... : ... .. . ... : ... .. . ...
ROW 16 : ... .. 2 ... ... : ... .. 2 ... ... : ... .. . ... : ... .. . ... : ... .. . F04
ROW 17 : ... .. . ... ... : ... .. . ... ... : ... .. . ... : ... .. . ... : ... .. . ...
ROW 18 : A-3 1A 1 V00 ... : D-3 1A 1 ... ... : G-1 17 . ... : ... .. . ... : ... .. . F06
ROW 19 : ... .. . ... ... : ... .. . ... ... : A-2 00 . ... : ... .. . ... : ... .. . ...
ROW 1A : ... .. 2 ... ... : ... .. 2 ... ... : ... .. . ... : ... .. . ... : ... .. . F04
ROW 1B : ... .. . ... ... : ... .. . ... ... : ... .. . ... : ... .. . ... : ... .. . ...
ROW 1C : ... .. 3 V01 ... : ... .. 3 ... ... : ... .. . ... : F-# 1C . ... : ... .. . F06
ROW 1D : ... .. . ... ... : ... .. . ... ... : ... .. . ... : ... .. . ... : ... .. . ...
ROW 1E : ... .. 4 ... ... : ... .. 4 ... ... : ... .. . ... : ... .. . ... : ... .. . F04
ROW 1F : ... .. . ... ... : ... .. . ... ... : ... .. . ... : ... .. . ... : ... .. . ...
ROW 20 : ... .. 3 ... ... : ... .. 3 ... ... : ... .. . ... : F-# 1C . ... : ... .. . F06
ROW 21 : ... .. . ... ... : ... .. . ... ... : ... .. . ... : ... .. . ... : ... .. . ...
ROW 22 : ... .. 2 ... ... : ... .. 2 ... ... : ... .. . ... : ... .. . ... : ... .. . F04
ROW 23 : ... .. . ... ... : ... .. . ... ... : ... .. . ... : ... .. . ... : ... .. . ...
ROW 24 : A-3 1A 1 V00 ... : E-3 1A 1 ... ... : G-1 17 . ... : ... .. . ... : ... .. . F06
ROW 25 : ... .. . ... ... : ... .. . ... ... : E-2 00 . ... : ... .. . ... : ... .. . ...
ROW 26 : ... .. 2 ... ... : ... .. 2 ... ... : ... .. . ... : ... .. . ... : ... .. . F04
ROW 27 : ... .. . ... ... : ... .. . ... ... : ... .. . ... : ... .. . ... : ... .. . ...
ROW 28 : ... .. 3 V01 ... : ... .. 3 ... ... : ... .. . ... : F-# 1C . ... : ... .. . F06
ROW 29 : ... .. . ... ... : ... .. . ... ... : ... .. . ... : ... .. . ... : ... .. . ...
ROW 2A : ... .. 4 ... ... : ... .. 4 ... ... : ... .. . ... : ... .. . ... : ... .. . F04
ROW 2B : ... .. . ... ... : ... .. . ... ... : ... .. . ... : ... .. . ... : ... .. . ...
ROW 2C : ... .. 3 ... ... : ... .. 3 ... ... : ... .. . ... : F-# 1C . ... : ... .. . F06
ROW 2D : ... .. . ... ... : ... .. . ... ... : ... .. . ... : ... .. . ... : ... .. . ...
ROW 2E : ... .. 2 ... ... : ... .. 2 ... ... : ... .. . ... : ... .. . ... : ... .. . F04
ROW 2F : ... .. . ... ... : ... .. . ... ... : ... .. . ... : ... .. . ... : ... .. . ...

PATTERN 2D
ROW 00 : A-3 1A 1 V00 ... : F#3 1A 1 V02 ... : G-1 17 . ... : ... .. . ... : ... .. . F06
ROW 01 : ... .. . ... ... : ... .. . ... ... : ... .. . ... : ... .. . ... : ... .. . ...
ROW 02 : ... .. 2 ... ... : ... .. 2 ... ... : G-1 02 . ... : ... .. . ... : ... .. . F04
ROW 03 : ... .. . ... ... : ... .. . ... ... : ... .. . ... : ... .. . ... : ... .. . ...
ROW 04 : ... .. 3 V01 ... : ... .. 3 ... ... : ... .. . ... : F-# 1C 9 ... : ... .. . F06
ROW 05 : ... .. . ... ... : ... .. . ... ... : ... .. . ... : ... .. . ... : ... .. . ...
ROW 06 : ... .. 4 ... ... : ... .. 4 ... ... : ... .. . ... : B-# 0E . ... : ... .. . F04
ROW 07 : ... .. . ... ... : ... .. . ... ... : ... .. . ... : ... .. . ... : ... .. . ...
ROW 08 : ... .. 3 ... ... : ... .. 3 ... ... : ... .. . ... : F-# 1C . ... : ... .. . F06
ROW 09 : ... .. . ... ... : ... .. . ... ... : ... .. . ... : ... .. . ... : ... .. . ...
ROW 0A : ... .. 2 ... ... : ... .. 2 ... ... : ... .. . ... : ... .. . ... : ... .. . F04
ROW 0B : ... .. . ... ... : ... .. . ... ... : ... .. . ... : ... .. . ... : ... .. . ...
ROW 0C : A-3 1A 1 V00 ... : E-3 1A 1 ... ... : G-1 17 . ... : ... .. . ... : ... .. . F06
ROW 0D : ... .. . ... ... : ... .. . ... ... : ... .. . ... : ... .. . ... : ... .. . ...
ROW 0E : ... .. 2 ... ... : ... .. 2 ... ... : G-1 02 . ... : ... .. . ... : ... .. . F04
ROW 0F : ... .. . ... ... : ... .. . ... ... : ... .. . ... : ... .. . ... : ... .. . ...
ROW 10 : ... .. 3 V01 ... : ... .. 3 ... ... : ... .. . ... : F-# 1C . ... : ... .. . F06
ROW 11 : ... .. . ... ... : ... .. . ... ... : ... .. . ... : ... .. . ... : ... .. . ...
ROW 12 : ... .. 4 ... ... : ... .. 4 ... ... : ... .. . ... : ... .. . ... : ... .. . F04
ROW 13 : ... .. . ... ... : ... .. . ... ... : ... .. . ... : ... .. . ... : ... .. . ...
ROW 14 : ... .. 3 ... ... : ... .. 3 ... ... : ... .. . ... : F-# 1C . ... : ... .. . F06
ROW 15 : ... .. . ... ... : ... .. . ... ... : ... .. . ... : ... .. . ... : ... .. . ...
ROW 16 : ... .. 2 ... ... : ... .. 2 ... ... : ... .. . ... : ... .. . ... : ... .. . F04
ROW 17 : ... .. . ... ... : F#3 1A . ... ... : ... .. . ... : ... .. . ... : ... .. . ...
ROW 18 : A-3 1A 1 V00 ... : G-3 1A 1 ... ... : G-1 17 . ... : ... .. . ... : ... .. . F06
ROW 19 : ... .. . ... ... : ... .. . ... ... : C-1 00 . 308 : ... .. . ... : ... .. . ...
ROW 1A : ... .. 2 ... ... : ... .. 2 ... ... : ... .. . 30F : ... .. . ... : ... .. . F04
ROW 1B : ... .. . ... ... : ... .. . ... ... : ... .. . 318 : ... .. . ... : ... .. . ...
ROW 1C : ... .. 3 V01 ... : ... .. 3 ... ... : ... .. . 31F : F-# 1C . ... : ... .. . F06
ROW 1D : ... .. . ... ... : ... .. . ... ... : ... .. . ... : ... .. . ... : ... .. . ...
ROW 1E : ... .. 4 ... ... : ... .. 4 ... ... : ... .. . ... : ... .. . ... : ... .. . F04
ROW 1F : ... .. . ... ... : ... .. . ... ... : ... .. . ... : ... .. . ... : ... .. . ...
ROW 20 : ... .. 3 ... ... : ... .. 3 ... ... : ... .. . 300 : F-# 1C . ... : ... .. . F06
ROW 21 : ... .. . ... ... : ... .. . ... ... : ... .. . ... : ... .. . ... : ... .. . ...
ROW 22 : ... .. . ... ... : ... .. . ... ... : ... .. . ... : ... .. . ... : ... .. . F04
ROW 23 : ... .. . ... ... : ... .. . ... ... : ... .. . ... : ... .. . ... : ... .. . ...
ROW 24 : ... .. 2 ... ... : ... .. 2 ... ... : ... .. . ... : ... .. . ... : ... .. . F06
ROW 25 : ... .. . ... ... : ... .. . ... ... : ... .. . ... : ... .. . ... : ... .. . ...
ROW 26 : ... .. . ... ... : ... .. . ... ... : ... .. . ... : ... .. . ... : ... .. . F04
ROW 27 : ... .. . ... ... : ... .. . ... ... : ... .. . ... : ... .. . ... : ... .. . ...
ROW 28 : ... .. . ... ... : ... .. . ... ... : ... .. . ... : F-# 1C . ... : ... .. . F06
ROW 29 : ... .. . ... ... : ... .. . ... ... : ... .. . ... : ... .. . ... : ... .. . ...
ROW 2A : ... .. 1 ... ... : ... .. 1 ... ... : ... .. . ... : ... .. . ... : ... .. . F04
ROW 2B : ... .. . ... ... : ... .. . ... ... : ... .. . ... : ... .. . ... : ... .. . ...
ROW 2C : ... .. . ... ... : ... .. . ... ... : ... .. . ... : F-# 1C . ... : ... .. . F06
ROW 2D : ... .. . ... ... : ... .. . ... ... : ... .. . ... : ... .. . ... : ... .. . ...
ROW 2E : ... .. . ... ... : ... .. . ... ... : ... .. . ... : B-# 0E . ... : ... .. . F04
ROW 2F : ... .. . ... ... : ... .. . ... ... : ... .. . ... : ... .. . ... : ... .. . ...

PATTERN 2E
ROW 00 : F#3 01 1 P7F ... : F#2 16 1 V02 ... : G-1 17 . ... : --- .. . ... : ... .. . F06
ROW 01 : ... .. . ... ... : ... .. . ... ... : ... .. . ... : ... .. . ... : ... .. . ...
ROW 02 : B-3 01 2 ... ... : ... .. 2 ... ... : ... .. . ... : ... .. . ... : ... .. . F04
ROW 03 : ... .. . ... ... : ... .. . ... ... : ... .. . ... : ... .. . ... : ... .. . ...
ROW 04 : ... .. . ... ... : ... .. 3 ... ... : G-1 00 . ... : F-# 1C 9 ... : ... .. . F06
ROW 05 : ... .. . ... ... : ... .. . ... ... : ... .. . ... : ... .. . ... : ... .. . ...
ROW 06 : F#3 01 3 ... ... : ... .. 4 ... ... : A-1 00 . ... : B-# 0E . ... : ... .. . F04
ROW 07 : ... .. . ... ... : ... .. . ... ... : ... .. . ... : ... .. . ... : ... .. . ...
ROW 08 : D-4 01 . ... ... : ... .. 3 ... ... : G-1 00 . ... : F-# 1C . ... : ... .. . F06
ROW 09 : ... .. . ... ... : ... .. . ... ... : ... .. . ... : ... .. . ... : ... .. . ...
ROW 0A : ... .. . ... ... : ... .. 2 ... ... : ... .. . ... : ... .. . ... : ... .. . F04
ROW 0B : ... .. . ... ... : ... .. . ... ... : ... .. . ... : ... .. . ... : ... .. . ...
ROW 0C : E-3 01 . ... ... : E-2 15 1 ... ... : G-1 17 . ... : ... .. . ... : ... .. . F06
ROW 0D : ... .. . ... ... : ... .. . ... ... : G-2 00 . ... : ... .. . ... : ... .. . ...
ROW 0E : A-3 01 . ... ... : ... .. 2 ... ... : ... .. . ... : ... .. . ... : ... .. . F04
ROW 0F : ... .. . ... ... : ... .. . ... ... : ... .. . ... : ... .. . ... : ... .. . ...
ROW 10 : ... .. . ... ... : ... .. 3 ... ... : G-3 00 . ... : F-# 1C . ... : ... .. . F06
ROW 11 : ... .. . ... ... : ... .. . ... ... : G-2 00 . ... : ... .. . ... : ... .. . ...
ROW 12 : E-3 01 . ... ... : ... .. 4 ... ... : ... .. . ... : ... .. . ... : ... .. . F04
ROW 13 : ... .. . ... ... : ... .. . ... ... : ... .. . ... : ... .. . ... : ... .. . ...
ROW 14 : D-4 01 . ... ... : ... .. 3 ... ... : G-3 00 . ... : F-# 1C . ... : ... .. . F06
ROW 15 : ... .. . ... ... : ... .. . ... ... : G-2 00 . ... : ... .. . ... : ... .. . ...
ROW 16 : ... .. . ... ... : ... .. 2 ... ... : ... .. . ... : ... .. . ... : ... .. . F04
ROW 17 : ... .. . ... ... : ... .. . ... ... : ... .. . ... : ... .. . ... : ... .. . ...
ROW 18 : D-3 01 . ... ... : D-2 14 1 ... ... : G-1 17 . ... : ... .. . ... : ... .. . F06
ROW 19 : ... .. . ... ... : ... .. . ... ... : A-2 00 . ... : ... .. . ... : ... .. . ...
ROW 1A : G-3 01 . ... ... : ... .. 2 ... ... : ... .. . ... : ... .. . ... : ... .. . F04
ROW 1B : ... .. . ... ... : ... .. . ... ... : ... .. . ... : ... .. . ... : ... .. . ...
ROW 1C : ... .. . ... ... : ... .. 3 ... ... : E-3 00 . ... : F-# 1C . ... : ... .. . F06
ROW 1D : ... .. . ... ... : ... .. . ... ... : ... .. . 201 : ... .. . ... : ... .. . ...
ROW 1E : D-3 01 . ... ... : ... .. 4 ... ... : ... .. . ... : ... .. . ... : ... .. . F04
ROW 1F : ... .. . ... ... : ... .. . ... ... : ... .. . ... : ... .. . ... : ... .. . ...
ROW 20 : D-4 01 . ... ... : ... .. 3 ... ... : A-2 00 . 200 : F-# 1C . ... : ... .. . F06
ROW 21 : ... .. . ... ... : ... .. . ... ... : ... .. . ... : ... .. . ... : ... .. . ...
ROW 22 : ... .. . ... ... : ... .. 2 ... ... : ... .. . ... : ... .. . ... : ... .. . F04
ROW 23 : ... .. . ... ... : ... .. . ... ... : ... .. . ... : ... .. . ... : ... .. . ...
ROW 24 : E-3 01 . ... ... : E-2 15 1 ... ... : G-1 17 . ... : ... .. . ... : ... .. . F06
ROW 25 : ... .. . ... ... : ... .. . ... ... : E-2 00 . ... : ... .. . ... : ... .. . ...
ROW 26 : A-3 01 . ... ... : ... .. 2 ... ... : ... .. . ... : ... .. . ... : ... .. . F04
ROW 27 : ... .. . ... ... : ... .. . ... ... : ... .. . ... : ... .. . ... : ... .. . ...
ROW 28 : ... .. . ... ... : ... .. 3 ... ... : ... .. . ... : F-# 1C . ... : ... .. . F06
ROW 29 : ... .. . ... ... : ... .. . ... ... : ... .. . ... : ... .. . ... : ... .. . ...
ROW 2A : E-3 01 . ... ... : ... .. 4 ... ... : ... .. . ... : ... .. . ... : ... .. . F04
ROW 2B : ... .. . ... ... : ... .. . ... ... : ... .. . ... : ... .. . ... : ... .. . ...
ROW 2C : D-4 01 . ... ... : ... .. 3 ... ... : D-2 00 . ... : F-# 1C . ... : ... .. . F06
ROW 2D : ... .. . ... ... : ... .. . ... ... : ... .. . ... : ... .. . ... : ... .. . ...
ROW 2E : ... .. . ... ... : ... .. 2 ... ... : ... .. . ... : ... .. . ... : ... .. . F04
ROW 2F : ... .. . ... ... : ... .. . ... ... : ... .. . ... : ... .. . ... : ... .. . ...

PATTERN 2F
ROW 00 : F#3 01 3 P7F ... : F#2 16 1 V02 ... : G-1 17 . ... : ... .. . ... : ... .. . F06
ROW 01 : ... .. . ... ... : ... .. . ... ... : ... .. . ... : ... .. . ... : ... .. . ...
ROW 02 : B-3 01 . ... ... : ... .. 2 ... ... : G-1 02 . ... : ... .. . ... : ... .. . F04
ROW 03 : ... .. . ... ... : ... .. . ... ... : ... .. . ... : ... .. . ... : ... .. . ...
ROW 04 : ... .. . ... ... : ... .. 3 ... ... : F#1 00 . ... : F-# 1C 9 ... : ... .. . F06
ROW 05 : ... .. . ... ... : ... .. . ... ... : ... .. . ... : ... .. . ... : ... .. . ...
ROW 06 : F#3 01 . ... ... : ... .. 4 ... ... : ... .. . ... : B-# 0E . ... : ... .. . F04
ROW 07 : ... .. . ... ... : ... .. . ... ... : ... .. . ... : ... .. . ... : ... .. . ...
ROW 08 : D-4 01 . ... ... : ... .. 3 ... ... : G-1 00 . ... : F-# 1C . ... : ... .. . F06
ROW 09 : ... .. . ... ... : ... .. . ... ... : ... .. . ... : ... .. . ... : ... .. . ...
ROW 0A : ... .. . ... ... : ... .. 2 ... ... : ... .. . ... : ... .. . ... : ... .. . F04
ROW 0B : ... .. . ... ... : ... .. . ... ... : ... .. . ... : ... .. . ... : ... .. . ...
ROW 0C : E-3 01 . ... ... : E-2 15 1 ... ... : G-1 17 . ... : ... .. . ... : ... .. . F06
ROW 0D : ... .. . ... ... : ... .. . ... ... : ... .. . ... : ... .. . ... : ... .. . ...
ROW 0E : A-3 01 . ... ... : ... .. 2 ... ... : G-1 02 . ... : ... .. . ... : ... .. . F04
ROW 0F : ... .. . ... ... : ... .. . ... ... : ... .. . ... : ... .. . ... : ... .. . ...
ROW 10 : ... .. . ... ... : ... .. 3 ... ... : D-2 00 . ... : F-# 1C . ... : ... .. . F06
ROW 11 : ... .. . ... ... : ... .. . ... ... : ... .. . ... : ... .. . ... : ... .. . ...
ROW 12 : E-3 01 . ... ... : ... .. 4 ... ... : ... .. . ... : ... .. . ... : ... .. . F04
ROW 13 : ... .. . ... ... : ... .. . ... ... : ... .. . ... : ... .. . ... : ... .. . ...
ROW 14 : D-4 01 . ... ... : ... .. 3 ... ... : E-2 00 . ... : F-# 1C . ... : ... .. . F06
ROW 15 : ... .. . ... ... : ... .. . ... ... : ... .. . ... : ... .. . ... : ... .. . ...
ROW 16 : ... .. . ... ... : ... .. 2 ... ... : ... .. . ... : ... .. . ... : ... .. . F04
ROW 17 : ... .. . ... ... : F#2 1A . ... ... : ... .. . ... : ... .. . ... : ... .. . ...
ROW 18 : G-3 01 . ... ... : G-2 20 1 ... ... : G-1 17 . ... : ... .. . ... : ... .. . F06
ROW 19 : ... .. . ... ... : ... .. . ... ... : C-1 00 . 308 : ... .. . ... : ... .. . ...
ROW 1A : C-4 01 . ... ... : ... .. 2 ... ... : ... .. . 30F : ... .. . ... : ... .. . F04
ROW 1B : ... .. . ... ... : ... .. . ... ... : ... .. . 318 : ... .. . ... : ... .. . ...
ROW 1C : ... .. . ... ... : ... .. 3 ... ... : ... .. . 31F : F-# 1C . ... : ... .. . F06
ROW 1D : ... .. . ... ... : ... .. . ... ... : ... .. . ... : ... .. . ... : ... .. . ...
ROW 1E : G-3 01 . ... ... : ... .. 4 ... ... : ... .. . ... : ... .. . ... : ... .. . F04
ROW 1F : ... .. . ... ... : ... .. . ... ... : ... .. . ... : ... .. . ... : ... .. . ...
ROW 20 : D-4 01 . ... ... : ... .. 3 ... ... : ... .. . 300 : F-# 1C . ... : ... .. . F06
ROW 21 : ... .. . ... ... : ... .. . ... ... : ... .. . ... : ... .. . ... : ... .. . ...
ROW 22 : ... .. . ... ... : ... .. . ... ... : ... .. . ... : ... .. . ... : ... .. . F04
ROW 23 : ... .. . ... ... : ... .. . ... ... : ... .. . ... : ... .. . ... : ... .. . ...
ROW 24 : G-3 01 . ... ... : ... .. 2 ... ... : ... .. . ... : ... .. . ... : ... .. . F06
ROW 25 : ... .. . ... ... : ... .. . ... ... : ... .. . ... : ... .. . ... : ... .. . ...
ROW 26 : C-4 01 . ... ... : ... .. . ... ... : ... .. . ... : ... .. . ... : ... .. . F04
ROW 27 : ... .. . ... ... : ... .. . ... ... : ... .. . ... : ... .. . ... : ... .. . ...
ROW 28 : ... .. . ... ... : ... .. . ... ... : ... .. . ... : F-# 1C . ... : ... .. . F06
ROW 29 : ... .. . ... ... : ... .. . ... ... : ... .. . ... : ... .. . ... : ... .. . ...
ROW 2A : G-3 01 . ... ... : ... .. 1 ... ... : ... .. . ... : ... .. . ... : ... .. . F04
ROW 2B : ... .. . ... ... : ... .. . ... ... : ... .. . ... : ... .. . ... : ... .. . ...
ROW 2C : D-4 01 . ... ... : ... .. . ... ... : ... .. . ... : F-# 1C . ... : ... .. . F06
ROW 2D : ... .. . ... ... : ... .. . ... ... : ... .. . ... : ... .. . ... : ... .. . ...
ROW 2E : ... .. . ... ... : ... .. . ... ... : ... .. . ... : B-# 0E . ... : ... .. . F04
ROW 2F : ... .. . ... ... : ... .. . ... ... : ... .. . ... : ... .. . ... : ... .. . ...

PATTERN 30
ROW 00 : F#3 01 4 P7F V01 : ... .. . ... ... : G-1 17 . ... : --- .. . ... : ... .. . F06
ROW 01 : ... .. . ... ... : ... .. . ... ... : ... .. . ... : ... .. . ... : ... .. . ...
ROW 02 : B-3 01 . ... ... : ... .. . ... ... : ... .. . ... : ... .. . ... : ... .. . F04
ROW 03 : ... .. . ... ... : ... .. . ... ... : ... .. . ... : ... .. . ... : ... .. . ...
ROW 04 : ... .. . ... ... : A-3 01 5 P80 V00 : ... .. . ... : ... .. . ... : ... .. . F06
ROW 05 : ... .. . ... ... : ... .. . ... ... : ... .. . ... : ... .. . ... : ... .. . ...
ROW 06 : F#3 01 . ... ... : ... .. . ... ... : ... .. . ... : ... .. . ... : ... .. . F04
ROW 07 : ... .. . ... ... : ... .. . ... ... : ... .. . ... : ... .. . ... : ... .. . ...
ROW 08 : D-4 01 . ... ... : ... .. . ... ... : ... .. . ... : ... .. . ... : ... .. . F06
ROW 09 : ... .. . ... ... : ... .. . ... ... : ... .. . ... : ... .. . ... : ... .. . ...
ROW 0A : ... .. . ... ... : A-3 01 . ... ... : ... .. . ... : ... .. . ... : ... .. . F04
ROW 0B : ... .. . ... ... : ... .. . ... ... : ... .. . ... : ... .. . ... : ... .. . ...
ROW 0C : E-3 01 . ... ... : ... .. . ... ... : G-2 00 . ... : ... .. . ... : ... .. . F06
ROW 0D : ... .. . ... ... : ... .. . ... ... : ... .. . ... : ... .. . ... : ... .. . ...
ROW 0E : A-3 01 . ... ... : ... .. . ... ... : ... .. . ... : ... .. . ... : ... .. . F04
ROW 0F : ... .. . ... ... : ... .. . ... ... : ... .. . ... : ... .. . ... : ... .. . ...
ROW 10 : ... .. . ... ... : A-3 01 . P81 ... : ... .. . ... : ... .. . ... : ... .. . F06
ROW 11 : ... .. . ... ... : ... .. . P82 ... : ... .. . ... : ... .. . ... : ... .. . ...
ROW 12 : E-3 01 . ... ... : ... .. . P83 ... : ... .. . ... : ... .. . ... : ... .. . F04
ROW 13 : ... .. . ... ... : ... .. . ... ... : ... .. . ... : ... .. . ... : ... .. . ...
ROW 14 : D-4 01 . ... ... : ... .. . ... ... : ... .. . ... : ... .. . ... : ... .. . F06
ROW 15 : ... .. . ... ... : ... .. . ... ... : ... .. . ... : ... .. . ... : ... .. . ...
ROW 16 : ... .. . ... ... : A-3 01 . P80 ... : ... .. . ... : ... .. . ... : ... .. . F04
ROW 17 : ... .. . ... ... : ... .. . ... ... : ... .. . ... : ... .. . ... : ... .. . ...
ROW 18 : D-3 01 . ... ... : ... .. . ... ... : G-1 17 . ... : ... .. . ... : ... .. . F06
ROW 19 : ... .. . ... ... : ... .. . ... ... : A-2 00 . ... : ... .. . ... : ... .. . ...
ROW 1A : G-3 01 . ... ... : ... .. . ... ... : ... .. . ... : ... .. . ... : ... .. . F04
ROW 1B : ... .. . ... ... : ... .. . ... ... : ... .. . ... : ... .. . ... : ... .. . ...
ROW 1C : ... .. . ... ... : A-3 01 . ... ... : ... .. . ... : ... .. . ... : ... .. . F06
ROW 1D : ... .. . ... ... : ... .. . ... ... : ... .. . ... : ... .. . ... : ... .. . ...
ROW 1E : D-3 01 . ... ... : ... .. . ... ... : ... .. . ... : ... .. . ... : ... .. . F04
ROW 1F : ... .. . ... ... : ... .. . ... ... : ... .. . ... : ... .. . ... : ... .. . ...
ROW 20 : D-4 01 . ... ... : ... .. . ... ... : ... .. . ... : ... .. . ... : ... .. . F06
ROW 21 : ... .. . ... ... : ... .. . ... ... : ... .. . ... : ... .. . ... : ... .. . ...
ROW 22 : ... .. . ... ... : A-3 01 . ... ... : ... .. . ... : ... .. . ... : ... .. . F04
ROW 23 : ... .. . ... ... : ... .. . ... ... : ... .. . ... : ... .. . ... : ... .. . ...
ROW 24 : E-3 01 . ... ... : ... .. . ... ... : E-2 00 . ... : ... .. . ... : ... .. . F06
ROW 25 : ... .. . ... ... : ... .. . ... ... : ... .. . ... : ... .. . ... : ... .. . ...
ROW 26 : A-3 01 . ... ... : ... .. . ... ... : ... .. . ... : ... .. . ... : ... .. . F04
ROW 27 : ... .. . ... ... : ... .. . ... ... : ... .. . ... : ... .. . ... : ... .. . ...
ROW 28 : ... .. . ... ... : A-3 01 . P81 ... : ... .. . ... : ... .. . ... : ... .. . F06
ROW 29 : ... .. . ... ... : ... .. . P82 ... : ... .. . ... : ... .. . ... : ... .. . ...
ROW 2A : E-3 01 . ... ... : ... .. . P83 ... : ... .. . ... : ... .. . ... : ... .. . F04
ROW 2B : ... .. . ... ... : ... .. . ... ... : ... .. . ... : ... .. . ... : ... .. . ...
ROW 2C : D-4 01 . ... ... : ... .. . ... ... : ... .. . ... : ... .. . ... : ... .. . F06
ROW 2D : ... .. . ... ... : ... .. . ... ... : ... .. . ... : ... .. . ... : ... .. . ...
ROW 2E : ... .. . ... ... : A-3 01 . P80 ... : ... .. . ... : ... .. . ... : ... .. . F04
ROW 2F : ... .. . ... ... : ... .. . ... ... : ... .. . ... : ... .. . ... : ... .. . ...

PATTERN 31
ROW 00 : F#3 01 4 P7F V01 : ... .. . ... ... : G-1 17 . ... : ... .. . ... : ... .. . F06
ROW 01 : ... .. . ... ... : ... .. . ... ... : ... .. . ... : ... .. . ... : ... .. . ...
ROW 02 : B-3 01 . ... ... : ... .. . ... ... : G-1 02 . ... : ... .. . ... : ... .. . F04
ROW 03 : ... .. . ... ... : ... .. . ... ... : ... .. . ... : ... .. . ... : ... .. . ...
ROW 04 : ... .. . ... ... : A-3 01 5 P80 V00 : ... .. . ... : ... .. . ... : ... .. . F06
ROW 05 : ... .. . ... ... : ... .. . ... ... : ... .. . ... : ... .. . ... : ... .. . ...
ROW 06 : F#3 01 . ... ... : ... .. . ... ... : ... .. . ... : ... .. . ... : ... .. . F04
ROW 07 : ... .. . ... ... : ... .. . ... ... : ... .. . ... : ... .. . ... : ... .. . ...
ROW 08 : D-4 01 . ... ... : ... .. . ... ... : ... .. . ... : ... .. . ... : ... .. . F06
ROW 09 : ... .. . ... ... : ... .. . ... ... : ... .. . ... : ... .. . ... : ... .. . ...
ROW 0A : ... .. . ... ... : A-3 01 . ... ... : ... .. . ... : ... .. . ... : ... .. . F04
ROW 0B : ... .. . ... ... : ... .. . ... ... : ... .. . ... : ... .. . ... : ... .. . ...
ROW 0C : E-3 01 . ... ... : ... .. . ... ... : D-2 01 . ... : ... .. . ... : ... .. . F06
ROW 0D : ... .. . ... ... : ... .. . ... ... : ... .. . ... : ... .. . ... : ... .. . ...
ROW 0E : A-3 01 . ... ... : ... .. . ... ... : ... .. . ... : ... .. . ... : ... .. . F04
ROW 0F : ... .. . ... ... : ... .. . ... ... : ... .. . ... : ... .. . ... : ... .. . ...
ROW 10 : ... .. . ... ... : A-3 01 . P81 ... : ... .. . ... : ... .. . ... : ... .. . F06
ROW 11 : ... .. . ... ... : ... .. . P82 ... : ... .. . ... : ... .. . ... : ... .. . ...
ROW 12 : E-3 01 . ... ... : ... .. . P83 ... : ... .. . ... : ... .. . ... : ... .. . F04
ROW 13 : ... .. . ... ... : ... .. . ... ... : ... .. . ... : ... .. . ... : ... .. . ...
ROW 14 : D-4 01 . ... ... : ... .. . ... ... : G-1 01 . ... : ... .. . ... : ... .. . F06
ROW 15 : ... .. . ... ... : ... .. . ... ... : ... .. . ... : ... .. . ... : ... .. . ...
ROW 16 : ... .. . ... ... : A-3 01 . P80 ... : ... .. . ... : ... .. . ... : ... .. . F04
ROW 17 : ... .. . ... ... : ... .. . ... ... : ... .. . ... : ... .. . ... : ... .. . ...
ROW 18 : G-3 01 . ... ... : ... .. . ... ... : G-1 17 . ... : ... .. . ... : ... .. . F07
ROW 19 : ... .. . ... ... : ... .. . ... ... : C-1 00 . 309 : ... .. . ... : ... .. . ...
ROW 1A : C-4 01 . ... ... : ... .. . ... ... : ... .. . 30F : ... .. . ... : ... .. . F05
ROW 1B : ... .. . ... ... : ... .. . ... ... : ... .. . 31D : ... .. . ... : ... .. . ...
ROW 1C : ... .. . ... ... : A-3 01 . ... ... : ... .. . 31F : ... .. . ... : ... .. . F07
ROW 1D : ... .. . ... ... : ... .. . ... ... : ... .. . ... : ... .. . ... : ... .. . ...
ROW 1E : G-3 01 . ... ... : ... .. . ... ... : ... .. . ... : ... .. . ... : ... .. . F05
ROW 1F : ... .. . ... ... : ... .. . ... ... : ... .. . ... : ... .. . ... : ... .. . ...
ROW 20 : D-4 01 . ... ... : ... .. . ... ... : ... .. . 300 : ... .. . ... : ... .. . F07
ROW 21 : ... .. . ... ... : ... .. . ... ... : ... .. . ... : ... .. . ... : ... .. . ...
ROW 22 : ... .. . ... ... : A-3 01 . ... ... : ... .. . ... : ... .. . ... : ... .. . F05
ROW 23 : ... .. . ... ... : ... .. . ... ... : ... .. . ... : ... .. . ... : ... .. . ...
ROW 24 : G-3 01 . ... ... : ... .. . ... ... : C-1 00 . ... : ... .. . ... : ... .. . F07
ROW 25 : ... .. . ... ... : ... .. . ... ... : C-2 00 . 306 : ... .. . ... : ... .. . ...
ROW 26 : C-4 01 . ... ... : ... .. . ... ... : ... .. . ... : ... .. . ... : ... .. . F05
ROW 27 : ... .. . ... ... : ... .. . ... ... : ... .. . 307 : ... .. . ... : ... .. . ...
ROW 28 : ... .. . ... ... : A-3 01 . ... ... : ... .. . 308 : ... .. . ... : ... .. . F08
ROW 29 : ... .. . ... ... : ... .. . ... ... : ... .. . 309 : ... .. . ... : ... .. . ...
ROW 2A : G-3 01 . ... ... : ... .. . ... ... : ... .. . 30A : ... .. . ... : ... .. . F06
ROW 2B : ... .. . ... ... : ... .. . ... ... : ... .. . 30B : ... .. . ... : ... .. . ...
ROW 2C : D-4 01 . ... ... : ... .. . ... ... : ... .. . 30C : ... .. . ... : ... .. . F08
ROW 2D : ... .. . ... ... : ... .. . ... ... : ... .. . 30D : ... .. . ... : ... .. . ...
ROW 2E : ... .. . ... ... : A-3 01 . ... ... : ... .. . 30E : ... .. . ... : ... .. . F06
ROW 2F : ... .. . ... ... : ... .. . ... ... : ... .. . ... : ... .. . ... : ... .. . ...

PATTERN 32
ROW 00 : G-3 01 2 ... ... : ... .. . ... ... : ... .. . 30F : ... .. . ... : ... .. . F08
ROW 01 : ... .. . ... ... : C-4 01 3 ... ... : ... .. . ... : ... .. . ... : ... .. . F09
ROW 02 : A-3 01 4 ... ... : ... .. . ... ... : ... .. . 3FF : ... .. . ... : ... .. . F0A
ROW 03 : ... .. . ... ... : D-4 01 5 ... ... : ... .. . ... : ... .. . ... : ... .. . F08
ROW 04 : ... .. . ... ... : ... .. . ... ... : ... .. . ... : ... .. . ... : ... .. . ...
ROW 05 : ... .. . ... ... : ... .. . ... ... : ... .. . ... : ... .. . ... : ... .. . ...
ROW 06 : ... .. . ... ... : ... .. . ... ... : ... .. . ... : ... .. . ... : ... .. . ...
ROW 07 : ... .. . ... ... : ... .. . ... ... : ... .. . ... : ... .. . ... : ... .. . ...
ROW 08 : ... .. . ... ... : ... .. . ... ... : ... .. . ... : ... .. . ... : ... .. . ...
ROW 09 : ... .. . ... ... : ... .. . ... ... : ... .. . ... : ... .. . ... : ... .. . ...
ROW 0A : A-3 00 1 ... ... : D-4 00 1 ... ... : ... .. . ... : ... .. . ... : ... .. . F0F
ROW 0B : ... .. . ... ... : ... .. . ... ... : ... .. . ... : ... .. . ... : ... .. . ...
ROW 0C : ... .. . ... ... : ... .. . ... ... : ... .. . ... : ... .. . ... : ... .. . ...
ROW 0D : ... .. . ... ... : ... .. . ... ... : ... .. . ... : ... .. . ... : ... .. . ...
ROW 0E : ... .. . ... ... : ... .. . ... ... : ... .. . ... : ... .. . ... : ... .. . ...
ROW 0F : ... .. . ... ... : ... .. . ... ... : ... .. . ... : ... .. . ... : ... .. . ...
ROW 10 : ... .. . ... ... : ... .. . ... ... : ... .. . ... : ... .. . ... : ... .. . ...
ROW 11 : ... .. . ... ... : ... .. . ... ... : ... .. . ... : ... .. . ... : ... .. . ...
ROW 12 : ... .. . ... ... : ... .. . ... ... : --- .. . 300 : ... .. . ... : ... .. . F02
ROW 13 : ... .. . ... ... : --- .. . ... ... : ... .. . ... : ... .. . ... : ... .. . ...
ROW 14 : --- .. . ... ... : ... .. . ... ... : ... .. . ... : ... .. . ... : ... .. . ...
ROW 15 : ... .. . ... ... : ... .. . ... ... : ... .. . ... : ... .. . ... : ... .. . ...
ROW 16 : ... .. . ... ... : ... .. . ... ... : ... .. . ... : ... .. . ... : ... .. . ...
ROW 17 : ... .. . ... ... : ... .. . ... ... : ... .. . ... : ... .. . ... : ... .. . ...
ROW 18 : ... .. . ... ... : ... .. . ... ... : ... .. . ... : ... .. . ... : ... .. . ...
ROW 19 : ... .. . ... ... : ... .. . ... ... : ... .. . ... : ... .. . ... : ... .. . ...
ROW 1A : ... .. . ... ... : ... .. . ... ... : ... .. . ... : ... .. . ... : ... .. . ...
ROW 1B : ... .. . ... ... : ... .. . ... C00 : ... .. . ... : ... .. . ... : ... .. . ...
ROW 1C : ... .. . ... ... : ... .. . ... ... : ... .. . ... : ... .. . ... : ... .. . ...
ROW 1D : ... .. . ... ... : ... .. . ... ... : ... .. . ... : ... .. . ... : ... .. . ...
ROW 1E : ... .. . ... ... : ... .. . ... ... : ... .. . ... : ... .. . ... : ... .. . ...
ROW 1F : ... .. . ... ... : ... .. . ... ... : ... .. . ... : ... .. . ... : ... .. . ...
ROW 20 : ... .. . ... ... : ... .. . ... ... : ... .. . ... : ... .. . ... : ... .. . ...
ROW 21 : ... .. . ... ... : ... .. . ... ... : ... .. . ... : ... .. . ... : ... .. . ...
ROW 22 : ... .. . ... ... : ... .. . ... ... : ... .. . ... : ... .. . ... : ... .. . ...
ROW 23 : ... .. . ... ... : ... .. . ... ... : ... .. . ... : ... .. . ... : ... .. . ...
ROW 24 : ... .. . ... ... : ... .. . ... ... : ... .. . ... : ... .. . ... : ... .. . ...
ROW 25 : ... .. . ... ... : ... .. . ... ... : ... .. . ... : ... .. . ... : ... .. . ...
ROW 26 : ... .. . ... ... : ... .. . ... ... : ... .. . ... : ... .. . ... : ... .. . ...
ROW 27 : ... .. . ... ... : ... .. . ... ... : ... .. . ... : ... .. . ... : ... .. . ...
ROW 28 : ... .. . ... ... : ... .. . ... ... : ... .. . ... : ... .. . ... : ... .. . ...
ROW 29 : ... .. . ... ... : ... .. . ... ... : ... .. . ... : ... .. . ... : ... .. . ...
ROW 2A : ... .. . ... ... : ... .. . ... ... : ... .. . ... : ... .. . ... : ... .. . ...
ROW 2B : ... .. . ... ... : ... .. . ... ... : ... .. . ... : ... .. . ... : ... .. . ...
ROW 2C : ... .. . ... ... : ... .. . ... ... : ... .. . ... : ... .. . ... : ... .. . ...
ROW 2D : ... .. . ... ... : ... .. . ... ... : ... .. . ... : ... .. . ... : ... .. . ...
ROW 2E : ... .. . ... ... : ... .. . ... ... : ... .. . ... : ... .. . ... : ... .. . ...
ROW 2F : ... .. . ... ... : ... .. . ... ... : ... .. . ... : ... .. . ... : ... .. . ...

# End of export
