# FamiTracker text export 0.4.2

# Song information
TITLE           "Donkey Kong Country - Ending"
AUTHOR          "David Wise cv:jrlepage"
COPYRIGHT       "2012 - For Demo Compo #1"

# Song comment
COMMENT ""

# Global settings
MACHINE         0
FRAMERATE       0
EXPANSION       0
VIBRATO         1
SPLIT           21

# Macros
MACRO       0   0  -1  -1   0 : 15 7 5 3 2 0
MACRO       0   1  -1  -1   0 : 9 4 5 5 5 4 4 4 4 3 3 3 3 2 2 2 1
MACRO       1   0   0  -1   0 : 0 0 4 4 7 7
MACRO       1   1   0  -1   0 : 0 0 3 3 8 8
MACRO       1   2   0  -1   0 : 0 0 5 5 9 9
MACRO       1   3  -1  -1   1 : 44 37 33
MACRO       1   4  -1  -1   1 : 50 46 44 41
MACRO       1   5  -1  -1   0 : 14 13
MACRO       1   6  -1  -1   0 : 0 3 5 7 8 8 9 9 9 9 10
MACRO       4   0   0  -1   0 : 2 2 2 2 2 2 2 2 2 1 1 1 1 1 1 1 1 1 0 0 0 0 0 0 0 0 0 3 3 3 3 3 3 3 3 3

# DPCM samples

# Instruments
INST2A03   0    -1  -1  -1  -1  -1 "Plain Flavour"
INST2A03   1    -1   0  -1  -1   0 "Major Flavour"
INST2A03   2    -1   1  -1  -1   0 "Sus Flavour"
INST2A03   3    -1   2  -1  -1   0 "Inverted Flavour"
INST2A03   4     0   5  -1  -1  -1 "Hi-Hat Flavour"
INST2A03   5     1   6  -1  -1  -1 "Snare Flavour"

# Tracks

TRACK 256   1 150 "Kredits Koncerto"
COLUMNS : 2 1 1 1 1

ORDER 00 : 00 00 00 04 00
ORDER 01 : 00 01 00 05 00
ORDER 02 : 00 02 00 04 00
ORDER 03 : 00 00 00 06 00
ORDER 04 : 01 00 00 04 00
ORDER 05 : 02 01 00 05 00
ORDER 06 : 03 02 00 04 00
ORDER 07 : 04 00 01 02 01
ORDER 08 : 05 03 02 01 02
ORDER 09 : 06 04 02 01 02
ORDER 0A : 07 05 02 01 02
ORDER 0B : 08 03 02 01 02
ORDER 0C : 09 03 02 01 02
ORDER 0D : 06 04 02 01 02
ORDER 0E : 0A 05 02 01 02
ORDER 0F : 0B 03 02 03 02

PATTERN 00
ROW 00 : G-1 00 6 V03 ... : G-3 01 1 ... : G-1 00 . ... : --- .. . ... : ... .. . Z00
ROW 01 : ... .. . ... ... : ... .. . ... : ... .. . ... : ... .. . ... : ... .. . Z01
ROW 02 : ... .. . ... ... : ... .. . ... : ... .. . ... : ... .. . ... : ... .. . Z03
ROW 03 : ... .. . ... ... : ... .. . ... : ... .. . ... : ... .. . ... : ... .. . Z05
ROW 04 : ... .. . ... ... : ... .. . ... : ... .. . ... : ... .. . ... : ... .. . Z07
ROW 05 : ... .. . ... ... : ... .. . ... : ... .. . ... : ... .. . ... : ... .. . Z09
ROW 06 : ... .. 3 ... ... : ... .. . ... : --- .. . ... : ... .. . ... : ... .. . Z0B
ROW 07 : ... .. . ... ... : ... .. . ... : ... .. . ... : ... .. . ... : ... .. . Z0D
ROW 08 : ... .. . ... ... : ... .. . ... : ... .. . ... : ... .. . ... : ... .. . Z0F
ROW 09 : ... .. 1 ... ... : ... .. . ... : ... .. . ... : ... .. . ... : ... .. . Z11
ROW 0A : ... .. 0 ... ... : ... .. . ... : ... .. . ... : ... .. . ... : ... .. . Z13
ROW 0B : ... .. . ... ... : ... .. . ... : ... .. . ... : ... .. . ... : ... .. . Z15
ROW 0C : ... .. 3 V02 ... : ... .. . ... : G-1 00 . ... : ... .. . ... : ... .. . Z17
ROW 0D : ... .. . ... ... : ... .. . ... : ... .. . ... : ... .. . ... : ... .. . Z19
ROW 0E : ... .. . ... ... : ... .. 2 ... : ... .. . ... : ... .. . ... : ... .. . Z1B
ROW 0F : ... .. . ... ... : ... .. . ... : ... .. . ... : ... .. . ... : ... .. . Z1D
ROW 10 : ... .. . ... ... : ... .. . ... : ... .. . ... : ... .. . ... : ... .. . Z1F
ROW 11 : ... .. . ... ... : ... .. . ... : ... .. . ... : ... .. . ... : ... .. . Z21
ROW 12 : ... .. 2 ... ... : ... .. . ... : --- .. . ... : ... .. . ... : ... .. . Z23
ROW 13 : ... .. . ... ... : ... .. . ... : ... .. . ... : ... .. . ... : ... .. . Z25
ROW 14 : ... .. . ... ... : ... .. . ... : ... .. . ... : ... .. . ... : ... .. . Z27
ROW 15 : ... .. 1 ... ... : ... .. . ... : ... .. . ... : ... .. . ... : ... .. . Z29
ROW 16 : ... .. 0 ... ... : ... .. . ... : ... .. . ... : ... .. . ... : ... .. . Z2B
ROW 17 : ... .. . ... ... : ... .. . ... : ... .. . ... : ... .. . ... : ... .. . Z2D
ROW 18 : ... .. 3 ... ... : ... .. . ... : G-1 00 . ... : ... .. . ... : ... .. . Z2F
ROW 19 : ... .. . ... ... : ... .. . ... : ... .. . ... : ... .. . ... : ... .. . ...
ROW 1A : ... .. . ... ... : ... .. . ... : ... .. . ... : ... .. . ... : ... .. . ...
ROW 1B : ... .. . ... ... : ... .. . ... : ... .. . ... : ... .. . ... : ... .. . ...
ROW 1C : ... .. . ... ... : ... .. 3 ... : ... .. . ... : ... .. . ... : ... .. . ...
ROW 1D : ... .. . ... ... : ... .. . ... : ... .. . ... : ... .. . ... : ... .. . ...
ROW 1E : ... .. 2 ... ... : ... .. . ... : --- .. . ... : ... .. . ... : ... .. . ...
ROW 1F : ... .. . ... ... : ... .. . ... : ... .. . ... : ... .. . ... : ... .. . ...
ROW 20 : ... .. . ... ... : ... .. . ... : ... .. . ... : ... .. . ... : ... .. . ...
ROW 21 : ... .. 1 ... ... : ... .. . ... : ... .. . ... : ... .. . ... : ... .. . ...
ROW 22 : ... .. 0 ... ... : ... .. . ... : ... .. . ... : ... .. . ... : ... .. . ...
ROW 23 : ... .. . ... ... : ... .. . ... : ... .. . ... : ... .. . ... : ... .. . ...
ROW 24 : ... .. 3 ... ... : ... .. . ... : G-1 00 . ... : ... .. . ... : ... .. . ...
ROW 25 : ... .. . ... ... : ... .. . ... : ... .. . ... : ... .. . ... : ... .. . Z2F
ROW 26 : ... .. . ... ... : ... .. . ... : ... .. . ... : ... .. . ... : ... .. . Z2A
ROW 27 : ... .. . ... ... : ... .. . ... : ... .. . ... : ... .. . ... : ... .. . Z26
ROW 28 : ... .. . ... ... : ... .. . ... : ... .. . ... : ... .. . ... : ... .. . Z22
ROW 29 : ... .. . ... ... : ... .. . ... : ... .. . ... : ... .. . ... : ... .. . Z1D
ROW 2A : ... .. 2 ... ... : ... .. . ... : --- .. . ... : ... .. . ... : ... .. . Z19
ROW 2B : ... .. . ... ... : ... .. 4 ... : ... .. . ... : ... .. . ... : ... .. . Z15
ROW 2C : ... .. . ... ... : ... .. . ... : ... .. . ... : ... .. . ... : ... .. . Z11
ROW 2D : ... .. 1 ... ... : ... .. . ... : ... .. . ... : ... .. . ... : ... .. . Z0C
ROW 2E : ... .. 0 ... ... : ... .. . ... : ... .. . ... : ... .. . ... : ... .. . Z08
ROW 2F : ... .. . ... ... : ... .. . ... : ... .. . ... : ... .. . ... : ... .. . Z04
ROW 30 : ... .. 6 V03 ... : ... .. . ... : G-1 00 . ... : ... .. . ... : ... .. . Z00
ROW 31 : ... .. . ... ... : ... .. . ... : ... .. . ... : ... .. . ... : ... .. . Z01
ROW 32 : ... .. . ... ... : ... .. . ... : ... .. . ... : ... .. . ... : ... .. . Z03
ROW 33 : ... .. . ... ... : ... .. . ... : ... .. . ... : ... .. . ... : ... .. . Z05
ROW 34 : ... .. . ... ... : ... .. . ... : ... .. . ... : ... .. . ... : ... .. . Z07
ROW 35 : ... .. . ... ... : ... .. . ... : ... .. . ... : ... .. . ... : ... .. . Z09
ROW 36 : ... .. 3 ... ... : ... .. . ... : --- .. . ... : ... .. . ... : ... .. . Z0B
ROW 37 : ... .. . ... ... : ... .. 5 ... : ... .. . ... : ... .. . ... : ... .. . Z0D
ROW 38 : ... .. . ... ... : ... .. . ... : ... .. . ... : ... .. . ... : ... .. . Z0F
ROW 39 : ... .. 1 ... ... : ... .. . ... : ... .. . ... : ... .. . ... : ... .. . Z11
ROW 3A : ... .. 0 ... ... : ... .. . ... : ... .. . ... : ... .. . ... : ... .. . Z13
ROW 3B : ... .. . ... ... : ... .. . ... : ... .. . ... : ... .. . ... : ... .. . Z15
ROW 3C : ... .. 3 V02 ... : ... .. . ... : G-1 00 . ... : ... .. . ... : ... .. . Z17
ROW 3D : ... .. . ... ... : ... .. . ... : ... .. . ... : ... .. . ... : ... .. . Z19
ROW 3E : ... .. . ... ... : ... .. . ... : ... .. . ... : ... .. . ... : ... .. . Z1B
ROW 3F : ... .. . ... ... : ... .. . ... : ... .. . ... : ... .. . ... : ... .. . Z1D
ROW 40 : ... .. . ... ... : ... .. . ... : ... .. . ... : ... .. . ... : ... .. . Z1F
ROW 41 : ... .. . ... ... : ... .. . ... : ... .. . ... : ... .. . ... : ... .. . Z21
ROW 42 : ... .. 2 ... ... : ... .. . ... : --- .. . ... : ... .. . ... : ... .. . Z23
ROW 43 : ... .. . ... ... : ... .. . ... : ... .. . ... : ... .. . ... : ... .. . Z25
ROW 44 : ... .. . ... ... : ... .. . ... : ... .. . ... : ... .. . ... : ... .. . Z27
ROW 45 : ... .. 1 ... ... : ... .. 6 ... : ... .. . ... : ... .. . ... : ... .. . Z29
ROW 46 : ... .. 0 ... ... : ... .. . ... : ... .. . ... : ... .. . ... : ... .. . Z2B
ROW 47 : ... .. . ... ... : ... .. . ... : ... .. . ... : ... .. . ... : ... .. . Z2D
ROW 48 : ... .. 3 ... ... : ... .. . ... : G-1 00 . ... : ... .. . ... : ... .. . Z2F
ROW 49 : ... .. . ... ... : ... .. . ... : ... .. . ... : ... .. . ... : ... .. . ...
ROW 4A : ... .. . ... ... : ... .. . ... : ... .. . ... : ... .. . ... : ... .. . ...
ROW 4B : ... .. . ... ... : ... .. . ... : ... .. . ... : ... .. . ... : ... .. . ...
ROW 4C : ... .. . ... ... : ... .. . ... : ... .. . ... : ... .. . ... : ... .. . ...
ROW 4D : ... .. . ... ... : ... .. . ... : ... .. . ... : ... .. . ... : ... .. . ...
ROW 4E : ... .. 2 ... ... : ... .. . ... : --- .. . ... : ... .. . ... : ... .. . ...
ROW 4F : ... .. . ... ... : ... .. . ... : ... .. . ... : ... .. . ... : ... .. . ...
ROW 50 : ... .. . ... ... : ... .. . ... : ... .. . ... : ... .. . ... : ... .. . ...
ROW 51 : ... .. 1 ... ... : ... .. . ... : ... .. . ... : ... .. . ... : ... .. . ...
ROW 52 : ... .. 0 ... ... : ... .. . ... : ... .. . ... : ... .. . ... : ... .. . ...
ROW 53 : ... .. . ... ... : ... .. 7 ... : ... .. . ... : ... .. . ... : ... .. . ...
ROW 54 : ... .. 3 ... ... : ... .. . ... : G-1 00 . ... : ... .. . ... : ... .. . ...
ROW 55 : ... .. . ... ... : ... .. . ... : ... .. . ... : ... .. . ... : ... .. . ...
ROW 56 : ... .. . ... ... : ... .. . ... : ... .. . ... : ... .. . ... : ... .. . ...
ROW 57 : ... .. . ... ... : ... .. . ... : ... .. . ... : ... .. . ... : ... .. . ...
ROW 58 : ... .. . ... ... : ... .. . ... : ... .. . ... : ... .. . ... : ... .. . ...
ROW 59 : ... .. . ... ... : ... .. . ... : ... .. . ... : ... .. . ... : ... .. . ...
ROW 5A : ... .. 2 ... ... : ... .. . ... : --- .. . ... : ... .. . ... : ... .. . ...
ROW 5B : ... .. . ... ... : ... .. . ... : ... .. . ... : ... .. . ... : ... .. . ...
ROW 5C : ... .. . ... ... : ... .. . ... : ... .. . ... : ... .. . ... : ... .. . ...
ROW 5D : ... .. 1 ... ... : ... .. . ... : ... .. . ... : ... .. . ... : ... .. . ...
ROW 5E : ... .. 0 ... ... : ... .. . ... : ... .. . ... : ... .. . ... : ... .. . ...
ROW 5F : ... .. . ... ... : ... .. . ... : ... .. . ... : ... .. . ... : ... .. . ...
ROW 60 : ... .. 3 ... ... : ... .. 8 ... : G-1 00 . ... : ... .. . ... : ... .. . Z2F
ROW 61 : ... .. . ... ... : ... .. . ... : ... .. . ... : ... .. . ... : ... .. . Z2A
ROW 62 : ... .. . ... ... : ... .. 7 ... : ... .. . ... : ... .. . ... : ... .. . Z26
ROW 63 : ... .. . ... ... : ... .. . ... : ... .. . ... : ... .. . ... : ... .. . Z22
ROW 64 : ... .. . ... ... : ... .. 6 ... : ... .. . ... : ... .. . ... : ... .. . Z1D
ROW 65 : ... .. . ... ... : ... .. . ... : ... .. . ... : ... .. . ... : ... .. . Z19
ROW 66 : ... .. 2 ... ... : ... .. . ... : --- .. . ... : ... .. . ... : ... .. . Z15
ROW 67 : ... .. . ... ... : ... .. 5 ... : ... .. . ... : ... .. . ... : ... .. . Z11
ROW 68 : ... .. . ... ... : ... .. . ... : ... .. . ... : ... .. . ... : ... .. . Z0C
ROW 69 : ... .. 1 ... ... : ... .. . ... : ... .. . ... : ... .. . ... : ... .. . Z08
ROW 6A : ... .. 0 ... ... : ... .. 4 ... : ... .. . ... : ... .. . ... : ... .. . Z04
ROW 6B : ... .. . ... ... : ... .. . ... : ... .. . ... : ... .. . ... : ... .. . Z00
ROW 6C : ... .. 6 V03 ... : ... .. . ... : G-1 00 . ... : ... .. . ... : ... .. . Z02
ROW 6D : ... .. . ... ... : ... .. . ... : ... .. . ... : ... .. . ... : ... .. . Z03
ROW 6E : ... .. . ... ... : ... .. . ... : ... .. . ... : ... .. . ... : ... .. . Z05
ROW 6F : ... .. . ... ... : ... .. . ... : ... .. . ... : ... .. . ... : ... .. . Z07
ROW 70 : ... .. . ... ... : ... .. . ... : ... .. . ... : ... .. . ... : ... .. . Z09
ROW 71 : ... .. . ... ... : ... .. . ... : ... .. . ... : ... .. . ... : ... .. . Z0B
ROW 72 : ... .. 3 ... ... : ... .. . ... : --- .. . ... : ... .. . ... : ... .. . Z0D
ROW 73 : ... .. . ... ... : ... .. . ... : ... .. . ... : ... .. . ... : ... .. . Z0F
ROW 74 : ... .. . ... ... : ... .. . ... : ... .. . ... : ... .. . ... : ... .. . Z11
ROW 75 : ... .. 1 ... ... : ... .. . ... : ... .. . ... : ... .. . ... : ... .. . Z13
ROW 76 : ... .. 0 ... ... : ... .. . ... : ... .. . ... : ... .. . ... : ... .. . Z15
ROW 77 : ... .. . ... ... : ... .. . ... : ... .. . ... : ... .. . ... : ... .. . Z17
ROW 78 : ... .. 3 V02 ... : ... .. . ... : G-1 00 . ... : ... .. . ... : ... .. . Z19
ROW 79 : ... .. . ... ... : ... .. . ... : ... .. . ... : ... .. . ... : ... .. . Z1B
ROW 7A : ... .. . ... ... : ... .. . ... : ... .. . ... : ... .. . ... : ... .. . Z1D
ROW 7B : ... .. . ... ... : ... .. . ... : ... .. . ... : ... .. . ... : ... .. . Z1F
ROW 7C : ... .. . ... ... : ... .. . ... : ... .. . ... : ... .. . ... : ... .. . Z21
ROW 7D : ... .. . ... ... : ... .. . ... : ... .. . ... : ... .. . ... : ... .. . Z23
ROW 7E : ... .. 2 ... ... : ... .. . ... : --- .. . ... : ... .. . ... : ... .. . Z25
ROW 7F : ... .. . ... ... : ... .. . ... : ... .. . ... : ... .. . ... : ... .. . Z27
ROW 80 : ... .. . ... ... : ... .. . ... : ... .. . ... : ... .. . ... : ... .. . Z29
ROW 81 : ... .. 1 ... ... : ... .. . ... : ... .. . ... : ... .. . ... : ... .. . Z2B
ROW 82 : ... .. 0 ... ... : ... .. . ... : ... .. . ... : ... .. . ... : ... .. . Z2D
ROW 83 : ... .. . ... ... : ... .. . ... : ... .. . ... : ... .. . ... : ... .. . Z2F
ROW 84 : ... .. 3 ... ... : ... .. . ... : G-1 00 . ... : ... .. . ... : ... .. . ...
ROW 85 : ... .. . ... ... : ... .. . ... : ... .. . ... : ... .. . ... : ... .. . Z2F
ROW 86 : ... .. . ... ... : ... .. . ... : ... .. . ... : ... .. . ... : ... .. . Z2A
ROW 87 : ... .. . ... ... : ... .. . ... : ... .. . ... : ... .. . ... : ... .. . Z26
ROW 88 : ... .. . ... ... : ... .. . ... : ... .. . ... : ... .. . ... : ... .. . Z22
ROW 89 : ... .. . ... ... : ... .. . ... : ... .. . ... : ... .. . ... : ... .. . Z1D
ROW 8A : ... .. 2 ... ... : ... .. . ... : --- .. . ... : ... .. . ... : ... .. . Z19
ROW 8B : ... .. . ... ... : ... .. . ... : ... .. . ... : ... .. . ... : ... .. . Z15
ROW 8C : ... .. . ... ... : ... .. . ... : ... .. . ... : ... .. . ... : ... .. . Z11
ROW 8D : ... .. 1 ... ... : ... .. . ... : ... .. . ... : ... .. . ... : ... .. . Z0C
ROW 8E : ... .. 0 ... ... : ... .. . ... : ... .. . ... : ... .. . ... : ... .. . Z08
ROW 8F : ... .. . ... ... : ... .. . ... : ... .. . ... : ... .. . ... : ... .. . Z04
ROW 90 : ... .. 6 V03 ... : ... .. . ... : G-1 00 . ... : ... .. . ... : ... .. . Z00
ROW 91 : ... .. . ... ... : ... .. . ... : ... .. . ... : ... .. . ... : ... .. . Z01
ROW 92 : ... .. . ... ... : ... .. . ... : ... .. . ... : ... .. . ... : ... .. . Z03
ROW 93 : ... .. . ... ... : ... .. . ... : ... .. . ... : ... .. . ... : ... .. . Z05
ROW 94 : ... .. . ... ... : ... .. . ... : ... .. . ... : ... .. . ... : ... .. . Z07
ROW 95 : ... .. . ... ... : ... .. . ... : ... .. . ... : ... .. . ... : ... .. . Z09
ROW 96 : ... .. 3 ... ... : ... .. . ... : --- .. . ... : ... .. . ... : ... .. . Z0B
ROW 97 : ... .. . ... ... : ... .. . ... : ... .. . ... : ... .. . ... : ... .. . Z0D
ROW 98 : ... .. . ... ... : ... .. . ... : ... .. . ... : ... .. . ... : ... .. . Z0F
ROW 99 : ... .. 1 ... ... : ... .. . ... : ... .. . ... : ... .. . ... : ... .. . Z11
ROW 9A : ... .. 0 ... ... : ... .. . ... : ... .. . ... : ... .. . ... : ... .. . Z13
ROW 9B : ... .. . ... ... : ... .. . ... : ... .. . ... : ... .. . ... : ... .. . Z15
ROW 9C : ... .. 3 V02 ... : ... .. . ... : G-1 00 . ... : ... .. . ... : ... .. . Z17
ROW 9D : ... .. . ... ... : ... .. . ... : ... .. . ... : ... .. . ... : ... .. . Z19
ROW 9E : ... .. . ... ... : ... .. . ... : ... .. . ... : ... .. . ... : ... .. . Z1B
ROW 9F : ... .. . ... ... : ... .. . ... : ... .. . ... : ... .. . ... : ... .. . Z1D
ROW A0 : ... .. . ... ... : ... .. . ... : ... .. . ... : ... .. . ... : ... .. . Z1F
ROW A1 : ... .. . ... ... : ... .. . ... : ... .. . ... : ... .. . ... : ... .. . Z21
ROW A2 : ... .. 2 ... ... : ... .. . ... : --- .. . ... : ... .. . ... : ... .. . Z23
ROW A3 : ... .. . ... ... : ... .. . ... : ... .. . ... : ... .. . ... : ... .. . Z25
ROW A4 : ... .. . ... ... : ... .. . ... : ... .. . ... : ... .. . ... : ... .. . Z27
ROW A5 : ... .. 1 ... ... : ... .. . ... : ... .. . ... : ... .. . ... : ... .. . Z29
ROW A6 : ... .. 0 ... ... : ... .. . ... : ... .. . ... : ... .. . ... : ... .. . Z2B
ROW A7 : ... .. . ... ... : ... .. . ... : ... .. . ... : ... .. . ... : ... .. . Z2D
ROW A8 : ... .. 3 ... ... : ... .. . ... : G-1 00 . ... : ... .. . ... : ... .. . Z2F
ROW A9 : ... .. . ... ... : ... .. . ... : ... .. . ... : ... .. . ... : ... .. . ...
ROW AA : ... .. . ... ... : ... .. . ... : ... .. . ... : ... .. . ... : ... .. . ...
ROW AB : ... .. . ... ... : ... .. . ... : ... .. . ... : ... .. . ... : ... .. . ...
ROW AC : ... .. . ... ... : ... .. . ... : ... .. . ... : ... .. . ... : ... .. . ...
ROW AD : ... .. . ... ... : ... .. . ... : ... .. . ... : ... .. . ... : ... .. . ...
ROW AE : ... .. 2 ... ... : ... .. . ... : --- .. . ... : ... .. . ... : ... .. . ...
ROW AF : ... .. . ... ... : ... .. . ... : ... .. . ... : ... .. . ... : ... .. . ...
ROW B0 : ... .. . ... ... : ... .. . ... : ... .. . ... : ... .. . ... : ... .. . ...
ROW B1 : ... .. 1 ... ... : ... .. . ... : ... .. . ... : ... .. . ... : ... .. . ...
ROW B2 : ... .. 0 ... ... : ... .. . ... : ... .. . ... : ... .. . ... : ... .. . ...
ROW B3 : ... .. . ... ... : ... .. . ... : ... .. . ... : ... .. . ... : ... .. . ...
ROW B4 : ... .. 3 ... ... : ... .. 4 ... : G-1 00 . ... : ... .. . ... : ... .. . ...
ROW B5 : ... .. . ... ... : ... .. . ... : ... .. . ... : ... .. . ... : ... .. . Z2F
ROW B6 : ... .. . ... ... : ... .. . ... : ... .. . ... : ... .. . ... : ... .. . Z2A
ROW B7 : ... .. . ... ... : ... .. 3 ... : ... .. . ... : ... .. . ... : ... .. . Z26
ROW B8 : ... .. . ... ... : ... .. . ... : ... .. . ... : ... .. . ... : ... .. . Z21
ROW B9 : ... .. . ... ... : ... .. . ... : ... .. . ... : ... .. . ... : ... .. . Z1D
ROW BA : ... .. 2 ... ... : ... .. . ... : --- .. . ... : ... .. . ... : ... .. . Z18
ROW BB : ... .. . ... ... : ... .. 2 ... : ... .. . ... : ... .. . ... : ... .. . Z14
ROW BC : ... .. . ... ... : ... .. . ... : ... .. . ... : ... .. . ... : ... .. . Z0F
ROW BD : ... .. 1 ... ... : ... .. . ... : ... .. . ... : ... .. . ... : ... .. . Z0B
ROW BE : ... .. 0 ... ... : ... .. . ... : ... .. . ... : ... .. . ... : ... .. . Z06
ROW BF : ... .. . ... ... : ... .. 1 ... : ... .. . D00 : ... .. . ... : ... .. . Z02
ROW C0 : ... .. . ... ... : ... .. 1 ... : ... .. . ... : ... .. 1 ... : ... .. . ...
ROW C1 : ... .. . ... ... : ... .. . ... : ... .. . ... : ... .. . ... : ... .. . ...
ROW C2 : ... .. . ... ... : ... .. . ... : ... .. . ... : ... .. . ... : ... .. . ...
ROW C3 : ... .. . ... ... : ... .. . ... : ... .. . ... : ... .. . ... : ... .. . ...
ROW C4 : ... .. . ... ... : ... .. . ... : ... .. . ... : ... .. . ... : ... .. . ...
ROW C5 : ... .. . ... ... : ... .. . ... : ... .. . ... : ... .. . ... : ... .. . ...
ROW C6 : ... .. . ... ... : ... .. . ... : ... .. . ... : ... .. . ... : ... .. . ...
ROW C7 : ... .. . ... ... : ... .. . ... : ... .. . ... : ... .. . ... : ... .. . ...
ROW C8 : ... .. . ... ... : ... .. . ... : ... .. . ... : ... .. . ... : ... .. . ...
ROW C9 : ... .. . ... ... : ... .. . ... : ... .. . ... : ... .. . ... : ... .. . ...
ROW CA : ... .. . ... ... : ... .. . ... : ... .. . ... : ... .. . ... : ... .. . ...
ROW CB : ... .. . ... ... : ... .. . ... : ... .. . ... : ... .. . ... : ... .. . ...
ROW CC : ... .. . ... ... : ... .. . ... : ... .. . ... : ... .. . ... : ... .. . ...
ROW CD : ... .. . ... ... : ... .. . ... : ... .. . ... : ... .. . ... : ... .. . ...
ROW CE : ... .. . ... ... : ... .. . ... : ... .. . ... : ... .. . ... : ... .. . ...
ROW CF : ... .. . ... ... : ... .. . ... : ... .. . ... : ... .. . ... : ... .. . ...
ROW D0 : ... .. . ... ... : ... .. . ... : ... .. . ... : ... .. . ... : ... .. . ...
ROW D1 : ... .. . ... ... : ... .. . ... : ... .. . ... : ... .. . ... : ... .. . ...
ROW D2 : ... .. . ... ... : ... .. . ... : ... .. . ... : ... .. . ... : ... .. . ...
ROW D3 : ... .. . ... ... : ... .. . ... : ... .. . ... : ... .. . ... : ... .. . ...
ROW D4 : ... .. . ... ... : ... .. . ... : ... .. . ... : ... .. . ... : ... .. . ...
ROW D5 : ... .. . ... ... : ... .. . ... : ... .. . ... : ... .. . ... : ... .. . ...
ROW D6 : ... .. . ... ... : ... .. . ... : ... .. . ... : ... .. . ... : ... .. . ...
ROW D7 : ... .. . ... ... : ... .. . ... : ... .. . ... : ... .. . ... : ... .. . ...
ROW D8 : ... .. . ... ... : ... .. . ... : ... .. . ... : ... .. . ... : ... .. . ...
ROW D9 : ... .. . ... ... : ... .. . ... : ... .. . ... : ... .. . ... : ... .. . ...
ROW DA : ... .. . ... ... : ... .. . ... : ... .. . ... : ... .. . ... : ... .. . ...
ROW DB : ... .. . ... ... : ... .. . ... : ... .. . ... : ... .. . ... : ... .. . ...
ROW DC : ... .. . ... ... : ... .. . ... : ... .. . ... : ... .. . ... : ... .. . ...
ROW DD : ... .. . ... ... : ... .. . ... : ... .. . ... : ... .. . ... : ... .. . ...
ROW DE : ... .. . ... ... : ... .. . ... : ... .. . ... : ... .. . ... : ... .. . ...
ROW DF : ... .. . ... ... : ... .. . ... : ... .. . ... : ... .. . ... : ... .. . ...
ROW E0 : ... .. . ... ... : ... .. . ... : ... .. . ... : ... .. . ... : ... .. . ...
ROW E1 : ... .. . ... ... : ... .. . ... : ... .. . ... : ... .. . ... : ... .. . ...
ROW E2 : ... .. . ... ... : ... .. . ... : ... .. . ... : ... .. . ... : ... .. . ...
ROW E3 : ... .. . ... ... : ... .. . ... : ... .. . ... : ... .. . ... : ... .. . ...
ROW E4 : ... .. . ... ... : ... .. . ... : ... .. . ... : ... .. . ... : ... .. . ...
ROW E5 : ... .. . ... ... : ... .. . ... : ... .. . ... : ... .. . ... : ... .. . ...
ROW E6 : ... .. . ... ... : ... .. . ... : ... .. . ... : ... .. . ... : ... .. . ...
ROW E7 : ... .. . ... ... : ... .. . ... : ... .. . ... : ... .. . ... : ... .. . ...
ROW E8 : ... .. . ... ... : ... .. . ... : ... .. . ... : ... .. . ... : ... .. . ...
ROW E9 : ... .. . ... ... : ... .. . ... : ... .. . ... : ... .. . ... : ... .. . ...
ROW EA : ... .. . ... ... : ... .. . ... : ... .. . ... : ... .. . ... : ... .. . ...
ROW EB : ... .. . ... ... : ... .. . ... : ... .. . ... : ... .. . ... : ... .. . ...
ROW EC : ... .. . ... ... : ... .. . ... : ... .. . ... : ... .. . ... : ... .. . ...
ROW ED : ... .. . ... ... : ... .. . ... : ... .. . ... : ... .. . ... : ... .. . ...
ROW EE : ... .. . ... ... : ... .. . ... : ... .. . ... : ... .. . ... : ... .. . ...
ROW EF : ... .. . ... ... : ... .. . ... : ... .. . ... : ... .. . ... : ... .. . ...
ROW F0 : ... .. . ... ... : ... .. . ... : ... .. . ... : ... .. . ... : ... .. . ...
ROW F1 : ... .. . ... ... : ... .. . ... : ... .. . ... : ... .. . ... : ... .. . ...
ROW F2 : ... .. . ... ... : ... .. . ... : ... .. . ... : ... .. . ... : ... .. . ...
ROW F3 : ... .. . ... ... : ... .. . ... : ... .. . ... : ... .. . ... : ... .. . ...
ROW F4 : ... .. . ... ... : ... .. . ... : ... .. . ... : ... .. . ... : ... .. . ...
ROW F5 : ... .. . ... ... : ... .. . ... : ... .. . ... : ... .. . ... : ... .. . ...
ROW F6 : ... .. . ... ... : ... .. . ... : ... .. . ... : ... .. . ... : ... .. . ...
ROW F7 : ... .. . ... ... : ... .. . ... : ... .. . ... : ... .. . ... : ... .. . ...
ROW F8 : ... .. . ... ... : ... .. . ... : ... .. . ... : ... .. . ... : ... .. . ...
ROW F9 : ... .. . ... ... : ... .. . ... : ... .. . ... : ... .. . ... : ... .. . ...
ROW FA : ... .. . ... ... : ... .. . ... : ... .. . ... : ... .. . ... : ... .. . ...
ROW FB : ... .. . ... ... : ... .. . ... : ... .. . ... : ... .. . ... : ... .. . ...
ROW FC : ... .. . ... ... : ... .. . ... : ... .. . ... : ... .. . ... : ... .. . ...
ROW FD : ... .. . ... ... : ... .. . ... : ... .. . ... : ... .. . ... : ... .. . ...
ROW FE : ... .. . ... ... : ... .. . ... : ... .. . ... : ... .. . ... : ... .. . ...
ROW FF : ... .. . ... ... : ... .. . ... : ... .. . ... : ... .. . ... : ... .. . ...

PATTERN 01
ROW 00 : G-1 00 6 V03 ... : F#3 02 1 ... : G-1 00 . ... : 0-# 04 F ... : ... .. . Z00
ROW 01 : ... .. . ... ... : ... .. . ... : ... .. . ... : ... .. . ... : ... .. . Z01
ROW 02 : ... .. 5 ... ... : ... .. . ... : ... .. . ... : ... .. . ... : ... .. . Z03
ROW 03 : ... .. 3 ... ... : ... .. . ... : ... .. . ... : ... .. . ... : ... .. . Z05
ROW 04 : --- .. . ... ... : ... .. . ... : ... .. . ... : ... .. . ... : ... .. . Z07
ROW 05 : ... .. . ... ... : ... .. . ... : ... .. . ... : ... .. . ... : ... .. . Z09
ROW 06 : D-4 00 2 V02 ... : ... .. . ... : --- .. . ... : ... .. . ... : ... .. . Z0B
ROW 07 : G-4 00 . ... ... : ... .. . ... : ... .. . ... : ... .. . ... : ... .. . Z0D
ROW 08 : D-4 00 . ... ... : ... .. . ... : ... .. . ... : ... .. . ... : ... .. . Z0F
ROW 09 : G-4 00 . ... ... : ... .. . ... : ... .. . ... : ... .. . ... : ... .. . Z11
ROW 0A : --- .. . ... ... : ... .. . ... : ... .. . ... : ... .. . ... : ... .. . Z13
ROW 0B : ... .. . ... ... : ... .. . ... : ... .. . ... : ... .. . ... : ... .. . Z15
ROW 0C : D-4 00 . V03 ... : ... .. . ... : G-1 00 . ... : 0-# 04 A ... : ... .. . Z17
ROW 0D : G-4 00 . ... ... : ... .. . ... : ... .. . ... : ... .. . ... : ... .. . Z19
ROW 0E : D-4 00 . ... ... : ... .. 2 ... : ... .. . ... : ... .. . ... : ... .. . Z1B
ROW 0F : G-4 00 . ... ... : ... .. . ... : ... .. . ... : ... .. . ... : ... .. . Z1D
ROW 10 : --- .. . ... ... : ... .. . ... : ... .. . ... : ... .. . ... : ... .. . Z1F
ROW 11 : ... .. . ... ... : ... .. . ... : ... .. . ... : ... .. . ... : ... .. . Z21
ROW 12 : D-4 00 1 ... ... : ... .. . ... : --- .. . ... : ... .. . ... : ... .. . Z23
ROW 13 : G-4 00 . ... ... : ... .. . ... : ... .. . ... : ... .. . ... : ... .. . Z25
ROW 14 : D-4 00 . ... ... : ... .. . ... : ... .. . ... : ... .. . ... : ... .. . Z27
ROW 15 : G-4 00 . ... ... : ... .. . ... : ... .. . ... : ... .. . ... : ... .. . Z29
ROW 16 : --- .. . ... ... : ... .. . ... : ... .. . ... : ... .. . ... : ... .. . Z2B
ROW 17 : ... .. . ... ... : ... .. . ... : ... .. . ... : ... .. . ... : ... .. . Z2D
ROW 18 : D-4 00 2 V02 ... : ... .. . ... : G-1 00 . ... : 0-# 04 8 ... : ... .. . Z2F
ROW 19 : G-4 00 . ... ... : ... .. . ... : ... .. . ... : ... .. . ... : ... .. . ...
ROW 1A : D-4 00 . ... ... : ... .. . ... : ... .. . ... : ... .. . ... : ... .. . ...
ROW 1B : G-4 00 . ... ... : ... .. . ... : ... .. . ... : ... .. . ... : ... .. . ...
ROW 1C : --- .. . ... ... : ... .. 3 ... : ... .. . ... : ... .. . ... : ... .. . ...
ROW 1D : ... .. . ... ... : ... .. . ... : ... .. . ... : ... .. . ... : ... .. . ...
ROW 1E : D-4 00 . ... ... : ... .. . ... : --- .. . ... : ... .. . ... : ... .. . ...
ROW 1F : G-4 00 . ... ... : ... .. . ... : ... .. . ... : ... .. . ... : ... .. . ...
ROW 20 : D-4 00 . ... ... : ... .. . ... : ... .. . ... : ... .. . ... : ... .. . ...
ROW 21 : G-4 00 . ... ... : ... .. . ... : ... .. . ... : ... .. . ... : ... .. . ...
ROW 22 : --- .. . ... ... : ... .. . ... : ... .. . ... : ... .. . ... : ... .. . ...
ROW 23 : ... .. . ... ... : ... .. . ... : ... .. . ... : ... .. . ... : ... .. . ...
ROW 24 : D-3 00 . V02 ... : ... .. . ... : G-1 00 . ... : 0-# 04 . ... : ... .. . ...
ROW 25 : G-3 00 . ... ... : ... .. . ... : ... .. . ... : ... .. . ... : ... .. . Z2F
ROW 26 : D-3 00 . ... ... : ... .. . ... : ... .. . ... : ... .. . ... : ... .. . Z2A
ROW 27 : G-3 00 . ... ... : ... .. . ... : ... .. . ... : ... .. . ... : ... .. . Z26
ROW 28 : --- .. . ... ... : ... .. . ... : ... .. . ... : ... .. . ... : ... .. . Z22
ROW 29 : ... .. . ... ... : ... .. . ... : ... .. . ... : ... .. . ... : ... .. . Z1D
ROW 2A : D-3 00 3 ... ... : ... .. . ... : --- .. . ... : ... .. . ... : ... .. . Z19
ROW 2B : G-3 00 . ... ... : ... .. 4 ... : ... .. . ... : ... .. . ... : ... .. . Z15
ROW 2C : D-3 00 . ... ... : ... .. . ... : ... .. . ... : ... .. . ... : ... .. . Z11
ROW 2D : G-3 00 . ... ... : ... .. . ... : ... .. . ... : ... .. . ... : ... .. . Z0C
ROW 2E : --- .. . ... ... : ... .. . ... : ... .. . ... : ... .. . ... : ... .. . Z08
ROW 2F : ... .. . ... ... : ... .. . ... : ... .. . ... : ... .. . ... : ... .. . Z04
ROW 30 : G-1 00 6 V03 ... : ... .. . ... : G-1 00 . ... : 0-# 05 F ... : ... .. . Z00
ROW 31 : ... .. . ... ... : ... .. . ... : ... .. . ... : ... .. . ... : ... .. . Z01
ROW 32 : ... .. 5 ... ... : ... .. . ... : ... .. . ... : ... .. . ... : ... .. . Z03
ROW 33 : ... .. 3 ... ... : ... .. . ... : ... .. . ... : ... .. . ... : ... .. . Z05
ROW 34 : --- .. . ... ... : ... .. . ... : ... .. . ... : ... .. . ... : ... .. . Z07
ROW 35 : ... .. . ... ... : ... .. . ... : ... .. . ... : ... .. . ... : ... .. . Z09
ROW 36 : D-4 00 2 ... ... : ... .. . ... : --- .. . ... : ... .. . ... : ... .. . Z0B
ROW 37 : G-4 00 . ... ... : ... .. 5 ... : ... .. . ... : ... .. . ... : ... .. . Z0D
ROW 38 : D-4 00 . ... ... : ... .. . ... : ... .. . ... : ... .. . ... : ... .. . Z0F
ROW 39 : G-4 00 . ... ... : ... .. . ... : ... .. . ... : ... .. . ... : ... .. . Z11
ROW 3A : --- .. . ... ... : ... .. . ... : ... .. . ... : ... .. . ... : ... .. . Z13
ROW 3B : ... .. . ... ... : ... .. . ... : ... .. . ... : ... .. . ... : ... .. . Z15
ROW 3C : D-3 00 1 V02 ... : ... .. . ... : G-1 00 . ... : ... .. . ... : ... .. . Z17
ROW 3D : G-3 00 . ... ... : ... .. . ... : ... .. . ... : ... .. . ... : ... .. . Z19
ROW 3E : D-3 00 . ... ... : ... .. . ... : ... .. . ... : ... .. . ... : ... .. . Z1B
ROW 3F : G-3 00 . ... ... : ... .. . ... : ... .. . ... : ... .. . ... : ... .. . Z1D
ROW 40 : --- .. . ... ... : ... .. . ... : ... .. . ... : ... .. . ... : ... .. . Z1F
ROW 41 : ... .. . ... ... : ... .. . ... : ... .. . ... : ... .. . ... : ... .. . Z21
ROW 42 : D-3 00 2 ... ... : ... .. . ... : --- .. . ... : ... .. . ... : ... .. . Z23
ROW 43 : G-3 00 . ... ... : ... .. . ... : ... .. . ... : ... .. . ... : ... .. . Z25
ROW 44 : D-3 00 . ... ... : ... .. . ... : ... .. . ... : ... .. . ... : ... .. . Z27
ROW 45 : G-3 00 . ... ... : ... .. 6 ... : ... .. . ... : ... .. . ... : ... .. . Z29
ROW 46 : --- .. . ... ... : ... .. . ... : ... .. . ... : ... .. . ... : ... .. . Z2B
ROW 47 : ... .. . ... ... : ... .. . ... : ... .. . ... : ... .. . ... : ... .. . Z2D
ROW 48 : D-6 00 2 V02 ... : ... .. . ... : G-1 00 . ... : 0-# 05 6 ... : ... .. . Z2F
ROW 49 : G-6 00 . ... ... : ... .. . ... : ... .. . ... : ... .. . ... : ... .. . ...
ROW 4A : D-6 00 . ... ... : ... .. . ... : ... .. . ... : ... .. . ... : ... .. . ...
ROW 4B : G-6 00 . ... ... : ... .. . ... : ... .. . ... : ... .. . ... : ... .. . ...
ROW 4C : --- .. . ... ... : ... .. . ... : ... .. . ... : ... .. . ... : ... .. . ...
ROW 4D : ... .. . ... ... : ... .. . ... : ... .. . ... : ... .. . ... : ... .. . ...
ROW 4E : D-6 00 . ... ... : ... .. . ... : --- .. . ... : ... .. . ... : ... .. . ...
ROW 4F : G-6 00 . ... ... : ... .. . ... : ... .. . ... : ... .. . ... : ... .. . ...
ROW 50 : D-6 00 . ... ... : ... .. . ... : ... .. . ... : ... .. . ... : ... .. . ...
ROW 51 : G-6 00 . ... ... : ... .. . ... : ... .. . ... : ... .. . ... : ... .. . ...
ROW 52 : --- .. . ... ... : ... .. . ... : ... .. . ... : ... .. . ... : ... .. . ...
ROW 53 : ... .. . ... ... : ... .. 7 ... : ... .. . ... : ... .. . ... : ... .. . ...
ROW 54 : D-4 00 3 ... ... : ... .. . ... : G-1 00 . ... : 0-# 04 8 ... : ... .. . ...
ROW 55 : G-4 00 . ... ... : ... .. . ... : ... .. . ... : ... .. . ... : ... .. . ...
ROW 56 : D-4 00 . ... ... : ... .. . ... : ... .. . ... : ... .. . ... : ... .. . ...
ROW 57 : G-4 00 . ... ... : ... .. . ... : ... .. . ... : ... .. . ... : ... .. . ...
ROW 58 : --- .. . ... ... : ... .. . ... : ... .. . ... : ... .. . ... : ... .. . ...
ROW 59 : ... .. . ... ... : ... .. . ... : ... .. . ... : ... .. . ... : ... .. . ...
ROW 5A : D-4 00 . ... ... : ... .. . ... : --- .. . ... : ... .. . ... : ... .. . ...
ROW 5B : G-4 00 . ... ... : ... .. . ... : ... .. . ... : ... .. . ... : ... .. . ...
ROW 5C : D-4 00 . ... ... : ... .. . ... : ... .. . ... : ... .. . ... : ... .. . ...
ROW 5D : G-4 00 . ... ... : ... .. . ... : ... .. . ... : ... .. . ... : ... .. . ...
ROW 5E : --- .. . ... ... : ... .. . ... : ... .. . ... : ... .. . ... : ... .. . ...
ROW 5F : ... .. . ... ... : ... .. . ... : ... .. . ... : ... .. . ... : ... .. . ...
ROW 60 : D-4 00 1 V00 ... : ... .. 8 ... : G-1 00 . ... : 0-# 04 . ... : ... .. . Z2F
ROW 61 : G-4 00 . ... ... : ... .. . ... : ... .. . ... : ... .. . ... : ... .. . Z2A
ROW 62 : D-4 00 . ... ... : ... .. 7 ... : ... .. . ... : ... .. . ... : ... .. . Z26
ROW 63 : G-4 00 . ... ... : ... .. . ... : ... .. . ... : ... .. . ... : ... .. . Z22
ROW 64 : --- .. . ... ... : ... .. 6 ... : ... .. . ... : ... .. . ... : ... .. . Z1D
ROW 65 : ... .. . ... ... : ... .. . ... : ... .. . ... : ... .. . ... : ... .. . Z19
ROW 66 : D-4 00 2 ... ... : ... .. . ... : --- .. . ... : ... .. . ... : ... .. . Z15
ROW 67 : G-4 00 . ... ... : ... .. 5 ... : ... .. . ... : ... .. . ... : ... .. . Z11
ROW 68 : D-4 00 . ... ... : ... .. . ... : ... .. . ... : ... .. . ... : ... .. . Z0C
ROW 69 : G-4 00 . ... ... : ... .. . ... : ... .. . ... : ... .. . ... : ... .. . Z08
ROW 6A : --- .. . ... ... : ... .. 4 ... : ... .. . ... : ... .. . ... : ... .. . Z04
ROW 6B : ... .. . ... ... : ... .. . ... : ... .. . ... : ... .. . ... : ... .. . Z00
ROW 6C : G-1 00 6 V03 ... : ... .. . ... : G-1 00 . ... : 0-# 04 F ... : ... .. . Z02
ROW 6D : ... .. . ... ... : ... .. . ... : ... .. . ... : ... .. . ... : ... .. . Z03
ROW 6E : ... .. 5 ... ... : ... .. . ... : ... .. . ... : ... .. . ... : ... .. . Z05
ROW 6F : ... .. 3 ... ... : ... .. . ... : ... .. . ... : ... .. . ... : ... .. . Z07
ROW 70 : --- .. . ... ... : ... .. . ... : ... .. . ... : ... .. . ... : ... .. . Z09
ROW 71 : ... .. . ... ... : ... .. . ... : ... .. . ... : ... .. . ... : ... .. . Z0B
ROW 72 : D-4 00 1 ... ... : ... .. . ... : --- .. . ... : ... .. . ... : ... .. . Z0D
ROW 73 : G-4 00 . ... ... : ... .. . ... : ... .. . ... : ... .. . ... : ... .. . Z0F
ROW 74 : D-4 00 . ... ... : ... .. . ... : ... .. . ... : ... .. . ... : ... .. . Z11
ROW 75 : G-4 00 . ... ... : ... .. . ... : ... .. . ... : ... .. . ... : ... .. . Z13
ROW 76 : --- .. . ... ... : ... .. . ... : ... .. . ... : ... .. . ... : ... .. . Z15
ROW 77 : ... .. . ... ... : ... .. . ... : ... .. . ... : ... .. . ... : ... .. . Z17
ROW 78 : D-4 00 2 V02 ... : ... .. . ... : G-1 00 . ... : 0-# 04 A ... : ... .. . Z19
ROW 79 : G-4 00 . ... ... : ... .. . ... : ... .. . ... : ... .. . ... : ... .. . Z1B
ROW 7A : D-4 00 . ... ... : ... .. . ... : ... .. . ... : ... .. . ... : ... .. . Z1D
ROW 7B : G-4 00 . ... ... : ... .. . ... : ... .. . ... : ... .. . ... : ... .. . Z1F
ROW 7C : --- .. . ... ... : ... .. . ... : ... .. . ... : ... .. . ... : ... .. . Z21
ROW 7D : ... .. . ... ... : ... .. . ... : ... .. . ... : ... .. . ... : ... .. . Z23
ROW 7E : D-4 00 . ... ... : ... .. . ... : --- .. . ... : ... .. . ... : ... .. . Z25
ROW 7F : G-4 00 . ... ... : ... .. . ... : ... .. . ... : ... .. . ... : ... .. . Z27
ROW 80 : D-4 00 . ... ... : ... .. . ... : ... .. . ... : ... .. . ... : ... .. . Z29
ROW 81 : G-4 00 . ... ... : ... .. . ... : ... .. . ... : ... .. . ... : ... .. . Z2B
ROW 82 : --- .. . ... ... : ... .. . ... : ... .. . ... : ... .. . ... : ... .. . Z2D
ROW 83 : ... .. . ... ... : ... .. . ... : ... .. . ... : ... .. . ... : ... .. . Z2F
ROW 84 : D-3 00 . V02 ... : ... .. . ... : G-1 00 . ... : 0-# 04 8 ... : ... .. . ...
ROW 85 : G-3 00 . ... ... : ... .. . ... : ... .. . ... : ... .. . ... : ... .. . Z2F
ROW 86 : D-3 00 . ... ... : ... .. . ... : ... .. . ... : ... .. . ... : ... .. . Z2A
ROW 87 : G-3 00 . ... ... : ... .. . ... : ... .. . ... : ... .. . ... : ... .. . Z26
ROW 88 : --- .. . ... ... : ... .. . ... : ... .. . ... : ... .. . ... : ... .. . Z22
ROW 89 : ... .. . ... ... : ... .. . ... : ... .. . ... : ... .. . ... : ... .. . Z1D
ROW 8A : D-3 00 3 ... ... : ... .. . ... : --- .. . ... : ... .. . ... : ... .. . Z19
ROW 8B : G-3 00 . ... ... : ... .. . ... : ... .. . ... : ... .. . ... : ... .. . Z15
ROW 8C : D-3 00 . ... ... : ... .. . ... : ... .. . ... : ... .. . ... : ... .. . Z11
ROW 8D : G-3 00 . ... ... : ... .. . ... : ... .. . ... : ... .. . ... : ... .. . Z0C
ROW 8E : --- .. . ... ... : ... .. . ... : ... .. . ... : ... .. . ... : ... .. . Z08
ROW 8F : ... .. . ... ... : ... .. . ... : ... .. . ... : ... .. . ... : ... .. . Z04
ROW 90 : G-1 00 6 V03 ... : ... .. . ... : G-1 00 . ... : 0-# 05 F ... : ... .. . Z00
ROW 91 : ... .. . ... ... : ... .. . ... : ... .. . ... : ... .. . ... : ... .. . ...
ROW 92 : ... .. 5 ... ... : ... .. . ... : ... .. . ... : ... .. . ... : ... .. . ...
ROW 93 : ... .. 3 ... ... : ... .. . ... : ... .. . ... : ... .. . ... : ... .. . ...
ROW 94 : --- .. . ... ... : ... .. . ... : ... .. . ... : ... .. . ... : ... .. . ...
ROW 95 : ... .. . ... ... : ... .. . ... : ... .. . ... : ... .. . ... : ... .. . ...
ROW 96 : D-4 00 2 ... ... : ... .. . ... : --- .. . ... : ... .. . ... : ... .. . ...
ROW 97 : G-4 00 . ... ... : ... .. . ... : ... .. . ... : ... .. . ... : ... .. . ...
ROW 98 : D-4 00 . ... ... : ... .. . ... : ... .. . ... : ... .. . ... : ... .. . ...
ROW 99 : G-4 00 . ... ... : ... .. . ... : ... .. . ... : ... .. . ... : ... .. . ...
ROW 9A : --- .. . ... ... : ... .. . ... : ... .. . ... : ... .. . ... : ... .. . ...
ROW 9B : ... .. . ... ... : ... .. . ... : ... .. . ... : ... .. . ... : ... .. . ...
ROW 9C : D-3 00 1 V02 ... : ... .. . ... : G-1 00 . ... : ... .. . ... : ... .. . ...
ROW 9D : G-3 00 . ... ... : ... .. . ... : ... .. . ... : ... .. . ... : ... .. . ...
ROW 9E : D-3 00 . ... ... : ... .. . ... : ... .. . ... : ... .. . ... : ... .. . ...
ROW 9F : G-3 00 . ... ... : ... .. . ... : ... .. . ... : ... .. . ... : ... .. . ...
ROW A0 : --- .. . ... ... : ... .. . ... : ... .. . ... : ... .. . ... : ... .. . ...
ROW A1 : ... .. . ... ... : ... .. . ... : ... .. . ... : ... .. . ... : ... .. . ...
ROW A2 : D-3 00 2 ... ... : ... .. . ... : --- .. . ... : ... .. . ... : ... .. . ...
ROW A3 : G-3 00 . ... ... : ... .. . ... : ... .. . ... : ... .. . ... : ... .. . ...
ROW A4 : D-3 00 . ... ... : ... .. . ... : ... .. . ... : ... .. . ... : ... .. . ...
ROW A5 : G-3 00 . ... ... : ... .. . ... : G-1 00 . 160 : ... .. . ... : ... .. . ...
ROW A6 : --- .. . ... ... : ... .. . ... : ... .. . ... : ... .. . ... : ... .. . ...
ROW A7 : ... .. . ... ... : ... .. . ... : ... .. . ... : ... .. . ... : ... .. . ...
ROW A8 : D-6 00 2 V02 ... : ... .. . ... : ... .. . 14A : 0-# 05 6 ... : ... .. . ...
ROW A9 : G-6 00 . ... ... : ... .. . ... : ... .. . ... : ... .. . ... : ... .. . ...
ROW AA : D-6 00 . ... ... : ... .. . ... : ... .. . ... : ... .. . ... : ... .. . ...
ROW AB : G-6 00 . ... ... : ... .. . ... : ... .. . ... : ... .. . ... : ... .. . ...
ROW AC : --- .. . ... ... : ... .. . ... : ... .. . 130 : ... .. . ... : ... .. . ...
ROW AD : ... .. . ... ... : ... .. . ... : ... .. . ... : ... .. . ... : ... .. . ...
ROW AE : D-6 00 . ... ... : ... .. . ... : ... .. . 223 : ... .. . ... : ... .. . ...
ROW AF : G-6 00 . ... ... : ... .. . ... : ... .. . ... : ... .. . ... : ... .. . ...
ROW B0 : D-6 00 . ... ... : ... .. . ... : ... .. . ... : ... .. . ... : ... .. . ...
ROW B1 : G-6 00 . ... ... : ... .. . ... : ... .. . ... : ... .. . ... : ... .. . ...
ROW B2 : --- .. . ... ... : ... .. . ... : ... .. . ... : ... .. . ... : ... .. . ...
ROW B3 : ... .. . ... ... : ... .. . ... : ... .. . ... : ... .. . ... : ... .. . ...
ROW B4 : D-4 00 3 ... ... : ... .. 4 ... : ... .. . ... : 0-# 04 8 ... : ... .. . ...
ROW B5 : G-4 00 . ... ... : ... .. . ... : ... .. . ... : ... .. . ... : ... .. . ...
ROW B6 : D-4 00 . ... ... : ... .. . ... : ... .. . ... : ... .. . ... : ... .. . ...
ROW B7 : G-4 00 . ... ... : ... .. 3 ... : ... .. . ... : ... .. . ... : ... .. . ...
ROW B8 : --- .. . ... ... : ... .. . ... : ... .. . ... : ... .. . ... : ... .. . ...
ROW B9 : ... .. . ... ... : ... .. . ... : ... .. . ... : ... .. . ... : ... .. . ...
ROW BA : D-4 00 . ... ... : ... .. . ... : ... .. . ... : ... .. . ... : ... .. . ...
ROW BB : G-4 00 . ... ... : ... .. 2 ... : ... .. . ... : ... .. . ... : ... .. . ...
ROW BC : D-4 00 . ... ... : ... .. . ... : ... .. . ... : ... .. . ... : ... .. . ...
ROW BD : G-4 00 . ... ... : ... .. . ... : ... .. . ... : ... .. . ... : ... .. . ...
ROW BE : --- .. . ... ... : ... .. . ... : ... .. . ... : ... .. . ... : ... .. . ...
ROW BF : ... .. . ... ... : ... .. 1 ... : ... .. . D00 : ... .. . ... : ... .. . ...
ROW C0 : ... .. . ... ... : ... .. . ... : ... .. . ... : ... .. . ... : ... .. . ...
ROW C1 : ... .. . ... ... : ... .. . ... : ... .. . ... : ... .. . ... : ... .. . ...
ROW C2 : ... .. . ... ... : ... .. . ... : ... .. . ... : ... .. . ... : ... .. . ...
ROW C3 : ... .. . ... ... : ... .. . ... : ... .. . ... : ... .. . ... : ... .. . ...
ROW C4 : ... .. . ... ... : ... .. . ... : ... .. . ... : ... .. . ... : ... .. . ...
ROW C5 : ... .. . ... ... : ... .. . ... : ... .. . ... : ... .. . ... : ... .. . ...
ROW C6 : ... .. . ... ... : ... .. . ... : ... .. . ... : ... .. . ... : ... .. . ...
ROW C7 : ... .. . ... ... : ... .. . ... : ... .. . ... : ... .. . ... : ... .. . ...
ROW C8 : ... .. . ... ... : ... .. . ... : ... .. . ... : ... .. . ... : ... .. . ...
ROW C9 : ... .. . ... ... : ... .. . ... : ... .. . ... : ... .. . ... : ... .. . ...
ROW CA : ... .. . ... ... : ... .. . ... : ... .. . ... : ... .. . ... : ... .. . ...
ROW CB : ... .. . ... ... : ... .. . ... : ... .. . ... : ... .. . ... : ... .. . ...
ROW CC : ... .. . ... ... : ... .. . ... : ... .. . ... : ... .. . ... : ... .. . ...
ROW CD : ... .. . ... ... : ... .. . ... : ... .. . ... : ... .. . ... : ... .. . ...
ROW CE : ... .. . ... ... : ... .. . ... : ... .. . ... : ... .. . ... : ... .. . ...
ROW CF : ... .. . ... ... : ... .. . ... : ... .. . ... : ... .. . ... : ... .. . ...
ROW D0 : ... .. . ... ... : ... .. . ... : ... .. . ... : ... .. . ... : ... .. . ...
ROW D1 : ... .. . ... ... : ... .. . ... : ... .. . ... : ... .. . ... : ... .. . ...
ROW D2 : ... .. . ... ... : ... .. . ... : ... .. . ... : ... .. . ... : ... .. . ...
ROW D3 : ... .. . ... ... : ... .. . ... : ... .. . ... : ... .. . ... : ... .. . ...
ROW D4 : ... .. . ... ... : ... .. . ... : ... .. . ... : ... .. . ... : ... .. . ...
ROW D5 : ... .. . ... ... : ... .. . ... : ... .. . ... : ... .. . ... : ... .. . ...
ROW D6 : ... .. . ... ... : ... .. . ... : ... .. . ... : ... .. . ... : ... .. . ...
ROW D7 : ... .. . ... ... : ... .. . ... : ... .. . ... : ... .. . ... : ... .. . ...
ROW D8 : ... .. . ... ... : ... .. . ... : ... .. . ... : ... .. . ... : ... .. . ...
ROW D9 : ... .. . ... ... : ... .. . ... : ... .. . ... : ... .. . ... : ... .. . ...
ROW DA : ... .. . ... ... : ... .. . ... : ... .. . ... : ... .. . ... : ... .. . ...
ROW DB : ... .. . ... ... : ... .. . ... : ... .. . ... : ... .. . ... : ... .. . ...
ROW DC : ... .. . ... ... : ... .. . ... : ... .. . ... : ... .. . ... : ... .. . ...
ROW DD : ... .. . ... ... : ... .. . ... : ... .. . ... : ... .. . ... : ... .. . ...
ROW DE : ... .. . ... ... : ... .. . ... : ... .. . ... : ... .. . ... : ... .. . ...
ROW DF : ... .. . ... ... : ... .. . ... : ... .. . ... : ... .. . ... : ... .. . ...
ROW E0 : ... .. . ... ... : ... .. . ... : ... .. . ... : ... .. . ... : ... .. . ...
ROW E1 : ... .. . ... ... : ... .. . ... : ... .. . ... : ... .. . ... : ... .. . ...
ROW E2 : ... .. . ... ... : ... .. . ... : ... .. . ... : ... .. . ... : ... .. . ...
ROW E3 : ... .. . ... ... : ... .. . ... : ... .. . ... : ... .. . ... : ... .. . ...
ROW E4 : ... .. . ... ... : ... .. . ... : ... .. . ... : ... .. . ... : ... .. . ...
ROW E5 : ... .. . ... ... : ... .. . ... : ... .. . ... : ... .. . ... : ... .. . ...
ROW E6 : ... .. . ... ... : ... .. . ... : ... .. . ... : ... .. . ... : ... .. . ...
ROW E7 : ... .. . ... ... : ... .. . ... : ... .. . ... : ... .. . ... : ... .. . ...
ROW E8 : ... .. . ... ... : ... .. . ... : ... .. . ... : ... .. . ... : ... .. . ...
ROW E9 : ... .. . ... ... : ... .. . ... : ... .. . ... : ... .. . ... : ... .. . ...
ROW EA : ... .. . ... ... : ... .. . ... : ... .. . ... : ... .. . ... : ... .. . ...
ROW EB : ... .. . ... ... : ... .. . ... : ... .. . ... : ... .. . ... : ... .. . ...
ROW EC : ... .. . ... ... : ... .. . ... : ... .. . ... : ... .. . ... : ... .. . ...
ROW ED : ... .. . ... ... : ... .. . ... : ... .. . ... : ... .. . ... : ... .. . ...
ROW EE : ... .. . ... ... : ... .. . ... : ... .. . ... : ... .. . ... : ... .. . ...
ROW EF : ... .. . ... ... : ... .. . ... : ... .. . ... : ... .. . ... : ... .. . ...
ROW F0 : ... .. . ... ... : ... .. . ... : ... .. . ... : ... .. . ... : ... .. . ...
ROW F1 : ... .. . ... ... : ... .. . ... : ... .. . ... : ... .. . ... : ... .. . ...
ROW F2 : ... .. . ... ... : ... .. . ... : ... .. . ... : ... .. . ... : ... .. . ...
ROW F3 : ... .. . ... ... : ... .. . ... : ... .. . ... : ... .. . ... : ... .. . ...
ROW F4 : ... .. . ... ... : ... .. . ... : ... .. . ... : ... .. . ... : ... .. . ...
ROW F5 : ... .. . ... ... : ... .. . ... : ... .. . ... : ... .. . ... : ... .. . ...
ROW F6 : ... .. . ... ... : ... .. . ... : ... .. . ... : ... .. . ... : ... .. . ...
ROW F7 : ... .. . ... ... : ... .. . ... : ... .. . ... : ... .. . ... : ... .. . ...
ROW F8 : ... .. . ... ... : ... .. . ... : ... .. . ... : ... .. . ... : ... .. . ...
ROW F9 : ... .. . ... ... : ... .. . ... : ... .. . ... : ... .. . ... : ... .. . ...
ROW FA : ... .. . ... ... : ... .. . ... : ... .. . ... : ... .. . ... : ... .. . ...
ROW FB : ... .. . ... ... : ... .. . ... : ... .. . ... : ... .. . ... : ... .. . ...
ROW FC : ... .. . ... ... : ... .. . ... : ... .. . ... : ... .. . ... : ... .. . ...
ROW FD : ... .. . ... ... : ... .. . ... : ... .. . ... : ... .. . ... : ... .. . ...
ROW FE : ... .. . ... ... : ... .. . ... : ... .. . ... : ... .. . ... : ... .. . ...
ROW FF : ... .. . ... ... : ... .. . ... : ... .. . ... : ... .. . ... : ... .. . ...

PATTERN 02
ROW 00 : G-1 00 6 V03 ... : G-3 03 1 ... : E-3 00 . 200 : F-# 00 2 ... : ... .. . Z3F
ROW 01 : ... .. . ... ... : ... .. . ... : C#3 00 . ... : ... .. . ... : ... .. . ...
ROW 02 : ... .. 5 ... ... : ... .. . ... : A-2 00 . ... : ... .. . ... : ... .. . ...
ROW 03 : ... .. 3 ... ... : ... .. . ... : E-2 00 . ... : ... .. . ... : ... .. . ...
ROW 04 : --- .. . ... ... : ... .. . ... : G-1 00 . ... : ... .. . ... : ... .. . ...
ROW 05 : ... .. . ... ... : ... .. . ... : ... .. . ... : ... .. . ... : ... .. . ...
ROW 06 : F#4 00 2 V02 ... : ... .. . ... : ... .. . ... : ... .. . ... : ... .. . ...
ROW 07 : A-4 00 . ... ... : ... .. . ... : --- .. . ... : ... .. . ... : ... .. . ...
ROW 08 : F#4 00 . ... ... : ... .. . ... : ... .. . ... : ... .. . ... : ... .. . ...
ROW 09 : A-4 00 . ... ... : ... .. . ... : ... .. . ... : ... .. . ... : ... .. . ...
ROW 0A : --- .. . ... ... : ... .. . ... : ... .. . ... : ... .. . ... : ... .. . ...
ROW 0B : ... .. . ... ... : ... .. . ... : ... .. . ... : ... .. . ... : ... .. . ...
ROW 0C : F#4 00 . V03 ... : ... .. . ... : G-1 00 . ... : ... .. . ... : ... .. . ...
ROW 0D : A-4 00 . ... ... : ... .. . ... : ... .. . ... : ... .. 1 ... : ... .. . ...
ROW 0E : F#4 00 . ... ... : ... .. 2 ... : ... .. . ... : ... .. . ... : ... .. . Z33
ROW 0F : A-4 00 . ... ... : ... .. . ... : ... .. . ... : ... .. . ... : ... .. . Z2F
ROW 10 : --- .. . ... ... : ... .. . ... : ... .. . ... : ... .. . ... : ... .. . Z2C
ROW 11 : ... .. . ... ... : ... .. . ... : ... .. . ... : ... .. . ... : ... .. . Z29
ROW 12 : F#4 00 1 ... ... : ... .. . ... : --- .. . ... : ... .. . ... : ... .. . Z26
ROW 13 : A-4 00 . ... ... : ... .. . ... : ... .. . ... : ... .. . ... : ... .. . Z23
ROW 14 : F#4 00 . ... ... : ... .. . ... : ... .. . ... : ... .. . ... : ... .. . Z1F
ROW 15 : A-4 00 . ... ... : ... .. . ... : ... .. . ... : ... .. . ... : ... .. . Z1C
ROW 16 : --- .. . ... ... : ... .. . ... : ... .. . ... : ... .. . ... : ... .. . Z19
ROW 17 : ... .. . ... ... : ... .. . ... : ... .. . ... : ... .. . ... : ... .. . Z16
ROW 18 : F#4 00 2 V02 ... : ... .. . ... : G-1 00 . ... : ... .. . ... : ... .. . Z13
ROW 19 : A-4 00 . ... ... : ... .. . ... : ... .. . ... : ... .. . ... : ... .. . Z0F
ROW 1A : F#4 00 . ... ... : ... .. . ... : ... .. . ... : ... .. . ... : ... .. . Z0C
ROW 1B : A-4 00 . ... ... : ... .. . ... : ... .. . ... : ... .. . ... : ... .. . Z09
ROW 1C : --- .. . ... ... : ... .. 3 ... : ... .. . ... : ... .. . ... : ... .. . Z06
ROW 1D : ... .. . ... ... : ... .. . ... : ... .. . ... : ... .. . ... : ... .. . Z03
ROW 1E : F#4 00 . ... ... : ... .. . ... : --- .. . ... : ... .. . ... : ... .. . Z00
ROW 1F : A-4 00 . ... ... : ... .. . ... : ... .. . ... : ... .. . ... : ... .. . ...
ROW 20 : F#4 00 . ... ... : ... .. . ... : ... .. . ... : ... .. . ... : ... .. . ...
ROW 21 : A-4 00 . ... ... : ... .. . ... : ... .. . ... : ... .. . ... : ... .. . ...
ROW 22 : --- .. . ... ... : ... .. . ... : ... .. . ... : ... .. . ... : ... .. . ...
ROW 23 : ... .. . ... ... : ... .. . ... : ... .. . ... : ... .. . ... : ... .. . ...
ROW 24 : F#3 00 . V02 ... : ... .. . ... : G-1 00 . ... : ... .. . ... : ... .. . ...
ROW 25 : A-3 00 . ... ... : ... .. . ... : ... .. . ... : ... .. . ... : ... .. . ...
ROW 26 : F#3 00 . ... ... : ... .. . ... : ... .. . ... : ... .. . ... : ... .. . ...
ROW 27 : A-3 00 . ... ... : ... .. . ... : ... .. . ... : ... .. . ... : ... .. . ...
ROW 28 : --- .. . ... ... : ... .. . ... : ... .. . ... : ... .. . ... : ... .. . ...
ROW 29 : ... .. . ... ... : ... .. . ... : ... .. . ... : ... .. . ... : ... .. . ...
ROW 2A : F#3 00 3 ... ... : ... .. . ... : --- .. . ... : ... .. . ... : ... .. . ...
ROW 2B : A-3 00 . ... ... : ... .. 4 ... : ... .. . ... : ... .. . ... : ... .. . ...
ROW 2C : F#3 00 . ... ... : ... .. . ... : ... .. . ... : ... .. . ... : ... .. . ...
ROW 2D : A-3 00 . ... ... : ... .. . ... : ... .. . ... : ... .. . ... : ... .. . ...
ROW 2E : --- .. . ... ... : ... .. . ... : ... .. . ... : ... .. . ... : ... .. . ...
ROW 2F : ... .. . ... ... : ... .. . ... : ... .. . ... : ... .. . ... : ... .. . ...
ROW 30 : G-1 00 6 V03 ... : ... .. . ... : D-4 00 . ... : ... .. 2 ... : ... .. . Z3F
ROW 31 : ... .. . ... ... : ... .. . ... : A#3 00 . ... : ... .. . ... : ... .. . ...
ROW 32 : ... .. 5 ... ... : ... .. . ... : G#3 00 . ... : ... .. . ... : ... .. . ...
ROW 33 : ... .. 3 ... ... : ... .. . ... : F-3 00 . ... : ... .. . ... : ... .. . ...
ROW 34 : --- .. . ... ... : ... .. . ... : E-3 00 . ... : ... .. . ... : ... .. . ...
ROW 35 : ... .. . ... ... : ... .. . ... : G-1 00 . ... : ... .. . ... : ... .. . ...
ROW 36 : F#4 00 2 ... ... : ... .. . ... : ... .. . ... : ... .. . ... : ... .. . ...
ROW 37 : A-4 00 . ... ... : ... .. 5 ... : ... .. . ... : ... .. . ... : ... .. . ...
ROW 38 : F#4 00 . ... ... : ... .. . ... : --- .. . ... : ... .. . ... : ... .. . ...
ROW 39 : A-4 00 . ... ... : ... .. . ... : ... .. . ... : ... .. . ... : ... .. . ...
ROW 3A : --- .. . ... ... : ... .. . ... : ... .. . ... : ... .. . ... : ... .. . ...
ROW 3B : ... .. . ... ... : ... .. . ... : ... .. . ... : ... .. . ... : ... .. . ...
ROW 3C : F#3 00 1 V02 ... : ... .. . ... : G-1 00 . ... : ... .. 3 ... : ... .. . ...
ROW 3D : A-3 00 . ... ... : ... .. . ... : ... .. . ... : ... .. . ... : ... .. . ...
ROW 3E : F#3 00 . ... ... : ... .. . ... : ... .. . ... : ... .. . ... : ... .. . Z33
ROW 3F : A-3 00 . ... ... : ... .. . ... : ... .. . ... : ... .. . ... : ... .. . Z2F
ROW 40 : --- .. . ... ... : ... .. . ... : ... .. . ... : ... .. . ... : ... .. . Z2C
ROW 41 : ... .. . ... ... : ... .. . ... : ... .. . ... : ... .. . ... : ... .. . Z29
ROW 42 : F#3 00 2 ... ... : ... .. . ... : --- .. . ... : ... .. . ... : ... .. . Z26
ROW 43 : A-3 00 . ... ... : ... .. . ... : ... .. . ... : ... .. . ... : ... .. . Z23
ROW 44 : F#3 00 . ... ... : ... .. . ... : ... .. . ... : ... .. . ... : ... .. . Z1F
ROW 45 : A-3 00 . ... ... : ... .. 6 ... : ... .. . ... : ... .. . ... : ... .. . Z1C
ROW 46 : --- .. . ... ... : ... .. . ... : ... .. . ... : ... .. . ... : ... .. . Z19
ROW 47 : ... .. . ... ... : ... .. . ... : ... .. . ... : ... .. . ... : ... .. . Z16
ROW 48 : F#6 00 2 V02 ... : ... .. . ... : G-1 00 . ... : ... .. 4 ... : ... .. . Z13
ROW 49 : A-6 00 . ... ... : ... .. . ... : ... .. . ... : ... .. . ... : ... .. . Z0F
ROW 4A : F#6 00 . ... ... : ... .. . ... : ... .. . ... : ... .. . ... : ... .. . Z0C
ROW 4B : A-6 00 . ... ... : ... .. . ... : ... .. . ... : ... .. . ... : ... .. . Z09
ROW 4C : --- .. . ... ... : ... .. . ... : ... .. . ... : ... .. . ... : ... .. . Z06
ROW 4D : ... .. . ... ... : ... .. . ... : ... .. . ... : ... .. . ... : ... .. . Z03
ROW 4E : F#6 00 . ... ... : ... .. . ... : --- .. . ... : ... .. . ... : ... .. . Z00
ROW 4F : A-6 00 . ... ... : ... .. . ... : ... .. . ... : ... .. . ... : ... .. . ...
ROW 50 : F#6 00 . ... ... : ... .. . ... : ... .. . ... : ... .. . ... : ... .. . ...
ROW 51 : A-6 00 . ... ... : ... .. . ... : ... .. . ... : ... .. . ... : ... .. . ...
ROW 52 : --- .. . ... ... : ... .. . ... : ... .. . ... : ... .. . ... : ... .. . ...
ROW 53 : ... .. . ... ... : ... .. 7 ... : ... .. . ... : ... .. . ... : ... .. . ...
ROW 54 : F#4 00 3 ... ... : ... .. . ... : G-1 00 . ... : ... .. . ... : ... .. . ...
ROW 55 : A-4 00 . ... ... : ... .. . ... : ... .. . ... : ... .. . ... : ... .. . ...
ROW 56 : F#4 00 . ... ... : ... .. . ... : ... .. . ... : ... .. . ... : ... .. . ...
ROW 57 : A-4 00 . ... ... : ... .. . ... : ... .. . ... : ... .. . ... : ... .. . ...
ROW 58 : --- .. . ... ... : ... .. . ... : ... .. . ... : ... .. . ... : ... .. . ...
ROW 59 : ... .. . ... ... : ... .. . ... : ... .. . ... : ... .. . ... : ... .. . ...
ROW 5A : F#4 00 . ... ... : ... .. . ... : --- .. . ... : ... .. . ... : ... .. . ...
ROW 5B : A-4 00 . ... ... : ... .. . ... : ... .. . ... : ... .. . ... : ... .. . ...
ROW 5C : F#4 00 . ... ... : ... .. . ... : ... .. . ... : ... .. . ... : ... .. . ...
ROW 5D : A-4 00 . ... ... : ... .. . ... : ... .. . ... : ... .. . ... : ... .. . ...
ROW 5E : --- .. . ... ... : ... .. . ... : ... .. . ... : ... .. . ... : ... .. . ...
ROW 5F : ... .. . ... ... : ... .. . ... : ... .. . ... : ... .. . ... : ... .. . ...
ROW 60 : F#4 00 1 V00 ... : ... .. 8 ... : G-1 00 . ... : ... .. 3 ... : ... .. . ...
ROW 61 : A-4 00 . ... ... : ... .. . ... : ... .. . ... : ... .. . ... : ... .. . ...
ROW 62 : F#4 00 . ... ... : ... .. 7 ... : ... .. . ... : ... .. . ... : ... .. . ...
ROW 63 : A-4 00 . ... ... : ... .. . ... : ... .. . ... : ... .. . ... : ... .. . ...
ROW 64 : --- .. . ... ... : ... .. 6 ... : ... .. . ... : ... .. . ... : ... .. . ...
ROW 65 : ... .. . ... ... : ... .. . ... : ... .. . ... : ... .. . ... : ... .. . ...
ROW 66 : F#4 00 2 ... ... : ... .. . ... : --- .. . ... : ... .. . ... : ... .. . ...
ROW 67 : A-4 00 . ... ... : ... .. 5 ... : ... .. . ... : ... .. . ... : ... .. . ...
ROW 68 : F#4 00 . ... ... : ... .. . ... : ... .. . ... : ... .. . ... : ... .. . ...
ROW 69 : A-4 00 . ... ... : ... .. . ... : ... .. . ... : ... .. . ... : ... .. . ...
ROW 6A : --- .. . ... ... : ... .. 4 ... : ... .. . ... : ... .. . ... : ... .. . ...
ROW 6B : ... .. . ... ... : ... .. . ... : ... .. . ... : ... .. . ... : ... .. . ...
ROW 6C : G-1 00 6 V03 ... : ... .. . ... : E-3 00 . ... : ... .. 2 ... : ... .. . Z20
ROW 6D : ... .. . ... ... : ... .. . ... : C#3 00 . ... : ... .. . ... : ... .. . ...
ROW 6E : ... .. 5 ... ... : ... .. . ... : A-2 00 . ... : ... .. . ... : ... .. . ...
ROW 6F : ... .. 3 ... ... : ... .. . ... : E-2 00 . ... : ... .. . ... : ... .. . ...
ROW 70 : --- .. . ... ... : ... .. . ... : G-1 00 . ... : ... .. . ... : ... .. . ...
ROW 71 : ... .. . ... ... : ... .. . ... : ... .. . ... : ... .. . ... : ... .. . ...
ROW 72 : F#4 00 1 ... ... : ... .. . ... : ... .. . ... : ... .. 1 ... : ... .. . ...
ROW 73 : A-4 00 . ... ... : ... .. . ... : --- .. . ... : ... .. . ... : ... .. . Z1C
ROW 74 : F#4 00 . ... ... : ... .. . ... : ... .. . ... : ... .. . ... : ... .. . Z1A
ROW 75 : A-4 00 . ... ... : ... .. . ... : ... .. . ... : ... .. . ... : ... .. . Z18
ROW 76 : --- .. . ... ... : ... .. . ... : ... .. . ... : ... .. . ... : ... .. . Z16
ROW 77 : ... .. . ... ... : ... .. . ... : ... .. . ... : ... .. . ... : ... .. . Z15
ROW 78 : F#4 00 2 V02 ... : ... .. . ... : G-1 00 . ... : ... .. . ... : ... .. . Z13
ROW 79 : A-4 00 . ... ... : ... .. . ... : ... .. . ... : ... .. . ... : ... .. . Z11
ROW 7A : F#4 00 . ... ... : ... .. . ... : ... .. . ... : ... .. . ... : ... .. . Z0F
ROW 7B : A-4 00 . ... ... : ... .. . ... : ... .. . ... : ... .. . ... : ... .. . Z0E
ROW 7C : --- .. . ... ... : ... .. . ... : ... .. . ... : ... .. . ... : ... .. . Z0C
ROW 7D : ... .. . ... ... : ... .. . ... : ... .. . ... : ... .. . ... : ... .. . Z0A
ROW 7E : F#4 00 . ... ... : ... .. . ... : --- .. . ... : ... .. . ... : ... .. . Z08
ROW 7F : A-4 00 . ... ... : ... .. . ... : ... .. . ... : ... .. . ... : ... .. . Z07
ROW 80 : F#4 00 . ... ... : ... .. . ... : ... .. . ... : ... .. . ... : ... .. . Z05
ROW 81 : A-4 00 . ... ... : ... .. . ... : ... .. . ... : ... .. . ... : ... .. . Z03
ROW 82 : --- .. . ... ... : ... .. . ... : ... .. . ... : ... .. . ... : ... .. . Z01
ROW 83 : ... .. . ... ... : ... .. . ... : ... .. . ... : ... .. . ... : ... .. . Z00
ROW 84 : F#3 00 . V02 ... : ... .. . ... : E-3 00 . ... : ... .. 2 ... : ... .. . Z20
ROW 85 : A-3 00 . ... ... : ... .. . ... : C#3 00 . ... : ... .. . ... : ... .. . Z1D
ROW 86 : F#3 00 . ... ... : ... .. . ... : A-2 00 . ... : ... .. . ... : ... .. . Z1A
ROW 87 : A-3 00 . ... ... : ... .. . ... : E-2 00 . ... : ... .. . ... : ... .. . Z17
ROW 88 : --- .. . ... ... : ... .. . ... : G-1 00 . ... : ... .. . ... : ... .. . Z14
ROW 89 : ... .. . ... ... : ... .. . ... : ... .. . ... : ... .. . ... : ... .. . Z11
ROW 8A : F#3 00 3 ... ... : ... .. . ... : ... .. . ... : ... .. . ... : ... .. . Z0E
ROW 8B : A-3 00 . ... ... : ... .. . ... : --- .. . ... : ... .. . ... : ... .. . Z0B
ROW 8C : F#3 00 . ... ... : ... .. . ... : ... .. . ... : ... .. . ... : ... .. . Z08
ROW 8D : A-3 00 . ... ... : ... .. . ... : ... .. . ... : ... .. . ... : ... .. . Z05
ROW 8E : --- .. . ... ... : ... .. . ... : ... .. . ... : ... .. . ... : ... .. . Z02
ROW 8F : ... .. . ... ... : ... .. . ... : ... .. . ... : ... .. . ... : ... .. . Z00
ROW 90 : G-1 00 6 V03 ... : ... .. . ... : D-4 00 . ... : E-# 00 3 ... : ... .. . Z3F
ROW 91 : ... .. . ... ... : ... .. . ... : A#3 00 . ... : ... .. . ... : ... .. . ...
ROW 92 : ... .. 5 ... ... : ... .. . ... : G#3 00 . ... : ... .. . ... : ... .. . ...
ROW 93 : ... .. 3 ... ... : ... .. . ... : F-3 00 . ... : ... .. . ... : ... .. . ...
ROW 94 : --- .. . ... ... : ... .. . ... : E-3 00 . ... : ... .. . ... : ... .. . ...
ROW 95 : ... .. . ... ... : ... .. . ... : G-1 00 . ... : ... .. . ... : ... .. . ...
ROW 96 : F#4 00 2 ... ... : ... .. . ... : ... .. . ... : ... .. . ... : ... .. . ...
ROW 97 : A-4 00 . ... ... : ... .. . ... : ... .. . ... : ... .. . ... : ... .. . ...
ROW 98 : F#4 00 . ... ... : ... .. . ... : --- .. . ... : C-# 00 1 ... : ... .. . ...
ROW 99 : A-4 00 . ... ... : ... .. . ... : ... .. . ... : ... .. . ... : ... .. . ...
ROW 9A : --- .. . ... ... : ... .. . ... : ... .. . ... : ... .. . ... : ... .. . ...
ROW 9B : ... .. . ... ... : ... .. . ... : ... .. . ... : ... .. . ... : ... .. . ...
ROW 9C : F#3 00 1 V02 ... : ... .. . ... : G-1 00 . ... : ... .. 2 ... : ... .. . ...
ROW 9D : A-3 00 . ... ... : ... .. . ... : ... .. . ... : ... .. . ... : ... .. . ...
ROW 9E : F#3 00 . ... ... : ... .. . ... : ... .. . ... : ... .. . ... : ... .. . Z33
ROW 9F : A-3 00 . ... ... : ... .. . ... : ... .. . ... : ... .. . ... : ... .. . Z2F
ROW A0 : --- .. . ... ... : ... .. . ... : ... .. . ... : ... .. 3 ... : ... .. . Z2C
ROW A1 : ... .. . ... ... : ... .. . ... : ... .. . ... : ... .. . ... : ... .. . Z29
ROW A2 : F#3 00 2 ... ... : ... .. . ... : --- .. . ... : ... .. . ... : ... .. . Z26
ROW A3 : A-3 00 . ... ... : ... .. . ... : ... .. . ... : ... .. . ... : ... .. . Z23
ROW A4 : F#3 00 . ... ... : ... .. . ... : ... .. . ... : ... .. 4 ... : ... .. . Z1F
ROW A5 : A-3 00 . ... ... : ... .. . ... : ... .. . ... : ... .. . ... : ... .. . Z1C
ROW A6 : --- .. . ... ... : ... .. . ... : ... .. . ... : ... .. . ... : ... .. . Z19
ROW A7 : ... .. . ... ... : ... .. . ... : ... .. . ... : ... .. . ... : ... .. . Z16
ROW A8 : F#6 00 2 V02 ... : ... .. . ... : G-1 00 . ... : ... .. 5 ... : ... .. . Z13
ROW A9 : A-6 00 . ... ... : ... .. . ... : ... .. . ... : ... .. . ... : ... .. . Z0F
ROW AA : F#6 00 . ... ... : ... .. . ... : ... .. . ... : ... .. . ... : ... .. . Z0C
ROW AB : A-6 00 . ... ... : ... .. . ... : ... .. . ... : D-# 00 . ... : ... .. . Z09
ROW AC : --- .. . ... ... : ... .. . ... : ... .. . ... : ... .. 6 ... : ... .. . Z06
ROW AD : ... .. . ... ... : ... .. . ... : ... .. . ... : ... .. . ... : ... .. . Z03
ROW AE : F#6 00 . ... ... : ... .. . ... : --- .. . ... : ... .. . ... : ... .. . Z00
ROW AF : A-6 00 . ... ... : ... .. . ... : ... .. . ... : ... .. . ... : ... .. . ...
ROW B0 : F#6 00 . ... ... : ... .. . ... : ... .. . ... : ... .. . ... : ... .. . ...
ROW B1 : A-6 00 . ... ... : ... .. . ... : ... .. . ... : ... .. . ... : ... .. . ...
ROW B2 : --- .. . ... ... : ... .. . ... : ... .. . ... : ... .. . ... : ... .. . ...
ROW B3 : ... .. . ... ... : ... .. . ... : ... .. . ... : ... .. . ... : ... .. . ...
ROW B4 : F#4 00 3 ... ... : ... .. 4 ... : G-1 00 . ... : E-# 00 . ... : ... .. . ...
ROW B5 : A-4 00 . ... ... : ... .. . ... : ... .. . ... : ... .. . ... : ... .. . ...
ROW B6 : F#4 00 . ... ... : ... .. . ... : ... .. . ... : ... .. 6 ... : ... .. . ...
ROW B7 : A-4 00 . ... ... : ... .. 3 ... : ... .. . ... : ... .. 5 ... : ... .. . ...
ROW B8 : --- .. . ... ... : ... .. . ... : ... .. . ... : ... .. 4 ... : ... .. . ...
ROW B9 : ... .. . ... ... : ... .. . ... : ... .. . ... : ... .. 4 ... : ... .. . ...
ROW BA : F#4 00 . ... ... : ... .. . ... : --- .. . ... : ... .. 3 ... : ... .. . ...
ROW BB : A-4 00 . ... ... : ... .. 2 ... : ... .. . ... : ... .. 3 ... : ... .. . ...
ROW BC : F#4 00 . ... ... : ... .. . ... : ... .. . ... : F-# 00 2 ... : ... .. . ...
ROW BD : A-4 00 . ... ... : ... .. . ... : ... .. . ... : ... .. 2 ... : ... .. . ...
ROW BE : --- .. . ... ... : ... .. . ... : ... .. . ... : ... .. 1 ... : ... .. . ...
ROW BF : ... .. . ... ... : ... .. 1 ... : ... .. . D00 : ... .. 1 ... : ... .. . ...
ROW C0 : ... .. . ... ... : ... .. . ... : ... .. . ... : ... .. . ... : ... .. . ...
ROW C1 : ... .. . ... ... : ... .. . ... : ... .. . ... : ... .. . ... : ... .. . ...
ROW C2 : ... .. . ... ... : ... .. . ... : ... .. . ... : ... .. . ... : ... .. . ...
ROW C3 : ... .. . ... ... : ... .. . ... : ... .. . ... : ... .. . ... : ... .. . ...
ROW C4 : ... .. . ... ... : ... .. . ... : ... .. . ... : ... .. . ... : ... .. . ...
ROW C5 : ... .. . ... ... : ... .. . ... : ... .. . ... : ... .. . ... : ... .. . ...
ROW C6 : ... .. . ... ... : ... .. . ... : ... .. . ... : ... .. . ... : ... .. . ...
ROW C7 : ... .. . ... ... : ... .. . ... : ... .. . ... : ... .. . ... : ... .. . ...
ROW C8 : ... .. . ... ... : ... .. . ... : ... .. . ... : ... .. . ... : ... .. . ...
ROW C9 : ... .. . ... ... : ... .. . ... : ... .. . ... : ... .. . ... : ... .. . ...
ROW CA : ... .. . ... ... : ... .. . ... : ... .. . ... : ... .. . ... : ... .. . ...
ROW CB : ... .. . ... ... : ... .. . ... : ... .. . ... : ... .. . ... : ... .. . ...
ROW CC : ... .. . ... ... : ... .. . ... : ... .. . ... : ... .. . ... : ... .. . ...
ROW CD : ... .. . ... ... : ... .. . ... : ... .. . ... : ... .. . ... : ... .. . ...
ROW CE : ... .. . ... ... : ... .. . ... : ... .. . ... : ... .. . ... : ... .. . ...
ROW CF : ... .. . ... ... : ... .. . ... : ... .. . ... : ... .. . ... : ... .. . ...
ROW D0 : ... .. . ... ... : ... .. . ... : ... .. . ... : ... .. . ... : ... .. . ...
ROW D1 : ... .. . ... ... : ... .. . ... : ... .. . ... : ... .. . ... : ... .. . ...
ROW D2 : ... .. . ... ... : ... .. . ... : ... .. . ... : ... .. . ... : ... .. . ...
ROW D3 : ... .. . ... ... : ... .. . ... : ... .. . ... : ... .. . ... : ... .. . ...
ROW D4 : ... .. . ... ... : ... .. . ... : ... .. . ... : ... .. . ... : ... .. . ...
ROW D5 : ... .. . ... ... : ... .. . ... : ... .. . ... : ... .. . ... : ... .. . ...
ROW D6 : ... .. . ... ... : ... .. . ... : ... .. . ... : ... .. . ... : ... .. . ...
ROW D7 : ... .. . ... ... : ... .. . ... : ... .. . ... : ... .. . ... : ... .. . ...
ROW D8 : ... .. . ... ... : ... .. . ... : ... .. . ... : ... .. . ... : ... .. . ...
ROW D9 : ... .. . ... ... : ... .. . ... : ... .. . ... : ... .. . ... : ... .. . ...
ROW DA : ... .. . ... ... : ... .. . ... : ... .. . ... : ... .. . ... : ... .. . ...
ROW DB : ... .. . ... ... : ... .. . ... : ... .. . ... : ... .. . ... : ... .. . ...
ROW DC : ... .. . ... ... : ... .. . ... : ... .. . ... : ... .. . ... : ... .. . ...
ROW DD : ... .. . ... ... : ... .. . ... : ... .. . ... : ... .. . ... : ... .. . ...
ROW DE : ... .. . ... ... : ... .. . ... : ... .. . ... : ... .. . ... : ... .. . ...
ROW DF : ... .. . ... ... : ... .. . ... : ... .. . ... : ... .. . ... : ... .. . ...
ROW E0 : ... .. . ... ... : ... .. . ... : ... .. . ... : ... .. . ... : ... .. . ...
ROW E1 : ... .. . ... ... : ... .. . ... : ... .. . ... : ... .. . ... : ... .. . ...
ROW E2 : ... .. . ... ... : ... .. . ... : ... .. . ... : ... .. . ... : ... .. . ...
ROW E3 : ... .. . ... ... : ... .. . ... : ... .. . ... : ... .. . ... : ... .. . ...
ROW E4 : ... .. . ... ... : ... .. . ... : ... .. . ... : ... .. . ... : ... .. . ...
ROW E5 : ... .. . ... ... : ... .. . ... : ... .. . ... : ... .. . ... : ... .. . ...
ROW E6 : ... .. . ... ... : ... .. . ... : ... .. . ... : ... .. . ... : ... .. . ...
ROW E7 : ... .. . ... ... : ... .. . ... : ... .. . ... : ... .. . ... : ... .. . ...
ROW E8 : ... .. . ... ... : ... .. . ... : ... .. . ... : ... .. . ... : ... .. . ...
ROW E9 : ... .. . ... ... : ... .. . ... : ... .. . ... : ... .. . ... : ... .. . ...
ROW EA : ... .. . ... ... : ... .. . ... : ... .. . ... : ... .. . ... : ... .. . ...
ROW EB : ... .. . ... ... : ... .. . ... : ... .. . ... : ... .. . ... : ... .. . ...
ROW EC : ... .. . ... ... : ... .. . ... : ... .. . ... : ... .. . ... : ... .. . ...
ROW ED : ... .. . ... ... : ... .. . ... : ... .. . ... : ... .. . ... : ... .. . ...
ROW EE : ... .. . ... ... : ... .. . ... : ... .. . ... : ... .. . ... : ... .. . ...
ROW EF : ... .. . ... ... : ... .. . ... : ... .. . ... : ... .. . ... : ... .. . ...
ROW F0 : ... .. . ... ... : ... .. . ... : ... .. . ... : ... .. . ... : ... .. . ...
ROW F1 : ... .. . ... ... : ... .. . ... : ... .. . ... : ... .. . ... : ... .. . ...
ROW F2 : ... .. . ... ... : ... .. . ... : ... .. . ... : ... .. . ... : ... .. . ...
ROW F3 : ... .. . ... ... : ... .. . ... : ... .. . ... : ... .. . ... : ... .. . ...
ROW F4 : ... .. . ... ... : ... .. . ... : ... .. . ... : ... .. . ... : ... .. . ...
ROW F5 : ... .. . ... ... : ... .. . ... : ... .. . ... : ... .. . ... : ... .. . ...
ROW F6 : ... .. . ... ... : ... .. . ... : ... .. . ... : ... .. . ... : ... .. . ...
ROW F7 : ... .. . ... ... : ... .. . ... : ... .. . ... : ... .. . ... : ... .. . ...
ROW F8 : ... .. . ... ... : ... .. . ... : ... .. . ... : ... .. . ... : ... .. . ...
ROW F9 : ... .. . ... ... : ... .. . ... : ... .. . ... : ... .. . ... : ... .. . ...
ROW FA : ... .. . ... ... : ... .. . ... : ... .. . ... : ... .. . ... : ... .. . ...
ROW FB : ... .. . ... ... : ... .. . ... : ... .. . ... : ... .. . ... : ... .. . ...
ROW FC : ... .. . ... ... : ... .. . ... : ... .. . ... : ... .. . ... : ... .. . ...
ROW FD : ... .. . ... ... : ... .. . ... : ... .. . ... : ... .. . ... : ... .. . ...
ROW FE : ... .. . ... ... : ... .. . ... : ... .. . ... : ... .. . ... : ... .. . ...
ROW FF : ... .. . ... ... : ... .. . ... : ... .. . ... : ... .. . ... : ... .. . ...

PATTERN 03
ROW 00 : G-1 00 6 V03 ... : G-3 01 1 ... : ... .. . ... : 0-# 04 F ... : ... .. . ...
ROW 01 : ... .. . ... ... : ... .. . ... : ... .. . ... : ... .. . ... : ... .. . ...
ROW 02 : ... .. 5 ... ... : ... .. . ... : ... .. . ... : ... .. . ... : ... .. . ...
ROW 03 : ... .. 3 ... ... : ... .. . ... : ... .. . ... : ... .. . ... : ... .. . ...
ROW 04 : --- .. . ... ... : ... .. . ... : ... .. . ... : ... .. . ... : ... .. . ...
ROW 05 : ... .. . ... ... : ... .. . ... : ... .. . ... : ... .. . ... : ... .. . ...
ROW 06 : E-4 00 2 V02 ... : ... .. . ... : ... .. . ... : ... .. . ... : ... .. . ...
ROW 07 : G-4 00 . ... ... : ... .. . ... : ... .. . ... : ... .. . ... : ... .. . ...
ROW 08 : E-4 00 . ... ... : ... .. . ... : ... .. . ... : ... .. . ... : ... .. . ...
ROW 09 : G-4 00 . ... ... : ... .. . ... : ... .. . ... : ... .. . ... : ... .. . ...
ROW 0A : --- .. . ... ... : ... .. . ... : ... .. . ... : ... .. . ... : ... .. . ...
ROW 0B : ... .. . ... ... : ... .. . ... : ... .. . ... : ... .. . ... : ... .. . ...
ROW 0C : E-4 00 . V03 ... : ... .. . ... : ... .. . ... : 0-# 04 A ... : ... .. . ...
ROW 0D : G-4 00 . ... ... : ... .. . ... : ... .. . ... : ... .. . ... : ... .. . ...
ROW 0E : E-4 00 . ... ... : ... .. 2 ... : ... .. . ... : ... .. . ... : ... .. . ...
ROW 0F : G-4 00 . ... ... : ... .. . ... : ... .. . ... : ... .. . ... : ... .. . ...
ROW 10 : --- .. . ... ... : ... .. . ... : ... .. . ... : ... .. . ... : ... .. . ...
ROW 11 : ... .. . ... ... : ... .. . ... : ... .. . ... : ... .. . ... : ... .. . ...
ROW 12 : E-4 00 1 ... ... : ... .. . ... : ... .. . ... : ... .. . ... : ... .. . ...
ROW 13 : G-4 00 . ... ... : ... .. . ... : ... .. . ... : ... .. . ... : ... .. . ...
ROW 14 : E-4 00 . ... ... : ... .. . ... : ... .. . ... : ... .. . ... : ... .. . ...
ROW 15 : G-4 00 . ... ... : ... .. . ... : ... .. . ... : ... .. . ... : ... .. . ...
ROW 16 : --- .. . ... ... : ... .. . ... : ... .. . ... : ... .. . ... : ... .. . ...
ROW 17 : ... .. . ... ... : ... .. . ... : ... .. . ... : ... .. . ... : ... .. . ...
ROW 18 : E-4 00 2 V02 ... : ... .. . ... : ... .. . ... : 0-# 04 8 ... : ... .. . ...
ROW 19 : G-4 00 . ... ... : ... .. . ... : ... .. . ... : ... .. . ... : ... .. . ...
ROW 1A : E-4 00 . ... ... : ... .. . ... : ... .. . ... : ... .. . ... : ... .. . ...
ROW 1B : G-4 00 . ... ... : ... .. . ... : ... .. . ... : ... .. . ... : ... .. . ...
ROW 1C : --- .. . ... ... : ... .. 3 ... : ... .. . ... : ... .. . ... : ... .. . ...
ROW 1D : ... .. . ... ... : ... .. . ... : ... .. . ... : ... .. . ... : ... .. . ...
ROW 1E : E-4 00 . ... ... : ... .. . ... : ... .. . ... : ... .. . ... : ... .. . ...
ROW 1F : G-4 00 . ... ... : ... .. . ... : ... .. . ... : ... .. . ... : ... .. . ...
ROW 20 : E-4 00 . ... ... : ... .. . ... : ... .. . ... : ... .. . ... : ... .. . ...
ROW 21 : G-4 00 . ... ... : ... .. . ... : ... .. . ... : ... .. . ... : ... .. . ...
ROW 22 : --- .. . ... ... : ... .. . ... : ... .. . ... : ... .. . ... : ... .. . ...
ROW 23 : ... .. . ... ... : ... .. . ... : ... .. . ... : ... .. . ... : ... .. . ...
ROW 24 : E-3 00 . V02 ... : ... .. . ... : ... .. . ... : 0-# 04 . ... : ... .. . ...
ROW 25 : G-3 00 . ... ... : ... .. . ... : ... .. . ... : ... .. . ... : ... .. . ...
ROW 26 : E-3 00 . ... ... : ... .. . ... : ... .. . ... : ... .. . ... : ... .. . ...
ROW 27 : G-3 00 . ... ... : ... .. . ... : ... .. . ... : ... .. . ... : ... .. . ...
ROW 28 : --- .. . ... ... : ... .. . ... : ... .. . ... : ... .. . ... : ... .. . ...
ROW 29 : ... .. . ... ... : ... .. . ... : ... .. . ... : ... .. . ... : ... .. . ...
ROW 2A : E-3 00 3 ... ... : ... .. . ... : ... .. . ... : ... .. . ... : ... .. . ...
ROW 2B : G-3 00 . ... ... : ... .. 4 ... : ... .. . ... : ... .. . ... : ... .. . ...
ROW 2C : E-3 00 . ... ... : ... .. . ... : ... .. . ... : ... .. . ... : ... .. . ...
ROW 2D : G-3 00 . ... ... : ... .. . ... : ... .. . ... : ... .. . ... : ... .. . ...
ROW 2E : --- .. . ... ... : ... .. . ... : ... .. . ... : ... .. . ... : ... .. . ...
ROW 2F : ... .. . ... ... : ... .. . ... : ... .. . ... : ... .. . ... : ... .. . ...
ROW 30 : G-1 00 6 V03 ... : ... .. . ... : ... .. . ... : 0-# 05 F ... : ... .. . ...
ROW 31 : ... .. . ... ... : ... .. . ... : ... .. . ... : ... .. . ... : ... .. . ...
ROW 32 : ... .. 5 ... ... : ... .. . ... : ... .. . ... : ... .. . ... : ... .. . ...
ROW 33 : ... .. 3 ... ... : ... .. . ... : ... .. . ... : ... .. . ... : ... .. . ...
ROW 34 : --- .. . ... ... : ... .. . ... : ... .. . ... : ... .. . ... : ... .. . ...
ROW 35 : ... .. . ... ... : ... .. . ... : ... .. . ... : ... .. . ... : ... .. . ...
ROW 36 : E-4 00 2 ... ... : ... .. . ... : ... .. . ... : ... .. . ... : ... .. . ...
ROW 37 : G-4 00 . ... ... : ... .. . ... : ... .. . ... : ... .. . ... : ... .. . ...
ROW 38 : E-4 00 . ... ... : ... .. . ... : ... .. . ... : ... .. . ... : ... .. . ...
ROW 39 : G-4 00 . ... ... : ... .. . ... : ... .. . ... : ... .. . ... : ... .. . ...
ROW 3A : --- .. . ... ... : ... .. . ... : ... .. . ... : ... .. . ... : ... .. . ...
ROW 3B : ... .. . ... ... : ... .. . ... : ... .. . ... : ... .. . ... : ... .. . ...
ROW 3C : E-3 00 1 V02 ... : ... .. . ... : ... .. . ... : ... .. . ... : ... .. . ...
ROW 3D : G-3 00 . ... ... : ... .. . ... : ... .. . ... : ... .. . ... : ... .. . ...
ROW 3E : E-3 00 . ... ... : ... .. . ... : ... .. . ... : ... .. . ... : ... .. . ...
ROW 3F : G-3 00 . ... ... : ... .. . ... : ... .. . ... : ... .. . ... : ... .. . ...
ROW 40 : --- .. . ... ... : ... .. . ... : ... .. . ... : ... .. . ... : ... .. . ...
ROW 41 : ... .. . ... ... : ... .. . ... : ... .. . ... : ... .. . ... : ... .. . ...
ROW 42 : E-3 00 2 ... ... : ... .. . ... : ... .. . ... : ... .. . ... : ... .. . ...
ROW 43 : G-3 00 . ... ... : ... .. . ... : ... .. . ... : ... .. . ... : ... .. . ...
ROW 44 : E-3 00 . ... ... : ... .. . ... : ... .. . ... : ... .. . ... : ... .. . ...
ROW 45 : G-3 00 . ... ... : ... .. 5 ... : ... .. . ... : ... .. . ... : ... .. . ...
ROW 46 : --- .. . ... ... : ... .. . ... : ... .. . ... : ... .. . ... : ... .. . ...
ROW 47 : ... .. . ... ... : ... .. . ... : ... .. . ... : ... .. . ... : ... .. . ...
ROW 48 : E-6 00 2 V02 ... : ... .. . ... : ... .. . ... : 0-# 05 6 ... : ... .. . ...
ROW 49 : G-6 00 . ... ... : ... .. . ... : ... .. . ... : ... .. . ... : ... .. . ...
ROW 4A : E-6 00 . ... ... : ... .. . ... : ... .. . ... : ... .. . ... : ... .. . ...
ROW 4B : G-6 00 . ... ... : ... .. . ... : ... .. . ... : ... .. . ... : ... .. . ...
ROW 4C : --- .. . ... ... : ... .. . ... : ... .. . ... : ... .. . ... : ... .. . ...
ROW 4D : ... .. . ... ... : ... .. . ... : ... .. . ... : ... .. . ... : ... .. . ...
ROW 4E : E-6 00 . ... ... : ... .. . ... : ... .. . ... : ... .. . ... : ... .. . ...
ROW 4F : G-6 00 . ... ... : ... .. . ... : ... .. . ... : ... .. . ... : ... .. . ...
ROW 50 : E-6 00 . ... ... : ... .. . ... : ... .. . ... : ... .. . ... : ... .. . ...
ROW 51 : G-6 00 . ... ... : ... .. . ... : ... .. . ... : ... .. . ... : ... .. . ...
ROW 52 : --- .. . ... ... : ... .. . ... : ... .. . ... : ... .. . ... : ... .. . ...
ROW 53 : ... .. . ... ... : ... .. 6 ... : ... .. . ... : ... .. . ... : ... .. . ...
ROW 54 : E-4 00 3 ... ... : ... .. . ... : ... .. . ... : 0-# 04 8 ... : ... .. . ...
ROW 55 : G-4 00 . ... ... : ... .. . ... : ... .. . ... : ... .. . ... : ... .. . ...
ROW 56 : E-4 00 . ... ... : ... .. . ... : ... .. . ... : ... .. . ... : ... .. . ...
ROW 57 : G-4 00 . ... ... : ... .. . ... : ... .. . ... : ... .. . ... : ... .. . ...
ROW 58 : --- .. . ... ... : ... .. . ... : ... .. . ... : ... .. . ... : ... .. . ...
ROW 59 : ... .. . ... ... : ... .. . ... : ... .. . ... : ... .. . ... : ... .. . ...
ROW 5A : E-4 00 . ... ... : ... .. . ... : ... .. . ... : ... .. . ... : ... .. . ...
ROW 5B : G-4 00 . ... ... : ... .. . ... : ... .. . ... : ... .. . ... : ... .. . ...
ROW 5C : E-4 00 . ... ... : ... .. . ... : ... .. . ... : ... .. . ... : ... .. . ...
ROW 5D : G-4 00 . ... ... : ... .. . ... : ... .. . ... : ... .. . ... : ... .. . ...
ROW 5E : --- .. . ... ... : ... .. . ... : ... .. . ... : ... .. . ... : ... .. . ...
ROW 5F : ... .. . ... ... : ... .. . ... : ... .. . ... : ... .. . ... : ... .. . ...
ROW 60 : E-4 00 1 V00 ... : ... .. 7 ... : ... .. . ... : 0-# 04 . ... : ... .. . ...
ROW 61 : G-4 00 . ... ... : ... .. . ... : ... .. . ... : ... .. . ... : ... .. . ...
ROW 62 : E-4 00 . ... ... : ... .. 6 ... : ... .. . ... : ... .. . ... : ... .. . ...
ROW 63 : G-4 00 . ... ... : ... .. . ... : ... .. . ... : ... .. . ... : ... .. . ...
ROW 64 : --- .. . ... ... : ... .. . ... : ... .. . ... : ... .. . ... : ... .. . ...
ROW 65 : ... .. . ... ... : ... .. 5 ... : ... .. . ... : ... .. . ... : ... .. . ...
ROW 66 : E-4 00 2 ... ... : ... .. . ... : ... .. . ... : ... .. . ... : ... .. . ...
ROW 67 : G-4 00 . ... ... : ... .. . ... : ... .. . ... : ... .. . ... : ... .. . ...
ROW 68 : E-4 00 . ... ... : ... .. 4 ... : ... .. . ... : ... .. . ... : ... .. . ...
ROW 69 : G-4 00 . ... ... : ... .. . ... : ... .. . ... : ... .. . ... : ... .. . ...
ROW 6A : --- .. . ... ... : ... .. . ... : ... .. . ... : ... .. . ... : ... .. . ...
ROW 6B : ... .. . ... ... : ... .. 3 ... : ... .. . ... : ... .. . ... : ... .. . ...
ROW 6C : G-1 00 6 V03 ... : ... .. . ... : ... .. . ... : 0-# 04 F ... : ... .. . ...
ROW 6D : ... .. . ... ... : ... .. . ... : ... .. . ... : ... .. . ... : ... .. . ...
ROW 6E : ... .. 5 ... ... : ... .. . ... : ... .. . ... : ... .. . ... : ... .. . ...
ROW 6F : ... .. 3 ... ... : ... .. . ... : ... .. . ... : ... .. . ... : ... .. . ...
ROW 70 : --- .. . ... ... : ... .. . ... : ... .. . ... : ... .. . ... : ... .. . ...
ROW 71 : ... .. . ... ... : ... .. . ... : ... .. . ... : ... .. . ... : ... .. . ...
ROW 72 : E-4 00 1 ... ... : ... .. . ... : ... .. . ... : ... .. . ... : ... .. . ...
ROW 73 : G-4 00 . ... ... : ... .. . ... : ... .. . ... : ... .. . ... : ... .. . ...
ROW 74 : E-4 00 . ... ... : ... .. . ... : ... .. . ... : ... .. . ... : ... .. . ...
ROW 75 : G-4 00 . ... ... : ... .. . ... : ... .. . ... : ... .. . ... : ... .. . ...
ROW 76 : --- .. . ... ... : ... .. . ... : ... .. . ... : ... .. . ... : ... .. . ...
ROW 77 : ... .. . ... ... : ... .. . ... : ... .. . ... : ... .. . ... : ... .. . ...
ROW 78 : E-4 00 2 V02 ... : ... .. . ... : ... .. . ... : 0-# 04 A ... : ... .. . ...
ROW 79 : G-4 00 . ... ... : ... .. . ... : ... .. . ... : ... .. . ... : ... .. . ...
ROW 7A : E-4 00 . ... ... : ... .. . ... : ... .. . ... : ... .. . ... : ... .. . ...
ROW 7B : G-4 00 . ... ... : ... .. . ... : ... .. . ... : ... .. . ... : ... .. . ...
ROW 7C : --- .. . ... ... : ... .. . ... : ... .. . ... : ... .. . ... : ... .. . ...
ROW 7D : ... .. . ... ... : ... .. . ... : ... .. . ... : ... .. . ... : ... .. . ...
ROW 7E : E-4 00 . ... ... : ... .. . ... : ... .. . ... : ... .. . ... : ... .. . ...
ROW 7F : G-4 00 . ... ... : ... .. . ... : ... .. . ... : ... .. . ... : ... .. . ...
ROW 80 : E-4 00 . ... ... : ... .. . ... : ... .. . ... : ... .. . ... : ... .. . ...
ROW 81 : G-4 00 . ... ... : ... .. . ... : ... .. . ... : ... .. . ... : ... .. . ...
ROW 82 : --- .. . ... ... : ... .. . ... : ... .. . ... : ... .. . ... : ... .. . ...
ROW 83 : ... .. . ... ... : ... .. . ... : ... .. . ... : ... .. . ... : ... .. . ...
ROW 84 : E-3 00 . V02 ... : ... .. . ... : ... .. . ... : 0-# 04 8 ... : ... .. . ...
ROW 85 : G-3 00 . ... ... : ... .. . ... : ... .. . ... : ... .. . ... : ... .. . ...
ROW 86 : E-3 00 . ... ... : ... .. . ... : ... .. . ... : ... .. . ... : ... .. . ...
ROW 87 : G-3 00 . ... ... : ... .. . ... : ... .. . ... : ... .. . ... : ... .. . ...
ROW 88 : --- .. . ... ... : ... .. . ... : ... .. . ... : ... .. . ... : ... .. . ...
ROW 89 : ... .. . ... ... : ... .. . ... : ... .. . ... : ... .. . ... : ... .. . ...
ROW 8A : E-3 00 3 ... ... : ... .. . ... : ... .. . ... : ... .. . ... : ... .. . ...
ROW 8B : G-3 00 . ... ... : ... .. . ... : ... .. . ... : ... .. . ... : ... .. . ...
ROW 8C : E-3 00 . ... ... : ... .. . ... : ... .. . ... : ... .. . ... : ... .. . ...
ROW 8D : G-3 00 . ... ... : ... .. . ... : ... .. . ... : ... .. . ... : ... .. . ...
ROW 8E : --- .. . ... ... : ... .. . ... : ... .. . ... : ... .. . ... : ... .. . ...
ROW 8F : ... .. . ... ... : ... .. . ... : ... .. . ... : ... .. . ... : ... .. . ...
ROW 90 : G-1 00 6 V03 ... : ... .. . ... : ... .. . ... : 0-# 05 F ... : ... .. . ...
ROW 91 : ... .. . ... ... : ... .. . ... : ... .. . ... : ... .. . ... : ... .. . ...
ROW 92 : ... .. 5 ... ... : ... .. . ... : ... .. . ... : ... .. . ... : ... .. . ...
ROW 93 : ... .. 3 ... ... : ... .. . ... : ... .. . ... : ... .. . ... : ... .. . ...
ROW 94 : --- .. . ... ... : ... .. . ... : ... .. . ... : ... .. . ... : ... .. . ...
ROW 95 : ... .. . ... ... : ... .. . ... : ... .. . ... : ... .. . ... : ... .. . ...
ROW 96 : E-4 00 2 ... ... : ... .. . ... : ... .. . ... : ... .. . ... : ... .. . ...
ROW 97 : G-4 00 . ... ... : ... .. . ... : ... .. . ... : ... .. . ... : ... .. . ...
ROW 98 : E-4 00 . ... ... : ... .. . ... : ... .. . ... : ... .. . ... : ... .. . ...
ROW 99 : G-4 00 . ... ... : ... .. . ... : ... .. . ... : ... .. . ... : ... .. . ...
ROW 9A : --- .. . ... ... : ... .. . ... : ... .. . ... : ... .. . ... : ... .. . ...
ROW 9B : ... .. . ... ... : ... .. . ... : ... .. . ... : ... .. . ... : ... .. . ...
ROW 9C : E-3 00 1 V02 ... : ... .. . ... : ... .. . ... : ... .. . ... : ... .. . ...
ROW 9D : G-3 00 . ... ... : ... .. . ... : ... .. . ... : ... .. . ... : ... .. . ...
ROW 9E : E-3 00 . ... ... : ... .. . ... : ... .. . ... : ... .. . ... : ... .. . ...
ROW 9F : G-3 00 . ... ... : ... .. . ... : ... .. . ... : ... .. . ... : ... .. . ...
ROW A0 : --- .. . ... ... : ... .. . ... : ... .. . ... : ... .. . ... : ... .. . ...
ROW A1 : ... .. . ... ... : ... .. . ... : ... .. . ... : ... .. . ... : ... .. . ...
ROW A2 : E-3 00 2 ... ... : ... .. . ... : ... .. . ... : ... .. . ... : ... .. . ...
ROW A3 : G-3 00 . ... ... : ... .. . ... : ... .. . ... : ... .. . ... : ... .. . ...
ROW A4 : E-3 00 . ... ... : ... .. . ... : ... .. . ... : ... .. . ... : ... .. . ...
ROW A5 : G-3 00 . ... ... : ... .. . ... : ... .. . ... : ... .. . ... : ... .. . ...
ROW A6 : --- .. . ... ... : ... .. . ... : ... .. . ... : ... .. . ... : ... .. . ...
ROW A7 : ... .. . ... ... : ... .. . ... : ... .. . ... : ... .. . ... : ... .. . ...
ROW A8 : E-6 00 2 V02 ... : ... .. . ... : ... .. . ... : 0-# 05 6 ... : ... .. . ...
ROW A9 : G-6 00 . ... ... : ... .. . ... : ... .. . ... : ... .. . ... : ... .. . ...
ROW AA : E-6 00 . ... ... : ... .. . ... : ... .. . ... : ... .. . ... : ... .. . ...
ROW AB : G-6 00 . ... ... : ... .. . ... : ... .. . ... : ... .. . ... : ... .. . ...
ROW AC : --- .. . ... ... : ... .. . ... : ... .. . ... : ... .. . ... : ... .. . ...
ROW AD : ... .. . ... ... : ... .. . ... : ... .. . ... : ... .. . ... : ... .. . ...
ROW AE : E-6 00 . ... ... : ... .. . ... : ... .. . ... : ... .. . ... : ... .. . ...
ROW AF : G-6 00 . ... ... : ... .. . ... : ... .. . ... : ... .. . ... : ... .. . ...
ROW B0 : E-6 00 . ... ... : ... .. . ... : ... .. . ... : ... .. . ... : ... .. . ...
ROW B1 : G-6 00 . ... ... : ... .. . ... : ... .. . ... : ... .. . ... : ... .. . ...
ROW B2 : --- .. . ... ... : ... .. . ... : ... .. . ... : ... .. . ... : ... .. . ...
ROW B3 : ... .. . ... ... : ... .. . ... : ... .. . ... : ... .. . ... : ... .. . ...
ROW B4 : E-4 00 3 ... ... : ... .. 4 ... : ... .. . ... : ... .. . ... : ... .. . ...
ROW B5 : G-4 00 . ... ... : ... .. . ... : ... .. . ... : ... .. . ... : ... .. . ...
ROW B6 : E-4 00 . ... ... : ... .. . ... : ... .. . ... : ... .. 4 ... : ... .. . ...
ROW B7 : G-4 00 . ... ... : ... .. 3 ... : ... .. . ... : ... .. . ... : ... .. . ...
ROW B8 : --- .. . ... ... : ... .. . ... : ... .. . ... : ... .. . ... : ... .. . ...
ROW B9 : ... .. . ... ... : ... .. . ... : ... .. . ... : ... .. . ... : ... .. . ...
ROW BA : E-4 00 . ... ... : ... .. . ... : ... .. . ... : ... .. 3 ... : ... .. . ...
ROW BB : G-4 00 . ... ... : ... .. 2 ... : ... .. . ... : ... .. . ... : ... .. . ...
ROW BC : E-4 00 . ... ... : ... .. . ... : ... .. . ... : ... .. . ... : ... .. . ...
ROW BD : G-4 00 . ... ... : ... .. . ... : ... .. . ... : ... .. . ... : ... .. . ...
ROW BE : --- .. . ... ... : ... .. . ... : ... .. . ... : ... .. 2 ... : ... .. . ...
ROW BF : ... .. . ... ... : ... .. 1 ... : ... .. . ... : ... .. . ... : ... .. . ...
ROW C0 : ... .. . ... ... : ... .. . ... : ... .. . ... : ... .. . ... : ... .. . ...
ROW C1 : ... .. . ... ... : ... .. . ... : ... .. . ... : ... .. . ... : ... .. . ...
ROW C2 : ... .. . ... ... : ... .. . ... : ... .. . ... : ... .. . ... : ... .. . ...
ROW C3 : ... .. . ... ... : ... .. . ... : ... .. . ... : ... .. . ... : ... .. . ...
ROW C4 : ... .. . ... ... : ... .. . ... : ... .. . ... : ... .. . ... : ... .. . ...
ROW C5 : ... .. . ... ... : ... .. . ... : ... .. . ... : ... .. . ... : ... .. . ...
ROW C6 : ... .. . ... ... : ... .. . ... : ... .. . ... : ... .. . ... : ... .. . ...
ROW C7 : ... .. . ... ... : ... .. . ... : ... .. . ... : ... .. . ... : ... .. . ...
ROW C8 : ... .. . ... ... : ... .. . ... : ... .. . ... : ... .. . ... : ... .. . ...
ROW C9 : ... .. . ... ... : ... .. . ... : ... .. . ... : ... .. . ... : ... .. . ...
ROW CA : ... .. . ... ... : ... .. . ... : ... .. . ... : ... .. . ... : ... .. . ...
ROW CB : ... .. . ... ... : ... .. . ... : ... .. . ... : ... .. . ... : ... .. . ...
ROW CC : ... .. . ... ... : ... .. . ... : ... .. . ... : ... .. . ... : ... .. . ...
ROW CD : ... .. . ... ... : ... .. . ... : ... .. . ... : ... .. . ... : ... .. . ...
ROW CE : ... .. . ... ... : ... .. . ... : ... .. . ... : ... .. . ... : ... .. . ...
ROW CF : ... .. . ... ... : ... .. . ... : ... .. . ... : ... .. . ... : ... .. . ...
ROW D0 : ... .. . ... ... : ... .. . ... : ... .. . ... : ... .. . ... : ... .. . ...
ROW D1 : ... .. . ... ... : ... .. . ... : ... .. . ... : ... .. . ... : ... .. . ...
ROW D2 : ... .. . ... ... : ... .. . ... : ... .. . ... : ... .. . ... : ... .. . ...
ROW D3 : ... .. . ... ... : ... .. . ... : ... .. . ... : ... .. . ... : ... .. . ...
ROW D4 : ... .. . ... ... : ... .. . ... : ... .. . ... : ... .. . ... : ... .. . ...
ROW D5 : ... .. . ... ... : ... .. . ... : ... .. . ... : ... .. . ... : ... .. . ...
ROW D6 : ... .. . ... ... : ... .. . ... : ... .. . ... : ... .. . ... : ... .. . ...
ROW D7 : ... .. . ... ... : ... .. . ... : ... .. . ... : ... .. . ... : ... .. . ...
ROW D8 : ... .. . ... ... : ... .. . ... : ... .. . ... : ... .. . ... : ... .. . ...
ROW D9 : ... .. . ... ... : ... .. . ... : ... .. . ... : ... .. . ... : ... .. . ...
ROW DA : ... .. . ... ... : ... .. . ... : ... .. . ... : ... .. . ... : ... .. . ...
ROW DB : ... .. . ... ... : ... .. . ... : ... .. . ... : ... .. . ... : ... .. . ...
ROW DC : ... .. . ... ... : ... .. . ... : ... .. . ... : ... .. . ... : ... .. . ...
ROW DD : ... .. . ... ... : ... .. . ... : ... .. . ... : ... .. . ... : ... .. . ...
ROW DE : ... .. . ... ... : ... .. . ... : ... .. . ... : ... .. . ... : ... .. . ...
ROW DF : ... .. . ... ... : ... .. . ... : ... .. . ... : ... .. . ... : ... .. . ...
ROW E0 : ... .. . ... ... : ... .. . ... : ... .. . ... : ... .. . ... : ... .. . ...
ROW E1 : ... .. . ... ... : ... .. . ... : ... .. . ... : ... .. . ... : ... .. . ...
ROW E2 : ... .. . ... ... : ... .. . ... : ... .. . ... : ... .. . ... : ... .. . ...
ROW E3 : ... .. . ... ... : ... .. . ... : ... .. . ... : ... .. . ... : ... .. . ...
ROW E4 : ... .. . ... ... : ... .. . ... : ... .. . ... : ... .. . ... : ... .. . ...
ROW E5 : ... .. . ... ... : ... .. . ... : ... .. . ... : ... .. . ... : ... .. . ...
ROW E6 : ... .. . ... ... : ... .. . ... : ... .. . ... : ... .. . ... : ... .. . ...
ROW E7 : ... .. . ... ... : ... .. . ... : ... .. . ... : ... .. . ... : ... .. . ...
ROW E8 : ... .. . ... ... : ... .. . ... : ... .. . ... : ... .. . ... : ... .. . ...
ROW E9 : ... .. . ... ... : ... .. . ... : ... .. . ... : ... .. . ... : ... .. . ...
ROW EA : ... .. . ... ... : ... .. . ... : ... .. . ... : ... .. . ... : ... .. . ...
ROW EB : ... .. . ... ... : ... .. . ... : ... .. . ... : ... .. . ... : ... .. . ...
ROW EC : ... .. . ... ... : ... .. . ... : ... .. . ... : ... .. . ... : ... .. . ...
ROW ED : ... .. . ... ... : ... .. . ... : ... .. . ... : ... .. . ... : ... .. . ...
ROW EE : ... .. . ... ... : ... .. . ... : ... .. . ... : ... .. . ... : ... .. . ...
ROW EF : ... .. . ... ... : ... .. . ... : ... .. . ... : ... .. . ... : ... .. . ...
ROW F0 : ... .. . ... ... : ... .. . ... : ... .. . ... : ... .. . ... : ... .. . ...
ROW F1 : ... .. . ... ... : ... .. . ... : ... .. . ... : ... .. . ... : ... .. . ...
ROW F2 : ... .. . ... ... : ... .. . ... : ... .. . ... : ... .. . ... : ... .. . ...
ROW F3 : ... .. . ... ... : ... .. . ... : ... .. . ... : ... .. . ... : ... .. . ...
ROW F4 : ... .. . ... ... : ... .. . ... : ... .. . ... : ... .. . ... : ... .. . ...
ROW F5 : ... .. . ... ... : ... .. . ... : ... .. . ... : ... .. . ... : ... .. . ...
ROW F6 : ... .. . ... ... : ... .. . ... : ... .. . ... : ... .. . ... : ... .. . ...
ROW F7 : ... .. . ... ... : ... .. . ... : ... .. . ... : ... .. . ... : ... .. . ...
ROW F8 : ... .. . ... ... : ... .. . ... : ... .. . ... : ... .. . ... : ... .. . ...
ROW F9 : ... .. . ... ... : ... .. . ... : ... .. . ... : ... .. . ... : ... .. . ...
ROW FA : ... .. . ... ... : ... .. . ... : ... .. . ... : ... .. . ... : ... .. . ...
ROW FB : ... .. . ... ... : ... .. . ... : ... .. . ... : ... .. . ... : ... .. . ...
ROW FC : ... .. . ... ... : ... .. . ... : ... .. . ... : ... .. . ... : ... .. . ...
ROW FD : ... .. . ... ... : ... .. . ... : ... .. . ... : ... .. . ... : ... .. . ...
ROW FE : ... .. . ... ... : ... .. . ... : ... .. . ... : ... .. . ... : ... .. . ...
ROW FF : ... .. . ... ... : ... .. . ... : ... .. . ... : ... .. . ... : ... .. . ...

PATTERN 04
ROW 00 : G-1 00 6 V03 ... : F#3 02 1 ... : ... .. . ... : ... .. 2 ... : ... .. . ...
ROW 01 : ... .. . ... ... : ... .. . ... : ... .. . ... : ... .. . ... : ... .. . ...
ROW 02 : ... .. 5 ... ... : ... .. . ... : ... .. . ... : ... .. . ... : ... .. . ...
ROW 03 : ... .. 3 ... ... : ... .. . ... : ... .. . ... : ... .. 1 ... : ... .. . ...
ROW 04 : --- .. . ... ... : ... .. . ... : ... .. . ... : ... .. . ... : ... .. . ...
ROW 05 : ... .. . ... ... : ... .. . ... : ... .. . ... : ... .. . ... : ... .. . ...
ROW 06 : D-4 00 2 V02 ... : ... .. . ... : ... .. . ... : F-# 00 1 ... : ... .. . ...
ROW 07 : G-4 00 . ... ... : ... .. . ... : ... .. . ... : ... .. . ... : ... .. . ...
ROW 08 : D-4 00 . ... ... : ... .. . ... : ... .. . ... : ... .. . ... : ... .. . ...
ROW 09 : G-4 00 . ... ... : ... .. . ... : ... .. . ... : ... .. . ... : ... .. . ...
ROW 0A : --- .. . ... ... : ... .. . ... : ... .. . ... : ... .. . ... : ... .. . ...
ROW 0B : ... .. . ... ... : ... .. . ... : ... .. . ... : ... .. . ... : ... .. . ...
ROW 0C : D-4 00 . V03 ... : ... .. . ... : ... .. . ... : ... .. . ... : ... .. . ...
ROW 0D : G-4 00 . ... ... : ... .. . ... : ... .. . ... : ... .. . ... : ... .. . ...
ROW 0E : D-4 00 . ... ... : ... .. 2 ... : ... .. . ... : ... .. . ... : ... .. . ...
ROW 0F : G-4 00 . ... ... : ... .. . ... : ... .. . ... : ... .. . ... : ... .. . ...
ROW 10 : --- .. . ... ... : ... .. . ... : ... .. . ... : ... .. . ... : ... .. . ...
ROW 11 : ... .. . ... ... : ... .. . ... : ... .. . ... : ... .. 2 ... : ... .. . ...
ROW 12 : D-4 00 1 ... ... : ... .. . ... : ... .. . ... : ... .. . ... : ... .. . ...
ROW 13 : G-4 00 . ... ... : ... .. . ... : ... .. . ... : ... .. . ... : ... .. . ...
ROW 14 : D-4 00 . ... ... : ... .. . ... : ... .. . ... : ... .. . ... : ... .. . ...
ROW 15 : G-4 00 . ... ... : ... .. . ... : ... .. . ... : ... .. . ... : ... .. . ...
ROW 16 : --- .. . ... ... : ... .. . ... : ... .. . ... : ... .. . ... : ... .. . ...
ROW 17 : ... .. . ... ... : ... .. . ... : ... .. . ... : ... .. . ... : ... .. . ...
ROW 18 : D-4 00 2 V02 ... : ... .. . ... : ... .. . ... : ... .. . ... : ... .. . ...
ROW 19 : G-4 00 . ... ... : ... .. . ... : ... .. . ... : ... .. . ... : ... .. . ...
ROW 1A : D-4 00 . ... ... : ... .. . ... : ... .. . ... : ... .. . ... : ... .. . ...
ROW 1B : G-4 00 . ... ... : ... .. . ... : ... .. . ... : ... .. . ... : ... .. . ...
ROW 1C : --- .. . ... ... : ... .. 3 ... : ... .. . ... : ... .. . ... : ... .. . ...
ROW 1D : ... .. . ... ... : ... .. . ... : ... .. . ... : ... .. . ... : ... .. . ...
ROW 1E : D-4 00 . ... ... : ... .. . ... : ... .. . ... : ... .. . ... : ... .. . ...
ROW 1F : G-4 00 . ... ... : ... .. . ... : ... .. . ... : ... .. 3 ... : ... .. . ...
ROW 20 : D-4 00 . ... ... : ... .. . ... : ... .. . ... : ... .. . ... : ... .. . ...
ROW 21 : G-4 00 . ... ... : ... .. . ... : ... .. . ... : ... .. . ... : ... .. . ...
ROW 22 : --- .. . ... ... : ... .. . ... : ... .. . ... : ... .. . ... : ... .. . ...
ROW 23 : ... .. . ... ... : ... .. . ... : ... .. . ... : ... .. . ... : ... .. . ...
ROW 24 : D-3 00 . V02 ... : ... .. . ... : ... .. . ... : ... .. . ... : ... .. . ...
ROW 25 : G-3 00 . ... ... : ... .. . ... : ... .. . ... : ... .. . ... : ... .. . ...
ROW 26 : D-3 00 . ... ... : ... .. . ... : ... .. . ... : ... .. . ... : ... .. . ...
ROW 27 : G-3 00 . ... ... : ... .. . ... : ... .. . ... : ... .. . ... : ... .. . ...
ROW 28 : --- .. . ... ... : ... .. . ... : ... .. . ... : ... .. . ... : ... .. . ...
ROW 29 : ... .. . ... ... : ... .. . ... : ... .. . ... : ... .. . ... : ... .. . ...
ROW 2A : D-3 00 3 ... ... : ... .. . ... : ... .. . ... : ... .. . ... : ... .. . ...
ROW 2B : G-3 00 . ... ... : ... .. 4 ... : ... .. . ... : ... .. 4 ... : ... .. . ...
ROW 2C : D-3 00 . ... ... : ... .. . ... : ... .. . ... : ... .. . ... : ... .. . ...
ROW 2D : G-3 00 . ... ... : ... .. . ... : ... .. . ... : ... .. . ... : ... .. . ...
ROW 2E : --- .. . ... ... : ... .. . ... : ... .. . ... : ... .. . ... : ... .. . ...
ROW 2F : ... .. . ... ... : ... .. . ... : ... .. . ... : ... .. . ... : ... .. . ...
ROW 30 : G-1 00 6 V03 ... : ... .. . ... : ... .. . ... : ... .. . ... : ... .. . ...
ROW 31 : ... .. . ... ... : ... .. . ... : ... .. . ... : ... .. . ... : ... .. . ...
ROW 32 : ... .. 5 ... ... : ... .. . ... : ... .. . ... : ... .. . ... : ... .. . ...
ROW 33 : ... .. 3 ... ... : ... .. . ... : ... .. . ... : ... .. . ... : ... .. . ...
ROW 34 : --- .. . ... ... : ... .. . ... : ... .. . ... : ... .. . ... : ... .. . ...
ROW 35 : ... .. . ... ... : ... .. . ... : ... .. . ... : ... .. . ... : ... .. . ...
ROW 36 : D-4 00 2 ... ... : ... .. . ... : ... .. . ... : ... .. . ... : ... .. . ...
ROW 37 : G-4 00 . ... ... : ... .. . ... : ... .. . ... : ... .. 3 ... : ... .. . ...
ROW 38 : D-4 00 . ... ... : ... .. . ... : ... .. . ... : ... .. . ... : ... .. . ...
ROW 39 : G-4 00 . ... ... : ... .. . ... : ... .. . ... : ... .. . ... : ... .. . ...
ROW 3A : --- .. . ... ... : ... .. . ... : ... .. . ... : ... .. . ... : ... .. . ...
ROW 3B : ... .. . ... ... : ... .. . ... : ... .. . ... : ... .. . ... : ... .. . ...
ROW 3C : D-3 00 1 V02 ... : ... .. . ... : ... .. . ... : ... .. . ... : ... .. . ...
ROW 3D : G-3 00 . ... ... : ... .. . ... : ... .. . ... : ... .. . ... : ... .. . ...
ROW 3E : D-3 00 . ... ... : ... .. . ... : ... .. . ... : ... .. . ... : ... .. . ...
ROW 3F : G-3 00 . ... ... : ... .. . ... : ... .. . ... : ... .. . ... : ... .. . ...
ROW 40 : --- .. . ... ... : ... .. . ... : ... .. . ... : ... .. . ... : ... .. . ...
ROW 41 : ... .. . ... ... : ... .. . ... : ... .. . ... : ... .. . ... : ... .. . ...
ROW 42 : D-3 00 2 ... ... : ... .. . ... : ... .. . ... : ... .. . ... : ... .. . ...
ROW 43 : G-3 00 . ... ... : ... .. . ... : ... .. . ... : ... .. 2 ... : ... .. . ...
ROW 44 : D-3 00 . ... ... : ... .. . ... : ... .. . ... : ... .. . ... : ... .. . ...
ROW 45 : G-3 00 . ... ... : ... .. 5 ... : ... .. . ... : ... .. . ... : ... .. . ...
ROW 46 : --- .. . ... ... : ... .. . ... : ... .. . ... : ... .. . ... : ... .. . ...
ROW 47 : ... .. . ... ... : ... .. . ... : ... .. . ... : ... .. . ... : ... .. . ...
ROW 48 : D-6 00 2 V02 ... : ... .. . ... : ... .. . ... : ... .. . ... : ... .. . ...
ROW 49 : G-6 00 . ... ... : ... .. . ... : ... .. . ... : ... .. . ... : ... .. . ...
ROW 4A : D-6 00 . ... ... : ... .. . ... : ... .. . ... : ... .. . ... : ... .. . ...
ROW 4B : G-6 00 . ... ... : ... .. . ... : ... .. . ... : ... .. . ... : ... .. . ...
ROW 4C : --- .. . ... ... : ... .. . ... : ... .. . ... : ... .. . ... : ... .. . ...
ROW 4D : ... .. . ... ... : ... .. . ... : ... .. . ... : ... .. . ... : ... .. . ...
ROW 4E : D-6 00 . ... ... : ... .. . ... : ... .. . ... : ... .. . ... : ... .. . ...
ROW 4F : G-6 00 . ... ... : ... .. . ... : ... .. . ... : ... .. 1 ... : ... .. . ...
ROW 50 : D-6 00 . ... ... : ... .. . ... : ... .. . ... : ... .. . ... : ... .. . ...
ROW 51 : G-6 00 . ... ... : ... .. . ... : ... .. . ... : ... .. . ... : ... .. . ...
ROW 52 : --- .. . ... ... : ... .. . ... : ... .. . ... : ... .. . ... : ... .. . ...
ROW 53 : ... .. . ... ... : ... .. 6 ... : ... .. . ... : ... .. . ... : ... .. . ...
ROW 54 : D-4 00 3 ... ... : ... .. . ... : ... .. . ... : ... .. . ... : ... .. . ...
ROW 55 : G-4 00 . ... ... : ... .. . ... : ... .. . ... : ... .. . ... : ... .. . ...
ROW 56 : D-4 00 . ... ... : ... .. . ... : ... .. . ... : ... .. . ... : ... .. . ...
ROW 57 : G-4 00 . ... ... : ... .. . ... : ... .. . ... : ... .. . ... : ... .. . ...
ROW 58 : --- .. . ... ... : ... .. . ... : ... .. . ... : ... .. . ... : ... .. . ...
ROW 59 : ... .. . ... ... : ... .. . ... : ... .. . ... : ... .. . ... : ... .. . ...
ROW 5A : D-4 00 . ... ... : ... .. . ... : ... .. . ... : ... .. . ... : ... .. . ...
ROW 5B : G-4 00 . ... ... : ... .. . ... : ... .. . ... : ... .. . ... : ... .. . ...
ROW 5C : D-4 00 . ... ... : ... .. . ... : ... .. . ... : ... .. . ... : ... .. . ...
ROW 5D : G-4 00 . ... ... : ... .. . ... : ... .. . ... : ... .. . ... : ... .. . ...
ROW 5E : --- .. . ... ... : ... .. . ... : ... .. . ... : ... .. . ... : ... .. . ...
ROW 5F : ... .. . ... ... : ... .. . ... : ... .. . ... : ... .. . ... : ... .. . ...
ROW 60 : D-4 00 1 V00 ... : ... .. 7 ... : ... .. . ... : ... .. . ... : ... .. . ...
ROW 61 : G-4 00 . ... ... : ... .. . ... : ... .. . ... : ... .. . ... : ... .. . ...
ROW 62 : D-4 00 . ... ... : ... .. 6 ... : ... .. . ... : ... .. . ... : ... .. . ...
ROW 63 : G-4 00 . ... ... : ... .. . ... : ... .. . ... : ... .. . ... : ... .. . ...
ROW 64 : --- .. . ... ... : ... .. . ... : ... .. . ... : ... .. . ... : ... .. . ...
ROW 65 : ... .. . ... ... : ... .. 5 ... : ... .. . ... : ... .. . ... : ... .. . ...
ROW 66 : D-4 00 2 ... ... : ... .. . ... : ... .. . ... : ... .. 2 ... : ... .. . ...
ROW 67 : G-4 00 . ... ... : ... .. . ... : ... .. . ... : ... .. . ... : ... .. . ...
ROW 68 : D-4 00 . ... ... : ... .. 4 ... : ... .. . ... : ... .. . ... : ... .. . ...
ROW 69 : G-4 00 . ... ... : ... .. . ... : ... .. . ... : ... .. . ... : ... .. . ...
ROW 6A : --- .. . ... ... : ... .. . ... : ... .. . ... : ... .. . ... : ... .. . ...
ROW 6B : ... .. . ... ... : ... .. 3 ... : ... .. . ... : ... .. . ... : ... .. . ...
ROW 6C : G-1 00 6 V03 ... : ... .. . ... : ... .. . ... : ... .. . ... : ... .. . ...
ROW 6D : ... .. . ... ... : ... .. . ... : ... .. . ... : ... .. . ... : ... .. . ...
ROW 6E : ... .. 5 ... ... : ... .. . ... : ... .. . ... : ... .. . ... : ... .. . ...
ROW 6F : ... .. 3 ... ... : ... .. . ... : ... .. . ... : ... .. . ... : ... .. . ...
ROW 70 : --- .. . ... ... : ... .. . ... : ... .. . ... : ... .. . ... : ... .. . ...
ROW 71 : ... .. . ... ... : ... .. . ... : ... .. . ... : ... .. . ... : ... .. . ...
ROW 72 : D-4 00 1 ... ... : ... .. . ... : ... .. . ... : ... .. . ... : ... .. . ...
ROW 73 : G-4 00 . ... ... : ... .. . ... : ... .. . ... : ... .. . ... : ... .. . ...
ROW 74 : D-4 00 . ... ... : ... .. . ... : ... .. . ... : ... .. . ... : ... .. . ...
ROW 75 : G-4 00 . ... ... : ... .. . ... : ... .. . ... : ... .. . ... : ... .. . ...
ROW 76 : --- .. . ... ... : ... .. . ... : ... .. . ... : ... .. . ... : ... .. . ...
ROW 77 : ... .. . ... ... : ... .. . ... : ... .. . ... : ... .. . ... : ... .. . ...
ROW 78 : D-4 00 2 V02 ... : ... .. . ... : ... .. . ... : ... .. . ... : ... .. . ...
ROW 79 : G-4 00 . ... ... : ... .. . ... : ... .. . ... : ... .. 3 ... : ... .. . ...
ROW 7A : D-4 00 . ... ... : ... .. . ... : ... .. . ... : ... .. . ... : ... .. . ...
ROW 7B : G-4 00 . ... ... : ... .. . ... : ... .. . ... : ... .. . ... : ... .. . ...
ROW 7C : --- .. . ... ... : ... .. . ... : ... .. . ... : ... .. . ... : ... .. . ...
ROW 7D : ... .. . ... ... : ... .. . ... : ... .. . ... : ... .. . ... : ... .. . ...
ROW 7E : D-4 00 . ... ... : ... .. . ... : ... .. . ... : ... .. . ... : ... .. . ...
ROW 7F : G-4 00 . ... ... : ... .. . ... : ... .. . ... : ... .. . ... : ... .. . ...
ROW 80 : D-4 00 . ... ... : ... .. . ... : ... .. . ... : ... .. . ... : ... .. . ...
ROW 81 : G-4 00 . ... ... : ... .. . ... : ... .. . ... : ... .. . ... : ... .. . ...
ROW 82 : --- .. . ... ... : ... .. . ... : ... .. . ... : ... .. . ... : ... .. . ...
ROW 83 : ... .. . ... ... : ... .. . ... : ... .. . ... : ... .. . ... : ... .. . ...
ROW 84 : D-3 00 . V02 ... : ... .. . ... : ... .. . ... : ... .. . ... : ... .. . ...
ROW 85 : G-3 00 . ... ... : ... .. . ... : ... .. . ... : ... .. . ... : ... .. . ...
ROW 86 : D-3 00 . ... ... : ... .. . ... : ... .. . ... : ... .. . ... : ... .. . ...
ROW 87 : G-3 00 . ... ... : ... .. . ... : ... .. . ... : ... .. . ... : ... .. . ...
ROW 88 : --- .. . ... ... : ... .. . ... : ... .. . ... : ... .. . ... : ... .. . ...
ROW 89 : ... .. . ... ... : ... .. . ... : ... .. . ... : ... .. . ... : ... .. . ...
ROW 8A : D-3 00 3 ... ... : ... .. . ... : ... .. . ... : ... .. . ... : ... .. . ...
ROW 8B : G-3 00 . ... ... : ... .. . ... : ... .. . ... : ... .. . ... : ... .. . ...
ROW 8C : D-3 00 . ... ... : ... .. . ... : ... .. . ... : ... .. 2 ... : ... .. . ...
ROW 8D : G-3 00 . ... ... : ... .. . ... : ... .. . ... : ... .. . ... : ... .. . ...
ROW 8E : --- .. . ... ... : ... .. . ... : ... .. . ... : ... .. . ... : ... .. . ...
ROW 8F : ... .. . ... ... : ... .. . ... : ... .. . ... : ... .. . ... : ... .. . ...
ROW 90 : G-1 00 6 V03 ... : ... .. . ... : ... .. . ... : ... .. . ... : ... .. . ...
ROW 91 : ... .. . ... ... : ... .. . ... : ... .. . ... : ... .. . ... : ... .. . ...
ROW 92 : ... .. 5 ... ... : ... .. . ... : ... .. . ... : ... .. . ... : ... .. . ...
ROW 93 : ... .. 3 ... ... : ... .. . ... : ... .. . ... : ... .. . ... : ... .. . ...
ROW 94 : --- .. . ... ... : ... .. . ... : ... .. . ... : ... .. . ... : ... .. . ...
ROW 95 : ... .. . ... ... : ... .. . ... : ... .. . ... : ... .. . ... : ... .. . ...
ROW 96 : D-4 00 2 ... ... : ... .. . ... : ... .. . ... : ... .. . ... : ... .. . ...
ROW 97 : G-4 00 . ... ... : ... .. . ... : ... .. . ... : ... .. . ... : ... .. . ...
ROW 98 : D-4 00 . ... ... : ... .. . ... : ... .. . ... : ... .. . ... : ... .. . ...
ROW 99 : G-4 00 . ... ... : ... .. . ... : ... .. . ... : ... .. . ... : ... .. . ...
ROW 9A : --- .. . ... ... : ... .. . ... : ... .. . ... : ... .. . ... : ... .. . ...
ROW 9B : ... .. . ... ... : ... .. . ... : ... .. . ... : ... .. . ... : ... .. . ...
ROW 9C : D-3 00 1 V02 ... : ... .. . ... : ... .. . ... : ... .. . ... : ... .. . ...
ROW 9D : G-3 00 . ... ... : ... .. . ... : ... .. . ... : ... .. . ... : ... .. . ...
ROW 9E : D-3 00 . ... ... : ... .. . ... : ... .. . ... : ... .. . ... : ... .. . ...
ROW 9F : G-3 00 . ... ... : ... .. . ... : ... .. . ... : ... .. . ... : ... .. . ...
ROW A0 : --- .. . ... ... : ... .. . ... : ... .. . ... : ... .. . ... : ... .. . ...
ROW A1 : ... .. . ... ... : ... .. . ... : ... .. . ... : ... .. . ... : ... .. . ...
ROW A2 : D-3 00 2 ... ... : ... .. . ... : ... .. . ... : ... .. . ... : ... .. . ...
ROW A3 : G-3 00 . ... ... : ... .. . ... : ... .. . ... : ... .. . ... : ... .. . ...
ROW A4 : D-3 00 . ... ... : ... .. . ... : ... .. . ... : ... .. . ... : ... .. . ...
ROW A5 : G-1 00 4 V03 15C : ... .. . ... : ... .. . ... : ... .. . ... : ... .. . ...
ROW A6 : ... .. . ... ... : ... .. . ... : ... .. . ... : ... .. 1 ... : ... .. . ...
ROW A7 : ... .. . ... ... : ... .. . ... : ... .. . ... : ... .. . ... : ... .. . ...
ROW A8 : ... .. . ... 155 : ... .. . ... : ... .. . ... : ... .. . ... : ... .. . ...
ROW A9 : ... .. . ... ... : ... .. . ... : ... .. . ... : ... .. . ... : ... .. . ...
ROW AA : ... .. 5 ... ... : ... .. . ... : ... .. . ... : ... .. . ... : ... .. . ...
ROW AB : ... .. . ... ... : ... .. . ... : ... .. . ... : ... .. . ... : ... .. . ...
ROW AC : ... .. . ... 12A : ... .. . ... : ... .. . ... : ... .. . ... : ... .. . ...
ROW AD : ... .. . ... ... : ... .. . ... : ... .. . ... : ... .. . ... : ... .. . ...
ROW AE : ... .. 6 ... 220 : ... .. . ... : ... .. . ... : ... .. . ... : ... .. . ...
ROW AF : ... .. . ... ... : ... .. . ... : ... .. . ... : ... .. . ... : ... .. . ...
ROW B0 : ... .. . ... ... : ... .. . ... : ... .. . ... : ... .. . ... : ... .. . ...
ROW B1 : ... .. . ... ... : ... .. . ... : ... .. . ... : ... .. . ... : ... .. . ...
ROW B2 : ... .. . ... ... : ... .. . ... : ... .. . ... : ... .. . ... : ... .. . ...
ROW B3 : ... .. . ... ... : ... .. . ... : ... .. . ... : ... .. . ... : ... .. . ...
ROW B4 : ... .. . V00 ... : ... .. 4 ... : ... .. . ... : ... .. . ... : ... .. . ...
ROW B5 : ... .. . ... ... : ... .. . ... : ... .. . ... : ... .. . ... : ... .. . ...
ROW B6 : ... .. . ... ... : ... .. . ... : ... .. . ... : ... .. . ... : ... .. . ...
ROW B7 : ... .. . ... ... : ... .. 3 ... : ... .. . ... : ... .. . ... : ... .. . ...
ROW B8 : ... .. . ... ... : ... .. . ... : ... .. . ... : ... .. . ... : ... .. . ...
ROW B9 : ... .. . ... ... : ... .. . ... : ... .. . ... : ... .. . ... : ... .. . ...
ROW BA : ... .. . ... ... : ... .. . ... : ... .. . ... : ... .. . ... : ... .. . ...
ROW BB : ... .. . ... ... : ... .. 2 ... : ... .. . ... : ... .. . ... : ... .. . ...
ROW BC : ... .. . ... ... : ... .. . ... : ... .. . ... : ... .. . ... : ... .. . ...
ROW BD : ... .. . ... ... : ... .. . ... : ... .. . ... : ... .. . ... : ... .. . ...
ROW BE : ... .. . ... ... : ... .. . ... : ... .. . ... : ... .. . ... : ... .. . ...
ROW BF : ... .. . ... ... : ... .. 1 ... : ... .. . ... : ... .. . ... : ... .. . ...
ROW C0 : ... .. . ... ... : ... .. . ... : ... .. . ... : ... .. . ... : ... .. . ...
ROW C1 : ... .. . ... ... : ... .. . ... : ... .. . ... : ... .. . ... : ... .. . ...
ROW C2 : ... .. . ... ... : ... .. . ... : ... .. . ... : ... .. . ... : ... .. . ...
ROW C3 : ... .. . ... ... : ... .. . ... : ... .. . ... : ... .. . ... : ... .. . ...
ROW C4 : ... .. . ... ... : ... .. . ... : ... .. . ... : ... .. . ... : ... .. . ...
ROW C5 : ... .. . ... ... : ... .. . ... : ... .. . ... : ... .. . ... : ... .. . ...
ROW C6 : ... .. . ... ... : ... .. . ... : ... .. . ... : ... .. . ... : ... .. . ...
ROW C7 : ... .. . ... ... : ... .. . ... : ... .. . ... : ... .. . ... : ... .. . ...
ROW C8 : ... .. . ... ... : ... .. . ... : ... .. . ... : ... .. . ... : ... .. . ...
ROW C9 : ... .. . ... ... : ... .. . ... : ... .. . ... : ... .. . ... : ... .. . ...
ROW CA : ... .. . ... ... : ... .. . ... : ... .. . ... : ... .. . ... : ... .. . ...
ROW CB : ... .. . ... ... : ... .. . ... : ... .. . ... : ... .. . ... : ... .. . ...
ROW CC : ... .. . ... ... : ... .. . ... : ... .. . ... : ... .. . ... : ... .. . ...
ROW CD : ... .. . ... ... : ... .. . ... : ... .. . ... : ... .. . ... : ... .. . ...
ROW CE : ... .. . ... ... : ... .. . ... : ... .. . ... : ... .. . ... : ... .. . ...
ROW CF : ... .. . ... ... : ... .. . ... : ... .. . ... : ... .. . ... : ... .. . ...
ROW D0 : ... .. . ... ... : ... .. . ... : ... .. . ... : ... .. . ... : ... .. . ...
ROW D1 : ... .. . ... ... : ... .. . ... : ... .. . ... : ... .. . ... : ... .. . ...
ROW D2 : ... .. . ... ... : ... .. . ... : ... .. . ... : ... .. . ... : ... .. . ...
ROW D3 : ... .. . ... ... : ... .. . ... : ... .. . ... : ... .. . ... : ... .. . ...
ROW D4 : ... .. . ... ... : ... .. . ... : ... .. . ... : ... .. . ... : ... .. . ...
ROW D5 : ... .. . ... ... : ... .. . ... : ... .. . ... : ... .. . ... : ... .. . ...
ROW D6 : ... .. . ... ... : ... .. . ... : ... .. . ... : ... .. . ... : ... .. . ...
ROW D7 : ... .. . ... ... : ... .. . ... : ... .. . ... : ... .. . ... : ... .. . ...
ROW D8 : ... .. . ... ... : ... .. . ... : ... .. . ... : ... .. . ... : ... .. . ...
ROW D9 : ... .. . ... ... : ... .. . ... : ... .. . ... : ... .. . ... : ... .. . ...
ROW DA : ... .. . ... ... : ... .. . ... : ... .. . ... : ... .. . ... : ... .. . ...
ROW DB : ... .. . ... ... : ... .. . ... : ... .. . ... : ... .. . ... : ... .. . ...
ROW DC : ... .. . ... ... : ... .. . ... : ... .. . ... : ... .. . ... : ... .. . ...
ROW DD : ... .. . ... ... : ... .. . ... : ... .. . ... : ... .. . ... : ... .. . ...
ROW DE : ... .. . ... ... : ... .. . ... : ... .. . ... : ... .. . ... : ... .. . ...
ROW DF : ... .. . ... ... : ... .. . ... : ... .. . ... : ... .. . ... : ... .. . ...
ROW E0 : ... .. . ... ... : ... .. . ... : ... .. . ... : ... .. . ... : ... .. . ...
ROW E1 : ... .. . ... ... : ... .. . ... : ... .. . ... : ... .. . ... : ... .. . ...
ROW E2 : ... .. . ... ... : ... .. . ... : ... .. . ... : ... .. . ... : ... .. . ...
ROW E3 : ... .. . ... ... : ... .. . ... : ... .. . ... : ... .. . ... : ... .. . ...
ROW E4 : ... .. . ... ... : ... .. . ... : ... .. . ... : ... .. . ... : ... .. . ...
ROW E5 : ... .. . ... ... : ... .. . ... : ... .. . ... : ... .. . ... : ... .. . ...
ROW E6 : ... .. . ... ... : ... .. . ... : ... .. . ... : ... .. . ... : ... .. . ...
ROW E7 : ... .. . ... ... : ... .. . ... : ... .. . ... : ... .. . ... : ... .. . ...
ROW E8 : ... .. . ... ... : ... .. . ... : ... .. . ... : ... .. . ... : ... .. . ...
ROW E9 : ... .. . ... ... : ... .. . ... : ... .. . ... : ... .. . ... : ... .. . ...
ROW EA : ... .. . ... ... : ... .. . ... : ... .. . ... : ... .. . ... : ... .. . ...
ROW EB : ... .. . ... ... : ... .. . ... : ... .. . ... : ... .. . ... : ... .. . ...
ROW EC : ... .. . ... ... : ... .. . ... : ... .. . ... : ... .. . ... : ... .. . ...
ROW ED : ... .. . ... ... : ... .. . ... : ... .. . ... : ... .. . ... : ... .. . ...
ROW EE : ... .. . ... ... : ... .. . ... : ... .. . ... : ... .. . ... : ... .. . ...
ROW EF : ... .. . ... ... : ... .. . ... : ... .. . ... : ... .. . ... : ... .. . ...
ROW F0 : ... .. . ... ... : ... .. . ... : ... .. . ... : ... .. . ... : ... .. . ...
ROW F1 : ... .. . ... ... : ... .. . ... : ... .. . ... : ... .. . ... : ... .. . ...
ROW F2 : ... .. . ... ... : ... .. . ... : ... .. . ... : ... .. . ... : ... .. . ...
ROW F3 : ... .. . ... ... : ... .. . ... : ... .. . ... : ... .. . ... : ... .. . ...
ROW F4 : ... .. . ... ... : ... .. . ... : ... .. . ... : ... .. . ... : ... .. . ...
ROW F5 : ... .. . ... ... : ... .. . ... : ... .. . ... : ... .. . ... : ... .. . ...
ROW F6 : ... .. . ... ... : ... .. . ... : ... .. . ... : ... .. . ... : ... .. . ...
ROW F7 : ... .. . ... ... : ... .. . ... : ... .. . ... : ... .. . ... : ... .. . ...
ROW F8 : ... .. . ... ... : ... .. . ... : ... .. . ... : ... .. . ... : ... .. . ...
ROW F9 : ... .. . ... ... : ... .. . ... : ... .. . ... : ... .. . ... : ... .. . ...
ROW FA : ... .. . ... ... : ... .. . ... : ... .. . ... : ... .. . ... : ... .. . ...
ROW FB : ... .. . ... ... : ... .. . ... : ... .. . ... : ... .. . ... : ... .. . ...
ROW FC : ... .. . ... ... : ... .. . ... : ... .. . ... : ... .. . ... : ... .. . ...
ROW FD : ... .. . ... ... : ... .. . ... : ... .. . ... : ... .. . ... : ... .. . ...
ROW FE : ... .. . ... ... : ... .. . ... : ... .. . ... : ... .. . ... : ... .. . ...
ROW FF : ... .. . ... ... : ... .. . ... : ... .. . ... : ... .. . ... : ... .. . ...

PATTERN 05
ROW 00 : ... .. 5 V02 230 : G-3 03 1 ... : ... .. . ... : F-# 00 2 ... : ... .. . ...
ROW 01 : ... .. . ... ... : ... .. . ... : ... .. . ... : ... .. . ... : ... .. . ...
ROW 02 : ... .. . ... ... : ... .. . ... : ... .. . ... : ... .. . ... : ... .. . ...
ROW 03 : ... .. . ... ... : ... .. . ... : ... .. . ... : ... .. . ... : ... .. . ...
ROW 04 : ... .. . ... ... : ... .. . ... : ... .. . ... : ... .. . ... : ... .. . ...
ROW 05 : ... .. . ... ... : ... .. . ... : ... .. . ... : ... .. . ... : ... .. . ...
ROW 06 : ... .. . ... ... : ... .. . ... : ... .. . ... : ... .. . ... : ... .. . ...
ROW 07 : ... .. . ... ... : ... .. . ... : ... .. . ... : ... .. . ... : ... .. . ...
ROW 08 : ... .. 4 ... ... : ... .. . ... : ... .. . ... : ... .. . ... : ... .. . ...
ROW 09 : ... .. . ... ... : ... .. . ... : ... .. . ... : ... .. . ... : ... .. . ...
ROW 0A : ... .. . ... ... : ... .. . ... : ... .. . ... : ... .. . ... : ... .. . ...
ROW 0B : ... .. . ... ... : ... .. . ... : ... .. . ... : ... .. . ... : ... .. . ...
ROW 0C : ... .. . ... ... : ... .. . ... : ... .. . ... : ... .. 1 ... : ... .. . ...
ROW 0D : ... .. . ... ... : ... .. . ... : ... .. . ... : ... .. . ... : ... .. . ...
ROW 0E : ... .. . ... ... : ... .. 2 ... : ... .. . ... : ... .. . ... : ... .. . ...
ROW 0F : ... .. . ... ... : ... .. . ... : ... .. . ... : ... .. . ... : ... .. . ...
ROW 10 : ... .. . ... ... : ... .. . ... : ... .. . ... : ... .. . ... : ... .. . ...
ROW 11 : ... .. 3 ... ... : ... .. . ... : ... .. . ... : ... .. . ... : ... .. . ...
ROW 12 : ... .. . ... ... : ... .. . ... : ... .. . ... : ... .. . ... : ... .. . ...
ROW 13 : ... .. . ... ... : ... .. . ... : ... .. . ... : ... .. . ... : ... .. . ...
ROW 14 : ... .. . ... ... : ... .. . ... : ... .. . ... : ... .. . ... : ... .. . ...
ROW 15 : ... .. . ... ... : ... .. . ... : ... .. . ... : ... .. . ... : ... .. . ...
ROW 16 : ... .. . ... ... : ... .. . ... : ... .. . ... : ... .. . ... : ... .. . ...
ROW 17 : ... .. . ... ... : ... .. . ... : ... .. . ... : ... .. . ... : ... .. . ...
ROW 18 : G-3 00 7 V03 200 : ... .. . ... : ... .. . ... : ... .. . ... : ... .. . ...
ROW 19 : ... .. . ... ... : ... .. . ... : ... .. . ... : ... .. . ... : ... .. . ...
ROW 1A : ... .. . ... ... : ... .. . ... : ... .. . ... : ... .. . ... : ... .. . ...
ROW 1B : ... .. . ... ... : ... .. . ... : ... .. . ... : ... .. . ... : ... .. . ...
ROW 1C : ... .. . ... ... : ... .. 3 ... : ... .. . ... : ... .. . ... : ... .. . ...
ROW 1D : ... .. . ... ... : ... .. . ... : ... .. . ... : ... .. . ... : ... .. . ...
ROW 1E : ... .. . ... ... : ... .. . ... : ... .. . ... : ... .. . ... : ... .. . ...
ROW 1F : ... .. . ... ... : ... .. . ... : ... .. . ... : ... .. . ... : ... .. . ...
ROW 20 : ... .. 5 ... ... : ... .. . ... : ... .. . ... : ... .. 2 ... : ... .. . ...
ROW 21 : ... .. . ... ... : ... .. . ... : ... .. . ... : ... .. . ... : ... .. . ...
ROW 22 : ... .. . ... ... : ... .. . ... : ... .. . ... : ... .. . ... : ... .. . ...
ROW 23 : ... .. . ... ... : ... .. . ... : ... .. . ... : ... .. . ... : ... .. . ...
ROW 24 : ... .. 3 V02 ... : ... .. . ... : ... .. . ... : ... .. . ... : ... .. . ...
ROW 25 : ... .. . ... ... : ... .. . ... : ... .. . ... : ... .. . ... : ... .. . ...
ROW 26 : ... .. . ... ... : ... .. . ... : ... .. . ... : ... .. . ... : ... .. . ...
ROW 27 : ... .. . ... ... : ... .. . ... : ... .. . ... : ... .. . ... : ... .. . ...
ROW 28 : ... .. . ... ... : ... .. . ... : ... .. . ... : ... .. . ... : ... .. . ...
ROW 29 : ... .. . ... ... : ... .. . ... : ... .. . ... : ... .. . ... : ... .. . ...
ROW 2A : ... .. . ... ... : ... .. . ... : ... .. . ... : ... .. . ... : ... .. . ...
ROW 2B : ... .. . ... ... : ... .. 4 ... : ... .. . ... : ... .. . ... : ... .. . ...
ROW 2C : ... .. . ... ... : ... .. . ... : ... .. . ... : ... .. . ... : ... .. . ...
ROW 2D : ... .. . ... ... : ... .. . ... : ... .. . ... : ... .. . ... : ... .. . ...
ROW 2E : ... .. . ... ... : ... .. . ... : ... .. . ... : ... .. . ... : ... .. . ...
ROW 2F : ... .. . ... ... : ... .. . ... : ... .. . ... : ... .. . ... : ... .. . ...
ROW 30 : B-3 00 7 V00 ... : ... .. . ... : ... .. . ... : ... .. 3 ... : ... .. . ...
ROW 31 : ... .. . ... ... : ... .. . ... : ... .. . ... : ... .. . ... : ... .. . ...
ROW 32 : ... .. . ... ... : ... .. . ... : ... .. . ... : ... .. . ... : ... .. . ...
ROW 33 : ... .. . ... ... : ... .. . ... : ... .. . ... : ... .. . ... : ... .. . ...
ROW 34 : ... .. . ... ... : ... .. . ... : ... .. . ... : ... .. . ... : ... .. . ...
ROW 35 : ... .. . ... ... : ... .. . ... : ... .. . ... : ... .. . ... : ... .. . ...
ROW 36 : ... .. . ... ... : ... .. . ... : ... .. . ... : ... .. . ... : ... .. . ...
ROW 37 : ... .. . ... ... : ... .. . ... : ... .. . ... : ... .. . ... : ... .. . ...
ROW 38 : ... .. 5 ... ... : ... .. . ... : ... .. . ... : ... .. . ... : ... .. . ...
ROW 39 : ... .. . ... ... : ... .. . ... : ... .. . ... : ... .. . ... : ... .. . ...
ROW 3A : ... .. . ... ... : ... .. . ... : ... .. . ... : ... .. . ... : ... .. . ...
ROW 3B : ... .. . ... ... : ... .. . ... : ... .. . ... : ... .. . ... : ... .. . ...
ROW 3C : ... .. 3 V01 ... : ... .. . ... : ... .. . ... : ... .. . ... : ... .. . ...
ROW 3D : ... .. . ... ... : ... .. . ... : ... .. . ... : ... .. . ... : ... .. . ...
ROW 3E : ... .. . ... ... : ... .. . ... : ... .. . ... : ... .. . ... : ... .. . ...
ROW 3F : ... .. . ... ... : ... .. . ... : ... .. . ... : ... .. . ... : ... .. . ...
ROW 40 : ... .. . ... ... : ... .. . ... : ... .. . ... : ... .. . ... : ... .. . ...
ROW 41 : ... .. . ... ... : ... .. . ... : ... .. . ... : ... .. 4 ... : ... .. . ...
ROW 42 : ... .. . ... ... : ... .. . ... : ... .. . ... : ... .. . ... : ... .. . ...
ROW 43 : ... .. . ... ... : ... .. . ... : ... .. . ... : ... .. . ... : ... .. . ...
ROW 44 : ... .. . ... ... : ... .. . ... : ... .. . ... : ... .. . ... : ... .. . ...
ROW 45 : ... .. . ... ... : ... .. 5 ... : ... .. . ... : ... .. . ... : ... .. . ...
ROW 46 : ... .. . ... ... : ... .. . ... : ... .. . ... : ... .. . ... : ... .. . ...
ROW 47 : ... .. . ... ... : ... .. . ... : ... .. . ... : ... .. . ... : ... .. . ...
ROW 48 : ... .. 4 V02 ... : ... .. . ... : ... .. . ... : ... .. . ... : ... .. . ...
ROW 49 : ... .. . ... ... : ... .. . ... : ... .. . ... : ... .. . ... : ... .. . ...
ROW 4A : ... .. . ... ... : ... .. . ... : ... .. . ... : ... .. . ... : ... .. . ...
ROW 4B : ... .. . ... ... : ... .. . ... : ... .. . ... : ... .. . ... : ... .. . ...
ROW 4C : ... .. . ... ... : ... .. . ... : ... .. . ... : ... .. . ... : ... .. . ...
ROW 4D : ... .. . ... ... : ... .. . ... : ... .. . ... : ... .. . ... : ... .. . ...
ROW 4E : ... .. . ... ... : ... .. . ... : ... .. . ... : ... .. . ... : ... .. . ...
ROW 4F : ... .. . ... ... : ... .. . ... : ... .. . ... : ... .. . ... : ... .. . ...
ROW 50 : ... .. . ... ... : ... .. . ... : ... .. . ... : ... .. . ... : ... .. . ...
ROW 51 : ... .. 4 ... ... : ... .. . ... : ... .. . ... : ... .. 5 ... : ... .. . ...
ROW 52 : ... .. 5 ... ... : ... .. . ... : ... .. . ... : ... .. . ... : ... .. . ...
ROW 53 : ... .. . ... ... : ... .. 6 ... : ... .. . ... : ... .. . ... : ... .. . ...
ROW 54 : ... .. 6 V00 ... : ... .. . ... : ... .. . ... : ... .. . ... : ... .. . ...
ROW 55 : ... .. . ... ... : ... .. . ... : ... .. . ... : ... .. . ... : ... .. . ...
ROW 56 : ... .. . ... ... : ... .. . ... : ... .. . ... : ... .. . ... : ... .. . ...
ROW 57 : ... .. 5 ... ... : ... .. . ... : ... .. . ... : ... .. 4 ... : ... .. . ...
ROW 58 : ... .. . ... ... : ... .. . ... : ... .. . ... : ... .. . ... : ... .. . ...
ROW 59 : ... .. . ... ... : ... .. . ... : ... .. . ... : ... .. . ... : ... .. . ...
ROW 5A : ... .. . ... ... : ... .. . ... : ... .. . ... : ... .. . ... : ... .. . ...
ROW 5B : ... .. 4 ... ... : ... .. . ... : ... .. . ... : ... .. . ... : ... .. . ...
ROW 5C : ... .. . ... ... : ... .. . ... : ... .. . ... : ... .. . ... : ... .. . ...
ROW 5D : ... .. . ... ... : ... .. . ... : ... .. . ... : ... .. . ... : ... .. . ...
ROW 5E : ... .. . ... ... : ... .. . ... : ... .. . ... : ... .. . ... : ... .. . ...
ROW 5F : ... .. 3 ... ... : ... .. . ... : ... .. . ... : ... .. . ... : ... .. . ...
ROW 60 : ... .. . V01 ... : ... .. 7 ... : ... .. . ... : ... .. . ... : ... .. . ...
ROW 61 : ... .. . ... ... : ... .. . ... : ... .. . ... : ... .. . ... : ... .. . ...
ROW 62 : ... .. . ... ... : ... .. 6 ... : ... .. . ... : ... .. . ... : ... .. . ...
ROW 63 : ... .. . ... ... : ... .. . ... : ... .. . ... : ... .. . ... : ... .. . ...
ROW 64 : ... .. . ... ... : ... .. . ... : ... .. . ... : ... .. . ... : ... .. . ...
ROW 65 : ... .. 2 ... ... : ... .. 5 ... : ... .. . ... : ... .. . ... : ... .. . ...
ROW 66 : ... .. . ... ... : ... .. . ... : ... .. . ... : ... .. . ... : ... .. . ...
ROW 67 : ... .. . ... ... : ... .. . ... : ... .. . ... : ... .. . ... : ... .. . ...
ROW 68 : ... .. . ... ... : ... .. 4 ... : ... .. . ... : ... .. 3 ... : ... .. . ...
ROW 69 : ... .. . ... ... : ... .. . ... : ... .. . ... : ... .. . ... : ... .. . ...
ROW 6A : ... .. . ... ... : ... .. . ... : ... .. . ... : ... .. . ... : ... .. . ...
ROW 6B : ... .. . ... ... : ... .. 3 ... : ... .. . ... : ... .. . ... : ... .. . ...
ROW 6C : ... .. . V02 ... : ... .. . ... : ... .. . ... : ... .. . ... : ... .. . ...
ROW 6D : ... .. . ... ... : ... .. . ... : ... .. . ... : ... .. . ... : ... .. . ...
ROW 6E : ... .. . ... ... : ... .. . ... : ... .. . ... : ... .. . ... : ... .. . ...
ROW 6F : ... .. . ... ... : ... .. . ... : ... .. . ... : ... .. . ... : ... .. . ...
ROW 70 : ... .. . ... ... : ... .. . ... : ... .. . ... : ... .. . ... : ... .. . ...
ROW 71 : ... .. . ... ... : ... .. . ... : ... .. . ... : ... .. . ... : ... .. . ...
ROW 72 : ... .. . ... ... : ... .. . ... : ... .. . ... : ... .. . ... : ... .. . ...
ROW 73 : ... .. . ... ... : ... .. . ... : ... .. . ... : ... .. . ... : ... .. . ...
ROW 74 : ... .. . ... ... : ... .. . ... : ... .. . ... : ... .. . ... : ... .. . ...
ROW 75 : ... .. . ... ... : ... .. . ... : ... .. . ... : ... .. . ... : ... .. . ...
ROW 76 : ... .. . ... ... : ... .. . ... : ... .. . ... : ... .. . ... : ... .. . ...
ROW 77 : ... .. . ... ... : ... .. . ... : ... .. . ... : ... .. 2 ... : ... .. . ...
ROW 78 : G-3 00 7 V03 ... : ... .. . ... : ... .. . ... : ... .. . ... : ... .. . ...
ROW 79 : ... .. . ... ... : ... .. . ... : ... .. . ... : ... .. . ... : ... .. . ...
ROW 7A : ... .. . ... ... : ... .. . ... : ... .. . ... : ... .. . ... : ... .. . ...
ROW 7B : ... .. . ... ... : ... .. . ... : ... .. . ... : ... .. . ... : ... .. . ...
ROW 7C : ... .. . ... ... : ... .. . ... : ... .. . ... : ... .. . ... : ... .. . ...
ROW 7D : ... .. . ... ... : ... .. . ... : ... .. . ... : ... .. . ... : ... .. . ...
ROW 7E : ... .. . ... ... : ... .. . ... : ... .. . ... : ... .. . ... : ... .. . ...
ROW 7F : ... .. . ... ... : ... .. . ... : ... .. . ... : ... .. . ... : ... .. . ...
ROW 80 : ... .. 5 ... ... : ... .. . ... : ... .. . ... : ... .. . ... : ... .. . ...
ROW 81 : ... .. . ... ... : ... .. . ... : ... .. . ... : ... .. . ... : ... .. . ...
ROW 82 : ... .. . ... ... : ... .. . ... : ... .. . ... : ... .. . ... : ... .. . ...
ROW 83 : ... .. . ... ... : ... .. . ... : ... .. . ... : ... .. . ... : ... .. . ...
ROW 84 : ... .. 4 V02 ... : ... .. . ... : ... .. . ... : ... .. . ... : ... .. . ...
ROW 85 : ... .. . ... ... : ... .. . ... : ... .. . ... : ... .. . ... : ... .. . ...
ROW 86 : ... .. . ... ... : ... .. . ... : ... .. . ... : ... .. . ... : ... .. . ...
ROW 87 : ... .. . ... ... : ... .. . ... : ... .. . ... : ... .. . ... : ... .. . ...
ROW 88 : ... .. . ... ... : ... .. . ... : ... .. . ... : ... .. 1 ... : ... .. . ...
ROW 89 : ... .. . ... ... : ... .. . ... : ... .. . ... : ... .. . ... : ... .. . ...
ROW 8A : ... .. . ... ... : ... .. . ... : ... .. . ... : ... .. . ... : ... .. . ...
ROW 8B : ... .. . ... ... : ... .. . ... : ... .. . ... : ... .. . ... : ... .. . ...
ROW 8C : ... .. . ... ... : ... .. . ... : ... .. . ... : ... .. . ... : ... .. . ...
ROW 8D : ... .. . ... ... : ... .. . ... : ... .. . ... : ... .. . ... : ... .. . ...
ROW 8E : ... .. . ... ... : ... .. . ... : ... .. . ... : ... .. . ... : ... .. . ...
ROW 8F : ... .. . ... ... : ... .. . ... : ... .. . ... : ... .. . ... : ... .. . ...
ROW 90 : B-3 00 7 V00 ... : ... .. . ... : ... .. . ... : ... .. . ... : ... .. . ...
ROW 91 : ... .. . ... ... : ... .. . ... : ... .. . ... : ... .. . ... : ... .. . ...
ROW 92 : ... .. . ... ... : ... .. . ... : ... .. . ... : ... .. . ... : ... .. . ...
ROW 93 : ... .. . ... ... : ... .. . ... : ... .. . ... : ... .. . ... : ... .. . ...
ROW 94 : ... .. . ... ... : ... .. . ... : ... .. . ... : ... .. . ... : ... .. . ...
ROW 95 : ... .. . ... ... : ... .. . ... : ... .. . ... : ... .. . ... : ... .. . ...
ROW 96 : ... .. . ... ... : ... .. . ... : ... .. . ... : ... .. . ... : ... .. . ...
ROW 97 : ... .. . ... ... : ... .. . ... : ... .. . ... : ... .. . ... : ... .. . ...
ROW 98 : ... .. 5 ... ... : ... .. . ... : ... .. . ... : ... .. 2 ... : ... .. . ...
ROW 99 : ... .. . ... ... : ... .. . ... : ... .. . ... : ... .. . ... : ... .. . ...
ROW 9A : ... .. . ... ... : ... .. . ... : ... .. . ... : ... .. . ... : ... .. . ...
ROW 9B : ... .. . ... ... : ... .. . ... : ... .. . ... : ... .. . ... : ... .. . ...
ROW 9C : ... .. 4 V01 ... : ... .. . ... : ... .. . ... : ... .. . ... : ... .. . ...
ROW 9D : ... .. . ... ... : ... .. . ... : ... .. . ... : ... .. . ... : ... .. . ...
ROW 9E : ... .. . ... ... : ... .. . ... : ... .. . ... : ... .. . ... : ... .. . ...
ROW 9F : ... .. . ... ... : ... .. . ... : ... .. . ... : ... .. . ... : ... .. . ...
ROW A0 : ... .. 3 ... ... : ... .. . ... : ... .. . ... : ... .. . ... : ... .. . ...
ROW A1 : ... .. . ... ... : ... .. . ... : ... .. . ... : ... .. . ... : ... .. . ...
ROW A2 : ... .. . ... ... : ... .. . ... : ... .. . ... : ... .. . ... : ... .. . ...
ROW A3 : ... .. . ... ... : ... .. . ... : ... .. . ... : ... .. . ... : ... .. . ...
ROW A4 : ... .. . ... ... : ... .. . ... : ... .. . ... : ... .. . ... : ... .. . ...
ROW A5 : ... .. . ... ... : ... .. . ... : ... .. . ... : ... .. . ... : ... .. . ...
ROW A6 : ... .. . ... ... : ... .. . ... : ... .. . ... : ... .. . ... : ... .. . ...
ROW A7 : ... .. . ... ... : ... .. . ... : ... .. . ... : ... .. . ... : ... .. . ...
ROW A8 : A-3 00 7 V00 ... : ... .. . ... : ... .. . ... : ... .. . ... : ... .. . ...
ROW A9 : ... .. . ... ... : ... .. . ... : ... .. . ... : ... .. . ... : ... .. . ...
ROW AA : ... .. . ... ... : ... .. . ... : ... .. . ... : ... .. . ... : ... .. . ...
ROW AB : ... .. . ... ... : ... .. . ... : ... .. . ... : ... .. . ... : ... .. . ...
ROW AC : ... .. . ... ... : ... .. . ... : ... .. . ... : ... .. . ... : ... .. . ...
ROW AD : ... .. . ... ... : ... .. . ... : ... .. . ... : ... .. 1 ... : ... .. . ...
ROW AE : ... .. . ... ... : ... .. . ... : ... .. . ... : ... .. . ... : ... .. . ...
ROW AF : ... .. . ... ... : ... .. . ... : ... .. . ... : ... .. . ... : ... .. . ...
ROW B0 : ... .. . ... ... : ... .. . ... : ... .. . ... : ... .. . ... : ... .. . ...
ROW B1 : ... .. 6 ... ... : ... .. . ... : ... .. . ... : ... .. . ... : ... .. . ...
ROW B2 : ... .. . ... ... : ... .. . ... : ... .. . ... : ... .. . ... : ... .. . ...
ROW B3 : ... .. . ... ... : ... .. . ... : ... .. . ... : ... .. . ... : ... .. . ...
ROW B4 : G-3 00 4 V02 ... : ... .. 4 ... : ... .. . ... : ... .. . ... : ... .. . ...
ROW B5 : ... .. . ... ... : ... .. . ... : ... .. . ... : ... .. . ... : ... .. . ...
ROW B6 : ... .. . ... ... : ... .. . ... : ... .. . ... : ... .. . ... : ... .. . ...
ROW B7 : ... .. . ... ... : ... .. 3 ... : ... .. . ... : ... .. . ... : ... .. . ...
ROW B8 : ... .. . ... ... : ... .. . ... : ... .. . ... : ... .. . ... : ... .. . ...
ROW B9 : ... .. . ... ... : ... .. . ... : ... .. . ... : ... .. . ... : ... .. . ...
ROW BA : ... .. 3 ... ... : ... .. . ... : ... .. . ... : ... .. . ... : ... .. . ...
ROW BB : ... .. . ... ... : ... .. 2 ... : ... .. . ... : ... .. . ... : ... .. . ...
ROW BC : ... .. . ... ... : ... .. . ... : ... .. . ... : ... .. . ... : ... .. . ...
ROW BD : ... .. . ... ... : ... .. . ... : ... .. . ... : ... .. . ... : ... .. . ...
ROW BE : ... .. . ... ... : ... .. . ... : ... .. . ... : ... .. . ... : ... .. . ...
ROW BF : ... .. . ... ... : ... .. 1 ... : ... .. . ... : ... .. . ... : ... .. . ...
ROW C0 : ... .. . ... ... : ... .. . ... : ... .. . ... : ... .. . ... : ... .. . ...
ROW C1 : ... .. . ... ... : ... .. . ... : ... .. . ... : ... .. . ... : ... .. . ...
ROW C2 : ... .. . ... ... : ... .. . ... : ... .. . ... : ... .. . ... : ... .. . ...
ROW C3 : ... .. . ... ... : ... .. . ... : ... .. . ... : ... .. . ... : ... .. . ...
ROW C4 : ... .. . ... ... : ... .. . ... : ... .. . ... : ... .. . ... : ... .. . ...
ROW C5 : ... .. . ... ... : ... .. . ... : ... .. . ... : ... .. . ... : ... .. . ...
ROW C6 : ... .. . ... ... : ... .. . ... : ... .. . ... : ... .. . ... : ... .. . ...
ROW C7 : ... .. . ... ... : ... .. . ... : ... .. . ... : ... .. . ... : ... .. . ...
ROW C8 : ... .. . ... ... : ... .. . ... : ... .. . ... : ... .. . ... : ... .. . ...
ROW C9 : ... .. . ... ... : ... .. . ... : ... .. . ... : ... .. . ... : ... .. . ...
ROW CA : ... .. . ... ... : ... .. . ... : ... .. . ... : ... .. . ... : ... .. . ...
ROW CB : ... .. . ... ... : ... .. . ... : ... .. . ... : ... .. . ... : ... .. . ...
ROW CC : ... .. . ... ... : ... .. . ... : ... .. . ... : ... .. . ... : ... .. . ...
ROW CD : ... .. . ... ... : ... .. . ... : ... .. . ... : ... .. . ... : ... .. . ...
ROW CE : ... .. . ... ... : ... .. . ... : ... .. . ... : ... .. . ... : ... .. . ...
ROW CF : ... .. . ... ... : ... .. . ... : ... .. . ... : ... .. . ... : ... .. . ...
ROW D0 : ... .. . ... ... : ... .. . ... : ... .. . ... : ... .. . ... : ... .. . ...
ROW D1 : ... .. . ... ... : ... .. . ... : ... .. . ... : ... .. . ... : ... .. . ...
ROW D2 : ... .. . ... ... : ... .. . ... : ... .. . ... : ... .. . ... : ... .. . ...
ROW D3 : ... .. . ... ... : ... .. . ... : ... .. . ... : ... .. . ... : ... .. . ...
ROW D4 : ... .. . ... ... : ... .. . ... : ... .. . ... : ... .. . ... : ... .. . ...
ROW D5 : ... .. . ... ... : ... .. . ... : ... .. . ... : ... .. . ... : ... .. . ...
ROW D6 : ... .. . ... ... : ... .. . ... : ... .. . ... : ... .. . ... : ... .. . ...
ROW D7 : ... .. . ... ... : ... .. . ... : ... .. . ... : ... .. . ... : ... .. . ...
ROW D8 : ... .. . ... ... : ... .. . ... : ... .. . ... : ... .. . ... : ... .. . ...
ROW D9 : ... .. . ... ... : ... .. . ... : ... .. . ... : ... .. . ... : ... .. . ...
ROW DA : ... .. . ... ... : ... .. . ... : ... .. . ... : ... .. . ... : ... .. . ...
ROW DB : ... .. . ... ... : ... .. . ... : ... .. . ... : ... .. . ... : ... .. . ...
ROW DC : ... .. . ... ... : ... .. . ... : ... .. . ... : ... .. . ... : ... .. . ...
ROW DD : ... .. . ... ... : ... .. . ... : ... .. . ... : ... .. . ... : ... .. . ...
ROW DE : ... .. . ... ... : ... .. . ... : ... .. . ... : ... .. . ... : ... .. . ...
ROW DF : ... .. . ... ... : ... .. . ... : ... .. . ... : ... .. . ... : ... .. . ...
ROW E0 : ... .. . ... ... : ... .. . ... : ... .. . ... : ... .. . ... : ... .. . ...
ROW E1 : ... .. . ... ... : ... .. . ... : ... .. . ... : ... .. . ... : ... .. . ...
ROW E2 : ... .. . ... ... : ... .. . ... : ... .. . ... : ... .. . ... : ... .. . ...
ROW E3 : ... .. . ... ... : ... .. . ... : ... .. . ... : ... .. . ... : ... .. . ...
ROW E4 : ... .. . ... ... : ... .. . ... : ... .. . ... : ... .. . ... : ... .. . ...
ROW E5 : ... .. . ... ... : ... .. . ... : ... .. . ... : ... .. . ... : ... .. . ...
ROW E6 : ... .. . ... ... : ... .. . ... : ... .. . ... : ... .. . ... : ... .. . ...
ROW E7 : ... .. . ... ... : ... .. . ... : ... .. . ... : ... .. . ... : ... .. . ...
ROW E8 : ... .. . ... ... : ... .. . ... : ... .. . ... : ... .. . ... : ... .. . ...
ROW E9 : ... .. . ... ... : ... .. . ... : ... .. . ... : ... .. . ... : ... .. . ...
ROW EA : ... .. . ... ... : ... .. . ... : ... .. . ... : ... .. . ... : ... .. . ...
ROW EB : ... .. . ... ... : ... .. . ... : ... .. . ... : ... .. . ... : ... .. . ...
ROW EC : ... .. . ... ... : ... .. . ... : ... .. . ... : ... .. . ... : ... .. . ...
ROW ED : ... .. . ... ... : ... .. . ... : ... .. . ... : ... .. . ... : ... .. . ...
ROW EE : ... .. . ... ... : ... .. . ... : ... .. . ... : ... .. . ... : ... .. . ...
ROW EF : ... .. . ... ... : ... .. . ... : ... .. . ... : ... .. . ... : ... .. . ...
ROW F0 : ... .. . ... ... : ... .. . ... : ... .. . ... : ... .. . ... : ... .. . ...
ROW F1 : ... .. . ... ... : ... .. . ... : ... .. . ... : ... .. . ... : ... .. . ...
ROW F2 : ... .. . ... ... : ... .. . ... : ... .. . ... : ... .. . ... : ... .. . ...
ROW F3 : ... .. . ... ... : ... .. . ... : ... .. . ... : ... .. . ... : ... .. . ...
ROW F4 : ... .. . ... ... : ... .. . ... : ... .. . ... : ... .. . ... : ... .. . ...
ROW F5 : ... .. . ... ... : ... .. . ... : ... .. . ... : ... .. . ... : ... .. . ...
ROW F6 : ... .. . ... ... : ... .. . ... : ... .. . ... : ... .. . ... : ... .. . ...
ROW F7 : ... .. . ... ... : ... .. . ... : ... .. . ... : ... .. . ... : ... .. . ...
ROW F8 : ... .. . ... ... : ... .. . ... : ... .. . ... : ... .. . ... : ... .. . ...
ROW F9 : ... .. . ... ... : ... .. . ... : ... .. . ... : ... .. . ... : ... .. . ...
ROW FA : ... .. . ... ... : ... .. . ... : ... .. . ... : ... .. . ... : ... .. . ...
ROW FB : ... .. . ... ... : ... .. . ... : ... .. . ... : ... .. . ... : ... .. . ...
ROW FC : ... .. . ... ... : ... .. . ... : ... .. . ... : ... .. . ... : ... .. . ...
ROW FD : ... .. . ... ... : ... .. . ... : ... .. . ... : ... .. . ... : ... .. . ...
ROW FE : ... .. . ... ... : ... .. . ... : ... .. . ... : ... .. . ... : ... .. . ...
ROW FF : ... .. . ... ... : ... .. . ... : ... .. . ... : ... .. . ... : ... .. . ...

PATTERN 06
ROW 00 : A-3 00 5 V00 ... : ... .. . ... : ... .. . ... : F-# 00 2 ... : ... .. . ...
ROW 01 : ... .. . ... ... : ... .. . ... : ... .. . ... : ... .. . ... : ... .. . ...
ROW 02 : ... .. . ... ... : ... .. . ... : ... .. . ... : ... .. . ... : ... .. . ...
ROW 03 : ... .. . ... ... : ... .. . ... : ... .. . ... : ... .. . ... : ... .. . ...
ROW 04 : ... .. . ... ... : ... .. . ... : ... .. . ... : ... .. . ... : ... .. . ...
ROW 05 : ... .. . ... ... : ... .. . ... : ... .. . ... : ... .. . ... : ... .. . ...
ROW 06 : ... .. . ... ... : ... .. . ... : ... .. . ... : ... .. . ... : ... .. . ...
ROW 07 : ... .. . ... ... : ... .. . ... : ... .. . ... : ... .. . ... : ... .. . ...
ROW 08 : ... .. . ... ... : ... .. . ... : ... .. . ... : ... .. . ... : ... .. . ...
ROW 09 : ... .. 4 ... ... : ... .. . ... : ... .. . ... : ... .. . ... : ... .. . ...
ROW 0A : ... .. . ... ... : ... .. . ... : ... .. . ... : ... .. . ... : ... .. . ...
ROW 0B : ... .. . ... ... : ... .. . ... : ... .. . ... : ... .. . ... : ... .. . ...
ROW 0C : D-3 00 3 V01 ... : ... .. . ... : ... .. . ... : ... .. . ... : ... .. . ...
ROW 0D : ... .. . ... ... : ... .. . ... : ... .. . ... : ... .. 1 ... : ... .. . ...
ROW 0E : ... .. . ... ... : ... .. . ... : ... .. . ... : ... .. . ... : ... .. . ...
ROW 0F : ... .. . ... ... : ... .. . ... : ... .. . ... : ... .. . ... : ... .. . ...
ROW 10 : ... .. . ... ... : ... .. . ... : ... .. . ... : ... .. . ... : ... .. . ...
ROW 11 : ... .. . ... ... : ... .. . ... : ... .. . ... : ... .. . ... : ... .. . ...
ROW 12 : ... .. . ... ... : ... .. . ... : ... .. . ... : ... .. . ... : ... .. . ...
ROW 13 : ... .. . ... ... : ... .. . ... : ... .. . ... : ... .. . ... : ... .. . ...
ROW 14 : ... .. . ... ... : ... .. . ... : ... .. . ... : ... .. . ... : ... .. . ...
ROW 15 : ... .. 2 ... ... : ... .. . ... : ... .. . ... : ... .. . ... : ... .. . ...
ROW 16 : ... .. . ... ... : ... .. . ... : ... .. . ... : ... .. . ... : ... .. . ...
ROW 17 : ... .. . ... ... : ... .. . ... : ... .. . ... : ... .. . ... : ... .. . ...
ROW 18 : ... .. 1 V02 ... : ... .. . ... : ... .. . ... : ... .. . ... : ... .. . ...
ROW 19 : ... .. . ... ... : ... .. . ... : ... .. . ... : ... .. . ... : ... .. . ...
ROW 1A : ... .. . ... ... : ... .. . ... : ... .. . ... : ... .. . ... : ... .. . ...
ROW 1B : ... .. . ... ... : ... .. . ... : ... .. . ... : ... .. . ... : ... .. . ...
ROW 1C : ... .. . ... ... : ... .. . ... : ... .. . ... : ... .. . ... : ... .. . ...
ROW 1D : ... .. . ... ... : ... .. . ... : ... .. . ... : ... .. . ... : ... .. . ...
ROW 1E : ... .. . ... ... : ... .. . ... : ... .. . ... : ... .. . ... : ... .. . ...
ROW 1F : ... .. . ... ... : ... .. . ... : ... .. . ... : ... .. . ... : ... .. . ...
ROW 20 : ... .. . ... ... : ... .. . ... : ... .. . ... : ... .. . ... : ... .. . ...
ROW 21 : ... .. . ... ... : ... .. . ... : ... .. . ... : ... .. . ... : ... .. . ...
ROW 22 : ... .. . ... ... : ... .. . ... : ... .. . ... : ... .. . ... : ... .. . ...
ROW 23 : ... .. . ... ... : ... .. . ... : ... .. . ... : ... .. . ... : ... .. . ...
ROW 24 : ... .. . V03 ... : ... .. . ... : ... .. . ... : ... .. . ... : ... .. . ...
ROW 25 : ... .. . ... ... : ... .. . ... : ... .. . ... : ... .. . ... : ... .. . ...
ROW 26 : ... .. . ... ... : ... .. . ... : ... .. . ... : ... .. . ... : ... .. . ...
ROW 27 : ... .. . ... ... : ... .. . ... : ... .. . ... : ... .. . ... : ... .. . ...
ROW 28 : ... .. . ... ... : ... .. . ... : ... .. . ... : ... .. . ... : ... .. . ...
ROW 29 : ... .. . ... ... : ... .. . ... : ... .. . ... : ... .. . ... : ... .. . ...
ROW 2A : ... .. . ... ... : ... .. . ... : ... .. . ... : ... .. . ... : ... .. . ...
ROW 2B : ... .. . ... ... : ... .. . ... : ... .. . ... : ... .. . ... : ... .. . ...
ROW 2C : ... .. . ... ... : ... .. . ... : ... .. . ... : ... .. . ... : ... .. . ...
ROW 2D : ... .. . ... ... : ... .. . ... : ... .. . ... : ... .. . ... : ... .. . ...
ROW 2E : ... .. . ... ... : ... .. . ... : ... .. . ... : ... .. . ... : ... .. . ...
ROW 2F : ... .. . ... ... : ... .. . ... : ... .. . ... : ... .. . ... : ... .. . ...
ROW 30 : D-4 00 7 V00 ... : ... .. . ... : ... .. . ... : ... .. 2 ... : ... .. . ...
ROW 31 : ... .. . ... ... : ... .. . ... : ... .. . ... : ... .. . ... : ... .. . ...
ROW 32 : ... .. . ... ... : ... .. . ... : ... .. . ... : ... .. . ... : ... .. . ...
ROW 33 : ... .. . ... ... : ... .. . ... : ... .. . ... : ... .. . ... : ... .. . ...
ROW 34 : ... .. . ... ... : ... .. . ... : ... .. . ... : ... .. . ... : ... .. . ...
ROW 35 : ... .. . ... ... : ... .. . ... : ... .. . ... : ... .. . ... : ... .. . ...
ROW 36 : ... .. . ... ... : ... .. . ... : ... .. . ... : ... .. . ... : ... .. . ...
ROW 37 : ... .. . ... ... : ... .. . ... : ... .. . ... : ... .. . ... : ... .. . ...
ROW 38 : ... .. 5 ... ... : ... .. . ... : ... .. . ... : ... .. . ... : ... .. . ...
ROW 39 : ... .. . ... ... : ... .. . ... : ... .. . ... : ... .. . ... : ... .. . ...
ROW 3A : ... .. . ... ... : ... .. . ... : ... .. . ... : ... .. . ... : ... .. . ...
ROW 3B : ... .. . ... ... : ... .. . ... : ... .. . ... : ... .. . ... : ... .. . ...
ROW 3C : ... .. 3 V01 ... : ... .. . ... : ... .. . ... : ... .. 3 ... : ... .. . ...
ROW 3D : ... .. . ... ... : ... .. . ... : ... .. . ... : ... .. . ... : ... .. . ...
ROW 3E : ... .. . ... ... : ... .. . ... : ... .. . ... : ... .. . ... : ... .. . ...
ROW 3F : ... .. . ... ... : ... .. . ... : ... .. . ... : ... .. . ... : ... .. . ...
ROW 40 : ... .. . ... ... : ... .. . ... : ... .. . ... : ... .. . ... : ... .. . ...
ROW 41 : ... .. . ... ... : ... .. . ... : ... .. . ... : ... .. . ... : ... .. . ...
ROW 42 : ... .. . ... ... : ... .. . ... : ... .. . ... : ... .. . ... : ... .. . ...
ROW 43 : ... .. . ... ... : ... .. . ... : ... .. . ... : ... .. . ... : ... .. . ...
ROW 44 : ... .. . ... ... : ... .. . ... : ... .. . ... : ... .. . ... : ... .. . ...
ROW 45 : ... .. . ... ... : ... .. . ... : ... .. . ... : ... .. . ... : ... .. . ...
ROW 46 : ... .. . ... ... : ... .. . ... : ... .. . ... : ... .. . ... : ... .. . ...
ROW 47 : ... .. . ... ... : ... .. . ... : ... .. . ... : ... .. . ... : ... .. . ...
ROW 48 : ... .. 4 V02 ... : ... .. . ... : ... .. . ... : ... .. 4 ... : ... .. . ...
ROW 49 : ... .. . ... ... : ... .. . ... : ... .. . ... : ... .. . ... : ... .. . ...
ROW 4A : ... .. . ... ... : ... .. . ... : ... .. . ... : ... .. . ... : ... .. . ...
ROW 4B : ... .. . ... ... : ... .. . ... : ... .. . ... : ... .. . ... : ... .. . ...
ROW 4C : ... .. . ... ... : ... .. . ... : ... .. . ... : ... .. . ... : ... .. . ...
ROW 4D : ... .. . ... ... : ... .. . ... : ... .. . ... : ... .. . ... : ... .. . ...
ROW 4E : ... .. . ... ... : ... .. . ... : ... .. . ... : ... .. . ... : ... .. . ...
ROW 4F : ... .. . ... ... : ... .. . ... : ... .. . ... : ... .. . ... : ... .. . ...
ROW 50 : ... .. . ... ... : ... .. . ... : ... .. . ... : ... .. . ... : ... .. . ...
ROW 51 : ... .. 4 ... ... : ... .. . ... : ... .. . ... : ... .. . ... : ... .. . ...
ROW 52 : ... .. 5 ... ... : ... .. . ... : ... .. . ... : ... .. . ... : ... .. . ...
ROW 53 : ... .. . ... ... : ... .. . ... : ... .. . ... : ... .. . ... : ... .. . ...
ROW 54 : ... .. 6 V00 ... : ... .. . ... : ... .. . ... : ... .. . ... : ... .. . ...
ROW 55 : ... .. . ... ... : ... .. . ... : ... .. . ... : ... .. . ... : ... .. . ...
ROW 56 : ... .. . ... ... : ... .. . ... : ... .. . ... : ... .. . ... : ... .. . ...
ROW 57 : ... .. 5 ... ... : ... .. . ... : ... .. . ... : ... .. . ... : ... .. . ...
ROW 58 : ... .. . ... ... : ... .. . ... : ... .. . ... : ... .. . ... : ... .. . ...
ROW 59 : ... .. . ... ... : ... .. . ... : ... .. . ... : ... .. . ... : ... .. . ...
ROW 5A : ... .. . ... ... : ... .. . ... : ... .. . ... : ... .. . ... : ... .. . ...
ROW 5B : ... .. 4 ... ... : ... .. . ... : ... .. . ... : ... .. . ... : ... .. . ...
ROW 5C : ... .. . ... ... : ... .. . ... : ... .. . ... : ... .. . ... : ... .. . ...
ROW 5D : ... .. . ... ... : ... .. . ... : ... .. . ... : ... .. . ... : ... .. . ...
ROW 5E : ... .. . ... ... : ... .. . ... : ... .. . ... : ... .. . ... : ... .. . ...
ROW 5F : ... .. 3 ... ... : ... .. . ... : ... .. . ... : ... .. . ... : ... .. . ...
ROW 60 : ... .. . V01 ... : ... .. . ... : ... .. . ... : ... .. 3 ... : ... .. . ...
ROW 61 : ... .. . ... ... : ... .. . ... : ... .. . ... : ... .. . ... : ... .. . ...
ROW 62 : ... .. . ... ... : ... .. . ... : ... .. . ... : ... .. . ... : ... .. . ...
ROW 63 : ... .. . ... ... : ... .. . ... : ... .. . ... : ... .. . ... : ... .. . ...
ROW 64 : ... .. . ... ... : ... .. . ... : ... .. . ... : ... .. . ... : ... .. . ...
ROW 65 : ... .. 2 ... ... : ... .. . ... : ... .. . ... : ... .. . ... : ... .. . ...
ROW 66 : ... .. . ... ... : ... .. . ... : ... .. . ... : ... .. . ... : ... .. . ...
ROW 67 : ... .. . ... ... : ... .. . ... : ... .. . ... : ... .. . ... : ... .. . ...
ROW 68 : ... .. . ... ... : ... .. . ... : ... .. . ... : ... .. . ... : ... .. . ...
ROW 69 : ... .. . ... ... : ... .. . ... : ... .. . ... : ... .. . ... : ... .. . ...
ROW 6A : ... .. . ... ... : ... .. . ... : ... .. . ... : ... .. . ... : ... .. . ...
ROW 6B : ... .. . ... ... : ... .. . ... : ... .. . ... : ... .. . ... : ... .. . ...
ROW 6C : ... .. . V02 ... : ... .. . ... : ... .. . ... : ... .. 2 ... : ... .. . ...
ROW 6D : ... .. . ... ... : ... .. . ... : ... .. . ... : ... .. . ... : ... .. . ...
ROW 6E : ... .. . ... ... : ... .. . ... : ... .. . ... : ... .. . ... : ... .. . ...
ROW 6F : ... .. . ... ... : ... .. . ... : ... .. . ... : ... .. . ... : ... .. . ...
ROW 70 : ... .. . ... ... : ... .. . ... : ... .. . ... : ... .. . ... : ... .. . ...
ROW 71 : ... .. . ... ... : ... .. . ... : ... .. . ... : ... .. . ... : ... .. . ...
ROW 72 : ... .. . ... ... : ... .. . ... : ... .. . ... : ... .. 1 ... : ... .. . ...
ROW 73 : ... .. . ... ... : ... .. . ... : ... .. . ... : ... .. . ... : ... .. . ...
ROW 74 : ... .. . ... ... : ... .. . ... : ... .. . ... : ... .. . ... : ... .. . ...
ROW 75 : ... .. . ... ... : ... .. . ... : ... .. . ... : ... .. . ... : ... .. . ...
ROW 76 : ... .. . ... ... : ... .. . ... : ... .. . ... : ... .. . ... : ... .. . ...
ROW 77 : ... .. . ... ... : ... .. . ... : ... .. . ... : ... .. . ... : ... .. . ...
ROW 78 : A-3 00 7 V03 ... : ... .. . ... : ... .. . ... : ... .. . ... : ... .. . ...
ROW 79 : ... .. . ... ... : ... .. . ... : ... .. . ... : ... .. . ... : ... .. . ...
ROW 7A : ... .. . ... ... : ... .. . ... : ... .. . ... : ... .. . ... : ... .. . ...
ROW 7B : ... .. . ... ... : ... .. . ... : ... .. . ... : ... .. . ... : ... .. . ...
ROW 7C : ... .. . ... ... : ... .. . ... : ... .. . ... : ... .. . ... : ... .. . ...
ROW 7D : ... .. . ... ... : ... .. . ... : ... .. . ... : ... .. . ... : ... .. . ...
ROW 7E : ... .. . ... ... : ... .. . ... : ... .. . ... : ... .. . ... : ... .. . ...
ROW 7F : ... .. . ... ... : ... .. . ... : ... .. . ... : ... .. . ... : ... .. . ...
ROW 80 : ... .. 5 ... ... : ... .. . ... : ... .. . ... : ... .. . ... : ... .. . ...
ROW 81 : ... .. . ... ... : ... .. . ... : ... .. . ... : ... .. . ... : ... .. . ...
ROW 82 : ... .. . ... ... : ... .. . ... : ... .. . ... : ... .. . ... : ... .. . ...
ROW 83 : ... .. . ... ... : ... .. . ... : ... .. . ... : ... .. . ... : ... .. . ...
ROW 84 : ... .. 4 V02 ... : ... .. . ... : ... .. . ... : ... .. 2 ... : ... .. . ...
ROW 85 : ... .. . ... ... : ... .. . ... : ... .. . ... : ... .. . ... : ... .. . ...
ROW 86 : ... .. . ... ... : ... .. . ... : ... .. . ... : ... .. . ... : ... .. . ...
ROW 87 : ... .. . ... ... : ... .. . ... : ... .. . ... : ... .. . ... : ... .. . ...
ROW 88 : ... .. . ... ... : ... .. . ... : ... .. . ... : ... .. . ... : ... .. . ...
ROW 89 : ... .. . ... ... : ... .. . ... : ... .. . ... : ... .. . ... : ... .. . ...
ROW 8A : ... .. . ... ... : ... .. . ... : ... .. . ... : ... .. . ... : ... .. . ...
ROW 8B : ... .. . ... ... : ... .. . ... : ... .. . ... : ... .. . ... : ... .. . ...
ROW 8C : ... .. . ... ... : ... .. . ... : ... .. . ... : ... .. . ... : ... .. . ...
ROW 8D : ... .. . ... ... : ... .. . ... : ... .. . ... : ... .. . ... : ... .. . ...
ROW 8E : ... .. . ... ... : ... .. . ... : ... .. . ... : ... .. . ... : ... .. . ...
ROW 8F : ... .. . ... ... : ... .. . ... : ... .. . ... : ... .. . ... : ... .. . ...
ROW 90 : D-4 00 7 V00 ... : ... .. . ... : ... .. . ... : ... .. 3 ... : ... .. . ...
ROW 91 : ... .. . ... ... : ... .. . ... : ... .. . ... : ... .. . ... : ... .. . ...
ROW 92 : ... .. . ... ... : ... .. . ... : ... .. . ... : ... .. . ... : ... .. . ...
ROW 93 : ... .. . ... ... : ... .. . ... : ... .. . ... : ... .. . ... : ... .. . ...
ROW 94 : ... .. . ... ... : ... .. . ... : ... .. . ... : ... .. . ... : ... .. . ...
ROW 95 : ... .. . ... ... : ... .. . ... : ... .. . ... : ... .. . ... : ... .. . ...
ROW 96 : ... .. . ... ... : ... .. . ... : ... .. . ... : ... .. . ... : ... .. . ...
ROW 97 : ... .. . ... ... : ... .. . ... : ... .. . ... : ... .. . ... : ... .. . ...
ROW 98 : ... .. 5 ... ... : ... .. . ... : ... .. . ... : ... .. . ... : ... .. . ...
ROW 99 : ... .. . ... ... : ... .. . ... : ... .. . ... : ... .. . ... : ... .. . ...
ROW 9A : ... .. . ... ... : ... .. . ... : ... .. . ... : ... .. . ... : ... .. . ...
ROW 9B : ... .. . ... ... : ... .. . ... : ... .. . ... : ... .. . ... : ... .. . ...
ROW 9C : ... .. 4 V01 ... : ... .. . ... : ... .. . ... : ... .. 2 ... : ... .. . ...
ROW 9D : ... .. . ... ... : ... .. . ... : ... .. . ... : ... .. . ... : ... .. . ...
ROW 9E : ... .. . ... ... : ... .. . ... : ... .. . ... : ... .. . ... : ... .. . ...
ROW 9F : ... .. . ... ... : ... .. . ... : ... .. . ... : ... .. . ... : ... .. . ...
ROW A0 : ... .. 3 ... ... : ... .. . ... : ... .. . ... : ... .. . ... : ... .. . ...
ROW A1 : ... .. . ... ... : ... .. . ... : ... .. . ... : ... .. . ... : ... .. . ...
ROW A2 : ... .. . ... ... : ... .. . ... : ... .. . ... : ... .. . ... : ... .. . ...
ROW A3 : ... .. . ... ... : ... .. . ... : ... .. . ... : ... .. . ... : ... .. . ...
ROW A4 : ... .. . ... ... : ... .. . ... : ... .. . ... : ... .. . ... : ... .. . ...
ROW A5 : ... .. . ... ... : ... .. . ... : ... .. . ... : ... .. . ... : ... .. . ...
ROW A6 : ... .. . ... ... : ... .. . ... : ... .. . ... : ... .. . ... : ... .. . ...
ROW A7 : ... .. . ... ... : ... .. . ... : ... .. . ... : ... .. . ... : ... .. . ...
ROW A8 : C-4 00 7 V00 ... : ... .. . ... : ... .. . ... : ... .. 1 ... : ... .. . ...
ROW A9 : ... .. . ... ... : ... .. . ... : ... .. . ... : ... .. . ... : ... .. . ...
ROW AA : ... .. . ... ... : ... .. . ... : ... .. . ... : ... .. . ... : ... .. . ...
ROW AB : ... .. . ... ... : ... .. . ... : ... .. . ... : ... .. . ... : ... .. . ...
ROW AC : ... .. . ... ... : ... .. . ... : ... .. . ... : ... .. . ... : ... .. . ...
ROW AD : ... .. . ... ... : ... .. . ... : ... .. . ... : ... .. . ... : ... .. . ...
ROW AE : ... .. . ... ... : ... .. . ... : ... .. . ... : ... .. . ... : ... .. . ...
ROW AF : ... .. . ... ... : ... .. . ... : ... .. . ... : ... .. . ... : ... .. . ...
ROW B0 : ... .. . ... ... : ... .. . ... : ... .. . ... : ... .. . ... : ... .. . ...
ROW B1 : ... .. 6 ... ... : ... .. . ... : ... .. . ... : ... .. . ... : ... .. . ...
ROW B2 : ... .. . ... ... : ... .. . ... : ... .. . ... : ... .. . ... : ... .. . ...
ROW B3 : ... .. . ... ... : ... .. . ... : ... .. . ... : ... .. . ... : ... .. . ...
ROW B4 : B-3 00 4 V02 ... : ... .. . ... : ... .. . ... : ... .. 2 ... : ... .. . ...
ROW B5 : ... .. . ... ... : ... .. . ... : ... .. . ... : ... .. . ... : ... .. . ...
ROW B6 : ... .. . ... ... : ... .. . ... : ... .. . ... : ... .. . ... : ... .. . ...
ROW B7 : ... .. . ... ... : ... .. . ... : ... .. . ... : ... .. . ... : ... .. . ...
ROW B8 : ... .. . ... ... : ... .. . ... : ... .. . ... : ... .. . ... : ... .. . ...
ROW B9 : ... .. . ... ... : ... .. . ... : ... .. . ... : ... .. . ... : ... .. . ...
ROW BA : ... .. 3 ... ... : ... .. . ... : ... .. . ... : ... .. . ... : ... .. . ...
ROW BB : ... .. . ... ... : ... .. . ... : ... .. . ... : ... .. . ... : ... .. . ...
ROW BC : ... .. . ... ... : ... .. . ... : ... .. . ... : ... .. . ... : ... .. . ...
ROW BD : ... .. . ... ... : ... .. . ... : ... .. . ... : ... .. . ... : ... .. . ...
ROW BE : ... .. . ... ... : ... .. . ... : ... .. . ... : ... .. . ... : ... .. . ...
ROW BF : ... .. . ... ... : ... .. . ... : ... .. . ... : ... .. . ... : ... .. . ...
ROW C0 : ... .. . ... ... : ... .. . ... : ... .. . ... : ... .. . ... : ... .. . ...
ROW C1 : ... .. . ... ... : ... .. . ... : ... .. . ... : ... .. . ... : ... .. . ...
ROW C2 : ... .. . ... ... : ... .. . ... : ... .. . ... : ... .. . ... : ... .. . ...
ROW C3 : ... .. . ... ... : ... .. . ... : ... .. . ... : ... .. . ... : ... .. . ...
ROW C4 : ... .. . ... ... : ... .. . ... : ... .. . ... : ... .. . ... : ... .. . ...
ROW C5 : ... .. . ... ... : ... .. . ... : ... .. . ... : ... .. . ... : ... .. . ...
ROW C6 : ... .. . ... ... : ... .. . ... : ... .. . ... : ... .. . ... : ... .. . ...
ROW C7 : ... .. . ... ... : ... .. . ... : ... .. . ... : ... .. . ... : ... .. . ...
ROW C8 : ... .. . ... ... : ... .. . ... : ... .. . ... : ... .. . ... : ... .. . ...
ROW C9 : ... .. . ... ... : ... .. . ... : ... .. . ... : ... .. . ... : ... .. . ...
ROW CA : ... .. . ... ... : ... .. . ... : ... .. . ... : ... .. . ... : ... .. . ...
ROW CB : ... .. . ... ... : ... .. . ... : ... .. . ... : ... .. . ... : ... .. . ...
ROW CC : ... .. . ... ... : ... .. . ... : ... .. . ... : ... .. . ... : ... .. . ...
ROW CD : ... .. . ... ... : ... .. . ... : ... .. . ... : ... .. . ... : ... .. . ...
ROW CE : ... .. . ... ... : ... .. . ... : ... .. . ... : ... .. . ... : ... .. . ...
ROW CF : ... .. . ... ... : ... .. . ... : ... .. . ... : ... .. . ... : ... .. . ...
ROW D0 : ... .. . ... ... : ... .. . ... : ... .. . ... : ... .. . ... : ... .. . ...
ROW D1 : ... .. . ... ... : ... .. . ... : ... .. . ... : ... .. . ... : ... .. . ...
ROW D2 : ... .. . ... ... : ... .. . ... : ... .. . ... : ... .. . ... : ... .. . ...
ROW D3 : ... .. . ... ... : ... .. . ... : ... .. . ... : ... .. . ... : ... .. . ...
ROW D4 : ... .. . ... ... : ... .. . ... : ... .. . ... : ... .. . ... : ... .. . ...
ROW D5 : ... .. . ... ... : ... .. . ... : ... .. . ... : ... .. . ... : ... .. . ...
ROW D6 : ... .. . ... ... : ... .. . ... : ... .. . ... : ... .. . ... : ... .. . ...
ROW D7 : ... .. . ... ... : ... .. . ... : ... .. . ... : ... .. . ... : ... .. . ...
ROW D8 : ... .. . ... ... : ... .. . ... : ... .. . ... : ... .. . ... : ... .. . ...
ROW D9 : ... .. . ... ... : ... .. . ... : ... .. . ... : ... .. . ... : ... .. . ...
ROW DA : ... .. . ... ... : ... .. . ... : ... .. . ... : ... .. . ... : ... .. . ...
ROW DB : ... .. . ... ... : ... .. . ... : ... .. . ... : ... .. . ... : ... .. . ...
ROW DC : ... .. . ... ... : ... .. . ... : ... .. . ... : ... .. . ... : ... .. . ...
ROW DD : ... .. . ... ... : ... .. . ... : ... .. . ... : ... .. . ... : ... .. . ...
ROW DE : ... .. . ... ... : ... .. . ... : ... .. . ... : ... .. . ... : ... .. . ...
ROW DF : ... .. . ... ... : ... .. . ... : ... .. . ... : ... .. . ... : ... .. . ...
ROW E0 : ... .. . ... ... : ... .. . ... : ... .. . ... : ... .. . ... : ... .. . ...
ROW E1 : ... .. . ... ... : ... .. . ... : ... .. . ... : ... .. . ... : ... .. . ...
ROW E2 : ... .. . ... ... : ... .. . ... : ... .. . ... : ... .. . ... : ... .. . ...
ROW E3 : ... .. . ... ... : ... .. . ... : ... .. . ... : ... .. . ... : ... .. . ...
ROW E4 : ... .. . ... ... : ... .. . ... : ... .. . ... : ... .. . ... : ... .. . ...
ROW E5 : ... .. . ... ... : ... .. . ... : ... .. . ... : ... .. . ... : ... .. . ...
ROW E6 : ... .. . ... ... : ... .. . ... : ... .. . ... : ... .. . ... : ... .. . ...
ROW E7 : ... .. . ... ... : ... .. . ... : ... .. . ... : ... .. . ... : ... .. . ...
ROW E8 : ... .. . ... ... : ... .. . ... : ... .. . ... : ... .. . ... : ... .. . ...
ROW E9 : ... .. . ... ... : ... .. . ... : ... .. . ... : ... .. . ... : ... .. . ...
ROW EA : ... .. . ... ... : ... .. . ... : ... .. . ... : ... .. . ... : ... .. . ...
ROW EB : ... .. . ... ... : ... .. . ... : ... .. . ... : ... .. . ... : ... .. . ...
ROW EC : ... .. . ... ... : ... .. . ... : ... .. . ... : ... .. . ... : ... .. . ...
ROW ED : ... .. . ... ... : ... .. . ... : ... .. . ... : ... .. . ... : ... .. . ...
ROW EE : ... .. . ... ... : ... .. . ... : ... .. . ... : ... .. . ... : ... .. . ...
ROW EF : ... .. . ... ... : ... .. . ... : ... .. . ... : ... .. . ... : ... .. . ...
ROW F0 : ... .. . ... ... : ... .. . ... : ... .. . ... : ... .. . ... : ... .. . ...
ROW F1 : ... .. . ... ... : ... .. . ... : ... .. . ... : ... .. . ... : ... .. . ...
ROW F2 : ... .. . ... ... : ... .. . ... : ... .. . ... : ... .. . ... : ... .. . ...
ROW F3 : ... .. . ... ... : ... .. . ... : ... .. . ... : ... .. . ... : ... .. . ...
ROW F4 : ... .. . ... ... : ... .. . ... : ... .. . ... : ... .. . ... : ... .. . ...
ROW F5 : ... .. . ... ... : ... .. . ... : ... .. . ... : ... .. . ... : ... .. . ...
ROW F6 : ... .. . ... ... : ... .. . ... : ... .. . ... : ... .. . ... : ... .. . ...
ROW F7 : ... .. . ... ... : ... .. . ... : ... .. . ... : ... .. . ... : ... .. . ...
ROW F8 : ... .. . ... ... : ... .. . ... : ... .. . ... : ... .. . ... : ... .. . ...
ROW F9 : ... .. . ... ... : ... .. . ... : ... .. . ... : ... .. . ... : ... .. . ...
ROW FA : ... .. . ... ... : ... .. . ... : ... .. . ... : ... .. . ... : ... .. . ...
ROW FB : ... .. . ... ... : ... .. . ... : ... .. . ... : ... .. . ... : ... .. . ...
ROW FC : ... .. . ... ... : ... .. . ... : ... .. . ... : ... .. . ... : ... .. . ...
ROW FD : ... .. . ... ... : ... .. . ... : ... .. . ... : ... .. . ... : ... .. . ...
ROW FE : ... .. . ... ... : ... .. . ... : ... .. . ... : ... .. . ... : ... .. . ...
ROW FF : ... .. . ... ... : ... .. . ... : ... .. . ... : ... .. . ... : ... .. . ...

PATTERN 07
ROW 00 : C-4 00 5 V00 ... : ... .. . ... : ... .. . ... : ... .. . ... : ... .. . ...
ROW 01 : ... .. . ... ... : ... .. . ... : ... .. . ... : ... .. . ... : ... .. . ...
ROW 02 : ... .. . ... ... : ... .. . ... : ... .. . ... : ... .. . ... : ... .. . ...
ROW 03 : ... .. . ... ... : ... .. . ... : ... .. . ... : ... .. . ... : ... .. . ...
ROW 04 : ... .. . ... ... : ... .. . ... : ... .. . ... : ... .. . ... : ... .. . ...
ROW 05 : ... .. . ... ... : ... .. . ... : ... .. . ... : ... .. . ... : ... .. . ...
ROW 06 : ... .. . ... ... : ... .. . ... : ... .. . ... : ... .. . ... : ... .. . ...
ROW 07 : ... .. . ... ... : ... .. . ... : ... .. . ... : ... .. . ... : ... .. . ...
ROW 08 : ... .. . ... ... : ... .. . ... : ... .. . ... : ... .. . ... : ... .. . ...
ROW 09 : ... .. 4 ... ... : ... .. . ... : ... .. . ... : ... .. . ... : ... .. . ...
ROW 0A : ... .. . ... ... : ... .. . ... : ... .. . ... : ... .. . ... : ... .. . ...
ROW 0B : ... .. . ... ... : ... .. . ... : ... .. . ... : ... .. . ... : ... .. . ...
ROW 0C : B-3 00 3 V01 ... : ... .. . ... : ... .. . ... : ... .. . ... : ... .. . ...
ROW 0D : ... .. . ... ... : ... .. . ... : ... .. . ... : ... .. . ... : ... .. . ...
ROW 0E : ... .. . ... ... : ... .. . ... : ... .. . ... : ... .. . ... : ... .. . ...
ROW 0F : ... .. . ... ... : ... .. . ... : ... .. . ... : ... .. . ... : ... .. . ...
ROW 10 : ... .. . ... ... : ... .. . ... : ... .. . ... : ... .. . ... : ... .. . ...
ROW 11 : ... .. . ... ... : ... .. . ... : ... .. . ... : ... .. . ... : ... .. . ...
ROW 12 : ... .. . ... ... : ... .. . ... : ... .. . ... : ... .. . ... : ... .. . ...
ROW 13 : ... .. . ... ... : ... .. . ... : ... .. . ... : ... .. . ... : ... .. . ...
ROW 14 : ... .. . ... ... : ... .. . ... : ... .. . ... : ... .. . ... : ... .. . ...
ROW 15 : ... .. 2 ... ... : ... .. . ... : ... .. . ... : ... .. . ... : ... .. . ...
ROW 16 : ... .. . ... ... : ... .. . ... : ... .. . ... : ... .. . ... : ... .. . ...
ROW 17 : ... .. . ... ... : ... .. . ... : ... .. . ... : ... .. . ... : ... .. . ...
ROW 18 : G-3 00 1 V02 ... : ... .. . ... : ... .. . ... : ... .. . ... : ... .. . ...
ROW 19 : ... .. . ... ... : ... .. . ... : ... .. . ... : ... .. . ... : ... .. . ...
ROW 1A : ... .. . ... ... : ... .. . ... : ... .. . ... : ... .. . ... : ... .. . ...
ROW 1B : ... .. . ... ... : ... .. . ... : ... .. . ... : ... .. . ... : ... .. . ...
ROW 1C : ... .. . ... ... : ... .. . ... : ... .. . ... : ... .. . ... : ... .. . ...
ROW 1D : ... .. . ... ... : ... .. . ... : ... .. . ... : ... .. . ... : ... .. . ...
ROW 1E : ... .. . ... ... : ... .. . ... : ... .. . ... : ... .. . ... : ... .. . ...
ROW 1F : ... .. . ... ... : ... .. . ... : ... .. . ... : ... .. . ... : ... .. . ...
ROW 20 : ... .. . ... ... : ... .. . ... : ... .. . ... : ... .. . ... : ... .. . ...
ROW 21 : ... .. . ... ... : ... .. . ... : ... .. . ... : ... .. . ... : ... .. . ...
ROW 22 : ... .. . ... ... : ... .. . ... : ... .. . ... : ... .. . ... : ... .. . ...
ROW 23 : ... .. . ... ... : ... .. . ... : ... .. . ... : ... .. . ... : ... .. . ...
ROW 24 : ... .. . V03 ... : ... .. . ... : ... .. . ... : ... .. . ... : ... .. . ...
ROW 25 : ... .. . ... ... : ... .. . ... : ... .. . ... : ... .. . ... : ... .. . ...
ROW 26 : ... .. . ... ... : ... .. . ... : ... .. . ... : ... .. . ... : ... .. . ...
ROW 27 : ... .. . ... ... : ... .. . ... : ... .. . ... : ... .. . ... : ... .. . ...
ROW 28 : ... .. . ... ... : ... .. . ... : ... .. . ... : ... .. . ... : ... .. . ...
ROW 29 : ... .. . ... ... : ... .. . ... : ... .. . ... : ... .. . ... : ... .. . ...
ROW 2A : ... .. . ... ... : ... .. . ... : ... .. . ... : ... .. . ... : ... .. . ...
ROW 2B : ... .. . ... ... : ... .. . ... : ... .. . ... : ... .. . ... : ... .. . ...
ROW 2C : ... .. . ... ... : ... .. . ... : ... .. . ... : ... .. . ... : ... .. . ...
ROW 2D : ... .. . ... ... : ... .. . ... : ... .. . ... : ... .. . ... : ... .. . ...
ROW 2E : ... .. . ... ... : ... .. . ... : ... .. . ... : ... .. . ... : ... .. . ...
ROW 2F : ... .. . ... ... : ... .. . ... : ... .. . ... : ... .. . ... : ... .. . ...
ROW 30 : C-4 00 7 V00 ... : ... .. . ... : ... .. . ... : ... .. . ... : ... .. . ...
ROW 31 : ... .. . ... ... : ... .. . ... : ... .. . ... : ... .. . ... : ... .. . ...
ROW 32 : ... .. . ... ... : ... .. . ... : ... .. . ... : ... .. . ... : ... .. . ...
ROW 33 : ... .. . ... ... : ... .. . ... : ... .. . ... : ... .. . ... : ... .. . ...
ROW 34 : ... .. . ... ... : ... .. . ... : ... .. . ... : ... .. . ... : ... .. . ...
ROW 35 : ... .. . ... ... : ... .. . ... : ... .. . ... : ... .. . ... : ... .. . ...
ROW 36 : ... .. . ... ... : ... .. . ... : ... .. . ... : ... .. . ... : ... .. . ...
ROW 37 : ... .. . ... ... : ... .. . ... : ... .. . ... : ... .. . ... : ... .. . ...
ROW 38 : ... .. 5 ... ... : ... .. . ... : ... .. . ... : ... .. . ... : ... .. . ...
ROW 39 : ... .. . ... ... : ... .. . ... : ... .. . ... : ... .. . ... : ... .. . ...
ROW 3A : ... .. . ... ... : ... .. . ... : ... .. . ... : ... .. . ... : ... .. . ...
ROW 3B : ... .. . ... ... : ... .. . ... : ... .. . ... : ... .. . ... : ... .. . ...
ROW 3C : ... .. 3 V01 ... : ... .. . ... : ... .. . ... : ... .. . ... : ... .. . ...
ROW 3D : ... .. . ... ... : ... .. . ... : ... .. . ... : ... .. . ... : ... .. . ...
ROW 3E : ... .. . ... ... : ... .. . ... : ... .. . ... : ... .. . ... : ... .. . ...
ROW 3F : ... .. . ... ... : ... .. . ... : ... .. . ... : ... .. . ... : ... .. . ...
ROW 40 : ... .. . ... ... : ... .. . ... : ... .. . ... : ... .. . ... : ... .. . ...
ROW 41 : ... .. . ... ... : ... .. . ... : ... .. . ... : ... .. . ... : ... .. . ...
ROW 42 : ... .. . ... ... : ... .. . ... : ... .. . ... : ... .. . ... : ... .. . ...
ROW 43 : ... .. . ... ... : ... .. . ... : ... .. . ... : ... .. . ... : ... .. . ...
ROW 44 : ... .. . ... ... : ... .. . ... : ... .. . ... : ... .. . ... : ... .. . ...
ROW 45 : ... .. . ... ... : ... .. . ... : ... .. . ... : ... .. . ... : ... .. . ...
ROW 46 : ... .. . ... ... : ... .. . ... : ... .. . ... : ... .. . ... : ... .. . ...
ROW 47 : ... .. . ... ... : ... .. . ... : ... .. . ... : ... .. . ... : ... .. . ...
ROW 48 : ... .. 4 V02 ... : ... .. . ... : ... .. . ... : ... .. . ... : ... .. . ...
ROW 49 : ... .. . ... ... : ... .. . ... : ... .. . ... : ... .. . ... : ... .. . ...
ROW 4A : ... .. . ... ... : ... .. . ... : ... .. . ... : ... .. . ... : ... .. . ...
ROW 4B : ... .. . ... ... : ... .. . ... : ... .. . ... : ... .. . ... : ... .. . ...
ROW 4C : ... .. . ... ... : ... .. . ... : ... .. . ... : ... .. . ... : ... .. . ...
ROW 4D : ... .. . ... ... : ... .. . ... : ... .. . ... : ... .. . ... : ... .. . ...
ROW 4E : ... .. . ... ... : ... .. . ... : ... .. . ... : ... .. . ... : ... .. . ...
ROW 4F : ... .. . ... ... : ... .. . ... : ... .. . ... : ... .. . ... : ... .. . ...
ROW 50 : ... .. . ... ... : ... .. . ... : ... .. . ... : ... .. . ... : ... .. . ...
ROW 51 : ... .. 4 ... ... : ... .. . ... : ... .. . ... : ... .. . ... : ... .. . ...
ROW 52 : ... .. 5 ... ... : ... .. . ... : ... .. . ... : ... .. . ... : ... .. . ...
ROW 53 : ... .. . ... ... : ... .. . ... : ... .. . ... : ... .. . ... : ... .. . ...
ROW 54 : ... .. 6 V03 ... : ... .. . ... : ... .. . ... : ... .. . ... : ... .. . ...
ROW 55 : ... .. . ... ... : ... .. . ... : ... .. . ... : ... .. . ... : ... .. . ...
ROW 56 : ... .. . ... ... : ... .. . ... : ... .. . ... : ... .. . ... : ... .. . ...
ROW 57 : ... .. 5 ... ... : ... .. . ... : ... .. . ... : ... .. . ... : ... .. . ...
ROW 58 : ... .. . ... ... : ... .. . ... : ... .. . ... : ... .. . ... : ... .. . ...
ROW 59 : ... .. . ... ... : ... .. . ... : ... .. . ... : ... .. . ... : ... .. . ...
ROW 5A : ... .. . ... ... : ... .. . ... : ... .. . ... : ... .. . ... : ... .. . ...
ROW 5B : ... .. 4 ... ... : ... .. . ... : ... .. . ... : ... .. . ... : ... .. . ...
ROW 5C : ... .. . ... ... : ... .. . ... : ... .. . ... : ... .. . ... : ... .. . ...
ROW 5D : ... .. . ... ... : ... .. . ... : ... .. . ... : ... .. . ... : ... .. . ...
ROW 5E : ... .. . ... ... : ... .. . ... : ... .. . ... : ... .. . ... : ... .. . ...
ROW 5F : ... .. 3 ... ... : ... .. . ... : ... .. . ... : ... .. . ... : ... .. . ...
ROW 60 : ... .. . V02 ... : ... .. . ... : ... .. . ... : ... .. . ... : ... .. . ...
ROW 61 : ... .. . ... ... : ... .. . ... : ... .. . ... : ... .. . ... : ... .. . ...
ROW 62 : ... .. . ... ... : ... .. . ... : ... .. . ... : ... .. . ... : ... .. . ...
ROW 63 : ... .. . ... ... : ... .. . ... : ... .. . ... : ... .. . ... : ... .. . ...
ROW 64 : ... .. . ... ... : ... .. . ... : ... .. . ... : ... .. . ... : ... .. . ...
ROW 65 : ... .. 2 ... ... : ... .. . ... : ... .. . ... : ... .. . ... : ... .. . ...
ROW 66 : ... .. . ... ... : ... .. . ... : ... .. . ... : ... .. . ... : ... .. . ...
ROW 67 : ... .. . ... ... : ... .. . ... : ... .. . ... : ... .. . ... : ... .. . ...
ROW 68 : ... .. . ... ... : ... .. . ... : ... .. . ... : ... .. . ... : ... .. . ...
ROW 69 : ... .. . ... ... : ... .. . ... : ... .. . ... : ... .. . ... : ... .. . ...
ROW 6A : ... .. . ... ... : ... .. . ... : ... .. . ... : ... .. . ... : ... .. . ...
ROW 6B : ... .. . ... ... : ... .. . ... : ... .. . ... : ... .. . ... : ... .. . ...
ROW 6C : ... .. . V01 ... : ... .. . ... : ... .. . ... : ... .. . ... : ... .. . ...
ROW 6D : ... .. . ... ... : ... .. . ... : ... .. . ... : ... .. . ... : ... .. . ...
ROW 6E : ... .. . ... ... : ... .. . ... : ... .. . ... : ... .. . ... : ... .. . ...
ROW 6F : ... .. . ... ... : ... .. . ... : ... .. . ... : ... .. . ... : ... .. . ...
ROW 70 : ... .. . ... ... : ... .. . ... : ... .. . ... : ... .. . ... : ... .. . ...
ROW 71 : ... .. . ... ... : ... .. . ... : ... .. . ... : ... .. . ... : ... .. . ...
ROW 72 : ... .. . ... ... : ... .. . ... : ... .. . ... : ... .. . ... : ... .. . ...
ROW 73 : ... .. . ... ... : ... .. . ... : ... .. . ... : ... .. . ... : ... .. . ...
ROW 74 : ... .. . ... ... : ... .. . ... : ... .. . ... : ... .. . ... : ... .. . ...
ROW 75 : ... .. . ... ... : ... .. . ... : ... .. . ... : ... .. . ... : ... .. . ...
ROW 76 : ... .. . ... ... : ... .. . ... : ... .. . ... : ... .. . ... : ... .. . ...
ROW 77 : ... .. . ... ... : ... .. . ... : ... .. . ... : ... .. . ... : ... .. . ...
ROW 78 : ... .. 7 V00 ... : ... .. . ... : ... .. . ... : ... .. . ... : ... .. . ...
ROW 79 : ... .. . ... ... : ... .. . ... : ... .. . ... : ... .. . ... : ... .. . ...
ROW 7A : ... .. . ... ... : ... .. . ... : ... .. . ... : ... .. . ... : ... .. . ...
ROW 7B : ... .. . ... ... : ... .. . ... : ... .. . ... : ... .. . ... : ... .. . ...
ROW 7C : ... .. . ... ... : ... .. . ... : ... .. . ... : ... .. . ... : ... .. . ...
ROW 7D : ... .. . ... ... : ... .. . ... : ... .. . ... : ... .. . ... : ... .. . ...
ROW 7E : ... .. . ... ... : ... .. . ... : ... .. . ... : ... .. . ... : ... .. . ...
ROW 7F : ... .. . ... ... : ... .. . ... : ... .. . ... : ... .. . ... : ... .. . ...
ROW 80 : ... .. 5 ... ... : ... .. . ... : ... .. . ... : ... .. . ... : ... .. . ...
ROW 81 : ... .. . ... ... : ... .. . ... : ... .. . ... : ... .. . ... : ... .. . ...
ROW 82 : ... .. . ... ... : ... .. . ... : ... .. . ... : ... .. . ... : ... .. . ...
ROW 83 : ... .. . ... ... : ... .. . ... : ... .. . ... : ... .. . ... : ... .. . ...
ROW 84 : ... .. 4 V01 ... : ... .. . ... : ... .. . ... : ... .. . ... : ... .. . ...
ROW 85 : ... .. . ... ... : ... .. . ... : ... .. . ... : ... .. . ... : ... .. . ...
ROW 86 : ... .. . ... ... : ... .. . ... : ... .. . ... : ... .. . ... : ... .. . ...
ROW 87 : ... .. . ... ... : ... .. . ... : ... .. . ... : ... .. . ... : ... .. . ...
ROW 88 : ... .. . ... ... : ... .. . ... : ... .. . ... : ... .. . ... : ... .. . ...
ROW 89 : ... .. . ... ... : ... .. . ... : ... .. . ... : ... .. . ... : ... .. . ...
ROW 8A : ... .. . ... ... : ... .. . ... : ... .. . ... : ... .. . ... : ... .. . ...
ROW 8B : ... .. . ... ... : ... .. . ... : ... .. . ... : ... .. . ... : ... .. . ...
ROW 8C : ... .. . ... ... : ... .. . ... : ... .. . ... : ... .. . ... : ... .. . ...
ROW 8D : ... .. . ... ... : ... .. . ... : ... .. . ... : ... .. . ... : ... .. . ...
ROW 8E : ... .. . ... ... : ... .. . ... : ... .. . ... : ... .. . ... : ... .. . ...
ROW 8F : ... .. . ... ... : ... .. . ... : ... .. . ... : ... .. . ... : ... .. . ...
ROW 90 : ... .. 5 V02 ... : ... .. . ... : ... .. . ... : ... .. . ... : ... .. . ...
ROW 91 : ... .. . ... ... : ... .. . ... : ... .. . ... : ... .. . ... : ... .. . ...
ROW 92 : ... .. . ... ... : ... .. . ... : ... .. . ... : ... .. . ... : ... .. . ...
ROW 93 : ... .. . ... ... : ... .. . ... : ... .. . ... : ... .. . ... : ... .. . ...
ROW 94 : ... .. . ... ... : ... .. . ... : ... .. . ... : ... .. . ... : ... .. . ...
ROW 95 : ... .. . ... ... : ... .. . ... : ... .. . ... : ... .. . ... : ... .. . ...
ROW 96 : ... .. . ... ... : ... .. . ... : ... .. . ... : ... .. . ... : ... .. . ...
ROW 97 : ... .. . ... ... : ... .. . ... : ... .. . ... : ... .. . ... : ... .. . ...
ROW 98 : ... .. 4 ... ... : ... .. . ... : ... .. . ... : ... .. . ... : ... .. . ...
ROW 99 : ... .. . ... ... : ... .. . ... : ... .. . ... : ... .. . ... : ... .. . ...
ROW 9A : ... .. . ... ... : ... .. . ... : ... .. . ... : ... .. . ... : ... .. . ...
ROW 9B : ... .. . ... ... : ... .. . ... : ... .. . ... : ... .. . ... : ... .. . ...
ROW 9C : ... .. 3 V01 ... : ... .. . ... : ... .. . ... : ... .. . ... : ... .. . ...
ROW 9D : ... .. . ... ... : ... .. . ... : ... .. . ... : ... .. . ... : ... .. . ...
ROW 9E : ... .. . ... ... : ... .. . ... : ... .. . ... : ... .. . ... : ... .. . ...
ROW 9F : ... .. . ... ... : ... .. . ... : ... .. . ... : ... .. . ... : ... .. . ...
ROW A0 : ... .. . ... ... : ... .. . ... : ... .. . ... : ... .. . ... : ... .. . ...
ROW A1 : ... .. . ... ... : ... .. . ... : ... .. . ... : ... .. . ... : ... .. . ...
ROW A2 : ... .. . ... ... : ... .. . ... : ... .. . ... : ... .. . ... : ... .. . ...
ROW A3 : ... .. . ... ... : ... .. . ... : ... .. . ... : ... .. . ... : ... .. . ...
ROW A4 : ... .. . ... ... : ... .. . ... : ... .. . ... : ... .. . ... : ... .. . ...
ROW A5 : ... .. . ... ... : ... .. . ... : ... .. . ... : ... .. . ... : ... .. . ...
ROW A6 : ... .. . ... ... : ... .. . ... : ... .. . ... : ... .. . ... : ... .. . ...
ROW A7 : ... .. . ... ... : ... .. . ... : ... .. . ... : ... .. . ... : ... .. . ...
ROW A8 : ... .. 7 V00 ... : ... .. . ... : ... .. . ... : ... .. . ... : ... .. . ...
ROW A9 : ... .. . ... ... : ... .. . ... : ... .. . ... : ... .. . ... : ... .. . ...
ROW AA : ... .. . ... ... : ... .. . ... : ... .. . ... : ... .. . ... : ... .. . ...
ROW AB : ... .. . ... ... : ... .. . ... : ... .. . ... : ... .. . ... : ... .. . ...
ROW AC : ... .. . ... ... : ... .. . ... : ... .. . ... : ... .. . ... : ... .. . ...
ROW AD : ... .. . ... ... : ... .. . ... : ... .. . ... : ... .. . ... : ... .. . ...
ROW AE : ... .. . ... ... : ... .. . ... : ... .. . ... : ... .. . ... : ... .. . ...
ROW AF : ... .. . ... ... : ... .. . ... : ... .. . ... : ... .. . ... : ... .. . ...
ROW B0 : ... .. . ... ... : ... .. . ... : ... .. . ... : ... .. . ... : ... .. . ...
ROW B1 : ... .. 6 ... ... : ... .. . ... : ... .. . ... : ... .. . ... : ... .. . ...
ROW B2 : ... .. . ... ... : ... .. . ... : ... .. . ... : ... .. . ... : ... .. . ...
ROW B3 : ... .. . ... ... : ... .. . ... : ... .. . ... : ... .. . ... : ... .. . ...
ROW B4 : ... .. 4 V02 ... : ... .. . ... : ... .. . ... : ... .. . ... : ... .. . ...
ROW B5 : ... .. . ... ... : ... .. . ... : ... .. . ... : ... .. . ... : ... .. . ...
ROW B6 : ... .. . ... ... : ... .. . ... : ... .. . ... : ... .. . ... : ... .. . ...
ROW B7 : ... .. . ... ... : ... .. . ... : ... .. . ... : ... .. . ... : ... .. . ...
ROW B8 : ... .. . ... ... : ... .. . ... : ... .. . ... : ... .. . ... : ... .. . ...
ROW B9 : ... .. . ... ... : ... .. . ... : ... .. . ... : ... .. . ... : ... .. . ...
ROW BA : ... .. 3 ... ... : ... .. . ... : ... .. . ... : ... .. . ... : ... .. . ...
ROW BB : ... .. . ... ... : ... .. . ... : ... .. . ... : ... .. . ... : ... .. . ...
ROW BC : ... .. . ... ... : ... .. . ... : ... .. . ... : ... .. . ... : ... .. . ...
ROW BD : ... .. . ... ... : ... .. . ... : ... .. . ... : ... .. . ... : ... .. . ...
ROW BE : ... .. . ... ... : ... .. . ... : ... .. . ... : ... .. . ... : ... .. . ...
ROW BF : ... .. . ... ... : ... .. . ... : ... .. . ... : ... .. . ... : ... .. . ...
ROW C0 : ... .. . ... ... : ... .. . ... : ... .. . ... : ... .. . ... : ... .. . ...
ROW C1 : ... .. . ... ... : ... .. . ... : ... .. . ... : ... .. . ... : ... .. . ...
ROW C2 : ... .. . ... ... : ... .. . ... : ... .. . ... : ... .. . ... : ... .. . ...
ROW C3 : ... .. . ... ... : ... .. . ... : ... .. . ... : ... .. . ... : ... .. . ...
ROW C4 : ... .. . ... ... : ... .. . ... : ... .. . ... : ... .. . ... : ... .. . ...
ROW C5 : ... .. . ... ... : ... .. . ... : ... .. . ... : ... .. . ... : ... .. . ...
ROW C6 : ... .. . ... ... : ... .. . ... : ... .. . ... : ... .. . ... : ... .. . ...
ROW C7 : ... .. . ... ... : ... .. . ... : ... .. . ... : ... .. . ... : ... .. . ...
ROW C8 : ... .. . ... ... : ... .. . ... : ... .. . ... : ... .. . ... : ... .. . ...
ROW C9 : ... .. . ... ... : ... .. . ... : ... .. . ... : ... .. . ... : ... .. . ...
ROW CA : ... .. . ... ... : ... .. . ... : ... .. . ... : ... .. . ... : ... .. . ...
ROW CB : ... .. . ... ... : ... .. . ... : ... .. . ... : ... .. . ... : ... .. . ...
ROW CC : ... .. . ... ... : ... .. . ... : ... .. . ... : ... .. . ... : ... .. . ...
ROW CD : ... .. . ... ... : ... .. . ... : ... .. . ... : ... .. . ... : ... .. . ...
ROW CE : ... .. . ... ... : ... .. . ... : ... .. . ... : ... .. . ... : ... .. . ...
ROW CF : ... .. . ... ... : ... .. . ... : ... .. . ... : ... .. . ... : ... .. . ...
ROW D0 : ... .. . ... ... : ... .. . ... : ... .. . ... : ... .. . ... : ... .. . ...
ROW D1 : ... .. . ... ... : ... .. . ... : ... .. . ... : ... .. . ... : ... .. . ...
ROW D2 : ... .. . ... ... : ... .. . ... : ... .. . ... : ... .. . ... : ... .. . ...
ROW D3 : ... .. . ... ... : ... .. . ... : ... .. . ... : ... .. . ... : ... .. . ...
ROW D4 : ... .. . ... ... : ... .. . ... : ... .. . ... : ... .. . ... : ... .. . ...
ROW D5 : ... .. . ... ... : ... .. . ... : ... .. . ... : ... .. . ... : ... .. . ...
ROW D6 : ... .. . ... ... : ... .. . ... : ... .. . ... : ... .. . ... : ... .. . ...
ROW D7 : ... .. . ... ... : ... .. . ... : ... .. . ... : ... .. . ... : ... .. . ...
ROW D8 : ... .. . ... ... : ... .. . ... : ... .. . ... : ... .. . ... : ... .. . ...
ROW D9 : ... .. . ... ... : ... .. . ... : ... .. . ... : ... .. . ... : ... .. . ...
ROW DA : ... .. . ... ... : ... .. . ... : ... .. . ... : ... .. . ... : ... .. . ...
ROW DB : ... .. . ... ... : ... .. . ... : ... .. . ... : ... .. . ... : ... .. . ...
ROW DC : ... .. . ... ... : ... .. . ... : ... .. . ... : ... .. . ... : ... .. . ...
ROW DD : ... .. . ... ... : ... .. . ... : ... .. . ... : ... .. . ... : ... .. . ...
ROW DE : ... .. . ... ... : ... .. . ... : ... .. . ... : ... .. . ... : ... .. . ...
ROW DF : ... .. . ... ... : ... .. . ... : ... .. . ... : ... .. . ... : ... .. . ...
ROW E0 : ... .. . ... ... : ... .. . ... : ... .. . ... : ... .. . ... : ... .. . ...
ROW E1 : ... .. . ... ... : ... .. . ... : ... .. . ... : ... .. . ... : ... .. . ...
ROW E2 : ... .. . ... ... : ... .. . ... : ... .. . ... : ... .. . ... : ... .. . ...
ROW E3 : ... .. . ... ... : ... .. . ... : ... .. . ... : ... .. . ... : ... .. . ...
ROW E4 : ... .. . ... ... : ... .. . ... : ... .. . ... : ... .. . ... : ... .. . ...
ROW E5 : ... .. . ... ... : ... .. . ... : ... .. . ... : ... .. . ... : ... .. . ...
ROW E6 : ... .. . ... ... : ... .. . ... : ... .. . ... : ... .. . ... : ... .. . ...
ROW E7 : ... .. . ... ... : ... .. . ... : ... .. . ... : ... .. . ... : ... .. . ...
ROW E8 : ... .. . ... ... : ... .. . ... : ... .. . ... : ... .. . ... : ... .. . ...
ROW E9 : ... .. . ... ... : ... .. . ... : ... .. . ... : ... .. . ... : ... .. . ...
ROW EA : ... .. . ... ... : ... .. . ... : ... .. . ... : ... .. . ... : ... .. . ...
ROW EB : ... .. . ... ... : ... .. . ... : ... .. . ... : ... .. . ... : ... .. . ...
ROW EC : ... .. . ... ... : ... .. . ... : ... .. . ... : ... .. . ... : ... .. . ...
ROW ED : ... .. . ... ... : ... .. . ... : ... .. . ... : ... .. . ... : ... .. . ...
ROW EE : ... .. . ... ... : ... .. . ... : ... .. . ... : ... .. . ... : ... .. . ...
ROW EF : ... .. . ... ... : ... .. . ... : ... .. . ... : ... .. . ... : ... .. . ...
ROW F0 : ... .. . ... ... : ... .. . ... : ... .. . ... : ... .. . ... : ... .. . ...
ROW F1 : ... .. . ... ... : ... .. . ... : ... .. . ... : ... .. . ... : ... .. . ...
ROW F2 : ... .. . ... ... : ... .. . ... : ... .. . ... : ... .. . ... : ... .. . ...
ROW F3 : ... .. . ... ... : ... .. . ... : ... .. . ... : ... .. . ... : ... .. . ...
ROW F4 : ... .. . ... ... : ... .. . ... : ... .. . ... : ... .. . ... : ... .. . ...
ROW F5 : ... .. . ... ... : ... .. . ... : ... .. . ... : ... .. . ... : ... .. . ...
ROW F6 : ... .. . ... ... : ... .. . ... : ... .. . ... : ... .. . ... : ... .. . ...
ROW F7 : ... .. . ... ... : ... .. . ... : ... .. . ... : ... .. . ... : ... .. . ...
ROW F8 : ... .. . ... ... : ... .. . ... : ... .. . ... : ... .. . ... : ... .. . ...
ROW F9 : ... .. . ... ... : ... .. . ... : ... .. . ... : ... .. . ... : ... .. . ...
ROW FA : ... .. . ... ... : ... .. . ... : ... .. . ... : ... .. . ... : ... .. . ...
ROW FB : ... .. . ... ... : ... .. . ... : ... .. . ... : ... .. . ... : ... .. . ...
ROW FC : ... .. . ... ... : ... .. . ... : ... .. . ... : ... .. . ... : ... .. . ...
ROW FD : ... .. . ... ... : ... .. . ... : ... .. . ... : ... .. . ... : ... .. . ...
ROW FE : ... .. . ... ... : ... .. . ... : ... .. . ... : ... .. . ... : ... .. . ...
ROW FF : ... .. . ... ... : ... .. . ... : ... .. . ... : ... .. . ... : ... .. . ...

PATTERN 08
ROW 00 : C-4 00 5 V00 ... : ... .. . ... : ... .. . ... : ... .. . ... : ... .. . ...
ROW 01 : ... .. . ... ... : ... .. . ... : ... .. . ... : ... .. . ... : ... .. . ...
ROW 02 : ... .. . ... ... : ... .. . ... : ... .. . ... : ... .. . ... : ... .. . ...
ROW 03 : ... .. . ... ... : ... .. . ... : ... .. . ... : ... .. . ... : ... .. . ...
ROW 04 : ... .. . ... ... : ... .. . ... : ... .. . ... : ... .. . ... : ... .. . ...
ROW 05 : ... .. . ... ... : ... .. . ... : ... .. . ... : ... .. . ... : ... .. . ...
ROW 06 : ... .. . ... ... : ... .. . ... : ... .. . ... : ... .. . ... : ... .. . ...
ROW 07 : ... .. . ... ... : ... .. . ... : ... .. . ... : ... .. . ... : ... .. . ...
ROW 08 : ... .. . ... ... : ... .. . ... : ... .. . ... : ... .. . ... : ... .. . ...
ROW 09 : ... .. 4 ... ... : ... .. . ... : ... .. . ... : ... .. . ... : ... .. . ...
ROW 0A : ... .. . ... ... : ... .. . ... : ... .. . ... : ... .. . ... : ... .. . ...
ROW 0B : ... .. . ... ... : ... .. . ... : ... .. . ... : ... .. . ... : ... .. . ...
ROW 0C : B-3 00 3 V01 ... : ... .. . ... : ... .. . ... : ... .. . ... : ... .. . ...
ROW 0D : ... .. . ... ... : ... .. . ... : ... .. . ... : ... .. . ... : ... .. . ...
ROW 0E : ... .. . ... ... : ... .. . ... : ... .. . ... : ... .. . ... : ... .. . ...
ROW 0F : ... .. . ... ... : ... .. . ... : ... .. . ... : ... .. . ... : ... .. . ...
ROW 10 : ... .. . ... ... : ... .. . ... : ... .. . ... : ... .. . ... : ... .. . ...
ROW 11 : ... .. . ... ... : ... .. . ... : ... .. . ... : ... .. . ... : ... .. . ...
ROW 12 : ... .. . ... ... : ... .. . ... : ... .. . ... : ... .. . ... : ... .. . ...
ROW 13 : ... .. . ... ... : ... .. . ... : ... .. . ... : ... .. . ... : ... .. . ...
ROW 14 : ... .. . ... ... : ... .. . ... : ... .. . ... : ... .. . ... : ... .. . ...
ROW 15 : ... .. 2 ... ... : ... .. . ... : ... .. . ... : ... .. . ... : ... .. . ...
ROW 16 : ... .. . ... ... : ... .. . ... : ... .. . ... : ... .. . ... : ... .. . ...
ROW 17 : ... .. . ... ... : ... .. . ... : ... .. . ... : ... .. . ... : ... .. . ...
ROW 18 : C-4 00 4 V03 ... : ... .. . ... : ... .. . ... : ... .. . ... : ... .. . ...
ROW 19 : ... .. . ... ... : ... .. . ... : ... .. . ... : ... .. . ... : ... .. . ...
ROW 1A : ... .. . ... ... : ... .. . ... : ... .. . ... : ... .. . ... : ... .. . ...
ROW 1B : ... .. . ... ... : ... .. . ... : ... .. . ... : ... .. . ... : ... .. . ...
ROW 1C : ... .. . ... ... : ... .. . ... : ... .. . ... : ... .. . ... : ... .. . ...
ROW 1D : ... .. . ... ... : ... .. . ... : ... .. . ... : ... .. . ... : ... .. . ...
ROW 1E : ... .. . ... ... : ... .. . ... : ... .. . ... : ... .. . ... : ... .. . ...
ROW 1F : ... .. . ... ... : ... .. . ... : ... .. . ... : ... .. . ... : ... .. . ...
ROW 20 : ... .. . ... ... : ... .. . ... : ... .. . ... : ... .. . ... : ... .. . ...
ROW 21 : ... .. . ... ... : ... .. . ... : ... .. . ... : ... .. . ... : ... .. . ...
ROW 22 : ... .. . ... ... : ... .. . ... : ... .. . ... : ... .. . ... : ... .. . ...
ROW 23 : ... .. . ... ... : ... .. . ... : ... .. . ... : ... .. . ... : ... .. . ...
ROW 24 : B-3 00 . V02 ... : ... .. . ... : ... .. . ... : ... .. . ... : ... .. . ...
ROW 25 : ... .. . ... ... : ... .. . ... : ... .. . ... : ... .. . ... : ... .. . ...
ROW 26 : ... .. . ... ... : ... .. . ... : ... .. . ... : ... .. . ... : ... .. . ...
ROW 27 : ... .. . ... ... : ... .. . ... : ... .. . ... : ... .. . ... : ... .. . ...
ROW 28 : ... .. . ... ... : ... .. . ... : ... .. . ... : ... .. . ... : ... .. . ...
ROW 29 : ... .. . ... ... : ... .. . ... : ... .. . ... : ... .. . ... : ... .. . ...
ROW 2A : ... .. . ... ... : ... .. . ... : ... .. . ... : ... .. . ... : ... .. . ...
ROW 2B : ... .. . ... ... : ... .. . ... : ... .. . ... : ... .. . ... : ... .. . ...
ROW 2C : ... .. . ... ... : ... .. . ... : ... .. . ... : ... .. . ... : ... .. . ...
ROW 2D : ... .. . ... ... : ... .. . ... : ... .. . ... : ... .. . ... : ... .. . ...
ROW 2E : ... .. . ... ... : ... .. . ... : ... .. . ... : ... .. . ... : ... .. . ...
ROW 2F : ... .. . ... ... : ... .. . ... : ... .. . ... : ... .. . ... : ... .. . ...
ROW 30 : ... .. 3 ... ... : ... .. . ... : ... .. . ... : ... .. . ... : ... .. . ...
ROW 31 : ... .. . ... ... : ... .. . ... : ... .. . ... : ... .. . ... : ... .. . ...
ROW 32 : ... .. . ... ... : ... .. . ... : ... .. . ... : ... .. . ... : ... .. . ...
ROW 33 : ... .. . ... ... : ... .. . ... : ... .. . ... : ... .. . ... : ... .. . ...
ROW 34 : ... .. . ... ... : ... .. . ... : ... .. . ... : ... .. . ... : ... .. . ...
ROW 35 : ... .. . ... ... : ... .. . ... : ... .. . ... : ... .. . ... : ... .. . ...
ROW 36 : ... .. . ... ... : ... .. . ... : ... .. . ... : ... .. . ... : ... .. . ...
ROW 37 : ... .. . ... ... : ... .. . ... : ... .. . ... : ... .. . ... : ... .. . ...
ROW 38 : ... .. . ... ... : ... .. . ... : ... .. . ... : ... .. . ... : ... .. . ...
ROW 39 : ... .. 2 ... ... : ... .. . ... : ... .. . ... : ... .. . ... : ... .. . ...
ROW 3A : ... .. . ... ... : ... .. . ... : ... .. . ... : ... .. . ... : ... .. . ...
ROW 3B : ... .. . ... ... : ... .. . ... : ... .. . ... : ... .. . ... : ... .. . ...
ROW 3C : ... .. 1 V03 ... : ... .. . ... : ... .. . ... : ... .. . ... : ... .. . ...
ROW 3D : ... .. . ... ... : ... .. . ... : ... .. . ... : ... .. . ... : ... .. . ...
ROW 3E : ... .. . ... ... : ... .. . ... : ... .. . ... : ... .. . ... : ... .. . ...
ROW 3F : ... .. . ... ... : ... .. . ... : ... .. . ... : ... .. . ... : ... .. . ...
ROW 40 : ... .. . ... ... : ... .. . ... : ... .. . ... : ... .. . ... : ... .. . ...
ROW 41 : ... .. . ... ... : ... .. . ... : ... .. . ... : ... .. . ... : ... .. . ...
ROW 42 : ... .. . ... ... : ... .. . ... : ... .. . ... : ... .. . ... : ... .. . ...
ROW 43 : ... .. . ... ... : ... .. . ... : ... .. . ... : ... .. . ... : ... .. . ...
ROW 44 : ... .. . ... ... : ... .. . ... : ... .. . ... : ... .. . ... : ... .. . ...
ROW 45 : ... .. . ... ... : ... .. . ... : ... .. . ... : ... .. . ... : ... .. . ...
ROW 46 : ... .. . ... ... : ... .. . ... : ... .. . ... : ... .. . ... : ... .. . ...
ROW 47 : ... .. . ... ... : ... .. . ... : ... .. . ... : ... .. . ... : ... .. . ...
ROW 48 : C-4 00 4 V00 ... : ... .. . ... : ... .. . ... : ... .. . ... : ... .. . ...
ROW 49 : ... .. . ... ... : ... .. . ... : ... .. . ... : ... .. . ... : ... .. . ...
ROW 4A : ... .. . ... ... : ... .. . ... : ... .. . ... : ... .. . ... : ... .. . ...
ROW 4B : ... .. . ... ... : ... .. . ... : ... .. . ... : ... .. . ... : ... .. . ...
ROW 4C : ... .. . ... ... : ... .. . ... : ... .. . ... : ... .. . ... : ... .. . ...
ROW 4D : ... .. . ... ... : ... .. . ... : ... .. . ... : ... .. . ... : ... .. . ...
ROW 4E : ... .. . ... ... : ... .. . ... : ... .. . ... : ... .. . ... : ... .. . ...
ROW 4F : ... .. . ... ... : ... .. . ... : ... .. . ... : ... .. . ... : ... .. . ...
ROW 50 : ... .. . ... ... : ... .. . ... : ... .. . ... : ... .. . ... : ... .. . ...
ROW 51 : ... .. 4 ... ... : ... .. . ... : ... .. . ... : ... .. . ... : ... .. . ...
ROW 52 : ... .. 5 ... ... : ... .. . ... : ... .. . ... : ... .. . ... : ... .. . ...
ROW 53 : ... .. . ... ... : ... .. . ... : ... .. . ... : ... .. . ... : ... .. . ...
ROW 54 : B-3 00 6 V01 ... : ... .. . ... : ... .. . ... : ... .. . ... : ... .. . ...
ROW 55 : ... .. . ... ... : ... .. . ... : ... .. . ... : ... .. . ... : ... .. . ...
ROW 56 : ... .. . ... ... : ... .. . ... : ... .. . ... : ... .. . ... : ... .. . ...
ROW 57 : ... .. 5 ... ... : ... .. . ... : ... .. . ... : ... .. . ... : ... .. . ...
ROW 58 : ... .. . ... ... : ... .. . ... : ... .. . ... : ... .. . ... : ... .. . ...
ROW 59 : ... .. . ... ... : ... .. . ... : ... .. . ... : ... .. . ... : ... .. . ...
ROW 5A : ... .. . ... ... : ... .. . ... : ... .. . ... : ... .. . ... : ... .. . ...
ROW 5B : ... .. 4 ... ... : ... .. . ... : ... .. . ... : ... .. . ... : ... .. . ...
ROW 5C : ... .. . ... ... : ... .. . ... : ... .. . ... : ... .. . ... : ... .. . ...
ROW 5D : ... .. . ... ... : ... .. . ... : ... .. . ... : ... .. . ... : ... .. . ...
ROW 5E : ... .. . ... ... : ... .. . ... : ... .. . ... : ... .. . ... : ... .. . ...
ROW 5F : ... .. 3 ... ... : ... .. . ... : ... .. . ... : ... .. . ... : ... .. . ...
ROW 60 : C-4 00 . V02 ... : ... .. . ... : ... .. . ... : ... .. . ... : ... .. . ...
ROW 61 : ... .. . ... ... : ... .. . ... : ... .. . ... : ... .. . ... : ... .. . ...
ROW 62 : ... .. . ... ... : ... .. . ... : ... .. . ... : ... .. . ... : ... .. . ...
ROW 63 : ... .. . ... ... : ... .. . ... : ... .. . ... : ... .. . ... : ... .. . ...
ROW 64 : ... .. . ... ... : ... .. . ... : ... .. . ... : ... .. . ... : ... .. . ...
ROW 65 : ... .. 2 ... ... : ... .. . ... : ... .. . ... : ... .. . ... : ... .. . ...
ROW 66 : ... .. . ... ... : ... .. . ... : ... .. . ... : ... .. . ... : ... .. . ...
ROW 67 : ... .. . ... ... : ... .. . ... : ... .. . ... : ... .. . ... : ... .. . ...
ROW 68 : ... .. . ... ... : ... .. . ... : ... .. . ... : ... .. . ... : ... .. . ...
ROW 69 : ... .. . ... ... : ... .. . ... : ... .. . ... : ... .. . ... : ... .. . ...
ROW 6A : ... .. . ... ... : ... .. . ... : ... .. . ... : ... .. . ... : ... .. . ...
ROW 6B : ... .. . ... ... : ... .. . ... : ... .. . ... : ... .. . ... : ... .. . ...
ROW 6C : B-3 00 . V03 ... : ... .. . ... : ... .. . ... : ... .. . ... : ... .. . ...
ROW 6D : ... .. . ... ... : ... .. . ... : ... .. . ... : ... .. . ... : ... .. . ...
ROW 6E : ... .. . ... ... : ... .. . ... : ... .. . ... : ... .. . ... : ... .. . ...
ROW 6F : ... .. . ... ... : ... .. . ... : ... .. . ... : ... .. . ... : ... .. . ...
ROW 70 : ... .. . ... ... : ... .. . ... : ... .. . ... : ... .. . ... : ... .. . ...
ROW 71 : ... .. . ... ... : ... .. . ... : ... .. . ... : ... .. . ... : ... .. . ...
ROW 72 : ... .. . ... ... : ... .. . ... : ... .. . ... : ... .. . ... : ... .. . ...
ROW 73 : ... .. . ... ... : ... .. . ... : ... .. . ... : ... .. . ... : ... .. . ...
ROW 74 : ... .. . ... ... : ... .. . ... : ... .. . ... : ... .. . ... : ... .. . ...
ROW 75 : ... .. . ... ... : ... .. . ... : ... .. . ... : ... .. . ... : ... .. . ...
ROW 76 : ... .. . ... ... : ... .. . ... : ... .. . ... : ... .. . ... : ... .. . ...
ROW 77 : ... .. . ... ... : ... .. . ... : ... .. . ... : ... .. . ... : ... .. . ...
ROW 78 : ... .. . V00 ... : ... .. . ... : ... .. . ... : ... .. . ... : ... .. . ...
ROW 79 : ... .. . ... ... : ... .. . ... : ... .. . ... : ... .. . ... : ... .. . ...
ROW 7A : ... .. . ... ... : ... .. . ... : ... .. . ... : ... .. . ... : ... .. . ...
ROW 7B : ... .. . ... ... : ... .. . ... : ... .. . ... : ... .. . ... : ... .. . ...
ROW 7C : ... .. . ... ... : ... .. . ... : ... .. . ... : ... .. . ... : ... .. . ...
ROW 7D : ... .. . ... ... : ... .. . ... : ... .. . ... : ... .. . ... : ... .. . ...
ROW 7E : ... .. . ... ... : ... .. . ... : ... .. . ... : ... .. . ... : ... .. . ...
ROW 7F : ... .. . ... ... : ... .. . ... : ... .. . ... : ... .. . ... : ... .. . ...
ROW 80 : ... .. . ... ... : ... .. . ... : ... .. . ... : ... .. . ... : ... .. . ...
ROW 81 : ... .. . ... ... : ... .. . ... : ... .. . ... : ... .. . ... : ... .. . ...
ROW 82 : ... .. . ... ... : ... .. . ... : ... .. . ... : ... .. . ... : ... .. . ...
ROW 83 : ... .. . ... ... : ... .. . ... : ... .. . ... : ... .. . ... : ... .. . ...
ROW 84 : ... .. . V02 ... : ... .. . ... : ... .. . ... : ... .. . ... : ... .. . ...
ROW 85 : ... .. . ... ... : ... .. . ... : ... .. . ... : ... .. . ... : ... .. . ...
ROW 86 : ... .. . ... ... : ... .. . ... : ... .. . ... : ... .. . ... : ... .. . ...
ROW 87 : ... .. . ... ... : ... .. . ... : ... .. . ... : ... .. . ... : ... .. . ...
ROW 88 : ... .. . ... ... : ... .. . ... : ... .. . ... : ... .. . ... : ... .. . ...
ROW 89 : ... .. . ... ... : ... .. . ... : ... .. . ... : ... .. . ... : ... .. . ...
ROW 8A : ... .. . ... ... : ... .. . ... : ... .. . ... : ... .. . ... : ... .. . ...
ROW 8B : ... .. . ... ... : ... .. . ... : ... .. . ... : ... .. . ... : ... .. . ...
ROW 8C : ... .. . ... ... : ... .. . ... : ... .. . ... : ... .. . ... : ... .. . ...
ROW 8D : ... .. . ... ... : ... .. . ... : ... .. . ... : ... .. . ... : ... .. . ...
ROW 8E : ... .. . ... ... : ... .. . ... : ... .. . ... : ... .. . ... : ... .. . ...
ROW 8F : ... .. . ... ... : ... .. . ... : ... .. . ... : ... .. . ... : ... .. . ...
ROW 90 : ... .. . V00 ... : ... .. . ... : ... .. . ... : ... .. . ... : ... .. . ...
ROW 91 : ... .. . ... ... : ... .. . ... : ... .. . ... : ... .. . ... : ... .. . ...
ROW 92 : ... .. . ... ... : ... .. . ... : ... .. . ... : ... .. . ... : ... .. . ...
ROW 93 : ... .. . ... ... : ... .. . ... : ... .. . ... : ... .. . ... : ... .. . ...
ROW 94 : ... .. . ... ... : ... .. . ... : ... .. . ... : ... .. . ... : ... .. . ...
ROW 95 : ... .. . ... ... : ... .. . ... : ... .. . ... : ... .. . ... : ... .. . ...
ROW 96 : ... .. . ... ... : ... .. . ... : ... .. . ... : ... .. . ... : ... .. . ...
ROW 97 : ... .. . ... ... : ... .. . ... : ... .. . ... : ... .. . ... : ... .. . ...
ROW 98 : ... .. . ... ... : ... .. . ... : ... .. . ... : ... .. . ... : ... .. . ...
ROW 99 : ... .. . ... ... : ... .. . ... : ... .. . ... : ... .. . ... : ... .. . ...
ROW 9A : ... .. . ... ... : ... .. . ... : ... .. . ... : ... .. . ... : ... .. . ...
ROW 9B : ... .. . ... ... : ... .. . ... : ... .. . ... : ... .. . ... : ... .. . ...
ROW 9C : ... .. 1 V01 ... : ... .. . ... : ... .. . ... : ... .. . ... : ... .. . ...
ROW 9D : ... .. . ... ... : ... .. . ... : ... .. . ... : ... .. . ... : ... .. . ...
ROW 9E : ... .. . ... ... : ... .. . ... : ... .. . ... : ... .. . ... : ... .. . ...
ROW 9F : ... .. . ... ... : ... .. . ... : ... .. . ... : ... .. . ... : ... .. . ...
ROW A0 : ... .. . ... ... : ... .. . ... : ... .. . ... : ... .. . ... : ... .. . ...
ROW A1 : ... .. . ... ... : ... .. . ... : ... .. . ... : ... .. . ... : ... .. . ...
ROW A2 : ... .. . ... ... : ... .. . ... : ... .. . ... : ... .. . ... : ... .. . ...
ROW A3 : ... .. . ... ... : ... .. . ... : ... .. . ... : ... .. . ... : ... .. . ...
ROW A4 : ... .. . ... ... : ... .. . ... : ... .. . ... : ... .. . ... : ... .. . ...
ROW A5 : ... .. . ... ... : ... .. . ... : ... .. . ... : ... .. . ... : ... .. . ...
ROW A6 : ... .. . ... ... : ... .. . ... : ... .. . ... : ... .. . ... : ... .. . ...
ROW A7 : ... .. . ... ... : ... .. . ... : ... .. . ... : ... .. . ... : ... .. . ...
ROW A8 : ... .. . V00 ... : ... .. . ... : ... .. . ... : ... .. . ... : ... .. . ...
ROW A9 : ... .. . ... ... : ... .. . ... : ... .. . ... : ... .. . ... : ... .. . ...
ROW AA : ... .. . ... ... : ... .. . ... : ... .. . ... : ... .. . ... : ... .. . ...
ROW AB : ... .. . ... ... : ... .. . ... : ... .. . ... : ... .. . ... : ... .. . ...
ROW AC : ... .. . ... ... : ... .. . ... : ... .. . ... : ... .. . ... : ... .. . ...
ROW AD : ... .. . ... ... : ... .. . ... : ... .. . ... : ... .. . ... : ... .. . ...
ROW AE : ... .. . ... ... : ... .. . ... : ... .. . ... : ... .. . ... : ... .. . ...
ROW AF : ... .. . ... ... : ... .. . ... : ... .. . ... : ... .. . ... : ... .. . ...
ROW B0 : ... .. . ... ... : ... .. . ... : ... .. . ... : ... .. . ... : ... .. . ...
ROW B1 : ... .. . ... ... : ... .. . ... : ... .. . ... : ... .. . ... : ... .. . ...
ROW B2 : ... .. . ... ... : ... .. . ... : ... .. . ... : ... .. . ... : ... .. . ...
ROW B3 : ... .. . ... ... : ... .. . ... : ... .. . ... : ... .. . ... : ... .. . ...
ROW B4 : ... .. . V02 ... : ... .. . ... : ... .. . ... : ... .. . ... : ... .. . ...
ROW B5 : ... .. . ... ... : ... .. . ... : ... .. . ... : ... .. . ... : ... .. . ...
ROW B6 : ... .. . ... ... : ... .. . ... : ... .. . ... : ... .. . ... : ... .. . ...
ROW B7 : ... .. . ... ... : ... .. . ... : ... .. . ... : ... .. . ... : ... .. . ...
ROW B8 : ... .. . ... ... : ... .. . ... : ... .. . ... : ... .. . ... : ... .. . ...
ROW B9 : ... .. . ... ... : ... .. . ... : ... .. . ... : ... .. . ... : ... .. . ...
ROW BA : ... .. . ... ... : ... .. . ... : ... .. . ... : ... .. . ... : ... .. . ...
ROW BB : ... .. . ... ... : ... .. . ... : ... .. . ... : ... .. . ... : ... .. . ...
ROW BC : ... .. . ... ... : ... .. . ... : ... .. . ... : ... .. . ... : ... .. . ...
ROW BD : ... .. . ... ... : ... .. . ... : ... .. . ... : ... .. . ... : ... .. . ...
ROW BE : ... .. . ... ... : ... .. . ... : ... .. . ... : ... .. . ... : ... .. . ...
ROW BF : ... .. . ... ... : ... .. . ... : ... .. . ... : ... .. . ... : ... .. . ...
ROW C0 : ... .. . ... ... : ... .. . ... : ... .. . ... : ... .. . ... : ... .. . ...
ROW C1 : ... .. . ... ... : ... .. . ... : ... .. . ... : ... .. . ... : ... .. . ...
ROW C2 : ... .. . ... ... : ... .. . ... : ... .. . ... : ... .. . ... : ... .. . ...
ROW C3 : ... .. . ... ... : ... .. . ... : ... .. . ... : ... .. . ... : ... .. . ...
ROW C4 : ... .. . ... ... : ... .. . ... : ... .. . ... : ... .. . ... : ... .. . ...
ROW C5 : ... .. . ... ... : ... .. . ... : ... .. . ... : ... .. . ... : ... .. . ...
ROW C6 : ... .. . ... ... : ... .. . ... : ... .. . ... : ... .. . ... : ... .. . ...
ROW C7 : ... .. . ... ... : ... .. . ... : ... .. . ... : ... .. . ... : ... .. . ...
ROW C8 : ... .. . ... ... : ... .. . ... : ... .. . ... : ... .. . ... : ... .. . ...
ROW C9 : ... .. . ... ... : ... .. . ... : ... .. . ... : ... .. . ... : ... .. . ...
ROW CA : ... .. . ... ... : ... .. . ... : ... .. . ... : ... .. . ... : ... .. . ...
ROW CB : ... .. . ... ... : ... .. . ... : ... .. . ... : ... .. . ... : ... .. . ...
ROW CC : ... .. . ... ... : ... .. . ... : ... .. . ... : ... .. . ... : ... .. . ...
ROW CD : ... .. . ... ... : ... .. . ... : ... .. . ... : ... .. . ... : ... .. . ...
ROW CE : ... .. . ... ... : ... .. . ... : ... .. . ... : ... .. . ... : ... .. . ...
ROW CF : ... .. . ... ... : ... .. . ... : ... .. . ... : ... .. . ... : ... .. . ...
ROW D0 : ... .. . ... ... : ... .. . ... : ... .. . ... : ... .. . ... : ... .. . ...
ROW D1 : ... .. . ... ... : ... .. . ... : ... .. . ... : ... .. . ... : ... .. . ...
ROW D2 : ... .. . ... ... : ... .. . ... : ... .. . ... : ... .. . ... : ... .. . ...
ROW D3 : ... .. . ... ... : ... .. . ... : ... .. . ... : ... .. . ... : ... .. . ...
ROW D4 : ... .. . ... ... : ... .. . ... : ... .. . ... : ... .. . ... : ... .. . ...
ROW D5 : ... .. . ... ... : ... .. . ... : ... .. . ... : ... .. . ... : ... .. . ...
ROW D6 : ... .. . ... ... : ... .. . ... : ... .. . ... : ... .. . ... : ... .. . ...
ROW D7 : ... .. . ... ... : ... .. . ... : ... .. . ... : ... .. . ... : ... .. . ...
ROW D8 : ... .. . ... ... : ... .. . ... : ... .. . ... : ... .. . ... : ... .. . ...
ROW D9 : ... .. . ... ... : ... .. . ... : ... .. . ... : ... .. . ... : ... .. . ...
ROW DA : ... .. . ... ... : ... .. . ... : ... .. . ... : ... .. . ... : ... .. . ...
ROW DB : ... .. . ... ... : ... .. . ... : ... .. . ... : ... .. . ... : ... .. . ...
ROW DC : ... .. . ... ... : ... .. . ... : ... .. . ... : ... .. . ... : ... .. . ...
ROW DD : ... .. . ... ... : ... .. . ... : ... .. . ... : ... .. . ... : ... .. . ...
ROW DE : ... .. . ... ... : ... .. . ... : ... .. . ... : ... .. . ... : ... .. . ...
ROW DF : ... .. . ... ... : ... .. . ... : ... .. . ... : ... .. . ... : ... .. . ...
ROW E0 : ... .. . ... ... : ... .. . ... : ... .. . ... : ... .. . ... : ... .. . ...
ROW E1 : ... .. . ... ... : ... .. . ... : ... .. . ... : ... .. . ... : ... .. . ...
ROW E2 : ... .. . ... ... : ... .. . ... : ... .. . ... : ... .. . ... : ... .. . ...
ROW E3 : ... .. . ... ... : ... .. . ... : ... .. . ... : ... .. . ... : ... .. . ...
ROW E4 : ... .. . ... ... : ... .. . ... : ... .. . ... : ... .. . ... : ... .. . ...
ROW E5 : ... .. . ... ... : ... .. . ... : ... .. . ... : ... .. . ... : ... .. . ...
ROW E6 : ... .. . ... ... : ... .. . ... : ... .. . ... : ... .. . ... : ... .. . ...
ROW E7 : ... .. . ... ... : ... .. . ... : ... .. . ... : ... .. . ... : ... .. . ...
ROW E8 : ... .. . ... ... : ... .. . ... : ... .. . ... : ... .. . ... : ... .. . ...
ROW E9 : ... .. . ... ... : ... .. . ... : ... .. . ... : ... .. . ... : ... .. . ...
ROW EA : ... .. . ... ... : ... .. . ... : ... .. . ... : ... .. . ... : ... .. . ...
ROW EB : ... .. . ... ... : ... .. . ... : ... .. . ... : ... .. . ... : ... .. . ...
ROW EC : ... .. . ... ... : ... .. . ... : ... .. . ... : ... .. . ... : ... .. . ...
ROW ED : ... .. . ... ... : ... .. . ... : ... .. . ... : ... .. . ... : ... .. . ...
ROW EE : ... .. . ... ... : ... .. . ... : ... .. . ... : ... .. . ... : ... .. . ...
ROW EF : ... .. . ... ... : ... .. . ... : ... .. . ... : ... .. . ... : ... .. . ...
ROW F0 : ... .. . ... ... : ... .. . ... : ... .. . ... : ... .. . ... : ... .. . ...
ROW F1 : ... .. . ... ... : ... .. . ... : ... .. . ... : ... .. . ... : ... .. . ...
ROW F2 : ... .. . ... ... : ... .. . ... : ... .. . ... : ... .. . ... : ... .. . ...
ROW F3 : ... .. . ... ... : ... .. . ... : ... .. . ... : ... .. . ... : ... .. . ...
ROW F4 : ... .. . ... ... : ... .. . ... : ... .. . ... : ... .. . ... : ... .. . ...
ROW F5 : ... .. . ... ... : ... .. . ... : ... .. . ... : ... .. . ... : ... .. . ...
ROW F6 : ... .. . ... ... : ... .. . ... : ... .. . ... : ... .. . ... : ... .. . ...
ROW F7 : ... .. . ... ... : ... .. . ... : ... .. . ... : ... .. . ... : ... .. . ...
ROW F8 : ... .. . ... ... : ... .. . ... : ... .. . ... : ... .. . ... : ... .. . ...
ROW F9 : ... .. . ... ... : ... .. . ... : ... .. . ... : ... .. . ... : ... .. . ...
ROW FA : ... .. . ... ... : ... .. . ... : ... .. . ... : ... .. . ... : ... .. . ...
ROW FB : ... .. . ... ... : ... .. . ... : ... .. . ... : ... .. . ... : ... .. . ...
ROW FC : ... .. . ... ... : ... .. . ... : ... .. . ... : ... .. . ... : ... .. . ...
ROW FD : ... .. . ... ... : ... .. . ... : ... .. . ... : ... .. . ... : ... .. . ...
ROW FE : ... .. . ... ... : ... .. . ... : ... .. . ... : ... .. . ... : ... .. . ...
ROW FF : ... .. . ... ... : ... .. . ... : ... .. . ... : ... .. . ... : ... .. . ...

PATTERN 09
ROW 00 : B-3 00 1 V01 ... : ... .. . ... : ... .. . ... : ... .. . ... : ... .. . ...
ROW 01 : ... .. . ... ... : ... .. . ... : ... .. . ... : ... .. . ... : ... .. . ...
ROW 02 : ... .. . ... ... : ... .. . ... : ... .. . ... : ... .. . ... : ... .. . ...
ROW 03 : ... .. . ... ... : ... .. . ... : ... .. . ... : ... .. . ... : ... .. . ...
ROW 04 : ... .. . ... ... : ... .. . ... : ... .. . ... : ... .. . ... : ... .. . ...
ROW 05 : ... .. . ... ... : ... .. . ... : ... .. . ... : ... .. . ... : ... .. . ...
ROW 06 : ... .. . ... ... : ... .. . ... : ... .. . ... : ... .. . ... : ... .. . ...
ROW 07 : ... .. . ... ... : ... .. . ... : ... .. . ... : ... .. . ... : ... .. . ...
ROW 08 : ... .. . ... ... : ... .. . ... : ... .. . ... : ... .. . ... : ... .. . ...
ROW 09 : ... .. . ... ... : ... .. . ... : ... .. . ... : ... .. . ... : ... .. . ...
ROW 0A : ... .. . ... ... : ... .. . ... : ... .. . ... : ... .. . ... : ... .. . ...
ROW 0B : ... .. . ... ... : ... .. . ... : ... .. . ... : ... .. . ... : ... .. . ...
ROW 0C : ... .. . V02 ... : ... .. . ... : ... .. . ... : ... .. . ... : ... .. . ...
ROW 0D : ... .. . ... ... : ... .. . ... : ... .. . ... : ... .. . ... : ... .. . ...
ROW 0E : ... .. . ... ... : ... .. . ... : ... .. . ... : ... .. . ... : ... .. . ...
ROW 0F : ... .. . ... ... : ... .. . ... : ... .. . ... : ... .. . ... : ... .. . ...
ROW 10 : ... .. . ... ... : ... .. . ... : ... .. . ... : ... .. . ... : ... .. . ...
ROW 11 : ... .. . ... ... : ... .. . ... : ... .. . ... : ... .. . ... : ... .. . ...
ROW 12 : ... .. . ... ... : ... .. . ... : ... .. . ... : ... .. . ... : ... .. . ...
ROW 13 : ... .. . ... ... : ... .. . ... : ... .. . ... : ... .. . ... : ... .. . ...
ROW 14 : ... .. . ... ... : ... .. . ... : ... .. . ... : ... .. . ... : ... .. . ...
ROW 15 : ... .. . ... ... : ... .. . ... : ... .. . ... : ... .. . ... : ... .. . ...
ROW 16 : ... .. . ... ... : ... .. . ... : ... .. . ... : ... .. . ... : ... .. . ...
ROW 17 : ... .. . ... ... : ... .. . ... : ... .. . ... : ... .. . ... : ... .. . ...
ROW 18 : G-3 00 7 V03 ... : ... .. . ... : ... .. . ... : ... .. . ... : ... .. . ...
ROW 19 : ... .. . ... ... : ... .. . ... : ... .. . ... : ... .. . ... : ... .. . ...
ROW 1A : ... .. . ... ... : ... .. . ... : ... .. . ... : ... .. . ... : ... .. . ...
ROW 1B : ... .. . ... ... : ... .. . ... : ... .. . ... : ... .. . ... : ... .. . ...
ROW 1C : ... .. . ... ... : ... .. . ... : ... .. . ... : ... .. . ... : ... .. . ...
ROW 1D : ... .. . ... ... : ... .. . ... : ... .. . ... : ... .. . ... : ... .. . ...
ROW 1E : ... .. . ... ... : ... .. . ... : ... .. . ... : ... .. . ... : ... .. . ...
ROW 1F : ... .. . ... ... : ... .. . ... : ... .. . ... : ... .. . ... : ... .. . ...
ROW 20 : ... .. 5 ... ... : ... .. . ... : ... .. . ... : ... .. . ... : ... .. . ...
ROW 21 : ... .. . ... ... : ... .. . ... : ... .. . ... : ... .. . ... : ... .. . ...
ROW 22 : ... .. . ... ... : ... .. . ... : ... .. . ... : ... .. . ... : ... .. . ...
ROW 23 : ... .. . ... ... : ... .. . ... : ... .. . ... : ... .. . ... : ... .. . ...
ROW 24 : ... .. 3 V02 ... : ... .. . ... : ... .. . ... : ... .. . ... : ... .. . ...
ROW 25 : ... .. . ... ... : ... .. . ... : ... .. . ... : ... .. . ... : ... .. . ...
ROW 26 : ... .. . ... ... : ... .. . ... : ... .. . ... : ... .. . ... : ... .. . ...
ROW 27 : ... .. . ... ... : ... .. . ... : ... .. . ... : ... .. . ... : ... .. . ...
ROW 28 : ... .. . ... ... : ... .. . ... : ... .. . ... : ... .. . ... : ... .. . ...
ROW 29 : ... .. . ... ... : ... .. . ... : ... .. . ... : ... .. . ... : ... .. . ...
ROW 2A : ... .. . ... ... : ... .. . ... : ... .. . ... : ... .. . ... : ... .. . ...
ROW 2B : ... .. . ... ... : ... .. . ... : ... .. . ... : ... .. . ... : ... .. . ...
ROW 2C : ... .. . ... ... : ... .. . ... : ... .. . ... : ... .. . ... : ... .. . ...
ROW 2D : ... .. . ... ... : ... .. . ... : ... .. . ... : ... .. . ... : ... .. . ...
ROW 2E : ... .. . ... ... : ... .. . ... : ... .. . ... : ... .. . ... : ... .. . ...
ROW 2F : ... .. . ... ... : ... .. . ... : ... .. . ... : ... .. . ... : ... .. . ...
ROW 30 : B-3 00 7 V00 ... : ... .. . ... : ... .. . ... : ... .. . ... : ... .. . ...
ROW 31 : ... .. . ... ... : ... .. . ... : ... .. . ... : ... .. . ... : ... .. . ...
ROW 32 : ... .. . ... ... : ... .. . ... : ... .. . ... : ... .. . ... : ... .. . ...
ROW 33 : ... .. . ... ... : ... .. . ... : ... .. . ... : ... .. . ... : ... .. . ...
ROW 34 : ... .. . ... ... : ... .. . ... : ... .. . ... : ... .. . ... : ... .. . ...
ROW 35 : ... .. . ... ... : ... .. . ... : ... .. . ... : ... .. . ... : ... .. . ...
ROW 36 : ... .. . ... ... : ... .. . ... : ... .. . ... : ... .. . ... : ... .. . ...
ROW 37 : ... .. . ... ... : ... .. . ... : ... .. . ... : ... .. . ... : ... .. . ...
ROW 38 : ... .. 5 ... ... : ... .. . ... : ... .. . ... : ... .. . ... : ... .. . ...
ROW 39 : ... .. . ... ... : ... .. . ... : ... .. . ... : ... .. . ... : ... .. . ...
ROW 3A : ... .. . ... ... : ... .. . ... : ... .. . ... : ... .. . ... : ... .. . ...
ROW 3B : ... .. . ... ... : ... .. . ... : ... .. . ... : ... .. . ... : ... .. . ...
ROW 3C : ... .. 3 V01 ... : ... .. . ... : ... .. . ... : ... .. . ... : ... .. . ...
ROW 3D : ... .. . ... ... : ... .. . ... : ... .. . ... : ... .. . ... : ... .. . ...
ROW 3E : ... .. . ... ... : ... .. . ... : ... .. . ... : ... .. . ... : ... .. . ...
ROW 3F : ... .. . ... ... : ... .. . ... : ... .. . ... : ... .. . ... : ... .. . ...
ROW 40 : ... .. . ... ... : ... .. . ... : ... .. . ... : ... .. . ... : ... .. . ...
ROW 41 : ... .. . ... ... : ... .. . ... : ... .. . ... : ... .. . ... : ... .. . ...
ROW 42 : ... .. . ... ... : ... .. . ... : ... .. . ... : ... .. . ... : ... .. . ...
ROW 43 : ... .. . ... ... : ... .. . ... : ... .. . ... : ... .. . ... : ... .. . ...
ROW 44 : ... .. . ... ... : ... .. . ... : ... .. . ... : ... .. . ... : ... .. . ...
ROW 45 : ... .. . ... ... : ... .. . ... : ... .. . ... : ... .. . ... : ... .. . ...
ROW 46 : ... .. . ... ... : ... .. . ... : ... .. . ... : ... .. . ... : ... .. . ...
ROW 47 : ... .. . ... ... : ... .. . ... : ... .. . ... : ... .. . ... : ... .. . ...
ROW 48 : ... .. 4 V02 ... : ... .. . ... : ... .. . ... : ... .. . ... : ... .. . ...
ROW 49 : ... .. . ... ... : ... .. . ... : ... .. . ... : ... .. . ... : ... .. . ...
ROW 4A : ... .. . ... ... : ... .. . ... : ... .. . ... : ... .. . ... : ... .. . ...
ROW 4B : ... .. . ... ... : ... .. . ... : ... .. . ... : ... .. . ... : ... .. . ...
ROW 4C : ... .. . ... ... : ... .. . ... : ... .. . ... : ... .. . ... : ... .. . ...
ROW 4D : ... .. . ... ... : ... .. . ... : ... .. . ... : ... .. . ... : ... .. . ...
ROW 4E : ... .. . ... ... : ... .. . ... : ... .. . ... : ... .. . ... : ... .. . ...
ROW 4F : ... .. . ... ... : ... .. . ... : ... .. . ... : ... .. . ... : ... .. . ...
ROW 50 : ... .. . ... ... : ... .. . ... : ... .. . ... : ... .. . ... : ... .. . ...
ROW 51 : ... .. 4 ... ... : ... .. . ... : ... .. . ... : ... .. . ... : ... .. . ...
ROW 52 : ... .. 5 ... ... : ... .. . ... : ... .. . ... : ... .. . ... : ... .. . ...
ROW 53 : ... .. . ... ... : ... .. . ... : ... .. . ... : ... .. . ... : ... .. . ...
ROW 54 : ... .. 6 V00 ... : ... .. . ... : ... .. . ... : ... .. . ... : ... .. . ...
ROW 55 : ... .. . ... ... : ... .. . ... : ... .. . ... : ... .. . ... : ... .. . ...
ROW 56 : ... .. . ... ... : ... .. . ... : ... .. . ... : ... .. . ... : ... .. . ...
ROW 57 : ... .. 5 ... ... : ... .. . ... : ... .. . ... : ... .. . ... : ... .. . ...
ROW 58 : ... .. . ... ... : ... .. . ... : ... .. . ... : ... .. . ... : ... .. . ...
ROW 59 : ... .. . ... ... : ... .. . ... : ... .. . ... : ... .. . ... : ... .. . ...
ROW 5A : ... .. . ... ... : ... .. . ... : ... .. . ... : ... .. . ... : ... .. . ...
ROW 5B : ... .. 4 ... ... : ... .. . ... : ... .. . ... : ... .. . ... : ... .. . ...
ROW 5C : ... .. . ... ... : ... .. . ... : ... .. . ... : ... .. . ... : ... .. . ...
ROW 5D : ... .. . ... ... : ... .. . ... : ... .. . ... : ... .. . ... : ... .. . ...
ROW 5E : ... .. . ... ... : ... .. . ... : ... .. . ... : ... .. . ... : ... .. . ...
ROW 5F : ... .. 3 ... ... : ... .. . ... : ... .. . ... : ... .. . ... : ... .. . ...
ROW 60 : ... .. . V01 ... : ... .. . ... : ... .. . ... : ... .. . ... : ... .. . ...
ROW 61 : ... .. . ... ... : ... .. . ... : ... .. . ... : ... .. . ... : ... .. . ...
ROW 62 : ... .. . ... ... : ... .. . ... : ... .. . ... : ... .. . ... : ... .. . ...
ROW 63 : ... .. . ... ... : ... .. . ... : ... .. . ... : ... .. . ... : ... .. . ...
ROW 64 : ... .. . ... ... : ... .. . ... : ... .. . ... : ... .. . ... : ... .. . ...
ROW 65 : ... .. 2 ... ... : ... .. . ... : ... .. . ... : ... .. . ... : ... .. . ...
ROW 66 : ... .. . ... ... : ... .. . ... : ... .. . ... : ... .. . ... : ... .. . ...
ROW 67 : ... .. . ... ... : ... .. . ... : ... .. . ... : ... .. . ... : ... .. . ...
ROW 68 : ... .. . ... ... : ... .. . ... : ... .. . ... : ... .. . ... : ... .. . ...
ROW 69 : ... .. . ... ... : ... .. . ... : ... .. . ... : ... .. . ... : ... .. . ...
ROW 6A : ... .. . ... ... : ... .. . ... : ... .. . ... : ... .. . ... : ... .. . ...
ROW 6B : ... .. . ... ... : ... .. . ... : ... .. . ... : ... .. . ... : ... .. . ...
ROW 6C : ... .. . V02 ... : ... .. . ... : ... .. . ... : ... .. . ... : ... .. . ...
ROW 6D : ... .. . ... ... : ... .. . ... : ... .. . ... : ... .. . ... : ... .. . ...
ROW 6E : ... .. . ... ... : ... .. . ... : ... .. . ... : ... .. . ... : ... .. . ...
ROW 6F : ... .. . ... ... : ... .. . ... : ... .. . ... : ... .. . ... : ... .. . ...
ROW 70 : ... .. . ... ... : ... .. . ... : ... .. . ... : ... .. . ... : ... .. . ...
ROW 71 : ... .. . ... ... : ... .. . ... : ... .. . ... : ... .. . ... : ... .. . ...
ROW 72 : ... .. . ... ... : ... .. . ... : ... .. . ... : ... .. . ... : ... .. . ...
ROW 73 : ... .. . ... ... : ... .. . ... : ... .. . ... : ... .. . ... : ... .. . ...
ROW 74 : ... .. . ... ... : ... .. . ... : ... .. . ... : ... .. . ... : ... .. . ...
ROW 75 : ... .. . ... ... : ... .. . ... : ... .. . ... : ... .. . ... : ... .. . ...
ROW 76 : ... .. . ... ... : ... .. . ... : ... .. . ... : ... .. . ... : ... .. . ...
ROW 77 : ... .. . ... ... : ... .. . ... : ... .. . ... : ... .. . ... : ... .. . ...
ROW 78 : G-3 00 7 V03 ... : ... .. . ... : ... .. . ... : ... .. . ... : ... .. . ...
ROW 79 : ... .. . ... ... : ... .. . ... : ... .. . ... : ... .. . ... : ... .. . ...
ROW 7A : ... .. . ... ... : ... .. . ... : ... .. . ... : ... .. . ... : ... .. . ...
ROW 7B : ... .. . ... ... : ... .. . ... : ... .. . ... : ... .. . ... : ... .. . ...
ROW 7C : ... .. . ... ... : ... .. . ... : ... .. . ... : ... .. . ... : ... .. . ...
ROW 7D : ... .. . ... ... : ... .. . ... : ... .. . ... : ... .. . ... : ... .. . ...
ROW 7E : ... .. . ... ... : ... .. . ... : ... .. . ... : ... .. . ... : ... .. . ...
ROW 7F : ... .. . ... ... : ... .. . ... : ... .. . ... : ... .. . ... : ... .. . ...
ROW 80 : ... .. 5 ... ... : ... .. . ... : ... .. . ... : ... .. . ... : ... .. . ...
ROW 81 : ... .. . ... ... : ... .. . ... : ... .. . ... : ... .. . ... : ... .. . ...
ROW 82 : ... .. . ... ... : ... .. . ... : ... .. . ... : ... .. . ... : ... .. . ...
ROW 83 : ... .. . ... ... : ... .. . ... : ... .. . ... : ... .. . ... : ... .. . ...
ROW 84 : ... .. 4 V02 ... : ... .. . ... : ... .. . ... : ... .. . ... : ... .. . ...
ROW 85 : ... .. . ... ... : ... .. . ... : ... .. . ... : ... .. . ... : ... .. . ...
ROW 86 : ... .. . ... ... : ... .. . ... : ... .. . ... : ... .. . ... : ... .. . ...
ROW 87 : ... .. . ... ... : ... .. . ... : ... .. . ... : ... .. . ... : ... .. . ...
ROW 88 : ... .. . ... ... : ... .. . ... : ... .. . ... : ... .. . ... : ... .. . ...
ROW 89 : ... .. . ... ... : ... .. . ... : ... .. . ... : ... .. . ... : ... .. . ...
ROW 8A : ... .. . ... ... : ... .. . ... : ... .. . ... : ... .. . ... : ... .. . ...
ROW 8B : ... .. . ... ... : ... .. . ... : ... .. . ... : ... .. . ... : ... .. . ...
ROW 8C : ... .. . ... ... : ... .. . ... : ... .. . ... : ... .. . ... : ... .. . ...
ROW 8D : ... .. . ... ... : ... .. . ... : ... .. . ... : ... .. . ... : ... .. . ...
ROW 8E : ... .. . ... ... : ... .. . ... : ... .. . ... : ... .. . ... : ... .. . ...
ROW 8F : ... .. . ... ... : ... .. . ... : ... .. . ... : ... .. . ... : ... .. . ...
ROW 90 : B-3 00 7 V00 ... : ... .. . ... : ... .. . ... : ... .. . ... : ... .. . ...
ROW 91 : ... .. . ... ... : ... .. . ... : ... .. . ... : ... .. . ... : ... .. . ...
ROW 92 : ... .. . ... ... : ... .. . ... : ... .. . ... : ... .. . ... : ... .. . ...
ROW 93 : ... .. . ... ... : ... .. . ... : ... .. . ... : ... .. . ... : ... .. . ...
ROW 94 : ... .. . ... ... : ... .. . ... : ... .. . ... : ... .. . ... : ... .. . ...
ROW 95 : ... .. . ... ... : ... .. . ... : ... .. . ... : ... .. . ... : ... .. . ...
ROW 96 : ... .. . ... ... : ... .. . ... : ... .. . ... : ... .. . ... : ... .. . ...
ROW 97 : ... .. . ... ... : ... .. . ... : ... .. . ... : ... .. . ... : ... .. . ...
ROW 98 : ... .. 5 ... ... : ... .. . ... : ... .. . ... : ... .. . ... : ... .. . ...
ROW 99 : ... .. . ... ... : ... .. . ... : ... .. . ... : ... .. . ... : ... .. . ...
ROW 9A : ... .. . ... ... : ... .. . ... : ... .. . ... : ... .. . ... : ... .. . ...
ROW 9B : ... .. . ... ... : ... .. . ... : ... .. . ... : ... .. . ... : ... .. . ...
ROW 9C : ... .. 4 V01 ... : ... .. . ... : ... .. . ... : ... .. . ... : ... .. . ...
ROW 9D : ... .. . ... ... : ... .. . ... : ... .. . ... : ... .. . ... : ... .. . ...
ROW 9E : ... .. . ... ... : ... .. . ... : ... .. . ... : ... .. . ... : ... .. . ...
ROW 9F : ... .. . ... ... : ... .. . ... : ... .. . ... : ... .. . ... : ... .. . ...
ROW A0 : ... .. 3 ... ... : ... .. . ... : ... .. . ... : ... .. . ... : ... .. . ...
ROW A1 : ... .. . ... ... : ... .. . ... : ... .. . ... : ... .. . ... : ... .. . ...
ROW A2 : ... .. . ... ... : ... .. . ... : ... .. . ... : ... .. . ... : ... .. . ...
ROW A3 : ... .. . ... ... : ... .. . ... : ... .. . ... : ... .. . ... : ... .. . ...
ROW A4 : ... .. . ... ... : ... .. . ... : ... .. . ... : ... .. . ... : ... .. . ...
ROW A5 : ... .. . ... ... : ... .. . ... : ... .. . ... : ... .. . ... : ... .. . ...
ROW A6 : ... .. . ... ... : ... .. . ... : ... .. . ... : ... .. . ... : ... .. . ...
ROW A7 : ... .. . ... ... : ... .. . ... : ... .. . ... : ... .. . ... : ... .. . ...
ROW A8 : A-3 00 7 V00 ... : ... .. . ... : ... .. . ... : ... .. . ... : ... .. . ...
ROW A9 : ... .. . ... ... : ... .. . ... : ... .. . ... : ... .. . ... : ... .. . ...
ROW AA : ... .. . ... ... : ... .. . ... : ... .. . ... : ... .. . ... : ... .. . ...
ROW AB : ... .. . ... ... : ... .. . ... : ... .. . ... : ... .. . ... : ... .. . ...
ROW AC : ... .. . ... ... : ... .. . ... : ... .. . ... : ... .. . ... : ... .. . ...
ROW AD : ... .. . ... ... : ... .. . ... : ... .. . ... : ... .. . ... : ... .. . ...
ROW AE : ... .. . ... ... : ... .. . ... : ... .. . ... : ... .. . ... : ... .. . ...
ROW AF : ... .. . ... ... : ... .. . ... : ... .. . ... : ... .. . ... : ... .. . ...
ROW B0 : ... .. . ... ... : ... .. . ... : ... .. . ... : ... .. . ... : ... .. . ...
ROW B1 : ... .. 6 ... ... : ... .. . ... : ... .. . ... : ... .. . ... : ... .. . ...
ROW B2 : ... .. . ... ... : ... .. . ... : ... .. . ... : ... .. . ... : ... .. . ...
ROW B3 : ... .. . ... ... : ... .. . ... : ... .. . ... : ... .. . ... : ... .. . ...
ROW B4 : G-3 00 4 V02 ... : ... .. . ... : ... .. . ... : ... .. . ... : ... .. . ...
ROW B5 : ... .. . ... ... : ... .. . ... : ... .. . ... : ... .. . ... : ... .. . ...
ROW B6 : ... .. . ... ... : ... .. . ... : ... .. . ... : ... .. . ... : ... .. . ...
ROW B7 : ... .. . ... ... : ... .. . ... : ... .. . ... : ... .. . ... : ... .. . ...
ROW B8 : ... .. . ... ... : ... .. . ... : ... .. . ... : ... .. . ... : ... .. . ...
ROW B9 : ... .. . ... ... : ... .. . ... : ... .. . ... : ... .. . ... : ... .. . ...
ROW BA : ... .. 3 ... ... : ... .. . ... : ... .. . ... : ... .. . ... : ... .. . ...
ROW BB : ... .. . ... ... : ... .. . ... : ... .. . ... : ... .. . ... : ... .. . ...
ROW BC : ... .. . ... ... : ... .. . ... : ... .. . ... : ... .. . ... : ... .. . ...
ROW BD : ... .. . ... ... : ... .. . ... : ... .. . ... : ... .. . ... : ... .. . ...
ROW BE : ... .. . ... ... : ... .. . ... : ... .. . ... : ... .. . ... : ... .. . ...
ROW BF : ... .. . ... ... : ... .. . ... : ... .. . ... : ... .. . ... : ... .. . ...
ROW C0 : ... .. . ... ... : ... .. . ... : ... .. . ... : ... .. . ... : ... .. . ...
ROW C1 : ... .. . ... ... : ... .. . ... : ... .. . ... : ... .. . ... : ... .. . ...
ROW C2 : ... .. . ... ... : ... .. . ... : ... .. . ... : ... .. . ... : ... .. . ...
ROW C3 : ... .. . ... ... : ... .. . ... : ... .. . ... : ... .. . ... : ... .. . ...
ROW C4 : ... .. . ... ... : ... .. . ... : ... .. . ... : ... .. . ... : ... .. . ...
ROW C5 : ... .. . ... ... : ... .. . ... : ... .. . ... : ... .. . ... : ... .. . ...
ROW C6 : ... .. . ... ... : ... .. . ... : ... .. . ... : ... .. . ... : ... .. . ...
ROW C7 : ... .. . ... ... : ... .. . ... : ... .. . ... : ... .. . ... : ... .. . ...
ROW C8 : ... .. . ... ... : ... .. . ... : ... .. . ... : ... .. . ... : ... .. . ...
ROW C9 : ... .. . ... ... : ... .. . ... : ... .. . ... : ... .. . ... : ... .. . ...
ROW CA : ... .. . ... ... : ... .. . ... : ... .. . ... : ... .. . ... : ... .. . ...
ROW CB : ... .. . ... ... : ... .. . ... : ... .. . ... : ... .. . ... : ... .. . ...
ROW CC : ... .. . ... ... : ... .. . ... : ... .. . ... : ... .. . ... : ... .. . ...
ROW CD : ... .. . ... ... : ... .. . ... : ... .. . ... : ... .. . ... : ... .. . ...
ROW CE : ... .. . ... ... : ... .. . ... : ... .. . ... : ... .. . ... : ... .. . ...
ROW CF : ... .. . ... ... : ... .. . ... : ... .. . ... : ... .. . ... : ... .. . ...
ROW D0 : ... .. . ... ... : ... .. . ... : ... .. . ... : ... .. . ... : ... .. . ...
ROW D1 : ... .. . ... ... : ... .. . ... : ... .. . ... : ... .. . ... : ... .. . ...
ROW D2 : ... .. . ... ... : ... .. . ... : ... .. . ... : ... .. . ... : ... .. . ...
ROW D3 : ... .. . ... ... : ... .. . ... : ... .. . ... : ... .. . ... : ... .. . ...
ROW D4 : ... .. . ... ... : ... .. . ... : ... .. . ... : ... .. . ... : ... .. . ...
ROW D5 : ... .. . ... ... : ... .. . ... : ... .. . ... : ... .. . ... : ... .. . ...
ROW D6 : ... .. . ... ... : ... .. . ... : ... .. . ... : ... .. . ... : ... .. . ...
ROW D7 : ... .. . ... ... : ... .. . ... : ... .. . ... : ... .. . ... : ... .. . ...
ROW D8 : ... .. . ... ... : ... .. . ... : ... .. . ... : ... .. . ... : ... .. . ...
ROW D9 : ... .. . ... ... : ... .. . ... : ... .. . ... : ... .. . ... : ... .. . ...
ROW DA : ... .. . ... ... : ... .. . ... : ... .. . ... : ... .. . ... : ... .. . ...
ROW DB : ... .. . ... ... : ... .. . ... : ... .. . ... : ... .. . ... : ... .. . ...
ROW DC : ... .. . ... ... : ... .. . ... : ... .. . ... : ... .. . ... : ... .. . ...
ROW DD : ... .. . ... ... : ... .. . ... : ... .. . ... : ... .. . ... : ... .. . ...
ROW DE : ... .. . ... ... : ... .. . ... : ... .. . ... : ... .. . ... : ... .. . ...
ROW DF : ... .. . ... ... : ... .. . ... : ... .. . ... : ... .. . ... : ... .. . ...
ROW E0 : ... .. . ... ... : ... .. . ... : ... .. . ... : ... .. . ... : ... .. . ...
ROW E1 : ... .. . ... ... : ... .. . ... : ... .. . ... : ... .. . ... : ... .. . ...
ROW E2 : ... .. . ... ... : ... .. . ... : ... .. . ... : ... .. . ... : ... .. . ...
ROW E3 : ... .. . ... ... : ... .. . ... : ... .. . ... : ... .. . ... : ... .. . ...
ROW E4 : ... .. . ... ... : ... .. . ... : ... .. . ... : ... .. . ... : ... .. . ...
ROW E5 : ... .. . ... ... : ... .. . ... : ... .. . ... : ... .. . ... : ... .. . ...
ROW E6 : ... .. . ... ... : ... .. . ... : ... .. . ... : ... .. . ... : ... .. . ...
ROW E7 : ... .. . ... ... : ... .. . ... : ... .. . ... : ... .. . ... : ... .. . ...
ROW E8 : ... .. . ... ... : ... .. . ... : ... .. . ... : ... .. . ... : ... .. . ...
ROW E9 : ... .. . ... ... : ... .. . ... : ... .. . ... : ... .. . ... : ... .. . ...
ROW EA : ... .. . ... ... : ... .. . ... : ... .. . ... : ... .. . ... : ... .. . ...
ROW EB : ... .. . ... ... : ... .. . ... : ... .. . ... : ... .. . ... : ... .. . ...
ROW EC : ... .. . ... ... : ... .. . ... : ... .. . ... : ... .. . ... : ... .. . ...
ROW ED : ... .. . ... ... : ... .. . ... : ... .. . ... : ... .. . ... : ... .. . ...
ROW EE : ... .. . ... ... : ... .. . ... : ... .. . ... : ... .. . ... : ... .. . ...
ROW EF : ... .. . ... ... : ... .. . ... : ... .. . ... : ... .. . ... : ... .. . ...
ROW F0 : ... .. . ... ... : ... .. . ... : ... .. . ... : ... .. . ... : ... .. . ...
ROW F1 : ... .. . ... ... : ... .. . ... : ... .. . ... : ... .. . ... : ... .. . ...
ROW F2 : ... .. . ... ... : ... .. . ... : ... .. . ... : ... .. . ... : ... .. . ...
ROW F3 : ... .. . ... ... : ... .. . ... : ... .. . ... : ... .. . ... : ... .. . ...
ROW F4 : ... .. . ... ... : ... .. . ... : ... .. . ... : ... .. . ... : ... .. . ...
ROW F5 : ... .. . ... ... : ... .. . ... : ... .. . ... : ... .. . ... : ... .. . ...
ROW F6 : ... .. . ... ... : ... .. . ... : ... .. . ... : ... .. . ... : ... .. . ...
ROW F7 : ... .. . ... ... : ... .. . ... : ... .. . ... : ... .. . ... : ... .. . ...
ROW F8 : ... .. . ... ... : ... .. . ... : ... .. . ... : ... .. . ... : ... .. . ...
ROW F9 : ... .. . ... ... : ... .. . ... : ... .. . ... : ... .. . ... : ... .. . ...
ROW FA : ... .. . ... ... : ... .. . ... : ... .. . ... : ... .. . ... : ... .. . ...
ROW FB : ... .. . ... ... : ... .. . ... : ... .. . ... : ... .. . ... : ... .. . ...
ROW FC : ... .. . ... ... : ... .. . ... : ... .. . ... : ... .. . ... : ... .. . ...
ROW FD : ... .. . ... ... : ... .. . ... : ... .. . ... : ... .. . ... : ... .. . ...
ROW FE : ... .. . ... ... : ... .. . ... : ... .. . ... : ... .. . ... : ... .. . ...
ROW FF : ... .. . ... ... : ... .. . ... : ... .. . ... : ... .. . ... : ... .. . ...

PATTERN 0A
ROW 00 : C-4 00 5 V00 ... : ... .. . ... : ... .. . ... : ... .. . ... : ... .. . ...
ROW 01 : ... .. . ... ... : ... .. . ... : ... .. . ... : ... .. . ... : ... .. . ...
ROW 02 : ... .. . ... ... : ... .. . ... : ... .. . ... : ... .. . ... : ... .. . ...
ROW 03 : ... .. . ... ... : ... .. . ... : ... .. . ... : ... .. . ... : ... .. . ...
ROW 04 : ... .. . ... ... : ... .. . ... : ... .. . ... : ... .. . ... : ... .. . ...
ROW 05 : ... .. . ... ... : ... .. . ... : ... .. . ... : ... .. . ... : ... .. . ...
ROW 06 : ... .. . ... ... : ... .. . ... : ... .. . ... : ... .. . ... : ... .. . ...
ROW 07 : ... .. . ... ... : ... .. . ... : ... .. . ... : ... .. . ... : ... .. . ...
ROW 08 : ... .. . ... ... : ... .. . ... : ... .. . ... : ... .. . ... : ... .. . ...
ROW 09 : ... .. 4 ... ... : ... .. . ... : ... .. . ... : ... .. . ... : ... .. . ...
ROW 0A : ... .. . ... ... : ... .. . ... : ... .. . ... : ... .. . ... : ... .. . ...
ROW 0B : ... .. . ... ... : ... .. . ... : ... .. . ... : ... .. . ... : ... .. . ...
ROW 0C : B-3 00 3 V01 ... : ... .. . ... : ... .. . ... : ... .. . ... : ... .. . ...
ROW 0D : ... .. . ... ... : ... .. . ... : ... .. . ... : ... .. . ... : ... .. . ...
ROW 0E : ... .. . ... ... : ... .. . ... : ... .. . ... : ... .. . ... : ... .. . ...
ROW 0F : ... .. . ... ... : ... .. . ... : ... .. . ... : ... .. . ... : ... .. . ...
ROW 10 : ... .. . ... ... : ... .. . ... : ... .. . ... : ... .. . ... : ... .. . ...
ROW 11 : ... .. . ... ... : ... .. . ... : ... .. . ... : ... .. . ... : ... .. . ...
ROW 12 : ... .. . ... ... : ... .. . ... : ... .. . ... : ... .. . ... : ... .. . ...
ROW 13 : ... .. . ... ... : ... .. . ... : ... .. . ... : ... .. . ... : ... .. . ...
ROW 14 : ... .. . ... ... : ... .. . ... : ... .. . ... : ... .. . ... : ... .. . ...
ROW 15 : ... .. 2 ... ... : ... .. . ... : ... .. . ... : ... .. . ... : ... .. . ...
ROW 16 : ... .. . ... ... : ... .. . ... : ... .. . ... : ... .. . ... : ... .. . ...
ROW 17 : ... .. . ... ... : ... .. . ... : ... .. . ... : ... .. . ... : ... .. . ...
ROW 18 : G-3 00 1 V02 ... : ... .. . ... : ... .. . ... : ... .. . ... : ... .. . ...
ROW 19 : ... .. . ... ... : ... .. . ... : ... .. . ... : ... .. . ... : ... .. . ...
ROW 1A : ... .. . ... ... : ... .. . ... : ... .. . ... : ... .. . ... : ... .. . ...
ROW 1B : ... .. . ... ... : ... .. . ... : ... .. . ... : ... .. . ... : ... .. . ...
ROW 1C : ... .. . ... ... : ... .. . ... : ... .. . ... : ... .. . ... : ... .. . ...
ROW 1D : ... .. . ... ... : ... .. . ... : ... .. . ... : ... .. . ... : ... .. . ...
ROW 1E : ... .. . ... ... : ... .. . ... : ... .. . ... : ... .. . ... : ... .. . ...
ROW 1F : ... .. . ... ... : ... .. . ... : ... .. . ... : ... .. . ... : ... .. . ...
ROW 20 : ... .. . ... ... : ... .. . ... : ... .. . ... : ... .. . ... : ... .. . ...
ROW 21 : ... .. . ... ... : ... .. . ... : ... .. . ... : ... .. . ... : ... .. . ...
ROW 22 : ... .. . ... ... : ... .. . ... : ... .. . ... : ... .. . ... : ... .. . ...
ROW 23 : ... .. . ... ... : ... .. . ... : ... .. . ... : ... .. . ... : ... .. . ...
ROW 24 : ... .. . V03 ... : ... .. . ... : ... .. . ... : ... .. . ... : ... .. . ...
ROW 25 : ... .. . ... ... : ... .. . ... : ... .. . ... : ... .. . ... : ... .. . ...
ROW 26 : ... .. . ... ... : ... .. . ... : ... .. . ... : ... .. . ... : ... .. . ...
ROW 27 : ... .. . ... ... : ... .. . ... : ... .. . ... : ... .. . ... : ... .. . ...
ROW 28 : ... .. . ... ... : ... .. . ... : ... .. . ... : ... .. . ... : ... .. . ...
ROW 29 : ... .. . ... ... : ... .. . ... : ... .. . ... : ... .. . ... : ... .. . ...
ROW 2A : ... .. . ... ... : ... .. . ... : ... .. . ... : ... .. . ... : ... .. . ...
ROW 2B : ... .. . ... ... : ... .. . ... : ... .. . ... : ... .. . ... : ... .. . ...
ROW 2C : ... .. . ... ... : ... .. . ... : ... .. . ... : ... .. . ... : ... .. . ...
ROW 2D : ... .. . ... ... : ... .. . ... : ... .. . ... : ... .. . ... : ... .. . ...
ROW 2E : ... .. . ... ... : ... .. . ... : ... .. . ... : ... .. . ... : ... .. . ...
ROW 2F : ... .. . ... ... : ... .. . ... : ... .. . ... : ... .. . ... : ... .. . ...
ROW 30 : E-4 00 7 V00 ... : ... .. . ... : ... .. . ... : ... .. . ... : ... .. . ...
ROW 31 : ... .. . ... ... : ... .. . ... : ... .. . ... : ... .. . ... : ... .. . ...
ROW 32 : ... .. . ... ... : ... .. . ... : ... .. . ... : ... .. . ... : ... .. . ...
ROW 33 : ... .. . ... ... : ... .. . ... : ... .. . ... : ... .. . ... : ... .. . ...
ROW 34 : ... .. . ... ... : ... .. . ... : ... .. . ... : ... .. . ... : ... .. . ...
ROW 35 : ... .. . ... ... : ... .. . ... : ... .. . ... : ... .. . ... : ... .. . ...
ROW 36 : ... .. . ... ... : ... .. . ... : ... .. . ... : ... .. . ... : ... .. . ...
ROW 37 : ... .. . ... ... : ... .. . ... : ... .. . ... : ... .. . ... : ... .. . ...
ROW 38 : ... .. 5 ... ... : ... .. . ... : ... .. . ... : ... .. . ... : ... .. . ...
ROW 39 : ... .. . ... ... : ... .. . ... : ... .. . ... : ... .. . ... : ... .. . ...
ROW 3A : ... .. . ... ... : ... .. . ... : ... .. . ... : ... .. . ... : ... .. . ...
ROW 3B : ... .. . ... ... : ... .. . ... : ... .. . ... : ... .. . ... : ... .. . ...
ROW 3C : ... .. 3 V01 ... : ... .. . ... : ... .. . ... : ... .. . ... : ... .. . ...
ROW 3D : ... .. . ... ... : ... .. . ... : ... .. . ... : ... .. . ... : ... .. . ...
ROW 3E : ... .. . ... ... : ... .. . ... : ... .. . ... : ... .. . ... : ... .. . ...
ROW 3F : ... .. . ... ... : ... .. . ... : ... .. . ... : ... .. . ... : ... .. . ...
ROW 40 : ... .. . ... ... : ... .. . ... : ... .. . ... : ... .. . ... : ... .. . ...
ROW 41 : ... .. . ... ... : ... .. . ... : ... .. . ... : ... .. . ... : ... .. . ...
ROW 42 : ... .. . ... ... : ... .. . ... : ... .. . ... : ... .. . ... : ... .. . ...
ROW 43 : ... .. . ... ... : ... .. . ... : ... .. . ... : ... .. . ... : ... .. . ...
ROW 44 : ... .. . ... ... : ... .. . ... : ... .. . ... : ... .. . ... : ... .. . ...
ROW 45 : ... .. . ... ... : ... .. . ... : ... .. . ... : ... .. . ... : ... .. . ...
ROW 46 : ... .. . ... ... : ... .. . ... : ... .. . ... : ... .. . ... : ... .. . ...
ROW 47 : ... .. . ... ... : ... .. . ... : ... .. . ... : ... .. . ... : ... .. . ...
ROW 48 : ... .. 4 V02 ... : ... .. . ... : ... .. . ... : ... .. . ... : ... .. . ...
ROW 49 : ... .. . ... ... : ... .. . ... : ... .. . ... : ... .. . ... : ... .. . ...
ROW 4A : ... .. . ... ... : ... .. . ... : ... .. . ... : ... .. . ... : ... .. . ...
ROW 4B : ... .. . ... ... : ... .. . ... : ... .. . ... : ... .. . ... : ... .. . ...
ROW 4C : ... .. . ... ... : ... .. . ... : ... .. . ... : ... .. . ... : ... .. . ...
ROW 4D : ... .. . ... ... : ... .. . ... : ... .. . ... : ... .. . ... : ... .. . ...
ROW 4E : ... .. . ... ... : ... .. . ... : ... .. . ... : ... .. . ... : ... .. . ...
ROW 4F : ... .. . ... ... : ... .. . ... : ... .. . ... : ... .. . ... : ... .. . ...
ROW 50 : ... .. . ... ... : ... .. . ... : ... .. . ... : ... .. . ... : ... .. . ...
ROW 51 : ... .. 4 ... ... : ... .. . ... : ... .. . ... : ... .. . ... : ... .. . ...
ROW 52 : ... .. 5 ... ... : ... .. . ... : ... .. . ... : ... .. . ... : ... .. . ...
ROW 53 : ... .. . ... ... : ... .. . ... : ... .. . ... : ... .. . ... : ... .. . ...
ROW 54 : ... .. 6 V03 ... : ... .. . ... : ... .. . ... : ... .. . ... : ... .. . ...
ROW 55 : ... .. . ... ... : ... .. . ... : ... .. . ... : ... .. . ... : ... .. . ...
ROW 56 : ... .. . ... ... : ... .. . ... : ... .. . ... : ... .. . ... : ... .. . ...
ROW 57 : ... .. 5 ... ... : ... .. . ... : ... .. . ... : ... .. . ... : ... .. . ...
ROW 58 : ... .. . ... ... : ... .. . ... : ... .. . ... : ... .. . ... : ... .. . ...
ROW 59 : ... .. . ... ... : ... .. . ... : ... .. . ... : ... .. . ... : ... .. . ...
ROW 5A : ... .. . ... ... : ... .. . ... : ... .. . ... : ... .. . ... : ... .. . ...
ROW 5B : ... .. 4 ... ... : ... .. . ... : ... .. . ... : ... .. . ... : ... .. . ...
ROW 5C : ... .. . ... ... : ... .. . ... : ... .. . ... : ... .. . ... : ... .. . ...
ROW 5D : ... .. . ... ... : ... .. . ... : ... .. . ... : ... .. . ... : ... .. . ...
ROW 5E : ... .. . ... ... : ... .. . ... : ... .. . ... : ... .. . ... : ... .. . ...
ROW 5F : ... .. 3 ... ... : ... .. . ... : ... .. . ... : ... .. . ... : ... .. . ...
ROW 60 : ... .. . V02 ... : ... .. . ... : ... .. . ... : ... .. . ... : ... .. . ...
ROW 61 : ... .. . ... ... : ... .. . ... : ... .. . ... : ... .. . ... : ... .. . ...
ROW 62 : ... .. . ... ... : ... .. . ... : ... .. . ... : ... .. . ... : ... .. . ...
ROW 63 : ... .. . ... ... : ... .. . ... : ... .. . ... : ... .. . ... : ... .. . ...
ROW 64 : ... .. . ... ... : ... .. . ... : ... .. . ... : ... .. . ... : ... .. . ...
ROW 65 : ... .. 2 ... ... : ... .. . ... : ... .. . ... : ... .. . ... : ... .. . ...
ROW 66 : ... .. . ... ... : ... .. . ... : ... .. . ... : ... .. . ... : ... .. . ...
ROW 67 : ... .. . ... ... : ... .. . ... : ... .. . ... : ... .. . ... : ... .. . ...
ROW 68 : ... .. . ... ... : ... .. . ... : ... .. . ... : ... .. . ... : ... .. . ...
ROW 69 : ... .. . ... ... : ... .. . ... : ... .. . ... : ... .. . ... : ... .. . ...
ROW 6A : ... .. . ... ... : ... .. . ... : ... .. . ... : ... .. . ... : ... .. . ...
ROW 6B : ... .. . ... ... : ... .. . ... : ... .. . ... : ... .. . ... : ... .. . ...
ROW 6C : ... .. . V01 ... : ... .. . ... : ... .. . ... : ... .. . ... : ... .. . ...
ROW 6D : ... .. . ... ... : ... .. . ... : ... .. . ... : ... .. . ... : ... .. . ...
ROW 6E : ... .. . ... ... : ... .. . ... : ... .. . ... : ... .. . ... : ... .. . ...
ROW 6F : ... .. . ... ... : ... .. . ... : ... .. . ... : ... .. . ... : ... .. . ...
ROW 70 : ... .. . ... ... : ... .. . ... : ... .. . ... : ... .. . ... : ... .. . ...
ROW 71 : ... .. . ... ... : ... .. . ... : ... .. . ... : ... .. . ... : ... .. . ...
ROW 72 : ... .. . ... ... : ... .. . ... : ... .. . ... : ... .. . ... : ... .. . ...
ROW 73 : ... .. . ... ... : ... .. . ... : ... .. . ... : ... .. . ... : ... .. . ...
ROW 74 : ... .. . ... ... : ... .. . ... : ... .. . ... : ... .. . ... : ... .. . ...
ROW 75 : ... .. . ... ... : ... .. . ... : ... .. . ... : ... .. . ... : ... .. . ...
ROW 76 : ... .. . ... ... : ... .. . ... : ... .. . ... : ... .. . ... : ... .. . ...
ROW 77 : ... .. . ... ... : ... .. . ... : ... .. . ... : ... .. . ... : ... .. . ...
ROW 78 : ... .. 7 V00 ... : ... .. . ... : ... .. . ... : ... .. . ... : ... .. . ...
ROW 79 : ... .. . ... ... : ... .. . ... : ... .. . ... : ... .. . ... : ... .. . ...
ROW 7A : ... .. . ... ... : ... .. . ... : ... .. . ... : ... .. . ... : ... .. . ...
ROW 7B : ... .. . ... ... : ... .. . ... : ... .. . ... : ... .. . ... : ... .. . ...
ROW 7C : ... .. . ... ... : ... .. . ... : ... .. . ... : ... .. . ... : ... .. . ...
ROW 7D : ... .. . ... ... : ... .. . ... : ... .. . ... : ... .. . ... : ... .. . ...
ROW 7E : ... .. . ... ... : ... .. . ... : ... .. . ... : ... .. . ... : ... .. . ...
ROW 7F : ... .. . ... ... : ... .. . ... : ... .. . ... : ... .. . ... : ... .. . ...
ROW 80 : ... .. 5 ... ... : ... .. . ... : ... .. . ... : ... .. . ... : ... .. . ...
ROW 81 : ... .. . ... ... : ... .. . ... : ... .. . ... : ... .. . ... : ... .. . ...
ROW 82 : ... .. . ... ... : ... .. . ... : ... .. . ... : ... .. . ... : ... .. . ...
ROW 83 : ... .. . ... ... : ... .. . ... : ... .. . ... : ... .. . ... : ... .. . ...
ROW 84 : ... .. 4 V01 ... : ... .. . ... : ... .. . ... : ... .. . ... : ... .. . ...
ROW 85 : ... .. . ... ... : ... .. . ... : ... .. . ... : ... .. . ... : ... .. . ...
ROW 86 : ... .. . ... ... : ... .. . ... : ... .. . ... : ... .. . ... : ... .. . ...
ROW 87 : ... .. . ... ... : ... .. . ... : ... .. . ... : ... .. . ... : ... .. . ...
ROW 88 : ... .. . ... ... : ... .. . ... : ... .. . ... : ... .. . ... : ... .. . ...
ROW 89 : ... .. . ... ... : ... .. . ... : ... .. . ... : ... .. . ... : ... .. . ...
ROW 8A : ... .. . ... ... : ... .. . ... : ... .. . ... : ... .. . ... : ... .. . ...
ROW 8B : ... .. . ... ... : ... .. . ... : ... .. . ... : ... .. . ... : ... .. . ...
ROW 8C : ... .. . ... ... : ... .. . ... : ... .. . ... : ... .. . ... : ... .. . ...
ROW 8D : ... .. . ... ... : ... .. . ... : ... .. . ... : ... .. . ... : ... .. . ...
ROW 8E : ... .. . ... ... : ... .. . ... : ... .. . ... : ... .. . ... : ... .. . ...
ROW 8F : ... .. . ... ... : ... .. . ... : ... .. . ... : ... .. . ... : ... .. . ...
ROW 90 : ... .. 5 V02 ... : ... .. . ... : ... .. . ... : ... .. . ... : ... .. . ...
ROW 91 : ... .. . ... ... : ... .. . ... : ... .. . ... : ... .. . ... : ... .. . ...
ROW 92 : ... .. . ... ... : ... .. . ... : ... .. . ... : ... .. . ... : ... .. . ...
ROW 93 : ... .. . ... ... : ... .. . ... : ... .. . ... : ... .. . ... : ... .. . ...
ROW 94 : ... .. . ... ... : ... .. . ... : ... .. . ... : ... .. . ... : ... .. . ...
ROW 95 : ... .. . ... ... : ... .. . ... : ... .. . ... : ... .. . ... : ... .. . ...
ROW 96 : ... .. . ... ... : ... .. . ... : ... .. . ... : ... .. . ... : ... .. . ...
ROW 97 : ... .. . ... ... : ... .. . ... : ... .. . ... : ... .. . ... : ... .. . ...
ROW 98 : ... .. 4 ... ... : ... .. . ... : ... .. . ... : ... .. . ... : ... .. . ...
ROW 99 : ... .. . ... ... : ... .. . ... : ... .. . ... : ... .. . ... : ... .. . ...
ROW 9A : ... .. . ... ... : ... .. . ... : ... .. . ... : ... .. . ... : ... .. . ...
ROW 9B : ... .. . ... ... : ... .. . ... : ... .. . ... : ... .. . ... : ... .. . ...
ROW 9C : ... .. 3 V01 ... : ... .. . ... : ... .. . ... : ... .. . ... : ... .. . ...
ROW 9D : ... .. . ... ... : ... .. . ... : ... .. . ... : ... .. . ... : ... .. . ...
ROW 9E : ... .. . ... ... : ... .. . ... : ... .. . ... : ... .. . ... : ... .. . ...
ROW 9F : ... .. . ... ... : ... .. . ... : ... .. . ... : ... .. . ... : ... .. . ...
ROW A0 : ... .. . ... ... : ... .. . ... : ... .. . ... : ... .. . ... : ... .. . ...
ROW A1 : ... .. . ... ... : ... .. . ... : ... .. . ... : ... .. . ... : ... .. . ...
ROW A2 : ... .. . ... ... : ... .. . ... : ... .. . ... : ... .. . ... : ... .. . ...
ROW A3 : ... .. . ... ... : ... .. . ... : ... .. . ... : ... .. . ... : ... .. . ...
ROW A4 : ... .. . ... ... : ... .. . ... : ... .. . ... : ... .. . ... : ... .. . ...
ROW A5 : ... .. . ... ... : ... .. . ... : ... .. . ... : ... .. . ... : ... .. . ...
ROW A6 : ... .. . ... ... : ... .. . ... : ... .. . ... : ... .. . ... : ... .. . ...
ROW A7 : ... .. . ... ... : ... .. . ... : ... .. . ... : ... .. . ... : ... .. . ...
ROW A8 : ... .. 7 V00 ... : ... .. . ... : ... .. . ... : ... .. . ... : ... .. . ...
ROW A9 : ... .. . ... ... : ... .. . ... : ... .. . ... : ... .. . ... : ... .. . ...
ROW AA : ... .. . ... ... : ... .. . ... : ... .. . ... : ... .. . ... : ... .. . ...
ROW AB : ... .. . ... ... : ... .. . ... : ... .. . ... : ... .. . ... : ... .. . ...
ROW AC : ... .. . ... ... : ... .. . ... : ... .. . ... : ... .. . ... : ... .. . ...
ROW AD : ... .. . ... ... : ... .. . ... : ... .. . ... : ... .. . ... : ... .. . ...
ROW AE : ... .. . ... ... : ... .. . ... : ... .. . ... : ... .. . ... : ... .. . ...
ROW AF : ... .. . ... ... : ... .. . ... : ... .. . ... : ... .. . ... : ... .. . ...
ROW B0 : ... .. . ... ... : ... .. . ... : ... .. . ... : ... .. . ... : ... .. . ...
ROW B1 : ... .. 6 ... ... : ... .. . ... : ... .. . ... : ... .. . ... : ... .. . ...
ROW B2 : ... .. . ... ... : ... .. . ... : ... .. . ... : ... .. . ... : ... .. . ...
ROW B3 : ... .. . ... ... : ... .. . ... : ... .. . ... : ... .. . ... : ... .. . ...
ROW B4 : ... .. 4 V02 ... : ... .. . ... : ... .. . ... : ... .. . ... : ... .. . ...
ROW B5 : ... .. . ... ... : ... .. . ... : ... .. . ... : ... .. . ... : ... .. . ...
ROW B6 : ... .. . ... ... : ... .. . ... : ... .. . ... : ... .. . ... : ... .. . ...
ROW B7 : ... .. . ... ... : ... .. . ... : ... .. . ... : ... .. . ... : ... .. . ...
ROW B8 : ... .. . ... ... : ... .. . ... : ... .. . ... : ... .. . ... : ... .. . ...
ROW B9 : ... .. . ... ... : ... .. . ... : ... .. . ... : ... .. . ... : ... .. . ...
ROW BA : ... .. 3 ... ... : ... .. . ... : ... .. . ... : ... .. . ... : ... .. . ...
ROW BB : ... .. . ... ... : ... .. . ... : ... .. . ... : ... .. . ... : ... .. . ...
ROW BC : ... .. . ... ... : ... .. . ... : ... .. . ... : ... .. . ... : ... .. . ...
ROW BD : ... .. . ... ... : ... .. . ... : ... .. . ... : ... .. . ... : ... .. . ...
ROW BE : ... .. . ... ... : ... .. . ... : ... .. . ... : ... .. . ... : ... .. . ...
ROW BF : ... .. . ... ... : ... .. . ... : ... .. . ... : ... .. . ... : ... .. . ...
ROW C0 : ... .. . ... ... : ... .. . ... : ... .. . ... : ... .. . ... : ... .. . ...
ROW C1 : ... .. . ... ... : ... .. . ... : ... .. . ... : ... .. . ... : ... .. . ...
ROW C2 : ... .. . ... ... : ... .. . ... : ... .. . ... : ... .. . ... : ... .. . ...
ROW C3 : ... .. . ... ... : ... .. . ... : ... .. . ... : ... .. . ... : ... .. . ...
ROW C4 : ... .. . ... ... : ... .. . ... : ... .. . ... : ... .. . ... : ... .. . ...
ROW C5 : ... .. . ... ... : ... .. . ... : ... .. . ... : ... .. . ... : ... .. . ...
ROW C6 : ... .. . ... ... : ... .. . ... : ... .. . ... : ... .. . ... : ... .. . ...
ROW C7 : ... .. . ... ... : ... .. . ... : ... .. . ... : ... .. . ... : ... .. . ...
ROW C8 : ... .. . ... ... : ... .. . ... : ... .. . ... : ... .. . ... : ... .. . ...
ROW C9 : ... .. . ... ... : ... .. . ... : ... .. . ... : ... .. . ... : ... .. . ...
ROW CA : ... .. . ... ... : ... .. . ... : ... .. . ... : ... .. . ... : ... .. . ...
ROW CB : ... .. . ... ... : ... .. . ... : ... .. . ... : ... .. . ... : ... .. . ...
ROW CC : ... .. . ... ... : ... .. . ... : ... .. . ... : ... .. . ... : ... .. . ...
ROW CD : ... .. . ... ... : ... .. . ... : ... .. . ... : ... .. . ... : ... .. . ...
ROW CE : ... .. . ... ... : ... .. . ... : ... .. . ... : ... .. . ... : ... .. . ...
ROW CF : ... .. . ... ... : ... .. . ... : ... .. . ... : ... .. . ... : ... .. . ...
ROW D0 : ... .. . ... ... : ... .. . ... : ... .. . ... : ... .. . ... : ... .. . ...
ROW D1 : ... .. . ... ... : ... .. . ... : ... .. . ... : ... .. . ... : ... .. . ...
ROW D2 : ... .. . ... ... : ... .. . ... : ... .. . ... : ... .. . ... : ... .. . ...
ROW D3 : ... .. . ... ... : ... .. . ... : ... .. . ... : ... .. . ... : ... .. . ...
ROW D4 : ... .. . ... ... : ... .. . ... : ... .. . ... : ... .. . ... : ... .. . ...
ROW D5 : ... .. . ... ... : ... .. . ... : ... .. . ... : ... .. . ... : ... .. . ...
ROW D6 : ... .. . ... ... : ... .. . ... : ... .. . ... : ... .. . ... : ... .. . ...
ROW D7 : ... .. . ... ... : ... .. . ... : ... .. . ... : ... .. . ... : ... .. . ...
ROW D8 : ... .. . ... ... : ... .. . ... : ... .. . ... : ... .. . ... : ... .. . ...
ROW D9 : ... .. . ... ... : ... .. . ... : ... .. . ... : ... .. . ... : ... .. . ...
ROW DA : ... .. . ... ... : ... .. . ... : ... .. . ... : ... .. . ... : ... .. . ...
ROW DB : ... .. . ... ... : ... .. . ... : ... .. . ... : ... .. . ... : ... .. . ...
ROW DC : ... .. . ... ... : ... .. . ... : ... .. . ... : ... .. . ... : ... .. . ...
ROW DD : ... .. . ... ... : ... .. . ... : ... .. . ... : ... .. . ... : ... .. . ...
ROW DE : ... .. . ... ... : ... .. . ... : ... .. . ... : ... .. . ... : ... .. . ...
ROW DF : ... .. . ... ... : ... .. . ... : ... .. . ... : ... .. . ... : ... .. . ...
ROW E0 : ... .. . ... ... : ... .. . ... : ... .. . ... : ... .. . ... : ... .. . ...
ROW E1 : ... .. . ... ... : ... .. . ... : ... .. . ... : ... .. . ... : ... .. . ...
ROW E2 : ... .. . ... ... : ... .. . ... : ... .. . ... : ... .. . ... : ... .. . ...
ROW E3 : ... .. . ... ... : ... .. . ... : ... .. . ... : ... .. . ... : ... .. . ...
ROW E4 : ... .. . ... ... : ... .. . ... : ... .. . ... : ... .. . ... : ... .. . ...
ROW E5 : ... .. . ... ... : ... .. . ... : ... .. . ... : ... .. . ... : ... .. . ...
ROW E6 : ... .. . ... ... : ... .. . ... : ... .. . ... : ... .. . ... : ... .. . ...
ROW E7 : ... .. . ... ... : ... .. . ... : ... .. . ... : ... .. . ... : ... .. . ...
ROW E8 : ... .. . ... ... : ... .. . ... : ... .. . ... : ... .. . ... : ... .. . ...
ROW E9 : ... .. . ... ... : ... .. . ... : ... .. . ... : ... .. . ... : ... .. . ...
ROW EA : ... .. . ... ... : ... .. . ... : ... .. . ... : ... .. . ... : ... .. . ...
ROW EB : ... .. . ... ... : ... .. . ... : ... .. . ... : ... .. . ... : ... .. . ...
ROW EC : ... .. . ... ... : ... .. . ... : ... .. . ... : ... .. . ... : ... .. . ...
ROW ED : ... .. . ... ... : ... .. . ... : ... .. . ... : ... .. . ... : ... .. . ...
ROW EE : ... .. . ... ... : ... .. . ... : ... .. . ... : ... .. . ... : ... .. . ...
ROW EF : ... .. . ... ... : ... .. . ... : ... .. . ... : ... .. . ... : ... .. . ...
ROW F0 : ... .. . ... ... : ... .. . ... : ... .. . ... : ... .. . ... : ... .. . ...
ROW F1 : ... .. . ... ... : ... .. . ... : ... .. . ... : ... .. . ... : ... .. . ...
ROW F2 : ... .. . ... ... : ... .. . ... : ... .. . ... : ... .. . ... : ... .. . ...
ROW F3 : ... .. . ... ... : ... .. . ... : ... .. . ... : ... .. . ... : ... .. . ...
ROW F4 : ... .. . ... ... : ... .. . ... : ... .. . ... : ... .. . ... : ... .. . ...
ROW F5 : ... .. . ... ... : ... .. . ... : ... .. . ... : ... .. . ... : ... .. . ...
ROW F6 : ... .. . ... ... : ... .. . ... : ... .. . ... : ... .. . ... : ... .. . ...
ROW F7 : ... .. . ... ... : ... .. . ... : ... .. . ... : ... .. . ... : ... .. . ...
ROW F8 : ... .. . ... ... : ... .. . ... : ... .. . ... : ... .. . ... : ... .. . ...
ROW F9 : ... .. . ... ... : ... .. . ... : ... .. . ... : ... .. . ... : ... .. . ...
ROW FA : ... .. . ... ... : ... .. . ... : ... .. . ... : ... .. . ... : ... .. . ...
ROW FB : ... .. . ... ... : ... .. . ... : ... .. . ... : ... .. . ... : ... .. . ...
ROW FC : ... .. . ... ... : ... .. . ... : ... .. . ... : ... .. . ... : ... .. . ...
ROW FD : ... .. . ... ... : ... .. . ... : ... .. . ... : ... .. . ... : ... .. . ...
ROW FE : ... .. . ... ... : ... .. . ... : ... .. . ... : ... .. . ... : ... .. . ...
ROW FF : ... .. . ... ... : ... .. . ... : ... .. . ... : ... .. . ... : ... .. . ...

PATTERN 0B
ROW 00 : E-4 00 7 V00 ... : ... .. . ... : ... .. . ... : ... .. . ... : ... .. . ...
ROW 01 : ... .. . ... ... : ... .. . ... : ... .. . ... : ... .. . ... : ... .. . ...
ROW 02 : ... .. . ... ... : ... .. . ... : ... .. . ... : ... .. . ... : ... .. . ...
ROW 03 : ... .. . ... ... : ... .. . ... : ... .. . ... : ... .. . ... : ... .. . ...
ROW 04 : ... .. . ... ... : ... .. . ... : ... .. . ... : ... .. . ... : ... .. . ...
ROW 05 : ... .. . ... ... : ... .. . ... : ... .. . ... : ... .. . ... : ... .. . ...
ROW 06 : ... .. . ... ... : ... .. . ... : ... .. . ... : ... .. . ... : ... .. . ...
ROW 07 : ... .. . ... ... : ... .. . ... : ... .. . ... : ... .. . ... : ... .. . ...
ROW 08 : ... .. . ... ... : ... .. . ... : ... .. . ... : ... .. . ... : ... .. . ...
ROW 09 : ... .. 6 ... ... : ... .. . ... : ... .. . ... : ... .. . ... : ... .. . ...
ROW 0A : ... .. . ... ... : ... .. . ... : ... .. . ... : ... .. . ... : ... .. . ...
ROW 0B : ... .. . ... ... : ... .. . ... : ... .. . ... : ... .. . ... : ... .. . ...
ROW 0C : D-4 00 5 V01 ... : ... .. . ... : ... .. . ... : ... .. . ... : ... .. . ...
ROW 0D : ... .. . ... ... : ... .. . ... : ... .. . ... : ... .. . ... : ... .. . ...
ROW 0E : ... .. . ... ... : ... .. . ... : ... .. . ... : ... .. . ... : ... .. . ...
ROW 0F : ... .. . ... ... : ... .. . ... : ... .. . ... : ... .. . ... : ... .. . ...
ROW 10 : ... .. . ... ... : ... .. . ... : ... .. . ... : ... .. . ... : ... .. . ...
ROW 11 : ... .. . ... ... : ... .. . ... : ... .. . ... : ... .. . ... : ... .. . ...
ROW 12 : ... .. . ... ... : ... .. . ... : ... .. . ... : ... .. . ... : ... .. . ...
ROW 13 : ... .. . ... ... : ... .. . ... : ... .. . ... : ... .. . ... : ... .. . ...
ROW 14 : ... .. . ... ... : ... .. . ... : ... .. . ... : ... .. . ... : ... .. . ...
ROW 15 : ... .. 4 ... ... : ... .. . ... : ... .. . ... : ... .. . ... : ... .. . ...
ROW 16 : ... .. . ... ... : ... .. . ... : ... .. . ... : ... .. . ... : ... .. . ...
ROW 17 : ... .. . ... ... : ... .. . ... : ... .. . ... : ... .. . ... : ... .. . ...
ROW 18 : E-4 00 6 V03 ... : ... .. . ... : ... .. . ... : ... .. . ... : ... .. . ...
ROW 19 : ... .. . ... ... : ... .. . ... : ... .. . ... : ... .. . ... : ... .. . ...
ROW 1A : ... .. . ... ... : ... .. . ... : ... .. . ... : ... .. . ... : ... .. . ...
ROW 1B : ... .. . ... ... : ... .. . ... : ... .. . ... : ... .. . ... : ... .. . ...
ROW 1C : ... .. . ... ... : ... .. . ... : ... .. . ... : ... .. . ... : ... .. . ...
ROW 1D : ... .. . ... ... : ... .. . ... : ... .. . ... : ... .. . ... : ... .. . ...
ROW 1E : ... .. . ... ... : ... .. . ... : ... .. . ... : ... .. . ... : ... .. . ...
ROW 1F : ... .. . ... ... : ... .. . ... : ... .. . ... : ... .. . ... : ... .. . ...
ROW 20 : ... .. . ... ... : ... .. . ... : ... .. . ... : ... .. . ... : ... .. . ...
ROW 21 : ... .. . ... ... : ... .. . ... : ... .. . ... : ... .. . ... : ... .. . ...
ROW 22 : ... .. . ... ... : ... .. . ... : ... .. . ... : ... .. . ... : ... .. . ...
ROW 23 : ... .. . ... ... : ... .. . ... : ... .. . ... : ... .. . ... : ... .. . ...
ROW 24 : D-4 00 . V02 ... : ... .. . ... : ... .. . ... : ... .. . ... : ... .. . ...
ROW 25 : ... .. . ... ... : ... .. . ... : ... .. . ... : ... .. . ... : ... .. . ...
ROW 26 : ... .. . ... ... : ... .. . ... : ... .. . ... : ... .. . ... : ... .. . ...
ROW 27 : ... .. . ... ... : ... .. . ... : ... .. . ... : ... .. . ... : ... .. . ...
ROW 28 : ... .. . ... ... : ... .. . ... : ... .. . ... : ... .. . ... : ... .. . ...
ROW 29 : ... .. . ... ... : ... .. . ... : ... .. . ... : ... .. . ... : ... .. . ...
ROW 2A : ... .. . ... ... : ... .. . ... : ... .. . ... : ... .. . ... : ... .. . ...
ROW 2B : ... .. . ... ... : ... .. . ... : ... .. . ... : ... .. . ... : ... .. . ...
ROW 2C : ... .. . ... ... : ... .. . ... : ... .. . ... : ... .. . ... : ... .. . ...
ROW 2D : ... .. . ... ... : ... .. . ... : ... .. . ... : ... .. . ... : ... .. . ...
ROW 2E : ... .. . ... ... : ... .. . ... : ... .. . ... : ... .. . ... : ... .. . ...
ROW 2F : ... .. . ... ... : ... .. . ... : ... .. . ... : ... .. . ... : ... .. . ...
ROW 30 : ... .. 5 V00 ... : ... .. . ... : ... .. . ... : ... .. . ... : ... .. . ...
ROW 31 : ... .. . ... ... : ... .. . ... : ... .. . ... : ... .. . ... : ... .. . ...
ROW 32 : ... .. . ... ... : ... .. . ... : ... .. . ... : ... .. . ... : ... .. . ...
ROW 33 : ... .. . ... ... : ... .. . ... : ... .. . ... : ... .. . ... : ... .. . ...
ROW 34 : ... .. . ... ... : ... .. . ... : ... .. . ... : ... .. . ... : ... .. . ...
ROW 35 : ... .. . ... ... : ... .. . ... : ... .. . ... : ... .. . ... : ... .. . ...
ROW 36 : ... .. . ... ... : ... .. . ... : ... .. . ... : ... .. . ... : ... .. . ...
ROW 37 : ... .. . ... ... : ... .. . ... : ... .. . ... : ... .. . ... : ... .. . ...
ROW 38 : ... .. . ... ... : ... .. . ... : ... .. . ... : ... .. . ... : ... .. . ...
ROW 39 : ... .. 3 ... ... : ... .. . ... : ... .. . ... : ... .. . ... : ... .. . ...
ROW 3A : ... .. . ... ... : ... .. . ... : ... .. . ... : ... .. . ... : ... .. . ...
ROW 3B : ... .. . ... ... : ... .. . ... : ... .. . ... : ... .. . ... : ... .. . ...
ROW 3C : ... .. 2 V03 ... : ... .. . ... : ... .. . ... : ... .. . ... : ... .. . ...
ROW 3D : ... .. . ... ... : ... .. . ... : ... .. . ... : ... .. . ... : ... .. . ...
ROW 3E : ... .. . ... ... : ... .. . ... : ... .. . ... : ... .. . ... : ... .. . ...
ROW 3F : ... .. . ... ... : ... .. . ... : ... .. . ... : ... .. . ... : ... .. . ...
ROW 40 : ... .. . ... ... : ... .. . ... : ... .. . ... : ... .. . ... : ... .. . ...
ROW 41 : ... .. . ... ... : ... .. . ... : ... .. . ... : ... .. . ... : ... .. . ...
ROW 42 : ... .. . ... ... : ... .. . ... : ... .. . ... : ... .. . ... : ... .. . ...
ROW 43 : ... .. . ... ... : ... .. . ... : ... .. . ... : ... .. . ... : ... .. . ...
ROW 44 : ... .. . ... ... : ... .. . ... : ... .. . ... : ... .. . ... : ... .. . ...
ROW 45 : ... .. . ... ... : ... .. . ... : ... .. . ... : ... .. . ... : ... .. . ...
ROW 46 : ... .. . ... ... : ... .. . ... : ... .. . ... : ... .. . ... : ... .. . ...
ROW 47 : ... .. . ... ... : ... .. . ... : ... .. . ... : ... .. . ... : ... .. . ...
ROW 48 : E-4 00 6 V00 ... : ... .. . ... : ... .. . ... : ... .. . ... : ... .. . ...
ROW 49 : ... .. . ... ... : ... .. . ... : ... .. . ... : ... .. . ... : ... .. . ...
ROW 4A : ... .. . ... ... : ... .. . ... : ... .. . ... : ... .. . ... : ... .. . ...
ROW 4B : ... .. . ... ... : ... .. . ... : ... .. . ... : ... .. . ... : ... .. . ...
ROW 4C : ... .. . ... ... : ... .. . ... : ... .. . ... : ... .. . ... : ... .. . ...
ROW 4D : ... .. . ... ... : ... .. . ... : ... .. . ... : ... .. . ... : ... .. . ...
ROW 4E : ... .. . ... ... : ... .. . ... : ... .. . ... : ... .. . ... : ... .. . ...
ROW 4F : ... .. . ... ... : ... .. . ... : ... .. . ... : ... .. . ... : ... .. . ...
ROW 50 : ... .. . ... ... : ... .. . ... : ... .. . ... : ... .. . ... : ... .. . ...
ROW 51 : ... .. 6 ... ... : ... .. . ... : ... .. . ... : ... .. . ... : ... .. . ...
ROW 52 : ... .. 7 ... ... : ... .. . ... : ... .. . ... : ... .. . ... : ... .. . ...
ROW 53 : ... .. . ... ... : ... .. . ... : ... .. . ... : ... .. . ... : ... .. . ...
ROW 54 : D-4 00 8 V01 ... : ... .. . ... : ... .. . ... : ... .. . ... : ... .. . ...
ROW 55 : ... .. . ... ... : ... .. . ... : ... .. . ... : ... .. . ... : ... .. . ...
ROW 56 : ... .. . ... ... : ... .. . ... : ... .. . ... : ... .. . ... : ... .. . ...
ROW 57 : ... .. 7 ... ... : ... .. . ... : ... .. . ... : ... .. . ... : ... .. . ...
ROW 58 : ... .. . ... ... : ... .. . ... : ... .. . ... : ... .. . ... : ... .. . ...
ROW 59 : ... .. . ... ... : ... .. . ... : ... .. . ... : ... .. . ... : ... .. . ...
ROW 5A : ... .. . ... ... : ... .. . ... : ... .. . ... : ... .. . ... : ... .. . ...
ROW 5B : ... .. 6 ... ... : ... .. . ... : ... .. . ... : ... .. . ... : ... .. . ...
ROW 5C : ... .. . ... ... : ... .. . ... : ... .. . ... : ... .. . ... : ... .. . ...
ROW 5D : ... .. . ... ... : ... .. . ... : ... .. . ... : ... .. . ... : ... .. . ...
ROW 5E : ... .. . ... ... : ... .. . ... : ... .. . ... : ... .. . ... : ... .. . ...
ROW 5F : ... .. 5 ... ... : ... .. . ... : ... .. . ... : ... .. . ... : ... .. . ...
ROW 60 : E-4 00 . V02 ... : ... .. . ... : ... .. . ... : ... .. . ... : ... .. . ...
ROW 61 : ... .. . ... ... : ... .. . ... : ... .. . ... : ... .. . ... : ... .. . ...
ROW 62 : ... .. . ... ... : ... .. . ... : ... .. . ... : ... .. . ... : ... .. . ...
ROW 63 : ... .. . ... ... : ... .. . ... : ... .. . ... : ... .. . ... : ... .. . ...
ROW 64 : ... .. . ... ... : ... .. . ... : ... .. . ... : ... .. . ... : ... .. . ...
ROW 65 : ... .. 4 ... ... : ... .. . ... : ... .. . ... : ... .. . ... : ... .. . ...
ROW 66 : ... .. . ... ... : ... .. . ... : ... .. . ... : ... .. . ... : ... .. . ...
ROW 67 : ... .. . ... ... : ... .. . ... : ... .. . ... : ... .. . ... : ... .. . ...
ROW 68 : ... .. . ... ... : ... .. . ... : ... .. . ... : ... .. . ... : ... .. . ...
ROW 69 : ... .. . ... ... : ... .. . ... : ... .. . ... : ... .. . ... : ... .. . ...
ROW 6A : ... .. . ... ... : ... .. . ... : ... .. . ... : ... .. . ... : ... .. . ...
ROW 6B : ... .. . ... ... : ... .. . ... : ... .. . ... : ... .. . ... : ... .. . ...
ROW 6C : D-4 00 . V03 ... : ... .. . ... : ... .. . ... : ... .. . ... : ... .. . ...
ROW 6D : ... .. . ... ... : ... .. . ... : ... .. . ... : ... .. . ... : ... .. . ...
ROW 6E : ... .. . ... ... : ... .. . ... : ... .. . ... : ... .. . ... : ... .. . ...
ROW 6F : ... .. . ... ... : ... .. . ... : ... .. . ... : ... .. . ... : ... .. . ...
ROW 70 : ... .. . ... ... : ... .. . ... : ... .. . ... : ... .. . ... : ... .. . ...
ROW 71 : ... .. . ... ... : ... .. . ... : ... .. . ... : ... .. . ... : ... .. . ...
ROW 72 : ... .. . ... ... : ... .. . ... : ... .. . ... : ... .. . ... : ... .. . ...
ROW 73 : ... .. . ... ... : ... .. . ... : ... .. . ... : ... .. . ... : ... .. . ...
ROW 74 : ... .. . ... ... : ... .. . ... : ... .. . ... : ... .. . ... : ... .. . ...
ROW 75 : ... .. . ... ... : ... .. . ... : ... .. . ... : ... .. . ... : ... .. . ...
ROW 76 : ... .. . ... ... : ... .. . ... : ... .. . ... : ... .. . ... : ... .. . ...
ROW 77 : ... .. . ... ... : ... .. . ... : ... .. . ... : ... .. . ... : ... .. . ...
ROW 78 : ... .. . V00 ... : ... .. . ... : ... .. . ... : ... .. . ... : ... .. . ...
ROW 79 : ... .. . ... ... : ... .. . ... : ... .. . ... : ... .. . ... : ... .. . ...
ROW 7A : ... .. . ... ... : ... .. . ... : ... .. . ... : ... .. . ... : ... .. . ...
ROW 7B : ... .. . ... ... : ... .. . ... : ... .. . ... : ... .. . ... : ... .. . ...
ROW 7C : ... .. . ... ... : ... .. . ... : ... .. . ... : ... .. . ... : ... .. . ...
ROW 7D : ... .. . ... ... : ... .. . ... : ... .. . ... : ... .. . ... : ... .. . ...
ROW 7E : ... .. . ... ... : ... .. . ... : ... .. . ... : ... .. . ... : ... .. . ...
ROW 7F : ... .. . ... ... : ... .. . ... : ... .. . ... : ... .. . ... : ... .. . ...
ROW 80 : ... .. . ... ... : ... .. . ... : ... .. . ... : ... .. . ... : ... .. . ...
ROW 81 : ... .. . ... ... : ... .. . ... : ... .. . ... : ... .. . ... : ... .. . ...
ROW 82 : ... .. . ... ... : ... .. . ... : ... .. . ... : ... .. . ... : ... .. . ...
ROW 83 : ... .. . ... ... : ... .. . ... : ... .. . ... : ... .. . ... : ... .. . ...
ROW 84 : ... .. . V02 ... : ... .. . ... : ... .. . ... : ... .. . ... : ... .. . ...
ROW 85 : ... .. . ... ... : ... .. . ... : ... .. . ... : ... .. . ... : ... .. . ...
ROW 86 : ... .. . ... ... : ... .. . ... : ... .. . ... : ... .. . ... : ... .. . ...
ROW 87 : ... .. . ... ... : ... .. . ... : ... .. . ... : ... .. . ... : ... .. . ...
ROW 88 : ... .. . ... ... : ... .. . ... : ... .. . ... : ... .. . ... : ... .. . ...
ROW 89 : ... .. . ... ... : ... .. . ... : ... .. . ... : ... .. . ... : ... .. . ...
ROW 8A : ... .. . ... ... : ... .. . ... : ... .. . ... : ... .. . ... : ... .. . ...
ROW 8B : ... .. . ... ... : ... .. . ... : ... .. . ... : ... .. . ... : ... .. . ...
ROW 8C : ... .. . ... ... : ... .. . ... : ... .. . ... : ... .. . ... : ... .. . ...
ROW 8D : ... .. . ... ... : ... .. . ... : ... .. . ... : ... .. . ... : ... .. . ...
ROW 8E : ... .. . ... ... : ... .. . ... : ... .. . ... : ... .. . ... : ... .. . ...
ROW 8F : ... .. . ... ... : ... .. . ... : ... .. . ... : ... .. . ... : ... .. . ...
ROW 90 : ... .. . V00 ... : ... .. . ... : ... .. . ... : ... .. . ... : ... .. . ...
ROW 91 : ... .. . ... ... : ... .. . ... : ... .. . ... : ... .. . ... : ... .. . ...
ROW 92 : ... .. . ... ... : ... .. . ... : ... .. . ... : ... .. . ... : ... .. . ...
ROW 93 : ... .. . ... ... : ... .. . ... : ... .. . ... : ... .. . ... : ... .. . ...
ROW 94 : ... .. . ... ... : ... .. . ... : ... .. . ... : ... .. . ... : ... .. . ...
ROW 95 : ... .. . ... ... : ... .. . ... : ... .. . ... : ... .. . ... : ... .. . ...
ROW 96 : ... .. . ... ... : ... .. . ... : ... .. . ... : ... .. . ... : ... .. . ...
ROW 97 : ... .. . ... ... : ... .. . ... : ... .. . ... : ... .. . ... : ... .. . ...
ROW 98 : ... .. . ... ... : ... .. . ... : ... .. . ... : ... .. . ... : ... .. . ...
ROW 99 : ... .. . ... ... : ... .. . ... : ... .. . ... : ... .. . ... : ... .. . ...
ROW 9A : ... .. . ... ... : ... .. . ... : ... .. . ... : ... .. . ... : ... .. . ...
ROW 9B : ... .. . ... ... : ... .. . ... : ... .. . ... : ... .. . ... : ... .. . ...
ROW 9C : ... .. 1 V01 ... : ... .. . ... : ... .. . ... : ... .. . ... : ... .. . ...
ROW 9D : ... .. . ... ... : ... .. . ... : ... .. . ... : ... .. . ... : ... .. . ...
ROW 9E : ... .. . ... ... : ... .. . ... : ... .. . ... : ... .. . ... : ... .. . ...
ROW 9F : ... .. . ... ... : ... .. . ... : ... .. . ... : ... .. . ... : ... .. . ...
ROW A0 : ... .. . ... ... : ... .. . ... : ... .. . ... : ... .. . ... : ... .. . ...
ROW A1 : ... .. . ... ... : ... .. . ... : ... .. . ... : ... .. . ... : ... .. . ...
ROW A2 : ... .. . ... ... : ... .. . ... : ... .. . ... : ... .. . ... : ... .. . ...
ROW A3 : ... .. . ... ... : ... .. . ... : ... .. . ... : ... .. . ... : ... .. . ...
ROW A4 : ... .. . ... ... : ... .. . ... : ... .. . ... : ... .. . ... : ... .. . ...
ROW A5 : ... .. . ... ... : ... .. . ... : ... .. . ... : ... .. . ... : ... .. . ...
ROW A6 : ... .. . ... ... : ... .. . ... : ... .. . ... : ... .. . ... : ... .. . ...
ROW A7 : ... .. . ... ... : ... .. . ... : ... .. . ... : ... .. . ... : ... .. . ...
ROW A8 : ... .. . V00 ... : ... .. . ... : ... .. . ... : ... .. . ... : ... .. . ...
ROW A9 : ... .. . ... ... : ... .. . ... : ... .. . ... : ... .. . ... : ... .. . ...
ROW AA : ... .. . ... ... : ... .. . ... : ... .. . ... : ... .. . ... : ... .. . ...
ROW AB : ... .. . ... ... : ... .. . ... : ... .. . ... : ... .. . ... : ... .. . ...
ROW AC : ... .. . ... ... : ... .. . ... : ... .. . ... : ... .. . ... : ... .. . ...
ROW AD : ... .. . ... ... : ... .. . ... : ... .. . ... : ... .. . ... : ... .. . ...
ROW AE : ... .. . ... ... : ... .. . ... : ... .. . ... : ... .. . ... : ... .. . ...
ROW AF : ... .. . ... ... : ... .. . ... : ... .. . ... : ... .. . ... : ... .. . ...
ROW B0 : ... .. . ... ... : ... .. . ... : ... .. . ... : ... .. . ... : ... .. . ...
ROW B1 : ... .. . ... ... : ... .. . ... : ... .. . ... : ... .. . ... : ... .. . ...
ROW B2 : ... .. . ... ... : ... .. . ... : ... .. . ... : ... .. . ... : ... .. . ...
ROW B3 : ... .. . ... ... : ... .. . ... : ... .. . ... : ... .. . ... : ... .. . ...
ROW B4 : ... .. . V02 ... : ... .. . ... : ... .. . ... : ... .. . ... : ... .. . ...
ROW B5 : ... .. . ... ... : ... .. . ... : ... .. . ... : ... .. . ... : ... .. . ...
ROW B6 : ... .. . ... ... : ... .. . ... : ... .. . ... : ... .. . ... : ... .. . ...
ROW B7 : ... .. . ... ... : ... .. . ... : ... .. . ... : ... .. . ... : ... .. . ...
ROW B8 : ... .. . ... ... : ... .. . ... : ... .. . ... : ... .. . ... : ... .. . ...
ROW B9 : ... .. . ... ... : ... .. . ... : ... .. . ... : ... .. . ... : ... .. . ...
ROW BA : ... .. . ... ... : ... .. . ... : ... .. . ... : ... .. . ... : ... .. . ...
ROW BB : ... .. . ... ... : ... .. . ... : ... .. . ... : ... .. . ... : ... .. . ...
ROW BC : ... .. . ... ... : ... .. . ... : ... .. . ... : ... .. . ... : ... .. . ...
ROW BD : ... .. . ... ... : ... .. . ... : ... .. . ... : ... .. . ... : ... .. . ...
ROW BE : ... .. . ... ... : ... .. . ... : ... .. . ... : ... .. . ... : ... .. . ...
ROW BF : ... .. . ... ... : ... .. . ... : ... .. . ... : ... .. . ... : ... .. . ...
ROW C0 : ... .. . ... ... : ... .. . ... : ... .. . ... : ... .. . ... : ... .. . ...
ROW C1 : ... .. . ... ... : ... .. . ... : ... .. . ... : ... .. . ... : ... .. . ...
ROW C2 : ... .. . ... ... : ... .. . ... : ... .. . ... : ... .. . ... : ... .. . ...
ROW C3 : ... .. . ... ... : ... .. . ... : ... .. . ... : ... .. . ... : ... .. . ...
ROW C4 : ... .. . ... ... : ... .. . ... : ... .. . ... : ... .. . ... : ... .. . ...
ROW C5 : ... .. . ... ... : ... .. . ... : ... .. . ... : ... .. . ... : ... .. . ...
ROW C6 : ... .. . ... ... : ... .. . ... : ... .. . ... : ... .. . ... : ... .. . ...
ROW C7 : ... .. . ... ... : ... .. . ... : ... .. . ... : ... .. . ... : ... .. . ...
ROW C8 : ... .. . ... ... : ... .. . ... : ... .. . ... : ... .. . ... : ... .. . ...
ROW C9 : ... .. . ... ... : ... .. . ... : ... .. . ... : ... .. . ... : ... .. . ...
ROW CA : ... .. . ... ... : ... .. . ... : ... .. . ... : ... .. . ... : ... .. . ...
ROW CB : ... .. . ... ... : ... .. . ... : ... .. . ... : ... .. . ... : ... .. . ...
ROW CC : ... .. . ... ... : ... .. . ... : ... .. . ... : ... .. . ... : ... .. . ...
ROW CD : ... .. . ... ... : ... .. . ... : ... .. . ... : ... .. . ... : ... .. . ...
ROW CE : ... .. . ... ... : ... .. . ... : ... .. . ... : ... .. . ... : ... .. . ...
ROW CF : ... .. . ... ... : ... .. . ... : ... .. . ... : ... .. . ... : ... .. . ...
ROW D0 : ... .. . ... ... : ... .. . ... : ... .. . ... : ... .. . ... : ... .. . ...
ROW D1 : ... .. . ... ... : ... .. . ... : ... .. . ... : ... .. . ... : ... .. . ...
ROW D2 : ... .. . ... ... : ... .. . ... : ... .. . ... : ... .. . ... : ... .. . ...
ROW D3 : ... .. . ... ... : ... .. . ... : ... .. . ... : ... .. . ... : ... .. . ...
ROW D4 : ... .. . ... ... : ... .. . ... : ... .. . ... : ... .. . ... : ... .. . ...
ROW D5 : ... .. . ... ... : ... .. . ... : ... .. . ... : ... .. . ... : ... .. . ...
ROW D6 : ... .. . ... ... : ... .. . ... : ... .. . ... : ... .. . ... : ... .. . ...
ROW D7 : ... .. . ... ... : ... .. . ... : ... .. . ... : ... .. . ... : ... .. . ...
ROW D8 : ... .. . ... ... : ... .. . ... : ... .. . ... : ... .. . ... : ... .. . ...
ROW D9 : ... .. . ... ... : ... .. . ... : ... .. . ... : ... .. . ... : ... .. . ...
ROW DA : ... .. . ... ... : ... .. . ... : ... .. . ... : ... .. . ... : ... .. . ...
ROW DB : ... .. . ... ... : ... .. . ... : ... .. . ... : ... .. . ... : ... .. . ...
ROW DC : ... .. . ... ... : ... .. . ... : ... .. . ... : ... .. . ... : ... .. . ...
ROW DD : ... .. . ... ... : ... .. . ... : ... .. . ... : ... .. . ... : ... .. . ...
ROW DE : ... .. . ... ... : ... .. . ... : ... .. . ... : ... .. . ... : ... .. . ...
ROW DF : ... .. . ... ... : ... .. . ... : ... .. . ... : ... .. . ... : ... .. . ...
ROW E0 : ... .. . ... ... : ... .. . ... : ... .. . ... : ... .. . ... : ... .. . ...
ROW E1 : ... .. . ... ... : ... .. . ... : ... .. . ... : ... .. . ... : ... .. . ...
ROW E2 : ... .. . ... ... : ... .. . ... : ... .. . ... : ... .. . ... : ... .. . ...
ROW E3 : ... .. . ... ... : ... .. . ... : ... .. . ... : ... .. . ... : ... .. . ...
ROW E4 : ... .. . ... ... : ... .. . ... : ... .. . ... : ... .. . ... : ... .. . ...
ROW E5 : ... .. . ... ... : ... .. . ... : ... .. . ... : ... .. . ... : ... .. . ...
ROW E6 : ... .. . ... ... : ... .. . ... : ... .. . ... : ... .. . ... : ... .. . ...
ROW E7 : ... .. . ... ... : ... .. . ... : ... .. . ... : ... .. . ... : ... .. . ...
ROW E8 : ... .. . ... ... : ... .. . ... : ... .. . ... : ... .. . ... : ... .. . ...
ROW E9 : ... .. . ... ... : ... .. . ... : ... .. . ... : ... .. . ... : ... .. . ...
ROW EA : ... .. . ... ... : ... .. . ... : ... .. . ... : ... .. . ... : ... .. . ...
ROW EB : ... .. . ... ... : ... .. . ... : ... .. . ... : ... .. . ... : ... .. . ...
ROW EC : ... .. . ... ... : ... .. . ... : ... .. . ... : ... .. . ... : ... .. . ...
ROW ED : ... .. . ... ... : ... .. . ... : ... .. . ... : ... .. . ... : ... .. . ...
ROW EE : ... .. . ... ... : ... .. . ... : ... .. . ... : ... .. . ... : ... .. . ...
ROW EF : ... .. . ... ... : ... .. . ... : ... .. . ... : ... .. . ... : ... .. . ...
ROW F0 : ... .. . ... ... : ... .. . ... : ... .. . ... : ... .. . ... : ... .. . ...
ROW F1 : ... .. . ... ... : ... .. . ... : ... .. . ... : ... .. . ... : ... .. . ...
ROW F2 : ... .. . ... ... : ... .. . ... : ... .. . ... : ... .. . ... : ... .. . ...
ROW F3 : ... .. . ... ... : ... .. . ... : ... .. . ... : ... .. . ... : ... .. . ...
ROW F4 : ... .. . ... ... : ... .. . ... : ... .. . ... : ... .. . ... : ... .. . ...
ROW F5 : ... .. . ... ... : ... .. . ... : ... .. . ... : ... .. . ... : ... .. . ...
ROW F6 : ... .. . ... ... : ... .. . ... : ... .. . ... : ... .. . ... : ... .. . ...
ROW F7 : ... .. . ... ... : ... .. . ... : ... .. . ... : ... .. . ... : ... .. . ...
ROW F8 : ... .. . ... ... : ... .. . ... : ... .. . ... : ... .. . ... : ... .. . ...
ROW F9 : ... .. . ... ... : ... .. . ... : ... .. . ... : ... .. . ... : ... .. . ...
ROW FA : ... .. . ... ... : ... .. . ... : ... .. . ... : ... .. . ... : ... .. . ...
ROW FB : ... .. . ... ... : ... .. . ... : ... .. . ... : ... .. . ... : ... .. . ...
ROW FC : ... .. . ... ... : ... .. . ... : ... .. . ... : ... .. . ... : ... .. . ...
ROW FD : ... .. . ... ... : ... .. . ... : ... .. . ... : ... .. . ... : ... .. . ...
ROW FE : ... .. . ... ... : ... .. . ... : ... .. . ... : ... .. . ... : ... .. . ...
ROW FF : ... .. . ... ... : ... .. . ... : ... .. . ... : ... .. . ... : ... .. . ...

# End of export
