# FamiTracker text export 0.4.2

# Song information
TITLE           "Asymmetrical"
AUTHOR          "Zephemeros"
COPYRIGHT       "2012"

# Song comment
COMMENT ""

# Global settings
MACHINE         0
FRAMERATE       0
EXPANSION       0
VIBRATO         1
SPLIT           21

# Macros
MACRO       0   0  -1  -1   0 : 11 11 12 12 13 13 13 14 14 14 15 15 15 15 14 14 14 14 13 13 13 13 12 12 12 12 12 11 11 11 11 11 10 10 10 10 10 9 9 9 9 9 9 8 8 8 8 8 8 7 7 7 7 7 7 6 6 6 6 6 6 5 5 5 5 5 5 5 4 4 4 4 4 4 4 3 3 3 3 3 3 3 2 2 2 2 2 2 2 1 1 1 1 1 1 1 1 1 0
MACRO       0   1  -1  -1   0 : 15 14 13 12 11 10 9 8 7 6 5 4 3 2 1 0
MACRO       0   2  -1  -1   0 : 15 13 11 9 7 5 3 1 0
MACRO       0   3  -1  -1   0 : 15 13 3 2 1 0
MACRO       0   4  -1  -1   0 : 15 14 13 12 11 10 10 9 9 8 8 8 7 7 7 6 6 6 5 5 5 4 4 4 3 3 3 3 2 2 2 2 1 1 1 1 0
MACRO       0   5  -1  -1   0 : 15 13 12 11 11 9 7 0
MACRO       0   6  -1  -1   0 : 15 11 8 7 6 6 3
MACRO       0   7  -1  -1   0 : 15 14 13 12 11 10 9 8 7 6 12 11 10 9 8 7 6 5 4 3 2 1 0
MACRO       1   0  -1  -1   0 : 16 13 8 5 3 0
MACRO       1   1   0  -1   0 : 0 0 3 3 7 7 12 12
MACRO       1   2   0  -1   0 : 0 0 4 4 7 7 12 12
MACRO       1   3   0  -1   0 : 0 0 3 3 6 6 9 9
MACRO       1   4   0  -1   0 : 0 0 4 4 7 7 10 10
MACRO       1   5   0  -1   0 : 0 0 4 4 7 7 11 11
MACRO       1   6   0  -1   0 : 0 0 3 3 7 7 10 10
MACRO       1   7   0  -1   0 : 0 0 4 4 9 9 12 12
MACRO       1   8   0  -1   0 : 0 0 5 5 9 9 12 12
MACRO       1   9  -1  -1   0 : 12 0
MACRO       1  10   0  -1   0 : 12 12 0 0
MACRO       2   0  -1  -1   0 : 1 0
MACRO       2   1   4  -1   0 : -32 53 57 48 36
MACRO       2   2  -1  -1   0 : -50 40 -30 20 -10 0 10 0
MACRO       4   0  -1  -1   0 : 2
MACRO       4   1   0  -1   0 : 0 0 3 3 3 3 3 3
MACRO       4   2  -1  -1   0 : 1 0 2
MACRO       4   3  -1  -1   0 : 1

# DPCM samples

# Instruments
INST2A03   0     0  -1  -1  -1  -1 "|--------|"
INST2A03   1     1  -1  -1  -1  -1 "|-|"
INST2A03   2    -1  -1  -1  -1  -1 "blank."
INST2A03   3     1   0  -1  -1  -1 "CRASH"
INST2A03   4     5  -1   2  -1  -1 "BANG"
INST2A03   5     3  -1  -1  -1  -1 "short hat"
INST2A03   6     4  -1  -1  -1  -1 "top hat"
INST2A03   7     4   1  -1  -1  -1 "minor arp"
INST2A03   8     4   2  -1  -1  -1 "major arp"
INST2A03  12     4   6  -1  -1  -1 "minor 7 arp"
INST2A03  13     4  -1  -1  -1   2 "THICK"
INST2A03  14     6  -1   1  -1  -1 "Tom."
INST2A03  15     1  -1  -1  -1   3 "DING"
INST2A03  18    -1   9  -1  -1  -1 "Follish"
INST2A03  19     0  10  -1  -1  -1 "octave arp"

# Tracks

TRACK  64   3 160 "New song"
COLUMNS : 3 4 1 2 1

ORDER 00 : 00 00 00 00 01
ORDER 01 : 01 01 01 01 00
ORDER 02 : 02 02 02 02 00
ORDER 03 : 03 03 03 02 00
ORDER 04 : 04 04 03 01 00
ORDER 05 : 05 05 05 03 02
ORDER 06 : 06 06 06 05 03
ORDER 07 : 07 07 07 0A 03
ORDER 08 : 08 08 08 0B 03
ORDER 09 : 09 09 09 0D 03
ORDER 0A : 06 0A 06 0A 03
ORDER 0B : 09 0B 09 0C 03
ORDER 0C : 08 0C 08 0B 03
ORDER 0D : 07 0D 07 0D 04
ORDER 0E : 05 05 05 03 02
ORDER 0F : 0E 0E 0E 06 03
ORDER 10 : 0F 0F 0F 07 03
ORDER 11 : 10 10 10 06 03
ORDER 12 : 0E 11 0E 07 03
ORDER 13 : 12 12 12 06 03
ORDER 14 : 13 13 13 06 03
ORDER 15 : 14 14 14 06 03
ORDER 16 : 15 15 15 07 03
ORDER 17 : 16 16 16 06 03
ORDER 18 : 17 17 17 06 03
ORDER 19 : 18 18 18 06 03
ORDER 1A : 19 19 19 07 04
ORDER 1B : 1A 1A 1A 08 05
ORDER 1C : 1B 1B 1B 08 06
ORDER 1D : 1A 1C 1A 08 07
ORDER 1E : 1C 1D 1B 09 08
ORDER 1F : 1A 1E 1A 08 09
ORDER 20 : 1B 1F 1B 08 0A
ORDER 21 : 1A 20 1A 08 0B
ORDER 22 : 1C 21 1B 09 0C
ORDER 23 : 0A 22 0A 04 0D

PATTERN 00
ROW 00 : A#2 02 1 V02 ... ... : ... .. . ... ... ... ... : C-1 02 . 000 : 2-# 02 1 V00 G00 : ... .. . F04
ROW 01 : E-3 02 . ... ... ... : ... .. . ... ... ... ... : ... .. . ... : F-# 02 . V01 ... : ... .. . ...
ROW 02 : C-3 02 . ... ... ... : ... .. . ... ... ... ... : ... .. . ... : A-# 02 . V00 ... : ... .. . ...
ROW 03 : G-3 02 . ... ... ... : A#2 02 1 V02 000 400 ... : ... .. . ... : 2-# 02 . V01 ... : ... .. . ...
ROW 04 : E-3 02 . ... ... ... : E-3 02 . ... ... ... ... : ... .. . ... : F-# 02 . V00 ... : ... .. . ...
ROW 05 : A#3 02 . ... ... ... : C-3 02 . ... ... ... ... : ... .. . ... : A-# 02 . V01 ... : ... .. . ...
ROW 06 : G-3 02 . ... ... ... : G-3 02 . ... ... ... ... : ... .. . ... : 2-# 02 . V00 ... : ... .. . ...
ROW 07 : C-4 02 . ... ... ... : E-3 02 . ... ... ... ... : ... .. . ... : F-# 02 . V01 ... : ... .. . ...
ROW 08 : C-3 02 2 ... ... ... : A#3 02 . ... ... ... ... : ... .. . ... : 8-# 02 . V00 ... : ... .. . ...
ROW 09 : A#2 02 . ... ... ... : G-3 02 . ... ... ... ... : ... .. . ... : 2-# 02 . V01 ... : ... .. . ...
ROW 0A : E-3 02 . ... ... ... : C-4 02 . ... ... ... ... : ... .. . ... : F-# 02 . V00 ... : ... .. . ...
ROW 0B : C-3 02 . ... ... ... : C-3 02 . ... ... ... ... : ... .. . ... : 8-# 02 . V01 ... : ... .. . ...
ROW 0C : G-3 02 . ... ... ... : A#2 02 . ... ... ... ... : ... .. . ... : 2-# 02 . V00 ... : ... .. . ...
ROW 0D : E-3 02 . ... ... ... : E-3 02 . ... ... ... ... : ... .. . ... : F-# 02 . V01 ... : ... .. . ...
ROW 0E : A#3 02 . ... ... ... : C-3 02 . ... ... ... ... : ... .. . ... : 7-# 02 . V00 ... : ... .. . ...
ROW 0F : G-3 02 . ... ... ... : G-3 02 . ... ... ... ... : ... .. . ... : 2-# 02 . V01 ... : ... .. . ...
ROW 10 : C-4 02 3 ... ... ... : E-3 02 . ... ... ... ... : ... .. . ... : 7-# 02 2 V01 ... : ... .. . ...
ROW 11 : G-3 02 . ... ... ... : A#3 02 . ... ... ... ... : ... .. . ... : 2-# 02 . V01 ... : ... .. . ...
ROW 12 : E-3 02 . ... ... ... : G-3 02 . ... ... ... ... : ... .. . ... : F-# 02 3 V01 ... : ... .. . ...
ROW 13 : C-3 02 . ... ... ... : C-4 02 . ... ... ... ... : ... .. . ... : 5-# 02 . V01 ... : ... .. . ...
ROW 14 : G-3 02 . ... ... ... : G-3 02 . ... ... ... ... : ... .. . ... : 2-# 02 4 V01 ... : ... .. . ...
ROW 15 : E-3 02 . ... ... ... : E-3 02 . ... ... ... ... : ... .. . ... : F-# 02 . V01 ... : ... .. . ...
ROW 16 : A#3 02 . ... ... ... : C-3 02 . ... ... ... ... : ... .. . ... : 3-# 02 1 V00 ... : ... .. . ...
ROW 17 : G-3 02 . ... ... ... : G-3 02 . ... ... ... ... : ... .. . ... : 2-# 02 . V01 ... : ... .. . ...
ROW 18 : C-4 02 4 ... ... ... : E-3 02 2 ... ... ... ... : ... .. . ... : F-# 02 2 V01 ... : ... .. . ...
ROW 19 : A#3 02 . ... ... ... : A#3 02 . ... ... ... ... : ... .. . ... : 5-# 02 . V01 ... : ... .. . ...
ROW 1A : E-4 02 . ... ... ... : G-3 02 . ... ... ... ... : ... .. . ... : 2-# 02 3 V01 ... : ... .. . ...
ROW 1B : C-4 02 . ... ... ... : C-4 02 . ... ... ... ... : ... .. . ... : F-# 02 . V01 ... : ... .. . ...
ROW 1C : G-4 02 . ... ... ... : A#3 02 . ... ... ... ... : ... .. . ... : 7-# 02 4 V01 ... : ... .. . ...
ROW 1D : E-4 02 . ... ... ... : E-4 02 . ... ... ... ... : ... .. . ... : A-# 02 . V01 ... : ... .. . ...
ROW 1E : G-3 02 . ... ... ... : C-4 02 . ... ... ... ... : ... .. . ... : F-# 02 1 V00 ... : ... .. . ...
ROW 1F : E-3 02 . ... ... ... : G-4 02 . ... ... ... ... : ... .. . ... : 2-# 02 2 V01 ... : ... .. . ...
ROW 20 : A#3 02 5 ... ... ... : E-4 02 . ... ... ... ... : ... .. . ... : 8-# 02 3 V01 ... : ... .. . ...
ROW 21 : G-3 02 . ... ... ... : G-3 02 . ... ... ... ... : ... .. . ... : F-# 02 . V01 ... : ... .. . ...
ROW 22 : C-4 02 . ... ... ... : E-3 02 . ... ... ... ... : ... .. . ... : 1-# 02 3 V01 ... : ... .. . ...
ROW 23 : A#3 02 . ... ... ... : A#3 02 . ... ... ... ... : ... .. . ... : A-# 02 4 V01 ... : ... .. . ...
ROW 24 : E-4 02 . ... ... ... : G-3 02 . ... ... ... ... : ... .. . ... : 8-# 02 5 V01 ... : ... .. . ...
ROW 25 : C-4 02 . ... ... ... : C-4 02 . ... ... ... ... : ... .. . ... : 5-# 02 . V01 ... : ... .. . ...
ROW 26 : G-4 02 . ... ... ... : A#3 02 . ... ... ... ... : ... .. . ... : 7-# 02 6 V01 ... : ... .. . ...
ROW 27 : E-4 02 . ... ... ... : E-4 02 . ... ... ... ... : ... .. . ... : 8-# 02 . V01 ... : ... .. . ...
ROW 28 : G-3 02 6 ... ... ... : C-4 02 . ... ... ... ... : C-2 02 . 360 : F-# 0F F V00 ... : ... .. . ...
ROW 29 : ... .. . ... ... ... : ... .. . ... ... ... ... : ... .. . ... : ... .. . ... ... : ... .. . ...
ROW 2A : ... .. . ... ... ... : ... .. . ... ... ... ... : ... .. . ... : ... .. . ... ... : ... .. . ...
ROW 2B : ... .. . ... ... ... : ... .. . ... ... ... ... : ... .. . ... : ... .. . ... ... : ... .. . ...
ROW 2C : ... .. . ... 464 ... : ... .. . ... ... 464 ... : ... .. . ... : ... .. . ... ... : ... .. . ...
ROW 2D : ... .. . ... ... ... : ... .. . ... ... ... ... : ... .. . ... : ... .. . ... ... : ... .. . ...
ROW 2E : ... .. . ... ... ... : ... .. . ... ... ... ... : ... .. . ... : ... .. . ... ... : ... .. . ...
ROW 2F : ... .. . ... ... ... : ... .. . ... ... ... ... : ... .. . ... : ... .. . ... ... : ... .. . ...
ROW 30 : ... .. . ... ... ... : ... .. . ... ... ... ... : ... .. . ... : ... .. . ... ... : ... .. . ...
ROW 31 : ... .. . ... ... ... : ... .. . ... ... ... ... : ... .. . ... : ... .. . ... ... : ... .. . ...
ROW 32 : ... .. . ... ... ... : ... .. . ... ... ... ... : ... .. . ... : ... .. . ... ... : ... .. . ...
ROW 33 : ... .. . ... ... ... : ... .. . ... ... ... ... : ... .. . ... : ... .. . ... ... : ... .. . ...
ROW 34 : ... .. . ... ... ... : ... .. . ... ... ... ... : ... .. . ... : ... .. . ... ... : ... .. . ...
ROW 35 : ... .. . ... ... ... : ... .. . ... ... ... ... : ... .. . ... : ... .. . ... ... : ... .. . ...
ROW 36 : ... .. . ... ... ... : ... .. . ... ... ... ... : ... .. . ... : ... .. . ... ... : ... .. . ...
ROW 37 : ... .. 5 ... ... ... : ... .. . ... ... ... ... : ... .. . ... : ... .. . ... ... : ... .. . ...
ROW 38 : ... .. 4 ... ... ... : ... .. . ... ... ... ... : ... .. . ... : ... .. . ... ... : ... .. . ...
ROW 39 : ... .. 3 ... ... ... : ... .. . ... ... ... ... : ... .. . ... : ... .. . ... ... : ... .. . ...
ROW 3A : ... .. 2 ... ... ... : ... .. 1 ... ... ... ... : ... .. . ... : ... .. . ... ... : ... .. . ...
ROW 3B : ... .. 1 ... ... ... : ... .. . ... ... ... ... : ... .. . ... : ... .. . ... ... : ... .. . ...
ROW 3C : --- .. . ... 400 ... : --- .. . ... ... 400 ... : --- .. . ... : --- .. . ... ... : ... .. . ...
ROW 3D : ... .. . ... ... ... : ... .. . ... ... ... ... : ... .. . ... : ... .. . ... ... : ... .. . ...
ROW 3E : ... .. . ... ... ... : ... .. . ... ... ... ... : ... .. . ... : ... .. . ... ... : ... .. . ...
ROW 3F : ... .. . ... ... ... : ... .. . ... ... ... ... : ... .. . ... : ... .. . ... ... : ... .. . ...

PATTERN 01
ROW 00 : C-4 0D 6 V02 ... ... : C-5 0D 4 V02 ... ... ... : C-2 02 . 200 : B-# 03 4 V00 G01 : ... .. . F04
ROW 01 : ... .. . ... ... ... : ... .. . ... ... ... ... : ... .. . ... : ... .. . ... ... : ... .. . ...
ROW 02 : C-4 07 . ... ... ... : ... .. . ... ... ... ... : ... .. . 210 : F-# 05 . ... G01 : ... .. . ...
ROW 03 : ... .. . ... ... ... : ... .. . ... ... ... ... : ... .. . ... : ... .. . ... ... : ... .. . ...
ROW 04 : D#4 0D . ... ... ... : A#4 0D . ... ... ... ... : C-2 02 . 200 : F-# 06 . ... G01 : ... .. . ...
ROW 05 : ... .. . ... ... ... : ... .. . ... ... ... ... : ... .. . ... : ... .. . ... ... : ... .. . ...
ROW 06 : C-4 0D . ... ... ... : G-4 0D . ... ... ... ... : C-3 02 . ... : F-# 05 . ... G01 : ... .. . ...
ROW 07 : ... .. . ... ... ... : ... .. . ... ... ... ... : ... .. . ... : ... .. . ... ... : ... .. . ...
ROW 08 : D#4 0D . ... ... ... : C-3 0E 8 ... ... ... ... : --- .. . ... : 4-# 04 . ... G01 : ... .. . ...
ROW 09 : ... .. . ... ... ... : ... .. . ... ... ... ... : ... .. . ... : ... .. . ... ... : ... .. . ...
ROW 0A : C-4 0D . ... ... ... : G-4 0D 4 ... ... ... ... : G-2 02 . ... : F-# 05 . ... G01 : ... .. . ...
ROW 0B : ... .. . ... ... ... : ... .. . ... ... ... ... : ... .. . ... : ... .. . ... ... : ... .. . ...
ROW 0C : F-4 0D . ... ... ... : D#4 0D . ... ... ... ... : C-3 02 . ... : F-# 06 . ... G01 : ... .. . ...
ROW 0D : F#4 0D . ... ... ... : ... .. . ... ... ... ... : ... .. . ... : ... .. . ... ... : ... .. . ...
ROW 0E : G-4 0D . ... ... ... : ... .. . ... ... ... ... : --- .. . ... : F-# 05 . ... G01 : ... .. . ...
ROW 0F : ... .. . ... ... ... : ... .. . ... ... ... ... : ... .. . ... : ... .. . ... ... : ... .. . ...
ROW 10 : C-4 0C . ... ... ... : C-4 0D . ... ... ... ... : A#1 02 . ... : B-# 03 . ... G01 : ... .. . ...
ROW 11 : ... .. . ... ... ... : ... .. . ... ... ... ... : ... .. . ... : ... .. . ... ... : ... .. . ...
ROW 12 : ... .. . ... ... ... : ... .. . ... ... ... ... : ... .. . 210 : F-# 05 . ... G01 : ... .. . ...
ROW 13 : ... .. . ... ... ... : ... .. . ... ... ... ... : ... .. . ... : ... .. . ... ... : ... .. . ...
ROW 14 : ... .. . ... ... ... : ... .. . ... ... ... ... : A#1 02 . 200 : F-# 06 . ... G01 : ... .. . ...
ROW 15 : ... .. . ... ... ... : ... .. . ... ... ... ... : ... .. . ... : ... .. . ... ... : ... .. . ...
ROW 16 : ... .. . ... ... ... : ... .. . ... ... ... ... : A#2 02 . ... : F-# 05 . ... G01 : ... .. . ...
ROW 17 : ... .. . ... ... ... : ... .. . ... ... ... ... : ... .. . ... : ... .. . ... ... : ... .. . ...
ROW 18 : C-5 0D . ... ... ... : C-4 0E 6 ... ... ... ... : --- .. . ... : 4-# 04 . ... G01 : ... .. . ...
ROW 19 : ... .. . ... ... ... : ... .. . ... ... ... ... : ... .. . ... : ... .. . ... ... : ... .. . ...
ROW 1A : ... .. . ... ... ... : ... .. . ... ... ... ... : ... .. . ... : F-# 05 . ... G01 : ... .. . ...
ROW 1B : ... .. . ... ... ... : --- .. . ... ... ... ... : ... .. . ... : ... .. . ... ... : ... .. . ...
ROW 1C : F-4 0D . ... ... ... : ... .. . ... ... ... ... : G-2 02 . ... : F-# 06 . ... G01 : ... .. . ...
ROW 1D : ... .. . ... ... ... : ... .. . ... ... ... ... : ... .. . ... : ... .. . ... ... : ... .. . ...
ROW 1E : C-5 0D 3 ... ... ... : ... .. . ... ... ... ... : --- .. . ... : F-# 05 . ... G01 : ... .. . ...
ROW 1F : ... .. . ... ... ... : ... .. . ... ... ... ... : ... .. . ... : ... .. . ... ... : ... .. . ...
ROW 20 : D#4 0D 6 ... ... ... : D#5 0D 4 ... ... ... ... : F-1 02 . ... : B-# 03 . ... G01 : ... .. . ...
ROW 21 : ... .. . ... ... ... : ... .. . ... ... ... ... : ... .. . ... : ... .. . ... ... : ... .. . ...
ROW 22 : F-4 0D 3 ... ... ... : ... .. . ... ... ... ... : ... .. . 210 : F-# 05 . ... G01 : ... .. . ...
ROW 23 : ... .. . ... ... ... : ... .. . ... ... ... ... : ... .. . ... : ... .. . ... ... : ... .. . ...
ROW 24 : F-4 0D 6 ... ... ... : D-5 0D . ... ... ... ... : F-1 02 . 200 : F-# 06 . ... G01 : ... .. . ...
ROW 25 : ... .. . ... ... ... : ... .. . ... ... ... ... : ... .. . ... : ... .. . ... ... : ... .. . ...
ROW 26 : D#4 0D 6 ... ... ... : ... .. . ... ... ... ... : F-2 02 . ... : F-# 05 . ... G01 : ... .. . ...
ROW 27 : F-4 0D 3 ... ... ... : ... .. . ... ... ... ... : ... .. . ... : ... .. . ... ... : ... .. . ...
ROW 28 : F-4 0D 6 ... ... ... : C-3 0E 6 ... ... ... ... : --- .. . ... : 4-# 04 . ... G01 : ... .. . ...
ROW 29 : D#4 0D 3 ... ... ... : ... .. . ... ... ... ... : ... .. . ... : ... .. . ... ... : ... .. . ...
ROW 2A : F#4 0D 6 ... ... ... : ... .. . ... ... ... ... : F#1 02 . ... : F-# 05 . ... G01 : ... .. . ...
ROW 2B : F-4 0D 3 ... ... ... : --- .. . ... ... ... ... : ... .. . ... : ... .. . ... ... : ... .. . ...
ROW 2C : G-4 0D 6 ... ... ... : A#4 0D 4 ... ... ... ... : F#2 02 . ... : F-# 06 . ... G01 : ... .. . ...
ROW 2D : F#4 0D 3 ... ... ... : ... .. . ... ... ... ... : ... .. . ... : ... .. . ... ... : ... .. . ...
ROW 2E : G-3 08 6 ... ... ... : ... .. . ... ... ... ... : --- .. . ... : F-# 05 . ... G01 : ... .. . ...
ROW 2F : ... .. . ... ... ... : ... .. . ... ... ... ... : ... .. . ... : ... .. . ... ... : ... .. . ...
ROW 30 : G-3 0D . ... ... ... : C-5 0D . ... ... ... ... : F-1 02 . ... : B-# 03 . ... G01 : ... .. . ...
ROW 31 : G-4 0D 3 ... ... ... : ... .. . ... ... ... ... : ... .. . ... : ... .. . ... ... : ... .. . ...
ROW 32 : ... .. . ... ... ... : ... .. . ... ... ... ... : --- .. . ... : F-# 05 . ... G01 : ... .. . ...
ROW 33 : ... .. . ... ... ... : ... .. . ... ... ... ... : ... .. . ... : ... .. . ... ... : ... .. . ...
ROW 34 : B-3 0D . ... ... ... : G-4 0D . ... ... ... ... : D#1 02 . ... : F-# 06 . ... G01 : ... .. . ...
ROW 35 : ... .. . ... ... ... : ... .. . ... ... ... ... : ... .. . ... : ... .. . ... ... : ... .. . ...
ROW 36 : ... .. . ... ... ... : ... .. . ... ... ... ... : --- .. . ... : F-# 05 . ... G01 : ... .. . ...
ROW 37 : ... .. . ... ... ... : ... .. . ... ... ... ... : ... .. . ... : ... .. . ... ... : ... .. . ...
ROW 38 : D-4 0D . ... ... ... : C-4 0E 8 ... ... ... ... : D-1 02 . ... : 8-# 02 3 V01 G01 : ... .. . ...
ROW 39 : ... .. . ... ... ... : ... .. . ... ... ... ... : ... .. . ... : 9-# 02 . ... ... : ... .. . ...
ROW 3A : ... .. . ... ... ... : ... .. . ... ... ... ... : --- .. . ... : A-# 02 . ... G01 : ... .. . ...
ROW 3B : ... .. . ... ... ... : --- .. . ... ... ... ... : ... .. . ... : B-# 02 . ... ... : ... .. . ...
ROW 3C : G-4 0D . ... ... ... : G-4 0D 4 ... ... ... ... : D#1 02 . ... : C-# 02 . ... G01 : ... .. . F08
ROW 3D : ... .. . ... ... ... : ... .. . ... ... ... ... : ... .. . ... : D-# 02 . ... ... : ... .. . ...
ROW 3E : ... .. . ... ... ... : ... .. . ... ... ... ... : --- .. . ... : E-# 02 . ... G01 : ... .. . ...
ROW 3F : ... .. . ... ... ... : ... .. . ... ... ... ... : ... .. . ... : F-# 02 . ... ... : ... .. . ...

PATTERN 02
ROW 00 : C-3 0D 6 V02 ... ... : D#3 0D 4 V02 ... ... ... : C-2 02 . 200 : B-# 03 4 V00 G01 : ... .. . F02
ROW 01 : ... .. . ... ... ... : ... .. . ... ... ... ... : ... .. . ... : ... .. . ... ... : ... .. . ...
ROW 02 : C-4 07 . ... ... ... : ... .. . ... ... ... ... : ... .. . 210 : F-# 05 . ... G01 : ... .. . ...
ROW 03 : C-3 0D 3 ... ... ... : ... .. . ... ... ... ... : ... .. . ... : ... .. . ... ... : ... .. . ...
ROW 04 : D#3 0D 6 ... ... ... : G-3 0D . ... ... ... ... : C-2 02 . 200 : F-# 06 . ... G01 : ... .. . ...
ROW 05 : ... .. . ... ... ... : ... .. . ... ... ... ... : ... .. . ... : ... .. . ... ... : ... .. . ...
ROW 06 : C-3 0D . ... ... ... : D#3 0D . ... ... ... ... : C-3 02 . ... : F-# 05 . ... G01 : ... .. . ...
ROW 07 : D#3 0D 3 ... ... ... : ... .. . ... ... ... ... : ... .. . ... : ... .. . ... ... : ... .. . ...
ROW 08 : D#3 0D 6 ... ... ... : C-3 0E 8 ... ... ... ... : --- .. . ... : 4-# 04 . ... G01 : ... .. . ...
ROW 09 : C-3 0D 3 ... ... ... : ... .. . ... ... ... ... : ... .. . ... : ... .. . ... ... : ... .. . ...
ROW 0A : F-3 0D 6 ... ... ... : A-3 0D 4 ... ... ... ... : C-2 02 . ... : F-# 05 . ... G01 : ... .. . ...
ROW 0B : D#3 0D 3 ... ... ... : ... .. . ... ... ... ... : ... .. . ... : ... .. . ... ... : ... .. . ...
ROW 0C : F#3 0D 6 ... ... ... : A#3 0D . ... ... ... ... : C-3 02 . ... : F-# 06 . ... G01 : ... .. . ...
ROW 0D : F-3 0D 3 ... ... ... : ... .. . ... ... ... ... : ... .. . ... : ... .. . ... ... : ... .. . ...
ROW 0E : G-3 0D 6 ... ... ... : ... .. . ... ... ... ... : --- .. . ... : F-# 05 . ... G01 : ... .. . ...
ROW 0F : F#3 0D 3 ... ... ... : ... .. . ... ... ... ... : ... .. . ... : ... .. . ... ... : ... .. . ...
ROW 10 : G-3 07 6 ... ... ... : C-4 0D . ... ... ... ... : D#2 02 . ... : B-# 03 . ... G01 : ... .. . ...
ROW 11 : G-3 0D 3 ... ... ... : ... .. . ... ... ... ... : ... .. . ... : ... .. . ... ... : ... .. . ...
ROW 12 : ... .. . ... ... ... : ... .. . ... ... ... ... : --- .. . ... : F-# 05 . ... G01 : ... .. . ...
ROW 13 : ... .. . ... ... ... : ... .. . ... ... ... ... : ... .. . ... : ... .. . ... ... : ... .. . ...
ROW 14 : ... .. . ... ... ... : ... .. . ... ... ... ... : D#3 02 . ... : F-# 06 . ... G01 : ... .. . ...
ROW 15 : ... .. . ... ... ... : ... .. . ... ... ... ... : ... .. . ... : ... .. . ... ... : ... .. . ...
ROW 16 : ... .. . ... ... ... : ... .. . ... ... ... ... : --- .. . ... : F-# 05 . ... G01 : ... .. . ...
ROW 17 : ... .. . ... ... ... : ... .. . ... ... ... ... : ... .. . ... : ... .. . ... ... : ... .. . ...
ROW 18 : ... .. . ... ... ... : C-4 0E 8 ... ... ... ... : F-2 02 . ... : 4-# 04 . ... G01 : ... .. . ...
ROW 19 : ... .. . ... ... ... : ... .. . ... ... ... ... : ... .. . ... : ... .. . ... ... : ... .. . ...
ROW 1A : ... .. . ... ... ... : ... .. . ... ... ... ... : --- .. . ... : F-# 05 . ... G01 : ... .. . ...
ROW 1B : ... .. . ... ... ... : --- .. . ... ... ... ... : ... .. . ... : ... .. . ... ... : ... .. . ...
ROW 1C : ... .. . ... ... ... : ... .. . ... ... ... ... : F-3 02 . ... : F-# 06 . ... G01 : ... .. . ...
ROW 1D : ... .. . ... ... ... : ... .. . ... ... ... ... : ... .. . ... : ... .. . ... ... : ... .. . ...
ROW 1E : ... .. . ... ... ... : ... .. . ... ... ... ... : --- .. . ... : F-# 05 . ... G01 : ... .. . ...
ROW 1F : ... .. . ... ... ... : ... .. . ... ... ... ... : ... .. . ... : ... .. . ... ... : ... .. . ...
ROW 20 : D#4 0D 6 ... ... ... : G-4 0D 4 ... ... ... ... : G-2 02 . ... : B-# 03 . ... G01 : ... .. . ...
ROW 21 : ... .. . ... ... ... : ... .. . ... ... ... ... : ... .. . ... : ... .. . ... ... : ... .. . ...
ROW 22 : ... .. . ... ... ... : ... .. . ... ... ... ... : ... .. . 210 : F-# 05 . ... G01 : ... .. . ...
ROW 23 : ... .. . ... ... ... : ... .. . ... ... ... ... : ... .. . ... : ... .. . ... ... : ... .. . ...
ROW 24 : D-4 0D . ... ... ... : G#4 0D . ... ... ... ... : G-2 02 . 200 : F-# 06 . ... G01 : ... .. . ...
ROW 25 : ... .. . ... ... ... : ... .. . ... ... ... ... : ... .. . ... : ... .. . ... ... : ... .. . ...
ROW 26 : D#4 0D 3 ... ... ... : G-4 0D 2 ... ... ... ... : G-3 02 . ... : F-# 05 . ... G01 : ... .. . ...
ROW 27 : ... .. . ... ... ... : ... .. . ... ... ... ... : ... .. . ... : ... .. . ... ... : ... .. . ...
ROW 28 : D#4 0D 6 ... ... ... : F-4 0D 4 ... ... ... ... : --- .. . ... : 4-# 04 . ... G01 : ... .. . ...
ROW 29 : ... .. . ... ... ... : ... .. . ... ... ... ... : ... .. . ... : ... .. . ... ... : ... .. . ...
ROW 2A : D-4 0D 3 ... ... ... : G#4 0D 2 ... ... ... ... : G-2 02 . ... : F-# 05 . ... G01 : ... .. . ...
ROW 2B : ... .. . ... ... ... : ... .. . ... ... ... ... : ... .. . ... : ... .. . ... ... : ... .. . ...
ROW 2C : D-4 0D 6 ... ... ... : G-4 0D 4 ... ... ... ... : G-3 02 . ... : F-# 06 . ... G01 : ... .. . ...
ROW 2D : ... .. . ... ... ... : ... .. . ... ... ... ... : ... .. . ... : ... .. . ... ... : ... .. . ...
ROW 2E : D#4 0D 3 ... ... ... : F-4 0D 2 ... ... ... ... : --- 02 . ... : F-# 05 . ... G01 : ... .. . ...
ROW 2F : ... .. . ... ... ... : ... .. . ... ... ... ... : ... .. . ... : ... .. . ... ... : ... .. . ...
ROW 30 : D#4 0D 6 ... ... ... : G#4 0D 4 ... ... ... ... : F-2 02 . ... : B-# 03 . ... G01 : ... .. . ...
ROW 31 : ... .. . ... ... ... : ... .. . ... ... ... ... : ... .. . ... : ... .. . ... ... : ... .. . ...
ROW 32 : D-4 0D 3 ... ... ... : G-4 0D 2 ... ... ... ... : ... .. . 210 : F-# 05 . ... G01 : ... .. . ...
ROW 33 : ... .. . ... ... ... : ... .. . ... ... ... ... : ... .. . ... : ... .. . ... ... : ... .. . ...
ROW 34 : D-4 0D 6 ... ... ... : G-4 0D 4 ... ... ... ... : F-2 02 . 200 : F-# 06 . ... G01 : ... .. . ...
ROW 35 : D#4 0D 4 ... ... ... : ... .. . ... ... ... ... : ... .. . ... : ... .. . ... ... : ... .. . ...
ROW 36 : D-4 0D . ... ... ... : G#4 0D 2 ... ... ... ... : F-3 02 . ... : F-# 05 . ... G01 : ... .. . ...
ROW 37 : D#4 0D . ... ... ... : ... .. . ... ... ... ... : ... .. . ... : ... .. . ... ... : ... .. . ...
ROW 38 : C-4 0D 6 ... ... ... : F-4 0D 4 ... ... ... ... : --- 02 . ... : 4-# 04 . ... G01 : ... .. . ...
ROW 39 : ... .. . ... ... ... : ... .. . ... ... ... ... : ... .. . ... : ... .. . ... ... : ... .. . ...
ROW 3A : D-4 0D 3 ... ... ... : G-4 0D 2 ... ... ... ... : D#2 02 . ... : F-# 05 . ... G01 : ... .. . ...
ROW 3B : ... .. . ... ... ... : ... .. . ... ... ... ... : ... .. . ... : ... .. . ... ... : ... .. . ...
ROW 3C : A#3 0D 6 ... ... ... : D#4 0D 4 ... ... ... ... : D-2 02 . ... : F-# 06 . ... G01 : ... .. . F08
ROW 3D : ... .. . ... ... ... : ... .. . ... ... ... ... : ... .. . ... : ... .. . ... ... : ... .. . ...
ROW 3E : ... .. . ... ... ... : F-4 0D 2 ... ... ... ... : --- .. . ... : F-# 05 . ... G01 : ... .. . ...
ROW 3F : ... .. . ... ... ... : ... .. . ... ... ... ... : ... .. . ... : ... .. . ... ... : ... .. . ...

PATTERN 03
ROW 00 : C-4 0D 6 V02 ... ... : G-3 0D 4 V02 ... ... ... : C-2 02 . 200 : 8-# 02 4 V01 ... : ... .. . F03
ROW 01 : ... .. . ... ... ... : ... .. . ... ... ... ... : ... .. . ... : 9-# 02 . ... ... : ... .. . ...
ROW 02 : ... .. . ... ... ... : ... .. . ... ... ... ... : ... .. . 210 : A-# 02 . ... ... : ... .. . ...
ROW 03 : ... .. . ... ... ... : ... .. . ... ... ... ... : ... .. . ... : B-# 02 . ... ... : ... .. . ...
ROW 04 : A#3 0D . ... ... ... : F-3 0D . ... ... ... ... : C-2 02 . 200 : C-# 02 . ... ... : ... .. . ...
ROW 05 : ... .. . ... ... ... : ... .. . ... ... ... ... : ... .. . ... : D-# 02 . ... ... : ... .. . ...
ROW 06 : G-3 0D . ... ... ... : D-3 0D . ... ... ... ... : C-3 02 . ... : E-# 02 . ... ... : ... .. . ...
ROW 07 : ... .. . ... ... ... : ... .. . ... ... ... ... : ... .. . ... : F-# 02 . ... ... : ... .. . ...
ROW 08 : A#3 0D . ... ... ... : C-3 0E 8 ... ... ... ... : --- .. . ... : --- .. . ... ... : ... .. . ...
ROW 09 : ... .. . ... ... ... : ... .. . ... ... ... ... : ... .. . ... : ... .. . ... ... : ... .. . ...
ROW 0A : G-3 0D . ... ... ... : D-3 0D 4 ... ... ... ... : D#3 02 . ... : ... .. . ... ... : ... .. . ...
ROW 0B : ... .. . ... ... ... : ... .. . ... ... ... ... : ... .. . ... : ... .. . ... ... : ... .. . ...
ROW 0C : ... .. . ... ... ... : ... .. . ... ... ... ... : C-3 02 . ... : ... .. . ... ... : ... .. . ...
ROW 0D : ... .. . ... ... ... : ... .. . ... ... ... ... : ... .. . ... : ... .. . ... ... : ... .. . ...
ROW 0E : F-3 0D . ... ... ... : C-3 0D . ... ... ... ... : --- .. . ... : ... .. . ... ... : ... .. . ...
ROW 0F : ... .. . ... ... ... : ... .. . ... ... ... ... : ... .. . ... : ... .. . ... ... : ... .. . ...
ROW 10 : ... .. . ... ... ... : ... .. . ... ... ... ... : F-2 02 . ... : 8-# 02 3 V01 ... : ... .. . ...
ROW 11 : ... .. . ... ... ... : ... .. . ... ... ... ... : ... .. . ... : 9-# 02 . ... ... : ... .. . ...
ROW 12 : D#3 0D . ... ... ... : ... .. . ... ... ... ... : --- 02 . ... : A-# 02 . ... ... : ... .. . ...
ROW 13 : ... .. . ... ... ... : ... .. . ... ... ... ... : ... .. . ... : B-# 02 . ... ... : ... .. . ...
ROW 14 : F-3 0D . ... ... ... : ... .. . ... ... ... ... : F-3 02 . ... : C-# 02 . ... ... : ... .. . ...
ROW 15 : D#3 0D 3 ... ... ... : ... .. . ... ... ... ... : ... .. . ... : D-# 02 . ... ... : ... .. . ...
ROW 16 : D#3 0D 6 ... ... ... : ... .. . ... ... ... ... : --- 02 . ... : E-# 02 . ... ... : ... .. . ...
ROW 17 : F-3 0D 3 ... ... ... : ... .. . ... ... ... ... : ... .. . ... : F-# 02 . ... ... : ... .. . ...
ROW 18 : F-3 0D 6 ... ... ... : C-4 0E 8 ... ... ... ... : G-2 02 . ... : --- .. . ... ... : ... .. . ...
ROW 19 : D#3 0D 3 ... ... ... : ... .. . ... ... ... ... : ... .. . ... : ... .. . ... ... : ... .. . ...
ROW 1A : D#3 0D 6 ... ... ... : ... .. . ... ... ... ... : --- .. . ... : ... .. . ... ... : ... .. . ...
ROW 1B : F-3 0D 3 ... ... ... : ... .. . ... ... ... ... : ... .. . ... : ... .. . ... ... : ... .. . ...
ROW 1C : F-3 0D 6 ... ... ... : ... .. . ... ... ... ... : G-3 02 . ... : ... .. . ... ... : ... .. . ...
ROW 1D : D#3 0D 3 ... ... ... : ... .. . ... ... ... ... : ... .. . ... : ... .. . ... ... : ... .. . ...
ROW 1E : D#3 0D 6 ... ... ... : ... .. . ... ... ... ... : ... .. . ... : ... .. . ... ... : ... .. . ...
ROW 1F : F-3 0D 3 ... ... ... : ... .. . ... ... ... ... : ... .. . ... : ... .. . ... ... : ... .. . ...
ROW 20 : F#3 0D 6 ... ... ... : D-3 0D 4 ... ... ... ... : D#2 02 . ... : 8-# 02 2 V01 ... : ... .. . ...
ROW 21 : ... .. . ... ... ... : ... .. . ... ... ... ... : ... .. . ... : 9-# 02 . ... ... : ... .. . ...
ROW 22 : ... .. . ... ... ... : ... .. . ... ... ... ... : ... .. . 210 : A-# 02 . ... ... : ... .. . ...
ROW 23 : ... .. . ... ... ... : ... .. . ... ... ... ... : ... .. . ... : B-# 02 . ... ... : ... .. . ...
ROW 24 : G-3 0D . ... ... ... : D#3 0D . ... ... ... ... : D#2 02 . 200 : C-# 02 . ... ... : ... .. . ...
ROW 25 : ... .. . ... ... ... : ... .. . ... ... ... ... : ... .. . ... : D-# 02 . ... ... : ... .. . ...
ROW 26 : F#3 0D 3 ... ... ... : ... .. . ... ... ... ... : D#3 02 . ... : E-# 02 . ... ... : ... .. . ...
ROW 27 : ... .. . ... ... ... : ... .. . ... ... ... ... : ... .. . ... : F-# 02 . ... ... : ... .. . ...
ROW 28 : F#3 0D 6 ... ... ... : C-3 0E 8 ... ... ... ... : --- .. . ... : --- .. . ... ... : ... .. . ...
ROW 29 : ... .. . ... ... ... : ... .. . ... ... ... ... : ... .. . ... : ... .. . ... ... : ... .. . ...
ROW 2A : G-3 0D 3 ... ... ... : ... .. . ... ... ... ... : A#2 02 . ... : ... .. . ... ... : ... .. . ...
ROW 2B : ... .. . ... ... ... : ... .. . ... ... ... ... : ... .. . ... : ... .. . ... ... : ... .. . ...
ROW 2C : G-3 0D 6 ... ... ... : D#3 0D 4 ... ... ... ... : D#3 02 . ... : ... .. . ... ... : ... .. . ...
ROW 2D : ... .. . ... ... ... : ... .. . ... ... ... ... : ... .. . ... : ... .. . ... ... : ... .. . ...
ROW 2E : F#3 0D 3 ... ... ... : ... .. . ... ... ... ... : --- .. . ... : ... .. . ... ... : ... .. . ...
ROW 2F : ... .. . ... ... ... : ... .. . ... ... ... ... : ... .. . ... : ... .. . ... ... : ... .. . ...
ROW 30 : F#3 0D 6 ... ... ... : D-3 0D . ... ... ... ... : D-2 02 . ... : 8-# 02 1 V01 ... : ... .. . ...
ROW 31 : ... .. . ... ... ... : ... .. . ... ... ... ... : ... .. . ... : 9-# 02 . ... ... : ... .. . ...
ROW 32 : G-3 0D 3 ... ... ... : ... .. . ... ... ... ... : --- .. . ... : A-# 02 . ... ... : ... .. . ...
ROW 33 : ... .. . ... ... ... : ... .. . ... ... ... ... : ... .. . ... : B-# 02 . ... ... : ... .. . ...
ROW 34 : G-3 0D 6 ... ... ... : D#3 0D . ... ... ... ... : D-3 02 . ... : C-# 02 . ... ... : ... .. . ...
ROW 35 : ... .. . ... ... ... : ... .. . ... ... ... ... : ... .. . ... : D-# 02 . ... ... : ... .. . ...
ROW 36 : C-3 0D . ... ... ... : ... .. . ... ... ... ... : --- .. . ... : E-# 02 . ... ... : ... .. . ...
ROW 37 : D-3 0D . ... ... ... : ... .. . ... ... ... ... : ... .. . ... : F-# 02 . ... ... : ... .. . ...
ROW 38 : D#3 0D . ... ... ... : C-4 0E 8 ... ... ... ... : C#2 02 . ... : --- .. . ... ... : ... .. . ...
ROW 39 : ... .. . ... ... ... : ... .. . ... ... ... ... : ... .. . ... : ... .. . ... ... : ... .. . ...
ROW 3A : ... .. . ... ... ... : ... .. . ... ... ... ... : --- .. . ... : ... .. . ... ... : ... .. . ...
ROW 3B : ... .. . ... ... ... : ... .. . ... ... ... ... : ... .. . ... : ... .. . ... ... : ... .. . ...
ROW 3C : D-3 0D . ... ... ... : A#3 0D 4 ... ... ... ... : C#3 02 . ... : ... .. . ... ... : ... .. . ...
ROW 3D : ... .. . ... ... ... : ... .. . ... ... ... ... : ... .. . ... : ... .. . ... ... : ... .. . ...
ROW 3E : ... .. . ... ... ... : ... .. . ... ... ... ... : --- .. . ... : ... .. . ... ... : ... .. . ...
ROW 3F : ... .. . ... ... ... : ... .. . ... ... ... ... : ... .. . ... : ... .. . ... ... : ... .. . ...

PATTERN 04
ROW 00 : C-5 0D 6 V02 ... ... : G-4 0D 4 V02 ... ... ... : G-1 0D . ... : F-# 02 5 V01 ... : ... .. . F03
ROW 01 : ... .. . ... ... ... : ... .. . ... ... ... ... : ... .. . ... : E-# 02 . ... ... : ... .. . ...
ROW 02 : ... .. . ... ... ... : ... .. . ... ... ... ... : ... .. . 210 : D-# 02 4 ... ... : ... .. . ...
ROW 03 : ... .. . ... ... ... : ... .. . ... ... ... ... : ... .. . ... : C-# 02 . ... ... : ... .. . ...
ROW 04 : A#4 0D . ... ... ... : F-4 0D . ... ... ... ... : G-1 0D . 200 : B-# 02 3 ... ... : ... .. . ...
ROW 05 : ... .. . ... ... ... : ... .. . ... ... ... ... : ... .. . ... : A-# 02 . ... ... : ... .. . ...
ROW 06 : G-4 0D . ... ... ... : D-4 0D . ... ... ... ... : G-2 0D . ... : 9-# 02 2 ... ... : ... .. . ...
ROW 07 : ... .. . ... ... ... : ... .. . ... ... ... ... : ... .. . ... : 8-# 02 . ... ... : ... .. . ...
ROW 08 : A#4 0D . ... ... ... : C-3 0E 8 ... ... ... ... : --- .. . ... : ... .. 1 ... ... : ... .. . ...
ROW 09 : ... .. . ... ... ... : ... .. . ... ... ... ... : ... .. . ... : --- .. . ... ... : ... .. . ...
ROW 0A : G-4 0D . ... ... ... : D-4 0D 4 ... ... ... ... : A#2 0D . ... : ... .. . ... ... : ... .. . ...
ROW 0B : ... .. . ... ... ... : ... .. . ... ... ... ... : ... .. . ... : ... .. . ... ... : ... .. . ...
ROW 0C : ... .. . ... ... ... : ... .. . ... ... ... ... : G-2 0D . ... : ... .. . ... ... : ... .. . ...
ROW 0D : ... .. . ... ... ... : ... .. . ... ... ... ... : ... .. . ... : ... .. . ... ... : ... .. . ...
ROW 0E : D#5 0D . ... ... ... : A#4 0D . ... ... ... ... : --- .. . ... : ... .. . ... ... : ... .. . ...
ROW 0F : ... .. . ... ... ... : ... .. . ... ... ... ... : ... .. . ... : ... .. . ... ... : ... .. . ...
ROW 10 : ... .. . ... ... ... : ... .. . ... ... ... ... : D-3 0D . ... : F-# 02 3 V01 ... : ... .. . ...
ROW 11 : ... .. . ... ... ... : ... .. . ... ... ... ... : ... .. . ... : E-# 02 . ... ... : ... .. . ...
ROW 12 : ... .. . ... ... ... : ... .. . ... ... ... ... : --- .. . ... : D-# 02 2 ... ... : ... .. . ...
ROW 13 : ... .. . ... ... ... : ... .. . ... ... ... ... : ... .. . ... : C-# 02 . ... ... : ... .. . ...
ROW 14 : D-5 0D . ... ... ... : A-4 0D . ... ... ... ... : D#3 0D . ... : B-# 02 . ... ... : ... .. . ...
ROW 15 : ... .. . ... ... ... : ... .. . ... ... ... ... : ... .. . ... : A-# 02 1 ... ... : ... .. . ...
ROW 16 : ... .. . ... ... ... : ... .. . ... ... ... ... : --- .. . ... : 9-# 02 . ... ... : ... .. . ...
ROW 17 : ... .. . ... ... ... : ... .. . ... ... ... ... : ... .. . ... : ... .. . ... ... : ... .. . ...
ROW 18 : C-5 0D 6 ... ... ... : C-4 0E 8 ... ... ... ... : C-3 0D . ... : --- .. . ... ... : ... .. . ...
ROW 19 : ... .. . ... ... ... : ... .. . ... ... ... ... : ... .. . ... : ... .. . ... ... : ... .. . ...
ROW 1A : D-5 0D 3 ... ... ... : ... .. . ... ... ... ... : --- .. . ... : ... .. . ... ... : ... .. . ...
ROW 1B : ... .. . ... ... ... : ... .. . ... ... ... ... : ... .. . ... : ... .. . ... ... : ... .. . ...
ROW 1C : A#4 0D 6 ... ... ... : G-4 0D 4 ... ... ... ... : D-3 0D . ... : ... .. . ... ... : ... .. . ...
ROW 1D : ... .. . ... ... ... : ... .. . ... ... ... ... : ... .. . ... : ... .. . ... ... : ... .. . ...
ROW 1E : C-5 0D 3 ... ... ... : ... .. . ... ... ... ... : --- .. . ... : ... .. . ... ... : ... .. . ...
ROW 1F : ... .. . ... ... ... : ... .. . ... ... ... ... : ... .. . ... : ... .. . ... ... : ... .. . ...
ROW 20 : G-5 0D 6 ... ... ... : G-5 0D . ... ... ... ... : G-2 0D . ... : F-# 02 2 V01 ... : ... .. . F04
ROW 21 : ... .. . ... ... ... : ... .. . ... ... ... ... : ... .. . ... : E-# 02 . ... ... : ... .. . ...
ROW 22 : D#5 0D . ... ... ... : ... .. . ... ... ... ... : --- .. . ... : D-# 02 . ... ... : ... .. . ...
ROW 23 : G-5 0D 3 ... ... ... : ... .. . ... ... ... ... : ... .. . ... : C-# 02 1 ... ... : ... .. . ...
ROW 24 : C-5 0D 6 ... ... ... : ... .. . ... ... ... ... : F-2 0D . ... : B-# 02 . ... ... : ... .. . ...
ROW 25 : D#5 0D 3 ... ... ... : ... .. . ... ... ... ... : ... .. . ... : A-# 02 . ... ... : ... .. . ...
ROW 26 : G-4 0D 6 ... ... ... : ... .. . ... ... ... ... : --- .. . ... : 9-# 02 . ... ... : ... .. . ...
ROW 27 : C-5 0D 3 ... ... ... : ... .. . ... ... ... ... : ... .. . ... : ... .. . ... ... : ... .. . ...
ROW 28 : D-4 0D 6 ... ... ... : F-5 0D . ... ... ... ... : D#2 0D . ... : --- .. . ... ... : ... .. . ...
ROW 29 : G-4 0D 3 ... ... ... : ... .. . ... ... ... ... : ... .. . ... : ... .. . ... ... : ... .. . ...
ROW 2A : F#4 0D 6 ... ... ... : ... .. . ... ... ... ... : --- .. . ... : ... .. . ... ... : ... .. . ...
ROW 2B : D-4 0D 3 ... ... ... : ... .. . ... ... ... ... : ... .. . ... : ... .. . ... ... : ... .. . ...
ROW 2C : A-4 0D 6 ... ... ... : ... .. . ... ... ... ... : D-2 0D . ... : ... .. . ... ... : ... .. . ...
ROW 2D : F#4 0D 3 ... ... ... : ... .. . ... ... ... ... : ... .. . ... : ... .. . ... ... : ... .. . ...
ROW 2E : D-5 0D 6 ... ... ... : ... .. . ... ... ... ... : --- .. . ... : ... .. . ... ... : ... .. . ...
ROW 2F : A-4 0D 3 ... ... ... : ... .. . ... ... ... ... : ... .. . ... : ... .. . ... ... : ... .. . ...
ROW 30 : C-5 0D 6 ... ... ... : D#5 0D . ... ... ... ... : C-2 0D . ... : F-# 02 1 V01 ... : ... .. . F05
ROW 31 : D-5 0D 3 ... ... ... : ... .. . ... ... ... ... : ... .. . ... : E-# 02 . ... ... : ... .. . ...
ROW 32 : A-4 0D 6 ... ... ... : ... .. . ... ... ... ... : ... .. . 210 : D-# 02 . ... ... : ... .. . ...
ROW 33 : C-5 0D 3 ... ... ... : ... .. . ... ... ... ... : ... .. . ... : C-# 02 . ... ... : ... .. . ...
ROW 34 : D#4 0D 6 ... ... ... : ... .. . ... ... ... ... : C-2 0D . 200 : B-# 02 . ... ... : ... .. . ...
ROW 35 : A-4 0D 3 ... ... ... : ... .. . ... ... ... ... : ... .. . ... : ... .. . ... ... : ... .. . ...
ROW 36 : C-4 0D 6 ... ... ... : ... .. . ... ... ... ... : C-3 0D . ... : ... .. . ... ... : ... .. . ...
ROW 37 : D#4 0D 3 ... ... ... : ... .. . ... ... ... ... : ... .. . ... : ... .. . ... ... : ... .. . ...
ROW 38 : B-3 0D 6 ... ... ... : D-5 0D . ... ... ... ... : --- .. . ... : --- .. . ... ... : ... .. . F06
ROW 39 : C-4 0D 3 ... ... ... : ... .. . ... ... ... ... : ... .. . ... : ... .. . ... ... : ... .. . ...
ROW 3A : D-4 0D 6 ... ... ... : ... .. . ... ... ... ... : B-1 0D . ... : ... .. . ... ... : ... .. . ...
ROW 3B : B-3 0D 3 ... ... ... : ... .. . ... ... ... ... : ... .. . ... : ... .. . ... ... : ... .. . ...
ROW 3C : G-4 0D 6 ... ... ... : B-4 0D . ... ... ... ... : B-2 0D . ... : ... .. . ... ... : ... .. . ...
ROW 3D : D-4 0D 3 ... ... ... : ... .. . ... ... ... ... : ... .. . ... : ... .. . ... ... : ... .. . ...
ROW 3E : B-4 0D 6 ... ... ... : ... .. . ... ... ... ... : --- .. . ... : ... .. . ... ... : ... .. . ...
ROW 3F : G-4 0D 3 ... ... ... : ... .. . ... ... ... ... : ... .. . ... : ... .. . ... ... : ... .. . ...

PATTERN 05
ROW 00 : C-3 0D 6 ... ... ... : G-3 0D 6 ... P80 400 ... : C-2 02 . ... : D-# 05 6 V00 ... : ... .. . F04
ROW 01 : ... .. . ... ... ... : ... .. . ... ... ... ... : ... .. . ... : ... .. . ... ... : ... .. . ...
ROW 02 : ... .. . 210 ... ... : ... .. . 210 ... ... ... : ... .. . 210 : ... .. . ... ... : ... .. . ...
ROW 03 : ... .. . ... ... ... : ... .. . ... ... ... ... : ... .. . ... : ... .. . ... ... : ... .. . ...
ROW 04 : ... .. . ... ... ... : ... .. . ... ... ... ... : ... .. . ... : D-# 06 . ... ... : ... .. . ...
ROW 05 : ... .. . ... ... ... : ... .. . ... ... ... ... : ... .. . ... : ... .. . ... ... : ... .. . ...
ROW 06 : ... .. . ... ... ... : ... .. . ... ... ... ... : ... .. . ... : ... .. . ... ... : ... .. . ...
ROW 07 : ... .. . ... ... ... : ... .. . ... ... ... ... : ... .. . ... : ... .. . ... ... : ... .. . ...
ROW 08 : ... .. . ... ... ... : ... .. . ... ... ... ... : --- .. . ... : D-# 05 . ... ... : ... .. . ...
ROW 09 : ... .. . ... ... ... : ... .. . ... ... ... ... : ... .. . ... : ... .. . ... ... : ... .. . ...
ROW 0A : ... .. . ... ... ... : ... .. . ... ... ... ... : ... .. . ... : ... .. . ... ... : ... .. . ...
ROW 0B : ... .. . ... ... ... : ... .. . ... ... ... ... : ... .. . ... : ... .. . ... ... : ... .. . ...
ROW 0C : ... .. . ... ... ... : ... .. . ... ... ... ... : ... .. . ... : F-# 05 . ... ... : ... .. . ...
ROW 0D : ... .. . ... ... ... : ... .. . ... ... ... ... : ... .. . ... : ... .. . ... ... : ... .. . ...
ROW 0E : ... .. . ... ... ... : ... .. . ... ... ... ... : ... .. . ... : ... .. . ... ... : ... .. . ...
ROW 0F : ... .. . ... ... ... : ... .. . ... ... ... ... : ... .. . ... : ... .. . ... ... : ... .. . ...
ROW 10 : C-3 0D 4 200 ... ... : G-3 0D 4 200 ... ... ... : ... .. . ... : F-# 06 . ... ... : ... .. . ...
ROW 11 : ... .. . ... ... ... : ... .. . ... ... ... ... : ... .. . ... : ... .. . ... ... : ... .. . ...
ROW 12 : ... .. . ... ... ... : ... .. . ... ... ... ... : ... .. . ... : ... .. . ... ... : ... .. . ...
ROW 13 : ... .. . ... ... ... : ... .. . ... ... ... ... : ... .. . ... : ... .. . ... ... : ... .. . ...
ROW 14 : ... .. . 210 ... ... : ... .. . 210 ... ... ... : ... .. . ... : F-# 05 . ... ... : ... .. . ...
ROW 15 : ... .. . ... ... ... : ... .. . ... ... ... ... : ... .. . ... : ... .. . ... ... : ... .. . ...
ROW 16 : --- .. . ... ... ... : --- .. . ... ... ... ... : ... .. . ... : ... .. . ... ... : ... .. . ...
ROW 17 : ... .. . ... ... ... : ... .. . ... ... ... ... : ... .. . ... : ... .. . ... ... : ... .. . ...
ROW 18 : ... .. . ... ... ... : ... .. . ... ... ... ... : ... .. . ... : B-# 03 8 ... ... : ... .. . ...
ROW 19 : ... .. . ... ... ... : ... .. . ... ... ... ... : ... .. . ... : ... .. . ... ... : ... .. . ...
ROW 1A : ... .. . ... ... ... : ... .. . ... ... ... ... : ... .. . ... : ... .. . ... ... : ... .. . ...
ROW 1B : ... .. . ... ... ... : ... .. . ... ... ... ... : ... .. . ... : ... .. . ... ... : ... .. . ...
ROW 1C : ... .. . ... ... ... : ... .. . ... ... ... ... : ... .. . ... : F-# 05 6 ... ... : ... .. . ...
ROW 1D : ... .. . ... ... ... : ... .. . ... ... ... ... : ... .. . ... : ... .. . ... ... : ... .. . ...
ROW 1E : ... .. . ... ... ... : ... .. . ... ... ... ... : ... .. . ... : ... .. . ... ... : ... .. . ...
ROW 1F : ... .. . ... ... ... : ... .. . ... ... ... ... : ... .. . ... : ... .. . ... ... : ... .. . ...
ROW 20 : C-3 0D 2 200 ... ... : G-3 0D 2 200 ... ... ... : ... .. . ... : D-# 05 . ... ... : ... .. . ...
ROW 21 : ... .. . ... ... ... : ... .. . ... ... ... ... : ... .. . ... : ... .. . ... ... : ... .. . ...
ROW 22 : ... .. . 210 ... ... : ... .. . 210 ... ... ... : ... .. . ... : ... .. . ... ... : ... .. . ...
ROW 23 : ... .. . ... ... ... : ... .. . ... ... ... ... : ... .. . ... : ... .. . ... ... : ... .. . ...
ROW 24 : --- .. . ... ... ... : --- .. . ... ... ... ... : ... .. . ... : D-# 06 . ... ... : ... .. . ...
ROW 25 : ... .. . ... ... ... : ... .. . ... ... ... ... : ... .. . ... : ... .. . ... ... : ... .. . ...
ROW 26 : ... .. . ... ... ... : ... .. . ... ... ... ... : ... .. . ... : ... .. . ... ... : ... .. . ...
ROW 27 : ... .. . ... ... ... : ... .. . ... ... ... ... : ... .. . ... : ... .. . ... ... : ... .. . ...
ROW 28 : ... .. . ... ... ... : ... .. . ... ... ... ... : ... .. . ... : D-# 05 . ... ... : ... .. . ...
ROW 29 : ... .. . ... ... ... : ... .. . ... ... ... ... : ... .. . ... : ... .. . ... ... : ... .. . ...
ROW 2A : ... .. . ... ... ... : ... .. . ... ... ... ... : ... .. . ... : ... .. . ... ... : ... .. . ...
ROW 2B : ... .. . ... ... ... : ... .. . ... ... ... ... : ... .. . ... : ... .. . ... ... : ... .. . ...
ROW 2C : ... .. . ... ... ... : ... .. . ... ... ... ... : ... .. . ... : F-# 05 . ... ... : ... .. . ...
ROW 2D : ... .. . ... ... ... : ... .. . ... ... ... ... : ... .. . ... : ... .. . ... ... : ... .. . ...
ROW 2E : ... .. . ... ... ... : ... .. . ... ... ... ... : ... .. . ... : ... .. . ... ... : ... .. . ...
ROW 2F : ... .. . ... ... ... : ... .. . ... ... ... ... : ... .. . ... : ... .. . ... ... : ... .. . B1C
ROW 30 : C-3 0D 1 200 ... ... : G-3 0D 1 200 ... ... ... : ... .. . ... : B-# 04 8 ... ... : ... .. . ...
ROW 31 : ... .. . ... ... ... : ... .. . ... ... ... ... : ... .. . ... : ... .. . ... ... : ... .. . ...
ROW 32 : ... .. . 210 ... ... : ... .. . 210 ... ... ... : ... .. . ... : ... .. . ... ... : ... .. . ...
ROW 33 : ... .. . ... ... ... : ... .. . ... ... ... ... : ... .. . ... : ... .. . ... ... : ... .. . ...
ROW 34 : --- .. . 200 ... ... : --- .. . 200 ... ... ... : ... .. . ... : F-# 05 6 ... ... : ... .. . ...
ROW 35 : ... .. . ... ... ... : ... .. . ... ... ... ... : ... .. . ... : ... .. . ... ... : ... .. . ...
ROW 36 : ... .. . ... ... ... : ... .. . ... ... ... ... : ... .. . ... : ... .. . ... ... : ... .. . ...
ROW 37 : ... .. . ... ... ... : ... .. . ... ... ... ... : ... .. . ... : ... .. . ... ... : ... .. . ...
ROW 38 : ... .. . ... ... ... : ... .. . ... ... ... ... : ... .. . ... : F-# 06 . ... ... : ... .. . ...
ROW 39 : ... .. . ... ... ... : ... .. . ... ... ... ... : ... .. . ... : ... .. . ... ... : ... .. . ...
ROW 3A : ... .. . ... ... ... : ... .. . ... ... ... ... : ... .. . ... : ... .. . ... ... : ... .. . ...
ROW 3B : ... .. . ... ... ... : ... .. . ... ... ... ... : ... .. . ... : ... .. . ... ... : ... .. . ...
ROW 3C : ... .. . ... ... ... : ... .. . ... ... ... ... : ... .. . ... : F-# 05 . ... ... : ... .. . ...
ROW 3D : ... .. . ... ... ... : ... .. . ... ... ... ... : ... .. . ... : ... .. . ... ... : ... .. . ...
ROW 3E : ... .. . ... ... ... : ... .. . ... ... ... ... : ... .. . ... : ... .. . ... ... : ... .. . ...
ROW 3F : ... .. . ... ... ... : ... .. . ... ... ... ... : ... .. . ... : ... .. . ... ... : ... .. . ...

PATTERN 06
ROW 00 : C-2 00 6 V02 ... ... : ... .. . ... ... ... ... : C-2 12 . 200 : F-# 06 F V01 ... : ... .. . F04
ROW 01 : ... .. . V01 ... ... : ... .. . ... ... ... ... : ... .. . ... : ... .. . ... ... : ... .. . ...
ROW 02 : C-3 00 . V00 ... ... : ... .. . ... ... ... ... : ... .. . ... : ... .. . ... ... : ... .. . ...
ROW 03 : C-2 00 3 V02 ... ... : ... .. . ... ... ... ... : ... .. . ... : ... .. . ... ... : ... .. . ...
ROW 04 : G-2 00 6 V01 ... ... : ... .. . ... ... ... ... : --- .. . ... : F-# 06 8 V00 ... : ... .. . ...
ROW 05 : C-3 00 3 V00 ... ... : ... .. . ... ... ... ... : ... .. . ... : ... .. . ... ... : ... .. . ...
ROW 06 : D#2 00 6 V02 ... ... : ... .. . ... ... ... ... : ... .. . ... : ... .. . ... ... : ... .. . ...
ROW 07 : G-2 00 3 V01 ... ... : ... .. . ... ... ... ... : ... .. . ... : ... .. . ... ... : ... .. . ...
ROW 08 : D#3 00 6 V00 ... ... : C-3 00 8 V02 P81 400 ... : C-2 12 . ... : F-# 05 F V01 ... : ... .. . ...
ROW 09 : D#2 00 3 V02 ... ... : ... .. . ... ... ... ... : ... .. . ... : ... .. . ... ... : ... .. . ...
ROW 0A : C-3 00 6 V01 ... ... : ... .. . ... ... ... ... : ... .. . ... : ... .. . ... ... : ... .. . ...
ROW 0B : D#3 00 3 V00 ... ... : ... .. . ... ... ... ... : ... .. . ... : ... .. . ... ... : ... .. . ...
ROW 0C : G-2 00 6 V02 ... ... : G-2 00 . ... ... ... ... : C-3 12 . ... : F-# 06 8 V00 ... : ... .. . ...
ROW 0D : C-3 00 3 V01 ... ... : ... .. . ... ... ... ... : ... .. . ... : ... .. . ... ... : ... .. . ...
ROW 0E : G-3 00 6 V00 ... ... : C-3 00 4 ... ... ... ... : ... .. . ... : ... .. . ... ... : ... .. . ...
ROW 0F : G-2 00 3 V02 ... ... : ... .. . ... ... ... ... : ... .. . ... : ... .. . ... ... : ... .. . ...
ROW 10 : D#3 00 6 V01 ... ... : C-3 00 8 ... ... ... ... : --- .. . ... : B-# 04 . ... ... : ... .. . ...
ROW 11 : G-3 00 3 V00 ... ... : ... .. . ... ... ... ... : ... .. . ... : ... .. . ... ... : ... .. . ...
ROW 12 : C-3 00 6 V02 ... ... : G-3 00 4 ... ... ... ... : ... .. . ... : ... .. . ... ... : ... .. . ...
ROW 13 : D#3 00 3 V01 ... ... : ... .. . ... ... ... ... : ... .. . ... : ... .. . ... ... : ... .. . ...
ROW 14 : C-4 00 6 V00 ... ... : D-3 00 8 ... ... ... ... : G-2 12 . ... : F-# 05 F V01 ... : ... .. . ...
ROW 15 : C-3 00 3 V02 ... ... : ... .. . ... ... ... ... : ... .. . ... : ... .. . ... ... : ... .. . ...
ROW 16 : G-3 00 6 V01 ... ... : ... .. . ... ... ... ... : ... .. . ... : ... .. . ... ... : ... .. . ...
ROW 17 : C-4 00 3 V00 ... ... : ... .. . ... ... ... ... : ... .. . ... : ... .. . ... ... : ... .. . ...
ROW 18 : D#3 00 6 V02 ... ... : ... .. . ... ... 464 ... : --- .. . ... : F-# 06 8 V00 ... : ... .. . ...
ROW 19 : G-3 00 3 V01 ... ... : ... .. . ... ... ... ... : ... .. . ... : ... .. . ... ... : ... .. . ...
ROW 1A : D#4 00 6 V00 ... ... : ... .. . ... ... ... ... : ... .. . ... : ... .. . ... ... : ... .. . ...
ROW 1B : D#3 00 3 V02 ... ... : ... .. . ... ... ... ... : ... .. . ... : ... .. . ... ... : ... .. . ...
ROW 1C : C-4 00 6 V01 ... ... : D#3 00 . ... ... 400 305 : ... .. . ... : F-# 05 F V01 ... : ... .. . ...
ROW 1D : D#4 00 3 V00 ... ... : ... .. . ... ... ... ... : ... .. . ... : ... .. . ... ... : ... .. . ...
ROW 1E : G-3 00 6 V02 ... ... : ... .. . ... ... ... ... : ... .. . ... : ... .. . ... ... : ... .. . ...
ROW 1F : C-4 00 3 V01 ... ... : ... .. . ... ... ... ... : ... .. . ... : ... .. . ... ... : ... .. . ...
ROW 20 : G-4 00 6 V00 ... ... : ... .. . ... ... 464 ... : ... .. . ... : F-# 06 8 V00 ... : ... .. . ...
ROW 21 : G-3 00 3 V02 ... ... : ... .. . ... ... ... ... : ... .. . ... : ... .. . ... ... : ... .. . ...
ROW 22 : D#4 00 6 V01 ... ... : ... .. . ... ... ... ... : ... .. . ... : ... .. . ... ... : ... .. . ...
ROW 23 : G-4 00 3 V00 ... ... : ... .. . ... ... ... ... : ... .. . ... : ... .. . ... ... : ... .. . ...
ROW 24 : C-4 00 6 V02 ... ... : ... .. . ... ... ... ... : ... .. . ... : F-# 06 F V01 ... : ... .. . ...
ROW 25 : D#4 00 3 V01 ... ... : ... .. . ... ... ... ... : ... .. . ... : ... .. . ... ... : ... .. . ...
ROW 26 : C-5 00 6 V00 ... ... : ... .. . ... ... ... ... : ... .. . ... : ... .. . ... ... : ... .. . ...
ROW 27 : C-4 00 3 V02 ... ... : ... .. . ... ... ... ... : ... .. . ... : ... .. . ... ... : ... .. . ...
ROW 28 : G-4 00 6 V01 ... ... : ... .. . ... ... ... ... : ... .. . ... : F-# 05 . ... ... : ... .. . ...
ROW 29 : C-5 00 3 V00 ... ... : ... .. . ... ... ... ... : ... .. . ... : ... .. . ... ... : ... .. . ...
ROW 2A : D#4 00 6 V02 ... ... : ... .. . ... ... ... ... : ... .. . ... : ... .. . ... ... : ... .. . ...
ROW 2B : G-4 00 3 V01 ... ... : ... .. . ... ... ... ... : ... .. . ... : ... .. . ... ... : ... .. . ...
ROW 2C : D#5 00 6 V00 ... ... : ... .. . ... ... ... ... : ... .. . ... : F-# 06 8 V00 ... : ... .. . ...
ROW 2D : D#4 00 3 V02 ... ... : ... .. . ... ... ... ... : ... .. . ... : ... .. . ... ... : ... .. . ...
ROW 2E : C-5 00 6 V01 ... ... : ... .. . ... ... ... ... : ... .. . ... : ... .. . ... ... : ... .. . ...
ROW 2F : D#5 00 3 V00 ... ... : ... .. . ... ... ... ... : ... .. . ... : ... .. . ... ... : ... .. . B1D
ROW 30 : G-4 00 6 V02 ... ... : G-3 00 . ... ... 400 300 : D#3 12 . ... : B-# 03 . ... ... : ... .. . ...
ROW 31 : C-5 00 3 V01 ... ... : ... .. . ... ... ... ... : ... .. . ... : ... .. . ... ... : ... .. . ...
ROW 32 : G-5 00 6 V00 ... ... : ... .. . ... ... ... ... : ... .. . ... : ... .. . ... ... : ... .. . ...
ROW 33 : G-4 00 3 V02 ... ... : ... .. . ... ... ... ... : ... .. . ... : ... .. . ... ... : ... .. . ...
ROW 34 : D#5 00 6 V01 ... ... : ... .. . ... ... 464 ... : D-3 12 . ... : F-# 05 F V01 ... : ... .. . ...
ROW 35 : G-5 00 3 V00 ... ... : ... .. . ... ... ... ... : ... .. . ... : ... .. . ... ... : ... .. . ...
ROW 36 : C-5 00 6 V02 ... ... : ... .. . ... ... ... ... : ... .. . ... : ... .. . ... ... : ... .. . ...
ROW 37 : D#5 00 3 V01 ... ... : ... .. . ... ... ... ... : ... .. . ... : ... .. . ... ... : ... .. . ...
ROW 38 : C-6 00 6 V00 ... ... : C-4 00 . ... ... 400 ... : C-3 12 . ... : F-# 06 6 V00 ... : ... .. . ...
ROW 39 : C-5 00 3 V02 ... ... : ... .. . ... ... ... ... : ... .. . ... : ... .. . ... ... : ... .. . ...
ROW 3A : G-5 00 6 V01 ... ... : ... .. . ... ... ... ... : ... .. . ... : ... .. . ... ... : ... .. . ...
ROW 3B : C-6 00 3 V00 ... ... : ... .. . ... ... ... ... : ... .. . ... : ... .. . ... ... : ... .. . ...
ROW 3C : D#5 00 6 V02 ... ... : ... .. . ... ... 464 ... : A#2 12 . ... : F-# 05 8 V01 ... : ... .. . ...
ROW 3D : G-5 00 3 V01 ... ... : ... .. . ... ... ... ... : ... .. . ... : ... .. . ... ... : ... .. . ...
ROW 3E : D#6 00 6 V00 ... ... : ... .. . ... ... ... ... : ... .. . ... : ... .. . ... ... : ... .. . ...
ROW 3F : D#5 00 3 V02 ... ... : ... .. . ... ... ... ... : ... .. . ... : ... .. . ... ... : ... .. . ...

PATTERN 07
ROW 00 : G-1 00 6 V02 ... ... : ... .. . ... ... ... ... : G-1 12 . ... : F-# 06 F V01 ... : ... .. . F04
ROW 01 : ... .. . V01 ... ... : ... .. . ... ... ... ... : ... .. . ... : ... .. . ... ... : ... .. . ...
ROW 02 : G-2 00 . V00 ... ... : ... .. . ... ... ... ... : ... .. . ... : ... .. . ... ... : ... .. . ...
ROW 03 : G-1 00 3 V02 ... ... : ... .. . ... ... ... ... : ... .. . ... : ... .. . ... ... : ... .. . ...
ROW 04 : D-2 00 6 V01 ... ... : ... .. . ... ... ... ... : --- .. . ... : F-# 06 8 V00 ... : ... .. . ...
ROW 05 : G-2 00 3 V00 ... ... : ... .. . ... ... ... ... : ... .. . ... : ... .. . ... ... : ... .. . ...
ROW 06 : A#1 00 6 V02 ... ... : ... .. . ... ... ... ... : ... .. . ... : ... .. . ... ... : ... .. . ...
ROW 07 : D-2 00 3 V01 ... ... : ... .. . ... ... ... ... : ... .. . ... : ... .. . ... ... : ... .. . ...
ROW 08 : A#2 00 6 V00 ... ... : G-3 00 8 V02 P81 400 ... : G-1 12 . ... : F-# 05 F V01 ... : ... .. . ...
ROW 09 : A#1 00 3 V02 ... ... : ... .. . ... ... ... ... : ... .. . ... : ... .. . ... ... : ... .. . ...
ROW 0A : G-2 00 6 V01 ... ... : ... .. . ... ... ... ... : ... .. . ... : ... .. . ... ... : ... .. . ...
ROW 0B : A#2 00 3 V00 ... ... : ... .. . ... ... ... ... : ... .. . ... : ... .. . ... ... : ... .. . ...
ROW 0C : D-2 00 6 V02 ... ... : D-3 00 . ... ... ... ... : G-2 12 . ... : F-# 06 8 V00 ... : ... .. . ...
ROW 0D : G-2 00 3 V01 ... ... : ... .. . ... ... ... ... : ... .. . ... : ... .. . ... ... : ... .. . ...
ROW 0E : D-3 00 6 V00 ... ... : G-3 00 4 ... ... ... ... : ... .. . ... : ... .. . ... ... : ... .. . ...
ROW 0F : D-2 00 3 V02 ... ... : ... .. . ... ... ... ... : ... .. . ... : ... .. . ... ... : ... .. . ...
ROW 10 : A#2 00 6 V01 ... ... : G-3 00 8 ... ... ... ... : --- .. . ... : B-# 04 . ... ... : ... .. . ...
ROW 11 : D-3 00 3 V00 ... ... : ... .. . ... ... ... ... : ... .. . ... : ... .. . ... ... : ... .. . ...
ROW 12 : G-2 00 6 V02 ... ... : D-3 00 4 ... ... ... ... : ... .. . ... : ... .. . ... ... : ... .. . ...
ROW 13 : A#2 00 3 V01 ... ... : ... .. . ... ... ... ... : ... .. . ... : ... .. . ... ... : ... .. . ...
ROW 14 : G-3 00 6 V00 ... ... : A-3 00 8 ... ... ... ... : D-2 12 . ... : F-# 05 F V01 ... : ... .. . ...
ROW 15 : G-2 00 3 V02 ... ... : ... .. . ... ... ... ... : ... .. . ... : ... .. . ... ... : ... .. . ...
ROW 16 : D-3 00 6 V01 ... ... : ... .. . ... ... ... ... : ... .. . ... : ... .. . ... ... : ... .. . ...
ROW 17 : G-3 00 3 V00 ... ... : ... .. . ... ... ... ... : ... .. . ... : ... .. . ... ... : ... .. . ...
ROW 18 : A#2 00 6 V02 ... ... : ... .. . ... ... 464 ... : --- .. . ... : F-# 06 8 V00 ... : ... .. . ...
ROW 19 : D-3 00 3 V01 ... ... : ... .. . ... ... ... ... : ... .. . ... : ... .. . ... ... : ... .. . ...
ROW 1A : A#3 00 6 V00 ... ... : ... .. . ... ... ... ... : ... .. . ... : ... .. . ... ... : ... .. . ...
ROW 1B : A#2 00 3 V02 ... ... : ... .. . ... ... ... ... : ... .. . ... : ... .. . ... ... : ... .. . ...
ROW 1C : G-3 00 6 V01 ... ... : A#3 00 . ... ... 400 305 : ... .. . ... : F-# 05 F V01 ... : ... .. . ...
ROW 1D : A#3 00 3 V00 ... ... : ... .. . ... ... ... ... : ... .. . ... : ... .. . ... ... : ... .. . ...
ROW 1E : D-3 00 6 V02 ... ... : ... .. . ... ... ... ... : ... .. . ... : ... .. . ... ... : ... .. . ...
ROW 1F : G-3 00 3 V01 ... ... : ... .. . ... ... ... ... : ... .. . ... : ... .. . ... ... : ... .. . ...
ROW 20 : D-4 00 6 V00 ... ... : ... .. . ... ... 464 ... : ... .. . ... : F-# 06 8 V00 ... : ... .. . ...
ROW 21 : D-3 00 3 V02 ... ... : ... .. . ... ... ... ... : ... .. . ... : ... .. . ... ... : ... .. . ...
ROW 22 : A#3 00 6 V01 ... ... : ... .. . ... ... ... ... : ... .. . ... : ... .. . ... ... : ... .. . ...
ROW 23 : D-4 00 3 V00 ... ... : ... .. . ... ... ... ... : ... .. . ... : ... .. . ... ... : ... .. . ...
ROW 24 : G-3 00 6 V02 ... ... : ... .. . ... ... ... ... : ... .. . ... : F-# 06 F V01 ... : ... .. . ...
ROW 25 : A#3 00 3 V01 ... ... : ... .. . ... ... ... ... : ... .. . ... : ... .. . ... ... : ... .. . ...
ROW 26 : G-4 00 6 V00 ... ... : ... .. . ... ... ... ... : ... .. . ... : ... .. . ... ... : ... .. . ...
ROW 27 : G-3 00 3 V02 ... ... : ... .. . ... ... ... ... : ... .. . ... : ... .. . ... ... : ... .. . ...
ROW 28 : D-4 00 6 V01 ... ... : ... .. . ... ... ... ... : ... .. . ... : F-# 05 . ... ... : ... .. . ...
ROW 29 : G-4 00 3 V00 ... ... : ... .. . ... ... ... ... : ... .. . ... : ... .. . ... ... : ... .. . ...
ROW 2A : A#3 00 6 V02 ... ... : ... .. . ... ... ... ... : ... .. . ... : ... .. . ... ... : ... .. . ...
ROW 2B : D-4 00 3 V01 ... ... : ... .. . ... ... ... ... : ... .. . ... : ... .. . ... ... : ... .. . ...
ROW 2C : A#4 00 6 V00 ... ... : ... .. . ... ... ... ... : ... .. . ... : F-# 06 8 V00 ... : ... .. . ...
ROW 2D : A#3 00 3 V02 ... ... : ... .. . ... ... ... ... : ... .. . ... : ... .. . ... ... : ... .. . ...
ROW 2E : G-4 00 6 V01 ... ... : ... .. . ... ... ... ... : ... .. . ... : ... .. . ... ... : ... .. . ...
ROW 2F : A#4 00 3 V00 ... ... : ... .. . ... ... ... ... : ... .. . ... : ... .. . ... ... : ... .. . B1E
ROW 30 : D-4 00 6 V02 ... ... : ... .. . ... ... ... ... : D-2 12 . ... : B-# 03 . ... ... : ... .. . ...
ROW 31 : G-4 00 3 V01 ... ... : ... .. . ... ... ... ... : ... .. . ... : ... .. . ... ... : ... .. . ...
ROW 32 : D-5 00 6 V00 ... ... : ... .. . ... ... ... ... : ... .. . ... : ... .. . ... ... : ... .. . ...
ROW 33 : D-4 00 3 V02 ... ... : ... .. . ... ... ... ... : ... .. . ... : ... .. . ... ... : ... .. . ...
ROW 34 : A#4 00 6 V01 ... ... : ... .. . ... ... ... ... : C-2 12 . ... : F-# 05 . ... ... : ... .. . ...
ROW 35 : D-5 00 3 V00 ... ... : ... .. . ... ... ... ... : ... .. . ... : ... .. . ... ... : ... .. . ...
ROW 36 : G-4 00 6 V02 ... ... : ... .. . ... ... ... ... : ... .. . ... : ... .. . ... ... : ... .. . ...
ROW 37 : A#4 00 3 V01 ... ... : ... .. . ... ... ... ... : ... .. . ... : ... .. . ... ... : ... .. . ...
ROW 38 : G-5 00 6 V00 ... ... : D-4 00 . ... ... 400 300 : D-2 12 . ... : F-# 02 7 V01 ... : ... .. . ...
ROW 39 : G-4 00 3 V02 ... ... : ... .. . ... ... ... ... : ... .. . ... : E-# 02 . ... ... : ... .. . ...
ROW 3A : D-5 00 6 V01 ... ... : ... .. . ... ... ... ... : ... .. . ... : D-# 02 6 ... ... : ... .. . ...
ROW 3B : G-5 00 3 V00 ... ... : ... .. . ... ... ... ... : ... .. . ... : C-# 02 . ... ... : ... .. . ...
ROW 3C : A#4 00 6 V02 ... ... : G-4 00 . ... ... ... ... : A#1 12 . ... : B-# 02 5 ... ... : ... .. . ...
ROW 3D : D-5 00 3 V01 ... ... : ... .. . ... ... ... ... : ... .. . ... : A-# 02 . ... ... : ... .. . ...
ROW 3E : A#5 00 6 V00 ... ... : ... .. . ... ... ... ... : ... .. . ... : 9-# 02 4 ... ... : ... .. . ...
ROW 3F : A#4 00 3 V02 ... ... : ... .. . ... ... ... ... : ... .. . ... : 8-# 02 . ... ... : ... .. . ...

PATTERN 08
ROW 00 : D#1 00 6 V02 ... ... : ... .. . ... ... 464 ... : G#1 12 . ... : F-# 05 F V00 ... : ... .. . F04
ROW 01 : ... .. . V01 ... ... : ... .. . ... ... ... ... : ... .. . ... : ... .. . ... ... : ... .. . ...
ROW 02 : G#1 00 . V00 ... ... : ... .. . ... ... ... ... : ... .. . ... : ... .. . ... ... : ... .. . ...
ROW 03 : D#1 00 3 V02 ... ... : ... .. . ... ... ... ... : ... .. . ... : ... .. . ... ... : ... .. . ...
ROW 04 : C-2 00 6 V01 ... ... : ... .. . ... ... ... ... : --- .. . ... : F-# 05 . ... ... : ... .. . ...
ROW 05 : G#1 00 3 V00 ... ... : ... .. . ... ... ... ... : ... .. . ... : ... .. . ... ... : ... .. . ...
ROW 06 : G#1 00 6 V02 ... ... : ... .. . ... ... ... ... : ... .. . ... : F-# 06 . ... ... : ... .. . ...
ROW 07 : C-2 00 3 V01 ... ... : ... .. . ... ... ... ... : ... .. . ... : ... .. . ... ... : ... .. . ...
ROW 08 : C-2 00 6 V00 ... ... : G#3 00 8 V02 P81 400 ... : G#1 12 . ... : ... .. . ... ... : ... .. . ...
ROW 09 : G#1 00 3 V02 ... ... : ... .. . ... ... ... ... : ... .. . ... : ... .. . ... ... : ... .. . ...
ROW 0A : D#2 00 6 V01 ... ... : ... .. . ... ... ... ... : ... .. . ... : ... .. . ... ... : ... .. . ...
ROW 0B : C-2 00 3 V00 ... ... : ... .. . ... ... ... ... : ... .. . ... : ... .. . ... ... : ... .. . ...
ROW 0C : C-2 00 6 V02 ... ... : ... .. . ... ... 464 ... : G#2 12 . ... : F-# 05 . ... ... : ... .. . ...
ROW 0D : D#2 00 3 V01 ... ... : ... .. 6 ... ... ... ... : ... .. . ... : ... .. . ... ... : ... .. . ...
ROW 0E : D#2 00 6 V00 ... ... : ... .. 4 ... ... ... ... : ... .. . ... : ... .. . ... ... : ... .. . ...
ROW 0F : C-2 00 3 V02 ... ... : ... .. 2 ... ... ... ... : ... .. . ... : ... .. . ... ... : ... .. . ...
ROW 10 : G#2 00 6 V01 ... ... : G#3 00 8 ... ... 400 ... : --- .. . ... : F-# 06 . V01 ... : ... .. . ...
ROW 11 : D#2 00 3 V00 ... ... : ... .. . ... ... ... ... : ... .. . ... : ... .. . ... ... : ... .. . ...
ROW 12 : D#2 00 6 V02 ... ... : ... .. . ... ... ... ... : ... .. . ... : ... .. . ... ... : ... .. . ...
ROW 13 : G#2 00 3 V01 ... ... : ... .. . ... ... ... ... : ... .. . ... : ... .. . ... ... : ... .. . ...
ROW 14 : G#2 00 6 V00 ... ... : A#3 00 . ... ... ... ... : D#2 12 . ... : F-# 06 . V00 ... : ... .. . ...
ROW 15 : D#2 00 3 V02 ... ... : ... .. . ... ... ... ... : ... .. . ... : ... .. . ... ... : ... .. . ...
ROW 16 : C-3 00 6 V01 ... ... : ... .. . ... ... ... ... : ... .. . ... : ... .. . ... ... : ... .. . ...
ROW 17 : G#2 00 3 V00 ... ... : ... .. . ... ... ... ... : ... .. . ... : ... .. . ... ... : ... .. . ...
ROW 18 : G#2 00 6 V02 ... ... : ... .. . ... ... 464 ... : --- .. . ... : F-# 05 . ... ... : ... .. . ...
ROW 19 : C-3 00 3 V01 ... ... : ... .. . ... ... ... ... : ... .. . ... : ... .. . ... ... : ... .. . ...
ROW 1A : C-3 00 6 V00 ... ... : ... .. . ... ... ... ... : ... .. . ... : ... .. . ... ... : ... .. . ...
ROW 1B : G#2 00 3 V02 ... ... : ... .. . ... ... ... ... : ... .. . ... : ... .. . ... ... : ... .. . ...
ROW 1C : D#3 00 6 V01 ... ... : C-4 00 . ... ... 400 315 : ... .. . ... : F-# 05 . ... ... : ... .. . ...
ROW 1D : C-3 00 3 V00 ... ... : ... .. . ... ... ... ... : ... .. . ... : ... .. . ... ... : ... .. . ...
ROW 1E : C-3 00 6 V02 ... ... : ... .. . ... ... ... ... : ... .. . ... : F-# 06 . ... ... : ... .. . ...
ROW 1F : D#3 00 3 V01 ... ... : ... .. . ... ... ... ... : ... .. . ... : ... .. . ... ... : ... .. . ...
ROW 20 : D#3 00 6 V00 ... ... : ... .. . ... ... 464 ... : ... .. . ... : ... .. . ... ... : ... .. . ...
ROW 21 : C-3 00 3 V02 ... ... : ... .. . ... ... ... ... : ... .. . ... : ... .. . ... ... : ... .. . ...
ROW 22 : G#3 00 6 V01 ... ... : ... .. . ... ... ... ... : ... .. . ... : F-# 05 . ... ... : ... .. . ...
ROW 23 : D#3 00 3 V00 ... ... : ... .. . ... ... ... ... : ... .. . ... : ... .. . ... ... : ... .. . ...
ROW 24 : D#3 00 6 V02 ... ... : ... .. . ... ... ... ... : ... .. . ... : ... .. . ... ... : ... .. . ...
ROW 25 : G#3 00 3 V01 ... ... : ... .. . ... ... ... ... : ... .. . ... : ... .. . ... ... : ... .. . ...
ROW 26 : G#3 00 6 V00 ... ... : ... .. . ... ... ... ... : ... .. . ... : ... .. . ... ... : ... .. . ...
ROW 27 : D#3 00 3 V02 ... ... : ... .. . ... ... ... ... : ... .. . ... : ... .. . ... ... : ... .. . ...
ROW 28 : C-4 00 6 V01 ... ... : ... .. . ... ... ... ... : ... .. . ... : F-# 06 . V01 ... : ... .. . ...
ROW 29 : G#3 00 3 V00 ... ... : ... .. . ... ... ... ... : ... .. . ... : ... .. . ... ... : ... .. . ...
ROW 2A : G#3 00 6 V02 ... ... : ... .. . ... ... ... ... : ... .. . ... : ... .. . ... ... : ... .. . ...
ROW 2B : C-4 00 3 V01 ... ... : ... .. . ... ... ... ... : ... .. . ... : ... .. . ... ... : ... .. . ...
ROW 2C : C-4 00 6 V00 ... ... : ... .. . ... ... ... ... : ... .. . ... : ... .. . ... ... : ... .. . ...
ROW 2D : G#3 00 3 V02 ... ... : ... .. . ... ... ... ... : ... .. . ... : ... .. . ... ... : ... .. . ...
ROW 2E : D#4 00 6 V01 ... ... : ... .. . ... ... ... ... : ... .. . ... : ... .. . ... ... : ... .. . ...
ROW 2F : C-4 00 3 V00 ... ... : ... .. . ... ... ... ... : ... .. . ... : ... .. . ... ... : ... .. . B1F
ROW 30 : C-4 00 6 V02 ... ... : D-4 00 . ... ... 400 300 : C-3 12 . ... : ... .. . ... ... : ... .. . ...
ROW 31 : D#4 00 3 V01 ... ... : ... .. . ... ... ... ... : ... .. . ... : ... .. . ... ... : ... .. . ...
ROW 32 : D#4 00 6 V00 ... ... : ... .. . ... ... ... ... : ... .. . ... : ... .. . ... ... : ... .. . ...
ROW 33 : C-4 00 3 V02 ... ... : ... .. . ... ... ... ... : ... .. . ... : ... .. . ... ... : ... .. . ...
ROW 34 : G#4 00 6 V01 ... ... : ... .. . ... ... 464 ... : --- .. . ... : ... .. . ... ... : ... .. . ...
ROW 35 : D#4 00 3 V00 ... ... : ... .. . ... ... ... ... : ... .. . ... : ... .. . ... ... : ... .. . ...
ROW 36 : D#4 00 6 V02 ... ... : ... .. . ... ... ... ... : ... .. . ... : ... .. . ... ... : ... .. . ...
ROW 37 : G#4 00 3 V01 ... ... : ... .. . ... ... ... ... : ... .. . ... : ... .. . ... ... : ... .. . ...
ROW 38 : G#4 00 6 V00 ... ... : D#4 00 . ... ... 400 ... : D#3 12 . ... : ... .. . ... ... : ... .. . ...
ROW 39 : D#4 00 3 V02 ... ... : ... .. . ... ... ... ... : ... .. . ... : ... .. . ... ... : ... .. . ...
ROW 3A : C-5 00 6 V01 ... ... : ... .. . ... ... ... ... : ... .. . ... : ... .. . ... ... : ... .. . ...
ROW 3B : G#4 00 3 V00 ... ... : ... .. . ... ... ... ... : ... .. . ... : ... .. . ... ... : ... .. . ...
ROW 3C : G#4 00 6 V02 ... ... : ... .. . ... ... 464 ... : --- .. . ... : ... .. . ... ... : ... .. . ...
ROW 3D : C-5 00 3 V01 ... ... : ... .. . ... ... ... ... : ... .. . ... : ... .. . ... ... : ... .. . ...
ROW 3E : C-5 00 6 V00 ... ... : ... .. . ... ... ... ... : ... .. . ... : ... .. . ... ... : ... .. . ...
ROW 3F : G#4 00 3 V02 ... ... : ... .. . ... ... ... ... : ... .. . ... : ... .. . ... ... : ... .. . ...

PATTERN 09
ROW 00 : D-5 00 6 V02 ... ... : D-4 00 8 V02 P81 400 ... : A#1 12 . ... : F-# 05 F V00 ... : ... .. . F04
ROW 01 : ... .. . V01 ... ... : ... .. . ... ... ... ... : ... .. . ... : ... .. . ... ... : ... .. . ...
ROW 02 : A#4 00 . V00 ... ... : ... .. . ... ... ... ... : ... .. . ... : ... .. . ... ... : ... .. . ...
ROW 03 : D-5 00 3 V02 ... ... : ... .. . ... ... ... ... : ... .. . ... : ... .. . ... ... : ... .. . ...
ROW 04 : F-4 00 6 V01 ... ... : ... .. . ... ... 464 ... : --- .. . ... : F-# 05 . ... ... : ... .. . ...
ROW 05 : A#4 00 3 V00 ... ... : ... .. . ... ... ... ... : ... .. . ... : ... .. . ... ... : ... .. . ...
ROW 06 : D-4 00 6 V02 ... ... : ... .. . ... ... ... ... : ... .. . ... : F-# 06 . ... ... : ... .. . ...
ROW 07 : F-4 00 3 V01 ... ... : ... .. . ... ... ... ... : ... .. . ... : ... .. . ... ... : ... .. . ...
ROW 08 : A#4 00 6 V00 ... ... : A#3 00 . ... ... 400 ... : A#1 12 . ... : ... .. . ... ... : ... .. . ...
ROW 09 : D-4 00 3 V02 ... ... : ... .. . ... ... ... ... : ... .. . ... : ... .. . ... ... : ... .. . ...
ROW 0A : F-4 00 6 V01 ... ... : ... .. . ... ... ... ... : ... .. . ... : ... .. . ... ... : ... .. . ...
ROW 0B : A#4 00 3 V00 ... ... : ... .. . ... ... ... ... : ... .. . ... : ... .. . ... ... : ... .. . ...
ROW 0C : D-4 00 6 V02 ... ... : ... .. . ... ... 464 ... : A#2 12 . ... : F-# 05 . ... ... : ... .. . ...
ROW 0D : F-4 00 3 V01 ... ... : ... .. . ... ... ... ... : ... .. . ... : ... .. . ... ... : ... .. . ...
ROW 0E : A#3 00 6 V00 ... ... : ... .. . ... ... ... ... : ... .. . ... : ... .. . ... ... : ... .. . ...
ROW 0F : D-4 00 3 V02 ... ... : ... .. . ... ... ... ... : ... .. . ... : ... .. . ... ... : ... .. . ...
ROW 10 : F-4 00 6 V01 ... ... : D-4 00 . ... ... 400 ... : --- .. . ... : F-# 06 . V01 ... : ... .. . ...
ROW 11 : A#3 00 3 V00 ... ... : ... .. . ... ... ... ... : ... .. . ... : ... .. . ... ... : ... .. . ...
ROW 12 : D-4 00 6 V02 ... ... : ... .. . ... ... ... ... : ... .. . ... : ... .. . ... ... : ... .. . ...
ROW 13 : F-4 00 3 V01 ... ... : ... .. . ... ... ... ... : ... .. . ... : ... .. . ... ... : ... .. . ...
ROW 14 : A#3 00 6 V00 ... ... : ... .. . ... ... 464 ... : F-2 12 . ... : F-# 06 . V00 ... : ... .. . ...
ROW 15 : D-4 00 3 V02 ... ... : ... .. . ... ... ... ... : ... .. . ... : ... .. . ... ... : ... .. . ...
ROW 16 : F-3 00 6 V01 ... ... : ... .. . ... ... ... ... : ... .. . ... : ... .. . ... ... : ... .. . ...
ROW 17 : A#3 00 3 V00 ... ... : ... .. . ... ... ... ... : ... .. . ... : ... .. . ... ... : ... .. . ...
ROW 18 : D-4 00 6 V02 ... ... : ... .. . ... ... ... ... : --- .. . ... : F-# 05 . ... ... : ... .. . ...
ROW 19 : F-3 00 3 V01 ... ... : ... .. . ... ... ... ... : ... .. . ... : ... .. . ... ... : ... .. . ...
ROW 1A : A#3 00 6 V00 ... ... : ... .. . ... ... ... ... : ... .. . ... : ... .. . ... ... : ... .. . ...
ROW 1B : D-4 00 3 V02 ... ... : ... .. . ... ... ... ... : ... .. . ... : ... .. . ... ... : ... .. . ...
ROW 1C : F-3 00 6 V01 ... ... : ... .. . ... ... ... ... : ... .. . ... : F-# 05 . ... ... : ... .. . ...
ROW 1D : A#3 00 3 V00 ... ... : ... .. . ... ... ... ... : ... .. . ... : ... .. . ... ... : ... .. . ...
ROW 1E : D-3 00 6 V02 ... ... : ... .. . ... ... ... ... : ... .. . ... : F-# 06 . ... ... : ... .. . ...
ROW 1F : F-3 00 3 V01 ... ... : ... .. . ... ... ... ... : ... .. . ... : ... .. . ... ... : ... .. . ...
ROW 20 : A#3 00 6 V00 ... ... : ... .. . ... ... ... ... : ... .. . ... : ... .. . ... ... : ... .. . ...
ROW 21 : D-3 00 3 V02 ... ... : ... .. . ... ... ... ... : ... .. . ... : ... .. . ... ... : ... .. . ...
ROW 22 : F-3 00 6 V01 ... ... : ... .. . ... ... ... ... : ... .. . ... : F-# 05 . ... ... : ... .. . ...
ROW 23 : A#3 00 3 V00 ... ... : ... .. . ... ... ... ... : ... .. . ... : ... .. . ... ... : ... .. . ...
ROW 24 : D-3 00 6 V02 ... ... : ... .. . ... ... ... ... : ... .. . ... : ... .. . ... ... : ... .. . ...
ROW 25 : F-3 00 3 V01 ... ... : ... .. . ... ... ... ... : ... .. . ... : ... .. . ... ... : ... .. . ...
ROW 26 : A#2 00 6 V00 ... ... : ... .. . ... ... ... ... : ... .. . ... : ... .. . ... ... : ... .. . ...
ROW 27 : D-3 00 3 V02 ... ... : ... .. . ... ... ... ... : ... .. . ... : ... .. . ... ... : ... .. . ...
ROW 28 : F-3 00 6 V01 ... ... : ... .. . ... ... ... ... : ... .. . ... : F-# 02 6 V01 ... : ... .. . ...
ROW 29 : A#2 00 3 V00 ... ... : ... .. . ... ... ... ... : ... .. . ... : E-# 02 . ... ... : ... .. . ...
ROW 2A : D-3 00 6 V02 ... ... : ... .. . ... ... ... ... : ... .. . ... : D-# 02 . ... ... : ... .. . ...
ROW 2B : F-3 00 3 V01 ... ... : ... .. . ... ... ... ... : ... .. . ... : C-# 02 . ... ... : ... .. . ...
ROW 2C : A#2 00 6 V00 ... ... : ... .. . ... ... ... ... : ... .. . ... : B-# 02 5 ... ... : ... .. . ...
ROW 2D : D-3 00 3 V02 ... ... : ... .. . ... ... ... ... : ... .. . ... : A-# 02 . ... ... : ... .. . ...
ROW 2E : F-2 00 6 V01 ... ... : D#4 00 . ... ... 400 ... : ... .. . ... : 9-# 02 . ... ... : ... .. . ...
ROW 2F : A#2 00 3 V00 ... ... : E-4 00 . ... ... ... ... : ... .. . ... : 8-# 02 . ... ... : ... .. . B20
ROW 30 : D-3 00 6 V02 ... ... : F-4 00 . ... ... ... ... : D-3 12 . ... : ... .. . ... ... : ... .. . ...
ROW 31 : F-2 00 3 V01 ... ... : ... .. . ... ... ... ... : ... .. . ... : ... .. . ... ... : ... .. . ...
ROW 32 : A#2 00 6 V00 ... ... : ... .. . ... ... ... ... : ... .. . ... : ... .. . ... ... : ... .. . ...
ROW 33 : D-3 00 3 V02 ... ... : ... .. . ... ... ... ... : ... .. . ... : ... .. . ... ... : ... .. . ...
ROW 34 : F-2 00 6 V01 ... ... : ... .. . ... ... 464 ... : --- .. . ... : ... .. . ... ... : ... .. . ...
ROW 35 : A#2 00 3 V00 ... ... : ... .. . ... ... ... ... : ... .. . ... : ... .. . ... ... : ... .. . ...
ROW 36 : D-2 00 6 V02 ... ... : ... .. . ... ... ... ... : ... .. . ... : ... .. . ... ... : ... .. . ...
ROW 37 : F-2 00 3 V01 ... ... : ... .. . ... ... ... ... : ... .. . ... : ... .. . ... ... : ... .. . ...
ROW 38 : A#2 00 6 V00 ... ... : ... .. . ... ... ... ... : F-3 12 . ... : ... .. . ... ... : ... .. . ...
ROW 39 : D-2 00 3 V02 ... ... : ... .. . ... ... ... ... : ... .. . ... : ... .. . ... ... : ... .. . ...
ROW 3A : F-2 00 6 V01 ... ... : ... .. . ... ... ... ... : ... .. . ... : ... .. . ... ... : ... .. . ...
ROW 3B : A#2 00 3 V00 ... ... : ... .. . ... ... ... ... : ... .. . ... : ... .. . ... ... : ... .. . ...
ROW 3C : D-2 00 6 V02 ... ... : ... .. . ... ... ... ... : --- .. . ... : ... .. . ... ... : ... .. . ...
ROW 3D : F-2 00 3 V01 ... ... : ... .. . ... ... ... ... : ... .. . ... : ... .. . ... ... : ... .. . ...
ROW 3E : A#1 00 6 V00 ... ... : ... .. . ... ... ... ... : ... .. . ... : ... .. . ... ... : ... .. . ...
ROW 3F : D-2 00 3 V02 ... ... : ... .. . ... ... ... ... : ... .. . ... : ... .. . ... ... : ... .. . ...

PATTERN 0A
ROW 00 : D-2 01 5 V02 ... ... : ... .. . ... ... ... ... : D-2 02 . ... : F-# 06 6 V00 ... : ... .. . F04
ROW 01 : ... .. . ... ... ... : ... .. . ... ... ... ... : ... .. . ... : ... .. . ... ... : ... .. . ...
ROW 02 : ... .. . ... ... ... : ... .. . ... ... ... ... : ... .. . ... : ... .. . ... ... : ... .. . ...
ROW 03 : ... .. . ... ... ... : ... .. . ... ... ... ... : ... .. . ... : ... .. . ... ... : ... .. . ...
ROW 04 : ... .. . ... 464 210 : ... .. . ... ... ... ... : ... .. . ... : F-# 05 . ... ... : ... .. . ...
ROW 05 : ... .. . ... ... ... : ... .. . ... ... ... ... : ... .. . ... : ... .. . ... ... : ... .. . ...
ROW 06 : ... .. . ... ... 200 : ... .. . ... ... ... ... : ... .. . ... : ... .. . ... ... : ... .. . ...
ROW 07 : ... .. . ... ... ... : ... .. . ... ... ... ... : ... .. . ... : ... .. . ... ... : ... .. . ...
ROW 08 : ... .. . ... ... ... : G-4 00 8 V02 P81 400 ... : ... .. . ... : D-# 05 . ... ... : ... .. . ...
ROW 09 : ... .. . ... ... ... : ... .. . ... ... ... ... : ... .. . ... : ... .. . ... ... : ... .. . ...
ROW 0A : ... .. . ... ... ... : ... .. . ... ... ... ... : ... .. . ... : ... .. . ... ... : ... .. . ...
ROW 0B : ... .. . ... ... ... : ... .. . ... ... ... ... : ... .. . ... : ... .. . ... ... : ... .. . ...
ROW 0C : ... .. . ... ... ... : ... .. . ... ... 464 ... : ... .. . ... : F-# 06 . ... ... : ... .. . ...
ROW 0D : ... .. . ... ... ... : ... .. 6 ... ... ... ... : ... .. . ... : ... .. . ... ... : ... .. . ...
ROW 0E : ... .. . ... ... ... : ... .. 4 ... ... ... ... : ... .. . ... : ... .. . ... ... : ... .. . ...
ROW 0F : ... .. . ... ... ... : ... .. 2 ... ... ... ... : ... .. . ... : ... .. . ... ... : ... .. . ...
ROW 10 : D-2 01 3 ... 400 ... : G-4 00 8 ... ... 400 ... : --- .. . ... : F-# 04 8 ... ... : ... .. . ...
ROW 11 : ... .. . ... ... ... : ... .. . ... ... ... ... : ... .. . ... : ... .. . ... ... : ... .. . ...
ROW 12 : ... .. . ... ... ... : ... .. . ... ... ... ... : ... .. . ... : ... .. . ... ... : ... .. . ...
ROW 13 : ... .. . ... ... ... : ... .. . ... ... ... ... : ... .. . ... : ... .. . ... ... : ... .. . ...
ROW 14 : ... .. . ... 464 210 : D#4 00 . ... ... ... ... : ... .. . ... : F-# 05 6 ... ... : ... .. . ...
ROW 15 : ... .. . ... ... ... : ... .. . ... ... ... ... : ... .. . ... : ... .. . ... ... : ... .. . ...
ROW 16 : ... .. . ... ... 200 : G-4 00 4 ... ... ... ... : ... .. . ... : ... .. . ... ... : ... .. . ...
ROW 17 : ... .. . ... ... ... : ... .. . ... ... ... ... : ... .. . ... : ... .. . ... ... : ... .. . ...
ROW 18 : ... .. . ... ... ... : C-4 00 8 ... ... ... ... : ... .. . ... : E-# 06 . ... ... : ... .. . ...
ROW 19 : ... .. . ... ... ... : ... .. . ... ... ... ... : ... .. . ... : ... .. . ... ... : ... .. . ...
ROW 1A : ... .. . ... ... ... : D#4 00 4 ... ... ... ... : ... .. . ... : ... .. . ... ... : ... .. . ...
ROW 1B : ... .. . ... ... ... : ... .. . ... ... ... ... : ... .. . ... : ... .. . ... ... : ... .. . ...
ROW 1C : ... .. . ... ... ... : G-4 00 8 ... ... ... ... : ... .. . ... : F-# 05 . ... ... : ... .. . ...
ROW 1D : ... .. . ... ... ... : ... .. . ... ... ... ... : ... .. . ... : ... .. . ... ... : ... .. . ...
ROW 1E : ... .. . ... ... ... : ... .. . ... ... ... ... : ... .. . ... : ... .. . ... ... : ... .. . ...
ROW 1F : ... .. . ... ... ... : ... .. . ... ... ... ... : ... .. . ... : ... .. . ... ... : ... .. . ...
ROW 20 : D-2 01 2 ... 400 ... : ... .. . ... ... 464 ... : ... .. . ... : F-# 06 . ... ... : ... .. . ...
ROW 21 : ... .. . ... ... ... : ... .. . ... ... ... ... : ... .. . ... : ... .. . ... ... : ... .. . ...
ROW 22 : ... .. . ... ... ... : ... .. . ... ... ... ... : ... .. . ... : ... .. . ... ... : ... .. . ...
ROW 23 : ... .. . ... ... ... : ... .. . ... ... ... ... : ... .. . ... : ... .. . ... ... : ... .. . ...
ROW 24 : ... .. . ... 464 210 : D#4 00 . ... ... 400 330 : ... .. . ... : D-# 05 . ... ... : ... .. . ...
ROW 25 : ... .. . ... ... ... : ... .. . ... ... ... ... : ... .. . ... : ... .. . ... ... : ... .. . ...
ROW 26 : ... .. . ... ... 200 : ... .. . ... ... ... ... : ... .. . ... : ... .. . ... ... : ... .. . ...
ROW 27 : ... .. . ... ... ... : ... .. . ... ... ... ... : ... .. . ... : ... .. . ... ... : ... .. . ...
ROW 28 : ... .. . ... ... ... : ... .. . ... ... 464 ... : ... .. . ... : E-# 05 . ... ... : ... .. . ...
ROW 29 : ... .. . ... ... ... : ... .. . ... ... ... ... : ... .. . ... : ... .. . ... ... : ... .. . ...
ROW 2A : ... .. . ... ... ... : ... .. . ... ... ... ... : ... .. . ... : ... .. . ... ... : ... .. . ...
ROW 2B : ... .. . ... ... ... : ... .. . ... ... ... ... : ... .. . ... : ... .. . ... ... : ... .. . ...
ROW 2C : ... .. . ... ... ... : ... .. . ... ... ... ... : ... .. . ... : F-# 05 . ... ... : ... .. . ...
ROW 2D : ... .. . ... ... ... : ... .. . ... ... ... ... : ... .. . ... : ... .. . ... ... : ... .. . ...
ROW 2E : ... .. . ... ... ... : ... .. . ... ... ... ... : ... .. . ... : ... .. . ... ... : ... .. . ...
ROW 2F : ... .. . ... ... ... : ... .. . ... ... ... ... : ... .. . ... : ... .. . ... ... : ... .. . B21
ROW 30 : D-2 01 1 ... 400 ... : ... .. . ... ... ... ... : ... .. . ... : 8-# 03 8 ... ... : ... .. . ...
ROW 31 : ... .. . ... ... ... : ... .. . ... ... ... ... : ... .. . ... : ... .. . ... ... : ... .. . ...
ROW 32 : ... .. . ... ... ... : ... .. . ... ... ... ... : ... .. . ... : ... .. . ... ... : ... .. . ...
ROW 33 : ... .. . ... ... ... : ... .. . ... ... ... ... : ... .. . ... : ... .. . ... ... : ... .. . ...
ROW 34 : ... .. . ... 464 210 : ... .. . ... ... ... ... : ... .. . ... : D-# 05 6 ... ... : ... .. . ...
ROW 35 : ... .. . ... ... ... : ... .. . ... ... ... ... : ... .. . ... : ... .. . ... ... : ... .. . ...
ROW 36 : ... .. . ... ... 200 : ... .. . ... ... ... ... : ... .. . ... : ... .. . ... ... : ... .. . ...
ROW 37 : ... .. . ... ... ... : ... .. . ... ... ... ... : ... .. . ... : ... .. . ... ... : ... .. . ...
ROW 38 : ... .. . ... ... ... : F-4 00 . ... ... 400 300 : ... .. . ... : F-# 06 . ... ... : ... .. . ...
ROW 39 : ... .. . ... ... ... : ... .. . ... ... ... ... : ... .. . ... : ... .. . ... ... : ... .. . ...
ROW 3A : ... .. . ... ... ... : ... .. . ... ... ... ... : ... .. . ... : ... .. . ... ... : ... .. . ...
ROW 3B : ... .. . ... ... ... : ... .. . ... ... ... ... : ... .. . ... : ... .. . ... ... : ... .. . ...
ROW 3C : ... .. . ... 400 ... : D#4 00 . ... ... ... ... : ... .. . ... : C-# 05 . ... ... : ... .. . ...
ROW 3D : ... .. . ... ... ... : ... .. . ... ... ... ... : ... .. . ... : ... .. . ... ... : ... .. . ...
ROW 3E : ... .. . ... ... ... : ... .. . ... ... ... ... : ... .. . ... : ... .. . ... ... : ... .. . ...
ROW 3F : ... .. . ... ... ... : ... .. . ... ... ... ... : ... .. . ... : ... .. . ... ... : ... .. . ...

PATTERN 0B
ROW 00 : ... .. . ... ... ... : ... .. . ... ... ... ... : ... .. . ... : F-# 05 6 ... ... : ... .. . F04
ROW 01 : ... .. . ... ... ... : ... .. . ... ... ... ... : ... .. . ... : ... .. . ... ... : ... .. . ...
ROW 02 : ... .. . ... ... ... : ... .. . ... ... ... ... : ... .. . ... : ... .. . ... ... : ... .. . ...
ROW 03 : ... .. . ... ... ... : ... .. . ... ... ... ... : ... .. . ... : ... .. . ... ... : ... .. . ...
ROW 04 : ... .. . ... ... ... : ... .. . ... ... ... ... : ... .. . ... : F-# 06 . ... ... : ... .. . ...
ROW 05 : ... .. . ... ... ... : ... .. . ... ... ... ... : ... .. . ... : ... .. . ... ... : ... .. . ...
ROW 06 : ... .. . ... ... ... : ... .. . ... ... ... ... : ... .. . ... : ... .. . ... ... : ... .. . ...
ROW 07 : ... .. . ... ... ... : ... .. . ... ... ... ... : ... .. . ... : ... .. . ... ... : ... .. . ...
ROW 08 : ... .. . ... ... ... : F-4 00 8 V02 P81 400 ... : ... .. . ... : F-# 05 . ... ... : ... .. . ...
ROW 09 : ... .. . ... ... ... : ... .. . ... ... ... ... : ... .. . ... : ... .. . ... ... : ... .. . ...
ROW 0A : ... .. . ... ... ... : ... .. . ... ... ... ... : ... .. . ... : ... .. . ... ... : ... .. . ...
ROW 0B : ... .. . ... ... ... : ... .. . ... ... ... ... : ... .. . ... : ... .. . ... ... : ... .. . ...
ROW 0C : ... .. . ... ... ... : ... .. . ... ... ... ... : ... .. . ... : D-# 06 . ... ... : ... .. . ...
ROW 0D : ... .. . ... ... ... : ... .. 6 ... ... ... ... : ... .. . ... : ... .. . ... ... : ... .. . ...
ROW 0E : ... .. . ... ... ... : ... .. 4 ... ... ... ... : ... .. . ... : ... .. . ... ... : ... .. . ...
ROW 0F : ... .. . ... ... ... : ... .. 2 ... ... ... ... : ... .. . ... : ... .. . ... ... : ... .. . ...
ROW 10 : ... .. . ... ... ... : F-4 00 8 ... ... ... ... : ... .. . ... : 8-# 03 8 ... ... : ... .. . ...
ROW 11 : ... .. . ... ... ... : ... .. . ... ... ... ... : ... .. . ... : ... .. . ... ... : ... .. . ...
ROW 12 : ... .. . ... ... ... : ... .. . ... ... ... ... : ... .. . ... : ... .. . ... ... : ... .. . ...
ROW 13 : ... .. . ... ... ... : ... .. . ... ... ... ... : ... .. . ... : ... .. . ... ... : ... .. . ...
ROW 14 : ... .. . ... ... ... : G-4 00 . ... ... ... ... : ... .. . ... : F-# 05 6 ... ... : ... .. . ...
ROW 15 : ... .. . ... ... ... : ... .. . ... ... ... ... : ... .. . ... : ... .. . ... ... : ... .. . ...
ROW 16 : ... .. . ... ... ... : F-4 00 4 ... ... ... ... : ... .. . ... : ... .. . ... ... : ... .. . ...
ROW 17 : ... .. . ... ... ... : ... .. . ... ... ... ... : ... .. . ... : ... .. . ... ... : ... .. . ...
ROW 18 : ... .. . ... ... ... : F-4 00 8 ... ... ... ... : ... .. . ... : D-# 05 . ... ... : ... .. . ...
ROW 19 : ... .. . ... ... ... : ... .. . ... ... ... ... : ... .. . ... : ... .. . ... ... : ... .. . ...
ROW 1A : ... .. . ... ... ... : G-4 00 4 ... ... ... ... : ... .. . ... : ... .. . ... ... : ... .. . ...
ROW 1B : ... .. . ... ... ... : ... .. . ... ... ... ... : ... .. . ... : ... .. . ... ... : ... .. . ...
ROW 1C : ... .. . ... ... ... : D-4 00 8 ... ... ... ... : ... .. . ... : E-# 05 . ... ... : ... .. . ...
ROW 1D : ... .. . ... ... ... : ... .. . ... ... ... ... : ... .. . ... : ... .. . ... ... : ... .. . ...
ROW 1E : ... .. . ... ... ... : ... .. . ... ... ... ... : ... .. . ... : ... .. . ... ... : ... .. . ...
ROW 1F : ... .. . ... ... ... : ... .. . ... ... ... ... : ... .. . ... : ... .. . ... ... : ... .. . ...
ROW 20 : ... .. . ... ... ... : ... .. . ... ... 464 ... : ... .. . ... : F-# 05 . ... ... : ... .. . ...
ROW 21 : ... .. . ... ... ... : ... .. . ... ... ... ... : ... .. . ... : ... .. . ... ... : ... .. . ...
ROW 22 : ... .. . ... ... ... : ... .. . ... ... ... ... : ... .. . ... : ... .. . ... ... : ... .. . ...
ROW 23 : ... .. . ... ... ... : ... .. . ... ... ... ... : ... .. . ... : ... .. . ... ... : ... .. . ...
ROW 24 : ... .. . ... ... ... : A#3 00 . ... ... 400 335 : ... .. . ... : F-# 05 . ... ... : ... .. . ...
ROW 25 : ... .. . ... ... ... : ... .. . ... ... ... ... : ... .. . ... : ... .. . ... ... : ... .. . ...
ROW 26 : ... .. . ... ... ... : ... .. . ... ... ... ... : ... .. . ... : ... .. . ... ... : ... .. . ...
ROW 27 : ... .. . ... ... ... : ... .. . ... ... ... ... : ... .. . ... : ... .. . ... ... : ... .. . ...
ROW 28 : ... .. . ... ... ... : ... .. . ... ... 464 ... : ... .. . ... : F-# 06 . ... ... : ... .. . ...
ROW 29 : ... .. . ... ... ... : ... .. . ... ... ... ... : ... .. . ... : ... .. . ... ... : ... .. . ...
ROW 2A : ... .. . ... ... ... : ... .. . ... ... ... ... : ... .. . ... : ... .. . ... ... : ... .. . ...
ROW 2B : ... .. . ... ... ... : ... .. . ... ... ... ... : ... .. . ... : ... .. . ... ... : ... .. . ...
ROW 2C : ... .. . ... ... ... : ... .. . ... ... ... ... : ... .. . ... : F-# 06 . ... ... : ... .. . ...
ROW 2D : ... .. . ... ... ... : ... .. . ... ... ... ... : ... .. . ... : ... .. . ... ... : ... .. . ...
ROW 2E : ... .. . ... ... ... : ... .. . ... ... ... ... : ... .. . ... : ... .. . ... ... : ... .. . ...
ROW 2F : ... .. . ... ... ... : ... .. . ... ... ... ... : ... .. . ... : ... .. . ... ... : ... .. . B22
ROW 30 : ... .. . ... ... ... : ... .. . ... ... ... ... : ... .. . ... : 8-# 04 8 ... ... : ... .. . ...
ROW 31 : ... .. . ... ... ... : ... .. . ... ... ... ... : ... .. . ... : ... .. . ... ... : ... .. . ...
ROW 32 : ... .. . ... ... ... : ... .. . ... ... ... ... : ... .. . ... : ... .. . ... ... : ... .. . ...
ROW 33 : ... .. . ... ... ... : ... .. . ... ... ... ... : ... .. . ... : ... .. . ... ... : ... .. . ...
ROW 34 : ... .. . ... ... ... : ... .. . ... ... ... ... : ... .. . ... : F-# 05 6 ... ... : ... .. . ...
ROW 35 : ... .. . ... ... ... : ... .. . ... ... ... ... : ... .. . ... : ... .. . ... ... : ... .. . ...
ROW 36 : ... .. . ... ... ... : D#4 00 . ... ... 400 300 : ... .. . ... : ... .. . ... ... : ... .. . ...
ROW 37 : ... .. . ... ... ... : E-4 00 . ... ... ... ... : ... .. . ... : ... .. . ... ... : ... .. . ...
ROW 38 : ... .. . ... ... ... : F-4 00 . ... ... ... ... : ... .. . ... : F-# 05 . ... ... : ... .. . ...
ROW 39 : ... .. . ... ... ... : ... .. . ... ... ... ... : ... .. . ... : ... .. . ... ... : ... .. . ...
ROW 3A : ... .. . ... ... ... : ... .. . ... ... ... ... : ... .. . ... : ... .. . ... ... : ... .. . ...
ROW 3B : ... .. . ... ... ... : ... .. . ... ... ... ... : ... .. . ... : ... .. . ... ... : ... .. . ...
ROW 3C : ... .. . ... ... ... : ... .. . ... ... 464 ... : ... .. . ... : F-# 05 . ... ... : ... .. . ...
ROW 3D : ... .. . ... ... ... : ... .. . ... ... ... ... : ... .. . ... : ... .. . ... ... : ... .. . ...
ROW 3E : ... .. . ... ... ... : ... .. . ... ... ... ... : ... .. . ... : ... .. . ... ... : ... .. . ...
ROW 3F : ... .. . ... ... ... : ... .. . ... ... ... ... : ... .. . ... : ... .. . ... ... : ... .. . ...

PATTERN 0C
ROW 00 : ... .. . ... ... ... : ... .. . ... ... ... ... : ... .. . ... : F-# 05 6 ... ... : ... .. . F04
ROW 01 : ... .. . ... ... ... : ... .. . ... ... ... ... : ... .. . ... : ... .. . ... ... : ... .. . ...
ROW 02 : ... .. . ... ... ... : ... .. . ... ... ... ... : ... .. . ... : ... .. . ... ... : ... .. . ...
ROW 03 : ... .. . ... ... ... : ... .. . ... ... ... ... : ... .. . ... : ... .. . ... ... : ... .. . ...
ROW 04 : ... .. . ... ... ... : ... .. . ... ... ... ... : ... .. . ... : F-# 05 . ... ... : ... .. . ...
ROW 05 : ... .. . ... ... ... : ... .. . ... ... ... ... : ... .. . ... : ... .. . ... ... : ... .. . ...
ROW 06 : ... .. . ... ... ... : ... .. . ... ... ... ... : ... .. . ... : ... .. . ... ... : ... .. . ...
ROW 07 : ... .. . ... ... ... : ... .. . ... ... ... ... : ... .. . ... : ... .. . ... ... : ... .. . ...
ROW 08 : ... .. . ... ... ... : D#4 00 8 V02 P81 400 ... : ... .. . ... : F-# 06 . ... ... : ... .. . ...
ROW 09 : ... .. . ... ... ... : ... .. . ... ... ... ... : ... .. . ... : ... .. . ... ... : ... .. . ...
ROW 0A : ... .. . ... ... ... : ... .. . ... ... ... ... : ... .. . ... : ... .. . ... ... : ... .. . ...
ROW 0B : ... .. . ... ... ... : ... .. . ... ... ... ... : ... .. . ... : ... .. . ... ... : ... .. . ...
ROW 0C : ... .. . ... ... ... : ... .. . ... ... ... ... : ... .. . ... : F-# 05 . ... ... : ... .. . ...
ROW 0D : ... .. . ... ... ... : ... .. 6 ... ... ... ... : ... .. . ... : ... .. . ... ... : ... .. . ...
ROW 0E : ... .. . ... ... ... : ... .. 4 ... ... ... ... : ... .. . ... : ... .. . ... ... : ... .. . ...
ROW 0F : ... .. . ... ... ... : ... .. 2 ... ... ... ... : ... .. . ... : ... .. . ... ... : ... .. . ...
ROW 10 : ... .. . ... ... ... : D#4 00 8 ... ... ... ... : ... .. . ... : 8-# 03 8 ... ... : ... .. . ...
ROW 11 : ... .. . ... ... ... : ... .. . ... ... ... ... : ... .. . ... : ... .. . ... ... : ... .. . ...
ROW 12 : ... .. . ... ... ... : ... .. . ... ... ... ... : ... .. . ... : ... .. . ... ... : ... .. . ...
ROW 13 : ... .. . ... ... ... : ... .. . ... ... ... ... : ... .. . ... : ... .. . ... ... : ... .. . ...
ROW 14 : ... .. . ... ... ... : C-4 00 . ... ... ... 325 : ... .. . ... : F-# 05 6 ... ... : ... .. . ...
ROW 15 : ... .. . ... ... ... : ... .. . ... ... ... ... : ... .. . ... : ... .. . ... ... : ... .. . ...
ROW 16 : ... .. . ... ... ... : ... .. . ... ... ... ... : ... .. . ... : ... .. . ... ... : ... .. . ...
ROW 17 : ... .. . ... ... ... : ... .. . ... ... ... ... : ... .. . ... : ... .. . ... ... : ... .. . ...
ROW 18 : ... .. . ... ... ... : ... .. . ... ... 464 ... : ... .. . ... : F-# 06 . ... ... : ... .. . ...
ROW 19 : ... .. . ... ... ... : ... .. . ... ... ... ... : ... .. . ... : ... .. . ... ... : ... .. . ...
ROW 1A : ... .. . ... ... ... : ... .. . ... ... ... ... : ... .. . ... : ... .. . ... ... : ... .. . ...
ROW 1B : ... .. . ... ... ... : ... .. . ... ... ... ... : ... .. . ... : ... .. . ... ... : ... .. . ...
ROW 1C : ... .. . ... ... ... : D#4 00 . ... ... 400 300 : ... .. . ... : F-# 05 . ... ... : ... .. . ...
ROW 1D : ... .. . ... ... ... : ... .. . ... ... ... ... : ... .. . ... : ... .. . ... ... : ... .. . ...
ROW 1E : ... .. . ... ... ... : ... .. . ... ... ... ... : ... .. . ... : ... .. . ... ... : ... .. . ...
ROW 1F : ... .. . ... ... ... : ... .. . ... ... ... ... : ... .. . ... : ... .. . ... ... : ... .. . ...
ROW 20 : ... .. . ... ... ... : ... .. . ... ... 464 ... : ... .. . ... : F-# 06 . ... ... : ... .. . F05
ROW 21 : ... .. . ... ... ... : ... .. . ... ... ... ... : ... .. . ... : ... .. . ... ... : ... .. . ...
ROW 22 : ... .. . ... ... ... : ... .. . ... ... ... ... : ... .. . ... : ... .. . ... ... : ... .. . ...
ROW 23 : ... .. . ... ... ... : ... .. . ... ... ... ... : ... .. . ... : ... .. . ... ... : ... .. . ...
ROW 24 : ... .. . ... ... ... : G#3 00 . ... ... 400 355 : ... .. . ... : F-# 05 . ... ... : ... .. . ...
ROW 25 : ... .. . ... ... ... : ... .. . ... ... ... ... : ... .. . ... : ... .. . ... ... : ... .. . ...
ROW 26 : ... .. . ... ... ... : ... .. . ... ... ... ... : ... .. . ... : ... .. . ... ... : ... .. . ...
ROW 27 : ... .. . ... ... ... : ... .. . ... ... ... ... : ... .. . ... : ... .. . ... ... : ... .. . ...
ROW 28 : ... .. . ... ... ... : ... .. . ... ... 464 ... : ... .. . ... : F-# 05 . ... ... : ... .. . F06
ROW 29 : ... .. . ... ... ... : ... .. . ... ... ... ... : ... .. . ... : ... .. . ... ... : ... .. . ...
ROW 2A : ... .. . ... ... ... : ... .. . ... ... ... ... : ... .. . ... : ... .. . ... ... : ... .. . ...
ROW 2B : ... .. . ... ... ... : ... .. . ... ... ... ... : ... .. . ... : ... .. . ... ... : ... .. . ...
ROW 2C : ... .. . ... ... ... : ... .. . ... ... ... ... : ... .. . ... : E-# 05 . ... ... : ... .. . ...
ROW 2D : ... .. . ... ... ... : ... .. . ... ... ... ... : ... .. . ... : ... .. . ... ... : ... .. . ...
ROW 2E : ... .. . ... ... ... : ... .. . ... ... ... ... : ... .. . ... : ... .. . ... ... : ... .. . ...
ROW 2F : ... .. . ... ... ... : ... .. . ... ... ... ... : ... .. . ... : ... .. . ... ... : ... .. . B23
ROW 30 : ... .. . ... ... ... : ... .. . ... ... ... ... : ... .. . ... : 3-# 04 8 ... ... : ... .. . ...
ROW 31 : ... .. . ... ... ... : ... .. . ... ... ... ... : ... .. . ... : ... .. . ... ... : ... .. . ...
ROW 32 : ... .. . ... ... ... : ... .. . ... ... ... ... : ... .. . ... : ... .. . ... ... : ... .. . ...
ROW 33 : ... .. . ... ... ... : ... .. . ... ... ... ... : ... .. . ... : ... .. . ... ... : ... .. . ...
ROW 34 : ... .. . ... ... ... : ... .. . ... ... ... ... : ... .. . ... : E-# 06 6 ... ... : ... .. . ...
ROW 35 : ... .. . ... ... ... : ... .. . ... ... ... ... : ... .. . ... : ... .. . ... ... : ... .. . ...
ROW 36 : ... .. . ... ... ... : ... .. . ... ... ... ... : ... .. . ... : ... .. . ... ... : ... .. . ...
ROW 37 : ... .. . ... ... ... : ... .. . ... ... ... ... : ... .. . ... : ... .. . ... ... : ... .. . ...
ROW 38 : ... .. . ... ... ... : G-4 00 . ... ... 400 300 : ... .. . ... : D-# 05 . ... ... : ... .. . ...
ROW 39 : ... .. . ... ... ... : ... .. . ... ... ... ... : ... .. . ... : ... .. . ... ... : ... .. . ...
ROW 3A : ... .. . ... ... ... : ... .. . ... ... ... ... : ... .. . ... : ... .. . ... ... : ... .. . ...
ROW 3B : ... .. . ... ... ... : ... .. . ... ... ... ... : ... .. . ... : ... .. . ... ... : ... .. . ...
ROW 3C : ... .. . ... ... ... : ... .. . ... ... 464 ... : ... .. . ... : D-# 06 . ... ... : ... .. . ...
ROW 3D : ... .. . ... ... ... : ... .. . ... ... ... ... : ... .. . ... : ... .. . ... ... : ... .. . ...
ROW 3E : ... .. . ... ... ... : ... .. . ... ... ... ... : ... .. . ... : ... .. . ... ... : ... .. . ...
ROW 3F : ... .. . ... ... ... : ... .. . ... ... ... ... : ... .. . ... : ... .. . ... ... : ... .. . ...

PATTERN 0D
ROW 00 : ... .. . ... ... ... : ... .. . ... ... ... ... : ... .. . ... : F-# 06 6 ... ... : ... .. . F03
ROW 01 : ... .. . ... ... ... : ... .. . ... ... ... ... : ... .. . ... : ... .. . ... ... : ... .. . ...
ROW 02 : ... .. . ... ... ... : ... .. . ... ... ... ... : ... .. . ... : ... .. . ... ... : ... .. . ...
ROW 03 : ... .. . ... ... ... : ... .. . ... ... ... ... : ... .. . ... : ... .. . ... ... : ... .. . ...
ROW 04 : ... .. . ... ... ... : ... .. . ... ... ... ... : ... .. . ... : F-# 05 . ... ... : ... .. . ...
ROW 05 : ... .. . ... ... ... : ... .. . ... ... ... ... : ... .. . ... : ... .. . ... ... : ... .. . ...
ROW 06 : ... .. . ... ... ... : ... .. . ... ... ... ... : ... .. . ... : ... .. . ... ... : ... .. . ...
ROW 07 : ... .. . ... ... ... : ... .. . ... ... ... ... : ... .. . ... : ... .. . ... ... : ... .. . ...
ROW 08 : ... .. . ... ... ... : F-4 00 8 V02 P81 400 ... : ... .. . ... : F-# 05 . ... ... : ... .. . ...
ROW 09 : ... .. . ... ... ... : ... .. . ... ... ... ... : ... .. . ... : ... .. . ... ... : ... .. . ...
ROW 0A : ... .. . ... ... ... : ... .. . ... ... ... ... : ... .. . ... : ... .. . ... ... : ... .. . ...
ROW 0B : ... .. . ... ... ... : ... .. . ... ... ... ... : ... .. . ... : ... .. . ... ... : ... .. . ...
ROW 0C : ... .. . ... ... ... : G-4 00 . ... ... ... ... : ... .. . ... : F-# 06 . ... ... : ... .. . ...
ROW 0D : ... .. . ... ... ... : ... .. . ... ... ... ... : ... .. . ... : ... .. . ... ... : ... .. . ...
ROW 0E : ... .. . ... ... ... : F-4 00 4 ... ... ... ... : ... .. . ... : ... .. . ... ... : ... .. . ...
ROW 0F : ... .. . ... ... ... : ... .. . ... ... ... ... : ... .. . ... : ... .. . ... ... : ... .. . ...
ROW 10 : ... .. . ... ... ... : F-4 00 8 ... ... ... ... : ... .. . ... : F-# 04 8 ... ... : ... .. . ...
ROW 11 : ... .. . ... ... ... : ... .. . ... ... ... ... : ... .. . ... : ... .. . ... ... : ... .. . ...
ROW 12 : ... .. . ... ... ... : G-4 00 4 ... ... ... ... : ... .. . ... : ... .. . ... ... : ... .. . ...
ROW 13 : ... .. . ... ... ... : ... .. . ... ... ... ... : ... .. . ... : ... .. . ... ... : ... .. . ...
ROW 14 : ... .. . ... ... ... : D#4 00 8 ... ... ... ... : ... .. . ... : F-# 05 6 ... ... : ... .. . ...
ROW 15 : ... .. . ... ... ... : ... .. . ... ... ... ... : ... .. . ... : ... .. . ... ... : ... .. . ...
ROW 16 : ... .. . ... ... ... : F-4 00 4 ... ... ... ... : ... .. . ... : ... .. . ... ... : ... .. . ...
ROW 17 : ... .. . ... ... ... : ... .. . ... ... ... ... : ... .. . ... : ... .. . ... ... : ... .. . ...
ROW 18 : ... .. . ... ... ... : F-4 00 8 ... ... ... ... : ... .. . ... : F-# 06 . ... ... : ... .. . ...
ROW 19 : ... .. . ... ... ... : ... .. . ... ... ... ... : ... .. . ... : ... .. . ... ... : ... .. . ...
ROW 1A : ... .. . ... ... ... : D#4 00 4 ... ... ... ... : ... .. . ... : ... .. . ... ... : ... .. . ...
ROW 1B : ... .. . ... ... ... : ... .. . ... ... ... ... : ... .. . ... : ... .. . ... ... : ... .. . ...
ROW 1C : ... .. . ... ... ... : D#4 00 8 ... ... ... ... : ... .. . ... : F-# 05 . ... ... : ... .. . ...
ROW 1D : ... .. . ... ... ... : ... .. . ... ... ... ... : ... .. . ... : ... .. . ... ... : ... .. . ...
ROW 1E : ... .. . ... ... ... : F-4 00 4 ... ... ... ... : ... .. . ... : ... .. . ... ... : ... .. . ...
ROW 1F : ... .. . ... ... ... : ... .. . ... ... ... ... : ... .. . ... : ... .. . ... ... : ... .. . ...
ROW 20 : ... .. . ... ... ... : D-4 00 8 V01 ... ... ... : ... .. . ... : F-# 06 . ... ... : ... .. . ...
ROW 21 : ... .. . ... ... ... : ... .. . ... ... ... ... : ... .. . ... : ... .. . ... ... : ... .. . ...
ROW 22 : ... .. . ... ... ... : D#4 00 4 ... ... ... ... : ... .. . ... : ... .. . ... ... : ... .. . ...
ROW 23 : ... .. . ... ... ... : ... .. . ... ... ... ... : ... .. . ... : ... .. . ... ... : ... .. . ...
ROW 24 : ... .. . ... ... ... : D#4 00 8 ... ... ... ... : ... .. . ... : ... .. . ... ... : ... .. . ...
ROW 25 : ... .. . ... ... ... : ... .. . ... ... ... ... : ... .. . ... : ... .. . ... ... : ... .. . ...
ROW 26 : ... .. . ... ... ... : D-4 00 4 ... ... ... ... : ... .. . ... : ... .. . ... ... : ... .. . ...
ROW 27 : ... .. . ... ... ... : ... .. . ... ... ... ... : ... .. . ... : ... .. . ... ... : ... .. . ...
ROW 28 : ... .. . ... ... ... : D-4 00 8 V00 ... ... ... : ... .. . ... : F-# 05 . ... ... : ... .. . ...
ROW 29 : ... .. . ... ... ... : ... .. . ... ... ... ... : ... .. . ... : ... .. . ... ... : ... .. . ...
ROW 2A : ... .. . ... ... ... : D#4 00 4 ... ... ... ... : ... .. . ... : ... .. . ... ... : ... .. . ...
ROW 2B : ... .. . ... ... ... : ... .. . ... ... ... ... : ... .. . ... : ... .. . ... ... : ... .. . ...
ROW 2C : ... .. . ... ... ... : C-4 00 8 ... ... ... ... : ... .. . ... : ... .. . ... ... : ... .. . ...
ROW 2D : ... .. . ... ... ... : ... .. . ... ... ... ... : ... .. . ... : ... .. . ... ... : ... .. . ...
ROW 2E : ... .. . ... ... ... : D-4 00 4 ... ... ... ... : ... .. . ... : ... .. . ... ... : ... .. . ...
ROW 2F : ... .. . ... ... ... : ... .. . ... ... ... ... : ... .. . ... : ... .. . ... ... : ... .. . ...
ROW 30 : ... .. . ... ... ... : D-4 00 8 V02 ... ... ... : ... .. . ... : 9-# 03 8 ... ... : ... .. . ...
ROW 31 : ... .. . ... ... ... : ... .. . ... ... ... ... : ... .. . ... : ... .. . ... ... : ... .. . ...
ROW 32 : ... .. . ... ... ... : C-4 00 4 ... ... ... ... : ... .. . ... : ... .. . ... ... : ... .. . ...
ROW 33 : ... .. . ... ... ... : ... .. . ... ... ... ... : ... .. . ... : ... .. . ... ... : ... .. . ...
ROW 34 : ... .. . ... ... ... : C-4 00 8 ... ... ... ... : ... .. . ... : F-# 05 6 ... ... : ... .. . ...
ROW 35 : ... .. . ... ... ... : ... .. . ... ... ... ... : ... .. . ... : ... .. . ... ... : ... .. . ...
ROW 36 : ... .. . ... ... ... : D-4 00 4 ... ... ... ... : ... .. . ... : ... .. . ... ... : ... .. . ...
ROW 37 : ... .. . ... ... ... : ... .. . ... ... ... ... : ... .. . ... : ... .. . ... ... : ... .. . ...
ROW 38 : ... .. . ... ... ... : A#3 00 8 ... ... ... ... : ... .. . ... : 8-# 02 5 V01 ... : ... .. . F08
ROW 39 : ... .. . ... ... ... : ... .. . ... ... ... ... : ... .. . ... : 9-# 02 . ... ... : ... .. . ...
ROW 3A : ... .. . ... ... ... : ... .. . ... ... ... ... : ... .. . ... : A-# 02 6 ... ... : ... .. . ...
ROW 3B : ... .. . ... ... ... : ... .. . ... ... ... ... : ... .. . ... : B-# 02 . ... ... : ... .. . ...
ROW 3C : ... .. . ... ... ... : ... .. . ... ... 464 ... : ... .. . ... : C-# 02 7 ... ... : ... .. . ...
ROW 3D : ... .. . ... ... ... : ... .. . ... ... ... ... : ... .. . ... : D-# 02 . ... ... : ... .. . ...
ROW 3E : ... .. . ... ... ... : ... .. . ... ... ... ... : ... .. . ... : E-# 02 8 ... ... : ... .. . ...
ROW 3F : ... .. . ... ... ... : ... .. . ... ... ... ... : ... .. . ... : F-# 02 . ... ... : ... .. . C00

PATTERN 0E
ROW 00 : F-4 00 6 V02 ... ... : D-3 01 8 V02 ... ... ... : D-2 12 . 200 : A-# 03 . V00 ... : ... .. . ...
ROW 01 : ... .. . ... ... ... : ... .. . ... ... ... ... : ... .. . ... : ... .. . ... ... : ... .. . ...
ROW 02 : ... .. . ... ... ... : ... .. . ... ... ... ... : ... .. . ... : F-# 05 . ... ... : ... .. . ...
ROW 03 : ... .. . ... ... ... : ... .. . ... ... ... ... : ... .. . ... : ... .. . ... ... : ... .. . ...
ROW 04 : D-4 00 . ... ... ... : D-2 01 . V01 ... ... ... : --- .. . ... : F-# 06 . ... ... : ... .. . ...
ROW 05 : ... .. . ... ... ... : ... .. . ... ... ... ... : ... .. . ... : ... .. . ... ... : ... .. . ...
ROW 06 : F-4 00 3 ... ... ... : D-3 01 4 V00 ... ... ... : ... .. . ... : F-# 05 . ... ... : ... .. . ...
ROW 07 : ... .. . ... ... ... : ... .. . ... ... ... ... : ... .. . ... : ... .. . ... ... : ... .. . ...
ROW 08 : A-3 00 6 ... ... ... : A-2 01 8 V01 ... ... ... : D-2 12 . ... : F-# 06 . ... ... : ... .. . ...
ROW 09 : ... .. . ... ... ... : ... .. . ... ... ... ... : ... .. . ... : ... .. . ... ... : ... .. . ...
ROW 0A : D-4 00 3 ... ... ... : D-2 01 4 V02 ... ... ... : ... .. . ... : F-# 05 . ... ... : ... .. . ...
ROW 0B : ... .. . ... ... ... : ... .. . ... ... ... ... : ... .. . ... : ... .. . ... ... : ... .. . ...
ROW 0C : F-3 00 6 ... ... ... : A-1 01 8 V01 ... ... ... : --- .. . ... : F-# 06 . ... ... : ... .. . ...
ROW 0D : ... .. . ... ... ... : ... .. . ... ... ... ... : ... .. . ... : ... .. . ... ... : ... .. . ...
ROW 0E : A-3 00 3 ... ... ... : ... .. . ... ... ... ... : ... .. . ... : F-# 05 . ... ... : ... .. . ...
ROW 0F : ... .. . ... ... ... : ... .. . ... ... ... ... : ... .. . ... : ... .. . ... ... : ... .. . ...
ROW 10 : F-4 00 6 ... ... ... : ... .. . ... ... ... ... : F-2 12 . ... : F-# 06 . V01 ... : ... .. . ...
ROW 11 : ... .. . ... ... ... : ... .. . ... ... ... ... : ... .. . ... : ... .. . ... ... : ... .. . ...
ROW 12 : F-3 00 3 ... ... ... : ... .. . ... ... ... ... : ... .. . ... : ... .. . ... ... : ... .. . ...
ROW 13 : ... .. . ... ... ... : ... .. . ... ... ... ... : ... .. . ... : ... .. . ... ... : ... .. . ...
ROW 14 : D-4 00 6 ... ... ... : ... .. . ... ... ... ... : D-2 12 . ... : ... .. . ... ... : ... .. . ...
ROW 15 : ... .. . ... ... ... : ... .. . ... ... ... ... : ... .. . ... : ... .. . ... ... : ... .. . ...
ROW 16 : F-4 00 3 ... ... ... : ... .. . ... ... ... ... : ... .. . ... : ... .. . ... ... : ... .. . ...
ROW 17 : ... .. . ... ... ... : ... .. . ... ... ... ... : ... .. . ... : ... .. . ... ... : ... .. . ...
ROW 18 : A-3 00 6 ... ... ... : ... .. . ... ... ... ... : --- .. . ... : ... .. . ... ... : ... .. . ...
ROW 19 : ... .. . ... ... ... : ... .. . ... ... ... ... : ... .. . ... : ... .. . ... ... : ... .. . ...
ROW 1A : D-4 00 3 ... ... ... : ... .. . ... ... ... ... : ... .. . ... : ... .. . ... ... : ... .. . ...
ROW 1B : ... .. . ... ... ... : ... .. . ... ... ... ... : ... .. . ... : ... .. . ... ... : ... .. . ...
ROW 1C : F-3 00 6 ... ... ... : ... .. . ... ... ... ... : ... .. . ... : ... .. . ... ... : ... .. . ...
ROW 1D : ... .. . ... ... ... : ... .. . ... ... ... ... : ... .. . ... : ... .. . ... ... : ... .. . ...
ROW 1E : A-3 00 3 ... ... ... : ... .. . ... ... ... ... : ... .. . ... : ... .. . ... ... : ... .. . ...
ROW 1F : ... .. . ... ... ... : ... .. . ... ... ... ... : ... .. . ... : ... .. . ... ... : ... .. . ...
ROW 20 : D-4 00 6 V01 ... ... : A-3 01 . V02 ... ... ... : ... .. . ... : ... .. . ... ... : ... .. . ...
ROW 21 : ... .. . ... ... ... : ... .. . ... ... ... ... : ... .. . ... : ... .. . ... ... : ... .. . ...
ROW 22 : F-3 00 3 ... ... ... : ... .. . ... ... ... ... : ... .. . ... : ... .. . ... ... : ... .. . ...
ROW 23 : ... .. . ... ... ... : ... .. . ... ... ... ... : ... .. . ... : ... .. . ... ... : ... .. . ...
ROW 24 : A-3 00 6 ... ... ... : A-2 01 . V01 ... ... ... : ... .. . ... : ... .. . ... ... : ... .. . ...
ROW 25 : ... .. . ... ... ... : ... .. . ... ... ... ... : ... .. . ... : ... .. . ... ... : ... .. . ...
ROW 26 : D-4 00 3 ... ... ... : A-3 01 4 V02 ... ... ... : ... .. . ... : ... .. . ... ... : ... .. . ...
ROW 27 : ... .. . ... ... ... : ... .. . ... ... ... ... : ... .. . ... : ... .. . ... ... : ... .. . ...
ROW 28 : F-3 00 6 ... ... ... : G-3 01 8 V00 ... ... ... : ... .. . ... : ... .. . ... ... : ... .. . ...
ROW 29 : ... .. . ... ... ... : ... .. . ... ... ... ... : ... .. . ... : ... .. . ... ... : ... .. . ...
ROW 2A : A-3 00 3 ... ... ... : A-2 01 4 V01 ... ... ... : ... .. . ... : ... .. . ... ... : ... .. . ...
ROW 2B : ... .. . ... ... ... : ... .. . ... ... ... ... : ... .. . ... : ... .. . ... ... : ... .. . ...
ROW 2C : D-3 00 6 ... ... ... : G-2 01 8 V02 ... ... ... : ... .. . ... : ... .. . ... ... : ... .. . ...
ROW 2D : ... .. . ... ... ... : ... .. . ... ... ... ... : ... .. . ... : ... .. . ... ... : ... .. . ...
ROW 2E : F-3 00 3 ... ... ... : G-3 01 4 V01 ... ... ... : ... .. . ... : ... .. . ... ... : ... .. . ...
ROW 2F : ... .. . ... ... ... : ... .. . ... ... ... ... : ... .. . ... : ... .. . ... ... : ... .. . ...
ROW 30 : A-3 00 6 ... ... ... : F-3 01 8 V00 ... ... ... : A-2 12 . ... : F-# 06 . V01 ... : ... .. . ...
ROW 31 : ... .. . ... ... ... : ... .. . ... ... ... ... : ... .. . ... : ... .. . ... ... : ... .. . ...
ROW 32 : D-3 00 3 ... ... ... : G-2 01 4 V01 ... ... ... : ... .. . ... : ... .. . ... ... : ... .. . ...
ROW 33 : ... .. . ... ... ... : ... .. . ... ... ... ... : ... .. . ... : ... .. . ... ... : ... .. . ...
ROW 34 : F-3 00 6 ... ... ... : F-2 01 8 V02 ... ... ... : --- .. . ... : ... .. . ... ... : ... .. . ...
ROW 35 : ... .. . ... ... ... : ... .. . ... ... ... ... : ... .. . ... : ... .. . ... ... : ... .. . ...
ROW 36 : A-3 00 3 ... ... ... : F-3 01 4 V01 ... ... ... : ... .. . ... : ... .. . ... ... : ... .. . ...
ROW 37 : ... .. . ... ... ... : ... .. . ... ... ... ... : ... .. . ... : ... .. . ... ... : ... .. . ...
ROW 38 : D-3 00 6 ... ... ... : E-3 01 8 V00 ... ... ... : ... .. . ... : ... .. . ... ... : ... .. . ...
ROW 39 : ... .. . ... ... ... : ... .. . ... ... ... ... : ... .. . ... : ... .. . ... ... : ... .. . ...
ROW 3A : F-3 00 3 ... ... ... : F-2 01 4 V01 ... ... ... : ... .. . ... : ... .. . ... ... : ... .. . ...
ROW 3B : ... .. . ... ... ... : ... .. . ... ... ... ... : ... .. . ... : ... .. . ... ... : ... .. . ...
ROW 3C : A-2 00 6 ... ... ... : E-2 01 8 V02 ... ... ... : ... .. . ... : ... .. . ... ... : ... .. . ...
ROW 3D : ... .. . ... ... ... : ... .. . ... ... ... ... : ... .. . ... : ... .. . ... ... : ... .. . ...
ROW 3E : D-3 00 3 ... ... ... : E-3 01 4 V01 ... ... ... : ... .. . ... : ... .. . ... ... : ... .. . ...
ROW 3F : ... .. . ... ... ... : ... .. . ... ... ... ... : ... .. . ... : ... .. . ... ... : ... .. . ...

PATTERN 0F
ROW 00 : E-2 00 6 V00 ... ... : G#2 00 8 V02 P81 400 ... : B-1 12 . ... : ... .. . ... ... : ... .. . ...
ROW 01 : ... .. . ... ... ... : ... .. . ... ... ... ... : ... .. . ... : ... .. . ... ... : ... .. . ...
ROW 02 : ... .. . ... ... ... : ... .. . ... ... ... ... : ... .. . ... : ... .. . ... ... : ... .. . ...
ROW 03 : ... .. . ... ... ... : ... .. . ... ... ... ... : ... .. . ... : ... .. . ... ... : ... .. . ...
ROW 04 : G#2 00 . ... ... ... : ... .. . ... ... 464 ... : --- .. . ... : ... .. . ... ... : ... .. . ...
ROW 05 : ... .. . ... ... ... : ... .. . ... ... ... ... : ... .. . ... : ... .. . ... ... : ... .. . ...
ROW 06 : E-2 00 3 ... ... ... : ... .. . ... ... ... ... : ... .. . ... : ... .. . ... ... : ... .. . ...
ROW 07 : ... .. . ... ... ... : ... .. . ... ... ... ... : ... .. . ... : ... .. . ... ... : ... .. . ...
ROW 08 : B-2 00 6 ... ... ... : ... .. . ... ... ... ... : B-1 12 . ... : ... .. . ... ... : ... .. . ...
ROW 09 : ... .. . ... ... ... : ... .. . ... ... ... ... : ... .. . ... : ... .. . ... ... : ... .. . ...
ROW 0A : G#2 00 3 ... ... ... : ... .. . ... ... ... ... : ... .. . ... : ... .. . ... ... : ... .. . ...
ROW 0B : ... .. . ... ... ... : ... .. . ... ... ... ... : ... .. . ... : ... .. . ... ... : ... .. . ...
ROW 0C : E-3 00 6 ... ... ... : ... .. . ... ... ... ... : --- .. . ... : ... .. . ... ... : ... .. . ...
ROW 0D : ... .. . ... ... ... : ... .. . ... ... ... ... : ... .. . ... : ... .. . ... ... : ... .. . ...
ROW 0E : B-2 00 3 ... ... ... : ... .. . ... ... ... ... : ... .. . ... : ... .. . ... ... : ... .. . ...
ROW 0F : ... .. . ... ... ... : ... .. . ... ... ... ... : ... .. . ... : ... .. . ... ... : ... .. . ...
ROW 10 : E-2 00 6 V01 ... ... : B-2 00 . ... ... 400 ... : C-2 12 . ... : F-# 06 . V01 ... : ... .. . ...
ROW 11 : ... .. . ... ... ... : ... .. . ... ... ... ... : ... .. . ... : ... .. . ... ... : ... .. . ...
ROW 12 : E-3 00 3 ... ... ... : ... .. . ... ... ... ... : ... .. . ... : ... .. . ... ... : ... .. . ...
ROW 13 : ... .. . ... ... ... : ... .. . ... ... ... ... : --- .. . ... : ... .. . ... ... : ... .. . ...
ROW 14 : G#2 00 6 ... ... ... : ... .. . ... ... 464 ... : ... .. . ... : ... .. . ... ... : ... .. . ...
ROW 15 : ... .. . ... ... ... : ... .. . ... ... ... ... : ... .. . ... : ... .. . ... ... : ... .. . ...
ROW 16 : E-2 00 3 ... ... ... : G#2 00 . ... ... 400 ... : ... .. . ... : ... .. . ... ... : ... .. . ...
ROW 17 : ... .. . ... ... ... : ... .. . ... ... ... ... : ... .. . ... : ... .. . ... ... : ... .. . ...
ROW 18 : B-2 00 6 ... ... ... : ... .. . ... ... ... ... : ... .. . ... : ... .. . ... ... : ... .. . ...
ROW 19 : ... .. . ... ... ... : ... .. . ... ... ... ... : ... .. . ... : ... .. . ... ... : ... .. . ...
ROW 1A : G#2 00 3 ... ... ... : ... .. . ... ... 464 ... : ... .. . ... : ... .. . ... ... : ... .. . ...
ROW 1B : ... .. . ... ... ... : ... .. . ... ... ... ... : ... .. . ... : ... .. . ... ... : ... .. . ...
ROW 1C : E-3 00 6 ... ... ... : B-2 00 . ... ... 400 ... : ... .. . ... : ... .. . ... ... : ... .. . ...
ROW 1D : ... .. . ... ... ... : ... .. . ... ... ... ... : ... .. . ... : ... .. . ... ... : ... .. . ...
ROW 1E : B-2 00 3 ... ... ... : ... .. . ... ... ... ... : ... .. . ... : ... .. . ... ... : ... .. . ...
ROW 1F : ... .. . ... ... ... : ... .. . ... ... ... ... : ... .. . ... : ... .. . ... ... : ... .. . ...
ROW 20 : G#2 00 6 V02 ... ... : E-3 00 . ... ... ... 345 : B-1 12 . ... : ... .. . ... ... : ... .. . ...
ROW 21 : ... .. . ... ... ... : ... .. . ... ... ... ... : ... .. . ... : ... .. . ... ... : ... .. . ...
ROW 22 : E-3 00 3 ... ... ... : ... .. . ... ... ... ... : ... .. . ... : ... .. . ... ... : ... .. . ...
ROW 23 : ... .. . ... ... ... : ... .. . ... ... ... ... : ... .. . ... : ... .. . ... ... : ... .. . ...
ROW 24 : B-2 00 6 ... ... ... : ... .. . ... ... 464 ... : ... .. . ... : ... .. . ... ... : ... .. . ...
ROW 25 : ... .. . ... ... ... : ... .. . ... ... ... ... : ... .. . ... : ... .. . ... ... : ... .. . ...
ROW 26 : G#2 00 3 ... ... ... : ... .. . ... ... ... ... : ... .. . ... : ... .. . ... ... : ... .. . ...
ROW 27 : ... .. . ... ... ... : ... .. . ... ... ... ... : ... .. . ... : ... .. . ... ... : ... .. . ...
ROW 28 : E-3 00 6 ... ... ... : ... .. . ... ... ... 210 : G#1 12 . ... : ... .. . ... ... : ... .. . ...
ROW 29 : ... .. . ... ... ... : ... .. . ... ... ... ... : ... .. . ... : ... .. . ... ... : ... .. . ...
ROW 2A : B-2 00 3 ... ... ... : ... .. . ... ... ... ... : ... .. . ... : ... .. . ... ... : ... .. . ...
ROW 2B : ... .. . ... ... ... : ... .. . ... ... ... ... : ... .. . ... : ... .. . ... ... : ... .. . ...
ROW 2C : G#3 00 6 ... ... ... : --- .. . ... ... ... ... : ... .. . ... : ... .. . ... ... : ... .. . ...
ROW 2D : ... .. . ... ... ... : ... .. . ... ... ... ... : ... .. . ... : ... .. . ... ... : ... .. . ...
ROW 2E : E-3 00 3 ... ... ... : ... .. . ... ... ... ... : ... .. . ... : ... .. . ... ... : ... .. . ...
ROW 2F : ... .. . ... ... ... : ... .. . ... ... ... ... : ... .. . ... : ... .. . ... ... : ... .. . ...
ROW 30 : B-2 00 6 V01 ... ... : E-3 00 4 ... ... 400 200 : --- .. . ... : F-# 06 . V01 ... : ... .. . ...
ROW 31 : ... .. . ... ... ... : ... .. . ... ... ... ... : ... .. . ... : ... .. . ... ... : ... .. . ...
ROW 32 : G#3 00 3 ... ... ... : ... .. . ... ... ... ... : ... .. . ... : ... .. . ... ... : ... .. . ...
ROW 33 : ... .. . ... ... ... : ... .. . ... ... ... ... : ... .. . ... : ... .. . ... ... : ... .. . ...
ROW 34 : E-3 00 6 ... ... ... : ... .. . ... ... 464 ... : ... .. . ... : ... .. . ... ... : ... .. . ...
ROW 35 : ... .. . ... ... ... : ... .. . ... ... ... ... : ... .. . ... : ... .. . ... ... : ... .. . ...
ROW 36 : B-2 00 3 ... ... ... : ... .. . ... ... ... ... : ... .. . ... : ... .. . ... ... : ... .. . ...
ROW 37 : ... .. . ... ... ... : ... .. . ... ... ... ... : ... .. . ... : ... .. . ... ... : ... .. . ...
ROW 38 : G#3 00 6 ... ... ... : ... .. . ... ... ... 210 : ... .. . ... : ... .. . ... ... : ... .. . ...
ROW 39 : ... .. . ... ... ... : ... .. . ... ... ... ... : ... .. . ... : ... .. . ... ... : ... .. . ...
ROW 3A : E-3 00 3 ... ... ... : ... .. . ... ... ... ... : ... .. . ... : ... .. . ... ... : ... .. . ...
ROW 3B : ... .. . ... ... ... : ... .. . ... ... ... ... : ... .. . ... : ... .. . ... ... : ... .. . ...
ROW 3C : B-3 00 6 ... ... ... : --- .. . ... ... ... ... : ... .. . ... : ... .. . ... ... : ... .. . ...
ROW 3D : ... .. . ... ... ... : ... .. . ... ... ... ... : ... .. . ... : ... .. . ... ... : ... .. . ...
ROW 3E : G#3 00 3 ... ... ... : ... .. . ... ... ... ... : ... .. . ... : ... .. . ... ... : ... .. . ...
ROW 3F : ... .. . ... ... ... : ... .. . ... ... ... ... : ... .. . ... : ... .. . ... ... : ... .. . ...

PATTERN 10
ROW 00 : A-1 02 6 ... ... ... : E-2 00 8 V02 P81 400 355 : A-1 02 . ... : ... .. . ... ... : ... .. . ...
ROW 01 : ... .. . ... ... ... : ... .. . ... ... ... ... : ... .. . ... : ... .. . ... ... : ... .. . ...
ROW 02 : ... .. . ... ... ... : ... .. . ... ... ... ... : ... .. . ... : ... .. . ... ... : ... .. . ...
ROW 03 : ... .. . ... ... ... : ... .. . ... ... ... ... : ... .. . ... : ... .. . ... ... : ... .. . ...
ROW 04 : C#2 02 . ... ... ... : ... .. . ... ... ... ... : --- .. . ... : ... .. . ... ... : ... .. . ...
ROW 05 : ... .. . ... ... ... : ... .. . ... ... ... ... : ... .. . ... : ... .. . ... ... : ... .. . ...
ROW 06 : A-1 02 3 ... ... ... : ... .. . ... ... ... ... : ... .. . ... : ... .. . ... ... : ... .. . ...
ROW 07 : ... .. . ... ... ... : ... .. . ... ... ... ... : ... .. . ... : ... .. . ... ... : ... .. . ...
ROW 08 : E-2 02 6 ... ... ... : ... .. . ... ... ... ... : A-1 12 . ... : ... .. . ... ... : ... .. . ...
ROW 09 : ... .. . ... ... ... : ... .. . ... ... ... ... : ... .. . ... : ... .. . ... ... : ... .. . ...
ROW 0A : C#2 02 3 ... ... ... : ... .. . ... ... ... ... : ... .. . ... : ... .. . ... ... : ... .. . ...
ROW 0B : ... .. . ... ... ... : ... .. . ... ... ... ... : ... .. . ... : ... .. . ... ... : ... .. . ...
ROW 0C : A-2 02 6 ... ... ... : ... .. . ... ... ... ... : --- .. . ... : ... .. . ... ... : ... .. . ...
ROW 0D : ... .. . ... ... ... : ... .. . ... ... ... ... : ... .. . ... : ... .. . ... ... : ... .. . ...
ROW 0E : E-2 02 3 ... ... ... : B-2 00 . ... ... ... 300 : ... .. . ... : ... .. . ... ... : ... .. . ...
ROW 0F : ... .. . ... ... ... : C-3 00 . ... ... ... ... : ... .. . ... : ... .. . ... ... : ... .. . ...
ROW 10 : C#2 02 6 ... ... ... : C#3 00 . ... ... ... ... : A-2 12 . ... : ... .. . ... ... : ... .. . ...
ROW 11 : ... .. . ... ... ... : ... .. . ... ... ... ... : ... .. . ... : ... .. . ... ... : ... .. . ...
ROW 12 : A-2 02 3 ... ... ... : ... .. . ... ... ... ... : ... .. . ... : ... .. . ... ... : ... .. . ...
ROW 13 : ... .. . ... ... ... : ... .. . ... ... ... ... : ... .. . ... : ... .. . ... ... : ... .. . ...
ROW 14 : E-2 02 6 ... ... ... : ... .. . ... ... ... ... : A-1 12 . ... : ... .. . ... ... : ... .. . ...
ROW 15 : ... .. . ... ... ... : ... .. . ... ... ... ... : ... .. . ... : ... .. . ... ... : ... .. . ...
ROW 16 : C#2 02 3 ... ... ... : ... .. . ... ... ... ... : ... .. . ... : ... .. . ... ... : ... .. . ...
ROW 17 : ... .. . ... ... ... : ... .. . ... ... ... ... : ... .. . ... : ... .. . ... ... : ... .. . ...
ROW 18 : A-2 02 6 ... ... ... : ... .. . ... ... ... ... : --- .. . ... : ... .. . ... ... : ... .. . ...
ROW 19 : ... .. . ... ... ... : ... .. . ... ... ... ... : ... .. . ... : ... .. . ... ... : ... .. . ...
ROW 1A : E-2 02 3 ... ... ... : ... .. . ... ... ... ... : ... .. . ... : ... .. . ... ... : ... .. . ...
ROW 1B : ... .. . ... ... ... : ... .. . ... ... ... ... : ... .. . ... : ... .. . ... ... : ... .. . ...
ROW 1C : C#3 02 6 ... ... ... : ... .. . ... ... ... ... : ... .. . ... : ... .. . ... ... : ... .. . ...
ROW 1D : ... .. . ... ... ... : ... .. . ... ... ... ... : ... .. . ... : ... .. . ... ... : ... .. . ...
ROW 1E : A-2 02 3 ... ... ... : ... .. . ... ... ... ... : ... .. . ... : ... .. . ... ... : ... .. . ...
ROW 1F : ... .. . ... ... ... : ... .. . ... ... ... ... : ... .. . ... : ... .. . ... ... : ... .. . ...
ROW 20 : E-2 02 6 ... ... ... : A-3 00 8 ... ... ... ... : ... .. . ... : ... .. . ... ... : ... .. . ...
ROW 21 : ... .. . ... ... ... : A#3 00 . ... ... ... ... : ... .. . ... : ... .. . ... ... : ... .. . ...
ROW 22 : C#3 02 3 ... ... ... : A-3 00 . ... ... ... ... : ... .. . ... : ... .. . ... ... : ... .. . ...
ROW 23 : ... .. . ... ... ... : A#3 00 . ... ... ... ... : ... .. . ... : ... .. . ... ... : ... .. . ...
ROW 24 : A-2 02 6 ... ... ... : A-3 00 . ... ... ... ... : ... .. . ... : ... .. . ... ... : ... .. . ...
ROW 25 : ... .. . ... ... ... : A#3 00 . ... ... ... ... : ... .. . ... : ... .. . ... ... : ... .. . ...
ROW 26 : E-2 02 3 ... ... ... : A-3 00 . ... ... ... ... : ... .. . ... : ... .. . ... ... : ... .. . ...
ROW 27 : ... .. . ... ... ... : A#3 00 . ... ... ... ... : ... .. . ... : ... .. . ... ... : ... .. . ...
ROW 28 : C#3 02 6 ... ... ... : A-3 00 . ... ... ... ... : ... .. . ... : ... .. . ... ... : ... .. . ...
ROW 29 : ... .. . ... ... ... : A#3 00 . ... ... ... ... : ... .. . ... : ... .. . ... ... : ... .. . ...
ROW 2A : A-2 02 3 ... ... ... : A-3 00 . ... ... ... ... : ... .. . ... : ... .. . ... ... : ... .. . ...
ROW 2B : ... .. . ... ... ... : A#3 00 . ... ... ... ... : ... .. . ... : ... .. . ... ... : ... .. . ...
ROW 2C : E-3 02 6 ... ... ... : A-3 00 . ... ... ... ... : ... .. . ... : ... .. . ... ... : ... .. . ...
ROW 2D : ... .. . ... ... ... : A#3 00 . ... ... ... ... : ... .. . ... : ... .. . ... ... : ... .. . ...
ROW 2E : C#3 02 3 ... ... ... : A-3 00 . ... ... ... ... : ... .. . ... : ... .. . ... ... : ... .. . ...
ROW 2F : ... .. . ... ... ... : A#3 00 . ... ... ... ... : ... .. . ... : ... .. . ... ... : ... .. . ...
ROW 30 : A-2 02 6 ... ... ... : A-3 00 . ... ... ... ... : C#3 12 . ... : ... .. . ... ... : ... .. . ...
ROW 31 : ... .. . ... ... ... : ... .. . ... ... ... ... : ... .. . ... : ... .. . ... ... : ... .. . ...
ROW 32 : E-3 02 3 ... ... ... : ... .. . ... ... ... ... : ... .. . ... : ... .. . ... ... : ... .. . ...
ROW 33 : ... .. . ... ... ... : ... .. . ... ... ... ... : ... .. . ... : ... .. . ... ... : ... .. . ...
ROW 34 : C#3 02 6 ... ... ... : G-3 00 . ... ... ... ... : --- .. . ... : ... .. . ... ... : ... .. . ...
ROW 35 : ... .. . ... ... ... : ... .. . ... ... ... ... : ... .. . ... : ... .. . ... ... : ... .. . ...
ROW 36 : A-2 02 3 ... ... ... : ... .. . ... ... ... ... : ... .. . ... : ... .. . ... ... : ... .. . ...
ROW 37 : ... .. . ... ... ... : ... .. . ... ... ... ... : ... .. . ... : ... .. . ... ... : ... .. . ...
ROW 38 : E-3 02 6 ... ... ... : F-3 00 . ... ... ... ... : ... .. . ... : ... .. . ... ... : ... .. . ...
ROW 39 : ... .. . ... ... ... : ... .. . ... ... ... ... : ... .. . ... : ... .. . ... ... : ... .. . ...
ROW 3A : C#3 02 3 ... ... ... : ... .. . ... ... ... ... : ... .. . ... : ... .. . ... ... : ... .. . ...
ROW 3B : ... .. . ... ... ... : ... .. . ... ... ... ... : ... .. . ... : ... .. . ... ... : ... .. . ...
ROW 3C : A-3 02 6 ... ... ... : E-3 00 . ... ... ... ... : ... .. . ... : ... .. . ... ... : ... .. . ...
ROW 3D : ... .. . ... ... ... : ... .. . ... ... ... ... : ... .. . ... : ... .. . ... ... : ... .. . ...
ROW 3E : E-3 02 3 ... ... ... : ... .. . ... ... ... ... : ... .. . ... : ... .. . ... ... : ... .. . ...
ROW 3F : ... .. . ... ... ... : ... .. . ... ... ... ... : ... .. . ... : ... .. . ... ... : ... .. . ...

PATTERN 11
ROW 00 : ... .. . ... ... ... : F-3 00 8 V02 P81 400 325 : ... .. . ... : ... .. . ... ... : ... .. . ...
ROW 01 : ... .. . ... ... ... : ... .. . ... ... ... ... : ... .. . ... : ... .. . ... ... : ... .. . ...
ROW 02 : ... .. . ... ... ... : ... .. . ... ... ... ... : ... .. . ... : ... .. . ... ... : ... .. . ...
ROW 03 : ... .. . ... ... ... : ... .. . ... ... ... ... : ... .. . ... : ... .. . ... ... : ... .. . ...
ROW 04 : ... .. . ... ... ... : ... .. . ... ... 464 ... : ... .. . ... : ... .. . ... ... : ... .. . ...
ROW 05 : ... .. . ... ... ... : ... .. . ... ... ... ... : ... .. . ... : ... .. . ... ... : ... .. . ...
ROW 06 : ... .. . ... ... ... : ... .. . ... ... ... ... : ... .. . ... : ... .. . ... ... : ... .. . ...
ROW 07 : ... .. . ... ... ... : ... .. . ... ... ... ... : ... .. . ... : ... .. . ... ... : ... .. . ...
ROW 08 : ... .. . ... ... ... : ... .. . ... ... ... 210 : ... .. . ... : ... .. . ... ... : ... .. . ...
ROW 09 : ... .. . ... ... ... : ... .. . ... ... ... ... : ... .. . ... : ... .. . ... ... : ... .. . ...
ROW 0A : ... .. . ... ... ... : ... .. . ... ... ... ... : ... .. . ... : ... .. . ... ... : ... .. . ...
ROW 0B : ... .. . ... ... ... : ... .. . ... ... ... ... : ... .. . ... : ... .. . ... ... : ... .. . ...
ROW 0C : ... .. . ... ... ... : --- .. . ... ... ... ... : ... .. . ... : ... .. . ... ... : ... .. . ...
ROW 0D : ... .. . ... ... ... : ... .. . ... ... ... ... : ... .. . ... : ... .. . ... ... : ... .. . ...
ROW 0E : ... .. . ... ... ... : ... .. . ... ... ... ... : ... .. . ... : ... .. . ... ... : ... .. . ...
ROW 0F : ... .. . ... ... ... : ... .. . ... ... ... ... : ... .. . ... : ... .. . ... ... : ... .. . ...
ROW 10 : ... .. . ... ... ... : F-3 00 4 ... ... 400 200 : ... .. . ... : ... .. . ... ... : ... .. . ...
ROW 11 : ... .. . ... ... ... : ... .. . ... ... ... ... : ... .. . ... : ... .. . ... ... : ... .. . ...
ROW 12 : ... .. . ... ... ... : ... .. . ... ... ... ... : ... .. . ... : ... .. . ... ... : ... .. . ...
ROW 13 : ... .. . ... ... ... : ... .. . ... ... ... ... : ... .. . ... : ... .. . ... ... : ... .. . ...
ROW 14 : ... .. . ... ... ... : ... .. . ... ... 464 ... : ... .. . ... : ... .. . ... ... : ... .. . ...
ROW 15 : ... .. . ... ... ... : ... .. . ... ... ... ... : ... .. . ... : ... .. . ... ... : ... .. . ...
ROW 16 : ... .. . ... ... ... : ... .. . ... ... ... ... : ... .. . ... : ... .. . ... ... : ... .. . ...
ROW 17 : ... .. . ... ... ... : ... .. . ... ... ... ... : ... .. . ... : ... .. . ... ... : ... .. . ...
ROW 18 : ... .. . ... ... ... : ... .. . ... ... ... 210 : ... .. . ... : ... .. . ... ... : ... .. . ...
ROW 19 : ... .. . ... ... ... : ... .. . ... ... ... ... : ... .. . ... : ... .. . ... ... : ... .. . ...
ROW 1A : ... .. . ... ... ... : ... .. . ... ... ... ... : ... .. . ... : ... .. . ... ... : ... .. . ...
ROW 1B : ... .. . ... ... ... : ... .. . ... ... ... ... : ... .. . ... : ... .. . ... ... : ... .. . ...
ROW 1C : ... .. . ... ... ... : --- .. . ... ... ... ... : ... .. . ... : ... .. . ... ... : ... .. . ...
ROW 1D : ... .. . ... ... ... : ... .. . ... ... ... ... : ... .. . ... : ... .. . ... ... : ... .. . ...
ROW 1E : ... .. . ... ... ... : ... .. . ... ... ... ... : ... .. . ... : ... .. . ... ... : ... .. . ...
ROW 1F : ... .. . ... ... ... : ... .. . ... ... ... ... : ... .. . ... : ... .. . ... ... : ... .. . ...
ROW 20 : ... .. . ... ... ... : F-3 00 2 ... ... 400 200 : ... .. . ... : ... .. . ... ... : ... .. . ...
ROW 21 : ... .. . ... ... ... : ... .. . ... ... ... ... : ... .. . ... : ... .. . ... ... : ... .. . ...
ROW 22 : ... .. . ... ... ... : ... .. . ... ... ... ... : ... .. . ... : ... .. . ... ... : ... .. . ...
ROW 23 : ... .. . ... ... ... : ... .. . ... ... ... ... : ... .. . ... : ... .. . ... ... : ... .. . ...
ROW 24 : ... .. . ... ... ... : ... .. . ... ... 464 ... : ... .. . ... : ... .. . ... ... : ... .. . ...
ROW 25 : ... .. . ... ... ... : ... .. . ... ... ... ... : ... .. . ... : ... .. . ... ... : ... .. . ...
ROW 26 : ... .. . ... ... ... : ... .. . ... ... ... ... : ... .. . ... : ... .. . ... ... : ... .. . ...
ROW 27 : ... .. . ... ... ... : ... .. . ... ... ... ... : ... .. . ... : ... .. . ... ... : ... .. . ...
ROW 28 : ... .. . ... ... ... : ... .. . ... ... ... 210 : ... .. . ... : ... .. . ... ... : ... .. . ...
ROW 29 : ... .. . ... ... ... : ... .. . ... ... ... ... : ... .. . ... : ... .. . ... ... : ... .. . ...
ROW 2A : ... .. . ... ... ... : ... .. . ... ... ... ... : ... .. . ... : ... .. . ... ... : ... .. . ...
ROW 2B : ... .. . ... ... ... : ... .. . ... ... ... ... : ... .. . ... : ... .. . ... ... : ... .. . ...
ROW 2C : ... .. . ... ... ... : --- .. . ... ... ... ... : ... .. . ... : ... .. . ... ... : ... .. . ...
ROW 2D : ... .. . ... ... ... : ... .. . ... ... ... ... : ... .. . ... : ... .. . ... ... : ... .. . ...
ROW 2E : ... .. . ... ... ... : ... .. . ... ... ... ... : ... .. . ... : ... .. . ... ... : ... .. . ...
ROW 2F : ... .. . ... ... ... : ... .. . ... ... ... ... : ... .. . ... : ... .. . ... ... : ... .. . ...
ROW 30 : ... .. . ... ... ... : F-3 00 1 ... ... 400 200 : ... .. . ... : ... .. . ... ... : ... .. . ...
ROW 31 : ... .. . ... ... ... : ... .. . ... ... ... ... : ... .. . ... : ... .. . ... ... : ... .. . ...
ROW 32 : ... .. . ... ... ... : ... .. . ... ... ... ... : ... .. . ... : ... .. . ... ... : ... .. . ...
ROW 33 : ... .. . ... ... ... : ... .. . ... ... ... ... : ... .. . ... : ... .. . ... ... : ... .. . ...
ROW 34 : ... .. . ... ... ... : ... .. . ... ... 464 ... : ... .. . ... : ... .. . ... ... : ... .. . ...
ROW 35 : ... .. . ... ... ... : ... .. . ... ... ... ... : ... .. . ... : ... .. . ... ... : ... .. . ...
ROW 36 : ... .. . ... ... ... : ... .. . ... ... ... ... : ... .. . ... : ... .. . ... ... : ... .. . ...
ROW 37 : ... .. . ... ... ... : ... .. . ... ... ... ... : ... .. . ... : ... .. . ... ... : ... .. . ...
ROW 38 : ... .. . ... ... ... : ... .. . ... ... ... 210 : ... .. . ... : ... .. . ... ... : ... .. . ...
ROW 39 : ... .. . ... ... ... : ... .. . ... ... ... ... : ... .. . ... : ... .. . ... ... : ... .. . ...
ROW 3A : ... .. . ... ... ... : ... .. . ... ... ... ... : ... .. . ... : ... .. . ... ... : ... .. . ...
ROW 3B : ... .. . ... ... ... : ... .. . ... ... ... ... : ... .. . ... : ... .. . ... ... : ... .. . ...
ROW 3C : ... .. . ... ... ... : --- .. . ... ... ... ... : ... .. . ... : ... .. . ... ... : ... .. . ...
ROW 3D : ... .. . ... ... ... : ... .. . ... ... ... ... : ... .. . ... : ... .. . ... ... : ... .. . ...
ROW 3E : ... .. . ... ... ... : ... .. . ... ... ... ... : ... .. . ... : ... .. . ... ... : ... .. . ...
ROW 3F : ... .. . ... ... ... : ... .. . ... ... ... ... : ... .. . ... : ... .. . ... ... : ... .. . ...

PATTERN 12
ROW 00 : D-1 13 6 V01 ... ... : ... .. . ... ... ... ... : D-2 12 . ... : ... .. . ... ... : ... .. . ...
ROW 01 : ... .. . ... ... ... : ... .. . ... ... ... ... : ... .. . ... : ... .. . ... ... : ... .. . ...
ROW 02 : ... .. . ... ... ... : ... .. . ... ... ... ... : --- .. . ... : ... .. . ... ... : ... .. . ...
ROW 03 : ... .. . ... ... ... : ... .. . ... ... ... ... : ... .. . ... : ... .. . ... ... : ... .. . ...
ROW 04 : F-1 13 . ... ... ... : ... .. . ... ... ... ... : D-2 12 . ... : ... .. . ... ... : ... .. . ...
ROW 05 : ... .. . ... ... ... : ... .. . ... ... ... ... : ... .. . ... : ... .. . ... ... : ... .. . ...
ROW 06 : D-1 13 3 ... ... ... : ... .. . ... ... ... ... : --- .. . ... : ... .. . ... ... : ... .. . ...
ROW 07 : ... .. . ... ... ... : ... .. . ... ... ... ... : ... .. . ... : ... .. . ... ... : ... .. . ...
ROW 08 : A-1 13 6 ... ... ... : F-3 00 8 V02 P81 400 330 : D-3 12 . ... : ... .. . ... ... : ... .. . ...
ROW 09 : ... .. . ... ... ... : ... .. . ... ... ... ... : ... .. . ... : ... .. . ... ... : ... .. . ...
ROW 0A : F-1 13 3 ... ... ... : ... .. . ... ... ... ... : --- .. . ... : ... .. . ... ... : ... .. . ...
ROW 0B : ... .. . ... ... ... : ... .. . ... ... ... ... : ... .. . ... : ... .. . ... ... : ... .. . ...
ROW 0C : D-2 13 6 ... ... ... : D-3 00 . ... ... ... 340 : D-2 12 . ... : ... .. . ... ... : ... .. . ...
ROW 0D : ... .. . ... ... ... : ... .. . ... ... ... ... : ... .. . ... : ... .. . ... ... : ... .. . ...
ROW 0E : A-1 13 3 ... ... ... : F-3 00 4 ... ... ... ... : --- .. . ... : ... .. . ... ... : ... .. . ...
ROW 0F : ... .. . ... ... ... : ... .. . ... ... ... ... : ... .. . ... : ... .. . ... ... : ... .. . ...
ROW 10 : F-1 13 6 ... ... ... : F-3 00 8 ... ... ... ... : F-3 12 . ... : ... .. . ... ... : ... .. . ...
ROW 11 : ... .. . ... ... ... : ... .. . ... ... ... ... : ... .. . ... : ... .. . ... ... : ... .. . ...
ROW 12 : D-2 13 3 ... ... ... : D-3 00 4 ... ... ... ... : --- .. . ... : ... .. . ... ... : ... .. . ...
ROW 13 : ... .. . ... ... ... : ... .. . ... ... ... ... : ... .. . ... : ... .. . ... ... : ... .. . ...
ROW 14 : A-1 13 6 ... ... ... : D-3 00 8 ... ... ... ... : E-3 12 . ... : ... .. . ... ... : ... .. . ...
ROW 15 : ... .. . ... ... ... : ... .. . ... ... ... ... : ... .. . ... : ... .. . ... ... : ... .. . ...
ROW 16 : F-1 13 3 ... ... ... : F-3 00 4 ... ... ... ... : --- .. . ... : ... .. . ... ... : ... .. . ...
ROW 17 : ... .. . ... ... ... : ... .. . ... ... ... ... : ... .. . ... : ... .. . ... ... : ... .. . ...
ROW 18 : D-2 13 6 ... ... ... : F-3 00 8 ... ... ... ... : D-3 12 . ... : ... .. . ... ... : ... .. . ...
ROW 19 : ... .. . ... ... ... : ... .. . ... ... ... ... : ... .. . ... : ... .. . ... ... : ... .. . ...
ROW 1A : A-1 13 3 ... ... ... : D-3 00 4 ... ... ... ... : --- .. . ... : ... .. . ... ... : ... .. . ...
ROW 1B : ... .. . ... ... ... : ... .. . ... ... ... ... : ... .. . ... : ... .. . ... ... : ... .. . ...
ROW 1C : F-2 13 6 ... ... ... : G-3 00 8 ... ... ... ... : A-2 12 . ... : ... .. . ... ... : ... .. . ...
ROW 1D : ... .. . ... ... ... : ... .. . ... ... ... ... : ... .. . ... : ... .. . ... ... : ... .. . ...
ROW 1E : D-2 13 3 ... ... ... : F-3 00 4 ... ... ... ... : ... .. . ... : ... .. . ... ... : ... .. . ...
ROW 1F : ... .. . ... ... ... : ... .. . ... ... ... ... : ... .. . ... : ... .. . ... ... : ... .. . ...
ROW 20 : A-1 13 6 ... ... ... : A-3 00 8 ... ... ... ... : --- .. . ... : ... .. . ... ... : ... .. . ...
ROW 21 : ... .. . ... ... ... : ... .. . ... ... ... ... : ... .. . ... : ... .. . ... ... : ... .. . ...
ROW 22 : F-2 13 3 ... ... ... : ... .. . ... ... ... ... : ... .. . ... : ... .. . ... ... : ... .. . ...
ROW 23 : ... .. . ... ... ... : ... .. . ... ... ... ... : ... .. . ... : ... .. . ... ... : ... .. . ...
ROW 24 : D-2 13 6 ... ... ... : ... .. . ... ... ... ... : ... .. . ... : ... .. . ... ... : ... .. . ...
ROW 25 : ... .. . ... ... ... : ... .. . ... ... ... ... : ... .. . ... : ... .. . ... ... : ... .. . ...
ROW 26 : A-1 13 3 ... ... ... : ... .. . ... ... ... ... : ... .. . ... : ... .. . ... ... : ... .. . ...
ROW 27 : ... .. . ... ... ... : ... .. . ... ... ... ... : ... .. . ... : ... .. . ... ... : ... .. . ...
ROW 28 : F-2 13 6 ... ... ... : D-4 00 . ... ... ... ... : ... .. . ... : ... .. . ... ... : ... .. . ...
ROW 29 : ... .. . ... ... ... : ... .. . ... ... ... ... : ... .. . ... : ... .. . ... ... : ... .. . ...
ROW 2A : D-2 13 3 ... ... ... : ... .. . ... ... ... ... : ... .. . ... : ... .. . ... ... : ... .. . ...
ROW 2B : ... .. . ... ... ... : ... .. . ... ... ... ... : ... .. . ... : ... .. . ... ... : ... .. . ...
ROW 2C : A-2 13 6 ... ... ... : ... .. . ... ... ... ... : ... .. . ... : ... .. . ... ... : ... .. . ...
ROW 2D : ... .. . ... ... ... : ... .. . ... ... ... ... : ... .. . ... : ... .. . ... ... : ... .. . ...
ROW 2E : F-2 13 3 ... ... ... : ... .. . ... ... ... ... : ... .. . ... : ... .. . ... ... : ... .. . ...
ROW 2F : ... .. . ... ... ... : ... .. . ... ... ... ... : ... .. . ... : ... .. . ... ... : ... .. . ...
ROW 30 : D-2 13 6 ... ... ... : F-4 00 . ... ... ... ... : F-2 12 . ... : ... .. . ... ... : ... .. . ...
ROW 31 : ... .. . ... ... ... : ... .. . ... ... ... ... : ... .. . ... : ... .. . ... ... : ... .. . ...
ROW 32 : A-2 13 3 ... ... ... : ... .. . ... ... ... ... : ... .. . ... : ... .. . ... ... : ... .. . ...
ROW 33 : ... .. . ... ... ... : ... .. . ... ... ... ... : ... .. . ... : ... .. . ... ... : ... .. . ...
ROW 34 : F-2 13 6 ... ... ... : ... .. . ... ... ... ... : --- .. . ... : ... .. . ... ... : ... .. . ...
ROW 35 : ... .. . ... ... ... : ... .. . ... ... ... ... : ... .. . ... : ... .. . ... ... : ... .. . ...
ROW 36 : D-2 13 3 ... ... ... : E-4 00 . ... ... ... ... : ... .. . ... : ... .. . ... ... : ... .. . ...
ROW 37 : ... .. . ... ... ... : F-4 00 . ... ... ... ... : ... .. . ... : ... .. . ... ... : ... .. . ...
ROW 38 : A-2 13 6 ... ... ... : E-4 00 . ... ... ... ... : ... .. . ... : ... .. . ... ... : ... .. . ...
ROW 39 : ... .. . ... ... ... : ... .. . ... ... ... ... : ... .. . ... : ... .. . ... ... : ... .. . ...
ROW 3A : F-2 13 3 ... ... ... : ... .. . ... ... ... ... : ... .. . ... : ... .. . ... ... : ... .. . ...
ROW 3B : ... .. . ... ... ... : ... .. . ... ... ... ... : ... .. . ... : ... .. . ... ... : ... .. . ...
ROW 3C : D-3 13 6 ... ... ... : D-4 00 . ... ... ... ... : ... .. . ... : ... .. . ... ... : ... .. . ...
ROW 3D : ... .. . ... ... ... : ... .. . ... ... ... ... : ... .. . ... : ... .. . ... ... : ... .. . ...
ROW 3E : A-2 13 3 ... ... ... : ... .. . ... ... ... ... : ... .. . ... : ... .. . ... ... : ... .. . ...
ROW 3F : ... .. . ... ... ... : ... .. . ... ... ... ... : ... .. . ... : ... .. . ... ... : ... .. . ...

PATTERN 13
ROW 00 : E-1 13 6 ... ... ... : E-4 00 8 V02 P81 400 340 : E-2 12 . ... : ... .. . ... ... : ... .. . ...
ROW 01 : ... .. . ... ... ... : ... .. . ... ... ... ... : ... .. . ... : ... .. . ... ... : ... .. . ...
ROW 02 : ... .. . ... ... ... : F-4 00 . ... ... ... ... : --- .. . ... : ... .. . ... ... : ... .. . ...
ROW 03 : ... .. . ... ... ... : E-4 00 4 ... ... ... ... : ... .. . ... : ... .. . ... ... : ... .. . ...
ROW 04 : G#1 13 . ... ... ... : E-4 00 8 ... ... ... ... : F-2 12 . ... : ... .. . ... ... : ... .. . ...
ROW 05 : ... .. . ... ... ... : F-4 00 4 ... ... ... ... : ... .. . ... : ... .. . ... ... : ... .. . ...
ROW 06 : E-1 13 3 ... ... ... : F-4 00 8 ... ... ... ... : --- .. . ... : ... .. . ... ... : ... .. . ...
ROW 07 : ... .. . ... ... ... : E-4 00 4 ... ... ... ... : ... .. . ... : ... .. . ... ... : ... .. . ...
ROW 08 : B-1 13 6 ... ... ... : E-4 00 8 ... ... ... ... : E-2 12 . ... : ... .. . ... ... : ... .. . ...
ROW 09 : ... .. . ... ... ... : F-4 00 4 ... ... ... ... : ... .. . ... : ... .. . ... ... : ... .. . ...
ROW 0A : G#1 13 3 ... ... ... : F-4 00 8 ... ... ... ... : --- .. . ... : ... .. . ... ... : ... .. . ...
ROW 0B : ... .. . ... ... ... : E-4 00 4 ... ... ... ... : ... .. . ... : ... .. . ... ... : ... .. . ...
ROW 0C : E-2 13 6 ... ... ... : E-4 00 8 ... ... ... ... : F-2 12 . ... : ... .. . ... ... : ... .. . ...
ROW 0D : ... .. . ... ... ... : F-4 00 4 ... ... ... ... : ... .. . ... : ... .. . ... ... : ... .. . ...
ROW 0E : B-1 13 3 ... ... ... : F-4 00 8 ... ... ... ... : --- .. . ... : ... .. . ... ... : ... .. . ...
ROW 0F : ... .. . ... ... ... : E-4 00 4 ... ... ... ... : ... .. . ... : ... .. . ... ... : ... .. . ...
ROW 10 : G#1 13 6 ... ... ... : E-4 00 8 ... ... ... ... : G-2 12 . ... : ... .. . ... ... : ... .. . ...
ROW 11 : ... .. . ... ... ... : ... .. . ... ... ... ... : ... .. . ... : ... .. . ... ... : ... .. . ...
ROW 12 : E-2 13 3 ... ... ... : ... .. . ... ... ... ... : --- .. . ... : ... .. . ... ... : ... .. . ...
ROW 13 : ... .. . ... ... ... : ... .. . ... ... ... ... : ... .. . ... : ... .. . ... ... : ... .. . ...
ROW 14 : B-1 13 6 ... ... ... : ... .. . ... ... 464 ... : F-2 12 . ... : ... .. . ... ... : ... .. . ...
ROW 15 : ... .. . ... ... ... : ... .. . ... ... ... ... : ... .. . ... : ... .. . ... ... : ... .. . ...
ROW 16 : G#1 13 3 ... ... ... : ... .. . ... ... ... ... : --- .. . ... : ... .. . ... ... : ... .. . ...
ROW 17 : ... .. . ... ... ... : ... .. . ... ... ... ... : ... .. . ... : ... .. . ... ... : ... .. . ...
ROW 18 : E-2 13 6 ... ... ... : ... .. . ... ... ... ... : E-2 12 . ... : ... .. . ... ... : ... .. . ...
ROW 19 : ... .. . ... ... ... : ... .. . ... ... ... ... : ... .. . ... : ... .. . ... ... : ... .. . ...
ROW 1A : B-1 13 3 ... ... ... : ... .. . ... ... ... ... : --- .. . ... : ... .. . ... ... : ... .. . ...
ROW 1B : ... .. . ... ... ... : ... .. . ... ... ... ... : ... .. . ... : ... .. . ... ... : ... .. . ...
ROW 1C : G#2 13 6 ... ... ... : ... .. . ... ... ... ... : G#2 12 . ... : ... .. . ... ... : ... .. . ...
ROW 1D : ... .. . ... ... ... : ... .. . ... ... ... ... : ... .. . ... : ... .. . ... ... : ... .. . ...
ROW 1E : E-2 13 3 ... ... ... : A-4 00 . ... ... 400 ... : --- .. . ... : ... .. . ... ... : ... .. . ...
ROW 1F : ... .. . ... ... ... : A#4 00 . ... ... ... ... : ... .. . ... : ... .. . ... ... : ... .. . ...
ROW 20 : B-1 13 6 ... ... ... : B-4 00 . ... ... ... 200 : B-2 12 . ... : ... .. . ... ... : ... .. . ...
ROW 21 : ... .. . ... ... ... : ... .. . ... ... ... ... : ... .. . ... : ... .. . ... ... : ... .. . ...
ROW 22 : G#2 13 3 ... ... ... : ... .. . ... ... ... ... : ... .. . ... : ... .. . ... ... : ... .. . ...
ROW 23 : ... .. . ... ... ... : ... .. . ... ... ... ... : ... .. . ... : ... .. . ... ... : ... .. . ...
ROW 24 : E-2 13 6 ... ... ... : ... .. . ... ... 464 ... : --- .. . ... : ... .. . ... ... : ... .. . ...
ROW 25 : ... .. . ... ... ... : ... .. . ... ... ... ... : ... .. . ... : ... .. . ... ... : ... .. . ...
ROW 26 : B-1 13 3 ... ... ... : ... .. . ... ... ... ... : ... .. . ... : ... .. . ... ... : ... .. . ...
ROW 27 : ... .. . ... ... ... : ... .. . ... ... ... ... : ... .. . ... : ... .. . ... ... : ... .. . ...
ROW 28 : G#2 13 6 ... ... ... : ... .. . ... ... ... 210 : ... .. . ... : ... .. . ... ... : ... .. . ...
ROW 29 : ... .. . ... ... ... : ... .. . ... ... ... ... : ... .. . ... : ... .. . ... ... : ... .. . ...
ROW 2A : E-2 13 3 ... ... ... : ... .. . ... ... ... ... : ... .. . ... : ... .. . ... ... : ... .. . ...
ROW 2B : ... .. . ... ... ... : ... .. . ... ... ... ... : ... .. . ... : ... .. . ... ... : ... .. . ...
ROW 2C : B-2 13 6 ... ... ... : --- .. . ... ... ... ... : ... .. . ... : ... .. . ... ... : ... .. . ...
ROW 2D : ... .. . ... ... ... : ... .. . ... ... ... ... : ... .. . ... : ... .. . ... ... : ... .. . ...
ROW 2E : G#2 13 3 ... ... ... : ... .. . ... ... ... ... : ... .. . ... : ... .. . ... ... : ... .. . ...
ROW 2F : ... .. . ... ... ... : ... .. . ... ... ... ... : ... .. . ... : ... .. . ... ... : ... .. . ...
ROW 30 : E-2 13 6 ... ... ... : B-4 00 4 ... ... 400 200 : ... .. . ... : ... .. . ... ... : ... .. . ...
ROW 31 : ... .. . ... ... ... : ... .. . ... ... ... ... : ... .. . ... : ... .. . ... ... : ... .. . ...
ROW 32 : B-2 13 3 ... ... ... : ... .. . ... ... ... ... : ... .. . ... : ... .. . ... ... : ... .. . ...
ROW 33 : ... .. . ... ... ... : ... .. . ... ... ... ... : ... .. . ... : ... .. . ... ... : ... .. . ...
ROW 34 : G#2 13 6 ... ... ... : ... .. . ... ... 464 ... : ... .. . ... : ... .. . ... ... : ... .. . ...
ROW 35 : ... .. . ... ... ... : ... .. . ... ... ... ... : ... .. . ... : ... .. . ... ... : ... .. . ...
ROW 36 : E-2 13 3 ... ... ... : ... .. . ... ... ... ... : ... .. . ... : ... .. . ... ... : ... .. . ...
ROW 37 : ... .. . ... ... ... : ... .. . ... ... ... ... : ... .. . ... : ... .. . ... ... : ... .. . ...
ROW 38 : B-2 13 6 ... ... ... : ... .. . ... ... ... 210 : ... .. . ... : ... .. . ... ... : ... .. . ...
ROW 39 : ... .. . ... ... ... : ... .. . ... ... ... ... : ... .. . ... : ... .. . ... ... : ... .. . ...
ROW 3A : G#2 13 3 ... ... ... : ... .. . ... ... ... ... : ... .. . ... : ... .. . ... ... : ... .. . ...
ROW 3B : ... .. . ... ... ... : ... .. . ... ... ... ... : ... .. . ... : ... .. . ... ... : ... .. . ...
ROW 3C : E-3 13 6 ... ... ... : --- .. . ... ... ... 200 : ... .. . ... : ... .. . ... ... : ... .. . ...
ROW 3D : ... .. . ... ... ... : ... .. . ... ... ... ... : ... .. . ... : ... .. . ... ... : ... .. . ...
ROW 3E : B-2 13 3 ... ... ... : ... .. . ... ... ... ... : ... .. . ... : ... .. . ... ... : ... .. . ...
ROW 3F : ... .. . ... ... ... : ... .. . ... ... ... ... : ... .. . ... : ... .. . ... ... : ... .. . ...

PATTERN 14
ROW 00 : A-1 13 6 ... ... ... : C#5 00 8 V02 P81 400 300 : C#2 12 . ... : ... .. . ... ... : ... .. . ...
ROW 01 : ... .. . ... ... ... : ... .. . ... ... ... ... : ... .. . ... : ... .. . ... ... : ... .. . ...
ROW 02 : ... .. . ... ... ... : ... .. . ... ... ... ... : --- .. . ... : ... .. . ... ... : ... .. . ...
ROW 03 : ... .. . ... ... ... : ... .. . ... ... ... ... : ... .. . ... : ... .. . ... ... : ... .. . ...
ROW 04 : E-2 13 . ... ... ... : A-4 00 . ... ... ... ... : C#2 12 . ... : ... .. . ... ... : ... .. . ...
ROW 05 : ... .. . ... ... ... : ... .. . ... ... ... ... : ... .. . ... : ... .. . ... ... : ... .. . ...
ROW 06 : A-1 13 3 ... ... ... : C#5 00 4 ... ... ... ... : --- .. . ... : ... .. . ... ... : ... .. . ...
ROW 07 : ... .. . ... ... ... : ... .. . ... ... ... ... : ... .. . ... : ... .. . ... ... : ... .. . ...
ROW 08 : C#2 13 6 ... ... ... : E-4 00 8 ... ... ... ... : C#3 12 . ... : ... .. . ... ... : ... .. . ...
ROW 09 : ... .. . ... ... ... : ... .. . ... ... ... ... : ... .. . ... : ... .. . ... ... : ... .. . ...
ROW 0A : E-2 13 3 ... ... ... : A-4 00 4 ... ... ... ... : --- .. . ... : ... .. . ... ... : ... .. . ...
ROW 0B : ... .. . ... ... ... : ... .. . ... ... ... ... : ... .. . ... : ... .. . ... ... : ... .. . ...
ROW 0C : A-2 13 6 ... ... ... : C#4 00 8 ... ... ... ... : C#2 12 . ... : ... .. . ... ... : ... .. . ...
ROW 0D : ... .. . ... ... ... : ... .. . ... ... ... ... : ... .. . ... : ... .. . ... ... : ... .. . ...
ROW 0E : C#2 13 3 ... ... ... : E-4 00 4 ... ... ... ... : --- .. . ... : ... .. . ... ... : ... .. . ...
ROW 0F : ... .. . ... ... ... : ... .. . ... ... ... ... : ... .. . ... : ... .. . ... ... : ... .. . ...
ROW 10 : E-2 13 6 ... ... ... : A-4 00 8 ... ... ... ... : C#2 12 . ... : ... .. . ... ... : ... .. . ...
ROW 11 : ... .. . ... ... ... : ... .. . ... ... ... ... : ... .. . ... : ... .. . ... ... : ... .. . ...
ROW 12 : A-2 13 3 ... ... ... : C#4 00 4 ... ... ... ... : --- .. . ... : ... .. . ... ... : ... .. . ...
ROW 13 : ... .. . ... ... ... : ... .. . ... ... ... ... : ... .. . ... : ... .. . ... ... : ... .. . ...
ROW 14 : C#3 13 6 ... ... ... : E-4 00 8 ... ... ... ... : C#2 12 . ... : ... .. . ... ... : ... .. . ...
ROW 15 : ... .. . ... ... ... : ... .. . ... ... ... ... : ... .. . ... : ... .. . ... ... : ... .. . ...
ROW 16 : E-2 13 3 ... ... ... : A-4 00 4 ... ... ... ... : --- .. . ... : ... .. . ... ... : ... .. . ...
ROW 17 : ... .. . ... ... ... : ... .. . ... ... ... ... : ... .. . ... : ... .. . ... ... : ... .. . ...
ROW 18 : A-2 13 6 ... ... ... : C#4 00 8 ... ... ... ... : C#3 12 . ... : ... .. . ... ... : ... .. . ...
ROW 19 : ... .. . ... ... ... : ... .. . ... ... ... ... : ... .. . ... : ... .. . ... ... : ... .. . ...
ROW 1A : C#3 13 3 ... ... ... : E-4 00 4 ... ... ... ... : --- .. . ... : ... .. . ... ... : ... .. . ...
ROW 1B : ... .. . ... ... ... : ... .. . ... ... ... ... : ... .. . ... : ... .. . ... ... : ... .. . ...
ROW 1C : E-3 13 6 ... ... ... : A-3 00 8 ... ... ... ... : E-3 12 . ... : ... .. . ... ... : ... .. . ...
ROW 1D : ... .. . ... ... ... : ... .. . ... ... ... ... : ... .. . ... : ... .. . ... ... : ... .. . ...
ROW 1E : A-2 13 3 ... ... ... : C#4 00 4 ... ... ... ... : --- .. . ... : ... .. . ... ... : ... .. . ...
ROW 1F : ... .. . ... ... ... : ... .. . ... ... ... ... : ... .. . ... : ... .. . ... ... : ... .. . ...
ROW 20 : C#3 13 6 ... ... ... : E-4 00 8 ... ... ... ... : A-2 12 . ... : ... .. . ... ... : ... .. . ...
ROW 21 : ... .. . ... ... ... : ... .. . ... ... ... ... : ... .. . ... : ... .. . ... ... : ... .. . ...
ROW 22 : E-3 13 3 ... ... ... : A-3 00 4 ... ... ... ... : --- .. . ... : ... .. . ... ... : ... .. . ...
ROW 23 : ... .. . ... ... ... : ... .. . ... ... ... ... : ... .. . ... : ... .. . ... ... : ... .. . ...
ROW 24 : A-3 13 6 ... ... ... : F-4 00 8 ... ... ... ... : A-2 12 . ... : ... .. . ... ... : ... .. . ...
ROW 25 : ... .. . ... ... ... : ... .. . ... ... ... ... : ... .. . ... : ... .. . ... ... : ... .. . ...
ROW 26 : C#3 13 3 ... ... ... : E-4 00 4 ... ... ... ... : --- .. . ... : ... .. . ... ... : ... .. . ...
ROW 27 : ... .. . ... ... ... : ... .. . ... ... ... ... : ... .. . ... : ... .. . ... ... : ... .. . ...
ROW 28 : E-3 13 6 ... ... ... : E-4 00 8 ... ... ... ... : A-3 12 . ... : ... .. . ... ... : ... .. . ...
ROW 29 : ... .. . ... ... ... : ... .. . ... ... ... ... : ... .. . ... : ... .. . ... ... : ... .. . ...
ROW 2A : A-3 13 3 ... ... ... : F-4 00 4 ... ... ... ... : --- .. . ... : ... .. . ... ... : ... .. . ...
ROW 2B : ... .. . ... ... ... : ... .. . ... ... ... ... : ... .. . ... : ... .. . ... ... : ... .. . ...
ROW 2C : C#4 13 6 ... ... ... : F-4 00 8 ... ... ... ... : A-2 12 . ... : ... .. . ... ... : ... .. . ...
ROW 2D : ... .. . ... ... ... : ... .. . ... ... ... ... : ... .. . ... : ... .. . ... ... : ... .. . ...
ROW 2E : E-3 13 3 ... ... ... : E-4 00 4 ... ... ... ... : --- .. . ... : ... .. . ... ... : ... .. . ...
ROW 2F : ... .. . ... ... ... : ... .. . ... ... ... ... : ... .. . ... : ... .. . ... ... : ... .. . ...
ROW 30 : A-3 13 6 ... ... ... : E-4 00 8 ... ... ... ... : A-2 12 . ... : ... .. . ... ... : ... .. . ...
ROW 31 : ... .. . ... ... ... : ... .. . ... ... ... ... : ... .. . ... : ... .. . ... ... : ... .. . ...
ROW 32 : C#4 13 3 ... ... ... : F-4 00 4 ... ... ... ... : --- .. . ... : ... .. . ... ... : ... .. . ...
ROW 33 : ... .. . ... ... ... : ... .. . ... ... ... ... : ... .. . ... : ... .. . ... ... : ... .. . ...
ROW 34 : E-4 13 6 ... ... ... : F-4 00 8 ... ... ... ... : A-2 12 . ... : ... .. . ... ... : ... .. . ...
ROW 35 : ... .. . ... ... ... : ... .. . ... ... ... ... : ... .. . ... : ... .. . ... ... : ... .. . ...
ROW 36 : A-3 13 3 ... ... ... : F-4 00 . ... ... ... ... : --- .. . ... : ... .. . ... ... : ... .. . ...
ROW 37 : ... .. . ... ... ... : F#4 00 . ... ... ... ... : ... .. . ... : ... .. . ... ... : ... .. . ...
ROW 38 : C#4 13 6 ... ... ... : G-4 00 . ... ... ... ... : A-3 12 . ... : ... .. . ... ... : ... .. . ...
ROW 39 : ... .. . ... ... ... : ... .. . ... ... ... ... : ... .. . ... : ... .. . ... ... : ... .. . ...
ROW 3A : E-4 13 3 ... ... ... : ... .. . ... ... ... ... : --- .. . ... : ... .. . ... ... : ... .. . ...
ROW 3B : ... .. . ... ... ... : ... .. . ... ... ... ... : ... .. . ... : ... .. . ... ... : ... .. . ...
ROW 3C : A-4 13 6 ... ... ... : ... .. . ... ... 464 ... : C#4 12 . ... : ... .. . ... ... : ... .. . ...
ROW 3D : ... .. . ... ... ... : ... .. . ... ... ... ... : ... .. . ... : ... .. . ... ... : ... .. . ...
ROW 3E : C#4 13 3 ... ... ... : ... .. . ... ... ... ... : --- .. . ... : ... .. . ... ... : ... .. . ...
ROW 3F : ... .. . ... ... ... : ... .. . ... ... ... ... : ... .. . ... : ... .. . ... ... : ... .. . ...

PATTERN 15
ROW 00 : D-2 13 6 ... ... ... : A-4 00 8 V02 P81 400 320 : D-2 12 . 202 : ... .. . ... ... : ... .. . ...
ROW 01 : ... .. . ... ... ... : ... .. . ... ... ... ... : ... .. . ... : ... .. . ... ... : ... .. . ...
ROW 02 : ... .. . ... ... ... : ... .. . ... ... ... ... : ... .. . ... : ... .. . ... ... : ... .. . ...
ROW 03 : ... .. . ... ... ... : ... .. . ... ... ... ... : ... .. . ... : ... .. . ... ... : ... .. . ...
ROW 04 : A-2 13 . ... ... ... : ... .. . ... ... 464 ... : ... .. . ... : ... .. . ... ... : ... .. . ...
ROW 05 : ... .. . ... ... ... : ... .. . ... ... ... ... : ... .. . ... : ... .. . ... ... : ... .. . ...
ROW 06 : D-2 13 3 ... ... ... : ... .. . ... ... ... ... : ... .. . ... : ... .. . ... ... : ... .. . ...
ROW 07 : ... .. . ... ... ... : ... .. . ... ... ... ... : ... .. . ... : ... .. . ... ... : ... .. . ...
ROW 08 : F-2 13 6 ... ... ... : ... .. . ... ... ... 210 : ... .. . ... : ... .. . ... ... : ... .. . ...
ROW 09 : ... .. . ... ... ... : ... .. . ... ... ... ... : ... .. . ... : ... .. . ... ... : ... .. . ...
ROW 0A : A-2 13 3 ... ... ... : ... .. . ... ... ... ... : ... .. . ... : ... .. . ... ... : ... .. . ...
ROW 0B : ... .. . ... ... ... : ... .. . ... ... ... ... : ... .. . ... : ... .. . ... ... : ... .. . ...
ROW 0C : D-3 13 6 ... ... ... : --- .. . ... ... ... ... : ... .. . ... : ... .. . ... ... : ... .. . ...
ROW 0D : ... .. . ... ... ... : ... .. . ... ... ... ... : ... .. . ... : ... .. . ... ... : ... .. . ...
ROW 0E : F-2 13 3 ... ... ... : ... .. . ... ... ... ... : ... .. . ... : ... .. . ... ... : ... .. . ...
ROW 0F : ... .. . ... ... ... : ... .. . ... ... ... ... : ... .. . ... : ... .. . ... ... : ... .. . ...
ROW 10 : A-2 13 6 ... ... ... : A-4 00 4 ... ... 400 200 : ... .. . ... : ... .. . ... ... : ... .. . ...
ROW 11 : ... .. . ... ... ... : ... .. . ... ... ... ... : ... .. . ... : ... .. . ... ... : ... .. . ...
ROW 12 : D-3 13 3 ... ... ... : ... .. . ... ... ... ... : ... .. . ... : ... .. . ... ... : ... .. . ...
ROW 13 : ... .. . ... ... ... : ... .. . ... ... ... ... : ... .. . ... : ... .. . ... ... : ... .. . ...
ROW 14 : F-3 13 6 ... ... ... : ... .. . ... ... 464 ... : ... .. . ... : ... .. . ... ... : ... .. . ...
ROW 15 : ... .. . ... ... ... : ... .. . ... ... ... ... : ... .. . ... : ... .. . ... ... : ... .. . ...
ROW 16 : A-2 13 3 ... ... ... : ... .. . ... ... ... ... : ... .. . ... : ... .. . ... ... : ... .. . ...
ROW 17 : ... .. . ... ... ... : ... .. . ... ... ... ... : ... .. . ... : ... .. . ... ... : ... .. . ...
ROW 18 : D-3 13 6 ... ... ... : ... .. . ... ... ... 210 : ... .. . ... : ... .. . ... ... : ... .. . ...
ROW 19 : ... .. . ... ... ... : ... .. . ... ... ... ... : ... .. . ... : ... .. . ... ... : ... .. . ...
ROW 1A : F-3 13 3 ... ... ... : ... .. . ... ... ... ... : ... .. . ... : ... .. . ... ... : ... .. . ...
ROW 1B : ... .. . ... ... ... : ... .. . ... ... ... ... : ... .. . ... : ... .. . ... ... : ... .. . ...
ROW 1C : A-3 13 6 ... ... ... : G-4 00 8 ... ... 400 200 : ... .. . ... : ... .. . ... ... : ... .. . ...
ROW 1D : ... .. . ... ... ... : ... .. . ... ... ... ... : ... .. . ... : ... .. . ... ... : ... .. . ...
ROW 1E : D-3 13 3 ... ... ... : A-4 00 . ... ... ... ... : ... .. . ... : ... .. . ... ... : ... .. . ...
ROW 1F : ... .. . ... ... ... : G-4 00 4 ... ... ... ... : ... .. . ... : ... .. . ... ... : ... .. . ...
ROW 20 : F-3 13 6 ... ... ... : F-4 00 8 ... ... ... ... : D-1 12 . 200 : ... .. . ... ... : ... .. . ...
ROW 21 : ... .. . ... ... ... : ... .. . ... ... ... ... : ... .. . ... : ... .. . ... ... : ... .. . ...
ROW 22 : A-3 13 3 ... ... ... : ... .. . ... ... ... ... : ... .. . ... : ... .. . ... ... : ... .. . ...
ROW 23 : ... .. . ... ... ... : ... .. . ... ... ... ... : ... .. . ... : ... .. . ... ... : ... .. . ...
ROW 24 : D-4 13 6 ... ... ... : ... .. . ... ... 464 ... : ... .. . ... : ... .. . ... ... : ... .. . ...
ROW 25 : ... .. . ... ... ... : ... .. . ... ... ... ... : ... .. . ... : ... .. . ... ... : ... .. . ...
ROW 26 : F-3 13 3 ... ... ... : ... .. . ... ... ... ... : ... .. . ... : ... .. . ... ... : ... .. . ...
ROW 27 : ... .. . ... ... ... : ... .. . ... ... ... ... : ... .. . ... : ... .. . ... ... : ... .. . ...
ROW 28 : A-3 13 6 ... ... ... : ... .. . ... ... ... 210 : ... .. . ... : ... .. . ... ... : ... .. . ...
ROW 29 : ... .. . ... ... ... : ... .. . ... ... ... ... : ... .. . ... : ... .. . ... ... : ... .. . ...
ROW 2A : D-4 13 3 ... ... ... : ... .. . ... ... ... ... : ... .. . ... : ... .. . ... ... : ... .. . ...
ROW 2B : ... .. . ... ... ... : ... .. . ... ... ... ... : ... .. . ... : ... .. . ... ... : ... .. . ...
ROW 2C : F-4 13 6 ... ... ... : --- .. . ... ... ... ... : ... .. . ... : ... .. . ... ... : ... .. . ...
ROW 2D : ... .. . ... ... ... : ... .. . ... ... ... ... : ... .. . ... : ... .. . ... ... : ... .. . ...
ROW 2E : A-3 13 3 ... ... ... : ... .. . ... ... ... ... : ... .. . ... : ... .. . ... ... : ... .. . ...
ROW 2F : ... .. . ... ... ... : ... .. . ... ... ... ... : ... .. . ... : ... .. . ... ... : ... .. . ...
ROW 30 : D-4 13 6 ... ... ... : F-4 00 3 ... ... 400 200 : ... .. . ... : ... .. . ... ... : ... .. . ...
ROW 31 : ... .. . ... ... ... : ... .. . ... ... ... ... : ... .. . ... : ... .. . ... ... : ... .. . ...
ROW 32 : F-4 13 3 ... ... ... : ... .. . ... ... ... ... : ... .. . ... : ... .. . ... ... : ... .. . ...
ROW 33 : ... .. . ... ... ... : ... .. . ... ... ... ... : ... .. . ... : ... .. . ... ... : ... .. . ...
ROW 34 : A-4 13 6 ... ... ... : ... .. . ... ... 464 ... : ... .. . ... : ... .. . ... ... : ... .. . ...
ROW 35 : ... .. . ... ... ... : ... .. . ... ... ... ... : ... .. . ... : ... .. . ... ... : ... .. . ...
ROW 36 : D-4 13 3 ... ... ... : ... .. . ... ... ... ... : ... .. . ... : ... .. . ... ... : ... .. . ...
ROW 37 : ... .. . ... ... ... : ... .. . ... ... ... ... : ... .. . ... : ... .. . ... ... : ... .. . ...
ROW 38 : F-4 13 6 ... ... ... : A-4 00 8 ... ... 400 320 : ... .. . ... : ... .. . ... ... : ... .. . ...
ROW 39 : ... .. . ... ... ... : ... .. . ... ... ... ... : ... .. . ... : ... .. . ... ... : ... .. . ...
ROW 3A : A-4 13 3 ... ... ... : ... .. . ... ... ... ... : ... .. . ... : ... .. . ... ... : ... .. . ...
ROW 3B : ... .. . ... ... ... : ... .. . ... ... ... ... : ... .. . ... : ... .. . ... ... : ... .. . ...
ROW 3C : D-5 13 6 ... ... ... : ... .. . ... ... 464 ... : ... .. . ... : ... .. . ... ... : ... .. . ...
ROW 3D : ... .. . ... ... ... : ... .. . ... ... ... ... : ... .. . ... : ... .. . ... ... : ... .. . ...
ROW 3E : F-4 13 3 ... ... ... : ... .. . ... ... ... ... : ... .. . ... : ... .. . ... ... : ... .. . ...
ROW 3F : ... .. . ... ... ... : ... .. . ... ... ... ... : ... .. . ... : ... .. . ... ... : ... .. . ...

PATTERN 16
ROW 00 : F-1 13 6 ... ... ... : A#4 00 8 V02 P81 400 330 : A#1 12 . ... : ... .. . ... ... : ... .. . ...
ROW 01 : ... .. . ... ... ... : ... .. . ... ... ... ... : ... .. . ... : ... .. . ... ... : ... .. . ...
ROW 02 : D-1 13 . ... ... ... : ... .. . ... ... ... ... : --- .. . ... : ... .. . ... ... : ... .. . ...
ROW 03 : F-1 13 3 ... ... ... : ... .. . ... ... ... ... : ... .. . ... : ... .. . ... ... : ... .. . ...
ROW 04 : F-1 13 6 ... ... ... : ... .. 7 ... ... 464 ... : A#1 12 . ... : ... .. . ... ... : ... .. . ...
ROW 05 : D-1 13 3 ... ... ... : ... .. 6 ... ... ... ... : ... .. . ... : ... .. . ... ... : ... .. . ...
ROW 06 : A#1 13 6 ... ... ... : ... .. 5 ... ... ... ... : --- .. . ... : ... .. . ... ... : ... .. . ...
ROW 07 : F-1 13 3 ... ... ... : ... .. 4 ... ... ... ... : ... .. . ... : ... .. . ... ... : ... .. . ...
ROW 08 : A#2 13 6 ... ... ... : A#4 00 8 ... ... 400 ... : A#2 12 . ... : ... .. . ... ... : ... .. . ...
ROW 09 : A#1 13 3 ... ... ... : ... .. 6 ... ... ... ... : ... .. . ... : ... .. . ... ... : ... .. . ...
ROW 0A : F-2 13 6 ... ... ... : ... .. 4 ... ... ... ... : --- .. . ... : ... .. . ... ... : ... .. . ...
ROW 0B : A#2 13 3 ... ... ... : ... .. 2 ... ... ... ... : ... .. . ... : ... .. . ... ... : ... .. . ...
ROW 0C : D-2 13 6 ... ... ... : A#4 00 8 ... ... ... ... : A#1 12 . ... : ... .. . ... ... : ... .. . ...
ROW 0D : F-2 13 3 ... ... ... : ... .. . ... ... ... ... : ... .. . ... : ... .. . ... ... : ... .. . ...
ROW 0E : A#1 13 6 ... ... ... : ... .. . ... ... ... ... : --- .. . ... : ... .. . ... ... : ... .. . ...
ROW 0F : D-2 13 3 ... ... ... : ... .. . ... ... ... ... : ... .. . ... : ... .. . ... ... : ... .. . ...
ROW 10 : D-3 13 6 ... ... ... : ... .. . ... ... 464 ... : A#1 12 . ... : ... .. . ... ... : ... .. . ...
ROW 11 : A#1 13 3 ... ... ... : ... .. . ... ... ... ... : ... .. . ... : ... .. . ... ... : ... .. . ...
ROW 12 : A#2 13 6 ... ... ... : ... .. . ... ... ... ... : --- .. . ... : ... .. . ... ... : ... .. . ...
ROW 13 : D-3 13 3 ... ... ... : ... .. . ... ... ... ... : ... .. . ... : ... .. . ... ... : ... .. . ...
ROW 14 : F-2 13 6 ... ... ... : ... .. . ... ... ... ... : A#1 12 . ... : ... .. . ... ... : ... .. . ...
ROW 15 : A#2 13 3 ... ... ... : ... .. . ... ... ... ... : ... .. . ... : ... .. . ... ... : ... .. . ...
ROW 16 : D-2 13 6 ... ... ... : ... .. . ... ... ... ... : --- .. . ... : ... .. . ... ... : ... .. . ...
ROW 17 : F-2 13 3 ... ... ... : ... .. . ... ... ... ... : ... .. . ... : ... .. . ... ... : ... .. . ...
ROW 18 : F-3 13 6 ... ... ... : A-4 00 . ... ... 400 ... : A#2 12 . ... : ... .. . ... ... : ... .. . ...
ROW 19 : D-2 13 3 ... ... ... : ... .. . ... ... ... ... : ... .. . ... : ... .. . ... ... : ... .. . ...
ROW 1A : D-3 13 6 ... ... ... : ... .. . ... ... ... ... : --- .. . ... : ... .. . ... ... : ... .. . ...
ROW 1B : F-3 13 3 ... ... ... : ... .. . ... ... ... ... : ... .. . ... : ... .. . ... ... : ... .. . ...
ROW 1C : A#2 13 6 ... ... ... : G-4 00 . ... ... ... 350 : A#1 12 . ... : ... .. . ... ... : ... .. . ...
ROW 1D : D-3 13 3 ... ... ... : ... .. . ... ... ... ... : ... .. . ... : ... .. . ... ... : ... .. . ...
ROW 1E : F-2 13 6 ... ... ... : A-4 00 4 ... ... ... ... : --- .. . ... : ... .. . ... ... : ... .. . ...
ROW 1F : A#2 13 3 ... ... ... : ... .. . ... ... ... ... : ... .. . ... : ... .. . ... ... : ... .. . ...
ROW 20 : A-1 13 6 ... ... ... : A-4 00 8 ... ... ... ... : A-1 12 . ... : ... .. . ... ... : ... .. . ...
ROW 21 : F-2 13 3 ... ... ... : ... .. . ... ... ... ... : ... .. . ... : ... .. . ... ... : ... .. . ...
ROW 22 : F-1 13 6 ... ... ... : G-4 00 4 ... ... ... ... : --- .. . ... : ... .. . ... ... : ... .. . ...
ROW 23 : A-1 13 3 ... ... ... : ... .. . ... ... ... ... : ... .. . ... : ... .. . ... ... : ... .. . ...
ROW 24 : A-1 13 6 ... ... ... : G-4 00 8 ... ... ... ... : A-1 12 . ... : ... .. . ... ... : ... .. . ...
ROW 25 : F-1 13 3 ... ... ... : ... .. . ... ... ... ... : ... .. . ... : ... .. . ... ... : ... .. . ...
ROW 26 : C-2 13 6 ... ... ... : A-4 00 4 ... ... ... ... : --- .. . ... : ... .. . ... ... : ... .. . ...
ROW 27 : A-1 13 3 ... ... ... : ... .. . ... ... ... ... : ... .. . ... : ... .. . ... ... : ... .. . ...
ROW 28 : F-2 13 6 ... ... ... : A-4 00 8 ... ... ... ... : A-2 12 . ... : ... .. . ... ... : ... .. . ...
ROW 29 : C-2 13 3 ... ... ... : ... .. . ... ... ... ... : ... .. . ... : ... .. . ... ... : ... .. . ...
ROW 2A : C-2 13 6 ... ... ... : G-4 00 4 ... ... ... ... : --- .. . ... : ... .. . ... ... : ... .. . ...
ROW 2B : F-2 13 3 ... ... ... : ... .. . ... ... ... ... : ... .. . ... : ... .. . ... ... : ... .. . ...
ROW 2C : A-1 13 6 ... ... ... : F-4 00 8 ... ... ... ... : A-1 12 . ... : ... .. . ... ... : ... .. . ...
ROW 2D : C-2 13 3 ... ... ... : ... .. . ... ... ... ... : ... .. . ... : ... .. . ... ... : ... .. . ...
ROW 2E : F-1 13 6 ... ... ... : ... .. . ... ... ... ... : --- .. . ... : ... .. . ... ... : ... .. . ...
ROW 2F : A-1 13 3 ... ... ... : ... .. . ... ... ... ... : ... .. . ... : ... .. . ... ... : ... .. . ...
ROW 30 : A-2 13 6 ... ... ... : ... .. . ... ... 464 ... : ... .. . ... : ... .. . ... ... : ... .. . ...
ROW 31 : F-1 13 3 ... ... ... : ... .. . ... ... ... ... : ... .. . ... : ... .. . ... ... : ... .. . ...
ROW 32 : F-2 13 6 ... ... ... : ... .. . ... ... ... ... : ... .. . ... : ... .. . ... ... : ... .. . ...
ROW 33 : A-2 13 3 ... ... ... : ... .. . ... ... ... ... : ... .. . ... : ... .. . ... ... : ... .. . ...
ROW 34 : C-2 13 6 ... ... ... : ... .. . ... ... ... 210 : ... .. . ... : ... .. . ... ... : ... .. . ...
ROW 35 : F-2 13 3 ... ... ... : ... .. . ... ... ... ... : ... .. . ... : ... .. . ... ... : ... .. . ...
ROW 36 : A-1 13 6 ... ... ... : ... .. . ... ... ... ... : ... .. . ... : ... .. . ... ... : ... .. . ...
ROW 37 : C-2 13 3 ... ... ... : ... .. . ... ... ... ... : ... .. . ... : ... .. . ... ... : ... .. . ...
ROW 38 : C-3 13 6 ... ... ... : --- .. . ... ... ... ... : F-2 12 . ... : ... .. . ... ... : ... .. . ...
ROW 39 : A-1 13 3 ... ... ... : ... .. . ... ... ... ... : ... .. . ... : ... .. . ... ... : ... .. . ...
ROW 3A : F-3 13 6 ... ... ... : ... .. . ... ... ... ... : --- .. . ... : ... .. . ... ... : ... .. . ...
ROW 3B : C-3 13 3 ... ... ... : ... .. . ... ... ... ... : ... .. . ... : ... .. . ... ... : ... .. . ...
ROW 3C : A-3 13 6 ... ... ... : ... .. . ... ... ... ... : A-2 12 . ... : ... .. . ... ... : ... .. . ...
ROW 3D : F-3 13 3 ... ... ... : ... .. . ... ... ... ... : ... .. . ... : ... .. . ... ... : ... .. . ...
ROW 3E : C-4 13 6 ... ... ... : ... .. . ... ... ... ... : --- .. . ... : ... .. . ... ... : ... .. . ...
ROW 3F : A-3 13 3 ... ... ... : ... .. . ... ... ... ... : ... .. . ... : ... .. . ... ... : ... .. . ...

PATTERN 17
ROW 00 : G-1 13 6 ... ... ... : G-4 00 8 V02 P81 400 300 : G-1 12 . ... : ... .. . ... ... : ... .. . ...
ROW 01 : ... .. . ... ... ... : ... .. . ... ... ... ... : ... .. . ... : ... .. . ... ... : ... .. . ...
ROW 02 : E-1 13 . ... ... ... : ... .. . ... ... ... ... : --- .. . ... : ... .. . ... ... : ... .. . ...
ROW 03 : G-1 13 3 ... ... ... : ... .. . ... ... ... ... : ... .. . ... : ... .. . ... ... : ... .. . ...
ROW 04 : G-1 13 6 ... ... ... : ... .. 7 ... ... 464 ... : G-1 12 . ... : ... .. . ... ... : ... .. . ...
ROW 05 : E-1 13 3 ... ... ... : ... .. 6 ... ... ... ... : ... .. . ... : ... .. . ... ... : ... .. . ...
ROW 06 : A#1 13 6 ... ... ... : ... .. 5 ... ... ... ... : --- .. . ... : ... .. . ... ... : ... .. . ...
ROW 07 : G-1 13 3 ... ... ... : ... .. 4 ... ... ... ... : ... .. . ... : ... .. . ... ... : ... .. . ...
ROW 08 : G-1 13 6 ... ... ... : G-4 00 8 ... ... 400 ... : G-2 12 . ... : ... .. . ... ... : ... .. . ...
ROW 09 : A#1 13 3 ... ... ... : ... .. 6 ... ... ... ... : ... .. . ... : ... .. . ... ... : ... .. . ...
ROW 0A : A#1 13 6 ... ... ... : ... .. 4 ... ... ... ... : --- .. . ... : ... .. . ... ... : ... .. . ...
ROW 0B : G-1 13 3 ... ... ... : ... .. 2 ... ... ... ... : ... .. . ... : ... .. . ... ... : ... .. . ...
ROW 0C : D-2 13 6 ... ... ... : G-4 00 8 ... ... ... ... : G-1 12 . ... : ... .. . ... ... : ... .. . ...
ROW 0D : A#1 13 3 ... ... ... : ... .. . ... ... ... ... : ... .. . ... : ... .. . ... ... : ... .. . ...
ROW 0E : A#1 13 6 ... ... ... : ... .. . ... ... ... ... : --- .. . ... : ... .. . ... ... : ... .. . ...
ROW 0F : D-2 13 3 ... ... ... : ... .. . ... ... ... ... : ... .. . ... : ... .. . ... ... : ... .. . ...
ROW 10 : D-2 13 6 ... ... ... : ... .. . ... ... 464 ... : G-2 12 . ... : ... .. . ... ... : ... .. . ...
ROW 11 : A#1 13 3 ... ... ... : ... .. . ... ... ... ... : ... .. . ... : ... .. . ... ... : ... .. . ...
ROW 12 : G-2 13 6 ... ... ... : ... .. . ... ... ... ... : --- .. . ... : ... .. . ... ... : ... .. . ...
ROW 13 : D-2 13 3 ... ... ... : ... .. . ... ... ... ... : ... .. . ... : ... .. . ... ... : ... .. . ...
ROW 14 : D-2 13 6 ... ... ... : A-4 00 . ... ... 400 ... : G-1 12 . ... : ... .. . ... ... : ... .. . ...
ROW 15 : G-2 13 3 ... ... ... : ... .. . ... ... ... ... : ... .. . ... : ... .. . ... ... : ... .. . ...
ROW 16 : G-2 13 6 ... ... ... : ... .. . ... ... ... ... : --- .. . ... : ... .. . ... ... : ... .. . ...
ROW 17 : D-2 13 3 ... ... ... : ... .. . ... ... ... ... : ... .. . ... : ... .. . ... ... : ... .. . ...
ROW 18 : A#2 13 6 ... ... ... : C-5 00 . ... ... ... ... : G-1 12 . ... : ... .. . ... ... : ... .. . ...
ROW 19 : G-2 13 3 ... ... ... : ... .. . ... ... ... ... : ... .. . ... : ... .. . ... ... : ... .. . ...
ROW 1A : G-2 13 6 ... ... ... : A-4 00 4 ... ... ... ... : --- .. . ... : ... .. . ... ... : ... .. . ...
ROW 1B : A#2 13 3 ... ... ... : ... .. . ... ... ... ... : ... .. . ... : ... .. . ... ... : ... .. . ...
ROW 1C : A#2 13 6 ... ... ... : A#4 00 8 ... ... ... ... : G-2 12 . ... : ... .. . ... ... : ... .. . ...
ROW 1D : G-2 13 3 ... ... ... : ... .. . ... ... ... ... : ... .. . ... : ... .. . ... ... : ... .. . ...
ROW 1E : D-3 13 6 ... ... ... : C-5 00 4 ... ... ... ... : --- .. . ... : ... .. . ... ... : ... .. . ...
ROW 1F : A#2 13 3 ... ... ... : ... .. . ... ... ... ... : ... .. . ... : ... .. . ... ... : ... .. . ...
ROW 20 : C#3 13 6 ... ... ... : A-4 00 8 ... ... ... ... : A-2 12 . ... : ... .. . ... ... : ... .. . ...
ROW 21 : E-3 13 3 ... ... ... : ... .. . ... ... ... ... : ... .. . ... : ... .. . ... ... : ... .. . ...
ROW 22 : A-2 13 6 ... ... ... : ... .. . ... ... ... ... : --- .. . ... : ... .. . ... ... : ... .. . ...
ROW 23 : C#3 13 3 ... ... ... : ... .. . ... ... ... ... : ... .. . ... : ... .. . ... ... : ... .. . ...
ROW 24 : E-2 13 6 ... ... ... : ... .. . ... ... 464 ... : ... .. . ... : ... .. . ... ... : ... .. . ...
ROW 25 : A-2 13 3 ... ... ... : ... .. . ... ... ... ... : ... .. . ... : ... .. . ... ... : ... .. . ...
ROW 26 : C#2 13 6 ... ... ... : ... .. . ... ... ... ... : ... .. . ... : ... .. . ... ... : ... .. . ...
ROW 27 : E-2 13 3 ... ... ... : ... .. . ... ... ... ... : ... .. . ... : ... .. . ... ... : ... .. . ...
ROW 28 : A-2 13 6 ... ... ... : ... .. . ... ... ... 210 : ... .. . ... : ... .. . ... ... : ... .. . ...
ROW 29 : C#3 13 3 ... ... ... : ... .. . ... ... ... ... : ... .. . ... : ... .. . ... ... : ... .. . ...
ROW 2A : E-2 13 6 ... ... ... : ... .. . ... ... ... ... : ... .. . ... : ... .. . ... ... : ... .. . ...
ROW 2B : A-2 13 3 ... ... ... : ... .. . ... ... ... ... : ... .. . ... : ... .. . ... ... : ... .. . ...
ROW 2C : C#2 13 6 ... ... ... : --- .. . ... ... ... ... : ... .. . ... : ... .. . ... ... : ... .. . ...
ROW 2D : E-2 13 3 ... ... ... : ... .. . ... ... ... ... : ... .. . ... : ... .. . ... ... : ... .. . ...
ROW 2E : A-1 13 6 ... ... ... : ... .. . ... ... ... ... : ... .. . ... : ... .. . ... ... : ... .. . ...
ROW 2F : C#2 13 3 ... ... ... : ... .. . ... ... ... ... : ... .. . ... : ... .. . ... ... : ... .. . ...
ROW 30 : E-2 13 6 ... ... ... : A-4 00 4 ... ... 400 200 : ... .. . ... : ... .. . ... ... : ... .. . ...
ROW 31 : A-2 13 3 ... ... ... : ... .. . ... ... ... ... : ... .. . ... : ... .. . ... ... : ... .. . ...
ROW 32 : C#2 13 6 ... ... ... : ... .. . ... ... ... ... : ... .. . ... : ... .. . ... ... : ... .. . ...
ROW 33 : E-2 13 3 ... ... ... : ... .. . ... ... ... ... : ... .. . ... : ... .. . ... ... : ... .. . ...
ROW 34 : A-1 13 6 ... ... ... : ... .. . ... ... 464 ... : ... .. . ... : ... .. . ... ... : ... .. . ...
ROW 35 : C#2 13 3 ... ... ... : ... .. . ... ... ... ... : ... .. . ... : ... .. . ... ... : ... .. . ...
ROW 36 : E-1 13 6 ... ... ... : ... .. . ... ... ... ... : ... .. . ... : ... .. . ... ... : ... .. . ...
ROW 37 : A-1 13 3 ... ... ... : ... .. . ... ... ... ... : ... .. . ... : ... .. . ... ... : ... .. . ...
ROW 38 : C#2 13 6 ... ... ... : G-4 00 8 ... ... 400 340 : ... .. . ... : ... .. . ... ... : ... .. . ...
ROW 39 : E-2 13 3 ... ... ... : ... .. . ... ... ... ... : ... .. . ... : ... .. . ... ... : ... .. . ...
ROW 3A : A-1 13 6 ... ... ... : ... .. . ... ... ... ... : ... .. . ... : ... .. . ... ... : ... .. . ...
ROW 3B : C#2 13 3 ... ... ... : ... .. . ... ... ... ... : ... .. . ... : ... .. . ... ... : ... .. . ...
ROW 3C : E-1 13 6 ... ... ... : F-4 00 . ... ... ... ... : ... .. . ... : ... .. . ... ... : ... .. . ...
ROW 3D : A-1 13 3 ... ... ... : ... .. . ... ... ... ... : ... .. . ... : ... .. . ... ... : ... .. . ...
ROW 3E : C#1 13 6 ... ... ... : G-4 00 4 ... ... ... ... : ... .. . ... : ... .. . ... ... : ... .. . ...
ROW 3F : E-1 13 3 ... ... ... : ... .. . ... ... ... ... : ... .. . ... : ... .. . ... ... : ... .. . ...

PATTERN 18
ROW 00 : G-1 13 6 ... ... ... : G-4 00 8 V02 P81 400 340 : E-1 12 . ... : ... .. . ... ... : ... .. . ...
ROW 01 : ... .. . ... ... ... : ... .. . ... ... ... ... : ... .. . ... : ... .. . ... ... : ... .. . ...
ROW 02 : F-1 13 . ... ... ... : F-4 00 4 ... ... ... ... : --- .. . ... : ... .. . ... ... : ... .. . ...
ROW 03 : G-1 13 3 ... ... ... : ... .. . ... ... ... ... : ... .. . ... : ... .. . ... ... : ... .. . ...
ROW 04 : G-1 13 6 ... ... ... : E-4 00 8 ... ... ... ... : E-1 12 . ... : ... .. . ... ... : ... .. . ...
ROW 05 : F-1 13 3 ... ... ... : ... .. . ... ... ... ... : ... .. . ... : ... .. . ... ... : ... .. . ...
ROW 06 : A#1 13 6 ... ... ... : G-4 00 4 ... ... ... ... : --- .. . ... : ... .. . ... ... : ... .. . ...
ROW 07 : G-1 13 3 ... ... ... : ... .. . ... ... ... ... : ... .. . ... : ... .. . ... ... : ... .. . ...
ROW 08 : E-2 13 6 ... ... ... : G-4 00 8 ... ... ... ... : E-2 12 . ... : ... .. . ... ... : ... .. . ...
ROW 09 : A#1 13 3 ... ... ... : ... .. . ... ... ... ... : ... .. . ... : ... .. . ... ... : ... .. . ...
ROW 0A : D-2 13 6 ... ... ... : E-4 00 4 ... ... ... ... : --- .. . ... : ... .. . ... ... : ... .. . ...
ROW 0B : E-2 13 3 ... ... ... : ... .. . ... ... ... ... : ... .. . ... : ... .. . ... ... : ... .. . ...
ROW 0C : E-2 13 6 ... ... ... : A-4 00 8 ... ... ... ... : E-1 12 . ... : ... .. . ... ... : ... .. . ...
ROW 0D : D-2 13 3 ... ... ... : ... .. . ... ... ... ... : ... .. . ... : ... .. . ... ... : ... .. . ...
ROW 0E : G-2 13 6 ... ... ... : G-4 00 4 ... ... ... ... : --- .. . ... : ... .. . ... ... : ... .. . ...
ROW 0F : E-2 13 3 ... ... ... : ... .. . ... ... ... ... : ... .. . ... : ... .. . ... ... : ... .. . ...
ROW 10 : A-2 13 6 ... ... ... : G-4 00 8 ... ... ... ... : E-1 12 . ... : ... .. . ... ... : ... .. . ...
ROW 11 : G-2 13 3 ... ... ... : ... .. . ... ... ... ... : ... .. . ... : ... .. . ... ... : ... .. . ...
ROW 12 : G-2 13 6 ... ... ... : A-4 00 4 ... ... ... ... : --- .. . ... : ... .. . ... ... : ... .. . ...
ROW 13 : A-2 13 3 ... ... ... : ... .. . ... ... ... ... : ... .. . ... : ... .. . ... ... : ... .. . ...
ROW 14 : A-2 13 6 ... ... ... : F-4 00 8 ... ... ... ... : E-2 12 . ... : ... .. . ... ... : ... .. . ...
ROW 15 : G-2 13 3 ... ... ... : ... .. . ... ... ... ... : ... .. . ... : ... .. . ... ... : ... .. . ...
ROW 16 : C#3 13 6 ... ... ... : G-4 00 4 ... ... ... ... : --- .. . ... : ... .. . ... ... : ... .. . ...
ROW 17 : A-2 13 3 ... ... ... : ... .. . ... ... ... ... : ... .. . ... : ... .. . ... ... : ... .. . ...
ROW 18 : E-3 13 6 ... ... ... : E-4 00 8 ... ... ... ... : F-2 12 . ... : ... .. . ... ... : ... .. . ...
ROW 19 : C#3 13 3 ... ... ... : ... .. . ... ... ... ... : ... .. . ... : ... .. . ... ... : ... .. . ...
ROW 1A : D-3 13 6 ... ... ... : ... .. . ... ... ... ... : --- .. . ... : ... .. . ... ... : ... .. . ...
ROW 1B : E-3 13 3 ... ... ... : ... .. . ... ... ... ... : ... .. . ... : ... .. . ... ... : ... .. . ...
ROW 1C : E-3 13 6 ... ... ... : ... .. . ... ... 464 ... : G-2 12 . ... : ... .. . ... ... : ... .. . ...
ROW 1D : D-3 13 3 ... ... ... : ... .. . ... ... ... ... : ... .. . ... : ... .. . ... ... : ... .. . ...
ROW 1E : G-3 13 6 ... ... ... : ... .. . ... ... ... ... : --- .. . ... : ... .. . ... ... : ... .. . ...
ROW 1F : E-3 13 3 ... ... ... : ... .. . ... ... ... ... : ... .. . ... : ... .. . ... ... : ... .. . ...
ROW 20 : A-3 13 6 ... ... ... : A-4 00 . ... ... 400 310 : A-1 12 . ... : ... .. . ... ... : ... .. . ...
ROW 21 : G-3 13 3 ... ... ... : ... .. . ... ... ... ... : ... .. . ... : ... .. . ... ... : ... .. . ...
ROW 22 : E-3 13 6 ... ... ... : ... .. . ... ... ... ... : --- .. . ... : ... .. . ... ... : ... .. . ...
ROW 23 : A-3 13 3 ... ... ... : ... .. . ... ... ... ... : ... .. . ... : ... .. . ... ... : ... .. . ...
ROW 24 : G-3 13 6 ... ... ... : ... .. . ... ... 464 ... : A-1 12 . ... : ... .. . ... ... : ... .. . ...
ROW 25 : E-3 13 3 ... ... ... : ... .. . ... ... ... ... : ... .. . ... : ... .. . ... ... : ... .. . ...
ROW 26 : C#3 13 6 ... ... ... : ... .. . ... ... ... ... : --- .. . ... : ... .. . ... ... : ... .. . ...
ROW 27 : G-3 13 3 ... ... ... : ... .. . ... ... ... ... : ... .. . ... : ... .. . ... ... : ... .. . ...
ROW 28 : E-3 13 6 ... ... ... : A#4 00 . ... ... 400 ... : A-2 12 . ... : ... .. . ... ... : ... .. . ...
ROW 29 : G#3 13 3 ... ... ... : ... .. . ... ... ... ... : ... .. . ... : ... .. . ... ... : ... .. . ...
ROW 2A : A-2 13 6 ... ... ... : ... .. . ... ... ... ... : --- .. . ... : ... .. . ... ... : ... .. . ...
ROW 2B : E-3 13 3 ... ... ... : ... .. . ... ... ... ... : ... .. . ... : ... .. . ... ... : ... .. . ...
ROW 2C : C#3 13 6 ... ... ... : ... .. . ... ... 464 ... : A-1 12 . ... : ... .. . ... ... : ... .. . ...
ROW 2D : A-2 13 3 ... ... ... : ... .. . ... ... ... ... : ... .. . ... : ... .. . ... ... : ... .. . ...
ROW 2E : G-2 13 6 ... ... ... : ... .. . ... ... ... ... : --- .. . ... : ... .. . ... ... : ... .. . ...
ROW 2F : C#3 13 3 ... ... ... : ... .. . ... ... ... ... : ... .. . ... : ... .. . ... ... : ... .. . ...
ROW 30 : A-2 13 6 ... ... ... : G-4 00 . ... ... 400 300 : A-1 12 . ... : ... .. . ... ... : ... .. . ...
ROW 31 : G-2 13 3 ... ... ... : ... .. . ... ... ... ... : ... .. . ... : ... .. . ... ... : ... .. . ...
ROW 32 : E-2 13 6 ... ... ... : ... .. . ... ... ... ... : --- .. . ... : ... .. . ... ... : ... .. . ...
ROW 33 : A-2 13 3 ... ... ... : ... .. . ... ... ... ... : ... .. . ... : ... .. . ... ... : ... .. . ...
ROW 34 : G-2 13 6 ... ... ... : A#4 00 . ... ... ... ... : A-2 12 . ... : ... .. . ... ... : ... .. . ...
ROW 35 : E-2 13 3 ... ... ... : ... .. . ... ... ... ... : ... .. . ... : ... .. . ... ... : ... .. . ...
ROW 36 : C#2 13 6 ... ... ... : G-4 00 4 ... ... ... ... : --- .. . ... : ... .. . ... ... : ... .. . ...
ROW 37 : G-2 13 3 ... ... ... : ... .. . ... ... ... ... : ... .. . ... : ... .. . ... ... : ... .. . ...
ROW 38 : E-2 13 6 ... ... ... : A-4 00 8 ... ... ... ... : A#2 12 . ... : ... .. . ... ... : ... .. . ...
ROW 39 : C#2 13 3 ... ... ... : ... .. . ... ... ... ... : ... .. . ... : ... .. . ... ... : ... .. . ...
ROW 3A : A-1 13 6 ... ... ... : A#4 00 4 ... ... ... ... : --- .. . ... : ... .. . ... ... : ... .. . ...
ROW 3B : E-2 13 3 ... ... ... : ... .. . ... ... ... ... : ... .. . ... : ... .. . ... ... : ... .. . ...
ROW 3C : C#2 13 6 ... ... ... : G-4 00 8 ... ... ... ... : D-3 12 . ... : ... .. . ... ... : ... .. . ...
ROW 3D : A-1 13 3 ... ... ... : ... .. . ... ... ... ... : ... .. . ... : ... .. . ... ... : ... .. . ...
ROW 3E : G-1 13 6 ... ... ... : A-4 00 4 ... ... ... ... : --- .. . ... : ... .. . ... ... : ... .. . ...
ROW 3F : C#2 13 3 ... ... ... : ... .. . ... ... ... ... : ... .. . ... : ... .. . ... ... : ... .. . ...

PATTERN 19
ROW 00 : A-1 13 6 ... ... ... : A-4 00 8 V02 P81 400 340 : C#3 12 . ... : ... .. . ... ... : ... .. . ...
ROW 01 : ... .. . ... ... ... : ... .. . ... ... ... ... : ... .. . ... : ... .. . ... ... : ... .. . ...
ROW 02 : E-1 13 . ... ... ... : ... .. . ... ... ... ... : --- .. . ... : ... .. . ... ... : ... .. . ...
ROW 03 : A-2 13 3 ... ... ... : ... .. . ... ... ... ... : ... .. . ... : ... .. . ... ... : ... .. . ...
ROW 04 : A-1 13 6 ... ... ... : A-3 00 . ... ... ... ... : A-2 12 . ... : ... .. . ... ... : ... .. . ...
ROW 05 : E-2 13 3 ... ... ... : ... .. . ... ... ... ... : ... .. . ... : ... .. . ... ... : ... .. . ...
ROW 06 : C#2 13 6 ... ... ... : A-4 00 4 ... ... ... ... : --- .. . ... : ... .. . ... ... : ... .. . ...
ROW 07 : A-2 13 3 ... ... ... : ... .. . ... ... ... ... : ... .. . ... : ... .. . ... ... : ... .. . ...
ROW 08 : A-1 13 6 ... ... ... : E-5 00 8 ... ... ... ... : C#3 12 . ... : ... .. . ... ... : ... .. . ...
ROW 09 : C#3 13 3 ... ... ... : ... .. . ... ... ... ... : ... .. . ... : ... .. . ... ... : ... .. . ...
ROW 0A : C#2 13 6 ... ... ... : A-3 00 4 ... ... ... ... : --- .. . ... : ... .. . ... ... : ... .. . ...
ROW 0B : A-2 13 3 ... ... ... : ... .. . ... ... ... ... : ... .. . ... : ... .. . ... ... : ... .. . ...
ROW 0C : E-2 13 6 ... ... ... : E-4 00 8 ... ... ... ... : D-3 12 . ... : ... .. . ... ... : ... .. . ...
ROW 0D : C#3 13 3 ... ... ... : ... .. . ... ... ... ... : ... .. . ... : ... .. . ... ... : ... .. . ...
ROW 0E : C#2 13 6 ... ... ... : E-5 00 4 ... ... ... ... : --- .. . ... : ... .. . ... ... : ... .. . ...
ROW 0F : E-3 13 3 ... ... ... : ... .. . ... ... ... ... : ... .. . ... : ... .. . ... ... : ... .. . ...
ROW 10 : E-2 13 6 ... ... ... : C#5 00 8 ... ... ... ... : E-3 12 . ... : ... .. . ... ... : ... .. . ...
ROW 11 : C#3 13 3 ... ... ... : ... .. . ... ... ... ... : ... .. . ... : ... .. . ... ... : ... .. . ...
ROW 12 : A-2 13 6 ... ... ... : E-4 00 4 ... ... ... ... : --- .. . ... : ... .. . ... ... : ... .. . ...
ROW 13 : E-3 13 3 ... ... ... : ... .. . ... ... ... ... : ... .. . ... : ... .. . ... ... : ... .. . ...
ROW 14 : E-2 13 6 ... ... ... : C#4 00 8 ... ... ... ... : D-3 12 . ... : ... .. . ... ... : ... .. . ...
ROW 15 : A-3 13 3 ... ... ... : ... .. . ... ... ... ... : ... .. . ... : ... .. . ... ... : ... .. . ...
ROW 16 : A-2 13 6 ... ... ... : C#5 00 4 ... ... ... ... : --- .. . ... : ... .. . ... ... : ... .. . ...
ROW 17 : E-3 13 3 ... ... ... : ... .. . ... ... ... ... : ... .. . ... : ... .. . ... ... : ... .. . ...
ROW 18 : C#3 13 6 ... ... ... : A-5 00 8 ... ... ... ... : C#3 12 . ... : ... .. . ... ... : ... .. . ...
ROW 19 : A-3 13 3 ... ... ... : ... .. . ... ... ... ... : ... .. . ... : ... .. . ... ... : ... .. . ...
ROW 1A : A-2 13 6 ... ... ... : C#4 00 4 ... ... ... ... : --- .. . ... : ... .. . ... ... : ... .. . ...
ROW 1B : C#4 13 3 ... ... ... : ... .. . ... ... ... ... : ... .. . ... : ... .. . ... ... : ... .. . ...
ROW 1C : C#3 13 6 ... ... ... : A-4 00 8 ... ... ... ... : A-3 12 . ... : ... .. . ... ... : ... .. . ...
ROW 1D : A-3 13 3 ... ... ... : ... .. . ... ... ... ... : ... .. . ... : ... .. . ... ... : ... .. . ...
ROW 1E : E-3 13 6 ... ... ... : ... .. . ... ... ... ... : --- .. . ... : ... .. . ... ... : ... .. . ...
ROW 1F : C#4 13 3 ... ... ... : ... .. . ... ... ... ... : ... .. . ... : ... .. . ... ... : ... .. . ...
ROW 20 : C#3 13 6 ... ... ... : C#4 00 . ... ... ... ... : A-2 12 . ... : ... .. . ... ... : ... .. . ...
ROW 21 : E-4 13 3 ... ... ... : ... .. . ... ... ... ... : ... .. . ... : ... .. . ... ... : ... .. . ...
ROW 22 : E-3 13 6 ... ... ... : ... .. . ... ... ... ... : --- .. . ... : ... .. . ... ... : ... .. . ...
ROW 23 : C#4 13 3 ... ... ... : ... .. . ... ... ... ... : ... .. . ... : ... .. . ... ... : ... .. . ...
ROW 24 : A-3 13 6 ... ... ... : ... .. . ... ... 464 ... : ... .. . ... : ... .. . ... ... : ... .. . ...
ROW 25 : E-4 13 3 ... ... ... : ... .. . ... ... ... ... : ... .. . ... : ... .. . ... ... : ... .. . ...
ROW 26 : E-3 13 6 ... ... ... : ... .. . ... ... ... ... : ... .. . ... : ... .. . ... ... : ... .. . ...
ROW 27 : A-4 13 3 ... ... ... : ... .. . ... ... ... ... : ... .. . ... : ... .. . ... ... : ... .. . ...
ROW 28 : A-3 13 6 ... ... ... : ... .. . ... ... ... ... : ... .. . ... : ... .. . ... ... : ... .. . ...
ROW 29 : E-4 13 3 ... ... ... : ... .. . ... ... ... ... : ... .. . ... : ... .. . ... ... : ... .. . ...
ROW 2A : C#4 13 6 ... ... ... : ... .. . ... ... ... ... : ... .. . ... : ... .. . ... ... : ... .. . ...
ROW 2B : A-4 13 3 ... ... ... : ... .. . ... ... ... ... : ... .. . ... : ... .. . ... ... : ... .. . ...
ROW 2C : A-3 13 6 ... ... ... : ... .. . ... ... ... ... : ... .. . ... : ... .. . ... ... : ... .. . ...
ROW 2D : C#5 13 3 ... ... ... : ... .. . ... ... ... ... : ... .. . ... : ... .. . ... ... : ... .. . ...
ROW 2E : C#4 13 6 ... ... ... : ... .. . ... ... ... ... : ... .. . ... : ... .. . ... ... : ... .. . ...
ROW 2F : A-4 13 3 ... ... ... : ... .. . ... ... ... ... : ... .. . ... : ... .. . ... ... : ... .. . ...
ROW 30 : E-4 13 6 ... ... ... : ... .. . ... ... ... ... : ... .. . ... : ... .. . ... ... : ... .. . ...
ROW 31 : C#5 13 3 ... ... ... : ... .. . ... ... ... ... : ... .. . ... : ... .. . ... ... : ... .. . ...
ROW 32 : C#4 13 6 ... ... ... : ... .. . ... ... ... ... : ... .. . ... : ... .. . ... ... : ... .. . ...
ROW 33 : E-5 13 3 ... ... ... : ... .. . ... ... ... ... : ... .. . ... : ... .. . ... ... : ... .. . ...
ROW 34 : E-4 13 6 ... ... ... : ... .. . ... ... ... ... : ... .. . ... : ... .. . ... ... : ... .. . ...
ROW 35 : C#5 13 3 ... ... ... : ... .. . ... ... ... ... : ... .. . ... : ... .. . ... ... : ... .. . ...
ROW 36 : A-4 13 6 ... ... ... : ... .. . ... ... ... ... : ... .. . ... : ... .. . ... ... : ... .. . ...
ROW 37 : E-5 13 3 ... ... ... : ... .. . ... ... ... ... : ... .. . ... : ... .. . ... ... : ... .. . ...
ROW 38 : E-4 13 6 ... ... ... : D-4 00 . ... ... 400 ... : A-1 12 . ... : ... .. . ... ... : ... .. . ...
ROW 39 : A-5 13 3 ... ... ... : ... .. . ... ... ... ... : ... .. . ... : ... .. . ... ... : ... .. . ...
ROW 3A : A-4 13 6 ... ... ... : ... .. . ... ... ... ... : --- .. . ... : ... .. . ... ... : ... .. . ...
ROW 3B : E-5 13 3 ... ... ... : ... .. . ... ... ... ... : ... .. . ... : ... .. . ... ... : ... .. . ...
ROW 3C : C#5 13 6 ... ... ... : E-4 00 . ... ... ... ... : A-1 12 . ... : ... .. . ... ... : ... .. . ...
ROW 3D : A-5 13 3 ... ... ... : ... .. . ... ... ... ... : ... .. . ... : ... .. . ... ... : ... .. . ...
ROW 3E : A-4 13 6 ... ... ... : ... .. . ... ... ... ... : --- .. . ... : ... .. . ... ... : ... .. . ...
ROW 3F : C#6 13 3 ... ... ... : ... .. . ... ... ... ... : ... .. . ... : ... .. . ... ... : ... .. . ...

PATTERN 1A
ROW 00 : F#2 02 5 ... ... ... : F#3 0D 8 ... ... ... 300 : D-2 02 . 200 : ... .. . ... ... : ... .. . ...
ROW 01 : D-2 02 . ... ... ... : ... .. . ... ... ... ... : ... .. . ... : ... .. . ... ... : ... .. . ...
ROW 02 : A-1 02 . ... ... ... : ... .. . ... ... ... ... : ... .. . 210 : ... .. . ... ... : ... .. . ...
ROW 03 : F#1 02 . ... ... ... : ... .. . ... ... ... ... : ... .. . ... : ... .. . ... ... : ... .. . ...
ROW 04 : D-1 02 4 ... ... ... : E-3 0D . ... ... ... ... : D-2 02 . 200 : ... .. . ... ... : ... .. . ...
ROW 05 : F#1 02 . ... ... ... : ... .. . ... ... ... ... : ... .. . ... : ... .. . ... ... : ... .. . ...
ROW 06 : A-1 02 . ... ... ... : F#3 0D . ... ... ... ... : D-3 02 . ... : ... .. . ... ... : ... .. . ...
ROW 07 : D-2 02 . ... ... ... : ... .. . ... ... ... ... : ... .. . ... : ... .. . ... ... : ... .. . ...
ROW 08 : F#2 02 3 ... ... ... : ... .. . ... ... ... ... : --- .. . ... : ... .. . ... ... : ... .. . ...
ROW 09 : A-2 02 . ... ... ... : ... .. . ... ... ... ... : ... .. . ... : ... .. . ... ... : ... .. . ...
ROW 0A : D-3 02 . ... ... ... : A-3 0D . ... ... ... ... : D-2 02 . ... : ... .. . ... ... : ... .. . ...
ROW 0B : A-1 02 . ... ... ... : ... .. . ... ... ... ... : ... .. . ... : ... .. . ... ... : ... .. . ...
ROW 0C : D-2 02 4 ... ... ... : ... .. . ... ... ... ... : --- .. . ... : ... .. . ... ... : ... .. . ...
ROW 0D : F#2 02 . ... ... ... : ... .. . ... ... ... ... : ... .. . ... : ... .. . ... ... : ... .. . ...
ROW 0E : A-2 02 . ... ... ... : ... .. . ... ... ... ... : ... .. . ... : ... .. . ... ... : ... .. . ...
ROW 0F : D-3 02 . ... ... ... : ... .. . ... ... ... ... : ... .. . ... : ... .. . ... ... : ... .. . ...
ROW 10 : F#3 02 5 ... ... ... : D-4 0D . ... ... ... ... : C-2 02 . ... : ... .. . ... ... : ... .. . ...
ROW 11 : A-3 02 . ... ... ... : ... .. . ... ... ... ... : ... .. . ... : ... .. . ... ... : ... .. . ...
ROW 12 : F#2 02 . ... ... ... : ... .. . ... ... ... ... : ... .. . ... : ... .. . ... ... : ... .. . ...
ROW 13 : A-2 02 . ... ... ... : ... .. . ... ... ... ... : ... .. . ... : ... .. . ... ... : ... .. . ...
ROW 14 : D-3 02 4 ... ... ... : ... .. . ... ... ... ... : B-1 02 . ... : ... .. . ... ... : ... .. . ...
ROW 15 : F#3 02 . ... ... ... : ... .. . ... ... ... ... : ... .. . ... : ... .. . ... ... : ... .. . ...
ROW 16 : A-3 02 . ... ... ... : C-4 0D . ... ... ... ... : ... .. . ... : ... .. . ... ... : ... .. . ...
ROW 17 : D-4 02 . ... ... ... : D-4 0D . ... ... ... ... : ... .. . ... : ... .. . ... ... : ... .. . ...
ROW 18 : E-3 02 3 ... ... ... : C-4 0D . ... ... ... ... : A-1 02 . ... : ... .. . ... ... : ... .. . ...
ROW 19 : C-3 02 . ... ... ... : ... .. . ... ... ... ... : ... .. . ... : ... .. . ... ... : ... .. . ...
ROW 1A : G-2 02 . ... ... ... : ... .. . ... ... ... ... : ... .. . 210 : ... .. . ... ... : ... .. . ...
ROW 1B : E-2 02 . ... ... ... : ... .. . ... ... ... ... : ... .. . ... : ... .. . ... ... : ... .. . ...
ROW 1C : G-2 02 4 ... ... ... : B-3 0D . ... ... ... ... : A-1 02 . 200 : ... .. . ... ... : ... .. . ...
ROW 1D : C-3 02 . ... ... ... : ... .. . ... ... ... ... : ... .. . ... : ... .. . ... ... : ... .. . ...
ROW 1E : E-3 02 . ... ... ... : ... .. . ... ... ... ... : A-2 02 . ... : ... .. . ... ... : ... .. . ...
ROW 1F : C-3 02 . ... ... ... : ... .. . ... ... ... ... : ... .. . ... : ... .. . ... ... : ... .. . ...
ROW 20 : E-3 02 5 ... ... ... : C-4 0D . ... ... ... ... : --- .. . ... : ... .. . ... ... : ... .. . ...
ROW 21 : G-3 02 . ... ... ... : ... .. . ... ... ... ... : ... .. . ... : ... .. . ... ... : ... .. . ...
ROW 22 : C-4 02 . ... ... ... : B-3 0D . ... ... ... ... : A-1 02 . ... : ... .. . ... ... : ... .. . ...
ROW 23 : E-4 02 . ... ... ... : ... .. . ... ... ... ... : ... .. . ... : ... .. . ... ... : ... .. . ...
ROW 24 : E-3 02 4 ... ... ... : A-3 0D . ... ... ... ... : --- .. . ... : ... .. . ... ... : ... .. . ...
ROW 25 : G-3 02 . ... ... ... : ... .. . ... ... ... ... : ... .. . ... : ... .. . ... ... : ... .. . ...
ROW 26 : C-4 02 . ... ... ... : ... .. . ... ... ... ... : ... .. . ... : ... .. . ... ... : ... .. . ...
ROW 27 : E-4 02 . ... ... ... : ... .. . ... ... ... ... : ... .. . ... : ... .. . ... ... : ... .. . ...
ROW 28 : G-4 02 3 ... ... ... : ... .. . ... ... ... ... : ... .. . ... : ... .. . ... ... : ... .. . ...
ROW 29 : C-5 02 . ... ... ... : ... .. . ... ... ... ... : ... .. . ... : ... .. . ... ... : ... .. . ...
ROW 2A : C-4 02 . ... ... ... : ... .. . ... ... ... ... : ... .. . ... : ... .. . ... ... : ... .. . ...
ROW 2B : E-4 02 . ... ... ... : ... .. . ... ... ... ... : ... .. . ... : ... .. . ... ... : ... .. . ...
ROW 2C : G-4 02 4 ... ... ... : ... .. . ... ... ... ... : B-1 02 . ... : ... .. . ... ... : ... .. . ...
ROW 2D : C-5 02 . ... ... ... : ... .. . ... ... ... ... : ... .. . ... : ... .. . ... ... : ... .. . ...
ROW 2E : E-5 02 . ... ... ... : B-3 0D . ... ... ... ... : ... .. . ... : ... .. . ... ... : ... .. . ...
ROW 2F : C-5 02 . ... ... ... : ... .. . ... ... ... ... : ... .. . ... : ... .. . ... ... : ... .. . ...
ROW 30 : ... .. . ... ... ... : ... .. . ... ... ... ... : ... .. . ... : ... .. . ... ... : ... .. . ...
ROW 31 : ... .. . ... ... ... : ... .. . ... ... ... ... : ... .. . ... : ... .. . ... ... : ... .. . ...
ROW 32 : ... .. . ... ... ... : ... .. . ... ... ... ... : ... .. . ... : ... .. . ... ... : ... .. . ...
ROW 33 : ... .. . ... ... ... : ... .. . ... ... ... ... : ... .. . ... : ... .. . ... ... : ... .. . ...
ROW 34 : ... .. . ... ... ... : ... .. . ... ... ... ... : ... .. . ... : ... .. . ... ... : ... .. . ...
ROW 35 : ... .. . ... ... ... : ... .. . ... ... ... ... : ... .. . ... : ... .. . ... ... : ... .. . ...
ROW 36 : ... .. . ... ... ... : ... .. . ... ... ... ... : ... .. . ... : ... .. . ... ... : ... .. . ...
ROW 37 : ... .. . ... ... ... : ... .. . ... ... ... ... : ... .. . ... : ... .. . ... ... : ... .. . ...
ROW 38 : ... .. . ... ... ... : ... .. . ... ... ... ... : ... .. . ... : ... .. . ... ... : ... .. . ...
ROW 39 : ... .. . ... ... ... : ... .. . ... ... ... ... : ... .. . ... : ... .. . ... ... : ... .. . ...
ROW 3A : ... .. . ... ... ... : ... .. . ... ... ... ... : ... .. . ... : ... .. . ... ... : ... .. . ...
ROW 3B : ... .. . ... ... ... : ... .. . ... ... ... ... : ... .. . ... : ... .. . ... ... : ... .. . ...
ROW 3C : ... .. . ... ... ... : ... .. . ... ... ... ... : ... .. . ... : ... .. . ... ... : ... .. . ...
ROW 3D : ... .. . ... ... ... : ... .. . ... ... ... ... : ... .. . ... : ... .. . ... ... : ... .. . ...
ROW 3E : ... .. . ... ... ... : ... .. . ... ... ... ... : ... .. . ... : ... .. . ... ... : ... .. . ...
ROW 3F : ... .. . ... ... ... : ... .. . ... ... ... ... : ... .. . ... : ... .. . ... ... : ... .. . ...

PATTERN 1B
ROW 00 : E-3 02 5 ... ... ... : C-4 0D 8 ... ... ... ... : C-2 02 . 200 : ... .. . ... ... : ... .. . ...
ROW 01 : C-3 02 . ... ... ... : ... .. . ... ... ... ... : ... .. . ... : ... .. . ... ... : ... .. . ...
ROW 02 : E-3 02 . ... ... ... : ... .. . ... ... ... ... : ... .. . 210 : ... .. . ... ... : ... .. . ...
ROW 03 : G-3 02 . ... ... ... : ... .. . ... ... ... ... : ... .. . ... : ... .. . ... ... : ... .. . ...
ROW 04 : C-4 02 4 ... ... ... : ... .. . ... ... ... ... : C-2 02 . 200 : ... .. . ... ... : ... .. . ...
ROW 05 : G-4 02 . ... ... ... : ... .. . ... ... ... ... : ... .. . ... : ... .. . ... ... : ... .. . ...
ROW 06 : E-4 02 . ... ... ... : E-4 0D . ... ... ... ... : C-3 02 . ... : ... .. . ... ... : ... .. . ...
ROW 07 : C-4 02 . ... ... ... : ... .. . ... ... ... ... : ... .. . ... : ... .. . ... ... : ... .. . ...
ROW 08 : C-5 02 3 ... ... ... : ... .. . ... ... ... ... : --- .. . ... : ... .. . ... ... : ... .. . ...
ROW 09 : G-4 02 . ... ... ... : ... .. . ... ... ... ... : ... .. . ... : ... .. . ... ... : ... .. . ...
ROW 0A : E-4 02 . ... ... ... : ... .. . ... ... ... ... : C-2 02 . ... : ... .. . ... ... : ... .. . ...
ROW 0B : E-5 02 . ... ... ... : ... .. . ... ... ... ... : ... .. . ... : ... .. . ... ... : ... .. . ...
ROW 0C : C-5 02 4 ... ... ... : C-4 0D . ... ... ... ... : --- .. . ... : ... .. . ... ... : ... .. . ...
ROW 0D : G-4 02 . ... ... ... : ... .. . ... ... ... ... : ... .. . ... : ... .. . ... ... : ... .. . ...
ROW 0E : G-5 02 . ... ... ... : ... .. . ... ... ... ... : ... .. . ... : ... .. . ... ... : ... .. . ...
ROW 0F : E-5 02 . ... ... ... : F#4 0D . ... ... ... ... : ... .. . ... : ... .. . ... ... : ... .. . ...
ROW 10 : C-5 02 5 ... ... ... : G-4 0D . ... ... ... ... : B-2 02 . ... : ... .. . ... ... : ... .. . ...
ROW 11 : C-6 02 . ... ... ... : ... .. . ... ... ... ... : ... .. . ... : ... .. . ... ... : ... .. . ...
ROW 12 : G-5 02 . ... ... ... : ... .. . ... ... ... ... : ... .. . ... : ... .. . ... ... : ... .. . ...
ROW 13 : E-5 02 . ... ... ... : ... .. . ... ... ... ... : ... .. . ... : ... .. . ... ... : ... .. . ...
ROW 14 : C-5 02 4 ... ... ... : A-4 0D . ... ... ... ... : A-2 02 . ... : ... .. . ... ... : ... .. . ...
ROW 15 : G-4 02 . ... ... ... : ... .. . ... ... ... ... : ... .. . ... : ... .. . ... ... : ... .. . ...
ROW 16 : C-5 02 . ... ... ... : ... .. . ... ... ... ... : ... .. . ... : ... .. . ... ... : ... .. . ...
ROW 17 : G-4 02 . ... ... ... : ... .. . ... ... ... ... : ... .. . ... : ... .. . ... ... : ... .. . ...
ROW 18 : G-5 02 3 ... ... ... : B-4 0D . ... ... ... ... : G-1 02 . ... : ... .. . ... ... : ... .. . ...
ROW 19 : B-5 02 . ... ... ... : ... .. . ... ... ... ... : ... .. . ... : ... .. . ... ... : ... .. . ...
ROW 1A : G-5 02 . ... ... ... : A-4 0D . ... ... ... ... : ... .. . 210 : ... .. . ... ... : ... .. . ...
ROW 1B : D-5 02 . ... ... ... : ... .. . ... ... ... ... : ... .. . ... : ... .. . ... ... : ... .. . ...
ROW 1C : B-4 02 4 ... ... ... : B-4 0D . ... ... ... ... : G-1 02 . 200 : ... .. . ... ... : ... .. . ...
ROW 1D : G-5 02 . ... ... ... : ... .. . ... ... ... ... : ... .. . ... : ... .. . ... ... : ... .. . ...
ROW 1E : D-5 02 . ... ... ... : A-4 0D . ... ... ... ... : G-2 02 . ... : ... .. . ... ... : ... .. . ...
ROW 1F : B-4 02 . ... ... ... : ... .. . ... ... ... ... : ... .. . ... : ... .. . ... ... : ... .. . ...
ROW 20 : G-4 02 5 ... ... ... : B-4 0D . ... ... ... ... : --- .. . ... : ... .. . ... ... : ... .. . ...
ROW 21 : D-5 02 . ... ... ... : ... .. . ... ... ... ... : ... .. . ... : ... .. . ... ... : ... .. . ...
ROW 22 : B-4 02 . ... ... ... : A-4 0D . ... ... ... ... : D-2 02 . ... : ... .. . ... ... : ... .. . ...
ROW 23 : G-4 02 . ... ... ... : ... .. . ... ... ... ... : ... .. . ... : ... .. . ... ... : ... .. . ...
ROW 24 : D-4 02 4 ... ... ... : G-4 0D . ... ... ... ... : --- .. . ... : ... .. . ... ... : ... .. . ...
ROW 25 : B-4 02 . ... ... ... : ... .. . ... ... ... ... : ... .. . ... : ... .. . ... ... : ... .. . ...
ROW 26 : G-4 02 . ... ... ... : ... .. . ... ... ... ... : ... .. . ... : ... .. . ... ... : ... .. . ...
ROW 27 : D-4 02 . ... ... ... : ... .. . ... ... ... ... : ... .. . ... : ... .. . ... ... : ... .. . ...
ROW 28 : B-3 02 3 ... ... ... : ... .. . ... ... ... ... : B-2 02 . ... : ... .. . ... ... : ... .. . ...
ROW 29 : G-4 02 . ... ... ... : ... .. . ... ... ... ... : ... .. . ... : ... .. . ... ... : ... .. . ...
ROW 2A : D-4 02 . ... ... ... : ... .. . ... ... ... ... : ... .. . ... : ... .. . ... ... : ... .. . ...
ROW 2B : B-3 02 . ... ... ... : ... .. . ... ... ... ... : ... .. . ... : ... .. . ... ... : ... .. . ...
ROW 2C : G-3 02 4 ... ... ... : ... .. . ... ... ... ... : D-3 02 . ... : ... .. . ... ... : ... .. . ...
ROW 2D : D-4 02 . ... ... ... : ... .. . ... ... ... ... : ... .. . ... : ... .. . ... ... : ... .. . ...
ROW 2E : B-3 02 . ... ... ... : ... .. . ... ... ... ... : ... .. . ... : ... .. . ... ... : ... .. . ...
ROW 2F : G-3 02 . ... ... ... : ... .. . ... ... ... ... : ... .. . ... : ... .. . ... ... : ... .. . ...
ROW 30 : ... .. . ... ... ... : ... .. . ... ... ... ... : ... .. . ... : ... .. . ... ... : ... .. . ...
ROW 31 : ... .. . ... ... ... : ... .. . ... ... ... ... : ... .. . ... : ... .. . ... ... : ... .. . ...
ROW 32 : ... .. . ... ... ... : ... .. . ... ... ... ... : ... .. . ... : ... .. . ... ... : ... .. . ...
ROW 33 : ... .. . ... ... ... : ... .. . ... ... ... ... : ... .. . ... : ... .. . ... ... : ... .. . ...
ROW 34 : ... .. . ... ... ... : ... .. . ... ... ... ... : ... .. . ... : ... .. . ... ... : ... .. . ...
ROW 35 : ... .. . ... ... ... : ... .. . ... ... ... ... : ... .. . ... : ... .. . ... ... : ... .. . ...
ROW 36 : ... .. . ... ... ... : ... .. . ... ... ... ... : ... .. . ... : ... .. . ... ... : ... .. . ...
ROW 37 : ... .. . ... ... ... : ... .. . ... ... ... ... : ... .. . ... : ... .. . ... ... : ... .. . ...
ROW 38 : ... .. . ... ... ... : ... .. . ... ... ... ... : ... .. . ... : ... .. . ... ... : ... .. . ...
ROW 39 : ... .. . ... ... ... : ... .. . ... ... ... ... : ... .. . ... : ... .. . ... ... : ... .. . ...
ROW 3A : ... .. . ... ... ... : ... .. . ... ... ... ... : ... .. . ... : ... .. . ... ... : ... .. . ...
ROW 3B : ... .. . ... ... ... : ... .. . ... ... ... ... : ... .. . ... : ... .. . ... ... : ... .. . ...
ROW 3C : ... .. . ... ... ... : ... .. . ... ... ... ... : ... .. . ... : ... .. . ... ... : ... .. . ...
ROW 3D : ... .. . ... ... ... : ... .. . ... ... ... ... : ... .. . ... : ... .. . ... ... : ... .. . ...
ROW 3E : ... .. . ... ... ... : ... .. . ... ... ... ... : ... .. . ... : ... .. . ... ... : ... .. . ...
ROW 3F : ... .. . ... ... ... : ... .. . ... ... ... ... : ... .. . ... : ... .. . ... ... : ... .. . ...

PATTERN 1C
ROW 00 : G-5 02 5 ... ... ... : F#4 0D 8 ... ... ... ... : ... .. . ... : ... .. . ... ... : ... .. . ...
ROW 01 : D-5 02 . ... ... ... : ... .. . ... ... ... ... : ... .. . ... : ... .. . ... ... : ... .. . ...
ROW 02 : B-4 02 . ... ... ... : ... .. . 210 ... ... ... : ... .. . ... : ... .. . ... ... : ... .. . ...
ROW 03 : G-4 02 . ... ... ... : ... .. . ... ... ... ... : ... .. . ... : ... .. . ... ... : ... .. . ...
ROW 04 : D-5 02 . ... ... ... : ... .. . ... ... ... ... : ... .. . ... : ... .. . ... ... : ... .. . ...
ROW 05 : B-4 02 . ... ... ... : ... .. . ... ... ... ... : ... .. . ... : ... .. . ... ... : ... .. . ...
ROW 06 : G-4 02 . ... ... ... : ... .. . ... ... ... ... : ... .. . ... : ... .. . ... ... : ... .. . ...
ROW 07 : D-4 02 . ... ... ... : ... .. . ... ... ... ... : ... .. . ... : ... .. . ... ... : ... .. . ...
ROW 08 : B-4 02 4 ... ... ... : F#4 0D . 200 ... ... ... : ... .. . ... : ... .. . ... ... : ... .. . ...
ROW 09 : G-4 02 . ... ... ... : ... .. . ... ... ... ... : ... .. . ... : ... .. . ... ... : ... .. . ...
ROW 0A : D-4 02 . ... ... ... : E-4 0D . ... ... ... ... : ... .. . ... : ... .. . ... ... : ... .. . ...
ROW 0B : B-3 02 . ... ... ... : ... .. . ... ... ... ... : ... .. . ... : ... .. . ... ... : ... .. . ...
ROW 0C : G-4 02 3 ... ... ... : D-4 0D . ... ... ... ... : ... .. . ... : ... .. . ... ... : ... .. . ...
ROW 0D : D-4 02 . ... ... ... : ... .. . ... ... ... ... : ... .. . ... : ... .. . ... ... : ... .. . ...
ROW 0E : B-3 02 . ... ... ... : ... .. . ... ... ... ... : ... .. . ... : ... .. . ... ... : ... .. . ...
ROW 0F : G-3 02 . ... ... ... : ... .. . ... ... ... ... : ... .. . ... : ... .. . ... ... : ... .. . ...
ROW 10 : G-4 02 2 ... ... ... : ... .. . ... ... ... ... : ... .. . ... : ... .. . ... ... : ... .. . ...
ROW 11 : D-4 02 . ... ... ... : ... .. . ... ... ... ... : ... .. . ... : ... .. . ... ... : ... .. . ...
ROW 12 : B-3 02 . ... ... ... : F#4 0D . ... ... ... ... : ... .. . ... : ... .. . ... ... : ... .. . ...
ROW 13 : G-3 02 . ... ... ... : ... .. . ... ... ... ... : ... .. . ... : ... .. . ... ... : ... .. . ...
ROW 14 : G-4 02 1 ... ... ... : ... .. . ... ... ... ... : ... .. . ... : ... .. . ... ... : ... .. . ...
ROW 15 : D-4 02 . ... ... ... : ... .. . ... ... ... ... : ... .. . ... : ... .. . ... ... : ... .. . ...
ROW 16 : B-3 02 . ... ... ... : ... .. . ... ... ... ... : ... .. . ... : ... .. . ... ... : ... .. . ...
ROW 17 : G-3 02 . ... ... ... : ... .. . ... ... ... ... : ... .. . ... : ... .. . ... ... : ... .. . ...
ROW 18 : G-4 02 5 ... ... ... : G-4 0D . ... ... ... ... : ... .. . ... : ... .. . ... ... : ... .. . ...
ROW 19 : D-4 02 . ... ... ... : ... .. . ... ... ... ... : ... .. . ... : ... .. . ... ... : ... .. . ...
ROW 1A : B-3 02 . ... ... ... : F#4 0D . ... ... ... ... : ... .. . ... : ... .. . ... ... : ... .. . ...
ROW 1B : G-3 02 . ... ... ... : ... .. . ... ... ... ... : ... .. . ... : ... .. . ... ... : ... .. . ...
ROW 1C : G-4 02 . ... ... ... : G-4 0D . ... ... ... ... : ... .. . ... : ... .. . ... ... : ... .. . ...
ROW 1D : D-4 02 . ... ... ... : ... .. . ... ... ... ... : ... .. . ... : ... .. . ... ... : ... .. . ...
ROW 1E : B-3 02 . ... ... ... : F#4 0D . ... ... ... ... : ... .. . ... : ... .. . ... ... : ... .. . ...
ROW 1F : G-3 02 . ... ... ... : ... .. . ... ... ... ... : ... .. . ... : ... .. . ... ... : ... .. . ...
ROW 20 : G-4 02 4 ... ... ... : B-4 0D . ... ... ... ... : ... .. . ... : ... .. . ... ... : ... .. . ...
ROW 21 : D-4 02 . ... ... ... : ... .. . ... ... ... ... : ... .. . ... : ... .. . ... ... : ... .. . ...
ROW 22 : B-3 02 . ... ... ... : A-4 0D . ... ... ... ... : ... .. . ... : ... .. . ... ... : ... .. . ...
ROW 23 : G-3 02 . ... ... ... : ... .. . ... ... ... ... : ... .. . ... : ... .. . ... ... : ... .. . ...
ROW 24 : G-4 02 3 ... ... ... : G-4 0D . ... ... ... ... : ... .. . ... : ... .. . ... ... : ... .. . ...
ROW 25 : D-4 02 . ... ... ... : ... .. . ... ... ... ... : ... .. . ... : ... .. . ... ... : ... .. . ...
ROW 26 : B-3 02 . ... ... ... : ... .. . ... ... ... ... : ... .. . ... : ... .. . ... ... : ... .. . ...
ROW 27 : G-3 02 . ... ... ... : ... .. . ... ... ... ... : ... .. . ... : ... .. . ... ... : ... .. . ...
ROW 28 : G-4 02 2 ... ... ... : ... .. . ... ... ... ... : ... .. . ... : ... .. . ... ... : ... .. . ...
ROW 29 : D-4 02 . ... ... ... : ... .. . ... ... ... ... : ... .. . ... : ... .. . ... ... : ... .. . ...
ROW 2A : B-3 02 . ... ... ... : ... .. . ... ... ... ... : ... .. . ... : ... .. . ... ... : ... .. . ...
ROW 2B : G-3 02 . ... ... ... : ... .. . ... ... ... ... : ... .. . ... : ... .. . ... ... : ... .. . ...
ROW 2C : G-4 02 1 ... ... ... : B-4 0D . ... ... ... ... : ... .. . ... : ... .. . ... ... : ... .. . ...
ROW 2D : D-4 02 . ... ... ... : ... .. . ... ... ... ... : ... .. . ... : ... .. . ... ... : ... .. . ...
ROW 2E : B-3 02 . ... ... ... : ... .. . ... ... ... ... : ... .. . ... : ... .. . ... ... : ... .. . ...
ROW 2F : G-3 02 . ... ... ... : ... .. . ... ... ... ... : ... .. . ... : ... .. . ... ... : ... .. . ...
ROW 30 : ... .. . ... ... ... : ... .. . ... ... ... ... : ... .. . ... : ... .. . ... ... : ... .. . ...
ROW 31 : ... .. . ... ... ... : ... .. . ... ... ... ... : ... .. . ... : ... .. . ... ... : ... .. . ...
ROW 32 : ... .. . ... ... ... : ... .. . ... ... ... ... : ... .. . ... : ... .. . ... ... : ... .. . ...
ROW 33 : ... .. . ... ... ... : ... .. . ... ... ... ... : ... .. . ... : ... .. . ... ... : ... .. . ...
ROW 34 : ... .. . ... ... ... : ... .. . ... ... ... ... : ... .. . ... : ... .. . ... ... : ... .. . ...
ROW 35 : ... .. . ... ... ... : ... .. . ... ... ... ... : ... .. . ... : ... .. . ... ... : ... .. . ...
ROW 36 : ... .. . ... ... ... : ... .. . ... ... ... ... : ... .. . ... : ... .. . ... ... : ... .. . ...
ROW 37 : ... .. . ... ... ... : ... .. . ... ... ... ... : ... .. . ... : ... .. . ... ... : ... .. . ...
ROW 38 : ... .. . ... ... ... : ... .. . ... ... ... ... : ... .. . ... : ... .. . ... ... : ... .. . ...
ROW 39 : ... .. . ... ... ... : ... .. . ... ... ... ... : ... .. . ... : ... .. . ... ... : ... .. . ...
ROW 3A : ... .. . ... ... ... : ... .. . ... ... ... ... : ... .. . ... : ... .. . ... ... : ... .. . ...
ROW 3B : ... .. . ... ... ... : ... .. . ... ... ... ... : ... .. . ... : ... .. . ... ... : ... .. . ...
ROW 3C : ... .. . ... ... ... : ... .. . ... ... ... ... : ... .. . ... : ... .. . ... ... : ... .. . ...
ROW 3D : ... .. . ... ... ... : ... .. . ... ... ... ... : ... .. . ... : ... .. . ... ... : ... .. . ...
ROW 3E : ... .. . ... ... ... : ... .. . ... ... ... ... : ... .. . ... : ... .. . ... ... : ... .. . ...
ROW 3F : ... .. . ... ... ... : ... .. . ... ... ... ... : ... .. . ... : ... .. . ... ... : ... .. . ...

PATTERN 1D
ROW 00 : ... .. . ... ... ... : C-5 0D 8 ... ... ... ... : ... .. . ... : ... .. . ... ... : ... .. . ...
ROW 01 : ... .. . ... ... ... : ... .. . ... ... ... ... : ... .. . ... : ... .. . ... ... : ... .. . ...
ROW 02 : ... .. . ... ... ... : ... .. . ... ... ... ... : ... .. . ... : ... .. . ... ... : ... .. . ...
ROW 03 : ... .. . ... ... ... : ... .. . ... ... ... ... : ... .. . ... : ... .. . ... ... : ... .. . ...
ROW 04 : ... .. . ... ... ... : ... .. . ... ... ... ... : ... .. . ... : ... .. . ... ... : ... .. . ...
ROW 05 : ... .. . ... ... ... : ... .. . ... ... ... ... : ... .. . ... : ... .. . ... ... : ... .. . ...
ROW 06 : ... .. . ... ... ... : ... .. . ... ... ... ... : ... .. . ... : ... .. . ... ... : ... .. . ...
ROW 07 : ... .. . ... ... ... : ... .. . ... ... ... ... : ... .. . ... : ... .. . ... ... : ... .. . ...
ROW 08 : ... .. . ... ... ... : C-5 0D . ... ... ... ... : ... .. . ... : ... .. . ... ... : ... .. . ...
ROW 09 : ... .. . ... ... ... : ... .. . ... ... ... ... : ... .. . ... : ... .. . ... ... : ... .. . ...
ROW 0A : ... .. . ... ... ... : D-5 0D . ... ... ... ... : ... .. . ... : ... .. . ... ... : ... .. . ...
ROW 0B : ... .. . ... ... ... : ... .. . ... ... ... ... : ... .. . ... : ... .. . ... ... : ... .. . ...
ROW 0C : ... .. . ... ... ... : E-5 0D . ... ... ... ... : ... .. . ... : ... .. . ... ... : ... .. . ...
ROW 0D : ... .. . ... ... ... : ... .. . ... ... ... ... : ... .. . ... : ... .. . ... ... : ... .. . ...
ROW 0E : ... .. . ... ... ... : ... .. . ... ... ... ... : ... .. . ... : ... .. . ... ... : ... .. . ...
ROW 0F : ... .. . ... ... ... : ... .. . ... ... ... ... : ... .. . ... : ... .. . ... ... : ... .. . ...
ROW 10 : ... .. . ... ... ... : C-5 0D . ... ... ... ... : ... .. . ... : ... .. . ... ... : ... .. . ...
ROW 11 : ... .. . ... ... ... : ... .. . ... ... ... ... : ... .. . ... : ... .. . ... ... : ... .. . ...
ROW 12 : ... .. . ... ... ... : ... .. . 210 ... ... ... : ... .. . ... : ... .. . ... ... : ... .. . ...
ROW 13 : ... .. . ... ... ... : ... .. . ... ... ... ... : ... .. . ... : ... .. . ... ... : ... .. . ...
ROW 14 : ... .. . ... ... ... : ... .. . ... ... ... ... : ... .. . ... : ... .. . ... ... : ... .. . ...
ROW 15 : ... .. . ... ... ... : ... .. . ... ... ... ... : ... .. . ... : ... .. . ... ... : ... .. . ...
ROW 16 : ... .. . ... ... ... : ... .. . ... ... ... ... : ... .. . ... : ... .. . ... ... : ... .. . ...
ROW 17 : ... .. . ... ... ... : ... .. . ... ... ... ... : ... .. . ... : ... .. . ... ... : ... .. . ...
ROW 18 : ... .. . ... ... ... : G-4 0D 8 200 ... ... ... : ... .. . ... : ... .. . ... ... : ... .. . ...
ROW 19 : ... .. . ... ... ... : A-4 0D . ... ... ... ... : ... .. . ... : ... .. . ... ... : ... .. . ...
ROW 1A : ... .. . ... ... ... : G-4 0D . ... ... ... ... : ... .. . ... : ... .. . ... ... : ... .. . ...
ROW 1B : ... .. . ... ... ... : A-4 0D . ... ... ... ... : ... .. . ... : ... .. . ... ... : ... .. . ...
ROW 1C : ... .. . ... ... ... : G-4 0D 7 ... ... ... ... : ... .. . ... : ... .. . ... ... : ... .. . ...
ROW 1D : ... .. . ... ... ... : A-4 0D . ... ... ... ... : ... .. . ... : ... .. . ... ... : ... .. . ...
ROW 1E : ... .. . ... ... ... : G-4 0D . ... ... ... ... : ... .. . ... : ... .. . ... ... : ... .. . ...
ROW 1F : ... .. . ... ... ... : A-4 0D . ... ... ... ... : ... .. . ... : ... .. . ... ... : ... .. . ...
ROW 20 : ... .. . ... ... ... : G-4 0D 6 ... ... ... ... : ... .. . ... : ... .. . ... ... : ... .. . ...
ROW 21 : ... .. . ... ... ... : A-4 0D . ... ... ... ... : ... .. . ... : ... .. . ... ... : ... .. . ...
ROW 22 : ... .. . ... ... ... : G-4 0D . ... ... ... ... : ... .. . ... : ... .. . ... ... : ... .. . ...
ROW 23 : ... .. . ... ... ... : A-4 0D . ... ... ... ... : ... .. . ... : ... .. . ... ... : ... .. . ...
ROW 24 : ... .. . ... ... ... : G-4 0D . ... ... ... ... : ... .. . ... : ... .. . ... ... : ... .. . ...
ROW 25 : ... .. . ... ... ... : ... .. . ... ... ... ... : ... .. . ... : ... .. . ... ... : ... .. . ...
ROW 26 : ... .. . ... ... ... : ... .. . ... ... ... ... : ... .. . ... : ... .. . ... ... : ... .. . ...
ROW 27 : ... .. . ... ... ... : ... .. . ... ... ... ... : ... .. . ... : ... .. . ... ... : ... .. . ...
ROW 28 : ... .. . ... ... ... : ... .. . ... ... ... ... : ... .. . ... : ... .. . ... ... : ... .. . ...
ROW 29 : ... .. . ... ... ... : ... .. . ... ... ... ... : ... .. . ... : ... .. . ... ... : ... .. . ...
ROW 2A : ... .. . ... ... ... : ... .. . ... ... ... ... : ... .. . ... : ... .. . ... ... : ... .. . ...
ROW 2B : ... .. . ... ... ... : ... .. . ... ... ... ... : ... .. . ... : ... .. . ... ... : ... .. . ...
ROW 2C : ... .. . ... ... ... : G-5 0D 8 ... ... ... ... : ... .. . ... : ... .. . ... ... : ... .. . ...
ROW 2D : ... .. . ... ... ... : ... .. . ... ... ... ... : ... .. . ... : ... .. . ... ... : ... .. . ...
ROW 2E : ... .. . ... ... ... : ... .. . ... ... ... ... : ... .. . ... : ... .. . ... ... : ... .. . ...
ROW 2F : ... .. . ... ... ... : ... .. . ... ... ... ... : ... .. . ... : ... .. . ... ... : ... .. . ...
ROW 30 : ... .. . ... ... ... : ... .. . ... ... ... ... : ... .. . ... : ... .. . ... ... : ... .. . ...
ROW 31 : ... .. . ... ... ... : ... .. . ... ... ... ... : ... .. . ... : ... .. . ... ... : ... .. . ...
ROW 32 : ... .. . ... ... ... : ... .. . ... ... ... ... : ... .. . ... : ... .. . ... ... : ... .. . ...
ROW 33 : ... .. . ... ... ... : ... .. . ... ... ... ... : ... .. . ... : ... .. . ... ... : ... .. . ...
ROW 34 : ... .. . ... ... ... : ... .. . ... ... ... ... : ... .. . ... : ... .. . ... ... : ... .. . ...
ROW 35 : ... .. . ... ... ... : ... .. . ... ... ... ... : ... .. . ... : ... .. . ... ... : ... .. . ...
ROW 36 : ... .. . ... ... ... : ... .. . ... ... ... ... : ... .. . ... : ... .. . ... ... : ... .. . ...
ROW 37 : ... .. . ... ... ... : ... .. . ... ... ... ... : ... .. . ... : ... .. . ... ... : ... .. . ...
ROW 38 : ... .. . ... ... ... : ... .. . ... ... ... ... : ... .. . ... : ... .. . ... ... : ... .. . ...
ROW 39 : ... .. . ... ... ... : ... .. . ... ... ... ... : ... .. . ... : ... .. . ... ... : ... .. . ...
ROW 3A : ... .. . ... ... ... : ... .. . ... ... ... ... : ... .. . ... : ... .. . ... ... : ... .. . ...
ROW 3B : ... .. . ... ... ... : ... .. . ... ... ... ... : ... .. . ... : ... .. . ... ... : ... .. . ...
ROW 3C : ... .. . ... ... ... : ... .. . ... ... ... ... : ... .. . ... : ... .. . ... ... : ... .. . ...
ROW 3D : ... .. . ... ... ... : ... .. . ... ... ... ... : ... .. . ... : ... .. . ... ... : ... .. . ...
ROW 3E : ... .. . ... ... ... : ... .. . ... ... ... ... : ... .. . ... : ... .. . ... ... : ... .. . ...
ROW 3F : ... .. . ... ... ... : ... .. . ... ... ... ... : ... .. . ... : ... .. . ... ... : ... .. . ...

PATTERN 1E
ROW 00 : ... .. . ... ... ... : F#5 0D 8 ... ... ... ... : ... .. . ... : ... .. . ... ... : ... .. . ...
ROW 01 : ... .. . ... ... ... : ... .. . ... ... ... ... : ... .. . ... : ... .. . ... ... : ... .. . ...
ROW 02 : ... .. . ... ... ... : ... .. . ... ... ... ... : ... .. . ... : ... .. . ... ... : ... .. . ...
ROW 03 : ... .. . ... ... ... : ... .. . ... ... ... ... : ... .. . ... : ... .. . ... ... : ... .. . ...
ROW 04 : ... .. . ... ... ... : D-5 0D . ... ... ... ... : ... .. . ... : ... .. . ... ... : ... .. . ...
ROW 05 : ... .. . ... ... ... : ... .. . ... ... ... ... : ... .. . ... : ... .. . ... ... : ... .. . ...
ROW 06 : ... .. . ... ... ... : F#5 00 4 ... ... ... ... : ... .. . ... : ... .. . ... ... : ... .. . ...
ROW 07 : ... .. . ... ... ... : ... .. . ... ... ... ... : ... .. . ... : ... .. . ... ... : ... .. . ...
ROW 08 : ... .. . ... ... ... : A-4 0D 8 ... ... ... ... : ... .. . ... : ... .. . ... ... : ... .. . ...
ROW 09 : ... .. . ... ... ... : ... .. . ... ... ... ... : ... .. . ... : ... .. . ... ... : ... .. . ...
ROW 0A : ... .. . ... ... ... : D-5 00 4 ... ... ... ... : ... .. . ... : ... .. . ... ... : ... .. . ...
ROW 0B : ... .. . ... ... ... : ... .. . ... ... ... ... : ... .. . ... : ... .. . ... ... : ... .. . ...
ROW 0C : ... .. . ... ... ... : G-4 0D 8 ... ... ... ... : ... .. . ... : ... .. . ... ... : ... .. . ...
ROW 0D : ... .. . ... ... ... : ... .. . ... ... ... ... : ... .. . ... : ... .. . ... ... : ... .. . ...
ROW 0E : ... .. . ... ... ... : A-4 00 4 ... ... ... ... : ... .. . ... : ... .. . ... ... : ... .. . ...
ROW 0F : ... .. . ... ... ... : ... .. . ... ... ... ... : ... .. . ... : ... .. . ... ... : ... .. . ...
ROW 10 : ... .. . ... ... ... : F#4 0D 8 ... ... ... ... : ... .. . ... : ... .. . ... ... : ... .. . ...
ROW 11 : ... .. . ... ... ... : ... .. . ... ... ... ... : ... .. . ... : ... .. . ... ... : ... .. . ...
ROW 12 : ... .. . ... ... ... : G-4 00 4 ... ... ... ... : ... .. . ... : ... .. . ... ... : ... .. . ...
ROW 13 : ... .. . ... ... ... : ... .. . ... ... ... ... : ... .. . ... : ... .. . ... ... : ... .. . ...
ROW 14 : ... .. . ... ... ... : D-5 0D 8 ... ... ... ... : ... .. . ... : ... .. . ... ... : ... .. . ...
ROW 15 : ... .. . ... ... ... : ... .. . ... ... ... ... : ... .. . ... : ... .. . ... ... : ... .. . ...
ROW 16 : ... .. . ... ... ... : F#4 00 4 ... ... ... ... : ... .. . ... : ... .. . ... ... : ... .. . ...
ROW 17 : ... .. . ... ... ... : ... .. . ... ... ... ... : ... .. . ... : ... .. . ... ... : ... .. . ...
ROW 18 : ... .. . ... ... ... : C-5 0D 8 ... ... ... ... : ... .. . ... : ... .. . ... ... : ... .. . ...
ROW 19 : ... .. . ... ... ... : ... .. . ... ... ... ... : ... .. . ... : ... .. . ... ... : ... .. . ...
ROW 1A : ... .. . ... ... ... : ... .. . 210 ... ... ... : ... .. . ... : ... .. . ... ... : ... .. . ...
ROW 1B : ... .. . ... ... ... : ... .. . ... ... ... ... : ... .. . ... : ... .. . ... ... : ... .. . ...
ROW 1C : ... .. . ... ... ... : ... .. . ... ... ... ... : ... .. . ... : ... .. . ... ... : ... .. . ...
ROW 1D : ... .. . ... ... ... : ... .. . ... ... ... ... : ... .. . ... : ... .. . ... ... : ... .. . ...
ROW 1E : ... .. . ... ... ... : B-4 0D . 200 ... ... ... : ... .. . ... : ... .. . ... ... : ... .. . ...
ROW 1F : ... .. . ... ... ... : ... .. . ... ... ... ... : ... .. . ... : ... .. . ... ... : ... .. . ...
ROW 20 : ... .. . ... ... ... : C-5 0D . ... ... ... ... : ... .. . ... : ... .. . ... ... : ... .. . ...
ROW 21 : ... .. . ... ... ... : B-4 00 4 ... ... ... ... : ... .. . ... : ... .. . ... ... : ... .. . ...
ROW 22 : ... .. . ... ... ... : B-4 0D 8 ... ... ... ... : ... .. . ... : ... .. . ... ... : ... .. . ...
ROW 23 : ... .. . ... ... ... : C-5 00 4 ... ... ... ... : ... .. . ... : ... .. . ... ... : ... .. . ...
ROW 24 : ... .. . ... ... ... : A-4 0D 8 ... ... ... ... : ... .. . ... : ... .. . ... ... : ... .. . ...
ROW 25 : ... .. . ... ... ... : ... .. . ... ... ... ... : ... .. . ... : ... .. . ... ... : ... .. . ...
ROW 26 : ... .. . ... ... ... : ... .. . ... ... ... ... : ... .. . ... : ... .. . ... ... : ... .. . ...
ROW 27 : ... .. . ... ... ... : ... .. . ... ... ... ... : ... .. . ... : ... .. . ... ... : ... .. . ...
ROW 28 : ... .. . ... ... ... : ... .. . ... ... ... ... : ... .. . ... : ... .. . ... ... : ... .. . ...
ROW 29 : ... .. . ... ... ... : ... .. . ... ... ... ... : ... .. . ... : ... .. . ... ... : ... .. . ...
ROW 2A : ... .. . ... ... ... : ... .. . ... ... ... ... : ... .. . ... : ... .. . ... ... : ... .. . ...
ROW 2B : ... .. . ... ... ... : ... .. . ... ... ... ... : ... .. . ... : ... .. . ... ... : ... .. . ...
ROW 2C : ... .. . ... ... ... : B-4 0D . ... ... ... ... : ... .. . ... : ... .. . ... ... : ... .. . ...
ROW 2D : ... .. . ... ... ... : ... .. . ... ... ... ... : ... .. . ... : ... .. . ... ... : ... .. . ...
ROW 2E : ... .. . ... ... ... : ... .. . ... ... ... ... : ... .. . ... : ... .. . ... ... : ... .. . ...
ROW 2F : ... .. . ... ... ... : ... .. . ... ... ... ... : ... .. . ... : ... .. . ... ... : ... .. . ...
ROW 30 : ... .. . ... ... ... : ... .. . ... ... ... ... : ... .. . ... : ... .. . ... ... : ... .. . ...
ROW 31 : ... .. . ... ... ... : ... .. . ... ... ... ... : ... .. . ... : ... .. . ... ... : ... .. . ...
ROW 32 : ... .. . ... ... ... : ... .. . ... ... ... ... : ... .. . ... : ... .. . ... ... : ... .. . ...
ROW 33 : ... .. . ... ... ... : ... .. . ... ... ... ... : ... .. . ... : ... .. . ... ... : ... .. . ...
ROW 34 : ... .. . ... ... ... : ... .. . ... ... ... ... : ... .. . ... : ... .. . ... ... : ... .. . ...
ROW 35 : ... .. . ... ... ... : ... .. . ... ... ... ... : ... .. . ... : ... .. . ... ... : ... .. . ...
ROW 36 : ... .. . ... ... ... : ... .. . ... ... ... ... : ... .. . ... : ... .. . ... ... : ... .. . ...
ROW 37 : ... .. . ... ... ... : ... .. . ... ... ... ... : ... .. . ... : ... .. . ... ... : ... .. . ...
ROW 38 : ... .. . ... ... ... : ... .. . ... ... ... ... : ... .. . ... : ... .. . ... ... : ... .. . ...
ROW 39 : ... .. . ... ... ... : ... .. . ... ... ... ... : ... .. . ... : ... .. . ... ... : ... .. . ...
ROW 3A : ... .. . ... ... ... : ... .. . ... ... ... ... : ... .. . ... : ... .. . ... ... : ... .. . ...
ROW 3B : ... .. . ... ... ... : ... .. . ... ... ... ... : ... .. . ... : ... .. . ... ... : ... .. . ...
ROW 3C : ... .. . ... ... ... : ... .. . ... ... ... ... : ... .. . ... : ... .. . ... ... : ... .. . ...
ROW 3D : ... .. . ... ... ... : ... .. . ... ... ... ... : ... .. . ... : ... .. . ... ... : ... .. . ...
ROW 3E : ... .. . ... ... ... : ... .. . ... ... ... ... : ... .. . ... : ... .. . ... ... : ... .. . ...
ROW 3F : ... .. . ... ... ... : ... .. . ... ... ... ... : ... .. . ... : ... .. . ... ... : ... .. . ...

PATTERN 1F
ROW 00 : ... .. . ... ... ... : C-5 0D 8 ... ... ... ... : ... .. . ... : ... .. . ... ... : ... .. . ...
ROW 01 : ... .. . ... ... ... : ... .. . ... ... ... ... : ... .. . ... : ... .. . ... ... : ... .. . ...
ROW 02 : ... .. . ... ... ... : ... .. . ... ... ... ... : ... .. . ... : ... .. . ... ... : ... .. . ...
ROW 03 : ... .. . ... ... ... : ... .. . ... ... ... ... : ... .. . ... : ... .. . ... ... : ... .. . ...
ROW 04 : ... .. . ... ... ... : ... .. . ... ... ... ... : ... .. . ... : ... .. . ... ... : ... .. . ...
ROW 05 : ... .. . ... ... ... : ... .. . ... ... ... ... : ... .. . ... : ... .. . ... ... : ... .. . ...
ROW 06 : ... .. . ... ... ... : ... .. . ... ... ... ... : ... .. . ... : ... .. . ... ... : ... .. . ...
ROW 07 : ... .. . ... ... ... : ... .. . ... ... ... ... : ... .. . ... : ... .. . ... ... : ... .. . ...
ROW 08 : ... .. . ... ... ... : C-5 0D . ... ... ... ... : ... .. . ... : ... .. . ... ... : ... .. . ...
ROW 09 : ... .. . ... ... ... : ... .. . ... ... ... ... : ... .. . ... : ... .. . ... ... : ... .. . ...
ROW 0A : ... .. . ... ... ... : D-5 0D . ... ... ... ... : ... .. . ... : ... .. . ... ... : ... .. . ...
ROW 0B : ... .. . ... ... ... : C-5 00 4 ... ... ... ... : ... .. . ... : ... .. . ... ... : ... .. . ...
ROW 0C : ... .. . ... ... ... : E-5 0D 8 ... ... ... ... : ... .. . ... : ... .. . ... ... : ... .. . ...
ROW 0D : ... .. . ... ... ... : ... .. . ... ... ... ... : ... .. . ... : ... .. . ... ... : ... .. . ...
ROW 0E : ... .. . ... ... ... : ... .. . ... ... ... ... : ... .. . ... : ... .. . ... ... : ... .. . ...
ROW 0F : ... .. . ... ... ... : ... .. . ... ... ... ... : ... .. . ... : ... .. . ... ... : ... .. . ...
ROW 10 : ... .. . ... ... ... : C-5 0D . ... ... ... ... : ... .. . ... : ... .. . ... ... : ... .. . ...
ROW 11 : ... .. . ... ... ... : ... .. . ... ... ... ... : ... .. . ... : ... .. . ... ... : ... .. . ...
ROW 12 : ... .. . ... ... ... : ... .. . ... ... ... ... : ... .. . ... : ... .. . ... ... : ... .. . ...
ROW 13 : ... .. . ... ... ... : ... .. . ... ... ... ... : ... .. . ... : ... .. . ... ... : ... .. . ...
ROW 14 : ... .. . ... ... ... : ... .. . ... ... ... ... : ... .. . ... : ... .. . ... ... : ... .. . ...
ROW 15 : ... .. . ... ... ... : ... .. . ... ... ... ... : ... .. . ... : ... .. . ... ... : ... .. . ...
ROW 16 : ... .. . ... ... ... : ... .. . ... ... ... ... : ... .. . ... : ... .. . ... ... : ... .. . ...
ROW 17 : ... .. . ... ... ... : ... .. . ... ... ... ... : ... .. . ... : ... .. . ... ... : ... .. . ...
ROW 18 : ... .. . ... ... ... : D-5 0D . ... ... ... ... : ... .. . ... : ... .. . ... ... : ... .. . ...
ROW 19 : ... .. . ... ... ... : ... .. . ... ... ... ... : ... .. . ... : ... .. . ... ... : ... .. . ...
ROW 1A : ... .. . ... ... ... : E-5 0D . ... ... ... ... : ... .. . ... : ... .. . ... ... : ... .. . ...
ROW 1B : ... .. . ... ... ... : D-5 0D 4 ... ... ... ... : ... .. . ... : ... .. . ... ... : ... .. . ...
ROW 1C : ... .. . ... ... ... : D-5 0D 8 ... ... ... ... : ... .. . ... : ... .. . ... ... : ... .. . ...
ROW 1D : ... .. . ... ... ... : E-5 0D 4 ... ... ... ... : ... .. . ... : ... .. . ... ... : ... .. . ...
ROW 1E : ... .. . ... ... ... : E-5 0D 8 ... ... ... ... : ... .. . ... : ... .. . ... ... : ... .. . ...
ROW 1F : ... .. . ... ... ... : D-5 0D 4 ... ... ... ... : ... .. . ... : ... .. . ... ... : ... .. . ...
ROW 20 : ... .. . ... ... ... : D-5 0D 8 ... ... ... ... : ... .. . ... : ... .. . ... ... : ... .. . ...
ROW 21 : ... .. . ... ... ... : E-5 0D 4 ... ... ... ... : ... .. . ... : ... .. . ... ... : ... .. . ...
ROW 22 : ... .. . ... ... ... : E-5 0D 8 ... ... ... ... : ... .. . ... : ... .. . ... ... : ... .. . ...
ROW 23 : ... .. . ... ... ... : D-5 0D 4 ... ... ... ... : ... .. . ... : ... .. . ... ... : ... .. . ...
ROW 24 : ... .. . ... ... ... : D-5 0D 8 ... ... ... ... : ... .. . ... : ... .. . ... ... : ... .. . ...
ROW 25 : ... .. . ... ... ... : ... .. . ... ... ... ... : ... .. . ... : ... .. . ... ... : ... .. . ...
ROW 26 : ... .. . ... ... ... : ... .. . ... ... ... ... : ... .. . ... : ... .. . ... ... : ... .. . ...
ROW 27 : ... .. . ... ... ... : ... .. . ... ... ... ... : ... .. . ... : ... .. . ... ... : ... .. . ...
ROW 28 : ... .. . ... ... ... : ... .. . ... ... ... ... : ... .. . ... : ... .. . ... ... : ... .. . ...
ROW 29 : ... .. . ... ... ... : ... .. . ... ... ... ... : ... .. . ... : ... .. . ... ... : ... .. . ...
ROW 2A : ... .. . ... ... ... : ... .. . ... ... ... ... : ... .. . ... : ... .. . ... ... : ... .. . ...
ROW 2B : ... .. . ... ... ... : ... .. . ... ... ... ... : ... .. . ... : ... .. . ... ... : ... .. . ...
ROW 2C : ... .. . ... ... ... : A-5 0D . ... ... ... ... : ... .. . ... : ... .. . ... ... : ... .. . ...
ROW 2D : ... .. . ... ... ... : ... .. . ... ... ... ... : ... .. . ... : ... .. . ... ... : ... .. . ...
ROW 2E : ... .. . ... ... ... : ... .. . ... ... ... ... : ... .. . ... : ... .. . ... ... : ... .. . ...
ROW 2F : ... .. . ... ... ... : ... .. . ... ... ... ... : ... .. . ... : ... .. . ... ... : ... .. . ...
ROW 30 : ... .. . ... ... ... : ... .. . ... ... ... ... : ... .. . ... : ... .. . ... ... : ... .. . ...
ROW 31 : ... .. . ... ... ... : ... .. . ... ... ... ... : ... .. . ... : ... .. . ... ... : ... .. . ...
ROW 32 : ... .. . ... ... ... : ... .. . ... ... ... ... : ... .. . ... : ... .. . ... ... : ... .. . ...
ROW 33 : ... .. . ... ... ... : ... .. . ... ... ... ... : ... .. . ... : ... .. . ... ... : ... .. . ...
ROW 34 : ... .. . ... ... ... : ... .. . ... ... ... ... : ... .. . ... : ... .. . ... ... : ... .. . ...
ROW 35 : ... .. . ... ... ... : ... .. . ... ... ... ... : ... .. . ... : ... .. . ... ... : ... .. . ...
ROW 36 : ... .. . ... ... ... : ... .. . ... ... ... ... : ... .. . ... : ... .. . ... ... : ... .. . ...
ROW 37 : ... .. . ... ... ... : ... .. . ... ... ... ... : ... .. . ... : ... .. . ... ... : ... .. . ...
ROW 38 : ... .. . ... ... ... : ... .. . ... ... ... ... : ... .. . ... : ... .. . ... ... : ... .. . ...
ROW 39 : ... .. . ... ... ... : ... .. . ... ... ... ... : ... .. . ... : ... .. . ... ... : ... .. . ...
ROW 3A : ... .. . ... ... ... : ... .. . ... ... ... ... : ... .. . ... : ... .. . ... ... : ... .. . ...
ROW 3B : ... .. . ... ... ... : ... .. . ... ... ... ... : ... .. . ... : ... .. . ... ... : ... .. . ...
ROW 3C : ... .. . ... ... ... : ... .. . ... ... ... ... : ... .. . ... : ... .. . ... ... : ... .. . ...
ROW 3D : ... .. . ... ... ... : ... .. . ... ... ... ... : ... .. . ... : ... .. . ... ... : ... .. . ...
ROW 3E : ... .. . ... ... ... : ... .. . ... ... ... ... : ... .. . ... : ... .. . ... ... : ... .. . ...
ROW 3F : ... .. . ... ... ... : ... .. . ... ... ... ... : ... .. . ... : ... .. . ... ... : ... .. . ...

PATTERN 20
ROW 00 : ... .. . ... ... ... : F#4 0D 8 ... ... ... ... : ... .. . ... : ... .. . ... ... : ... .. . ...
ROW 01 : ... .. . ... ... ... : ... .. . ... ... ... ... : ... .. . ... : ... .. . ... ... : ... .. . ...
ROW 02 : ... .. . ... ... ... : ... .. . ... ... ... ... : ... .. . ... : ... .. . ... ... : ... .. . ...
ROW 03 : ... .. . ... ... ... : ... .. . ... ... ... ... : ... .. . ... : ... .. . ... ... : ... .. . ...
ROW 04 : ... .. . ... ... ... : F#3 0D . ... ... ... ... : ... .. . ... : ... .. . ... ... : ... .. . ...
ROW 05 : ... .. . ... ... ... : ... .. . ... ... ... ... : ... .. . ... : ... .. . ... ... : ... .. . ...
ROW 06 : ... .. . ... ... ... : ... .. . ... ... ... ... : ... .. . ... : ... .. . ... ... : ... .. . ...
ROW 07 : ... .. . ... ... ... : ... .. . ... ... ... ... : ... .. . ... : ... .. . ... ... : ... .. . ...
ROW 08 : ... .. . ... ... ... : F#4 0D . ... ... ... ... : ... .. . ... : ... .. . ... ... : ... .. . ...
ROW 09 : ... .. . ... ... ... : ... .. . ... ... ... ... : ... .. . ... : ... .. . ... ... : ... .. . ...
ROW 0A : ... .. . ... ... ... : G-4 0D . ... ... ... ... : ... .. . ... : ... .. . ... ... : ... .. . ...
ROW 0B : ... .. . ... ... ... : F#4 00 4 ... ... ... ... : ... .. . ... : ... .. . ... ... : ... .. . ...
ROW 0C : ... .. . ... ... ... : A-4 0D 8 ... ... ... ... : ... .. . ... : ... .. . ... ... : ... .. . ...
ROW 0D : ... .. . ... ... ... : ... .. . ... ... ... ... : ... .. . ... : ... .. . ... ... : ... .. . ...
ROW 0E : ... .. . ... ... ... : ... .. . ... ... ... ... : ... .. . ... : ... .. . ... ... : ... .. . ...
ROW 0F : ... .. . ... ... ... : ... .. . ... ... ... ... : ... .. . ... : ... .. . ... ... : ... .. . ...
ROW 10 : ... .. . ... ... ... : D-5 0D . ... ... ... ... : ... .. . ... : ... .. . ... ... : ... .. . ...
ROW 11 : ... .. . ... ... ... : ... .. . ... ... ... ... : ... .. . ... : ... .. . ... ... : ... .. . ...
ROW 12 : ... .. . ... ... ... : ... .. . ... ... ... ... : ... .. . ... : ... .. . ... ... : ... .. . ...
ROW 13 : ... .. . ... ... ... : ... .. . ... ... ... ... : ... .. . ... : ... .. . ... ... : ... .. . ...
ROW 14 : ... .. . ... ... ... : A-4 0D . ... ... ... ... : ... .. . ... : ... .. . ... ... : ... .. . ...
ROW 15 : ... .. . ... ... ... : ... .. . ... ... ... ... : ... .. . ... : ... .. . ... ... : ... .. . ...
ROW 16 : ... .. . ... ... ... : ... .. . ... ... ... ... : ... .. . ... : ... .. . ... ... : ... .. . ...
ROW 17 : ... .. . ... ... ... : ... .. . ... ... ... ... : ... .. . ... : ... .. . ... ... : ... .. . ...
ROW 18 : ... .. . ... ... ... : C-5 0D . ... ... ... ... : ... .. . ... : ... .. . ... ... : ... .. . ...
ROW 19 : ... .. . ... ... ... : ... .. . ... ... ... ... : ... .. . ... : ... .. . ... ... : ... .. . ...
ROW 1A : ... .. . ... ... ... : ... .. . ... ... ... ... : ... .. . ... : ... .. . ... ... : ... .. . ...
ROW 1B : ... .. . ... ... ... : ... .. . ... ... ... ... : ... .. . ... : ... .. . ... ... : ... .. . ...
ROW 1C : ... .. . ... ... ... : ... .. . ... ... ... ... : ... .. . ... : ... .. . ... ... : ... .. . ...
ROW 1D : ... .. . ... ... ... : ... .. . ... ... ... ... : ... .. . ... : ... .. . ... ... : ... .. . ...
ROW 1E : ... .. . ... ... ... : B-4 0D . ... ... ... ... : ... .. . ... : ... .. . ... ... : ... .. . ...
ROW 1F : ... .. . ... ... ... : ... .. . ... ... ... ... : ... .. . ... : ... .. . ... ... : ... .. . ...
ROW 20 : ... .. . ... ... ... : C-5 0D . ... ... ... ... : ... .. . ... : ... .. . ... ... : ... .. . ...
ROW 21 : ... .. . ... ... ... : B-4 00 4 ... ... ... ... : ... .. . ... : ... .. . ... ... : ... .. . ...
ROW 22 : ... .. . ... ... ... : B-4 0D 8 ... ... ... ... : ... .. . ... : ... .. . ... ... : ... .. . ...
ROW 23 : ... .. . ... ... ... : C-5 00 4 ... ... ... ... : ... .. . ... : ... .. . ... ... : ... .. . ...
ROW 24 : ... .. . ... ... ... : C-5 0D 8 ... ... ... ... : ... .. . ... : ... .. . ... ... : ... .. . ...
ROW 25 : ... .. . ... ... ... : B-4 00 4 ... ... ... ... : ... .. . ... : ... .. . ... ... : ... .. . ...
ROW 26 : ... .. . ... ... ... : B-4 0D 8 ... ... ... ... : ... .. . ... : ... .. . ... ... : ... .. . ...
ROW 27 : ... .. . ... ... ... : C-5 00 4 ... ... ... ... : ... .. . ... : ... .. . ... ... : ... .. . ...
ROW 28 : ... .. . ... ... ... : A-4 0D 8 ... ... ... ... : ... .. . ... : ... .. . ... ... : ... .. . ...
ROW 29 : ... .. . ... ... ... : B-4 00 4 ... ... ... ... : ... .. . ... : ... .. . ... ... : ... .. . ...
ROW 2A : ... .. . ... ... ... : B-4 0D 8 ... ... ... ... : ... .. . ... : ... .. . ... ... : ... .. . ...
ROW 2B : ... .. . ... ... ... : A-4 00 4 ... ... ... ... : ... .. . ... : ... .. . ... ... : ... .. . ...
ROW 2C : ... .. . ... ... ... : A-4 0D 8 ... ... ... ... : ... .. . ... : ... .. . ... ... : ... .. . ...
ROW 2D : ... .. . ... ... ... : B-4 00 4 ... ... ... ... : ... .. . ... : ... .. . ... ... : ... .. . ...
ROW 2E : ... .. . ... ... ... : G-4 0D 8 ... ... ... ... : ... .. . ... : ... .. . ... ... : ... .. . ...
ROW 2F : ... .. . ... ... ... : A-4 00 4 ... ... ... ... : ... .. . ... : ... .. . ... ... : ... .. . ...
ROW 30 : ... .. . ... ... ... : ... .. . ... ... ... ... : ... .. . ... : ... .. . ... ... : ... .. . ...
ROW 31 : ... .. . ... ... ... : ... .. . ... ... ... ... : ... .. . ... : ... .. . ... ... : ... .. . ...
ROW 32 : ... .. . ... ... ... : ... .. . ... ... ... ... : ... .. . ... : ... .. . ... ... : ... .. . ...
ROW 33 : ... .. . ... ... ... : ... .. . ... ... ... ... : ... .. . ... : ... .. . ... ... : ... .. . ...
ROW 34 : ... .. . ... ... ... : ... .. . ... ... ... ... : ... .. . ... : ... .. . ... ... : ... .. . ...
ROW 35 : ... .. . ... ... ... : ... .. . ... ... ... ... : ... .. . ... : ... .. . ... ... : ... .. . ...
ROW 36 : ... .. . ... ... ... : ... .. . ... ... ... ... : ... .. . ... : ... .. . ... ... : ... .. . ...
ROW 37 : ... .. . ... ... ... : ... .. . ... ... ... ... : ... .. . ... : ... .. . ... ... : ... .. . ...
ROW 38 : ... .. . ... ... ... : ... .. . ... ... ... ... : ... .. . ... : ... .. . ... ... : ... .. . ...
ROW 39 : ... .. . ... ... ... : ... .. . ... ... ... ... : ... .. . ... : ... .. . ... ... : ... .. . ...
ROW 3A : ... .. . ... ... ... : ... .. . ... ... ... ... : ... .. . ... : ... .. . ... ... : ... .. . ...
ROW 3B : ... .. . ... ... ... : ... .. . ... ... ... ... : ... .. . ... : ... .. . ... ... : ... .. . ...
ROW 3C : ... .. . ... ... ... : ... .. . ... ... ... ... : ... .. . ... : ... .. . ... ... : ... .. . ...
ROW 3D : ... .. . ... ... ... : ... .. . ... ... ... ... : ... .. . ... : ... .. . ... ... : ... .. . ...
ROW 3E : ... .. . ... ... ... : ... .. . ... ... ... ... : ... .. . ... : ... .. . ... ... : ... .. . ...
ROW 3F : ... .. . ... ... ... : ... .. . ... ... ... ... : ... .. . ... : ... .. . ... ... : ... .. . ...

PATTERN 21
ROW 00 : ... .. . ... ... ... : C-5 0D 8 ... ... ... ... : ... .. . ... : ... .. . ... ... : ... .. . ...
ROW 01 : ... .. . ... ... ... : ... .. . ... ... ... ... : ... .. . ... : ... .. . ... ... : ... .. . ...
ROW 02 : ... .. . ... ... ... : ... .. . ... ... ... ... : ... .. . ... : ... .. . ... ... : ... .. . ...
ROW 03 : ... .. . ... ... ... : ... .. . ... ... ... ... : ... .. . ... : ... .. . ... ... : ... .. . ...
ROW 04 : ... .. . ... ... ... : D-5 0D . ... ... ... ... : ... .. . ... : ... .. . ... ... : ... .. . ...
ROW 05 : ... .. . ... ... ... : ... .. . ... ... ... ... : ... .. . ... : ... .. . ... ... : ... .. . ...
ROW 06 : ... .. . ... ... ... : C-5 00 4 ... ... ... ... : ... .. . ... : ... .. . ... ... : ... .. . ...
ROW 07 : ... .. . ... ... ... : ... .. . ... ... ... ... : ... .. . ... : ... .. . ... ... : ... .. . ...
ROW 08 : ... .. . ... ... ... : C-5 0D 8 ... ... ... ... : ... .. . ... : ... .. . ... ... : ... .. . ...
ROW 09 : ... .. . ... ... ... : ... .. . ... ... ... ... : ... .. . ... : ... .. . ... ... : ... .. . ...
ROW 0A : ... .. . ... ... ... : D-5 00 4 ... ... ... ... : ... .. . ... : ... .. . ... ... : ... .. . ...
ROW 0B : ... .. . ... ... ... : ... .. . ... ... ... ... : ... .. . ... : ... .. . ... ... : ... .. . ...
ROW 0C : ... .. . ... ... ... : D-5 0D 8 ... ... ... ... : ... .. . ... : ... .. . ... ... : ... .. . ...
ROW 0D : ... .. . ... ... ... : ... .. . ... ... ... ... : ... .. . ... : ... .. . ... ... : ... .. . ...
ROW 0E : ... .. . ... ... ... : C-5 00 4 ... ... ... ... : ... .. . ... : ... .. . ... ... : ... .. . ...
ROW 0F : ... .. . ... ... ... : ... .. . ... ... ... ... : ... .. . ... : ... .. . ... ... : ... .. . ...
ROW 10 : ... .. . ... ... ... : E-5 0D 8 ... ... ... ... : ... .. . ... : ... .. . ... ... : ... .. . ...
ROW 11 : ... .. . ... ... ... : ... .. . ... ... ... ... : ... .. . ... : ... .. . ... ... : ... .. . ...
ROW 12 : ... .. . ... ... ... : D-5 00 4 ... ... ... ... : ... .. . ... : ... .. . ... ... : ... .. . ...
ROW 13 : ... .. . ... ... ... : ... .. . ... ... ... ... : ... .. . ... : ... .. . ... ... : ... .. . ...
ROW 14 : ... .. . ... ... ... : D-5 0D 8 ... ... ... ... : ... .. . ... : ... .. . ... ... : ... .. . ...
ROW 15 : ... .. . ... ... ... : ... .. . ... ... ... ... : ... .. . ... : ... .. . ... ... : ... .. . ...
ROW 16 : ... .. . ... ... ... : ... .. . ... ... ... ... : ... .. . ... : ... .. . ... ... : ... .. . ...
ROW 17 : ... .. . ... ... ... : ... .. . ... ... ... ... : ... .. . ... : ... .. . ... ... : ... .. . ...
ROW 18 : ... .. . ... ... ... : ... .. . ... ... ... ... : ... .. . ... : ... .. . ... ... : ... .. . ...
ROW 19 : ... .. . ... ... ... : ... .. . ... ... ... ... : ... .. . ... : ... .. . ... ... : ... .. . ...
ROW 1A : ... .. . ... ... ... : ... .. . ... ... ... ... : ... .. . ... : ... .. . ... ... : ... .. . ...
ROW 1B : ... .. . ... ... ... : ... .. . ... ... ... ... : ... .. . ... : ... .. . ... ... : ... .. . ...
ROW 1C : ... .. . ... ... ... : G-5 0D . ... ... ... ... : ... .. . ... : ... .. . ... ... : ... .. . ...
ROW 1D : ... .. . ... ... ... : ... .. . ... ... ... ... : ... .. . ... : ... .. . ... ... : ... .. . ...
ROW 1E : ... .. . ... ... ... : ... .. . ... ... ... ... : ... .. . ... : ... .. . ... ... : ... .. . ...
ROW 1F : ... .. . ... ... ... : ... .. . 210 ... ... ... : ... .. . ... : ... .. . ... ... : ... .. . ...
ROW 20 : ... .. . ... ... ... : ... .. . ... ... ... ... : ... .. . ... : ... .. . ... ... : ... .. . ...
ROW 21 : ... .. . ... ... ... : ... .. . ... ... ... ... : ... .. . ... : ... .. . ... ... : ... .. . ...
ROW 22 : ... .. . ... ... ... : --- .. . ... ... ... ... : ... .. . ... : ... .. . ... ... : ... .. . ...
ROW 23 : ... .. . ... ... ... : ... .. . ... ... ... ... : ... .. . ... : ... .. . ... ... : ... .. . ...
ROW 24 : ... .. . ... ... ... : G-5 0D . 200 ... ... ... : ... .. . ... : ... .. . ... ... : ... .. . ...
ROW 25 : ... .. . ... ... ... : ... .. . ... ... ... ... : ... .. . ... : ... .. . ... ... : ... .. . ...
ROW 26 : ... .. . ... ... ... : ... .. . ... ... ... ... : ... .. . ... : ... .. . ... ... : ... .. . ...
ROW 27 : ... .. . ... ... ... : ... .. . ... ... ... ... : ... .. . ... : ... .. . ... ... : ... .. . ...
ROW 28 : ... .. . ... ... ... : F#5 0D . ... ... ... ... : ... .. . ... : ... .. . ... ... : ... .. . ...
ROW 29 : ... .. . ... ... ... : ... .. . ... ... ... ... : ... .. . ... : ... .. . ... ... : ... .. . ...
ROW 2A : ... .. . ... ... ... : F#5 00 4 ... ... ... ... : ... .. . ... : ... .. . ... ... : ... .. . ...
ROW 2B : ... .. . ... ... ... : ... .. . ... ... ... ... : ... .. . ... : ... .. . ... ... : ... .. . ...
ROW 2C : ... .. . ... ... ... : E-5 0D 8 ... ... ... ... : ... .. . ... : ... .. . ... ... : ... .. . ...
ROW 2D : ... .. . ... ... ... : ... .. . ... ... ... ... : ... .. . ... : ... .. . ... ... : ... .. . ...
ROW 2E : ... .. . ... ... ... : E-5 00 4 ... ... ... ... : ... .. . ... : ... .. . ... ... : ... .. . ...
ROW 2F : ... .. . ... ... ... : ... .. . ... ... ... ... : ... .. . ... : ... .. . ... ... : ... .. . ...
ROW 30 : ... .. . ... ... ... : ... .. . ... ... ... ... : ... .. . ... : ... .. . ... ... : ... .. . ...
ROW 31 : ... .. . ... ... ... : ... .. . ... ... ... ... : ... .. . ... : ... .. . ... ... : ... .. . ...
ROW 32 : ... .. . ... ... ... : ... .. . ... ... ... ... : ... .. . ... : ... .. . ... ... : ... .. . ...
ROW 33 : ... .. . ... ... ... : ... .. . ... ... ... ... : ... .. . ... : ... .. . ... ... : ... .. . ...
ROW 34 : ... .. . ... ... ... : ... .. . ... ... ... ... : ... .. . ... : ... .. . ... ... : ... .. . ...
ROW 35 : ... .. . ... ... ... : ... .. . ... ... ... ... : ... .. . ... : ... .. . ... ... : ... .. . ...
ROW 36 : ... .. . ... ... ... : ... .. . ... ... ... ... : ... .. . ... : ... .. . ... ... : ... .. . ...
ROW 37 : ... .. . ... ... ... : ... .. . ... ... ... ... : ... .. . ... : ... .. . ... ... : ... .. . ...
ROW 38 : ... .. . ... ... ... : ... .. . ... ... ... ... : ... .. . ... : ... .. . ... ... : ... .. . ...
ROW 39 : ... .. . ... ... ... : ... .. . ... ... ... ... : ... .. . ... : ... .. . ... ... : ... .. . ...
ROW 3A : ... .. . ... ... ... : ... .. . ... ... ... ... : ... .. . ... : ... .. . ... ... : ... .. . ...
ROW 3B : ... .. . ... ... ... : ... .. . ... ... ... ... : ... .. . ... : ... .. . ... ... : ... .. . ...
ROW 3C : ... .. . ... ... ... : ... .. . ... ... ... ... : ... .. . ... : ... .. . ... ... : ... .. . ...
ROW 3D : ... .. . ... ... ... : ... .. . ... ... ... ... : ... .. . ... : ... .. . ... ... : ... .. . ...
ROW 3E : ... .. . ... ... ... : ... .. . ... ... ... ... : ... .. . ... : ... .. . ... ... : ... .. . ...
ROW 3F : ... .. . ... ... ... : ... .. . ... ... ... ... : ... .. . ... : ... .. . ... ... : ... .. . ...

PATTERN 22
ROW 00 : ... .. . ... ... ... : F#3 0D 8 ... ... ... ... : ... .. . ... : ... .. . ... ... : ... .. . ...
ROW 01 : ... .. . ... ... ... : ... .. . ... ... ... ... : ... .. . ... : ... .. . ... ... : ... .. . ...
ROW 02 : ... .. . ... ... ... : ... .. . ... ... ... ... : ... .. . ... : ... .. . ... ... : ... .. . ...
ROW 03 : ... .. . ... ... ... : ... .. . ... ... ... ... : ... .. . ... : ... .. . ... ... : ... .. . ...
ROW 04 : ... .. . ... ... ... : ... .. . 210 ... ... ... : ... .. . ... : ... .. . ... ... : ... .. . ...
ROW 05 : ... .. . ... ... ... : ... .. . ... ... ... ... : ... .. . ... : ... .. . ... ... : ... .. . ...
ROW 06 : ... .. . ... ... ... : --- .. . 200 ... ... ... : ... .. . ... : ... .. . ... ... : ... .. . ...
ROW 07 : ... .. . ... ... ... : ... .. . ... ... ... ... : ... .. . ... : ... .. . ... ... : ... .. . ...
ROW 08 : ... .. . ... ... ... : ... .. . ... ... ... ... : ... .. . ... : ... .. . ... ... : ... .. . ...
ROW 09 : ... .. . ... ... ... : ... .. . ... ... ... ... : ... .. . ... : ... .. . ... ... : ... .. . ...
ROW 0A : ... .. . ... ... ... : ... .. . ... ... ... ... : ... .. . ... : ... .. . ... ... : ... .. . ...
ROW 0B : ... .. . ... ... ... : ... .. . ... ... ... ... : ... .. . ... : ... .. . ... ... : ... .. . ...
ROW 0C : ... .. . ... ... ... : ... .. . ... ... ... ... : ... .. . ... : ... .. . ... ... : ... .. . ...
ROW 0D : ... .. . ... ... ... : ... .. . ... ... ... ... : ... .. . ... : ... .. . ... ... : ... .. . ...
ROW 0E : ... .. . ... ... ... : ... .. . ... ... ... ... : ... .. . ... : ... .. . ... ... : ... .. . ...
ROW 0F : ... .. . ... ... ... : ... .. . ... ... ... ... : ... .. . ... : ... .. . ... ... : ... .. . ...
ROW 10 : ... .. . ... ... ... : F#3 0D 4 ... ... ... ... : ... .. . ... : ... .. . ... ... : ... .. . ...
ROW 11 : ... .. . ... ... ... : ... .. . ... ... ... ... : ... .. . ... : ... .. . ... ... : ... .. . ...
ROW 12 : ... .. . ... ... ... : ... .. . ... ... ... ... : ... .. . ... : ... .. . ... ... : ... .. . ...
ROW 13 : ... .. . ... ... ... : ... .. . ... ... ... ... : ... .. . ... : ... .. . ... ... : ... .. . ...
ROW 14 : ... .. . ... ... ... : ... .. . 210 ... ... ... : ... .. . ... : ... .. . ... ... : ... .. . ...
ROW 15 : ... .. . ... ... ... : ... .. . ... ... ... ... : ... .. . ... : ... .. . ... ... : ... .. . ...
ROW 16 : ... .. . ... ... ... : --- .. . 200 ... ... ... : ... .. . ... : ... .. . ... ... : ... .. . ...
ROW 17 : ... .. . ... ... ... : ... .. . ... ... ... ... : ... .. . ... : ... .. . ... ... : ... .. . ...
ROW 18 : ... .. . ... ... ... : ... .. . ... ... ... ... : ... .. . ... : ... .. . ... ... : ... .. . ...
ROW 19 : ... .. . ... ... ... : ... .. . ... ... ... ... : ... .. . ... : ... .. . ... ... : ... .. . ...
ROW 1A : ... .. . ... ... ... : ... .. . ... ... ... ... : ... .. . ... : ... .. . ... ... : ... .. . ...
ROW 1B : ... .. . ... ... ... : ... .. . ... ... ... ... : ... .. . ... : ... .. . ... ... : ... .. . ...
ROW 1C : ... .. . ... ... ... : ... .. . ... ... ... ... : ... .. . ... : ... .. . ... ... : ... .. . ...
ROW 1D : ... .. . ... ... ... : ... .. . ... ... ... ... : ... .. . ... : ... .. . ... ... : ... .. . ...
ROW 1E : ... .. . ... ... ... : ... .. . ... ... ... ... : ... .. . ... : ... .. . ... ... : ... .. . ...
ROW 1F : ... .. . ... ... ... : ... .. . ... ... ... ... : ... .. . ... : ... .. . ... ... : ... .. . ...
ROW 20 : ... .. . ... ... ... : F#3 0D 2 ... ... ... ... : ... .. . ... : ... .. . ... ... : ... .. . ...
ROW 21 : ... .. . ... ... ... : ... .. . ... ... ... ... : ... .. . ... : ... .. . ... ... : ... .. . ...
ROW 22 : ... .. . ... ... ... : ... .. . ... ... ... ... : ... .. . ... : ... .. . ... ... : ... .. . ...
ROW 23 : ... .. . ... ... ... : ... .. . ... ... ... ... : ... .. . ... : ... .. . ... ... : ... .. . ...
ROW 24 : ... .. . ... ... ... : ... .. . 210 ... ... ... : ... .. . ... : ... .. . ... ... : ... .. . ...
ROW 25 : ... .. . ... ... ... : ... .. . ... ... ... ... : ... .. . ... : ... .. . ... ... : ... .. . ...
ROW 26 : ... .. . ... ... ... : --- .. . 200 ... ... ... : ... .. . ... : ... .. . ... ... : ... .. . ...
ROW 27 : ... .. . ... ... ... : ... .. . ... ... ... ... : ... .. . ... : ... .. . ... ... : ... .. . ...
ROW 28 : ... .. . ... ... ... : ... .. . ... ... ... ... : ... .. . ... : ... .. . ... ... : ... .. . ...
ROW 29 : ... .. . ... ... ... : ... .. . ... ... ... ... : ... .. . ... : ... .. . ... ... : ... .. . ...
ROW 2A : ... .. . ... ... ... : ... .. . ... ... ... ... : ... .. . ... : ... .. . ... ... : ... .. . ...
ROW 2B : ... .. . ... ... ... : ... .. . ... ... ... ... : ... .. . ... : ... .. . ... ... : ... .. . ...
ROW 2C : ... .. . ... ... ... : ... .. . ... ... ... ... : ... .. . ... : ... .. . ... ... : ... .. . ...
ROW 2D : ... .. . ... ... ... : ... .. . ... ... ... ... : ... .. . ... : ... .. . ... ... : ... .. . ...
ROW 2E : ... .. . ... ... ... : ... .. . ... ... ... ... : ... .. . ... : ... .. . ... ... : ... .. . ...
ROW 2F : ... .. . ... ... ... : ... .. . ... ... ... ... : ... .. . ... : ... .. . ... ... : ... .. . ...
ROW 30 : ... .. . ... ... ... : F#3 0D 1 ... ... ... ... : ... .. . ... : ... .. . ... ... : ... .. . ...
ROW 31 : ... .. . ... ... ... : ... .. . ... ... ... ... : ... .. . ... : ... .. . ... ... : ... .. . ...
ROW 32 : ... .. . ... ... ... : ... .. . ... ... ... ... : ... .. . ... : ... .. . ... ... : ... .. . ...
ROW 33 : ... .. . ... ... ... : ... .. . ... ... ... ... : ... .. . ... : ... .. . ... ... : ... .. . ...
ROW 34 : ... .. . ... ... ... : ... .. . 210 ... ... ... : ... .. . ... : ... .. . ... ... : ... .. . ...
ROW 35 : ... .. . ... ... ... : ... .. . ... ... ... ... : ... .. . ... : ... .. . ... ... : ... .. . ...
ROW 36 : ... .. . ... ... ... : --- .. . 200 ... ... ... : ... .. . ... : ... .. . ... ... : ... .. . ...
ROW 37 : ... .. . ... ... ... : ... .. . ... ... ... ... : ... .. . ... : ... .. . ... ... : ... .. . ...
ROW 38 : ... .. . ... ... ... : ... .. . ... ... ... ... : ... .. . ... : ... .. . ... ... : ... .. . ...
ROW 39 : ... .. . ... ... ... : ... .. . ... ... ... ... : ... .. . ... : ... .. . ... ... : ... .. . ...
ROW 3A : ... .. . ... ... ... : ... .. . ... ... ... ... : ... .. . ... : ... .. . ... ... : ... .. . ...
ROW 3B : ... .. . ... ... ... : ... .. . ... ... ... ... : ... .. . ... : ... .. . ... ... : ... .. . ...
ROW 3C : ... .. . ... ... ... : ... .. . ... ... ... ... : ... .. . ... : ... .. . ... ... : ... .. . ...
ROW 3D : ... .. . ... ... ... : ... .. . ... ... ... ... : ... .. . ... : ... .. . ... ... : ... .. . ...
ROW 3E : ... .. . ... ... ... : ... .. . ... ... ... ... : ... .. . ... : ... .. . ... ... : ... .. . ...
ROW 3F : ... .. . ... ... ... : ... .. . ... ... ... ... : ... .. . ... : ... .. . ... ... : ... .. . ...

# End of export
