# FamiTracker text export 0.4.2

# Song information
TITLE           "Pastorale"
AUTHOR          "Nikolai Kapustin"
COPYRIGHT       "cover by gyms (2012)"

# Song comment
COMMENT ""

# Global settings
MACHINE         0
FRAMERATE       64
EXPANSION       0
VIBRATO         1
SPLIT           21

# Macros
MACRO       0   0  -1  -1   0 : 7 6
MACRO       0   1  -1  -1   0 : 9 8
MACRO       0   2  -1  -1   0 : 13 5 10 10 10 8 4 3 3 2 2 1 1 1 1 1 1 1 1 1 1 1 1 1 1 1 0 0 0 0
MACRO       0   3  -1  -1   0 : 11 7 0
MACRO       0   4  -1  -1   0 : 7 0
MACRO       0   5  -1  -1   0 : 7 0 0 8 7 5 4 3 2 1 0
MACRO       0   6  -1  -1   0 : 1 1 1 1 1 1 0
MACRO       0   7  -1  -1   0 : 7 4 4 4 4 4 3 3 3 3 2 2 2 2 1 1 1 1 0
MACRO       0   8  -1  -1   0 : 5 3 2 1 0
MACRO       0   9  -1  -1   0 : 1 1 1 0
MACRO       0  10  -1  -1   0 : 5 6
MACRO       1   0  -1  -1   0 : 12 0
MACRO       1   1   8  -1   0 : 0 0 0 -1 0 1 2 3 4
MACRO       1   2  -1  -1   0 : 0 -2 -6 -10 -12 -14
MACRO       1   3  -1  -1   0 : 0 1 2
MACRO       1   4  -1  -1   0 : 0 4
MACRO       1   5  -1  -1   0 : 0 -1 -2
MACRO       1   6  -1  -1   0 : 12 -12 0
MACRO       2   0  -1  -1   0 : 10 -11 0 0 0 0 0
MACRO       4   0  -1  -1   0 : 2 2 2
MACRO       4   1  -1  -1   0 : 2
MACRO       4   2  -1  -1   0 : 0

# DPCM samples

# Instruments
INST2A03   0     0  -1  -1  -1  -1 "blurp"
INST2A03   1    -1   0  -1  -1  -1 "tri"
INST2A03   2     1  -1  -1  -1   1 "rhythm"
INST2A03   3    -1  -1  -1  -1  -1 "reg tri"
INST2A03   4     0  -1  -1  -1  -1 "blank"
INST2A03   5     2  -1   0  -1  -1 "234234 "
INST2A03   6     5   1  -1  -1  -1 "snare-noise(8)"
INST2A03   7     4  -1  -1  -1  -1 "kick-noise(c)"
INST2A03   8     6   2  -1  -1  -1 "Tri Kick C-3"
INST2A03   9     7   3  -1  -1  -1 "Noise Snare 7-#*"
INST2A03  10     8   4  -1  -1  -1 "Noise Kick 9-#"
INST2A03  11     9   5  -1  -1  -1 "Tri Snare A-3"
INST2A03  12    10   0  -1  -1  -1 "blurp+1"
INST2A03  13     1   0  -1  -1   1 "squank"
INST2A03  14    10   6  -1  -1  -1 "superblurp+1"

# Tracks

TRACK 128   4 160 "New song"
COLUMNS : 3 3 2 1 2

ORDER 00 : 00 00 00 00 00
ORDER 01 : 01 01 01 01 01
ORDER 02 : 02 02 02 02 02
ORDER 03 : 03 03 03 03 03
ORDER 04 : 04 04 04 04 04
ORDER 05 : 05 05 05 05 05
ORDER 06 : 06 06 06 06 06
ORDER 07 : 07 07 07 07 07
ORDER 08 : 08 08 08 08 08
ORDER 09 : 09 09 09 09 09
ORDER 0A : 0A 0A 0A 0A 0A
ORDER 0B : 0B 0B 0B 0B 0B
ORDER 0C : 0C 0C 0C 0C 0C
ORDER 0D : 0D 0D 0D 0D 0D
ORDER 0E : 0E 0E 0E 0E 0E
ORDER 0F : 0F 0F 0F 0F 0F
ORDER 10 : 10 10 10 10 10
ORDER 11 : 11 11 11 11 11
ORDER 12 : 12 12 12 12 12
ORDER 13 : 13 13 13 13 13
ORDER 14 : 14 14 14 14 14
ORDER 15 : 15 15 15 15 15
ORDER 16 : 16 16 16 16 16
ORDER 17 : 17 17 17 17 17
ORDER 18 : 18 18 18 18 18
ORDER 19 : 19 19 19 19 19
ORDER 1A : 1A 1A 1A 1A 1A
ORDER 1B : 1B 1B 1B 1B 1B
ORDER 1C : 1C 1C 1C 1C 1C
ORDER 1D : 1D 1D 1D 1D 1D
ORDER 1E : 1E 1E 1E 1E 1E
ORDER 1F : 1F 1F 1F 1F 1F
ORDER 20 : 20 20 20 20 20
ORDER 21 : 21 21 21 21 21
ORDER 22 : 22 22 22 22 22

PATTERN 00
ROW 00 : ... .. . ... ... ... : F-3 02 4 V02 P80 ... : A#2 01 . P80 ... : ... .. . ... : ... .. . F02 ...
ROW 01 : ... .. . ... ... ... : ... .. . ... ... ... : ... .. . ... ... : ... .. . ... : ... .. . F01 ...
ROW 02 : ... .. . ... ... ... : ... .. 1 ... P7F ... : ... .. . P7F ... : ... .. . ... : ... .. . F02 ...
ROW 03 : ... .. . ... ... ... : ... .. 0 ... ... ... : --- .. . ... ... : ... .. . ... : ... .. . F03 ...
ROW 04 : ... .. . ... ... ... : G-3 02 5 ... P80 ... : ... .. . ... ... : ... .. . ... : ... .. . F02 ...
ROW 05 : ... .. . ... ... ... : ... .. . ... ... ... : ... .. . ... ... : ... .. . ... : ... .. . F01 ...
ROW 06 : ... .. . ... ... ... : ... .. 1 ... P7F ... : ... .. . ... ... : ... .. . ... : ... .. . F02 ...
ROW 07 : ... .. . ... ... ... : ... .. 0 ... ... ... : ... .. . ... ... : ... .. . ... : ... .. . F03 ...
ROW 08 : A#3 00 5 V02 ... P80 : ... .. . ... ... ... : F-3 01 . P80 ... : ... .. . ... : ... .. . F02 ...
ROW 09 : ... .. 6 ... ... ... : ... .. . ... ... ... : ... .. . ... ... : ... .. . ... : ... .. . F01 ...
ROW 0A : ... .. 1 ... ... ... : ... .. . ... ... ... : ... .. . P7F ... : ... .. . ... : ... .. . F02 ...
ROW 0B : ... .. . ... ... P7F : ... .. . ... ... ... : --- .. . ... ... : ... .. . ... : ... .. . F03 ...
ROW 0C : ... .. 0 ... ... ... : F-3 02 5 ... P80 ... : ... .. . ... ... : ... .. . ... : ... .. . F02 ...
ROW 0D : ... .. . ... ... ... : ... .. . ... ... ... : ... .. . ... ... : ... .. . ... : ... .. . F01 ...
ROW 0E : ... .. . ... ... ... : ... .. 1 ... P7F ... : ... .. . ... ... : ... .. . ... : ... .. . F02 ...
ROW 0F : ... .. . ... ... ... : ... .. 0 ... ... ... : ... .. . ... ... : ... .. . ... : ... .. . F03 ...
ROW 10 : ... .. . ... ... ... : G-3 02 6 ... P80 ... : D-4 01 . P80 ... : ... .. . ... : ... .. . F02 ...
ROW 11 : ... .. . ... ... ... : ... .. . ... ... ... : ... .. . ... ... : ... .. . ... : ... .. . F01 ...
ROW 12 : ... .. . ... ... ... : ... .. 1 ... P7F ... : ... .. . P7F ... : ... .. . ... : ... .. . F02 ...
ROW 13 : ... .. . ... ... ... : ... .. 0 ... ... ... : --- .. . ... ... : ... .. . ... : ... .. . F03 ...
ROW 14 : D-4 00 7 V00 ... P80 : ... .. . ... ... ... : ... .. . ... ... : ... .. . ... : ... .. . F02 ...
ROW 15 : ... .. 8 ... ... ... : ... .. . ... ... ... : ... .. . ... ... : ... .. . ... : ... .. . F01 ...
ROW 16 : ... .. 1 ... ... ... : ... .. . ... ... ... : ... .. . ... ... : ... .. . ... : ... .. . F02 ...
ROW 17 : ... .. . ... ... P7F : ... .. . ... ... ... : ... .. . ... ... : ... .. . ... : ... .. . F03 ...
ROW 18 : ... .. 0 ... ... ... : F-3 02 7 ... P80 ... : ... .. . ... ... : ... .. . ... : ... .. . F02 ...
ROW 19 : ... .. . ... ... ... : ... .. . ... ... ... : ... .. . ... ... : ... .. . ... : ... .. . F01 ...
ROW 1A : ... .. . ... ... ... : ... .. 1 ... P7F ... : ... .. . ... ... : ... .. . ... : ... .. . F02 ...
ROW 1B : ... .. . ... ... ... : ... .. 0 ... ... ... : ... .. . ... ... : ... .. . ... : ... .. . F03 ...
ROW 1C : ... .. . ... ... ... : G-3 02 8 ... P80 ... : A#2 01 . P80 ... : ... .. . ... : ... .. . F02 ...
ROW 1D : ... .. . ... ... ... : ... .. 7 ... ... ... : ... .. . ... ... : ... .. . ... : ... .. . F01 ...
ROW 1E : ... .. . ... ... ... : ... .. 1 ... P7F ... : ... .. . P7F ... : ... .. . ... : ... .. . F02 ...
ROW 1F : ... .. . ... ... ... : ... .. 0 ... ... ... : --- .. . ... ... : ... .. . ... : ... .. . F03 ...
ROW 20 : A#3 00 7 V02 ... P80 : ... .. . ... ... ... : G-2 01 . P80 ... : ... .. . ... : ... .. . F02 ...
ROW 21 : C-4 04 . V00 30C ... : ... .. . ... ... ... : ... .. . ... ... : ... .. . ... : ... .. . F01 ...
ROW 22 : ... .. 8 ... ... ... : ... .. . ... ... ... : ... .. . P7F ... : ... .. . ... : ... .. . F02 ...
ROW 23 : ... .. . ... ... ... : ... .. . ... ... ... : --- .. . ... ... : ... .. . ... : ... .. . F03 ...
ROW 24 : ... .. 1 ... ... P7F : F-3 02 6 ... P80 ... : ... .. . ... ... : ... .. . ... : ... .. . F02 ...
ROW 25 : ... .. 0 ... 300 ... : ... .. . ... ... ... : ... .. . ... ... : ... .. . ... : ... .. . F01 ...
ROW 26 : ... .. . ... ... ... : ... .. 1 ... P7F ... : ... .. . ... ... : ... .. . ... : ... .. . F02 ...
ROW 27 : ... .. . ... ... ... : ... .. 0 ... ... ... : ... .. . ... ... : ... .. . ... : ... .. . F03 ...
ROW 28 : ... .. . ... ... ... : G-3 02 4 ... P80 ... : D-3 01 . P80 ... : ... .. . ... : ... .. . F02 ...
ROW 29 : ... .. . ... ... ... : ... .. . ... ... ... : ... .. . ... ... : ... .. . ... : ... .. . F01 ...
ROW 2A : ... .. . ... ... ... : ... .. 1 ... P7F ... : ... .. . P7F ... : ... .. . ... : ... .. . F02 ...
ROW 2B : ... .. . ... ... ... : ... .. 0 ... ... ... : --- .. . ... ... : ... .. . ... : ... .. . F03 ...
ROW 2C : A#3 00 5 V01 ... P80 : ... .. . ... ... ... : ... .. . ... ... : ... .. . ... : ... .. . F02 ...
ROW 2D : ... .. . ... ... ... : ... .. . ... ... ... : ... .. . ... ... : ... .. . ... : ... .. . F01 ...
ROW 2E : ... .. . ... ... ... : ... .. . ... ... ... : ... .. . ... ... : ... .. . ... : ... .. . F02 ...
ROW 2F : ... .. . ... ... ... : ... .. . ... ... ... : ... .. . ... ... : ... .. . ... : ... .. . F03 ...
ROW 30 : ... .. 4 ... ... ... : C-3 02 5 ... P80 ... : A#3 01 . P80 ... : ... .. . ... : ... .. . F02 ...
ROW 31 : ... .. . ... ... ... : ... .. . ... ... ... : ... .. . ... ... : ... .. . ... : ... .. . F01 ...
ROW 32 : ... .. 1 ... 454 ... : ... .. 1 ... P7F ... : ... .. . P7F ... : ... .. . ... : ... .. . F02 ...
ROW 33 : ... .. . ... ... P7F : ... .. 0 ... ... ... : --- .. . ... ... : ... .. . ... : ... .. . F03 ...
ROW 34 : ... .. 0 ... ... ... : D-3 02 6 ... P80 ... : ... .. . ... ... : ... .. . ... : ... .. . F02 ...
ROW 35 : ... .. . ... ... ... : ... .. . ... ... ... : ... .. . ... ... : ... .. . ... : ... .. . F01 ...
ROW 36 : ... .. . ... ... ... : ... .. 1 ... P7F ... : ... .. . ... ... : ... .. . ... : ... .. . F02 ...
ROW 37 : ... .. . ... ... ... : ... .. 0 ... ... ... : ... .. . ... ... : ... .. . ... : ... .. . F03 ...
ROW 38 : ... .. . ... ... ... : F-3 02 4 ... P80 ... : D-3 01 . P80 ... : ... .. . ... : ... .. . F02 ...
ROW 39 : ... .. . ... ... ... : ... .. . ... ... ... : ... .. . ... ... : ... .. . ... : ... .. . F01 ...
ROW 3A : ... .. . ... ... ... : ... .. 1 ... P7F ... : ... .. . P7F ... : ... .. . ... : ... .. . F02 ...
ROW 3B : ... .. . ... ... ... : ... .. 0 ... ... ... : --- .. . ... ... : ... .. . ... : ... .. . F03 ...
ROW 3C : ... .. . ... ... ... : F-3 02 4 ... P80 ... : ... .. . ... ... : ... .. . ... : ... .. . F02 ...
ROW 3D : ... .. . ... ... ... : ... .. . ... ... ... : ... .. . ... ... : ... .. . ... : ... .. . F01 ...
ROW 3E : ... .. . ... ... ... : ... .. 1 ... P7F ... : ... .. . ... ... : ... .. . ... : ... .. . F02 ...
ROW 3F : ... .. . ... ... ... : ... .. 0 ... ... ... : ... .. . ... ... : ... .. . ... : ... .. . F03 ...
ROW 40 : ... .. . ... ... ... : G-3 02 5 ... P80 ... : A#2 01 . P80 ... : ... .. . ... : ... .. . F02 ...
ROW 41 : ... .. . ... ... ... : ... .. . ... ... ... : ... .. . ... ... : ... .. . ... : ... .. . F01 ...
ROW 42 : ... .. . ... ... ... : ... .. 1 ... P7F ... : ... .. . P7F ... : ... .. . ... : ... .. . F02 ...
ROW 43 : ... .. . ... 400 ... : ... .. 0 ... ... ... : --- .. . ... ... : ... .. . ... : ... .. . F03 ...
ROW 44 : D-4 00 6 V02 ... P80 : ... .. . ... ... ... : ... .. . ... ... : ... .. . ... : ... .. . F02 ...
ROW 45 : ... .. 7 ... ... ... : ... .. . ... ... ... : ... .. . ... ... : ... .. . ... : ... .. . F01 ...
ROW 46 : ... .. 1 ... ... ... : ... .. . ... ... ... : ... .. . ... ... : ... .. . ... : ... .. . F02 ...
ROW 47 : ... .. . ... ... P7F : ... .. . ... ... ... : ... .. . ... ... : ... .. . ... : ... .. . F03 ...
ROW 48 : ... .. 0 ... ... ... : F-3 02 5 ... P80 ... : F-3 01 . P80 ... : ... .. . ... : ... .. . F02 ...
ROW 49 : ... .. . ... ... ... : ... .. . ... ... ... : ... .. . ... ... : ... .. . ... : ... .. . F01 ...
ROW 4A : ... .. . ... ... ... : ... .. 1 ... P7F ... : ... .. . P7F ... : ... .. . ... : ... .. . F02 ...
ROW 4B : ... .. . ... ... ... : ... .. 0 ... ... ... : --- .. . ... ... : ... .. . ... : ... .. . F03 ...
ROW 4C : ... .. . ... ... ... : G-3 02 6 ... P80 ... : ... .. . ... ... : ... .. . ... : ... .. . F02 ...
ROW 4D : ... .. . ... ... ... : ... .. 7 ... ... ... : ... .. . ... ... : ... .. . ... : ... .. . F01 ...
ROW 4E : ... .. . ... ... ... : ... .. 1 ... P7F ... : ... .. . ... ... : ... .. . ... : ... .. . F02 ...
ROW 4F : ... .. . ... ... ... : ... .. 0 ... ... ... : ... .. . ... ... : ... .. . ... : ... .. . F03 ...
ROW 50 : A#3 00 7 V02 ... P80 : ... .. . ... ... ... : D-4 01 . P80 ... : ... .. . ... : ... .. . F02 ...
ROW 51 : C-4 04 . V00 30C ... : ... .. . ... ... ... : ... .. . ... ... : ... .. . ... : ... .. . F01 ...
ROW 52 : ... .. 8 ... ... ... : ... .. . ... ... ... : ... .. . P7F ... : ... .. . ... : ... .. . F02 ...
ROW 53 : ... .. . ... ... ... : ... .. . ... ... ... : --- .. . ... ... : ... .. . ... : ... .. . F03 ...
ROW 54 : ... .. 1 ... ... ... : F-3 02 7 ... P80 ... : ... .. . ... ... : ... .. . ... : ... .. . F02 ...
ROW 55 : ... .. . ... 300 P7F : ... .. 8 ... ... ... : ... .. . ... ... : ... .. . ... : ... .. . F01 ...
ROW 56 : ... .. 0 ... ... ... : ... .. 1 ... P7F ... : ... .. . ... ... : ... .. . ... : ... .. . F02 ...
ROW 57 : ... .. . ... ... ... : ... .. 0 ... ... ... : ... .. . ... ... : ... .. . ... : ... .. . F03 ...
ROW 58 : ... .. . ... ... ... : G-3 02 7 ... P80 ... : ... .. . ... ... : ... .. . ... : ... .. . F02 ...
ROW 59 : ... .. . ... ... ... : ... .. 6 ... ... ... : ... .. . ... ... : ... .. . ... : ... .. . F01 ...
ROW 5A : ... .. . ... ... ... : ... .. 1 ... P7F ... : ... .. . ... ... : ... .. . ... : ... .. . F02 ...
ROW 5B : ... .. . ... ... ... : ... .. 0 ... ... ... : ... .. . ... ... : ... .. . ... : ... .. . F03 ...
ROW 5C : A#3 00 5 V01 ... P80 : ... .. . ... ... ... : D-3 01 . P80 ... : ... .. . ... : ... .. . F02 ...
ROW 5D : ... .. . ... ... ... : ... .. . ... ... ... : ... .. . ... ... : ... .. . ... : ... .. . F01 ...
ROW 5E : ... .. . ... ... ... : ... .. . ... ... ... : ... .. . P7F ... : ... .. . ... : ... .. . F02 ...
ROW 5F : ... .. . ... ... ... : ... .. . ... ... ... : --- .. . ... ... : ... .. . ... : ... .. . F03 ...
ROW 60 : ... .. . ... ... ... : C-3 02 5 ... P80 ... : G-2 01 . P80 ... : ... .. . ... : ... .. . F02 ...
ROW 61 : ... .. . ... ... ... : ... .. . ... ... ... : ... .. . ... ... : ... .. . ... : ... .. . F01 ...
ROW 62 : ... .. . ... ... ... : ... .. 1 ... P7F ... : ... .. . ... ... : ... .. . ... : ... .. . F02 ...
ROW 63 : ... .. . ... ... ... : ... .. 0 ... ... ... : ... .. . P7F ... : ... .. . ... : ... .. . F03 ...
ROW 64 : ... .. 4 ... ... ... : F-3 02 6 ... P80 ... : D-3 01 . P80 ... : ... .. . ... : ... .. . F02 ...
ROW 65 : ... .. . ... ... ... : ... .. 5 ... ... ... : ... .. . ... ... : ... .. . ... : ... .. . F01 ...
ROW 66 : ... .. . ... ... ... : ... .. 1 ... P7F ... : ... .. . ... ... : ... .. . ... : ... .. . F02 ...
ROW 67 : ... .. . ... ... ... : ... .. 0 ... ... ... : ... .. . P7F ... : ... .. . ... : ... .. . F03 ...
ROW 68 : ... .. 1 ... ... ... : D-3 02 4 ... P80 ... : F-3 01 . P80 ... : ... .. . ... : ... .. . F02 ...
ROW 69 : ... .. . ... ... ... : ... .. . ... ... ... : ... .. . ... ... : ... .. . ... : ... .. . F01 ...
ROW 6A : ... .. . ... ... ... : ... .. . ... ... ... : ... .. . ... ... : ... .. . ... : ... .. . F02 ...
ROW 6B : ... .. . ... 454 ... : ... .. . ... ... ... : ... .. . P7F ... : ... .. . ... : ... .. . F03 ...
ROW 6C : ... .. . ... ... ... : ... .. . ... ... ... : G-3 01 . P80 ... : ... .. . ... : ... .. . F02 ...
ROW 6D : ... .. . ... ... ... : ... .. . ... ... ... : ... .. . ... ... : ... .. . ... : ... .. . F01 ...
ROW 6E : ... .. . ... ... P7F : ... .. . ... ... ... : ... .. . ... ... : ... .. . ... : ... .. . F02 ...
ROW 6F : ... .. 0 ... ... ... : ... .. . ... ... ... : ... .. . P7F ... : ... .. . ... : ... .. . F03 ...
ROW 70 : ... .. . ... 400 ... : ... .. . ... ... ... : A#3 01 . P80 ... : ... .. . ... : ... .. . F02 ...
ROW 71 : ... .. . ... ... ... : ... .. . ... ... ... : ... .. . ... ... : ... .. . ... : ... .. . F01 ...
ROW 72 : ... .. . ... ... ... : ... .. . ... ... ... : ... .. . ... ... : ... .. . ... : ... .. . F02 ...
ROW 73 : ... .. . ... ... ... : ... .. . ... ... ... : ... .. . P7F ... : ... .. . ... : ... .. . F03 ...
ROW 74 : ... .. . ... ... ... : ... .. 3 ... ... ... : C-4 01 . P80 ... : ... .. . ... : ... .. . F02 ...
ROW 75 : ... .. . ... ... ... : ... .. . ... ... ... : ... .. . ... ... : ... .. . ... : ... .. . F01 ...
ROW 76 : ... .. . ... ... ... : ... .. 1 ... ... ... : ... .. . ... ... : ... .. . ... : ... .. . F02 ...
ROW 77 : ... .. . ... ... ... : ... .. . ... ... ... : ... .. . P7F ... : ... .. . ... : ... .. . F03 ...
ROW 78 : ... .. . ... ... ... : ... .. . 454 ... ... : D-4 01 . P80 ... : ... .. . ... : ... .. . F02 ...
ROW 79 : ... .. . ... ... ... : ... .. . ... ... ... : ... .. . ... ... : ... .. . ... : ... .. . F01 ...
ROW 7A : ... .. . ... ... ... : ... .. . ... P7F ... : ... .. . ... ... : ... .. . ... : ... .. . F02 ...
ROW 7B : ... .. . ... ... ... : ... .. 0 ... ... ... : ... .. . P7F ... : ... .. . ... : ... .. . F03 ...
ROW 7C : ... .. . ... ... ... : ... .. . ... ... ... : G-4 01 . P80 ... : ... .. . ... : ... .. . F02 ...
ROW 7D : ... .. . ... ... ... : ... .. . ... ... ... : ... .. . ... ... : ... .. . ... : ... .. . F01 ...
ROW 7E : ... .. . ... ... ... : ... .. . ... ... ... : ... .. . ... ... : ... .. . ... : ... .. . F02 ...
ROW 7F : ... .. . ... ... ... : ... .. . 400 ... ... : ... .. . P7F ... : ... .. . ... : ... .. . F03 ...

PATTERN 01
ROW 00 : ... .. . ... ... ... : F-3 02 4 V02 P80 ... : A#2 01 . P80 ... : ... .. . ... : ... .. . F02 ...
ROW 01 : ... .. . ... ... ... : ... .. . ... ... ... : ... .. . ... ... : ... .. . ... : ... .. . F01 ...
ROW 02 : ... .. . ... ... ... : ... .. 1 ... P7F ... : ... .. . P7F ... : ... .. . ... : ... .. . F02 ...
ROW 03 : ... .. . ... ... ... : ... .. 0 ... ... ... : --- .. . ... ... : ... .. . ... : ... .. . F03 ...
ROW 04 : ... .. . ... ... ... : G-3 02 5 ... P80 ... : ... .. . ... ... : ... .. . ... : ... .. . F02 ...
ROW 05 : ... .. . ... ... ... : ... .. . ... ... ... : ... .. . ... ... : ... .. . ... : ... .. . F01 ...
ROW 06 : ... .. . ... ... ... : ... .. 1 ... P7F ... : ... .. . ... ... : ... .. . ... : ... .. . F02 ...
ROW 07 : ... .. . ... ... ... : ... .. 0 ... ... ... : ... .. . ... ... : ... .. . ... : ... .. . F03 ...
ROW 08 : A#3 00 5 V02 ... P80 : ... .. . ... ... ... : F-3 01 . P80 ... : ... .. . ... : ... .. . F02 ...
ROW 09 : ... .. . ... ... ... : ... .. . ... ... ... : ... .. . ... ... : ... .. . ... : ... .. . F01 ...
ROW 0A : ... .. 1 ... ... ... : ... .. . ... ... ... : ... .. . P7F ... : ... .. . ... : ... .. . F02 ...
ROW 0B : ... .. . ... ... P7F : ... .. . ... ... ... : --- .. . ... ... : ... .. . ... : ... .. . F03 ...
ROW 0C : ... .. 0 ... ... ... : F-3 02 5 ... P80 ... : ... .. . ... ... : ... .. . ... : ... .. . F02 ...
ROW 0D : ... .. . ... ... ... : ... .. . ... ... ... : ... .. . ... ... : ... .. . ... : ... .. . F01 ...
ROW 0E : ... .. . ... ... ... : ... .. 1 ... P7F ... : ... .. . ... ... : ... .. . ... : ... .. . F02 ...
ROW 0F : ... .. . ... ... ... : ... .. 0 ... ... ... : ... .. . ... ... : ... .. . ... : ... .. . F03 ...
ROW 10 : ... .. . ... ... ... : G-3 02 6 ... P80 ... : D-4 01 . P80 ... : ... .. . ... : ... .. . F02 ...
ROW 11 : ... .. . ... ... ... : ... .. . ... ... ... : ... .. . ... ... : ... .. . ... : ... .. . F01 ...
ROW 12 : ... .. . ... ... ... : ... .. 1 ... P7F ... : ... .. . P7F ... : ... .. . ... : ... .. . F02 ...
ROW 13 : ... .. . ... ... ... : ... .. 0 ... ... ... : --- .. . ... ... : ... .. . ... : ... .. . F03 ...
ROW 14 : D-4 00 7 V00 ... P80 : ... .. . ... ... ... : ... .. . ... ... : ... .. . ... : ... .. . F02 ...
ROW 15 : ... .. . ... ... ... : ... .. . ... ... ... : ... .. . ... ... : ... .. . ... : ... .. . F01 ...
ROW 16 : ... .. 1 ... ... ... : ... .. . ... ... ... : ... .. . ... ... : ... .. . ... : ... .. . F02 ...
ROW 17 : ... .. . ... ... P7F : ... .. . ... ... ... : ... .. . ... ... : ... .. . ... : ... .. . F03 ...
ROW 18 : ... .. 0 ... ... ... : F-3 02 7 ... P80 ... : ... .. . ... ... : ... .. . ... : ... .. . F02 ...
ROW 19 : ... .. . ... ... ... : ... .. . ... ... ... : ... .. . ... ... : ... .. . ... : ... .. . F01 ...
ROW 1A : ... .. . ... ... ... : ... .. 1 ... P7F ... : ... .. . ... ... : ... .. . ... : ... .. . F02 ...
ROW 1B : ... .. . ... ... ... : ... .. 0 ... ... ... : ... .. . ... ... : ... .. . ... : ... .. . F03 ...
ROW 1C : ... .. . ... ... ... : G-3 02 8 ... P80 ... : A#2 01 . P80 ... : ... .. . ... : ... .. . F02 ...
ROW 1D : ... .. . ... ... ... : ... .. . ... ... ... : ... .. . ... ... : ... .. . ... : ... .. . F01 ...
ROW 1E : ... .. . ... ... ... : ... .. 1 ... P7F ... : ... .. . P7F ... : ... .. . ... : ... .. . F02 ...
ROW 1F : ... .. . ... ... ... : ... .. 0 ... ... ... : --- .. . ... ... : ... .. . ... : ... .. . F03 ...
ROW 20 : A#3 00 8 V02 ... P80 : ... .. . ... ... ... : G-2 01 . P80 ... : ... .. . ... : ... .. . F02 ...
ROW 21 : C-4 04 . V00 30C ... : ... .. . ... ... ... : ... .. . ... ... : ... .. . ... : ... .. . F01 ...
ROW 22 : ... .. . ... ... ... : ... .. . ... ... ... : ... .. . P7F ... : ... .. . ... : ... .. . F02 ...
ROW 23 : ... .. . ... ... ... : ... .. . ... ... ... : --- .. . ... ... : ... .. . ... : ... .. . F03 ...
ROW 24 : ... .. 1 ... ... P7F : F-3 02 6 ... P80 ... : ... .. . ... ... : ... .. . ... : ... .. . F02 ...
ROW 25 : ... .. 0 ... 300 ... : ... .. . ... ... ... : ... .. . ... ... : ... .. . ... : ... .. . F01 ...
ROW 26 : ... .. . ... ... ... : ... .. 1 ... P7F ... : ... .. . ... ... : ... .. . ... : ... .. . F02 ...
ROW 27 : ... .. . ... ... ... : ... .. 0 ... ... ... : ... .. . ... ... : ... .. . ... : ... .. . F03 ...
ROW 28 : ... .. . ... ... ... : G-3 02 4 ... P80 ... : D-3 01 . P80 ... : ... .. . ... : ... .. . F02 ...
ROW 29 : ... .. . ... ... ... : ... .. . ... ... ... : ... .. . ... ... : ... .. . ... : ... .. . F01 ...
ROW 2A : ... .. . ... ... ... : ... .. 1 ... P7F ... : ... .. . P7F ... : ... .. . ... : ... .. . F02 ...
ROW 2B : ... .. . ... ... ... : ... .. 0 ... ... ... : --- .. . ... ... : ... .. . ... : ... .. . F03 ...
ROW 2C : A#3 00 5 V01 ... P80 : ... .. . ... ... ... : ... .. . ... ... : ... .. . ... : ... .. . F02 ...
ROW 2D : ... .. . ... ... ... : ... .. . ... ... ... : ... .. . ... ... : ... .. . ... : ... .. . F01 ...
ROW 2E : ... .. . ... ... ... : ... .. . ... ... ... : ... .. . ... ... : ... .. . ... : ... .. . F02 ...
ROW 2F : ... .. . ... ... ... : ... .. . ... ... ... : ... .. . ... ... : ... .. . ... : ... .. . F03 ...
ROW 30 : ... .. 4 ... ... ... : C-3 02 5 ... P80 ... : A#3 01 . P80 ... : ... .. . ... : ... .. . F02 ...
ROW 31 : ... .. . ... ... ... : ... .. . ... ... ... : ... .. . ... ... : ... .. . ... : ... .. . F01 ...
ROW 32 : ... .. 1 ... 454 ... : ... .. 1 ... P7F ... : ... .. . P7F ... : ... .. . ... : ... .. . F02 ...
ROW 33 : ... .. . ... ... P7F : ... .. 0 ... ... ... : --- .. . ... ... : ... .. . ... : ... .. . F03 ...
ROW 34 : ... .. 0 ... ... ... : D-3 02 6 ... P80 ... : ... .. . ... ... : ... .. . ... : ... .. . F02 ...
ROW 35 : ... .. . ... ... ... : ... .. . ... ... ... : ... .. . ... ... : ... .. . ... : ... .. . F01 ...
ROW 36 : ... .. . ... ... ... : ... .. 1 ... P7F ... : ... .. . ... ... : ... .. . ... : ... .. . F02 ...
ROW 37 : ... .. . ... ... ... : ... .. 0 ... ... ... : ... .. . ... ... : ... .. . ... : ... .. . F03 ...
ROW 38 : ... .. . ... ... ... : F-3 02 4 ... P80 ... : D-3 01 . P80 ... : ... .. . ... : ... .. . F02 ...
ROW 39 : ... .. . ... ... ... : ... .. . ... ... ... : ... .. . ... ... : ... .. . ... : ... .. . F01 ...
ROW 3A : ... .. . ... ... ... : ... .. 1 ... P7F ... : ... .. . P7F ... : ... .. . ... : ... .. . F02 ...
ROW 3B : ... .. . ... ... ... : ... .. 0 ... ... ... : --- .. . ... ... : ... .. . ... : ... .. . F03 ...
ROW 3C : ... .. . ... ... ... : F-3 02 4 ... P80 ... : ... .. . ... ... : ... .. . ... : ... .. . F02 ...
ROW 3D : ... .. . ... ... ... : ... .. . ... ... ... : ... .. . ... ... : ... .. . ... : ... .. . F01 ...
ROW 3E : ... .. . ... ... ... : ... .. 1 ... P7F ... : ... .. . ... ... : ... .. . ... : ... .. . F02 ...
ROW 3F : ... .. . ... ... ... : ... .. 0 ... ... ... : ... .. . ... ... : ... .. . ... : ... .. . F03 ...
ROW 40 : ... .. . ... ... ... : G-3 02 5 ... P80 ... : D#2 01 . P80 ... : ... .. . ... : ... .. . F02 ...
ROW 41 : ... .. . ... ... ... : ... .. . ... ... ... : ... .. . ... ... : ... .. . ... : ... .. . F01 ...
ROW 42 : ... .. . ... ... ... : ... .. 1 ... P7F ... : ... .. . P7F ... : ... .. . ... : ... .. . F02 ...
ROW 43 : ... .. . ... 400 ... : ... .. 0 ... ... ... : --- .. . ... ... : ... .. . ... : ... .. . F03 ...
ROW 44 : D-4 00 7 V02 ... P80 : ... .. . ... ... ... : ... .. . ... ... : ... .. . ... : ... .. . F02 ...
ROW 45 : ... .. . ... ... ... : ... .. . ... ... ... : ... .. . ... ... : ... .. . ... : ... .. . F01 ...
ROW 46 : ... .. 1 ... ... ... : ... .. . ... ... ... : ... .. . ... ... : ... .. . ... : ... .. . F02 ...
ROW 47 : ... .. . ... ... P7F : ... .. . ... ... ... : ... .. . ... ... : ... .. . ... : ... .. . F03 ...
ROW 48 : ... .. 0 ... ... ... : F-3 02 5 ... P80 ... : A#2 01 . P80 ... : ... .. . ... : ... .. . F02 ...
ROW 49 : ... .. . ... ... ... : ... .. . ... ... ... : ... .. . ... ... : ... .. . ... : ... .. . F01 ...
ROW 4A : ... .. . ... ... ... : ... .. 1 ... P7F ... : ... .. . P7F ... : ... .. . ... : ... .. . F02 ...
ROW 4B : ... .. . ... ... ... : ... .. 0 ... ... ... : --- .. . ... ... : ... .. . ... : ... .. . F03 ...
ROW 4C : ... .. . ... ... ... : G-3 02 6 ... P80 ... : ... .. . ... ... : ... .. . ... : ... .. . F02 ...
ROW 4D : ... .. . ... ... ... : ... .. . ... ... ... : ... .. . ... ... : ... .. . ... : ... .. . F01 ...
ROW 4E : ... .. . ... ... ... : ... .. 1 ... P7F ... : ... .. . ... ... : ... .. . ... : ... .. . F02 ...
ROW 4F : ... .. . ... ... ... : ... .. 0 ... ... ... : ... .. . ... ... : ... .. . ... : ... .. . F03 ...
ROW 50 : A#3 00 9 V02 ... P80 : D-3 02 7 ... P80 ... : G-3 01 . P80 ... : ... .. . ... : ... .. . F02 ...
ROW 51 : C-4 04 . V00 30C ... : ... .. . ... ... ... : ... .. . ... ... : ... .. . ... : ... .. . F01 ...
ROW 52 : ... .. . ... ... ... : ... .. 1 ... P7F ... : ... .. . P7F ... : ... .. . ... : ... .. . F02 ...
ROW 53 : ... .. . ... ... ... : ... .. 0 ... ... ... : --- .. . ... ... : ... .. . ... : ... .. . F03 ...
ROW 54 : ... .. 1 ... ... P7F : F-3 02 8 ... P80 ... : ... .. . ... ... : ... .. . ... : ... .. . F02 ...
ROW 55 : ... .. 0 ... 300 ... : ... .. . ... ... ... : ... .. . ... ... : ... .. . ... : ... .. . F01 ...
ROW 56 : ... .. . ... ... ... : ... .. 1 ... P7F ... : ... .. . ... ... : ... .. . ... : ... .. . F02 ...
ROW 57 : ... .. . ... ... ... : ... .. 0 ... ... ... : ... .. . ... ... : ... .. . ... : ... .. . F03 ...
ROW 58 : ... .. . ... ... ... : G-3 02 6 ... P80 ... : ... .. . ... ... : ... .. . ... : ... .. . F02 ...
ROW 59 : ... .. . ... ... ... : ... .. . ... ... ... : ... .. . ... ... : ... .. . ... : ... .. . F01 ...
ROW 5A : ... .. . ... ... ... : ... .. 1 ... P7F ... : ... .. . ... ... : ... .. . ... : ... .. . F02 ...
ROW 5B : ... .. . ... ... ... : ... .. 0 ... ... ... : ... .. . ... ... : ... .. . ... : ... .. . F03 ...
ROW 5C : A#3 00 6 V01 ... P80 : D#3 02 4 ... P80 ... : F-2 01 . P80 ... : ... .. . ... : ... .. . F02 ...
ROW 5D : ... .. . ... ... ... : ... .. . ... ... ... : ... .. . ... ... : ... .. . ... : ... .. . F01 ...
ROW 5E : ... .. . ... ... ... : ... .. . ... ... ... : ... .. . P7F ... : ... .. . ... : ... .. . F02 ...
ROW 5F : ... .. . ... ... ... : ... .. . ... ... ... : ... .. . ... ... : ... .. . ... : ... .. . F03 ...
ROW 60 : ... .. . ... ... ... : ... .. . ... ... ... : C-3 01 . P81 ... : ... .. . ... : ... .. . F02 ...
ROW 61 : ... .. . ... ... ... : ... .. . ... ... ... : ... .. . P7F ... : ... .. . ... : ... .. . F01 ...
ROW 62 : ... .. . ... ... ... : ... .. . ... ... ... : --- .. . ... ... : ... .. . ... : ... .. . F02 ...
ROW 63 : ... .. . ... ... ... : ... .. . ... ... ... : ... .. . ... ... : ... .. . ... : ... .. . F03 ...
ROW 64 : ... .. 4 ... ... ... : ... .. . ... ... ... : G-3 01 . P81 ... : ... .. . ... : ... .. . F02 ...
ROW 65 : ... .. . ... ... ... : ... .. . ... ... ... : ... .. . P7F ... : ... .. . ... : ... .. . F01 ...
ROW 66 : ... .. . ... ... ... : ... .. . ... ... ... : --- .. . ... ... : ... .. . ... : ... .. . F02 ...
ROW 67 : ... .. . ... ... ... : ... .. . ... ... ... : ... .. . ... ... : ... .. . ... : ... .. . F03 ...
ROW 68 : ... .. 1 ... ... ... : ... .. 1 454 ... ... : D#3 01 . P81 ... : ... .. . ... : ... .. . F02 ...
ROW 69 : ... .. . ... ... ... : ... .. . ... ... ... : ... .. . P7F ... : ... .. . ... : ... .. . F01 ...
ROW 6A : ... .. . ... ... ... : ... .. . ... ... ... : --- .. . ... ... : ... .. . ... : ... .. . F02 ...
ROW 6B : ... .. . ... 454 ... : ... .. . ... P7F ... : ... .. . ... ... : ... .. . ... : ... .. . F03 ...
ROW 6C : ... .. . ... ... ... : ... .. 0 ... ... ... : A#3 01 . P81 ... : ... .. . ... : ... .. . F02 ...
ROW 6D : ... .. . ... ... ... : ... .. . ... ... ... : ... .. . P7F ... : ... .. . ... : ... .. . F01 ...
ROW 6E : ... .. . ... ... P7F : ... .. . ... ... ... : --- .. . ... ... : ... .. . ... : ... .. . F02 ...
ROW 6F : ... .. 0 ... ... ... : ... .. . 400 ... ... : ... .. . ... ... : ... .. . ... : ... .. . F03 ...
ROW 70 : ... .. . ... 400 ... : C-3 02 5 ... P80 ... : G-3 01 . P80 ... : ... .. . ... : ... .. . F02 ...
ROW 71 : ... .. . ... ... ... : ... .. . ... ... ... : ... .. . ... ... : ... .. . ... : ... .. . F01 ...
ROW 72 : ... .. . ... ... ... : ... .. 1 ... P7F ... : ... .. . ... ... : ... .. . ... : ... .. . F02 ...
ROW 73 : ... .. . ... ... ... : ... .. 0 ... ... ... : ... .. . ... ... : ... .. . ... : ... .. . F03 ...
ROW 74 : ... .. . ... ... ... : F-3 02 8 ... P80 ... : ... .. . ... ... : ... .. . ... : ... .. . F02 ...
ROW 75 : ... .. . ... ... ... : ... .. . ... ... ... : ... .. . P7F ... : ... .. . ... : ... .. . F01 ...
ROW 76 : ... .. . ... ... ... : ... .. 1 ... P7F ... : --- .. . ... ... : ... .. . ... : ... .. . F02 ...
ROW 77 : ... .. . ... ... ... : ... .. 0 ... ... ... : ... .. . ... ... : ... .. . ... : ... .. . F03 ...
ROW 78 : ... .. . ... ... ... : G-3 02 6 ... P80 ... : ... .. . ... ... : ... .. . ... : ... .. . F02 ...
ROW 79 : ... .. . ... ... ... : ... .. . ... ... ... : ... .. . ... ... : ... .. . ... : ... .. . F01 ...
ROW 7A : ... .. . ... ... ... : ... .. 1 ... ... ... : ... .. . ... ... : ... .. . ... : ... .. . F02 ...
ROW 7B : ... .. . ... ... ... : ... .. 0 ... ... ... : ... .. . ... ... : ... .. . ... : ... .. . F03 ...
ROW 7C : ... .. . ... ... ... : ... .. . ... ... ... : F-2 01 . P80 ... : ... .. . ... : ... .. . F02 ...
ROW 7D : ... .. . ... ... ... : ... .. . ... ... ... : ... .. . ... ... : ... .. . ... : ... .. . F01 ...
ROW 7E : ... .. . ... ... ... : ... .. . ... ... ... : ... .. . P7F ... : ... .. . ... : ... .. . F02 ...
ROW 7F : ... .. . ... ... ... : ... .. . ... P7F ... : --- .. . ... ... : ... .. . ... : ... .. . F03 ...

PATTERN 02
ROW 00 : ... .. 0 ... 400 ... : F-3 02 6 V02 P80 ... : A#1 01 . P80 ... : ... .. . ... : ... .. . F02 ...
ROW 01 : ... .. . ... ... ... : ... .. . ... ... ... : ... .. . ... ... : ... .. . ... : ... .. . F01 ...
ROW 02 : ... .. . ... ... ... : ... .. 1 ... P7F ... : ... .. . ... ... : ... .. . ... : ... .. . F02 ...
ROW 03 : ... .. . ... ... ... : ... .. 0 ... ... ... : ... .. . P7F ... : ... .. . ... : ... .. . F03 ...
ROW 04 : ... .. . ... ... ... : G-3 02 7 ... P80 ... : --- .. . ... ... : ... .. . ... : ... .. . F02 ...
ROW 05 : ... .. . ... ... ... : ... .. . ... ... ... : ... .. . ... ... : ... .. . ... : ... .. . F01 ...
ROW 06 : ... .. . ... ... ... : F-3 02 1 ... P7F ... : ... .. . ... ... : ... .. . ... : ... .. . F02 ...
ROW 07 : ... .. . ... ... ... : ... .. 0 ... ... ... : ... .. . ... ... : ... .. . ... : ... .. . F03 ...
ROW 08 : F-4 00 8 V01 ... P80 : D-4 02 8 ... P80 ... : A#2 01 . P80 ... : ... .. . ... : ... .. . F02 ...
ROW 09 : ... .. . ... ... ... : ... .. . ... ... ... : ... .. . ... ... : ... .. . ... : ... .. . F01 ...
ROW 0A : ... .. . ... ... ... : G-3 02 1 ... P7F ... : ... .. . ... ... : ... .. . ... : ... .. . F02 ...
ROW 0B : ... .. 1 ... ... ... : ... .. 0 ... ... ... : ... .. . P7F ... : ... .. . ... : ... .. . F03 ...
ROW 0C : ... .. . ... ... ... : F-3 02 7 ... P80 ... : --- .. . ... ... : ... .. . ... : ... .. . F02 ...
ROW 0D : ... .. . ... ... ... : ... .. . ... ... ... : ... .. . ... ... : ... .. . ... : ... .. . F01 ...
ROW 0E : ... .. . ... ... P7F : D-4 02 1 ... P7F ... : ... .. . ... ... : ... .. . ... : ... .. . F02 ...
ROW 0F : ... .. 0 ... ... ... : ... .. 0 ... ... ... : ... .. . ... ... : ... .. . ... : ... .. . F03 ...
ROW 10 : ... .. . ... ... ... : G-3 02 8 ... P80 ... : D-3 01 . P80 ... : ... .. . ... : ... .. . F02 ...
ROW 11 : ... .. . ... ... ... : ... .. . ... ... ... : ... .. . ... ... : ... .. . ... : ... .. . F01 ...
ROW 12 : ... .. . ... ... ... : F-3 02 1 ... P7F ... : ... .. . ... ... : ... .. . ... : ... .. . F02 ...
ROW 13 : ... .. . ... ... ... : ... .. 0 ... ... ... : ... .. . P7F ... : ... .. . ... : ... .. . F03 ...
ROW 14 : D-4 00 A ... ... P80 : A#3 02 9 ... P80 ... : --- .. . ... ... : ... .. . ... : ... .. . F02 ...
ROW 15 : ... .. . ... ... ... : ... .. . ... ... ... : ... .. . ... ... : ... .. . ... : ... .. . F01 ...
ROW 16 : ... .. . ... ... ... : G-3 02 1 ... P7F ... : ... .. . ... ... : ... .. . ... : ... .. . F02 ...
ROW 17 : ... .. 1 ... ... ... : ... .. 0 ... ... ... : ... .. . ... ... : ... .. . ... : ... .. . F03 ...
ROW 18 : ... .. . ... ... ... : F-3 02 A ... P80 ... : ... .. . ... ... : ... .. . ... : ... .. . F02 ...
ROW 19 : ... .. . ... ... ... : ... .. . ... ... ... : ... .. . ... ... : ... .. . ... : ... .. . F01 ...
ROW 1A : ... .. . ... ... P7F : A#3 02 1 ... P7F ... : ... .. . ... ... : ... .. . ... : ... .. . F02 ...
ROW 1B : ... .. 0 ... ... ... : ... .. 0 ... ... ... : ... .. . ... ... : ... .. . ... : ... .. . F03 ...
ROW 1C : ... .. . ... ... ... : G-3 02 B ... P80 ... : D#3 01 . P80 ... : ... .. . ... : ... .. . F02 ...
ROW 1D : ... .. . ... ... ... : ... .. . ... ... ... : ... .. . ... ... : ... .. . ... : ... .. . F01 ...
ROW 1E : ... .. . ... ... ... : F-3 02 1 ... P7F ... : ... .. . P7F ... : ... .. . ... : ... .. . F02 ...
ROW 1F : ... .. . ... ... ... : ... .. 0 ... ... ... : --- .. . ... ... : ... .. . ... : ... .. . F03 ...
ROW 20 : A#3 00 C V02 ... P80 : G#3 02 C ... P80 ... : F-2 01 . P80 ... : ... .. . ... : ... .. . F02 ...
ROW 21 : C-4 04 . V00 30C ... : ... .. . ... ... ... : ... .. . ... ... : ... .. . ... : ... .. . F01 ...
ROW 22 : ... .. . ... ... ... : G-3 02 1 ... P7F ... : ... .. . ... ... : ... .. . ... : ... .. . F02 ...
ROW 23 : ... .. . ... ... ... : ... .. 0 ... ... ... : ... .. . P7F ... : ... .. . ... : ... .. . F03 ...
ROW 24 : ... .. 1 ... ... ... : C-3 02 B ... P80 ... : --- .. . ... ... : ... .. . ... : ... .. . F02 ...
ROW 25 : ... .. . ... ... ... : ... .. . ... ... ... : ... .. . ... ... : ... .. . ... : ... .. . F01 ...
ROW 26 : ... .. . ... ... P7F : G#3 02 1 ... P7F ... : ... .. . ... ... : ... .. . ... : ... .. . F02 ...
ROW 27 : ... .. 0 ... ... ... : ... .. 0 ... ... ... : ... .. . ... ... : ... .. . ... : ... .. . F03 ...
ROW 28 : ... .. . ... ... ... : D#3 02 A ... P80 ... : C-3 01 . P80 ... : ... .. . ... : ... .. . F02 ...
ROW 29 : ... .. . ... ... ... : ... .. . ... ... ... : ... .. . ... ... : ... .. . ... : ... .. . F01 ...
ROW 2A : ... .. . ... ... ... : C-3 02 1 ... P7F ... : ... .. . ... ... : ... .. . ... : ... .. . F02 ...
ROW 2B : ... .. . ... 300 ... : ... .. 0 ... ... ... : ... .. . P7F ... : ... .. . ... : ... .. . F03 ...
ROW 2C : A#3 00 8 V01 ... P80 : G-3 02 8 ... P80 ... : --- .. . ... ... : ... .. . ... : ... .. . F02 ...
ROW 2D : ... .. . ... ... ... : ... .. . ... ... ... : ... .. . ... ... : ... .. . ... : ... .. . F01 ...
ROW 2E : ... .. . ... ... ... : ... .. . ... ... ... : ... .. . ... ... : ... .. . ... : ... .. . F02 ...
ROW 2F : ... .. . ... ... ... : ... .. . ... ... ... : ... .. . ... ... : ... .. . ... : ... .. . F03 ...
ROW 30 : ... .. . ... ... ... : ... .. 1 ... ... ... : A#2 01 . P81 ... : ... .. . ... : ... .. . F02 ...
ROW 31 : ... .. . ... ... ... : ... .. . ... ... ... : ... .. . P7F ... : ... .. . ... : ... .. . F01 ...
ROW 32 : ... .. . ... ... ... : ... .. . 454 ... ... : --- .. . ... ... : ... .. . ... : ... .. . F02 ...
ROW 33 : ... .. . ... ... ... : ... .. . ... ... ... : ... .. . ... ... : ... .. . ... : ... .. . F03 ...
ROW 34 : ... .. 4 ... ... ... : ... .. . ... ... ... : A-3 01 . P81 ... : ... .. . ... : ... .. . F02 ...
ROW 35 : ... .. . ... ... ... : ... .. . ... ... ... : ... .. . P7F ... : ... .. . ... : ... .. . F01 ...
ROW 36 : ... .. . ... ... ... : D#3 02 1 400 P7F ... : --- .. . ... ... : ... .. . ... : ... .. . F02 ...
ROW 37 : ... .. . ... ... ... : ... .. 0 ... ... ... : ... .. . ... ... : ... .. . ... : ... .. . F03 ...
ROW 38 : ... .. 1 ... ... ... : F-3 02 8 ... P80 ... : C-4 01 . P81 ... : ... .. . ... : ... .. . F02 ...
ROW 39 : ... .. . ... 454 P7F : ... .. . ... ... ... : ... .. . P7F ... : ... .. . ... : ... .. . F01 ...
ROW 3A : ... .. 0 ... ... ... : G-3 02 1 ... P7F ... : --- .. . ... ... : ... .. . ... : ... .. . F02 ...
ROW 3B : ... .. . ... ... ... : ... .. 0 ... ... ... : ... .. . ... ... : ... .. . ... : ... .. . F03 ...
ROW 3C : ... .. . ... ... ... : F#3 02 9 ... P80 ... : C#4 01 . P81 ... : ... .. . ... : ... .. . F02 ...
ROW 3D : ... .. . ... 400 ... : ... .. . ... ... ... : ... .. . P7F ... : ... .. . ... : ... .. . F01 ...
ROW 3E : ... .. . ... ... ... : F-3 02 1 ... P7F ... : --- .. . ... ... : ... .. . ... : ... .. . F02 ...
ROW 3F : ... .. . ... ... ... : ... .. 0 ... ... ... : ... .. . ... ... : ... .. . ... : ... .. . F03 ...
ROW 40 : ... .. . ... ... ... : G-3 02 A ... P80 ... : D-4 01 . P80 ... : ... .. . ... : ... .. . F02 ...
ROW 41 : ... .. . ... ... ... : ... .. . ... ... ... : ... .. . ... ... : ... .. . ... : ... .. . F01 ...
ROW 42 : ... .. . ... ... ... : F#3 02 1 ... P7F ... : ... .. . ... ... : ... .. . ... : ... .. . F02 ...
ROW 43 : ... .. . ... ... ... : ... .. 0 ... ... ... : ... .. . ... ... : ... .. . ... : ... .. . F03 ...
ROW 44 : F-4 00 A V01 ... P80 : A#3 02 9 ... P80 ... : ... .. . P7F ... : ... .. . ... : ... .. . F02 ...
ROW 45 : ... .. . ... ... ... : ... .. . ... ... ... : --- .. . ... ... : ... .. . ... : ... .. . F01 ...
ROW 46 : ... .. . ... ... ... : G-3 02 1 ... P7F ... : ... .. . ... ... : ... .. . ... : ... .. . F02 ...
ROW 47 : ... .. 1 ... ... ... : ... .. 0 ... ... ... : ... .. . ... ... : ... .. . ... : ... .. . F03 ...
ROW 48 : ... .. . ... ... ... : F-3 02 8 ... P80 ... : G-3 01 . P80 ... : ... .. . ... : ... .. . F02 ...
ROW 49 : ... .. . ... ... ... : ... .. . ... ... ... : ... .. . ... ... : ... .. . ... : ... .. . F01 ...
ROW 4A : ... .. . ... ... ... : A#3 02 1 ... P7F ... : ... .. . ... ... : ... .. . ... : ... .. . F02 ...
ROW 4B : ... .. 0 ... ... P7F : ... .. 0 ... ... ... : ... .. . P7F ... : ... .. . ... : ... .. . F03 ...
ROW 4C : ... .. . ... ... ... : G-3 02 9 ... P80 ... : A#2 01 . P80 ... : ... .. . ... : ... .. . F02 ...
ROW 4D : ... .. . ... ... ... : ... .. . ... ... ... : ... .. . ... ... : ... .. . ... : ... .. . F01 ...
ROW 4E : ... .. . ... ... ... : F-3 02 1 ... P7F ... : ... .. . ... ... : ... .. . ... : ... .. . F02 ...
ROW 4F : ... .. . ... ... ... : ... .. 0 ... ... ... : ... .. . P7F ... : ... .. . ... : ... .. . F03 ...
ROW 50 : C-4 00 C V02 ... P80 : A#3 02 B ... P80 ... : D#2 01 . P80 ... : ... .. . ... : ... .. . F02 ...
ROW 51 : D-4 00 . V00 30C ... : ... .. . ... ... ... : ... .. . ... ... : ... .. . ... : ... .. . F01 ...
ROW 52 : ... .. . ... ... ... : G-3 02 1 ... P7F ... : ... .. . ... ... : ... .. . ... : ... .. . F02 ...
ROW 53 : ... .. . ... ... ... : ... .. 0 ... ... ... : ... .. . P7F ... : ... .. . ... : ... .. . F03 ...
ROW 54 : ... .. 1 ... ... ... : F-3 02 A ... P80 ... : --- .. . ... ... : ... .. . ... : ... .. . F02 ...
ROW 55 : ... .. . ... ... ... : ... .. . ... ... ... : ... .. . ... ... : ... .. . ... : ... .. . F01 ...
ROW 56 : ... .. . ... ... ... : A#3 02 1 ... P7F ... : ... .. . ... ... : ... .. . ... : ... .. . F02 ...
ROW 57 : ... .. 0 ... ... P7F : ... .. 0 ... ... ... : ... .. . ... ... : ... .. . ... : ... .. . F03 ...
ROW 58 : ... .. . ... ... ... : G-3 02 9 ... P80 ... : ... .. . ... ... : ... .. . ... : ... .. . F02 ...
ROW 59 : ... .. . ... ... ... : ... .. . ... ... ... : ... .. . ... ... : ... .. . ... : ... .. . F01 ...
ROW 5A : ... .. . ... ... ... : F-3 02 1 ... P7F ... : ... .. . ... ... : ... .. . ... : ... .. . F02 ...
ROW 5B : ... .. . ... ... ... : ... .. 0 ... ... ... : ... .. . ... ... : ... .. . ... : ... .. . F03 ...
ROW 5C : C-4 00 8 V01 ... P80 : F-3 02 A ... P80 ... : G#2 01 . P80 ... : ... .. . ... : ... .. . F02 ...
ROW 5D : ... .. . ... ... ... : ... .. . ... ... ... : ... .. . ... ... : ... .. . ... : ... .. . F01 ...
ROW 5E : ... .. . ... ... ... : G-3 02 1 ... P7F ... : ... .. . ... ... : ... .. . ... : ... .. . F02 ...
ROW 5F : ... .. . ... ... ... : ... .. 0 ... ... ... : ... .. . ... ... : ... .. . ... : ... .. . F03 ...
ROW 60 : ... .. . ... ... ... : G#3 02 B ... P80 ... : ... .. . ... ... : ... .. . ... : ... .. . F02 ...
ROW 61 : ... .. . ... ... ... : ... .. . ... ... ... : ... .. . ... ... : ... .. . ... : ... .. . F01 ...
ROW 62 : ... .. . ... ... ... : F-3 02 1 ... P7F ... : ... .. . ... ... : ... .. . ... : ... .. . F02 ...
ROW 63 : ... .. . ... ... ... : ... .. 0 ... ... ... : ... .. . P7F ... : ... .. . ... : ... .. . F03 ...
ROW 64 : ... .. . ... ... ... : F-3 02 A ... P80 ... : C-4 01 . P81 ... : ... .. . ... : ... .. . F02 ...
ROW 65 : ... .. . ... ... ... : ... .. . ... ... ... : ... .. . P7F ... : ... .. . ... : ... .. . F01 ...
ROW 66 : ... .. . ... ... ... : G#3 02 1 ... P7F ... : --- .. . ... ... : ... .. . ... : ... .. . F02 ...
ROW 67 : ... .. . ... ... ... : ... .. 0 ... ... ... : ... .. . ... ... : ... .. . ... : ... .. . F03 ...
ROW 68 : ... .. . ... ... ... : D#3 02 9 ... P80 ... : A#3 01 . P81 ... : ... .. . ... : ... .. . F02 ...
ROW 69 : ... .. . ... ... ... : ... .. . ... ... ... : ... .. . P7F ... : ... .. . ... : ... .. . F01 ...
ROW 6A : ... .. . ... ... ... : F-3 02 1 ... P7F ... : --- .. . ... ... : ... .. . ... : ... .. . F02 ...
ROW 6B : ... .. . ... ... ... : ... .. 0 ... ... ... : ... .. . ... ... : ... .. . ... : ... .. . F03 ...
ROW 6C : ... .. . ... ... ... : F-3 02 8 ... P80 ... : C-4 01 . P81 ... : ... .. . ... : ... .. . F02 ...
ROW 6D : ... .. . ... ... ... : ... .. . ... ... ... : ... .. . P7F ... : ... .. . ... : ... .. . F01 ...
ROW 6E : ... .. . ... ... ... : ... .. . ... ... ... : --- .. . ... ... : ... .. . ... : ... .. . F02 ...
ROW 6F : ... .. . ... ... ... : ... .. . ... ... ... : ... .. . ... ... : ... .. . ... : ... .. . F03 ...
ROW 70 : ... .. . ... 454 ... : ... .. 1 ... ... ... : G-3 01 . P81 ... : ... .. . ... : ... .. . F02 ...
ROW 71 : ... .. . ... ... ... : ... .. . ... ... ... : ... .. . P7F ... : ... .. . ... : ... .. . F01 ...
ROW 72 : ... .. . ... ... ... : ... .. . 454 ... ... : --- .. . ... ... : ... .. . ... : ... .. . F02 ...
ROW 73 : ... .. . ... ... ... : ... .. . ... ... ... : ... .. . ... ... : ... .. . ... : ... .. . F03 ...
ROW 74 : ... .. 3 ... ... ... : ... .. . ... ... ... : G#2 01 . P80 ... : ... .. . ... : ... .. . F02 ...
ROW 75 : ... .. . ... ... ... : ... .. . ... ... ... : ... .. . ... ... : ... .. . ... : ... .. . F01 ...
ROW 76 : ... .. . ... ... ... : D#3 02 1 400 P7F ... : ... .. . ... ... : ... .. . ... : ... .. . F02 ...
ROW 77 : ... .. . ... ... ... : ... .. 0 ... ... ... : ... .. . P7F ... : ... .. . ... : ... .. . F03 ...
ROW 78 : ... .. 2 ... ... ... : D#3 02 B ... P80 ... : --- .. . ... ... : ... .. . ... : ... .. . F02 ...
ROW 79 : ... .. . ... ... ... : ... .. . ... ... ... : ... .. . ... ... : ... .. . ... : ... .. . F01 ...
ROW 7A : ... .. . ... ... ... : F-3 02 1 ... P7F ... : ... .. . ... ... : ... .. . ... : ... .. . F02 ...
ROW 7B : ... .. . ... ... ... : ... .. 0 ... ... ... : ... .. . ... ... : ... .. . ... : ... .. . F03 ...
ROW 7C : ... .. 1 ... 300 ... : F-3 02 9 ... P80 ... : ... .. . ... ... : ... .. . ... : ... .. . F02 ...
ROW 7D : ... .. . ... ... ... : ... .. . ... ... ... : ... .. . ... ... : ... .. . ... : ... .. . F01 ...
ROW 7E : ... .. . ... ... ... : D#3 02 1 ... P7F ... : ... .. . ... ... : ... .. . ... : ... .. . F02 ...
ROW 7F : ... .. . ... ... P7F : ... .. 0 ... ... ... : ... .. . ... ... : ... .. . ... : ... .. . F03 ...

PATTERN 03
ROW 00 : ... .. 0 ... 400 ... : F-3 02 6 ... P80 ... : D-2 01 . P80 ... : ... .. . ... : ... .. . F02 ...
ROW 01 : ... .. . ... ... ... : ... .. . ... ... ... : ... .. . ... ... : ... .. . ... : ... .. . F01 ...
ROW 02 : ... .. . ... ... ... : F-3 02 1 ... P7F ... : ... .. . ... ... : ... .. . ... : ... .. . F02 ...
ROW 03 : ... .. . ... ... ... : ... .. 0 ... ... ... : ... .. . P7F ... : ... .. . ... : ... .. . F03 ...
ROW 04 : ... .. . ... ... ... : G-3 02 7 ... P80 ... : --- .. . ... ... : ... .. . ... : ... .. . F02 ...
ROW 05 : ... .. . ... ... ... : ... .. . ... ... ... : ... .. . ... ... : ... .. . ... : ... .. . F01 ...
ROW 06 : ... .. . ... ... ... : F-3 02 1 ... P7F ... : ... .. . ... ... : ... .. . ... : ... .. . F02 ...
ROW 07 : ... .. . ... ... ... : ... .. 0 ... ... ... : ... .. . ... ... : ... .. . ... : ... .. . F03 ...
ROW 08 : F-4 00 8 V01 ... P80 : D-4 02 8 ... P80 ... : F-3 01 . P80 ... : ... .. . ... : ... .. . F02 ...
ROW 09 : ... .. . ... ... ... : ... .. . ... ... ... : ... .. . ... ... : ... .. . ... : ... .. . F01 ...
ROW 0A : ... .. . ... ... ... : G-3 02 1 ... P7F ... : ... .. . ... ... : ... .. . ... : ... .. . F02 ...
ROW 0B : ... .. 1 ... ... ... : ... .. 0 ... ... ... : ... .. . P7F ... : ... .. . ... : ... .. . F03 ...
ROW 0C : ... .. . ... ... ... : F-3 02 9 ... P80 ... : --- .. . ... ... : ... .. . ... : ... .. . F02 ...
ROW 0D : ... .. . ... ... ... : ... .. . ... ... ... : ... .. . ... ... : ... .. . ... : ... .. . F01 ...
ROW 0E : ... .. . ... ... ... : D-4 02 1 ... P7F ... : ... .. . ... ... : ... .. . ... : ... .. . F02 ...
ROW 0F : ... .. . ... ... P7F : ... .. 0 ... ... ... : ... .. . ... ... : ... .. . ... : ... .. . F03 ...
ROW 10 : ... .. 0 ... ... ... : G-3 02 8 ... P80 ... : A-3 01 . P80 ... : ... .. . ... : ... .. . F02 ...
ROW 11 : ... .. . ... ... ... : ... .. . ... ... ... : ... .. . ... ... : ... .. . ... : ... .. . F01 ...
ROW 12 : ... .. . ... ... ... : F-3 02 1 ... P7F ... : ... .. . ... ... : ... .. . ... : ... .. . F02 ...
ROW 13 : ... .. . ... ... ... : ... .. 0 ... ... ... : ... .. . P7F ... : ... .. . ... : ... .. . F03 ...
ROW 14 : D-4 00 A ... ... P80 : C-4 02 9 ... P80 ... : --- .. . ... ... : ... .. . ... : ... .. . F02 ...
ROW 15 : ... .. . ... ... ... : ... .. . ... ... ... : ... .. . ... ... : ... .. . ... : ... .. . F01 ...
ROW 16 : ... .. . ... ... ... : G-3 02 1 ... P7F ... : ... .. . ... ... : ... .. . ... : ... .. . F02 ...
ROW 17 : ... .. 1 ... ... ... : ... .. 0 ... ... ... : ... .. . ... ... : ... .. . ... : ... .. . F03 ...
ROW 18 : ... .. . ... ... ... : F-3 02 A ... P80 ... : ... .. . ... ... : ... .. . ... : ... .. . F02 ...
ROW 19 : ... .. . ... ... ... : ... .. . ... ... ... : ... .. . ... ... : ... .. . ... : ... .. . F01 ...
ROW 1A : ... .. . ... ... ... : C-4 02 1 ... P7F ... : ... .. . ... ... : ... .. . ... : ... .. . F02 ...
ROW 1B : ... .. . ... ... P7F : ... .. 0 ... ... ... : ... .. . ... ... : ... .. . ... : ... .. . F03 ...
ROW 1C : ... .. 0 ... ... ... : G-3 02 B ... P80 ... : G-1 01 . P80 ... : ... .. . ... : ... .. . F02 ...
ROW 1D : ... .. . ... ... ... : ... .. . ... ... ... : ... .. . ... ... : ... .. . ... : ... .. . F01 ...
ROW 1E : ... .. . ... ... ... : F-3 02 1 ... P7F ... : ... .. . P7F ... : ... .. . ... : ... .. . F02 ...
ROW 1F : ... .. . ... ... ... : ... .. 0 ... ... ... : --- .. . ... ... : ... .. . ... : ... .. . F03 ...
ROW 20 : C-4 00 C V02 ... P80 : A-3 02 C ... P80 ... : G-2 01 . P80 ... : ... .. . ... : ... .. . F02 ...
ROW 21 : ... .. . V00 30C ... : ... .. . ... ... ... : ... .. . ... ... : ... .. . ... : ... .. . F01 ...
ROW 22 : ... .. . ... ... ... : G-3 02 1 ... P7F ... : ... .. . ... ... : ... .. . ... : ... .. . F02 ...
ROW 23 : ... .. . ... ... ... : ... .. 0 ... ... ... : ... .. . P7F ... : ... .. . ... : ... .. . F03 ...
ROW 24 : ... .. 1 ... ... ... : D-3 02 B ... P80 ... : --- .. . ... ... : ... .. . ... : ... .. . F02 ...
ROW 25 : ... .. . ... ... ... : ... .. . ... ... ... : ... .. . ... ... : ... .. . ... : ... .. . F01 ...
ROW 26 : ... .. . ... ... ... : A-3 02 1 ... P7F ... : ... .. . ... ... : ... .. . ... : ... .. . F02 ...
ROW 27 : ... .. . ... ... P7F : ... .. 0 ... ... ... : ... .. . ... ... : ... .. . ... : ... .. . F03 ...
ROW 28 : ... .. 0 ... ... ... : F-3 02 A ... P80 ... : D-3 01 . P80 ... : ... .. . ... : ... .. . F02 ...
ROW 29 : ... .. . ... ... ... : ... .. . ... ... ... : ... .. . ... ... : ... .. . ... : ... .. . F01 ...
ROW 2A : ... .. . ... ... ... : D-3 02 1 ... P7F ... : ... .. . ... ... : ... .. . ... : ... .. . F02 ...
ROW 2B : ... .. . ... 300 ... : ... .. 0 ... ... ... : ... .. . P7F ... : ... .. . ... : ... .. . F03 ...
ROW 2C : A#3 00 A V01 ... P80 : G-3 02 9 ... P80 ... : --- .. . ... ... : ... .. . ... : ... .. . F02 ...
ROW 2D : ... .. . ... ... ... : ... .. . ... ... ... : ... .. . ... ... : ... .. . ... : ... .. . F01 ...
ROW 2E : ... .. . ... ... ... : F-3 02 1 ... P7F ... : ... .. . ... ... : ... .. . ... : ... .. . F02 ...
ROW 2F : ... .. . ... ... ... : ... .. 0 ... ... ... : ... .. . ... ... : ... .. . ... : ... .. . F03 ...
ROW 30 : ... .. . ... ... ... : C-3 02 8 ... P80 ... : F-3 01 . P80 ... : ... .. . ... : ... .. . F02 ...
ROW 31 : ... .. . ... ... ... : ... .. . ... ... ... : ... .. . ... ... : ... .. . ... : ... .. . F01 ...
ROW 32 : ... .. . ... ... ... : G-3 02 1 ... P7F ... : ... .. . ... ... : ... .. . ... : ... .. . F02 ...
ROW 33 : ... .. . ... ... ... : ... .. 0 ... ... ... : ... .. . P7F ... : ... .. . ... : ... .. . F03 ...
ROW 34 : ... .. . ... ... ... : D-3 02 9 ... P80 ... : --- .. . ... ... : ... .. . ... : ... .. . F02 ...
ROW 35 : ... .. . ... ... ... : ... .. . ... ... ... : ... .. . ... ... : ... .. . ... : ... .. . F01 ...
ROW 36 : ... .. . ... ... ... : C-3 02 1 ... P7F ... : ... .. . ... ... : ... .. . ... : ... .. . F02 ...
ROW 37 : ... .. . ... ... ... : ... .. 0 ... ... ... : ... .. . ... ... : ... .. . ... : ... .. . F03 ...
ROW 38 : ... .. 4 ... ... ... : F-3 02 8 ... P80 ... : D-3 01 . P81 ... : ... .. . ... : ... .. . F02 ...
ROW 39 : ... .. . ... ... ... : ... .. . ... ... ... : ... .. . P7F ... : ... .. . ... : ... .. . F01 ...
ROW 3A : ... .. . ... ... ... : D-3 02 1 ... P7F ... : --- .. . ... ... : ... .. . ... : ... .. . F02 ...
ROW 3B : ... .. . ... ... ... : ... .. 0 ... ... ... : ... .. . ... ... : ... .. . ... : ... .. . F03 ...
ROW 3C : ... .. 1 ... ... ... : G-3 02 7 ... P80 ... : G-2 01 . P81 ... : ... .. . ... : ... .. . F02 ...
ROW 3D : ... .. . ... 454 ... : ... .. . ... ... ... : ... .. . P7F ... : ... .. . ... : ... .. . F01 ...
ROW 3E : ... .. . ... ... ... : F-3 02 1 ... P7F ... : --- .. . ... ... : ... .. . ... : ... .. . F02 ...
ROW 3F : ... .. . ... ... P7F : ... .. 0 ... ... ... : ... .. . ... ... : ... .. . ... : ... .. . F03 ...
ROW 40 : ... .. 0 ... 400 ... : A#3 02 8 ... P80 ... : C-2 01 . P80 ... : ... .. . ... : ... .. . F02 ...
ROW 41 : ... .. . ... ... ... : ... .. . ... ... ... : ... .. . ... ... : ... .. . ... : ... .. . F01 ...
ROW 42 : ... .. . ... ... ... : G-3 02 1 ... P7F ... : ... .. . ... ... : ... .. . ... : ... .. . F02 ...
ROW 43 : ... .. . ... ... ... : ... .. 0 ... ... ... : ... .. . P7F ... : ... .. . ... : ... .. . F03 ...
ROW 44 : G-4 00 A V01 ... P80 : D#4 02 7 ... P80 ... : --- .. . ... ... : ... .. . ... : ... .. . F02 ...
ROW 45 : ... .. . ... ... ... : ... .. . ... ... ... : ... .. . ... ... : ... .. . ... : ... .. . F01 ...
ROW 46 : ... .. . ... ... ... : A#3 02 1 ... P7F ... : ... .. . ... ... : ... .. . ... : ... .. . F02 ...
ROW 47 : ... .. 1 ... ... ... : ... .. 0 ... ... ... : ... .. . ... ... : ... .. . ... : ... .. . F03 ...
ROW 48 : ... .. . ... ... ... : F-3 02 6 ... P80 ... : D#2 01 . P80 ... : ... .. . ... : ... .. . F02 ...
ROW 49 : ... .. . ... ... ... : ... .. . ... ... ... : ... .. . ... ... : ... .. . ... : ... .. . F01 ...
ROW 4A : ... .. . ... ... ... : D#4 02 1 ... P7F ... : ... .. . ... ... : ... .. . ... : ... .. . F02 ...
ROW 4B : ... .. . ... ... P7F : ... .. 0 ... ... ... : ... .. . P7F ... : ... .. . ... : ... .. . F03 ...
ROW 4C : ... .. 0 ... ... ... : G-3 02 7 ... P80 ... : --- .. . ... ... : ... .. . ... : ... .. . F02 ...
ROW 4D : ... .. . ... ... ... : ... .. . ... ... ... : ... .. . ... ... : ... .. . ... : ... .. . F01 ...
ROW 4E : ... .. . ... ... ... : ... .. 1 ... ... ... : ... .. . ... ... : ... .. . ... : ... .. . F02 ...
ROW 4F : ... .. . ... ... ... : ... .. . ... P7F ... : ... .. . ... ... : ... .. . ... : ... .. . F03 ...
ROW 50 : A#3 00 C V01 ... P80 : ... .. 0 ... ... ... : G-3 01 . P80 ... : ... .. . ... : ... .. . F02 ...
ROW 51 : ... .. . ... ... ... : ... .. . ... ... ... : ... .. . ... ... : ... .. . ... : ... .. . F01 ...
ROW 52 : ... .. . ... ... ... : F-3 02 1 ... ... ... : ... .. . ... ... : ... .. . ... : ... .. . F02 ...
ROW 53 : ... .. . ... ... ... : ... .. 0 ... ... ... : ... .. . P7F ... : ... .. . ... : ... .. . F03 ...
ROW 54 : ... .. 1 ... ... ... : F-3 02 8 ... P80 ... : --- .. . ... ... : ... .. . ... : ... .. . F02 ...
ROW 55 : ... .. . ... ... ... : ... .. . ... ... ... : ... .. . ... ... : ... .. . ... : ... .. . F01 ...
ROW 56 : ... .. . ... ... ... : G-3 02 1 ... P7F ... : ... .. . ... ... : ... .. . ... : ... .. . F02 ...
ROW 57 : ... .. . ... ... P7F : ... .. 0 ... ... ... : ... .. . ... ... : ... .. . ... : ... .. . F03 ...
ROW 58 : ... .. 0 ... ... ... : G-3 02 9 ... P80 ... : ... .. . ... ... : ... .. . ... : ... .. . F02 ...
ROW 59 : ... .. . ... ... ... : ... .. . ... ... ... : ... .. . ... ... : ... .. . ... : ... .. . F01 ...
ROW 5A : ... .. . ... ... ... : F-3 02 1 ... P7F ... : ... .. . ... ... : ... .. . ... : ... .. . F02 ...
ROW 5B : ... .. . ... ... ... : ... .. 0 ... ... ... : ... .. . ... ... : ... .. . ... : ... .. . F03 ...
ROW 5C : A#3 00 A V01 ... P80 : A#3 02 B ... P80 ... : F-2 01 . P80 ... : ... .. . ... : ... .. . F02 ...
ROW 5D : C-4 00 . ... 30C ... : ... .. . ... ... ... : ... .. . ... ... : ... .. . ... : ... .. . F01 ...
ROW 5E : ... .. . ... ... ... : G-3 02 1 ... P7F ... : ... .. . ... ... : ... .. . ... : ... .. . F02 ...
ROW 5F : ... .. . ... ... ... : ... .. 0 ... ... ... : ... .. . P7F ... : ... .. . ... : ... .. . F03 ...
ROW 60 : ... .. . ... ... ... : G-3 02 C ... P80 ... : C-3 01 . P81 ... : ... .. . ... : ... .. . F02 ...
ROW 61 : ... .. . ... ... ... : ... .. . ... ... ... : ... .. . P7F ... : ... .. . ... : ... .. . F01 ...
ROW 62 : ... .. . ... ... ... : A#3 02 1 ... P7F ... : --- .. . ... ... : ... .. . ... : ... .. . F02 ...
ROW 63 : ... .. . ... ... ... : ... .. . ... ... ... : ... .. . ... ... : ... .. . ... : ... .. . F03 ...
ROW 64 : ... .. . ... ... ... : F-3 02 B ... P80 ... : G-3 01 . P81 ... : ... .. . ... : ... .. . F02 ...
ROW 65 : ... .. . ... ... ... : ... .. . ... ... ... : ... .. . P7F ... : ... .. . ... : ... .. . F01 ...
ROW 66 : ... .. . ... ... ... : G-3 02 1 ... P7F ... : --- .. . ... ... : ... .. . ... : ... .. . F02 ...
ROW 67 : ... .. . ... ... ... : ... .. . ... ... ... : ... .. . ... ... : ... .. . ... : ... .. . F03 ...
ROW 68 : ... .. . ... ... ... : A#3 02 A ... P80 ... : D#3 01 . P81 ... : ... .. . ... : ... .. . F02 ...
ROW 69 : ... .. . ... ... ... : ... .. . ... ... ... : ... .. . P7F ... : ... .. . ... : ... .. . F01 ...
ROW 6A : ... .. . ... ... ... : F-3 02 1 ... P7F ... : --- .. . ... ... : ... .. . ... : ... .. . F02 ...
ROW 6B : ... .. . ... ... ... : ... .. . ... ... ... : ... .. . ... ... : ... .. . ... : ... .. . F03 ...
ROW 6C : ... .. . ... ... ... : G-3 02 9 ... P80 ... : A#3 01 . P81 ... : ... .. . ... : ... .. . F02 ...
ROW 6D : ... .. . ... ... ... : ... .. . ... ... ... : ... .. . P7F ... : ... .. . ... : ... .. . F01 ...
ROW 6E : ... .. . ... ... ... : A#3 02 1 ... P7F ... : --- .. . ... ... : ... .. . ... : ... .. . F02 ...
ROW 6F : ... .. . ... ... ... : ... .. . ... ... ... : ... .. . ... ... : ... .. . ... : ... .. . F03 ...
ROW 70 : ... .. . ... ... ... : C-4 02 8 ... P80 ... : D#4 01 . P81 ... : ... .. . ... : ... .. . F02 ...
ROW 71 : ... .. . ... ... ... : ... .. . ... ... ... : ... .. . P7F ... : ... .. . ... : ... .. . F01 ...
ROW 72 : ... .. . ... 454 ... : G-3 02 1 ... P7F ... : --- .. . ... ... : ... .. . ... : ... .. . F02 ...
ROW 73 : ... .. . ... ... ... : ... .. . ... ... ... : ... .. . ... ... : ... .. . ... : ... .. . F03 ...
ROW 74 : ... .. 3 ... ... ... : A#3 02 9 ... P80 ... : F-4 01 . P81 ... : ... .. . ... : ... .. . F02 ...
ROW 75 : ... .. . ... ... ... : ... .. . ... ... ... : ... .. . P7F ... : ... .. . ... : ... .. . F01 ...
ROW 76 : ... .. . ... ... ... : C-4 02 1 ... P7F ... : --- .. . ... ... : ... .. . ... : ... .. . F02 ...
ROW 77 : ... .. . ... ... ... : ... .. . ... ... ... : ... .. . ... ... : ... .. . ... : ... .. . F03 ...
ROW 78 : ... .. 2 ... ... ... : D#4 02 8 ... P80 ... : G-4 01 . P80 ... : ... .. . ... : ... .. . F02 ...
ROW 79 : ... .. . ... ... ... : ... .. . ... ... ... : ... .. . ... ... : ... .. . ... : ... .. . F01 ...
ROW 7A : ... .. . ... ... ... : A#3 02 1 ... P7F ... : ... .. . ... ... : ... .. . ... : ... .. . F02 ...
ROW 7B : ... .. . ... ... ... : ... .. . ... ... ... : ... .. . ... ... : ... .. . ... : ... .. . F03 ...
ROW 7C : ... .. 1 ... ... ... : C-4 02 7 ... P80 ... : ... .. . ... ... : ... .. . ... : ... .. . F02 ...
ROW 7D : ... .. . ... ... ... : ... .. . ... ... ... : ... .. . ... ... : ... .. . ... : ... .. . F01 ...
ROW 7E : ... .. . ... 400 ... : D#4 02 1 ... P7F ... : ... .. . ... ... : ... .. . ... : ... .. . F02 ...
ROW 7F : ... .. . ... 300 P7F : ... .. . ... ... ... : ... .. . P7F ... : ... .. . ... : ... .. . F03 ...

PATTERN 04
ROW 00 : ... .. 0 ... ... ... : F-4 0D D ... P80 ... : A#1 01 . P80 ... : ... .. . ... : ... .. . F02 ...
ROW 01 : ... .. . ... ... ... : ... .. . ... ... ... : ... .. . ... ... : ... .. . ... : ... .. . F01 ...
ROW 02 : ... .. . ... ... ... : ... .. 6 ... ... ... : ... .. . P7F ... : ... .. . ... : ... .. . F02 ...
ROW 03 : ... .. . ... ... ... : ... .. . ... P7F ... : --- .. . ... ... : ... .. . ... : ... .. . F03 ...
ROW 04 : ... .. . ... ... ... : G-4 02 E ... P80 ... : A#1 01 . P80 ... : ... .. . ... : ... .. . F02 ...
ROW 05 : ... .. . ... ... ... : ... .. . ... ... ... : ... .. . ... ... : ... .. . ... : ... .. . F01 ...
ROW 06 : ... .. . ... ... ... : ... .. 6 ... ... ... : ... .. . ... ... : ... .. . ... : ... .. . F02 ...
ROW 07 : ... .. . ... ... ... : ... .. . ... ... ... : ... .. . P7F ... : ... .. . ... : ... .. . F03 ...
ROW 08 : A#4 0C D V02 ... P80 : ... .. 3 ... P7F ... : --- .. . ... ... : ... .. . ... : ... .. . F02 ...
ROW 09 : ... .. . ... ... ... : ... .. 1 ... ... ... : ... .. . ... ... : ... .. . ... : ... .. . F01 ...
ROW 0A : ... .. 6 ... ... P7F : A#4 0C 7 V00 ... ... : ... .. . ... ... : ... .. . ... : ... .. . F02 ...
ROW 0B : ... .. 1 ... ... ... : ... .. . ... ... ... : ... .. . ... ... : ... .. . ... : ... .. . F03 ...
ROW 0C : A#3 0C D V01 ... P80 : ... .. . ... ... ... : A#2 01 . P80 ... : ... .. . ... : ... .. . F02 ...
ROW 0D : ... .. . ... ... ... : A#3 0C . ... ... ... : ... .. . ... ... : ... .. . ... : ... .. . F01 ...
ROW 0E : ... .. 6 ... ... ... : ... .. . ... ... ... : ... .. . P7F ... : ... .. . ... : ... .. . F02 ...
ROW 0F : ... .. . ... ... ... : ... .. 1 ... ... ... : --- .. . ... ... : ... .. . ... : ... .. . F03 ...
ROW 10 : ... .. . ... ... ... : F-4 0D F ... P80 ... : A#2 01 . P80 ... : ... .. . ... : ... .. . F02 ...
ROW 11 : ... .. . ... ... ... : ... .. . ... ... ... : ... .. . ... ... : ... .. . ... : ... .. . F01 ...
ROW 12 : A#4 0C . ... ... P7F : ... .. 6 ... ... ... : ... .. . ... ... : ... .. . ... : ... .. . F02 ...
ROW 13 : ... .. 1 ... ... ... : ... .. . ... ... ... : ... .. . P7F ... : ... .. . ... : ... .. . F03 ...
ROW 14 : D-5 0C F V02 ... P80 : ... .. 3 ... P7F ... : --- .. . ... ... : ... .. . ... : ... .. . F02 ...
ROW 15 : ... .. . ... ... ... : ... .. 1 ... ... ... : ... .. . ... ... : ... .. . ... : ... .. . F01 ...
ROW 16 : A#3 0C 6 ... ... P7F : D-5 0C 7 V00 ... ... : ... .. . ... ... : ... .. . ... : ... .. . F02 ...
ROW 17 : ... .. 1 ... ... ... : ... .. . ... ... ... : ... .. . ... ... : ... .. . ... : ... .. . F03 ...
ROW 18 : D-4 0C F V01 ... P80 : ... .. . ... ... ... : A#3 01 . P80 ... : ... .. . ... : ... .. . F02 ...
ROW 19 : ... .. . ... ... ... : ... .. . ... ... ... : ... .. . ... ... : ... .. . ... : ... .. . F01 ...
ROW 1A : ... .. 6 ... ... ... : D-4 0C . ... ... ... : ... .. . P7F ... : ... .. . ... : ... .. . F02 ...
ROW 1B : ... .. . ... ... ... : ... .. 1 ... ... ... : --- .. . ... ... : ... .. . ... : ... .. . F03 ...
ROW 1C : ... .. . ... ... ... : F-4 0D F ... P80 ... : A#3 01 . P80 ... : ... .. . ... : ... .. . F02 ...
ROW 1D : ... .. . ... ... ... : ... .. . ... ... ... : ... .. . ... ... : ... .. . ... : ... .. . F01 ...
ROW 1E : D-5 0C . ... ... P7F : ... .. 6 ... ... ... : ... .. . ... ... : ... .. . ... : ... .. . F02 ...
ROW 1F : ... .. 1 ... ... ... : ... .. . ... ... ... : ... .. . P7F ... : ... .. . ... : ... .. . F03 ...
ROW 20 : C-5 0C F V02 ... P80 : ... .. 3 ... P7F ... : --- .. . ... ... : ... .. . ... : ... .. . F02 ...
ROW 21 : ... .. . ... ... ... : ... .. 1 ... ... ... : ... .. . ... ... : ... .. . ... : ... .. . F01 ...
ROW 22 : D-4 0C 6 ... ... P7F : C-5 0C D V00 ... ... : ... .. . ... ... : ... .. . ... : ... .. . F02 ...
ROW 23 : ... .. 1 ... ... ... : ... .. . ... ... ... : ... .. . ... ... : ... .. . ... : ... .. . F03 ...
ROW 24 : C-4 0C F V01 ... P80 : ... .. . ... ... ... : G-3 01 . P80 ... : ... .. . ... : ... .. . F02 ...
ROW 25 : ... .. . ... ... ... : ... .. . ... ... ... : ... .. . ... ... : ... .. . ... : ... .. . F01 ...
ROW 26 : ... .. 6 ... ... ... : C-4 0C . ... ... ... : ... .. . P7F ... : ... .. . ... : ... .. . F02 ...
ROW 27 : ... .. . ... ... ... : ... .. 1 ... ... ... : --- .. . ... ... : ... .. . ... : ... .. . F03 ...
ROW 28 : ... .. . ... ... ... : F-4 0D D ... P80 ... : G-3 01 . P80 ... : ... .. . ... : ... .. . F02 ...
ROW 29 : ... .. . ... ... ... : ... .. . ... ... ... : ... .. . ... ... : ... .. . ... : ... .. . F01 ...
ROW 2A : C-5 0C . ... ... P7F : ... .. 3 ... ... ... : ... .. . ... ... : ... .. . ... : ... .. . F02 ...
ROW 2B : ... .. 1 ... ... ... : ... .. . ... ... ... : ... .. . P7F ... : ... .. . ... : ... .. . F03 ...
ROW 2C : A-4 0C F V02 ... P80 : ... .. . ... P7F ... : --- .. . ... ... : ... .. . ... : ... .. . F02 ...
ROW 2D : ... .. . ... ... ... : ... .. 1 ... ... ... : ... .. . ... ... : ... .. . ... : ... .. . F01 ...
ROW 2E : A#4 04 . V00 302 ... : ... .. . ... ... ... : ... .. . ... ... : ... .. . ... : ... .. . F02 ...
ROW 2F : ... .. . ... ... ... : ... .. . ... ... ... : ... .. . ... ... : ... .. . ... : ... .. . F03 ...
ROW 30 : ... .. 6 ... ... ... : D-4 0D D ... P80 ... : G-2 01 . P80 ... : ... .. . ... : ... .. . F02 ...
ROW 31 : ... .. . ... ... ... : ... .. . ... ... ... : ... .. . ... ... : ... .. . ... : ... .. . F01 ...
ROW 32 : ... .. . ... ... ... : F-4 0D 6 ... P7F ... : ... .. . P7F ... : ... .. . ... : ... .. . F02 ...
ROW 33 : ... .. . ... 300 ... : ... .. . ... ... ... : --- .. . ... ... : ... .. . ... : ... .. . F03 ...
ROW 34 : ... .. . ... ... ... : C-4 0D F ... P80 ... : G-2 01 . P80 ... : ... .. . ... : ... .. . F02 ...
ROW 35 : ... .. . ... ... ... : ... .. . ... ... ... : ... .. . ... ... : ... .. . ... : ... .. . F01 ...
ROW 36 : C-4 0C . ... ... ... : D-4 0D 6 ... P7F ... : ... .. . ... ... : ... .. . ... : ... .. . F02 ...
ROW 37 : ... .. . ... ... P7F : ... .. . ... ... ... : ... .. . P7F ... : ... .. . ... : ... .. . F03 ...
ROW 38 : A-4 0C 9 V02 ... ... : F-4 0D F ... P80 ... : --- .. . ... ... : ... .. . ... : ... .. . F02 ...
ROW 39 : ... .. . ... ... ... : ... .. . ... ... ... : ... .. . ... ... : ... .. . ... : ... .. . F01 ...
ROW 3A : A#4 04 . V00 303 ... : C-4 0D 6 ... P7F ... : ... .. . ... ... : ... .. . ... : ... .. . F02 ...
ROW 3B : ... .. . ... ... ... : ... .. . ... ... ... : ... .. . ... ... : ... .. . ... : ... .. . F03 ...
ROW 3C : ... .. 4 ... ... ... : D-4 0D E ... P80 ... : A#1 01 . P80 ... : ... .. . ... : ... .. . F02 ...
ROW 3D : ... .. . ... ... ... : ... .. . ... ... ... : ... .. . ... ... : ... .. . ... : ... .. . F01 ...
ROW 3E : ... .. . ... ... ... : F-4 0D 6 ... P7F ... : ... .. . P7F ... : ... .. . ... : ... .. . F02 ...
ROW 3F : ... .. . ... 300 ... : ... .. . ... ... ... : --- .. . ... ... : ... .. . ... : ... .. . F03 ...
ROW 40 : ... .. . ... ... ... : G-4 0D C ... P80 ... : A#1 01 . P80 ... : ... .. . ... : ... .. . F02 ...
ROW 41 : ... .. . ... ... ... : ... .. . ... ... ... : ... .. . ... ... : ... .. . ... : ... .. . F01 ...
ROW 42 : A-4 0C . ... ... ... : ... .. 6 ... ... ... : ... .. . ... ... : ... .. . ... : ... .. . F02 ...
ROW 43 : ... .. . ... ... ... : ... .. . ... ... ... : ... .. . P7F ... : ... .. . ... : ... .. . F03 ...
ROW 44 : D-5 0C F V02 ... P80 : ... .. 3 ... P7F ... : --- .. . ... ... : ... .. . ... : ... .. . F02 ...
ROW 45 : ... .. . ... ... ... : ... .. 1 ... ... ... : ... .. . ... ... : ... .. . ... : ... .. . F01 ...
ROW 46 : A#4 0C 6 ... ... P7F : D-5 0C 7 V02 ... ... : ... .. . ... ... : ... .. . ... : ... .. . F02 ...
ROW 47 : ... .. 1 ... ... ... : ... .. . ... ... ... : ... .. . ... ... : ... .. . ... : ... .. . F03 ...
ROW 48 : D-4 0C F V01 ... P80 : ... .. . ... ... ... : ... .. . ... ... : ... .. . ... : ... .. . F02 ...
ROW 49 : ... .. . ... ... ... : ... .. . ... ... ... : ... .. . ... ... : ... .. . ... : ... .. . F01 ...
ROW 4A : ... .. 6 ... ... ... : D-4 0C . V01 ... ... : ... .. . ... ... : ... .. . ... : ... .. . F02 ...
ROW 4B : ... .. . ... ... ... : ... .. 1 ... ... ... : ... .. . ... ... : ... .. . ... : ... .. . F03 ...
ROW 4C : ... .. . ... ... ... : F-4 02 C ... P80 ... : A#2 01 . P80 ... : ... .. . ... : ... .. . F02 ...
ROW 4D : ... .. . ... ... ... : ... .. . ... ... ... : ... .. . ... ... : ... .. . ... : ... .. . F01 ...
ROW 4E : D-5 0C . ... ... P7F : ... .. 6 ... ... ... : ... .. . P7F ... : ... .. . ... : ... .. . F02 ...
ROW 4F : ... .. 1 ... ... ... : ... .. . ... ... ... : --- .. . ... ... : ... .. . ... : ... .. . F03 ...
ROW 50 : C-5 0C F V02 ... P80 : ... .. 3 ... P7F ... : A#2 01 . P80 ... : ... .. . ... : ... .. . F02 ...
ROW 51 : ... .. . ... ... ... : ... .. 1 ... ... ... : ... .. . ... ... : ... .. . ... : ... .. . F01 ...
ROW 52 : D-4 0C 6 ... ... P7F : C-5 0C 7 V02 ... ... : ... .. . ... ... : ... .. . ... : ... .. . F02 ...
ROW 53 : ... .. 1 ... ... ... : ... .. . ... ... ... : ... .. . P7F ... : ... .. . ... : ... .. . F03 ...
ROW 54 : C-4 0C F V01 ... P80 : ... .. . ... ... ... : --- .. . ... ... : ... .. . ... : ... .. . F02 ...
ROW 55 : ... .. . ... ... ... : ... .. . ... ... ... : ... .. . ... ... : ... .. . ... : ... .. . F01 ...
ROW 56 : ... .. 6 ... ... ... : C-4 0C . V01 ... ... : ... .. . ... ... : ... .. . ... : ... .. . F02 ...
ROW 57 : ... .. . ... ... ... : ... .. 1 ... ... ... : ... .. . ... ... : ... .. . ... : ... .. . F03 ...
ROW 58 : ... .. . ... ... ... : F-4 02 D ... P80 ... : ... .. . ... ... : ... .. . ... : ... .. . F02 ...
ROW 59 : ... .. . ... ... ... : ... .. . ... ... ... : ... .. . ... ... : ... .. . ... : ... .. . F01 ...
ROW 5A : C-5 0C . ... ... P7F : ... .. 6 ... ... ... : ... .. . ... ... : ... .. . ... : ... .. . F02 ...
ROW 5B : ... .. 1 ... ... ... : ... .. . ... ... ... : ... .. . ... ... : ... .. . ... : ... .. . F03 ...
ROW 5C : A-4 0C F V02 ... P80 : ... .. 3 ... P7F ... : D-3 01 . P80 ... : ... .. . ... : ... .. . F02 ...
ROW 5D : ... .. . ... ... ... : ... .. 1 ... ... ... : ... .. . ... ... : ... .. . ... : ... .. . F01 ...
ROW 5E : A#4 04 . V00 302 ... : F-4 00 3 ... ... ... : ... .. . ... ... : ... .. . ... : ... .. . F02 ...
ROW 5F : ... .. . ... ... ... : ... .. 1 ... ... ... : ... .. . P7F ... : ... .. . ... : ... .. . F03 ...
ROW 60 : ... .. 6 ... ... ... : D-4 0D C ... P80 ... : G-2 01 . P80 ... : ... .. . ... : ... .. . F02 ...
ROW 61 : ... .. . ... ... ... : ... .. . ... ... ... : ... .. . ... ... : ... .. . ... : ... .. . F01 ...
ROW 62 : ... .. . ... ... ... : F-4 0D 6 ... P7F ... : ... .. . ... ... : ... .. . ... : ... .. . F02 ...
ROW 63 : ... .. . ... 300 ... : ... .. . ... ... ... : ... .. . P7F ... : ... .. . ... : ... .. . F03 ...
ROW 64 : ... .. . ... ... ... : C-4 0D C ... P80 ... : F-3 01 . P80 ... : ... .. . ... : ... .. . F02 ...
ROW 65 : ... .. . ... ... ... : ... .. . ... ... ... : ... .. . ... ... : ... .. . ... : ... .. . F01 ...
ROW 66 : C-4 0C . ... ... ... : D-4 0D 6 ... P7F ... : ... .. . ... ... : ... .. . ... : ... .. . F02 ...
ROW 67 : ... .. . ... ... P7F : ... .. . ... ... ... : ... .. . P7F ... : ... .. . ... : ... .. . F03 ...
ROW 68 : A-4 0C 9 V02 ... ... : F-4 0D C ... P80 ... : A#3 01 . P80 ... : ... .. . ... : ... .. . F02 ...
ROW 69 : ... .. . ... ... ... : ... .. . ... ... ... : ... .. . ... ... : ... .. . ... : ... .. . F01 ...
ROW 6A : A#4 04 . V00 303 ... : C-4 0D 6 ... P7F ... : ... .. . ... ... : ... .. . ... : ... .. . F02 ...
ROW 6B : ... .. . ... ... ... : ... .. . ... ... ... : ... .. . P7F ... : ... .. . ... : ... .. . F03 ...
ROW 6C : ... .. 4 ... ... ... : D-4 0D C ... P80 ... : F-4 01 . P80 ... : ... .. . ... : ... .. . F02 ...
ROW 6D : ... .. . ... ... ... : ... .. . ... ... ... : ... .. . ... ... : ... .. . ... : ... .. . F01 ...
ROW 6E : ... .. . ... ... ... : F-4 0D 6 ... P7F ... : ... .. . ... ... : ... .. . ... : ... .. . F02 ...
ROW 6F : ... .. . ... 300 ... : ... .. . ... ... ... : ... .. . P7F ... : ... .. . ... : ... .. . F03 ...
ROW 70 : ... .. . ... ... ... : G-4 0D C ... P80 ... : C-4 01 . P80 ... : ... .. . ... : ... .. . F02 ...
ROW 71 : ... .. . ... ... ... : ... .. . ... ... ... : ... .. . ... ... : ... .. . ... : ... .. . F01 ...
ROW 72 : A#4 0C . ... ... ... : D-4 02 6 ... P7F ... : ... .. . ... ... : ... .. . ... : ... .. . F02 ...
ROW 73 : ... .. . ... ... ... : ... .. . ... ... ... : ... .. . P7F ... : ... .. . ... : ... .. . F03 ...
ROW 74 : A-4 0C 6 V02 ... ... : F-4 0D C ... P80 ... : D-4 01 . P80 ... : ... .. . ... : ... .. . F02 ...
ROW 75 : ... .. . ... ... ... : ... .. . ... ... ... : ... .. . ... ... : ... .. . ... : ... .. . F01 ...
ROW 76 : A#4 04 . V00 303 ... : G-4 02 6 ... P7F ... : ... .. . ... ... : ... .. . ... : ... .. . F02 ...
ROW 77 : ... .. . ... ... ... : ... .. . ... ... ... : ... .. . P7F ... : ... .. . ... : ... .. . F03 ...
ROW 78 : ... .. 4 ... ... ... : C-4 0D C ... P80 ... : G-4 01 . P80 ... : ... .. . ... : ... .. . F02 ...
ROW 79 : ... .. . ... ... ... : ... .. . ... ... ... : ... .. . ... ... : ... .. . ... : ... .. . F01 ...
ROW 7A : ... .. . ... ... ... : F-4 02 6 ... P7F ... : ... .. . ... ... : ... .. . ... : ... .. . F02 ...
ROW 7B : ... .. . ... 300 ... : ... .. . ... ... ... : ... .. . ... ... : ... .. . ... : ... .. . F03 ...
ROW 7C : ... .. . ... ... ... : D-4 0D C ... P80 ... : ... .. . ... ... : ... .. . ... : ... .. . F02 ...
ROW 7D : ... .. . ... ... ... : ... .. . ... ... ... : ... .. . ... ... : ... .. . ... : ... .. . F01 ...
ROW 7E : A#4 0C . ... ... ... : C-4 02 6 ... P7F ... : ... .. . ... ... : ... .. . ... : ... .. . F02 ...
ROW 7F : ... .. 1 ... ... ... : ... .. . ... ... ... : ... .. . P7F ... : ... .. . ... : ... .. . F03 ...

PATTERN 05
ROW 00 : A-4 0C 4 V02 ... ... : F-4 0D B ... P80 ... : A#2 01 . P80 ... : ... .. . ... : ... .. . F02 ...
ROW 01 : ... .. . ... ... ... : ... .. . ... ... ... : ... .. . ... ... : ... .. . ... : ... .. . F01 ...
ROW 02 : A#4 04 . V00 303 ... : ... .. 6 ... ... ... : ... .. . P7F ... : ... .. . ... : ... .. . F02 ...
ROW 03 : ... .. . ... ... ... : ... .. . ... ... ... : --- .. . ... ... : ... .. . ... : ... .. . F03 ...
ROW 04 : A#3 0C D V02 ... P80 : ... .. 3 ... P7F ... : A#2 01 . P80 ... : ... .. . ... : ... .. . F02 ...
ROW 05 : ... .. . ... ... ... : ... .. 1 ... ... ... : ... .. . ... ... : ... .. . ... : ... .. . F01 ...
ROW 06 : A-4 0C 6 ... ... P7F : A#3 0C 7 V00 ... ... : ... .. . ... ... : ... .. . ... : ... .. . F02 ...
ROW 07 : ... .. 1 ... ... ... : ... .. . ... ... ... : ... .. . P7F ... : ... .. . ... : ... .. . F03 ...
ROW 08 : A#4 0C D V01 ... P80 : ... .. . ... ... ... : --- .. . ... ... : ... .. . ... : ... .. . F02 ...
ROW 09 : ... .. . ... ... ... : A#4 0C . ... ... ... : ... .. . ... ... : ... .. . ... : ... .. . F01 ...
ROW 0A : ... .. 6 ... ... ... : ... .. 3 ... ... ... : ... .. . ... ... : ... .. . ... : ... .. . F02 ...
ROW 0B : ... .. . ... ... ... : ... .. 1 ... ... ... : ... .. . ... ... : ... .. . ... : ... .. . F03 ...
ROW 0C : ... .. . ... ... ... : F-4 0D B ... P80 ... : A#1 01 . P80 ... : ... .. . ... : ... .. . F02 ...
ROW 0D : ... .. . ... ... ... : ... .. . ... ... ... : ... .. . ... ... : ... .. . ... : ... .. . F01 ...
ROW 0E : A#3 0C . ... ... P7F : ... .. 6 ... ... ... : ... .. . P7F ... : ... .. . ... : ... .. . F02 ...
ROW 0F : ... .. 1 ... ... ... : ... .. . ... ... ... : --- .. . ... ... : ... .. . ... : ... .. . F03 ...
ROW 10 : D-4 0C F V02 ... P80 : ... .. 3 ... P7F ... : A#1 01 . P80 ... : ... .. . ... : ... .. . F02 ...
ROW 11 : ... .. . ... ... ... : ... .. 1 ... ... ... : ... .. . ... ... : ... .. . ... : ... .. . F01 ...
ROW 12 : A#4 0C 6 ... ... P7F : D-4 0C 7 V00 ... ... : ... .. . ... ... : ... .. . ... : ... .. . F02 ...
ROW 13 : ... .. 1 ... ... ... : ... .. . ... ... ... : ... .. . P7F ... : ... .. . ... : ... .. . F03 ...
ROW 14 : D-5 0C F V01 ... P80 : ... .. . ... ... ... : --- .. . ... ... : ... .. . ... : ... .. . F02 ...
ROW 15 : ... .. . ... ... ... : D-4 0C . ... ... ... : ... .. . ... ... : ... .. . ... : ... .. . F01 ...
ROW 16 : ... .. 6 ... ... ... : ... .. 3 ... ... ... : ... .. . ... ... : ... .. . ... : ... .. . F02 ...
ROW 17 : ... .. . ... ... ... : ... .. 1 ... ... ... : ... .. . ... ... : ... .. . ... : ... .. . F03 ...
ROW 18 : ... .. . ... ... ... : F-4 0D B ... P80 ... : A#3 01 . P80 ... : ... .. . ... : ... .. . F02 ...
ROW 19 : ... .. . ... ... ... : ... .. . ... ... ... : ... .. . ... ... : ... .. . ... : ... .. . F01 ...
ROW 1A : D-4 0C . ... ... P7F : ... .. 6 ... ... ... : ... .. . P7F ... : ... .. . ... : ... .. . F02 ...
ROW 1B : ... .. 1 ... ... ... : ... .. . ... ... ... : --- .. . ... ... : ... .. . ... : ... .. . F03 ...
ROW 1C : C-4 0C F V02 ... P80 : ... .. 3 ... P7F ... : A#3 01 . P80 ... : ... .. . ... : ... .. . F02 ...
ROW 1D : ... .. . ... ... ... : ... .. 1 ... ... ... : ... .. . ... ... : ... .. . ... : ... .. . F01 ...
ROW 1E : D-5 0C 6 ... ... P7F : C-4 0C 7 V00 ... ... : ... .. . ... ... : ... .. . ... : ... .. . F02 ...
ROW 1F : ... .. 1 ... ... ... : ... .. . ... ... ... : ... .. . P7F ... : ... .. . ... : ... .. . F03 ...
ROW 20 : C-5 0C F V01 ... P80 : ... .. . ... ... ... : --- .. . ... ... : ... .. . ... : ... .. . F02 ...
ROW 21 : ... .. . ... ... ... : C-5 0C . ... ... ... : ... .. . ... ... : ... .. . ... : ... .. . F01 ...
ROW 22 : ... .. 6 ... ... ... : ... .. 3 ... ... ... : ... .. . ... ... : ... .. . ... : ... .. . F02 ...
ROW 23 : ... .. . ... ... ... : ... .. 1 ... ... ... : ... .. . ... ... : ... .. . ... : ... .. . F03 ...
ROW 24 : ... .. . ... ... ... : F-4 0D B ... P80 ... : G-2 01 . P80 ... : ... .. . ... : ... .. . F02 ...
ROW 25 : ... .. . ... ... ... : ... .. . ... ... ... : ... .. . ... ... : ... .. . ... : ... .. . F01 ...
ROW 26 : C-4 0C . ... ... P7F : ... .. 6 ... ... ... : ... .. . P7F ... : ... .. . ... : ... .. . F02 ...
ROW 27 : ... .. 1 ... ... ... : ... .. . ... ... ... : --- 01 . ... ... : ... .. . ... : ... .. . F03 ...
ROW 28 : A#3 0C F V02 ... P80 : ... .. 3 ... P7F ... : G-2 01 . P80 ... : ... .. . ... : ... .. . F02 ...
ROW 29 : ... .. . ... ... ... : ... .. 1 ... ... ... : ... .. . ... ... : ... .. . ... : ... .. . F01 ...
ROW 2A : C-5 0C 6 ... ... P7F : A#3 0C 7 V00 ... ... : ... .. . ... ... : ... .. . ... : ... .. . F02 ...
ROW 2B : ... .. 1 ... ... ... : ... .. . ... ... ... : ... .. . P7F ... : ... .. . ... : ... .. . F03 ...
ROW 2C : A-4 0C F V02 ... P80 : ... .. . ... ... ... : --- .. . ... ... : ... .. . ... : ... .. . F02 ...
ROW 2D : ... .. . ... ... ... : A#4 0C . ... ... ... : ... .. . ... ... : ... .. . ... : ... .. . F01 ...
ROW 2E : A#4 04 . V00 302 ... : ... .. 3 ... ... ... : ... .. . ... ... : ... .. . ... : ... .. . F02 ...
ROW 2F : ... .. . ... ... ... : ... .. 1 ... ... ... : ... .. . ... ... : ... .. . ... : ... .. . F03 ...
ROW 30 : ... .. 6 ... ... ... : D-4 0D C ... P80 ... : G-3 01 . P80 ... : ... .. . ... : ... .. . F02 ...
ROW 31 : ... .. . ... ... ... : ... .. . ... ... ... : ... .. . ... ... : ... .. . ... : ... .. . F01 ...
ROW 32 : ... .. . ... ... ... : F-4 0D 6 ... P7F ... : ... .. . P7F ... : ... .. . ... : ... .. . F02 ...
ROW 33 : ... .. . ... 300 ... : ... .. . ... ... ... : --- .. . ... ... : ... .. . ... : ... .. . F03 ...
ROW 34 : ... .. . ... ... ... : C-4 0D C ... P80 ... : G-3 01 . P80 ... : ... .. . ... : ... .. . F02 ...
ROW 35 : ... .. . ... ... ... : ... .. . ... ... ... : ... .. . ... ... : ... .. . ... : ... .. . F01 ...
ROW 36 : A#3 0C . ... ... ... : D-4 0D 6 ... P7F ... : ... .. . ... ... : ... .. . ... : ... .. . F02 ...
ROW 37 : ... .. . ... ... P7F : ... .. . ... ... ... : ... .. . P7F ... : ... .. . ... : ... .. . F03 ...
ROW 38 : A-4 0C 9 V02 ... ... : F-4 0D C ... P80 ... : --- .. . ... ... : ... .. . ... : ... .. . F02 ...
ROW 39 : ... .. . ... ... ... : ... .. . ... ... ... : ... .. . ... ... : ... .. . ... : ... .. . F01 ...
ROW 3A : A#4 04 . V00 303 ... : C-4 0D 6 ... P7F ... : ... .. . ... ... : ... .. . ... : ... .. . F02 ...
ROW 3B : ... .. . ... ... ... : ... .. . ... ... ... : ... .. . ... ... : ... .. . ... : ... .. . F03 ...
ROW 3C : ... .. 6 ... ... ... : D-4 0D B ... P80 ... : D#2 01 . P80 ... : ... .. . ... : ... .. . F02 ...
ROW 3D : ... .. . ... ... ... : ... .. . ... ... ... : ... .. . ... ... : ... .. . ... : ... .. . F01 ...
ROW 3E : A#3 0C . ... 300 ... : ... .. 6 ... ... ... : ... .. . P7F ... : ... .. . ... : ... .. . F02 ...
ROW 3F : ... .. . ... ... ... : ... .. . ... ... ... : --- .. . ... ... : ... .. . ... : ... .. . F03 ...
ROW 40 : D-4 0C F V02 ... P80 : ... .. 3 ... P7F ... : D#2 01 . P80 ... : ... .. . ... : ... .. . F02 ...
ROW 41 : ... .. . ... ... ... : ... .. 1 ... ... ... : ... .. . ... ... : ... .. . ... : ... .. . F01 ...
ROW 42 : A#4 0C 6 ... ... P7F : D-4 0C 7 V00 ... ... : ... .. . ... ... : ... .. . ... : ... .. . F02 ...
ROW 43 : ... .. 1 ... ... ... : ... .. . ... ... ... : ... .. . ... ... : ... .. . ... : ... .. . F03 ...
ROW 44 : D-5 0C F V01 ... P80 : ... .. . ... ... ... : ... .. . ... ... : ... .. . ... : ... .. . F02 ...
ROW 45 : ... .. . ... ... ... : D-4 0C . ... ... ... : ... .. . ... ... : ... .. . ... : ... .. . F01 ...
ROW 46 : ... .. 6 ... ... ... : ... .. 3 ... ... ... : ... .. . ... ... : ... .. . ... : ... .. . F02 ...
ROW 47 : ... .. . ... ... ... : ... .. 1 ... ... ... : ... .. . P7F ... : ... .. . ... : ... .. . F03 ...
ROW 48 : ... .. . ... ... ... : F-4 0D B ... P80 ... : --- .. . ... ... : ... .. . ... : ... .. . F02 ...
ROW 49 : ... .. . ... ... ... : ... .. . ... ... ... : ... .. . ... ... : ... .. . ... : ... .. . F01 ...
ROW 4A : D-4 0C . ... ... P7F : ... .. 6 ... ... ... : ... .. . ... ... : ... .. . ... : ... .. . F02 ...
ROW 4B : ... .. 1 ... ... ... : ... .. . ... ... ... : ... .. . ... ... : ... .. . ... : ... .. . F03 ...
ROW 4C : C-4 0C F V02 ... P80 : ... .. 3 ... P7F ... : G-3 01 . P80 ... : ... .. . ... : ... .. . F02 ...
ROW 4D : ... .. . ... ... ... : ... .. 1 ... ... ... : ... .. . ... ... : ... .. . ... : ... .. . F01 ...
ROW 4E : D-5 0C 6 ... ... P7F : C-4 0C 7 V00 ... ... : ... .. . P7F ... : ... .. . ... : ... .. . F02 ...
ROW 4F : ... .. 1 ... ... ... : ... .. . ... ... ... : --- .. . ... ... : ... .. . ... : ... .. . F03 ...
ROW 50 : C-5 0C F V01 ... P80 : ... .. . ... ... ... : G-3 01 . P80 ... : ... .. . ... : ... .. . F02 ...
ROW 51 : ... .. . ... ... ... : C-5 0C . ... ... ... : ... .. . ... ... : ... .. . ... : ... .. . F01 ...
ROW 52 : ... .. 6 ... ... ... : ... .. 3 ... ... ... : ... .. . ... ... : ... .. . ... : ... .. . F02 ...
ROW 53 : ... .. . ... ... ... : ... .. 1 ... ... ... : ... .. . ... ... : ... .. . ... : ... .. . F03 ...
ROW 54 : ... .. . ... ... ... : F-4 0D B ... P80 ... : ... .. . ... ... : ... .. . ... : ... .. . F02 ...
ROW 55 : ... .. . ... ... ... : ... .. . ... ... ... : ... .. . ... ... : ... .. . ... : ... .. . F01 ...
ROW 56 : C-4 0C . ... ... P7F : ... .. 6 ... ... ... : ... .. . ... ... : ... .. . ... : ... .. . F02 ...
ROW 57 : ... .. 1 ... ... ... : ... .. . ... ... ... : ... .. . P7F ... : ... .. . ... : ... .. . F03 ...
ROW 58 : A#3 0C F V02 ... P80 : ... .. 3 ... P7F ... : --- .. . ... ... : ... .. . ... : ... .. . F02 ...
ROW 59 : ... .. . ... ... ... : ... .. 1 ... ... ... : ... .. . ... ... : ... .. . ... : ... .. . F01 ...
ROW 5A : C-5 0C 6 ... ... P7F : A#3 0C 7 V00 ... ... : ... .. . ... ... : ... .. . ... : ... .. . F02 ...
ROW 5B : ... .. 1 ... ... ... : ... .. . ... ... ... : ... .. . ... ... : ... .. . ... : ... .. . F03 ...
ROW 5C : A-4 0C F V02 ... P80 : ... .. . ... ... ... : D#2 01 . P80 ... : ... .. . ... : ... .. . F02 ...
ROW 5D : ... .. . ... ... ... : A#4 0C . ... ... ... : ... .. . ... ... : ... .. . ... : ... .. . F01 ...
ROW 5E : A#4 04 . V00 302 ... : ... .. . ... ... ... : ... .. . P7F ... : ... .. . ... : ... .. . F02 ...
ROW 5F : ... .. . ... ... ... : ... .. . ... ... ... : --- .. . ... ... : ... .. . ... : ... .. . F03 ...
ROW 60 : ... .. 6 ... ... ... : ... .. . ... ... ... : D#3 01 . P80 ... : ... .. . ... : ... .. . F02 ...
ROW 61 : ... .. . ... ... ... : ... .. . ... ... ... : ... .. . ... ... : ... .. . ... : ... .. . F01 ...
ROW 62 : ... .. . ... ... ... : ... .. 3 ... ... ... : ... .. . ... ... : ... .. . ... : ... .. . F02 ...
ROW 63 : ... .. . ... 300 ... : ... .. 1 ... ... ... : ... .. . P7F ... : ... .. . ... : ... .. . F03 ...
ROW 64 : ... .. . ... ... ... : C-4 0D C ... P80 ... : G-3 01 . P80 ... : ... .. . ... : ... .. . F02 ...
ROW 65 : ... .. . ... ... ... : ... .. . ... ... ... : ... .. . ... ... : ... .. . ... : ... .. . F01 ...
ROW 66 : A#3 0C . ... ... ... : F-4 02 6 ... P7F ... : ... .. . ... ... : ... .. . ... : ... .. . F02 ...
ROW 67 : ... .. . ... ... P7F : ... .. . ... ... ... : ... .. . P7F ... : ... .. . ... : ... .. . F03 ...
ROW 68 : A-4 0C 9 V02 ... ... : G-3 02 C ... P80 ... : A#3 01 . P80 ... : ... .. . ... : ... .. . F02 ...
ROW 69 : ... .. . ... ... ... : ... .. . ... ... ... : ... .. . ... ... : ... .. . ... : ... .. . F01 ...
ROW 6A : A#4 04 . V00 303 ... : C-4 02 6 ... P7F ... : ... .. . ... ... : ... .. . ... : ... .. . F02 ...
ROW 6B : ... .. . ... ... ... : ... .. . ... ... ... : ... .. . P7F ... : ... .. . ... : ... .. . F03 ...
ROW 6C : ... .. 4 ... ... ... : A#3 02 C ... P80 ... : D#4 01 . P80 ... : ... .. . ... : ... .. . F02 ...
ROW 6D : ... .. . ... ... ... : ... .. . ... ... ... : ... .. . ... ... : ... .. . ... : ... .. . F01 ...
ROW 6E : ... .. . ... ... ... : G-3 02 6 ... P7F ... : ... .. . ... ... : ... .. . ... : ... .. . F02 ...
ROW 6F : ... .. . ... 300 ... : ... .. . ... ... ... : ... .. . P7F ... : ... .. . ... : ... .. . F03 ...
ROW 70 : ... .. . ... ... ... : D#4 0D C ... P80 ... : G-4 01 . P80 ... : ... .. . ... : ... .. . F02 ...
ROW 71 : ... .. . ... ... ... : ... .. . ... ... ... : ... .. . ... ... : ... .. . ... : ... .. . F01 ...
ROW 72 : A-4 0C . ... ... ... : A#3 02 6 ... P7F ... : ... .. . ... ... : ... .. . ... : ... .. . F02 ...
ROW 73 : ... .. . ... ... ... : ... .. . ... ... ... : ... .. . P7F ... : ... .. . ... : ... .. . F03 ...
ROW 74 : A-4 0C 6 V02 ... ... : F-4 0D C ... P80 ... : A#4 01 . P80 ... : ... .. . ... : ... .. . F02 ...
ROW 75 : ... .. . ... ... ... : ... .. . ... ... ... : ... .. . ... ... : ... .. . ... : ... .. . F01 ...
ROW 76 : A#4 04 . V00 303 ... : D#4 02 6 ... P7F ... : ... .. . ... ... : ... .. . ... : ... .. . F02 ...
ROW 77 : ... .. . ... ... ... : ... .. . ... ... ... : ... .. . P7F ... : ... .. . ... : ... .. . F03 ...
ROW 78 : ... .. 4 ... ... ... : G-4 0D C ... P80 ... : D#5 01 . P80 ... : ... .. . ... : ... .. . F02 ...
ROW 79 : ... .. . ... ... ... : ... .. . ... ... ... : ... .. . ... ... : ... .. . ... : ... .. . F01 ...
ROW 7A : ... .. . ... ... ... : F-4 02 6 ... P7F ... : ... .. . ... ... : ... .. . ... : ... .. . F02 ...
ROW 7B : ... .. . ... 300 ... : ... .. . ... ... ... : ... .. . ... ... : ... .. . ... : ... .. . F03 ...
ROW 7C : ... .. . ... ... ... : A#4 0D C ... P80 ... : ... .. . ... ... : ... .. . ... : ... .. . F02 ...
ROW 7D : ... .. . ... ... ... : ... .. . ... ... ... : ... .. . ... ... : ... .. . ... : ... .. . F01 ...
ROW 7E : A-4 0C . ... ... ... : G-4 02 6 ... P7F ... : ... .. . ... ... : ... .. . ... : ... .. . F02 ...
ROW 7F : ... .. . ... ... ... : ... .. . ... ... ... : ... .. . P7F ... : ... .. . ... : ... .. . F03 ...

PATTERN 06
ROW 00 : A-4 0C 4 V02 ... ... : G-4 0D C ... P80 ... : G#3 01 . P80 ... : ... .. . ... : ... .. . F02 ...
ROW 01 : ... .. . ... ... ... : ... .. . ... ... ... : ... .. . ... ... : ... .. . ... : ... .. . F01 ...
ROW 02 : A#4 04 . V00 303 ... : A#4 0D 6 ... P7F ... : ... .. . P7F ... : ... .. . ... : ... .. . F02 ...
ROW 03 : ... .. . ... ... ... : ... .. . ... ... ... : --- .. . ... ... : ... .. . ... : ... .. . F03 ...
ROW 04 : ... .. 3 ... ... ... : F-4 0D B ... P80 ... : G#3 01 . P80 ... : ... .. . ... : ... .. . F02 ...
ROW 05 : ... .. . ... ... ... : ... .. . ... ... ... : ... .. . ... ... : ... .. . ... : ... .. . F01 ...
ROW 06 : A-4 0C . ... ... ... : ... .. 6 ... ... ... : ... .. . ... ... : ... .. . ... : ... .. . F02 ...
ROW 07 : ... .. . ... 300 ... : ... .. . ... ... ... : ... .. . P7F ... : ... .. . ... : ... .. . F03 ...
ROW 08 : F-5 0C C V02 ... P80 : ... .. 3 ... P7F ... : --- .. . ... ... : ... .. . ... : ... .. . F02 ...
ROW 09 : ... .. . ... ... ... : ... .. 1 ... ... ... : ... .. . ... ... : ... .. . ... : ... .. . F01 ...
ROW 0A : A#4 0C 6 ... ... P7F : F-5 0C 7 V00 ... ... : ... .. . ... ... : ... .. . ... : ... .. . F02 ...
ROW 0B : ... .. 1 ... ... ... : ... .. . ... ... ... : ... .. . ... ... : ... .. . ... : ... .. . F03 ...
ROW 0C : F-4 0C C V01 ... P80 : ... .. . ... ... ... : A#2 01 . P80 ... : ... .. . ... : ... .. . F02 ...
ROW 0D : ... .. . ... ... ... : ... .. . ... ... ... : ... .. . ... ... : ... .. . ... : ... .. . F01 ...
ROW 0E : ... .. 6 ... ... ... : F-4 0C 3 ... ... ... : ... .. . P7F ... : ... .. . ... : ... .. . F02 ...
ROW 0F : ... .. . ... ... ... : ... .. 1 ... ... ... : --- .. . ... ... : ... .. . ... : ... .. . F03 ...
ROW 10 : ... .. . ... ... ... : G-4 0D B ... P80 ... : A#2 01 . P80 ... : ... .. . ... : ... .. . F02 ...
ROW 11 : ... .. . ... ... ... : ... .. . ... ... ... : ... .. . ... ... : ... .. . ... : ... .. . F01 ...
ROW 12 : F-5 0C . ... ... P7F : ... .. 6 ... ... ... : ... .. . ... ... : ... .. . ... : ... .. . F02 ...
ROW 13 : ... .. 1 ... ... ... : ... .. . ... ... ... : ... .. . ... ... : ... .. . ... : ... .. . F03 ...
ROW 14 : D-5 0C C V02 ... P80 : ... .. 3 ... P7F ... : ... .. . ... ... : ... .. . ... : ... .. . F02 ...
ROW 15 : ... .. . ... ... ... : ... .. 1 ... ... ... : ... .. . ... ... : ... .. . ... : ... .. . F01 ...
ROW 16 : F-4 0C 6 ... ... P7F : D-5 0C 7 V00 ... ... : ... .. . ... ... : ... .. . ... : ... .. . F02 ...
ROW 17 : ... .. 1 ... ... ... : ... .. . ... ... ... : ... .. . P7F ... : ... .. . ... : ... .. . F03 ...
ROW 18 : D-4 0C C V01 ... P80 : ... .. . ... ... ... : --- .. . ... ... : ... .. . ... : ... .. . F02 ...
ROW 19 : ... .. . ... ... ... : ... .. . ... ... ... : ... .. . ... ... : ... .. . ... : ... .. . F01 ...
ROW 1A : ... .. 6 ... ... ... : D-4 0C 3 ... ... ... : ... .. . ... ... : ... .. . ... : ... .. . F02 ...
ROW 1B : ... .. . ... ... ... : ... .. 1 ... ... ... : ... .. . ... ... : ... .. . ... : ... .. . F03 ...
ROW 1C : ... .. . ... ... ... : F-4 0D B ... P80 ... : D#3 01 . P80 ... : ... .. . ... : ... .. . F02 ...
ROW 1D : ... .. . ... ... ... : ... .. . ... ... ... : ... .. . ... ... : ... .. . ... : ... .. . F01 ...
ROW 1E : D-5 0C . ... ... P7F : ... .. 6 ... ... ... : ... .. . P7F ... : ... .. . ... : ... .. . F02 ...
ROW 1F : ... .. 1 ... ... ... : ... .. . ... ... ... : --- .. . ... ... : ... .. . ... : ... .. . F03 ...
ROW 20 : C-5 0C C V02 ... P80 : ... .. 3 ... P7F ... : D#3 01 . P80 ... : ... .. . ... : ... .. . F02 ...
ROW 21 : ... .. . ... ... ... : ... .. 1 ... ... ... : ... .. . ... ... : ... .. . ... : ... .. . F01 ...
ROW 22 : D-4 0C 6 ... ... P7F : C-5 0C 7 V00 ... ... : ... .. . ... ... : ... .. . ... : ... .. . F02 ...
ROW 23 : ... .. 1 ... ... ... : ... .. . ... ... ... : ... .. . ... ... : ... .. . ... : ... .. . F03 ...
ROW 24 : C-4 0C C V01 ... P80 : ... .. . ... ... ... : ... .. . ... ... : ... .. . ... : ... .. . F02 ...
ROW 25 : ... .. . ... ... ... : ... .. . ... ... ... : ... .. . ... ... : ... .. . ... : ... .. . F01 ...
ROW 26 : ... .. 6 ... ... ... : C-4 0C 3 ... ... ... : ... .. . ... ... : ... .. . ... : ... .. . F02 ...
ROW 27 : ... .. . ... ... ... : ... .. 1 ... ... ... : ... .. . P7F ... : ... .. . ... : ... .. . F03 ...
ROW 28 : ... .. . ... ... ... : D#4 0D C ... P80 ... : --- .. . ... ... : ... .. . ... : ... .. . F02 ...
ROW 29 : ... .. . ... ... ... : ... .. . ... ... ... : ... .. . ... ... : ... .. . ... : ... .. . F01 ...
ROW 2A : C-5 0C . ... ... P7F : F-4 0D 6 ... P7F ... : ... .. . ... ... : ... .. . ... : ... .. . F02 ...
ROW 2B : ... .. 1 ... ... ... : ... .. . ... ... ... : ... .. . ... ... : ... .. . ... : ... .. . F03 ...
ROW 2C : A-4 0C E V02 ... P80 : G-4 0D B ... P80 ... : A#2 01 . P80 ... : ... .. . ... : ... .. . F02 ...
ROW 2D : ... .. . ... ... ... : ... .. . ... ... ... : ... .. . ... ... : ... .. . ... : ... .. . F01 ...
ROW 2E : A#4 04 . V00 302 ... : ... .. 6 ... ... ... : ... .. . P7F ... : ... .. . ... : ... .. . F02 ...
ROW 2F : ... .. . ... ... ... : ... .. 3 ... P7F ... : --- .. . ... ... : ... .. . ... : ... .. . F03 ...
ROW 30 : ... .. 6 ... ... ... : A#4 0C 7 V00 ... ... : A#2 01 . P80 ... : ... .. . ... : ... .. . F02 ...
ROW 31 : ... .. . ... ... ... : ... .. . ... ... ... : ... .. . ... ... : ... .. . ... : ... .. . F01 ...
ROW 32 : ... .. . ... ... ... : ... .. 3 ... ... ... : ... .. . ... ... : ... .. . ... : ... .. . F02 ...
ROW 33 : ... .. . ... 300 ... : ... .. 1 ... ... ... : ... .. . P7F ... : ... .. . ... : ... .. . F03 ...
ROW 34 : ... .. . ... ... ... : D-4 0D C ... P80 ... : --- .. . ... ... : ... .. . ... : ... .. . F02 ...
ROW 35 : ... .. . ... ... ... : ... .. . ... ... ... : ... .. . ... ... : ... .. . ... : ... .. . F01 ...
ROW 36 : A-4 0C . ... ... ... : G-4 0D 6 ... P7F ... : ... .. . ... ... : ... .. . ... : ... .. . F02 ...
ROW 37 : ... .. . ... ... P7F : ... .. . ... ... ... : ... .. . ... ... : ... .. . ... : ... .. . F03 ...
ROW 38 : A-4 0C 9 V02 ... ... : F-4 0D C ... P80 ... : F-2 01 . P80 ... : ... .. . ... : ... .. . F02 ...
ROW 39 : ... .. . ... ... ... : ... .. . ... ... ... : ... .. . ... ... : ... .. . ... : ... .. . F01 ...
ROW 3A : A#4 04 . V00 303 ... : D-4 0D 6 ... P7F ... : ... .. . P7F ... : ... .. . ... : ... .. . F02 ...
ROW 3B : ... .. . ... ... ... : ... .. . ... ... ... : --- .. . ... ... : ... .. . ... : ... .. . F03 ...
ROW 3C : ... .. 4 ... ... ... : F#4 0D C ... P80 ... : E-2 01 . P80 ... : ... .. . ... : ... .. . F02 ...
ROW 3D : ... .. . ... ... ... : ... .. . ... ... ... : ... .. . ... ... : ... .. . ... : ... .. . F01 ...
ROW 3E : ... .. . ... ... ... : F-4 0D 6 ... P7F ... : ... .. . P7F ... : ... .. . ... : ... .. . F02 ...
ROW 3F : ... .. . ... 300 ... : ... .. . ... ... ... : --- .. . ... ... : ... .. . ... : ... .. . F03 ...
ROW 40 : ... .. . ... ... ... : G-4 0D B ... P80 ... : D#2 01 . P80 ... : ... .. . ... : ... .. . F02 ...
ROW 41 : ... .. . ... ... ... : ... .. . ... ... ... : ... .. . ... ... : ... .. . ... : ... .. . F01 ...
ROW 42 : A-4 0C . ... ... ... : ... .. 6 ... ... ... : ... .. . ... ... : ... .. . ... : ... .. . F02 ...
ROW 43 : ... .. . ... ... ... : ... .. . ... ... ... : ... .. . ... ... : ... .. . ... : ... .. . F03 ...
ROW 44 : F-5 0C C V02 ... P80 : ... .. 3 ... P7F ... : ... .. . ... ... : ... .. . ... : ... .. . F02 ...
ROW 45 : ... .. . ... ... ... : ... .. 1 ... ... ... : ... .. . ... ... : ... .. . ... : ... .. . F01 ...
ROW 46 : A#4 0C 6 ... ... P7F : F-5 0C 7 V00 ... ... : ... .. . ... ... : ... .. . ... : ... .. . F02 ...
ROW 47 : ... .. 1 ... ... ... : ... .. . ... ... ... : ... .. . P7F ... : ... .. . ... : ... .. . F03 ...
ROW 48 : F-4 0C C V01 ... P80 : ... .. . ... ... ... : --- .. . ... ... : ... .. . ... : ... .. . F02 ...
ROW 49 : ... .. . ... ... ... : ... .. . ... ... ... : ... .. . ... ... : ... .. . ... : ... .. . F01 ...
ROW 4A : ... .. 6 ... ... ... : F-4 0C 3 ... ... ... : ... .. . ... ... : ... .. . ... : ... .. . F02 ...
ROW 4B : ... .. . ... ... ... : ... .. 1 ... ... ... : ... .. . ... ... : ... .. . ... : ... .. . F03 ...
ROW 4C : ... .. . ... ... ... : G-4 0D B ... P80 ... : G-3 01 . P80 ... : ... .. . ... : ... .. . F02 ...
ROW 4D : ... .. . ... ... ... : ... .. . ... ... ... : ... .. . ... ... : ... .. . ... : ... .. . F01 ...
ROW 4E : F-5 0C . ... ... P7F : ... .. 6 ... ... ... : ... .. . P7F ... : ... .. . ... : ... .. . F02 ...
ROW 4F : ... .. 1 ... ... ... : ... .. . ... ... ... : --- .. . ... ... : ... .. . ... : ... .. . F03 ...
ROW 50 : C#5 0C C V02 ... P80 : ... .. 3 ... P7F ... : G-3 01 . P80 ... : ... .. . ... : ... .. . F02 ...
ROW 51 : ... .. . ... ... ... : ... .. 1 ... ... ... : ... .. . ... ... : ... .. . ... : ... .. . F01 ...
ROW 52 : F-4 0C 6 ... ... P7F : C#5 0C 7 V00 ... ... : ... .. . ... ... : ... .. . ... : ... .. . F02 ...
ROW 53 : ... .. 1 ... ... ... : ... .. . ... ... ... : ... .. . ... ... : ... .. . ... : ... .. . F03 ...
ROW 54 : C#4 0C C V01 ... P80 : ... .. . ... ... ... : ... .. . ... ... : ... .. . ... : ... .. . F02 ...
ROW 55 : ... .. . ... ... ... : ... .. . ... ... ... : ... .. . ... ... : ... .. . ... : ... .. . F01 ...
ROW 56 : ... .. 6 ... ... ... : C#4 0C 3 ... ... ... : ... .. . ... ... : ... .. . ... : ... .. . F02 ...
ROW 57 : ... .. . ... ... ... : ... .. 1 ... ... ... : ... .. . P7F ... : ... .. . ... : ... .. . F03 ...
ROW 58 : ... .. . ... ... ... : F-4 0D B ... P80 ... : --- .. . ... ... : ... .. . ... : ... .. . F02 ...
ROW 59 : ... .. . ... ... ... : ... .. . ... ... ... : ... .. . ... ... : ... .. . ... : ... .. . F01 ...
ROW 5A : C#5 0C . ... ... P7F : ... .. 6 ... ... ... : ... .. . ... ... : ... .. . ... : ... .. . F02 ...
ROW 5B : ... .. 1 ... ... ... : ... .. . ... ... ... : ... .. . ... ... : ... .. . ... : ... .. . F03 ...
ROW 5C : C-5 0C C V02 ... P80 : ... .. 3 ... P7F ... : F#2 01 . P80 ... : ... .. . ... : ... .. . F02 ...
ROW 5D : ... .. . ... ... ... : ... .. 1 ... ... ... : ... .. . ... ... : ... .. . ... : ... .. . F01 ...
ROW 5E : C#4 0C 6 ... ... P7F : C-5 0C 7 V00 ... ... : ... .. . P7F ... : ... .. . ... : ... .. . F02 ...
ROW 5F : ... .. 1 ... ... ... : ... .. . ... ... ... : --- .. . ... ... : ... .. . ... : ... .. . F03 ...
ROW 60 : C-4 0C C V01 ... P80 : ... .. . ... ... ... : F#2 01 . P80 ... : ... .. . ... : ... .. . F02 ...
ROW 61 : ... .. . ... ... ... : ... .. . ... ... ... : ... .. . ... ... : ... .. . ... : ... .. . F01 ...
ROW 62 : ... .. 6 ... ... ... : C-4 0C 3 ... ... ... : ... .. . ... ... : ... .. . ... : ... .. . F02 ...
ROW 63 : ... .. . ... ... ... : ... .. 1 ... ... ... : ... .. . ... ... : ... .. . ... : ... .. . F03 ...
ROW 64 : ... .. . ... ... ... : D#4 0D B ... P80 ... : ... .. . ... ... : ... .. . ... : ... .. . F02 ...
ROW 65 : ... .. . ... ... ... : ... .. . ... ... ... : ... .. . ... ... : ... .. . ... : ... .. . F01 ...
ROW 66 : C-5 0C . ... ... P7F : ... .. 3 ... P7F ... : ... .. . ... ... : ... .. . ... : ... .. . F02 ...
ROW 67 : ... .. 1 ... ... ... : ... .. 1 ... ... ... : ... .. . P7F ... : ... .. . ... : ... .. . F03 ...
ROW 68 : A-4 0C E V02 ... P80 : A#4 0C 7 V00 ... ... : --- .. . ... ... : ... .. . ... : ... .. . F02 ...
ROW 69 : ... .. . ... ... ... : ... .. . ... ... ... : ... .. . ... ... : ... .. . ... : ... .. . F01 ...
ROW 6A : A#4 04 . V00 302 ... : ... .. 3 ... ... ... : ... .. . ... ... : ... .. . ... : ... .. . F02 ...
ROW 6B : ... .. . ... ... ... : ... .. 1 ... ... ... : ... .. . ... ... : ... .. . ... : ... .. . F03 ...
ROW 6C : ... .. 6 ... ... ... : A#3 0D C ... P80 ... : A#3 01 . P80 ... : ... .. . ... : ... .. . F02 ...
ROW 6D : ... .. . ... ... ... : ... .. . ... ... ... : ... .. . ... ... : ... .. . ... : ... .. . F01 ...
ROW 6E : ... .. . ... ... ... : D#4 02 6 ... P7F ... : ... .. . P7F ... : ... .. . ... : ... .. . F02 ...
ROW 6F : ... .. . ... 300 ... : ... .. . ... ... ... : --- .. . ... ... : ... .. . ... : ... .. . F03 ...
ROW 70 : ... .. . ... ... ... : C-4 0D C ... P80 ... : A#3 01 . P80 ... : ... .. . ... : ... .. . F02 ...
ROW 71 : ... .. . ... ... ... : ... .. . ... ... ... : ... .. . ... ... : ... .. . ... : ... .. . F01 ...
ROW 72 : C-4 0C . ... ... ... : A#3 02 6 ... P7F ... : ... .. . ... ... : ... .. . ... : ... .. . F02 ...
ROW 73 : ... .. . ... ... P7F : ... .. . ... ... ... : ... .. . ... ... : ... .. . ... : ... .. . F03 ...
ROW 74 : A-4 0C 9 V02 ... ... : D-4 0D C ... P80 ... : ... .. . ... ... : ... .. . ... : ... .. . F02 ...
ROW 75 : ... .. . ... ... ... : ... .. . ... ... ... : ... .. . ... ... : ... .. . ... : ... .. . F01 ...
ROW 76 : A#4 04 . V00 303 ... : C-4 02 6 ... P7F ... : ... .. . P7F ... : ... .. . ... : ... .. . F02 ...
ROW 77 : ... .. . ... ... ... : ... .. . ... ... ... : --- .. . ... ... : ... .. . ... : ... .. . F03 ...
ROW 78 : ... .. 4 ... ... ... : E-4 02 C ... P80 ... : C#3 01 . P80 ... : ... .. . ... : ... .. . F02 ...
ROW 79 : ... .. . ... ... ... : ... .. . ... ... ... : ... .. . ... ... : ... .. . ... : ... .. . F01 ...
ROW 7A : ... .. . ... ... ... : D-4 02 6 ... P7F ... : ... .. . P7F ... : ... .. . ... : ... .. . F02 ...
ROW 7B : ... .. . ... 300 ... : ... .. . ... ... ... : --- .. . ... ... : ... .. . ... : ... .. . F03 ...
ROW 7C : ... .. . ... ... ... : A#4 02 C ... P80 ... : F#2 01 . P80 ... : ... .. . ... : ... .. . F02 ...
ROW 7D : ... .. . ... ... ... : ... .. . ... ... ... : ... .. . ... ... : ... .. . ... : ... .. . F01 ...
ROW 7E : A-4 0C . ... ... ... : E-4 02 6 ... P7F ... : ... .. . P7F ... : ... .. . ... : ... .. . F02 ...
ROW 7F : ... .. . ... ... ... : ... .. . ... ... ... : --- .. . ... ... : ... .. . ... : ... .. . F03 ...

PATTERN 07
ROW 00 : A-4 0C 6 V02 ... ... : G-4 0D C ... P80 ... : F-2 01 . P80 ... : ... .. . ... : ... .. . F02 ...
ROW 01 : ... .. . ... ... ... : ... .. . ... ... ... : ... .. . ... ... : ... .. . ... : ... .. . F01 ...
ROW 02 : A#4 04 . V00 303 ... : E-4 02 6 ... P7F ... : ... .. . P7F ... : ... .. . ... : ... .. . F02 ...
ROW 03 : ... .. . ... ... ... : ... .. . ... ... ... : --- .. . ... ... : ... .. . ... : ... .. . F03 ...
ROW 04 : ... .. 4 ... ... ... : F-4 0D B ... P80 ... : F-2 01 . P80 ... : ... .. . ... : ... .. . F02 ...
ROW 05 : ... .. . ... ... ... : ... .. . ... ... ... : ... .. . ... ... : ... .. . ... : ... .. . F01 ...
ROW 06 : A-4 0C . ... ... ... : ... .. 6 ... ... ... : ... .. . ... ... : ... .. . ... : ... .. . F02 ...
ROW 07 : ... .. . ... 300 ... : ... .. . ... ... ... : ... .. . P7F ... : ... .. . ... : ... .. . F03 ...
ROW 08 : G-5 0C C V02 ... P80 : ... .. 3 ... P7F ... : --- .. . ... ... : ... .. . ... : ... .. . F02 ...
ROW 09 : ... .. . ... ... ... : ... .. 1 ... ... ... : ... .. . ... ... : ... .. . ... : ... .. . F01 ...
ROW 0A : A#4 0C 6 ... ... P7F : G-5 0C 7 V00 ... ... : ... .. . ... ... : ... .. . ... : ... .. . F02 ...
ROW 0B : ... .. 1 ... ... ... : ... .. . ... ... ... : ... .. . ... ... : ... .. . ... : ... .. . F03 ...
ROW 0C : G-4 0C C V01 ... P80 : ... .. . ... ... ... : A#3 01 . P80 ... : ... .. . ... : ... .. . F02 ...
ROW 0D : ... .. . ... ... ... : ... .. . ... ... ... : ... .. . ... ... : ... .. . ... : ... .. . F01 ...
ROW 0E : ... .. 6 ... ... ... : G-4 0C 3 ... ... ... : ... .. . P7F ... : ... .. . ... : ... .. . F02 ...
ROW 0F : ... .. . ... ... ... : ... .. 1 ... ... ... : --- .. . ... ... : ... .. . ... : ... .. . F03 ...
ROW 10 : ... .. . ... ... ... : A#4 0D B ... P80 ... : A#3 01 . P80 ... : ... .. . ... : ... .. . F02 ...
ROW 11 : ... .. . ... ... ... : ... .. . ... ... ... : ... .. . ... ... : ... .. . ... : ... .. . F01 ...
ROW 12 : G-5 0C . ... ... P7F : ... .. 6 ... ... ... : ... .. . ... ... : ... .. . ... : ... .. . F02 ...
ROW 13 : ... .. 1 ... ... ... : ... .. . ... ... ... : ... .. . ... ... : ... .. . ... : ... .. . F03 ...
ROW 14 : F-5 0C C V02 ... P80 : ... .. 3 ... P7F ... : ... .. . ... ... : ... .. . ... : ... .. . F02 ...
ROW 15 : ... .. . ... ... ... : ... .. 1 ... ... ... : ... .. . ... ... : ... .. . ... : ... .. . F01 ...
ROW 16 : G-4 0C 6 ... ... P7F : F-5 0C 7 V00 ... ... : ... .. . ... ... : ... .. . ... : ... .. . F02 ...
ROW 17 : ... .. 1 ... ... ... : ... .. . ... ... ... : ... .. . P7F ... : ... .. . ... : ... .. . F03 ...
ROW 18 : F-4 0C C V01 ... P80 : ... .. . ... ... ... : --- .. . ... ... : ... .. . ... : ... .. . F02 ...
ROW 19 : ... .. . ... ... ... : ... .. . ... ... ... : ... .. . ... ... : ... .. . ... : ... .. . F01 ...
ROW 1A : ... .. 6 ... ... ... : F-4 0C 3 ... ... ... : ... .. . ... ... : ... .. . ... : ... .. . F02 ...
ROW 1B : ... .. . ... ... ... : ... .. 1 ... ... ... : ... .. . ... ... : ... .. . ... : ... .. . F03 ...
ROW 1C : ... .. . ... ... ... : G-4 0D B ... P80 ... : G-2 01 . P80 ... : ... .. . ... : ... .. . F02 ...
ROW 1D : ... .. . ... ... ... : ... .. . ... ... ... : ... .. . ... ... : ... .. . ... : ... .. . F01 ...
ROW 1E : F-5 0C . ... ... P7F : ... .. 6 ... ... ... : ... .. . P7F ... : ... .. . ... : ... .. . F02 ...
ROW 1F : ... .. 1 ... ... ... : ... .. . ... ... ... : --- .. . ... ... : ... .. . ... : ... .. . F03 ...
ROW 20 : D-5 0C C V02 ... P80 : ... .. 3 ... P7F ... : F-3 01 . P80 ... : ... .. . ... : ... .. . F02 ...
ROW 21 : ... .. . ... ... ... : ... .. 1 ... ... ... : ... .. . ... ... : ... .. . ... : ... .. . F01 ...
ROW 22 : F-4 0C 6 ... ... P7F : D-5 0C 7 V00 ... ... : ... .. . P7F ... : ... .. . ... : ... .. . F02 ...
ROW 23 : ... .. 1 ... ... ... : ... .. . ... ... ... : --- .. . ... ... : ... .. . ... : ... .. . F03 ...
ROW 24 : D-4 0C C V01 ... P80 : ... .. . ... ... ... : A#3 01 . P80 ... : ... .. . ... : ... .. . F02 ...
ROW 25 : ... .. . ... ... ... : ... .. . ... ... ... : ... .. . ... ... : ... .. . ... : ... .. . F01 ...
ROW 26 : ... .. 6 ... ... ... : D-4 0C 3 ... ... ... : ... .. . P7F ... : ... .. . ... : ... .. . F02 ...
ROW 27 : ... .. . ... ... ... : ... .. 1 ... ... ... : --- .. . ... ... : ... .. . ... : ... .. . F03 ...
ROW 28 : ... .. . ... ... ... : F-4 0D B ... P80 ... : D-4 01 . P80 ... : ... .. . ... : ... .. . F02 ...
ROW 29 : ... .. . ... ... ... : ... .. . ... ... ... : ... .. . ... ... : ... .. . ... : ... .. . F01 ...
ROW 2A : D-5 0C . ... ... P7F : ... .. 6 ... ... ... : ... .. . P7F ... : ... .. . ... : ... .. . F02 ...
ROW 2B : ... .. 1 ... ... ... : ... .. . ... ... ... : --- .. . ... ... : ... .. . ... : ... .. . F03 ...
ROW 2C : A-4 0C F V02 ... P80 : ... .. . ... ... ... : F-4 01 . P80 ... : ... .. . ... : ... .. . F02 ...
ROW 2D : ... .. . ... ... ... : ... .. . ... ... ... : ... .. . ... ... : ... .. . ... : ... .. . F01 ...
ROW 2E : A#4 04 . V00 302 ... : ... .. 3 ... P7F ... : ... .. . P7F ... : ... .. . ... : ... .. . F02 ...
ROW 2F : ... .. . ... ... ... : ... .. 1 ... ... ... : --- .. . ... ... : ... .. . ... : ... .. . F03 ...
ROW 30 : ... .. 6 ... ... ... : C-4 0D C ... P80 ... : G-4 01 . P80 ... : ... .. . ... : ... .. . F02 ...
ROW 31 : ... .. . ... ... ... : ... .. . ... ... ... : ... .. . ... ... : ... .. . ... : ... .. . F01 ...
ROW 32 : ... .. . ... ... ... : F-4 02 6 ... P7F ... : ... .. . ... ... : ... .. . ... : ... .. . F02 ...
ROW 33 : ... .. . ... 300 ... : ... .. . ... ... ... : ... .. . P7F ... : ... .. . ... : ... .. . F03 ...
ROW 34 : ... .. . ... ... ... : D-4 02 C ... P80 ... : --- .. . ... ... : ... .. . ... : ... .. . F02 ...
ROW 35 : ... .. . ... ... ... : ... .. . ... ... ... : ... .. . ... ... : ... .. . ... : ... .. . F01 ...
ROW 36 : D-4 0C . ... ... ... : C-4 02 6 ... P7F ... : ... .. . ... ... : ... .. . ... : ... .. . F02 ...
ROW 37 : ... .. . ... ... P7F : ... .. . ... ... ... : ... .. . ... ... : ... .. . ... : ... .. . F03 ...
ROW 38 : A-4 0C 9 V02 ... ... : F-4 0D C ... P80 ... : D-3 01 . P80 ... : ... .. . ... : ... .. . F02 ...
ROW 39 : ... .. . ... ... ... : ... .. . ... ... ... : ... .. . ... ... : ... .. . ... : ... .. . F01 ...
ROW 3A : A#4 04 . V00 303 ... : D-4 02 6 ... P7F ... : ... .. . P7F ... : ... .. . ... : ... .. . F02 ...
ROW 3B : ... .. . ... ... ... : ... .. . ... ... ... : --- .. . ... ... : ... .. . ... : ... .. . F03 ...
ROW 3C : ... .. 4 ... ... ... : G-4 02 C ... P80 ... : G-2 01 . P80 ... : ... .. . ... : ... .. . F02 ...
ROW 3D : ... .. . ... ... ... : ... .. . ... ... ... : ... .. . ... ... : ... .. . ... : ... .. . F01 ...
ROW 3E : ... .. . ... ... ... : F-4 02 6 ... P7F ... : ... .. . P7F ... : ... .. . ... : ... .. . F02 ...
ROW 3F : ... .. . ... 300 ... : ... .. . ... ... ... : --- .. . ... ... : ... .. . ... : ... .. . F03 ...
ROW 40 : D-5 0C C V02 ... P80 : A#4 0D B ... P80 ... : C-2 01 . P80 ... : ... .. . ... : ... .. . F02 ...
ROW 41 : ... .. . ... ... ... : ... .. . ... ... ... : ... .. . ... ... : ... .. . ... : ... .. . F01 ...
ROW 42 : A#4 0C 6 ... ... P7F : ... .. . ... P7F ... : ... .. . ... ... : ... .. . ... : ... .. . F02 ...
ROW 43 : ... .. 1 ... ... ... : ... .. 3 ... ... ... : ... .. . ... ... : ... .. . ... : ... .. . F03 ...
ROW 44 : D-4 0C C V01 ... P80 : D-5 0C 7 V00 ... ... : ... .. . ... ... : ... .. . ... : ... .. . F02 ...
ROW 45 : ... .. . ... ... ... : ... .. . ... ... ... : ... .. . ... ... : ... .. . ... : ... .. . F01 ...
ROW 46 : ... .. 6 ... ... ... : ... .. 3 ... ... ... : ... .. . ... ... : ... .. . ... : ... .. . F02 ...
ROW 47 : ... .. . ... ... ... : ... .. 1 ... ... ... : ... .. . P7F ... : ... .. . ... : ... .. . F03 ...
ROW 48 : ... .. . ... ... ... : D#4 02 C ... P80 ... : --- .. . ... ... : ... .. . ... : ... .. . F02 ...
ROW 49 : ... .. . ... ... ... : ... .. . ... ... ... : ... .. . ... ... : ... .. . ... : ... .. . F01 ...
ROW 4A : D-5 0C . ... ... P7F : A#4 02 6 ... P7F ... : ... .. . ... ... : ... .. . ... : ... .. . F02 ...
ROW 4B : ... .. 1 ... ... ... : ... .. . ... ... ... : ... .. . ... ... : ... .. . ... : ... .. . F03 ...
ROW 4C : G-4 0C D V02 ... P80 : A#3 0D C ... P80 ... : F-2 01 . P80 ... : ... .. . ... : ... .. . F02 ...
ROW 4D : ... .. . ... ... ... : ... .. . ... ... ... : ... .. . ... ... : ... .. . ... : ... .. . F01 ...
ROW 4E : ... .. . V00 303 ... : D#4 02 6 ... P7F ... : ... .. . P7F ... : ... .. . ... : ... .. . F02 ...
ROW 4F : ... .. . ... ... ... : ... .. . ... ... ... : --- .. . ... ... : ... .. . ... : ... .. . F03 ...
ROW 50 : ... .. 6 ... ... ... : G-3 02 B ... P80 ... : D#3 01 . P80 ... : ... .. . ... : ... .. . F02 ...
ROW 51 : ... .. . ... ... ... : ... .. . ... ... ... : ... .. . ... ... : ... .. . ... : ... .. . F01 ...
ROW 52 : ... .. . ... ... ... : ... .. . ... ... ... : ... .. . P7F ... : ... .. . ... : ... .. . F02 ...
ROW 53 : ... .. . ... 300 ... : ... .. 3 ... P7F ... : --- .. . ... ... : ... .. . ... : ... .. . F03 ...
ROW 54 : ... .. . ... ... ... : G-4 0C 7 V00 ... ... : A#3 01 . P80 ... : ... .. . ... : ... .. . F02 ...
ROW 55 : ... .. . ... ... ... : ... .. . ... ... ... : ... .. . ... ... : ... .. . ... : ... .. . F01 ...
ROW 56 : D-4 0C . ... ... ... : ... .. 3 ... ... ... : ... .. . P7F ... : ... .. . ... : ... .. . F02 ...
ROW 57 : ... .. . ... ... ... : ... .. 1 ... ... ... : --- .. . ... ... : ... .. . ... : ... .. . F03 ...
ROW 58 : A#4 00 B V02 ... P80 : D-4 02 A V02 P80 ... : F-3 01 . P80 ... : ... .. . ... : ... .. . F02 ...
ROW 59 : ... .. . ... ... ... : ... .. . ... ... ... : ... .. . ... ... : ... .. . ... : ... .. . F01 ...
ROW 5A : ... .. . V01 303 ... : G-3 02 4 ... P7F ... : ... .. . P7F ... : ... .. . ... : ... .. . F02 ...
ROW 5B : ... .. . ... ... ... : ... .. . ... ... ... : --- .. . ... ... : ... .. . ... : ... .. . F03 ...
ROW 5C : ... .. . ... ... ... : G-4 02 A ... P80 ... : G-3 01 . P80 ... : ... .. . ... : ... .. . F02 ...
ROW 5D : ... .. . ... ... ... : ... .. . ... ... ... : ... .. . ... ... : ... .. . ... : ... .. . F01 ...
ROW 5E : ... .. . ... ... ... : D-4 02 4 ... P7F ... : ... .. . P7F ... : ... .. . ... : ... .. . F02 ...
ROW 5F : ... .. . ... ... ... : ... .. . ... ... ... : --- .. . ... ... : ... .. . ... : ... .. . F03 ...
ROW 60 : ... .. 7 ... 300 ... : C-4 02 A ... P80 ... : C-4 01 . P80 ... : ... .. . ... : ... .. . F02 ...
ROW 61 : ... .. . ... ... ... : ... .. . ... ... ... : ... .. . ... ... : ... .. . ... : ... .. . F01 ...
ROW 62 : ... .. . ... ... P7F : G-4 02 4 ... P7F ... : ... .. . P7F ... : ... .. . ... : ... .. . F02 ...
ROW 63 : C-4 00 5 V02 P80 ... : ... .. . ... ... ... : --- .. . ... ... : ... .. . ... : ... .. . F03 ...
ROW 64 : ... .. . ... ... ... : F-4 02 A ... P80 ... : D-4 01 . P80 ... : ... .. . ... : ... .. . F02 ...
ROW 65 : G-4 00 2 ... P7E ... : ... .. . ... ... ... : ... .. . ... ... : ... .. . ... : ... .. . F01 ...
ROW 66 : ... .. . ... ... ... : C-4 02 4 ... P7F ... : ... .. . P7F ... : ... .. . ... : ... .. . F02 ...
ROW 67 : F-4 00 5 ... P80 ... : ... .. . ... ... ... : --- .. . ... ... : ... .. . ... : ... .. . F03 ...
ROW 68 : ... .. . ... ... ... : C-4 02 9 ... P80 ... : F-4 01 . P80 ... : ... .. . ... : ... .. . F02 ...
ROW 69 : C-4 00 2 ... P7E ... : ... .. . ... ... ... : ... .. . ... ... : ... .. . ... : ... .. . F01 ...
ROW 6A : ... .. . ... ... ... : F-4 02 4 ... P7F ... : ... .. . P7F ... : ... .. . ... : ... .. . F02 ...
ROW 6B : C-4 00 5 ... P80 ... : ... .. . ... ... ... : --- .. . ... ... : ... .. . ... : ... .. . F03 ...
ROW 6C : ... .. . ... ... ... : D-4 02 8 ... P80 ... : G-4 01 . P80 ... : ... .. . ... : ... .. . F02 ...
ROW 6D : F-4 00 2 ... P7E ... : ... .. . ... ... ... : ... .. . ... ... : ... .. . ... : ... .. . F01 ...
ROW 6E : ... .. . ... ... ... : C-4 02 4 ... P7F ... : ... .. . ... ... : ... .. . ... : ... .. . F02 ...
ROW 6F : D-4 00 5 ... P80 ... : ... .. . ... ... ... : ... .. . P7F ... : ... .. . ... : ... .. . F03 ...
ROW 70 : ... .. . ... ... ... : A#3 02 7 ... P80 ... : --- .. . ... ... : ... .. . ... : ... .. . F02 ...
ROW 71 : C-4 00 2 ... P7E ... : ... .. . ... ... ... : ... .. . ... ... : ... .. . ... : ... .. . F01 ...
ROW 72 : ... .. . ... ... ... : D-4 02 3 ... P7F ... : ... .. . ... ... : ... .. . ... : ... .. . F02 ...
ROW 73 : A#3 00 5 ... P80 ... : ... .. . ... ... ... : ... .. . ... ... : ... .. . ... : ... .. . F03 ...
ROW 74 : ... .. . ... ... ... : F-3 02 6 ... P80 ... : ... .. . ... ... : ... .. . ... : ... .. . F02 ...
ROW 75 : D-4 00 2 ... P7E ... : ... .. . ... ... ... : ... .. . ... ... : ... .. . ... : ... .. . F01 ...
ROW 76 : ... .. . ... ... ... : A#3 02 3 ... P7F ... : ... .. . ... ... : ... .. . ... : ... .. . F02 ...
ROW 77 : F-3 00 5 ... P80 ... : ... .. . ... ... ... : ... .. . ... ... : ... .. . ... : ... .. . F03 ...
ROW 78 : ... .. . ... ... ... : C-3 02 5 ... P80 ... : ... .. . ... ... : ... .. . ... : ... .. . F02 ...
ROW 79 : A#3 00 2 ... P7E ... : ... .. . ... ... ... : ... .. . ... ... : ... .. . ... : ... .. . F01 ...
ROW 7A : ... .. . ... ... ... : F-3 02 2 ... P7F ... : ... .. . ... ... : ... .. . ... : ... .. . F02 ...
ROW 7B : C-3 00 5 ... P80 ... : ... .. . ... ... ... : ... .. . ... ... : ... .. . ... : ... .. . F03 ...
ROW 7C : ... .. . ... ... ... : D-3 02 4 ... P80 ... : ... .. . ... ... : ... .. . ... : ... .. . F02 ...
ROW 7D : F-3 00 2 ... P7E ... : ... .. . ... ... ... : ... .. . ... ... : ... .. . ... : ... .. . F01 ...
ROW 7E : ... .. . ... ... ... : C-3 02 2 ... P7F ... : ... .. . ... ... : ... .. . ... : ... .. . F02 ...
ROW 7F : D-3 00 5 ... P80 ... : ... .. . ... ... ... : ... .. . ... ... : ... .. . ... : ... .. . F03 ...

PATTERN 08
ROW 00 : ... .. . ... ... ... : D#3 02 3 V02 P80 ... : C-2 01 . P80 ... : ... .. . ... : ... .. . F02 ...
ROW 01 : C-3 00 2 ... P7F ... : ... .. . ... ... ... : ... .. . ... ... : ... .. . ... : ... .. . F01 ...
ROW 02 : ... .. . ... ... ... : ... .. 1 ... ... ... : ... .. . P7F ... : ... .. . ... : ... .. . F02 ...
ROW 03 : D#3 00 1 V02 ... ... : ... .. 0 ... P7F ... : --- .. . ... ... : ... .. . ... : ... .. . F03 ...
ROW 04 : ... .. . ... ... ... : ... .. 2 ... ... ... : C-2 01 . P80 ... : ... .. . ... : ... .. . F02 ...
ROW 05 : ... .. 1 ... ... ... : ... .. . ... ... ... : ... .. . ... ... : ... .. . ... : ... .. . F01 ...
ROW 06 : ... .. 0 ... ... ... : ... .. 1 ... ... ... : ... .. . ... ... : ... .. . ... : ... .. . F02 ...
ROW 07 : ... .. . ... ... ... : ... .. 0 ... ... ... : ... .. . P7F ... : ... .. . ... : ... .. . F03 ...
ROW 08 : G#3 00 5 V01 P80 ... : D#3 02 4 ... P80 ... : --- .. . ... ... : ... .. . ... : ... .. . F02 ...
ROW 09 : ... .. . ... ... ... : ... .. . ... ... ... : ... .. . ... ... : ... .. . ... : ... .. . F01 ...
ROW 0A : ... .. . ... ... ... : ... .. 1 ... P7F ... : ... .. . ... ... : ... .. . ... : ... .. . F02 ...
ROW 0B : ... .. . ... ... ... : ... .. 0 ... ... ... : ... .. . ... ... : ... .. . ... : ... .. . F03 ...
ROW 0C : ... .. . ... ... ... : G#3 00 2 ... V00 ... : ... .. . ... ... : ... .. . ... : ... .. . F02 ...
ROW 0D : ... .. . ... ... ... : ... .. . ... ... ... : ... .. . ... ... : ... .. . ... : ... .. . F01 ...
ROW 0E : ... .. . ... ... ... : ... .. 1 ... ... ... : ... .. . ... ... : ... .. . ... : ... .. . F02 ...
ROW 0F : ... .. 4 ... ... ... : ... .. . ... ... ... : ... .. . ... ... : ... .. . ... : ... .. . F03 ...
ROW 10 : ... .. 3 ... P7F ... : D#3 02 5 ... P80 ... : ... .. . ... ... : ... .. . ... : ... .. . F02 ...
ROW 11 : ... .. 4 ... ... ... : ... .. . ... ... ... : ... .. . ... ... : ... .. . ... : ... .. . F01 ...
ROW 12 : ... .. 1 ... ... ... : ... .. 1 ... P7F ... : ... .. . ... ... : ... .. . ... : ... .. . F02 ...
ROW 13 : ... .. 0 ... ... ... : ... .. 0 ... ... ... : ... .. . ... ... : ... .. . ... : ... .. . F03 ...
ROW 14 : F#3 00 7 V00 P80 ... : ... .. 2 ... ... ... : C-2 01 . P80 ... : ... .. . ... : ... .. . F02 ...
ROW 15 : ... .. . ... ... ... : ... .. . ... ... ... : ... .. . ... ... : ... .. . ... : ... .. . F01 ...
ROW 16 : ... .. . ... ... ... : ... .. 1 ... ... ... : ... .. . P7F ... : ... .. . ... : ... .. . F02 ...
ROW 17 : ... .. . ... ... ... : ... .. 0 ... ... ... : --- .. . ... ... : ... .. . ... : ... .. . F03 ...
ROW 18 : ... .. 4 ... ... ... : D#3 02 6 ... P80 ... : C-3 01 . P80 ... : ... .. . ... : ... .. . F02 ...
ROW 19 : ... .. . ... ... ... : ... .. . ... ... ... : ... .. . ... ... : ... .. . ... : ... .. . F01 ...
ROW 1A : ... .. 3 ... ... ... : ... .. 1 ... P7F ... : ... .. . ... ... : ... .. . ... : ... .. . F02 ...
ROW 1B : ... .. 4 ... ... ... : ... .. 0 ... ... ... : ... .. . ... ... : ... .. . ... : ... .. . F03 ...
ROW 1C : G#3 00 . ... P7F ... : F#3 00 3 V00 ... ... : ... .. . ... ... : ... .. . ... : ... .. . F02 ...
ROW 1D : ... .. . ... ... ... : ... .. . ... ... ... : ... .. . ... ... : ... .. . ... : ... .. . F01 ...
ROW 1E : ... .. 1 ... ... ... : ... .. 1 ... ... ... : ... .. . ... ... : ... .. . ... : ... .. . F02 ...
ROW 1F : ... .. 0 ... ... ... : ... .. 0 ... ... ... : ... .. . P7F ... : ... .. . ... : ... .. . F03 ...
ROW 20 : F-3 00 8 V01 P80 ... : D#3 02 7 ... P80 ... : --- .. . ... ... : ... .. . ... : ... .. . F02 ...
ROW 21 : ... .. . ... ... ... : ... .. . ... ... ... : ... .. . ... ... : ... .. . ... : ... .. . F01 ...
ROW 22 : ... .. . ... ... ... : ... .. 1 ... P7F ... : ... .. . ... ... : ... .. . ... : ... .. . F02 ...
ROW 23 : ... .. . ... ... ... : ... .. 0 ... ... ... : ... .. . ... ... : ... .. . ... : ... .. . F03 ...
ROW 24 : ... .. . ... ... ... : F-3 00 3 V00 ... ... : ... .. . ... ... : ... .. . ... : ... .. . F02 ...
ROW 25 : ... .. 4 ... ... ... : ... .. . ... ... ... : ... .. . ... ... : ... .. . ... : ... .. . F01 ...
ROW 26 : ... .. . ... ... ... : ... .. 1 ... ... ... : ... .. . ... ... : ... .. . ... : ... .. . F02 ...
ROW 27 : ... .. 3 ... ... ... : ... .. . ... ... ... : ... .. . ... ... : ... .. . ... : ... .. . F03 ...
ROW 28 : F#3 00 4 ... P7F ... : D#3 02 6 ... P80 ... : ... .. . ... ... : ... .. . ... : ... .. . F02 ...
ROW 29 : ... .. . ... ... ... : ... .. . ... ... ... : ... .. . ... ... : ... .. . ... : ... .. . F01 ...
ROW 2A : ... .. 1 ... ... ... : ... .. 1 ... P7F ... : ... .. . ... ... : ... .. . ... : ... .. . F02 ...
ROW 2B : ... .. 0 ... ... ... : ... .. 0 ... ... ... : ... .. . ... ... : ... .. . ... : ... .. . F03 ...
ROW 2C : F#3 00 7 V00 P80 ... : ... .. 3 ... ... P7F : C#3 01 . P80 ... : ... .. . ... : ... .. . F02 ...
ROW 2D : ... .. . ... ... ... : ... .. . ... ... ... : ... .. . ... ... : ... .. . ... : ... .. . F01 ...
ROW 2E : ... .. . ... ... ... : ... .. 1 ... ... ... : ... .. . P7F ... : ... .. . ... : ... .. . F02 ...
ROW 2F : ... .. . ... ... ... : ... .. 0 ... ... ... : --- .. . ... ... : ... .. . ... : ... .. . F03 ...
ROW 30 : ... .. . ... ... ... : D#3 02 5 ... P80 ... : C-3 01 . P80 ... : ... .. . ... : ... .. . F02 ...
ROW 31 : ... .. . ... ... ... : ... .. . ... ... ... : ... .. . ... ... : ... .. . ... : ... .. . F01 ...
ROW 32 : ... .. . ... ... ... : ... .. 1 ... P7F ... : ... .. . P7F ... : ... .. . ... : ... .. . F02 ...
ROW 33 : ... .. . ... ... ... : ... .. 0 ... ... ... : --- .. . ... ... : ... .. . ... : ... .. . F03 ...
ROW 34 : ... .. . ... ... ... : F#3 00 2 V00 ... P7F : C-2 01 . P80 ... : ... .. . ... : ... .. . F02 ...
ROW 35 : ... .. . ... ... ... : ... .. . ... ... ... : ... .. . ... ... : ... .. . ... : ... .. . F01 ...
ROW 36 : ... .. . ... ... ... : ... .. 1 ... ... ... : ... .. . ... ... : ... .. . ... : ... .. . F02 ...
ROW 37 : ... .. . ... ... ... : ... .. . ... ... ... : ... .. . P7F ... : ... .. . ... : ... .. . F03 ...
ROW 38 : ... .. . ... ... ... : D#3 02 4 ... P80 ... : --- .. . ... ... : ... .. . ... : ... .. . F02 ...
ROW 39 : ... .. . ... ... ... : ... .. . ... ... ... : ... .. . ... ... : ... .. . ... : ... .. . F01 ...
ROW 3A : ... .. . ... ... ... : ... .. 1 ... ... ... : ... .. . ... ... : ... .. . ... : ... .. . F02 ...
ROW 3B : ... .. . ... ... ... : ... .. . ... P7F P7F : ... .. . ... ... : ... .. . ... : ... .. . F03 ...
ROW 3C : ... .. 4 ... ... ... : ... .. 0 ... ... ... : C#2 01 . P80 ... : ... .. . ... : ... .. . F02 ...
ROW 3D : ... .. . ... ... ... : ... .. . ... ... ... : ... .. . ... ... : ... .. . ... : ... .. . F01 ...
ROW 3E : ... .. 3 454 ... ... : ... .. . ... ... ... : ... .. . P7F ... : ... .. . ... : ... .. . F02 ...
ROW 3F : ... .. . ... ... ... : ... .. . ... ... ... : --- .. . ... ... : ... .. . ... : ... .. . F03 ...
ROW 40 : ... .. . ... ... ... : D#3 02 3 ... P80 ... : C-2 01 . P80 ... : ... .. . ... : ... .. . F02 ...
ROW 41 : ... .. . ... P7F ... : ... .. . ... ... ... : ... .. . ... ... : ... .. . ... : ... .. . F01 ...
ROW 42 : ... .. 0 400 ... ... : ... .. 1 ... P7F ... : ... .. . P7F ... : ... .. . ... : ... .. . F02 ...
ROW 43 : ... .. . ... ... ... : ... .. 0 ... ... ... : --- .. . ... ... : ... .. . ... : ... .. . F03 ...
ROW 44 : D#3 00 2 V02 ... ... : ... .. 2 ... ... ... : F-1 01 . P80 ... : ... .. . ... : ... .. . F02 ...
ROW 45 : ... .. . ... ... ... : ... .. . ... ... ... : ... .. . ... ... : ... .. . ... : ... .. . F01 ...
ROW 46 : ... .. 1 ... ... ... : ... .. 1 ... ... ... : ... .. . ... ... : ... .. . ... : ... .. . F02 ...
ROW 47 : ... .. 0 ... ... ... : ... .. 0 ... ... ... : ... .. . P7F ... : ... .. . ... : ... .. . F03 ...
ROW 48 : F#3 00 5 V01 P80 ... : D#3 02 4 ... P80 ... : --- .. . ... ... : ... .. . ... : ... .. . F02 ...
ROW 49 : ... .. . ... ... ... : ... .. . ... ... ... : ... .. . ... ... : ... .. . ... : ... .. . F01 ...
ROW 4A : ... .. . ... ... ... : ... .. 1 ... P7F ... : ... .. . ... ... : ... .. . ... : ... .. . F02 ...
ROW 4B : ... .. . ... ... ... : ... .. 0 ... ... ... : ... .. . ... ... : ... .. . ... : ... .. . F03 ...
ROW 4C : ... .. . ... ... ... : F#3 00 2 V00 ... ... : ... .. . ... ... : ... .. . ... : ... .. . F02 ...
ROW 4D : ... .. . ... ... ... : ... .. . ... ... ... : ... .. . ... ... : ... .. . ... : ... .. . F01 ...
ROW 4E : ... .. . ... ... ... : ... .. 1 ... ... ... : ... .. . ... ... : ... .. . ... : ... .. . F02 ...
ROW 4F : ... .. 4 ... ... ... : ... .. . ... ... ... : ... .. . ... ... : ... .. . ... : ... .. . F03 ...
ROW 50 : F#3 00 3 ... P7F ... : D#3 02 5 ... P80 ... : ... .. . ... ... : ... .. . ... : ... .. . F02 ...
ROW 51 : ... .. 4 ... ... ... : ... .. . ... ... ... : ... .. . ... ... : ... .. . ... : ... .. . F01 ...
ROW 52 : ... .. 1 ... ... ... : ... .. 1 ... P7F ... : ... .. . ... ... : ... .. . ... : ... .. . F02 ...
ROW 53 : ... .. 0 ... ... ... : ... .. 0 ... ... ... : ... .. . ... ... : ... .. . ... : ... .. . F03 ...
ROW 54 : F-3 00 7 V00 P80 ... : ... .. 2 ... ... ... : C-2 01 . P80 ... : ... .. . ... : ... .. . F02 ...
ROW 55 : ... .. . ... ... ... : ... .. . ... ... ... : ... .. . ... ... : ... .. . ... : ... .. . F01 ...
ROW 56 : ... .. . ... ... ... : ... .. 1 ... ... ... : ... .. . P7F ... : ... .. . ... : ... .. . F02 ...
ROW 57 : ... .. . ... ... ... : ... .. 0 ... ... ... : --- .. . ... ... : ... .. . ... : ... .. . F03 ...
ROW 58 : ... .. 4 ... ... ... : D#3 02 6 ... P80 ... : F-3 01 . P80 ... : ... .. . ... : ... .. . F02 ...
ROW 59 : ... .. . ... ... ... : ... .. . ... ... ... : ... .. . ... ... : ... .. . ... : ... .. . F01 ...
ROW 5A : ... .. 3 ... ... ... : ... .. 1 ... P7F ... : ... .. . ... ... : ... .. . ... : ... .. . F02 ...
ROW 5B : ... .. 4 ... ... ... : ... .. 0 ... ... ... : ... .. . ... ... : ... .. . ... : ... .. . F03 ...
ROW 5C : F#3 00 . ... P7F ... : F-3 00 3 V00 ... ... : ... .. . ... ... : ... .. . ... : ... .. . F02 ...
ROW 5D : ... .. . ... ... ... : ... .. . ... ... ... : ... .. . ... ... : ... .. . ... : ... .. . F01 ...
ROW 5E : ... .. 1 ... ... ... : ... .. 1 ... ... ... : ... .. . ... ... : ... .. . ... : ... .. . F02 ...
ROW 5F : ... .. 0 ... ... ... : ... .. . ... ... ... : ... .. . P7F ... : ... .. . ... : ... .. . F03 ...
ROW 60 : G#3 00 8 V01 P80 ... : D#3 02 7 ... P80 ... : --- .. . ... ... : ... .. . ... : ... .. . F02 ...
ROW 61 : ... .. . ... ... ... : ... .. . ... ... ... : ... .. . ... ... : ... .. . ... : ... .. . F01 ...
ROW 62 : ... .. . ... ... ... : ... .. 1 ... P7F ... : ... .. . ... ... : ... .. . ... : ... .. . F02 ...
ROW 63 : ... .. . ... ... ... : ... .. 0 ... ... ... : ... .. . ... ... : ... .. . ... : ... .. . F03 ...
ROW 64 : ... .. . ... ... ... : G#3 00 3 V00 ... ... : ... .. . ... ... : ... .. . ... : ... .. . F02 ...
ROW 65 : ... .. 4 ... ... ... : ... .. . ... ... ... : ... .. . ... ... : ... .. . ... : ... .. . F01 ...
ROW 66 : ... .. . ... ... ... : ... .. 1 ... ... ... : ... .. . ... ... : ... .. . ... : ... .. . F02 ...
ROW 67 : ... .. 3 ... ... ... : ... .. . ... ... ... : ... .. . ... ... : ... .. . ... : ... .. . F03 ...
ROW 68 : F-3 00 4 ... P7F ... : D#3 02 6 ... P80 ... : ... .. . ... ... : ... .. . ... : ... .. . F02 ...
ROW 69 : ... .. . ... ... ... : ... .. . ... ... ... : ... .. . ... ... : ... .. . ... : ... .. . F01 ...
ROW 6A : ... .. 1 ... ... ... : ... .. 1 ... P7F ... : ... .. . ... ... : ... .. . ... : ... .. . F02 ...
ROW 6B : ... .. 0 ... ... ... : ... .. 0 ... ... ... : ... .. . ... ... : ... .. . ... : ... .. . F03 ...
ROW 6C : F#3 00 7 V00 P80 ... : ... .. 3 ... ... ... : B-1 01 . P80 ... : ... .. . ... : ... .. . F02 ...
ROW 6D : ... .. . ... ... ... : ... .. . ... ... ... : ... .. . ... ... : ... .. . ... : ... .. . F01 ...
ROW 6E : ... .. . ... ... ... : ... .. 1 ... ... ... : ... .. . P7F ... : ... .. . ... : ... .. . F02 ...
ROW 6F : ... .. . ... ... ... : ... .. 0 ... ... ... : --- 01 . ... ... : ... .. . ... : ... .. . F03 ...
ROW 70 : ... .. . ... ... ... : D#3 02 5 ... P80 ... : F-2 01 . P80 ... : ... .. . ... : ... .. . F02 ...
ROW 71 : ... .. . ... ... ... : ... .. . ... ... ... : ... .. . ... ... : ... .. . ... : ... .. . F01 ...
ROW 72 : ... .. . ... ... ... : ... .. 1 ... P7F ... : ... .. . P7F ... : ... .. . ... : ... .. . F02 ...
ROW 73 : ... .. . ... ... ... : ... .. 0 ... ... ... : --- .. . ... ... : ... .. . ... : ... .. . F03 ...
ROW 74 : ... .. . ... ... ... : F#3 00 2 V00 ... ... : B-1 01 . P80 ... : ... .. . ... : ... .. . F02 ...
ROW 75 : ... .. . ... ... ... : ... .. . ... ... ... : ... .. . ... ... : ... .. . ... : ... .. . F01 ...
ROW 76 : ... .. . ... ... ... : ... .. 1 ... ... ... : ... .. . P7F ... : ... .. . ... : ... .. . F02 ...
ROW 77 : ... .. . ... ... ... : ... .. . ... ... ... : --- .. . ... ... : ... .. . ... : ... .. . F03 ...
ROW 78 : ... .. . ... ... ... : D#3 02 4 ... P80 ... : ... .. . ... ... : ... .. . ... : ... .. . F02 ...
ROW 79 : ... .. . ... ... ... : ... .. . ... ... ... : ... .. . ... ... : ... .. . ... : ... .. . F01 ...
ROW 7A : ... .. . ... ... ... : ... .. 1 ... ... ... : ... .. . ... ... : ... .. . ... : ... .. . F02 ...
ROW 7B : ... .. . ... ... ... : ... .. . ... P7F ... : ... .. . ... ... : ... .. . ... : ... .. . F03 ...
ROW 7C : ... .. 4 454 ... ... : ... .. 0 ... ... ... : F-2 01 . P80 ... : ... .. . ... : ... .. . F02 ...
ROW 7D : ... .. . ... ... ... : ... .. . ... ... ... : ... .. . ... ... : ... .. . ... : ... .. . F01 ...
ROW 7E : ... .. 1 ... ... ... : ... .. . ... ... ... : ... .. . P7F ... : ... .. . ... : ... .. . F02 ...
ROW 7F : ... .. . ... P7F ... : ... .. . ... ... ... : --- .. . ... ... : ... .. . ... : ... .. . F03 ...

PATTERN 09
ROW 00 : ... .. 0 400 ... ... : D-3 02 3 ... P80 ... : A#1 01 . P80 ... : ... .. . ... : ... .. . F02 ...
ROW 01 : ... .. . ... ... ... : ... .. . ... ... ... : ... .. . ... ... : ... .. . ... : ... .. . F01 ...
ROW 02 : ... .. . ... ... ... : ... .. 1 ... P7F ... : ... .. . P7F ... : ... .. . ... : ... .. . F02 ...
ROW 03 : ... .. . ... ... ... : ... .. 0 ... ... ... : --- .. . ... ... : ... .. . ... : ... .. . F03 ...
ROW 04 : D-3 00 2 V02 ... ... : ... .. 2 ... ... ... : A#1 01 . P80 ... : ... .. . ... : ... .. . F02 ...
ROW 05 : ... .. . ... ... ... : ... .. . ... ... ... : ... .. . ... ... : ... .. . ... : ... .. . F01 ...
ROW 06 : ... .. 1 ... ... ... : ... .. 1 ... ... ... : ... .. . ... ... : ... .. . ... : ... .. . F02 ...
ROW 07 : ... .. 0 ... ... ... : ... .. 0 ... ... ... : ... .. . P7F ... : ... .. . ... : ... .. . F03 ...
ROW 08 : G-3 00 5 V01 P80 ... : D-3 02 4 ... P80 ... : --- .. . ... ... : ... .. . ... : ... .. . F02 ...
ROW 09 : ... .. . ... ... ... : ... .. . ... ... ... : ... .. . ... ... : ... .. . ... : ... .. . F01 ...
ROW 0A : ... .. . ... ... ... : ... .. 1 ... P7F ... : ... .. . ... ... : ... .. . ... : ... .. . F02 ...
ROW 0B : ... .. . ... ... ... : ... .. 0 ... ... ... : ... .. . ... ... : ... .. . ... : ... .. . F03 ...
ROW 0C : ... .. . ... ... ... : G-3 00 2 ... ... ... : ... .. . ... ... : ... .. . ... : ... .. . F02 ...
ROW 0D : ... .. . ... ... ... : ... .. . ... ... ... : ... .. . ... ... : ... .. . ... : ... .. . F01 ...
ROW 0E : ... .. . ... ... ... : ... .. 1 ... ... ... : ... .. . ... ... : ... .. . ... : ... .. . F02 ...
ROW 0F : ... .. 4 ... ... ... : ... .. . ... ... ... : ... .. . ... ... : ... .. . ... : ... .. . F03 ...
ROW 10 : F#3 00 3 ... P7F ... : D-3 02 5 ... P80 ... : ... .. . ... ... : ... .. . ... : ... .. . F02 ...
ROW 11 : ... .. 4 ... ... ... : ... .. . ... ... ... : ... .. . ... ... : ... .. . ... : ... .. . F01 ...
ROW 12 : ... .. 1 ... ... ... : ... .. 1 ... P7F ... : ... .. . ... ... : ... .. . ... : ... .. . F02 ...
ROW 13 : ... .. 0 ... ... ... : ... .. 0 ... ... ... : ... .. . ... ... : ... .. . ... : ... .. . F03 ...
ROW 14 : F-3 00 7 V00 P80 ... : ... .. 2 ... ... ... : A#1 01 . P80 ... : ... .. . ... : ... .. . F02 ...
ROW 15 : ... .. . ... ... ... : ... .. . ... ... ... : ... .. . ... ... : ... .. . ... : ... .. . F01 ...
ROW 16 : ... .. . ... ... ... : ... .. 1 ... ... ... : ... .. . P7F ... : ... .. . ... : ... .. . F02 ...
ROW 17 : ... .. . ... ... ... : ... .. 0 ... ... ... : --- .. . ... ... : ... .. . ... : ... .. . F03 ...
ROW 18 : ... .. 4 ... ... ... : D-3 02 6 ... P80 ... : A#2 01 . P80 ... : ... .. . ... : ... .. . F02 ...
ROW 19 : ... .. . ... ... ... : ... .. 2 ... ... ... : ... .. . ... ... : ... .. . ... : ... .. . F01 ...
ROW 1A : ... .. 3 ... ... ... : ... .. 1 ... P7F ... : ... .. . ... ... : ... .. . ... : ... .. . F02 ...
ROW 1B : ... .. 4 ... ... ... : ... .. 0 ... ... ... : ... .. . ... ... : ... .. . ... : ... .. . F03 ...
ROW 1C : G-3 00 . ... P7F ... : F-3 00 3 V00 ... ... : ... .. . ... ... : ... .. . ... : ... .. . F02 ...
ROW 1D : ... .. . ... ... ... : ... .. . ... ... ... : ... .. . ... ... : ... .. . ... : ... .. . F01 ...
ROW 1E : ... .. 1 ... ... ... : ... .. 1 ... ... ... : ... .. . ... ... : ... .. . ... : ... .. . F02 ...
ROW 1F : ... .. 0 ... ... ... : ... .. 0 ... ... ... : ... .. . P7F ... : ... .. . ... : ... .. . F03 ...
ROW 20 : E-3 00 8 V01 P80 ... : D-3 02 7 ... P80 ... : --- .. . ... ... : ... .. . ... : ... .. . F02 ...
ROW 21 : ... .. . ... ... ... : ... .. . ... ... ... : ... .. . ... ... : ... .. . ... : ... .. . F01 ...
ROW 22 : ... .. . ... ... ... : ... .. 1 ... P7F ... : ... .. . ... ... : ... .. . ... : ... .. . F02 ...
ROW 23 : ... .. . ... ... ... : ... .. 0 ... ... ... : ... .. . ... ... : ... .. . ... : ... .. . F03 ...
ROW 24 : ... .. . ... ... ... : E-3 00 3 V00 ... ... : ... .. . ... ... : ... .. . ... : ... .. . F02 ...
ROW 25 : ... .. 4 ... ... ... : ... .. . ... ... ... : ... .. . ... ... : ... .. . ... : ... .. . F01 ...
ROW 26 : ... .. . ... ... ... : ... .. 1 ... ... ... : ... .. . ... ... : ... .. . ... : ... .. . F02 ...
ROW 27 : ... .. 3 ... ... ... : ... .. . ... ... ... : ... .. . ... ... : ... .. . ... : ... .. . F03 ...
ROW 28 : F-3 00 4 ... P7F ... : D-3 02 8 ... P80 ... : ... .. . ... ... : ... .. . ... : ... .. . F02 ...
ROW 29 : ... .. . ... ... ... : ... .. . ... ... ... : ... .. . ... ... : ... .. . ... : ... .. . F01 ...
ROW 2A : ... .. 1 ... ... ... : ... .. 1 ... P7F ... : ... .. . ... ... : ... .. . ... : ... .. . F02 ...
ROW 2B : ... .. 0 ... ... ... : ... .. 0 ... ... ... : ... .. . ... ... : ... .. . ... : ... .. . F03 ...
ROW 2C : F-3 00 7 V00 P80 ... : ... .. 3 ... ... ... : F-2 01 . P80 ... : ... .. . ... : ... .. . F02 ...
ROW 2D : ... .. . ... ... ... : ... .. . ... ... ... : ... .. . ... ... : ... .. . ... : ... .. . F01 ...
ROW 2E : ... .. . ... ... ... : ... .. 1 ... ... ... : ... .. . P7F ... : ... .. . ... : ... .. . F02 ...
ROW 2F : ... .. . ... ... ... : ... .. 0 ... ... ... : --- .. . ... ... : ... .. . ... : ... .. . F03 ...
ROW 30 : ... .. . ... ... ... : D-3 02 9 ... P80 ... : A#2 01 . P80 ... : ... .. . ... : ... .. . F02 ...
ROW 31 : ... .. . ... ... ... : ... .. . ... ... ... : ... .. . ... ... : ... .. . ... : ... .. . F01 ...
ROW 32 : ... .. . ... ... ... : ... .. 1 ... P7F ... : ... .. . ... ... : ... .. . ... : ... .. . F02 ...
ROW 33 : ... .. . ... ... ... : ... .. 0 ... ... ... : ... .. . P7F ... : ... .. . ... : ... .. . F03 ...
ROW 34 : E-3 00 1 ... P7F ... : F-3 00 2 V00 ... ... : --- .. . ... ... : ... .. . ... : ... .. . F02 ...
ROW 35 : ... .. . ... ... ... : ... .. . ... ... ... : ... .. . ... ... : ... .. . ... : ... .. . F01 ...
ROW 36 : ... .. . ... ... ... : ... .. 1 ... ... ... : ... .. . ... ... : ... .. . ... : ... .. . F02 ...
ROW 37 : ... .. 0 ... ... ... : ... .. . ... ... ... : ... .. . ... ... : ... .. . ... : ... .. . F03 ...
ROW 38 : C#4 0E C ... P80 ... : G#3 0D C ... P80 ... : B-3 01 . P80 ... : ... .. . ... : ... .. . F02 ...
ROW 39 : ... .. . ... ... ... : ... .. . ... ... ... : ... .. . ... ... : ... .. . ... : ... .. . F01 ...
ROW 3A : ... .. . ... ... ... : ... .. . ... ... ... : ... .. . P7F ... : ... .. . ... : ... .. . F02 ...
ROW 3B : ... .. . ... ... ... : ... .. . ... ... ... : --- .. . ... ... : ... .. . ... : ... .. . F03 ...
ROW 3C : ... .. . ... ... ... : D-3 0D 5 ... P7F ... : G-2 01 . P80 ... : ... .. . ... : ... .. . F02 ...
ROW 3D : ... .. . ... ... ... : ... .. . ... ... ... : ... .. . ... ... : ... .. . ... : ... .. . F01 ...
ROW 3E : ... .. . ... ... ... : ... .. . ... ... ... : ... .. . P7F ... : ... .. . ... : ... .. . F02 ...
ROW 3F : ... .. . ... ... ... : ... .. 1 ... ... ... : --- .. . ... ... : ... .. . ... : ... .. . F03 ...
ROW 40 : ... .. . 454 ... 454 : F-3 0D C ... P80 ... : B-3 01 . P80 ... : ... .. . ... : ... .. . F02 ...
ROW 41 : ... .. . ... ... ... : ... .. . ... ... ... : ... .. . ... ... : ... .. . ... : ... .. . F01 ...
ROW 42 : ... .. . ... ... ... : ... .. . ... ... ... : ... .. . P7F ... : ... .. . ... : ... .. . F02 ...
ROW 43 : ... .. . ... ... ... : ... .. . ... ... ... : --- .. . ... ... : ... .. . ... : ... .. . F03 ...
ROW 44 : F-3 0E 4 400 P7F 400 : G#3 0D 5 ... P7F ... : G-2 01 . P80 ... : ... .. . ... : ... .. . F02 ...
ROW 45 : ... .. . ... ... ... : ... .. . ... ... ... : ... .. . ... ... : ... .. . ... : ... .. . F01 ...
ROW 46 : ... .. . ... ... ... : ... .. . ... ... ... : ... .. . P7F ... : ... .. . ... : ... .. . F02 ...
ROW 47 : ... .. 1 ... ... ... : ... .. 1 ... ... ... : --- .. . ... ... : ... .. . ... : ... .. . F03 ...
ROW 48 : G-3 0E C ... P80 ... : E-3 0D C ... P80 ... : G-1 01 . P80 ... : ... .. . ... : ... .. . F02 ...
ROW 49 : ... .. . ... ... ... : ... .. . ... ... ... : ... .. . ... ... : ... .. . ... : ... .. . F01 ...
ROW 4A : ... .. . ... ... ... : ... .. . ... ... ... : ... .. . ... ... : ... .. . ... : ... .. . F02 ...
ROW 4B : ... .. . ... ... ... : ... .. . ... ... ... : ... .. . ... ... : ... .. . ... : ... .. . F03 ...
ROW 4C : G#3 0E 4 ... P7F ... : F-3 0D 5 ... P7F ... : ... .. . ... ... : ... .. . ... : ... .. . F02 ...
ROW 4D : ... .. . ... ... ... : ... .. . ... ... ... : ... .. . ... ... : ... .. . ... : ... .. . F01 ...
ROW 4E : ... .. . ... ... ... : ... .. . ... ... ... : ... .. . ... ... : ... .. . ... : ... .. . F02 ...
ROW 4F : ... .. 1 ... ... ... : ... .. 1 ... ... ... : ... .. . P7F ... : ... .. . ... : ... .. . F03 ...
ROW 50 : G-3 0E C ... P80 ... : E-3 0D C ... P80 ... : --- .. . ... ... : ... .. . ... : ... .. . F02 ...
ROW 51 : ... .. . ... ... ... : ... .. . ... ... ... : ... .. . ... ... : ... .. . ... : ... .. . F01 ...
ROW 52 : ... .. . ... ... ... : ... .. . ... ... ... : ... .. . ... ... : ... .. . ... : ... .. . F02 ...
ROW 53 : ... .. . ... ... ... : ... .. . ... ... ... : ... .. . ... ... : ... .. . ... : ... .. . F03 ...
ROW 54 : G-3 0E 4 ... P7F ... : ... .. 5 ... P7F ... : G-2 01 . P80 ... : ... .. . ... : ... .. . F02 ...
ROW 55 : ... .. . ... ... ... : ... .. . ... ... ... : ... .. . ... ... : ... .. . ... : ... .. . F01 ...
ROW 56 : ... .. . ... ... ... : ... .. . ... ... ... : ... .. . P7F ... : ... .. . ... : ... .. . F02 ...
ROW 57 : ... .. 1 ... ... ... : ... .. 1 ... ... ... : --- .. . ... ... : ... .. . ... : ... .. . F03 ...
ROW 58 : G#3 0E C ... P80 ... : D#3 0D C ... P80 ... : F-3 01 . P80 ... : ... .. . ... : ... .. . F02 ...
ROW 59 : ... .. . ... ... ... : ... .. . ... ... ... : ... .. . ... ... : ... .. . ... : ... .. . F01 ...
ROW 5A : ... .. . ... ... ... : ... .. . ... ... ... : ... .. . P7F ... : ... .. . ... : ... .. . F02 ...
ROW 5B : ... .. . ... ... ... : ... .. . ... ... ... : --- .. . ... ... : ... .. . ... : ... .. . F03 ...
ROW 5C : ... .. . ... ... ... : ... .. . ... ... ... : G#3 01 . P80 ... : ... .. . ... : ... .. . F02 ...
ROW 5D : ... .. . ... ... ... : ... .. . ... ... ... : ... .. . ... ... : ... .. . ... : ... .. . F01 ...
ROW 5E : ... .. . ... ... ... : ... .. . ... ... ... : ... .. . P7F ... : ... .. . ... : ... .. . F02 ...
ROW 5F : ... .. . ... ... ... : ... .. . ... ... ... : --- .. . ... ... : ... .. . ... : ... .. . F03 ...
ROW 60 : ... .. . 454 ... 454 : E-3 0D 5 ... P7F ... : A#3 01 . P80 ... : ... .. . ... : ... .. . F02 ...
ROW 61 : ... .. . ... ... ... : ... .. . ... ... ... : ... .. . ... ... : ... .. . ... : ... .. . F01 ...
ROW 62 : ... .. . ... ... ... : ... .. . ... ... ... : ... .. . P7F ... : ... .. . ... : ... .. . F02 ...
ROW 63 : ... .. . ... ... ... : ... .. 1 ... ... ... : --- .. . ... ... : ... .. . ... : ... .. . F03 ...
ROW 64 : G-3 0E 1 400 P7F 400 : B-2 0D 9 ... P80 ... : G#3 01 . P80 ... : ... .. . ... : ... .. . F02 ...
ROW 65 : ... .. . ... ... ... : ... .. . ... ... ... : ... .. . ... ... : ... .. . ... : ... .. . F01 ...
ROW 66 : ... .. 0 ... ... ... : ... .. . ... ... ... : ... .. . P7F ... : ... .. . ... : ... .. . F02 ...
ROW 67 : B-2 00 2 ... P80 ... : A#2 0D 2 ... P7F ... : --- .. . ... ... : ... .. . ... : ... .. . F03 ...
ROW 68 : ... .. . ... ... ... : B-2 0D 9 ... P80 ... : G#3 01 . P80 ... : ... .. . ... : ... .. . F02 ...
ROW 69 : ... .. . ... ... ... : ... .. . ... ... ... : ... .. . ... ... : ... .. . ... : ... .. . F01 ...
ROW 6A : A#2 00 . ... P7E ... : ... .. . ... ... ... : ... .. . P7F ... : ... .. . ... : ... .. . F02 ...
ROW 6B : B-2 00 . ... P80 ... : B-2 0D 2 ... P7F ... : --- .. . ... ... : ... .. . ... : ... .. . F03 ...
ROW 6C : ... .. . ... ... ... : A#2 0D 9 ... P80 ... : F-3 01 . P80 ... : ... .. . ... : ... .. . F02 ...
ROW 6D : ... .. . ... ... ... : ... .. . ... ... ... : ... .. . ... ... : ... .. . ... : ... .. . F01 ...
ROW 6E : B-2 00 . ... P7E ... : ... .. . ... ... ... : ... .. . P7F ... : ... .. . ... : ... .. . F02 ...
ROW 6F : A#2 00 . ... P80 ... : B-2 0D 2 ... P7F ... : --- .. . ... ... : ... .. . ... : ... .. . F03 ...
ROW 70 : ... .. . ... ... ... : B-2 0D 9 ... P80 ... : F-3 01 . P80 ... : ... .. . ... : ... .. . F02 ...
ROW 71 : ... .. . ... ... ... : ... .. . ... ... ... : ... .. . ... ... : ... .. . ... : ... .. . F01 ...
ROW 72 : B-2 00 . ... P7E ... : ... .. . ... ... ... : ... .. . P7F ... : ... .. . ... : ... .. . F02 ...
ROW 73 : B-2 00 . ... P80 ... : A#2 0D 2 ... P7F ... : --- .. . ... ... : ... .. . ... : ... .. . F03 ...
ROW 74 : ... .. . ... ... ... : C#3 0D 9 ... P80 ... : G-2 01 . P80 ... : ... .. . ... : ... .. . F02 ...
ROW 75 : ... .. . ... ... ... : ... .. . ... ... ... : ... .. . ... ... : ... .. . ... : ... .. . F01 ...
ROW 76 : A#2 00 . ... P7E ... : ... .. . ... ... ... : ... .. . ... ... : ... .. . ... : ... .. . F02 ...
ROW 77 : C#3 00 . ... P80 ... : B-2 0D 2 ... P7F ... : ... .. . P7F ... : ... .. . ... : ... .. . F03 ...
ROW 78 : ... .. . ... ... ... : C#3 0D 9 ... P80 ... : --- .. . ... ... : ... .. . ... : ... .. . F02 ...
ROW 79 : ... .. . ... ... ... : ... .. . ... ... ... : ... .. . ... ... : ... .. . ... : ... .. . F01 ...
ROW 7A : B-2 00 . ... P7E ... : ... .. . ... ... ... : ... .. . ... ... : ... .. . ... : ... .. . F02 ...
ROW 7B : C#3 00 . ... P80 ... : C#3 0D 2 ... P7F ... : ... .. . ... ... : ... .. . ... : ... .. . F03 ...
ROW 7C : ... .. . ... ... ... : B-2 0D 9 ... P80 ... : G-2 01 . P80 ... : ... .. . ... : ... .. . F02 ...
ROW 7D : ... .. . ... ... ... : ... .. . ... ... ... : ... .. . ... ... : ... .. . ... : ... .. . F01 ...
ROW 7E : C#3 00 . ... P7E ... : ... .. . ... ... ... : ... .. . P7F ... : ... .. . ... : ... .. . F02 ...
ROW 7F : B-2 00 . ... P80 ... : C#3 0D 2 ... P7F ... : --- .. . ... ... : ... .. . ... : ... .. . F03 ...

PATTERN 0A
ROW 00 : ... .. . ... ... ... : D#3 02 3 V02 P80 ... : C-2 01 . P80 ... : ... .. . ... : ... .. . F02 ...
ROW 01 : ... .. . ... ... ... : ... .. . ... ... ... : ... .. . ... ... : ... .. . ... : ... .. . F01 ...
ROW 02 : C#3 00 2 V02 P7E ... : ... .. 1 ... ... ... : ... .. . P7F ... : ... .. . ... : ... .. . F02 ...
ROW 03 : D#3 00 1 V02 P80 ... : ... .. 0 ... P7F ... : --- .. . ... ... : ... .. . ... : ... .. . F03 ...
ROW 04 : ... .. . ... ... ... : ... .. 2 ... ... ... : C-2 01 . P80 ... : ... .. . ... : ... .. . F02 ...
ROW 05 : ... .. 1 ... ... ... : ... .. . ... ... ... : ... .. . ... ... : ... .. . ... : ... .. . F01 ...
ROW 06 : ... .. 0 ... ... ... : ... .. 1 ... ... ... : ... .. . ... ... : ... .. . ... : ... .. . F02 ...
ROW 07 : ... .. . ... ... ... : ... .. 0 ... ... ... : ... .. . P7F ... : ... .. . ... : ... .. . F03 ...
ROW 08 : G#3 00 5 V01 P80 ... : D#3 02 4 ... P80 ... : --- .. . ... ... : ... .. . ... : ... .. . F02 ...
ROW 09 : ... .. . ... ... ... : ... .. . ... ... ... : ... .. . ... ... : ... .. . ... : ... .. . F01 ...
ROW 0A : ... .. . ... ... ... : ... .. 1 ... P7F ... : ... .. . ... ... : ... .. . ... : ... .. . F02 ...
ROW 0B : ... .. . ... ... ... : ... .. 0 ... ... ... : ... .. . ... ... : ... .. . ... : ... .. . F03 ...
ROW 0C : ... .. . ... ... ... : G#3 00 2 ... V00 ... : ... .. . ... ... : ... .. . ... : ... .. . F02 ...
ROW 0D : ... .. . ... ... ... : ... .. . ... ... ... : ... .. . ... ... : ... .. . ... : ... .. . F01 ...
ROW 0E : ... .. . ... ... ... : ... .. 1 ... ... ... : ... .. . ... ... : ... .. . ... : ... .. . F02 ...
ROW 0F : ... .. 4 ... ... ... : ... .. . ... ... ... : ... .. . ... ... : ... .. . ... : ... .. . F03 ...
ROW 10 : ... .. 3 ... P7F ... : D#3 02 5 ... P80 ... : ... .. . ... ... : ... .. . ... : ... .. . F02 ...
ROW 11 : ... .. 4 ... ... ... : ... .. . ... ... ... : ... .. . ... ... : ... .. . ... : ... .. . F01 ...
ROW 12 : ... .. 1 ... ... ... : ... .. 1 ... P7F ... : ... .. . ... ... : ... .. . ... : ... .. . F02 ...
ROW 13 : ... .. 0 ... ... ... : ... .. 0 ... ... ... : ... .. . ... ... : ... .. . ... : ... .. . F03 ...
ROW 14 : F#3 00 7 V00 P80 ... : ... .. 2 ... ... ... : C-2 01 . P80 ... : ... .. . ... : ... .. . F02 ...
ROW 15 : ... .. . ... ... ... : ... .. . ... ... ... : ... .. . ... ... : ... .. . ... : ... .. . F01 ...
ROW 16 : ... .. . ... ... ... : ... .. 1 ... ... ... : ... .. . P7F ... : ... .. . ... : ... .. . F02 ...
ROW 17 : ... .. . ... ... ... : ... .. 0 ... ... ... : --- .. . ... ... : ... .. . ... : ... .. . F03 ...
ROW 18 : ... .. 4 ... ... ... : D#3 02 6 ... P80 ... : C-3 01 . P80 ... : ... .. . ... : ... .. . F02 ...
ROW 19 : ... .. . ... ... ... : ... .. . ... ... ... : ... .. . ... ... : ... .. . ... : ... .. . F01 ...
ROW 1A : ... .. 3 ... ... ... : ... .. 1 ... P7F ... : ... .. . ... ... : ... .. . ... : ... .. . F02 ...
ROW 1B : ... .. 4 ... ... ... : ... .. 0 ... ... ... : ... .. . ... ... : ... .. . ... : ... .. . F03 ...
ROW 1C : G#3 00 . ... P7F ... : F#3 00 3 V00 ... ... : ... .. . ... ... : ... .. . ... : ... .. . F02 ...
ROW 1D : ... .. . ... ... ... : ... .. . ... ... ... : ... .. . ... ... : ... .. . ... : ... .. . F01 ...
ROW 1E : ... .. 1 ... ... ... : ... .. 1 ... ... ... : ... .. . ... ... : ... .. . ... : ... .. . F02 ...
ROW 1F : ... .. 0 ... ... ... : ... .. 0 ... ... ... : ... .. . P7F ... : ... .. . ... : ... .. . F03 ...
ROW 20 : F-3 00 8 V01 P80 ... : D#3 02 7 ... P80 ... : --- .. . ... ... : ... .. . ... : ... .. . F02 ...
ROW 21 : ... .. . ... ... ... : ... .. . ... ... ... : ... .. . ... ... : ... .. . ... : ... .. . F01 ...
ROW 22 : ... .. . ... ... ... : ... .. 1 ... P7F ... : ... .. . ... ... : ... .. . ... : ... .. . F02 ...
ROW 23 : ... .. . ... ... ... : ... .. 0 ... ... ... : ... .. . ... ... : ... .. . ... : ... .. . F03 ...
ROW 24 : ... .. . ... ... ... : F-3 00 3 V00 ... ... : ... .. . ... ... : ... .. . ... : ... .. . F02 ...
ROW 25 : ... .. 4 ... ... ... : ... .. . ... ... ... : ... .. . ... ... : ... .. . ... : ... .. . F01 ...
ROW 26 : ... .. . ... ... ... : ... .. 1 ... ... ... : ... .. . ... ... : ... .. . ... : ... .. . F02 ...
ROW 27 : ... .. 3 ... ... ... : ... .. . ... ... ... : ... .. . ... ... : ... .. . ... : ... .. . F03 ...
ROW 28 : F#3 00 4 ... P7F ... : D#3 02 6 ... P80 ... : ... .. . ... ... : ... .. . ... : ... .. . F02 ...
ROW 29 : ... .. . ... ... ... : ... .. . ... ... ... : ... .. . ... ... : ... .. . ... : ... .. . F01 ...
ROW 2A : ... .. 1 ... ... ... : ... .. 1 ... P7F ... : ... .. . ... ... : ... .. . ... : ... .. . F02 ...
ROW 2B : ... .. 0 ... ... ... : ... .. 0 ... ... ... : ... .. . ... ... : ... .. . ... : ... .. . F03 ...
ROW 2C : F#3 00 7 V00 P80 ... : ... .. 3 ... ... P7F : C#3 01 . P80 ... : ... .. . ... : ... .. . F02 ...
ROW 2D : ... .. . ... ... ... : ... .. . ... ... ... : ... .. . ... ... : ... .. . ... : ... .. . F01 ...
ROW 2E : ... .. . ... ... ... : ... .. 1 ... ... ... : ... .. . P7F ... : ... .. . ... : ... .. . F02 ...
ROW 2F : ... .. . ... ... ... : ... .. 0 ... ... ... : --- .. . ... ... : ... .. . ... : ... .. . F03 ...
ROW 30 : ... .. . ... ... ... : D#3 02 5 ... P80 ... : C-3 01 . P80 ... : ... .. . ... : ... .. . F02 ...
ROW 31 : ... .. . ... ... ... : ... .. . ... ... ... : ... .. . ... ... : ... .. . ... : ... .. . F01 ...
ROW 32 : ... .. . ... ... ... : ... .. 1 ... P7F ... : ... .. . P7F ... : ... .. . ... : ... .. . F02 ...
ROW 33 : ... .. . ... ... ... : ... .. 0 ... ... ... : --- .. . ... ... : ... .. . ... : ... .. . F03 ...
ROW 34 : ... .. . ... ... ... : F#3 00 2 V00 ... P7F : C-2 01 . P80 ... : ... .. . ... : ... .. . F02 ...
ROW 35 : ... .. . ... ... ... : ... .. . ... ... ... : ... .. . ... ... : ... .. . ... : ... .. . F01 ...
ROW 36 : ... .. . ... ... ... : ... .. 1 ... ... ... : ... .. . ... ... : ... .. . ... : ... .. . F02 ...
ROW 37 : ... .. . ... ... ... : ... .. . ... ... ... : ... .. . P7F ... : ... .. . ... : ... .. . F03 ...
ROW 38 : ... .. . ... ... ... : D#3 02 4 ... P80 ... : --- .. . ... ... : ... .. . ... : ... .. . F02 ...
ROW 39 : ... .. . ... ... ... : ... .. . ... ... ... : ... .. . ... ... : ... .. . ... : ... .. . F01 ...
ROW 3A : ... .. . ... ... ... : ... .. 1 ... ... ... : ... .. . ... ... : ... .. . ... : ... .. . F02 ...
ROW 3B : ... .. . ... ... ... : ... .. . ... P7F P7F : ... .. . ... ... : ... .. . ... : ... .. . F03 ...
ROW 3C : ... .. 4 ... ... ... : ... .. 0 ... ... ... : F#2 01 . P80 ... : ... .. . ... : ... .. . F02 ...
ROW 3D : ... .. . ... ... ... : ... .. . ... ... ... : ... .. . ... ... : ... .. . ... : ... .. . F01 ...
ROW 3E : ... .. 3 454 ... ... : ... .. . ... ... ... : ... .. . P7F ... : ... .. . ... : ... .. . F02 ...
ROW 3F : ... .. . ... ... ... : ... .. . ... ... ... : --- .. . ... ... : ... .. . ... : ... .. . F03 ...
ROW 40 : ... .. . ... ... ... : D#3 02 3 ... P80 ... : F-2 01 . P80 ... : ... .. . ... : ... .. . F02 ...
ROW 41 : ... .. . ... P7F ... : ... .. . ... ... ... : ... .. . ... ... : ... .. . ... : ... .. . F01 ...
ROW 42 : ... .. 0 400 ... ... : ... .. 1 ... P7F ... : ... .. . P7F ... : ... .. . ... : ... .. . F02 ...
ROW 43 : ... .. . ... ... ... : ... .. 0 ... ... ... : --- .. . ... ... : ... .. . ... : ... .. . F03 ...
ROW 44 : D#3 00 2 V02 ... ... : ... .. 2 ... ... ... : F-1 01 . P80 ... : ... .. . ... : ... .. . F02 ...
ROW 45 : ... .. . ... ... ... : ... .. . ... ... ... : ... .. . ... ... : ... .. . ... : ... .. . F01 ...
ROW 46 : ... .. 1 ... ... ... : ... .. 1 ... ... ... : ... .. . ... ... : ... .. . ... : ... .. . F02 ...
ROW 47 : ... .. 0 ... ... ... : ... .. 0 ... ... ... : ... .. . P7F ... : ... .. . ... : ... .. . F03 ...
ROW 48 : F#3 00 5 V01 P80 ... : D#3 02 4 ... P80 ... : --- .. . ... ... : ... .. . ... : ... .. . F02 ...
ROW 49 : ... .. . ... ... ... : ... .. . ... ... ... : ... .. . ... ... : ... .. . ... : ... .. . F01 ...
ROW 4A : ... .. . ... ... ... : ... .. 1 ... P7F ... : ... .. . ... ... : ... .. . ... : ... .. . F02 ...
ROW 4B : ... .. . ... ... ... : ... .. 0 ... ... ... : ... .. . ... ... : ... .. . ... : ... .. . F03 ...
ROW 4C : ... .. . ... ... ... : F#3 00 2 V00 ... ... : ... .. . ... ... : ... .. . ... : ... .. . F02 ...
ROW 4D : ... .. . ... ... ... : ... .. . ... ... ... : ... .. . ... ... : ... .. . ... : ... .. . F01 ...
ROW 4E : ... .. . ... ... ... : ... .. 1 ... ... ... : ... .. . ... ... : ... .. . ... : ... .. . F02 ...
ROW 4F : ... .. 4 ... ... ... : ... .. . ... ... ... : ... .. . ... ... : ... .. . ... : ... .. . F03 ...
ROW 50 : F#3 00 3 ... P7F ... : D#3 02 5 ... P80 ... : ... .. . ... ... : ... .. . ... : ... .. . F02 ...
ROW 51 : ... .. 4 ... ... ... : ... .. . ... ... ... : ... .. . ... ... : ... .. . ... : ... .. . F01 ...
ROW 52 : ... .. 1 ... ... ... : ... .. 1 ... P7F ... : ... .. . ... ... : ... .. . ... : ... .. . F02 ...
ROW 53 : ... .. 0 ... ... ... : ... .. 0 ... ... ... : ... .. . ... ... : ... .. . ... : ... .. . F03 ...
ROW 54 : F-3 00 7 V00 P80 ... : ... .. 2 ... ... ... : C-2 01 . P80 ... : ... .. . ... : ... .. . F02 ...
ROW 55 : ... .. . ... ... ... : ... .. . ... ... ... : ... .. . ... ... : ... .. . ... : ... .. . F01 ...
ROW 56 : ... .. . ... ... ... : ... .. 1 ... ... ... : ... .. . P7F ... : ... .. . ... : ... .. . F02 ...
ROW 57 : ... .. . ... ... ... : ... .. 0 ... ... ... : --- .. . ... ... : ... .. . ... : ... .. . F03 ...
ROW 58 : ... .. 4 ... ... ... : D#3 02 6 ... P80 ... : F-3 01 . P80 ... : ... .. . ... : ... .. . F02 ...
ROW 59 : ... .. . ... ... ... : ... .. . ... ... ... : ... .. . ... ... : ... .. . ... : ... .. . F01 ...
ROW 5A : ... .. 3 ... ... ... : ... .. 1 ... P7F ... : ... .. . ... ... : ... .. . ... : ... .. . F02 ...
ROW 5B : ... .. 4 ... ... ... : ... .. 0 ... ... ... : ... .. . ... ... : ... .. . ... : ... .. . F03 ...
ROW 5C : F#3 00 . ... P7F ... : F-3 00 3 V00 ... ... : ... .. . ... ... : ... .. . ... : ... .. . F02 ...
ROW 5D : ... .. . ... ... ... : ... .. . ... ... ... : ... .. . ... ... : ... .. . ... : ... .. . F01 ...
ROW 5E : ... .. 1 ... ... ... : ... .. 1 ... ... ... : ... .. . ... ... : ... .. . ... : ... .. . F02 ...
ROW 5F : ... .. 0 ... ... ... : ... .. . ... ... ... : ... .. . P7F ... : ... .. . ... : ... .. . F03 ...
ROW 60 : G#3 00 8 V01 P80 ... : D#3 02 7 ... P80 ... : --- .. . ... ... : ... .. . ... : ... .. . F02 ...
ROW 61 : ... .. . ... ... ... : ... .. . ... ... ... : ... .. . ... ... : ... .. . ... : ... .. . F01 ...
ROW 62 : ... .. . ... ... ... : ... .. 1 ... P7F ... : ... .. . ... ... : ... .. . ... : ... .. . F02 ...
ROW 63 : ... .. . ... ... ... : ... .. 0 ... ... ... : ... .. . ... ... : ... .. . ... : ... .. . F03 ...
ROW 64 : ... .. . ... ... ... : G#3 00 3 V00 ... ... : ... .. . ... ... : ... .. . ... : ... .. . F02 ...
ROW 65 : ... .. 4 ... ... ... : ... .. . ... ... ... : ... .. . ... ... : ... .. . ... : ... .. . F01 ...
ROW 66 : ... .. . ... ... ... : ... .. 1 ... ... ... : ... .. . ... ... : ... .. . ... : ... .. . F02 ...
ROW 67 : ... .. 3 ... ... ... : ... .. . ... ... ... : ... .. . ... ... : ... .. . ... : ... .. . F03 ...
ROW 68 : F-3 00 4 ... P7F ... : D#3 02 6 ... P80 ... : ... .. . ... ... : ... .. . ... : ... .. . F02 ...
ROW 69 : ... .. . ... ... ... : ... .. . ... ... ... : ... .. . ... ... : ... .. . ... : ... .. . F01 ...
ROW 6A : ... .. 1 ... ... ... : ... .. 1 ... P7F ... : ... .. . ... ... : ... .. . ... : ... .. . F02 ...
ROW 6B : ... .. 0 ... ... ... : ... .. 0 ... ... ... : ... .. . ... ... : ... .. . ... : ... .. . F03 ...
ROW 6C : F#3 00 7 V00 P80 ... : ... .. 3 ... ... ... : B-1 01 . P80 ... : ... .. . ... : ... .. . F02 ...
ROW 6D : ... .. . ... ... ... : ... .. . ... ... ... : ... .. . ... ... : ... .. . ... : ... .. . F01 ...
ROW 6E : ... .. . ... ... ... : ... .. 1 ... ... ... : ... .. . P7F ... : ... .. . ... : ... .. . F02 ...
ROW 6F : ... .. . ... ... ... : ... .. 0 ... ... ... : --- 01 . ... ... : ... .. . ... : ... .. . F03 ...
ROW 70 : ... .. . ... ... ... : D#3 02 5 ... P80 ... : F-2 01 . P80 ... : ... .. . ... : ... .. . F02 ...
ROW 71 : ... .. . ... ... ... : ... .. . ... ... ... : ... .. . ... ... : ... .. . ... : ... .. . F01 ...
ROW 72 : ... .. . ... ... ... : ... .. 1 ... P7F ... : ... .. . P7F ... : ... .. . ... : ... .. . F02 ...
ROW 73 : ... .. . ... ... ... : ... .. 0 ... ... ... : --- .. . ... ... : ... .. . ... : ... .. . F03 ...
ROW 74 : ... .. . ... ... ... : F#3 00 2 V00 ... ... : B-1 01 . P80 ... : ... .. . ... : ... .. . F02 ...
ROW 75 : ... .. . ... ... ... : ... .. . ... ... ... : ... .. . ... ... : ... .. . ... : ... .. . F01 ...
ROW 76 : ... .. . ... ... ... : ... .. 1 ... ... ... : ... .. . P7F ... : ... .. . ... : ... .. . F02 ...
ROW 77 : ... .. . ... ... ... : ... .. . ... ... ... : --- .. . ... ... : ... .. . ... : ... .. . F03 ...
ROW 78 : ... .. . ... ... ... : D#3 02 4 ... P80 ... : ... .. . ... ... : ... .. . ... : ... .. . F02 ...
ROW 79 : ... .. . ... ... ... : ... .. . ... ... ... : ... .. . ... ... : ... .. . ... : ... .. . F01 ...
ROW 7A : ... .. . ... ... ... : ... .. 1 ... ... ... : ... .. . ... ... : ... .. . ... : ... .. . F02 ...
ROW 7B : ... .. . ... ... ... : ... .. . ... P7F ... : ... .. . ... ... : ... .. . ... : ... .. . F03 ...
ROW 7C : ... .. 4 454 ... ... : ... .. 0 ... ... ... : F-2 01 . P80 ... : ... .. . ... : ... .. . F02 ...
ROW 7D : ... .. . ... ... ... : ... .. . ... ... ... : ... .. . ... ... : ... .. . ... : ... .. . F01 ...
ROW 7E : ... .. 1 ... ... ... : ... .. . ... ... ... : ... .. . P7F ... : ... .. . ... : ... .. . F02 ...
ROW 7F : ... .. . ... P7F ... : ... .. . ... ... ... : --- .. . ... ... : ... .. . ... : ... .. . F03 ...

PATTERN 0B
ROW 00 : ... .. . 400 ... ... : D-3 02 7 ... P80 ... : A#1 01 . P80 ... : ... .. . ... : ... .. . F02 ...
ROW 01 : ... .. . ... ... ... : ... .. . ... ... ... : ... .. . ... ... : ... .. . ... : ... .. . F01 ...
ROW 02 : ... .. . ... ... ... : ... .. 1 ... ... ... : ... .. . P7F ... : ... .. . ... : ... .. . F02 ...
ROW 03 : ... .. . ... ... ... : ... .. 0 ... ... ... : --- .. . ... ... : ... .. . ... : ... .. . F03 ...
ROW 04 : D-3 00 2 V02 ... ... : D#3 02 4 ... P7F ... : A#1 01 . P80 ... : ... .. . ... : ... .. . F02 ...
ROW 05 : ... .. . ... ... ... : ... .. . ... ... ... : ... .. . ... ... : ... .. . ... : ... .. . F01 ...
ROW 06 : ... .. 1 ... ... ... : ... .. 1 ... ... ... : ... .. . ... ... : ... .. . ... : ... .. . F02 ...
ROW 07 : ... .. 0 ... ... ... : ... .. 0 ... ... ... : ... .. . P7F ... : ... .. . ... : ... .. . F03 ...
ROW 08 : G-3 00 5 V01 P80 ... : D-3 02 7 ... P80 ... : --- .. . ... ... : ... .. . ... : ... .. . F02 ...
ROW 09 : ... .. . ... ... ... : ... .. . ... ... ... : ... .. . ... ... : ... .. . ... : ... .. . F01 ...
ROW 0A : ... .. . ... ... ... : ... .. 1 ... ... ... : ... .. . ... ... : ... .. . ... : ... .. . F02 ...
ROW 0B : ... .. . ... ... ... : ... .. 0 ... ... ... : ... .. . ... ... : ... .. . ... : ... .. . F03 ...
ROW 0C : ... .. . ... ... ... : G-3 00 2 V00 P7F ... : ... .. . ... ... : ... .. . ... : ... .. . F02 ...
ROW 0D : ... .. . ... ... ... : ... .. . ... ... ... : ... .. . ... ... : ... .. . ... : ... .. . F01 ...
ROW 0E : ... .. . ... ... ... : ... .. 1 ... ... ... : ... .. . ... ... : ... .. . ... : ... .. . F02 ...
ROW 0F : ... .. 4 ... ... ... : ... .. 0 ... ... ... : ... .. . ... ... : ... .. . ... : ... .. . F03 ...
ROW 10 : F#3 00 3 ... P7F ... : D-3 02 7 ... P80 ... : ... .. . ... ... : ... .. . ... : ... .. . F02 ...
ROW 11 : ... .. 4 ... ... ... : ... .. . ... ... ... : ... .. . ... ... : ... .. . ... : ... .. . F01 ...
ROW 12 : ... .. 1 ... ... ... : ... .. 1 ... ... ... : ... .. . ... ... : ... .. . ... : ... .. . F02 ...
ROW 13 : ... .. 0 ... ... ... : ... .. 0 ... ... ... : ... .. . ... ... : ... .. . ... : ... .. . F03 ...
ROW 14 : F-3 00 7 V00 P80 ... : ... .. 4 ... P7F ... : A#1 01 . P80 ... : ... .. . ... : ... .. . F02 ...
ROW 15 : ... .. . ... ... ... : ... .. . ... ... ... : ... .. . ... ... : ... .. . ... : ... .. . F01 ...
ROW 16 : ... .. . ... ... ... : ... .. 1 ... ... ... : ... .. . P7F ... : ... .. . ... : ... .. . F02 ...
ROW 17 : ... .. . ... ... ... : ... .. 0 ... ... ... : --- .. . ... ... : ... .. . ... : ... .. . F03 ...
ROW 18 : ... .. 4 ... ... ... : D-3 02 7 ... P80 ... : A#2 01 . P80 ... : ... .. . ... : ... .. . F02 ...
ROW 19 : ... .. . ... ... ... : ... .. . ... ... ... : ... .. . ... ... : ... .. . ... : ... .. . F01 ...
ROW 1A : ... .. 3 ... ... ... : ... .. 1 ... ... ... : ... .. . ... ... : ... .. . ... : ... .. . F02 ...
ROW 1B : ... .. 4 ... ... ... : ... .. 0 ... ... ... : ... .. . P7F ... : ... .. . ... : ... .. . F03 ...
ROW 1C : G-3 00 . ... P7F ... : F-3 00 3 V00 ... ... : --- .. . ... ... : ... .. . ... : ... .. . F02 ...
ROW 1D : ... .. . ... ... ... : ... .. . ... ... ... : ... .. . ... ... : ... .. . ... : ... .. . F01 ...
ROW 1E : ... .. 1 ... ... ... : ... .. 1 ... ... ... : ... .. . ... ... : ... .. . ... : ... .. . F02 ...
ROW 1F : ... .. 0 ... ... ... : ... .. 0 ... ... ... : ... .. . ... ... : ... .. . ... : ... .. . F03 ...
ROW 20 : C-4 00 9 V01 P80 ... : G#3 02 8 ... P80 ... : G#3 01 . P80 ... : ... .. . ... : ... .. . F02 ...
ROW 21 : ... .. . ... ... ... : ... .. . ... ... ... : ... .. . ... ... : ... .. . ... : ... .. . F01 ...
ROW 22 : ... .. . ... ... ... : ... .. . ... ... ... : ... .. . P7F ... : ... .. . ... : ... .. . F02 ...
ROW 23 : ... .. . ... ... ... : ... .. . ... ... ... : --- 01 . ... ... : ... .. . ... : ... .. . F03 ...
ROW 24 : ... .. . ... ... ... : C-4 00 4 V00 P7F ... : F-2 01 . P80 ... : ... .. . ... : ... .. . F02 ...
ROW 25 : ... .. 5 ... ... ... : ... .. . ... ... ... : ... .. . ... ... : ... .. . ... : ... .. . F01 ...
ROW 26 : ... .. . ... ... ... : ... .. . ... ... ... : ... .. . ... ... : ... .. . ... : ... .. . F02 ...
ROW 27 : ... .. 4 ... ... ... : ... .. . ... ... ... : ... .. . P7F ... : ... .. . ... : ... .. . F03 ...
ROW 28 : F-3 00 5 ... P7F ... : G#3 02 8 ... P80 ... : --- .. . ... ... : ... .. . ... : ... .. . F02 ...
ROW 29 : ... .. . ... ... ... : ... .. . ... ... ... : ... .. . ... ... : ... .. . ... : ... .. . F01 ...
ROW 2A : ... .. 2 ... ... ... : ... .. . ... ... ... : ... .. . ... ... : ... .. . ... : ... .. . F02 ...
ROW 2B : ... .. 1 ... ... ... : ... .. . ... ... ... : ... .. . ... ... : ... .. . ... : ... .. . F03 ...
ROW 2C : A#3 00 8 V00 P80 ... : G#3 02 3 ... P7F ... : A#2 01 . P80 ... : ... .. . ... : ... .. . F02 ...
ROW 2D : ... .. . ... ... ... : ... .. . ... ... ... : ... .. . ... ... : ... .. . ... : ... .. . F01 ...
ROW 2E : ... .. . ... ... ... : ... .. . ... ... ... : ... .. . P7F ... : ... .. . ... : ... .. . F02 ...
ROW 2F : ... .. . ... ... ... : ... .. . ... ... ... : --- .. . ... ... : ... .. . ... : ... .. . F03 ...
ROW 30 : ... .. . ... ... ... : G-3 02 8 ... P80 ... : G#3 01 . P80 ... : ... .. . ... : ... .. . F02 ...
ROW 31 : ... .. . ... ... ... : ... .. . ... ... ... : ... .. . ... ... : ... .. . ... : ... .. . F01 ...
ROW 32 : ... .. . ... ... ... : ... .. . ... ... ... : ... .. . ... ... : ... .. . ... : ... .. . F02 ...
ROW 33 : ... .. . ... ... ... : ... .. . ... ... ... : ... .. . P7F ... : ... .. . ... : ... .. . F03 ...
ROW 34 : C-4 00 2 ... P7F ... : A#3 00 4 V00 P7F ... : --- .. . ... ... : ... .. . ... : ... .. . F02 ...
ROW 35 : ... .. . ... ... ... : ... .. . ... ... ... : ... .. . ... ... : ... .. . ... : ... .. . F01 ...
ROW 36 : ... .. . ... ... ... : ... .. . ... ... ... : ... .. . ... ... : ... .. . ... : ... .. . F02 ...
ROW 37 : ... .. 1 ... ... ... : ... .. . ... ... ... : ... .. . ... ... : ... .. . ... : ... .. . F03 ...
ROW 38 : F-4 0E C V01 P80 ... : F-3 02 A ... P80 ... : F#4 01 . P80 ... : ... .. . ... : ... .. . F02 ...
ROW 39 : ... .. . ... ... ... : ... .. . ... ... ... : ... .. . ... ... : ... .. . ... : ... .. . F01 ...
ROW 3A : ... .. . ... ... ... : ... .. . ... ... ... : ... .. . P7F ... : ... .. . ... : ... .. . F02 ...
ROW 3B : ... .. . ... ... ... : ... .. . ... ... ... : --- .. . ... ... : ... .. . ... : ... .. . F03 ...
ROW 3C : A#3 0E 3 ... P7F ... : E-3 02 4 ... P7F ... : A#3 01 . P80 ... : ... .. . ... : ... .. . F02 ...
ROW 3D : ... .. . ... ... ... : ... .. . ... ... ... : ... .. . ... ... : ... .. . ... : ... .. . F01 ...
ROW 3E : ... .. . ... ... ... : ... .. . ... ... ... : ... .. . P7F ... : ... .. . ... : ... .. . F02 ...
ROW 3F : ... .. 2 ... ... ... : ... .. . ... ... ... : --- .. . ... ... : ... .. . ... : ... .. . F03 ...
ROW 40 : C#4 0E A ... P80 ... : F-3 0D A ... P80 ... : F#3 01 . P80 ... : ... .. . ... : ... .. . F02 ...
ROW 41 : ... .. . ... ... ... : ... .. . ... ... ... : ... .. . ... ... : ... .. . ... : ... .. . F01 ...
ROW 42 : ... .. . ... ... ... : ... .. . ... ... ... : ... .. . P7F ... : ... .. . ... : ... .. . F02 ...
ROW 43 : ... .. . ... ... ... : ... .. . ... ... ... : --- .. . ... ... : ... .. . ... : ... .. . F03 ...
ROW 44 : ... .. . ... ... ... : ... .. . ... ... ... : A#2 01 . P80 ... : ... .. . ... : ... .. . F02 ...
ROW 45 : ... .. . ... ... ... : ... .. . ... ... ... : ... .. . ... ... : ... .. . ... : ... .. . F01 ...
ROW 46 : F-4 0E 4 ... P7F ... : C#4 0D 4 ... P7F ... : ... .. . P7F ... : ... .. . ... : ... .. . F02 ...
ROW 47 : ... .. 3 ... ... ... : ... .. . ... ... ... : --- .. . ... ... : ... .. . ... : ... .. . F03 ...
ROW 48 : C#4 0E A ... P80 ... : F#3 0D A ... P80 ... : E-2 01 . P80 ... : ... .. . ... : ... .. . F02 ...
ROW 49 : ... .. . ... ... ... : ... .. . ... ... ... : ... .. . ... ... : ... .. . ... : ... .. . F01 ...
ROW 4A : ... .. . ... ... ... : ... .. . ... ... ... : ... .. . ... ... : ... .. . ... : ... .. . F02 ...
ROW 4B : ... .. . ... ... ... : ... .. . ... ... ... : ... .. . ... ... : ... .. . ... : ... .. . F03 ...
ROW 4C : ... .. . ... ... ... : ... .. . ... ... ... : ... .. . ... ... : ... .. . ... : ... .. . F02 ...
ROW 4D : ... .. . ... ... ... : ... .. . ... ... ... : ... .. . ... ... : ... .. . ... : ... .. . F01 ...
ROW 4E : ... .. 3 ... P7F ... : F-3 0D 4 ... P7F ... : ... .. . ... ... : ... .. . ... : ... .. . F02 ...
ROW 4F : ... .. 2 ... ... ... : ... .. . ... ... ... : ... .. . ... ... : ... .. . ... : ... .. . F03 ...
ROW 50 : C#4 0E A ... P80 ... : F#3 0D A ... P80 ... : ... .. . ... ... : ... .. . ... : ... .. . F02 ...
ROW 51 : ... .. . ... ... ... : ... .. . ... ... ... : ... .. . ... ... : ... .. . ... : ... .. . F01 ...
ROW 52 : ... .. . ... ... ... : ... .. . ... ... ... : ... .. . P7F ... : ... .. . ... : ... .. . F02 ...
ROW 53 : ... .. . ... ... ... : ... .. . ... ... ... : --- .. . ... ... : ... .. . ... : ... .. . F03 ...
ROW 54 : ... .. . ... ... ... : ... .. . ... ... ... : A#2 01 . P80 ... : ... .. . ... : ... .. . F02 ...
ROW 55 : ... .. . ... ... ... : ... .. . ... ... ... : ... .. . ... ... : ... .. . ... : ... .. . F01 ...
ROW 56 : ... .. 3 ... P7F ... : F#3 0D 6 ... P7F ... : ... .. . P7F ... : ... .. . ... : ... .. . F02 ...
ROW 57 : ... .. 2 ... ... ... : ... .. . ... ... ... : --- .. . ... ... : ... .. . ... : ... .. . F03 ...
ROW 58 : C#4 0E A ... P80 ... : F-3 0D A ... P80 ... : F#3 01 . P80 ... : ... .. . ... : ... .. . F02 ...
ROW 59 : ... .. . ... ... ... : ... .. . ... ... ... : ... .. . ... ... : ... .. . ... : ... .. . F01 ...
ROW 5A : ... .. . ... ... ... : ... .. . ... ... ... : ... .. . P7F ... : ... .. . ... : ... .. . F02 ...
ROW 5B : ... .. . ... ... ... : ... .. . ... ... ... : --- .. . ... ... : ... .. . ... : ... .. . F03 ...
ROW 5C : ... .. . ... ... ... : ... .. . ... ... ... : C#4 01 . P80 ... : ... .. . ... : ... .. . F02 ...
ROW 5D : ... .. . ... ... ... : ... .. . ... ... ... : ... .. . ... ... : ... .. . ... : ... .. . F01 ...
ROW 5E : ... .. 3 ... P7F ... : F#3 0D 6 ... P7F ... : ... .. . P7F ... : ... .. . ... : ... .. . F02 ...
ROW 5F : ... .. 2 ... ... ... : ... .. . ... ... ... : --- .. . ... ... : ... .. . ... : ... .. . F03 ...
ROW 60 : ... .. . ... P80 ... : G#3 0D A ... P80 ... : F-4 01 . P80 ... : ... .. . ... : ... .. . F02 ...
ROW 61 : ... .. . ... ... ... : ... .. . ... ... ... : ... .. . ... ... : ... .. . ... : ... .. . F01 ...
ROW 62 : G#3 0E 5 ... P80 ... : F-3 0D 4 ... P7F ... : ... .. . P7F ... : ... .. . ... : ... .. . F02 ...
ROW 63 : ... .. . ... ... ... : ... .. . ... ... ... : --- .. . ... ... : ... .. . ... : ... .. . F03 ...
ROW 64 : F-3 0E . ... P7E ... : G-3 0D A ... P80 ... : E-4 01 . P80 ... : ... .. . ... : ... .. . F02 ...
ROW 65 : ... .. . ... ... ... : ... .. . ... ... ... : ... .. . ... ... : ... .. . ... : ... .. . F01 ...
ROW 66 : G-3 0E . ... P80 ... : G#3 0D 4 ... P7F ... : ... .. . P7F ... : ... .. . ... : ... .. . F02 ...
ROW 67 : ... .. . ... ... ... : ... .. . ... ... ... : --- .. . ... ... : ... .. . ... : ... .. . F03 ...
ROW 68 : G#3 0E . ... P7E ... : G-3 0D A ... P80 ... : E-4 01 . P80 ... : ... .. . ... : ... .. . F02 ...
ROW 69 : ... .. . ... ... ... : ... .. . ... ... ... : ... .. . ... ... : ... .. . ... : ... .. . F01 ...
ROW 6A : G-3 0E . ... P80 ... : G-3 0D 4 ... P7F ... : ... .. . P7F ... : ... .. . ... : ... .. . F02 ...
ROW 6B : ... .. . ... ... ... : ... .. . ... ... ... : --- .. . ... ... : ... .. . ... : ... .. . F03 ...
ROW 6C : G-3 0E . ... P7E ... : F-3 0D A ... P80 ... : C#4 01 . P80 ... : ... .. . ... : ... .. . F02 ...
ROW 6D : ... .. . ... ... ... : ... .. . ... ... ... : ... .. . ... ... : ... .. . ... : ... .. . F01 ...
ROW 6E : F-3 0E . ... P80 ... : G-3 0D 4 ... P7F ... : ... .. . P7F ... : ... .. . ... : ... .. . F02 ...
ROW 6F : ... .. . ... ... ... : ... .. . ... ... ... : --- .. . ... ... : ... .. . ... : ... .. . F03 ...
ROW 70 : D-3 0E A ... P80 ... : B-2 0D A ... P80 ... : F#3 01 . P80 ... : ... .. . ... : ... .. . F02 ...
ROW 71 : ... .. . ... ... ... : ... .. . ... ... ... : ... .. . ... ... : ... .. . ... : ... .. . F01 ...
ROW 72 : ... .. 2 ... P7F ... : ... .. . ... ... ... : ... .. . P7F ... : ... .. . ... : ... .. . F02 ...
ROW 73 : ... .. . ... ... ... : ... .. . ... ... ... : --- .. . ... ... : ... .. . ... : ... .. . F03 ...
ROW 74 : D#3 0E A ... P80 ... : F-3 0D 4 ... P7F ... : F#2 01 . P80 ... : ... .. . ... : ... .. . F02 ...
ROW 75 : ... .. . ... ... ... : ... .. . ... ... ... : ... .. . ... ... : ... .. . ... : ... .. . F01 ...
ROW 76 : ... .. 2 ... P7F ... : ... .. . ... ... ... : ... .. . ... ... : ... .. . ... : ... .. . F02 ...
ROW 77 : ... .. . ... ... ... : ... .. . ... ... ... : ... .. . P7F ... : ... .. . ... : ... .. . F03 ...
ROW 78 : E-3 0E A ... P80 ... : C-3 0D A ... P80 ... : --- .. . ... ... : ... .. . ... : ... .. . F02 ...
ROW 79 : ... .. . ... ... ... : ... .. . ... ... ... : ... .. . ... ... : ... .. . ... : ... .. . F01 ...
ROW 7A : ... .. 2 ... P7F ... : ... .. . ... ... ... : ... .. . ... ... : ... .. . ... : ... .. . F02 ...
ROW 7B : ... .. . ... ... ... : ... .. . ... ... ... : ... .. . ... ... : ... .. . ... : ... .. . F03 ...
ROW 7C : A-3 0E A ... P80 ... : C-3 0D 4 ... P7F ... : F#2 01 . P80 ... : ... .. . ... : ... .. . F02 ...
ROW 7D : ... .. . ... ... ... : ... .. . ... ... ... : ... .. . ... ... : ... .. . ... : ... .. . F01 ...
ROW 7E : ... .. 2 ... P7F ... : ... .. . ... ... ... : ... .. . P7F ... : ... .. . ... : ... .. . F02 ...
ROW 7F : ... .. . ... ... ... : ... .. . ... ... ... : --- .. . ... ... : ... .. . ... : ... .. . F03 ...

PATTERN 0C
ROW 00 : ... .. . ... ... ... : ... .. 1 ... ... ... : C#2 01 . P80 ... : ... .. . ... : ... .. . F02 ...
ROW 01 : ... .. . ... ... ... : ... .. . ... ... ... : ... .. . ... ... : ... .. . ... : ... .. . F01 ...
ROW 02 : ... .. . ... ... ... : ... .. . ... ... ... : ... .. . ... ... : ... .. . ... : ... .. . F02 ...
ROW 03 : ... .. . ... ... ... : ... .. . ... ... ... : ... .. . ... ... : ... .. . ... : ... .. . F03 ...
ROW 04 : ... .. . ... ... ... : C-4 0D B P80 ... ... : ... .. . ... ... : ... .. . ... : ... .. . F02 ...
ROW 05 : ... .. . ... ... ... : ... .. . ... ... ... : ... .. . ... ... : ... .. . ... : ... .. . F01 ...
ROW 06 : C-4 0D 2 P80 ... ... : ... .. 2 P7F ... ... : ... .. . ... ... : ... .. . ... : ... .. . F02 ...
ROW 07 : ... .. . ... ... ... : ... .. . ... ... ... : ... .. . P7F ... : ... .. . ... : ... .. . F03 ...
ROW 08 : ... .. . P7E ... ... : F#3 02 B P80 ... ... : --- .. . ... ... : ... .. . ... : ... .. . F02 ...
ROW 09 : ... .. . ... ... ... : ... .. . ... ... ... : ... .. . ... ... : ... .. . ... : ... .. . F01 ...
ROW 0A : F#3 0D . P80 ... ... : ... .. 2 P7F ... ... : ... .. . ... ... : ... .. . ... : ... .. . F02 ...
ROW 0B : ... .. . ... ... ... : ... .. . ... ... ... : ... .. . ... ... : ... .. . ... : ... .. . F03 ...
ROW 0C : ... .. . P7E ... ... : G-3 02 B P80 ... ... : B-3 01 . P80 ... : ... .. . ... : ... .. . F02 ...
ROW 0D : ... .. . ... ... ... : ... .. . ... ... ... : ... .. . ... ... : ... .. . ... : ... .. . F01 ...
ROW 0E : G-3 0D . P80 ... ... : ... .. 2 P7F ... ... : ... .. . P7F ... : ... .. . ... : ... .. . F02 ...
ROW 0F : ... .. . ... ... ... : ... .. . ... ... ... : --- .. . ... ... : ... .. . ... : ... .. . F03 ...
ROW 10 : E-4 0C B V01 P80 ... : B-3 0D B P80 ... ... : G-2 01 . P80 ... : ... .. . ... : ... .. . F02 ...
ROW 11 : ... .. . ... ... ... : ... .. . ... ... ... : ... .. . ... ... : ... .. . ... : ... .. . F01 ...
ROW 12 : ... .. . ... ... ... : ... .. 4 P7F ... ... : ... .. . P7F ... : ... .. . ... : ... .. . F02 ...
ROW 13 : ... .. . ... ... ... : ... .. . ... ... ... : --- .. . ... ... : ... .. . ... : ... .. . F03 ...
ROW 14 : ... .. . ... ... ... : G-3 02 B P80 ... ... : E-3 01 . P80 ... : ... .. . ... : ... .. . F02 ...
ROW 15 : ... .. . ... ... ... : ... .. . ... ... ... : ... .. . ... ... : ... .. . ... : ... .. . F01 ...
ROW 16 : ... .. . ... ... ... : B-3 02 4 P7F ... ... : ... .. . P7F ... : ... .. . ... : ... .. . F02 ...
ROW 17 : ... .. . ... ... ... : ... .. . ... ... ... : --- .. . ... ... : ... .. . ... : ... .. . F03 ...
ROW 18 : ... .. 2 454 P7F ... : E-3 02 B P80 ... ... : C#3 01 . P80 ... : ... .. . ... : ... .. . F02 ...
ROW 19 : ... .. . ... ... ... : ... .. . ... ... ... : ... .. . ... ... : ... .. . ... : ... .. . F01 ...
ROW 1A : ... .. . ... ... ... : G-3 02 4 P7F ... ... : ... .. . P7F ... : ... .. . ... : ... .. . F02 ...
ROW 1B : ... .. . ... ... ... : ... .. . ... ... ... : --- .. . ... ... : ... .. . ... : ... .. . F03 ...
ROW 1C : D#4 0C B 400 P80 ... : A#3 0D B P80 ... ... : F#2 01 . P80 ... : ... .. . ... : ... .. . F02 ...
ROW 1D : ... .. . ... ... ... : ... .. . ... ... ... : ... .. . ... ... : ... .. . ... : ... .. . F01 ...
ROW 1E : ... .. . ... ... ... : E-3 02 4 P7F ... ... : ... .. . ... ... : ... .. . ... : ... .. . F02 ...
ROW 1F : ... .. . ... ... ... : ... .. . ... ... ... : ... .. . P7F ... : ... .. . ... : ... .. . F03 ...
ROW 20 : ... .. . ... ... ... : G-3 02 B P80 ... ... : --- .. . ... ... : ... .. . ... : ... .. . F02 ...
ROW 21 : ... .. . ... ... ... : ... .. . ... ... ... : ... .. . ... ... : ... .. . ... : ... .. . F01 ...
ROW 22 : ... .. . ... ... ... : A#3 02 4 P7F ... ... : ... .. . ... ... : ... .. . ... : ... .. . F02 ...
ROW 23 : ... .. . ... ... ... : ... .. . ... ... ... : ... .. . ... ... : ... .. . ... : ... .. . F03 ...
ROW 24 : ... .. 2 454 P7F ... : E-3 02 B P80 ... ... : F#2 01 . P80 ... : ... .. . ... : ... .. . F02 ...
ROW 25 : ... .. . ... ... ... : ... .. . ... ... ... : ... .. . ... ... : ... .. . ... : ... .. . F01 ...
ROW 26 : ... .. . ... ... ... : G-3 02 4 P7F ... ... : ... .. . P7F ... : ... .. . ... : ... .. . F02 ...
ROW 27 : ... .. . ... ... ... : ... .. . ... ... ... : --- .. . ... ... : ... .. . ... : ... .. . F03 ...
ROW 28 : C-4 0C B 400 P80 ... : A-3 0D B P80 ... ... : F#1 01 . P80 ... : ... .. . ... : ... .. . F02 ...
ROW 29 : ... .. . ... ... ... : ... .. . ... ... ... : ... .. . ... ... : ... .. . ... : ... .. . F01 ...
ROW 2A : ... .. . ... ... ... : E-3 02 4 P7F ... ... : ... .. . ... ... : ... .. . ... : ... .. . F02 ...
ROW 2B : ... .. . ... ... ... : ... .. . ... ... ... : ... .. . ... ... : ... .. . ... : ... .. . F03 ...
ROW 2C : ... .. . ... ... ... : G-3 02 B P80 ... ... : ... .. . ... ... : ... .. . ... : ... .. . F02 ...
ROW 2D : ... .. . ... ... ... : ... .. . ... ... ... : ... .. . ... ... : ... .. . ... : ... .. . F01 ...
ROW 2E : ... .. . ... ... ... : A-3 02 4 P7F ... ... : ... .. . ... ... : ... .. . ... : ... .. . F02 ...
ROW 2F : ... .. . ... ... ... : ... .. . ... ... ... : ... .. . P7F ... : ... .. . ... : ... .. . F03 ...
ROW 30 : ... .. 2 454 P7F ... : E-3 02 B P80 ... ... : --- .. . ... ... : ... .. . ... : ... .. . F02 ...
ROW 31 : ... .. . ... ... ... : ... .. . ... ... ... : ... .. . ... ... : ... .. . ... : ... .. . F01 ...
ROW 32 : ... .. . ... ... ... : G-3 02 4 P7F ... ... : ... .. . ... ... : ... .. . ... : ... .. . F02 ...
ROW 33 : ... .. . ... ... ... : ... .. . ... ... ... : ... .. . ... ... : ... .. . ... : ... .. . F03 ...
ROW 34 : C#4 0C B 400 P80 ... : C-4 0D B P80 ... ... : A#3 01 . P80 ... : ... .. . ... : ... .. . F02 ...
ROW 35 : ... .. . ... ... ... : ... .. . ... ... ... : ... .. . ... ... : ... .. . ... : ... .. . F01 ...
ROW 36 : ... .. . ... ... ... : E-3 02 4 P7F ... ... : ... .. . P7F ... : ... .. . ... : ... .. . F02 ...
ROW 37 : ... .. . ... ... ... : ... .. . ... ... ... : --- .. . ... ... : ... .. . ... : ... .. . F03 ...
ROW 38 : ... .. . ... ... ... : G-3 02 B P80 ... ... : E-3 01 . P80 ... : ... .. . ... : ... .. . F02 ...
ROW 39 : ... .. . ... ... ... : ... .. . ... ... ... : ... .. . ... ... : ... .. . ... : ... .. . F01 ...
ROW 3A : ... .. . ... ... ... : C-4 02 4 P7F ... ... : ... .. . P7F ... : ... .. . ... : ... .. . F02 ...
ROW 3B : ... .. . ... ... ... : ... .. . ... ... ... : --- .. . ... ... : ... .. . ... : ... .. . F03 ...
ROW 3C : ... .. 2 454 P7F ... : E-3 02 B P80 ... ... : F#2 01 . P80 ... : ... .. . ... : ... .. . F02 ...
ROW 3D : ... .. . ... ... ... : ... .. . ... ... ... : ... .. . ... ... : ... .. . ... : ... .. . F01 ...
ROW 3E : ... .. . ... ... ... : G-3 02 4 P7F ... ... : ... .. . P7F ... : ... .. . ... : ... .. . F02 ...
ROW 3F : ... .. . ... ... ... : ... .. . ... ... ... : --- .. . ... ... : ... .. . ... : ... .. . F03 ...
ROW 40 : ... .. . ... ... ... : F-3 02 B P80 ... ... : B-2 01 . P80 ... : ... .. . ... : ... .. . F02 ...
ROW 41 : ... .. . ... ... ... : ... .. . ... ... ... : ... .. . ... ... : ... .. . ... : ... .. . F01 ...
ROW 42 : ... .. . ... ... ... : E-3 02 4 P7F ... ... : ... .. . P7F ... : ... .. . ... : ... .. . F02 ...
ROW 43 : ... .. . ... ... ... : ... .. . ... ... ... : --- .. . ... ... : ... .. . ... : ... .. . F03 ...
ROW 44 : D-4 0C B 400 P80 ... : A#3 0D B P80 ... ... : G-3 01 . P80 ... : ... .. . ... : ... .. . F02 ...
ROW 45 : ... .. . ... ... ... : ... .. . ... ... ... : ... .. . ... ... : ... .. . ... : ... .. . F01 ...
ROW 46 : ... .. . ... ... ... : F-3 02 4 P7F ... ... : ... .. . P7F ... : ... .. . ... : ... .. . F02 ...
ROW 47 : ... .. . ... ... ... : ... .. . ... ... ... : --- .. . ... ... : ... .. . ... : ... .. . F03 ...
ROW 48 : ... .. 2 ... P7F ... : F-3 02 B P80 ... ... : D-4 01 . P80 ... : ... .. . ... : ... .. . F02 ...
ROW 49 : ... .. . ... ... ... : ... .. . ... ... ... : ... .. . ... ... : ... .. . ... : ... .. . F01 ...
ROW 4A : ... .. . ... ... ... : A#3 02 4 P7F ... ... : ... .. . P7F ... : ... .. . ... : ... .. . F02 ...
ROW 4B : ... .. . ... ... ... : ... .. . ... ... ... : --- .. . ... ... : ... .. . ... : ... .. . F03 ...
ROW 4C : D#4 0C B ... P80 ... : F#3 0D B P80 ... ... : C#4 01 . P80 ... : ... .. . ... : ... .. . F02 ...
ROW 4D : ... .. . ... ... ... : ... .. . ... ... ... : ... .. . ... ... : ... .. . ... : ... .. . F01 ...
ROW 4E : ... .. . ... ... ... : F-3 02 4 P7F ... ... : ... .. . P7F ... : ... .. . ... : ... .. . F02 ...
ROW 4F : ... .. . ... ... ... : ... .. . ... ... ... : --- .. . ... ... : ... .. . ... : ... .. . F03 ...
ROW 50 : ... .. 2 ... P7F ... : A#3 02 B P80 ... ... : A#3 01 . P80 ... : ... .. . ... : ... .. . F02 ...
ROW 51 : ... .. . ... ... ... : ... .. . ... ... ... : ... .. . ... ... : ... .. . ... : ... .. . F01 ...
ROW 52 : ... .. . ... ... ... : F#3 02 4 P7F ... ... : ... .. . P7F ... : ... .. . ... : ... .. . F02 ...
ROW 53 : ... .. . ... ... ... : ... .. . ... ... ... : --- .. . ... ... : ... .. . ... : ... .. . F03 ...
ROW 54 : D#4 0C B V00 P80 ... : F#4 0D B P80 ... ... : D#3 01 . P80 ... : ... .. . ... : ... .. . F02 ...
ROW 55 : ... .. . ... ... ... : ... .. . ... ... ... : ... .. . ... ... : ... .. . ... : ... .. . F01 ...
ROW 56 : ... .. . ... ... ... : F#4 02 4 P7F ... ... : ... .. . P7F ... : ... .. . ... : ... .. . F02 ...
ROW 57 : ... .. 2 ... P7F ... : ... .. . ... ... ... : --- .. . ... ... : ... .. . ... : ... .. . F03 ...
ROW 58 : A#4 0C B V01 P80 ... : C#5 0D B P80 ... ... : F#2 01 . P80 ... : ... .. . ... : ... .. . F02 ...
ROW 59 : ... .. . ... ... ... : ... .. . ... ... ... : ... .. . ... ... : ... .. . ... : ... .. . F01 ...
ROW 5A : ... .. . ... ... ... : ... .. . ... ... ... : ... .. . P7F ... : ... .. . ... : ... .. . F02 ...
ROW 5B : ... .. . ... ... ... : ... .. . ... ... ... : --- .. . ... ... : ... .. . ... : ... .. . F03 ...
ROW 5C : ... .. . ... ... ... : ... .. . ... ... ... : D#3 01 . P80 ... : ... .. . ... : ... .. . F02 ...
ROW 5D : ... .. . ... ... ... : ... .. . ... ... ... : ... .. . ... ... : ... .. . ... : ... .. . F01 ...
ROW 5E : ... .. . ... ... ... : ... .. . ... ... ... : ... .. . P7F ... : ... .. . ... : ... .. . F02 ...
ROW 5F : ... .. . ... ... ... : ... .. . ... ... ... : --- .. . ... ... : ... .. . ... : ... .. . F03 ...
ROW 60 : ... .. . ... ... ... : ... .. . ... ... ... : F#2 01 . P80 ... : ... .. . ... : ... .. . F02 ...
ROW 61 : ... .. . ... ... ... : ... .. . ... ... ... : ... .. . ... ... : ... .. . ... : ... .. . F01 ...
ROW 62 : ... .. . ... ... ... : F#4 0D 1 P7F ... ... : ... .. . P7F ... : ... .. . ... : ... .. . F02 ...
ROW 63 : ... .. . ... ... ... : ... .. . ... ... ... : --- .. . ... ... : ... .. . ... : ... .. . F03 ...
ROW 64 : D#4 0C A ... P80 ... : G#4 0D A P80 ... ... : B-1 01 . P80 ... : ... .. . ... : ... .. . F02 ...
ROW 65 : ... .. . ... ... ... : ... .. . ... ... ... : ... .. . ... ... : ... .. . ... : ... .. . F01 ...
ROW 66 : ... .. . ... ... ... : ... .. . ... ... ... : ... .. . ... ... : ... .. . ... : ... .. . F02 ...
ROW 67 : ... .. 1 ... P7F 454 : C#5 0D 1 P7F ... ... : ... .. . ... ... : ... .. . ... : ... .. . F03 ...
ROW 68 : ... .. . ... ... ... : F#4 0D A P80 ... ... : ... .. . P7F ... : ... .. . ... : ... .. . F02 ...
ROW 69 : ... .. . ... ... ... : ... .. . ... ... ... : --- .. . ... ... : ... .. . ... : ... .. . F01 ...
ROW 6A : ... .. . ... ... ... : ... .. . ... ... ... : ... .. . ... ... : ... .. . ... : ... .. . F02 ...
ROW 6B : ... .. . ... ... ... : G#4 0D 1 P7F ... ... : ... .. . ... ... : ... .. . ... : ... .. . F03 ...
ROW 6C : ... .. . ... ... 400 : D#4 0D A P80 ... ... : ... .. . ... ... : ... .. . ... : ... .. . F02 ...
ROW 6D : ... .. . ... ... ... : ... .. . ... ... ... : ... .. . ... ... : ... .. . ... : ... .. . F01 ...
ROW 6E : ... .. . ... ... ... : ... .. . ... ... ... : ... .. . ... ... : ... .. . ... : ... .. . F02 ...
ROW 6F : ... .. . ... ... ... : ... .. . ... ... ... : ... .. . ... ... : ... .. . ... : ... .. . F03 ...
ROW 70 : A#3 0C A V00 P80 ... : ... .. 1 ... ... ... : ... .. . ... ... : ... .. . ... : ... .. . F02 ...
ROW 71 : ... .. . ... ... ... : ... .. . ... ... ... : ... .. . ... ... : ... .. . ... : ... .. . F01 ...
ROW 72 : ... .. . ... ... ... : ... .. . ... ... ... : ... .. . ... ... : ... .. . ... : ... .. . F02 ...
ROW 73 : ... .. 1 ... P7F ... : ... .. . P7F ... ... : ... .. . ... ... : ... .. . ... : ... .. . F03 ...
ROW 74 : G#3 0C A ... P80 ... : ... .. 0 ... ... ... : A#3 01 . P80 ... : ... .. . ... : ... .. . F02 ...
ROW 75 : ... .. . ... ... ... : ... .. . ... ... ... : ... .. . ... ... : ... .. . ... : ... .. . F01 ...
ROW 76 : ... .. . ... ... ... : ... .. . ... ... ... : ... .. . ... ... : ... .. . ... : ... .. . F02 ...
ROW 77 : ... .. 1 ... P7F ... : ... .. . ... ... ... : ... .. . ... ... : ... .. . ... : ... .. . F03 ...
ROW 78 : F-3 0C A ... P80 ... : ... .. . ... ... ... : ... .. . P7F ... : ... .. . ... : ... .. . F02 ...
ROW 79 : ... .. . ... ... ... : ... .. . ... ... ... : --- .. . ... ... : ... .. . ... : ... .. . F01 ...
ROW 7A : ... .. . ... ... ... : ... .. . ... ... ... : ... .. . ... ... : ... .. . ... : ... .. . F02 ...
ROW 7B : ... .. 1 ... P7F ... : ... .. . ... ... ... : ... .. . ... ... : ... .. . ... : ... .. . F03 ...
ROW 7C : F#3 0C A ... P80 ... : ... .. . ... ... ... : ... .. . ... ... : ... .. . ... : ... .. . F02 ...
ROW 7D : ... .. . ... ... ... : ... .. . ... ... ... : ... .. . ... ... : ... .. . ... : ... .. . F01 ...
ROW 7E : ... .. . ... ... ... : ... .. . ... ... ... : ... .. . ... ... : ... .. . ... : ... .. . F02 ...
ROW 7F : ... .. 1 ... P7F ... : ... .. . ... ... ... : ... .. . ... ... : ... .. . ... : ... .. . F03 ...

PATTERN 0D
ROW 00 : D-4 0C A V01 P80 ... : A-3 0D A P80 ... ... : E-2 01 . P80 ... : ... .. . ... : ... .. . F02 ...
ROW 01 : ... .. . ... ... ... : ... .. . ... ... ... : ... .. . ... ... : ... .. . ... : ... .. . F01 ...
ROW 02 : ... .. . ... ... ... : ... .. 1 P7F ... ... : ... .. . P7F ... : ... .. . ... : ... .. . F02 ...
ROW 03 : ... .. . ... ... ... : ... .. . ... ... ... : --- .. . ... ... : ... .. . ... : ... .. . F03 ...
ROW 04 : ... .. . ... ... ... : F#3 02 A P80 ... ... : C-3 01 . P80 ... : ... .. . ... : ... .. . F02 ...
ROW 05 : ... .. . ... ... ... : ... .. . ... ... ... : ... .. . ... ... : ... .. . ... : ... .. . F01 ...
ROW 06 : ... .. . ... ... ... : A-3 02 1 P7F ... ... : ... .. . P7F ... : ... .. . ... : ... .. . F02 ...
ROW 07 : ... .. . ... ... ... : ... .. . ... ... ... : --- .. . ... ... : ... .. . ... : ... .. . F03 ...
ROW 08 : ... .. 1 ... P7F ... : D-3 02 A P80 ... ... : A-3 01 . P80 ... : ... .. . ... : ... .. . F02 ...
ROW 09 : ... .. . ... ... ... : ... .. . ... ... ... : ... .. . ... ... : ... .. . ... : ... .. . F01 ...
ROW 0A : ... .. . ... ... ... : F#3 02 1 P7F ... ... : ... .. . ... ... : ... .. . ... : ... .. . F02 ...
ROW 0B : ... .. . ... ... ... : ... .. . ... ... ... : ... .. . ... ... : ... .. . ... : ... .. . F03 ...
ROW 0C : C#4 0C A ... P80 ... : A-3 0D A P80 ... ... : ... .. . ... ... : ... .. . ... : ... .. . F02 ...
ROW 0D : ... .. . ... ... ... : ... .. . ... ... ... : ... .. . ... ... : ... .. . ... : ... .. . F01 ...
ROW 0E : ... .. . ... ... ... : D-3 02 1 P7F ... ... : ... .. . ... ... : ... .. . ... : ... .. . F02 ...
ROW 0F : ... .. . ... ... ... : ... .. . ... ... ... : ... .. . P7F ... : ... .. . ... : ... .. . F03 ...
ROW 10 : ... .. . ... ... ... : F#3 02 A P80 ... ... : --- .. . ... ... : ... .. . ... : ... .. . F02 ...
ROW 11 : ... .. . ... ... ... : ... .. . ... ... ... : ... .. . ... ... : ... .. . ... : ... .. . F01 ...
ROW 12 : ... .. . ... ... ... : A-3 02 1 P7F ... ... : ... .. . ... ... : ... .. . ... : ... .. . F02 ...
ROW 13 : ... .. . ... ... ... : ... .. . ... ... ... : ... .. . ... ... : ... .. . ... : ... .. . F03 ...
ROW 14 : D-4 0C 1 ... P7F ... : D-3 02 A P80 ... ... : E-2 01 . P80 ... : ... .. . ... : ... .. . F02 ...
ROW 15 : ... .. . ... ... ... : ... .. . ... ... ... : ... .. . ... ... : ... .. . ... : ... .. . F01 ...
ROW 16 : ... .. . ... ... ... : F#3 02 1 P7F ... ... : ... .. . P7F ... : ... .. . ... : ... .. . F02 ...
ROW 17 : ... .. . ... ... ... : ... .. . ... ... ... : --- .. . ... ... : ... .. . ... : ... .. . F03 ...
ROW 18 : A#3 0C A ... P80 ... : G-3 0D A P80 ... ... : E-1 01 . P80 ... : ... .. . ... : ... .. . F02 ...
ROW 19 : ... .. . ... ... ... : ... .. . ... ... ... : ... .. . ... ... : ... .. . ... : ... .. . F01 ...
ROW 1A : ... .. . ... ... ... : D-3 02 1 P7F ... ... : ... .. . ... ... : ... .. . ... : ... .. . F02 ...
ROW 1B : ... .. . ... ... ... : ... .. . ... ... ... : ... .. . ... ... : ... .. . ... : ... .. . F03 ...
ROW 1C : ... .. . ... ... ... : F-3 0D A P80 ... ... : ... .. . ... ... : ... .. . ... : ... .. . F02 ...
ROW 1D : ... .. . ... ... ... : ... .. . ... ... ... : ... .. . ... ... : ... .. . ... : ... .. . F01 ...
ROW 1E : ... .. . ... ... ... : G-3 02 1 P7F ... ... : ... .. . ... ... : ... .. . ... : ... .. . F02 ...
ROW 1F : ... .. . ... ... ... : ... .. . ... ... ... : ... .. . P7F ... : ... .. . ... : ... .. . F03 ...
ROW 20 : C#4 0C 1 ... P7F ... : C#3 02 A P80 ... ... : --- .. . ... ... : ... .. . ... : ... .. . F02 ...
ROW 21 : ... .. . ... ... ... : ... .. . ... ... ... : ... .. . ... ... : ... .. . ... : ... .. . F01 ...
ROW 22 : ... .. . ... ... ... : F-3 02 1 P7F ... ... : ... .. . ... ... : ... .. . ... : ... .. . F02 ...
ROW 23 : ... .. . ... ... ... : ... .. . ... ... ... : ... .. . ... ... : ... .. . ... : ... .. . F03 ...
ROW 24 : B-3 0C A ... P80 ... : G-3 0D A P80 ... ... : G#3 01 . P80 ... : ... .. . ... : ... .. . F02 ...
ROW 25 : ... .. . ... ... ... : ... .. . ... ... ... : ... .. . ... ... : ... .. . ... : ... .. . F01 ...
ROW 26 : ... .. . ... ... ... : C#3 02 1 P7F ... ... : ... .. . ... ... : ... .. . ... : ... .. . F02 ...
ROW 27 : ... .. . ... ... ... : ... .. . ... ... ... : ... .. . P7F ... : ... .. . ... : ... .. . F03 ...
ROW 28 : ... .. . ... ... ... : F-3 02 A P80 ... ... : --- .. . ... ... : ... .. . ... : ... .. . F02 ...
ROW 29 : ... .. . ... ... ... : ... .. . ... ... ... : ... .. . ... ... : ... .. . ... : ... .. . F01 ...
ROW 2A : ... .. . ... ... ... : G-3 02 1 P7F ... ... : ... .. . ... ... : ... .. . ... : ... .. . F02 ...
ROW 2B : ... .. . ... ... ... : ... .. . ... ... ... : ... .. . ... ... : ... .. . ... : ... .. . F03 ...
ROW 2C : A#3 0C 1 ... P7F ... : D-3 02 A P80 ... ... : ... .. . ... ... : ... .. . ... : ... .. . F02 ...
ROW 2D : ... .. . ... ... ... : ... .. . ... ... ... : ... .. . ... ... : ... .. . ... : ... .. . F01 ...
ROW 2E : ... .. . ... ... ... : ... .. . ... ... ... : ... .. . ... ... : ... .. . ... : ... .. . F02 ...
ROW 2F : ... .. . ... ... ... : ... .. . ... ... ... : ... .. . ... ... : ... .. . ... : ... .. . F03 ...
ROW 30 : D#3 0C A V00 P80 ... : ... .. 1 P7F ... ... : C#3 01 . P80 ... : ... .. . ... : ... .. . F02 ...
ROW 31 : ... .. . ... ... ... : ... .. 0 ... ... ... : ... .. . ... ... : ... .. . ... : ... .. . F01 ...
ROW 32 : ... .. 1 ... P7F ... : D#3 0D 5 V02 P80 ... : ... .. . P7F ... : ... .. . ... : ... .. . F02 ...
ROW 33 : ... .. . ... ... ... : ... .. . ... ... ... : --- .. . ... ... : ... .. . ... : ... .. . F03 ...
ROW 34 : F-3 0C A ... P80 ... : ... .. 1 ... P7E ... : D-3 01 . P80 ... : ... .. . ... : ... .. . F02 ...
ROW 35 : ... .. . ... ... ... : ... .. . ... ... ... : ... .. . ... ... : ... .. . ... : ... .. . F01 ...
ROW 36 : ... .. . ... ... ... : F-3 0D 5 P80 ... ... : ... .. . P7F ... : ... .. . ... : ... .. . F02 ...
ROW 37 : D#3 0C 1 ... P7F ... : ... .. . ... ... ... : --- .. . ... ... : ... .. . ... : ... .. . F03 ...
ROW 38 : A#3 0C A ... P80 ... : ... .. . ... ... ... : E-2 01 . P80 ... : ... .. . ... : ... .. . F02 ...
ROW 39 : ... .. . ... ... ... : D#3 0D 1 P7E ... ... : ... .. . ... ... : ... .. . ... : ... .. . F01 ...
ROW 3A : ... .. . ... ... ... : A#3 0D 5 P80 ... ... : ... .. . P7F ... : ... .. . ... : ... .. . F02 ...
ROW 3B : F-3 0C 1 ... P7F ... : ... .. . ... ... ... : --- .. . ... ... : ... .. . ... : ... .. . F03 ...
ROW 3C : D-4 0C A ... P80 ... : ... .. . ... ... ... : A#2 01 . P80 ... : ... .. . ... : ... .. . F02 ...
ROW 3D : ... .. . ... ... ... : F-3 0D 1 P7E ... ... : ... .. . ... ... : ... .. . ... : ... .. . F01 ...
ROW 3E : ... .. . ... ... ... : D-4 0D 5 P80 ... ... : ... .. . P7F ... : ... .. . ... : ... .. . F02 ...
ROW 3F : ... .. . ... ... ... : ... .. . ... ... ... : --- .. . ... ... : ... .. . ... : ... .. . F03 ...
ROW 40 : ... .. 1 ... P7F ... : B-3 0D A P80 ... ... : A-2 01 . P80 ... : ... .. . ... : ... .. . F02 ...
ROW 41 : ... .. 0 ... ... ... : ... .. . ... ... ... : ... .. . ... ... : ... .. . ... : ... .. . F01 ...
ROW 42 : B-3 0C 5 V00 P80 ... : ... .. . ... ... ... : ... .. . P7F ... : ... .. . ... : ... .. . F02 ...
ROW 43 : ... .. . ... ... ... : B-3 02 1 P7F ... ... : --- .. . ... ... : ... .. . ... : ... .. . F03 ...
ROW 44 : ... .. . ... ... ... : C-4 02 A P80 ... ... : A-1 01 . P80 ... : ... .. . ... : ... .. . F02 ...
ROW 45 : B-3 0C 1 ... P7E ... : ... .. . ... ... ... : ... .. . ... ... : ... .. . ... : ... .. . F01 ...
ROW 46 : C-4 0C 5 ... P80 ... : ... .. . ... ... ... : ... .. . ... ... : ... .. . ... : ... .. . F02 ...
ROW 47 : ... .. . ... ... ... : C-4 02 1 P7F ... ... : ... .. . P7F ... : ... .. . ... : ... .. . F03 ...
ROW 48 : ... .. . ... ... ... : C#4 02 A P80 ... ... : --- .. . ... ... : ... .. . ... : ... .. . F02 ...
ROW 49 : C-4 0C 1 ... P7E ... : ... .. . ... ... ... : ... .. . ... ... : ... .. . ... : ... .. . F01 ...
ROW 4A : C#4 0C 5 ... P80 ... : ... .. . ... ... ... : ... .. . ... ... : ... .. . ... : ... .. . F02 ...
ROW 4B : ... .. . ... ... ... : C#4 02 1 P7F ... ... : ... .. . ... ... : ... .. . ... : ... .. . F03 ...
ROW 4C : ... .. . ... ... ... : D-4 02 A P80 ... ... : ... .. . ... ... : ... .. . ... : ... .. . F02 ...
ROW 4D : C#4 0C 1 ... P7E ... : ... .. . ... ... ... : ... .. . ... ... : ... .. . ... : ... .. . F01 ...
ROW 4E : D-4 0C 5 ... P80 ... : ... .. . ... ... ... : ... .. . ... ... : ... .. . ... : ... .. . F02 ...
ROW 4F : ... .. . ... ... ... : D-4 02 1 P7F ... ... : ... .. . ... ... : ... .. . ... : ... .. . F03 ...
ROW 50 : ... .. . ... ... ... : D#4 02 A P80 ... ... : G-3 01 . P80 ... : ... .. . ... : ... .. . F02 ...
ROW 51 : D-4 0C 1 ... P7E ... : ... .. . ... ... ... : ... .. . ... ... : ... .. . ... : ... .. . F01 ...
ROW 52 : D#4 0C 5 ... P80 ... : ... .. . ... ... ... : ... .. . ... ... : ... .. . ... : ... .. . F02 ...
ROW 53 : ... .. . ... ... ... : D#4 02 1 P7F ... ... : ... .. . ... ... : ... .. . ... : ... .. . F03 ...
ROW 54 : B-4 0C A V01 P80 ... : F#4 0D A P80 ... ... : ... .. . P7F ... : ... .. . ... : ... .. . F02 ...
ROW 55 : ... .. . ... ... ... : ... .. . ... ... ... : --- .. . ... ... : ... .. . ... : ... .. . F01 ...
ROW 56 : ... .. . ... ... ... : ... .. . ... ... ... : ... .. . ... ... : ... .. . ... : ... .. . F02 ...
ROW 57 : ... .. . ... ... ... : F#4 02 1 P7F ... ... : ... .. . ... ... : ... .. . ... : ... .. . F03 ...
ROW 58 : ... .. . ... ... ... : E-4 02 A P80 ... ... : ... .. . ... ... : ... .. . ... : ... .. . F02 ...
ROW 59 : ... .. . ... ... ... : ... .. . ... ... ... : ... .. . ... ... : ... .. . ... : ... .. . F01 ...
ROW 5A : ... .. 1 ... P7F ... : ... .. . ... ... ... : ... .. . ... ... : ... .. . ... : ... .. . F02 ...
ROW 5B : ... .. . ... ... ... : E-4 02 1 P7F ... ... : ... .. . ... ... : ... .. . ... : ... .. . F03 ...
ROW 5C : D-5 0C A ... P80 ... : B-4 0D A P80 ... ... : A-1 01 . P80 ... : ... .. . ... : ... .. . F02 ...
ROW 5D : ... .. . ... ... ... : ... .. . ... ... ... : ... .. . ... ... : ... .. . ... : ... .. . F01 ...
ROW 5E : ... .. . ... ... ... : ... .. . ... ... ... : ... .. . P7F ... : ... .. . ... : ... .. . F02 ...
ROW 5F : ... .. . ... ... ... : B-4 02 1 P7F ... ... : --- .. . ... ... : ... .. . ... : ... .. . F03 ...
ROW 60 : ... .. . ... ... ... : G-4 02 A P80 ... ... : A-2 01 . P80 ... : ... .. . ... : ... .. . F02 ...
ROW 61 : ... .. . ... ... ... : ... .. . ... ... ... : ... .. . ... ... : ... .. . ... : ... .. . F01 ...
ROW 62 : ... .. . ... ... ... : ... .. . ... ... ... : ... .. . ... ... : ... .. . ... : ... .. . F02 ...
ROW 63 : ... .. . ... ... ... : G-4 02 1 P7F ... ... : ... .. . ... ... : ... .. . ... : ... .. . F03 ...
ROW 64 : ... .. 1 ... P7F ... : E-4 02 A P80 ... ... : ... .. . ... ... : ... .. . ... : ... .. . F02 ...
ROW 65 : ... .. . ... ... ... : ... .. . ... ... ... : ... .. . ... ... : ... .. . ... : ... .. . F01 ...
ROW 66 : ... .. . ... ... ... : ... .. . ... ... ... : ... .. . P7F ... : ... .. . ... : ... .. . F02 ...
ROW 67 : ... .. . ... ... ... : E-4 02 1 P7F ... ... : --- .. . ... ... : ... .. . ... : ... .. . F03 ...
ROW 68 : C#5 0C A ... P80 ... : A#4 0D A P80 ... ... : G-3 01 . P80 ... : ... .. . ... : ... .. . F02 ...
ROW 69 : ... .. . ... ... ... : ... .. . ... ... ... : ... .. . ... ... : ... .. . ... : ... .. . F01 ...
ROW 6A : ... .. . ... ... ... : ... .. . ... ... ... : ... .. . P7F ... : ... .. . ... : ... .. . F02 ...
ROW 6B : ... .. . ... ... ... : A#4 02 1 P7F ... ... : --- .. . ... ... : ... .. . ... : ... .. . F03 ...
ROW 6C : ... .. . ... ... ... : G-4 02 A P80 ... ... : C#4 01 . P80 ... : ... .. . ... : ... .. . F02 ...
ROW 6D : ... .. . ... ... ... : ... .. . ... ... ... : ... .. . ... ... : ... .. . ... : ... .. . F01 ...
ROW 6E : ... .. . ... ... ... : ... .. . ... ... ... : ... .. . P7F ... : ... .. . ... : ... .. . F02 ...
ROW 6F : ... .. . ... ... ... : G-4 02 1 P7F ... ... : --- 01 . ... ... : ... .. . ... : ... .. . F03 ...
ROW 70 : ... .. 1 ... P7F ... : D#4 02 A P80 ... ... : A#4 01 . P80 ... : ... .. . ... : ... .. . F02 ...
ROW 71 : ... .. . ... ... ... : ... .. . ... ... ... : ... .. . ... ... : ... .. . ... : ... .. . F01 ...
ROW 72 : ... .. . ... ... ... : ... .. . ... ... ... : ... .. . ... ... : ... .. . ... : ... .. . F02 ...
ROW 73 : ... .. . ... ... ... : D#4 02 1 P7F ... ... : ... .. . ... ... : ... .. . ... : ... .. . F03 ...
ROW 74 : F-4 0C A ... P80 ... : C-4 0D A P80 ... ... : ... .. . P7F ... : ... .. . ... : ... .. . F02 ...
ROW 75 : ... .. . ... ... ... : ... .. . ... ... ... : --- .. . ... ... : ... .. . ... : ... .. . F01 ...
ROW 76 : ... .. . ... ... ... : ... .. . ... ... ... : ... .. . ... ... : ... .. . ... : ... .. . F02 ...
ROW 77 : ... .. . ... ... ... : C-4 02 1 P7F ... ... : ... .. . ... ... : ... .. . ... : ... .. . F03 ...
ROW 78 : ... .. . ... ... ... : A-3 02 A P80 ... ... : ... .. . ... ... : ... .. . ... : ... .. . F02 ...
ROW 79 : ... .. . ... ... ... : ... .. . ... ... ... : ... .. . ... ... : ... .. . ... : ... .. . F01 ...
ROW 7A : ... .. . ... ... ... : ... .. . ... ... ... : ... .. . ... ... : ... .. . ... : ... .. . F02 ...
ROW 7B : ... .. . ... ... ... : A-3 02 1 P7F ... ... : ... .. . ... ... : ... .. . ... : ... .. . F03 ...
ROW 7C : ... .. 1 ... P7F ... : A#3 02 A P80 ... ... : ... .. . ... ... : ... .. . ... : ... .. . F02 ...
ROW 7D : ... .. . ... ... ... : ... .. . ... ... ... : ... .. . ... ... : ... .. . ... : ... .. . F01 ...
ROW 7E : ... .. . ... ... ... : ... .. . ... ... ... : ... .. . ... ... : ... .. . ... : ... .. . F02 ...
ROW 7F : ... .. . ... ... ... : A#3 02 1 P7F ... ... : ... .. . ... ... : ... .. . ... : ... .. . F03 ...

PATTERN 0E
ROW 00 : D-4 0D A V02 P80 ... : B-3 0D A P80 ... ... : D-2 01 . P80 ... : ... .. . ... : ... .. . F02 ...
ROW 01 : ... .. . ... ... ... : ... .. . ... ... ... : ... .. . ... ... : ... .. . ... : ... .. . F01 ...
ROW 02 : ... .. . ... ... ... : ... .. . P7F ... ... : ... .. . P7F ... : ... .. . ... : ... .. . F02 ...
ROW 03 : ... .. . ... ... ... : A#3 02 3 P7E ... ... : --- .. . ... ... : ... .. . ... : ... .. . F03 ...
ROW 04 : E-4 00 . 305 ... ... : C#4 0D A P80 ... ... : A-2 01 . P80 ... : ... .. . ... : ... .. . F02 ...
ROW 05 : ... .. . ... ... ... : ... .. . ... ... ... : ... .. . ... ... : ... .. . ... : ... .. . F01 ...
ROW 06 : ... .. . ... ... ... : ... .. . P7F ... ... : ... .. . ... ... : ... .. . ... : ... .. . F02 ...
ROW 07 : ... .. . ... ... ... : B-3 02 3 P7E ... ... : ... .. . P7F ... : ... .. . ... : ... .. . F03 ...
ROW 08 : ... .. . ... ... ... : F#3 0D A P80 ... ... : --- .. . ... ... : ... .. . ... : ... .. . F02 ...
ROW 09 : ... .. . ... ... ... : ... .. . ... ... ... : ... .. . ... ... : ... .. . ... : ... .. . F01 ...
ROW 0A : ... .. . ... ... ... : ... .. . P7F ... ... : ... .. . ... ... : ... .. . ... : ... .. . F02 ...
ROW 0B : ... .. . ... ... ... : C#4 02 3 P7E ... ... : ... .. . ... ... : ... .. . ... : ... .. . F03 ...
ROW 0C : ... .. . ... ... ... : G-3 02 A P80 ... ... : A-2 01 . P80 ... : ... .. . ... : ... .. . F02 ...
ROW 0D : ... .. . ... ... ... : ... .. . ... ... ... : ... .. . ... ... : ... .. . ... : ... .. . F01 ...
ROW 0E : ... .. . ... ... ... : ... .. . P7F ... ... : ... .. . P7F ... : ... .. . ... : ... .. . F02 ...
ROW 0F : ... .. . ... ... ... : F#3 02 3 P7E ... ... : --- .. . ... ... : ... .. . ... : ... .. . F03 ...
ROW 10 : ... .. 4 ... P7F ... : G#3 02 A P80 ... ... : F#3 01 . P80 ... : ... .. . ... : ... .. . F02 ...
ROW 11 : ... .. . ... ... ... : ... .. . ... ... ... : ... .. . ... ... : ... .. . ... : ... .. . F01 ...
ROW 12 : ... .. . ... ... ... : ... .. . P7F ... ... : ... .. . ... ... : ... .. . ... : ... .. . F02 ...
ROW 13 : ... .. . 300 ... ... : G-3 02 3 P7E ... ... : ... .. . ... ... : ... .. . ... : ... .. . F03 ...
ROW 14 : D-4 00 A ... P80 ... : B-3 0D A P80 ... ... : ... .. . ... ... : ... .. . ... : ... .. . F02 ...
ROW 15 : ... .. . ... ... ... : ... .. . ... ... ... : ... .. . ... ... : ... .. . ... : ... .. . F01 ...
ROW 16 : ... .. . ... ... ... : ... .. . P7F ... ... : ... .. . ... ... : ... .. . ... : ... .. . F02 ...
ROW 17 : ... .. . ... ... ... : G#3 02 3 P7E ... ... : ... .. . ... ... : ... .. . ... : ... .. . F03 ...
ROW 18 : ... .. . ... ... ... : A-3 02 A P80 ... ... : ... .. . P7F ... : ... .. . ... : ... .. . F02 ...
ROW 19 : ... .. . ... ... ... : ... .. . ... ... ... : --- .. . ... ... : ... .. . ... : ... .. . F01 ...
ROW 1A : ... .. . ... ... ... : ... .. . P7F ... ... : ... .. . ... ... : ... .. . ... : ... .. . F02 ...
ROW 1B : ... .. . ... ... ... : B-3 02 3 P7E ... ... : ... .. . ... ... : ... .. . ... : ... .. . F03 ...
ROW 1C : ... .. . ... ... ... : E-3 02 A P80 ... ... : ... .. . ... ... : ... .. . ... : ... .. . F02 ...
ROW 1D : ... .. . ... ... ... : ... .. . ... ... ... : ... .. . ... ... : ... .. . ... : ... .. . F01 ...
ROW 1E : ... .. . ... ... ... : ... .. . P7F ... ... : ... .. . ... ... : ... .. . ... : ... .. . F02 ...
ROW 1F : ... .. . ... ... ... : A-3 02 3 P7E ... ... : ... .. . ... ... : ... .. . ... : ... .. . F03 ...
ROW 20 : E-4 00 4 ... P7F ... : F-3 02 A P80 ... ... : D#2 01 . P80 ... : ... .. . ... : ... .. . F02 ...
ROW 21 : ... .. . ... ... ... : ... .. . ... ... ... : ... .. . ... ... : ... .. . ... : ... .. . F01 ...
ROW 22 : ... .. . ... ... ... : ... .. . P7F ... ... : ... .. . P7F ... : ... .. . ... : ... .. . F02 ...
ROW 23 : ... .. . ... ... ... : E-3 02 3 P7E ... ... : --- .. . ... ... : ... .. . ... : ... .. . F03 ...
ROW 24 : C#4 00 A ... P80 ... : A#3 0D A P80 ... ... : F#3 01 . P80 ... : ... .. . ... : ... .. . F02 ...
ROW 25 : ... .. . ... ... ... : ... .. . ... ... ... : ... .. . ... ... : ... .. . ... : ... .. . F01 ...
ROW 26 : ... .. . ... ... ... : ... .. . P7F ... ... : ... .. . P7F ... : ... .. . ... : ... .. . F02 ...
ROW 27 : ... .. . ... ... ... : F-3 02 3 P7E ... ... : --- .. . ... ... : ... .. . ... : ... .. . F03 ...
ROW 28 : ... .. . ... ... ... : F-3 02 A P80 ... ... : C#4 01 . P80 ... : ... .. . ... : ... .. . F02 ...
ROW 29 : ... .. . ... ... ... : ... .. . ... ... ... : ... .. . ... ... : ... .. . ... : ... .. . F01 ...
ROW 2A : ... .. . ... ... ... : ... .. . P7F ... ... : ... .. . ... ... : ... .. . ... : ... .. . F02 ...
ROW 2B : ... .. . ... ... ... : A#3 02 3 P7E ... ... : ... .. . ... ... : ... .. . ... : ... .. . F03 ...
ROW 2C : D-4 00 4 ... P7F ... : F#3 02 A P80 ... ... : ... .. . P7F ... : ... .. . ... : ... .. . F02 ...
ROW 2D : ... .. . ... ... ... : ... .. . ... ... ... : --- .. . ... ... : ... .. . ... : ... .. . F01 ...
ROW 2E : ... .. . ... ... ... : ... .. . P7F ... ... : ... .. . ... ... : ... .. . ... : ... .. . F02 ...
ROW 2F : ... .. . ... ... ... : F-3 02 3 P7E ... ... : ... .. . ... ... : ... .. . ... : ... .. . F03 ...
ROW 30 : B-3 00 A ... P80 ... : B-3 0D A P80 ... ... : G#2 01 . P80 ... : ... .. . ... : ... .. . F02 ...
ROW 31 : ... .. . ... ... ... : ... .. . ... ... ... : ... .. . ... ... : ... .. . ... : ... .. . F01 ...
ROW 32 : ... .. . ... ... ... : ... .. . P7F ... ... : ... .. . P7F ... : ... .. . ... : ... .. . F02 ...
ROW 33 : ... .. . ... ... ... : F#3 02 3 P7E ... ... : --- .. . ... ... : ... .. . ... : ... .. . F03 ...
ROW 34 : ... .. . ... ... ... : C-3 02 A P80 ... ... : F#3 01 . P80 ... : ... .. . ... : ... .. . F02 ...
ROW 35 : ... .. . ... ... ... : ... .. . ... ... ... : ... .. . ... ... : ... .. . ... : ... .. . F01 ...
ROW 36 : ... .. . ... ... ... : ... .. . P7F ... ... : ... .. . ... ... : ... .. . ... : ... .. . F02 ...
ROW 37 : ... .. . ... ... ... : B-3 02 3 P7E ... ... : ... .. . ... ... : ... .. . ... : ... .. . F03 ...
ROW 38 : C#4 00 4 ... P7F ... : E-3 02 A P80 ... ... : --- .. . ... ... : ... .. . ... : ... .. . F02 ...
ROW 39 : ... .. . ... ... ... : ... .. . ... ... ... : ... .. . ... ... : ... .. . ... : ... .. . F01 ...
ROW 3A : ... .. . ... ... ... : ... .. . P7F ... ... : ... .. . ... ... : ... .. . ... : ... .. . F02 ...
ROW 3B : ... .. . ... ... ... : C-3 02 3 P7E ... ... : ... .. . ... ... : ... .. . ... : ... .. . F03 ...
ROW 3C : A-3 00 A ... P80 ... : A-3 0D A P80 ... ... : G#2 01 . P80 ... : ... .. . ... : ... .. . F02 ...
ROW 3D : ... .. . ... ... ... : ... .. . ... ... ... : ... .. . ... ... : ... .. . ... : ... .. . F01 ...
ROW 3E : ... .. . ... ... ... : ... .. . P7F ... ... : ... .. . P7F ... : ... .. . ... : ... .. . F02 ...
ROW 3F : ... .. . ... ... ... : E-3 02 3 P7E ... ... : --- .. . ... ... : ... .. . ... : ... .. . F03 ...
ROW 40 : ... .. 1 ... P7F ... : G-3 02 A P80 ... ... : C#2 01 . P80 ... : ... .. . ... : ... .. . F02 ...
ROW 41 : ... .. 0 ... ... ... : ... .. . ... ... ... : ... .. . ... ... : ... .. . ... : ... .. . F01 ...
ROW 42 : G-3 00 5 ... P80 ... : ... .. . P7F ... ... : ... .. . P7F ... : ... .. . ... : ... .. . F02 ...
ROW 43 : ... .. . ... ... ... : A-3 02 3 P7E ... ... : --- .. . ... ... : ... .. . ... : ... .. . F03 ...
ROW 44 : ... .. . ... ... ... : G#3 02 A P80 ... ... : F-3 01 . P80 ... : ... .. . ... : ... .. . F02 ...
ROW 45 : ... .. . ... ... ... : ... .. . ... ... ... : ... .. . ... ... : ... .. . ... : ... .. . F01 ...
ROW 46 : G#3 00 . ... P7E ... : ... .. . P7F ... ... : ... .. . P7F ... : ... .. . ... : ... .. . F02 ...
ROW 47 : ... .. . ... ... ... : G-3 02 3 P7E ... ... : --- .. . ... ... : ... .. . ... : ... .. . F03 ...
ROW 48 : F-4 00 A ... P80 ... : F-4 0D A P80 ... ... : C-4 01 . P80 ... : ... .. . ... : ... .. . F02 ...
ROW 49 : ... .. . ... ... ... : ... .. . ... ... ... : ... .. . ... ... : ... .. . ... : ... .. . F01 ...
ROW 4A : ... .. . ... ... ... : ... .. . P7F ... ... : ... .. . ... ... : ... .. . ... : ... .. . F02 ...
ROW 4B : ... .. . ... ... ... : G#3 02 3 P7E ... ... : ... .. . ... ... : ... .. . ... : ... .. . F03 ...
ROW 4C : ... .. . ... ... ... : A#3 02 A P80 ... ... : ... .. . P7F ... : ... .. . ... : ... .. . F02 ...
ROW 4D : ... .. . ... ... ... : ... .. . ... ... ... : --- .. . ... ... : ... .. . ... : ... .. . F01 ...
ROW 4E : ... .. . ... ... ... : ... .. . P7F ... ... : ... .. . ... ... : ... .. . ... : ... .. . F02 ...
ROW 4F : ... .. . ... ... ... : F-4 02 3 P7E ... ... : ... .. . ... ... : ... .. . ... : ... .. . F03 ...
ROW 50 : ... .. 4 ... P7F ... : B-3 02 A P80 ... ... : ... .. . ... ... : ... .. . ... : ... .. . F02 ...
ROW 51 : ... .. . ... ... ... : ... .. . ... ... ... : ... .. . ... ... : ... .. . ... : ... .. . F01 ...
ROW 52 : ... .. . ... ... ... : ... .. . P7F ... ... : ... .. . ... ... : ... .. . ... : ... .. . F02 ...
ROW 53 : ... .. . ... ... ... : A#3 02 3 P7E ... ... : ... .. . ... ... : ... .. . ... : ... .. . F03 ...
ROW 54 : A-4 00 A ... P80 ... : A-4 0D A P80 ... ... : G-2 01 . P80 ... : ... .. . ... : ... .. . F02 ...
ROW 55 : ... .. . ... ... ... : ... .. . ... ... ... : ... .. . ... ... : ... .. . ... : ... .. . F01 ...
ROW 56 : ... .. . ... ... ... : ... .. . P7F ... ... : ... .. . P7F ... : ... .. . ... : ... .. . F02 ...
ROW 57 : ... .. . ... ... ... : B-3 02 3 P7E ... ... : --- .. . ... ... : ... .. . ... : ... .. . F03 ...
ROW 58 : ... .. . ... ... ... : D-4 02 A P80 ... ... : F-3 01 . P80 ... : ... .. . ... : ... .. . F02 ...
ROW 59 : ... .. . ... ... ... : ... .. . ... ... ... : ... .. . ... ... : ... .. . ... : ... .. . F01 ...
ROW 5A : ... .. 1 ... P7F ... : ... .. . P7F ... ... : ... .. . ... ... : ... .. . ... : ... .. . F02 ...
ROW 5B : ... .. . ... ... ... : A-4 02 3 P7E ... ... : ... .. . ... ... : ... .. . ... : ... .. . F03 ...
ROW 5C : D-5 00 A ... P80 ... : D-5 0D A P80 ... ... : ... .. . ... ... : ... .. . ... : ... .. . F02 ...
ROW 5D : ... .. . ... ... ... : ... .. . ... ... ... : ... .. . ... ... : ... .. . ... : ... .. . F01 ...
ROW 5E : ... .. . ... ... ... : ... .. . P7F ... ... : ... .. . P7F ... : ... .. . ... : ... .. . F02 ...
ROW 5F : ... .. . ... ... ... : D-4 02 3 P7E ... ... : --- .. . ... ... : ... .. . ... : ... .. . F03 ...
ROW 60 : ... .. 1 ... P7F ... : C#5 0D A P80 ... ... : F#2 01 . P80 ... : ... .. . ... : ... .. . F02 ...
ROW 61 : ... .. 0 ... ... ... : ... .. . ... ... ... : ... .. . ... ... : ... .. . ... : ... .. . F01 ...
ROW 62 : ... .. . ... ... ... : ... .. . ... ... ... : ... .. . ... ... : ... .. . ... : ... .. . F02 ...
ROW 63 : C#5 00 5 V00 ... P80 : ... .. . P7F ... ... : ... .. . P7F ... : ... .. . ... : ... .. . F03 ...
ROW 64 : ... .. . ... ... ... : A#4 02 . P80 ... ... : F-3 01 . P80 ... : ... .. . ... : ... .. . F02 ...
ROW 65 : ... .. . ... ... ... : ... .. . ... ... ... : ... .. . ... ... : ... .. . ... : ... .. . F01 ...
ROW 66 : ... .. . ... ... P7E : ... .. . ... ... ... : ... .. . ... ... : ... .. . ... : ... .. . F02 ...
ROW 67 : A#4 00 . ... ... P80 : ... .. . P7F ... ... : ... .. . P7F ... : ... .. . ... : ... .. . F03 ...
ROW 68 : ... .. . ... ... ... : G#4 02 . P80 ... ... : A#3 01 . P80 ... : ... .. . ... : ... .. . F02 ...
ROW 69 : ... .. . ... ... ... : ... .. . ... ... ... : ... .. . ... ... : ... .. . ... : ... .. . F01 ...
ROW 6A : ... .. . ... ... P7E : ... .. . ... ... ... : ... .. . ... ... : ... .. . ... : ... .. . F02 ...
ROW 6B : G#4 00 . ... ... P80 : A#4 02 . P7F ... ... : ... .. . P7F ... : ... .. . ... : ... .. . F03 ...
ROW 6C : ... .. . ... ... ... : F-4 02 . P80 ... ... : C#4 01 . P80 ... : ... .. . ... : ... .. . F02 ...
ROW 6D : ... .. . ... ... ... : ... .. . ... ... ... : ... .. . ... ... : ... .. . ... : ... .. . F01 ...
ROW 6E : A#4 02 . ... ... P7E : ... .. . ... ... ... : ... .. . ... ... : ... .. . ... : ... .. . F02 ...
ROW 6F : F-4 00 . ... ... P80 : G#4 02 . P7F ... ... : ... .. . P7F ... : ... .. . ... : ... .. . F03 ...
ROW 70 : ... .. . ... ... ... : D#4 02 . P80 ... ... : G#4 01 . P80 ... : ... .. . ... : ... .. . F02 ...
ROW 71 : ... .. . ... ... ... : ... .. . ... ... ... : ... .. . ... ... : ... .. . ... : ... .. . F01 ...
ROW 72 : G#4 02 . ... ... P7E : ... .. . ... ... ... : ... .. . ... ... : ... .. . ... : ... .. . F02 ...
ROW 73 : D#4 00 . ... ... P80 : F-4 02 . P7F ... ... : ... .. . ... ... : ... .. . ... : ... .. . F03 ...
ROW 74 : ... .. . ... ... ... : C#4 02 . P80 ... ... : ... .. . P7F ... : ... .. . ... : ... .. . F02 ...
ROW 75 : ... .. . ... ... ... : ... .. . ... ... ... : --- .. . ... ... : ... .. . ... : ... .. . F01 ...
ROW 76 : F-4 02 . ... ... P7E : ... .. . ... ... ... : ... .. . ... ... : ... .. . ... : ... .. . F02 ...
ROW 77 : C#4 00 . ... ... P80 : D#4 02 . P7F ... ... : ... .. . ... ... : ... .. . ... : ... .. . F03 ...
ROW 78 : ... .. . ... ... ... : F-3 02 . P80 ... ... : ... .. . ... ... : ... .. . ... : ... .. . F02 ...
ROW 79 : ... .. . ... ... ... : ... .. . ... ... ... : ... .. . ... ... : ... .. . ... : ... .. . F01 ...
ROW 7A : D#4 02 . ... ... P7E : ... .. . ... ... ... : ... .. . ... ... : ... .. . ... : ... .. . F02 ...
ROW 7B : F-3 00 . ... ... P80 : C#4 02 . P7F ... ... : ... .. . ... ... : ... .. . ... : ... .. . F03 ...
ROW 7C : ... .. . ... ... ... : D#3 02 . P80 ... ... : ... .. . ... ... : ... .. . ... : ... .. . F02 ...
ROW 7D : ... .. . ... ... ... : ... .. . ... ... ... : ... .. . ... ... : ... .. . ... : ... .. . F01 ...
ROW 7E : C#4 02 . ... ... P7E : ... .. . ... ... ... : ... .. . ... ... : ... .. . ... : ... .. . F02 ...
ROW 7F : D#3 00 . ... ... P80 : F-3 02 . P7F ... ... : ... .. . ... ... : ... .. . ... : ... .. . F03 ...

PATTERN 0F
ROW 00 : ... .. . ... ... ... : D-3 0D A P80 ... ... : F-3 01 . P80 ... : ... .. . ... : ... .. . F02 ...
ROW 01 : ... .. . ... ... ... : ... .. . ... ... ... : ... .. . ... ... : ... .. . ... : ... .. . F01 ...
ROW 02 : ... .. 1 ... ... ... : ... .. . ... ... ... : ... .. . P7F ... : ... .. . ... : ... .. . F02 ...
ROW 03 : ... .. . ... ... ... : ... .. . ... ... ... : --- .. . ... ... : ... .. . ... : ... .. . F03 ...
ROW 04 : A-3 0D A V01 P80 ... : ... .. 1 P7F ... ... : G-2 01 . P80 ... : ... .. . ... : ... .. . F02 ...
ROW 05 : ... .. . ... ... ... : ... .. . ... ... ... : ... .. . ... ... : ... .. . ... : ... .. . F01 ...
ROW 06 : ... .. . ... ... ... : ... .. . ... ... ... : ... .. . ... ... : ... .. . ... : ... .. . F02 ...
ROW 07 : ... .. . ... ... ... : ... .. . ... ... ... : ... .. . P7F ... : ... .. . ... : ... .. . F03 ...
ROW 08 : ... .. . ... ... ... : D-3 02 A P80 ... ... : --- .. . ... ... : ... .. . ... : ... .. . F02 ...
ROW 09 : ... .. . ... ... ... : ... .. . ... ... ... : ... .. . ... ... : ... .. . ... : ... .. . F01 ...
ROW 0A : ... .. . ... ... ... : ... .. . ... ... ... : ... .. . ... ... : ... .. . ... : ... .. . F02 ...
ROW 0B : ... .. . ... ... ... : ... .. . ... ... ... : ... .. . ... ... : ... .. . ... : ... .. . F03 ...
ROW 0C : ... .. . ... ... ... : ... .. 1 P7F ... ... : G-2 01 . P80 ... : ... .. . ... : ... .. . F02 ...
ROW 0D : ... .. . ... ... ... : ... .. . ... ... ... : ... .. . ... ... : ... .. . ... : ... .. . F01 ...
ROW 0E : ... .. 1 P7F ... ... : ... .. . ... ... ... : ... .. . P7F ... : ... .. . ... : ... .. . F02 ...
ROW 0F : ... .. . ... ... ... : ... .. . ... ... ... : --- .. . ... ... : ... .. . ... : ... .. . F03 ...
ROW 10 : F-3 0D A P80 ... ... : D-3 0D A P80 ... ... : G-1 01 . P80 ... : ... .. . ... : ... .. . F02 ...
ROW 11 : ... .. . ... ... ... : ... .. . ... ... ... : ... .. . ... ... : ... .. . ... : ... .. . F01 ...
ROW 12 : ... .. . ... ... ... : ... .. . ... ... ... : ... .. . ... ... : ... .. . ... : ... .. . F02 ...
ROW 13 : ... .. . ... ... ... : ... .. . ... ... ... : ... .. . ... ... : ... .. . ... : ... .. . F03 ...
ROW 14 : ... .. . ... ... ... : ... .. 1 P7F ... ... : ... .. . ... ... : ... .. . ... : ... .. . F02 ...
ROW 15 : ... .. . ... ... ... : ... .. . ... ... ... : ... .. . ... ... : ... .. . ... : ... .. . F01 ...
ROW 16 : ... .. . ... ... ... : ... .. . ... ... ... : ... .. . ... ... : ... .. . ... : ... .. . F02 ...
ROW 17 : ... .. . ... ... ... : ... .. . ... ... ... : ... .. . P7F ... : ... .. . ... : ... .. . F03 ...
ROW 18 : ... .. . ... ... ... : D-3 02 A P80 ... ... : --- .. . ... ... : ... .. . ... : ... .. . F02 ...
ROW 19 : ... .. . ... ... ... : ... .. . ... ... ... : ... .. . ... ... : ... .. . ... : ... .. . F01 ...
ROW 1A : ... .. 1 P7F ... ... : ... .. . ... ... ... : ... .. . ... ... : ... .. . ... : ... .. . F02 ...
ROW 1B : ... .. . ... ... ... : ... .. . ... ... ... : ... .. . ... ... : ... .. . ... : ... .. . F03 ...
ROW 1C : F#3 00 A P80 ... ... : ... .. 1 P7F ... ... : ... .. . ... ... : ... .. . ... : ... .. . F02 ...
ROW 1D : ... .. . ... ... ... : ... .. . ... ... ... : ... .. . ... ... : ... .. . ... : ... .. . F01 ...
ROW 1E : ... .. . ... ... ... : ... .. . ... ... ... : ... .. . ... ... : ... .. . ... : ... .. . F02 ...
ROW 1F : ... .. . ... ... ... : ... .. . ... ... ... : ... .. . ... ... : ... .. . ... : ... .. . F03 ...
ROW 20 : ... .. . ... ... ... : D-3 02 A P80 ... ... : C-3 01 . P80 ... : ... .. . ... : ... .. . F02 ...
ROW 21 : ... .. . ... ... ... : ... .. . ... ... ... : ... .. . ... ... : ... .. . ... : ... .. . F01 ...
ROW 22 : ... .. . ... ... ... : ... .. . ... ... ... : ... .. . P7F ... : ... .. . ... : ... .. . F02 ...
ROW 23 : ... .. . ... ... ... : ... .. . ... ... ... : --- .. . ... ... : ... .. . ... : ... .. . F03 ...
ROW 24 : ... .. . ... ... ... : ... .. 1 P7F ... ... : C-2 01 . P80 ... : ... .. . ... : ... .. . F02 ...
ROW 25 : ... .. . ... ... ... : ... .. . ... ... ... : ... .. . ... ... : ... .. . ... : ... .. . F01 ...
ROW 26 : ... .. 1 P7F ... ... : ... .. . ... ... ... : ... .. . ... ... : ... .. . ... : ... .. . F02 ...
ROW 27 : ... .. . ... ... ... : ... .. . ... ... ... : ... .. . ... ... : ... .. . ... : ... .. . F03 ...
ROW 28 : A-3 00 A P80 ... ... : D-3 0D A P80 ... ... : ... .. . P7F ... : ... .. . ... : ... .. . F02 ...
ROW 29 : ... .. . ... ... ... : ... .. . ... ... ... : --- .. . ... ... : ... .. . ... : ... .. . F01 ...
ROW 2A : ... .. . ... ... ... : ... .. . ... ... ... : ... .. . ... ... : ... .. . ... : ... .. . F02 ...
ROW 2B : ... .. . ... ... ... : ... .. . ... ... ... : ... .. . ... ... : ... .. . ... : ... .. . F03 ...
ROW 2C : ... .. . ... ... ... : ... .. 1 P7F ... ... : ... .. . ... ... : ... .. . ... : ... .. . F02 ...
ROW 2D : ... .. . ... ... ... : ... .. . ... ... ... : ... .. . ... ... : ... .. . ... : ... .. . F01 ...
ROW 2E : ... .. . ... ... ... : ... .. . ... ... ... : ... .. . ... ... : ... .. . ... : ... .. . F02 ...
ROW 2F : ... .. . ... ... ... : ... .. . ... ... ... : ... .. . ... ... : ... .. . ... : ... .. . F03 ...
ROW 30 : ... .. . ... ... ... : D#3 02 A P80 ... ... : ... .. . ... ... : ... .. . ... : ... .. . F02 ...
ROW 31 : ... .. . ... ... ... : ... .. . ... ... ... : ... .. . ... ... : ... .. . ... : ... .. . F01 ...
ROW 32 : ... .. 1 P7F ... ... : ... .. . ... ... ... : ... .. . ... ... : ... .. . ... : ... .. . F02 ...
ROW 33 : ... .. . ... ... ... : ... .. . ... ... ... : ... .. . ... ... : ... .. . ... : ... .. . F03 ...
ROW 34 : G#3 00 A P80 ... ... : ... .. 1 P7F ... ... : C#3 01 . P80 ... : ... .. . ... : ... .. . F02 ...
ROW 35 : ... .. . ... ... ... : ... .. . ... ... ... : ... .. . ... ... : ... .. . ... : ... .. . F01 ...
ROW 36 : ... .. . ... ... ... : ... .. . ... ... ... : ... .. . P7F ... : ... .. . ... : ... .. . F02 ...
ROW 37 : ... .. . ... ... ... : ... .. . ... ... ... : --- .. . ... ... : ... .. . ... : ... .. . F03 ...
ROW 38 : ... .. . ... ... ... : E-3 02 A P80 ... ... : F#2 01 . P80 ... : ... .. . ... : ... .. . F02 ...
ROW 39 : ... .. . ... ... ... : ... .. . ... ... ... : ... .. . ... ... : ... .. . ... : ... .. . F01 ...
ROW 3A : ... .. . ... ... ... : ... .. . ... ... ... : ... .. . P7F ... : ... .. . ... : ... .. . F02 ...
ROW 3B : ... .. . ... ... ... : ... .. . ... ... ... : --- .. . ... ... : ... .. . ... : ... .. . F03 ...
ROW 3C : ... .. . ... ... ... : ... .. 1 P7F ... ... : C-3 01 . P80 ... : ... .. . ... : ... .. . F02 ...
ROW 3D : ... .. . ... ... ... : ... .. . ... ... ... : ... .. . ... ... : ... .. . ... : ... .. . F01 ...
ROW 3E : ... .. 1 P7F ... ... : ... .. . ... ... ... : ... .. . P7F ... : ... .. . ... : ... .. . F02 ...
ROW 3F : ... .. . ... ... ... : ... .. . ... ... ... : --- .. . ... ... : ... .. . ... : ... .. . F03 ...
ROW 40 : G-3 00 A V00 ... ... : ... .. . ... ... ... : F-2 01 . P80 ... : ... .. . ... : ... .. . F02 ...
ROW 41 : ... .. . ... ... ... : ... .. 0 ... ... ... : ... .. . ... ... : ... .. . ... : ... .. . F01 ...
ROW 42 : ... .. . ... ... ... : G-3 00 5 V02 P80 ... : ... .. . P7F ... : ... .. . ... : ... .. . F02 ...
ROW 43 : ... .. . ... ... ... : ... .. . ... ... ... : --- .. . ... ... : ... .. . ... : ... .. . F03 ...
ROW 44 : ... .. . ... ... ... : ... .. . ... ... ... : C-3 01 . P80 ... : ... .. . ... : ... .. . F02 ...
ROW 45 : ... .. . ... ... ... : ... .. . ... ... ... : ... .. . ... ... : ... .. . ... : ... .. . F01 ...
ROW 46 : ... .. . ... ... ... : ... .. . ... ... ... : ... .. . P7F ... : ... .. . ... : ... .. . F02 ...
ROW 47 : ... .. . ... ... ... : ... .. . ... ... ... : --- .. . ... ... : ... .. . ... : ... .. . F03 ...
ROW 48 : ... .. 1 P7F ... ... : ... .. . ... ... ... : G-3 01 . P80 ... : ... .. . ... : ... .. . F02 ...
ROW 49 : ... .. . ... ... ... : ... .. . ... ... ... : ... .. . ... ... : ... .. . ... : ... .. . F01 ...
ROW 4A : ... .. . ... ... ... : ... .. 1 ... P7E ... : ... .. . P7F ... : ... .. . ... : ... .. . F02 ...
ROW 4B : ... .. . ... ... ... : ... .. . ... ... ... : --- .. . ... ... : ... .. . ... : ... .. . F03 ...
ROW 4C : G-3 00 A P80 ... ... : ... .. . ... ... ... : B-3 01 . P80 ... : ... .. . ... : ... .. . F02 ...
ROW 4D : ... .. . ... ... ... : ... .. . ... ... ... : ... .. . ... ... : ... .. . ... : ... .. . F01 ...
ROW 4E : ... .. . ... ... ... : G-3 00 5 ... P80 ... : ... .. . P7F ... : ... .. . ... : ... .. . F02 ...
ROW 4F : ... .. 1 P7F ... ... : ... .. . ... ... ... : --- .. . ... ... : ... .. . ... : ... .. . F03 ...
ROW 50 : ... .. . ... ... ... : A#3 02 A P80 ... ... : D#4 01 . P80 ... : ... .. . ... : ... .. . F02 ...
ROW 51 : ... .. 0 ... ... ... : ... .. . ... ... ... : ... .. . ... ... : ... .. . ... : ... .. . F01 ...
ROW 52 : ... .. . ... ... ... : ... .. . ... ... ... : ... .. . P7F ... : ... .. . ... : ... .. . F02 ...
ROW 53 : ... .. . ... ... ... : ... .. 1 P7F ... ... : --- .. . ... ... : ... .. . ... : ... .. . F03 ...
ROW 54 : A#3 00 5 V00 P80 ... : D#4 0D A P80 ... ... : G-4 01 . P80 ... : ... .. . ... : ... .. . F02 ...
ROW 55 : ... .. . ... ... ... : ... .. . ... ... ... : ... .. . ... ... : ... .. . ... : ... .. . F01 ...
ROW 56 : ... .. . ... ... ... : ... .. . ... ... ... : ... .. . P7F ... : ... .. . ... : ... .. . F02 ...
ROW 57 : ... .. 1 ... P7E ... : ... .. 1 P7F ... ... : --- .. . ... ... : ... .. . ... : ... .. . F03 ...
ROW 58 : D#4 00 5 ... P80 ... : G-4 0D A P80 ... ... : A#4 01 . P80 ... : ... .. . ... : ... .. . F02 ...
ROW 59 : ... .. . ... ... ... : ... .. . ... ... ... : ... .. . ... ... : ... .. . ... : ... .. . F01 ...
ROW 5A : ... .. . ... ... ... : ... .. . ... ... ... : ... .. . P7F ... : ... .. . ... : ... .. . F02 ...
ROW 5B : ... .. 1 ... P7E ... : ... .. 1 P7F ... ... : --- .. . ... ... : ... .. . ... : ... .. . F03 ...
ROW 5C : G-4 00 5 ... P80 ... : A#4 0D A P80 ... ... : D#5 01 . P80 ... : ... .. . ... : ... .. . F02 ...
ROW 5D : ... .. . ... ... ... : ... .. . ... ... ... : ... .. . ... ... : ... .. . ... : ... .. . F01 ...
ROW 5E : ... .. . ... ... ... : ... .. . ... ... ... : ... .. . P7F ... : ... .. . ... : ... .. . F02 ...
ROW 5F : ... .. 1 ... P7E ... : ... .. 1 P7F ... ... : --- .. . ... ... : ... .. . ... : ... .. . F03 ...
ROW 60 : A#4 00 5 ... P80 ... : D#5 0D A P80 ... ... : G-5 01 . P80 ... : ... .. . ... : ... .. . F02 ...
ROW 61 : ... .. . ... ... ... : ... .. . ... ... ... : ... .. . ... ... : ... .. . ... : ... .. . F01 ...
ROW 62 : ... .. . ... ... ... : ... .. . ... ... ... : ... .. . ... ... : ... .. . ... : ... .. . F02 ...
ROW 63 : ... .. 1 ... P7E ... : ... .. . ... ... ... : ... .. . ... ... : ... .. . ... : ... .. . F03 ...
ROW 64 : D#5 00 5 ... P80 ... : ... .. . ... ... ... : ... .. . ... ... : ... .. . ... : ... .. . F02 ...
ROW 65 : ... .. . ... ... ... : ... .. . ... ... ... : ... .. . ... ... : ... .. . ... : ... .. . F01 ...
ROW 66 : ... .. . ... ... ... : ... .. 1 P7F ... ... : ... .. . P7F ... : ... .. . ... : ... .. . F02 ...
ROW 67 : ... .. 1 ... P7E ... : ... .. . ... ... ... : --- .. . ... ... : ... .. . ... : ... .. . F03 ...
ROW 68 : C#5 00 A V02 P80 ... : C#4 0D A P80 ... ... : D#3 01 . P80 ... : ... .. . ... : ... .. . F02 ...
ROW 69 : ... .. . ... ... ... : ... .. . ... ... ... : ... .. . ... ... : ... .. . ... : ... .. . F01 ...
ROW 6A : ... .. . ... ... ... : ... .. . ... ... ... : ... .. . ... ... : ... .. . ... : ... .. . F02 ...
ROW 6B : ... .. . ... ... ... : ... .. 1 P7F ... ... : ... .. . ... ... : ... .. . ... : ... .. . F03 ...
ROW 6C : ... .. . ... ... ... : F#4 02 A P80 ... ... : ... .. . ... ... : ... .. . ... : ... .. . F02 ...
ROW 6D : ... .. . ... ... ... : ... .. . ... ... ... : ... .. . ... ... : ... .. . ... : ... .. . F01 ...
ROW 6E : ... .. . ... ... ... : ... .. . ... ... ... : ... .. . P7F ... : ... .. . ... : ... .. . F02 ...
ROW 6F : ... .. . ... ... ... : ... .. 1 P7F ... ... : --- .. . ... ... : ... .. . ... : ... .. . F03 ...
ROW 70 : ... .. . ... ... ... : A-4 02 A P80 ... ... : F-2 01 . P80 ... : ... .. . ... : ... .. . F02 ...
ROW 71 : ... .. . ... ... ... : ... .. . ... ... ... : ... .. . ... ... : ... .. . ... : ... .. . F01 ...
ROW 72 : ... .. 1 ... P7F ... : ... .. . ... ... ... : ... .. . P7F ... : ... .. . ... : ... .. . F02 ...
ROW 73 : ... .. . ... ... ... : ... .. 1 P7F ... ... : --- .. . ... ... : ... .. . ... : ... .. . F03 ...
ROW 74 : D-5 00 A P80 ... ... : D-4 0D A P80 ... ... : F-1 01 . P80 ... : ... .. . ... : ... .. . F02 ...
ROW 75 : ... .. . ... ... ... : ... .. . ... ... ... : ... .. . ... ... : ... .. . ... : ... .. . F01 ...
ROW 76 : ... .. . ... ... ... : ... .. . ... ... ... : ... .. . ... ... : ... .. . ... : ... .. . F02 ...
ROW 77 : ... .. . ... ... ... : ... .. 1 P7F ... ... : ... .. . ... ... : ... .. . ... : ... .. . F03 ...
ROW 78 : ... .. . ... ... ... : F#4 02 A P80 ... ... : ... .. . ... ... : ... .. . ... : ... .. . F02 ...
ROW 79 : ... .. . ... ... ... : ... .. . ... ... ... : ... .. . ... ... : ... .. . ... : ... .. . F01 ...
ROW 7A : ... .. . ... ... ... : ... .. . ... ... ... : ... .. . ... ... : ... .. . ... : ... .. . F02 ...
ROW 7B : ... .. . ... ... ... : ... .. 1 P7F ... ... : ... .. . ... ... : ... .. . ... : ... .. . F03 ...
ROW 7C : ... .. . ... ... ... : A-4 02 A P80 ... ... : ... .. . ... ... : ... .. . ... : ... .. . F02 ...
ROW 7D : ... .. . ... ... ... : ... .. . ... ... ... : ... .. . ... ... : ... .. . ... : ... .. . F01 ...
ROW 7E : ... .. . ... ... ... : ... .. . ... ... ... : ... .. . P7F ... : ... .. . ... : ... .. . F02 ...
ROW 7F : ... .. 1 ... P7F ... : ... .. 1 P7F ... ... : --- .. . ... ... : ... .. . ... : ... .. . F03 ...

PATTERN 10
ROW 00 : A#4 0D A ... P80 ... : F-4 0D A P80 ... ... : A#1 01 . P81 ... : ... .. . ... : ... .. . F02 ...
ROW 01 : ... .. . ... ... ... : ... .. . ... ... ... : ... .. . P7F ... : ... .. . ... : ... .. . F01 ...
ROW 02 : ... .. . ... ... ... : ... .. . ... ... ... : --- .. . ... ... : ... .. . ... : ... .. . F02 ...
ROW 03 : ... .. . ... ... ... : ... .. . ... ... ... : ... .. . ... ... : ... .. . ... : ... .. . F03 ...
ROW 04 : ... .. 1 ... P7F ... : ... .. 1 P7F ... ... : A#1 01 . P81 ... : ... .. . ... : ... .. . F02 ...
ROW 05 : ... .. . ... ... ... : ... .. . ... ... ... : ... .. . P7F ... : ... .. . ... : ... .. . F01 ...
ROW 06 : ... .. . ... ... ... : ... .. . ... ... ... : --- .. . ... ... : ... .. . ... : ... .. . F02 ...
ROW 07 : ... .. . ... ... ... : ... .. . ... ... ... : ... .. . ... ... : ... .. . ... : ... .. . F03 ...
ROW 08 : A#5 0C A V02 P80 ... : A#4 0D A P80 ... ... : ... .. . ... ... : ... .. . ... : ... .. . F02 ...
ROW 09 : ... .. . V00 ... ... : ... .. . ... ... ... : ... .. . ... ... : ... .. . ... : ... .. . F01 ...
ROW 0A : ... .. 1 ... P7F ... : F-4 0D 1 P7F ... ... : ... .. . ... ... : ... .. . ... : ... .. . F02 ...
ROW 0B : ... .. . ... ... ... : ... .. . ... ... ... : ... .. . ... ... : ... .. . ... : ... .. . F03 ...
ROW 0C : A#5 0C 9 V01 P80 ... : A#3 02 A P81 ... ... : A#2 01 . P81 ... : ... .. . ... : ... .. . F02 ...
ROW 0D : ... .. . ... ... ... : A#4 02 1 P7F ... ... : ... .. . P7F ... : ... .. . ... : ... .. . F01 ...
ROW 0E : ... .. 1 ... P7F ... : ... .. . ... ... ... : --- .. . ... ... : ... .. . ... : ... .. . F02 ...
ROW 0F : ... .. . ... ... ... : ... .. . ... ... ... : ... .. . ... ... : ... .. . ... : ... .. . F03 ...
ROW 10 : A#5 0C 8 V00 P80 ... : A#3 02 A P81 ... ... : A#2 01 . P81 ... : ... .. . ... : ... .. . F02 ...
ROW 11 : ... .. . ... ... ... : A#3 02 1 P7F ... ... : ... .. . P7F ... : ... .. . ... : ... .. . F01 ...
ROW 12 : ... .. 1 ... P7F ... : ... .. . ... ... ... : --- .. . ... ... : ... .. . ... : ... .. . F02 ...
ROW 13 : ... .. . ... ... ... : ... .. . ... ... ... : ... .. . ... ... : ... .. . ... : ... .. . F03 ...
ROW 14 : D-6 0C A V02 P80 ... : D-5 0D A P80 ... ... : ... .. . ... ... : ... .. . ... : ... .. . F02 ...
ROW 15 : ... .. . ... ... ... : ... .. . ... ... ... : ... .. . ... ... : ... .. . ... : ... .. . F01 ...
ROW 16 : ... .. 1 ... P7F ... : ... .. . ... ... ... : ... .. . ... ... : ... .. . ... : ... .. . F02 ...
ROW 17 : ... .. . ... ... ... : A#3 02 1 P7F ... ... : ... .. . ... ... : ... .. . ... : ... .. . F03 ...
ROW 18 : ... 0C 9 V01 P80 ... : D-4 02 A P81 ... ... : A#3 01 . P81 ... : ... .. . ... : ... .. . F02 ...
ROW 19 : ... .. . ... ... ... : D-5 02 1 P7F ... ... : ... .. . P7F ... : ... .. . ... : ... .. . F01 ...
ROW 1A : ... .. 1 ... P7F ... : ... .. . ... ... ... : --- .. . ... ... : ... .. . ... : ... .. . F02 ...
ROW 1B : ... .. . ... ... ... : ... .. . ... ... ... : ... .. . ... ... : ... .. . ... : ... .. . F03 ...
ROW 1C : ... 0C 8 V00 P80 ... : D-4 02 A P81 ... ... : A#3 01 . P81 ... : ... .. . ... : ... .. . F02 ...
ROW 1D : ... .. . ... ... ... : D-4 02 1 P7F ... ... : ... .. . P7F ... : ... .. . ... : ... .. . F01 ...
ROW 1E : ... .. 1 ... P7F ... : ... .. . ... ... ... : --- .. . ... ... : ... .. . ... : ... .. . F02 ...
ROW 1F : ... .. . ... ... ... : ... .. . ... ... ... : ... .. . ... ... : ... .. . ... : ... .. . F03 ...
ROW 20 : C-6 0C A V02 P80 ... : C-5 0D A P80 ... ... : ... .. . ... ... : ... .. . ... : ... .. . F02 ...
ROW 21 : ... .. . ... ... ... : ... .. . ... ... ... : ... .. . ... ... : ... .. . ... : ... .. . F01 ...
ROW 22 : ... .. 1 ... P7F ... : D-4 02 1 P7F ... ... : ... .. . ... ... : ... .. . ... : ... .. . F02 ...
ROW 23 : ... .. . ... ... ... : ... .. . ... ... ... : ... .. . ... ... : ... .. . ... : ... .. . F03 ...
ROW 24 : ... 0C 9 V01 P80 ... : C-4 02 A P81 ... ... : G-3 01 . P81 ... : ... .. . ... : ... .. . F02 ...
ROW 25 : ... .. . ... ... ... : C-5 02 1 P7F ... ... : ... .. . P7F ... : ... .. . ... : ... .. . F01 ...
ROW 26 : ... .. 1 ... P7F ... : ... .. . ... ... ... : --- .. . ... ... : ... .. . ... : ... .. . F02 ...
ROW 27 : ... .. . ... ... ... : ... .. . ... ... ... : ... .. . ... ... : ... .. . ... : ... .. . F03 ...
ROW 28 : ... 0C 8 V00 P80 ... : C-4 02 A P81 ... ... : G-3 01 . P80 ... : ... .. . ... : ... .. . F02 ...
ROW 29 : ... .. . ... ... ... : C-4 02 1 P7F ... ... : ... .. . ... ... : ... .. . ... : ... .. . F01 ...
ROW 2A : ... .. 1 ... P7F ... : ... .. . ... ... ... : ... .. . P7F ... : ... .. . ... : ... .. . F02 ...
ROW 2B : ... .. . ... ... ... : ... .. . ... ... ... : --- .. . ... ... : ... .. . ... : ... .. . F03 ...
ROW 2C : A#5 0C A V02 P80 ... : A#4 0D A P80 ... ... : ... .. . ... ... : ... .. . ... : ... .. . F02 ...
ROW 2D : ... .. . ... ... ... : ... .. . ... ... ... : ... .. . ... ... : ... .. . ... : ... .. . F01 ...
ROW 2E : ... .. 1 ... P7F ... : ... .. . ... ... ... : ... .. . ... ... : ... .. . ... : ... .. . F02 ...
ROW 2F : ... .. . ... ... ... : C-4 02 1 P7F ... ... : ... .. . ... ... : ... .. . ... : ... .. . F03 ...
ROW 30 : ... 0C 9 V01 P80 ... : A#3 02 A P81 ... ... : G-2 01 . P81 ... : ... .. . ... : ... .. . F02 ...
ROW 31 : ... .. . ... ... ... : A#4 02 1 P7F ... ... : ... .. . P7F ... : ... .. . ... : ... .. . F01 ...
ROW 32 : ... .. 1 ... P7F ... : ... .. . ... ... ... : --- .. . ... ... : ... .. . ... : ... .. . F02 ...
ROW 33 : ... .. . ... ... ... : ... .. . ... ... ... : ... .. . ... ... : ... .. . ... : ... .. . F03 ...
ROW 34 : ... 0C 8 V00 P80 ... : A#3 02 A P81 ... ... : G-2 01 . P80 ... : ... .. . ... : ... .. . F02 ...
ROW 35 : ... .. . ... ... ... : A#3 02 1 P7F ... ... : ... .. . ... ... : ... .. . ... : ... .. . F01 ...
ROW 36 : ... .. 1 ... P7F ... : ... .. . ... ... ... : ... .. . P7F ... : ... .. . ... : ... .. . F02 ...
ROW 37 : ... .. . ... ... ... : ... .. . ... ... ... : --- .. . ... ... : ... .. . ... : ... .. . F03 ...
ROW 38 : A#3 02 5 ... P80 ... : G-4 02 A P80 ... ... : ... .. . ... ... : ... .. . ... : ... .. . F02 ...
ROW 39 : A#3 02 1 ... P7E ... : ... .. . ... ... ... : ... .. . ... ... : ... .. . ... : ... .. . F01 ...
ROW 3A : ... .. . ... ... ... : ... .. . ... ... ... : ... .. . ... ... : ... .. . ... : ... .. . F02 ...
ROW 3B : ... .. . ... ... ... : A#3 02 1 P7F ... ... : ... .. . ... ... : ... .. . ... : ... .. . F03 ...
ROW 3C : G-4 02 5 ... P80 ... : A#4 02 A P80 ... ... : A#1 01 . P81 ... : ... .. . ... : ... .. . F02 ...
ROW 3D : ... .. . ... ... ... : ... .. . ... ... ... : ... .. . P7F ... : ... .. . ... : ... .. . F01 ...
ROW 3E : ... .. . ... ... ... : G-4 02 1 P7F ... ... : --- .. . ... ... : ... .. . ... : ... .. . F02 ...
ROW 3F : A#3 02 1 ... P7E ... : ... .. . ... ... ... : ... .. . ... ... : ... .. . ... : ... .. . F03 ...
ROW 40 : A#4 02 5 ... P80 ... : A#4 02 A P81 ... ... : A#1 01 . P80 ... : ... .. . ... : ... .. . F02 ...
ROW 41 : ... .. 0 ... ... ... : A#4 02 1 P7F ... ... : ... .. . ... ... : ... .. . ... : ... .. . F01 ...
ROW 42 : ... .. . ... ... ... : ... .. . ... ... ... : ... .. . P7F ... : ... .. . ... : ... .. . F02 ...
ROW 43 : ... .. . ... ... ... : ... .. . ... ... ... : --- .. . ... ... : ... .. . ... : ... .. . F03 ...
ROW 44 : D-6 0C A V02 P80 ... : D-5 0D A P80 ... ... : ... .. . ... ... : ... .. . ... : ... .. . F02 ...
ROW 45 : ... .. . ... ... ... : ... .. . ... ... ... : ... .. . ... ... : ... .. . ... : ... .. . F01 ...
ROW 46 : ... .. 1 ... P7F ... : A#4 02 1 P7F ... ... : ... .. . ... ... : ... .. . ... : ... .. . F02 ...
ROW 47 : ... .. . ... ... ... : ... .. . ... ... ... : ... .. . ... ... : ... .. . ... : ... .. . F03 ...
ROW 48 : ... 0C 9 V01 P80 ... : D-4 02 A P81 ... ... : A#2 01 . P81 ... : ... .. . ... : ... .. . F02 ...
ROW 49 : ... .. . ... ... ... : D-5 02 1 P7F ... ... : ... .. . P7F ... : ... .. . ... : ... .. . F01 ...
ROW 4A : ... .. 1 ... P7F ... : ... .. . ... ... ... : --- .. . ... ... : ... .. . ... : ... .. . F02 ...
ROW 4B : ... .. . ... ... ... : ... .. . ... ... ... : ... .. . ... ... : ... .. . ... : ... .. . F03 ...
ROW 4C : ... 0C 8 V00 P80 ... : D-4 02 A P81 ... ... : A#2 01 . P80 ... : ... .. . ... : ... .. . F02 ...
ROW 4D : ... .. . ... ... ... : D-4 02 1 P7F ... ... : ... .. . ... ... : ... .. . ... : ... .. . F01 ...
ROW 4E : ... .. 1 ... P7F ... : ... .. . ... ... ... : ... .. . P7F ... : ... .. . ... : ... .. . F02 ...
ROW 4F : ... .. . ... ... ... : ... .. . ... ... ... : --- .. . ... ... : ... .. . ... : ... .. . F03 ...
ROW 50 : C-6 0C A V02 P80 ... : C-5 0D A P80 ... ... : ... .. . ... ... : ... .. . ... : ... .. . F02 ...
ROW 51 : ... .. . ... ... ... : ... .. . ... ... ... : ... .. . ... ... : ... .. . ... : ... .. . F01 ...
ROW 52 : ... .. 1 ... P7F ... : ... .. . ... ... ... : ... .. . ... ... : ... .. . ... : ... .. . F02 ...
ROW 53 : ... .. . ... ... ... : D-4 02 1 P7F ... ... : ... .. . ... ... : ... .. . ... : ... .. . F03 ...
ROW 54 : ... 0C 9 V01 P80 ... : C-4 02 A P81 ... ... : A#3 01 . P81 ... : ... .. . ... : ... .. . F02 ...
ROW 55 : ... .. . ... ... ... : C-5 02 1 P7F ... ... : ... .. . P7F ... : ... .. . ... : ... .. . F01 ...
ROW 56 : ... .. 1 ... P7F ... : ... .. . ... ... ... : --- .. . ... ... : ... .. . ... : ... .. . F02 ...
ROW 57 : ... .. . ... ... ... : ... .. . ... ... ... : ... .. . ... ... : ... .. . ... : ... .. . F03 ...
ROW 58 : ... 0C 8 V00 P80 ... : C-4 02 A P81 ... ... : A#3 01 . P80 ... : ... .. . ... : ... .. . F02 ...
ROW 59 : ... .. . ... ... ... : C-4 02 1 P7F ... ... : ... .. . ... ... : ... .. . ... : ... .. . F01 ...
ROW 5A : ... .. 1 ... P7F ... : ... .. . ... ... ... : ... .. . P7F ... : ... .. . ... : ... .. . F02 ...
ROW 5B : ... .. . ... ... ... : ... .. . ... ... ... : --- .. . ... ... : ... .. . ... : ... .. . F03 ...
ROW 5C : A#5 0C A V02 P80 ... : A#4 0D A P80 ... ... : ... .. . ... ... : ... .. . ... : ... .. . F02 ...
ROW 5D : ... .. . ... ... ... : ... .. . ... ... ... : ... .. . ... ... : ... .. . ... : ... .. . F01 ...
ROW 5E : ... .. 1 ... P7F ... : C-4 02 1 P7F ... ... : ... .. . ... ... : ... .. . ... : ... .. . F02 ...
ROW 5F : ... .. . ... ... ... : ... .. . ... ... ... : ... .. . ... ... : ... .. . ... : ... .. . F03 ...
ROW 60 : ... 0C 9 V01 P80 ... : A#3 02 A P81 ... ... : G-3 01 . P81 ... : ... .. . ... : ... .. . F02 ...
ROW 61 : ... .. . ... ... ... : A#4 02 1 P7F ... ... : ... .. . P7F ... : ... .. . ... : ... .. . F01 ...
ROW 62 : ... .. 1 ... P7F ... : ... .. . ... ... ... : --- .. . ... ... : ... .. . ... : ... .. . F02 ...
ROW 63 : ... .. . ... ... ... : ... .. . ... ... ... : ... .. . ... ... : ... .. . ... : ... .. . F03 ...
ROW 64 : ... 0C 8 V00 P80 ... : D-4 02 A P81 ... ... : G-3 01 . P80 ... : ... .. . ... : ... .. . F02 ...
ROW 65 : ... .. . ... ... ... : A#3 02 1 P7F ... ... : ... .. . ... ... : ... .. . ... : ... .. . F01 ...
ROW 66 : ... .. 1 ... P7F ... : ... .. . ... ... ... : ... .. . P7F ... : ... .. . ... : ... .. . F02 ...
ROW 67 : ... .. . ... ... ... : ... .. . ... ... ... : --- .. . ... ... : ... .. . ... : ... .. . F03 ...
ROW 68 : ... .. . ... ... ... : F-4 02 A P81 ... ... : ... .. . ... ... : ... .. . ... : ... .. . F02 ...
ROW 69 : ... .. . ... ... ... : D-4 02 1 P7F ... ... : ... .. . ... ... : ... .. . ... : ... .. . F01 ...
ROW 6A : ... .. . ... ... ... : ... .. . ... ... ... : ... .. . ... ... : ... .. . ... : ... .. . F02 ...
ROW 6B : F-4 02 5 ... P80 ... : ... .. . ... ... ... : ... .. . ... ... : ... .. . ... : ... .. . F03 ...
ROW 6C : D-4 02 . ... P7E ... : G-4 02 A P80 ... ... : G-2 01 . P81 ... : ... .. . ... : ... .. . F02 ...
ROW 6D : ... .. . ... ... ... : ... .. . ... ... ... : ... .. . P7F ... : ... .. . ... : ... .. . F01 ...
ROW 6E : ... .. . ... ... ... : F-4 02 1 P7F ... ... : --- .. . ... ... : ... .. . ... : ... .. . F02 ...
ROW 6F : G-4 02 . ... P80 ... : ... .. . ... ... ... : ... .. . ... ... : ... .. . ... : ... .. . F03 ...
ROW 70 : ... .. . ... ... ... : A#4 02 A P80 ... ... : G-2 01 . P80 ... : ... .. . ... : ... .. . F02 ...
ROW 71 : F-4 02 . ... P7E ... : ... .. . ... ... ... : ... .. . ... ... : ... .. . ... : ... .. . F01 ...
ROW 72 : ... .. . ... ... ... : G-4 02 1 P7F ... ... : ... .. . ... ... : ... .. . ... : ... .. . F02 ...
ROW 73 : A#4 02 . ... P80 ... : ... .. . ... ... ... : ... .. . ... ... : ... .. . ... : ... .. . F03 ...
ROW 74 : ... .. . ... ... ... : C-4 02 A P80 ... ... : ... .. . ... ... : ... .. . ... : ... .. . F02 ...
ROW 75 : G-4 02 . ... P7E ... : ... .. . ... ... ... : ... .. . ... ... : ... .. . ... : ... .. . F01 ...
ROW 76 : ... .. . ... ... ... : A#4 02 1 P7F ... ... : ... .. . ... ... : ... .. . ... : ... .. . F02 ...
ROW 77 : C-4 02 . ... P80 ... : ... .. . ... ... ... : ... .. . P7F ... : ... .. . ... : ... .. . F03 ...
ROW 78 : ... .. . ... ... ... : D-4 02 A P80 ... ... : --- .. . ... ... : ... .. . ... : ... .. . F02 ...
ROW 79 : A#4 02 . ... P7E ... : ... .. . ... ... ... : ... .. . ... ... : ... .. . ... : ... .. . F01 ...
ROW 7A : ... .. . ... ... ... : C-4 02 1 P7F ... ... : ... .. . ... ... : ... .. . ... : ... .. . F02 ...
ROW 7B : D-4 02 . ... P80 ... : ... .. . ... ... ... : ... .. . ... ... : ... .. . ... : ... .. . F03 ...
ROW 7C : ... .. . ... ... ... : F-4 02 A P80 ... ... : ... .. . ... ... : ... .. . ... : ... .. . F02 ...
ROW 7D : C-4 02 . ... P7E ... : ... .. . ... ... ... : ... .. . ... ... : ... .. . ... : ... .. . F01 ...
ROW 7E : ... .. . ... ... ... : D-4 02 1 P7F ... ... : ... .. . ... ... : ... .. . ... : ... .. . F02 ...
ROW 7F : F-4 02 . ... P80 ... : ... .. . ... ... ... : ... .. . ... ... : ... .. . ... : ... .. . F03 ...

PATTERN 11
ROW 00 : --- .. . ... ... ... : A#3 0D A P80 ... ... : A#2 01 . P80 ... : ... .. . ... : ... .. . F02 ...
ROW 01 : ... .. . ... ... ... : ... .. . ... ... ... : ... .. . ... ... : ... .. . ... : ... .. . F01 ...
ROW 02 : ... .. . ... ... ... : ... .. . ... ... ... : ... .. . P7F ... : ... .. . ... : ... .. . F02 ...
ROW 03 : ... .. . ... ... ... : ... .. . ... ... ... : --- .. . ... ... : ... .. . ... : ... .. . F03 ...
ROW 04 : A#3 0D 5 ... P80 ... : ... .. 1 P7F ... ... : A#2 01 . P80 ... : ... .. . ... : ... .. . F02 ...
ROW 05 : ... .. . ... ... ... : ... .. . ... ... ... : ... .. . ... ... : ... .. . ... : ... .. . F01 ...
ROW 06 : ... .. . ... ... ... : ... .. . ... ... ... : ... .. . ... ... : ... .. . ... : ... .. . F02 ...
ROW 07 : ... .. 1 ... P7E ... : ... .. . ... ... ... : ... .. . P7F ... : ... .. . ... : ... .. . F03 ...
ROW 08 : A#5 0C A ... P80 ... : A#4 0D A P80 ... ... : --- .. . ... ... : ... .. . ... : ... .. . F02 ...
ROW 09 : ... .. . ... ... ... : ... .. . ... ... ... : ... .. . ... ... : ... .. . ... : ... .. . F01 ...
ROW 0A : ... .. . ... ... ... : A#3 02 1 P7F ... ... : ... .. . ... ... : ... .. . ... : ... .. . F02 ...
ROW 0B : ... .. . ... ... ... : ... .. . ... ... ... : ... .. . ... ... : ... .. . ... : ... .. . F03 ...
ROW 0C : ... .. 1 ... ... ... : A#3 02 A P80 ... ... : A#3 01 . P80 ... : ... .. . ... : ... .. . F02 ...
ROW 0D : ... .. . ... ... ... : ... .. . ... ... ... : ... .. . ... ... : ... .. . ... : ... .. . F01 ...
ROW 0E : ... .. . ... ... ... : A#4 02 1 P7F ... ... : ... .. . P7F ... : ... .. . ... : ... .. . F02 ...
ROW 0F : ... .. . ... ... ... : ... .. . ... ... ... : --- .. . ... ... : ... .. . ... : ... .. . F03 ...
ROW 10 : ... .. . ... ... ... : A#3 02 A P80 ... ... : A#3 01 . P80 ... : ... .. . ... : ... .. . F02 ...
ROW 11 : ... .. . ... ... ... : ... .. . ... ... ... : ... .. . ... ... : ... .. . ... : ... .. . F01 ...
ROW 12 : ... .. . ... ... ... : A#3 02 1 P7F ... ... : ... .. . ... ... : ... .. . ... : ... .. . F02 ...
ROW 13 : ... .. . ... P7F ... : ... .. . ... ... ... : ... .. . P7F ... : ... .. . ... : ... .. . F03 ...
ROW 14 : D-6 0C A ... P80 ... : D-5 0D A P80 ... ... : --- .. . ... ... : ... .. . ... : ... .. . F02 ...
ROW 15 : ... .. . ... ... ... : ... .. . ... ... ... : ... .. . ... ... : ... .. . ... : ... .. . F01 ...
ROW 16 : ... .. . ... ... ... : A#3 02 1 P7F ... ... : ... .. . ... ... : ... .. . ... : ... .. . F02 ...
ROW 17 : ... .. . ... ... ... : ... .. . ... ... ... : ... .. . ... ... : ... .. . ... : ... .. . F03 ...
ROW 18 : ... .. 1 ... ... ... : D-4 02 A P80 ... ... : A#4 01 . P80 ... : ... .. . ... : ... .. . F02 ...
ROW 19 : ... .. . ... ... ... : ... .. . ... ... ... : ... .. . ... ... : ... .. . ... : ... .. . F01 ...
ROW 1A : ... .. . ... ... ... : D-5 02 1 P7F ... ... : ... .. . P7F ... : ... .. . ... : ... .. . F02 ...
ROW 1B : ... .. . ... ... ... : ... .. . ... ... ... : --- .. . ... ... : ... .. . ... : ... .. . F03 ...
ROW 1C : ... .. . ... ... ... : D-4 02 A P80 ... ... : A#4 01 . P80 ... : ... .. . ... : ... .. . F02 ...
ROW 1D : ... .. . ... ... ... : ... .. . ... ... ... : ... .. . ... ... : ... .. . ... : ... .. . F01 ...
ROW 1E : ... .. . ... ... ... : D-4 02 1 P7F ... ... : ... .. . ... ... : ... .. . ... : ... .. . F02 ...
ROW 1F : ... .. . ... P7F ... : ... .. . ... ... ... : ... .. . P7F ... : ... .. . ... : ... .. . F03 ...
ROW 20 : C-6 0C A ... P80 ... : C-5 0D A P80 ... ... : --- .. . ... ... : ... .. . ... : ... .. . F02 ...
ROW 21 : ... .. . ... ... ... : ... .. . ... ... ... : ... .. . ... ... : ... .. . ... : ... .. . F01 ...
ROW 22 : ... .. . ... ... ... : D-4 02 1 P7F ... ... : ... .. . ... ... : ... .. . ... : ... .. . F02 ...
ROW 23 : ... .. . ... ... ... : ... .. . ... ... ... : ... .. . ... ... : ... .. . ... : ... .. . F03 ...
ROW 24 : ... .. 1 ... ... ... : C-4 02 A P80 ... ... : G-3 01 . P80 ... : ... .. . ... : ... .. . F02 ...
ROW 25 : ... .. . ... ... ... : ... .. . ... ... ... : ... .. . ... ... : ... .. . ... : ... .. . F01 ...
ROW 26 : ... .. . ... ... ... : C-5 02 1 P7F ... ... : ... .. . P7F ... : ... .. . ... : ... .. . F02 ...
ROW 27 : ... .. . ... ... ... : ... .. . ... ... ... : --- .. . ... ... : ... .. . ... : ... .. . F03 ...
ROW 28 : ... .. . ... ... ... : C-4 02 A P80 ... ... : G-3 01 . P80 ... : ... .. . ... : ... .. . F02 ...
ROW 29 : ... .. . ... ... ... : ... .. . ... ... ... : ... .. . ... ... : ... .. . ... : ... .. . F01 ...
ROW 2A : ... .. . ... ... ... : C-4 02 1 P7F ... ... : ... .. . ... ... : ... .. . ... : ... .. . F02 ...
ROW 2B : ... .. . ... P7F ... : ... .. . ... ... ... : ... .. . P7F ... : ... .. . ... : ... .. . F03 ...
ROW 2C : A#5 0C A ... P80 ... : A#4 0D A P80 ... ... : --- .. . ... ... : ... .. . ... : ... .. . F02 ...
ROW 2D : ... .. . ... ... ... : ... .. . ... ... ... : ... .. . ... ... : ... .. . ... : ... .. . F01 ...
ROW 2E : ... .. . ... ... ... : C-4 02 1 P7F ... ... : ... .. . ... ... : ... .. . ... : ... .. . F02 ...
ROW 2F : ... .. . ... ... ... : ... .. . ... ... ... : ... .. . ... ... : ... .. . ... : ... .. . F03 ...
ROW 30 : ... .. 1 ... ... ... : A#3 02 A P80 ... ... : G-4 01 . P80 ... : ... .. . ... : ... .. . F02 ...
ROW 31 : ... .. . ... ... ... : ... .. . ... ... ... : ... .. . ... ... : ... .. . ... : ... .. . F01 ...
ROW 32 : ... .. . ... ... ... : A#4 02 1 P7F ... ... : ... .. . P7F ... : ... .. . ... : ... .. . F02 ...
ROW 33 : ... .. . ... ... ... : ... .. . ... ... ... : --- .. . ... ... : ... .. . ... : ... .. . F03 ...
ROW 34 : ... .. . ... ... ... : A#3 02 A P80 ... ... : G-4 01 . P80 ... : ... .. . ... : ... .. . F02 ...
ROW 35 : ... .. . ... P7F ... : ... .. . ... ... ... : ... .. . ... ... : ... .. . ... : ... .. . F01 ...
ROW 36 : ... .. 0 ... ... ... : A#3 02 1 P7F ... ... : ... .. . ... ... : ... .. . ... : ... .. . F02 ...
ROW 37 : ... .. . ... ... ... : ... .. . ... ... ... : ... .. . P7F ... : ... .. . ... : ... .. . F03 ...
ROW 38 : ... .. . ... ... ... : G-4 02 A P80 ... ... : --- .. . ... ... : ... .. . ... : ... .. . F02 ...
ROW 39 : A#3 02 5 P80 ... ... : ... .. . ... ... ... : ... .. . ... ... : ... .. . ... : ... .. . F01 ...
ROW 3A : ... .. . ... ... ... : A#3 02 1 P7F ... ... : ... .. . ... ... : ... .. . ... : ... .. . F02 ...
ROW 3B : A#3 02 . P7E ... ... : ... .. . ... ... ... : ... .. . ... ... : ... .. . ... : ... .. . F03 ...
ROW 3C : ... .. . ... ... ... : A#4 02 A P80 ... ... : D#3 01 . P80 ... : ... .. . ... : ... .. . F02 ...
ROW 3D : G-4 02 5 P80 ... ... : ... .. . ... ... ... : ... .. . ... ... : ... .. . ... : ... .. . F01 ...
ROW 3E : ... .. . ... ... ... : G-4 02 1 P7F ... ... : ... .. . P7F ... : ... .. . ... : ... .. . F02 ...
ROW 3F : A#3 02 . P7E ... ... : ... .. . ... ... ... : --- .. . ... ... : ... .. . ... : ... .. . F03 ...
ROW 40 : ... .. . ... ... ... : A#4 02 A P80 ... ... : D#3 01 . P80 ... : ... .. . ... : ... .. . F02 ...
ROW 41 : A#4 02 5 P80 ... ... : ... .. . ... ... ... : ... .. . ... ... : ... .. . ... : ... .. . F01 ...
ROW 42 : ... .. . ... ... ... : A#4 02 1 P7F ... ... : ... .. . ... ... : ... .. . ... : ... .. . F02 ...
ROW 43 : G-4 02 . P7E ... ... : ... .. . ... ... ... : ... .. . P7F ... : ... .. . ... : ... .. . F03 ...
ROW 44 : D-6 0C A ... P80 ... : D-5 0D A P80 ... ... : --- .. . ... ... : ... .. . ... : ... .. . F02 ...
ROW 45 : ... .. . ... ... ... : ... .. . ... ... ... : ... .. . ... ... : ... .. . ... : ... .. . F01 ...
ROW 46 : ... .. . ... ... ... : A#4 02 1 P7F ... ... : ... .. . ... ... : ... .. . ... : ... .. . F02 ...
ROW 47 : ... .. . ... ... ... : ... .. . ... ... ... : ... .. . ... ... : ... .. . ... : ... .. . F03 ...
ROW 48 : ... .. 1 ... ... ... : D-4 02 A P80 ... ... : G-4 01 . P80 ... : ... .. . ... : ... .. . F02 ...
ROW 49 : ... .. . ... ... ... : ... .. . ... ... ... : ... .. . ... ... : ... .. . ... : ... .. . F01 ...
ROW 4A : ... .. . ... ... ... : D-5 02 1 P7F ... ... : ... .. . P7F ... : ... .. . ... : ... .. . F02 ...
ROW 4B : ... .. . ... ... ... : ... .. . ... ... ... : --- .. . ... ... : ... .. . ... : ... .. . F03 ...
ROW 4C : ... .. . ... ... ... : D-4 02 A P80 ... ... : G-4 01 . P80 ... : ... .. . ... : ... .. . F02 ...
ROW 4D : ... .. . ... ... ... : ... .. . ... ... ... : ... .. . ... ... : ... .. . ... : ... .. . F01 ...
ROW 4E : ... .. . ... ... ... : D-4 02 1 P7F ... ... : ... .. . ... ... : ... .. . ... : ... .. . F02 ...
ROW 4F : ... .. . ... P7F ... : ... .. . ... ... ... : ... .. . P7F ... : ... .. . ... : ... .. . F03 ...
ROW 50 : C-6 0C A ... P80 ... : C-5 0D A P80 ... ... : --- .. . ... ... : ... .. . ... : ... .. . F02 ...
ROW 51 : ... .. . ... ... ... : ... .. . ... ... ... : ... .. . ... ... : ... .. . ... : ... .. . F01 ...
ROW 52 : ... .. . ... ... ... : D-4 02 1 P7F ... ... : ... .. . ... ... : ... .. . ... : ... .. . F02 ...
ROW 53 : ... .. . ... ... ... : ... .. . ... ... ... : ... .. . ... ... : ... .. . ... : ... .. . F03 ...
ROW 54 : ... .. 1 ... ... ... : C-4 02 A P80 ... ... : D#3 01 . P80 ... : ... .. . ... : ... .. . F02 ...
ROW 55 : ... .. . ... ... ... : ... .. . ... ... ... : ... .. . ... ... : ... .. . ... : ... .. . F01 ...
ROW 56 : ... .. . ... ... ... : C-5 02 1 P7F ... ... : ... .. . P7F ... : ... .. . ... : ... .. . F02 ...
ROW 57 : ... .. . ... ... ... : ... .. . ... ... ... : --- .. . ... ... : ... .. . ... : ... .. . F03 ...
ROW 58 : ... .. . ... ... ... : C-4 02 A P80 ... ... : D#3 01 . P80 ... : ... .. . ... : ... .. . F02 ...
ROW 59 : ... .. . ... ... ... : ... .. . ... ... ... : ... .. . ... ... : ... .. . ... : ... .. . F01 ...
ROW 5A : ... .. . ... ... ... : C-4 02 1 P7F ... ... : ... .. . ... ... : ... .. . ... : ... .. . F02 ...
ROW 5B : ... .. . ... P7F ... : ... .. . ... ... ... : ... .. . P7F ... : ... .. . ... : ... .. . F03 ...
ROW 5C : A#5 0C A ... P80 ... : A#4 0D A P80 ... ... : --- .. . ... ... : ... .. . ... : ... .. . F02 ...
ROW 5D : ... .. . ... ... ... : ... .. . ... ... ... : ... .. . ... ... : ... .. . ... : ... .. . F01 ...
ROW 5E : ... .. . ... ... ... : C-4 02 1 P7F ... ... : ... .. . ... ... : ... .. . ... : ... .. . F02 ...
ROW 5F : ... .. . ... ... ... : ... .. . ... ... ... : ... .. . ... ... : ... .. . ... : ... .. . F03 ...
ROW 60 : ... .. 1 ... ... ... : A#3 02 A P80 ... ... : F-2 01 . P80 ... : ... .. . ... : ... .. . F02 ...
ROW 61 : ... .. . ... ... ... : ... .. . ... ... ... : ... .. . ... ... : ... .. . ... : ... .. . F01 ...
ROW 62 : ... .. . ... ... ... : A#4 02 1 P7F ... ... : ... .. . P7F ... : ... .. . ... : ... .. . F02 ...
ROW 63 : ... .. . ... ... ... : ... .. . ... ... ... : --- .. . ... ... : ... .. . ... : ... .. . F03 ...
ROW 64 : ... .. . ... ... ... : D#4 02 A P80 ... ... : F-2 01 . P80 ... : ... .. . ... : ... .. . F02 ...
ROW 65 : ... .. . ... ... ... : ... .. . ... ... ... : ... .. . ... ... : ... .. . ... : ... .. . F01 ...
ROW 66 : ... .. . ... P7F ... : A#3 02 1 P7F ... ... : ... .. . ... ... : ... .. . ... : ... .. . F02 ...
ROW 67 : D#4 02 5 ... P80 ... : ... .. . ... ... ... : ... .. . P7F ... : ... .. . ... : ... .. . F03 ...
ROW 68 : ... .. . ... ... ... : F-4 02 A P80 ... ... : --- .. . ... ... : ... .. . ... : ... .. . F02 ...
ROW 69 : A#3 02 . ... P7E ... : ... .. . ... ... ... : ... .. . ... ... : ... .. . ... : ... .. . F01 ...
ROW 6A : ... .. . ... ... ... : D#4 02 1 P7F ... ... : ... .. . ... ... : ... .. . ... : ... .. . F02 ...
ROW 6B : F-4 02 . ... P80 ... : ... .. . ... ... ... : ... .. . ... ... : ... .. . ... : ... .. . F03 ...
ROW 6C : ... .. . ... ... ... : G-4 02 A P80 ... ... : A#3 01 . P80 ... : ... .. . ... : ... .. . F02 ...
ROW 6D : D#4 02 . ... P7E ... : ... .. . ... ... ... : ... .. . ... ... : ... .. . ... : ... .. . F01 ...
ROW 6E : ... .. . ... ... ... : F-4 02 1 P7F ... ... : ... .. . P7F ... : ... .. . ... : ... .. . F02 ...
ROW 6F : G-4 02 . ... P80 ... : ... .. . ... ... ... : --- 01 . ... ... : ... .. . ... : ... .. . F03 ...
ROW 70 : ... .. . ... ... ... : A#4 02 A P80 ... ... : A#3 01 . P80 ... : ... .. . ... : ... .. . F02 ...
ROW 71 : F-4 02 . ... P7E ... : ... .. . ... ... ... : ... .. . ... ... : ... .. . ... : ... .. . F01 ...
ROW 72 : ... .. . ... ... ... : G-4 02 1 P7F ... ... : ... .. . ... ... : ... .. . ... : ... .. . F02 ...
ROW 73 : A#4 02 . ... P80 ... : ... .. . ... ... ... : ... .. . ... ... : ... .. . ... : ... .. . F03 ...
ROW 74 : ... .. . ... ... ... : C-4 02 A P80 ... ... : ... .. . ... ... : ... .. . ... : ... .. . F02 ...
ROW 75 : G-4 02 . ... P7E ... : ... .. . ... ... ... : ... .. . ... ... : ... .. . ... : ... .. . F01 ...
ROW 76 : ... .. . ... ... ... : A#4 02 1 P7F ... ... : ... .. . ... ... : ... .. . ... : ... .. . F02 ...
ROW 77 : C-4 02 . ... P80 ... : ... .. . ... ... ... : ... .. . P7F ... : ... .. . ... : ... .. . F03 ...
ROW 78 : ... .. . ... ... ... : D#4 02 A P80 ... ... : --- .. . ... ... : ... .. . ... : ... .. . F02 ...
ROW 79 : A#4 02 . ... P7E ... : ... .. . ... ... ... : ... .. . ... ... : ... .. . ... : ... .. . F01 ...
ROW 7A : ... .. . ... ... ... : C-4 02 1 P7F ... ... : ... .. . ... ... : ... .. . ... : ... .. . F02 ...
ROW 7B : D#4 02 . ... P80 ... : ... .. . ... ... ... : ... .. . ... ... : ... .. . ... : ... .. . F03 ...
ROW 7C : ... .. . ... ... ... : F-4 02 A P80 ... ... : ... .. . ... ... : ... .. . ... : ... .. . F02 ...
ROW 7D : C-4 02 . ... P7E ... : ... .. . ... ... ... : ... .. . ... ... : ... .. . ... : ... .. . F01 ...
ROW 7E : ... .. . ... ... ... : ... .. 1 P7F ... ... : ... .. . ... ... : ... .. . ... : ... .. . F02 ...
ROW 7F : F-4 02 0 ... P80 ... : ... .. . ... ... ... : ... .. . ... ... : ... .. . ... : ... .. . F03 ...

PATTERN 12
ROW 00 : --- .. . ... ... ... : F-4 0D A P80 ... ... : A#1 01 . P7F ... : ... .. . ... : ... .. . F02 ...
ROW 01 : ... .. . ... ... ... : ... .. . ... ... ... : ... .. . ... ... : ... .. . ... : ... .. . F01 ...
ROW 02 : ... .. . ... ... ... : ... .. 1 P7F ... ... : ... .. . P7F ... : ... .. . ... : ... .. . F02 ...
ROW 03 : ... .. . ... ... ... : ... .. . ... ... ... : --- .. . ... ... : ... .. . ... : ... .. . F03 ...
ROW 04 : F-4 0D 5 P80 ... ... : F-4 02 A P80 ... ... : A#2 01 . P80 ... : ... .. . ... : ... .. . F02 ...
ROW 05 : ... .. . ... ... ... : ... .. . ... ... ... : ... .. . ... ... : ... .. . ... : ... .. . F01 ...
ROW 06 : ... .. 1 P7E ... ... : F-4 02 3 P7F ... ... : ... .. . ... ... : ... .. . ... : ... .. . F02 ...
ROW 07 : ... .. . ... ... ... : ... .. . ... ... ... : ... .. . P7F ... : ... .. . ... : ... .. . F03 ...
ROW 08 : F-5 0C A V00 P80 ... : D-5 0D A P80 ... ... : --- .. . ... ... : ... .. . ... : ... .. . F02 ...
ROW 09 : ... .. . ... ... ... : ... .. . ... ... ... : ... .. . ... ... : ... .. . ... : ... .. . F01 ...
ROW 0A : ... .. . ... ... ... : F-4 02 3 P7F ... ... : ... .. . ... ... : ... .. . ... : ... .. . F02 ...
ROW 0B : ... .. . ... ... ... : ... .. . ... ... ... : ... .. . ... ... : ... .. . ... : ... .. . F03 ...
ROW 0C : ... .. 3 ... ... ... : F-4 02 A P80 ... ... : G#3 01 . P80 ... : ... .. . ... : ... .. . F02 ...
ROW 0D : ... .. . ... ... ... : ... .. . ... ... ... : ... .. . ... ... : ... .. . ... : ... .. . F01 ...
ROW 0E : ... .. . ... ... ... : D-5 02 3 P7F ... ... : ... .. . ... ... : ... .. . ... : ... .. . F02 ...
ROW 0F : ... .. . ... ... ... : ... .. . ... ... ... : ... .. . ... ... : ... .. . ... : ... .. . F03 ...
ROW 10 : ... .. . ... ... ... : G-4 02 A P80 ... ... : ... .. . ... ... : ... .. . ... : ... .. . F02 ...
ROW 11 : ... .. . ... ... ... : ... .. . ... ... ... : ... .. . ... ... : ... .. . ... : ... .. . F01 ...
ROW 12 : ... .. . ... ... ... : F-4 02 3 P7F ... ... : ... .. . ... ... : ... .. . ... : ... .. . F02 ...
ROW 13 : ... .. . P7F ... ... : ... .. . ... ... ... : ... .. . ... ... : ... .. . ... : ... .. . F03 ...
ROW 14 : D-5 0C A P80 ... ... : A#4 0D A P80 ... ... : ... .. . ... ... : ... .. . ... : ... .. . F02 ...
ROW 15 : ... .. . ... ... ... : ... .. . ... ... ... : ... .. . ... ... : ... .. . ... : ... .. . F01 ...
ROW 16 : ... .. . ... ... ... : G-4 02 3 P7F ... ... : ... .. . ... ... : ... .. . ... : ... .. . F02 ...
ROW 17 : ... .. . ... ... ... : ... .. . ... ... ... : ... .. . P7F ... : ... .. . ... : ... .. . F03 ...
ROW 18 : ... .. 3 ... ... ... : D-4 02 A P80 ... ... : --- .. . ... ... : ... .. . ... : ... .. . F02 ...
ROW 19 : ... .. . ... ... ... : ... .. . ... ... ... : ... .. . ... ... : ... .. . ... : ... .. . F01 ...
ROW 1A : ... .. . ... ... ... : A#4 02 3 P7F ... ... : ... .. . ... ... : ... .. . ... : ... .. . F02 ...
ROW 1B : ... .. . ... ... ... : ... .. . ... ... ... : ... .. . ... ... : ... .. . ... : ... .. . F03 ...
ROW 1C : ... .. . ... ... ... : F-4 02 A P80 ... ... : F-2 01 . P80 ... : ... .. . ... : ... .. . F02 ...
ROW 1D : ... .. . ... ... ... : ... .. . ... ... ... : ... .. . ... ... : ... .. . ... : ... .. . F01 ...
ROW 1E : ... .. . ... ... ... : D-4 02 3 P7F ... ... : ... .. . P7F ... : ... .. . ... : ... .. . F02 ...
ROW 1F : ... .. . P7F ... ... : ... .. . ... ... ... : --- .. . ... ... : ... .. . ... : ... .. . F03 ...
ROW 20 : A#4 0C A P80 ... ... : G#4 0D A P80 ... ... : D#3 01 . P80 ... : ... .. . ... : ... .. . F02 ...
ROW 21 : ... .. . ... ... ... : ... .. . ... ... ... : ... .. . ... ... : ... .. . ... : ... .. . F01 ...
ROW 22 : C-5 00 . 307 ... ... : F-4 02 3 P7F ... ... : ... .. . P7F ... : ... .. . ... : ... .. . F02 ...
ROW 23 : ... .. . ... ... ... : ... .. . ... ... ... : --- .. . ... ... : ... .. . ... : ... .. . F03 ...
ROW 24 : ... .. 3 ... ... ... : C-4 02 A P80 ... ... : F-2 01 . P80 ... : ... .. . ... : ... .. . F02 ...
ROW 25 : ... .. . ... ... ... : ... .. . ... ... ... : ... .. . ... ... : ... .. . ... : ... .. . F01 ...
ROW 26 : ... .. . ... ... ... : G#4 02 3 P7F ... ... : ... .. . ... ... : ... .. . ... : ... .. . F02 ...
ROW 27 : ... .. . ... ... ... : ... .. . ... ... ... : ... .. . P7F ... : ... .. . ... : ... .. . F03 ...
ROW 28 : ... .. . ... ... ... : D#4 02 A P80 ... ... : --- .. . ... ... : ... .. . ... : ... .. . F02 ...
ROW 29 : ... .. . ... ... ... : ... .. . ... ... ... : ... .. . ... ... : ... .. . ... : ... .. . F01 ...
ROW 2A : ... .. . ... ... ... : C-4 02 3 P7F ... ... : ... .. . ... ... : ... .. . ... : ... .. . F02 ...
ROW 2B : ... .. . P7F 300 ... : ... .. . ... ... ... : ... .. . ... ... : ... .. . ... : ... .. . F03 ...
ROW 2C : A#4 0C A P80 ... ... : D-4 02 A P80 ... ... : G#3 01 . P80 ... : ... .. . ... : ... .. . F02 ...
ROW 2D : ... .. . ... ... ... : ... .. . ... ... ... : ... .. . ... ... : ... .. . ... : ... .. . F01 ...
ROW 2E : ... .. . ... ... ... : ... .. . ... ... ... : ... .. . P7F ... : ... .. . ... : ... .. . F02 ...
ROW 2F : ... .. . ... ... ... : ... .. . ... ... ... : --- .. . ... ... : ... .. . ... : ... .. . F03 ...
ROW 30 : ... .. . ... ... ... : D#4 02 3 P7F ... ... : A#2 01 . P80 ... : ... .. . ... : ... .. . F02 ...
ROW 31 : ... .. . ... ... ... : ... .. . ... ... ... : ... .. . ... ... : ... .. . ... : ... .. . F01 ...
ROW 32 : ... .. . ... ... ... : ... .. . ... ... ... : ... .. . ... ... : ... .. . ... : ... .. . F02 ...
ROW 33 : ... .. . ... ... ... : ... .. . ... ... ... : ... .. . ... ... : ... .. . ... : ... .. . F03 ...
ROW 34 : ... .. 3 ... ... ... : F-4 02 A P80 ... ... : ... .. . ... ... : ... .. . ... : ... .. . F02 ...
ROW 35 : ... .. . ... ... ... : ... .. . ... ... ... : ... .. . ... ... : ... .. . ... : ... .. . F01 ...
ROW 36 : ... .. . ... ... ... : D-4 02 3 P7F ... ... : ... .. . P7F ... : ... .. . ... : ... .. . F02 ...
ROW 37 : ... .. . P7F ... ... : ... .. . ... ... ... : --- .. . ... ... : ... .. . ... : ... .. . F03 ...
ROW 38 : ... .. 0 ... ... ... : F-4 02 A P80 ... ... : F-2 01 . P80 ... : ... .. . ... : ... .. . F02 ...
ROW 39 : F-4 02 5 P80 ... ... : ... .. . ... ... ... : ... .. . ... ... : ... .. . ... : ... .. . F01 ...
ROW 3A : ... .. . ... ... ... : F-4 02 3 P7F ... ... : ... .. . P7F ... : ... .. . ... : ... .. . F02 ...
ROW 3B : D-4 02 3 P7E ... ... : ... .. . ... ... ... : --- .. . ... ... : ... .. . ... : ... .. . F03 ...
ROW 3C : ... .. . ... ... ... : F#4 02 A P80 ... ... : E-2 01 . P80 ... : ... .. . ... : ... .. . F02 ...
ROW 3D : F-4 02 5 P80 ... ... : ... .. . ... ... ... : ... .. . ... ... : ... .. . ... : ... .. . F01 ...
ROW 3E : ... .. . ... ... ... : F-4 02 3 P7F ... ... : ... .. . P7F ... : ... .. . ... : ... .. . F02 ...
ROW 3F : F-4 02 3 P7E ... ... : ... .. . ... ... ... : --- .. . ... ... : ... .. . ... : ... .. . F03 ...
ROW 40 : ... .. . ... ... ... : G-4 02 A P80 ... ... : D#2 01 . P80 ... : ... .. . ... : ... .. . F02 ...
ROW 41 : F#4 02 5 P80 ... ... : ... .. . ... ... ... : ... .. . ... ... : ... .. . ... : ... .. . F01 ...
ROW 42 : ... .. . ... ... ... : F#4 02 3 P7F ... ... : ... .. . P7F ... : ... .. . ... : ... .. . F02 ...
ROW 43 : F-4 02 3 P7E ... ... : ... .. . ... ... ... : --- .. . ... ... : ... .. . ... : ... .. . F03 ...
ROW 44 : F-5 0C A P80 ... ... : D-5 0D A P80 ... ... : A#2 01 . P80 ... : ... .. . ... : ... .. . F02 ...
ROW 45 : ... .. . ... ... ... : ... .. . ... ... ... : ... .. . ... ... : ... .. . ... : ... .. . F01 ...
ROW 46 : ... .. . ... ... ... : G-4 02 3 P7F ... ... : ... .. . ... ... : ... .. . ... : ... .. . F02 ...
ROW 47 : ... .. . ... ... ... : ... .. . ... ... ... : ... .. . P7F ... : ... .. . ... : ... .. . F03 ...
ROW 48 : ... .. 3 ... ... ... : F-4 02 A P80 ... ... : --- .. . ... ... : ... .. . ... : ... .. . F02 ...
ROW 49 : ... .. . ... ... ... : ... .. . ... ... ... : ... .. . ... ... : ... .. . ... : ... .. . F01 ...
ROW 4A : ... .. . ... ... ... : D-5 02 3 P7F ... ... : ... .. . ... ... : ... .. . ... : ... .. . F02 ...
ROW 4B : ... .. . ... ... ... : ... .. . ... ... ... : ... .. . ... ... : ... .. . ... : ... .. . F03 ...
ROW 4C : ... .. . ... ... ... : G-4 02 A P80 ... ... : G-3 01 . P80 ... : ... .. . ... : ... .. . F02 ...
ROW 4D : ... .. . ... ... ... : ... .. . ... ... ... : ... .. . ... ... : ... .. . ... : ... .. . F01 ...
ROW 4E : ... .. . ... ... ... : F-4 02 3 P7F ... ... : ... .. . ... ... : ... .. . ... : ... .. . F02 ...
ROW 4F : ... .. . P7F ... ... : ... .. . ... ... ... : ... .. . ... ... : ... .. . ... : ... .. . F03 ...
ROW 50 : D-5 0C A P80 ... ... : A#4 0D A P80 ... ... : ... .. . ... ... : ... .. . ... : ... .. . F02 ...
ROW 51 : ... .. . ... ... ... : ... .. . ... ... ... : ... .. . ... ... : ... .. . ... : ... .. . F01 ...
ROW 52 : ... .. . ... ... ... : G-4 02 3 P7F ... ... : ... .. . ... ... : ... .. . ... : ... .. . F02 ...
ROW 53 : ... .. . ... ... ... : ... .. . ... ... ... : ... .. . ... ... : ... .. . ... : ... .. . F03 ...
ROW 54 : ... .. 3 ... ... ... : D-4 02 A P80 ... ... : ... .. . ... ... : ... .. . ... : ... .. . F02 ...
ROW 55 : ... .. . ... ... ... : ... .. . ... ... ... : ... .. . ... ... : ... .. . ... : ... .. . F01 ...
ROW 56 : ... .. . ... ... ... : A#4 02 3 P7F ... ... : ... .. . ... ... : ... .. . ... : ... .. . F02 ...
ROW 57 : ... .. . ... ... ... : ... .. . ... ... ... : ... .. . P7F ... : ... .. . ... : ... .. . F03 ...
ROW 58 : ... .. . ... ... ... : F-4 02 A P80 ... ... : --- .. . ... ... : ... .. . ... : ... .. . F02 ...
ROW 59 : ... .. . ... ... ... : ... .. . ... ... ... : ... .. . ... ... : ... .. . ... : ... .. . F01 ...
ROW 5A : ... .. . ... ... ... : D-4 02 3 P7F ... ... : ... .. . ... ... : ... .. . ... : ... .. . F02 ...
ROW 5B : ... .. . P7F ... ... : ... .. . ... ... ... : ... .. . ... ... : ... .. . ... : ... .. . F03 ...
ROW 5C : A#4 0C A P80 ... ... : F-4 0D A P80 ... ... : F#3 01 . P80 ... : ... .. . ... : ... .. . F02 ...
ROW 5D : ... .. . ... ... ... : ... .. . ... ... ... : ... .. . ... ... : ... .. . ... : ... .. . F01 ...
ROW 5E : C-5 00 . 307 ... ... : F-4 02 3 P7F ... ... : ... .. . ... ... : ... .. . ... : ... .. . F02 ...
ROW 5F : ... .. . ... ... ... : ... .. . ... ... ... : ... .. . ... ... : ... .. . ... : ... .. . F03 ...
ROW 60 : ... .. 3 ... ... ... : F#4 02 A P80 ... ... : ... .. . ... ... : ... .. . ... : ... .. . F02 ...
ROW 61 : ... .. . ... ... ... : ... .. . ... ... ... : ... .. . ... ... : ... .. . ... : ... .. . F01 ...
ROW 62 : ... .. . ... ... ... : F-4 02 3 P7F ... ... : ... .. . ... ... : ... .. . ... : ... .. . F02 ...
ROW 63 : ... .. . ... ... ... : ... .. . ... ... ... : ... .. . ... ... : ... .. . ... : ... .. . F03 ...
ROW 64 : ... .. . ... ... ... : F-4 02 A P80 ... ... : ... .. . ... ... : ... .. . ... : ... .. . F02 ...
ROW 65 : ... .. . ... ... ... : ... .. . ... ... ... : ... .. . ... ... : ... .. . ... : ... .. . F01 ...
ROW 66 : ... .. . ... ... ... : F#4 02 3 P7F ... ... : ... .. . P7F ... : ... .. . ... : ... .. . F02 ...
ROW 67 : ... .. . ... ... ... : ... .. . ... ... ... : --- .. . ... ... : ... .. . ... : ... .. . F03 ...
ROW 68 : ... .. . ... ... ... : D#4 02 A P80 ... ... : G#2 01 . P80 ... : ... .. . ... : ... .. . F02 ...
ROW 69 : ... .. . ... ... ... : ... .. . ... ... ... : ... .. . ... ... : ... .. . ... : ... .. . F01 ...
ROW 6A : ... .. . ... ... ... : F-4 02 3 P7F ... ... : ... .. . P7F ... : ... .. . ... : ... .. . F02 ...
ROW 6B : ... .. . 300 P7F ... : ... .. . ... ... ... : --- .. . ... ... : ... .. . ... : ... .. . F03 ...
ROW 6C : C-5 00 A P80 ... ... : C-4 0D A P80 ... ... : F#3 01 . P80 ... : ... .. . ... : ... .. . F02 ...
ROW 6D : ... .. . ... ... ... : ... .. . ... ... ... : ... .. . ... ... : ... .. . ... : ... .. . F01 ...
ROW 6E : A#4 00 . ... ... ... : ... .. . ... ... ... : ... .. . P7F ... : ... .. . ... : ... .. . F02 ...
ROW 6F : ... .. . ... ... ... : ... .. . ... ... ... : --- .. . ... ... : ... .. . ... : ... .. . F03 ...
ROW 70 : ... .. . ... ... ... : ... .. . ... ... ... : C-4 01 . P80 ... : ... .. . ... : ... .. . F02 ...
ROW 71 : ... .. . ... ... ... : ... .. . ... ... ... : ... .. . ... ... : ... .. . ... : ... .. . F01 ...
ROW 72 : ... .. . ... ... ... : ... .. . ... ... ... : ... .. . P7F ... : ... .. . ... : ... .. . F02 ...
ROW 73 : ... .. . ... ... ... : ... .. . ... ... ... : --- .. . ... ... : ... .. . ... : ... .. . F03 ...
ROW 74 : ... .. . ... ... ... : ... .. . ... ... ... : F-4 01 . P80 ... : ... .. . ... : ... .. . F02 ...
ROW 75 : ... .. . ... ... ... : ... .. . ... ... ... : ... .. . ... ... : ... .. . ... : ... .. . F01 ...
ROW 76 : ... .. . ... ... ... : ... .. . ... ... ... : ... .. . P7F ... : ... .. . ... : ... .. . F02 ...
ROW 77 : ... .. . ... ... ... : ... .. . ... ... ... : --- .. . ... ... : ... .. . ... : ... .. . F03 ...
ROW 78 : ... .. 3 ... ... ... : ... .. 3 ... ... ... : C-5 01 . P80 ... : ... .. . ... : ... .. . F02 ...
ROW 79 : ... .. . ... ... ... : ... .. . ... ... ... : ... .. . ... ... : ... .. . ... : ... .. . F01 ...
ROW 7A : ... .. . ... ... ... : ... .. . ... ... ... : ... .. . P7F ... : ... .. . ... : ... .. . F02 ...
ROW 7B : ... .. . ... ... ... : ... .. . ... ... ... : --- .. . ... ... : ... .. . ... : ... .. . F03 ...
ROW 7C : ... .. 1 P7F ... ... : ... .. 1 P7F ... ... : F-5 01 . P80 ... : ... .. . ... : ... .. . F02 ...
ROW 7D : ... .. 0 ... ... ... : ... .. 0 ... ... ... : ... .. . ... ... : ... .. . ... : ... .. . F01 ...
ROW 7E : ... .. . ... ... ... : ... .. . ... ... ... : ... .. . P7F ... : ... .. . ... : ... .. . F02 ...
ROW 7F : ... .. . ... ... ... : ... .. . ... ... ... : --- .. . ... ... : ... .. . ... : ... .. . F03 ...

PATTERN 13
ROW 00 : ... .. . ... ... ... : G-4 0D A P80 ... ... : D-2 01 . P80 ... : ... .. . ... : ... .. . F02 ...
ROW 01 : ... .. . ... ... ... : ... .. . ... ... ... : ... .. . P7F ... : ... .. . ... : ... .. . F01 ...
ROW 02 : ... .. . ... ... ... : ... .. 3 P7F ... ... : ... .. . ... ... : ... .. . ... : ... .. . F02 ...
ROW 03 : ... .. . ... ... ... : ... .. . ... ... ... : --- .. . ... ... : ... .. . ... : ... .. . F03 ...
ROW 04 : G-4 0D 5 P80 ... ... : F-4 02 A P80 ... ... : A-2 01 . P80 ... : ... .. . ... : ... .. . F02 ...
ROW 05 : ... .. . ... ... ... : ... .. . ... ... ... : ... .. . ... ... : ... .. . ... : ... .. . F01 ...
ROW 06 : ... .. 3 P7E ... ... : ... .. 3 P7F ... ... : ... .. . ... ... : ... .. . ... : ... .. . F02 ...
ROW 07 : ... .. . ... ... ... : ... .. . ... ... ... : ... .. . P7F ... : ... .. . ... : ... .. . F03 ...
ROW 08 : G-5 00 A V00 P80 ... : D-5 0D A P80 ... ... : --- .. . ... ... : ... .. . ... : ... .. . F02 ...
ROW 09 : ... .. . ... ... ... : ... .. . ... ... ... : ... .. . ... ... : ... .. . ... : ... .. . F01 ...
ROW 0A : F-5 00 . 307 ... ... : ... .. 3 P7F ... ... : ... .. . ... ... : ... .. . ... : ... .. . F02 ...
ROW 0B : ... .. . ... ... ... : ... .. . ... ... ... : ... .. . ... ... : ... .. . ... : ... .. . F03 ...
ROW 0C : ... .. 3 ... ... ... : F-4 02 A P80 ... ... : F-3 01 . P80 ... : ... .. . ... : ... .. . F02 ...
ROW 0D : ... .. . ... ... ... : ... .. . ... ... ... : ... .. . ... ... : ... .. . ... : ... .. . F01 ...
ROW 0E : ... .. . ... ... ... : ... .. 3 P7F ... ... : ... .. . ... ... : ... .. . ... : ... .. . F02 ...
ROW 0F : ... .. . ... ... ... : ... .. . ... ... ... : ... .. . ... ... : ... .. . ... : ... .. . F03 ...
ROW 10 : ... .. . ... ... ... : G-4 02 A P80 ... ... : ... .. . ... ... : ... .. . ... : ... .. . F02 ...
ROW 11 : ... .. . ... ... ... : ... .. . ... ... ... : ... .. . ... ... : ... .. . ... : ... .. . F01 ...
ROW 12 : ... .. . ... ... ... : ... .. 3 P7F ... ... : ... .. . ... ... : ... .. . ... : ... .. . F02 ...
ROW 13 : ... .. . ... P7F ... : ... .. . ... ... ... : ... .. . ... ... : ... .. . ... : ... .. . F03 ...
ROW 14 : D#5 00 A ... P80 ... : A-4 0D A P80 ... ... : ... .. . ... ... : ... .. . ... : ... .. . F02 ...
ROW 15 : ... .. . ... ... ... : ... .. . ... ... ... : ... .. . ... ... : ... .. . ... : ... .. . F01 ...
ROW 16 : D-5 00 . ... ... ... : ... .. 3 P7F ... ... : ... .. . ... ... : ... .. . ... : ... .. . F02 ...
ROW 17 : ... .. . ... ... ... : ... .. . ... ... ... : ... .. . ... ... : ... .. . ... : ... .. . F03 ...
ROW 18 : ... .. 3 ... ... ... : D-4 02 A P80 ... ... : ... .. . ... ... : ... .. . ... : ... .. . F02 ...
ROW 19 : ... .. . ... ... ... : ... .. . ... ... ... : ... .. . ... ... : ... .. . ... : ... .. . F01 ...
ROW 1A : ... .. . ... ... ... : ... .. 3 P7F ... ... : ... .. . P7F ... : ... .. . ... : ... .. . F02 ...
ROW 1B : ... .. . ... ... ... : ... .. . ... ... ... : --- .. . ... ... : ... .. . ... : ... .. . F03 ...
ROW 1C : ... .. . ... ... ... : F-4 02 A P80 ... ... : D-3 01 . P80 ... : ... .. . ... : ... .. . F02 ...
ROW 1D : ... .. . ... ... ... : ... .. . ... ... ... : ... .. . ... ... : ... .. . ... : ... .. . F01 ...
ROW 1E : ... .. . ... ... ... : ... .. 3 P7F ... ... : ... .. . P7F ... : ... .. . ... : ... .. . F02 ...
ROW 1F : ... .. . ... P7F ... : ... .. . ... ... ... : --- .. . ... ... : ... .. . ... : ... .. . F03 ...
ROW 20 : D-5 00 A ... P80 ... : A-4 0D A P80 ... ... : G-2 01 . P80 ... : ... .. . ... : ... .. . F02 ...
ROW 21 : ... .. . ... ... ... : ... .. . ... ... ... : ... .. . ... ... : ... .. . ... : ... .. . F01 ...
ROW 22 : C-5 00 . ... ... ... : ... .. 3 P7F ... ... : ... .. . P7F ... : ... .. . ... : ... .. . F02 ...
ROW 23 : ... .. . ... ... ... : ... .. . ... ... ... : --- .. . ... ... : ... .. . ... : ... .. . F03 ...
ROW 24 : ... .. 3 ... ... ... : D-4 02 A P80 ... ... : D-3 01 . P80 ... : ... .. . ... : ... .. . F02 ...
ROW 25 : ... .. . ... ... ... : ... .. . ... ... ... : ... .. . ... ... : ... .. . ... : ... .. . F01 ...
ROW 26 : ... .. . ... ... ... : ... .. 3 P7F ... ... : ... .. . P7F ... : ... .. . ... : ... .. . F02 ...
ROW 27 : ... .. . ... ... ... : ... .. . ... ... ... : --- .. . ... ... : ... .. . ... : ... .. . F03 ...
ROW 28 : ... .. . ... ... ... : F-4 02 A P80 ... ... : A#3 01 . P80 ... : ... .. . ... : ... .. . F02 ...
ROW 29 : ... .. . ... ... ... : ... .. . ... ... ... : ... .. . ... ... : ... .. . ... : ... .. . F01 ...
ROW 2A : ... .. . ... ... ... : ... .. 3 P7F ... ... : ... .. . ... ... : ... .. . ... : ... .. . F02 ...
ROW 2B : ... .. . ... P7F ... : ... .. . ... ... ... : ... .. . ... ... : ... .. . ... : ... .. . F03 ...
ROW 2C : C-5 00 A ... P80 ... : G-4 0D A P80 ... ... : ... .. . ... ... : ... .. . ... : ... .. . F02 ...
ROW 2D : ... .. . ... ... ... : ... .. . ... ... ... : ... .. . ... ... : ... .. . ... : ... .. . F01 ...
ROW 2E : A#4 00 . ... ... ... : ... .. 3 P7F ... ... : ... .. . ... ... : ... .. . ... : ... .. . F02 ...
ROW 2F : ... .. . ... ... ... : ... .. . ... ... ... : ... .. . P7F ... : ... .. . ... : ... .. . F03 ...
ROW 30 : ... .. . ... ... ... : C-4 02 A P80 ... ... : --- .. . ... ... : ... .. . ... : ... .. . F02 ...
ROW 31 : ... .. . ... ... ... : ... .. . ... ... ... : ... .. . ... ... : ... .. . ... : ... .. . F01 ...
ROW 32 : ... .. . ... ... ... : ... .. 3 P7F ... ... : ... .. . ... ... : ... .. . ... : ... .. . F02 ...
ROW 33 : ... .. . ... ... ... : ... .. . ... ... ... : ... .. . ... ... : ... .. . ... : ... .. . F03 ...
ROW 34 : ... .. 3 ... ... ... : D-4 02 A P80 ... ... : ... .. . ... ... : ... .. . ... : ... .. . F02 ...
ROW 35 : ... .. . ... ... ... : ... .. . ... ... ... : ... .. . ... ... : ... .. . ... : ... .. . F01 ...
ROW 36 : ... .. . ... ... ... : ... .. 3 P7F ... ... : ... .. . ... ... : ... .. . ... : ... .. . F02 ...
ROW 37 : ... .. . ... ... ... : ... .. . ... ... ... : ... .. . ... ... : ... .. . ... : ... .. . F03 ...
ROW 38 : ... .. . ... ... ... : F-4 02 A P80 ... ... : ... .. . ... ... : ... .. . ... : ... .. . F02 ...
ROW 39 : ... .. . ... ... ... : ... .. . ... ... ... : ... .. . ... ... : ... .. . ... : ... .. . F01 ...
ROW 3A : ... .. . ... ... ... : ... .. 3 P7F ... ... : ... .. . ... ... : ... .. . ... : ... .. . F02 ...
ROW 3B : ... .. . 300 P7F ... : ... .. . ... ... ... : ... .. . ... ... : ... .. . ... : ... .. . F03 ...
ROW 3C : A-4 0C A ... P80 ... : D-4 0D A P80 ... ... : G-2 01 . P80 ... : ... .. . ... : ... .. . F02 ...
ROW 3D : ... .. . ... ... ... : ... .. . ... ... ... : ... .. . ... ... : ... .. . ... : ... .. . F01 ...
ROW 3E : ... .. 3 ... ... ... : ... .. . ... ... ... : ... .. . P7F ... : ... .. . ... : ... .. . F02 ...
ROW 3F : ... .. . ... P7F ... : ... .. . ... ... ... : --- .. . ... ... : ... .. . ... : ... .. . F03 ...
ROW 40 : ... .. 0 ... ... ... : ... .. 3 P7F ... ... : C-2 01 . P80 ... : ... .. . ... : ... .. . F02 ...
ROW 41 : ... .. . ... ... ... : ... .. . ... ... ... : ... .. . ... ... : ... .. . ... : ... .. . F01 ...
ROW 42 : ... .. . ... ... ... : ... .. . ... ... ... : ... .. . P7F ... : ... .. . ... : ... .. . F02 ...
ROW 43 : ... .. . ... ... ... : ... .. . ... ... ... : --- .. . ... ... : ... .. . ... : ... .. . F03 ...
ROW 44 : G-4 0C A ... P80 ... : D-4 0D A P80 ... ... : C-3 01 . P80 ... : ... .. . ... : ... .. . F02 ...
ROW 45 : ... .. . ... ... ... : ... .. . ... ... ... : ... .. . ... ... : ... .. . ... : ... .. . F01 ...
ROW 46 : ... .. . ... ... ... : ... .. 3 P7F ... ... : ... .. . ... ... : ... .. . ... : ... .. . F02 ...
ROW 47 : ... .. . ... ... ... : ... .. . ... ... ... : ... .. . P7F ... : ... .. . ... : ... .. . F03 ...
ROW 48 : ... .. . ... ... ... : G-3 02 A P80 ... ... : --- .. . ... ... : ... .. . ... : ... .. . F02 ...
ROW 49 : ... .. . ... ... ... : ... .. . ... ... ... : ... .. . ... ... : ... .. . ... : ... .. . F01 ...
ROW 4A : ... .. 3 ... ... ... : ... .. 3 P7F ... ... : ... .. . ... ... : ... .. . ... : ... .. . F02 ...
ROW 4B : ... .. . ... ... ... : ... .. . ... ... ... : ... .. . ... ... : ... .. . ... : ... .. . F03 ...
ROW 4C : ... .. . ... ... ... : G#3 02 A P80 ... ... : E-3 01 . P80 ... : ... .. . ... : ... .. . F02 ...
ROW 4D : ... .. . ... ... ... : ... .. . ... ... ... : ... .. . ... ... : ... .. . ... : ... .. . F01 ...
ROW 4E : ... .. . ... ... ... : ... .. 3 P7F ... ... : ... .. . ... ... : ... .. . ... : ... .. . F02 ...
ROW 4F : ... .. . ... P7F ... : ... .. . ... ... ... : ... .. . ... ... : ... .. . ... : ... .. . F03 ...
ROW 50 : C-4 0C A ... P80 ... : A-3 0D A P80 ... ... : ... .. . ... ... : ... .. . ... : ... .. . F02 ...
ROW 51 : ... .. . ... ... ... : ... .. . ... ... ... : ... .. . ... ... : ... .. . ... : ... .. . F01 ...
ROW 52 : ... .. . ... ... ... : ... .. 3 P7F ... ... : ... .. . ... ... : ... .. . ... : ... .. . F02 ...
ROW 53 : ... .. . ... ... ... : ... .. . ... ... ... : ... .. . ... ... : ... .. . ... : ... .. . F03 ...
ROW 54 : ... .. . ... ... ... : F#3 02 A P80 ... ... : ... .. . ... ... : ... .. . ... : ... .. . F02 ...
ROW 55 : ... .. . ... ... ... : ... .. . ... ... ... : ... .. . ... ... : ... .. . ... : ... .. . F01 ...
ROW 56 : ... .. 3 ... ... ... : ... .. 3 P7F ... ... : ... .. . ... ... : ... .. . ... : ... .. . F02 ...
ROW 57 : ... .. . ... ... ... : ... .. . ... ... ... : ... .. . ... ... : ... .. . ... : ... .. . F03 ...
ROW 58 : ... .. . ... ... ... : G#3 02 A P80 ... ... : ... .. . ... ... : ... .. . ... : ... .. . F02 ...
ROW 59 : ... .. . ... ... ... : ... .. . ... ... ... : ... .. . ... ... : ... .. . ... : ... .. . F01 ...
ROW 5A : ... .. . ... ... ... : ... .. 3 P7F ... ... : ... .. . P7F ... : ... .. . ... : ... .. . F02 ...
ROW 5B : ... .. . ... P7F ... : ... .. . ... ... ... : --- .. . ... ... : ... .. . ... : ... .. . F03 ...
ROW 5C : D-4 0C A ... P80 ... : D#3 0D A P80 ... ... : F-2 01 . P80 ... : ... .. . ... : ... .. . F02 ...
ROW 5D : ... .. . ... ... ... : ... .. . ... ... ... : ... .. . ... ... : ... .. . ... : ... .. . F01 ...
ROW 5E : ... .. 3 ... ... ... : ... .. 3 P7F ... ... : ... .. . ... ... : ... .. . ... : ... .. . F02 ...
ROW 5F : ... .. . ... P7F ... : ... .. . ... ... ... : ... .. . P7F ... : ... .. . ... : ... .. . F03 ...
ROW 60 : --- .. . ... ... ... : D-3 02 A P80 ... ... : --- .. . ... ... : ... .. . ... : ... .. . F02 ...
ROW 61 : ... .. . ... ... ... : ... .. . ... ... ... : ... .. . ... ... : ... .. . ... : ... .. . F01 ...
ROW 62 : ... .. . ... ... ... : ... .. 3 P7F ... ... : ... .. . ... ... : ... .. . ... : ... .. . F02 ...
ROW 63 : ... .. . ... ... ... : ... .. . ... ... ... : ... .. . ... ... : ... .. . ... : ... .. . F03 ...
ROW 64 : D#3 0C D V00 P80 ... : D#3 0D A P80 ... ... : F-2 01 . P80 ... : ... .. . ... : ... .. . F02 ...
ROW 65 : ... .. . ... ... ... : ... .. . ... ... ... : ... .. . ... ... : ... .. . ... : ... .. . F01 ...
ROW 66 : ... .. 3 ... P7F ... : ... .. 3 P7F ... ... : ... .. . ... ... : ... .. . ... : ... .. . F02 ...
ROW 67 : ... .. . ... ... ... : ... .. . ... ... ... : ... .. . ... ... : ... .. . ... : ... .. . F03 ...
ROW 68 : G#3 0C D ... P80 ... : C#3 0D A P80 ... ... : ... .. . ... ... : ... .. . ... : ... .. . F02 ...
ROW 69 : ... .. . ... ... ... : ... .. . ... ... ... : ... .. . ... ... : ... .. . ... : ... .. . F01 ...
ROW 6A : ... .. 3 ... P7F ... : G#3 0C 5 P80 ... ... : ... .. . ... ... : ... .. . ... : ... .. . F02 ...
ROW 6B : ... .. . ... ... ... : ... .. . ... ... ... : ... .. . ... ... : ... .. . ... : ... .. . F03 ...
ROW 6C : G-3 0C D ... P80 ... : ... .. . ... ... ... : ... .. . ... ... : ... .. . ... : ... .. . F02 ...
ROW 6D : ... .. . ... ... ... : ... .. . ... ... ... : ... .. . ... ... : ... .. . ... : ... .. . F01 ...
ROW 6E : ... .. 3 ... P7F ... : G-3 0C . P80 ... ... : ... .. . ... ... : ... .. . ... : ... .. . F02 ...
ROW 6F : ... .. . ... ... ... : ... .. . ... ... ... : ... .. . ... ... : ... .. . ... : ... .. . F03 ...
ROW 70 : F-3 0C D ... P80 ... : ... .. . P7E ... ... : ... .. . ... ... : ... .. . ... : ... .. . F02 ...
ROW 71 : ... .. . ... ... ... : ... .. . ... ... ... : ... .. . ... ... : ... .. . ... : ... .. . F01 ...
ROW 72 : ... .. 3 ... P7F ... : F-3 0C . P80 ... ... : ... .. . ... ... : ... .. . ... : ... .. . F02 ...
ROW 73 : ... .. . ... ... ... : ... .. . ... ... ... : ... .. . ... ... : ... .. . ... : ... .. . F03 ...
ROW 74 : D-3 0C D ... P80 ... : ... .. . P7E ... ... : ... .. . ... ... : ... .. . ... : ... .. . F02 ...
ROW 75 : ... .. . ... ... ... : ... .. . ... ... ... : ... .. . ... ... : ... .. . ... : ... .. . F01 ...
ROW 76 : ... .. 3 ... P7F ... : D-3 0C . P80 ... ... : ... .. . ... ... : ... .. . ... : ... .. . F02 ...
ROW 77 : ... .. . ... ... ... : ... .. . ... ... ... : ... .. . P7F ... : ... .. . ... : ... .. . F03 ...
ROW 78 : A-2 0C D ... P80 ... : ... .. . P7E ... ... : --- .. . ... ... : ... .. . ... : ... .. . F02 ...
ROW 79 : ... .. . ... ... ... : ... .. . ... ... ... : ... .. . ... ... : ... .. . ... : ... .. . F01 ...
ROW 7A : ... .. 3 ... P7F ... : A-2 0C . P80 ... ... : ... .. . ... ... : ... .. . ... : ... .. . F02 ...
ROW 7B : ... .. . ... ... ... : ... .. . ... ... ... : ... .. . ... ... : ... .. . ... : ... .. . F03 ...
ROW 7C : F#2 0C D ... P80 ... : ... .. . P7E ... ... : ... .. . ... ... : ... .. . ... : ... .. . F02 ...
ROW 7D : ... .. . ... ... ... : ... .. . ... ... ... : ... .. . ... ... : ... .. . ... : ... .. . F01 ...
ROW 7E : ... .. 3 ... P7F ... : ... .. . ... ... ... : ... .. . ... ... : ... .. . ... : ... .. . F02 ...
ROW 7F : ... .. . ... ... ... : ... .. . ... ... ... : ... .. . ... ... : ... .. . ... : ... .. . F03 ...

PATTERN 14
ROW 00 : --- .. . ... ... ... : F-2 0D 4 V02 P80 ... : A#1 01 . P80 ... : ... .. . ... : ... .. . F02 ...
ROW 01 : ... .. . ... ... ... : ... .. . ... ... ... : ... .. . ... ... : ... .. . ... : ... .. . F01 ...
ROW 02 : ... .. . ... ... ... : ... .. 1 ... ... ... : ... .. . P7F ... : ... .. . ... : ... .. . F02 ...
ROW 03 : ... .. . ... ... ... : ... .. . ... P7F ... : --- .. . ... ... : ... .. . ... : ... .. . F03 ...
ROW 04 : F-2 0D 2 V02 P80 ... : G-2 0D 5 ... P80 ... : ... .. . ... ... : ... .. . ... : ... .. . F02 ...
ROW 05 : ... .. . ... ... ... : ... .. . ... ... ... : ... .. . ... ... : ... .. . ... : ... .. . F01 ...
ROW 06 : ... .. 1 ... ... ... : ... .. 1 ... ... ... : ... .. . ... ... : ... .. . ... : ... .. . F02 ...
ROW 07 : ... .. . ... P7E ... : ... .. . ... P7F ... : ... .. . ... ... : ... .. . ... : ... .. . F03 ...
ROW 08 : A#2 0C 5 V02 ... P80 : A#2 0D 5 ... ... ... : G-2 01 . P80 ... : ... .. . ... : ... .. . F02 ...
ROW 09 : ... .. 6 ... ... ... : ... .. . ... ... ... : ... .. . ... ... : ... .. . ... : ... .. . F01 ...
ROW 0A : ... .. 1 ... ... ... : ... .. 1 ... ... ... : ... .. . P7F ... : ... .. . ... : ... .. . F02 ...
ROW 0B : ... .. . ... ... ... : ... .. . ... ... ... : --- .. . ... ... : ... .. . ... : ... .. . F03 ...
ROW 0C : ... .. . ... ... ... : F-2 0D 5 ... P80 ... : ... .. . ... ... : ... .. . ... : ... .. . F02 ...
ROW 0D : ... .. . ... ... P7F : ... .. . ... ... ... : ... .. . ... ... : ... .. . ... : ... .. . F01 ...
ROW 0E : ... .. 0 ... ... ... : ... .. 1 ... ... ... : ... .. . ... ... : ... .. . ... : ... .. . F02 ...
ROW 0F : ... .. . ... ... ... : ... .. . ... P7F ... : ... .. . ... ... : ... .. . ... : ... .. . F03 ...
ROW 10 : F-2 0D 2 ... P80 ... : G-2 0D 6 ... P80 ... : A#1 01 . P80 ... : ... .. . ... : ... .. . F02 ...
ROW 11 : ... .. . ... ... ... : ... .. . ... ... ... : ... .. . ... ... : ... .. . ... : ... .. . F01 ...
ROW 12 : ... .. 1 ... ... ... : ... .. 1 ... ... ... : ... .. . P7F ... : ... .. . ... : ... .. . F02 ...
ROW 13 : ... .. . ... P7E ... : ... .. . ... P7F ... : --- .. . ... ... : ... .. . ... : ... .. . F03 ...
ROW 14 : D-3 0C 7 V00 ... P80 : D-3 0D 6 ... ... ... : ... .. . ... ... : ... .. . ... : ... .. . F02 ...
ROW 15 : ... .. 8 ... ... ... : ... .. . ... ... ... : ... .. . ... ... : ... .. . ... : ... .. . F01 ...
ROW 16 : ... .. 1 ... ... ... : ... .. 1 ... ... ... : ... .. . ... ... : ... .. . ... : ... .. . F02 ...
ROW 17 : ... .. . ... ... ... : ... .. . ... ... ... : ... .. . ... ... : ... .. . ... : ... .. . F03 ...
ROW 18 : ... .. . ... ... ... : F-2 0D 7 ... P80 ... : D-2 01 . P80 ... : ... .. . ... : ... .. . F02 ...
ROW 19 : ... .. . ... ... P7F : ... .. . ... ... ... : ... .. . ... ... : ... .. . ... : ... .. . F01 ...
ROW 1A : ... .. 0 ... ... ... : ... .. 1 ... ... ... : ... .. . P7F ... : ... .. . ... : ... .. . F02 ...
ROW 1B : ... .. . ... ... ... : ... .. . ... P7F ... : --- .. . ... ... : ... .. . ... : ... .. . F03 ...
ROW 1C : F-2 0D 2 ... P80 ... : G-2 0D 8 ... P80 ... : ... .. . ... ... : ... .. . ... : ... .. . F02 ...
ROW 1D : ... .. . ... ... ... : ... .. 7 ... ... ... : ... .. . ... ... : ... .. . ... : ... .. . F01 ...
ROW 1E : ... .. 1 ... ... ... : ... .. 1 ... ... ... : ... .. . ... ... : ... .. . ... : ... .. . F02 ...
ROW 1F : ... .. . ... P7E ... : ... .. . ... P7F ... : ... .. . ... ... : ... .. . ... : ... .. . F03 ...
ROW 20 : A#2 0C 7 V02 ... P80 : C-3 0D 7 ... ... ... : G-1 01 . P80 ... : ... .. . ... : ... .. . F02 ...
ROW 21 : C-3 0C . V00 30C ... : ... .. . ... ... ... : ... .. . ... ... : ... .. . ... : ... .. . F01 ...
ROW 22 : ... .. 8 ... ... ... : ... .. 1 ... ... ... : ... .. . P7F ... : ... .. . ... : ... .. . F02 ...
ROW 23 : ... .. . ... ... ... : ... .. . ... ... ... : --- .. . ... ... : ... .. . ... : ... .. . F03 ...
ROW 24 : ... .. 1 ... ... ... : F-2 0D 6 ... P80 ... : ... .. . ... ... : ... .. . ... : ... .. . F02 ...
ROW 25 : ... .. . ... 300 ... : ... .. 5 ... ... ... : ... .. . ... ... : ... .. . ... : ... .. . F01 ...
ROW 26 : ... .. . ... ... P7F : ... .. 1 ... ... ... : ... .. . ... ... : ... .. . ... : ... .. . F02 ...
ROW 27 : ... .. 0 ... ... ... : ... .. . ... P7F ... : ... .. . ... ... : ... .. . ... : ... .. . F03 ...
ROW 28 : F-2 0D 2 ... P80 ... : G-2 0D 4 ... P80 ... : F-2 01 . P80 ... : ... .. . ... : ... .. . F02 ...
ROW 29 : ... .. . ... ... ... : ... .. . ... ... ... : ... .. . ... ... : ... .. . ... : ... .. . F01 ...
ROW 2A : ... .. 1 ... ... ... : ... .. 1 ... ... ... : ... .. . ... ... : ... .. . ... : ... .. . F02 ...
ROW 2B : ... .. . ... P7E ... : ... .. . ... P7F ... : ... .. . P7F ... : ... .. . ... : ... .. . F03 ...
ROW 2C : A#2 0C 5 V01 ... P80 : A#2 0D 5 ... ... ... : G-2 01 . P80 ... : ... .. . ... : ... .. . F02 ...
ROW 2D : ... .. . ... ... ... : ... .. . ... ... ... : ... .. . ... ... : ... .. . ... : ... .. . F01 ...
ROW 2E : ... .. . ... ... ... : ... .. 1 ... ... ... : ... .. . ... ... : ... .. . ... : ... .. . F02 ...
ROW 2F : ... .. . ... ... ... : ... .. . ... ... ... : ... .. . P7F ... : ... .. . ... : ... .. . F03 ...
ROW 30 : ... .. 4 ... ... ... : C-2 0D 5 ... P80 ... : G-1 01 . P80 ... : ... .. . ... : ... .. . F02 ...
ROW 31 : ... .. . ... ... ... : ... .. . ... ... ... : ... .. . ... ... : ... .. . ... : ... .. . F01 ...
ROW 32 : ... .. 1 ... 454 ... : ... .. 1 ... ... ... : ... .. . P7F ... : ... .. . ... : ... .. . F02 ...
ROW 33 : ... .. . ... ... ... : ... .. . ... P7F ... : --- .. . ... ... : ... .. . ... : ... .. . F03 ...
ROW 34 : ... .. . ... ... ... : D-2 0D 6 ... P80 ... : ... .. . ... ... : ... .. . ... : ... .. . F02 ...
ROW 35 : ... .. . ... ... P7F : ... .. 5 ... ... ... : ... .. . ... ... : ... .. . ... : ... .. . F01 ...
ROW 36 : ... .. 0 ... ... ... : ... .. 1 ... ... ... : ... .. . ... ... : ... .. . ... : ... .. . F02 ...
ROW 37 : ... .. . ... ... ... : ... .. . ... P7F ... : ... .. . ... ... : ... .. . ... : ... .. . F03 ...
ROW 38 : D-2 0D 3 ... P80 ... : F-2 0D 4 ... P80 ... : D-2 01 . P80 ... : ... .. . ... : ... .. . F02 ...
ROW 39 : ... .. . ... ... ... : ... .. . ... ... ... : ... .. . ... ... : ... .. . ... : ... .. . F01 ...
ROW 3A : ... .. 1 ... ... ... : ... .. 1 ... ... ... : ... .. . P7F ... : ... .. . ... : ... .. . F02 ...
ROW 3B : ... .. . ... P7E ... : ... .. . ... P7F ... : --- .. . ... ... : ... .. . ... : ... .. . F03 ...
ROW 3C : F-2 0D 2 ... P80 ... : F-2 0D 4 ... P80 ... : ... .. . ... ... : ... .. . ... : ... .. . F02 ...
ROW 3D : ... .. . ... ... ... : ... .. . ... ... ... : ... .. . ... ... : ... .. . ... : ... .. . F01 ...
ROW 3E : ... .. 1 ... ... ... : ... .. 1 ... ... ... : ... .. . ... ... : ... .. . ... : ... .. . F02 ...
ROW 3F : ... .. . ... P7E ... : ... .. . ... P7F ... : ... .. . ... ... : ... .. . ... : ... .. . F03 ...
ROW 40 : F-2 0D 2 ... P80 ... : G-2 0D 5 ... P80 ... : A#1 01 . P80 ... : ... .. . ... : ... .. . F02 ...
ROW 41 : ... .. . ... ... ... : ... .. . ... ... ... : ... .. . ... ... : ... .. . ... : ... .. . F01 ...
ROW 42 : ... .. 1 ... ... ... : ... .. 1 ... ... ... : ... .. . P7F ... : ... .. . ... : ... .. . F02 ...
ROW 43 : ... .. . ... P7E ... : ... .. . ... P7F ... : --- .. . ... ... : ... .. . ... : ... .. . F03 ...
ROW 44 : D-3 0C 6 V02 ... P80 : D-3 0D 4 ... ... ... : ... .. . ... ... : ... .. . ... : ... .. . F02 ...
ROW 45 : ... .. 7 ... ... ... : ... .. . ... ... ... : ... .. . ... ... : ... .. . ... : ... .. . F01 ...
ROW 46 : ... .. 1 ... ... ... : ... .. 1 ... ... ... : ... .. . ... ... : ... .. . ... : ... .. . F02 ...
ROW 47 : ... .. . ... ... ... : ... .. . ... ... ... : ... .. . ... ... : ... .. . ... : ... .. . F03 ...
ROW 48 : ... .. . ... ... ... : F-2 0D 5 ... P80 ... : G-2 01 . P80 ... : ... .. . ... : ... .. . F02 ...
ROW 49 : ... .. . ... ... P7F : ... .. . ... ... ... : ... .. . ... ... : ... .. . ... : ... .. . F01 ...
ROW 4A : ... .. 0 ... ... ... : ... .. 1 ... ... ... : ... .. . P7F ... : ... .. . ... : ... .. . F02 ...
ROW 4B : ... .. . ... ... ... : ... .. . ... P7F ... : --- .. . ... ... : ... .. . ... : ... .. . F03 ...
ROW 4C : F-2 0D 2 ... P80 ... : G-2 0D 6 ... P80 ... : ... .. . ... ... : ... .. . ... : ... .. . F02 ...
ROW 4D : ... .. . ... ... ... : ... .. 7 ... ... ... : ... .. . ... ... : ... .. . ... : ... .. . F01 ...
ROW 4E : ... .. 1 ... ... ... : ... .. 1 ... ... ... : ... .. . ... ... : ... .. . ... : ... .. . F02 ...
ROW 4F : ... .. . ... P7E ... : ... .. . ... P7F ... : ... .. . ... ... : ... .. . ... : ... .. . F03 ...
ROW 50 : A#2 0C 7 V02 ... P80 : C-3 0D 5 ... ... ... : A#1 01 . P80 ... : ... .. . ... : ... .. . F02 ...
ROW 51 : C-3 0C . V00 30C ... : ... .. . ... ... ... : ... .. . ... ... : ... .. . ... : ... .. . F01 ...
ROW 52 : ... .. 8 ... ... ... : ... .. . ... ... ... : ... .. . P7F ... : ... .. . ... : ... .. . F02 ...
ROW 53 : ... .. . ... ... ... : ... .. . ... ... ... : --- .. . ... ... : ... .. . ... : ... .. . F03 ...
ROW 54 : ... .. 1 ... ... ... : F-2 0D 7 ... P80 ... : ... .. . ... ... : ... .. . ... : ... .. . F02 ...
ROW 55 : ... .. . ... 300 ... : ... .. 8 ... ... ... : ... .. . ... ... : ... .. . ... : ... .. . F01 ...
ROW 56 : ... .. . ... ... P7F : ... .. 1 ... ... ... : ... .. . ... ... : ... .. . ... : ... .. . F02 ...
ROW 57 : ... .. 0 ... ... ... : ... .. . ... P7F ... : ... .. . ... ... : ... .. . ... : ... .. . F03 ...
ROW 58 : F-2 0D 2 ... P80 ... : G-2 0D 7 ... P80 ... : D-2 01 . P80 ... : ... .. . ... : ... .. . F02 ...
ROW 59 : ... .. . ... ... ... : ... .. 6 ... ... ... : ... .. . ... ... : ... .. . ... : ... .. . F01 ...
ROW 5A : ... .. 1 ... ... ... : ... .. 1 ... ... ... : ... .. . P7F ... : ... .. . ... : ... .. . F02 ...
ROW 5B : ... .. . ... P7E ... : ... .. . ... P7F ... : --- .. . ... ... : ... .. . ... : ... .. . F03 ...
ROW 5C : A#2 0C 5 V01 ... P80 : A#2 0D 7 ... P80 ... : ... .. . ... ... : ... .. . ... : ... .. . F02 ...
ROW 5D : ... .. . ... ... ... : ... .. . ... ... ... : ... .. . ... ... : ... .. . ... : ... .. . F01 ...
ROW 5E : ... .. . ... ... ... : ... .. . ... ... ... : ... .. . ... ... : ... .. . ... : ... .. . F02 ...
ROW 5F : ... .. . ... ... ... : ... .. 1 ... P7F ... : ... .. . ... ... : ... .. . ... : ... .. . F03 ...
ROW 60 : ... .. . ... ... ... : A#2 0D 7 ... P80 ... : G-1 01 . P80 ... : ... .. . ... : ... .. . F02 ...
ROW 61 : ... .. . ... ... ... : ... .. . ... ... ... : ... .. . P7F ... : ... .. . ... : ... .. . F01 ...
ROW 62 : ... .. . ... ... ... : ... .. . ... ... ... : --- .. . ... ... : ... .. . ... : ... .. . F02 ...
ROW 63 : ... .. . ... ... ... : ... .. . ... ... ... : ... .. . ... ... : ... .. . ... : ... .. . F03 ...
ROW 64 : ... .. 4 ... ... ... : ... .. . ... ... ... : D-2 01 . P80 ... : ... .. . ... : ... .. . F02 ...
ROW 65 : ... .. . ... ... ... : ... .. . ... ... ... : ... .. . P7F ... : ... .. . ... : ... .. . F01 ...
ROW 66 : ... .. . ... ... ... : ... .. 1 ... ... ... : --- .. . ... ... : ... .. . ... : ... .. . F02 ...
ROW 67 : ... .. . ... ... ... : ... .. . ... ... ... : ... .. . ... ... : ... .. . ... : ... .. . F03 ...
ROW 68 : ... .. 1 ... ... ... : ... .. . ... ... ... : F-2 01 . P80 ... : ... .. . ... : ... .. . F02 ...
ROW 69 : ... .. . ... ... ... : ... .. . ... ... ... : ... .. . P7F ... : ... .. . ... : ... .. . F01 ...
ROW 6A : ... .. . ... ... ... : ... .. . ... ... ... : --- .. . ... ... : ... .. . ... : ... .. . F02 ...
ROW 6B : ... .. . ... 454 ... : ... .. . ... P7F ... : ... .. . ... ... : ... .. . ... : ... .. . F03 ...
ROW 6C : ... .. . ... ... ... : G-2 0D 7 ... P80 ... : G-2 01 . P80 ... : ... .. . ... : ... .. . F02 ...
ROW 6D : ... .. . ... ... ... : ... .. . ... ... ... : ... .. . P7F ... : ... .. . ... : ... .. . F01 ...
ROW 6E : ... .. . ... ... P7F : ... .. 1 ... P7F ... : --- .. . ... ... : ... .. . ... : ... .. . F02 ...
ROW 6F : ... .. 0 ... ... ... : ... .. . ... ... ... : ... .. . ... ... : ... .. . ... : ... .. . F03 ...
ROW 70 : ... .. . ... 400 ... : F-2 0D 7 ... P80 ... : C-3 01 . P80 ... : ... .. . ... : ... .. . F02 ...
ROW 71 : ... .. . ... ... ... : ... .. . ... ... ... : ... .. . P7F ... : ... .. . ... : ... .. . F01 ...
ROW 72 : ... .. . ... ... ... : ... .. 1 ... P7F ... : --- .. . ... ... : ... .. . ... : ... .. . F02 ...
ROW 73 : F-2 0D 2 ... P80 ... : ... .. . ... ... ... : ... .. . ... ... : ... .. . ... : ... .. . F03 ...
ROW 74 : ... .. . ... ... ... : G-2 0D 7 ... P80 ... : D-3 01 . P80 ... : ... .. . ... : ... .. . F02 ...
ROW 75 : ... .. 1 ... P7E ... : ... .. . ... ... ... : ... .. . ... ... : ... .. . ... : ... .. . F01 ...
ROW 76 : ... .. . ... ... ... : ... .. . ... ... ... : ... .. . P7F ... : ... .. . ... : ... .. . F02 ...
ROW 77 : G-2 0D 2 ... P80 ... : ... .. . ... ... ... : --- .. . ... ... : ... .. . ... : ... .. . F03 ...
ROW 78 : ... .. . ... ... ... : ... .. . ... ... ... : ... .. . ... ... : ... .. . ... : ... .. . F02 ...
ROW 79 : ... .. . ... ... ... : ... .. . ... ... ... : ... .. . ... ... : ... .. . ... : ... .. . F01 ...
ROW 7A : ... .. . ... ... ... : ... .. 1 ... ... ... : ... .. . ... ... : ... .. . ... : ... .. . F02 ...
ROW 7B : ... .. . ... ... ... : ... .. . ... ... ... : ... .. . ... ... : ... .. . ... : ... .. . F03 ...
ROW 7C : ... .. . ... ... ... : ... .. . ... ... ... : F-3 01 . P80 ... : ... .. . ... : ... .. . F02 ...
ROW 7D : ... .. 1 ... ... ... : ... .. . ... P7F ... : ... .. . P7F ... : ... .. . ... : ... .. . F01 ...
ROW 7E : ... .. . ... ... ... : ... .. 0 ... ... ... : --- .. . ... ... : ... .. . ... : ... .. . F02 ...
ROW 7F : ... .. . ... ... ... : ... .. . ... ... ... : ... .. . ... ... : ... .. . ... : ... .. . F03 ...

PATTERN 15
ROW 00 : ... .. 0 ... ... ... : F-3 02 4 V02 P80 ... : A#2 01 . P80 ... : ... .. . ... : ... .. . F02 ...
ROW 01 : ... .. . ... ... ... : ... .. . ... ... ... : ... .. . ... ... : ... .. . ... : ... .. . F01 ...
ROW 02 : ... .. . ... ... ... : ... .. 1 ... ... ... : ... .. . ... ... : ... .. . ... : ... .. . F02 ...
ROW 03 : ... .. . ... ... ... : ... .. . ... P7F ... : ... .. . P7F ... : ... .. . ... : ... .. . F03 ...
ROW 04 : F-3 02 2 V02 P80 ... : G-3 02 5 ... P80 ... : --- .. . ... ... : ... .. . ... : ... .. . F02 ...
ROW 05 : ... .. . ... ... ... : ... .. . ... ... ... : ... .. . ... ... : ... .. . ... : ... .. . F01 ...
ROW 06 : ... .. 1 ... ... ... : ... .. 1 ... ... ... : ... .. . ... ... : ... .. . ... : ... .. . F02 ...
ROW 07 : ... .. . ... P7E ... : ... .. . ... P7F ... : ... .. . ... ... : ... .. . ... : ... .. . F03 ...
ROW 08 : A#3 0C 5 V02 ... P80 : A#3 0D 5 ... ... ... : F-3 01 . P80 ... : ... .. . ... : ... .. . F02 ...
ROW 09 : ... .. . ... ... ... : ... .. . ... ... ... : ... .. . ... ... : ... .. . ... : ... .. . F01 ...
ROW 0A : ... .. 1 ... ... ... : ... .. 1 ... ... ... : ... .. . ... ... : ... .. . ... : ... .. . F02 ...
ROW 0B : ... .. . ... ... P7F : ... .. . ... ... ... : ... .. . P7F ... : ... .. . ... : ... .. . F03 ...
ROW 0C : ... .. . ... ... ... : F-3 02 5 ... P80 ... : --- .. . ... ... : ... .. . ... : ... .. . F02 ...
ROW 0D : ... .. . ... ... ... : ... .. . ... ... ... : ... .. . ... ... : ... .. . ... : ... .. . F01 ...
ROW 0E : ... .. 0 ... ... ... : ... .. 1 ... ... ... : ... .. . ... ... : ... .. . ... : ... .. . F02 ...
ROW 0F : ... .. . ... ... ... : ... .. . ... P7F ... : ... .. . ... ... : ... .. . ... : ... .. . F03 ...
ROW 10 : F-3 02 2 ... P80 ... : G-3 0D 6 ... P80 ... : C-4 01 . P80 ... : ... .. . ... : ... .. . F02 ...
ROW 11 : ... .. . ... ... ... : ... .. . ... ... ... : ... .. . ... ... : ... .. . ... : ... .. . F01 ...
ROW 12 : ... .. 1 ... ... ... : ... .. 1 ... ... ... : ... .. . ... ... : ... .. . ... : ... .. . F02 ...
ROW 13 : ... .. . ... P7E ... : ... .. . ... P7F ... : ... .. . P7F ... : ... .. . ... : ... .. . F03 ...
ROW 14 : D-4 00 7 V00 ... P80 : D-4 0D 6 ... ... ... : --- .. . ... ... : ... .. . ... : ... .. . F02 ...
ROW 15 : ... .. . ... ... ... : ... .. . ... ... ... : ... .. . ... ... : ... .. . ... : ... .. . F01 ...
ROW 16 : ... .. 1 ... ... ... : ... .. 1 ... ... ... : ... .. . ... ... : ... .. . ... : ... .. . F02 ...
ROW 17 : ... .. . ... ... P7F : ... .. . ... ... ... : ... .. . ... ... : ... .. . ... : ... .. . F03 ...
ROW 18 : ... .. . ... ... ... : F-3 0D 7 ... P80 ... : F-3 01 . P80 ... : ... .. . ... : ... .. . F02 ...
ROW 19 : ... .. . ... ... ... : ... .. . ... ... ... : ... .. . ... ... : ... .. . ... : ... .. . F01 ...
ROW 1A : ... .. 0 ... ... ... : ... .. 1 ... ... ... : ... .. . ... ... : ... .. . ... : ... .. . F02 ...
ROW 1B : ... .. . ... ... ... : ... .. . ... P7F ... : ... .. . P7F ... : ... .. . ... : ... .. . F03 ...
ROW 1C : F-3 0D 2 ... P80 ... : G-3 0D 8 ... P80 ... : --- .. . ... ... : ... .. . ... : ... .. . F02 ...
ROW 1D : ... .. . ... ... ... : ... .. . ... ... ... : ... .. . ... ... : ... .. . ... : ... .. . F01 ...
ROW 1E : ... .. 1 ... ... ... : ... .. 1 ... ... ... : ... .. . ... ... : ... .. . ... : ... .. . F02 ...
ROW 1F : ... .. . ... P7E ... : ... .. . ... P7F ... : ... .. . ... ... : ... .. . ... : ... .. . F03 ...
ROW 20 : A#3 0C 8 V02 ... P80 : C-4 0D 7 ... ... ... : G-2 01 . P80 ... : ... .. . ... : ... .. . F02 ...
ROW 21 : C-4 04 . V00 30C ... : ... .. . ... ... ... : ... .. . ... ... : ... .. . ... : ... .. . F01 ...
ROW 22 : ... .. . ... ... ... : ... .. 1 ... ... ... : ... .. . ... ... : ... .. . ... : ... .. . F02 ...
ROW 23 : ... .. . ... ... ... : ... .. . ... ... ... : ... .. . P7F ... : ... .. . ... : ... .. . F03 ...
ROW 24 : ... .. 1 ... ... ... : F-3 02 6 ... P80 ... : --- .. . ... ... : ... .. . ... : ... .. . F02 ...
ROW 25 : ... .. . ... 300 P7F : ... .. . ... ... ... : ... .. . ... ... : ... .. . ... : ... .. . F01 ...
ROW 26 : ... .. . ... ... ... : ... .. 1 ... ... ... : ... .. . ... ... : ... .. . ... : ... .. . F02 ...
ROW 27 : ... .. 0 ... ... ... : ... .. . ... P7F ... : ... .. . ... ... : ... .. . ... : ... .. . F03 ...
ROW 28 : F-3 02 2 ... P80 ... : G-3 0D 4 ... P80 ... : D-3 01 . P80 ... : ... .. . ... : ... .. . F02 ...
ROW 29 : ... .. . ... ... ... : ... .. . ... ... ... : ... .. . ... ... : ... .. . ... : ... .. . F01 ...
ROW 2A : ... .. 1 ... ... ... : ... .. 1 ... ... ... : ... .. . ... ... : ... .. . ... : ... .. . F02 ...
ROW 2B : ... .. . ... P7E ... : ... .. . ... P7F ... : ... .. . P7F ... : ... .. . ... : ... .. . F03 ...
ROW 2C : A#3 00 5 V01 ... P80 : A#3 0D 5 ... ... ... : --- .. . ... ... : ... .. . ... : ... .. . F02 ...
ROW 2D : ... .. . ... ... ... : ... .. . ... ... ... : ... .. . ... ... : ... .. . ... : ... .. . F01 ...
ROW 2E : ... .. . ... ... ... : ... .. 1 ... ... ... : ... .. . ... ... : ... .. . ... : ... .. . F02 ...
ROW 2F : ... .. . ... ... ... : ... .. . ... ... ... : ... .. . ... ... : ... .. . ... : ... .. . F03 ...
ROW 30 : ... .. 4 ... ... ... : C-3 0D 5 ... P80 ... : A#3 01 . P80 ... : ... .. . ... : ... .. . F02 ...
ROW 31 : ... .. . ... ... ... : ... .. . ... ... ... : ... .. . ... ... : ... .. . ... : ... .. . F01 ...
ROW 32 : ... .. 1 ... 454 ... : ... .. 1 ... ... ... : ... .. . ... ... : ... .. . ... : ... .. . F02 ...
ROW 33 : ... .. . ... ... ... : ... .. . ... P7F ... : ... .. . P7F ... : ... .. . ... : ... .. . F03 ...
ROW 34 : ... .. . ... ... ... : D-3 0D 6 ... P80 ... : --- .. . ... ... : ... .. . ... : ... .. . F02 ...
ROW 35 : ... .. . ... ... P7F : ... .. . ... ... ... : ... .. . ... ... : ... .. . ... : ... .. . F01 ...
ROW 36 : ... .. 0 ... ... ... : ... .. 1 ... ... ... : ... .. . ... ... : ... .. . ... : ... .. . F02 ...
ROW 37 : ... .. . ... 400 ... : ... .. . ... P7F ... : ... .. . ... ... : ... .. . ... : ... .. . F03 ...
ROW 38 : D-3 0D 3 ... P80 ... : F-3 0D 4 ... P80 ... : D-3 01 . P80 ... : ... .. . ... : ... .. . F02 ...
ROW 39 : ... .. . ... ... ... : ... .. . ... ... ... : ... .. . ... ... : ... .. . ... : ... .. . F01 ...
ROW 3A : ... .. 1 ... ... ... : ... .. 1 ... ... ... : ... .. . ... ... : ... .. . ... : ... .. . F02 ...
ROW 3B : ... .. . ... P7E ... : ... .. . ... P7F ... : ... .. . P7F ... : ... .. . ... : ... .. . F03 ...
ROW 3C : F-3 0D 2 ... P80 ... : F-3 02 4 ... P80 ... : --- .. . ... ... : ... .. . ... : ... .. . F02 ...
ROW 3D : ... .. . ... ... ... : ... .. . ... ... ... : ... .. . ... ... : ... .. . ... : ... .. . F01 ...
ROW 3E : ... .. 1 ... ... ... : ... .. 1 ... ... ... : ... .. . ... ... : ... .. . ... : ... .. . F02 ...
ROW 3F : ... .. . ... P7E ... : ... .. . ... P7F ... : ... .. . ... ... : ... .. . ... : ... .. . F03 ...
ROW 40 : F-3 02 2 ... P80 ... : G-3 0D 5 ... P80 ... : D#2 01 . P80 ... : ... .. . ... : ... .. . F02 ...
ROW 41 : ... .. . ... ... ... : ... .. . ... ... ... : ... .. . ... ... : ... .. . ... : ... .. . F01 ...
ROW 42 : ... .. 1 ... ... ... : ... .. 1 ... ... ... : ... .. . ... ... : ... .. . ... : ... .. . F02 ...
ROW 43 : ... .. . ... P7E ... : ... .. . ... P7F ... : ... .. . P7F ... : ... .. . ... : ... .. . F03 ...
ROW 44 : D-4 00 7 V02 ... P80 : D-4 0D 5 ... ... ... : --- .. . ... ... : ... .. . ... : ... .. . F02 ...
ROW 45 : ... .. . ... ... ... : ... .. . ... ... ... : ... .. . ... ... : ... .. . ... : ... .. . F01 ...
ROW 46 : ... .. 1 ... ... ... : ... .. 1 ... ... ... : ... .. . ... ... : ... .. . ... : ... .. . F02 ...
ROW 47 : ... .. . ... ... P7F : ... .. . ... ... ... : ... .. . ... ... : ... .. . ... : ... .. . F03 ...
ROW 48 : ... .. . ... ... ... : F-3 0D 5 ... P80 ... : A#2 01 . P80 ... : ... .. . ... : ... .. . F02 ...
ROW 49 : ... .. . ... ... ... : ... .. . ... ... ... : ... .. . ... ... : ... .. . ... : ... .. . F01 ...
ROW 4A : ... .. 0 ... ... ... : ... .. 1 ... ... ... : ... .. . ... ... : ... .. . ... : ... .. . F02 ...
ROW 4B : ... .. . ... ... ... : ... .. . ... P7F ... : ... .. . P7F ... : ... .. . ... : ... .. . F03 ...
ROW 4C : F-3 0D 2 ... P80 ... : G-3 02 6 ... P80 ... : --- .. . ... ... : ... .. . ... : ... .. . F02 ...
ROW 4D : ... .. . ... ... ... : ... .. . ... ... ... : ... .. . ... ... : ... .. . ... : ... .. . F01 ...
ROW 4E : ... .. 1 ... ... ... : ... .. 1 ... ... ... : ... .. . ... ... : ... .. . ... : ... .. . F02 ...
ROW 4F : ... .. . ... P7E ... : ... .. . ... P7F ... : ... .. . ... ... : ... .. . ... : ... .. . F03 ...
ROW 50 : A#3 0C 9 V02 ... P80 : D-3 0D 7 ... P80 ... : G-3 01 . P80 ... : ... .. . ... : ... .. . F02 ...
ROW 51 : C-4 04 . V00 30C ... : ... .. . ... ... ... : ... .. . ... ... : ... .. . ... : ... .. . F01 ...
ROW 52 : ... .. . ... ... ... : ... .. 1 ... ... ... : ... .. . ... ... : ... .. . ... : ... .. . F02 ...
ROW 53 : ... .. . ... ... ... : ... .. . ... P7F ... : ... .. . P7F ... : ... .. . ... : ... .. . F03 ...
ROW 54 : ... .. 1 ... ... ... : F-3 02 8 ... P80 ... : --- .. . ... ... : ... .. . ... : ... .. . F02 ...
ROW 55 : ... .. . ... 300 P7F : ... .. . ... ... ... : ... .. . ... ... : ... .. . ... : ... .. . F01 ...
ROW 56 : ... .. . ... ... ... : ... .. 1 ... ... ... : ... .. . ... ... : ... .. . ... : ... .. . F02 ...
ROW 57 : ... .. 0 ... ... ... : ... .. . ... P7F ... : ... .. . ... ... : ... .. . ... : ... .. . F03 ...
ROW 58 : F-3 02 3 ... P80 ... : G-3 0D 6 ... P80 ... : C-4 01 . P80 ... : ... .. . ... : ... .. . F02 ...
ROW 59 : ... .. . ... ... ... : ... .. . ... ... ... : ... .. . ... ... : ... .. . ... : ... .. . F01 ...
ROW 5A : ... .. 1 ... ... ... : ... .. 1 ... ... ... : ... .. . ... ... : ... .. . ... : ... .. . F02 ...
ROW 5B : ... .. . ... P7E ... : ... .. . ... P7F ... : ... .. . P7F ... : ... .. . ... : ... .. . F03 ...
ROW 5C : A#3 0C 6 V01 ... P80 : D#3 0D 4 ... P80 ... : --- .. . ... ... : ... .. . ... : ... .. . F02 ...
ROW 5D : ... .. . ... ... ... : ... .. . ... ... ... : ... .. . ... ... : ... .. . ... : ... .. . F01 ...
ROW 5E : ... .. . ... ... ... : ... .. . ... ... ... : ... .. . ... ... : ... .. . ... : ... .. . F02 ...
ROW 5F : ... .. . ... ... ... : ... .. . ... ... ... : ... .. . ... ... : ... .. . ... : ... .. . F03 ...
ROW 60 : ... .. . ... ... ... : ... .. . ... ... ... : F-2 01 . P80 ... : ... .. . ... : ... .. . F02 ...
ROW 61 : ... .. . ... ... ... : ... .. . ... ... ... : ... .. . ... ... : ... .. . ... : ... .. . F01 ...
ROW 62 : ... .. . ... ... ... : ... .. . ... ... ... : ... .. . P7F ... : ... .. . ... : ... .. . F02 ...
ROW 63 : ... .. . ... ... ... : ... .. . ... ... ... : --- .. . ... ... : ... .. . ... : ... .. . F03 ...
ROW 64 : ... .. 4 ... ... ... : ... .. 4 ... ... ... : C-3 01 . P80 ... : ... .. . ... : ... .. . F02 ...
ROW 65 : ... .. . ... ... ... : ... .. . ... ... ... : ... .. . ... ... : ... .. . ... : ... .. . F01 ...
ROW 66 : ... .. . ... ... ... : ... .. . ... ... ... : ... .. . P7F ... : ... .. . ... : ... .. . F02 ...
ROW 67 : ... .. . ... ... ... : ... .. . ... ... ... : --- .. . ... ... : ... .. . ... : ... .. . F03 ...
ROW 68 : ... .. 1 ... ... ... : ... .. 1 ... ... ... : D#3 01 . P80 ... : ... .. . ... : ... .. . F02 ...
ROW 69 : ... .. . ... ... ... : ... .. . ... ... ... : ... .. . ... ... : ... .. . ... : ... .. . F01 ...
ROW 6A : ... .. . ... ... ... : ... .. . ... ... ... : ... .. . P7F ... : ... .. . ... : ... .. . F02 ...
ROW 6B : ... .. . ... 454 ... : ... .. . ... ... ... : --- .. . ... ... : ... .. . ... : ... .. . F03 ...
ROW 6C : ... .. . ... ... ... : ... .. . ... ... ... : E-3 01 . P80 ... : ... .. . ... : ... .. . F02 ...
ROW 6D : ... .. . ... ... ... : ... .. . ... ... ... : ... .. . ... ... : ... .. . ... : ... .. . F01 ...
ROW 6E : ... .. . ... ... ... : ... .. . ... ... ... : ... .. . P7F ... : ... .. . ... : ... .. . F02 ...
ROW 6F : ... .. 0 ... ... ... : ... .. . ... ... ... : --- .. . ... ... : ... .. . ... : ... .. . F03 ...
ROW 70 : ... .. . ... 400 ... : ... .. 0 ... ... ... : F-3 01 . P80 ... : ... .. . ... : ... .. . F02 ...
ROW 71 : ... .. . ... ... P7F : F-2 01 1 P80 V02 ... : ... .. . ... ... : ... .. . ... : ... .. . F01 ...
ROW 72 : ... .. . ... ... ... : ... .. . ... ... ... : ... .. . P7F ... : ... .. . ... : ... .. . F02 ...
ROW 73 : F-2 01 1 P80 V02 ... : ... .. . P7F ... ... : --- .. . ... ... : ... .. . ... : ... .. . F03 ...
ROW 74 : ... .. . ... ... ... : --- .. . ... ... ... : A#3 01 . P80 ... : ... .. . ... : ... .. . F02 ...
ROW 75 : ... .. . P7F ... ... : A#2 01 . P80 ... ... : ... .. . ... ... : ... .. . ... : ... .. . F01 ...
ROW 76 : --- .. . ... ... ... : ... .. . ... ... ... : ... .. . ... ... : ... .. . ... : ... .. . F02 ...
ROW 77 : A#2 01 . P80 ... ... : ... .. . ... ... ... : ... .. . P7F ... : ... .. . ... : ... .. . F03 ...
ROW 78 : ... .. . ... ... ... : ... .. . P7F ... ... : --- .. . ... ... : ... .. . ... : ... .. . F02 ...
ROW 79 : ... .. . ... ... ... : --- .. . ... ... ... : ... .. . ... ... : ... .. . ... : ... .. . F01 ...
ROW 7A : ... .. . P7F ... ... : ... .. . ... ... ... : ... .. . ... ... : ... .. . ... : ... .. . F02 ...
ROW 7B : --- .. . ... ... ... : ... .. . ... ... ... : ... .. . ... ... : ... .. . ... : ... .. . F03 ...
ROW 7C : ... .. . ... ... ... : ... .. . ... ... ... : F-2 01 . P80 ... : ... .. . ... : ... .. . F02 ...
ROW 7D : ... .. . ... ... ... : F-1 01 . P80 ... ... : ... .. . ... ... : ... .. . ... : ... .. . F01 ...
ROW 7E : ... .. . ... ... ... : ... .. . ... ... ... : ... .. . P7F ... : ... .. . ... : ... .. . F02 ...
ROW 7F : F-1 01 . P80 ... ... : ... .. . P7F ... ... : --- .. . ... ... : ... .. . ... : ... .. . F03 ...

PATTERN 16
ROW 00 : --- .. . ... ... ... : F-3 02 A P80 ... ... : A#1 01 . P80 ... : ... .. . ... : ... .. . F02 ...
ROW 01 : ... .. . ... ... ... : ... .. . ... ... ... : ... .. . ... ... : ... .. . ... : ... .. . F01 ...
ROW 02 : ... .. . ... ... ... : ... .. 1 P7F ... ... : ... .. . ... ... : ... .. . ... : ... .. . F02 ...
ROW 03 : ... .. . ... ... ... : ... .. . ... ... ... : ... .. . P7F ... : ... .. . ... : ... .. . F03 ...
ROW 04 : F-3 02 5 P80 V01 ... : G-3 02 A P80 ... ... : --- .. . ... ... : ... .. . ... : ... .. . F02 ...
ROW 05 : ... .. . ... ... ... : ... .. . ... ... ... : ... .. . ... ... : ... .. . ... : ... .. . F01 ...
ROW 06 : ... .. 1 ... ... ... : ... .. 1 P7F ... ... : ... .. . ... ... : ... .. . ... : ... .. . F02 ...
ROW 07 : ... .. . ... ... ... : ... .. . ... ... ... : ... .. . ... ... : ... .. . ... : ... .. . F03 ...
ROW 08 : F-4 00 D P80 ... ... : C-4 02 A P80 ... ... : A#2 01 . P80 ... : ... .. . ... : ... .. . F02 ...
ROW 09 : ... .. . ... ... ... : ... .. . ... ... ... : ... .. . ... ... : ... .. . ... : ... .. . F01 ...
ROW 0A : ... .. . ... ... ... : ... .. 1 P7F ... ... : ... .. . ... ... : ... .. . ... : ... .. . F02 ...
ROW 0B : ... .. . ... ... ... : ... .. . ... ... ... : ... .. . P7F ... : ... .. . ... : ... .. . F03 ...
ROW 0C : ... .. . ... ... ... : F-3 02 A P80 ... ... : --- .. . ... ... : ... .. . ... : ... .. . F02 ...
ROW 0D : ... .. . ... ... ... : ... .. . ... ... ... : ... .. . ... ... : ... .. . ... : ... .. . F01 ...
ROW 0E : ... .. 2 ... ... ... : ... .. 1 P7F ... ... : ... .. . ... ... : ... .. . ... : ... .. . F02 ...
ROW 0F : ... .. . ... ... ... : ... .. . ... ... ... : ... .. . ... ... : ... .. . ... : ... .. . F03 ...
ROW 10 : ... .. 1 P7F 454 ... : G-3 02 A P80 ... ... : D-2 01 . P80 ... : ... .. . ... : ... .. . F02 ...
ROW 11 : ... .. . ... ... ... : ... .. . ... ... ... : ... .. . ... ... : ... .. . ... : ... .. . F01 ...
ROW 12 : ... .. . ... ... ... : ... .. 1 P7F ... ... : ... .. . ... ... : ... .. . ... : ... .. . F02 ...
ROW 13 : ... .. . ... 400 ... : ... .. . ... ... ... : ... .. . P7F ... : ... .. . ... : ... .. . F03 ...
ROW 14 : D-4 00 D P80 ... ... : A#3 02 A P80 ... ... : --- .. . ... ... : ... .. . ... : ... .. . F02 ...
ROW 15 : ... .. . ... ... ... : ... .. . ... ... ... : ... .. . ... ... : ... .. . ... : ... .. . F01 ...
ROW 16 : ... .. . ... ... ... : ... .. 1 P7F ... ... : ... .. . ... ... : ... .. . ... : ... .. . F02 ...
ROW 17 : ... .. . ... ... ... : ... .. . ... ... ... : ... .. . ... ... : ... .. . ... : ... .. . F03 ...
ROW 18 : ... .. . ... ... ... : F-3 02 A P80 ... ... : G#3 01 . P80 ... : ... .. . ... : ... .. . F02 ...
ROW 19 : ... .. . ... ... ... : ... .. . ... ... ... : ... .. . ... ... : ... .. . ... : ... .. . F01 ...
ROW 1A : ... .. 2 ... ... ... : ... .. 1 P7F ... ... : ... .. . ... ... : ... .. . ... : ... .. . F02 ...
ROW 1B : ... .. . ... ... ... : ... .. . ... ... ... : ... .. . P7F ... : ... .. . ... : ... .. . F03 ...
ROW 1C : ... .. 1 P7F ... ... : G-3 02 A P80 ... ... : --- .. . ... ... : ... .. . ... : ... .. . F02 ...
ROW 1D : ... .. . ... ... ... : ... .. . ... ... ... : ... .. . ... ... : ... .. . ... : ... .. . F01 ...
ROW 1E : ... .. . ... ... ... : ... .. 1 P7F ... ... : ... .. . ... ... : ... .. . ... : ... .. . F02 ...
ROW 1F : ... .. . ... ... ... : ... .. . ... ... ... : ... .. . ... ... : ... .. . ... : ... .. . F03 ...
ROW 20 : A#3 00 D P80 ... ... : G#3 02 A P80 ... ... : F-2 01 . P80 ... : ... .. . ... : ... .. . F02 ...
ROW 21 : ... .. . ... ... ... : ... .. . ... ... ... : ... .. . ... ... : ... .. . ... : ... .. . F01 ...
ROW 22 : C-4 00 . ... 30A ... : ... .. 1 P7F ... ... : ... .. . P7F ... : ... .. . ... : ... .. . F02 ...
ROW 23 : ... .. . ... ... ... : ... .. . ... ... ... : --- .. . ... ... : ... .. . ... : ... .. . F03 ...
ROW 24 : ... .. . ... ... ... : C-3 02 A P80 ... ... : G#3 01 . P80 ... : ... .. . ... : ... .. . F02 ...
ROW 25 : ... .. . ... ... ... : ... .. . ... ... ... : ... .. . ... ... : ... .. . ... : ... .. . F01 ...
ROW 26 : ... .. 2 ... ... ... : ... .. 1 P7F ... ... : ... .. . ... ... : ... .. . ... : ... .. . F02 ...
ROW 27 : ... .. . ... 300 ... : ... .. . ... ... ... : ... .. . P7F ... : ... .. . ... : ... .. . F03 ...
ROW 28 : ... .. 1 P7F 454 ... : D#3 02 A P80 ... ... : --- .. . ... ... : ... .. . ... : ... .. . F02 ...
ROW 29 : ... .. . ... ... ... : ... .. . ... ... ... : ... .. . ... ... : ... .. . ... : ... .. . F01 ...
ROW 2A : ... .. . ... ... ... : ... .. 1 P7F ... ... : ... .. . ... ... : ... .. . ... : ... .. . F02 ...
ROW 2B : ... .. . ... 400 ... : ... .. . ... ... ... : ... .. . ... ... : ... .. . ... : ... .. . F03 ...
ROW 2C : A#3 00 D P80 ... ... : D-3 02 A P80 ... ... : G#3 01 . P80 ... : ... .. . ... : ... .. . F02 ...
ROW 2D : ... .. . ... ... ... : ... .. . ... ... ... : ... .. . ... ... : ... .. . ... : ... .. . F01 ...
ROW 2E : ... .. . ... ... ... : ... .. . ... ... ... : ... .. . P7F ... : ... .. . ... : ... .. . F02 ...
ROW 2F : ... .. . ... ... ... : ... .. . ... ... ... : --- .. . ... ... : ... .. . ... : ... .. . F03 ...
ROW 30 : ... .. . ... ... ... : ... .. . ... ... ... : A#2 01 . P80 ... : ... .. . ... : ... .. . F02 ...
ROW 31 : ... .. . ... ... ... : ... .. . ... ... ... : ... .. . ... ... : ... .. . ... : ... .. . F01 ...
ROW 32 : ... .. . ... ... ... : ... .. 1 P7F ... ... : ... .. . ... ... : ... .. . ... : ... .. . F02 ...
ROW 33 : ... .. . ... ... ... : ... .. . ... ... ... : ... .. . ... ... : ... .. . ... : ... .. . F03 ...
ROW 34 : ... .. . ... ... ... : E-3 02 A P80 ... ... : ... .. . ... ... : ... .. . ... : ... .. . F02 ...
ROW 35 : ... .. . ... ... ... : ... .. . ... ... ... : ... .. . ... ... : ... .. . ... : ... .. . F01 ...
ROW 36 : ... .. . ... ... ... : ... .. 1 P7F ... ... : ... .. . P7F ... : ... .. . ... : ... .. . F02 ...
ROW 37 : ... .. . ... ... ... : ... .. . ... ... ... : --- .. . ... ... : ... .. . ... : ... .. . F03 ...
ROW 38 : ... .. . ... ... ... : F-3 02 A P80 ... ... : F-2 01 . P80 ... : ... .. . ... : ... .. . F02 ...
ROW 39 : ... .. . ... ... ... : ... .. . ... ... ... : ... .. . ... ... : ... .. . ... : ... .. . F01 ...
ROW 3A : ... .. 2 ... ... ... : ... .. 1 P7F ... ... : ... .. . P7F ... : ... .. . ... : ... .. . F02 ...
ROW 3B : ... .. . ... ... ... : ... .. . ... ... ... : --- .. . ... ... : ... .. . ... : ... .. . F03 ...
ROW 3C : ... .. 1 P7F 454 ... : F#3 02 A P80 ... ... : E-2 01 . P80 ... : ... .. . ... : ... .. . F02 ...
ROW 3D : ... .. . ... ... ... : ... .. . ... ... ... : ... .. . ... ... : ... .. . ... : ... .. . F01 ...
ROW 3E : ... .. . ... ... ... : ... .. 1 P7F ... ... : ... .. . P7F ... : ... .. . ... : ... .. . F02 ...
ROW 3F : ... .. 0 ... 400 ... : ... .. . ... ... ... : --- .. . ... ... : ... .. . ... : ... .. . F03 ...
ROW 40 : F#3 02 5 P80 ... ... : G-3 02 A P80 ... ... : D#2 01 . P80 ... : ... .. . ... : ... .. . F02 ...
ROW 41 : ... .. . ... ... ... : ... .. . ... ... ... : ... .. . ... ... : ... .. . ... : ... .. . F01 ...
ROW 42 : ... .. 3 P7E ... ... : ... .. 1 P7F ... ... : ... .. . ... ... : ... .. . ... : ... .. . F02 ...
ROW 43 : ... .. . ... ... ... : ... .. . ... ... ... : ... .. . P7F ... : ... .. . ... : ... .. . F03 ...
ROW 44 : G-3 02 5 P80 ... ... : A#3 02 A P80 ... ... : --- .. . ... ... : ... .. . ... : ... .. . F02 ...
ROW 45 : ... .. . ... ... ... : ... .. . ... ... ... : ... .. . ... ... : ... .. . ... : ... .. . F01 ...
ROW 46 : ... .. 3 P7E ... ... : ... .. 1 P7F ... ... : ... .. . ... ... : ... .. . ... : ... .. . F02 ...
ROW 47 : ... .. . ... ... ... : ... .. . ... ... ... : ... .. . ... ... : ... .. . ... : ... .. . F03 ...
ROW 48 : F-4 00 D P80 ... ... : D#4 02 A P80 ... ... : A#2 01 . P80 ... : ... .. . ... : ... .. . F02 ...
ROW 49 : ... .. . ... ... ... : ... .. . ... ... ... : ... .. . ... ... : ... .. . ... : ... .. . F01 ...
ROW 4A : ... .. . ... ... ... : ... .. 1 P7F ... ... : ... .. . ... ... : ... .. . ... : ... .. . F02 ...
ROW 4B : ... .. . ... ... ... : ... .. . ... ... ... : ... .. . P7F ... : ... .. . ... : ... .. . F03 ...
ROW 4C : ... .. . ... ... ... : F-3 02 A P80 ... ... : --- .. . ... ... : ... .. . ... : ... .. . F02 ...
ROW 4D : ... .. . ... ... ... : ... .. . ... ... ... : ... .. . ... ... : ... .. . ... : ... .. . F01 ...
ROW 4E : ... .. 2 ... ... ... : ... .. 1 P7F ... ... : ... .. . ... ... : ... .. . ... : ... .. . F02 ...
ROW 4F : ... .. . ... ... ... : ... .. . ... ... ... : ... .. . ... ... : ... .. . ... : ... .. . F03 ...
ROW 50 : ... .. 1 P7F 454 ... : G-3 02 A P80 ... ... : G-3 01 . P80 ... : ... .. . ... : ... .. . F02 ...
ROW 51 : ... .. . ... ... ... : ... .. . ... ... ... : ... .. . ... ... : ... .. . ... : ... .. . F01 ...
ROW 52 : ... .. . ... ... ... : ... .. 1 P7F ... ... : ... .. . ... ... : ... .. . ... : ... .. . F02 ...
ROW 53 : ... .. . ... 400 ... : ... .. . ... ... ... : ... .. . P7F ... : ... .. . ... : ... .. . F03 ...
ROW 54 : D-4 00 D P80 ... ... : A#3 02 A P80 ... ... : --- .. . ... ... : ... .. . ... : ... .. . F02 ...
ROW 55 : ... .. . ... ... ... : ... .. . ... ... ... : ... .. . ... ... : ... .. . ... : ... .. . F01 ...
ROW 56 : ... .. . ... ... ... : ... .. 1 P7F ... ... : ... .. . ... ... : ... .. . ... : ... .. . F02 ...
ROW 57 : ... .. . ... ... ... : ... .. . ... ... ... : ... .. . ... ... : ... .. . ... : ... .. . F03 ...
ROW 58 : ... .. . ... ... ... : F-3 02 A P80 ... ... : C#4 01 . P80 ... : ... .. . ... : ... .. . F02 ...
ROW 59 : ... .. . ... ... ... : ... .. . ... ... ... : ... .. . ... ... : ... .. . ... : ... .. . F01 ...
ROW 5A : ... .. 2 ... ... ... : ... .. 1 P7F ... ... : ... .. . ... ... : ... .. . ... : ... .. . F02 ...
ROW 5B : ... .. . ... ... ... : ... .. . ... ... ... : ... .. . P7F ... : ... .. . ... : ... .. . F03 ...
ROW 5C : ... .. 1 P7F ... ... : G-3 02 A P80 ... ... : --- .. . ... ... : ... .. . ... : ... .. . F02 ...
ROW 5D : ... .. . ... ... ... : ... .. . ... ... ... : ... .. . ... ... : ... .. . ... : ... .. . F01 ...
ROW 5E : ... .. . ... ... ... : ... .. 1 P7F ... ... : ... .. . ... ... : ... .. . ... : ... .. . F02 ...
ROW 5F : ... .. . ... ... ... : ... .. . ... ... ... : ... .. . ... ... : ... .. . ... : ... .. . F03 ...
ROW 60 : A#3 00 D P80 ... ... : E-3 02 A P80 ... ... : A#3 01 . P80 ... : ... .. . ... : ... .. . F02 ...
ROW 61 : ... .. . ... ... ... : ... .. . ... ... ... : ... .. . ... ... : ... .. . ... : ... .. . F01 ...
ROW 62 : C-4 00 . ... 30A ... : ... .. 1 P7F ... ... : ... .. . P7F ... : ... .. . ... : ... .. . F02 ...
ROW 63 : ... .. . ... ... ... : ... .. . ... ... ... : --- .. . ... ... : ... .. . ... : ... .. . F03 ...
ROW 64 : ... .. . ... ... ... : D#3 02 A P80 ... ... : C-3 01 . P80 ... : ... .. . ... : ... .. . F02 ...
ROW 65 : ... .. . ... ... ... : ... .. . ... ... ... : ... .. . ... ... : ... .. . ... : ... .. . F01 ...
ROW 66 : ... .. 2 ... ... ... : ... .. 1 P7F ... ... : ... .. . ... ... : ... .. . ... : ... .. . F02 ...
ROW 67 : ... .. . ... 300 ... : ... .. . ... ... ... : ... .. . P7F ... : ... .. . ... : ... .. . F03 ...
ROW 68 : ... .. 1 P7F ... ... : D-3 02 A P80 ... ... : --- .. . ... ... : ... .. . ... : ... .. . F02 ...
ROW 69 : ... .. . ... ... ... : ... .. . ... ... ... : ... .. . ... ... : ... .. . ... : ... .. . F01 ...
ROW 6A : ... .. . ... ... ... : ... .. 1 P7F ... ... : ... .. . ... ... : ... .. . ... : ... .. . F02 ...
ROW 6B : ... .. . ... ... ... : ... .. . ... ... ... : ... .. . ... ... : ... .. . ... : ... .. . F03 ...
ROW 6C : A#3 00 D P80 ... ... : C#3 02 A P80 ... ... : E-3 01 . P80 ... : ... .. . ... : ... .. . F02 ...
ROW 6D : ... .. . ... ... ... : ... .. . ... ... ... : ... .. . ... ... : ... .. . ... : ... .. . F01 ...
ROW 6E : ... .. . ... ... ... : ... .. . ... ... ... : ... .. . P7F ... : ... .. . ... : ... .. . F02 ...
ROW 6F : ... .. . ... ... ... : ... .. . ... ... ... : --- .. . ... ... : ... .. . ... : ... .. . F03 ...
ROW 70 : ... .. . ... ... ... : ... .. . ... ... ... : C-2 01 . P80 ... : ... .. . ... : ... .. . F02 ...
ROW 71 : ... .. . ... ... ... : ... .. . ... ... ... : ... .. . ... ... : ... .. . ... : ... .. . F01 ...
ROW 72 : ... .. . ... ... ... : ... .. . ... ... ... : ... .. . P7F ... : ... .. . ... : ... .. . F02 ...
ROW 73 : ... .. . ... ... ... : ... .. . ... ... ... : --- .. . ... ... : ... .. . ... : ... .. . F03 ...
ROW 74 : ... .. 2 ... ... ... : ... .. 1 P7F ... ... : A#2 01 . P80 ... : ... .. . ... : ... .. . F02 ...
ROW 75 : ... .. . ... ... ... : ... .. . ... ... ... : ... .. . ... ... : ... .. . ... : ... .. . F01 ...
ROW 76 : ... .. 1 P7F ... ... : ... .. . ... ... ... : ... .. . ... ... : ... .. . ... : ... .. . F02 ...
ROW 77 : ... .. . ... ... ... : ... .. . ... ... ... : ... .. . ... ... : ... .. . ... : ... .. . F03 ...
ROW 78 : C-4 00 D P80 ... ... : E-3 02 A P80 ... ... : ... .. . ... ... : ... .. . ... : ... .. . F02 ...
ROW 79 : ... .. . ... ... ... : ... .. . ... ... ... : ... .. . ... ... : ... .. . ... : ... .. . F01 ...
ROW 7A : ... .. 2 P7F ... ... : ... .. . ... ... ... : ... .. . ... ... : ... .. . ... : ... .. . F02 ...
ROW 7B : ... .. . ... ... ... : ... .. . ... ... ... : ... .. . ... ... : ... .. . ... : ... .. . F03 ...
ROW 7C : D-4 00 D P80 ... ... : ... .. 1 P7F ... ... : ... .. . ... ... : ... .. . ... : ... .. . F02 ...
ROW 7D : ... .. . ... ... ... : ... .. . ... ... ... : ... .. . ... ... : ... .. . ... : ... .. . F01 ...
ROW 7E : ... .. 2 P7F ... ... : ... .. . ... ... ... : ... .. . P7F ... : ... .. . ... : ... .. . F02 ...
ROW 7F : ... .. . ... ... ... : ... .. . ... ... ... : --- .. . ... ... : ... .. . ... : ... .. . F03 ...

PATTERN 17
ROW 00 : C#4 00 D P80 ... ... : C-4 02 A P80 ... ... : F-2 01 . P80 ... : ... .. . ... : ... .. . F02 ...
ROW 01 : ... .. . ... ... ... : ... .. . ... ... ... : ... .. . ... ... : ... .. . ... : ... .. . F01 ...
ROW 02 : ... .. 2 P7F ... ... : ... .. 1 ... ... ... : ... .. . ... ... : ... .. . ... : ... .. . F02 ...
ROW 03 : ... .. . ... ... ... : ... .. . ... ... ... : ... .. . ... ... : ... .. . ... : ... .. . F03 ...
ROW 04 : D-4 00 D P80 ... ... : D-4 02 A P80 ... ... : ... .. . ... ... : ... .. . ... : ... .. . F02 ...
ROW 05 : ... .. . ... ... ... : ... .. . ... ... ... : ... .. . ... ... : ... .. . ... : ... .. . F01 ...
ROW 06 : ... .. 2 P7F ... ... : ... .. 1 ... ... ... : ... .. . P7F ... : ... .. . ... : ... .. . F02 ...
ROW 07 : ... .. . ... ... ... : ... .. . ... ... ... : --- .. . ... ... : ... .. . ... : ... .. . F03 ...
ROW 08 : G-4 00 D P80 ... ... : --- .. . ... ... ... : D-3 01 . P80 ... : ... .. . ... : ... .. . F02 ...
ROW 09 : ... .. . ... ... ... : ... .. . ... ... ... : ... .. . ... ... : ... .. . ... : ... .. . F01 ...
ROW 0A : ... .. . ... ... ... : ... .. . ... ... ... : ... .. . P7F ... : ... .. . ... : ... .. . F02 ...
ROW 0B : ... .. . ... ... ... : ... .. . ... ... ... : --- .. . ... ... : ... .. . ... : ... .. . F03 ...
ROW 0C : ... .. . ... ... ... : G-3 02 A P80 ... ... : A#3 01 . P80 ... : ... .. . ... : ... .. . F02 ...
ROW 0D : ... .. . ... ... ... : ... .. . ... ... ... : ... .. . ... ... : ... .. . ... : ... .. . F01 ...
ROW 0E : ... .. 2 ... ... ... : ... .. 1 ... ... ... : ... .. . P7F ... : ... .. . ... : ... .. . F02 ...
ROW 0F : ... .. . ... ... ... : ... .. . ... ... ... : --- .. . ... ... : ... .. . ... : ... .. . F03 ...
ROW 10 : ... .. 1 P7F ... ... : A#3 02 A P80 ... ... : F-4 01 . P80 ... : ... .. . ... : ... .. . F02 ...
ROW 11 : ... .. . ... ... ... : ... .. . ... ... ... : ... .. . ... ... : ... .. . ... : ... .. . F01 ...
ROW 12 : ... .. . ... ... ... : ... .. 1 ... ... ... : ... .. . ... ... : ... .. . ... : ... .. . F02 ...
ROW 13 : ... .. . ... ... ... : ... .. . ... ... ... : ... .. . ... ... : ... .. . ... : ... .. . F03 ...
ROW 14 : F-4 00 D P80 ... ... : D-4 02 A P80 ... ... : ... .. . ... ... : ... .. . ... : ... .. . F02 ...
ROW 15 : ... .. . ... ... ... : ... .. . ... ... ... : ... .. . ... ... : ... .. . ... : ... .. . F01 ...
ROW 16 : ... .. . ... ... ... : ... .. 1 ... ... ... : ... .. . P7F ... : ... .. . ... : ... .. . F02 ...
ROW 17 : ... .. . ... ... ... : ... .. . ... ... ... : --- .. . ... ... : ... .. . ... : ... .. . F03 ...
ROW 18 : ... .. . ... ... ... : F-3 02 A P80 ... ... : D-3 01 . P80 ... : ... .. . ... : ... .. . F02 ...
ROW 19 : ... .. . ... ... ... : ... .. . ... ... ... : ... .. . ... ... : ... .. . ... : ... .. . F01 ...
ROW 1A : ... .. 2 ... ... ... : ... .. 1 ... ... ... : ... .. . ... ... : ... .. . ... : ... .. . F02 ...
ROW 1B : ... .. . ... ... ... : ... .. . ... ... ... : ... .. . ... ... : ... .. . ... : ... .. . F03 ...
ROW 1C : ... .. 1 P7F ... ... : G-3 02 A P80 ... ... : ... .. . ... ... : ... .. . ... : ... .. . F02 ...
ROW 1D : ... .. . ... ... ... : ... .. . ... ... ... : ... .. . ... ... : ... .. . ... : ... .. . F01 ...
ROW 1E : ... .. . ... ... ... : ... .. 1 ... ... ... : ... .. . P7F ... : ... .. . ... : ... .. . F02 ...
ROW 1F : ... .. . ... ... ... : ... .. . ... ... ... : --- 01 . ... ... : ... .. . ... : ... .. . F03 ...
ROW 20 : A#3 00 D P80 ... ... : G#3 02 A P80 ... ... : G-2 01 . P80 ... : ... .. . ... : ... .. . F02 ...
ROW 21 : ... .. . ... ... ... : ... .. . ... ... ... : ... .. . ... ... : ... .. . ... : ... .. . F01 ...
ROW 22 : C#4 00 . ... 30A ... : ... .. 1 ... ... ... : ... .. . P7F ... : ... .. . ... : ... .. . F02 ...
ROW 23 : ... .. . ... ... ... : ... .. . ... ... ... : --- .. . ... ... : ... .. . ... : ... .. . F03 ...
ROW 24 : ... .. . ... ... ... : C#3 02 A P80 ... ... : F-3 01 . P80 ... : ... .. . ... : ... .. . F02 ...
ROW 25 : ... .. . ... ... ... : ... .. . ... ... ... : ... .. . ... ... : ... .. . ... : ... .. . F01 ...
ROW 26 : ... .. 2 ... ... ... : ... .. 1 ... ... ... : ... .. . P7F ... : ... .. . ... : ... .. . F02 ...
ROW 27 : ... .. . ... 300 ... : ... .. . ... ... ... : --- .. . ... ... : ... .. . ... : ... .. . F03 ...
ROW 28 : ... .. 1 P7F ... ... : F-3 02 A P80 ... ... : G#3 01 . P80 ... : ... .. . ... : ... .. . F02 ...
ROW 29 : ... .. . ... ... ... : ... .. . ... ... ... : ... .. . ... ... : ... .. . ... : ... .. . F01 ...
ROW 2A : ... .. . ... ... ... : ... .. 1 ... ... ... : ... .. . P7F ... : ... .. . ... : ... .. . F02 ...
ROW 2B : ... .. . ... ... ... : ... .. . ... ... ... : --- .. . ... ... : ... .. . ... : ... .. . F03 ...
ROW 2C : G-3 00 D P80 ... ... : E-3 02 A P80 ... ... : B-3 01 . P80 ... : ... .. . ... : ... .. . F02 ...
ROW 2D : ... .. . ... ... ... : ... .. . ... ... ... : ... .. . ... ... : ... .. . ... : ... .. . F01 ...
ROW 2E : ... .. . ... ... ... : ... .. 1 ... ... ... : ... .. . ... ... : ... .. . ... : ... .. . F02 ...
ROW 2F : ... .. . ... ... ... : ... .. . ... ... ... : ... .. . P7F ... : ... .. . ... : ... .. . F03 ...
ROW 30 : ... .. . ... ... ... : D#3 02 A P80 ... ... : F-3 01 . P80 ... : ... .. . ... : ... .. . F02 ...
ROW 31 : ... .. . ... ... ... : ... .. . ... ... ... : ... .. . ... ... : ... .. . ... : ... .. . F01 ...
ROW 32 : ... .. . ... ... ... : ... .. 1 ... ... ... : ... .. . ... ... : ... .. . ... : ... .. . F02 ...
ROW 33 : ... .. . ... ... ... : ... .. . ... ... ... : ... .. . ... ... : ... .. . ... : ... .. . F03 ...
ROW 34 : ... .. 2 ... 454 ... : D-3 02 A P80 ... ... : ... .. . ... ... : ... .. . ... : ... .. . F02 ...
ROW 35 : ... .. . ... ... ... : ... .. . ... ... ... : ... .. . ... ... : ... .. . ... : ... .. . F01 ...
ROW 36 : ... .. 1 P7F ... ... : ... .. 1 ... ... ... : ... .. . P7F ... : ... .. . ... : ... .. . F02 ...
ROW 37 : ... .. . ... 400 ... : ... .. . ... ... ... : --- 01 . ... ... : ... .. . ... : ... .. . F03 ...
ROW 38 : A-3 00 D P80 ... ... : C#3 02 A P80 ... ... : G-2 01 . P80 ... : ... .. . ... : ... .. . F02 ...
ROW 39 : ... .. . ... ... ... : ... .. . ... ... ... : ... .. . ... ... : ... .. . ... : ... .. . F01 ...
ROW 3A : ... .. 2 P7F ... ... : ... .. . ... ... ... : ... .. . ... ... : ... .. . ... : ... .. . F02 ...
ROW 3B : ... .. . ... ... ... : ... .. . ... ... ... : ... .. . ... ... : ... .. . ... : ... .. . F03 ...
ROW 3C : G-3 00 D P80 ... ... : ... .. . ... ... ... : ... .. . ... ... : ... .. . ... : ... .. . F02 ...
ROW 3D : ... .. . ... ... ... : ... .. . ... ... ... : ... .. . ... ... : ... .. . ... : ... .. . F01 ...
ROW 3E : ... .. 2 P7F ... ... : ... .. 1 ... ... ... : ... .. . P7F ... : ... .. . ... : ... .. . F02 ...
ROW 3F : ... .. . ... ... ... : ... .. . ... ... ... : --- .. . ... ... : ... .. . ... : ... .. . F03 ...
ROW 40 : A#2 0E F P81 V02 ... : A#3 0D B P80 ... ... : E-3 01 . P80 ... : ... .. . ... : ... .. . F02 ...
ROW 41 : ... .. . P7F ... ... : ... .. . ... 426 ... : ... .. . ... ... : ... .. . ... : ... .. . F01 ...
ROW 42 : D-3 0E A P81 ... ... : ... .. . ... ... ... : ... .. . P7F ... : ... .. . ... : ... .. . F02 ...
ROW 43 : ... .. . P7F ... ... : ... .. . ... 400 ... : --- .. . ... ... : ... .. . ... : ... .. . F03 ...
ROW 44 : G-3 0E . P81 ... ... : A#2 0E 5 P81 ... ... : G-2 01 . P80 ... : ... .. . ... : ... .. . F02 ...
ROW 45 : ... .. . P7F ... ... : ... .. . P7E ... ... : ... .. . ... ... : ... .. . ... : ... .. . F01 ...
ROW 46 : A#3 0E . P81 ... ... : D-3 0E . P81 ... ... : ... .. . P7F ... : ... .. . ... : ... .. . F02 ...
ROW 47 : ... .. . P7F ... ... : ... .. . P7E ... ... : --- .. . ... ... : ... .. . ... : ... .. . F03 ...
ROW 48 : G-3 0E . P81 ... ... : G-3 0E . P81 ... ... : C-2 01 . P80 ... : ... .. . ... : ... .. . F02 ...
ROW 49 : ... .. . P7F ... ... : ... .. . P7E ... ... : ... .. . ... ... : ... .. . ... : ... .. . F01 ...
ROW 4A : D-3 0E . P81 ... ... : A#3 0E . P81 ... ... : ... .. . P7F ... : ... .. . ... : ... .. . F02 ...
ROW 4B : ... .. 1 P7F ... ... : ... .. . P7E ... ... : --- .. . ... ... : ... .. . ... : ... .. . F03 ...
ROW 4C : A#2 0E F P81 ... ... : A#3 0D B P81 ... ... : F-2 01 . P80 ... : ... .. . ... : ... .. . F02 ...
ROW 4D : ... .. . P7F ... ... : ... .. . ... 426 ... : ... .. . ... ... : ... .. . ... : ... .. . F01 ...
ROW 4E : D#3 0E A P81 ... ... : ... .. . ... ... ... : ... .. . ... ... : ... .. . ... : ... .. . F02 ...
ROW 4F : ... .. . P7F ... ... : ... .. . ... 400 ... : ... .. . P7F ... : ... .. . ... : ... .. . F03 ...
ROW 50 : F#3 0E . P81 ... ... : A#2 0E 5 P81 ... ... : --- .. . ... ... : ... .. . ... : ... .. . F02 ...
ROW 51 : ... .. . P7F ... ... : ... .. . P7E ... ... : ... .. . ... ... : ... .. . ... : ... .. . F01 ...
ROW 52 : A#3 0E . P81 ... ... : D#3 0E . P81 ... ... : ... .. . ... ... : ... .. . ... : ... .. . F02 ...
ROW 53 : ... .. . P7F ... ... : ... .. . P7E ... ... : ... .. . ... ... : ... .. . ... : ... .. . F03 ...
ROW 54 : F#3 0E . P81 ... ... : F#3 0E . P81 ... ... : F-2 01 . P80 ... : ... .. . ... : ... .. . F02 ...
ROW 55 : ... .. . P7F ... ... : ... .. . P7E ... ... : ... .. . ... ... : ... .. . ... : ... .. . F01 ...
ROW 56 : D#3 0E . P81 ... ... : A#3 0E . P81 ... ... : ... .. . P7F ... : ... .. . ... : ... .. . F02 ...
ROW 57 : ... .. 1 P7F ... ... : ... .. . P7E ... ... : --- .. . ... ... : ... .. . ... : ... .. . F03 ...
ROW 58 : C-3 0E F P81 ... ... : A#3 0D B P81 ... ... : A#1 01 . P80 ... : ... .. . ... : ... .. . F02 ...
ROW 59 : ... .. . P7F ... ... : ... .. . ... 426 ... : ... .. . ... ... : ... .. . ... : ... .. . F01 ...
ROW 5A : D-3 0E A P81 ... ... : ... .. . ... ... ... : ... .. . ... ... : ... .. . ... : ... .. . F02 ...
ROW 5B : ... .. . P7F ... ... : ... .. . ... 400 ... : ... .. . ... ... : ... .. . ... : ... .. . F03 ...
ROW 5C : F-3 0E . P81 ... ... : C-3 0E 5 P81 ... ... : ... .. . ... ... : ... .. . ... : ... .. . F02 ...
ROW 5D : ... .. . P7F ... ... : ... .. . P7E ... ... : ... .. . ... ... : ... .. . ... : ... .. . F01 ...
ROW 5E : A#3 0E . P81 ... ... : D-3 0E . P81 ... ... : ... .. . ... ... : ... .. . ... : ... .. . F02 ...
ROW 5F : ... .. . P7F ... ... : ... .. . P7E ... ... : ... .. . ... ... : ... .. . ... : ... .. . F03 ...
ROW 60 : F-3 0E . P81 ... ... : F-3 0E . P81 ... ... : ... .. . ... ... : ... .. . ... : ... .. . F02 ...
ROW 61 : ... .. . P7F ... ... : ... .. . P7E ... ... : ... .. . ... ... : ... .. . ... : ... .. . F01 ...
ROW 62 : D-3 0E . P81 ... ... : A#3 0E . P81 ... ... : ... .. . ... ... : ... .. . ... : ... .. . F02 ...
ROW 63 : ... .. 1 P7F ... ... : ... .. . ... ... ... : ... .. . ... ... : ... .. . ... : ... .. . F03 ...
ROW 64 : ... .. . ... ... ... : C-3 0D A P80 ... ... : ... .. . ... ... : ... .. . ... : ... .. . F02 ...
ROW 65 : ... .. . ... ... ... : ... .. . ... ... ... : ... .. . ... ... : ... .. . ... : ... .. . F01 ...
ROW 66 : C-3 0C 5 P80 ... ... : ... .. 1 P7F ... ... : ... .. . ... ... : ... .. . ... : ... .. . F02 ...
ROW 67 : ... .. . ... ... ... : ... .. . ... ... ... : ... .. . ... ... : ... .. . ... : ... .. . F03 ...
ROW 68 : ... .. 1 P7E ... ... : F-3 0D A P80 ... ... : ... .. . ... ... : ... .. . ... : ... .. . F02 ...
ROW 69 : ... .. . ... ... ... : ... .. . ... ... ... : ... .. . ... ... : ... .. . ... : ... .. . F01 ...
ROW 6A : F-3 0C 5 P80 ... ... : ... .. 1 P7F ... ... : ... .. . ... ... : ... .. . ... : ... .. . F02 ...
ROW 6B : ... .. . ... ... ... : ... .. . ... ... ... : ... .. . ... ... : ... .. . ... : ... .. . F03 ...
ROW 6C : ... .. 1 P7E ... ... : D-3 0D A P80 ... ... : ... .. . ... ... : ... .. . ... : ... .. . F02 ...
ROW 6D : ... .. . ... ... ... : ... .. . ... ... ... : ... .. . ... ... : ... .. . ... : ... .. . F01 ...
ROW 6E : D-3 0C 5 P80 ... ... : ... .. 1 P7F ... ... : ... .. . ... ... : ... .. . ... : ... .. . F02 ...
ROW 6F : ... .. . ... ... ... : ... .. . ... ... ... : ... .. . ... ... : ... .. . ... : ... .. . F03 ...
ROW 70 : ... .. 1 P7E ... ... : G-3 0D A P80 ... ... : ... .. . ... ... : ... .. . ... : ... .. . F02 ...
ROW 71 : ... .. . ... ... ... : ... .. . ... ... ... : ... .. . ... ... : ... .. . ... : ... .. . F01 ...
ROW 72 : G-3 0C 5 P80 ... ... : ... .. 1 P7F ... ... : ... .. . ... ... : ... .. . ... : ... .. . F02 ...
ROW 73 : ... .. . ... ... ... : ... .. . ... ... ... : ... .. . ... ... : ... .. . ... : ... .. . F03 ...
ROW 74 : ... .. 1 P7E ... ... : C-4 0D A P80 ... ... : ... .. . ... ... : ... .. . ... : ... .. . F02 ...
ROW 75 : ... .. . ... ... ... : ... .. . ... ... ... : ... .. . ... ... : ... .. . ... : ... .. . F01 ...
ROW 76 : C-4 0C 5 P80 ... ... : ... .. 1 P7F ... ... : ... .. . ... ... : ... .. . ... : ... .. . F02 ...
ROW 77 : ... .. . ... ... ... : ... .. . ... ... ... : ... .. . ... ... : ... .. . ... : ... .. . F03 ...
ROW 78 : ... .. 1 P7E ... ... : A#4 0D A P80 ... ... : ... .. . ... ... : ... .. . ... : ... .. . F02 ...
ROW 79 : ... .. . ... ... ... : ... .. . ... ... ... : ... .. . ... ... : ... .. . ... : ... .. . F01 ...
ROW 7A : A#4 0C 5 P80 ... ... : ... .. 1 P7F ... ... : ... .. . ... ... : ... .. . ... : ... .. . F02 ...
ROW 7B : ... .. . ... ... ... : ... .. . ... ... ... : ... .. . P7F ... : ... .. . ... : ... .. . F03 ...
ROW 7C : ... .. 1 P7E ... ... : F-5 0D A P80 ... ... : --- .. . ... ... : ... .. . ... : ... .. . F02 ...
ROW 7D : ... .. . ... ... ... : ... .. . ... ... ... : ... .. . ... ... : ... .. . ... : ... .. . F01 ...
ROW 7E : F-5 0C 5 P80 ... ... : ... .. 1 P7F ... ... : ... .. . ... ... : ... .. . ... : ... .. . F02 ...
ROW 7F : ... .. . ... ... ... : ... .. . ... ... ... : ... .. . ... ... : ... .. . ... : ... .. . F03 ...

PATTERN 18
ROW 00 : --- .. . ... ... ... : --- .. . ... ... ... : C-3 01 . P80 ... : ... .. . ... : ... .. . F02 ...
ROW 01 : ... .. . ... ... ... : ... .. . ... ... ... : ... .. . ... ... : ... .. . ... : ... .. . F01 ...
ROW 02 : ... .. . ... ... ... : ... .. . ... ... ... : ... .. . P7F ... : ... .. . ... : ... .. . F02 ...
ROW 03 : ... .. . ... ... ... : C-2 01 1 P80 V02 ... : --- .. . ... ... : ... .. . ... : ... .. . F03 ...
ROW 04 : ... .. . ... ... ... : G#6 0D A ... ... ... : A#3 01 . P80 ... : ... .. . ... : ... .. . F02 ...
ROW 05 : C-2 01 1 P80 V02 ... : ... .. . ... ... ... : ... .. . ... ... : ... .. . ... : ... .. . F01 ...
ROW 06 : ... .. . ... ... ... : ... .. 1 ... ... ... : ... .. . P7F ... : ... .. . ... : ... .. . F02 ...
ROW 07 : ... .. . P7E ... ... : ... .. 0 ... ... ... : --- .. . ... ... : ... .. . ... : ... .. . F03 ...
ROW 08 : G#6 0D 5 P80 ... ... : G#5 0D A ... ... ... : C-4 01 . P80 ... : ... .. . ... : ... .. . F02 ...
ROW 09 : ... .. . ... ... ... : ... .. . ... ... ... : ... .. . ... ... : ... .. . ... : ... .. . F01 ...
ROW 0A : ... .. 1 ... ... ... : ... .. . ... ... ... : ... .. . P7F ... : ... .. . ... : ... .. . F02 ...
ROW 0B : ... .. 0 ... ... ... : ... .. 1 ... ... ... : --- .. . ... ... : ... .. . ... : ... .. . F03 ...
ROW 0C : G#5 0D 5 ... ... ... : ... .. 0 ... ... ... : G#4 01 . P80 ... : ... .. . ... : ... .. . F02 ...
ROW 0D : ... .. . ... ... ... : ... .. . ... ... ... : ... .. . ... ... : ... .. . ... : ... .. . F01 ...
ROW 0E : ... .. . ... ... ... : ... .. . ... ... ... : ... .. . P7F ... : ... .. . ... : ... .. . F02 ...
ROW 0F : ... .. 1 ... ... ... : ... .. . ... ... ... : --- .. . ... ... : ... .. . ... : ... .. . F03 ...
ROW 10 : ... .. 0 ... ... ... : F#4 0D A ... ... ... : A#3 01 . P80 ... : ... .. . ... : ... .. . F02 ...
ROW 11 : ... .. . ... ... ... : ... .. . ... ... ... : ... .. . ... ... : ... .. . ... : ... .. . F01 ...
ROW 12 : ... .. . ... ... ... : ... .. 1 ... ... ... : ... .. . P7F ... : ... .. . ... : ... .. . F02 ...
ROW 13 : ... .. . ... ... ... : ... .. 0 ... ... ... : --- .. . ... ... : ... .. . ... : ... .. . F03 ...
ROW 14 : F#4 0D 5 ... ... ... : F#5 0D A ... ... ... : D#4 01 . P80 ... : ... .. . ... : ... .. . F02 ...
ROW 15 : ... .. . ... ... ... : ... .. . ... ... ... : ... .. . ... ... : ... .. . ... : ... .. . F01 ...
ROW 16 : ... .. 1 ... ... ... : ... .. . ... ... ... : ... .. . P7F ... : ... .. . ... : ... .. . F02 ...
ROW 17 : ... .. 0 ... ... ... : ... .. 1 ... ... ... : --- .. . ... ... : ... .. . ... : ... .. . F03 ...
ROW 18 : F#5 0D 5 ... ... ... : ... .. 0 ... ... ... : F#4 01 . P80 ... : ... .. . ... : ... .. . F02 ...
ROW 19 : ... .. . ... ... ... : ... .. . ... ... ... : ... .. . ... ... : ... .. . ... : ... .. . F01 ...
ROW 1A : ... .. . ... ... ... : ... .. . ... ... ... : ... .. . P7F ... : ... .. . ... : ... .. . F02 ...
ROW 1B : ... .. 1 ... ... ... : ... .. . ... ... ... : --- .. . ... ... : ... .. . ... : ... .. . F03 ...
ROW 1C : ... .. 0 ... ... ... : F-6 0D A ... ... ... : C-3 01 . P80 ... : ... .. . ... : ... .. . F02 ...
ROW 1D : ... .. . ... ... ... : ... .. . ... ... ... : ... .. . ... ... : ... .. . ... : ... .. . F01 ...
ROW 1E : ... .. . ... ... ... : ... .. 1 ... ... ... : ... .. . P7F ... : ... .. . ... : ... .. . F02 ...
ROW 1F : ... .. . ... ... ... : ... .. 0 ... ... ... : --- 01 . ... ... : ... .. . ... : ... .. . F03 ...
ROW 20 : F-6 0D 5 ... ... ... : F-5 0D A ... ... ... : A#3 01 . P80 ... : ... .. . ... : ... .. . F02 ...
ROW 21 : ... .. . ... ... ... : ... .. . ... ... ... : ... .. . ... ... : ... .. . ... : ... .. . F01 ...
ROW 22 : ... .. 1 ... ... ... : ... .. . ... ... ... : ... .. . P7F ... : ... .. . ... : ... .. . F02 ...
ROW 23 : ... .. 0 ... ... ... : ... .. 1 ... ... ... : --- .. . ... ... : ... .. . ... : ... .. . F03 ...
ROW 24 : F-5 0D 5 ... ... ... : ... .. 0 ... ... ... : D#4 01 . P80 ... : ... .. . ... : ... .. . F02 ...
ROW 25 : ... .. . ... ... ... : ... .. . ... ... ... : ... .. . ... ... : ... .. . ... : ... .. . F01 ...
ROW 26 : ... .. . ... ... ... : ... .. . ... ... ... : ... .. . P7F ... : ... .. . ... : ... .. . F02 ...
ROW 27 : ... .. 1 ... ... ... : ... .. . ... ... ... : --- .. . ... ... : ... .. . ... : ... .. . F03 ...
ROW 28 : ... .. 0 ... ... ... : F#4 0D A ... ... ... : A#3 01 . P80 ... : ... .. . ... : ... .. . F02 ...
ROW 29 : ... .. . ... ... ... : ... .. . ... ... ... : ... .. . ... ... : ... .. . ... : ... .. . F01 ...
ROW 2A : ... .. . ... ... ... : ... .. 1 ... ... ... : ... .. . P7F ... : ... .. . ... : ... .. . F02 ...
ROW 2B : ... .. . ... ... ... : ... .. 0 ... ... ... : --- .. . ... ... : ... .. . ... : ... .. . F03 ...
ROW 2C : F#4 0D 5 ... ... ... : F#5 0D A ... ... ... : D#4 01 . P80 ... : ... .. . ... : ... .. . F02 ...
ROW 2D : ... .. . ... ... ... : ... .. . ... ... ... : ... .. . ... ... : ... .. . ... : ... .. . F01 ...
ROW 2E : ... .. 1 ... ... ... : ... .. . ... ... ... : ... .. . P7F ... : ... .. . ... : ... .. . F02 ...
ROW 2F : ... .. 0 ... ... ... : ... .. 1 ... ... ... : --- .. . ... ... : ... .. . ... : ... .. . F03 ...
ROW 30 : F#5 0D 5 ... ... ... : ... .. 0 ... ... ... : F#4 01 . P80 ... : ... .. . ... : ... .. . F02 ...
ROW 31 : ... .. . ... ... ... : ... .. . ... ... ... : ... .. . ... ... : ... .. . ... : ... .. . F01 ...
ROW 32 : ... .. . ... ... ... : ... .. . ... ... ... : ... .. . P7F ... : ... .. . ... : ... .. . F02 ...
ROW 33 : ... .. 1 ... ... ... : ... .. . ... ... ... : --- .. . ... ... : ... .. . ... : ... .. . F03 ...
ROW 34 : ... .. 0 ... ... ... : D#4 0D A ... ... ... : F-4 01 . P80 ... : ... .. . ... : ... .. . F02 ...
ROW 35 : ... .. . ... ... ... : ... .. . ... ... ... : ... .. . ... ... : ... .. . ... : ... .. . F01 ...
ROW 36 : ... .. . ... ... ... : ... .. 1 ... ... ... : ... .. . P7F ... : ... .. . ... : ... .. . F02 ...
ROW 37 : ... .. . ... ... ... : ... .. 0 ... ... ... : --- .. . ... ... : ... .. . ... : ... .. . F03 ...
ROW 38 : D#4 0D 5 ... ... ... : F#3 0D A ... ... ... : D#4 01 . P80 ... : ... .. . ... : ... .. . F02 ...
ROW 39 : ... .. . ... ... ... : ... .. . ... ... ... : ... .. . ... ... : ... .. . ... : ... .. . F01 ...
ROW 3A : ... .. 1 ... ... ... : ... .. . ... ... ... : ... .. . P7F ... : ... .. . ... : ... .. . F02 ...
ROW 3B : ... .. 0 ... ... ... : ... .. 1 ... ... ... : --- .. . ... ... : ... .. . ... : ... .. . F03 ...
ROW 3C : F#3 0D 5 ... ... ... : ... .. 0 ... ... ... : C-4 01 . P80 ... : ... .. . ... : ... .. . F02 ...
ROW 3D : ... .. . ... ... ... : ... .. . ... ... ... : ... .. . ... ... : ... .. . ... : ... .. . F01 ...
ROW 3E : ... .. . ... ... ... : ... .. . ... ... ... : ... .. . P7F ... : ... .. . ... : ... .. . F02 ...
ROW 3F : ... .. 1 ... ... ... : ... .. . ... ... ... : --- .. . ... ... : ... .. . ... : ... .. . F03 ...
ROW 40 : ... .. 0 ... ... ... : ... .. . ... ... ... : F-3 01 . P80 ... : ... .. . ... : ... .. . F02 ...
ROW 41 : ... .. . ... ... ... : ... .. . ... ... ... : ... .. . ... ... : ... .. . ... : ... .. . F01 ...
ROW 42 : ... .. . ... ... ... : ... .. . ... ... ... : ... .. . P7F ... : ... .. . ... : ... .. . F02 ...
ROW 43 : ... .. . ... ... ... : ... .. . ... ... ... : --- .. . ... ... : ... .. . ... : ... .. . F03 ...
ROW 44 : ... .. . ... ... ... : F#6 0D A ... ... ... : A#3 01 . P80 ... : ... .. . ... : ... .. . F02 ...
ROW 45 : ... .. . ... ... ... : ... .. . ... ... ... : ... .. . ... ... : ... .. . ... : ... .. . F01 ...
ROW 46 : ... .. . ... ... ... : ... .. 1 ... ... ... : ... .. . P7F ... : ... .. . ... : ... .. . F02 ...
ROW 47 : ... .. . ... ... ... : ... .. 0 ... ... ... : --- .. . ... ... : ... .. . ... : ... .. . F03 ...
ROW 48 : F#6 0D 5 ... ... ... : F#5 0D A ... ... ... : D#4 01 . P80 ... : ... .. . ... : ... .. . F02 ...
ROW 49 : ... .. . ... ... ... : ... .. . ... ... ... : ... .. . ... ... : ... .. . ... : ... .. . F01 ...
ROW 4A : ... .. 1 ... ... ... : ... .. . ... ... ... : ... .. . P7F ... : ... .. . ... : ... .. . F02 ...
ROW 4B : ... .. 0 ... ... ... : ... .. 1 ... ... ... : --- .. . ... ... : ... .. . ... : ... .. . F03 ...
ROW 4C : F#5 0D 5 ... ... ... : ... .. 0 ... ... ... : A#4 01 . P80 ... : ... .. . ... : ... .. . F02 ...
ROW 4D : ... .. . ... ... ... : ... .. . ... ... ... : ... .. . ... ... : ... .. . ... : ... .. . F01 ...
ROW 4E : ... .. . ... ... ... : ... .. . ... ... ... : ... .. . P7F ... : ... .. . ... : ... .. . F02 ...
ROW 4F : ... .. 1 ... ... ... : ... .. . ... ... ... : --- .. . ... ... : ... .. . ... : ... .. . F03 ...
ROW 50 : ... .. 0 ... ... ... : F-4 0D A ... ... ... : F#4 01 . P80 ... : ... .. . ... : ... .. . F02 ...
ROW 51 : ... .. . ... ... ... : ... .. . ... ... ... : ... .. . ... ... : ... .. . ... : ... .. . F01 ...
ROW 52 : ... .. . ... ... ... : ... .. 1 ... ... ... : ... .. . P7F ... : ... .. . ... : ... .. . F02 ...
ROW 53 : ... .. . ... ... ... : ... .. 0 ... ... ... : --- .. . ... ... : ... .. . ... : ... .. . F03 ...
ROW 54 : F-4 0D 5 ... ... ... : F-5 0D A ... ... ... : A#3 01 . P80 ... : ... .. . ... : ... .. . F02 ...
ROW 55 : ... .. . ... ... ... : ... .. . ... ... ... : ... .. . ... ... : ... .. . ... : ... .. . F01 ...
ROW 56 : ... .. 1 ... ... ... : ... .. . ... ... ... : ... .. . P7F ... : ... .. . ... : ... .. . F02 ...
ROW 57 : ... .. 0 ... ... ... : ... .. 1 ... ... ... : --- .. . ... ... : ... .. . ... : ... .. . F03 ...
ROW 58 : F-5 0D 5 ... ... ... : ... .. 0 ... ... ... : D#4 01 . P80 ... : ... .. . ... : ... .. . F02 ...
ROW 59 : ... .. . ... ... ... : ... .. . ... ... ... : ... .. . ... ... : ... .. . ... : ... .. . F01 ...
ROW 5A : ... .. . ... ... ... : ... .. . ... ... ... : ... .. . P7F ... : ... .. . ... : ... .. . F02 ...
ROW 5B : ... .. 1 ... ... ... : ... .. . ... ... ... : --- .. . ... ... : ... .. . ... : ... .. . F03 ...
ROW 5C : ... .. 0 ... ... ... : G#6 0D A ... ... ... : F-3 01 . P80 ... : ... .. . ... : ... .. . F02 ...
ROW 5D : ... .. . ... ... ... : ... .. . ... ... ... : ... .. . ... ... : ... .. . ... : ... .. . F01 ...
ROW 5E : ... .. . ... ... ... : ... .. 1 ... ... ... : ... .. . P7F ... : ... .. . ... : ... .. . F02 ...
ROW 5F : ... .. . ... ... ... : ... .. 0 ... ... ... : --- .. . ... ... : ... .. . ... : ... .. . F03 ...
ROW 60 : G#6 0D 5 ... ... ... : G#5 0D A ... ... ... : D#4 01 . P80 ... : ... .. . ... : ... .. . F02 ...
ROW 61 : ... .. . ... ... ... : ... .. . ... ... ... : ... .. . ... ... : ... .. . ... : ... .. . F01 ...
ROW 62 : ... .. 1 ... ... ... : ... .. . ... ... ... : ... .. . P7F ... : ... .. . ... : ... .. . F02 ...
ROW 63 : ... .. 0 ... ... ... : ... .. 1 ... ... ... : --- .. . ... ... : ... .. . ... : ... .. . F03 ...
ROW 64 : G#5 0D 5 ... ... ... : ... .. 0 ... ... ... : A-4 01 . P80 ... : ... .. . ... : ... .. . F02 ...
ROW 65 : ... .. . ... ... ... : ... .. . ... ... ... : ... .. . ... ... : ... .. . ... : ... .. . F01 ...
ROW 66 : ... .. . ... ... ... : ... .. . ... ... ... : ... .. . P7F ... : ... .. . ... : ... .. . F02 ...
ROW 67 : ... .. 1 ... ... ... : ... .. . ... ... ... : --- .. . ... ... : ... .. . ... : ... .. . F03 ...
ROW 68 : ... .. 0 ... ... ... : F#4 0D A ... ... ... : C#5 01 . P80 ... : ... .. . ... : ... .. . F02 ...
ROW 69 : ... .. . ... ... ... : ... .. . ... ... ... : ... .. . ... ... : ... .. . ... : ... .. . F01 ...
ROW 6A : ... .. . ... ... ... : ... .. 1 ... ... ... : ... .. . P7F ... : ... .. . ... : ... .. . F02 ...
ROW 6B : ... .. . ... ... ... : ... .. 0 ... ... ... : --- .. . ... ... : ... .. . ... : ... .. . F03 ...
ROW 6C : F#4 0D 5 ... ... ... : F#5 0D A ... ... ... : C-5 01 . P80 ... : ... .. . ... : ... .. . F02 ...
ROW 6D : ... .. . ... ... ... : ... .. . ... ... ... : ... .. . ... ... : ... .. . ... : ... .. . F01 ...
ROW 6E : ... .. 1 ... ... ... : ... .. . ... ... ... : ... .. . P7F ... : ... .. . ... : ... .. . F02 ...
ROW 6F : ... .. 0 ... ... ... : ... .. 1 ... ... ... : --- .. . ... ... : ... .. . ... : ... .. . F03 ...
ROW 70 : F#5 0D 5 ... ... ... : ... .. . ... ... ... : B-4 01 . P80 ... : ... .. . ... : ... .. . F02 ...
ROW 71 : ... .. . ... ... ... : C-4 01 1 P80 V02 ... : ... .. . ... ... : ... .. . ... : ... .. . F01 ...
ROW 72 : ... .. . ... ... ... : ... .. . ... ... ... : ... .. . P7F ... : ... .. . ... : ... .. . F02 ...
ROW 73 : C-4 01 1 P80 V02 ... : ... .. . P7F ... ... : --- .. . ... ... : ... .. . ... : ... .. . F03 ...
ROW 74 : ... .. . ... ... ... : --- .. . ... ... ... : D#4 01 . P80 ... : ... .. . ... : ... .. . F02 ...
ROW 75 : ... .. . P7E ... ... : B-3 01 . P80 ... ... : ... .. . ... ... : ... .. . ... : ... .. . F01 ...
ROW 76 : --- .. . ... ... ... : ... .. . ... ... ... : ... .. . P7F ... : ... .. . ... : ... .. . F02 ...
ROW 77 : B-3 01 . P80 ... ... : ... .. . P7F ... ... : --- .. . ... ... : ... .. . ... : ... .. . F03 ...
ROW 78 : ... .. . ... ... ... : --- .. . ... ... ... : A-3 01 . P80 ... : ... .. . ... : ... .. . F02 ...
ROW 79 : ... .. . P7E ... ... : D#3 01 . P80 ... ... : ... .. . ... ... : ... .. . ... : ... .. . F01 ...
ROW 7A : --- .. . ... ... ... : ... .. . ... ... ... : ... .. . P7F ... : ... .. . ... : ... .. . F02 ...
ROW 7B : D#3 01 . P80 ... ... : ... .. . P7F ... ... : --- .. . ... ... : ... .. . ... : ... .. . F03 ...
ROW 7C : ... .. . ... ... ... : --- .. . ... ... ... : F-3 01 . P80 ... : ... .. . ... : ... .. . F02 ...
ROW 7D : ... .. . P7E ... ... : A-2 01 . P80 ... ... : ... .. . ... ... : ... .. . ... : ... .. . F01 ...
ROW 7E : --- .. . ... ... ... : ... .. . ... ... ... : ... .. . P7F ... : ... .. . ... : ... .. . F02 ...
ROW 7F : A-2 01 . P80 ... ... : ... .. . P7F ... ... : --- .. . ... ... : ... .. . ... : ... .. . F03 ...

PATTERN 19
ROW 00 : ... .. 1 ... V02 ... : --- .. . ... ... ... : A#2 01 . P80 ... : ... .. . ... : ... .. . F02 ...
ROW 01 : ... .. . P7E ... ... : F-2 01 1 P80 V02 ... : ... .. . ... ... : ... .. . ... : ... .. . F01 ...
ROW 02 : --- .. . ... ... ... : ... .. . ... ... ... : ... .. . ... ... : ... .. . ... : ... .. . F02 ...
ROW 03 : F-2 01 . P80 ... ... : ... .. . P7F ... ... : ... .. . P7F ... : ... .. . ... : ... .. . F03 ...
ROW 04 : ... .. . ... ... ... : G-6 0D A P80 ... ... : F-3 01 . P80 ... : ... .. . ... : ... .. . F02 ...
ROW 05 : ... .. . P7F ... ... : ... .. . ... ... ... : ... .. . ... ... : ... .. . ... : ... .. . F01 ...
ROW 06 : --- .. . ... ... ... : ... .. 1 ... ... ... : ... .. . ... ... : ... .. . ... : ... .. . F02 ...
ROW 07 : A#1 01 . P80 ... ... : ... .. 0 ... ... ... : ... .. . P7F ... : ... .. . ... : ... .. . F03 ...
ROW 08 : G-6 0D 5 ... ... ... : G-5 0D A ... ... ... : A-3 01 . P80 ... : ... .. . ... : ... .. . F02 ...
ROW 09 : ... .. . ... ... ... : ... .. . ... ... ... : ... .. . ... ... : ... .. . ... : ... .. . F01 ...
ROW 0A : ... .. 1 ... ... ... : ... .. . ... ... ... : ... .. . ... ... : ... .. . ... : ... .. . F02 ...
ROW 0B : ... .. 0 ... ... ... : ... .. 1 ... ... ... : ... .. . P7F ... : ... .. . ... : ... .. . F03 ...
ROW 0C : G-5 0D 5 ... ... ... : ... .. 0 ... ... ... : D-4 01 . P80 ... : ... .. . ... : ... .. . F02 ...
ROW 0D : ... .. . ... ... ... : ... .. . ... ... ... : ... .. . ... ... : ... .. . ... : ... .. . F01 ...
ROW 0E : ... .. . ... ... ... : ... .. . ... ... ... : ... .. . ... ... : ... .. . ... : ... .. . F02 ...
ROW 0F : ... .. 1 ... ... ... : ... .. . ... ... ... : ... .. . P7F ... : ... .. . ... : ... .. . F03 ...
ROW 10 : ... .. 0 ... ... ... : F-4 0D A ... ... ... : F-4 01 . P80 ... : ... .. . ... : ... .. . F02 ...
ROW 11 : ... .. . ... ... ... : ... .. . ... ... ... : ... .. . ... ... : ... .. . ... : ... .. . F01 ...
ROW 12 : ... .. . ... ... ... : ... .. 1 ... ... ... : ... .. . ... ... : ... .. . ... : ... .. . F02 ...
ROW 13 : ... .. . ... ... ... : ... .. 0 ... ... ... : ... .. . P7F ... : ... .. . ... : ... .. . F03 ...
ROW 14 : F-4 0D 5 ... ... ... : F-5 0D A ... ... ... : A-3 01 . P80 ... : ... .. . ... : ... .. . F02 ...
ROW 15 : ... .. . ... ... ... : ... .. . ... ... ... : ... .. . ... ... : ... .. . ... : ... .. . F01 ...
ROW 16 : ... .. 1 ... ... ... : ... .. . ... ... ... : ... .. . ... ... : ... .. . ... : ... .. . F02 ...
ROW 17 : ... .. 0 ... ... ... : ... .. 1 ... ... ... : ... .. . P7F ... : ... .. . ... : ... .. . F03 ...
ROW 18 : F-5 0D 5 ... ... ... : ... .. 0 ... ... ... : D-4 01 . P80 ... : ... .. . ... : ... .. . F02 ...
ROW 19 : ... .. . ... ... ... : ... .. . ... ... ... : ... .. . ... ... : ... .. . ... : ... .. . F01 ...
ROW 1A : ... .. . ... ... ... : ... .. . ... ... ... : ... .. . ... ... : ... .. . ... : ... .. . F02 ...
ROW 1B : ... .. 1 ... ... ... : ... .. . ... ... ... : ... .. . P7F ... : ... .. . ... : ... .. . F03 ...
ROW 1C : ... .. 0 ... ... ... : E-6 0D A ... ... ... : F-4 01 . P80 ... : ... .. . ... : ... .. . F02 ...
ROW 1D : ... .. . ... ... ... : ... .. . ... ... ... : ... .. . ... ... : ... .. . ... : ... .. . F01 ...
ROW 1E : ... .. . ... ... ... : ... .. 1 ... ... ... : ... .. . ... ... : ... .. . ... : ... .. . F02 ...
ROW 1F : ... .. . ... ... ... : ... .. 0 ... ... ... : ... .. . P7F ... : ... .. . ... : ... .. . F03 ...
ROW 20 : E-6 0D 5 ... ... ... : E-5 0D A ... ... ... : A-4 01 . P80 ... : ... .. . ... : ... .. . F02 ...
ROW 21 : ... .. . ... ... ... : ... .. . ... ... ... : ... .. . ... ... : ... .. . ... : ... .. . F01 ...
ROW 22 : ... .. 1 ... ... ... : ... .. . ... ... ... : ... .. . ... ... : ... .. . ... : ... .. . F02 ...
ROW 23 : ... .. 0 ... ... ... : ... .. 1 ... ... ... : ... .. . P7F ... : ... .. . ... : ... .. . F03 ...
ROW 24 : E-5 0D 5 ... ... ... : ... .. 0 ... ... ... : D-5 01 . P80 ... : ... .. . ... : ... .. . F02 ...
ROW 25 : ... .. . ... ... ... : ... .. . ... ... ... : ... .. . ... ... : ... .. . ... : ... .. . F01 ...
ROW 26 : ... .. . ... ... ... : ... .. . ... ... ... : ... .. . ... ... : ... .. . ... : ... .. . F02 ...
ROW 27 : ... .. 1 ... ... ... : ... .. . ... ... ... : ... .. . ... ... : ... .. . ... : ... .. . F03 ...
ROW 28 : ... .. 0 ... ... ... : F-4 0D A ... ... ... : ... .. . ... ... : ... .. . ... : ... .. . F02 ...
ROW 29 : ... .. . ... ... ... : ... .. . ... ... ... : ... .. . ... ... : ... .. . ... : ... .. . F01 ...
ROW 2A : ... .. . ... ... ... : ... .. 1 ... ... ... : ... .. . P7F ... : ... .. . ... : ... .. . F02 ...
ROW 2B : ... .. . ... ... ... : ... .. 0 ... ... ... : --- .. . ... ... : ... .. . ... : ... .. . F03 ...
ROW 2C : F-4 0D 5 ... ... ... : F-5 0D A ... ... ... : D-4 01 . P80 ... : ... .. . ... : ... .. . F02 ...
ROW 2D : ... .. . ... ... ... : ... .. . ... ... ... : ... .. . ... ... : ... .. . ... : ... .. . F01 ...
ROW 2E : ... .. 1 ... ... ... : ... .. . ... ... ... : ... .. . ... ... : ... .. . ... : ... .. . F02 ...
ROW 2F : ... .. 0 ... ... ... : ... .. 1 ... ... ... : ... .. . P7F ... : ... .. . ... : ... .. . F03 ...
ROW 30 : F-5 0D 5 ... ... ... : ... .. 0 ... ... ... : C#4 01 . P80 ... : ... .. . ... : ... .. . F02 ...
ROW 31 : ... .. . ... ... ... : ... .. . ... ... ... : ... .. . ... ... : ... .. . ... : ... .. . F01 ...
ROW 32 : ... .. . ... ... ... : ... .. . ... ... ... : ... .. . P7F ... : ... .. . ... : ... .. . F02 ...
ROW 33 : ... .. 1 ... ... ... : ... .. . ... ... ... : --- .. . ... ... : ... .. . ... : ... .. . F03 ...
ROW 34 : ... .. 0 ... ... ... : ... .. . ... ... ... : C-4 01 . P80 ... : ... .. . ... : ... .. . F02 ...
ROW 35 : ... .. . ... ... ... : ... .. . ... ... ... : ... .. . ... ... : ... .. . ... : ... .. . F01 ...
ROW 36 : ... .. . ... ... ... : ... .. . ... ... ... : ... .. . P7F ... : ... .. . ... : ... .. . F02 ...
ROW 37 : ... .. . ... ... ... : ... .. . ... ... ... : --- .. . ... ... : ... .. . ... : ... .. . F03 ...
ROW 38 : G#4 0C F ... V02 ... : ... .. . ... ... ... : B-3 01 . P80 ... : ... .. . ... : ... .. . F02 ...
ROW 39 : ... .. . ... ... ... : ... .. . ... ... ... : ... .. . ... ... : ... .. . ... : ... .. . F01 ...
ROW 3A : G-4 0C 5 G06 ... ... : ... .. . ... ... ... : ... .. . ... ... : ... .. . ... : ... .. . F02 ...
ROW 3B : ... .. . ... ... ... : ... .. . ... ... ... : ... .. . P7F ... : ... .. . ... : ... .. . F03 ...
ROW 3C : ... .. . ... ... ... : G#4 0C C ... V01 ... : --- .. . ... ... : ... .. . ... : ... .. . F02 ...
ROW 3D : G#4 0C 5 G03 ... ... : ... .. . ... ... ... : ... .. . ... ... : ... .. . ... : ... .. . F01 ...
ROW 3E : ... .. . ... ... ... : G-4 0C 3 G06 ... ... : ... .. . ... ... : ... .. . ... : ... .. . F02 ...
ROW 3F : ... .. . ... ... ... : ... .. . ... ... ... : ... .. . ... ... : ... .. . ... : ... .. . F03 ...
ROW 40 : G-4 0C . ... ... ... : ... .. . ... ... ... : G-1 01 . P80 ... : ... .. . ... : ... .. . F02 ...
ROW 41 : ... .. . ... ... ... : G#4 0C . G03 ... ... : ... .. . ... ... : ... .. . ... : ... .. . F01 ...
ROW 42 : G#4 0C 6 G06 ... ... : ... .. . ... ... ... : ... .. . P7F ... : ... .. . ... : ... .. . F02 ...
ROW 43 : ... .. . ... ... ... : ... .. . ... ... ... : --- .. . ... ... : ... .. . ... : ... .. . F03 ...
ROW 44 : ... .. . ... ... ... : G-4 0C . ... ... ... : G-2 01 . P80 ... : ... .. . ... : ... .. . F02 ...
ROW 45 : G-4 0C . G03 ... ... : ... .. . ... ... ... : ... .. . ... ... : ... .. . ... : ... .. . F01 ...
ROW 46 : ... .. . ... ... ... : G#4 0C . G06 ... ... : ... .. . ... ... : ... .. . ... : ... .. . F02 ...
ROW 47 : ... .. . ... ... ... : ... .. . ... ... ... : ... .. . ... ... : ... .. . ... : ... .. . F03 ...
ROW 48 : G#4 0C 7 ... ... ... : ... .. . ... ... ... : ... .. . ... ... : ... .. . ... : ... .. . F02 ...
ROW 49 : ... .. . ... ... ... : G-4 0C . G03 ... ... : ... .. . ... ... : ... .. . ... : ... .. . F01 ...
ROW 4A : G-4 0C . G06 ... ... : ... .. . ... ... ... : ... .. . P7F ... : ... .. . ... : ... .. . F02 ...
ROW 4B : ... .. . ... ... ... : ... .. . ... ... ... : --- .. . ... ... : ... .. . ... : ... .. . F03 ...
ROW 4C : ... .. . ... ... ... : G#4 0C . ... ... ... : F-3 01 . P80 ... : ... .. . ... : ... .. . F02 ...
ROW 4D : G#4 0C 8 G03 ... ... : ... .. . ... ... ... : ... .. . ... ... : ... .. . ... : ... .. . F01 ...
ROW 4E : ... .. . ... ... ... : G-4 0C . G06 ... ... : ... .. . P7F ... : ... .. . ... : ... .. . F02 ...
ROW 4F : ... .. . ... ... ... : ... .. . ... ... ... : --- .. . ... ... : ... .. . ... : ... .. . F03 ...
ROW 50 : G-4 0C . ... ... ... : ... .. . ... ... ... : G#3 01 . P80 ... : ... .. . ... : ... .. . F02 ...
ROW 51 : ... .. . ... ... ... : G#4 0C . G03 ... ... : ... .. . ... ... : ... .. . ... : ... .. . F01 ...
ROW 52 : G#4 0C 9 G06 ... ... : ... .. . ... ... ... : ... .. . P7F ... : ... .. . ... : ... .. . F02 ...
ROW 53 : ... .. . ... ... ... : ... .. . ... ... ... : --- .. . ... ... : ... .. . ... : ... .. . F03 ...
ROW 54 : ... .. . ... ... ... : G-4 0C . ... ... ... : B-3 01 . P80 ... : ... .. . ... : ... .. . F02 ...
ROW 55 : G-4 0C . G03 ... ... : ... .. . ... ... ... : ... .. . ... ... : ... .. . ... : ... .. . F01 ...
ROW 56 : ... .. . ... ... ... : G#4 0C 4 G06 ... ... : ... .. . P7F ... : ... .. . ... : ... .. . F02 ...
ROW 57 : ... .. . ... ... ... : ... .. . ... ... ... : --- .. . ... ... : ... .. . ... : ... .. . F03 ...
ROW 58 : G#4 0C A ... ... ... : ... .. . ... ... ... : F-4 01 . P80 ... : ... .. . ... : ... .. . F02 ...
ROW 59 : ... .. . ... ... ... : G-4 0C . G03 ... ... : ... .. . ... ... : ... .. . ... : ... .. . F01 ...
ROW 5A : G-4 0C . G06 ... ... : ... .. . ... ... ... : ... .. . P7F ... : ... .. . ... : ... .. . F02 ...
ROW 5B : ... .. . ... ... ... : ... .. . ... ... ... : --- .. . ... ... : ... .. . ... : ... .. . F03 ...
ROW 5C : ... .. . ... ... ... : G#4 0C 5 ... ... ... : C#4 01 . P80 ... : ... .. . ... : ... .. . F02 ...
ROW 5D : G#4 0C B G03 ... ... : ... .. . ... ... ... : ... .. . ... ... : ... .. . ... : ... .. . F01 ...
ROW 5E : ... .. . ... ... ... : G-4 0C . G06 ... ... : ... .. . P7F ... : ... .. . ... : ... .. . F02 ...
ROW 5F : ... .. . ... ... ... : ... .. . ... ... ... : --- .. . ... ... : ... .. . ... : ... .. . F03 ...
ROW 60 : G-4 0C . ... ... ... : ... .. . ... ... ... : B-4 01 . P80 ... : ... .. . ... : ... .. . F02 ...
ROW 61 : ... .. . ... ... ... : G#4 0C 6 G03 ... ... : ... .. . ... ... : ... .. . ... : ... .. . F01 ...
ROW 62 : G#4 0C C G06 ... ... : ... .. . ... ... ... : ... .. . P7F ... : ... .. . ... : ... .. . F02 ...
ROW 63 : ... .. . ... ... ... : ... .. . ... ... ... : --- .. . ... ... : ... .. . ... : ... .. . F03 ...
ROW 64 : ... .. . ... ... ... : G-4 0C . ... ... ... : F-4 01 . P80 ... : ... .. . ... : ... .. . F02 ...
ROW 65 : G-4 0C . G03 ... ... : ... .. . ... ... ... : ... .. . ... ... : ... .. . ... : ... .. . F01 ...
ROW 66 : ... .. . ... ... ... : G#4 0C 7 G06 ... ... : ... .. . ... ... : ... .. . ... : ... .. . F02 ...
ROW 67 : ... .. . ... ... ... : ... .. . ... ... ... : ... .. . ... ... : ... .. . ... : ... .. . F03 ...
ROW 68 : G#4 0C D ... ... ... : ... .. . ... ... ... : ... .. . ... ... : ... .. . ... : ... .. . F02 ...
ROW 69 : ... .. . ... ... ... : G-4 0C . G03 ... ... : ... .. . ... ... : ... .. . ... : ... .. . F01 ...
ROW 6A : G-4 0C . G06 ... ... : ... .. . ... ... ... : ... .. . ... ... : ... .. . ... : ... .. . F02 ...
ROW 6B : ... .. . ... ... ... : ... .. . ... ... ... : ... .. . ... ... : ... .. . ... : ... .. . F03 ...
ROW 6C : ... .. . ... ... ... : G#4 0C 8 ... ... ... : ... .. . ... ... : ... .. . ... : ... .. . F02 ...
ROW 6D : G#4 0C E G03 ... ... : ... .. . ... ... ... : ... .. . ... ... : ... .. . ... : ... .. . F01 ...
ROW 6E : ... .. . ... ... ... : G-4 0C . G06 ... ... : ... .. . P7F ... : ... .. . ... : ... .. . F02 ...
ROW 6F : ... .. . ... ... ... : ... .. . ... ... ... : --- .. . ... ... : ... .. . ... : ... .. . F03 ...
ROW 70 : G-4 0C . ... ... ... : ... .. . ... ... ... : G-4 01 . P80 ... : ... .. . ... : ... .. . F02 ...
ROW 71 : ... .. . ... ... ... : G#4 0C 1 G03 ... ... : ... .. . ... ... : ... .. . ... : ... .. . F01 ...
ROW 72 : G#4 0C F G06 ... ... : ... .. . ... ... ... : ... .. . P7F ... : ... .. . ... : ... .. . F02 ...
ROW 73 : ... .. . ... ... ... : ... .. . ... ... ... : --- .. . ... ... : ... .. . ... : ... .. . F03 ...
ROW 74 : ... .. . ... ... ... : G-4 0C . ... ... ... : G-3 01 . P80 ... : ... .. . ... : ... .. . F02 ...
ROW 75 : G-4 0C . G03 ... ... : ... .. . ... ... ... : ... .. . ... ... : ... .. . ... : ... .. . F01 ...
ROW 76 : ... .. . ... ... ... : G#4 0C . G06 ... ... : ... .. . P7F ... : ... .. . ... : ... .. . F02 ...
ROW 77 : ... .. . ... ... ... : ... .. . ... ... ... : --- .. . ... ... : ... .. . ... : ... .. . F03 ...
ROW 78 : G#4 0C . ... ... ... : ... .. . ... ... ... : B-3 01 . P80 ... : ... .. . ... : ... .. . F02 ...
ROW 79 : ... .. . ... ... ... : G-4 0C . G03 ... ... : ... .. . ... ... : ... .. . ... : ... .. . F01 ...
ROW 7A : ... .. . ... ... ... : ... .. . ... ... ... : ... .. . P7F ... : ... .. . ... : ... .. . F02 ...
ROW 7B : ... .. . ... ... ... : ... .. . ... ... ... : --- .. . ... ... : ... .. . ... : ... .. . F03 ...
ROW 7C : ... .. 1 ... ... ... : G#4 0C . ... ... ... : C#3 01 . P80 ... : ... .. . ... : ... .. . F02 ...
ROW 7D : ... .. . ... ... ... : ... .. . ... ... ... : ... .. . ... ... : ... .. . ... : ... .. . F01 ...
ROW 7E : ... .. . ... ... ... : ... .. . ... ... ... : ... .. . P7F ... : ... .. . ... : ... .. . F02 ...
ROW 7F : ... .. . ... ... ... : ... .. . ... ... ... : --- .. . ... ... : ... .. . ... : ... .. . F03 ...

PATTERN 1A
ROW 00 : --- .. . ... ... ... : --- .. . ... ... ... : C-3 01 . P80 ... : ... .. . ... : ... .. . F02 ...
ROW 01 : ... .. . ... ... ... : ... .. . ... ... ... : ... .. . ... ... : ... .. . ... : ... .. . F01 ...
ROW 02 : ... .. . ... ... ... : ... .. . ... ... ... : ... .. . P7F ... : ... .. . ... : ... .. . F02 ...
ROW 03 : ... .. . ... ... ... : ... .. . ... ... ... : --- .. . ... ... : ... .. . ... : ... .. . F03 ...
ROW 04 : ... .. . ... ... ... : G#6 0D A ... ... ... : A#3 01 . P80 ... : ... .. . ... : ... .. . F02 ...
ROW 05 : ... .. . ... ... ... : ... .. . ... ... ... : ... .. . ... ... : ... .. . ... : ... .. . F01 ...
ROW 06 : ... .. . ... ... ... : ... .. 1 ... ... ... : ... .. . P7F ... : ... .. . ... : ... .. . F02 ...
ROW 07 : ... .. . ... ... ... : ... .. 0 ... ... ... : --- .. . ... ... : ... .. . ... : ... .. . F03 ...
ROW 08 : G#6 0D 5 ... ... ... : G#5 0D A ... ... ... : C-4 01 . P80 ... : ... .. . ... : ... .. . F02 ...
ROW 09 : ... .. . ... ... ... : ... .. . ... ... ... : ... .. . ... ... : ... .. . ... : ... .. . F01 ...
ROW 0A : ... .. 1 ... ... ... : ... .. . ... ... ... : ... .. . P7F ... : ... .. . ... : ... .. . F02 ...
ROW 0B : ... .. 0 ... ... ... : ... .. 1 ... ... ... : --- .. . ... ... : ... .. . ... : ... .. . F03 ...
ROW 0C : G#5 0D 5 ... ... ... : ... .. 0 ... ... ... : G#4 01 . P80 ... : ... .. . ... : ... .. . F02 ...
ROW 0D : ... .. . ... ... ... : ... .. . ... ... ... : ... .. . ... ... : ... .. . ... : ... .. . F01 ...
ROW 0E : ... .. . ... ... ... : ... .. . ... ... ... : ... .. . P7F ... : ... .. . ... : ... .. . F02 ...
ROW 0F : ... .. 1 ... ... ... : ... .. . ... ... ... : --- .. . ... ... : ... .. . ... : ... .. . F03 ...
ROW 10 : ... .. 0 ... ... ... : F#4 0D A ... ... ... : A#3 01 . P80 ... : ... .. . ... : ... .. . F02 ...
ROW 11 : ... .. . ... ... ... : ... .. . ... ... ... : ... .. . ... ... : ... .. . ... : ... .. . F01 ...
ROW 12 : ... .. . ... ... ... : ... .. 1 ... ... ... : ... .. . P7F ... : ... .. . ... : ... .. . F02 ...
ROW 13 : ... .. . ... ... ... : ... .. 0 ... ... ... : --- .. . ... ... : ... .. . ... : ... .. . F03 ...
ROW 14 : F#4 0D 5 ... ... ... : F#5 0D A ... ... ... : D#4 01 . P80 ... : ... .. . ... : ... .. . F02 ...
ROW 15 : ... .. . ... ... ... : ... .. . ... ... ... : ... .. . ... ... : ... .. . ... : ... .. . F01 ...
ROW 16 : ... .. 1 ... ... ... : ... .. . ... ... ... : ... .. . P7F ... : ... .. . ... : ... .. . F02 ...
ROW 17 : ... .. 0 ... ... ... : ... .. 1 ... ... ... : --- .. . ... ... : ... .. . ... : ... .. . F03 ...
ROW 18 : F#5 0D 5 ... ... ... : ... .. 0 ... ... ... : F#4 01 . P80 ... : ... .. . ... : ... .. . F02 ...
ROW 19 : ... .. . ... ... ... : ... .. . ... ... ... : ... .. . ... ... : ... .. . ... : ... .. . F01 ...
ROW 1A : ... .. . ... ... ... : ... .. . ... ... ... : ... .. . P7F ... : ... .. . ... : ... .. . F02 ...
ROW 1B : ... .. 1 ... ... ... : ... .. . ... ... ... : --- .. . ... ... : ... .. . ... : ... .. . F03 ...
ROW 1C : ... .. 0 ... ... ... : F-6 0D A ... ... ... : C-3 01 . P80 ... : ... .. . ... : ... .. . F02 ...
ROW 1D : ... .. . ... ... ... : ... .. . ... ... ... : ... .. . ... ... : ... .. . ... : ... .. . F01 ...
ROW 1E : ... .. . ... ... ... : ... .. 1 ... ... ... : ... .. . P7F ... : ... .. . ... : ... .. . F02 ...
ROW 1F : ... .. . ... ... ... : ... .. 0 ... ... ... : --- 01 . ... ... : ... .. . ... : ... .. . F03 ...
ROW 20 : F-6 0D 5 ... ... ... : F-5 0D A ... ... ... : A#3 01 . P80 ... : ... .. . ... : ... .. . F02 ...
ROW 21 : ... .. . ... ... ... : ... .. . ... ... ... : ... .. . ... ... : ... .. . ... : ... .. . F01 ...
ROW 22 : ... .. 1 ... ... ... : ... .. . ... ... ... : ... .. . P7F ... : ... .. . ... : ... .. . F02 ...
ROW 23 : ... .. 0 ... ... ... : ... .. 1 ... ... ... : --- .. . ... ... : ... .. . ... : ... .. . F03 ...
ROW 24 : F-5 0D 5 ... ... ... : ... .. 0 ... ... ... : D#4 01 . P80 ... : ... .. . ... : ... .. . F02 ...
ROW 25 : ... .. . ... ... ... : ... .. . ... ... ... : ... .. . ... ... : ... .. . ... : ... .. . F01 ...
ROW 26 : ... .. . ... ... ... : ... .. . ... ... ... : ... .. . P7F ... : ... .. . ... : ... .. . F02 ...
ROW 27 : ... .. 1 ... ... ... : ... .. . ... ... ... : --- .. . ... ... : ... .. . ... : ... .. . F03 ...
ROW 28 : ... .. 0 ... ... ... : F#4 0D A ... ... ... : A#3 01 . P80 ... : ... .. . ... : ... .. . F02 ...
ROW 29 : ... .. . ... ... ... : ... .. . ... ... ... : ... .. . ... ... : ... .. . ... : ... .. . F01 ...
ROW 2A : ... .. . ... ... ... : ... .. 1 ... ... ... : ... .. . P7F ... : ... .. . ... : ... .. . F02 ...
ROW 2B : ... .. . ... ... ... : ... .. 0 ... ... ... : --- .. . ... ... : ... .. . ... : ... .. . F03 ...
ROW 2C : F#4 0D 5 ... ... ... : F#5 0D A ... ... ... : D#4 01 . P80 ... : ... .. . ... : ... .. . F02 ...
ROW 2D : ... .. . ... ... ... : ... .. . ... ... ... : ... .. . ... ... : ... .. . ... : ... .. . F01 ...
ROW 2E : ... .. 1 ... ... ... : ... .. . ... ... ... : ... .. . P7F ... : ... .. . ... : ... .. . F02 ...
ROW 2F : ... .. 0 ... ... ... : ... .. 1 ... ... ... : --- .. . ... ... : ... .. . ... : ... .. . F03 ...
ROW 30 : F#5 0D 5 ... ... ... : ... .. 0 ... ... ... : F#4 01 . P80 ... : ... .. . ... : ... .. . F02 ...
ROW 31 : ... .. . ... ... ... : ... .. . ... ... ... : ... .. . ... ... : ... .. . ... : ... .. . F01 ...
ROW 32 : ... .. . ... ... ... : ... .. . ... ... ... : ... .. . P7F ... : ... .. . ... : ... .. . F02 ...
ROW 33 : ... .. 1 ... ... ... : ... .. . ... ... ... : --- .. . ... ... : ... .. . ... : ... .. . F03 ...
ROW 34 : ... .. 0 ... ... ... : D#4 0D A ... ... ... : F-4 01 . P80 ... : ... .. . ... : ... .. . F02 ...
ROW 35 : ... .. . ... ... ... : ... .. . ... ... ... : ... .. . ... ... : ... .. . ... : ... .. . F01 ...
ROW 36 : ... .. . ... ... ... : ... .. 1 ... ... ... : ... .. . P7F ... : ... .. . ... : ... .. . F02 ...
ROW 37 : ... .. . ... ... ... : ... .. 0 ... ... ... : --- .. . ... ... : ... .. . ... : ... .. . F03 ...
ROW 38 : D#4 0D 5 ... ... ... : F#3 0D A ... ... ... : D#4 01 . P80 ... : ... .. . ... : ... .. . F02 ...
ROW 39 : ... .. . ... ... ... : ... .. . ... ... ... : ... .. . ... ... : ... .. . ... : ... .. . F01 ...
ROW 3A : ... .. 1 ... ... ... : ... .. . ... ... ... : ... .. . P7F ... : ... .. . ... : ... .. . F02 ...
ROW 3B : ... .. 0 ... ... ... : ... .. 1 ... ... ... : --- .. . ... ... : ... .. . ... : ... .. . F03 ...
ROW 3C : F#3 0D 5 ... ... ... : ... .. 0 ... ... ... : C-4 01 . P80 ... : ... .. . ... : ... .. . F02 ...
ROW 3D : ... .. . ... ... ... : ... .. . ... ... ... : ... .. . ... ... : ... .. . ... : ... .. . F01 ...
ROW 3E : ... .. . ... ... ... : ... .. . ... ... ... : ... .. . P7F ... : ... .. . ... : ... .. . F02 ...
ROW 3F : ... .. 1 ... ... ... : ... .. . ... ... ... : --- .. . ... ... : ... .. . ... : ... .. . F03 ...
ROW 40 : ... .. 0 ... ... ... : ... .. . ... ... ... : F-3 01 . P80 ... : ... .. . ... : ... .. . F02 ...
ROW 41 : ... .. . ... ... ... : ... .. . ... ... ... : ... .. . ... ... : ... .. . ... : ... .. . F01 ...
ROW 42 : ... .. . ... ... ... : ... .. . ... ... ... : ... .. . P7F ... : ... .. . ... : ... .. . F02 ...
ROW 43 : ... .. . ... ... ... : ... .. . ... ... ... : --- .. . ... ... : ... .. . ... : ... .. . F03 ...
ROW 44 : ... .. . ... ... ... : F#6 0D A ... ... ... : A#3 01 . P80 ... : ... .. . ... : ... .. . F02 ...
ROW 45 : ... .. . ... ... ... : ... .. . ... ... ... : ... .. . ... ... : ... .. . ... : ... .. . F01 ...
ROW 46 : ... .. . ... ... ... : ... .. 1 ... ... ... : ... .. . P7F ... : ... .. . ... : ... .. . F02 ...
ROW 47 : ... .. . ... ... ... : ... .. 0 ... ... ... : --- .. . ... ... : ... .. . ... : ... .. . F03 ...
ROW 48 : F#6 0D 5 ... ... ... : F#5 0D A ... ... ... : D#4 01 . P80 ... : ... .. . ... : ... .. . F02 ...
ROW 49 : ... .. . ... ... ... : ... .. . ... ... ... : ... .. . ... ... : ... .. . ... : ... .. . F01 ...
ROW 4A : ... .. 1 ... ... ... : ... .. . ... ... ... : ... .. . P7F ... : ... .. . ... : ... .. . F02 ...
ROW 4B : ... .. 0 ... ... ... : ... .. 1 ... ... ... : --- .. . ... ... : ... .. . ... : ... .. . F03 ...
ROW 4C : F#5 0D 5 ... ... ... : ... .. 0 ... ... ... : A#4 01 . P80 ... : ... .. . ... : ... .. . F02 ...
ROW 4D : ... .. . ... ... ... : ... .. . ... ... ... : ... .. . ... ... : ... .. . ... : ... .. . F01 ...
ROW 4E : ... .. . ... ... ... : ... .. . ... ... ... : ... .. . P7F ... : ... .. . ... : ... .. . F02 ...
ROW 4F : ... .. 1 ... ... ... : ... .. . ... ... ... : --- .. . ... ... : ... .. . ... : ... .. . F03 ...
ROW 50 : ... .. 0 ... ... ... : F-4 0D A ... ... ... : F#4 01 . P80 ... : ... .. . ... : ... .. . F02 ...
ROW 51 : ... .. . ... ... ... : ... .. . ... ... ... : ... .. . ... ... : ... .. . ... : ... .. . F01 ...
ROW 52 : ... .. . ... ... ... : ... .. 1 ... ... ... : ... .. . P7F ... : ... .. . ... : ... .. . F02 ...
ROW 53 : ... .. . ... ... ... : ... .. 0 ... ... ... : --- .. . ... ... : ... .. . ... : ... .. . F03 ...
ROW 54 : F-4 0D 5 ... ... ... : F-5 0D A ... ... ... : A#3 01 . P80 ... : ... .. . ... : ... .. . F02 ...
ROW 55 : ... .. . ... ... ... : ... .. . ... ... ... : ... .. . ... ... : ... .. . ... : ... .. . F01 ...
ROW 56 : ... .. 1 ... ... ... : ... .. . ... ... ... : ... .. . P7F ... : ... .. . ... : ... .. . F02 ...
ROW 57 : ... .. 0 ... ... ... : ... .. 1 ... ... ... : --- .. . ... ... : ... .. . ... : ... .. . F03 ...
ROW 58 : F-5 0D 5 ... ... ... : ... .. 0 ... ... ... : D#4 01 . P80 ... : ... .. . ... : ... .. . F02 ...
ROW 59 : ... .. . ... ... ... : ... .. . ... ... ... : ... .. . ... ... : ... .. . ... : ... .. . F01 ...
ROW 5A : ... .. . ... ... ... : ... .. . ... ... ... : ... .. . P7F ... : ... .. . ... : ... .. . F02 ...
ROW 5B : ... .. 1 ... ... ... : ... .. . ... ... ... : --- .. . ... ... : ... .. . ... : ... .. . F03 ...
ROW 5C : ... .. 0 ... ... ... : G#6 0D A ... ... ... : F-3 01 . P80 ... : ... .. . ... : ... .. . F02 ...
ROW 5D : ... .. . ... ... ... : ... .. . ... ... ... : ... .. . ... ... : ... .. . ... : ... .. . F01 ...
ROW 5E : ... .. . ... ... ... : ... .. 1 ... ... ... : ... .. . P7F ... : ... .. . ... : ... .. . F02 ...
ROW 5F : ... .. . ... ... ... : ... .. 0 ... ... ... : --- .. . ... ... : ... .. . ... : ... .. . F03 ...
ROW 60 : G#6 0D 5 ... ... ... : G#5 0D A ... ... ... : D#4 01 . P80 ... : ... .. . ... : ... .. . F02 ...
ROW 61 : ... .. . ... ... ... : ... .. . ... ... ... : ... .. . ... ... : ... .. . ... : ... .. . F01 ...
ROW 62 : ... .. 1 ... ... ... : ... .. . ... ... ... : ... .. . P7F ... : ... .. . ... : ... .. . F02 ...
ROW 63 : ... .. 0 ... ... ... : ... .. 1 ... ... ... : --- .. . ... ... : ... .. . ... : ... .. . F03 ...
ROW 64 : G#5 0D 5 ... ... ... : ... .. 0 ... ... ... : A-4 01 . P80 ... : ... .. . ... : ... .. . F02 ...
ROW 65 : ... .. . ... ... ... : ... .. . ... ... ... : ... .. . ... ... : ... .. . ... : ... .. . F01 ...
ROW 66 : ... .. . ... ... ... : ... .. . ... ... ... : ... .. . P7F ... : ... .. . ... : ... .. . F02 ...
ROW 67 : ... .. 1 ... ... ... : ... .. . ... ... ... : --- .. . ... ... : ... .. . ... : ... .. . F03 ...
ROW 68 : ... .. 0 ... ... ... : F#4 0D A ... ... ... : C#5 01 . P80 ... : ... .. . ... : ... .. . F02 ...
ROW 69 : ... .. . ... ... ... : ... .. . ... ... ... : ... .. . ... ... : ... .. . ... : ... .. . F01 ...
ROW 6A : ... .. . ... ... ... : ... .. 1 ... ... ... : ... .. . P7F ... : ... .. . ... : ... .. . F02 ...
ROW 6B : ... .. . ... ... ... : ... .. 0 ... ... ... : --- .. . ... ... : ... .. . ... : ... .. . F03 ...
ROW 6C : F#4 0D 5 ... ... ... : F#5 0D A ... ... ... : C-5 01 . P80 ... : ... .. . ... : ... .. . F02 ...
ROW 6D : ... .. . ... ... ... : ... .. . ... ... ... : ... .. . ... ... : ... .. . ... : ... .. . F01 ...
ROW 6E : ... .. 1 ... ... ... : ... .. . ... ... ... : ... .. . P7F ... : ... .. . ... : ... .. . F02 ...
ROW 6F : ... .. 0 ... ... ... : ... .. . ... ... ... : --- .. . ... ... : ... .. . ... : ... .. . F03 ...
ROW 70 : F#5 0D 5 ... ... ... : --- .. . ... ... ... : B-4 01 . P80 ... : ... .. . ... : ... .. . F02 ...
ROW 71 : ... .. . ... ... ... : C-4 01 1 P80 V02 ... : ... .. . ... ... : ... .. . ... : ... .. . F01 ...
ROW 72 : ... .. . ... ... ... : ... .. . ... ... ... : ... .. . P7F ... : ... .. . ... : ... .. . F02 ...
ROW 73 : ... .. . ... ... ... : ... .. . P7F ... ... : --- .. . ... ... : ... .. . ... : ... .. . F03 ...
ROW 74 : --- .. . ... ... ... : --- .. . ... ... ... : D#4 01 . P80 ... : ... .. . ... : ... .. . F02 ...
ROW 75 : C-4 01 1 P80 V02 ... : B-3 01 . P80 ... ... : ... .. . ... ... : ... .. . ... : ... .. . F01 ...
ROW 76 : ... .. . ... ... ... : ... .. . ... ... ... : ... .. . P7F ... : ... .. . ... : ... .. . F02 ...
ROW 77 : ... .. . P7F ... ... : ... .. . P7F ... ... : --- .. . ... ... : ... .. . ... : ... .. . F03 ...
ROW 78 : --- .. . ... ... ... : --- .. . ... ... ... : A-3 01 . P80 ... : ... .. . ... : ... .. . F02 ...
ROW 79 : B-3 01 . P80 ... ... : D#3 01 . P80 ... ... : ... .. . ... ... : ... .. . ... : ... .. . F01 ...
ROW 7A : ... .. . ... ... ... : ... .. . ... ... ... : ... .. . P7F ... : ... .. . ... : ... .. . F02 ...
ROW 7B : ... .. . P7F ... ... : ... .. . P7F ... ... : --- .. . ... ... : ... .. . ... : ... .. . F03 ...
ROW 7C : --- .. . ... ... ... : --- .. . ... ... ... : F-3 01 . P80 ... : ... .. . ... : ... .. . F02 ...
ROW 7D : D#3 01 . P80 ... ... : A-2 01 . P80 ... ... : ... .. . ... ... : ... .. . ... : ... .. . F01 ...
ROW 7E : ... .. . ... ... ... : ... .. . ... ... ... : ... .. . P7F ... : ... .. . ... : ... .. . F02 ...
ROW 7F : ... .. . P7F ... ... : ... .. . P7F ... ... : --- .. . ... ... : ... .. . ... : ... .. . F03 ...

PATTERN 1B
ROW 00 : --- .. . ... ... ... : --- .. . ... ... ... : A#2 01 . P80 ... : ... .. . ... : ... .. . F02 ...
ROW 01 : ... .. . ... ... ... : ... .. . ... ... ... : ... .. . ... ... : ... .. . ... : ... .. . F01 ...
ROW 02 : ... .. . ... ... ... : ... .. . ... ... ... : ... .. . P7F ... : ... .. . ... : ... .. . F02 ...
ROW 03 : ... .. . ... ... ... : ... .. . ... ... ... : --- .. . ... ... : ... .. . ... : ... .. . F03 ...
ROW 04 : ... .. . ... ... ... : G-6 0D A ... ... ... : A-3 01 . P80 ... : ... .. . ... : ... .. . F02 ...
ROW 05 : ... .. . ... ... ... : ... .. . ... ... ... : ... .. . ... ... : ... .. . ... : ... .. . F01 ...
ROW 06 : ... .. . ... ... ... : ... .. 1 ... ... ... : ... .. . P7F ... : ... .. . ... : ... .. . F02 ...
ROW 07 : ... .. . ... ... ... : ... .. 0 ... ... ... : --- .. . ... ... : ... .. . ... : ... .. . F03 ...
ROW 08 : G-6 0D 5 ... ... ... : G-5 0D A ... ... ... : D-4 01 . P80 ... : ... .. . ... : ... .. . F02 ...
ROW 09 : ... .. . ... ... ... : ... .. . ... ... ... : ... .. . ... ... : ... .. . ... : ... .. . F01 ...
ROW 0A : ... .. 1 ... ... ... : ... .. . ... ... ... : ... .. . P7F ... : ... .. . ... : ... .. . F02 ...
ROW 0B : ... .. 0 ... ... ... : ... .. 1 ... ... ... : --- .. . ... ... : ... .. . ... : ... .. . F03 ...
ROW 0C : G-5 0D 5 ... ... ... : ... .. 0 ... ... ... : G-4 01 . P80 ... : ... .. . ... : ... .. . F02 ...
ROW 0D : ... .. . ... ... ... : ... .. . ... ... ... : ... .. . ... ... : ... .. . ... : ... .. . F01 ...
ROW 0E : ... .. . ... ... ... : ... .. . ... ... ... : ... .. . P7F ... : ... .. . ... : ... .. . F02 ...
ROW 0F : ... .. 1 ... ... ... : ... .. . ... ... ... : --- 01 . ... ... : ... .. . ... : ... .. . F03 ...
ROW 10 : ... .. 0 ... ... ... : F-4 0D A ... ... ... : D-4 01 . P80 ... : ... .. . ... : ... .. . F02 ...
ROW 11 : ... .. . ... ... ... : ... .. . ... ... ... : ... .. . ... ... : ... .. . ... : ... .. . F01 ...
ROW 12 : ... .. . ... ... ... : ... .. 1 ... ... ... : ... .. . P7F ... : ... .. . ... : ... .. . F02 ...
ROW 13 : ... .. . ... ... ... : ... .. 0 ... ... ... : --- .. . ... ... : ... .. . ... : ... .. . F03 ...
ROW 14 : F-4 0D 5 ... ... ... : F-5 0D A ... ... ... : A-3 01 . P80 ... : ... .. . ... : ... .. . F02 ...
ROW 15 : ... .. . ... ... ... : ... .. . ... ... ... : ... .. . ... ... : ... .. . ... : ... .. . F01 ...
ROW 16 : ... .. 1 ... ... ... : ... .. . ... ... ... : ... .. . P7F ... : ... .. . ... : ... .. . F02 ...
ROW 17 : ... .. 0 ... ... ... : ... .. 1 ... ... ... : --- .. . ... ... : ... .. . ... : ... .. . F03 ...
ROW 18 : F-5 0D 5 ... ... ... : ... .. 0 ... ... ... : A#2 01 . P80 ... : ... .. . ... : ... .. . F02 ...
ROW 19 : ... .. . ... ... ... : ... .. . ... ... ... : ... .. . ... ... : ... .. . ... : ... .. . F01 ...
ROW 1A : ... .. . ... ... ... : ... .. . ... ... ... : ... .. . P7F ... : ... .. . ... : ... .. . F02 ...
ROW 1B : ... .. 1 ... ... ... : ... .. . ... ... ... : --- .. . ... ... : ... .. . ... : ... .. . F03 ...
ROW 1C : ... .. 0 ... ... ... : C-7 0D A ... ... ... : G#3 01 . P80 ... : ... .. . ... : ... .. . F02 ...
ROW 1D : ... .. . ... ... ... : ... .. . ... ... ... : ... .. . ... ... : ... .. . ... : ... .. . F01 ...
ROW 1E : ... .. . ... ... ... : ... .. 1 ... ... ... : ... .. . P7F ... : ... .. . ... : ... .. . F02 ...
ROW 1F : ... .. . ... ... ... : ... .. 0 ... ... ... : --- .. . ... ... : ... .. . ... : ... .. . F03 ...
ROW 20 : C-7 0D 5 ... ... ... : C-6 0D A ... ... ... : D#4 01 . P80 ... : ... .. . ... : ... .. . F02 ...
ROW 21 : ... .. . ... ... ... : ... .. . ... ... ... : ... .. . ... ... : ... .. . ... : ... .. . F01 ...
ROW 22 : ... .. 1 ... ... ... : ... .. . ... ... ... : ... .. . P7F ... : ... .. . ... : ... .. . F02 ...
ROW 23 : ... .. 0 ... ... ... : ... .. 1 ... ... ... : --- .. . ... ... : ... .. . ... : ... .. . F03 ...
ROW 24 : C-6 0D 5 ... ... ... : ... .. 0 ... ... ... : G#3 01 . P80 ... : ... .. . ... : ... .. . F02 ...
ROW 25 : ... .. . ... ... ... : ... .. . ... ... ... : ... .. . ... ... : ... .. . ... : ... .. . F01 ...
ROW 26 : ... .. . ... ... ... : ... .. . ... ... ... : ... .. . P7F ... : ... .. . ... : ... .. . F02 ...
ROW 27 : ... .. 1 ... ... ... : ... .. . ... ... ... : --- .. . ... ... : ... .. . ... : ... .. . F03 ...
ROW 28 : ... .. 0 ... ... ... : A#4 0D A ... ... ... : A#2 01 . P80 ... : ... .. . ... : ... .. . F02 ...
ROW 29 : ... .. . ... ... ... : ... .. . ... ... ... : ... .. . ... ... : ... .. . ... : ... .. . F01 ...
ROW 2A : ... .. . ... ... ... : ... .. 1 ... ... ... : ... .. . P7F ... : ... .. . ... : ... .. . F02 ...
ROW 2B : ... .. . ... ... ... : ... .. 0 ... ... ... : --- .. . ... ... : ... .. . ... : ... .. . F03 ...
ROW 2C : A#4 0D 5 ... ... ... : A#5 0D A ... ... ... : D-4 01 . P80 ... : ... .. . ... : ... .. . F02 ...
ROW 2D : ... .. . ... ... ... : ... .. . ... ... ... : ... .. . ... ... : ... .. . ... : ... .. . F01 ...
ROW 2E : ... .. 1 ... ... ... : ... .. . ... ... ... : ... .. . P7F ... : ... .. . ... : ... .. . F02 ...
ROW 2F : ... .. 0 ... ... ... : ... .. 1 ... ... ... : --- .. . ... ... : ... .. . ... : ... .. . F03 ...
ROW 30 : A#5 0D 5 ... ... ... : ... .. 0 ... ... ... : G#3 01 . P80 ... : ... .. . ... : ... .. . F02 ...
ROW 31 : ... .. . ... ... ... : ... .. . ... ... ... : ... .. . ... ... : ... .. . ... : ... .. . F01 ...
ROW 32 : ... .. . ... ... ... : ... .. . ... ... ... : ... .. . P7F ... : ... .. . ... : ... .. . F02 ...
ROW 33 : ... .. 1 ... ... ... : ... .. . ... ... ... : --- .. . ... ... : ... .. . ... : ... .. . F03 ...
ROW 34 : ... .. 0 ... ... ... : ... .. . ... ... ... : A#2 01 . P80 ... : ... .. . ... : ... .. . F02 ...
ROW 35 : ... .. . ... ... ... : ... .. . ... ... ... : ... .. . ... ... : ... .. . ... : ... .. . F01 ...
ROW 36 : ... .. . ... ... ... : ... .. . ... ... ... : ... .. . P7F ... : ... .. . ... : ... .. . F02 ...
ROW 37 : ... .. . ... ... ... : ... .. . ... ... ... : --- .. . ... ... : ... .. . ... : ... .. . F03 ...
ROW 38 : F-5 0C F ... V02 ... : ... .. . ... ... ... : F#3 01 . P80 ... : ... .. . ... : ... .. . F02 ...
ROW 39 : ... .. . ... ... ... : ... .. . ... ... ... : ... .. . ... ... : ... .. . ... : ... .. . F01 ...
ROW 3A : A-4 0C 5 G06 ... ... : ... .. . ... ... ... : ... .. . ... ... : ... .. . ... : ... .. . F02 ...
ROW 3B : ... .. . ... ... ... : ... .. . ... ... ... : ... .. . ... ... : ... .. . ... : ... .. . F03 ...
ROW 3C : ... .. . ... ... ... : F-5 0C C ... V02 ... : ... .. . ... ... : ... .. . ... : ... .. . F02 ...
ROW 3D : F-5 0C 5 G03 ... ... : ... .. . ... ... ... : ... .. . ... ... : ... .. . ... : ... .. . F01 ...
ROW 3E : ... .. . ... ... ... : A-4 0C 3 G06 ... ... : ... .. . P7F ... : ... .. . ... : ... .. . F02 ...
ROW 3F : ... .. . ... ... ... : ... .. . ... ... ... : --- .. . ... ... : ... .. . ... : ... .. . F03 ...
ROW 40 : A-4 0C . ... ... ... : ... .. . ... ... ... : D#2 01 . P80 ... : ... .. . ... : ... .. . F02 ...
ROW 41 : ... .. . ... ... ... : F-5 0C . G03 ... ... : ... .. . ... ... : ... .. . ... : ... .. . F01 ...
ROW 42 : F-5 0C 6 G06 ... ... : ... .. . ... ... ... : ... .. . P7F ... : ... .. . ... : ... .. . F02 ...
ROW 43 : ... .. . ... ... ... : ... .. . ... ... ... : --- .. . ... ... : ... .. . ... : ... .. . F03 ...
ROW 44 : ... .. . ... ... ... : A-4 0C . ... ... ... : F#3 01 . P80 ... : ... .. . ... : ... .. . F02 ...
ROW 45 : A-4 0C . G03 ... ... : ... .. . ... ... ... : ... .. . ... ... : ... .. . ... : ... .. . F01 ...
ROW 46 : ... .. . ... ... ... : F-5 0C . G06 ... ... : ... .. . P7F ... : ... .. . ... : ... .. . F02 ...
ROW 47 : ... .. . ... ... ... : ... .. . ... ... ... : --- .. . ... ... : ... .. . ... : ... .. . F03 ...
ROW 48 : F-5 0C 7 ... ... ... : ... .. . ... ... ... : C#4 01 . P80 ... : ... .. . ... : ... .. . F02 ...
ROW 49 : ... .. . ... ... ... : A-4 0C . G03 ... ... : ... .. . ... ... : ... .. . ... : ... .. . F01 ...
ROW 4A : A-4 0C . G06 ... ... : ... .. . ... ... ... : ... .. . P7F ... : ... .. . ... : ... .. . F02 ...
ROW 4B : ... .. . ... ... ... : ... .. . ... ... ... : --- .. . ... ... : ... .. . ... : ... .. . F03 ...
ROW 4C : ... .. . ... ... ... : F-5 0C . ... ... ... : F#4 01 . P80 ... : ... .. . ... : ... .. . F02 ...
ROW 4D : F-5 0C 8 G03 ... ... : ... .. . ... ... ... : ... .. . ... ... : ... .. . ... : ... .. . F01 ...
ROW 4E : ... .. . ... ... ... : A-4 0C . G06 ... ... : ... .. . P7F ... : ... .. . ... : ... .. . F02 ...
ROW 4F : ... .. . ... ... ... : ... .. . ... ... ... : --- .. . ... ... : ... .. . ... : ... .. . F03 ...
ROW 50 : A-4 0C . ... ... ... : ... .. . ... ... ... : C#4 01 . P80 ... : ... .. . ... : ... .. . F02 ...
ROW 51 : ... .. . ... ... ... : F-5 0C . G03 ... ... : ... .. . ... ... : ... .. . ... : ... .. . F01 ...
ROW 52 : F-5 0C 9 G06 ... ... : ... .. . ... ... ... : ... .. . P7F ... : ... .. . ... : ... .. . F02 ...
ROW 53 : ... .. . ... ... ... : ... .. . ... ... ... : --- .. . ... ... : ... .. . ... : ... .. . F03 ...
ROW 54 : ... .. . ... ... ... : A-4 0C . ... ... ... : F#3 01 . P80 ... : ... .. . ... : ... .. . F02 ...
ROW 55 : A-4 0C . G03 ... ... : ... .. . ... ... ... : ... .. . ... ... : ... .. . ... : ... .. . F01 ...
ROW 56 : ... .. . ... ... ... : F-5 0C 4 G06 ... ... : ... .. . P7F ... : ... .. . ... : ... .. . F02 ...
ROW 57 : ... .. . ... ... ... : ... .. . ... ... ... : --- .. . ... ... : ... .. . ... : ... .. . F03 ...
ROW 58 : F-5 0C A ... ... ... : ... .. . ... ... ... : G#2 01 . P80 ... : ... .. . ... : ... .. . F02 ...
ROW 59 : ... .. . ... ... ... : A-4 0C . G03 ... ... : ... .. . ... ... : ... .. . ... : ... .. . F01 ...
ROW 5A : A-4 0C . G06 ... ... : ... .. . ... ... ... : ... .. . P7F ... : ... .. . ... : ... .. . F02 ...
ROW 5B : ... .. . ... ... ... : ... .. . ... ... ... : --- .. . ... ... : ... .. . ... : ... .. . F03 ...
ROW 5C : ... .. . ... ... ... : F-5 0C 5 ... ... ... : F#3 01 . P80 ... : ... .. . ... : ... .. . F02 ...
ROW 5D : F-5 0C B G03 ... ... : ... .. . ... ... ... : ... .. . ... ... : ... .. . ... : ... .. . F01 ...
ROW 5E : ... .. . ... ... ... : A-4 0C . G06 ... ... : ... .. . P7F ... : ... .. . ... : ... .. . F02 ...
ROW 5F : ... .. . ... ... ... : ... .. . ... ... ... : --- 01 . ... ... : ... .. . ... : ... .. . F03 ...
ROW 60 : A-4 0C . ... ... ... : ... .. . ... ... ... : C-4 01 . P80 ... : ... .. . ... : ... .. . F02 ...
ROW 61 : ... .. . ... ... ... : F-5 0C 6 G03 ... ... : ... .. . ... ... : ... .. . ... : ... .. . F01 ...
ROW 62 : F-5 0C C G06 ... ... : ... .. . ... ... ... : ... .. . P7F ... : ... .. . ... : ... .. . F02 ...
ROW 63 : ... .. . ... ... ... : ... .. . ... ... ... : --- .. . ... ... : ... .. . ... : ... .. . F03 ...
ROW 64 : ... .. . ... ... ... : A-4 0C . ... ... ... : F-4 01 . P80 ... : ... .. . ... : ... .. . F02 ...
ROW 65 : A-4 0C . G03 ... ... : ... .. . ... ... ... : ... .. . ... ... : ... .. . ... : ... .. . F01 ...
ROW 66 : ... .. . ... ... ... : F-5 0C 7 G06 ... ... : ... .. . P7F ... : ... .. . ... : ... .. . F02 ...
ROW 67 : ... .. . ... ... ... : ... .. . ... ... ... : --- .. . ... ... : ... .. . ... : ... .. . F03 ...
ROW 68 : F-5 0C D ... ... ... : ... .. . ... ... ... : C-4 01 . P80 ... : ... .. . ... : ... .. . F02 ...
ROW 69 : ... .. . ... ... ... : A-4 0C . G03 ... ... : ... .. . ... ... : ... .. . ... : ... .. . F01 ...
ROW 6A : A-4 0C . G06 ... ... : ... .. . ... ... ... : ... .. . P7F ... : ... .. . ... : ... .. . F02 ...
ROW 6B : ... .. . ... ... ... : ... .. . ... ... ... : --- .. . ... ... : ... .. . ... : ... .. . F03 ...
ROW 6C : ... .. . ... ... ... : F-5 0C 8 ... ... ... : F#3 01 . P80 ... : ... .. . ... : ... .. . F02 ...
ROW 6D : E-5 0C E G03 ... ... : ... .. . ... ... ... : ... .. . ... ... : ... .. . ... : ... .. . F01 ...
ROW 6E : ... .. . ... ... ... : A-4 0C . G06 ... ... : ... .. . P7F ... : ... .. . ... : ... .. . F02 ...
ROW 6F : ... .. . ... ... ... : ... .. . ... ... ... : --- .. . ... ... : ... .. . ... : ... .. . F03 ...
ROW 70 : A-4 0C . ... ... ... : ... .. . ... ... ... : C-4 01 . P80 ... : ... .. . ... : ... .. . F02 ...
ROW 71 : ... .. . ... ... ... : E-5 0C 9 G03 ... ... : ... .. . ... ... : ... .. . ... : ... .. . F01 ...
ROW 72 : E-5 0C F G06 ... ... : ... .. . ... ... ... : ... .. . P7F ... : ... .. . ... : ... .. . F02 ...
ROW 73 : ... .. . ... ... ... : ... .. . ... ... ... : --- .. . ... ... : ... .. . ... : ... .. . F03 ...
ROW 74 : ... .. . ... ... ... : A-4 0C . ... ... ... : F#3 01 . P80 ... : ... .. . ... : ... .. . F02 ...
ROW 75 : A-4 0C . G03 ... ... : ... .. . ... ... ... : ... .. . ... ... : ... .. . ... : ... .. . F01 ...
ROW 76 : ... .. . ... ... ... : E-5 0C A G06 ... ... : ... .. . ... ... : ... .. . ... : ... .. . F02 ...
ROW 77 : ... .. . ... ... ... : ... .. . ... ... ... : ... .. . ... ... : ... .. . ... : ... .. . F03 ...
ROW 78 : E-5 0C F ... ... ... : ... .. . ... ... ... : ... .. . ... ... : ... .. . ... : ... .. . F02 ...
ROW 79 : ... .. . ... ... ... : A-4 0C . G03 ... ... : ... .. . ... ... : ... .. . ... : ... .. . F01 ...
ROW 7A : A-4 0C . G06 ... ... : ... .. . ... ... ... : ... .. . P7F ... : ... .. . ... : ... .. . F02 ...
ROW 7B : ... .. . ... ... ... : ... .. . ... ... ... : --- .. . ... ... : ... .. . ... : ... .. . F03 ...
ROW 7C : ... .. . ... ... ... : E-5 0C B ... ... ... : G#2 01 . P80 ... : ... .. . ... : ... .. . F02 ...
ROW 7D : E-5 0C . G03 ... ... : ... .. . ... ... ... : ... .. . ... ... : ... .. . ... : ... .. . F01 ...
ROW 7E : ... .. . ... ... ... : A-4 0C . G06 ... ... : ... .. . P7F ... : ... .. . ... : ... .. . F02 ...
ROW 7F : ... .. . ... ... ... : --- .. . ... ... ... : --- .. . ... ... : ... .. . ... : ... .. . F03 ...

PATTERN 1C
ROW 00 : G#4 02 F V00 ... ... : ... .. . ... ... ... : C#2 01 . P80 ... : ... .. . ... : ... .. . F02 ...
ROW 01 : ... .. . ... ... ... : ... .. . ... ... ... : ... .. . ... ... : ... .. . ... : ... .. . F01 ...
ROW 02 : ... .. . ... ... ... : ... .. . ... ... ... : ... .. . ... ... : ... .. . ... : ... .. . F02 ...
ROW 03 : ... .. . ... ... ... : ... .. . ... ... ... : ... .. . P7F ... : ... .. . ... : ... .. . F03 ...
ROW 04 : ... .. . ... ... ... : G#4 02 6 V00 ... ... : G#2 01 . P80 ... : ... .. . ... : ... .. . F02 ...
ROW 05 : ... .. . ... ... ... : ... .. . ... ... ... : ... .. . ... ... : ... .. . ... : ... .. . F01 ...
ROW 06 : ... .. . ... ... ... : ... .. . ... ... ... : ... .. . ... ... : ... .. . ... : ... .. . F02 ...
ROW 07 : ... .. . ... ... ... : ... .. . ... ... ... : ... .. . P7F ... : ... .. . ... : ... .. . F03 ...
ROW 08 : --- .. . ... ... ... : ... .. . ... ... ... : E-3 01 . P80 ... : ... .. . ... : ... .. . F02 ...
ROW 09 : ... .. . ... ... ... : ... .. . ... ... ... : ... .. . ... ... : ... .. . ... : ... .. . F01 ...
ROW 0A : ... .. . ... ... ... : ... .. . ... ... ... : ... .. . ... ... : ... .. . ... : ... .. . F02 ...
ROW 0B : ... .. . ... ... ... : ... .. . ... ... ... : ... .. . P7F ... : ... .. . ... : ... .. . F03 ...
ROW 0C : E-4 0E . ... ... ... : ... .. . ... ... ... : G#3 01 . P80 ... : ... .. . ... : ... .. . F02 ...
ROW 0D : ... .. . ... ... ... : ... .. . ... ... ... : ... .. . ... ... : ... .. . ... : ... .. . F01 ...
ROW 0E : ... .. . ... ... ... : E-4 0E . ... ... ... : ... .. . P7F ... : ... .. . ... : ... .. . F02 ...
ROW 0F : --- .. . ... ... ... : ... .. . ... ... ... : --- .. . ... ... : ... .. . ... : ... .. . F03 ...
ROW 10 : E-3 0E F V01 P81 ... : E-5 0D C ... P80 ... : B-3 01 . P80 ... : ... .. . ... : ... .. . F02 ...
ROW 11 : ... .. . ... P7F ... : ... .. . ... ... ... : ... .. . ... ... : ... .. . ... : ... .. . F01 ...
ROW 12 : G-4 0E D V00 P81 ... : ... .. . ... ... ... : ... .. . ... ... : ... .. . ... : ... .. . F02 ...
ROW 13 : ... .. . ... P7F ... : ... .. . ... ... ... : ... .. . P7F ... : ... .. . ... : ... .. . F03 ...
ROW 14 : B-4 0E D V02 P81 ... : ... .. . ... ... ... : E-4 01 . P80 ... : ... .. . ... : ... .. . F02 ...
ROW 15 : ... .. . ... P7F ... : ... .. 4 ... ... ... : ... .. . ... ... : ... .. . ... : ... .. . F01 ...
ROW 16 : E-5 0E D ... P81 ... : ... .. . ... ... ... : ... .. . ... ... : ... .. . ... : ... .. . F02 ...
ROW 17 : ... .. . ... P7F ... : ... .. . ... ... ... : ... .. . P7F ... : ... .. . ... : ... .. . F03 ...
ROW 18 : B-4 0E D V01 P81 ... : ... .. . ... ... ... : B-3 01 . P80 ... : ... .. . ... : ... .. . F02 ...
ROW 19 : ... .. . ... P7F ... : ... .. . ... ... ... : ... .. . ... ... : ... .. . ... : ... .. . F01 ...
ROW 1A : G-4 0E D V00 P81 ... : ... .. 2 ... ... ... : ... .. . P7F ... : ... .. . ... : ... .. . F02 ...
ROW 1B : ... .. 4 ... P7F ... : ... .. . ... ... ... : --- .. . ... ... : ... .. . ... : ... .. . F03 ...
ROW 1C : D#3 0E F V01 P81 ... : D#5 0D C 400 P80 ... : G#3 01 . P80 ... : ... .. . ... : ... .. . F02 ...
ROW 1D : ... .. . ... P7F ... : ... .. . ... ... ... : ... .. . ... ... : ... .. . ... : ... .. . F01 ...
ROW 1E : G-4 0E D V00 P81 ... : ... .. . ... ... ... : ... .. . ... ... : ... .. . ... : ... .. . F02 ...
ROW 1F : ... .. . ... P7F ... : ... .. . ... ... ... : ... .. . P7F ... : ... .. . ... : ... .. . F03 ...
ROW 20 : B-4 0E D V02 P81 ... : ... .. . ... ... ... : E-3 01 . P80 ... : ... .. . ... : ... .. . F02 ...
ROW 21 : ... .. . ... P7F ... : ... .. . ... ... ... : ... .. . ... ... : ... .. . ... : ... .. . F01 ...
ROW 22 : D#5 0E D ... P81 ... : ... .. 4 ... ... ... : ... .. . ... ... : ... .. . ... : ... .. . F02 ...
ROW 23 : ... .. . ... P7F ... : ... .. . ... ... ... : ... .. . P7F ... : ... .. . ... : ... .. . F03 ...
ROW 24 : B-4 0E D V01 P81 ... : ... .. . ... ... ... : F#2 01 . P80 ... : ... .. . ... : ... .. . F02 ...
ROW 25 : ... .. . ... P7F ... : ... .. . ... ... ... : ... .. . ... ... : ... .. . ... : ... .. . F01 ...
ROW 26 : G-4 0E D V00 P81 ... : ... .. 2 ... ... ... : ... .. . P7F ... : ... .. . ... : ... .. . F02 ...
ROW 27 : ... .. 4 ... P7F ... : ... .. . ... ... ... : --- .. . ... ... : ... .. . ... : ... .. . F03 ...
ROW 28 : D-3 0E F V01 P81 ... : D-5 0D C 400 P80 ... : E-3 01 . P80 ... : ... .. . ... : ... .. . F02 ...
ROW 29 : ... .. . ... P7F ... : ... .. . ... ... ... : ... .. . ... ... : ... .. . ... : ... .. . F01 ...
ROW 2A : G-4 0E D V00 P81 ... : ... .. . ... ... ... : ... .. . ... ... : ... .. . ... : ... .. . F02 ...
ROW 2B : ... .. . ... P7F ... : ... .. . ... ... ... : ... .. . P7F ... : ... .. . ... : ... .. . F03 ...
ROW 2C : A-4 0E D V02 P81 ... : ... .. . ... ... ... : A#3 01 . P80 ... : ... .. . ... : ... .. . F02 ...
ROW 2D : ... .. . ... P7F ... : ... .. . ... ... ... : ... .. . ... ... : ... .. . ... : ... .. . F01 ...
ROW 2E : D-5 0E D ... P81 ... : ... .. 4 ... ... ... : ... .. . ... ... : ... .. . ... : ... .. . F02 ...
ROW 2F : ... .. . ... P7F ... : ... .. . ... ... ... : ... .. . P7F ... : ... .. . ... : ... .. . F03 ...
ROW 30 : A-4 0E D V01 P81 ... : ... .. . ... ... ... : E-3 01 . P80 ... : ... .. . ... : ... .. . F02 ...
ROW 31 : ... .. . ... P7F ... : ... .. . ... ... ... : ... .. . ... ... : ... .. . ... : ... .. . F01 ...
ROW 32 : G-4 0E D V00 P81 ... : ... .. 2 ... ... ... : ... .. . P7F ... : ... .. . ... : ... .. . F02 ...
ROW 33 : ... .. 4 ... P7F ... : ... .. . ... ... ... : --- .. . ... ... : ... .. . ... : ... .. . F03 ...
ROW 34 : G#2 0E F V01 P81 ... : G#4 0D C 400 P80 ... : F#2 01 . P80 ... : ... .. . ... : ... .. . F02 ...
ROW 35 : ... .. . ... P7F ... : ... .. . ... ... ... : ... .. . ... ... : ... .. . ... : ... .. . F01 ...
ROW 36 : D-4 0E D V00 P81 ... : ... .. . ... ... ... : ... .. . P7F ... : ... .. . ... : ... .. . F02 ...
ROW 37 : ... .. . ... P7F ... : ... .. . ... ... ... : --- .. . ... ... : ... .. . ... : ... .. . F03 ...
ROW 38 : E-4 0E D V02 P81 ... : ... .. . ... ... ... : E-3 01 . P80 ... : ... .. . ... : ... .. . F02 ...
ROW 39 : ... .. . ... P7F ... : ... .. . ... ... ... : ... .. . ... ... : ... .. . ... : ... .. . F01 ...
ROW 3A : G#4 0E D ... P81 ... : ... .. 4 ... ... ... : ... .. . P7F ... : ... .. . ... : ... .. . F02 ...
ROW 3B : ... .. . ... P7F ... : ... .. . ... ... ... : --- .. . ... ... : ... .. . ... : ... .. . F03 ...
ROW 3C : E-4 0E D V01 P81 ... : ... .. . ... ... ... : F#2 01 . P80 ... : ... .. . ... : ... .. . F02 ...
ROW 3D : ... .. . ... P7F ... : ... .. . ... ... ... : ... .. . ... ... : ... .. . ... : ... .. . F01 ...
ROW 3E : D-4 0E D V00 P81 ... : ... .. 2 ... ... ... : ... .. . P7F ... : ... .. . ... : ... .. . F02 ...
ROW 3F : ... .. 4 ... P7F ... : ... .. . ... ... ... : --- .. . ... ... : ... .. . ... : ... .. . F03 ...
ROW 40 : F#2 0E F V01 P81 ... : F#4 0D C 400 P80 ... : B-1 01 . P80 ... : ... .. . ... : ... .. . F02 ...
ROW 41 : ... .. . ... P7F ... : ... .. . ... ... ... : ... .. . ... ... : ... .. . ... : ... .. . F01 ...
ROW 42 : A#3 0E D V00 P81 ... : ... .. . ... ... ... : ... .. . ... ... : ... .. . ... : ... .. . F02 ...
ROW 43 : ... .. . ... P7F ... : ... .. . ... ... ... : ... .. . P7F ... : ... .. . ... : ... .. . F03 ...
ROW 44 : C#4 0E . V02 P81 ... : ... .. . ... ... ... : G#2 01 . P80 ... : ... .. . ... : ... .. . F02 ...
ROW 45 : ... .. . ... P7F ... : ... .. . ... ... ... : ... .. . ... ... : ... .. . ... : ... .. . F01 ...
ROW 46 : D#4 0E . ... P81 ... : ... .. . ... ... ... : ... .. . ... ... : ... .. . ... : ... .. . F02 ...
ROW 47 : ... .. . ... P7F ... : ... .. . ... ... ... : ... .. . P7F ... : ... .. . ... : ... .. . F03 ...
ROW 48 : F#4 0E . ... P81 ... : ... .. . ... ... ... : D#3 01 . P80 ... : ... .. . ... : ... .. . F02 ...
ROW 49 : ... .. . ... P7F ... : ... .. . ... ... ... : ... .. . ... ... : ... .. . ... : ... .. . F01 ...
ROW 4A : D#4 0E . ... P81 ... : ... .. 4 ... ... ... : ... .. . ... ... : ... .. . ... : ... .. . F02 ...
ROW 4B : ... .. . ... P7F ... : ... .. . ... ... ... : ... .. . P7F ... : ... .. . ... : ... .. . F03 ...
ROW 4C : C#4 0E . V01 P81 ... : ... .. . ... ... ... : F#3 01 . P80 ... : ... .. . ... : ... .. . F02 ...
ROW 4D : ... .. . ... P7F ... : ... .. . ... ... ... : ... .. . ... ... : ... .. . ... : ... .. . F01 ...
ROW 4E : A#3 0E . V00 P81 ... : ... .. 2 ... ... ... : ... .. . P7F ... : ... .. . ... : ... .. . F02 ...
ROW 4F : ... .. 4 ... P7F ... : ... .. . ... ... ... : --- .. . ... ... : ... .. . ... : ... .. . F03 ...
ROW 50 : ... .. . ... P80 ... : D#4 0D C 400 P80 ... : A#3 01 . P80 ... : ... .. . ... : ... .. . F02 ...
ROW 51 : ... .. . ... ... ... : ... .. . ... ... ... : ... .. . ... ... : ... .. . ... : ... .. . F01 ...
ROW 52 : ... .. . ... ... ... : ... .. 4 ... ... ... : ... .. . ... ... : ... .. . ... : ... .. . F02 ...
ROW 53 : D#4 0C B V00 ... ... : ... .. . ... ... ... : ... .. . P7F ... : ... .. . ... : ... .. . F03 ...
ROW 54 : ... .. . ... ... ... : F#4 0D C ... ... ... : D#4 01 . P80 ... : ... .. . ... : ... .. . F02 ...
ROW 55 : ... .. 5 ... ... ... : ... .. . ... ... ... : ... .. . ... ... : ... .. . ... : ... .. . F01 ...
ROW 56 : ... .. . ... ... ... : ... .. 4 ... ... ... : ... .. . ... ... : ... .. . ... : ... .. . F02 ...
ROW 57 : F#4 0C B ... ... ... : ... .. . ... ... ... : ... .. . P7F ... : ... .. . ... : ... .. . F03 ...
ROW 58 : ... .. . ... ... ... : A#4 0D C ... ... ... : F#4 01 . P80 ... : ... .. . ... : ... .. . F02 ...
ROW 59 : ... .. 5 ... ... ... : ... .. . ... ... ... : ... .. . ... ... : ... .. . ... : ... .. . F01 ...
ROW 5A : ... .. . ... ... ... : ... .. 4 ... ... ... : ... .. . ... ... : ... .. . ... : ... .. . F02 ...
ROW 5B : ... .. . ... ... ... : ... .. . ... ... ... : ... .. . P7F ... : ... .. . ... : ... .. . F03 ...
ROW 5C : C#3 0E F V01 ... ... : C#5 0D C ... ... ... : D-4 01 . P80 ... : ... .. . ... : ... .. . F02 ...
ROW 5D : ... .. . ... ... ... : ... .. . ... ... ... : ... .. . ... ... : ... .. . ... : ... .. . F01 ...
ROW 5E : F#4 0E D V00 ... ... : ... .. . ... ... ... : ... .. . P7F ... : ... .. . ... : ... .. . F02 ...
ROW 5F : ... .. . ... ... ... : ... .. . ... ... ... : --- .. . ... ... : ... .. . ... : ... .. . F03 ...
ROW 60 : A-4 0E . V02 ... ... : ... .. . ... ... ... : A-3 01 . P80 ... : ... .. . ... : ... .. . F02 ...
ROW 61 : ... .. . ... ... ... : ... .. . ... ... ... : ... .. . ... ... : ... .. . ... : ... .. . F01 ...
ROW 62 : C#5 0E . ... ... ... : ... .. 4 ... ... ... : ... .. . ... ... : ... .. . ... : ... .. . F02 ...
ROW 63 : ... .. . ... ... ... : ... .. . ... ... ... : ... .. . P7F ... : ... .. . ... : ... .. . F03 ...
ROW 64 : A-4 0E . V01 ... ... : ... .. . ... ... ... : E-3 01 . P80 ... : ... .. . ... : ... .. . F02 ...
ROW 65 : ... .. . ... ... ... : ... .. . ... ... ... : ... .. . ... ... : ... .. . ... : ... .. . F01 ...
ROW 66 : F#4 0E . V00 ... ... : ... .. 2 ... ... ... : ... .. . P7F ... : ... .. . ... : ... .. . F02 ...
ROW 67 : ... .. 4 ... ... ... : ... .. . ... ... ... : --- .. . ... ... : ... .. . ... : ... .. . F03 ...
ROW 68 : C-3 0E F V01 ... ... : C-5 0D C 400 ... ... : E-2 01 . P80 ... : ... .. . ... : ... .. . F02 ...
ROW 69 : ... .. . ... ... ... : ... .. . ... ... ... : ... .. . ... ... : ... .. . ... : ... .. . F01 ...
ROW 6A : F-4 0E D V00 ... ... : ... .. . ... ... ... : ... .. . ... ... : ... .. . ... : ... .. . F02 ...
ROW 6B : ... .. . ... ... ... : ... .. . ... ... ... : ... .. . P7F ... : ... .. . ... : ... .. . F03 ...
ROW 6C : G#4 0E . V02 ... ... : ... .. . ... ... ... : D-3 01 . P80 ... : ... .. . ... : ... .. . F02 ...
ROW 6D : ... .. . ... ... ... : ... .. . ... ... ... : ... .. . ... ... : ... .. . ... : ... .. . F01 ...
ROW 6E : C-5 0E . ... ... ... : ... .. 4 ... ... ... : ... .. . ... ... : ... .. . ... : ... .. . F02 ...
ROW 6F : ... .. . ... ... ... : ... .. . ... ... ... : ... .. . P7F ... : ... .. . ... : ... .. . F03 ...
ROW 70 : G#4 0E . V01 ... ... : ... .. . ... ... ... : G#3 01 . P80 ... : ... .. . ... : ... .. . F02 ...
ROW 71 : ... .. . ... ... ... : ... .. . ... ... ... : ... .. . ... ... : ... .. . ... : ... .. . F01 ...
ROW 72 : F-4 0E . V00 ... ... : ... .. 2 ... ... ... : ... .. . P7F ... : ... .. . ... : ... .. . F02 ...
ROW 73 : ... .. 4 ... ... ... : ... .. . ... ... ... : --- .. . ... ... : ... .. . ... : ... .. . F03 ...
ROW 74 : F-2 0E F V01 ... ... : F-4 0D C 400 ... ... : A#2 01 . P80 ... : ... .. . ... : ... .. . F02 ...
ROW 75 : ... .. . ... ... ... : ... .. . ... ... ... : ... .. . ... ... : ... .. . ... : ... .. . F01 ...
ROW 76 : C-4 0E D V00 ... ... : ... .. . ... ... ... : ... .. . ... ... : ... .. . ... : ... .. . F02 ...
ROW 77 : ... .. . ... ... ... : ... .. . ... ... ... : ... .. . P7F ... : ... .. . ... : ... .. . F03 ...
ROW 78 : D-4 0E . V02 ... ... : ... .. . ... ... ... : G#3 01 . P80 ... : ... .. . ... : ... .. . F02 ...
ROW 79 : ... .. . ... ... ... : ... .. . ... ... ... : ... .. . ... ... : ... .. . ... : ... .. . F01 ...
ROW 7A : F-4 0E . ... ... ... : ... .. 4 ... ... ... : ... .. . ... ... : ... .. . ... : ... .. . F02 ...
ROW 7B : ... .. . ... ... ... : ... .. . ... ... ... : ... .. . P7F ... : ... .. . ... : ... .. . F03 ...
ROW 7C : D-4 0E . V01 ... ... : ... .. . ... ... ... : D-4 01 . P80 ... : ... .. . ... : ... .. . F02 ...
ROW 7D : ... .. . ... ... ... : ... .. . ... ... ... : ... .. . ... ... : ... .. . ... : ... .. . F01 ...
ROW 7E : C-4 0E . V00 ... ... : ... .. 2 ... ... ... : ... .. . ... ... : ... .. . ... : ... .. . F02 ...
ROW 7F : ... .. 4 ... ... ... : ... .. . ... ... ... : ... .. . P7F ... : ... .. . ... : ... .. . F03 ...

PATTERN 1D
ROW 00 : E-2 0E F ... V01 P81 : E-4 0D B 400 ... ... : F-2 01 . P80 ... : ... .. . ... : ... .. . F02 ...
ROW 01 : ... .. . ... ... P7F : ... .. . ... ... ... : ... .. . ... ... : ... .. . ... : ... .. . F01 ...
ROW 02 : B-3 0E C ... V00 P81 : ... .. . ... ... ... : ... .. . ... ... : ... .. . ... : ... .. . F02 ...
ROW 03 : ... .. . ... ... P7F : ... .. . ... ... ... : ... .. . P7F ... : ... .. . ... : ... .. . F03 ...
ROW 04 : C-4 0E . ... V02 P81 : ... .. . ... ... ... : G-3 01 . P80 ... : ... .. . ... : ... .. . F02 ...
ROW 05 : ... .. . ... ... P7F : ... .. . ... ... ... : ... .. . ... ... : ... .. . ... : ... .. . F01 ...
ROW 06 : E-4 0E . ... ... P81 : ... .. 5 ... ... ... : ... .. . ... ... : ... .. . ... : ... .. . F02 ...
ROW 07 : ... .. . ... ... P7F : ... .. . ... ... ... : ... .. . P7F ... : ... .. . ... : ... .. . F03 ...
ROW 08 : C-4 0E . ... V01 P81 : ... .. . 454 ... ... : C-4 01 . P80 ... : ... .. . ... : ... .. . F02 ...
ROW 09 : ... .. . ... ... P7F : ... .. . ... ... ... : ... .. . ... ... : ... .. . ... : ... .. . F01 ...
ROW 0A : B-3 0E . ... V00 P81 : ... .. . ... ... ... : ... .. . P7F ... : ... .. . ... : ... .. . F02 ...
ROW 0B : ... .. 3 ... ... P7F : ... .. . ... ... ... : --- .. . ... ... : ... .. . ... : ... .. . F03 ...
ROW 0C : ... .. . ... ... ... : C-4 0D B 400 ... ... : E-4 01 . P80 ... : ... .. . ... : ... .. . F02 ...
ROW 0D : C-4 0D 5 ... ... ... : ... .. . ... ... ... : ... .. . ... ... : ... .. . ... : ... .. . F01 ...
ROW 0E : ... .. . ... ... ... : ... .. . ... ... ... : ... .. . ... ... : ... .. . ... : ... .. . F02 ...
ROW 0F : ... .. . ... ... ... : ... .. 5 ... ... ... : ... .. . P7F ... : ... .. . ... : ... .. . F03 ...
ROW 10 : --- .. . ... ... ... : E-4 0D B ... ... ... : G-4 01 . P80 ... : ... .. . ... : ... .. . F02 ...
ROW 11 : E-4 0D . ... ... ... : ... .. . ... ... ... : ... .. . ... ... : ... .. . ... : ... .. . F01 ...
ROW 12 : ... .. . ... ... ... : ... .. . ... ... ... : ... .. . ... ... : ... .. . ... : ... .. . F02 ...
ROW 13 : ... .. . ... ... ... : ... .. 5 ... ... ... : ... .. . P7F ... : ... .. . ... : ... .. . F03 ...
ROW 14 : --- .. . ... ... ... : G-4 0D B ... ... ... : E-4 01 . P80 ... : ... .. . ... : ... .. . F02 ...
ROW 15 : G-4 0D . ... ... ... : ... .. . ... ... ... : ... .. . ... ... : ... .. . ... : ... .. . F01 ...
ROW 16 : ... .. . ... ... ... : ... .. . ... ... ... : ... .. . ... ... : ... .. . ... : ... .. . F02 ...
ROW 17 : ... .. . ... ... ... : ... .. 5 ... ... ... : ... .. . P7F ... : ... .. . ... : ... .. . F03 ...
ROW 18 : --- .. . ... ... ... : B-4 0D B ... ... ... : C-4 01 . P80 ... : ... .. . ... : ... .. . F02 ...
ROW 19 : B-4 0D . ... ... ... : ... .. . ... ... ... : ... .. . ... ... : ... .. . ... : ... .. . F01 ...
ROW 1A : ... .. . ... ... ... : ... .. . ... ... ... : ... .. . P7F ... : ... .. . ... : ... .. . F02 ...
ROW 1B : ... .. . ... ... ... : ... .. 5 ... ... ... : --- .. . ... ... : ... .. . ... : ... .. . F03 ...
ROW 1C : B-2 0E F ... V01 P81 : B-5 0D B ... ... ... : G-3 01 . P80 ... : ... .. . ... : ... .. . F02 ...
ROW 1D : ... .. . ... ... P7F : ... .. . ... ... ... : ... .. . ... ... : ... .. . ... : ... .. . F01 ...
ROW 1E : E-5 0E C ... V00 P81 : ... .. . ... ... ... : ... .. . ... ... : ... .. . ... : ... .. . F02 ...
ROW 1F : ... .. . ... ... P7F : ... .. . ... ... ... : ... .. . P7F ... : ... .. . ... : ... .. . F03 ...
ROW 20 : G-5 0E . ... V02 P81 : ... .. . ... ... ... : A-2 01 . P80 ... : ... .. . ... : ... .. . F02 ...
ROW 21 : ... .. . ... ... P7F : ... .. . ... ... ... : ... .. . ... ... : ... .. . ... : ... .. . F01 ...
ROW 22 : B-5 0E . ... ... P81 : ... .. 5 ... ... ... : ... .. . ... ... : ... .. . ... : ... .. . F02 ...
ROW 23 : ... .. . ... ... P7F : ... .. . ... ... ... : ... .. . P7F ... : ... .. . ... : ... .. . F03 ...
ROW 24 : G-5 0E . ... V01 P81 : ... .. . 454 ... ... : D-2 01 . P80 ... : ... .. . ... : ... .. . F02 ...
ROW 25 : ... .. . ... ... P7F : ... .. . ... ... ... : ... .. . ... ... : ... .. . ... : ... .. . F01 ...
ROW 26 : E-5 0E . ... V00 P81 : ... .. . ... ... ... : ... .. . ... ... : ... .. . ... : ... .. . F02 ...
ROW 27 : ... .. 3 ... ... P7F : ... .. . ... ... ... : ... .. . ... ... : ... .. . ... : ... .. . F03 ...
ROW 28 : A#2 0E F ... V01 P81 : A#5 0D B 400 ... ... : ... .. . ... ... : ... .. . ... : ... .. . F02 ...
ROW 29 : ... .. . ... ... P7F : ... .. . ... ... ... : ... .. . ... ... : ... .. . ... : ... .. . F01 ...
ROW 2A : D#5 0E C ... V00 P81 : ... .. . ... ... ... : ... .. . ... ... : ... .. . ... : ... .. . F02 ...
ROW 2B : ... .. . ... ... P7F : ... .. . ... ... ... : ... .. . P7F ... : ... .. . ... : ... .. . F03 ...
ROW 2C : F#5 0E . ... V02 P81 : ... .. . ... ... ... : F#3 01 . P80 ... : ... .. . ... : ... .. . F02 ...
ROW 2D : ... .. . ... ... P7F : ... .. . ... ... ... : ... .. . ... ... : ... .. . ... : ... .. . F01 ...
ROW 2E : A#5 0E . ... ... P81 : ... .. 5 ... ... ... : ... .. . ... ... : ... .. . ... : ... .. . F02 ...
ROW 2F : ... .. . ... ... P7F : ... .. . ... ... ... : ... .. . ... ... : ... .. . ... : ... .. . F03 ...
ROW 30 : F#5 0E . ... V01 P81 : ... .. . 454 ... ... : ... .. . ... ... : ... .. . ... : ... .. . F02 ...
ROW 31 : ... .. . ... ... P7F : ... .. . ... ... ... : ... .. . ... ... : ... .. . ... : ... .. . F01 ...
ROW 32 : D#5 0E . ... V00 P81 : ... .. . ... ... ... : ... .. . ... ... : ... .. . ... : ... .. . F02 ...
ROW 33 : ... .. 3 ... ... P7F : ... .. . ... ... ... : ... .. . ... ... : ... .. . ... : ... .. . F03 ...
ROW 34 : D#2 0E F ... V01 P81 : D#5 0D B 400 ... ... : ... .. . ... ... : ... .. . ... : ... .. . F02 ...
ROW 35 : ... .. . ... ... P7F : ... .. . ... ... ... : ... .. . ... ... : ... .. . ... : ... .. . F01 ...
ROW 36 : A#4 0E C ... V00 P81 : ... .. . ... ... ... : ... .. . ... ... : ... .. . ... : ... .. . F02 ...
ROW 37 : ... .. . ... ... P7F : ... .. . ... ... ... : ... .. . P7F ... : ... .. . ... : ... .. . F03 ...
ROW 38 : C-5 0E . ... V02 P81 : ... .. . ... ... ... : D#3 01 . P80 ... : ... .. . ... : ... .. . F02 ...
ROW 39 : ... .. . ... ... P7F : ... .. . ... ... ... : ... .. . ... ... : ... .. . ... : ... .. . F01 ...
ROW 3A : D#5 0E . ... ... P81 : ... .. 5 ... ... ... : ... .. . ... ... : ... .. . ... : ... .. . F02 ...
ROW 3B : ... .. . ... ... P7F : ... .. . ... ... ... : ... .. . P7F ... : ... .. . ... : ... .. . F03 ...
ROW 3C : C-5 0E . ... V01 P81 : ... .. . 454 ... ... : G#2 01 . P80 ... : ... .. . ... : ... .. . F02 ...
ROW 3D : ... .. . ... ... P7F : ... .. . ... ... ... : ... .. . ... ... : ... .. . ... : ... .. . F01 ...
ROW 3E : A#4 0E . ... V00 P81 : ... .. . ... ... ... : ... .. . ... ... : ... .. . ... : ... .. . F02 ...
ROW 3F : ... .. 3 ... ... P7F : ... .. . ... ... ... : ... .. . P7F ... : ... .. . ... : ... .. . F03 ...
ROW 40 : D-2 0E F ... V01 P81 : D-5 0D B 400 ... ... : G-2 01 . P80 ... : ... .. . ... : ... .. . F02 ...
ROW 41 : ... .. C ... ... P7F : ... .. . ... ... ... : ... .. . ... ... : ... .. . ... : ... .. . F01 ...
ROW 42 : F#4 0E . ... V00 P81 : ... .. . ... ... ... : ... .. . ... ... : ... .. . ... : ... .. . F02 ...
ROW 43 : ... .. . ... ... P7F : ... .. . ... ... ... : ... .. . P7F ... : ... .. . ... : ... .. . F03 ...
ROW 44 : A-4 0E . ... V02 P81 : ... .. . ... ... ... : D-3 01 . P80 ... : ... .. . ... : ... .. . F02 ...
ROW 45 : ... .. . ... ... P7F : ... .. . ... ... ... : ... .. . ... ... : ... .. . ... : ... .. . F01 ...
ROW 46 : D-5 0E . ... ... P81 : ... .. 5 ... ... ... : ... .. . ... ... : ... .. . ... : ... .. . F02 ...
ROW 47 : ... .. . ... ... P7F : ... .. . ... ... ... : ... .. . P7F ... : ... .. . ... : ... .. . F03 ...
ROW 48 : A-4 0E . ... V01 P81 : ... .. . 454 ... ... : F#3 01 . P80 ... : ... .. . ... : ... .. . F02 ...
ROW 49 : ... .. . ... ... P7F : ... .. . ... ... ... : ... .. . ... ... : ... .. . ... : ... .. . F01 ...
ROW 4A : F#4 0E . ... V00 P81 : ... .. . ... ... ... : ... .. . ... ... : ... .. . ... : ... .. . F02 ...
ROW 4B : ... .. 3 ... ... P7F : ... .. . ... ... ... : ... .. . P7F ... : ... .. . ... : ... .. . F03 ...
ROW 4C : E-2 0E F ... ... P80 : E-5 0D B 400 ... ... : B-3 01 . P80 ... : ... .. . ... : ... .. . F02 ...
ROW 4D : ... .. . ... ... ... : ... .. . ... ... ... : ... .. . ... ... : ... .. . ... : ... .. . F01 ...
ROW 4E : A-4 0E C ... ... ... : ... .. . ... ... ... : ... .. . ... ... : ... .. . ... : ... .. . F02 ...
ROW 4F : ... .. . ... ... ... : ... .. . ... ... ... : ... .. . P7F ... : ... .. . ... : ... .. . F03 ...
ROW 50 : A#4 0E . ... ... ... : ... .. 5 ... ... ... : F#3 01 . P80 ... : ... .. . ... : ... .. . F02 ...
ROW 51 : ... .. . ... ... ... : ... .. . ... ... ... : ... .. . ... ... : ... .. . ... : ... .. . F01 ...
ROW 52 : E-5 0E . ... ... ... : ... .. . ... ... ... : ... .. . P7F ... : ... .. . ... : ... .. . F02 ...
ROW 53 : ... .. 3 ... ... ... : ... .. . ... ... ... : --- .. . ... ... : ... .. . ... : ... .. . F03 ...
ROW 54 : D-2 0E F ... ... ... : D-5 0D B ... ... ... : D-3 01 . P80 ... : ... .. . ... : ... .. . F02 ...
ROW 55 : ... .. . ... ... ... : ... .. . ... ... ... : ... .. . ... ... : ... .. . ... : ... .. . F01 ...
ROW 56 : A-4 0E C ... ... ... : ... .. . ... ... ... : ... .. . ... ... : ... .. . ... : ... .. . F02 ...
ROW 57 : ... .. . ... ... ... : ... .. . ... ... ... : ... .. . P7F ... : ... .. . ... : ... .. . F03 ...
ROW 58 : A#4 0E . ... ... ... : ... .. 5 ... ... ... : G-2 01 . P80 ... : ... .. . ... : ... .. . F02 ...
ROW 59 : ... .. . ... ... ... : ... .. . ... ... ... : ... .. . ... ... : ... .. . ... : ... .. . F01 ...
ROW 5A : D-5 0E . ... ... ... : ... .. . ... ... ... : ... .. . P7F ... : ... .. . ... : ... .. . F02 ...
ROW 5B : ... .. 3 ... ... ... : ... .. . ... ... ... : --- .. . ... ... : ... .. . ... : ... .. . F03 ...
ROW 5C : E-2 0E F ... ... ... : E-5 0D B ... ... ... : F-3 01 . P80 ... : ... .. . ... : ... .. . F02 ...
ROW 5D : ... .. . ... ... ... : ... .. . ... ... ... : ... .. . ... ... : ... .. . ... : ... .. . F01 ...
ROW 5E : A-4 0E C ... ... ... : ... .. . ... ... ... : ... .. . ... ... : ... .. . ... : ... .. . F02 ...
ROW 5F : ... .. . ... ... ... : ... .. . ... ... ... : ... .. . P7F ... : ... .. . ... : ... .. . F03 ...
ROW 60 : C-5 0E . ... ... ... : ... .. 5 ... ... ... : A-3 01 . P80 ... : ... .. . ... : ... .. . F02 ...
ROW 61 : ... .. . ... ... ... : ... .. . ... ... ... : ... .. . ... ... : ... .. . ... : ... .. . F01 ...
ROW 62 : E-5 0E . ... ... ... : ... .. . ... ... ... : ... .. . ... ... : ... .. . ... : ... .. . F02 ...
ROW 63 : ... .. 3 ... ... ... : ... .. . ... ... ... : ... .. . P7F ... : ... .. . ... : ... .. . F03 ...
ROW 64 : G-4 0C C ... ... ... : G-5 0D B ... ... ... : C-4 01 . P80 ... : ... .. . ... : ... .. . F02 ...
ROW 65 : ... .. . ... ... ... : ... .. . ... ... ... : ... .. . ... ... : ... .. . ... : ... .. . F01 ...
ROW 66 : ... .. . ... ... ... : ... .. . ... ... ... : ... .. . P7F ... : ... .. . ... : ... .. . F02 ...
ROW 67 : --- .. . ... ... ... : ... .. 5 ... ... ... : --- .. . ... ... : ... .. . ... : ... .. . F03 ...
ROW 68 : E-2 0E F ... ... ... : E-5 0D B ... ... ... : F-3 01 . P80 ... : ... .. . ... : ... .. . F02 ...
ROW 69 : ... .. . ... ... ... : ... .. . ... ... ... : ... .. . ... ... : ... .. . ... : ... .. . F01 ...
ROW 6A : G#4 0E C ... ... ... : ... .. . ... ... ... : ... .. . ... ... : ... .. . ... : ... .. . F02 ...
ROW 6B : ... .. . ... ... ... : ... .. . ... ... ... : ... .. . P7F ... : ... .. . ... : ... .. . F03 ...
ROW 6C : A#4 0E . ... ... ... : ... .. . ... ... ... : A#3 01 . P80 ... : ... .. . ... : ... .. . F02 ...
ROW 6D : ... .. . ... ... ... : ... .. . ... ... ... : ... .. . ... ... : ... .. . ... : ... .. . F01 ...
ROW 6E : E-5 0E . ... ... ... : ... .. . ... ... ... : ... .. . P7F ... : ... .. . ... : ... .. . F02 ...
ROW 6F : ... .. . ... ... ... : ... .. . ... ... ... : --- .. . ... ... : ... .. . ... : ... .. . F03 ...
ROW 70 : A#4 0E . ... ... ... : ... .. 5 454 ... ... : G#3 01 . P80 ... : ... .. . ... : ... .. . F02 ...
ROW 71 : ... .. . ... ... ... : ... .. . ... ... ... : ... .. . ... ... : ... .. . ... : ... .. . F01 ...
ROW 72 : G#4 0E . ... ... ... : ... .. . ... ... ... : ... .. . ... ... : ... .. . ... : ... .. . F02 ...
ROW 73 : ... .. 3 ... ... ... : ... .. . ... ... ... : ... .. . P7F ... : ... .. . ... : ... .. . F03 ...
ROW 74 : D#2 0E F ... ... ... : D#5 0D B 400 ... ... : F-3 01 . P80 ... : ... .. . ... : ... .. . F02 ...
ROW 75 : ... .. . ... ... ... : ... .. . ... ... ... : ... .. . ... ... : ... .. . ... : ... .. . F01 ...
ROW 76 : G#4 0E C ... ... ... : ... .. . ... ... ... : ... .. . ... ... : ... .. . ... : ... .. . F02 ...
ROW 77 : ... .. . ... ... ... : ... .. . ... ... ... : ... .. . P7F ... : ... .. . ... : ... .. . F03 ...
ROW 78 : A#4 0E . ... ... ... : ... .. 5 ... ... ... : G-2 01 . P80 ... : ... .. . ... : ... .. . F02 ...
ROW 79 : ... .. . ... ... ... : ... .. . ... ... ... : ... .. . ... ... : ... .. . ... : ... .. . F01 ...
ROW 7A : D#5 0E . ... ... ... : ... .. . ... ... ... : ... .. . P7F ... : ... .. . ... : ... .. . F02 ...
ROW 7B : ... .. 3 ... ... ... : ... .. . ... ... ... : --- .. . ... ... : ... .. . ... : ... .. . F03 ...
ROW 7C : D-2 0E F ... ... ... : D-5 0D B ... ... ... : D#3 01 . P80 ... : ... .. . ... : ... .. . F02 ...
ROW 7D : ... .. . ... ... ... : ... .. . ... ... ... : ... .. . ... ... : ... .. . ... : ... .. . F01 ...
ROW 7E : G-4 0E C ... ... ... : ... .. . ... ... ... : ... .. . ... ... : ... .. . ... : ... .. . F02 ...
ROW 7F : ... .. . ... ... ... : ... .. . ... ... ... : ... .. . P7F ... : ... .. . ... : ... .. . F03 ...

PATTERN 1E
ROW 00 : A#4 0E . ... ... ... : ... .. . ... ... ... : G-2 01 . P80 ... : ... .. . ... : ... .. . F02 ...
ROW 01 : ... .. . ... ... ... : ... .. . ... ... ... : ... .. . ... ... : ... .. . ... : ... .. . F01 ...
ROW 02 : D-5 0E . ... ... ... : ... .. . ... ... ... : ... .. . ... ... : ... .. . ... : ... .. . F02 ...
ROW 03 : ... .. . ... ... ... : ... .. . ... ... ... : ... .. . P7F ... : ... .. . ... : ... .. . F03 ...
ROW 04 : A#4 0E . ... ... ... : ... .. . ... ... ... : C-2 01 . P80 ... : ... .. . ... : ... .. . F02 ...
ROW 05 : ... .. . ... ... ... : ... .. . ... ... ... : ... .. . ... ... : ... .. . ... : ... .. . F01 ...
ROW 06 : G-4 0E . ... ... ... : ... .. . ... ... ... : ... .. . ... ... : ... .. . ... : ... .. . F02 ...
ROW 07 : ... .. . ... ... ... : ... .. . ... ... ... : ... .. . P7F ... : ... .. . ... : ... .. . F03 ...
ROW 08 : D-4 0E . ... ... ... : ... .. 3 ... ... ... : G-2 01 . P80 ... : ... .. . ... : ... .. . F02 ...
ROW 09 : ... .. . ... ... ... : ... .. . ... ... ... : ... .. . ... ... : ... .. . ... : ... .. . F01 ...
ROW 0A : G-4 0E . ... ... ... : ... .. . ... ... ... : ... .. . ... ... : ... .. . ... : ... .. . F02 ...
ROW 0B : ... .. 1 ... ... ... : ... .. . ... ... ... : ... .. . P7F ... : ... .. . ... : ... .. . F03 ...
ROW 0C : G-2 0E F ... ... ... : G-4 0D 9 ... ... ... : D#3 01 . P80 ... : ... .. . ... : ... .. . F02 ...
ROW 0D : ... .. . ... ... ... : ... .. . ... ... ... : ... .. . ... ... : ... .. . ... : ... .. . F01 ...
ROW 0E : A#3 0E A ... ... ... : ... .. . ... ... ... : ... .. . ... ... : ... .. . ... : ... .. . F02 ...
ROW 0F : ... .. . ... ... ... : ... .. . ... ... ... : ... .. . P7F ... : ... .. . ... : ... .. . F03 ...
ROW 10 : D-4 0E . ... ... ... : ... .. . ... ... ... : G-2 01 . P80 ... : ... .. . ... : ... .. . F02 ...
ROW 11 : ... .. . ... ... ... : ... .. . ... ... ... : ... .. . ... ... : ... .. . ... : ... .. . F01 ...
ROW 12 : D#4 0E . ... ... ... : ... .. . ... ... ... : ... .. . ... ... : ... .. . ... : ... .. . F02 ...
ROW 13 : ... .. . ... ... ... : ... .. . ... ... ... : ... .. . P7F ... : ... .. . ... : ... .. . F03 ...
ROW 14 : G-4 0E . ... ... ... : ... .. . ... ... ... : D#3 01 . P80 ... : ... .. . ... : ... .. . F02 ...
ROW 15 : ... .. . ... ... ... : ... .. . ... ... ... : ... .. . ... ... : ... .. . ... : ... .. . F01 ...
ROW 16 : D#4 0E . ... ... ... : ... .. . ... ... ... : ... .. . ... ... : ... .. . ... : ... .. . F02 ...
ROW 17 : ... .. . ... ... ... : ... .. . ... ... ... : ... .. . P7F ... : ... .. . ... : ... .. . F03 ...
ROW 18 : D-4 0E . ... ... ... : ... .. . ... ... ... : A#3 01 . P80 ... : ... .. . ... : ... .. . F02 ...
ROW 19 : ... .. . ... ... ... : ... .. . ... ... ... : ... .. . ... ... : ... .. . ... : ... .. . F01 ...
ROW 1A : A#3 0E . ... ... ... : ... .. . ... ... ... : ... .. . ... ... : ... .. . ... : ... .. . F02 ...
ROW 1B : ... .. . ... ... ... : ... .. . ... ... ... : ... .. . P7F ... : ... .. . ... : ... .. . F03 ...
ROW 1C : G-3 0E . ... ... ... : ... .. . ... ... ... : D-4 01 . P80 ... : ... .. . ... : ... .. . F02 ...
ROW 1D : ... .. . ... ... ... : ... .. . ... ... ... : ... .. . ... ... : ... .. . ... : ... .. . F01 ...
ROW 1E : A#3 0E . ... ... ... : ... .. . ... ... ... : ... .. . P7F ... : ... .. . ... : ... .. . F02 ...
ROW 1F : ... .. . ... ... ... : ... .. . ... ... ... : --- .. . ... ... : ... .. . ... : ... .. . F03 ...
ROW 20 : D-4 0E . ... ... ... : ... .. . ... ... ... : D-4 01 . P80 ... : ... .. . ... : ... .. . F02 ...
ROW 21 : ... .. . ... ... ... : ... .. . ... ... ... : ... .. . ... ... : ... .. . ... : ... .. . F01 ...
ROW 22 : D#4 0E . ... ... ... : ... .. . ... ... ... : ... .. . ... ... : ... .. . ... : ... .. . F02 ...
ROW 23 : ... .. . ... ... ... : ... .. . ... ... ... : ... .. . P7F ... : ... .. . ... : ... .. . F03 ...
ROW 24 : G-4 0E . ... ... ... : ... .. . ... ... ... : G-3 01 . P80 ... : ... .. . ... : ... .. . F02 ...
ROW 25 : ... .. . ... ... ... : ... .. . ... ... ... : ... .. . ... ... : ... .. . ... : ... .. . F01 ...
ROW 26 : D#4 0E . ... ... ... : ... .. . ... ... ... : ... .. . ... ... : ... .. . ... : ... .. . F02 ...
ROW 27 : ... .. . ... ... ... : ... .. . ... ... ... : ... .. . P7F ... : ... .. . ... : ... .. . F03 ...
ROW 28 : D-4 0E . ... ... ... : ... .. . ... ... ... : G-2 01 . P80 ... : ... .. . ... : ... .. . F02 ...
ROW 29 : ... .. . ... ... ... : ... .. . ... ... ... : ... .. . ... ... : ... .. . ... : ... .. . F01 ...
ROW 2A : A#3 0E . ... ... ... : ... .. . ... ... ... : ... .. . ... ... : ... .. . ... : ... .. . F02 ...
ROW 2B : ... .. . ... ... ... : ... .. . ... ... ... : ... .. . P7F ... : ... .. . ... : ... .. . F03 ...
ROW 2C : G-3 0E . ... ... ... : ... .. . ... ... ... : A#3 01 . P80 ... : ... .. . ... : ... .. . F02 ...
ROW 2D : ... .. . ... ... ... : ... .. . ... ... ... : ... .. . ... ... : ... .. . ... : ... .. . F01 ...
ROW 2E : A#3 0E . ... ... ... : ... .. . ... ... ... : ... .. . P7F ... : ... .. . ... : ... .. . F02 ...
ROW 2F : ... .. . ... ... ... : ... .. . ... ... ... : --- .. . ... ... : ... .. . ... : ... .. . F03 ...
ROW 30 : D-4 0E . ... ... ... : ... .. . ... ... ... : A#3 01 . P80 ... : ... .. . ... : ... .. . F02 ...
ROW 31 : ... .. . ... ... ... : ... .. . ... ... ... : ... .. . ... ... : ... .. . ... : ... .. . F01 ...
ROW 32 : D#4 0E . ... ... ... : ... .. . ... ... ... : ... .. . ... ... : ... .. . ... : ... .. . F02 ...
ROW 33 : ... .. . ... ... ... : ... .. . ... ... ... : ... .. . P7F ... : ... .. . ... : ... .. . F03 ...
ROW 34 : G-4 0E . ... ... ... : ... .. 3 ... ... ... : D#3 01 . P80 ... : ... .. . ... : ... .. . F02 ...
ROW 35 : ... .. . ... ... ... : ... .. . ... ... ... : ... .. . ... ... : ... .. . ... : ... .. . F01 ...
ROW 36 : D#4 0E . ... ... ... : ... .. . ... ... ... : ... .. . ... ... : ... .. . ... : ... .. . F02 ...
ROW 37 : ... .. . ... ... ... : ... .. . ... ... ... : ... .. . P7F ... : ... .. . ... : ... .. . F03 ...
ROW 38 : D-4 0E . ... ... ... : ... .. . ... ... ... : C-2 01 . P80 ... : ... .. . ... : ... .. . F02 ...
ROW 39 : ... .. . ... ... ... : ... .. . ... ... ... : ... .. . ... ... : ... .. . ... : ... .. . F01 ...
ROW 3A : A#3 0E . ... ... ... : ... .. . ... ... ... : ... .. . ... ... : ... .. . ... : ... .. . F02 ...
ROW 3B : ... .. 1 ... ... ... : ... .. . ... ... ... : ... .. . ... ... : ... .. . ... : ... .. . F03 ...
ROW 3C : ... .. . ... ... ... : G-3 0D 9 ... ... ... : ... .. . ... ... : ... .. . ... : ... .. . F02 ...
ROW 3D : G-3 0E A ... ... ... : ... .. . ... ... ... : ... .. . ... ... : ... .. . ... : ... .. . F01 ...
ROW 3E : ... .. . ... ... ... : ... .. 3 ... ... ... : ... .. . P7F ... : ... .. . ... : ... .. . F02 ...
ROW 3F : ... .. . ... ... ... : ... .. . ... ... ... : --- .. . ... ... : ... .. . ... : ... .. . F03 ...
ROW 40 : D#2 0E F ... ... ... : D-4 0D 9 ... ... ... : F-2 01 . P80 ... : ... .. . ... : ... .. . F02 ...
ROW 41 : ... .. . ... ... ... : ... .. . ... ... ... : ... .. . ... ... : ... .. . ... : ... .. . F01 ...
ROW 42 : G-3 0E A ... ... ... : ... .. . ... ... ... : ... .. . ... ... : ... .. . ... : ... .. . F02 ...
ROW 43 : ... .. . ... ... ... : ... .. . ... ... ... : ... .. . P7F ... : ... .. . ... : ... .. . F03 ...
ROW 44 : A#3 0E . ... ... ... : ... .. . ... ... ... : D#3 01 . P80 ... : ... .. . ... : ... .. . F02 ...
ROW 45 : ... .. . ... ... ... : ... .. . ... ... ... : ... .. . ... ... : ... .. . ... : ... .. . F01 ...
ROW 46 : D-4 0E . ... ... ... : ... .. . ... ... ... : ... .. . ... ... : ... .. . ... : ... .. . F02 ...
ROW 47 : ... .. . ... ... ... : ... .. . ... ... ... : ... .. . P7F ... : ... .. . ... : ... .. . F03 ...
ROW 48 : A#3 0E . ... ... ... : ... .. 3 ... ... ... : G-3 01 . P80 ... : ... .. . ... : ... .. . F02 ...
ROW 49 : ... .. . ... ... ... : ... .. . ... ... ... : ... .. . ... ... : ... .. . ... : ... .. . F01 ...
ROW 4A : G-3 0E . ... ... ... : ... .. . ... ... ... : ... .. . ... ... : ... .. . ... : ... .. . F02 ...
ROW 4B : ... .. 1 ... ... ... : ... .. . ... ... ... : ... .. . P7F ... : ... .. . ... : ... .. . F03 ...
ROW 4C : D#3 0C A ... ... ... : G-3 0D 9 ... ... ... : A#3 01 . P80 ... : ... .. . ... : ... .. . F02 ...
ROW 4D : ... .. . ... ... ... : ... .. . ... ... ... : ... .. . ... ... : ... .. . ... : ... .. . F01 ...
ROW 4E : ... .. . ... ... ... : ... .. . ... ... ... : ... .. . ... ... : ... .. . ... : ... .. . F02 ...
ROW 4F : ... .. . ... ... ... : ... .. . ... ... ... : ... .. . P7F ... : ... .. . ... : ... .. . F03 ...
ROW 50 : ... .. . ... ... ... : ... .. . ... ... ... : G-3 01 . P80 ... : ... .. . ... : ... .. . F02 ...
ROW 51 : ... .. . ... ... ... : ... .. . ... ... ... : ... .. . ... ... : ... .. . ... : ... .. . F01 ...
ROW 52 : ... .. . ... ... ... : ... .. . ... ... ... : ... .. . ... ... : ... .. . ... : ... .. . F02 ...
ROW 53 : ... .. . ... ... ... : ... .. . ... ... ... : ... .. . P7F ... : ... .. . ... : ... .. . F03 ...
ROW 54 : ... .. . ... ... ... : ... .. . ... ... ... : D#3 01 . P80 ... : ... .. . ... : ... .. . F02 ...
ROW 55 : ... .. . ... ... ... : ... .. . ... ... ... : ... .. . ... ... : ... .. . ... : ... .. . F01 ...
ROW 56 : ... .. . ... ... ... : ... .. . ... ... ... : ... .. . ... ... : ... .. . ... : ... .. . F02 ...
ROW 57 : ... .. . ... ... ... : ... .. . ... ... ... : ... .. . P7F ... : ... .. . ... : ... .. . F03 ...
ROW 58 : ... .. . ... ... ... : ... .. . ... ... ... : F-2 01 . P80 ... : ... .. . ... : ... .. . F02 ...
ROW 59 : ... .. . ... ... ... : ... .. . ... ... ... : ... .. . ... ... : ... .. . ... : ... .. . F01 ...
ROW 5A : ... .. . ... ... ... : ... .. . ... ... ... : ... .. . ... ... : ... .. . ... : ... .. . F02 ...
ROW 5B : ... .. . ... ... ... : ... .. . ... ... ... : ... .. . ... ... : ... .. . ... : ... .. . F03 ...
ROW 5C : D-3 0C F ... ... ... : ... .. . ... ... ... : ... .. . ... ... : ... .. . ... : ... .. . F02 ...
ROW 5D : ... .. . ... ... ... : ... .. . ... ... ... : ... .. . ... ... : ... .. . ... : ... .. . F01 ...
ROW 5E : ... .. . ... ... ... : ... .. . ... ... ... : ... .. . P7F ... : ... .. . ... : ... .. . F02 ...
ROW 5F : --- .. . ... ... ... : ... .. . ... ... ... : --- .. . ... ... : ... .. . ... : ... .. . F03 ...
ROW 60 : D-3 0C . ... ... ... : ... .. . ... ... ... : D#3 01 . P80 ... : ... .. . ... : ... .. . F02 ...
ROW 61 : ... .. . ... ... ... : ... .. . ... ... ... : ... .. . ... ... : ... .. . ... : ... .. . F01 ...
ROW 62 : ... .. . ... ... ... : ... .. . ... ... ... : ... .. . ... ... : ... .. . ... : ... .. . F02 ...
ROW 63 : --- .. . ... ... ... : ... .. . ... ... ... : ... .. . P7F ... : ... .. . ... : ... .. . F03 ...
ROW 64 : G-2 0C . ... ... ... : ... .. . ... ... ... : --- .. . ... ... : ... .. . ... : ... .. . F02 ...
ROW 65 : ... .. . ... ... ... : ... .. . ... ... ... : ... .. . ... ... : ... .. . ... : ... .. . F01 ...
ROW 66 : ... .. . ... ... ... : ... .. . ... ... ... : ... .. . ... ... : ... .. . ... : ... .. . F02 ...
ROW 67 : ... .. . ... ... ... : ... .. . ... ... ... : ... .. . ... ... : ... .. . ... : ... .. . F03 ...
ROW 68 : --- .. . ... ... ... : ... .. 3 ... ... ... : F-2 01 . P80 ... : ... .. . ... : ... .. . F02 ...
ROW 69 : ... .. . ... ... ... : ... .. . ... ... ... : ... .. . ... ... : ... .. . ... : ... .. . F01 ...
ROW 6A : ... .. . ... ... ... : ... .. . ... ... ... : ... .. . ... ... : ... .. . ... : ... .. . F02 ...
ROW 6B : ... .. . ... ... ... : ... .. . ... ... ... : ... .. . P7F ... : ... .. . ... : ... .. . F03 ...
ROW 6C : C#3 0C . ... ... ... : ... .. 2 ... ... ... : --- .. . ... ... : ... .. . ... : ... .. . F02 ...
ROW 6D : ... .. . ... ... ... : ... .. . ... ... ... : ... .. . ... ... : ... .. . ... : ... .. . F01 ...
ROW 6E : ... .. . ... ... ... : ... .. . ... ... ... : ... .. . ... ... : ... .. . ... : ... .. . F02 ...
ROW 6F : --- .. . ... ... ... : ... .. . ... ... ... : ... .. . ... ... : ... .. . ... : ... .. . F03 ...
ROW 70 : C#3 0C . ... ... ... : ... .. 1 ... ... ... : D#3 01 . P80 ... : ... .. . ... : ... .. . F02 ...
ROW 71 : ... .. . ... ... ... : ... .. . ... ... ... : ... .. . ... ... : ... .. . ... : ... .. . F01 ...
ROW 72 : ... .. . ... ... ... : ... .. . ... ... ... : ... .. . ... ... : ... .. . ... : ... .. . F02 ...
ROW 73 : --- .. . ... ... ... : ... .. . ... ... ... : ... .. . P7F ... : ... .. . ... : ... .. . F03 ...
ROW 74 : F#2 0C . ... ... ... : ... .. 0 ... ... ... : --- .. . ... ... : ... .. . ... : ... .. . F02 ...
ROW 75 : ... .. . ... ... ... : ... .. . ... ... ... : ... .. . ... ... : ... .. . ... : ... .. . F01 ...
ROW 76 : ... .. . ... ... ... : ... .. . ... ... ... : ... .. . ... ... : ... .. . ... : ... .. . F02 ...
ROW 77 : ... .. . ... ... ... : ... .. . ... ... ... : ... .. . ... ... : ... .. . ... : ... .. . F03 ...
ROW 78 : --- .. . ... ... ... : ... .. . ... ... ... : F-2 01 . P80 ... : ... .. . ... : ... .. . F02 ...
ROW 79 : ... .. . ... ... ... : ... .. . ... ... ... : ... .. . ... ... : ... .. . ... : ... .. . F01 ...
ROW 7A : ... .. . ... ... ... : ... .. . ... ... ... : ... .. . ... ... : ... .. . ... : ... .. . F02 ...
ROW 7B : ... .. . ... ... ... : ... .. . ... ... ... : ... .. . P7F ... : ... .. . ... : ... .. . F03 ...
ROW 7C : F-3 0C . ... ... ... : ... .. . ... ... ... : --- .. . ... ... : ... .. . ... : ... .. . F02 ...
ROW 7D : ... .. . ... ... ... : ... .. . ... ... ... : ... .. . ... ... : ... .. . ... : ... .. . F01 ...
ROW 7E : C#3 0C . ... ... ... : ... .. . ... ... ... : ... .. . ... ... : ... .. . ... : ... .. . F02 ...
ROW 7F : ... .. . ... ... ... : ... .. . ... ... ... : ... .. . ... ... : ... .. . ... : ... .. . F03 ...

PATTERN 1F
ROW 00 : --- .. . ... ... ... : F-2 02 6 P80 ... ... : A#1 00 . P80 ... : ... .. . ... : ... .. . F02 ...
ROW 01 : ... .. . ... ... ... : ... .. . ... ... ... : ... .. . ... ... : ... .. . ... : ... .. . F01 ...
ROW 02 : ... .. . ... ... ... : ... .. 1 P7F ... ... : ... .. . ... ... : ... .. . ... : ... .. . F02 ...
ROW 03 : F-2 02 2 P80 V00 ... : ... .. . ... ... ... : ... .. . P7F ... : ... .. . ... : ... .. . F03 ...
ROW 04 : ... .. . ... ... ... : G-2 02 6 P80 ... ... : --- .. . ... ... : ... .. . ... : ... .. . F02 ...
ROW 05 : ... .. 1 P7E ... ... : ... .. . ... ... ... : ... .. . ... ... : ... .. . ... : ... .. . F01 ...
ROW 06 : ... .. . ... ... ... : ... .. 1 P7F ... ... : ... .. . ... ... : ... .. . ... : ... .. . F02 ...
ROW 07 : G-2 02 2 P80 ... ... : ... .. . ... ... ... : ... .. . ... ... : ... .. . ... : ... .. . F03 ...
ROW 08 : ... .. . ... ... ... : A#2 02 6 P80 ... ... : G-2 00 . P80 ... : ... .. . ... : ... .. . F02 ...
ROW 09 : ... .. 1 P7E ... ... : ... .. . ... ... ... : ... .. . ... ... : ... .. . ... : ... .. . F01 ...
ROW 0A : ... .. . ... ... ... : ... .. 1 P7F ... ... : ... .. . ... ... : ... .. . ... : ... .. . F02 ...
ROW 0B : A#2 02 2 P80 ... ... : ... .. . ... ... ... : ... .. . P7F ... : ... .. . ... : ... .. . F03 ...
ROW 0C : ... .. . ... ... ... : F-2 02 6 P80 ... ... : --- .. . ... ... : ... .. . ... : ... .. . F02 ...
ROW 0D : ... .. 1 P7E ... ... : ... .. . ... ... ... : ... .. . ... ... : ... .. . ... : ... .. . F01 ...
ROW 0E : ... .. . ... ... ... : ... .. 1 P7F ... ... : ... .. . ... ... : ... .. . ... : ... .. . F02 ...
ROW 0F : F-2 02 2 P80 ... ... : ... .. . ... ... ... : ... .. . ... ... : ... .. . ... : ... .. . F03 ...
ROW 10 : ... .. . ... ... ... : G-2 02 6 P80 ... ... : D-3 00 . P80 ... : ... .. . ... : ... .. . F02 ...
ROW 11 : ... .. 1 P7E ... ... : ... .. . ... ... ... : ... .. . ... ... : ... .. . ... : ... .. . F01 ...
ROW 12 : ... .. . ... ... ... : ... .. 1 P7F ... ... : ... .. . ... ... : ... .. . ... : ... .. . F02 ...
ROW 13 : G-2 02 2 P80 ... ... : ... .. . ... ... ... : ... .. . P7F ... : ... .. . ... : ... .. . F03 ...
ROW 14 : ... .. . ... ... ... : D-3 02 6 P80 ... ... : --- .. . ... ... : ... .. . ... : ... .. . F02 ...
ROW 15 : ... .. 1 P7E ... ... : ... .. . ... ... ... : ... .. . ... ... : ... .. . ... : ... .. . F01 ...
ROW 16 : ... .. . ... ... ... : ... .. 1 P7F ... ... : ... .. . ... ... : ... .. . ... : ... .. . F02 ...
ROW 17 : D-3 02 2 P80 ... ... : ... .. . ... ... ... : ... .. . ... ... : ... .. . ... : ... .. . F03 ...
ROW 18 : ... .. . ... ... ... : F-2 02 6 P80 ... ... : D-2 00 . P80 ... : ... .. . ... : ... .. . F02 ...
ROW 19 : ... .. 1 P7E ... ... : ... .. . ... ... ... : ... .. . ... ... : ... .. . ... : ... .. . F01 ...
ROW 1A : ... .. . ... ... ... : ... .. 1 P7F ... ... : ... .. . ... ... : ... .. . ... : ... .. . F02 ...
ROW 1B : F-2 02 2 P80 ... ... : ... .. . ... ... ... : ... .. . P7F ... : ... .. . ... : ... .. . F03 ...
ROW 1C : ... .. . ... ... ... : G-2 02 6 P80 ... ... : --- .. . ... ... : ... .. . ... : ... .. . F02 ...
ROW 1D : ... .. 1 P7E ... ... : ... .. . ... ... ... : ... .. . ... ... : ... .. . ... : ... .. . F01 ...
ROW 1E : ... .. . ... ... ... : ... .. 1 P7F ... ... : ... .. . ... ... : ... .. . ... : ... .. . F02 ...
ROW 1F : G-2 02 2 P80 ... ... : ... .. . ... ... ... : ... .. . ... ... : ... .. . ... : ... .. . F03 ...
ROW 20 : ... .. . ... ... ... : C-3 02 6 P80 ... ... : G-1 00 . P80 ... : ... .. . ... : ... .. . F02 ...
ROW 21 : ... .. 1 P7E ... ... : ... .. . ... ... ... : ... .. . ... ... : ... .. . ... : ... .. . F01 ...
ROW 22 : ... .. . ... ... ... : ... .. 1 P7F ... ... : ... .. . ... ... : ... .. . ... : ... .. . F02 ...
ROW 23 : C-3 02 2 P80 ... ... : ... .. . ... ... ... : ... .. . P7F ... : ... .. . ... : ... .. . F03 ...
ROW 24 : ... .. . ... ... ... : F-2 02 6 P80 ... ... : --- .. . ... ... : ... .. . ... : ... .. . F02 ...
ROW 25 : ... .. 1 P7E ... ... : ... .. . ... ... ... : ... .. . ... ... : ... .. . ... : ... .. . F01 ...
ROW 26 : ... .. . ... ... ... : ... .. 1 P7F ... ... : ... .. . ... ... : ... .. . ... : ... .. . F02 ...
ROW 27 : F-2 02 2 P80 ... ... : ... .. . ... ... ... : ... .. . ... ... : ... .. . ... : ... .. . F03 ...
ROW 28 : ... .. . ... ... ... : G-2 02 6 P80 ... ... : G-2 00 . P80 ... : ... .. . ... : ... .. . F02 ...
ROW 29 : ... .. 1 P7E ... ... : ... .. . ... ... ... : ... .. . ... ... : ... .. . ... : ... .. . F01 ...
ROW 2A : ... .. . ... ... ... : ... .. 1 P7F ... ... : ... .. . ... ... : ... .. . ... : ... .. . F02 ...
ROW 2B : G-2 02 2 P80 ... ... : ... .. . ... ... ... : ... .. . P7F ... : ... .. . ... : ... .. . F03 ...
ROW 2C : ... .. . ... ... ... : A#2 02 6 P80 ... ... : --- .. . ... ... : ... .. . ... : ... .. . F02 ...
ROW 2D : ... .. 1 P7E ... ... : ... .. . ... ... ... : ... .. . ... ... : ... .. . ... : ... .. . F01 ...
ROW 2E : ... .. . ... ... ... : ... .. . ... ... ... : ... .. . ... ... : ... .. . ... : ... .. . F02 ...
ROW 2F : A#2 02 2 P80 ... ... : ... .. . ... ... ... : ... .. . ... ... : ... .. . ... : ... .. . F03 ...
ROW 30 : ... .. . ... ... ... : ... .. 1 P7F ... ... : G-2 00 . P80 ... : ... .. . ... : ... .. . F02 ...
ROW 31 : ... .. . ... ... ... : ... .. . ... ... ... : ... .. . ... ... : ... .. . ... : ... .. . F01 ...
ROW 32 : ... .. . ... ... ... : ... .. . ... ... ... : ... .. . ... ... : ... .. . ... : ... .. . F02 ...
ROW 33 : ... .. 1 P7E ... ... : ... .. . ... ... ... : ... .. . P7F ... : ... .. . ... : ... .. . F03 ...
ROW 34 : ... .. . ... ... ... : C-3 02 6 P80 ... ... : --- .. . ... ... : ... .. . ... : ... .. . F02 ...
ROW 35 : ... .. . ... ... ... : ... .. . ... ... ... : ... .. . ... ... : ... .. . ... : ... .. . F01 ...
ROW 36 : ... .. . ... ... ... : ... .. 1 P7F ... ... : ... .. . ... ... : ... .. . ... : ... .. . F02 ...
ROW 37 : C-3 02 2 P80 ... ... : ... .. . ... ... ... : ... .. . ... ... : ... .. . ... : ... .. . F03 ...
ROW 38 : ... .. . ... ... ... : D-3 02 6 P80 ... ... : A#2 00 . P80 ... : ... .. . ... : ... .. . F02 ...
ROW 39 : ... .. 1 P7E ... ... : ... .. . ... ... ... : ... .. . ... ... : ... .. . ... : ... .. . F01 ...
ROW 3A : ... .. . ... ... ... : ... .. 1 P7F ... ... : ... .. . ... ... : ... .. . ... : ... .. . F02 ...
ROW 3B : D-3 02 2 P80 ... ... : ... .. . ... ... ... : ... .. . P7F ... : ... .. . ... : ... .. . F03 ...
ROW 3C : ... .. . ... ... ... : F-3 02 6 P80 ... ... : --- .. . ... ... : ... .. . ... : ... .. . F02 ...
ROW 3D : ... .. 1 P7E ... ... : ... .. . ... ... ... : ... .. . ... ... : ... .. . ... : ... .. . F01 ...
ROW 3E : ... .. . ... ... ... : ... .. 1 P7F ... ... : ... .. . ... ... : ... .. . ... : ... .. . F02 ...
ROW 3F : F-3 02 2 P80 ... ... : ... .. . ... ... ... : ... .. . ... ... : ... .. . ... : ... .. . F03 ...
ROW 40 : ... .. . ... ... ... : A#3 02 6 P80 ... ... : D#2 00 . P80 ... : ... .. . ... : ... .. . F02 ...
ROW 41 : ... .. 1 P7E ... ... : ... .. . ... ... ... : ... .. . ... ... : ... .. . ... : ... .. . F01 ...
ROW 42 : ... .. . ... ... ... : ... .. 1 P7F ... ... : ... .. . ... ... : ... .. . ... : ... .. . F02 ...
ROW 43 : ... .. . ... ... ... : ... .. . ... ... ... : ... .. . P7F ... : ... .. . ... : ... .. . F03 ...
ROW 44 : D-4 00 9 P80 ... ... : D-4 02 6 P80 ... ... : --- .. . ... ... : ... .. . ... : ... .. . F02 ...
ROW 45 : ... .. . ... ... ... : ... .. . ... ... ... : ... .. . ... ... : ... .. . ... : ... .. . F01 ...
ROW 46 : ... .. . ... ... ... : ... .. 1 P7F ... ... : ... .. . ... ... : ... .. . ... : ... .. . F02 ...
ROW 47 : ... .. . ... ... ... : ... .. . ... ... ... : ... .. . ... ... : ... .. . ... : ... .. . F03 ...
ROW 48 : ... .. . ... ... ... : F-3 02 6 P80 ... ... : A#2 00 . P80 ... : ... .. . ... : ... .. . F02 ...
ROW 49 : ... .. . ... ... ... : ... .. . ... ... ... : ... .. . ... ... : ... .. . ... : ... .. . F01 ...
ROW 4A : ... .. 1 P7F ... ... : ... .. 1 P7F ... ... : ... .. . ... ... : ... .. . ... : ... .. . F02 ...
ROW 4B : ... .. . ... ... ... : ... .. . ... ... ... : ... .. . P7F ... : ... .. . ... : ... .. . F03 ...
ROW 4C : ... .. . ... ... ... : G-3 02 6 P80 ... ... : --- .. . ... ... : ... .. . ... : ... .. . F02 ...
ROW 4D : ... .. . ... ... ... : ... .. . ... ... ... : ... .. . ... ... : ... .. . ... : ... .. . F01 ...
ROW 4E : ... .. . ... ... ... : ... .. 1 P7F ... ... : ... .. . ... ... : ... .. . ... : ... .. . F02 ...
ROW 4F : ... .. . ... ... ... : ... .. . ... ... ... : ... .. . ... ... : ... .. . ... : ... .. . F03 ...
ROW 50 : A#3 00 9 P80 ... ... : C-4 02 6 P80 ... ... : G-3 00 . P80 ... : ... .. . ... : ... .. . F02 ...
ROW 51 : ... .. . ... ... ... : ... .. . ... ... ... : ... .. . ... ... : ... .. . ... : ... .. . F01 ...
ROW 52 : C-4 00 . ... ... ... : ... .. 1 P7F ... ... : ... .. . ... ... : ... .. . ... : ... .. . F02 ...
ROW 53 : ... .. . ... ... ... : ... .. . ... ... ... : ... .. . P7F ... : ... .. . ... : ... .. . F03 ...
ROW 54 : ... .. . ... ... ... : F-3 02 6 P80 ... ... : --- .. . ... ... : ... .. . ... : ... .. . F02 ...
ROW 55 : ... .. . ... ... ... : ... .. . ... ... ... : ... .. . ... ... : ... .. . ... : ... .. . F01 ...
ROW 56 : ... .. 1 P7F ... ... : ... .. 1 P7F ... ... : ... .. . ... ... : ... .. . ... : ... .. . F02 ...
ROW 57 : ... .. . ... ... ... : ... .. . ... ... ... : ... .. . ... ... : ... .. . ... : ... .. . F03 ...
ROW 58 : ... .. . ... ... ... : G-3 02 6 P80 ... ... : D-4 00 . P80 ... : ... .. . ... : ... .. . F02 ...
ROW 59 : ... .. . ... ... ... : ... .. . ... ... ... : ... .. . ... ... : ... .. . ... : ... .. . F01 ...
ROW 5A : ... .. . ... ... ... : ... .. 1 P7F ... ... : ... .. . ... ... : ... .. . ... : ... .. . F02 ...
ROW 5B : ... .. . ... ... ... : ... .. . ... ... ... : ... .. . P7F ... : ... .. . ... : ... .. . F03 ...
ROW 5C : A#3 00 9 P80 ... ... : D#3 02 6 P80 ... ... : --- .. . ... ... : ... .. . ... : ... .. . F02 ...
ROW 5D : ... .. . ... ... ... : ... .. . ... ... ... : ... .. . ... ... : ... .. . ... : ... .. . F01 ...
ROW 5E : ... .. . ... ... ... : ... .. . ... ... ... : ... .. . ... ... : ... .. . ... : ... .. . F02 ...
ROW 5F : ... .. . ... ... ... : ... .. . ... ... ... : ... .. . ... ... : ... .. . ... : ... .. . F03 ...
ROW 60 : ... .. . ... ... ... : ... .. . ... ... ... : F-2 00 . P80 ... : ... .. . ... : ... .. . F02 ...
ROW 61 : ... .. . ... ... ... : ... .. . ... ... ... : ... .. . ... ... : ... .. . ... : ... .. . F01 ...
ROW 62 : ... .. . ... ... ... : ... .. . ... ... ... : ... .. . P7F ... : ... .. . ... : ... .. . F02 ...
ROW 63 : ... .. . ... ... ... : ... .. . ... ... ... : --- .. . ... ... : ... .. . ... : ... .. . F03 ...
ROW 64 : ... .. . ... ... ... : ... .. . ... ... ... : D#3 00 . P80 ... : ... .. . ... : ... .. . F02 ...
ROW 65 : ... .. . ... ... ... : ... .. . ... ... ... : ... .. . ... ... : ... .. . ... : ... .. . F01 ...
ROW 66 : ... .. . ... ... ... : ... .. . ... ... ... : ... .. . P7F ... : ... .. . ... : ... .. . F02 ...
ROW 67 : ... .. . ... ... ... : ... .. . ... ... ... : --- .. . ... ... : ... .. . ... : ... .. . F03 ...
ROW 68 : ... .. . ... ... ... : ... .. . ... ... ... : G-3 00 . P80 ... : ... .. . ... : ... .. . F02 ...
ROW 69 : ... .. . ... ... ... : ... .. . ... ... ... : ... .. . ... ... : ... .. . ... : ... .. . F01 ...
ROW 6A : ... .. . ... ... ... : ... .. . ... ... ... : ... .. . P7F ... : ... .. . ... : ... .. . F02 ...
ROW 6B : ... .. . ... ... ... : ... .. . ... ... ... : --- .. . ... ... : ... .. . ... : ... .. . F03 ...
ROW 6C : ... .. . ... ... ... : ... .. 1 P7F ... ... : A#3 00 . P80 ... : ... .. . ... : ... .. . F02 ...
ROW 6D : ... .. . ... ... ... : ... .. . ... ... ... : ... .. . ... ... : ... .. . ... : ... .. . F01 ...
ROW 6E : ... .. . ... ... ... : ... .. . ... ... ... : ... .. . P7F ... : ... .. . ... : ... .. . F02 ...
ROW 6F : ... .. . ... ... ... : ... .. . ... ... ... : --- .. . ... ... : ... .. . ... : ... .. . F03 ...
ROW 70 : ... .. . ... ... ... : G-3 02 6 P80 ... ... : D#4 00 . P80 ... : ... .. . ... : ... .. . F02 ...
ROW 71 : ... .. . ... ... ... : ... .. . ... ... ... : ... .. . ... ... : ... .. . ... : ... .. . F01 ...
ROW 72 : ... .. . ... ... ... : ... .. 1 P7F ... ... : ... .. . ... ... : ... .. . ... : ... .. . F02 ...
ROW 73 : ... .. . ... ... ... : ... .. . ... ... ... : ... .. . ... ... : ... .. . ... : ... .. . F03 ...
ROW 74 : ... .. 0 P7F ... ... : A#3 02 6 P80 ... ... : ... .. . ... ... : ... .. . ... : ... .. . F02 ...
ROW 75 : ... .. . ... ... ... : ... .. . ... ... ... : ... .. . ... ... : ... .. . ... : ... .. . F01 ...
ROW 76 : ... .. . ... ... ... : ... .. 1 P7F ... ... : ... .. . ... ... : ... .. . ... : ... .. . F02 ...
ROW 77 : ... .. . ... ... ... : ... .. . ... ... ... : ... .. . ... ... : ... .. . ... : ... .. . F03 ...
ROW 78 : ... .. . ... ... ... : C-4 02 6 P80 ... ... : ... .. . ... ... : ... .. . ... : ... .. . F02 ...
ROW 79 : ... .. . ... ... ... : ... .. . ... ... ... : ... .. . ... ... : ... .. . ... : ... .. . F01 ...
ROW 7A : ... .. . ... ... ... : ... .. 1 P7F ... ... : ... .. . ... ... : ... .. . ... : ... .. . F02 ...
ROW 7B : ... .. . ... ... ... : ... .. . ... ... ... : ... .. . P7F ... : ... .. . ... : ... .. . F03 ...
ROW 7C : ... .. . ... ... ... : D#4 02 6 P80 ... ... : --- .. . ... ... : ... .. . ... : ... .. . F02 ...
ROW 7D : ... .. . ... ... ... : ... .. . ... ... ... : ... .. . ... ... : ... .. . ... : ... .. . F01 ...
ROW 7E : ... .. . ... ... ... : ... .. 1 P7F ... ... : ... .. . ... ... : ... .. . ... : ... .. . F02 ...
ROW 7F : ... .. . ... ... ... : ... .. . ... ... ... : ... .. . ... ... : ... .. . ... : ... .. . F03 ...

PATTERN 20
ROW 00 : ... .. . ... ... ... : F-4 02 8 P80 ... ... : A#3 00 . P80 ... : ... .. . ... : ... .. . F02 ...
ROW 01 : ... .. . ... ... ... : ... .. . ... ... ... : ... .. . ... ... : ... .. . ... : ... .. . F01 ...
ROW 02 : ... .. . ... ... ... : ... .. 1 P7F ... ... : ... .. . ... ... : ... .. . ... : ... .. . F02 ...
ROW 03 : ... .. . ... ... ... : ... .. . ... ... ... : ... .. . P7F ... : ... .. . ... : ... .. . F03 ...
ROW 04 : ... .. . ... ... ... : G-4 02 8 P80 ... ... : --- .. . ... ... : ... .. . ... : ... .. . F02 ...
ROW 05 : ... .. . ... V00 ... : ... .. . ... ... ... : ... .. . ... ... : ... .. . ... : ... .. . F01 ...
ROW 06 : ... .. . ... ... ... : ... .. 1 P7F ... ... : ... .. . ... ... : ... .. . ... : ... .. . F02 ...
ROW 07 : ... .. . ... ... ... : ... .. . ... ... ... : ... .. . ... ... : ... .. . ... : ... .. . F03 ...
ROW 08 : A#4 00 8 P80 ... ... : A#4 02 8 P80 ... ... : F-4 00 . P80 ... : ... .. . ... : ... .. . F02 ...
ROW 09 : ... .. . ... ... ... : ... .. . ... ... ... : ... .. . ... ... : ... .. . ... : ... .. . F01 ...
ROW 0A : ... .. . ... ... ... : ... .. 1 P7F ... ... : ... .. . ... ... : ... .. . ... : ... .. . F02 ...
ROW 0B : ... .. . ... ... ... : ... .. . ... ... ... : ... .. . P7F ... : ... .. . ... : ... .. . F03 ...
ROW 0C : ... .. . ... ... ... : F-4 02 8 P80 ... ... : --- .. . ... ... : ... .. . ... : ... .. . F02 ...
ROW 0D : ... .. . ... ... ... : ... .. . ... ... ... : ... .. . ... ... : ... .. . ... : ... .. . F01 ...
ROW 0E : ... .. 1 P7F ... ... : ... .. 1 P7F ... ... : ... .. . ... ... : ... .. . ... : ... .. . F02 ...
ROW 0F : ... .. . ... ... ... : ... .. . ... ... ... : ... .. . ... ... : ... .. . ... : ... .. . F03 ...
ROW 10 : ... .. . ... ... ... : G-4 02 8 P80 ... ... : D-5 00 . P80 ... : ... .. . ... : ... .. . F02 ...
ROW 11 : ... .. . ... ... ... : ... .. . ... ... ... : ... .. . ... ... : ... .. . ... : ... .. . F01 ...
ROW 12 : ... .. . ... ... ... : ... .. 1 P7F ... ... : ... .. . ... ... : ... .. . ... : ... .. . F02 ...
ROW 13 : ... .. . ... ... ... : ... .. . ... ... ... : ... .. . P7F ... : ... .. . ... : ... .. . F03 ...
ROW 14 : D-5 00 8 P80 ... ... : D-5 02 8 P80 ... ... : --- .. . ... ... : ... .. . ... : ... .. . F02 ...
ROW 15 : ... .. . ... ... ... : ... .. . ... ... ... : ... .. . ... ... : ... .. . ... : ... .. . F01 ...
ROW 16 : ... .. . ... ... ... : ... .. 1 P7F ... ... : ... .. . ... ... : ... .. . ... : ... .. . F02 ...
ROW 17 : ... .. . ... ... ... : ... .. . ... ... ... : ... .. . ... ... : ... .. . ... : ... .. . F03 ...
ROW 18 : ... .. . ... ... ... : F-4 02 8 P80 ... ... : D-4 00 . P80 ... : ... .. . ... : ... .. . F02 ...
ROW 19 : ... .. . ... ... ... : ... .. . ... ... ... : ... .. . ... ... : ... .. . ... : ... .. . F01 ...
ROW 1A : ... .. 1 P7F ... ... : ... .. 1 P7F ... ... : ... .. . ... ... : ... .. . ... : ... .. . F02 ...
ROW 1B : ... .. . ... ... ... : ... .. . ... ... ... : ... .. . P7F ... : ... .. . ... : ... .. . F03 ...
ROW 1C : ... .. . ... ... ... : G-4 02 8 P80 ... ... : --- .. . ... ... : ... .. . ... : ... .. . F02 ...
ROW 1D : ... .. . ... ... ... : ... .. . ... ... ... : ... .. . ... ... : ... .. . ... : ... .. . F01 ...
ROW 1E : ... .. . ... ... ... : ... .. 1 P7F ... ... : ... .. . ... ... : ... .. . ... : ... .. . F02 ...
ROW 1F : ... .. . ... ... ... : ... .. . ... ... ... : ... .. . ... ... : ... .. . ... : ... .. . F03 ...
ROW 20 : A#4 00 8 P80 ... ... : C-5 02 8 P80 ... ... : E-3 00 . P80 ... : ... .. . ... : ... .. . F02 ...
ROW 21 : ... .. . ... ... ... : ... .. . ... ... ... : ... .. . ... ... : ... .. . ... : ... .. . F01 ...
ROW 22 : C-5 00 . ... ... ... : ... .. 1 P7F ... ... : ... .. . ... ... : ... .. . ... : ... .. . F02 ...
ROW 23 : ... .. . ... ... ... : ... .. . ... ... ... : ... .. . P7F ... : ... .. . ... : ... .. . F03 ...
ROW 24 : ... .. . ... ... ... : D-4 02 8 P80 ... ... : --- .. . ... ... : ... .. . ... : ... .. . F02 ...
ROW 25 : ... .. . ... ... ... : ... .. . ... ... ... : ... .. . ... ... : ... .. . ... : ... .. . F01 ...
ROW 26 : ... .. 1 P7F ... ... : ... .. 1 P7F ... ... : ... .. . ... ... : ... .. . ... : ... .. . F02 ...
ROW 27 : ... .. . ... ... ... : ... .. . ... ... ... : ... .. . ... ... : ... .. . ... : ... .. . F03 ...
ROW 28 : ... .. . ... ... ... : G-4 02 8 P80 ... ... : D-4 00 . P80 ... : ... .. . ... : ... .. . F02 ...
ROW 29 : ... .. . ... ... ... : ... .. . ... ... ... : ... .. . ... ... : ... .. . ... : ... .. . F01 ...
ROW 2A : ... .. . ... ... ... : ... .. 1 P7F ... ... : ... .. . ... ... : ... .. . ... : ... .. . F02 ...
ROW 2B : ... .. . ... ... ... : ... .. . ... ... ... : ... .. . P7F ... : ... .. . ... : ... .. . F03 ...
ROW 2C : A#4 00 8 P80 ... ... : A#4 02 8 P80 ... ... : --- .. . ... ... : ... .. . ... : ... .. . F02 ...
ROW 2D : ... .. . ... ... ... : ... .. . ... ... ... : ... .. . ... ... : ... .. . ... : ... .. . F01 ...
ROW 2E : ... .. . ... ... ... : ... .. . ... ... ... : ... .. . ... ... : ... .. . ... : ... .. . F02 ...
ROW 2F : ... .. . ... ... ... : ... .. . ... ... ... : ... .. . ... ... : ... .. . ... : ... .. . F03 ...
ROW 30 : ... .. . ... ... ... : ... .. 1 P7F ... ... : G-4 00 . P80 ... : ... .. . ... : ... .. . F02 ...
ROW 31 : ... .. . ... ... ... : ... .. . ... ... ... : ... .. . ... ... : ... .. . ... : ... .. . F01 ...
ROW 32 : ... .. . ... ... ... : ... .. . ... ... ... : ... .. . ... ... : ... .. . ... : ... .. . F02 ...
ROW 33 : ... .. . ... ... ... : ... .. . ... ... ... : ... .. . P7F ... : ... .. . ... : ... .. . F03 ...
ROW 34 : ... .. . ... ... ... : C-4 02 8 P80 ... ... : --- .. . ... ... : ... .. . ... : ... .. . F02 ...
ROW 35 : ... .. . ... ... ... : ... .. . ... ... ... : ... .. . ... ... : ... .. . ... : ... .. . F01 ...
ROW 36 : ... .. 1 P7F ... ... : ... .. 1 P7F ... ... : ... .. . ... ... : ... .. . ... : ... .. . F02 ...
ROW 37 : ... .. . ... ... ... : ... .. . ... ... ... : ... .. . ... ... : ... .. . ... : ... .. . F03 ...
ROW 38 : ... .. . ... ... ... : C#4 02 8 P80 ... ... : A#4 00 . P80 ... : ... .. . ... : ... .. . F02 ...
ROW 39 : ... .. . ... ... ... : ... .. . ... ... ... : ... .. . ... ... : ... .. . ... : ... .. . F01 ...
ROW 3A : ... .. . ... ... ... : ... .. 1 P7F ... ... : ... .. . ... ... : ... .. . ... : ... .. . F02 ...
ROW 3B : ... .. . ... ... ... : ... .. . ... ... ... : ... .. . P7F ... : ... .. . ... : ... .. . F03 ...
ROW 3C : ... .. . ... ... ... : D-4 02 8 P80 ... ... : --- .. . ... ... : ... .. . ... : ... .. . F02 ...
ROW 3D : ... .. . ... ... ... : ... .. . ... ... ... : ... .. . ... ... : ... .. . ... : ... .. . F01 ...
ROW 3E : ... .. . ... ... ... : ... .. 1 P7F ... ... : ... .. . ... ... : ... .. . ... : ... .. . F02 ...
ROW 3F : ... .. . ... ... ... : ... .. . ... ... ... : ... .. . ... ... : ... .. . ... : ... .. . F03 ...
ROW 40 : A#4 00 0 P80 ... ... : G-4 02 8 P80 ... ... : D#3 00 . P80 ... : ... .. . ... : ... .. . F02 ...
ROW 41 : ... .. . ... ... ... : ... .. . ... ... ... : ... .. . ... ... : ... .. . ... : ... .. . F01 ...
ROW 42 : ... .. . ... ... ... : ... .. 1 P7F ... ... : ... .. . ... ... : ... .. . ... : ... .. . F02 ...
ROW 43 : ... .. 1 P7F ... ... : ... .. . ... ... ... : ... .. . P7F ... : ... .. . ... : ... .. . F03 ...
ROW 44 : D-5 00 8 P80 ... ... : D-5 02 8 P80 ... ... : --- .. . ... ... : ... .. . ... : ... .. . F02 ...
ROW 45 : ... .. . ... ... ... : ... .. . ... ... ... : ... .. . ... ... : ... .. . ... : ... .. . F01 ...
ROW 46 : ... .. . ... ... ... : ... .. 1 P7F ... ... : ... .. . ... ... : ... .. . ... : ... .. . F02 ...
ROW 47 : ... .. . ... ... ... : ... .. . ... ... ... : ... .. . ... ... : ... .. . ... : ... .. . F03 ...
ROW 48 : ... .. . ... ... ... : D-4 02 8 P80 ... ... : A#3 00 . P80 ... : ... .. . ... : ... .. . F02 ...
ROW 49 : ... .. . ... ... ... : ... .. . ... ... ... : ... .. . ... ... : ... .. . ... : ... .. . F01 ...
ROW 4A : ... .. . ... ... ... : ... .. 1 P7F ... ... : ... .. . ... ... : ... .. . ... : ... .. . F02 ...
ROW 4B : ... .. . ... ... ... : ... .. . ... ... ... : ... .. . P7F ... : ... .. . ... : ... .. . F03 ...
ROW 4C : ... .. 1 P7F ... ... : G-4 02 8 P80 ... ... : --- .. . ... ... : ... .. . ... : ... .. . F02 ...
ROW 4D : ... .. . ... ... ... : ... .. . ... ... ... : ... .. . ... ... : ... .. . ... : ... .. . F01 ...
ROW 4E : ... .. . ... ... ... : ... .. 1 P7F ... ... : ... .. . ... ... : ... .. . ... : ... .. . F02 ...
ROW 4F : ... .. . ... ... ... : ... .. . ... ... ... : ... .. . ... ... : ... .. . ... : ... .. . F03 ...
ROW 50 : A#4 00 8 P80 ... ... : C-5 02 8 P80 ... ... : G-4 00 . P80 ... : ... .. . ... : ... .. . F02 ...
ROW 51 : ... .. . ... ... ... : ... .. . ... ... ... : ... .. . ... ... : ... .. . ... : ... .. . F01 ...
ROW 52 : C-5 00 . ... ... ... : ... .. 1 P7F ... ... : ... .. . ... ... : ... .. . ... : ... .. . F02 ...
ROW 53 : ... .. . ... ... ... : ... .. . ... ... ... : ... .. . P7F ... : ... .. . ... : ... .. . F03 ...
ROW 54 : ... .. . ... ... ... : C-4 02 8 P80 ... ... : --- .. . ... ... : ... .. . ... : ... .. . F02 ...
ROW 55 : ... .. . ... ... ... : ... .. . ... ... ... : ... .. . ... ... : ... .. . ... : ... .. . F01 ...
ROW 56 : ... .. . ... ... ... : ... .. 1 P7F ... ... : ... .. . ... ... : ... .. . ... : ... .. . F02 ...
ROW 57 : ... .. . ... ... ... : ... .. . ... ... ... : ... .. . ... ... : ... .. . ... : ... .. . F03 ...
ROW 58 : ... .. 1 P7F ... ... : G-4 02 8 P80 ... ... : A#3 00 . P80 ... : ... .. . ... : ... .. . F02 ...
ROW 59 : ... .. . ... ... ... : ... .. . ... ... ... : ... .. . ... ... : ... .. . ... : ... .. . F01 ...
ROW 5A : ... .. . ... ... ... : ... .. 1 P7F ... ... : ... .. . ... ... : ... .. . ... : ... .. . F02 ...
ROW 5B : ... .. . ... ... ... : ... .. . ... ... ... : ... .. . P7F ... : ... .. . ... : ... .. . F03 ...
ROW 5C : A#4 00 8 P80 ... ... : D#4 02 8 P80 ... ... : --- .. . ... ... : ... .. . ... : ... .. . F02 ...
ROW 5D : ... .. . ... ... ... : ... .. . ... ... ... : ... .. . ... ... : ... .. . ... : ... .. . F01 ...
ROW 5E : ... .. . ... ... ... : ... .. . ... ... ... : ... .. . ... ... : ... .. . ... : ... .. . F02 ...
ROW 5F : ... .. . ... ... ... : ... .. . ... ... ... : ... .. . ... ... : ... .. . ... : ... .. . F03 ...
ROW 60 : ... .. . ... ... ... : ... .. . ... ... ... : F-3 00 . P80 ... : ... .. . ... : ... .. . F02 ...
ROW 61 : ... .. . ... ... ... : ... .. . ... ... ... : ... .. . ... ... : ... .. . ... : ... .. . F01 ...
ROW 62 : ... .. . ... ... ... : ... .. . ... ... ... : ... .. . P7F ... : ... .. . ... : ... .. . F02 ...
ROW 63 : ... .. . ... ... ... : ... .. . ... ... ... : --- .. . ... ... : ... .. . ... : ... .. . F03 ...
ROW 64 : ... .. . ... ... ... : ... .. . ... ... ... : C-4 00 . P80 ... : ... .. . ... : ... .. . F02 ...
ROW 65 : ... .. . ... ... ... : ... .. . ... ... ... : ... .. . ... ... : ... .. . ... : ... .. . F01 ...
ROW 66 : ... .. . ... ... ... : ... .. . ... ... ... : ... .. . P7F ... : ... .. . ... : ... .. . F02 ...
ROW 67 : ... .. . ... ... ... : ... .. . ... ... ... : --- .. . ... ... : ... .. . ... : ... .. . F03 ...
ROW 68 : ... .. . ... ... ... : ... .. . ... ... ... : G-4 00 . P80 ... : ... .. . ... : ... .. . F02 ...
ROW 69 : ... .. . ... ... ... : ... .. . ... ... ... : ... .. . ... ... : ... .. . ... : ... .. . F01 ...
ROW 6A : ... .. . 454 ... ... : ... .. . ... ... ... : ... .. . P7F ... : ... .. . ... : ... .. . F02 ...
ROW 6B : ... .. . ... ... ... : ... .. . 454 ... ... : --- .. . ... ... : ... .. . ... : ... .. . F03 ...
ROW 6C : ... .. . ... ... ... : ... .. . ... ... ... : D#4 00 . P80 ... : ... .. . ... : ... .. . F02 ...
ROW 6D : ... .. . ... ... ... : ... .. . ... ... ... : ... .. . ... ... : ... .. . ... : ... .. . F01 ...
ROW 6E : ... .. . ... ... ... : ... .. . ... ... ... : ... .. . P7F ... : ... .. . ... : ... .. . F02 ...
ROW 6F : ... .. . ... ... ... : ... .. . ... ... ... : --- .. . ... ... : ... .. . ... : ... .. . F03 ...
ROW 70 : ... .. . ... ... ... : ... .. . ... ... ... : A#4 00 . P80 ... : ... .. . ... : ... .. . F02 ...
ROW 71 : ... .. . ... ... ... : ... .. . ... ... ... : ... .. . ... ... : ... .. . ... : ... .. . F01 ...
ROW 72 : ... .. 1 ... ... ... : ... .. 1 ... ... ... : ... .. . P7F ... : ... .. . ... : ... .. . F02 ...
ROW 73 : ... .. . ... ... ... : ... .. . ... ... ... : --- .. . ... ... : ... .. . ... : ... .. . F03 ...
ROW 74 : ... .. . ... ... ... : ... .. . ... ... ... : G-4 00 . P80 ... : ... .. . ... : ... .. . F02 ...
ROW 75 : ... .. . ... ... ... : ... .. . ... ... ... : ... .. . ... ... : ... .. . ... : ... .. . F01 ...
ROW 76 : ... .. . 400 ... ... : ... .. . 400 ... ... : ... .. . P7F ... : ... .. . ... : ... .. . F02 ...
ROW 77 : ... .. . ... ... ... : ... .. . ... ... ... : --- .. . ... ... : ... .. . ... : ... .. . F03 ...
ROW 78 : ... .. . P7F ... ... : ... .. . P7F ... ... : C-5 00 . P80 ... : ... .. . ... : ... .. . F02 ...
ROW 79 : ... .. . ... ... ... : ... .. . ... ... ... : ... .. . ... ... : ... .. . ... : ... .. . F01 ...
ROW 7A : ... .. . ... ... ... : ... .. . ... ... ... : ... .. . P7F ... : ... .. . ... : ... .. . F02 ...
ROW 7B : ... .. . ... ... ... : ... .. . ... ... ... : --- .. . ... ... : ... .. . ... : ... .. . F03 ...
ROW 7C : ... .. . ... ... ... : ... .. . ... ... ... : G-5 00 . P80 ... : ... .. . ... : ... .. . F02 ...
ROW 7D : ... .. . ... ... ... : ... .. . ... ... ... : ... .. . ... ... : ... .. . ... : ... .. . F01 ...
ROW 7E : ... .. 0 ... ... ... : ... .. 0 ... ... ... : ... .. . P7F ... : ... .. . ... : ... .. . F02 ...
ROW 7F : ... .. . ... ... ... : ... .. . ... ... ... : --- .. . ... ... : ... .. . ... : ... .. . F03 ...

PATTERN 21
ROW 00 : F-4 00 A P80 ... ... : D-4 02 A P80 ... ... : A#2 00 . P80 ... : ... .. . ... : ... .. . F02 ...
ROW 01 : ... .. . ... ... ... : ... .. . ... ... ... : ... .. . ... ... : ... .. . ... : ... .. . F01 ...
ROW 02 : ... .. . ... ... ... : ... .. 1 P7F ... ... : ... .. . ... ... : ... .. . ... : ... .. . F02 ...
ROW 03 : ... .. . ... ... ... : ... .. . ... ... ... : ... .. . P7F ... : ... .. . ... : ... .. . F03 ...
ROW 04 : ... .. . ... ... ... : F-3 02 A P80 ... ... : --- .. . ... ... : ... .. . ... : ... .. . F02 ...
ROW 05 : ... .. . ... ... ... : ... .. . ... ... ... : ... .. . ... ... : ... .. . ... : ... .. . F01 ...
ROW 06 : ... .. 1 P7F ... ... : ... .. 1 P7F ... ... : ... .. . ... ... : ... .. . ... : ... .. . F02 ...
ROW 07 : ... .. . ... ... ... : ... .. . ... ... ... : ... .. . ... ... : ... .. . ... : ... .. . F03 ...
ROW 08 : ... .. . ... ... ... : G-3 02 A P80 ... ... : F-3 00 . P80 ... : ... .. . ... : ... .. . F02 ...
ROW 09 : ... .. . ... ... ... : ... .. . ... ... ... : ... .. . ... ... : ... .. . ... : ... .. . F01 ...
ROW 0A : ... .. . ... ... ... : ... .. 1 P7F ... ... : ... .. . ... ... : ... .. . ... : ... .. . F02 ...
ROW 0B : ... .. . ... ... ... : ... .. . ... ... ... : ... .. . P7F ... : ... .. . ... : ... .. . F03 ...
ROW 0C : C-4 00 A P80 ... ... : A#3 02 A P80 ... ... : --- .. . ... ... : ... .. . ... : ... .. . F02 ...
ROW 0D : ... .. . ... ... ... : ... .. . ... ... ... : ... .. . ... ... : ... .. . ... : ... .. . F01 ...
ROW 0E : D-4 00 . ... ... ... : ... .. 1 P7F ... ... : ... .. . ... ... : ... .. . ... : ... .. . F02 ...
ROW 0F : ... .. . ... ... ... : ... .. . ... ... ... : ... .. . ... ... : ... .. . ... : ... .. . F03 ...
ROW 10 : ... .. . ... ... ... : F-3 02 A P80 ... ... : D-4 00 . P80 ... : ... .. . ... : ... .. . F02 ...
ROW 11 : ... .. . ... ... ... : ... .. . ... ... ... : ... .. . ... ... : ... .. . ... : ... .. . F01 ...
ROW 12 : ... .. 1 P7F ... ... : ... .. 1 P7F ... ... : ... .. . ... ... : ... .. . ... : ... .. . F02 ...
ROW 13 : ... .. . ... ... ... : ... .. . ... ... ... : ... .. . P7F ... : ... .. . ... : ... .. . F03 ...
ROW 14 : ... .. . ... ... ... : G-3 02 A P80 ... ... : --- .. . ... ... : ... .. . ... : ... .. . F02 ...
ROW 15 : ... .. . ... ... ... : ... .. . ... ... ... : ... .. . ... ... : ... .. . ... : ... .. . F01 ...
ROW 16 : ... .. . ... ... ... : ... .. 1 P7F ... ... : ... .. . ... ... : ... .. . ... : ... .. . F02 ...
ROW 17 : ... .. . ... ... ... : ... .. . ... ... ... : ... .. . ... ... : ... .. . ... : ... .. . F03 ...
ROW 18 : A#3 00 A P80 ... ... : D-3 02 A P80 ... ... : E-2 00 . P80 ... : ... .. . ... : ... .. . F02 ...
ROW 19 : ... .. . ... ... ... : ... .. . ... ... ... : ... .. . ... ... : ... .. . ... : ... .. . F01 ...
ROW 1A : ... .. . ... ... ... : ... .. . ... ... ... : ... .. . P7F ... : ... .. . ... : ... .. . F02 ...
ROW 1B : ... .. . ... ... ... : ... .. . ... ... ... : --- .. . ... ... : ... .. . ... : ... .. . F03 ...
ROW 1C : ... .. . ... ... ... : ... .. . ... ... ... : D-3 00 . P80 ... : ... .. . ... : ... .. . F02 ...
ROW 1D : ... .. . ... ... ... : ... .. . ... ... ... : ... .. . ... ... : ... .. . ... : ... .. . F01 ...
ROW 1E : ... .. . ... ... ... : ... .. . ... ... ... : ... .. . P7F ... : ... .. . ... : ... .. . F02 ...
ROW 1F : ... .. . ... ... ... : ... .. . ... ... ... : --- .. . ... ... : ... .. . ... : ... .. . F03 ...
ROW 20 : ... .. . ... ... ... : ... .. . ... ... ... : G-3 00 . P80 ... : ... .. . ... : ... .. . F02 ...
ROW 21 : ... .. . ... ... ... : ... .. . ... ... ... : ... .. . ... ... : ... .. . ... : ... .. . F01 ...
ROW 22 : ... .. . ... ... ... : ... .. . ... ... ... : ... .. . P7F ... : ... .. . ... : ... .. . F02 ...
ROW 23 : ... .. . ... ... ... : ... .. . ... ... ... : --- .. . ... ... : ... .. . ... : ... .. . F03 ...
ROW 24 : ... .. . ... ... ... : ... .. 1 P7F ... ... : A#3 00 . P80 ... : ... .. . ... : ... .. . F02 ...
ROW 25 : ... .. . ... ... ... : ... .. . ... ... ... : ... .. . ... ... : ... .. . ... : ... .. . F01 ...
ROW 26 : ... .. . ... ... ... : ... .. . ... ... ... : ... .. . P7F ... : ... .. . ... : ... .. . F02 ...
ROW 27 : ... .. . ... ... ... : ... .. . ... ... ... : --- .. . ... ... : ... .. . ... : ... .. . F03 ...
ROW 28 : ... .. . ... ... ... : G-3 02 A P80 ... ... : D-4 00 . P80 ... : ... .. . ... : ... .. . F02 ...
ROW 29 : ... .. . ... ... ... : ... .. . ... ... ... : ... .. . ... ... : ... .. . ... : ... .. . F01 ...
ROW 2A : ... .. . ... ... ... : ... .. 1 P7F ... ... : ... .. . ... ... : ... .. . ... : ... .. . F02 ...
ROW 2B : ... .. . ... ... ... : ... .. . ... ... ... : ... .. . ... ... : ... .. . ... : ... .. . F03 ...
ROW 2C : ... .. . ... ... ... : A#3 02 A P80 ... ... : ... .. . ... ... : ... .. . ... : ... .. . F02 ...
ROW 2D : ... .. . ... ... ... : ... .. . ... ... ... : ... .. . ... ... : ... .. . ... : ... .. . F01 ...
ROW 2E : ... .. . ... ... ... : ... .. 1 P7F ... ... : ... .. . ... ... : ... .. . ... : ... .. . F02 ...
ROW 2F : ... .. . ... ... ... : ... .. . ... ... ... : ... .. . ... ... : ... .. . ... : ... .. . F03 ...
ROW 30 : ... .. . ... ... ... : D-4 02 A P80 ... ... : ... .. . ... ... : ... .. . ... : ... .. . F02 ...
ROW 31 : ... .. . ... ... ... : ... .. . ... ... ... : ... .. . ... ... : ... .. . ... : ... .. . F01 ...
ROW 32 : ... .. 1 P7F ... ... : ... .. 1 P7F ... ... : ... .. . ... ... : ... .. . ... : ... .. . F02 ...
ROW 33 : ... .. . ... ... ... : ... .. . ... ... ... : ... .. . ... ... : ... .. . ... : ... .. . F03 ...
ROW 34 : D-4 02 3 P80 ... ... : G-4 02 A P80 ... ... : ... .. . ... ... : ... .. . ... : ... .. . F02 ...
ROW 35 : ... .. . ... ... ... : ... .. . ... ... ... : ... .. . ... ... : ... .. . ... : ... .. . F01 ...
ROW 36 : ... .. 1 P7E ... ... : ... .. 1 P7F ... ... : ... .. . ... ... : ... .. . ... : ... .. . F02 ...
ROW 37 : ... .. . ... ... ... : ... .. . ... ... ... : ... .. . P7F ... : ... .. . ... : ... .. . F03 ...
ROW 38 : G-4 02 3 P80 ... ... : A#4 02 A P80 ... ... : --- 00 . ... ... : ... .. . ... : ... .. . F02 ...
ROW 39 : ... .. . ... ... ... : ... .. . ... ... ... : ... .. . ... ... : ... .. . ... : ... .. . F01 ...
ROW 3A : ... .. 1 P7E ... ... : ... .. 1 P7F ... ... : ... .. . ... ... : ... .. . ... : ... .. . F02 ...
ROW 3B : ... .. . ... ... ... : ... .. . ... ... ... : ... .. . ... ... : ... .. . ... : ... .. . F03 ...
ROW 3C : A#4 02 3 P80 ... ... : G-5 02 A P80 ... ... : ... .. . ... ... : ... .. . ... : ... .. . F02 ...
ROW 3D : ... .. . ... ... ... : ... .. . ... ... ... : ... .. . ... ... : ... .. . ... : ... .. . F01 ...
ROW 3E : ... .. 1 P7E ... ... : ... .. 1 P7F ... ... : ... .. . ... ... : ... .. . ... : ... .. . F02 ...
ROW 3F : ... .. . ... ... ... : ... .. . ... ... ... : ... .. . ... ... : ... .. . ... : ... .. . F03 ...
ROW 40 : F-5 00 A P80 ... ... : D-5 02 A P80 ... ... : A#3 00 . P80 ... : ... .. . ... : ... .. . F02 ...
ROW 41 : ... .. . ... ... ... : ... .. . ... ... ... : ... .. . ... ... : ... .. . ... : ... .. . F01 ...
ROW 42 : ... .. . ... ... ... : ... .. 1 P7F ... ... : ... .. . ... ... : ... .. . ... : ... .. . F02 ...
ROW 43 : ... .. . ... ... ... : ... .. . ... ... ... : ... .. . P7F ... : ... .. . ... : ... .. . F03 ...
ROW 44 : ... .. . ... ... ... : F-4 02 A P80 ... ... : --- .. . ... ... : ... .. . ... : ... .. . F02 ...
ROW 45 : ... .. . ... ... ... : ... .. . ... ... ... : ... .. . ... ... : ... .. . ... : ... .. . F01 ...
ROW 46 : ... .. 1 ... ... ... : ... .. 1 P7F ... ... : ... .. . ... ... : ... .. . ... : ... .. . F02 ...
ROW 47 : ... .. . ... ... ... : ... .. . ... ... ... : ... .. . ... ... : ... .. . ... : ... .. . F03 ...
ROW 48 : ... .. . ... ... ... : G-4 02 A P80 ... ... : F-4 00 . P80 ... : ... .. . ... : ... .. . F02 ...
ROW 49 : ... .. . ... ... ... : ... .. . ... ... ... : ... .. . ... ... : ... .. . ... : ... .. . F01 ...
ROW 4A : ... .. . P7F ... ... : ... .. 1 P7F ... ... : ... .. . ... ... : ... .. . ... : ... .. . F02 ...
ROW 4B : ... .. . ... ... ... : ... .. . ... ... ... : ... .. . P7F ... : ... .. . ... : ... .. . F03 ...
ROW 4C : C-5 00 A P80 ... ... : A#4 02 A P80 ... ... : --- .. . ... ... : ... .. . ... : ... .. . F02 ...
ROW 4D : ... .. . ... ... ... : ... .. . ... ... ... : ... .. . ... ... : ... .. . ... : ... .. . F01 ...
ROW 4E : D-5 00 . ... ... ... : ... .. 1 P7F ... ... : ... .. . ... ... : ... .. . ... : ... .. . F02 ...
ROW 4F : ... .. . ... ... ... : ... .. . ... ... ... : ... .. . ... ... : ... .. . ... : ... .. . F03 ...
ROW 50 : ... .. . ... ... ... : D-4 02 A P80 ... ... : A#3 00 . P80 ... : ... .. . ... : ... .. . F02 ...
ROW 51 : ... .. . ... ... ... : ... .. . ... ... ... : ... .. . ... ... : ... .. . ... : ... .. . F01 ...
ROW 52 : ... .. 1 ... ... ... : ... .. 1 P7F ... ... : ... .. . ... ... : ... .. . ... : ... .. . F02 ...
ROW 53 : ... .. . ... ... ... : ... .. . ... ... ... : ... .. . P7F ... : ... .. . ... : ... .. . F03 ...
ROW 54 : ... .. . ... ... ... : F-4 02 A P80 ... ... : --- .. . ... ... : ... .. . ... : ... .. . F02 ...
ROW 55 : ... .. . ... ... ... : ... .. . ... ... ... : ... .. . ... ... : ... .. . ... : ... .. . F01 ...
ROW 56 : ... .. . P7F ... ... : ... .. 1 P7F ... ... : ... .. . ... ... : ... .. . ... : ... .. . F02 ...
ROW 57 : ... .. . ... ... ... : ... .. . ... ... ... : ... .. . ... ... : ... .. . ... : ... .. . F03 ...
ROW 58 : A#4 00 A P80 ... ... : A#3 02 A P80 ... ... : D#3 04 . P80 ... : ... .. . ... : ... .. . F02 ...
ROW 59 : ... .. . ... ... ... : ... .. . ... ... ... : ... .. . P7F ... : ... .. . ... : ... .. . F01 ...
ROW 5A : ... .. . ... ... ... : ... .. . ... ... ... : A#3 04 . G06 P80 : ... .. . ... : ... .. . F02 ...
ROW 5B : ... .. . ... ... ... : ... .. . ... ... ... : ... .. . ... ... : ... .. . ... : ... .. . F03 ...
ROW 5C : ... .. . ... ... ... : ... .. . ... ... ... : ... .. . ... P7F : ... .. . ... : ... .. . F02 ...
ROW 5D : ... .. . ... ... ... : ... .. . ... ... ... : C-4 04 . G03 P80 : ... .. . ... : ... .. . F01 ...
ROW 5E : ... .. . ... ... ... : ... .. . ... ... ... : ... .. . ... ... : ... .. . ... : ... .. . F02 ...
ROW 5F : ... .. . ... ... ... : ... .. . ... ... ... : ... .. . P7F ... : ... .. . ... : ... .. . F03 ...
ROW 60 : ... .. . ... ... ... : A#3 02 A ... P80 ... : G#4 04 . P80 ... : ... .. . ... : ... .. . F02 ...
ROW 61 : ... .. . ... ... ... : ... .. . ... ... ... : ... .. . ... ... : ... .. . ... : ... .. . F01 ...
ROW 62 : ... .. . ... ... ... : C-4 02 A G06 ... ... : ... .. . ... ... : ... .. . ... : ... .. . F02 ...
ROW 63 : ... .. . ... ... ... : ... .. . ... ... ... : ... .. . ... ... : ... .. . ... : ... .. . F03 ...
ROW 64 : ... .. . ... ... ... : ... .. . ... ... ... : ... .. . ... ... : ... .. . ... : ... .. . F02 ...
ROW 65 : ... .. . ... ... ... : D-4 02 A G03 ... ... : ... .. . ... ... : ... .. . ... : ... .. . F01 ...
ROW 66 : ... .. . ... ... ... : ... .. . ... ... ... : ... .. . ... ... : ... .. . ... : ... .. . F02 ...
ROW 67 : ... .. . ... ... ... : ... .. . ... ... ... : ... .. . ... ... : ... .. . ... : ... .. . F03 ...
ROW 68 : ... .. . ... ... ... : D#4 02 A ... ... ... : ... .. . ... ... : ... .. . ... : ... .. . F02 ...
ROW 69 : ... .. . ... ... ... : ... .. . ... ... ... : ... .. . ... ... : ... .. . ... : ... .. . F01 ...
ROW 6A : ... .. . ... ... ... : F-4 02 A G06 ... ... : ... .. . ... ... : ... .. . ... : ... .. . F02 ...
ROW 6B : ... .. . ... ... ... : ... .. . ... ... ... : ... .. . ... ... : ... .. . ... : ... .. . F03 ...
ROW 6C : ... .. . ... ... ... : ... .. . ... ... ... : ... .. . ... ... : ... .. . ... : ... .. . F02 ...
ROW 6D : ... .. . ... ... ... : G-4 02 A G03 ... ... : ... .. . ... ... : ... .. . ... : ... .. . F01 ...
ROW 6E : ... .. . ... ... ... : ... .. . ... ... ... : ... .. . P7F ... : ... .. . ... : ... .. . F02 ...
ROW 6F : ... .. . ... ... ... : ... .. . ... ... ... : --- .. . ... ... : ... .. . ... : ... .. . F03 ...
ROW 70 : ... .. 1 ... P7F ... : G#4 02 A ... ... ... : A#4 01 . P80 ... : ... .. . ... : ... .. . F02 ...
ROW 71 : G-4 02 3 G03 ... ... : ... .. . ... ... ... : ... .. . ... ... : ... .. . ... : ... .. . F01 ...
ROW 72 : ... .. . ... ... ... : A#4 02 A G06 ... ... : ... .. . ... ... : ... .. . ... : ... .. . F02 ...
ROW 73 : ... .. . ... ... ... : ... .. . ... ... ... : ... .. . P7F ... : ... .. . ... : ... .. . F03 ...
ROW 74 : G#4 02 . ... ... ... : ... .. . ... ... ... : --- .. . ... ... : ... .. . ... : ... .. . F02 ...
ROW 75 : ... .. . ... ... ... : C-5 02 A G03 ... ... : ... .. . ... ... : ... .. . ... : ... .. . F01 ...
ROW 76 : A#4 02 . G06 ... ... : ... .. . ... ... ... : ... .. . ... ... : ... .. . ... : ... .. . F02 ...
ROW 77 : ... .. . ... ... ... : ... .. . ... ... ... : ... .. . ... ... : ... .. . ... : ... .. . F03 ...
ROW 78 : ... .. . ... ... ... : D-5 02 A ... ... ... : G#4 01 . P80 ... : ... .. . ... : ... .. . F02 ...
ROW 79 : C-5 02 . G03 ... ... : ... .. . ... ... ... : ... .. . ... ... : ... .. . ... : ... .. . F01 ...
ROW 7A : ... .. . ... ... ... : D#5 02 A G06 ... ... : ... .. . ... ... : ... .. . ... : ... .. . F02 ...
ROW 7B : ... .. . ... ... ... : ... .. . ... ... ... : ... .. . P7F ... : ... .. . ... : ... .. . F03 ...
ROW 7C : D-5 02 . ... ... ... : ... .. . ... ... ... : --- .. . ... ... : ... .. . ... : ... .. . F02 ...
ROW 7D : ... .. . ... ... ... : C-5 02 A G03 ... ... : ... .. . ... ... : ... .. . ... : ... .. . F01 ...
ROW 7E : D#5 02 . G06 ... ... : ... .. . ... ... ... : ... .. . ... ... : ... .. . ... : ... .. . F02 ...
ROW 7F : ... .. . ... ... ... : ... .. . ... ... ... : ... .. . ... ... : ... .. . ... : ... .. . F03 ...

PATTERN 22
ROW 00 : F-5 00 F ... P80 ... : A#4 02 F ... ... ... : A#3 04 . P80 ... : ... .. . ... : ... .. . F02 ...
ROW 01 : ... .. . ... ... ... : ... .. . ... ... ... : ... .. . ... ... : ... .. . ... : ... .. . F01 ...
ROW 02 : ... .. . ... ... ... : ... .. . ... ... ... : ... .. . ... ... : ... .. . ... : ... .. . F02 ...
ROW 03 : ... .. . ... ... ... : ... .. . ... ... ... : ... .. . ... ... : ... .. . ... : ... .. . F03 ...
ROW 04 : ... .. . ... ... ... : ... .. . ... ... ... : ... .. . ... ... : ... .. . ... : ... .. . F02 ...
ROW 05 : ... .. . ... ... ... : ... .. . ... ... ... : ... .. . ... ... : ... .. . ... : ... .. . F01 ...
ROW 06 : ... .. . ... ... ... : ... .. . ... ... ... : ... .. . ... ... : ... .. . ... : ... .. . F02 ...
ROW 07 : --- .. . ... ... ... : --- .. . ... ... ... : ... .. . P7F ... : ... .. . ... : ... .. . F03 ...
ROW 08 : F-6 00 . ... ... ... : A#5 02 . ... ... ... : --- .. . ... ... : ... .. . ... : ... .. . F02 ...
ROW 09 : ... .. . ... ... ... : ... .. . ... ... ... : ... .. . ... ... : ... .. . ... : ... .. . F01 ...
ROW 0A : ... .. . ... ... ... : ... .. . ... ... ... : ... .. . ... ... : ... .. . ... : ... .. . F02 ...
ROW 0B : --- .. . ... ... ... : --- .. . ... ... ... : ... .. . ... ... : ... .. . ... : ... .. . F03 ...
ROW 0C : F-5 00 . ... ... ... : F-5 02 . ... ... ... : ... .. . ... ... : ... .. . ... : ... .. . F02 ...
ROW 0D : ... .. . ... ... ... : ... .. . ... ... ... : ... .. . ... ... : ... .. . ... : ... .. . F01 ...
ROW 0E : ... .. . ... ... ... : ... .. . ... ... ... : ... .. . ... ... : ... .. . ... : ... .. . F02 ...
ROW 0F : --- .. . ... ... ... : --- .. . ... ... ... : ... .. . ... ... : ... .. . ... : ... .. . F03 ...
ROW 10 : ... .. . ... ... ... : ... .. . ... ... ... : G-5 04 . P80 ... : ... .. . ... : ... .. . F02 ...
ROW 11 : ... .. . ... ... ... : ... .. . ... ... ... : ... .. . ... ... : ... .. . ... : ... .. . F01 ...
ROW 12 : ... .. . ... ... ... : ... .. . ... ... ... : ... .. . P7F ... : ... .. . ... : ... .. . F02 ...
ROW 13 : ... .. . ... ... ... : ... .. . ... ... ... : --- .. . ... ... : ... .. . ... : ... .. . F03 ...
ROW 14 : ... .. . ... ... ... : ... .. . ... ... ... : A#5 04 . P80 ... : ... .. . ... : ... .. . F02 ...
ROW 15 : ... .. . ... ... ... : ... .. . ... ... ... : ... .. . ... ... : ... .. . ... : ... .. . F01 ...
ROW 16 : ... .. . ... ... ... : ... .. . ... ... ... : ... .. . P7F ... : ... .. . ... : ... .. . F02 ...
ROW 17 : ... .. . ... ... ... : ... .. . ... ... ... : --- .. . ... ... : ... .. . ... : ... .. . F03 ...
ROW 18 : ... .. . ... ... ... : ... .. . ... ... ... : F-5 04 . P80 ... : ... .. . ... : ... .. . F02 ...
ROW 19 : ... .. . ... ... ... : ... .. . ... ... ... : ... .. . ... ... : ... .. . ... : ... .. . F01 ...
ROW 1A : ... .. . ... ... ... : ... .. . ... ... ... : ... .. . P7F ... : ... .. . ... : ... .. . F02 ...
ROW 1B : ... .. . ... ... ... : ... .. . ... ... ... : --- .. . ... ... : ... .. . ... : ... .. . F03 ...
ROW 1C : ... .. . ... ... ... : ... .. . ... ... ... : D-4 04 . P80 ... : ... .. . ... : ... .. . F02 ...
ROW 1D : ... .. . ... ... ... : ... .. . ... ... ... : ... .. . ... ... : ... .. . ... : ... .. . F01 ...
ROW 1E : ... .. . ... ... ... : ... .. . ... ... ... : ... .. . P7F ... : ... .. . ... : ... .. . F02 ...
ROW 1F : ... .. . ... ... ... : ... .. . ... ... ... : --- .. . ... ... : ... .. . ... : ... .. . F03 ...
ROW 20 : ... .. . ... ... ... : A-2 02 . ... ... ... : ... .. . ... ... : ... .. . ... : ... .. . F02 ...
ROW 21 : ... .. . ... ... ... : ... .. . ... ... ... : ... .. . ... ... : ... .. . ... : ... .. . F01 ...
ROW 22 : ... .. . ... ... ... : ... .. . ... ... ... : ... .. . ... ... : ... .. . ... : ... .. . F02 ...
ROW 23 : ... .. . ... ... ... : --- .. . ... ... ... : ... .. . ... ... : ... .. . ... : ... .. . F03 ...
ROW 24 : F-3 00 . ... ... ... : A#2 02 . ... ... ... : ... .. . ... ... : ... .. . ... : ... .. . F02 ...
ROW 25 : ... .. . ... ... ... : ... .. . ... ... ... : ... .. . ... ... : ... .. . ... : ... .. . F01 ...
ROW 26 : ... .. . ... ... ... : ... .. . ... ... ... : ... .. . ... ... : ... .. . ... : ... .. . F02 ...
ROW 27 : --- .. . ... ... ... : --- .. . ... ... ... : ... .. . ... ... : ... .. . ... : ... .. . F03 ...
ROW 28 : ... .. . ... ... ... : G-2 02 . ... ... ... : D-3 04 . P80 ... : ... .. . ... : ... .. . F02 ...
ROW 29 : ... .. . ... ... ... : ... .. . ... ... ... : ... .. . ... ... : ... .. . ... : ... .. . F01 ...
ROW 2A : ... .. . ... ... ... : ... .. . ... ... ... : ... .. . P7F ... : ... .. . ... : ... .. . F02 ...
ROW 2B : ... .. . ... ... ... : ... .. . ... ... ... : --- .. . ... ... : ... .. . ... : ... .. . F03 ...
ROW 2C : ... .. . ... ... ... : --- .. . ... ... ... : E-2 04 . P80 ... : ... .. . ... : ... .. . F02 ...
ROW 2D : ... .. . ... ... ... : ... .. . ... ... ... : ... .. . ... ... : ... .. . ... : ... .. . F01 ...
ROW 2E : ... .. . ... ... ... : ... .. . ... ... ... : ... .. . P7F ... : ... .. . ... : ... .. . F02 ...
ROW 2F : ... .. . ... ... ... : ... .. . ... ... ... : --- .. . ... ... : ... .. . ... : ... .. . F03 ...
ROW 30 : ... .. . ... ... ... : ... .. . ... ... ... : F-2 04 . P80 ... : ... .. . ... : ... .. . F02 ...
ROW 31 : ... .. . ... ... ... : ... .. . ... ... ... : ... .. . ... ... : ... .. . ... : ... .. . F01 ...
ROW 32 : ... .. . ... ... ... : ... .. . ... ... ... : ... .. . P7F ... : ... .. . ... : ... .. . F02 ...
ROW 33 : ... .. . ... ... ... : ... .. . ... ... ... : --- .. . ... ... : ... .. . ... : ... .. . F03 ...
ROW 34 : ... .. . ... ... ... : ... .. . ... ... ... : F#2 04 . P80 ... : ... .. . ... : ... .. . F02 ...
ROW 35 : ... .. . ... ... ... : ... .. . ... ... ... : ... .. . ... ... : ... .. . ... : ... .. . F01 ...
ROW 36 : ... .. . ... ... ... : ... .. . ... ... ... : ... .. . P7F ... : ... .. . ... : ... .. . F02 ...
ROW 37 : ... .. . ... ... ... : ... .. . ... ... ... : --- .. . ... ... : ... .. . ... : ... .. . F03 ...
ROW 38 : ... .. . ... ... ... : ... .. . ... ... ... : F-2 04 . P80 ... : ... .. . ... : ... .. . F02 ...
ROW 39 : ... .. . ... ... ... : ... .. . ... ... ... : ... .. . ... ... : ... .. . ... : ... .. . F01 ...
ROW 3A : ... .. . ... ... ... : ... .. . ... ... ... : ... .. . P7F ... : ... .. . ... : ... .. . F02 ...
ROW 3B : ... .. . ... ... ... : ... .. . ... ... ... : --- .. . ... ... : ... .. . ... : ... .. . F03 ...
ROW 3C : ... .. . ... ... ... : ... .. . ... ... ... : F-1 04 . P80 ... : ... .. . ... : ... .. . F02 ...
ROW 3D : ... .. . ... ... ... : ... .. . ... ... ... : ... .. . ... ... : ... .. . ... : ... .. . F01 ...
ROW 3E : ... .. . ... ... ... : ... .. . ... ... ... : ... .. . P7F ... : ... .. . ... : ... .. . F02 ...
ROW 3F : ... .. . ... ... ... : ... .. . ... ... ... : --- 04 . ... ... : ... .. . ... : ... .. . F03 ...
ROW 40 : ... .. . ... ... ... : A#1 02 . ... ... ... : A#0 04 . ... ... : ... .. . ... : ... .. . F02 ...
ROW 41 : ... .. . ... ... ... : ... .. . ... ... ... : ... .. . ... ... : ... .. . ... : ... .. . F01 ...
ROW 42 : ... .. . ... ... ... : ... .. . ... ... ... : ... .. . ... ... : ... .. . ... : ... .. . F02 ...
ROW 43 : ... .. . ... ... ... : ... .. . ... ... ... : ... .. . P7F ... : ... .. . ... : ... .. . F03 ...
ROW 44 : ... .. . ... ... ... : --- .. . ... ... ... : --- .. . ... ... : ... .. . ... : ... .. . F02 ...
ROW 45 : ... .. . ... ... ... : ... .. . ... ... ... : ... .. . ... ... : ... .. . ... : ... .. . F01 ...
ROW 46 : ... .. . ... ... ... : ... .. . ... ... ... : ... .. . ... ... : ... .. . ... : ... .. . F02 ...
ROW 47 : ... .. . ... ... ... : ... .. . ... ... ... : ... .. . ... ... : ... .. . ... : ... .. . F03 ...
ROW 48 : ... .. . ... ... ... : ... .. . ... ... ... : ... .. . ... ... : ... .. . ... : ... .. . F02 ...
ROW 49 : ... .. . ... ... ... : ... .. . ... ... ... : ... .. . ... ... : ... .. . ... : ... .. . F01 ...
ROW 4A : ... .. . ... ... ... : ... .. . ... ... ... : ... .. . ... ... : ... .. . ... : ... .. . F02 ...
ROW 4B : ... .. . ... ... ... : ... .. . ... ... ... : ... .. . ... ... : ... .. . ... : ... .. . F03 ...
ROW 4C : ... .. . ... ... ... : ... .. . ... ... ... : ... .. . ... ... : ... .. . ... : ... .. . F02 ...
ROW 4D : ... .. . ... ... ... : ... .. . ... ... ... : ... .. . ... ... : ... .. . ... : ... .. . F01 ...
ROW 4E : ... .. . ... ... ... : ... .. . ... ... ... : ... .. . ... ... : ... .. . ... : ... .. . F02 ...
ROW 4F : ... .. . ... ... ... : ... .. . ... ... C00 : ... .. . ... ... : ... .. . ... : ... .. . F03 ...
ROW 50 : ... .. . ... ... ... : ... .. . ... ... ... : ... .. . ... ... : ... .. . ... : ... .. . F02 ...
ROW 51 : ... .. . ... ... ... : ... .. . ... ... ... : ... .. . ... ... : ... .. . ... : ... .. . F01 ...
ROW 52 : ... .. . ... ... ... : ... .. . ... ... ... : ... .. . ... ... : ... .. . ... : ... .. . F02 ...
ROW 53 : ... .. . ... ... ... : ... .. . ... ... ... : ... .. . ... ... : ... .. . ... : ... .. . F03 ...
ROW 54 : ... .. . ... ... ... : ... .. . ... ... ... : ... .. . ... ... : ... .. . ... : ... .. . F02 ...
ROW 55 : ... .. . ... ... ... : ... .. . ... ... ... : ... .. . ... ... : ... .. . ... : ... .. . F01 ...
ROW 56 : ... .. . ... ... ... : ... .. . ... ... ... : ... .. . ... ... : ... .. . ... : ... .. . F02 ...
ROW 57 : ... .. . ... ... ... : ... .. . ... ... ... : ... .. . ... ... : ... .. . ... : ... .. . F03 ...
ROW 58 : ... .. . ... ... ... : ... .. . ... ... ... : ... .. . ... ... : ... .. . ... : ... .. . F02 ...
ROW 59 : ... .. . ... ... ... : ... .. . ... ... ... : ... .. . ... ... : ... .. . ... : ... .. . F01 ...
ROW 5A : ... .. . ... ... ... : ... .. . ... ... ... : ... .. . ... ... : ... .. . ... : ... .. . F02 ...
ROW 5B : ... .. . ... ... ... : ... .. . ... ... ... : ... .. . ... ... : ... .. . ... : ... .. . F03 ...
ROW 5C : ... .. . ... ... ... : ... .. . ... ... ... : ... .. . ... ... : ... .. . ... : ... .. . F02 ...
ROW 5D : ... .. . ... ... ... : ... .. . ... ... ... : ... .. . ... ... : ... .. . ... : ... .. . F01 ...
ROW 5E : ... .. . ... ... ... : ... .. . ... ... ... : ... .. . ... ... : ... .. . ... : ... .. . F02 ...
ROW 5F : ... .. . ... ... ... : ... .. . ... ... ... : ... .. . ... ... : ... .. . ... : ... .. . F03 ...
ROW 60 : ... .. . ... ... ... : ... .. . ... ... ... : ... .. . ... ... : ... .. . ... : ... .. . F02 ...
ROW 61 : ... .. . ... ... ... : ... .. . ... ... ... : ... .. . ... ... : ... .. . ... : ... .. . F01 ...
ROW 62 : ... .. . ... ... ... : ... .. . ... ... ... : ... .. . ... ... : ... .. . ... : ... .. . F02 ...
ROW 63 : ... .. . ... ... ... : ... .. . ... ... ... : ... .. . ... ... : ... .. . ... : ... .. . F03 ...
ROW 64 : ... .. . ... ... ... : ... .. . ... ... ... : ... .. . ... ... : ... .. . ... : ... .. . F02 ...
ROW 65 : ... .. . ... ... ... : ... .. . ... ... ... : ... .. . ... ... : ... .. . ... : ... .. . F01 ...
ROW 66 : ... .. . ... ... ... : ... .. . ... ... ... : ... .. . ... ... : ... .. . ... : ... .. . F02 ...
ROW 67 : ... .. . ... ... ... : ... .. . ... ... ... : ... .. . ... ... : ... .. . ... : ... .. . F03 ...
ROW 68 : ... .. . ... ... ... : ... .. . ... ... ... : ... .. . ... ... : ... .. . ... : ... .. . F02 ...
ROW 69 : ... .. . ... ... ... : ... .. . ... ... ... : ... .. . ... ... : ... .. . ... : ... .. . F01 ...
ROW 6A : ... .. . ... ... ... : ... .. . ... ... ... : ... .. . ... ... : ... .. . ... : ... .. . F02 ...
ROW 6B : ... .. . ... ... ... : ... .. . ... ... ... : ... .. . ... ... : ... .. . ... : ... .. . F03 ...
ROW 6C : ... .. . ... ... ... : ... .. . ... ... ... : ... .. . ... ... : ... .. . ... : ... .. . F02 ...
ROW 6D : ... .. . ... ... ... : ... .. . ... ... ... : ... .. . ... ... : ... .. . ... : ... .. . F01 ...
ROW 6E : ... .. . ... ... ... : ... .. . ... ... ... : ... .. . ... ... : ... .. . ... : ... .. . F02 ...
ROW 6F : ... .. . ... ... ... : ... .. . ... ... ... : ... .. . ... ... : ... .. . ... : ... .. . F03 ...
ROW 70 : ... .. . ... ... ... : ... .. . ... ... ... : ... .. . ... ... : ... .. . ... : ... .. . F02 ...
ROW 71 : ... .. . ... ... ... : ... .. . ... ... ... : ... .. . ... ... : ... .. . ... : ... .. . F01 ...
ROW 72 : ... .. . ... ... ... : ... .. . ... ... ... : ... .. . ... ... : ... .. . ... : ... .. . F02 ...
ROW 73 : ... .. . ... ... ... : ... .. . ... ... ... : ... .. . ... ... : ... .. . ... : ... .. . F03 ...
ROW 74 : ... .. . ... ... ... : ... .. . ... ... ... : ... .. . ... ... : ... .. . ... : ... .. . F02 ...
ROW 75 : ... .. . ... ... ... : ... .. . ... ... ... : ... .. . ... ... : ... .. . ... : ... .. . F01 ...
ROW 76 : ... .. . ... ... ... : ... .. . ... ... ... : ... .. . ... ... : ... .. . ... : ... .. . F02 ...
ROW 77 : ... .. . ... ... ... : ... .. . ... ... ... : ... .. . ... ... : ... .. . ... : ... .. . F03 ...
ROW 78 : ... .. . ... ... ... : ... .. . ... ... ... : ... .. . ... ... : ... .. . ... : ... .. . F02 ...
ROW 79 : ... .. . ... ... ... : ... .. . ... ... ... : ... .. . ... ... : ... .. . ... : ... .. . F01 ...
ROW 7A : ... .. . ... ... ... : ... .. . ... ... ... : ... .. . ... ... : ... .. . ... : ... .. . F02 ...
ROW 7B : ... .. . ... ... ... : ... .. . ... ... ... : ... .. . ... ... : ... .. . ... : ... .. . F03 ...
ROW 7C : ... .. . ... ... ... : ... .. . ... ... ... : ... .. . ... ... : ... .. . ... : ... .. . F02 ...
ROW 7D : ... .. . ... ... ... : ... .. . ... ... ... : ... .. . ... ... : ... .. . ... : ... .. . F01 ...
ROW 7E : ... .. . ... ... ... : ... .. . ... ... ... : ... .. . ... ... : ... .. . ... : ... .. . F02 ...
ROW 7F : ... .. . ... ... ... : ... .. . ... ... ... : ... .. . ... ... : ... .. . ... : ... .. . F03 ...

# End of export
