# FamiTracker text export 0.4.2

# Song information
TITLE           "F%!& Dis S#!%"
AUTHOR          "SriK"
COPYRIGHT       "2012"

# Song comment
COMMENT ""

# Global settings
MACHINE         0
FRAMERATE       0
EXPANSION       4
VIBRATO         1
SPLIT           21

# Macros
MACRO       0   0  -1  -1   0 : 15 10 6 4 0
MACRO       0   1  -1  -1   0 : 15 13 11 10 8 6 5 4 2 0
MACRO       0   2  -1  -1   0 : 15 15 13 12 11 10 8 7 6 5 5 4 4 3 3 2 2 2 2 1 1 1 1 1 0
MACRO       0   3  -1  -1   0 : 15 12
MACRO       0   4  -1  -1   0 : 2 7 13 15
MACRO       0   5  -1  -1   0 : 15 14
MACRO       0   6  -1  -1   0 : 0
MACRO       0   7  -1  -1   0 : 15 14 12 8 6 4 2 0
MACRO       0   8  -1  -1   0 : 15 14 11 8 4 0
MACRO       1   0   0  -1   0 : 0 -4 -4 -7 -7 0 0 -4 -7 -7 0 0 -4 -4 -7
MACRO       1   1  -1  -1   0 : 12 0
MACRO       1   2  -1  -1   0 : 0 1
MACRO       1   3  -1  -1   0 : -2 0
MACRO       1   4   0  -1   0 : 0 -3 -3 -7 -7 0 0 -3 -7 -7 0 0 -3 -3 -7
MACRO       1   5  -1  -1   0 : -1 1 2 3
MACRO       1   6   0  -1   0 : 0 0 -5 -5 -8 -8
MACRO       1   7  -1  -1   0 : 0
MACRO       1   8   0  -1   0 : 0 0 -5 -9 0 -5 -5 -9 0 -5 -9 -9
MACRO       1   9   0  -1   0 : 0 0 -3 -7 0 -3 -3 -7 0 -3 -7 -7
MACRO       1  10  -1  -1   0 : 4 0
MACRO       1  11   0  -1   0 : 0 0 -4 -9 0 -4 -4 -9 0 -4 -9 -9
MACRO       1  12   0  -1   0 : 0 0 -5 -8 0 -5 -5 -8 0 -5 -8 -8
MACRO       1  13   0  -1   0 : 0 0 -3 -3
MACRO       1  14   0  -1   0 : 0 0 -4 -4
MACRO       1  15   0  -1   0 : 0 0 -3 -3 -8 -8 -12 -12
MACRO       1  16   0  -1   0 : 0 0 -5 -5
MACRO       1  17   0  -1   0 : 0 0 -5 -9 0 -5 -5 -9 0 -5 -9 -9
MACRO       1  18   0  -1   0 : 0 0 -4 -9 0 -4 -4 -9 0 -4 -9 -9
MACRO       1  19   0  -1   0 : 0 0 -3 -7 0 -3 -3 -7 0 -3 -7 -7
MACRO       1  20   0  -1   0 : 0 0 -4 -7 0 -4 -4 -7 0 -4 -7 -7
MACRO       1  21  -1  -1   0 : -4 -2 0
MACRO       1  22  -1  -1   0 : -8 -4 0
MACRO       4   0  -1  -1   0 : 1 0
MACRO       4   1  -1  -1   0 : 0 1
MACRO       4   2  -1  -1   0 : 2
MACRO       4   3  -1  -1   0 : 2 1
MACRO       4   4  -1  -1   0 : 3 2 1 0
MACRO       4   5   0  -1   0 : 1 1 1 1 0 0 0 0 1 1 1 1 2 2 2 2
MACRO       4   6  -1  -1   0 : 1 2

# DPCM samples
DPCMDEF   0  4081 "G#D#B3"
DPCM : 55 55 55 55 55 55 55 55 95 AA 6A 55 55 55 B5 AA 4A 55 AD AA 54 55 55 55 95 A4 55 B5 AA AA 6A DD
DPCM : AA 2A AB 4A 45 21 6D 5B 55 95 52 B5 AD 56 25 55 55 55 55 55 53 55 55 AD 2A 55 52 55 B5 55 95 56
DPCM : 55 B5 4A 55 AD 4A 55 55 AB D6 12 25 A9 52 6D 4D 6B AD 52 AB 6B AD 44 94 AA 5A 55 49 52 ED 56 AB
DPCM : 54 55 D5 AA 56 2D A9 4A A5 55 55 55 49 92 76 5B 55 5B 2B 55 49 55 55 55 A5 AA 6A B5 2B 49 25 AD
DPCM : AA D2 AA 5A 55 75 5B AA 22 A9 6A D5 6A 25 48 F5 AA 56 55 55 55 55 D5 B6 AA 4A 95 54 55 55 8A A8
DPCM : DA 55 AB B6 4D 5D 95 54 95 54 54 95 5A 77 53 92 12 6D 5D 55 B5 2A 55 DD 2A 55 43 52 55 55 5D AB
DPCM : 24 6B AD D4 2A 95 AA D2 56 AB 4A 55 B5 DA 2A 95 4A 40 6D AB DA B5 95 AA 55 6A 6B 82 AC 55 AA 75
DPCM : A5 A4 4A AA 6A A9 75 9B 5A 75 AB 2A 42 49 4A B5 76 55 48 B5 B7 B6 95 54 2A A9 56 4D 15 D9 55 55
DPCM : 9B 6A 49 48 75 57 55 D5 A5 D4 6A 6A 52 90 F5 55 35 ED 56 89 54 4A 52 69 B7 55 95 DA AF 2A 4A 4A
DPCM : 55 AA 56 25 42 FA 57 55 5B 55 54 55 B5 5B 88 6C 55 55 AD 4A 11 A2 7E 5B 55 D5 B7 56 25 09 11 68
DPCM : 77 55 4B DD AD 52 45 55 55 A9 55 29 A5 76 5F 21 55 93 6C 55 D5 1A 85 EA D5 54 55 55 A5 52 57 55
DPCM : 6A 59 EF 5B 22 41 02 54 EF 96 4A 7B BB 77 41 D2 42 A9 95 24 B5 BA BD 21 D1 49 D5 5A 55 57 AD 64
DPCM : 4D 54 69 69 95 52 AB 0A 6D B5 FD 17 22 49 A4 56 D5 05 5C BB 7E 5F 12 D4 42 94 56 02 BB EE FD 55
DPCM : 28 54 C1 5D D5 96 AD 92 55 12 4A D7 42 A5 AD A5 F7 8B BE 2A 82 4A A1 AA DA 82 A8 DE B7 F5 A2 D4
DPCM : 4D 29 45 00 BE 7B BF 2A 21 69 09 B6 5D 71 55 AB 3A B5 52 51 81 D4 BB B0 FD AB 6D 01 51 52 81 D6
DPCM : AD D4 5E B5 45 DD 6E A5 05 5A 11 02 D9 FD 55 4D 45 B5 C5 FD 4A 50 DA AD AA 94 95 52 01 A4 AE DA
DPCM : 7D 7F B5 A9 05 12 01 BD 93 6A AB 7A B2 52 9D 5E 42 55 24 55 7D 2F 2A 55 65 55 55 BD 55 44 E8 54
DPCM : 5B A9 55 A9 CA 92 AA AC FA BF 4D AA 44 12 05 50 A9 B7 A6 F5 D6 DD 5F 12 82 52 AA 2A 76 55 55 13
DPCM : 50 DB 4B 57 AB B4 6D AA 52 51 4B D5 52 10 BB B4 D3 BA FC 0A 4D AA 82 8D 8E EC 22 DD BD B6 6B 45
DPCM : 11 00 9A BE 54 AB DE 92 B6 55 D1 A3 8D BE 50 49 2F 81 A4 D6 03 49 7B BD F5 97 B5 B2 44 6A 03 A0
DPCM : AD 96 40 E2 FF DE A7 EC 02 54 2B 5A 78 E8 5D 52 55 BD 81 28 6D AD 36 B1 5B A1 B7 4A 01 59 5D 5B
DPCM : 2F F4 4F 11 51 5C 05 D8 2D 25 6D 77 EB EE 85 5D 02 91 55 15 20 5B 57 D3 AB B5 49 BA 2F A8 17 AA
DPCM : 5B 51 54 97 04 E0 96 ED D3 7A 6B 5D 6A 43 01 BC 15 B2 A2 BA FF 02 D5 55 12 6E 95 64 D2 BE 54 53
DPCM : 75 73 05 5A 5B 35 A0 DA 55 25 5D 43 0A DD 97 35 A9 F7 D5 92 62 4B 01 D0 16 15 AC FF 76 55 DB A5
DPCM : 82 AC 17 2A D0 5E B5 04 F5 DA 20 AD 57 15 DB 9E BA 01 F5 22 01 BB D7 11 68 DF B6 51 A9 AA 14 BA
DPCM : 45 03 DC FF 95 54 7A 97 08 99 55 51 D0 AD B6 D4 B6 9A 54 74 BF 80 F5 DA 6C 80 54 2A 0D BA 4F A8
DPCM : ED B7 B6 54 65 27 09 5A 15 14 D6 37 5D 13 EE 4A 5D AE 22 55 D4 6A 5D A4 5D D1 12 7A 43 AB 55 55
DPCM : DD 42 25 D9 8A 5E E1 15 FC 37 5B 64 A8 D4 15 54 C0 75 FA AA 2D 69 5D FA 4A 5B A0 15 51 64 B7 68
DPCM : 49 BE B4 35 69 55 5B 53 5F 81 91 56 55 16 F0 42 7B 6B 5B 3B 44 6D 5B 10 F0 67 F4 B2 43 69 95 B6
DPCM : 3D 01 BC 55 85 6A D9 55 85 37 37 59 DA 85 6A D1 AA 45 80 EF 1D 81 3C 96 FD A6 B7 17 A2 5B 13 00
DPCM : B8 55 5A BA B1 6D 69 F5 37 20 F5 2A 0B 55 B3 54 41 EB 16 2A 7B AB D4 B4 D4 55 C0 F7 0D 52 A5 09
DPCM : DF 52 6D 25 E8 B7 09 20 AD 6B B6 AA 6A 5F B1 DF 00 2A 69 49 03 DD D9 85 AA EA 74 55 F6 55 2B 75
DPCM : 91 42 64 5D 49 24 EC 6A BB D5 B2 8D FA 95 1A 12 5C 55 5C 90 5A 2F 76 4F 15 99 96 6A 1A 5B 5B AD
DPCM : 0A 55 2D 95 5A A5 52 5B 55 61 AD C5 56 05 6E DB 5B 55 17 41 9F 50 25 84 5E 9B 16 6C 6B 6B BF B4
DPCM : 56 54 54 25 55 B4 95 28 6A E9 AB 34 6E 55 5D AD 17 E8 2B E8 05 40 B6 BA 55 6D 1B D1 9D 54 55 15
DPCM : 6D 2F 23 D5 5A B0 97 2A 55 50 DD 94 6D D2 3D A0 97 B5 B6 2A 36 2D B2 CA 11 E4 C5 57 41 0A 7D DF
DPCM : B6 B4 1B E8 67 03 4A 09 7E 13 A8 F4 16 ED 65 A7 56 49 B6 AE AE D8 0B 00 EB A6 AA 00 FF A5 B5 54
DPCM : 6A 55 ED 1B 60 45 DB 65 15 55 93 12 ED 1A E9 21 F7 51 55 65 D5 96 EE 0D A1 84 EA 55 55 D2 01 86
DPCM : 5F DB 56 41 77 B7 56 44 6A C1 AD 45 50 41 FA 6F 4B 15 77 51 AD BA D2 25 AD 51 94 88 EE 22 79 76
DPCM : A9 21 F9 5F AD 40 55 D8 6D B5 25 A0 76 AF 42 80 5B 7D 4D 3D A4 51 F5 77 05 AA 3A 51 49 D7 6A 11
DPCM : F0 69 8B E2 5B 55 D5 F6 52 41 F5 77 04 A0 85 5A 95 2E 5F D0 EE 1F 11 D8 D5 6D C3 96 44 85 EC DB
DPCM : 00 A6 E8 6D E9 BD 4B 41 F5 52 2A 55 DA 92 56 B5 4B 04 B5 DB 12 74 25 B5 57 BD 55 A8 F5 2E 80 84
DPCM : 77 55 AA 0A EA AA FC 93 44 27 D7 2A B7 BE 0B A0 58 15 25 A2 52 EB 6F B7 2A 54 FD 4B 50 A1 95 D2
DPCM : B6 B4 26 49 AD A4 C2 F2 57 65 AF 56 54 25 BD 15 44 2D DA 8A 57 D3 24 B5 74 D1 22 6D 57 55 BF D5
DPCM : 22 B0 1D 15 89 50 8A BA BF D6 95 D4 5D 26 C1 6D 2B D4 57 85 54 05 8B 2D C0 9F 5D B5 FF 5A A8 68
DPCM : 49 45 D0 DA 89 B6 AD 54 25 F4 C5 56 E8 55 45 DD 6E B7 10 69 6B 08 F0 25 61 B7 5B 74 35 55 6B 0B
DPCM : B8 ED 92 D8 BF 05 32 52 01 03 AE B6 FA D7 FB 56 40 6E 4B 05 70 55 8A DC 55 9A 5A 82 76 05 FE 5B
DPCM : AC FC AE 14 28 53 DB 00 AE 22 2B F5 57 55 BD 46 A5 00 FD B5 5A F6 EA 16 01 55 60 50 BD 28 AB FF
DPCM : 6F 93 3A 42 5B 00 ED 53 2F 69 23 21 39 0B 1B FC 5E D5 45 BD 9F AA 06 92 4A 40 7A 52 ED DB 54 15
DPCM : 1F 2D 4D 56 55 6D 11 F7 AD B6 07 00 04 B4 B6 EC EE B7 AB 91 A2 9D 42 4D 95 5C ED 85 A8 72 07 15
DPCM : 02 DA 7F 57 F7 AE 2A B5 02 91 D4 5D 00 6D E0 77 4F 7B 45 15 A0 5B 4B 77 B7 6A 52 97 44 08 58 BA
DPCM : A2 2B FD AD E6 7D 41 13 58 48 F5 D6 FB 15 40 95 28 09 DE B5 56 75 71 DB F7 AD 00 01 B0 5F 81 74
DPCM : AB DB B4 0B A9 25 B6 55 A9 69 7D D2 96 7B 51 00 10 A4 DD BF ED AA A2 ED 40 49 6D 55 55 65 F9 E6
DPCM : A3 2A 00 84 DA 96 AD DB F6 7B A5 13 20 59 5A 2D B1 90 3A FA 56 6F 41 51 4A DA 7A 5F BB 34 A8 36
DPCM : 84 34 50 55 EC B5 EA B7 DE 36 00 94 56 AC 56 AB FD DB 94 20 00 F8 56 2D C5 6E FA B7 AC 5F 00 1A
DPCM : 22 DA 76 1F D2 24 BA 95 04 9C D6 B6 AD 35 F5 B5 96 16 00 5A 02 AA 52 FF DE 5F 55 21 89 56 B5 92
DPCM : 54 43 FB DE B4 23 00 2A 25 75 F7 AD B5 4B 95 F4 02 0A BA 55 6F 2B 51 35 B5 56 04 16 AC 76 97 DB
DPCM : FF DA 04 58 C0 55 4D 00 16 FA BE EF 92 7E A1 12 55 59 D6 B4 96 7C A1 76 00 00 FF F2 D7 2A 6B DF
DPCM : 45 3D 00 02 6C 69 5F FD 5B D8 40 35 58 17 55 52 55 BB 6F B9 C0 3F 50 0B 55 24 5C F1 4D 6E 55 5D
DPCM : 54 92 7E 35 4D B2 46 FD 55 2D 00 00 74 75 DF F5 B7 5D 4B 15 84 24 5A 40 DF B6 5B 84 97 9D B4 1A
DPCM : 29 74 4F F5 0D C4 B5 16 A4 5B 56 B5 54 A8 D5 D6 BB 12 C0 9A 6C 55 AC DD A7 F9 6B 01 48 50 28 A1
DPCM : DF B5 57 D5 FF 2A 82 24 25 E8 57 6B 03 B4 6D 12 6A BB AA 75 97 6A 2D 50 7F 09 C0 B6 28 B9 AC AA
DPCM : 37 DB 7E 01 AA 52 25 88 7A 6B 93 B7 FF 0A 8A 48 40 CB B6 5B 48 5F 5F 85 44 5D 65 76 CB 56 86 D4
DPCM : 2E 00 74 EB 50 BB D7 B6 A7 68 B7 02 54 B5 00 55 6D 0B BA 7D DF A9 5A A4 A2 02 DD 06 78 9F AD 28
DPCM : 95 D6 42 B6 A9 6D AC F6 24 58 60 5B A1 B6 7D 57 B6 2A F9 01 90 AA C0 D6 B7 92 9D 7A 7B 65 45 DA
DPCM : 01 15 55 41 B4 6F EA 5A D3 5D D2 44 D5 1B 74 55 4A 6A A1 AA 52 68 FB D5 BE 96 5E 50 82 06 51 AB
DPCM : 5D D5 5A CB FE 44 50 DD A0 55 1A B0 5D AA 7D 54 B3 B7 A2 41 B5 4E 52 41 6A F6 6A 55 51 51 6F 9F
DPCM : AE F0 37 50 09 A0 AA 90 66 6F 5F F5 AF 58 A4 DB 00 55 C0 D6 1B 68 6F 55 A9 B5 51 D5 F6 42 0B 41
DPCM : 5F D8 96 5A A9 92 BA FD 06 B4 17 B4 0B B2 60 09 FD AB 15 F7 BB 54 8B 32 D0 04 C0 DB 16 FB 6D D4
DPCM : EA 6E 50 A6 6D A5 0A 40 AF 76 11 76 A2 F2 77 AF 0C DD 07 6C 41 B4 50 91 EA 5E 17 AE BD BA D5 36
DPCM : 00 81 6A 55 8B 76 B7 DA 54 B5 94 96 D2 52 05 E9 57 55 74 55 44 EE 75 7B 89 AA 8D 54 21 58 20 BB
DPCM : FD 55 45 FE F5 A9 74 15 00 4A 51 D5 72 69 7B 56 F5 7D 01 A9 1F 41 89 AC 5D 15 6D 49 C1 BD 56 3B
DPCM : A9 FA 1F 00 5C 91 C0 B6 6D B5 D4 FA BD 92 5E 22 00 D4 AA 0D 25 FD 36 4B BD 9D 84 B5 AD 00 52 8F
DPCM : 15 A5 EE 56 49 A5 EF 8D AC BE 05 90 36 24 50 BB 57 22 DB FE FF 10 5A 09 04 75 B1 40 B7 6F 2D 55
DPCM : DD 93 44 B5 7D 10 91 25 97 AA 5D A1 AA AE FD A4 B4 B7 02 A0 2D D4 46 A9 BC 68 77 7F 4B 53 15 B4
DPCM : 02 6C 53 80 F6 7B B5 55 51 FC 8E 6A 15 14 76 95 52 8D 56 56 85 EE 57 F7 52 40 AF 50 15 50 4B 7D
DPCM : 4B EA D6 DD 53 49 42 7D 03 15 00 EF DA 5B D1 D5 52 FB 4E 45 E2 42 E8 8A DA 55 00 EE 57 F7 50 DF
DPCM : 45 B6 13 52 01 EA 0A 6D E9 5E 5B A8 F5 2F C0 BA 48 2D A0 AD 7A 55 55 15 EC F5 7F 00 E0 A5 D6 14
DPCM : B4 05 ED 6E AD 5D B0 9F 48 76 2D 45 00 D0 3F 1D B5 53 DB 5B F9 42 51 5D 0D 04 C9 6B 4D B0 EC AA
DPCM : 5D F5 8F 0A F6 81 B6 0A 78 80 EA 7E 57 02 B5 75 7F 29 25 94 68 D9 55 52 5B A5 DA 55 3A 5D 80 5D
DPCM : 55 45 95 52 ED 55 55 55 75 6D 9D A8 8C A8 4A 28 C0 AB 6E BF 45 59 AF D0 FF 2A 80 12 D5 CA 16 40
DPCM : B7 E8 F7 6D 50 BB EA 59 0A 54 07 74 E5 56 F0 52 E8 2B D7 BA 47 50 B5 1A D0 AA 76 D5 0B F4 2E D8
DPCM : 5D 0C 88 AD 6D 55 05 DA 57 D5 EA 15 70 6F 5D 0B 04 89 4E D0 EB E5 54 97 EE D2 0D BF 12 68 95 B4
DPCM : 00 2D 65 B7 0B EE 55 6D FB 68 40 6D 55 4A 05 AB 57 A5 0A 3A D6 DE 4F 93 82 5A 55 A9 55 5A AA B5
DPCM : 74 B6 42 55 95 96 9A 6A 0A 76 6D B5 51 55 55 6F 97 2C 12 D4 A8 5A 90 6E ED D5 52 58 35 7F 2D A8
DPCM : 42 4D 75 11 A0 5A 37 F5 B1 55 5D B5 AA 95 54 4A 26 BA 55 2B 15 80 FF 6D A5 49 55 D5 DA 12 98 56
DPCM : 75 37 2C 55 6D 43 DA 8A 56 4A 6E 25 D6 4A 5B 55 AD C5 5E 54 6D 1B 00 55 8B DC B6 85 35 69 F7 AD
DPCM : A4 42 75 4B 57 41 51 C0 7D A7 52 D1 DE 4A 7F 81 36 54 D5 45 55 85 5D 51 F4 55 55 6A D5 D5 24 A5
DPCM : 16 6D 35 6A 55 55 F5 0B 52 52 6D 2D 35 59 68 69 5D 55 55 E1 76 DA 5E 68 61 94 74 D1 0A D1 5A BB
DPCM : 56 5F D0 F4 A8 DE 0A 49 55 B4 0A 9B 74 69 5D 53 55 55 AD 35 A5 AC D4 D4 64 A9 55 A8 8A 76 D5 AA
DPCM : 6A 51 D5 45 25 4A D9 B7 F5 12 D4 59 B0 D5 52 64 2D DA D8 A9 D5 D4 54 D5 B6 1A 4A AF 58 54 A9 50
DPCM : E8 5B 6D 5A A5 56 7D 51 ED 11 B5 50 95 80 B6 AD 5E 55 55 95 B5 55 4B 54 55 5A 2D 8B 76 91 2A 6A
DPCM : 75 AA 5A 4D DD 5A 28 81 6E D5 BE 68 A0 57 6F A1 35 50 ED 12 55 70 DB AA D7 0A 55 F5 16 BA 43 54
DPCM : 15 A2 B5 B5 25 95 5E 6A 75 6A 96 AA BF 22 50 80 5F 74 35 59 AA E5 6F 15 51 54 57 43 52 AD 54 57
DPCM : 75 45 50 DB 55 5B A9 D4 4A A2 57 B5 A8 F2 91 56 4D 75 C9 54 B7 2A 20 74 D5 6D 55 55 56 F2 77 29
DPCM : 34 68 75 11 D8 54 DD 5C 35 15 EA B6 CD 56 B4 A4 56 60 76 15 69 74 69 A5 77 99 36 6A B7 02 A1 AA
DPCM : 74 57 55 D4 15 BC 7F 01 55 B5 54 85 AE B4 96 B5 45 51 6D 69 67 07 B5 AC 12 F4 56 A1 5D 29 B5 6A
DPCM : B7 54 15 DD 2A 52 05 6A 9B B5 55 AC A2 F7 5D A0 36 19 A9 29 0D BB A9 55 95 A4 5E D5 25 AB 56 55
DPCM : D0 D5 12 B4 57 81 F4 B6 A9 9E 50 BB 83 C4 15 A9 9A D6 45 14 E9 7F A1 EC 29 51 95 A9 4C 1B 7A 4F
DPCM : 88 7A 5B 49 55 55 9B 14 DD 26 91 DD 4A A0 DD B6 AD 42 B5 5B 44 CA 2A A2 BE 5D 11 C9 DE AD 24 B7
DPCM : 54 85 52 5B 25 B1 7A 13 D1 77 AB 0A D5 AA A6 84 DD 86 D2 B5 4A 82 5E DB A6 A8 BE A6 42 B5 54 C4
DPCM : 76 AD 44 B4 DD 55 29 2B B5 02 DD D5 51 6A 5D 48 6D D5 76 41 6A B5 0A B4 6D A9 6C 57 51 C5 55 5B
DPCM : 49 A5 76 6E 90 55 55 C2 5D 45 85 AE 7E EE 4A A9 52 84 66 6D 83 56 85 5E 74 75 95 4A B2 6D 41 5B
DPCM : 95 1D 75 15 6A 55 52 D7 C4 B2 56 0F B4 56 55 CD 4D B0 68 55 7A BF 92 34 11 A1 AB DB 94 56 D0 AF
DPCM : 6A BB C0 16 AA 5A 58 1B EC 37 D4 93 68 23 C9 37 D9 54 75 49 A9 2D E9 8B 16 34 4A 55 FD 2F A2 35
DPCM : C4 92 6E 2D 55 05 75 EF 64 2F 22 05 5F 95 44 29 FB 5F B4 9A 50 13 D9 56 BA 68 47 15 B4 6F 6D 82
DPCM : 09 9B 36 B4 FF 61 91 2D 48 55 D7 0B 09 CA 7D 2F 54 ED A2 4A 35 55 10 6B 5F 5F 99 BA 02 02 FB 55
DPCM : 45 6A 55 5B 55 6F 95 40 49 69 49 DB EF 42 92 DC 54 42 6F 55 91 E5 B6 37 48 57 55 25 D5 52 00 F6
DPCM : DF 5E 42 4D AB 42 D7 5A 54 D0 95 5E D5 BF 45 00 58 3D 48 FB 55 FD 02 7D A5 82 36 94 9A DA DD 2A
DPCM : 48 BB 2B 05 35 12 BA 7E B7 7E 00 AD 5A A2 2D 53 0C 68 BB 6B AD 3B A9 81 AA 5A 29 75 45 77 95 6E
DPCM : 25 11 4A 6D 8A FA 96 56 DB 6E B5 04 00 AC 71 EF AD 6C 90 56 2F 94 25 85 DA E9 66 B7 4F 44 6D 81
DPCM : 52 8B 2A E9 D6 C5 D7 45 B2 95 28 56 0B 95 6A B5 F7 53 91 0A 00 6D AB 77 2B 55 ED 65 57 15 00 0D
DPCM : ED 72 45 FB AA A2 3B 10 68 03 BD 6D 2B BD 8F 40 6D 0B A9 51 13 D2 D5 6E 5F 5B 44 26 B0 D2 37 55
DPCM : D2 52 DD 2D 5A 05 60 A1 65 B5 4B DD D7 AD 16 01 A0 E4 6E 57 C5 5D A3 56 6A 12 BA A1 68 DA 6B 7F
DPCM : A9 46 AA 10 9A C8 BC A4 6B 55 D5 DE 14 54 29 D9 15 B4 A4 DB FB 55 20 04 58 B5 AB 55 6E 17 F5 6D
DPCM : 49 48 5A 01 6B A9 7A 5B 5B E9 05 40 6C A9 AE 5D 37 95 D6 AE 20 3B 44 A9 26 D8 7A 95 FD AD 00 29
DPCM : 6A D4 17 A6 2D B5 B6 D6 02 55 AA 50 49 6B BA F6 5D AB 02 44 5A 91 ED 56 4B 55 1B 75 41 55 54 D8
DPCM : 92 FA 56 B5 FD 95 00 75 A0 A8 DD B4 56 4D DA 36 54 6B 54 54 E2 97 56 F5 97 15 28 A1 68 59 55 5F
DPCM : B4 D6 2F 95 D0 4D 54 A9 50 6B AD 76 75 49 54 54 50 A8 BF 45 2D 55 7B 69 29 0D A9 B0 45 0F BA 76
DPCM : 6D 49 A4 56 A8 58 BB 55 BD AE 54 54 52 35 92 54 45 A7 AB DE 1F 95 D4 49 A4 AA 15 A5 4D 59 45 55
DPCM : B5 4A 50 E9 6E 55 55 DA 9F 8B A8 04 E8 B4 5A D1 6B 7B B2 48 62 5F 54 A8 6A 79 97 BD 81 4B 6D 42
DPCM : 90 AC 5E B5 85 AE ED 41 AD 0D B6 B4 2D A8 26 DD 35 91 B6 20 68 8A 6E DE D1 DE 6E 10 D9 0A 94 6C
DPCM : 23 29 B5 37 75 4A AB 2A 15 A8 5F B7 64 17 15 69 AD 44 2A ED 15 19 61 B7 9F 94 16 55 55 55 4B 55
DPCM : B5 6A 0B 40 D7 55 48 B1 8A DA D5 52 EF 55 55 11 04 EC DE 04 BD 89 AA 52 A5 E8 D5 D2 9E 14 76 7A
DPCM : 50 49 55 69 80 CD CA AE 5D DA 50 35 55 2B 45 B3 0B A9 55 55 36 51 2D 29 41 EB 97 D4 0F 1D 75 96
DPCM : 2A D4 51 75 11 08 55 0F BD 45 55 D4 D2 51 55 7D 67 05 54 55 5A 55 A1 DA 81 7A A5 82 DD B7 48 51
DPCM : 43 DD 44 D5 D4 94 5A A5 14 F5 60 AB 44 B6 DC A4 75 AB B2 50 A4 1D 59 35 95 04 DC 5A A5 76 D5 91
DPCM : 26 51 35 50 59 8B 0A 2A 91 27 D2 0C 5F 30 35 6D 51
DPCMDEF   1  4049 "A#F#D#2.dmc"
DPCM : 55 55 55 55 55 55 55 55 55 55 A5 AA AA 2A AB 56 55 55 55 AB AA 52 D5 5A AB 92 54 A9 5A 6B 55 49
DPCM : 92 6A 6D B5 6A 29 95 24 B5 6D 55 55 AA AA 55 55 55 55 55 5B 6B 55 52 AA 52 A9 AA 6A 55 A5 D4 5A
DPCM : A9 AA AA AC 55 AB 55 25 55 55 4B 55 4D 55 95 54 59 6D 55 55 55 A9 56 6D AB D5 2A 49 94 A4 6A 6D
DPCM : 55 A9 2A 25 55 AD DA 6A B5 5A 55 AD 56 95 94 52 AD D5 4A 52 A9 4A 56 55 AB 2A 55 55 6B 55 55 95
DPCM : 52 5D 6D AD 92 54 B5 D5 AA 92 24 55 DD B6 D6 2A 41 20 55 DB B6 65 92 B2 6A D6 5A D5 6A 6D D5 AA
DPCM : 54 AA 22 B5 54 B5 4A 95 A4 6A AD A4 AA AC 6A 6B D5 5A AB B2 44 55 55 D5 AA 9A 52 6B 15 55 52 D2
DPCM : 56 B5 B5 D5 2A 15 49 55 6D 75 55 49 49 D2 CA DA 56 AD D5 92 AA 5A AD 50 56 49 6D 55 AD 49 55 5B
DPCM : 29 95 2A D2 AE AA B5 B5 14 95 A4 69 DB 2A 35 55 55 55 55 55 5A D5 6A 5B 2D 51 52 89 DA 6A B5 95
DPCM : 04 A9 DA 9A 58 37 AB 55 6D 6B 6B 45 AA 8A 54 A9 55 D5 54 55 A7 25 09 A5 6A 6F 91 6E 55 92 5A 6B
DPCM : B5 B5 AD 2A 52 54 55 95 C8 6D D5 AA 36 65 4A 5A 25 AA 55 6B 55 49 D5 AA 55 95 56 A9 5A AD B5 AE
DPCM : 48 55 51 A9 A9 55 55 25 AB 56 55 44 5B B5 75 25 6D 12 B4 D6 6A DD AA 55 4B 44 95 55 05 A9 B6 DA
DPCM : AA D6 AD A2 5A 2B AA 54 5A 4D 45 B5 6A 55 15 56 55 6D 55 BB 42 B2 25 D5 B5 55 B5 6C 89 54 55 55
DPCM : 05 DE B2 AD B4 32 81 DA 56 5B 4B 55 B5 4A 55 AB 26 55 91 AA DA 56 AD 6D 92 AD AA 54 51 55 55 15
DPCM : AA C8 D6 52 72 6F 55 DB 56 41 A9 CA D6 B6 AD 68 8B 54 49 55 55 21 69 A5 D6 B6 8A AA 56 DB B6 A4
DPCM : 5A 5A A5 DA 2A 45 55 A9 54 55 BB D4 2A 55 D4 4D 55 B5 0D AD 2A 21 74 AD 99 BA 5A 5B 55 AB 8A 48
DPCM : 7A B5 5A 55 45 4D 5A 55 AB 2A 49 25 EC BA 56 55 A5 D6 55 D5 AA AA A8 52 55 25 09 D9 6A 4D B7 6D
DPCM : 55 A5 54 DD 8A BA D6 96 0A 29 15 68 55 8B D6 26 5B CA AE 95 54 D7 5A 2B D5 8D A5 B4 E2 5A 0D C1
DPCM : AA C4 5A 9B CA 82 6E 65 EC 56 5B A5 52 2B 50 B5 55 6E 55 EB 6E 15 6A D1 AA A8 B4 EA 54 A4 88 52
DPCM : B8 5B 95 B6 52 B9 6D DD 52 59 DB 9A B4 56 15 5A 44 AA 56 05 51 6A 27 7D 5B AA 0A 6D 6B DD D6 6A
DPCM : A5 2A 01 15 DB 92 B4 B5 95 56 55 45 77 99 AA AA 56 56 45 1B 51 49 6F A5 46 2D C9 6D 69 AA 55 55
DPCM : 55 DD 68 5B 59 03 D4 66 95 B4 6C 55 59 B7 4A D4 82 6D C5 35 6B 95 A8 80 4A BD 17 DB AA 56 F5 B6
DPCM : 4A 7D 91 6A 55 45 25 15 15 50 5A E9 82 DA 5A 6A 5F 6B D2 AE AA 7D AB 55 AD 25 51 20 2B AC 10 B6
DPCM : D5 AA 46 D5 E4 86 BC 5B 55 B5 9B 0A 55 6A 55 5D DA AA 58 A5 55 4C BD 92 4A 55 65 55 59 A1 2A 58
DPCM : 9B 56 D5 B6 D5 CA DA AA 46 4B 5B 58 75 6B 15 60 49 2A 49 B5 96 D6 B6 D9 52 55 6D A5 56 DB 2A 55
DPCM : 01 B0 5A B5 4B 52 6B D6 56 BA 1B A9 56 F5 52 B4 B5 AA 40 95 55 A8 04 D2 6E DD 2D CA 56 B4 AF B2
DPCM : DB D2 5A 8D A3 C4 2A 54 B1 4A 57 53 2D 01 55 F6 57 A8 5A 6D 55 21 ED A9 56 1A 77 A9 B5 D6 9B 2A
DPCM : 54 AD A8 02 B4 57 55 25 A0 5A A3 04 FD 5B 6D 6D DB 8A EC DD AA 55 B5 55 81 05 84 AD A0 58 A2 BA
DPCM : AD DD 82 5A B5 5B D5 AE B6 A6 D0 92 B5 2B 09 4C 95 DA 6A FB 01 A8 56 5B 52 6D 5D 15 55 A9 6A A9
DPCM : A0 DA B6 B5 DA 0A D1 4A DD 56 57 D4 AA A2 55 4A 55 15 40 5F 6B 57 DB 0A AA AA ED 0A 74 AD 54 B4
DPCM : 4A B9 AA 82 EC 76 56 6D BB AA 44 D5 95 68 AB D5 45 25 00 9B 4A 41 CD D6 AD DA D5 56 47 F5 B6 DA
DPCM : D6 2A B4 6A 68 A8 16 00 29 5B BD 59 4A 09 56 EF D6 6C AF 44 B5 2A F5 55 0A DA 56 AB B5 CD 24 41
DPCM : 6A 13 72 2D 5A 6A 55 94 6C 53 41 2F F5 5B B5 5A DB 2C F5 56 A5 92 06 AD 52 45 C1 06 A0 6D 5B 77
DPCM : 5D 4A 25 FA B5 B6 6A 57 A8 55 15 6A 52 85 3A A9 45 AF 66 6D 8D B4 52 53 55 55 75 53 54 AA 6A D0
DPCM : 5A 74 D1 D6 6A 55 13 6E 75 B5 B6 A8 AD B4 24 2A 29 D4 52 5B 6B 6D 89 B4 C2 5A 57 2B 15 E8 B6 4A
DPCM : 57 55 95 55 A5 5A 75 57 6D 6B 04 6D 2B A1 52 54 5B A8 82 50 69 6B 2F EB 6E 6D 54 37 55 BF 55 55
DPCM : AC AA A5 A2 22 00 6C 2B 55 A2 6E C5 EE 4E BA DD 85 C1 56 ED AA 5A 69 09 57 45 AD 45 B5 AD 7A 01
DPCM : E0 D6 6A A8 D5 5A 29 2A 4A E2 AF 5D 59 B7 5A 2A 7B 23 B4 AD 14 45 B2 56 AD 05 42 7C CB 86 6A A5
DPCM : 67 B7 AD AA DA 2A A4 AC 52 55 A5 55 00 BE B6 B6 56 ED AB 2B 50 A1 F5 56 94 56 29 55 AA 44 48 57
DPCM : DB 4D 48 7D CB D6 BB A8 9B 8A 91 55 F5 56 91 04 DA 55 B4 4A 55 E4 AD 56 05 78 B7 B8 A5 55 4D 5A
DPCM : 1D 42 75 D7 D6 AE 75 2F 88 B4 12 52 55 5A 01 24 BB B5 12 B4 BD DA D7 C4 DA D6 EA 7E 0B B5 80 5A
DPCM : 55 2B 54 51 01 40 5F BB 55 6A 75 AD D5 2A 95 B5 DA AD 58 A9 42 55 51 B5 D2 56 55 59 37 45 AD 95
DPCM : 52 A5 55 15 41 DD 6D 15 E8 B6 CA D6 96 56 15 55 7B 85 54 59 55 B5 55 95 D4 22 A0 F6 B6 D6 B2 74
DPCM : A5 54 DD 5A 50 55 2B 05 94 56 D5 A8 56 DB 5A BB B7 58 C9 D6 45 55 90 AA 54 48 D9 15 15 0C B8 DD
DPCM : DB B5 55 55 55 FB 6D 05 5A BB 54 55 15 2C 09 91 6A 6D D2 16 90 B7 D6 AE 55 45 57 1B B5 34 55 D5
DPCM : 4A 2B 2D 6D B5 AF 22 D5 A2 2A 04 53 B5 2A D0 EA B6 AA A4 B5 C9 5E F5 17 AC 54 DB AD A1 58 17 52
DPCM : 52 68 55 95 A0 55 D5 AE 4E E9 2E B5 6D 2D 1A B1 A5 AA 52 55 55 45 51 E8 D6 B6 5D 45 5B 5B B5 F0
DPCM : 8A A2 2A C1 B6 49 B5 28 5A A5 AB AD 95 A0 57 DB 36 B5 A5 5A 53 35 55 4B 0C 0B AB 84 B5 85 EA AE
DPCM : D5 5A 14 25 B3 D4 D6 2C 55 B5 55 55 BB B4 A6 DC D4 2A AD 5A 90 55 51 15 84 94 DA 56 B4 B2 AD D4
DPCM : 6D F7 C5 6E 3D 4A 5D 2B 50 AD 42 AC AA 4A 15 40 4C 5B 82 7F 77 5B AD B5 56 2B B4 A5 5A 68 54 55
DPCM : 55 55 55 4D 55 A5 B4 B5 2A 55 55 4B 54 7A 56 55 55 55 A2 B6 84 6A 7B 9B B6 AB 4A 47 50 55 55 AA
DPCM : 55 55 A5 B6 41 AB 8A 41 AF D7 A6 AA D4 6A 95 4A B5 9A 04 6A 6C 6D 6A 6D B1 59 5F DB 5A 15 6B 50
DPCM : 85 02 DA B2 95 2A 5A 8D 04 55 76 DB 5F ED 6A ED 5D AA 4A 85 AA 52 05 C5 54 43 AA 15 89 7E 2B D4
DPCM : 55 5D 5B 55 55 75 EB 36 42 B4 AD 2A B4 54 2A 5B DB 56 A5 DA 02 11 51 70 ED B6 84 FA 56 55 AD 6A
DPCM : 75 BF 83 D4 B4 55 A9 95 28 54 6D 11 80 D5 56 D2 96 D2 77 AB 6D 8B DD 5A 95 A0 0D 6D 5B 03 A9 5A
DPCM : 55 05 85 BA EA 6D B5 74 6F 15 5A 12 A5 56 DB 00 6A B5 D0 BA DA 5A B7 5A A0 D2 56 5B 2D AA A3 B6
DPCM : D5 84 54 AB 54 01 E5 AE 54 6D D5 56 AD 65 8A AA B0 DD 56 24 DB 16 AD D2 DA 96 D5 12 B4 D6 2A 51
DPCM : 16 5A A8 BB 42 24 A5 46 F7 D6 F7 4D BA 45 AD 6B 6B 81 8A 0A 55 97 54 25 55 83 12 A2 3B A9 AD 76
DPCM : DB 5B 55 5F AB 85 DA 4B 24 50 55 A5 D0 6E 55 53 55 AA D4 AA 48 A5 6A 53 ED 55 AD 52 55 59 5D 53
DPCM : AD AA AC 64 6B 6B A2 A2 42 D4 AC C9 AD A8 16 54 DA 7D 55 15 5D 9B AC 6A DF A8 22 DA AE 14 14 54
DPCM : 0B 68 7B DB 56 59 DD B6 5A 25 50 55 11 CD 2B AB 2A D2 66 57 74 A9 95 B2 56 55 7D 69 D5 26 15 EB
DPCM : 50 5B 05 94 00 5B ED 6D 51 5D 69 8B EE 2E A5 54 65 BF 74 4B 89 12 D1 56 6B 25 AA 56 6B 55 25 51
DPCM : 41 76 D0 4E AB 36 A4 3F 5B BD DB A2 C5 B6 52 2D B0 A6 A4 AA 52 55 95 2A 41 00 6D F6 B6 F8 ED B6
DPCM : DB BE 2A 25 D5 AA A0 5A 2B 89 50 D2 4A B6 0D AC D6 56 55 4B 56 AA DB 5A 52 D5 56 55 0B AC D5 AE
DPCM : 91 2D AB 14 4B 61 95 54 B8 AA BC 5D 5B A1 02 B0 DD 2D B5 A2 6D F5 BD 54 50 A9 5A 45 D6 6A 01 64
DPCM : E5 77 55 A7 56 A9 6D AB 15 10 A8 6D 75 13 55 A5 55 95 C8 B6 4D 6A AD EF B6 70 33 A1 96 6A 6D 44
DPCM : 45 AD 44 13 14 4A 2D DD B4 B5 BD AD 12 FD 6E 75 97 42 6B 01 B4 1A 2D A8 B4 5D 2D 15 AD 15 80 2D
DPCM : DD 74 69 EA 5D 57 AB 16 D6 2A DD 6A B5 02 A5 A5 B5 22 54 57 2C AC 59 A2 D2 A0 AD B2 B7 57 D5 FA
DPCM : 5D A0 B5 35 B8 95 1B 15 40 A8 6E 41 0B BA 6B 6B 5B 6B 1B 54 6C 55 57 B1 45 B5 52 D2 BD 58 01 76
DPCM : 6B 55 55 55 51 5B 55 B7 B6 B4 60 4D 4A D5 12 2A 24 EC F6 5B 2B 15 6A 5B D5 AB 8D B6 A0 D2 94 BD
DPCM : 84 52 A9 5B 5B 5B A5 00 6D AD 5D 44 A2 2D 52 97 7A 57 93 D8 6A BB A5 DA 9A 60 AB 7A 4B 09 D4 2E
DPCM : A5 24 A1 15 40 76 D4 77 6F AB 56 B5 D5 BD B5 2A AD 88 52 2A 68 55 68 A5 54 D5 D6 C2 15 EC D6 56
DPCM : 55 D2 A6 85 DC D5 AD 15 6A 55 45 D3 BD 2A 05 A5 56 4D 55 6A AD A2 2A 71 4B 80 6D 2B ED 5D 55 B7
DPCM : 11 F5 BD AD 48 0D 58 A8 D0 A9 59 A8 B6 AA 56 5B AB 96 D4 8E DA 6A 42 E1 12 FA CA AD 21 54 4B 6D
DPCM : D9 6D AB 56 28 5D 5B 2B 55 AD 0A 2A A5 25 80 7A 8B D5 16 A9 7D 69 B7 DD D6 A2 46 6C 15 AA 55 29
DPCM : A5 56 55 55 69 D5 26 55 2D A1 6A 48 D5 AA 85 77 DB A8 A9 55 5B BA 6B AD 6A 05 2C B6 4E D4 AA 0A
DPCM : 01 54 5A 25 DA D6 2E 71 6B BD FB B5 D6 5A 49 49 6A 51 C2 4A 95 4A 42 D5 52 6F D5 52 B7 12 6A 5B
DPCM : 6C A5 55 55 71 57 D4 45 6A 8B D6 B7 12 A9 0B A9 56 4B ED 46 54 15 68 8B 9B A8 56 2B F4 AB A2 BF
DPCM : D5 56 AB 40 54 55 5B 1A D5 24 2A 5A B5 5D AF AA A8 BA 50 55 55 D8 64 5B A9 0A 4D E4 57 5A AB 55
DPCM : DB AA 55 97 2D AA 8A DA 52 29 49 81 50 5B 8B 26 AA AA 6E DB DE 6B E9 AA 22 6D B7 56 65 01 54 95
DPCM : 49 95 D6 75 15 95 44 B5 D0 56 78 D7 62 A9 75 85 6D 7D A9 A8 AA DE B6 AA 02 B7 41 15 55 AD 12 A1
DPCM : 5A D0 8A 76 54 ED EA DB 35 9B D8 6E 6B 81 2E 5A AB AA 09 A0 2A 28 AD 7D 57 4B 52 89 6F 4D 37 58
DPCM : 55 55 AD 6A 2A A1 5B 47 34 69 DB AA 1A 55 5F 0A 95 DA 5D B5 A2 84 42 54 75 43 ED A9 5E AB 54 D2
DPCM : 6D 2B A4 D6 56 5A AB D8 50 55 A5 92 BA D5 5B 44 CA 55 53 55 B1 A5 B4 5A 85 6A 34 D9 2A E9 5D ED
DPCM : 6E A9 50 DD 56 10 BB 8F 1A 29 24 0B 24 95 07 B5 DD DA 2B 55 6D 77 4B E5 92 AA AD 15 B5 0B A2 84
DPCM : A4 6D B5 55 15 22 D5 D5 52 5D 6D AD 5A A3 45 A5 8A BA 72 DB D4 0D 55 55 6A AB 42 65 B5 52 69 2A
DPCM : 55 45 52 7A 2A 75 6F 55 6B D6 CE AA D0 56 51 55 1B 4D AA 01 58 99 EE 5B 1B B5 46 E0 5B 4D B6 AB
DPCM : 9A 6A 41 2D 55 00 7F 53 A9 45 D5 6D D5 FA 56 05 B6 68 DB 24 75 13 49 E0 8A 68 53 AD F6 55 45 0D
DPCM : 6D 75 5D B5 B5 8A D6 22 25 5A A9 5A DB 22 DD 42 89 56 4D B5 55 88 B6 68 BB 25 54 B7 9A 2A 6D B5
DPCM : ED 55 DB 8A A2 94 94 56 91 B6 15 01 90 15 AD D7 6E 77 B5 D2 64 5D F5 AD 65 55 A8 56 21 51 85 5A
DPCM : A9 5A 90 EE AA AE D4 55 C5 56 C9 56 75 57 09 D5 64 B5 54 52 B5 D5 AD AD 40 D1 A6 AA DD 50 5B 45
DPCM : 03 DA B8 2C 6D AD 65 DB 36 90 5A 55 BD 55 41 D4 5A 55 6A 55 5A 85 BA 85 DD DB AA A4 0A 55 D5 4A
DPCM : A4 56 57 85 42 15 EB A6 B5 5D DB AD 6A 83 72 5B B1 36 28 B6 52 45 A0 12 69 67 95 A5 FD 4A DA 74
DPCM : B5 B5 56 8B 6A AD AA 14 AB 50 57 68 43 6C 57 B5 45 14 14 6D 6B EA 6E 55 49 B5 55 D5 36 59 7B D4
DPCM : 2D 2B 49 41 55 4B 4D 58 54 56 25 D9 5A 68 97 5A DF AB 45 6B 55 51 6D AB D2 0A 54 55 54 65 25 B6
DPCM : 42 B5 5F 6B D5 0A 2D 2B 6C 55 D5 26 55 95 AA 55 05 DB E2 D6 43 55 A9 AA 65 BB 55 41 D5 2E 55 25
DPCM : C9 55 81 6D 74 EF 12 C2 B6 AA D8 58 2D B6 55 B5 95 A8 DA BE A1 15 F4 2E D4 D4 25 4A 55 A0 52 2B
DPCM : B7 0A 9A 52 F7 76 B5 45 BF E5 0A 55 D5 52 A9 B5 48 6A A9 0A 1A 28 7E 0B 54 E9 DB DA 5C AD 2A D5
DPCM : 57 8D 5A 2B 85 54 55 D5 5D 55 10 4D 55 57 51 43 4A 6D B7 51 AB D2 55 55 55 D5 2D 15 AB 6F 25 29
DPCM : 15 55 A1 DD 16 A1 52 B5 76 55 A1 B5 75 49 55 2B 2D 59 55 2D 6D D5 92 64 51 52 57 D4 A4 ED F5 45
DPCM : 6B 52 AD 56 92 52 AD 45 54 55 AB D4 CA 26 50 77 6D A5 56 A2 D6 B6 AD B4 B6 0B B1 25 B5 42 A5 B4
DPCM : B2 F5 44 55 80 D2 ED 2E 94 B6 AD D2 75 4B 54 53 75 6B 6A 2F 8A 9A A2 55 AB 28 05 EA 16 B4 A1 22
DPCM : DB DA BB B5 6A 4D FA 52 52 6B D1 54 B5 5B 45 B1 14 A8 4A A5 55 54 DB 8E 9E 52 5A 57 69 9B 6E 35
DPCM : 42 55 47 55 D5 5A 95 A6 54 2B AD 08 ED 2A AB AA DD 42 42 DB 54 55 2B B5 B5 55 D6 A5 15 50 5D 56
DPCM : 55 4D 55 69 59 6D A3 4A A4 DA 75 A7 2A D0 21 6B 5B 5B 25 5A 45 A5 AA 26 52 DB D6 EE 6D 43 86 DC
DPCM : 66 BA 8A 24 55 5D 54 4D 12 B2 8A 5A B5 B6 95 AA B5 36 D9 2D 55 B5 EC 8D 9A 84 6D 85 2A 55 55 B1
DPCM : 6D 44 81 AA 5A 6A 77 4D DB 52 55 A5 CA 76 AD AA B6 5A B5 48 D5 21 55 45 25 42 1F D2 36 50 BB 4D
DPCM : 6A AD DA DD 2D 2A 7A 91 6D ED 96 A0 62 AD A0 92 6E 02 D6 AA ED 35 53 05 DC F4 B6 69 29 9B B4 5A
DPCM : B2 0A 5B D5 15 A5 5A 5B A4 56 5F 58 54 55 A1 E5 B5 15 81 7A 97 54 B5 56 D5 36 A5 94 05 BB D5 36
DPCM : B4 54 AD 54 A5 75 17 54 A5 D6 B6 AA 50 6A 09 B7 55 15 90 BB 85 96 6E 75 55 AB AA D6 EE A2 4E DD
DPCM : A0 82 56 51 C1 5B 45 02 B0 BF 4A B4 6D BB 55 AB AD 1A F4 5B 1B 54 6C 0D 6A AA 62 5B A0 94 44 FE
DPCM : 5A A8 54 8D D4 76 93 A1 BD 55 35 D5 DE 56 49 D5 8A AD 54 AB 92 42 15 2A 58 E8 5E 25 15 B5 BD 5B
DPCM : 55 55 DB B5 AA D5 2A A2 AC 15 0A 56 8B AA 52 ED 55 15 A9 5A 79 57 DA 44 B5 54 56 A5 52 EA 5A 25
DPCM : 55 DE C9 5A 92 52 35 D5 76 AB 29 4B 24 29 D4 6E 49 15 AA DA B5 15 69 D9 56 55 5B 74 87 46 4D A5
DPCM : 55 53 D5 56 74 B7 35 40 59 51 57 55 A5 A4 65 C1 52 E8 EE 52 B5 6A EF AD D5 4A A2 15 B7 6A AB 52
DPCM : 61 11 80 4A 5D 95 56 28 ED 6D 6B 95 DD D5 A6 6D AB 2B 34 29 D0 52 49 6B 49 AB DA AB 10 52 D1 E8
DPCM : DB A6 5A 2B 55 06 BD 5A 55 AD 54 57 B5 B1 51 21 95 B6 4A B7 8D 8A 4A 01 DC 0B ED 4D D8 52 6F D5
DPCM : AA 4A 55 D7 4A BB 4A 55 03 B0 AE C0 B6 AA 6D 77 D5 5A 01 25 6A D7 36 15 55 A9 00 57 95 EE 16 62
DPCM : 5F 55 D9 DA 48 8B 6A DB AE 95 2A 4A A0 50 50 5B 55 4D A5 76 57 2B AB 56 5A F5 AE AB 16 09 5A 2A
DPCM : D8 96 58 2D B5 B5 96 0A 04 6A AF DB A4 55 01 85 F3 B6 56 55 B5 AA B5 5D AB 0A 44 C5 5A 6D 2B A9
DPCM : 44 A2 05 A8 0D DA BF D2 AD 15 6B A5 A6 5E AB 35 B4 5A 10 A5 62 20 A5 FE 52 D9 D6 A8 6D 40 6A 57
DPCM : ED 46 14 11 B2 54 B2 93 6A B5 64 AF 56 ED 2A 0A 9A 86 FA AE 52 40 AC 04 25 A8 6D DE A0 AB AD AA
DPCM : A5 D6 A8 AA 55 EB 2A 42 56 35 91 B2 6B A9 AE B4 B5 0A 81 B4 A3 AA 31 A4 41 D0 56 DB 12 6D D1 76
DPCM : B7 5B 55 95 84 6A 9B AA 1A 95 08 15 14 24 2A 29 E5 4F A6 54 CA 56 DB AD 82 54 6D 87 86 81 0A 40
DPCM : 73 55 4D AB B6 92 94 92 56 11 AC 52 53 91 08 55 4A 03 0C 59 E0 2E 14 96 A6 4A 05 94 21 D4 48 2B
DPCM : 45 40 24 4A 04 1B 19 82 4A 41 36 B7 A0 40 A2 31 4A 03 0C 59 E0 2E 14 96 A6 4A 05 94 21 D4 48 2B
DPCM : 45 40 24 4A 04 1B 19 82 4A 41 36 B7 A0 40 A2 31 81 C2 8A 04 25 04 15 15 20 45 B4 D5 00 08 2B 21
DPCM : D9 48 89 8A 20 64 23 23 11 04 02 97 A8 05 16 41 11
DPCMDEF   2  4081 "BG#E3.dmc"
DPCM : 55 55 55 55 55 55 55 55 55 55 55 55 55 55 2B 55 55 55 55 55 B5 52 95 AA 56 65 55 55 55 B5 5A 45
DPCM : A9 55 2D 95 56 55 6A 55 A9 5A D5 36 A5 55 25 25 49 6B D5 D6 54 B5 AD AA 42 A9 4A AD 4A 5B 55 B5
DPCM : 95 52 65 55 55 55 B5 A9 94 AA 56 55 55 95 AA D5 5A 45 55 55 55 55 A9 55 55 55 A9 AA 5A 5B 55 B5
DPCM : 92 54 A4 AA D5 5A 55 55 B7 55 09 55 AA 54 AD AA 5A AD 2B 49 A5 AA 55 55 B5 95 54 55 55 95 55 95
DPCM : D2 D6 6A 4B 54 D5 54 55 25 5D 55 55 95 52 B5 F6 4A DA 25 54 95 A4 AA D5 AA 56 D7 AA 4B 50 59 A2
DPCM : DA 52 B5 5D D3 92 12 55 5D 55 DA 36 54 5D 49 AA AA AC 54 B5 B5 AD 44 6D 45 6A 95 B4 5A A9 35 25
DPCM : AA F7 4A 74 37 41 55 45 AA 54 DB 55 55 77 AB 44 94 92 6A 8B 5A F7 A4 B6 09 21 B7 A5 72 B5 25 ED
DPCM : 89 A4 4A B5 94 54 7F 4B AD 54 29 65 2D 2A 5A D5 B6 45 D0 DE 4D D2 AD 15 54 95 0A 29 FB 5A 95 F6
DPCM : 57 29 48 58 55 2D 74 BA 5D FA 06 82 AC B6 AA 5A BD D4 8D 50 49 55 29 AA 7E 37 5B 54 55 C9 96 44
DPCM : 48 FB B5 13 92 DA DD 24 5B 5B 24 4B 25 42 6D BB 95 DA EF 2A 40 AA 56 29 89 D6 BB BB 0B 90 20 F7
DPCM : 56 58 B7 DB 2B 20 15 29 69 45 F7 5A BF 48 6D 69 45 12 A0 ED F7 12 A1 8D BD 6B 48 5B B3 2A 42 12
DPCM : D9 F6 95 DA D3 5D 01 69 53 45 15 E8 DF FB 89 80 22 B4 5F 81 FD BB AF 00 52 50 A9 45 F5 55 F7 2B
DPCM : B5 2B 48 12 80 EF DE 26 2A AD 6C BF 40 75 AB 96 04 09 55 F7 56 55 4B DB 95 22 9D 44 16 D2 FE AF
DPCM : 2A 14 92 D0 F6 42 7D FF BA 22 80 42 95 45 D6 A5 6F 7F 2F 55 40 12 84 EA 7B 45 5B A9 D5 56 45 AB
DPCM : 57 68 AA 00 5D DD 55 55 69 D5 EA 5A B2 40 95 74 F5 B6 62 55 04 96 AD E8 DE 5F AD 2A 02 A9 84 52
DPCM : 2D F8 BE FD 6F 95 00 09 05 D5 AB E8 DB 52 AD 2A 35 7B 03 D5 4A 2A EA 6A D1 A5 D4 5A 56 DF 45 50
DPCM : 85 AD 55 D5 D4 5A 01 DD 50 F4 FD 5B E4 AA 26 50 05 D2 22 DA BB BF FD 4B 0A 80 44 2D 52 FA DE 45
DPCM : BA A5 D4 DA 51 51 69 56 65 0B A5 57 A8 56 5B 6F 15 5D A0 6A 55 55 6C 6D 05 74 25 F4 F7 71 45 B7
DPCM : 96 04 25 90 2E B0 7F DD FB 27 9D 00 44 15 14 F6 BF 89 F4 1B D4 AE A2 09 5E 76 15 55 64 57 48 AB
DPCM : AB DD 86 7E 04 AA B6 84 D6 ED 02 D4 56 E8 B7 D4 56 B7 56 91 90 04 4E D4 E5 ED FF A5 1E 54 80 12
DPCM : 0B DC 6F 49 DD D6 C4 6E 52 A0 37 F6 A4 E0 55 A6 45 D1 D5 D5 95 9E 2C C4 9D 06 B6 6D 11 F0 95 3A
DPCM : 57 39 D5 5F A9 2A 81 D0 84 4E 13 FE FF B6 92 4D 02 B8 06 E8 2F F4 DA 6A B9 B8 05 70 B7 4A 47 A9
DPCM : D5 92 96 A4 A6 9D 5D D4 0B 75 FA 20 D1 5D 08 5A 5B 7A E1 A5 ED 7A 45 17 09 B0 15 2E A0 EF BF 1E
DPCM : BC 13 0A D9 90 62 B6 F8 65 17 75 CB 02 B6 56 17 95 5D D4 45 35 D0 85 6F 55 B6 94 7D 6B 01 53 55
DPCM : 21 A5 2F 96 6E A5 BD AA AD A2 4A A0 CB 0A E0 DF F6 42 FD 41 59 27 C2 05 EC 55 5B 2D D5 5E 80 76
DPCM : D5 46 6A DF 40 AB 92 60 1B 7E 45 75 55 F7 17 08 2F A8 48 6D 5B C0 BF 70 75 4B 3B 09 5F 40 97 40
DPCM : A3 BF BC 62 F5 03 7B 8B 42 B8 B0 6A 57 55 69 0F 52 F5 45 6A D5 DE 04 4D 55 01 5F 7C 81 F9 D5 BD
DPCM : A3 50 DA 80 AC 5E 41 E9 97 96 D6 56 6B B0 AD 6A 00 75 2C 5E 6E D1 D6 AC BB A6 80 B1 89 5A 5D 55
DPCM : 69 15 5B 56 B4 55 D5 57 4A 45 5A 52 3C 5D C0 EE D5 6F 21 9B 42 55 78 95 14 D5 C7 AA 69 6D 4B AA
DPCM : FE 00 05 CD AE C2 DC AA D2 17 FF 00 D9 14 75 D1 AA 1B C1 C7 B5 A4 F0 AD EA 6A 41 0F A1 5B 15 1C
DPCM : DC E6 9D F4 A9 6A 81 DC 15 2A 7A 48 E7 51 D7 E4 6A DD 16 44 54 53 6D 81 5D 6D B1 BD 26 56 54 47
DPCM : 78 55 55 2D 54 E9 4B 56 D0 B7 AD 54 D1 89 6A 6D 03 0C FD 6A 55 B5 EC 15 A9 B4 5C 54 B8 54 E0 77
DPCM : D5 12 F7 2F 14 94 A4 AD 59 55 84 9F B5 16 1B 55 B5 51 51 7E A5 54 5A 48 5F 55 16 ED 5E 92 54 85
DPCM : B7 A6 2D 00 FE 55 A5 5A B5 95 97 81 76 45 6A 24 AA BE 5D 4A DE B5 22 28 D2 BA B5 4D A0 F4 2F 64
DPCM : 55 A9 DA 6A 05 ED 0F 52 15 58 77 5A 55 5C 6F 8A 34 F0 B6 F4 2D 00 FC 56 A5 D1 2D D9 2F 41 56 1D
DPCM : 95 02 3B ED 5D 69 AA B6 15 10 F8 B6 B7 0B 44 F4 27 55 D1 0C 7E 5F 05 55 3F 50 05 B6 A9 5B 6D D4
DPCM : DA 45 12 F0 67 5F 0B 04 7C 57 55 61 17 FA B7 82 54 AD 54 84 EE C2 D7 B6 A8 DA 52 04 F8 5B 7F C1
DPCM : 10 DA 5A 15 55 03 FD 7F 91 50 BD 01 58 6D A9 D3 7E 45 5A 55 80 9A F7 7E B0 01 F4 55 0B 96 6C B6
DPCM : BF 05 49 4B 47 68 55 69 7C D7 58 B1 DA 00 F8 F7 6E 50 4A A1 6B 15 56 91 FE DF 01 49 6D 11 F0 72
DPCM : D5 E2 FD B1 04 55 81 78 F7 DD A2 01 6B AB 12 A8 AD F4 FB 2A B2 C1 34 D8 21 E6 BA 6D D5 1A D4 00
DPCM : FD DD 45 A5 15 6C A9 06 75 C9 76 FF 81 F0 42 29 E8 A5 AE 71 FB A6 01 D1 40 EE F6 D5 97 20 79 0B
DPCM : 05 D8 B2 6B FF A5 EA 00 55 A6 04 6E F9 B5 D6 47 21 A0 FA 5B 91 3D 54 55 36 41 4F D2 DD B7 02 BD
DPCM : 28 11 5E 95 6E 74 FB 29 05 15 A0 AD BF E9 37 81 B6 0C 01 AA B5 EB FD AA 3D 01 0A 17 84 74 7B D7
DPCM : 7D 0B 1B 00 DE AD A0 DD A6 4A 6E 44 AB D0 DD 5D 50 BD 05 05 7E D1 52 E5 FD 5A 10 9C 20 F4 7F 55
DPCM : B7 4A 36 50 00 6D AB F5 FD A5 5D 01 09 55 80 D5 DD FD 6F 2D 20 04 AA 5F 60 7B 1F BA 42 55 95 A8
DPCM : A7 6D B0 F5 13 24 6B 55 4A F4 ED 0F E8 40 05 A5 7F 7B 69 75 61 01 60 B5 6A B7 BD 77 52 65 40 09
DPCM : E0 16 ED FF BF 35 01 10 48 07 FB 5B 7D B5 84 52 55 54 AD 06 FE A6 5C 15 4B 55 09 D5 DD 27 B5 44
DPCM : 50 DA DA 5D 5D 6A AB 00 D0 93 DA 5E DD DA 1D 88 07 01 B8 15 ED FF FF 05 1C 00 A8 80 FF AE ED 5F
DPCM : 81 03 17 45 55 50 FD 5D 52 7F 94 A0 16 8C 7D 7A 0F B2 A0 D6 8A 6B 1F 2D 17 40 27 1B 5D D7 A5 F4
DPCM : 8F 04 1D A8 48 55 7A FF DF 8E 82 00 01 54 EF 6B F7 7B 05 A6 45 94 80 56 FA AD F5 3E 15 92 12 49
DPCM : C1 FF AE 92 A4 35 51 FC 25 3B 24 57 4A B6 65 4B 4D F5 85 AC 24 AD 14 A5 EA D7 FE CD 41 00 90 A4
DPCM : EA FB FA 5B 6E 45 A0 0B 80 AA D6 75 F9 3F 65 59 80 02 5C FD 53 AF 50 4D 55 69 D5 06 2E DB 52 D2
DPCM : 7D 28 55 5B 68 11 5F A5 74 85 72 B7 FB 65 70 00 A0 16 68 FF 75 AF 5B 47 00 55 04 4A B7 74 FB FE
DPCM : 93 6C 10 00 DC BA 6B 75 6A B1 55 51 54 2B A5 5B 55 55 BD 0B 51 1D 81 5A AD 6B 55 AD A8 BD E9 7A
DPCM : 40 28 48 D9 A2 76 FF 67 DB 51 00 55 0A 90 AB 2D FF 5F BA 3B 00 10 54 6D B7 B5 D8 76 51 0B A0 3E
DPCM : A5 DE 52 55 F7 2D 40 95 08 5E 0D FD 5D 55 E5 AA B4 4E 12 08 53 AB 4D 6C FF BB DA 81 08 2E 94 02
DPCM : D9 E6 FD A7 F6 59 01 05 44 EA 57 37 D4 6F 55 54 40 1D 76 DB 54 55 DF B5 02 E0 40 97 92 FE 5B 57
DPCM : 5B 2A 44 7D 41 00 2F DD 95 AA 57 FF 8B 70 40 15 B5 08 54 F5 5F 57 CB 6F 51 02 12 70 77 57 D0 7F
DPCM : D1 AA 10 05 77 B7 54 D5 B3 77 01 30 B0 15 55 FA 5F 77 4B 4B 40 5D 2A 00 7E 7A 53 9B 56 FF 1A 25
DPCM : 64 11 AD 84 90 EE AF 5D AA 7F 2C 11 14 50 77 75 50 FD 57 29 2A 48 5D 5B 55 E5 9B 4D 07 04 9A 1A
DPCM : 39 D6 FF 73 4B 55 28 4A 15 20 FC 6D B5 55 E5 D6 3F 82 24 17 4A 0A 07 ED DB B2 DB 7B 49 12 54 E0
DPCM : B2 55 68 F9 BF 10 55 29 55 5B 55 9B 3E D8 46 11 B0 55 8A FA 7F A7 96 F4 42 05 2A 60 D4 5F D5 56
DPCM : 35 BD 3F 01 2E B5 80 48 AB D2 AE 9E DE 8F 55 A2 28 85 2E 0D A8 DF 3F 42 55 D9 D0 D6 52 37 AD 51
DPCM : 45 05 95 D6 82 DA FF 4B A5 D7 86 20 25 A0 71 37 BD 96 F8 ED 5D A0 5A AC 00 D1 D4 16 F6 57 D5 7B
DPCM : 15 55 41 95 65 05 68 FF AA 54 55 6C 95 5E AC 2E BC 4D 60 D0 A6 F8 40 F5 FE 16 F5 4B 8A CA 01 30
DPCM : 65 D7 6A 0B FE BD BC D0 29 B4 10 D0 B0 D5 F6 0B DD FC A5 AC 02 4D B6 08 F8 96 5E D5 12 D9 D5 B5
DPCM : 68 AD F8 02 29 62 CB AD 84 BA 7A 77 DD 82 3A 3C 04 68 51 DD 4A A7 7A F3 5F A8 4D C4 50 10 8A EE
DPCM : 3F A1 BD F4 5B 93 A0 34 55 85 74 A4 7E 55 95 52 DB 37 D0 BD 0A 54 15 52 D5 5B 81 75 E8 FF 0F B0
DPCM : 6D A2 42 A8 81 5A BB F8 4A FC FF C0 9E 14 90 00 B6 FA 2D C5 BB D4 EF 0D A0 45 53 15 09 97 BE 5A
DPCM : A5 5A E9 6B C1 7E 0A 54 55 70 A9 6D 05 D2 AB FF 15 E8 BE 28 11 54 22 D8 5D 57 96 DE FF 82 59 55
DPCM : 00 B0 A4 AB 4B 17 5F 75 7D D3 00 B6 56 91 10 B5 BB 5A 56 65 49 DF 45 B5 D1 24 59 45 5C AB 04 BA
DPCM : ED F5 A9 A5 AD 6E 80 24 80 37 AD AB 29 FD 7F 15 B2 B4 01 A8 14 E9 55 D5 5B 55 BF EA 80 92 FE 04
DPCM : 48 E8 5F 45 5B 5A E0 5F 73 29 D4 8F 2C 12 AC 2D 82 A7 76 77 F2 D6 25 F6 0A 10 80 7D 63 17 69 7B
DPCM : FF A8 0D 94 17 A4 44 8A B5 4F 37 A9 FD 44 8B 54 ED 07 50 25 5F 51 5B 44 CB 7D 75 05 55 7F 8A 40
DPCM : A9 8A A3 B5 E9 78 6D AF 54 EA 0E 50 04 D6 6B A2 EA 5D AF EA A6 90 4E 2A 45 A0 DE D6 4D 95 D5 6C
DPCM : 43 BA AB 48 75 31 A1 5A 17 68 CB DE 36 CA EB 74 09 11 0B 6A D1 7B 15 94 FF 0D E9 AD 02 D5 92 A8
DPCM : 98 6A B3 57 D5 7A 83 A7 41 5F 00 DA B4 E5 65 6B 80 BF 45 F6 D2 48 ED AA 02 78 51 4D 9B 5B D9 B2
DPCM : 7B D1 24 29 D0 52 D1 5F 69 42 FD 47 D2 77 40 B5 5A 05 E0 56 BB 5A 95 76 D4 6D 9C 0D A8 52 9D D0
DPCM : 5D 1B A0 7D 0F 1B F5 43 BC 59 90 40 D5 6D 5B 15 FC A9 AD 2D 0D 92 A4 AE A4 9E 6A 41 FB A6 6C F2
DPCM : A8 F4 4D 40 52 A5 77 55 55 E1 DA 56 8F 05 55 15 D7 90 5E 29 58 7D AD 52 BD 29 7A 55 90 28 E8 7E
DPCM : 4B D1 B2 D5 CB 96 12 95 6C D6 05 AA 57 68 5E D9 54 2B AD 76 4B 40 97 A0 7B 2D D2 22 F7 AB 0B 54
DPCM : 5D 54 D5 05 D8 8B F8 55 A5 6A 1F 6A DA 3B 00 17 B0 77 4D B8 45 BD 53 5B 60 55 B5 72 03 F8 15 F4
DPCM : 95 2C 7A 17 AD 76 0F C0 1E 48 DB 55 D8 D0 F7 AA 0A 55 55 9B AA 11 F4 26 EA 2B 06 7D 1F 54 DD 3A
DPCM : 40 2F 85 76 15 BA C8 B7 55 74 54 69 D7 D4 02 DC 13 D9 55 68 D6 3D 4C BD 0A 54 AB 0A 36 7A 12 FC
DPCM : 76 AD 50 B5 64 DB 0A 65 CA AA 6C 65 05 7D 2B 55 AD 2D 32 75 55 D0 94 26 7A 6F A5 54 B5 64 DB 16
DPCM : 84 AE 6A 55 D1 26 76 55 55 5D 45 6D B5 2A A0 55 05 F5 5F 2D 94 55 47 5B 55 94 5A 78 35 15 55 B6
DPCM : 55 55 B6 45 57 B5 55 02 9A 24 FD 36 3D A4 B5 34 DD 45 64 5A F8 05 5D 89 AB 4A 57 53 55 57 DB 05
DPCM : 8A 84 AA EC DD 55 64 B5 DC A2 BA 40 5B 78 47 59 C5 A6 5C 85 DB D0 BD AA 17 12 B0 68 FC C9 ED 80
DPCM : 7D 69 63 BA 60 99 F4 91 5A 85 1D 5D 1A 5E 6A 77 D5 9A 24 00 DE D8 9A FB 48 D9 75 8A 55 84 AB AA
DPCM : 95 55 AD 14 5D 96 98 F4 BD 93 D6 4A 00 BA E4 EA 6A 65 AA 5F 86 6E 42 A5 AA 6C 13 75 55 6C 4A 69
DPCM : DB D5 95 B5 09 04 BC 52 EC DD EA 90 F6 17 68 D0 D4 6A F0 5B 74 29 D1 15 41 FD AB 5D F1 56 01 30
DPCM : 9C B6 EA F0 4D F5 3E 68 C2 10 BD 92 3D D1 9B 0A 1E C5 DB 45 F5 4B 36 50 B0 14 7E DB 54 95 FA 2F
DPCM : 81 50 55 15 AF F6 8A 51 2B 8A A8 7A AF 52 FF 74 90 00 AC 71 5B D1 5E AB FF 02 01 54 5B 36 DA 56
DPCM : AF 42 95 B8 2A AD 35 FB A6 A0 05 A0 77 57 41 DA FF E9 24 80 8E 4A DF 54 D5 6A 07 85 E8 F4 96 65
DPCM : F7 2F 80 12 10 A7 2F 58 F5 FD CF 12 00 B4 54 DB A4 DE BB 90 0D B8 70 B5 AC 75 5F 50 2D 80 67 17
DPCM : B0 7C FF AE 52 00 3A D8 AD 15 7C 6F 49 8A 70 A9 57 78 FB 05 B6 14 81 AE 2E C8 BE FE BE 03 40 68
DPCM : D0 AD B6 EC 37 35 91 80 6B D5 70 F7 16 FA 0A 84 5E 01 AD 7A 77 EF 1D 00 45 70 AF D0 7D DA B4 42
DPCM : 85 CE 52 75 7D 90 FD 08 29 76 02 ED B2 F7 5F 8A A0 44 A0 6E 37 B7 EA 7A 03 90 9E B0 B2 7B 49 7D
DPCM : 31 EC 44 80 DB B2 D5 7F 17 81 14 25 43 FB 0F B5 69 07 55 59 D0 DB 49 D1 BB 11 D9 45 05 B4 DE B5
DPCM : 5B 7B 40 11 24 EA 6F 2B FC 6D 04 D5 52 81 AE 57 A5 55 5B BB 04 06 EA 8D 6C FF 2B 40 D5 14 A0 FF
DPCM : 5A A4 6D D5 42 85 65 57 96 6A D5 43 6D 17 02 E8 7D 95 F5 2F 41 A1 82 E8 77 69 D5 AE AC A2 4A 09
DPCM : BD AA 45 EA F5 A5 2D 40 B8 4B EC FA 4B 41 7A 81 D0 DF 72 11 DD 5E 48 16 5D DA 44 57 5A D5 56 37
DPCM : 00 D8 5F 78 D5 EF 02 68 85 C4 6D 57 4B 76 5B 49 2A 89 7A A1 A9 DC 76 5D AD 00 D1 9E 68 DD 71 0B
DPCM : AC 1D A4 DE 2A 0B AD BD 90 5A C5 B6 54 55 69 B6 AA 5E 01 C8 7D 4B D6 7B 01 95 AA 94 D8 37 59 2D
DPCM : D7 55 50 0B A9 5E A0 3E 7E 57 EA 0A 40 6F 45 5E D9 84 6C 2B 95 76 5A 49 E8 56 55 26 7D 91 76 25
DPCM : 74 8B D6 3A 14 05 FE 4F D4 BD C0 86 52 37 F0 A5 D6 51 55 5F A8 52 05 3F 0A D2 BF AE B2 15 14 DA
DPCM : 56 55 5C D0 D7 25 75 F1 45 92 A2 93 56 D6 F6 42 6D 35 82 97 D6 4A 09 59 7D BB 52 7A 50 A5 A6 D4
DPCM : A2 5B 2D 55 65 6D 55 49 55 55 D0 C2 7E BD 95 54 C9 C4 5A 53 50 79 5B 6D 52 5F 55 11 68 51 E8 B7
DPCM : AD F6 88 E9 82 92 5B 35 A0 ED 95 F6 0B 6A A9 92 AC 18 BD DA 15 6C A3 DA B6 A2 6C 24 64 63 9B FD
DPCM : 2D 62 75 05 2A 17 54 B5 27 DD A5 7D B4 06 40 05 DD F6 AD FE 02 5A 54 25 AA AB A8 FC 15 BA AD AC
DPCM : D0 46 50 B5 5E E9 45 65 55 B6 AA 17 AA 14 24 EE 96 7C 3F 59 D5 06 20 BC D2 E4 5B E8 EF D6 C2 02
DPCM : 11 12 EB CB 77 DD 17 04 36 0D 28 5F 74 D7 2E 64 F5 43 55 15 80 B7 57 8B 45 D7 C5 C5 2E 2D D4 46
DPCM : 00 77 2B 75 7F A2 6F 09 00 D4 D5 72 4B B9 FD 9B 1A 00 B2 82 5D DD D2 FD 2F 00 D6 12 D0 A3 5D DD
DPCM : A7 22 5D 5E AA 42 C0 E1 DF 2A E0 77 47 3B A5 10 FC 25 01 DA 35 5F 2F 7D E5 0A 00 A8 FA B2 AB 69
DPCM : AD FF 0A 00 B4 A1 DD C8 F2 FD 7B 40 50 22 74 15 FD 5A BF 07 50 7D 49 92 40 B5 7D 2B 68 AF DA 77
DPCM : 01 A0 7A B5 A0 E0 D6 57 3B FD 12 DA 10 00 BD 7C DB 12 F7 BB 05 C0 B8 A0 AF 0A FC F5 EF 44 01 88
DPCM : 76 24 FA DB BE 51 68 B5 50 55 41 D8 ED 56 49 B5 D3 5F 01 60 76 A9 4A 95 16 FE 2D FA C1 B6 20 40
DPCM : 69 7D 4F A9 BD ED 80 52 55 A0 7E 09 B6 FE BD 5A 00 91 78 12 F4 7F AB B2 69 05 D1 6E 40 51 F7 56
DPCM : 55 FD E8 5A 00 3A BA 50 5F 35 81 7D 5F A8 B5 2D 50 84 56 4D 5F 65 AF A5 D0 2B 34 41 BB 0A D9 7E
DPCM : 57 5D B0 08 94 9C F2 D7 56 F4 0F 4A 60 37 41 5C DD E2 57 FA 85 16 68 29 26 A9 DF C3 11 7C 1F 46
DPCM : DD 2E 80 1D B9 A0 AF BA AE 12 D5 97 50 A4 2E D8 43 DF A3 57 CD 02 A0 5A 6E 55 17 B5 BF 00 D1 16
DPCM : AC 78 35 7A AB B7 52 41 74 15 34 F1 DE B6 02 F5 56 54 DD 05 91 DE 11 51 AB BD 6E 90 DE 54 2A A9
DPCM : 4A D4 B5 5A 6D 6A 3F 04 60 56 6D D7 52 AB DF 02 18 55 54 ED 8A 5B D5 9F 85 90 AA 56 08 DD DD AD
DPCM : 48 55 47 D4 B5 28 12 FF 13 C0 B4 6B A7 A1 AB B2 9A A4 15 A2 DF 92 55 D5 9F 02 58 94 DE 16 B5 D4
DPCM : FE 02 70 41 95 ED 93 A8 7C DF 80 45 D4 16 01 7B DB 56 0B 5D 84 D6 5D 4A 41 FF 07 C0 0B AF 6A 55
DPCM : 2D DA 65 D1 25 E0 57 95 AA DA 5D 04 D1 A2 5A 5B CD 92 FD 05 54 A8 C0 6F 55 A5 F4 4D 61 29 D1 56
DPCM : C1 97 6A ED C0 52 25 DA 55 D5 C0 FF 12 14 B8 C1 6B 5C 55 EA F2 91 2A 12 5D A1 97 A8 F5 8A 51 A5
DPCM : D8 2A EC 44 DC 09 D4 94 91 97 74 15 56 B5 08 1B 15
DPCMDEF   3  4049 "C#A#F#4.dmc"
DPCM : 55 55 55 55 55 55 55 55 55 55 55 55 55 55 55 55 55 55 B5 54 A5 5A 55 55 55 55 D5 5A 52 5A D5 54
DPCM : 56 55 5A 95 AA 56 DB 54 55 25 45 CA 5A 6D 55 D5 B6 AA 44 A9 52 2B AD 55 B5 95 52 55 55 55 D5 AA
DPCM : 52 AA 56 55 55 A5 5A 6D 25 55 55 55 55 5A 55 55 A5 AA 5A 5B 55 2B 49 49 AA 56 5B 55 D5 6D 15 51
DPCM : A9 54 B5 AC 56 DB 92 94 AA 5A 55 B5 25 55 55 55 55 95 D2 D6 DA 12 55 4D 55 95 6A 55 55 A5 54 DB
DPCM : 2D D5 26 54 25 A9 6A AD 5A DD AA 8D 50 25 A9 55 D5 76 CD 92 24 55 57 A5 ED 48 6D 49 A9 2A 2B 55
DPCM : D7 B6 12 6D 51 5A A5 AA 95 56 15 AA F7 8A DA 15 54 15 A9 54 DB 55 B5 BB 4A 48 89 AA 8D DA 5D 69
DPCM : 1B 41 DA 56 6A 75 29 AF 44 2A D5 94 D2 7E CB 2A 95 52 35 29 59 D5 B5 22 EC BD 44 B7 15 54 A5 44
DPCM : AA B7 55 D9 5F 45 10 55 D5 C4 6A 77 B5 0B 84 B2 AB AA F5 D2 8E 48 4A 55 92 DA 77 6D 51 55 A9 26
DPCM : 22 74 5F 97 48 DA 5D A9 B6 46 2A 95 20 6D 77 A5 F6 B7 02 A8 5A 29 89 76 EF 5E 01 41 BA 57 54 F7
DPCM : F6 02 51 91 64 45 F7 DA 2F D2 96 96 08 A0 ED F7 44 D8 B4 B7 11 6B B5 4A 84 44 6D 5F EA 4E 6F 01
DPCM : 55 55 52 81 7F DF 4B 80 04 BB 17 F4 7D DF 04 50 50 5A 51 5F F5 AF D4 2D 48 04 70 F7 AD A4 B4 6C
DPCM : 3F 44 BD AA 0A 21 4C FB 56 D5 AA 5D 4A B4 12 16 D2 FF AB 42 21 A2 FA 0A FB DF 2E 01 28 54 26 D5
DPCM : E5 DE BF 53 05 48 10 EA BD C9 56 5A 6D 15 AD 5E A4 2A 81 D6 5E 55 A5 55 6B 9B 2A 50 A5 D6 DD 52
DPCM : 55 04 55 8B F6 FB DA 4A 11 28 91 54 43 DF F7 7F 95 00 21 41 DD 8A 77 4B AD 2A D5 EE 40 AD A4 68
DPCM : 6B A9 A9 AA 66 F5 9D 40 15 AD 55 55 B5 26 D0 43 F1 FE 9B 38 6B 02 15 48 8B D8 B7 7F 7F A5 00 90
DPCM : B4 50 FA 7D 51 5D 4A 6D 47 45 59 55 D9 44 7A 61 5A 6D 7B 15 1B A8 56 55 A9 B5 05 6A 05 7F 2F 97
DPCM : EC 5A 04 25 A0 0B F6 D7 F7 9F AC 00 50 09 45 FF 2B 71 2F D4 AD A8 C4 69 57 54 62 57 C8 DA DA 6E
DPCM : 78 13 A8 B6 44 6D 3B 20 6D E1 B7 D4 D6 B6 15 11 12 38 D1 D5 DD FF 69 83 02 4A 0C EC 6F 49 B7 56
DPCM : EA 4A 82 3D 5D 29 74 65 1A A5 D6 D6 95 2E 0B EC 6A D0 B6 11 F0 A5 CE 95 55 FB A5 2A 01 D2 60 33
DPCM : D1 FF DF 8A 95 02 B4 02 FE C4 6D 6B 59 B9 01 7A AB 6C 94 56 4B 26 A9 EA D5 49 2F B4 7A 21 74 1B
DPCM : 90 75 E9 45 97 EE 6E B1 89 00 5B 38 A0 F7 BF 87 DE A0 50 13 A2 BA F4 D9 45 B7 1C E0 5A 17 55 17
DPCM : 75 54 05 1B BD 55 36 65 BF 16 28 55 05 A5 4F 95 5B F1 AD B6 8A 2A 60 D3 02 F8 EF 2B F4 0B 59 87
DPCM : 70 01 5F 6D B5 54 5F 80 5E 75 A4 BD 03 AD 92 50 47 5F 54 57 ED 1F 08 0F 29 52 D7 0A FE C4 B5 4B
DPCM : 4F A1 07 74 01 8D BF BC 64 FD A0 B7 88 E0 D0 6A 57 55 FA 10 D5 1D 69 D5 BE 40 53 15 E8 F1 05 FA
DPCM : D5 FB 28 A4 0D D0 7A 05 E9 97 65 75 B5 85 B6 6A 00 9D CA 65 17 5B B3 BE 26 60 6C A2 B5 55 A5 95
DPCM : 5A 55 6C 55 7D 95 14 59 52 3C 17 70 5F FB 86 6C 42 15 5D 45 51 7D AC A6 75 4B AA 1F 50 50 BB 42
DPCM : ED AA F2 C5 3F 40 55 B4 45 6B 17 F0 69 4B C2 B7 6A 6B C1 43 D8 55 A1 61 5B 9F BC AA 1A C4 5D A8
DPCM : B8 C8 EA D2 35 B5 B6 6B 40 54 53 5D D0 D6 26 F7 1A 59 D4 06 5E 55 D5 42 E5 4D 56 F0 6D 4B 15 1B
DPCM : AA B5 03 12 BF 5A 55 D3 57 A8 34 1D 15 4E 15 FC 55 87 FA 2F 04 45 EA 6A 55 41 AF B5 45 47 55 27
DPCM : 15 F9 A5 52 5A D0 57 65 B4 7D 92 54 C5 AD D9 02 F0 57 A5 5A 6D E5 55 60 97 A8 22 A9 7E 97 62 6F
DPCM : 4B A0 D0 BA B5 15 48 FF 42 56 A9 DC 5A 41 FB 03 55 41 BD 5A 55 DC AB 24 03 DF D2 2F 00 FC 55 59
DPCM : DC C2 BF 04 56 1D A5 C0 D3 BE A3 A9 B6 05 04 7E 7B 3B 01 D4 2F 65 51 83 FF 15 54 FD 40 05 6D EA
DPCM : D6 46 6D 17 11 E8 EB D7 04 C0 5F 55 51 17 FA AF 40 D5 4A 11 76 C3 D7 2D AA 56 05 E0 5F 7F A2 80
DPCM : B6 55 51 0D FC 7F 11 54 6F 00 D5 A5 4E F7 45 5A 15 A0 F9 FD C1 01 F4 D5 42 C5 66 F7 47 24 53 07
DPCM : 5A 95 A6 5F 53 A9 5A 01 FC FD 06 25 85 6E 15 56 A1 FF 1F 90 B4 45 E0 6C B5 78 BF 12 54 05 B4 DF
DPCM : B7 68 A0 B6 2A A0 AE EC BF 8A 1A 4C 45 07 E5 B6 ED B4 21 0D 70 FF 16 A5 05 5B 6A D0 16 DB FF 01
DPCM : F4 50 0A 6E EA C6 ED A7 01 34 50 77 5F 5F 02 79 13 01 2E BD F6 9F EA 40 54 29 81 97 DF 6A 1F 05
DPCM : 81 FE 56 D8 43 55 55 05 4F D4 F7 2B D0 8B 44 78 95 9E DC BD 4A 50 80 B6 DF E9 57 60 CB 00 A8 D6
DPCM : EE FD 6A 0F A0 70 02 D2 DB B7 EF A2 01 E0 B7 82 DD A6 52 1D B8 12 DD 77 42 7D 41 81 5F 2C 95 F7
DPCM : 5B 08 1A 08 FB 5F ED 2A 3A 50 00 DB 6A FD 9F 76 05 44 14 60 F5 F6 FF B5 00 01 EA 17 D8 F7 A1 8B
DPCM : 54 95 E8 66 2B 5C 3F 50 AC 55 89 F4 FD 05 0E 54 90 7F 7B A9 9D 54 00 D4 AA DD ED 77 54 05 94 00
DPCM : 6B F4 FF 7F 4D 00 80 74 F0 6F DD B5 88 54 45 B5 2A F8 97 5C A5 52 55 50 7D 1F B5 44 50 B6 F6 D5
DPCM : A9 AD 00 D0 A3 B6 D7 AE 7D 01 1E 00 74 43 F7 FF BF A0 00 A0 80 FF 6B F7 07 0E 1C 25 55 50 7F 17
DPCM : F5 4B 82 5A 90 BB BE 03 0B 5A 4B 6E 1F AB 06 70 B1 B1 5D 97 F4 8F C0 05 8A 54 E5 FD FF 96 04 40
DPCM : 00 F5 BD BD 7F 05 A5 11 09 68 E9 B7 D5 3F 85 A2 90 14 FE BB 8A 62 35 94 77 B2 85 5C 29 B6 D5 52
DPCM : 53 1F CA 92 B4 12 A5 FA F5 DF 1A 00 40 A2 7A BF FE E5 96 80 2E 00 9A 75 5B FF 8B 56 01 12 58 7F
DPCM : B5 0B D5 54 A5 D5 06 4E B7 14 DD 8B 54 5D 68 81 5F 49 57 A8 DD EE 67 68 00 A0 85 F6 DF BD 5B 2B
DPCM : 00 25 20 F5 B2 7D FF 13 2B 00 C0 AD B7 B5 69 71 55 14 B5 52 6E 55 55 7D 07 D4 06 A4 B5 B6 55 2D
DPCM : 69 7D B6 07 A0 20 69 8B F6 FF B5 1D 01 54 09 88 6B AB FF A7 77 01 00 94 ED 6E 4D 6E 17 2D 80 3E
DPCM : A5 BD 54 B5 DF 02 54 04 9E 43 FF 4E 55 AE D2 2E 12 A0 D4 EA C4 FE EF EA 01 81 0D 29 90 6D FB 9F
DPCM : FA 59 40 01 A2 7E DD D0 6F 55 14 D0 45 B7 4B 55 FD AD 00 58 70 29 BA 7F 5D 9B 4A 50 1F 02 F0 F4
DPCM : 96 AA D7 FF 02 07 52 D4 24 50 ED BF B5 FC 46 09 08 61 EF 15 F4 1F AD 42 14 7C B7 54 F5 DA 17 80
DPCM : C0 16 8D FE D7 BB B4 00 75 29 01 BC DE D4 69 F5 AF 14 64 22 2B 81 E4 FE 76 AA 7F 2C 04 05 74 D7
DPCM : 42 FD 57 89 0A D2 B6 55 55 5F 4E 07 04 A6 85 63 FF AF 4D 15 2A 52 09 C0 BF D5 56 D5 F5 17 28 F1
DPCM : 20 49 0A ED B7 DC DD 9B 24 41 41 AB 15 5A FE 0F 51 A5 54 5D 55 A7 0F 75 24 C0 56 89 FA FF A9 45
DPCM : 2F 14 28 A0 B4 5F 75 55 D3 FF 04 B4 B4 00 D1 2A DD 7C 7A 9F 95 22 4A 61 D3 80 FE 7D 42 55 36 74
DPCM : 2D F5 B4 06 25 21 A5 2D A1 FF 2F A5 DD 22 48 01 2A EF 72 5B F8 ED 1D A8 A6 0A 40 53 5B FC 55 F5
DPCM : 5E 51 85 54 66 05 E8 BF 2A 55 D1 55 76 AA 0D EF 02 16 5C E2 03 F5 F7 45 FB A4 28 0B 40 65 D7 DA
DPCM : 42 FF CB 43 27 B1 10 30 6C 6D 3F 71 F3 57 AC 40 53 4D 80 5F 7A 55 13 79 75 2D D6 52 0F A8 60 AB
DPCM : 2B A4 AB F7 F6 82 3A 3C 00 5A D4 AD 9C EA F5 5F A8 23 0C 41 28 7A 7F A1 37 FD 75 08 CA 54 85 B4
DPCM : A8 5F 55 29 6D DF 40 BF 12 54 11 55 7B 05 B6 E8 FF 07 EC 26 1A 90 05 5A 37 BD C2 FF 07 7D 92 40
DPCM : 00 AE 7E 53 7A 53 FF 0E 60 D1 54 85 70 FA 6A A5 5A DA 5B E8 A7 40 55 B0 A9 5D 01 BD FA 3F A0 DF
DPCM : 28 21 14 81 EE 6D 99 7A FF A1 55 05 04 8A AE 4D 1B 5F 6D BF 0C 60 6B 45 10 75 AF 56 55 15 DD 17
DPCM : D5 D1 24 56 C1 B6 0A E8 EE F5 69 69 6B 07 90 02 DC AC 5B 4A FF 5F C1 D2 05 A0 14 7A 55 BD 55 FD
DPCM : 6A 81 92 3F 01 82 FE 15 5D 59 E0 DF 5C 42 FD D0 08 B4 2D E0 AA 7B 27 5F 17 B9 0B 10 C0 5D 75 A1
DPCM : ED FF A2 0D E4 42 4A 24 B9 5E 37 A9 3F D1 28 D5 0F 48 15 5F D1 16 34 7D D7 15 54 7F 22 50 AA 34
DPCM : DA E6 E2 ED 2E 95 F6 00 09 D8 6E A2 DA B7 9B 6E 42 5A 29 25 A0 BB 5D 55 59 B3 15 D9 1B 51 9D 0A
DPCM : 6A 6D A0 CB DE 8E F2 56 17 22 2C 68 D1 5F 05 F5 5F A1 B7 0A B4 24 29 A9 36 6F 55 7B 83 A7 A1 07
DPCM : A0 CB 96 67 6B 80 7F 61 2F 8D B4 AB 02 74 54 B3 B9 95 CD 7E D1 44 4A B0 94 FC 95 09 FE 47 D4 2F
DPCM : 50 AB 55 00 57 BB 56 A9 17 DD B2 36 A0 52 2B 74 D7 01 DA 5F 1C F5 09 7D 15 08 54 BB 5D 15 FC EA
DPCM : 5A D3 20 92 B6 A4 9B 5A D0 77 CA C5 A3 F4 8E 80 54 B9 57 55 E1 DA D6 87 41 55 69 15 7A 29 58 5F
DPCM : 53 D5 9E E4 55 41 28 D8 DF 92 2C 57 37 57 12 15 9B 6D A0 76 A1 75 59 D5 4A AB B7 04 5C 82 BD 2D
DPCM : B4 C8 7F 3A 42 75 52 D5 05 EC 82 5F 95 6A 1F 6A 76 0F A0 01 DF 36 D8 45 FD D4 06 56 D5 AA 0D F0
DPCM : 15 7C A5 A2 77 D2 D5 17 C0 07 D2 6E A1 0D DF AB 05 55 D5 A5 1A C2 1B EA 4B 42 FF 41 D3 ED 00 3D
DPCM : 85 6E 91 1E 7C 57 D1 52 69 B7 B2 80 5E A2 57 68 D6 1D 4B EF 40 B5 2A 58 BA 12 FA 5B 0B 59 8B 6D
DPCM : 0B A5 AA 2A 57 15 F8 AD 54 AD 8D 4A 57 05 4B 9A D8 6F 29 55 2D B5 5B 10 B6 6A 55 B4 A1 5B 55 75
DPCM : 15 6D B5 0A 58 55 D0 DF 35 A4 D5 C6 56 25 69 51 D7 14 55 76 55 A5 5B 74 D5 5A 02 26 49 7F D3 83
DPCM : DA B2 BC 11 A9 46 5F B0 85 AE AA 56 55 D5 B5 1B 28 44 AA DC 77 19 6A CB 87 EA 40 5B DC 92 56 74
DPCM : 72 15 DD D0 AF EA 05 81 C2 F1 C7 DD 40 9F 3A 69 43 69 F2 92 5A E1 C5 65 E1 65 7D D5 1A 09 40 8F
DPCM : AB EE 43 D9 AD 61 25 B8 AA 9A 56 2B 15 9D 45 45 DF 4F DA 4A 00 36 B9 B6 96 A9 7D 8A 6E 50 A9 AA
DPCM : 36 D1 55 71 4A E9 76 6E 5A 17 10 D8 52 7C B7 16 69 7F 81 C4 D2 5A F8 25 97 42 5B 08 FD AB 97 BA
DPCM : 15 80 C2 D9 EA F0 53 7D 0F 26 42 F4 92 37 74 A7 E0 4A 7A 1B F5 4B 0E 14 2C E1 AF 4B 95 FA 2F 40
DPCM : 54 55 F4 DA 4B 52 4B 12 C6 FB 2A BD B3 02 80 6A BA 15 ED AD FE 23 00 54 97 93 6D DD 0A 95 B8 4A
DPCM : 5D AD 6F 82 16 80 F7 56 90 FD 9F 8D 00 5A 52 3F 55 B5 76 50 E0 72 57 E5 FE 15 20 01 9D BD 60 ED
DPCM : FF 2D 09 80 52 6D A3 DE 37 D4 80 43 D7 AA 75 1F 52 0B 70 75 81 F2 F7 AF 14 80 0B DD 56 78 7B 45
DPCM : 12 5C BC 85 F7 17 B8 14 81 AB 83 EC DB FF 05 40 18 74 AB CB FD 54 49 02 6B 36 BA 77 E1 2E 10 5E
DPCM : 01 AB DE 7D 7F 00 14 A1 2F B2 9F 2E 2B 54 B8 52 75 5F 60 5F 82 E4 09 6C F3 FD AB 02 49 04 7A 3B
DPCM : B7 EA DE 00 E4 41 CB DE 49 7D 0A 37 04 B8 CB D6 FD 17 20 45 31 B2 7F D4 69 07 55 16 EC 1D 45 EF
DPCM : 52 D8 51 01 F3 5E BB ED 01 11 88 FA DB A2 DF 09 54 53 81 EB 55 5A 75 ED 12 08 EA 15 77 FF 02 54
DPCM : 13 C0 FF 9A 58 57 2D 14 56 57 96 6A 75 D4 76 08 A0 7F 95 F5 4F 10 89 90 EF 65 D5 35 2D A9 12 F4
DPCM : AA 26 EA 7D 69 13 80 37 B1 DB 4F 41 5E 20 FC AD 16 EC 5E 90 16 17 57 74 69 55 6B 2F 00 F4 17 57
DPCM : BF 0D A0 85 A4 DB D5 64 77 25 2A 49 76 A1 CA 6E B7 B5 02 C8 2E 59 B7 BC A0 76 90 DE AA 22 EB 0B
DPCM : 69 15 DB 54 55 59 AD EA 06 20 F7 4B D5 77 40 A9 4A A1 5F 69 AD B6 15 B4 90 7A 81 7E F8 97 BA 00
DPCM : F8 96 78 65 93 DC 4A 65 AB 25 91 5B 59 45 77 A4 57 C2 35 55 5B 44 81 FF 43 7D 03 8D 52 17 F4 A9
DPCM : 1D 55 7D 91 52 85 57 04 FD EB AA 56 10 EC 56 25 17 7C 9D D4 E5 46 91 E8 A8 65 5D 1F 74 35 44 A7
DPCM : B5 94 50 F5 ED 52 5E 50 A9 4A 2D 7A B5 54 65 5D 95 54 55 05 0B 7F 7D 25 65 34 B4 55 41 E9 5B AD
DPCM : D4 57 15 82 46 E1 BD AD 3E 54 2E 28 75 35 81 DD A5 FD A0 A5 4A B2 18 BD BA 05 37 A9 DD 8A 6A 02
DPCM : E9 D4 E5 DF 44 D6 05 2A 07 55 BD CA AD F6 D1 0A 80 41 6F DF EA 0F 58 4A 85 6A 4B CA 5F 64 AF AC
DPCM : D0 12 54 ED 95 5D 94 55 B6 EA 45 4A 41 B4 5B EC 3F 55 75 01 A0 2B 4B 6F E8 BF B5 B0 00 28 6C AF
DPCM : 77 FB 06 41 D3 80 7C D1 D7 4E 54 7D 4C 55 00 DE 5B 53 D1 75 5A BC B2 50 4B 80 DE 0A BF 2F FA 05
DPCM : 00 E4 B5 DC 54 DD 7F 5A 00 B0 82 D7 36 DD FF 02 D0 12 70 E9 D6 BD 2C 74 79 A9 02 B0 F8 AF 02 FE
DPCM : 1D 3D A5 00 7F 12 60 DD 7A 2F 7D B9 04 00 EA 4B B7 A6 ED BF 02 00 2B B6 23 CB FF 6F 00 14 C2 56
DPCM : F1 6B FD 07 50 5F 22 81 D4 EE 2D E8 AD BE 1B 00 EA D5 84 E0 F5 D5 D3 2F A8 45 00 3C DF 36 69 BF
DPCM : 57 00 D4 E0 AB 02 7F FF 8D 04 20 7A 84 FE E5 9B 84 D6 42 55 08 76 7B 55 B5 CE 5F 01 A0 5E 2A 55
DPCM : 69 F4 B7 F8 A1 36 08 50 B6 5F A5 ED 5D A0 54 05 DA 27 D8 DE BF 16 40 84 27 C1 FF AD B2 69 05 74
DPCM : 07 24 ED 57 55 EF D8 05 A0 E5 42 7D 35 81 DF 47 5C DB 40 81 36 D5 5E D9 AB 12 BD B0 80 BB 22 F5
DPCM : BD D5 89 22 50 AC FC B5 25 FF 20 81 37 81 5C B7 F8 E5 1B 5A 60 45 2A EA 5F 2C 61 BF 44 ED 0E 60
DPCM : 87 0D FA EA B6 92 F4 15 14 E9 82 17 FB A6 57 AB 00 A8 D5 D6 9D D4 BF 00 B2 85 52 57 E9 AD AF 52
DPCM : 10 5B 41 C5 7E BB 02 F5 16 55 5F 40 7A 47 40 AB B7 17 E4 0D 69 A8 4A B4 AD 56 A7 EE 03 40 56 ED
DPCM : D6 D4 EA 37 80 52 54 DD D2 56 FD 56 08 AA 5A 08 BD 77 2B 52 B5 D0 BE 24 A2 F7 01 4C B7 9D 86 AD
DPCM : B2 16 59 21 FA 53 56 D5 9F 00 26 E9 6D D5 52 FB 03 70 50 D9 3E A9 EA FD 40 05 B5 95 A0 6F 4D 0D
DPCM : 5D A0 76 97 12 FC 1F 80 0D AF 5A D5 92 9B 46 17 E0 57 A5 AA F6 15 44 0B DB 5C 53 E9 5F 40 A9 82
DPCM : 77 55 25 FD 1A 96 24 5B 85 97 5A 3B 31 55 A8 57 D5 E0 DF 02 15 2D 7A 6A 55 EA F4 91 92 D1 85 5E
DPCM : AA F6 4A 54 29 AE E8 95 F5 4D D0 A4 B8 45 47 D8 D5 0B 2B 55 2D 78 95 55 3D 64 A9 52 4B B7 AC BD
DPCM : 01 16 5A 2D 56 6B AD 5E F0 A0 55 D0 5D AA FD 02 55 5A 50 EE 55 BB 43 F4 42 25 35 D4 4B FB 44 97
DPCM : 7A 01 B5 15 F9 45 A9 95 92 7A 97 5A 0F A2 95 6C E0 AA F7 D0 65 95 52 85 AA 6D DA AF 40 76 04 D8
DPCM : 7E D5 F6 54 EC 40 41 95 5C DB D5 D6 7C 15 20 D9 61 4B 77 D0 2B C1 5F D2 EA B4 80 AF 04 F6 72 17
DPCM : 15 7F 70 51 6A D0 37 DB A9 02 37 01 F8 5F D5 AF 4B A4 04 22 0F F6 2D F4 BF 9D 00 85 D6 44 97 3F
DPCM : F0 43 71 53 69 B5 4A 53 47 4C 5D D9 04 D5 AF C8 D4 51 74 97 3A 54 C5 85 80 FE 55 F5 BB 1A 00 AD
DPCM : 60 54 AF AC FE 5F 11 90 A6 54 D4 6D 4D D5 AA 94 D8 55 95 DB 34 92 56 4D 05 58 7E D5 2B 55 49 75
DPCM : 8B 22 AD 16 62 5B EA AD DA 5F 01 4C 5A 90 56 6C FA EF AF 00 4C 15 55 A6 5D 95 B6 2D 40 7D 0D FA
DPCM : 1B 75 D0 2E 0A A0 E5 B7 DA 0F D9 A8 DD 02 E8 2A 68 D7 46 DA DD F2 06 A1 45 5A A2 C0 AD FC AF 4A
DPCM : 82 52 55 55 D0 5B D1 7D 90 A1 DA 45 F9 85 6D AA 04 01 96 C5 7F D5 EE C8 4E 8B 80 59 03 F7 06 B6
DPCM : 6A CF 85 6F 60 D2 85 02 74 6D FF 03 FD 0A E4 92 02 5C 97 E8 AD 54 05 FA 54 F5 A1 6F 29 10 05 89
DPCM : FE 47 F0 5F 24 13 85 24 20 8E 33 55 57 45 D5 D6 05 D4 AB 00 12 B5 BA 76 82 37 B4 AE 40 21 49 69
DPCM : E0 C0 14 94 D6 54 09 56 46 24 48 01 68 75 41 79 4C 05 13 88 00 60 84 2B 59 09 C4 98 91 40 64 0B
DPCM : 00 84 AA 22 48 54 91 24 24 40 11 49 18 00 28 21 4D
DPCMDEF   4  4081 "EC#A4.dmc"
DPCM : 55 55 55 55 55 55 55 55 55 55 55 55 55 55 55 55 55 A9 55 55 55 55 D5 54 55 55 55 55 55 2A B5 55
DPCM : 6D AB 2A 12 D4 56 5D B5 B6 4A 52 95 52 AD 55 55 55 55 55 55 6D 95 44 76 55 55 55 D5 52 55 55 55
DPCM : 55 55 A5 D4 6A 55 B7 56 21 42 6B D5 56 6D AB 24 55 25 B5 55 55 55 55 95 5A AB 56 91 D4 56 55 55
DPCM : 55 55 55 55 4B AD 54 95 52 B5 CA F6 55 95 20 AA AA 6E 55 B7 54 49 55 A9 5A 55 55 55 55 AA AD B2
DPCM : 15 51 5B 55 55 55 55 56 55 B5 55 2A 55 4A 6A 95 F5 37 59 05 A1 52 DB 6A F5 A4 56 51 59 55 95 55
DPCM : 55 55 55 DA 52 9D 52 6A 55 55 55 95 D4 55 55 77 52 A5 44 54 5B D5 DE 95 56 11 48 AD 56 5B 97 D4
DPCM : 55 54 5A 55 69 A9 A5 B6 54 55 B5 4A 55 56 55 4D A5 92 B5 5A B5 57 A9 44 A0 EA 2D 6D 7B 55 95 40
DPCM : AA 95 6A 7D 49 AB 16 A5 AD 52 49 B5 DA 0D 25 6D 27 55 D5 16 2D 25 2D 69 A5 B7 FA AA 12 80 D2 DE
DPCM : A2 57 DF 43 22 A9 85 4A ED 9D 5A 54 27 DA 2A 55 68 5B 2F A4 42 7F 91 56 F7 20 15 DA 52 2A F9 57
DPCM : BF A4 00 A4 EA 8D BA D9 3F 81 4A 55 28 C9 DF 36 49 D6 54 35 53 45 75 5B 51 8A B8 2F 55 6F 27 48
DPCM : A2 2D CA 68 DF FD 4A 14 01 69 1B B5 B5 FD 4A A9 42 49 41 FB BD 24 55 65 AD 86 56 55 6D 45 25 A8
DPCM : BD 56 DF 9A 48 44 AA 5A C2 BE F6 6F 44 22 A8 9A A8 57 5D AF D5 06 52 48 E9 5E 97 54 55 74 17 59
DPCM : B5 A5 AA 94 02 5D EB FD 4B 22 15 21 D5 25 DC DD F6 D5 00 55 05 A9 F5 A2 D7 ED 96 84 90 2A 3D F5
DPCM : 0B 95 95 55 D5 54 AF 24 55 25 50 A7 FF 97 52 49 09 29 BA 83 7D CD 6F 6A A0 26 08 6F 8D F8 D3 BF
DPCM : 04 51 61 07 2D FF 50 5C 95 95 AD B4 57 60 4D 81 E8 F1 7F A9 1D 52 11 0C 5F 1A 6F BD B5 A8 68 51
DPCM : E0 53 D8 6D F5 4F 40 8B 6A 81 D7 37 A4 55 6C 55 4D FE 0C 54 15 E0 AC FF 31 ED 85 54 00 DD 8E 89
DPCM : 7F 6D A5 2A B4 82 DA A0 7B D5 FD 00 B5 92 45 5A CF 45 15 9D 96 36 BA 9F 04 2D 01 ED F8 B9 7C 6B
DPCM : A1 24 A0 C7 61 F5 CF A1 0F 46 47 85 2A 9D 37 F5 1C 34 6B 21 5D D9 54 59 D1 65 78 A9 DF 61 A1 12
DPCM : D0 67 69 E7 57 AB 90 14 5A 05 7E F7 42 BD A4 96 74 C0 55 6D 55 3D 70 AD 43 EA 0D 55 19 B3 5C 91
DPCM : AE F7 61 5C 50 48 6B 61 8F F7 56 4B 70 A1 11 CC 5F 1D E9 A3 75 14 2A 4D 6D 95 D6 C8 F4 45 55 B7
DPCM : 44 56 05 D7 0D F8 F5 AE 28 0E 52 6D A0 3E 67 75 B7 90 4B 03 9C D2 ED 64 56 BD 3A 90 1A AD 55 A9
DPCM : E2 53 C5 9D DA 4A 82 8F A2 1D D8 DE AB 7C 04 16 57 41 B5 FC 52 F5 51 BD 40 E0 97 81 6F A5 CE 0F
DPCM : 5A 82 1E 6B 0D 19 FF 10 FC DA 52 5C E0 97 40 F1 B6 75 E9 2F 80 2D 8A A5 85 7F 83 D5 DD 02 89 7A
DPCM : 0F 50 1F 7D 1B 4C 3F 40 B5 D5 D0 78 F5 80 DB 95 C3 21 FD 03 00 FF 56 CD EE 0A 4C 66 78 0A FC BD
DPCM : A0 FD 28 14 BC 7A 05 68 DF 53 51 F5 12 62 57 4B 85 5E 4B A9 D6 5A 05 77 B5 01 E0 77 55 ED D2 0B
DPCM : 58 E4 15 68 DF 2D 5C 72 43 C1 57 7D 80 F8 9D 46 56 D3 83 5A D5 05 F4 A5 4D 56 D5 2B F0 93 3E 00
DPCM : EC AF D8 C5 5E 41 45 DE 40 BB B5 A6 4A 5D 04 7E D7 06 50 77 1B A5 6C 6F 50 2D 1D 68 2B 6D 47 CB
DPCM : DA 80 D7 A7 10 B8 6D 53 95 76 1B 54 A5 45 76 74 75 D1 A6 0A F8 F5 83 82 4E 57 55 E0 7F 29 B4 0D
DPCM : 58 8B 8E FE 64 55 90 6A FF 60 C0 57 A3 45 BC 7D 18 CD 06 57 A2 76 D5 A5 2B C0 DB 1F 90 85 37 71
DPCM : 05 FE 2F 18 7D 80 53 BA 78 DF 90 11 D2 FA 17 42 DB 27 A0 92 DF 4B 6B 2C 70 01 7B AD BD A9 01 BA
DPCM : 77 48 C5 D6 06 2D B8 FF 40 77 14 B8 B0 D3 F6 1B 21 A0 D5 5F 07 D5 2F 00 86 77 3F BD 29 42 15 B0
DPCM : 76 DB DF 08 60 B7 A4 C5 55 4F 70 C0 7F 13 BD 16 E0 0A 57 F6 5B 63 00 56 5F B7 C2 DE 01 A0 D8 DF
DPCM : 6E 3F 08 54 00 BE 7D FF 39 00 5C 85 EA D5 F2 81 15 F8 17 D1 3F 02 5D A4 6A BF 15 1C 80 EF 75 4B
DPCM : F9 28 00 17 F5 7F FA 83 80 04 70 BF FF 1F 01 40 0F BC 5D 7D 2C 51 A1 F5 02 FF 83 54 55 A0 5F 1F
DPCM : 0D 15 D0 DF 17 E9 0B 40 AA D9 FE 55 2F 21 01 A8 F8 FF FF 01 00 68 F0 9F F6 07 2B C4 54 07 7E 57
DPCM : AE 50 15 F4 B6 7A 90 82 DD BE 83 7E 00 1C DA DE 97 FA 40 05 C0 43 FF FF 0F 00 A0 C0 FF D5 7F 20
DPCM : 1A 45 85 75 B7 F4 55 90 05 77 FA 91 A0 BA B8 3F A5 01 8A CD 76 B7 F4 03 1A 50 94 F5 FF 5F 0C 00
DPCM : 00 FE DF DF 0C C1 45 02 AE 5F E5 8F 2A 94 A8 FC 8B 2A 78 51 FE B9 00 27 F0 C7 AD D5 07 8A C0 07
DPCM : 6B FF 7F 29 00 00 B4 FE FF C7 14 D0 05 E0 ED 95 7E E8 0B 28 F8 3E AA C0 57 6C FB 01 59 01 FB CB
DPCM : DC 0F 04 8C DC 95 7A FF 8F 00 00 54 EC FF BF 56 00 1A 82 F6 A7 DC 35 7D 01 E0 D7 B2 0A EC 2D 56
DPCM : AF 50 15 A4 FF 52 7D 00 4A 94 7F C5 FD AF 0C 00 80 2D FD FF AF 04 00 8F E0 D7 D2 3D D5 0F 40 AD
DPCM : 56 55 A8 DE 2A D9 0B 55 91 F8 BF A8 05 A8 40 F7 B7 F2 5F 19 00 00 EE AD FF 7F 29 00 B0 54 5A 4F
DPCM : F7 68 D5 21 93 34 57 05 D7 35 4D 75 54 95 14 FF 37 60 41 21 F4 BD FB BE 20 0D 00 60 FF 7A FF 2F
DPCM : 40 00 D1 17 36 5F 5B C9 4E 17 14 76 35 E0 9B BE D0 70 B3 14 D5 FE 03 A2 0A 06 7F FE D7 0E 38 14
DPCM : 00 F8 BF F9 FE 0A 01 01 3F C1 F6 B5 45 3B BE 40 51 5B 05 7C BD A3 54 D5 16 C5 F2 1F 10 4B 51 E4
DPCM : 9F FF 94 0E 52 00 50 FF 57 FD FE 00 40 E1 05 73 77 55 57 D5 2D 10 97 55 08 FE 57 54 55 75 71 F0
DPCM : F8 11 61 55 C2 FA F3 47 9F 02 04 02 BE 7F 79 FD 17 20 58 30 D4 B5 73 F5 4A 6D 05 95 55 81 EA 57
DPCM : 55 79 B4 C5 0B 55 1D 45 55 03 DB 77 D5 EB 09 41 20 E8 F5 1B FE 3F A1 04 03 68 DE F1 D5 5A 3B B2
DPCM : 50 CD 02 DC 57 69 C5 07 9B B6 D0 0B 0C 6F B8 A0 FB 0B BF 9A 61 00 A2 5B 2D FC 7F 8B 16 52 00 E8
DPCM : 77 3E 69 FD 45 82 AB 45 A0 E7 96 05 FD CE 52 B5 3A 00 F8 5B 0A B5 EF B5 C0 CF 01 50 5C 47 61 FF
DPCM : 7F 68 15 41 00 F8 7F E1 D5 BF 01 E8 49 89 8A 5F 53 A0 FF 2E B8 0F 48 80 FE 56 B0 F2 FF 01 FC 61
DPCM : 20 85 5A C3 5A 7F 8F 9E 06 00 80 FF 87 7E FC 2F 00 5A 35 14 E5 D7 90 6C 7F 61 5F 81 44 B0 DE 03
DPCM : B5 FE 0F D0 4F 0B 14 C0 AF A8 F2 FF 73 A9 00 00 DA BE E3 A7 FB 09 C0 B6 09 51 77 55 68 D1 7F BA
DPCM : A2 84 11 59 5F E0 75 7B 0A 9F 17 41 01 AD 3A AA FE FF 58 18 00 91 5A BB 77 E5 CB 01 65 8F 48 F4
DPCM : 15 1D 0D FE 7B 06 3E 18 41 6B D0 BB 75 B4 5B D5 05 0A B0 E1 43 FB 7F FC 80 0A 14 52 B5 FD 99 3A
DPCM : 71 54 FD 00 57 55 F0 11 B3 CF 1F E4 93 04 A9 14 FE 59 D2 FD 92 6E 40 05 95 C6 BA F7 D2 1F 28 54
DPCM : 05 E8 CB 77 A9 D8 4A BD 12 7A 43 D0 0E AE 7C 9D 5E CB 50 68 60 E1 7F 20 FF 43 AF 02 B5 50 48 37
DPCM : 5F 55 1F 4F C1 16 B0 74 DC 3D C0 77 F4 31 51 EF 00 8A AD D6 A6 D6 9F 06 1A 68 14 FE 55 E8 1F F1
DPCM : 07 68 B7 00 EC AE 4D 5A F5 63 0D 28 6B 44 FB 01 7B A7 F1 03 F5 05 09 F4 76 15 7C 7B 5B 82 88 1E
DPCM : E1 7A 45 77 C5 B9 48 F6 41 A4 F4 55 15 F2 DD A7 40 95 56 E0 35 E5 9D 54 7D 50 7B 48 C0 7E 93 A2
DPCM : F5 FC 08 92 CA 1D C0 5F D5 32 35 53 B5 15 2D A1 6E 85 09 FF 3F 50 45 65 13 F0 7C 73 92 5E 51 F5
DPCM : 42 8B 58 57 68 C5 D7 1F 98 54 D5 00 5F BB D1 D0 4D D5 35 78 07 AA 0A 8D EE FD 81 4D 4A 55 A0 D3
DPCM : DF 18 EC 83 BC 1A 75 25 55 81 63 5F 5B 2B 69 15 0D F8 E8 5D 58 D9 28 DF 50 BD 0A 85 45 F8 AF 45
DPCM : 5F 54 15 68 95 75 6B B0 2D D2 75 4A 7D 03 85 08 FF 2B D5 17 B6 05 F0 E2 6A 7A 58 15 F5 89 55 BF
DPCM : 01 49 C0 FF 0E EC 17 2B 11 5E B8 55 56 56 15 FA 61 AB 7E 01 02 F4 5F 0B DD 4B 4F 40 17 57 B8 55
DPCM : 55 CA 35 55 B7 53 01 24 FE 1D A5 BC 8F 6C C0 45 9B D2 36 B5 E0 8D B6 CD 35 20 84 BF 35 A1 F7 A3
DPCM : 16 54 69 B1 8A 5E 4D 71 55 6D AB 36 80 E2 D6 2E C9 F6 63 09 6A 25 BA 65 55 33 34 5D 57 55 17 E0
DPCM : D0 5E 85 D6 FD B8 01 59 49 4B EC D5 92 74 57 C5 2B 05 7C 90 6F 53 92 FF 54 10 57 E1 56 55 D9 05
DPCM : F8 5B 49 77 03 86 F8 2A 6A D5 7F 2E 00 5D 54 91 DF D2 14 F7 50 6D 9A C4 05 FC 1D 05 FC 1F 05 A9
DPCM : E1 6A 65 DA 19 41 7F 85 F6 2E 82 24 BD 41 AB FD 3F 02 E0 59 48 7D A7 16 55 59 55 B5 C5 07 B0 77
DPCM : 00 FD DF 0D 50 94 2F 92 FC D5 C0 D2 2D DC ED A0 03 C6 17 A8 F7 7F 0B 00 E5 06 D5 BF 74 50 B8 15
DPCM : 5D 9D F6 00 6B 03 F8 DE 5F 03 14 7A 15 F4 4F 0E 5A DC A8 5D D1 35 E0 74 50 5E EF 0F 40 05 6D 0B
DPCM : 7F D3 2A 48 73 B4 55 F5 86 D8 04 56 ED FD 0B 14 C1 1E 69 7B 69 29 A6 B2 76 C1 5D 51 59 82 97 F6
DPCM : 5F C4 02 E0 7D 5A 5D 1F 10 87 5A 5B E5 56 FC 00 F0 A3 FC BF 20 22 8C DD 53 4B 8F 45 41 FF 10 7E
DPCM : 15 3D 14 D8 B5 7D 75 18 00 EA DF F0 5B C8 46 81 6F A5 55 ED 07 80 7E D0 FF 05 1A 09 F8 AF 54 CD
DPCM : 4E 44 FC 54 DC 2A FA 05 01 7F 69 7F C2 01 08 FF 59 2F B1 4B 24 F8 A5 9A EA BB 04 E0 0B DF 0F 51
DPCM : 0B C2 BF 36 54 DD A0 38 5D F1 1A 69 5F 01 F0 C7 7D D3 40 0A E1 7B 37 D1 5D 44 44 1F AE 16 F7 47
DPCM : 02 F4 74 3D B4 94 16 F8 5D 0B 71 47 6A E8 55 5D 61 75 35 00 F7 5B CB 83 42 15 F1 B7 16 D5 0F 54
DPCM : D0 1E 76 78 3F 1A 80 AF D5 61 55 56 15 77 AE 80 5B 25 7A 65 DB 50 65 57 24 C0 FF 33 1D 16 A4 07
DPCM : AF F6 50 7D 21 25 7C 29 E1 FF A8 0A 70 DD 0A C3 D7 52 D5 4B 49 98 2B D6 1D 6D 1D 30 5F 92 C0 7E
DPCM : 5F E1 68 A4 92 A3 DD 45 D5 35 15 95 2A 0A 7F 3F 51 52 D1 2D 90 7E D5 D2 73 15 60 2C EE 4D 1F A9
DPCM : 43 72 27 81 7B F4 0F AA 0B 32 C5 79 17 3C D5 AD A2 22 68 BC F9 1F B8 06 AC 41 D5 97 F6 F4 B8 02
DPCM : 10 DE DE F5 82 4A 15 6E 85 BA 0B 77 D9 E8 02 6C 76 7C E0 55 2F 3B 22 81 A8 9F F7 AB AA 01 60 5A
DPCM : 7E C5 BF 0D 0E 00 D9 9B BF F6 00 66 41 3D 75 75 C1 DE 94 1B C0 35 0D 53 5D BD D6 01 2D 80 BA FA
DPCM : 7F B5 09 00 58 EB A7 F6 AF 06 00 0C 7F 5B FD 0F 40 05 F8 BA 6D B5 E0 AA EC 00 CB D7 02 7D D5 AF
DPCM : 05 B4 04 A8 E9 FF DF 4A 00 00 5B 7D 5F FB 25 00 10 DC 77 D9 7F 41 10 40 BF 57 BB 0F 50 4B B1 2A
DPCM : 7A 0D DA A5 FB 03 64 33 28 18 DF FF 1F 30 01 C0 78 FF 6B DF 02 80 81 ED EB F6 97 08 00 AC FB D7
DPCM : 3E 40 1D 41 6F 51 ED C4 D5 F4 15 34 4D 85 2A A1 FF FF 81 05 00 54 BF F7 AF 06 60 05 F0 EE AD 7F
DPCM : 15 00 A0 B2 FF AF 28 59 20 3E 5D D4 4D F1 65 15 DA AA 88 C7 05 EA DF B7 0A 00 38 4E EF FF 11 B4
DPCM : 50 81 AC 7B DF 55 81 02 82 F7 FF 42 3B 08 AC 95 6E 55 1D 7D 28 E0 D5 14 5E 63 81 DF E6 77 00 14
DPCM : 0D 5E FF 37 E0 03 12 3C F8 DB 8F 4B 52 00 E9 5F 3F 78 0B C0 0B AD 37 79 69 4E 11 BE 70 E8 AD 14
DPCM : 7C 52 FD 03 D0 85 C8 ED FB 88 1B 11 A9 91 6F AD 4B 3B 08 B0 FA 6D 55 7E 00 A3 D2 5E 59 D3 CB 11
DPCM : D4 2D E0 DD 15 A9 4E FC C5 20 77 04 F2 FD 0A BD C8 24 4B E8 1F 56 BD 05 41 A6 BF B4 5C 4F 40 51
DPCM : BD 4B 55 7D A1 44 DD 01 F6 AB 4A 55 E8 1F 09 F2 17 C0 E9 F5 48 55 4B 55 05 BF 43 74 2F 11 1C 7B
DPCM : 57 94 FE 04 E2 E0 3F 11 F5 2B 52 D1 5D 18 75 9D 94 86 DE 2B C0 7F 81 F0 B8 EB 20 5D 17 55 C5 4B
DPCM : 13 6D 17 C5 89 57 2D 6C 5F 60 29 5E 3D C0 EB 91 55 73 D1 91 AA 55 2C 1D D7 1A B5 1B D0 28 5D 4B
DPCM : A9 75 E1 91 35 56 13 ED 1A A5 56 78 55 B5 45 B5 54 E5 82 96 5E B5 B4 0F 54 0B BA AC B4 26 F7 83
DPCM : 56 91 2A 5E AA 65 17 6A 17 DA 58 55 55 B5 43 5A 41 7B AB CA 3A 0B 95 54 59 95 FC 8D 7D 40 55 49
DPCM : F0 47 6D A9 5F 54 92 0B AD 91 5D BD 00 FE 52 69 0D 7B A5 B4 81 8B E0 7F A9 F6 4A 10 A6 36 EC 02
DPCM : FF 2F 0D C1 55 44 FE E0 59 F5 12 2D 55 65 85 73 A7 16 C0 BF 44 6F 51 AF 0C 55 54 50 FD 57 7A B7
DPCM : 00 E0 A3 D4 4E F1 FF 20 51 55 8A E5 4D 94 37 93 B6 4A 5D 14 E9 75 29 60 7D 55 69 57 F1 4D 90 4A
DPCM : 40 7F 6B 2F F7 0B 00 7C 48 AB D6 F6 9D 80 53 A5 55 55 05 F6 0F E8 57 F4 0E 28 7D 55 80 DD 5A 5C
DPCM : D5 63 FD 02 A8 02 FC 1D F5 9F 17 02 94 BA 18 7A 57 1F C9 54 65 BD 48 55 C0 5F 8A 7A 6F F4 80 55
DPCM : 2F 80 6B F1 83 6B 6B DB 2E 40 0C 70 B7 DA F6 1F 74 40 F0 45 C4 6F F5 81 36 93 BB 0D 94 06 B6 D5
DPCM : 26 FE 13 55 B4 A6 14 D5 84 7D 81 DF EB E5 11 00 A8 AE F4 D7 BD 8E 05 50 97 A0 BB 6A B5 B0 56 DD
DPCM : 2D 11 49 06 9F 75 B4 DD D1 58 5A 51 6C 81 76 87 E8 7F CB 4F 08 00 87 E9 7E 17 FF 52 80 76 00 7F
DPCM : CC D4 4B 34 B7 6F 91 06 C0 73 4D F2 55 5D 51 2B 7C C0 0D F0 49 D9 FC E3 FF 80 00 B0 68 57 DF D6
DPCM : 2F 08 AD 46 E0 17 DC 95 AA 6C EB 1F 30 01 7C AB 02 FF E2 6A B9 5C 0B 70 01 4F 85 FF B4 FB 1F 00
DPCM : 00 5A EB 45 FF 7A 28 74 15 25 7C C1 5B A1 7A C5 FE 05 90 C2 6D A2 D2 57 55 4D F7 0D 03 1C 50 1B
DPCM : F6 BE FE 5F 00 40 D0 B4 B3 DD BD 40 55 DB 42 4B 46 EC 15 E8 9B FD 55 01 5A 59 41 9D 2E 97 AA DD
DPCM : FD 40 50 10 A5 75 FA DD FF 01 02 28 6A E9 5E D7 03 F8 D4 8E 5A 85 52 53 C2 4F D7 5F 32 C0 3D 04
DPCM : 3E D5 AC A1 DE FD 25 B0 01 04 D9 BD DE FF 05 26 00 17 69 AF ED 26 60 5B 75 AE 1C 68 83 C2 9B F6
DPCM : 73 F8 12 D4 03 6C 0F F1 54 6C F7 E7 68 04 A1 40 FC C7 FF 07 2E 05 70 03 7F 46 5D 54 A8 57 AD 2F
DPCM : 28 55 01 7E F2 77 E0 57 50 75 C0 D7 81 86 2F F2 5F 97 0D 08 0A D0 7F FA 3F 70 15 04 D5 F8 AD D2
DPCM : 51 15 F8 55 7B 0B 49 15 E0 A7 77 51 DD 03 55 93 DC 34 82 7A 45 DF 3F 74 09 44 00 FC 77 3F A1 7C
DPCM : 80 C0 FA 5A CD 07 95 81 CF 4D 5F 15 16 00 FF 36 71 76 5E 50 59 76 49 83 D1 AA 71 FF 83 67 02 80
DPCM : C4 FB E7 8E EA 06 00 F6 2F 55 DD 01 57 88 7E F5 6C 45 14 E0 7F A0 73 7B A8 C4 D6 1D 01 3D A1 29
DPCM : FB 1F 4C 27 00 09 FC DF F0 A6 3E 00 C0 7F 17 55 7F 40 05 7A 57 B3 6B F0 00 FC 4B C8 B7 0B 07 7A
DPCM : FD 01 E0 55 2A D4 FD 23 57 0A 58 01 FF 27 BC BA A0 00 FA 77 11 F7 0B 09 A1 EE 65 5D 59 1D C0 D7
DPCM : 00 73 5D 52 D1 D6 2E 82 57 4D 05 F9 DD A2 2B 54 1A E8 EB D1 B2 46 09 A4 EE 95 D9 DD 0A 84 38 3D
DPCM : 5D D3 6D 0C 66 55 A4 DE 51 55 56 B5 B4 68 D5 46 E0 97 D5 6A 25 55 D1 62 57 55 1F 58 C0 95 36 FC
DPCM : D5 B6 05 28 52 E9 AB D5 95 48 52 61 D4 57 D6 54 0B A5 1D D5 6A 01 5F 09 FD 55 11 1B 95 74 1A ED
DPCM : 27 49 98 A2 D0 BF B8 76 80 16 84 7E 7D AB 4E 03 14 A4 AD A6 3D 84 2A 6A 47 B5 52 F0 07 F0 B7 3A
DPCM : EA 09 95 26 D8 5F 44 07 6A 08 FF 07 6F 1B 60 01 94 FE 5F F8 1D 04 A0 B4 57 DA 43 3E 50 B5 43 95
DPCM : 55 35 C0 DD D5 2B 17 8D 94 40 FF 15 3D 89 0A D9 76 EC E9 90 09 40 7E 7F DA 6F 03 00 45 F5 79 CA
DPCM : AC C3 4A 37 14 1E 2B 05 B6 4D 75 37 D4 23 00 7D 15 75 2B 12 F8 85 2D A9 55 2A 00 E4 2F E5 BF B5
DPCM : 00 00 C3 16 5B CD 06 35 AD 04 C0 2D 14 E4 75 40 91 6A 65 00 B0 5F 65 96 40 40 A7 8E 1A 31 5C 01
DPCM : A0 BB E8 BC FC 10 00 A0 45 B5 C5 45 20 EE 05 42 1D
DPCMDEF   5  4081 "F#D#B4"
DPCM : 55 55 55 55 55 55 55 55 55 55 55 55 55 55 55 55 55 55 55 55 55 55 55 55 55 55 A5 B4 B5 AB 2A 22
DPCM : B4 55 5D DB 96 42 B4 AA D2 B5 5A 52 49 5D AB AA 92 5A 95 AC D5 4A 55 6D 4A A5 5A 95 D4 56 BB 9A
DPCM : 48 A4 56 B5 6D AB 22 B1 55 B2 D6 5A 49 49 B5 AD DA 44 55 15 D5 56 53 55 AD 25 95 6C 55 D4 56 F5
DPCM : A5 14 25 A9 D6 D5 B6 24 A5 56 A5 55 6D 49 49 6A B7 EA 2A 52 25 A9 5B 55 B5 AA 66 52 C9 95 52 57
DPCM : DA 9B A4 4A A4 DA 5A 5B 45 55 55 5A AB D4 49 51 AA 75 DB AA 92 24 A5 B6 5A 55 AB 96 AA 94 9A 4A
DPCM : AB 5A 5D 95 52 95 B4 69 B5 2A C9 5A 55 2F A9 46 A1 AA D5 F5 AA B4 44 54 6A 6D 4D 55 5D 4A 2B 55
DPCM : 25 55 5B 55 D5 4A B5 54 95 5A 55 45 D5 AE 5A 4B 0D 11 65 9F 56 ED 2A 13 95 A8 B5 B6 54 55 17 55
DPCM : AB 85 92 7A 53 A5 7A AA AA 2A 5A 4A 17 59 ED 8B D5 AA 80 A4 7E 69 A5 5F A1 52 45 2D 6D 93 56 BA
DPCM : 52 5B 4B 48 F2 4D 29 F2 AF 58 55 54 89 B6 D4 CA 5E 55 9B 42 90 7D 69 25 DE 27 69 52 15 E5 96 56
DPCM : AC 55 BB D2 44 F0 96 4A D2 77 AD 26 A9 44 B2 AD 49 57 F5 2E 94 84 76 B1 26 EC 67 AB 52 52 51 65
DPCM : 57 B4 A9 7D 45 95 A8 56 52 49 77 ED 2D 52 52 48 B7 25 5D A9 BF 88 54 55 CA 2A E8 5B DD 17 41 55
DPCM : 48 7B 45 B5 D5 AD 12 55 4B 51 2D B4 6E BF 54 22 29 96 79 51 B5 F5 A5 48 4F 44 4D 85 BE DA 5F 21
DPCM : 52 05 D5 1F 34 37 6D B5 50 4F 44 A7 82 9E F7 53 69 50 45 D2 17 C5 57 2F 2D DC 12 58 15 D5 CE 7F
DPCM : 11 0D 95 E0 F8 53 6C B5 AA 54 BD 84 56 21 55 EB 5F E1 23 52 A8 BC 11 77 ED 2A 45 1F 41 55 A4 B7
DPCM : F6 35 54 45 1A D4 37 25 BD 54 55 4D 5F 50 85 4A D5 FB C1 5F 10 95 B0 1E 5A BE 87 46 AF 42 61 03
DPCM : 7F D9 F4 4C 36 54 A1 57 83 6D 53 65 53 F5 15 A8 14 7A B6 8D BF 0A D4 82 E6 B0 E9 2F AC EC 14 07
DPCM : 2D F8 55 59 B5 69 0B 65 B6 14 7C 55 D1 55 F5 8B 81 25 D4 35 17 FE 33 22 1B 52 89 75 3F 64 73 1B
DPCM : B2 22 B2 57 B1 63 B6 36 A1 6B 11 A6 9B 45 5E 76 1F 68 14 55 A9 2D BA 9F 2A 5A 11 3A C1 DF 21 D7
DPCM : AB 42 1D E8 36 54 5B A9 75 07 3D 07 1C 63 2D D5 E5 D7 21 54 AA 52 5A 7C 95 AF D4 12 C1 47 DC A5
DPCM : 72 BB E8 12 29 57 1A 96 2F B2 2F 7A 41 E1 47 E0 D6 5C 1F F6 80 96 D2 89 C3 4F 6C AF 52 54 F8 11
DPCM : 58 AF AD 45 7F 80 95 72 B4 D8 1B EC AD 11 45 FD 01 E8 75 3B AC 2F 10 AB 16 0B DF 03 DB 47 D1 D0
DPCM : 7D 00 F8 B7 2C BB 0D A4 1A 67 C1 FB 82 F6 29 22 5E 2F 00 FB AD D1 F4 09 B1 56 15 F8 1D 71 6D 95
DPCM : C2 55 1F 00 7F 2B 76 B5 42 A3 74 41 77 3D 54 FD 40 F0 AB 07 60 5F 0F 55 ED 41 6A 1D E0 4F 56 56
DPCM : 6D 06 5D FD 01 E0 6F 68 B3 65 3A E0 05 B7 59 0F D6 0F 80 7F 1D C0 CA 3F 11 ED 1B 54 B5 C0 2F D1
DPCM : 53 B3 1A 34 FF 05 40 7D 53 65 AB 1B 83 8A DC 74 F6 D0 3B 00 DE 1F 06 8E DD 0B F0 BD D0 3A A0 5E
DPCM : 85 37 B5 16 98 F5 4F 00 B7 C5 25 DE C7 43 0A 5C F1 5A 6D FA 02 30 FF 44 85 37 BC 80 7F E3 78 01
DPCM : 2B 1D 6D 6D BC 00 DB 3F 82 D2 15 2B E8 7F DC 30 C0 51 2F DB 97 0E 40 FD 8D C4 EE C0 05 DB 9D 5D
DPCM : 14 B4 F0 71 EA 37 02 6C AF 0F 54 33 68 F0 F7 E8 67 00 1C 3C 7B 6F 4F 00 D4 D7 61 ED 01 1E 74 DB
DPCM : 79 0D A1 88 4F 5B BF 06 A0 6D 7D D0 E9 00 45 7F AD 7F 08 30 C0 B7 EF D7 03 80 CE DC F2 1C 70 41
DPCM : 5F 53 3F 01 2B 2C 7B 77 63 00 DE DA 53 1D 05 B8 B0 7F FA 87 00 81 7A FD 7F 0C 00 17 7E 4D 1F 92
DPCM : 45 D6 43 FF 41 A4 92 F8 7D 3C 08 70 77 4F 7E 01 A4 A8 DF E5 2F 0C 80 0A FE FF 0F 00 09 FC C7 7F
DPCM : 40 95 5A 85 DD 2A 2F E0 C1 DF F8 01 A0 CD FE F1 07 40 D0 77 4B FF B0 00 30 F8 FF 3F 01 10 E0 BF
DPCM : FE 03 74 4C 03 DB 56 5D 41 97 BA F8 03 C1 38 FE 3F 0D 20 98 DB 56 FB C3 02 80 AC FF FF 4C 00 00
DPCM : FB F7 A5 C4 1B 01 CE 9E F6 D0 31 53 F1 07 15 2C DA FF 07 50 80 DF 6A FD 13 01 1C 58 FB FF 5B 00
DPCM : 00 C4 FF 3F 4D E4 03 B0 5C 73 4B 7F 90 E0 3D 54 E0 99 F7 1F C0 04 FC A5 F6 A7 00 58 35 AD FF 5F
DPCM : 04 00 04 FD FF DD 02 2A C0 76 D5 56 F5 27 80 B7 58 41 FA 55 FD 08 15 E0 BF F4 0F 10 42 DD 9B F6
DPCM : 7F 01 00 B0 F0 FF EF 07 80 09 EC BA 6A F5 1E 41 6C 55 15 C4 7F D1 47 54 A1 7C DB 2B 44 10 D6 7F
DPCM : F2 BF 02 01 80 5B FF EF 17 00 44 55 FA 6A D5 C7 26 A1 CA 6D 40 FE 49 6D 54 95 C2 F7 07 8A 82 70
DPCM : FF BD AE 28 01 00 FE 7B DF 3F 00 40 7C E1 5E AD A6 C6 07 85 D7 03 BC 76 E4 70 6D 54 E9 1F 10 56
DPCM : 08 7F FF 57 41 03 01 E0 FF 7B 5F 0D 00 F0 83 F6 5D 43 0F 3F 10 73 37 A0 FA A1 A9 B6 53 2A 6F 01
DPCM : B8 61 D4 FF 3F C1 80 05 C0 FE 7F 9E 3D 00 04 5F CC 6F 45 95 FA 05 E9 BA 01 F8 52 9B 5A 5F 0D C5
DPCM : 0B C0 4B B1 FF DF E0 00 2C 00 FE FF 9A B7 00 43 E1 74 D7 52 0D 79 2F B4 3E 01 D4 85 3E 9D FD 7A
DPCM : 80 54 80 D7 C2 FF 2F 74 06 28 A0 F8 FF 06 BF 02 1D 15 F8 DC 61 15 E9 67 D2 5F 05 A0 52 F8 D9 ED
DPCM : B7 05 0A 00 FE 34 FE BF 60 C5 90 01 F2 5F 0B F7 69 70 23 15 F2 59 16 8A FF 24 7F 0B 00 F1 C2 D1
DPCM : FF 9F A2 52 00 E0 9F 6D 7B 57 02 0F 23 B0 DF 21 F4 7D C1 5D 2A 04 FC 15 2C FE 4F E8 0F 40 C2 D6
DPCM : 84 FD FF A1 2D 00 00 FF A7 2D FF 03 E0 54 54 B9 35 50 F5 1F F6 07 02 A0 7F 60 D3 FF 03 F3 08 42
DPCM : B8 8E AE FD 4F AD 00 00 EC FF 58 F3 1F 80 55 0F A5 D8 09 43 FF F3 97 08 00 F5 3A AC FE 2F 60 5E
DPCM : 01 48 75 57 CD FF B4 20 02 E8 F5 45 D7 3E 12 CA 3F 50 68 E5 82 F2 FF 2F 0C 20 68 A9 DA DE CF C1
DPCM : E8 0B 00 AE 7E 38 FE 7B 01 05 4A 9D 46 5F EB B0 54 FE 81 60 15 0F CA BF FE 84 41 85 68 C4 FF 2E
DPCM : B9 52 1F 10 58 E5 0B 77 CF 0F 41 55 89 B2 EC 33 55 B5 EA 07 1C 52 D4 A2 7E FD 0B 45 25 88 8A 7F
DPCM : 2D F9 61 97 42 55 90 17 7D 76 B6 A3 18 95 82 87 7F 84 D7 F1 36 F0 41 C0 2D BE 5C CF 3B 28 41 61
DPCM : D9 6F E0 1F BC 06 75 03 18 DF 65 71 FB 32 48 61 15 7E 0D FC 43 3D 51 9F 01 58 6F 25 CE 7F A6 40
DPCM : 6C 41 7E C1 F7 18 5F D0 17 00 FE 55 83 DB AF 11 C0 37 E0 5E 71 5D 8C B5 EA 05 42 6F 55 01 FF 9F
DPCM : 01 55 2D 60 E6 B7 25 75 8B 76 00 F8 DD A4 A8 FF 07 00 5F 07 E8 B7 9C 42 D9 AB 1B 46 B4 36 10 F8
DPCM : FF 23 A5 D2 01 B0 FF 0E 76 69 D5 81 C2 AE 83 4B BE 3F 00 75 75 C0 D3 2F 01 3B DD 1D 7C 41 55 40
DPCM : F1 FF 07 17 55 0A 60 F9 DF D0 0E 75 05 5D 55 0B 3A FC BA 50 55 5D 81 17 FD 42 E8 A1 7F 68 57 21
DPCM : 08 E1 FF 87 1F AA 06 60 93 FF 41 57 68 35 6A DB 28 8A F8 2B A9 0F ED 01 37 66 71 E1 15 FC C5 AB
DPCM : 1E 20 80 FF 1D F5 87 22 C1 8B AD 76 3A 21 FC 70 AB 0F 94 C0 9F 15 FE E2 0A F6 60 C1 A7 56 E2 9E
DPCM : 6E 19 0D 10 FC 57 55 EF 01 07 5E AC E8 BD 48 F0 C5 DD 2C 43 09 1E 5F E8 FD E0 A2 46 C2 96 57 55
DPCM : 78 CF 26 BA 01 8A A7 AF 54 37 6E 60 96 70 B7 46 19 D6 B5 33 7A A0 81 BE 51 75 8F 1F 50 21 57 7A
DPCM : 35 85 FE 0A 6D 15 78 C0 EF 45 E2 DF 40 5C C1 DE 34 D9 04 7F 16 ED 0D 84 F8 86 8D DD F7 04 A8 68
DPCM : D1 77 58 F2 07 D5 3A 94 05 FC 27 D0 FF 09 A4 61 7A 95 1E 13 F8 17 6A BF 40 88 5F A8 EA FF 05 A0
DPCM : 1A 4A BF 52 55 D5 52 B5 A9 03 E8 1F D0 FE 37 40 41 AF 4A DF 0A 8C AF E0 FD B0 01 F1 21 36 FF 1F
DPCM : 40 B4 41 ED C7 A2 63 4D 5A 9D 3E 00 7E 0A F7 6F 03 04 FA C6 FA A5 60 78 A1 DE 6E 0D 90 0B 69 FD
DPCM : BF 04 82 DA D0 6F AC B4 D4 A4 55 ED 08 AE AC B8 FE 0D 88 C0 7B D5 17 C3 30 69 76 F6 63 84 05 5C
DPCM : B6 FF 87 20 60 8F F5 F2 70 46 56 59 5C 4D 87 54 57 E9 77 20 01 E5 7F 7A 0C 0B A1 5F 6C 5F D1 41
DPCM : 40 AF FD 3D 06 00 7E 8B DF D0 8B C1 55 E2 74 7D 20 FA 24 FF 80 15 81 FF A7 0A 1B C1 7C 45 BF 61
DPCM : 17 00 FC D3 7F 66 00 E0 CD 77 29 2F 29 5C 91 DA EE 03 E2 93 F6 41 55 05 F8 FF 48 9C A0 9C 17 BE
DPCM : 07 BF 04 C0 CF DD 7A 40 01 D5 FF 50 BB 54 B0 45 DC 59 5F 04 5E 55 07 37 71 90 FF 07 D4 22 1D BA
DPCM : 5A 97 EA 2A 00 F7 B5 E3 1C 64 80 FF 46 D6 0B 07 76 E1 C6 BD 2A C0 D7 1A 5C 95 72 78 7F 80 65 45
DPCM : 47 5E 53 47 1F 24 E0 BF C6 F2 41 16 BC 6D B0 1D 1B C5 C5 C1 77 53 C1 6C 3D 70 5C 95 9C DD 11 A6
DPCM : C6 5A 71 B5 70 7D 81 50 5F 17 95 0F 55 8C 77 41 5E B5 69 49 38 DC 57 89 3A F5 01 F2 95 CA D3 0F
DPCM : 14 C3 DB 2A 55 96 E9 27 A0 17 DB 54 3E AA 84 DB 0B A4 5D 9F 0B C0 71 F5 16 F5 A1 0C 9A 57 D8 75
DPCM : FA 00 83 B7 57 85 16 37 AB C4 76 50 D5 D5 17 A8 5A 1D D0 FC EA 0F 80 A8 C7 BD 2E 3D 00 D4 5D 85
DPCM : DB 8F 07 00 F7 B5 D6 50 EC A1 A6 3E 05 D2 57 7F 80 DA 03 CC E2 7F 0F 1A 80 49 FE FD BE 00 00 EF
DPCM : 29 76 FF 01 90 F0 57 F9 3A 60 03 2F 77 8B 02 6F FD 80 D2 57 C0 AA 7F 0F 78 04 50 F2 FF DF 09 00
DPCM : B0 6E 97 FD 0F 00 C1 6F 65 FF 02 14 70 77 DB 16 B0 D5 54 43 BD 01 AD 7E 1F D0 19 08 C5 FE FF A3
DPCM : 00 80 BC 7E FB 3E 00 0A EC A7 F5 0F 05 C0 B8 FF D9 40 55 B4 35 B4 1D B8 D5 1E 3A 4A 49 03 FC EF
DPCM : AF 06 00 68 DB FF 3A 22 18 E0 57 D7 3F 03 02 C8 FE 5F A9 68 A0 CB 49 6F 84 9F 4A 75 31 72 95 C0
DPCM : DF FE 15 00 18 63 FF 9F 64 81 81 CE FA AF 32 14 00 FE 7F 55 15 84 25 CB 77 54 7B 41 71 55 C1 2F
DPCM : 26 AE D5 BF 00 C4 82 FF 5D 93 06 44 1E FC FD 70 0B 02 F0 7B BF 24 43 61 58 5F D5 5B 48 15 17 0E
DPCM : DF A6 C4 96 EF 01 78 21 BD D5 AB 2A 12 9A EA 9D 74 BE 00 E0 FA DF 82 6E 40 8C F6 DA AB 62 4A D2
DPCM : 05 DE 6F 04 9D 76 53 E0 2D 58 E5 7B 68 51 54 53 FB A0 DD 4A 00 AB FF 09 EB 07 40 F4 4F 3D F2 58
DPCM : A0 1F E0 F7 05 5A 6A 8F 04 FF 81 C2 FD 41 55 59 55 71 1D A5 6D 05 1C FB 07 EA 4F 80 C2 7F 45 F1
DPCM : 4E 54 5C 63 E8 2F C8 15 7D 11 FC 17 84 F1 67 88 DD 51 33 5C 0F B4 2D B1 CC 4D 65 77 81 52 79 3D
DPCM : C0 FD 50 55 0F 93 96 95 96 C6 D5 51 7D C0 F0 55 55 5C 4D 1E 56 B5 14 F5 85 B2 83 EB A9 16 D9 68
DPCM : D5 90 B9 53 4D 5F 50 0D 3A 57 6A 69 2F 6A 61 AA 36 74 D5 C2 36 65 D3 52 55 B5 04 47 B4 3F 49 1F
DPCM : 16 16 AC D6 8A DF EA 01 A5 54 F8 C5 2E FC 54 A4 0B 57 D1 4D 0F E0 57 D9 16 F5 44 35 B0 0C FE 57
DPCM : ED 21 84 A1 C7 17 F8 3F 19 A2 34 AC 1F 56 65 2B 95 5A 73 70 B5 6A 00 7F A5 3D B6 4A 83 22 A1 F6
DPCM : BF 33 7B 00 30 CA 7D 72 BF 05 64 89 F1 76 51 F4 14 3E 85 3F 85 9E A6 80 B9 E5 F6 65 D9 18 30 02
DPCM : FC DF 5F E9 03 00 0D 7D 57 FD 4C A0 15 59 F7 06 E1 1D D0 17 DD 17 D1 8B 04 56 35 FE B7 D8 2E 80
DPCM : 02 F0 FF F2 5F 41 01 D0 D1 FB AC 0F D4 14 DC DD 16 01 1F 0D EB 55 7F 48 7A 00 B6 E0 C3 FF D3 6E
DPCM : 00 11 80 FF 5F FE 03 0E 00 9D BB A7 FC 00 57 F0 F5 53 04 9A B1 13 7E FD 83 AA 02 6C 02 BF FA AF
DPCM : 5E 8A 00 00 FE DF 6B 67 38 00 15 F5 73 D4 4A 58 D9 F5 2F 20 0A 55 1B CB FD 4F E1 40 E8 40 EA 37
DPCM : F7 B7 2E 10 00 E0 FF 7D A3 4D 05 68 89 7F 52 55 11 F3 FA CF 06 80 61 4B 7C F9 7D 4D 38 80 07 54
DPCM : 5D DF 8F FF 00 01 40 FB D7 76 3C 12 56 56 F8 0B 56 42 C7 97 FF 31 01 94 B1 E0 2F BF 6B 5A 02 38
DPCM : E0 6C FC CF F6 0F 00 00 FB FA D8 C7 A1 F0 15 15 1F B8 05 EC 6E FD 0F 01 61 45 19 BF B6 3A FB 06
DPCM : 10 06 DA 69 DF ED 2F 02 20 78 5E 57 D7 41 AA EB A1 45 49 2D 48 7F F6 9F 00 55 16 58 ED 3C 95 FD
DPCM : 3E 00 05 A1 5B F9 BD BF 40 80 AA 16 E7 9D 0D D8 B5 57 46 58 91 82 7B DB 3F 2A 50 93 60 6B 73 07
DPCM : F6 EF 12 14 28 D8 6A FD BF 81 09 E8 2A 6A 37 57 C0 5E BB 47 81 0D 04 DF FA 7B 2C 50 75 40 7D E4
DPCM : 2D 28 FF 1B 43 12 09 B3 D5 FF 03 AB 40 3E A4 37 B5 30 EC D5 7F 01 54 01 F8 DD 7F 58 8C 54 03 7E
DPCM : 07 A7 15 F8 DF 74 60 50 50 3B FD 0F DC 0A D4 45 57 55 E1 42 5F F7 15 48 05 E0 EF 7D 2A 6D 90 AC
DPCM : 72 35 C5 AA A0 FF D5 92 48 40 FC 6E CF 98 1D 04 6F 55 55 95 8A F8 F6 D6 54 10 04 F7 2F 9D CB 41
DPCM : E0 BB D4 61 69 32 CC 7F 16 37 00 C2 FF D4 D3 32 05 F8 3D 52 FC 20 8A FB D5 63 09 2C E0 7F 58 BD
DPCM : 03 09 DF 49 45 77 24 A1 FF 69 AC 01 11 FE 4B 5E 75 50 82 BF 0B E4 1F 10 DC B7 AD A6 70 00 FF 91
DPCM : BC 17 14 BA 6D 11 EE 45 05 FA 4F 99 0D 59 C0 7F D4 EA 42 05 FA BD 80 7F 02 98 BE CD 6E 68 05 E0
DPCM : 3F 71 7D 14 65 5C 55 E1 3D 49 A0 D7 A2 5E 34 05 5F 1D 55 55 47 A8 DD 45 BE 09 91 F2 78 F6 D4 16
DPCM : 80 5F A5 DC 8B 51 15 EC 4E B5 5D 80 5B 82 BF C5 4A 56 4D 0D 7C 75 60 A7 55 D7 12 35 38 A9 FC B6
DPCM : 5A 40 5B 85 E5 3D 55 14 D1 F9 51 6F 0B 58 01 FC 5F B4 33 25 19 E8 D7 0A DE 54 FA 41 D5 41 8B E2
DPCM : 5F 76 D0 34 13 D4 B7 A3 0E 34 C5 B7 7C AB 40 03 F0 5F A7 FD 08 14 D0 7E D5 52 8F E0 1F 54 2D 71
DPCM : 21 5B F7 C1 73 24 81 7B 47 3D C8 26 7C AF 0B A3 12 80 DF F7 7E 2A 40 00 EF AB E7 C6 A0 DA 51 D5
DPCM : D4 0C 92 B7 2D AF 0E 02 D7 5A D9 52 69 B8 FE 0A 9A 4A 01 EA EF FD C3 02 00 DC 9B BF AB 00 57 4D
DPCM : C9 B5 1E 40 6E CB F5 AB 01 4C D3 D4 4D 35 C8 FF 06 D4 4C 05 B8 EE BD CF 49 00 A0 4B FD 1F 1A 60
DPCM : B7 14 5E DF 00 AA AA B3 FF 04 A4 F0 42 7D CB 11 FA 1F 90 95 15 38 D5 BF E1 5F 00 A0 AE F8 7F 90
DPCM : 12 7C 1F D0 FD 02 8C 05 BF 7D 2F 44 C0 29 E9 77 D2 52 3F 0A 2A 2D 5E 52 F9 46 EF 05 08 AD AA FF
DPCM : 20 D5 C0 F7 50 F5 05 16 89 F4 77 F7 94 00 34 F8 DE 43 77 44 1B 15 B9 E1 4B 95 A9 75 53 4A 05 8F
DPCM : 37 27 71 6A F8 63 7A 28 B8 05 B4 FD DE 0B 8A 80 C1 7F 3D BC 06 56 15 AD C6 ED 03 D8 E4 75 74 79
DPCM : 50 4A 37 C4 CA 16 3F 47 A9 90 5E 01 7F F3 1B 56 08 90 DD F7 B8 62 05 75 61 57 9D 17 A0 53 E6 D5
DPCM : DB 06 C0 6D 2C BA 56 73 7D C0 03 AA 2B F8 1F 99 FA 01 05 B8 DF 47 D1 36 C0 5E 78 FB 28 12 16 8B
DPCM : E7 FD 2F 00 B8 41 FA 6A 3F CC 0C 4D 28 7B C2 FF 80 DC 0F 62 80 FF 47 58 DB 00 FC 93 7D 03 AD 04
DPCM : 9A 4D FE FF 00 C0 0D E8 D7 FD 05 DC 41 82 FC D9 72 0B 54 EF 44 15 F8 0F E1 B6 15 E0 DF 78 42 B6
DPCM : 2A 40 0F FF FF 03 00 74 C0 D6 FF 53 C0 0F 08 F0 DF 2F D0 81 27 D7 55 41 3F 30 D5 55 B8 DC 0F 13
DPCM : 6C 2B 05 7C F8 E7 BF 00 80 03 EE DD 2F 1D 78 40 C0 FE EF 01 07 56 96 7F 23 72 E0 A2 DA E2 ED 1D
DPCM : 12 1A 5D 55 D0 E3 D6 FB 0D 80 01 F8 B6 5B 6F 61 02 80 FF DD 23 07 D0 12 FF 8F 56 80 0E 76 F0 FF
DPCM : 3C 10 74 83 57 D8 83 5E F9 6F 80 01 F0 A7 57 FD 0D 07 00 FC 57 B7 53 00 07 FC FF 78 04 68 68 D1
DPCM : FF 8F 01 48 97 34 76 55 4C D5 FF 02 07 80 57 D2 FE DE 24 00 F8 5B DA 5F 00 06 B2 FD C3 07 81 45
DPCM : C2 FF 67 01 05 5B 5C 58 17 1A 66 7B 1A AC 40 E2 A1 FC BF 53 00 64 2F 5D 7F 01 10 C2 FF 0F 3F 00
DPCM : 10 81 FE BD A1 34 A0 C5 A4 35 10 E7 62 DB 81 07 51
DPCMDEF   6  1393 "A#GD#3"
DPCM : 55 55 55 55 55 55 55 55 55 55 55 69 55 55 B5 2A 95 56 55 55 55 B5 29 55 52 6B 95 5A 4B 95 5A AB
DPCM : 55 45 B2 55 AB A4 5A 55 A9 56 25 D5 55 DD 26 55 AB 48 89 A8 B5 EA B6 52 B5 5D 55 25 24 55 55 55
DPCM : D5 56 55 DB 92 54 AA 56 55 55 B5 55 52 52 6B 55 55 55 49 6B AD AD 48 65 55 55 55 A9 5A 55 55 A5
DPCM : 4A AB B6 2D B5 56 24 25 CA AA 6A 5B 55 56 77 AB 0A 52 A9 94 6A 4B AD D6 DA 15 49 49 B5 56 55 D5
DPCM : 2B 52 55 55 55 5A 5A 4A D5 B5 D5 85 54 B5 52 55 25 75 55 55 55 4A A9 6D 5F 91 BD 02 55 45 4A D5
DPCM : 5A B5 5A B7 55 5B 08 A5 8A D4 56 A5 DD AD AA 92 44 AA 5E 55 6A 6F 50 F6 0A A5 AA 52 4B AA 6D DB
DPCM : 56 48 DB 82 6C 93 D4 5A 25 B7 92 50 FD 3D 41 FB 16 90 56 21 55 9A EE 56 4D FB AE 24 50 2A A4 DD
DPCM : 50 DB AF A4 BB 04 88 BD A5 D4 B5 4B F4 4D 90 B4 68 55 92 EA 7F A9 96 AA 24 69 1B 51 B4 99 DD 55
DPCM : 80 FA 7D 11 DD 76 09 54 A5 04 A5 7E 5B 95 DA 7F 2A 01 C1 96 5A 85 4D F7 4B FD 02 04 96 BB 4A AB
DPCM : FD C8 3E 10 45 A5 25 89 DA FF A6 2B AA 4A A9 2D 84 40 FD D7 1D 90 E4 7E 2B 72 6D 1B A8 4A 0A 41
DPCM : BB DD 15 ED BF AB 00 50 6B A5 24 64 FD BE FB 02 40 90 7E 97 B0 DE B7 AF 00 32 21 45 2D B2 BF F6
DPCM : 57 48 6F D4 0A 11 80 F6 FF 16 04 5D F4 6F 0B B4 6B DA 22 20 09 BA BD 17 DD A7 BE 09 A0 2D 55 A8
DPCM : 02 FE F7 7F 01 40 09 EC 5F 01 FD 7F BF 09 00 05 54 AE 50 BF AA FF 0B BB 27 20 11 00 F7 7E 57 D0
DPCM : E8 62 FF 13 90 F7 D4 4A 80 20 D3 BE 57 55 AB DA 1E 85 F4 44 B0 02 ED FF 4F 0B 02 49 B0 FE 02 FD
DPCM : FF EB 85 00 50 A8 34 62 7D F8 DD FF 2B 35 00 0A 80 EC FB 25 76 C5 5A 5D 2B 74 F9 05 56 A9 00 D6
DPCM : EE 55 55 B1 55 5B D7 94 03 A8 91 AD EF 3A B4 54 00 55 3B D8 DF 7F BA 2A 09 20 15 28 D5 02 FF 6F
DPCM : FF BF 8A 00 04 02 D5 57 E1 77 47 76 69 51 AB BF 00 73 11 15 F5 74 E1 25 55 6D 5A FD 1B 01 59 70
DPCM : 6D 55 B5 B2 55 00 5F 50 F4 FF 6F C8 53 2D 01 15 10 1B 42 F7 FB BF FF 4A 05 00 20 3D D0 F0 EF 2F
DPCM : A8 4F 4A 5D 37 34 94 AA 55 F1 06 D2 57 50 9E 6E FD 95 F0 02 B2 56 95 45 5B B7 00 BA 05 EC FF E3
DPCM : 05 7D 6D 22 48 00 D9 01 FE AF BF FF 43 4F 00 80 25 30 E8 FF 17 E8 EF 40 BB 19 3A C0 A7 BD 42 56
DPCM : 70 57 20 57 CF DD 2E F8 13 C0 F4 4A D0 75 77 00 72 17 F8 6F AC 4D 6F 6D 85 10 14 D0 81 5E F6 FD
DPCM : FF B1 0F 18 00 43 06 F8 BF 45 DC 5B 27 DA 8D 04 F4 87 1F 15 E8 95 C6 85 A2 AB 67 2F F9 68 01 DE
DPCM : D5 80 5E 2F 04 F8 4A 5B 57 39 D5 7F C5 52 05 00 1B E8 2C A1 FF FF AF A4 0D 05 E0 0A E0 3F E8 6E
DPCM : AB D3 46 5F 00 7C 6B B1 43 72 D5 91 16 91 4D 6F 76 49 1F D4 E5 17 08 F6 15 04 AD 1B 7D E1 45 EF
DPCM : F5 86 AE 10 80 6D B0 01 DA FF EF 07 7E 03 05 79 01 51 75 F1 17 DF D0 4B 3A 80 AD 75 45 65 2F 74
DPCM : 43 2D 60 0B BF 3A F4 51 FA 37 07 68 58 4D A0 F4 93 26 9F 45 7F 66 B7 42 95 00 3B 2E 00 FE B7 4F
DPCM : D0 BF A0 D4 0B 82 07 F0 AB 6D B5 54 FB 01 D0 5B 6D 91 DA 5F C0 AA 91 C0 2E FC 85 E6 56 DE 7F 40
DPCM : E8 81 8A A8 AE 1B E0 2F 78 F5 96 6E 32 F8 04 5C 01 2C F6 97 5F 98 FD 81 BD 43 41 68 61 B5 6D 55
DPCM : 45 7F 20 A5 3F A1 56 75 5F 04 4B 55 01 3E FC 03 D4 5F EF 39 14 A2 1B 80 CD 37 20 F9 97 45 D7 AE
DPCM : D6 A0 6D D5 02 A0 93 F1 D1 17 B6 AD D6 DB 52 80 B2 09 B5 6E 55 C5 35 A4 69 45 6D 4D FE 49 A9 90
DPCM : 96 54 78 78 80 DE D7 FE 0A DA 14 58 85 97 45 A1 FC E1 AA A9 DD 16 A9 FE 01 54 60 EE 0C 6A D7 AA
DPCM : F4 C3 FF 00 B8 14 7A 85 D5 BE 00 1F DD 8A 82 FE C9 6E B6 C0 07 B0 5B 13 38 D8 AD 77 AA 8F 55 0B
DPCM : A0 DF C0 0A 2F E8 F2 E8 B6 E4 69 7D 2B 08 68 55 E9 0E 70 6B 17 EE 57 23 4D D4 05 7C 59 55 B5 60
DPCM : CA 37 71 05 7E D7 15 2D 74 A1 6A EB 01 24 FC AB 56 D5 6A 9F 50 45 CB 43 05 4F 16 F0 6F D5 03 F7
DPCM : 3F 24 50 24 DD AA D5 20 F4 6B 5B C5 45 55 6D D1 10 7F 53 48 69 81 FA C5 70 68 FF 52 24 35 E1 5D
DPCM : 55 1B 00 FC 57 29 6D B5 2E BD 2C 60 D7 40 27 14 6A 7F 2F 4A BE 57 45 40 A1 75 57 B7 04 A4 FF 0A
DPCM : 59 95 4C B5 5A 03 F6 1F 50 4D C0 FC A9 D5 C4 F5 4B 14 0B F8 9D FC 16 00 F8 57 95 86 AF C4 FF 08
DPCM : 68 D5 43 49 C0 9B F6 2F 59 99 6E 8B 40 C0 6F 7F 5D 40 C0 FC 51 59 58 05 FF AF 02 55 7F 40 05 AC
DPCM : 8D 77 D5 45 AD B7 10 05 FC E9 AF 05 00 FC 37 55 A1 5E A8 FF 0D 48 D5 25 85 D0 5E E8 AF 5B A8 B6
DPCM : A9 00 E0 BD FD 0B 06 C8 D6 B6 84 6A 81 FF 7F 42 50 7B 03 A0 DC 4A 97 DE 2F 52 2B 0B 80 D5 FF 2F
DPCM : E8 00 F8 D3 06 9A E8 74 E7 1F 48 74 74 01 AB 96 8C DF 6B 94 A8 B5 02 E0 DF DF 82 14 15 5C 1B C1
DPCM : 69 50 FF BF 02 44 DD 02 E0 65 AA 0B FF 4F 25 50 15 20 FD BE 5D D0 00 75 AB 06 60 9D E8 FF AD 90
DPCM : 0D 4C 83 2C 42 69 6F DB 72 0D B2 01 B8 FF 2B 2C 36 E0 16 2B 80 1D D1 BE 7B 00 74 01 29 E0 16 DE
DPCM : 52 8D 2F 1D 51 55 45 55 55 55 45 11 55 55 55 55 55
DPCMDEF   7  1393 "GD#C3"
DPCM : 55 55 55 55 55 55 55 55 95 AA AA 5A 55 55 B5 56 49 AD A5 54 69 D5 52 89 B4 6D 55 55 55 95 6A 5D
DPCM : 6B 25 A9 54 AD 54 15 49 AA DB AA 55 D5 DA 56 A9 AA 92 24 54 B7 56 55 91 5A D7 5A 95 54 55 55 55
DPCM : D5 2A 95 5A 57 55 92 94 5A B5 56 55 A5 5A 6D 55 B5 54 44 6A D7 B6 50 64 AD 55 55 55 AA AA B5 AA
DPCM : 55 26 55 6B 6B 15 04 49 AD AD B5 55 55 AD B5 B5 2A 22 A5 AC 6A 55 42 AA 7B AD AA 54 55 6B 55 AD
DPCM : 4A 44 5A B7 AA 2A 21 55 55 7B 6D 95 AA 6D A5 AA 14 A2 D4 6D 55 15 52 DD 57 D5 AA 44 AA 55 55 55
DPCM : 53 54 5D 6B B5 26 90 5A 4B D5 5A A5 6A 77 55 55 10 55 DD AA AC 92 20 F7 55 55 AD 52 55 55 D5 56
DPCM : 4A A9 7B 23 AA 84 A8 6A 6B 6D 55 AA FE 5D 24 A9 24 A1 56 55 4B 12 ED 5E 2D F5 5D 48 AA 2D 49 54
DPCM : A9 EC 75 AA 52 09 D5 5E 55 55 5B 2A EB 56 44 5A A9 D4 4A 5A 6D 4A 76 ED 2B A4 2B 52 69 32 A9 55
DPCM : D2 DE 6F 21 54 AB 12 A5 6A B5 4A DD BA 05 72 5F 45 52 55 8B 48 A9 97 6D 55 DB 45 4A 2D 95 B2 56
DPCM : 5D B1 2D 44 96 B5 4A B4 6C B7 A9 4B AD AA D2 AA 50 41 6A AA 56 D5 DA FD 26 76 55 13 00 A5 AD D4
DPCM : DA D6 15 E8 76 AB 80 76 BB 2A 54 59 B0 5B F5 55 50 4A 55 95 36 DB 4A 6F 51 2B 4A 05 AA 65 5F 65
DPCM : 6D 6A 55 75 4B 10 A0 6E 77 4D 4A A5 FA BB AD 24 55 48 10 55 95 B5 DD 6F EA 03 2D 22 6A F7 8B 48
DPCM : 89 AA 6A 77 49 A1 52 BD 6F 09 56 AD ED 16 92 12 2D 42 AA 3B 51 7F DD FE 37 40 00 C0 7A DB 56 61
DPCM : D5 D0 FB AB 20 DB C8 9A 92 80 EA EE FD 25 25 51 2B 48 7D 17 61 95 DC BF 93 40 24 55 57 BB 07 D5
DPCM : 2B 74 1B 21 B2 9A DC 5A 5A 80 BE FF 5F 6D 02 88 00 50 EF 85 76 D3 FB B7 56 A0 F4 22 AA 54 40 5D
DPCM : 65 F7 4A 45 55 9B ED 6D 05 60 57 AB AE 36 14 25 00 EE BB F4 F6 76 BD 85 00 C8 5D 68 AD 01 AD 2E
DPCM : FD 7D 8F 90 24 85 56 2B 41 EE 97 76 DB 6C A5 12 40 3B 11 55 DE DE EB 06 24 5B 4D F6 9B 04 55 41
DPCM : 57 7A 56 A5 9A C0 6F 91 7C 7F AF A8 A1 2A 40 40 AC 2F 05 7B 7F EF 7F 92 0A 41 51 55 A0 A9 AC 0A
DPCM : BA 7F DB EA 56 B8 06 90 97 58 55 AD 2B 14 2A 92 FD D6 D4 4A 1D BF 0A D4 07 AD 80 55 AD D5 D5 D2
DPCM : 56 B6 B4 28 92 5E C1 82 AB BF B6 BE CD 0A 80 A0 56 12 F6 EE 4A 6B 75 FB 62 5D A8 80 45 95 0A B8
DPCM : FE 55 92 EA AD 0D AD FA 51 A9 A8 1B B4 A0 5A 00 E5 9F 7E 6D 2F 27 4D B5 48 01 29 BA 01 B4 BD F4
DPCM : 7F ED 06 F5 A0 A0 0A 7E 69 05 7C B7 07 D5 55 14 7A 83 AE 56 B8 AD 45 27 B5 85 C6 6B 24 73 15 7C
DPCM : 75 51 55 5D 04 78 E5 3F 2E 74 6F 57 00 D5 0A 40 5F B0 DC AB FD 2B FD 89 2A 01 5A 13 A0 5E 88 3B
DPCM : AF B5 AD 2F C0 AA 76 A1 A2 D8 B7 02 A4 D7 0A 5C 7B D2 5E A9 57 5A 97 44 45 A0 AE 84 BD B2 E5 ED
DPCM : AD 94 6E 24 40 6B DA 20 ED F7 55 05 BD 95 02 F4 26 A3 49 79 8B D7 DB A8 AA 70 93 A4 86 56 47 5E
DPCM : 45 5B AA 0D 5A 5B F5 50 FD 4D 25 28 55 25 80 D5 D7 0B EE DA DB D6 5A A4 4A 90 14 58 A4 FD AA B7
DPCM : D2 5E 56 94 AA EA 03 D8 5A 55 2A 6B 55 05 7A DB 36 B0 D6 6D B0 4A 2B 55 2D D1 06 66 6B 57 BD 96
DPCM : 95 42 05 4D CB 37 C1 57 F5 6A 49 6D 2A A8 15 1E 80 5D FD 55 ED 68 75 A5 15 D4 50 52 54 F0 DB A9
DPCM : D4 56 68 6B BF A2 B4 DA 46 05 81 DB 80 3E F6 03 E8 DD 6F D5 56 5D 29 80 A2 57 80 F4 52 AF F7 54
DPCM : AB D0 6E F2 01 38 6B 55 D1 0D AC 2D 75 57 17 E0 A6 2A 55 B7 59 07 AD 94 DA 03 6E 05 DF 65 43 A2
DPCM : 8A 79 6A 3D D0 96 7D 27 2E 50 57 44 0D AF 02 D5 E8 EB 6C FB DE 05 54 F5 08 00 AC F4 4F 4A AB 1A
DPCM : F9 ED 3F 01 F5 21 6D 80 5A AD 04 B6 DE A1 A3 57 55 FD AA 74 43 A0 6D 25 14 E0 AA FE 2D 55 AB 0D
DPCM : D5 AF 40 55 9B 54 52 D4 5B D5 50 B7 15 64 14 8B FA 17 5D B2 0E F5 56 43 09 6C C5 5D 48 B5 5B 61
DPCM : 6B AD F2 E4 5E A8 50 1B 4D 09 E8 DF 50 05 F8 F6 B5 6B A7 AD 12 3A 41 85 82 AD 1C AA FA 6B 1D D7
DPCM : 37 39 58 64 0B 8A 76 55 40 E1 7F 53 55 15 7B D2 96 BA 62 5B 0B 84 74 A5 A0 D5 6E D1 56 35 AD 96
DPCM : E5 17 10 7A 15 6B 55 97 24 EC 1B B8 25 D1 1F 49 D5 D6 5D D3 16 A4 6A 94 80 F5 45 77 25 2D 76 5B
DPCM : DD 54 4A 97 44 15 6B 4B E0 AB 40 7D E1 D7 64 B7 A5 BA 13 F8 02 DA 16 00 D4 BE BD AA FD 02 EF A8
DPCM : D4 8A 85 5B 00 AB EA 26 F0 9B A6 B6 6A A0 D7 5E AD A0 91 2D B1 55 55 02 FA B6 52 EB 2F D0 07 56
DPCM : 4B D5 D4 A3 52 B5 6C 02 F8 7C 47 2D 01 7E 6D EF 22 1F D4 4A 29 6A 55 88 8E AA DB 6A C5 B5 BC 55
DPCM : DA 12 68 75 ED 10 0A 58 A2 EF D6 56 C0 37 77 48 B5 76 03 58 D4 2A 05 5C 6A 5F 75 15 C5 AA FF 15
DPCM : D0 80 AB 55 B5 4A 50 0B FA 17 5D 35 75 F2 46 55 4A 76 52 55 D3 AA 02 A0 FF 6F 81 54 9A 5D 6B 5B
DPCM : 31 54 F6 2A 90 4C 6D 00 FD D1 AB 05 7D 5F 6B C8 B4 05 6C 9F 95 20 00 FD DB 4A 55 35 55 6F 8B A5
DPCM : 1E 4A AE 05 A1 12 A1 AB D9 73 B5 11 D5 7E 09 44 2A 90 5E 25 55 05 C8 7A 37 70 7A 13 C9 62 8B 5E
DPCM : 00 57 BF 90 84 55 55 55 55 45 55 15 55 55 51 55 55
DPCMDEF   8  1393 "CAF4"
DPCM : 55 55 55 55 55 55 55 55 55 55 55 55 55 AD 54 55 55 55 55 AD 52 A5 AA 55 55 55 55 55 6B 95 A4 56
DPCM : AD 94 56 55 6A 55 D2 56 6D 4B 55 4B 52 44 B5 6A D7 52 B5 AB 56 44 AA 54 55 D5 56 D5 56 49 95 56
DPCM : 55 55 B5 A5 94 AA 56 55 55 A5 6A 6D 4D 54 55 55 55 A5 56 55 55 A9 AA 5A 57 D5 AA 48 45 AA AA 75
DPCM : 55 55 BB 55 85 54 2A 55 2D AD D6 BA 8A 52 D2 6A 55 D5 56 52 55 55 95 65 A5 D4 B5 D6 12 55 4B 55
DPCM : 95 B4 55 55 55 52 D5 F6 4A 75 05 55 49 AA AA B5 6A 6D 6B AD 40 A5 A2 6A 55 6E B7 AA 92 44 55 57
DPCM : A5 ED 42 75 25 A9 AA B4 94 B6 6D 9B C8 5A 94 56 49 AB 95 DA 14 49 BF 17 72 B7 40 56 91 54 55 77
DPCM : 55 F5 5E 25 50 8A D4 56 6C F7 92 6D 41 C8 6E 29 5B 5B C9 9D 48 2A 55 95 94 FB AB AA 2A 49 59 93
DPCM : 12 57 75 5B 08 ED BB 44 B7 2D 50 95 12 52 77 5B A5 FD 2B 41 84 55 55 D1 6A 5F B5 17 00 55 AF CA
DPCM : 5A 9F DC 42 14 55 25 49 BD BF BA C8 4A A9 96 10 62 7F DD 10 C9 DE 4B 6A 6D 85 2A 25 81 B6 BB A5
DPCM : F6 77 05 10 6B 95 24 B2 7E EF 1D 01 20 7D 57 A8 F7 F6 05 44 45 92 9A D8 AF FD 89 74 53 15 11 40
DPCM : F7 DF 42 68 E5 DD 16 B4 2D 5B 42 50 A8 ED 97 DA CB B7 00 5A 55 51 02 FD FF 5E 04 48 60 7F 05 FE
DPCM : BD 5F 01 50 A0 72 A1 7E DA 7F D1 6E 81 44 00 DE 7B 17 29 2D DD 2F 48 BD 59 25 10 62 7A 5F 55 AB
DPCM : DA 4D 22 9D 84 2A E8 FF 97 A1 10 12 75 2F F8 FD BB 45 00 82 A5 92 EA F1 DD FF A5 0A 20 01 D4 FA
DPCM : 26 5D A9 D6 D6 C4 66 8F 98 2A 40 EB 5E 55 A5 55 AD 5B A5 01 96 74 F6 6D D4 14 81 AA 0B FB FB B5
DPCM : 99 22 20 85 A4 9A F8 BE FD BF 06 40 44 A0 5E 95 BE 4D B5 AA D4 BC 07 D4 4A 8A DC 5C 6C 4A AD 6A
DPCM : F5 57 20 15 BA 56 55 D3 5A 01 3E 28 BE FF 13 9D 56 01 15 88 15 B1 EF 7F FB 97 04 00 91 0D 46 BF
DPCM : 3F 94 57 52 DA 16 45 69 56 65 0B E9 15 CA D5 D6 AF C2 05 AA 56 55 B1 75 05 B4 05 F9 F7 D9 C8 6B
DPCM : 13 50 02 72 81 FD 77 FF 2F 3A 01 40 29 08 F7 7F 82 F7 41 DD 1A 16 D8 D9 53 54 A2 57 90 73 73 B7
DPCM : A1 1F 81 72 4B 68 DB 0D 90 5D E2 77 D4 55 AF 2D 22 48 C0 85 AE F6 FE 3F 75 41 01 14 15 F8 6F 91
DPCM : BB B5 68 97 04 7C E3 4B 82 5E 99 86 CA E6 D5 93 9D 1A 70 67 81 DD 16 01 AF EA 5C E5 D4 DF 52 99
DPCM : 00 68 C1 69 A2 FF FF 96 B4 22 80 2B C0 3F D4 DB 5A B5 F4 00 DC 6D 74 91 5A 2D 69 24 2D 7B 6E D2
DPCM : 07 75 BE 20 74 17 84 DA C5 17 5E DC ED 0D 57 04 D0 06 17 D0 FF 6F 0F 7E 50 81 0D 8A 6A E5 97 5D
DPCM : 74 CB 05 B4 D6 25 65 0F 75 51 03 AD F8 4A F1 91 F6 E7 80 52 55 41 F2 8B C5 6B F1 AB B6 25 A6 80
DPCM : 4E 0B C0 7F BF 42 7F 41 D5 09 71 01 6F B5 D5 52 FB 00 BC D5 46 EA 77 C0 AA 24 D8 86 5F 54 57 F6
DPCM : 3F 10 3A A4 48 75 1B E0 3F 5C DD AA 47 E1 05 74 01 16 FF F4 92 F5 0B F6 46 08 56 34 DB 55 95 BE
DPCM : 20 D5 1D A9 55 DF 02 4D 55 01 1F 5F A0 7E DD 77 84 A2 0B D0 7A 05 D2 9F 96 D6 CD 16 DA 56 16 80
DPCM : 4B E3 E9 45 5B AB BD 95 80 B1 89 AA 57 55 5A B1 65 45 5B 53 BF A4 14 59 52 78 1D 50 BF ED 37 A8
DPCM : A5 50 85 57 51 A4 1F AD 65 75 2B AA 7F 00 41 B5 33 D4 AE 2A 77 F9 07 60 13 7A 45 B5 17 E0 B3 2D
DPCM : 09 FE AA AE 16 F4 80 76 55 70 70 6B 9F 7C 69 59 40 77 85 C2 07 39 1F 6E 8B AB ED 16 42 58 55 5D
DPCM : 81 6B 1B DD 6B 51 45 5D E0 65 55 B5 50 F2 4B 56 F0 6D 27 55 6C A8 BA 2E 40 D8 AF 55 D5 F4 0B A9
DPCM : 34 1D 15 2E 15 F8 57 1D 71 FF 41 50 24 B7 5A 55 C0 AF 6D C5 46 55 9B 0C E9 4F 2A 65 41 7E 35 1C
DPCM : EE 57 91 54 E1 AD D9 02 C0 7F 95 6C D5 56 5D 03 76 45 9A 08 D5 7E 97 62 DF 1A 01 85 ED D6 36 01
DPCM : F9 2F 61 55 2A B7 D6 40 F7 03 55 81 FA 6A 55 71 7D 45 32 F0 2D 7D 07 00 7F 55 19 DE C2 7F 11 58
DPCM : 75 94 02 5E F5 3B 5A AA ED 04 04 7E FB B6 40 60 7F 94 45 15 FA DF 04 D5 1F 50 C0 2D DD D5 45 6B
DPCM : 0F 49 C0 AF BF 0A 00 FE 55 55 E8 A1 FE 1B 44 B5 49 21 DC 83 DF 6E A8 D6 4A 00 FC D7 5F 28 A0 B5
DPCM : 25 A1 0E F4 FF 43 50 BB 01 A8 AD 74 79 3F 92 4D 05 D0 FA FD C1 03 F0 D5 06 26 AD F6 BF 40 72 74
DPCM : 84 A6 C5 F2 DD D2 A4 DA 00 F8 F7 17 54 52 E8 5A A1 19 F2 FF 17 10 75 43 E0 B4 D9 E8 7F A9 40 15
DPCM : 90 BE BF 8B 0E A8 AD 0A 50 B7 F8 7F 15 6A 30 0D 2E A2 B6 DB 2E 5B C8 02 F8 DF 13 93 03 6D AA 41
DPCM : 5D B8 FD 1F 40 2B A4 C0 1B DD D1 FB 55 03 50 A0 DE F7 FC 02 51 AF 10 C0 53 AF FD 57 79 00 55 4A
DPCM : 01 1F 7F 5B 7B 12 02 F4 6F 83 7E 50 55 34 41 97 E8 F7 57 C0 27 12 E1 59 E9 D1 FE 85 12 14 C0 B6
DPCM : 7F FA 2B 60 AB 02 40 AD DD 7E 57 7D 01 08 1B 40 BA FD 75 BF 61 05 80 DF 12 BA 3B 2A 79 81 AD E0
DPCM : DE 5B 50 DF 40 81 9F 54 95 FE 56 05 70 40 E8 FF 55 6F 8A 2E 10 80 2D 6B FD 3F EE 0A 10 68 00 AB
DPCM : 77 FF BF 06 00 01 F5 03 DA 77 A1 2B 54 55 A2 9E 72 90 F5 0B C8 5A 95 42 7E FF 02 0E 64 40 FF BD
DPCM : 21 ED C8 00 55 55 55 55 55 15 55 55 55 45 45 55 55
DPCMDEF   9  1393 "G#FC#3"
DPCM : 55 55 55 55 55 55 55 55 AA AA AA 55 55 B5 56 AA 56 95 24 5B 55 25 49 DB 56 55 55 55 B5 55 AA AB
DPCM : 44 C9 D6 AA 54 24 A9 DD B5 25 55 D7 4A D2 AA 92 A4 5B 55 4B A5 6A B5 52 95 54 B5 55 6D AB 48 D5
DPCM : 5D 59 42 88 54 5B DB 56 55 D7 CA B6 2A 44 49 AB 56 45 A4 F6 D6 2A 55 D5 AA 56 B5 52 44 D6 B5 D6
DPCM : 84 20 ED B6 B5 56 52 AB 55 AD 12 49 55 AB B6 4A A2 5D AB 54 95 AA 6A D5 5A 15 A9 F6 B6 2A 01 50
DPCM : B5 D6 B6 55 55 ED B6 B6 02 94 52 D5 56 11 D4 7E B5 AC 96 5A 55 D5 92 12 51 77 5B 55 11 50 77 57
DPCM : AD 96 54 DD 9A AA 48 98 5A B5 75 11 D1 77 A5 AC 4A A9 56 B5 4A 92 6E 6F 53 35 10 A8 6A B5 B6 55
DPCM : A5 7D 5F 21 92 54 52 4D 2D 44 EA DF 2A F5 97 48 6A 2B 41 29 D5 DE 56 49 05 79 5B 55 B5 0B 55 DB
DPCM : 15 C4 56 45 5A 79 4B 21 7E B7 92 D2 8D 54 5A 15 54 5F B5 B5 AB 02 15 A9 94 6C 77 15 6D FF 05 D0
DPCM : DD 84 14 AA 84 AA FE 6C 6D F5 17 22 D5 40 5A 2A B5 EE 2E 88 6D AD 24 B5 BD 03 2D B5 48 76 B7 44
DPCM : 54 AD 92 AA 77 B2 1B AA 95 AA 04 61 BF DA 16 ED 2F 40 1B 05 D0 BD 5B 45 57 D5 9B F4 6F 00 04 81
DPCM : EA 5E AB F4 AF DE 07 51 90 D2 52 29 D6 6D 4B E8 A7 2A 45 DD AF 02 05 E8 5F FB 15 50 A1 D2 6A 5B
DPCM : 55 55 97 B5 43 45 80 6E 77 5B 51 7B 95 AA 02 A1 D2 BE 55 05 4D DF EF 7D 11 00 01 50 DF 0D 4D 6F
DPCM : FF 7F 01 44 91 AA A8 2A 7A 2B EA AD 54 6D 51 DF 52 01 C0 EE FF 2B 50 A8 01 77 5B 4B 6A AA F5 57
DPCM : 02 92 D0 5E DD 8B EA 05 DD 2A 08 B5 49 57 B5 01 F4 FF FF 05 01 50 00 D8 77 81 FA BB FF 7F 00 90
DPCM : 45 52 6A 51 7A 42 FD 6D B1 DB 0A DA 12 01 F8 DF BB 4A B0 94 C0 7E 17 A1 EC 56 F7 16 41 A2 16 BB
DPCM : DD 6A 4A A4 56 17 2A 55 43 53 2F D0 FF FF 85 05 25 00 80 F6 2D C0 FF F7 FF 27 04 A4 90 8A 45 AC
DPCM : 36 E0 FB EB 5E 55 82 6A 11 C8 76 F7 2A D4 0B 15 65 57 23 B8 7A 55 7B CA 0A E4 65 F5 B8 54 11 AA
DPCM : 76 55 96 6A 01 DF 42 7F FE D5 82 A6 0A 00 D0 76 A0 DE FF FA 5F 55 2C A0 12 48 B4 0E B0 F4 EF 7F
DPCM : 2D 0D 61 0B 14 BC 5E 55 D8 F5 0B 2A A5 45 0D F6 16 FC 3A 51 1D F5 D2 0A 3D 52 91 B4 AC 5E 4D 81
DPCM : DB 85 5E B7 9D 9A 54 6D 01 D0 02 82 3F FD DB DB A7 DA 0A B1 02 A0 0D 41 BB EA BF F7 94 F4 42 20
DPCM : 51 5F 61 C1 6F FF 00 DD 82 C2 2D 5A F4 5A 59 D5 9B BE 00 65 2F 30 56 A1 ED 2D 51 6E 87 A9 55 5F
DPCM : 36 68 DB 0D 40 2E 01 F0 AF 97 37 ED AF 6A 2B 14 80 A8 0B D0 5F E3 D7 6F 51 9F 01 14 6C 87 06 FA
DPCM : FF 0A 64 BF 04 A8 1B 83 57 F0 47 F7 17 69 48 D7 04 A5 63 45 5B 5D F0 3D 05 99 FE 16 D1 FA B6 01
DPCM : 90 2E 01 FC 2D B5 6D 7D EB AA 95 40 0A B4 10 37 B6 E9 F7 4D 7D 42 0B A0 CA 2D E0 BF 1B 52 ED 55
DPCM : 01 DA 4E 11 B0 3F F6 D5 0B EC 13 4D 83 89 2E 92 FC 96 5A B5 20 7E DB 07 DC DD 0A 00 BE 8A 10 FE
DPCM : D2 85 EF DB AA 7A 0B 40 55 42 A3 52 F8 DD FD 56 C8 16 15 C0 DF 80 73 8F 58 AB AE 15 D0 B6 0B 00
DPCM : FD B3 E9 87 EA 97 2D C8 42 A4 05 7C 77 15 7C 41 7B F5 17 85 7D 4B 00 A9 B6 00 7F F8 82 AB F7 95
DPCM : FC A5 02 D2 2A 6C 01 68 FB 6F BB A0 2B D1 02 FF A0 D1 65 45 7F F0 26 E0 5D 36 00 AA 7B A7 55 F5
DPCM : 17 BD 42 36 80 2A E0 5F 07 3B 41 FD F7 3E A0 C3 B5 02 91 DC 01 35 7D 2D B4 A7 75 BB D1 55 01 5D
DPCM : 71 02 A0 2F FD 57 54 B7 C0 6A 7D 52 78 01 6F 4B B5 56 01 5F 3F 00 E8 5A 6F 51 D7 7F 81 57 1A 50
DPCM : 50 12 FD 93 4A D6 F0 F7 3F 28 BC 41 8B 44 B5 56 00 FE 0F 36 7A 95 FD E8 D0 8F C0 8F 00 2C BC A5
DPCM : 5F C5 D9 56 E0 5F 53 09 B4 C5 55 55 AB 4A D0 5F 28 45 FC 11 6B D7 ED 27 C5 82 94 04 B8 E2 5F C0
DPCM : D4 57 F7 DD 2C 14 BD 01 A9 71 2B 00 FA 2F 5B 2C DE D2 B6 B8 DA 5A 07 80 3A 2C AC BC 87 6E 55 B6
DPCM : BA AD 03 18 D7 54 95 D6 51 42 AF 85 35 55 22 75 6D 7D A7 66 26 C8 52 12 5C BE 80 BE D6 6D 5B A9
DPCM : AB 28 6C 4A 1D 55 88 50 FF B8 55 74 4D 0D 6D F5 4F 40 0A 96 76 0C A8 7E 6D 45 3F F0 0F 14 B5 94
DPCM : DA 0D 56 D6 15 80 9F DB 43 16 F0 AB BD 95 1D F8 05 50 57 15 C0 C5 BB E5 2F A4 A7 AF 2A 50 F6 2D
DPCM : 50 C1 0E E0 F3 87 DB 15 5C D6 BF 25 14 64 55 4A DB 00 74 FB 15 F5 0F 13 F5 44 DB 10 AF 2C B5 AA
DPCM : 02 64 FD 07 3D 01 BF F5 2B 72 D1 13 54 75 AD 00 08 FB 1D 5B B1 56 FE 15 CA D2 46 17 02 6A 41 03
DPCM : FF 57 B5 01 F7 FF 22 41 4C 85 5B 55 65 01 F1 D7 55 17 D5 81 55 77 64 43 E9 2F 94 04 79 48 FE 69
DPCM : C1 C3 EE AF 4A 8A 2E 68 6F 4A 29 01 D0 FF 8A A6 76 B5 6D 79 D3 01 DC 15 44 11 8A 56 FB 69 55 E5
DPCM : FB AA 09 50 89 D5 36 2D 55 00 D5 7F 21 B9 4D 65 D9 AB AB 40 F5 1F 00 59 80 DB 3A BA 5D 69 FB 55
DPCM : 51 1A E0 B5 51 59 0B 00 FC AD B4 76 BA 0B F9 BF 24 A0 AD 15 80 0A DC 56 F8 5B BD 95 5A B4 00 05
DPCM : F4 56 1E 55 21 00 DD 4B D4 57 55 81 FF 6F 05 52 FD 03 40 01 2E 15 B7 F5 5D 92 BA 87 24 00 F5 F4
DPCM : 09 0D 81 C0 15 55 51 15 55 51 15 55 51 15 55 51 55
DPCMDEF  10  1393 "DA#G3"
DPCM : 55 55 55 55 55 55 B5 54 55 A9 4A 55 AB AA 5A 55 55 55 6D 6D 55 11 D5 D5 94 04 A9 B6 AD 55 25 49
DPCM : 75 D7 D6 92 6A 55 4A 49 B5 AD 55 4A 55 95 D2 5A 6D A9 5A 49 49 A9 B6 56 55 AA 5A 55 AB 4A 55 55
DPCM : B5 55 49 49 AA 5D AB AD 49 52 24 5B D7 AA 25 85 54 B5 DA 56 55 B5 6B A5 A4 6A ED 52 49 91 52 A5
DPCM : 4A AA AA B6 AD AA AA 75 5B D3 6A 55 4A 42 50 F5 D6 B6 0A 10 A9 ED B6 55 55 55 55 55 AB AD AA A4
DPCM : 5A 5A 49 D5 54 55 D5 2A 21 A5 AA 6B AD 56 6B 55 29 55 AD 5D 6B 55 40 84 AA 6A AF 56 AB 94 52 B5
DPCM : 5D AB 14 55 45 5B AD 2A 25 B5 35 55 45 6A 6B 5F B5 6A 05 24 A1 56 D5 6E 55 55 44 75 57 B7 AA AA
DPCM : 95 50 5A 55 AB 25 55 15 AA 6A B7 45 52 B5 A5 54 6D 55 B5 DA 66 2D 41 24 DB 5D 5B AD 2A 00 A8 5D
DPCM : 51 D7 AA B5 56 55 F7 6B 09 52 AB 20 6B 55 55 49 D5 15 52 B2 F6 55 AB AA 5B 25 A4 AA 55 75 D5 2A
DPCM : 24 A8 7A B7 95 AA 55 49 52 5B 95 4A 68 DB AA 56 ED 57 85 50 4B 55 A4 55 BA 55 B5 B6 44 20 FD 56
DPCM : AD B4 D6 56 90 B4 6A 95 D8 92 5A AB 5A BF 15 A4 5A 55 51 35 A9 22 A8 6D B7 48 DD 6D 77 51 A4 3D
DPCM : 41 6A 69 B5 D2 56 51 01 6D B7 59 44 DB 76 AB 54 D5 12 A4 D4 B6 2D D5 AB AE 84 34 B5 0A A9 96 28
DPCM : B5 6D 57 25 DA 2D FF 05 A8 F6 0A 54 4B 95 14 BA AA 6A A5 57 A5 B8 AA F5 B7 94 94 14 01 D9 DE AA
DPCM : 88 9F DA B7 24 E9 24 55 53 09 D9 4D 5B 4B A1 5D D5 49 81 7B 77 B5 2A 02 A9 B5 D4 D5 52 27 95 D8
DPCM : AA 6C 6F 45 A8 05 49 ED 76 95 5A 6D DA BE 2D 40 5B 49 4A 09 A0 96 B9 DF 4A 5D 55 64 B7 E9 F7 2B
DPCM : 15 10 24 15 55 6B 15 B1 70 D1 FF 4A B7 95 AA 16 A0 76 2D 5B 25 59 65 D5 2E 14 FA 2D 95 44 00 B7
DPCM : FB 6D 5A F4 42 89 BE 55 7D 17 A1 02 4A 4D AD 5A 55 E2 AB 91 FE D7 A8 15 54 14 22 55 B9 4F AB 55
DPCM : 4D 55 B5 BD AD 4E 68 01 11 60 9B BB 56 82 56 26 FF EF 9B 2E B4 03 55 50 D5 4A 25 89 E0 55 D5 DB
DPCM : 75 45 75 09 59 51 DF 5B D5 2A BA 50 51 B5 BC 13 2A 42 52 40 FF 56 ED 26 71 5B ED FE DF 10 A8 00
DPCM : D9 02 92 8D D6 38 D2 A5 BB FE BD 2D B4 60 29 12 35 A9 DE 2A 60 AD 2A 7E 5F 4E D9 82 54 55 B0 6D
DPCM : 55 15 00 FB 7E 5B 6F 95 45 D5 A0 52 6C 85 5D 2B 41 F5 C5 A2 7C AB 17 C0 45 DB E0 6D D5 B6 54 72
DPCM : 47 DB A5 AF 28 00 A0 F5 02 E8 B6 5B C0 6F DF FE D7 A6 6D 50 C1 0A 10 00 BE BB 00 E8 B7 55 FE D7
DPCM : 2D DA 8A 5E 0B B4 76 2D 00 82 9F 7A A1 5C AD 14 AC 5A 15 7C 6D 2D 91 5B 7F 8B B2 B0 57 7A 00 2A
DPCM : 25 C0 7B 5B 88 B6 DD D6 7A F5 2B 02 D2 54 55 34 6C 2B A5 4E 76 59 7A E9 2F 25 A1 AA A9 00 76 4A
DPCM : 4C E7 D5 5E 6F D3 97 D6 0D 64 21 C0 D5 2D 15 80 AA DE 93 F5 A5 55 F7 A8 6A A2 EE 2A AC 5A A8 0F
DPCM : 02 6D 57 15 29 58 55 83 7F 2A 35 ED 57 FD 95 AD D5 55 10 A0 0A 80 8A 3B 25 5C 3B FF 86 DE DB 56
DPCM : ED 23 36 05 44 55 AA A4 A0 D3 C4 BB DE 4D 14 6B AB 1A DA AA 54 E1 A9 D6 0B 2D BC AB B6 85 42 29
DPCM : 50 DF 54 84 BB DB 29 3A 78 57 A3 07 56 6D 54 75 49 07 9B 5C 95 5A F5 55 40 15 55 6D 01 70 B5 95
DPCM : DF BD A3 94 FC AF D6 1A 40 55 80 42 6A 14 4A 7E 6D 8F FA BF 41 B7 72 BB 0A 56 52 0B 2C 60 7A 11
DPCM : D0 AF B4 DB 6C 7D 08 B4 F4 55 B5 5F B5 02 6D D6 AE 0A 00 DA 2D 50 69 2B B0 5D 7F 2B F6 AF 1A F4
DPCM : 05 BA 95 00 E0 DD 05 A6 7D 05 D4 6B 7D B5 55 B5 46 41 81 9B D4 21 FE 4A 6D BF B7 0A 40 FA 5E 01
DPCM : 61 74 14 5B F4 4A 07 75 AF DA 57 F5 6A 01 D0 7D 0B 16 F5 02 93 36 78 5B 05 F0 77 0D A4 27 7B 69
DPCM : F4 47 F3 F7 2D 40 05 2A 6D 25 00 60 6F 59 F5 D3 5B 6C 75 77 5F D3 06 2A A0 43 95 12 C0 C7 9A 76
DPCM : CA DB 06 75 F7 AE 01 D2 A8 B5 69 A1 5A 95 6D A5 25 69 6B A5 02 C0 7F 4B DB 11 5B 8F A6 AC D5 C0
DPCM : 5D 69 0D 55 65 4D 41 AB B5 2D D5 A9 54 AD 36 59 0B 00 B6 DD 5E 45 5B FF 61 D3 56 50 1F 50 05 80
DPCM : 2F 56 05 A5 EF BB B4 56 7B B7 5C EA 25 A1 A0 95 54 50 95 2E 80 77 D7 9A 57 ED 92 A2 D4 F6 5D 01
DPCM : DD DE 4A B4 41 01 7C B4 05 90 BB DD 6E 11 7B FD A1 8A EB 56 35 5D A0 10 A8 76 C5 A0 B6 3D F8 95
DPCM : 6D AB 5A 74 92 45 54 DB 54 80 D7 BE 56 AA 9D 85 AF C2 02 B2 8A EE A5 C0 AE 9D 05 B8 F5 D5 D6 6B
DPCM : 43 97 52 E9 11 44 D1 0E D2 57 59 45 82 AF D2 36 49 FB A7 B4 6E 69 87 25 5A 2D D0 AA 01 C0 48 FF
DPCM : 86 B4 DA 7D BF A8 BE D4 DA A2 A2 42 16 7B 05 00 F0 09 FD AD 6E 77 AD 55 53 6C 29 F4 05 55 F3 AA
DPCM : 12 81 BE 46 D5 AA 02 5F 57 F5 15 E0 86 6C 77 43 DD AA 25 B0 65 54 DB EA 1A 92 56 15 3A 9B 52 AD
DPCM : 56 55 65 AD 02 D6 27 74 5B B5 7E 95 5A 55 0B 4A 00 BA FA 66 24 30 42 DA DF 57 D6 EC 4F AA 50 54
DPCM : C5 07 42 21 76 02 F6 0D 60 F5 D9 B6 C8 FF E6 8A C4 A8 58 48 55 63 A9 D4 2E 04 00 FC F6 27 F1 A5
DPCM : C6 42 EB BD 00 D8 AD B4 40 AD 74 40 40 A3 6A 23 EE 1B A9 D5 2E 06 00 B7 6E 8B A0 25 2D 08 F0 FA
DPCM : 91 53 7D C1 45 55 55 45 45 55 14 55 55 54 55 55 55
DPCMDEF  11  1121 "A#FC#3"
DPCM : 55 55 55 55 55 55 55 55 55 55 55 55 55 55 55 55 D5 2A 55 55 55 55 29 AD AA 6A 95 56 5B 55 D5 52
DPCM : 49 49 D6 56 55 25 B5 D6 AA 4A 55 55 55 55 55 55 55 B5 4A 95 AA D2 5A 55 55 55 B5 52 55 AB 54 55
DPCM : B5 5A 25 25 95 AA B5 AA D5 52 AD B5 96 44 A5 5A 55 25 A9 B6 55 55 55 55 AB 6A 55 2A 55 55 55 55
DPCM : 95 A4 DA 56 D5 5A 55 2A 55 55 55 55 95 55 5D 25 55 AA AA AA AA 55 55 DB AA 12 A5 5A D5 AA 12 A9
DPCM : AD 56 55 55 55 55 B5 55 55 A5 54 55 55 92 54 DB AA D6 56 AD 4A 59 49 A5 54 55 D7 55 52 92 D6 56
DPCM : 55 AD 54 6D 55 55 91 52 55 6D B5 94 56 55 D5 52 A5 AA 5A AD 52 55 AD D6 94 2A 41 D5 56 B5 B5 AA
DPCM : AA AA D6 44 6A 55 5A AD 52 AA 54 55 55 6B AB 5A 6D 55 12 25 A5 6A 5D 15 A5 5E 6B 2B A5 4A A9 55
DPCM : 55 49 57 55 AD AA 92 A4 76 55 55 AB 54 AB 2A 15 A9 5E D5 B4 AD 12 95 52 2A DB 56 55 DA 5D 95 A4
DPCM : 54 95 5A 55 24 DA 57 55 AB 4A 55 D5 B6 48 5A 55 55 AB 14 91 BA 5B 55 75 5B 53 29 14 A2 6D AB CA
DPCM : 76 2D 95 54 55 A5 55 29 55 DB 4B 54 55 6A 55 55 4B 51 5D 55 55 55 A5 D2 56 95 56 F5 6E 49 42 02
DPCM : D5 6E 55 EA B5 B7 85 54 51 55 49 A9 D6 75 23 A9 49 AD 55 B5 5A A5 96 54 55 5A A5 AC AA 58 AB 7D
DPCM : 17 91 14 55 D3 16 B4 B6 BD 57 42 56 24 55 05 6D BB 7D 93 44 15 6E 55 AB 56 A5 2A 45 DA 2A 4A 6B
DPCM : 53 BF C5 AD 12 29 45 55 B5 21 AA BB 6D 2B A5 AD 54 92 40 77 77 57 A1 54 05 DB 56 5A 55 B5 69 A5
DPCM : 52 21 B5 2D B5 5F B5 45 50 A9 A0 D6 A6 D6 55 2B 6D 5B D5 90 2A 91 50 DB 57 55 A5 6A DA 5D 42 55
DPCM : 5B 53 A9 25 55 40 D9 AA 7B F7 6A 6A 21 12 D8 2D D5 AA B6 2C D5 6A 0B 55 91 AA 76 97 4A 55 55 55
DPCM : 75 2B 49 B4 AA 55 55 A5 AA 4A 55 56 F7 5B 55 45 92 04 54 6A D7 B2 6E ED BE 52 88 52 AA CA 56 55
DPCM : 4D 90 6D AB 56 4B 6B 55 A5 4A 4B D5 14 D2 96 AD 5A F3 25 95 54 D1 D2 A4 2B D5 76 EB 5A 29 02 A8
DPCM : EA A9 5A 5D A5 AD 29 5D 5A DA 91 4A 57 84 AA 36 22 ED BA F5 55 AB AA 48 2B 90 6A 2E 50 F4 6F 6F
DPCM : A5 0B 54 4D 55 5C 74 2B 55 D5 43 52 5A AB 95 DA 4A 76 95 82 AA B6 D5 45 FD 92 44 5A 05 DC A6 A4
DPCM : ED B6 EE 23 5B 42 54 55 81 B2 AE AA AB B5 92 F5 A1 BA A8 B6 A2 54 27 01 B6 6A 2F DB B6 36 D5 24
DPCM : 60 57 91 45 75 7F 41 75 29 D1 55 49 A9 5D 55 55 5D AD 60 B5 56 50 75 55 A5 55 52 D8 5D 55 69 BF
DPCM : 6C 94 6A 0A 60 8D 8A EA 6F 5B D5 4E 25 B4 4D 0A EA 55 0D AA 57 85 D6 56 A5 B5 D3 16 D4 23 09 DD
DPCM : B5 10 EB 6D 4B AA AA 14 6D 31 C1 FE 1E 65 DA 4D 44 56 95 84 AD B6 D2 B5 2A 15 FB 05 D5 B5 59 81
DPCM : 4A A5 A2 BE 42 EB DD 5A A9 6A 25 A1 55 22 69 2F 57 45 B7 D4 6A 13 55 D1 6A 2D 69 17 2D E2 15 6B
DPCM : 55 55 5B 54 49 AB 78 C5 15 DE 67 8D 8A 52 1B 51 D0 36 BB 5A 95 B5 E9 95 36 B0 45 94 DC 4A 95 BC
DPCM : 6A 35 5A D5 5A F6 12 4A 56 55 05 6E D4 6E B5 76 44 AD 0D 05 7D A5 CD 26 55 A5 AD 2B 88 57 15 69
DPCM : D5 55 E1 D5 95 A6 2D A8 51 AB 0A F0 6E 13 D4 B2 7A AB DB 25 74 AD 00 A8 AB AC 6C D9 56 56 DF A0
DPCM : B4 53 45 55 2D 15 AA 5B 58 76 31 55 55 AD 81 DE 1B 52 65 91 B7 54 9B C4 EE 12 48 B6 55 AB AA F5
DPCM : 52 DF 80 4A 5A A9 60 D7 16 55 D5 5C 55 B3 6A A9 A5 14 D1 5A 85 42 5B EB 56 D5 9A 7A 93 45 C1 55
DPCM : 71 91 B4 2E DD 65 51 69 A9 69 5A 6B D5 50 55 53 69 95 25 5B 55 B2 5A 5A 95 68 EB AE AA 13 B2 13
DPCM : 55 42 BA 56 0D B5 75 F6 A5 B5 A8 A4 4A 15 5D 25 4A CB AE 12 5D 55 5B 6D C1 5E A1 0B 90 5A 5B D5
DPCM : B6 C2 B6 54 55 95 D6 55 52 AD A2 2D 2B 15 AA 2D B5 A5 76 48 57 B5 16 A5 55 43 4D 4B C8 E3 55 44
DPCM : D1 D5 6D 55 57 E8 D5 82 54 A1 57 50 E9 95 76 D5 A8 AA 58 5D 65 69 03 B0 6C 29 0A FC 96 35 55 59
DPCM : 55 FB 04 95 5C AB 2A 55 A5 A4 6D D1 46 F6 52 55 55 B5 69 AF 20 45 D5 55 95 9C A0 7A 6B 5A C1 75
DPCM : 55 93 C8 06 D7 26 A4 90 7C D6 54 E9 4A B5 DA D4 50 35 49 55 55 55 55 55 45 55 55 55 55 55 15 55
DPCM : 55
DPCMDEF  12  1105 "FCG#3"
DPCM : 55 55 55 55 55 55 55 55 55 A5 AA 56 55 55 55 55 B5 AA AA 54 55 55 55 95 52 6B 55 55 55 55 69 55
DPCM : 55 55 55 A9 5A AD 4A 55 55 2B AD 4A A5 6A D5 AA 52 55 25 AD D5 2A 55 4A 55 B5 56 55 B5 56 55 55
DPCM : A9 AA 2A 55 95 AA A4 D2 DA AA 6A 55 B5 6A 55 95 AA AA 52 55 55 55 55 55 95 AA AA AA AA 56 55 55
DPCM : 6B 2A 55 B5 D5 2A 49 92 AA B6 55 B5 52 A5 6A D5 AA 4A 95 AA 55 55 A5 AA 55 55 AD 4A 55 6D 55 55
DPCM : 4A 51 AA AE 55 55 52 AD 55 B5 AA 52 AD AA AA 4A 55 AA 56 57 25 95 48 B5 6A AD 5A 55 55 B5 B6 55
DPCM : 49 A9 54 69 55 A5 B4 6A 25 D5 5A 55 55 AB 2A 55 A5 AA 56 6D 95 52 A9 5A 69 6D A9 54 55 A9 55 55
DPCM : 52 D5 B6 AA AA 54 A9 56 55 55 55 55 55 75 57 91 54 A9 AA 96 2A 29 6D AD 56 B5 AD AA AA 95 48 52
DPCM : 55 AB B5 AA 44 B4 76 95 D6 2A 55 55 55 B5 4A 55 55 55 AD 4A 55 55 55 55 25 55 6B 95 5A AD 52 55
DPCM : B5 56 69 2A 45 D2 B6 AA 5A 6B AB 54 55 45 AA 94 A5 B5 55 15 D5 5A 57 A9 2D 49 55 55 55 55 55 55
DPCM : AA 56 2B 25 AD 55 95 AC 5A D5 6A A5 4A 6A 55 55 B7 AA 14 05 A9 6D AB CA 96 B5 AA 6A 4B AA 4A 55
DPCM : 52 5B 55 68 AD 6D 95 AA 56 AA 54 29 D1 DA AA 56 55 DB 0A A5 55 55 25 6D 55 5B AA 52 A8 5B AD AA
DPCM : AA 4A 41 D6 B6 56 55 55 5A 5B 55 55 55 95 52 25 B5 56 24 2D 6D 5B 55 BB 55 45 52 50 DB 5A 55 27
DPCM : B5 4D 52 D5 52 95 54 55 6E 55 45 D5 6A 6F 45 55 95 22 AA 6B 55 55 65 A9 D5 56 45 4D 55 55 69 55
DPCM : 55 25 51 6D AD 6D 6B 57 52 22 A1 AA 5B 55 55 89 B6 AA D5 25 55 55 64 5B AD 54 AA B5 DA B5 52 A2
DPCM : 12 2A B5 8A B6 96 BA D5 D6 8A AA 5A A5 96 AA AA 24 15 AD DA 5A DB 2A 25 55 92 EA 56 55 13 AD 56
DPCM : 6A D7 A5 2A 54 95 6A 55 55 44 BB AA D6 5B 45 45 52 49 6D 55 57 A9 ED 56 6A A5 4A 49 55 55 29 14
DPCM : 35 D9 DD 5A 6D D5 AA 54 A5 52 AD 9A 2A A9 A5 4A 6B D5 92 2C D9 52 5B 55 05 ED 56 BB 6D 55 A1 90
DPCM : AA A8 6A B9 42 DB 55 55 B5 DA A2 AA 4A A5 D4 54 52 77 6D AD AA 6C 4A 54 35 51 55 2B 68 BB 9A B4
DPCM : 5A AD AC AA 15 B5 AB 44 16 6B 55 37 D5 12 85 54 29 BB B5 12 6D BB AD 56 97 AA 4A 45 89 2A 91 54
DPCM : 6D 5B 76 55 55 77 41 B5 91 56 2B 95 D5 AA 6A 54 53 B5 A8 55 D1 95 A2 6A A9 DD 96 B2 AD 94 54 55
DPCM : A9 D5 52 D1 6A 2D 55 BB 54 A9 54 A9 58 49 95 B4 F5 6D 5A D5 6E A5 54 A9 50 25 52 BB 2A 51 AB 6A
DPCM : B5 AD 54 55 6D 49 55 AD DA A6 6A 6C 09 52 9A 55 6A 8A AA B6 5D D5 4A 5F BA 22 D5 16 91 CA 16 69
DPCM : 6B A8 D5 6D 13 55 65 4B B4 54 65 57 55 55 D5 AA AD AA AA 54 12 AC D4 57 25 55 DD 52 B8 55 55 C9
DPCM : 56 AA 69 37 B5 A2 7E 92 44 55 B5 22 42 B5 AA 55 DD D2 B5 D5 2B 52 77 81 52 6D 6A 14 2A DA 4B 5B
DPCM : 95 AA 55 A9 68 55 DB D2 16 DD 55 4A 4D D5 4A 90 94 36 5B 5D 41 DD AD D2 6A D5 0A 31 AD 55 A5 5A
DPCM : 55 BD 59 A1 54 DA 16 52 6C 4B A5 6C AC 5D 55 5D 55 9B 2A 52 55 AB 4B A8 AA 55 55 15 B5 96 44 D9
DPCM : DA C9 6A 55 55 EF A6 AA AA 26 05 D0 5A 51 EC 92 76 75 55 AB D4 AE 42 D6 55 49 55 59 D5 55 96 54
DPCM : 55 55 22 4D AB CD A6 5A B5 69 A5 B4 56 49 A5 55 53 55 25 69 DB 65 95 52 2B 69 60 DB 52 6A A5 76
DPCM : AD D5 A6 AA AE 2A 50 55 95 2A A8 F4 A6 76 55 D5 52 55 51 DB 55 2D AA B5 A5 15 54 5A A9 46 34 EA
DPCM : B2 54 6D BD D5 2D 54 5D 52 45 59 55 55 85 56 AE 56 4D 15 5D B5 54 55 AD 54 84 76 5B B5 55 A5 D5
DPCM : 94 52 95 55 2B 25 4D AD 5A A9 AA 55 95 2A 6A 57 45 5B BD B6 56 91 8A 52 55 09 C9 56 49 5B DB 55
DPCM : 4B 55 A9 5E 55 45 6B 49 94 D4 4A D5 55 25 D2 16 4D 6B 75 85 45 55 55 AD 55 A9 A8 2A 55 A9 55 A2
DPCM : AA 16 B5 D5 5A C9 AA 54 95 A4 84 DA AA 58 57 55 65 B5 90 6C 34 51 81 6A 15 B5 DA 55 15 6B 95 D6
DPCM : B4 BA 05 AC 54 64 A1 10 95 02 D5 B5 CA 5A 61 6B 85 90 28 B5 28 4D 20 11 4D 55 20 9A 80 49 75 A2
DPCM : 52 60 64 A4 01 0A 68 42 05 54 42 11 04 00 5A 54 55
DPCMDEF  13  1121 "CGD#4"
DPCM : 55 55 55 55 55 55 55 55 55 55 55 55 55 55 55 55 55 55 55 2B 55 55 55 A5 6A 55 55 AD 4A 95 54 5B
DPCM : B5 4A D5 56 AA 94 AA 2A B5 56 55 55 AB AA 2A 55 AD 54 AA AA 56 AA 56 55 55 AD D6 4A 4A 95 B2 54
DPCM : 6B 55 55 6D 95 52 55 55 55 55 B5 AA 54 AA 5A 55 55 55 55 55 55 55 55 55 35 55 35 55 95 54 AD 6A
DPCM : 55 55 5D AB 52 4A A5 54 55 B5 56 AD 52 55 55 AD 26 55 AB 54 A5 CA 4A B5 55 AD 55 52 55 55 55 55
DPCM : 55 69 55 6B 49 55 A9 AA 4A 5D 5B 55 4A D5 54 55 95 6A 55 55 55 A9 54 5B 57 D5 AA 24 A5 54 A9 D5
DPCM : AA 56 AB 56 A9 9A 94 55 95 5A 55 55 A5 56 55 55 95 D6 6A AA 54 55 54 5D 55 B5 AA 2A 55 94 AC 5B
DPCM : 55 B5 AB 25 52 15 55 55 55 5D 55 55 B5 95 54 6D 25 55 55 55 25 A5 DA 56 55 F5 56 25 51 2A 55 AD
DPCM : 52 DB 6A 55 4A 25 D5 56 A5 B5 56 93 94 96 AA 55 A5 55 95 55 55 95 5A B5 95 5A 2B 25 21 A9 DD 2A
DPCM : 69 F7 75 11 C9 AA 92 A4 B4 5B 55 55 A5 A5 6A 5B 95 AA 6A 15 45 C9 56 D5 56 7D 95 48 8A B6 AA AA
DPCM : B6 DA 56 48 95 AA 4A 54 75 EF 4A 43 55 5D A9 54 55 95 AA AA 4A B2 5A DD 55 F7 92 04 A1 4A 1B 5A
DPCM : BB BD 25 D4 AA AA 04 ED F6 56 42 52 69 AB 56 55 55 2D 4D 4B 29 5D A5 B6 A9 57 42 45 52 D5 A6 EA
DPCM : F5 6A B3 2A 89 14 82 6E EF 56 14 AD 74 5B A9 6A 5B 49 52 0A 49 5B B5 77 F5 46 54 4A A8 5B 95 59
DPCM : 55 D5 A6 96 54 21 A5 DD B7 8A D4 15 6D 45 D2 5A 55 55 15 8D 94 5B 5B 7F B7 50 20 01 AD AA AD 7A
DPCM : 59 EB DA A2 44 55 55 2D 95 8A 5A D5 36 55 55 55 57 55 AA 25 91 4A F5 DB AA 46 92 48 95 FA 56 D5
DPCM : 7D DA 28 90 48 35 DD 34 5D 54 6D 6D AB DA 22 25 95 4C D5 44 72 DA DD D6 5D 2A 69 44 54 6C C8 F6
DPCM : B5 5B 49 44 AA B6 55 ED 15 D4 52 15 9B 36 55 5A 45 AB 5A 94 5D BB 5A 56 25 52 55 A0 56 13 AE 5F
DPCM : EF AB 0D 40 95 86 A2 BB D2 AA 15 D9 56 6D 65 5F 50 95 02 51 EB 6E 65 4F 29 D5 0A 7C AB 94 6C 75
DPCM : 97 58 45 D2 4A 41 DD 6B D5 DE 05 D9 22 2D C9 56 A5 56 02 BC DD 55 FB 57 03 23 81 56 50 53 FB 1B
DPCM : 65 57 45 DB 4A 51 55 55 55 55 A1 6D 55 28 5F 97 F4 4A 61 55 56 6A AD 55 CA 2A 01 9B 96 F6 FD A3
DPCM : 55 94 B0 54 12 EA D5 05 76 57 59 B7 43 DB A8 21 2D 41 B8 DB 81 7A F7 5A 55 93 68 91 A0 7D 4B 95
DPCM : B6 49 54 B5 92 5B 6D EA AA 50 E9 15 E8 56 6D A0 52 2D 7B 4B 56 5F AD 54 2A 12 5A A2 A8 B7 5E D5
DPCM : 57 5A 1B 61 A4 95 26 EC C5 22 BE 58 D7 AB 2D 2A 54 13 4F 54 F0 D7 46 55 69 95 15 D5 DC 6A 0B DC
DPCM : 68 D1 06 1B 52 DA A5 57 55 F5 A2 AE B2 B2 42 22 5B A9 D0 C5 FE B5 BA A2 B6 02 A1 13 5D 1D A9 D5
DPCM : D6 55 D1 A6 54 D5 6A A4 55 A5 72 A5 96 55 55 D4 F6 90 5A 69 57 B5 26 54 57 00 BA D5 5E A9 D5 BA
DPCM : 77 20 6C 51 A4 B5 18 5A 37 5D B5 95 76 65 05 DA 0E 21 35 E9 CB B6 4A BB 05 D1 56 55 53 5A 4B F5
DPCM : 41 4A AE 2A B5 56 69 B5 AA 45 2F 55 AC 54 48 DB 4A 83 AD 6D 77 55 69 8B 0A C1 56 AC C8 EE D5 AE
DPCM : 44 75 55 4A AD 4A 0B 55 4B D9 AA 55 AD 12 B7 69 25 D1 6A 5B 6A 12 B7 64 26 78 4B 4B 5B AB 2F 55
DPCM : 51 52 89 A6 AE B2 94 6E A9 B5 AE AA 56 B0 0B 56 40 B6 DE 55 57 70 D7 64 29 D5 29 55 59 F0 55 55
DPCM : 29 5D AA 59 2F 54 55 B5 19 55 A5 55 15 7A DC 82 C4 6F AF A9 46 BA 16 48 85 5F 68 F1 4A AD BD B4
DPCM : C2 B2 74 D2 01 68 AF 6A C1 57 55 55 B5 DA 4D 50 D1 56 55 55 A9 A8 55 AC E8 47 5B 4A B6 EA 85 24
DPCM : AA 5D 35 55 A0 FA D6 2D B0 B6 4D 50 15 5E 13 29 EA 5B 95 65 AB 2D 55 36 A9 52 94 D4 27 6D 55 85
DPCM : 7A EF 26 50 74 4D AD 04 DB 37 11 9A 7A 55 4B 55 D5 5D 22 55 95 D8 D5 51 74 54 C9 AE D5 D6 AA 42
DPCM : 75 8F 80 86 6B 6D 6A A8 FB 95 50 D5 B6 58 52 A2 FA 16 34 B1 96 DD 5B A1 52 52 25 5D B2 55 57 D0
DPCM : 56 13 5A 69 DB 55 93 2C 6F 01 C9 5E 55 15 AA EA 2D 51 55 51 B5 DE 02 A5 94 4A 29 2A 3E D7 06 ED
DPCM : 1E 40 AA A4 5D D5 52 54 A5 50 7B 54 BD 8A 48 95 25 54 55 55 45 55 55 55 55 51 55 55 55 51 54 55
DPCM : 55
DPCMDEF  14  1121 "FDA#3"
DPCM : 55 55 55 55 55 55 55 55 55 55 A5 5A 55 55 55 55 AD AA D4 5A A5 94 AA 55 55 A5 94 DA 56 55 55 55
DPCM : 55 55 AB 4A B5 55 4A A5 5A 55 55 55 4A A9 D6 56 AD 52 55 AD 56 4A D5 4A 95 D2 5A 55 55 55 A5 55
DPCM : D5 54 55 A9 B4 6A 55 D5 5A A5 54 D5 56 55 95 14 A9 AA 6A B5 56 55 D5 AA AA B5 AA A2 54 AA 56 55
DPCM : 55 52 6A 6D 55 55 55 55 55 D3 AA 5A A5 52 B2 5A B5 6A 49 51 AA B6 56 55 55 55 55 AD AA 56 29 95
DPCM : AA 6A 55 B5 52 A5 5A B5 54 55 A5 AA 5A 55 B5 AA 4A A9 55 B7 AA 2A 11 A9 AA 9A B5 AA 55 55 D5 D6
DPCM : AA 55 12 55 A5 AA 55 55 89 AA 5D 55 55 55 55 AB AA AA 96 54 25 D5 5A AB AA 15 85 AA AD 56 55 55
DPCM : 55 55 5D 55 A9 2A A5 AA AA 6A D5 26 25 6D AB 52 55 55 95 6A 55 55 55 25 AD B5 AD AA AA 42 92 55
DPCM : AA AA D5 5A 95 D6 76 53 49 AA 54 A5 5A A5 55 92 D2 5D 55 A5 D6 AB A4 D4 5A 4A A9 4A D5 5A AB AA
DPCM : AA 14 B5 55 15 B5 56 4B 55 AD 55 52 6A 55 55 AA AA AD 4A 49 5B AB 52 55 D5 52 55 56 95 A2 B6 55
DPCM : 5D DA 9A 96 A8 54 2A 45 B2 6D 5B 49 57 77 15 54 DB AA 22 55 AA 4A AA AA 9B AA 56 D5 5E 49 AA AA
DPCM : 24 AD AA B4 CA B6 55 52 D5 CA 4A C2 DA D6 25 55 55 55 4A 5B 57 95 94 96 55 55 AA B6 4A 59 95 5A
DPCM : 55 55 95 24 B5 5B B5 56 D4 DE 05 6A 15 15 81 BA 6D 5B 4A 57 55 5D A5 F6 2B 09 91 94 54 6D 55 2B
DPCM : 89 5F D5 BE 24 55 51 A9 55 A9 52 AB 56 57 92 5D 52 4B 41 DB B5 A9 54 09 D5 5B 6B 37 49 49 D1 6A
DPCM : 55 55 D5 54 D2 95 56 2D D5 24 52 5B 5D 6D 55 B2 6E 4B A5 42 2A 8A D4 6D 55 35 AA BA ED DA ED 22
DPCM : 05 0A 92 56 6B 4D B2 D8 F4 F5 AE A2 52 15 55 55 B2 2A AD 55 55 B5 2A 55 55 15 7A 4D 55 05 69 B5
DPCM : DD AF 8A 54 52 15 6D 55 D5 8A CA 94 DA B5 AA 52 A5 C4 B6 6A ED 62 D5 26 75 29 45 51 B4 8A 56 D5
DPCM : 5A 68 77 F7 6E 2B 29 21 52 48 95 6E 15 92 6E AB F7 6B 15 16 55 49 55 AA 25 4B 97 AA 72 AB 45 D5
DPCM : 5A 21 6D 95 42 69 6F 6D 5B 95 A8 51 55 69 D6 95 50 D2 55 E9 D6 96 54 55 6A D2 56 BB AA 2A 65 51
DPCM : 75 45 89 95 16 B4 74 47 76 FB DD 56 AC A1 12 4A 12 54 77 05 B0 6F BB 76 BF 94 51 49 45 55 5A 49
DPCM : 4D 1B A4 DB 9D 5A 55 95 12 B5 25 25 DD 6A ED AC 48 7B A1 A6 64 55 47 81 55 BD A2 6D 55 5B 54 5A
DPCM : 55 EB D2 A9 52 91 AA D5 52 54 A9 55 A0 DB AA FA D5 5B B5 C8 AA 5A 40 50 6A 6D 20 DA DE 5B F5 65
DPCM : 5B 6A A4 2C 49 2A AD 14 92 C9 B7 76 4B 55 55 2A 5A 4A 0B DE DA AA 94 B5 6D 0B 55 52 55 69 A0 B6
DPCM : 2D D4 D3 35 65 4B 6D 4B 6D E8 42 25 55 B2 6A 2A D6 2A 4A 4B 6D BA D5 DA 55 55 55 B5 AA 80 6A 22
DPCM : 8A AA B2 DF 5A 53 5F 55 AB 52 5A 50 A5 56 14 5A AD EA 2D D5 56 A5 AD 60 29 A5 7A 55 5A 74 AB BB
DPCM : 05 AA 2B 54 51 2A B5 C9 56 BC 6A 55 AB 76 2B 54 E2 2A 54 59 25 55 A5 2B 55 DA 16 B6 AA 69 5D 6D
DPCM : D2 6A AD 0A 51 55 05 42 B5 EB A6 5D 5A B7 9A D6 4A 2D 12 85 6A 41 69 D7 8A 5E DC 56 6A AB 0A 69
DPCM : A8 B5 E4 85 76 77 4B 2A 74 9B 02 45 5B 59 B4 69 6A 47 5D D7 AA 55 A4 B6 92 4A 5A 6A A2 AA D5 24
DPCM : 77 6D 41 55 76 9B 56 55 DD 6A 21 52 6A 25 20 7B 2D AD EA D5 65 75 59 D5 86 52 A1 1A 56 69 B2 A9
DPCM : AA B7 AA DA AA 5A 20 6A A9 6B 68 B7 B5 92 AA 6A 4B 15 D0 DA A6 28 EA 6E 54 57 6D 4B D5 8A 52 DA
DPCM : 42 A5 5A 12 B2 B7 92 5D 75 12 B4 57 7B A8 B5 AD 4A 91 44 57 25 41 7A 2B AB DA B6 4B 55 75 AB A2
DPCM : 24 2D 2A 5B 84 94 AE 6C D7 5A 65 B9 4A 05 62 5F 45 6E F5 42 D5 36 5A AD 02 6A 5B 15 A0 D7 5D 89
DPCM : 6C 27 B5 B7 B4 48 D5 12 A9 9A 80 D7 B6 B2 74 15 AD AA 7D 25 A5 AD 8B 4A 51 A5 16 05 D8 A3 5D 8A
DPCM : AD D5 2B B2 5B 55 A1 A9 54 65 15 A0 6A 55 6F D5 46 AD 15 AA 0A 7A 4B A5 5A 55 15 75 4B B5 12 A1
DPCM : 57 54 05 5A AD 5B A5 56 D5 B6 8D A9 A8 6A 42 AA 12 78 AB 4D B5 49 A9 D3 69 37 A4 5A 2D 56 45 95
DPCM : 55 95 80 CA 9E AD 58 57 D5 B6 B4 D4 A4 22 55 B5 4E 04 95 55 55 55 55 55 55 55 15 55 55 55 55 55
DPCM : 55
DPCMDEF  15  1121 "GEC3"
DPCM : 55 55 55 55 55 55 55 55 55 55 55 55 55 55 B5 AA D4 AA 2A 95 5A 55 55 4A D5 56 55 55 55 55 AD 2A
DPCM : B5 55 52 A9 55 55 55 29 A9 DA 56 AB 54 B5 5A 29 55 4B 95 B4 56 55 55 95 5A 55 55 55 A9 AA 56 55
DPCM : 6B 95 54 D5 55 55 49 92 D4 6A B5 55 55 AD AA DA AA 92 54 AA 55 55 29 A9 B6 55 55 55 55 B5 AA AA
DPCM : 95 52 D2 5A B5 AA 14 49 5B 5B D5 AA 54 B5 AA 6A 95 94 AA 6A 55 2D 95 B2 55 55 55 95 6A 55 55 AB
DPCM : 2A A5 56 D7 AA 8A 90 D4 AA D5 5A 55 55 B5 B5 5A 25 54 A9 AA 56 95 48 ED 56 55 B5 4A AB AA 6A A9
DPCM : 94 54 6D AD AA 4A 44 6D 5B 55 AD 4A 55 5B 55 A5 92 2A AD AA D5 52 52 DD AA 54 AB 54 55 55 55 55
DPCM : CA 56 D7 4A 35 11 A9 AA 56 AD 55 55 D5 EE 2A 91 52 95 AA AA 2A 49 D9 5B 4B D5 5E 92 D2 5A 49 AA
DPCM : 54 D5 D5 AA 52 49 BA 55 55 D5 96 54 AD 2D 51 5A 55 4A AB 56 55 A2 5D 5B 29 D5 16 55 55 55 A4 75
DPCM : 55 AB B6 2A 51 A5 54 25 5B 5B 95 5A BD 0B 52 DB 4A 52 49 95 A4 D5 AB 56 AB 7A 8B 94 AA 12 B5 52
DPCM : 55 75 6D 92 AC 55 55 A9 56 BB 48 4D 55 29 6D 6B 49 A9 6A A9 54 DB 4A 5D 45 AD 4A 55 89 D4 AD 56
DPCM : 4B B5 5B 50 AD 54 90 B6 5B 55 6A 55 B5 95 BA 97 10 45 21 B5 6D 55 65 6F D5 5B 24 13 A5 AA 2A A5
DPCM : DA D6 52 74 4B 35 A5 5A B7 8A 54 44 BD D5 6E 21 55 54 55 AD 55 55 55 AB 6A 8B 2A 21 B5 B5 D5 2A
DPCM : D5 B6 54 55 A4 A4 B2 6D 55 15 55 6E B7 DD 26 09 14 44 D6 6D 45 AB B5 FB 5E 82 92 52 69 49 35 69
DPCM : 5B 52 DD 52 55 AB 54 AF 2A 01 A9 6D DF 2D A2 54 25 6C 6B D5 A4 55 56 BB 95 48 52 B1 AD 5A 17 B5
DPCM : 95 D4 55 92 54 2D B5 AA 56 A0 7D EF ED 22 09 54 80 6A B7 85 B4 DB F6 5F 0B 28 AA 94 4A AD A8 36
DPCM : 49 BD D5 52 D7 2A A9 95 12 D0 7D 6D AB 12 55 95 C8 6D 2B 51 B5 55 ED 5A 22 25 B5 D4 56 97 55 4A
DPCM : A5 D5 4A A9 AA 8A 55 AD 48 FB B7 1B 55 54 42 41 A8 ED 0A 6A DF F6 DD 4B 44 92 49 96 2A A9 AA 81
DPCM : BD DE EA 56 95 A8 AA 14 C9 D6 D6 55 54 5D 54 29 5D 35 A1 55 5B 55 5B A5 85 B2 55 B5 69 A9 4A 54
DPCM : B5 55 55 95 55 B0 5B 54 AF DE 6A 91 A6 2A 04 52 6D 83 DA DE B5 FE 54 95 05 55 49 94 AC 16 54 F5
DPCM : D6 BB 55 55 92 5A A2 C2 D5 56 15 5D ED 12 55 65 A5 2A DA 56 D8 B3 29 D5 52 5B 5A 51 27 55 49 56
DPCM : 55 5B 55 89 AE 95 6C B5 B5 A9 4A D5 AA 80 56 21 D1 9B DE D5 D6 4B B5 95 A4 0A 52 5A 51 58 57 F5
DPCM : B5 5D A5 6C 49 91 52 5E A5 22 77 F5 15 54 17 A9 B4 45 2D 6E 55 55 55 57 76 41 95 5D C2 AA 8A 6A
DPCM : 5B 55 CA D6 54 56 55 3B 2D B4 D6 56 A0 6A 0A C4 DE DA 74 D3 BA 55 AD 46 46 24 AA 15 58 6F 95 5E
DPCM : DD 25 ED 4A 50 45 6B D1 82 BD B7 8A 54 B7 42 54 5B 2A AE A2 5D 5A AF 49 55 54 AB 92 D2 A9 92 AD
DPCM : 5A 51 77 29 C9 74 5B 25 55 77 35 90 CA AA 80 BD 55 D5 5A 75 AD D5 AA 24 2A 61 15 65 4B 6B EA 6D
DPCM : CB DA 24 0B 51 53 5D 60 5F 5B 45 55 DB 54 44 6B 55 09 EA AE DA AA 2D D4 2B 69 1A 95 B4 45 45 6F
DPCM : 95 55 35 89 76 ED 06 B5 6D 4D 48 E8 56 A2 64 57 B5 E8 D6 B5 AA B6 06 4A 55 89 95 4A A9 DB D6 AD
DPCM : 45 5A A5 42 EA 55 A1 6D 27 55 55 5B 35 A4 56 9B 00 6D AF 56 76 A9 EA A5 15 A6 51 AA 0A EA 75 55
DPCM : D2 15 D6 55 5F 51 B2 6D 25 92 54 6B 42 3E EA 8A 56 5B 57 E9 2D 55 50 D5 12 57 C0 B4 F5 B5 B6 D0
DPCM : 96 52 15 F5 4A 95 56 55 69 17 6D 45 72 2B 1B A0 55 DB 56 55 D5 5B B2 95 54 03 D5 04 7D AB 45 9B
DPCM : 48 7B EB 36 62 8D AD 8A 94 D2 96 50 D3 AD 49 B6 55 B5 B5 B1 56 41 B5 D2 11 60 BB 72 B7 4A D5 16
DPCM : 69 55 57 2A B5 84 5D 55 D5 AA 0A 6E ED 02 85 AD E6 56 AA F5 B5 60 AB 2A 52 54 4A BA AB 34 69 95
DPCM : 6E DF 92 8A 6D A8 49 A5 4A 55 80 BD 47 6C B2 55 D5 4D 2D 76 49 B4 92 20 2B B6 AA 5B A5 55 AD C4
DPCM : 76 2D 4B A2 56 52 55 55 4D 14 BA 2D A9 8A 7A 25 55 5B 6B 27 15 AD 94 4A 41 AB F8 16 B2 B2 AB D5
DPCM : 69 15 50 E1 06 85 86 B6 84 48 DF A2 15 16 B7 54 6A 6A 55 54 15 55 55 55 45 41 55 55 55 55 51 45
DPCM : 55
DPCMDEF  16  1089 "G#FC#3_2"
DPCM : 55 55 55 55 55 55 55 55 55 55 55 55 55 D5 AA 52 AB 2A 95 56 55 95 52 AD 55 55 55 55 D5 AA D4 56
DPCM : 4A A5 55 55 55 4A AA 75 D5 2A 55 AB 95 54 2D 55 D2 56 55 55 95 56 55 55 55 AA 6A 55 B5 55 52 D5
DPCM : 56 55 49 92 B4 6A AD 55 55 AB AA B5 2A 49 A9 5A 55 A5 A8 B6 55 55 55 55 AD AA 6A A9 A4 AA 55 AB
DPCM : 52 A4 6C 6B D5 AA 54 B5 AA 5A 29 A5 AA 56 D5 52 C9 5A 55 55 55 6A 55 55 AB 2A A5 D5 B5 AA 08 49
DPCM : AD 5A 6B 55 55 B5 B5 5A 85 54 AA AA 55 45 D2 6E 55 D5 2A AD AA AA A9 94 54 5D AD AA 12 D2 DA 56
DPCM : D5 2A 55 6D 55 95 52 2A AD 6A B5 52 54 B7 4A D5 4A 55 55 55 55 29 5B DB 4A 35 11 AA AA 55 6B 55
DPCM : 55 ED AE 24 29 55 AA AA AA 28 D5 5B 53 D5 AB A4 AC 96 94 4A 55 57 AB 4A 25 D9 56 55 D5 16 55 6B
DPCM : 93 A4 55 A5 AC 6C 55 49 76 6D 25 D5 26 55 55 95 54 5D D5 6A AB 22 95 52 95 6C 6D 95 5A 7D 0B D2
DPCM : B6 22 95 54 45 55 BB 5A B5 DA 4D 52 AA 92 AC 54 55 5D 9B 44 5B 55 95 6A 75 23 55 55 A5 6A 6B 51
DPCM : A9 5A 2A D5 B6 D4 56 D4 AA 54 25 52 B7 56 2B B5 97 50 2D 15 64 DB 56 A5 56 D5 56 EA 5D 44 24 91
DPCM : AC 5D 4D D5 5B ED 45 52 51 AA AA 54 5A 5B 53 72 4B 55 A5 DA AD 42 15 D4 5D ED 26 54 51 55 AD 56
DPCM : 55 55 AB 6A A3 4A 48 6D 6D AD 52 6D 53 55 91 A2 D2 6E 55 25 55 DD 6D B7 91 20 41 54 BB 96 AC D6
DPCM : DD 6F 82 92 52 5A 52 4D DA 96 D4 35 55 B5 52 BD 2A 11 A8 6D DF 4D A4 54 09 BB 56 4D 5A 65 F5 56
DPCM : 22 29 A9 B6 5A 27 AD 15 75 15 45 D5 52 AD 5A 81 F6 BD B7 13 05 54 80 D6 6E 21 ED 6D 7F 37 81 A4
DPCM : 4A A9 B4 62 BA 44 7D B5 D2 D6 4A 6A 25 81 DC D7 B6 2A 54 55 A2 6E 2B 51 B5 55 DD 96 50 49 4B 6D
DPCM : 75 59 25 95 55 4B A5 AA 8A 55 2B B1 FE DD 4A 25 25 14 88 D6 2B A8 F7 76 EF 93 84 64 52 A5 4A AA
DPCM : 1A B4 7B AB 6B 95 C2 AC 12 A9 D6 B5 96 54 17 95 D2 55 15 5A 75 55 6D 95 45 AA 55 B5 69 AA 92 4A
DPCM : 5B 55 55 59 41 B7 51 BD 7A AB 91 AA 4A 40 52 5B A1 EE 6E EB 4F 55 1A 94 25 51 AA 16 B2 F4 75 6F
DPCM : 55 15 A5 26 29 5C 5D 55 72 75 8B 34 65 A5 2A B6 15 EE 5C 52 2D B5 A5 45 AD 54 25 59 55 5B 55 89
DPCM : AD 15 5B 5B 9B AA 54 AD 02 5A 05 C5 9D DE D5 D6 4B 6D 29 AA 82 A4 16 45 6B D5 D7 76 95 6C 45 A1
DPCM : 52 5D A9 C2 5B 6F 41 75 91 D2 1A B5 B4 59 55 55 57 6E 41 65 17 B1 AC A4 B6 55 A9 5C 53 59 55 5D
DPCM : 2D B4 B6 15 A8 9A 02 EA AE CD 36 6D 57 B5 1A 1A 12 A9 15 D8 5E A5 57 6F D2 AE 04 15 B5 25 83 F6
DPCM : BD 8A 54 B7 02 D5 96 8A AB E8 A5 F5 16 55 51 AD 4A D2 AA 92 AD 5A D2 9D 8A 2A BB 55 54 ED D6 40
DPCM : 2A AB 04 DD 56 D5 5A DD 6A B5 2A A1 12 56 92 2D AD 69 77 4B EB 24 03 51 53 1B B8 D7 56 54 B5 53
DPCM : 05 B5 55 29 E8 AE DA 6A 0B E5 4A A6 46 45 9B 94 DC 55 56 D5 44 76 ED 0A AD 6B 13 12 5A 25 49 76
DPCM : D5 A2 5D D7 AA BA 0A 4A 55 91 A5 52 EA B5 DD 1A A4 55 4A A8 57 A1 75 17 55 55 57 0D A9 D5 06 D0
DPCM : F6 6A 59 A7 AA 97 55 A8 51 AA 0A 7A 6D 15 75 51 6D F5 15 C5 B6 15 48 52 6B 42 3E DA 91 B5 D6 55
DPCM : F6 52 05 55 4D 5C 01 B3 75 B5 B6 D0 96 54 23 BD 54 A5 15 95 6D B4 15 A9 AD 5C 80 55 BB 55 55 F5
DPCM : 96 5C 45 35 50 53 F0 AD 16 6D 28 79 EB 2E 68 63 AB 42 24 B5 09 35 BB 9A D8 55 B5 B6 A9 56 42 AD
DPCM : 74 04 C8 2D 7B A9 54 5D 94 55 5D 29 B5 84 5D 55 D5 AA 82 57 37 50 D8 6A 59 A9 D6 D7 82 6B 2A 52
DPCM : 54 8A EE 2A 8D 5A E9 F6 2B 2A BA A1 26 A5 6A 55 80 FB 12 AD 6C 55 ED D4 A4 96 50 4F 82 2C A2 AA
DPCM : 5B A5 55 29 B1 DB AA 24 6A A5 55 15 55 55 D8 A5 A4 8A 7A 48 D1 D6 D8 4D C9 4A 29 15 B4 E2 5B D0
DPCM : B2 AB C5 6B 15 50 BA 01 65 69 48 08 EC 9B 56 9A 8A 54 48 68 91 42 03 29 2C 45 88 5C 44 5B 15 56
DPCM : 0D 24 01 06 06 51 51 96 42 49 AD 44 56 10 28 D4 08 80 B4 08 09 14 00 00 60 28 44 50 44 41 24 E8
DPCM : 08
DPCMDEF  17  1121 "GD#A#3"
DPCM : 55 55 55 55 55 55 55 55 55 A9 AA 5A 55 55 55 AB 52 B5 AA AA 52 55 55 55 55 55 25 B5 56 AA D4 56
DPCM : AD A5 B4 56 55 52 55 25 D5 56 55 A5 AA 5A 2D 55 55 95 4A D5 56 55 5B 95 2A B5 6A 2B 49 45 A9 AA
DPCM : DA AA AA D6 AA AA AA AA 5A A9 52 55 56 55 2D A5 54 AB 4A D5 5A B5 AA AA 55 55 95 4A 25 69 5B D5
DPCM : 52 4A 6D 55 AD 2A A5 52 B5 56 55 6D A5 2A 55 B5 4D 95 52 92 D4 6A 4D AD D6 AA AA 52 AD 56 55 4A
DPCM : 55 AA 56 5B 52 2A 55 55 55 AD D5 AA AA B5 4A 55 25 49 65 6D 55 55 49 B5 5D 4A 6B 92 52 AB 6A 55
DPCM : AD AA 2A 55 D5 9E 94 2A 45 4A 5B A5 D5 B6 52 AB 49 B5 B6 94 54 55 D1 D6 55 4A A9 52 4D AA 6A D7
DPCM : 2A D5 DD 12 55 15 52 A9 D6 5A 55 49 76 5B 51 6D 15 49 AD B2 5A 4D 55 55 55 D5 3B 49 4A 95 A8 3A
DPCM : A9 D6 56 55 75 25 55 57 45 AA 55 55 D5 55 4A 55 D2 52 2A B5 5E 4B B5 76 2B 52 25 A9 64 B4 5D 55
DPCM : 49 75 DD 48 B5 2D 91 54 D5 5A 55 56 6A 55 D5 B7 8A 48 A9 2A AB A2 A6 AD 55 75 8B 4A 4D 95 AA 55
DPCM : 5D A9 2D 4A 55 AA 4A 51 EA 6E 55 4B ED 5D 21 95 54 42 AD 6D 4D 49 6A B7 4B B2 DA 12 D4 52 6B 2A
DPCM : A9 76 2D F5 55 2B 41 52 5B 55 29 64 F5 56 F5 2A 52 85 DA 55 55 BD 4A 5B 21 55 2A 93 2A B1 37 D5
DPCM : B5 B4 6F 49 A5 48 C4 5A 6D 55 09 6D EB 5D 25 D4 AA 54 95 4A 45 6A B7 5D 75 0B 2D 13 51 DB 2A 25
DPCM : 05 EE 5B BB 94 54 81 FA B6 4A F5 4D AD 05 94 4A 55 AA 42 B7 54 5F 5B B7 56 52 48 89 D6 AA 55 A8
DPCM : 74 6D F7 92 90 B5 52 55 92 82 EE 76 FB 4A A5 50 17 95 5A 17 29 45 F2 D7 A6 4A 15 91 B6 F6 8B EC
DPCM : 3B DA 22 90 68 55 AA A8 78 D8 DE BD 97 B6 84 2A 12 55 AB 85 B4 AA 5D 57 2D AA B4 51 55 29 A0 DD
DPCM : DD BB 92 A1 49 4D 55 D5 46 B4 92 95 5E 35 55 A9 A0 DA 5B B5 BD 6D D4 88 44 A8 35 64 6A 05 76 BF
DPCM : ED DB 16 A9 14 45 A9 56 28 B5 0D 5F B5 2A 6D 4D A8 55 11 55 F6 6E B3 95 A8 26 0B ED AA 92 56 D2
DPCM : 56 62 5B 55 A5 40 BF A9 DA F7 AE 60 41 15 51 95 A4 9A 02 ED 7F AB FD 6A 45 A1 44 2B A9 B0 D4 0B
DPCM : 7A 57 55 6D 53 54 15 A5 B6 6C 55 6B 57 B0 AC 4A 5A 69 55 93 9A 5A 2A B6 95 56 C1 5A AD D6 FB A9
DPCM : 25 94 44 15 95 94 D4 02 DB BF 55 DF 5D 55 50 85 16 25 AA AD 10 E5 5F 55 D5 5A D4 92 A2 6E 0F 5A
DPCM : DD 1A 51 6B 43 85 5A 79 A7 A8 E8 55 F0 55 55 C1 C5 AE F6 B6 AA 9B 28 50 55 11 0B 6A A1 5D FD 72
DPCM : 6F 7D 13 B5 40 45 15 AE 4A 02 7D 7B 55 D5 AA 54 5C 45 57 57 70 D7 4A 45 DB 0A A1 A9 76 D5 84 7A
DPCM : 55 A5 55 2D 44 6D CD 6D 2B 75 B7 06 92 54 15 24 5A B1 EC C3 FE B5 EE 94 AD 02 D4 2A 55 21 52 ED
DPCM : D6 96 55 2D E1 55 55 55 53 55 B7 45 49 B7 0A A8 B6 A4 57 68 57 B5 26 59 4B 88 6E AB 75 D1 EA AF
DPCM : 05 4A 56 52 40 AD A8 9A 75 DF D5 85 DF 52 06 69 2D 49 81 B4 8F B6 92 57 55 E8 55 D5 4A B2 2F 75
DPCM : 89 AA 5A 05 A5 AD B4 A2 F4 55 5B AA 1C 95 88 F4 57 95 56 DD B7 42 B1 52 45 10 6E 38 91 F7 4F B7
DPCM : 50 7F AA 94 AA 66 03 A8 B4 6E 4A 43 B7 42 DB 76 4B 14 6D BF B0 42 5B A5 54 54 8B 55 A9 DA B5 AA
DPCM : 5A A3 41 54 CD 37 E8 56 DD 5B 52 C5 52 AC 04 5C 84 DD FA D5 45 A9 F6 A5 55 D5 49 24 A9 B0 6D A9
DPCM : A0 3E 68 DB DD 52 64 55 6F 0B 45 DB 42 55 5A 05 6A 2F B6 55 B5 6A 2B 14 AA 5D 70 79 D5 56 37 5A
DPCM : 95 D0 6A 49 02 B8 6D EB 6A 4B 54 5B 77 AB 2B D0 A2 52 A1 AD A5 40 6D DA 76 4B AD 45 D6 B5 8D C8
DPCM : 95 5A 54 2D A0 D6 6E D2 56 55 5B B1 92 95 12 ED 72 B5 A5 4B DB 0A 54 FB 00 50 5C ED 9E AA 56 51
DPCM : D9 F7 5D 21 74 22 6D 81 D6 56 00 AF F6 D2 C6 B6 A9 B4 DA 6C 25 D1 96 55 54 C0 AD 1D D5 96 55 1B
DPCM : 54 57 11 46 AB 55 D5 B2 71 6B 51 71 3B 00 A9 A6 EA 1B AD B2 16 FA BE 93 8A 4C 45 5B 42 D4 56 81
DPCM : AA 9D EA D2 D6 6A 44 37 ED 24 A9 B5 24 15 58 6D 2B 6C 97 15 55 75 A5 4A A1 56 2D 6A 35 AB 4D D5
DPCM : 8E A8 04 A9 55 D5 36 55 E8 B2 F5 AA 4A 25 65 B2 2A D5 55 55 55 45 55 55 55 15 55 55 55 55 55 54
DPCM : 55
DPCMDEF  18  1105 "D#A#G3"
DPCM : 55 55 55 55 55 55 55 55 55 A5 AA AA 6A 55 55 55 55 D5 5A B5 94 AA 54 AD 52 25 A9 B6 55 55 A9 AA
DPCM : 5A 55 55 AB 54 55 55 55 56 5B 4B 52 55 B5 52 AA 55 55 55 A9 AA AA 56 AD 54 59 D5 5A AA 52 A5 AA
DPCM : 6A 55 55 55 55 55 6B 6B 2A 52 A5 54 B5 5A 55 92 AA 6D 55 55 AD D6 B2 AA 92 54 55 AD 52 A5 AA 55
DPCM : 4A AA B5 AA 55 55 55 55 55 AB 56 6D 95 42 D2 6A D7 6A 12 41 AA 6A AB 55 AD 55 55 D5 D6 56 55 49
DPCM : 25 55 55 55 51 55 5B 55 92 6A AD 55 B5 AA 52 55 55 95 5A 75 B5 4A 52 A5 6A AA B5 52 55 A5 54 B5
DPCM : 56 55 55 54 6B 5D AB 2A 49 A9 55 55 25 D5 AA B5 AA B6 AA 28 49 5B 54 5B 55 15 65 D5 56 55 D5 D6
DPCM : AA 24 AB A5 AA 26 55 25 5A AB 55 92 DA 55 A5 56 2B 55 B5 6A 55 2D 49 25 A5 5D 6F 55 4A 94 48 6D
DPCM : 51 6B 55 B5 56 55 6D AF 46 A4 56 51 55 55 55 A9 B4 95 A8 D4 5E 55 55 AD 2B 29 95 6A 55 B5 D5 12
DPCM : 45 DA 55 55 D5 D6 44 A9 54 5B A9 AA 54 55 75 DB 96 AA AA 92 94 A4 AA A6 76 B5 AA AA 29 55 6A 59
DPCM : 5D 52 55 55 92 DA 5A 53 69 55 D6 AA AA BE 21 52 55 91 AA 5D 55 49 6A AD 55 A5 B6 2B 55 25 95 2A
DPCM : 55 6D 55 F5 D2 36 21 A5 56 55 29 A8 6A B5 5B 4D 75 8B AC 52 55 EF A4 AA 24 49 D5 54 95 A4 B7 D8
DPCM : 55 55 DB 92 AA 4A 55 53 A9 55 15 B5 65 BB 12 D5 AA 54 55 A9 42 74 DB AA D5 95 BA 2B 42 D6 AA 4A
DPCM : 05 AD B5 D5 AA A4 12 EB AD 49 F5 96 52 45 A8 DA 56 25 41 6F D5 ED 55 AA 6A 25 51 D1 6A 55 55 A8
DPCM : D4 A9 6D AB A4 7B 11 55 45 A5 76 B5 D6 92 4B 54 AD 49 B5 4D 48 85 68 B7 AD 55 4D 24 6D FB AE D6
DPCM : AE A0 08 85 52 6D 55 29 74 61 EF B6 95 DA AA 16 92 6A 55 B5 2A 55 55 55 35 55 DA 95 2A 25 81 6E
DPCM : 7B B5 54 B5 25 55 AD 55 37 A9 50 05 6D AD AA 54 AA DA 55 AB 76 6B A8 48 A9 A8 B4 66 AA 15 B7 B5
DPCM : AB B6 4A B4 2A AA 52 55 51 68 0B DD 56 AB B6 4A 55 AB AA 2A D5 2D 55 25 69 55 55 D5 A5 45 49 51
DPCM : AB D0 6E 55 55 49 DF B5 6D 6F 2B 90 40 25 52 6B 49 55 41 EA BE AD 7D B3 52 52 69 AD AC A4 B4 12
DPCM : 78 AB 92 5D AB B4 4A 91 35 6A D5 56 2B B1 56 55 5D 6D AD 85 A8 54 09 5A AB B6 D0 D5 6A B5 B9 B5
DPCM : 0D 28 89 95 AA 2B 6D 41 CD 77 A9 D5 AE 4A 51 55 55 24 A3 91 14 6D 5F A5 6B 75 D3 95 4A 6D 0F D0
DPCM : 4A 2B C1 5E 55 45 5A 5B 13 B1 6A 2D D0 4F 5B 65 AB 6E EB AE 64 43 48 80 5E 61 0B 6A 49 9A FE 6B
DPCM : 5D FA 15 57 A9 5A 0A 2B 8D 04 2A BB A1 DE 69 55 5C 95 AA 56 74 55 55 55 5B 4D 69 A9 AE B6 04 55
DPCM : 54 A0 B7 4D 4A AD D6 B6 B2 DD AA 82 D4 54 15 57 34 69 BA 15 B7 52 D9 69 5B 15 54 55 59 81 AA D2
DPCM : AA DB 55 B5 DA A5 AD 54 2B A1 49 A2 AA 57 55 A8 AA AA 53 B5 45 AD D6 54 55 55 B5 B6 5D 55 D2 06
DPCM : 91 2A 5D 52 50 AC D4 4A 7F 75 55 AB 3F 55 6B 54 D5 22 11 61 05 B4 A6 DB 16 6E 6B 56 55 DA 0D B5
DPCM : D2 4D EC 2A C5 6A DA 4A 51 25 D2 3A 59 0B 2A F9 AE 55 75 F2 AD A8 55 D4 2A 11 36 59 4B 57 45 55
DPCM : 62 BF 2B A9 A5 5A 0B AC 50 5B CA 07 B7 A5 76 ED A6 16 45 5A 94 A2 B5 55 A4 2A 8B BE A5 E8 56 55
DPCM : D7 52 43 69 95 BD 69 2B D0 2D 54 55 55 B4 12 B0 B4 57 BA 57 53 6A BD 5B AB A5 AA 15 24 80 B6 A2
DPCM : 84 BD D0 DE 76 B7 28 55 7B 85 D2 AD 15 A5 5A 54 AD 1B C0 AD 2C 6B 55 08 DA 6A BE D5 4A AB 5B EC
DPCM : 46 AA 6A 05 A1 DA 16 51 D7 16 A8 76 DB DA AA 6A A5 42 A2 2D B5 82 3E 55 5B F7 D6 0A 50 75 2D C1
DPCM : 5A B2 28 5D 61 F5 55 D4 56 6C 6F 5A 42 55 D5 D6 92 25 D5 A6 95 2A A8 6D 05 34 DA 57 2D 4B D5 A9
DPCM : D6 AF CD 52 35 81 94 20 6D 2B 00 B5 D6 B6 AE 75 57 50 AA 5A 97 6A 15 A5 35 52 A5 55 B0 9B 96 6C
DPCM : D0 95 32 B6 6A BB D0 54 55 F7 A6 20 6B 41 55 41 1B 55 B6 A2 0A 7A 53 D9 68 A9 82 25 10 A9 5D A1
DPCM : 45 6C 57 35 54 83 50 55 B5 44 60 53 D5 06 B5 74 0B 98 4C 5B 35 15 55 A6 40 A5 2B 80 54 55 43 D4
DPCM : 16 D5 00 15 BB 52 19 4A 74 36 B8 54 5B 55 A0 2A 55
DPCMDEF  19  1121 "A#GD#3_2"
DPCM : 55 55 55 55 55 55 55 55 55 55 55 55 55 55 D5 2A 55 55 55 55 55 B5 4A 55 AA 6A 55 56 4B 55 55 AD
DPCM : 56 49 AA 55 2D 95 5A 55 A9 55 A5 AA 55 6D 4B 6A 4D 49 49 52 6B D5 B5 52 D5 AE AA 8A A4 AA D4 AA
DPCM : B4 56 55 5B A5 54 69 55 55 55 B5 A5 52 AA 6A 55 55 55 A5 6A AD 56 49 55 55 55 55 A5 55 55 55 95
DPCM : AA AA B5 55 55 AB 48 15 A9 6A D5 5A 55 55 BB 56 25 54 A9 52 D5 AA AA 55 EB 4A 52 A9 AA 55 55 D5
DPCM : 55 52 55 55 55 59 55 29 B5 B5 DA 0A 55 B5 54 55 95 6C 55 55 55 2A 55 5B AF A4 6E 11 55 25 A5 AA
DPCM : B5 AA 5A DB AA 2E 21 95 25 AA AD 54 DB D6 D4 94 24 55 5D 55 6A BB 50 F6 14 A5 AA CA 2A 55 5B 6B
DPCM : 2B 51 6B 51 6A 95 B4 5A A5 D6 94 A8 FA AE 44 BD 0D 91 55 51 AA 4C DB 55 55 BD AB 12 51 29 CA B6
DPCM : A4 B6 3D A9 6D 41 24 B7 A5 B2 D5 95 B4 17 51 AA 54 4B 49 B5 BF 52 2B 55 29 69 2D 29 69 55 DD 16
DPCM : 11 ED DD 22 6D DB 02 55 95 12 29 FB 5A 95 DA 3F A5 20 91 55 B5 22 97 EE 95 DE 09 04 CD B6 2A 6B
DPCM : BD 52 37 22 25 55 55 92 6C DF CB 96 54 55 D2 56 44 42 BD D7 2E 44 B2 DD 4D B2 B5 15 4A 4B 49 88
DPCM : 5D BB 95 EA 7D AB 00 C9 5A 95 52 A8 F5 DD EE 22 20 24 EF 56 68 DD 6D AF 40 52 91 92 56 D4 B7 F6
DPCM : 2D 52 5B 69 25 12 C0 B6 DF 4B 84 3A 79 B7 26 B4 B5 6C 89 84 24 DA F6 96 DA 4B 5F 05 A4 35 55 54
DPCM : 01 F7 F7 7B 21 A0 04 75 5F 81 FE DE BE 12 40 05 99 5A 54 6F D9 FD 4A 75 27 48 12 80 BB 77 9B A4
DPCM : D4 D1 F6 0B 92 BD A9 15 41 42 65 F7 56 55 CB 6C 2F 8A B4 49 68 09 F5 DF A7 0A 45 24 D2 F6 41 ED
DPCM : 7F EB 89 00 49 54 5A 64 75 EA DB DF 4D 55 80 12 84 6A BF 15 6D A5 5A 6D 55 B4 EA 25 9A 2A 01 5B
DPCM : DB 55 55 69 55 AB 6B C9 06 D8 48 57 77 AD 58 55 80 A6 6D 68 DF 7B B6 AA 04 A4 52 48 55 83 BE 5F
DPCM : FF 5B 0D 01 09 05 D5 AD A2 6F 4B B6 AA 52 B3 7B 40 B5 92 8A DA 6A D1 A5 D4 6A 55 DD 97 40 55 D8
DPCM : 5A 55 B5 B4 56 80 3D 62 F4 FD 5B 52 AB 9A 40 15 28 2D A2 F6 ED 6F FF 92 0A 00 45 AD D0 F0 7B 17
DPCM : 69 97 52 5D 5D 58 94 96 55 69 13 A5 57 28 5B 6D BD 55 71 05 AA 56 95 45 5B 5B 01 6D 85 F4 F7 D1
DPCM : 23 DE 5A 11 54 02 E9 02 FD 5E DF FD 45 97 00 44 15 52 D8 FF 26 E2 BD 42 ED 2A 5C 84 A7 5D 45 55
DPCM : E8 56 50 CD AB 6D 1D F9 8A A0 72 4B A2 6D 7B 00 D5 96 F8 B5 D4 56 DD 5A 45 42 4A E0 48 5E F6 FA
DPCM : 7F A9 27 18 C0 12 0B F8 7B 25 BA 9D 4D EC 26 05 EC 93 3D 2A D4 55 A6 45 D1 D6 65 57 BA D1 02 DD
DPCM : 69 60 5D 57 04 BC A5 2E 57 39 D5 7E A5 AA 02 42 4D E8 34 51 FF BF AD 54 8D 02 B8 06 E8 37 D1 6B
DPCM : AD 65 93 3B 00 7B AB D4 51 71 D5 92 96 44 AB 5E 76 51 2F D4 A6 0F 12 ED 16 82 D6 96 76 E1 95 76
DPCM : BB 15 5B 24 20 5B F0 02 DA FF AB 87 F6 82 06 B5 90 A2 B9 E8 97 6D D1 35 1D A0 6B B5 49 65 97 B4
DPCM : 45 35 D0 26 BD 56 DA 51 DA 2F 17 B0 54 55 48 E9 8B 95 5E A5 DE AA 6D 92 AA 80 36 2D 00 FF B5 AF
DPCM : D0 7E 50 D5 26 C2 05 F4 56 6D B5 54 DD 03 A8 57 75 92 DA 37 D0 AA 92 60 5B F8 45 D5 56 6E 7F A0
DPCM : F0 82 46 52 DB 1A F0 37 74 75 4B BB 18 7C 01 5D 09 34 FA CB 1D 59 FD C0 5E 8B 44 B8 D0 69 5D 55
DPCM : A5 3E 21 55 6F A4 56 B5 2F 41 53 55 01 5F 7C 05 E6 57 B7 37 0A A5 0D 48 AB 57 50 E8 97 95 D6 56
DPCM : 6B A1 B5 AA 01 54 C7 E2 65 17 75 35 6B AF 29 A0 B1 89 5A 6D 55 A5 55 6C 55 25 6B 55 DD 93 4A 91
DPCM : 96 52 3C 5D 40 7B D7 DE 26 B4 29 54 85 57 25 49 F5 D1 6A 69 6D 2B AA FE 08 54 30 DB 2C D4 AD AA
DPCM : DC C5 7F 00 D5 14 75 45 AB 5D 04 1F DB 52 0A DF CA BA 5A D0 0B 62 57 15 5C E8 5A 75 D4 A7 AA 16
DPCM : D0 5D A0 8A 1E D2 E9 D1 B6 E4 6A ED 9A 40 11 2D D5 16 B8 D5 16 ED AE 49 95 D4 06 6A 55 55 B5 50
DPCM : A5 37 69 05 7D EB 2A 55 30 A2 69 6D 03 0C BD A3 55 55 B3 57 A4 4A CB 46 85 2E 15 F8 5E D5 11 F6
DPCM : 37 11 52 90 B6 66 D5 50 B8 69 AD 91 46 55 6D D0 50 DE 55 55 55 45 55 55 45 55 55 51 55 55 55 55
DPCM : 55
DPCMDEF  20  1089 "D#A#G4"
DPCM : 55 55 55 55 55 55 55 55 55 55 55 55 55 55 D5 AA 52 55 A9 AA AA B5 56 25 95 6A 55 5A 2B B5 2A 25
DPCM : 5B 95 B4 B5 AB 44 59 55 A9 56 55 55 45 75 55 B5 B5 2A 51 50 5B D5 B6 CA B6 8A 54 53 51 AD 56 55
DPCM : A9 56 55 6D 55 95 92 A8 B5 52 D7 B5 4A 94 6A 55 55 55 55 55 A5 56 A5 B4 B5 55 45 A9 56 55 2D 55
DPCM : 55 89 7A 55 B5 AD 2A 49 A4 6A D5 56 55 6B 55 AA 4A AA AA 56 55 49 AD D6 B6 25 55 14 A9 56 55 D7
DPCM : B6 92 54 55 55 55 55 55 55 55 55 55 56 D5 95 52 25 75 D5 AA 2A 55 A2 EA B6 AA B6 15 52 45 A9 D6
DPCM : 56 55 B5 56 A9 6A 51 A5 5A 54 55 A5 DB 57 59 25 11 49 6D B5 6A BB 44 75 25 55 55 55 55 D2 AA 55
DPCM : B5 52 AD 45 59 95 6C B5 52 DD 48 28 F9 B5 4A DD 15 51 56 32 D5 54 6D 53 4B B5 AD 2C 52 2A 54 5B
DPCM : 69 DB 5B D1 4D 21 88 AE 6A D5 D5 4C D5 AE 42 55 A5 95 24 D5 AF D2 56 59 91 B4 55 55 6A 55 75 95
DPCM : 20 EE D6 52 75 4B 45 AA 35 25 25 7D 55 95 DC 1F 55 42 05 5A B5 B5 AA F5 6A B5 05 90 8A 6E 95 5B
DPCM : DC 52 7F 81 26 65 15 92 F2 7E A6 95 BA 50 B2 6D 85 A8 EC 37 2D 44 69 5D 4B B6 A3 54 59 17 55 81
DPCM : BE B4 95 D6 BB 95 40 45 52 6D 55 D1 5B BF B5 42 50 A0 B6 B2 5A 5A FB BE 90 1A 54 05 95 BC AB B5
DPCM : 0B 5B 4B D4 95 14 58 B5 7F 05 55 26 7A 53 AD 54 65 6D 25 55 11 76 55 57 AD AB 2D 42 A5 52 56 52
DPCM : A3 7D F7 2F 11 24 81 6A B5 92 76 77 DF 8A 42 12 55 B4 D4 5A AB 6B 65 57 0B 4A 45 48 BB D7 2B 51
DPCM : 55 A5 AD 43 CA 55 35 5B 54 C1 54 77 AB 66 55 56 16 65 55 A1 68 C5 ED DF AD 05 85 44 A8 BA 80 FF
DPCM : F5 FA A5 08 54 70 2B A8 3E F4 D6 4D FF 08 60 85 A4 EC 75 0F B5 AC 4A 97 4A F0 AB 92 56 B5 40 17
DPCM : FF 52 74 C5 AA 54 C5 97 02 EC 52 AF 7D 7C A5 50 11 CA 2A 10 FF 3F EE 55 29 50 E1 1A C2 56 D6 57
DPCM : 7D FA 23 40 15 42 6D A7 6E 2B D7 A6 54 A1 D0 5F A0 DD 14 2D AD F9 A1 64 17 55 95 72 1F 84 B4 69
DPCM : 6B 2D ED 97 48 51 55 10 E4 FD 97 D2 2F 2D 49 34 5C 48 B4 B3 D6 8F BD 87 0A 14 51 FC C0 F9 D3 6D
DPCM : A5 85 0A 6D 36 2C BC A9 5A D5 8B 85 4B 1D 15 6D E9 B1 70 49 4B D3 56 AD 1E 1B 55 54 84 68 BF 65
DPCM : C3 3F 55 25 5A 11 68 D2 6B 59 B7 FE 82 87 44 21 2B 5C DC DE D5 C9 56 82 D5 11 3C E8 47 B7 B2 5D
DPCM : C0 D5 1A 15 AB 56 0F F0 2B 89 E9 55 D5 B1 F6 50 51 4A F0 5B 14 BB BD B5 12 97 02 E0 D5 56 B4 F6
DPCM : FD 50 5A 2A 90 46 36 7C 9D 4E B7 55 05 D5 0D 01 FA C7 AE B2 D4 43 DC 65 A1 25 CB 3D C8 59 85 76
DPCM : D3 54 2F 65 45 59 95 98 76 45 D8 BF 4D 95 16 54 04 ED 2D C2 F7 CD 1F 40 4F 03 F4 14 F8 4F F0 BD
DPCM : 55 03 4B 7F 00 E0 5F D9 A2 F2 2F 42 5D 51 15 BC FC 09 58 DA D5 87 84 FF 01 A2 57 95 E8 E1 17 E0
DPCM : FD 25 97 12 74 1B E0 15 A5 FB E5 2F 01 55 8B 5C 41 F4 B7 C0 F7 2B 41 97 7E 00 E0 7D 95 E4 B2 FD
DPCM : 02 34 55 05 3E BD 3A 00 FD AF 03 D2 DD 0B 40 DF 91 0C 7E 1B A5 AA AF 86 8A A9 5D 94 80 EF 61 DD
DPCM : 6A 1B C0 6C 17 01 4F 7E 87 DA 5E C1 F2 83 C4 30 DD 62 7A 76 BA 1D 42 71 15 D2 D7 A2 05 DB F5 81
DPCM : E0 AD EC 40 7A 17 C0 7F 29 2D 95 76 15 71 55 F5 03 20 7F 15 B7 8E 7E 00 5D 8F 10 F8 D9 0F 55 DD
DPCM : 50 6E 19 95 55 A0 5E D3 AD AA 5F A0 84 57 D8 15 55 1F D0 B6 0C 49 57 D6 83 2B 89 F8 56 97 72 54
DPCM : 55 C9 56 D5 43 83 46 B5 D1 96 76 4B 43 57 15 50 E1 77 3B 74 A9 64 55 7C 63 09 74 15 FE 92 76 57
DPCM : 05 55 E2 5A E0 5E 95 F2 0A D9 14 C8 B5 0F 4A 05 7E E1 DB 50 4B 2D 60 77 90 D6 B4 54 0D B8 85 76
DPCM : 70 95 7D 00 5C 90 7B 67 93 1E 00 1F 57 03 45 6D 11 1E D2 F4 93 94 B5 00 31 D0 56 F5 A2 0B 64 05
DPCM : CA 7B 53 06 01 6A 70 D0 A2 91 A1 F0 40 44 E9 C5 01 06 20 BD 11 95 E8 08 00 52 41 FC D4 13 11 40
DPCM : C1 8E 10 14 14 82 11 30 21 D1 74 28 00 40 D8 0D 09 8C 01 1C 40 96 30 D4 00 00 02 B8 A4 C0 21 2C
DPCM : B1
DPCMDEF  21  1121 "FCA4"
DPCM : 55 55 55 55 55 55 55 55 55 55 55 55 55 AD 52 55 A9 AA 6A B5 5A 52 A9 55 59 55 35 53 A9 55 D2 D6
DPCM : AD 44 55 55 6A 55 55 15 75 55 AD AD 92 84 B4 55 D7 B2 B6 22 55 15 55 5B 55 A5 56 55 57 55 4A 91
DPCM : B6 D2 D6 AD 22 A9 56 55 55 55 55 65 55 A9 56 5B 25 A5 56 55 55 55 15 E9 56 D5 B5 2A 11 A9 56 5D
DPCM : 55 6D 55 AA 52 AA 6A 55 25 B5 D6 B6 29 15 91 AA 55 5B BB 92 54 55 55 55 55 55 55 55 95 55 5D 29
DPCM : 95 D2 D5 AA 2A 95 A8 6E B3 DA 16 49 49 AA B5 55 D5 5A A5 6A 52 A9 26 55 55 6E 5F 55 45 44 52 5B
DPCM : AB 75 23 75 29 55 55 55 A9 AA 56 D5 52 6D 52 55 C9 DA 4A 75 49 48 7D B5 D4 5D 44 55 52 35 55 57
DPCM : B5 D4 B6 2C 51 0A B5 96 B6 7D A5 56 11 90 AD 56 6D B5 54 B7 22 55 55 25 49 FB 4A 5B 59 92 6A 55
DPCM : A5 56 D5 55 04 ED B5 54 BD 54 A4 56 15 25 5F 55 A5 FD 54 09 05 55 6D B5 5A AF 55 27 80 8A 5D E5
DPCM : C6 36 FD 06 25 55 45 A2 FA AD 5A E9 42 A9 AD 21 A9 DE B5 90 64 6D 4B F5 A8 94 B5 54 05 DE 6C 55
DPCM : F5 6E 01 95 48 AD 55 F2 D6 5F 2D 08 81 BA B2 56 B6 FD 13 A9 50 45 94 BA 6B 5D A9 B5 50 97 14 54
DPCM : F5 5F 41 55 D4 4D B5 54 59 5D 4A 25 D4 56 57 AB AB 93 50 26 55 49 55 7D 7F 4F 04 12 A8 B5 92 F6
DPCM : F6 B7 22 21 51 B1 D2 5C 6B 5B D5 B5 20 15 21 BD 77 2B 54 55 DA 16 A9 56 B5 16 55 48 F5 B6 5A 55
DPCM : 56 46 55 15 A1 4D B6 FF 6E 42 21 11 AA 0B FC 77 FB 29 01 05 B7 84 7A 71 D7 D6 5F 02 54 48 B2 D7
DPCM : 17 B5 AA B2 A9 C0 D7 8A 56 2D D0 E2 3F C5 16 AB 54 71 97 80 2E F5 FA F1 65 50 11 AA 82 F8 FF 78
DPCM : 6B 49 50 B1 92 58 D5 6E ED FA 05 50 91 D0 5E BA 2D B7 AA 54 48 FC 05 75 55 2A AD 7E 44 75 51 55
DPCM : B2 3D 42 6A DA 5A D3 7E 22 49 55 10 74 FF 15 FD 2C 49 54 1C 0A BD 5A 77 FA 1E 0A 14 92 1E 9C 5F
DPCM : B7 95 86 12 AD 8D A2 AB 6A 55 8F 62 53 47 D1 A6 CD 62 C5 CA D2 55 EB 78 52 51 44 E8 6F 39 D9 57
DPCM : 95 68 05 58 F1 5A 75 ED 0F 1E 42 A1 4A 96 ED 3D 9B 5A 41 D5 12 0E F9 74 2B DB A0 B5 2A C5 CA D5
DPCM : 81 AF 44 E5 55 75 AC 97 44 25 E1 5E C4 5E 6F 2D B1 0A C0 D5 56 AC FD 0F A5 C5 20 26 16 77 67 AB
DPCM : 5B A9 50 3B 00 F6 6B 2B 4D 3D 64 97 91 25 B3 0F AA 55 D8 CD 52 4F 59 91 56 89 D9 45 D1 7F 55 A5
DPCM : 41 45 A8 B7 A0 FB F5 07 70 55 C0 13 E8 5F E8 6F 35 B0 F4 03 C0 5F D9 A8 FC 23 D4 45 15 3C FD 02
DPCM : A6 5E 3D 11 FE 03 E2 55 05 1F 7E 04 F7 17 8F 04 DD 01 3E 92 EE E7 2F 01 D5 42 87 D0 DF C0 F7 27
DPCM : D0 69 0F 00 FB 55 E2 76 FD 00 53 55 F0 DC 5A 00 FF EB 00 DD 37 00 FD 12 83 DF 49 AA F6 1A 8A A9
DPCM : 57 04 78 AF B5 AB 1D 20 5D 47 E0 D2 37 5A 5F C1 F4 21 14 CB 8D E9 76 B9 1D 50 5C 11 5F 4D 15 DA
DPCM : 7F 10 DC CA 06 E5 1B C0 7F 2A 4B A5 9B C1 55 F5 03 A0 5F 71 EB F8 01 5C 97 00 7E DE 51 75 43 75
DPCM : 19 65 15 A8 37 DD AA 7D A0 C0 17 5E 51 7D 68 BB 0C C9 55 75 D8 92 E0 5B 97 72 54 55 72 55 5D 2C
DPCM : 4A B5 B4 A5 DB 14 75 95 40 E1 6F 0F 5D 4A 56 E9 53 09 6C 85 BF 68 DF 14 54 E1 56 B0 57 4B AF 60
DPCM : 13 F8 F5 83 54 E0 17 77 43 4D 4D E1 1D 69 CD 52 2D B0 D5 5D DC E8 07 A0 41 7F E7 A2 0F E0 71 5F
DPCM : 40 B5 15 5E 34 FB 49 D5 0A B0 F8 55 BD E8 82 55 A0 FF 4B 06 03 3A 5F AD 96 C6 70 0B 4D 7A 2F 73
DPCM : 00 F6 2D D5 3F 01 B0 54 E9 B7 9F 03 40 F5 0F 55 D9 09 9E 70 5D D5 BF 01 00 F5 4F B5 67 80 0F 74
DPCM : DD DD 83 00 16 FE AD 6E E2 D0 05 D2 EC F6 2B 00 C6 DF DA E5 09 80 47 1D FD FF 08 80 43 BF 1C 3D
DPCM : 4A 6C 41 ED E9 7F 02 80 F0 DF 34 5F 02 5A AD C5 FE 17 00 30 D5 DF D7 8A 22 55 01 D7 DE 1F 81 44
DPCM : F9 3F E8 07 00 BD BC C5 FD 0F 00 C1 FA D5 BE 40 65 8A BC F0 7F 61 02 C0 FD A7 6E 30 01 7F 2D F5
DPCM : 34 00 90 B6 FD BD 36 40 A9 01 47 EF B7 24 14 B0 FF 54 07 11 F0 DF 0E FD 07 C0 C0 BA DB F5 11 54
DPCM : 1A 2A D4 DF 39 12 00 FC BF 2C 34 01 5E BE 89 37 28 08 55 54 55 55 55 55 54 55 55 55 55 55 55 15
DPCM : 55
DPCMDEF  22  2209 "EBG3"
DPCM : D5 2A 55 55 55 A5 6A D5 52 95 54 D5 B6 B6 8A 2A 55 55 4A AD 55 AB 4A 55 55 D5 54 25 55 D5 AA 5A
DPCM : ED 5A 95 24 25 55 AD 55 55 55 55 49 D5 76 6D AA 24 55 2A 55 AB 5A B5 52 55 55 55 55 AA 55 CD 2A
DPCM : 55 55 55 55 A5 5A 6D 95 52 55 55 A5 92 4A B7 DA AA 56 D5 4A 4A A5 2A AB 56 55 2B AB 54 22 D5 76
DPCM : AD 5A 55 55 25 55 AA AA AA AA 55 D5 52 55 55 69 55 55 AD 65 95 94 44 AD 5D 6D 55 AB 54 94 94 6A
DPCM : D5 AA AA 5A 6D 5B 29 49 95 54 4A DB EE AD 04 45 6A B5 55 AB 52 55 55 A9 55 B5 52 91 AA 6D 5B B5
DPCM : A4 54 A9 AA 56 B7 96 44 A1 54 6D 6D 35 AD AA 4A 55 5A AD 2A 95 AA 6A 55 AD AA 4A 55 52 D5 76 5B
DPCM : 42 A1 D4 6A 5B B5 55 96 AA 54 55 6B 4A 91 B2 B6 56 55 55 55 B5 B5 52 93 16 51 48 6B 6F DB 55 22
DPCM : 25 AD 6A 55 6D 95 54 D4 6A 6D D5 8A 94 44 EB 56 5B 55 92 92 DA 5A AB 16 55 A9 AA D6 56 35 A9 92
DPCM : AA AA 55 55 A9 54 D5 5A DD BA 15 11 81 AA F6 B6 AA 94 AA 56 6D 5B 2D 11 89 54 6D 5B 2B 55 A9 55
DPCM : AD 52 4B AD 94 52 AA D5 AD B6 52 95 52 95 55 55 55 95 A4 AA 6D AD 56 A5 52 95 6A 55 2D 55 55 55
DPCM : 55 AB B4 54 52 49 AD EE B5 4D 69 92 25 25 42 AA ED D7 76 B5 5A 20 89 6C 5B B7 28 91 54 BB 6A 55
DPCM : B7 9B 48 94 54 2B 95 52 77 BD AB 94 AA 52 12 89 58 ED 6E 55 55 DD AD 24 A2 A6 AA 6A D5 56 AD A4
DPCM : 84 94 F6 56 55 56 55 45 5B 75 5B CD 42 54 A8 55 D5 AA 55 55 59 55 2B 55 55 95 AA 6A 55 D5 56 5B
DPCM : 21 55 A9 12 6B 6A AD D6 AA A6 DA 4A 4A B1 B5 9A 52 A9 A4 B2 B6 B5 69 93 12 55 B6 6D AA 49 55 B5
DPCM : 6A 25 4B 95 92 A4 B6 B7 6D 2A 51 A1 AA 5D 6D AB 4A 52 A2 AD B6 AA 52 95 68 55 57 6D A9 A9 54 53
DPCM : 55 55 55 55 91 95 BA D2 D3 36 52 55 55 97 6C 25 55 D4 AA B5 96 4A 51 49 B7 D6 AB 52 04 4B BB 5C
DPCM : DB AA 25 A9 A4 96 5C A7 AA 90 2A 6D 6D 5B D5 44 15 25 75 BB 5B 49 52 4A A5 5D 5B 55 55 55 91 52
DPCM : B6 C9 4A 5B B5 A6 4C 85 14 B9 6F BF EC 49 05 14 CA B6 D5 AA 94 94 E5 55 35 55 95 92 D4 6A D7 5B
DPCM : 2B 44 D1 5A 57 B5 6A 25 11 88 64 FB F7 8B 90 D4 6D 4B 44 55 75 55 D5 D4 B7 96 00 90 EE 5F 55 24
DPCM : 5B F5 8A 14 D4 BB 2B 04 52 F7 9B 36 B4 AA 55 92 A4 F7 BF 02 00 80 FF BF 57 24 91 28 41 DB FF 4F
DPCM : 04 50 EB 7F 2B 21 54 6C A2 45 7D DF 16 00 50 DD 6F AD DA 4C 45 51 F4 FD 5F 01 00 64 EB 5B DA 52
DPCM : AD 94 9A DC 5E 2B 00 60 F7 B7 72 55 B7 50 11 5A BA 77 11 11 BA DD 95 15 B5 B4 52 A1 D4 DE 8B 12
DPCM : 70 D7 5F AD A4 14 A5 90 A4 EF FF 4B 00 D0 DA 95 54 2B 5B AA D4 AA 7F B7 00 44 AA B5 44 AE DE B5
DPCM : 05 15 AA D7 6E A8 54 55 95 02 DD F6 97 2B 56 6A 90 04 68 F5 FF 7E 01 0B B5 44 53 B5 4B 2D AA 6A
DPCM : 7D 52 25 5A 15 2B 78 D3 56 AB 2A 55 75 93 4A 55 5D 51 82 AA D5 AA B7 FE D5 92 00 00 6A ED 5B BB
DPCM : EB 96 A0 A0 AA 5B AB AA 54 55 89 96 5B BF D4 02 92 B4 57 51 91 BE DA 15 7D E4 93 AC 10 15 ED 95
DPCM : AA D8 EB 2F 48 08 DA D0 8B 7E F5 2F B4 80 4A 5B 5F 5C A0 49 55 85 5E DD E5 92 15 95 56 55 01 B9
DPCM : FE CB 95 B6 5A A2 10 0A E9 EB 5A 15 5B 73 17 9A EA A8 03 2C E0 6F FF A0 14 3B 75 D3 DA 0B 15 40
DPCM : 02 D9 FF 7F AA 92 1A 91 80 DA BE 55 AB 72 C9 0F 1D 54 55 CB 54 25 55 CB 56 59 55 55 85 9A 7C CD
DPCM : 2A C9 C5 7D DD 25 12 A4 8A BA 64 27 51 D0 FE FF 9F 04 00 00 BB 76 DF F6 4E A4 A4 B5 8A AA 52 15
DPCM : AC 24 49 FD F7 7F 08 40 A5 DC 6A 27 4B B2 C4 AA F7 BF 09 04 6A 52 A5 54 D5 DA DD 8A 54 D5 45 08
DPCM : AA FF DD AA A6 54 50 15 5B 75 55 11 40 FA 77 5F 36 61 11 2D B2 AA 76 D5 AA AA 97 6A 92 B6 B2 12
DPCM : 85 80 45 FF F7 13 2D 49 55 69 4B 55 A9 AA 5A 75 57 25 52 B5 E5 05 11 C8 EA 3D EF F4 41 54 50 BD
DPCM : 75 C5 4A 55 55 7D 55 85 52 55 49 49 5B 6D 5A A5 95 5C 55 55 69 4B 4B 15 55 7A F5 AB 26 92 B4 13
DPCM : 55 60 C5 AA AA 7B AF 5D A0 04 7A ED 2B 55 54 4D D5 EA AA 8D 14 21 41 FD F7 25 12 54 D5 D5 F6 EA
DPCM : 85 14 A1 AA DE ED 4A 22 5B 54 05 9B EC C9 4A D4 B4 AF 7E C8 89 34 40 D6 FD 3F 2D 40 29 75 47 3D
DPCM : 51 15 A9 48 B7 DF AA 00 55 FE B7 A2 90 AA B2 15 DD F4 4F 91 00 BA FA 45 29 D2 DA 26 9D B8 ED AE
DPCM : 00 88 F4 FF BF 40 17 28 24 6A B5 BF 37 00 00 FD 5F 55 B5 DE 11 51 A2 AE F5 4D 50 52 7F A9 10 35
DPCM : 57 4B 12 A4 ED F7 16 52 D6 AD 08 A9 FA 55 4D 54 6A D5 8F 10 60 FB 7F 05 49 A9 00 4B FF FD CD 0A
DPCM : 00 B8 DF 1F 24 49 5B 55 2D 55 AD D4 12 96 D6 5A A5 5A ED 25 49 44 C5 7E DF 15 48 95 56 95 6D E9
DPCM : 10 B2 AB 5D B1 46 11 32 F5 D7 37 D5 24 12 25 AB DA D5 DD 95 0A 50 D2 AA AB 9A 6A 69 85 57 76 A9
DPCM : 54 45 AB B5 7E AA 02 45 95 4A BC BA 2F 6D A1 4A 52 B4 EA 8A 5E FB B3 82 44 05 56 E8 D7 DF 5A 05
DPCM : 40 A0 FB FA 2F 7D 68 01 01 95 FE F5 22 45 F2 55 7B 49 15 29 49 A6 7B FF 37 01 00 58 5D 75 D2 B7
DPCM : BE 22 45 D0 72 B7 51 5B FD 03 14 40 DD D3 56 D5 95 2E 52 01 5A F7 6F 45 AE 7C 81 92 B4 56 91 22
DPCM : D5 7E FF 0B 21 A0 09 BB DA DD 76 89 10 92 7E B5 45 5A 6D 52 51 4B AD 74 CB 0B B5 F5 0D 10 52 57
DPCM : 54 69 BF 6D A5 A4 12 6D 69 4B A9 B4 AD 5B AA 44 D4 40 A7 DE 5F DD 00 8A 92 BD D5 9B A4 4A B5 A4
DPCM : 6A B5 16 AA 68 55 75 AB 0D 55 55 55 41 5F BF 17 14 12 50 E9 5F 55 55 BF A9 40 A9 54 53 AA AA BF
DPCM : FD 00 04 BA 6D 4D C9 56 ED 51 45 D0 ED 57 01 A4 FE AB 83 D4 54 95 44 23 7F FF 13 00 B0 DE A5 24
DPCM : DF FF 95 00 00 5A DD 74 A1 DF FE 21 24 55 57 24 02 5F FF E9 01 55 D5 96 44 94 FE BA 13 68 70 27
DPCM : 69 C9 BF FE 50 01 0A 5D B2 42 D7 7F 7B 50 41 15 AA 94 DA F6 AF 56 81 52 55 54 A8 E6 37 BF A8 D0
DPCM : 24 57 74 D1 56 6B 95 B4 D4 52 25 C0 E7 FF AD 45 40 80 D4 F6 DE EF 2B 24 C0 C4 97 5C 68 65 5B B5
DPCM : 36 6B A1 01 45 FA DD 3F 6B 40 11 94 A4 DE FE AE 92 50 B2 2A 5D D5 BC 50 4B 56 4B 7D 10 81 FA FE
DPCM : A7 8E 20 05 48 B5 FF FB 56 08 94 5A 7D D0 80 CA 4A AF FC BF 5B 01 00 E0 F6 BF 2F 50 12 14 B5 FE
DPCM : FF 52 00 00 D7 7D AD 2A 55 D5 96 54 6D 6D 05 02 59 FB 56 AB AE AC 48 25 D4 76 DD 12 52 75 7F 56
DPCM : 90 80 45 A9 FB DD 0F 2A 00 AD FE DF 2F 00 20 C8 4A FF FF 6A 00 0A B4 57 BF B4 81 16 B8 D4 F7 FE
DPCM : 92 00 05 B4 55 BF D4 45 15 95 BC D5 5B D2 22 55 56 D5 92 16 99 5A B5 BB 36 05 25 08 AF FF BF 25
DPCM : 00 00 D1 F7 FF 4B 09 20 A1 EE F7 5D 84 94 E4 95 5D B5 D4 50 13 9A EA DA 92 15 7A A8 4B 57 BD DA
DPCM : 85 50 A5 7D 52 02 A5 6A 5F F7 22 52 A8 44 B5 FF BF 01 10 D1 AE 5A D5 5A 69 85 0A EA 7A 6F 91 14
DPCM : EC 72 4B 27 5B 52 11 E9 D4 57 4F 28 90 AA B6 65 55 A7 2D 34 69 55 B5 44 17 F4 C5 1D 59 C5 AA 95
DPCM : 5D F5 4B 82 02 EC E8 AF B6 44 16 D8 49 BF F4 42 0B A5 DC DE 6D 64 41 4B 1A 55 F6 D4 C9 92 24 D2
DPCM : AF 5E BA 74 03 15 E8 D6 AD 6C A5 4A 53 AD 42 81 4A FB 66 77 55 05 48 DA DB 2F 2D 40 81 D5 6F B7
DPCM : 35 B5 20 85 EA 75 57 94 44 91 AA DA EE 6E 8D 04 44 E8 AB 77 7A 2B D5 44 45 85 4E 6D 49 55 75 55
DPCM : 45 2B 6B AD 7A E4 05 2D A9 AA 5A AD B5 A4 84 46 ED 5A 3D 6A 49 92 B6 D6 A6 36 D1 11 5D 71 45 17
DPCM : 37 D5 D4 A5 92 0A 6F F5 6A 25 89 50 B5 AB 2D 75 54 A1 C9 57 5D BA A2 A5 BA 52 44 D2 AB 55 D5 34
DPCM : 25 C1 4B 5F D5 5B 52 AA BA A9 10 2A FA 6A DD AA 45 54 21 4A EE 6C 95 AA 35 B5 56 B9 C9 46 3C C4
DPCM : 41 6F A9 12 FA A2 57 F6 4D 5B 50 52 D0 4A 5E 69 55 7B 43 45 54 6A AD 9A AA 5A BD B5 82 4A 74 09
DPCM : 6D F2 DD 96 02 B1 B4 B7 54 51 75 E9 41 1B B8 D2 5B 54 53 5F 4A 00 A2 BF 5D 6D 62 57 75 0B 54 50
DPCM : 57 85 16 78 4B 37 51 25 5B 1A 15 FA F5 57 12 42 A2 95 B6 52 56 D5 05 02 7C F1 0B 57 DA D3 0D 25
DPCM : 81 A6 FE B1 82 AA 2B 41 42 5A 6D A9 95 B8 6A 77 59 0B 7A 40 03 EC EE 57 A9 01 41 B1 55 56 54 55
DPCM : 55
DPCMDEF  23  2225 "DAF#3"
DPCM : 74 75 2B 95 54 4A 55 6D 6D B5 94 54 A5 AA 5A 5B AB 92 52 4A 4A D5 B5 55 55 55 55 55 D5 56 55 49
DPCM : A5 94 55 AD D5 DA AA 92 94 94 5A 6D D5 AA 4A 55 55 95 AA 5A B5 AA 52 95 56 B5 5A 95 94 A4 AA 5A
DPCM : 6D 6B 57 2A 51 A5 54 AB D5 AA 4A 55 55 55 AA AA 56 55 95 56 D5 AA D5 92 52 69 2A A5 6A DB B6 52
DPCM : 52 55 95 96 5A 55 55 D5 2A 55 A9 56 55 55 55 55 55 55 55 55 55 55 55 A9 5A 55 AB 4A 95 54 AD D5
DPCM : AA CA AA AA 54 A4 AA B6 D5 AA 4A 55 B5 B6 4A 4A A9 2A 4B A9 EA D6 B6 26 4A 51 D5 6A 55 B5 AA AA
DPCM : 4A 95 54 B5 D6 4A 55 55 AD 52 53 55 A5 A4 5A D5 B4 D5 DD 52 24 A5 55 55 6A 55 4D 55 55 55 AA D2
DPCM : 56 55 95 6A 5A 55 5B D5 2A 49 95 2A 55 AD 6A A5 96 56 D5 AA 96 D2 54 55 AA AA 6A 6D B5 92 54 95
DPCM : 56 5A 95 52 95 5D D5 2A B5 B4 54 95 6A 55 55 AD AA 2A 55 55 55 55 55 A9 56 55 49 2B 5B 55 55 55
DPCM : AD B4 AA 56 13 55 B2 AA A4 AA DB D6 4A B2 4A 95 A4 B6 D5 AA AA 6A 52 55 55 A5 24 6D 6B 55 55 6D
DPCM : AD 94 52 45 55 5B 5D A5 4A 55 65 52 53 55 2B 5D D5 B5 6A 95 14 49 4A B5 D5 5A AD 5A AD A5 94 94
DPCM : 52 55 52 D5 6D AD 55 AB 2A 51 54 D5 56 55 DB 55 12 89 AA B4 5A B7 AD 29 25 55 A9 AA 5A AD 52 55
DPCM : 56 55 95 55 55 55 55 52 AA DD EF 56 42 90 48 94 D9 DE 75 97 5A 51 49 65 55 5A A2 A5 6E 55 55 55
DPCM : B5 AD 52 25 55 65 55 AD 4A 25 A5 AA 56 B5 D5 B6 4A 93 54 45 B6 5A AD AA 4B 4D 92 A4 6A AD 6A 55
DPCM : 97 54 59 DD 5A 24 55 55 22 64 DD DB AA AB 2D 12 D1 D6 BE 48 52 91 02 A9 ED FF DD 49 13 42 44 6A
DPCM : DB 56 AD 5A 55 45 A5 AA D6 A5 2A 51 A5 AC 5D 77 4B 25 49 25 92 E4 7E 77 56 A2 4A 55 D5 9B 6A 50
DPCM : 45 54 A2 DA BE DB AA 4A BA D4 D6 54 11 25 52 52 AD 7E EB 2D 95 44 89 AA 5E 55 55 55 55 55 B5 D5
DPCM : 25 65 52 45 94 DA DD 6D A5 15 52 11 55 2D 75 EB DE 4A 22 A9 D6 D6 52 4A 15 55 B2 A4 B2 F7 FD 15
DPCM : 05 94 54 6D AB 4D 95 54 45 82 D4 7F BF 0D 52 C0 8A EE B6 6D 65 55 09 21 C8 7F 7F 13 42 84 B4 7A
DPCM : D7 5D 5A 42 11 4A DD FD 57 55 40 92 EC ED 96 6A A4 05 24 A8 BB FD B6 B7 24 41 D2 AA 56 55 AF AA
DPCM : 40 92 BA D9 55 5F A9 44 B4 C8 2D F7 DB 4A 40 44 D0 D6 FF BE 89 08 41 48 DB BF AD 92 54 45 2B FB
DPCM : 6D 55 24 51 09 54 DB DF 6A 44 95 48 4A BA BB 5D 5B 53 1A 51 AD BA 91 52 52 AB 5A 55 55 55 55 4A
DPCM : 54 A9 D7 76 B5 12 A5 5A DC D4 4F BB 90 42 55 54 55 6A 95 2A 65 DB B5 AD 56 55 11 15 D2 54 6D 6B
DPCM : 7F B5 40 54 54 A5 AD B6 55 52 A9 15 55 E9 5B 2D C4 4A 6D 45 75 DB 9D 48 49 01 C9 FC FF 17 21 52
DPCM : 84 52 FD F7 AD 94 40 00 E8 DE 5F 55 D5 EA AA 26 AD 54 6D 95 48 42 D4 D2 5F ED 26 6D 50 08 A4 FB
DPCM : BF 75 92 12 91 AC 75 57 6D 4D 4D 40 89 7B D5 2E A9 04 0A 3D F9 D7 AF 2A 50 24 77 ED B7 9A 04 12
DPCM : 24 69 EA 5F 6B 29 75 25 2B 69 55 29 A9 AB 16 D1 6E FF 83 06 DA 10 A2 A8 DF DC 6D 17 48 40 5F BF
DPCM : 64 A5 4A 91 A4 DE D6 DB 6E 04 00 D4 FE 37 2D B4 54 4B DC 64 AB 54 2D 55 09 AA EB 2D 4D 65 4F 5B
DPCM : 4A 74 91 0A B5 56 75 E2 57 BD 50 93 56 54 52 4A 55 5A ED BD B2 05 DB AA 6E 42 12 C0 D0 FF ED 17
DPCM : 3A A2 A4 10 DE FA AF 2A 41 44 6A 5F FF A4 02 A9 01 4B F8 F7 7F 49 08 42 55 DF D6 95 48 49 B5 4A
DPCM : 96 EC DD AF 94 14 92 04 2A FC A5 7F ED 4D 48 C4 6E ED 44 16 A8 40 AD FE DF 6E 15 10 01 D2 BE 7E
DPCM : A9 13 55 91 5D F5 4D 56 84 22 F2 AE 7D A2 0A 6D A5 4E D5 D5 55 09 05 60 55 FF EB 07 5C D9 5A 41
DPCM : 96 74 55 95 2A 58 D5 F7 97 16 D1 50 05 08 EC F7 FF AF 12 40 48 F6 D5 BE 68 25 24 04 F5 DF 7D 45
DPCM : 15 24 C0 A2 FF F6 15 35 C4 16 FE AD AF C0 01 25 01 74 E9 7F 57 54 2D BB 49 2B 64 01 BB EC 15 6D
DPCM : F5 7F 12 20 C9 65 15 36 D9 21 2B 7D 4B AD D4 5F C0 00 7E DD 43 55 73 17 5A C9 16 A8 A9 F7 41 85
DPCM : 6A 45 5B F9 FF 8A 00 49 85 A0 6A FF 97 8D FA 95 24 A9 ED 02 9A 78 13 00 D4 FF FF 4F 48 01 15 F0
DPCM : D5 2B 6D F5 8F 08 E0 FE AF 24 C9 16 4A 20 A1 56 FD FF 3F 00 00 FC FE 50 55 EB 4A 69 55 2D EA AB
DPCM : 2E 00 00 EE DE A2 BD FE A7 81 10 A9 D4 57 B7 50 48 7D FD A5 22 59 54 55 5A 95 16 B2 95 2A 69 ED
DPCM : B7 17 96 A8 D4 A4 06 5B DA E6 BD 52 42 E2 B5 BE 40 05 B8 D2 AF 7E EA 4A AA 02 08 60 FF FF 6B 4D
DPCM : 52 05 55 D5 55 4D B5 42 02 20 FD FF 1F A8 84 2A D2 FF F6 02 35 D2 02 54 FD FF 5B 88 04 25 80 D5
DPCM : BE B5 A9 57 54 01 7D FB 2F 81 12 9A 5A F7 B7 4D 44 05 21 00 7E FB 5F B5 A4 44 A9 7A A7 3D B4 13
DPCM : 49 80 FA F7 4F 88 14 DA C8 F7 EA 03 54 48 15 68 D5 FF BF A8 92 4A 04 55 EB B6 D4 AE 54 45 78 4B
DPCM : 3F 50 89 4A 4A DD FF D5 03 30 01 15 F2 BF FD 26 75 81 2A 71 6B 4F 0A A9 C8 95 B2 9D B6 28 A1 9A
DPCM : EE 75 7F 2B 01 A0 92 6E E9 7D 7D 41 41 16 DA C9 56 25 45 B0 CF 5E AB 7E 51 05 11 BA F4 AB DF 55
DPCM : 09 41 14 50 C9 FF FB 07 94 A0 48 9B FE F7 26 20 A1 A4 B6 EF DB 20 8A 68 45 7D F5 37 15 01 19 50
DPCM : 55 FD D7 AF AA 52 10 A1 ED DD 92 2A B5 52 55 56 53 2B 69 A5 A5 AA DA 26 55 D4 65 95 14 79 67 5F
DPCM : 6D 44 14 D9 6A 0F F5 50 2F 44 49 ED AD D2 84 8A BC FA 9F 2E 40 A5 5D 94 40 DB BF AE 54 22 85 64
DPCM : 5B 5D 55 5D F5 02 04 B5 6F BD 48 47 AA 5A F5 25 9A D4 93 46 10 EA 6D FF B2 03 94 50 C7 AD E8 A5
DPCM : 6F 2D 22 29 E9 A5 2D A5 12 5F EF 2A 50 85 9F 52 2A A2 AF DE 96 02 09 FA DB 56 A9 4A 9F CA 44 AA
DPCM : 56 55 15 21 2B FB B7 76 41 27 34 51 42 4D EF FD 6A 05 94 52 55 B5 56 7D 62 43 9A A8 D5 3D 6D 21
DPCM : 89 44 5B FA ED 57 55 81 0A 54 DA 6D DF A8 10 52 74 F5 6D BF 68 41 51 C1 26 7D D5 49 92 94 5D DD
DPCM : CB 1F B4 84 92 12 BA F4 55 5D D4 A1 2E 6A 53 5D 54 13 57 D2 5A DD 6A 94 24 A5 54 D5 DE AE 56 D1
DPCM : 25 9A 24 B5 54 19 B2 B7 B6 A5 76 6D A0 14 75 55 95 5A F5 42 2A A9 2D 74 D5 B7 95 4A BA 52 89 2A
DPCM : 6D 70 91 EB 96 BA B6 6F 04 12 94 B5 74 B7 FF 44 00 28 44 BD FB FF 23 40 65 4F 54 55 B5 04 91 6C
DPCM : BB 75 FF FF 00 00 80 AE A8 EF FD 97 00 11 89 5A FB 7F 91 90 6D 5F 40 91 76 97 4C A8 05 D7 FC BB
DPCM : 07 50 AA 55 88 DE FD 2F 04 04 01 5D FA 7F 3F B4 5B 13 00 C8 AB 6D 20 A5 BD DE FA B5 0B 88 A8 05
DPCM : 2D FC D6 57 15 54 49 93 AA 76 D5 52 9F 56 28 95 A9 A9 AA AC 95 6A 55 7D F0 02 5E 56 55 55 BD A5
DPCM : 16 A4 04 B4 EA DF AE A4 6D AD 85 28 A1 4A B5 AA 8D 76 75 57 95 48 A4 57 7A 64 55 5F 55 41 22 15
DPCM : 7E F4 4D 5B E9 4A 5B 50 13 6D 55 5A A8 5A 57 5B D5 42 55 AA 56 75 6A 55 A6 14 68 91 5E 7D FB 1B
DPCM : 75 80 12 25 AB BA 5A 13 5B 69 AD AC 72 43 15 2A 75 75 67 6F B5 22 20 01 2B FA D5 FF 7A 01 54 D4
DPCM : D4 56 BD 25 49 54 55 25 6D FB D5 22 54 D5 52 55 55 5B 04 29 6A B5 F6 FF 7F 01 00 40 5A E8 DB F7
DPCM : 52 2F 55 50 40 B7 B7 52 49 7E 53 8B 68 9B 24 49 9D 54 50 EF BB 26 50 95 2E A8 A5 DD 52 1D FF C0
DPCM : 04 38 F5 AA AA BE FA 82 5A 90 04 B0 DD 5F F5 56 7F 20 01 C8 6E 75 2B A9 04 76 75 2F AA D4 A6 92
DPCM : 82 7A F9 4F BF 40 09 A0 44 6D F5 EF 7F 09 00 40 75 FB 9B 5B 95 6C 48 13 6A 75 B5 A5 46 29 B1 57
DPCM : 57 5C A1 16 B8 A0 6F FF 5E AA 40 12 AA 7A 55 35 B1 55 5D 69 92 89 4A BA D9 55 D5 5D F5 80 45 B4
DPCM : 92 5A 5B 2F A9 92 1D 51 C2 AE 1D 35 E1 A5 2B B5 D4 0D 55 A2 AF DC C0 D5 7E 51 20 91 95 64 7F FD
DPCM : 83 42 56 55 A0 DA 1F 7A 00 0F 7D 55 B7 57 30 40 B5 2B 6E 71 7F 2A 01 69 C5 56 DD A5 0A A9 E4 2A
DPCM : AA 7A DF 2A 22 2B 55 A5 DC D4 46 59 DA 92 24 F4 EF 96 D0 C4 16 D0 D6 77 AA A4 6E 55 81 45 BD 14
DPCM : 41 8D 6D 05 78 59 45 EC F2 2F 29 A4 A5 15 E4 72 6F 52 2D 29 11 D0 4D 57 69 55 8B 94 10 DD B5 57
DPCM : EA 48 12 B8 EA 53 55 75 6E 01 20 B4 BB D2 25 27 A5 A4 52 95 D4 F5 7F 00 00 A0 DF 9A AA 55 4F 15
DPCM : BA 40 55 15 55 55 55 55 55 55 55 15 55 55 55 55 55
DPCMDEF  24  2209 "BF#D2"
DPCM : 54 55 55 6B 6D D5 22 35 55 55 55 55 55 AD AA 52 55 55 55 65 95 55 95 AA AA 55 D5 AA 52 95 2A 55
DPCM : 55 6D B5 95 B6 D4 2A A5 14 A9 AA DA AA B5 D6 2A 29 95 AA AA AA AA 55 AD 52 55 AA 56 59 55 5B 55
DPCM : 29 55 A9 2A AD AA AA 56 6D 55 A5 4A 55 55 69 A5 55 6D 35 A5 54 95 AA 54 55 D5 56 B5 AC 52 2D 55
DPCM : 95 96 B2 55 B5 5A 65 95 54 25 A5 AA AD B5 55 AB 52 49 25 55 55 5B B5 95 29 55 A9 44 55 6D 57 5B
DPCM : 55 95 35 55 4A A5 AA 5A B2 4A 5B AD A5 4A D5 AA 55 52 53 2D 55 52 AA AA 4A 55 BB ED AD 2A 49 49
DPCM : 91 92 EC BA 6D 57 AA AA 2A 49 91 D4 DA 56 6D D5 2A A5 14 B5 54 A5 A8 AD DB 2D 2D 54 95 AA 52 6B
DPCM : B5 9B AA A4 54 55 2A 55 DB 6E 2D 91 52 49 A1 94 7E DB AD 54 A5 AA 54 44 A9 B5 5B D5 52 5B 55 AB
DPCM : AA 5A 55 52 92 52 95 A5 AA DA 56 AD 52 55 55 A9 52 AD 5A AD AA 2A B5 52 55 55 55 55 A5 9A 6A 55
DPCM : 5D B5 5A 95 52 52 92 4A D5 AA B6 B5 5A 49 55 55 55 CA 4A 35 6B 55 A7 B6 55 95 24 49 A9 D4 9A 75
DPCM : B5 6E A5 22 55 B5 AA 55 AA 44 12 D2 AA BD D7 DE 2A 55 91 4A C9 AC AA 55 75 93 36 99 4A 55 55 25
DPCM : 29 D9 56 B7 DA AE AA 22 24 22 B5 A6 6E 75 DD 56 9B 50 89 54 D2 B2 6D DD 36 69 A2 AA 34 55 15 B5
DPCM : A5 2D 55 95 A4 92 6D 75 2B 6B 53 5D 50 15 55 AB B4 AA D5 AD 56 49 49 55 A9 AA 6A 55 5B B5 44 15
DPCM : A8 52 B5 76 D7 AE D4 92 56 25 55 51 57 55 4B 55 B2 55 5D D3 2A 55 D2 92 56 D1 25 AD 52 2D B5 92
DPCM : 2A B5 57 DB AA AA 85 54 A8 EA 56 5D 6B CB 4A 94 14 5A C9 5B 75 95 54 85 56 54 95 76 5B 5B 49 4B
DPCM : 55 55 A9 55 75 55 55 55 55 4B 95 54 AA 95 B6 AA 4A 95 94 22 55 55 DB 6A 7F F7 09 12 54 AA 55 B5
DPCM : D6 AA 44 22 52 BB 5B AB DA 56 2D A4 20 4B DD 55 55 6A 59 55 45 DA F5 6D 02 29 F1 AD 2A 15 6D AD
DPCM : AA 08 D5 D6 B5 52 55 BD AB 12 51 6A 55 53 54 D2 5A 55 AD 76 AB 96 90 92 5A 6A 55 6D 55 AD 52 6D
DPCM : BB 56 A4 44 5D 52 02 98 B5 FF CE 16 A9 54 A2 44 7D 7F 37 42 49 6D A9 44 44 AB 5F 7B 4B 6A 21 13
DPCM : A9 D9 55 55 94 72 D7 3A A2 42 B5 BD B5 AB AC 15 42 21 55 5B 52 25 FB D6 BB 54 21 21 AB 6E 55 55
DPCM : 55 55 B7 B5 25 05 25 49 B6 A9 5B D9 6A 57 49 24 91 94 58 FB 7B 5F A5 2A 34 91 9A 74 55 B5 DA 6A
DPCM : 92 45 68 51 5F D5 AA 59 2B 51 04 24 DA DA FF FF 55 85 04 52 50 52 75 EF 77 AD 02 2A A1 4A 6A DF
DPCM : DA 05 95 D4 56 1B B5 94 B2 45 5D C0 AA F6 67 5F AC 42 49 55 55 55 A7 96 24 B1 7A AD 8B BA AA A2
DPCM : 04 5A 48 97 FA 5B BB 4A 95 B4 AD 6D 08 05 74 55 AD 75 BF 7B 4A 22 10 11 6C E5 D7 76 AB 44 81 94
DPCM : 6A FD F5 6D 22 49 55 59 A5 B5 B7 56 52 44 05 B4 6A AF D6 6A DB 44 15 5A 51 2B 6A 51 95 5E F2 53
DPCM : 5F BA 42 0D B5 C9 54 82 36 D5 57 FD AA 27 2A 89 54 48 49 69 2B 77 6B 57 55 49 29 B5 DA AA 44 95
DPCM : FA 9F 5E 00 8A 7A 57 7B 81 15 A5 2A 54 D5 B7 76 90 52 F4 15 5A 80 5B FF 5F 35 84 56 B5 2B 6A 21
DPCM : 55 21 5D D5 AD 54 55 55 ED 92 0A 50 D0 B7 F6 4B BF D4 8A 24 AD AA 2A A1 52 DB D5 56 B5 B2 54 B5
DPCM : 48 05 34 B1 7F F5 41 15 72 AB 5D 75 53 95 48 40 C9 BE 6D 6D D5 5B DA 80 12 68 E9 5E AD 2A 2B 6D
DPCM : D2 56 2D 29 A1 92 BA 6A 4B 56 D5 FD 66 09 20 A9 6E 5D D5 6D AB 15 AC A4 B6 A2 16 68 89 AA 4A 52
DPCM : F5 DF 7F 97 00 04 E8 A9 BE 74 55 57 3B A9 55 4D 95 C8 54 55 25 09 AA DA DF AD 48 11 FA 6A 9B AA
DPCM : 4A A5 4A 6D D5 DD 56 95 90 2A 55 04 22 F7 FF BF 2E 00 00 0A 7B 65 7B F5 B7 6E 92 05 5A 44 35 AA
DPCM : B7 B4 24 82 6E FD A7 56 A8 72 AD 56 22 29 A8 6A 6B 57 B5 F2 52 1F D1 84 14 A4 A2 BF FE D3 15 42
DPCM : 2A 7A 55 95 5A F5 DA A2 4A 55 95 94 2A DA 82 0E 7A F3 AF AE 40 91 54 57 6D D5 A9 17 5A 52 55 2F
DPCM : 6D 55 55 4B A8 00 0A F9 EA 96 BE 6A 9F AA 4B AA 10 4A 6D 76 BD EA 0A A9 52 55 25 DC D4 B7 54 45
DPCM : 49 56 64 55 FA 6B 57 48 A4 B5 9D 2A 69 F5 DA 0B B4 00 1B D0 97 DE 5A AB 1F E8 41 37 52 4A 68 5B
DPCM : DB A5 9D B0 45 F5 44 2B 51 2B 65 5B 29 55 C0 AF FC AB D6 46 5C A0 95 5C 6D 75 A3 8A 94 2A D1 09
DPCM : FD 6C 27 95 52 CA 56 DD 56 55 49 2D A5 55 F5 46 D5 42 6F 28 53 5A 55 05 91 D2 B6 DF BD 5D A8 08
DPCM : 09 A4 E4 EF 5F 5B 25 12 09 5A D5 57 FF 6E 05 40 00 49 BB FE D6 6D 95 4A 21 55 DA DD B4 AA 6A 15
DPCM : 54 C0 87 5F B1 CA AC 6A 65 A5 4D F5 52 85 5A F5 97 0A A4 24 BB D8 55 57 6D 92 0A A8 B0 76 DB B5
DPCM : DB 6A 02 25 4A AB 6E BD 95 2A 52 95 AC D2 2D 6D A5 5E 25 51 C1 0E D9 C0 57 6F 55 6B 25 55 D1 D5
DPCM : B2 CB 6E CA 40 2C 51 AB 72 6F B7 54 42 05 D8 B4 DF 57 6D 89 0A 01 15 ED EA 57 BF 5A 60 11 B6 C0
DPCM : 5F FC 49 AD B4 52 45 55 5A D4 A2 57 AD BA 4A 25 91 2C 55 A1 A7 FE 7B 6B 09 14 40 2B BB 55 DD DB
DPCM : 97 84 14 BA B0 4B 76 AD 29 49 04 52 6B 7F D5 96 54 21 AB BA D6 52 BB 6A 0B 51 45 6D 69 6F 65 13
DPCM : 5A 54 91 13 DF 52 A9 C4 5B 55 C5 8A 2A A5 5A B7 7D 6B 13 49 D2 94 12 D4 F7 FF D5 01 13 50 01 2A
DPCM : D2 FF F5 16 44 4B 76 41 4B 7D 5B 5B 50 25 C9 57 D9 A3 BE AA 1A 41 49 4B 77 72 A5 54 4B 95 22 6A
DPCM : 2B B5 54 BB 9D 5A 49 54 85 FA F0 2F 7F D5 24 09 54 84 74 EB FF EA 03 08 00 89 EA EB DF F7 AA 00
DPCM : 25 94 2A E8 EA BF BF B2 10 9A D2 AD B2 AA B0 95 BA 42 15 72 CA DA 41 B7 D8 55 B0 C2 BE F6 91 16
DPCM : 72 55 DD 90 2A EC DF 5D 12 A9 B0 92 52 35 75 55 2B 55 95 4A 8A A4 7D DB AB B2 12 45 20 D5 FE FD
DPCM : FD 4A 0B 05 24 80 4A 7F DB 97 6C 42 99 44 57 B6 92 2E DD 64 4D 56 55 4B 55 D0 92 BF 6D 15 55 B6
DPCM : AA A4 52 5D FC C2 0B 30 C0 AB 56 7D 69 8F 5C 52 42 AD 5E AD 24 59 5B AF E4 16 7E A4 0B 54 50 65
DPCM : AF 36 F5 E1 2B 50 49 74 0B B7 D0 23 B7 6A 4D 55 A5 5A 55 6D D5 4B B6 34 E4 80 4E 7C E2 4D FD C0
DPCM : 05 2A 6C D5 AE 75 AB 54 45 4A A9 56 8B 7A D5 7B 49 05 55 55 6A 55 55 D5 46 6D 48 2B 75 41 05 BA
DPCM : EA 6A A7 5A 66 35 FB 82 0B 2A 5D 55 4F 35 2A 55 4D 55 A9 D4 4B 55 AD D4 45 56 59 B2 55 D9 45 56
DPCM : 88 1D 72 3B 75 53 D5 BF AD 09 40 15 59 A4 A8 5B FF AF 0E 10 51 49 53 5A FD DD A4 10 4A 6A 57 77
DPCM : D5 5E 52 12 41 5A E9 57 FD A9 05 49 B4 D6 4A 8D A8 93 76 A6 56 D5 AB 16 40 A4 B5 4F 59 F5 3F 5F
DPCM : 00 00 AC C9 9F EC C4 0F B5 C8 D6 AD 4A 49 B5 D2 26 74 C0 4D DD A4 92 B6 F7 6D A5 AD 25 24 00 0A
DPCM : FD 77 3F 95 C9 16 55 80 2A F9 57 FD 43 2B 60 02 4A 9A FD DB 5F B5 92 12 49 2A 59 B5 75 B5 05 B5
DPCM : A8 55 4D 9D 54 89 AC 68 6B 5B 17 B5 40 1F F4 A5 7D 5D B7 14 04 81 B4 D2 6D 75 DB A6 12 55 69 51
DPCM : 55 95 CA A4 2B 5D 55 55 C9 4A 2D A9 AB FE FA 4B 12 04 50 81 37 AF 7A 65 4F 56 64 55 D5 13 5D B4
DPCM : 52 55 C9 2A AC 54 5B 91 96 FC D3 9F 12 2A E0 06 BA A4 6D DB 5B 89 2A 91 25 D0 46 7D 6A 57 75 49
DPCM : 2D A5 45 DA D8 55 6F DD 05 49 40 47 3D B9 65 53 3F 5A 23 91 26 F4 42 AE 76 D5 13 2C 48 95 6E 7B
DPCM : B5 BF FA 22 04 00 54 A9 5F DD A3 2A 49 29 75 57 7F 61 03 49 4C F4 D9 AD 95 BA D0 06 A2 4E FF D5
DPCM : 22 4A D4 42 77 55 7F 7A 05 48 A0 D5 6E AA 5A D5 16 A9 90 2D DB 8D 2A A1 AD 56 D5 A9 3F 11 01 A0
DPCM : 57 DF B6 DA 2F AD 02 50 A0 BA D2 9B D5 25 16 C0 92 F2 C5 5F F9 5B 53 90 02 09 56 E1 EB FD 7B A0
DPCM : 00 4D DA 48 D5 2A 7D 55 44 05 7A 60 4B 6E FA 56 9B 44 AD F1 8A 54 50 AB 7A CB 2E 5A A5 42 15 78
DPCM : D0 9B 5C 55 55 53 4A 52 B5 5E D5 16 75 C9 AD 14 95 B2 24 45 88 AB 9F 5D 69 B5 D2 26 10 A0 A6 BD
DPCM : D4 14 DC 81 27 E0 2D 7F D3 05 3A 19 CB 02 0A E0 7F EF 5D 72 82 44 44 95 BA 24 5F FD AB 42 20 88
DPCM : 9D EC A9 76 2A 12 4A EA 5A 3F B1 11 71 51 07 56 F0 95 5D D1 4A 2C A5 0A BA E4 55 58 55 D3 B2 42
DPCM : 45 EC C4 57 D5 2E 51 13 78 45 FD C5 44 50 55 55 51 A3 CC 56 93 54 52 55 68 02 35 F5 85 0E 9A 51
DPCM : 55
DPCMDEF  25  2209 "F#DA3"
DPCM : 21 D5 BA B5 5A A5 52 55 D5 AA 52 49 A5 5A B5 D5 B6 4A A9 54 55 55 25 65 76 DD 2A 49 24 D9 B6 6D
DPCM : 2B 49 A9 55 5B A5 54 96 54 55 6D AD 2D 29 95 A5 AA 5A 56 A9 55 D5 AB 4A 44 AA 6E AD 52 95 65 55
DPCM : AD EC A2 24 A5 55 6B 55 B5 A6 52 6A 55 AB 52 55 6B 55 52 49 52 55 DB AD 5A 52 55 B5 B6 A6 A4 94
DPCM : 4A AA 6C 75 AB 16 55 D5 AA 4A 55 2A 2D B5 55 AB 2A 55 AB 2D 95 54 54 A9 56 AE DA 6A 93 AA D4 AA
DPCM : 4A 49 52 AD 5D 7B 2B 25 94 AA 56 55 A9 92 B6 5A 2D AD D2 52 55 55 B5 52 55 55 AB 54 A9 56 15 55
DPCM : D9 55 AB 52 AB 4A 29 69 57 5B D5 54 25 55 55 A9 A2 CA 56 6D D5 D6 AA 92 54 55 AA 6A AD 95 94 B2
DPCM : 55 17 53 29 59 A5 57 DD AA 1A 4A 25 4B 55 B5 AC D5 6A AB 96 44 91 AA 5D 55 49 B5 56 D5 D6 5A 42
DPCM : 22 B5 5D AB 56 5B 4A 24 AA AA 96 6A 5B BB 55 29 52 A9 56 55 55 56 65 A5 56 B5 95 52 2A 4D 29 ED
DPCM : FD 5B 21 88 A4 4A AA FA 75 5B D2 92 16 95 AC D5 52 2A 6A 5B B5 64 55 5D 25 55 5A B5 4A AB 6C 49
DPCM : 45 A5 5A A9 D5 76 B7 4A 48 52 B5 B5 AA 52 55 55 25 B5 5A 95 A4 DB BD 12 91 5A AD 52 55 5B 09 80
DPCM : FA FF 35 49 9A 52 11 EF FD 0A 10 D2 DA 94 52 DB D5 2D 6D 95 44 44 DA DB 6E 91 92 94 B4 B6 DD 1B
DPCM : 41 20 6D DF 5E D5 44 92 94 5A D5 24 75 F7 6D 95 40 12 B9 FD EA 85 44 20 A4 EE FF AD 12 49 A4 D6
DPCM : EE DF 04 04 54 53 4B D5 6E BB B2 29 4A 11 D9 75 AF 36 A2 52 52 55 5B 75 57 48 04 B5 DF 6B 95 54
DPCM : 45 26 B2 6A 52 3B F7 5B 15 50 55 2D 55 A5 55 A6 94 0A D5 F6 FB 2D 25 50 45 BA D6 AE AA A4 52 82
DPCM : 48 FD 7F 3B 81 82 2A BA DB 6D 1B 55 12 51 90 ED F7 5D 24 42 92 DA B6 B5 6B 8B 24 40 B4 EB 7F 77
DPCM : 49 40 44 DD BD A6 44 15 91 48 BD 7D 2F DD A2 9A 54 51 49 56 DB DA 12 55 52 C9 BA BD 13 22 C8 A5
DPCM : 57 FB F6 8B 00 A1 54 9B 76 F5 2D 2A 24 A1 BA F5 4D 9A 54 85 A8 F4 FF AD 02 2A 55 24 FA F6 97 40
DPCM : 22 A5 52 B5 77 7F 55 22 49 15 B5 B4 AD 56 94 A8 EA 6D B5 8A 2E 54 80 91 FB D7 4F 57 54 42 A4 E9
DPCM : AD 96 4A AD 2C 25 D2 D6 9B 94 50 B7 56 A9 D5 77 4D 44 54 15 A1 6A FF 56 42 A8 DA 26 D2 EA 7F 0D
DPCM : 28 55 89 42 FB F5 0B AC 34 17 55 6A B7 45 04 45 54 FD FE AD B4 4A 05 A8 54 5F F5 B6 4B 00 80 F6
DPCM : FE 92 4A 5B 53 B1 DA 57 2D 45 52 A9 05 1D 7D 55 15 DD BB 0A 00 F4 FB 5F AA A0 02 08 DD FF 5F 25
DPCM : 49 49 AA B2 4B 2F 54 40 FA BA 15 5B F5 6B 41 14 B4 D1 AE FD 2F 01 00 91 6F 7F 53 45 45 96 7A F7
DPCM : 2B 01 04 FB D5 12 55 B7 4A B4 FD 47 00 A0 FC D7 57 5B 40 00 F8 FF 7F 0B 40 D0 AA 5D 5D A9 4A 51
DPCM : 51 6D 5D DD 64 CB 14 55 A1 95 9A 6D FF 85 00 80 FE FF 64 11 AA 90 7A F7 0F 0A 68 DD 2A 21 7E D9
DPCM : 43 55 F7 87 40 40 D5 F6 AA F5 43 0A 60 7F FF A3 00 A2 92 AE D8 B7 B6 50 55 6D 40 4B FD 5F 0D 40
DPCM : 5A F4 A2 57 BD 05 55 4A B5 6A AB AB 42 14 B8 FB 6F 8C 50 AA 95 96 B8 2A DD D4 95 5D 49 2A 15 49
DPCM : 32 FA D7 8F 8A 54 F6 D1 8A BA 60 02 A4 FF FE B2 92 24 09 A9 FE AB 07 2C 55 E1 C0 7B F7 15 44 92
DPCM : 96 BA F4 95 17 61 85 6A BA D5 BF 2B 00 00 D6 FA 57 37 74 A9 8B 4A 55 55 A9 55 56 45 AA 76 DB BA
DPCM : D0 8B 0A 00 6A FB 77 F5 55 02 41 E4 5F BF 24 55 49 09 51 7F 77 55 4A 25 21 50 FB FF 95 08 54 A9
DPCM : CA FE FE 07 14 80 50 52 57 FF D7 40 D4 DA 37 6C 81 47 AC 22 5F B8 49 F7 FA C1 40 06 5E E8 AB 55
DPCM : 9B 15 35 E0 CB FD 05 0A E9 55 4B 75 B5 48 C0 5F BF 00 40 FD 9F 54 F4 6F 09 80 FE DF 44 50 55 01
DPCM : 04 FF FF 17 40 5D FD 06 29 15 59 A9 57 55 65 55 6D A9 2B 1B 48 51 57 A5 AA FF 3B 00 00 FF BF 10
DPCM : 69 BD 42 91 DE 35 04 6D FF 03 00 F0 FF 17 54 75 1F 11 55 ED 93 48 CA 15 10 F0 FF 7F 49 A2 B7 56
DPCM : 00 10 FC DD D6 0A 55 A8 6D 7F 55 01 40 F2 AD 97 DC ED 1B 40 40 FD 6D 99 A2 5D 4C 55 55 55 81 D5
DPCM : FF 17 00 00 FF 77 51 B7 D6 04 A4 FD B7 08 94 56 01 00 FE FF 7F 8A EA 2D 00 88 7E 57 55 F6 A5 02
DPCM : E0 BD FF 00 04 A8 56 7D ED BF 36 00 25 B2 D2 6E 5D AF A0 04 5E DD A2 A6 EE 5E 10 20 F4 EB 2B F6
DPCM : F4 02 42 FD FF 12 80 6A 05 00 D8 FF FF AB E8 45 02 8A 7E 77 80 D1 3F 35 80 AF FF 12 40 E0 C5 56
DPCM : 5F BF 69 00 25 B2 52 7D EF 55 02 28 E4 77 1D 6D 52 27 2D 69 A1 5D B4 C5 2D AD 30 57 FF 59 91 08
DPCM : 05 00 45 FF FF FF 42 49 00 4D FD BD 40 90 EA 93 97 FE 5D 09 00 F0 A9 2B FD FA 0F 18 A8 52 91 FA
DPCM : ED 1F 14 A0 C8 37 FA DA 55 05 25 69 75 D6 4A 15 56 E9 95 BD DC 55 4A 22 51 04 8A FC FF 7F D1 85
DPCM : 0A 10 F1 37 37 51 44 6B E5 B6 6F 4E 40 88 AD D4 AE BD 4B 2A 54 25 B5 D2 55 77 A1 92 06 AD 76 75
DPCM : 93 15 4A 4B 6A A9 95 AC E8 A5 2D D5 BA 5B 48 C1 4D 2C 80 E9 FF 7E E2 4A 2C 84 56 FD 50 05 B7 4D
DPCM : 55 E8 B5 B7 08 A2 E8 A7 AE 6A 95 54 55 95 85 1E DD DA A3 42 44 74 77 2B 93 F6 BE 12 00 8D 7E 69
DPCM : 45 57 4C 6A FB DF 04 10 DE 54 01 A8 FE FF 17 64 11 55 B0 EC A6 2B 6D 59 49 28 D9 7F BD 00 20 E9
DPCM : DF 76 42 57 7C 21 D1 C4 2B 5D 77 2D 84 00 D7 7D 55 6F BB 0B 40 80 ED DB 2A 45 D2 6A B7 5E AB 50
DPCM : 54 A5 55 0A 38 F3 BF 37 A2 A8 24 41 EA DF 5F 91 90 49 75 55 BB 85 14 60 7D DB 45 AB AD 1B 49 24
DPCM : 59 A5 6A 6B DD 42 12 5A 7F 7B CA 85 0A 01 D5 DF 0F 15 50 D9 D5 96 FD 7A 01 90 6E BD A0 42 DB 9D
DPCM : 94 55 F5 01 AA FC 57 09 22 6B 5F AD D2 55 05 00 E8 FF B7 95 AA 6A 15 54 55 37 40 A0 B7 DF 94 AA
DPCM : FE AF 00 24 5B 25 82 FE EF 0D 80 EC B4 01 DD FF 1B 80 6A 9F 0A 60 F5 4F 0B 50 7E A9 A5 FE 9B 00
DPCM : 01 6B 9F 5A F5 DF 0A 00 00 B5 EF 5F 3F D9 21 45 A4 96 72 91 16 5A 34 EA FF FF 07 00 C0 45 03 FE
DPCM : FF 2B 00 95 3E 41 D1 FF 17 90 F4 FF 00 00 6D FF 24 81 5E B5 A4 F7 6F 02 90 F4 92 AB B5 BF 25 00
DPCM : 90 E2 4D 7F BB 8B DE 4A 22 A4 4A D2 96 54 52 ED DF 7F 92 00 55 15 09 F6 B7 4F 94 B2 54 42 89 FF
DPCM : 5A 45 DC 77 12 40 7D BB 12 81 7C E9 55 ED 4E 22 A0 DB BD A4 52 5B 37 41 18 A2 95 F6 F6 DF 56 85
DPCM : 48 54 91 59 D5 0A 54 E6 FF AF 05 52 60 8B BA 55 2D 55 55 DF 4A 00 A4 B5 5F B5 75 2B 41 50 7D AF
DPCM : 85 A4 CA AA 54 73 B7 06 50 D5 FF 29 84 D5 56 15 89 4A 51 A2 FF FF AF 00 48 55 54 62 B7 55 48 D5
DPCM : 7F 2D 42 6A 55 A5 54 B7 56 51 B5 BE 05 41 A0 EA D6 DE DF 07 00 A1 F5 55 55 55 B5 45 15 5A 55 25
DPCM : 2B 5D AD 25 2B 75 55 51 05 2F B2 20 DB FF FF 02 40 5A C0 05 FF DD 02 B5 FE 94 00 6C FF 09 10 F6
DPCM : FF 0B 54 F5 01 01 B8 F7 15 F8 FE 3D 00 80 EA 4F 4A D4 EF BA 40 2B B5 A4 52 57 5B 68 81 7F FE 01
DPCM : 08 E8 2B 36 B1 FF FF 00 48 5A 15 50 FB FD 10 41 FF 5B 00 60 FF 1B 40 D4 7F 2F C8 DC 56 00 00 FD
DPCM : 9F 55 FA 7D 11 00 E0 FF AE 10 ED AE 45 60 D5 AD 45 A9 75 0D 11 FA FF 85 00 D0 AE 2A C4 FF FF 08
DPCM : 40 A5 12 2A 7F 7D 03 49 F6 5E 41 92 7C 55 85 A4 77 7D 35 54 35 01 49 E8 7B 53 93 76 FA 00 05 FD
DPCM : DD 42 15 AF 4D 90 BA FD 40 0A FD 97 04 6A F7 4B 80 D4 B6 11 74 EF 7B 28 64 55 12 50 FB AF 0B 50
DPCM : D8 5B 6B AB 45 11 50 F5 DD DA D6 50 45 55 75 A9 4A 4A 59 7C D5 2B 84 CC 77 6D A1 1A 29 A2 ED 3F
DPCM : 17 80 F2 55 4B D5 7E 02 01 6C FF A5 A0 D6 93 94 F6 6E 02 40 FB 7F 01 05 B5 9A BA FD 97 00 00 DE
DPCM : FB DB 1A 14 40 A2 FD DF 22 02 68 AA BF A6 94 A2 5E D5 CD 16 09 40 B6 FF AB 80 94 0C A9 FF FF 00
DPCM : 00 C0 FD AF 0A 3D 54 50 FB BF 02 08 F5 AF 42 A1 66 91 80 F6 FF 4B 00 02 BF DD 7B 4B 01 00 7B FF
DPCM : 1F 00 80 EA 57 1B D5 27 29 51 D5 7D 15 41 A2 0D 7D F5 17 41 40 EF FD 03 04 AC DF D2 49 36 24 8A
DPCM : DE 76 AB 95 56 50 02 EB F7 2B 04 A8 FA 57 4B 14 52 8B 6A AB 15 55 F5 FA 82 04 B0 A7 2E 50 EF FD
DPCM : 53 04 64 9A B6 74 1B 45 04 BD 7D 41 45 7D 55 11 A0 5F BF D4 42 56 44 45 DD B6 AC D5 2D 24 20 51
DPCM : 55
DPCMDEF  26  2209 "AF#D3"
DPCM : B4 B5 AA AA 52 52 B5 DD 56 09 45 D2 76 55 55 A9 AA 55 5B 95 52 55 AD 54 55 95 AA B4 D4 AA ED AE
DPCM : 48 90 B4 77 57 44 44 D9 5B 57 4A 25 6B 5D 55 52 A9 6A 55 2D 55 A9 5A A5 2A 5B 77 55 90 24 DB B5
DPCM : 55 52 49 D5 5A AB 2A 95 6A 35 4B 55 55 55 55 55 56 D5 52 54 D6 ED 52 52 2A AD 6C B5 2B 45 A5 5A
DPCM : 55 A5 AA 56 55 4A 5B 6D 55 A5 2A B3 54 95 22 A9 F6 DE A5 11 95 6C 6D 2B 49 A5 B4 A9 52 A5 D7 56
DPCM : 25 55 55 5B A5 52 92 6A 5B 6D 51 52 5D 77 5A 48 51 53 AB 54 D5 B5 5D 29 49 55 5D 2A 41 A2 DD 7B
DPCM : 6F 51 50 6A 75 25 25 AA D6 55 55 55 55 5D 29 A5 54 5B 55 55 B5 52 55 2D 55 92 AA 57 AD 32 B5 AA
DPCM : 54 52 5A 6B D5 6A 95 52 D5 52 95 24 D5 D5 56 AD 2D AD 24 55 25 55 B6 D5 94 92 5D 6F 29 49 A4 AA
DPCM : 6E 6D 55 6A A5 15 55 92 D2 AC 5D 55 D5 B6 AB 10 91 EC 55 55 49 AA EA F5 5B 05 04 A9 DD AD 54 55
DPCM : D7 2A 91 24 75 55 57 9B 4A 55 B5 56 54 55 55 59 55 2A 64 FB BE 09 91 52 59 D5 55 57 55 69 49 45
DPCM : A4 AA DF AB 09 55 D6 55 25 55 55 55 95 4A 49 AB 7E EB 22 94 AC 76 A9 94 AA B6 69 4A A2 54 DD 6D
DPCM : AB A8 54 55 55 2B 55 55 AD 4A 45 54 B7 AD 52 51 DD 5D 45 54 B2 55 AD AD 0A 00 E8 FF 7F 09 54 D5
DPCM : 52 69 6B 53 22 AB 5A C1 92 B7 AD 36 C5 AA 55 45 44 BA F7 57 81 04 A0 EE FF BF 00 00 75 5F 7B 29
DPCM : 49 53 5B 14 A1 DA 6D D5 56 25 55 55 55 A5 AD 3F 25 20 00 EA FE FF 07 10 D4 6D 6B BB 8A 20 CA 5E
DPCM : 14 51 7F BF 4A 15 52 4A D6 9A 5A 75 97 25 14 22 B5 7B 7F 09 04 E4 EF 5F 15 24 55 59 85 0A 95 FD
DPCM : FD B5 42 80 AA F7 92 94 6A DB 4A 84 80 F6 FF 3F 01 84 B6 BA A6 52 55 55 9D 14 40 F4 FF FF 01 00
DPCM : B8 F5 55 55 55 F7 9A 40 00 D9 FE 7F 09 84 B4 DB 97 24 55 FD AA 00 00 6C FF FF 4F 08 10 6D 77 15
DPCM : 55 6A 5B 11 A0 DA FF DB 0A 41 A2 B6 56 25 AD 6D 2F 28 21 A8 F6 FF 5F 00 00 BE 57 D5 D2 56 16 95
DPCM : 52 52 ED FD 56 02 41 D4 DB AF 2A 49 BB 1A 20 C0 FB DF 5B 22 94 CA 6A 57 27 4A 50 57 2D A1 EE FF
DPCM : 37 00 84 54 B4 D5 57 AB AA 95 94 9A 5A B5 EA 2A 11 48 FD 75 AB 64 45 15 52 AE DE D6 B6 58 50 89
DPCM : C8 BA BF 4A 92 F4 CA 52 A8 5B AF 15 49 95 88 B5 FE 2B 21 40 FB B5 12 AD FD 57 01 02 45 AA FE 6D
DPCM : 95 54 6D F3 02 A1 7A 5F 0B 84 80 F5 FF 3E 20 55 5D 52 49 64 D5 FF 3F 01 00 C0 FE 7F 12 64 DD 8B
DPCM : 52 56 6B D5 4A 15 09 C0 F5 FF 0B B0 75 57 44 A0 DA FE F7 02 02 00 E9 FF FF 02 84 76 D7 0B 54 F4
DPCM : 52 85 CA AA 56 DE BB 23 09 C5 92 17 98 F8 FF 7F 00 00 C0 FD FF 26 04 B0 7D FF 0E 02 90 F4 57 15
DPCM : C0 FB FF 08 D4 B5 10 44 BB 57 D5 F7 0B 00 00 FC FF 7F 00 01 DE 7F 2F 40 22 AA AD D7 4A B1 6D 7F
DPCM : 82 40 91 56 B5 E9 D5 5F 0D 02 60 FA 57 BF A4 02 40 FF FF 03 00 F8 D7 0A E8 C9 57 BD 7D 29 00 90
DPCM : FB 56 15 E8 DF AA 00 BA FD BF 04 00 24 FD AD FD 90 01 7D F7 0A 40 F0 FF B7 02 A8 C4 4D DA CA 2D
DPCM : 55 35 55 55 55 AD 2D 54 90 B4 BF 53 55 A5 13 51 E0 D5 D6 55 BD FA 0A 12 29 14 75 B3 57 55 6A 5B
DPCM : F5 43 12 A1 17 17 88 F4 FF 4F 05 4A 14 B2 FB 1F 14 C1 D7 8D 02 95 5E FF 2A 05 15 F2 4A 2F B5 52
DPCM : C9 DC 54 43 D7 BF 94 00 00 AD F7 FF 4B 05 99 58 D8 E2 95 96 F5 54 20 64 F7 F7 45 5E A0 40 D4 DD
DPCM : D5 26 BD A8 04 85 7F FD 8B 10 49 12 55 FD DD 55 AB 15 12 00 56 FF EF 82 44 57 5A 65 57 5F 48 81
DPCM : 2A 64 6B DF BF 08 00 BF FD 82 05 AF 5C A9 44 82 AA F7 3F 2F 4A 92 70 45 4D AA DE D5 02 03 7F FD
DPCM : AB 00 80 5D 5F 69 ED 9E 04 6C FB 02 00 F4 FF 12 E8 FF 1F 00 C0 DF 8F 48 95 12 54 ED FF 55 80 F0
DPCM : F6 2F 80 A4 B7 2A 62 A5 95 DA F6 4A 6A EB 03 11 34 4B 29 FF FF 01 00 F0 FF 07 20 DD 55 55 D5 96
DPCM : 14 FC F6 0F 00 00 FE FF 03 D0 F7 57 10 59 D5 A4 D6 2E 00 40 FF FF 8F 80 5C BF 0B 00 80 FF FF 0D
DPCM : 50 40 AD FF BF 04 00 CA 7F 54 92 5E FF 22 00 60 FF 77 0D B4 A1 25 6E B7 00 AC FE FF 03 00 80 FF
DPCM : 4F 5A D4 A9 64 D5 5F 23 40 D5 55 00 C0 FF FF 0F 48 5F 05 41 AC F2 EA ED 1F 09 00 F4 FF 7F 00 00
DPCM : FC 57 93 DE 7C 21 45 8A 40 FE FF ED 00 04 F0 FB 0F 09 F8 FF 0F 00 00 7C FF F2 8B 02 D0 FA FF 0F
DPCM : 00 50 BF 10 00 FA FF FF 03 26 12 A4 EE 6F 02 A0 FF 2F 01 B0 FE 7F 41 00 05 BD 7D FD A3 05 A8 D4
DPCM : 1A D2 F6 EF 05 00 A0 F7 FF B6 05 24 5A 55 09 74 D5 5B 7E A9 00 F1 F7 5F 09 50 D4 80 52 EC FF BF
DPCM : 1E 01 04 D8 FD FF 02 00 A0 FF 2D E8 FE 5A 81 51 15 12 FA FE 2B C4 A2 56 95 2A 5D FD 52 10 10 FD
DPCM : D1 FF FB 0A 00 20 6D F1 57 0F 89 99 7D F4 62 9F 14 51 55 02 B0 F2 FF AF A5 8C A4 C8 11 BB B6 56
DPCM : 05 56 AA D6 F6 7B 01 80 EE D5 A4 D6 DA 50 55 2B 11 55 EF D7 06 45 2A E0 F6 55 9B BC 6E 24 44 55
DPCM : 95 6A 53 5D D8 DA FB 9A 01 12 EA 52 01 52 FF FF 0F 45 C2 24 68 F7 0B 12 FC FD 09 04 FA F5 25 11
DPCM : 42 B7 7F 6B 02 C5 2A 9B 96 2A AC F5 7F 13 00 80 FD 5F 55 A8 ED 1F 11 40 69 97 57 BA 12 A4 F4 FF
DPCM : 3F 00 80 77 13 82 D2 7F FF B2 02 24 82 EF 3E 2E B0 D1 2F 4A 90 ED FD 17 02 00 BE FF A9 94 D2 52
DPCM : AB 1E 14 D0 FA FF 42 00 50 FE FF 55 D0 69 03 05 54 BB 6B 6F 25 04 B4 FD 3F 15 44 4A 7D 1B 80 C0
DPCM : FF FF 09 22 85 94 DD 7D 25 49 59 55 A9 5A 75 77 09 04 C0 FF 2F 95 B4 AD 9A 69 91 04 94 7D B7 9A
DPCM : 48 D1 7A 7F 13 25 95 14 90 FE 7D A1 12 27 2D 5A BD 77 03 14 D9 B5 07 25 B2 5E 55 A5 D5 07 44 ED
DPCM : 7F 13 40 54 FB A9 55 AB 2A 40 A0 B7 DF B6 96 D2 23 45 5C B7 05 00 7A 7F 15 59 FA F7 4B 50 24 25
DPCM : 28 F4 FF 37 04 A0 6F 4B A0 FF 3F 01 C0 DD 54 A1 B7 3F 20 01 ED CB 56 E5 D7 4D 08 82 BB 55 55 FE
DPCM : 95 00 40 5F 5F F8 D9 53 87 95 90 A8 5D 2F 12 C9 22 05 FF FF 3F 00 A9 4D 40 E0 FE 5F 0B 10 F5 A3
DPCM : 15 FE BE 00 E0 FE 07 04 F8 F7 9F 00 40 D3 4A FF 6F 13 90 D5 4B 54 54 FD 76 02 00 BA 7F F5 8B 1A
DPCM : 58 DD 53 41 0A 3B F7 12 01 42 FE FF 3F 20 E8 B5 43 20 AD 69 6B F5 42 05 2E FD 7F 01 00 FE B7 42
DPCM : D0 FB DB 01 04 11 AD FE FF 02 04 7E FF 07 00 28 FB 37 51 20 F4 F5 6F 57 48 54 D5 AB 84 88 5F 7F
DPCM : 00 00 FC FF FF 48 00 D9 DA AF 08 01 E8 FE FF 03 00 F8 FF 85 90 D4 54 2D D7 DB 4A 94 95 44 00 AD
DPCM : FF 7F 01 54 F7 BF 00 20 DA D5 65 D5 14 02 FE FF 5F 00 40 BB D5 54 DA 69 03 22 7E DB 54 D5 97 16
DPCM : 52 DA 25 45 D0 DB BF 0A 44 B2 96 5D ED 55 04 D0 DB 7F 8C 54 B4 94 20 B5 AB 37 5D D5 A5 15 29 C9
DPCM : D2 16 9E F4 13 13 B0 FE 7F 22 10 65 17 5E F0 AF 0B 40 E9 4F 13 F0 FD 1F 02 50 BF 56 40 DB BF 08
DPCM : A0 F7 95 80 BE 7F 03 40 DE FD 48 54 76 52 05 78 F9 AB 4B B5 EA 01 05 FC 74 0F 55 55 35 A5 94 FA
DPCM : B7 05 40 E9 EF 82 6C ED 07 01 F8 5B 13 58 FF BF 00 00 FD D5 12 F2 D7 0F 02 E8 76 55 B1 F5 0A 09
DPCM : 78 FF 3F 02 C0 5E 55 00 D9 FB FF 46 A4 52 10 91 FF 1B 84 F8 FD 09 00 F6 FF 0B 10 C8 5E BB F5 92
DPCM : 09 41 B5 D7 14 E8 F6 FF 05 00 90 FE D5 52 55 5B 55 8B 14 2D 69 5D B3 12 28 FD FF 0F 00 60 7B 21
DPCM : C1 BB BF 6A 2B 15 40 D0 DF 97 00 68 FF 7F 00 81 DF AD 24 95 64 D0 DF FF 12 00 E0 EF 52 A5 6D 9E
DPCM : 34 29 81 E5 B7 17 14 D2 ED B3 2B 02 80 F5 9E 2D 01 B4 FF FF 11 00 40 95 DB FE 74 81 C4 5F 0D A0
DPCM : F5 2D 00 A0 FD BF 5B 68 04 B2 F8 6F 07 00 B1 DE 3F 04 00 B6 FA F6 AF 01 08 7C D7 AA F4 A2 12 98
DPCM : ED 7D AD 54 00 01 FF B6 25 15 75 55 6F 4E 02 00 AA FF FF 0A 10 68 7B F5 F5 0D 00 00 FF FF 44 F4
DPCM : 43 04 E8 FF 17 50 C0 37 55 EC B1 01 02 FA F7 7E 00 00 F4 BF 57 A9 42 80 FC F7 3F 40 50 8A 2C 7A
DPCM : 5B 67 55 84 84 FD F7 00 00 F4 F1 AD 5F 04 40 FA BF 03 00 D0 D9 1A 55 50 55 2D 05 42 77 E5 F2 04
DPCM : 00 A0 F6 7F 00 00 A0 B7 35 00 89 7A 0D 27 24 E8 CA EF 0B 00 01 6D 53 04 C0 F6 6F 09 00 D3 D4 AE
DPCM : 05
DPCMDEF  27  2209 "ECAcool"
DPCM : B5 A6 2A AD 4A 85 48 DA BD AD AA 5A 25 85 64 DD BB 35 91 94 AA AA AA D5 2A 55 A9 D5 5A 55 54 A5
DPCM : 55 55 25 AD 56 4A 5A B5 55 B5 A6 52 94 52 B5 DB AF 12 11 AD D5 AA AA AA 29 AD 6A A5 54 A6 B4 6A
DPCM : AD 56 6A AB 22 04 B5 77 6F 53 22 11 6B 2D A9 B4 5B 5B 52 95 AA AA 2A 65 6D BD 56 4B 25 24 48 FB
DPCM : DD 55 48 D2 5A AB 54 6A BB 4A 88 C8 6D B7 55 95 52 25 A9 DA 6D 8B 44 D9 D6 52 A5 AA 5A 55 55 6A
DPCM : BB 56 48 54 5B 4D D5 B6 16 22 A9 B6 B5 95 94 54 AB 45 65 FB 6D 09 49 49 53 5D BB 49 14 D5 6A 95
DPCM : 52 55 5D DB 92 52 B5 AD 24 A1 A4 DA DD BB 22 12 6B B5 52 4A 5B 5D 53 51 29 DB B6 09 41 54 DB 6D
DPCM : DB 96 24 B5 4A 91 EA D6 54 95 94 54 B7 BD 22 41 AA BB 56 EB AE 96 08 21 E9 DE AD A2 54 6B 45 25
DPCM : D5 AA 4A 6D FB 26 21 91 2A A9 B2 DF BF 45 00 40 EA FB BD DB 6A 02 12 A4 D5 6E BB 96 92 AA 5A 51
DPCM : 25 6D B5 6D 4B 0A 91 A4 4A 6B 5F 7B 2B 09 84 88 BD DF 6E B1 42 15 92 24 6D FB BF 5B 01 14 AD AA
DPCM : C8 DA DD BD 55 02 22 52 95 6A AD 76 EA D6 16 24 A9 BD 95 D2 AA AA AA 54 B2 AA 2D A5 52 55 53 B5
DPCM : 75 AB 8A AA A6 14 28 D1 BD BF 5B B5 B6 02 00 A0 EE 7D D7 BD 4A 09 24 A2 EC DA 96 F6 B7 02 80 EC
DPCM : 57 8A A4 B6 B7 36 51 58 DB 2B 4A A9 5D 45 90 BA DF 5B 2B 21 14 40 49 FB DB 57 76 DB 57 00 00 DE
DPCM : 5E 55 94 B6 B7 16 22 82 94 DA FE BD 95 24 69 55 55 84 AC 76 2B AD FA 6F 2B 00 81 AA EA DE BB AB
DPCM : 5A A9 42 08 22 79 5F 4F 94 55 FD A4 10 50 7B 7F 57 49 44 CA 6A D6 84 26 7A B7 5A 44 AB DE 5A 22
DPCM : A2 AC 5D 49 A5 6E D5 D6 DE 08 84 D4 6E 4B 22 B5 BB 55 01 92 FC 57 55 6A A9 54 A2 B7 55 09 54 FD
DPCM : B7 12 51 7B BF 10 22 DE 5E 21 C9 D6 F6 26 24 B5 56 11 B9 FD 0B 00 D9 FF 94 20 AA 7F B7 84 20 6A
DPCM : 6F 51 51 5E 55 42 7E 4B 05 F4 F7 17 48 C2 DA D6 25 A1 A2 FF B5 90 BA 2A 82 D8 AB 56 E8 D7 15 24
DPCM : 49 75 57 4D 01 54 FB AB A2 9A AE A0 D6 B7 55 52 FD 2D 89 00 9A F5 9F 44 A0 EF DD 8B 2A 09 15 72
DPCM : AF 4D 24 6C F7 AB 04 A9 B6 9F 40 80 F6 DF 0B 51 D2 2A 2A E9 AE D5 B6 5E 4D 80 00 FF FF 0B 40 E8
DPCM : 7F A7 00 20 DD AD B4 25 5D D5 5F 0A 80 D0 FD BF 12 40 A2 BB 15 0C FC 6F 27 49 A9 5D DD B6 A2 04
DPCM : 1B FA AE 16 04 29 FB 55 24 A4 7F 5D 42 54 DF 7F 95 26 40 A2 76 ED AB 40 00 76 7F 53 92 EE F7 02
DPCM : 00 F7 77 8B 24 D5 54 55 69 6D AF 84 54 ED 37 40 54 7F 25 01 F9 FD 4B 01 00 EC FF 3F 92 DA 12 00
DPCM : 00 ED 2F 7E ED 7F 55 01 05 FA 55 01 EA FF 7F 00 00 0B 15 F0 FF FF D7 04 00 D5 37 11 B3 FF 45 44
DPCM : 77 2F 40 80 F4 BD 2D 15 A1 F6 DA C2 FF FF 44 00 50 90 82 FE F7 BF 20 02 DD 3E 81 88 FE FF 07 00
DPCM : 8A BC 40 C4 EE FF F7 15 00 00 E8 DE 5F 5D 80 05 FE EF 4D AE 76 01 01 12 50 FF FF 02 B4 F7 5F 05
DPCM : 00 00 FD FF 7F 00 56 92 00 EE 6F B5 FD FF 03 00 00 78 FD 15 40 FD FF FF 00 80 5A 45 67 7D 88 56
DPCM : D5 13 75 5B 22 FB B5 00 80 FF 47 00 80 FF 5F 57 00 93 FE B3 A4 F2 35 00 20 ED 89 ED FF 3F 0C 40
DPCM : AA FE B7 00 00 FE FF 01 68 D7 12 A0 EA AE 7A 53 27 55 35 21 FB FE 03 00 F8 FF 1F 80 A0 88 48 5B
DPCM : FF FF FF 03 00 50 05 6E DD 6A 81 0E 6E 57 55 41 DF 3F 49 00 F6 56 2B 91 C9 76 6D 92 40 72 DF FB
DPCM : F7 0A 00 C0 D6 0A B8 FE FF 4F 00 80 64 FB 25 11 9B 2E CA FA BD 21 4A 7F 24 00 F0 BF FB 48 65 F5
DPCM : 1F 12 00 FB 5F 25 EA D7 2D 00 00 7D 74 A9 77 FF 6F 01 00 FD 35 00 D2 5F 55 B4 BF 5B 08 00 80 F5
DPCM : BF 22 FD FF 01 00 F8 EF 8B 96 6C C9 77 49 10 B5 24 00 FD 5F 13 D2 FE 05 05 AA 4D 77 05 00 F4 FF
DPCM : FF 01 58 C4 08 FE FB AB 4A B5 05 15 28 C9 FB FF 02 A0 FC 7B 05 44 E4 57 FF 8B 00 A8 D4 E5 FD 7E
DPCM : 80 00 AD 80 ED DF FF 55 05 00 80 FD FF 40 73 15 A5 AA 36 E0 A9 3F FD F4 BF 08 00 00 F0 FE FF 4B
DPCM : 01 40 A0 83 FF 9F 34 A0 25 94 84 EA 7F B2 82 FE FD 3F 21 00 A0 7F 2B 16 BD 6A 01 82 BD BE FB 55
DPCM : 40 81 7D DA D7 B5 00 22 FF 7F C2 51 2B 00 0B 70 CA FA 89 8E E0 FF 7E C0 41 2B 5A D5 07 4B F5 65
DPCM : 09 55 AB 7B BF AA 01 00 D0 BF 52 04 AD EA F7 05 00 F8 B7 0B DC 6A 07 54 95 6F D2 E6 7F 0B 05 80
DPCM : C0 FF 4B 00 B6 FF 13 89 74 D7 5B 4E 18 C0 F4 3F 1D D8 A9 D6 F7 1F 00 00 F0 7F B2 24 5D 54 9F 20
DPCM : 00 FF FF 3F 40 A4 92 5D 57 04 E8 FF 7F A5 15 2E 80 27 2F 00 F0 DF 4A 70 6B 55 AB 26 00 88 FE B6
DPCM : F5 37 0B 40 F6 8A A4 FF FF 1F 30 80 12 2C 00 25 F5 FF 77 C4 5E 09 91 76 95 00 FE FE 9F 12 81 75
DPCM : FC 01 00 F0 FF D1 82 9F 48 94 EC 75 05 FF F5 BF 48 00 90 F5 07 00 F0 FF FF 82 B6 55 9D 40 00 B4
DPCM : F7 9F 36 A9 02 08 DC 2B 01 E9 FF FF 47 40 00 FF D6 25 AD FE AD 02 0A A8 52 BF B4 04 C0 7E FD 52
DPCM : 15 A9 6C 5F 54 05 7E D5 93 AA 55 49 C9 2A 12 2E FD FF B7 00 00 00 FF F5 8D F8 F7 0F 28 E8 56 4B
DPCM : 10 C8 7E F7 0B AD 20 89 50 5B DB 5B 55 EC 96 0D 10 EA B4 03 5D EB FD 77 21 00 90 77 D9 56 7F 61
DPCM : 23 17 AA DC A2 12 A5 78 05 56 E5 2F AD 68 4B 53 5F 35 41 FB 4B 05 10 D4 00 A2 FD FF 7F BA 48 50
DPCM : 05 08 F8 EF FF 03 50 7D 25 44 AA 6E ED 76 49 2A 1A 41 E0 BF 3E 68 D5 BF 04 40 EB 57 2B 54 89 6E
DPCM : 56 5A FF FF 01 00 A0 35 00 E2 FF FF 1F 0C 78 C0 0A 40 BF FF 0F 44 EA 0B 00 C0 FF FF F2 4F 5D 01
DPCM : 00 80 DF 7F 91 A4 FF 3F 00 00 D8 3F 08 54 FD FF 87 0F 58 C4 D2 D5 7F 41 00 F8 FF 0F 00 3A D7 14
DPCM : A0 D8 FF FF 02 10 2A D9 76 ED D7 0B BC FE 51 00 00 F8 8B 0A F4 FF BF 44 00 B0 FA 7F C1 06 28 E2
DPCM : 7B B7 42 0A F3 0B 2A E0 FF FF 07 00 00 D7 BE A0 E5 F7 C5 05 9F 08 80 B2 7F 11 DD FF FF 01 00 00
DPCM : FC FF 3F 00 5C 4B 00 BA FF CB 8B 95 10 13 35 F5 BB 12 80 EF FF 07 00 E0 FF 2B F2 A6 03 00 00 F8
DPCM : FF FF EB 82 17 00 80 FF 3F 80 FC 57 07 04 2A E8 FB 86 52 FF 7F 00 80 3D D2 F0 FF 3E 80 00 81 FE
DPCM : DF 05 F4 F5 0F 00 00 FF BF F4 E9 85 7E 72 01 58 92 00 DB FF 37 90 5D 7D 04 A8 FA 8B 2E F4 C8 5B
DPCM : 7B 00 45 B2 C2 EE FF 3F 00 00 1A 01 28 FF FF F7 55 94 88 48 13 BC D5 DB 80 56 6A 01 50 FF FF 05
DPCM : 5E A9 02 8A 7C D5 FF 78 00 00 4A A0 FE FF FF 40 D2 11 00 C0 FE FF FF 3F 50 A8 02 00 F0 FF 5B ED
DPCM : FF 0B 00 00 F0 FF 5F 74 69 89 00 00 FD FF 43 91 35 11 75 FF 07 10 40 AF 7E 25 00 FD FF 3F 40 FB
DPCM : BD 00 00 C0 B6 FF FF 07 00 00 AC FF B7 0B D8 AB 0B 00 E8 DB 57 89 A4 6B 5F A5 04 08 A5 5D FF 55
DPCM : 2B F8 AA 4D 58 F1 FF 2F 00 00 F0 EF 7F 80 12 FD 44 15 DE A9 BE B6 04 01 70 D9 57 05 6C FB FF 47
DPCM : 00 00 D0 7F 07 F5 FF 57 08 00 49 FA FF FF 10 00 D0 6E FD 01 80 EC 7F 51 25 E4 AA 4E A5 6A B3 3F
DPCM : 84 80 54 C9 6E FF 07 00 00 DD FB DB FF 79 0B 00 81 FE BF 05 4A 36 11 B1 DE 95 04 D0 F5 7F FD 01
DPCM : 02 A0 8B BA FF FF 00 02 16 40 6A FF FF 43 04 A1 97 FE 04 49 B6 54 22 FB FF 0B 00 94 DA 55 FF 65
DPCM : 00 00 5A 2B FF 3F 00 40 75 8B F2 FE FF 1A 00 01 B8 FE 53 00 D2 BF 5B EF 1F 01 00 88 FF FD FF 9A
DPCM : 00 00 00 C8 FF FF 03 94 5E 95 A8 56 2B 55 55 15 F5 DF 07 00 C0 DB CA F6 5F 01 00 F8 DF 7F BB 00
DPCM : A8 50 0B F0 FF 7F 50 C0 44 22 EA B6 4A 37 AB 4A BD 15 04 00 B6 FE AF BF 0D 40 20 55 F4 5F 55 21
DPCM : 5F 49 02 BB F7 9F 29 01 A0 FC AF 4A 40 41 37 7D 65 9D 56 11 55 49 57 D5 4B 2A 21 2D FB FF AA 00
DPCM : 49 95 F0 93 7E C0 41 05 5C FF FB 2F 12 00 88 FF F7 06 90 16 74 45 25 DA FC 0E 05 52 F7 5A B5 41
DPCM : 20 E1 FF FF 07 02 00 D4 F7 0B F8 BA 1F 00 40 FF FE FF 45 00 80 54 17 5D 51 D6 F0 3F 2F 40 85 55
DPCM : 61 11 BD BF FD 00 00 B0 FD FF 3D 20 00 55 6D 4F 58 57 3D 00 49 55 77 DD 7A 80 24 3A AB 50 74 C1
DPCM : A6 7F 2D 40 55 00 08 B5 FF DD BC 00 01 D0 FF 5F 10 D5 74 C5 2D 15 89 5F 29 84 F8 57 5B 7C 3F 00
DPCM : 00
DPCMDEF  28  2193 "BGEcool"
DPCM : B4 55 55 55 B5 4A 55 25 65 6A 5B AB B5 AA 4A 4A 55 6D 55 49 A5 5A 55 25 49 75 5B B7 AA 52 AA AA
DPCM : 52 12 D5 6C AB 5A 6B 97 24 49 B5 55 2B 55 55 55 55 55 65 A5 56 5D 95 52 45 25 55 6B 5B A5 55 5D
DPCM : B5 44 4A B4 95 B5 5A 5B 95 48 55 DB 5D 55 49 55 55 49 55 D5 AA 25 55 55 4B 55 A4 AA AD 55 95 5A
DPCM : B7 95 90 50 B5 AD 55 55 55 95 92 D4 DD 5E 29 92 54 D5 AA 56 55 55 55 55 55 AD 95 52 A4 AA 5B 5D
DPCM : AB A4 2A 55 55 B5 5A 52 55 55 95 2A B5 AA 56 75 AB 56 54 49 55 55 55 D2 AA 56 A9 5A 55 29 55 95
DPCM : 24 55 6F B7 75 4B 12 08 B5 7D D5 AA B5 96 94 D4 EA AA 89 52 55 B5 9A AA AA 52 95 6A 6A 55 55 09
DPCM : A4 B4 F7 56 EB DA 2B 2A 48 55 A5 10 B5 EE 6D 77 35 45 90 20 95 F5 5D DD 44 A5 54 53 AB 5A 6B A5
DPCM : 24 A5 DA 55 55 6A BD 77 AB 4A 00 01 52 ED DA DB 7E 55 09 52 A9 96 C8 DA F6 6A 45 2A 52 29 B5 52
DPCM : 95 F5 ED 16 94 64 4B 2B 6D EB 4E 20 88 6E 6F 55 95 ED BB AD 00 04 51 DD DE 6E BB 29 02 A5 D5 25
DPCM : 01 D0 FA 7D 55 49 BA DF AE 44 49 52 52 59 B5 55 53 15 D5 EE 5A 10 84 FC DE 8B 14 AC 55 57 2A 45
DPCM : 2A 2A 6D 7B 57 9B 2A 91 A6 DC 95 4A 59 55 55 AA 6A D5 DA 4A 25 15 55 75 D5 4D A9 6A 5B 55 91 AE
DPCM : 44 11 6A 5B 6B AD 5A 45 96 A8 92 5A AA DA 6E D5 A6 54 13 14 69 EF 55 95 AA 6D DD B4 A8 A2 D2 4A
DPCM : 55 5A F5 56 25 25 D5 5A 15 09 E9 AA 9B 5A F5 D6 55 09 51 85 2E AA 54 EB 36 55 91 76 FD 2A 41 48
DPCM : 6B 57 32 54 6B B5 55 AD 2D 25 25 48 57 7E E9 46 5B BA D9 02 85 74 A5 AD 6C FB 55 0A 24 A5 A6 AD
DPCM : FD DE 52 01 14 6A D2 DD 56 43 AA 96 55 AA 5A 4B 49 A4 F5 D6 4A 45 55 4B 24 55 DF BD 55 25 54 42
DPCM : 6B DB 54 5B BF 05 80 50 4F AD 54 ED DD 55 89 54 D3 96 DA AC A5 0D 5A C8 52 D7 AA 04 B4 FE AB 88
DPCM : A8 7A 93 2A EA 77 4F 22 08 52 2B 2F 5B F5 AD 2A 10 81 7B B7 45 81 EE 5D 25 51 57 55 92 EC D5 76
DPCM : 53 A1 22 D6 66 57 95 5A 5A 45 14 A9 6A 73 A5 DD AE 15 5D 69 02 DA F5 17 39 B1 49 44 01 2E FD 77
DPCM : ED 45 04 49 BD F6 4A 94 48 A5 5E 77 8D 00 D0 7E 5F EF B5 02 04 A4 FD 55 AB 76 AD 05 54 6A 65 6D
DPCM : 5B 05 25 75 ED 6E A2 84 0A A8 FC FF 0F 00 00 56 FD F6 F5 5B D0 E6 7E 00 12 A8 99 77 B5 49 55 5A
DPCM : 55 A9 42 AD 77 27 5C 68 13 24 F6 FF 2B 00 D0 DB 2F AC 40 85 FE DD 4F AE 5E 24 00 E0 6F FF A1 A0
DPCM : 75 0B 00 40 FF FF D3 0B 2D 50 55 6C 01 52 B7 AA 89 7E 75 05 AE FD 3F 81 10 58 6B 57 DD 90 55 F6
DPCM : DF C4 00 11 2B D4 D4 FF F7 49 AD 02 00 A0 D2 FD D7 EE 04 21 85 FD 49 5D ED AE 28 90 49 55 BA D6
DPCM : FF 44 04 A8 A0 94 7C FD ED F5 09 95 6A 45 82 00 B8 FE 5F 75 BD 59 01 00 D9 FF 73 A3 AB 2F 09 08
DPCM : D4 FE FF 03 00 E0 5A 55 91 F5 FF 17 00 71 89 12 A0 AD FF 77 44 A1 CA 57 5D 00 B5 FD A5 12 5D D5
DPCM : 57 A2 8A 5D B5 82 94 5C E8 9F DD B5 74 25 01 40 95 7E 2A 79 DB 17 55 53 28 01 7D C1 5F FF 57 05
DPCM : A8 64 B7 AC 42 5D 52 02 B0 4B FF D6 BF 1F 08 00 40 F5 B2 BF 56 D4 DF 6B 02 04 22 1B FD FE DB 42
DPCM : 50 DB 1F 40 80 FE DD 13 6C C9 57 51 AB 54 D5 2D A5 00 97 92 00 DA FF FF 3F 00 00 F8 00 BD FF FF
DPCM : 0B 20 ED 17 4A 08 05 BD 7D 47 60 7D FF 03 00 F8 FF 03 45 F8 AB 00 A4 FF FF 07 00 50 A9 AA 95 6C
DPCM : F4 FF 3F 00 00 5F 22 A2 FF FF 12 44 AA 54 04 EC FF 4F 85 42 14 C8 BF FF 02 00 B0 DF 15 E1 DA 2D
DPCM : BD F7 57 A0 45 15 10 E0 EA BF 74 E9 FF 2F 00 00 E0 DE AA B6 B2 2D 7C 41 13 78 FD 82 02 FC A9 00
DPCM : D4 FE FF 0F 82 74 35 71 D3 0B 45 DA DF 90 12 D6 9A 44 BE FD A5 A0 AB 16 44 66 75 A9 A5 7F 2E 40
DPCM : B4 FD 23 00 D4 FB 07 95 C0 03 5F 7D B7 2A 50 B0 05 B5 FF 5F 40 A5 FF 2B 02 A4 F5 42 02 94 BF F8
DPCM : 55 2D 25 42 9D 7D DA EA 6A 03 B8 FA FF 85 80 1B 00 02 FF FF 8B 00 65 69 57 D6 54 45 F8 05 1E F4
DPCM : 5F 2D 94 B4 A9 15 58 F0 AF 2D 69 E7 4F 5C 01 4B 60 55 FA F4 A5 D5 2E E8 42 97 0A 08 FD F7 2F 69
DPCM : A2 12 51 DB 6D 53 41 89 80 D2 FF FD A5 2E 34 40 00 C8 7F FF 49 55 55 9B 94 55 2D 51 61 66 77 FF
DPCM : 0B 00 00 FB F7 42 56 6D 52 04 8A FA 7E 57 6B AD 7A 01 10 F4 EF 7E D2 4A 50 0D 01 80 FE FF 4B 4D
DPCM : 5A 04 00 BE F4 7F 1F D4 D4 5F 2D 01 15 5E F5 4A B2 95 BA 02 08 F5 FD AA E9 56 05 00 F0 E5 FF FF
DPCM : 47 22 40 B4 13 5C D0 7F BF 80 52 C5 4E A0 B4 F6 ED 4F 0D 41 20 B4 0B F8 FF FF 27 00 B0 45 49 D1
DPCM : FF BF 00 84 32 6F 55 A9 52 D7 6D 2A 02 09 BB 4F FA F2 FF 4A 80 52 8D 00 41 FD 2F 1D F4 EB 47 45
DPCM : 2A 55 E8 AA 56 2D 01 A0 E8 FF FF BF 32 00 12 14 B0 FC FF 6F B4 E8 17 40 80 EC 27 03 24 F5 7F 7F
DPCM : 81 0D B0 42 FF E9 A7 90 12 B4 B2 A5 96 EA B5 AF 03 20 D9 DD 49 DF B6 02 00 D0 DF 97 AA FD 6F 15
DPCM : 90 00 37 59 B5 D2 DB A2 54 AB 15 9B 02 01 BE FF 0F AC A4 B5 14 E9 FD 9F 00 50 C1 05 5B EF DA 87
DPCM : 3D E8 C4 A0 96 DE 52 B4 F0 93 5A DB 0D 04 F4 FF 3F 00 C4 55 5D 68 D5 4A 91 6D F5 0B 25 01 D2 45
DPCM : FF FF 07 00 D6 DA 04 D0 FF FF 50 01 90 88 EA AE EA E8 F7 27 17 B8 9B 10 00 EC FF BD 00 78 FB A1
DPCM : 4A F5 DA CF 16 00 00 FE 5F 02 DC FF 3F 00 40 DB 50 81 6E FF FF 01 00 E0 D3 2B BD B5 FF 40 01 00
DPCM : FE 1F 00 AD FF FF 01 54 7F 57 00 09 BA B6 55 41 57 ED 4B 6B AF 7F 05 00 00 F8 85 5A FD FF 7F 00
DPCM : 00 88 2A F5 B6 FB D6 0F 88 24 DD 52 05 53 7F B5 00 DA 97 29 48 B7 9F 74 54 55 D2 A4 7E EB 0A 55
DPCM : 74 11 42 9B BE 55 FD 9F 3D 41 80 04 05 BD 7D 75 95 EE 42 44 EA D6 57 B1 24 55 01 D5 7D 97 12 F0
DPCM : A4 B7 DD 95 00 00 FE FD 55 53 97 0B 6C 75 B7 42 45 5F 58 41 56 F4 55 AF DC 48 51 FF 5F 00 00 80
DPCM : 6F BF F6 09 85 A4 FF 7F 15 00 05 A9 A9 3F B5 A4 E4 55 17 B5 AA 25 02 06 7E F0 DF FF 97 00 A0 F2
DPCM : 4B 97 6A 14 80 F6 FF FF 90 02 04 92 FA 7F 1B A8 D4 4F 92 4A B5 02 B6 FA 5D 41 55 DF 16 50 6A A5
DPCM : 89 20 1F BC E0 FF F7 12 40 81 3D E8 D3 2F 52 D0 FF FF 81 1A 2A 00 40 FD 6F DF DA 16 40 80 AF FF
DPCM : C1 43 0F 58 80 FF 3F 09 C0 9E 5C A1 FF B6 04 44 56 D5 82 7E 55 05 54 F7 2F 51 69 7D 08 40 DF 6B
DPCM : 42 B6 37 1F ED FD 07 00 00 50 FB F2 FF AF 02 40 DD 6F 81 4A 5A A9 54 7F A8 84 DE 17 14 E8 FF 07
DPCM : 05 60 A9 53 D9 FB AF 04 A0 EA 95 52 25 0B 49 FB FF 25 01 F9 6A 12 F4 EB 47 50 D4 27 B1 A5 FD 25
DPCM : 11 2A B5 C2 D7 FD 16 40 D0 97 15 BA DA 25 21 D5 7F 2D 95 A8 36 A4 4A 55 81 AC FA 5F 4D 7A 81 06
DPCM : E0 A5 3F 60 F9 F7 BF 3E C8 02 00 03 FE FA 8B 2F 54 25 A9 54 6B F5 EE 82 00 A4 BE B7 F4 A1 27 11
DPCM : 4C FC EB 41 84 2A D7 7F 5E 40 45 47 1B D0 AC FF D4 45 55 0B 08 A2 FE BF 2F 50 A5 97 7A 40 12 D0
DPCM : 7F 7F 40 81 A2 BF FD 6F 1B 00 00 7D 7F 55 50 40 51 BF FB A9 41 5D BA 50 05 17 6D AA F7 56 11 C0
DPCM : AD 5E BB A0 42 D0 D5 7F 17 11 B4 FF EE 07 1D 00 32 7A AB 12 48 D7 57 5D E9 4D 10 91 B7 2E 11 50
DPCM : BD E9 0B 6D A0 8D DF FF 02 84 88 2A 74 FD B7 15 51 55 6B 95 00 AB BE B9 93 44 00 DD FE 97 47 5C
DPCM : 48 12 B2 5D 15 84 B6 7D 75 45 3B 64 D5 96 AE AA 54 22 A5 84 7D D9 49 52 7E D2 12 6E 55 25 C2 BE
DPCM : CA 96 E8 4F 2A 5A E0 05 5F 75 2B 60 91 DF ED 15 36 A9 42 25 DF 5A 41 A8 7A 49 23 98 D7 5A DA 90
DPCM : 15 F4 CF 13 08 B4 A9 17 50 FB 56 47 14 B5 AF 48 A0 AD D8 81 1F 98 C1 FF B5 00 90 56 12 21 FD B7
DPCM : 2D 90 A8 DB 4C C0 91 58 85 0A A8 82 FE F7 06 42 B4 B6 60 55 FF A0 00 CA BE FC 00 02 D0 8A 0F 7A
DPCM : 49 EA 63 26 01 A6 F8 00 2C BA F9 06 24 51 2B 20 25 D5 84 23 12 68 A9 A7 03 04 00 81 3F A9 6E CA
DPCM : 03 11 50 C4 40 86 00 41 A9 08 48 66 44 04 24 94 03 11 50 C4 40 86 00 41 A9 08 48 62 44 04 24 94
DPCM : 08 42 04 00 00 C8 0C 20 40 A5 10 80 00 02 60 85 01
DPCMDEF  29  2209 "AECcool"
DPCM : 53 92 6C B5 55 D5 AA 52 55 AA AA AA AA 55 B5 6A 4A 55 AA AA AA 56 D5 52 95 6A 55 B5 AA 55 55 52
DPCM : 4A 65 5B 55 AA B4 56 35 55 AA 56 55 55 55 55 AB AA 14 95 54 DB D6 AA 54 AA D6 56 25 95 D5 76 45
DPCM : 24 D2 DE 5D 45 52 5A 6B 45 41 6A DF AD 2A A9 6A 95 4A 49 A9 BA AA 95 AA 4C B5 B5 5A 49 55 55 1B
DPCM : 49 45 DD D6 16 55 AA 75 B5 92 96 AA AA 4A 45 AD 56 55 B2 5A 5D A9 54 4A 35 6D B5 2B 49 12 49 B5
DPCM : 56 7B DD AD 08 89 A4 B6 76 D5 56 5B AA A4 2A 55 55 A5 56 AD D5 96 2A 49 4A DB F7 B2 80 24 95 9A
DPCM : D4 B6 7D 53 82 90 6A DB AA CA B6 D6 48 24 69 D5 6A 6D 5D 55 52 55 4A 35 D9 D6 DF 0B 01 20 DD 5A
DPCM : 25 D9 5D 5F 29 94 D4 5A 55 A2 76 DD A6 44 45 95 6C 6B BD 95 12 49 69 D7 AE 6C 55 12 41 A6 FA F5
DPCM : DD AA 4A 94 44 92 54 AB B6 6A D5 B6 4A 4A 44 52 ED DE 6D 25 12 24 B5 7B 57 55 D4 54 89 A4 B5 D7
DPCM : B2 4A 55 55 A5 AA 54 5B BB 22 65 95 95 50 95 B6 75 FF 7E 02 02 A1 6C D7 96 24 6D BD 25 92 A8 96
DPCM : 75 D5 56 54 55 55 25 53 AA 5A D7 AA 94 6A 7B AB 44 54 AA 5A 55 AA DA BB 0D 42 50 55 CD 5A 55 5B
DPCM : D5 A5 56 24 21 B5 DF AD 14 A9 5A 53 15 D0 EA BF A7 40 A0 DA 5B 4B 29 69 57 2D 95 D4 56 AF BA 35
DPCM : 49 44 55 55 52 D4 DB FB 55 08 40 55 F6 69 55 55 2B B5 54 45 EA 6A 2F 35 51 B5 AA 46 2A A4 DB 5D
DPCM : 93 52 92 6E 55 55 55 B4 DA 56 51 81 DA 7A 55 2A 64 ED ED 2E 41 11 ED B5 4A 48 45 EF 5A 97 D4 52
DPCM : 37 29 91 AB 5A D5 DE 85 2A F4 76 27 11 84 D4 6E 5B 54 65 BF 94 40 B5 56 4D 95 90 72 BB D5 52 AA
DPCM : A4 44 B7 F7 A4 2A F5 56 23 11 50 B5 5F D1 C0 DE 7D 37 22 91 50 CB DD 2A 25 A4 EA EF AE 88 54 6D
DPCM : 55 44 AD FD AE 04 52 6C AA 45 CA B4 6D B5 6A 45 17 55 AB 6D 88 4A 77 5F 09 00 69 FB 57 15 61 5D
DPCM : BF 22 22 91 56 ED 55 55 5A 4B AB 50 02 57 7F B7 09 04 F5 DD 15 55 F4 EA 2B 11 91 76 DB 13 52 C9
DPCM : AE B4 26 55 59 D9 F7 5E 11 10 A4 55 A5 01 BB FD 2B 0D D1 6A 57 A5 54 54 35 55 55 6B 55 65 A5 7D
DPCM : A5 42 B6 6D 05 21 E9 FF 4E 00 40 EE 5F 55 A0 DA BE 55 45 A9 5A 35 29 41 7A F5 55 5F A9 25 2A C9
DPCM : B5 DA A4 16 6D 69 29 3B 52 91 55 75 B7 D7 4A 0C A0 A0 BA DD 2F B5 59 AB 00 41 ED 57 A5 50 55 6F
DPCM : AD 25 5A D4 A5 9A DA 4D 15 00 69 EF AF B7 D6 8A 40 80 DA FF BF 00 00 B0 77 2D 57 7E E9 25 A3 94
DPCM : 45 B5 34 D1 8A 7E F5 6F 49 A2 D4 96 AC 52 14 EA 6A 2D D5 57 9F 54 22 10 E9 FF 2F 02 80 A4 9F BA
DPCM : 24 C8 FE FD 2F 01 51 89 54 B5 40 E4 FF 7F 05 08 29 B5 7F A9 02 F4 6D 5F 80 26 75 6D 5B 8B D4 AA
DPCM : 4B 04 42 F7 FD F1 02 55 D2 AF AB 8A 55 25 54 91 84 B4 FD FD 6B 41 AA D2 2B 41 82 FA FD 45 02 55
DPCM : 5D A9 5A 5A 95 4B B5 24 B5 51 A5 6B 57 24 89 BE 6B 02 01 B5 EE BE 74 61 D7 5F 04 29 A9 74 A5 97
DPCM : 1D 75 D1 DE 50 05 5D ED DA 22 84 B6 ED 52 45 AA D5 12 4A D5 B7 DD B5 4A 02 D1 56 B7 C8 21 5B FB
DPCM : 8B 00 C0 F5 AF 24 29 F5 56 95 24 B5 B7 BC A0 05 95 A2 5E 6F DB 94 54 89 2A D5 6C 75 D7 AA C4 4A
DPCM : 56 68 49 45 AD DF AF 2E 31 41 42 AD 5A 55 76 D5 6E FA A2 02 91 4A BB A4 6D FB 1A 50 A0 CA DF BF
DPCM : 54 15 75 01 15 F1 A7 4B 24 09 59 EB 5F 37 15 45 A8 A8 AF 98 40 FB ED 23 A5 8A 9E 74 95 AA DA D6
DPCM : 57 20 01 60 FA FF FF 03 00 A8 BD D6 4A 5F A8 4A 14 E0 F6 FE FF 48 04 49 D4 96 54 88 AA 7F 2F 28
DPCM : A8 AB D5 55 DD F6 1A 01 01 43 FF FD FD 4D 05 00 91 2C FA EB 57 09 45 00 98 FE D9 52 ED 7B BB 20
DPCM : 22 48 76 21 A7 FE BD 55 81 2A EE B6 5A 50 55 CD 94 55 D5 A5 54 EB 16 52 68 D1 57 15 05 DC FB AF
DPCM : 81 5E FF 01 24 C0 26 A9 16 FA AD FF 82 02 AD 5A 71 95 B6 C8 D4 DD 16 94 12 CB FB 5F 05 80 E8 5D
DPCM : 29 B7 D2 43 9D 2A 20 41 FF 76 E9 0A 0A C8 BF AD 54 6F BF 9A 28 11 4B 5A 89 20 FF ED 05 04 5A FD
DPCM : F5 FB A6 02 12 35 F5 93 17 B4 DB 3E 00 00 EE FF 21 02 A0 AD FD 00 44 FA FF 7F 25 10 88 6A 57 EE
DPCM : D6 FF 6D 05 88 60 A1 BF 5D 00 42 F2 B5 57 AD A6 4A AA 00 B9 E8 8F 2E BD 6A C9 A2 6B 24 D1 DF FF
DPCM : EA 07 26 08 49 A8 56 FD BF 12 80 2A 7A 55 6B 14 A4 F5 BF 92 14 55 49 35 84 52 FD AF 16 00 F2 7B
DPCM : B7 EE 12 52 2B BB C2 8D B6 50 64 F2 02 BA DE 17 B4 D4 A5 6F 2A 00 00 FB FF 49 A2 72 C3 0B E8 AA
DPCM : FE FF 0F 00 A8 68 B7 7F D5 44 AA 96 90 90 5C A9 CE 6B 25 F0 A4 1B 48 89 6F FC 95 55 80 DF FF 9B
DPCM : D0 25 0D 50 24 D5 EC FD 43 0A 50 22 D2 F7 B6 80 4F FF 68 01 AB 6D 35 AB 54 2B 6F 52 04 5F BD A8
DPCM : 6F 56 A1 92 AE D8 A2 52 4A 5D B1 05 FC 55 0F 29 A4 B5 6D B5 54 11 5F 6C 65 47 4F 52 5D 51 4B 74
DPCM : 55 55 29 5D 55 ED 6A 8B 52 C9 4A 34 52 81 16 DA AF 3F D9 56 92 85 4E 60 6B FF AB 14 68 55 BD D5
DPCM : 9A 54 D5 A6 86 50 55 D5 95 1F F4 02 27 4D AA D0 0B 15 E9 AA 54 A9 F5 DD FF 4A 05 50 90 82 27 FD
DPCM : F7 FF 5A D0 80 02 4A A4 F6 74 D7 14 11 96 50 25 FB F5 97 9B A4 14 60 A1 EE 5F 5D 23 FA FB 27 00
DPCM : A0 FE 8A 94 E0 D6 7F BD 00 55 DD 2F 44 40 06 F0 B7 7F 50 A0 5A 77 D5 52 4D BB 2B 00 28 D9 57 4F
DPCM : 5E B5 74 FB 8B 16 80 40 AF 5E 85 25 FE DA 04 D0 DF DF 0A 00 80 B7 7F 9D 34 75 15 5B D4 51 56 57
DPCM : BB 60 11 9D 6A AB 54 C6 FD 3F A9 00 00 56 FF BA 62 C5 AF 48 00 A4 FC FF 9F 00 00 F5 1B 1B D0 B7
DPCM : FF 7F 01 00 F0 8B 4B D2 4B DF 41 02 31 CD FF 7F AB 17 00 00 A0 EC AC F5 FF BF 20 00 CD 7A 2F A9
DPCM : EE AF 1A 00 A1 45 7E BD 6D 65 25 51 01 AB AC A7 7D D9 02 25 AA 94 B4 5F B3 52 6A 85 04 D0 FF EE
DPCM : 46 2E D4 CF 0D 00 C8 DF B4 20 EF BD 95 A4 B6 59 07 2A 6A D1 0B 4A D8 FF 16 00 A9 7F 7D A9 15 55
DPCM : 51 01 5C F9 FF D6 88 5A 41 89 FD DA 0A AD 2D A9 44 2D 51 5D B7 16 B4 45 0A 40 E9 AF 7E F3 0F 10
DPCM : 00 A8 BF FF 77 01 95 16 88 90 FE FF 1F 7C A1 87 6A 04 15 BA 52 57 7F 15 00 40 FD FF BF 40 41 13
DPCM : 50 A8 FF FF 17 00 91 AA B9 6F 3F 80 00 BE DA 55 A1 56 F7 B7 8A A4 4A 15 0A 51 6D EB DF 0C 00 40
DPCM : FA FF FF 08 00 94 7E F0 A7 7F 4F 04 49 6A 6B 6B 17 72 29 ED 64 43 AC 80 DF FE 4A 85 27 52 01 A8
DPCM : F4 FF FF 29 00 E0 DB 7F 42 04 F4 D5 49 24 D1 5F 3D 29 60 B7 DF 2A 00 0A DA 6F 6B 41 48 B2 DA BB
DPCM : 6A 55 5F 77 00 40 FA FD 5F 09 80 A6 F7 6F 07 00 A2 EA D7 6E 12 59 55 15 A8 56 FD D3 02 40 41 FF
DPCM : BD B6 D4 CF BA A4 D6 AA 20 15 D4 6A 2B D5 6D 8D 10 09 FE FE 91 02 A4 16 7D A2 5F 6A 07 0A F4 52
DPCM : B5 D2 AF DE 55 BA 90 A4 26 A9 B7 FF A5 5A A4 22 88 A0 DA 6E DF 14 12 92 6C DD 56 B6 91 94 AC 55
DPCM : A4 16 F9 F7 9F 2A 00 95 4A 8D FA B5 DB 14 A9 29 55 4D FA EB 0F 21 01 12 55 55 FD D5 1F 9A 50 A1
DPCM : 08 58 F9 FF DF 62 20 95 5C CA D5 DE 2A 89 26 2D 51 A8 FA DD 52 AA D6 46 54 C0 CE FE A9 43 4A 55
DPCM : 00 69 FF FF 29 02 A9 A4 55 09 BA D5 2B 95 76 D5 2D DA AA 66 44 55 5A 95 8A D0 EE FF 3F 10 80 A2
DPCM : B6 6A CA A6 7C A5 45 5A B5 AB 2C 24 10 D5 7F 55 6D EA A2 B5 50 55 55 AB 95 2E B0 02 4B 9E D4 D4
DPCM : DF FD A8 01 50 D1 57 09 6D FA 57 2B 00 91 D7 FE 69 49 52 55 91 17 2D EC F6 DF 0F 00 90 AA BE 54
DPCM : 01 D7 FF A8 08 6A DB F7 5F 02 40 A4 52 10 B5 FB 7F FF C1 00 20 E9 05 6F DD AA 64 13 4A 80 6F FF
DPCM : E9 03 09 D8 72 55 01 FB D6 4F 28 29 61 F5 AD 2F 74 45 45 68 05 5D EF FF BF 00 50 50 40 AD 7E BB
DPCM : DA 82 12 A8 2F 5A 55 D5 46 5F 96 40 00 E8 DB 5F 95 5C FA A5 9A 40 16 51 0B 6D 94 24 D4 DF F4 10
DPCM : AA 58 4F 36 24 D3 B6 56 95 58 35 58 43 56 F5 92 2B 3B A2 55 BA AA 8B D4 14 FA B4 05 2D 99 20 25
DPCM : 49 BA 80 F2 76 2F 7B 35 41 05 40 81 7F FF 03 20 10 AA FA AF 75 10 BA 84 04 C0 46 CC B7 7F 20 84
DPCM : 5D 2A 50 44 C7 7F FD 44 40 10 CB DE EC D2 94 94 10 01 A8 BB BB 10 11 E2 A1 0A 12 C0 BA 07 C8 15
DPCM : 55
DPCMDEF  30  2225 "CAFcool"
DPCM : 6A 55 AD 2A 95 24 AD DD B6 2A A5 94 AA 5A 55 55 55 55 55 55 D5 AA 4A 29 B5 D6 6A 52 A5 AA AA 56
DPCM : B5 56 95 52 AA 5A 55 55 55 55 4A D5 B6 DB 12 51 52 D5 AA AA 5A D5 2A 55 B5 2A 95 A4 6D AD 2A 55
DPCM : AA 2A A5 AA 5B 6D 55 29 55 55 A9 55 D5 AA 52 55 B5 4A 55 55 B5 56 AA 54 55 55 55 55 55 29 D5 6A
DPCM : 55 55 55 AA B5 55 49 29 AD AA AA 6A 55 55 55 55 55 55 A9 56 55 49 A9 5E B7 92 24 AB D6 5A 49 55
DPCM : 69 55 A5 AA 5A DB D6 94 A4 54 55 AA 5A 55 D5 BA 56 92 24 52 75 57 55 C9 5A AB 52 A9 6A D5 AA 52
DPCM : A9 AA 55 95 5A A9 54 75 55 AB AA 4A 55 55 55 A9 6A 55 AB 9A 4A D5 54 55 D5 54 25 55 AB 95 5A DB
DPCM : 56 93 44 4A B5 6A AA 5A DB 54 2A 55 49 A5 6D AF 2A 92 A6 56 92 90 F5 F7 AB 04 45 D6 B2 4A B5 56
DPCM : 55 55 55 55 CA 56 B7 12 95 6A B5 4A 52 6A F7 5E 09 12 59 AD 5A 55 B5 55 95 54 AA 5A AD BA 52 49
DPCM : A9 55 2D 25 54 F5 6D 2B 49 55 55 85 54 B7 6D 54 A4 DA 56 55 B4 D2 56 AA D5 5D 25 52 55 B5 AA 56
DPCM : D5 AA 48 45 6D AD 4A 95 6C 55 2D 55 22 AB DD B6 4A 54 A9 56 55 95 D6 56 95 24 A5 AA 6D 55 55 55
DPCM : 55 55 55 4A 22 DB F7 4E 15 54 65 55 49 AA DD 5F 49 40 D5 BD 2A 24 E9 ED B6 12 29 15 49 52 BB 57
DPCM : 2B B5 EA 26 49 49 AD 4A A4 EA F7 AF 02 24 D2 5A 59 45 AD D4 66 5D DF 55 43 52 94 92 EA D6 AE AA
DPCM : B6 6A 45 10 08 55 BB F5 6E 77 09 89 A8 52 AD D5 DD 36 85 A4 55 B5 84 A4 EA B7 9B 24 6D D5 84 24
DPCM : EA AA 16 B5 BA 75 2B 2B 6A 25 89 68 77 5B 49 6D F7 4A 40 90 DB AD 52 A4 B5 6D 2B 51 29 53 6A 75
DPCM : AF AA D2 AA 05 09 A4 B5 5F 35 45 5B FB 0A 11 92 4A DA DE B5 95 AA 52 55 29 D2 6E 77 0B 51 65 B7
DPCM : 5A 10 52 ED B6 4A 55 AD DA AA 92 24 53 AD B5 56 55 D5 D6 12 01 49 B5 DF AD 12 51 B5 56 29 09 55
DPCM : DF ED 42 28 AB 9B 5A 55 55 D5 AA CA CA AA 54 55 AB 2A 55 D6 5F 25 00 D9 DE 4B 44 54 5F 77 25 55
DPCM : 6A 49 25 CB 5D 51 4A DD 6B 08 88 FD BD 0A 88 EA 7F 45 00 54 FF 9B 52 5B 2D 02 58 FB 55 95 EC F6
DPCM : 29 41 50 DF 5B 41 68 FD 57 05 50 55 D5 B2 F5 97 26 A0 5A B5 9B 94 52 55 45 90 DE B7 52 B2 5A 15
DPCM : 55 D9 4A 2D E9 ED BD 0A 10 A2 6D 2B 45 6D DD AD 49 52 A1 4D FA 55 45 45 B7 5F 91 50 AA F5 2D 48
DPCM : C0 AE DE E9 96 2A 58 D2 55 4A A4 6F 6F 0B 54 D4 7D 23 00 D0 FF 7F 24 41 35 6B D1 56 4B 25 A8 6F
DPCM : AF 90 70 FF 8D 00 40 FD FF 05 00 FE BB 0A 64 76 F7 4A 91 BA D2 00 D2 DF 97 88 AC BD 25 10 D0 FF
DPCM : BF 00 40 FD D7 A4 44 D7 5A 8B 5A BD 02 00 D0 FD 57 D5 B5 2F 12 81 FA FF 0B 00 40 FF B7 6A 51 45
DPCM : 12 DA 6D 2F 51 A4 B5 5D A5 6A F7 8B 00 00 FB FF 07 10 68 D5 9A AA 5B CB 1A B5 D5 BD 00 80 76 5B
DPCM : A4 77 7F 09 44 B0 ED 2D 45 80 BF FD A5 52 AB A4 52 D9 55 2D 54 A9 2D 35 55 FB AD 02 04 64 7F AF
DPCM : 48 59 6D AA 84 45 BD D4 F6 DA 27 20 11 A6 96 A0 E5 FF FF 42 80 CA 56 4D 89 B4 5F DD 04 49 A8 5E
DPCM : DB 4B 52 68 D5 D5 BE 54 C2 AD 2E 50 82 DE EF 56 40 B4 55 57 04 24 EA FF 7F 91 A0 24 41 B6 6D 0B
DPCM : BB F6 A5 42 D0 C8 FB 8B 14 A4 FB 7F 20 00 D7 DE 5A 49 4D B2 C9 7F 65 83 28 25 9D 48 A0 F7 FF 3F
DPCM : 00 C0 97 56 A4 EA 6D BF 28 48 94 B4 62 6F AA 04 DD FD 47 01 90 FD BD 25 04 BA B7 55 A0 DD 5F 01
DPCM : 45 D0 5E FA EF 5A 21 00 D2 BB 5F 48 D1 EF AD 00 A0 56 3D 91 B2 DF B7 A6 4C 10 28 E9 5F 7F 12 00
DPCM : D5 FF 23 4A 6C A5 82 64 AF 6F 6D 45 54 69 45 8B 5A 55 E8 F7 FB 25 00 00 BF 5D 91 DE FE 2B 04 C0
DPCM : D5 7D 0B 54 55 25 0B BE 5A 53 D8 D6 97 09 00 E8 FE BF 50 FD 6C 03 00 E8 FE 5B 49 B5 BF 09 00 E0
DPCM : 1F 5E D5 FD FF 04 00 00 BD DE F4 EF 8D 00 D4 B6 B7 02 80 BE F7 48 81 FF 56 02 95 DE B4 11 01 B4
DPCM : EE FF DE EE 02 00 00 7F 77 55 75 BD 05 10 E0 6D 5F 55 D1 AF FF 21 00 10 51 EF FF DF 12 50 25 52
DPCM : 81 96 6A DF AB 10 44 7A B7 5D 2A 55 51 E5 06 57 D4 FD F0 07 17 35 6A 14 A2 64 FB 55 4D 54 D1 A6
DPCM : DE 6E B5 C4 25 52 85 0E FC F7 57 04 D4 FA 49 01 80 BE FE 9F 28 C0 16 2D DA 65 57 49 A9 A2 9B 6A
DPCM : E9 9D FC 80 56 F5 2F 48 00 F6 F7 07 88 AA 37 75 84 27 D7 B6 04 EC F6 5F 40 25 3B 44 D5 EF 2D 08
DPCM : 62 C4 5F 55 01 56 FF 53 1A F5 2A 02 41 F5 BF DF 22 50 2A 77 51 A5 75 04 0A FF 6F A4 44 DD DA 92
DPCM : 24 55 F7 4A 84 F4 FF AF 10 05 A4 A0 EF BF 89 00 B0 BD 56 85 1A BD 35 01 C0 AB FF A5 A4 EE DB AE
DPCM : 0A 10 48 FF 6F 2F 05 10 F0 B7 25 40 DF F6 15 24 C0 A5 FF 4D 52 6A D7 7D 14 20 68 FD 9F 92 00 50
DPCM : FD 77 A9 56 2F 11 81 0A F0 FB FF AA A2 2D 15 B4 84 00 D6 FF 7F E9 40 04 AA BE 24 F0 7F 5B 01 2E
DPCM : FD 6B 17 41 52 65 27 F5 EA 0B 49 C4 2B 25 80 FA FF 25 54 E8 17 15 00 90 FC FF FF A3 8B 84 12 7D
DPCM : 6C 41 5B FF 2B 29 02 EB 5A 02 00 F8 FF 47 A0 E5 7F F5 08 11 48 FD DA 1D 6A 01 2A FE 52 A9 EA FF
DPCM : 1F 04 80 E8 76 95 54 BA 7F BF 86 00 00 54 74 AF B2 93 7F 7F 02 85 D8 68 13 D8 94 FD F7 41 54 DA
DPCM : 4B 37 D1 44 CA F6 8F 15 48 A1 07 5F 2A A0 FA FF 01 85 AA 15 99 40 2B FB FF FF 09 24 00 2C F9 B7
DPCM : 69 AF 7D 89 05 50 12 7D A1 52 B7 ED 09 05 A0 EA FF B7 22 05 50 D1 4B 5F B7 54 A9 76 6B 01 97 DC
DPCM : CA B6 12 6B ED 0B 42 F6 FF 03 18 80 10 69 B5 BB DB B7 82 16 75 00 00 FD FF FF 81 95 96 10 40 F6
DPCM : FF 7D 43 44 4F 14 00 7A B7 17 FD FD 92 00 40 D2 D7 1A 01 FE FF 16 D1 7F BB 00 00 DA 4E 53 DA FD
DPCM : 7B 50 41 BD 10 01 C0 FF FF 37 01 54 15 12 E0 DF 5E CA 56 B5 04 05 A8 BB BF 60 DF FF 5B 00 C0 74
DPCM : 4B C2 86 FF BE 65 C9 8D 14 A0 AA 15 92 E0 FF FF 00 80 E2 9F 4A 90 DD FE 47 21 45 1A E4 9B F7 D8
DPCM : D0 5B 6F 01 00 A0 FF 57 15 75 DF 57 84 50 55 55 12 AC D1 77 FD 8F 2A 00 E9 F6 07 00 50 FF FF 0F
DPCM : 00 6C 5B AF 30 9B FA 60 51 55 0A 68 FF 97 04 21 FF 7B 03 00 00 FF FF 04 F8 D7 1F 92 F4 BE 80 04
DPCM : 55 77 55 BF BE 21 00 A8 FF FF 00 00 E0 FF 7F 10 A4 B0 92 55 6F B7 14 B1 D1 07 50 ED 6F 02 50 F7
DPCM : FF 1F 00 00 DE FF 44 21 57 DD F5 DE 2F 00 40 A5 9B 40 AB FE AD A8 A4 FE AB 01 00 90 FF FF 4A 55
DPCM : 29 94 AC F5 0D 54 E0 F7 55 05 B1 56 4D 20 7A FF 57 00 00 FE B7 55 D2 4A 3C E4 DD FF 4E 00 C8 56
DPCM : 81 A0 FD BF 15 76 B7 37 00 00 EC 5F FF AC B4 22 00 C0 FF FF 00 A0 B6 51 27 5F B5 12 4A F0 FF 1E
DPCM : 00 A0 FF 96 AA FC A3 10 80 FF FF FF 24 00 00 40 E9 FE FF A5 40 6F 1D 80 80 DF 57 2B B5 BE 36 01
DPCM : 00 FC FF 47 05 62 44 F5 F5 4D 37 E4 42 2F 54 20 DD B7 07 2A A8 9B 5E 41 9B FE FF 26 00 00 C0 FF
DPCM : DE 52 55 ED 2B 41 04 74 7D 3F 69 41 DF F4 02 52 A8 57 2F 25 02 59 FD 6F 0B 00 D8 FD 9F 00 0A FD
DPCM : 57 45 A0 E8 7F 7B 81 5B BD AD 52 11 12 7C FD 5F 00 40 F4 FF 15 40 D0 DF 0D 11 E0 F7 75 25 24 65
DPCM : 7B 65 A5 26 D5 5E 7D 45 00 40 FD FF 7F 08 54 95 12 08 F2 F6 5F 5B E9 CD 24 01 9A C2 15 BB 56 55
DPCM : 10 D5 FE 7F 51 44 14 57 B8 CA EE AD D2 4A 6C 41 52 91 9B 3E D5 4A 6C 01 16 F5 EF 7E A8 05 20 8A
DPCM : 5E FC E9 D5 AE AB 57 80 26 DD 86 8A 2A 75 E9 09 52 AA D7 5F 2A 50 21 AD A9 DB 92 48 F4 D2 0B 97
DPCM : DA D5 1F 2C 40 B4 57 5D 74 F5 55 BF 20 05 2A 51 D2 65 AF F6 5F 4D 40 12 35 5D D5 12 68 65 AF B4
DPCM : A2 56 DB DB 05 2D 76 15 55 94 6A 72 4F 55 94 A4 57 BD C2 12 98 68 D3 9B FD 64 37 09 4C 78 81 0D
DPCM : F8 D3 77 7F 90 02 56 B5 D8 52 4D A4 6A 91 2E E9 BF AA 02 4A 64 6F BD 42 55 55 5D 44 08 B5 9B 5D
DPCM : 5A 56 59 D5 12 41 DD EA BD 5A 05 50 6E BD 42 49 97 3E 13 11 22 E7 FF 3A 40 25 58 62 49 93 5D ED
DPCM : 4D 3B D0 D4 77 2B 20 81 5D FF 05 00 50 FF 5F 64 49 B4 29 55 51 B5 77 B5 25 2E 58 95 5B 4D 00 A0
DPCM : FD 4B 47 C0 DE FF 17 00 80 3F FA A2 8A 5D 6D F5 C2 05 5C E9 5B DA 80 55 D5 1F A0 C0 BE 7D 05 09
DPCM : A8 ED 54 55 55 55 55 55 55 55 51 55 55 55 15 55 55
DPCMDEF  31  2225 "DBGcool"
DPCM : 6D AB 44 49 5D AD 52 52 AD 55 55 59 59 55 55 55 55 55 55 55 55 B5 55 25 49 5B DB 2A A9 54 55 A5
DPCM : 54 B5 56 6D AB 4A 4A 25 55 D6 5A AD 54 49 55 55 5B B5 52 4A 5A D7 56 A5 AA 2A 55 A9 54 D5 5A B7
DPCM : 95 44 24 A5 6A 7B FF 16 01 49 B5 55 95 6A B5 66 55 55 52 52 B5 55 55 55 D5 2A 55 EB 96 10 21 B5
DPCM : DB 5A 55 AB 52 25 55 52 55 7B DF 96 42 4A 55 A5 AA B5 AA 4A B5 AA 4A 55 55 AB 54 55 A9 44 ED DD
DPCM : 2D 41 51 D5 AA AA 6A 55 35 55 D5 54 AA 64 AB 55 AB 25 15 59 6D 55 95 A4 5A 5D 75 B5 A6 92 52 55
DPCM : 95 56 B5 AB 55 89 14 A1 D4 FA B6 AB 25 A5 54 55 A5 14 B5 DA 5A 55 55 95 AA 5A AD 94 24 DB D6 56
DPCM : B5 A9 44 52 6E B7 2A 55 55 49 54 D5 55 92 76 EF 06 84 D4 6E A5 A4 5B AD 54 55 DB 54 AA 9A 14 A4
DPCM : F6 55 15 B5 7B 15 40 B2 6F 55 A9 DA AE A4 54 B5 54 55 D5 52 25 B9 5B 4D 54 DD 2A 11 51 B7 D5 54
DPCM : 75 55 15 55 55 95 A4 DA 56 55 55 D2 AA 92 AD AA 4A 55 5B 5B 55 A5 54 52 55 75 55 AA 56 F7 AA 0A
DPCM : 32 55 A9 AA D5 AA 54 5A ED 2A 45 52 B6 5A A9 A9 55 5B AA B2 54 91 52 AB 5B AD 56 54 48 AA AB 2D
DPCM : D9 76 B7 24 54 6A 55 52 EE F6 2B 52 44 95 08 5A 7B 57 5B 77 35 45 64 12 85 D4 BD 5D 49 D5 DD 12
DPCM : 20 FA 76 25 51 5B 55 11 D8 B6 5A AA 5D AB 94 D4 B6 54 55 7D 4D 50 69 DF 4A 88 6A 6D 49 65 5D 15
DPCM : 55 7D 57 08 20 DB 5A A5 7A 55 89 EA FE 9A 20 54 49 91 EC DF 57 A4 F6 37 02 00 D0 FB 6E FB 37 01
DPCM : 84 74 97 95 B4 BD 92 54 55 4D 50 7B 7F 05 11 A9 9B B4 74 BF 25 50 B5 3F 91 80 94 54 66 6F B7 D2
DPCM : D4 DE 24 01 2A 6D 5B E9 6D 5B 22 A5 56 55 85 56 75 55 DB 5A 29 52 F5 9A 0A 09 B5 B5 52 E5 6E B5
DPCM : 22 AD 54 55 48 4D ED B6 CD 8D 24 55 2D 49 52 7D 55 55 B2 D5 B6 A2 44 4D 5A 55 5D 57 55 2A 55 92
DPCM : A8 EA B5 55 B5 B6 AB 88 49 5D AD AA 2A 25 A1 54 5F 55 25 ED 5A 0B A9 55 57 48 D0 6E 37 55 95 6A
DPCM : A5 55 55 94 B2 77 B5 10 D5 F5 16 A9 EC 96 10 A1 5B B7 E4 CD 37 29 51 91 02 74 F5 6F 51 AD 77 09
DPCM : 84 F4 25 12 74 FF BD 41 DA AA 48 C0 6E 5B A5 7B 4F 40 40 ED A6 90 FE FF 03 00 EA 5F 15 D5 77 55
DPCM : 40 55 59 45 DB BF 04 90 7E 9B 00 E8 7B 4B 80 F4 7F 95 40 BB A5 44 EA D7 4B 2F 55 05 C1 AA DD 44
DPCM : 76 FF 0B 00 C0 EE 2F B5 B5 B7 00 0A BC 95 2B B7 76 D1 AA 54 04 A2 FD 6A 05 75 F7 1F 15 50 55 24
DPCM : 64 FE DD B6 90 A4 84 12 6B DF 55 BD ED 02 54 54 B9 69 DB 6A 0B 11 5A 79 93 D6 AD 2D A8 54 DD C3
DPCM : 04 12 DD A8 6A 77 55 95 5A 55 A5 44 EE 55 DF 54 25 80 64 7F 2F B5 52 49 05 EE BD 17 84 A8 DD 13
DPCM : 09 F4 EA F6 B6 0B 42 89 7C 6B 4B 4A 25 84 F8 FF 5B 40 D2 56 9B A0 A8 3F 55 55 9F 10 40 EA 7F 7F
DPCM : 55 81 02 B6 F6 2F 45 AA AA 12 A8 DA B5 AA F6 FF 2A 00 00 FA D7 5E 50 05 DD B5 8B 24 5B 91 28 E1
DPCM : 7F 5F 52 F4 57 05 00 40 DA FF FF 1F 15 40 A2 BA 74 E7 4D 11 15 7D 62 8B F6 DD 0A 40 41 BC D4 DF
DPCM : BF 00 81 DC 5D 51 55 57 AD 52 0A AD 68 DF DE 0B 70 50 85 E8 5F BF 01 55 55 BD C9 6E 95 40 80 24
DPCM : E5 BD FF FF 15 24 08 01 A2 BE FE 94 F5 EB 04 11 D5 55 09 50 EF 5E 4D B6 B5 A8 84 4A 15 7D E9 55
DPCM : 55 ED 0F 2D C0 FD FF 00 00 76 2B 22 F4 D7 5F 15 4A 99 90 04 9A A8 FF FF 41 52 5D 2B 14 62 B7 55
DPCM : 24 DA 37 A9 B5 FB 43 0E 48 01 52 FB F7 17 54 6D B2 81 B4 A4 4A 6B B7 A4 6A FF 5E 42 40 02 2D E1
DPCM : DB BF 2D 29 54 B1 56 D5 42 5B 59 05 48 B2 7F DF 2F 55 45 10 90 DA ED 5D DB A8 D5 EC C2 12 45 15
DPCM : 5A D1 AD 55 95 B6 1B 04 40 AA FF 2F 2D C9 55 D1 55 F7 56 29 49 50 05 9B 68 6D FF FF 0B 00 80 5B
DPCM : 42 E8 F7 AF 0A F5 FF 0E 00 00 70 FF F5 26 54 D5 BD 05 04 B0 FF 2F 00 FA BF 01 80 FF FF 01 00 6C
DPCM : 2F 44 3D 7D A5 F5 BF 02 00 BE 24 40 FC FF FF 83 B8 36 00 80 FE 56 80 FF 5A 00 68 FF 4F 00 FC FF
DPCM : 21 40 DD 97 5C 7B 33 00 AA FF 54 10 E9 95 80 E4 FF FF 00 00 5E 2B A1 FE ED B6 BC 95 00 80 FA 57
DPCM : 09 6F 55 01 D0 FE FF 0F 40 DA 54 D0 75 2F 44 6D FF 12 10 E2 57 55 5A DA 04 E8 EF 7F 00 11 75 A9
DPCM : C2 BF 7F 80 E0 FB 1B 80 A8 77 05 50 D1 83 5D F6 FF 0F 24 A4 15 2A FA F7 A2 C2 7F 99 04 64 77 12
DPCM : 81 EE 3D 54 C0 D7 4D A2 04 7F F0 5B FD 03 46 7C C9 24 C2 FF 44 03 7A 79 83 89 FE EE 05 5C F4 49
DPCM : 54 A5 AD 68 4D 5D D4 69 B7 13 10 D0 B7 85 20 FD 7F B5 80 96 A8 54 EC FA 63 9B AD 52 40 8B 4A 10
DPCM : BA FF 3F 5A 60 AB 54 E2 D2 AD 44 5B FD 42 0F FD 09 25 68 FB 90 00 BF FD 01 0A 69 2B 4A 5D BB 55
DPCM : D1 AD 56 AA 6A 0D 01 F6 75 0B 48 FE DF 0B 20 E9 B7 44 B7 BA 25 10 14 FA D7 1F 5D 60 55 2F 10 80
DPCM : F4 FF 3F 91 22 4D 00 5A FD AF 0B 55 DA D7 4E 00 00 DD 7D B5 61 D7 AC 0B 55 D1 D5 A4 A9 56 DF 26
DPCM : 10 80 BF FF 97 94 22 DA 86 2A A0 B5 F7 43 59 51 0F 41 80 EC FF 57 15 3B 51 15 94 48 7D BF 1F 34
DPCM : 70 D3 45 42 BF FF 01 00 FA 55 03 70 ED FF 97 55 92 08 55 2D 20 F0 BF 57 B4 F5 1F 00 00 E8 FF 2D
DPCM : F5 FF 05 00 00 BA A8 EA FF BF 84 44 59 A1 DD FF 0A 80 52 13 09 F4 FF 67 42 FD B7 05 00 6E AF 00
DPCM : 88 FE FF 2F 48 05 08 A4 F8 AF D7 DA 15 4A A1 82 8A CA FF FF 13 00 EA AD D0 7D BF 02 00 E8 5F 15
DPCM : 20 FF FD BF 6A 02 40 28 A9 F8 B0 1F 75 55 7F 2B 00 00 FE 7F 0F BC B0 4A 49 64 EA 87 AC 75 EF 87
DPCM : 02 24 F5 EF 1F 68 01 85 A4 94 54 F9 F7 5F 5B D5 02 00 40 FB FF 0B EC D5 0F 20 95 54 40 6B BF B5
DPCM : AA 54 95 00 BD EA 03 A9 FF 7F 49 88 52 1D B5 D4 2B 51 D1 55 55 55 F5 0F 0D 68 3B 32 05 7C AB 1D
DPCM : 70 65 DD 83 2A 8B EC D6 85 04 CE FE 35 10 F0 DE 1F 10 DC FF 53 00 52 DF 4F 40 11 E4 EB 1D 05 D4
DPCM : 7D B7 01 AE FD 07 00 F0 FF 13 00 FB FD BF 08 02 20 6C AB 81 FA FB 2F 10 8B 6F 91 00 F8 FF 4F 91
DPCM : AF F4 96 20 22 68 CB 3F 59 51 7D AB 04 AD BA 54 02 26 74 93 54 FB 7B B7 C0 02 11 92 FC E5 DD FA
DPCM : 7D 51 01 54 59 4A 51 5F 7F 59 29 41 17 B8 00 7D EB 3D B2 44 49 6F 55 15 5B DD 57 11 44 AD 5C D1
DPCM : ED 6F 11 48 A4 27 7C C0 45 B5 FB FD 22 00 A1 7F B4 6A D7 12 95 FD 57 00 21 DF 57 15 AA 24 80 FE
DPCM : FF 3F 00 52 55 04 A8 B5 1F B2 FE BF 04 A0 C4 0B 6A FD FB F0 A4 FF 0F 00 00 A8 4B DD 7F 37 04 DA
DPCM : E5 02 A8 E9 1F 95 D4 55 00 D9 FF FF 00 60 57 15 E0 DF 7F 20 D4 A7 05 A0 ED 47 2A F8 AD 00 DC FF
DPCM : 3F 00 A0 5F 84 C0 FF FF 40 64 3F 91 54 F5 17 48 A0 07 14 F8 FF FF 07 00 55 01 A0 FF FF 20 55 95
DPCM : 26 90 EF 5E C0 C5 7F 49 A0 FE 3F 01 00 DC 57 01 7F FF 05 90 9A A2 00 FF FF 0B 20 5B 29 01 FF FF
DPCM : 01 E0 F5 17 00 DC FF 26 80 F6 5D 01 E8 D3 2D D0 D7 96 04 E8 DF 25 01 F6 57 55 51 6E 21 A9 DA 3F
DPCM : 04 C0 FD 8B 12 F0 DB 0B 51 FF E7 04 C0 4B 29 C0 FE 17 95 5A FD 01 80 F0 BF A8 FF DF 03 00 E0 5F
DPCM : 24 C8 5F FD 01 5D 60 81 EF 7E 03 B0 E9 AF 02 65 76 4D 48 B5 FF 6F 49 40 52 A0 CA 7D CB 2E E5 8A
DPCM : 2A A5 42 58 F9 EF 2F 00 C0 FD 97 4A A8 57 93 05 7C D7 5F 24 92 6C CA 55 54 79 F5 27 50 A1 57 DF
DPCM : B4 A4 52 05 1A F8 5B 2B 01 16 F7 6F AC E8 D3 07 0E 00 10 FA FF FF 83 2A 28 81 C0 BF DE 04 7D 6F
DPCM : 37 20 55 A4 0D 7E A5 55 25 FF 6F 05 20 00 09 ED FF FF 01 80 4A 8C 54 F6 C9 96 D5 5E 00 01 FC F7
DPCM : 5F ED 04 84 D0 DE 7F 00 81 EA 53 D5 2B 0B A5 76 FB 0D 20 A8 F4 6A BB 0B 44 C0 7F FD 80 15 60 49
DPCM : FF FF 03 00 50 E9 07 BA E8 4A 57 FF 66 00 01 3F 7A 75 D9 0B 4D 51 5F A4 04 AA B6 77 ED 4F 2A 10
DPCM : 72 85 4F D4 2C 69 51 57 55 A5 95 B5 44 41 52 6A EE D7 DF 2A 20 82 64 B5 B7 BF 54 13 B4 C0 47 5E
DPCM : B5 54 55 FD E4 0B 4A 2F 2A 24 C8 55 5F 7D 0A 11 41 D7 D8 57 FD FB 42 00 04 58 E1 FF FE 47 15 A0
DPCM : 84 A2 BC AB AA 74 6B 13 15 D9 2D 12 A8 F6 AF 45 BB F2 0A 48 81 F2 D5 B7 15 50 80 5F DD 85 F6 AA
DPCM : 02 04 55 55 55 55 55 55 55 55 55 55 55 55 55 55 55
DPCMDEF  32  2209 "FCAcool"
DPCM : 57 55 45 11 6D 77 6B 4A 24 49 6D 6B 55 35 95 52 6B D5 4A 25 AA B6 6D 55 AA 4A 95 A4 D6 76 6B 95
DPCM : 24 A5 CC 6A 5B 55 92 52 5D BB 92 84 54 77 5B 55 55 94 A4 92 AA 7E F7 8A 44 29 55 6B 55 55 55 AD
DPCM : B4 D5 4A 44 D2 76 5B 4B 54 55 5D 51 51 DD 6E 12 45 B4 B6 B5 2A 55 95 92 B4 DD B6 44 55 55 AB 54
DPCM : 49 D5 56 55 A9 B6 AD 22 A9 5A 6B 55 2D A5 52 52 EA F6 56 10 49 6D B5 6A B5 5A 55 51 49 5D 55 55
DPCM : 55 55 D2 D6 56 14 48 B5 DF 6F 95 10 55 AA 52 6D 55 B5 AA 25 55 65 5B 4D 44 A4 7B 6F 95 24 51 6B
DPCM : AD 52 A1 54 AD 6D B5 66 A9 95 24 A9 D6 56 6D 52 22 ED B6 AD 24 A5 AC AD 55 5A B5 26 91 54 5D AB
DPCM : 54 AA 5A 5B 49 2A 55 2B D5 B6 AF 12 92 A4 AA AA EA B6 5D 22 01 B5 BE 55 6B 5B 2A 49 25 54 D5 D7
DPCM : 6A AD 56 AA 2A 49 52 6D 77 35 49 81 94 DA B6 55 57 4D 52 49 A2 D4 BB 75 95 56 52 55 15 81 6A FF
DPCM : BB AD 90 20 55 55 AA DD BF 15 11 91 84 B4 6B 55 B5 5D 3D D5 12 44 D4 AE A5 6C 5D 95 52 92 5A 75
DPCM : 4D 55 51 4D AA 64 AF B6 6A D7 2A 41 44 B4 DD 7D AB AE AA 00 40 E4 BB 5E B5 4D 5D 92 14 52 9A AA
DPCM : ED FF 57 00 48 59 AB D2 A8 5A 57 13 29 EF BE 82 12 D5 CA 4A 5A 6D BB B5 8A AA 42 20 C8 FE DD AB
DPCM : BD 76 02 00 E0 FB 5D 29 A5 DA D6 0A 21 49 A5 EA FF DF 24 48 54 15 95 64 6B D7 54 22 EF DD 12 14
DPCM : 4A A5 DA 57 DD 6A AD AC 44 44 D4 DD AD 22 51 D5 BD 5A 80 54 6D 6B 55 AB 52 55 2D 55 A0 A5 B6 D7
DPCM : 4D A4 D5 BF 24 50 92 56 D5 AA 54 5D DB A9 56 25 84 76 7D 44 50 77 2B 2B A5 64 BB B5 42 6A 55 55
DPCM : 6C 5B 09 22 75 7F AB 84 D0 76 17 A5 D0 77 55 94 6C 7D BD 42 50 55 29 49 FF 6D 02 A0 FA AF 4A 08
DPCM : B5 B7 0B 41 D4 DF 2B 4A 55 4B 2A AA 57 55 89 7A ED 93 42 A8 DE 5D 44 D4 F2 13 95 D4 56 D5 54 95
DPCM : 95 0D 55 B5 55 54 AA D5 95 52 C0 6A 5F AB 54 55 15 92 DA D5 4A 75 7F 57 09 20 51 BF 45 05 BD F5
DPCM : 4D A9 92 04 25 FD ED 8A 14 CB 6E 9A 84 6A FF 15 10 D8 DE AD 48 A1 1C B5 A5 56 6D 55 55 DB 0D 45
DPCM : 74 FB 26 20 48 7F FF 08 04 DA DB 95 9A A4 AA F6 4F 42 08 D9 76 5B 45 A8 76 97 04 A4 BF DA 52 4A
DPCM : B4 F7 5F 4A 24 42 82 FF AB 82 88 56 5F 57 13 D9 B6 0A 11 F7 7A 4B A4 04 D5 DD AD AE 12 00 B0 FF
DPCM : 97 24 A4 DD 3E 35 64 E5 26 25 B2 AF 5E 10 55 DD D5 55 5D 29 01 40 F9 7F 17 40 6D FF 15 01 94 BD
DPCM : EF 92 A4 5A 49 00 B0 FD EB 7D EF 22 09 00 C2 FF 17 A0 FF FF 03 00 49 A0 A7 AE E8 FF 4A 00 EC BB
DPCM : 22 DB FA 24 09 11 E1 8E 24 74 FF 7F 01 41 58 DB 3F 65 D9 2F 48 C0 2B 4B D0 FF FF 13 88 00 24 15
DPCM : A8 FA FF FF 03 80 42 57 1B 90 FA 7F D5 84 4A 00 EE FE AB 05 55 A0 69 77 55 F5 5B 2A A0 42 ED BF
DPCM : 17 00 EA BD 55 41 00 D2 FF FF 45 54 22 00 D9 3B 55 77 BF 49 0A 41 A4 FF 2B 04 D0 FD FF 15 00 D6
DPCM : 5D 2A C9 4F 54 A2 BB 54 55 2B A5 AD 1A 81 FA FF 09 00 E8 DD D6 4A D0 6B 3F 09 A9 56 49 B0 56 95
DPCM : D4 DF FB D3 02 00 D8 FF 03 81 FD EF 0A 48 A2 DD 15 21 EA AE 2C F9 D6 12 49 66 5B 3F 41 80 FF FF
DPCM : 00 C0 96 9A A8 D5 F6 FF 27 00 24 59 40 EB 5F 35 D5 A5 EA AA 02 6C FF 11 01 50 B7 DD 97 12 B1 DB
DPCM : 02 12 6D 6B F5 FE 14 A0 C8 2D AD 54 65 F7 FF 01 00 80 DB 5F 7D 64 91 49 92 FE 75 09 E9 85 0A 50
DPCM : DB B7 5D 51 F5 FE 0F 00 00 F4 F5 EE BF 56 01 00 80 FF 1F 21 FD 57 AA E0 05 2D 54 E2 FE FE 83 02
DPCM : D9 52 01 EA DE 56 88 D0 FF FF 03 00 B8 FC D4 4A 5D D4 4A DD FA 3B 01 00 B0 7A AB FB BF 11 00 C0
DPCM : ED DF 10 00 F6 FF 9F 80 16 50 C4 FF FF BF 48 04 80 80 DA F4 FF 5F 00 04 FF 6D 05 11 DA FD D6 02
DPCM : 85 2A BD DC EB 07 29 44 22 B4 B2 BA FF 2F 10 41 95 AF 36 55 6A F5 24 01 97 FE FD AB 0B B4 C8 02
DPCM : 90 E8 9F 35 2B 2D E0 A5 37 D2 C9 15 55 FD 85 04 B0 FD 9F FE 00 14 7C 47 98 F8 ED A3 C2 44 55 FF
DPCM : A5 40 2A 55 4A 6F AA A4 D7 7D BD 4E 00 C0 57 07 B4 7C 55 B0 C1 05 5A FF A5 84 FD 55 45 56 B2 72
DPCM : EF 4D D0 94 5F 60 03 17 B0 E7 7D 2D 48 A2 DE AB 12 21 AB DE 6E 80 80 FF 5D 49 EB 94 44 6D 35 09
DPCM : 51 7F 6F 6B 01 04 FD 5B 01 D8 EB 9F AC 92 D4 F6 CB 08 52 55 DA D7 05 12 6A 6E B5 11 02 49 FF 1F
DPCM : 15 E0 4B 6F 55 24 F0 FF 7F 84 48 9A 6A 5B 10 81 BE 5D 2B 69 C5 17 FD 82 01 70 F5 7F AB 4A A4 2D
DPCM : 59 10 C1 53 B7 37 FD A9 01 01 28 DA F4 FF FF 03 08 78 59 27 95 90 FA 97 5E F8 47 84 A8 B6 51 D1
DPCM : AD DD 02 15 F0 57 2F 00 80 FE FF BF A8 82 24 01 9F FD 84 57 FD 0F 8B D0 29 AA 00 00 FE FF 1F 54
DPCM : 75 2F 35 22 05 D9 FE D1 13 7D 01 08 BE 31 D4 F6 FF 16 00 00 F0 FF 4B AA ED BF BD 05 01 A0 56 2B
DPCM : 6D 55 C0 6F 7F 21 69 CD 45 4A 2A 80 FE F7 03 2D 75 91 5A 53 02 D2 FE AD 1D 2A 41 E3 5F 35 51 FF
DPCM : DE 00 80 54 6D 95 A0 B6 FD FF 29 05 11 01 52 FD 75 D5 AA BF 54 00 91 5A 7D 90 A4 EE FF 8A 00 A8
DPCM : F4 BF FF A1 02 28 D2 D3 1F 2F 50 64 AD B5 51 2D 59 45 9B 5A 55 B5 44 22 F5 FF DF 04 00 00 A0 FE
DPCM : FF FD 9F 10 50 5D 40 60 FF 6F 4F EC 64 07 11 00 C0 FF FF 1F 91 02 82 FA DE F6 82 4A BA 5B 00 5A
DPCM : 7D 25 89 6A FD D6 03 52 EF FF 00 04 5A 00 A8 EF FF FF 01 01 2C 7A 00 F4 FF BF 28 A9 59 01 08 F8
DPCM : FB 7F 4E 90 2C 01 42 FE FF 13 58 E1 FF 1E 00 80 FF 43 C2 A6 97 5E FD A0 AF 0E 40 A0 0B 10 F8 FF
DPCM : FF 07 20 C1 D7 15 29 FD FF 22 00 0B 26 58 AB 7F FE D3 9B 06 01 00 E0 FF FF 03 14 F5 57 13 80 DE
DPCM : B7 2A B4 90 A2 FE ED 32 D1 2A F5 80 00 C0 FF FF 0F 01 56 54 53 BB 56 FF 7C 40 42 05 A0 FA BF 64
DPCM : D5 FF 1F 00 00 80 FF FF 03 E0 F5 03 10 FE FD 62 49 13 A9 90 97 FE 54 01 F8 FF 7F 00 00 E0 FF 3F
DPCM : 54 D0 94 00 B4 FF FF 92 AC 40 05 D8 EE BF 24 00 FB FF 0F 00 00 BF 7D 5B 50 A5 13 24 FA FF 17 A0
DPCM : 95 4A 40 F5 76 5D B2 04 FF FD 01 00 80 FF FF 56 A8 48 03 DC 7C BF 2A B4 D0 85 46 F4 67 5F 00 0C
DPCM : FE F7 00 16 5F 5B 2D A9 04 2C 68 F7 FF 7F 00 41 15 00 C0 FF FF 5F 55 45 05 55 28 45 6F 9F 54 3D
DPCM : 35 00 68 FF AF 94 34 A4 00 AD FF FD 03 05 50 65 89 EA FE DF 04 A4 BC 55 00 80 FF FF FF AB 10 00
DPCM : 00 A0 FF FF 3F 68 95 04 00 FC FF 27 01 2D DD AD 00 C8 7C 3F D8 55 0B 00 6A FF F7 AD A0 90 01 80
DPCM : FA FF FF 0F 00 A8 5D BD 00 55 FB 9F 3D 05 00 80 DF 5F D9 A7 3F A1 00 00 FC FF 1F 80 54 75 5D AF
DPCM : 40 40 ED 5B B7 DD 02 B6 75 03 4A FF 6F 00 00 84 FF FF 0F 00 C8 9F FA A1 05 B0 BE AD D4 0A 0D F0
DPCM : D5 0A FD FF 1F 00 00 D0 FF 7E 00 E0 FE B5 17 1D 00 3E FE 83 8E 3E 29 95 55 00 B6 FF 17 48 01 AE
DPCM : FE 2B 09 78 D1 27 77 5B 41 11 B6 D5 5A 15 55 1D 4B A0 FF FF 0F 20 A0 AA 7D 2A 49 55 28 E9 77 5D
DPCM : 04 51 EA CB 5F B4 11 25 00 AB FF FF B4 60 02 A0 95 7B 76 64 42 ED FF 2E 00 85 2E 52 DB FB BB 82
DPCM : 00 D0 7E BF 2D 12 A0 60 6F DB 4B 02 80 FE FF 07 4A 78 D5 87 2A 64 D7 15 01 D8 FE BF AF 90 02 30
DPCM : F4 ED B7 49 92 AF 3F 10 00 14 5A 6B F5 D5 5E 09 00 68 FF 7B C9 42 4D F6 12 55 29 15 D1 77 7F 40
DPCM : A1 5D B5 CA AD 54 4D A0 02 FF FF 2F 05 10 A0 90 BF DE AA 25 55 55 17 45 4A E8 A9 FF B6 44 09 21
DPCM : E4 7F 7F 41 94 80 5B DE 49 4B 3F 0A 44 D0 AD FF 6E 09 50 D5 55 11 0A 64 F5 FF AF 12 48 00 DA ED
DPCM : DD DF 0F 00 01 BA F5 7F AD 00 04 7E 6A 95 41 A4 FE FF AA 54 42 12 55 5B B1 FF 0B 00 00 C0 FE FF
DPCM : 07 00 D4 AD B7 54 12 E4 F6 7F 2D 10 44 48 7B A9 FF FE 03 00 00 E8 FF FF 13 00 80 FE 52 97 AC 5A
DPCM : F6 EA 01 54 B0 0A EC F6 FF 8B 04 00 00 FF DF FB 00 00 C0 FE FF 02 D3 96 4B 14 55 45 52 97 2A FD
DPCM : 8F 14 00 00 F2 EF FB 2F 00 00 80 B6 EF B7 B1 A8 02 2A A9 5A E4 42 B0 F6 3F 18 00 00 E8 A7 7A 14
DPCM : 18 01 80 BE ED A6 00 44 02 11 69 A9 B8 91 88 DC 45 04 00 40 14 03 31 01 00 00 00 42 71 55 11 51
DPCM : 55
DPCMDEF  33  2209 "GDBcool"
DPCM : 91 52 ED D6 5D 29 52 4A 55 6A 55 B5 D5 AD 4A 11 C9 DA 75 AB 56 51 49 95 56 D5 24 5B 55 25 BA 56
DPCM : AB 54 4A 5B 2D A5 56 9B 54 55 55 08 55 FB 6D 29 D5 DE 44 54 B5 9B 24 55 B5 49 92 DA 5D 53 29 25
DPCM : 22 75 DF 2B 12 75 5B 43 48 6D 57 95 5A B7 09 01 ED DE DB D6 12 10 A4 DF 55 11 A9 DB B6 8A 54 95
DPCM : 84 EA F7 4A 24 A9 D6 D6 AA AA 94 24 7D 5F 49 A4 52 6B ED 54 49 15 B5 75 5F 42 12 D5 AA AA 55 55
DPCM : 25 D5 6E 2B 81 20 DF 57 55 6B 2B 52 55 6D 93 04 A9 FE 6E 4B 95 48 54 5B AB 52 52 75 6F 85 94 B4
DPCM : 92 6A DD 56 44 90 F6 77 8B 94 D6 EE A2 A6 94 24 52 5D 6D D5 52 6D AB A4 AD 44 80 F6 F7 2B 91 94
DPCM : 55 09 D1 7D 4B 48 F6 D7 0A 41 D5 77 AB DA 2A 10 50 7F 9B 14 E9 DB 96 D4 EE 22 00 D0 FF 2A 91 FA
DPCM : 5D 09 A5 55 11 A8 FE 5F 05 41 7B 4A A9 FB 1F 25 50 AD 44 20 FB FF 44 D2 BE 05 00 D2 BF 5D A9 B7
DPCM : 15 42 54 57 95 C8 76 2B 01 D4 FE 2D D5 DE 1B 01 D4 76 13 20 F6 BF 42 92 DD 4F 22 D5 2A 05 69 FB
DPCM : 6D 95 EC 15 01 80 FE B7 4A DA D6 0A 45 DA B6 94 E8 6D 89 10 F9 B6 AD E9 5B 09 04 EA EF 96 50 54
DPCM : AD AA D4 ED 5A 49 AA 92 6A 6A B5 6A 25 55 53 04 A8 F7 57 AB 56 69 95 54 D2 6F 0A A1 5A 25 6D DB
DPCM : CE 24 25 5D BF 42 4A DD 48 55 75 25 25 5A 75 2B 95 22 9B 54 7D FF 15 00 A4 F6 55 25 D1 B6 AD BA
DPCM : D4 12 A9 6C 5B 6D D9 02 05 90 FF FF 03 20 75 5D 54 65 51 15 BA DE 57 01 A8 F6 B5 B6 95 10 90 FE
DPCM : FF 05 00 DE 52 89 FA FD 2E 20 D5 96 12 A8 BB 5B 77 6D 02 00 C0 FF FF 82 7A 2B 00 E8 7E 4B A1 D6
DPCM : 36 95 A8 B5 AB DA 6B 13 80 F4 7D 47 40 AD 5A 00 E9 FE BF 15 48 95 54 52 6F FD ED 4D 00 00 E0 F6
DPCM : DF 5A B5 2D 41 00 6D 7F 6B 5A AB A5 10 A2 7D 7D 51 23 25 A9 DD 55 94 D4 2D 95 90 EE FB 57 00 55
DPCM : 42 44 FB DF FD 4A 08 80 44 F6 FD B7 B2 2B 24 80 24 A9 FD 77 5B 29 14 E2 5D 3F 65 95 94 54 55 D5
DPCM : 6B 15 80 E4 7E D5 A6 5A A5 54 11 91 D2 ED FF FF 00 00 88 A0 DF FF D3 15 51 84 14 D1 7F 77 42 B5
DPCM : 5F 10 81 FE FD 2B 40 40 54 B5 DF 57 48 AA 45 44 FC EF 07 52 52 25 91 C8 FF FF B6 A4 05 00 B0 FB
DPCM : FB BF 04 00 48 95 7F B5 D4 BD 14 A0 55 57 ED A6 94 54 00 21 FF FE D7 16 90 68 6B 55 B5 ED 5A 01
DPCM : 00 F6 FB A7 DB 36 89 00 90 E4 FF FF A5 00 00 5B AA 2A DF BD 2A A4 04 A5 F4 FD FF 15 00 20 D0 DF
DPCM : F7 3F 15 80 65 6F 29 12 A9 6A 67 56 65 55 F6 EF 0B 00 00 50 ED FF FF 15 00 00 FE FF 4B 4B 34 D1
DPCM : AF 10 00 D9 FF FF 07 00 00 15 FF FF 13 80 AA BF 6D 25 15 01 00 FE FF 8B A0 AA 7F 2A 04 21 D5 FF
DPCM : FF 25 00 D4 A4 97 FD FF 12 00 80 FF 05 01 DE FE AB AA 08 45 D0 BB 52 A4 D7 0D 68 7B 7F 01 00 FA
DPCM : FF 57 93 04 05 F4 FB 2F 90 42 57 D0 4A 5F 55 A7 BF 2F 01 80 A4 9A 64 DF 15 89 F4 6F 17 24 BA A8
DPCM : 83 FA F5 57 22 54 93 5C FC 5D 41 A5 2D 21 80 B6 FF BF 2A EA 06 00 A0 3D D5 F6 5D F6 83 05 51 13
DPCM : D8 7E 4F 90 EC 56 DF 6D 80 80 82 FF FF 05 00 FA 3F B1 46 59 55 25 B5 FD 00 00 A0 FE FF FF 01 00
DPCM : F0 9F 25 82 FE FF AA AA 9B 00 00 E0 FF FF 02 00 58 FF FF 2B 00 A0 7F 5D C0 66 2F 44 B2 FF 0B 00
DPCM : 80 FF FF 01 00 94 FD FF FF 05 00 40 15 D5 FD FF 8A 50 7F 12 00 F8 F7 2F 49 44 00 C0 FD FF 7F 00
DPCM : C0 5F 8A 54 F5 56 B5 EF 05 04 F4 BD 92 94 6A 10 04 FD FF FF 00 00 6F 5A E5 5F 6D 81 3E D9 00 68
DPCM : 5F 55 A1 2F 05 00 D2 FF FF 0F 50 55 95 D8 D6 52 72 D5 AF 0A A0 7A 5B 52 B5 13 25 BA FA 93 12 A1
DPCM : 27 54 F0 7F 47 80 5E F7 45 24 76 FF 50 01 96 80 AA FF DF 45 4A D4 4A 15 B5 55 D2 FD AF 04 00 EC
DPCM : 7F 13 04 D8 AB AE 74 55 81 56 E9 57 B5 A2 F6 4A 17 BD 11 12 E4 37 B7 48 15 A9 84 B4 FF 7F 00 25
DPCM : FF 13 05 80 2A FF BF 57 00 80 FE 55 15 D9 6A 45 B2 FD 4F 0C E0 A9 55 40 DD F7 52 D5 EA 06 54 B4
DPCM : DD 44 57 7A 01 00 F0 FF BF 96 DA 02 21 D4 AF B4 D2 7F 2D 80 5A 5F 10 D0 7E 3F 10 E8 DE 43 A4 57
DPCM : BB 40 59 FB CB 12 2A 09 A0 FF FF 03 40 5D 35 01 C0 FE 7F D6 ED 8D 00 01 A1 FF FD 2F 11 00 E8 DF
DPCM : 0B 50 7D F5 C2 96 6E 02 00 F4 FF FF 00 25 77 BB 83 00 80 FF FF BF 16 00 00 00 ED FF FF 13 42 69
DPCM : EB 05 01 F0 FF FF 09 02 00 EA FB 9F 2C 44 5B D5 EE F6 00 00 00 FF FF FF 82 20 11 2A 51 BB DF FF
DPCM : AF 02 00 00 80 F6 FF FF 0F 00 80 DF 2E 6D 7B A5 94 5B A2 94 54 A5 AB 7D DA 01 55 FF 05 00 00 F4
DPCM : FF 7F FF 37 00 00 80 FE BE F6 6A 07 40 00 C8 B6 FF FF 3F A8 00 00 D1 FF FF 09 A0 B6 2D 11 D4 AE
DPCM : AA A0 D1 FF DB 2E 58 02 02 90 6E FF DF 1B 01 01 4B 6A DB FF 5F 2E 00 00 D9 95 FA FF 0D 80 44 F5
DPCM : B5 02 52 BF F7 85 0A 59 BD 07 14 D0 F6 65 4B DA A7 12 20 B8 EF BD C9 5E 54 12 45 0B FD 6A 8B A8
DPCM : D6 54 81 4A FE FD 03 AA 7A 89 12 69 B1 57 5B 51 15 5A DA 55 81 9B F6 A6 FE A8 41 94 5C 55 49 A0
DPCM : F5 D7 1F 04 81 EA BF FE 48 D1 4D 0A 92 6C D2 A7 2D 59 17 5D 40 09 FC FF FF 00 80 F4 D6 57 01 68
DPCM : F2 B6 AD 52 55 55 29 D9 5F 55 00 F4 FF 7F 00 00 60 FF EB 95 EA 44 24 C0 DE FF 93 00 4A FF 9B 00
DPCM : 80 FD FF 0F 00 40 FF 64 D3 DD 0D 44 D4 FD FF 25 00 00 6A 7F 15 C0 FF 7F 02 A0 D2 57 A5 DA EF 45
DPCM : 00 B0 EE 6F 1B 01 00 FE FF 44 15 7A FF 92 54 D5 02 DA 64 13 89 10 F9 FF BF 3F 02 00 E0 DF 4A 55
DPCM : B4 6A 2D 55 51 81 FE FD A8 80 07 3D B5 DA EF 16 00 E8 7F 0B 95 14 69 9B D6 54 15 EC FF 92 00 1C
DPCM : A2 DA FF FF 05 00 80 5F 4F 74 75 A4 45 9F 16 20 F0 FF 7F 64 A7 04 00 F5 7F 05 01 F0 BF 55 FF 2B
DPCM : 00 A8 FF 16 10 48 FD 85 12 FD 25 82 FF FF 03 40 A0 A9 96 FF 7F 02 80 F6 07 15 D0 F6 5A 65 BF 0F
DPCM : 00 DC FD 01 15 D8 C2 8A FB BF 00 E0 FF 7F 00 15 55 00 6C FF 5F 48 F4 BF 02 92 56 A5 A4 FA 4F 02
DPCM : A8 7B 97 54 ED 22 01 D8 FF 7F 00 A0 B5 9B B5 66 45 09 F2 57 4B A8 DF 5D 55 4A 01 08 72 FF FF 05
DPCM : 50 70 8B DE CA 0B 55 E8 55 17 68 A7 95 14 F9 5B 17 40 7B FF 09 90 48 B6 FA 4B A5 20 AA F6 2D D5
DPCM : DB 13 8A F4 0A 25 A0 B6 DF 13 55 B5 D2 4A 55 A5 54 A5 6D AF 55 4A 52 20 77 75 6B 35 91 4D 2D A5
DPCM : BA A4 95 BE 24 51 40 BD FF 07 56 A8 1A AD 6D 51 45 28 54 75 E5 F7 AB 15 AA 09 28 42 BB FF 96 95
DPCM : 68 80 DA DA AD F6 84 12 2E 75 B7 A4 24 F7 48 91 E8 56 F7 A5 10 49 E5 7F 5F 41 55 09 01 D4 BE 6D
DPCM : A9 D6 EF 06 00 A5 7E F8 27 0D 50 AB F7 4F B4 54 09 01 F8 FF 9F 00 80 ED 5B 15 7B 55 52 AB 4B 14
DPCM : A1 AA DF DB B7 04 00 80 FF EF 40 08 FD D5 2A FB 6B 00 8A 57 A8 D4 B6 56 F5 6B 2F 00 00 FF FF 00
DPCM : 95 AA 06 DC 75 3D C0 AE 5E 14 F8 65 2B D5 B7 2E 00 E8 DF 17 50 68 35 85 D4 FC BB 41 A5 0D 25 E8
DPCM : 5B D5 4A FF AA 00 00 F6 AF 5A CD 16 09 FA F6 52 82 76 FF 52 09 29 81 9A FB B7 01 B0 D4 4F D5 2D
DPCM : 25 90 B5 7F AD 00 A5 7C C1 55 57 24 D1 FF BE 40 22 D2 96 B7 BF 33 00 A0 5B B6 A8 A9 DB 9E AC 52
DPCM : 40 45 FF FD 48 89 54 42 56 E8 97 AA DA 9A 54 A2 4E EC D5 FA 8D 52 90 5A 55 55 55 55 AA 4D 9D 54
DPCM : 48 53 5F E9 AA 8E AA AA 74 A5 01 85 FA EB AB 56 00 94 FA 55 4F D2 56 4D 50 D4 56 49 BA F5 AF 50
DPCM : 00 54 74 DB 7F 93 90 5D 5D 41 04 9A E4 0A FF FF 44 40 5B 55 55 55 55 AD FE 74 01 00 F0 FF 5D E8
DPCM : 46 08 00 ED 7F 4B 25 F7 7D AA 00 01 C0 7D FF 03 85 FC BB 94 A0 56 91 82 FE 7B 3F 01 10 F0 A9 FE
DPCM : 49 10 5E DB 01 02 D8 FA 5F BD BA 01 00 E0 EF 3F 6A F4 D5 85 94 10 00 7C EF 8F 0A 55 BD 6A 50 AD
DPCM : 49 00 D6 FF 1D 09 00 8A DA 6C 35 41 32 FF 1F 02 00 A4 FE FF 5F 03 00 40 FF 4C 41 57 B7 4A 2A A9
DPCM : 12 00 FE DF 1D 2D 92 00 34 E9 4F 48 80 CE FF CB 27 00 00 B4 FB 9F 10 61 CB 26 50 50 6A B9 E9 03
DPCM : 0B 12 00 1B 5E BE 3F 00 00 F4 05 80 C0 6F FB 4D 11 15 59 01 47 44 AD 02 AD BA 2B 01 00 34 AD 2A
DPCM : 55
DPCMDEF  34  2193 "F#DAcool"
DPCM : 5A 55 AB B2 2A 95 92 D6 56 D5 AA 52 92 6A DB D6 12 95 AA 56 D5 B2 AA 52 55 55 55 55 55 55 55 55
DPCM : 6D AD 44 21 B5 6E 6D 2B 25 25 B5 D5 AA 54 4A AD AA 4A D5 55 AD AA 4A 55 AA 55 55 55 55 5B 4B 49
DPCM : A9 D4 5A 6D AB 24 49 AD 55 D5 6A A5 94 AA 5A 95 AA D6 B6 24 25 B5 66 29 6D 55 4B 55 AA AA 54 6B
DPCM : DB 4A 54 55 AB 52 55 6D 95 4A 55 4A D2 BA 6D AB 12 55 55 A5 AA B5 56 49 55 55 55 55 AB 29 A5 AA
DPCM : 56 55 AA 55 55 55 55 55 49 55 6D A5 AA 56 B5 6A A9 55 4A 49 DA D6 B5 AA 4A 49 92 EA 56 55 55 B5
DPCM : A5 94 AA 55 55 55 55 55 4A AD 56 55 D5 5A 95 14 52 B5 B5 75 5B 24 A1 6A 75 D5 D6 54 2A D5 52 A5
DPCM : 52 DB 6E 15 51 52 D5 D6 AE 56 24 95 24 A5 DA DD AE 0A 05 6A EB ED D6 0A 11 52 6D 2B 55 D7 BD 95
DPCM : 10 25 A5 56 DB AD 52 52 55 55 52 B5 DD 2A 11 D1 B2 5B F7 26 42 48 6A B5 B5 D6 76 4B 41 A4 9A AA
DPCM : 7A DF 4A 48 55 2A D5 DA AD AA 48 51 55 6B D5 BE 8A 90 54 6A AA B6 B5 55 95 52 A5 54 CA DB 5D 42
DPCM : A4 56 AB AA 55 4D 55 4D 55 A9 6A EB 96 24 49 DA B5 56 49 55 55 55 55 92 DA 76 57 49 52 55 4A 52
DPCM : AB 6D 5D 2B 91 4A 6D B5 4D 92 50 B5 AA DA B6 55 55 55 24 55 5D AB 36 AA A6 56 49 A4 B6 6D 69 4B
DPCM : 8B 14 DA D6 4A A9 5A 55 24 E9 DE 97 14 95 2A A5 B5 D5 4A A4 BA AD 92 54 5B 2B 55 D5 4D 2A 55 6B
DPCM : 95 AA DE 8A 80 C8 7D 6D 52 55 B5 54 A9 6D 16 A1 6D 2D 11 E9 DE 56 49 6A 55 4B 21 55 5D A9 F7 6E
DPCM : 02 A9 B6 5A 44 B5 76 6B 25 55 52 55 D5 AB 44 89 74 5B 55 A9 B5 4D 08 D2 F6 6D 6D 49 A5 44 55 5B
DPCM : 15 A0 F4 7F B7 52 A9 10 49 EC BE B5 22 55 AD 7A 55 55 10 00 ED FF 97 2A 55 95 54 55 25 A9 AA DD
DPCM : F6 12 51 9A 92 C4 FA 55 55 AA B4 75 B7 2A 0A 01 98 FD F7 8A 74 FB 15 01 51 A9 04 E9 7F AF AA 6A
DPCM : 27 41 A1 6E 5B 04 D4 FF 2F 09 52 01 48 FD FF 2F 40 6A AD 49 90 BD 55 A8 F6 5E 50 68 DF 2A 84 BA
DPCM : 56 42 EA FF BF 42 40 04 84 F4 FF BF 00 D8 FD 09 24 B6 14 D1 FA DD 8A 44 5D 5F 41 D4 76 0B A0 DA
DPCM : AF 56 D2 2A 45 50 FD 6F 05 D2 FE 2B 81 54 55 55 D5 DB 05 08 74 7B 53 92 76 27 15 EC FD 16 41 AA
DPCM : 16 00 F5 FF 8F 10 75 5F 15 54 D5 1B 94 6A 55 00 B1 FF FF 13 A1 94 4C 25 6A 6D 55 D5 DA 42 84 7A
DPCM : B7 4B 44 D5 AE 94 A8 56 6B 55 B7 12 11 F2 6D 6B 92 AA B6 AB 2A B2 43 2F B2 45 25 20 FB DE 49 DA
DPCM : F6 9B 20 25 55 A1 D2 57 25 42 FD BF 0A 11 A9 D4 D6 96 5A 4A D5 76 6F 11 4A B5 45 4A 6A EB AD 26
DPCM : 95 54 15 DD 4B 12 80 FF FD 6A A2 48 A9 55 55 55 95 69 57 12 00 FC FF AB A4 96 56 2D 55 54 A2 76
DPCM : FF 09 00 C0 FF BF A2 2E 50 80 F6 A5 DF FE 9F 00 00 00 FF FF 03 24 49 AA BE 6D 49 E8 D5 14 40 ED
DPCM : FF 37 41 CA 95 1A A9 55 35 F5 DB 02 00 C0 FF FF 5F 02 80 28 BB 6F 6B 89 B6 50 80 E8 FE F5 4A 55
DPCM : 94 26 52 69 B7 ED 77 15 00 00 F8 FF FF 2F 00 00 60 FF 7F 2D D5 16 10 C8 7D BF AA 22 54 02 B5 55
DPCM : 57 55 D5 16 15 00 A6 FF FF 9F 22 00 48 F5 77 B5 D5 64 05 A5 AA 6A 2D AD 84 5A 75 55 55 BB 4A 95
DPCM : 44 16 EA EB 7F 2B 00 11 29 8A DE 6D 95 5C FB A6 0A 52 B5 AA 16 D2 42 5D DB FF AC 00 2A 95 80 EA
DPCM : FF BB 0A 21 01 4B F6 D7 45 56 56 3B 04 68 FF 5B 25 4A 00 A5 FF FF 8B 02 49 A4 84 AE FD FF 8D 00
DPCM : 00 70 FF 57 91 5A FD D5 04 42 DA F6 57 11 00 20 FD FF 6D A9 26 04 21 AA ED DF FF 4B 00 40 6D 75
DPCM : 55 5D 69 57 5A 90 14 F5 7D 2F 00 00 27 FF DB 6F 03 11 51 2F BA 59 FF A9 00 00 5A FB 5B 55 95 75
DPCM : FB 03 0A 00 B7 FE 26 15 54 DF FF 68 05 15 80 9A AA 12 FF FF 07 00 C0 D7 B7 AE 48 09 F4 DE 17 22
DPCM : 7A FF 04 00 DB B6 F6 D5 0A 20 02 BF F6 52 E9 4F 17 00 5E 75 45 57 6D 22 A9 BF 1F 40 00 FF 56 15
DPCM : ED 52 55 FD 3F 00 00 F8 B7 4A B5 B5 52 B2 DD 5B 64 35 42 00 A0 FF FF 57 80 4D CD 2A 89 10 F0 FF
DPCM : FF 03 80 D4 D6 7D 7B 01 04 40 F7 FF BF 55 00 00 E0 FF FF 92 04 81 AA DF 55 02 44 FD FF 5F 89 08
DPCM : 00 80 FE FF 4A 6A 55 6F EB 16 12 00 A5 DF D5 84 BE 92 52 7F 2D 00 48 8A 5D FD FF 47 00 00 FE B7
DPCM : 2F 10 24 FA D7 3F 08 01 68 FF 6F D5 52 16 80 84 FD 6D 5F BD 02 54 FD 3F 00 00 ED AB 75 25 29 50
DPCM : FB FB 27 10 D0 D0 86 E8 FD FD 94 34 51 05 AC FE AF A8 34 55 01 28 FD FF D7 13 0A 00 00 FF FF 87
DPCM : 96 7C 01 D4 D5 3F B0 90 56 08 90 FA FF 03 B8 FF 05 00 CB 5E D5 B7 AD 00 40 FF FF 27 80 F6 05 08
DPCM : F5 56 52 F4 D5 49 57 FA 07 28 00 FF 7F 00 E0 FF 25 E9 8E 04 00 FA FF 29 C1 2D 99 C8 FF FF 05 00
DPCM : 88 48 FC FF 1F 41 90 F7 7E 05 90 75 D5 14 BD 01 00 E0 FF FF 1F 30 40 02 7C FF 17 55 55 01 92 FF
DPCM : BF 1F 00 D0 F5 0B 02 00 AB FF FF 3F 00 00 F8 FF 57 50 B2 25 15 DE 5F 75 41 05 00 C0 FF 7F 80 42
DPCM : FF FF 09 00 00 FF FF FF 01 00 E0 FF 37 02 65 5A 95 D4 BD 0F 50 41 13 D8 BE FF 07 00 B2 77 AD 40
DPCM : 80 4E FD FF 4F 00 40 EB 57 28 82 7F FB D2 BF 56 00 50 89 00 F4 FF FF 85 4A EF 4A 44 54 49 55 7F
DPCM : 5B 00 00 FF FF 01 08 F0 BE ED 9F 2B 00 20 FF 09 A0 FF FF 1F 60 82 05 A0 D2 9D BA DE 9F 0A 00 FE
DPCM : FF 07 00 40 B7 FF FF 52 02 40 36 17 00 A8 FF BF 36 52 09 A0 EF F6 87 FE A7 02 00 F8 FF 57 00 81
DPCM : B4 EE FF DC 00 00 D5 6E 35 A9 BA AF 6B 51 25 04 A4 F5 57 56 2F 5D 00 6C E5 9F 3A 44 A4 FA FD 5F
DPCM : 2C 01 40 E8 2B ED D2 FD AD 04 A4 55 AD EA 5A 02 2A F9 47 14 A5 BD 6A 94 42 57 BB FB A8 02 81 A8
DPCM : 2F B7 B5 7F AB 00 00 3D 68 D5 5D 15 52 B5 F7 45 4E E9 42 08 9F 7E D4 F6 2A AB 04 01 C0 E9 FF FD
DPCM : 1F 02 00 F4 A1 FB FF 9F 00 00 E9 BF 6D 9B 00 00 F8 FF 1F 5D A9 48 44 0B AA 4A F4 B6 7F AF 04 00
DPCM : 10 B5 FF FF 4B 00 85 D6 D2 7E 43 00 E8 FD FF AF 00 04 30 E9 5F 15 48 FF 77 2B A9 04 14 F2 45 BF
DPCM : DC 0B 10 40 7B FB 55 04 40 FB FF FF 03 00 80 DD B6 15 BA F4 DF 46 58 51 28 82 5C D6 7F FB 05 00
DPCM : 00 FF 7F 69 41 A4 F0 FD 0A 4A 68 E9 6A 65 88 E5 7F 7D 01 45 92 A9 42 4E FA FF 7F 11 00 00 FD FF
DPCM : 64 00 CB FF 2A 2A A0 AB 2A 0F 59 82 BF B4 12 89 3E DD 9A 24 E9 FD AD 01 12 24 F5 57 2D 01 B7 FF
DPCM : 37 88 10 8D 7C D5 02 E8 FE FF 48 08 01 D5 6D 95 9D 6D 09 15 29 72 D7 3F 2D 10 C0 EE AF D4 B6 2B
DPCM : 02 55 15 02 FE FF 3B 00 80 74 FD FB 5B 92 40 59 AA 49 5B F5 22 25 D0 B6 5D F2 A6 17 48 A8 93 2D
DPCM : F8 65 17 4D B0 4F B6 64 1F 2A 41 AB 77 54 D5 AA 2D 33 92 30 D2 FD EF 4B 10 84 56 D2 17 55 40 A9
DPCM : DD FF A2 4A 2D 52 21 7B 51 11 CB 3E 55 B5 D4 02 00 FD FF 3F 44 2B 4A E2 AF 0F 00 E0 FB F5 AE 45
DPCM : 2B 08 62 6B 4B 48 7B 3F A9 C0 16 02 89 FE FF 2F C0 D5 02 A0 FF 1F 00 80 BD 4F FB FF 1F 00 00 EC
DPCM : 45 D2 76 BF 8A 08 D5 01 A5 FA 5F 14 D9 FB 02 00 FC FF 22 02 6C C8 BA FF 3B 00 80 FF 27 40 77 77
DPCM : 4B 5A B8 00 45 FA 5F 16 FD FF 01 00 C0 D7 96 54 A0 03 FE FF 3F 00 00 FD 2F 04 BC AA 6A D7 97 02
DPCM : 81 4E 2F AA D7 FF 07 00 70 FA E9 56 05 01 D9 FF 1F 20 00 FF FF 03 10 09 74 FF 5F 00 40 6C EE 95
DPCM : DC FB B5 00 00 6C 6F B3 41 00 B7 FF FF 01 00 F0 FF 1F 20 50 A2 ED DF 84 00 1A FA 57 55 7D 51 03
DPCM : F4 64 5B AD 0B 80 A0 FF FD 1D 00 22 FD C5 B6 16 50 E8 4F 4D 48 A3 B7 F7 22 0B 12 02 69 5F 5B 5A
DPCM : 45 01 A8 DB E4 EA 00 02 56 FE AA 7B 05 42 AD 5A A8 11 4A F5 BF 3F 22 02 59 75 73 B7 0D 01 00 69
DPCM : 34 DB 57 28 81 A2 BF B5 21 09 21 E9 15 9F 98 DA BB 23 04 00 48 0F EE F4 6E 64 C1 45 4D D4 EA 44
DPCM : 10 D0 FF 3D 00 48 09 8A E6 4F 90 80 94 C5 95 54 51 01 10 DC 1A 52 85 3C 68 C1 01 45 40 09 BF 9D
DPCM : 01 00 84 10 04 DD 0D 08 00 40 72 09 48 20 90 00 01 00 84 10 04 9D 0D 08 00 40 72 09 48 20 90 00
DPCM : 9A 42 00 90 A6 01 00 09 20 89 00 40 02 22 1A 40 00
DPCMDEF  35  2225 "1"
DPCM : 55 55 55 55 55 55 55 55 55 55 55 55 55 55 55 55 55 55 55 55 55 55 55 55 55 55 55 55 55 55 55 55
DPCM : 55 55 55 55 55 55 55 55 55 55 55 55 55 55 55 55 55 55 55 55 55 55 55 55 55 55 55 55 55 55 55 55
DPCM : 55 55 55 55 55 55 55 55 55 55 55 55 55 55 55 55 55 55 55 55 55 55 55 55 55 55 55 55 55 55 55 55
DPCM : 55 55 55 55 55 55 55 55 55 55 55 55 55 55 55 55 55 55 55 55 55 55 55 55 55 55 55 55 55 55 55 55
DPCM : 55 55 55 55 55 55 55 55 55 55 55 55 55 55 55 55 55 55 55 55 55 55 55 55 55 55 55 55 55 55 55 55
DPCM : 55 55 55 55 55 55 55 55 55 55 55 55 55 55 55 55 55 55 55 55 55 55 55 55 55 55 55 55 55 55 55 55
DPCM : 55 55 55 55 55 55 55 55 55 55 55 55 55 55 55 55 55 55 55 55 55 55 55 55 55 55 55 55 55 55 55 55
DPCM : 55 55 55 55 55 55 55 55 55 55 55 55 55 55 55 55 55 55 55 55 55 55 55 55 55 55 55 55 55 55 55 55
DPCM : 55 55 55 55 55 55 55 55 55 55 55 55 55 55 55 55 55 55 55 55 55 55 55 55 55 55 55 55 55 55 55 55
DPCM : 55 55 55 55 55 55 55 55 55 55 55 55 55 55 55 55 55 55 55 55 55 55 55 55 55 55 55 55 55 55 55 55
DPCM : 55 55 55 55 55 55 55 55 55 55 55 55 55 55 55 55 55 55 55 55 55 55 55 55 55 55 55 55 55 55 55 55
DPCM : 55 55 55 55 55 55 55 55 55 55 55 55 55 55 55 55 55 55 55 55 55 55 55 55 55 55 55 55 55 55 55 55
DPCM : 55 55 55 55 55 55 55 55 55 55 55 55 55 55 55 55 55 55 55 55 55 55 55 55 55 55 55 55 55 55 55 55
DPCM : 55 55 55 55 55 55 55 55 55 55 55 55 55 55 55 55 55 55 55 55 55 55 55 55 55 55 55 55 55 55 55 55
DPCM : 55 55 55 55 55 55 55 55 55 55 55 55 55 55 55 55 55 55 55 55 55 55 55 55 55 55 55 55 55 55 55 55
DPCM : 55 55 55 55 55 55 55 55 55 55 55 55 55 55 55 55 55 55 55 55 55 55 55 55 55 55 55 55 59 55 55 55
DPCM : 55 55 95 55 55 55 55 55 55 55 55 55 55 55 55 35 56 55 55 CF 50 D5 35 A4 74 56 A5 5A 55 55 CB CA
DPCM : AA B4 52 4D 55 AD 2A 55 35 55 55 55 55 55 55 59 A9 AA 55 35 55 D5 AA A5 AA 5A AD AA AA 56 4A 92
DPCM : 08 21 44 A4 FA FF FF BF B4 25 00 00 EC EF DD FF FF 89 00 20 10 00 00 40 50 FF FF FF FF FF 03 00
DPCM : 00 C0 DF FF FF FF 03 90 24 00 75 FF 27 00 00 00 00 FC FF FF FF FF 01 00 00 E0 FF FF FF 3F 00 80
DPCM : 44 EC FF FF 03 00 00 00 00 FE FF FF FF 1F 00 00 00 FE FF FF 7F 00 00 94 F4 FF FF 3F 00 00 00 00
DPCM : 00 FC FF FF FF 1F 00 00 C0 FF FF FF 0F 00 00 78 FF FF DF 0B 00 00 00 00 00 F0 FF FF FF FF 00 00
DPCM : C0 FF FF FF 16 00 80 FA 4F FF 7F 19 08 01 00 00 00 00 FC FF FF FF 7F 00 00 F8 FF FF AF 02 00 7C
DPCM : BF D2 FF 3F 10 31 01 00 00 00 00 F0 FF FF FF FF 01 00 FC FF F3 5F 04 80 7C D3 AF FF 3F C0 2C 09
DPCM : 00 08 00 00 00 F0 FF FF FF FF 01 80 FF 5F F1 17 40 28 DD 55 FF FF 43 C5 AA 00 A0 25 11 00 00 00
DPCM : E0 FF FF FF FF 03 E0 EF 49 CA 97 A8 D0 FD 24 FE FF 22 A9 5F 00 A4 4C 89 2A 02 00 00 00 FF FF FF
DPCM : FF 7F 00 D8 55 D1 EB 93 64 D9 94 52 FB FF C0 7F C1 01 F0 80 F6 B5 24 80 24 00 00 00 FE FF FF FF
DPCM : FF 00 C0 5F 45 7D BF 02 95 57 24 A9 DB 56 FF D3 06 A0 4B F0 6A 5D 95 9E 05 82 82 00 00 00 C0 FF
DPCM : FF FF FF 51 05 F8 97 B2 7F D3 A0 A3 21 60 DA 7A 55 7F 05 52 A5 56 FD 0F 50 9D EE EF 17 40 B6 A5
DPCM : 2C 11 00 00 00 00 00 FF FF FF FF 0F 00 FF 01 FF 7F 20 F5 02 01 DE 12 F5 FF 25 52 2B 12 DA 6D 49
DPCM : D5 AA 54 D5 52 91 6D D5 FF 47 FC 3F 00 9C 06 45 27 00 00 01 00 0F F8 FF FF FF 3F 00 F0 3F E9 FF
DPCM : 01 50 2D 01 ED 5B 52 F7 2D 4A 55 51 52 5B 55 55 2B A5 5A 55 55 55 55 D5 5A A9 54 55 95 AA 55 55
DPCM : D5 FA 1F F0 FF 00 A5 09 A4 54 05 68 17 A0 3F 90 AA AE 12 FE FF 83 FF 01 C0 BE 04 FE 1F 80 F7 02
DPCM : B4 B7 22 ED 9B 50 AF 42 D2 56 45 DD 2A 55 55 55 6A 55 55 D5 2A 55 AD 54 55 55 55 D5 4A 55 55 55
DPCM : 55 55 55 55 FD 43 FF 00 B9 40 B5 54 55 25 9D 22 D1 2A 52 DB A6 5A 09 FC FF E0 7F 00 6C 55 41 FF
DPCM : 03 F8 57 00 7D 55 D4 6D 49 DA 8B A4 B5 24 6D 2D 55 D5 4A 59 55 55 55 55 55 AD 54 55 55 55 55 55
DPCM : 55 55 55 55 55 55 55 55 55 55 55 55 55 55 BD 89 FE 45 60 4F 40 DD 52 BA 57 12 4B 25 A8 55 94 3D
DPCM : 55 A7 22 F8 7F E0 FF 00 6E 89 E8 6D 45 DC 47 C0 77 84 76 4B 5A 5D 49 B5 25 C9 55 A5 5A 55 59 55
DPCM : 55 55 55 55 B5 54 D5 52 55 55 55 55 55 55 55 55 55 55 55 55 55 55 55 55 55 55 55 55 55 5B 52 B5
DPCM : 92 5A 53 55 57 A9 6A 25 55 29 C0 FF 03 FF 03 F8 07 D4 0F C4 72 15 28 BB 82 FD 00 F8 7F F0 FF 00
DPCM : 7F 00 FA 45 B4 B5 52 55 55 61 57 45 DD 4A D6 2D D2 96 52 55 95 AA 55 55 55 55 55 55 55 55 55 55
DPCM : 55 55 55 55 55 55 55 55 55 55 55 55 55 55 55 55 55 55 55 55 55 55 55 55 55 55 55 55 55 55 55 55
DPCM : 55 55 55 55 55 55 55 AD B2 AA AA 54 55 55 55 A9 2A E9 55 54 57 89 5B 95 DA 95 6C 57 52 AB A4 6A
DPCM : 2A 55 55 65 AA 54 55 AA A6 A9 52 6D AD 55 57 55 AB 94 AA 54 65 55 55 55 55 55 55 55 55 55 55 55
DPCM : 55 55 55 55 55 55 55 55 55 55 55 55 55 55 55 55 55 55 55 55 55 55 55 55 55 55 55 55 55 55 55 55
DPCM : 55 55 55 55 55 55 55 55 55 55 55 55 55 55 55 55 55 55 55 55 55 55 55 55 55 55 55 55 55 55 55 55
DPCM : 55 55 55 55 55 55 55 55 55 55 55 55 55 55 55 55 55 55 55 55 55 55 55 55 55 55 55 55 55 55 55 55
DPCM : 55 55 55 55 55 55 55 55 55 55 55 55 B5 AA AA AA 2A 55 55 52 AD AA 56 55 5B 55 55 A9 54 55 55 55
DPCM : 55 55 AA 2A 55 AA AA 56 AB 55 B5 AA 55 95 AA 52 55 55 55 95 AA AA AA 55 55 55 55 55 55 53 55 55
DPCM : 55 55 55 55 55 55 55 55 55 55 55 55 55 55 55 55 55 55 55 55 55 55 55 55 55 55 55 55 55 55 55 55
DPCM : 55 55 55 55 55 55 55 55 55 55 55 55 55 55 55 55 55 55 55 55 55 A5 AA AA AA 56 55 AD AC 2A 55 55
DPCM : 55 55 55 55 55 55 55 55 55 55 55 55 55 55 55 55 55 55 55 55 55 55 AB 54 AA B5 46 29 6D 5D 46 59
DPCM : B5 55 52 AA 55 55 55 55 55 55 55 55 55 55 55 55 55 55 55 55 55 55 55 55 55 55 55 55 B3 2A 55 55
DPCM : 2B 55 5A 55 55 65 55 55 55 55 55 55 55 55 95 A6 65 55 65 55 4D 55 95 55 55 55 55 65 55 55 55 4E
DPCM : 63 D5 D2 68 5A 55 95 65 59 D5 54 5A B5 CA 58 9C D5 51 71 D6 71 54 71 75 34 96 55 55 55 66 D5 32
DPCM : 8E 63 35 55 96 D5 8C 65 E3 38 96 1E 63 65 E5 38 35 8D 56 56 59 96 E5 34 55 8E E3 70 96 55 96 D3
DPCM : 54 95 E5 54 A6 B9 74 0C CF 71 38 79 38 35 96 E3 78 1C 55 AB 46 59 B5 34 4D 55 75 34 65 59 D5 34
DPCM : C6 E5 38 66 99 E5 54 65 9C 33 4E 59 E3 38 56 8E 39 56 53 59 96 39 8D E3 58 4D E3 8C 33 55 56 39
DPCM : 56 E5 94 E3 58 65 2D 8E 59 63 D5 38 4E 8D 93 63 55 A5 55 D3 38 C6 39 56 65 8E E3 38 CE 98 55 C7
DPCM : 38 4D 65 55 55 55 55 D5 54 55 E5 54 35 8B 65 55 39 4E 75 4C 95 E3 18 E7 54 53 55 59 C5 59 35 35
DPCM : 56 8D 63 55 E3 58 D5 58 55 55 C5 33 55 95 55 55 E5 34 55 59 95 55 D5 54 56 55 55 95 55 55 69 D5
DPCM : 34 55 55 8E 55 63 55 E5 38 3C 55 55 E5 38 56 8D 95 E3 D4 78 78 38 1E 8E E3 54 39 4E 55 E5 D4 38
DPCM : 39 35 1E 63 D3 D2 38 4D 55 55 D5 34 95 55 55 95 53 55 55 55 55 55 65 A5 53 95 55 4D 55 4E 35 69
DPCM : 55 53 59 55 55 55 D5 58 36 55 55 55 55 55 69 55 55 55 55 59 55 55 55 55 55 55 55 55 55 55 95 35
DPCM : 95 D6 54 55 2D 95 35 E5 54 55 55 55 55 55 D5 52 55 55 55 95 55 55 55 55 E5 34 55 56 55 53 55 55
DPCM : 55 55 55 55 55 55 55 55 55 53 55 55 55 55 55 55 55 55 55 55 55 55 55 55 55 55 55 55 55 55 55 55
DPCM : 55 55 55 55 55 55 55 55 55 55 55 55 55 55 55 55 55 55 55 55 55 55 55 55 55 55 55 55 55 55 55 55
DPCM : 55 55 55 55 55 55 55 55 55 55 55 55 55 55 55 55 55 55 55 55 55 55 55 55 55 55 55 55 55 55 55 55
DPCM : 55 55 55 55 55 55 55 55 55 55 55 55 55 55 55 55 55 55 55 55 55 55 55 55 55 55 55 55 55 55 55 55
DPCM : 55 55 55 55 55 55 55 55 55 55 55 55 55 55 55 55 55
DPCMDEF  36  3345 "2"
DPCM : 55 55 55 55 55 55 55 55 55 55 55 55 55 55 55 55 55 55 55 55 55 55 55 55 55 55 55 55 55 55 55 55
DPCM : 55 55 55 55 55 55 55 55 55 55 55 55 55 55 55 55 55 55 35 53 55 55 55 A9 56 55 55 55 55 55 55 D5
DPCM : 45 55 55 55 55 55 25 6D 55 55 6D 52 5A 75 45 1D 55 55 55 29 E9 55 AD 54 55 55 55 55 55 55 55 55
DPCM : 55 55 55 55 55 55 55 55 55 55 55 55 55 75 51 55 55 55 55 55 55 55 55 55 55 55 55 55 55 55 55 55
DPCM : 55 55 55 55 55 55 55 4D 55 55 55 6B 95 4A 55 55 55 55 55 55 55 D5 AA 4A 55 95 4A 55 A5 52 A9 2A
DPCM : AD B6 6D 6D AD 56 A9 52 A5 4A 55 AD B5 6D AB 55 A9 24 A5 24 95 24 49 92 24 25 A5 BA FF DF FF B6
DPCM : 14 09 11 25 49 A9 AA DA 6D 77 B7 55 95 92 52 A5 AA AA 56 AD 5A 95 92 90 00 08 44 A4 6A FF FF FF
DPCM : FF BF 00 00 40 88 54 B5 76 F7 DD DF 5D 55 22 84 48 49 B5 B5 7B BB 56 25 42 00 00 00 84 54 FF FF
DPCM : FF FF FF 1F 00 00 00 A4 D4 6A F7 FD FD DF 55 89 40 20 51 6A 5B EF DD D6 52 84 00 00 00 00 A8 FF
DPCM : FF FF FF FF 7F 00 00 00 90 52 B5 EE FD FF BF 5B 89 00 10 91 AA 6D F7 DD B6 52 82 00 00 00 00 E0
DPCM : FF FF FF FF FF 3F 00 00 00 A4 54 D5 EE 7F FF FF AD 04 02 40 24 AD DB 7B B7 55 49 08 00 00 00 00
DPCM : FE FF FF FF FF FF 03 00 00 20 29 55 ED FE F7 FF BF 8A 00 04 24 55 5B 77 B7 55 25 11 04 00 00 00
DPCM : FA FF FF FF FF FF 01 00 80 48 92 54 6D FF FF FF 5B 25 04 10 54 AA D5 6E 6D 55 A5 08 01 00 00 C0
DPCM : FE FF FF FF FF 0F 00 42 84 44 92 B2 EE 7F FF EF AA 44 88 48 AA 6A AD 56 55 55 49 12 00 00 20 F5
DPCM : FF FF FF FF 4F 00 81 44 44 44 52 BB FF FF 77 55 44 88 A4 6A 55 AB AA 5A 6B A5 10 00 00 00 F5 FF
DPCM : FF FF FF 9F 08 01 10 00 48 DA FD FF BF B7 2A 25 49 84 94 54 5D F7 DE 9A 8A 10 04 00 00 24 FB FF
DPCM : FF FF FF 0B 04 00 00 42 F5 BE FF DF EF 26 00 21 A2 94 54 EF DD FF 55 95 10 29 01 01 40 54 49 ED
DPCM : FF FF FF 49 29 01 00 50 BF 77 DB B6 FF 4A 08 00 A9 4A AD B5 F7 FB 3D 49 49 A2 24 04 04 10 A5 74
DPCM : FF FF FF 47 95 00 01 20 DF DD 5B F5 FE 56 01 20 92 B4 AA D6 DB FD 6F 2A 89 54 12 11 00 12 91 6A
DPCM : FF FF FF 27 95 04 02 40 76 BB 6F D5 F7 6E 09 40 42 AA AA B6 76 FB DF 56 44 92 94 44 00 81 50 A9
DPCM : FD FF FF 2F 2D 42 42 00 A9 F6 AE 6D AF BF 49 84 20 4A AA 56 75 D7 FF AD 2A 91 92 48 04 40 10 A9
DPCM : FA FF FF BF B4 22 2A 80 24 D2 56 EB 6E BD D7 AA 44 92 24 95 54 CB 76 7D AF 5B A9 4A 24 10 08 20
DPCM : 09 F5 FF FF 57 5F D5 96 90 02 49 88 6A 6A B7 6E B7 B6 A5 4A 4A 29 55 55 55 6B DB 6A 55 12 11 41
DPCM : 08 C9 BA FD 6E 77 DB 6E 65 15 54 90 92 A4 AA 6C AB 5B 6B 6B 55 55 AA AA AA AA A4 AA 4A 15 29 91
DPCM : 24 55 D7 EE DA D6 DA AD 5A 29 95 94 52 A5 52 55 B5 AA 55 6D 6D 6B B5 AA A6 2A 29 4A 52 52 91 52
DPCM : 2A 55 52 95 B6 6D DB B6 D5 6D 6B 55 AA 54 2A 29 95 4A 55 D5 AA 56 6D DB D6 6A 55 AB 94 14 89 52
DPCM : 4A 12 A5 A4 AA 54 95 B6 6E DB D6 D6 6D 5B 55 A5 52 A5 94 54 4A 55 55 55 6B B5 6D 5B AB B5 AA 4A
DPCM : 49 22 49 45 12 49 A5 94 52 6A 6D BB B5 ED 76 B7 55 55 55 FE 80 40 49 93 12 95 DD 77 5B 6F 7B 2B
DPCM : 49 A9 AA 20 52 27 04 02 44 04 02 E1 FF FF FF FF FF 3F 00 00 54 00 80 EE FF 5D FB FF 55 20 A5 92
DPCM : 24 B5 EE B6 6C B5 12 00 10 40 00 00 49 F2 FF FF FF FF FF 1F 00 00 00 80 FE FF DB FF FF 05 90 90
DPCM : 04 48 BB 7F 6B EF BB 02 02 02 01 00 00 10 42 F1 FF FF FF FF FF 07 00 00 00 F0 FF FB F6 FF 3F 41
DPCM : 94 00 80 F4 DE DE EF 7F 95 48 04 00 00 00 02 40 52 E9 FF FF FF FF FF 07 00 00 00 F0 7F DB FF FF
DPCM : 9F 54 22 00 40 55 DB FD FF ED 6A 25 08 00 00 00 10 24 89 A4 F8 FF FF FF FF 7F 08 10 00 A0 FA 5A
DPCM : FB FF FF AA 0D 20 40 69 52 F7 FF AD 7B 8B 04 82 00 00 00 91 10 55 4A F8 FF FF FF FF 1F 4A 10 00
DPCM : 60 D5 6C FD FF 7B DB 16 20 52 94 D2 FB D5 DB 5D 13 25 08 40 40 00 44 91 94 54 91 FF FF FF FF 7F
DPCM : 68 21 00 C0 26 A9 B5 FF B6 DF B6 4A AA 92 AA 56 AB 6A AD AA 92 24 21 12 02 11 91 48 59 99 AA FD
DPCM : BA FF DB EF 76 15 4D 01 51 A4 24 B5 7B DD FD B7 55 4B 25 24 4A 92 D4 AA 2A A5 54 42 14 49 A2 D2
DPCM : D8 9A 56 4D EF DB B6 F5 6D 6D 56 4A A2 12 55 55 B5 6D 5D 6B B5 94 2A A5 38 1C 1C 8E 87 71 28 0D
DPCM : 4E 1E 8E C3 E3 71 58 B3 85 57 97 67 ED 74 7C 9A D1 54 83 87 E3 54 1D 5B 74 1C C7 31 8E C3 A1 E3
DPCM : 38 1C 4E 39 8E 1C C7 71 5C 3C 1E 8E E3 C1 E3 F1 38 3C C7 3C 8E E3 71 1C 27 8E 3C 8E C3 71 38 1C
DPCM : C7 E3 71 1C 07 17 C7 D1 E1 38 C7 71 16 C7 71 C6 71 E3 38 1C C7 8D E3 38 E3 70 9C C7 D1 E3 18 1D
DPCM : C6 8E E3 38 C6 39 E6 38 8E E3 94 E3 38 8E 39 8E D9 F0 38 9C E3 58 E3 38 C6 D9 70 CE 58 73 1C CE
DPCM : 71 1C 35 0E 8F 33 E3 38 53 C7 71 1C E3 38 E6 58 55 56 E3 1C D3 34 8D 39 E6 38 C7 58 1D 39 8E E3
DPCM : 71 38 1E 8E E3 78 8C 65 71 56 9C 47 95 E3 38 8E 55 8B C7 58 39 8E 53 C3 71 1C 8F E3 E1 4C 1D C7
DPCM : E2 38 3A 3C 8E E3 70 8E 55 55 E3 D4 18 C7 59 39 4E 55 35 8E 53 55 65 55 55 95 65 D5 58 59 8E 63
DPCM : 8D E3 38 56 8E 55 8E E3 4C 71 36 8E D3 D2 34 4E 35 56 56 4D 73 8C 53 55 C5 55 E5 38 56 96 95 E5
DPCM : 4C 55 8E 53 D5 38 56 55 E3 71 1C 56 8E E3 38 56 35 1C 8F 63 D5 38 8E A3 C3 E3 78 18 57 8D 53 55
DPCM : 55 8E E3 51 D5 34 35 8D 55 C7 58 E3 E8 38 35 4E 95 53 55 39 56 55 95 53 4D 55 55 55 55 55 55 59
DPCM : 55 55 55 4B 47 D3 B1 6C B9 9C 54 CB 58 C5 D2 52 59 1A 2D 45 CB 88 A5 C2 51 75 EB 7A 5D 6F AB 56
DPCM : 46 49 52 A5 64 B5 6A D5 56 AD AA AA 54 A9 4A 55 55 55 55 AD AA D6 5A B5 B6 6B D5 2A 49 22 11 85
DPCM : 24 44 29 81 B4 95 E4 FF BF FD BF 4A A5 09 80 96 80 76 77 6B FD 2B D5 2A 92 48 95 48 B6 AA AD B5
DPCM : 35 B5 AA A4 52 55 4A AD 5A 77 DB BD DB 4A A5 08 22 22 11 91 24 12 15 52 2D AD FF FF FD 7F 8A A4
DPCM : 08 00 4D 44 BD FB D6 FD 4D 52 95 20 49 A9 A4 B6 AB D5 B5 55 A9 4A 52 29 55 6A AD 55 AD 55 D5 5E
DPCM : 32 BB AB 5A 6D 0A AA 02 A4 04 21 A9 4A 52 B7 52 5D FA 7F D9 7F A9 2A 52 02 6A 11 EC D5 76 D5 BB
DPCM : 92 AD 24 25 95 4A AA AD AC 55 6B 55 55 A5 54 55 AA AA 6A 55 D5 AA 7A 97 DA 6F AA B5 14 21 12 04
DPCM : 52 12 55 55 4D D5 AA 54 95 FE 2B 7B 5F 6B 55 2B 84 9A 44 AA AA AA DA 55 D5 AD AA 95 AA 92 52 55
DPCM : A9 AA AA AA 55 55 55 55 55 55 55 55 55 55 AB 56 AD DA 5A B5 56 95 92 92 44 91 24 92 2A 55 B5 5A
DPCM : EB BE D5 B6 AD A5 44 A9 52 A9 54 B5 AA 6A 55 55 55 B5 AA AA AA AA 54 55 55 55 55 55 55 55 55 55
DPCM : 55 55 55 55 55 55 55 55 55 55 55 55 55 AD AA D6 AA 55 B5 2A 95 52 4A 89 12 49 92 AA 55 5B 77 AF
DPCM : B5 DD 4A AD A5 A4 B2 24 55 55 49 B5 52 AB AA 6A 55 55 55 55 D5 54 55 55 55 55 55 55 55 55 55 55
DPCM : 55 AD 96 CD 6A 69 5A 1C A7 AA B2 2A 55 55 55 AA 2A 55 55 29 95 92 52 52 92 5A D5 75 F7 D6 6E AB
DPCM : 55 55 29 95 52 4A A5 52 A5 AA 55 D5 AA 56 55 55 AB AA AA 4A 55 55 55 55 55 55 55 55 55 55 55 55
DPCM : AD AA AA 6A A5 AA AA 2A 55 4B 53 55 B5 AA AA AA 2A 55 A5 52 52 A9 B2 AA 6A DB 5A 6D B5 35 A5 AA
DPCM : 94 4A A9 5A 4A 55 6D 55 AA 55 55 55 B5 A5 B4 5A 29 55 55 95 D2 6A 55 55 B5 4A D5 2A 55 55 55 55
DPCM : 55 D5 5A 51 55 55 B5 92 FD 02 DA 22 75 69 7D 11 5F 05 A6 A2 A6 A8 5D 22 FD 4F 54 6F 12 A5 5A 25
DPCM : 7A 37 51 AD 2A 49 6D 25 D9 D5 54 D5 A6 52 D5 52 AA 55 55 55 55 55 55 55 55 55 55 55 55 55 55 55
DPCM : 55 55 55 55 55 55 55 6B 52 B5 92 6A D5 AA D4 1F 40 2F 41 5F AD AB AA 25 64 15 92 B5 34 95 FA 4F
DPCM : 68 BF 40 55 95 52 75 2B D5 2D 52 55 A5 54 5D 95 56 2B 55 AB 52 55 55 A5 5A 55 55 55 55 55 55 55
DPCM : 55 55 55 55 55 55 55 55 55 55 55 55 55 55 55 5B 54 2D A5 56 AD 4A DF 01 FC 10 F8 55 B5 6D 55 A4
DPCM : 26 41 AD 92 5A 55 7E 2B B5 97 48 55 A5 D2 5A 55 6D 25 55 55 A9 AA AA 6A 55 55 AB 2A 55 55 55 55
DPCM : A5 55 55 55 55 55 55 55 55 55 55 55 55 55 55 55 55 55 55 55 D5 1A 55 2B A9 4D D5 B2 97 D0 4E C0
DPCM : AE 54 B7 B5 AA 2A 49 A9 44 B5 4A D5 B2 57 55 6F 42 5B 92 6A A9 56 B5 2A B5 52 59 A5 B4 AA 56 55
DPCM : AD B4 AA 54 55 95 AA 55 55 55 55 55 55 55 55 55 55 55 55 55 55 55 55 55 55 B5 4A D5 52 D5 AA 56
DPCM : 55 4D CA 52 49 6A D6 56 5B AB 2A A5 94 94 2A 55 55 D5 5E 55 BD 22 5B 51 5A 95 6A 55 53 AD 4A 55
DPCM : 95 D4 AA AA 55 55 AD AA AA 4A 55 55 AA 56 55 55 55 55 55 55 55 55 55 55 55 55 55 55 55 55 55 55
DPCM : 35 55 B5 D4 56 53 55 A5 52 25 55 55 B5 55 AB AD A4 4A 45 A9 92 D2 DA AD DA 2B D5 45 54 55 D2 AA
DPCM : 66 D5 2A B5 4A 55 95 D2 AA AA 55 55 AB A9 AA 52 55 95 AA 56 55 55 55 B5 52 55 55 55 55 55 55 55
DPCM : 55 55 55 55 55 55 55 B5 54 D5 54 6D 6A 4B 69 0B D5 92 AA 4A B6 66 D5 AA AA 2A 95 52 92 6A AD DA
DPCM : B5 AA AB A4 9A 54 55 A9 6A 55 55 55 55 55 55 55 A9 56 55 55 55 AD 4A 55 55 55 55 69 55 55 55 55
DPCM : 55 55 55 55 55 55 55 55 55 55 55 55 55 55 55 55 55 55 55 55 D5 2A DB 52 B5 A4 AA 54 56 25 B5 AA
DPCM : 6A 55 55 55 55 25 A9 2A AB D5 5A D5 96 AA 95 52 55 55 55 55 55 55 55 55 15 55 55 55 55 55 55 55
DPCM : 55 55 55 55 55 55 55 55 55 55 55 55 55 55 55 55 55 55 55 55 55 55 55 55 55 55 55 55 55 55 55 B5
DPCM : AA 56 55 35 55 AA 52 55 2A 55 55 2B AA 56 A5 2A A5 6A 65 B5 55 B5 AA 5A 95 AA 4A 55 55 55 95 AA
DPCM : AA 6A 55 55 55 55 55 55 55 55 55 55 55 55 55 55 55 55 55 55 55 55 55 55 55 55 55 55 55 55 55 54
DPCM : 55 55 55 55 55 55 55 55 55 55 55 55 55 AD AA 56 55 55 A5 AA 54 55 95 AA 4A 55 55 95 4A 55 D5 AA
DPCM : AD D5 6A 55 55 55 A9 2A 55 55 55 55 55 55 59 95 AA 55 54 55 55 2B D5 2A 55 55 55 55 55 55 55 55
DPCM : 55 55 55 55 55 55 55 55 55 55 55 55 55 55 55 55 55 55 55 55 55 55 55 55 55 55 55 55 55 D5 AA 56
DPCM : 55 AB 54 55 A9 2A 55 55 55 55 A9 AA AA 52 55 55 A5 AA 6A 55 6B 55 B5 AA AA AA AA 54 55 55 55 55
DPCM : 55 55 55 55 55 55 55 55 55 55 55 55 55 55 55 55 55 55 55 55 55 55 55 55 55 55 55 55 55 55 55 55
DPCM : 5B D5 6A AA 54 52 55 4A 55 A9 6A 6A 55 AD AA 6A 55 55 AD 5A AD AA AA 54 A9 54 55 A9 4A 55 AB 5A
DPCM : 55 AB 56 55 55 A5 AA 54 55 A9 AA A2 2A D5 AA AA AA 56 55 55 55 55 55 55 55 55 55 55 55 55 55 55
DPCM : 2B B5 AA 54 2B 55 55 55 55 55 55 55 55 55 55 55 55 55 15 55 55 55 55 55 55 55 55 55 55 55 55 55
DPCM : 55 55 55 55 55 55 55 55 55 55 55 55 55 55 55 55 55 55 55 55 55 55 55 55 55 55 55 55 55 55 55 55
DPCM : 55 55 55 55 55 55 55 55 55 55 55 55 55 55 55 55 55 55 55 55 55 55 55 55 55 55 55 55 55 55 55 55
DPCM : 55 55 55 55 55 55 55 55 55 54 55 55 55 55 55 55 55 55 55 55 55 55 55 55 55 55 55 55 55 55 55 55
DPCM : 55 55 55 55 55 55 55 55 55 55 55 55 55 55 55 55 55 55 55 55 55 55 55 55 55 55 55 55 55 55 55 55
DPCM : 55 55 55 55 55 55 55 55 55 55 55 55 55 55 45 55 55 55 55 55 55 55 55 55 55 55 55 55 55 55 55 51
DPCM : 55 54 55 55 55 55 55 55 55 55 55 55 55 55 55 55 55 55 55 55 55 55 55 55 55 55 55 55 55 55 55 55
DPCM : 55 55 55 55 15 55 55 55 55 55 55 55 55 55 55 55 55 55 55 55 55 55 55 51 55 55 55 55 55 55 55 55
DPCM : 55 55 55 55 55 55 55 55 55 55 55 55 55 55 55 55 55 55 55 55 55 45 55 55 55 55 55 54 55 55 55 55
DPCM : 55 55 55 55 55 55 55 55 55 55 55 55 55 45 55 55 55 55 55 55 55 55 55 55 55 55 55 55 55 55 55 55
DPCM : 55 55 55 55 55 55 55 55 55 55 55 55 55 55 55 55 55 51 55 55 55 55 55 55 55 55 55 55 55 55 55 55
DPCM : 55 55 55 15 55 55 55 55 55 55 55 15 55 55 55 55 55 55 55 55 55 55 55 55 55 55 55 55 55 55 55 55
DPCM : 55 55 55 55 55 55 55 45 55 55 55 55 55 55 55 55 55 55 55 55 55 55 55 55 55 55 54 55 55 55 55 55
DPCM : 55 55 55 55 55 55 55 55 55 55 55 55 55 55 55 55 55
DPCMDEF  37  1393 "lowC"
DPCM : 55 55 55 55 55 95 AA AA AA AA AA AA AA AA AA 6A 55 D5 AA 55 55 55 95 AA 4A 55 55 55 55 55 55 55
DPCM : A5 AA 54 D5 AA AA AA 55 55 55 55 55 55 55 55 55 55 B5 AA AA AA 54 55 55 55 55 AB AA 5A 55 AA 52
DPCM : 55 2A 55 55 55 55 55 55 55 B5 AA 55 55 55 55 B5 5A AB 55 55 A5 52 52 55 55 55 55 55 55 55 55 55
DPCM : A9 4A 55 55 D5 AA 54 B5 AA AA AA AA AA 5A 55 B5 AA 55 AB A6 2A 55 AA AC 5A A5 AA 56 A9 52 55 55
DPCM : 52 A9 AA AA 6A 55 A9 AA 55 AB AA 6A 55 55 55 AD D6 AA 55 A5 52 95 4A 55 AB 6A 55 55 AA 52 55 A5
DPCM : 4A 55 55 55 55 55 55 95 AA AA AA 56 AB 56 B5 5A AD 6A 55 55 4A A9 AA 6A 55 5A 55 95 AA 52 55 A9
DPCM : 4A 95 52 D5 6A 55 A9 56 6A 55 AB AA 55 55 55 AD 5A AD AA AA 52 55 55 55 55 55 55 95 AA 2A 55 95
DPCM : 2A A5 AC AA A9 4A 55 55 55 D5 5A AD 55 D5 AA 6A 6D D5 AA 2A A5 2A 95 AA AA AA AA AA 54 55 55 55
DPCM : 52 2A AB 55 A9 AA AA 54 55 6B 55 B5 5A 55 55 AD B6 B5 AA 54 55 A5 52 95 56 55 A9 5A 29 55 55 15
DPCM : 49 55 AB AA D4 AA 2A 95 5A 5B 69 AD D5 AA AA B6 5A 55 4B A5 5A 4A 52 B5 5A 55 A5 95 AA AA 2A 95
DPCM : 94 AA AA 4A B5 54 55 A5 D6 CA 6A AB 56 55 AB B6 B6 AA AA 2A 25 A5 54 D5 5A 55 5A 95 AA 5A 29 25
DPCM : 55 55 55 AA AA AA 54 55 AD AA 5A AD 55 55 6B AD 5A 4B 95 2A 95 52 55 B5 56 AB AA 52 55 55 52 25
DPCM : 55 55 A5 AA AA 4A A9 D6 AA AA 56 6B 55 B5 6A AB B5 54 95 92 4A 55 55 6D 55 AB AA 54 55 A5 54 A5
DPCM : AA 52 A5 AA 4A 55 55 AB AA B2 6A 6B 55 AD D5 AA 55 A5 94 AA 52 55 55 5B AD 56 A5 AA 54 52 55 A9
DPCM : 52 55 AA 4A 55 55 D5 AA AA AA D5 5A B5 56 D5 5A 95 4A 4A 55 55 55 AD B5 AA 56 95 4A A9 54 95 AA
DPCM : 2A A5 5A 29 55 69 B5 AA AA AA B6 56 AB 55 AD 56 29 49 55 55 55 D5 D6 AA 5A 2D A5 94 4A 55 A5 AA
DPCM : 2A 55 AA 54 95 5A AB AA AA 6A AB D5 AA D6 AA 2A 95 54 55 55 55 6B AB AA 56 4B 25 A5 54 95 AA AA
DPCM : 54 A9 4A A9 AA D6 AA 55 55 D5 56 B5 6A AB AA 52 49 55 56 55 AD AD 95 5A AD 4A 49 4A 55 A9 AA 2A
DPCM : 55 A5 A4 AA AC B5 56 6A 55 6D D5 D2 D6 6A A5 54 52 AA 55 D5 DA D6 54 55 AB 52 A4 54 95 B4 AA 52
DPCM : 55 8A 52 55 AD AD 95 5A D5 56 55 B5 AD AA 2A 45 A9 5A 55 ED 56 AB 52 AD AA 94 28 55 49 6B 25 AD
DPCM : 14 49 55 59 5B 5B AA D6 56 55 55 DD AA AA 4A 92 AA 56 55 77 AD 95 CA AA 54 25 4A 95 D2 AA AA AA
DPCM : 88 54 95 5A DB A6 6A 6D B5 4A 55 5B 5A AB 24 A9 6A 55 D5 B7 5A 55 A9 2A 95 52 4A 4A 55 AB AA 92
DPCM : 48 55 A9 B6 AD AA D5 D6 AA 54 D5 AA 5A 4B 52 6A 55 4D F5 6D 55 55 4A A5 AA 92 94 4A B5 AA 2A 49
DPCM : 52 55 B2 BB 56 D6 5A 5B 29 55 55 D5 56 25 95 5A 55 55 F7 AA 56 95 A4 95 32 25 A5 4A B5 AA 92 94
DPCM : 2A A5 DA AD AA 6D B5 55 29 55 55 D5 AA 52 55 55 55 AB 5B AB 55 45 AA 2A 55 52 A9 52 AB AA 94 A4
DPCM : 2A 55 6D AB D6 56 AD 56 2A 95 5A 55 4B 55 55 55 D5 5A D7 5A 55 92 AA 94 5A 52 A9 AC AA 52 29 A5
DPCM : 4A B5 DA 6A 6D D5 6A 95 54 55 55 55 55 55 55 55 6D B5 AD 55 25 A9 4A A5 AA 54 A9 AA 4A 55 2A A5
DPCM : 54 AB B6 6A 5B AD 5A 25 55 55 55 55 D5 54 5A 55 6D 6D 5B 55 4A AA 52 A9 2A 55 A5 2A 55 55 49 4A
DPCM : B5 AA B5 DA D5 AA 56 52 55 55 55 55 55 A5 55 55 5B DB 55 95 A4 2A 55 AA 52 55 95 52 A5 55 91 4A
DPCM : D5 6A AB 6E AD AA 29 55 55 55 55 55 55 5A 55 D5 B6 DD 2A 25 AA 4A A5 AA D4 54 A5 54 6A 95 48 55
DPCM : AD 6A 6D 57 AB AA 52 55 55 55 55 55 A5 56 55 B5 DB AD 2A 49 AA 4A A9 52 AD 54 52 95 55 45 52 D5
DPCM : AA 5A BB D5 AA 2A 55 55 55 55 55 55 AA 55 55 DB DE 55 29 52 AA 4A AA D4 2A 95 52 A9 56 22 55 AD
DPCM : B2 B6 6D D5 D4 4A 55 55 55 55 55 25 5B 55 D5 76 EF 4A 8A 94 56 92 2A B5 52 25 55 AA 2A 91 D6 2A
DPCM : 6D DB 56 55 B5 52 55 55 55 55 5A C9 5A 6A 75 BB AF A4 22 55 95 A4 4A 2D 55 49 95 AA 8A 54 AD AA
DPCM : B6 6D 55 55 2B 55 55 55 55 A5 96 B4 56 55 DB DE 2D 29 25 55 25 A9 54 55 55 52 49 AB 48 D5 AA DA
DPCM : 5A 5B 55 B5 52 55 55 55 A5 AA 4A AD AA D5 6E 77 95 54 49 95 52 4A 55 55 A5 92 AA 4A D4 AA 56 AB
DPCM : B5 56 55 2D 55 65 55 55 95 AA D4 AA 5A 6D DB AE 4A A9 54 4A 95 54 55 55 95 A8 4A A5 AA 6A 6B D5
DPCM : 6A 55 55 55 55 59 55 55 A5 2A AD A9 D5 B6 B5 2D 95 52 A5 54 49 55 55 55 89 AA 54 AA A6 6D 95 B5
DPCM : D6 2A 55 D5 94 55 55 A5 AA D2 56 5A 71 5B 6D 55 29 55 49 25 55 55 55 95 94 2A A5 AA D5 16 D5 6A
DPCM : AD 4A 55 55 65 55 55 AA AA 6A 55 55 77 55 5B 91 52 A5 2A 52 55 55 55 49 29 55 A9 6A 5B 55 6D 55
DPCM : AB 54 55 95 5A 55 A5 AA AA 56 55 ED 36 B5 55 25 95 AA 12 55 59 55 15 A5 4A 95 AA D6 4D D5 56 75
DPCM : 49 55 55 A9 56 AA B2 AA 5A 55 D5 6D 2B DB 4A AA A4 2A 49 A5 56 51 8A 2A A5 2A 6D 4D 4B 6D 55 97
DPCM : 52 55 95 AA A6 4C B5 AA 55 55 BD A5 A9 5B 92 2A A9 4A 52 AA 56 2A 49 53 B2 D4 D6 46 AB 56 B5 29
DPCM : 55 55 55 45 55 55 55 55 55 15 55 45 55 55 55 55 55
DPCMDEF  38  1361 "lowE"
DPCM : 55 55 55 D5 AA 4A 55 55 A5 56 55 55 95 5A 55 55 55 55 D5 AA D2 4A 55 55 55 55 55 55 55 AD AA 54
DPCM : 55 95 55 A9 56 95 AA 95 5A 55 D5 AA AA 54 55 AB 54 55 95 6A 55 55 AD AA 52 55 95 5A 55 55 95 AA
DPCM : 95 56 55 55 55 D5 AA 96 AA AA 54 52 6B 55 55 55 4D 55 55 95 5A 55 55 55 A9 56 55 55 55 55 AD 95
DPCM : 56 D4 AA 54 6A 69 55 55 B5 54 55 55 95 AA 5A 55 95 D4 56 55 55 55 55 B5 96 56 D1 54 55 55 A9 5A
DPCM : 55 B5 52 55 55 55 65 A5 56 A5 AA 55 6A A5 5A 55 B5 AD D4 4A 52 55 A5 D4 6A 55 D5 52 35 55 55 A5
DPCM : 6A 2A AB 2A AD 55 55 55 55 5B B5 D2 4A 45 55 55 AA 5A 95 DA 16 55 55 55 A9 AA AA 55 2A 55 6B 95
DPCM : 6C AD B2 B6 CA 96 92 9A 54 AA AA 56 55 2B 55 55 55 A5 AA AA 56 A9 52 AB AA 5A 55 AD D6 AA AA 2A
DPCM : 29 55 AA 6A 55 55 AD 54 55 55 55 52 AB 56 52 55 55 55 B5 55 B5 6D A5 2E 0B B2 52 D2 56 55 55 AB
DPCM : 52 55 55 95 AA 2A B5 49 5A 6A 55 AD 55 6D 65 6B 2B 5A A2 54 25 AD B6 94 6D 52 55 55 55 4A D5 5A
DPCM : 29 69 A9 B6 54 57 B5 EA 56 6D B4 A0 52 92 5D 59 55 AD 4A 55 55 55 2A 95 DA 15 A9 96 AA AA 5B D5
DPCM : 56 5B AD E4 24 91 2A 6D D5 52 AB 4A 55 55 55 AA 94 76 95 94 16 B5 AA AD 59 AD BB D4 AA 41 49 49
DPCM : 7A B5 52 6D 29 2D 65 2D 51 55 69 AB 24 4D 55 B5 AD 56 5B ED 6A 45 A5 42 AA B4 B5 95 6A 95 B4 54
DPCM : 55 29 2D 69 97 68 95 68 D5 DA D6 AA 76 AB 52 A9 26 50 E9 B5 95 6C 4B AA 4A 55 95 2C A9 AB 54 25
DPCM : B5 54 B7 55 AD B6 B5 A2 2A 2B A8 D2 D6 4D B2 2D D1 2A B5 54 4A C9 9B 64 2B 51 55 DD 5A AB EA 6A
DPCM : 43 4D 55 51 A4 D7 4D 6A 55 C9 AA 2A 55 25 A9 5D D4 16 51 A5 ED 6A B5 A9 6B 45 56 5A 4A 91 DB 4D
DPCM : B2 55 A5 AA AA 54 95 54 AD 52 5B 48 55 76 6B D5 AA AB 8A 5A AA 2A 45 DD 56 AA 4B AA AA AA 54 95
DPCM : 54 AD 52 5B A2 4A 7A CB 56 6B 2B 95 9A 52 55 15 5D 57 D2 2D 29 AB B4 52 95 B2 AA 52 5B 11 AB D4
DPCM : B6 5A AD 2B A5 AA 54 55 95 6C 57 D2 2E 29 AB D4 4A 55 AA B2 AA 5A 49 9A D4 B6 6C B5 2B 49 AD 54
DPCM : 55 55 59 37 51 AF 24 AD 52 AD 52 A9 AA CA 9A 8A 5A A2 B7 AA B5 1B 29 AB 54 55 55 55 57 C9 AE A4
DPCM : AA 52 AB 4A 55 49 AB AA 8A 6A 92 5B D5 76 2B AA AA 54 55 55 55 5B A9 B6 A4 AA 52 AD 4A 55 49 AB
DPCM : AA 4A B4 49 5D 55 B7 55 6A A9 54 55 55 55 5B 95 DA 4A A5 52 AD B4 2A 49 6D A9 54 54 2B B5 AA B7
DPCM : A9 6A 29 55 55 55 56 6B 4B E9 2A A5 52 B5 74 15 25 AD 2A 55 92 AD B4 AA BB 4A DD A2 54 4D 55 55
DPCM : 6D AD A8 9B 54 4A B5 6A 4B 94 AA AA 94 92 B6 4A 6D 5D 55 6D 93 54 4D 55 55 75 AB A4 6E 89 2A D5
DPCM : AA 2B 52 A9 AA 92 52 DA AA 5A 6D 55 AD 8B 4A 2D 55 55 D5 4B AA B6 2A 29 55 5B 2D 49 95 AA 92 2A
DPCM : D9 AA 6A D5 56 D5 4D 4A 2D 55 95 D5 2B A5 B6 AA A8 54 5B 35 49 55 CA 4A A9 54 AB 6A A5 5D D5 56
DPCM : 15 B5 54 A9 5A 4F AA DA 52 A9 52 5B 55 95 52 AA 4A AA 52 6B 69 A5 5D 55 5B 55 54 55 A5 AA 5D 2A
DPCM : 6D 55 45 53 5B D6 92 52 95 54 55 45 6D 95 AA 6D 55 5B 55 D4 52 49 AB 6D 52 6D A5 25 AB AA D6 4A
DPCM : 4A 95 52 55 45 B5 95 AA 6E 55 5B 55 D4 52 25 5B B6 A9 AA A5 AA AA AA DA 4A AA 94 52 55 15 B5 55
DPCM : AA B5 55 DB 54 54 4B A9 5A DA 49 AD A5 AA 9A AA BA 2A A9 94 AA 4A 15 B5 55 9A B5 55 DB A4 52 55
DPCM : A9 AA DA 2A B5 16 6D 9A 52 DB 2A 95 92 AA 2A 55 AA 6A 55 D5 D6 DA A4 51 55 29 B5 D5 2A B5 96 6C
DPCM : A5 D2 DA AA A4 92 AA 2A 55 AA B2 55 B6 D6 5A 95 45 55 25 B5 D6 26 D5 AA 6A A5 AA 5A AB A4 52 AA
DPCM : 2A 95 4A B5 55 D5 D6 AA 55 45 56 25 D5 5A 27 B5 5A 69 A5 AA 6A AD 92 54 A9 AA A4 4A D5 55 B6 D5
DPCM : A6 55 45 5A 45 6A 5B 27 B5 56 69 93 AA 6A AD 24 55 A5 AA A2 52 D5 55 75 D5 A6 56 15 5A 45 A9 6D
DPCM : 9B D4 2E 65 4B 56 A9 D5 22 2D A5 AA 12 55 D5 56 6D 55 97 5A 15 59 45 A9 B5 5D 54 AF A0 2D 65 A9
DPCM : 55 45 AD A4 AA 12 5A D5 56 6D 55 5B AA 2A 69 45 5A 75 5D 54 5F 92 AD 54 2A 95 45 B5 A4 AA 12 59
DPCM : B6 5A 6B 55 5B A9 AA A4 25 59 B5 5D 54 5F 91 6D 52 AA AA 2A B5 84 9A 12 55 D9 5A 5B 55 5B 95 34
DPCM : A5 25 55 AD AD 54 5F 91 5D 52 AA 4A 2D 55 95 5A 22 B5 60 DB 56 D5 36 A9 52 A5 96 54 6D 95 52 6F
DPCM : 52 5D 52 2A 55 35 55 55 5A 92 D4 52 DB 56 55 B5 24 35 A5 9A 4A 4D AD 52 6B A2 6E 92 2A 55 55 55
DPCM : 55 55 52 D4 4A DD 56 D5 56 25 54 25 56 4A 6D D5 52 BD 92 B6 91 2A 55 55 55 55 95 42 51 AB EA 55
DPCM : D5 5A 25 55 95 56 29 6D 95 4A 75 8B DA 92 AA 54 55 55 55 54 52 49 AD 6A 57 95 56 95 52 93 48 A5
DPCM : 6A D5 4A B5 4B 62 8A AA 54 51 55 55 45 52 15 A5 AA 44 45 55 41 55 C1 42 B2 55 8D 55 6A 04 16 55
DPCM : AA 44 45 55 41 55 C1 42 B2 55 8D 55 6A 04 16 55 5A 94 6A 54 A3 04 15 A1 56 A8 52 45 45 15 55 A8
DPCM : 50 AA D8 CA 44 90 A5 00 44 1A A1 6A 44 A3 40 6D 00
DPCMDEF  39  1393 "lowG"
DPCM : 4B 45 6D 55 55 D5 52 55 95 5A 95 55 A5 5A 55 55 55 B5 56 95 B4 2A A9 A9 55 55 4B 55 55 95 B2 56
DPCM : 65 52 5B 55 55 55 D5 5A 55 32 55 55 A5 5A 55 AB 54 55 55 69 A9 95 AA 56 6A A5 55 D5 B6 D4 8A 54
DPCM : 95 52 6B 55 B5 54 53 55 A5 AA D2 AA B4 55 55 55 B5 D5 B2 4A 52 55 A9 5A 95 76 51 55 55 A9 AA 5A
DPCM : A5 54 6B 25 5B AB DA CA A6 A4 4A A9 AA 56 D5 52 55 55 A5 AA 6A 95 4A AB AA 56 D5 6A AB AA 8A 52
DPCM : A5 6A 55 D5 4A 55 55 55 B2 6A 25 55 D5 52 5B 55 B7 A5 56 05 2B 45 5B 55 D5 2A 55 55 95 AA 4A 9B
DPCM : 54 55 D5 5A D5 96 AD 8D 16 49 95 AA 36 55 2B 55 55 55 4A AB 95 54 95 AD B4 55 AB 9B 36 15 29 25
DPCM : 75 55 55 AB 54 55 55 2A 55 5D 91 56 AA D5 55 5D 6D 35 59 12 A9 AA 55 55 AB 54 55 55 A9 54 5B 49
DPCM : 55 AA 55 5B B5 76 E9 AC 90 94 D4 D5 52 AB D2 54 35 51 55 B5 8A 2C B5 6A 6B 75 B5 6B 51 A9 A0 CA
DPCM : D6 A5 5A 49 4B 55 25 4B 7A 89 55 64 B5 76 AD EA AB 62 AA 02 55 B7 95 DA A4 2A 55 15 4D DA 4A 95
DPCM : 54 E5 6E D5 DA B5 A2 AA 82 4A D7 4D 6A 0B AD B4 54 92 F4 89 AD 50 69 BB B5 A9 D7 42 4B 13 89 DE
DPCM : 2D 5A 95 AA AA 54 49 EA 86 6E 50 A9 BD 5A 97 DD 42 55 95 44 EE 2E 6A 53 AA AA 54 25 69 4B 6E 81
DPCM : A5 6E 5B AB 5D 45 96 AA 12 7A 57 EA 52 AA AA 52 15 59 2B 7A 41 95 7A B5 B5 9B 8A 96 54 55 74 37
DPCM : 72 4B AA AA 4A 15 D5 2A 75 05 2D E9 B5 B6 5E 92 2A 55 55 B2 3B B1 4B AA CA 2A 55 2A B5 AC 45 2A
DPCM : D5 55 D7 5E 44 AD 54 55 65 BD D0 2B A9 4A AD 52 AA AA AC 4A 6C E4 AE 5A 6F 24 9B 54 55 55 5D C9
DPCM : 2E AA 2A AD 4A 55 D4 AA 4A 6A 64 57 6D B7 A8 AA 54 55 55 6D A9 36 A9 4A B5 4A 55 B2 AA 2A A9 C9
DPCM : 56 75 5B A9 2A 55 55 55 6D A5 BA A4 4A B5 B4 4A D1 96 4A C9 A6 5A 75 AB AA 4A 55 55 55 B5 55 DA
DPCM : 52 2A D5 B4 25 A9 AA 4A 25 9B 6A B5 2B 75 25 55 55 55 D5 56 A9 4B 29 D5 B2 15 A5 AA 2A 25 6D A9
DPCM : B6 55 B5 15 55 55 55 D5 4E A9 AD A8 54 AB 4D 54 A9 2A A5 AC A5 B5 56 D5 96 52 4B 55 55 4F CA D6
DPCM : A2 54 AD 56 52 95 2A A9 B2 95 56 6D 55 57 4A 4D 55 55 57 A9 B6 92 52 6D 55 51 95 AA A4 D2 5A 36
DPCM : B5 55 5B 25 4D 95 6A 5D AA 56 95 4A 6D 55 A5 94 AA A4 4A 5B 59 DA 55 6D 95 54 55 AA 76 29 5B 55
DPCM : 2A 6D D5 92 54 49 55 45 6D A5 EA 56 5D 95 B4 94 B4 B6 4A 5B 55 B2 AA B6 4A 4A 49 55 45 B6 25 75
DPCM : 57 6D 35 D4 54 B4 D9 A5 6A A5 AA AA B6 45 2A 49 55 25 DA 25 AD 5B ED 52 D4 92 D4 EA 25 6B A5 65
DPCM : A5 7A 25 15 51 55 29 DA AA AA 5D DB 51 51 93 D2 6A A7 6A A5 56 29 BB 95 94 C8 2A A9 54 AD AA 75
DPCM : DB 52 51 95 52 6B 27 AD 95 56 A5 DA 55 94 A4 2A 95 52 B5 A9 6E 6B 4B 45 55 52 6B 97 B4 96 36 A9
DPCM : 6A 5B A4 A4 AA 94 52 B5 A5 6D AB 55 85 55 92 6E 1D B5 56 36 A9 6A 6D 22 55 AA 92 4A B5 95 5D 9B
DPCM : 56 45 56 92 B6 9D B4 55 36 A9 AA B5 44 55 AA 8A 4A B5 55 5B 9D 5A 25 56 91 BA 76 D4 56 DA A4 A9
DPCM : 56 45 55 A9 2A 54 AD 55 57 AD AA 2A 55 51 D5 76 54 2F 69 93 AA 5A 49 4D A9 2A 52 AB AD 56 B5 AA
DPCM : 2A 55 51 D5 B6 52 AF A8 53 AA AA 4A 2D A9 29 B2 AC AD 56 B5 A9 2A 65 49 D5 B6 52 AF A4 4D AA 2A
DPCM : 2B 35 A9 25 A9 AA B5 55 B5 A5 52 65 29 B5 D6 52 B7 A4 4B A9 4C 35 55 A5 25 AA D2 B6 55 75 A5 54
DPCM : A5 A5 B4 D5 52 B7 64 4B A9 54 55 55 55 25 A9 CA B6 55 B5 95 54 A5 A6 B2 D6 4A BD A4 2B A9 54 55
DPCM : 55 55 25 49 2B BB 55 B5 95 54 A5 55 D2 56 4B DD A2 AD A8 54 55 55 55 29 45 AD EA 55 B5 55 52 95
DPCM : 56 52 57 2B F5 8A AE A8 52 55 55 55 25 15 B6 EA 56 75 55 49 95 56 CA D6 2A B5 4B B6 A4 51 56 55
DPCM : 55 25 55 E8 AA 5D 75 55 2A 55 5A C9 56 AB D4 2E E9 92 4A 56 55 55 15 55 52 5B 75 D5 55 5A 54 5A
DPCM : A5 5A AB 52 BB 68 93 2A 59 55 55 95 54 4A ED D4 56 37 69 52 5A A9 5A AD 4A 5D 95 55 2A 55 4B 55
DPCM : 95 54 AA 6A 53 5B DD 64 2A 69 A5 6A B5 4A B5 55 95 1A 59 2B 55 95 54 A9 66 2B 6D 6D 55 A9 64 95
DPCM : 5A D5 4A D6 AA 96 AA 54 AB 54 95 B4 A4 56 AB B4 B5 56 A9 91 55 6A D5 4A 59 AD 5A AA 64 5D 52 95
DPCM : 54 55 B6 95 AA D5 5A C5 4A 55 A9 56 2B 69 4B 6D C9 54 6D A9 12 B5 54 D1 4D AA 55 5B A6 4A 55 A5
DPCM : 5A 4B 65 4D D5 25 95 B5 95 4A 54 55 B5 96 C8 95 6D AA 4A 55 95 6A 4D A5 35 55 97 94 D6 56 25 A9
DPCM : 54 B5 B5 94 56 D5 4A 2B 55 95 A6 55 C9 55 55 AD 92 DA EA 12 A5 52 AD B5 54 55 55 35 35 55 55 55
DPCM : 55 45 57 59 55 4D 6A AB 2D 54 49 AD D5 52 55 56 15 55 55 55 55 55 45 5D 69 55 55 A9 AD B5 50 25
DPCM : AD D5 52 4D 59 55 35 55 55 55 2D 25 6D A5 55 55 A5 B5 B5 42 95 B4 D6 4A B5 54 55 DA 54 45 55 B5
DPCM : 04 B5 AA 56 55 55 D5 2D 95 54 AA 5A 4B A5 52 55 69 55 55 55 B5 11 55 AB 56 45 AA 55 AF 54 49 29
DPCM : 4A 2B B5 52 55 A5 51 54 53 6D 89 B4 52 53 55 09 5B BB 52 14 A9 AA 2D D5 2A 51 95 56 55 4B 6C 05
DPCM : 52 4D AD 55 55 55 55 45 55 55 55 55 41 55 55 55 55
DPCMDEF  40  1393 "lowG#"
DPCM : A5 AA 55 55 2D 55 55 A5 B4 56 99 D4 55 55 55 55 6D 55 A9 54 55 A5 5A 55 2B D5 54 55 56 5A A9 6A
DPCM : A5 96 5A 55 BB D2 4A D4 94 D4 5A 55 4B 35 55 95 AA 4A AB D2 56 55 55 B5 B5 AA 52 54 55 AA 56 69
DPCM : 17 55 55 A5 AA 6A A5 52 6D 25 DB CA B6 B2 29 AA 92 AA 6A 55 4B 55 55 95 AA 6A 95 52 AB AA 55 AD
DPCM : B6 AA 2A 29 95 AA 55 55 2B 55 55 95 B4 5A 49 55 B5 D4 55 75 9B 5A 15 2C 25 5D 55 D5 2A 55 55 A5
DPCM : AA B2 49 55 55 AB 55 5B B6 56 1A 49 95 AA 35 D5 4A 55 55 95 B4 5A 49 55 B6 D2 56 AD AD 36 15 2A
DPCM : 49 5D 55 D5 4A 55 55 A5 52 75 45 56 69 D5 55 5D AD 55 16 49 AA 5A 55 B5 4A 55 55 A5 52 5B 49 95
DPCM : 6A D5 56 AD 5B 56 0B 4A 4A 57 4B AD 4A 55 35 49 4B B5 92 2A AB B6 56 5B DB 26 A9 42 2A DB 96 5A
DPCM : 49 53 55 A9 92 5D 64 45 55 EB D6 AA B7 92 AA 82 54 B7 25 5B A9 4A 55 A9 A2 AD 54 49 53 BB 55 EB
DPCM : D6 A2 AA 82 D2 76 93 B6 C8 4A 4B 29 C9 17 B6 42 A5 BB B6 69 D7 C4 52 45 E2 F6 92 55 A9 AA 52 25
DPCM : A9 27 6E 50 A9 BB D6 E5 B6 60 55 49 E4 BD A4 2D A9 AA 52 25 E9 8A 5E A0 A9 D7 D6 DA 55 54 A9 4A
DPCM : E8 5D E9 4A AA AA 52 45 DA 92 5D 50 C9 57 D7 7A 29 59 52 55 B4 37 F1 4A AA AA 52 45 B5 52 57 D0
DPCM : A4 57 DB 76 49 1A 55 55 74 2F F2 89 AA B4 52 A5 54 D3 16 B1 64 57 DB 5E 44 1B 55 55 D9 8D EC 91
DPCM : AA D4 2A A9 AA B4 4A AC E8 4E DB 1D A9 26 55 55 D5 95 BA A2 AA AC 2A 55 D2 AA 4A AA E8 55 B7 4B
DPCM : AA 4A 55 55 B5 95 BA A8 2A B5 4A 55 B4 AA 8A AC B4 55 77 95 A6 52 55 55 6D 95 BA 94 4A AD AC 92
DPCM : B4 A9 94 AC AA D5 AE AA 2A 55 55 55 6D 55 BA 94 4A 35 5D 92 AA 2A 95 6C AA D5 2D B5 25 55 55 55
DPCM : B5 95 DA 94 4A 2D 5B 92 AA AA 24 6D A9 B6 55 B5 25 55 55 55 75 95 DA 92 52 B5 56 52 A9 2A A5 6C
DPCM : 65 AD 55 75 29 55 55 55 5D 29 5B 95 52 AD 56 52 A5 2A A9 6C 65 D5 56 75 29 35 55 55 5D 25 BB 94
DPCM : 52 AD 56 54 A5 2A A5 AC 55 53 57 B5 15 55 55 6A 5D AA 56 A5 52 5B 55 4A A5 4A 96 6C 55 E5 56 6D
DPCM : 95 54 95 AA 5D CA 56 25 D3 AA 55 52 25 55 15 75 95 EA 55 5D 15 35 15 AB AD B4 96 25 AB 6A 2B 49
DPCM : 25 55 25 75 A5 EA 55 5B 15 2D 25 9B 9D AA 95 AA AA DA 46 4A 49 55 45 75 A9 DA 55 2F 45 4D 49 AB
DPCM : 9B AC A5 A6 A5 7A 45 45 D2 54 89 AE AA DA B5 2B 45 4D 4A 6B A7 6A C5 55 C9 76 45 45 AC 92 4A D5
DPCM : AA DA 6D 4B 45 55 52 6B 27 6D A5 55 AA 6D 25 49 AA 94 4A D5 AA 76 5B 4B 51 95 64 DB 25 6B 65 53
DPCM : AA 6D 45 92 AA 94 92 BA AA 6D 67 D5 60 15 69 DB 49 6B D5 A4 AA 6D 89 52 AA A4 52 B5 A9 DB 65 55
DPCM : 64 25 6A B7 D1 56 D5 A4 AA AD 44 53 AA 22 55 6D D5 D5 A9 55 54 45 EA 76 51 4F D9 54 A5 B5 50 93
DPCM : AA 42 55 5B 75 D5 A9 99 58 51 D5 76 D4 2B DA A4 A9 55 D4 94 AA 44 D5 5A 5B B5 A9 2A 55 51 D5 AD
DPCM : D4 2B BA A4 AA AA D4 A4 AA 48 B5 B6 56 B5 A9 2A 59 52 B5 2D F5 4A B6 A4 AA AC 54 A5 25 A9 B4 B5
DPCM : 55 6D 29 55 59 52 6B 4B ED 92 2E A5 32 35 55 65 45 AA B4 6D 55 5B 4A 55 5A 52 5B 4B BD A4 2B A9
DPCM : 54 55 55 55 49 AA AA 5B 55 57 52 95 96 AA D6 4A BD A8 4B 2A 55 55 55 55 89 AC 6A 57 D5 96 52 95
DPCM : 55 D2 56 53 BB 68 8B 2A 55 55 55 95 8A B4 EA 56 B5 96 54 A5 55 B2 D5 52 BB 68 8B 2A 55 55 55 95
DPCM : 94 B4 EA 56 6D 95 52 A5 95 6A B5 52 3B 69 93 4A 55 55 55 15 55 B4 D5 56 6D A9 52 A5 95 6A AD 52
DPCM : 3D 69 93 4A 55 55 55 25 95 B4 55 5B 6D A5 51 65 95 5A AD 52 5D 69 A5 4A 56 55 55 29 95 AA 2D 5B
DPCM : 6D A5 49 59 A5 5A B5 52 5D 69 A5 4A D5 54 55 C9 A4 AA 2D 5D 6D A5 2A 69 A5 5A AD 52 5D 55 A9 52
DPCM : B5 54 55 D2 A4 56 2B 6D 6D 55 2A 59 A5 56 AD 54 AD 5A AA 52 AD 52 95 D2 A4 D5 AA 74 6D 55 1A 59
DPCM : A5 56 AD 54 B5 5A A9 52 5D CA 24 55 95 6D A9 6A 6D 4D AC 54 A5 5A 2D 65 4D 6D A9 54 5D A9 44 55
DPCM : 55 ED C4 56 75 55 2A 55 95 6A 4B 69 4B F5 44 65 5D A5 44 55 55 DD 42 57 76 A9 46 55 A5 6A 4B 69
DPCM : 4B B5 25 69 6B 4B 24 55 D5 D6 94 56 D5 CA 46 55 A5 6A 53 6C 95 B5 2A 71 6B 4B A4 52 D5 B6 54 55
DPCM : 55 4D 4B 55 55 55 93 74 A5 55 35 71 6B 2B 64 91 6D B5 54 95 55 55 53 55 55 55 15 75 A5 55 55 A9
DPCM : 6D 2D 54 49 6D B5 D4 94 55 D6 54 55 55 B5 24 6D A9 55 55 69 5D 2B 51 49 6B 2D D5 52 55 D9 52 55
DPCM : 55 AD 44 AD AA 55 55 56 DD 4A 49 A5 6A 2B D5 52 55 69 55 55 55 6D 44 B5 6A 55 A5 5A DD 52 25 A9
DPCM : 6A 2B B5 52 55 69 55 55 D5 56 48 2B 6D 55 25 5B DD 92 15 A9 6A 4D B5 4A 55 69 55 B5 D4 16 45 2D
DPCM : B5 55 29 5D 6B A5 15 65 6A 55 B5 52 55 65 55 35 B5 13 25 55 B5 A6 2A DD AA 54 95 54 69 55 B5 2A
DPCM : 55 95 46 55 75 13 25 55 D5 96 AA DA AA 55 95 54 A9 55 AD 54 55 25 5B D6 6C 13 15 A9 65 AB AA 56
DPCM : 5B 55 A9 2A 69 55 9B 54 44 25 97 B6 2A 13 25 A9 A9 4B 6A 55 3B 55 AA 26 6A 65 17 44 55 45 97 B6
DPCM : DA 42 45 A9 45 54 55 55 55 51 55 55 55 55 44 55 55
DPCMDEF  41  1393 "lowA#"
DPCM : 4B 55 55 55 55 55 55 55 55 55 55 55 55 55 55 55 AB AA 52 55 55 55 55 55 55 55 55 55 95 6A 55 55
DPCM : 55 55 AB AA 52 55 55 55 55 55 55 55 4B 55 A5 56 55 55 55 55 AB 2A 55 55 55 55 55 55 55 55 55 55
DPCM : A9 AA 56 55 56 AD AA AA 54 55 55 4B 55 55 55 55 95 6A CA AA 55 55 5A B5 D2 2A 55 55 55 4B 55 55
DPCM : 4D 55 55 55 AA AA 56 A5 5A 4D B5 52 55 D5 D2 54 55 55 53 55 55 A9 AA AA 55 A5 D6 AA AA 2A 55 D5
DPCM : 2A 55 55 D5 52 55 A5 AA AA AA 55 A5 B5 45 6D 25 59 AD 52 55 55 B5 52 55 A9 2A B5 AA 55 AA B5 52
DPCM : 6B 49 55 5B 49 55 4B 2D 55 55 AA 4A B5 6A 65 6A B5 D4 6A 49 D5 56 52 D5 AA 2A 55 95 52 55 55 6D
DPCM : A5 5A 4B D5 5A 51 AD 55 52 AD AA 4A 55 45 AD 54 55 6B AA 56 55 55 5B 54 6B 55 52 AB AA 52 55 51
DPCM : 4D 55 E9 AA AA 55 55 D5 96 54 5B 55 D4 AA 9A 52 53 D4 54 55 E9 AA 6C 55 5A D5 96 D4 55 55 D4 AA
DPCM : 16 B5 12 B5 54 95 BA 4A 57 A5 55 AD 96 6C D5 0A B5 AA 45 AD 44 2B 59 95 B6 D4 55 6A 65 AD 25 5B
DPCM : 6D 42 AB 59 51 27 D4 92 56 65 AD 6C 55 55 6A 6B A9 DA AA A8 AA 9A B4 11 AD A4 55 55 AD 5A 59 A5
DPCM : DA 5A AA AE 2A 95 AC A5 9A 44 95 AA 56 AD AA AA 56 D1 D5 AA B2 9B 2A 29 AD AA 2A 51 95 AA AD 5A
DPCM : 95 6A 55 B4 B5 26 ED A5 4A A9 AA 5A 52 52 AA 6A AB 56 49 5B 95 6C B5 52 77 A9 8A AA AA 96 94 A4
DPCM : A9 DA 6A 95 D4 56 A5 5A AD D4 6D A9 92 AA AA AA 24 59 AA AD 5A 25 AD 55 A9 5A 4B 75 5B 2A A5 AA
DPCM : A5 2A 49 56 5A AB 55 51 6B 55 A9 D6 54 6D 97 4A AA 6A A9 4A A4 AA B5 6A 95 4A 6B 55 A9 55 55 DB
DPCM : AA 94 6A AA AA 12 A9 5A AB 56 A5 D2 5A 95 6C 55 D5 AE 2A A9 95 AA 2A 45 AA D5 AA 55 AA AA 55 25
DPCM : 5B 55 B5 9B 8A 5A A5 A6 4A A1 5A AD 56 95 AA 6A 55 D1 56 59 DD A6 A2 56 69 A5 52 D0 D6 6A 55 95
DPCM : D2 56 95 B4 55 5A 77 29 A9 4B 5A 29 15 74 B5 56 56 A5 AA 55 25 6D A9 B6 5D 92 DA A2 56 49 41 5D
DPCM : 6D 95 56 A9 6A 55 49 AD AA DD 4E A4 AD 68 95 52 50 57 5B A9 55 AA 56 55 64 AB 6C B7 15 EA 2A 55
DPCM : A5 24 D4 B6 56 6A 95 6A 55 15 BA 4A DB 5B 85 BA 4A 55 29 21 B5 6B A5 56 A5 56 55 85 AE D2 F6 55
DPCM : A2 AD 52 55 52 88 EE 56 6A 55 55 55 55 A2 AB B4 7D 95 54 AD 54 95 24 A2 BB 95 5A 55 55 D5 A4 E8
DPCM : 4A ED 5D A5 64 2B 69 29 89 E8 AD A5 56 55 95 35 49 BA 52 F7 56 25 DA 8A 9A 52 21 FA AA 55 55 55
DPCM : 55 95 92 AE B4 BD B6 90 B6 A2 2A 55 50 BD 6C 55 55 55 55 25 65 AB 6C B7 2D A8 AD 48 4D 15 D2 2E
DPCM : 6D 55 55 55 55 49 D9 2A DB 6D 0B 6A 4D 52 55 45 AA 4D 5B 55 55 55 95 4A D6 AA B6 DB 82 6A 15 55
DPCM : 53 89 5A 4D 57 55 55 55 A5 52 B5 6A 6D B7 A0 6A 45 55 55 52 55 D3 36 55 55 55 A9 52 B5 56 DD 2D
DPCM : A2 6A 52 55 95 4A D5 B2 2D 55 35 55 AA 54 AB 55 BB 95 48 AD 54 55 A9 2A AD 6A 4B 55 4B 95 4A AB
DPCM : 6A 55 6F 25 52 4D 55 55 9A 2A AB DA 52 D5 4A A9 52 AB 5A D5 AD 4A 52 55 55 A5 5A A9 AA B5 54 AD
DPCM : 52 AA D4 CA 56 B5 AB 92 52 55 55 A9 55 A9 6A 55 55 AD 94 52 B5 AA 55 6D AB A4 54 55 55 69 55 65
DPCM : 5A D5 54 2B 25 55 AB 6A 55 5B 55 25 55 55 55 59 55 55 55 B5 B4 2A 29 D5 AA 5A D5 5A 55 49 69 55
DPCM : 56 55 55 55 55 2B AD 4A 49 B5 AA 56 B5 6A 55 52 6A 55 56 55 55 55 D5 4A AD 92 54 B5 AA 55 AB 6A
DPCM : 95 94 5A A5 56 55 55 55 D5 4A 2D 15 55 AD 6A D5 4A 6B 25 45 57 A9 55 AD 52 4D B5 52 4B 29 D5 AA
DPCM : 56 B5 52 AB 4A D2 55 AA D5 AA D4 4A AD 54 55 52 AB AA 55 AD 54 AB 94 B4 A5 5A B5 AA AA 52 2B 55
DPCM : 95 B4 AA 6A D5 2A 55 4B 45 76 A5 56 5B A5 AA B4 52 55 15 6D A9 5A B5 4A 55 55 91 5E A9 D5 D6 A4
DPCM : AA AA 54 55 45 5B A9 56 AD 52 55 95 A8 57 6A B5 2D A9 AA 4A 55 55 B2 55 AA 55 2B 55 55 49 EA 95
DPCM : 5A 6D 2B AC AA 4A 55 95 6C 55 6A B5 4A 56 A5 92 BA A5 55 DD 09 AD AA 54 55 45 57 95 5A AD 92 55
DPCM : 49 A9 6E 65 55 B7 22 AB AA 54 55 D1 55 55 5A AB 54 55 52 AA 5B 55 D5 2D A9 A6 2A 55 95 6C 55 95
DPCM : B6 49 55 95 94 DA 55 55 6D 4B AA A5 4A 55 A5 56 55 A5 AD 52 55 25 A9 6E 55 D5 56 A5 AA AA 52 55
DPCM : A9 55 55 6A AB 54 55 4A A9 57 55 B5 55 AA AA AA 54 55 6A 55 95 D6 2A 55 A5 92 DA 55 55 6D A5 AA
DPCM : AA 2A 55 95 5A 55 95 D5 4A 55 C9 A4 6D 55 B5 6A AA AA AA 4A 55 A5 56 55 55 B5 52 95 54 55 57 55
DPCM : AB AA AA AC AA 54 55 A9 65 55 56 55 55 29 55 75 55 D5 AA AA 54 AB 2A 55 93 56 6A 95 55 55 55 52
DPCM : 55 5B D5 AA AA 2A B5 AA 52 B5 A4 95 5A 69 55 55 15 55 AD 55 AD B2 96 54 AD 2A 55 4D 55 A5 95 56
DPCM : 55 55 45 D6 5A 5A AB 6A 45 55 AD 4A 55 55 55 6A A9 55 55 55 91 B6 A5 B5 AA 56 52 D5 AA 54 4D 55
DPCM : A5 16 75 55 55 55 A8 5B AA 5D 6A 23 55 B5 4A AD 54 55 A9 49 5B 55 55 15 EA AA 6A 97 AE 50 55 AB
DPCM : 92 CA 52 56 AA 64 57 55 55 49 D6 1A DA A5 2B 54 D5 AA 92 AA A4 15 2A DA 55 B5 54 52 D4 95 75 D5
DPCM : 0A 55 51 55 55 55 55 55 45 55 55 55 55 51 15 55 55

# Instruments
INSTFDS    0     1   0  63   0 "FDS Bass"
FDSWAVE    0 : 33 36 39 35 36 37 50 53 51 52 59 60 61 62 63 59 63 63 58 61 60 59 57 40 42 44 42 38 24 24 26 33 30 27 24 21 30 20 23 23  8  6  4  3  2  1  0  0  0  0  0  2  3 10 16  8 10 29 28 28 28 24 27 30
FDSMOD     0 :  6  6  6  6  6  6  6  6  6  6  6  6  6  6  6  6  6  6  6  6  6  6  6  6  6  6  6  6  6  6  6  6
FDSMACRO   0   0  -1  -1   0 : 24 17 16 15 14 13 12 11 10 9 8 7 6 5 4 3 2 1 0
INST2A03   1     6  -1  -1  -1  -1 "lol"
INSTFDS    2     1   0   0   0 "FDS Vibra"
FDSWAVE    2 : 33 36 39 42 41 48 50 53 58 54 59 60 61 62 54 63 63 63 62 61 59 61 62 27 41 50 48 45 43 45 47 33 27 19 24 21 18 15 21 63  8  6  1  3  2  1  0 12  0  0  1  2  3 11  6  8 10 16 12  8 21 22 27  0
FDSMOD     2 :  6  6  6  6  6  6  6  6  6  6  6  6  6  6  6  6  6  6  6  6  6  6  6  6  6  6  6  6  6  6  6  6
FDSMACRO   2   0  -1  -1   0 : 28
INST2A03   3    -1  -1  -1  -1  -1 "Blank"
INST2A03   4    -1   0  -1  -1   1 "0 -4 -7 (5)"
INST2A03   5     0   2  -1  -1  -1 "Closed Hat"
INST2A03   6     1   3  -1  -1  -1 "Open Hat"
INST2A03   7    -1   4  -1  -1   1 "0 -3 -7 (5)"
INST2A03   8     2   5  -1  -1  -1 "Snare"
INST2A03   9    -1  -1  -1  -1   2 "P-Echo"
INSTFDS   10     1   0   0   0 "FDS Lead"
FDSWAVE   10 : 32 32 31 31 34 36 45 52 54 57 58 60 60 60 60 58 58 57 57 56 56 56 55 55 56 56 57 58 59 11 27 27 18  8  8  7  1  0  0  0 51  1  0  1  1  8 13 21 51 63 61 55 44 42 41 43 12 12 12 41 39 36 32 32
FDSMOD    10 :  0  0  0  0  0  0  0  0  0  0  0  0  0  0  0  0  0  0  0  0  0  0  0  0  0  0  0  0  0  0  0  0
FDSMACRO  10   0  -1  -1   0 : 7 16 20
INSTFDS   11     1   0   0   0 "FDS Lead 2"
FDSWAVE   11 : 35 36 58 58 59 61 63 60 59 44 36 27 27 28  0 28 28 28 27 27 26 26 37 44 50 54 59 63 22 63 63 62 55 52 48 42 33 25 12  7  2  1  0 18  0  0  1  3  5  6  9 11 15 18 21 24 28 32 35 62 63 63 63 63
FDSMOD    11 :  0  0  0  0  0  0  0  0  0  0  0  0  0  0  0  0  0  0  0  0  0  0  0  0  0  0  0  0  0  0  0  0
FDSMACRO  11   0  -1  -1   0 : 32 20
INSTFDS   12     1   0  31   0 "FDS Phase FX"
FDSWAVE   12 : 33 36 39 42 45 63 63 63 63 63 63 63 63 63 63 63 63 63 63 63 63 63 63 63 63 63 63 63 42 39 36 33 30 27 24 21 18  0  0  0  0  0  0  0  0  0  0  0  0  0  0  0  0  0  1  5  7 10 12 15 18 22 25 31
FDSMOD    12 :  3  3  3  3  3  3  3  3  3  3  3  3  3  3  3  3  3  3  3  3  3  3  3  3  3  3  3  3  3  3  3  3
FDSMACRO  12   0  -1  -1   0 : 22
INST2A03  13     3  -1  -1  -1   3 "Lead I"
INST2A03  14    -1   8  -1  -1   1 "0 -5 -9 (4)"
INST2A03  15     4  -1  -1  -1   4 "Lead II"
INST2A03  16    -1   9  -1  -1   1 "0 -3 -7 (4)"
INST2A03  17    -1  10  -1  -1  -1 "Tri Bass"
INST2A03  18    -1  11  -1  -1   1 "0 -4 -9 (4)"
INST2A03  19    -1  12  -1  -1   1 "0 -5 -8 (4)"
INST2A03  20    -1  13  -1  -1   5 "0 -3 (4)"
INST2A03  21    -1  14  -1  -1   5 "0 -4 (4)"
INSTFDS   22     1   0  63   0 "FDS Synth"
FDSWAVE   22 : 33 36 39 33 29 48 50 53 44 42 59 60 61 62 63 55 63 63 55 61 60 59 57 40 42 44 48 45 24 24 26 33 30 27 24 21 30 20 23 23  8  6  4  3  2  1  0 10  0  0 11  2  3 20 16  8 10 33 33 32 32 24 27 30
FDSMOD    22 :  1  1  1  1  1  1  1  1  1  1  1  1  1  1  1  1  1  1  1  1  1  1  1  1  1  1  1  1  1  1  1  1
FDSMACRO  22   0  -1  -1   0 : 26 18
INST2A03  23    -1  16  -1  -1   5 "0 -5 (4)"
INST2A03  24     5  -1  -1  -1   6 "Lead II"
INST2A03  25    -1   8  -1  -1   5 "0 -5 -9 (4) (D)"
INST2A03  26    -1  12  -1  -1   5 "0 -5 -8 (4) (D)"
INSTFDS   27     1   0  63   0 "FDS Synth 2"
FDSWAVE   27 :  0  0  0  0  0  0  0  0  0  1  0 12 63 63 63 63 63 56 63 63 63 63 63 63 63 63 62 63 63 63 63 63 55 63 63 63 63 63 63 63 63 63 63 63 63 63 63 63 58 63 63 63 63 63 63 63 63 63 63 63 63 63 59 63
FDSMOD    27 :  1  1  1  1  1  1  1  1  1  1  1  1  1  1  1  1  1  1  1  1  1  1  1  1  1  1  1  1  1  1  1  1
FDSMACRO  27   0  -1  -1   0 : 24 14
INST2A03  28    -1  18  -1  -1   5 "0 -4 -9 (4) (D)"
INSTFDS   29     1   0   0   0 "FDS Trumpet"
FDSWAVE   29 :  0  0  0  0  0  0  0  0  4  3  0  3  2  0  2  2  0  0  0  0  0  0  0  0  0  0  3  0  2  1  1  0  0  0  0  0  0  0  5  0  0  0  1  0  1  0  0  0  0  0  0  0  0  0  0  0  0  0  0 63 63 63 63 63
FDSMOD    29 :  1  1  1  1  1  1  1  1  1  1  1  1  1  1  1  1  1  1  1  1  1  1  1  1  1  1  1  1  1  1  1  1
FDSMACRO  29   0  -1  -1   0 : 8 10 12 15 18 24 18
INST2A03  30    -1  -1  -1  -1  -1 "DPCM Chords"
KEYDPCM  30   2  10     1  15   0     0  -1
KEYDPCM  30   2  11    24  15   0     0  -1
KEYDPCM  30   3   0    11  15   0     0  -1
KEYDPCM  30   3   2    10  15   0     0  -1
KEYDPCM  30   3   3    18  15   0     0  -1
KEYDPCM  30   3   4    22  15   0     0  -1
KEYDPCM  30   3   5    12  15   0     0  -1
KEYDPCM  30   3   7    15  15   0     0  -1
KEYDPCM  30   3   8     0  15   0     0  -1
KEYDPCM  30   3   9    26  15   0     0  -1
KEYDPCM  30   3  10    11  15   0     0  -1
KEYDPCM  30   3  11     2  15   0     0  -1
KEYDPCM  30   4   0     8  15   0     0  -1
KEYDPCM  30   4   1     3  15   0     0  -1
KEYDPCM  30   4   3    20  15   0     0  -1
KEYDPCM  30   4   4     4  15   0     0  -1
KEYDPCM  30   4   5    21  15   0     0  -1
KEYDPCM  30   4   6     5  15   0     0  -1
INST2A03  31    -1  -1  -1  -1  -1 "DPCM Chords 3"
KEYDPCM  31   3   2    23  15   0     0  -1
KEYDPCM  31   3   7    17  15   0     0  -1
KEYDPCM  31   3   8    16  15   0     0  -1
KEYDPCM  31   3  10    19  15   0     0  -1
INST2A03  32    -1  -1  -1  -1  -1 "DPCM Chords 2"
KEYDPCM  32   3   5    14  15   0     0  -1
KEYDPCM  32   3   6    25  15   0     0  -1
KEYDPCM  32   3   7     7  15   0     0  -1
KEYDPCM  32   3   8     9  15   0     0  -1
KEYDPCM  32   3  10     6  15   0     0  -1
KEYDPCM  32   4   0    13  15   0     0  -1
INST2A03  33    -1  19  -1  -1   5 "0 -3 -7 (4) (D)"
INST2A03  34    -1  20  -1  -1   5 "0 -4 -7 (4) (D)"
INST2A03  35    -1  -1  -1  -1  -1 "DPCM Megachoir"
KEYDPCM  35   2   0    35  15   0     0  -1
KEYDPCM  35   2   2    36  15   0     0  -1
KEYDPCM  35   2   9    29  15   0     0  -1
KEYDPCM  35   2  11    28  15   0     0  -1
KEYDPCM  35   3   0    30  15   0     0  -1
KEYDPCM  35   3   2    31  15   0     0  -1
KEYDPCM  35   3   4    27  15   0     0  -1
KEYDPCM  35   3   5    32  15   0     0  -1
KEYDPCM  35   3   6    34  15   0     0  -1
KEYDPCM  35   3   7    33  15   0     0  -1
INST2A03  36    -1  -1  -1  -1  -1 "DPCM Low String"
KEYDPCM  36   3   0    37  15   0     0  -1
KEYDPCM  36   3   4    38  15   0     0  -1
KEYDPCM  36   3   7    39  15   0     0  -1
KEYDPCM  36   3   8    40  15   0     0  -1
KEYDPCM  36   3  10    41  15   0     0  -1

# Tracks

TRACK 256   5 150 "New song"
COLUMNS : 2 2 2 1 2 4

ORDER 00 : 00 00 00 00 00 00
ORDER 01 : 01 01 01 01 01 01
ORDER 02 : 02 02 02 02 02 02
ORDER 03 : 03 03 03 03 03 03
ORDER 04 : 02 02 04 03 02 04
ORDER 05 : 04 04 05 03 04 05
ORDER 06 : 05 05 06 02 05 06
ORDER 07 : 05 05 07 03 05 07
ORDER 08 : 06 06 08 04 06 08
ORDER 09 : 07 07 09 05 07 09
ORDER 0A : 08 08 0A 06 08 0A
ORDER 0B : 09 09 0B 07 09 0B
ORDER 0C : 0A 0A 0C 07 0A 0C
ORDER 0D : 0B 0B 0D 08 0B 0D
ORDER 0E : 0B 0C 0E 09 0B 0E
ORDER 0F : 0C 0D 0F 0A 0C 0F
ORDER 10 : 0D 0E 0E 0B 0B 0E
ORDER 11 : 0D 0F 10 0B 0B 10
ORDER 12 : 0E 10 11 0C 0D 11
ORDER 13 : 0F 11 12 0A 0E 12
ORDER 14 : 10 12 13 0B 0F 13
ORDER 15 : 11 13 14 0B 10 14
ORDER 16 : 12 14 15 0D 11 15
ORDER 17 : 13 15 16 0E 12 16
ORDER 18 : 14 16 17 0F 13 17
ORDER 19 : 15 17 18 10 14 18
ORDER 1A : 16 18 19 10 15 19
ORDER 1B : 17 19 1A 11 16 1A
ORDER 1C : 18 1A 1B 12 17 1B
ORDER 1D : 19 1B 1C 13 18 1C
ORDER 1E : 1A 1C 1D 14 19 1D
ORDER 1F : 1B 1D 1E 15 1A 1E
ORDER 20 : 1C 1E 1F 16 1B 1F
ORDER 21 : 1D 1F 20 17 1C 20
ORDER 22 : 1D 1F 20 17 1C 21
ORDER 23 : 1E 20 21 17 1D 22
ORDER 24 : 1F 21 22 18 1E 23

PATTERN 00
ROW 00 : G#2 03 3 V00 ... : D#3 04 7 400 ... : G#3 03 . 226 ... : C-# 03 E A02 : G#3 1E . F05 ... : G#5 02 8 400 ... ... ...
ROW 01 : B-2 03 . ... ... : ... .. . ... ... : ... .. . ... ... : ... .. . A05 : ... .. . ... ... : ... .. 4 ... ... ... ...
ROW 02 : D#3 03 . ... ... : ... .. . ... ... : ... .. . ... ... : ... .. . A02 : ... .. . ... ... : B-5 02 8 ... ... ... ...
ROW 03 : G#3 03 . ... ... : ... .. . ... ... : ... .. . ... ... : ... .. . A05 : ... .. . ... ... : G#5 02 4 G01 ... ... ...
ROW 04 : G#2 03 4 V01 ... : ... .. 6 ... ... : G#2 11 . 200 ... : ... .. . A02 : ... .. . X05 ... : D#6 02 8 ... ... ... ...
ROW 05 : B-2 03 . ... ... : ... .. . ... ... : ... .. . S02 ... : ... .. . A05 : ... .. . ... ... : B-5 02 4 G01 ... ... ...
ROW 06 : D#3 03 . ... ... : ... .. . ... ... : G#1 11 . ... ... : D-# 05 5 A00 : ... .. . ... ... : G#6 02 8 ... ... ... ...
ROW 07 : G#3 03 . ... ... : ... .. . ... ... : ... .. . S02 ... : ... .. . ... : ... .. . ... ... : ... .. 6 ... ... ... ...
ROW 08 : G#2 03 5 V02 ... : ... .. 5 ... ... : G#1 11 . ... ... : D-# 05 . ... : ... .. . X05 ... : ... .. 4 ... ... ... ...
ROW 09 : B-2 03 . ... ... : ... .. . ... ... : ... .. . S02 ... : ... .. . ... : ... .. . ... ... : ... .. 2 ... ... ... ...
ROW 0A : D#3 03 . ... ... : ... .. . ... ... : G#1 11 . ... ... : D-# 05 . ... : ... .. . ... ... : G#6 02 6 ... ... ... ...
ROW 0B : G#3 03 . ... ... : ... .. . ... ... : ... .. . S02 ... : ... .. . ... : ... .. . ... ... : ... .. 4 ... ... ... ...
ROW 0C : G#2 03 6 V01 ... : ... .. 6 ... ... : G#2 11 . ... ... : C-# 06 . ... : ... .. . X05 ... : ... .. 2 ... ... ... ...
ROW 0D : B-2 03 . ... ... : ... .. . ... ... : ... .. . S02 ... : ... .. . ... : ... .. . ... ... : ... .. 1 ... ... ... ...
ROW 0E : D#3 03 . ... ... : ... .. . ... ... : G#1 11 . ... ... : D-# 05 . ... : ... .. . ... ... : G#6 02 4 ... ... ... ...
ROW 0F : G#3 03 . ... ... : ... .. . ... ... : ... .. . S02 ... : ... .. . ... : ... .. . ... ... : ... .. 3 ... ... ... ...
ROW 10 : G#2 03 7 V00 ... : ... .. 7 ... ... : G#1 11 . ... ... : D-# 05 . ... : ... .. . X05 ... : ... .. 2 ... ... ... ...
ROW 11 : B-2 03 . ... ... : ... .. . ... ... : ... .. . S02 ... : ... .. . ... : ... .. . ... ... : ... .. 1 ... ... ... ...
ROW 12 : D#3 03 . ... ... : ... .. . ... ... : G#1 11 . ... ... : D-# 05 . ... : ... .. . ... ... : G#6 02 3 ... ... ... ...
ROW 13 : G#3 03 . ... ... : ... .. . ... ... : ... .. . S02 ... : ... .. . ... : ... .. . ... ... : ... .. 2 ... ... ... ...
ROW 14 : G#2 03 8 V01 ... : ... .. 6 ... ... : G#2 11 . ... ... : C-# 06 6 ... : ... .. . X05 ... : ... .. 1 ... ... ... ...
ROW 15 : B-2 03 . ... ... : ... .. . ... ... : ... .. . S02 ... : ... .. . ... : ... .. . ... ... : ... .. 0 ... ... ... ...
ROW 16 : D#3 03 . ... ... : ... .. . ... ... : G#1 11 . ... ... : D-# 05 5 ... : ... .. . ... ... : G#6 02 2 ... ... ... ...
ROW 17 : G#3 03 . ... ... : ... .. . ... ... : ... .. . S02 ... : ... .. . ... : ... .. . ... ... : ... .. 1 ... ... ... ...
ROW 18 : G#2 03 9 V02 ... : ... .. 5 ... ... : G#1 11 . ... ... : D-# 05 . ... : ... .. . X05 ... : ... .. . ... ... ... ...
ROW 19 : B-2 03 . ... ... : ... .. . ... ... : ... .. . S02 ... : ... .. . ... : ... .. . ... ... : ... .. 0 ... ... ... ...
ROW 1A : D#3 03 . ... ... : ... .. . ... ... : G#1 11 . ... ... : D-# 05 . ... : ... .. . ... ... : G#6 02 2 ... ... ... ...
ROW 1B : G#3 03 . ... ... : ... .. . ... ... : ... .. . S02 ... : ... .. . ... : ... .. . ... ... : ... .. 1 ... ... ... ...
ROW 1C : G#2 03 A V01 ... : ... .. 6 ... ... : G#2 11 . ... ... : C-# 06 6 ... : ... .. . ... ... : ... .. 0 ... ... ... ...
ROW 1D : B-2 03 . ... ... : ... .. . ... ... : ... .. . S02 ... : ... .. . ... : ... .. . ... ... : ... .. . ... ... ... ...
ROW 1E : D#3 03 . ... ... : ... .. . ... ... : G#1 11 . ... ... : D-# 05 5 ... : ... .. . ... ... : G#6 02 1 ... ... ... ...
ROW 1F : G#3 03 . ... ... : ... .. . ... ... : ... .. . S02 ... : ... .. . ... : ... .. . ... ... : ... .. . ... ... ... ...
ROW 20 : A#2 03 3 V00 ... : A#2 04 7 ... ... : A#1 11 . ... ... : D-# 05 6 ... : A#2 1E . ... ... : A#5 02 8 ... ... ... ...
ROW 21 : D#3 03 . ... ... : ... .. . ... ... : ... .. . S02 ... : ... .. . ... : ... .. . ... ... : ... .. 4 ... ... ... ...
ROW 22 : F#3 03 . ... ... : ... .. . ... ... : A#1 11 . ... ... : D-# 05 . ... : ... .. . ... ... : D#6 02 8 ... ... ... ...
ROW 23 : A#3 03 . ... ... : ... .. . ... ... : ... .. . S02 ... : ... .. . ... : ... .. . ... ... : A#5 02 4 G01 ... ... ...
ROW 24 : A#2 03 4 V01 ... : ... .. 6 ... ... : A#2 11 . ... ... : C-# 06 . ... : ... .. . X05 ... : F#6 02 8 ... ... ... ...
ROW 25 : D#3 03 . ... ... : ... .. . ... ... : ... .. . S02 ... : ... .. . ... : ... .. . ... ... : D#6 02 4 G01 ... ... ...
ROW 26 : F#3 03 . ... ... : ... .. . ... ... : A#1 11 . ... ... : D-# 05 . ... : ... .. . ... ... : A#6 02 8 ... ... ... ...
ROW 27 : A#3 03 . ... ... : ... .. . ... ... : ... .. . S02 ... : ... .. . ... : ... .. . ... ... : ... .. 6 ... ... ... ...
ROW 28 : A#2 03 5 V02 ... : ... .. 5 ... ... : A#1 11 . ... ... : D-# 05 . ... : ... .. . X05 ... : ... .. 4 ... ... ... ...
ROW 29 : D#3 03 . ... ... : ... .. . ... ... : ... .. . S02 ... : ... .. . ... : ... .. . ... ... : ... .. 2 ... ... ... ...
ROW 2A : F#3 03 . ... ... : ... .. . ... ... : A#1 11 . ... ... : D-# 05 . ... : ... .. . ... ... : A#6 02 6 ... ... ... ...
ROW 2B : A#3 03 . ... ... : ... .. . ... ... : ... .. . S02 ... : ... .. . ... : ... .. . ... ... : ... .. 4 ... ... ... ...
ROW 2C : A#2 03 6 V01 ... : ... .. 6 ... ... : A#2 11 . ... ... : C-# 06 . ... : ... .. . X05 ... : ... .. 2 ... ... ... ...
ROW 2D : D#3 03 . ... ... : ... .. . ... ... : ... .. . S02 ... : ... .. . ... : ... .. . ... ... : ... .. 1 ... ... ... ...
ROW 2E : F#3 03 . ... ... : ... .. . ... ... : A#1 11 . ... ... : D-# 05 . ... : ... .. . ... ... : A#6 02 4 ... ... ... ...
ROW 2F : A#3 03 . ... ... : ... .. . ... ... : ... .. . S02 ... : ... .. . ... : ... .. . ... ... : ... .. 3 ... ... ... ...
ROW 30 : A#2 03 7 V00 ... : ... .. 7 ... ... : A#1 11 . ... ... : D-# 05 6 ... : ... .. . X05 ... : ... .. 2 ... ... ... ...
ROW 31 : D#3 03 . ... ... : ... .. . ... ... : ... .. . S02 ... : ... .. . ... : ... .. . ... ... : ... .. 1 ... ... ... ...
ROW 32 : F#3 03 . ... ... : ... .. . ... ... : A#1 11 . ... ... : D-# 05 . ... : ... .. . ... ... : A#6 02 3 ... ... ... ...
ROW 33 : A#3 03 . ... ... : ... .. . ... ... : ... .. . S02 ... : ... .. . ... : ... .. . ... ... : ... .. 2 ... ... ... ...
ROW 34 : A#2 03 8 V01 ... : ... .. 6 ... ... : A#2 11 . ... ... : C-# 06 7 ... : ... .. . X05 ... : ... .. 1 ... ... ... ...
ROW 35 : D#3 03 . ... ... : ... .. . ... ... : ... .. . S02 ... : ... .. . ... : ... .. . ... ... : ... .. 0 ... ... ... ...
ROW 36 : F#3 03 . ... ... : ... .. . ... ... : A#1 11 . ... ... : D-# 05 6 ... : ... .. . ... ... : A#6 02 2 ... ... ... ...
ROW 37 : A#3 03 . ... ... : ... .. . ... ... : ... .. . S02 ... : ... .. . ... : ... .. . ... ... : ... .. 1 ... ... ... ...
ROW 38 : A#2 03 9 V02 ... : ... .. 5 ... ... : A#1 11 . ... ... : D-# 05 . ... : ... .. . X05 ... : ... .. . ... ... ... ...
ROW 39 : D#3 03 . ... ... : ... .. . ... ... : ... .. . S02 ... : ... .. . ... : ... .. . ... ... : ... .. 0 ... ... ... ...
ROW 3A : F#3 03 . ... ... : ... .. . ... ... : A#1 11 . ... ... : D-# 05 . ... : ... .. . ... ... : A#6 02 2 ... ... ... ...
ROW 3B : A#3 03 . ... ... : ... .. . ... ... : ... .. . S02 ... : ... .. . ... : ... .. . ... ... : ... .. 1 ... ... ... ...
ROW 3C : A#2 03 A V01 ... : ... .. 6 ... ... : A#2 11 . ... ... : C-# 06 7 ... : ... .. . ... ... : ... .. 0 ... ... ... ...
ROW 3D : D#3 03 . ... ... : ... .. . ... ... : ... .. . S02 ... : ... .. . ... : ... .. . ... ... : ... .. . ... ... ... ...
ROW 3E : F#3 03 . ... ... : ... .. . ... ... : A#1 11 . ... ... : D-# 05 6 ... : ... .. . ... ... : A#6 02 1 ... ... ... ...
ROW 3F : A#3 03 . ... ... : ... .. . ... ... : ... .. . S02 ... : ... .. . ... : ... .. . ... D00 : ... .. . ... ... ... ...
ROW 40 : ... .. . ... ... : ... .. . ... ... : ... .. . ... ... : ... .. . ... : ... .. . ... ... : ... .. . ... ... ... ...
ROW 41 : ... .. . ... ... : ... .. . ... ... : ... .. . ... ... : ... .. . ... : ... .. . ... ... : ... .. . ... ... ... ...
ROW 42 : ... .. . ... ... : ... .. . ... ... : ... .. . ... ... : ... .. . ... : ... .. . ... ... : ... .. . ... ... ... ...
ROW 43 : ... .. . ... ... : ... .. . ... ... : ... .. . ... ... : ... .. . ... : ... .. . ... ... : ... .. . ... ... ... ...
ROW 44 : ... .. . ... ... : ... .. . ... ... : ... .. . ... ... : ... .. . ... : ... .. . ... ... : ... .. . ... ... ... ...
ROW 45 : ... .. . ... ... : ... .. . ... ... : ... .. . ... ... : ... .. . ... : ... .. . ... ... : ... .. . ... ... ... ...
ROW 46 : ... .. . ... ... : ... .. . ... ... : ... .. . ... ... : ... .. . ... : ... .. . ... ... : ... .. . ... ... ... ...
ROW 47 : ... .. . ... ... : ... .. . ... ... : ... .. . ... ... : ... .. . ... : ... .. . ... ... : ... .. . ... ... ... ...
ROW 48 : ... .. . ... ... : ... .. . ... ... : ... .. . ... ... : ... .. . ... : ... .. . ... ... : ... .. . ... ... ... ...
ROW 49 : ... .. . ... ... : ... .. . ... ... : ... .. . ... ... : ... .. . ... : ... .. . ... ... : ... .. . ... ... ... ...
ROW 4A : ... .. . ... ... : ... .. . ... ... : ... .. . ... ... : ... .. . ... : ... .. . ... ... : ... .. . ... ... ... ...
ROW 4B : ... .. . ... ... : ... .. . ... ... : ... .. . ... ... : ... .. . ... : ... .. . ... ... : ... .. . ... ... ... ...
ROW 4C : ... .. . ... ... : ... .. . ... ... : ... .. . ... ... : ... .. . ... : ... .. . ... ... : ... .. . ... ... ... ...
ROW 4D : ... .. . ... ... : ... .. . ... ... : ... .. . ... ... : ... .. . ... : ... .. . ... ... : ... .. . ... ... ... ...
ROW 4E : ... .. . ... ... : ... .. . ... ... : ... .. . ... ... : ... .. . ... : ... .. . ... ... : ... .. . ... ... ... ...
ROW 4F : ... .. . ... ... : ... .. . ... ... : ... .. . ... ... : ... .. . ... : ... .. . ... ... : ... .. . ... ... ... ...
ROW 50 : ... .. . ... ... : ... .. . ... ... : ... .. . ... ... : ... .. . ... : ... .. . ... ... : ... .. . ... ... ... ...
ROW 51 : ... .. . ... ... : ... .. . ... ... : ... .. . ... ... : ... .. . ... : ... .. . ... ... : ... .. . ... ... ... ...
ROW 52 : ... .. . ... ... : ... .. . ... ... : ... .. . ... ... : ... .. . ... : ... .. . ... ... : ... .. . ... ... ... ...
ROW 53 : ... .. . ... ... : ... .. . ... ... : ... .. . ... ... : ... .. . ... : ... .. . ... ... : ... .. . ... ... ... ...
ROW 54 : ... .. . ... ... : ... .. . ... ... : ... .. . ... ... : ... .. . ... : ... .. . ... ... : ... .. . ... ... ... ...
ROW 55 : ... .. . ... ... : ... .. . ... ... : ... .. . ... ... : ... .. . ... : ... .. . ... ... : ... .. . ... ... ... ...
ROW 56 : ... .. . ... ... : ... .. . ... ... : ... .. . ... ... : ... .. . ... : ... .. . ... ... : ... .. . ... ... ... ...
ROW 57 : ... .. . ... ... : ... .. . ... ... : ... .. . ... ... : ... .. . ... : ... .. . ... ... : ... .. . ... ... ... ...
ROW 58 : ... .. . ... ... : ... .. . ... ... : ... .. . ... ... : ... .. . ... : ... .. . ... ... : ... .. . ... ... ... ...
ROW 59 : ... .. . ... ... : ... .. . ... ... : ... .. . ... ... : ... .. . ... : ... .. . ... ... : ... .. . ... ... ... ...
ROW 5A : ... .. . ... ... : ... .. . ... ... : ... .. . ... ... : ... .. . ... : ... .. . ... ... : ... .. . ... ... ... ...
ROW 5B : ... .. . ... ... : ... .. . ... ... : ... .. . ... ... : ... .. . ... : ... .. . ... ... : ... .. . ... ... ... ...
ROW 5C : ... .. . ... ... : ... .. . ... ... : ... .. . ... ... : ... .. . ... : ... .. . ... ... : ... .. . ... ... ... ...
ROW 5D : ... .. . ... ... : ... .. . ... ... : ... .. . ... ... : ... .. . ... : ... .. . ... ... : ... .. . ... ... ... ...
ROW 5E : ... .. . ... ... : ... .. . ... ... : ... .. . ... ... : ... .. . ... : ... .. . ... ... : ... .. . ... ... ... ...
ROW 5F : ... .. . ... ... : ... .. . ... ... : ... .. . ... ... : ... .. . ... : ... .. . ... ... : ... .. . ... ... ... ...
ROW 60 : ... .. . ... ... : ... .. . ... ... : ... .. . ... ... : ... .. . ... : ... .. . ... ... : ... .. . ... ... ... ...
ROW 61 : ... .. . ... ... : ... .. . ... ... : ... .. . ... ... : ... .. . ... : ... .. . ... ... : ... .. . ... ... ... ...
ROW 62 : ... .. . ... ... : ... .. . ... ... : ... .. . ... ... : ... .. . ... : ... .. . ... ... : ... .. . ... ... ... ...
ROW 63 : ... .. . ... ... : ... .. . ... ... : ... .. . ... ... : ... .. . ... : ... .. . ... ... : ... .. . ... ... ... ...
ROW 64 : ... .. . ... ... : ... .. . ... ... : ... .. . ... ... : ... .. . ... : ... .. . ... ... : ... .. . ... ... ... ...
ROW 65 : ... .. . ... ... : ... .. . ... ... : ... .. . ... ... : ... .. . ... : ... .. . ... ... : ... .. . ... ... ... ...
ROW 66 : ... .. . ... ... : ... .. . ... ... : ... .. . ... ... : ... .. . ... : ... .. . ... ... : ... .. . ... ... ... ...
ROW 67 : ... .. . ... ... : ... .. . ... ... : ... .. . ... ... : ... .. . ... : ... .. . ... ... : ... .. . ... ... ... ...
ROW 68 : ... .. . ... ... : ... .. . ... ... : ... .. . ... ... : ... .. . ... : ... .. . ... ... : ... .. . ... ... ... ...
ROW 69 : ... .. . ... ... : ... .. . ... ... : ... .. . ... ... : ... .. . ... : ... .. . ... ... : ... .. . ... ... ... ...
ROW 6A : ... .. . ... ... : ... .. . ... ... : ... .. . ... ... : ... .. . ... : ... .. . ... ... : ... .. . ... ... ... ...
ROW 6B : ... .. . ... ... : ... .. . ... ... : ... .. . ... ... : ... .. . ... : ... .. . ... ... : ... .. . ... ... ... ...
ROW 6C : ... .. . ... ... : ... .. . ... ... : ... .. . ... ... : ... .. . ... : ... .. . ... ... : ... .. . ... ... ... ...
ROW 6D : ... .. . ... ... : ... .. . ... ... : ... .. . ... ... : ... .. . ... : ... .. . ... ... : ... .. . ... ... ... ...
ROW 6E : ... .. . ... ... : ... .. . ... ... : ... .. . ... ... : ... .. . ... : ... .. . ... ... : ... .. . ... ... ... ...
ROW 6F : ... .. . ... ... : ... .. . ... ... : ... .. . ... ... : ... .. . ... : ... .. . ... ... : ... .. . ... ... ... ...
ROW 70 : ... .. . ... ... : ... .. . ... ... : ... .. . ... ... : ... .. . ... : ... .. . ... ... : ... .. . ... ... ... ...
ROW 71 : ... .. . ... ... : ... .. . ... ... : ... .. . ... ... : ... .. . ... : ... .. . ... ... : ... .. . ... ... ... ...
ROW 72 : ... .. . ... ... : ... .. . ... ... : ... .. . ... ... : ... .. . ... : ... .. . ... ... : ... .. . ... ... ... ...
ROW 73 : ... .. . ... ... : ... .. . ... ... : ... .. . ... ... : ... .. . ... : ... .. . ... ... : ... .. . ... ... ... ...
ROW 74 : ... .. . ... ... : ... .. . ... ... : ... .. . ... ... : ... .. . ... : ... .. . ... ... : ... .. . ... ... ... ...
ROW 75 : ... .. . ... ... : ... .. . ... ... : ... .. . ... ... : ... .. . ... : ... .. . ... ... : ... .. . ... ... ... ...
ROW 76 : ... .. . ... ... : ... .. . ... ... : ... .. . ... ... : ... .. . ... : ... .. . ... ... : ... .. . ... ... ... ...
ROW 77 : ... .. . ... ... : ... .. . ... ... : ... .. . ... ... : ... .. . ... : ... .. . ... ... : ... .. . ... ... ... ...
ROW 78 : ... .. . ... ... : ... .. . ... ... : ... .. . ... ... : ... .. . ... : ... .. . ... ... : ... .. . ... ... ... ...
ROW 79 : ... .. . ... ... : ... .. . ... ... : ... .. . ... ... : ... .. . ... : ... .. . ... ... : ... .. . ... ... ... ...
ROW 7A : ... .. . ... ... : ... .. . ... ... : ... .. . ... ... : ... .. . ... : ... .. . ... ... : ... .. . ... ... ... ...
ROW 7B : ... .. . ... ... : ... .. . ... ... : ... .. . ... ... : ... .. . ... : ... .. . ... ... : ... .. . ... ... ... ...
ROW 7C : ... .. . ... ... : ... .. . ... ... : ... .. . ... ... : ... .. . ... : ... .. . ... ... : ... .. . ... ... ... ...
ROW 7D : ... .. . ... ... : ... .. . ... ... : ... .. . ... ... : ... .. . ... : ... .. . ... ... : ... .. . ... ... ... ...
ROW 7E : ... .. . ... ... : ... .. . ... ... : ... .. . ... ... : ... .. . ... : ... .. . ... ... : ... .. . ... ... ... ...
ROW 7F : ... .. . ... ... : ... .. . ... ... : ... .. . ... ... : ... .. . ... : ... .. . ... ... : ... .. . ... ... ... ...
ROW 80 : ... .. . ... ... : ... .. . ... ... : ... .. . ... ... : ... .. . ... : ... .. . ... ... : ... .. . ... ... ... ...
ROW 81 : ... .. . ... ... : ... .. . ... ... : ... .. . ... ... : ... .. . ... : ... .. . ... ... : ... .. . ... ... ... ...
ROW 82 : ... .. . ... ... : ... .. . ... ... : ... .. . ... ... : ... .. . ... : ... .. . ... ... : ... .. . ... ... ... ...
ROW 83 : ... .. . ... ... : ... .. . ... ... : ... .. . ... ... : ... .. . ... : ... .. . ... ... : ... .. . ... ... ... ...
ROW 84 : ... .. . ... ... : ... .. . ... ... : ... .. . ... ... : ... .. . ... : ... .. . ... ... : ... .. . ... ... ... ...
ROW 85 : ... .. . ... ... : ... .. . ... ... : ... .. . ... ... : ... .. . ... : ... .. . ... ... : ... .. . ... ... ... ...
ROW 86 : ... .. . ... ... : ... .. . ... ... : ... .. . ... ... : ... .. . ... : ... .. . ... ... : ... .. . ... ... ... ...
ROW 87 : ... .. . ... ... : ... .. . ... ... : ... .. . ... ... : ... .. . ... : ... .. . ... ... : ... .. . ... ... ... ...
ROW 88 : ... .. . ... ... : ... .. . ... ... : ... .. . ... ... : ... .. . ... : ... .. . ... ... : ... .. . ... ... ... ...
ROW 89 : ... .. . ... ... : ... .. . ... ... : ... .. . ... ... : ... .. . ... : ... .. . ... ... : ... .. . ... ... ... ...
ROW 8A : ... .. . ... ... : ... .. . ... ... : ... .. . ... ... : ... .. . ... : ... .. . ... ... : ... .. . ... ... ... ...
ROW 8B : ... .. . ... ... : ... .. . ... ... : ... .. . ... ... : ... .. . ... : ... .. . ... ... : ... .. . ... ... ... ...
ROW 8C : ... .. . ... ... : ... .. . ... ... : ... .. . ... ... : ... .. . ... : ... .. . ... ... : ... .. . ... ... ... ...
ROW 8D : ... .. . ... ... : ... .. . ... ... : ... .. . ... ... : ... .. . ... : ... .. . ... ... : ... .. . ... ... ... ...
ROW 8E : ... .. . ... ... : ... .. . ... ... : ... .. . ... ... : ... .. . ... : ... .. . ... ... : ... .. . ... ... ... ...
ROW 8F : ... .. . ... ... : ... .. . ... ... : ... .. . ... ... : ... .. . ... : ... .. . ... ... : ... .. . ... ... ... ...
ROW 90 : ... .. . ... ... : ... .. . ... ... : ... .. . ... ... : ... .. . ... : ... .. . ... ... : ... .. . ... ... ... ...
ROW 91 : ... .. . ... ... : ... .. . ... ... : ... .. . ... ... : ... .. . ... : ... .. . ... ... : ... .. . ... ... ... ...
ROW 92 : ... .. . ... ... : ... .. . ... ... : ... .. . ... ... : ... .. . ... : ... .. . ... ... : ... .. . ... ... ... ...
ROW 93 : ... .. . ... ... : ... .. . ... ... : ... .. . ... ... : ... .. . ... : ... .. . ... ... : ... .. . ... ... ... ...
ROW 94 : ... .. . ... ... : ... .. . ... ... : ... .. . ... ... : ... .. . ... : ... .. . ... ... : ... .. . ... ... ... ...
ROW 95 : ... .. . ... ... : ... .. . ... ... : ... .. . ... ... : ... .. . ... : ... .. . ... ... : ... .. . ... ... ... ...
ROW 96 : ... .. . ... ... : ... .. . ... ... : ... .. . ... ... : ... .. . ... : ... .. . ... ... : ... .. . ... ... ... ...
ROW 97 : ... .. . ... ... : ... .. . ... ... : ... .. . ... ... : ... .. . ... : ... .. . ... ... : ... .. . ... ... ... ...
ROW 98 : ... .. . ... ... : ... .. . ... ... : ... .. . ... ... : ... .. . ... : ... .. . ... ... : ... .. . ... ... ... ...
ROW 99 : ... .. . ... ... : ... .. . ... ... : ... .. . ... ... : ... .. . ... : ... .. . ... ... : ... .. . ... ... ... ...
ROW 9A : ... .. . ... ... : ... .. . ... ... : ... .. . ... ... : ... .. . ... : ... .. . ... ... : ... .. . ... ... ... ...
ROW 9B : ... .. . ... ... : ... .. . ... ... : ... .. . ... ... : ... .. . ... : ... .. . ... ... : ... .. . ... ... ... ...
ROW 9C : ... .. . ... ... : ... .. . ... ... : ... .. . ... ... : ... .. . ... : ... .. . ... ... : ... .. . ... ... ... ...
ROW 9D : ... .. . ... ... : ... .. . ... ... : ... .. . ... ... : ... .. . ... : ... .. . ... ... : ... .. . ... ... ... ...
ROW 9E : ... .. . ... ... : ... .. . ... ... : ... .. . ... ... : ... .. . ... : ... .. . ... ... : ... .. . ... ... ... ...
ROW 9F : ... .. . ... ... : ... .. . ... ... : ... .. . ... ... : ... .. . ... : ... .. . ... ... : ... .. . ... ... ... ...
ROW A0 : ... .. . ... ... : ... .. . ... ... : ... .. . ... ... : ... .. . ... : ... .. . ... ... : ... .. . ... ... ... ...
ROW A1 : ... .. . ... ... : ... .. . ... ... : ... .. . ... ... : ... .. . ... : ... .. . ... ... : ... .. . ... ... ... ...
ROW A2 : ... .. . ... ... : ... .. . ... ... : ... .. . ... ... : ... .. . ... : ... .. . ... ... : ... .. . ... ... ... ...
ROW A3 : ... .. . ... ... : ... .. . ... ... : ... .. . ... ... : ... .. . ... : ... .. . ... ... : ... .. . ... ... ... ...
ROW A4 : ... .. . ... ... : ... .. . ... ... : ... .. . ... ... : ... .. . ... : ... .. . ... ... : ... .. . ... ... ... ...
ROW A5 : ... .. . ... ... : ... .. . ... ... : ... .. . ... ... : ... .. . ... : ... .. . ... ... : ... .. . ... ... ... ...
ROW A6 : ... .. . ... ... : ... .. . ... ... : ... .. . ... ... : ... .. . ... : ... .. . ... ... : ... .. . ... ... ... ...
ROW A7 : ... .. . ... ... : ... .. . ... ... : ... .. . ... ... : ... .. . ... : ... .. . ... ... : ... .. . ... ... ... ...
ROW A8 : ... .. . ... ... : ... .. . ... ... : ... .. . ... ... : ... .. . ... : ... .. . ... ... : ... .. . ... ... ... ...
ROW A9 : ... .. . ... ... : ... .. . ... ... : ... .. . ... ... : ... .. . ... : ... .. . ... ... : ... .. . ... ... ... ...
ROW AA : ... .. . ... ... : ... .. . ... ... : ... .. . ... ... : ... .. . ... : ... .. . ... ... : ... .. . ... ... ... ...
ROW AB : ... .. . ... ... : ... .. . ... ... : ... .. . ... ... : ... .. . ... : ... .. . ... ... : ... .. . ... ... ... ...
ROW AC : ... .. . ... ... : ... .. . ... ... : ... .. . ... ... : ... .. . ... : ... .. . ... ... : ... .. . ... ... ... ...
ROW AD : ... .. . ... ... : ... .. . ... ... : ... .. . ... ... : ... .. . ... : ... .. . ... ... : ... .. . ... ... ... ...
ROW AE : ... .. . ... ... : ... .. . ... ... : ... .. . ... ... : ... .. . ... : ... .. . ... ... : ... .. . ... ... ... ...
ROW AF : ... .. . ... ... : ... .. . ... ... : ... .. . ... ... : ... .. . ... : ... .. . ... ... : ... .. . ... ... ... ...
ROW B0 : ... .. . ... ... : ... .. . ... ... : ... .. . ... ... : ... .. . ... : ... .. . ... ... : ... .. . ... ... ... ...
ROW B1 : ... .. . ... ... : ... .. . ... ... : ... .. . ... ... : ... .. . ... : ... .. . ... ... : ... .. . ... ... ... ...
ROW B2 : ... .. . ... ... : ... .. . ... ... : ... .. . ... ... : ... .. . ... : ... .. . ... ... : ... .. . ... ... ... ...
ROW B3 : ... .. . ... ... : ... .. . ... ... : ... .. . ... ... : ... .. . ... : ... .. . ... ... : ... .. . ... ... ... ...
ROW B4 : ... .. . ... ... : ... .. . ... ... : ... .. . ... ... : ... .. . ... : ... .. . ... ... : ... .. . ... ... ... ...
ROW B5 : ... .. . ... ... : ... .. . ... ... : ... .. . ... ... : ... .. . ... : ... .. . ... ... : ... .. . ... ... ... ...
ROW B6 : ... .. . ... ... : ... .. . ... ... : ... .. . ... ... : ... .. . ... : ... .. . ... ... : ... .. . ... ... ... ...
ROW B7 : ... .. . ... ... : ... .. . ... ... : ... .. . ... ... : ... .. . ... : ... .. . ... ... : ... .. . ... ... ... ...
ROW B8 : ... .. . ... ... : ... .. . ... ... : ... .. . ... ... : ... .. . ... : ... .. . ... ... : ... .. . ... ... ... ...
ROW B9 : ... .. . ... ... : ... .. . ... ... : ... .. . ... ... : ... .. . ... : ... .. . ... ... : ... .. . ... ... ... ...
ROW BA : ... .. . ... ... : ... .. . ... ... : ... .. . ... ... : ... .. . ... : ... .. . ... ... : ... .. . ... ... ... ...
ROW BB : ... .. . ... ... : ... .. . ... ... : ... .. . ... ... : ... .. . ... : ... .. . ... ... : ... .. . ... ... ... ...
ROW BC : ... .. . ... ... : ... .. . ... ... : ... .. . ... ... : ... .. . ... : ... .. . ... ... : ... .. . ... ... ... ...
ROW BD : ... .. . ... ... : ... .. . ... ... : ... .. . ... ... : ... .. . ... : ... .. . ... ... : ... .. . ... ... ... ...
ROW BE : ... .. . ... ... : ... .. . ... ... : ... .. . ... ... : ... .. . ... : ... .. . ... ... : ... .. . ... ... ... ...
ROW BF : ... .. . ... ... : ... .. . ... ... : ... .. . ... ... : ... .. . ... : ... .. . ... ... : ... .. . ... ... ... ...
ROW C0 : ... .. . ... ... : ... .. . ... ... : ... .. . ... ... : ... .. . ... : ... .. . ... ... : ... .. . ... ... ... ...
ROW C1 : ... .. . ... ... : ... .. . ... ... : ... .. . ... ... : ... .. . ... : ... .. . ... ... : ... .. . ... ... ... ...
ROW C2 : ... .. . ... ... : ... .. . ... ... : ... .. . ... ... : ... .. . ... : ... .. . ... ... : ... .. . ... ... ... ...
ROW C3 : ... .. . ... ... : ... .. . ... ... : ... .. . ... ... : ... .. . ... : ... .. . ... ... : ... .. . ... ... ... ...
ROW C4 : ... .. . ... ... : ... .. . ... ... : ... .. . ... ... : ... .. . ... : ... .. . ... ... : ... .. . ... ... ... ...
ROW C5 : ... .. . ... ... : ... .. . ... ... : ... .. . ... ... : ... .. . ... : ... .. . ... ... : ... .. . ... ... ... ...
ROW C6 : ... .. . ... ... : ... .. . ... ... : ... .. . ... ... : ... .. . ... : ... .. . ... ... : ... .. . ... ... ... ...
ROW C7 : ... .. . ... ... : ... .. . ... ... : ... .. . ... ... : ... .. . ... : ... .. . ... ... : ... .. . ... ... ... ...
ROW C8 : ... .. . ... ... : ... .. . ... ... : ... .. . ... ... : ... .. . ... : ... .. . ... ... : ... .. . ... ... ... ...
ROW C9 : ... .. . ... ... : ... .. . ... ... : ... .. . ... ... : ... .. . ... : ... .. . ... ... : ... .. . ... ... ... ...
ROW CA : ... .. . ... ... : ... .. . ... ... : ... .. . ... ... : ... .. . ... : ... .. . ... ... : ... .. . ... ... ... ...
ROW CB : ... .. . ... ... : ... .. . ... ... : ... .. . ... ... : ... .. . ... : ... .. . ... ... : ... .. . ... ... ... ...
ROW CC : ... .. . ... ... : ... .. . ... ... : ... .. . ... ... : ... .. . ... : ... .. . ... ... : ... .. . ... ... ... ...
ROW CD : ... .. . ... ... : ... .. . ... ... : ... .. . ... ... : ... .. . ... : ... .. . ... ... : ... .. . ... ... ... ...
ROW CE : ... .. . ... ... : ... .. . ... ... : ... .. . ... ... : ... .. . ... : ... .. . ... ... : ... .. . ... ... ... ...
ROW CF : ... .. . ... ... : ... .. . ... ... : ... .. . ... ... : ... .. . ... : ... .. . ... ... : ... .. . ... ... ... ...
ROW D0 : ... .. . ... ... : ... .. . ... ... : ... .. . ... ... : ... .. . ... : ... .. . ... ... : ... .. . ... ... ... ...
ROW D1 : ... .. . ... ... : ... .. . ... ... : ... .. . ... ... : ... .. . ... : ... .. . ... ... : ... .. . ... ... ... ...
ROW D2 : ... .. . ... ... : ... .. . ... ... : ... .. . ... ... : ... .. . ... : ... .. . ... ... : ... .. . ... ... ... ...
ROW D3 : ... .. . ... ... : ... .. . ... ... : ... .. . ... ... : ... .. . ... : ... .. . ... ... : ... .. . ... ... ... ...
ROW D4 : ... .. . ... ... : ... .. . ... ... : ... .. . ... ... : ... .. . ... : ... .. . ... ... : ... .. . ... ... ... ...
ROW D5 : ... .. . ... ... : ... .. . ... ... : ... .. . ... ... : ... .. . ... : ... .. . ... ... : ... .. . ... ... ... ...
ROW D6 : ... .. . ... ... : ... .. . ... ... : ... .. . ... ... : ... .. . ... : ... .. . ... ... : ... .. . ... ... ... ...
ROW D7 : ... .. . ... ... : ... .. . ... ... : ... .. . ... ... : ... .. . ... : ... .. . ... ... : ... .. . ... ... ... ...
ROW D8 : ... .. . ... ... : ... .. . ... ... : ... .. . ... ... : ... .. . ... : ... .. . ... ... : ... .. . ... ... ... ...
ROW D9 : ... .. . ... ... : ... .. . ... ... : ... .. . ... ... : ... .. . ... : ... .. . ... ... : ... .. . ... ... ... ...
ROW DA : ... .. . ... ... : ... .. . ... ... : ... .. . ... ... : ... .. . ... : ... .. . ... ... : ... .. . ... ... ... ...
ROW DB : ... .. . ... ... : ... .. . ... ... : ... .. . ... ... : ... .. . ... : ... .. . ... ... : ... .. . ... ... ... ...
ROW DC : ... .. . ... ... : ... .. . ... ... : ... .. . ... ... : ... .. . ... : ... .. . ... ... : ... .. . ... ... ... ...
ROW DD : ... .. . ... ... : ... .. . ... ... : ... .. . ... ... : ... .. . ... : ... .. . ... ... : ... .. . ... ... ... ...
ROW DE : ... .. . ... ... : ... .. . ... ... : ... .. . ... ... : ... .. . ... : ... .. . ... ... : ... .. . ... ... ... ...
ROW DF : ... .. . ... ... : ... .. . ... ... : ... .. . ... ... : ... .. . ... : ... .. . ... ... : ... .. . ... ... ... ...
ROW E0 : ... .. . ... ... : ... .. . ... ... : ... .. . ... ... : ... .. . ... : ... .. . ... ... : ... .. . ... ... ... ...
ROW E1 : ... .. . ... ... : ... .. . ... ... : ... .. . ... ... : ... .. . ... : ... .. . ... ... : ... .. . ... ... ... ...
ROW E2 : ... .. . ... ... : ... .. . ... ... : ... .. . ... ... : ... .. . ... : ... .. . ... ... : ... .. . ... ... ... ...
ROW E3 : ... .. . ... ... : ... .. . ... ... : ... .. . ... ... : ... .. . ... : ... .. . ... ... : ... .. . ... ... ... ...
ROW E4 : ... .. . ... ... : ... .. . ... ... : ... .. . ... ... : ... .. . ... : ... .. . ... ... : ... .. . ... ... ... ...
ROW E5 : ... .. . ... ... : ... .. . ... ... : ... .. . ... ... : ... .. . ... : ... .. . ... ... : ... .. . ... ... ... ...
ROW E6 : ... .. . ... ... : ... .. . ... ... : ... .. . ... ... : ... .. . ... : ... .. . ... ... : ... .. . ... ... ... ...
ROW E7 : ... .. . ... ... : ... .. . ... ... : ... .. . ... ... : ... .. . ... : ... .. . ... ... : ... .. . ... ... ... ...
ROW E8 : ... .. . ... ... : ... .. . ... ... : ... .. . ... ... : ... .. . ... : ... .. . ... ... : ... .. . ... ... ... ...
ROW E9 : ... .. . ... ... : ... .. . ... ... : ... .. . ... ... : ... .. . ... : ... .. . ... ... : ... .. . ... ... ... ...
ROW EA : ... .. . ... ... : ... .. . ... ... : ... .. . ... ... : ... .. . ... : ... .. . ... ... : ... .. . ... ... ... ...
ROW EB : ... .. . ... ... : ... .. . ... ... : ... .. . ... ... : ... .. . ... : ... .. . ... ... : ... .. . ... ... ... ...
ROW EC : ... .. . ... ... : ... .. . ... ... : ... .. . ... ... : ... .. . ... : ... .. . ... ... : ... .. . ... ... ... ...
ROW ED : ... .. . ... ... : ... .. . ... ... : ... .. . ... ... : ... .. . ... : ... .. . ... ... : ... .. . ... ... ... ...
ROW EE : ... .. . ... ... : ... .. . ... ... : ... .. . ... ... : ... .. . ... : ... .. . ... ... : ... .. . ... ... ... ...
ROW EF : ... .. . ... ... : ... .. . ... ... : ... .. . ... ... : ... .. . ... : ... .. . ... ... : ... .. . ... ... ... ...
ROW F0 : ... .. . ... ... : ... .. . ... ... : ... .. . ... ... : ... .. . ... : ... .. . ... ... : ... .. . ... ... ... ...
ROW F1 : ... .. . ... ... : ... .. . ... ... : ... .. . ... ... : ... .. . ... : ... .. . ... ... : ... .. . ... ... ... ...
ROW F2 : ... .. . ... ... : ... .. . ... ... : ... .. . ... ... : ... .. . ... : ... .. . ... ... : ... .. . ... ... ... ...
ROW F3 : ... .. . ... ... : ... .. . ... ... : ... .. . ... ... : ... .. . ... : ... .. . ... ... : ... .. . ... ... ... ...
ROW F4 : ... .. . ... ... : ... .. . ... ... : ... .. . ... ... : ... .. . ... : ... .. . ... ... : ... .. . ... ... ... ...
ROW F5 : ... .. . ... ... : ... .. . ... ... : ... .. . ... ... : ... .. . ... : ... .. . ... ... : ... .. . ... ... ... ...
ROW F6 : ... .. . ... ... : ... .. . ... ... : ... .. . ... ... : ... .. . ... : ... .. . ... ... : ... .. . ... ... ... ...
ROW F7 : ... .. . ... ... : ... .. . ... ... : ... .. . ... ... : ... .. . ... : ... .. . ... ... : ... .. . ... ... ... ...
ROW F8 : ... .. . ... ... : ... .. . ... ... : ... .. . ... ... : ... .. . ... : ... .. . ... ... : ... .. . ... ... ... ...
ROW F9 : ... .. . ... ... : ... .. . ... ... : ... .. . ... ... : ... .. . ... : ... .. . ... ... : ... .. . ... ... ... ...
ROW FA : ... .. . ... ... : ... .. . ... ... : ... .. . ... ... : ... .. . ... : ... .. . ... ... : ... .. . ... ... ... ...
ROW FB : ... .. . ... ... : ... .. . ... ... : ... .. . ... ... : ... .. . ... : ... .. . ... ... : ... .. . ... ... ... ...
ROW FC : ... .. . ... ... : ... .. . ... ... : ... .. . ... ... : ... .. . ... : ... .. . ... ... : ... .. . ... ... ... ...
ROW FD : ... .. . ... ... : ... .. . ... ... : ... .. . ... ... : ... .. . ... : ... .. . ... ... : ... .. . ... ... ... ...
ROW FE : ... .. . ... ... : ... .. . ... ... : ... .. . ... ... : ... .. . ... : ... .. . ... ... : ... .. . ... ... ... ...
ROW FF : ... .. . ... ... : ... .. . ... ... : ... .. . ... ... : ... .. . ... : ... .. . ... ... : ... .. . ... ... ... ...

PATTERN 01
ROW 00 : B-2 03 4 V00 ... : B-3 07 6 ... ... : B-1 11 . ... ... : D-# 05 7 ... : B-3 1E . F05 ... : B-5 02 8 ... ... ... ...
ROW 01 : E-3 03 . ... ... : ... .. . ... ... : ... .. . S02 ... : ... .. . ... : ... .. . ... ... : ... .. 4 ... ... ... ...
ROW 02 : G#3 03 . ... ... : ... .. . ... ... : B-1 11 . ... ... : D-# 05 . ... : ... .. . ... ... : E-6 02 8 ... ... ... ...
ROW 03 : B-3 03 . ... ... : ... .. . ... ... : ... .. . S02 ... : ... .. . ... : ... .. . ... ... : B-5 02 4 G01 ... ... ...
ROW 04 : B-2 03 6 V01 ... : ... .. 5 ... ... : B-2 11 . ... ... : C-# 06 8 ... : ... .. . X05 ... : G#6 02 8 ... ... ... ...
ROW 05 : E-3 03 . ... ... : ... .. . ... ... : ... .. . S02 ... : ... .. . ... : ... .. . ... ... : E-6 02 4 G01 ... ... ...
ROW 06 : G#3 03 . ... ... : ... .. . ... ... : B-1 11 . ... ... : D-# 05 7 ... : ... .. . ... ... : B-6 02 8 ... ... ... ...
ROW 07 : B-3 03 . ... ... : ... .. . ... ... : ... .. . S02 ... : ... .. . ... : ... .. . ... ... : ... .. 6 ... ... ... ...
ROW 08 : B-2 03 7 V02 ... : ... .. 4 ... ... : B-1 11 . ... ... : D-# 05 . ... : ... .. . X05 ... : ... .. 4 ... ... ... ...
ROW 09 : E-3 03 . ... ... : ... .. . ... ... : ... .. . S02 ... : ... .. . ... : ... .. . ... ... : ... .. 2 ... ... ... ...
ROW 0A : G#3 03 . ... ... : ... .. . ... ... : B-1 11 . ... ... : D-# 05 . ... : ... .. . ... ... : B-6 02 6 ... ... ... ...
ROW 0B : B-3 03 . ... ... : ... .. . ... ... : ... .. . S02 ... : ... .. . ... : ... .. . ... ... : ... .. 4 ... ... ... ...
ROW 0C : B-2 03 9 V01 ... : ... .. 5 ... ... : B-2 11 . ... ... : C-# 06 8 ... : ... .. . ... ... : ... .. 2 ... ... ... ...
ROW 0D : E-3 03 . ... ... : ... .. . ... ... : ... .. . S02 ... : ... .. . ... : ... .. . ... ... : ... .. 1 ... ... ... ...
ROW 0E : G#3 03 . ... ... : ... .. . ... ... : B-1 11 . ... ... : D-# 05 7 ... : ... .. . ... ... : B-6 02 4 ... ... ... ...
ROW 0F : B-3 03 . ... ... : ... .. . ... ... : ... .. . S02 ... : ... .. . ... : ... .. . ... ... : ... .. 3 ... ... ... ...
ROW 10 : C#3 03 4 V00 ... : C#4 07 6 ... ... : C#2 11 . ... ... : D-# 05 . ... : C#4 1E . ... ... : C#6 02 8 ... ... ... ...
ROW 11 : F#3 03 . ... ... : ... .. . ... ... : ... .. . S02 ... : ... .. . ... : ... .. . ... ... : ... .. 4 ... ... ... ...
ROW 12 : A#3 03 . ... ... : ... .. . ... ... : C#2 11 . ... ... : D-# 05 . ... : ... .. . ... ... : F#6 02 8 ... ... ... ...
ROW 13 : C#4 03 . ... ... : ... .. . ... ... : ... .. . S02 ... : ... .. . ... : ... .. . ... ... : C#6 02 4 G01 ... ... ...
ROW 14 : C#3 03 6 V01 ... : ... .. 5 ... ... : C#3 11 . ... ... : C-# 06 9 ... : ... .. . X05 ... : A#6 02 8 ... ... ... ...
ROW 15 : F#3 03 . ... ... : ... .. . ... ... : ... .. . S02 ... : ... .. . ... : ... .. . ... ... : F#6 02 4 G01 ... ... ...
ROW 16 : A#3 03 . ... ... : ... .. . ... ... : C#2 11 . ... ... : D-# 05 7 ... : ... .. . ... ... : C#7 02 8 ... ... ... ...
ROW 17 : C#4 03 . ... ... : ... .. . ... ... : ... .. . S02 ... : ... .. . ... : ... .. . ... ... : ... .. 6 ... ... ... ...
ROW 18 : C#3 03 7 V02 ... : ... .. 4 ... ... : C#2 11 . ... ... : D-# 05 . ... : ... .. . X05 ... : ... .. 4 ... ... ... ...
ROW 19 : F#3 03 . ... ... : ... .. . ... ... : ... .. . S02 ... : ... .. . ... : ... .. . ... ... : ... .. 2 ... ... ... ...
ROW 1A : A#3 03 . ... ... : ... .. . ... ... : C#2 11 . ... ... : D-# 05 . ... : ... .. . ... ... : C#7 02 6 ... ... ... ...
ROW 1B : C#4 03 . ... ... : ... .. . ... ... : ... .. . S02 ... : ... .. . ... : ... .. . ... ... : ... .. 4 ... ... ... ...
ROW 1C : C#3 03 9 V01 ... : ... .. 5 ... ... : C#3 11 . ... ... : C-# 06 9 ... : ... .. . ... ... : ... .. 2 ... ... ... ...
ROW 1D : F#3 03 . ... ... : ... .. . ... ... : ... .. . S02 ... : ... .. . ... : ... .. . ... ... : ... .. 1 ... ... ... ...
ROW 1E : A#3 03 . ... ... : ... .. . ... ... : C#2 11 . ... ... : D-# 05 7 ... : ... .. . ... ... : C#7 02 4 ... ... ... ...
ROW 1F : C#4 03 . ... ... : ... .. . ... ... : ... .. . S02 ... : ... .. . ... : ... .. . ... ... : ... .. 3 ... ... ... ...
ROW 20 : E-3 03 4 V00 ... : E-4 07 6 ... ... : E-2 11 . ... ... : D-# 05 . ... : E-4 1E . ... ... : E-6 02 8 ... ... ... ...
ROW 21 : A-3 03 . ... ... : ... .. . ... ... : ... .. . S02 ... : ... .. . ... : ... .. . ... ... : ... .. 4 ... ... ... ...
ROW 22 : C#4 03 . ... ... : ... .. . ... ... : E-2 11 . ... ... : D-# 05 . ... : ... .. . ... ... : A-6 02 8 ... ... ... ...
ROW 23 : E-4 03 . ... ... : ... .. . ... ... : ... .. . S02 ... : ... .. . ... : ... .. . ... ... : E-6 02 4 G01 ... ... ...
ROW 24 : E-3 03 6 V01 ... : ... .. 5 ... ... : E-3 11 . ... ... : C-# 06 9 ... : ... .. . X05 ... : C#7 02 8 ... ... ... ...
ROW 25 : A-3 03 . ... ... : ... .. . ... ... : ... .. . S02 ... : ... .. . ... : ... .. . ... ... : A-6 02 4 G01 ... ... ...
ROW 26 : C#4 03 . ... ... : ... .. . ... ... : E-2 11 . ... ... : D-# 05 7 ... : ... .. . ... ... : E-7 02 6 ... ... ... ...
ROW 27 : E-4 03 . ... ... : ... .. . ... ... : ... .. . S02 ... : ... .. . ... : ... .. . ... ... : ... .. 4 ... ... ... ...
ROW 28 : E-3 03 7 V02 ... : ... .. 4 ... ... : E-2 11 . ... ... : D-# 05 . ... : ... .. . X05 ... : ... .. 2 ... ... ... ...
ROW 29 : A-3 03 . ... ... : ... .. . ... ... : ... .. . S02 ... : ... .. . ... : ... .. . ... ... : ... .. 4 ... ... ... ...
ROW 2A : C#4 03 . ... ... : ... .. . ... ... : E-2 11 . ... ... : D-# 05 . ... : ... .. . ... ... : E-7 02 6 ... ... ... ...
ROW 2B : E-4 03 . ... ... : ... .. . ... ... : ... .. . S02 ... : ... .. . ... : ... .. . ... ... : ... .. 4 ... ... ... ...
ROW 2C : E-3 03 9 V01 ... : ... .. 5 ... ... : E-3 11 . ... ... : C-# 06 9 ... : ... .. . ... ... : ... .. 2 ... ... ... ...
ROW 2D : A-3 03 . ... ... : ... .. . ... ... : ... .. . S02 ... : ... .. . ... : ... .. . ... ... : ... .. 1 ... ... ... ...
ROW 2E : C#4 03 . ... ... : ... .. . ... ... : E-2 11 . ... ... : D-# 05 7 ... : ... .. . ... ... : E-7 02 4 ... ... ... ...
ROW 2F : E-4 03 . ... ... : ... .. . ... ... : ... .. . S02 ... : ... .. . ... : ... .. . ... ... : ... .. 3 ... ... ... ...
ROW 30 : F#3 03 4 V00 ... : F#4 07 6 ... ... : F#2 11 . ... ... : D-# 05 . ... : F#4 1E . ... ... : F#6 02 8 ... ... ... ...
ROW 31 : B-3 03 . ... ... : ... .. . ... ... : ... .. . S02 ... : ... .. . ... : ... .. . ... ... : ... .. 4 ... ... ... ...
ROW 32 : D#4 03 . ... ... : ... .. . ... ... : F#2 11 . ... ... : D-# 05 . ... : ... .. . ... ... : B-6 02 8 ... ... ... ...
ROW 33 : F#4 03 . ... ... : ... .. . ... ... : ... .. . S02 ... : ... .. . ... : ... .. . ... ... : F#6 02 4 G01 ... ... ...
ROW 34 : F#3 03 6 V01 ... : ... .. 5 ... ... : F#3 11 . ... ... : C-# 06 9 ... : ... .. . X05 ... : D#7 02 8 ... ... ... ...
ROW 35 : B-3 03 . ... ... : ... .. . ... ... : ... .. . S02 ... : ... .. . ... : ... .. . ... ... : B-6 02 4 G01 ... ... ...
ROW 36 : D#4 03 . ... ... : ... .. . ... ... : F#2 11 . ... ... : D-# 05 7 ... : ... .. . ... ... : F#7 02 6 ... ... ... ...
ROW 37 : F#4 03 . ... ... : ... .. . ... ... : ... .. . S02 ... : ... .. . ... : ... .. . ... ... : ... .. 4 ... ... ... ...
ROW 38 : F#3 03 7 V02 ... : ... .. 4 ... ... : F#4 03 . 236 ... : 6-# 08 A ... : ... .. . X05 ... : ... .. 2 ... ... ... ...
ROW 39 : B-3 03 . ... ... : ... .. . ... ... : ... .. . ... ... : ... .. . ... : ... .. . ... ... : ... .. 4 ... ... ... ...
ROW 3A : D#4 03 . ... ... : ... .. . ... ... : F#2 11 . 200 ... : D-# 05 7 ... : ... .. . ... ... : F#5 0A A 400 ... ... ...
ROW 3B : F#4 03 . ... ... : ... .. . ... ... : ... .. . S02 ... : ... .. . ... : ... .. . ... ... : ... .. . ... ... ... ...
ROW 3C : F#3 03 9 V01 ... : ... .. 5 ... ... : F#5 03 . 236 ... : 6-# 08 A ... : ... .. . ... ... : ... .. . ... ... ... ...
ROW 3D : B-3 03 . ... ... : ... .. . ... ... : ... .. . ... ... : ... .. . ... : ... .. . ... ... : ... .. . 468 ... ... ...
ROW 3E : D#4 03 . ... ... : ... .. . ... ... : F#4 11 . ... ... : 6-# 08 A ... : ... .. . ... ... : ... .. . ... ... ... ...
ROW 3F : F#4 03 . ... ... : ... .. . ... ... : ... .. . ... ... : ... .. . ... : ... .. . D00 ... : ... .. . ... ... ... ...
ROW 40 : ... .. . ... ... : ... .. . ... ... : ... .. . ... ... : ... .. . ... : ... .. . ... ... : ... .. . ... ... ... ...
ROW 41 : ... .. . ... ... : ... .. . ... ... : ... .. . ... ... : ... .. . ... : ... .. . ... ... : ... .. . ... ... ... ...
ROW 42 : ... .. . ... ... : ... .. . ... ... : ... .. . ... ... : ... .. . ... : ... .. . ... ... : ... .. . ... ... ... ...
ROW 43 : ... .. . ... ... : ... .. . ... ... : ... .. . ... ... : ... .. . ... : ... .. . ... ... : ... .. . ... ... ... ...
ROW 44 : ... .. . ... ... : ... .. . ... ... : ... .. . ... ... : ... .. . ... : ... .. . ... ... : ... .. . ... ... ... ...
ROW 45 : ... .. . ... ... : ... .. . ... ... : ... .. . ... ... : ... .. . ... : ... .. . ... ... : ... .. . ... ... ... ...
ROW 46 : ... .. . ... ... : ... .. . ... ... : ... .. . ... ... : ... .. . ... : ... .. . ... ... : ... .. . ... ... ... ...
ROW 47 : ... .. . ... ... : ... .. . ... ... : ... .. . ... ... : ... .. . ... : ... .. . ... ... : ... .. . ... ... ... ...
ROW 48 : ... .. . ... ... : ... .. . ... ... : ... .. . ... ... : ... .. . ... : ... .. . ... ... : ... .. . ... ... ... ...
ROW 49 : ... .. . ... ... : ... .. . ... ... : ... .. . ... ... : ... .. . ... : ... .. . ... ... : ... .. . ... ... ... ...
ROW 4A : ... .. . ... ... : ... .. . ... ... : ... .. . ... ... : ... .. . ... : ... .. . ... ... : ... .. . ... ... ... ...
ROW 4B : ... .. . ... ... : ... .. . ... ... : ... .. . ... ... : ... .. . ... : ... .. . ... ... : ... .. . ... ... ... ...
ROW 4C : ... .. . ... ... : ... .. . ... ... : ... .. . ... ... : ... .. . ... : ... .. . ... ... : ... .. . ... ... ... ...
ROW 4D : ... .. . ... ... : ... .. . ... ... : ... .. . ... ... : ... .. . ... : ... .. . ... ... : ... .. . ... ... ... ...
ROW 4E : ... .. . ... ... : ... .. . ... ... : ... .. . ... ... : ... .. . ... : ... .. . ... ... : ... .. . ... ... ... ...
ROW 4F : ... .. . ... ... : ... .. . ... ... : ... .. . ... ... : ... .. . ... : ... .. . ... ... : ... .. . ... ... ... ...
ROW 50 : ... .. . ... ... : ... .. . ... ... : ... .. . ... ... : ... .. . ... : ... .. . ... ... : ... .. . ... ... ... ...
ROW 51 : ... .. . ... ... : ... .. . ... ... : ... .. . ... ... : ... .. . ... : ... .. . ... ... : ... .. . ... ... ... ...
ROW 52 : ... .. . ... ... : ... .. . ... ... : ... .. . ... ... : ... .. . ... : ... .. . ... ... : ... .. . ... ... ... ...
ROW 53 : ... .. . ... ... : ... .. . ... ... : ... .. . ... ... : ... .. . ... : ... .. . ... ... : ... .. . ... ... ... ...
ROW 54 : ... .. . ... ... : ... .. . ... ... : ... .. . ... ... : ... .. . ... : ... .. . ... ... : ... .. . ... ... ... ...
ROW 55 : ... .. . ... ... : ... .. . ... ... : ... .. . ... ... : ... .. . ... : ... .. . ... ... : ... .. . ... ... ... ...
ROW 56 : ... .. . ... ... : ... .. . ... ... : ... .. . ... ... : ... .. . ... : ... .. . ... ... : ... .. . ... ... ... ...
ROW 57 : ... .. . ... ... : ... .. . ... ... : ... .. . ... ... : ... .. . ... : ... .. . ... ... : ... .. . ... ... ... ...
ROW 58 : ... .. . ... ... : ... .. . ... ... : ... .. . ... ... : ... .. . ... : ... .. . ... ... : ... .. . ... ... ... ...
ROW 59 : ... .. . ... ... : ... .. . ... ... : ... .. . ... ... : ... .. . ... : ... .. . ... ... : ... .. . ... ... ... ...
ROW 5A : ... .. . ... ... : ... .. . ... ... : ... .. . ... ... : ... .. . ... : ... .. . ... ... : ... .. . ... ... ... ...
ROW 5B : ... .. . ... ... : ... .. . ... ... : ... .. . ... ... : ... .. . ... : ... .. . ... ... : ... .. . ... ... ... ...
ROW 5C : ... .. . ... ... : ... .. . ... ... : ... .. . ... ... : ... .. . ... : ... .. . ... ... : ... .. . ... ... ... ...
ROW 5D : ... .. . ... ... : ... .. . ... ... : ... .. . ... ... : ... .. . ... : ... .. . ... ... : ... .. . ... ... ... ...
ROW 5E : ... .. . ... ... : ... .. . ... ... : ... .. . ... ... : ... .. . ... : ... .. . ... ... : ... .. . ... ... ... ...
ROW 5F : ... .. . ... ... : ... .. . ... ... : ... .. . ... ... : ... .. . ... : ... .. . ... ... : ... .. . ... ... ... ...
ROW 60 : ... .. . ... ... : ... .. . ... ... : ... .. . ... ... : ... .. . ... : ... .. . ... ... : ... .. . ... ... ... ...
ROW 61 : ... .. . ... ... : ... .. . ... ... : ... .. . ... ... : ... .. . ... : ... .. . ... ... : ... .. . ... ... ... ...
ROW 62 : ... .. . ... ... : ... .. . ... ... : ... .. . ... ... : ... .. . ... : ... .. . ... ... : ... .. . ... ... ... ...
ROW 63 : ... .. . ... ... : ... .. . ... ... : ... .. . ... ... : ... .. . ... : ... .. . ... ... : ... .. . ... ... ... ...
ROW 64 : ... .. . ... ... : ... .. . ... ... : ... .. . ... ... : ... .. . ... : ... .. . ... ... : ... .. . ... ... ... ...
ROW 65 : ... .. . ... ... : ... .. . ... ... : ... .. . ... ... : ... .. . ... : ... .. . ... ... : ... .. . ... ... ... ...
ROW 66 : ... .. . ... ... : ... .. . ... ... : ... .. . ... ... : ... .. . ... : ... .. . ... ... : ... .. . ... ... ... ...
ROW 67 : ... .. . ... ... : ... .. . ... ... : ... .. . ... ... : ... .. . ... : ... .. . ... ... : ... .. . ... ... ... ...
ROW 68 : ... .. . ... ... : ... .. . ... ... : ... .. . ... ... : ... .. . ... : ... .. . ... ... : ... .. . ... ... ... ...
ROW 69 : ... .. . ... ... : ... .. . ... ... : ... .. . ... ... : ... .. . ... : ... .. . ... ... : ... .. . ... ... ... ...
ROW 6A : ... .. . ... ... : ... .. . ... ... : ... .. . ... ... : ... .. . ... : ... .. . ... ... : ... .. . ... ... ... ...
ROW 6B : ... .. . ... ... : ... .. . ... ... : ... .. . ... ... : ... .. . ... : ... .. . ... ... : ... .. . ... ... ... ...
ROW 6C : ... .. . ... ... : ... .. . ... ... : ... .. . ... ... : ... .. . ... : ... .. . ... ... : ... .. . ... ... ... ...
ROW 6D : ... .. . ... ... : ... .. . ... ... : ... .. . ... ... : ... .. . ... : ... .. . ... ... : ... .. . ... ... ... ...
ROW 6E : ... .. . ... ... : ... .. . ... ... : ... .. . ... ... : ... .. . ... : ... .. . ... ... : ... .. . ... ... ... ...
ROW 6F : ... .. . ... ... : ... .. . ... ... : ... .. . ... ... : ... .. . ... : ... .. . ... ... : ... .. . ... ... ... ...
ROW 70 : ... .. . ... ... : ... .. . ... ... : ... .. . ... ... : ... .. . ... : ... .. . ... ... : ... .. . ... ... ... ...
ROW 71 : ... .. . ... ... : ... .. . ... ... : ... .. . ... ... : ... .. . ... : ... .. . ... ... : ... .. . ... ... ... ...
ROW 72 : ... .. . ... ... : ... .. . ... ... : ... .. . ... ... : ... .. . ... : ... .. . ... ... : ... .. . ... ... ... ...
ROW 73 : ... .. . ... ... : ... .. . ... ... : ... .. . ... ... : ... .. . ... : ... .. . ... ... : ... .. . ... ... ... ...
ROW 74 : ... .. . ... ... : ... .. . ... ... : ... .. . ... ... : ... .. . ... : ... .. . ... ... : ... .. . ... ... ... ...
ROW 75 : ... .. . ... ... : ... .. . ... ... : ... .. . ... ... : ... .. . ... : ... .. . ... ... : ... .. . ... ... ... ...
ROW 76 : ... .. . ... ... : ... .. . ... ... : ... .. . ... ... : ... .. . ... : ... .. . ... ... : ... .. . ... ... ... ...
ROW 77 : ... .. . ... ... : ... .. . ... ... : ... .. . ... ... : ... .. . ... : ... .. . ... ... : ... .. . ... ... ... ...
ROW 78 : ... .. . ... ... : ... .. . ... ... : ... .. . ... ... : ... .. . ... : ... .. . ... ... : ... .. . ... ... ... ...
ROW 79 : ... .. . ... ... : ... .. . ... ... : ... .. . ... ... : ... .. . ... : ... .. . ... ... : ... .. . ... ... ... ...
ROW 7A : ... .. . ... ... : ... .. . ... ... : ... .. . ... ... : ... .. . ... : ... .. . ... ... : ... .. . ... ... ... ...
ROW 7B : ... .. . ... ... : ... .. . ... ... : ... .. . ... ... : ... .. . ... : ... .. . ... ... : ... .. . ... ... ... ...
ROW 7C : ... .. . ... ... : ... .. . ... ... : ... .. . ... ... : ... .. . ... : ... .. . ... ... : ... .. . ... ... ... ...
ROW 7D : ... .. . ... ... : ... .. . ... ... : ... .. . ... ... : ... .. . ... : ... .. . ... ... : ... .. . ... ... ... ...
ROW 7E : ... .. . ... ... : ... .. . ... ... : ... .. . ... ... : ... .. . ... : ... .. . ... ... : ... .. . ... ... ... ...
ROW 7F : ... .. . ... ... : ... .. . ... ... : ... .. . ... ... : ... .. . ... : ... .. . ... ... : ... .. . ... ... ... ...
ROW 80 : ... .. . ... ... : ... .. . ... ... : ... .. . ... ... : ... .. . ... : ... .. . ... ... : ... .. . ... ... ... ...
ROW 81 : ... .. . ... ... : ... .. . ... ... : ... .. . ... ... : ... .. . ... : ... .. . ... ... : ... .. . ... ... ... ...
ROW 82 : ... .. . ... ... : ... .. . ... ... : ... .. . ... ... : ... .. . ... : ... .. . ... ... : ... .. . ... ... ... ...
ROW 83 : ... .. . ... ... : ... .. . ... ... : ... .. . ... ... : ... .. . ... : ... .. . ... ... : ... .. . ... ... ... ...
ROW 84 : ... .. . ... ... : ... .. . ... ... : ... .. . ... ... : ... .. . ... : ... .. . ... ... : ... .. . ... ... ... ...
ROW 85 : ... .. . ... ... : ... .. . ... ... : ... .. . ... ... : ... .. . ... : ... .. . ... ... : ... .. . ... ... ... ...
ROW 86 : ... .. . ... ... : ... .. . ... ... : ... .. . ... ... : ... .. . ... : ... .. . ... ... : ... .. . ... ... ... ...
ROW 87 : ... .. . ... ... : ... .. . ... ... : ... .. . ... ... : ... .. . ... : ... .. . ... ... : ... .. . ... ... ... ...
ROW 88 : ... .. . ... ... : ... .. . ... ... : ... .. . ... ... : ... .. . ... : ... .. . ... ... : ... .. . ... ... ... ...
ROW 89 : ... .. . ... ... : ... .. . ... ... : ... .. . ... ... : ... .. . ... : ... .. . ... ... : ... .. . ... ... ... ...
ROW 8A : ... .. . ... ... : ... .. . ... ... : ... .. . ... ... : ... .. . ... : ... .. . ... ... : ... .. . ... ... ... ...
ROW 8B : ... .. . ... ... : ... .. . ... ... : ... .. . ... ... : ... .. . ... : ... .. . ... ... : ... .. . ... ... ... ...
ROW 8C : ... .. . ... ... : ... .. . ... ... : ... .. . ... ... : ... .. . ... : ... .. . ... ... : ... .. . ... ... ... ...
ROW 8D : ... .. . ... ... : ... .. . ... ... : ... .. . ... ... : ... .. . ... : ... .. . ... ... : ... .. . ... ... ... ...
ROW 8E : ... .. . ... ... : ... .. . ... ... : ... .. . ... ... : ... .. . ... : ... .. . ... ... : ... .. . ... ... ... ...
ROW 8F : ... .. . ... ... : ... .. . ... ... : ... .. . ... ... : ... .. . ... : ... .. . ... ... : ... .. . ... ... ... ...
ROW 90 : ... .. . ... ... : ... .. . ... ... : ... .. . ... ... : ... .. . ... : ... .. . ... ... : ... .. . ... ... ... ...
ROW 91 : ... .. . ... ... : ... .. . ... ... : ... .. . ... ... : ... .. . ... : ... .. . ... ... : ... .. . ... ... ... ...
ROW 92 : ... .. . ... ... : ... .. . ... ... : ... .. . ... ... : ... .. . ... : ... .. . ... ... : ... .. . ... ... ... ...
ROW 93 : ... .. . ... ... : ... .. . ... ... : ... .. . ... ... : ... .. . ... : ... .. . ... ... : ... .. . ... ... ... ...
ROW 94 : ... .. . ... ... : ... .. . ... ... : ... .. . ... ... : ... .. . ... : ... .. . ... ... : ... .. . ... ... ... ...
ROW 95 : ... .. . ... ... : ... .. . ... ... : ... .. . ... ... : ... .. . ... : ... .. . ... ... : ... .. . ... ... ... ...
ROW 96 : ... .. . ... ... : ... .. . ... ... : ... .. . ... ... : ... .. . ... : ... .. . ... ... : ... .. . ... ... ... ...
ROW 97 : ... .. . ... ... : ... .. . ... ... : ... .. . ... ... : ... .. . ... : ... .. . ... ... : ... .. . ... ... ... ...
ROW 98 : ... .. . ... ... : ... .. . ... ... : ... .. . ... ... : ... .. . ... : ... .. . ... ... : ... .. . ... ... ... ...
ROW 99 : ... .. . ... ... : ... .. . ... ... : ... .. . ... ... : ... .. . ... : ... .. . ... ... : ... .. . ... ... ... ...
ROW 9A : ... .. . ... ... : ... .. . ... ... : ... .. . ... ... : ... .. . ... : ... .. . ... ... : ... .. . ... ... ... ...
ROW 9B : ... .. . ... ... : ... .. . ... ... : ... .. . ... ... : ... .. . ... : ... .. . ... ... : ... .. . ... ... ... ...
ROW 9C : ... .. . ... ... : ... .. . ... ... : ... .. . ... ... : ... .. . ... : ... .. . ... ... : ... .. . ... ... ... ...
ROW 9D : ... .. . ... ... : ... .. . ... ... : ... .. . ... ... : ... .. . ... : ... .. . ... ... : ... .. . ... ... ... ...
ROW 9E : ... .. . ... ... : ... .. . ... ... : ... .. . ... ... : ... .. . ... : ... .. . ... ... : ... .. . ... ... ... ...
ROW 9F : ... .. . ... ... : ... .. . ... ... : ... .. . ... ... : ... .. . ... : ... .. . ... ... : ... .. . ... ... ... ...
ROW A0 : ... .. . ... ... : ... .. . ... ... : ... .. . ... ... : ... .. . ... : ... .. . ... ... : ... .. . ... ... ... ...
ROW A1 : ... .. . ... ... : ... .. . ... ... : ... .. . ... ... : ... .. . ... : ... .. . ... ... : ... .. . ... ... ... ...
ROW A2 : ... .. . ... ... : ... .. . ... ... : ... .. . ... ... : ... .. . ... : ... .. . ... ... : ... .. . ... ... ... ...
ROW A3 : ... .. . ... ... : ... .. . ... ... : ... .. . ... ... : ... .. . ... : ... .. . ... ... : ... .. . ... ... ... ...
ROW A4 : ... .. . ... ... : ... .. . ... ... : ... .. . ... ... : ... .. . ... : ... .. . ... ... : ... .. . ... ... ... ...
ROW A5 : ... .. . ... ... : ... .. . ... ... : ... .. . ... ... : ... .. . ... : ... .. . ... ... : ... .. . ... ... ... ...
ROW A6 : ... .. . ... ... : ... .. . ... ... : ... .. . ... ... : ... .. . ... : ... .. . ... ... : ... .. . ... ... ... ...
ROW A7 : ... .. . ... ... : ... .. . ... ... : ... .. . ... ... : ... .. . ... : ... .. . ... ... : ... .. . ... ... ... ...
ROW A8 : ... .. . ... ... : ... .. . ... ... : ... .. . ... ... : ... .. . ... : ... .. . ... ... : ... .. . ... ... ... ...
ROW A9 : ... .. . ... ... : ... .. . ... ... : ... .. . ... ... : ... .. . ... : ... .. . ... ... : ... .. . ... ... ... ...
ROW AA : ... .. . ... ... : ... .. . ... ... : ... .. . ... ... : ... .. . ... : ... .. . ... ... : ... .. . ... ... ... ...
ROW AB : ... .. . ... ... : ... .. . ... ... : ... .. . ... ... : ... .. . ... : ... .. . ... ... : ... .. . ... ... ... ...
ROW AC : ... .. . ... ... : ... .. . ... ... : ... .. . ... ... : ... .. . ... : ... .. . ... ... : ... .. . ... ... ... ...
ROW AD : ... .. . ... ... : ... .. . ... ... : ... .. . ... ... : ... .. . ... : ... .. . ... ... : ... .. . ... ... ... ...
ROW AE : ... .. . ... ... : ... .. . ... ... : ... .. . ... ... : ... .. . ... : ... .. . ... ... : ... .. . ... ... ... ...
ROW AF : ... .. . ... ... : ... .. . ... ... : ... .. . ... ... : ... .. . ... : ... .. . ... ... : ... .. . ... ... ... ...
ROW B0 : ... .. . ... ... : ... .. . ... ... : ... .. . ... ... : ... .. . ... : ... .. . ... ... : ... .. . ... ... ... ...
ROW B1 : ... .. . ... ... : ... .. . ... ... : ... .. . ... ... : ... .. . ... : ... .. . ... ... : ... .. . ... ... ... ...
ROW B2 : ... .. . ... ... : ... .. . ... ... : ... .. . ... ... : ... .. . ... : ... .. . ... ... : ... .. . ... ... ... ...
ROW B3 : ... .. . ... ... : ... .. . ... ... : ... .. . ... ... : ... .. . ... : ... .. . ... ... : ... .. . ... ... ... ...
ROW B4 : ... .. . ... ... : ... .. . ... ... : ... .. . ... ... : ... .. . ... : ... .. . ... ... : ... .. . ... ... ... ...
ROW B5 : ... .. . ... ... : ... .. . ... ... : ... .. . ... ... : ... .. . ... : ... .. . ... ... : ... .. . ... ... ... ...
ROW B6 : ... .. . ... ... : ... .. . ... ... : ... .. . ... ... : ... .. . ... : ... .. . ... ... : ... .. . ... ... ... ...
ROW B7 : ... .. . ... ... : ... .. . ... ... : ... .. . ... ... : ... .. . ... : ... .. . ... ... : ... .. . ... ... ... ...
ROW B8 : ... .. . ... ... : ... .. . ... ... : ... .. . ... ... : ... .. . ... : ... .. . ... ... : ... .. . ... ... ... ...
ROW B9 : ... .. . ... ... : ... .. . ... ... : ... .. . ... ... : ... .. . ... : ... .. . ... ... : ... .. . ... ... ... ...
ROW BA : ... .. . ... ... : ... .. . ... ... : ... .. . ... ... : ... .. . ... : ... .. . ... ... : ... .. . ... ... ... ...
ROW BB : ... .. . ... ... : ... .. . ... ... : ... .. . ... ... : ... .. . ... : ... .. . ... ... : ... .. . ... ... ... ...
ROW BC : ... .. . ... ... : ... .. . ... ... : ... .. . ... ... : ... .. . ... : ... .. . ... ... : ... .. . ... ... ... ...
ROW BD : ... .. . ... ... : ... .. . ... ... : ... .. . ... ... : ... .. . ... : ... .. . ... ... : ... .. . ... ... ... ...
ROW BE : ... .. . ... ... : ... .. . ... ... : ... .. . ... ... : ... .. . ... : ... .. . ... ... : ... .. . ... ... ... ...
ROW BF : ... .. . ... ... : ... .. . ... ... : ... .. . ... ... : ... .. . ... : ... .. . ... ... : ... .. . ... ... ... ...
ROW C0 : ... .. . ... ... : ... .. . ... ... : ... .. . ... ... : ... .. . ... : ... .. . ... ... : ... .. . ... ... ... ...
ROW C1 : ... .. . ... ... : ... .. . ... ... : ... .. . ... ... : ... .. . ... : ... .. . ... ... : ... .. . ... ... ... ...
ROW C2 : ... .. . ... ... : ... .. . ... ... : ... .. . ... ... : ... .. . ... : ... .. . ... ... : ... .. . ... ... ... ...
ROW C3 : ... .. . ... ... : ... .. . ... ... : ... .. . ... ... : ... .. . ... : ... .. . ... ... : ... .. . ... ... ... ...
ROW C4 : ... .. . ... ... : ... .. . ... ... : ... .. . ... ... : ... .. . ... : ... .. . ... ... : ... .. . ... ... ... ...
ROW C5 : ... .. . ... ... : ... .. . ... ... : ... .. . ... ... : ... .. . ... : ... .. . ... ... : ... .. . ... ... ... ...
ROW C6 : ... .. . ... ... : ... .. . ... ... : ... .. . ... ... : ... .. . ... : ... .. . ... ... : ... .. . ... ... ... ...
ROW C7 : ... .. . ... ... : ... .. . ... ... : ... .. . ... ... : ... .. . ... : ... .. . ... ... : ... .. . ... ... ... ...
ROW C8 : ... .. . ... ... : ... .. . ... ... : ... .. . ... ... : ... .. . ... : ... .. . ... ... : ... .. . ... ... ... ...
ROW C9 : ... .. . ... ... : ... .. . ... ... : ... .. . ... ... : ... .. . ... : ... .. . ... ... : ... .. . ... ... ... ...
ROW CA : ... .. . ... ... : ... .. . ... ... : ... .. . ... ... : ... .. . ... : ... .. . ... ... : ... .. . ... ... ... ...
ROW CB : ... .. . ... ... : ... .. . ... ... : ... .. . ... ... : ... .. . ... : ... .. . ... ... : ... .. . ... ... ... ...
ROW CC : ... .. . ... ... : ... .. . ... ... : ... .. . ... ... : ... .. . ... : ... .. . ... ... : ... .. . ... ... ... ...
ROW CD : ... .. . ... ... : ... .. . ... ... : ... .. . ... ... : ... .. . ... : ... .. . ... ... : ... .. . ... ... ... ...
ROW CE : ... .. . ... ... : ... .. . ... ... : ... .. . ... ... : ... .. . ... : ... .. . ... ... : ... .. . ... ... ... ...
ROW CF : ... .. . ... ... : ... .. . ... ... : ... .. . ... ... : ... .. . ... : ... .. . ... ... : ... .. . ... ... ... ...
ROW D0 : ... .. . ... ... : ... .. . ... ... : ... .. . ... ... : ... .. . ... : ... .. . ... ... : ... .. . ... ... ... ...
ROW D1 : ... .. . ... ... : ... .. . ... ... : ... .. . ... ... : ... .. . ... : ... .. . ... ... : ... .. . ... ... ... ...
ROW D2 : ... .. . ... ... : ... .. . ... ... : ... .. . ... ... : ... .. . ... : ... .. . ... ... : ... .. . ... ... ... ...
ROW D3 : ... .. . ... ... : ... .. . ... ... : ... .. . ... ... : ... .. . ... : ... .. . ... ... : ... .. . ... ... ... ...
ROW D4 : ... .. . ... ... : ... .. . ... ... : ... .. . ... ... : ... .. . ... : ... .. . ... ... : ... .. . ... ... ... ...
ROW D5 : ... .. . ... ... : ... .. . ... ... : ... .. . ... ... : ... .. . ... : ... .. . ... ... : ... .. . ... ... ... ...
ROW D6 : ... .. . ... ... : ... .. . ... ... : ... .. . ... ... : ... .. . ... : ... .. . ... ... : ... .. . ... ... ... ...
ROW D7 : ... .. . ... ... : ... .. . ... ... : ... .. . ... ... : ... .. . ... : ... .. . ... ... : ... .. . ... ... ... ...
ROW D8 : ... .. . ... ... : ... .. . ... ... : ... .. . ... ... : ... .. . ... : ... .. . ... ... : ... .. . ... ... ... ...
ROW D9 : ... .. . ... ... : ... .. . ... ... : ... .. . ... ... : ... .. . ... : ... .. . ... ... : ... .. . ... ... ... ...
ROW DA : ... .. . ... ... : ... .. . ... ... : ... .. . ... ... : ... .. . ... : ... .. . ... ... : ... .. . ... ... ... ...
ROW DB : ... .. . ... ... : ... .. . ... ... : ... .. . ... ... : ... .. . ... : ... .. . ... ... : ... .. . ... ... ... ...
ROW DC : ... .. . ... ... : ... .. . ... ... : ... .. . ... ... : ... .. . ... : ... .. . ... ... : ... .. . ... ... ... ...
ROW DD : ... .. . ... ... : ... .. . ... ... : ... .. . ... ... : ... .. . ... : ... .. . ... ... : ... .. . ... ... ... ...
ROW DE : ... .. . ... ... : ... .. . ... ... : ... .. . ... ... : ... .. . ... : ... .. . ... ... : ... .. . ... ... ... ...
ROW DF : ... .. . ... ... : ... .. . ... ... : ... .. . ... ... : ... .. . ... : ... .. . ... ... : ... .. . ... ... ... ...
ROW E0 : ... .. . ... ... : ... .. . ... ... : ... .. . ... ... : ... .. . ... : ... .. . ... ... : ... .. . ... ... ... ...
ROW E1 : ... .. . ... ... : ... .. . ... ... : ... .. . ... ... : ... .. . ... : ... .. . ... ... : ... .. . ... ... ... ...
ROW E2 : ... .. . ... ... : ... .. . ... ... : ... .. . ... ... : ... .. . ... : ... .. . ... ... : ... .. . ... ... ... ...
ROW E3 : ... .. . ... ... : ... .. . ... ... : ... .. . ... ... : ... .. . ... : ... .. . ... ... : ... .. . ... ... ... ...
ROW E4 : ... .. . ... ... : ... .. . ... ... : ... .. . ... ... : ... .. . ... : ... .. . ... ... : ... .. . ... ... ... ...
ROW E5 : ... .. . ... ... : ... .. . ... ... : ... .. . ... ... : ... .. . ... : ... .. . ... ... : ... .. . ... ... ... ...
ROW E6 : ... .. . ... ... : ... .. . ... ... : ... .. . ... ... : ... .. . ... : ... .. . ... ... : ... .. . ... ... ... ...
ROW E7 : ... .. . ... ... : ... .. . ... ... : ... .. . ... ... : ... .. . ... : ... .. . ... ... : ... .. . ... ... ... ...
ROW E8 : ... .. . ... ... : ... .. . ... ... : ... .. . ... ... : ... .. . ... : ... .. . ... ... : ... .. . ... ... ... ...
ROW E9 : ... .. . ... ... : ... .. . ... ... : ... .. . ... ... : ... .. . ... : ... .. . ... ... : ... .. . ... ... ... ...
ROW EA : ... .. . ... ... : ... .. . ... ... : ... .. . ... ... : ... .. . ... : ... .. . ... ... : ... .. . ... ... ... ...
ROW EB : ... .. . ... ... : ... .. . ... ... : ... .. . ... ... : ... .. . ... : ... .. . ... ... : ... .. . ... ... ... ...
ROW EC : ... .. . ... ... : ... .. . ... ... : ... .. . ... ... : ... .. . ... : ... .. . ... ... : ... .. . ... ... ... ...
ROW ED : ... .. . ... ... : ... .. . ... ... : ... .. . ... ... : ... .. . ... : ... .. . ... ... : ... .. . ... ... ... ...
ROW EE : ... .. . ... ... : ... .. . ... ... : ... .. . ... ... : ... .. . ... : ... .. . ... ... : ... .. . ... ... ... ...
ROW EF : ... .. . ... ... : ... .. . ... ... : ... .. . ... ... : ... .. . ... : ... .. . ... ... : ... .. . ... ... ... ...
ROW F0 : ... .. . ... ... : ... .. . ... ... : ... .. . ... ... : ... .. . ... : ... .. . ... ... : ... .. . ... ... ... ...
ROW F1 : ... .. . ... ... : ... .. . ... ... : ... .. . ... ... : ... .. . ... : ... .. . ... ... : ... .. . ... ... ... ...
ROW F2 : ... .. . ... ... : ... .. . ... ... : ... .. . ... ... : ... .. . ... : ... .. . ... ... : ... .. . ... ... ... ...
ROW F3 : ... .. . ... ... : ... .. . ... ... : ... .. . ... ... : ... .. . ... : ... .. . ... ... : ... .. . ... ... ... ...
ROW F4 : ... .. . ... ... : ... .. . ... ... : ... .. . ... ... : ... .. . ... : ... .. . ... ... : ... .. . ... ... ... ...
ROW F5 : ... .. . ... ... : ... .. . ... ... : ... .. . ... ... : ... .. . ... : ... .. . ... ... : ... .. . ... ... ... ...
ROW F6 : ... .. . ... ... : ... .. . ... ... : ... .. . ... ... : ... .. . ... : ... .. . ... ... : ... .. . ... ... ... ...
ROW F7 : ... .. . ... ... : ... .. . ... ... : ... .. . ... ... : ... .. . ... : ... .. . ... ... : ... .. . ... ... ... ...
ROW F8 : ... .. . ... ... : ... .. . ... ... : ... .. . ... ... : ... .. . ... : ... .. . ... ... : ... .. . ... ... ... ...
ROW F9 : ... .. . ... ... : ... .. . ... ... : ... .. . ... ... : ... .. . ... : ... .. . ... ... : ... .. . ... ... ... ...
ROW FA : ... .. . ... ... : ... .. . ... ... : ... .. . ... ... : ... .. . ... : ... .. . ... ... : ... .. . ... ... ... ...
ROW FB : ... .. . ... ... : ... .. . ... ... : ... .. . ... ... : ... .. . ... : ... .. . ... ... : ... .. . ... ... ... ...
ROW FC : ... .. . ... ... : ... .. . ... ... : ... .. . ... ... : ... .. . ... : ... .. . ... ... : ... .. . ... ... ... ...
ROW FD : ... .. . ... ... : ... .. . ... ... : ... .. . ... ... : ... .. . ... : ... .. . ... ... : ... .. . ... ... ... ...
ROW FE : ... .. . ... ... : ... .. . ... ... : ... .. . ... ... : ... .. . ... : ... .. . ... ... : ... .. . ... ... ... ...
ROW FF : ... .. . ... ... : ... .. . ... ... : ... .. . ... ... : ... .. . ... : ... .. . ... ... : ... .. . ... ... ... ...

PATTERN 02
ROW 00 : G-3 03 A V02 ... : G-3 04 8 ... ... : G-3 03 . 226 ... : C-# 03 E A03 : G-3 20 . F05 ... : F#5 0A A 400 Q31 ... ...
ROW 01 : ... .. 4 ... ... : ... .. 5 ... ... : ... .. . ... ... : ... .. . A04 : ... .. . ... ... : ... .. . ... ... ... ...
ROW 02 : D#3 03 A ... ... : ... .. 8 ... ... : ... .. . ... ... : ... .. . A05 : ... .. . ... ... : ... .. . ... ... ... ...
ROW 03 : G-3 03 4 ... ... : ... .. 5 ... ... : ... .. . ... ... : ... .. . A04 : ... .. . ... ... : ... .. . ... ... ... ...
ROW 04 : C-3 03 A ... ... : ... .. 8 ... ... : G-4 03 . 236 ... : 6-# 08 A A00 : G-3 20 . ... ... : ... .. . ... ... ... ...
ROW 05 : D#3 03 4 ... ... : ... .. 5 ... ... : ... .. . ... ... : ... .. . ... : ... .. . ... ... : ... .. . ... ... ... ...
ROW 06 : G-2 03 A ... ... : ... .. 8 ... ... : G-2 11 . 200 ... : D-# 05 7 ... : ... .. . ... ... : ... .. . 468 ... ... ...
ROW 07 : C-3 03 4 ... ... : ... .. 5 ... ... : ... .. . S02 ... : ... .. . ... : ... .. . ... ... : ... .. . ... ... ... ...
ROW 08 : G-3 03 A V01 ... : ... .. 8 ... ... : G-2 11 . ... ... : D-# 05 . ... : G-3 20 . ... ... : ... .. . ... ... ... ...
ROW 09 : G-2 03 4 ... ... : ... .. 5 ... ... : ... .. . S02 ... : ... .. . ... : ... .. . ... ... : ... .. . ... ... ... ...
ROW 0A : D#3 03 A ... ... : ... .. 8 ... ... : G-2 11 . ... ... : D-# 05 . ... : ... .. . ... ... : ... .. . ... ... ... ...
ROW 0B : G-3 03 4 ... ... : ... .. 5 ... ... : ... .. . S02 ... : ... .. . ... : ... .. . ... ... : ... .. . ... ... ... ...
ROW 0C : C-3 03 A ... ... : ... .. 8 ... ... : G-4 03 . 236 ... : 6-# 08 A ... : G-3 20 . ... ... : ... .. 8 ... ... ... ...
ROW 0D : D#3 03 4 ... ... : ... .. 5 ... ... : ... .. . ... ... : ... .. . ... : ... .. . ... ... : ... .. 6 ... ... ... ...
ROW 0E : G-2 03 A ... ... : ... .. 8 ... ... : G-2 11 . 200 ... : D-# 05 7 ... : ... .. . ... ... : ... .. 4 ... ... ... ...
ROW 0F : C-3 03 4 ... ... : ... .. 5 ... ... : ... .. . S02 ... : ... .. . ... : ... .. . ... ... : ... .. 2 ... ... ... ...
ROW 10 : G-3 03 A V00 ... : ... .. 8 ... ... : G-2 11 . 200 ... : D-# 05 . ... : G-3 20 . ... ... : G-5 0A A 400 ... ... ...
ROW 11 : G-2 03 4 ... ... : ... .. 5 ... ... : ... .. . S02 ... : ... .. . ... : ... .. . ... ... : ... .. 8 ... ... ... ...
ROW 12 : D#3 03 A ... ... : ... .. 8 ... ... : G-2 11 . ... ... : D-# 05 . ... : ... .. . ... ... : A#5 0A A ... ... ... ...
ROW 13 : G-3 03 4 ... ... : ... .. 5 ... ... : ... .. . S02 ... : ... .. . ... : ... .. . ... ... : ... .. 8 ... ... ... ...
ROW 14 : C-3 03 A ... ... : ... .. 8 ... ... : G-4 03 . 236 ... : 6-# 08 A ... : G-3 20 . ... ... : G-5 0A 6 ... ... ... ...
ROW 15 : D#3 03 4 ... ... : ... .. 5 ... ... : ... .. . ... ... : ... .. . ... : ... .. . ... ... : ... .. 4 ... ... ... ...
ROW 16 : G-2 03 A ... ... : ... .. 8 ... ... : G-2 11 . 200 ... : D-# 05 7 ... : ... .. . ... ... : C-6 0A A ... ... ... ...
ROW 17 : C-3 03 4 ... ... : ... .. 5 ... ... : ... .. . S02 ... : ... .. . ... : ... .. . ... ... : ... .. . ... ... ... ...
ROW 18 : G-3 03 A V01 ... : ... .. 8 ... ... : G-2 11 . ... ... : D-# 05 . ... : G-3 20 . ... ... : ... .. . ... ... ... ...
ROW 19 : G-2 03 4 ... ... : ... .. 5 ... ... : ... .. . S02 ... : ... .. . ... : ... .. . ... ... : ... .. . ... ... ... ...
ROW 1A : D#3 03 A ... ... : ... .. 8 ... ... : G-2 11 . ... ... : D-# 05 . ... : ... .. . ... ... : ... .. . 468 ... ... ...
ROW 1B : G-3 03 4 ... ... : ... .. 5 ... ... : ... .. . S02 ... : ... .. . ... : ... .. . ... ... : ... .. 8 ... ... ... ...
ROW 1C : C-3 03 A ... ... : ... .. 8 ... ... : G-4 03 . 236 ... : 6-# 08 A ... : G-3 20 . ... ... : D-6 0A A 400 ... ... ...
ROW 1D : D#3 03 4 ... ... : ... .. 5 ... ... : ... .. . ... ... : ... .. . ... : ... .. . ... ... : ... .. 9 ... ... ... ...
ROW 1E : G-2 03 A ... ... : ... .. 8 ... ... : G-2 11 . 200 ... : D-# 05 7 ... : ... .. . ... ... : G-5 0A A ... ... ... ...
ROW 1F : C-3 03 4 ... ... : ... .. 5 ... ... : ... .. . S02 ... : ... .. . ... : ... .. . ... ... : ... .. . ... ... ... ...
ROW 20 : G-3 03 A V02 ... : ... .. 8 ... ... : G-2 11 . 200 ... : D-# 05 . ... : G-3 20 . ... ... : ... .. . ... ... ... ...
ROW 21 : G-2 03 4 ... ... : ... .. 5 ... ... : ... .. . S02 ... : ... .. . ... : ... .. . ... ... : ... .. . ... ... ... ...
ROW 22 : D#3 03 A ... ... : ... .. 8 ... ... : G-2 11 . ... ... : D-# 05 . ... : ... .. . ... ... : ... .. . ... ... ... ...
ROW 23 : G-3 03 4 ... ... : ... .. 5 ... ... : ... .. . S02 ... : ... .. . ... : ... .. . ... ... : ... .. . ... ... ... ...
ROW 24 : C-3 03 A ... ... : ... .. 8 ... ... : G-4 03 . 236 ... : 6-# 08 A ... : G-3 20 . ... ... : ... .. . 468 ... ... ...
ROW 25 : D#3 03 4 ... ... : ... .. 5 ... ... : ... .. . ... ... : ... .. . ... : ... .. . ... ... : ... .. . ... ... ... ...
ROW 26 : G-2 03 A ... ... : ... .. 8 ... ... : G-2 11 . 200 ... : D-# 05 7 ... : ... .. . ... ... : ... .. . ... ... ... ...
ROW 27 : C-3 03 4 ... ... : ... .. 5 ... ... : ... .. . S02 ... : ... .. . ... : ... .. . ... ... : ... .. . ... ... ... ...
ROW 28 : G-3 03 A V01 ... : ... .. 8 ... ... : G-2 11 . ... ... : D-# 05 . ... : G-3 20 . ... ... : ... .. . ... ... ... ...
ROW 29 : G-2 03 4 ... ... : ... .. 5 ... ... : ... .. . S02 ... : ... .. . ... : ... .. . ... ... : ... .. . ... ... ... ...
ROW 2A : D#3 03 A ... ... : ... .. 8 ... ... : G-2 11 . ... ... : D-# 05 . ... : ... .. . ... ... : ... .. . ... ... ... ...
ROW 2B : G-3 03 4 ... ... : ... .. 5 ... ... : ... .. . S02 ... : ... .. . ... : ... .. . ... ... : ... .. . ... ... ... ...
ROW 2C : C-3 03 A ... ... : ... .. 8 ... ... : G-4 03 . 236 ... : 6-# 08 A ... : G-3 20 . ... ... : ... .. 8 ... ... ... ...
ROW 2D : D#3 03 4 ... ... : ... .. 5 ... ... : ... .. . ... ... : ... .. . ... : ... .. . ... ... : ... .. 6 ... ... ... ...
ROW 2E : G-2 03 A ... ... : ... .. 8 ... ... : G-2 11 . 200 ... : D-# 05 7 ... : ... .. . ... ... : ... .. 4 ... ... ... ...
ROW 2F : C-3 03 4 ... ... : ... .. 5 ... ... : ... .. . S02 ... : ... .. . ... : ... .. . ... ... : ... .. 2 ... ... ... ...
ROW 30 : A#3 03 A V00 ... : A#3 07 8 ... ... : A#2 11 . 200 ... : D-# 05 . ... : A#3 20 . ... ... : A-5 0A A 400 Q31 ... ...
ROW 31 : G-2 03 4 ... ... : ... .. 5 ... ... : ... .. . S02 ... : ... .. . ... : ... .. . ... ... : ... .. . ... ... ... ...
ROW 32 : G-3 03 A ... ... : ... .. 8 ... ... : A#2 11 . ... ... : D-# 05 . ... : ... .. . ... ... : ... .. . ... ... ... ...
ROW 33 : A#3 03 4 ... ... : ... .. 5 ... ... : ... .. . S02 ... : ... .. . ... : ... .. . ... ... : ... .. 4 ... ... ... ...
ROW 34 : D#3 03 A ... ... : ... .. 8 ... ... : A#4 03 . 236 ... : 6-# 08 A ... : A#3 20 . ... ... : G-5 0A A ... ... ... ...
ROW 35 : G-3 03 4 ... ... : ... .. 5 ... ... : ... .. . ... ... : ... .. . ... : ... .. . ... ... : ... .. . ... ... ... ...
ROW 36 : A#2 03 A ... ... : ... .. 8 ... ... : A#2 11 . 200 ... : D-# 05 7 ... : ... .. . ... ... : ... .. . ... ... ... ...
ROW 37 : D#3 03 4 ... ... : ... .. 5 ... ... : ... .. . S02 ... : ... .. . ... : ... .. . ... ... : A#5 0A 4 ... ... ... ...
ROW 38 : A#3 03 A V01 ... : ... .. 8 ... ... : A#2 11 . ... ... : D-# 05 . ... : A#3 20 . ... ... : F-5 0A A ... ... ... ...
ROW 39 : A#2 03 4 ... ... : ... .. 5 ... ... : ... .. . S02 ... : ... .. . ... : ... .. . ... ... : ... .. . ... ... ... ...
ROW 3A : G-3 03 A ... ... : ... .. 8 ... ... : A#2 11 . ... ... : D-# 05 . ... : ... .. . ... ... : ... .. . ... ... ... ...
ROW 3B : A#3 03 4 ... ... : ... .. 5 ... ... : ... .. . S02 ... : ... .. . ... : ... .. . ... ... : G-5 0A 4 ... ... ... ...
ROW 3C : D#3 03 A ... ... : ... .. 8 ... ... : A#4 03 . 236 ... : 6-# 08 A ... : A#3 20 . ... ... : D#5 0A A ... ... ... ...
ROW 3D : G-3 03 4 ... ... : ... .. 5 ... ... : ... .. . ... ... : ... .. . ... : ... .. . ... ... : ... .. . ... ... ... ...
ROW 3E : A#2 03 A ... ... : ... .. 8 ... ... : A#2 11 . 200 ... : D-# 05 7 ... : ... .. . ... ... : ... .. . ... ... ... ...
ROW 3F : D#3 03 4 ... ... : ... .. 5 ... ... : ... .. . S02 ... : ... .. . ... : ... .. . D00 ... : F-5 0A 4 ... ... ... ...
ROW 40 : ... .. . ... ... : ... .. . ... ... : ... .. . ... ... : ... .. . ... : ... .. . ... ... : ... .. . ... ... ... ...
ROW 41 : ... .. . ... ... : ... .. . ... ... : ... .. . ... ... : ... .. . ... : ... .. . ... ... : ... .. . ... ... ... ...
ROW 42 : ... .. . ... ... : ... .. . ... ... : ... .. . ... ... : ... .. . ... : ... .. . ... ... : ... .. . ... ... ... ...
ROW 43 : ... .. . ... ... : ... .. . ... ... : ... .. . ... ... : ... .. . ... : ... .. . ... ... : ... .. . ... ... ... ...
ROW 44 : ... .. . ... ... : ... .. . ... ... : ... .. . ... ... : ... .. . ... : ... .. . ... ... : ... .. . ... ... ... ...
ROW 45 : ... .. . ... ... : ... .. . ... ... : ... .. . ... ... : ... .. . ... : ... .. . ... ... : ... .. . ... ... ... ...
ROW 46 : ... .. . ... ... : ... .. . ... ... : ... .. . ... ... : ... .. . ... : ... .. . ... ... : ... .. . ... ... ... ...
ROW 47 : ... .. . ... ... : ... .. . ... ... : ... .. . ... ... : ... .. . ... : ... .. . ... ... : ... .. . ... ... ... ...
ROW 48 : ... .. . ... ... : ... .. . ... ... : ... .. . ... ... : ... .. . ... : ... .. . ... ... : ... .. . ... ... ... ...
ROW 49 : ... .. . ... ... : ... .. . ... ... : ... .. . ... ... : ... .. . ... : ... .. . ... ... : ... .. . ... ... ... ...
ROW 4A : ... .. . ... ... : ... .. . ... ... : ... .. . ... ... : ... .. . ... : ... .. . ... ... : ... .. . ... ... ... ...
ROW 4B : ... .. . ... ... : ... .. . ... ... : ... .. . ... ... : ... .. . ... : ... .. . ... ... : ... .. . ... ... ... ...
ROW 4C : ... .. . ... ... : ... .. . ... ... : ... .. . ... ... : ... .. . ... : ... .. . ... ... : ... .. . ... ... ... ...
ROW 4D : ... .. . ... ... : ... .. . ... ... : ... .. . ... ... : ... .. . ... : ... .. . ... ... : ... .. . ... ... ... ...
ROW 4E : ... .. . ... ... : ... .. . ... ... : ... .. . ... ... : ... .. . ... : ... .. . ... ... : ... .. . ... ... ... ...
ROW 4F : ... .. . ... ... : ... .. . ... ... : ... .. . ... ... : ... .. . ... : ... .. . ... ... : ... .. . ... ... ... ...
ROW 50 : ... .. . ... ... : ... .. . ... ... : ... .. . ... ... : ... .. . ... : ... .. . ... ... : ... .. . ... ... ... ...
ROW 51 : ... .. . ... ... : ... .. . ... ... : ... .. . ... ... : ... .. . ... : ... .. . ... ... : ... .. . ... ... ... ...
ROW 52 : ... .. . ... ... : ... .. . ... ... : ... .. . ... ... : ... .. . ... : ... .. . ... ... : ... .. . ... ... ... ...
ROW 53 : ... .. . ... ... : ... .. . ... ... : ... .. . ... ... : ... .. . ... : ... .. . ... ... : ... .. . ... ... ... ...
ROW 54 : ... .. . ... ... : ... .. . ... ... : ... .. . ... ... : ... .. . ... : ... .. . ... ... : ... .. . ... ... ... ...
ROW 55 : ... .. . ... ... : ... .. . ... ... : ... .. . ... ... : ... .. . ... : ... .. . ... ... : ... .. . ... ... ... ...
ROW 56 : ... .. . ... ... : ... .. . ... ... : ... .. . ... ... : ... .. . ... : ... .. . ... ... : ... .. . ... ... ... ...
ROW 57 : ... .. . ... ... : ... .. . ... ... : ... .. . ... ... : ... .. . ... : ... .. . ... ... : ... .. . ... ... ... ...
ROW 58 : ... .. . ... ... : ... .. . ... ... : ... .. . ... ... : ... .. . ... : ... .. . ... ... : ... .. . ... ... ... ...
ROW 59 : ... .. . ... ... : ... .. . ... ... : ... .. . ... ... : ... .. . ... : ... .. . ... ... : ... .. . ... ... ... ...
ROW 5A : ... .. . ... ... : ... .. . ... ... : ... .. . ... ... : ... .. . ... : ... .. . ... ... : ... .. . ... ... ... ...
ROW 5B : ... .. . ... ... : ... .. . ... ... : ... .. . ... ... : ... .. . ... : ... .. . ... ... : ... .. . ... ... ... ...
ROW 5C : ... .. . ... ... : ... .. . ... ... : ... .. . ... ... : ... .. . ... : ... .. . ... ... : ... .. . ... ... ... ...
ROW 5D : ... .. . ... ... : ... .. . ... ... : ... .. . ... ... : ... .. . ... : ... .. . ... ... : ... .. . ... ... ... ...
ROW 5E : ... .. . ... ... : ... .. . ... ... : ... .. . ... ... : ... .. . ... : ... .. . ... ... : ... .. . ... ... ... ...
ROW 5F : ... .. . ... ... : ... .. . ... ... : ... .. . ... ... : ... .. . ... : ... .. . ... ... : ... .. . ... ... ... ...
ROW 60 : ... .. . ... ... : ... .. . ... ... : ... .. . ... ... : ... .. . ... : ... .. . ... ... : ... .. . ... ... ... ...
ROW 61 : ... .. . ... ... : ... .. . ... ... : ... .. . ... ... : ... .. . ... : ... .. . ... ... : ... .. . ... ... ... ...
ROW 62 : ... .. . ... ... : ... .. . ... ... : ... .. . ... ... : ... .. . ... : ... .. . ... ... : ... .. . ... ... ... ...
ROW 63 : ... .. . ... ... : ... .. . ... ... : ... .. . ... ... : ... .. . ... : ... .. . ... ... : ... .. . ... ... ... ...
ROW 64 : ... .. . ... ... : ... .. . ... ... : ... .. . ... ... : ... .. . ... : ... .. . ... ... : ... .. . ... ... ... ...
ROW 65 : ... .. . ... ... : ... .. . ... ... : ... .. . ... ... : ... .. . ... : ... .. . ... ... : ... .. . ... ... ... ...
ROW 66 : ... .. . ... ... : ... .. . ... ... : ... .. . ... ... : ... .. . ... : ... .. . ... ... : ... .. . ... ... ... ...
ROW 67 : ... .. . ... ... : ... .. . ... ... : ... .. . ... ... : ... .. . ... : ... .. . ... ... : ... .. . ... ... ... ...
ROW 68 : ... .. . ... ... : ... .. . ... ... : ... .. . ... ... : ... .. . ... : ... .. . ... ... : ... .. . ... ... ... ...
ROW 69 : ... .. . ... ... : ... .. . ... ... : ... .. . ... ... : ... .. . ... : ... .. . ... ... : ... .. . ... ... ... ...
ROW 6A : ... .. . ... ... : ... .. . ... ... : ... .. . ... ... : ... .. . ... : ... .. . ... ... : ... .. . ... ... ... ...
ROW 6B : ... .. . ... ... : ... .. . ... ... : ... .. . ... ... : ... .. . ... : ... .. . ... ... : ... .. . ... ... ... ...
ROW 6C : ... .. . ... ... : ... .. . ... ... : ... .. . ... ... : ... .. . ... : ... .. . ... ... : ... .. . ... ... ... ...
ROW 6D : ... .. . ... ... : ... .. . ... ... : ... .. . ... ... : ... .. . ... : ... .. . ... ... : ... .. . ... ... ... ...
ROW 6E : ... .. . ... ... : ... .. . ... ... : ... .. . ... ... : ... .. . ... : ... .. . ... ... : ... .. . ... ... ... ...
ROW 6F : ... .. . ... ... : ... .. . ... ... : ... .. . ... ... : ... .. . ... : ... .. . ... ... : ... .. . ... ... ... ...
ROW 70 : ... .. . ... ... : ... .. . ... ... : ... .. . ... ... : ... .. . ... : ... .. . ... ... : ... .. . ... ... ... ...
ROW 71 : ... .. . ... ... : ... .. . ... ... : ... .. . ... ... : ... .. . ... : ... .. . ... ... : ... .. . ... ... ... ...
ROW 72 : ... .. . ... ... : ... .. . ... ... : ... .. . ... ... : ... .. . ... : ... .. . ... ... : ... .. . ... ... ... ...
ROW 73 : ... .. . ... ... : ... .. . ... ... : ... .. . ... ... : ... .. . ... : ... .. . ... ... : ... .. . ... ... ... ...
ROW 74 : ... .. . ... ... : ... .. . ... ... : ... .. . ... ... : ... .. . ... : ... .. . ... ... : ... .. . ... ... ... ...
ROW 75 : ... .. . ... ... : ... .. . ... ... : ... .. . ... ... : ... .. . ... : ... .. . ... ... : ... .. . ... ... ... ...
ROW 76 : ... .. . ... ... : ... .. . ... ... : ... .. . ... ... : ... .. . ... : ... .. . ... ... : ... .. . ... ... ... ...
ROW 77 : ... .. . ... ... : ... .. . ... ... : ... .. . ... ... : ... .. . ... : ... .. . ... ... : ... .. . ... ... ... ...
ROW 78 : ... .. . ... ... : ... .. . ... ... : ... .. . ... ... : ... .. . ... : ... .. . ... ... : ... .. . ... ... ... ...
ROW 79 : ... .. . ... ... : ... .. . ... ... : ... .. . ... ... : ... .. . ... : ... .. . ... ... : ... .. . ... ... ... ...
ROW 7A : ... .. . ... ... : ... .. . ... ... : ... .. . ... ... : ... .. . ... : ... .. . ... ... : ... .. . ... ... ... ...
ROW 7B : ... .. . ... ... : ... .. . ... ... : ... .. . ... ... : ... .. . ... : ... .. . ... ... : ... .. . ... ... ... ...
ROW 7C : ... .. . ... ... : ... .. . ... ... : ... .. . ... ... : ... .. . ... : ... .. . ... ... : ... .. . ... ... ... ...
ROW 7D : ... .. . ... ... : ... .. . ... ... : ... .. . ... ... : ... .. . ... : ... .. . ... ... : ... .. . ... ... ... ...
ROW 7E : ... .. . ... ... : ... .. . ... ... : ... .. . ... ... : ... .. . ... : ... .. . ... ... : ... .. . ... ... ... ...
ROW 7F : ... .. . ... ... : ... .. . ... ... : ... .. . ... ... : ... .. . ... : ... .. . ... ... : ... .. . ... ... ... ...
ROW 80 : ... .. . ... ... : ... .. . ... ... : ... .. . ... ... : ... .. . ... : ... .. . ... ... : ... .. . ... ... ... ...
ROW 81 : ... .. . ... ... : ... .. . ... ... : ... .. . ... ... : ... .. . ... : ... .. . ... ... : ... .. . ... ... ... ...
ROW 82 : ... .. . ... ... : ... .. . ... ... : ... .. . ... ... : ... .. . ... : ... .. . ... ... : ... .. . ... ... ... ...
ROW 83 : ... .. . ... ... : ... .. . ... ... : ... .. . ... ... : ... .. . ... : ... .. . ... ... : ... .. . ... ... ... ...
ROW 84 : ... .. . ... ... : ... .. . ... ... : ... .. . ... ... : ... .. . ... : ... .. . ... ... : ... .. . ... ... ... ...
ROW 85 : ... .. . ... ... : ... .. . ... ... : ... .. . ... ... : ... .. . ... : ... .. . ... ... : ... .. . ... ... ... ...
ROW 86 : ... .. . ... ... : ... .. . ... ... : ... .. . ... ... : ... .. . ... : ... .. . ... ... : ... .. . ... ... ... ...
ROW 87 : ... .. . ... ... : ... .. . ... ... : ... .. . ... ... : ... .. . ... : ... .. . ... ... : ... .. . ... ... ... ...
ROW 88 : ... .. . ... ... : ... .. . ... ... : ... .. . ... ... : ... .. . ... : ... .. . ... ... : ... .. . ... ... ... ...
ROW 89 : ... .. . ... ... : ... .. . ... ... : ... .. . ... ... : ... .. . ... : ... .. . ... ... : ... .. . ... ... ... ...
ROW 8A : ... .. . ... ... : ... .. . ... ... : ... .. . ... ... : ... .. . ... : ... .. . ... ... : ... .. . ... ... ... ...
ROW 8B : ... .. . ... ... : ... .. . ... ... : ... .. . ... ... : ... .. . ... : ... .. . ... ... : ... .. . ... ... ... ...
ROW 8C : ... .. . ... ... : ... .. . ... ... : ... .. . ... ... : ... .. . ... : ... .. . ... ... : ... .. . ... ... ... ...
ROW 8D : ... .. . ... ... : ... .. . ... ... : ... .. . ... ... : ... .. . ... : ... .. . ... ... : ... .. . ... ... ... ...
ROW 8E : ... .. . ... ... : ... .. . ... ... : ... .. . ... ... : ... .. . ... : ... .. . ... ... : ... .. . ... ... ... ...
ROW 8F : ... .. . ... ... : ... .. . ... ... : ... .. . ... ... : ... .. . ... : ... .. . ... ... : ... .. . ... ... ... ...
ROW 90 : ... .. . ... ... : ... .. . ... ... : ... .. . ... ... : ... .. . ... : ... .. . ... ... : ... .. . ... ... ... ...
ROW 91 : ... .. . ... ... : ... .. . ... ... : ... .. . ... ... : ... .. . ... : ... .. . ... ... : ... .. . ... ... ... ...
ROW 92 : ... .. . ... ... : ... .. . ... ... : ... .. . ... ... : ... .. . ... : ... .. . ... ... : ... .. . ... ... ... ...
ROW 93 : ... .. . ... ... : ... .. . ... ... : ... .. . ... ... : ... .. . ... : ... .. . ... ... : ... .. . ... ... ... ...
ROW 94 : ... .. . ... ... : ... .. . ... ... : ... .. . ... ... : ... .. . ... : ... .. . ... ... : ... .. . ... ... ... ...
ROW 95 : ... .. . ... ... : ... .. . ... ... : ... .. . ... ... : ... .. . ... : ... .. . ... ... : ... .. . ... ... ... ...
ROW 96 : ... .. . ... ... : ... .. . ... ... : ... .. . ... ... : ... .. . ... : ... .. . ... ... : ... .. . ... ... ... ...
ROW 97 : ... .. . ... ... : ... .. . ... ... : ... .. . ... ... : ... .. . ... : ... .. . ... ... : ... .. . ... ... ... ...
ROW 98 : ... .. . ... ... : ... .. . ... ... : ... .. . ... ... : ... .. . ... : ... .. . ... ... : ... .. . ... ... ... ...
ROW 99 : ... .. . ... ... : ... .. . ... ... : ... .. . ... ... : ... .. . ... : ... .. . ... ... : ... .. . ... ... ... ...
ROW 9A : ... .. . ... ... : ... .. . ... ... : ... .. . ... ... : ... .. . ... : ... .. . ... ... : ... .. . ... ... ... ...
ROW 9B : ... .. . ... ... : ... .. . ... ... : ... .. . ... ... : ... .. . ... : ... .. . ... ... : ... .. . ... ... ... ...
ROW 9C : ... .. . ... ... : ... .. . ... ... : ... .. . ... ... : ... .. . ... : ... .. . ... ... : ... .. . ... ... ... ...
ROW 9D : ... .. . ... ... : ... .. . ... ... : ... .. . ... ... : ... .. . ... : ... .. . ... ... : ... .. . ... ... ... ...
ROW 9E : ... .. . ... ... : ... .. . ... ... : ... .. . ... ... : ... .. . ... : ... .. . ... ... : ... .. . ... ... ... ...
ROW 9F : ... .. . ... ... : ... .. . ... ... : ... .. . ... ... : ... .. . ... : ... .. . ... ... : ... .. . ... ... ... ...
ROW A0 : ... .. . ... ... : ... .. . ... ... : ... .. . ... ... : ... .. . ... : ... .. . ... ... : ... .. . ... ... ... ...
ROW A1 : ... .. . ... ... : ... .. . ... ... : ... .. . ... ... : ... .. . ... : ... .. . ... ... : ... .. . ... ... ... ...
ROW A2 : ... .. . ... ... : ... .. . ... ... : ... .. . ... ... : ... .. . ... : ... .. . ... ... : ... .. . ... ... ... ...
ROW A3 : ... .. . ... ... : ... .. . ... ... : ... .. . ... ... : ... .. . ... : ... .. . ... ... : ... .. . ... ... ... ...
ROW A4 : ... .. . ... ... : ... .. . ... ... : ... .. . ... ... : ... .. . ... : ... .. . ... ... : ... .. . ... ... ... ...
ROW A5 : ... .. . ... ... : ... .. . ... ... : ... .. . ... ... : ... .. . ... : ... .. . ... ... : ... .. . ... ... ... ...
ROW A6 : ... .. . ... ... : ... .. . ... ... : ... .. . ... ... : ... .. . ... : ... .. . ... ... : ... .. . ... ... ... ...
ROW A7 : ... .. . ... ... : ... .. . ... ... : ... .. . ... ... : ... .. . ... : ... .. . ... ... : ... .. . ... ... ... ...
ROW A8 : ... .. . ... ... : ... .. . ... ... : ... .. . ... ... : ... .. . ... : ... .. . ... ... : ... .. . ... ... ... ...
ROW A9 : ... .. . ... ... : ... .. . ... ... : ... .. . ... ... : ... .. . ... : ... .. . ... ... : ... .. . ... ... ... ...
ROW AA : ... .. . ... ... : ... .. . ... ... : ... .. . ... ... : ... .. . ... : ... .. . ... ... : ... .. . ... ... ... ...
ROW AB : ... .. . ... ... : ... .. . ... ... : ... .. . ... ... : ... .. . ... : ... .. . ... ... : ... .. . ... ... ... ...
ROW AC : ... .. . ... ... : ... .. . ... ... : ... .. . ... ... : ... .. . ... : ... .. . ... ... : ... .. . ... ... ... ...
ROW AD : ... .. . ... ... : ... .. . ... ... : ... .. . ... ... : ... .. . ... : ... .. . ... ... : ... .. . ... ... ... ...
ROW AE : ... .. . ... ... : ... .. . ... ... : ... .. . ... ... : ... .. . ... : ... .. . ... ... : ... .. . ... ... ... ...
ROW AF : ... .. . ... ... : ... .. . ... ... : ... .. . ... ... : ... .. . ... : ... .. . ... ... : ... .. . ... ... ... ...
ROW B0 : ... .. . ... ... : ... .. . ... ... : ... .. . ... ... : ... .. . ... : ... .. . ... ... : ... .. . ... ... ... ...
ROW B1 : ... .. . ... ... : ... .. . ... ... : ... .. . ... ... : ... .. . ... : ... .. . ... ... : ... .. . ... ... ... ...
ROW B2 : ... .. . ... ... : ... .. . ... ... : ... .. . ... ... : ... .. . ... : ... .. . ... ... : ... .. . ... ... ... ...
ROW B3 : ... .. . ... ... : ... .. . ... ... : ... .. . ... ... : ... .. . ... : ... .. . ... ... : ... .. . ... ... ... ...
ROW B4 : ... .. . ... ... : ... .. . ... ... : ... .. . ... ... : ... .. . ... : ... .. . ... ... : ... .. . ... ... ... ...
ROW B5 : ... .. . ... ... : ... .. . ... ... : ... .. . ... ... : ... .. . ... : ... .. . ... ... : ... .. . ... ... ... ...
ROW B6 : ... .. . ... ... : ... .. . ... ... : ... .. . ... ... : ... .. . ... : ... .. . ... ... : ... .. . ... ... ... ...
ROW B7 : ... .. . ... ... : ... .. . ... ... : ... .. . ... ... : ... .. . ... : ... .. . ... ... : ... .. . ... ... ... ...
ROW B8 : ... .. . ... ... : ... .. . ... ... : ... .. . ... ... : ... .. . ... : ... .. . ... ... : ... .. . ... ... ... ...
ROW B9 : ... .. . ... ... : ... .. . ... ... : ... .. . ... ... : ... .. . ... : ... .. . ... ... : ... .. . ... ... ... ...
ROW BA : ... .. . ... ... : ... .. . ... ... : ... .. . ... ... : ... .. . ... : ... .. . ... ... : ... .. . ... ... ... ...
ROW BB : ... .. . ... ... : ... .. . ... ... : ... .. . ... ... : ... .. . ... : ... .. . ... ... : ... .. . ... ... ... ...
ROW BC : ... .. . ... ... : ... .. . ... ... : ... .. . ... ... : ... .. . ... : ... .. . ... ... : ... .. . ... ... ... ...
ROW BD : ... .. . ... ... : ... .. . ... ... : ... .. . ... ... : ... .. . ... : ... .. . ... ... : ... .. . ... ... ... ...
ROW BE : ... .. . ... ... : ... .. . ... ... : ... .. . ... ... : ... .. . ... : ... .. . ... ... : ... .. . ... ... ... ...
ROW BF : ... .. . ... ... : ... .. . ... ... : ... .. . ... ... : ... .. . ... : ... .. . ... ... : ... .. . ... ... ... ...
ROW C0 : ... .. . ... ... : ... .. . ... ... : ... .. . ... ... : ... .. . ... : ... .. . ... ... : ... .. . ... ... ... ...
ROW C1 : ... .. . ... ... : ... .. . ... ... : ... .. . ... ... : ... .. . ... : ... .. . ... ... : ... .. . ... ... ... ...
ROW C2 : ... .. . ... ... : ... .. . ... ... : ... .. . ... ... : ... .. . ... : ... .. . ... ... : ... .. . ... ... ... ...
ROW C3 : ... .. . ... ... : ... .. . ... ... : ... .. . ... ... : ... .. . ... : ... .. . ... ... : ... .. . ... ... ... ...
ROW C4 : ... .. . ... ... : ... .. . ... ... : ... .. . ... ... : ... .. . ... : ... .. . ... ... : ... .. . ... ... ... ...
ROW C5 : ... .. . ... ... : ... .. . ... ... : ... .. . ... ... : ... .. . ... : ... .. . ... ... : ... .. . ... ... ... ...
ROW C6 : ... .. . ... ... : ... .. . ... ... : ... .. . ... ... : ... .. . ... : ... .. . ... ... : ... .. . ... ... ... ...
ROW C7 : ... .. . ... ... : ... .. . ... ... : ... .. . ... ... : ... .. . ... : ... .. . ... ... : ... .. . ... ... ... ...
ROW C8 : ... .. . ... ... : ... .. . ... ... : ... .. . ... ... : ... .. . ... : ... .. . ... ... : ... .. . ... ... ... ...
ROW C9 : ... .. . ... ... : ... .. . ... ... : ... .. . ... ... : ... .. . ... : ... .. . ... ... : ... .. . ... ... ... ...
ROW CA : ... .. . ... ... : ... .. . ... ... : ... .. . ... ... : ... .. . ... : ... .. . ... ... : ... .. . ... ... ... ...
ROW CB : ... .. . ... ... : ... .. . ... ... : ... .. . ... ... : ... .. . ... : ... .. . ... ... : ... .. . ... ... ... ...
ROW CC : ... .. . ... ... : ... .. . ... ... : ... .. . ... ... : ... .. . ... : ... .. . ... ... : ... .. . ... ... ... ...
ROW CD : ... .. . ... ... : ... .. . ... ... : ... .. . ... ... : ... .. . ... : ... .. . ... ... : ... .. . ... ... ... ...
ROW CE : ... .. . ... ... : ... .. . ... ... : ... .. . ... ... : ... .. . ... : ... .. . ... ... : ... .. . ... ... ... ...
ROW CF : ... .. . ... ... : ... .. . ... ... : ... .. . ... ... : ... .. . ... : ... .. . ... ... : ... .. . ... ... ... ...
ROW D0 : ... .. . ... ... : ... .. . ... ... : ... .. . ... ... : ... .. . ... : ... .. . ... ... : ... .. . ... ... ... ...
ROW D1 : ... .. . ... ... : ... .. . ... ... : ... .. . ... ... : ... .. . ... : ... .. . ... ... : ... .. . ... ... ... ...
ROW D2 : ... .. . ... ... : ... .. . ... ... : ... .. . ... ... : ... .. . ... : ... .. . ... ... : ... .. . ... ... ... ...
ROW D3 : ... .. . ... ... : ... .. . ... ... : ... .. . ... ... : ... .. . ... : ... .. . ... ... : ... .. . ... ... ... ...
ROW D4 : ... .. . ... ... : ... .. . ... ... : ... .. . ... ... : ... .. . ... : ... .. . ... ... : ... .. . ... ... ... ...
ROW D5 : ... .. . ... ... : ... .. . ... ... : ... .. . ... ... : ... .. . ... : ... .. . ... ... : ... .. . ... ... ... ...
ROW D6 : ... .. . ... ... : ... .. . ... ... : ... .. . ... ... : ... .. . ... : ... .. . ... ... : ... .. . ... ... ... ...
ROW D7 : ... .. . ... ... : ... .. . ... ... : ... .. . ... ... : ... .. . ... : ... .. . ... ... : ... .. . ... ... ... ...
ROW D8 : ... .. . ... ... : ... .. . ... ... : ... .. . ... ... : ... .. . ... : ... .. . ... ... : ... .. . ... ... ... ...
ROW D9 : ... .. . ... ... : ... .. . ... ... : ... .. . ... ... : ... .. . ... : ... .. . ... ... : ... .. . ... ... ... ...
ROW DA : ... .. . ... ... : ... .. . ... ... : ... .. . ... ... : ... .. . ... : ... .. . ... ... : ... .. . ... ... ... ...
ROW DB : ... .. . ... ... : ... .. . ... ... : ... .. . ... ... : ... .. . ... : ... .. . ... ... : ... .. . ... ... ... ...
ROW DC : ... .. . ... ... : ... .. . ... ... : ... .. . ... ... : ... .. . ... : ... .. . ... ... : ... .. . ... ... ... ...
ROW DD : ... .. . ... ... : ... .. . ... ... : ... .. . ... ... : ... .. . ... : ... .. . ... ... : ... .. . ... ... ... ...
ROW DE : ... .. . ... ... : ... .. . ... ... : ... .. . ... ... : ... .. . ... : ... .. . ... ... : ... .. . ... ... ... ...
ROW DF : ... .. . ... ... : ... .. . ... ... : ... .. . ... ... : ... .. . ... : ... .. . ... ... : ... .. . ... ... ... ...
ROW E0 : ... .. . ... ... : ... .. . ... ... : ... .. . ... ... : ... .. . ... : ... .. . ... ... : ... .. . ... ... ... ...
ROW E1 : ... .. . ... ... : ... .. . ... ... : ... .. . ... ... : ... .. . ... : ... .. . ... ... : ... .. . ... ... ... ...
ROW E2 : ... .. . ... ... : ... .. . ... ... : ... .. . ... ... : ... .. . ... : ... .. . ... ... : ... .. . ... ... ... ...
ROW E3 : ... .. . ... ... : ... .. . ... ... : ... .. . ... ... : ... .. . ... : ... .. . ... ... : ... .. . ... ... ... ...
ROW E4 : ... .. . ... ... : ... .. . ... ... : ... .. . ... ... : ... .. . ... : ... .. . ... ... : ... .. . ... ... ... ...
ROW E5 : ... .. . ... ... : ... .. . ... ... : ... .. . ... ... : ... .. . ... : ... .. . ... ... : ... .. . ... ... ... ...
ROW E6 : ... .. . ... ... : ... .. . ... ... : ... .. . ... ... : ... .. . ... : ... .. . ... ... : ... .. . ... ... ... ...
ROW E7 : ... .. . ... ... : ... .. . ... ... : ... .. . ... ... : ... .. . ... : ... .. . ... ... : ... .. . ... ... ... ...
ROW E8 : ... .. . ... ... : ... .. . ... ... : ... .. . ... ... : ... .. . ... : ... .. . ... ... : ... .. . ... ... ... ...
ROW E9 : ... .. . ... ... : ... .. . ... ... : ... .. . ... ... : ... .. . ... : ... .. . ... ... : ... .. . ... ... ... ...
ROW EA : ... .. . ... ... : ... .. . ... ... : ... .. . ... ... : ... .. . ... : ... .. . ... ... : ... .. . ... ... ... ...
ROW EB : ... .. . ... ... : ... .. . ... ... : ... .. . ... ... : ... .. . ... : ... .. . ... ... : ... .. . ... ... ... ...
ROW EC : ... .. . ... ... : ... .. . ... ... : ... .. . ... ... : ... .. . ... : ... .. . ... ... : ... .. . ... ... ... ...
ROW ED : ... .. . ... ... : ... .. . ... ... : ... .. . ... ... : ... .. . ... : ... .. . ... ... : ... .. . ... ... ... ...
ROW EE : ... .. . ... ... : ... .. . ... ... : ... .. . ... ... : ... .. . ... : ... .. . ... ... : ... .. . ... ... ... ...
ROW EF : ... .. . ... ... : ... .. . ... ... : ... .. . ... ... : ... .. . ... : ... .. . ... ... : ... .. . ... ... ... ...
ROW F0 : ... .. . ... ... : ... .. . ... ... : ... .. . ... ... : ... .. . ... : ... .. . ... ... : ... .. . ... ... ... ...
ROW F1 : ... .. . ... ... : ... .. . ... ... : ... .. . ... ... : ... .. . ... : ... .. . ... ... : ... .. . ... ... ... ...
ROW F2 : ... .. . ... ... : ... .. . ... ... : ... .. . ... ... : ... .. . ... : ... .. . ... ... : ... .. . ... ... ... ...
ROW F3 : ... .. . ... ... : ... .. . ... ... : ... .. . ... ... : ... .. . ... : ... .. . ... ... : ... .. . ... ... ... ...
ROW F4 : ... .. . ... ... : ... .. . ... ... : ... .. . ... ... : ... .. . ... : ... .. . ... ... : ... .. . ... ... ... ...
ROW F5 : ... .. . ... ... : ... .. . ... ... : ... .. . ... ... : ... .. . ... : ... .. . ... ... : ... .. . ... ... ... ...
ROW F6 : ... .. . ... ... : ... .. . ... ... : ... .. . ... ... : ... .. . ... : ... .. . ... ... : ... .. . ... ... ... ...
ROW F7 : ... .. . ... ... : ... .. . ... ... : ... .. . ... ... : ... .. . ... : ... .. . ... ... : ... .. . ... ... ... ...
ROW F8 : ... .. . ... ... : ... .. . ... ... : ... .. . ... ... : ... .. . ... : ... .. . ... ... : ... .. . ... ... ... ...
ROW F9 : ... .. . ... ... : ... .. . ... ... : ... .. . ... ... : ... .. . ... : ... .. . ... ... : ... .. . ... ... ... ...
ROW FA : ... .. . ... ... : ... .. . ... ... : ... .. . ... ... : ... .. . ... : ... .. . ... ... : ... .. . ... ... ... ...
ROW FB : ... .. . ... ... : ... .. . ... ... : ... .. . ... ... : ... .. . ... : ... .. . ... ... : ... .. . ... ... ... ...
ROW FC : ... .. . ... ... : ... .. . ... ... : ... .. . ... ... : ... .. . ... : ... .. . ... ... : ... .. . ... ... ... ...
ROW FD : ... .. . ... ... : ... .. . ... ... : ... .. . ... ... : ... .. . ... : ... .. . ... ... : ... .. . ... ... ... ...
ROW FE : ... .. . ... ... : ... .. . ... ... : ... .. . ... ... : ... .. . ... : ... .. . ... ... : ... .. . ... ... ... ...
ROW FF : ... .. . ... ... : ... .. . ... ... : ... .. . ... ... : ... .. . ... : ... .. . ... ... : ... .. . ... ... ... ...

PATTERN 03
ROW 00 : C-4 03 A V02 ... : C-4 07 8 ... ... : C-3 11 . 200 ... : D-# 05 7 ... : C-4 1E . F05 ... : B-4 0A A 400 Q31 ... ...
ROW 01 : ... .. 4 ... ... : ... .. 5 ... ... : ... .. . S02 ... : ... .. . ... : ... .. . ... ... : ... .. . ... ... ... ...
ROW 02 : A-3 03 A ... ... : ... .. 8 ... ... : C-3 11 . ... ... : D-# 05 . ... : ... .. . ... ... : ... .. . ... ... ... ...
ROW 03 : C-4 03 4 ... ... : ... .. 5 ... ... : ... .. . S02 ... : ... .. . ... : ... .. . ... ... : ... .. . ... ... ... ...
ROW 04 : F-3 03 A ... ... : ... .. 8 ... ... : C-5 03 . 236 ... : 6-# 08 A ... : C-4 1E . ... ... : ... .. . ... ... ... ...
ROW 05 : A-3 03 4 ... ... : ... .. 5 ... ... : ... .. . ... ... : ... .. . ... : ... .. . ... ... : ... .. . ... ... ... ...
ROW 06 : C-3 03 A ... ... : ... .. 8 ... ... : C-3 11 . 200 ... : D-# 05 6 ... : ... .. . ... ... : ... .. . 465 ... ... ...
ROW 07 : F-3 03 4 ... ... : ... .. 5 ... ... : ... .. . S02 ... : ... .. . ... : ... .. . ... ... : ... .. . ... ... ... ...
ROW 08 : C-4 03 A V01 ... : ... .. 8 ... ... : C-3 11 . ... ... : D-# 05 . ... : C-4 1E . ... ... : ... .. . ... ... ... ...
ROW 09 : C-3 03 4 ... ... : ... .. 5 ... ... : ... .. . S02 ... : ... .. . ... : ... .. . ... ... : ... .. . ... ... ... ...
ROW 0A : A-3 03 A ... ... : ... .. 8 ... ... : C-3 11 . ... ... : D-# 05 . ... : ... .. . ... ... : ... .. . ... ... ... ...
ROW 0B : C-4 03 4 ... ... : ... .. 5 ... ... : ... .. . S02 ... : ... .. . ... : ... .. . ... ... : ... .. . ... ... ... ...
ROW 0C : F-3 03 A ... ... : ... .. 8 ... ... : C-5 03 . 236 ... : 6-# 08 A ... : C-4 1E . ... ... : ... .. 8 ... ... ... ...
ROW 0D : A-3 03 4 ... ... : ... .. 5 ... ... : ... .. . ... ... : ... .. . ... : ... .. . ... ... : ... .. 6 ... ... ... ...
ROW 0E : C-3 03 A ... ... : ... .. 8 ... ... : C-3 11 . 200 ... : D-# 05 7 ... : ... .. . ... ... : ... .. 4 ... ... ... ...
ROW 0F : F-3 03 4 ... ... : ... .. 5 ... ... : ... .. . S02 ... : ... .. . ... : ... .. . ... ... : ... .. 2 ... ... ... ...
ROW 10 : C-4 03 A V00 ... : ... .. 8 ... ... : C-3 11 . 200 ... : D-# 05 . ... : C-4 1E . ... ... : A-4 0A A 400 ... ... ...
ROW 11 : C-3 03 4 ... ... : ... .. 5 ... ... : ... .. . S02 ... : ... .. . ... : ... .. . ... ... : ... .. 8 ... ... ... ...
ROW 12 : A-3 03 A ... ... : ... .. 8 ... ... : C-3 11 . ... ... : D-# 05 . ... : ... .. . ... ... : C-5 0A A ... ... ... ...
ROW 13 : C-4 03 4 ... ... : ... .. 5 ... ... : ... .. . S02 ... : ... .. . ... : ... .. . ... ... : ... .. 8 ... ... ... ...
ROW 14 : F-3 03 A ... ... : ... .. 8 ... ... : C-5 03 . 236 ... : 6-# 08 A ... : C-4 1E . ... ... : A-4 0A 6 ... ... ... ...
ROW 15 : A-3 03 4 ... ... : ... .. 5 ... ... : ... .. . ... ... : ... .. . ... : ... .. . ... ... : ... .. 4 ... ... ... ...
ROW 16 : C-3 03 A ... ... : ... .. 8 ... ... : C-3 11 . 200 ... : D-# 05 7 ... : ... .. . ... ... : F-5 0A A ... ... ... ...
ROW 17 : F-3 03 4 ... ... : ... .. 5 ... ... : ... .. . S02 ... : ... .. . ... : ... .. . ... ... : ... .. . ... ... ... ...
ROW 18 : C-4 03 A V01 ... : ... .. 8 ... ... : C-3 11 . ... ... : D-# 05 . ... : C-4 1E . ... ... : ... .. . 468 ... ... ...
ROW 19 : C-3 03 4 ... ... : ... .. 5 ... ... : ... .. . S02 ... : ... .. . ... : ... .. . ... ... : ... .. 8 ... ... ... ...
ROW 1A : A-3 03 A ... ... : ... .. 8 ... ... : C-3 11 . ... ... : D-# 05 . ... : ... .. . ... ... : D#5 0A A 400 ... ... ...
ROW 1B : C-4 03 4 ... ... : ... .. 5 ... ... : ... .. . S02 ... : ... .. . ... : ... .. . ... ... : ... .. 9 ... ... ... ...
ROW 1C : F-3 03 A ... ... : ... .. 8 ... ... : C-5 03 . 236 ... : 6-# 08 A ... : C-4 1E . ... ... : C-5 0A A ... ... ... ...
ROW 1D : A-3 03 4 ... ... : ... .. 5 ... ... : ... .. . ... ... : ... .. . ... : ... .. . ... ... : ... .. . ... ... ... ...
ROW 1E : C-3 03 A ... ... : ... .. 8 ... ... : C-3 11 . 200 ... : D-# 05 7 ... : ... .. . ... ... : ... .. . ... ... ... ...
ROW 1F : F-3 03 4 ... ... : ... .. 5 ... ... : ... .. . S02 ... : ... .. . ... : ... .. . ... ... : ... .. . ... ... ... ...
ROW 20 : C-4 03 A V02 ... : ... .. 8 ... ... : C-3 11 . 200 ... : D-# 05 . ... : C-4 1E . ... ... : ... .. . ... ... ... ...
ROW 21 : C-3 03 4 ... ... : ... .. 5 ... ... : ... .. . S02 ... : ... .. . ... : ... .. . ... ... : ... .. . ... ... ... ...
ROW 22 : A-3 03 A ... ... : ... .. 8 ... ... : C-3 11 . ... ... : D-# 05 . ... : ... .. . ... ... : ... .. . 468 ... ... ...
ROW 23 : C-4 03 4 ... ... : ... .. 5 ... ... : ... .. . S02 ... : ... .. . ... : ... .. . ... ... : ... .. . ... ... ... ...
ROW 24 : F-3 03 A ... ... : ... .. 8 ... ... : C-5 03 . 236 ... : 6-# 08 A ... : C-4 1E . ... ... : ... .. . ... ... ... ...
ROW 25 : A-3 03 4 ... ... : ... .. 5 ... ... : ... .. . ... ... : ... .. . ... : ... .. . ... ... : ... .. . ... ... ... ...
ROW 26 : C-3 03 A ... ... : ... .. 8 ... ... : C-3 11 . 200 ... : D-# 05 7 ... : ... .. . ... ... : ... .. . ... ... ... ...
ROW 27 : F-3 03 4 ... ... : ... .. 5 ... ... : ... .. . S02 ... : ... .. . ... : ... .. . ... ... : ... .. . ... ... ... ...
ROW 28 : C-4 03 A V01 ... : ... .. 8 ... ... : C-3 11 . ... ... : D-# 05 . ... : C-4 1E . ... ... : ... .. . ... ... ... ...
ROW 29 : C-3 03 4 ... ... : ... .. 5 ... ... : ... .. . S02 ... : ... .. . ... : ... .. . ... ... : ... .. . ... ... ... ...
ROW 2A : A-3 03 A ... ... : ... .. 8 ... ... : C-3 11 . ... ... : D-# 05 . ... : ... .. . ... ... : ... .. . ... ... ... ...
ROW 2B : C-4 03 4 ... ... : ... .. 5 ... ... : ... .. . S02 ... : ... .. . ... : ... .. . ... ... : ... .. . ... ... ... ...
ROW 2C : F-3 03 A ... ... : ... .. 8 ... ... : C-5 03 . 236 ... : 6-# 08 A ... : C-4 1E . ... ... : ... .. 8 ... ... ... ...
ROW 2D : A-3 03 4 ... ... : ... .. 5 ... ... : ... .. . ... ... : ... .. . ... : ... .. . ... ... : ... .. 6 ... ... ... ...
ROW 2E : C-3 03 A ... ... : ... .. 8 ... ... : C-3 11 . 200 ... : D-# 05 7 ... : ... .. . ... ... : ... .. 4 ... ... ... ...
ROW 2F : F-3 03 4 ... ... : ... .. 5 ... ... : ... .. . S02 ... : ... .. . ... : ... .. . ... ... : ... .. 2 ... ... ... ...
ROW 30 : G#3 03 A V00 ... : G#3 07 8 ... ... : G#2 11 . 200 ... : D-# 05 . ... : G#3 20 . ... ... : ... .. . ... ... ... ...
ROW 31 : C-3 03 4 ... ... : ... .. 5 ... ... : ... .. . S02 ... : ... .. . ... : ... .. . ... ... : ... .. . ... ... ... ...
ROW 32 : G#3 03 A ... ... : ... .. 8 ... ... : G#2 11 . ... ... : D-# 05 . ... : ... .. . ... ... : ... .. . ... ... ... ...
ROW 33 : C-4 03 4 ... ... : ... .. 5 ... ... : ... .. . S02 ... : ... .. . ... : ... .. . ... ... : ... .. . ... ... ... ...
ROW 34 : F-3 03 A ... ... : ... .. 8 ... ... : G#4 03 . 236 ... : 6-# 08 A ... : G#3 20 . ... ... : ... .. . ... ... ... ...
ROW 35 : A-3 03 4 ... ... : ... .. 5 ... ... : ... .. . ... ... : ... .. . ... : ... .. . ... ... : ... .. . ... ... ... ...
ROW 36 : C#3 03 A ... ... : ... .. 8 ... ... : G#2 11 . 200 ... : D-# 05 7 ... : ... .. . ... ... : ... .. . ... ... ... ...
ROW 37 : F-3 03 4 ... ... : ... .. 5 ... ... : ... .. . S02 ... : ... .. . ... : ... .. . ... ... : ... .. . ... ... ... ...
ROW 38 : A#3 03 A V01 ... : A#3 07 8 ... ... : A#2 11 . ... ... : D-# 05 . ... : A#3 20 . ... ... : ... .. . ... ... ... ...
ROW 39 : G#2 03 4 ... ... : ... .. 5 ... ... : ... .. . S02 ... : ... .. . ... : ... .. . ... ... : ... .. . ... ... ... ...
ROW 3A : A#3 03 A ... ... : ... .. 8 ... ... : A#2 11 . ... ... : D-# 05 . ... : ... .. . ... ... : ... .. . ... ... ... ...
ROW 3B : C-4 03 4 ... ... : ... .. 5 ... ... : ... .. . S02 ... : ... .. . ... : ... .. . ... ... : ... .. . ... ... ... ...
ROW 3C : G-3 03 A ... ... : ... .. 8 ... ... : A#4 03 . 236 ... : 6-# 08 A ... : A#3 20 . ... ... : ... .. . ... ... ... ...
ROW 3D : A-3 03 4 ... ... : ... .. 5 ... ... : ... .. . ... ... : ... .. . ... : ... .. . ... ... : ... .. . ... ... ... ...
ROW 3E : D#3 03 A ... ... : ... .. 8 ... ... : A#2 11 . 200 ... : D-# 05 7 ... : ... .. . ... ... : ... .. . ... ... ... ...
ROW 3F : F-3 03 4 ... ... : ... .. 5 ... ... : ... .. . S02 ... : ... .. . ... : ... .. . D00 ... : ... .. . ... ... ... ...
ROW 40 : ... .. . ... ... : ... .. . ... ... : ... .. . ... ... : ... .. . ... : ... .. . ... ... : ... .. . ... ... ... ...
ROW 41 : ... .. . ... ... : ... .. . ... ... : ... .. . ... ... : ... .. . ... : ... .. . ... ... : ... .. . ... ... ... ...
ROW 42 : ... .. . ... ... : ... .. . ... ... : ... .. . ... ... : ... .. . ... : ... .. . ... ... : ... .. . ... ... ... ...
ROW 43 : ... .. . ... ... : ... .. . ... ... : ... .. . ... ... : ... .. . ... : ... .. . ... ... : ... .. . ... ... ... ...
ROW 44 : ... .. . ... ... : ... .. . ... ... : ... .. . ... ... : ... .. . ... : ... .. . ... ... : ... .. . ... ... ... ...
ROW 45 : ... .. . ... ... : ... .. . ... ... : ... .. . ... ... : ... .. . ... : ... .. . ... ... : ... .. . ... ... ... ...
ROW 46 : ... .. . ... ... : ... .. . ... ... : ... .. . ... ... : ... .. . ... : ... .. . ... ... : ... .. . ... ... ... ...
ROW 47 : ... .. . ... ... : ... .. . ... ... : ... .. . ... ... : ... .. . ... : ... .. . ... ... : ... .. . ... ... ... ...
ROW 48 : ... .. . ... ... : ... .. . ... ... : ... .. . ... ... : ... .. . ... : ... .. . ... ... : ... .. . ... ... ... ...
ROW 49 : ... .. . ... ... : ... .. . ... ... : ... .. . ... ... : ... .. . ... : ... .. . ... ... : ... .. . ... ... ... ...
ROW 4A : ... .. . ... ... : ... .. . ... ... : ... .. . ... ... : ... .. . ... : ... .. . ... ... : ... .. . ... ... ... ...
ROW 4B : ... .. . ... ... : ... .. . ... ... : ... .. . ... ... : ... .. . ... : ... .. . ... ... : ... .. . ... ... ... ...
ROW 4C : ... .. . ... ... : ... .. . ... ... : ... .. . ... ... : ... .. . ... : ... .. . ... ... : ... .. . ... ... ... ...
ROW 4D : ... .. . ... ... : ... .. . ... ... : ... .. . ... ... : ... .. . ... : ... .. . ... ... : ... .. . ... ... ... ...
ROW 4E : ... .. . ... ... : ... .. . ... ... : ... .. . ... ... : ... .. . ... : ... .. . ... ... : ... .. . ... ... ... ...
ROW 4F : ... .. . ... ... : ... .. . ... ... : ... .. . ... ... : ... .. . ... : ... .. . ... ... : ... .. . ... ... ... ...
ROW 50 : ... .. . ... ... : ... .. . ... ... : ... .. . ... ... : ... .. . ... : ... .. . ... ... : ... .. . ... ... ... ...
ROW 51 : ... .. . ... ... : ... .. . ... ... : ... .. . ... ... : ... .. . ... : ... .. . ... ... : ... .. . ... ... ... ...
ROW 52 : ... .. . ... ... : ... .. . ... ... : ... .. . ... ... : ... .. . ... : ... .. . ... ... : ... .. . ... ... ... ...
ROW 53 : ... .. . ... ... : ... .. . ... ... : ... .. . ... ... : ... .. . ... : ... .. . ... ... : ... .. . ... ... ... ...
ROW 54 : ... .. . ... ... : ... .. . ... ... : ... .. . ... ... : ... .. . ... : ... .. . ... ... : ... .. . ... ... ... ...
ROW 55 : ... .. . ... ... : ... .. . ... ... : ... .. . ... ... : ... .. . ... : ... .. . ... ... : ... .. . ... ... ... ...
ROW 56 : ... .. . ... ... : ... .. . ... ... : ... .. . ... ... : ... .. . ... : ... .. . ... ... : ... .. . ... ... ... ...
ROW 57 : ... .. . ... ... : ... .. . ... ... : ... .. . ... ... : ... .. . ... : ... .. . ... ... : ... .. . ... ... ... ...
ROW 58 : ... .. . ... ... : ... .. . ... ... : ... .. . ... ... : ... .. . ... : ... .. . ... ... : ... .. . ... ... ... ...
ROW 59 : ... .. . ... ... : ... .. . ... ... : ... .. . ... ... : ... .. . ... : ... .. . ... ... : ... .. . ... ... ... ...
ROW 5A : ... .. . ... ... : ... .. . ... ... : ... .. . ... ... : ... .. . ... : ... .. . ... ... : ... .. . ... ... ... ...
ROW 5B : ... .. . ... ... : ... .. . ... ... : ... .. . ... ... : ... .. . ... : ... .. . ... ... : ... .. . ... ... ... ...
ROW 5C : ... .. . ... ... : ... .. . ... ... : ... .. . ... ... : ... .. . ... : ... .. . ... ... : ... .. . ... ... ... ...
ROW 5D : ... .. . ... ... : ... .. . ... ... : ... .. . ... ... : ... .. . ... : ... .. . ... ... : ... .. . ... ... ... ...
ROW 5E : ... .. . ... ... : ... .. . ... ... : ... .. . ... ... : ... .. . ... : ... .. . ... ... : ... .. . ... ... ... ...
ROW 5F : ... .. . ... ... : ... .. . ... ... : ... .. . ... ... : ... .. . ... : ... .. . ... ... : ... .. . ... ... ... ...
ROW 60 : ... .. . ... ... : ... .. . ... ... : ... .. . ... ... : ... .. . ... : ... .. . ... ... : ... .. . ... ... ... ...
ROW 61 : ... .. . ... ... : ... .. . ... ... : ... .. . ... ... : ... .. . ... : ... .. . ... ... : ... .. . ... ... ... ...
ROW 62 : ... .. . ... ... : ... .. . ... ... : ... .. . ... ... : ... .. . ... : ... .. . ... ... : ... .. . ... ... ... ...
ROW 63 : ... .. . ... ... : ... .. . ... ... : ... .. . ... ... : ... .. . ... : ... .. . ... ... : ... .. . ... ... ... ...
ROW 64 : ... .. . ... ... : ... .. . ... ... : ... .. . ... ... : ... .. . ... : ... .. . ... ... : ... .. . ... ... ... ...
ROW 65 : ... .. . ... ... : ... .. . ... ... : ... .. . ... ... : ... .. . ... : ... .. . ... ... : ... .. . ... ... ... ...
ROW 66 : ... .. . ... ... : ... .. . ... ... : ... .. . ... ... : ... .. . ... : ... .. . ... ... : ... .. . ... ... ... ...
ROW 67 : ... .. . ... ... : ... .. . ... ... : ... .. . ... ... : ... .. . ... : ... .. . ... ... : ... .. . ... ... ... ...
ROW 68 : ... .. . ... ... : ... .. . ... ... : ... .. . ... ... : ... .. . ... : ... .. . ... ... : ... .. . ... ... ... ...
ROW 69 : ... .. . ... ... : ... .. . ... ... : ... .. . ... ... : ... .. . ... : ... .. . ... ... : ... .. . ... ... ... ...
ROW 6A : ... .. . ... ... : ... .. . ... ... : ... .. . ... ... : ... .. . ... : ... .. . ... ... : ... .. . ... ... ... ...
ROW 6B : ... .. . ... ... : ... .. . ... ... : ... .. . ... ... : ... .. . ... : ... .. . ... ... : ... .. . ... ... ... ...
ROW 6C : ... .. . ... ... : ... .. . ... ... : ... .. . ... ... : ... .. . ... : ... .. . ... ... : ... .. . ... ... ... ...
ROW 6D : ... .. . ... ... : ... .. . ... ... : ... .. . ... ... : ... .. . ... : ... .. . ... ... : ... .. . ... ... ... ...
ROW 6E : ... .. . ... ... : ... .. . ... ... : ... .. . ... ... : ... .. . ... : ... .. . ... ... : ... .. . ... ... ... ...
ROW 6F : ... .. . ... ... : ... .. . ... ... : ... .. . ... ... : ... .. . ... : ... .. . ... ... : ... .. . ... ... ... ...
ROW 70 : ... .. . ... ... : ... .. . ... ... : ... .. . ... ... : ... .. . ... : ... .. . ... ... : ... .. . ... ... ... ...
ROW 71 : ... .. . ... ... : ... .. . ... ... : ... .. . ... ... : ... .. . ... : ... .. . ... ... : ... .. . ... ... ... ...
ROW 72 : ... .. . ... ... : ... .. . ... ... : ... .. . ... ... : ... .. . ... : ... .. . ... ... : ... .. . ... ... ... ...
ROW 73 : ... .. . ... ... : ... .. . ... ... : ... .. . ... ... : ... .. . ... : ... .. . ... ... : ... .. . ... ... ... ...
ROW 74 : ... .. . ... ... : ... .. . ... ... : ... .. . ... ... : ... .. . ... : ... .. . ... ... : ... .. . ... ... ... ...
ROW 75 : ... .. . ... ... : ... .. . ... ... : ... .. . ... ... : ... .. . ... : ... .. . ... ... : ... .. . ... ... ... ...
ROW 76 : ... .. . ... ... : ... .. . ... ... : ... .. . ... ... : ... .. . ... : ... .. . ... ... : ... .. . ... ... ... ...
ROW 77 : ... .. . ... ... : ... .. . ... ... : ... .. . ... ... : ... .. . ... : ... .. . ... ... : ... .. . ... ... ... ...
ROW 78 : ... .. . ... ... : ... .. . ... ... : ... .. . ... ... : ... .. . ... : ... .. . ... ... : ... .. . ... ... ... ...
ROW 79 : ... .. . ... ... : ... .. . ... ... : ... .. . ... ... : ... .. . ... : ... .. . ... ... : ... .. . ... ... ... ...
ROW 7A : ... .. . ... ... : ... .. . ... ... : ... .. . ... ... : ... .. . ... : ... .. . ... ... : ... .. . ... ... ... ...
ROW 7B : ... .. . ... ... : ... .. . ... ... : ... .. . ... ... : ... .. . ... : ... .. . ... ... : ... .. . ... ... ... ...
ROW 7C : ... .. . ... ... : ... .. . ... ... : ... .. . ... ... : ... .. . ... : ... .. . ... ... : ... .. . ... ... ... ...
ROW 7D : ... .. . ... ... : ... .. . ... ... : ... .. . ... ... : ... .. . ... : ... .. . ... ... : ... .. . ... ... ... ...
ROW 7E : ... .. . ... ... : ... .. . ... ... : ... .. . ... ... : ... .. . ... : ... .. . ... ... : ... .. . ... ... ... ...
ROW 7F : ... .. . ... ... : ... .. . ... ... : ... .. . ... ... : ... .. . ... : ... .. . ... ... : ... .. . ... ... ... ...
ROW 80 : ... .. . ... ... : ... .. . ... ... : ... .. . ... ... : ... .. . ... : ... .. . ... ... : ... .. . ... ... ... ...
ROW 81 : ... .. . ... ... : ... .. . ... ... : ... .. . ... ... : ... .. . ... : ... .. . ... ... : ... .. . ... ... ... ...
ROW 82 : ... .. . ... ... : ... .. . ... ... : ... .. . ... ... : ... .. . ... : ... .. . ... ... : ... .. . ... ... ... ...
ROW 83 : ... .. . ... ... : ... .. . ... ... : ... .. . ... ... : ... .. . ... : ... .. . ... ... : ... .. . ... ... ... ...
ROW 84 : ... .. . ... ... : ... .. . ... ... : ... .. . ... ... : ... .. . ... : ... .. . ... ... : ... .. . ... ... ... ...
ROW 85 : ... .. . ... ... : ... .. . ... ... : ... .. . ... ... : ... .. . ... : ... .. . ... ... : ... .. . ... ... ... ...
ROW 86 : ... .. . ... ... : ... .. . ... ... : ... .. . ... ... : ... .. . ... : ... .. . ... ... : ... .. . ... ... ... ...
ROW 87 : ... .. . ... ... : ... .. . ... ... : ... .. . ... ... : ... .. . ... : ... .. . ... ... : ... .. . ... ... ... ...
ROW 88 : ... .. . ... ... : ... .. . ... ... : ... .. . ... ... : ... .. . ... : ... .. . ... ... : ... .. . ... ... ... ...
ROW 89 : ... .. . ... ... : ... .. . ... ... : ... .. . ... ... : ... .. . ... : ... .. . ... ... : ... .. . ... ... ... ...
ROW 8A : ... .. . ... ... : ... .. . ... ... : ... .. . ... ... : ... .. . ... : ... .. . ... ... : ... .. . ... ... ... ...
ROW 8B : ... .. . ... ... : ... .. . ... ... : ... .. . ... ... : ... .. . ... : ... .. . ... ... : ... .. . ... ... ... ...
ROW 8C : ... .. . ... ... : ... .. . ... ... : ... .. . ... ... : ... .. . ... : ... .. . ... ... : ... .. . ... ... ... ...
ROW 8D : ... .. . ... ... : ... .. . ... ... : ... .. . ... ... : ... .. . ... : ... .. . ... ... : ... .. . ... ... ... ...
ROW 8E : ... .. . ... ... : ... .. . ... ... : ... .. . ... ... : ... .. . ... : ... .. . ... ... : ... .. . ... ... ... ...
ROW 8F : ... .. . ... ... : ... .. . ... ... : ... .. . ... ... : ... .. . ... : ... .. . ... ... : ... .. . ... ... ... ...
ROW 90 : ... .. . ... ... : ... .. . ... ... : ... .. . ... ... : ... .. . ... : ... .. . ... ... : ... .. . ... ... ... ...
ROW 91 : ... .. . ... ... : ... .. . ... ... : ... .. . ... ... : ... .. . ... : ... .. . ... ... : ... .. . ... ... ... ...
ROW 92 : ... .. . ... ... : ... .. . ... ... : ... .. . ... ... : ... .. . ... : ... .. . ... ... : ... .. . ... ... ... ...
ROW 93 : ... .. . ... ... : ... .. . ... ... : ... .. . ... ... : ... .. . ... : ... .. . ... ... : ... .. . ... ... ... ...
ROW 94 : ... .. . ... ... : ... .. . ... ... : ... .. . ... ... : ... .. . ... : ... .. . ... ... : ... .. . ... ... ... ...
ROW 95 : ... .. . ... ... : ... .. . ... ... : ... .. . ... ... : ... .. . ... : ... .. . ... ... : ... .. . ... ... ... ...
ROW 96 : ... .. . ... ... : ... .. . ... ... : ... .. . ... ... : ... .. . ... : ... .. . ... ... : ... .. . ... ... ... ...
ROW 97 : ... .. . ... ... : ... .. . ... ... : ... .. . ... ... : ... .. . ... : ... .. . ... ... : ... .. . ... ... ... ...
ROW 98 : ... .. . ... ... : ... .. . ... ... : ... .. . ... ... : ... .. . ... : ... .. . ... ... : ... .. . ... ... ... ...
ROW 99 : ... .. . ... ... : ... .. . ... ... : ... .. . ... ... : ... .. . ... : ... .. . ... ... : ... .. . ... ... ... ...
ROW 9A : ... .. . ... ... : ... .. . ... ... : ... .. . ... ... : ... .. . ... : ... .. . ... ... : ... .. . ... ... ... ...
ROW 9B : ... .. . ... ... : ... .. . ... ... : ... .. . ... ... : ... .. . ... : ... .. . ... ... : ... .. . ... ... ... ...
ROW 9C : ... .. . ... ... : ... .. . ... ... : ... .. . ... ... : ... .. . ... : ... .. . ... ... : ... .. . ... ... ... ...
ROW 9D : ... .. . ... ... : ... .. . ... ... : ... .. . ... ... : ... .. . ... : ... .. . ... ... : ... .. . ... ... ... ...
ROW 9E : ... .. . ... ... : ... .. . ... ... : ... .. . ... ... : ... .. . ... : ... .. . ... ... : ... .. . ... ... ... ...
ROW 9F : ... .. . ... ... : ... .. . ... ... : ... .. . ... ... : ... .. . ... : ... .. . ... ... : ... .. . ... ... ... ...
ROW A0 : ... .. . ... ... : ... .. . ... ... : ... .. . ... ... : ... .. . ... : ... .. . ... ... : ... .. . ... ... ... ...
ROW A1 : ... .. . ... ... : ... .. . ... ... : ... .. . ... ... : ... .. . ... : ... .. . ... ... : ... .. . ... ... ... ...
ROW A2 : ... .. . ... ... : ... .. . ... ... : ... .. . ... ... : ... .. . ... : ... .. . ... ... : ... .. . ... ... ... ...
ROW A3 : ... .. . ... ... : ... .. . ... ... : ... .. . ... ... : ... .. . ... : ... .. . ... ... : ... .. . ... ... ... ...
ROW A4 : ... .. . ... ... : ... .. . ... ... : ... .. . ... ... : ... .. . ... : ... .. . ... ... : ... .. . ... ... ... ...
ROW A5 : ... .. . ... ... : ... .. . ... ... : ... .. . ... ... : ... .. . ... : ... .. . ... ... : ... .. . ... ... ... ...
ROW A6 : ... .. . ... ... : ... .. . ... ... : ... .. . ... ... : ... .. . ... : ... .. . ... ... : ... .. . ... ... ... ...
ROW A7 : ... .. . ... ... : ... .. . ... ... : ... .. . ... ... : ... .. . ... : ... .. . ... ... : ... .. . ... ... ... ...
ROW A8 : ... .. . ... ... : ... .. . ... ... : ... .. . ... ... : ... .. . ... : ... .. . ... ... : ... .. . ... ... ... ...
ROW A9 : ... .. . ... ... : ... .. . ... ... : ... .. . ... ... : ... .. . ... : ... .. . ... ... : ... .. . ... ... ... ...
ROW AA : ... .. . ... ... : ... .. . ... ... : ... .. . ... ... : ... .. . ... : ... .. . ... ... : ... .. . ... ... ... ...
ROW AB : ... .. . ... ... : ... .. . ... ... : ... .. . ... ... : ... .. . ... : ... .. . ... ... : ... .. . ... ... ... ...
ROW AC : ... .. . ... ... : ... .. . ... ... : ... .. . ... ... : ... .. . ... : ... .. . ... ... : ... .. . ... ... ... ...
ROW AD : ... .. . ... ... : ... .. . ... ... : ... .. . ... ... : ... .. . ... : ... .. . ... ... : ... .. . ... ... ... ...
ROW AE : ... .. . ... ... : ... .. . ... ... : ... .. . ... ... : ... .. . ... : ... .. . ... ... : ... .. . ... ... ... ...
ROW AF : ... .. . ... ... : ... .. . ... ... : ... .. . ... ... : ... .. . ... : ... .. . ... ... : ... .. . ... ... ... ...
ROW B0 : ... .. . ... ... : ... .. . ... ... : ... .. . ... ... : ... .. . ... : ... .. . ... ... : ... .. . ... ... ... ...
ROW B1 : ... .. . ... ... : ... .. . ... ... : ... .. . ... ... : ... .. . ... : ... .. . ... ... : ... .. . ... ... ... ...
ROW B2 : ... .. . ... ... : ... .. . ... ... : ... .. . ... ... : ... .. . ... : ... .. . ... ... : ... .. . ... ... ... ...
ROW B3 : ... .. . ... ... : ... .. . ... ... : ... .. . ... ... : ... .. . ... : ... .. . ... ... : ... .. . ... ... ... ...
ROW B4 : ... .. . ... ... : ... .. . ... ... : ... .. . ... ... : ... .. . ... : ... .. . ... ... : ... .. . ... ... ... ...
ROW B5 : ... .. . ... ... : ... .. . ... ... : ... .. . ... ... : ... .. . ... : ... .. . ... ... : ... .. . ... ... ... ...
ROW B6 : ... .. . ... ... : ... .. . ... ... : ... .. . ... ... : ... .. . ... : ... .. . ... ... : ... .. . ... ... ... ...
ROW B7 : ... .. . ... ... : ... .. . ... ... : ... .. . ... ... : ... .. . ... : ... .. . ... ... : ... .. . ... ... ... ...
ROW B8 : ... .. . ... ... : ... .. . ... ... : ... .. . ... ... : ... .. . ... : ... .. . ... ... : ... .. . ... ... ... ...
ROW B9 : ... .. . ... ... : ... .. . ... ... : ... .. . ... ... : ... .. . ... : ... .. . ... ... : ... .. . ... ... ... ...
ROW BA : ... .. . ... ... : ... .. . ... ... : ... .. . ... ... : ... .. . ... : ... .. . ... ... : ... .. . ... ... ... ...
ROW BB : ... .. . ... ... : ... .. . ... ... : ... .. . ... ... : ... .. . ... : ... .. . ... ... : ... .. . ... ... ... ...
ROW BC : ... .. . ... ... : ... .. . ... ... : ... .. . ... ... : ... .. . ... : ... .. . ... ... : ... .. . ... ... ... ...
ROW BD : ... .. . ... ... : ... .. . ... ... : ... .. . ... ... : ... .. . ... : ... .. . ... ... : ... .. . ... ... ... ...
ROW BE : ... .. . ... ... : ... .. . ... ... : ... .. . ... ... : ... .. . ... : ... .. . ... ... : ... .. . ... ... ... ...
ROW BF : ... .. . ... ... : ... .. . ... ... : ... .. . ... ... : ... .. . ... : ... .. . ... ... : ... .. . ... ... ... ...
ROW C0 : ... .. . ... ... : ... .. . ... ... : ... .. . ... ... : ... .. . ... : ... .. . ... ... : ... .. . ... ... ... ...
ROW C1 : ... .. . ... ... : ... .. . ... ... : ... .. . ... ... : ... .. . ... : ... .. . ... ... : ... .. . ... ... ... ...
ROW C2 : ... .. . ... ... : ... .. . ... ... : ... .. . ... ... : ... .. . ... : ... .. . ... ... : ... .. . ... ... ... ...
ROW C3 : ... .. . ... ... : ... .. . ... ... : ... .. . ... ... : ... .. . ... : ... .. . ... ... : ... .. . ... ... ... ...
ROW C4 : ... .. . ... ... : ... .. . ... ... : ... .. . ... ... : ... .. . ... : ... .. . ... ... : ... .. . ... ... ... ...
ROW C5 : ... .. . ... ... : ... .. . ... ... : ... .. . ... ... : ... .. . ... : ... .. . ... ... : ... .. . ... ... ... ...
ROW C6 : ... .. . ... ... : ... .. . ... ... : ... .. . ... ... : ... .. . ... : ... .. . ... ... : ... .. . ... ... ... ...
ROW C7 : ... .. . ... ... : ... .. . ... ... : ... .. . ... ... : ... .. . ... : ... .. . ... ... : ... .. . ... ... ... ...
ROW C8 : ... .. . ... ... : ... .. . ... ... : ... .. . ... ... : ... .. . ... : ... .. . ... ... : ... .. . ... ... ... ...
ROW C9 : ... .. . ... ... : ... .. . ... ... : ... .. . ... ... : ... .. . ... : ... .. . ... ... : ... .. . ... ... ... ...
ROW CA : ... .. . ... ... : ... .. . ... ... : ... .. . ... ... : ... .. . ... : ... .. . ... ... : ... .. . ... ... ... ...
ROW CB : ... .. . ... ... : ... .. . ... ... : ... .. . ... ... : ... .. . ... : ... .. . ... ... : ... .. . ... ... ... ...
ROW CC : ... .. . ... ... : ... .. . ... ... : ... .. . ... ... : ... .. . ... : ... .. . ... ... : ... .. . ... ... ... ...
ROW CD : ... .. . ... ... : ... .. . ... ... : ... .. . ... ... : ... .. . ... : ... .. . ... ... : ... .. . ... ... ... ...
ROW CE : ... .. . ... ... : ... .. . ... ... : ... .. . ... ... : ... .. . ... : ... .. . ... ... : ... .. . ... ... ... ...
ROW CF : ... .. . ... ... : ... .. . ... ... : ... .. . ... ... : ... .. . ... : ... .. . ... ... : ... .. . ... ... ... ...
ROW D0 : ... .. . ... ... : ... .. . ... ... : ... .. . ... ... : ... .. . ... : ... .. . ... ... : ... .. . ... ... ... ...
ROW D1 : ... .. . ... ... : ... .. . ... ... : ... .. . ... ... : ... .. . ... : ... .. . ... ... : ... .. . ... ... ... ...
ROW D2 : ... .. . ... ... : ... .. . ... ... : ... .. . ... ... : ... .. . ... : ... .. . ... ... : ... .. . ... ... ... ...
ROW D3 : ... .. . ... ... : ... .. . ... ... : ... .. . ... ... : ... .. . ... : ... .. . ... ... : ... .. . ... ... ... ...
ROW D4 : ... .. . ... ... : ... .. . ... ... : ... .. . ... ... : ... .. . ... : ... .. . ... ... : ... .. . ... ... ... ...
ROW D5 : ... .. . ... ... : ... .. . ... ... : ... .. . ... ... : ... .. . ... : ... .. . ... ... : ... .. . ... ... ... ...
ROW D6 : ... .. . ... ... : ... .. . ... ... : ... .. . ... ... : ... .. . ... : ... .. . ... ... : ... .. . ... ... ... ...
ROW D7 : ... .. . ... ... : ... .. . ... ... : ... .. . ... ... : ... .. . ... : ... .. . ... ... : ... .. . ... ... ... ...
ROW D8 : ... .. . ... ... : ... .. . ... ... : ... .. . ... ... : ... .. . ... : ... .. . ... ... : ... .. . ... ... ... ...
ROW D9 : ... .. . ... ... : ... .. . ... ... : ... .. . ... ... : ... .. . ... : ... .. . ... ... : ... .. . ... ... ... ...
ROW DA : ... .. . ... ... : ... .. . ... ... : ... .. . ... ... : ... .. . ... : ... .. . ... ... : ... .. . ... ... ... ...
ROW DB : ... .. . ... ... : ... .. . ... ... : ... .. . ... ... : ... .. . ... : ... .. . ... ... : ... .. . ... ... ... ...
ROW DC : ... .. . ... ... : ... .. . ... ... : ... .. . ... ... : ... .. . ... : ... .. . ... ... : ... .. . ... ... ... ...
ROW DD : ... .. . ... ... : ... .. . ... ... : ... .. . ... ... : ... .. . ... : ... .. . ... ... : ... .. . ... ... ... ...
ROW DE : ... .. . ... ... : ... .. . ... ... : ... .. . ... ... : ... .. . ... : ... .. . ... ... : ... .. . ... ... ... ...
ROW DF : ... .. . ... ... : ... .. . ... ... : ... .. . ... ... : ... .. . ... : ... .. . ... ... : ... .. . ... ... ... ...
ROW E0 : ... .. . ... ... : ... .. . ... ... : ... .. . ... ... : ... .. . ... : ... .. . ... ... : ... .. . ... ... ... ...
ROW E1 : ... .. . ... ... : ... .. . ... ... : ... .. . ... ... : ... .. . ... : ... .. . ... ... : ... .. . ... ... ... ...
ROW E2 : ... .. . ... ... : ... .. . ... ... : ... .. . ... ... : ... .. . ... : ... .. . ... ... : ... .. . ... ... ... ...
ROW E3 : ... .. . ... ... : ... .. . ... ... : ... .. . ... ... : ... .. . ... : ... .. . ... ... : ... .. . ... ... ... ...
ROW E4 : ... .. . ... ... : ... .. . ... ... : ... .. . ... ... : ... .. . ... : ... .. . ... ... : ... .. . ... ... ... ...
ROW E5 : ... .. . ... ... : ... .. . ... ... : ... .. . ... ... : ... .. . ... : ... .. . ... ... : ... .. . ... ... ... ...
ROW E6 : ... .. . ... ... : ... .. . ... ... : ... .. . ... ... : ... .. . ... : ... .. . ... ... : ... .. . ... ... ... ...
ROW E7 : ... .. . ... ... : ... .. . ... ... : ... .. . ... ... : ... .. . ... : ... .. . ... ... : ... .. . ... ... ... ...
ROW E8 : ... .. . ... ... : ... .. . ... ... : ... .. . ... ... : ... .. . ... : ... .. . ... ... : ... .. . ... ... ... ...
ROW E9 : ... .. . ... ... : ... .. . ... ... : ... .. . ... ... : ... .. . ... : ... .. . ... ... : ... .. . ... ... ... ...
ROW EA : ... .. . ... ... : ... .. . ... ... : ... .. . ... ... : ... .. . ... : ... .. . ... ... : ... .. . ... ... ... ...
ROW EB : ... .. . ... ... : ... .. . ... ... : ... .. . ... ... : ... .. . ... : ... .. . ... ... : ... .. . ... ... ... ...
ROW EC : ... .. . ... ... : ... .. . ... ... : ... .. . ... ... : ... .. . ... : ... .. . ... ... : ... .. . ... ... ... ...
ROW ED : ... .. . ... ... : ... .. . ... ... : ... .. . ... ... : ... .. . ... : ... .. . ... ... : ... .. . ... ... ... ...
ROW EE : ... .. . ... ... : ... .. . ... ... : ... .. . ... ... : ... .. . ... : ... .. . ... ... : ... .. . ... ... ... ...
ROW EF : ... .. . ... ... : ... .. . ... ... : ... .. . ... ... : ... .. . ... : ... .. . ... ... : ... .. . ... ... ... ...
ROW F0 : ... .. . ... ... : ... .. . ... ... : ... .. . ... ... : ... .. . ... : ... .. . ... ... : ... .. . ... ... ... ...
ROW F1 : ... .. . ... ... : ... .. . ... ... : ... .. . ... ... : ... .. . ... : ... .. . ... ... : ... .. . ... ... ... ...
ROW F2 : ... .. . ... ... : ... .. . ... ... : ... .. . ... ... : ... .. . ... : ... .. . ... ... : ... .. . ... ... ... ...
ROW F3 : ... .. . ... ... : ... .. . ... ... : ... .. . ... ... : ... .. . ... : ... .. . ... ... : ... .. . ... ... ... ...
ROW F4 : ... .. . ... ... : ... .. . ... ... : ... .. . ... ... : ... .. . ... : ... .. . ... ... : ... .. . ... ... ... ...
ROW F5 : ... .. . ... ... : ... .. . ... ... : ... .. . ... ... : ... .. . ... : ... .. . ... ... : ... .. . ... ... ... ...
ROW F6 : ... .. . ... ... : ... .. . ... ... : ... .. . ... ... : ... .. . ... : ... .. . ... ... : ... .. . ... ... ... ...
ROW F7 : ... .. . ... ... : ... .. . ... ... : ... .. . ... ... : ... .. . ... : ... .. . ... ... : ... .. . ... ... ... ...
ROW F8 : ... .. . ... ... : ... .. . ... ... : ... .. . ... ... : ... .. . ... : ... .. . ... ... : ... .. . ... ... ... ...
ROW F9 : ... .. . ... ... : ... .. . ... ... : ... .. . ... ... : ... .. . ... : ... .. . ... ... : ... .. . ... ... ... ...
ROW FA : ... .. . ... ... : ... .. . ... ... : ... .. . ... ... : ... .. . ... : ... .. . ... ... : ... .. . ... ... ... ...
ROW FB : ... .. . ... ... : ... .. . ... ... : ... .. . ... ... : ... .. . ... : ... .. . ... ... : ... .. . ... ... ... ...
ROW FC : ... .. . ... ... : ... .. . ... ... : ... .. . ... ... : ... .. . ... : ... .. . ... ... : ... .. . ... ... ... ...
ROW FD : ... .. . ... ... : ... .. . ... ... : ... .. . ... ... : ... .. . ... : ... .. . ... ... : ... .. . ... ... ... ...
ROW FE : ... .. . ... ... : ... .. . ... ... : ... .. . ... ... : ... .. . ... : ... .. . ... ... : ... .. . ... ... ... ...
ROW FF : ... .. . ... ... : ... .. . ... ... : ... .. . ... ... : ... .. . ... : ... .. . ... ... : ... .. . ... ... ... ...

PATTERN 04
ROW 00 : C-4 03 A V02 ... : C-4 07 8 ... ... : G-2 11 . 200 ... : D-# 05 7 ... : C-4 1E . F05 ... : F#5 0A A 400 Q31 ... ...
ROW 01 : ... .. 4 ... ... : ... .. 5 ... ... : ... .. . S02 ... : ... .. . ... : ... .. . ... ... : ... .. . ... ... ... ...
ROW 02 : A-3 03 A ... ... : ... .. 8 ... ... : G-2 11 . ... ... : D-# 05 . ... : ... .. . ... ... : ... .. . ... ... ... ...
ROW 03 : C-4 03 4 ... ... : ... .. 5 ... ... : ... .. . S02 ... : ... .. . ... : ... .. . ... ... : ... .. . ... ... ... ...
ROW 04 : F-3 03 A ... ... : ... .. 8 ... ... : G-4 03 . 236 ... : 6-# 08 A ... : C-4 1E . ... ... : ... .. . ... ... ... ...
ROW 05 : A-3 03 4 ... ... : ... .. 5 ... ... : ... .. . ... ... : ... .. . ... : ... .. . ... ... : ... .. . ... ... ... ...
ROW 06 : C-3 03 A ... ... : ... .. 8 ... ... : G-2 11 . 200 ... : D-# 05 7 ... : ... .. . ... ... : ... .. . 468 ... ... ...
ROW 07 : F-3 03 4 ... ... : ... .. 5 ... ... : ... .. . S02 ... : ... .. . ... : ... .. . ... ... : ... .. . ... ... ... ...
ROW 08 : C-4 03 A V01 ... : ... .. 8 ... ... : G-2 11 . ... ... : D-# 05 . ... : C-4 1E . ... ... : ... .. . ... ... ... ...
ROW 09 : C-3 03 4 ... ... : ... .. 5 ... ... : ... .. . S02 ... : ... .. . ... : ... .. . ... ... : ... .. . ... ... ... ...
ROW 0A : A-3 03 A ... ... : ... .. 8 ... ... : G-2 11 . ... ... : D-# 05 . ... : ... .. . ... ... : ... .. . ... ... ... ...
ROW 0B : C-4 03 4 ... ... : ... .. 5 ... ... : ... .. . S02 ... : ... .. . ... : ... .. . ... ... : ... .. . ... ... ... ...
ROW 0C : F-3 03 A ... ... : ... .. 8 ... ... : G-4 03 . 236 ... : 6-# 08 A ... : C-4 1E . ... ... : ... .. 8 ... ... ... ...
ROW 0D : A-3 03 4 ... ... : ... .. 5 ... ... : ... .. . ... ... : ... .. . ... : ... .. . ... ... : ... .. 6 ... ... ... ...
ROW 0E : C-3 03 A ... ... : ... .. 8 ... ... : G-2 11 . 200 ... : D-# 05 7 ... : ... .. . ... ... : ... .. 4 ... ... ... ...
ROW 0F : F-3 03 4 ... ... : ... .. 5 ... ... : ... .. . S02 ... : ... .. . ... : ... .. . ... ... : ... .. 2 ... ... ... ...
ROW 10 : C-4 03 A V00 ... : ... .. 8 ... ... : G-2 11 . 200 ... : D-# 05 . ... : C-4 1E . ... ... : G-5 0A A 400 ... ... ...
ROW 11 : C-3 03 4 ... ... : ... .. 5 ... ... : ... .. . S02 ... : ... .. . ... : ... .. . ... ... : ... .. 8 ... ... ... ...
ROW 12 : A-3 03 A ... ... : ... .. 8 ... ... : G-2 11 . ... ... : D-# 05 . ... : ... .. . ... ... : A#5 0A A ... ... ... ...
ROW 13 : C-4 03 4 ... ... : ... .. 5 ... ... : ... .. . S02 ... : ... .. . ... : ... .. . ... ... : ... .. 8 ... ... ... ...
ROW 14 : F-3 03 A ... ... : ... .. 8 ... ... : G-4 03 . 236 ... : 6-# 08 A ... : C-4 1E . ... ... : G-5 0A 6 ... ... ... ...
ROW 15 : A-3 03 4 ... ... : ... .. 5 ... ... : ... .. . ... ... : ... .. . ... : ... .. . ... ... : ... .. 4 ... ... ... ...
ROW 16 : C-3 03 A ... ... : ... .. 8 ... ... : G-2 11 . 200 ... : D-# 05 7 ... : ... .. . ... ... : C-6 0A A ... ... ... ...
ROW 17 : F-3 03 4 ... ... : ... .. 5 ... ... : ... .. . S02 ... : ... .. . ... : ... .. . ... ... : ... .. . ... ... ... ...
ROW 18 : C-4 03 A V01 ... : ... .. 8 ... ... : G-2 11 . ... ... : D-# 05 . ... : C-4 1E . ... ... : ... .. . ... ... ... ...
ROW 19 : C-3 03 4 ... ... : ... .. 5 ... ... : ... .. . S02 ... : ... .. . ... : ... .. . ... ... : ... .. . ... ... ... ...
ROW 1A : A-3 03 A ... ... : ... .. 8 ... ... : G-2 11 . ... ... : D-# 05 . ... : ... .. . ... ... : ... .. . 468 ... ... ...
ROW 1B : C-4 03 4 ... ... : ... .. 5 ... ... : ... .. . S02 ... : ... .. . ... : ... .. . ... ... : ... .. 8 ... ... ... ...
ROW 1C : F-3 03 A ... ... : ... .. 8 ... ... : G-4 03 . 236 ... : 6-# 08 A ... : C-4 1E . ... ... : D-6 0A A 400 ... ... ...
ROW 1D : A-3 03 4 ... ... : ... .. 5 ... ... : ... .. . ... ... : ... .. . ... : ... .. . ... ... : ... .. 9 ... ... ... ...
ROW 1E : C-3 03 A ... ... : ... .. 8 ... ... : G-2 11 . 200 ... : D-# 05 7 ... : ... .. . ... ... : G-5 0A A ... ... ... ...
ROW 1F : F-3 03 4 ... ... : ... .. 5 ... ... : ... .. . S02 ... : ... .. . ... : ... .. . ... ... : ... .. . ... ... ... ...
ROW 20 : C-4 03 A V02 ... : ... .. 8 ... ... : G-2 11 . 200 ... : D-# 05 . ... : C-4 1E . ... ... : ... .. . ... ... ... ...
ROW 21 : C-3 03 4 ... ... : ... .. 5 ... ... : ... .. . S02 ... : ... .. . ... : ... .. . ... ... : ... .. . ... ... ... ...
ROW 22 : A-3 03 A ... ... : ... .. 8 ... ... : G-2 11 . ... ... : D-# 05 . ... : ... .. . ... ... : ... .. . ... ... ... ...
ROW 23 : C-4 03 4 ... ... : ... .. 5 ... ... : ... .. . S02 ... : ... .. . ... : ... .. . ... ... : ... .. . ... ... ... ...
ROW 24 : F-3 03 A ... ... : ... .. 8 ... ... : G-4 03 . 236 ... : 6-# 08 A ... : C-4 1E . ... ... : ... .. . 468 ... ... ...
ROW 25 : A-3 03 4 ... ... : ... .. 5 ... ... : ... .. . ... ... : ... .. . ... : ... .. . ... ... : ... .. . ... ... ... ...
ROW 26 : C-3 03 A ... ... : ... .. 8 ... ... : G-2 11 . 200 ... : D-# 05 7 ... : ... .. . ... ... : ... .. . ... ... ... ...
ROW 27 : F-3 03 4 ... ... : ... .. 5 ... ... : ... .. . S02 ... : ... .. . ... : ... .. . ... ... : ... .. . ... ... ... ...
ROW 28 : C-4 03 A V01 ... : ... .. 8 ... ... : G-2 11 . ... ... : D-# 05 . ... : C-4 1E . ... ... : ... .. . ... ... ... ...
ROW 29 : C-3 03 4 ... ... : ... .. 5 ... ... : ... .. . S02 ... : ... .. . ... : ... .. . ... ... : ... .. . ... ... ... ...
ROW 2A : A-3 03 A ... ... : ... .. 8 ... ... : G-2 11 . ... ... : D-# 05 . ... : ... .. . ... ... : ... .. . ... ... ... ...
ROW 2B : C-4 03 4 ... ... : ... .. 5 ... ... : ... .. . S02 ... : ... .. . ... : ... .. . ... ... : ... .. . ... ... ... ...
ROW 2C : F-3 03 A ... ... : ... .. 8 ... ... : G-4 03 . 236 ... : 6-# 08 A ... : C-4 1E . ... ... : ... .. 8 ... ... ... ...
ROW 2D : A-3 03 4 ... ... : ... .. 5 ... ... : ... .. . ... ... : ... .. . ... : ... .. . ... ... : ... .. 6 ... ... ... ...
ROW 2E : C-3 03 A ... ... : ... .. 8 ... ... : G-2 11 . 200 ... : D-# 05 7 ... : ... .. . ... ... : ... .. 4 ... ... ... ...
ROW 2F : F-3 03 4 ... ... : ... .. 5 ... ... : ... .. . S02 ... : ... .. . ... : ... .. . ... ... : ... .. 2 ... ... ... ...
ROW 30 : C-4 03 A V00 ... : ... .. 8 ... ... : A#2 11 . 200 ... : D-# 05 . ... : C-4 1E . ... ... : A-5 0A A 400 Q31 ... ...
ROW 31 : C-3 03 4 ... ... : ... .. 5 ... ... : ... .. . S02 ... : ... .. . ... : ... .. . ... ... : ... .. . ... ... ... ...
ROW 32 : A-3 03 A ... ... : ... .. 8 ... ... : A#2 11 . ... ... : D-# 05 . ... : ... .. . ... ... : ... .. . ... ... ... ...
ROW 33 : C-4 03 4 ... ... : ... .. 5 ... ... : ... .. . S02 ... : ... .. . ... : ... .. . ... ... : ... .. 4 ... ... ... ...
ROW 34 : F-3 03 A ... ... : ... .. 8 ... ... : A#4 03 . 236 ... : 6-# 08 A ... : C-4 1E . ... ... : G-5 0A A ... ... ... ...
ROW 35 : A-3 03 4 ... ... : ... .. 5 ... ... : ... .. . ... ... : ... .. . ... : ... .. . ... ... : ... .. . ... ... ... ...
ROW 36 : C-3 03 A ... ... : ... .. 8 ... ... : A#2 11 . 200 ... : D-# 05 7 ... : ... .. . ... ... : ... .. . ... ... ... ...
ROW 37 : F-3 03 4 ... ... : ... .. 5 ... ... : ... .. . S02 ... : ... .. . ... : ... .. . ... ... : A#5 0A 4 ... ... ... ...
ROW 38 : C-4 03 A V01 ... : ... .. 8 ... ... : A#2 11 . ... ... : D-# 05 . ... : C-4 1E . ... ... : A#5 0A A ... ... ... ...
ROW 39 : C-3 03 4 ... ... : ... .. 5 ... ... : ... .. . S02 ... : ... .. . ... : ... .. . ... ... : ... .. . ... ... ... ...
ROW 3A : A-3 03 A ... ... : ... .. 8 ... ... : A#2 11 . ... ... : D-# 05 . ... : ... .. . ... ... : ... .. . ... ... ... ...
ROW 3B : C-4 03 4 ... ... : ... .. 5 ... ... : ... .. . S02 ... : ... .. . ... : ... .. . ... ... : G-5 0A 4 ... ... ... ...
ROW 3C : F-3 03 A ... ... : ... .. 8 ... ... : A#4 03 . 236 ... : 6-# 08 A ... : C-4 1E . ... ... : D-6 0A A ... ... ... ...
ROW 3D : A-3 03 4 ... ... : ... .. 5 ... ... : ... .. . ... ... : ... .. . ... : ... .. . ... ... : ... .. . ... ... ... ...
ROW 3E : C-3 03 A ... ... : ... .. 8 ... ... : A#2 11 . 200 ... : 6-# 08 . ... : ... .. . ... ... : ... .. . ... ... ... ...
ROW 3F : F-3 03 4 ... ... : ... .. 5 ... ... : ... .. . S02 ... : ... .. . ... : ... .. . D00 ... : A#5 0A 4 ... ... ... ...
ROW 40 : ... .. . ... ... : ... .. . ... ... : ... .. . ... ... : ... .. . ... : ... .. . ... ... : ... .. . ... ... ... ...
ROW 41 : ... .. . ... ... : ... .. . ... ... : ... .. . ... ... : ... .. . ... : ... .. . ... ... : ... .. . ... ... ... ...
ROW 42 : ... .. . ... ... : ... .. . ... ... : ... .. . ... ... : ... .. . ... : ... .. . ... ... : ... .. . ... ... ... ...
ROW 43 : ... .. . ... ... : ... .. . ... ... : ... .. . ... ... : ... .. . ... : ... .. . ... ... : ... .. . ... ... ... ...
ROW 44 : ... .. . ... ... : ... .. . ... ... : ... .. . ... ... : ... .. . ... : ... .. . ... ... : ... .. . ... ... ... ...
ROW 45 : ... .. . ... ... : ... .. . ... ... : ... .. . ... ... : ... .. . ... : ... .. . ... ... : ... .. . ... ... ... ...
ROW 46 : ... .. . ... ... : ... .. . ... ... : ... .. . ... ... : ... .. . ... : ... .. . ... ... : ... .. . ... ... ... ...
ROW 47 : ... .. . ... ... : ... .. . ... ... : ... .. . ... ... : ... .. . ... : ... .. . ... ... : ... .. . ... ... ... ...
ROW 48 : ... .. . ... ... : ... .. . ... ... : ... .. . ... ... : ... .. . ... : ... .. . ... ... : ... .. . ... ... ... ...
ROW 49 : ... .. . ... ... : ... .. . ... ... : ... .. . ... ... : ... .. . ... : ... .. . ... ... : ... .. . ... ... ... ...
ROW 4A : ... .. . ... ... : ... .. . ... ... : ... .. . ... ... : ... .. . ... : ... .. . ... ... : ... .. . ... ... ... ...
ROW 4B : ... .. . ... ... : ... .. . ... ... : ... .. . ... ... : ... .. . ... : ... .. . ... ... : ... .. . ... ... ... ...
ROW 4C : ... .. . ... ... : ... .. . ... ... : ... .. . ... ... : ... .. . ... : ... .. . ... ... : ... .. . ... ... ... ...
ROW 4D : ... .. . ... ... : ... .. . ... ... : ... .. . ... ... : ... .. . ... : ... .. . ... ... : ... .. . ... ... ... ...
ROW 4E : ... .. . ... ... : ... .. . ... ... : ... .. . ... ... : ... .. . ... : ... .. . ... ... : ... .. . ... ... ... ...
ROW 4F : ... .. . ... ... : ... .. . ... ... : ... .. . ... ... : ... .. . ... : ... .. . ... ... : ... .. . ... ... ... ...
ROW 50 : ... .. . ... ... : ... .. . ... ... : ... .. . ... ... : ... .. . ... : ... .. . ... ... : ... .. . ... ... ... ...
ROW 51 : ... .. . ... ... : ... .. . ... ... : ... .. . ... ... : ... .. . ... : ... .. . ... ... : ... .. . ... ... ... ...
ROW 52 : ... .. . ... ... : ... .. . ... ... : ... .. . ... ... : ... .. . ... : ... .. . ... ... : ... .. . ... ... ... ...
ROW 53 : ... .. . ... ... : ... .. . ... ... : ... .. . ... ... : ... .. . ... : ... .. . ... ... : ... .. . ... ... ... ...
ROW 54 : ... .. . ... ... : ... .. . ... ... : ... .. . ... ... : ... .. . ... : ... .. . ... ... : ... .. . ... ... ... ...
ROW 55 : ... .. . ... ... : ... .. . ... ... : ... .. . ... ... : ... .. . ... : ... .. . ... ... : ... .. . ... ... ... ...
ROW 56 : ... .. . ... ... : ... .. . ... ... : ... .. . ... ... : ... .. . ... : ... .. . ... ... : ... .. . ... ... ... ...
ROW 57 : ... .. . ... ... : ... .. . ... ... : ... .. . ... ... : ... .. . ... : ... .. . ... ... : ... .. . ... ... ... ...
ROW 58 : ... .. . ... ... : ... .. . ... ... : ... .. . ... ... : ... .. . ... : ... .. . ... ... : ... .. . ... ... ... ...
ROW 59 : ... .. . ... ... : ... .. . ... ... : ... .. . ... ... : ... .. . ... : ... .. . ... ... : ... .. . ... ... ... ...
ROW 5A : ... .. . ... ... : ... .. . ... ... : ... .. . ... ... : ... .. . ... : ... .. . ... ... : ... .. . ... ... ... ...
ROW 5B : ... .. . ... ... : ... .. . ... ... : ... .. . ... ... : ... .. . ... : ... .. . ... ... : ... .. . ... ... ... ...
ROW 5C : ... .. . ... ... : ... .. . ... ... : ... .. . ... ... : ... .. . ... : ... .. . ... ... : ... .. . ... ... ... ...
ROW 5D : ... .. . ... ... : ... .. . ... ... : ... .. . ... ... : ... .. . ... : ... .. . ... ... : ... .. . ... ... ... ...
ROW 5E : ... .. . ... ... : ... .. . ... ... : ... .. . ... ... : ... .. . ... : ... .. . ... ... : ... .. . ... ... ... ...
ROW 5F : ... .. . ... ... : ... .. . ... ... : ... .. . ... ... : ... .. . ... : ... .. . ... ... : ... .. . ... ... ... ...
ROW 60 : ... .. . ... ... : ... .. . ... ... : ... .. . ... ... : ... .. . ... : ... .. . ... ... : ... .. . ... ... ... ...
ROW 61 : ... .. . ... ... : ... .. . ... ... : ... .. . ... ... : ... .. . ... : ... .. . ... ... : ... .. . ... ... ... ...
ROW 62 : ... .. . ... ... : ... .. . ... ... : ... .. . ... ... : ... .. . ... : ... .. . ... ... : ... .. . ... ... ... ...
ROW 63 : ... .. . ... ... : ... .. . ... ... : ... .. . ... ... : ... .. . ... : ... .. . ... ... : ... .. . ... ... ... ...
ROW 64 : ... .. . ... ... : ... .. . ... ... : ... .. . ... ... : ... .. . ... : ... .. . ... ... : ... .. . ... ... ... ...
ROW 65 : ... .. . ... ... : ... .. . ... ... : ... .. . ... ... : ... .. . ... : ... .. . ... ... : ... .. . ... ... ... ...
ROW 66 : ... .. . ... ... : ... .. . ... ... : ... .. . ... ... : ... .. . ... : ... .. . ... ... : ... .. . ... ... ... ...
ROW 67 : ... .. . ... ... : ... .. . ... ... : ... .. . ... ... : ... .. . ... : ... .. . ... ... : ... .. . ... ... ... ...
ROW 68 : ... .. . ... ... : ... .. . ... ... : ... .. . ... ... : ... .. . ... : ... .. . ... ... : ... .. . ... ... ... ...
ROW 69 : ... .. . ... ... : ... .. . ... ... : ... .. . ... ... : ... .. . ... : ... .. . ... ... : ... .. . ... ... ... ...
ROW 6A : ... .. . ... ... : ... .. . ... ... : ... .. . ... ... : ... .. . ... : ... .. . ... ... : ... .. . ... ... ... ...
ROW 6B : ... .. . ... ... : ... .. . ... ... : ... .. . ... ... : ... .. . ... : ... .. . ... ... : ... .. . ... ... ... ...
ROW 6C : ... .. . ... ... : ... .. . ... ... : ... .. . ... ... : ... .. . ... : ... .. . ... ... : ... .. . ... ... ... ...
ROW 6D : ... .. . ... ... : ... .. . ... ... : ... .. . ... ... : ... .. . ... : ... .. . ... ... : ... .. . ... ... ... ...
ROW 6E : ... .. . ... ... : ... .. . ... ... : ... .. . ... ... : ... .. . ... : ... .. . ... ... : ... .. . ... ... ... ...
ROW 6F : ... .. . ... ... : ... .. . ... ... : ... .. . ... ... : ... .. . ... : ... .. . ... ... : ... .. . ... ... ... ...
ROW 70 : ... .. . ... ... : ... .. . ... ... : ... .. . ... ... : ... .. . ... : ... .. . ... ... : ... .. . ... ... ... ...
ROW 71 : ... .. . ... ... : ... .. . ... ... : ... .. . ... ... : ... .. . ... : ... .. . ... ... : ... .. . ... ... ... ...
ROW 72 : ... .. . ... ... : ... .. . ... ... : ... .. . ... ... : ... .. . ... : ... .. . ... ... : ... .. . ... ... ... ...
ROW 73 : ... .. . ... ... : ... .. . ... ... : ... .. . ... ... : ... .. . ... : ... .. . ... ... : ... .. . ... ... ... ...
ROW 74 : ... .. . ... ... : ... .. . ... ... : ... .. . ... ... : ... .. . ... : ... .. . ... ... : ... .. . ... ... ... ...
ROW 75 : ... .. . ... ... : ... .. . ... ... : ... .. . ... ... : ... .. . ... : ... .. . ... ... : ... .. . ... ... ... ...
ROW 76 : ... .. . ... ... : ... .. . ... ... : ... .. . ... ... : ... .. . ... : ... .. . ... ... : ... .. . ... ... ... ...
ROW 77 : ... .. . ... ... : ... .. . ... ... : ... .. . ... ... : ... .. . ... : ... .. . ... ... : ... .. . ... ... ... ...
ROW 78 : ... .. . ... ... : ... .. . ... ... : ... .. . ... ... : ... .. . ... : ... .. . ... ... : ... .. . ... ... ... ...
ROW 79 : ... .. . ... ... : ... .. . ... ... : ... .. . ... ... : ... .. . ... : ... .. . ... ... : ... .. . ... ... ... ...
ROW 7A : ... .. . ... ... : ... .. . ... ... : ... .. . ... ... : ... .. . ... : ... .. . ... ... : ... .. . ... ... ... ...
ROW 7B : ... .. . ... ... : ... .. . ... ... : ... .. . ... ... : ... .. . ... : ... .. . ... ... : ... .. . ... ... ... ...
ROW 7C : ... .. . ... ... : ... .. . ... ... : ... .. . ... ... : ... .. . ... : ... .. . ... ... : ... .. . ... ... ... ...
ROW 7D : ... .. . ... ... : ... .. . ... ... : ... .. . ... ... : ... .. . ... : ... .. . ... ... : ... .. . ... ... ... ...
ROW 7E : ... .. . ... ... : ... .. . ... ... : ... .. . ... ... : ... .. . ... : ... .. . ... ... : ... .. . ... ... ... ...
ROW 7F : ... .. . ... ... : ... .. . ... ... : ... .. . ... ... : ... .. . ... : ... .. . ... ... : ... .. . ... ... ... ...
ROW 80 : ... .. . ... ... : ... .. . ... ... : ... .. . ... ... : ... .. . ... : ... .. . ... ... : ... .. . ... ... ... ...
ROW 81 : ... .. . ... ... : ... .. . ... ... : ... .. . ... ... : ... .. . ... : ... .. . ... ... : ... .. . ... ... ... ...
ROW 82 : ... .. . ... ... : ... .. . ... ... : ... .. . ... ... : ... .. . ... : ... .. . ... ... : ... .. . ... ... ... ...
ROW 83 : ... .. . ... ... : ... .. . ... ... : ... .. . ... ... : ... .. . ... : ... .. . ... ... : ... .. . ... ... ... ...
ROW 84 : ... .. . ... ... : ... .. . ... ... : ... .. . ... ... : ... .. . ... : ... .. . ... ... : ... .. . ... ... ... ...
ROW 85 : ... .. . ... ... : ... .. . ... ... : ... .. . ... ... : ... .. . ... : ... .. . ... ... : ... .. . ... ... ... ...
ROW 86 : ... .. . ... ... : ... .. . ... ... : ... .. . ... ... : ... .. . ... : ... .. . ... ... : ... .. . ... ... ... ...
ROW 87 : ... .. . ... ... : ... .. . ... ... : ... .. . ... ... : ... .. . ... : ... .. . ... ... : ... .. . ... ... ... ...
ROW 88 : ... .. . ... ... : ... .. . ... ... : ... .. . ... ... : ... .. . ... : ... .. . ... ... : ... .. . ... ... ... ...
ROW 89 : ... .. . ... ... : ... .. . ... ... : ... .. . ... ... : ... .. . ... : ... .. . ... ... : ... .. . ... ... ... ...
ROW 8A : ... .. . ... ... : ... .. . ... ... : ... .. . ... ... : ... .. . ... : ... .. . ... ... : ... .. . ... ... ... ...
ROW 8B : ... .. . ... ... : ... .. . ... ... : ... .. . ... ... : ... .. . ... : ... .. . ... ... : ... .. . ... ... ... ...
ROW 8C : ... .. . ... ... : ... .. . ... ... : ... .. . ... ... : ... .. . ... : ... .. . ... ... : ... .. . ... ... ... ...
ROW 8D : ... .. . ... ... : ... .. . ... ... : ... .. . ... ... : ... .. . ... : ... .. . ... ... : ... .. . ... ... ... ...
ROW 8E : ... .. . ... ... : ... .. . ... ... : ... .. . ... ... : ... .. . ... : ... .. . ... ... : ... .. . ... ... ... ...
ROW 8F : ... .. . ... ... : ... .. . ... ... : ... .. . ... ... : ... .. . ... : ... .. . ... ... : ... .. . ... ... ... ...
ROW 90 : ... .. . ... ... : ... .. . ... ... : ... .. . ... ... : ... .. . ... : ... .. . ... ... : ... .. . ... ... ... ...
ROW 91 : ... .. . ... ... : ... .. . ... ... : ... .. . ... ... : ... .. . ... : ... .. . ... ... : ... .. . ... ... ... ...
ROW 92 : ... .. . ... ... : ... .. . ... ... : ... .. . ... ... : ... .. . ... : ... .. . ... ... : ... .. . ... ... ... ...
ROW 93 : ... .. . ... ... : ... .. . ... ... : ... .. . ... ... : ... .. . ... : ... .. . ... ... : ... .. . ... ... ... ...
ROW 94 : ... .. . ... ... : ... .. . ... ... : ... .. . ... ... : ... .. . ... : ... .. . ... ... : ... .. . ... ... ... ...
ROW 95 : ... .. . ... ... : ... .. . ... ... : ... .. . ... ... : ... .. . ... : ... .. . ... ... : ... .. . ... ... ... ...
ROW 96 : ... .. . ... ... : ... .. . ... ... : ... .. . ... ... : ... .. . ... : ... .. . ... ... : ... .. . ... ... ... ...
ROW 97 : ... .. . ... ... : ... .. . ... ... : ... .. . ... ... : ... .. . ... : ... .. . ... ... : ... .. . ... ... ... ...
ROW 98 : ... .. . ... ... : ... .. . ... ... : ... .. . ... ... : ... .. . ... : ... .. . ... ... : ... .. . ... ... ... ...
ROW 99 : ... .. . ... ... : ... .. . ... ... : ... .. . ... ... : ... .. . ... : ... .. . ... ... : ... .. . ... ... ... ...
ROW 9A : ... .. . ... ... : ... .. . ... ... : ... .. . ... ... : ... .. . ... : ... .. . ... ... : ... .. . ... ... ... ...
ROW 9B : ... .. . ... ... : ... .. . ... ... : ... .. . ... ... : ... .. . ... : ... .. . ... ... : ... .. . ... ... ... ...
ROW 9C : ... .. . ... ... : ... .. . ... ... : ... .. . ... ... : ... .. . ... : ... .. . ... ... : ... .. . ... ... ... ...
ROW 9D : ... .. . ... ... : ... .. . ... ... : ... .. . ... ... : ... .. . ... : ... .. . ... ... : ... .. . ... ... ... ...
ROW 9E : ... .. . ... ... : ... .. . ... ... : ... .. . ... ... : ... .. . ... : ... .. . ... ... : ... .. . ... ... ... ...
ROW 9F : ... .. . ... ... : ... .. . ... ... : ... .. . ... ... : ... .. . ... : ... .. . ... ... : ... .. . ... ... ... ...
ROW A0 : ... .. . ... ... : ... .. . ... ... : ... .. . ... ... : ... .. . ... : ... .. . ... ... : ... .. . ... ... ... ...
ROW A1 : ... .. . ... ... : ... .. . ... ... : ... .. . ... ... : ... .. . ... : ... .. . ... ... : ... .. . ... ... ... ...
ROW A2 : ... .. . ... ... : ... .. . ... ... : ... .. . ... ... : ... .. . ... : ... .. . ... ... : ... .. . ... ... ... ...
ROW A3 : ... .. . ... ... : ... .. . ... ... : ... .. . ... ... : ... .. . ... : ... .. . ... ... : ... .. . ... ... ... ...
ROW A4 : ... .. . ... ... : ... .. . ... ... : ... .. . ... ... : ... .. . ... : ... .. . ... ... : ... .. . ... ... ... ...
ROW A5 : ... .. . ... ... : ... .. . ... ... : ... .. . ... ... : ... .. . ... : ... .. . ... ... : ... .. . ... ... ... ...
ROW A6 : ... .. . ... ... : ... .. . ... ... : ... .. . ... ... : ... .. . ... : ... .. . ... ... : ... .. . ... ... ... ...
ROW A7 : ... .. . ... ... : ... .. . ... ... : ... .. . ... ... : ... .. . ... : ... .. . ... ... : ... .. . ... ... ... ...
ROW A8 : ... .. . ... ... : ... .. . ... ... : ... .. . ... ... : ... .. . ... : ... .. . ... ... : ... .. . ... ... ... ...
ROW A9 : ... .. . ... ... : ... .. . ... ... : ... .. . ... ... : ... .. . ... : ... .. . ... ... : ... .. . ... ... ... ...
ROW AA : ... .. . ... ... : ... .. . ... ... : ... .. . ... ... : ... .. . ... : ... .. . ... ... : ... .. . ... ... ... ...
ROW AB : ... .. . ... ... : ... .. . ... ... : ... .. . ... ... : ... .. . ... : ... .. . ... ... : ... .. . ... ... ... ...
ROW AC : ... .. . ... ... : ... .. . ... ... : ... .. . ... ... : ... .. . ... : ... .. . ... ... : ... .. . ... ... ... ...
ROW AD : ... .. . ... ... : ... .. . ... ... : ... .. . ... ... : ... .. . ... : ... .. . ... ... : ... .. . ... ... ... ...
ROW AE : ... .. . ... ... : ... .. . ... ... : ... .. . ... ... : ... .. . ... : ... .. . ... ... : ... .. . ... ... ... ...
ROW AF : ... .. . ... ... : ... .. . ... ... : ... .. . ... ... : ... .. . ... : ... .. . ... ... : ... .. . ... ... ... ...
ROW B0 : ... .. . ... ... : ... .. . ... ... : ... .. . ... ... : ... .. . ... : ... .. . ... ... : ... .. . ... ... ... ...
ROW B1 : ... .. . ... ... : ... .. . ... ... : ... .. . ... ... : ... .. . ... : ... .. . ... ... : ... .. . ... ... ... ...
ROW B2 : ... .. . ... ... : ... .. . ... ... : ... .. . ... ... : ... .. . ... : ... .. . ... ... : ... .. . ... ... ... ...
ROW B3 : ... .. . ... ... : ... .. . ... ... : ... .. . ... ... : ... .. . ... : ... .. . ... ... : ... .. . ... ... ... ...
ROW B4 : ... .. . ... ... : ... .. . ... ... : ... .. . ... ... : ... .. . ... : ... .. . ... ... : ... .. . ... ... ... ...
ROW B5 : ... .. . ... ... : ... .. . ... ... : ... .. . ... ... : ... .. . ... : ... .. . ... ... : ... .. . ... ... ... ...
ROW B6 : ... .. . ... ... : ... .. . ... ... : ... .. . ... ... : ... .. . ... : ... .. . ... ... : ... .. . ... ... ... ...
ROW B7 : ... .. . ... ... : ... .. . ... ... : ... .. . ... ... : ... .. . ... : ... .. . ... ... : ... .. . ... ... ... ...
ROW B8 : ... .. . ... ... : ... .. . ... ... : ... .. . ... ... : ... .. . ... : ... .. . ... ... : ... .. . ... ... ... ...
ROW B9 : ... .. . ... ... : ... .. . ... ... : ... .. . ... ... : ... .. . ... : ... .. . ... ... : ... .. . ... ... ... ...
ROW BA : ... .. . ... ... : ... .. . ... ... : ... .. . ... ... : ... .. . ... : ... .. . ... ... : ... .. . ... ... ... ...
ROW BB : ... .. . ... ... : ... .. . ... ... : ... .. . ... ... : ... .. . ... : ... .. . ... ... : ... .. . ... ... ... ...
ROW BC : ... .. . ... ... : ... .. . ... ... : ... .. . ... ... : ... .. . ... : ... .. . ... ... : ... .. . ... ... ... ...
ROW BD : ... .. . ... ... : ... .. . ... ... : ... .. . ... ... : ... .. . ... : ... .. . ... ... : ... .. . ... ... ... ...
ROW BE : ... .. . ... ... : ... .. . ... ... : ... .. . ... ... : ... .. . ... : ... .. . ... ... : ... .. . ... ... ... ...
ROW BF : ... .. . ... ... : ... .. . ... ... : ... .. . ... ... : ... .. . ... : ... .. . ... ... : ... .. . ... ... ... ...
ROW C0 : ... .. . ... ... : ... .. . ... ... : ... .. . ... ... : ... .. . ... : ... .. . ... ... : ... .. . ... ... ... ...
ROW C1 : ... .. . ... ... : ... .. . ... ... : ... .. . ... ... : ... .. . ... : ... .. . ... ... : ... .. . ... ... ... ...
ROW C2 : ... .. . ... ... : ... .. . ... ... : ... .. . ... ... : ... .. . ... : ... .. . ... ... : ... .. . ... ... ... ...
ROW C3 : ... .. . ... ... : ... .. . ... ... : ... .. . ... ... : ... .. . ... : ... .. . ... ... : ... .. . ... ... ... ...
ROW C4 : ... .. . ... ... : ... .. . ... ... : ... .. . ... ... : ... .. . ... : ... .. . ... ... : ... .. . ... ... ... ...
ROW C5 : ... .. . ... ... : ... .. . ... ... : ... .. . ... ... : ... .. . ... : ... .. . ... ... : ... .. . ... ... ... ...
ROW C6 : ... .. . ... ... : ... .. . ... ... : ... .. . ... ... : ... .. . ... : ... .. . ... ... : ... .. . ... ... ... ...
ROW C7 : ... .. . ... ... : ... .. . ... ... : ... .. . ... ... : ... .. . ... : ... .. . ... ... : ... .. . ... ... ... ...
ROW C8 : ... .. . ... ... : ... .. . ... ... : ... .. . ... ... : ... .. . ... : ... .. . ... ... : ... .. . ... ... ... ...
ROW C9 : ... .. . ... ... : ... .. . ... ... : ... .. . ... ... : ... .. . ... : ... .. . ... ... : ... .. . ... ... ... ...
ROW CA : ... .. . ... ... : ... .. . ... ... : ... .. . ... ... : ... .. . ... : ... .. . ... ... : ... .. . ... ... ... ...
ROW CB : ... .. . ... ... : ... .. . ... ... : ... .. . ... ... : ... .. . ... : ... .. . ... ... : ... .. . ... ... ... ...
ROW CC : ... .. . ... ... : ... .. . ... ... : ... .. . ... ... : ... .. . ... : ... .. . ... ... : ... .. . ... ... ... ...
ROW CD : ... .. . ... ... : ... .. . ... ... : ... .. . ... ... : ... .. . ... : ... .. . ... ... : ... .. . ... ... ... ...
ROW CE : ... .. . ... ... : ... .. . ... ... : ... .. . ... ... : ... .. . ... : ... .. . ... ... : ... .. . ... ... ... ...
ROW CF : ... .. . ... ... : ... .. . ... ... : ... .. . ... ... : ... .. . ... : ... .. . ... ... : ... .. . ... ... ... ...
ROW D0 : ... .. . ... ... : ... .. . ... ... : ... .. . ... ... : ... .. . ... : ... .. . ... ... : ... .. . ... ... ... ...
ROW D1 : ... .. . ... ... : ... .. . ... ... : ... .. . ... ... : ... .. . ... : ... .. . ... ... : ... .. . ... ... ... ...
ROW D2 : ... .. . ... ... : ... .. . ... ... : ... .. . ... ... : ... .. . ... : ... .. . ... ... : ... .. . ... ... ... ...
ROW D3 : ... .. . ... ... : ... .. . ... ... : ... .. . ... ... : ... .. . ... : ... .. . ... ... : ... .. . ... ... ... ...
ROW D4 : ... .. . ... ... : ... .. . ... ... : ... .. . ... ... : ... .. . ... : ... .. . ... ... : ... .. . ... ... ... ...
ROW D5 : ... .. . ... ... : ... .. . ... ... : ... .. . ... ... : ... .. . ... : ... .. . ... ... : ... .. . ... ... ... ...
ROW D6 : ... .. . ... ... : ... .. . ... ... : ... .. . ... ... : ... .. . ... : ... .. . ... ... : ... .. . ... ... ... ...
ROW D7 : ... .. . ... ... : ... .. . ... ... : ... .. . ... ... : ... .. . ... : ... .. . ... ... : ... .. . ... ... ... ...
ROW D8 : ... .. . ... ... : ... .. . ... ... : ... .. . ... ... : ... .. . ... : ... .. . ... ... : ... .. . ... ... ... ...
ROW D9 : ... .. . ... ... : ... .. . ... ... : ... .. . ... ... : ... .. . ... : ... .. . ... ... : ... .. . ... ... ... ...
ROW DA : ... .. . ... ... : ... .. . ... ... : ... .. . ... ... : ... .. . ... : ... .. . ... ... : ... .. . ... ... ... ...
ROW DB : ... .. . ... ... : ... .. . ... ... : ... .. . ... ... : ... .. . ... : ... .. . ... ... : ... .. . ... ... ... ...
ROW DC : ... .. . ... ... : ... .. . ... ... : ... .. . ... ... : ... .. . ... : ... .. . ... ... : ... .. . ... ... ... ...
ROW DD : ... .. . ... ... : ... .. . ... ... : ... .. . ... ... : ... .. . ... : ... .. . ... ... : ... .. . ... ... ... ...
ROW DE : ... .. . ... ... : ... .. . ... ... : ... .. . ... ... : ... .. . ... : ... .. . ... ... : ... .. . ... ... ... ...
ROW DF : ... .. . ... ... : ... .. . ... ... : ... .. . ... ... : ... .. . ... : ... .. . ... ... : ... .. . ... ... ... ...
ROW E0 : ... .. . ... ... : ... .. . ... ... : ... .. . ... ... : ... .. . ... : ... .. . ... ... : ... .. . ... ... ... ...
ROW E1 : ... .. . ... ... : ... .. . ... ... : ... .. . ... ... : ... .. . ... : ... .. . ... ... : ... .. . ... ... ... ...
ROW E2 : ... .. . ... ... : ... .. . ... ... : ... .. . ... ... : ... .. . ... : ... .. . ... ... : ... .. . ... ... ... ...
ROW E3 : ... .. . ... ... : ... .. . ... ... : ... .. . ... ... : ... .. . ... : ... .. . ... ... : ... .. . ... ... ... ...
ROW E4 : ... .. . ... ... : ... .. . ... ... : ... .. . ... ... : ... .. . ... : ... .. . ... ... : ... .. . ... ... ... ...
ROW E5 : ... .. . ... ... : ... .. . ... ... : ... .. . ... ... : ... .. . ... : ... .. . ... ... : ... .. . ... ... ... ...
ROW E6 : ... .. . ... ... : ... .. . ... ... : ... .. . ... ... : ... .. . ... : ... .. . ... ... : ... .. . ... ... ... ...
ROW E7 : ... .. . ... ... : ... .. . ... ... : ... .. . ... ... : ... .. . ... : ... .. . ... ... : ... .. . ... ... ... ...
ROW E8 : ... .. . ... ... : ... .. . ... ... : ... .. . ... ... : ... .. . ... : ... .. . ... ... : ... .. . ... ... ... ...
ROW E9 : ... .. . ... ... : ... .. . ... ... : ... .. . ... ... : ... .. . ... : ... .. . ... ... : ... .. . ... ... ... ...
ROW EA : ... .. . ... ... : ... .. . ... ... : ... .. . ... ... : ... .. . ... : ... .. . ... ... : ... .. . ... ... ... ...
ROW EB : ... .. . ... ... : ... .. . ... ... : ... .. . ... ... : ... .. . ... : ... .. . ... ... : ... .. . ... ... ... ...
ROW EC : ... .. . ... ... : ... .. . ... ... : ... .. . ... ... : ... .. . ... : ... .. . ... ... : ... .. . ... ... ... ...
ROW ED : ... .. . ... ... : ... .. . ... ... : ... .. . ... ... : ... .. . ... : ... .. . ... ... : ... .. . ... ... ... ...
ROW EE : ... .. . ... ... : ... .. . ... ... : ... .. . ... ... : ... .. . ... : ... .. . ... ... : ... .. . ... ... ... ...
ROW EF : ... .. . ... ... : ... .. . ... ... : ... .. . ... ... : ... .. . ... : ... .. . ... ... : ... .. . ... ... ... ...
ROW F0 : ... .. . ... ... : ... .. . ... ... : ... .. . ... ... : ... .. . ... : ... .. . ... ... : ... .. . ... ... ... ...
ROW F1 : ... .. . ... ... : ... .. . ... ... : ... .. . ... ... : ... .. . ... : ... .. . ... ... : ... .. . ... ... ... ...
ROW F2 : ... .. . ... ... : ... .. . ... ... : ... .. . ... ... : ... .. . ... : ... .. . ... ... : ... .. . ... ... ... ...
ROW F3 : ... .. . ... ... : ... .. . ... ... : ... .. . ... ... : ... .. . ... : ... .. . ... ... : ... .. . ... ... ... ...
ROW F4 : ... .. . ... ... : ... .. . ... ... : ... .. . ... ... : ... .. . ... : ... .. . ... ... : ... .. . ... ... ... ...
ROW F5 : ... .. . ... ... : ... .. . ... ... : ... .. . ... ... : ... .. . ... : ... .. . ... ... : ... .. . ... ... ... ...
ROW F6 : ... .. . ... ... : ... .. . ... ... : ... .. . ... ... : ... .. . ... : ... .. . ... ... : ... .. . ... ... ... ...
ROW F7 : ... .. . ... ... : ... .. . ... ... : ... .. . ... ... : ... .. . ... : ... .. . ... ... : ... .. . ... ... ... ...
ROW F8 : ... .. . ... ... : ... .. . ... ... : ... .. . ... ... : ... .. . ... : ... .. . ... ... : ... .. . ... ... ... ...
ROW F9 : ... .. . ... ... : ... .. . ... ... : ... .. . ... ... : ... .. . ... : ... .. . ... ... : ... .. . ... ... ... ...
ROW FA : ... .. . ... ... : ... .. . ... ... : ... .. . ... ... : ... .. . ... : ... .. . ... ... : ... .. . ... ... ... ...
ROW FB : ... .. . ... ... : ... .. . ... ... : ... .. . ... ... : ... .. . ... : ... .. . ... ... : ... .. . ... ... ... ...
ROW FC : ... .. . ... ... : ... .. . ... ... : ... .. . ... ... : ... .. . ... : ... .. . ... ... : ... .. . ... ... ... ...
ROW FD : ... .. . ... ... : ... .. . ... ... : ... .. . ... ... : ... .. . ... : ... .. . ... ... : ... .. . ... ... ... ...
ROW FE : ... .. . ... ... : ... .. . ... ... : ... .. . ... ... : ... .. . ... : ... .. . ... ... : ... .. . ... ... ... ...
ROW FF : ... .. . ... ... : ... .. . ... ... : ... .. . ... ... : ... .. . ... : ... .. . ... ... : ... .. . ... ... ... ...

PATTERN 05
ROW 00 : A#4 03 6 V00 ... : A#3 07 8 ... ... : C-3 11 . 200 ... : C-# 03 E A03 : A#3 20 . F05 ... : E-6 0A A 400 Q31 ... ...
ROW 01 : G-4 03 . ... ... : ... .. 6 ... ... : ... .. . S02 ... : ... .. . A04 : ... .. . ... ... : ... .. . ... ... ... ...
ROW 02 : D#4 03 . ... ... : ... .. 5 ... ... : C-3 11 . ... ... : ... .. . A05 : ... .. . ... ... : ... .. . ... ... ... ...
ROW 03 : A#3 03 . ... ... : ... .. 3 ... ... : ... .. . S02 ... : ... .. . A04 : ... .. . ... ... : ... .. 8 ... ... ... ...
ROW 04 : G-3 03 . ... ... : ... .. 8 ... ... : C-5 03 . 236 ... : D-# 05 7 A00 : A#3 20 . ... ... : D#6 0A A ... ... ... ...
ROW 05 : D#3 03 . ... ... : ... .. 6 ... ... : ... .. . ... ... : ... .. . ... : ... .. . ... ... : E-6 0A 4 ... ... ... ...
ROW 06 : A#2 03 . ... ... : ... .. 5 ... ... : C-3 11 . 200 ... : 6-# 08 A ... : ... .. . ... ... : C-6 0A A ... ... ... ...
ROW 07 : G-2 03 . ... ... : ... .. 3 ... ... : ... .. . S02 ... : ... .. . ... : ... .. . ... ... : ... .. . ... ... ... ...
ROW 08 : A#4 03 7 V02 ... : ... .. 8 ... ... : C-3 11 . ... ... : D-# 05 7 ... : A#3 20 . ... ... : ... .. . ... ... ... ...
ROW 09 : G-4 03 . ... ... : ... .. 6 ... ... : ... .. . S02 ... : ... .. . ... : ... .. . ... ... : ... .. . ... ... ... ...
ROW 0A : D#4 03 . ... ... : ... .. 5 ... ... : C-3 11 . ... ... : D-# 05 . ... : ... .. . ... ... : ... .. . ... ... ... ...
ROW 0B : A#3 03 . ... ... : ... .. 3 ... ... : ... .. . S02 ... : ... .. . ... : ... .. . ... ... : ... .. . ... ... ... ...
ROW 0C : G-3 03 . ... ... : ... .. 8 ... ... : C-5 03 . 236 ... : 6-# 08 A ... : A#3 20 . ... ... : ... .. . 468 ... ... ...
ROW 0D : D#3 03 . ... ... : ... .. 6 ... ... : ... .. . ... ... : ... .. . ... : ... .. . ... ... : ... .. . ... ... ... ...
ROW 0E : A#2 03 . ... ... : ... .. 5 ... ... : C-3 11 . 200 ... : 6-# 08 . ... : ... .. . ... ... : ... .. . ... ... ... ...
ROW 0F : G-2 03 . ... ... : ... .. 3 ... ... : ... .. . S02 ... : ... .. . ... : ... .. . ... ... : ... .. . ... ... ... ...
ROW 10 : A#4 03 8 V01 ... : ... .. 8 ... ... : C-3 11 . 200 ... : ... .. . ... : A#3 20 . ... ... : ... .. . ... ... ... ...
ROW 11 : G-4 03 . ... ... : ... .. 6 ... ... : ... .. . S02 ... : ... .. . ... : ... .. . ... ... : ... .. . ... ... ... ...
ROW 12 : D#4 03 . ... ... : ... .. 5 ... ... : C-3 11 . ... ... : ... .. . ... : ... .. . ... ... : ... .. . ... ... ... ...
ROW 13 : A#3 03 . ... ... : ... .. 3 ... ... : ... .. . S02 ... : ... .. . ... : ... .. . ... ... : ... .. . ... ... ... ...
ROW 14 : G-3 03 . ... ... : ... .. 8 ... ... : C-5 03 . 236 ... : ... .. . ... : A#3 20 . ... ... : ... .. . ... ... ... ...
ROW 15 : D#3 03 . ... ... : ... .. 6 ... ... : ... .. . ... ... : ... .. . ... : ... .. . ... ... : ... .. . ... ... ... ...
ROW 16 : A#2 03 . ... ... : ... .. 5 ... ... : C-3 11 . 200 ... : ... .. . ... : ... .. . ... ... : ... .. 9 ... ... ... ...
ROW 17 : G-2 03 . ... ... : ... .. 3 ... ... : ... .. . S02 ... : ... .. . ... : ... .. . ... ... : ... .. . ... ... ... ...
ROW 18 : A#4 03 9 V02 ... : ... .. 8 ... ... : C-3 11 . ... ... : ... .. . ... : A#3 20 . ... ... : ... .. 8 ... ... ... ...
ROW 19 : G-4 03 . ... ... : ... .. 6 ... ... : ... .. . S02 ... : ... .. . ... : ... .. . ... ... : ... .. . ... ... ... ...
ROW 1A : D#4 03 . ... ... : ... .. 5 ... ... : C-3 11 . ... ... : ... .. . ... : ... .. . ... ... : ... .. 7 ... ... ... ...
ROW 1B : A#3 03 . ... ... : ... .. 3 ... ... : ... .. . S02 ... : ... .. . ... : ... .. . ... ... : ... .. . ... ... ... ...
ROW 1C : G-3 03 . ... ... : ... .. 8 ... ... : C-5 03 . 236 ... : ... .. . ... : A#3 20 . ... ... : ... .. 6 ... ... ... ...
ROW 1D : D#3 03 . ... ... : ... .. 6 ... ... : ... .. . ... ... : ... .. . ... : ... .. . ... ... : ... .. . ... ... ... ...
ROW 1E : A#2 03 . ... ... : ... .. 5 ... ... : C-3 11 . 200 ... : ... .. . ... : ... .. . ... ... : ... .. 5 ... ... ... ...
ROW 1F : G-2 03 . ... ... : ... .. 3 ... ... : ... .. . S02 ... : ... .. . ... : ... .. . ... ... : ... .. . ... ... ... ...
ROW 20 : C-5 03 6 V00 ... : C-4 07 8 ... ... : C-3 11 . 200 ... : C-# 03 C A03 : C-4 1E . ... ... : ... .. 4 ... ... ... ...
ROW 21 : A-4 03 . ... ... : ... .. 6 ... ... : ... .. . S02 ... : ... .. . A04 : ... .. . ... ... : ... .. . ... ... ... ...
ROW 22 : F-4 03 . ... ... : ... .. 5 ... ... : C-3 11 . ... ... : ... .. . A03 : ... .. . ... ... : ... .. 3 ... ... ... ...
ROW 23 : C-4 03 . ... ... : ... .. 3 ... ... : ... .. . S02 ... : ... .. . A04 : ... .. . ... ... : ... .. . ... ... ... ...
ROW 24 : A-3 03 . ... ... : ... .. 8 ... ... : C-5 03 . 236 ... : D-# 05 5 A00 : C-4 1E . ... ... : ... .. 2 ... ... ... ...
ROW 25 : F-3 03 . ... ... : ... .. 6 ... ... : ... .. . ... ... : ... .. . ... : ... .. . ... ... : ... .. . ... ... ... ...
ROW 26 : C-3 03 . ... ... : ... .. 5 ... ... : C-3 11 . 200 ... : 6-# 08 8 ... : ... .. . ... ... : ... .. 1 ... ... ... ...
ROW 27 : A-2 03 . ... ... : ... .. 3 ... ... : ... .. . S02 ... : ... .. . ... : ... .. . ... ... : ... .. . ... ... ... ...
ROW 28 : C-5 03 7 V02 ... : ... .. 8 ... ... : C-3 11 . ... ... : D-# 05 5 ... : C-4 1E . ... ... : ... .. 0 ... ... ... ...
ROW 29 : A-4 03 . ... ... : ... .. 6 ... ... : ... .. . S02 ... : ... .. . ... : ... .. . ... ... : ... .. . ... ... ... ...
ROW 2A : F-4 03 . ... ... : ... .. 5 ... ... : C-3 11 . ... ... : D-# 05 . ... : ... .. . ... ... : ... .. . ... ... ... ...
ROW 2B : C-4 03 . ... ... : ... .. 3 ... ... : ... .. . S02 ... : ... .. . ... : ... .. . ... ... : ... .. . ... ... ... ...
ROW 2C : A-3 03 . ... ... : ... .. 8 ... ... : C-5 03 . 236 ... : 6-# 08 8 ... : C-4 1E . ... ... : ... .. . ... ... ... ...
ROW 2D : F-3 03 . ... ... : ... .. 6 ... ... : ... .. . ... ... : ... .. . ... : ... .. . ... ... : ... .. . ... ... ... ...
ROW 2E : C-3 03 . ... ... : ... .. 5 ... ... : C-3 11 . 200 ... : 6-# 08 . ... : ... .. . ... ... : ... .. . ... ... ... ...
ROW 2F : A-2 03 . ... ... : ... .. 3 ... ... : ... .. . S02 ... : ... .. . ... : ... .. . ... ... : ... .. . ... ... ... ...
ROW 30 : C-5 03 8 V01 ... : ... .. 8 ... ... : C-3 11 . 200 ... : ... .. . ... : C-4 1E . ... ... : C-5 0B B 400 ... ... ...
ROW 31 : A-4 03 . ... ... : ... .. 6 ... ... : ... .. . S02 ... : ... .. . ... : ... .. . ... ... : ... .. . ... ... ... ...
ROW 32 : F-4 03 . ... ... : ... .. 5 ... ... : C-3 11 . ... ... : ... .. . ... : ... .. . ... ... : ... .. . ... ... ... ...
ROW 33 : C-4 03 . ... ... : ... .. 3 ... ... : ... .. . S02 ... : ... .. . ... : ... .. . ... ... : ... .. 6 ... ... ... ...
ROW 34 : A-3 03 . ... ... : ... .. 8 ... ... : C-5 03 . 236 ... : ... .. . ... : C-4 1E . ... ... : F-5 0B B ... ... ... ...
ROW 35 : F-3 03 . ... ... : ... .. 6 ... ... : ... .. . ... ... : ... .. . ... : ... .. . ... ... : ... .. . ... ... ... ...
ROW 36 : C-3 03 . ... ... : ... .. 5 ... ... : C-3 11 . 200 ... : ... .. . ... : ... .. . ... ... : ... .. . ... ... ... ...
ROW 37 : A-2 03 . ... ... : ... .. 3 ... ... : ... .. . S02 ... : ... .. . ... : ... .. . ... ... : C-5 0B 6 ... ... ... ...
ROW 38 : C-5 03 9 V02 ... : ... .. 8 ... ... : C-3 11 . ... ... : 6-# 08 8 ... : C-4 1E . ... ... : A-5 0B B ... ... ... ...
ROW 39 : A-4 03 . ... ... : ... .. 6 ... ... : ... .. . S02 ... : ... .. . ... : ... .. . ... ... : ... .. . ... ... ... ...
ROW 3A : F-4 03 . ... ... : ... .. 5 ... ... : C-3 11 . ... ... : ... .. . ... : ... .. . ... ... : ... .. . ... ... ... ...
ROW 3B : C-4 03 . ... ... : ... .. 3 ... ... : ... .. . S02 ... : ... .. . ... : ... .. . ... ... : F-5 0B 6 ... ... ... ...
ROW 3C : A-3 03 . ... ... : ... .. 8 ... ... : C-5 03 . 236 ... : 6-# 08 8 ... : C-4 1E . ... ... : C-6 0B B ... ... ... ...
ROW 3D : F-3 03 . ... ... : ... .. 6 ... ... : ... .. . ... ... : ... .. . ... : ... .. . ... ... : ... .. . ... ... ... ...
ROW 3E : C-3 03 . ... ... : ... .. 5 ... ... : C-3 11 . 200 ... : ... .. . ... : ... .. . ... ... : ... .. . ... ... ... ...
ROW 3F : A-2 03 . ... ... : ... .. 3 ... ... : ... .. . S02 ... : ... .. . ... : ... .. . D00 ... : A-5 0B 6 ... ... ... ...
ROW 40 : ... .. . ... ... : ... .. . ... ... : ... .. . ... ... : ... .. . ... : ... .. . ... ... : ... .. . ... ... ... ...
ROW 41 : ... .. . ... ... : ... .. . ... ... : ... .. . ... ... : ... .. . ... : ... .. . ... ... : ... .. . ... ... ... ...
ROW 42 : ... .. . ... ... : ... .. . ... ... : ... .. . ... ... : ... .. . ... : ... .. . ... ... : ... .. . ... ... ... ...
ROW 43 : ... .. . ... ... : ... .. . ... ... : ... .. . ... ... : ... .. . ... : ... .. . ... ... : ... .. . ... ... ... ...
ROW 44 : ... .. . ... ... : ... .. . ... ... : ... .. . ... ... : ... .. . ... : ... .. . ... ... : ... .. . ... ... ... ...
ROW 45 : ... .. . ... ... : ... .. . ... ... : ... .. . ... ... : ... .. . ... : ... .. . ... ... : ... .. . ... ... ... ...
ROW 46 : ... .. . ... ... : ... .. . ... ... : ... .. . ... ... : ... .. . ... : ... .. . ... ... : ... .. . ... ... ... ...
ROW 47 : ... .. . ... ... : ... .. . ... ... : ... .. . ... ... : ... .. . ... : ... .. . ... ... : ... .. . ... ... ... ...
ROW 48 : ... .. . ... ... : ... .. . ... ... : ... .. . ... ... : ... .. . ... : ... .. . ... ... : ... .. . ... ... ... ...
ROW 49 : ... .. . ... ... : ... .. . ... ... : ... .. . ... ... : ... .. . ... : ... .. . ... ... : ... .. . ... ... ... ...
ROW 4A : ... .. . ... ... : ... .. . ... ... : ... .. . ... ... : ... .. . ... : ... .. . ... ... : ... .. . ... ... ... ...
ROW 4B : ... .. . ... ... : ... .. . ... ... : ... .. . ... ... : ... .. . ... : ... .. . ... ... : ... .. . ... ... ... ...
ROW 4C : ... .. . ... ... : ... .. . ... ... : ... .. . ... ... : ... .. . ... : ... .. . ... ... : ... .. . ... ... ... ...
ROW 4D : ... .. . ... ... : ... .. . ... ... : ... .. . ... ... : ... .. . ... : ... .. . ... ... : ... .. . ... ... ... ...
ROW 4E : ... .. . ... ... : ... .. . ... ... : ... .. . ... ... : ... .. . ... : ... .. . ... ... : ... .. . ... ... ... ...
ROW 4F : ... .. . ... ... : ... .. . ... ... : ... .. . ... ... : ... .. . ... : ... .. . ... ... : ... .. . ... ... ... ...
ROW 50 : ... .. . ... ... : ... .. . ... ... : ... .. . ... ... : ... .. . ... : ... .. . ... ... : ... .. . ... ... ... ...
ROW 51 : ... .. . ... ... : ... .. . ... ... : ... .. . ... ... : ... .. . ... : ... .. . ... ... : ... .. . ... ... ... ...
ROW 52 : ... .. . ... ... : ... .. . ... ... : ... .. . ... ... : ... .. . ... : ... .. . ... ... : ... .. . ... ... ... ...
ROW 53 : ... .. . ... ... : ... .. . ... ... : ... .. . ... ... : ... .. . ... : ... .. . ... ... : ... .. . ... ... ... ...
ROW 54 : ... .. . ... ... : ... .. . ... ... : ... .. . ... ... : ... .. . ... : ... .. . ... ... : ... .. . ... ... ... ...
ROW 55 : ... .. . ... ... : ... .. . ... ... : ... .. . ... ... : ... .. . ... : ... .. . ... ... : ... .. . ... ... ... ...
ROW 56 : ... .. . ... ... : ... .. . ... ... : ... .. . ... ... : ... .. . ... : ... .. . ... ... : ... .. . ... ... ... ...
ROW 57 : ... .. . ... ... : ... .. . ... ... : ... .. . ... ... : ... .. . ... : ... .. . ... ... : ... .. . ... ... ... ...
ROW 58 : ... .. . ... ... : ... .. . ... ... : ... .. . ... ... : ... .. . ... : ... .. . ... ... : ... .. . ... ... ... ...
ROW 59 : ... .. . ... ... : ... .. . ... ... : ... .. . ... ... : ... .. . ... : ... .. . ... ... : ... .. . ... ... ... ...
ROW 5A : ... .. . ... ... : ... .. . ... ... : ... .. . ... ... : ... .. . ... : ... .. . ... ... : ... .. . ... ... ... ...
ROW 5B : ... .. . ... ... : ... .. . ... ... : ... .. . ... ... : ... .. . ... : ... .. . ... ... : ... .. . ... ... ... ...
ROW 5C : ... .. . ... ... : ... .. . ... ... : ... .. . ... ... : ... .. . ... : ... .. . ... ... : ... .. . ... ... ... ...
ROW 5D : ... .. . ... ... : ... .. . ... ... : ... .. . ... ... : ... .. . ... : ... .. . ... ... : ... .. . ... ... ... ...
ROW 5E : ... .. . ... ... : ... .. . ... ... : ... .. . ... ... : ... .. . ... : ... .. . ... ... : ... .. . ... ... ... ...
ROW 5F : ... .. . ... ... : ... .. . ... ... : ... .. . ... ... : ... .. . ... : ... .. . ... ... : ... .. . ... ... ... ...
ROW 60 : ... .. . ... ... : ... .. . ... ... : ... .. . ... ... : ... .. . ... : ... .. . ... ... : ... .. . ... ... ... ...
ROW 61 : ... .. . ... ... : ... .. . ... ... : ... .. . ... ... : ... .. . ... : ... .. . ... ... : ... .. . ... ... ... ...
ROW 62 : ... .. . ... ... : ... .. . ... ... : ... .. . ... ... : ... .. . ... : ... .. . ... ... : ... .. . ... ... ... ...
ROW 63 : ... .. . ... ... : ... .. . ... ... : ... .. . ... ... : ... .. . ... : ... .. . ... ... : ... .. . ... ... ... ...
ROW 64 : ... .. . ... ... : ... .. . ... ... : ... .. . ... ... : ... .. . ... : ... .. . ... ... : ... .. . ... ... ... ...
ROW 65 : ... .. . ... ... : ... .. . ... ... : ... .. . ... ... : ... .. . ... : ... .. . ... ... : ... .. . ... ... ... ...
ROW 66 : ... .. . ... ... : ... .. . ... ... : ... .. . ... ... : ... .. . ... : ... .. . ... ... : ... .. . ... ... ... ...
ROW 67 : ... .. . ... ... : ... .. . ... ... : ... .. . ... ... : ... .. . ... : ... .. . ... ... : ... .. . ... ... ... ...
ROW 68 : ... .. . ... ... : ... .. . ... ... : ... .. . ... ... : ... .. . ... : ... .. . ... ... : ... .. . ... ... ... ...
ROW 69 : ... .. . ... ... : ... .. . ... ... : ... .. . ... ... : ... .. . ... : ... .. . ... ... : ... .. . ... ... ... ...
ROW 6A : ... .. . ... ... : ... .. . ... ... : ... .. . ... ... : ... .. . ... : ... .. . ... ... : ... .. . ... ... ... ...
ROW 6B : ... .. . ... ... : ... .. . ... ... : ... .. . ... ... : ... .. . ... : ... .. . ... ... : ... .. . ... ... ... ...
ROW 6C : ... .. . ... ... : ... .. . ... ... : ... .. . ... ... : ... .. . ... : ... .. . ... ... : ... .. . ... ... ... ...
ROW 6D : ... .. . ... ... : ... .. . ... ... : ... .. . ... ... : ... .. . ... : ... .. . ... ... : ... .. . ... ... ... ...
ROW 6E : ... .. . ... ... : ... .. . ... ... : ... .. . ... ... : ... .. . ... : ... .. . ... ... : ... .. . ... ... ... ...
ROW 6F : ... .. . ... ... : ... .. . ... ... : ... .. . ... ... : ... .. . ... : ... .. . ... ... : ... .. . ... ... ... ...
ROW 70 : ... .. . ... ... : ... .. . ... ... : ... .. . ... ... : ... .. . ... : ... .. . ... ... : ... .. . ... ... ... ...
ROW 71 : ... .. . ... ... : ... .. . ... ... : ... .. . ... ... : ... .. . ... : ... .. . ... ... : ... .. . ... ... ... ...
ROW 72 : ... .. . ... ... : ... .. . ... ... : ... .. . ... ... : ... .. . ... : ... .. . ... ... : ... .. . ... ... ... ...
ROW 73 : ... .. . ... ... : ... .. . ... ... : ... .. . ... ... : ... .. . ... : ... .. . ... ... : ... .. . ... ... ... ...
ROW 74 : ... .. . ... ... : ... .. . ... ... : ... .. . ... ... : ... .. . ... : ... .. . ... ... : ... .. . ... ... ... ...
ROW 75 : ... .. . ... ... : ... .. . ... ... : ... .. . ... ... : ... .. . ... : ... .. . ... ... : ... .. . ... ... ... ...
ROW 76 : ... .. . ... ... : ... .. . ... ... : ... .. . ... ... : ... .. . ... : ... .. . ... ... : ... .. . ... ... ... ...
ROW 77 : ... .. . ... ... : ... .. . ... ... : ... .. . ... ... : ... .. . ... : ... .. . ... ... : ... .. . ... ... ... ...
ROW 78 : ... .. . ... ... : ... .. . ... ... : ... .. . ... ... : ... .. . ... : ... .. . ... ... : ... .. . ... ... ... ...
ROW 79 : ... .. . ... ... : ... .. . ... ... : ... .. . ... ... : ... .. . ... : ... .. . ... ... : ... .. . ... ... ... ...
ROW 7A : ... .. . ... ... : ... .. . ... ... : ... .. . ... ... : ... .. . ... : ... .. . ... ... : ... .. . ... ... ... ...
ROW 7B : ... .. . ... ... : ... .. . ... ... : ... .. . ... ... : ... .. . ... : ... .. . ... ... : ... .. . ... ... ... ...
ROW 7C : ... .. . ... ... : ... .. . ... ... : ... .. . ... ... : ... .. . ... : ... .. . ... ... : ... .. . ... ... ... ...
ROW 7D : ... .. . ... ... : ... .. . ... ... : ... .. . ... ... : ... .. . ... : ... .. . ... ... : ... .. . ... ... ... ...
ROW 7E : ... .. . ... ... : ... .. . ... ... : ... .. . ... ... : ... .. . ... : ... .. . ... ... : ... .. . ... ... ... ...
ROW 7F : ... .. . ... ... : ... .. . ... ... : ... .. . ... ... : ... .. . ... : ... .. . ... ... : ... .. . ... ... ... ...
ROW 80 : ... .. . ... ... : ... .. . ... ... : ... .. . ... ... : ... .. . ... : ... .. . ... ... : ... .. . ... ... ... ...
ROW 81 : ... .. . ... ... : ... .. . ... ... : ... .. . ... ... : ... .. . ... : ... .. . ... ... : ... .. . ... ... ... ...
ROW 82 : ... .. . ... ... : ... .. . ... ... : ... .. . ... ... : ... .. . ... : ... .. . ... ... : ... .. . ... ... ... ...
ROW 83 : ... .. . ... ... : ... .. . ... ... : ... .. . ... ... : ... .. . ... : ... .. . ... ... : ... .. . ... ... ... ...
ROW 84 : ... .. . ... ... : ... .. . ... ... : ... .. . ... ... : ... .. . ... : ... .. . ... ... : ... .. . ... ... ... ...
ROW 85 : ... .. . ... ... : ... .. . ... ... : ... .. . ... ... : ... .. . ... : ... .. . ... ... : ... .. . ... ... ... ...
ROW 86 : ... .. . ... ... : ... .. . ... ... : ... .. . ... ... : ... .. . ... : ... .. . ... ... : ... .. . ... ... ... ...
ROW 87 : ... .. . ... ... : ... .. . ... ... : ... .. . ... ... : ... .. . ... : ... .. . ... ... : ... .. . ... ... ... ...
ROW 88 : ... .. . ... ... : ... .. . ... ... : ... .. . ... ... : ... .. . ... : ... .. . ... ... : ... .. . ... ... ... ...
ROW 89 : ... .. . ... ... : ... .. . ... ... : ... .. . ... ... : ... .. . ... : ... .. . ... ... : ... .. . ... ... ... ...
ROW 8A : ... .. . ... ... : ... .. . ... ... : ... .. . ... ... : ... .. . ... : ... .. . ... ... : ... .. . ... ... ... ...
ROW 8B : ... .. . ... ... : ... .. . ... ... : ... .. . ... ... : ... .. . ... : ... .. . ... ... : ... .. . ... ... ... ...
ROW 8C : ... .. . ... ... : ... .. . ... ... : ... .. . ... ... : ... .. . ... : ... .. . ... ... : ... .. . ... ... ... ...
ROW 8D : ... .. . ... ... : ... .. . ... ... : ... .. . ... ... : ... .. . ... : ... .. . ... ... : ... .. . ... ... ... ...
ROW 8E : ... .. . ... ... : ... .. . ... ... : ... .. . ... ... : ... .. . ... : ... .. . ... ... : ... .. . ... ... ... ...
ROW 8F : ... .. . ... ... : ... .. . ... ... : ... .. . ... ... : ... .. . ... : ... .. . ... ... : ... .. . ... ... ... ...
ROW 90 : ... .. . ... ... : ... .. . ... ... : ... .. . ... ... : ... .. . ... : ... .. . ... ... : ... .. . ... ... ... ...
ROW 91 : ... .. . ... ... : ... .. . ... ... : ... .. . ... ... : ... .. . ... : ... .. . ... ... : ... .. . ... ... ... ...
ROW 92 : ... .. . ... ... : ... .. . ... ... : ... .. . ... ... : ... .. . ... : ... .. . ... ... : ... .. . ... ... ... ...
ROW 93 : ... .. . ... ... : ... .. . ... ... : ... .. . ... ... : ... .. . ... : ... .. . ... ... : ... .. . ... ... ... ...
ROW 94 : ... .. . ... ... : ... .. . ... ... : ... .. . ... ... : ... .. . ... : ... .. . ... ... : ... .. . ... ... ... ...
ROW 95 : ... .. . ... ... : ... .. . ... ... : ... .. . ... ... : ... .. . ... : ... .. . ... ... : ... .. . ... ... ... ...
ROW 96 : ... .. . ... ... : ... .. . ... ... : ... .. . ... ... : ... .. . ... : ... .. . ... ... : ... .. . ... ... ... ...
ROW 97 : ... .. . ... ... : ... .. . ... ... : ... .. . ... ... : ... .. . ... : ... .. . ... ... : ... .. . ... ... ... ...
ROW 98 : ... .. . ... ... : ... .. . ... ... : ... .. . ... ... : ... .. . ... : ... .. . ... ... : ... .. . ... ... ... ...
ROW 99 : ... .. . ... ... : ... .. . ... ... : ... .. . ... ... : ... .. . ... : ... .. . ... ... : ... .. . ... ... ... ...
ROW 9A : ... .. . ... ... : ... .. . ... ... : ... .. . ... ... : ... .. . ... : ... .. . ... ... : ... .. . ... ... ... ...
ROW 9B : ... .. . ... ... : ... .. . ... ... : ... .. . ... ... : ... .. . ... : ... .. . ... ... : ... .. . ... ... ... ...
ROW 9C : ... .. . ... ... : ... .. . ... ... : ... .. . ... ... : ... .. . ... : ... .. . ... ... : ... .. . ... ... ... ...
ROW 9D : ... .. . ... ... : ... .. . ... ... : ... .. . ... ... : ... .. . ... : ... .. . ... ... : ... .. . ... ... ... ...
ROW 9E : ... .. . ... ... : ... .. . ... ... : ... .. . ... ... : ... .. . ... : ... .. . ... ... : ... .. . ... ... ... ...
ROW 9F : ... .. . ... ... : ... .. . ... ... : ... .. . ... ... : ... .. . ... : ... .. . ... ... : ... .. . ... ... ... ...
ROW A0 : ... .. . ... ... : ... .. . ... ... : ... .. . ... ... : ... .. . ... : ... .. . ... ... : ... .. . ... ... ... ...
ROW A1 : ... .. . ... ... : ... .. . ... ... : ... .. . ... ... : ... .. . ... : ... .. . ... ... : ... .. . ... ... ... ...
ROW A2 : ... .. . ... ... : ... .. . ... ... : ... .. . ... ... : ... .. . ... : ... .. . ... ... : ... .. . ... ... ... ...
ROW A3 : ... .. . ... ... : ... .. . ... ... : ... .. . ... ... : ... .. . ... : ... .. . ... ... : ... .. . ... ... ... ...
ROW A4 : ... .. . ... ... : ... .. . ... ... : ... .. . ... ... : ... .. . ... : ... .. . ... ... : ... .. . ... ... ... ...
ROW A5 : ... .. . ... ... : ... .. . ... ... : ... .. . ... ... : ... .. . ... : ... .. . ... ... : ... .. . ... ... ... ...
ROW A6 : ... .. . ... ... : ... .. . ... ... : ... .. . ... ... : ... .. . ... : ... .. . ... ... : ... .. . ... ... ... ...
ROW A7 : ... .. . ... ... : ... .. . ... ... : ... .. . ... ... : ... .. . ... : ... .. . ... ... : ... .. . ... ... ... ...
ROW A8 : ... .. . ... ... : ... .. . ... ... : ... .. . ... ... : ... .. . ... : ... .. . ... ... : ... .. . ... ... ... ...
ROW A9 : ... .. . ... ... : ... .. . ... ... : ... .. . ... ... : ... .. . ... : ... .. . ... ... : ... .. . ... ... ... ...
ROW AA : ... .. . ... ... : ... .. . ... ... : ... .. . ... ... : ... .. . ... : ... .. . ... ... : ... .. . ... ... ... ...
ROW AB : ... .. . ... ... : ... .. . ... ... : ... .. . ... ... : ... .. . ... : ... .. . ... ... : ... .. . ... ... ... ...
ROW AC : ... .. . ... ... : ... .. . ... ... : ... .. . ... ... : ... .. . ... : ... .. . ... ... : ... .. . ... ... ... ...
ROW AD : ... .. . ... ... : ... .. . ... ... : ... .. . ... ... : ... .. . ... : ... .. . ... ... : ... .. . ... ... ... ...
ROW AE : ... .. . ... ... : ... .. . ... ... : ... .. . ... ... : ... .. . ... : ... .. . ... ... : ... .. . ... ... ... ...
ROW AF : ... .. . ... ... : ... .. . ... ... : ... .. . ... ... : ... .. . ... : ... .. . ... ... : ... .. . ... ... ... ...
ROW B0 : ... .. . ... ... : ... .. . ... ... : ... .. . ... ... : ... .. . ... : ... .. . ... ... : ... .. . ... ... ... ...
ROW B1 : ... .. . ... ... : ... .. . ... ... : ... .. . ... ... : ... .. . ... : ... .. . ... ... : ... .. . ... ... ... ...
ROW B2 : ... .. . ... ... : ... .. . ... ... : ... .. . ... ... : ... .. . ... : ... .. . ... ... : ... .. . ... ... ... ...
ROW B3 : ... .. . ... ... : ... .. . ... ... : ... .. . ... ... : ... .. . ... : ... .. . ... ... : ... .. . ... ... ... ...
ROW B4 : ... .. . ... ... : ... .. . ... ... : ... .. . ... ... : ... .. . ... : ... .. . ... ... : ... .. . ... ... ... ...
ROW B5 : ... .. . ... ... : ... .. . ... ... : ... .. . ... ... : ... .. . ... : ... .. . ... ... : ... .. . ... ... ... ...
ROW B6 : ... .. . ... ... : ... .. . ... ... : ... .. . ... ... : ... .. . ... : ... .. . ... ... : ... .. . ... ... ... ...
ROW B7 : ... .. . ... ... : ... .. . ... ... : ... .. . ... ... : ... .. . ... : ... .. . ... ... : ... .. . ... ... ... ...
ROW B8 : ... .. . ... ... : ... .. . ... ... : ... .. . ... ... : ... .. . ... : ... .. . ... ... : ... .. . ... ... ... ...
ROW B9 : ... .. . ... ... : ... .. . ... ... : ... .. . ... ... : ... .. . ... : ... .. . ... ... : ... .. . ... ... ... ...
ROW BA : ... .. . ... ... : ... .. . ... ... : ... .. . ... ... : ... .. . ... : ... .. . ... ... : ... .. . ... ... ... ...
ROW BB : ... .. . ... ... : ... .. . ... ... : ... .. . ... ... : ... .. . ... : ... .. . ... ... : ... .. . ... ... ... ...
ROW BC : ... .. . ... ... : ... .. . ... ... : ... .. . ... ... : ... .. . ... : ... .. . ... ... : ... .. . ... ... ... ...
ROW BD : ... .. . ... ... : ... .. . ... ... : ... .. . ... ... : ... .. . ... : ... .. . ... ... : ... .. . ... ... ... ...
ROW BE : ... .. . ... ... : ... .. . ... ... : ... .. . ... ... : ... .. . ... : ... .. . ... ... : ... .. . ... ... ... ...
ROW BF : ... .. . ... ... : ... .. . ... ... : ... .. . ... ... : ... .. . ... : ... .. . ... ... : ... .. . ... ... ... ...
ROW C0 : ... .. . ... ... : ... .. . ... ... : ... .. . ... ... : ... .. . ... : ... .. . ... ... : ... .. . ... ... ... ...
ROW C1 : ... .. . ... ... : ... .. . ... ... : ... .. . ... ... : ... .. . ... : ... .. . ... ... : ... .. . ... ... ... ...
ROW C2 : ... .. . ... ... : ... .. . ... ... : ... .. . ... ... : ... .. . ... : ... .. . ... ... : ... .. . ... ... ... ...
ROW C3 : ... .. . ... ... : ... .. . ... ... : ... .. . ... ... : ... .. . ... : ... .. . ... ... : ... .. . ... ... ... ...
ROW C4 : ... .. . ... ... : ... .. . ... ... : ... .. . ... ... : ... .. . ... : ... .. . ... ... : ... .. . ... ... ... ...
ROW C5 : ... .. . ... ... : ... .. . ... ... : ... .. . ... ... : ... .. . ... : ... .. . ... ... : ... .. . ... ... ... ...
ROW C6 : ... .. . ... ... : ... .. . ... ... : ... .. . ... ... : ... .. . ... : ... .. . ... ... : ... .. . ... ... ... ...
ROW C7 : ... .. . ... ... : ... .. . ... ... : ... .. . ... ... : ... .. . ... : ... .. . ... ... : ... .. . ... ... ... ...
ROW C8 : ... .. . ... ... : ... .. . ... ... : ... .. . ... ... : ... .. . ... : ... .. . ... ... : ... .. . ... ... ... ...
ROW C9 : ... .. . ... ... : ... .. . ... ... : ... .. . ... ... : ... .. . ... : ... .. . ... ... : ... .. . ... ... ... ...
ROW CA : ... .. . ... ... : ... .. . ... ... : ... .. . ... ... : ... .. . ... : ... .. . ... ... : ... .. . ... ... ... ...
ROW CB : ... .. . ... ... : ... .. . ... ... : ... .. . ... ... : ... .. . ... : ... .. . ... ... : ... .. . ... ... ... ...
ROW CC : ... .. . ... ... : ... .. . ... ... : ... .. . ... ... : ... .. . ... : ... .. . ... ... : ... .. . ... ... ... ...
ROW CD : ... .. . ... ... : ... .. . ... ... : ... .. . ... ... : ... .. . ... : ... .. . ... ... : ... .. . ... ... ... ...
ROW CE : ... .. . ... ... : ... .. . ... ... : ... .. . ... ... : ... .. . ... : ... .. . ... ... : ... .. . ... ... ... ...
ROW CF : ... .. . ... ... : ... .. . ... ... : ... .. . ... ... : ... .. . ... : ... .. . ... ... : ... .. . ... ... ... ...
ROW D0 : ... .. . ... ... : ... .. . ... ... : ... .. . ... ... : ... .. . ... : ... .. . ... ... : ... .. . ... ... ... ...
ROW D1 : ... .. . ... ... : ... .. . ... ... : ... .. . ... ... : ... .. . ... : ... .. . ... ... : ... .. . ... ... ... ...
ROW D2 : ... .. . ... ... : ... .. . ... ... : ... .. . ... ... : ... .. . ... : ... .. . ... ... : ... .. . ... ... ... ...
ROW D3 : ... .. . ... ... : ... .. . ... ... : ... .. . ... ... : ... .. . ... : ... .. . ... ... : ... .. . ... ... ... ...
ROW D4 : ... .. . ... ... : ... .. . ... ... : ... .. . ... ... : ... .. . ... : ... .. . ... ... : ... .. . ... ... ... ...
ROW D5 : ... .. . ... ... : ... .. . ... ... : ... .. . ... ... : ... .. . ... : ... .. . ... ... : ... .. . ... ... ... ...
ROW D6 : ... .. . ... ... : ... .. . ... ... : ... .. . ... ... : ... .. . ... : ... .. . ... ... : ... .. . ... ... ... ...
ROW D7 : ... .. . ... ... : ... .. . ... ... : ... .. . ... ... : ... .. . ... : ... .. . ... ... : ... .. . ... ... ... ...
ROW D8 : ... .. . ... ... : ... .. . ... ... : ... .. . ... ... : ... .. . ... : ... .. . ... ... : ... .. . ... ... ... ...
ROW D9 : ... .. . ... ... : ... .. . ... ... : ... .. . ... ... : ... .. . ... : ... .. . ... ... : ... .. . ... ... ... ...
ROW DA : ... .. . ... ... : ... .. . ... ... : ... .. . ... ... : ... .. . ... : ... .. . ... ... : ... .. . ... ... ... ...
ROW DB : ... .. . ... ... : ... .. . ... ... : ... .. . ... ... : ... .. . ... : ... .. . ... ... : ... .. . ... ... ... ...
ROW DC : ... .. . ... ... : ... .. . ... ... : ... .. . ... ... : ... .. . ... : ... .. . ... ... : ... .. . ... ... ... ...
ROW DD : ... .. . ... ... : ... .. . ... ... : ... .. . ... ... : ... .. . ... : ... .. . ... ... : ... .. . ... ... ... ...
ROW DE : ... .. . ... ... : ... .. . ... ... : ... .. . ... ... : ... .. . ... : ... .. . ... ... : ... .. . ... ... ... ...
ROW DF : ... .. . ... ... : ... .. . ... ... : ... .. . ... ... : ... .. . ... : ... .. . ... ... : ... .. . ... ... ... ...
ROW E0 : ... .. . ... ... : ... .. . ... ... : ... .. . ... ... : ... .. . ... : ... .. . ... ... : ... .. . ... ... ... ...
ROW E1 : ... .. . ... ... : ... .. . ... ... : ... .. . ... ... : ... .. . ... : ... .. . ... ... : ... .. . ... ... ... ...
ROW E2 : ... .. . ... ... : ... .. . ... ... : ... .. . ... ... : ... .. . ... : ... .. . ... ... : ... .. . ... ... ... ...
ROW E3 : ... .. . ... ... : ... .. . ... ... : ... .. . ... ... : ... .. . ... : ... .. . ... ... : ... .. . ... ... ... ...
ROW E4 : ... .. . ... ... : ... .. . ... ... : ... .. . ... ... : ... .. . ... : ... .. . ... ... : ... .. . ... ... ... ...
ROW E5 : ... .. . ... ... : ... .. . ... ... : ... .. . ... ... : ... .. . ... : ... .. . ... ... : ... .. . ... ... ... ...
ROW E6 : ... .. . ... ... : ... .. . ... ... : ... .. . ... ... : ... .. . ... : ... .. . ... ... : ... .. . ... ... ... ...
ROW E7 : ... .. . ... ... : ... .. . ... ... : ... .. . ... ... : ... .. . ... : ... .. . ... ... : ... .. . ... ... ... ...
ROW E8 : ... .. . ... ... : ... .. . ... ... : ... .. . ... ... : ... .. . ... : ... .. . ... ... : ... .. . ... ... ... ...
ROW E9 : ... .. . ... ... : ... .. . ... ... : ... .. . ... ... : ... .. . ... : ... .. . ... ... : ... .. . ... ... ... ...
ROW EA : ... .. . ... ... : ... .. . ... ... : ... .. . ... ... : ... .. . ... : ... .. . ... ... : ... .. . ... ... ... ...
ROW EB : ... .. . ... ... : ... .. . ... ... : ... .. . ... ... : ... .. . ... : ... .. . ... ... : ... .. . ... ... ... ...
ROW EC : ... .. . ... ... : ... .. . ... ... : ... .. . ... ... : ... .. . ... : ... .. . ... ... : ... .. . ... ... ... ...
ROW ED : ... .. . ... ... : ... .. . ... ... : ... .. . ... ... : ... .. . ... : ... .. . ... ... : ... .. . ... ... ... ...
ROW EE : ... .. . ... ... : ... .. . ... ... : ... .. . ... ... : ... .. . ... : ... .. . ... ... : ... .. . ... ... ... ...
ROW EF : ... .. . ... ... : ... .. . ... ... : ... .. . ... ... : ... .. . ... : ... .. . ... ... : ... .. . ... ... ... ...
ROW F0 : ... .. . ... ... : ... .. . ... ... : ... .. . ... ... : ... .. . ... : ... .. . ... ... : ... .. . ... ... ... ...
ROW F1 : ... .. . ... ... : ... .. . ... ... : ... .. . ... ... : ... .. . ... : ... .. . ... ... : ... .. . ... ... ... ...
ROW F2 : ... .. . ... ... : ... .. . ... ... : ... .. . ... ... : ... .. . ... : ... .. . ... ... : ... .. . ... ... ... ...
ROW F3 : ... .. . ... ... : ... .. . ... ... : ... .. . ... ... : ... .. . ... : ... .. . ... ... : ... .. . ... ... ... ...
ROW F4 : ... .. . ... ... : ... .. . ... ... : ... .. . ... ... : ... .. . ... : ... .. . ... ... : ... .. . ... ... ... ...
ROW F5 : ... .. . ... ... : ... .. . ... ... : ... .. . ... ... : ... .. . ... : ... .. . ... ... : ... .. . ... ... ... ...
ROW F6 : ... .. . ... ... : ... .. . ... ... : ... .. . ... ... : ... .. . ... : ... .. . ... ... : ... .. . ... ... ... ...
ROW F7 : ... .. . ... ... : ... .. . ... ... : ... .. . ... ... : ... .. . ... : ... .. . ... ... : ... .. . ... ... ... ...
ROW F8 : ... .. . ... ... : ... .. . ... ... : ... .. . ... ... : ... .. . ... : ... .. . ... ... : ... .. . ... ... ... ...
ROW F9 : ... .. . ... ... : ... .. . ... ... : ... .. . ... ... : ... .. . ... : ... .. . ... ... : ... .. . ... ... ... ...
ROW FA : ... .. . ... ... : ... .. . ... ... : ... .. . ... ... : ... .. . ... : ... .. . ... ... : ... .. . ... ... ... ...
ROW FB : ... .. . ... ... : ... .. . ... ... : ... .. . ... ... : ... .. . ... : ... .. . ... ... : ... .. . ... ... ... ...
ROW FC : ... .. . ... ... : ... .. . ... ... : ... .. . ... ... : ... .. . ... : ... .. . ... ... : ... .. . ... ... ... ...
ROW FD : ... .. . ... ... : ... .. . ... ... : ... .. . ... ... : ... .. . ... : ... .. . ... ... : ... .. . ... ... ... ...
ROW FE : ... .. . ... ... : ... .. . ... ... : ... .. . ... ... : ... .. . ... : ... .. . ... ... : ... .. . ... ... ... ...
ROW FF : ... .. . ... ... : ... .. . ... ... : ... .. . ... ... : ... .. . ... : ... .. . ... ... : ... .. . ... ... ... ...

PATTERN 06
ROW 00 : G-4 03 6 V00 ... : G-3 04 8 ... ... : A#3 11 . 226 ... : C-# 03 C A03 : G-3 20 . F05 ... : A-5 0B A Q31 400 ... ...
ROW 01 : D#4 03 . ... ... : ... .. 5 ... ... : ... .. . ... ... : ... .. . A04 : ... .. . ... ... : ... .. . ... ... ... ...
ROW 02 : C-4 03 . ... ... : ... .. 8 ... ... : ... .. . ... ... : ... .. . A05 : ... .. . ... ... : ... .. . ... ... ... ...
ROW 03 : G-3 03 . ... ... : ... .. 5 ... ... : ... .. . ... ... : ... .. . A04 : ... .. . ... ... : ... .. . ... ... ... ...
ROW 04 : D#3 03 . ... ... : ... .. 8 ... ... : A#4 03 . 236 ... : D-# 05 8 A00 : G-3 20 . ... ... : ... .. . ... ... ... ...
ROW 05 : C-3 03 . ... ... : ... .. 5 ... ... : ... .. . ... ... : ... .. . ... : ... .. . ... ... : ... .. . ... ... ... ...
ROW 06 : G-2 03 . ... ... : ... .. 8 ... ... : A#2 11 . 200 ... : ... .. . ... : ... .. . ... ... : ... .. . ... ... ... ...
ROW 07 : D#2 03 . ... ... : ... .. 5 ... ... : ... .. . S02 ... : ... .. . ... : ... .. . ... ... : ... .. . ... ... ... ...
ROW 08 : G-4 03 7 V02 ... : ... .. 8 ... ... : A#2 11 . ... ... : D-# 05 6 ... : G-3 20 . ... ... : ... .. . ... 468 ... ...
ROW 09 : D#4 03 . ... ... : ... .. 5 ... ... : ... .. . S02 ... : ... .. . ... : ... .. . ... ... : ... .. . ... ... ... ...
ROW 0A : C-4 03 . ... ... : ... .. 8 ... ... : A#2 11 . ... ... : ... .. . ... : ... .. . ... ... : ... .. . ... ... ... ...
ROW 0B : G-3 03 . ... ... : ... .. 5 ... ... : ... .. . S02 ... : ... .. . ... : ... .. . ... ... : ... .. . ... ... ... ...
ROW 0C : D#3 03 . ... ... : ... .. 8 ... ... : A#4 03 . 236 ... : D-# 05 4 ... : G-3 20 . ... ... : ... .. . ... ... ... ...
ROW 0D : C-3 03 . ... ... : ... .. 5 ... ... : ... .. . ... ... : ... .. . ... : ... .. . ... ... : ... .. . ... ... ... ...
ROW 0E : G-2 03 . ... ... : ... .. 8 ... ... : A#2 11 . 200 ... : ... .. . ... : ... .. . ... ... : ... .. . ... ... ... ...
ROW 0F : D#2 03 . ... ... : ... .. 5 ... ... : ... .. . S02 ... : ... .. . ... : ... .. . ... ... : ... .. . ... ... ... ...
ROW 10 : G-4 03 8 V01 ... : ... .. 8 ... ... : A#2 11 . 200 ... : C-# 06 A ... : G-3 20 . ... ... : ... .. 9 ... ... ... ...
ROW 11 : D#4 03 . ... ... : ... .. 5 ... ... : ... .. . S02 ... : ... .. . ... : ... .. . ... ... : ... .. . ... ... ... ...
ROW 12 : C-4 03 . ... ... : ... .. 8 ... ... : A#2 11 . ... ... : ... .. . ... : ... .. . ... ... : ... .. 8 ... ... ... ...
ROW 13 : G-3 03 . ... ... : ... .. 5 ... ... : ... .. . S02 ... : ... .. . ... : ... .. . ... ... : ... .. . ... ... ... ...
ROW 14 : D#3 03 . ... ... : ... .. 8 ... ... : A#4 03 . 236 ... : D-# 05 8 ... : G-3 20 . ... ... : ... .. 7 ... ... ... ...
ROW 15 : C-3 03 . ... ... : ... .. 5 ... ... : ... .. . ... ... : ... .. . ... : ... .. . ... ... : ... .. . ... ... ... ...
ROW 16 : G-2 03 . ... ... : ... .. 8 ... ... : A#2 11 . 200 ... : ... .. . ... : ... .. . ... ... : ... .. 6 ... ... ... ...
ROW 17 : D#2 03 . ... ... : ... .. 5 ... ... : ... .. . S02 ... : ... .. . ... : ... .. . ... ... : ... .. . ... ... ... ...
ROW 18 : G-4 03 9 V02 ... : ... .. 8 ... ... : A#2 11 . ... ... : D-# 05 6 ... : G-3 20 . ... ... : ... .. 5 ... ... ... ...
ROW 19 : D#4 03 . ... ... : ... .. 5 ... ... : ... .. . S02 ... : ... .. . ... : ... .. . ... ... : ... .. . ... ... ... ...
ROW 1A : C-4 03 . ... ... : ... .. 8 ... ... : A#2 11 . ... ... : ... .. . ... : ... .. . ... ... : ... .. 4 ... ... ... ...
ROW 1B : G-3 03 . ... ... : ... .. 5 ... ... : ... .. . S02 ... : ... .. . ... : ... .. . ... ... : ... .. . ... ... ... ...
ROW 1C : D#3 03 . ... ... : ... .. 8 ... ... : A#4 03 . 236 ... : D-# 05 4 ... : G-3 20 . ... ... : A#5 0B A 400 ... ... ...
ROW 1D : C-3 03 . ... ... : ... .. 5 ... ... : ... .. . ... ... : ... .. . ... : ... .. . ... ... : ... .. 4 ... ... ... ...
ROW 1E : G-2 03 . ... ... : ... .. 8 ... ... : A#2 11 . 200 ... : ... .. . ... : ... .. . ... ... : B-5 0B A Q31 400 ... ...
ROW 1F : D#2 03 . ... ... : ... .. 5 ... ... : ... .. . S02 ... : ... .. . ... : ... .. . ... ... : ... .. . ... ... ... ...
ROW 20 : D-4 03 6 V00 ... : D-3 04 8 ... ... : C-3 11 . 200 ... : C-# 06 A ... : D-3 1E . ... ... : ... .. . ... ... ... ...
ROW 21 : A#3 03 . ... ... : ... .. 5 ... ... : ... .. . S02 ... : ... .. . ... : ... .. . ... ... : ... .. . ... ... ... ...
ROW 22 : G-3 03 . ... ... : ... .. 8 ... ... : C-3 11 . ... ... : ... .. . ... : ... .. . ... ... : ... .. . ... ... ... ...
ROW 23 : D-3 03 . ... ... : ... .. 5 ... ... : ... .. . S02 ... : ... .. . ... : ... .. . ... ... : ... .. . ... ... ... ...
ROW 24 : A#2 03 . ... ... : ... .. 8 ... ... : C-5 03 . 236 ... : D-# 05 8 ... : D-3 1E . ... ... : ... .. . ... ... ... ...
ROW 25 : G-2 03 . ... ... : ... .. 5 ... ... : ... .. . ... ... : ... .. . ... : ... .. . ... ... : ... .. . ... ... ... ...
ROW 26 : D-2 03 . ... ... : ... .. 8 ... ... : C-3 11 . 200 ... : ... .. . ... : ... .. . ... ... : ... .. . ... 468 ... ...
ROW 27 : A#1 03 . ... ... : ... .. 5 ... ... : ... .. . S02 ... : ... .. . ... : ... .. . ... ... : ... .. . ... ... ... ...
ROW 28 : D-4 03 7 V02 ... : ... .. 8 ... ... : C-3 11 . ... ... : D-# 05 6 ... : D-3 1E . ... ... : ... .. . ... ... ... ...
ROW 29 : A#3 03 . ... ... : ... .. 5 ... ... : ... .. . S02 ... : ... .. . ... : ... .. . ... ... : ... .. . ... ... ... ...
ROW 2A : G-3 03 . ... ... : ... .. 8 ... ... : C-3 11 . ... ... : ... .. . ... : ... .. . ... ... : ... .. . ... ... ... ...
ROW 2B : D-3 03 . ... ... : ... .. 5 ... ... : ... .. . S02 ... : ... .. . ... : ... .. . ... ... : ... .. . ... ... ... ...
ROW 2C : A#2 03 . ... ... : ... .. 8 ... ... : C-5 03 . 236 ... : D-# 05 4 ... : D-3 1E . ... ... : ... .. . ... ... ... ...
ROW 2D : G-2 03 . ... ... : ... .. 5 ... ... : ... .. . ... ... : ... .. . ... : ... .. . ... ... : ... .. . ... ... ... ...
ROW 2E : D-2 03 . ... ... : ... .. 8 ... ... : C-3 11 . 200 ... : ... .. . ... : ... .. . ... ... : ... .. 9 ... ... ... ...
ROW 2F : A#1 03 . ... ... : ... .. 5 ... ... : ... .. . S02 ... : ... .. . ... : ... .. . ... ... : ... .. . ... ... ... ...
ROW 30 : D-4 03 8 V01 ... : ... .. 8 ... ... : C-3 11 . 200 ... : C-# 06 A ... : D-3 1E . ... ... : ... .. 8 ... ... ... ...
ROW 31 : A#3 03 . ... ... : ... .. 5 ... ... : ... .. . S02 ... : ... .. . ... : ... .. . ... ... : ... .. . ... ... ... ...
ROW 32 : G-3 03 . ... ... : ... .. 8 ... ... : C-3 11 . ... ... : ... .. . ... : ... .. . ... ... : ... .. 7 ... ... ... ...
ROW 33 : D-3 03 . ... ... : ... .. 5 ... ... : ... .. . S02 ... : ... .. . ... : ... .. . ... ... : ... .. . ... ... ... ...
ROW 34 : A#2 03 . ... ... : ... .. 8 ... ... : C-5 03 . 236 ... : D-# 05 8 ... : D-3 1E . ... ... : ... .. 6 ... ... ... ...
ROW 35 : G-2 03 . ... ... : ... .. 5 ... ... : ... .. . ... ... : ... .. . ... : ... .. . ... ... : ... .. . ... ... ... ...
ROW 36 : D-2 03 . ... ... : ... .. 8 ... ... : C-3 11 . 200 ... : ... .. . ... : ... .. . ... ... : ... .. 5 ... ... ... ...
ROW 37 : A#1 03 . ... ... : ... .. 5 ... ... : ... .. . S02 ... : ... .. . ... : ... .. . ... ... : ... .. . ... ... ... ...
ROW 38 : D-4 03 9 V02 ... : ... .. 8 ... ... : C-3 11 . ... ... : D-# 05 6 ... : D-3 1E . ... ... : ... .. 4 ... ... ... ...
ROW 39 : A#3 03 . ... ... : ... .. 5 ... ... : ... .. . S02 ... : ... .. . ... : ... .. . ... ... : ... .. . ... ... ... ...
ROW 3A : G-3 03 . ... ... : ... .. 8 ... ... : C-3 11 . ... ... : ... .. . ... : ... .. . ... ... : ... .. 3 ... ... ... ...
ROW 3B : D-3 03 . ... ... : ... .. 5 ... ... : ... .. . S02 ... : ... .. . ... : ... .. . ... ... : ... .. . ... ... ... ...
ROW 3C : A#2 03 . ... ... : ... .. 8 ... ... : C-5 03 . 236 ... : D-# 05 4 ... : D-3 1E . ... ... : ... .. 2 ... ... ... ...
ROW 3D : G-2 03 . ... ... : ... .. 5 ... ... : ... .. . ... ... : ... .. . ... : ... .. . ... ... : ... .. . ... ... ... ...
ROW 3E : D-2 03 . ... ... : ... .. 8 ... ... : C-3 11 . 200 ... : ... .. . ... : ... .. . ... ... : ... .. 1 ... ... ... ...
ROW 3F : A#1 03 . ... ... : ... .. 5 ... ... : ... .. . S02 ... : ... .. . ... : ... .. . D00 ... : ... .. . ... ... ... ...
ROW 40 : ... .. . ... ... : ... .. . ... ... : ... .. . ... ... : ... .. . ... : ... .. . ... ... : ... .. . ... ... ... ...
ROW 41 : ... .. . ... ... : ... .. . ... ... : ... .. . ... ... : ... .. . ... : ... .. . ... ... : ... .. . ... ... ... ...
ROW 42 : ... .. . ... ... : ... .. . ... ... : ... .. . ... ... : ... .. . ... : ... .. . ... ... : ... .. . ... ... ... ...
ROW 43 : ... .. . ... ... : ... .. . ... ... : ... .. . ... ... : ... .. . ... : ... .. . ... ... : ... .. . ... ... ... ...
ROW 44 : ... .. . ... ... : ... .. . ... ... : ... .. . ... ... : ... .. . ... : ... .. . ... ... : ... .. . ... ... ... ...
ROW 45 : ... .. . ... ... : ... .. . ... ... : ... .. . ... ... : ... .. . ... : ... .. . ... ... : ... .. . ... ... ... ...
ROW 46 : ... .. . ... ... : ... .. . ... ... : ... .. . ... ... : ... .. . ... : ... .. . ... ... : ... .. . ... ... ... ...
ROW 47 : ... .. . ... ... : ... .. . ... ... : ... .. . ... ... : ... .. . ... : ... .. . ... ... : ... .. . ... ... ... ...
ROW 48 : ... .. . ... ... : ... .. . ... ... : ... .. . ... ... : ... .. . ... : ... .. . ... ... : ... .. . ... ... ... ...
ROW 49 : ... .. . ... ... : ... .. . ... ... : ... .. . ... ... : ... .. . ... : ... .. . ... ... : ... .. . ... ... ... ...
ROW 4A : ... .. . ... ... : ... .. . ... ... : ... .. . ... ... : ... .. . ... : ... .. . ... ... : ... .. . ... ... ... ...
ROW 4B : ... .. . ... ... : ... .. . ... ... : ... .. . ... ... : ... .. . ... : ... .. . ... ... : ... .. . ... ... ... ...
ROW 4C : ... .. . ... ... : ... .. . ... ... : ... .. . ... ... : ... .. . ... : ... .. . ... ... : ... .. . ... ... ... ...
ROW 4D : ... .. . ... ... : ... .. . ... ... : ... .. . ... ... : ... .. . ... : ... .. . ... ... : ... .. . ... ... ... ...
ROW 4E : ... .. . ... ... : ... .. . ... ... : ... .. . ... ... : ... .. . ... : ... .. . ... ... : ... .. . ... ... ... ...
ROW 4F : ... .. . ... ... : ... .. . ... ... : ... .. . ... ... : ... .. . ... : ... .. . ... ... : ... .. . ... ... ... ...
ROW 50 : ... .. . ... ... : ... .. . ... ... : ... .. . ... ... : ... .. . ... : ... .. . ... ... : ... .. . ... ... ... ...
ROW 51 : ... .. . ... ... : ... .. . ... ... : ... .. . ... ... : ... .. . ... : ... .. . ... ... : ... .. . ... ... ... ...
ROW 52 : ... .. . ... ... : ... .. . ... ... : ... .. . ... ... : ... .. . ... : ... .. . ... ... : ... .. . ... ... ... ...
ROW 53 : ... .. . ... ... : ... .. . ... ... : ... .. . ... ... : ... .. . ... : ... .. . ... ... : ... .. . ... ... ... ...
ROW 54 : ... .. . ... ... : ... .. . ... ... : ... .. . ... ... : ... .. . ... : ... .. . ... ... : ... .. . ... ... ... ...
ROW 55 : ... .. . ... ... : ... .. . ... ... : ... .. . ... ... : ... .. . ... : ... .. . ... ... : ... .. . ... ... ... ...
ROW 56 : ... .. . ... ... : ... .. . ... ... : ... .. . ... ... : ... .. . ... : ... .. . ... ... : ... .. . ... ... ... ...
ROW 57 : ... .. . ... ... : ... .. . ... ... : ... .. . ... ... : ... .. . ... : ... .. . ... ... : ... .. . ... ... ... ...
ROW 58 : ... .. . ... ... : ... .. . ... ... : ... .. . ... ... : ... .. . ... : ... .. . ... ... : ... .. . ... ... ... ...
ROW 59 : ... .. . ... ... : ... .. . ... ... : ... .. . ... ... : ... .. . ... : ... .. . ... ... : ... .. . ... ... ... ...
ROW 5A : ... .. . ... ... : ... .. . ... ... : ... .. . ... ... : ... .. . ... : ... .. . ... ... : ... .. . ... ... ... ...
ROW 5B : ... .. . ... ... : ... .. . ... ... : ... .. . ... ... : ... .. . ... : ... .. . ... ... : ... .. . ... ... ... ...
ROW 5C : ... .. . ... ... : ... .. . ... ... : ... .. . ... ... : ... .. . ... : ... .. . ... ... : ... .. . ... ... ... ...
ROW 5D : ... .. . ... ... : ... .. . ... ... : ... .. . ... ... : ... .. . ... : ... .. . ... ... : ... .. . ... ... ... ...
ROW 5E : ... .. . ... ... : ... .. . ... ... : ... .. . ... ... : ... .. . ... : ... .. . ... ... : ... .. . ... ... ... ...
ROW 5F : ... .. . ... ... : ... .. . ... ... : ... .. . ... ... : ... .. . ... : ... .. . ... ... : ... .. . ... ... ... ...
ROW 60 : ... .. . ... ... : ... .. . ... ... : ... .. . ... ... : ... .. . ... : ... .. . ... ... : ... .. . ... ... ... ...
ROW 61 : ... .. . ... ... : ... .. . ... ... : ... .. . ... ... : ... .. . ... : ... .. . ... ... : ... .. . ... ... ... ...
ROW 62 : ... .. . ... ... : ... .. . ... ... : ... .. . ... ... : ... .. . ... : ... .. . ... ... : ... .. . ... ... ... ...
ROW 63 : ... .. . ... ... : ... .. . ... ... : ... .. . ... ... : ... .. . ... : ... .. . ... ... : ... .. . ... ... ... ...
ROW 64 : ... .. . ... ... : ... .. . ... ... : ... .. . ... ... : ... .. . ... : ... .. . ... ... : ... .. . ... ... ... ...
ROW 65 : ... .. . ... ... : ... .. . ... ... : ... .. . ... ... : ... .. . ... : ... .. . ... ... : ... .. . ... ... ... ...
ROW 66 : ... .. . ... ... : ... .. . ... ... : ... .. . ... ... : ... .. . ... : ... .. . ... ... : ... .. . ... ... ... ...
ROW 67 : ... .. . ... ... : ... .. . ... ... : ... .. . ... ... : ... .. . ... : ... .. . ... ... : ... .. . ... ... ... ...
ROW 68 : ... .. . ... ... : ... .. . ... ... : ... .. . ... ... : ... .. . ... : ... .. . ... ... : ... .. . ... ... ... ...
ROW 69 : ... .. . ... ... : ... .. . ... ... : ... .. . ... ... : ... .. . ... : ... .. . ... ... : ... .. . ... ... ... ...
ROW 6A : ... .. . ... ... : ... .. . ... ... : ... .. . ... ... : ... .. . ... : ... .. . ... ... : ... .. . ... ... ... ...
ROW 6B : ... .. . ... ... : ... .. . ... ... : ... .. . ... ... : ... .. . ... : ... .. . ... ... : ... .. . ... ... ... ...
ROW 6C : ... .. . ... ... : ... .. . ... ... : ... .. . ... ... : ... .. . ... : ... .. . ... ... : ... .. . ... ... ... ...
ROW 6D : ... .. . ... ... : ... .. . ... ... : ... .. . ... ... : ... .. . ... : ... .. . ... ... : ... .. . ... ... ... ...
ROW 6E : ... .. . ... ... : ... .. . ... ... : ... .. . ... ... : ... .. . ... : ... .. . ... ... : ... .. . ... ... ... ...
ROW 6F : ... .. . ... ... : ... .. . ... ... : ... .. . ... ... : ... .. . ... : ... .. . ... ... : ... .. . ... ... ... ...
ROW 70 : ... .. . ... ... : ... .. . ... ... : ... .. . ... ... : ... .. . ... : ... .. . ... ... : ... .. . ... ... ... ...
ROW 71 : ... .. . ... ... : ... .. . ... ... : ... .. . ... ... : ... .. . ... : ... .. . ... ... : ... .. . ... ... ... ...
ROW 72 : ... .. . ... ... : ... .. . ... ... : ... .. . ... ... : ... .. . ... : ... .. . ... ... : ... .. . ... ... ... ...
ROW 73 : ... .. . ... ... : ... .. . ... ... : ... .. . ... ... : ... .. . ... : ... .. . ... ... : ... .. . ... ... ... ...
ROW 74 : ... .. . ... ... : ... .. . ... ... : ... .. . ... ... : ... .. . ... : ... .. . ... ... : ... .. . ... ... ... ...
ROW 75 : ... .. . ... ... : ... .. . ... ... : ... .. . ... ... : ... .. . ... : ... .. . ... ... : ... .. . ... ... ... ...
ROW 76 : ... .. . ... ... : ... .. . ... ... : ... .. . ... ... : ... .. . ... : ... .. . ... ... : ... .. . ... ... ... ...
ROW 77 : ... .. . ... ... : ... .. . ... ... : ... .. . ... ... : ... .. . ... : ... .. . ... ... : ... .. . ... ... ... ...
ROW 78 : ... .. . ... ... : ... .. . ... ... : ... .. . ... ... : ... .. . ... : ... .. . ... ... : ... .. . ... ... ... ...
ROW 79 : ... .. . ... ... : ... .. . ... ... : ... .. . ... ... : ... .. . ... : ... .. . ... ... : ... .. . ... ... ... ...
ROW 7A : ... .. . ... ... : ... .. . ... ... : ... .. . ... ... : ... .. . ... : ... .. . ... ... : ... .. . ... ... ... ...
ROW 7B : ... .. . ... ... : ... .. . ... ... : ... .. . ... ... : ... .. . ... : ... .. . ... ... : ... .. . ... ... ... ...
ROW 7C : ... .. . ... ... : ... .. . ... ... : ... .. . ... ... : ... .. . ... : ... .. . ... ... : ... .. . ... ... ... ...
ROW 7D : ... .. . ... ... : ... .. . ... ... : ... .. . ... ... : ... .. . ... : ... .. . ... ... : ... .. . ... ... ... ...
ROW 7E : ... .. . ... ... : ... .. . ... ... : ... .. . ... ... : ... .. . ... : ... .. . ... ... : ... .. . ... ... ... ...
ROW 7F : ... .. . ... ... : ... .. . ... ... : ... .. . ... ... : ... .. . ... : ... .. . ... ... : ... .. . ... ... ... ...
ROW 80 : ... .. . ... ... : ... .. . ... ... : ... .. . ... ... : ... .. . ... : ... .. . ... ... : ... .. . ... ... ... ...
ROW 81 : ... .. . ... ... : ... .. . ... ... : ... .. . ... ... : ... .. . ... : ... .. . ... ... : ... .. . ... ... ... ...
ROW 82 : ... .. . ... ... : ... .. . ... ... : ... .. . ... ... : ... .. . ... : ... .. . ... ... : ... .. . ... ... ... ...
ROW 83 : ... .. . ... ... : ... .. . ... ... : ... .. . ... ... : ... .. . ... : ... .. . ... ... : ... .. . ... ... ... ...
ROW 84 : ... .. . ... ... : ... .. . ... ... : ... .. . ... ... : ... .. . ... : ... .. . ... ... : ... .. . ... ... ... ...
ROW 85 : ... .. . ... ... : ... .. . ... ... : ... .. . ... ... : ... .. . ... : ... .. . ... ... : ... .. . ... ... ... ...
ROW 86 : ... .. . ... ... : ... .. . ... ... : ... .. . ... ... : ... .. . ... : ... .. . ... ... : ... .. . ... ... ... ...
ROW 87 : ... .. . ... ... : ... .. . ... ... : ... .. . ... ... : ... .. . ... : ... .. . ... ... : ... .. . ... ... ... ...
ROW 88 : ... .. . ... ... : ... .. . ... ... : ... .. . ... ... : ... .. . ... : ... .. . ... ... : ... .. . ... ... ... ...
ROW 89 : ... .. . ... ... : ... .. . ... ... : ... .. . ... ... : ... .. . ... : ... .. . ... ... : ... .. . ... ... ... ...
ROW 8A : ... .. . ... ... : ... .. . ... ... : ... .. . ... ... : ... .. . ... : ... .. . ... ... : ... .. . ... ... ... ...
ROW 8B : ... .. . ... ... : ... .. . ... ... : ... .. . ... ... : ... .. . ... : ... .. . ... ... : ... .. . ... ... ... ...
ROW 8C : ... .. . ... ... : ... .. . ... ... : ... .. . ... ... : ... .. . ... : ... .. . ... ... : ... .. . ... ... ... ...
ROW 8D : ... .. . ... ... : ... .. . ... ... : ... .. . ... ... : ... .. . ... : ... .. . ... ... : ... .. . ... ... ... ...
ROW 8E : ... .. . ... ... : ... .. . ... ... : ... .. . ... ... : ... .. . ... : ... .. . ... ... : ... .. . ... ... ... ...
ROW 8F : ... .. . ... ... : ... .. . ... ... : ... .. . ... ... : ... .. . ... : ... .. . ... ... : ... .. . ... ... ... ...
ROW 90 : ... .. . ... ... : ... .. . ... ... : ... .. . ... ... : ... .. . ... : ... .. . ... ... : ... .. . ... ... ... ...
ROW 91 : ... .. . ... ... : ... .. . ... ... : ... .. . ... ... : ... .. . ... : ... .. . ... ... : ... .. . ... ... ... ...
ROW 92 : ... .. . ... ... : ... .. . ... ... : ... .. . ... ... : ... .. . ... : ... .. . ... ... : ... .. . ... ... ... ...
ROW 93 : ... .. . ... ... : ... .. . ... ... : ... .. . ... ... : ... .. . ... : ... .. . ... ... : ... .. . ... ... ... ...
ROW 94 : ... .. . ... ... : ... .. . ... ... : ... .. . ... ... : ... .. . ... : ... .. . ... ... : ... .. . ... ... ... ...
ROW 95 : ... .. . ... ... : ... .. . ... ... : ... .. . ... ... : ... .. . ... : ... .. . ... ... : ... .. . ... ... ... ...
ROW 96 : ... .. . ... ... : ... .. . ... ... : ... .. . ... ... : ... .. . ... : ... .. . ... ... : ... .. . ... ... ... ...
ROW 97 : ... .. . ... ... : ... .. . ... ... : ... .. . ... ... : ... .. . ... : ... .. . ... ... : ... .. . ... ... ... ...
ROW 98 : ... .. . ... ... : ... .. . ... ... : ... .. . ... ... : ... .. . ... : ... .. . ... ... : ... .. . ... ... ... ...
ROW 99 : ... .. . ... ... : ... .. . ... ... : ... .. . ... ... : ... .. . ... : ... .. . ... ... : ... .. . ... ... ... ...
ROW 9A : ... .. . ... ... : ... .. . ... ... : ... .. . ... ... : ... .. . ... : ... .. . ... ... : ... .. . ... ... ... ...
ROW 9B : ... .. . ... ... : ... .. . ... ... : ... .. . ... ... : ... .. . ... : ... .. . ... ... : ... .. . ... ... ... ...
ROW 9C : ... .. . ... ... : ... .. . ... ... : ... .. . ... ... : ... .. . ... : ... .. . ... ... : ... .. . ... ... ... ...
ROW 9D : ... .. . ... ... : ... .. . ... ... : ... .. . ... ... : ... .. . ... : ... .. . ... ... : ... .. . ... ... ... ...
ROW 9E : ... .. . ... ... : ... .. . ... ... : ... .. . ... ... : ... .. . ... : ... .. . ... ... : ... .. . ... ... ... ...
ROW 9F : ... .. . ... ... : ... .. . ... ... : ... .. . ... ... : ... .. . ... : ... .. . ... ... : ... .. . ... ... ... ...
ROW A0 : ... .. . ... ... : ... .. . ... ... : ... .. . ... ... : ... .. . ... : ... .. . ... ... : ... .. . ... ... ... ...
ROW A1 : ... .. . ... ... : ... .. . ... ... : ... .. . ... ... : ... .. . ... : ... .. . ... ... : ... .. . ... ... ... ...
ROW A2 : ... .. . ... ... : ... .. . ... ... : ... .. . ... ... : ... .. . ... : ... .. . ... ... : ... .. . ... ... ... ...
ROW A3 : ... .. . ... ... : ... .. . ... ... : ... .. . ... ... : ... .. . ... : ... .. . ... ... : ... .. . ... ... ... ...
ROW A4 : ... .. . ... ... : ... .. . ... ... : ... .. . ... ... : ... .. . ... : ... .. . ... ... : ... .. . ... ... ... ...
ROW A5 : ... .. . ... ... : ... .. . ... ... : ... .. . ... ... : ... .. . ... : ... .. . ... ... : ... .. . ... ... ... ...
ROW A6 : ... .. . ... ... : ... .. . ... ... : ... .. . ... ... : ... .. . ... : ... .. . ... ... : ... .. . ... ... ... ...
ROW A7 : ... .. . ... ... : ... .. . ... ... : ... .. . ... ... : ... .. . ... : ... .. . ... ... : ... .. . ... ... ... ...
ROW A8 : ... .. . ... ... : ... .. . ... ... : ... .. . ... ... : ... .. . ... : ... .. . ... ... : ... .. . ... ... ... ...
ROW A9 : ... .. . ... ... : ... .. . ... ... : ... .. . ... ... : ... .. . ... : ... .. . ... ... : ... .. . ... ... ... ...
ROW AA : ... .. . ... ... : ... .. . ... ... : ... .. . ... ... : ... .. . ... : ... .. . ... ... : ... .. . ... ... ... ...
ROW AB : ... .. . ... ... : ... .. . ... ... : ... .. . ... ... : ... .. . ... : ... .. . ... ... : ... .. . ... ... ... ...
ROW AC : ... .. . ... ... : ... .. . ... ... : ... .. . ... ... : ... .. . ... : ... .. . ... ... : ... .. . ... ... ... ...
ROW AD : ... .. . ... ... : ... .. . ... ... : ... .. . ... ... : ... .. . ... : ... .. . ... ... : ... .. . ... ... ... ...
ROW AE : ... .. . ... ... : ... .. . ... ... : ... .. . ... ... : ... .. . ... : ... .. . ... ... : ... .. . ... ... ... ...
ROW AF : ... .. . ... ... : ... .. . ... ... : ... .. . ... ... : ... .. . ... : ... .. . ... ... : ... .. . ... ... ... ...
ROW B0 : ... .. . ... ... : ... .. . ... ... : ... .. . ... ... : ... .. . ... : ... .. . ... ... : ... .. . ... ... ... ...
ROW B1 : ... .. . ... ... : ... .. . ... ... : ... .. . ... ... : ... .. . ... : ... .. . ... ... : ... .. . ... ... ... ...
ROW B2 : ... .. . ... ... : ... .. . ... ... : ... .. . ... ... : ... .. . ... : ... .. . ... ... : ... .. . ... ... ... ...
ROW B3 : ... .. . ... ... : ... .. . ... ... : ... .. . ... ... : ... .. . ... : ... .. . ... ... : ... .. . ... ... ... ...
ROW B4 : ... .. . ... ... : ... .. . ... ... : ... .. . ... ... : ... .. . ... : ... .. . ... ... : ... .. . ... ... ... ...
ROW B5 : ... .. . ... ... : ... .. . ... ... : ... .. . ... ... : ... .. . ... : ... .. . ... ... : ... .. . ... ... ... ...
ROW B6 : ... .. . ... ... : ... .. . ... ... : ... .. . ... ... : ... .. . ... : ... .. . ... ... : ... .. . ... ... ... ...
ROW B7 : ... .. . ... ... : ... .. . ... ... : ... .. . ... ... : ... .. . ... : ... .. . ... ... : ... .. . ... ... ... ...
ROW B8 : ... .. . ... ... : ... .. . ... ... : ... .. . ... ... : ... .. . ... : ... .. . ... ... : ... .. . ... ... ... ...
ROW B9 : ... .. . ... ... : ... .. . ... ... : ... .. . ... ... : ... .. . ... : ... .. . ... ... : ... .. . ... ... ... ...
ROW BA : ... .. . ... ... : ... .. . ... ... : ... .. . ... ... : ... .. . ... : ... .. . ... ... : ... .. . ... ... ... ...
ROW BB : ... .. . ... ... : ... .. . ... ... : ... .. . ... ... : ... .. . ... : ... .. . ... ... : ... .. . ... ... ... ...
ROW BC : ... .. . ... ... : ... .. . ... ... : ... .. . ... ... : ... .. . ... : ... .. . ... ... : ... .. . ... ... ... ...
ROW BD : ... .. . ... ... : ... .. . ... ... : ... .. . ... ... : ... .. . ... : ... .. . ... ... : ... .. . ... ... ... ...
ROW BE : ... .. . ... ... : ... .. . ... ... : ... .. . ... ... : ... .. . ... : ... .. . ... ... : ... .. . ... ... ... ...
ROW BF : ... .. . ... ... : ... .. . ... ... : ... .. . ... ... : ... .. . ... : ... .. . ... ... : ... .. . ... ... ... ...
ROW C0 : ... .. . ... ... : ... .. . ... ... : ... .. . ... ... : ... .. . ... : ... .. . ... ... : ... .. . ... ... ... ...
ROW C1 : ... .. . ... ... : ... .. . ... ... : ... .. . ... ... : ... .. . ... : ... .. . ... ... : ... .. . ... ... ... ...
ROW C2 : ... .. . ... ... : ... .. . ... ... : ... .. . ... ... : ... .. . ... : ... .. . ... ... : ... .. . ... ... ... ...
ROW C3 : ... .. . ... ... : ... .. . ... ... : ... .. . ... ... : ... .. . ... : ... .. . ... ... : ... .. . ... ... ... ...
ROW C4 : ... .. . ... ... : ... .. . ... ... : ... .. . ... ... : ... .. . ... : ... .. . ... ... : ... .. . ... ... ... ...
ROW C5 : ... .. . ... ... : ... .. . ... ... : ... .. . ... ... : ... .. . ... : ... .. . ... ... : ... .. . ... ... ... ...
ROW C6 : ... .. . ... ... : ... .. . ... ... : ... .. . ... ... : ... .. . ... : ... .. . ... ... : ... .. . ... ... ... ...
ROW C7 : ... .. . ... ... : ... .. . ... ... : ... .. . ... ... : ... .. . ... : ... .. . ... ... : ... .. . ... ... ... ...
ROW C8 : ... .. . ... ... : ... .. . ... ... : ... .. . ... ... : ... .. . ... : ... .. . ... ... : ... .. . ... ... ... ...
ROW C9 : ... .. . ... ... : ... .. . ... ... : ... .. . ... ... : ... .. . ... : ... .. . ... ... : ... .. . ... ... ... ...
ROW CA : ... .. . ... ... : ... .. . ... ... : ... .. . ... ... : ... .. . ... : ... .. . ... ... : ... .. . ... ... ... ...
ROW CB : ... .. . ... ... : ... .. . ... ... : ... .. . ... ... : ... .. . ... : ... .. . ... ... : ... .. . ... ... ... ...
ROW CC : ... .. . ... ... : ... .. . ... ... : ... .. . ... ... : ... .. . ... : ... .. . ... ... : ... .. . ... ... ... ...
ROW CD : ... .. . ... ... : ... .. . ... ... : ... .. . ... ... : ... .. . ... : ... .. . ... ... : ... .. . ... ... ... ...
ROW CE : ... .. . ... ... : ... .. . ... ... : ... .. . ... ... : ... .. . ... : ... .. . ... ... : ... .. . ... ... ... ...
ROW CF : ... .. . ... ... : ... .. . ... ... : ... .. . ... ... : ... .. . ... : ... .. . ... ... : ... .. . ... ... ... ...
ROW D0 : ... .. . ... ... : ... .. . ... ... : ... .. . ... ... : ... .. . ... : ... .. . ... ... : ... .. . ... ... ... ...
ROW D1 : ... .. . ... ... : ... .. . ... ... : ... .. . ... ... : ... .. . ... : ... .. . ... ... : ... .. . ... ... ... ...
ROW D2 : ... .. . ... ... : ... .. . ... ... : ... .. . ... ... : ... .. . ... : ... .. . ... ... : ... .. . ... ... ... ...
ROW D3 : ... .. . ... ... : ... .. . ... ... : ... .. . ... ... : ... .. . ... : ... .. . ... ... : ... .. . ... ... ... ...
ROW D4 : ... .. . ... ... : ... .. . ... ... : ... .. . ... ... : ... .. . ... : ... .. . ... ... : ... .. . ... ... ... ...
ROW D5 : ... .. . ... ... : ... .. . ... ... : ... .. . ... ... : ... .. . ... : ... .. . ... ... : ... .. . ... ... ... ...
ROW D6 : ... .. . ... ... : ... .. . ... ... : ... .. . ... ... : ... .. . ... : ... .. . ... ... : ... .. . ... ... ... ...
ROW D7 : ... .. . ... ... : ... .. . ... ... : ... .. . ... ... : ... .. . ... : ... .. . ... ... : ... .. . ... ... ... ...
ROW D8 : ... .. . ... ... : ... .. . ... ... : ... .. . ... ... : ... .. . ... : ... .. . ... ... : ... .. . ... ... ... ...
ROW D9 : ... .. . ... ... : ... .. . ... ... : ... .. . ... ... : ... .. . ... : ... .. . ... ... : ... .. . ... ... ... ...
ROW DA : ... .. . ... ... : ... .. . ... ... : ... .. . ... ... : ... .. . ... : ... .. . ... ... : ... .. . ... ... ... ...
ROW DB : ... .. . ... ... : ... .. . ... ... : ... .. . ... ... : ... .. . ... : ... .. . ... ... : ... .. . ... ... ... ...
ROW DC : ... .. . ... ... : ... .. . ... ... : ... .. . ... ... : ... .. . ... : ... .. . ... ... : ... .. . ... ... ... ...
ROW DD : ... .. . ... ... : ... .. . ... ... : ... .. . ... ... : ... .. . ... : ... .. . ... ... : ... .. . ... ... ... ...
ROW DE : ... .. . ... ... : ... .. . ... ... : ... .. . ... ... : ... .. . ... : ... .. . ... ... : ... .. . ... ... ... ...
ROW DF : ... .. . ... ... : ... .. . ... ... : ... .. . ... ... : ... .. . ... : ... .. . ... ... : ... .. . ... ... ... ...
ROW E0 : ... .. . ... ... : ... .. . ... ... : ... .. . ... ... : ... .. . ... : ... .. . ... ... : ... .. . ... ... ... ...
ROW E1 : ... .. . ... ... : ... .. . ... ... : ... .. . ... ... : ... .. . ... : ... .. . ... ... : ... .. . ... ... ... ...
ROW E2 : ... .. . ... ... : ... .. . ... ... : ... .. . ... ... : ... .. . ... : ... .. . ... ... : ... .. . ... ... ... ...
ROW E3 : ... .. . ... ... : ... .. . ... ... : ... .. . ... ... : ... .. . ... : ... .. . ... ... : ... .. . ... ... ... ...
ROW E4 : ... .. . ... ... : ... .. . ... ... : ... .. . ... ... : ... .. . ... : ... .. . ... ... : ... .. . ... ... ... ...
ROW E5 : ... .. . ... ... : ... .. . ... ... : ... .. . ... ... : ... .. . ... : ... .. . ... ... : ... .. . ... ... ... ...
ROW E6 : ... .. . ... ... : ... .. . ... ... : ... .. . ... ... : ... .. . ... : ... .. . ... ... : ... .. . ... ... ... ...
ROW E7 : ... .. . ... ... : ... .. . ... ... : ... .. . ... ... : ... .. . ... : ... .. . ... ... : ... .. . ... ... ... ...
ROW E8 : ... .. . ... ... : ... .. . ... ... : ... .. . ... ... : ... .. . ... : ... .. . ... ... : ... .. . ... ... ... ...
ROW E9 : ... .. . ... ... : ... .. . ... ... : ... .. . ... ... : ... .. . ... : ... .. . ... ... : ... .. . ... ... ... ...
ROW EA : ... .. . ... ... : ... .. . ... ... : ... .. . ... ... : ... .. . ... : ... .. . ... ... : ... .. . ... ... ... ...
ROW EB : ... .. . ... ... : ... .. . ... ... : ... .. . ... ... : ... .. . ... : ... .. . ... ... : ... .. . ... ... ... ...
ROW EC : ... .. . ... ... : ... .. . ... ... : ... .. . ... ... : ... .. . ... : ... .. . ... ... : ... .. . ... ... ... ...
ROW ED : ... .. . ... ... : ... .. . ... ... : ... .. . ... ... : ... .. . ... : ... .. . ... ... : ... .. . ... ... ... ...
ROW EE : ... .. . ... ... : ... .. . ... ... : ... .. . ... ... : ... .. . ... : ... .. . ... ... : ... .. . ... ... ... ...
ROW EF : ... .. . ... ... : ... .. . ... ... : ... .. . ... ... : ... .. . ... : ... .. . ... ... : ... .. . ... ... ... ...
ROW F0 : ... .. . ... ... : ... .. . ... ... : ... .. . ... ... : ... .. . ... : ... .. . ... ... : ... .. . ... ... ... ...
ROW F1 : ... .. . ... ... : ... .. . ... ... : ... .. . ... ... : ... .. . ... : ... .. . ... ... : ... .. . ... ... ... ...
ROW F2 : ... .. . ... ... : ... .. . ... ... : ... .. . ... ... : ... .. . ... : ... .. . ... ... : ... .. . ... ... ... ...
ROW F3 : ... .. . ... ... : ... .. . ... ... : ... .. . ... ... : ... .. . ... : ... .. . ... ... : ... .. . ... ... ... ...
ROW F4 : ... .. . ... ... : ... .. . ... ... : ... .. . ... ... : ... .. . ... : ... .. . ... ... : ... .. . ... ... ... ...
ROW F5 : ... .. . ... ... : ... .. . ... ... : ... .. . ... ... : ... .. . ... : ... .. . ... ... : ... .. . ... ... ... ...
ROW F6 : ... .. . ... ... : ... .. . ... ... : ... .. . ... ... : ... .. . ... : ... .. . ... ... : ... .. . ... ... ... ...
ROW F7 : ... .. . ... ... : ... .. . ... ... : ... .. . ... ... : ... .. . ... : ... .. . ... ... : ... .. . ... ... ... ...
ROW F8 : ... .. . ... ... : ... .. . ... ... : ... .. . ... ... : ... .. . ... : ... .. . ... ... : ... .. . ... ... ... ...
ROW F9 : ... .. . ... ... : ... .. . ... ... : ... .. . ... ... : ... .. . ... : ... .. . ... ... : ... .. . ... ... ... ...
ROW FA : ... .. . ... ... : ... .. . ... ... : ... .. . ... ... : ... .. . ... : ... .. . ... ... : ... .. . ... ... ... ...
ROW FB : ... .. . ... ... : ... .. . ... ... : ... .. . ... ... : ... .. . ... : ... .. . ... ... : ... .. . ... ... ... ...
ROW FC : ... .. . ... ... : ... .. . ... ... : ... .. . ... ... : ... .. . ... : ... .. . ... ... : ... .. . ... ... ... ...
ROW FD : ... .. . ... ... : ... .. . ... ... : ... .. . ... ... : ... .. . ... : ... .. . ... ... : ... .. . ... ... ... ...
ROW FE : ... .. . ... ... : ... .. . ... ... : ... .. . ... ... : ... .. . ... : ... .. . ... ... : ... .. . ... ... ... ...
ROW FF : ... .. . ... ... : ... .. . ... ... : ... .. . ... ... : ... .. . ... : ... .. . ... ... : ... .. . ... ... ... ...

PATTERN 07
ROW 00 : C-5 03 7 V00 ... : C-3 07 8 ... ... : A#2 11 . ... ... : C-# 06 A ... : C-4 1E . F05 ... : A-5 0B A Q31 400 ... ...
ROW 01 : A-4 03 . ... ... : ... .. 7 ... ... : ... .. . S02 ... : ... .. . ... : ... .. . ... ... : ... .. . ... ... ... ...
ROW 02 : F-4 03 . ... ... : ... .. 6 ... ... : A#2 11 . ... ... : ... .. . ... : ... .. . ... ... : ... .. . ... ... ... ...
ROW 03 : C-4 03 . ... ... : ... .. 5 ... ... : ... .. . S02 ... : ... .. . ... : ... .. . ... ... : ... .. . ... ... ... ...
ROW 04 : A-3 03 . ... ... : ... .. 4 ... ... : A#4 03 . 236 ... : D-# 05 8 A00 : C-4 1E . ... ... : ... .. . ... ... ... ...
ROW 05 : F-3 03 . ... ... : ... .. 3 ... ... : ... .. . ... ... : ... .. . ... : ... .. . ... ... : ... .. . ... ... ... ...
ROW 06 : C-3 03 . ... ... : C-3 07 8 ... ... : A#2 11 . 200 ... : ... .. . ... : ... .. . ... ... : ... .. . ... ... ... ...
ROW 07 : A-2 03 . ... ... : ... .. 7 ... ... : ... .. . S02 ... : ... .. . ... : ... .. . ... ... : ... .. . ... ... ... ...
ROW 08 : C-5 03 6 V02 ... : ... .. 6 ... ... : A#2 11 . ... ... : D-# 05 6 ... : C-4 1E . ... ... : ... .. 9 ... 468 ... ...
ROW 09 : A-4 03 . ... ... : ... .. 5 ... ... : ... .. . S02 ... : ... .. . ... : ... .. . ... ... : ... .. . ... ... ... ...
ROW 0A : F-4 03 . ... ... : ... .. 4 ... ... : A#2 11 . ... ... : ... .. . ... : ... .. . ... ... : ... .. 8 ... ... ... ...
ROW 0B : C-4 03 . ... ... : ... .. 3 ... ... : ... .. . S02 ... : ... .. . ... : ... .. . ... ... : ... .. . ... ... ... ...
ROW 0C : A-3 03 . ... ... : C-3 07 8 ... ... : A#4 03 . 236 ... : D-# 05 4 ... : C-4 1E . ... ... : ... .. 7 ... ... ... ...
ROW 0D : F-3 03 . ... ... : ... .. 5 ... ... : ... .. . ... ... : ... .. . ... : ... .. . ... ... : ... .. . ... ... ... ...
ROW 0E : C-3 03 . ... ... : C-3 07 8 ... ... : A#2 11 . 200 ... : ... .. . ... : ... .. . ... ... : ... .. 6 ... ... ... ...
ROW 0F : A-2 03 . ... ... : ... .. 7 ... ... : ... .. . S02 ... : ... .. . ... : ... .. . ... ... : ... .. . ... ... ... ...
ROW 10 : C-5 03 5 V01 ... : ... .. 6 ... ... : A#2 11 . 200 ... : C-# 06 A ... : ... .. . ... ... : F#5 0B A Q31 400 ... ...
ROW 11 : A-4 03 4 ... ... : ... .. 5 ... ... : ... .. . S02 ... : ... .. . ... : ... .. . ... ... : ... .. . ... ... ... ...
ROW 12 : F-4 03 3 ... ... : ... .. 4 ... ... : A#2 11 . ... ... : ... .. . ... : ... .. . ... ... : ... .. . ... ... ... ...
ROW 13 : C-4 03 . ... ... : ... .. 3 ... ... : ... .. . S02 ... : ... .. . ... : ... .. . ... ... : ... .. . ... ... ... ...
ROW 14 : A-3 03 2 ... ... : ... .. 2 ... ... : A#4 03 . 236 ... : D-# 05 8 ... : ... .. . ... ... : ... .. . ... ... ... ...
ROW 15 : F-3 03 . ... ... : ... .. 1 ... ... : ... .. . ... ... : ... .. . ... : ... .. . ... ... : ... .. 8 ... ... ... ...
ROW 16 : C-3 03 1 ... ... : ... .. 0 ... ... : A#2 11 . 200 ... : ... .. . ... : ... .. . ... ... : ... .. 6 ... ... ... ...
ROW 17 : A-2 03 . ... ... : ... .. . ... ... : ... .. . S02 ... : ... .. . ... : ... .. . ... ... : ... .. 4 ... ... ... ...
ROW 18 : --- .. . ... ... : ... .. . ... ... : A#2 11 . ... ... : D-# 05 6 ... : ... .. . ... ... : D#6 0B A ... ... ... ...
ROW 19 : ... .. . ... ... : ... .. . ... ... : ... .. . S02 ... : ... .. . ... : ... .. . ... ... : ... .. . ... ... ... ...
ROW 1A : ... .. . ... ... : ... .. . ... ... : A#2 11 . ... ... : ... .. . ... : ... .. . ... ... : ... .. . ... ... ... ...
ROW 1B : ... .. . ... ... : ... .. . ... ... : ... .. . S02 ... : ... .. . ... : ... .. . ... ... : ... .. . ... ... ... ...
ROW 1C : ... .. . ... ... : ... .. . ... ... : A#4 03 . 236 ... : D-# 05 4 ... : ... .. . ... ... : ... .. . ... ... ... ...
ROW 1D : ... .. . ... ... : ... .. . ... ... : ... .. . ... ... : ... .. . ... : ... .. . ... ... : ... .. 8 ... ... ... ...
ROW 1E : ... .. . ... ... : ... .. . ... ... : A#2 11 . 200 ... : ... .. . ... : ... .. . ... ... : ... .. 6 ... ... ... ...
ROW 1F : ... .. . ... ... : ... .. . ... ... : ... .. . S02 ... : ... .. . ... : ... .. . ... ... : ... .. 4 ... ... ... ...
ROW 20 : ... .. . ... ... : ... .. . ... ... : C-3 11 . 200 ... : C-# 06 A ... : ... .. . ... ... : B-5 0B A Q31 400 ... ...
ROW 21 : ... .. . ... ... : ... .. . ... ... : ... .. . S02 ... : ... .. . ... : ... .. . ... ... : ... .. . ... ... ... ...
ROW 22 : ... .. . ... ... : ... .. . ... ... : C-3 11 . ... ... : ... .. . ... : ... .. . ... ... : ... .. . ... ... ... ...
ROW 23 : ... .. . ... ... : ... .. . ... ... : ... .. . S02 ... : ... .. . ... : ... .. . ... ... : ... .. . ... ... ... ...
ROW 24 : ... .. . ... ... : ... .. . ... ... : C-5 03 . 236 ... : D-# 05 8 ... : ... .. . ... ... : ... .. . ... ... ... ...
ROW 25 : ... .. . ... ... : ... .. . ... ... : ... .. . ... ... : ... .. . ... : ... .. . ... ... : ... .. . ... ... ... ...
ROW 26 : ... .. . ... ... : ... .. . ... ... : C-3 11 . 200 ... : ... .. . ... : ... .. . ... ... : ... .. . ... ... ... ...
ROW 27 : ... .. . ... ... : ... .. . ... ... : ... .. . S02 ... : ... .. . ... : ... .. . ... ... : ... .. . ... ... ... ...
ROW 28 : ... .. . ... ... : ... .. . ... ... : C-3 11 . ... ... : D-# 05 6 ... : ... .. . ... ... : ... .. . ... 468 ... ...
ROW 29 : ... .. . ... ... : ... .. . ... ... : ... .. . S02 ... : ... .. . ... : ... .. . ... ... : ... .. . ... ... ... ...
ROW 2A : ... .. . ... ... : ... .. . ... ... : C-3 11 . ... ... : ... .. . ... : ... .. . ... ... : ... .. . ... ... ... ...
ROW 2B : ... .. . ... ... : ... .. . ... ... : ... .. . S02 ... : ... .. . ... : ... .. . ... ... : ... .. . ... ... ... ...
ROW 2C : ... .. . ... ... : ... .. . ... ... : C-5 03 . 236 ... : D-# 05 4 ... : ... .. . ... ... : ... .. . ... ... ... ...
ROW 2D : ... .. . ... ... : ... .. . ... ... : ... .. . ... ... : ... .. . ... : ... .. . ... ... : ... .. . ... ... ... ...
ROW 2E : ... .. . ... ... : ... .. . ... ... : C-3 11 . 200 ... : ... .. . ... : ... .. . ... ... : ... .. . ... ... ... ...
ROW 2F : ... .. . ... ... : ... .. . ... ... : ... .. . S02 ... : ... .. . ... : ... .. . ... ... : ... .. . ... ... ... ...
ROW 30 : ... .. . ... ... : ... .. . ... ... : C-3 11 . 200 ... : C-# 06 A ... : ... .. . ... ... : ... .. 9 ... ... ... ...
ROW 31 : ... .. . ... ... : ... .. . ... ... : ... .. . S02 ... : ... .. . ... : ... .. . ... ... : ... .. . ... ... ... ...
ROW 32 : ... .. . ... ... : ... .. . ... ... : C-3 11 . ... ... : ... .. . ... : ... .. . ... ... : ... .. 8 ... ... ... ...
ROW 33 : ... .. . ... ... : ... .. . ... ... : ... .. . S02 ... : ... .. . ... : ... .. . ... ... : ... .. . ... ... ... ...
ROW 34 : ... .. . ... ... : ... .. . ... ... : C-5 03 . 236 ... : D-# 05 8 ... : ... .. . ... ... : ... .. 7 ... ... ... ...
ROW 35 : ... .. . ... ... : ... .. . ... ... : ... .. . ... ... : ... .. . ... : ... .. . ... ... : ... .. . ... ... ... ...
ROW 36 : ... .. . ... ... : ... .. . ... ... : C-3 11 . 200 ... : ... .. . ... : ... .. . ... ... : ... .. 6 ... ... ... ...
ROW 37 : ... .. . ... ... : ... .. . ... ... : ... .. . S02 ... : ... .. . ... : ... .. . ... ... : ... .. . ... ... ... ...
ROW 38 : ... .. . ... ... : ... .. . ... ... : C-3 11 . ... ... : D-# 05 6 ... : ... .. . ... ... : ... .. 5 ... ... ... ...
ROW 39 : ... .. . ... ... : ... .. . ... ... : ... .. . S02 ... : ... .. . ... : ... .. . ... ... : ... .. . ... ... ... ...
ROW 3A : ... .. . ... ... : ... .. . ... ... : C-3 11 . ... ... : ... .. . ... : ... .. . ... ... : ... .. 4 ... ... ... ...
ROW 3B : ... .. . ... ... : ... .. . ... ... : ... .. . S02 ... : ... .. . ... : ... .. . ... ... : ... .. . ... ... ... ...
ROW 3C : ... .. . ... ... : ... .. . ... ... : C-5 03 . 236 ... : D-# 05 4 ... : ... .. . ... ... : ... .. 3 ... ... ... ...
ROW 3D : ... .. . ... ... : ... .. . ... ... : ... .. . ... ... : ... .. . ... : ... .. . ... ... : ... .. . ... ... ... ...
ROW 3E : ... .. . ... ... : ... .. . ... ... : C-3 11 . 200 ... : ... .. . ... : ... .. . ... ... : ... .. 2 ... ... ... ...
ROW 3F : ... .. . ... ... : ... .. . ... ... : ... .. . S02 ... : ... .. . ... : ... .. . D00 ... : ... .. . ... ... ... ...
ROW 40 : ... .. . ... ... : ... .. . ... ... : ... .. . ... ... : ... .. . ... : ... .. . ... ... : ... .. . ... ... ... ...
ROW 41 : ... .. . ... ... : ... .. . ... ... : ... .. . ... ... : ... .. . ... : ... .. . ... ... : ... .. . ... ... ... ...
ROW 42 : ... .. . ... ... : ... .. . ... ... : ... .. . ... ... : ... .. . ... : ... .. . ... ... : ... .. . ... ... ... ...
ROW 43 : ... .. . ... ... : ... .. . ... ... : ... .. . ... ... : ... .. . ... : ... .. . ... ... : ... .. . ... ... ... ...
ROW 44 : ... .. . ... ... : ... .. . ... ... : ... .. . ... ... : ... .. . ... : ... .. . ... ... : ... .. . ... ... ... ...
ROW 45 : ... .. . ... ... : ... .. . ... ... : ... .. . ... ... : ... .. . ... : ... .. . ... ... : ... .. . ... ... ... ...
ROW 46 : ... .. . ... ... : ... .. . ... ... : ... .. . ... ... : ... .. . ... : ... .. . ... ... : ... .. . ... ... ... ...
ROW 47 : ... .. . ... ... : ... .. . ... ... : ... .. . ... ... : ... .. . ... : ... .. . ... ... : ... .. . ... ... ... ...
ROW 48 : ... .. . ... ... : ... .. . ... ... : ... .. . ... ... : ... .. . ... : ... .. . ... ... : ... .. . ... ... ... ...
ROW 49 : ... .. . ... ... : ... .. . ... ... : ... .. . ... ... : ... .. . ... : ... .. . ... ... : ... .. . ... ... ... ...
ROW 4A : ... .. . ... ... : ... .. . ... ... : ... .. . ... ... : ... .. . ... : ... .. . ... ... : ... .. . ... ... ... ...
ROW 4B : ... .. . ... ... : ... .. . ... ... : ... .. . ... ... : ... .. . ... : ... .. . ... ... : ... .. . ... ... ... ...
ROW 4C : ... .. . ... ... : ... .. . ... ... : ... .. . ... ... : ... .. . ... : ... .. . ... ... : ... .. . ... ... ... ...
ROW 4D : ... .. . ... ... : ... .. . ... ... : ... .. . ... ... : ... .. . ... : ... .. . ... ... : ... .. . ... ... ... ...
ROW 4E : ... .. . ... ... : ... .. . ... ... : ... .. . ... ... : ... .. . ... : ... .. . ... ... : ... .. . ... ... ... ...
ROW 4F : ... .. . ... ... : ... .. . ... ... : ... .. . ... ... : ... .. . ... : ... .. . ... ... : ... .. . ... ... ... ...
ROW 50 : ... .. . ... ... : ... .. . ... ... : ... .. . ... ... : ... .. . ... : ... .. . ... ... : ... .. . ... ... ... ...
ROW 51 : ... .. . ... ... : ... .. . ... ... : ... .. . ... ... : ... .. . ... : ... .. . ... ... : ... .. . ... ... ... ...
ROW 52 : ... .. . ... ... : ... .. . ... ... : ... .. . ... ... : ... .. . ... : ... .. . ... ... : ... .. . ... ... ... ...
ROW 53 : ... .. . ... ... : ... .. . ... ... : ... .. . ... ... : ... .. . ... : ... .. . ... ... : ... .. . ... ... ... ...
ROW 54 : ... .. . ... ... : ... .. . ... ... : ... .. . ... ... : ... .. . ... : ... .. . ... ... : ... .. . ... ... ... ...
ROW 55 : ... .. . ... ... : ... .. . ... ... : ... .. . ... ... : ... .. . ... : ... .. . ... ... : ... .. . ... ... ... ...
ROW 56 : ... .. . ... ... : ... .. . ... ... : ... .. . ... ... : ... .. . ... : ... .. . ... ... : ... .. . ... ... ... ...
ROW 57 : ... .. . ... ... : ... .. . ... ... : ... .. . ... ... : ... .. . ... : ... .. . ... ... : ... .. . ... ... ... ...
ROW 58 : ... .. . ... ... : ... .. . ... ... : ... .. . ... ... : ... .. . ... : ... .. . ... ... : ... .. . ... ... ... ...
ROW 59 : ... .. . ... ... : ... .. . ... ... : ... .. . ... ... : ... .. . ... : ... .. . ... ... : ... .. . ... ... ... ...
ROW 5A : ... .. . ... ... : ... .. . ... ... : ... .. . ... ... : ... .. . ... : ... .. . ... ... : ... .. . ... ... ... ...
ROW 5B : ... .. . ... ... : ... .. . ... ... : ... .. . ... ... : ... .. . ... : ... .. . ... ... : ... .. . ... ... ... ...
ROW 5C : ... .. . ... ... : ... .. . ... ... : ... .. . ... ... : ... .. . ... : ... .. . ... ... : ... .. . ... ... ... ...
ROW 5D : ... .. . ... ... : ... .. . ... ... : ... .. . ... ... : ... .. . ... : ... .. . ... ... : ... .. . ... ... ... ...
ROW 5E : ... .. . ... ... : ... .. . ... ... : ... .. . ... ... : ... .. . ... : ... .. . ... ... : ... .. . ... ... ... ...
ROW 5F : ... .. . ... ... : ... .. . ... ... : ... .. . ... ... : ... .. . ... : ... .. . ... ... : ... .. . ... ... ... ...
ROW 60 : ... .. . ... ... : ... .. . ... ... : ... .. . ... ... : ... .. . ... : ... .. . ... ... : ... .. . ... ... ... ...
ROW 61 : ... .. . ... ... : ... .. . ... ... : ... .. . ... ... : ... .. . ... : ... .. . ... ... : ... .. . ... ... ... ...
ROW 62 : ... .. . ... ... : ... .. . ... ... : ... .. . ... ... : ... .. . ... : ... .. . ... ... : ... .. . ... ... ... ...
ROW 63 : ... .. . ... ... : ... .. . ... ... : ... .. . ... ... : ... .. . ... : ... .. . ... ... : ... .. . ... ... ... ...
ROW 64 : ... .. . ... ... : ... .. . ... ... : ... .. . ... ... : ... .. . ... : ... .. . ... ... : ... .. . ... ... ... ...
ROW 65 : ... .. . ... ... : ... .. . ... ... : ... .. . ... ... : ... .. . ... : ... .. . ... ... : ... .. . ... ... ... ...
ROW 66 : ... .. . ... ... : ... .. . ... ... : ... .. . ... ... : ... .. . ... : ... .. . ... ... : ... .. . ... ... ... ...
ROW 67 : ... .. . ... ... : ... .. . ... ... : ... .. . ... ... : ... .. . ... : ... .. . ... ... : ... .. . ... ... ... ...
ROW 68 : ... .. . ... ... : ... .. . ... ... : ... .. . ... ... : ... .. . ... : ... .. . ... ... : ... .. . ... ... ... ...
ROW 69 : ... .. . ... ... : ... .. . ... ... : ... .. . ... ... : ... .. . ... : ... .. . ... ... : ... .. . ... ... ... ...
ROW 6A : ... .. . ... ... : ... .. . ... ... : ... .. . ... ... : ... .. . ... : ... .. . ... ... : ... .. . ... ... ... ...
ROW 6B : ... .. . ... ... : ... .. . ... ... : ... .. . ... ... : ... .. . ... : ... .. . ... ... : ... .. . ... ... ... ...
ROW 6C : ... .. . ... ... : ... .. . ... ... : ... .. . ... ... : ... .. . ... : ... .. . ... ... : ... .. . ... ... ... ...
ROW 6D : ... .. . ... ... : ... .. . ... ... : ... .. . ... ... : ... .. . ... : ... .. . ... ... : ... .. . ... ... ... ...
ROW 6E : ... .. . ... ... : ... .. . ... ... : ... .. . ... ... : ... .. . ... : ... .. . ... ... : ... .. . ... ... ... ...
ROW 6F : ... .. . ... ... : ... .. . ... ... : ... .. . ... ... : ... .. . ... : ... .. . ... ... : ... .. . ... ... ... ...
ROW 70 : ... .. . ... ... : ... .. . ... ... : ... .. . ... ... : ... .. . ... : ... .. . ... ... : ... .. . ... ... ... ...
ROW 71 : ... .. . ... ... : ... .. . ... ... : ... .. . ... ... : ... .. . ... : ... .. . ... ... : ... .. . ... ... ... ...
ROW 72 : ... .. . ... ... : ... .. . ... ... : ... .. . ... ... : ... .. . ... : ... .. . ... ... : ... .. . ... ... ... ...
ROW 73 : ... .. . ... ... : ... .. . ... ... : ... .. . ... ... : ... .. . ... : ... .. . ... ... : ... .. . ... ... ... ...
ROW 74 : ... .. . ... ... : ... .. . ... ... : ... .. . ... ... : ... .. . ... : ... .. . ... ... : ... .. . ... ... ... ...
ROW 75 : ... .. . ... ... : ... .. . ... ... : ... .. . ... ... : ... .. . ... : ... .. . ... ... : ... .. . ... ... ... ...
ROW 76 : ... .. . ... ... : ... .. . ... ... : ... .. . ... ... : ... .. . ... : ... .. . ... ... : ... .. . ... ... ... ...
ROW 77 : ... .. . ... ... : ... .. . ... ... : ... .. . ... ... : ... .. . ... : ... .. . ... ... : ... .. . ... ... ... ...
ROW 78 : ... .. . ... ... : ... .. . ... ... : ... .. . ... ... : ... .. . ... : ... .. . ... ... : ... .. . ... ... ... ...
ROW 79 : ... .. . ... ... : ... .. . ... ... : ... .. . ... ... : ... .. . ... : ... .. . ... ... : ... .. . ... ... ... ...
ROW 7A : ... .. . ... ... : ... .. . ... ... : ... .. . ... ... : ... .. . ... : ... .. . ... ... : ... .. . ... ... ... ...
ROW 7B : ... .. . ... ... : ... .. . ... ... : ... .. . ... ... : ... .. . ... : ... .. . ... ... : ... .. . ... ... ... ...
ROW 7C : ... .. . ... ... : ... .. . ... ... : ... .. . ... ... : ... .. . ... : ... .. . ... ... : ... .. . ... ... ... ...
ROW 7D : ... .. . ... ... : ... .. . ... ... : ... .. . ... ... : ... .. . ... : ... .. . ... ... : ... .. . ... ... ... ...
ROW 7E : ... .. . ... ... : ... .. . ... ... : ... .. . ... ... : ... .. . ... : ... .. . ... ... : ... .. . ... ... ... ...
ROW 7F : ... .. . ... ... : ... .. . ... ... : ... .. . ... ... : ... .. . ... : ... .. . ... ... : ... .. . ... ... ... ...
ROW 80 : ... .. . ... ... : ... .. . ... ... : ... .. . ... ... : ... .. . ... : ... .. . ... ... : ... .. . ... ... ... ...
ROW 81 : ... .. . ... ... : ... .. . ... ... : ... .. . ... ... : ... .. . ... : ... .. . ... ... : ... .. . ... ... ... ...
ROW 82 : ... .. . ... ... : ... .. . ... ... : ... .. . ... ... : ... .. . ... : ... .. . ... ... : ... .. . ... ... ... ...
ROW 83 : ... .. . ... ... : ... .. . ... ... : ... .. . ... ... : ... .. . ... : ... .. . ... ... : ... .. . ... ... ... ...
ROW 84 : ... .. . ... ... : ... .. . ... ... : ... .. . ... ... : ... .. . ... : ... .. . ... ... : ... .. . ... ... ... ...
ROW 85 : ... .. . ... ... : ... .. . ... ... : ... .. . ... ... : ... .. . ... : ... .. . ... ... : ... .. . ... ... ... ...
ROW 86 : ... .. . ... ... : ... .. . ... ... : ... .. . ... ... : ... .. . ... : ... .. . ... ... : ... .. . ... ... ... ...
ROW 87 : ... .. . ... ... : ... .. . ... ... : ... .. . ... ... : ... .. . ... : ... .. . ... ... : ... .. . ... ... ... ...
ROW 88 : ... .. . ... ... : ... .. . ... ... : ... .. . ... ... : ... .. . ... : ... .. . ... ... : ... .. . ... ... ... ...
ROW 89 : ... .. . ... ... : ... .. . ... ... : ... .. . ... ... : ... .. . ... : ... .. . ... ... : ... .. . ... ... ... ...
ROW 8A : ... .. . ... ... : ... .. . ... ... : ... .. . ... ... : ... .. . ... : ... .. . ... ... : ... .. . ... ... ... ...
ROW 8B : ... .. . ... ... : ... .. . ... ... : ... .. . ... ... : ... .. . ... : ... .. . ... ... : ... .. . ... ... ... ...
ROW 8C : ... .. . ... ... : ... .. . ... ... : ... .. . ... ... : ... .. . ... : ... .. . ... ... : ... .. . ... ... ... ...
ROW 8D : ... .. . ... ... : ... .. . ... ... : ... .. . ... ... : ... .. . ... : ... .. . ... ... : ... .. . ... ... ... ...
ROW 8E : ... .. . ... ... : ... .. . ... ... : ... .. . ... ... : ... .. . ... : ... .. . ... ... : ... .. . ... ... ... ...
ROW 8F : ... .. . ... ... : ... .. . ... ... : ... .. . ... ... : ... .. . ... : ... .. . ... ... : ... .. . ... ... ... ...
ROW 90 : ... .. . ... ... : ... .. . ... ... : ... .. . ... ... : ... .. . ... : ... .. . ... ... : ... .. . ... ... ... ...
ROW 91 : ... .. . ... ... : ... .. . ... ... : ... .. . ... ... : ... .. . ... : ... .. . ... ... : ... .. . ... ... ... ...
ROW 92 : ... .. . ... ... : ... .. . ... ... : ... .. . ... ... : ... .. . ... : ... .. . ... ... : ... .. . ... ... ... ...
ROW 93 : ... .. . ... ... : ... .. . ... ... : ... .. . ... ... : ... .. . ... : ... .. . ... ... : ... .. . ... ... ... ...
ROW 94 : ... .. . ... ... : ... .. . ... ... : ... .. . ... ... : ... .. . ... : ... .. . ... ... : ... .. . ... ... ... ...
ROW 95 : ... .. . ... ... : ... .. . ... ... : ... .. . ... ... : ... .. . ... : ... .. . ... ... : ... .. . ... ... ... ...
ROW 96 : ... .. . ... ... : ... .. . ... ... : ... .. . ... ... : ... .. . ... : ... .. . ... ... : ... .. . ... ... ... ...
ROW 97 : ... .. . ... ... : ... .. . ... ... : ... .. . ... ... : ... .. . ... : ... .. . ... ... : ... .. . ... ... ... ...
ROW 98 : ... .. . ... ... : ... .. . ... ... : ... .. . ... ... : ... .. . ... : ... .. . ... ... : ... .. . ... ... ... ...
ROW 99 : ... .. . ... ... : ... .. . ... ... : ... .. . ... ... : ... .. . ... : ... .. . ... ... : ... .. . ... ... ... ...
ROW 9A : ... .. . ... ... : ... .. . ... ... : ... .. . ... ... : ... .. . ... : ... .. . ... ... : ... .. . ... ... ... ...
ROW 9B : ... .. . ... ... : ... .. . ... ... : ... .. . ... ... : ... .. . ... : ... .. . ... ... : ... .. . ... ... ... ...
ROW 9C : ... .. . ... ... : ... .. . ... ... : ... .. . ... ... : ... .. . ... : ... .. . ... ... : ... .. . ... ... ... ...
ROW 9D : ... .. . ... ... : ... .. . ... ... : ... .. . ... ... : ... .. . ... : ... .. . ... ... : ... .. . ... ... ... ...
ROW 9E : ... .. . ... ... : ... .. . ... ... : ... .. . ... ... : ... .. . ... : ... .. . ... ... : ... .. . ... ... ... ...
ROW 9F : ... .. . ... ... : ... .. . ... ... : ... .. . ... ... : ... .. . ... : ... .. . ... ... : ... .. . ... ... ... ...
ROW A0 : ... .. . ... ... : ... .. . ... ... : ... .. . ... ... : ... .. . ... : ... .. . ... ... : ... .. . ... ... ... ...
ROW A1 : ... .. . ... ... : ... .. . ... ... : ... .. . ... ... : ... .. . ... : ... .. . ... ... : ... .. . ... ... ... ...
ROW A2 : ... .. . ... ... : ... .. . ... ... : ... .. . ... ... : ... .. . ... : ... .. . ... ... : ... .. . ... ... ... ...
ROW A3 : ... .. . ... ... : ... .. . ... ... : ... .. . ... ... : ... .. . ... : ... .. . ... ... : ... .. . ... ... ... ...
ROW A4 : ... .. . ... ... : ... .. . ... ... : ... .. . ... ... : ... .. . ... : ... .. . ... ... : ... .. . ... ... ... ...
ROW A5 : ... .. . ... ... : ... .. . ... ... : ... .. . ... ... : ... .. . ... : ... .. . ... ... : ... .. . ... ... ... ...
ROW A6 : ... .. . ... ... : ... .. . ... ... : ... .. . ... ... : ... .. . ... : ... .. . ... ... : ... .. . ... ... ... ...
ROW A7 : ... .. . ... ... : ... .. . ... ... : ... .. . ... ... : ... .. . ... : ... .. . ... ... : ... .. . ... ... ... ...
ROW A8 : ... .. . ... ... : ... .. . ... ... : ... .. . ... ... : ... .. . ... : ... .. . ... ... : ... .. . ... ... ... ...
ROW A9 : ... .. . ... ... : ... .. . ... ... : ... .. . ... ... : ... .. . ... : ... .. . ... ... : ... .. . ... ... ... ...
ROW AA : ... .. . ... ... : ... .. . ... ... : ... .. . ... ... : ... .. . ... : ... .. . ... ... : ... .. . ... ... ... ...
ROW AB : ... .. . ... ... : ... .. . ... ... : ... .. . ... ... : ... .. . ... : ... .. . ... ... : ... .. . ... ... ... ...
ROW AC : ... .. . ... ... : ... .. . ... ... : ... .. . ... ... : ... .. . ... : ... .. . ... ... : ... .. . ... ... ... ...
ROW AD : ... .. . ... ... : ... .. . ... ... : ... .. . ... ... : ... .. . ... : ... .. . ... ... : ... .. . ... ... ... ...
ROW AE : ... .. . ... ... : ... .. . ... ... : ... .. . ... ... : ... .. . ... : ... .. . ... ... : ... .. . ... ... ... ...
ROW AF : ... .. . ... ... : ... .. . ... ... : ... .. . ... ... : ... .. . ... : ... .. . ... ... : ... .. . ... ... ... ...
ROW B0 : ... .. . ... ... : ... .. . ... ... : ... .. . ... ... : ... .. . ... : ... .. . ... ... : ... .. . ... ... ... ...
ROW B1 : ... .. . ... ... : ... .. . ... ... : ... .. . ... ... : ... .. . ... : ... .. . ... ... : ... .. . ... ... ... ...
ROW B2 : ... .. . ... ... : ... .. . ... ... : ... .. . ... ... : ... .. . ... : ... .. . ... ... : ... .. . ... ... ... ...
ROW B3 : ... .. . ... ... : ... .. . ... ... : ... .. . ... ... : ... .. . ... : ... .. . ... ... : ... .. . ... ... ... ...
ROW B4 : ... .. . ... ... : ... .. . ... ... : ... .. . ... ... : ... .. . ... : ... .. . ... ... : ... .. . ... ... ... ...
ROW B5 : ... .. . ... ... : ... .. . ... ... : ... .. . ... ... : ... .. . ... : ... .. . ... ... : ... .. . ... ... ... ...
ROW B6 : ... .. . ... ... : ... .. . ... ... : ... .. . ... ... : ... .. . ... : ... .. . ... ... : ... .. . ... ... ... ...
ROW B7 : ... .. . ... ... : ... .. . ... ... : ... .. . ... ... : ... .. . ... : ... .. . ... ... : ... .. . ... ... ... ...
ROW B8 : ... .. . ... ... : ... .. . ... ... : ... .. . ... ... : ... .. . ... : ... .. . ... ... : ... .. . ... ... ... ...
ROW B9 : ... .. . ... ... : ... .. . ... ... : ... .. . ... ... : ... .. . ... : ... .. . ... ... : ... .. . ... ... ... ...
ROW BA : ... .. . ... ... : ... .. . ... ... : ... .. . ... ... : ... .. . ... : ... .. . ... ... : ... .. . ... ... ... ...
ROW BB : ... .. . ... ... : ... .. . ... ... : ... .. . ... ... : ... .. . ... : ... .. . ... ... : ... .. . ... ... ... ...
ROW BC : ... .. . ... ... : ... .. . ... ... : ... .. . ... ... : ... .. . ... : ... .. . ... ... : ... .. . ... ... ... ...
ROW BD : ... .. . ... ... : ... .. . ... ... : ... .. . ... ... : ... .. . ... : ... .. . ... ... : ... .. . ... ... ... ...
ROW BE : ... .. . ... ... : ... .. . ... ... : ... .. . ... ... : ... .. . ... : ... .. . ... ... : ... .. . ... ... ... ...
ROW BF : ... .. . ... ... : ... .. . ... ... : ... .. . ... ... : ... .. . ... : ... .. . ... ... : ... .. . ... ... ... ...
ROW C0 : ... .. . ... ... : ... .. . ... ... : ... .. . ... ... : ... .. . ... : ... .. . ... ... : ... .. . ... ... ... ...
ROW C1 : ... .. . ... ... : ... .. . ... ... : ... .. . ... ... : ... .. . ... : ... .. . ... ... : ... .. . ... ... ... ...
ROW C2 : ... .. . ... ... : ... .. . ... ... : ... .. . ... ... : ... .. . ... : ... .. . ... ... : ... .. . ... ... ... ...
ROW C3 : ... .. . ... ... : ... .. . ... ... : ... .. . ... ... : ... .. . ... : ... .. . ... ... : ... .. . ... ... ... ...
ROW C4 : ... .. . ... ... : ... .. . ... ... : ... .. . ... ... : ... .. . ... : ... .. . ... ... : ... .. . ... ... ... ...
ROW C5 : ... .. . ... ... : ... .. . ... ... : ... .. . ... ... : ... .. . ... : ... .. . ... ... : ... .. . ... ... ... ...
ROW C6 : ... .. . ... ... : ... .. . ... ... : ... .. . ... ... : ... .. . ... : ... .. . ... ... : ... .. . ... ... ... ...
ROW C7 : ... .. . ... ... : ... .. . ... ... : ... .. . ... ... : ... .. . ... : ... .. . ... ... : ... .. . ... ... ... ...
ROW C8 : ... .. . ... ... : ... .. . ... ... : ... .. . ... ... : ... .. . ... : ... .. . ... ... : ... .. . ... ... ... ...
ROW C9 : ... .. . ... ... : ... .. . ... ... : ... .. . ... ... : ... .. . ... : ... .. . ... ... : ... .. . ... ... ... ...
ROW CA : ... .. . ... ... : ... .. . ... ... : ... .. . ... ... : ... .. . ... : ... .. . ... ... : ... .. . ... ... ... ...
ROW CB : ... .. . ... ... : ... .. . ... ... : ... .. . ... ... : ... .. . ... : ... .. . ... ... : ... .. . ... ... ... ...
ROW CC : ... .. . ... ... : ... .. . ... ... : ... .. . ... ... : ... .. . ... : ... .. . ... ... : ... .. . ... ... ... ...
ROW CD : ... .. . ... ... : ... .. . ... ... : ... .. . ... ... : ... .. . ... : ... .. . ... ... : ... .. . ... ... ... ...
ROW CE : ... .. . ... ... : ... .. . ... ... : ... .. . ... ... : ... .. . ... : ... .. . ... ... : ... .. . ... ... ... ...
ROW CF : ... .. . ... ... : ... .. . ... ... : ... .. . ... ... : ... .. . ... : ... .. . ... ... : ... .. . ... ... ... ...
ROW D0 : ... .. . ... ... : ... .. . ... ... : ... .. . ... ... : ... .. . ... : ... .. . ... ... : ... .. . ... ... ... ...
ROW D1 : ... .. . ... ... : ... .. . ... ... : ... .. . ... ... : ... .. . ... : ... .. . ... ... : ... .. . ... ... ... ...
ROW D2 : ... .. . ... ... : ... .. . ... ... : ... .. . ... ... : ... .. . ... : ... .. . ... ... : ... .. . ... ... ... ...
ROW D3 : ... .. . ... ... : ... .. . ... ... : ... .. . ... ... : ... .. . ... : ... .. . ... ... : ... .. . ... ... ... ...
ROW D4 : ... .. . ... ... : ... .. . ... ... : ... .. . ... ... : ... .. . ... : ... .. . ... ... : ... .. . ... ... ... ...
ROW D5 : ... .. . ... ... : ... .. . ... ... : ... .. . ... ... : ... .. . ... : ... .. . ... ... : ... .. . ... ... ... ...
ROW D6 : ... .. . ... ... : ... .. . ... ... : ... .. . ... ... : ... .. . ... : ... .. . ... ... : ... .. . ... ... ... ...
ROW D7 : ... .. . ... ... : ... .. . ... ... : ... .. . ... ... : ... .. . ... : ... .. . ... ... : ... .. . ... ... ... ...
ROW D8 : ... .. . ... ... : ... .. . ... ... : ... .. . ... ... : ... .. . ... : ... .. . ... ... : ... .. . ... ... ... ...
ROW D9 : ... .. . ... ... : ... .. . ... ... : ... .. . ... ... : ... .. . ... : ... .. . ... ... : ... .. . ... ... ... ...
ROW DA : ... .. . ... ... : ... .. . ... ... : ... .. . ... ... : ... .. . ... : ... .. . ... ... : ... .. . ... ... ... ...
ROW DB : ... .. . ... ... : ... .. . ... ... : ... .. . ... ... : ... .. . ... : ... .. . ... ... : ... .. . ... ... ... ...
ROW DC : ... .. . ... ... : ... .. . ... ... : ... .. . ... ... : ... .. . ... : ... .. . ... ... : ... .. . ... ... ... ...
ROW DD : ... .. . ... ... : ... .. . ... ... : ... .. . ... ... : ... .. . ... : ... .. . ... ... : ... .. . ... ... ... ...
ROW DE : ... .. . ... ... : ... .. . ... ... : ... .. . ... ... : ... .. . ... : ... .. . ... ... : ... .. . ... ... ... ...
ROW DF : ... .. . ... ... : ... .. . ... ... : ... .. . ... ... : ... .. . ... : ... .. . ... ... : ... .. . ... ... ... ...
ROW E0 : ... .. . ... ... : ... .. . ... ... : ... .. . ... ... : ... .. . ... : ... .. . ... ... : ... .. . ... ... ... ...
ROW E1 : ... .. . ... ... : ... .. . ... ... : ... .. . ... ... : ... .. . ... : ... .. . ... ... : ... .. . ... ... ... ...
ROW E2 : ... .. . ... ... : ... .. . ... ... : ... .. . ... ... : ... .. . ... : ... .. . ... ... : ... .. . ... ... ... ...
ROW E3 : ... .. . ... ... : ... .. . ... ... : ... .. . ... ... : ... .. . ... : ... .. . ... ... : ... .. . ... ... ... ...
ROW E4 : ... .. . ... ... : ... .. . ... ... : ... .. . ... ... : ... .. . ... : ... .. . ... ... : ... .. . ... ... ... ...
ROW E5 : ... .. . ... ... : ... .. . ... ... : ... .. . ... ... : ... .. . ... : ... .. . ... ... : ... .. . ... ... ... ...
ROW E6 : ... .. . ... ... : ... .. . ... ... : ... .. . ... ... : ... .. . ... : ... .. . ... ... : ... .. . ... ... ... ...
ROW E7 : ... .. . ... ... : ... .. . ... ... : ... .. . ... ... : ... .. . ... : ... .. . ... ... : ... .. . ... ... ... ...
ROW E8 : ... .. . ... ... : ... .. . ... ... : ... .. . ... ... : ... .. . ... : ... .. . ... ... : ... .. . ... ... ... ...
ROW E9 : ... .. . ... ... : ... .. . ... ... : ... .. . ... ... : ... .. . ... : ... .. . ... ... : ... .. . ... ... ... ...
ROW EA : ... .. . ... ... : ... .. . ... ... : ... .. . ... ... : ... .. . ... : ... .. . ... ... : ... .. . ... ... ... ...
ROW EB : ... .. . ... ... : ... .. . ... ... : ... .. . ... ... : ... .. . ... : ... .. . ... ... : ... .. . ... ... ... ...
ROW EC : ... .. . ... ... : ... .. . ... ... : ... .. . ... ... : ... .. . ... : ... .. . ... ... : ... .. . ... ... ... ...
ROW ED : ... .. . ... ... : ... .. . ... ... : ... .. . ... ... : ... .. . ... : ... .. . ... ... : ... .. . ... ... ... ...
ROW EE : ... .. . ... ... : ... .. . ... ... : ... .. . ... ... : ... .. . ... : ... .. . ... ... : ... .. . ... ... ... ...
ROW EF : ... .. . ... ... : ... .. . ... ... : ... .. . ... ... : ... .. . ... : ... .. . ... ... : ... .. . ... ... ... ...
ROW F0 : ... .. . ... ... : ... .. . ... ... : ... .. . ... ... : ... .. . ... : ... .. . ... ... : ... .. . ... ... ... ...
ROW F1 : ... .. . ... ... : ... .. . ... ... : ... .. . ... ... : ... .. . ... : ... .. . ... ... : ... .. . ... ... ... ...
ROW F2 : ... .. . ... ... : ... .. . ... ... : ... .. . ... ... : ... .. . ... : ... .. . ... ... : ... .. . ... ... ... ...
ROW F3 : ... .. . ... ... : ... .. . ... ... : ... .. . ... ... : ... .. . ... : ... .. . ... ... : ... .. . ... ... ... ...
ROW F4 : ... .. . ... ... : ... .. . ... ... : ... .. . ... ... : ... .. . ... : ... .. . ... ... : ... .. . ... ... ... ...
ROW F5 : ... .. . ... ... : ... .. . ... ... : ... .. . ... ... : ... .. . ... : ... .. . ... ... : ... .. . ... ... ... ...
ROW F6 : ... .. . ... ... : ... .. . ... ... : ... .. . ... ... : ... .. . ... : ... .. . ... ... : ... .. . ... ... ... ...
ROW F7 : ... .. . ... ... : ... .. . ... ... : ... .. . ... ... : ... .. . ... : ... .. . ... ... : ... .. . ... ... ... ...
ROW F8 : ... .. . ... ... : ... .. . ... ... : ... .. . ... ... : ... .. . ... : ... .. . ... ... : ... .. . ... ... ... ...
ROW F9 : ... .. . ... ... : ... .. . ... ... : ... .. . ... ... : ... .. . ... : ... .. . ... ... : ... .. . ... ... ... ...
ROW FA : ... .. . ... ... : ... .. . ... ... : ... .. . ... ... : ... .. . ... : ... .. . ... ... : ... .. . ... ... ... ...
ROW FB : ... .. . ... ... : ... .. . ... ... : ... .. . ... ... : ... .. . ... : ... .. . ... ... : ... .. . ... ... ... ...
ROW FC : ... .. . ... ... : ... .. . ... ... : ... .. . ... ... : ... .. . ... : ... .. . ... ... : ... .. . ... ... ... ...
ROW FD : ... .. . ... ... : ... .. . ... ... : ... .. . ... ... : ... .. . ... : ... .. . ... ... : ... .. . ... ... ... ...
ROW FE : ... .. . ... ... : ... .. . ... ... : ... .. . ... ... : ... .. . ... : ... .. . ... ... : ... .. . ... ... ... ...
ROW FF : ... .. . ... ... : ... .. . ... ... : ... .. . ... ... : ... .. . ... : ... .. . ... ... : ... .. . ... ... ... ...

PATTERN 08
ROW 00 : C-2 03 6 V02 ... : --- .. . ... ... : G-2 11 . ... ... : C-# 03 E A03 : C-3 24 . F05 ... : F#5 0B A Q31 400 ... ...
ROW 01 : ... .. 3 ... ... : ... .. . ... ... : ... .. . S02 ... : ... .. . A04 : ... .. . ... ... : ... .. . ... ... ... ...
ROW 02 : D#2 03 6 ... ... : ... .. . ... ... : G-2 11 . ... ... : ... .. . A05 : ... .. . ... ... : ... .. . ... ... ... ...
ROW 03 : C-2 03 3 ... ... : ... .. . ... ... : ... .. . S02 ... : ... .. . A04 : ... .. . ... ... : ... .. . ... ... ... ...
ROW 04 : G-2 03 6 ... ... : ... .. . ... ... : G-4 03 . 236 ... : D-# 05 6 A00 : C-3 24 . ... ... : ... .. . ... ... ... ...
ROW 05 : D#2 03 3 ... ... : ... .. . ... ... : ... .. . ... ... : ... .. . ... : ... .. . ... ... : ... .. . ... ... ... ...
ROW 06 : C-3 03 6 ... ... : ... .. . ... ... : G-2 11 . 200 ... : D-# 05 . ... : ... .. . ... ... : ... .. . ... ... ... ...
ROW 07 : G-2 03 3 ... ... : ... .. . ... ... : ... .. . S02 ... : ... .. . ... : ... .. . ... ... : ... .. . ... ... ... ...
ROW 08 : C-2 03 7 ... ... : ... .. . ... ... : G-2 11 . ... ... : C-# 06 8 ... : C-3 24 . ... ... : ... .. . ... 468 ... ...
ROW 09 : C-3 03 4 ... ... : ... .. . ... ... : ... .. . S02 ... : ... .. . ... : ... .. . ... ... : ... .. . ... ... ... ...
ROW 0A : D#2 03 7 ... ... : ... .. . ... ... : G-2 11 . ... ... : D-# 05 6 ... : ... .. . ... ... : ... .. . ... ... ... ...
ROW 0B : C-2 03 4 ... ... : ... .. . ... ... : ... .. . S02 ... : ... .. . ... : ... .. . ... ... : ... .. . ... ... ... ...
ROW 0C : G-2 03 7 ... ... : ... .. . ... ... : G-4 03 . 236 ... : D-# 05 . ... : C-3 24 . ... ... : ... .. . ... ... ... ...
ROW 0D : D#2 03 4 ... ... : ... .. . ... ... : ... .. . ... ... : ... .. . ... : ... .. . ... ... : ... .. . ... ... ... ...
ROW 0E : C-3 03 7 ... ... : ... .. . ... ... : G-2 11 . 200 ... : D-# 05 . ... : ... .. . ... ... : ... .. . ... ... ... ...
ROW 0F : G-2 03 4 ... ... : ... .. . ... ... : ... .. . S02 ... : ... .. . ... : ... .. . ... ... : ... .. . ... ... ... ...
ROW 10 : C-2 03 8 ... ... : ... .. . ... ... : G-2 11 . 200 ... : C-# 06 8 ... : C-3 24 . ... ... : ... .. 9 ... ... ... ...
ROW 11 : C-3 03 5 ... ... : ... .. . ... ... : ... .. . S02 ... : ... .. . ... : ... .. . ... ... : ... .. . ... ... ... ...
ROW 12 : D#2 03 8 ... ... : ... .. . ... ... : G-2 11 . ... ... : D-# 05 6 ... : ... .. . ... ... : ... .. 8 ... ... ... ...
ROW 13 : C-2 03 5 ... ... : ... .. . ... ... : ... .. . S02 ... : ... .. . ... : ... .. . ... ... : ... .. . ... ... ... ...
ROW 14 : G-2 03 8 ... ... : ... .. . ... ... : G-4 03 . 236 ... : D-# 05 . ... : C-3 24 . ... ... : ... .. 7 ... ... ... ...
ROW 15 : D#2 03 5 ... ... : ... .. . ... ... : ... .. . ... ... : ... .. . ... : ... .. . ... ... : ... .. . ... ... ... ...
ROW 16 : C-3 03 8 ... ... : ... .. . ... ... : G-2 11 . 200 ... : D-# 05 . ... : ... .. . ... ... : ... .. 6 ... ... ... ...
ROW 17 : G-2 03 5 ... ... : ... .. . ... ... : ... .. . S02 ... : ... .. . ... : ... .. . ... ... : ... .. . ... ... ... ...
ROW 18 : C-2 03 9 ... ... : ... .. . ... ... : G-2 11 . ... ... : C-# 06 8 ... : C-3 24 . ... ... : ... .. 5 ... ... ... ...
ROW 19 : C-3 03 6 ... ... : ... .. . ... ... : ... .. . S02 ... : ... .. . ... : ... .. . ... ... : ... .. . ... ... ... ...
ROW 1A : D#2 03 9 ... ... : ... .. . ... ... : G-2 11 . ... ... : D-# 05 6 ... : ... .. . ... ... : ... .. 4 ... ... ... ...
ROW 1B : C-2 03 6 ... ... : ... .. . ... ... : ... .. . S02 ... : ... .. . ... : ... .. . ... ... : ... .. . ... ... ... ...
ROW 1C : G-2 03 9 ... ... : ... .. . ... ... : G-4 03 . 236 ... : D-# 05 . ... : C-3 24 . ... ... : F-5 0B A 400 ... ... ...
ROW 1D : D#2 03 6 ... ... : ... .. . ... ... : ... .. . ... ... : ... .. . ... : ... .. . ... ... : ... .. 4 ... ... ... ...
ROW 1E : C-3 03 9 ... ... : ... .. . ... ... : G-2 11 . 200 ... : D-# 05 . ... : ... .. . ... ... : C#5 0B A Q31 400 ... ...
ROW 1F : G-2 03 6 ... ... : ... .. . ... ... : ... .. . S02 ... : ... .. . ... : ... .. . ... ... : ... .. . ... ... ... ...
ROW 20 : E-3 03 9 ... ... : ... .. . ... ... : D-2 11 . 200 ... : C-# 06 8 ... : E-3 24 . ... ... : ... .. . ... ... ... ...
ROW 21 : ... .. 6 ... ... : ... .. . ... ... : ... .. . S02 ... : ... .. . ... : ... .. . ... ... : ... .. . ... ... ... ...
ROW 22 : B-2 03 9 ... ... : ... .. . ... ... : D-2 11 . ... ... : D-# 05 6 ... : ... .. . ... ... : ... .. . ... ... ... ...
ROW 23 : E-3 03 6 ... ... : ... .. . ... ... : ... .. . S02 ... : ... .. . ... : ... .. . ... ... : ... .. . ... ... ... ...
ROW 24 : G-2 03 9 ... ... : ... .. . ... ... : D-4 03 . 236 ... : D-# 05 . ... : E-3 24 . ... ... : ... .. . ... ... ... ...
ROW 25 : B-2 03 6 ... ... : ... .. . ... ... : ... .. . ... ... : ... .. . ... : ... .. . ... ... : ... .. . ... ... ... ...
ROW 26 : E-2 03 9 ... ... : ... .. . ... ... : D-2 11 . 200 ... : D-# 05 . ... : ... .. . ... ... : ... .. . ... 468 ... ...
ROW 27 : G-2 03 6 ... ... : ... .. . ... ... : ... .. . S02 ... : ... .. . ... : ... .. . ... ... : ... .. . ... ... ... ...
ROW 28 : E-3 03 8 ... ... : ... .. . ... ... : D-2 11 . ... ... : C-# 06 8 ... : E-3 24 . ... ... : ... .. 9 ... ... ... ...
ROW 29 : E-2 03 5 ... ... : ... .. . ... ... : ... .. . S02 ... : ... .. . ... : ... .. . ... ... : ... .. . ... ... ... ...
ROW 2A : B-2 03 8 ... ... : ... .. . ... ... : D-2 11 . ... ... : D-# 05 6 ... : ... .. . ... ... : ... .. 8 ... ... ... ...
ROW 2B : E-3 03 5 ... ... : ... .. . ... ... : ... .. . S02 ... : ... .. . ... : ... .. . ... ... : ... .. . ... ... ... ...
ROW 2C : G-2 03 8 ... ... : ... .. . ... ... : D-4 03 . 236 ... : D-# 05 . ... : E-3 24 . ... ... : ... .. 7 ... ... ... ...
ROW 2D : B-2 03 5 ... ... : ... .. . ... ... : ... .. . ... ... : ... .. . ... : ... .. . ... ... : ... .. . ... ... ... ...
ROW 2E : E-2 03 8 ... ... : ... .. . ... ... : D-2 11 . 200 ... : D-# 05 . ... : ... .. . ... ... : ... .. 6 ... ... ... ...
ROW 2F : G-2 03 5 ... ... : ... .. . ... ... : ... .. . S02 ... : ... .. . ... : ... .. . ... ... : ... .. . ... ... ... ...
ROW 30 : E-3 03 7 ... ... : ... .. . ... ... : D-2 11 . 200 ... : C-# 06 8 ... : E-3 24 . ... ... : D-5 0B A 400 ... ... ...
ROW 31 : E-2 03 4 ... ... : ... .. . ... ... : ... .. . S02 ... : ... .. . ... : ... .. . ... ... : ... .. . ... ... ... ...
ROW 32 : B-2 03 7 ... ... : ... .. . ... ... : D-2 11 . ... ... : D-# 05 6 ... : ... .. . ... ... : ... .. . ... ... ... ...
ROW 33 : E-3 03 4 ... ... : ... .. . ... ... : ... .. . S02 ... : ... .. . ... : ... .. . ... ... : ... .. 6 ... ... ... ...
ROW 34 : G-2 03 7 ... ... : ... .. . ... ... : D-4 03 . 236 ... : D-# 05 . ... : E-3 24 . ... ... : C-5 0B A ... ... ... ...
ROW 35 : B-2 03 4 ... ... : ... .. . ... ... : ... .. . ... ... : ... .. . ... : ... .. . ... ... : ... .. . ... ... ... ...
ROW 36 : E-2 03 7 ... ... : ... .. . ... ... : D-2 11 . 200 ... : D-# 05 . ... : ... .. . ... ... : ... .. . ... ... ... ...
ROW 37 : G-2 03 4 ... ... : ... .. . ... ... : ... .. . S02 ... : ... .. . ... : ... .. . ... ... : D-5 0B 6 ... ... ... ...
ROW 38 : E-3 03 6 ... ... : ... .. . ... ... : D-2 11 . ... ... : C-# 06 8 ... : E-3 24 . ... ... : A#4 0B A ... ... ... ...
ROW 39 : E-2 03 3 ... ... : ... .. . ... ... : ... .. . S02 ... : ... .. . ... : ... .. . ... ... : ... .. . ... ... ... ...
ROW 3A : B-2 03 6 ... ... : ... .. . ... ... : D-2 11 . ... ... : D-# 05 6 ... : ... .. . ... ... : ... .. . ... ... ... ...
ROW 3B : E-3 03 3 ... ... : ... .. . ... ... : ... .. . S02 ... : ... .. . ... : ... .. . ... ... : C-5 0B 6 ... ... ... ...
ROW 3C : G-2 03 6 ... ... : ... .. . ... ... : D-5 03 . 236 ... : D-# 05 . ... : E-3 24 . ... ... : D-5 0B A ... ... ... ...
ROW 3D : B-2 03 3 ... ... : ... .. . ... ... : ... .. . ... ... : ... .. . ... : ... .. . ... ... : ... .. . ... ... ... ...
ROW 3E : E-2 03 6 ... ... : ... .. . ... ... : D-4 11 . 200 ... : D-# 05 . ... : ... .. . ... ... : ... .. . ... ... ... ...
ROW 3F : G-2 03 3 ... ... : ... .. . ... ... : ... .. . S02 ... : ... .. . ... : ... .. . D00 ... : A#4 0B 6 ... ... ... ...
ROW 40 : ... .. . ... ... : ... .. . ... ... : ... .. . ... ... : ... .. . ... : ... .. . ... ... : ... .. . ... ... ... ...
ROW 41 : ... .. . ... ... : ... .. . ... ... : ... .. . ... ... : ... .. . ... : ... .. . ... ... : ... .. . ... ... ... ...
ROW 42 : ... .. . ... ... : ... .. . ... ... : ... .. . ... ... : ... .. . ... : ... .. . ... ... : ... .. . ... ... ... ...
ROW 43 : ... .. . ... ... : ... .. . ... ... : ... .. . ... ... : ... .. . ... : ... .. . ... ... : ... .. . ... ... ... ...
ROW 44 : ... .. . ... ... : ... .. . ... ... : ... .. . ... ... : ... .. . ... : ... .. . ... ... : ... .. . ... ... ... ...
ROW 45 : ... .. . ... ... : ... .. . ... ... : ... .. . ... ... : ... .. . ... : ... .. . ... ... : ... .. . ... ... ... ...
ROW 46 : ... .. . ... ... : ... .. . ... ... : ... .. . ... ... : ... .. . ... : ... .. . ... ... : ... .. . ... ... ... ...
ROW 47 : ... .. . ... ... : ... .. . ... ... : ... .. . ... ... : ... .. . ... : ... .. . ... ... : ... .. . ... ... ... ...
ROW 48 : ... .. . ... ... : ... .. . ... ... : ... .. . ... ... : ... .. . ... : ... .. . ... ... : ... .. . ... ... ... ...
ROW 49 : ... .. . ... ... : ... .. . ... ... : ... .. . ... ... : ... .. . ... : ... .. . ... ... : ... .. . ... ... ... ...
ROW 4A : ... .. . ... ... : ... .. . ... ... : ... .. . ... ... : ... .. . ... : ... .. . ... ... : ... .. . ... ... ... ...
ROW 4B : ... .. . ... ... : ... .. . ... ... : ... .. . ... ... : ... .. . ... : ... .. . ... ... : ... .. . ... ... ... ...
ROW 4C : ... .. . ... ... : ... .. . ... ... : ... .. . ... ... : ... .. . ... : ... .. . ... ... : ... .. . ... ... ... ...
ROW 4D : ... .. . ... ... : ... .. . ... ... : ... .. . ... ... : ... .. . ... : ... .. . ... ... : ... .. . ... ... ... ...
ROW 4E : ... .. . ... ... : ... .. . ... ... : ... .. . ... ... : ... .. . ... : ... .. . ... ... : ... .. . ... ... ... ...
ROW 4F : ... .. . ... ... : ... .. . ... ... : ... .. . ... ... : ... .. . ... : ... .. . ... ... : ... .. . ... ... ... ...
ROW 50 : ... .. . ... ... : ... .. . ... ... : ... .. . ... ... : ... .. . ... : ... .. . ... ... : ... .. . ... ... ... ...
ROW 51 : ... .. . ... ... : ... .. . ... ... : ... .. . ... ... : ... .. . ... : ... .. . ... ... : ... .. . ... ... ... ...
ROW 52 : ... .. . ... ... : ... .. . ... ... : ... .. . ... ... : ... .. . ... : ... .. . ... ... : ... .. . ... ... ... ...
ROW 53 : ... .. . ... ... : ... .. . ... ... : ... .. . ... ... : ... .. . ... : ... .. . ... ... : ... .. . ... ... ... ...
ROW 54 : ... .. . ... ... : ... .. . ... ... : ... .. . ... ... : ... .. . ... : ... .. . ... ... : ... .. . ... ... ... ...
ROW 55 : ... .. . ... ... : ... .. . ... ... : ... .. . ... ... : ... .. . ... : ... .. . ... ... : ... .. . ... ... ... ...
ROW 56 : ... .. . ... ... : ... .. . ... ... : ... .. . ... ... : ... .. . ... : ... .. . ... ... : ... .. . ... ... ... ...
ROW 57 : ... .. . ... ... : ... .. . ... ... : ... .. . ... ... : ... .. . ... : ... .. . ... ... : ... .. . ... ... ... ...
ROW 58 : ... .. . ... ... : ... .. . ... ... : ... .. . ... ... : ... .. . ... : ... .. . ... ... : ... .. . ... ... ... ...
ROW 59 : ... .. . ... ... : ... .. . ... ... : ... .. . ... ... : ... .. . ... : ... .. . ... ... : ... .. . ... ... ... ...
ROW 5A : ... .. . ... ... : ... .. . ... ... : ... .. . ... ... : ... .. . ... : ... .. . ... ... : ... .. . ... ... ... ...
ROW 5B : ... .. . ... ... : ... .. . ... ... : ... .. . ... ... : ... .. . ... : ... .. . ... ... : ... .. . ... ... ... ...
ROW 5C : ... .. . ... ... : ... .. . ... ... : ... .. . ... ... : ... .. . ... : ... .. . ... ... : ... .. . ... ... ... ...
ROW 5D : ... .. . ... ... : ... .. . ... ... : ... .. . ... ... : ... .. . ... : ... .. . ... ... : ... .. . ... ... ... ...
ROW 5E : ... .. . ... ... : ... .. . ... ... : ... .. . ... ... : ... .. . ... : ... .. . ... ... : ... .. . ... ... ... ...
ROW 5F : ... .. . ... ... : ... .. . ... ... : ... .. . ... ... : ... .. . ... : ... .. . ... ... : ... .. . ... ... ... ...
ROW 60 : ... .. . ... ... : ... .. . ... ... : ... .. . ... ... : ... .. . ... : ... .. . ... ... : ... .. . ... ... ... ...
ROW 61 : ... .. . ... ... : ... .. . ... ... : ... .. . ... ... : ... .. . ... : ... .. . ... ... : ... .. . ... ... ... ...
ROW 62 : ... .. . ... ... : ... .. . ... ... : ... .. . ... ... : ... .. . ... : ... .. . ... ... : ... .. . ... ... ... ...
ROW 63 : ... .. . ... ... : ... .. . ... ... : ... .. . ... ... : ... .. . ... : ... .. . ... ... : ... .. . ... ... ... ...
ROW 64 : ... .. . ... ... : ... .. . ... ... : ... .. . ... ... : ... .. . ... : ... .. . ... ... : ... .. . ... ... ... ...
ROW 65 : ... .. . ... ... : ... .. . ... ... : ... .. . ... ... : ... .. . ... : ... .. . ... ... : ... .. . ... ... ... ...
ROW 66 : ... .. . ... ... : ... .. . ... ... : ... .. . ... ... : ... .. . ... : ... .. . ... ... : ... .. . ... ... ... ...
ROW 67 : ... .. . ... ... : ... .. . ... ... : ... .. . ... ... : ... .. . ... : ... .. . ... ... : ... .. . ... ... ... ...
ROW 68 : ... .. . ... ... : ... .. . ... ... : ... .. . ... ... : ... .. . ... : ... .. . ... ... : ... .. . ... ... ... ...
ROW 69 : ... .. . ... ... : ... .. . ... ... : ... .. . ... ... : ... .. . ... : ... .. . ... ... : ... .. . ... ... ... ...
ROW 6A : ... .. . ... ... : ... .. . ... ... : ... .. . ... ... : ... .. . ... : ... .. . ... ... : ... .. . ... ... ... ...
ROW 6B : ... .. . ... ... : ... .. . ... ... : ... .. . ... ... : ... .. . ... : ... .. . ... ... : ... .. . ... ... ... ...
ROW 6C : ... .. . ... ... : ... .. . ... ... : ... .. . ... ... : ... .. . ... : ... .. . ... ... : ... .. . ... ... ... ...
ROW 6D : ... .. . ... ... : ... .. . ... ... : ... .. . ... ... : ... .. . ... : ... .. . ... ... : ... .. . ... ... ... ...
ROW 6E : ... .. . ... ... : ... .. . ... ... : ... .. . ... ... : ... .. . ... : ... .. . ... ... : ... .. . ... ... ... ...
ROW 6F : ... .. . ... ... : ... .. . ... ... : ... .. . ... ... : ... .. . ... : ... .. . ... ... : ... .. . ... ... ... ...
ROW 70 : ... .. . ... ... : ... .. . ... ... : ... .. . ... ... : ... .. . ... : ... .. . ... ... : ... .. . ... ... ... ...
ROW 71 : ... .. . ... ... : ... .. . ... ... : ... .. . ... ... : ... .. . ... : ... .. . ... ... : ... .. . ... ... ... ...
ROW 72 : ... .. . ... ... : ... .. . ... ... : ... .. . ... ... : ... .. . ... : ... .. . ... ... : ... .. . ... ... ... ...
ROW 73 : ... .. . ... ... : ... .. . ... ... : ... .. . ... ... : ... .. . ... : ... .. . ... ... : ... .. . ... ... ... ...
ROW 74 : ... .. . ... ... : ... .. . ... ... : ... .. . ... ... : ... .. . ... : ... .. . ... ... : ... .. . ... ... ... ...
ROW 75 : ... .. . ... ... : ... .. . ... ... : ... .. . ... ... : ... .. . ... : ... .. . ... ... : ... .. . ... ... ... ...
ROW 76 : ... .. . ... ... : ... .. . ... ... : ... .. . ... ... : ... .. . ... : ... .. . ... ... : ... .. . ... ... ... ...
ROW 77 : ... .. . ... ... : ... .. . ... ... : ... .. . ... ... : ... .. . ... : ... .. . ... ... : ... .. . ... ... ... ...
ROW 78 : ... .. . ... ... : ... .. . ... ... : ... .. . ... ... : ... .. . ... : ... .. . ... ... : ... .. . ... ... ... ...
ROW 79 : ... .. . ... ... : ... .. . ... ... : ... .. . ... ... : ... .. . ... : ... .. . ... ... : ... .. . ... ... ... ...
ROW 7A : ... .. . ... ... : ... .. . ... ... : ... .. . ... ... : ... .. . ... : ... .. . ... ... : ... .. . ... ... ... ...
ROW 7B : ... .. . ... ... : ... .. . ... ... : ... .. . ... ... : ... .. . ... : ... .. . ... ... : ... .. . ... ... ... ...
ROW 7C : ... .. . ... ... : ... .. . ... ... : ... .. . ... ... : ... .. . ... : ... .. . ... ... : ... .. . ... ... ... ...
ROW 7D : ... .. . ... ... : ... .. . ... ... : ... .. . ... ... : ... .. . ... : ... .. . ... ... : ... .. . ... ... ... ...
ROW 7E : ... .. . ... ... : ... .. . ... ... : ... .. . ... ... : ... .. . ... : ... .. . ... ... : ... .. . ... ... ... ...
ROW 7F : ... .. . ... ... : ... .. . ... ... : ... .. . ... ... : ... .. . ... : ... .. . ... ... : ... .. . ... ... ... ...
ROW 80 : ... .. . ... ... : ... .. . ... ... : ... .. . ... ... : ... .. . ... : ... .. . ... ... : ... .. . ... ... ... ...
ROW 81 : ... .. . ... ... : ... .. . ... ... : ... .. . ... ... : ... .. . ... : ... .. . ... ... : ... .. . ... ... ... ...
ROW 82 : ... .. . ... ... : ... .. . ... ... : ... .. . ... ... : ... .. . ... : ... .. . ... ... : ... .. . ... ... ... ...
ROW 83 : ... .. . ... ... : ... .. . ... ... : ... .. . ... ... : ... .. . ... : ... .. . ... ... : ... .. . ... ... ... ...
ROW 84 : ... .. . ... ... : ... .. . ... ... : ... .. . ... ... : ... .. . ... : ... .. . ... ... : ... .. . ... ... ... ...
ROW 85 : ... .. . ... ... : ... .. . ... ... : ... .. . ... ... : ... .. . ... : ... .. . ... ... : ... .. . ... ... ... ...
ROW 86 : ... .. . ... ... : ... .. . ... ... : ... .. . ... ... : ... .. . ... : ... .. . ... ... : ... .. . ... ... ... ...
ROW 87 : ... .. . ... ... : ... .. . ... ... : ... .. . ... ... : ... .. . ... : ... .. . ... ... : ... .. . ... ... ... ...
ROW 88 : ... .. . ... ... : ... .. . ... ... : ... .. . ... ... : ... .. . ... : ... .. . ... ... : ... .. . ... ... ... ...
ROW 89 : ... .. . ... ... : ... .. . ... ... : ... .. . ... ... : ... .. . ... : ... .. . ... ... : ... .. . ... ... ... ...
ROW 8A : ... .. . ... ... : ... .. . ... ... : ... .. . ... ... : ... .. . ... : ... .. . ... ... : ... .. . ... ... ... ...
ROW 8B : ... .. . ... ... : ... .. . ... ... : ... .. . ... ... : ... .. . ... : ... .. . ... ... : ... .. . ... ... ... ...
ROW 8C : ... .. . ... ... : ... .. . ... ... : ... .. . ... ... : ... .. . ... : ... .. . ... ... : ... .. . ... ... ... ...
ROW 8D : ... .. . ... ... : ... .. . ... ... : ... .. . ... ... : ... .. . ... : ... .. . ... ... : ... .. . ... ... ... ...
ROW 8E : ... .. . ... ... : ... .. . ... ... : ... .. . ... ... : ... .. . ... : ... .. . ... ... : ... .. . ... ... ... ...
ROW 8F : ... .. . ... ... : ... .. . ... ... : ... .. . ... ... : ... .. . ... : ... .. . ... ... : ... .. . ... ... ... ...
ROW 90 : ... .. . ... ... : ... .. . ... ... : ... .. . ... ... : ... .. . ... : ... .. . ... ... : ... .. . ... ... ... ...
ROW 91 : ... .. . ... ... : ... .. . ... ... : ... .. . ... ... : ... .. . ... : ... .. . ... ... : ... .. . ... ... ... ...
ROW 92 : ... .. . ... ... : ... .. . ... ... : ... .. . ... ... : ... .. . ... : ... .. . ... ... : ... .. . ... ... ... ...
ROW 93 : ... .. . ... ... : ... .. . ... ... : ... .. . ... ... : ... .. . ... : ... .. . ... ... : ... .. . ... ... ... ...
ROW 94 : ... .. . ... ... : ... .. . ... ... : ... .. . ... ... : ... .. . ... : ... .. . ... ... : ... .. . ... ... ... ...
ROW 95 : ... .. . ... ... : ... .. . ... ... : ... .. . ... ... : ... .. . ... : ... .. . ... ... : ... .. . ... ... ... ...
ROW 96 : ... .. . ... ... : ... .. . ... ... : ... .. . ... ... : ... .. . ... : ... .. . ... ... : ... .. . ... ... ... ...
ROW 97 : ... .. . ... ... : ... .. . ... ... : ... .. . ... ... : ... .. . ... : ... .. . ... ... : ... .. . ... ... ... ...
ROW 98 : ... .. . ... ... : ... .. . ... ... : ... .. . ... ... : ... .. . ... : ... .. . ... ... : ... .. . ... ... ... ...
ROW 99 : ... .. . ... ... : ... .. . ... ... : ... .. . ... ... : ... .. . ... : ... .. . ... ... : ... .. . ... ... ... ...
ROW 9A : ... .. . ... ... : ... .. . ... ... : ... .. . ... ... : ... .. . ... : ... .. . ... ... : ... .. . ... ... ... ...
ROW 9B : ... .. . ... ... : ... .. . ... ... : ... .. . ... ... : ... .. . ... : ... .. . ... ... : ... .. . ... ... ... ...
ROW 9C : ... .. . ... ... : ... .. . ... ... : ... .. . ... ... : ... .. . ... : ... .. . ... ... : ... .. . ... ... ... ...
ROW 9D : ... .. . ... ... : ... .. . ... ... : ... .. . ... ... : ... .. . ... : ... .. . ... ... : ... .. . ... ... ... ...
ROW 9E : ... .. . ... ... : ... .. . ... ... : ... .. . ... ... : ... .. . ... : ... .. . ... ... : ... .. . ... ... ... ...
ROW 9F : ... .. . ... ... : ... .. . ... ... : ... .. . ... ... : ... .. . ... : ... .. . ... ... : ... .. . ... ... ... ...
ROW A0 : ... .. . ... ... : ... .. . ... ... : ... .. . ... ... : ... .. . ... : ... .. . ... ... : ... .. . ... ... ... ...
ROW A1 : ... .. . ... ... : ... .. . ... ... : ... .. . ... ... : ... .. . ... : ... .. . ... ... : ... .. . ... ... ... ...
ROW A2 : ... .. . ... ... : ... .. . ... ... : ... .. . ... ... : ... .. . ... : ... .. . ... ... : ... .. . ... ... ... ...
ROW A3 : ... .. . ... ... : ... .. . ... ... : ... .. . ... ... : ... .. . ... : ... .. . ... ... : ... .. . ... ... ... ...
ROW A4 : ... .. . ... ... : ... .. . ... ... : ... .. . ... ... : ... .. . ... : ... .. . ... ... : ... .. . ... ... ... ...
ROW A5 : ... .. . ... ... : ... .. . ... ... : ... .. . ... ... : ... .. . ... : ... .. . ... ... : ... .. . ... ... ... ...
ROW A6 : ... .. . ... ... : ... .. . ... ... : ... .. . ... ... : ... .. . ... : ... .. . ... ... : ... .. . ... ... ... ...
ROW A7 : ... .. . ... ... : ... .. . ... ... : ... .. . ... ... : ... .. . ... : ... .. . ... ... : ... .. . ... ... ... ...
ROW A8 : ... .. . ... ... : ... .. . ... ... : ... .. . ... ... : ... .. . ... : ... .. . ... ... : ... .. . ... ... ... ...
ROW A9 : ... .. . ... ... : ... .. . ... ... : ... .. . ... ... : ... .. . ... : ... .. . ... ... : ... .. . ... ... ... ...
ROW AA : ... .. . ... ... : ... .. . ... ... : ... .. . ... ... : ... .. . ... : ... .. . ... ... : ... .. . ... ... ... ...
ROW AB : ... .. . ... ... : ... .. . ... ... : ... .. . ... ... : ... .. . ... : ... .. . ... ... : ... .. . ... ... ... ...
ROW AC : ... .. . ... ... : ... .. . ... ... : ... .. . ... ... : ... .. . ... : ... .. . ... ... : ... .. . ... ... ... ...
ROW AD : ... .. . ... ... : ... .. . ... ... : ... .. . ... ... : ... .. . ... : ... .. . ... ... : ... .. . ... ... ... ...
ROW AE : ... .. . ... ... : ... .. . ... ... : ... .. . ... ... : ... .. . ... : ... .. . ... ... : ... .. . ... ... ... ...
ROW AF : ... .. . ... ... : ... .. . ... ... : ... .. . ... ... : ... .. . ... : ... .. . ... ... : ... .. . ... ... ... ...
ROW B0 : ... .. . ... ... : ... .. . ... ... : ... .. . ... ... : ... .. . ... : ... .. . ... ... : ... .. . ... ... ... ...
ROW B1 : ... .. . ... ... : ... .. . ... ... : ... .. . ... ... : ... .. . ... : ... .. . ... ... : ... .. . ... ... ... ...
ROW B2 : ... .. . ... ... : ... .. . ... ... : ... .. . ... ... : ... .. . ... : ... .. . ... ... : ... .. . ... ... ... ...
ROW B3 : ... .. . ... ... : ... .. . ... ... : ... .. . ... ... : ... .. . ... : ... .. . ... ... : ... .. . ... ... ... ...
ROW B4 : ... .. . ... ... : ... .. . ... ... : ... .. . ... ... : ... .. . ... : ... .. . ... ... : ... .. . ... ... ... ...
ROW B5 : ... .. . ... ... : ... .. . ... ... : ... .. . ... ... : ... .. . ... : ... .. . ... ... : ... .. . ... ... ... ...
ROW B6 : ... .. . ... ... : ... .. . ... ... : ... .. . ... ... : ... .. . ... : ... .. . ... ... : ... .. . ... ... ... ...
ROW B7 : ... .. . ... ... : ... .. . ... ... : ... .. . ... ... : ... .. . ... : ... .. . ... ... : ... .. . ... ... ... ...
ROW B8 : ... .. . ... ... : ... .. . ... ... : ... .. . ... ... : ... .. . ... : ... .. . ... ... : ... .. . ... ... ... ...
ROW B9 : ... .. . ... ... : ... .. . ... ... : ... .. . ... ... : ... .. . ... : ... .. . ... ... : ... .. . ... ... ... ...
ROW BA : ... .. . ... ... : ... .. . ... ... : ... .. . ... ... : ... .. . ... : ... .. . ... ... : ... .. . ... ... ... ...
ROW BB : ... .. . ... ... : ... .. . ... ... : ... .. . ... ... : ... .. . ... : ... .. . ... ... : ... .. . ... ... ... ...
ROW BC : ... .. . ... ... : ... .. . ... ... : ... .. . ... ... : ... .. . ... : ... .. . ... ... : ... .. . ... ... ... ...
ROW BD : ... .. . ... ... : ... .. . ... ... : ... .. . ... ... : ... .. . ... : ... .. . ... ... : ... .. . ... ... ... ...
ROW BE : ... .. . ... ... : ... .. . ... ... : ... .. . ... ... : ... .. . ... : ... .. . ... ... : ... .. . ... ... ... ...
ROW BF : ... .. . ... ... : ... .. . ... ... : ... .. . ... ... : ... .. . ... : ... .. . ... ... : ... .. . ... ... ... ...
ROW C0 : ... .. . ... ... : ... .. . ... ... : ... .. . ... ... : ... .. . ... : ... .. . ... ... : ... .. . ... ... ... ...
ROW C1 : ... .. . ... ... : ... .. . ... ... : ... .. . ... ... : ... .. . ... : ... .. . ... ... : ... .. . ... ... ... ...
ROW C2 : ... .. . ... ... : ... .. . ... ... : ... .. . ... ... : ... .. . ... : ... .. . ... ... : ... .. . ... ... ... ...
ROW C3 : ... .. . ... ... : ... .. . ... ... : ... .. . ... ... : ... .. . ... : ... .. . ... ... : ... .. . ... ... ... ...
ROW C4 : ... .. . ... ... : ... .. . ... ... : ... .. . ... ... : ... .. . ... : ... .. . ... ... : ... .. . ... ... ... ...
ROW C5 : ... .. . ... ... : ... .. . ... ... : ... .. . ... ... : ... .. . ... : ... .. . ... ... : ... .. . ... ... ... ...
ROW C6 : ... .. . ... ... : ... .. . ... ... : ... .. . ... ... : ... .. . ... : ... .. . ... ... : ... .. . ... ... ... ...
ROW C7 : ... .. . ... ... : ... .. . ... ... : ... .. . ... ... : ... .. . ... : ... .. . ... ... : ... .. . ... ... ... ...
ROW C8 : ... .. . ... ... : ... .. . ... ... : ... .. . ... ... : ... .. . ... : ... .. . ... ... : ... .. . ... ... ... ...
ROW C9 : ... .. . ... ... : ... .. . ... ... : ... .. . ... ... : ... .. . ... : ... .. . ... ... : ... .. . ... ... ... ...
ROW CA : ... .. . ... ... : ... .. . ... ... : ... .. . ... ... : ... .. . ... : ... .. . ... ... : ... .. . ... ... ... ...
ROW CB : ... .. . ... ... : ... .. . ... ... : ... .. . ... ... : ... .. . ... : ... .. . ... ... : ... .. . ... ... ... ...
ROW CC : ... .. . ... ... : ... .. . ... ... : ... .. . ... ... : ... .. . ... : ... .. . ... ... : ... .. . ... ... ... ...
ROW CD : ... .. . ... ... : ... .. . ... ... : ... .. . ... ... : ... .. . ... : ... .. . ... ... : ... .. . ... ... ... ...
ROW CE : ... .. . ... ... : ... .. . ... ... : ... .. . ... ... : ... .. . ... : ... .. . ... ... : ... .. . ... ... ... ...
ROW CF : ... .. . ... ... : ... .. . ... ... : ... .. . ... ... : ... .. . ... : ... .. . ... ... : ... .. . ... ... ... ...
ROW D0 : ... .. . ... ... : ... .. . ... ... : ... .. . ... ... : ... .. . ... : ... .. . ... ... : ... .. . ... ... ... ...
ROW D1 : ... .. . ... ... : ... .. . ... ... : ... .. . ... ... : ... .. . ... : ... .. . ... ... : ... .. . ... ... ... ...
ROW D2 : ... .. . ... ... : ... .. . ... ... : ... .. . ... ... : ... .. . ... : ... .. . ... ... : ... .. . ... ... ... ...
ROW D3 : ... .. . ... ... : ... .. . ... ... : ... .. . ... ... : ... .. . ... : ... .. . ... ... : ... .. . ... ... ... ...
ROW D4 : ... .. . ... ... : ... .. . ... ... : ... .. . ... ... : ... .. . ... : ... .. . ... ... : ... .. . ... ... ... ...
ROW D5 : ... .. . ... ... : ... .. . ... ... : ... .. . ... ... : ... .. . ... : ... .. . ... ... : ... .. . ... ... ... ...
ROW D6 : ... .. . ... ... : ... .. . ... ... : ... .. . ... ... : ... .. . ... : ... .. . ... ... : ... .. . ... ... ... ...
ROW D7 : ... .. . ... ... : ... .. . ... ... : ... .. . ... ... : ... .. . ... : ... .. . ... ... : ... .. . ... ... ... ...
ROW D8 : ... .. . ... ... : ... .. . ... ... : ... .. . ... ... : ... .. . ... : ... .. . ... ... : ... .. . ... ... ... ...
ROW D9 : ... .. . ... ... : ... .. . ... ... : ... .. . ... ... : ... .. . ... : ... .. . ... ... : ... .. . ... ... ... ...
ROW DA : ... .. . ... ... : ... .. . ... ... : ... .. . ... ... : ... .. . ... : ... .. . ... ... : ... .. . ... ... ... ...
ROW DB : ... .. . ... ... : ... .. . ... ... : ... .. . ... ... : ... .. . ... : ... .. . ... ... : ... .. . ... ... ... ...
ROW DC : ... .. . ... ... : ... .. . ... ... : ... .. . ... ... : ... .. . ... : ... .. . ... ... : ... .. . ... ... ... ...
ROW DD : ... .. . ... ... : ... .. . ... ... : ... .. . ... ... : ... .. . ... : ... .. . ... ... : ... .. . ... ... ... ...
ROW DE : ... .. . ... ... : ... .. . ... ... : ... .. . ... ... : ... .. . ... : ... .. . ... ... : ... .. . ... ... ... ...
ROW DF : ... .. . ... ... : ... .. . ... ... : ... .. . ... ... : ... .. . ... : ... .. . ... ... : ... .. . ... ... ... ...
ROW E0 : ... .. . ... ... : ... .. . ... ... : ... .. . ... ... : ... .. . ... : ... .. . ... ... : ... .. . ... ... ... ...
ROW E1 : ... .. . ... ... : ... .. . ... ... : ... .. . ... ... : ... .. . ... : ... .. . ... ... : ... .. . ... ... ... ...
ROW E2 : ... .. . ... ... : ... .. . ... ... : ... .. . ... ... : ... .. . ... : ... .. . ... ... : ... .. . ... ... ... ...
ROW E3 : ... .. . ... ... : ... .. . ... ... : ... .. . ... ... : ... .. . ... : ... .. . ... ... : ... .. . ... ... ... ...
ROW E4 : ... .. . ... ... : ... .. . ... ... : ... .. . ... ... : ... .. . ... : ... .. . ... ... : ... .. . ... ... ... ...
ROW E5 : ... .. . ... ... : ... .. . ... ... : ... .. . ... ... : ... .. . ... : ... .. . ... ... : ... .. . ... ... ... ...
ROW E6 : ... .. . ... ... : ... .. . ... ... : ... .. . ... ... : ... .. . ... : ... .. . ... ... : ... .. . ... ... ... ...
ROW E7 : ... .. . ... ... : ... .. . ... ... : ... .. . ... ... : ... .. . ... : ... .. . ... ... : ... .. . ... ... ... ...
ROW E8 : ... .. . ... ... : ... .. . ... ... : ... .. . ... ... : ... .. . ... : ... .. . ... ... : ... .. . ... ... ... ...
ROW E9 : ... .. . ... ... : ... .. . ... ... : ... .. . ... ... : ... .. . ... : ... .. . ... ... : ... .. . ... ... ... ...
ROW EA : ... .. . ... ... : ... .. . ... ... : ... .. . ... ... : ... .. . ... : ... .. . ... ... : ... .. . ... ... ... ...
ROW EB : ... .. . ... ... : ... .. . ... ... : ... .. . ... ... : ... .. . ... : ... .. . ... ... : ... .. . ... ... ... ...
ROW EC : ... .. . ... ... : ... .. . ... ... : ... .. . ... ... : ... .. . ... : ... .. . ... ... : ... .. . ... ... ... ...
ROW ED : ... .. . ... ... : ... .. . ... ... : ... .. . ... ... : ... .. . ... : ... .. . ... ... : ... .. . ... ... ... ...
ROW EE : ... .. . ... ... : ... .. . ... ... : ... .. . ... ... : ... .. . ... : ... .. . ... ... : ... .. . ... ... ... ...
ROW EF : ... .. . ... ... : ... .. . ... ... : ... .. . ... ... : ... .. . ... : ... .. . ... ... : ... .. . ... ... ... ...
ROW F0 : ... .. . ... ... : ... .. . ... ... : ... .. . ... ... : ... .. . ... : ... .. . ... ... : ... .. . ... ... ... ...
ROW F1 : ... .. . ... ... : ... .. . ... ... : ... .. . ... ... : ... .. . ... : ... .. . ... ... : ... .. . ... ... ... ...
ROW F2 : ... .. . ... ... : ... .. . ... ... : ... .. . ... ... : ... .. . ... : ... .. . ... ... : ... .. . ... ... ... ...
ROW F3 : ... .. . ... ... : ... .. . ... ... : ... .. . ... ... : ... .. . ... : ... .. . ... ... : ... .. . ... ... ... ...
ROW F4 : ... .. . ... ... : ... .. . ... ... : ... .. . ... ... : ... .. . ... : ... .. . ... ... : ... .. . ... ... ... ...
ROW F5 : ... .. . ... ... : ... .. . ... ... : ... .. . ... ... : ... .. . ... : ... .. . ... ... : ... .. . ... ... ... ...
ROW F6 : ... .. . ... ... : ... .. . ... ... : ... .. . ... ... : ... .. . ... : ... .. . ... ... : ... .. . ... ... ... ...
ROW F7 : ... .. . ... ... : ... .. . ... ... : ... .. . ... ... : ... .. . ... : ... .. . ... ... : ... .. . ... ... ... ...
ROW F8 : ... .. . ... ... : ... .. . ... ... : ... .. . ... ... : ... .. . ... : ... .. . ... ... : ... .. . ... ... ... ...
ROW F9 : ... .. . ... ... : ... .. . ... ... : ... .. . ... ... : ... .. . ... : ... .. . ... ... : ... .. . ... ... ... ...
ROW FA : ... .. . ... ... : ... .. . ... ... : ... .. . ... ... : ... .. . ... : ... .. . ... ... : ... .. . ... ... ... ...
ROW FB : ... .. . ... ... : ... .. . ... ... : ... .. . ... ... : ... .. . ... : ... .. . ... ... : ... .. . ... ... ... ...
ROW FC : ... .. . ... ... : ... .. . ... ... : ... .. . ... ... : ... .. . ... : ... .. . ... ... : ... .. . ... ... ... ...
ROW FD : ... .. . ... ... : ... .. . ... ... : ... .. . ... ... : ... .. . ... : ... .. . ... ... : ... .. . ... ... ... ...
ROW FE : ... .. . ... ... : ... .. . ... ... : ... .. . ... ... : ... .. . ... : ... .. . ... ... : ... .. . ... ... ... ...
ROW FF : ... .. . ... ... : ... .. . ... ... : ... .. . ... ... : ... .. . ... : ... .. . ... ... : ... .. . ... ... ... ...

PATTERN 09
ROW 00 : C-2 03 6 V02 ... : --- .. . 400 ... : C-4 03 . 226 ... : C-# 06 8 ... : C-3 24 . F05 ... : B-4 0B A 400 Q21 ... ...
ROW 01 : ... .. 3 ... ... : ... .. . ... ... : ... .. . ... ... : ... .. . ... : ... .. . ... ... : ... .. . ... ... ... ...
ROW 02 : D#2 03 6 ... ... : ... .. . ... ... : ... .. . ... ... : D-# 05 6 ... : ... .. . ... ... : ... .. . ... ... ... ...
ROW 03 : C-2 03 3 ... ... : ... .. . ... ... : ... .. . ... ... : ... .. . ... : ... .. . ... ... : ... .. . ... ... ... ...
ROW 04 : G-2 03 6 ... ... : ... .. . ... ... : C-2 11 . 200 ... : D-# 05 . ... : C-3 24 . ... ... : ... .. . ... ... ... ...
ROW 05 : D#2 03 3 ... ... : ... .. . ... ... : ... .. . S02 ... : ... .. . ... : ... .. . ... ... : ... .. . ... ... ... ...
ROW 06 : C-3 03 6 ... ... : ... .. . ... ... : C-4 03 . 236 ... : D-# 05 . ... : ... .. . ... ... : ... .. . 468 ... ... ...
ROW 07 : G-2 03 3 ... ... : ... .. . ... ... : ... .. . ... ... : ... .. . ... : ... .. . ... ... : ... .. . ... ... ... ...
ROW 08 : C-2 03 7 ... ... : ... .. . ... ... : C-2 11 . 200 ... : C-# 06 8 ... : C-3 24 . ... ... : ... .. . ... ... ... ...
ROW 09 : C-3 03 4 ... ... : ... .. . ... ... : ... .. . S02 ... : ... .. . ... : ... .. . ... ... : ... .. . ... ... ... ...
ROW 0A : D#2 03 7 ... ... : ... .. . ... ... : C-2 11 . ... ... : D-# 05 6 ... : ... .. . ... ... : ... .. 9 ... ... ... ...
ROW 0B : C-2 03 4 ... ... : ... .. . ... ... : ... .. . S02 ... : ... .. . ... : ... .. . ... ... : ... .. 8 ... ... ... ...
ROW 0C : G-2 03 7 ... ... : ... .. . ... ... : C-4 03 . 236 ... : D-# 05 . ... : C-3 24 . ... ... : ... .. 7 ... ... ... ...
ROW 0D : D#2 03 4 ... ... : ... .. . ... ... : ... .. . ... ... : ... .. . ... : ... .. . ... ... : ... .. 6 ... ... ... ...
ROW 0E : C-3 03 7 ... ... : ... .. . ... ... : C-4 03 . ... ... : D-# 05 . ... : ... .. . ... ... : ... .. 5 ... ... ... ...
ROW 0F : G-2 03 4 ... ... : ... .. . ... ... : ... .. . ... ... : ... .. . ... : ... .. . ... ... : ... .. 4 ... ... ... ...
ROW 10 : C-2 03 8 ... ... : ... .. . ... ... : C-2 11 . 200 ... : C-# 06 8 ... : C-3 24 . ... ... : C-3 00 A 400 I00 J4D ...
ROW 11 : C-3 03 5 ... ... : ... .. . ... ... : ... .. . ... ... : ... .. . ... : ... .. . ... ... : ... .. . ... ... ... ...
ROW 12 : D#2 03 8 ... ... : ... .. . ... ... : D#2 11 . ... ... : D-# 05 6 ... : ... .. . ... ... : D#3 00 . ... I00 J5B ...
ROW 13 : C-2 03 5 ... ... : ... .. . ... ... : ... .. . ... ... : ... .. . ... : ... .. . ... ... : ... .. . ... ... ... ...
ROW 14 : G-2 03 8 ... ... : ... .. . ... ... : F-2 11 . ... ... : D-# 05 . ... : C-3 24 . ... ... : F-3 00 . ... I00 J66 ...
ROW 15 : D#2 03 5 ... ... : ... .. . ... ... : ... .. . ... ... : ... .. . ... : ... .. . ... ... : ... .. . ... ... ... ...
ROW 16 : C-3 03 8 ... ... : ... .. . ... ... : G#2 11 . ... ... : D-# 05 . ... : ... .. . ... ... : G#3 00 . ... I00 J7A ...
ROW 17 : G-2 03 5 ... ... : ... .. . ... ... : ... .. . ... ... : ... .. . ... : ... .. . ... ... : ... .. . ... ... ... ...
ROW 18 : C-2 03 9 ... ... : ... .. . ... ... : A#2 11 . ... ... : C-# 06 8 ... : C-3 24 . ... ... : A#3 00 . ... I00 J89 ...
ROW 19 : C-3 03 6 ... ... : ... .. . ... ... : ... .. . ... ... : ... .. . ... : ... .. . ... ... : ... .. . ... ... ... ...
ROW 1A : D#2 03 9 ... ... : ... .. . ... ... : G#2 11 . ... ... : D-# 05 6 ... : ... .. . ... ... : G#3 00 . ... I00 J7A ...
ROW 1B : C-2 03 6 ... ... : ... .. . ... ... : ... .. . ... ... : ... .. . ... : ... .. . ... ... : ... .. . ... ... ... ...
ROW 1C : G-2 03 9 ... ... : ... .. . ... ... : F-2 11 . ... ... : D-# 05 . ... : C-3 24 . ... ... : F-3 00 . ... I00 J66 ...
ROW 1D : D#2 03 6 ... ... : ... .. . ... ... : ... .. . ... ... : ... .. . ... : ... .. . ... ... : ... .. . ... ... ... ...
ROW 1E : C-3 03 9 ... ... : ... .. . ... ... : D#2 11 . ... ... : D-# 05 . ... : ... .. . ... ... : D#3 00 . ... I00 J5B ...
ROW 1F : G-2 03 6 ... ... : ... .. . ... ... : ... .. . ... ... : ... .. . ... : ... .. . ... ... : ... .. . ... ... ... ...
ROW 20 : G-3 03 9 ... ... : ... .. . ... ... : C-4 03 . 226 ... : C-# 06 8 ... : G-3 24 . ... ... : C-3 00 . ... I00 J4D ...
ROW 21 : ... .. 6 ... ... : ... .. . ... ... : ... .. . ... ... : ... .. . ... : ... .. . ... ... : ... .. . ... ... ... ...
ROW 22 : D-3 03 9 ... ... : ... .. . ... ... : ... .. . ... ... : D-# 05 6 ... : ... .. . ... ... : ... .. . ... ... ... ...
ROW 23 : G-3 03 6 ... ... : ... .. . ... ... : ... .. . ... ... : ... .. . ... : ... .. . ... ... : ... .. . ... ... ... ...
ROW 24 : A#2 03 9 ... ... : ... .. . ... ... : C-2 11 . 200 ... : D-# 05 . ... : G-3 24 . ... ... : C-3 00 . ... I00 J4D ...
ROW 25 : D-3 03 6 ... ... : ... .. . ... ... : ... .. . S02 ... : ... .. . ... : ... .. . ... ... : ... .. . ... ... ... ...
ROW 26 : G-2 03 9 ... ... : ... .. . ... ... : C-4 03 . 236 ... : D-# 05 . ... : ... .. . ... ... : C-3 00 . ... I00 J4D ...
ROW 27 : A#2 03 6 ... ... : ... .. . ... ... : ... .. . ... ... : ... .. . ... : ... .. . ... ... : ... .. . ... ... ... ...
ROW 28 : G-3 03 8 ... ... : ... .. . ... ... : C-2 11 . 200 ... : C-# 06 8 ... : G-3 24 . ... ... : C-3 00 . ... I00 J4D ...
ROW 29 : G-2 03 5 ... ... : ... .. . ... ... : ... .. . S02 ... : ... .. . ... : ... .. . ... ... : ... .. . ... ... ... ...
ROW 2A : D-3 03 8 ... ... : ... .. . ... ... : C-2 11 . ... ... : D-# 05 6 ... : ... .. . ... ... : C-3 00 . ... I00 J4D ...
ROW 2B : G-3 03 5 ... ... : ... .. . ... ... : ... .. . S02 ... : ... .. . ... : ... .. . ... ... : ... .. . ... ... ... ...
ROW 2C : A#2 03 8 ... ... : ... .. . ... ... : C-4 03 . 236 ... : D-# 05 . ... : G-3 24 . ... ... : C-3 00 . ... I00 J4D ...
ROW 2D : D-3 03 5 ... ... : ... .. . ... ... : ... .. . ... ... : ... .. . ... : ... .. . ... ... : ... .. . ... ... ... ...
ROW 2E : G-2 03 8 ... ... : ... .. . ... ... : C-4 03 . ... ... : D-# 05 . ... : ... .. . ... ... : C-3 00 . ... I00 J4D ...
ROW 2F : A#2 03 5 ... ... : ... .. . ... ... : ... .. . ... ... : ... .. . ... : ... .. . ... ... : ... .. . ... ... ... ...
ROW 30 : G-3 03 7 ... ... : G-3 0D F ... ... : --- 11 . 200 ... : C-# 06 8 ... : G-3 24 . ... ... : ... .. . ... ... ... ...
ROW 31 : G-2 03 4 ... ... : ... .. . ... ... : ... .. . ... ... : ... .. . ... : ... .. . ... ... : ... .. . ... ... ... ...
ROW 32 : D-3 03 7 ... ... : ... .. 9 ... ... : ... .. . ... ... : D-# 05 6 ... : ... .. . ... ... : ... .. . ... ... ... ...
ROW 33 : G-3 03 4 ... ... : ... .. 8 ... ... : ... .. . ... ... : ... .. . ... : ... .. . ... ... : ... .. . ... ... ... ...
ROW 34 : A#2 03 7 ... ... : D-3 0D F ... ... : ... .. . ... ... : D-# 05 . ... : G-3 24 . ... ... : ... .. . ... ... ... ...
ROW 35 : D-3 03 4 ... ... : ... .. . ... ... : ... .. . ... ... : ... .. . ... : ... .. . ... ... : ... .. . ... ... ... ...
ROW 36 : G-2 03 7 ... ... : G-3 0D 9 ... ... : ... .. . ... ... : D-# 05 . ... : ... .. . ... ... : ... .. . ... ... ... ...
ROW 37 : A#2 03 4 ... ... : ... .. 8 ... ... : ... .. . ... ... : ... .. . ... : ... .. . ... ... : ... .. . ... ... ... ...
ROW 38 : G-3 03 6 ... ... : G-3 0D F ... ... : C-4 03 . 236 ... : 6-# 08 A ... : G-3 24 . ... ... : ... .. . ... ... ... ...
ROW 39 : G-2 03 3 ... ... : ... .. . ... ... : ... .. . ... ... : ... .. . ... : ... .. . ... ... : ... .. . ... ... ... ...
ROW 3A : D-3 03 6 ... ... : D-3 0D 9 ... ... : ... .. . ... ... : D-# 05 6 ... : ... .. . ... ... : ... .. . ... ... ... ...
ROW 3B : G-3 03 3 ... ... : ... .. 8 ... ... : ... .. . ... ... : ... .. . ... : ... .. . ... ... : ... .. . ... ... ... ...
ROW 3C : A#2 03 6 ... ... : A#3 0D F ... ... : C-4 03 . ... ... : 6-# 08 A ... : G-3 24 . ... ... : ... .. . ... ... ... ...
ROW 3D : D-3 03 3 ... ... : ... .. . ... ... : ... .. . ... ... : ... .. . ... : ... .. . ... ... : ... .. . ... ... ... ...
ROW 3E : G-2 03 6 ... ... : G-3 0D 9 ... ... : ... .. . ... ... : 6-# 08 . ... : ... .. . ... ... : ... .. . ... ... ... ...
ROW 3F : A#2 03 3 ... ... : ... .. 8 ... ... : ... .. . ... ... : ... .. . ... : ... .. . D00 ... : ... .. . ... ... ... ...
ROW 40 : ... .. . ... ... : ... .. . ... ... : ... .. . ... ... : ... .. . ... : ... .. . ... ... : ... .. . ... ... ... ...
ROW 41 : ... .. . ... ... : ... .. . ... ... : ... .. . ... ... : ... .. . ... : ... .. . ... ... : ... .. . ... ... ... ...
ROW 42 : ... .. . ... ... : ... .. . ... ... : ... .. . ... ... : ... .. . ... : ... .. . ... ... : ... .. . ... ... ... ...
ROW 43 : ... .. . ... ... : ... .. . ... ... : ... .. . ... ... : ... .. . ... : ... .. . ... ... : ... .. . ... ... ... ...
ROW 44 : ... .. . ... ... : ... .. . ... ... : ... .. . ... ... : ... .. . ... : ... .. . ... ... : ... .. . ... ... ... ...
ROW 45 : ... .. . ... ... : ... .. . ... ... : ... .. . ... ... : ... .. . ... : ... .. . ... ... : ... .. . ... ... ... ...
ROW 46 : ... .. . ... ... : ... .. . ... ... : ... .. . ... ... : ... .. . ... : ... .. . ... ... : ... .. . ... ... ... ...
ROW 47 : ... .. . ... ... : ... .. . ... ... : ... .. . ... ... : ... .. . ... : ... .. . ... ... : ... .. . ... ... ... ...
ROW 48 : ... .. . ... ... : ... .. . ... ... : ... .. . ... ... : ... .. . ... : ... .. . ... ... : ... .. . ... ... ... ...
ROW 49 : ... .. . ... ... : ... .. . ... ... : ... .. . ... ... : ... .. . ... : ... .. . ... ... : ... .. . ... ... ... ...
ROW 4A : ... .. . ... ... : ... .. . ... ... : ... .. . ... ... : ... .. . ... : ... .. . ... ... : ... .. . ... ... ... ...
ROW 4B : ... .. . ... ... : ... .. . ... ... : ... .. . ... ... : ... .. . ... : ... .. . ... ... : ... .. . ... ... ... ...
ROW 4C : ... .. . ... ... : ... .. . ... ... : ... .. . ... ... : ... .. . ... : ... .. . ... ... : ... .. . ... ... ... ...
ROW 4D : ... .. . ... ... : ... .. . ... ... : ... .. . ... ... : ... .. . ... : ... .. . ... ... : ... .. . ... ... ... ...
ROW 4E : ... .. . ... ... : ... .. . ... ... : ... .. . ... ... : ... .. . ... : ... .. . ... ... : ... .. . ... ... ... ...
ROW 4F : ... .. . ... ... : ... .. . ... ... : ... .. . ... ... : ... .. . ... : ... .. . ... ... : ... .. . ... ... ... ...
ROW 50 : ... .. . ... ... : ... .. . ... ... : ... .. . ... ... : ... .. . ... : ... .. . ... ... : ... .. . ... ... ... ...
ROW 51 : ... .. . ... ... : ... .. . ... ... : ... .. . ... ... : ... .. . ... : ... .. . ... ... : ... .. . ... ... ... ...
ROW 52 : ... .. . ... ... : ... .. . ... ... : ... .. . ... ... : ... .. . ... : ... .. . ... ... : ... .. . ... ... ... ...
ROW 53 : ... .. . ... ... : ... .. . ... ... : ... .. . ... ... : ... .. . ... : ... .. . ... ... : ... .. . ... ... ... ...
ROW 54 : ... .. . ... ... : ... .. . ... ... : ... .. . ... ... : ... .. . ... : ... .. . ... ... : ... .. . ... ... ... ...
ROW 55 : ... .. . ... ... : ... .. . ... ... : ... .. . ... ... : ... .. . ... : ... .. . ... ... : ... .. . ... ... ... ...
ROW 56 : ... .. . ... ... : ... .. . ... ... : ... .. . ... ... : ... .. . ... : ... .. . ... ... : ... .. . ... ... ... ...
ROW 57 : ... .. . ... ... : ... .. . ... ... : ... .. . ... ... : ... .. . ... : ... .. . ... ... : ... .. . ... ... ... ...
ROW 58 : ... .. . ... ... : ... .. . ... ... : ... .. . ... ... : ... .. . ... : ... .. . ... ... : ... .. . ... ... ... ...
ROW 59 : ... .. . ... ... : ... .. . ... ... : ... .. . ... ... : ... .. . ... : ... .. . ... ... : ... .. . ... ... ... ...
ROW 5A : ... .. . ... ... : ... .. . ... ... : ... .. . ... ... : ... .. . ... : ... .. . ... ... : ... .. . ... ... ... ...
ROW 5B : ... .. . ... ... : ... .. . ... ... : ... .. . ... ... : ... .. . ... : ... .. . ... ... : ... .. . ... ... ... ...
ROW 5C : ... .. . ... ... : ... .. . ... ... : ... .. . ... ... : ... .. . ... : ... .. . ... ... : ... .. . ... ... ... ...
ROW 5D : ... .. . ... ... : ... .. . ... ... : ... .. . ... ... : ... .. . ... : ... .. . ... ... : ... .. . ... ... ... ...
ROW 5E : ... .. . ... ... : ... .. . ... ... : ... .. . ... ... : ... .. . ... : ... .. . ... ... : ... .. . ... ... ... ...
ROW 5F : ... .. . ... ... : ... .. . ... ... : ... .. . ... ... : ... .. . ... : ... .. . ... ... : ... .. . ... ... ... ...
ROW 60 : ... .. . ... ... : ... .. . ... ... : ... .. . ... ... : ... .. . ... : ... .. . ... ... : ... .. . ... ... ... ...
ROW 61 : ... .. . ... ... : ... .. . ... ... : ... .. . ... ... : ... .. . ... : ... .. . ... ... : ... .. . ... ... ... ...
ROW 62 : ... .. . ... ... : ... .. . ... ... : ... .. . ... ... : ... .. . ... : ... .. . ... ... : ... .. . ... ... ... ...
ROW 63 : ... .. . ... ... : ... .. . ... ... : ... .. . ... ... : ... .. . ... : ... .. . ... ... : ... .. . ... ... ... ...
ROW 64 : ... .. . ... ... : ... .. . ... ... : ... .. . ... ... : ... .. . ... : ... .. . ... ... : ... .. . ... ... ... ...
ROW 65 : ... .. . ... ... : ... .. . ... ... : ... .. . ... ... : ... .. . ... : ... .. . ... ... : ... .. . ... ... ... ...
ROW 66 : ... .. . ... ... : ... .. . ... ... : ... .. . ... ... : ... .. . ... : ... .. . ... ... : ... .. . ... ... ... ...
ROW 67 : ... .. . ... ... : ... .. . ... ... : ... .. . ... ... : ... .. . ... : ... .. . ... ... : ... .. . ... ... ... ...
ROW 68 : ... .. . ... ... : ... .. . ... ... : ... .. . ... ... : ... .. . ... : ... .. . ... ... : ... .. . ... ... ... ...
ROW 69 : ... .. . ... ... : ... .. . ... ... : ... .. . ... ... : ... .. . ... : ... .. . ... ... : ... .. . ... ... ... ...
ROW 6A : ... .. . ... ... : ... .. . ... ... : ... .. . ... ... : ... .. . ... : ... .. . ... ... : ... .. . ... ... ... ...
ROW 6B : ... .. . ... ... : ... .. . ... ... : ... .. . ... ... : ... .. . ... : ... .. . ... ... : ... .. . ... ... ... ...
ROW 6C : ... .. . ... ... : ... .. . ... ... : ... .. . ... ... : ... .. . ... : ... .. . ... ... : ... .. . ... ... ... ...
ROW 6D : ... .. . ... ... : ... .. . ... ... : ... .. . ... ... : ... .. . ... : ... .. . ... ... : ... .. . ... ... ... ...
ROW 6E : ... .. . ... ... : ... .. . ... ... : ... .. . ... ... : ... .. . ... : ... .. . ... ... : ... .. . ... ... ... ...
ROW 6F : ... .. . ... ... : ... .. . ... ... : ... .. . ... ... : ... .. . ... : ... .. . ... ... : ... .. . ... ... ... ...
ROW 70 : ... .. . ... ... : ... .. . ... ... : ... .. . ... ... : ... .. . ... : ... .. . ... ... : ... .. . ... ... ... ...
ROW 71 : ... .. . ... ... : ... .. . ... ... : ... .. . ... ... : ... .. . ... : ... .. . ... ... : ... .. . ... ... ... ...
ROW 72 : ... .. . ... ... : ... .. . ... ... : ... .. . ... ... : ... .. . ... : ... .. . ... ... : ... .. . ... ... ... ...
ROW 73 : ... .. . ... ... : ... .. . ... ... : ... .. . ... ... : ... .. . ... : ... .. . ... ... : ... .. . ... ... ... ...
ROW 74 : ... .. . ... ... : ... .. . ... ... : ... .. . ... ... : ... .. . ... : ... .. . ... ... : ... .. . ... ... ... ...
ROW 75 : ... .. . ... ... : ... .. . ... ... : ... .. . ... ... : ... .. . ... : ... .. . ... ... : ... .. . ... ... ... ...
ROW 76 : ... .. . ... ... : ... .. . ... ... : ... .. . ... ... : ... .. . ... : ... .. . ... ... : ... .. . ... ... ... ...
ROW 77 : ... .. . ... ... : ... .. . ... ... : ... .. . ... ... : ... .. . ... : ... .. . ... ... : ... .. . ... ... ... ...
ROW 78 : ... .. . ... ... : ... .. . ... ... : ... .. . ... ... : ... .. . ... : ... .. . ... ... : ... .. . ... ... ... ...
ROW 79 : ... .. . ... ... : ... .. . ... ... : ... .. . ... ... : ... .. . ... : ... .. . ... ... : ... .. . ... ... ... ...
ROW 7A : ... .. . ... ... : ... .. . ... ... : ... .. . ... ... : ... .. . ... : ... .. . ... ... : ... .. . ... ... ... ...
ROW 7B : ... .. . ... ... : ... .. . ... ... : ... .. . ... ... : ... .. . ... : ... .. . ... ... : ... .. . ... ... ... ...
ROW 7C : ... .. . ... ... : ... .. . ... ... : ... .. . ... ... : ... .. . ... : ... .. . ... ... : ... .. . ... ... ... ...
ROW 7D : ... .. . ... ... : ... .. . ... ... : ... .. . ... ... : ... .. . ... : ... .. . ... ... : ... .. . ... ... ... ...
ROW 7E : ... .. . ... ... : ... .. . ... ... : ... .. . ... ... : ... .. . ... : ... .. . ... ... : ... .. . ... ... ... ...
ROW 7F : ... .. . ... ... : ... .. . ... ... : ... .. . ... ... : ... .. . ... : ... .. . ... ... : ... .. . ... ... ... ...
ROW 80 : ... .. . ... ... : ... .. . ... ... : ... .. . ... ... : ... .. . ... : ... .. . ... ... : ... .. . ... ... ... ...
ROW 81 : ... .. . ... ... : ... .. . ... ... : ... .. . ... ... : ... .. . ... : ... .. . ... ... : ... .. . ... ... ... ...
ROW 82 : ... .. . ... ... : ... .. . ... ... : ... .. . ... ... : ... .. . ... : ... .. . ... ... : ... .. . ... ... ... ...
ROW 83 : ... .. . ... ... : ... .. . ... ... : ... .. . ... ... : ... .. . ... : ... .. . ... ... : ... .. . ... ... ... ...
ROW 84 : ... .. . ... ... : ... .. . ... ... : ... .. . ... ... : ... .. . ... : ... .. . ... ... : ... .. . ... ... ... ...
ROW 85 : ... .. . ... ... : ... .. . ... ... : ... .. . ... ... : ... .. . ... : ... .. . ... ... : ... .. . ... ... ... ...
ROW 86 : ... .. . ... ... : ... .. . ... ... : ... .. . ... ... : ... .. . ... : ... .. . ... ... : ... .. . ... ... ... ...
ROW 87 : ... .. . ... ... : ... .. . ... ... : ... .. . ... ... : ... .. . ... : ... .. . ... ... : ... .. . ... ... ... ...
ROW 88 : ... .. . ... ... : ... .. . ... ... : ... .. . ... ... : ... .. . ... : ... .. . ... ... : ... .. . ... ... ... ...
ROW 89 : ... .. . ... ... : ... .. . ... ... : ... .. . ... ... : ... .. . ... : ... .. . ... ... : ... .. . ... ... ... ...
ROW 8A : ... .. . ... ... : ... .. . ... ... : ... .. . ... ... : ... .. . ... : ... .. . ... ... : ... .. . ... ... ... ...
ROW 8B : ... .. . ... ... : ... .. . ... ... : ... .. . ... ... : ... .. . ... : ... .. . ... ... : ... .. . ... ... ... ...
ROW 8C : ... .. . ... ... : ... .. . ... ... : ... .. . ... ... : ... .. . ... : ... .. . ... ... : ... .. . ... ... ... ...
ROW 8D : ... .. . ... ... : ... .. . ... ... : ... .. . ... ... : ... .. . ... : ... .. . ... ... : ... .. . ... ... ... ...
ROW 8E : ... .. . ... ... : ... .. . ... ... : ... .. . ... ... : ... .. . ... : ... .. . ... ... : ... .. . ... ... ... ...
ROW 8F : ... .. . ... ... : ... .. . ... ... : ... .. . ... ... : ... .. . ... : ... .. . ... ... : ... .. . ... ... ... ...
ROW 90 : ... .. . ... ... : ... .. . ... ... : ... .. . ... ... : ... .. . ... : ... .. . ... ... : ... .. . ... ... ... ...
ROW 91 : ... .. . ... ... : ... .. . ... ... : ... .. . ... ... : ... .. . ... : ... .. . ... ... : ... .. . ... ... ... ...
ROW 92 : ... .. . ... ... : ... .. . ... ... : ... .. . ... ... : ... .. . ... : ... .. . ... ... : ... .. . ... ... ... ...
ROW 93 : ... .. . ... ... : ... .. . ... ... : ... .. . ... ... : ... .. . ... : ... .. . ... ... : ... .. . ... ... ... ...
ROW 94 : ... .. . ... ... : ... .. . ... ... : ... .. . ... ... : ... .. . ... : ... .. . ... ... : ... .. . ... ... ... ...
ROW 95 : ... .. . ... ... : ... .. . ... ... : ... .. . ... ... : ... .. . ... : ... .. . ... ... : ... .. . ... ... ... ...
ROW 96 : ... .. . ... ... : ... .. . ... ... : ... .. . ... ... : ... .. . ... : ... .. . ... ... : ... .. . ... ... ... ...
ROW 97 : ... .. . ... ... : ... .. . ... ... : ... .. . ... ... : ... .. . ... : ... .. . ... ... : ... .. . ... ... ... ...
ROW 98 : ... .. . ... ... : ... .. . ... ... : ... .. . ... ... : ... .. . ... : ... .. . ... ... : ... .. . ... ... ... ...
ROW 99 : ... .. . ... ... : ... .. . ... ... : ... .. . ... ... : ... .. . ... : ... .. . ... ... : ... .. . ... ... ... ...
ROW 9A : ... .. . ... ... : ... .. . ... ... : ... .. . ... ... : ... .. . ... : ... .. . ... ... : ... .. . ... ... ... ...
ROW 9B : ... .. . ... ... : ... .. . ... ... : ... .. . ... ... : ... .. . ... : ... .. . ... ... : ... .. . ... ... ... ...
ROW 9C : ... .. . ... ... : ... .. . ... ... : ... .. . ... ... : ... .. . ... : ... .. . ... ... : ... .. . ... ... ... ...
ROW 9D : ... .. . ... ... : ... .. . ... ... : ... .. . ... ... : ... .. . ... : ... .. . ... ... : ... .. . ... ... ... ...
ROW 9E : ... .. . ... ... : ... .. . ... ... : ... .. . ... ... : ... .. . ... : ... .. . ... ... : ... .. . ... ... ... ...
ROW 9F : ... .. . ... ... : ... .. . ... ... : ... .. . ... ... : ... .. . ... : ... .. . ... ... : ... .. . ... ... ... ...
ROW A0 : ... .. . ... ... : ... .. . ... ... : ... .. . ... ... : ... .. . ... : ... .. . ... ... : ... .. . ... ... ... ...
ROW A1 : ... .. . ... ... : ... .. . ... ... : ... .. . ... ... : ... .. . ... : ... .. . ... ... : ... .. . ... ... ... ...
ROW A2 : ... .. . ... ... : ... .. . ... ... : ... .. . ... ... : ... .. . ... : ... .. . ... ... : ... .. . ... ... ... ...
ROW A3 : ... .. . ... ... : ... .. . ... ... : ... .. . ... ... : ... .. . ... : ... .. . ... ... : ... .. . ... ... ... ...
ROW A4 : ... .. . ... ... : ... .. . ... ... : ... .. . ... ... : ... .. . ... : ... .. . ... ... : ... .. . ... ... ... ...
ROW A5 : ... .. . ... ... : ... .. . ... ... : ... .. . ... ... : ... .. . ... : ... .. . ... ... : ... .. . ... ... ... ...
ROW A6 : ... .. . ... ... : ... .. . ... ... : ... .. . ... ... : ... .. . ... : ... .. . ... ... : ... .. . ... ... ... ...
ROW A7 : ... .. . ... ... : ... .. . ... ... : ... .. . ... ... : ... .. . ... : ... .. . ... ... : ... .. . ... ... ... ...
ROW A8 : ... .. . ... ... : ... .. . ... ... : ... .. . ... ... : ... .. . ... : ... .. . ... ... : ... .. . ... ... ... ...
ROW A9 : ... .. . ... ... : ... .. . ... ... : ... .. . ... ... : ... .. . ... : ... .. . ... ... : ... .. . ... ... ... ...
ROW AA : ... .. . ... ... : ... .. . ... ... : ... .. . ... ... : ... .. . ... : ... .. . ... ... : ... .. . ... ... ... ...
ROW AB : ... .. . ... ... : ... .. . ... ... : ... .. . ... ... : ... .. . ... : ... .. . ... ... : ... .. . ... ... ... ...
ROW AC : ... .. . ... ... : ... .. . ... ... : ... .. . ... ... : ... .. . ... : ... .. . ... ... : ... .. . ... ... ... ...
ROW AD : ... .. . ... ... : ... .. . ... ... : ... .. . ... ... : ... .. . ... : ... .. . ... ... : ... .. . ... ... ... ...
ROW AE : ... .. . ... ... : ... .. . ... ... : ... .. . ... ... : ... .. . ... : ... .. . ... ... : ... .. . ... ... ... ...
ROW AF : ... .. . ... ... : ... .. . ... ... : ... .. . ... ... : ... .. . ... : ... .. . ... ... : ... .. . ... ... ... ...
ROW B0 : ... .. . ... ... : ... .. . ... ... : ... .. . ... ... : ... .. . ... : ... .. . ... ... : ... .. . ... ... ... ...
ROW B1 : ... .. . ... ... : ... .. . ... ... : ... .. . ... ... : ... .. . ... : ... .. . ... ... : ... .. . ... ... ... ...
ROW B2 : ... .. . ... ... : ... .. . ... ... : ... .. . ... ... : ... .. . ... : ... .. . ... ... : ... .. . ... ... ... ...
ROW B3 : ... .. . ... ... : ... .. . ... ... : ... .. . ... ... : ... .. . ... : ... .. . ... ... : ... .. . ... ... ... ...
ROW B4 : ... .. . ... ... : ... .. . ... ... : ... .. . ... ... : ... .. . ... : ... .. . ... ... : ... .. . ... ... ... ...
ROW B5 : ... .. . ... ... : ... .. . ... ... : ... .. . ... ... : ... .. . ... : ... .. . ... ... : ... .. . ... ... ... ...
ROW B6 : ... .. . ... ... : ... .. . ... ... : ... .. . ... ... : ... .. . ... : ... .. . ... ... : ... .. . ... ... ... ...
ROW B7 : ... .. . ... ... : ... .. . ... ... : ... .. . ... ... : ... .. . ... : ... .. . ... ... : ... .. . ... ... ... ...
ROW B8 : ... .. . ... ... : ... .. . ... ... : ... .. . ... ... : ... .. . ... : ... .. . ... ... : ... .. . ... ... ... ...
ROW B9 : ... .. . ... ... : ... .. . ... ... : ... .. . ... ... : ... .. . ... : ... .. . ... ... : ... .. . ... ... ... ...
ROW BA : ... .. . ... ... : ... .. . ... ... : ... .. . ... ... : ... .. . ... : ... .. . ... ... : ... .. . ... ... ... ...
ROW BB : ... .. . ... ... : ... .. . ... ... : ... .. . ... ... : ... .. . ... : ... .. . ... ... : ... .. . ... ... ... ...
ROW BC : ... .. . ... ... : ... .. . ... ... : ... .. . ... ... : ... .. . ... : ... .. . ... ... : ... .. . ... ... ... ...
ROW BD : ... .. . ... ... : ... .. . ... ... : ... .. . ... ... : ... .. . ... : ... .. . ... ... : ... .. . ... ... ... ...
ROW BE : ... .. . ... ... : ... .. . ... ... : ... .. . ... ... : ... .. . ... : ... .. . ... ... : ... .. . ... ... ... ...
ROW BF : ... .. . ... ... : ... .. . ... ... : ... .. . ... ... : ... .. . ... : ... .. . ... ... : ... .. . ... ... ... ...
ROW C0 : ... .. . ... ... : ... .. . ... ... : ... .. . ... ... : ... .. . ... : ... .. . ... ... : ... .. . ... ... ... ...
ROW C1 : ... .. . ... ... : ... .. . ... ... : ... .. . ... ... : ... .. . ... : ... .. . ... ... : ... .. . ... ... ... ...
ROW C2 : ... .. . ... ... : ... .. . ... ... : ... .. . ... ... : ... .. . ... : ... .. . ... ... : ... .. . ... ... ... ...
ROW C3 : ... .. . ... ... : ... .. . ... ... : ... .. . ... ... : ... .. . ... : ... .. . ... ... : ... .. . ... ... ... ...
ROW C4 : ... .. . ... ... : ... .. . ... ... : ... .. . ... ... : ... .. . ... : ... .. . ... ... : ... .. . ... ... ... ...
ROW C5 : ... .. . ... ... : ... .. . ... ... : ... .. . ... ... : ... .. . ... : ... .. . ... ... : ... .. . ... ... ... ...
ROW C6 : ... .. . ... ... : ... .. . ... ... : ... .. . ... ... : ... .. . ... : ... .. . ... ... : ... .. . ... ... ... ...
ROW C7 : ... .. . ... ... : ... .. . ... ... : ... .. . ... ... : ... .. . ... : ... .. . ... ... : ... .. . ... ... ... ...
ROW C8 : ... .. . ... ... : ... .. . ... ... : ... .. . ... ... : ... .. . ... : ... .. . ... ... : ... .. . ... ... ... ...
ROW C9 : ... .. . ... ... : ... .. . ... ... : ... .. . ... ... : ... .. . ... : ... .. . ... ... : ... .. . ... ... ... ...
ROW CA : ... .. . ... ... : ... .. . ... ... : ... .. . ... ... : ... .. . ... : ... .. . ... ... : ... .. . ... ... ... ...
ROW CB : ... .. . ... ... : ... .. . ... ... : ... .. . ... ... : ... .. . ... : ... .. . ... ... : ... .. . ... ... ... ...
ROW CC : ... .. . ... ... : ... .. . ... ... : ... .. . ... ... : ... .. . ... : ... .. . ... ... : ... .. . ... ... ... ...
ROW CD : ... .. . ... ... : ... .. . ... ... : ... .. . ... ... : ... .. . ... : ... .. . ... ... : ... .. . ... ... ... ...
ROW CE : ... .. . ... ... : ... .. . ... ... : ... .. . ... ... : ... .. . ... : ... .. . ... ... : ... .. . ... ... ... ...
ROW CF : ... .. . ... ... : ... .. . ... ... : ... .. . ... ... : ... .. . ... : ... .. . ... ... : ... .. . ... ... ... ...
ROW D0 : ... .. . ... ... : ... .. . ... ... : ... .. . ... ... : ... .. . ... : ... .. . ... ... : ... .. . ... ... ... ...
ROW D1 : ... .. . ... ... : ... .. . ... ... : ... .. . ... ... : ... .. . ... : ... .. . ... ... : ... .. . ... ... ... ...
ROW D2 : ... .. . ... ... : ... .. . ... ... : ... .. . ... ... : ... .. . ... : ... .. . ... ... : ... .. . ... ... ... ...
ROW D3 : ... .. . ... ... : ... .. . ... ... : ... .. . ... ... : ... .. . ... : ... .. . ... ... : ... .. . ... ... ... ...
ROW D4 : ... .. . ... ... : ... .. . ... ... : ... .. . ... ... : ... .. . ... : ... .. . ... ... : ... .. . ... ... ... ...
ROW D5 : ... .. . ... ... : ... .. . ... ... : ... .. . ... ... : ... .. . ... : ... .. . ... ... : ... .. . ... ... ... ...
ROW D6 : ... .. . ... ... : ... .. . ... ... : ... .. . ... ... : ... .. . ... : ... .. . ... ... : ... .. . ... ... ... ...
ROW D7 : ... .. . ... ... : ... .. . ... ... : ... .. . ... ... : ... .. . ... : ... .. . ... ... : ... .. . ... ... ... ...
ROW D8 : ... .. . ... ... : ... .. . ... ... : ... .. . ... ... : ... .. . ... : ... .. . ... ... : ... .. . ... ... ... ...
ROW D9 : ... .. . ... ... : ... .. . ... ... : ... .. . ... ... : ... .. . ... : ... .. . ... ... : ... .. . ... ... ... ...
ROW DA : ... .. . ... ... : ... .. . ... ... : ... .. . ... ... : ... .. . ... : ... .. . ... ... : ... .. . ... ... ... ...
ROW DB : ... .. . ... ... : ... .. . ... ... : ... .. . ... ... : ... .. . ... : ... .. . ... ... : ... .. . ... ... ... ...
ROW DC : ... .. . ... ... : ... .. . ... ... : ... .. . ... ... : ... .. . ... : ... .. . ... ... : ... .. . ... ... ... ...
ROW DD : ... .. . ... ... : ... .. . ... ... : ... .. . ... ... : ... .. . ... : ... .. . ... ... : ... .. . ... ... ... ...
ROW DE : ... .. . ... ... : ... .. . ... ... : ... .. . ... ... : ... .. . ... : ... .. . ... ... : ... .. . ... ... ... ...
ROW DF : ... .. . ... ... : ... .. . ... ... : ... .. . ... ... : ... .. . ... : ... .. . ... ... : ... .. . ... ... ... ...
ROW E0 : ... .. . ... ... : ... .. . ... ... : ... .. . ... ... : ... .. . ... : ... .. . ... ... : ... .. . ... ... ... ...
ROW E1 : ... .. . ... ... : ... .. . ... ... : ... .. . ... ... : ... .. . ... : ... .. . ... ... : ... .. . ... ... ... ...
ROW E2 : ... .. . ... ... : ... .. . ... ... : ... .. . ... ... : ... .. . ... : ... .. . ... ... : ... .. . ... ... ... ...
ROW E3 : ... .. . ... ... : ... .. . ... ... : ... .. . ... ... : ... .. . ... : ... .. . ... ... : ... .. . ... ... ... ...
ROW E4 : ... .. . ... ... : ... .. . ... ... : ... .. . ... ... : ... .. . ... : ... .. . ... ... : ... .. . ... ... ... ...
ROW E5 : ... .. . ... ... : ... .. . ... ... : ... .. . ... ... : ... .. . ... : ... .. . ... ... : ... .. . ... ... ... ...
ROW E6 : ... .. . ... ... : ... .. . ... ... : ... .. . ... ... : ... .. . ... : ... .. . ... ... : ... .. . ... ... ... ...
ROW E7 : ... .. . ... ... : ... .. . ... ... : ... .. . ... ... : ... .. . ... : ... .. . ... ... : ... .. . ... ... ... ...
ROW E8 : ... .. . ... ... : ... .. . ... ... : ... .. . ... ... : ... .. . ... : ... .. . ... ... : ... .. . ... ... ... ...
ROW E9 : ... .. . ... ... : ... .. . ... ... : ... .. . ... ... : ... .. . ... : ... .. . ... ... : ... .. . ... ... ... ...
ROW EA : ... .. . ... ... : ... .. . ... ... : ... .. . ... ... : ... .. . ... : ... .. . ... ... : ... .. . ... ... ... ...
ROW EB : ... .. . ... ... : ... .. . ... ... : ... .. . ... ... : ... .. . ... : ... .. . ... ... : ... .. . ... ... ... ...
ROW EC : ... .. . ... ... : ... .. . ... ... : ... .. . ... ... : ... .. . ... : ... .. . ... ... : ... .. . ... ... ... ...
ROW ED : ... .. . ... ... : ... .. . ... ... : ... .. . ... ... : ... .. . ... : ... .. . ... ... : ... .. . ... ... ... ...
ROW EE : ... .. . ... ... : ... .. . ... ... : ... .. . ... ... : ... .. . ... : ... .. . ... ... : ... .. . ... ... ... ...
ROW EF : ... .. . ... ... : ... .. . ... ... : ... .. . ... ... : ... .. . ... : ... .. . ... ... : ... .. . ... ... ... ...
ROW F0 : ... .. . ... ... : ... .. . ... ... : ... .. . ... ... : ... .. . ... : ... .. . ... ... : ... .. . ... ... ... ...
ROW F1 : ... .. . ... ... : ... .. . ... ... : ... .. . ... ... : ... .. . ... : ... .. . ... ... : ... .. . ... ... ... ...
ROW F2 : ... .. . ... ... : ... .. . ... ... : ... .. . ... ... : ... .. . ... : ... .. . ... ... : ... .. . ... ... ... ...
ROW F3 : ... .. . ... ... : ... .. . ... ... : ... .. . ... ... : ... .. . ... : ... .. . ... ... : ... .. . ... ... ... ...
ROW F4 : ... .. . ... ... : ... .. . ... ... : ... .. . ... ... : ... .. . ... : ... .. . ... ... : ... .. . ... ... ... ...
ROW F5 : ... .. . ... ... : ... .. . ... ... : ... .. . ... ... : ... .. . ... : ... .. . ... ... : ... .. . ... ... ... ...
ROW F6 : ... .. . ... ... : ... .. . ... ... : ... .. . ... ... : ... .. . ... : ... .. . ... ... : ... .. . ... ... ... ...
ROW F7 : ... .. . ... ... : ... .. . ... ... : ... .. . ... ... : ... .. . ... : ... .. . ... ... : ... .. . ... ... ... ...
ROW F8 : ... .. . ... ... : ... .. . ... ... : ... .. . ... ... : ... .. . ... : ... .. . ... ... : ... .. . ... ... ... ...
ROW F9 : ... .. . ... ... : ... .. . ... ... : ... .. . ... ... : ... .. . ... : ... .. . ... ... : ... .. . ... ... ... ...
ROW FA : ... .. . ... ... : ... .. . ... ... : ... .. . ... ... : ... .. . ... : ... .. . ... ... : ... .. . ... ... ... ...
ROW FB : ... .. . ... ... : ... .. . ... ... : ... .. . ... ... : ... .. . ... : ... .. . ... ... : ... .. . ... ... ... ...
ROW FC : ... .. . ... ... : ... .. . ... ... : ... .. . ... ... : ... .. . ... : ... .. . ... ... : ... .. . ... ... ... ...
ROW FD : ... .. . ... ... : ... .. . ... ... : ... .. . ... ... : ... .. . ... : ... .. . ... ... : ... .. . ... ... ... ...
ROW FE : ... .. . ... ... : ... .. . ... ... : ... .. . ... ... : ... .. . ... : ... .. . ... ... : ... .. . ... ... ... ...
ROW FF : ... .. . ... ... : ... .. . ... ... : ... .. . ... ... : ... .. . ... : ... .. . ... ... : ... .. . ... ... ... ...

PATTERN 0A
ROW 00 : C#4 03 6 V02 ... : G-3 0D F 400 Q01 : C-4 03 . 226 ... : C-# 03 E A03 : G#3 24 . F05 ... : C-2 0C 1 I00 J4D 400 ...
ROW 01 : ... .. 3 ... ... : ... .. . ... ... : ... .. . ... ... : ... .. . A04 : ... .. . ... ... : ... .. 2 ... ... ... ...
ROW 02 : G#3 03 6 ... ... : ... .. . ... ... : ... .. . ... ... : ... .. . A05 : ... .. . ... ... : ... .. 3 ... ... ... ...
ROW 03 : C#4 03 3 ... ... : ... .. . ... ... : ... .. . ... ... : ... .. . A04 : ... .. . F06 ... : ... .. 4 ... ... ... ...
ROW 04 : F-3 03 6 ... ... : ... .. . ... ... : C-2 11 . 200 ... : D-# 05 6 A00 : G#3 24 . F05 ... : ... .. 5 ... ... ... ...
ROW 05 : G#3 03 3 ... ... : ... .. . ... ... : ... .. . ... ... : ... .. . ... : ... .. . ... ... : ... .. 6 ... ... ... ...
ROW 06 : C#3 03 6 ... ... : ... .. . ... ... : --- .. . ... ... : D-# 05 . ... : ... .. . ... ... : ... .. 7 ... ... ... ...
ROW 07 : F-3 03 3 ... ... : ... .. . ... ... : ... .. . ... ... : ... .. . ... : ... .. . F06 ... : ... .. 8 ... ... ... ...
ROW 08 : C#4 03 7 ... ... : ... .. . ... ... : C-2 11 . ... ... : 6-# 08 A ... : G#3 24 . F05 ... : ... .. 9 ... ... ... ...
ROW 09 : C#3 03 4 ... ... : ... .. . ... ... : ... .. . ... ... : ... .. . ... : ... .. . ... ... : ... .. A ... ... ... ...
ROW 0A : G#3 03 7 ... ... : ... .. . 465 ... : --- .. . ... ... : D-# 05 6 ... : ... .. . ... ... : ... .. . ... ... ... ...
ROW 0B : C#4 03 4 ... ... : ... .. . ... ... : ... .. . ... ... : ... .. . ... : ... .. . F06 ... : ... .. . ... ... ... ...
ROW 0C : F-3 03 7 ... ... : ... .. . ... ... : C-2 11 . ... ... : D-# 05 . ... : G#3 24 . F05 ... : ... .. . ... ... ... ...
ROW 0D : G#3 03 4 ... ... : ... .. . ... ... : ... .. . ... ... : ... .. . ... : ... .. . ... ... : ... .. . ... ... ... ...
ROW 0E : C#3 03 7 ... ... : ... .. . ... ... : --- .. . ... ... : D-# 05 . ... : ... .. . ... ... : ... .. . ... ... ... ...
ROW 0F : F-3 03 4 ... ... : ... .. . ... ... : ... .. . ... ... : ... .. . ... : ... .. . F06 ... : ... .. . ... ... ... ...
ROW 10 : C#4 03 8 ... ... : ... .. E ... ... : C-4 03 . 246 ... : C-# 06 8 ... : G#3 24 . F05 ... : ... .. . ... ... ... ...
ROW 11 : C#3 03 5 ... ... : ... .. . ... ... : ... .. . ... ... : ... .. . ... : ... .. . ... ... : ... .. . ... ... ... ...
ROW 12 : G#3 03 8 ... ... : ... .. D ... ... : ... .. . ... ... : D-# 05 6 ... : ... .. . ... ... : ... .. . ... ... ... ...
ROW 13 : C#4 03 5 ... ... : ... .. . ... ... : ... .. . ... ... : ... .. . ... : ... .. . F06 ... : ... .. . ... ... ... ...
ROW 14 : F-3 03 8 ... ... : C#3 0D F 400 ... : C-2 11 . 200 ... : D-# 05 . ... : G#3 24 . F05 ... : ... .. . ... ... ... ...
ROW 15 : G#3 03 5 ... ... : ... .. . ... ... : ... .. . ... ... : ... .. . ... : ... .. . ... ... : ... .. . ... ... ... ...
ROW 16 : C#3 03 8 ... ... : ... .. 8 ... ... : --- .. . ... ... : D-# 05 . ... : ... .. . ... ... : ... .. . ... ... ... ...
ROW 17 : F-3 03 5 ... ... : ... .. . ... ... : ... .. . ... ... : ... .. . ... : ... .. . F06 ... : ... .. . ... ... ... ...
ROW 18 : C#4 03 9 ... ... : F-3 0D F ... ... : C-2 11 . ... ... : 6-# 08 A ... : G#3 24 . F05 ... : ... .. . ... ... ... ...
ROW 19 : C#3 03 6 ... ... : ... .. . ... ... : --- 03 . ... ... : ... .. . ... : ... .. . ... ... : ... .. . ... ... ... ...
ROW 1A : G#3 03 9 ... ... : C#3 0D A ... ... : C-2 11 . ... ... : D-# 05 6 ... : ... .. . ... ... : ... .. . ... ... ... ...
ROW 1B : C#4 03 6 ... ... : ... .. . ... ... : --- .. . ... ... : ... .. . ... : ... .. . F06 ... : ... .. . ... ... ... ...
ROW 1C : F-3 03 9 ... ... : G#3 0D F ... ... : C-2 11 . ... ... : D-# 05 . ... : G#3 24 . F05 ... : ... .. . ... ... ... ...
ROW 1D : G#3 03 6 ... ... : ... .. . ... ... : --- .. . ... ... : ... .. . ... : ... .. . ... ... : ... .. . ... ... ... ...
ROW 1E : C#3 03 9 ... ... : F-3 0D A ... ... : C-2 11 . ... ... : D-# 05 . ... : ... .. . ... ... : ... .. . ... ... ... ...
ROW 1F : F-3 03 6 ... ... : ... .. . ... ... : --- .. . ... ... : ... .. . ... : ... .. . F06 ... : ... .. . ... ... ... ...
ROW 20 : D#4 03 9 V02 ... : A-3 0D F 400 Q01 : E-4 03 . 226 ... : C-# 06 8 ... : A#3 24 . F05 ... : E-2 0C . I00 J61 P81 ...
ROW 21 : ... .. 6 ... ... : ... .. . ... ... : ... .. . ... ... : ... .. . ... : ... .. . F06 ... : ... .. . ... ... ... ...
ROW 22 : A#3 03 9 ... ... : ... .. . ... ... : ... .. . ... ... : D-# 05 6 ... : ... .. . F05 ... : ... .. . ... ... ... ...
ROW 23 : D#4 03 6 ... ... : ... .. . ... ... : ... .. . ... ... : ... .. . ... : ... .. . F06 ... : ... .. . ... ... ... ...
ROW 24 : G-3 03 9 ... ... : ... .. . ... ... : E-2 11 . 200 ... : D-# 05 . ... : A#3 24 . F05 ... : ... .. . ... ... ... ...
ROW 25 : A#3 03 6 ... ... : ... .. . ... ... : ... .. . ... ... : ... .. . ... : ... .. . F06 ... : ... .. . ... ... ... ...
ROW 26 : D#3 03 9 ... ... : ... .. . ... ... : --- .. . ... ... : D-# 05 . ... : ... .. . F05 ... : ... .. . ... ... ... ...
ROW 27 : G-3 03 6 ... ... : ... .. . ... ... : ... .. . ... ... : ... .. . ... : ... .. . F06 ... : ... .. . ... ... ... ...
ROW 28 : D#4 03 9 ... ... : ... .. . ... ... : E-2 11 . ... ... : 6-# 08 A ... : A#3 24 . F05 ... : ... .. . ... ... ... ...
ROW 29 : D#3 03 6 ... ... : ... .. . ... ... : ... .. . ... ... : ... .. . ... : ... .. . F06 ... : ... .. . ... ... ... ...
ROW 2A : A#3 03 9 ... ... : ... .. . 465 ... : --- .. . ... ... : D-# 05 6 ... : ... .. . F05 ... : ... .. . ... ... ... ...
ROW 2B : D#4 03 6 ... ... : ... .. . ... ... : ... .. . ... ... : ... .. . ... : ... .. . F06 ... : ... .. . ... ... ... ...
ROW 2C : G-3 03 9 ... ... : ... .. . ... ... : E-2 11 . ... ... : D-# 05 . ... : A#3 24 . F05 ... : ... .. . ... ... ... ...
ROW 2D : A#3 03 6 ... ... : ... .. . ... ... : ... .. . ... ... : ... .. . ... : ... .. . F06 ... : ... .. . ... ... ... ...
ROW 2E : D#3 03 9 ... ... : ... .. . ... ... : --- .. . ... ... : D-# 05 . ... : ... .. . F05 ... : ... .. . ... ... ... ...
ROW 2F : G-3 03 6 ... ... : ... .. . ... ... : ... .. . ... ... : ... .. . ... : ... .. . F06 ... : ... .. . ... ... ... ...
ROW 30 : D#4 03 9 ... ... : G-3 0D F 400 ... : E-4 03 . 246 ... : C-# 06 8 ... : A#3 24 . F06 ... : ... .. . ... ... ... ...
ROW 31 : D#3 03 6 ... ... : ... .. . ... ... : ... .. . ... ... : ... .. . ... : ... .. . ... ... : ... .. . ... ... ... ...
ROW 32 : A#3 03 9 ... ... : ... .. 8 ... ... : ... .. . ... ... : D-# 05 6 ... : ... .. . F05 ... : ... .. . ... ... ... ...
ROW 33 : D#4 03 6 ... ... : ... .. . ... ... : ... .. . ... ... : ... .. . ... : ... .. . F06 ... : ... .. . ... ... ... ...
ROW 34 : G-3 03 9 ... ... : D#3 0D F ... ... : E-2 11 . 200 ... : D-# 05 . ... : A#3 24 . ... ... : ... .. . ... ... ... ...
ROW 35 : A#3 03 6 ... ... : ... .. . ... ... : ... .. . ... ... : ... .. . ... : ... .. . F05 ... : ... .. . ... ... ... ...
ROW 36 : D#3 03 9 ... ... : G-3 0D A ... ... : --- .. . ... ... : D-# 05 . ... : ... .. . F06 ... : ... .. . ... ... ... ...
ROW 37 : G-3 03 6 ... ... : ... .. . ... ... : ... .. . ... ... : ... .. . ... : ... .. . ... ... : ... .. . ... ... ... ...
ROW 38 : D#4 03 9 ... ... : A#3 0D F ... ... : E-2 11 . ... ... : 6-# 08 A ... : A#3 24 . ... ... : ... .. . ... ... ... ...
ROW 39 : D#3 03 6 ... ... : ... .. . ... ... : --- .. . ... ... : ... .. . ... : ... .. . F05 ... : ... .. . ... ... ... ...
ROW 3A : A#3 03 9 ... ... : D#3 0D A ... ... : E-2 11 . ... ... : D-# 05 6 ... : ... .. . F06 ... : ... .. . ... ... ... ...
ROW 3B : D#4 03 6 ... ... : ... .. . ... ... : --- .. . ... ... : ... .. . ... : ... .. . F07 ... : ... .. . ... ... ... ...
ROW 3C : G-3 03 9 ... ... : D#4 0D F ... ... : E-2 11 . ... ... : D-# 05 . ... : A#3 24 . F07 ... : ... .. . ... ... ... ...
ROW 3D : A#3 03 6 ... ... : ... .. . ... ... : --- .. . ... ... : ... .. . ... : ... .. . F08 ... : ... .. . ... ... ... ...
ROW 3E : D#3 03 9 ... ... : A#3 0D A ... ... : E-2 11 . ... ... : D-# 05 . ... : ... .. . ... ... : ... .. . ... ... ... ...
ROW 3F : G-3 03 6 ... ... : ... .. . ... ... : --- .. . ... ... : ... .. . ... : ... .. . D00 ... : ... .. . ... ... ... ...
ROW 40 : ... .. . ... ... : ... .. . ... ... : ... .. . ... ... : ... .. . ... : ... .. . ... ... : ... .. . ... ... ... ...
ROW 41 : ... .. . ... ... : ... .. . ... ... : ... .. . ... ... : ... .. . ... : ... .. . ... ... : ... .. . ... ... ... ...
ROW 42 : ... .. . ... ... : ... .. . ... ... : ... .. . ... ... : ... .. . ... : ... .. . ... ... : ... .. . ... ... ... ...
ROW 43 : ... .. . ... ... : ... .. . ... ... : ... .. . ... ... : ... .. . ... : ... .. . ... ... : ... .. . ... ... ... ...
ROW 44 : ... .. . ... ... : ... .. . ... ... : ... .. . ... ... : ... .. . ... : ... .. . ... ... : ... .. . ... ... ... ...
ROW 45 : ... .. . ... ... : ... .. . ... ... : ... .. . ... ... : ... .. . ... : ... .. . ... ... : ... .. . ... ... ... ...
ROW 46 : ... .. . ... ... : ... .. . ... ... : ... .. . ... ... : ... .. . ... : ... .. . ... ... : ... .. . ... ... ... ...
ROW 47 : ... .. . ... ... : ... .. . ... ... : ... .. . ... ... : ... .. . ... : ... .. . ... ... : ... .. . ... ... ... ...
ROW 48 : ... .. . ... ... : ... .. . ... ... : ... .. . ... ... : ... .. . ... : ... .. . ... ... : ... .. . ... ... ... ...
ROW 49 : ... .. . ... ... : ... .. . ... ... : ... .. . ... ... : ... .. . ... : ... .. . ... ... : ... .. . ... ... ... ...
ROW 4A : ... .. . ... ... : ... .. . ... ... : ... .. . ... ... : ... .. . ... : ... .. . ... ... : ... .. . ... ... ... ...
ROW 4B : ... .. . ... ... : ... .. . ... ... : ... .. . ... ... : ... .. . ... : ... .. . ... ... : ... .. . ... ... ... ...
ROW 4C : ... .. . ... ... : ... .. . ... ... : ... .. . ... ... : ... .. . ... : ... .. . ... ... : ... .. . ... ... ... ...
ROW 4D : ... .. . ... ... : ... .. . ... ... : ... .. . ... ... : ... .. . ... : ... .. . ... ... : ... .. . ... ... ... ...
ROW 4E : ... .. . ... ... : ... .. . ... ... : ... .. . ... ... : ... .. . ... : ... .. . ... ... : ... .. . ... ... ... ...
ROW 4F : ... .. . ... ... : ... .. . ... ... : ... .. . ... ... : ... .. . ... : ... .. . ... ... : ... .. . ... ... ... ...
ROW 50 : ... .. . ... ... : ... .. . ... ... : ... .. . ... ... : ... .. . ... : ... .. . ... ... : ... .. . ... ... ... ...
ROW 51 : ... .. . ... ... : ... .. . ... ... : ... .. . ... ... : ... .. . ... : ... .. . ... ... : ... .. . ... ... ... ...
ROW 52 : ... .. . ... ... : ... .. . ... ... : ... .. . ... ... : ... .. . ... : ... .. . ... ... : ... .. . ... ... ... ...
ROW 53 : ... .. . ... ... : ... .. . ... ... : ... .. . ... ... : ... .. . ... : ... .. . ... ... : ... .. . ... ... ... ...
ROW 54 : ... .. . ... ... : ... .. . ... ... : ... .. . ... ... : ... .. . ... : ... .. . ... ... : ... .. . ... ... ... ...
ROW 55 : ... .. . ... ... : ... .. . ... ... : ... .. . ... ... : ... .. . ... : ... .. . ... ... : ... .. . ... ... ... ...
ROW 56 : ... .. . ... ... : ... .. . ... ... : ... .. . ... ... : ... .. . ... : ... .. . ... ... : ... .. . ... ... ... ...
ROW 57 : ... .. . ... ... : ... .. . ... ... : ... .. . ... ... : ... .. . ... : ... .. . ... ... : ... .. . ... ... ... ...
ROW 58 : ... .. . ... ... : ... .. . ... ... : ... .. . ... ... : ... .. . ... : ... .. . ... ... : ... .. . ... ... ... ...
ROW 59 : ... .. . ... ... : ... .. . ... ... : ... .. . ... ... : ... .. . ... : ... .. . ... ... : ... .. . ... ... ... ...
ROW 5A : ... .. . ... ... : ... .. . ... ... : ... .. . ... ... : ... .. . ... : ... .. . ... ... : ... .. . ... ... ... ...
ROW 5B : ... .. . ... ... : ... .. . ... ... : ... .. . ... ... : ... .. . ... : ... .. . ... ... : ... .. . ... ... ... ...
ROW 5C : ... .. . ... ... : ... .. . ... ... : ... .. . ... ... : ... .. . ... : ... .. . ... ... : ... .. . ... ... ... ...
ROW 5D : ... .. . ... ... : ... .. . ... ... : ... .. . ... ... : ... .. . ... : ... .. . ... ... : ... .. . ... ... ... ...
ROW 5E : ... .. . ... ... : ... .. . ... ... : ... .. . ... ... : ... .. . ... : ... .. . ... ... : ... .. . ... ... ... ...
ROW 5F : ... .. . ... ... : ... .. . ... ... : ... .. . ... ... : ... .. . ... : ... .. . ... ... : ... .. . ... ... ... ...
ROW 60 : ... .. . ... ... : ... .. . ... ... : ... .. . ... ... : ... .. . ... : ... .. . ... ... : ... .. . ... ... ... ...
ROW 61 : ... .. . ... ... : ... .. . ... ... : ... .. . ... ... : ... .. . ... : ... .. . ... ... : ... .. . ... ... ... ...
ROW 62 : ... .. . ... ... : ... .. . ... ... : ... .. . ... ... : ... .. . ... : ... .. . ... ... : ... .. . ... ... ... ...
ROW 63 : ... .. . ... ... : ... .. . ... ... : ... .. . ... ... : ... .. . ... : ... .. . ... ... : ... .. . ... ... ... ...
ROW 64 : ... .. . ... ... : ... .. . ... ... : ... .. . ... ... : ... .. . ... : ... .. . ... ... : ... .. . ... ... ... ...
ROW 65 : ... .. . ... ... : ... .. . ... ... : ... .. . ... ... : ... .. . ... : ... .. . ... ... : ... .. . ... ... ... ...
ROW 66 : ... .. . ... ... : ... .. . ... ... : ... .. . ... ... : ... .. . ... : ... .. . ... ... : ... .. . ... ... ... ...
ROW 67 : ... .. . ... ... : ... .. . ... ... : ... .. . ... ... : ... .. . ... : ... .. . ... ... : ... .. . ... ... ... ...
ROW 68 : ... .. . ... ... : ... .. . ... ... : ... .. . ... ... : ... .. . ... : ... .. . ... ... : ... .. . ... ... ... ...
ROW 69 : ... .. . ... ... : ... .. . ... ... : ... .. . ... ... : ... .. . ... : ... .. . ... ... : ... .. . ... ... ... ...
ROW 6A : ... .. . ... ... : ... .. . ... ... : ... .. . ... ... : ... .. . ... : ... .. . ... ... : ... .. . ... ... ... ...
ROW 6B : ... .. . ... ... : ... .. . ... ... : ... .. . ... ... : ... .. . ... : ... .. . ... ... : ... .. . ... ... ... ...
ROW 6C : ... .. . ... ... : ... .. . ... ... : ... .. . ... ... : ... .. . ... : ... .. . ... ... : ... .. . ... ... ... ...
ROW 6D : ... .. . ... ... : ... .. . ... ... : ... .. . ... ... : ... .. . ... : ... .. . ... ... : ... .. . ... ... ... ...
ROW 6E : ... .. . ... ... : ... .. . ... ... : ... .. . ... ... : ... .. . ... : ... .. . ... ... : ... .. . ... ... ... ...
ROW 6F : ... .. . ... ... : ... .. . ... ... : ... .. . ... ... : ... .. . ... : ... .. . ... ... : ... .. . ... ... ... ...
ROW 70 : ... .. . ... ... : ... .. . ... ... : ... .. . ... ... : ... .. . ... : ... .. . ... ... : ... .. . ... ... ... ...
ROW 71 : ... .. . ... ... : ... .. . ... ... : ... .. . ... ... : ... .. . ... : ... .. . ... ... : ... .. . ... ... ... ...
ROW 72 : ... .. . ... ... : ... .. . ... ... : ... .. . ... ... : ... .. . ... : ... .. . ... ... : ... .. . ... ... ... ...
ROW 73 : ... .. . ... ... : ... .. . ... ... : ... .. . ... ... : ... .. . ... : ... .. . ... ... : ... .. . ... ... ... ...
ROW 74 : ... .. . ... ... : ... .. . ... ... : ... .. . ... ... : ... .. . ... : ... .. . ... ... : ... .. . ... ... ... ...
ROW 75 : ... .. . ... ... : ... .. . ... ... : ... .. . ... ... : ... .. . ... : ... .. . ... ... : ... .. . ... ... ... ...
ROW 76 : ... .. . ... ... : ... .. . ... ... : ... .. . ... ... : ... .. . ... : ... .. . ... ... : ... .. . ... ... ... ...
ROW 77 : ... .. . ... ... : ... .. . ... ... : ... .. . ... ... : ... .. . ... : ... .. . ... ... : ... .. . ... ... ... ...
ROW 78 : ... .. . ... ... : ... .. . ... ... : ... .. . ... ... : ... .. . ... : ... .. . ... ... : ... .. . ... ... ... ...
ROW 79 : ... .. . ... ... : ... .. . ... ... : ... .. . ... ... : ... .. . ... : ... .. . ... ... : ... .. . ... ... ... ...
ROW 7A : ... .. . ... ... : ... .. . ... ... : ... .. . ... ... : ... .. . ... : ... .. . ... ... : ... .. . ... ... ... ...
ROW 7B : ... .. . ... ... : ... .. . ... ... : ... .. . ... ... : ... .. . ... : ... .. . ... ... : ... .. . ... ... ... ...
ROW 7C : ... .. . ... ... : ... .. . ... ... : ... .. . ... ... : ... .. . ... : ... .. . ... ... : ... .. . ... ... ... ...
ROW 7D : ... .. . ... ... : ... .. . ... ... : ... .. . ... ... : ... .. . ... : ... .. . ... ... : ... .. . ... ... ... ...
ROW 7E : ... .. . ... ... : ... .. . ... ... : ... .. . ... ... : ... .. . ... : ... .. . ... ... : ... .. . ... ... ... ...
ROW 7F : ... .. . ... ... : ... .. . ... ... : ... .. . ... ... : ... .. . ... : ... .. . ... ... : ... .. . ... ... ... ...
ROW 80 : ... .. . ... ... : ... .. . ... ... : ... .. . ... ... : ... .. . ... : ... .. . ... ... : ... .. . ... ... ... ...
ROW 81 : ... .. . ... ... : ... .. . ... ... : ... .. . ... ... : ... .. . ... : ... .. . ... ... : ... .. . ... ... ... ...
ROW 82 : ... .. . ... ... : ... .. . ... ... : ... .. . ... ... : ... .. . ... : ... .. . ... ... : ... .. . ... ... ... ...
ROW 83 : ... .. . ... ... : ... .. . ... ... : ... .. . ... ... : ... .. . ... : ... .. . ... ... : ... .. . ... ... ... ...
ROW 84 : ... .. . ... ... : ... .. . ... ... : ... .. . ... ... : ... .. . ... : ... .. . ... ... : ... .. . ... ... ... ...
ROW 85 : ... .. . ... ... : ... .. . ... ... : ... .. . ... ... : ... .. . ... : ... .. . ... ... : ... .. . ... ... ... ...
ROW 86 : ... .. . ... ... : ... .. . ... ... : ... .. . ... ... : ... .. . ... : ... .. . ... ... : ... .. . ... ... ... ...
ROW 87 : ... .. . ... ... : ... .. . ... ... : ... .. . ... ... : ... .. . ... : ... .. . ... ... : ... .. . ... ... ... ...
ROW 88 : ... .. . ... ... : ... .. . ... ... : ... .. . ... ... : ... .. . ... : ... .. . ... ... : ... .. . ... ... ... ...
ROW 89 : ... .. . ... ... : ... .. . ... ... : ... .. . ... ... : ... .. . ... : ... .. . ... ... : ... .. . ... ... ... ...
ROW 8A : ... .. . ... ... : ... .. . ... ... : ... .. . ... ... : ... .. . ... : ... .. . ... ... : ... .. . ... ... ... ...
ROW 8B : ... .. . ... ... : ... .. . ... ... : ... .. . ... ... : ... .. . ... : ... .. . ... ... : ... .. . ... ... ... ...
ROW 8C : ... .. . ... ... : ... .. . ... ... : ... .. . ... ... : ... .. . ... : ... .. . ... ... : ... .. . ... ... ... ...
ROW 8D : ... .. . ... ... : ... .. . ... ... : ... .. . ... ... : ... .. . ... : ... .. . ... ... : ... .. . ... ... ... ...
ROW 8E : ... .. . ... ... : ... .. . ... ... : ... .. . ... ... : ... .. . ... : ... .. . ... ... : ... .. . ... ... ... ...
ROW 8F : ... .. . ... ... : ... .. . ... ... : ... .. . ... ... : ... .. . ... : ... .. . ... ... : ... .. . ... ... ... ...
ROW 90 : ... .. . ... ... : ... .. . ... ... : ... .. . ... ... : ... .. . ... : ... .. . ... ... : ... .. . ... ... ... ...
ROW 91 : ... .. . ... ... : ... .. . ... ... : ... .. . ... ... : ... .. . ... : ... .. . ... ... : ... .. . ... ... ... ...
ROW 92 : ... .. . ... ... : ... .. . ... ... : ... .. . ... ... : ... .. . ... : ... .. . ... ... : ... .. . ... ... ... ...
ROW 93 : ... .. . ... ... : ... .. . ... ... : ... .. . ... ... : ... .. . ... : ... .. . ... ... : ... .. . ... ... ... ...
ROW 94 : ... .. . ... ... : ... .. . ... ... : ... .. . ... ... : ... .. . ... : ... .. . ... ... : ... .. . ... ... ... ...
ROW 95 : ... .. . ... ... : ... .. . ... ... : ... .. . ... ... : ... .. . ... : ... .. . ... ... : ... .. . ... ... ... ...
ROW 96 : ... .. . ... ... : ... .. . ... ... : ... .. . ... ... : ... .. . ... : ... .. . ... ... : ... .. . ... ... ... ...
ROW 97 : ... .. . ... ... : ... .. . ... ... : ... .. . ... ... : ... .. . ... : ... .. . ... ... : ... .. . ... ... ... ...
ROW 98 : ... .. . ... ... : ... .. . ... ... : ... .. . ... ... : ... .. . ... : ... .. . ... ... : ... .. . ... ... ... ...
ROW 99 : ... .. . ... ... : ... .. . ... ... : ... .. . ... ... : ... .. . ... : ... .. . ... ... : ... .. . ... ... ... ...
ROW 9A : ... .. . ... ... : ... .. . ... ... : ... .. . ... ... : ... .. . ... : ... .. . ... ... : ... .. . ... ... ... ...
ROW 9B : ... .. . ... ... : ... .. . ... ... : ... .. . ... ... : ... .. . ... : ... .. . ... ... : ... .. . ... ... ... ...
ROW 9C : ... .. . ... ... : ... .. . ... ... : ... .. . ... ... : ... .. . ... : ... .. . ... ... : ... .. . ... ... ... ...
ROW 9D : ... .. . ... ... : ... .. . ... ... : ... .. . ... ... : ... .. . ... : ... .. . ... ... : ... .. . ... ... ... ...
ROW 9E : ... .. . ... ... : ... .. . ... ... : ... .. . ... ... : ... .. . ... : ... .. . ... ... : ... .. . ... ... ... ...
ROW 9F : ... .. . ... ... : ... .. . ... ... : ... .. . ... ... : ... .. . ... : ... .. . ... ... : ... .. . ... ... ... ...
ROW A0 : ... .. . ... ... : ... .. . ... ... : ... .. . ... ... : ... .. . ... : ... .. . ... ... : ... .. . ... ... ... ...
ROW A1 : ... .. . ... ... : ... .. . ... ... : ... .. . ... ... : ... .. . ... : ... .. . ... ... : ... .. . ... ... ... ...
ROW A2 : ... .. . ... ... : ... .. . ... ... : ... .. . ... ... : ... .. . ... : ... .. . ... ... : ... .. . ... ... ... ...
ROW A3 : ... .. . ... ... : ... .. . ... ... : ... .. . ... ... : ... .. . ... : ... .. . ... ... : ... .. . ... ... ... ...
ROW A4 : ... .. . ... ... : ... .. . ... ... : ... .. . ... ... : ... .. . ... : ... .. . ... ... : ... .. . ... ... ... ...
ROW A5 : ... .. . ... ... : ... .. . ... ... : ... .. . ... ... : ... .. . ... : ... .. . ... ... : ... .. . ... ... ... ...
ROW A6 : ... .. . ... ... : ... .. . ... ... : ... .. . ... ... : ... .. . ... : ... .. . ... ... : ... .. . ... ... ... ...
ROW A7 : ... .. . ... ... : ... .. . ... ... : ... .. . ... ... : ... .. . ... : ... .. . ... ... : ... .. . ... ... ... ...
ROW A8 : ... .. . ... ... : ... .. . ... ... : ... .. . ... ... : ... .. . ... : ... .. . ... ... : ... .. . ... ... ... ...
ROW A9 : ... .. . ... ... : ... .. . ... ... : ... .. . ... ... : ... .. . ... : ... .. . ... ... : ... .. . ... ... ... ...
ROW AA : ... .. . ... ... : ... .. . ... ... : ... .. . ... ... : ... .. . ... : ... .. . ... ... : ... .. . ... ... ... ...
ROW AB : ... .. . ... ... : ... .. . ... ... : ... .. . ... ... : ... .. . ... : ... .. . ... ... : ... .. . ... ... ... ...
ROW AC : ... .. . ... ... : ... .. . ... ... : ... .. . ... ... : ... .. . ... : ... .. . ... ... : ... .. . ... ... ... ...
ROW AD : ... .. . ... ... : ... .. . ... ... : ... .. . ... ... : ... .. . ... : ... .. . ... ... : ... .. . ... ... ... ...
ROW AE : ... .. . ... ... : ... .. . ... ... : ... .. . ... ... : ... .. . ... : ... .. . ... ... : ... .. . ... ... ... ...
ROW AF : ... .. . ... ... : ... .. . ... ... : ... .. . ... ... : ... .. . ... : ... .. . ... ... : ... .. . ... ... ... ...
ROW B0 : ... .. . ... ... : ... .. . ... ... : ... .. . ... ... : ... .. . ... : ... .. . ... ... : ... .. . ... ... ... ...
ROW B1 : ... .. . ... ... : ... .. . ... ... : ... .. . ... ... : ... .. . ... : ... .. . ... ... : ... .. . ... ... ... ...
ROW B2 : ... .. . ... ... : ... .. . ... ... : ... .. . ... ... : ... .. . ... : ... .. . ... ... : ... .. . ... ... ... ...
ROW B3 : ... .. . ... ... : ... .. . ... ... : ... .. . ... ... : ... .. . ... : ... .. . ... ... : ... .. . ... ... ... ...
ROW B4 : ... .. . ... ... : ... .. . ... ... : ... .. . ... ... : ... .. . ... : ... .. . ... ... : ... .. . ... ... ... ...
ROW B5 : ... .. . ... ... : ... .. . ... ... : ... .. . ... ... : ... .. . ... : ... .. . ... ... : ... .. . ... ... ... ...
ROW B6 : ... .. . ... ... : ... .. . ... ... : ... .. . ... ... : ... .. . ... : ... .. . ... ... : ... .. . ... ... ... ...
ROW B7 : ... .. . ... ... : ... .. . ... ... : ... .. . ... ... : ... .. . ... : ... .. . ... ... : ... .. . ... ... ... ...
ROW B8 : ... .. . ... ... : ... .. . ... ... : ... .. . ... ... : ... .. . ... : ... .. . ... ... : ... .. . ... ... ... ...
ROW B9 : ... .. . ... ... : ... .. . ... ... : ... .. . ... ... : ... .. . ... : ... .. . ... ... : ... .. . ... ... ... ...
ROW BA : ... .. . ... ... : ... .. . ... ... : ... .. . ... ... : ... .. . ... : ... .. . ... ... : ... .. . ... ... ... ...
ROW BB : ... .. . ... ... : ... .. . ... ... : ... .. . ... ... : ... .. . ... : ... .. . ... ... : ... .. . ... ... ... ...
ROW BC : ... .. . ... ... : ... .. . ... ... : ... .. . ... ... : ... .. . ... : ... .. . ... ... : ... .. . ... ... ... ...
ROW BD : ... .. . ... ... : ... .. . ... ... : ... .. . ... ... : ... .. . ... : ... .. . ... ... : ... .. . ... ... ... ...
ROW BE : ... .. . ... ... : ... .. . ... ... : ... .. . ... ... : ... .. . ... : ... .. . ... ... : ... .. . ... ... ... ...
ROW BF : ... .. . ... ... : ... .. . ... ... : ... .. . ... ... : ... .. . ... : ... .. . ... ... : ... .. . ... ... ... ...
ROW C0 : ... .. . ... ... : ... .. . ... ... : ... .. . ... ... : ... .. . ... : ... .. . ... ... : ... .. . ... ... ... ...
ROW C1 : ... .. . ... ... : ... .. . ... ... : ... .. . ... ... : ... .. . ... : ... .. . ... ... : ... .. . ... ... ... ...
ROW C2 : ... .. . ... ... : ... .. . ... ... : ... .. . ... ... : ... .. . ... : ... .. . ... ... : ... .. . ... ... ... ...
ROW C3 : ... .. . ... ... : ... .. . ... ... : ... .. . ... ... : ... .. . ... : ... .. . ... ... : ... .. . ... ... ... ...
ROW C4 : ... .. . ... ... : ... .. . ... ... : ... .. . ... ... : ... .. . ... : ... .. . ... ... : ... .. . ... ... ... ...
ROW C5 : ... .. . ... ... : ... .. . ... ... : ... .. . ... ... : ... .. . ... : ... .. . ... ... : ... .. . ... ... ... ...
ROW C6 : ... .. . ... ... : ... .. . ... ... : ... .. . ... ... : ... .. . ... : ... .. . ... ... : ... .. . ... ... ... ...
ROW C7 : ... .. . ... ... : ... .. . ... ... : ... .. . ... ... : ... .. . ... : ... .. . ... ... : ... .. . ... ... ... ...
ROW C8 : ... .. . ... ... : ... .. . ... ... : ... .. . ... ... : ... .. . ... : ... .. . ... ... : ... .. . ... ... ... ...
ROW C9 : ... .. . ... ... : ... .. . ... ... : ... .. . ... ... : ... .. . ... : ... .. . ... ... : ... .. . ... ... ... ...
ROW CA : ... .. . ... ... : ... .. . ... ... : ... .. . ... ... : ... .. . ... : ... .. . ... ... : ... .. . ... ... ... ...
ROW CB : ... .. . ... ... : ... .. . ... ... : ... .. . ... ... : ... .. . ... : ... .. . ... ... : ... .. . ... ... ... ...
ROW CC : ... .. . ... ... : ... .. . ... ... : ... .. . ... ... : ... .. . ... : ... .. . ... ... : ... .. . ... ... ... ...
ROW CD : ... .. . ... ... : ... .. . ... ... : ... .. . ... ... : ... .. . ... : ... .. . ... ... : ... .. . ... ... ... ...
ROW CE : ... .. . ... ... : ... .. . ... ... : ... .. . ... ... : ... .. . ... : ... .. . ... ... : ... .. . ... ... ... ...
ROW CF : ... .. . ... ... : ... .. . ... ... : ... .. . ... ... : ... .. . ... : ... .. . ... ... : ... .. . ... ... ... ...
ROW D0 : ... .. . ... ... : ... .. . ... ... : ... .. . ... ... : ... .. . ... : ... .. . ... ... : ... .. . ... ... ... ...
ROW D1 : ... .. . ... ... : ... .. . ... ... : ... .. . ... ... : ... .. . ... : ... .. . ... ... : ... .. . ... ... ... ...
ROW D2 : ... .. . ... ... : ... .. . ... ... : ... .. . ... ... : ... .. . ... : ... .. . ... ... : ... .. . ... ... ... ...
ROW D3 : ... .. . ... ... : ... .. . ... ... : ... .. . ... ... : ... .. . ... : ... .. . ... ... : ... .. . ... ... ... ...
ROW D4 : ... .. . ... ... : ... .. . ... ... : ... .. . ... ... : ... .. . ... : ... .. . ... ... : ... .. . ... ... ... ...
ROW D5 : ... .. . ... ... : ... .. . ... ... : ... .. . ... ... : ... .. . ... : ... .. . ... ... : ... .. . ... ... ... ...
ROW D6 : ... .. . ... ... : ... .. . ... ... : ... .. . ... ... : ... .. . ... : ... .. . ... ... : ... .. . ... ... ... ...
ROW D7 : ... .. . ... ... : ... .. . ... ... : ... .. . ... ... : ... .. . ... : ... .. . ... ... : ... .. . ... ... ... ...
ROW D8 : ... .. . ... ... : ... .. . ... ... : ... .. . ... ... : ... .. . ... : ... .. . ... ... : ... .. . ... ... ... ...
ROW D9 : ... .. . ... ... : ... .. . ... ... : ... .. . ... ... : ... .. . ... : ... .. . ... ... : ... .. . ... ... ... ...
ROW DA : ... .. . ... ... : ... .. . ... ... : ... .. . ... ... : ... .. . ... : ... .. . ... ... : ... .. . ... ... ... ...
ROW DB : ... .. . ... ... : ... .. . ... ... : ... .. . ... ... : ... .. . ... : ... .. . ... ... : ... .. . ... ... ... ...
ROW DC : ... .. . ... ... : ... .. . ... ... : ... .. . ... ... : ... .. . ... : ... .. . ... ... : ... .. . ... ... ... ...
ROW DD : ... .. . ... ... : ... .. . ... ... : ... .. . ... ... : ... .. . ... : ... .. . ... ... : ... .. . ... ... ... ...
ROW DE : ... .. . ... ... : ... .. . ... ... : ... .. . ... ... : ... .. . ... : ... .. . ... ... : ... .. . ... ... ... ...
ROW DF : ... .. . ... ... : ... .. . ... ... : ... .. . ... ... : ... .. . ... : ... .. . ... ... : ... .. . ... ... ... ...
ROW E0 : ... .. . ... ... : ... .. . ... ... : ... .. . ... ... : ... .. . ... : ... .. . ... ... : ... .. . ... ... ... ...
ROW E1 : ... .. . ... ... : ... .. . ... ... : ... .. . ... ... : ... .. . ... : ... .. . ... ... : ... .. . ... ... ... ...
ROW E2 : ... .. . ... ... : ... .. . ... ... : ... .. . ... ... : ... .. . ... : ... .. . ... ... : ... .. . ... ... ... ...
ROW E3 : ... .. . ... ... : ... .. . ... ... : ... .. . ... ... : ... .. . ... : ... .. . ... ... : ... .. . ... ... ... ...
ROW E4 : ... .. . ... ... : ... .. . ... ... : ... .. . ... ... : ... .. . ... : ... .. . ... ... : ... .. . ... ... ... ...
ROW E5 : ... .. . ... ... : ... .. . ... ... : ... .. . ... ... : ... .. . ... : ... .. . ... ... : ... .. . ... ... ... ...
ROW E6 : ... .. . ... ... : ... .. . ... ... : ... .. . ... ... : ... .. . ... : ... .. . ... ... : ... .. . ... ... ... ...
ROW E7 : ... .. . ... ... : ... .. . ... ... : ... .. . ... ... : ... .. . ... : ... .. . ... ... : ... .. . ... ... ... ...
ROW E8 : ... .. . ... ... : ... .. . ... ... : ... .. . ... ... : ... .. . ... : ... .. . ... ... : ... .. . ... ... ... ...
ROW E9 : ... .. . ... ... : ... .. . ... ... : ... .. . ... ... : ... .. . ... : ... .. . ... ... : ... .. . ... ... ... ...
ROW EA : ... .. . ... ... : ... .. . ... ... : ... .. . ... ... : ... .. . ... : ... .. . ... ... : ... .. . ... ... ... ...
ROW EB : ... .. . ... ... : ... .. . ... ... : ... .. . ... ... : ... .. . ... : ... .. . ... ... : ... .. . ... ... ... ...
ROW EC : ... .. . ... ... : ... .. . ... ... : ... .. . ... ... : ... .. . ... : ... .. . ... ... : ... .. . ... ... ... ...
ROW ED : ... .. . ... ... : ... .. . ... ... : ... .. . ... ... : ... .. . ... : ... .. . ... ... : ... .. . ... ... ... ...
ROW EE : ... .. . ... ... : ... .. . ... ... : ... .. . ... ... : ... .. . ... : ... .. . ... ... : ... .. . ... ... ... ...
ROW EF : ... .. . ... ... : ... .. . ... ... : ... .. . ... ... : ... .. . ... : ... .. . ... ... : ... .. . ... ... ... ...
ROW F0 : ... .. . ... ... : ... .. . ... ... : ... .. . ... ... : ... .. . ... : ... .. . ... ... : ... .. . ... ... ... ...
ROW F1 : ... .. . ... ... : ... .. . ... ... : ... .. . ... ... : ... .. . ... : ... .. . ... ... : ... .. . ... ... ... ...
ROW F2 : ... .. . ... ... : ... .. . ... ... : ... .. . ... ... : ... .. . ... : ... .. . ... ... : ... .. . ... ... ... ...
ROW F3 : ... .. . ... ... : ... .. . ... ... : ... .. . ... ... : ... .. . ... : ... .. . ... ... : ... .. . ... ... ... ...
ROW F4 : ... .. . ... ... : ... .. . ... ... : ... .. . ... ... : ... .. . ... : ... .. . ... ... : ... .. . ... ... ... ...
ROW F5 : ... .. . ... ... : ... .. . ... ... : ... .. . ... ... : ... .. . ... : ... .. . ... ... : ... .. . ... ... ... ...
ROW F6 : ... .. . ... ... : ... .. . ... ... : ... .. . ... ... : ... .. . ... : ... .. . ... ... : ... .. . ... ... ... ...
ROW F7 : ... .. . ... ... : ... .. . ... ... : ... .. . ... ... : ... .. . ... : ... .. . ... ... : ... .. . ... ... ... ...
ROW F8 : ... .. . ... ... : ... .. . ... ... : ... .. . ... ... : ... .. . ... : ... .. . ... ... : ... .. . ... ... ... ...
ROW F9 : ... .. . ... ... : ... .. . ... ... : ... .. . ... ... : ... .. . ... : ... .. . ... ... : ... .. . ... ... ... ...
ROW FA : ... .. . ... ... : ... .. . ... ... : ... .. . ... ... : ... .. . ... : ... .. . ... ... : ... .. . ... ... ... ...
ROW FB : ... .. . ... ... : ... .. . ... ... : ... .. . ... ... : ... .. . ... : ... .. . ... ... : ... .. . ... ... ... ...
ROW FC : ... .. . ... ... : ... .. . ... ... : ... .. . ... ... : ... .. . ... : ... .. . ... ... : ... .. . ... ... ... ...
ROW FD : ... .. . ... ... : ... .. . ... ... : ... .. . ... ... : ... .. . ... : ... .. . ... ... : ... .. . ... ... ... ...
ROW FE : ... .. . ... ... : ... .. . ... ... : ... .. . ... ... : ... .. . ... : ... .. . ... ... : ... .. . ... ... ... ...
ROW FF : ... .. . ... ... : ... .. . ... ... : ... .. . ... ... : ... .. . ... : ... .. . ... ... : ... .. . ... ... ... ...

PATTERN 0B
ROW 00 : F-3 0E 5 ... ... : E-4 0D F Q01 400 : C-4 03 . 226 ... : C-# 06 8 ... : F-3 1E . F07 ... : C-2 0C A I00 J4D ... ...
ROW 01 : ... .. 4 ... ... : ... .. . ... ... : ... .. . ... ... : ... .. . ... : ... .. . F04 ... : ... .. . ... ... ... ...
ROW 02 : ... .. 3 ... ... : ... .. . ... ... : ... .. . ... ... : D-# 05 6 ... : ... .. . F03 ... : ... .. . ... ... ... ...
ROW 03 : ... .. 2 ... ... : ... .. . ... ... : ... .. . ... ... : ... .. . ... : ... .. . F02 ... : ... .. . ... ... ... ...
ROW 04 : ... .. 1 ... ... : ... .. C ... ... : C-2 11 . 200 ... : D-# 05 . ... : F-3 1E . F07 ... : ... .. . ... ... ... ...
ROW 05 : ... .. . ... ... : ... .. A ... ... : ... .. . ... ... : ... .. . ... : ... .. . F04 ... : ... .. . ... ... ... ...
ROW 06 : F-3 0E 5 ... ... : ... .. 8 ... ... : --- .. . ... ... : D-# 05 . ... : ... .. . F03 ... : ... .. . ... ... ... ...
ROW 07 : ... .. 4 ... ... : ... .. 6 ... ... : ... .. . ... ... : ... .. . ... : ... .. . F02 ... : ... .. . ... ... ... ...
ROW 08 : ... .. 3 ... ... : E-4 0D C Q01 400 : C-2 11 . ... ... : 6-# 08 A ... : F-3 1E . F07 ... : ... .. . ... ... ... ...
ROW 09 : ... .. 2 ... ... : ... .. . ... ... : ... .. . ... ... : ... .. . ... : ... .. . F04 ... : ... .. . ... ... ... ...
ROW 0A : ... .. 1 ... ... : ... .. . ... ... : --- .. . ... ... : D-# 05 6 ... : ... .. . F03 ... : ... .. . ... ... ... ...
ROW 0B : ... .. . ... ... : ... .. . ... ... : ... .. . ... ... : ... .. . ... : ... .. . F02 ... : ... .. . ... ... ... ...
ROW 0C : F-3 0E 5 ... ... : ... .. A ... ... : C-2 11 . ... ... : D-# 05 . ... : F-3 1E . F07 ... : ... .. . ... ... ... ...
ROW 0D : ... .. 4 ... ... : ... .. 8 ... ... : ... .. . ... ... : ... .. . ... : ... .. . F04 ... : ... .. . ... ... ... ...
ROW 0E : ... .. 3 ... ... : ... .. 6 ... ... : --- .. . ... ... : D-# 05 . ... : ... .. . F03 ... : ... .. . ... ... ... ...
ROW 0F : ... .. 2 ... ... : ... .. 4 ... ... : ... .. . ... ... : ... .. . ... : ... .. . F02 ... : ... .. . ... ... ... ...
ROW 10 : ... .. 1 ... ... : E-4 0D A Q01 400 : C-4 03 . 246 ... : C-# 06 8 ... : F-3 1E . F07 ... : ... .. . ... ... ... ...
ROW 11 : ... .. . ... ... : ... .. . ... ... : ... .. . ... ... : ... .. . ... : ... .. . F04 ... : ... .. . ... ... ... ...
ROW 12 : ... .. . ... ... : ... .. . ... ... : ... .. . ... ... : D-# 05 6 ... : ... .. . F03 ... : ... .. . ... ... ... ...
ROW 13 : ... .. . ... ... : ... .. . ... ... : ... .. . ... ... : ... .. . ... : ... .. . F02 ... : ... .. . ... ... ... ...
ROW 14 : F-3 0E 5 ... ... : ... .. 8 ... ... : C-2 11 . 200 ... : D-# 05 . ... : F-3 1E . F07 ... : ... .. . ... ... ... ...
ROW 15 : ... .. 4 ... ... : ... .. 6 ... ... : ... .. . ... ... : ... .. . ... : ... .. . F04 ... : ... .. . ... ... ... ...
ROW 16 : ... .. 3 ... ... : ... .. 4 ... ... : --- .. . ... ... : D-# 05 . ... : ... .. . F03 ... : ... .. . ... ... ... ...
ROW 17 : ... .. 2 ... ... : ... .. 2 ... ... : ... .. . ... ... : ... .. . ... : ... .. . F02 ... : ... .. . ... ... ... ...
ROW 18 : F-3 0E 5 ... ... : E-4 0D 8 Q01 400 : C-2 11 . ... ... : 6-# 08 A ... : F-3 1E . F07 ... : ... .. . ... ... ... ...
ROW 19 : ... .. 4 ... ... : ... .. . ... ... : --- 03 . ... ... : ... .. . ... : ... .. . F04 ... : ... .. . ... ... ... ...
ROW 1A : ... .. 3 ... ... : ... .. . ... ... : C-2 11 . ... ... : D-# 05 6 ... : ... .. . F03 ... : ... .. . ... ... ... ...
ROW 1B : ... .. 2 ... ... : ... .. . ... ... : --- .. . ... ... : ... .. . ... : ... .. . F02 ... : ... .. . ... ... ... ...
ROW 1C : F-3 0E 5 ... ... : ... .. 6 ... ... : C-2 11 . ... ... : D-# 05 . ... : F-3 1E . F07 ... : ... .. . ... ... ... ...
ROW 1D : ... .. 4 ... ... : ... .. 4 ... ... : --- .. . ... ... : ... .. . ... : ... .. . F04 ... : ... .. . ... ... ... ...
ROW 1E : ... .. 3 ... ... : ... .. 2 ... ... : C-2 11 . ... ... : D-# 05 . ... : ... .. . F03 ... : ... .. . ... ... ... ...
ROW 1F : ... .. 2 ... ... : ... .. 1 ... ... : --- .. . ... ... : ... .. . ... : ... .. . F02 ... : ... .. . ... ... ... ...
ROW 20 : F-3 0E 5 ... ... : E-4 0D 6 Q01 400 : G-4 03 . 226 ... : C-# 06 8 ... : F-3 1E . F07 ... : G-2 0C . I00 J73 ... ...
ROW 21 : ... .. 4 ... ... : ... .. . ... ... : ... .. . ... ... : ... .. . ... : ... .. . F04 ... : ... .. . ... ... ... ...
ROW 22 : ... .. 3 ... ... : ... .. . ... ... : ... .. . ... ... : D-# 05 6 ... : ... .. . F03 ... : ... .. . ... ... ... ...
ROW 23 : ... .. 2 ... ... : ... .. . ... ... : ... .. . ... ... : ... .. . ... : ... .. . F02 ... : ... .. . ... ... ... ...
ROW 24 : ... .. 1 ... ... : ... .. 4 ... ... : G-2 11 . 200 ... : D-# 05 . ... : F-3 1E . F07 ... : ... .. . ... ... ... ...
ROW 25 : ... .. . ... ... : ... .. 2 ... ... : ... .. . ... ... : ... .. . ... : ... .. . F04 ... : ... .. . ... ... ... ...
ROW 26 : F-3 0E 5 ... ... : ... .. 1 ... ... : --- .. . ... ... : D-# 05 . ... : ... .. . F03 ... : ... .. . ... ... ... ...
ROW 27 : ... .. 4 ... ... : ... .. 0 ... ... : ... .. . ... ... : ... .. . ... : ... .. . F02 ... : ... .. . ... ... ... ...
ROW 28 : ... .. 3 ... ... : E-4 0D 4 Q01 400 : G-2 11 . ... ... : 6-# 08 A ... : F-3 1E . F07 ... : ... .. . ... ... ... ...
ROW 29 : ... .. 2 ... ... : ... .. . ... ... : ... .. . ... ... : ... .. . ... : ... .. . F04 ... : ... .. . ... ... ... ...
ROW 2A : ... .. 1 ... ... : ... .. . ... ... : --- .. . ... ... : D-# 05 6 ... : ... .. . F03 ... : ... .. . ... ... ... ...
ROW 2B : ... .. . ... ... : ... .. . ... ... : ... .. . ... ... : ... .. . ... : ... .. . F02 ... : ... .. . ... ... ... ...
ROW 2C : F-3 0E 5 ... ... : ... .. 2 ... ... : G-2 11 . ... ... : D-# 05 . ... : F-3 1E . F07 ... : ... .. . ... ... ... ...
ROW 2D : ... .. 4 ... ... : ... .. . ... ... : ... .. . ... ... : ... .. . ... : ... .. . F04 ... : ... .. . ... ... ... ...
ROW 2E : ... .. 3 ... ... : ... .. 1 ... ... : --- .. . ... ... : D-# 05 . ... : ... .. . F03 ... : ... .. . ... ... ... ...
ROW 2F : ... .. 2 ... ... : ... .. . ... ... : ... .. . ... ... : ... .. . ... : ... .. . F02 ... : ... .. . ... ... ... ...
ROW 30 : ... .. 1 ... ... : E-4 0D 2 Q01 400 : G-4 03 . 246 ... : C-# 06 8 ... : F-3 1E . F07 ... : ... .. . ... ... ... ...
ROW 31 : ... .. . ... ... : ... .. . ... ... : ... .. . ... ... : ... .. . ... : ... .. . F04 ... : ... .. . ... ... ... ...
ROW 32 : ... .. . ... ... : ... .. . ... ... : ... .. . ... ... : D-# 05 6 ... : ... .. . F03 ... : ... .. . ... ... ... ...
ROW 33 : ... .. . ... ... : ... .. . ... ... : ... .. . ... ... : ... .. . ... : ... .. . F02 ... : ... .. . ... ... ... ...
ROW 34 : F-3 0E 5 ... ... : ... .. 1 ... ... : G-2 11 . 200 ... : D-# 05 . ... : F-3 1E . F07 ... : ... .. . ... ... ... ...
ROW 35 : ... .. 4 ... ... : ... .. . ... ... : ... .. . ... ... : ... .. . ... : ... .. . F04 ... : ... .. . ... ... ... ...
ROW 36 : ... .. 3 ... ... : ... .. 0 ... ... : --- .. . ... ... : D-# 05 . ... : ... .. . F03 ... : ... .. . ... ... ... ...
ROW 37 : ... .. 2 ... ... : ... .. . ... ... : ... .. . ... ... : ... .. . ... : ... .. . F02 ... : ... .. . ... ... ... ...
ROW 38 : F-3 0E 5 ... ... : E-4 0D 1 Q01 400 : G-2 11 . ... ... : 6-# 08 A ... : F-3 1E . F07 ... : ... .. . ... ... ... ...
ROW 39 : ... .. 4 ... ... : ... .. . ... ... : --- .. . ... ... : ... .. . ... : ... .. . F04 ... : ... .. . ... ... ... ...
ROW 3A : ... .. 3 ... ... : ... .. . ... ... : G-2 11 . ... ... : D-# 05 6 ... : ... .. . F03 ... : ... .. . ... ... ... ...
ROW 3B : ... .. 2 ... ... : ... .. . ... ... : --- .. . ... ... : ... .. . ... : ... .. . F02 ... : ... .. . ... ... ... ...
ROW 3C : F-3 0E 5 ... ... : ... .. 0 ... ... : G-2 11 . ... ... : D-# 05 . ... : F-3 1E . F07 ... : ... .. . ... ... ... ...
ROW 3D : ... .. 4 ... ... : ... .. . ... ... : --- .. . ... ... : ... .. . ... : ... .. . F04 ... : ... .. . ... ... ... ...
ROW 3E : ... .. 3 ... ... : ... .. . ... ... : G-2 11 . ... ... : D-# 05 . ... : ... .. . F03 ... : ... .. . ... ... ... ...
ROW 3F : ... .. 2 ... ... : ... .. . ... ... : --- .. . ... ... : ... .. . ... : ... .. . F02 D00 : ... .. . ... ... ... ...
ROW 40 : ... .. . ... ... : ... .. . ... ... : ... .. . ... ... : ... .. . ... : ... .. . ... ... : ... .. . ... ... ... ...
ROW 41 : ... .. . ... ... : ... .. . ... ... : ... .. . ... ... : ... .. . ... : ... .. . ... ... : ... .. . ... ... ... ...
ROW 42 : ... .. . ... ... : ... .. . ... ... : ... .. . ... ... : ... .. . ... : ... .. . ... ... : ... .. . ... ... ... ...
ROW 43 : ... .. . ... ... : ... .. . ... ... : ... .. . ... ... : ... .. . ... : ... .. . ... ... : ... .. . ... ... ... ...
ROW 44 : ... .. . ... ... : ... .. . ... ... : ... .. . ... ... : ... .. . ... : ... .. . ... ... : ... .. . ... ... ... ...
ROW 45 : ... .. . ... ... : ... .. . ... ... : ... .. . ... ... : ... .. . ... : ... .. . ... ... : ... .. . ... ... ... ...
ROW 46 : ... .. . ... ... : ... .. . ... ... : ... .. . ... ... : ... .. . ... : ... .. . ... ... : ... .. . ... ... ... ...
ROW 47 : ... .. . ... ... : ... .. . ... ... : ... .. . ... ... : ... .. . ... : ... .. . ... ... : ... .. . ... ... ... ...
ROW 48 : ... .. . ... ... : ... .. . ... ... : ... .. . ... ... : ... .. . ... : ... .. . ... ... : ... .. . ... ... ... ...
ROW 49 : ... .. . ... ... : ... .. . ... ... : ... .. . ... ... : ... .. . ... : ... .. . ... ... : ... .. . ... ... ... ...
ROW 4A : ... .. . ... ... : ... .. . ... ... : ... .. . ... ... : ... .. . ... : ... .. . ... ... : ... .. . ... ... ... ...
ROW 4B : ... .. . ... ... : ... .. . ... ... : ... .. . ... ... : ... .. . ... : ... .. . ... ... : ... .. . ... ... ... ...
ROW 4C : ... .. . ... ... : ... .. . ... ... : ... .. . ... ... : ... .. . ... : ... .. . ... ... : ... .. . ... ... ... ...
ROW 4D : ... .. . ... ... : ... .. . ... ... : ... .. . ... ... : ... .. . ... : ... .. . ... ... : ... .. . ... ... ... ...
ROW 4E : ... .. . ... ... : ... .. . ... ... : ... .. . ... ... : ... .. . ... : ... .. . ... ... : ... .. . ... ... ... ...
ROW 4F : ... .. . ... ... : ... .. . ... ... : ... .. . ... ... : ... .. . ... : ... .. . ... ... : ... .. . ... ... ... ...
ROW 50 : ... .. . ... ... : ... .. . ... ... : ... .. . ... ... : ... .. . ... : ... .. . ... ... : ... .. . ... ... ... ...
ROW 51 : ... .. . ... ... : ... .. . ... ... : ... .. . ... ... : ... .. . ... : ... .. . ... ... : ... .. . ... ... ... ...
ROW 52 : ... .. . ... ... : ... .. . ... ... : ... .. . ... ... : ... .. . ... : ... .. . ... ... : ... .. . ... ... ... ...
ROW 53 : ... .. . ... ... : ... .. . ... ... : ... .. . ... ... : ... .. . ... : ... .. . ... ... : ... .. . ... ... ... ...
ROW 54 : ... .. . ... ... : ... .. . ... ... : ... .. . ... ... : ... .. . ... : ... .. . ... ... : ... .. . ... ... ... ...
ROW 55 : ... .. . ... ... : ... .. . ... ... : ... .. . ... ... : ... .. . ... : ... .. . ... ... : ... .. . ... ... ... ...
ROW 56 : ... .. . ... ... : ... .. . ... ... : ... .. . ... ... : ... .. . ... : ... .. . ... ... : ... .. . ... ... ... ...
ROW 57 : ... .. . ... ... : ... .. . ... ... : ... .. . ... ... : ... .. . ... : ... .. . ... ... : ... .. . ... ... ... ...
ROW 58 : ... .. . ... ... : ... .. . ... ... : ... .. . ... ... : ... .. . ... : ... .. . ... ... : ... .. . ... ... ... ...
ROW 59 : ... .. . ... ... : ... .. . ... ... : ... .. . ... ... : ... .. . ... : ... .. . ... ... : ... .. . ... ... ... ...
ROW 5A : ... .. . ... ... : ... .. . ... ... : ... .. . ... ... : ... .. . ... : ... .. . ... ... : ... .. . ... ... ... ...
ROW 5B : ... .. . ... ... : ... .. . ... ... : ... .. . ... ... : ... .. . ... : ... .. . ... ... : ... .. . ... ... ... ...
ROW 5C : ... .. . ... ... : ... .. . ... ... : ... .. . ... ... : ... .. . ... : ... .. . ... ... : ... .. . ... ... ... ...
ROW 5D : ... .. . ... ... : ... .. . ... ... : ... .. . ... ... : ... .. . ... : ... .. . ... ... : ... .. . ... ... ... ...
ROW 5E : ... .. . ... ... : ... .. . ... ... : ... .. . ... ... : ... .. . ... : ... .. . ... ... : ... .. . ... ... ... ...
ROW 5F : ... .. . ... ... : ... .. . ... ... : ... .. . ... ... : ... .. . ... : ... .. . ... ... : ... .. . ... ... ... ...
ROW 60 : ... .. . ... ... : ... .. . ... ... : ... .. . ... ... : ... .. . ... : ... .. . ... ... : ... .. . ... ... ... ...
ROW 61 : ... .. . ... ... : ... .. . ... ... : ... .. . ... ... : ... .. . ... : ... .. . ... ... : ... .. . ... ... ... ...
ROW 62 : ... .. . ... ... : ... .. . ... ... : ... .. . ... ... : ... .. . ... : ... .. . ... ... : ... .. . ... ... ... ...
ROW 63 : ... .. . ... ... : ... .. . ... ... : ... .. . ... ... : ... .. . ... : ... .. . ... ... : ... .. . ... ... ... ...
ROW 64 : ... .. . ... ... : ... .. . ... ... : ... .. . ... ... : ... .. . ... : ... .. . ... ... : ... .. . ... ... ... ...
ROW 65 : ... .. . ... ... : ... .. . ... ... : ... .. . ... ... : ... .. . ... : ... .. . ... ... : ... .. . ... ... ... ...
ROW 66 : ... .. . ... ... : ... .. . ... ... : ... .. . ... ... : ... .. . ... : ... .. . ... ... : ... .. . ... ... ... ...
ROW 67 : ... .. . ... ... : ... .. . ... ... : ... .. . ... ... : ... .. . ... : ... .. . ... ... : ... .. . ... ... ... ...
ROW 68 : ... .. . ... ... : ... .. . ... ... : ... .. . ... ... : ... .. . ... : ... .. . ... ... : ... .. . ... ... ... ...
ROW 69 : ... .. . ... ... : ... .. . ... ... : ... .. . ... ... : ... .. . ... : ... .. . ... ... : ... .. . ... ... ... ...
ROW 6A : ... .. . ... ... : ... .. . ... ... : ... .. . ... ... : ... .. . ... : ... .. . ... ... : ... .. . ... ... ... ...
ROW 6B : ... .. . ... ... : ... .. . ... ... : ... .. . ... ... : ... .. . ... : ... .. . ... ... : ... .. . ... ... ... ...
ROW 6C : ... .. . ... ... : ... .. . ... ... : ... .. . ... ... : ... .. . ... : ... .. . ... ... : ... .. . ... ... ... ...
ROW 6D : ... .. . ... ... : ... .. . ... ... : ... .. . ... ... : ... .. . ... : ... .. . ... ... : ... .. . ... ... ... ...
ROW 6E : ... .. . ... ... : ... .. . ... ... : ... .. . ... ... : ... .. . ... : ... .. . ... ... : ... .. . ... ... ... ...
ROW 6F : ... .. . ... ... : ... .. . ... ... : ... .. . ... ... : ... .. . ... : ... .. . ... ... : ... .. . ... ... ... ...
ROW 70 : ... .. . ... ... : ... .. . ... ... : ... .. . ... ... : ... .. . ... : ... .. . ... ... : ... .. . ... ... ... ...
ROW 71 : ... .. . ... ... : ... .. . ... ... : ... .. . ... ... : ... .. . ... : ... .. . ... ... : ... .. . ... ... ... ...
ROW 72 : ... .. . ... ... : ... .. . ... ... : ... .. . ... ... : ... .. . ... : ... .. . ... ... : ... .. . ... ... ... ...
ROW 73 : ... .. . ... ... : ... .. . ... ... : ... .. . ... ... : ... .. . ... : ... .. . ... ... : ... .. . ... ... ... ...
ROW 74 : ... .. . ... ... : ... .. . ... ... : ... .. . ... ... : ... .. . ... : ... .. . ... ... : ... .. . ... ... ... ...
ROW 75 : ... .. . ... ... : ... .. . ... ... : ... .. . ... ... : ... .. . ... : ... .. . ... ... : ... .. . ... ... ... ...
ROW 76 : ... .. . ... ... : ... .. . ... ... : ... .. . ... ... : ... .. . ... : ... .. . ... ... : ... .. . ... ... ... ...
ROW 77 : ... .. . ... ... : ... .. . ... ... : ... .. . ... ... : ... .. . ... : ... .. . ... ... : ... .. . ... ... ... ...
ROW 78 : ... .. . ... ... : ... .. . ... ... : ... .. . ... ... : ... .. . ... : ... .. . ... ... : ... .. . ... ... ... ...
ROW 79 : ... .. . ... ... : ... .. . ... ... : ... .. . ... ... : ... .. . ... : ... .. . ... ... : ... .. . ... ... ... ...
ROW 7A : ... .. . ... ... : ... .. . ... ... : ... .. . ... ... : ... .. . ... : ... .. . ... ... : ... .. . ... ... ... ...
ROW 7B : ... .. . ... ... : ... .. . ... ... : ... .. . ... ... : ... .. . ... : ... .. . ... ... : ... .. . ... ... ... ...
ROW 7C : ... .. . ... ... : ... .. . ... ... : ... .. . ... ... : ... .. . ... : ... .. . ... ... : ... .. . ... ... ... ...
ROW 7D : ... .. . ... ... : ... .. . ... ... : ... .. . ... ... : ... .. . ... : ... .. . ... ... : ... .. . ... ... ... ...
ROW 7E : ... .. . ... ... : ... .. . ... ... : ... .. . ... ... : ... .. . ... : ... .. . ... ... : ... .. . ... ... ... ...
ROW 7F : ... .. . ... ... : ... .. . ... ... : ... .. . ... ... : ... .. . ... : ... .. . ... ... : ... .. . ... ... ... ...
ROW 80 : ... .. . ... ... : ... .. . ... ... : ... .. . ... ... : ... .. . ... : ... .. . ... ... : ... .. . ... ... ... ...
ROW 81 : ... .. . ... ... : ... .. . ... ... : ... .. . ... ... : ... .. . ... : ... .. . ... ... : ... .. . ... ... ... ...
ROW 82 : ... .. . ... ... : ... .. . ... ... : ... .. . ... ... : ... .. . ... : ... .. . ... ... : ... .. . ... ... ... ...
ROW 83 : ... .. . ... ... : ... .. . ... ... : ... .. . ... ... : ... .. . ... : ... .. . ... ... : ... .. . ... ... ... ...
ROW 84 : ... .. . ... ... : ... .. . ... ... : ... .. . ... ... : ... .. . ... : ... .. . ... ... : ... .. . ... ... ... ...
ROW 85 : ... .. . ... ... : ... .. . ... ... : ... .. . ... ... : ... .. . ... : ... .. . ... ... : ... .. . ... ... ... ...
ROW 86 : ... .. . ... ... : ... .. . ... ... : ... .. . ... ... : ... .. . ... : ... .. . ... ... : ... .. . ... ... ... ...
ROW 87 : ... .. . ... ... : ... .. . ... ... : ... .. . ... ... : ... .. . ... : ... .. . ... ... : ... .. . ... ... ... ...
ROW 88 : ... .. . ... ... : ... .. . ... ... : ... .. . ... ... : ... .. . ... : ... .. . ... ... : ... .. . ... ... ... ...
ROW 89 : ... .. . ... ... : ... .. . ... ... : ... .. . ... ... : ... .. . ... : ... .. . ... ... : ... .. . ... ... ... ...
ROW 8A : ... .. . ... ... : ... .. . ... ... : ... .. . ... ... : ... .. . ... : ... .. . ... ... : ... .. . ... ... ... ...
ROW 8B : ... .. . ... ... : ... .. . ... ... : ... .. . ... ... : ... .. . ... : ... .. . ... ... : ... .. . ... ... ... ...
ROW 8C : ... .. . ... ... : ... .. . ... ... : ... .. . ... ... : ... .. . ... : ... .. . ... ... : ... .. . ... ... ... ...
ROW 8D : ... .. . ... ... : ... .. . ... ... : ... .. . ... ... : ... .. . ... : ... .. . ... ... : ... .. . ... ... ... ...
ROW 8E : ... .. . ... ... : ... .. . ... ... : ... .. . ... ... : ... .. . ... : ... .. . ... ... : ... .. . ... ... ... ...
ROW 8F : ... .. . ... ... : ... .. . ... ... : ... .. . ... ... : ... .. . ... : ... .. . ... ... : ... .. . ... ... ... ...
ROW 90 : ... .. . ... ... : ... .. . ... ... : ... .. . ... ... : ... .. . ... : ... .. . ... ... : ... .. . ... ... ... ...
ROW 91 : ... .. . ... ... : ... .. . ... ... : ... .. . ... ... : ... .. . ... : ... .. . ... ... : ... .. . ... ... ... ...
ROW 92 : ... .. . ... ... : ... .. . ... ... : ... .. . ... ... : ... .. . ... : ... .. . ... ... : ... .. . ... ... ... ...
ROW 93 : ... .. . ... ... : ... .. . ... ... : ... .. . ... ... : ... .. . ... : ... .. . ... ... : ... .. . ... ... ... ...
ROW 94 : ... .. . ... ... : ... .. . ... ... : ... .. . ... ... : ... .. . ... : ... .. . ... ... : ... .. . ... ... ... ...
ROW 95 : ... .. . ... ... : ... .. . ... ... : ... .. . ... ... : ... .. . ... : ... .. . ... ... : ... .. . ... ... ... ...
ROW 96 : ... .. . ... ... : ... .. . ... ... : ... .. . ... ... : ... .. . ... : ... .. . ... ... : ... .. . ... ... ... ...
ROW 97 : ... .. . ... ... : ... .. . ... ... : ... .. . ... ... : ... .. . ... : ... .. . ... ... : ... .. . ... ... ... ...
ROW 98 : ... .. . ... ... : ... .. . ... ... : ... .. . ... ... : ... .. . ... : ... .. . ... ... : ... .. . ... ... ... ...
ROW 99 : ... .. . ... ... : ... .. . ... ... : ... .. . ... ... : ... .. . ... : ... .. . ... ... : ... .. . ... ... ... ...
ROW 9A : ... .. . ... ... : ... .. . ... ... : ... .. . ... ... : ... .. . ... : ... .. . ... ... : ... .. . ... ... ... ...
ROW 9B : ... .. . ... ... : ... .. . ... ... : ... .. . ... ... : ... .. . ... : ... .. . ... ... : ... .. . ... ... ... ...
ROW 9C : ... .. . ... ... : ... .. . ... ... : ... .. . ... ... : ... .. . ... : ... .. . ... ... : ... .. . ... ... ... ...
ROW 9D : ... .. . ... ... : ... .. . ... ... : ... .. . ... ... : ... .. . ... : ... .. . ... ... : ... .. . ... ... ... ...
ROW 9E : ... .. . ... ... : ... .. . ... ... : ... .. . ... ... : ... .. . ... : ... .. . ... ... : ... .. . ... ... ... ...
ROW 9F : ... .. . ... ... : ... .. . ... ... : ... .. . ... ... : ... .. . ... : ... .. . ... ... : ... .. . ... ... ... ...
ROW A0 : ... .. . ... ... : ... .. . ... ... : ... .. . ... ... : ... .. . ... : ... .. . ... ... : ... .. . ... ... ... ...
ROW A1 : ... .. . ... ... : ... .. . ... ... : ... .. . ... ... : ... .. . ... : ... .. . ... ... : ... .. . ... ... ... ...
ROW A2 : ... .. . ... ... : ... .. . ... ... : ... .. . ... ... : ... .. . ... : ... .. . ... ... : ... .. . ... ... ... ...
ROW A3 : ... .. . ... ... : ... .. . ... ... : ... .. . ... ... : ... .. . ... : ... .. . ... ... : ... .. . ... ... ... ...
ROW A4 : ... .. . ... ... : ... .. . ... ... : ... .. . ... ... : ... .. . ... : ... .. . ... ... : ... .. . ... ... ... ...
ROW A5 : ... .. . ... ... : ... .. . ... ... : ... .. . ... ... : ... .. . ... : ... .. . ... ... : ... .. . ... ... ... ...
ROW A6 : ... .. . ... ... : ... .. . ... ... : ... .. . ... ... : ... .. . ... : ... .. . ... ... : ... .. . ... ... ... ...
ROW A7 : ... .. . ... ... : ... .. . ... ... : ... .. . ... ... : ... .. . ... : ... .. . ... ... : ... .. . ... ... ... ...
ROW A8 : ... .. . ... ... : ... .. . ... ... : ... .. . ... ... : ... .. . ... : ... .. . ... ... : ... .. . ... ... ... ...
ROW A9 : ... .. . ... ... : ... .. . ... ... : ... .. . ... ... : ... .. . ... : ... .. . ... ... : ... .. . ... ... ... ...
ROW AA : ... .. . ... ... : ... .. . ... ... : ... .. . ... ... : ... .. . ... : ... .. . ... ... : ... .. . ... ... ... ...
ROW AB : ... .. . ... ... : ... .. . ... ... : ... .. . ... ... : ... .. . ... : ... .. . ... ... : ... .. . ... ... ... ...
ROW AC : ... .. . ... ... : ... .. . ... ... : ... .. . ... ... : ... .. . ... : ... .. . ... ... : ... .. . ... ... ... ...
ROW AD : ... .. . ... ... : ... .. . ... ... : ... .. . ... ... : ... .. . ... : ... .. . ... ... : ... .. . ... ... ... ...
ROW AE : ... .. . ... ... : ... .. . ... ... : ... .. . ... ... : ... .. . ... : ... .. . ... ... : ... .. . ... ... ... ...
ROW AF : ... .. . ... ... : ... .. . ... ... : ... .. . ... ... : ... .. . ... : ... .. . ... ... : ... .. . ... ... ... ...
ROW B0 : ... .. . ... ... : ... .. . ... ... : ... .. . ... ... : ... .. . ... : ... .. . ... ... : ... .. . ... ... ... ...
ROW B1 : ... .. . ... ... : ... .. . ... ... : ... .. . ... ... : ... .. . ... : ... .. . ... ... : ... .. . ... ... ... ...
ROW B2 : ... .. . ... ... : ... .. . ... ... : ... .. . ... ... : ... .. . ... : ... .. . ... ... : ... .. . ... ... ... ...
ROW B3 : ... .. . ... ... : ... .. . ... ... : ... .. . ... ... : ... .. . ... : ... .. . ... ... : ... .. . ... ... ... ...
ROW B4 : ... .. . ... ... : ... .. . ... ... : ... .. . ... ... : ... .. . ... : ... .. . ... ... : ... .. . ... ... ... ...
ROW B5 : ... .. . ... ... : ... .. . ... ... : ... .. . ... ... : ... .. . ... : ... .. . ... ... : ... .. . ... ... ... ...
ROW B6 : ... .. . ... ... : ... .. . ... ... : ... .. . ... ... : ... .. . ... : ... .. . ... ... : ... .. . ... ... ... ...
ROW B7 : ... .. . ... ... : ... .. . ... ... : ... .. . ... ... : ... .. . ... : ... .. . ... ... : ... .. . ... ... ... ...
ROW B8 : ... .. . ... ... : ... .. . ... ... : ... .. . ... ... : ... .. . ... : ... .. . ... ... : ... .. . ... ... ... ...
ROW B9 : ... .. . ... ... : ... .. . ... ... : ... .. . ... ... : ... .. . ... : ... .. . ... ... : ... .. . ... ... ... ...
ROW BA : ... .. . ... ... : ... .. . ... ... : ... .. . ... ... : ... .. . ... : ... .. . ... ... : ... .. . ... ... ... ...
ROW BB : ... .. . ... ... : ... .. . ... ... : ... .. . ... ... : ... .. . ... : ... .. . ... ... : ... .. . ... ... ... ...
ROW BC : ... .. . ... ... : ... .. . ... ... : ... .. . ... ... : ... .. . ... : ... .. . ... ... : ... .. . ... ... ... ...
ROW BD : ... .. . ... ... : ... .. . ... ... : ... .. . ... ... : ... .. . ... : ... .. . ... ... : ... .. . ... ... ... ...
ROW BE : ... .. . ... ... : ... .. . ... ... : ... .. . ... ... : ... .. . ... : ... .. . ... ... : ... .. . ... ... ... ...
ROW BF : ... .. . ... ... : ... .. . ... ... : ... .. . ... ... : ... .. . ... : ... .. . ... ... : ... .. . ... ... ... ...
ROW C0 : ... .. . ... ... : ... .. . ... ... : ... .. . ... ... : ... .. . ... : ... .. . ... ... : ... .. . ... ... ... ...
ROW C1 : ... .. . ... ... : ... .. . ... ... : ... .. . ... ... : ... .. . ... : ... .. . ... ... : ... .. . ... ... ... ...
ROW C2 : ... .. . ... ... : ... .. . ... ... : ... .. . ... ... : ... .. . ... : ... .. . ... ... : ... .. . ... ... ... ...
ROW C3 : ... .. . ... ... : ... .. . ... ... : ... .. . ... ... : ... .. . ... : ... .. . ... ... : ... .. . ... ... ... ...
ROW C4 : ... .. . ... ... : ... .. . ... ... : ... .. . ... ... : ... .. . ... : ... .. . ... ... : ... .. . ... ... ... ...
ROW C5 : ... .. . ... ... : ... .. . ... ... : ... .. . ... ... : ... .. . ... : ... .. . ... ... : ... .. . ... ... ... ...
ROW C6 : ... .. . ... ... : ... .. . ... ... : ... .. . ... ... : ... .. . ... : ... .. . ... ... : ... .. . ... ... ... ...
ROW C7 : ... .. . ... ... : ... .. . ... ... : ... .. . ... ... : ... .. . ... : ... .. . ... ... : ... .. . ... ... ... ...
ROW C8 : ... .. . ... ... : ... .. . ... ... : ... .. . ... ... : ... .. . ... : ... .. . ... ... : ... .. . ... ... ... ...
ROW C9 : ... .. . ... ... : ... .. . ... ... : ... .. . ... ... : ... .. . ... : ... .. . ... ... : ... .. . ... ... ... ...
ROW CA : ... .. . ... ... : ... .. . ... ... : ... .. . ... ... : ... .. . ... : ... .. . ... ... : ... .. . ... ... ... ...
ROW CB : ... .. . ... ... : ... .. . ... ... : ... .. . ... ... : ... .. . ... : ... .. . ... ... : ... .. . ... ... ... ...
ROW CC : ... .. . ... ... : ... .. . ... ... : ... .. . ... ... : ... .. . ... : ... .. . ... ... : ... .. . ... ... ... ...
ROW CD : ... .. . ... ... : ... .. . ... ... : ... .. . ... ... : ... .. . ... : ... .. . ... ... : ... .. . ... ... ... ...
ROW CE : ... .. . ... ... : ... .. . ... ... : ... .. . ... ... : ... .. . ... : ... .. . ... ... : ... .. . ... ... ... ...
ROW CF : ... .. . ... ... : ... .. . ... ... : ... .. . ... ... : ... .. . ... : ... .. . ... ... : ... .. . ... ... ... ...
ROW D0 : ... .. . ... ... : ... .. . ... ... : ... .. . ... ... : ... .. . ... : ... .. . ... ... : ... .. . ... ... ... ...
ROW D1 : ... .. . ... ... : ... .. . ... ... : ... .. . ... ... : ... .. . ... : ... .. . ... ... : ... .. . ... ... ... ...
ROW D2 : ... .. . ... ... : ... .. . ... ... : ... .. . ... ... : ... .. . ... : ... .. . ... ... : ... .. . ... ... ... ...
ROW D3 : ... .. . ... ... : ... .. . ... ... : ... .. . ... ... : ... .. . ... : ... .. . ... ... : ... .. . ... ... ... ...
ROW D4 : ... .. . ... ... : ... .. . ... ... : ... .. . ... ... : ... .. . ... : ... .. . ... ... : ... .. . ... ... ... ...
ROW D5 : ... .. . ... ... : ... .. . ... ... : ... .. . ... ... : ... .. . ... : ... .. . ... ... : ... .. . ... ... ... ...
ROW D6 : ... .. . ... ... : ... .. . ... ... : ... .. . ... ... : ... .. . ... : ... .. . ... ... : ... .. . ... ... ... ...
ROW D7 : ... .. . ... ... : ... .. . ... ... : ... .. . ... ... : ... .. . ... : ... .. . ... ... : ... .. . ... ... ... ...
ROW D8 : ... .. . ... ... : ... .. . ... ... : ... .. . ... ... : ... .. . ... : ... .. . ... ... : ... .. . ... ... ... ...
ROW D9 : ... .. . ... ... : ... .. . ... ... : ... .. . ... ... : ... .. . ... : ... .. . ... ... : ... .. . ... ... ... ...
ROW DA : ... .. . ... ... : ... .. . ... ... : ... .. . ... ... : ... .. . ... : ... .. . ... ... : ... .. . ... ... ... ...
ROW DB : ... .. . ... ... : ... .. . ... ... : ... .. . ... ... : ... .. . ... : ... .. . ... ... : ... .. . ... ... ... ...
ROW DC : ... .. . ... ... : ... .. . ... ... : ... .. . ... ... : ... .. . ... : ... .. . ... ... : ... .. . ... ... ... ...
ROW DD : ... .. . ... ... : ... .. . ... ... : ... .. . ... ... : ... .. . ... : ... .. . ... ... : ... .. . ... ... ... ...
ROW DE : ... .. . ... ... : ... .. . ... ... : ... .. . ... ... : ... .. . ... : ... .. . ... ... : ... .. . ... ... ... ...
ROW DF : ... .. . ... ... : ... .. . ... ... : ... .. . ... ... : ... .. . ... : ... .. . ... ... : ... .. . ... ... ... ...
ROW E0 : ... .. . ... ... : ... .. . ... ... : ... .. . ... ... : ... .. . ... : ... .. . ... ... : ... .. . ... ... ... ...
ROW E1 : ... .. . ... ... : ... .. . ... ... : ... .. . ... ... : ... .. . ... : ... .. . ... ... : ... .. . ... ... ... ...
ROW E2 : ... .. . ... ... : ... .. . ... ... : ... .. . ... ... : ... .. . ... : ... .. . ... ... : ... .. . ... ... ... ...
ROW E3 : ... .. . ... ... : ... .. . ... ... : ... .. . ... ... : ... .. . ... : ... .. . ... ... : ... .. . ... ... ... ...
ROW E4 : ... .. . ... ... : ... .. . ... ... : ... .. . ... ... : ... .. . ... : ... .. . ... ... : ... .. . ... ... ... ...
ROW E5 : ... .. . ... ... : ... .. . ... ... : ... .. . ... ... : ... .. . ... : ... .. . ... ... : ... .. . ... ... ... ...
ROW E6 : ... .. . ... ... : ... .. . ... ... : ... .. . ... ... : ... .. . ... : ... .. . ... ... : ... .. . ... ... ... ...
ROW E7 : ... .. . ... ... : ... .. . ... ... : ... .. . ... ... : ... .. . ... : ... .. . ... ... : ... .. . ... ... ... ...
ROW E8 : ... .. . ... ... : ... .. . ... ... : ... .. . ... ... : ... .. . ... : ... .. . ... ... : ... .. . ... ... ... ...
ROW E9 : ... .. . ... ... : ... .. . ... ... : ... .. . ... ... : ... .. . ... : ... .. . ... ... : ... .. . ... ... ... ...
ROW EA : ... .. . ... ... : ... .. . ... ... : ... .. . ... ... : ... .. . ... : ... .. . ... ... : ... .. . ... ... ... ...
ROW EB : ... .. . ... ... : ... .. . ... ... : ... .. . ... ... : ... .. . ... : ... .. . ... ... : ... .. . ... ... ... ...
ROW EC : ... .. . ... ... : ... .. . ... ... : ... .. . ... ... : ... .. . ... : ... .. . ... ... : ... .. . ... ... ... ...
ROW ED : ... .. . ... ... : ... .. . ... ... : ... .. . ... ... : ... .. . ... : ... .. . ... ... : ... .. . ... ... ... ...
ROW EE : ... .. . ... ... : ... .. . ... ... : ... .. . ... ... : ... .. . ... : ... .. . ... ... : ... .. . ... ... ... ...
ROW EF : ... .. . ... ... : ... .. . ... ... : ... .. . ... ... : ... .. . ... : ... .. . ... ... : ... .. . ... ... ... ...
ROW F0 : ... .. . ... ... : ... .. . ... ... : ... .. . ... ... : ... .. . ... : ... .. . ... ... : ... .. . ... ... ... ...
ROW F1 : ... .. . ... ... : ... .. . ... ... : ... .. . ... ... : ... .. . ... : ... .. . ... ... : ... .. . ... ... ... ...
ROW F2 : ... .. . ... ... : ... .. . ... ... : ... .. . ... ... : ... .. . ... : ... .. . ... ... : ... .. . ... ... ... ...
ROW F3 : ... .. . ... ... : ... .. . ... ... : ... .. . ... ... : ... .. . ... : ... .. . ... ... : ... .. . ... ... ... ...
ROW F4 : ... .. . ... ... : ... .. . ... ... : ... .. . ... ... : ... .. . ... : ... .. . ... ... : ... .. . ... ... ... ...
ROW F5 : ... .. . ... ... : ... .. . ... ... : ... .. . ... ... : ... .. . ... : ... .. . ... ... : ... .. . ... ... ... ...
ROW F6 : ... .. . ... ... : ... .. . ... ... : ... .. . ... ... : ... .. . ... : ... .. . ... ... : ... .. . ... ... ... ...
ROW F7 : ... .. . ... ... : ... .. . ... ... : ... .. . ... ... : ... .. . ... : ... .. . ... ... : ... .. . ... ... ... ...
ROW F8 : ... .. . ... ... : ... .. . ... ... : ... .. . ... ... : ... .. . ... : ... .. . ... ... : ... .. . ... ... ... ...
ROW F9 : ... .. . ... ... : ... .. . ... ... : ... .. . ... ... : ... .. . ... : ... .. . ... ... : ... .. . ... ... ... ...
ROW FA : ... .. . ... ... : ... .. . ... ... : ... .. . ... ... : ... .. . ... : ... .. . ... ... : ... .. . ... ... ... ...
ROW FB : ... .. . ... ... : ... .. . ... ... : ... .. . ... ... : ... .. . ... : ... .. . ... ... : ... .. . ... ... ... ...
ROW FC : ... .. . ... ... : ... .. . ... ... : ... .. . ... ... : ... .. . ... : ... .. . ... ... : ... .. . ... ... ... ...
ROW FD : ... .. . ... ... : ... .. . ... ... : ... .. . ... ... : ... .. . ... : ... .. . ... ... : ... .. . ... ... ... ...
ROW FE : ... .. . ... ... : ... .. . ... ... : ... .. . ... ... : ... .. . ... : ... .. . ... ... : ... .. . ... ... ... ...
ROW FF : ... .. . ... ... : ... .. . ... ... : ... .. . ... ... : ... .. . ... : ... .. . ... ... : ... .. . ... ... ... ...

PATTERN 0C
ROW 00 : F-3 0E 5 ... ... : --- .. . ... ... : G#4 03 . 226 ... : C-# 06 8 ... : F-3 1E . F07 ... : G#2 0C A I00 J7A ... ...
ROW 01 : ... .. 4 ... ... : ... .. . ... ... : ... .. . ... ... : ... .. . ... : ... .. . F04 ... : ... .. . ... ... ... ...
ROW 02 : ... .. 3 ... ... : ... .. . ... ... : ... .. . ... ... : D-# 05 6 ... : ... .. . F03 ... : ... .. . ... ... ... ...
ROW 03 : ... .. 2 ... ... : ... .. . ... ... : ... .. . ... ... : ... .. . ... : ... .. . F02 ... : ... .. . ... ... ... ...
ROW 04 : ... .. 1 ... ... : ... .. . ... ... : G#2 11 . 200 ... : D-# 05 . ... : F-3 1E . F07 ... : ... .. . ... ... ... ...
ROW 05 : ... .. . ... ... : ... .. . ... ... : ... .. . ... ... : ... .. . ... : ... .. . F04 ... : ... .. . ... ... ... ...
ROW 06 : F-3 0E 5 ... ... : ... .. . ... ... : --- .. . ... ... : D-# 05 . ... : ... .. . F03 ... : ... .. . ... ... ... ...
ROW 07 : ... .. 4 ... ... : ... .. . ... ... : ... .. . ... ... : ... .. . ... : ... .. . F02 ... : ... .. . ... ... ... ...
ROW 08 : ... .. 3 ... ... : ... .. . ... ... : G#2 11 . ... ... : 6-# 08 A ... : F-3 1E . F07 ... : ... .. . ... ... ... ...
ROW 09 : ... .. 2 ... ... : ... .. . ... ... : ... .. . ... ... : ... .. . ... : ... .. . F04 ... : ... .. . ... ... ... ...
ROW 0A : ... .. 1 ... ... : ... .. . ... ... : --- .. . ... ... : D-# 05 6 ... : ... .. . F03 ... : ... .. . ... ... ... ...
ROW 0B : ... .. . ... ... : ... .. . ... ... : ... .. . ... ... : ... .. . ... : ... .. . F02 ... : ... .. . ... ... ... ...
ROW 0C : F-3 0E 5 ... ... : ... .. . ... ... : G#2 11 . ... ... : D-# 05 . ... : F-3 1E . F07 ... : ... .. . ... ... ... ...
ROW 0D : ... .. 4 ... ... : ... .. . ... ... : ... .. . ... ... : ... .. . ... : ... .. . F04 ... : ... .. . ... ... ... ...
ROW 0E : ... .. 3 ... ... : ... .. . ... ... : --- .. . ... ... : D-# 05 . ... : ... .. . F03 ... : ... .. . ... ... ... ...
ROW 0F : ... .. 2 ... ... : ... .. . ... ... : ... .. . ... ... : ... .. . ... : ... .. . F02 ... : ... .. . ... ... ... ...
ROW 10 : F-3 0E 5 ... ... : ... .. . ... ... : G#4 03 . 246 ... : C-# 06 8 ... : F-3 1E . F07 ... : ... .. . ... ... ... ...
ROW 11 : ... .. 4 ... ... : ... .. . ... ... : ... .. . ... ... : ... .. . ... : ... .. . F04 ... : ... .. . ... ... ... ...
ROW 12 : ... .. 3 ... ... : ... .. . ... ... : ... .. . ... ... : D-# 05 6 ... : ... .. . F03 ... : ... .. . ... ... ... ...
ROW 13 : ... .. 2 ... ... : ... .. . ... ... : ... .. . ... ... : ... .. . ... : ... .. . F02 ... : ... .. . ... ... ... ...
ROW 14 : F-3 0E 5 ... ... : ... .. . ... ... : G#2 11 . 200 ... : D-# 05 . ... : F-3 1E . F07 ... : ... .. . ... ... ... ...
ROW 15 : ... .. 4 ... ... : ... .. . ... ... : ... .. . ... ... : ... .. . ... : ... .. . F04 ... : ... .. . ... ... ... ...
ROW 16 : ... .. 3 ... ... : ... .. . ... ... : --- .. . ... ... : D-# 05 . ... : ... .. . F03 ... : ... .. . ... ... ... ...
ROW 17 : ... .. 2 ... ... : ... .. . ... ... : ... .. . ... ... : ... .. . ... : ... .. . F02 ... : ... .. . ... ... ... ...
ROW 18 : F-3 0E 5 ... ... : ... .. . ... ... : G#2 11 . ... ... : 6-# 08 A ... : F-3 1E . F07 ... : ... .. . ... ... ... ...
ROW 19 : ... .. 4 ... ... : ... .. . ... ... : --- 03 . ... ... : ... .. . ... : ... .. . F04 ... : ... .. . ... ... ... ...
ROW 1A : ... .. 3 ... ... : ... .. . ... ... : G#2 11 . ... ... : D-# 05 6 ... : ... .. . F03 ... : ... .. . ... ... ... ...
ROW 1B : ... .. 2 ... ... : ... .. . ... ... : --- .. . ... ... : ... .. . ... : ... .. . F02 ... : ... .. . ... ... ... ...
ROW 1C : F-3 0E 5 ... ... : ... .. . ... ... : G#2 11 . ... ... : D-# 05 . ... : F-3 1E . F07 ... : ... .. . ... ... ... ...
ROW 1D : ... .. 4 ... ... : ... .. . ... ... : --- .. . ... ... : ... .. . ... : ... .. . F04 ... : ... .. . ... ... ... ...
ROW 1E : ... .. 3 ... ... : ... .. . ... ... : G#2 11 . ... ... : D-# 05 . ... : ... .. . F03 ... : ... .. . ... ... ... ...
ROW 1F : ... .. 2 ... ... : ... .. . ... ... : --- .. . ... ... : ... .. . ... : ... .. . F02 ... : ... .. . ... ... ... ...
ROW 20 : A#3 0E 5 ... ... : ... .. . ... ... : A#4 03 . 226 ... : C-# 06 8 ... : A#3 1E . F07 ... : A#2 0C . I00 J89 ... ...
ROW 21 : ... .. 4 ... ... : ... .. . ... ... : ... .. . ... ... : ... .. . ... : ... .. . F04 ... : ... .. . ... ... ... ...
ROW 22 : ... .. 3 ... ... : ... .. . ... ... : ... .. . ... ... : D-# 05 6 ... : ... .. . F03 ... : ... .. . ... ... ... ...
ROW 23 : ... .. 2 ... ... : ... .. . ... ... : ... .. . ... ... : ... .. . ... : ... .. . F02 ... : ... .. . ... ... ... ...
ROW 24 : ... .. 1 ... ... : ... .. . ... ... : A#2 11 . 200 ... : D-# 05 . ... : A#3 1E . F07 ... : ... .. . ... ... ... ...
ROW 25 : ... .. . ... ... : ... .. . ... ... : ... .. . ... ... : ... .. . ... : ... .. . F04 ... : ... .. . ... ... ... ...
ROW 26 : A#3 0E 5 ... ... : ... .. . ... ... : --- .. . ... ... : D-# 05 . ... : ... .. . F03 ... : ... .. . ... ... ... ...
ROW 27 : ... .. 4 ... ... : ... .. . ... ... : ... .. . ... ... : ... .. . ... : ... .. . F02 ... : ... .. . ... ... ... ...
ROW 28 : ... .. 3 ... ... : ... .. . ... ... : A#2 11 . ... ... : 6-# 08 A ... : A#3 1E . F07 ... : ... .. . ... ... ... ...
ROW 29 : ... .. 2 ... ... : ... .. . ... ... : ... .. . ... ... : ... .. . ... : ... .. . F04 ... : ... .. . ... ... ... ...
ROW 2A : ... .. 1 ... ... : ... .. . ... ... : --- .. . ... ... : D-# 05 6 ... : ... .. . F03 ... : ... .. . ... ... ... ...
ROW 2B : ... .. . ... ... : ... .. . ... ... : ... .. . ... ... : ... .. . ... : ... .. . F02 ... : ... .. . ... ... ... ...
ROW 2C : A#3 0E 5 ... ... : ... .. . ... ... : A#2 11 . ... ... : D-# 05 . ... : A#3 1E . F07 ... : ... .. . ... ... ... ...
ROW 2D : ... .. 4 ... ... : ... .. . ... ... : ... .. . ... ... : ... .. . ... : ... .. . F04 ... : ... .. . ... ... ... ...
ROW 2E : ... .. 3 ... ... : ... .. . ... ... : --- .. . ... ... : D-# 05 . ... : ... .. . F03 ... : ... .. . ... ... ... ...
ROW 2F : ... .. 2 ... ... : ... .. . ... ... : ... .. . ... ... : ... .. . ... : ... .. . F02 ... : ... .. . ... ... ... ...
ROW 30 : A#3 0E 5 ... ... : ... .. . ... ... : A#4 03 . 246 ... : C-# 06 8 ... : A#3 1E . F07 ... : ... .. . ... ... ... ...
ROW 31 : ... .. 4 ... ... : ... .. . ... ... : ... .. . ... ... : ... .. . ... : ... .. . F04 ... : ... .. . ... ... ... ...
ROW 32 : ... .. 3 ... ... : ... .. . ... ... : ... .. . ... ... : D-# 05 6 ... : ... .. . F03 ... : ... .. . ... ... ... ...
ROW 33 : ... .. 2 ... ... : ... .. . ... ... : ... .. . ... ... : ... .. . ... : ... .. . F02 ... : ... .. . ... ... ... ...
ROW 34 : A#3 0E 5 ... ... : ... .. . ... ... : A#2 11 . 200 ... : D-# 05 . ... : A#3 1E . F07 ... : ... .. . ... ... ... ...
ROW 35 : ... .. 4 ... ... : ... .. . ... ... : ... .. . ... ... : ... .. . ... : ... .. . F04 ... : ... .. . ... ... ... ...
ROW 36 : ... .. 3 ... ... : ... .. . ... ... : --- .. . ... ... : D-# 05 . ... : ... .. . F03 ... : ... .. . ... ... ... ...
ROW 37 : ... .. 2 ... ... : ... .. . ... ... : ... .. . ... ... : ... .. . ... : ... .. . F02 ... : ... .. . ... ... ... ...
ROW 38 : A#3 0E 5 ... ... : C-3 0F C ... ... : A#2 11 . ... ... : 6-# 08 A ... : A#3 1E . F07 ... : ... .. . ... ... ... ...
ROW 39 : ... .. 4 ... ... : ... .. . ... ... : --- .. . ... ... : ... .. . ... : ... .. . F04 ... : ... .. . ... ... ... ...
ROW 3A : ... .. 3 ... ... : ... .. 6 ... ... : A#2 11 . ... ... : D-# 05 6 ... : ... .. . F03 ... : ... .. . ... ... ... ...
ROW 3B : ... .. 2 ... ... : ... .. 4 ... ... : --- .. . ... ... : ... .. . ... : ... .. . F02 ... : ... .. . ... ... ... ...
ROW 3C : A#3 0E 5 ... ... : D#3 0F C ... ... : A#2 11 . ... ... : 6-# 08 A ... : A#3 1E . F07 ... : ... .. . ... ... ... ...
ROW 3D : ... .. 4 ... ... : ... .. . ... ... : --- .. . ... ... : ... .. . ... : ... .. . F04 ... : ... .. . ... ... ... ...
ROW 3E : ... .. 3 ... ... : C-3 0F 8 ... ... : A#2 11 . ... ... : 6-# 08 . ... : ... .. . F03 ... : ... .. . ... ... ... ...
ROW 3F : ... .. 2 ... ... : ... .. 6 ... ... : --- .. . ... ... : ... .. . ... : ... .. . F02 D00 : ... .. . ... ... ... ...
ROW 40 : ... .. . ... ... : ... .. . ... ... : ... .. . ... ... : ... .. . ... : ... .. . ... ... : ... .. . ... ... ... ...
ROW 41 : ... .. . ... ... : ... .. . ... ... : ... .. . ... ... : ... .. . ... : ... .. . ... ... : ... .. . ... ... ... ...
ROW 42 : ... .. . ... ... : ... .. . ... ... : ... .. . ... ... : ... .. . ... : ... .. . ... ... : ... .. . ... ... ... ...
ROW 43 : ... .. . ... ... : ... .. . ... ... : ... .. . ... ... : ... .. . ... : ... .. . ... ... : ... .. . ... ... ... ...
ROW 44 : ... .. . ... ... : ... .. . ... ... : ... .. . ... ... : ... .. . ... : ... .. . ... ... : ... .. . ... ... ... ...
ROW 45 : ... .. . ... ... : ... .. . ... ... : ... .. . ... ... : ... .. . ... : ... .. . ... ... : ... .. . ... ... ... ...
ROW 46 : ... .. . ... ... : ... .. . ... ... : ... .. . ... ... : ... .. . ... : ... .. . ... ... : ... .. . ... ... ... ...
ROW 47 : ... .. . ... ... : ... .. . ... ... : ... .. . ... ... : ... .. . ... : ... .. . ... ... : ... .. . ... ... ... ...
ROW 48 : ... .. . ... ... : ... .. . ... ... : ... .. . ... ... : ... .. . ... : ... .. . ... ... : ... .. . ... ... ... ...
ROW 49 : ... .. . ... ... : ... .. . ... ... : ... .. . ... ... : ... .. . ... : ... .. . ... ... : ... .. . ... ... ... ...
ROW 4A : ... .. . ... ... : ... .. . ... ... : ... .. . ... ... : ... .. . ... : ... .. . ... ... : ... .. . ... ... ... ...
ROW 4B : ... .. . ... ... : ... .. . ... ... : ... .. . ... ... : ... .. . ... : ... .. . ... ... : ... .. . ... ... ... ...
ROW 4C : ... .. . ... ... : ... .. . ... ... : ... .. . ... ... : ... .. . ... : ... .. . ... ... : ... .. . ... ... ... ...
ROW 4D : ... .. . ... ... : ... .. . ... ... : ... .. . ... ... : ... .. . ... : ... .. . ... ... : ... .. . ... ... ... ...
ROW 4E : ... .. . ... ... : ... .. . ... ... : ... .. . ... ... : ... .. . ... : ... .. . ... ... : ... .. . ... ... ... ...
ROW 4F : ... .. . ... ... : ... .. . ... ... : ... .. . ... ... : ... .. . ... : ... .. . ... ... : ... .. . ... ... ... ...
ROW 50 : ... .. . ... ... : ... .. . ... ... : ... .. . ... ... : ... .. . ... : ... .. . ... ... : ... .. . ... ... ... ...
ROW 51 : ... .. . ... ... : ... .. . ... ... : ... .. . ... ... : ... .. . ... : ... .. . ... ... : ... .. . ... ... ... ...
ROW 52 : ... .. . ... ... : ... .. . ... ... : ... .. . ... ... : ... .. . ... : ... .. . ... ... : ... .. . ... ... ... ...
ROW 53 : ... .. . ... ... : ... .. . ... ... : ... .. . ... ... : ... .. . ... : ... .. . ... ... : ... .. . ... ... ... ...
ROW 54 : ... .. . ... ... : ... .. . ... ... : ... .. . ... ... : ... .. . ... : ... .. . ... ... : ... .. . ... ... ... ...
ROW 55 : ... .. . ... ... : ... .. . ... ... : ... .. . ... ... : ... .. . ... : ... .. . ... ... : ... .. . ... ... ... ...
ROW 56 : ... .. . ... ... : ... .. . ... ... : ... .. . ... ... : ... .. . ... : ... .. . ... ... : ... .. . ... ... ... ...
ROW 57 : ... .. . ... ... : ... .. . ... ... : ... .. . ... ... : ... .. . ... : ... .. . ... ... : ... .. . ... ... ... ...
ROW 58 : ... .. . ... ... : ... .. . ... ... : ... .. . ... ... : ... .. . ... : ... .. . ... ... : ... .. . ... ... ... ...
ROW 59 : ... .. . ... ... : ... .. . ... ... : ... .. . ... ... : ... .. . ... : ... .. . ... ... : ... .. . ... ... ... ...
ROW 5A : ... .. . ... ... : ... .. . ... ... : ... .. . ... ... : ... .. . ... : ... .. . ... ... : ... .. . ... ... ... ...
ROW 5B : ... .. . ... ... : ... .. . ... ... : ... .. . ... ... : ... .. . ... : ... .. . ... ... : ... .. . ... ... ... ...
ROW 5C : ... .. . ... ... : ... .. . ... ... : ... .. . ... ... : ... .. . ... : ... .. . ... ... : ... .. . ... ... ... ...
ROW 5D : ... .. . ... ... : ... .. . ... ... : ... .. . ... ... : ... .. . ... : ... .. . ... ... : ... .. . ... ... ... ...
ROW 5E : ... .. . ... ... : ... .. . ... ... : ... .. . ... ... : ... .. . ... : ... .. . ... ... : ... .. . ... ... ... ...
ROW 5F : ... .. . ... ... : ... .. . ... ... : ... .. . ... ... : ... .. . ... : ... .. . ... ... : ... .. . ... ... ... ...
ROW 60 : ... .. . ... ... : ... .. . ... ... : ... .. . ... ... : ... .. . ... : ... .. . ... ... : ... .. . ... ... ... ...
ROW 61 : ... .. . ... ... : ... .. . ... ... : ... .. . ... ... : ... .. . ... : ... .. . ... ... : ... .. . ... ... ... ...
ROW 62 : ... .. . ... ... : ... .. . ... ... : ... .. . ... ... : ... .. . ... : ... .. . ... ... : ... .. . ... ... ... ...
ROW 63 : ... .. . ... ... : ... .. . ... ... : ... .. . ... ... : ... .. . ... : ... .. . ... ... : ... .. . ... ... ... ...
ROW 64 : ... .. . ... ... : ... .. . ... ... : ... .. . ... ... : ... .. . ... : ... .. . ... ... : ... .. . ... ... ... ...
ROW 65 : ... .. . ... ... : ... .. . ... ... : ... .. . ... ... : ... .. . ... : ... .. . ... ... : ... .. . ... ... ... ...
ROW 66 : ... .. . ... ... : ... .. . ... ... : ... .. . ... ... : ... .. . ... : ... .. . ... ... : ... .. . ... ... ... ...
ROW 67 : ... .. . ... ... : ... .. . ... ... : ... .. . ... ... : ... .. . ... : ... .. . ... ... : ... .. . ... ... ... ...
ROW 68 : ... .. . ... ... : ... .. . ... ... : ... .. . ... ... : ... .. . ... : ... .. . ... ... : ... .. . ... ... ... ...
ROW 69 : ... .. . ... ... : ... .. . ... ... : ... .. . ... ... : ... .. . ... : ... .. . ... ... : ... .. . ... ... ... ...
ROW 6A : ... .. . ... ... : ... .. . ... ... : ... .. . ... ... : ... .. . ... : ... .. . ... ... : ... .. . ... ... ... ...
ROW 6B : ... .. . ... ... : ... .. . ... ... : ... .. . ... ... : ... .. . ... : ... .. . ... ... : ... .. . ... ... ... ...
ROW 6C : ... .. . ... ... : ... .. . ... ... : ... .. . ... ... : ... .. . ... : ... .. . ... ... : ... .. . ... ... ... ...
ROW 6D : ... .. . ... ... : ... .. . ... ... : ... .. . ... ... : ... .. . ... : ... .. . ... ... : ... .. . ... ... ... ...
ROW 6E : ... .. . ... ... : ... .. . ... ... : ... .. . ... ... : ... .. . ... : ... .. . ... ... : ... .. . ... ... ... ...
ROW 6F : ... .. . ... ... : ... .. . ... ... : ... .. . ... ... : ... .. . ... : ... .. . ... ... : ... .. . ... ... ... ...
ROW 70 : ... .. . ... ... : ... .. . ... ... : ... .. . ... ... : ... .. . ... : ... .. . ... ... : ... .. . ... ... ... ...
ROW 71 : ... .. . ... ... : ... .. . ... ... : ... .. . ... ... : ... .. . ... : ... .. . ... ... : ... .. . ... ... ... ...
ROW 72 : ... .. . ... ... : ... .. . ... ... : ... .. . ... ... : ... .. . ... : ... .. . ... ... : ... .. . ... ... ... ...
ROW 73 : ... .. . ... ... : ... .. . ... ... : ... .. . ... ... : ... .. . ... : ... .. . ... ... : ... .. . ... ... ... ...
ROW 74 : ... .. . ... ... : ... .. . ... ... : ... .. . ... ... : ... .. . ... : ... .. . ... ... : ... .. . ... ... ... ...
ROW 75 : ... .. . ... ... : ... .. . ... ... : ... .. . ... ... : ... .. . ... : ... .. . ... ... : ... .. . ... ... ... ...
ROW 76 : ... .. . ... ... : ... .. . ... ... : ... .. . ... ... : ... .. . ... : ... .. . ... ... : ... .. . ... ... ... ...
ROW 77 : ... .. . ... ... : ... .. . ... ... : ... .. . ... ... : ... .. . ... : ... .. . ... ... : ... .. . ... ... ... ...
ROW 78 : ... .. . ... ... : ... .. . ... ... : ... .. . ... ... : ... .. . ... : ... .. . ... ... : ... .. . ... ... ... ...
ROW 79 : ... .. . ... ... : ... .. . ... ... : ... .. . ... ... : ... .. . ... : ... .. . ... ... : ... .. . ... ... ... ...
ROW 7A : ... .. . ... ... : ... .. . ... ... : ... .. . ... ... : ... .. . ... : ... .. . ... ... : ... .. . ... ... ... ...
ROW 7B : ... .. . ... ... : ... .. . ... ... : ... .. . ... ... : ... .. . ... : ... .. . ... ... : ... .. . ... ... ... ...
ROW 7C : ... .. . ... ... : ... .. . ... ... : ... .. . ... ... : ... .. . ... : ... .. . ... ... : ... .. . ... ... ... ...
ROW 7D : ... .. . ... ... : ... .. . ... ... : ... .. . ... ... : ... .. . ... : ... .. . ... ... : ... .. . ... ... ... ...
ROW 7E : ... .. . ... ... : ... .. . ... ... : ... .. . ... ... : ... .. . ... : ... .. . ... ... : ... .. . ... ... ... ...
ROW 7F : ... .. . ... ... : ... .. . ... ... : ... .. . ... ... : ... .. . ... : ... .. . ... ... : ... .. . ... ... ... ...
ROW 80 : ... .. . ... ... : ... .. . ... ... : ... .. . ... ... : ... .. . ... : ... .. . ... ... : ... .. . ... ... ... ...
ROW 81 : ... .. . ... ... : ... .. . ... ... : ... .. . ... ... : ... .. . ... : ... .. . ... ... : ... .. . ... ... ... ...
ROW 82 : ... .. . ... ... : ... .. . ... ... : ... .. . ... ... : ... .. . ... : ... .. . ... ... : ... .. . ... ... ... ...
ROW 83 : ... .. . ... ... : ... .. . ... ... : ... .. . ... ... : ... .. . ... : ... .. . ... ... : ... .. . ... ... ... ...
ROW 84 : ... .. . ... ... : ... .. . ... ... : ... .. . ... ... : ... .. . ... : ... .. . ... ... : ... .. . ... ... ... ...
ROW 85 : ... .. . ... ... : ... .. . ... ... : ... .. . ... ... : ... .. . ... : ... .. . ... ... : ... .. . ... ... ... ...
ROW 86 : ... .. . ... ... : ... .. . ... ... : ... .. . ... ... : ... .. . ... : ... .. . ... ... : ... .. . ... ... ... ...
ROW 87 : ... .. . ... ... : ... .. . ... ... : ... .. . ... ... : ... .. . ... : ... .. . ... ... : ... .. . ... ... ... ...
ROW 88 : ... .. . ... ... : ... .. . ... ... : ... .. . ... ... : ... .. . ... : ... .. . ... ... : ... .. . ... ... ... ...
ROW 89 : ... .. . ... ... : ... .. . ... ... : ... .. . ... ... : ... .. . ... : ... .. . ... ... : ... .. . ... ... ... ...
ROW 8A : ... .. . ... ... : ... .. . ... ... : ... .. . ... ... : ... .. . ... : ... .. . ... ... : ... .. . ... ... ... ...
ROW 8B : ... .. . ... ... : ... .. . ... ... : ... .. . ... ... : ... .. . ... : ... .. . ... ... : ... .. . ... ... ... ...
ROW 8C : ... .. . ... ... : ... .. . ... ... : ... .. . ... ... : ... .. . ... : ... .. . ... ... : ... .. . ... ... ... ...
ROW 8D : ... .. . ... ... : ... .. . ... ... : ... .. . ... ... : ... .. . ... : ... .. . ... ... : ... .. . ... ... ... ...
ROW 8E : ... .. . ... ... : ... .. . ... ... : ... .. . ... ... : ... .. . ... : ... .. . ... ... : ... .. . ... ... ... ...
ROW 8F : ... .. . ... ... : ... .. . ... ... : ... .. . ... ... : ... .. . ... : ... .. . ... ... : ... .. . ... ... ... ...
ROW 90 : ... .. . ... ... : ... .. . ... ... : ... .. . ... ... : ... .. . ... : ... .. . ... ... : ... .. . ... ... ... ...
ROW 91 : ... .. . ... ... : ... .. . ... ... : ... .. . ... ... : ... .. . ... : ... .. . ... ... : ... .. . ... ... ... ...
ROW 92 : ... .. . ... ... : ... .. . ... ... : ... .. . ... ... : ... .. . ... : ... .. . ... ... : ... .. . ... ... ... ...
ROW 93 : ... .. . ... ... : ... .. . ... ... : ... .. . ... ... : ... .. . ... : ... .. . ... ... : ... .. . ... ... ... ...
ROW 94 : ... .. . ... ... : ... .. . ... ... : ... .. . ... ... : ... .. . ... : ... .. . ... ... : ... .. . ... ... ... ...
ROW 95 : ... .. . ... ... : ... .. . ... ... : ... .. . ... ... : ... .. . ... : ... .. . ... ... : ... .. . ... ... ... ...
ROW 96 : ... .. . ... ... : ... .. . ... ... : ... .. . ... ... : ... .. . ... : ... .. . ... ... : ... .. . ... ... ... ...
ROW 97 : ... .. . ... ... : ... .. . ... ... : ... .. . ... ... : ... .. . ... : ... .. . ... ... : ... .. . ... ... ... ...
ROW 98 : ... .. . ... ... : ... .. . ... ... : ... .. . ... ... : ... .. . ... : ... .. . ... ... : ... .. . ... ... ... ...
ROW 99 : ... .. . ... ... : ... .. . ... ... : ... .. . ... ... : ... .. . ... : ... .. . ... ... : ... .. . ... ... ... ...
ROW 9A : ... .. . ... ... : ... .. . ... ... : ... .. . ... ... : ... .. . ... : ... .. . ... ... : ... .. . ... ... ... ...
ROW 9B : ... .. . ... ... : ... .. . ... ... : ... .. . ... ... : ... .. . ... : ... .. . ... ... : ... .. . ... ... ... ...
ROW 9C : ... .. . ... ... : ... .. . ... ... : ... .. . ... ... : ... .. . ... : ... .. . ... ... : ... .. . ... ... ... ...
ROW 9D : ... .. . ... ... : ... .. . ... ... : ... .. . ... ... : ... .. . ... : ... .. . ... ... : ... .. . ... ... ... ...
ROW 9E : ... .. . ... ... : ... .. . ... ... : ... .. . ... ... : ... .. . ... : ... .. . ... ... : ... .. . ... ... ... ...
ROW 9F : ... .. . ... ... : ... .. . ... ... : ... .. . ... ... : ... .. . ... : ... .. . ... ... : ... .. . ... ... ... ...
ROW A0 : ... .. . ... ... : ... .. . ... ... : ... .. . ... ... : ... .. . ... : ... .. . ... ... : ... .. . ... ... ... ...
ROW A1 : ... .. . ... ... : ... .. . ... ... : ... .. . ... ... : ... .. . ... : ... .. . ... ... : ... .. . ... ... ... ...
ROW A2 : ... .. . ... ... : ... .. . ... ... : ... .. . ... ... : ... .. . ... : ... .. . ... ... : ... .. . ... ... ... ...
ROW A3 : ... .. . ... ... : ... .. . ... ... : ... .. . ... ... : ... .. . ... : ... .. . ... ... : ... .. . ... ... ... ...
ROW A4 : ... .. . ... ... : ... .. . ... ... : ... .. . ... ... : ... .. . ... : ... .. . ... ... : ... .. . ... ... ... ...
ROW A5 : ... .. . ... ... : ... .. . ... ... : ... .. . ... ... : ... .. . ... : ... .. . ... ... : ... .. . ... ... ... ...
ROW A6 : ... .. . ... ... : ... .. . ... ... : ... .. . ... ... : ... .. . ... : ... .. . ... ... : ... .. . ... ... ... ...
ROW A7 : ... .. . ... ... : ... .. . ... ... : ... .. . ... ... : ... .. . ... : ... .. . ... ... : ... .. . ... ... ... ...
ROW A8 : ... .. . ... ... : ... .. . ... ... : ... .. . ... ... : ... .. . ... : ... .. . ... ... : ... .. . ... ... ... ...
ROW A9 : ... .. . ... ... : ... .. . ... ... : ... .. . ... ... : ... .. . ... : ... .. . ... ... : ... .. . ... ... ... ...
ROW AA : ... .. . ... ... : ... .. . ... ... : ... .. . ... ... : ... .. . ... : ... .. . ... ... : ... .. . ... ... ... ...
ROW AB : ... .. . ... ... : ... .. . ... ... : ... .. . ... ... : ... .. . ... : ... .. . ... ... : ... .. . ... ... ... ...
ROW AC : ... .. . ... ... : ... .. . ... ... : ... .. . ... ... : ... .. . ... : ... .. . ... ... : ... .. . ... ... ... ...
ROW AD : ... .. . ... ... : ... .. . ... ... : ... .. . ... ... : ... .. . ... : ... .. . ... ... : ... .. . ... ... ... ...
ROW AE : ... .. . ... ... : ... .. . ... ... : ... .. . ... ... : ... .. . ... : ... .. . ... ... : ... .. . ... ... ... ...
ROW AF : ... .. . ... ... : ... .. . ... ... : ... .. . ... ... : ... .. . ... : ... .. . ... ... : ... .. . ... ... ... ...
ROW B0 : ... .. . ... ... : ... .. . ... ... : ... .. . ... ... : ... .. . ... : ... .. . ... ... : ... .. . ... ... ... ...
ROW B1 : ... .. . ... ... : ... .. . ... ... : ... .. . ... ... : ... .. . ... : ... .. . ... ... : ... .. . ... ... ... ...
ROW B2 : ... .. . ... ... : ... .. . ... ... : ... .. . ... ... : ... .. . ... : ... .. . ... ... : ... .. . ... ... ... ...
ROW B3 : ... .. . ... ... : ... .. . ... ... : ... .. . ... ... : ... .. . ... : ... .. . ... ... : ... .. . ... ... ... ...
ROW B4 : ... .. . ... ... : ... .. . ... ... : ... .. . ... ... : ... .. . ... : ... .. . ... ... : ... .. . ... ... ... ...
ROW B5 : ... .. . ... ... : ... .. . ... ... : ... .. . ... ... : ... .. . ... : ... .. . ... ... : ... .. . ... ... ... ...
ROW B6 : ... .. . ... ... : ... .. . ... ... : ... .. . ... ... : ... .. . ... : ... .. . ... ... : ... .. . ... ... ... ...
ROW B7 : ... .. . ... ... : ... .. . ... ... : ... .. . ... ... : ... .. . ... : ... .. . ... ... : ... .. . ... ... ... ...
ROW B8 : ... .. . ... ... : ... .. . ... ... : ... .. . ... ... : ... .. . ... : ... .. . ... ... : ... .. . ... ... ... ...
ROW B9 : ... .. . ... ... : ... .. . ... ... : ... .. . ... ... : ... .. . ... : ... .. . ... ... : ... .. . ... ... ... ...
ROW BA : ... .. . ... ... : ... .. . ... ... : ... .. . ... ... : ... .. . ... : ... .. . ... ... : ... .. . ... ... ... ...
ROW BB : ... .. . ... ... : ... .. . ... ... : ... .. . ... ... : ... .. . ... : ... .. . ... ... : ... .. . ... ... ... ...
ROW BC : ... .. . ... ... : ... .. . ... ... : ... .. . ... ... : ... .. . ... : ... .. . ... ... : ... .. . ... ... ... ...
ROW BD : ... .. . ... ... : ... .. . ... ... : ... .. . ... ... : ... .. . ... : ... .. . ... ... : ... .. . ... ... ... ...
ROW BE : ... .. . ... ... : ... .. . ... ... : ... .. . ... ... : ... .. . ... : ... .. . ... ... : ... .. . ... ... ... ...
ROW BF : ... .. . ... ... : ... .. . ... ... : ... .. . ... ... : ... .. . ... : ... .. . ... ... : ... .. . ... ... ... ...
ROW C0 : ... .. . ... ... : ... .. . ... ... : ... .. . ... ... : ... .. . ... : ... .. . ... ... : ... .. . ... ... ... ...
ROW C1 : ... .. . ... ... : ... .. . ... ... : ... .. . ... ... : ... .. . ... : ... .. . ... ... : ... .. . ... ... ... ...
ROW C2 : ... .. . ... ... : ... .. . ... ... : ... .. . ... ... : ... .. . ... : ... .. . ... ... : ... .. . ... ... ... ...
ROW C3 : ... .. . ... ... : ... .. . ... ... : ... .. . ... ... : ... .. . ... : ... .. . ... ... : ... .. . ... ... ... ...
ROW C4 : ... .. . ... ... : ... .. . ... ... : ... .. . ... ... : ... .. . ... : ... .. . ... ... : ... .. . ... ... ... ...
ROW C5 : ... .. . ... ... : ... .. . ... ... : ... .. . ... ... : ... .. . ... : ... .. . ... ... : ... .. . ... ... ... ...
ROW C6 : ... .. . ... ... : ... .. . ... ... : ... .. . ... ... : ... .. . ... : ... .. . ... ... : ... .. . ... ... ... ...
ROW C7 : ... .. . ... ... : ... .. . ... ... : ... .. . ... ... : ... .. . ... : ... .. . ... ... : ... .. . ... ... ... ...
ROW C8 : ... .. . ... ... : ... .. . ... ... : ... .. . ... ... : ... .. . ... : ... .. . ... ... : ... .. . ... ... ... ...
ROW C9 : ... .. . ... ... : ... .. . ... ... : ... .. . ... ... : ... .. . ... : ... .. . ... ... : ... .. . ... ... ... ...
ROW CA : ... .. . ... ... : ... .. . ... ... : ... .. . ... ... : ... .. . ... : ... .. . ... ... : ... .. . ... ... ... ...
ROW CB : ... .. . ... ... : ... .. . ... ... : ... .. . ... ... : ... .. . ... : ... .. . ... ... : ... .. . ... ... ... ...
ROW CC : ... .. . ... ... : ... .. . ... ... : ... .. . ... ... : ... .. . ... : ... .. . ... ... : ... .. . ... ... ... ...
ROW CD : ... .. . ... ... : ... .. . ... ... : ... .. . ... ... : ... .. . ... : ... .. . ... ... : ... .. . ... ... ... ...
ROW CE : ... .. . ... ... : ... .. . ... ... : ... .. . ... ... : ... .. . ... : ... .. . ... ... : ... .. . ... ... ... ...
ROW CF : ... .. . ... ... : ... .. . ... ... : ... .. . ... ... : ... .. . ... : ... .. . ... ... : ... .. . ... ... ... ...
ROW D0 : ... .. . ... ... : ... .. . ... ... : ... .. . ... ... : ... .. . ... : ... .. . ... ... : ... .. . ... ... ... ...
ROW D1 : ... .. . ... ... : ... .. . ... ... : ... .. . ... ... : ... .. . ... : ... .. . ... ... : ... .. . ... ... ... ...
ROW D2 : ... .. . ... ... : ... .. . ... ... : ... .. . ... ... : ... .. . ... : ... .. . ... ... : ... .. . ... ... ... ...
ROW D3 : ... .. . ... ... : ... .. . ... ... : ... .. . ... ... : ... .. . ... : ... .. . ... ... : ... .. . ... ... ... ...
ROW D4 : ... .. . ... ... : ... .. . ... ... : ... .. . ... ... : ... .. . ... : ... .. . ... ... : ... .. . ... ... ... ...
ROW D5 : ... .. . ... ... : ... .. . ... ... : ... .. . ... ... : ... .. . ... : ... .. . ... ... : ... .. . ... ... ... ...
ROW D6 : ... .. . ... ... : ... .. . ... ... : ... .. . ... ... : ... .. . ... : ... .. . ... ... : ... .. . ... ... ... ...
ROW D7 : ... .. . ... ... : ... .. . ... ... : ... .. . ... ... : ... .. . ... : ... .. . ... ... : ... .. . ... ... ... ...
ROW D8 : ... .. . ... ... : ... .. . ... ... : ... .. . ... ... : ... .. . ... : ... .. . ... ... : ... .. . ... ... ... ...
ROW D9 : ... .. . ... ... : ... .. . ... ... : ... .. . ... ... : ... .. . ... : ... .. . ... ... : ... .. . ... ... ... ...
ROW DA : ... .. . ... ... : ... .. . ... ... : ... .. . ... ... : ... .. . ... : ... .. . ... ... : ... .. . ... ... ... ...
ROW DB : ... .. . ... ... : ... .. . ... ... : ... .. . ... ... : ... .. . ... : ... .. . ... ... : ... .. . ... ... ... ...
ROW DC : ... .. . ... ... : ... .. . ... ... : ... .. . ... ... : ... .. . ... : ... .. . ... ... : ... .. . ... ... ... ...
ROW DD : ... .. . ... ... : ... .. . ... ... : ... .. . ... ... : ... .. . ... : ... .. . ... ... : ... .. . ... ... ... ...
ROW DE : ... .. . ... ... : ... .. . ... ... : ... .. . ... ... : ... .. . ... : ... .. . ... ... : ... .. . ... ... ... ...
ROW DF : ... .. . ... ... : ... .. . ... ... : ... .. . ... ... : ... .. . ... : ... .. . ... ... : ... .. . ... ... ... ...
ROW E0 : ... .. . ... ... : ... .. . ... ... : ... .. . ... ... : ... .. . ... : ... .. . ... ... : ... .. . ... ... ... ...
ROW E1 : ... .. . ... ... : ... .. . ... ... : ... .. . ... ... : ... .. . ... : ... .. . ... ... : ... .. . ... ... ... ...
ROW E2 : ... .. . ... ... : ... .. . ... ... : ... .. . ... ... : ... .. . ... : ... .. . ... ... : ... .. . ... ... ... ...
ROW E3 : ... .. . ... ... : ... .. . ... ... : ... .. . ... ... : ... .. . ... : ... .. . ... ... : ... .. . ... ... ... ...
ROW E4 : ... .. . ... ... : ... .. . ... ... : ... .. . ... ... : ... .. . ... : ... .. . ... ... : ... .. . ... ... ... ...
ROW E5 : ... .. . ... ... : ... .. . ... ... : ... .. . ... ... : ... .. . ... : ... .. . ... ... : ... .. . ... ... ... ...
ROW E6 : ... .. . ... ... : ... .. . ... ... : ... .. . ... ... : ... .. . ... : ... .. . ... ... : ... .. . ... ... ... ...
ROW E7 : ... .. . ... ... : ... .. . ... ... : ... .. . ... ... : ... .. . ... : ... .. . ... ... : ... .. . ... ... ... ...
ROW E8 : ... .. . ... ... : ... .. . ... ... : ... .. . ... ... : ... .. . ... : ... .. . ... ... : ... .. . ... ... ... ...
ROW E9 : ... .. . ... ... : ... .. . ... ... : ... .. . ... ... : ... .. . ... : ... .. . ... ... : ... .. . ... ... ... ...
ROW EA : ... .. . ... ... : ... .. . ... ... : ... .. . ... ... : ... .. . ... : ... .. . ... ... : ... .. . ... ... ... ...
ROW EB : ... .. . ... ... : ... .. . ... ... : ... .. . ... ... : ... .. . ... : ... .. . ... ... : ... .. . ... ... ... ...
ROW EC : ... .. . ... ... : ... .. . ... ... : ... .. . ... ... : ... .. . ... : ... .. . ... ... : ... .. . ... ... ... ...
ROW ED : ... .. . ... ... : ... .. . ... ... : ... .. . ... ... : ... .. . ... : ... .. . ... ... : ... .. . ... ... ... ...
ROW EE : ... .. . ... ... : ... .. . ... ... : ... .. . ... ... : ... .. . ... : ... .. . ... ... : ... .. . ... ... ... ...
ROW EF : ... .. . ... ... : ... .. . ... ... : ... .. . ... ... : ... .. . ... : ... .. . ... ... : ... .. . ... ... ... ...
ROW F0 : ... .. . ... ... : ... .. . ... ... : ... .. . ... ... : ... .. . ... : ... .. . ... ... : ... .. . ... ... ... ...
ROW F1 : ... .. . ... ... : ... .. . ... ... : ... .. . ... ... : ... .. . ... : ... .. . ... ... : ... .. . ... ... ... ...
ROW F2 : ... .. . ... ... : ... .. . ... ... : ... .. . ... ... : ... .. . ... : ... .. . ... ... : ... .. . ... ... ... ...
ROW F3 : ... .. . ... ... : ... .. . ... ... : ... .. . ... ... : ... .. . ... : ... .. . ... ... : ... .. . ... ... ... ...
ROW F4 : ... .. . ... ... : ... .. . ... ... : ... .. . ... ... : ... .. . ... : ... .. . ... ... : ... .. . ... ... ... ...
ROW F5 : ... .. . ... ... : ... .. . ... ... : ... .. . ... ... : ... .. . ... : ... .. . ... ... : ... .. . ... ... ... ...
ROW F6 : ... .. . ... ... : ... .. . ... ... : ... .. . ... ... : ... .. . ... : ... .. . ... ... : ... .. . ... ... ... ...
ROW F7 : ... .. . ... ... : ... .. . ... ... : ... .. . ... ... : ... .. . ... : ... .. . ... ... : ... .. . ... ... ... ...
ROW F8 : ... .. . ... ... : ... .. . ... ... : ... .. . ... ... : ... .. . ... : ... .. . ... ... : ... .. . ... ... ... ...
ROW F9 : ... .. . ... ... : ... .. . ... ... : ... .. . ... ... : ... .. . ... : ... .. . ... ... : ... .. . ... ... ... ...
ROW FA : ... .. . ... ... : ... .. . ... ... : ... .. . ... ... : ... .. . ... : ... .. . ... ... : ... .. . ... ... ... ...
ROW FB : ... .. . ... ... : ... .. . ... ... : ... .. . ... ... : ... .. . ... : ... .. . ... ... : ... .. . ... ... ... ...
ROW FC : ... .. . ... ... : ... .. . ... ... : ... .. . ... ... : ... .. . ... : ... .. . ... ... : ... .. . ... ... ... ...
ROW FD : ... .. . ... ... : ... .. . ... ... : ... .. . ... ... : ... .. . ... : ... .. . ... ... : ... .. . ... ... ... ...
ROW FE : ... .. . ... ... : ... .. . ... ... : ... .. . ... ... : ... .. . ... : ... .. . ... ... : ... .. . ... ... ... ...
ROW FF : ... .. . ... ... : ... .. . ... ... : ... .. . ... ... : ... .. . ... : ... .. . ... ... : ... .. . ... ... ... ...

PATTERN 0D
ROW 00 : F-3 0E 5 ... ... : E-3 0F C 400 Q01 : C-4 03 . 226 ... : C-# 03 E A03 : C-4 20 . F07 ... : F-3 00 C I00 J66 P80 ...
ROW 01 : ... .. 4 ... ... : ... .. . ... ... : ... .. . ... ... : ... .. . A04 : ... .. . F04 ... : ... .. . ... ... ... ...
ROW 02 : ... .. 3 ... ... : ... .. . ... ... : ... .. . ... ... : ... .. . A05 : ... .. . F03 ... : ... .. . ... ... ... ...
ROW 03 : ... .. 2 ... ... : ... .. . ... ... : ... .. . ... ... : ... .. . A04 : ... .. . F02 ... : ... .. . ... ... ... ...
ROW 04 : ... .. 1 ... ... : ... .. . ... ... : D#3 11 . 200 ... : D-# 05 6 A00 : C-4 20 . F07 ... : D#4 00 . I00 JB6 ... ...
ROW 05 : ... .. . ... ... : ... .. . ... ... : ... .. . S03 ... : ... .. . ... : ... .. . F04 ... : ... .. . ... ... ... ...
ROW 06 : F-3 0E 5 ... ... : ... .. . 465 ... : F-3 11 . ... ... : D-# 05 . ... : ... .. . F03 ... : F-4 00 . I00 JCD ... ...
ROW 07 : ... .. 4 ... ... : ... .. . ... ... : ... .. . S03 ... : ... .. . ... : ... .. . F02 ... : ... .. . ... ... ... ...
ROW 08 : ... .. 3 ... ... : ... .. . ... ... : F-4 03 . 246 ... : 6-# 08 A ... : C-4 20 . F07 ... : ... .. . ... ... ... ...
ROW 09 : ... .. 2 ... ... : ... .. . ... ... : ... .. . ... ... : ... .. . ... : ... .. . F04 ... : ... .. . ... ... ... ...
ROW 0A : ... .. 1 ... ... : ... .. . ... ... : D#2 11 . 200 ... : D-# 05 6 ... : ... .. . F03 ... : D#3 00 . I00 J5B ... ...
ROW 0B : ... .. . ... ... : ... .. . ... ... : ... .. . S03 ... : ... .. . ... : ... .. . F02 ... : ... .. . ... ... ... ...
ROW 0C : F-3 0E 5 ... ... : ... .. B ... ... : F-2 11 . ... ... : D-# 05 . ... : C-4 20 . F07 ... : F-3 00 . I00 J66 ... ...
ROW 0D : ... .. 4 ... ... : ... .. . ... ... : ... .. . S03 ... : ... .. . ... : ... .. . F04 ... : ... .. . ... ... ... ...
ROW 0E : ... .. 3 ... ... : ... .. A ... ... : ... .. . ... ... : D-# 05 . ... : ... .. . F03 ... : ... .. . ... ... ... ...
ROW 0F : ... .. 2 ... ... : ... .. . ... ... : ... .. . ... ... : ... .. . ... : ... .. . F02 ... : ... .. . ... ... ... ...
ROW 10 : F-3 0E 5 ... ... : ... .. 9 ... ... : C#4 03 . 246 ... : C-# 06 8 ... : C-4 20 . F07 ... : C#3 00 . I00 J51 ... ...
ROW 11 : ... .. 4 ... ... : ... .. . ... ... : ... .. . ... ... : ... .. . ... : ... .. . F04 ... : ... .. . ... ... ... ...
ROW 12 : ... .. 3 ... ... : ... .. 8 ... ... : C#2 11 . 200 ... : D-# 05 6 ... : ... .. . F03 ... : C#3 00 . I00 J51 ... ...
ROW 13 : ... .. 2 ... ... : ... .. . ... ... : ... .. . S03 ... : ... .. . ... : ... .. . F02 ... : ... .. . ... ... ... ...
ROW 14 : F-3 0E 5 ... ... : ... .. 7 ... ... : C#2 11 . ... ... : D-# 05 . ... : C-4 20 . F07 ... : C#3 00 . I00 J51 ... ...
ROW 15 : ... .. 4 ... ... : ... .. . ... ... : ... .. . S03 ... : ... .. . ... : ... .. . F04 ... : ... .. . ... ... ... ...
ROW 16 : ... .. 3 ... ... : ... .. 6 ... ... : ... .. . ... ... : D-# 05 . ... : ... .. . F03 ... : ... .. . ... ... ... ...
ROW 17 : ... .. 2 ... ... : ... .. . ... ... : ... .. . ... ... : ... .. . ... : ... .. . F02 ... : ... .. . ... ... ... ...
ROW 18 : F-3 0E 5 ... ... : D#3 0F C 400 ... : D#4 03 . 246 ... : 6-# 08 A ... : C-4 20 . F07 ... : D#3 00 . I00 J5B ... ...
ROW 19 : ... .. 4 ... ... : ... .. 8 ... ... : ... .. . ... ... : ... .. . ... : ... .. . F04 ... : ... .. . ... ... ... ...
ROW 1A : ... .. 3 ... ... : G#3 0F C G02 ... : D#2 11 . 300 ... : D-# 05 6 ... : ... .. . F03 ... : D#3 00 . I00 J5B ... ...
ROW 1B : ... .. 2 ... ... : ... .. 8 G02 ... : ... .. . S03 ... : ... .. . ... : ... .. . F02 ... : ... .. . ... ... ... ...
ROW 1C : F-3 0E 5 ... ... : D#3 0F 4 G02 ... : D#2 11 . ... ... : 6-# 08 A ... : C-4 20 . F07 ... : D#3 00 . I00 J5B ... ...
ROW 1D : ... .. 4 ... ... : A#3 0F C G01 ... : ... .. . S03 ... : ... .. . ... : ... .. . F04 ... : ... .. . ... ... ... ...
ROW 1E : ... .. 3 ... ... : ... .. 8 G01 ... : ... .. . ... ... : 6-# 08 . ... : ... .. . F03 ... : ... .. . ... ... ... ...
ROW 1F : ... .. 2 ... ... : G#3 0F 4 G01 ... : ... .. . ... ... : ... .. . ... : ... .. . F02 ... : ... .. . ... ... ... ...
ROW 20 : F-3 0E 5 ... ... : B-3 0F C Q01 ... : F-4 03 . 246 ... : C-# 03 E ... : C-4 20 . F07 ... : F-3 00 . I00 J66 ... ...
ROW 21 : ... .. 4 ... ... : ... .. . ... ... : ... .. . ... ... : ... .. B ... : ... .. . F04 ... : ... .. . ... ... ... ...
ROW 22 : ... .. 3 ... ... : ... .. . ... ... : F-2 11 . 200 ... : ... .. A ... : ... .. . F03 ... : F-3 00 . I00 J66 ... ...
ROW 23 : ... .. 2 ... ... : ... .. . ... ... : ... .. . S03 ... : ... .. 9 ... : ... .. . F02 ... : ... .. . ... ... ... ...
ROW 24 : ... .. 1 ... ... : ... .. . 465 ... : F-2 11 . ... ... : ... .. 8 ... : C-4 20 . F07 ... : F-3 00 . I00 J66 ... ...
ROW 25 : ... .. . ... ... : ... .. . ... ... : ... .. . S03 ... : ... .. 7 ... : ... .. . F04 ... : ... .. . ... ... ... ...
ROW 26 : F-3 0E 5 ... ... : ... .. . ... ... : ... .. . ... ... : ... .. 6 ... : ... .. . F03 ... : ... .. . ... ... ... ...
ROW 27 : ... .. 4 ... ... : ... .. . ... ... : ... .. . ... ... : ... .. 5 ... : ... .. . F02 ... : ... .. . ... ... ... ...
ROW 28 : ... .. 3 ... ... : ... .. . ... ... : F-3 03 . 246 ... : ... .. 4 ... : C-4 20 . F07 ... : ... .. . ... ... ... ...
ROW 29 : ... .. 2 ... ... : ... .. . ... ... : ... .. . ... ... : ... .. 3 ... : ... .. . F04 ... : ... .. . ... ... ... ...
ROW 2A : ... .. 1 ... ... : ... .. . ... ... : ... .. . ... ... : ... .. 2 ... : ... .. . F03 ... : ... .. . ... ... ... ...
ROW 2B : ... .. . ... ... : ... .. . ... ... : ... .. . ... ... : ... .. 1 ... : ... .. . F02 ... : ... .. . ... ... ... ...
ROW 2C : F-3 0E 5 ... ... : ... .. B ... ... : F-2 11 . 200 ... : ... .. . ... : C-4 20 . F07 ... : F-3 00 . I00 J66 ... ...
ROW 2D : ... .. 4 ... ... : ... .. A ... ... : ... .. . S03 ... : ... .. . ... : ... .. . F04 ... : ... .. . ... ... ... ...
ROW 2E : ... .. 3 ... ... : ... .. 9 ... ... : F-2 11 . ... ... : ... .. . ... : ... .. . F03 ... : F-3 00 . I00 J66 ... ...
ROW 2F : ... .. 2 ... ... : ... .. 8 ... ... : ... .. . S03 ... : ... .. . ... : ... .. . F02 ... : ... .. . ... ... ... ...
ROW 30 : F-3 0E 5 ... ... : A-3 0F C 400 Q01 : G#3 03 . 246 ... : ... .. . ... : F-3 20 . F07 ... : G#3 00 . I00 J7A ... ...
ROW 31 : ... .. 4 ... ... : ... .. . ... ... : ... .. . ... ... : ... .. . ... : ... .. . F04 ... : ... .. . ... ... ... ...
ROW 32 : ... .. 3 ... ... : ... .. 6 ... ... : ... .. . ... ... : ... .. . ... : ... .. . F03 ... : ... .. . ... ... ... ...
ROW 33 : ... .. 2 ... ... : ... .. 4 ... ... : ... .. . ... ... : ... .. . ... : ... .. . F02 ... : ... .. . ... ... ... ...
ROW 34 : F-3 0E 5 ... ... : G#3 0F C ... ... : A#2 11 . 200 ... : ... .. . ... : F-3 20 . F07 ... : A#3 00 . I00 J89 ... ...
ROW 35 : ... .. 4 ... ... : ... .. . ... ... : ... .. . S03 ... : ... .. . ... : ... .. . F04 ... : ... .. . ... ... ... ...
ROW 36 : ... .. 3 ... ... : A#3 0F 6 ... ... : ... .. . ... ... : ... .. . ... : ... .. . F03 ... : ... .. . ... ... ... ...
ROW 37 : ... .. 2 ... ... : ... .. 4 ... ... : ... .. . ... ... : ... .. . ... : ... .. . F02 ... : ... .. . ... ... ... ...
ROW 38 : F-3 0E 5 ... ... : D#3 0F C ... ... : C-4 03 . 246 ... : ... .. . ... : G-3 1E . F07 ... : C-4 00 . I00 J99 ... ...
ROW 39 : ... .. 4 ... ... : ... .. . ... ... : ... .. . ... ... : ... .. . ... : ... .. . F04 ... : ... .. . ... ... ... ...
ROW 3A : ... .. 3 ... ... : G#3 0F 6 ... ... : ... .. . ... ... : ... .. . ... : ... .. . F03 ... : ... .. . ... ... ... ...
ROW 3B : ... .. 2 ... ... : ... .. 4 ... ... : ... .. . ... ... : ... .. . ... : ... .. . F02 ... : ... .. . ... ... ... ...
ROW 3C : F-3 0E 5 ... ... : G#3 0F C ... ... : G#2 11 . 200 ... : ... .. . ... : G-3 1E . F07 ... : G#3 00 . I00 J7A ... ...
ROW 3D : ... .. 4 ... ... : ... .. . ... ... : ... .. . S03 ... : ... .. . ... : ... .. . F04 ... : ... .. . ... ... ... ...
ROW 3E : ... .. 3 ... ... : D#3 0F 6 ... ... : ... .. . ... ... : ... .. . ... : ... .. . F03 ... : ... .. . ... ... ... ...
ROW 3F : ... .. 2 ... ... : ... .. 4 ... ... : ... .. . ... ... : ... .. . ... : ... .. . F02 D00 : ... .. . ... ... ... ...
ROW 40 : ... .. . ... ... : ... .. . ... ... : ... .. . ... ... : ... .. . ... : ... .. . ... ... : ... .. . ... ... ... ...
ROW 41 : ... .. . ... ... : ... .. . ... ... : ... .. . ... ... : ... .. . ... : ... .. . ... ... : ... .. . ... ... ... ...
ROW 42 : ... .. . ... ... : ... .. . ... ... : ... .. . ... ... : ... .. . ... : ... .. . ... ... : ... .. . ... ... ... ...
ROW 43 : ... .. . ... ... : ... .. . ... ... : ... .. . ... ... : ... .. . ... : ... .. . ... ... : ... .. . ... ... ... ...
ROW 44 : ... .. . ... ... : ... .. . ... ... : ... .. . ... ... : ... .. . ... : ... .. . ... ... : ... .. . ... ... ... ...
ROW 45 : ... .. . ... ... : ... .. . ... ... : ... .. . ... ... : ... .. . ... : ... .. . ... ... : ... .. . ... ... ... ...
ROW 46 : ... .. . ... ... : ... .. . ... ... : ... .. . ... ... : ... .. . ... : ... .. . ... ... : ... .. . ... ... ... ...
ROW 47 : ... .. . ... ... : ... .. . ... ... : ... .. . ... ... : ... .. . ... : ... .. . ... ... : ... .. . ... ... ... ...
ROW 48 : ... .. . ... ... : ... .. . ... ... : ... .. . ... ... : ... .. . ... : ... .. . ... ... : ... .. . ... ... ... ...
ROW 49 : ... .. . ... ... : ... .. . ... ... : ... .. . ... ... : ... .. . ... : ... .. . ... ... : ... .. . ... ... ... ...
ROW 4A : ... .. . ... ... : ... .. . ... ... : ... .. . ... ... : ... .. . ... : ... .. . ... ... : ... .. . ... ... ... ...
ROW 4B : ... .. . ... ... : ... .. . ... ... : ... .. . ... ... : ... .. . ... : ... .. . ... ... : ... .. . ... ... ... ...
ROW 4C : ... .. . ... ... : ... .. . ... ... : ... .. . ... ... : ... .. . ... : ... .. . ... ... : ... .. . ... ... ... ...
ROW 4D : ... .. . ... ... : ... .. . ... ... : ... .. . ... ... : ... .. . ... : ... .. . ... ... : ... .. . ... ... ... ...
ROW 4E : ... .. . ... ... : ... .. . ... ... : ... .. . ... ... : ... .. . ... : ... .. . ... ... : ... .. . ... ... ... ...
ROW 4F : ... .. . ... ... : ... .. . ... ... : ... .. . ... ... : ... .. . ... : ... .. . ... ... : ... .. . ... ... ... ...
ROW 50 : ... .. . ... ... : ... .. . ... ... : ... .. . ... ... : ... .. . ... : ... .. . ... ... : ... .. . ... ... ... ...
ROW 51 : ... .. . ... ... : ... .. . ... ... : ... .. . ... ... : ... .. . ... : ... .. . ... ... : ... .. . ... ... ... ...
ROW 52 : ... .. . ... ... : ... .. . ... ... : ... .. . ... ... : ... .. . ... : ... .. . ... ... : ... .. . ... ... ... ...
ROW 53 : ... .. . ... ... : ... .. . ... ... : ... .. . ... ... : ... .. . ... : ... .. . ... ... : ... .. . ... ... ... ...
ROW 54 : ... .. . ... ... : ... .. . ... ... : ... .. . ... ... : ... .. . ... : ... .. . ... ... : ... .. . ... ... ... ...
ROW 55 : ... .. . ... ... : ... .. . ... ... : ... .. . ... ... : ... .. . ... : ... .. . ... ... : ... .. . ... ... ... ...
ROW 56 : ... .. . ... ... : ... .. . ... ... : ... .. . ... ... : ... .. . ... : ... .. . ... ... : ... .. . ... ... ... ...
ROW 57 : ... .. . ... ... : ... .. . ... ... : ... .. . ... ... : ... .. . ... : ... .. . ... ... : ... .. . ... ... ... ...
ROW 58 : ... .. . ... ... : ... .. . ... ... : ... .. . ... ... : ... .. . ... : ... .. . ... ... : ... .. . ... ... ... ...
ROW 59 : ... .. . ... ... : ... .. . ... ... : ... .. . ... ... : ... .. . ... : ... .. . ... ... : ... .. . ... ... ... ...
ROW 5A : ... .. . ... ... : ... .. . ... ... : ... .. . ... ... : ... .. . ... : ... .. . ... ... : ... .. . ... ... ... ...
ROW 5B : ... .. . ... ... : ... .. . ... ... : ... .. . ... ... : ... .. . ... : ... .. . ... ... : ... .. . ... ... ... ...
ROW 5C : ... .. . ... ... : ... .. . ... ... : ... .. . ... ... : ... .. . ... : ... .. . ... ... : ... .. . ... ... ... ...
ROW 5D : ... .. . ... ... : ... .. . ... ... : ... .. . ... ... : ... .. . ... : ... .. . ... ... : ... .. . ... ... ... ...
ROW 5E : ... .. . ... ... : ... .. . ... ... : ... .. . ... ... : ... .. . ... : ... .. . ... ... : ... .. . ... ... ... ...
ROW 5F : ... .. . ... ... : ... .. . ... ... : ... .. . ... ... : ... .. . ... : ... .. . ... ... : ... .. . ... ... ... ...
ROW 60 : ... .. . ... ... : ... .. . ... ... : ... .. . ... ... : ... .. . ... : ... .. . ... ... : ... .. . ... ... ... ...
ROW 61 : ... .. . ... ... : ... .. . ... ... : ... .. . ... ... : ... .. . ... : ... .. . ... ... : ... .. . ... ... ... ...
ROW 62 : ... .. . ... ... : ... .. . ... ... : ... .. . ... ... : ... .. . ... : ... .. . ... ... : ... .. . ... ... ... ...
ROW 63 : ... .. . ... ... : ... .. . ... ... : ... .. . ... ... : ... .. . ... : ... .. . ... ... : ... .. . ... ... ... ...
ROW 64 : ... .. . ... ... : ... .. . ... ... : ... .. . ... ... : ... .. . ... : ... .. . ... ... : ... .. . ... ... ... ...
ROW 65 : ... .. . ... ... : ... .. . ... ... : ... .. . ... ... : ... .. . ... : ... .. . ... ... : ... .. . ... ... ... ...
ROW 66 : ... .. . ... ... : ... .. . ... ... : ... .. . ... ... : ... .. . ... : ... .. . ... ... : ... .. . ... ... ... ...
ROW 67 : ... .. . ... ... : ... .. . ... ... : ... .. . ... ... : ... .. . ... : ... .. . ... ... : ... .. . ... ... ... ...
ROW 68 : ... .. . ... ... : ... .. . ... ... : ... .. . ... ... : ... .. . ... : ... .. . ... ... : ... .. . ... ... ... ...
ROW 69 : ... .. . ... ... : ... .. . ... ... : ... .. . ... ... : ... .. . ... : ... .. . ... ... : ... .. . ... ... ... ...
ROW 6A : ... .. . ... ... : ... .. . ... ... : ... .. . ... ... : ... .. . ... : ... .. . ... ... : ... .. . ... ... ... ...
ROW 6B : ... .. . ... ... : ... .. . ... ... : ... .. . ... ... : ... .. . ... : ... .. . ... ... : ... .. . ... ... ... ...
ROW 6C : ... .. . ... ... : ... .. . ... ... : ... .. . ... ... : ... .. . ... : ... .. . ... ... : ... .. . ... ... ... ...
ROW 6D : ... .. . ... ... : ... .. . ... ... : ... .. . ... ... : ... .. . ... : ... .. . ... ... : ... .. . ... ... ... ...
ROW 6E : ... .. . ... ... : ... .. . ... ... : ... .. . ... ... : ... .. . ... : ... .. . ... ... : ... .. . ... ... ... ...
ROW 6F : ... .. . ... ... : ... .. . ... ... : ... .. . ... ... : ... .. . ... : ... .. . ... ... : ... .. . ... ... ... ...
ROW 70 : ... .. . ... ... : ... .. . ... ... : ... .. . ... ... : ... .. . ... : ... .. . ... ... : ... .. . ... ... ... ...
ROW 71 : ... .. . ... ... : ... .. . ... ... : ... .. . ... ... : ... .. . ... : ... .. . ... ... : ... .. . ... ... ... ...
ROW 72 : ... .. . ... ... : ... .. . ... ... : ... .. . ... ... : ... .. . ... : ... .. . ... ... : ... .. . ... ... ... ...
ROW 73 : ... .. . ... ... : ... .. . ... ... : ... .. . ... ... : ... .. . ... : ... .. . ... ... : ... .. . ... ... ... ...
ROW 74 : ... .. . ... ... : ... .. . ... ... : ... .. . ... ... : ... .. . ... : ... .. . ... ... : ... .. . ... ... ... ...
ROW 75 : ... .. . ... ... : ... .. . ... ... : ... .. . ... ... : ... .. . ... : ... .. . ... ... : ... .. . ... ... ... ...
ROW 76 : ... .. . ... ... : ... .. . ... ... : ... .. . ... ... : ... .. . ... : ... .. . ... ... : ... .. . ... ... ... ...
ROW 77 : ... .. . ... ... : ... .. . ... ... : ... .. . ... ... : ... .. . ... : ... .. . ... ... : ... .. . ... ... ... ...
ROW 78 : ... .. . ... ... : ... .. . ... ... : ... .. . ... ... : ... .. . ... : ... .. . ... ... : ... .. . ... ... ... ...
ROW 79 : ... .. . ... ... : ... .. . ... ... : ... .. . ... ... : ... .. . ... : ... .. . ... ... : ... .. . ... ... ... ...
ROW 7A : ... .. . ... ... : ... .. . ... ... : ... .. . ... ... : ... .. . ... : ... .. . ... ... : ... .. . ... ... ... ...
ROW 7B : ... .. . ... ... : ... .. . ... ... : ... .. . ... ... : ... .. . ... : ... .. . ... ... : ... .. . ... ... ... ...
ROW 7C : ... .. . ... ... : ... .. . ... ... : ... .. . ... ... : ... .. . ... : ... .. . ... ... : ... .. . ... ... ... ...
ROW 7D : ... .. . ... ... : ... .. . ... ... : ... .. . ... ... : ... .. . ... : ... .. . ... ... : ... .. . ... ... ... ...
ROW 7E : ... .. . ... ... : ... .. . ... ... : ... .. . ... ... : ... .. . ... : ... .. . ... ... : ... .. . ... ... ... ...
ROW 7F : ... .. . ... ... : ... .. . ... ... : ... .. . ... ... : ... .. . ... : ... .. . ... ... : ... .. . ... ... ... ...
ROW 80 : ... .. . ... ... : ... .. . ... ... : ... .. . ... ... : ... .. . ... : ... .. . ... ... : ... .. . ... ... ... ...
ROW 81 : ... .. . ... ... : ... .. . ... ... : ... .. . ... ... : ... .. . ... : ... .. . ... ... : ... .. . ... ... ... ...
ROW 82 : ... .. . ... ... : ... .. . ... ... : ... .. . ... ... : ... .. . ... : ... .. . ... ... : ... .. . ... ... ... ...
ROW 83 : ... .. . ... ... : ... .. . ... ... : ... .. . ... ... : ... .. . ... : ... .. . ... ... : ... .. . ... ... ... ...
ROW 84 : ... .. . ... ... : ... .. . ... ... : ... .. . ... ... : ... .. . ... : ... .. . ... ... : ... .. . ... ... ... ...
ROW 85 : ... .. . ... ... : ... .. . ... ... : ... .. . ... ... : ... .. . ... : ... .. . ... ... : ... .. . ... ... ... ...
ROW 86 : ... .. . ... ... : ... .. . ... ... : ... .. . ... ... : ... .. . ... : ... .. . ... ... : ... .. . ... ... ... ...
ROW 87 : ... .. . ... ... : ... .. . ... ... : ... .. . ... ... : ... .. . ... : ... .. . ... ... : ... .. . ... ... ... ...
ROW 88 : ... .. . ... ... : ... .. . ... ... : ... .. . ... ... : ... .. . ... : ... .. . ... ... : ... .. . ... ... ... ...
ROW 89 : ... .. . ... ... : ... .. . ... ... : ... .. . ... ... : ... .. . ... : ... .. . ... ... : ... .. . ... ... ... ...
ROW 8A : ... .. . ... ... : ... .. . ... ... : ... .. . ... ... : ... .. . ... : ... .. . ... ... : ... .. . ... ... ... ...
ROW 8B : ... .. . ... ... : ... .. . ... ... : ... .. . ... ... : ... .. . ... : ... .. . ... ... : ... .. . ... ... ... ...
ROW 8C : ... .. . ... ... : ... .. . ... ... : ... .. . ... ... : ... .. . ... : ... .. . ... ... : ... .. . ... ... ... ...
ROW 8D : ... .. . ... ... : ... .. . ... ... : ... .. . ... ... : ... .. . ... : ... .. . ... ... : ... .. . ... ... ... ...
ROW 8E : ... .. . ... ... : ... .. . ... ... : ... .. . ... ... : ... .. . ... : ... .. . ... ... : ... .. . ... ... ... ...
ROW 8F : ... .. . ... ... : ... .. . ... ... : ... .. . ... ... : ... .. . ... : ... .. . ... ... : ... .. . ... ... ... ...
ROW 90 : ... .. . ... ... : ... .. . ... ... : ... .. . ... ... : ... .. . ... : ... .. . ... ... : ... .. . ... ... ... ...
ROW 91 : ... .. . ... ... : ... .. . ... ... : ... .. . ... ... : ... .. . ... : ... .. . ... ... : ... .. . ... ... ... ...
ROW 92 : ... .. . ... ... : ... .. . ... ... : ... .. . ... ... : ... .. . ... : ... .. . ... ... : ... .. . ... ... ... ...
ROW 93 : ... .. . ... ... : ... .. . ... ... : ... .. . ... ... : ... .. . ... : ... .. . ... ... : ... .. . ... ... ... ...
ROW 94 : ... .. . ... ... : ... .. . ... ... : ... .. . ... ... : ... .. . ... : ... .. . ... ... : ... .. . ... ... ... ...
ROW 95 : ... .. . ... ... : ... .. . ... ... : ... .. . ... ... : ... .. . ... : ... .. . ... ... : ... .. . ... ... ... ...
ROW 96 : ... .. . ... ... : ... .. . ... ... : ... .. . ... ... : ... .. . ... : ... .. . ... ... : ... .. . ... ... ... ...
ROW 97 : ... .. . ... ... : ... .. . ... ... : ... .. . ... ... : ... .. . ... : ... .. . ... ... : ... .. . ... ... ... ...
ROW 98 : ... .. . ... ... : ... .. . ... ... : ... .. . ... ... : ... .. . ... : ... .. . ... ... : ... .. . ... ... ... ...
ROW 99 : ... .. . ... ... : ... .. . ... ... : ... .. . ... ... : ... .. . ... : ... .. . ... ... : ... .. . ... ... ... ...
ROW 9A : ... .. . ... ... : ... .. . ... ... : ... .. . ... ... : ... .. . ... : ... .. . ... ... : ... .. . ... ... ... ...
ROW 9B : ... .. . ... ... : ... .. . ... ... : ... .. . ... ... : ... .. . ... : ... .. . ... ... : ... .. . ... ... ... ...
ROW 9C : ... .. . ... ... : ... .. . ... ... : ... .. . ... ... : ... .. . ... : ... .. . ... ... : ... .. . ... ... ... ...
ROW 9D : ... .. . ... ... : ... .. . ... ... : ... .. . ... ... : ... .. . ... : ... .. . ... ... : ... .. . ... ... ... ...
ROW 9E : ... .. . ... ... : ... .. . ... ... : ... .. . ... ... : ... .. . ... : ... .. . ... ... : ... .. . ... ... ... ...
ROW 9F : ... .. . ... ... : ... .. . ... ... : ... .. . ... ... : ... .. . ... : ... .. . ... ... : ... .. . ... ... ... ...
ROW A0 : ... .. . ... ... : ... .. . ... ... : ... .. . ... ... : ... .. . ... : ... .. . ... ... : ... .. . ... ... ... ...
ROW A1 : ... .. . ... ... : ... .. . ... ... : ... .. . ... ... : ... .. . ... : ... .. . ... ... : ... .. . ... ... ... ...
ROW A2 : ... .. . ... ... : ... .. . ... ... : ... .. . ... ... : ... .. . ... : ... .. . ... ... : ... .. . ... ... ... ...
ROW A3 : ... .. . ... ... : ... .. . ... ... : ... .. . ... ... : ... .. . ... : ... .. . ... ... : ... .. . ... ... ... ...
ROW A4 : ... .. . ... ... : ... .. . ... ... : ... .. . ... ... : ... .. . ... : ... .. . ... ... : ... .. . ... ... ... ...
ROW A5 : ... .. . ... ... : ... .. . ... ... : ... .. . ... ... : ... .. . ... : ... .. . ... ... : ... .. . ... ... ... ...
ROW A6 : ... .. . ... ... : ... .. . ... ... : ... .. . ... ... : ... .. . ... : ... .. . ... ... : ... .. . ... ... ... ...
ROW A7 : ... .. . ... ... : ... .. . ... ... : ... .. . ... ... : ... .. . ... : ... .. . ... ... : ... .. . ... ... ... ...
ROW A8 : ... .. . ... ... : ... .. . ... ... : ... .. . ... ... : ... .. . ... : ... .. . ... ... : ... .. . ... ... ... ...
ROW A9 : ... .. . ... ... : ... .. . ... ... : ... .. . ... ... : ... .. . ... : ... .. . ... ... : ... .. . ... ... ... ...
ROW AA : ... .. . ... ... : ... .. . ... ... : ... .. . ... ... : ... .. . ... : ... .. . ... ... : ... .. . ... ... ... ...
ROW AB : ... .. . ... ... : ... .. . ... ... : ... .. . ... ... : ... .. . ... : ... .. . ... ... : ... .. . ... ... ... ...
ROW AC : ... .. . ... ... : ... .. . ... ... : ... .. . ... ... : ... .. . ... : ... .. . ... ... : ... .. . ... ... ... ...
ROW AD : ... .. . ... ... : ... .. . ... ... : ... .. . ... ... : ... .. . ... : ... .. . ... ... : ... .. . ... ... ... ...
ROW AE : ... .. . ... ... : ... .. . ... ... : ... .. . ... ... : ... .. . ... : ... .. . ... ... : ... .. . ... ... ... ...
ROW AF : ... .. . ... ... : ... .. . ... ... : ... .. . ... ... : ... .. . ... : ... .. . ... ... : ... .. . ... ... ... ...
ROW B0 : ... .. . ... ... : ... .. . ... ... : ... .. . ... ... : ... .. . ... : ... .. . ... ... : ... .. . ... ... ... ...
ROW B1 : ... .. . ... ... : ... .. . ... ... : ... .. . ... ... : ... .. . ... : ... .. . ... ... : ... .. . ... ... ... ...
ROW B2 : ... .. . ... ... : ... .. . ... ... : ... .. . ... ... : ... .. . ... : ... .. . ... ... : ... .. . ... ... ... ...
ROW B3 : ... .. . ... ... : ... .. . ... ... : ... .. . ... ... : ... .. . ... : ... .. . ... ... : ... .. . ... ... ... ...
ROW B4 : ... .. . ... ... : ... .. . ... ... : ... .. . ... ... : ... .. . ... : ... .. . ... ... : ... .. . ... ... ... ...
ROW B5 : ... .. . ... ... : ... .. . ... ... : ... .. . ... ... : ... .. . ... : ... .. . ... ... : ... .. . ... ... ... ...
ROW B6 : ... .. . ... ... : ... .. . ... ... : ... .. . ... ... : ... .. . ... : ... .. . ... ... : ... .. . ... ... ... ...
ROW B7 : ... .. . ... ... : ... .. . ... ... : ... .. . ... ... : ... .. . ... : ... .. . ... ... : ... .. . ... ... ... ...
ROW B8 : ... .. . ... ... : ... .. . ... ... : ... .. . ... ... : ... .. . ... : ... .. . ... ... : ... .. . ... ... ... ...
ROW B9 : ... .. . ... ... : ... .. . ... ... : ... .. . ... ... : ... .. . ... : ... .. . ... ... : ... .. . ... ... ... ...
ROW BA : ... .. . ... ... : ... .. . ... ... : ... .. . ... ... : ... .. . ... : ... .. . ... ... : ... .. . ... ... ... ...
ROW BB : ... .. . ... ... : ... .. . ... ... : ... .. . ... ... : ... .. . ... : ... .. . ... ... : ... .. . ... ... ... ...
ROW BC : ... .. . ... ... : ... .. . ... ... : ... .. . ... ... : ... .. . ... : ... .. . ... ... : ... .. . ... ... ... ...
ROW BD : ... .. . ... ... : ... .. . ... ... : ... .. . ... ... : ... .. . ... : ... .. . ... ... : ... .. . ... ... ... ...
ROW BE : ... .. . ... ... : ... .. . ... ... : ... .. . ... ... : ... .. . ... : ... .. . ... ... : ... .. . ... ... ... ...
ROW BF : ... .. . ... ... : ... .. . ... ... : ... .. . ... ... : ... .. . ... : ... .. . ... ... : ... .. . ... ... ... ...
ROW C0 : ... .. . ... ... : ... .. . ... ... : ... .. . ... ... : ... .. . ... : ... .. . ... ... : ... .. . ... ... ... ...
ROW C1 : ... .. . ... ... : ... .. . ... ... : ... .. . ... ... : ... .. . ... : ... .. . ... ... : ... .. . ... ... ... ...
ROW C2 : ... .. . ... ... : ... .. . ... ... : ... .. . ... ... : ... .. . ... : ... .. . ... ... : ... .. . ... ... ... ...
ROW C3 : ... .. . ... ... : ... .. . ... ... : ... .. . ... ... : ... .. . ... : ... .. . ... ... : ... .. . ... ... ... ...
ROW C4 : ... .. . ... ... : ... .. . ... ... : ... .. . ... ... : ... .. . ... : ... .. . ... ... : ... .. . ... ... ... ...
ROW C5 : ... .. . ... ... : ... .. . ... ... : ... .. . ... ... : ... .. . ... : ... .. . ... ... : ... .. . ... ... ... ...
ROW C6 : ... .. . ... ... : ... .. . ... ... : ... .. . ... ... : ... .. . ... : ... .. . ... ... : ... .. . ... ... ... ...
ROW C7 : ... .. . ... ... : ... .. . ... ... : ... .. . ... ... : ... .. . ... : ... .. . ... ... : ... .. . ... ... ... ...
ROW C8 : ... .. . ... ... : ... .. . ... ... : ... .. . ... ... : ... .. . ... : ... .. . ... ... : ... .. . ... ... ... ...
ROW C9 : ... .. . ... ... : ... .. . ... ... : ... .. . ... ... : ... .. . ... : ... .. . ... ... : ... .. . ... ... ... ...
ROW CA : ... .. . ... ... : ... .. . ... ... : ... .. . ... ... : ... .. . ... : ... .. . ... ... : ... .. . ... ... ... ...
ROW CB : ... .. . ... ... : ... .. . ... ... : ... .. . ... ... : ... .. . ... : ... .. . ... ... : ... .. . ... ... ... ...
ROW CC : ... .. . ... ... : ... .. . ... ... : ... .. . ... ... : ... .. . ... : ... .. . ... ... : ... .. . ... ... ... ...
ROW CD : ... .. . ... ... : ... .. . ... ... : ... .. . ... ... : ... .. . ... : ... .. . ... ... : ... .. . ... ... ... ...
ROW CE : ... .. . ... ... : ... .. . ... ... : ... .. . ... ... : ... .. . ... : ... .. . ... ... : ... .. . ... ... ... ...
ROW CF : ... .. . ... ... : ... .. . ... ... : ... .. . ... ... : ... .. . ... : ... .. . ... ... : ... .. . ... ... ... ...
ROW D0 : ... .. . ... ... : ... .. . ... ... : ... .. . ... ... : ... .. . ... : ... .. . ... ... : ... .. . ... ... ... ...
ROW D1 : ... .. . ... ... : ... .. . ... ... : ... .. . ... ... : ... .. . ... : ... .. . ... ... : ... .. . ... ... ... ...
ROW D2 : ... .. . ... ... : ... .. . ... ... : ... .. . ... ... : ... .. . ... : ... .. . ... ... : ... .. . ... ... ... ...
ROW D3 : ... .. . ... ... : ... .. . ... ... : ... .. . ... ... : ... .. . ... : ... .. . ... ... : ... .. . ... ... ... ...
ROW D4 : ... .. . ... ... : ... .. . ... ... : ... .. . ... ... : ... .. . ... : ... .. . ... ... : ... .. . ... ... ... ...
ROW D5 : ... .. . ... ... : ... .. . ... ... : ... .. . ... ... : ... .. . ... : ... .. . ... ... : ... .. . ... ... ... ...
ROW D6 : ... .. . ... ... : ... .. . ... ... : ... .. . ... ... : ... .. . ... : ... .. . ... ... : ... .. . ... ... ... ...
ROW D7 : ... .. . ... ... : ... .. . ... ... : ... .. . ... ... : ... .. . ... : ... .. . ... ... : ... .. . ... ... ... ...
ROW D8 : ... .. . ... ... : ... .. . ... ... : ... .. . ... ... : ... .. . ... : ... .. . ... ... : ... .. . ... ... ... ...
ROW D9 : ... .. . ... ... : ... .. . ... ... : ... .. . ... ... : ... .. . ... : ... .. . ... ... : ... .. . ... ... ... ...
ROW DA : ... .. . ... ... : ... .. . ... ... : ... .. . ... ... : ... .. . ... : ... .. . ... ... : ... .. . ... ... ... ...
ROW DB : ... .. . ... ... : ... .. . ... ... : ... .. . ... ... : ... .. . ... : ... .. . ... ... : ... .. . ... ... ... ...
ROW DC : ... .. . ... ... : ... .. . ... ... : ... .. . ... ... : ... .. . ... : ... .. . ... ... : ... .. . ... ... ... ...
ROW DD : ... .. . ... ... : ... .. . ... ... : ... .. . ... ... : ... .. . ... : ... .. . ... ... : ... .. . ... ... ... ...
ROW DE : ... .. . ... ... : ... .. . ... ... : ... .. . ... ... : ... .. . ... : ... .. . ... ... : ... .. . ... ... ... ...
ROW DF : ... .. . ... ... : ... .. . ... ... : ... .. . ... ... : ... .. . ... : ... .. . ... ... : ... .. . ... ... ... ...
ROW E0 : ... .. . ... ... : ... .. . ... ... : ... .. . ... ... : ... .. . ... : ... .. . ... ... : ... .. . ... ... ... ...
ROW E1 : ... .. . ... ... : ... .. . ... ... : ... .. . ... ... : ... .. . ... : ... .. . ... ... : ... .. . ... ... ... ...
ROW E2 : ... .. . ... ... : ... .. . ... ... : ... .. . ... ... : ... .. . ... : ... .. . ... ... : ... .. . ... ... ... ...
ROW E3 : ... .. . ... ... : ... .. . ... ... : ... .. . ... ... : ... .. . ... : ... .. . ... ... : ... .. . ... ... ... ...
ROW E4 : ... .. . ... ... : ... .. . ... ... : ... .. . ... ... : ... .. . ... : ... .. . ... ... : ... .. . ... ... ... ...
ROW E5 : ... .. . ... ... : ... .. . ... ... : ... .. . ... ... : ... .. . ... : ... .. . ... ... : ... .. . ... ... ... ...
ROW E6 : ... .. . ... ... : ... .. . ... ... : ... .. . ... ... : ... .. . ... : ... .. . ... ... : ... .. . ... ... ... ...
ROW E7 : ... .. . ... ... : ... .. . ... ... : ... .. . ... ... : ... .. . ... : ... .. . ... ... : ... .. . ... ... ... ...
ROW E8 : ... .. . ... ... : ... .. . ... ... : ... .. . ... ... : ... .. . ... : ... .. . ... ... : ... .. . ... ... ... ...
ROW E9 : ... .. . ... ... : ... .. . ... ... : ... .. . ... ... : ... .. . ... : ... .. . ... ... : ... .. . ... ... ... ...
ROW EA : ... .. . ... ... : ... .. . ... ... : ... .. . ... ... : ... .. . ... : ... .. . ... ... : ... .. . ... ... ... ...
ROW EB : ... .. . ... ... : ... .. . ... ... : ... .. . ... ... : ... .. . ... : ... .. . ... ... : ... .. . ... ... ... ...
ROW EC : ... .. . ... ... : ... .. . ... ... : ... .. . ... ... : ... .. . ... : ... .. . ... ... : ... .. . ... ... ... ...
ROW ED : ... .. . ... ... : ... .. . ... ... : ... .. . ... ... : ... .. . ... : ... .. . ... ... : ... .. . ... ... ... ...
ROW EE : ... .. . ... ... : ... .. . ... ... : ... .. . ... ... : ... .. . ... : ... .. . ... ... : ... .. . ... ... ... ...
ROW EF : ... .. . ... ... : ... .. . ... ... : ... .. . ... ... : ... .. . ... : ... .. . ... ... : ... .. . ... ... ... ...
ROW F0 : ... .. . ... ... : ... .. . ... ... : ... .. . ... ... : ... .. . ... : ... .. . ... ... : ... .. . ... ... ... ...
ROW F1 : ... .. . ... ... : ... .. . ... ... : ... .. . ... ... : ... .. . ... : ... .. . ... ... : ... .. . ... ... ... ...
ROW F2 : ... .. . ... ... : ... .. . ... ... : ... .. . ... ... : ... .. . ... : ... .. . ... ... : ... .. . ... ... ... ...
ROW F3 : ... .. . ... ... : ... .. . ... ... : ... .. . ... ... : ... .. . ... : ... .. . ... ... : ... .. . ... ... ... ...
ROW F4 : ... .. . ... ... : ... .. . ... ... : ... .. . ... ... : ... .. . ... : ... .. . ... ... : ... .. . ... ... ... ...
ROW F5 : ... .. . ... ... : ... .. . ... ... : ... .. . ... ... : ... .. . ... : ... .. . ... ... : ... .. . ... ... ... ...
ROW F6 : ... .. . ... ... : ... .. . ... ... : ... .. . ... ... : ... .. . ... : ... .. . ... ... : ... .. . ... ... ... ...
ROW F7 : ... .. . ... ... : ... .. . ... ... : ... .. . ... ... : ... .. . ... : ... .. . ... ... : ... .. . ... ... ... ...
ROW F8 : ... .. . ... ... : ... .. . ... ... : ... .. . ... ... : ... .. . ... : ... .. . ... ... : ... .. . ... ... ... ...
ROW F9 : ... .. . ... ... : ... .. . ... ... : ... .. . ... ... : ... .. . ... : ... .. . ... ... : ... .. . ... ... ... ...
ROW FA : ... .. . ... ... : ... .. . ... ... : ... .. . ... ... : ... .. . ... : ... .. . ... ... : ... .. . ... ... ... ...
ROW FB : ... .. . ... ... : ... .. . ... ... : ... .. . ... ... : ... .. . ... : ... .. . ... ... : ... .. . ... ... ... ...
ROW FC : ... .. . ... ... : ... .. . ... ... : ... .. . ... ... : ... .. . ... : ... .. . ... ... : ... .. . ... ... ... ...
ROW FD : ... .. . ... ... : ... .. . ... ... : ... .. . ... ... : ... .. . ... : ... .. . ... ... : ... .. . ... ... ... ...
ROW FE : ... .. . ... ... : ... .. . ... ... : ... .. . ... ... : ... .. . ... : ... .. . ... ... : ... .. . ... ... ... ...
ROW FF : ... .. . ... ... : ... .. . ... ... : ... .. . ... ... : ... .. . ... : ... .. . ... ... : ... .. . ... ... ... ...

PATTERN 0E
ROW 00 : C-4 0E 5 ... ... : E-3 0F C 400 Q01 : F-2 11 . 200 ... : ... .. . ... : G#3 1F . F07 ... : F-3 00 C I00 J66 ... ...
ROW 01 : ... .. 4 ... ... : ... .. . ... ... : ... .. . S03 ... : ... .. . ... : ... .. . F04 ... : ... .. . ... ... ... ...
ROW 02 : ... .. 3 ... ... : ... .. . ... ... : ... .. . ... ... : ... .. . ... : ... .. . F03 ... : ... .. . ... ... ... ...
ROW 03 : ... .. 2 ... ... : ... .. . ... ... : ... .. . ... ... : ... .. . ... : ... .. . F02 ... : ... .. . ... ... ... ...
ROW 04 : ... .. 1 ... ... : ... .. . ... ... : D#3 11 . 200 ... : ... .. . ... : G#3 1F . F07 ... : D#4 00 . I00 JB6 ... ...
ROW 05 : ... .. . ... ... : ... .. . ... ... : ... .. . S03 ... : ... .. . ... : ... .. . F04 ... : ... .. . ... ... ... ...
ROW 06 : C-4 0E 5 ... ... : ... .. . 465 ... : F-3 11 . ... ... : ... .. . ... : ... .. . F03 ... : F-4 00 . I00 JCD ... ...
ROW 07 : ... .. 4 ... ... : ... .. . ... ... : ... .. . S03 ... : ... .. . ... : ... .. . F02 ... : ... .. . ... ... ... ...
ROW 08 : ... .. 3 ... ... : ... .. . ... ... : F-4 03 . 246 ... : A-# 03 1 ... : G#3 1F . F07 ... : ... .. . ... ... ... ...
ROW 09 : ... .. 2 ... ... : ... .. . ... ... : ... .. . ... ... : ... .. . ... : ... .. . F04 ... : ... .. . ... ... ... ...
ROW 0A : ... .. 1 ... ... : ... .. . ... ... : D#2 11 . 200 ... : ... .. 2 ... : ... .. . F03 ... : D#3 00 . I00 J5B ... ...
ROW 0B : ... .. . ... ... : ... .. . ... ... : ... .. . S03 ... : ... .. . ... : ... .. . F02 ... : ... .. . ... ... ... ...
ROW 0C : C-4 0E 5 ... ... : ... .. B ... ... : F-2 11 . ... ... : ... .. 3 ... : G#3 1F . F07 ... : F-3 00 . I00 J66 ... ...
ROW 0D : ... .. 4 ... ... : ... .. . ... ... : ... .. . S03 ... : ... .. . ... : ... .. . F04 ... : ... .. . ... ... ... ...
ROW 0E : ... .. 3 ... ... : ... .. A ... ... : ... .. . ... ... : ... .. 4 ... : ... .. . F03 ... : ... .. . ... ... ... ...
ROW 0F : ... .. 2 ... ... : ... .. . ... ... : ... .. . ... ... : ... .. . ... : ... .. . F02 ... : ... .. . ... ... ... ...
ROW 10 : C-4 0E 5 ... ... : ... .. 9 ... ... : C#4 03 . 246 ... : ... .. 5 ... : G#3 1F . F07 ... : C#3 00 . I00 J51 ... ...
ROW 11 : ... .. 4 ... ... : ... .. . ... ... : ... .. . ... ... : ... .. . ... : ... .. . F04 ... : ... .. . ... ... ... ...
ROW 12 : ... .. 3 ... ... : ... .. 8 ... ... : C#2 11 . 200 ... : ... .. 6 ... : ... .. . F03 ... : C#3 00 . I00 J51 ... ...
ROW 13 : ... .. 2 ... ... : ... .. . ... ... : ... .. . S03 ... : ... .. . ... : ... .. . F02 ... : ... .. . ... ... ... ...
ROW 14 : C-4 0E 5 ... ... : ... .. 7 ... ... : C#2 11 . ... ... : ... .. 7 ... : G#3 1F . F07 ... : C#3 00 . I00 J51 ... ...
ROW 15 : ... .. 4 ... ... : ... .. . ... ... : ... .. . S03 ... : ... .. . ... : ... .. . F04 ... : ... .. . ... ... ... ...
ROW 16 : ... .. 3 ... ... : ... .. 6 ... ... : ... .. . ... ... : ... .. 6 ... : ... .. . F03 ... : ... .. . ... ... ... ...
ROW 17 : ... .. 2 ... ... : ... .. . ... ... : ... .. . ... ... : ... .. . ... : ... .. . F02 ... : ... .. . ... ... ... ...
ROW 18 : C-4 0E 5 ... ... : ... .. 5 ... ... : D#4 03 . 246 ... : ... .. 5 ... : G#3 1F . F07 ... : D#3 00 . I00 J5B ... ...
ROW 19 : ... .. 4 ... ... : ... .. . ... ... : ... .. . ... ... : ... .. . ... : ... .. . F04 ... : ... .. . ... ... ... ...
ROW 1A : ... .. 3 ... ... : ... .. 4 ... ... : D#2 11 . 200 ... : ... .. 4 ... : ... .. . F03 ... : D#3 00 . I00 J5B ... ...
ROW 1B : ... .. 2 ... ... : ... .. . ... ... : ... .. . S03 ... : ... .. . ... : ... .. . F02 ... : ... .. . ... ... ... ...
ROW 1C : C-4 0E 5 ... ... : ... .. 3 ... ... : D#2 11 . ... ... : ... .. 3 ... : G#3 1F . F07 ... : D#3 00 . I00 J5B ... ...
ROW 1D : ... .. 4 ... ... : ... .. . ... ... : ... .. . S03 ... : ... .. . ... : ... .. . F04 ... : ... .. . ... ... ... ...
ROW 1E : ... .. 3 ... ... : ... .. 2 ... ... : ... .. . ... ... : ... .. 2 ... : ... .. . F03 ... : ... .. . ... ... ... ...
ROW 1F : ... .. 2 ... ... : ... .. . ... ... : ... .. . ... ... : ... .. . ... : ... .. . F02 ... : ... .. . ... ... ... ...
ROW 20 : C-4 0E 5 ... ... : ... .. 1 ... ... : F-4 03 . 246 ... : ... .. 1 ... : G#3 1F . F07 ... : F-3 00 . I00 J66 ... ...
ROW 21 : ... .. 4 ... ... : ... .. . ... ... : ... .. . ... ... : ... .. . ... : ... .. . F04 ... : ... .. . ... ... ... ...
ROW 22 : ... .. 3 ... ... : --- .. . ... ... : F-2 11 . 200 ... : ... .. . ... : ... .. . F03 ... : F-3 00 . I00 J66 ... ...
ROW 23 : ... .. 2 ... ... : ... .. . ... ... : ... .. . S03 ... : ... .. . ... : ... .. . F02 ... : ... .. . ... ... ... ...
ROW 24 : ... .. 1 ... ... : ... .. . ... ... : F-2 11 . ... ... : ... .. . ... : G#3 1F . F07 ... : F-3 00 . I00 J66 ... ...
ROW 25 : ... .. . ... ... : ... .. . ... ... : ... .. . S03 ... : ... .. . ... : ... .. . F04 ... : ... .. . ... ... ... ...
ROW 26 : C-4 0E 5 ... ... : ... .. . ... ... : ... .. . ... ... : ... .. . ... : ... .. . F03 ... : ... .. . ... ... ... ...
ROW 27 : ... .. 4 ... ... : ... .. . ... ... : ... .. . ... ... : ... .. . ... : ... .. . F02 ... : ... .. . ... ... ... ...
ROW 28 : ... .. 3 ... ... : ... .. . ... ... : F-4 03 . 246 ... : ... .. . ... : G#3 1F . F07 ... : ... .. . ... ... ... ...
ROW 29 : ... .. 2 ... ... : ... .. . ... ... : ... .. . ... ... : ... .. . ... : ... .. . F04 ... : ... .. . ... ... ... ...
ROW 2A : ... .. 1 ... ... : ... .. . ... ... : ... .. . ... ... : ... .. . ... : ... .. . F03 ... : ... .. . ... ... ... ...
ROW 2B : ... .. . ... ... : ... .. . ... ... : ... .. . ... ... : ... .. . ... : ... .. . F02 ... : ... .. . ... ... ... ...
ROW 2C : C-4 0E 5 ... ... : ... .. . ... ... : F-2 11 . 200 ... : ... .. . ... : G#3 1F . F07 ... : F-3 00 . I00 J66 ... ...
ROW 2D : ... .. 4 ... ... : ... .. . ... ... : ... .. . S03 ... : ... .. . ... : ... .. . F04 ... : ... .. . ... ... ... ...
ROW 2E : ... .. 3 ... ... : ... .. . ... ... : F-2 11 . ... ... : ... .. . ... : ... .. . F03 ... : F-3 00 . I00 J66 ... ...
ROW 2F : ... .. 2 ... ... : ... .. . ... ... : ... .. . S03 ... : ... .. . ... : ... .. . F02 ... : ... .. . ... ... ... ...
ROW 30 : F-3 10 5 ... ... : ... .. . ... ... : G#3 03 . 246 ... : ... .. . ... : G#3 1F . F07 ... : G#3 00 . I00 J7A ... ...
ROW 31 : ... .. 4 ... ... : ... .. . ... ... : ... .. . ... ... : ... .. . ... : ... .. . F04 ... : ... .. . ... ... ... ...
ROW 32 : ... .. 3 ... ... : ... .. . ... ... : G#3 11 . 200 ... : ... .. . ... : ... .. . F03 ... : G#4 00 . I00 JF3 ... ...
ROW 33 : ... .. 2 ... ... : ... .. . ... ... : ... .. . S03 ... : ... .. . ... : ... .. . F02 ... : ... .. . ... ... ... ...
ROW 34 : F-3 10 5 ... ... : ... .. . ... ... : ... .. . ... ... : ... .. . ... : G#3 1F . F07 ... : ... .. . ... ... ... ...
ROW 35 : ... .. 4 ... ... : ... .. . ... ... : ... .. . ... ... : ... .. . ... : ... .. . F04 ... : ... .. . ... ... ... ...
ROW 36 : ... .. 3 ... ... : ... .. . ... ... : A#2 11 . ... ... : ... .. . ... : ... .. . F03 ... : A#3 00 . I00 J89 ... ...
ROW 37 : ... .. 2 ... ... : ... .. . ... ... : ... .. . S03 ... : ... .. . ... : ... .. . F02 ... : ... .. . ... ... ... ...
ROW 38 : G-3 10 5 ... ... : C-3 0F C 400 ... : A#4 03 . 246 ... : A-# 03 1 ... : G#3 1F . F07 ... : A#4 00 . I01 J11 ... ...
ROW 39 : ... .. 4 ... ... : ... .. . ... ... : ... .. . ... ... : ... .. . ... : ... .. . F04 ... : ... .. . ... ... ... ...
ROW 3A : ... .. 3 ... ... : ... .. 6 ... ... : ... .. . ... ... : ... .. 2 ... : ... .. . F03 ... : ... .. . ... ... ... ...
ROW 3B : ... .. 2 ... ... : ... .. 4 ... ... : ... .. . ... ... : ... .. . ... : ... .. . F02 ... : ... .. . ... ... ... ...
ROW 3C : G-3 10 5 ... ... : D#3 0F C ... ... : G#3 11 . 200 ... : ... .. 3 ... : G#3 1F . F07 ... : G#4 00 . I00 JF3 ... ...
ROW 3D : ... .. 4 ... ... : ... .. . ... ... : ... .. . ... ... : ... .. . ... : ... .. . F04 ... : ... .. . ... ... ... ...
ROW 3E : ... .. 3 ... ... : C-3 0F 8 ... ... : G-3 11 . ... ... : ... .. 4 ... : ... .. . F03 ... : G-4 00 . I00 JE6 ... ...
ROW 3F : ... .. 2 ... ... : ... .. 6 ... ... : ... .. . ... ... : ... .. . ... : ... .. . F02 D00 : ... .. . ... ... ... ...
ROW 40 : ... .. . ... ... : ... .. . ... ... : ... .. . ... ... : ... .. 5 ... : ... .. . ... ... : ... .. . ... ... ... ...
ROW 41 : ... .. . ... ... : ... .. . ... ... : ... .. . ... ... : ... .. . ... : ... .. . ... ... : ... .. . ... ... ... ...
ROW 42 : ... .. . ... ... : ... .. . ... ... : ... .. . ... ... : ... .. 6 ... : ... .. . ... ... : ... .. . ... ... ... ...
ROW 43 : ... .. . ... ... : ... .. . ... ... : ... .. . ... ... : ... .. . ... : ... .. . ... ... : ... .. . ... ... ... ...
ROW 44 : ... .. . ... ... : ... .. . ... ... : ... .. . ... ... : ... .. 7 ... : ... .. . ... ... : ... .. . ... ... ... ...
ROW 45 : ... .. . ... ... : ... .. . ... ... : ... .. . ... ... : ... .. . ... : ... .. . ... ... : ... .. . ... ... ... ...
ROW 46 : ... .. . ... ... : ... .. . ... ... : ... .. . ... ... : ... .. 6 ... : ... .. . ... ... : ... .. . ... ... ... ...
ROW 47 : ... .. . ... ... : ... .. . ... ... : ... .. . ... ... : ... .. . ... : ... .. . ... ... : ... .. . ... ... ... ...
ROW 48 : ... .. . ... ... : ... .. . ... ... : ... .. . ... ... : ... .. 5 ... : ... .. . ... ... : ... .. . ... ... ... ...
ROW 49 : ... .. . ... ... : ... .. . ... ... : ... .. . ... ... : ... .. . ... : ... .. . ... ... : ... .. . ... ... ... ...
ROW 4A : ... .. . ... ... : ... .. . ... ... : ... .. . ... ... : ... .. 4 ... : ... .. . ... ... : ... .. . ... ... ... ...
ROW 4B : ... .. . ... ... : ... .. . ... ... : ... .. . ... ... : ... .. . ... : ... .. . ... ... : ... .. . ... ... ... ...
ROW 4C : ... .. . ... ... : ... .. . ... ... : ... .. . ... ... : ... .. 3 ... : ... .. . ... ... : ... .. . ... ... ... ...
ROW 4D : ... .. . ... ... : ... .. . ... ... : ... .. . ... ... : ... .. . ... : ... .. . ... ... : ... .. . ... ... ... ...
ROW 4E : ... .. . ... ... : ... .. . ... ... : ... .. . ... ... : ... .. 2 ... : ... .. . ... ... : ... .. . ... ... ... ...
ROW 4F : ... .. . ... ... : ... .. . ... ... : ... .. . ... ... : ... .. . ... : ... .. . ... ... : ... .. . ... ... ... ...
ROW 50 : ... .. . ... ... : ... .. . ... ... : ... .. . ... ... : 6-# 08 8 ... : ... .. . ... ... : ... .. . ... ... ... ...
ROW 51 : ... .. . ... ... : ... .. . ... ... : ... .. . ... ... : ... .. . ... : ... .. . ... ... : ... .. . ... ... ... ...
ROW 52 : ... .. . ... ... : ... .. . ... ... : ... .. . ... ... : ... .. . ... : ... .. . ... ... : ... .. . ... ... ... ...
ROW 53 : ... .. . ... ... : ... .. . ... ... : ... .. . ... ... : ... .. . ... : ... .. . ... ... : ... .. . ... ... ... ...
ROW 54 : ... .. . ... ... : ... .. . ... ... : ... .. . ... ... : 6-# 08 8 ... : ... .. . ... ... : ... .. . ... ... ... ...
ROW 55 : ... .. . ... ... : ... .. . ... ... : ... .. . ... ... : ... .. . ... : ... .. . ... ... : ... .. . ... ... ... ...
ROW 56 : ... .. . ... ... : ... .. . ... ... : ... .. . ... ... : 6-# 08 8 ... : ... .. . ... ... : ... .. . ... ... ... ...
ROW 57 : ... .. . ... ... : ... .. . ... ... : ... .. . ... ... : ... .. . D00 : ... .. . ... ... : ... .. . ... ... ... ...
ROW 58 : ... .. . ... ... : ... .. . ... ... : ... .. . ... ... : ... .. . ... : ... .. . ... ... : ... .. . ... ... ... ...
ROW 59 : ... .. . ... ... : ... .. . ... ... : ... .. . ... ... : ... .. . ... : ... .. . ... ... : ... .. . ... ... ... ...
ROW 5A : ... .. . ... ... : ... .. . ... ... : ... .. . ... ... : ... .. . ... : ... .. . ... ... : ... .. . ... ... ... ...
ROW 5B : ... .. . ... ... : ... .. . ... ... : ... .. . ... ... : ... .. . ... : ... .. . ... ... : ... .. . ... ... ... ...
ROW 5C : ... .. . ... ... : ... .. . ... ... : ... .. . ... ... : ... .. . ... : ... .. . ... ... : ... .. . ... ... ... ...
ROW 5D : ... .. . ... ... : ... .. . ... ... : ... .. . ... ... : ... .. . ... : ... .. . ... ... : ... .. . ... ... ... ...
ROW 5E : ... .. . ... ... : ... .. . ... ... : ... .. . ... ... : ... .. . ... : ... .. . ... ... : ... .. . ... ... ... ...
ROW 5F : ... .. . ... ... : ... .. . ... ... : ... .. . ... ... : ... .. . ... : ... .. . ... ... : ... .. . ... ... ... ...
ROW 60 : ... .. . ... ... : ... .. . ... ... : ... .. . ... ... : ... .. . ... : ... .. . ... ... : ... .. . ... ... ... ...
ROW 61 : ... .. . ... ... : ... .. . ... ... : ... .. . ... ... : ... .. . ... : ... .. . ... ... : ... .. . ... ... ... ...
ROW 62 : ... .. . ... ... : ... .. . ... ... : ... .. . ... ... : ... .. . ... : ... .. . ... ... : ... .. . ... ... ... ...
ROW 63 : ... .. . ... ... : ... .. . ... ... : ... .. . ... ... : ... .. . ... : ... .. . ... ... : ... .. . ... ... ... ...
ROW 64 : ... .. . ... ... : ... .. . ... ... : ... .. . ... ... : ... .. . ... : ... .. . ... ... : ... .. . ... ... ... ...
ROW 65 : ... .. . ... ... : ... .. . ... ... : ... .. . ... ... : ... .. . ... : ... .. . ... ... : ... .. . ... ... ... ...
ROW 66 : ... .. . ... ... : ... .. . ... ... : ... .. . ... ... : ... .. . ... : ... .. . ... ... : ... .. . ... ... ... ...
ROW 67 : ... .. . ... ... : ... .. . ... ... : ... .. . ... ... : ... .. . ... : ... .. . ... ... : ... .. . ... ... ... ...
ROW 68 : ... .. . ... ... : ... .. . ... ... : ... .. . ... ... : ... .. . ... : ... .. . ... ... : ... .. . ... ... ... ...
ROW 69 : ... .. . ... ... : ... .. . ... ... : ... .. . ... ... : ... .. . ... : ... .. . ... ... : ... .. . ... ... ... ...
ROW 6A : ... .. . ... ... : ... .. . ... ... : ... .. . ... ... : ... .. . ... : ... .. . ... ... : ... .. . ... ... ... ...
ROW 6B : ... .. . ... ... : ... .. . ... ... : ... .. . ... ... : ... .. . ... : ... .. . ... ... : ... .. . ... ... ... ...
ROW 6C : ... .. . ... ... : ... .. . ... ... : ... .. . ... ... : ... .. . ... : ... .. . ... ... : ... .. . ... ... ... ...
ROW 6D : ... .. . ... ... : ... .. . ... ... : ... .. . ... ... : ... .. . ... : ... .. . ... ... : ... .. . ... ... ... ...
ROW 6E : ... .. . ... ... : ... .. . ... ... : ... .. . ... ... : ... .. . ... : ... .. . ... ... : ... .. . ... ... ... ...
ROW 6F : ... .. . ... ... : ... .. . ... ... : ... .. . ... ... : ... .. . ... : ... .. . ... ... : ... .. . ... ... ... ...
ROW 70 : ... .. . ... ... : ... .. . ... ... : ... .. . ... ... : ... .. . ... : ... .. . ... ... : ... .. . ... ... ... ...
ROW 71 : ... .. . ... ... : ... .. . ... ... : ... .. . ... ... : ... .. . ... : ... .. . ... ... : ... .. . ... ... ... ...
ROW 72 : ... .. . ... ... : ... .. . ... ... : ... .. . ... ... : ... .. . ... : ... .. . ... ... : ... .. . ... ... ... ...
ROW 73 : ... .. . ... ... : ... .. . ... ... : ... .. . ... ... : ... .. . ... : ... .. . ... ... : ... .. . ... ... ... ...
ROW 74 : ... .. . ... ... : ... .. . ... ... : ... .. . ... ... : ... .. . ... : ... .. . ... ... : ... .. . ... ... ... ...
ROW 75 : ... .. . ... ... : ... .. . ... ... : ... .. . ... ... : ... .. . ... : ... .. . ... ... : ... .. . ... ... ... ...
ROW 76 : ... .. . ... ... : ... .. . ... ... : ... .. . ... ... : ... .. . ... : ... .. . ... ... : ... .. . ... ... ... ...
ROW 77 : ... .. . ... ... : ... .. . ... ... : ... .. . ... ... : ... .. . ... : ... .. . ... ... : ... .. . ... ... ... ...
ROW 78 : ... .. . ... ... : ... .. . ... ... : ... .. . ... ... : ... .. . ... : ... .. . ... ... : ... .. . ... ... ... ...
ROW 79 : ... .. . ... ... : ... .. . ... ... : ... .. . ... ... : ... .. . ... : ... .. . ... ... : ... .. . ... ... ... ...
ROW 7A : ... .. . ... ... : ... .. . ... ... : ... .. . ... ... : ... .. . ... : ... .. . ... ... : ... .. . ... ... ... ...
ROW 7B : ... .. . ... ... : ... .. . ... ... : ... .. . ... ... : ... .. . ... : ... .. . ... ... : ... .. . ... ... ... ...
ROW 7C : ... .. . ... ... : ... .. . ... ... : ... .. . ... ... : ... .. . ... : ... .. . ... ... : ... .. . ... ... ... ...
ROW 7D : ... .. . ... ... : ... .. . ... ... : ... .. . ... ... : ... .. . ... : ... .. . ... ... : ... .. . ... ... ... ...
ROW 7E : ... .. . ... ... : ... .. . ... ... : ... .. . ... ... : ... .. . ... : ... .. . ... ... : ... .. . ... ... ... ...
ROW 7F : ... .. . ... ... : ... .. . ... ... : ... .. . ... ... : ... .. . ... : ... .. . ... ... : ... .. . ... ... ... ...
ROW 80 : ... .. . ... ... : ... .. . ... ... : ... .. . ... ... : ... .. . ... : ... .. . ... ... : ... .. . ... ... ... ...
ROW 81 : ... .. . ... ... : ... .. . ... ... : ... .. . ... ... : ... .. . ... : ... .. . ... ... : ... .. . ... ... ... ...
ROW 82 : ... .. . ... ... : ... .. . ... ... : ... .. . ... ... : ... .. . ... : ... .. . ... ... : ... .. . ... ... ... ...
ROW 83 : ... .. . ... ... : ... .. . ... ... : ... .. . ... ... : ... .. . ... : ... .. . ... ... : ... .. . ... ... ... ...
ROW 84 : ... .. . ... ... : ... .. . ... ... : ... .. . ... ... : ... .. . ... : ... .. . ... ... : ... .. . ... ... ... ...
ROW 85 : ... .. . ... ... : ... .. . ... ... : ... .. . ... ... : ... .. . ... : ... .. . ... ... : ... .. . ... ... ... ...
ROW 86 : ... .. . ... ... : ... .. . ... ... : ... .. . ... ... : ... .. . ... : ... .. . ... ... : ... .. . ... ... ... ...
ROW 87 : ... .. . ... ... : ... .. . ... ... : ... .. . ... ... : ... .. . ... : ... .. . ... ... : ... .. . ... ... ... ...
ROW 88 : ... .. . ... ... : ... .. . ... ... : ... .. . ... ... : ... .. . ... : ... .. . ... ... : ... .. . ... ... ... ...
ROW 89 : ... .. . ... ... : ... .. . ... ... : ... .. . ... ... : ... .. . ... : ... .. . ... ... : ... .. . ... ... ... ...
ROW 8A : ... .. . ... ... : ... .. . ... ... : ... .. . ... ... : ... .. . ... : ... .. . ... ... : ... .. . ... ... ... ...
ROW 8B : ... .. . ... ... : ... .. . ... ... : ... .. . ... ... : ... .. . ... : ... .. . ... ... : ... .. . ... ... ... ...
ROW 8C : ... .. . ... ... : ... .. . ... ... : ... .. . ... ... : ... .. . ... : ... .. . ... ... : ... .. . ... ... ... ...
ROW 8D : ... .. . ... ... : ... .. . ... ... : ... .. . ... ... : ... .. . ... : ... .. . ... ... : ... .. . ... ... ... ...
ROW 8E : ... .. . ... ... : ... .. . ... ... : ... .. . ... ... : ... .. . ... : ... .. . ... ... : ... .. . ... ... ... ...
ROW 8F : ... .. . ... ... : ... .. . ... ... : ... .. . ... ... : ... .. . ... : ... .. . ... ... : ... .. . ... ... ... ...
ROW 90 : ... .. . ... ... : ... .. . ... ... : ... .. . ... ... : ... .. . ... : ... .. . ... ... : ... .. . ... ... ... ...
ROW 91 : ... .. . ... ... : ... .. . ... ... : ... .. . ... ... : ... .. . ... : ... .. . ... ... : ... .. . ... ... ... ...
ROW 92 : ... .. . ... ... : ... .. . ... ... : ... .. . ... ... : ... .. . ... : ... .. . ... ... : ... .. . ... ... ... ...
ROW 93 : ... .. . ... ... : ... .. . ... ... : ... .. . ... ... : ... .. . ... : ... .. . ... ... : ... .. . ... ... ... ...
ROW 94 : ... .. . ... ... : ... .. . ... ... : ... .. . ... ... : ... .. . ... : ... .. . ... ... : ... .. . ... ... ... ...
ROW 95 : ... .. . ... ... : ... .. . ... ... : ... .. . ... ... : ... .. . ... : ... .. . ... ... : ... .. . ... ... ... ...
ROW 96 : ... .. . ... ... : ... .. . ... ... : ... .. . ... ... : ... .. . ... : ... .. . ... ... : ... .. . ... ... ... ...
ROW 97 : ... .. . ... ... : ... .. . ... ... : ... .. . ... ... : ... .. . ... : ... .. . ... ... : ... .. . ... ... ... ...
ROW 98 : ... .. . ... ... : ... .. . ... ... : ... .. . ... ... : ... .. . ... : ... .. . ... ... : ... .. . ... ... ... ...
ROW 99 : ... .. . ... ... : ... .. . ... ... : ... .. . ... ... : ... .. . ... : ... .. . ... ... : ... .. . ... ... ... ...
ROW 9A : ... .. . ... ... : ... .. . ... ... : ... .. . ... ... : ... .. . ... : ... .. . ... ... : ... .. . ... ... ... ...
ROW 9B : ... .. . ... ... : ... .. . ... ... : ... .. . ... ... : ... .. . ... : ... .. . ... ... : ... .. . ... ... ... ...
ROW 9C : ... .. . ... ... : ... .. . ... ... : ... .. . ... ... : ... .. . ... : ... .. . ... ... : ... .. . ... ... ... ...
ROW 9D : ... .. . ... ... : ... .. . ... ... : ... .. . ... ... : ... .. . ... : ... .. . ... ... : ... .. . ... ... ... ...
ROW 9E : ... .. . ... ... : ... .. . ... ... : ... .. . ... ... : ... .. . ... : ... .. . ... ... : ... .. . ... ... ... ...
ROW 9F : ... .. . ... ... : ... .. . ... ... : ... .. . ... ... : ... .. . ... : ... .. . ... ... : ... .. . ... ... ... ...
ROW A0 : ... .. . ... ... : ... .. . ... ... : ... .. . ... ... : ... .. . ... : ... .. . ... ... : ... .. . ... ... ... ...
ROW A1 : ... .. . ... ... : ... .. . ... ... : ... .. . ... ... : ... .. . ... : ... .. . ... ... : ... .. . ... ... ... ...
ROW A2 : ... .. . ... ... : ... .. . ... ... : ... .. . ... ... : ... .. . ... : ... .. . ... ... : ... .. . ... ... ... ...
ROW A3 : ... .. . ... ... : ... .. . ... ... : ... .. . ... ... : ... .. . ... : ... .. . ... ... : ... .. . ... ... ... ...
ROW A4 : ... .. . ... ... : ... .. . ... ... : ... .. . ... ... : ... .. . ... : ... .. . ... ... : ... .. . ... ... ... ...
ROW A5 : ... .. . ... ... : ... .. . ... ... : ... .. . ... ... : ... .. . ... : ... .. . ... ... : ... .. . ... ... ... ...
ROW A6 : ... .. . ... ... : ... .. . ... ... : ... .. . ... ... : ... .. . ... : ... .. . ... ... : ... .. . ... ... ... ...
ROW A7 : ... .. . ... ... : ... .. . ... ... : ... .. . ... ... : ... .. . ... : ... .. . ... ... : ... .. . ... ... ... ...
ROW A8 : ... .. . ... ... : ... .. . ... ... : ... .. . ... ... : ... .. . ... : ... .. . ... ... : ... .. . ... ... ... ...
ROW A9 : ... .. . ... ... : ... .. . ... ... : ... .. . ... ... : ... .. . ... : ... .. . ... ... : ... .. . ... ... ... ...
ROW AA : ... .. . ... ... : ... .. . ... ... : ... .. . ... ... : ... .. . ... : ... .. . ... ... : ... .. . ... ... ... ...
ROW AB : ... .. . ... ... : ... .. . ... ... : ... .. . ... ... : ... .. . ... : ... .. . ... ... : ... .. . ... ... ... ...
ROW AC : ... .. . ... ... : ... .. . ... ... : ... .. . ... ... : ... .. . ... : ... .. . ... ... : ... .. . ... ... ... ...
ROW AD : ... .. . ... ... : ... .. . ... ... : ... .. . ... ... : ... .. . ... : ... .. . ... ... : ... .. . ... ... ... ...
ROW AE : ... .. . ... ... : ... .. . ... ... : ... .. . ... ... : ... .. . ... : ... .. . ... ... : ... .. . ... ... ... ...
ROW AF : ... .. . ... ... : ... .. . ... ... : ... .. . ... ... : ... .. . ... : ... .. . ... ... : ... .. . ... ... ... ...
ROW B0 : ... .. . ... ... : ... .. . ... ... : ... .. . ... ... : ... .. . ... : ... .. . ... ... : ... .. . ... ... ... ...
ROW B1 : ... .. . ... ... : ... .. . ... ... : ... .. . ... ... : ... .. . ... : ... .. . ... ... : ... .. . ... ... ... ...
ROW B2 : ... .. . ... ... : ... .. . ... ... : ... .. . ... ... : ... .. . ... : ... .. . ... ... : ... .. . ... ... ... ...
ROW B3 : ... .. . ... ... : ... .. . ... ... : ... .. . ... ... : ... .. . ... : ... .. . ... ... : ... .. . ... ... ... ...
ROW B4 : ... .. . ... ... : ... .. . ... ... : ... .. . ... ... : ... .. . ... : ... .. . ... ... : ... .. . ... ... ... ...
ROW B5 : ... .. . ... ... : ... .. . ... ... : ... .. . ... ... : ... .. . ... : ... .. . ... ... : ... .. . ... ... ... ...
ROW B6 : ... .. . ... ... : ... .. . ... ... : ... .. . ... ... : ... .. . ... : ... .. . ... ... : ... .. . ... ... ... ...
ROW B7 : ... .. . ... ... : ... .. . ... ... : ... .. . ... ... : ... .. . ... : ... .. . ... ... : ... .. . ... ... ... ...
ROW B8 : ... .. . ... ... : ... .. . ... ... : ... .. . ... ... : ... .. . ... : ... .. . ... ... : ... .. . ... ... ... ...
ROW B9 : ... .. . ... ... : ... .. . ... ... : ... .. . ... ... : ... .. . ... : ... .. . ... ... : ... .. . ... ... ... ...
ROW BA : ... .. . ... ... : ... .. . ... ... : ... .. . ... ... : ... .. . ... : ... .. . ... ... : ... .. . ... ... ... ...
ROW BB : ... .. . ... ... : ... .. . ... ... : ... .. . ... ... : ... .. . ... : ... .. . ... ... : ... .. . ... ... ... ...
ROW BC : ... .. . ... ... : ... .. . ... ... : ... .. . ... ... : ... .. . ... : ... .. . ... ... : ... .. . ... ... ... ...
ROW BD : ... .. . ... ... : ... .. . ... ... : ... .. . ... ... : ... .. . ... : ... .. . ... ... : ... .. . ... ... ... ...
ROW BE : ... .. . ... ... : ... .. . ... ... : ... .. . ... ... : ... .. . ... : ... .. . ... ... : ... .. . ... ... ... ...
ROW BF : ... .. . ... ... : ... .. . ... ... : ... .. . ... ... : ... .. . ... : ... .. . ... ... : ... .. . ... ... ... ...
ROW C0 : ... .. . ... ... : ... .. . ... ... : ... .. . ... ... : ... .. . ... : ... .. . ... ... : ... .. . ... ... ... ...
ROW C1 : ... .. . ... ... : ... .. . ... ... : ... .. . ... ... : ... .. . ... : ... .. . ... ... : ... .. . ... ... ... ...
ROW C2 : ... .. . ... ... : ... .. . ... ... : ... .. . ... ... : ... .. . ... : ... .. . ... ... : ... .. . ... ... ... ...
ROW C3 : ... .. . ... ... : ... .. . ... ... : ... .. . ... ... : ... .. . ... : ... .. . ... ... : ... .. . ... ... ... ...
ROW C4 : ... .. . ... ... : ... .. . ... ... : ... .. . ... ... : ... .. . ... : ... .. . ... ... : ... .. . ... ... ... ...
ROW C5 : ... .. . ... ... : ... .. . ... ... : ... .. . ... ... : ... .. . ... : ... .. . ... ... : ... .. . ... ... ... ...
ROW C6 : ... .. . ... ... : ... .. . ... ... : ... .. . ... ... : ... .. . ... : ... .. . ... ... : ... .. . ... ... ... ...
ROW C7 : ... .. . ... ... : ... .. . ... ... : ... .. . ... ... : ... .. . ... : ... .. . ... ... : ... .. . ... ... ... ...
ROW C8 : ... .. . ... ... : ... .. . ... ... : ... .. . ... ... : ... .. . ... : ... .. . ... ... : ... .. . ... ... ... ...
ROW C9 : ... .. . ... ... : ... .. . ... ... : ... .. . ... ... : ... .. . ... : ... .. . ... ... : ... .. . ... ... ... ...
ROW CA : ... .. . ... ... : ... .. . ... ... : ... .. . ... ... : ... .. . ... : ... .. . ... ... : ... .. . ... ... ... ...
ROW CB : ... .. . ... ... : ... .. . ... ... : ... .. . ... ... : ... .. . ... : ... .. . ... ... : ... .. . ... ... ... ...
ROW CC : ... .. . ... ... : ... .. . ... ... : ... .. . ... ... : ... .. . ... : ... .. . ... ... : ... .. . ... ... ... ...
ROW CD : ... .. . ... ... : ... .. . ... ... : ... .. . ... ... : ... .. . ... : ... .. . ... ... : ... .. . ... ... ... ...
ROW CE : ... .. . ... ... : ... .. . ... ... : ... .. . ... ... : ... .. . ... : ... .. . ... ... : ... .. . ... ... ... ...
ROW CF : ... .. . ... ... : ... .. . ... ... : ... .. . ... ... : ... .. . ... : ... .. . ... ... : ... .. . ... ... ... ...
ROW D0 : ... .. . ... ... : ... .. . ... ... : ... .. . ... ... : ... .. . ... : ... .. . ... ... : ... .. . ... ... ... ...
ROW D1 : ... .. . ... ... : ... .. . ... ... : ... .. . ... ... : ... .. . ... : ... .. . ... ... : ... .. . ... ... ... ...
ROW D2 : ... .. . ... ... : ... .. . ... ... : ... .. . ... ... : ... .. . ... : ... .. . ... ... : ... .. . ... ... ... ...
ROW D3 : ... .. . ... ... : ... .. . ... ... : ... .. . ... ... : ... .. . ... : ... .. . ... ... : ... .. . ... ... ... ...
ROW D4 : ... .. . ... ... : ... .. . ... ... : ... .. . ... ... : ... .. . ... : ... .. . ... ... : ... .. . ... ... ... ...
ROW D5 : ... .. . ... ... : ... .. . ... ... : ... .. . ... ... : ... .. . ... : ... .. . ... ... : ... .. . ... ... ... ...
ROW D6 : ... .. . ... ... : ... .. . ... ... : ... .. . ... ... : ... .. . ... : ... .. . ... ... : ... .. . ... ... ... ...
ROW D7 : ... .. . ... ... : ... .. . ... ... : ... .. . ... ... : ... .. . ... : ... .. . ... ... : ... .. . ... ... ... ...
ROW D8 : ... .. . ... ... : ... .. . ... ... : ... .. . ... ... : ... .. . ... : ... .. . ... ... : ... .. . ... ... ... ...
ROW D9 : ... .. . ... ... : ... .. . ... ... : ... .. . ... ... : ... .. . ... : ... .. . ... ... : ... .. . ... ... ... ...
ROW DA : ... .. . ... ... : ... .. . ... ... : ... .. . ... ... : ... .. . ... : ... .. . ... ... : ... .. . ... ... ... ...
ROW DB : ... .. . ... ... : ... .. . ... ... : ... .. . ... ... : ... .. . ... : ... .. . ... ... : ... .. . ... ... ... ...
ROW DC : ... .. . ... ... : ... .. . ... ... : ... .. . ... ... : ... .. . ... : ... .. . ... ... : ... .. . ... ... ... ...
ROW DD : ... .. . ... ... : ... .. . ... ... : ... .. . ... ... : ... .. . ... : ... .. . ... ... : ... .. . ... ... ... ...
ROW DE : ... .. . ... ... : ... .. . ... ... : ... .. . ... ... : ... .. . ... : ... .. . ... ... : ... .. . ... ... ... ...
ROW DF : ... .. . ... ... : ... .. . ... ... : ... .. . ... ... : ... .. . ... : ... .. . ... ... : ... .. . ... ... ... ...
ROW E0 : ... .. . ... ... : ... .. . ... ... : ... .. . ... ... : ... .. . ... : ... .. . ... ... : ... .. . ... ... ... ...
ROW E1 : ... .. . ... ... : ... .. . ... ... : ... .. . ... ... : ... .. . ... : ... .. . ... ... : ... .. . ... ... ... ...
ROW E2 : ... .. . ... ... : ... .. . ... ... : ... .. . ... ... : ... .. . ... : ... .. . ... ... : ... .. . ... ... ... ...
ROW E3 : ... .. . ... ... : ... .. . ... ... : ... .. . ... ... : ... .. . ... : ... .. . ... ... : ... .. . ... ... ... ...
ROW E4 : ... .. . ... ... : ... .. . ... ... : ... .. . ... ... : ... .. . ... : ... .. . ... ... : ... .. . ... ... ... ...
ROW E5 : ... .. . ... ... : ... .. . ... ... : ... .. . ... ... : ... .. . ... : ... .. . ... ... : ... .. . ... ... ... ...
ROW E6 : ... .. . ... ... : ... .. . ... ... : ... .. . ... ... : ... .. . ... : ... .. . ... ... : ... .. . ... ... ... ...
ROW E7 : ... .. . ... ... : ... .. . ... ... : ... .. . ... ... : ... .. . ... : ... .. . ... ... : ... .. . ... ... ... ...
ROW E8 : ... .. . ... ... : ... .. . ... ... : ... .. . ... ... : ... .. . ... : ... .. . ... ... : ... .. . ... ... ... ...
ROW E9 : ... .. . ... ... : ... .. . ... ... : ... .. . ... ... : ... .. . ... : ... .. . ... ... : ... .. . ... ... ... ...
ROW EA : ... .. . ... ... : ... .. . ... ... : ... .. . ... ... : ... .. . ... : ... .. . ... ... : ... .. . ... ... ... ...
ROW EB : ... .. . ... ... : ... .. . ... ... : ... .. . ... ... : ... .. . ... : ... .. . ... ... : ... .. . ... ... ... ...
ROW EC : ... .. . ... ... : ... .. . ... ... : ... .. . ... ... : ... .. . ... : ... .. . ... ... : ... .. . ... ... ... ...
ROW ED : ... .. . ... ... : ... .. . ... ... : ... .. . ... ... : ... .. . ... : ... .. . ... ... : ... .. . ... ... ... ...
ROW EE : ... .. . ... ... : ... .. . ... ... : ... .. . ... ... : ... .. . ... : ... .. . ... ... : ... .. . ... ... ... ...
ROW EF : ... .. . ... ... : ... .. . ... ... : ... .. . ... ... : ... .. . ... : ... .. . ... ... : ... .. . ... ... ... ...
ROW F0 : ... .. . ... ... : ... .. . ... ... : ... .. . ... ... : ... .. . ... : ... .. . ... ... : ... .. . ... ... ... ...
ROW F1 : ... .. . ... ... : ... .. . ... ... : ... .. . ... ... : ... .. . ... : ... .. . ... ... : ... .. . ... ... ... ...
ROW F2 : ... .. . ... ... : ... .. . ... ... : ... .. . ... ... : ... .. . ... : ... .. . ... ... : ... .. . ... ... ... ...
ROW F3 : ... .. . ... ... : ... .. . ... ... : ... .. . ... ... : ... .. . ... : ... .. . ... ... : ... .. . ... ... ... ...
ROW F4 : ... .. . ... ... : ... .. . ... ... : ... .. . ... ... : ... .. . ... : ... .. . ... ... : ... .. . ... ... ... ...
ROW F5 : ... .. . ... ... : ... .. . ... ... : ... .. . ... ... : ... .. . ... : ... .. . ... ... : ... .. . ... ... ... ...
ROW F6 : ... .. . ... ... : ... .. . ... ... : ... .. . ... ... : ... .. . ... : ... .. . ... ... : ... .. . ... ... ... ...
ROW F7 : ... .. . ... ... : ... .. . ... ... : ... .. . ... ... : ... .. . ... : ... .. . ... ... : ... .. . ... ... ... ...
ROW F8 : ... .. . ... ... : ... .. . ... ... : ... .. . ... ... : ... .. . ... : ... .. . ... ... : ... .. . ... ... ... ...
ROW F9 : ... .. . ... ... : ... .. . ... ... : ... .. . ... ... : ... .. . ... : ... .. . ... ... : ... .. . ... ... ... ...
ROW FA : ... .. . ... ... : ... .. . ... ... : ... .. . ... ... : ... .. . ... : ... .. . ... ... : ... .. . ... ... ... ...
ROW FB : ... .. . ... ... : ... .. . ... ... : ... .. . ... ... : ... .. . ... : ... .. . ... ... : ... .. . ... ... ... ...
ROW FC : ... .. . ... ... : ... .. . ... ... : ... .. . ... ... : ... .. . ... : ... .. . ... ... : ... .. . ... ... ... ...
ROW FD : ... .. . ... ... : ... .. . ... ... : ... .. . ... ... : ... .. . ... : ... .. . ... ... : ... .. . ... ... ... ...
ROW FE : ... .. . ... ... : ... .. . ... ... : ... .. . ... ... : ... .. . ... : ... .. . ... ... : ... .. . ... ... ... ...
ROW FF : ... .. . ... ... : ... .. . ... ... : ... .. . ... ... : ... .. . ... : ... .. . ... ... : ... .. . ... ... ... ...

PATTERN 0F
ROW 00 : G#3 10 5 ... ... : E-3 0F C 400 Q01 : C-4 03 . 226 ... : C-# 03 C A03 : F-3 20 . F07 ... : F-3 00 C I00 J66 ... ...
ROW 01 : ... .. 4 ... ... : ... .. . ... ... : ... .. . ... ... : ... .. . A04 : ... .. . F04 ... : ... .. . ... ... ... ...
ROW 02 : ... .. 3 ... ... : ... .. . ... ... : ... .. . ... ... : ... .. . A05 : ... .. . F03 ... : ... .. . ... ... ... ...
ROW 03 : ... .. 2 ... ... : ... .. . ... ... : ... .. . ... ... : ... .. . A04 : ... .. . F02 ... : ... .. . ... ... ... ...
ROW 04 : ... .. 1 ... ... : ... .. . ... ... : D#3 11 . 200 ... : D-# 05 4 A00 : F-3 20 . F07 ... : D#4 00 . I00 JB6 ... ...
ROW 05 : ... .. . ... ... : ... .. . ... ... : ... .. . S03 ... : ... .. . ... : ... .. . F04 ... : ... .. . ... ... ... ...
ROW 06 : G#3 10 5 ... ... : ... .. . 465 ... : F-3 11 . ... ... : 6-# 08 8 ... : ... .. . F03 ... : F-4 00 . I00 JCD ... ...
ROW 07 : ... .. 4 ... ... : ... .. . ... ... : ... .. . S03 ... : ... .. . ... : ... .. . F02 ... : ... .. . ... ... ... ...
ROW 08 : ... .. 3 ... ... : ... .. . ... ... : F-4 03 . 246 ... : ... .. . ... : F-3 20 . F07 ... : ... .. . ... ... ... ...
ROW 09 : ... .. 2 ... ... : ... .. . ... ... : ... .. . ... ... : ... .. . ... : ... .. . F04 ... : ... .. . ... ... ... ...
ROW 0A : ... .. 1 ... ... : ... .. . ... ... : D#2 11 . 200 ... : ... .. . ... : ... .. . F03 ... : D#3 00 . I00 J5B ... ...
ROW 0B : ... .. . ... ... : ... .. . ... ... : ... .. . S03 ... : ... .. . ... : ... .. . F02 ... : ... .. . ... ... ... ...
ROW 0C : G#3 10 5 ... ... : ... .. B ... ... : F-2 11 . ... ... : D-# 05 4 ... : F-3 20 . F07 ... : F-3 00 . I00 J66 ... ...
ROW 0D : ... .. 4 ... ... : ... .. . ... ... : ... .. . S03 ... : ... .. . ... : ... .. . F04 ... : ... .. . ... ... ... ...
ROW 0E : ... .. 3 ... ... : ... .. A ... ... : ... .. . ... ... : D-# 05 . ... : ... .. . F03 ... : ... .. . ... ... ... ...
ROW 0F : ... .. 2 ... ... : ... .. . ... ... : ... .. . ... ... : ... .. . ... : ... .. . F02 ... : ... .. . ... ... ... ...
ROW 10 : G#3 10 5 ... ... : ... .. 9 ... ... : C#4 03 . 246 ... : ... .. . ... : F-3 20 . F07 ... : C#3 00 . I00 J51 ... ...
ROW 11 : ... .. 4 ... ... : ... .. . ... ... : ... .. . ... ... : ... .. . ... : ... .. . F04 ... : ... .. . ... ... ... ...
ROW 12 : ... .. 3 ... ... : ... .. 8 ... ... : C#2 11 . 200 ... : ... .. . ... : ... .. . F03 ... : C#3 00 . I00 J51 ... ...
ROW 13 : ... .. 2 ... ... : ... .. . ... ... : ... .. . S03 ... : ... .. . ... : ... .. . F02 ... : ... .. . ... ... ... ...
ROW 14 : G#3 10 5 ... ... : ... .. 7 ... ... : C#2 11 . ... ... : D-# 05 . ... : F-3 20 . F07 ... : C#3 00 . I00 J51 ... ...
ROW 15 : ... .. 4 ... ... : ... .. . ... ... : ... .. . S03 ... : ... .. . ... : ... .. . F04 ... : ... .. . ... ... ... ...
ROW 16 : ... .. 3 ... ... : ... .. 6 ... ... : ... .. . ... ... : D-# 05 . ... : ... .. . F03 ... : ... .. . ... ... ... ...
ROW 17 : ... .. 2 ... ... : ... .. . ... ... : ... .. . ... ... : ... .. . ... : ... .. . F02 ... : ... .. . ... ... ... ...
ROW 18 : G#3 10 5 ... ... : D#3 0F C 400 ... : D#4 03 . 246 ... : ... .. . ... : F-3 20 . F07 ... : D#3 00 . I00 J5B ... ...
ROW 19 : ... .. 4 ... ... : ... .. 8 ... ... : ... .. . ... ... : ... .. . ... : ... .. . F04 ... : ... .. . ... ... ... ...
ROW 1A : ... .. 3 ... ... : A#3 0F C G02 ... : D#2 11 . 200 ... : D-# 05 . ... : ... .. . F03 ... : D#3 00 . I00 J5B ... ...
ROW 1B : ... .. 2 ... ... : ... .. 8 G02 ... : ... .. . S03 ... : ... .. . ... : ... .. . F02 ... : ... .. . ... ... ... ...
ROW 1C : G#3 10 5 ... ... : D#3 0F 4 G02 ... : D#2 11 . ... ... : 6-# 08 8 ... : F-3 20 . F07 ... : D#3 00 . I00 J5B ... ...
ROW 1D : ... .. 4 ... ... : D#4 0F C G01 ... : ... .. . S03 ... : ... .. . ... : ... .. . F04 ... : ... .. . ... ... ... ...
ROW 1E : ... .. 3 ... ... : ... .. 8 G01 ... : ... .. . ... ... : ... .. . ... : ... .. . F03 ... : ... .. . ... ... ... ...
ROW 1F : ... .. 2 ... ... : G-3 0F 4 G01 ... : ... .. . ... ... : ... .. . ... : ... .. . F02 ... : ... .. . ... ... ... ...
ROW 20 : G#3 10 5 ... ... : E-4 0F C Q01 ... : A#3 03 . 246 ... : D-# 05 4 ... : F-3 20 . F07 ... : A#3 00 . I00 J89 ... ...
ROW 21 : ... .. 4 ... ... : ... .. . ... ... : ... .. . ... ... : ... .. . ... : ... .. . F04 ... : ... .. . ... ... ... ...
ROW 22 : ... .. 3 ... ... : ... .. . ... ... : A#2 11 . 200 ... : ... .. . ... : ... .. . F03 ... : A#3 00 . I00 J89 ... ...
ROW 23 : ... .. 2 ... ... : ... .. . ... ... : ... .. . S03 ... : ... .. . ... : ... .. . F02 ... : ... .. . ... ... ... ...
ROW 24 : ... .. 1 ... ... : ... .. . 465 ... : A#2 11 . ... ... : D-# 05 . ... : F-3 20 . F07 ... : A#3 00 . I00 J89 ... ...
ROW 25 : ... .. . ... ... : ... .. . ... ... : ... .. . S03 ... : ... .. . ... : ... .. . F04 ... : ... .. . ... ... ... ...
ROW 26 : G#3 10 5 ... ... : ... .. . ... ... : ... .. . ... ... : 6-# 08 8 ... : ... .. . F03 ... : ... .. . ... ... ... ...
ROW 27 : ... .. 4 ... ... : ... .. . ... ... : ... .. . ... ... : ... .. . ... : ... .. . F02 ... : ... .. . ... ... ... ...
ROW 28 : ... .. 3 ... ... : ... .. . ... ... : F-3 03 . 246 ... : ... .. . ... : F-3 20 . F07 ... : ... .. . ... ... ... ...
ROW 29 : ... .. 2 ... ... : ... .. . ... ... : ... .. . ... ... : ... .. . ... : ... .. . F04 ... : ... .. . ... ... ... ...
ROW 2A : ... .. 1 ... ... : ... .. . ... ... : ... .. . ... ... : ... .. . ... : ... .. . F03 ... : ... .. . ... ... ... ...
ROW 2B : ... .. . ... ... : ... .. . ... ... : ... .. . ... ... : ... .. . ... : ... .. . F02 ... : ... .. . ... ... ... ...
ROW 2C : G#3 10 5 ... ... : ... .. B ... ... : A#2 11 . 200 ... : D-# 05 4 ... : F-3 20 . F07 ... : A#3 00 . I00 J89 ... ...
ROW 2D : ... .. 4 ... ... : ... .. A ... ... : ... .. . S03 ... : ... .. . ... : ... .. . F04 ... : ... .. . ... ... ... ...
ROW 2E : ... .. 3 ... ... : ... .. 9 ... ... : A#2 11 . ... ... : D-# 05 . ... : ... .. . F03 ... : A#3 00 . I00 J89 ... ...
ROW 2F : ... .. 2 ... ... : ... .. 8 ... ... : ... .. . S03 ... : ... .. . ... : ... .. . F02 ... : ... .. . ... ... ... ...
ROW 30 : G#3 10 5 ... ... : D-4 0F C 400 Q11 : A#3 03 . 246 ... : ... .. . ... : F-3 20 . F07 ... : A#3 00 . I00 J89 ... ...
ROW 31 : ... .. 4 ... ... : ... .. . ... ... : ... .. . ... ... : ... .. . ... : ... .. . F04 ... : ... .. . ... ... ... ...
ROW 32 : ... .. 3 ... ... : ... .. 6 ... ... : ... .. . ... ... : ... .. . ... : ... .. . F03 ... : ... .. . ... ... ... ...
ROW 33 : ... .. 2 ... ... : ... .. 4 ... ... : ... .. . ... ... : ... .. . ... : ... .. . F02 ... : ... .. . ... ... ... ...
ROW 34 : G#3 10 5 ... ... : F-4 0F C ... ... : G#2 11 . 200 ... : D-# 05 . ... : F-3 20 . F07 ... : G#3 00 . I00 J7A ... ...
ROW 35 : ... .. 4 ... ... : ... .. . ... ... : ... .. . S03 ... : ... .. . ... : ... .. . F04 ... : ... .. . ... ... ... ...
ROW 36 : ... .. 3 ... ... : D#4 0F 6 ... ... : ... .. . ... ... : D-# 05 . ... : ... .. . F03 ... : ... .. . ... ... ... ...
ROW 37 : ... .. 2 ... ... : ... .. 4 ... ... : ... .. . ... ... : ... .. . ... : ... .. . F02 ... : ... .. . ... ... ... ...
ROW 38 : G#3 10 5 ... ... : D#4 0F C ... ... : D#3 03 . 246 ... : ... .. . ... : G-3 1E . F07 ... : D#3 00 . I00 J5B ... ...
ROW 39 : ... .. 4 ... ... : ... .. . ... ... : ... .. . ... ... : ... .. . ... : ... .. . F04 ... : ... .. . ... ... ... ...
ROW 3A : ... .. 3 ... ... : F-4 0F 6 ... ... : ... .. . ... ... : D-# 05 . ... : ... .. . F03 ... : ... .. . ... ... ... ...
ROW 3B : ... .. 2 ... ... : ... .. 4 ... ... : ... .. . ... ... : ... .. . ... : ... .. . F02 ... : ... .. . ... ... ... ...
ROW 3C : G#3 10 5 ... ... : A#3 0F C ... ... : G#2 11 . 200 ... : 6-# 08 8 ... : G-3 1E . F07 ... : G#3 00 . I00 J7A ... ...
ROW 3D : ... .. 4 ... ... : ... .. . ... ... : ... .. . S03 ... : ... .. . ... : ... .. . F04 ... : ... .. . ... ... ... ...
ROW 3E : ... .. 3 ... ... : D#4 0F 6 ... ... : ... .. . ... ... : ... .. . ... : ... .. . F03 ... : ... .. . ... ... ... ...
ROW 3F : ... .. 2 ... ... : ... .. 4 ... ... : ... .. . ... ... : ... .. . ... : ... .. . F02 D00 : ... .. . ... ... ... ...
ROW 40 : ... .. . ... ... : ... .. . ... ... : ... .. . ... ... : ... .. . ... : ... .. . ... ... : ... .. . ... ... ... ...
ROW 41 : ... .. . ... ... : ... .. . ... ... : ... .. . ... ... : ... .. . ... : ... .. . ... ... : ... .. . ... ... ... ...
ROW 42 : ... .. . ... ... : ... .. . ... ... : ... .. . ... ... : ... .. . ... : ... .. . ... ... : ... .. . ... ... ... ...
ROW 43 : ... .. . ... ... : ... .. . ... ... : ... .. . ... ... : ... .. . ... : ... .. . ... ... : ... .. . ... ... ... ...
ROW 44 : ... .. . ... ... : ... .. . ... ... : ... .. . ... ... : ... .. . ... : ... .. . ... ... : ... .. . ... ... ... ...
ROW 45 : ... .. . ... ... : ... .. . ... ... : ... .. . ... ... : ... .. . ... : ... .. . ... ... : ... .. . ... ... ... ...
ROW 46 : ... .. . ... ... : ... .. . ... ... : ... .. . ... ... : ... .. . ... : ... .. . ... ... : ... .. . ... ... ... ...
ROW 47 : ... .. . ... ... : ... .. . ... ... : ... .. . ... ... : ... .. . ... : ... .. . ... ... : ... .. . ... ... ... ...
ROW 48 : ... .. . ... ... : ... .. . ... ... : ... .. . ... ... : ... .. . ... : ... .. . ... ... : ... .. . ... ... ... ...
ROW 49 : ... .. . ... ... : ... .. . ... ... : ... .. . ... ... : ... .. . ... : ... .. . ... ... : ... .. . ... ... ... ...
ROW 4A : ... .. . ... ... : ... .. . ... ... : ... .. . ... ... : ... .. . ... : ... .. . ... ... : ... .. . ... ... ... ...
ROW 4B : ... .. . ... ... : ... .. . ... ... : ... .. . ... ... : ... .. . ... : ... .. . ... ... : ... .. . ... ... ... ...
ROW 4C : ... .. . ... ... : ... .. . ... ... : ... .. . ... ... : ... .. . ... : ... .. . ... ... : ... .. . ... ... ... ...
ROW 4D : ... .. . ... ... : ... .. . ... ... : ... .. . ... ... : ... .. . ... : ... .. . ... ... : ... .. . ... ... ... ...
ROW 4E : ... .. . ... ... : ... .. . ... ... : ... .. . ... ... : ... .. . ... : ... .. . ... ... : ... .. . ... ... ... ...
ROW 4F : ... .. . ... ... : ... .. . ... ... : ... .. . ... ... : ... .. . ... : ... .. . ... ... : ... .. . ... ... ... ...
ROW 50 : ... .. . ... ... : ... .. . ... ... : ... .. . ... ... : ... .. . ... : ... .. . ... ... : ... .. . ... ... ... ...
ROW 51 : ... .. . ... ... : ... .. . ... ... : ... .. . ... ... : ... .. . ... : ... .. . ... ... : ... .. . ... ... ... ...
ROW 52 : ... .. . ... ... : ... .. . ... ... : ... .. . ... ... : ... .. . ... : ... .. . ... ... : ... .. . ... ... ... ...
ROW 53 : ... .. . ... ... : ... .. . ... ... : ... .. . ... ... : ... .. . ... : ... .. . ... ... : ... .. . ... ... ... ...
ROW 54 : ... .. . ... ... : ... .. . ... ... : ... .. . ... ... : ... .. . ... : ... .. . ... ... : ... .. . ... ... ... ...
ROW 55 : ... .. . ... ... : ... .. . ... ... : ... .. . ... ... : ... .. . ... : ... .. . ... ... : ... .. . ... ... ... ...
ROW 56 : ... .. . ... ... : ... .. . ... ... : ... .. . ... ... : ... .. . ... : ... .. . ... ... : ... .. . ... ... ... ...
ROW 57 : ... .. . ... ... : ... .. . ... ... : ... .. . ... ... : ... .. . ... : ... .. . ... ... : ... .. . ... ... ... ...
ROW 58 : ... .. . ... ... : ... .. . ... ... : ... .. . ... ... : ... .. . ... : ... .. . ... ... : ... .. . ... ... ... ...
ROW 59 : ... .. . ... ... : ... .. . ... ... : ... .. . ... ... : ... .. . ... : ... .. . ... ... : ... .. . ... ... ... ...
ROW 5A : ... .. . ... ... : ... .. . ... ... : ... .. . ... ... : ... .. . ... : ... .. . ... ... : ... .. . ... ... ... ...
ROW 5B : ... .. . ... ... : ... .. . ... ... : ... .. . ... ... : ... .. . ... : ... .. . ... ... : ... .. . ... ... ... ...
ROW 5C : ... .. . ... ... : ... .. . ... ... : ... .. . ... ... : ... .. . ... : ... .. . ... ... : ... .. . ... ... ... ...
ROW 5D : ... .. . ... ... : ... .. . ... ... : ... .. . ... ... : ... .. . ... : ... .. . ... ... : ... .. . ... ... ... ...
ROW 5E : ... .. . ... ... : ... .. . ... ... : ... .. . ... ... : ... .. . ... : ... .. . ... ... : ... .. . ... ... ... ...
ROW 5F : ... .. . ... ... : ... .. . ... ... : ... .. . ... ... : ... .. . ... : ... .. . ... ... : ... .. . ... ... ... ...
ROW 60 : ... .. . ... ... : ... .. . ... ... : ... .. . ... ... : ... .. . ... : ... .. . ... ... : ... .. . ... ... ... ...
ROW 61 : ... .. . ... ... : ... .. . ... ... : ... .. . ... ... : ... .. . ... : ... .. . ... ... : ... .. . ... ... ... ...
ROW 62 : ... .. . ... ... : ... .. . ... ... : ... .. . ... ... : ... .. . ... : ... .. . ... ... : ... .. . ... ... ... ...
ROW 63 : ... .. . ... ... : ... .. . ... ... : ... .. . ... ... : ... .. . ... : ... .. . ... ... : ... .. . ... ... ... ...
ROW 64 : ... .. . ... ... : ... .. . ... ... : ... .. . ... ... : ... .. . ... : ... .. . ... ... : ... .. . ... ... ... ...
ROW 65 : ... .. . ... ... : ... .. . ... ... : ... .. . ... ... : ... .. . ... : ... .. . ... ... : ... .. . ... ... ... ...
ROW 66 : ... .. . ... ... : ... .. . ... ... : ... .. . ... ... : ... .. . ... : ... .. . ... ... : ... .. . ... ... ... ...
ROW 67 : ... .. . ... ... : ... .. . ... ... : ... .. . ... ... : ... .. . ... : ... .. . ... ... : ... .. . ... ... ... ...
ROW 68 : ... .. . ... ... : ... .. . ... ... : ... .. . ... ... : ... .. . ... : ... .. . ... ... : ... .. . ... ... ... ...
ROW 69 : ... .. . ... ... : ... .. . ... ... : ... .. . ... ... : ... .. . ... : ... .. . ... ... : ... .. . ... ... ... ...
ROW 6A : ... .. . ... ... : ... .. . ... ... : ... .. . ... ... : ... .. . ... : ... .. . ... ... : ... .. . ... ... ... ...
ROW 6B : ... .. . ... ... : ... .. . ... ... : ... .. . ... ... : ... .. . ... : ... .. . ... ... : ... .. . ... ... ... ...
ROW 6C : ... .. . ... ... : ... .. . ... ... : ... .. . ... ... : ... .. . ... : ... .. . ... ... : ... .. . ... ... ... ...
ROW 6D : ... .. . ... ... : ... .. . ... ... : ... .. . ... ... : ... .. . ... : ... .. . ... ... : ... .. . ... ... ... ...
ROW 6E : ... .. . ... ... : ... .. . ... ... : ... .. . ... ... : ... .. . ... : ... .. . ... ... : ... .. . ... ... ... ...
ROW 6F : ... .. . ... ... : ... .. . ... ... : ... .. . ... ... : ... .. . ... : ... .. . ... ... : ... .. . ... ... ... ...
ROW 70 : ... .. . ... ... : ... .. . ... ... : ... .. . ... ... : ... .. . ... : ... .. . ... ... : ... .. . ... ... ... ...
ROW 71 : ... .. . ... ... : ... .. . ... ... : ... .. . ... ... : ... .. . ... : ... .. . ... ... : ... .. . ... ... ... ...
ROW 72 : ... .. . ... ... : ... .. . ... ... : ... .. . ... ... : ... .. . ... : ... .. . ... ... : ... .. . ... ... ... ...
ROW 73 : ... .. . ... ... : ... .. . ... ... : ... .. . ... ... : ... .. . ... : ... .. . ... ... : ... .. . ... ... ... ...
ROW 74 : ... .. . ... ... : ... .. . ... ... : ... .. . ... ... : ... .. . ... : ... .. . ... ... : ... .. . ... ... ... ...
ROW 75 : ... .. . ... ... : ... .. . ... ... : ... .. . ... ... : ... .. . ... : ... .. . ... ... : ... .. . ... ... ... ...
ROW 76 : ... .. . ... ... : ... .. . ... ... : ... .. . ... ... : ... .. . ... : ... .. . ... ... : ... .. . ... ... ... ...
ROW 77 : ... .. . ... ... : ... .. . ... ... : ... .. . ... ... : ... .. . ... : ... .. . ... ... : ... .. . ... ... ... ...
ROW 78 : ... .. . ... ... : ... .. . ... ... : ... .. . ... ... : ... .. . ... : ... .. . ... ... : ... .. . ... ... ... ...
ROW 79 : ... .. . ... ... : ... .. . ... ... : ... .. . ... ... : ... .. . ... : ... .. . ... ... : ... .. . ... ... ... ...
ROW 7A : ... .. . ... ... : ... .. . ... ... : ... .. . ... ... : ... .. . ... : ... .. . ... ... : ... .. . ... ... ... ...
ROW 7B : ... .. . ... ... : ... .. . ... ... : ... .. . ... ... : ... .. . ... : ... .. . ... ... : ... .. . ... ... ... ...
ROW 7C : ... .. . ... ... : ... .. . ... ... : ... .. . ... ... : ... .. . ... : ... .. . ... ... : ... .. . ... ... ... ...
ROW 7D : ... .. . ... ... : ... .. . ... ... : ... .. . ... ... : ... .. . ... : ... .. . ... ... : ... .. . ... ... ... ...
ROW 7E : ... .. . ... ... : ... .. . ... ... : ... .. . ... ... : ... .. . ... : ... .. . ... ... : ... .. . ... ... ... ...
ROW 7F : ... .. . ... ... : ... .. . ... ... : ... .. . ... ... : ... .. . ... : ... .. . ... ... : ... .. . ... ... ... ...
ROW 80 : ... .. . ... ... : ... .. . ... ... : ... .. . ... ... : ... .. . ... : ... .. . ... ... : ... .. . ... ... ... ...
ROW 81 : ... .. . ... ... : ... .. . ... ... : ... .. . ... ... : ... .. . ... : ... .. . ... ... : ... .. . ... ... ... ...
ROW 82 : ... .. . ... ... : ... .. . ... ... : ... .. . ... ... : ... .. . ... : ... .. . ... ... : ... .. . ... ... ... ...
ROW 83 : ... .. . ... ... : ... .. . ... ... : ... .. . ... ... : ... .. . ... : ... .. . ... ... : ... .. . ... ... ... ...
ROW 84 : ... .. . ... ... : ... .. . ... ... : ... .. . ... ... : ... .. . ... : ... .. . ... ... : ... .. . ... ... ... ...
ROW 85 : ... .. . ... ... : ... .. . ... ... : ... .. . ... ... : ... .. . ... : ... .. . ... ... : ... .. . ... ... ... ...
ROW 86 : ... .. . ... ... : ... .. . ... ... : ... .. . ... ... : ... .. . ... : ... .. . ... ... : ... .. . ... ... ... ...
ROW 87 : ... .. . ... ... : ... .. . ... ... : ... .. . ... ... : ... .. . ... : ... .. . ... ... : ... .. . ... ... ... ...
ROW 88 : ... .. . ... ... : ... .. . ... ... : ... .. . ... ... : ... .. . ... : ... .. . ... ... : ... .. . ... ... ... ...
ROW 89 : ... .. . ... ... : ... .. . ... ... : ... .. . ... ... : ... .. . ... : ... .. . ... ... : ... .. . ... ... ... ...
ROW 8A : ... .. . ... ... : ... .. . ... ... : ... .. . ... ... : ... .. . ... : ... .. . ... ... : ... .. . ... ... ... ...
ROW 8B : ... .. . ... ... : ... .. . ... ... : ... .. . ... ... : ... .. . ... : ... .. . ... ... : ... .. . ... ... ... ...
ROW 8C : ... .. . ... ... : ... .. . ... ... : ... .. . ... ... : ... .. . ... : ... .. . ... ... : ... .. . ... ... ... ...
ROW 8D : ... .. . ... ... : ... .. . ... ... : ... .. . ... ... : ... .. . ... : ... .. . ... ... : ... .. . ... ... ... ...
ROW 8E : ... .. . ... ... : ... .. . ... ... : ... .. . ... ... : ... .. . ... : ... .. . ... ... : ... .. . ... ... ... ...
ROW 8F : ... .. . ... ... : ... .. . ... ... : ... .. . ... ... : ... .. . ... : ... .. . ... ... : ... .. . ... ... ... ...
ROW 90 : ... .. . ... ... : ... .. . ... ... : ... .. . ... ... : ... .. . ... : ... .. . ... ... : ... .. . ... ... ... ...
ROW 91 : ... .. . ... ... : ... .. . ... ... : ... .. . ... ... : ... .. . ... : ... .. . ... ... : ... .. . ... ... ... ...
ROW 92 : ... .. . ... ... : ... .. . ... ... : ... .. . ... ... : ... .. . ... : ... .. . ... ... : ... .. . ... ... ... ...
ROW 93 : ... .. . ... ... : ... .. . ... ... : ... .. . ... ... : ... .. . ... : ... .. . ... ... : ... .. . ... ... ... ...
ROW 94 : ... .. . ... ... : ... .. . ... ... : ... .. . ... ... : ... .. . ... : ... .. . ... ... : ... .. . ... ... ... ...
ROW 95 : ... .. . ... ... : ... .. . ... ... : ... .. . ... ... : ... .. . ... : ... .. . ... ... : ... .. . ... ... ... ...
ROW 96 : ... .. . ... ... : ... .. . ... ... : ... .. . ... ... : ... .. . ... : ... .. . ... ... : ... .. . ... ... ... ...
ROW 97 : ... .. . ... ... : ... .. . ... ... : ... .. . ... ... : ... .. . ... : ... .. . ... ... : ... .. . ... ... ... ...
ROW 98 : ... .. . ... ... : ... .. . ... ... : ... .. . ... ... : ... .. . ... : ... .. . ... ... : ... .. . ... ... ... ...
ROW 99 : ... .. . ... ... : ... .. . ... ... : ... .. . ... ... : ... .. . ... : ... .. . ... ... : ... .. . ... ... ... ...
ROW 9A : ... .. . ... ... : ... .. . ... ... : ... .. . ... ... : ... .. . ... : ... .. . ... ... : ... .. . ... ... ... ...
ROW 9B : ... .. . ... ... : ... .. . ... ... : ... .. . ... ... : ... .. . ... : ... .. . ... ... : ... .. . ... ... ... ...
ROW 9C : ... .. . ... ... : ... .. . ... ... : ... .. . ... ... : ... .. . ... : ... .. . ... ... : ... .. . ... ... ... ...
ROW 9D : ... .. . ... ... : ... .. . ... ... : ... .. . ... ... : ... .. . ... : ... .. . ... ... : ... .. . ... ... ... ...
ROW 9E : ... .. . ... ... : ... .. . ... ... : ... .. . ... ... : ... .. . ... : ... .. . ... ... : ... .. . ... ... ... ...
ROW 9F : ... .. . ... ... : ... .. . ... ... : ... .. . ... ... : ... .. . ... : ... .. . ... ... : ... .. . ... ... ... ...
ROW A0 : ... .. . ... ... : ... .. . ... ... : ... .. . ... ... : ... .. . ... : ... .. . ... ... : ... .. . ... ... ... ...
ROW A1 : ... .. . ... ... : ... .. . ... ... : ... .. . ... ... : ... .. . ... : ... .. . ... ... : ... .. . ... ... ... ...
ROW A2 : ... .. . ... ... : ... .. . ... ... : ... .. . ... ... : ... .. . ... : ... .. . ... ... : ... .. . ... ... ... ...
ROW A3 : ... .. . ... ... : ... .. . ... ... : ... .. . ... ... : ... .. . ... : ... .. . ... ... : ... .. . ... ... ... ...
ROW A4 : ... .. . ... ... : ... .. . ... ... : ... .. . ... ... : ... .. . ... : ... .. . ... ... : ... .. . ... ... ... ...
ROW A5 : ... .. . ... ... : ... .. . ... ... : ... .. . ... ... : ... .. . ... : ... .. . ... ... : ... .. . ... ... ... ...
ROW A6 : ... .. . ... ... : ... .. . ... ... : ... .. . ... ... : ... .. . ... : ... .. . ... ... : ... .. . ... ... ... ...
ROW A7 : ... .. . ... ... : ... .. . ... ... : ... .. . ... ... : ... .. . ... : ... .. . ... ... : ... .. . ... ... ... ...
ROW A8 : ... .. . ... ... : ... .. . ... ... : ... .. . ... ... : ... .. . ... : ... .. . ... ... : ... .. . ... ... ... ...
ROW A9 : ... .. . ... ... : ... .. . ... ... : ... .. . ... ... : ... .. . ... : ... .. . ... ... : ... .. . ... ... ... ...
ROW AA : ... .. . ... ... : ... .. . ... ... : ... .. . ... ... : ... .. . ... : ... .. . ... ... : ... .. . ... ... ... ...
ROW AB : ... .. . ... ... : ... .. . ... ... : ... .. . ... ... : ... .. . ... : ... .. . ... ... : ... .. . ... ... ... ...
ROW AC : ... .. . ... ... : ... .. . ... ... : ... .. . ... ... : ... .. . ... : ... .. . ... ... : ... .. . ... ... ... ...
ROW AD : ... .. . ... ... : ... .. . ... ... : ... .. . ... ... : ... .. . ... : ... .. . ... ... : ... .. . ... ... ... ...
ROW AE : ... .. . ... ... : ... .. . ... ... : ... .. . ... ... : ... .. . ... : ... .. . ... ... : ... .. . ... ... ... ...
ROW AF : ... .. . ... ... : ... .. . ... ... : ... .. . ... ... : ... .. . ... : ... .. . ... ... : ... .. . ... ... ... ...
ROW B0 : ... .. . ... ... : ... .. . ... ... : ... .. . ... ... : ... .. . ... : ... .. . ... ... : ... .. . ... ... ... ...
ROW B1 : ... .. . ... ... : ... .. . ... ... : ... .. . ... ... : ... .. . ... : ... .. . ... ... : ... .. . ... ... ... ...
ROW B2 : ... .. . ... ... : ... .. . ... ... : ... .. . ... ... : ... .. . ... : ... .. . ... ... : ... .. . ... ... ... ...
ROW B3 : ... .. . ... ... : ... .. . ... ... : ... .. . ... ... : ... .. . ... : ... .. . ... ... : ... .. . ... ... ... ...
ROW B4 : ... .. . ... ... : ... .. . ... ... : ... .. . ... ... : ... .. . ... : ... .. . ... ... : ... .. . ... ... ... ...
ROW B5 : ... .. . ... ... : ... .. . ... ... : ... .. . ... ... : ... .. . ... : ... .. . ... ... : ... .. . ... ... ... ...
ROW B6 : ... .. . ... ... : ... .. . ... ... : ... .. . ... ... : ... .. . ... : ... .. . ... ... : ... .. . ... ... ... ...
ROW B7 : ... .. . ... ... : ... .. . ... ... : ... .. . ... ... : ... .. . ... : ... .. . ... ... : ... .. . ... ... ... ...
ROW B8 : ... .. . ... ... : ... .. . ... ... : ... .. . ... ... : ... .. . ... : ... .. . ... ... : ... .. . ... ... ... ...
ROW B9 : ... .. . ... ... : ... .. . ... ... : ... .. . ... ... : ... .. . ... : ... .. . ... ... : ... .. . ... ... ... ...
ROW BA : ... .. . ... ... : ... .. . ... ... : ... .. . ... ... : ... .. . ... : ... .. . ... ... : ... .. . ... ... ... ...
ROW BB : ... .. . ... ... : ... .. . ... ... : ... .. . ... ... : ... .. . ... : ... .. . ... ... : ... .. . ... ... ... ...
ROW BC : ... .. . ... ... : ... .. . ... ... : ... .. . ... ... : ... .. . ... : ... .. . ... ... : ... .. . ... ... ... ...
ROW BD : ... .. . ... ... : ... .. . ... ... : ... .. . ... ... : ... .. . ... : ... .. . ... ... : ... .. . ... ... ... ...
ROW BE : ... .. . ... ... : ... .. . ... ... : ... .. . ... ... : ... .. . ... : ... .. . ... ... : ... .. . ... ... ... ...
ROW BF : ... .. . ... ... : ... .. . ... ... : ... .. . ... ... : ... .. . ... : ... .. . ... ... : ... .. . ... ... ... ...
ROW C0 : ... .. . ... ... : ... .. . ... ... : ... .. . ... ... : ... .. . ... : ... .. . ... ... : ... .. . ... ... ... ...
ROW C1 : ... .. . ... ... : ... .. . ... ... : ... .. . ... ... : ... .. . ... : ... .. . ... ... : ... .. . ... ... ... ...
ROW C2 : ... .. . ... ... : ... .. . ... ... : ... .. . ... ... : ... .. . ... : ... .. . ... ... : ... .. . ... ... ... ...
ROW C3 : ... .. . ... ... : ... .. . ... ... : ... .. . ... ... : ... .. . ... : ... .. . ... ... : ... .. . ... ... ... ...
ROW C4 : ... .. . ... ... : ... .. . ... ... : ... .. . ... ... : ... .. . ... : ... .. . ... ... : ... .. . ... ... ... ...
ROW C5 : ... .. . ... ... : ... .. . ... ... : ... .. . ... ... : ... .. . ... : ... .. . ... ... : ... .. . ... ... ... ...
ROW C6 : ... .. . ... ... : ... .. . ... ... : ... .. . ... ... : ... .. . ... : ... .. . ... ... : ... .. . ... ... ... ...
ROW C7 : ... .. . ... ... : ... .. . ... ... : ... .. . ... ... : ... .. . ... : ... .. . ... ... : ... .. . ... ... ... ...
ROW C8 : ... .. . ... ... : ... .. . ... ... : ... .. . ... ... : ... .. . ... : ... .. . ... ... : ... .. . ... ... ... ...
ROW C9 : ... .. . ... ... : ... .. . ... ... : ... .. . ... ... : ... .. . ... : ... .. . ... ... : ... .. . ... ... ... ...
ROW CA : ... .. . ... ... : ... .. . ... ... : ... .. . ... ... : ... .. . ... : ... .. . ... ... : ... .. . ... ... ... ...
ROW CB : ... .. . ... ... : ... .. . ... ... : ... .. . ... ... : ... .. . ... : ... .. . ... ... : ... .. . ... ... ... ...
ROW CC : ... .. . ... ... : ... .. . ... ... : ... .. . ... ... : ... .. . ... : ... .. . ... ... : ... .. . ... ... ... ...
ROW CD : ... .. . ... ... : ... .. . ... ... : ... .. . ... ... : ... .. . ... : ... .. . ... ... : ... .. . ... ... ... ...
ROW CE : ... .. . ... ... : ... .. . ... ... : ... .. . ... ... : ... .. . ... : ... .. . ... ... : ... .. . ... ... ... ...
ROW CF : ... .. . ... ... : ... .. . ... ... : ... .. . ... ... : ... .. . ... : ... .. . ... ... : ... .. . ... ... ... ...
ROW D0 : ... .. . ... ... : ... .. . ... ... : ... .. . ... ... : ... .. . ... : ... .. . ... ... : ... .. . ... ... ... ...
ROW D1 : ... .. . ... ... : ... .. . ... ... : ... .. . ... ... : ... .. . ... : ... .. . ... ... : ... .. . ... ... ... ...
ROW D2 : ... .. . ... ... : ... .. . ... ... : ... .. . ... ... : ... .. . ... : ... .. . ... ... : ... .. . ... ... ... ...
ROW D3 : ... .. . ... ... : ... .. . ... ... : ... .. . ... ... : ... .. . ... : ... .. . ... ... : ... .. . ... ... ... ...
ROW D4 : ... .. . ... ... : ... .. . ... ... : ... .. . ... ... : ... .. . ... : ... .. . ... ... : ... .. . ... ... ... ...
ROW D5 : ... .. . ... ... : ... .. . ... ... : ... .. . ... ... : ... .. . ... : ... .. . ... ... : ... .. . ... ... ... ...
ROW D6 : ... .. . ... ... : ... .. . ... ... : ... .. . ... ... : ... .. . ... : ... .. . ... ... : ... .. . ... ... ... ...
ROW D7 : ... .. . ... ... : ... .. . ... ... : ... .. . ... ... : ... .. . ... : ... .. . ... ... : ... .. . ... ... ... ...
ROW D8 : ... .. . ... ... : ... .. . ... ... : ... .. . ... ... : ... .. . ... : ... .. . ... ... : ... .. . ... ... ... ...
ROW D9 : ... .. . ... ... : ... .. . ... ... : ... .. . ... ... : ... .. . ... : ... .. . ... ... : ... .. . ... ... ... ...
ROW DA : ... .. . ... ... : ... .. . ... ... : ... .. . ... ... : ... .. . ... : ... .. . ... ... : ... .. . ... ... ... ...
ROW DB : ... .. . ... ... : ... .. . ... ... : ... .. . ... ... : ... .. . ... : ... .. . ... ... : ... .. . ... ... ... ...
ROW DC : ... .. . ... ... : ... .. . ... ... : ... .. . ... ... : ... .. . ... : ... .. . ... ... : ... .. . ... ... ... ...
ROW DD : ... .. . ... ... : ... .. . ... ... : ... .. . ... ... : ... .. . ... : ... .. . ... ... : ... .. . ... ... ... ...
ROW DE : ... .. . ... ... : ... .. . ... ... : ... .. . ... ... : ... .. . ... : ... .. . ... ... : ... .. . ... ... ... ...
ROW DF : ... .. . ... ... : ... .. . ... ... : ... .. . ... ... : ... .. . ... : ... .. . ... ... : ... .. . ... ... ... ...
ROW E0 : ... .. . ... ... : ... .. . ... ... : ... .. . ... ... : ... .. . ... : ... .. . ... ... : ... .. . ... ... ... ...
ROW E1 : ... .. . ... ... : ... .. . ... ... : ... .. . ... ... : ... .. . ... : ... .. . ... ... : ... .. . ... ... ... ...
ROW E2 : ... .. . ... ... : ... .. . ... ... : ... .. . ... ... : ... .. . ... : ... .. . ... ... : ... .. . ... ... ... ...
ROW E3 : ... .. . ... ... : ... .. . ... ... : ... .. . ... ... : ... .. . ... : ... .. . ... ... : ... .. . ... ... ... ...
ROW E4 : ... .. . ... ... : ... .. . ... ... : ... .. . ... ... : ... .. . ... : ... .. . ... ... : ... .. . ... ... ... ...
ROW E5 : ... .. . ... ... : ... .. . ... ... : ... .. . ... ... : ... .. . ... : ... .. . ... ... : ... .. . ... ... ... ...
ROW E6 : ... .. . ... ... : ... .. . ... ... : ... .. . ... ... : ... .. . ... : ... .. . ... ... : ... .. . ... ... ... ...
ROW E7 : ... .. . ... ... : ... .. . ... ... : ... .. . ... ... : ... .. . ... : ... .. . ... ... : ... .. . ... ... ... ...
ROW E8 : ... .. . ... ... : ... .. . ... ... : ... .. . ... ... : ... .. . ... : ... .. . ... ... : ... .. . ... ... ... ...
ROW E9 : ... .. . ... ... : ... .. . ... ... : ... .. . ... ... : ... .. . ... : ... .. . ... ... : ... .. . ... ... ... ...
ROW EA : ... .. . ... ... : ... .. . ... ... : ... .. . ... ... : ... .. . ... : ... .. . ... ... : ... .. . ... ... ... ...
ROW EB : ... .. . ... ... : ... .. . ... ... : ... .. . ... ... : ... .. . ... : ... .. . ... ... : ... .. . ... ... ... ...
ROW EC : ... .. . ... ... : ... .. . ... ... : ... .. . ... ... : ... .. . ... : ... .. . ... ... : ... .. . ... ... ... ...
ROW ED : ... .. . ... ... : ... .. . ... ... : ... .. . ... ... : ... .. . ... : ... .. . ... ... : ... .. . ... ... ... ...
ROW EE : ... .. . ... ... : ... .. . ... ... : ... .. . ... ... : ... .. . ... : ... .. . ... ... : ... .. . ... ... ... ...
ROW EF : ... .. . ... ... : ... .. . ... ... : ... .. . ... ... : ... .. . ... : ... .. . ... ... : ... .. . ... ... ... ...
ROW F0 : ... .. . ... ... : ... .. . ... ... : ... .. . ... ... : ... .. . ... : ... .. . ... ... : ... .. . ... ... ... ...
ROW F1 : ... .. . ... ... : ... .. . ... ... : ... .. . ... ... : ... .. . ... : ... .. . ... ... : ... .. . ... ... ... ...
ROW F2 : ... .. . ... ... : ... .. . ... ... : ... .. . ... ... : ... .. . ... : ... .. . ... ... : ... .. . ... ... ... ...
ROW F3 : ... .. . ... ... : ... .. . ... ... : ... .. . ... ... : ... .. . ... : ... .. . ... ... : ... .. . ... ... ... ...
ROW F4 : ... .. . ... ... : ... .. . ... ... : ... .. . ... ... : ... .. . ... : ... .. . ... ... : ... .. . ... ... ... ...
ROW F5 : ... .. . ... ... : ... .. . ... ... : ... .. . ... ... : ... .. . ... : ... .. . ... ... : ... .. . ... ... ... ...
ROW F6 : ... .. . ... ... : ... .. . ... ... : ... .. . ... ... : ... .. . ... : ... .. . ... ... : ... .. . ... ... ... ...
ROW F7 : ... .. . ... ... : ... .. . ... ... : ... .. . ... ... : ... .. . ... : ... .. . ... ... : ... .. . ... ... ... ...
ROW F8 : ... .. . ... ... : ... .. . ... ... : ... .. . ... ... : ... .. . ... : ... .. . ... ... : ... .. . ... ... ... ...
ROW F9 : ... .. . ... ... : ... .. . ... ... : ... .. . ... ... : ... .. . ... : ... .. . ... ... : ... .. . ... ... ... ...
ROW FA : ... .. . ... ... : ... .. . ... ... : ... .. . ... ... : ... .. . ... : ... .. . ... ... : ... .. . ... ... ... ...
ROW FB : ... .. . ... ... : ... .. . ... ... : ... .. . ... ... : ... .. . ... : ... .. . ... ... : ... .. . ... ... ... ...
ROW FC : ... .. . ... ... : ... .. . ... ... : ... .. . ... ... : ... .. . ... : ... .. . ... ... : ... .. . ... ... ... ...
ROW FD : ... .. . ... ... : ... .. . ... ... : ... .. . ... ... : ... .. . ... : ... .. . ... ... : ... .. . ... ... ... ...
ROW FE : ... .. . ... ... : ... .. . ... ... : ... .. . ... ... : ... .. . ... : ... .. . ... ... : ... .. . ... ... ... ...
ROW FF : ... .. . ... ... : ... .. . ... ... : ... .. . ... ... : ... .. . ... : ... .. . ... ... : ... .. . ... ... ... ...

PATTERN 10
ROW 00 : F-3 10 5 ... ... : B-3 0F C 400 Q11 : F-2 11 . 200 ... : D-# 05 4 ... : G#3 1F . F07 ... : F-3 00 C I00 J66 ... ...
ROW 01 : ... .. 4 ... ... : ... .. . ... ... : ... .. . S03 ... : ... .. . ... : ... .. . F04 ... : ... .. . ... ... ... ...
ROW 02 : ... .. 3 ... ... : ... .. . ... ... : ... .. . ... ... : ... .. . ... : ... .. . F03 ... : ... .. . ... ... ... ...
ROW 03 : ... .. 2 ... ... : ... .. . ... ... : ... .. . ... ... : ... .. . ... : ... .. . F02 ... : ... .. . ... ... ... ...
ROW 04 : ... .. 1 ... ... : ... .. . ... ... : D#3 11 . ... ... : D-# 05 . ... : G#3 1F . F07 ... : D#4 00 . I00 JB6 ... ...
ROW 05 : ... .. . ... ... : ... .. . ... ... : ... .. . S03 ... : ... .. . ... : ... .. . F04 ... : ... .. . ... ... ... ...
ROW 06 : F-3 10 5 ... ... : ... .. . 465 ... : F-3 11 . ... ... : 6-# 08 8 ... : ... .. . F03 ... : F-4 00 . I00 JCD ... ...
ROW 07 : ... .. 4 ... ... : ... .. . ... ... : ... .. . S03 ... : ... .. . ... : ... .. . F02 ... : ... .. . ... ... ... ...
ROW 08 : ... .. 3 ... ... : ... .. . ... ... : F-4 03 . 246 ... : ... .. . ... : G#3 1F . F07 ... : ... .. . ... ... ... ...
ROW 09 : ... .. 2 ... ... : ... .. . ... ... : ... .. . ... ... : ... .. . ... : ... .. . F04 ... : ... .. . ... ... ... ...
ROW 0A : ... .. 1 ... ... : ... .. . ... ... : D#2 11 . 200 ... : ... .. . ... : ... .. . F03 ... : D#3 00 . I00 J5B ... ...
ROW 0B : ... .. . ... ... : ... .. . ... ... : ... .. . S03 ... : ... .. . ... : ... .. . F02 ... : ... .. . ... ... ... ...
ROW 0C : F-3 10 5 ... ... : ... .. B ... ... : F-2 11 . ... ... : D-# 05 4 ... : G#3 1F . F07 ... : F-3 00 . I00 J66 ... ...
ROW 0D : ... .. 4 ... ... : ... .. . ... ... : ... .. . S03 ... : ... .. . ... : ... .. . F04 ... : ... .. . ... ... ... ...
ROW 0E : ... .. 3 ... ... : ... .. A ... ... : ... .. . ... ... : D-# 05 . ... : ... .. . F03 ... : ... .. . ... ... ... ...
ROW 0F : ... .. 2 ... ... : ... .. . ... ... : ... .. . ... ... : ... .. . ... : ... .. . F02 ... : ... .. . ... ... ... ...
ROW 10 : F-3 10 5 ... ... : ... .. 9 ... ... : C#4 03 . 246 ... : ... .. . ... : G#3 1F . F07 ... : C#3 00 . I00 J51 ... ...
ROW 11 : ... .. 4 ... ... : ... .. . ... ... : ... .. . ... ... : ... .. . ... : ... .. . F04 ... : ... .. . ... ... ... ...
ROW 12 : ... .. 3 ... ... : ... .. 8 ... ... : C#2 11 . 200 ... : ... .. . ... : ... .. . F03 ... : C#3 00 . I00 J51 ... ...
ROW 13 : ... .. 2 ... ... : ... .. . ... ... : ... .. . S03 ... : ... .. . ... : ... .. . F02 ... : ... .. . ... ... ... ...
ROW 14 : F-3 10 5 ... ... : ... .. 7 ... ... : C#2 11 . ... ... : D-# 05 . ... : G#3 1F . F07 ... : C#3 00 . I00 J51 ... ...
ROW 15 : ... .. 4 ... ... : ... .. . ... ... : ... .. . S03 ... : ... .. . ... : ... .. . F04 ... : ... .. . ... ... ... ...
ROW 16 : ... .. 3 ... ... : ... .. 6 ... ... : ... .. . ... ... : D-# 05 . ... : ... .. . F03 ... : ... .. . ... ... ... ...
ROW 17 : ... .. 2 ... ... : ... .. . ... ... : ... .. . ... ... : ... .. . ... : ... .. . F02 ... : ... .. . ... ... ... ...
ROW 18 : F-3 10 5 ... ... : ... .. 5 ... ... : D#4 03 . 246 ... : ... .. . ... : G#3 1F . F07 ... : D#3 00 . I00 J5B ... ...
ROW 19 : ... .. 4 ... ... : ... .. . ... ... : ... .. . ... ... : ... .. . ... : ... .. . F04 ... : ... .. . ... ... ... ...
ROW 1A : ... .. 3 ... ... : ... .. 4 ... ... : D#2 11 . 200 ... : D-# 05 . ... : ... .. . F03 ... : D#3 00 . I00 J5B ... ...
ROW 1B : ... .. 2 ... ... : ... .. . ... ... : ... .. . S03 ... : ... .. . ... : ... .. . F02 ... : ... .. . ... ... ... ...
ROW 1C : F-3 10 5 ... ... : ... .. 3 ... ... : D#2 11 . ... ... : 6-# 08 8 ... : G#3 1F . F07 ... : D#3 00 . I00 J5B ... ...
ROW 1D : ... .. 4 ... ... : ... .. . ... ... : ... .. . S03 ... : ... .. . ... : ... .. . F04 ... : ... .. . ... ... ... ...
ROW 1E : ... .. 3 ... ... : ... .. 2 ... ... : ... .. . ... ... : ... .. . ... : ... .. . F03 ... : ... .. . ... ... ... ...
ROW 1F : ... .. 2 ... ... : ... .. . ... ... : ... .. . ... ... : ... .. . ... : ... .. . F02 ... : ... .. . ... ... ... ...
ROW 20 : F-3 10 5 ... ... : ... .. 1 ... ... : F-4 03 . 246 ... : D-# 05 4 ... : G-3 1F . F07 ... : F-3 00 . I00 J66 ... ...
ROW 21 : ... .. 4 ... ... : ... .. . ... ... : ... .. . ... ... : ... .. . ... : ... .. . F04 ... : ... .. . ... ... ... ...
ROW 22 : ... .. 3 ... ... : --- .. . ... ... : F-2 11 . 200 ... : ... .. . ... : ... .. . F03 ... : F-3 00 . I00 J66 ... ...
ROW 23 : ... .. 2 ... ... : ... .. . ... ... : ... .. . S03 ... : ... .. . ... : ... .. . F02 ... : ... .. . ... ... ... ...
ROW 24 : ... .. 1 ... ... : ... .. . ... ... : F-2 11 . ... ... : D-# 05 . ... : G-3 1F . F07 ... : F-3 00 . I00 J66 ... ...
ROW 25 : ... .. . ... ... : ... .. . ... ... : ... .. . S03 ... : ... .. . ... : ... .. . F04 ... : ... .. . ... ... ... ...
ROW 26 : F-3 10 5 ... ... : ... .. . ... ... : ... .. . ... ... : 6-# 08 8 ... : ... .. . F03 ... : ... .. . ... ... ... ...
ROW 27 : ... .. 4 ... ... : ... .. . ... ... : ... .. . ... ... : ... .. . ... : ... .. . F02 ... : ... .. . ... ... ... ...
ROW 28 : ... .. 3 ... ... : ... .. . ... ... : F-3 03 . 246 ... : ... .. . ... : D#3 1E . F07 ... : ... .. . ... ... ... ...
ROW 29 : ... .. 2 ... ... : ... .. . ... ... : ... .. . ... ... : ... .. . ... : ... .. . F04 ... : ... .. . ... ... ... ...
ROW 2A : ... .. 1 ... ... : ... .. . ... ... : ... .. . ... ... : ... .. . ... : ... .. . F03 ... : ... .. . ... ... ... ...
ROW 2B : ... .. . ... ... : ... .. . ... ... : ... .. . ... ... : ... .. . ... : ... .. . F02 ... : ... .. . ... ... ... ...
ROW 2C : F-3 10 5 ... ... : ... .. . ... ... : F-2 11 . 200 ... : D-# 05 4 ... : D#3 1E . F07 ... : F-3 00 . I00 J66 ... ...
ROW 2D : ... .. 4 ... ... : ... .. . ... ... : ... .. . S03 ... : ... .. . ... : ... .. . F04 ... : ... .. . ... ... ... ...
ROW 2E : ... .. 3 ... ... : ... .. . ... ... : F-2 11 . ... ... : D-# 05 . ... : ... .. . F03 ... : F-3 00 . I00 J66 ... ...
ROW 2F : ... .. 2 ... ... : ... .. . ... ... : ... .. . S03 ... : ... .. . ... : ... .. . F02 ... : ... .. . ... ... ... ...
ROW 30 : F-3 10 5 ... ... : E-3 0F C 400 Q01 : D#4 03 . 246 ... : ... .. . ... : A#3 1F . F07 ... : F-3 00 . I00 J66 ... ...
ROW 31 : ... .. 4 ... ... : ... .. . ... ... : ... .. . ... ... : ... .. . ... : ... .. . F04 ... : ... .. . ... ... ... ...
ROW 32 : ... .. 3 ... ... : ... .. . ... ... : ... .. . ... ... : ... .. . ... : ... .. . F03 ... : ... .. . ... ... ... ...
ROW 33 : ... .. 2 ... ... : ... .. . ... ... : ... .. . ... ... : ... .. . ... : ... .. . F02 ... : ... .. . ... ... ... ...
ROW 34 : F-3 10 5 ... ... : ... .. . 465 ... : C-2 11 . 200 ... : D-# 05 . ... : A#3 1F . F07 ... : F-3 00 . I00 J66 ... ...
ROW 35 : ... .. 4 ... ... : ... .. . ... ... : ... .. . S03 ... : ... .. . ... : ... .. . F04 ... : ... .. . ... ... ... ...
ROW 36 : ... .. 3 ... ... : ... .. 6 ... ... : ... .. . ... ... : D-# 05 . ... : ... .. . F03 ... : ... .. . ... ... ... ...
ROW 37 : ... .. 2 ... ... : ... .. 4 ... ... : ... .. . ... ... : ... .. . ... : ... .. . F02 ... : ... .. . ... ... ... ...
ROW 38 : G-3 10 5 ... ... : G-3 0F C 400 ... : A#3 03 . 246 ... : ... .. . ... : D#4 1E . F07 ... : F-3 00 . I00 J66 ... ...
ROW 39 : ... .. 4 ... ... : ... .. . ... ... : ... .. . ... ... : ... .. . ... : ... .. . F04 ... : ... .. . ... ... ... ...
ROW 3A : ... .. 3 ... ... : ... .. . ... ... : ... .. . ... ... : D-# 05 . ... : ... .. . F03 ... : ... .. . ... ... ... ...
ROW 3B : ... .. 2 ... ... : ... .. . ... ... : ... .. . ... ... : ... .. . ... : ... .. . F02 ... : ... .. . ... ... ... ...
ROW 3C : G-3 10 5 ... ... : ... .. . 465 ... : C-2 11 . 200 ... : 6-# 08 8 ... : D#4 1E . F07 ... : F-3 00 . I00 J66 ... ...
ROW 3D : ... .. 4 ... ... : ... .. . ... ... : ... .. . S03 ... : ... .. . ... : ... .. . F04 ... : ... .. . ... ... ... ...
ROW 3E : ... .. 3 ... ... : ... .. 6 ... ... : ... .. . ... ... : ... .. . ... : ... .. . F03 ... : ... .. . ... ... ... ...
ROW 3F : ... .. 2 ... ... : ... .. 4 ... ... : ... .. . ... ... : ... .. . ... : ... .. . F02 D00 : ... .. . ... ... ... ...
ROW 40 : ... .. . ... ... : ... .. . ... ... : ... .. . ... ... : ... .. . ... : ... .. . ... ... : ... .. . ... ... ... ...
ROW 41 : ... .. . ... ... : ... .. . ... ... : ... .. . ... ... : ... .. . ... : ... .. . ... ... : ... .. . ... ... ... ...
ROW 42 : ... .. . ... ... : ... .. . ... ... : ... .. . ... ... : ... .. . ... : ... .. . ... ... : ... .. . ... ... ... ...
ROW 43 : ... .. . ... ... : ... .. . ... ... : ... .. . ... ... : ... .. . ... : ... .. . ... ... : ... .. . ... ... ... ...
ROW 44 : ... .. . ... ... : ... .. . ... ... : ... .. . ... ... : ... .. . ... : ... .. . ... ... : ... .. . ... ... ... ...
ROW 45 : ... .. . ... ... : ... .. . ... ... : ... .. . ... ... : ... .. . ... : ... .. . ... ... : ... .. . ... ... ... ...
ROW 46 : ... .. . ... ... : ... .. . ... ... : ... .. . ... ... : ... .. . ... : ... .. . ... ... : ... .. . ... ... ... ...
ROW 47 : ... .. . ... ... : ... .. . ... ... : ... .. . ... ... : ... .. . ... : ... .. . ... ... : ... .. . ... ... ... ...
ROW 48 : ... .. . ... ... : ... .. . ... ... : ... .. . ... ... : ... .. . ... : ... .. . ... ... : ... .. . ... ... ... ...
ROW 49 : ... .. . ... ... : ... .. . ... ... : ... .. . ... ... : ... .. . ... : ... .. . ... ... : ... .. . ... ... ... ...
ROW 4A : ... .. . ... ... : ... .. . ... ... : ... .. . ... ... : ... .. . ... : ... .. . ... ... : ... .. . ... ... ... ...
ROW 4B : ... .. . ... ... : ... .. . ... ... : ... .. . ... ... : ... .. . ... : ... .. . ... ... : ... .. . ... ... ... ...
ROW 4C : ... .. . ... ... : ... .. . ... ... : ... .. . ... ... : ... .. . ... : ... .. . ... ... : ... .. . ... ... ... ...
ROW 4D : ... .. . ... ... : ... .. . ... ... : ... .. . ... ... : ... .. . ... : ... .. . ... ... : ... .. . ... ... ... ...
ROW 4E : ... .. . ... ... : ... .. . ... ... : ... .. . ... ... : ... .. . ... : ... .. . ... ... : ... .. . ... ... ... ...
ROW 4F : ... .. . ... ... : ... .. . ... ... : ... .. . ... ... : ... .. . ... : ... .. . ... ... : ... .. . ... ... ... ...
ROW 50 : ... .. . ... ... : ... .. . ... ... : ... .. . ... ... : ... .. . ... : ... .. . ... ... : ... .. . ... ... ... ...
ROW 51 : ... .. . ... ... : ... .. . ... ... : ... .. . ... ... : ... .. . ... : ... .. . ... ... : ... .. . ... ... ... ...
ROW 52 : ... .. . ... ... : ... .. . ... ... : ... .. . ... ... : ... .. . ... : ... .. . ... ... : ... .. . ... ... ... ...
ROW 53 : ... .. . ... ... : ... .. . ... ... : ... .. . ... ... : ... .. . ... : ... .. . ... ... : ... .. . ... ... ... ...
ROW 54 : ... .. . ... ... : ... .. . ... ... : ... .. . ... ... : ... .. . ... : ... .. . ... ... : ... .. . ... ... ... ...
ROW 55 : ... .. . ... ... : ... .. . ... ... : ... .. . ... ... : ... .. . ... : ... .. . ... ... : ... .. . ... ... ... ...
ROW 56 : ... .. . ... ... : ... .. . ... ... : ... .. . ... ... : ... .. . ... : ... .. . ... ... : ... .. . ... ... ... ...
ROW 57 : ... .. . ... ... : ... .. . ... ... : ... .. . ... ... : ... .. . ... : ... .. . ... ... : ... .. . ... ... ... ...
ROW 58 : ... .. . ... ... : ... .. . ... ... : ... .. . ... ... : ... .. . ... : ... .. . ... ... : ... .. . ... ... ... ...
ROW 59 : ... .. . ... ... : ... .. . ... ... : ... .. . ... ... : ... .. . ... : ... .. . ... ... : ... .. . ... ... ... ...
ROW 5A : ... .. . ... ... : ... .. . ... ... : ... .. . ... ... : ... .. . ... : ... .. . ... ... : ... .. . ... ... ... ...
ROW 5B : ... .. . ... ... : ... .. . ... ... : ... .. . ... ... : ... .. . ... : ... .. . ... ... : ... .. . ... ... ... ...
ROW 5C : ... .. . ... ... : ... .. . ... ... : ... .. . ... ... : ... .. . ... : ... .. . ... ... : ... .. . ... ... ... ...
ROW 5D : ... .. . ... ... : ... .. . ... ... : ... .. . ... ... : ... .. . ... : ... .. . ... ... : ... .. . ... ... ... ...
ROW 5E : ... .. . ... ... : ... .. . ... ... : ... .. . ... ... : ... .. . ... : ... .. . ... ... : ... .. . ... ... ... ...
ROW 5F : ... .. . ... ... : ... .. . ... ... : ... .. . ... ... : ... .. . ... : ... .. . ... ... : ... .. . ... ... ... ...
ROW 60 : ... .. . ... ... : ... .. . ... ... : ... .. . ... ... : ... .. . ... : ... .. . ... ... : ... .. . ... ... ... ...
ROW 61 : ... .. . ... ... : ... .. . ... ... : ... .. . ... ... : ... .. . ... : ... .. . ... ... : ... .. . ... ... ... ...
ROW 62 : ... .. . ... ... : ... .. . ... ... : ... .. . ... ... : ... .. . ... : ... .. . ... ... : ... .. . ... ... ... ...
ROW 63 : ... .. . ... ... : ... .. . ... ... : ... .. . ... ... : ... .. . ... : ... .. . ... ... : ... .. . ... ... ... ...
ROW 64 : ... .. . ... ... : ... .. . ... ... : ... .. . ... ... : ... .. . ... : ... .. . ... ... : ... .. . ... ... ... ...
ROW 65 : ... .. . ... ... : ... .. . ... ... : ... .. . ... ... : ... .. . ... : ... .. . ... ... : ... .. . ... ... ... ...
ROW 66 : ... .. . ... ... : ... .. . ... ... : ... .. . ... ... : ... .. . ... : ... .. . ... ... : ... .. . ... ... ... ...
ROW 67 : ... .. . ... ... : ... .. . ... ... : ... .. . ... ... : ... .. . ... : ... .. . ... ... : ... .. . ... ... ... ...
ROW 68 : ... .. . ... ... : ... .. . ... ... : ... .. . ... ... : ... .. . ... : ... .. . ... ... : ... .. . ... ... ... ...
ROW 69 : ... .. . ... ... : ... .. . ... ... : ... .. . ... ... : ... .. . ... : ... .. . ... ... : ... .. . ... ... ... ...
ROW 6A : ... .. . ... ... : ... .. . ... ... : ... .. . ... ... : ... .. . ... : ... .. . ... ... : ... .. . ... ... ... ...
ROW 6B : ... .. . ... ... : ... .. . ... ... : ... .. . ... ... : ... .. . ... : ... .. . ... ... : ... .. . ... ... ... ...
ROW 6C : ... .. . ... ... : ... .. . ... ... : ... .. . ... ... : ... .. . ... : ... .. . ... ... : ... .. . ... ... ... ...
ROW 6D : ... .. . ... ... : ... .. . ... ... : ... .. . ... ... : ... .. . ... : ... .. . ... ... : ... .. . ... ... ... ...
ROW 6E : ... .. . ... ... : ... .. . ... ... : ... .. . ... ... : ... .. . ... : ... .. . ... ... : ... .. . ... ... ... ...
ROW 6F : ... .. . ... ... : ... .. . ... ... : ... .. . ... ... : ... .. . ... : ... .. . ... ... : ... .. . ... ... ... ...
ROW 70 : ... .. . ... ... : ... .. . ... ... : ... .. . ... ... : ... .. . ... : ... .. . ... ... : ... .. . ... ... ... ...
ROW 71 : ... .. . ... ... : ... .. . ... ... : ... .. . ... ... : ... .. . ... : ... .. . ... ... : ... .. . ... ... ... ...
ROW 72 : ... .. . ... ... : ... .. . ... ... : ... .. . ... ... : ... .. . ... : ... .. . ... ... : ... .. . ... ... ... ...
ROW 73 : ... .. . ... ... : ... .. . ... ... : ... .. . ... ... : ... .. . ... : ... .. . ... ... : ... .. . ... ... ... ...
ROW 74 : ... .. . ... ... : ... .. . ... ... : ... .. . ... ... : ... .. . ... : ... .. . ... ... : ... .. . ... ... ... ...
ROW 75 : ... .. . ... ... : ... .. . ... ... : ... .. . ... ... : ... .. . ... : ... .. . ... ... : ... .. . ... ... ... ...
ROW 76 : ... .. . ... ... : ... .. . ... ... : ... .. . ... ... : ... .. . ... : ... .. . ... ... : ... .. . ... ... ... ...
ROW 77 : ... .. . ... ... : ... .. . ... ... : ... .. . ... ... : ... .. . ... : ... .. . ... ... : ... .. . ... ... ... ...
ROW 78 : ... .. . ... ... : ... .. . ... ... : ... .. . ... ... : ... .. . ... : ... .. . ... ... : ... .. . ... ... ... ...
ROW 79 : ... .. . ... ... : ... .. . ... ... : ... .. . ... ... : ... .. . ... : ... .. . ... ... : ... .. . ... ... ... ...
ROW 7A : ... .. . ... ... : ... .. . ... ... : ... .. . ... ... : ... .. . ... : ... .. . ... ... : ... .. . ... ... ... ...
ROW 7B : ... .. . ... ... : ... .. . ... ... : ... .. . ... ... : ... .. . ... : ... .. . ... ... : ... .. . ... ... ... ...
ROW 7C : ... .. . ... ... : ... .. . ... ... : ... .. . ... ... : ... .. . ... : ... .. . ... ... : ... .. . ... ... ... ...
ROW 7D : ... .. . ... ... : ... .. . ... ... : ... .. . ... ... : ... .. . ... : ... .. . ... ... : ... .. . ... ... ... ...
ROW 7E : ... .. . ... ... : ... .. . ... ... : ... .. . ... ... : ... .. . ... : ... .. . ... ... : ... .. . ... ... ... ...
ROW 7F : ... .. . ... ... : ... .. . ... ... : ... .. . ... ... : ... .. . ... : ... .. . ... ... : ... .. . ... ... ... ...
ROW 80 : ... .. . ... ... : ... .. . ... ... : ... .. . ... ... : ... .. . ... : ... .. . ... ... : ... .. . ... ... ... ...
ROW 81 : ... .. . ... ... : ... .. . ... ... : ... .. . ... ... : ... .. . ... : ... .. . ... ... : ... .. . ... ... ... ...
ROW 82 : ... .. . ... ... : ... .. . ... ... : ... .. . ... ... : ... .. . ... : ... .. . ... ... : ... .. . ... ... ... ...
ROW 83 : ... .. . ... ... : ... .. . ... ... : ... .. . ... ... : ... .. . ... : ... .. . ... ... : ... .. . ... ... ... ...
ROW 84 : ... .. . ... ... : ... .. . ... ... : ... .. . ... ... : ... .. . ... : ... .. . ... ... : ... .. . ... ... ... ...
ROW 85 : ... .. . ... ... : ... .. . ... ... : ... .. . ... ... : ... .. . ... : ... .. . ... ... : ... .. . ... ... ... ...
ROW 86 : ... .. . ... ... : ... .. . ... ... : ... .. . ... ... : ... .. . ... : ... .. . ... ... : ... .. . ... ... ... ...
ROW 87 : ... .. . ... ... : ... .. . ... ... : ... .. . ... ... : ... .. . ... : ... .. . ... ... : ... .. . ... ... ... ...
ROW 88 : ... .. . ... ... : ... .. . ... ... : ... .. . ... ... : ... .. . ... : ... .. . ... ... : ... .. . ... ... ... ...
ROW 89 : ... .. . ... ... : ... .. . ... ... : ... .. . ... ... : ... .. . ... : ... .. . ... ... : ... .. . ... ... ... ...
ROW 8A : ... .. . ... ... : ... .. . ... ... : ... .. . ... ... : ... .. . ... : ... .. . ... ... : ... .. . ... ... ... ...
ROW 8B : ... .. . ... ... : ... .. . ... ... : ... .. . ... ... : ... .. . ... : ... .. . ... ... : ... .. . ... ... ... ...
ROW 8C : ... .. . ... ... : ... .. . ... ... : ... .. . ... ... : ... .. . ... : ... .. . ... ... : ... .. . ... ... ... ...
ROW 8D : ... .. . ... ... : ... .. . ... ... : ... .. . ... ... : ... .. . ... : ... .. . ... ... : ... .. . ... ... ... ...
ROW 8E : ... .. . ... ... : ... .. . ... ... : ... .. . ... ... : ... .. . ... : ... .. . ... ... : ... .. . ... ... ... ...
ROW 8F : ... .. . ... ... : ... .. . ... ... : ... .. . ... ... : ... .. . ... : ... .. . ... ... : ... .. . ... ... ... ...
ROW 90 : ... .. . ... ... : ... .. . ... ... : ... .. . ... ... : ... .. . ... : ... .. . ... ... : ... .. . ... ... ... ...
ROW 91 : ... .. . ... ... : ... .. . ... ... : ... .. . ... ... : ... .. . ... : ... .. . ... ... : ... .. . ... ... ... ...
ROW 92 : ... .. . ... ... : ... .. . ... ... : ... .. . ... ... : ... .. . ... : ... .. . ... ... : ... .. . ... ... ... ...
ROW 93 : ... .. . ... ... : ... .. . ... ... : ... .. . ... ... : ... .. . ... : ... .. . ... ... : ... .. . ... ... ... ...
ROW 94 : ... .. . ... ... : ... .. . ... ... : ... .. . ... ... : ... .. . ... : ... .. . ... ... : ... .. . ... ... ... ...
ROW 95 : ... .. . ... ... : ... .. . ... ... : ... .. . ... ... : ... .. . ... : ... .. . ... ... : ... .. . ... ... ... ...
ROW 96 : ... .. . ... ... : ... .. . ... ... : ... .. . ... ... : ... .. . ... : ... .. . ... ... : ... .. . ... ... ... ...
ROW 97 : ... .. . ... ... : ... .. . ... ... : ... .. . ... ... : ... .. . ... : ... .. . ... ... : ... .. . ... ... ... ...
ROW 98 : ... .. . ... ... : ... .. . ... ... : ... .. . ... ... : ... .. . ... : ... .. . ... ... : ... .. . ... ... ... ...
ROW 99 : ... .. . ... ... : ... .. . ... ... : ... .. . ... ... : ... .. . ... : ... .. . ... ... : ... .. . ... ... ... ...
ROW 9A : ... .. . ... ... : ... .. . ... ... : ... .. . ... ... : ... .. . ... : ... .. . ... ... : ... .. . ... ... ... ...
ROW 9B : ... .. . ... ... : ... .. . ... ... : ... .. . ... ... : ... .. . ... : ... .. . ... ... : ... .. . ... ... ... ...
ROW 9C : ... .. . ... ... : ... .. . ... ... : ... .. . ... ... : ... .. . ... : ... .. . ... ... : ... .. . ... ... ... ...
ROW 9D : ... .. . ... ... : ... .. . ... ... : ... .. . ... ... : ... .. . ... : ... .. . ... ... : ... .. . ... ... ... ...
ROW 9E : ... .. . ... ... : ... .. . ... ... : ... .. . ... ... : ... .. . ... : ... .. . ... ... : ... .. . ... ... ... ...
ROW 9F : ... .. . ... ... : ... .. . ... ... : ... .. . ... ... : ... .. . ... : ... .. . ... ... : ... .. . ... ... ... ...
ROW A0 : ... .. . ... ... : ... .. . ... ... : ... .. . ... ... : ... .. . ... : ... .. . ... ... : ... .. . ... ... ... ...
ROW A1 : ... .. . ... ... : ... .. . ... ... : ... .. . ... ... : ... .. . ... : ... .. . ... ... : ... .. . ... ... ... ...
ROW A2 : ... .. . ... ... : ... .. . ... ... : ... .. . ... ... : ... .. . ... : ... .. . ... ... : ... .. . ... ... ... ...
ROW A3 : ... .. . ... ... : ... .. . ... ... : ... .. . ... ... : ... .. . ... : ... .. . ... ... : ... .. . ... ... ... ...
ROW A4 : ... .. . ... ... : ... .. . ... ... : ... .. . ... ... : ... .. . ... : ... .. . ... ... : ... .. . ... ... ... ...
ROW A5 : ... .. . ... ... : ... .. . ... ... : ... .. . ... ... : ... .. . ... : ... .. . ... ... : ... .. . ... ... ... ...
ROW A6 : ... .. . ... ... : ... .. . ... ... : ... .. . ... ... : ... .. . ... : ... .. . ... ... : ... .. . ... ... ... ...
ROW A7 : ... .. . ... ... : ... .. . ... ... : ... .. . ... ... : ... .. . ... : ... .. . ... ... : ... .. . ... ... ... ...
ROW A8 : ... .. . ... ... : ... .. . ... ... : ... .. . ... ... : ... .. . ... : ... .. . ... ... : ... .. . ... ... ... ...
ROW A9 : ... .. . ... ... : ... .. . ... ... : ... .. . ... ... : ... .. . ... : ... .. . ... ... : ... .. . ... ... ... ...
ROW AA : ... .. . ... ... : ... .. . ... ... : ... .. . ... ... : ... .. . ... : ... .. . ... ... : ... .. . ... ... ... ...
ROW AB : ... .. . ... ... : ... .. . ... ... : ... .. . ... ... : ... .. . ... : ... .. . ... ... : ... .. . ... ... ... ...
ROW AC : ... .. . ... ... : ... .. . ... ... : ... .. . ... ... : ... .. . ... : ... .. . ... ... : ... .. . ... ... ... ...
ROW AD : ... .. . ... ... : ... .. . ... ... : ... .. . ... ... : ... .. . ... : ... .. . ... ... : ... .. . ... ... ... ...
ROW AE : ... .. . ... ... : ... .. . ... ... : ... .. . ... ... : ... .. . ... : ... .. . ... ... : ... .. . ... ... ... ...
ROW AF : ... .. . ... ... : ... .. . ... ... : ... .. . ... ... : ... .. . ... : ... .. . ... ... : ... .. . ... ... ... ...
ROW B0 : ... .. . ... ... : ... .. . ... ... : ... .. . ... ... : ... .. . ... : ... .. . ... ... : ... .. . ... ... ... ...
ROW B1 : ... .. . ... ... : ... .. . ... ... : ... .. . ... ... : ... .. . ... : ... .. . ... ... : ... .. . ... ... ... ...
ROW B2 : ... .. . ... ... : ... .. . ... ... : ... .. . ... ... : ... .. . ... : ... .. . ... ... : ... .. . ... ... ... ...
ROW B3 : ... .. . ... ... : ... .. . ... ... : ... .. . ... ... : ... .. . ... : ... .. . ... ... : ... .. . ... ... ... ...
ROW B4 : ... .. . ... ... : ... .. . ... ... : ... .. . ... ... : ... .. . ... : ... .. . ... ... : ... .. . ... ... ... ...
ROW B5 : ... .. . ... ... : ... .. . ... ... : ... .. . ... ... : ... .. . ... : ... .. . ... ... : ... .. . ... ... ... ...
ROW B6 : ... .. . ... ... : ... .. . ... ... : ... .. . ... ... : ... .. . ... : ... .. . ... ... : ... .. . ... ... ... ...
ROW B7 : ... .. . ... ... : ... .. . ... ... : ... .. . ... ... : ... .. . ... : ... .. . ... ... : ... .. . ... ... ... ...
ROW B8 : ... .. . ... ... : ... .. . ... ... : ... .. . ... ... : ... .. . ... : ... .. . ... ... : ... .. . ... ... ... ...
ROW B9 : ... .. . ... ... : ... .. . ... ... : ... .. . ... ... : ... .. . ... : ... .. . ... ... : ... .. . ... ... ... ...
ROW BA : ... .. . ... ... : ... .. . ... ... : ... .. . ... ... : ... .. . ... : ... .. . ... ... : ... .. . ... ... ... ...
ROW BB : ... .. . ... ... : ... .. . ... ... : ... .. . ... ... : ... .. . ... : ... .. . ... ... : ... .. . ... ... ... ...
ROW BC : ... .. . ... ... : ... .. . ... ... : ... .. . ... ... : ... .. . ... : ... .. . ... ... : ... .. . ... ... ... ...
ROW BD : ... .. . ... ... : ... .. . ... ... : ... .. . ... ... : ... .. . ... : ... .. . ... ... : ... .. . ... ... ... ...
ROW BE : ... .. . ... ... : ... .. . ... ... : ... .. . ... ... : ... .. . ... : ... .. . ... ... : ... .. . ... ... ... ...
ROW BF : ... .. . ... ... : ... .. . ... ... : ... .. . ... ... : ... .. . ... : ... .. . ... ... : ... .. . ... ... ... ...
ROW C0 : ... .. . ... ... : ... .. . ... ... : ... .. . ... ... : ... .. . ... : ... .. . ... ... : ... .. . ... ... ... ...
ROW C1 : ... .. . ... ... : ... .. . ... ... : ... .. . ... ... : ... .. . ... : ... .. . ... ... : ... .. . ... ... ... ...
ROW C2 : ... .. . ... ... : ... .. . ... ... : ... .. . ... ... : ... .. . ... : ... .. . ... ... : ... .. . ... ... ... ...
ROW C3 : ... .. . ... ... : ... .. . ... ... : ... .. . ... ... : ... .. . ... : ... .. . ... ... : ... .. . ... ... ... ...
ROW C4 : ... .. . ... ... : ... .. . ... ... : ... .. . ... ... : ... .. . ... : ... .. . ... ... : ... .. . ... ... ... ...
ROW C5 : ... .. . ... ... : ... .. . ... ... : ... .. . ... ... : ... .. . ... : ... .. . ... ... : ... .. . ... ... ... ...
ROW C6 : ... .. . ... ... : ... .. . ... ... : ... .. . ... ... : ... .. . ... : ... .. . ... ... : ... .. . ... ... ... ...
ROW C7 : ... .. . ... ... : ... .. . ... ... : ... .. . ... ... : ... .. . ... : ... .. . ... ... : ... .. . ... ... ... ...
ROW C8 : ... .. . ... ... : ... .. . ... ... : ... .. . ... ... : ... .. . ... : ... .. . ... ... : ... .. . ... ... ... ...
ROW C9 : ... .. . ... ... : ... .. . ... ... : ... .. . ... ... : ... .. . ... : ... .. . ... ... : ... .. . ... ... ... ...
ROW CA : ... .. . ... ... : ... .. . ... ... : ... .. . ... ... : ... .. . ... : ... .. . ... ... : ... .. . ... ... ... ...
ROW CB : ... .. . ... ... : ... .. . ... ... : ... .. . ... ... : ... .. . ... : ... .. . ... ... : ... .. . ... ... ... ...
ROW CC : ... .. . ... ... : ... .. . ... ... : ... .. . ... ... : ... .. . ... : ... .. . ... ... : ... .. . ... ... ... ...
ROW CD : ... .. . ... ... : ... .. . ... ... : ... .. . ... ... : ... .. . ... : ... .. . ... ... : ... .. . ... ... ... ...
ROW CE : ... .. . ... ... : ... .. . ... ... : ... .. . ... ... : ... .. . ... : ... .. . ... ... : ... .. . ... ... ... ...
ROW CF : ... .. . ... ... : ... .. . ... ... : ... .. . ... ... : ... .. . ... : ... .. . ... ... : ... .. . ... ... ... ...
ROW D0 : ... .. . ... ... : ... .. . ... ... : ... .. . ... ... : ... .. . ... : ... .. . ... ... : ... .. . ... ... ... ...
ROW D1 : ... .. . ... ... : ... .. . ... ... : ... .. . ... ... : ... .. . ... : ... .. . ... ... : ... .. . ... ... ... ...
ROW D2 : ... .. . ... ... : ... .. . ... ... : ... .. . ... ... : ... .. . ... : ... .. . ... ... : ... .. . ... ... ... ...
ROW D3 : ... .. . ... ... : ... .. . ... ... : ... .. . ... ... : ... .. . ... : ... .. . ... ... : ... .. . ... ... ... ...
ROW D4 : ... .. . ... ... : ... .. . ... ... : ... .. . ... ... : ... .. . ... : ... .. . ... ... : ... .. . ... ... ... ...
ROW D5 : ... .. . ... ... : ... .. . ... ... : ... .. . ... ... : ... .. . ... : ... .. . ... ... : ... .. . ... ... ... ...
ROW D6 : ... .. . ... ... : ... .. . ... ... : ... .. . ... ... : ... .. . ... : ... .. . ... ... : ... .. . ... ... ... ...
ROW D7 : ... .. . ... ... : ... .. . ... ... : ... .. . ... ... : ... .. . ... : ... .. . ... ... : ... .. . ... ... ... ...
ROW D8 : ... .. . ... ... : ... .. . ... ... : ... .. . ... ... : ... .. . ... : ... .. . ... ... : ... .. . ... ... ... ...
ROW D9 : ... .. . ... ... : ... .. . ... ... : ... .. . ... ... : ... .. . ... : ... .. . ... ... : ... .. . ... ... ... ...
ROW DA : ... .. . ... ... : ... .. . ... ... : ... .. . ... ... : ... .. . ... : ... .. . ... ... : ... .. . ... ... ... ...
ROW DB : ... .. . ... ... : ... .. . ... ... : ... .. . ... ... : ... .. . ... : ... .. . ... ... : ... .. . ... ... ... ...
ROW DC : ... .. . ... ... : ... .. . ... ... : ... .. . ... ... : ... .. . ... : ... .. . ... ... : ... .. . ... ... ... ...
ROW DD : ... .. . ... ... : ... .. . ... ... : ... .. . ... ... : ... .. . ... : ... .. . ... ... : ... .. . ... ... ... ...
ROW DE : ... .. . ... ... : ... .. . ... ... : ... .. . ... ... : ... .. . ... : ... .. . ... ... : ... .. . ... ... ... ...
ROW DF : ... .. . ... ... : ... .. . ... ... : ... .. . ... ... : ... .. . ... : ... .. . ... ... : ... .. . ... ... ... ...
ROW E0 : ... .. . ... ... : ... .. . ... ... : ... .. . ... ... : ... .. . ... : ... .. . ... ... : ... .. . ... ... ... ...
ROW E1 : ... .. . ... ... : ... .. . ... ... : ... .. . ... ... : ... .. . ... : ... .. . ... ... : ... .. . ... ... ... ...
ROW E2 : ... .. . ... ... : ... .. . ... ... : ... .. . ... ... : ... .. . ... : ... .. . ... ... : ... .. . ... ... ... ...
ROW E3 : ... .. . ... ... : ... .. . ... ... : ... .. . ... ... : ... .. . ... : ... .. . ... ... : ... .. . ... ... ... ...
ROW E4 : ... .. . ... ... : ... .. . ... ... : ... .. . ... ... : ... .. . ... : ... .. . ... ... : ... .. . ... ... ... ...
ROW E5 : ... .. . ... ... : ... .. . ... ... : ... .. . ... ... : ... .. . ... : ... .. . ... ... : ... .. . ... ... ... ...
ROW E6 : ... .. . ... ... : ... .. . ... ... : ... .. . ... ... : ... .. . ... : ... .. . ... ... : ... .. . ... ... ... ...
ROW E7 : ... .. . ... ... : ... .. . ... ... : ... .. . ... ... : ... .. . ... : ... .. . ... ... : ... .. . ... ... ... ...
ROW E8 : ... .. . ... ... : ... .. . ... ... : ... .. . ... ... : ... .. . ... : ... .. . ... ... : ... .. . ... ... ... ...
ROW E9 : ... .. . ... ... : ... .. . ... ... : ... .. . ... ... : ... .. . ... : ... .. . ... ... : ... .. . ... ... ... ...
ROW EA : ... .. . ... ... : ... .. . ... ... : ... .. . ... ... : ... .. . ... : ... .. . ... ... : ... .. . ... ... ... ...
ROW EB : ... .. . ... ... : ... .. . ... ... : ... .. . ... ... : ... .. . ... : ... .. . ... ... : ... .. . ... ... ... ...
ROW EC : ... .. . ... ... : ... .. . ... ... : ... .. . ... ... : ... .. . ... : ... .. . ... ... : ... .. . ... ... ... ...
ROW ED : ... .. . ... ... : ... .. . ... ... : ... .. . ... ... : ... .. . ... : ... .. . ... ... : ... .. . ... ... ... ...
ROW EE : ... .. . ... ... : ... .. . ... ... : ... .. . ... ... : ... .. . ... : ... .. . ... ... : ... .. . ... ... ... ...
ROW EF : ... .. . ... ... : ... .. . ... ... : ... .. . ... ... : ... .. . ... : ... .. . ... ... : ... .. . ... ... ... ...
ROW F0 : ... .. . ... ... : ... .. . ... ... : ... .. . ... ... : ... .. . ... : ... .. . ... ... : ... .. . ... ... ... ...
ROW F1 : ... .. . ... ... : ... .. . ... ... : ... .. . ... ... : ... .. . ... : ... .. . ... ... : ... .. . ... ... ... ...
ROW F2 : ... .. . ... ... : ... .. . ... ... : ... .. . ... ... : ... .. . ... : ... .. . ... ... : ... .. . ... ... ... ...
ROW F3 : ... .. . ... ... : ... .. . ... ... : ... .. . ... ... : ... .. . ... : ... .. . ... ... : ... .. . ... ... ... ...
ROW F4 : ... .. . ... ... : ... .. . ... ... : ... .. . ... ... : ... .. . ... : ... .. . ... ... : ... .. . ... ... ... ...
ROW F5 : ... .. . ... ... : ... .. . ... ... : ... .. . ... ... : ... .. . ... : ... .. . ... ... : ... .. . ... ... ... ...
ROW F6 : ... .. . ... ... : ... .. . ... ... : ... .. . ... ... : ... .. . ... : ... .. . ... ... : ... .. . ... ... ... ...
ROW F7 : ... .. . ... ... : ... .. . ... ... : ... .. . ... ... : ... .. . ... : ... .. . ... ... : ... .. . ... ... ... ...
ROW F8 : ... .. . ... ... : ... .. . ... ... : ... .. . ... ... : ... .. . ... : ... .. . ... ... : ... .. . ... ... ... ...
ROW F9 : ... .. . ... ... : ... .. . ... ... : ... .. . ... ... : ... .. . ... : ... .. . ... ... : ... .. . ... ... ... ...
ROW FA : ... .. . ... ... : ... .. . ... ... : ... .. . ... ... : ... .. . ... : ... .. . ... ... : ... .. . ... ... ... ...
ROW FB : ... .. . ... ... : ... .. . ... ... : ... .. . ... ... : ... .. . ... : ... .. . ... ... : ... .. . ... ... ... ...
ROW FC : ... .. . ... ... : ... .. . ... ... : ... .. . ... ... : ... .. . ... : ... .. . ... ... : ... .. . ... ... ... ...
ROW FD : ... .. . ... ... : ... .. . ... ... : ... .. . ... ... : ... .. . ... : ... .. . ... ... : ... .. . ... ... ... ...
ROW FE : ... .. . ... ... : ... .. . ... ... : ... .. . ... ... : ... .. . ... : ... .. . ... ... : ... .. . ... ... ... ...
ROW FF : ... .. . ... ... : ... .. . ... ... : ... .. . ... ... : ... .. . ... : ... .. . ... ... : ... .. . ... ... ... ...

PATTERN 11
ROW 00 : G#3 10 5 ... ... : G-3 0F C 400 Q01 : F-2 11 . 200 ... : 6-# 08 8 ... : F-4 1E . F07 ... : F-3 00 C I00 J66 ... ...
ROW 01 : ... .. 4 ... ... : ... .. . ... ... : ... .. . S03 ... : ... .. . ... : ... .. . F04 ... : ... .. . ... ... ... ...
ROW 02 : ... .. 3 ... ... : ... .. . ... ... : ... .. . ... ... : ... .. . ... : ... .. . F03 ... : ... .. . ... ... ... ...
ROW 03 : ... .. 2 ... ... : ... .. . ... ... : ... .. . ... ... : ... .. . ... : ... .. . F02 ... : ... .. . ... ... ... ...
ROW 04 : ... .. 1 ... ... : ... .. . ... ... : D#3 11 . ... ... : D-# 05 4 ... : F-4 1E . F07 ... : D#4 00 . I00 JB6 ... ...
ROW 05 : ... .. . ... ... : ... .. . ... ... : ... .. . S03 ... : ... .. . ... : ... .. . F04 ... : ... .. . ... ... ... ...
ROW 06 : G#3 10 5 ... ... : ... .. . 465 ... : F-3 11 . ... ... : 6-# 08 8 ... : ... .. . F03 ... : F-4 00 . I00 JCD ... ...
ROW 07 : ... .. 4 ... ... : ... .. . ... ... : ... .. . S03 ... : ... .. . ... : ... .. . F02 ... : ... .. . ... ... ... ...
ROW 08 : ... .. 3 ... ... : C#3 0F C 400 ... : F-4 03 . 246 ... : ... .. . ... : F-4 1E . F07 ... : ... .. . ... ... ... ...
ROW 09 : ... .. 2 ... ... : ... .. A ... ... : ... .. . ... ... : ... .. . ... : ... .. . F04 ... : ... .. . ... ... ... ...
ROW 0A : ... .. 1 ... ... : G#3 0F 6 ... ... : D#2 11 . 200 ... : D-# 05 4 ... : ... .. . F03 ... : D#3 00 . I00 J5B ... ...
ROW 0B : ... .. . ... ... : ... .. 4 ... ... : ... .. . S03 ... : ... .. . ... : ... .. . F02 ... : ... .. . ... ... ... ...
ROW 0C : G#3 10 5 ... ... : C#3 0F C ... ... : F-2 11 . ... ... : 6-# 08 8 ... : F-4 1E . F07 ... : F-3 00 . I00 J66 ... ...
ROW 0D : ... .. 4 ... ... : ... .. . ... ... : ... .. . S03 ... : ... .. . ... : ... .. . F04 ... : ... .. . ... ... ... ...
ROW 0E : ... .. 3 ... ... : ... .. . ... ... : ... .. . ... ... : ... .. . ... : ... .. . F03 ... : ... .. . ... ... ... ...
ROW 0F : ... .. 2 ... ... : ... .. . ... ... : ... .. . ... ... : ... .. . ... : ... .. . F02 ... : ... .. . ... ... ... ...
ROW 10 : G#3 10 5 ... ... : ... .. . ... ... : C-4 03 . 246 ... : D-# 05 4 ... : F-4 1E . F07 ... : C-3 00 . I00 J4D ... ...
ROW 11 : ... .. 4 ... ... : ... .. . ... ... : ... .. . ... ... : ... .. . ... : ... .. . F04 ... : ... .. . ... ... ... ...
ROW 12 : ... .. 3 ... ... : ... .. . 465 ... : C-2 11 . 200 ... : D-# 05 . ... : ... .. . F03 ... : C-3 00 . I00 J4D ... ...
ROW 13 : ... .. 2 ... ... : ... .. . ... ... : ... .. . S03 ... : ... .. . ... : ... .. . F02 ... : ... .. . ... ... ... ...
ROW 14 : G#3 10 5 ... ... : ... .. . ... ... : C-2 11 . ... ... : 6-# 08 8 ... : F-4 1E . F07 ... : C-3 00 . I00 J4D ... ...
ROW 15 : ... .. 4 ... ... : ... .. . ... ... : ... .. . S03 ... : ... .. . ... : ... .. . F04 ... : ... .. . ... ... ... ...
ROW 16 : ... .. 3 ... ... : ... .. . ... ... : ... .. . ... ... : D-# 05 4 ... : ... .. . F03 ... : ... .. . ... ... ... ...
ROW 17 : ... .. 2 ... ... : ... .. . ... ... : ... .. . ... ... : ... .. . ... : ... .. . F02 ... : ... .. . ... ... ... ...
ROW 18 : G#3 10 5 ... ... : G-3 0F C 400 ... : D#4 03 . 246 ... : 6-# 08 8 ... : F-4 1E . F07 ... : D#3 00 . I00 J5B ... ...
ROW 19 : ... .. 4 ... ... : ... .. A ... ... : ... .. . ... ... : ... .. . ... : ... .. . F04 ... : ... .. . ... ... ... ...
ROW 1A : ... .. 3 ... ... : C#3 0F 6 ... ... : D#2 11 . 200 ... : D-# 05 4 ... : ... .. . F03 ... : D#3 00 . I00 J5B ... ...
ROW 1B : ... .. 2 ... ... : ... .. 4 ... ... : ... .. . S03 ... : ... .. . ... : ... .. . F02 ... : ... .. . ... ... ... ...
ROW 1C : G#3 10 5 ... ... : G#3 0F C ... ... : D#2 11 . ... ... : 6-# 08 8 ... : F-4 1E . F07 ... : D#3 00 . I00 J5B ... ...
ROW 1D : ... .. 4 ... ... : ... .. A ... ... : ... .. . S03 ... : ... .. . ... : ... .. . F04 ... : ... .. . ... ... ... ...
ROW 1E : ... .. 3 ... ... : G-3 0F 6 ... ... : ... .. . ... ... : 6-# 08 . ... : ... .. . F03 ... : ... .. . ... ... ... ...
ROW 1F : ... .. 2 ... ... : ... .. 4 ... ... : ... .. . ... ... : ... .. . ... : ... .. . F02 ... : ... .. . ... ... ... ...
ROW 20 : G-3 12 5 ... ... : G-3 0F C ... ... : F-4 03 . 246 ... : 6-# 08 . ... : ... .. . F07 ... : F-3 00 . I00 J66 ... ...
ROW 21 : ... .. 4 ... ... : ... .. . ... ... : ... .. . ... ... : ... .. . ... : ... .. . F04 ... : ... .. . ... ... ... ...
ROW 22 : ... .. 3 ... ... : ... .. . ... ... : F-2 11 . 200 ... : ... .. . ... : ... .. . F03 ... : F-3 00 . I00 J66 ... ...
ROW 23 : ... .. 2 ... ... : ... .. . ... ... : ... .. . S03 ... : ... .. . ... : ... .. . F02 ... : ... .. . ... ... ... ...
ROW 24 : G-3 12 1 ... ... : ... .. . 465 ... : F-2 11 . ... ... : D-# 05 4 ... : ... .. . F07 ... : F-3 00 . I00 J66 ... ...
ROW 25 : ... .. . ... ... : ... .. . ... ... : ... .. . S03 ... : ... .. . ... : ... .. . F04 ... : ... .. . ... ... ... ...
ROW 26 : ... .. 5 ... ... : ... .. . ... ... : ... .. . ... ... : 6-# 08 8 ... : ... .. . F03 ... : ... .. . ... ... ... ...
ROW 27 : ... .. 4 ... ... : ... .. . ... ... : ... .. . ... ... : ... .. . ... : ... .. . F02 ... : ... .. . ... ... ... ...
ROW 28 : D#3 13 3 ... ... : G#3 0F C 400 ... : F-4 03 . 246 ... : ... .. . ... : ... .. . F07 ... : ... .. . ... ... ... ...
ROW 29 : ... .. 2 ... ... : ... .. A ... ... : ... .. . ... ... : ... .. . ... : ... .. . F04 ... : ... .. . ... ... ... ...
ROW 2A : ... .. 1 ... ... : G-3 0F 6 ... ... : ... .. . ... ... : D-# 05 4 ... : ... .. . F03 ... : ... .. . ... ... ... ...
ROW 2B : ... .. . ... ... : ... .. 4 ... ... : ... .. . ... ... : ... .. . ... : ... .. . F02 ... : ... .. . ... ... ... ...
ROW 2C : D#3 13 5 ... ... : A#3 0F C ... ... : F-2 11 . 200 ... : 6-# 08 8 ... : ... .. . F07 ... : F-3 00 . I00 J66 ... ...
ROW 2D : ... .. 4 ... ... : ... .. . ... ... : ... .. . S03 ... : ... .. . ... : ... .. . F04 ... : ... .. . ... ... ... ...
ROW 2E : ... .. 3 ... ... : ... .. . ... ... : F-2 11 . ... ... : ... .. . ... : ... .. . F03 ... : F-3 00 . I00 J66 ... ...
ROW 2F : ... .. 2 ... ... : ... .. . ... ... : ... .. . S03 ... : ... .. . ... : ... .. . F02 ... : ... .. . ... ... ... ...
ROW 30 : A#3 10 5 ... ... : ... .. . 465 ... : F-4 03 . 246 ... : D-# 05 4 ... : ... .. . F07 ... : F-3 00 . I00 J66 ... ...
ROW 31 : ... .. 4 ... ... : ... .. . ... ... : ... .. . ... ... : ... .. . ... : ... .. . F04 ... : ... .. . ... ... ... ...
ROW 32 : ... .. 3 ... ... : ... .. . ... ... : F-3 11 . 200 ... : D-# 05 . ... : ... .. . F03 ... : F-4 00 . I00 JCD ... ...
ROW 33 : ... .. 2 ... ... : ... .. . ... ... : ... .. . S03 ... : ... .. . ... : ... .. . F02 ... : ... .. . ... ... ... ...
ROW 34 : A#3 10 5 ... ... : G#3 0F C 400 ... : ... .. . ... ... : 6-# 08 8 ... : ... .. . F07 ... : ... .. . ... ... ... ...
ROW 35 : ... .. 4 ... ... : ... .. . ... ... : ... .. . ... ... : ... .. . ... : ... .. . F04 ... : ... .. . ... ... ... ...
ROW 36 : ... .. 3 ... ... : ... .. A ... ... : F-2 11 . ... ... : D-# 05 4 ... : ... .. . F03 ... : F-3 00 . I00 J66 ... ...
ROW 37 : ... .. 2 ... ... : ... .. . ... ... : ... .. . S03 ... : ... .. . ... : ... .. . F02 ... : ... .. . ... ... ... ...
ROW 38 : D#4 13 5 ... ... : E-3 0F C Q01 ... : G-4 03 . 246 ... : 6-# 08 8 ... : ... .. . F07 ... : G-4 00 . I00 JE6 ... ...
ROW 39 : ... .. 4 ... ... : ... .. . ... ... : ... .. . ... ... : ... .. . ... : ... .. . F04 ... : ... .. . ... ... ... ...
ROW 3A : ... .. 3 ... ... : ... .. . ... ... : ... .. . ... ... : D-# 05 4 ... : ... .. . F03 ... : ... .. . ... ... ... ...
ROW 3B : ... .. 2 ... ... : ... .. . ... ... : ... .. . ... ... : ... .. . ... : ... .. . F02 ... : ... .. . ... ... ... ...
ROW 3C : D#4 13 5 ... ... : ... .. . ... ... : D#4 03 . ... ... : 6-# 08 8 ... : ... .. . F07 ... : D#3 00 . I00 J5B ... ...
ROW 3D : ... .. 4 ... ... : ... .. . ... ... : ... .. . ... ... : ... .. . ... : ... .. . F04 ... : ... .. . ... ... ... ...
ROW 3E : ... .. 3 ... ... : ... .. . 465 ... : G-4 03 . ... ... : 6-# 08 . ... : ... .. . F03 ... : G-4 00 . I00 JE6 ... ...
ROW 3F : ... .. 2 ... ... : ... .. . ... ... : ... .. . ... ... : ... .. . ... : ... .. . F02 D00 : ... .. . ... ... ... ...
ROW 40 : ... .. . ... ... : ... .. . ... ... : ... .. . ... ... : ... .. . ... : ... .. . ... ... : ... .. . ... ... ... ...
ROW 41 : ... .. . ... ... : ... .. . ... ... : ... .. . ... ... : ... .. . ... : ... .. . ... ... : ... .. . ... ... ... ...
ROW 42 : ... .. . ... ... : ... .. . ... ... : ... .. . ... ... : ... .. . ... : ... .. . ... ... : ... .. . ... ... ... ...
ROW 43 : ... .. . ... ... : ... .. . ... ... : ... .. . ... ... : ... .. . ... : ... .. . ... ... : ... .. . ... ... ... ...
ROW 44 : ... .. . ... ... : ... .. . ... ... : ... .. . ... ... : ... .. . ... : ... .. . ... ... : ... .. . ... ... ... ...
ROW 45 : ... .. . ... ... : ... .. . ... ... : ... .. . ... ... : ... .. . ... : ... .. . ... ... : ... .. . ... ... ... ...
ROW 46 : ... .. . ... ... : ... .. . ... ... : ... .. . ... ... : ... .. . ... : ... .. . ... ... : ... .. . ... ... ... ...
ROW 47 : ... .. . ... ... : ... .. . ... ... : ... .. . ... ... : ... .. . ... : ... .. . ... ... : ... .. . ... ... ... ...
ROW 48 : ... .. . ... ... : ... .. . ... ... : ... .. . ... ... : ... .. . ... : ... .. . ... ... : ... .. . ... ... ... ...
ROW 49 : ... .. . ... ... : ... .. . ... ... : ... .. . ... ... : ... .. . ... : ... .. . ... ... : ... .. . ... ... ... ...
ROW 4A : ... .. . ... ... : ... .. . ... ... : ... .. . ... ... : ... .. . ... : ... .. . ... ... : ... .. . ... ... ... ...
ROW 4B : ... .. . ... ... : ... .. . ... ... : ... .. . ... ... : ... .. . ... : ... .. . ... ... : ... .. . ... ... ... ...
ROW 4C : ... .. . ... ... : ... .. . ... ... : ... .. . ... ... : ... .. . ... : ... .. . ... ... : ... .. . ... ... ... ...
ROW 4D : ... .. . ... ... : ... .. . ... ... : ... .. . ... ... : ... .. . ... : ... .. . ... ... : ... .. . ... ... ... ...
ROW 4E : ... .. . ... ... : ... .. . ... ... : ... .. . ... ... : ... .. . ... : ... .. . ... ... : ... .. . ... ... ... ...
ROW 4F : ... .. . ... ... : ... .. . ... ... : ... .. . ... ... : ... .. . ... : ... .. . ... ... : ... .. . ... ... ... ...
ROW 50 : ... .. . ... ... : ... .. . ... ... : ... .. . ... ... : ... .. . ... : ... .. . ... ... : ... .. . ... ... ... ...
ROW 51 : ... .. . ... ... : ... .. . ... ... : ... .. . ... ... : ... .. . ... : ... .. . ... ... : ... .. . ... ... ... ...
ROW 52 : ... .. . ... ... : ... .. . ... ... : ... .. . ... ... : ... .. . ... : ... .. . ... ... : ... .. . ... ... ... ...
ROW 53 : ... .. . ... ... : ... .. . ... ... : ... .. . ... ... : ... .. . ... : ... .. . ... ... : ... .. . ... ... ... ...
ROW 54 : ... .. . ... ... : ... .. . ... ... : ... .. . ... ... : ... .. . ... : ... .. . ... ... : ... .. . ... ... ... ...
ROW 55 : ... .. . ... ... : ... .. . ... ... : ... .. . ... ... : ... .. . ... : ... .. . ... ... : ... .. . ... ... ... ...
ROW 56 : ... .. . ... ... : ... .. . ... ... : ... .. . ... ... : ... .. . ... : ... .. . ... ... : ... .. . ... ... ... ...
ROW 57 : ... .. . ... ... : ... .. . ... ... : ... .. . ... ... : ... .. . ... : ... .. . ... ... : ... .. . ... ... ... ...
ROW 58 : ... .. . ... ... : ... .. . ... ... : ... .. . ... ... : ... .. . ... : ... .. . ... ... : ... .. . ... ... ... ...
ROW 59 : ... .. . ... ... : ... .. . ... ... : ... .. . ... ... : ... .. . ... : ... .. . ... ... : ... .. . ... ... ... ...
ROW 5A : ... .. . ... ... : ... .. . ... ... : ... .. . ... ... : ... .. . ... : ... .. . ... ... : ... .. . ... ... ... ...
ROW 5B : ... .. . ... ... : ... .. . ... ... : ... .. . ... ... : ... .. . ... : ... .. . ... ... : ... .. . ... ... ... ...
ROW 5C : ... .. . ... ... : ... .. . ... ... : ... .. . ... ... : ... .. . ... : ... .. . ... ... : ... .. . ... ... ... ...
ROW 5D : ... .. . ... ... : ... .. . ... ... : ... .. . ... ... : ... .. . ... : ... .. . ... ... : ... .. . ... ... ... ...
ROW 5E : ... .. . ... ... : ... .. . ... ... : ... .. . ... ... : ... .. . ... : ... .. . ... ... : ... .. . ... ... ... ...
ROW 5F : ... .. . ... ... : ... .. . ... ... : ... .. . ... ... : ... .. . ... : ... .. . ... ... : ... .. . ... ... ... ...
ROW 60 : ... .. . ... ... : ... .. . ... ... : ... .. . ... ... : ... .. . ... : ... .. . ... ... : ... .. . ... ... ... ...
ROW 61 : ... .. . ... ... : ... .. . ... ... : ... .. . ... ... : ... .. . ... : ... .. . ... ... : ... .. . ... ... ... ...
ROW 62 : ... .. . ... ... : ... .. . ... ... : ... .. . ... ... : ... .. . ... : ... .. . ... ... : ... .. . ... ... ... ...
ROW 63 : ... .. . ... ... : ... .. . ... ... : ... .. . ... ... : ... .. . ... : ... .. . ... ... : ... .. . ... ... ... ...
ROW 64 : ... .. . ... ... : ... .. . ... ... : ... .. . ... ... : ... .. . ... : ... .. . ... ... : ... .. . ... ... ... ...
ROW 65 : ... .. . ... ... : ... .. . ... ... : ... .. . ... ... : ... .. . ... : ... .. . ... ... : ... .. . ... ... ... ...
ROW 66 : ... .. . ... ... : ... .. . ... ... : ... .. . ... ... : ... .. . ... : ... .. . ... ... : ... .. . ... ... ... ...
ROW 67 : ... .. . ... ... : ... .. . ... ... : ... .. . ... ... : ... .. . ... : ... .. . ... ... : ... .. . ... ... ... ...
ROW 68 : ... .. . ... ... : ... .. . ... ... : ... .. . ... ... : ... .. . ... : ... .. . ... ... : ... .. . ... ... ... ...
ROW 69 : ... .. . ... ... : ... .. . ... ... : ... .. . ... ... : ... .. . ... : ... .. . ... ... : ... .. . ... ... ... ...
ROW 6A : ... .. . ... ... : ... .. . ... ... : ... .. . ... ... : ... .. . ... : ... .. . ... ... : ... .. . ... ... ... ...
ROW 6B : ... .. . ... ... : ... .. . ... ... : ... .. . ... ... : ... .. . ... : ... .. . ... ... : ... .. . ... ... ... ...
ROW 6C : ... .. . ... ... : ... .. . ... ... : ... .. . ... ... : ... .. . ... : ... .. . ... ... : ... .. . ... ... ... ...
ROW 6D : ... .. . ... ... : ... .. . ... ... : ... .. . ... ... : ... .. . ... : ... .. . ... ... : ... .. . ... ... ... ...
ROW 6E : ... .. . ... ... : ... .. . ... ... : ... .. . ... ... : ... .. . ... : ... .. . ... ... : ... .. . ... ... ... ...
ROW 6F : ... .. . ... ... : ... .. . ... ... : ... .. . ... ... : ... .. . ... : ... .. . ... ... : ... .. . ... ... ... ...
ROW 70 : ... .. . ... ... : ... .. . ... ... : ... .. . ... ... : ... .. . ... : ... .. . ... ... : ... .. . ... ... ... ...
ROW 71 : ... .. . ... ... : ... .. . ... ... : ... .. . ... ... : ... .. . ... : ... .. . ... ... : ... .. . ... ... ... ...
ROW 72 : ... .. . ... ... : ... .. . ... ... : ... .. . ... ... : ... .. . ... : ... .. . ... ... : ... .. . ... ... ... ...
ROW 73 : ... .. . ... ... : ... .. . ... ... : ... .. . ... ... : ... .. . ... : ... .. . ... ... : ... .. . ... ... ... ...
ROW 74 : ... .. . ... ... : ... .. . ... ... : ... .. . ... ... : ... .. . ... : ... .. . ... ... : ... .. . ... ... ... ...
ROW 75 : ... .. . ... ... : ... .. . ... ... : ... .. . ... ... : ... .. . ... : ... .. . ... ... : ... .. . ... ... ... ...
ROW 76 : ... .. . ... ... : ... .. . ... ... : ... .. . ... ... : ... .. . ... : ... .. . ... ... : ... .. . ... ... ... ...
ROW 77 : ... .. . ... ... : ... .. . ... ... : ... .. . ... ... : ... .. . ... : ... .. . ... ... : ... .. . ... ... ... ...
ROW 78 : ... .. . ... ... : ... .. . ... ... : ... .. . ... ... : ... .. . ... : ... .. . ... ... : ... .. . ... ... ... ...
ROW 79 : ... .. . ... ... : ... .. . ... ... : ... .. . ... ... : ... .. . ... : ... .. . ... ... : ... .. . ... ... ... ...
ROW 7A : ... .. . ... ... : ... .. . ... ... : ... .. . ... ... : ... .. . ... : ... .. . ... ... : ... .. . ... ... ... ...
ROW 7B : ... .. . ... ... : ... .. . ... ... : ... .. . ... ... : ... .. . ... : ... .. . ... ... : ... .. . ... ... ... ...
ROW 7C : ... .. . ... ... : ... .. . ... ... : ... .. . ... ... : ... .. . ... : ... .. . ... ... : ... .. . ... ... ... ...
ROW 7D : ... .. . ... ... : ... .. . ... ... : ... .. . ... ... : ... .. . ... : ... .. . ... ... : ... .. . ... ... ... ...
ROW 7E : ... .. . ... ... : ... .. . ... ... : ... .. . ... ... : ... .. . ... : ... .. . ... ... : ... .. . ... ... ... ...
ROW 7F : ... .. . ... ... : ... .. . ... ... : ... .. . ... ... : ... .. . ... : ... .. . ... ... : ... .. . ... ... ... ...
ROW 80 : ... .. . ... ... : ... .. . ... ... : ... .. . ... ... : ... .. . ... : ... .. . ... ... : ... .. . ... ... ... ...
ROW 81 : ... .. . ... ... : ... .. . ... ... : ... .. . ... ... : ... .. . ... : ... .. . ... ... : ... .. . ... ... ... ...
ROW 82 : ... .. . ... ... : ... .. . ... ... : ... .. . ... ... : ... .. . ... : ... .. . ... ... : ... .. . ... ... ... ...
ROW 83 : ... .. . ... ... : ... .. . ... ... : ... .. . ... ... : ... .. . ... : ... .. . ... ... : ... .. . ... ... ... ...
ROW 84 : ... .. . ... ... : ... .. . ... ... : ... .. . ... ... : ... .. . ... : ... .. . ... ... : ... .. . ... ... ... ...
ROW 85 : ... .. . ... ... : ... .. . ... ... : ... .. . ... ... : ... .. . ... : ... .. . ... ... : ... .. . ... ... ... ...
ROW 86 : ... .. . ... ... : ... .. . ... ... : ... .. . ... ... : ... .. . ... : ... .. . ... ... : ... .. . ... ... ... ...
ROW 87 : ... .. . ... ... : ... .. . ... ... : ... .. . ... ... : ... .. . ... : ... .. . ... ... : ... .. . ... ... ... ...
ROW 88 : ... .. . ... ... : ... .. . ... ... : ... .. . ... ... : ... .. . ... : ... .. . ... ... : ... .. . ... ... ... ...
ROW 89 : ... .. . ... ... : ... .. . ... ... : ... .. . ... ... : ... .. . ... : ... .. . ... ... : ... .. . ... ... ... ...
ROW 8A : ... .. . ... ... : ... .. . ... ... : ... .. . ... ... : ... .. . ... : ... .. . ... ... : ... .. . ... ... ... ...
ROW 8B : ... .. . ... ... : ... .. . ... ... : ... .. . ... ... : ... .. . ... : ... .. . ... ... : ... .. . ... ... ... ...
ROW 8C : ... .. . ... ... : ... .. . ... ... : ... .. . ... ... : ... .. . ... : ... .. . ... ... : ... .. . ... ... ... ...
ROW 8D : ... .. . ... ... : ... .. . ... ... : ... .. . ... ... : ... .. . ... : ... .. . ... ... : ... .. . ... ... ... ...
ROW 8E : ... .. . ... ... : ... .. . ... ... : ... .. . ... ... : ... .. . ... : ... .. . ... ... : ... .. . ... ... ... ...
ROW 8F : ... .. . ... ... : ... .. . ... ... : ... .. . ... ... : ... .. . ... : ... .. . ... ... : ... .. . ... ... ... ...
ROW 90 : ... .. . ... ... : ... .. . ... ... : ... .. . ... ... : ... .. . ... : ... .. . ... ... : ... .. . ... ... ... ...
ROW 91 : ... .. . ... ... : ... .. . ... ... : ... .. . ... ... : ... .. . ... : ... .. . ... ... : ... .. . ... ... ... ...
ROW 92 : ... .. . ... ... : ... .. . ... ... : ... .. . ... ... : ... .. . ... : ... .. . ... ... : ... .. . ... ... ... ...
ROW 93 : ... .. . ... ... : ... .. . ... ... : ... .. . ... ... : ... .. . ... : ... .. . ... ... : ... .. . ... ... ... ...
ROW 94 : ... .. . ... ... : ... .. . ... ... : ... .. . ... ... : ... .. . ... : ... .. . ... ... : ... .. . ... ... ... ...
ROW 95 : ... .. . ... ... : ... .. . ... ... : ... .. . ... ... : ... .. . ... : ... .. . ... ... : ... .. . ... ... ... ...
ROW 96 : ... .. . ... ... : ... .. . ... ... : ... .. . ... ... : ... .. . ... : ... .. . ... ... : ... .. . ... ... ... ...
ROW 97 : ... .. . ... ... : ... .. . ... ... : ... .. . ... ... : ... .. . ... : ... .. . ... ... : ... .. . ... ... ... ...
ROW 98 : ... .. . ... ... : ... .. . ... ... : ... .. . ... ... : ... .. . ... : ... .. . ... ... : ... .. . ... ... ... ...
ROW 99 : ... .. . ... ... : ... .. . ... ... : ... .. . ... ... : ... .. . ... : ... .. . ... ... : ... .. . ... ... ... ...
ROW 9A : ... .. . ... ... : ... .. . ... ... : ... .. . ... ... : ... .. . ... : ... .. . ... ... : ... .. . ... ... ... ...
ROW 9B : ... .. . ... ... : ... .. . ... ... : ... .. . ... ... : ... .. . ... : ... .. . ... ... : ... .. . ... ... ... ...
ROW 9C : ... .. . ... ... : ... .. . ... ... : ... .. . ... ... : ... .. . ... : ... .. . ... ... : ... .. . ... ... ... ...
ROW 9D : ... .. . ... ... : ... .. . ... ... : ... .. . ... ... : ... .. . ... : ... .. . ... ... : ... .. . ... ... ... ...
ROW 9E : ... .. . ... ... : ... .. . ... ... : ... .. . ... ... : ... .. . ... : ... .. . ... ... : ... .. . ... ... ... ...
ROW 9F : ... .. . ... ... : ... .. . ... ... : ... .. . ... ... : ... .. . ... : ... .. . ... ... : ... .. . ... ... ... ...
ROW A0 : ... .. . ... ... : ... .. . ... ... : ... .. . ... ... : ... .. . ... : ... .. . ... ... : ... .. . ... ... ... ...
ROW A1 : ... .. . ... ... : ... .. . ... ... : ... .. . ... ... : ... .. . ... : ... .. . ... ... : ... .. . ... ... ... ...
ROW A2 : ... .. . ... ... : ... .. . ... ... : ... .. . ... ... : ... .. . ... : ... .. . ... ... : ... .. . ... ... ... ...
ROW A3 : ... .. . ... ... : ... .. . ... ... : ... .. . ... ... : ... .. . ... : ... .. . ... ... : ... .. . ... ... ... ...
ROW A4 : ... .. . ... ... : ... .. . ... ... : ... .. . ... ... : ... .. . ... : ... .. . ... ... : ... .. . ... ... ... ...
ROW A5 : ... .. . ... ... : ... .. . ... ... : ... .. . ... ... : ... .. . ... : ... .. . ... ... : ... .. . ... ... ... ...
ROW A6 : ... .. . ... ... : ... .. . ... ... : ... .. . ... ... : ... .. . ... : ... .. . ... ... : ... .. . ... ... ... ...
ROW A7 : ... .. . ... ... : ... .. . ... ... : ... .. . ... ... : ... .. . ... : ... .. . ... ... : ... .. . ... ... ... ...
ROW A8 : ... .. . ... ... : ... .. . ... ... : ... .. . ... ... : ... .. . ... : ... .. . ... ... : ... .. . ... ... ... ...
ROW A9 : ... .. . ... ... : ... .. . ... ... : ... .. . ... ... : ... .. . ... : ... .. . ... ... : ... .. . ... ... ... ...
ROW AA : ... .. . ... ... : ... .. . ... ... : ... .. . ... ... : ... .. . ... : ... .. . ... ... : ... .. . ... ... ... ...
ROW AB : ... .. . ... ... : ... .. . ... ... : ... .. . ... ... : ... .. . ... : ... .. . ... ... : ... .. . ... ... ... ...
ROW AC : ... .. . ... ... : ... .. . ... ... : ... .. . ... ... : ... .. . ... : ... .. . ... ... : ... .. . ... ... ... ...
ROW AD : ... .. . ... ... : ... .. . ... ... : ... .. . ... ... : ... .. . ... : ... .. . ... ... : ... .. . ... ... ... ...
ROW AE : ... .. . ... ... : ... .. . ... ... : ... .. . ... ... : ... .. . ... : ... .. . ... ... : ... .. . ... ... ... ...
ROW AF : ... .. . ... ... : ... .. . ... ... : ... .. . ... ... : ... .. . ... : ... .. . ... ... : ... .. . ... ... ... ...
ROW B0 : ... .. . ... ... : ... .. . ... ... : ... .. . ... ... : ... .. . ... : ... .. . ... ... : ... .. . ... ... ... ...
ROW B1 : ... .. . ... ... : ... .. . ... ... : ... .. . ... ... : ... .. . ... : ... .. . ... ... : ... .. . ... ... ... ...
ROW B2 : ... .. . ... ... : ... .. . ... ... : ... .. . ... ... : ... .. . ... : ... .. . ... ... : ... .. . ... ... ... ...
ROW B3 : ... .. . ... ... : ... .. . ... ... : ... .. . ... ... : ... .. . ... : ... .. . ... ... : ... .. . ... ... ... ...
ROW B4 : ... .. . ... ... : ... .. . ... ... : ... .. . ... ... : ... .. . ... : ... .. . ... ... : ... .. . ... ... ... ...
ROW B5 : ... .. . ... ... : ... .. . ... ... : ... .. . ... ... : ... .. . ... : ... .. . ... ... : ... .. . ... ... ... ...
ROW B6 : ... .. . ... ... : ... .. . ... ... : ... .. . ... ... : ... .. . ... : ... .. . ... ... : ... .. . ... ... ... ...
ROW B7 : ... .. . ... ... : ... .. . ... ... : ... .. . ... ... : ... .. . ... : ... .. . ... ... : ... .. . ... ... ... ...
ROW B8 : ... .. . ... ... : ... .. . ... ... : ... .. . ... ... : ... .. . ... : ... .. . ... ... : ... .. . ... ... ... ...
ROW B9 : ... .. . ... ... : ... .. . ... ... : ... .. . ... ... : ... .. . ... : ... .. . ... ... : ... .. . ... ... ... ...
ROW BA : ... .. . ... ... : ... .. . ... ... : ... .. . ... ... : ... .. . ... : ... .. . ... ... : ... .. . ... ... ... ...
ROW BB : ... .. . ... ... : ... .. . ... ... : ... .. . ... ... : ... .. . ... : ... .. . ... ... : ... .. . ... ... ... ...
ROW BC : ... .. . ... ... : ... .. . ... ... : ... .. . ... ... : ... .. . ... : ... .. . ... ... : ... .. . ... ... ... ...
ROW BD : ... .. . ... ... : ... .. . ... ... : ... .. . ... ... : ... .. . ... : ... .. . ... ... : ... .. . ... ... ... ...
ROW BE : ... .. . ... ... : ... .. . ... ... : ... .. . ... ... : ... .. . ... : ... .. . ... ... : ... .. . ... ... ... ...
ROW BF : ... .. . ... ... : ... .. . ... ... : ... .. . ... ... : ... .. . ... : ... .. . ... ... : ... .. . ... ... ... ...
ROW C0 : ... .. . ... ... : ... .. . ... ... : ... .. . ... ... : ... .. . ... : ... .. . ... ... : ... .. . ... ... ... ...
ROW C1 : ... .. . ... ... : ... .. . ... ... : ... .. . ... ... : ... .. . ... : ... .. . ... ... : ... .. . ... ... ... ...
ROW C2 : ... .. . ... ... : ... .. . ... ... : ... .. . ... ... : ... .. . ... : ... .. . ... ... : ... .. . ... ... ... ...
ROW C3 : ... .. . ... ... : ... .. . ... ... : ... .. . ... ... : ... .. . ... : ... .. . ... ... : ... .. . ... ... ... ...
ROW C4 : ... .. . ... ... : ... .. . ... ... : ... .. . ... ... : ... .. . ... : ... .. . ... ... : ... .. . ... ... ... ...
ROW C5 : ... .. . ... ... : ... .. . ... ... : ... .. . ... ... : ... .. . ... : ... .. . ... ... : ... .. . ... ... ... ...
ROW C6 : ... .. . ... ... : ... .. . ... ... : ... .. . ... ... : ... .. . ... : ... .. . ... ... : ... .. . ... ... ... ...
ROW C7 : ... .. . ... ... : ... .. . ... ... : ... .. . ... ... : ... .. . ... : ... .. . ... ... : ... .. . ... ... ... ...
ROW C8 : ... .. . ... ... : ... .. . ... ... : ... .. . ... ... : ... .. . ... : ... .. . ... ... : ... .. . ... ... ... ...
ROW C9 : ... .. . ... ... : ... .. . ... ... : ... .. . ... ... : ... .. . ... : ... .. . ... ... : ... .. . ... ... ... ...
ROW CA : ... .. . ... ... : ... .. . ... ... : ... .. . ... ... : ... .. . ... : ... .. . ... ... : ... .. . ... ... ... ...
ROW CB : ... .. . ... ... : ... .. . ... ... : ... .. . ... ... : ... .. . ... : ... .. . ... ... : ... .. . ... ... ... ...
ROW CC : ... .. . ... ... : ... .. . ... ... : ... .. . ... ... : ... .. . ... : ... .. . ... ... : ... .. . ... ... ... ...
ROW CD : ... .. . ... ... : ... .. . ... ... : ... .. . ... ... : ... .. . ... : ... .. . ... ... : ... .. . ... ... ... ...
ROW CE : ... .. . ... ... : ... .. . ... ... : ... .. . ... ... : ... .. . ... : ... .. . ... ... : ... .. . ... ... ... ...
ROW CF : ... .. . ... ... : ... .. . ... ... : ... .. . ... ... : ... .. . ... : ... .. . ... ... : ... .. . ... ... ... ...
ROW D0 : ... .. . ... ... : ... .. . ... ... : ... .. . ... ... : ... .. . ... : ... .. . ... ... : ... .. . ... ... ... ...
ROW D1 : ... .. . ... ... : ... .. . ... ... : ... .. . ... ... : ... .. . ... : ... .. . ... ... : ... .. . ... ... ... ...
ROW D2 : ... .. . ... ... : ... .. . ... ... : ... .. . ... ... : ... .. . ... : ... .. . ... ... : ... .. . ... ... ... ...
ROW D3 : ... .. . ... ... : ... .. . ... ... : ... .. . ... ... : ... .. . ... : ... .. . ... ... : ... .. . ... ... ... ...
ROW D4 : ... .. . ... ... : ... .. . ... ... : ... .. . ... ... : ... .. . ... : ... .. . ... ... : ... .. . ... ... ... ...
ROW D5 : ... .. . ... ... : ... .. . ... ... : ... .. . ... ... : ... .. . ... : ... .. . ... ... : ... .. . ... ... ... ...
ROW D6 : ... .. . ... ... : ... .. . ... ... : ... .. . ... ... : ... .. . ... : ... .. . ... ... : ... .. . ... ... ... ...
ROW D7 : ... .. . ... ... : ... .. . ... ... : ... .. . ... ... : ... .. . ... : ... .. . ... ... : ... .. . ... ... ... ...
ROW D8 : ... .. . ... ... : ... .. . ... ... : ... .. . ... ... : ... .. . ... : ... .. . ... ... : ... .. . ... ... ... ...
ROW D9 : ... .. . ... ... : ... .. . ... ... : ... .. . ... ... : ... .. . ... : ... .. . ... ... : ... .. . ... ... ... ...
ROW DA : ... .. . ... ... : ... .. . ... ... : ... .. . ... ... : ... .. . ... : ... .. . ... ... : ... .. . ... ... ... ...
ROW DB : ... .. . ... ... : ... .. . ... ... : ... .. . ... ... : ... .. . ... : ... .. . ... ... : ... .. . ... ... ... ...
ROW DC : ... .. . ... ... : ... .. . ... ... : ... .. . ... ... : ... .. . ... : ... .. . ... ... : ... .. . ... ... ... ...
ROW DD : ... .. . ... ... : ... .. . ... ... : ... .. . ... ... : ... .. . ... : ... .. . ... ... : ... .. . ... ... ... ...
ROW DE : ... .. . ... ... : ... .. . ... ... : ... .. . ... ... : ... .. . ... : ... .. . ... ... : ... .. . ... ... ... ...
ROW DF : ... .. . ... ... : ... .. . ... ... : ... .. . ... ... : ... .. . ... : ... .. . ... ... : ... .. . ... ... ... ...
ROW E0 : ... .. . ... ... : ... .. . ... ... : ... .. . ... ... : ... .. . ... : ... .. . ... ... : ... .. . ... ... ... ...
ROW E1 : ... .. . ... ... : ... .. . ... ... : ... .. . ... ... : ... .. . ... : ... .. . ... ... : ... .. . ... ... ... ...
ROW E2 : ... .. . ... ... : ... .. . ... ... : ... .. . ... ... : ... .. . ... : ... .. . ... ... : ... .. . ... ... ... ...
ROW E3 : ... .. . ... ... : ... .. . ... ... : ... .. . ... ... : ... .. . ... : ... .. . ... ... : ... .. . ... ... ... ...
ROW E4 : ... .. . ... ... : ... .. . ... ... : ... .. . ... ... : ... .. . ... : ... .. . ... ... : ... .. . ... ... ... ...
ROW E5 : ... .. . ... ... : ... .. . ... ... : ... .. . ... ... : ... .. . ... : ... .. . ... ... : ... .. . ... ... ... ...
ROW E6 : ... .. . ... ... : ... .. . ... ... : ... .. . ... ... : ... .. . ... : ... .. . ... ... : ... .. . ... ... ... ...
ROW E7 : ... .. . ... ... : ... .. . ... ... : ... .. . ... ... : ... .. . ... : ... .. . ... ... : ... .. . ... ... ... ...
ROW E8 : ... .. . ... ... : ... .. . ... ... : ... .. . ... ... : ... .. . ... : ... .. . ... ... : ... .. . ... ... ... ...
ROW E9 : ... .. . ... ... : ... .. . ... ... : ... .. . ... ... : ... .. . ... : ... .. . ... ... : ... .. . ... ... ... ...
ROW EA : ... .. . ... ... : ... .. . ... ... : ... .. . ... ... : ... .. . ... : ... .. . ... ... : ... .. . ... ... ... ...
ROW EB : ... .. . ... ... : ... .. . ... ... : ... .. . ... ... : ... .. . ... : ... .. . ... ... : ... .. . ... ... ... ...
ROW EC : ... .. . ... ... : ... .. . ... ... : ... .. . ... ... : ... .. . ... : ... .. . ... ... : ... .. . ... ... ... ...
ROW ED : ... .. . ... ... : ... .. . ... ... : ... .. . ... ... : ... .. . ... : ... .. . ... ... : ... .. . ... ... ... ...
ROW EE : ... .. . ... ... : ... .. . ... ... : ... .. . ... ... : ... .. . ... : ... .. . ... ... : ... .. . ... ... ... ...
ROW EF : ... .. . ... ... : ... .. . ... ... : ... .. . ... ... : ... .. . ... : ... .. . ... ... : ... .. . ... ... ... ...
ROW F0 : ... .. . ... ... : ... .. . ... ... : ... .. . ... ... : ... .. . ... : ... .. . ... ... : ... .. . ... ... ... ...
ROW F1 : ... .. . ... ... : ... .. . ... ... : ... .. . ... ... : ... .. . ... : ... .. . ... ... : ... .. . ... ... ... ...
ROW F2 : ... .. . ... ... : ... .. . ... ... : ... .. . ... ... : ... .. . ... : ... .. . ... ... : ... .. . ... ... ... ...
ROW F3 : ... .. . ... ... : ... .. . ... ... : ... .. . ... ... : ... .. . ... : ... .. . ... ... : ... .. . ... ... ... ...
ROW F4 : ... .. . ... ... : ... .. . ... ... : ... .. . ... ... : ... .. . ... : ... .. . ... ... : ... .. . ... ... ... ...
ROW F5 : ... .. . ... ... : ... .. . ... ... : ... .. . ... ... : ... .. . ... : ... .. . ... ... : ... .. . ... ... ... ...
ROW F6 : ... .. . ... ... : ... .. . ... ... : ... .. . ... ... : ... .. . ... : ... .. . ... ... : ... .. . ... ... ... ...
ROW F7 : ... .. . ... ... : ... .. . ... ... : ... .. . ... ... : ... .. . ... : ... .. . ... ... : ... .. . ... ... ... ...
ROW F8 : ... .. . ... ... : ... .. . ... ... : ... .. . ... ... : ... .. . ... : ... .. . ... ... : ... .. . ... ... ... ...
ROW F9 : ... .. . ... ... : ... .. . ... ... : ... .. . ... ... : ... .. . ... : ... .. . ... ... : ... .. . ... ... ... ...
ROW FA : ... .. . ... ... : ... .. . ... ... : ... .. . ... ... : ... .. . ... : ... .. . ... ... : ... .. . ... ... ... ...
ROW FB : ... .. . ... ... : ... .. . ... ... : ... .. . ... ... : ... .. . ... : ... .. . ... ... : ... .. . ... ... ... ...
ROW FC : ... .. . ... ... : ... .. . ... ... : ... .. . ... ... : ... .. . ... : ... .. . ... ... : ... .. . ... ... ... ...
ROW FD : ... .. . ... ... : ... .. . ... ... : ... .. . ... ... : ... .. . ... : ... .. . ... ... : ... .. . ... ... ... ...
ROW FE : ... .. . ... ... : ... .. . ... ... : ... .. . ... ... : ... .. . ... : ... .. . ... ... : ... .. . ... ... ... ...
ROW FF : ... .. . ... ... : ... .. . ... ... : ... .. . ... ... : ... .. . ... : ... .. . ... ... : ... .. . ... ... ... ...

PATTERN 12
ROW 00 : F-4 13 5 ... ... : ... .. . ... ... : C#4 03 . 226 ... : C-# 03 E A03 : ... .. . F06 ... : C#3 00 C I00 J51 ... ...
ROW 01 : ... .. 4 ... ... : ... .. . ... ... : ... .. . ... ... : ... .. . A04 : ... .. . ... ... : ... .. . ... ... ... ...
ROW 02 : ... .. 3 ... ... : ... .. . ... ... : ... .. . ... ... : ... .. . A05 : ... .. . ... ... : ... .. . ... ... ... ...
ROW 03 : ... .. 2 ... ... : ... .. . ... ... : ... .. . ... ... : ... .. . A04 : ... .. . ... ... : ... .. . ... ... ... ...
ROW 04 : ... .. 1 ... ... : ... .. . ... ... : C#2 11 . 200 ... : ... .. . ... : ... .. . ... ... : C#3 00 . I00 J51 ... ...
ROW 05 : ... .. . ... ... : ... .. . ... ... : ... .. . S03 ... : ... .. . ... : ... .. . ... ... : ... .. . ... ... ... ...
ROW 06 : F-4 13 5 ... ... : ... .. B ... ... : C#2 11 . ... ... : D-# 05 6 A00 : ... .. . ... ... : C#3 00 . I00 J51 ... ...
ROW 07 : ... .. 4 ... ... : ... .. . ... ... : ... .. . S03 ... : ... .. . ... : ... .. . ... ... : ... .. . ... ... ... ...
ROW 08 : ... .. 3 ... ... : ... .. A ... ... : C#4 03 . 246 ... : 6-# 08 A ... : ... .. . F04 ... : ... .. . ... ... ... ...
ROW 09 : ... .. 2 ... ... : ... .. . ... ... : ... .. . ... ... : ... .. . ... : ... .. . ... ... : ... .. . ... ... ... ...
ROW 0A : ... .. 1 ... ... : ... .. 9 ... ... : C#2 11 . 200 ... : ... .. . ... : ... .. . ... ... : C#3 00 . I00 J51 ... ...
ROW 0B : ... .. . ... ... : ... .. . ... ... : ... .. . S03 ... : ... .. . ... : ... .. . ... ... : ... .. . ... ... ... ...
ROW 0C : F-4 13 5 ... ... : ... .. 8 ... ... : C#2 11 . ... ... : D-# 05 6 ... : ... .. . ... ... : C#3 00 . I00 J51 ... ...
ROW 0D : ... .. 4 ... ... : ... .. . ... ... : ... .. . S03 ... : ... .. . ... : ... .. . ... ... : ... .. . ... ... ... ...
ROW 0E : ... .. 3 ... ... : ... .. 7 ... ... : ... .. . ... ... : D-# 05 . ... : ... .. . ... ... : ... .. . ... ... ... ...
ROW 0F : ... .. 2 ... ... : ... .. . ... ... : ... .. . ... ... : ... .. . ... : ... .. . ... ... : ... .. . ... ... ... ...
ROW 10 : F-4 13 5 ... ... : ... .. 6 ... ... : F-4 03 . 246 ... : ... .. . ... : ... .. . ... ... : F-3 00 . I00 J66 ... ...
ROW 11 : ... .. 4 ... ... : ... .. . ... ... : ... .. . ... ... : ... .. . ... : ... .. . ... ... : ... .. . ... ... ... ...
ROW 12 : ... .. 3 ... ... : ... .. 5 ... ... : ... .. . ... ... : ... .. . ... : ... .. . ... ... : ... .. . ... ... ... ...
ROW 13 : ... .. 2 ... ... : ... .. . ... ... : ... .. . ... ... : ... .. . ... : ... .. . ... ... : ... .. . ... ... ... ...
ROW 14 : F-4 13 5 ... ... : ... .. 4 ... ... : G#2 11 . 200 ... : D-# 05 . ... : ... .. . ... ... : G#3 00 . I00 J7A ... ...
ROW 15 : ... .. 4 ... ... : ... .. . ... ... : ... .. . S03 ... : ... .. . ... : ... .. . ... ... : ... .. . ... ... ... ...
ROW 16 : ... .. 3 ... ... : ... .. 3 ... ... : ... .. . ... ... : D-# 05 . ... : ... .. . ... ... : ... .. . ... ... ... ...
ROW 17 : ... .. 2 ... ... : ... .. . ... ... : ... .. . ... ... : ... .. . ... : ... .. . ... ... : ... .. . ... ... ... ...
ROW 18 : F-4 13 5 ... ... : ... .. 2 ... ... : A#4 03 . 246 ... : ... .. . ... : ... .. . ... ... : A#3 00 . I00 J89 ... ...
ROW 19 : ... .. 4 ... ... : ... .. . ... ... : ... .. . ... ... : ... .. . ... : ... .. . ... ... : ... .. . ... ... ... ...
ROW 1A : ... .. 3 ... ... : ... .. 1 ... ... : ... .. . ... ... : D-# 05 . ... : ... .. . ... ... : ... .. . ... ... ... ...
ROW 1B : ... .. 2 ... ... : ... .. . ... ... : ... .. . ... ... : ... .. . ... : ... .. . ... ... : ... .. . ... ... ... ...
ROW 1C : F-4 13 5 ... ... : --- .. . ... ... : G#2 11 . 200 ... : 6-# 08 A ... : ... .. . ... ... : G#3 00 . I00 J7A ... ...
ROW 1D : ... .. 4 ... ... : ... .. . ... ... : ... .. . S03 ... : ... .. . ... : ... .. . ... ... : ... .. . ... ... ... ...
ROW 1E : ... .. 3 ... ... : ... .. . ... ... : ... .. . ... ... : ... .. . ... : ... .. . ... ... : ... .. . ... ... ... ...
ROW 1F : ... .. 2 ... ... : ... .. . ... ... : ... .. . ... ... : ... .. . ... : ... .. . ... ... : ... .. . ... ... ... ...
ROW 20 : F-4 13 5 ... ... : ... .. . ... ... : F-4 03 . 246 ... : D-# 05 6 ... : ... .. . ... ... : F-3 00 . I00 J66 ... ...
ROW 21 : ... .. . ... ... : ... .. . ... ... : ... .. . ... ... : ... .. . ... : ... .. . ... ... : ... .. . ... ... ... ...
ROW 22 : ... .. 4 ... ... : ... .. . ... ... : ... .. . ... ... : ... .. . ... : ... .. . ... ... : ... .. . ... ... ... ...
ROW 23 : ... .. . ... ... : ... .. . ... ... : ... .. . ... ... : ... .. . ... : ... .. . ... ... : ... .. . ... ... ... ...
ROW 24 : ... .. 3 ... ... : ... .. . ... ... : F-2 11 . 200 ... : ... .. . ... : ... .. . ... ... : F-3 00 . I00 J66 ... ...
ROW 25 : ... .. 2 ... ... : ... .. . ... ... : ... .. . S03 ... : ... .. . ... : ... .. . ... ... : ... .. . ... ... ... ...
ROW 26 : ... .. 1 ... ... : ... .. . ... ... : F-2 11 . ... ... : D-# 05 . ... : ... .. . ... ... : F-3 00 . I00 J66 ... ...
ROW 27 : ... .. 0 ... ... : ... .. . ... ... : ... .. . S03 ... : ... .. . ... : ... .. . ... ... : ... .. . ... ... ... ...
ROW 28 : F-4 13 4 ... ... : ... .. . ... ... : F-4 03 . 246 ... : 6-# 08 A ... : ... .. . ... ... : ... .. . ... ... ... ...
ROW 29 : ... .. . ... ... : ... .. . ... ... : ... .. . ... ... : ... .. . ... : ... .. . ... ... : ... .. . ... ... ... ...
ROW 2A : ... .. 3 ... ... : ... .. . ... ... : F-2 11 . 200 ... : ... .. . ... : ... .. . ... ... : F-3 00 . I00 J66 ... ...
ROW 2B : ... .. . ... ... : ... .. . ... ... : ... .. . S03 ... : ... .. . ... : ... .. . ... ... : ... .. . ... ... ... ...
ROW 2C : ... .. 2 ... ... : ... .. . ... ... : F-2 11 . ... ... : D-# 05 6 ... : ... .. . ... ... : F-3 00 . I00 J66 ... ...
ROW 2D : ... .. . ... ... : ... .. . ... ... : ... .. . S03 ... : ... .. . ... : ... .. . ... ... : ... .. . ... ... ... ...
ROW 2E : ... .. 1 ... ... : ... .. . ... ... : ... .. . ... ... : D-# 05 . ... : ... .. . ... ... : ... .. . ... ... ... ...
ROW 2F : ... .. 0 ... ... : ... .. . ... ... : ... .. . ... ... : ... .. . ... : ... .. . ... ... : ... .. . ... ... ... ...
ROW 30 : F-4 13 3 ... ... : E-3 0F C 400 Q01 : F-4 03 . 246 ... : ... .. . ... : ... .. . ... ... : F-3 00 . I00 J66 ... ...
ROW 31 : ... .. . ... ... : ... .. . ... ... : ... .. . ... ... : ... .. . ... : ... .. . ... ... : ... .. . ... ... ... ...
ROW 32 : ... .. 2 ... ... : ... .. . ... ... : ... .. . ... ... : ... .. . ... : ... .. . ... ... : ... .. . ... ... ... ...
ROW 33 : ... .. . ... ... : ... .. . ... ... : ... .. . ... ... : ... .. . ... : ... .. . ... ... : ... .. . ... ... ... ...
ROW 34 : ... .. 1 ... ... : ... .. . 465 ... : F-2 11 . 200 ... : D-# 05 . ... : ... .. . ... ... : F-3 00 . I00 J66 ... ...
ROW 35 : ... .. . ... ... : ... .. . ... ... : ... .. . S03 ... : ... .. . ... : ... .. . ... ... : ... .. . ... ... ... ...
ROW 36 : ... .. 0 ... ... : ... .. 6 ... ... : ... .. . ... ... : D-# 05 . ... : ... .. . ... ... : ... .. . ... ... ... ...
ROW 37 : ... .. . ... ... : ... .. 4 ... ... : ... .. . ... ... : ... .. . ... : ... .. . ... ... : ... .. . ... ... ... ...
ROW 38 : F-4 13 2 ... ... : G-3 0F C 400 ... : D#4 03 . 246 ... : ... .. . ... : ... .. . ... ... : D#3 00 . I00 J5B ... ...
ROW 39 : ... .. . ... ... : ... .. . ... ... : ... .. . ... ... : ... .. . ... : ... .. . ... ... : ... .. . ... ... ... ...
ROW 3A : ... .. . ... ... : ... .. . ... ... : ... .. . ... ... : D-# 05 . ... : ... .. . ... ... : ... .. . ... ... ... ...
ROW 3B : ... .. 1 ... ... : ... .. . ... ... : ... .. . ... ... : ... .. . ... : ... .. . ... ... : ... .. . ... ... ... ...
ROW 3C : ... .. . ... ... : ... .. . 465 ... : D#2 11 . 200 ... : 6-# 08 A ... : ... .. . ... ... : D#3 00 . I00 J5B ... ...
ROW 3D : ... .. . ... ... : ... .. . ... ... : ... .. . S03 ... : ... .. . ... : ... .. . ... ... : ... .. . ... ... ... ...
ROW 3E : ... .. 0 ... ... : ... .. 6 ... ... : ... .. . ... ... : ... .. . ... : ... .. . ... ... : ... .. . ... ... ... ...
ROW 3F : ... .. . ... ... : ... .. 4 ... ... : ... .. . ... ... : ... .. . ... : ... .. . ... ... : ... .. . ... ... ... ...
ROW 40 : ... .. . ... ... : ... .. . ... ... : ... .. . ... ... : ... .. . ... : ... .. . ... ... : ... .. . ... ... ... ...
ROW 41 : ... .. . ... ... : ... .. . ... ... : ... .. . ... ... : ... .. . ... : ... .. . ... ... : ... .. . ... ... ... ...
ROW 42 : ... .. . ... ... : ... .. . ... ... : ... .. . ... ... : ... .. . ... : ... .. . ... ... : ... .. . ... ... ... ...
ROW 43 : ... .. . ... ... : ... .. . ... ... : ... .. . ... ... : ... .. . ... : ... .. . ... ... : ... .. . ... ... ... ...
ROW 44 : ... .. . ... ... : ... .. . ... ... : ... .. . ... ... : ... .. . ... : ... .. . ... ... : ... .. . ... ... ... ...
ROW 45 : ... .. . ... ... : ... .. . ... ... : ... .. . ... ... : ... .. . ... : ... .. . ... ... : ... .. . ... ... ... ...
ROW 46 : ... .. . ... ... : ... .. . ... ... : ... .. . ... ... : ... .. . ... : ... .. . ... ... : ... .. . ... ... ... ...
ROW 47 : ... .. . ... ... : ... .. . ... ... : ... .. . ... ... : ... .. . ... : ... .. . ... ... : ... .. . ... ... ... ...
ROW 48 : ... .. . ... ... : ... .. . ... ... : ... .. . ... ... : ... .. . ... : ... .. . ... ... : ... .. . ... ... ... ...
ROW 49 : ... .. . ... ... : ... .. . ... ... : ... .. . ... ... : ... .. . ... : ... .. . ... ... : ... .. . ... ... ... ...
ROW 4A : ... .. . ... ... : ... .. . ... ... : ... .. . ... ... : ... .. . ... : ... .. . ... ... : ... .. . ... ... ... ...
ROW 4B : ... .. . ... ... : ... .. . ... ... : ... .. . ... ... : ... .. . ... : ... .. . ... ... : ... .. . ... ... ... ...
ROW 4C : ... .. . ... ... : ... .. . ... ... : ... .. . ... ... : ... .. . ... : ... .. . ... ... : ... .. . ... ... ... ...
ROW 4D : ... .. . ... ... : ... .. . ... ... : ... .. . ... ... : ... .. . ... : ... .. . ... ... : ... .. . ... ... ... ...
ROW 4E : ... .. . ... ... : ... .. . ... ... : ... .. . ... ... : ... .. . ... : ... .. . ... ... : ... .. . ... ... ... ...
ROW 4F : ... .. . ... ... : ... .. . ... ... : ... .. . ... ... : ... .. . ... : ... .. . ... ... : ... .. . ... ... ... ...
ROW 50 : ... .. . ... ... : ... .. . ... ... : ... .. . ... ... : ... .. . ... : ... .. . ... ... : ... .. . ... ... ... ...
ROW 51 : ... .. . ... ... : ... .. . ... ... : ... .. . ... ... : ... .. . ... : ... .. . ... ... : ... .. . ... ... ... ...
ROW 52 : ... .. . ... ... : ... .. . ... ... : ... .. . ... ... : ... .. . ... : ... .. . ... ... : ... .. . ... ... ... ...
ROW 53 : ... .. . ... ... : ... .. . ... ... : ... .. . ... ... : ... .. . ... : ... .. . ... ... : ... .. . ... ... ... ...
ROW 54 : ... .. . ... ... : ... .. . ... ... : ... .. . ... ... : ... .. . ... : ... .. . ... ... : ... .. . ... ... ... ...
ROW 55 : ... .. . ... ... : ... .. . ... ... : ... .. . ... ... : ... .. . ... : ... .. . ... ... : ... .. . ... ... ... ...
ROW 56 : ... .. . ... ... : ... .. . ... ... : ... .. . ... ... : ... .. . ... : ... .. . ... ... : ... .. . ... ... ... ...
ROW 57 : ... .. . ... ... : ... .. . ... ... : ... .. . ... ... : ... .. . ... : ... .. . ... ... : ... .. . ... ... ... ...
ROW 58 : ... .. . ... ... : ... .. . ... ... : ... .. . ... ... : ... .. . ... : ... .. . ... ... : ... .. . ... ... ... ...
ROW 59 : ... .. . ... ... : ... .. . ... ... : ... .. . ... ... : ... .. . ... : ... .. . ... ... : ... .. . ... ... ... ...
ROW 5A : ... .. . ... ... : ... .. . ... ... : ... .. . ... ... : ... .. . ... : ... .. . ... ... : ... .. . ... ... ... ...
ROW 5B : ... .. . ... ... : ... .. . ... ... : ... .. . ... ... : ... .. . ... : ... .. . ... ... : ... .. . ... ... ... ...
ROW 5C : ... .. . ... ... : ... .. . ... ... : ... .. . ... ... : ... .. . ... : ... .. . ... ... : ... .. . ... ... ... ...
ROW 5D : ... .. . ... ... : ... .. . ... ... : ... .. . ... ... : ... .. . ... : ... .. . ... ... : ... .. . ... ... ... ...
ROW 5E : ... .. . ... ... : ... .. . ... ... : ... .. . ... ... : ... .. . ... : ... .. . ... ... : ... .. . ... ... ... ...
ROW 5F : ... .. . ... ... : ... .. . ... ... : ... .. . ... ... : ... .. . ... : ... .. . ... ... : ... .. . ... ... ... ...
ROW 60 : ... .. . ... ... : ... .. . ... ... : ... .. . ... ... : ... .. . ... : ... .. . ... ... : ... .. . ... ... ... ...
ROW 61 : ... .. . ... ... : ... .. . ... ... : ... .. . ... ... : ... .. . ... : ... .. . ... ... : ... .. . ... ... ... ...
ROW 62 : ... .. . ... ... : ... .. . ... ... : ... .. . ... ... : ... .. . ... : ... .. . ... ... : ... .. . ... ... ... ...
ROW 63 : ... .. . ... ... : ... .. . ... ... : ... .. . ... ... : ... .. . ... : ... .. . ... ... : ... .. . ... ... ... ...
ROW 64 : ... .. . ... ... : ... .. . ... ... : ... .. . ... ... : ... .. . ... : ... .. . ... ... : ... .. . ... ... ... ...
ROW 65 : ... .. . ... ... : ... .. . ... ... : ... .. . ... ... : ... .. . ... : ... .. . ... ... : ... .. . ... ... ... ...
ROW 66 : ... .. . ... ... : ... .. . ... ... : ... .. . ... ... : ... .. . ... : ... .. . ... ... : ... .. . ... ... ... ...
ROW 67 : ... .. . ... ... : ... .. . ... ... : ... .. . ... ... : ... .. . ... : ... .. . ... ... : ... .. . ... ... ... ...
ROW 68 : ... .. . ... ... : ... .. . ... ... : ... .. . ... ... : ... .. . ... : ... .. . ... ... : ... .. . ... ... ... ...
ROW 69 : ... .. . ... ... : ... .. . ... ... : ... .. . ... ... : ... .. . ... : ... .. . ... ... : ... .. . ... ... ... ...
ROW 6A : ... .. . ... ... : ... .. . ... ... : ... .. . ... ... : ... .. . ... : ... .. . ... ... : ... .. . ... ... ... ...
ROW 6B : ... .. . ... ... : ... .. . ... ... : ... .. . ... ... : ... .. . ... : ... .. . ... ... : ... .. . ... ... ... ...
ROW 6C : ... .. . ... ... : ... .. . ... ... : ... .. . ... ... : ... .. . ... : ... .. . ... ... : ... .. . ... ... ... ...
ROW 6D : ... .. . ... ... : ... .. . ... ... : ... .. . ... ... : ... .. . ... : ... .. . ... ... : ... .. . ... ... ... ...
ROW 6E : ... .. . ... ... : ... .. . ... ... : ... .. . ... ... : ... .. . ... : ... .. . ... ... : ... .. . ... ... ... ...
ROW 6F : ... .. . ... ... : ... .. . ... ... : ... .. . ... ... : ... .. . ... : ... .. . ... ... : ... .. . ... ... ... ...
ROW 70 : ... .. . ... ... : ... .. . ... ... : ... .. . ... ... : ... .. . ... : ... .. . ... ... : ... .. . ... ... ... ...
ROW 71 : ... .. . ... ... : ... .. . ... ... : ... .. . ... ... : ... .. . ... : ... .. . ... ... : ... .. . ... ... ... ...
ROW 72 : ... .. . ... ... : ... .. . ... ... : ... .. . ... ... : ... .. . ... : ... .. . ... ... : ... .. . ... ... ... ...
ROW 73 : ... .. . ... ... : ... .. . ... ... : ... .. . ... ... : ... .. . ... : ... .. . ... ... : ... .. . ... ... ... ...
ROW 74 : ... .. . ... ... : ... .. . ... ... : ... .. . ... ... : ... .. . ... : ... .. . ... ... : ... .. . ... ... ... ...
ROW 75 : ... .. . ... ... : ... .. . ... ... : ... .. . ... ... : ... .. . ... : ... .. . ... ... : ... .. . ... ... ... ...
ROW 76 : ... .. . ... ... : ... .. . ... ... : ... .. . ... ... : ... .. . ... : ... .. . ... ... : ... .. . ... ... ... ...
ROW 77 : ... .. . ... ... : ... .. . ... ... : ... .. . ... ... : ... .. . ... : ... .. . ... ... : ... .. . ... ... ... ...
ROW 78 : ... .. . ... ... : ... .. . ... ... : ... .. . ... ... : ... .. . ... : ... .. . ... ... : ... .. . ... ... ... ...
ROW 79 : ... .. . ... ... : ... .. . ... ... : ... .. . ... ... : ... .. . ... : ... .. . ... ... : ... .. . ... ... ... ...
ROW 7A : ... .. . ... ... : ... .. . ... ... : ... .. . ... ... : ... .. . ... : ... .. . ... ... : ... .. . ... ... ... ...
ROW 7B : ... .. . ... ... : ... .. . ... ... : ... .. . ... ... : ... .. . ... : ... .. . ... ... : ... .. . ... ... ... ...
ROW 7C : ... .. . ... ... : ... .. . ... ... : ... .. . ... ... : ... .. . ... : ... .. . ... ... : ... .. . ... ... ... ...
ROW 7D : ... .. . ... ... : ... .. . ... ... : ... .. . ... ... : ... .. . ... : ... .. . ... ... : ... .. . ... ... ... ...
ROW 7E : ... .. . ... ... : ... .. . ... ... : ... .. . ... ... : ... .. . ... : ... .. . ... ... : ... .. . ... ... ... ...
ROW 7F : ... .. . ... ... : ... .. . ... ... : ... .. . ... ... : ... .. . ... : ... .. . ... ... : ... .. . ... ... ... ...
ROW 80 : ... .. . ... ... : ... .. . ... ... : ... .. . ... ... : ... .. . ... : ... .. . ... ... : ... .. . ... ... ... ...
ROW 81 : ... .. . ... ... : ... .. . ... ... : ... .. . ... ... : ... .. . ... : ... .. . ... ... : ... .. . ... ... ... ...
ROW 82 : ... .. . ... ... : ... .. . ... ... : ... .. . ... ... : ... .. . ... : ... .. . ... ... : ... .. . ... ... ... ...
ROW 83 : ... .. . ... ... : ... .. . ... ... : ... .. . ... ... : ... .. . ... : ... .. . ... ... : ... .. . ... ... ... ...
ROW 84 : ... .. . ... ... : ... .. . ... ... : ... .. . ... ... : ... .. . ... : ... .. . ... ... : ... .. . ... ... ... ...
ROW 85 : ... .. . ... ... : ... .. . ... ... : ... .. . ... ... : ... .. . ... : ... .. . ... ... : ... .. . ... ... ... ...
ROW 86 : ... .. . ... ... : ... .. . ... ... : ... .. . ... ... : ... .. . ... : ... .. . ... ... : ... .. . ... ... ... ...
ROW 87 : ... .. . ... ... : ... .. . ... ... : ... .. . ... ... : ... .. . ... : ... .. . ... ... : ... .. . ... ... ... ...
ROW 88 : ... .. . ... ... : ... .. . ... ... : ... .. . ... ... : ... .. . ... : ... .. . ... ... : ... .. . ... ... ... ...
ROW 89 : ... .. . ... ... : ... .. . ... ... : ... .. . ... ... : ... .. . ... : ... .. . ... ... : ... .. . ... ... ... ...
ROW 8A : ... .. . ... ... : ... .. . ... ... : ... .. . ... ... : ... .. . ... : ... .. . ... ... : ... .. . ... ... ... ...
ROW 8B : ... .. . ... ... : ... .. . ... ... : ... .. . ... ... : ... .. . ... : ... .. . ... ... : ... .. . ... ... ... ...
ROW 8C : ... .. . ... ... : ... .. . ... ... : ... .. . ... ... : ... .. . ... : ... .. . ... ... : ... .. . ... ... ... ...
ROW 8D : ... .. . ... ... : ... .. . ... ... : ... .. . ... ... : ... .. . ... : ... .. . ... ... : ... .. . ... ... ... ...
ROW 8E : ... .. . ... ... : ... .. . ... ... : ... .. . ... ... : ... .. . ... : ... .. . ... ... : ... .. . ... ... ... ...
ROW 8F : ... .. . ... ... : ... .. . ... ... : ... .. . ... ... : ... .. . ... : ... .. . ... ... : ... .. . ... ... ... ...
ROW 90 : ... .. . ... ... : ... .. . ... ... : ... .. . ... ... : ... .. . ... : ... .. . ... ... : ... .. . ... ... ... ...
ROW 91 : ... .. . ... ... : ... .. . ... ... : ... .. . ... ... : ... .. . ... : ... .. . ... ... : ... .. . ... ... ... ...
ROW 92 : ... .. . ... ... : ... .. . ... ... : ... .. . ... ... : ... .. . ... : ... .. . ... ... : ... .. . ... ... ... ...
ROW 93 : ... .. . ... ... : ... .. . ... ... : ... .. . ... ... : ... .. . ... : ... .. . ... ... : ... .. . ... ... ... ...
ROW 94 : ... .. . ... ... : ... .. . ... ... : ... .. . ... ... : ... .. . ... : ... .. . ... ... : ... .. . ... ... ... ...
ROW 95 : ... .. . ... ... : ... .. . ... ... : ... .. . ... ... : ... .. . ... : ... .. . ... ... : ... .. . ... ... ... ...
ROW 96 : ... .. . ... ... : ... .. . ... ... : ... .. . ... ... : ... .. . ... : ... .. . ... ... : ... .. . ... ... ... ...
ROW 97 : ... .. . ... ... : ... .. . ... ... : ... .. . ... ... : ... .. . ... : ... .. . ... ... : ... .. . ... ... ... ...
ROW 98 : ... .. . ... ... : ... .. . ... ... : ... .. . ... ... : ... .. . ... : ... .. . ... ... : ... .. . ... ... ... ...
ROW 99 : ... .. . ... ... : ... .. . ... ... : ... .. . ... ... : ... .. . ... : ... .. . ... ... : ... .. . ... ... ... ...
ROW 9A : ... .. . ... ... : ... .. . ... ... : ... .. . ... ... : ... .. . ... : ... .. . ... ... : ... .. . ... ... ... ...
ROW 9B : ... .. . ... ... : ... .. . ... ... : ... .. . ... ... : ... .. . ... : ... .. . ... ... : ... .. . ... ... ... ...
ROW 9C : ... .. . ... ... : ... .. . ... ... : ... .. . ... ... : ... .. . ... : ... .. . ... ... : ... .. . ... ... ... ...
ROW 9D : ... .. . ... ... : ... .. . ... ... : ... .. . ... ... : ... .. . ... : ... .. . ... ... : ... .. . ... ... ... ...
ROW 9E : ... .. . ... ... : ... .. . ... ... : ... .. . ... ... : ... .. . ... : ... .. . ... ... : ... .. . ... ... ... ...
ROW 9F : ... .. . ... ... : ... .. . ... ... : ... .. . ... ... : ... .. . ... : ... .. . ... ... : ... .. . ... ... ... ...
ROW A0 : ... .. . ... ... : ... .. . ... ... : ... .. . ... ... : ... .. . ... : ... .. . ... ... : ... .. . ... ... ... ...
ROW A1 : ... .. . ... ... : ... .. . ... ... : ... .. . ... ... : ... .. . ... : ... .. . ... ... : ... .. . ... ... ... ...
ROW A2 : ... .. . ... ... : ... .. . ... ... : ... .. . ... ... : ... .. . ... : ... .. . ... ... : ... .. . ... ... ... ...
ROW A3 : ... .. . ... ... : ... .. . ... ... : ... .. . ... ... : ... .. . ... : ... .. . ... ... : ... .. . ... ... ... ...
ROW A4 : ... .. . ... ... : ... .. . ... ... : ... .. . ... ... : ... .. . ... : ... .. . ... ... : ... .. . ... ... ... ...
ROW A5 : ... .. . ... ... : ... .. . ... ... : ... .. . ... ... : ... .. . ... : ... .. . ... ... : ... .. . ... ... ... ...
ROW A6 : ... .. . ... ... : ... .. . ... ... : ... .. . ... ... : ... .. . ... : ... .. . ... ... : ... .. . ... ... ... ...
ROW A7 : ... .. . ... ... : ... .. . ... ... : ... .. . ... ... : ... .. . ... : ... .. . ... ... : ... .. . ... ... ... ...
ROW A8 : ... .. . ... ... : ... .. . ... ... : ... .. . ... ... : ... .. . ... : ... .. . ... ... : ... .. . ... ... ... ...
ROW A9 : ... .. . ... ... : ... .. . ... ... : ... .. . ... ... : ... .. . ... : ... .. . ... ... : ... .. . ... ... ... ...
ROW AA : ... .. . ... ... : ... .. . ... ... : ... .. . ... ... : ... .. . ... : ... .. . ... ... : ... .. . ... ... ... ...
ROW AB : ... .. . ... ... : ... .. . ... ... : ... .. . ... ... : ... .. . ... : ... .. . ... ... : ... .. . ... ... ... ...
ROW AC : ... .. . ... ... : ... .. . ... ... : ... .. . ... ... : ... .. . ... : ... .. . ... ... : ... .. . ... ... ... ...
ROW AD : ... .. . ... ... : ... .. . ... ... : ... .. . ... ... : ... .. . ... : ... .. . ... ... : ... .. . ... ... ... ...
ROW AE : ... .. . ... ... : ... .. . ... ... : ... .. . ... ... : ... .. . ... : ... .. . ... ... : ... .. . ... ... ... ...
ROW AF : ... .. . ... ... : ... .. . ... ... : ... .. . ... ... : ... .. . ... : ... .. . ... ... : ... .. . ... ... ... ...
ROW B0 : ... .. . ... ... : ... .. . ... ... : ... .. . ... ... : ... .. . ... : ... .. . ... ... : ... .. . ... ... ... ...
ROW B1 : ... .. . ... ... : ... .. . ... ... : ... .. . ... ... : ... .. . ... : ... .. . ... ... : ... .. . ... ... ... ...
ROW B2 : ... .. . ... ... : ... .. . ... ... : ... .. . ... ... : ... .. . ... : ... .. . ... ... : ... .. . ... ... ... ...
ROW B3 : ... .. . ... ... : ... .. . ... ... : ... .. . ... ... : ... .. . ... : ... .. . ... ... : ... .. . ... ... ... ...
ROW B4 : ... .. . ... ... : ... .. . ... ... : ... .. . ... ... : ... .. . ... : ... .. . ... ... : ... .. . ... ... ... ...
ROW B5 : ... .. . ... ... : ... .. . ... ... : ... .. . ... ... : ... .. . ... : ... .. . ... ... : ... .. . ... ... ... ...
ROW B6 : ... .. . ... ... : ... .. . ... ... : ... .. . ... ... : ... .. . ... : ... .. . ... ... : ... .. . ... ... ... ...
ROW B7 : ... .. . ... ... : ... .. . ... ... : ... .. . ... ... : ... .. . ... : ... .. . ... ... : ... .. . ... ... ... ...
ROW B8 : ... .. . ... ... : ... .. . ... ... : ... .. . ... ... : ... .. . ... : ... .. . ... ... : ... .. . ... ... ... ...
ROW B9 : ... .. . ... ... : ... .. . ... ... : ... .. . ... ... : ... .. . ... : ... .. . ... ... : ... .. . ... ... ... ...
ROW BA : ... .. . ... ... : ... .. . ... ... : ... .. . ... ... : ... .. . ... : ... .. . ... ... : ... .. . ... ... ... ...
ROW BB : ... .. . ... ... : ... .. . ... ... : ... .. . ... ... : ... .. . ... : ... .. . ... ... : ... .. . ... ... ... ...
ROW BC : ... .. . ... ... : ... .. . ... ... : ... .. . ... ... : ... .. . ... : ... .. . ... ... : ... .. . ... ... ... ...
ROW BD : ... .. . ... ... : ... .. . ... ... : ... .. . ... ... : ... .. . ... : ... .. . ... ... : ... .. . ... ... ... ...
ROW BE : ... .. . ... ... : ... .. . ... ... : ... .. . ... ... : ... .. . ... : ... .. . ... ... : ... .. . ... ... ... ...
ROW BF : ... .. . ... ... : ... .. . ... ... : ... .. . ... ... : ... .. . ... : ... .. . ... ... : ... .. . ... ... ... ...
ROW C0 : ... .. . ... ... : ... .. . ... ... : ... .. . ... ... : ... .. . ... : ... .. . ... ... : ... .. . ... ... ... ...
ROW C1 : ... .. . ... ... : ... .. . ... ... : ... .. . ... ... : ... .. . ... : ... .. . ... ... : ... .. . ... ... ... ...
ROW C2 : ... .. . ... ... : ... .. . ... ... : ... .. . ... ... : ... .. . ... : ... .. . ... ... : ... .. . ... ... ... ...
ROW C3 : ... .. . ... ... : ... .. . ... ... : ... .. . ... ... : ... .. . ... : ... .. . ... ... : ... .. . ... ... ... ...
ROW C4 : ... .. . ... ... : ... .. . ... ... : ... .. . ... ... : ... .. . ... : ... .. . ... ... : ... .. . ... ... ... ...
ROW C5 : ... .. . ... ... : ... .. . ... ... : ... .. . ... ... : ... .. . ... : ... .. . ... ... : ... .. . ... ... ... ...
ROW C6 : ... .. . ... ... : ... .. . ... ... : ... .. . ... ... : ... .. . ... : ... .. . ... ... : ... .. . ... ... ... ...
ROW C7 : ... .. . ... ... : ... .. . ... ... : ... .. . ... ... : ... .. . ... : ... .. . ... ... : ... .. . ... ... ... ...
ROW C8 : ... .. . ... ... : ... .. . ... ... : ... .. . ... ... : ... .. . ... : ... .. . ... ... : ... .. . ... ... ... ...
ROW C9 : ... .. . ... ... : ... .. . ... ... : ... .. . ... ... : ... .. . ... : ... .. . ... ... : ... .. . ... ... ... ...
ROW CA : ... .. . ... ... : ... .. . ... ... : ... .. . ... ... : ... .. . ... : ... .. . ... ... : ... .. . ... ... ... ...
ROW CB : ... .. . ... ... : ... .. . ... ... : ... .. . ... ... : ... .. . ... : ... .. . ... ... : ... .. . ... ... ... ...
ROW CC : ... .. . ... ... : ... .. . ... ... : ... .. . ... ... : ... .. . ... : ... .. . ... ... : ... .. . ... ... ... ...
ROW CD : ... .. . ... ... : ... .. . ... ... : ... .. . ... ... : ... .. . ... : ... .. . ... ... : ... .. . ... ... ... ...
ROW CE : ... .. . ... ... : ... .. . ... ... : ... .. . ... ... : ... .. . ... : ... .. . ... ... : ... .. . ... ... ... ...
ROW CF : ... .. . ... ... : ... .. . ... ... : ... .. . ... ... : ... .. . ... : ... .. . ... ... : ... .. . ... ... ... ...
ROW D0 : ... .. . ... ... : ... .. . ... ... : ... .. . ... ... : ... .. . ... : ... .. . ... ... : ... .. . ... ... ... ...
ROW D1 : ... .. . ... ... : ... .. . ... ... : ... .. . ... ... : ... .. . ... : ... .. . ... ... : ... .. . ... ... ... ...
ROW D2 : ... .. . ... ... : ... .. . ... ... : ... .. . ... ... : ... .. . ... : ... .. . ... ... : ... .. . ... ... ... ...
ROW D3 : ... .. . ... ... : ... .. . ... ... : ... .. . ... ... : ... .. . ... : ... .. . ... ... : ... .. . ... ... ... ...
ROW D4 : ... .. . ... ... : ... .. . ... ... : ... .. . ... ... : ... .. . ... : ... .. . ... ... : ... .. . ... ... ... ...
ROW D5 : ... .. . ... ... : ... .. . ... ... : ... .. . ... ... : ... .. . ... : ... .. . ... ... : ... .. . ... ... ... ...
ROW D6 : ... .. . ... ... : ... .. . ... ... : ... .. . ... ... : ... .. . ... : ... .. . ... ... : ... .. . ... ... ... ...
ROW D7 : ... .. . ... ... : ... .. . ... ... : ... .. . ... ... : ... .. . ... : ... .. . ... ... : ... .. . ... ... ... ...
ROW D8 : ... .. . ... ... : ... .. . ... ... : ... .. . ... ... : ... .. . ... : ... .. . ... ... : ... .. . ... ... ... ...
ROW D9 : ... .. . ... ... : ... .. . ... ... : ... .. . ... ... : ... .. . ... : ... .. . ... ... : ... .. . ... ... ... ...
ROW DA : ... .. . ... ... : ... .. . ... ... : ... .. . ... ... : ... .. . ... : ... .. . ... ... : ... .. . ... ... ... ...
ROW DB : ... .. . ... ... : ... .. . ... ... : ... .. . ... ... : ... .. . ... : ... .. . ... ... : ... .. . ... ... ... ...
ROW DC : ... .. . ... ... : ... .. . ... ... : ... .. . ... ... : ... .. . ... : ... .. . ... ... : ... .. . ... ... ... ...
ROW DD : ... .. . ... ... : ... .. . ... ... : ... .. . ... ... : ... .. . ... : ... .. . ... ... : ... .. . ... ... ... ...
ROW DE : ... .. . ... ... : ... .. . ... ... : ... .. . ... ... : ... .. . ... : ... .. . ... ... : ... .. . ... ... ... ...
ROW DF : ... .. . ... ... : ... .. . ... ... : ... .. . ... ... : ... .. . ... : ... .. . ... ... : ... .. . ... ... ... ...
ROW E0 : ... .. . ... ... : ... .. . ... ... : ... .. . ... ... : ... .. . ... : ... .. . ... ... : ... .. . ... ... ... ...
ROW E1 : ... .. . ... ... : ... .. . ... ... : ... .. . ... ... : ... .. . ... : ... .. . ... ... : ... .. . ... ... ... ...
ROW E2 : ... .. . ... ... : ... .. . ... ... : ... .. . ... ... : ... .. . ... : ... .. . ... ... : ... .. . ... ... ... ...
ROW E3 : ... .. . ... ... : ... .. . ... ... : ... .. . ... ... : ... .. . ... : ... .. . ... ... : ... .. . ... ... ... ...
ROW E4 : ... .. . ... ... : ... .. . ... ... : ... .. . ... ... : ... .. . ... : ... .. . ... ... : ... .. . ... ... ... ...
ROW E5 : ... .. . ... ... : ... .. . ... ... : ... .. . ... ... : ... .. . ... : ... .. . ... ... : ... .. . ... ... ... ...
ROW E6 : ... .. . ... ... : ... .. . ... ... : ... .. . ... ... : ... .. . ... : ... .. . ... ... : ... .. . ... ... ... ...
ROW E7 : ... .. . ... ... : ... .. . ... ... : ... .. . ... ... : ... .. . ... : ... .. . ... ... : ... .. . ... ... ... ...
ROW E8 : ... .. . ... ... : ... .. . ... ... : ... .. . ... ... : ... .. . ... : ... .. . ... ... : ... .. . ... ... ... ...
ROW E9 : ... .. . ... ... : ... .. . ... ... : ... .. . ... ... : ... .. . ... : ... .. . ... ... : ... .. . ... ... ... ...
ROW EA : ... .. . ... ... : ... .. . ... ... : ... .. . ... ... : ... .. . ... : ... .. . ... ... : ... .. . ... ... ... ...
ROW EB : ... .. . ... ... : ... .. . ... ... : ... .. . ... ... : ... .. . ... : ... .. . ... ... : ... .. . ... ... ... ...
ROW EC : ... .. . ... ... : ... .. . ... ... : ... .. . ... ... : ... .. . ... : ... .. . ... ... : ... .. . ... ... ... ...
ROW ED : ... .. . ... ... : ... .. . ... ... : ... .. . ... ... : ... .. . ... : ... .. . ... ... : ... .. . ... ... ... ...
ROW EE : ... .. . ... ... : ... .. . ... ... : ... .. . ... ... : ... .. . ... : ... .. . ... ... : ... .. . ... ... ... ...
ROW EF : ... .. . ... ... : ... .. . ... ... : ... .. . ... ... : ... .. . ... : ... .. . ... ... : ... .. . ... ... ... ...
ROW F0 : ... .. . ... ... : ... .. . ... ... : ... .. . ... ... : ... .. . ... : ... .. . ... ... : ... .. . ... ... ... ...
ROW F1 : ... .. . ... ... : ... .. . ... ... : ... .. . ... ... : ... .. . ... : ... .. . ... ... : ... .. . ... ... ... ...
ROW F2 : ... .. . ... ... : ... .. . ... ... : ... .. . ... ... : ... .. . ... : ... .. . ... ... : ... .. . ... ... ... ...
ROW F3 : ... .. . ... ... : ... .. . ... ... : ... .. . ... ... : ... .. . ... : ... .. . ... ... : ... .. . ... ... ... ...
ROW F4 : ... .. . ... ... : ... .. . ... ... : ... .. . ... ... : ... .. . ... : ... .. . ... ... : ... .. . ... ... ... ...
ROW F5 : ... .. . ... ... : ... .. . ... ... : ... .. . ... ... : ... .. . ... : ... .. . ... ... : ... .. . ... ... ... ...
ROW F6 : ... .. . ... ... : ... .. . ... ... : ... .. . ... ... : ... .. . ... : ... .. . ... ... : ... .. . ... ... ... ...
ROW F7 : ... .. . ... ... : ... .. . ... ... : ... .. . ... ... : ... .. . ... : ... .. . ... ... : ... .. . ... ... ... ...
ROW F8 : ... .. . ... ... : ... .. . ... ... : ... .. . ... ... : ... .. . ... : ... .. . ... ... : ... .. . ... ... ... ...
ROW F9 : ... .. . ... ... : ... .. . ... ... : ... .. . ... ... : ... .. . ... : ... .. . ... ... : ... .. . ... ... ... ...
ROW FA : ... .. . ... ... : ... .. . ... ... : ... .. . ... ... : ... .. . ... : ... .. . ... ... : ... .. . ... ... ... ...
ROW FB : ... .. . ... ... : ... .. . ... ... : ... .. . ... ... : ... .. . ... : ... .. . ... ... : ... .. . ... ... ... ...
ROW FC : ... .. . ... ... : ... .. . ... ... : ... .. . ... ... : ... .. . ... : ... .. . ... ... : ... .. . ... ... ... ...
ROW FD : ... .. . ... ... : ... .. . ... ... : ... .. . ... ... : ... .. . ... : ... .. . ... ... : ... .. . ... ... ... ...
ROW FE : ... .. . ... ... : ... .. . ... ... : ... .. . ... ... : ... .. . ... : ... .. . ... ... : ... .. . ... ... ... ...
ROW FF : ... .. . ... ... : ... .. . ... ... : ... .. . ... ... : ... .. . ... : ... .. . ... ... : ... .. . ... ... ... ...

PATTERN 13
ROW 00 : --- .. . ... ... : G-3 0F C 400 Q01 : F-2 11 . 200 ... : D-# 05 6 ... : ... .. . F04 ... : F-3 00 C I00 J66 ... ...
ROW 01 : ... .. . ... ... : ... .. . ... ... : ... .. . S03 ... : ... .. . ... : ... .. . ... ... : ... .. . ... ... ... ...
ROW 02 : ... .. . ... ... : ... .. . ... ... : ... .. . ... ... : ... .. . ... : ... .. . ... ... : ... .. . ... ... ... ...
ROW 03 : ... .. . ... ... : ... .. . ... ... : ... .. . ... ... : ... .. . ... : ... .. . ... ... : ... .. . ... ... ... ...
ROW 04 : ... .. . ... ... : ... .. . ... ... : F-2 11 . 200 ... : ... .. . ... : ... .. . ... ... : F-3 00 . I00 J66 ... ...
ROW 05 : ... .. . ... ... : ... .. . ... ... : ... .. . S03 ... : ... .. . ... : ... .. . ... ... : ... .. . ... ... ... ...
ROW 06 : ... .. . ... ... : ... .. . 465 ... : F-2 11 . ... ... : D-# 05 . ... : ... .. . ... ... : F-3 00 . I00 J66 ... ...
ROW 07 : ... .. . ... ... : ... .. . ... ... : ... .. . S03 ... : ... .. . ... : ... .. . ... ... : ... .. . ... ... ... ...
ROW 08 : ... .. . ... ... : C#3 0F C 400 ... : F-4 03 . 246 ... : 6-# 08 A ... : ... .. . ... ... : ... .. . ... ... ... ...
ROW 09 : ... .. . ... ... : ... .. A ... ... : ... .. . ... ... : ... .. . ... : ... .. . ... ... : ... .. . ... ... ... ...
ROW 0A : ... .. . ... ... : G#3 0F 6 ... ... : F-2 11 . 200 ... : ... .. . ... : ... .. . ... ... : F-3 00 . I00 J66 ... ...
ROW 0B : ... .. . ... ... : ... .. 4 ... ... : ... .. . S03 ... : ... .. . ... : ... .. . ... ... : ... .. . ... ... ... ...
ROW 0C : ... .. . ... ... : C#3 0F C ... ... : F-3 11 . ... ... : D-# 05 6 ... : ... .. . ... ... : F-4 00 . I00 JCD ... ...
ROW 0D : ... .. . ... ... : ... .. . ... ... : ... .. . S03 ... : ... .. . ... : ... .. . ... ... : ... .. . ... ... ... ...
ROW 0E : ... .. . ... ... : ... .. . ... ... : ... .. . ... ... : D-# 05 . ... : ... .. . ... ... : ... .. . ... ... ... ...
ROW 0F : ... .. . ... ... : ... .. . ... ... : ... .. . ... ... : ... .. . ... : ... .. . ... ... : ... .. . ... ... ... ...
ROW 10 : ... .. . ... ... : ... .. . ... ... : F-4 03 . 246 ... : ... .. . ... : ... .. . ... ... : F-3 00 . I00 J66 ... ...
ROW 11 : ... .. . ... ... : ... .. . ... ... : ... .. . ... ... : ... .. . ... : ... .. . ... ... : ... .. . ... ... ... ...
ROW 12 : ... .. . ... ... : ... .. . 465 ... : F-3 11 . ... ... : ... .. . ... : ... .. . ... ... : F-4 00 . I00 JCD ... ...
ROW 13 : ... .. . ... ... : ... .. . ... ... : ... .. . S03 ... : ... .. . ... : ... .. . ... ... : ... .. . ... ... ... ...
ROW 14 : ... .. . ... ... : ... .. . ... ... : ... .. . ... ... : D-# 05 . ... : ... .. . ... ... : ... .. . ... ... ... ...
ROW 15 : ... .. . ... ... : ... .. . ... ... : ... .. . ... ... : ... .. . ... : ... .. . ... ... : ... .. . ... ... ... ...
ROW 16 : ... .. . ... ... : ... .. . ... ... : F-2 11 . ... ... : D-# 05 . ... : ... .. . ... ... : F-3 00 . I00 J66 ... ...
ROW 17 : ... .. . ... ... : ... .. . ... ... : ... .. . S03 ... : ... .. . ... : ... .. . ... ... : ... .. . ... ... ... ...
ROW 18 : G-3 14 1 ... ... : G-3 0F C 400 ... : F-4 03 . 246 ... : ... .. . ... : ... .. . ... ... : F-4 00 . I00 JCD ... ...
ROW 19 : ... .. . ... ... : ... .. A ... ... : ... .. . ... ... : ... .. . ... : ... .. . ... ... : ... .. . ... ... ... ...
ROW 1A : ... .. . ... ... : C#3 0F 6 ... ... : ... .. . ... ... : D-# 05 . ... : ... .. . ... ... : ... .. . ... ... ... ...
ROW 1B : ... .. . ... ... : ... .. 4 ... ... : ... .. . ... ... : ... .. . ... : ... .. . ... ... : ... .. . ... ... ... ...
ROW 1C : ... .. . ... ... : G#3 0F C ... ... : F-2 11 . 200 ... : 6-# 08 A ... : ... .. . ... ... : F-3 00 . I00 J66 ... ...
ROW 1D : ... .. . ... ... : ... .. A ... ... : ... .. . S03 ... : ... .. . ... : ... .. . ... ... : ... .. . ... ... ... ...
ROW 1E : ... .. . ... ... : G-3 0F 6 ... ... : F-3 11 . ... ... : ... .. . ... : ... .. . ... ... : F-4 00 . I00 JCD ... ...
ROW 1F : ... .. . ... ... : ... .. 4 ... ... : ... .. . S03 ... : ... .. . ... : ... .. . ... ... : ... .. . ... ... ... ...
ROW 20 : ... .. . ... ... : G-3 0F C ... ... : F-4 03 . 246 ... : 6-# 08 . ... : ... .. . ... ... : F-3 00 . I00 J66 ... ...
ROW 21 : ... .. . ... ... : ... .. . ... ... : ... .. . ... ... : ... .. . ... : ... .. . ... ... : ... .. . ... ... ... ...
ROW 22 : ... .. . ... ... : ... .. . ... ... : ... .. . ... ... : ... .. . ... : ... .. . ... ... : ... .. . ... ... ... ...
ROW 23 : ... .. . ... ... : ... .. . ... ... : ... .. . ... ... : ... .. . ... : ... .. . ... ... : ... .. . ... ... ... ...
ROW 24 : ... .. 2 ... ... : G#3 0F 6 ... ... : F-2 11 . 200 ... : D-# 05 6 ... : ... .. . ... ... : F-3 00 . I00 J66 ... ...
ROW 25 : ... .. . ... ... : ... .. 4 ... ... : ... .. . S03 ... : ... .. . ... : ... .. . ... ... : ... .. . ... ... ... ...
ROW 26 : ... .. . ... ... : ... .. 2 ... ... : F-2 11 . ... ... : 6-# 08 A ... : ... .. . ... ... : F-3 00 . I00 J66 ... ...
ROW 27 : ... .. . ... ... : ... .. 1 ... ... : ... .. . S03 ... : ... .. . ... : ... .. . ... ... : ... .. . ... ... ... ...
ROW 28 : ... .. . ... ... : D#3 0F C ... ... : F-4 03 . 246 ... : ... .. . ... : ... .. . ... ... : ... .. . ... ... ... ...
ROW 29 : ... .. . ... ... : ... .. . ... ... : ... .. . ... ... : ... .. . ... : ... .. . ... ... : ... .. . ... ... ... ...
ROW 2A : ... .. . ... ... : ... .. . ... ... : F-2 11 . 200 ... : D-# 05 6 ... : ... .. . ... ... : F-3 00 . I00 J66 ... ...
ROW 2B : ... .. . ... ... : ... .. . ... ... : ... .. . S03 ... : ... .. . ... : ... .. . ... ... : ... .. . ... ... ... ...
ROW 2C : ... .. . ... ... : G-3 0F 6 ... ... : F-2 11 . ... ... : 6-# 08 A ... : ... .. . ... ... : F-3 00 . I00 J66 ... ...
ROW 2D : ... .. . ... ... : ... .. 4 ... ... : ... .. . S03 ... : ... .. . ... : ... .. . ... ... : ... .. . ... ... ... ...
ROW 2E : ... .. . ... ... : ... .. 2 ... ... : ... .. . ... ... : ... .. . ... : ... .. . ... ... : ... .. . ... ... ... ...
ROW 2F : ... .. . ... ... : ... .. 1 ... ... : ... .. . ... ... : ... .. . ... : ... .. . ... ... : ... .. . ... ... ... ...
ROW 30 : ... .. 3 ... ... : A-3 0F C Q01 ... : F-4 03 . 246 ... : D-# 05 6 ... : ... .. . ... ... : F-3 00 . I00 J66 ... ...
ROW 31 : ... .. . ... ... : ... .. . ... ... : ... .. . ... ... : ... .. . ... : ... .. . ... ... : ... .. . ... ... ... ...
ROW 32 : ... .. . ... ... : ... .. . ... ... : ... .. . ... ... : 6-# 08 A ... : ... .. . ... ... : ... .. . ... ... ... ...
ROW 33 : ... .. . ... ... : ... .. . ... ... : ... .. . ... ... : ... .. . ... : ... .. . ... ... : ... .. . ... ... ... ...
ROW 34 : ... .. . ... ... : D#3 0F 6 ... ... : F-2 11 . 200 ... : ... .. . ... : ... .. . ... ... : F-3 00 . I00 J66 ... ...
ROW 35 : ... .. . ... ... : ... .. 4 ... ... : ... .. . S03 ... : ... .. . ... : ... .. . ... ... : ... .. . ... ... ... ...
ROW 36 : ... .. . ... ... : ... .. 2 ... ... : ... .. . ... ... : D-# 05 6 ... : ... .. . ... ... : ... .. . ... ... ... ...
ROW 37 : ... .. . ... ... : ... .. 1 ... ... : ... .. . ... ... : ... .. . ... : ... .. . ... ... : ... .. . ... ... ... ...
ROW 38 : ... .. . ... ... : D#4 0F C ... ... : G-4 03 . 246 ... : 6-# 08 A ... : ... .. . ... ... : G-3 00 . I00 J73 ... ...
ROW 39 : ... .. . ... ... : ... .. . ... ... : ... .. . ... ... : ... .. . ... : ... .. . ... ... : ... .. . ... ... ... ...
ROW 3A : ... .. . ... ... : ... .. . ... ... : ... .. . ... ... : D-# 05 6 ... : ... .. . ... ... : ... .. . ... ... ... ...
ROW 3B : ... .. . ... ... : ... .. . ... ... : ... .. . ... ... : ... .. . ... : ... .. . ... ... : ... .. . ... ... ... ...
ROW 3C : ... .. 4 ... ... : A#3 0F 6 ... ... : G-2 11 . 200 ... : 6-# 08 A ... : ... .. . ... ... : G-3 00 . I00 J73 ... ...
ROW 3D : ... .. . ... ... : ... .. 4 ... ... : ... .. . S03 ... : ... .. . ... : ... .. . ... ... : ... .. . ... ... ... ...
ROW 3E : ... .. . ... ... : ... .. 2 ... ... : ... .. . ... ... : 6-# 08 . ... : ... .. . ... ... : ... .. . ... ... ... ...
ROW 3F : ... .. . ... ... : ... .. 1 ... ... : ... .. . ... ... : ... .. . ... : ... .. . D00 ... : ... .. . ... ... ... ...
ROW 40 : ... .. . ... ... : ... .. . ... ... : ... .. . ... ... : ... .. . ... : ... .. . ... ... : ... .. . ... ... ... ...
ROW 41 : ... .. . ... ... : ... .. . ... ... : ... .. . ... ... : ... .. . ... : ... .. . ... ... : ... .. . ... ... ... ...
ROW 42 : ... .. . ... ... : ... .. . ... ... : ... .. . ... ... : ... .. . ... : ... .. . ... ... : ... .. . ... ... ... ...
ROW 43 : ... .. . ... ... : ... .. . ... ... : ... .. . ... ... : ... .. . ... : ... .. . ... ... : ... .. . ... ... ... ...
ROW 44 : ... .. . ... ... : ... .. . ... ... : ... .. . ... ... : ... .. . ... : ... .. . ... ... : ... .. . ... ... ... ...
ROW 45 : ... .. . ... ... : ... .. . ... ... : ... .. . ... ... : ... .. . ... : ... .. . ... ... : ... .. . ... ... ... ...
ROW 46 : ... .. . ... ... : ... .. . ... ... : ... .. . ... ... : ... .. . ... : ... .. . ... ... : ... .. . ... ... ... ...
ROW 47 : ... .. . ... ... : ... .. . ... ... : ... .. . ... ... : ... .. . ... : ... .. . ... ... : ... .. . ... ... ... ...
ROW 48 : ... .. 5 ... ... : ... .. . ... ... : ... .. . ... ... : ... .. . ... : ... .. . ... ... : ... .. . ... ... ... ...
ROW 49 : ... .. . ... ... : ... .. . ... ... : ... .. . ... ... : ... .. . ... : ... .. . ... ... : ... .. . ... ... ... ...
ROW 4A : ... .. . ... ... : ... .. . ... ... : ... .. . ... ... : ... .. . ... : ... .. . ... ... : ... .. . ... ... ... ...
ROW 4B : ... .. . ... ... : ... .. . ... ... : ... .. . ... ... : ... .. . ... : ... .. . ... ... : ... .. . ... ... ... ...
ROW 4C : ... .. . ... ... : ... .. . ... ... : ... .. . ... ... : ... .. . ... : ... .. . ... ... : ... .. . ... ... ... ...
ROW 4D : ... .. . ... ... : ... .. . ... ... : ... .. . ... ... : ... .. . ... : ... .. . ... ... : ... .. . ... ... ... ...
ROW 4E : ... .. . ... ... : ... .. . ... ... : ... .. . ... ... : ... .. . ... : ... .. . ... ... : ... .. . ... ... ... ...
ROW 4F : ... .. . ... ... : ... .. . ... ... : ... .. . ... ... : ... .. . ... : ... .. . ... ... : ... .. . ... ... ... ...
ROW 50 : ... .. . ... ... : ... .. . ... ... : ... .. . ... ... : ... .. . ... : ... .. . ... ... : ... .. . ... ... ... ...
ROW 51 : ... .. . ... ... : ... .. . ... ... : ... .. . ... ... : ... .. . ... : ... .. . ... ... : ... .. . ... ... ... ...
ROW 52 : ... .. . ... ... : ... .. . ... ... : ... .. . ... ... : ... .. . ... : ... .. . ... ... : ... .. . ... ... ... ...
ROW 53 : ... .. . ... ... : ... .. . ... ... : ... .. . ... ... : ... .. . ... : ... .. . ... ... : ... .. . ... ... ... ...
ROW 54 : ... .. . ... ... : ... .. . ... ... : ... .. . ... ... : ... .. . ... : ... .. . ... ... : ... .. . ... ... ... ...
ROW 55 : ... .. . ... ... : ... .. . ... ... : ... .. . ... ... : ... .. . ... : ... .. . ... ... : ... .. . ... ... ... ...
ROW 56 : ... .. . ... ... : ... .. . ... ... : ... .. . ... ... : ... .. . ... : ... .. . ... ... : ... .. . ... ... ... ...
ROW 57 : ... .. . ... ... : ... .. . ... ... : ... .. . ... ... : ... .. . ... : ... .. . ... ... : ... .. . ... ... ... ...
ROW 58 : ... .. . ... ... : ... .. . ... ... : ... .. . ... ... : ... .. . ... : ... .. . ... ... : ... .. . ... ... ... ...
ROW 59 : ... .. . ... ... : ... .. . ... ... : ... .. . ... ... : ... .. . ... : ... .. . ... ... : ... .. . ... ... ... ...
ROW 5A : ... .. . ... ... : ... .. . ... ... : ... .. . ... ... : ... .. . ... : ... .. . ... ... : ... .. . ... ... ... ...
ROW 5B : ... .. . ... ... : ... .. . ... ... : ... .. . ... ... : ... .. . ... : ... .. . ... ... : ... .. . ... ... ... ...
ROW 5C : ... .. . ... ... : ... .. . ... ... : ... .. . ... ... : ... .. . ... : ... .. . ... ... : ... .. . ... ... ... ...
ROW 5D : ... .. . ... ... : ... .. . ... ... : ... .. . ... ... : ... .. . ... : ... .. . ... ... : ... .. . ... ... ... ...
ROW 5E : ... .. . ... ... : ... .. . ... ... : ... .. . ... ... : ... .. . ... : ... .. . ... ... : ... .. . ... ... ... ...
ROW 5F : ... .. . ... ... : ... .. . ... ... : ... .. . ... ... : ... .. . ... : ... .. . ... ... : ... .. . ... ... ... ...
ROW 60 : ... .. . ... ... : ... .. . ... ... : ... .. . ... ... : ... .. . ... : ... .. . ... ... : ... .. . ... ... ... ...
ROW 61 : ... .. . ... ... : ... .. . ... ... : ... .. . ... ... : ... .. . ... : ... .. . ... ... : ... .. . ... ... ... ...
ROW 62 : ... .. . ... ... : ... .. . ... ... : ... .. . ... ... : ... .. . ... : ... .. . ... ... : ... .. . ... ... ... ...
ROW 63 : ... .. . ... ... : ... .. . ... ... : ... .. . ... ... : ... .. . ... : ... .. . ... ... : ... .. . ... ... ... ...
ROW 64 : ... .. . ... ... : ... .. . ... ... : ... .. . ... ... : ... .. . ... : ... .. . ... ... : ... .. . ... ... ... ...
ROW 65 : ... .. . ... ... : ... .. . ... ... : ... .. . ... ... : ... .. . ... : ... .. . ... ... : ... .. . ... ... ... ...
ROW 66 : ... .. . ... ... : ... .. . ... ... : ... .. . ... ... : ... .. . ... : ... .. . ... ... : ... .. . ... ... ... ...
ROW 67 : ... .. . ... ... : ... .. . ... ... : ... .. . ... ... : ... .. . ... : ... .. . ... ... : ... .. . ... ... ... ...
ROW 68 : ... .. . ... ... : ... .. . ... ... : ... .. . ... ... : ... .. . ... : ... .. . ... ... : ... .. . ... ... ... ...
ROW 69 : ... .. . ... ... : ... .. . ... ... : ... .. . ... ... : ... .. . ... : ... .. . ... ... : ... .. . ... ... ... ...
ROW 6A : ... .. . ... ... : ... .. . ... ... : ... .. . ... ... : ... .. . ... : ... .. . ... ... : ... .. . ... ... ... ...
ROW 6B : ... .. . ... ... : ... .. . ... ... : ... .. . ... ... : ... .. . ... : ... .. . ... ... : ... .. . ... ... ... ...
ROW 6C : ... .. . ... ... : ... .. . ... ... : ... .. . ... ... : ... .. . ... : ... .. . ... ... : ... .. . ... ... ... ...
ROW 6D : ... .. . ... ... : ... .. . ... ... : ... .. . ... ... : ... .. . ... : ... .. . ... ... : ... .. . ... ... ... ...
ROW 6E : ... .. . ... ... : ... .. . ... ... : ... .. . ... ... : ... .. . ... : ... .. . ... ... : ... .. . ... ... ... ...
ROW 6F : ... .. . ... ... : ... .. . ... ... : ... .. . ... ... : ... .. . ... : ... .. . ... ... : ... .. . ... ... ... ...
ROW 70 : ... .. . ... ... : ... .. . ... ... : ... .. . ... ... : ... .. . ... : ... .. . ... ... : ... .. . ... ... ... ...
ROW 71 : ... .. . ... ... : ... .. . ... ... : ... .. . ... ... : ... .. . ... : ... .. . ... ... : ... .. . ... ... ... ...
ROW 72 : ... .. . ... ... : ... .. . ... ... : ... .. . ... ... : ... .. . ... : ... .. . ... ... : ... .. . ... ... ... ...
ROW 73 : ... .. . ... ... : ... .. . ... ... : ... .. . ... ... : ... .. . ... : ... .. . ... ... : ... .. . ... ... ... ...
ROW 74 : ... .. . ... ... : ... .. . ... ... : ... .. . ... ... : ... .. . ... : ... .. . ... ... : ... .. . ... ... ... ...
ROW 75 : ... .. . ... ... : ... .. . ... ... : ... .. . ... ... : ... .. . ... : ... .. . ... ... : ... .. . ... ... ... ...
ROW 76 : ... .. . ... ... : ... .. . ... ... : ... .. . ... ... : ... .. . ... : ... .. . ... ... : ... .. . ... ... ... ...
ROW 77 : ... .. . ... ... : ... .. . ... ... : ... .. . ... ... : ... .. . ... : ... .. . ... ... : ... .. . ... ... ... ...
ROW 78 : ... .. . ... ... : ... .. . ... ... : ... .. . ... ... : ... .. . ... : ... .. . ... ... : ... .. . ... ... ... ...
ROW 79 : ... .. . ... ... : ... .. . ... ... : ... .. . ... ... : ... .. . ... : ... .. . ... ... : ... .. . ... ... ... ...
ROW 7A : ... .. . ... ... : ... .. . ... ... : ... .. . ... ... : ... .. . ... : ... .. . ... ... : ... .. . ... ... ... ...
ROW 7B : ... .. . ... ... : ... .. . ... ... : ... .. . ... ... : ... .. . ... : ... .. . ... ... : ... .. . ... ... ... ...
ROW 7C : ... .. . ... ... : ... .. . ... ... : ... .. . ... ... : ... .. . ... : ... .. . ... ... : ... .. . ... ... ... ...
ROW 7D : ... .. . ... ... : ... .. . ... ... : ... .. . ... ... : ... .. . ... : ... .. . ... ... : ... .. . ... ... ... ...
ROW 7E : ... .. . ... ... : ... .. . ... ... : ... .. . ... ... : ... .. . ... : ... .. . ... ... : ... .. . ... ... ... ...
ROW 7F : ... .. . ... ... : ... .. . ... ... : ... .. . ... ... : ... .. . ... : ... .. . ... ... : ... .. . ... ... ... ...
ROW 80 : ... .. . ... ... : ... .. . ... ... : ... .. . ... ... : ... .. . ... : ... .. . ... ... : ... .. . ... ... ... ...
ROW 81 : ... .. . ... ... : ... .. . ... ... : ... .. . ... ... : ... .. . ... : ... .. . ... ... : ... .. . ... ... ... ...
ROW 82 : ... .. . ... ... : ... .. . ... ... : ... .. . ... ... : ... .. . ... : ... .. . ... ... : ... .. . ... ... ... ...
ROW 83 : ... .. . ... ... : ... .. . ... ... : ... .. . ... ... : ... .. . ... : ... .. . ... ... : ... .. . ... ... ... ...
ROW 84 : ... .. . ... ... : ... .. . ... ... : ... .. . ... ... : ... .. . ... : ... .. . ... ... : ... .. . ... ... ... ...
ROW 85 : ... .. . ... ... : ... .. . ... ... : ... .. . ... ... : ... .. . ... : ... .. . ... ... : ... .. . ... ... ... ...
ROW 86 : ... .. . ... ... : ... .. . ... ... : ... .. . ... ... : ... .. . ... : ... .. . ... ... : ... .. . ... ... ... ...
ROW 87 : ... .. . ... ... : ... .. . ... ... : ... .. . ... ... : ... .. . ... : ... .. . ... ... : ... .. . ... ... ... ...
ROW 88 : ... .. . ... ... : ... .. . ... ... : ... .. . ... ... : ... .. . ... : ... .. . ... ... : ... .. . ... ... ... ...
ROW 89 : ... .. . ... ... : ... .. . ... ... : ... .. . ... ... : ... .. . ... : ... .. . ... ... : ... .. . ... ... ... ...
ROW 8A : ... .. . ... ... : ... .. . ... ... : ... .. . ... ... : ... .. . ... : ... .. . ... ... : ... .. . ... ... ... ...
ROW 8B : ... .. . ... ... : ... .. . ... ... : ... .. . ... ... : ... .. . ... : ... .. . ... ... : ... .. . ... ... ... ...
ROW 8C : ... .. . ... ... : ... .. . ... ... : ... .. . ... ... : ... .. . ... : ... .. . ... ... : ... .. . ... ... ... ...
ROW 8D : ... .. . ... ... : ... .. . ... ... : ... .. . ... ... : ... .. . ... : ... .. . ... ... : ... .. . ... ... ... ...
ROW 8E : ... .. . ... ... : ... .. . ... ... : ... .. . ... ... : ... .. . ... : ... .. . ... ... : ... .. . ... ... ... ...
ROW 8F : ... .. . ... ... : ... .. . ... ... : ... .. . ... ... : ... .. . ... : ... .. . ... ... : ... .. . ... ... ... ...
ROW 90 : ... .. . ... ... : ... .. . ... ... : ... .. . ... ... : ... .. . ... : ... .. . ... ... : ... .. . ... ... ... ...
ROW 91 : ... .. . ... ... : ... .. . ... ... : ... .. . ... ... : ... .. . ... : ... .. . ... ... : ... .. . ... ... ... ...
ROW 92 : ... .. . ... ... : ... .. . ... ... : ... .. . ... ... : ... .. . ... : ... .. . ... ... : ... .. . ... ... ... ...
ROW 93 : ... .. . ... ... : ... .. . ... ... : ... .. . ... ... : ... .. . ... : ... .. . ... ... : ... .. . ... ... ... ...
ROW 94 : ... .. . ... ... : ... .. . ... ... : ... .. . ... ... : ... .. . ... : ... .. . ... ... : ... .. . ... ... ... ...
ROW 95 : ... .. . ... ... : ... .. . ... ... : ... .. . ... ... : ... .. . ... : ... .. . ... ... : ... .. . ... ... ... ...
ROW 96 : ... .. . ... ... : ... .. . ... ... : ... .. . ... ... : ... .. . ... : ... .. . ... ... : ... .. . ... ... ... ...
ROW 97 : ... .. . ... ... : ... .. . ... ... : ... .. . ... ... : ... .. . ... : ... .. . ... ... : ... .. . ... ... ... ...
ROW 98 : ... .. . ... ... : ... .. . ... ... : ... .. . ... ... : ... .. . ... : ... .. . ... ... : ... .. . ... ... ... ...
ROW 99 : ... .. . ... ... : ... .. . ... ... : ... .. . ... ... : ... .. . ... : ... .. . ... ... : ... .. . ... ... ... ...
ROW 9A : ... .. . ... ... : ... .. . ... ... : ... .. . ... ... : ... .. . ... : ... .. . ... ... : ... .. . ... ... ... ...
ROW 9B : ... .. . ... ... : ... .. . ... ... : ... .. . ... ... : ... .. . ... : ... .. . ... ... : ... .. . ... ... ... ...
ROW 9C : ... .. . ... ... : ... .. . ... ... : ... .. . ... ... : ... .. . ... : ... .. . ... ... : ... .. . ... ... ... ...
ROW 9D : ... .. . ... ... : ... .. . ... ... : ... .. . ... ... : ... .. . ... : ... .. . ... ... : ... .. . ... ... ... ...
ROW 9E : ... .. . ... ... : ... .. . ... ... : ... .. . ... ... : ... .. . ... : ... .. . ... ... : ... .. . ... ... ... ...
ROW 9F : ... .. . ... ... : ... .. . ... ... : ... .. . ... ... : ... .. . ... : ... .. . ... ... : ... .. . ... ... ... ...
ROW A0 : ... .. . ... ... : ... .. . ... ... : ... .. . ... ... : ... .. . ... : ... .. . ... ... : ... .. . ... ... ... ...
ROW A1 : ... .. . ... ... : ... .. . ... ... : ... .. . ... ... : ... .. . ... : ... .. . ... ... : ... .. . ... ... ... ...
ROW A2 : ... .. . ... ... : ... .. . ... ... : ... .. . ... ... : ... .. . ... : ... .. . ... ... : ... .. . ... ... ... ...
ROW A3 : ... .. . ... ... : ... .. . ... ... : ... .. . ... ... : ... .. . ... : ... .. . ... ... : ... .. . ... ... ... ...
ROW A4 : ... .. . ... ... : ... .. . ... ... : ... .. . ... ... : ... .. . ... : ... .. . ... ... : ... .. . ... ... ... ...
ROW A5 : ... .. . ... ... : ... .. . ... ... : ... .. . ... ... : ... .. . ... : ... .. . ... ... : ... .. . ... ... ... ...
ROW A6 : ... .. . ... ... : ... .. . ... ... : ... .. . ... ... : ... .. . ... : ... .. . ... ... : ... .. . ... ... ... ...
ROW A7 : ... .. . ... ... : ... .. . ... ... : ... .. . ... ... : ... .. . ... : ... .. . ... ... : ... .. . ... ... ... ...
ROW A8 : ... .. . ... ... : ... .. . ... ... : ... .. . ... ... : ... .. . ... : ... .. . ... ... : ... .. . ... ... ... ...
ROW A9 : ... .. . ... ... : ... .. . ... ... : ... .. . ... ... : ... .. . ... : ... .. . ... ... : ... .. . ... ... ... ...
ROW AA : ... .. . ... ... : ... .. . ... ... : ... .. . ... ... : ... .. . ... : ... .. . ... ... : ... .. . ... ... ... ...
ROW AB : ... .. . ... ... : ... .. . ... ... : ... .. . ... ... : ... .. . ... : ... .. . ... ... : ... .. . ... ... ... ...
ROW AC : ... .. . ... ... : ... .. . ... ... : ... .. . ... ... : ... .. . ... : ... .. . ... ... : ... .. . ... ... ... ...
ROW AD : ... .. . ... ... : ... .. . ... ... : ... .. . ... ... : ... .. . ... : ... .. . ... ... : ... .. . ... ... ... ...
ROW AE : ... .. . ... ... : ... .. . ... ... : ... .. . ... ... : ... .. . ... : ... .. . ... ... : ... .. . ... ... ... ...
ROW AF : ... .. . ... ... : ... .. . ... ... : ... .. . ... ... : ... .. . ... : ... .. . ... ... : ... .. . ... ... ... ...
ROW B0 : ... .. . ... ... : ... .. . ... ... : ... .. . ... ... : ... .. . ... : ... .. . ... ... : ... .. . ... ... ... ...
ROW B1 : ... .. . ... ... : ... .. . ... ... : ... .. . ... ... : ... .. . ... : ... .. . ... ... : ... .. . ... ... ... ...
ROW B2 : ... .. . ... ... : ... .. . ... ... : ... .. . ... ... : ... .. . ... : ... .. . ... ... : ... .. . ... ... ... ...
ROW B3 : ... .. . ... ... : ... .. . ... ... : ... .. . ... ... : ... .. . ... : ... .. . ... ... : ... .. . ... ... ... ...
ROW B4 : ... .. . ... ... : ... .. . ... ... : ... .. . ... ... : ... .. . ... : ... .. . ... ... : ... .. . ... ... ... ...
ROW B5 : ... .. . ... ... : ... .. . ... ... : ... .. . ... ... : ... .. . ... : ... .. . ... ... : ... .. . ... ... ... ...
ROW B6 : ... .. . ... ... : ... .. . ... ... : ... .. . ... ... : ... .. . ... : ... .. . ... ... : ... .. . ... ... ... ...
ROW B7 : ... .. . ... ... : ... .. . ... ... : ... .. . ... ... : ... .. . ... : ... .. . ... ... : ... .. . ... ... ... ...
ROW B8 : ... .. . ... ... : ... .. . ... ... : ... .. . ... ... : ... .. . ... : ... .. . ... ... : ... .. . ... ... ... ...
ROW B9 : ... .. . ... ... : ... .. . ... ... : ... .. . ... ... : ... .. . ... : ... .. . ... ... : ... .. . ... ... ... ...
ROW BA : ... .. . ... ... : ... .. . ... ... : ... .. . ... ... : ... .. . ... : ... .. . ... ... : ... .. . ... ... ... ...
ROW BB : ... .. . ... ... : ... .. . ... ... : ... .. . ... ... : ... .. . ... : ... .. . ... ... : ... .. . ... ... ... ...
ROW BC : ... .. . ... ... : ... .. . ... ... : ... .. . ... ... : ... .. . ... : ... .. . ... ... : ... .. . ... ... ... ...
ROW BD : ... .. . ... ... : ... .. . ... ... : ... .. . ... ... : ... .. . ... : ... .. . ... ... : ... .. . ... ... ... ...
ROW BE : ... .. . ... ... : ... .. . ... ... : ... .. . ... ... : ... .. . ... : ... .. . ... ... : ... .. . ... ... ... ...
ROW BF : ... .. . ... ... : ... .. . ... ... : ... .. . ... ... : ... .. . ... : ... .. . ... ... : ... .. . ... ... ... ...
ROW C0 : ... .. . ... ... : ... .. . ... ... : ... .. . ... ... : ... .. . ... : ... .. . ... ... : ... .. . ... ... ... ...
ROW C1 : ... .. . ... ... : ... .. . ... ... : ... .. . ... ... : ... .. . ... : ... .. . ... ... : ... .. . ... ... ... ...
ROW C2 : ... .. . ... ... : ... .. . ... ... : ... .. . ... ... : ... .. . ... : ... .. . ... ... : ... .. . ... ... ... ...
ROW C3 : ... .. . ... ... : ... .. . ... ... : ... .. . ... ... : ... .. . ... : ... .. . ... ... : ... .. . ... ... ... ...
ROW C4 : ... .. . ... ... : ... .. . ... ... : ... .. . ... ... : ... .. . ... : ... .. . ... ... : ... .. . ... ... ... ...
ROW C5 : ... .. . ... ... : ... .. . ... ... : ... .. . ... ... : ... .. . ... : ... .. . ... ... : ... .. . ... ... ... ...
ROW C6 : ... .. . ... ... : ... .. . ... ... : ... .. . ... ... : ... .. . ... : ... .. . ... ... : ... .. . ... ... ... ...
ROW C7 : ... .. . ... ... : ... .. . ... ... : ... .. . ... ... : ... .. . ... : ... .. . ... ... : ... .. . ... ... ... ...
ROW C8 : ... .. . ... ... : ... .. . ... ... : ... .. . ... ... : ... .. . ... : ... .. . ... ... : ... .. . ... ... ... ...
ROW C9 : ... .. . ... ... : ... .. . ... ... : ... .. . ... ... : ... .. . ... : ... .. . ... ... : ... .. . ... ... ... ...
ROW CA : ... .. . ... ... : ... .. . ... ... : ... .. . ... ... : ... .. . ... : ... .. . ... ... : ... .. . ... ... ... ...
ROW CB : ... .. . ... ... : ... .. . ... ... : ... .. . ... ... : ... .. . ... : ... .. . ... ... : ... .. . ... ... ... ...
ROW CC : ... .. . ... ... : ... .. . ... ... : ... .. . ... ... : ... .. . ... : ... .. . ... ... : ... .. . ... ... ... ...
ROW CD : ... .. . ... ... : ... .. . ... ... : ... .. . ... ... : ... .. . ... : ... .. . ... ... : ... .. . ... ... ... ...
ROW CE : ... .. . ... ... : ... .. . ... ... : ... .. . ... ... : ... .. . ... : ... .. . ... ... : ... .. . ... ... ... ...
ROW CF : ... .. . ... ... : ... .. . ... ... : ... .. . ... ... : ... .. . ... : ... .. . ... ... : ... .. . ... ... ... ...
ROW D0 : ... .. . ... ... : ... .. . ... ... : ... .. . ... ... : ... .. . ... : ... .. . ... ... : ... .. . ... ... ... ...
ROW D1 : ... .. . ... ... : ... .. . ... ... : ... .. . ... ... : ... .. . ... : ... .. . ... ... : ... .. . ... ... ... ...
ROW D2 : ... .. . ... ... : ... .. . ... ... : ... .. . ... ... : ... .. . ... : ... .. . ... ... : ... .. . ... ... ... ...
ROW D3 : ... .. . ... ... : ... .. . ... ... : ... .. . ... ... : ... .. . ... : ... .. . ... ... : ... .. . ... ... ... ...
ROW D4 : ... .. . ... ... : ... .. . ... ... : ... .. . ... ... : ... .. . ... : ... .. . ... ... : ... .. . ... ... ... ...
ROW D5 : ... .. . ... ... : ... .. . ... ... : ... .. . ... ... : ... .. . ... : ... .. . ... ... : ... .. . ... ... ... ...
ROW D6 : ... .. . ... ... : ... .. . ... ... : ... .. . ... ... : ... .. . ... : ... .. . ... ... : ... .. . ... ... ... ...
ROW D7 : ... .. . ... ... : ... .. . ... ... : ... .. . ... ... : ... .. . ... : ... .. . ... ... : ... .. . ... ... ... ...
ROW D8 : ... .. . ... ... : ... .. . ... ... : ... .. . ... ... : ... .. . ... : ... .. . ... ... : ... .. . ... ... ... ...
ROW D9 : ... .. . ... ... : ... .. . ... ... : ... .. . ... ... : ... .. . ... : ... .. . ... ... : ... .. . ... ... ... ...
ROW DA : ... .. . ... ... : ... .. . ... ... : ... .. . ... ... : ... .. . ... : ... .. . ... ... : ... .. . ... ... ... ...
ROW DB : ... .. . ... ... : ... .. . ... ... : ... .. . ... ... : ... .. . ... : ... .. . ... ... : ... .. . ... ... ... ...
ROW DC : ... .. . ... ... : ... .. . ... ... : ... .. . ... ... : ... .. . ... : ... .. . ... ... : ... .. . ... ... ... ...
ROW DD : ... .. . ... ... : ... .. . ... ... : ... .. . ... ... : ... .. . ... : ... .. . ... ... : ... .. . ... ... ... ...
ROW DE : ... .. . ... ... : ... .. . ... ... : ... .. . ... ... : ... .. . ... : ... .. . ... ... : ... .. . ... ... ... ...
ROW DF : ... .. . ... ... : ... .. . ... ... : ... .. . ... ... : ... .. . ... : ... .. . ... ... : ... .. . ... ... ... ...
ROW E0 : ... .. . ... ... : ... .. . ... ... : ... .. . ... ... : ... .. . ... : ... .. . ... ... : ... .. . ... ... ... ...
ROW E1 : ... .. . ... ... : ... .. . ... ... : ... .. . ... ... : ... .. . ... : ... .. . ... ... : ... .. . ... ... ... ...
ROW E2 : ... .. . ... ... : ... .. . ... ... : ... .. . ... ... : ... .. . ... : ... .. . ... ... : ... .. . ... ... ... ...
ROW E3 : ... .. . ... ... : ... .. . ... ... : ... .. . ... ... : ... .. . ... : ... .. . ... ... : ... .. . ... ... ... ...
ROW E4 : ... .. . ... ... : ... .. . ... ... : ... .. . ... ... : ... .. . ... : ... .. . ... ... : ... .. . ... ... ... ...
ROW E5 : ... .. . ... ... : ... .. . ... ... : ... .. . ... ... : ... .. . ... : ... .. . ... ... : ... .. . ... ... ... ...
ROW E6 : ... .. . ... ... : ... .. . ... ... : ... .. . ... ... : ... .. . ... : ... .. . ... ... : ... .. . ... ... ... ...
ROW E7 : ... .. . ... ... : ... .. . ... ... : ... .. . ... ... : ... .. . ... : ... .. . ... ... : ... .. . ... ... ... ...
ROW E8 : ... .. . ... ... : ... .. . ... ... : ... .. . ... ... : ... .. . ... : ... .. . ... ... : ... .. . ... ... ... ...
ROW E9 : ... .. . ... ... : ... .. . ... ... : ... .. . ... ... : ... .. . ... : ... .. . ... ... : ... .. . ... ... ... ...
ROW EA : ... .. . ... ... : ... .. . ... ... : ... .. . ... ... : ... .. . ... : ... .. . ... ... : ... .. . ... ... ... ...
ROW EB : ... .. . ... ... : ... .. . ... ... : ... .. . ... ... : ... .. . ... : ... .. . ... ... : ... .. . ... ... ... ...
ROW EC : ... .. . ... ... : ... .. . ... ... : ... .. . ... ... : ... .. . ... : ... .. . ... ... : ... .. . ... ... ... ...
ROW ED : ... .. . ... ... : ... .. . ... ... : ... .. . ... ... : ... .. . ... : ... .. . ... ... : ... .. . ... ... ... ...
ROW EE : ... .. . ... ... : ... .. . ... ... : ... .. . ... ... : ... .. . ... : ... .. . ... ... : ... .. . ... ... ... ...
ROW EF : ... .. . ... ... : ... .. . ... ... : ... .. . ... ... : ... .. . ... : ... .. . ... ... : ... .. . ... ... ... ...
ROW F0 : ... .. . ... ... : ... .. . ... ... : ... .. . ... ... : ... .. . ... : ... .. . ... ... : ... .. . ... ... ... ...
ROW F1 : ... .. . ... ... : ... .. . ... ... : ... .. . ... ... : ... .. . ... : ... .. . ... ... : ... .. . ... ... ... ...
ROW F2 : ... .. . ... ... : ... .. . ... ... : ... .. . ... ... : ... .. . ... : ... .. . ... ... : ... .. . ... ... ... ...
ROW F3 : ... .. . ... ... : ... .. . ... ... : ... .. . ... ... : ... .. . ... : ... .. . ... ... : ... .. . ... ... ... ...
ROW F4 : ... .. . ... ... : ... .. . ... ... : ... .. . ... ... : ... .. . ... : ... .. . ... ... : ... .. . ... ... ... ...
ROW F5 : ... .. . ... ... : ... .. . ... ... : ... .. . ... ... : ... .. . ... : ... .. . ... ... : ... .. . ... ... ... ...
ROW F6 : ... .. . ... ... : ... .. . ... ... : ... .. . ... ... : ... .. . ... : ... .. . ... ... : ... .. . ... ... ... ...
ROW F7 : ... .. . ... ... : ... .. . ... ... : ... .. . ... ... : ... .. . ... : ... .. . ... ... : ... .. . ... ... ... ...
ROW F8 : ... .. . ... ... : ... .. . ... ... : ... .. . ... ... : ... .. . ... : ... .. . ... ... : ... .. . ... ... ... ...
ROW F9 : ... .. . ... ... : ... .. . ... ... : ... .. . ... ... : ... .. . ... : ... .. . ... ... : ... .. . ... ... ... ...
ROW FA : ... .. . ... ... : ... .. . ... ... : ... .. . ... ... : ... .. . ... : ... .. . ... ... : ... .. . ... ... ... ...
ROW FB : ... .. . ... ... : ... .. . ... ... : ... .. . ... ... : ... .. . ... : ... .. . ... ... : ... .. . ... ... ... ...
ROW FC : ... .. . ... ... : ... .. . ... ... : ... .. . ... ... : ... .. . ... : ... .. . ... ... : ... .. . ... ... ... ...
ROW FD : ... .. . ... ... : ... .. . ... ... : ... .. . ... ... : ... .. . ... : ... .. . ... ... : ... .. . ... ... ... ...
ROW FE : ... .. . ... ... : ... .. . ... ... : ... .. . ... ... : ... .. . ... : ... .. . ... ... : ... .. . ... ... ... ...
ROW FF : ... .. . ... ... : ... .. . ... ... : ... .. . ... ... : ... .. . ... : ... .. . ... ... : ... .. . ... ... ... ...

PATTERN 14
ROW 00 : G-3 14 5 ... ... : E-4 0F C 400 Q11 : C#2 11 . 200 ... : C-# 03 E A03 : ... .. . F04 ... : C#3 00 C I00 J51 ... ...
ROW 01 : ... .. . ... ... : ... .. . ... ... : ... .. . S03 ... : ... .. . A04 : ... .. . ... ... : ... .. . ... ... ... ...
ROW 02 : ... .. . ... ... : ... .. . ... ... : ... .. . ... ... : ... .. . A05 : ... .. . ... ... : ... .. . ... ... ... ...
ROW 03 : ... .. . ... ... : ... .. . ... ... : ... .. . ... ... : ... .. . A04 : ... .. . ... ... : ... .. . ... ... ... ...
ROW 04 : ... .. . ... ... : ... .. . ... ... : C#2 11 . ... ... : ... .. . ... : ... .. . ... ... : C#3 00 . I00 J51 ... ...
ROW 05 : ... .. . ... ... : ... .. . ... ... : ... .. . S03 ... : ... .. . ... : ... .. . ... ... : ... .. . ... ... ... ...
ROW 06 : ... .. . ... ... : ... .. . 465 ... : C#2 11 . ... ... : D-# 05 6 A00 : ... .. . ... ... : C#3 00 . I00 J51 ... ...
ROW 07 : ... .. . ... ... : ... .. . ... ... : ... .. . S03 ... : ... .. . ... : ... .. . ... ... : ... .. . ... ... ... ...
ROW 08 : ... .. . ... ... : ... .. . ... ... : C#4 03 . 246 ... : 6-# 08 A ... : ... .. . ... ... : ... .. . ... ... ... ...
ROW 09 : ... .. . ... ... : ... .. . ... ... : ... .. . ... ... : ... .. . ... : ... .. . ... ... : ... .. . ... ... ... ...
ROW 0A : ... .. . ... ... : ... .. . ... ... : C#2 11 . 200 ... : ... .. . ... : ... .. . ... ... : C#3 00 . I00 J51 ... ...
ROW 0B : ... .. . ... ... : ... .. . ... ... : ... .. . S03 ... : ... .. . ... : ... .. . ... ... : ... .. . ... ... ... ...
ROW 0C : ... .. . ... ... : ... .. B ... ... : C#2 11 . ... ... : D-# 05 6 ... : ... .. . ... ... : C#3 00 . I00 J51 ... ...
ROW 0D : ... .. . ... ... : ... .. . ... ... : ... .. . S03 ... : ... .. . ... : ... .. . ... ... : ... .. . ... ... ... ...
ROW 0E : ... .. . ... ... : ... .. A ... ... : ... .. . ... ... : D-# 05 . ... : ... .. . ... ... : ... .. . ... ... ... ...
ROW 0F : ... .. . ... ... : ... .. . ... ... : ... .. . ... ... : ... .. . ... : ... .. . ... ... : ... .. . ... ... ... ...
ROW 10 : ... .. . ... ... : ... .. 9 ... ... : F-4 03 . 246 ... : ... .. . ... : ... .. . ... ... : F-3 00 . I00 J66 ... ...
ROW 11 : ... .. . ... ... : ... .. . ... ... : ... .. . ... ... : ... .. . ... : ... .. . ... ... : ... .. . ... ... ... ...
ROW 12 : ... .. . ... ... : ... .. 8 ... ... : ... .. . ... ... : ... .. . ... : ... .. . ... ... : ... .. . ... ... ... ...
ROW 13 : ... .. . ... ... : ... .. . ... ... : ... .. . ... ... : ... .. . ... : ... .. . ... ... : ... .. . ... ... ... ...
ROW 14 : ... .. . ... ... : ... .. 7 ... ... : G#2 11 . 200 ... : D-# 05 . ... : ... .. . ... ... : G#3 00 . I00 J7A ... ...
ROW 15 : ... .. . ... ... : ... .. . ... ... : ... .. . S03 ... : ... .. . ... : ... .. . ... ... : ... .. . ... ... ... ...
ROW 16 : ... .. . ... ... : ... .. 6 ... ... : ... .. . ... ... : D-# 05 . ... : ... .. . ... ... : ... .. . ... ... ... ...
ROW 17 : ... .. . ... ... : ... .. . ... ... : ... .. . ... ... : ... .. . ... : ... .. . ... ... : ... .. . ... ... ... ...
ROW 18 : ... .. . ... ... : ... .. 5 ... ... : A#4 03 . 246 ... : ... .. . ... : ... .. . ... ... : A#3 00 . I00 J89 ... ...
ROW 19 : ... .. . ... ... : ... .. . ... ... : ... .. . ... ... : ... .. . ... : ... .. . ... ... : ... .. . ... ... ... ...
ROW 1A : ... .. . ... ... : ... .. 4 ... ... : ... .. . ... ... : D-# 05 . ... : ... .. . ... ... : ... .. . ... ... ... ...
ROW 1B : ... .. . ... ... : ... .. . ... ... : ... .. . ... ... : ... .. . ... : ... .. . ... ... : ... .. . ... ... ... ...
ROW 1C : ... .. . ... ... : ... .. 3 ... ... : G#2 11 . 200 ... : 6-# 08 A ... : ... .. . ... ... : G#3 00 . I00 J7A ... ...
ROW 1D : ... .. . ... ... : ... .. . ... ... : ... .. . S03 ... : ... .. . ... : ... .. . ... ... : ... .. . ... ... ... ...
ROW 1E : ... .. . ... ... : ... .. 2 ... ... : ... .. . ... ... : ... .. . ... : ... .. . ... ... : ... .. . ... ... ... ...
ROW 1F : ... .. . ... ... : ... .. . ... ... : ... .. . ... ... : ... .. . ... : ... .. . ... ... : ... .. . ... ... ... ...
ROW 20 : ... .. . ... ... : ... .. 1 ... ... : G-4 03 . 246 ... : D-# 05 6 ... : ... .. . ... ... : G-3 00 . I00 J73 ... ...
ROW 21 : ... .. . ... ... : ... .. . ... ... : ... .. . ... ... : ... .. . ... : ... .. . ... ... : ... .. . ... ... ... ...
ROW 22 : ... .. . ... ... : --- .. . ... ... : ... .. . ... ... : ... .. . ... : ... .. . ... ... : ... .. . ... ... ... ...
ROW 23 : ... .. . ... ... : ... .. . ... ... : ... .. . ... ... : ... .. . ... : ... .. . ... ... : ... .. . ... ... ... ...
ROW 24 : ... .. . ... ... : ... .. . ... ... : G-2 11 . 200 ... : ... .. . ... : ... .. . ... ... : G-3 00 . I00 J73 ... ...
ROW 25 : ... .. . ... ... : ... .. . ... ... : ... .. . S03 ... : ... .. . ... : ... .. . ... ... : ... .. . ... ... ... ...
ROW 26 : ... .. . ... ... : ... .. . ... ... : G-2 11 . ... ... : D-# 05 . ... : ... .. . ... ... : G-3 00 . I00 J73 ... ...
ROW 27 : ... .. . ... ... : ... .. . ... ... : ... .. . S03 ... : ... .. . ... : ... .. . ... ... : ... .. . ... ... ... ...
ROW 28 : ... .. . ... ... : ... .. . ... ... : D#4 03 . 246 ... : 6-# 08 A ... : ... .. . ... ... : D#3 00 . I00 J5B ... ...
ROW 29 : ... .. . ... ... : ... .. . ... ... : ... .. . ... ... : ... .. . ... : ... .. . ... ... : ... .. . ... ... ... ...
ROW 2A : ... .. . ... ... : ... .. . ... ... : ... .. . ... ... : ... .. . ... : ... .. . ... ... : ... .. . ... ... ... ...
ROW 2B : ... .. . ... ... : ... .. . ... ... : ... .. . ... ... : ... .. . ... : ... .. . ... ... : ... .. . ... ... ... ...
ROW 2C : ... .. . ... ... : ... .. . ... ... : D#2 11 . ... ... : D-# 05 6 ... : ... .. . ... ... : D#3 00 . I00 J5B ... ...
ROW 2D : ... .. . ... ... : ... .. . ... ... : ... .. . S03 ... : ... .. . ... : ... .. . ... ... : ... .. . ... ... ... ...
ROW 2E : ... .. . ... ... : ... .. . ... ... : D#2 11 . ... ... : D-# 05 . ... : ... .. . ... ... : D#3 00 . I00 J5B ... ...
ROW 2F : ... .. . ... ... : ... .. . ... ... : ... .. . S03 ... : ... .. . ... : ... .. . ... ... : ... .. . ... ... ... ...
ROW 30 : ... .. . ... ... : ... .. . ... ... : A#4 03 . 246 ... : ... .. . ... : ... .. . ... ... : A#3 00 . I00 J89 ... ...
ROW 31 : ... .. . ... ... : ... .. . ... ... : ... .. . ... ... : ... .. . ... : ... .. . ... ... : ... .. . ... ... ... ...
ROW 32 : ... .. . ... ... : ... .. . ... ... : ... .. . ... ... : ... .. . ... : ... .. . ... ... : ... .. . ... ... ... ...
ROW 33 : ... .. . ... ... : ... .. . ... ... : ... .. . ... ... : ... .. . ... : ... .. . ... ... : ... .. . ... ... ... ...
ROW 34 : ... .. . ... ... : ... .. . ... ... : A#2 11 . 200 ... : D-# 05 . ... : ... .. . ... ... : A#3 00 . I00 J89 ... ...
ROW 35 : ... .. . ... ... : ... .. . ... ... : ... .. . S03 ... : ... .. . ... : ... .. . ... ... : ... .. . ... ... ... ...
ROW 36 : ... .. . ... ... : ... .. . ... ... : A#2 11 . ... ... : D-# 05 . ... : ... .. . ... ... : A#3 00 . I00 J89 ... ...
ROW 37 : ... .. . ... ... : ... .. . ... ... : ... .. . S03 ... : ... .. . ... : ... .. . ... ... : ... .. . ... ... ... ...
ROW 38 : ... .. . ... ... : ... .. . ... ... : D#5 03 . 246 ... : ... .. . ... : ... .. . ... ... : D#4 00 . I00 JB6 ... ...
ROW 39 : ... .. . ... ... : ... .. . ... ... : ... .. . ... ... : ... .. . ... : ... .. . ... ... : ... .. . ... ... ... ...
ROW 3A : ... .. . ... ... : ... .. . ... ... : ... .. . ... ... : D-# 05 . ... : ... .. . ... ... : ... .. . ... ... ... ...
ROW 3B : ... .. . ... ... : ... .. . ... ... : ... .. . ... ... : ... .. . ... : ... .. . ... ... : ... .. . ... ... ... ...
ROW 3C : ... .. . ... ... : ... .. . ... ... : D#3 11 . 200 ... : 6-# 08 A ... : ... .. . ... ... : D#4 00 . I00 JB6 ... ...
ROW 3D : ... .. . ... ... : ... .. . ... ... : ... .. . S03 ... : ... .. . ... : ... .. . ... ... : ... .. . ... ... ... ...
ROW 3E : ... .. . ... ... : ... .. . ... ... : D#3 11 . ... ... : ... .. . ... : ... .. . ... ... : D#4 00 . I00 JB6 ... ...
ROW 3F : ... .. . ... ... : ... .. . ... ... : ... .. . S03 ... : ... .. . ... : ... .. . D00 ... : ... .. . ... ... ... ...
ROW 40 : ... .. . ... ... : ... .. . ... ... : ... .. . ... ... : ... .. . ... : ... .. . ... ... : ... .. . ... ... ... ...
ROW 41 : ... .. . ... ... : ... .. . ... ... : ... .. . ... ... : ... .. . ... : ... .. . ... ... : ... .. . ... ... ... ...
ROW 42 : ... .. . ... ... : ... .. . ... ... : ... .. . ... ... : ... .. . ... : ... .. . ... ... : ... .. . ... ... ... ...
ROW 43 : ... .. . ... ... : ... .. . ... ... : ... .. . ... ... : ... .. . ... : ... .. . ... ... : ... .. . ... ... ... ...
ROW 44 : ... .. . ... ... : ... .. . ... ... : ... .. . ... ... : ... .. . ... : ... .. . ... ... : ... .. . ... ... ... ...
ROW 45 : ... .. . ... ... : ... .. . ... ... : ... .. . ... ... : ... .. . ... : ... .. . ... ... : ... .. . ... ... ... ...
ROW 46 : ... .. . ... ... : ... .. . ... ... : ... .. . ... ... : ... .. . ... : ... .. . ... ... : ... .. . ... ... ... ...
ROW 47 : ... .. . ... ... : ... .. . ... ... : ... .. . ... ... : ... .. . ... : ... .. . ... ... : ... .. . ... ... ... ...
ROW 48 : ... .. . ... ... : ... .. . ... ... : ... .. . ... ... : ... .. . ... : ... .. . ... ... : ... .. . ... ... ... ...
ROW 49 : ... .. . ... ... : ... .. . ... ... : ... .. . ... ... : ... .. . ... : ... .. . ... ... : ... .. . ... ... ... ...
ROW 4A : ... .. . ... ... : ... .. . ... ... : ... .. . ... ... : ... .. . ... : ... .. . ... ... : ... .. . ... ... ... ...
ROW 4B : ... .. . ... ... : ... .. . ... ... : ... .. . ... ... : ... .. . ... : ... .. . ... ... : ... .. . ... ... ... ...
ROW 4C : ... .. . ... ... : ... .. . ... ... : ... .. . ... ... : ... .. . ... : ... .. . ... ... : ... .. . ... ... ... ...
ROW 4D : ... .. . ... ... : ... .. . ... ... : ... .. . ... ... : ... .. . ... : ... .. . ... ... : ... .. . ... ... ... ...
ROW 4E : ... .. . ... ... : ... .. . ... ... : ... .. . ... ... : ... .. . ... : ... .. . ... ... : ... .. . ... ... ... ...
ROW 4F : ... .. . ... ... : ... .. . ... ... : ... .. . ... ... : ... .. . ... : ... .. . ... ... : ... .. . ... ... ... ...
ROW 50 : ... .. . ... ... : ... .. . ... ... : ... .. . ... ... : ... .. . ... : ... .. . ... ... : ... .. . ... ... ... ...
ROW 51 : ... .. . ... ... : ... .. . ... ... : ... .. . ... ... : ... .. . ... : ... .. . ... ... : ... .. . ... ... ... ...
ROW 52 : ... .. . ... ... : ... .. . ... ... : ... .. . ... ... : ... .. . ... : ... .. . ... ... : ... .. . ... ... ... ...
ROW 53 : ... .. . ... ... : ... .. . ... ... : ... .. . ... ... : ... .. . ... : ... .. . ... ... : ... .. . ... ... ... ...
ROW 54 : ... .. . ... ... : ... .. . ... ... : ... .. . ... ... : ... .. . ... : ... .. . ... ... : ... .. . ... ... ... ...
ROW 55 : ... .. . ... ... : ... .. . ... ... : ... .. . ... ... : ... .. . ... : ... .. . ... ... : ... .. . ... ... ... ...
ROW 56 : ... .. . ... ... : ... .. . ... ... : ... .. . ... ... : ... .. . ... : ... .. . ... ... : ... .. . ... ... ... ...
ROW 57 : ... .. . ... ... : ... .. . ... ... : ... .. . ... ... : ... .. . ... : ... .. . ... ... : ... .. . ... ... ... ...
ROW 58 : ... .. . ... ... : ... .. . ... ... : ... .. . ... ... : ... .. . ... : ... .. . ... ... : ... .. . ... ... ... ...
ROW 59 : ... .. . ... ... : ... .. . ... ... : ... .. . ... ... : ... .. . ... : ... .. . ... ... : ... .. . ... ... ... ...
ROW 5A : ... .. . ... ... : ... .. . ... ... : ... .. . ... ... : ... .. . ... : ... .. . ... ... : ... .. . ... ... ... ...
ROW 5B : ... .. . ... ... : ... .. . ... ... : ... .. . ... ... : ... .. . ... : ... .. . ... ... : ... .. . ... ... ... ...
ROW 5C : ... .. . ... ... : ... .. . ... ... : ... .. . ... ... : ... .. . ... : ... .. . ... ... : ... .. . ... ... ... ...
ROW 5D : ... .. . ... ... : ... .. . ... ... : ... .. . ... ... : ... .. . ... : ... .. . ... ... : ... .. . ... ... ... ...
ROW 5E : ... .. . ... ... : ... .. . ... ... : ... .. . ... ... : ... .. . ... : ... .. . ... ... : ... .. . ... ... ... ...
ROW 5F : ... .. . ... ... : ... .. . ... ... : ... .. . ... ... : ... .. . ... : ... .. . ... ... : ... .. . ... ... ... ...
ROW 60 : ... .. . ... ... : ... .. . ... ... : ... .. . ... ... : ... .. . ... : ... .. . ... ... : ... .. . ... ... ... ...
ROW 61 : ... .. . ... ... : ... .. . ... ... : ... .. . ... ... : ... .. . ... : ... .. . ... ... : ... .. . ... ... ... ...
ROW 62 : ... .. . ... ... : ... .. . ... ... : ... .. . ... ... : ... .. . ... : ... .. . ... ... : ... .. . ... ... ... ...
ROW 63 : ... .. . ... ... : ... .. . ... ... : ... .. . ... ... : ... .. . ... : ... .. . ... ... : ... .. . ... ... ... ...
ROW 64 : ... .. . ... ... : ... .. . ... ... : ... .. . ... ... : ... .. . ... : ... .. . ... ... : ... .. . ... ... ... ...
ROW 65 : ... .. . ... ... : ... .. . ... ... : ... .. . ... ... : ... .. . ... : ... .. . ... ... : ... .. . ... ... ... ...
ROW 66 : ... .. . ... ... : ... .. . ... ... : ... .. . ... ... : ... .. . ... : ... .. . ... ... : ... .. . ... ... ... ...
ROW 67 : ... .. . ... ... : ... .. . ... ... : ... .. . ... ... : ... .. . ... : ... .. . ... ... : ... .. . ... ... ... ...
ROW 68 : ... .. . ... ... : ... .. . ... ... : ... .. . ... ... : ... .. . ... : ... .. . ... ... : ... .. . ... ... ... ...
ROW 69 : ... .. . ... ... : ... .. . ... ... : ... .. . ... ... : ... .. . ... : ... .. . ... ... : ... .. . ... ... ... ...
ROW 6A : ... .. . ... ... : ... .. . ... ... : ... .. . ... ... : ... .. . ... : ... .. . ... ... : ... .. . ... ... ... ...
ROW 6B : ... .. . ... ... : ... .. . ... ... : ... .. . ... ... : ... .. . ... : ... .. . ... ... : ... .. . ... ... ... ...
ROW 6C : ... .. . ... ... : ... .. . ... ... : ... .. . ... ... : ... .. . ... : ... .. . ... ... : ... .. . ... ... ... ...
ROW 6D : ... .. . ... ... : ... .. . ... ... : ... .. . ... ... : ... .. . ... : ... .. . ... ... : ... .. . ... ... ... ...
ROW 6E : ... .. . ... ... : ... .. . ... ... : ... .. . ... ... : ... .. . ... : ... .. . ... ... : ... .. . ... ... ... ...
ROW 6F : ... .. . ... ... : ... .. . ... ... : ... .. . ... ... : ... .. . ... : ... .. . ... ... : ... .. . ... ... ... ...
ROW 70 : ... .. . ... ... : ... .. . ... ... : ... .. . ... ... : ... .. . ... : ... .. . ... ... : ... .. . ... ... ... ...
ROW 71 : ... .. . ... ... : ... .. . ... ... : ... .. . ... ... : ... .. . ... : ... .. . ... ... : ... .. . ... ... ... ...
ROW 72 : ... .. . ... ... : ... .. . ... ... : ... .. . ... ... : ... .. . ... : ... .. . ... ... : ... .. . ... ... ... ...
ROW 73 : ... .. . ... ... : ... .. . ... ... : ... .. . ... ... : ... .. . ... : ... .. . ... ... : ... .. . ... ... ... ...
ROW 74 : ... .. . ... ... : ... .. . ... ... : ... .. . ... ... : ... .. . ... : ... .. . ... ... : ... .. . ... ... ... ...
ROW 75 : ... .. . ... ... : ... .. . ... ... : ... .. . ... ... : ... .. . ... : ... .. . ... ... : ... .. . ... ... ... ...
ROW 76 : ... .. . ... ... : ... .. . ... ... : ... .. . ... ... : ... .. . ... : ... .. . ... ... : ... .. . ... ... ... ...
ROW 77 : ... .. . ... ... : ... .. . ... ... : ... .. . ... ... : ... .. . ... : ... .. . ... ... : ... .. . ... ... ... ...
ROW 78 : ... .. . ... ... : ... .. . ... ... : ... .. . ... ... : ... .. . ... : ... .. . ... ... : ... .. . ... ... ... ...
ROW 79 : ... .. . ... ... : ... .. . ... ... : ... .. . ... ... : ... .. . ... : ... .. . ... ... : ... .. . ... ... ... ...
ROW 7A : ... .. . ... ... : ... .. . ... ... : ... .. . ... ... : ... .. . ... : ... .. . ... ... : ... .. . ... ... ... ...
ROW 7B : ... .. . ... ... : ... .. . ... ... : ... .. . ... ... : ... .. . ... : ... .. . ... ... : ... .. . ... ... ... ...
ROW 7C : ... .. . ... ... : ... .. . ... ... : ... .. . ... ... : ... .. . ... : ... .. . ... ... : ... .. . ... ... ... ...
ROW 7D : ... .. . ... ... : ... .. . ... ... : ... .. . ... ... : ... .. . ... : ... .. . ... ... : ... .. . ... ... ... ...
ROW 7E : ... .. . ... ... : ... .. . ... ... : ... .. . ... ... : ... .. . ... : ... .. . ... ... : ... .. . ... ... ... ...
ROW 7F : ... .. . ... ... : ... .. . ... ... : ... .. . ... ... : ... .. . ... : ... .. . ... ... : ... .. . ... ... ... ...
ROW 80 : ... .. . ... ... : ... .. . ... ... : ... .. . ... ... : ... .. . ... : ... .. . ... ... : ... .. . ... ... ... ...
ROW 81 : ... .. . ... ... : ... .. . ... ... : ... .. . ... ... : ... .. . ... : ... .. . ... ... : ... .. . ... ... ... ...
ROW 82 : ... .. . ... ... : ... .. . ... ... : ... .. . ... ... : ... .. . ... : ... .. . ... ... : ... .. . ... ... ... ...
ROW 83 : ... .. . ... ... : ... .. . ... ... : ... .. . ... ... : ... .. . ... : ... .. . ... ... : ... .. . ... ... ... ...
ROW 84 : ... .. . ... ... : ... .. . ... ... : ... .. . ... ... : ... .. . ... : ... .. . ... ... : ... .. . ... ... ... ...
ROW 85 : ... .. . ... ... : ... .. . ... ... : ... .. . ... ... : ... .. . ... : ... .. . ... ... : ... .. . ... ... ... ...
ROW 86 : ... .. . ... ... : ... .. . ... ... : ... .. . ... ... : ... .. . ... : ... .. . ... ... : ... .. . ... ... ... ...
ROW 87 : ... .. . ... ... : ... .. . ... ... : ... .. . ... ... : ... .. . ... : ... .. . ... ... : ... .. . ... ... ... ...
ROW 88 : ... .. . ... ... : ... .. . ... ... : ... .. . ... ... : ... .. . ... : ... .. . ... ... : ... .. . ... ... ... ...
ROW 89 : ... .. . ... ... : ... .. . ... ... : ... .. . ... ... : ... .. . ... : ... .. . ... ... : ... .. . ... ... ... ...
ROW 8A : ... .. . ... ... : ... .. . ... ... : ... .. . ... ... : ... .. . ... : ... .. . ... ... : ... .. . ... ... ... ...
ROW 8B : ... .. . ... ... : ... .. . ... ... : ... .. . ... ... : ... .. . ... : ... .. . ... ... : ... .. . ... ... ... ...
ROW 8C : ... .. . ... ... : ... .. . ... ... : ... .. . ... ... : ... .. . ... : ... .. . ... ... : ... .. . ... ... ... ...
ROW 8D : ... .. . ... ... : ... .. . ... ... : ... .. . ... ... : ... .. . ... : ... .. . ... ... : ... .. . ... ... ... ...
ROW 8E : ... .. . ... ... : ... .. . ... ... : ... .. . ... ... : ... .. . ... : ... .. . ... ... : ... .. . ... ... ... ...
ROW 8F : ... .. . ... ... : ... .. . ... ... : ... .. . ... ... : ... .. . ... : ... .. . ... ... : ... .. . ... ... ... ...
ROW 90 : ... .. . ... ... : ... .. . ... ... : ... .. . ... ... : ... .. . ... : ... .. . ... ... : ... .. . ... ... ... ...
ROW 91 : ... .. . ... ... : ... .. . ... ... : ... .. . ... ... : ... .. . ... : ... .. . ... ... : ... .. . ... ... ... ...
ROW 92 : ... .. . ... ... : ... .. . ... ... : ... .. . ... ... : ... .. . ... : ... .. . ... ... : ... .. . ... ... ... ...
ROW 93 : ... .. . ... ... : ... .. . ... ... : ... .. . ... ... : ... .. . ... : ... .. . ... ... : ... .. . ... ... ... ...
ROW 94 : ... .. . ... ... : ... .. . ... ... : ... .. . ... ... : ... .. . ... : ... .. . ... ... : ... .. . ... ... ... ...
ROW 95 : ... .. . ... ... : ... .. . ... ... : ... .. . ... ... : ... .. . ... : ... .. . ... ... : ... .. . ... ... ... ...
ROW 96 : ... .. . ... ... : ... .. . ... ... : ... .. . ... ... : ... .. . ... : ... .. . ... ... : ... .. . ... ... ... ...
ROW 97 : ... .. . ... ... : ... .. . ... ... : ... .. . ... ... : ... .. . ... : ... .. . ... ... : ... .. . ... ... ... ...
ROW 98 : ... .. . ... ... : ... .. . ... ... : ... .. . ... ... : ... .. . ... : ... .. . ... ... : ... .. . ... ... ... ...
ROW 99 : ... .. . ... ... : ... .. . ... ... : ... .. . ... ... : ... .. . ... : ... .. . ... ... : ... .. . ... ... ... ...
ROW 9A : ... .. . ... ... : ... .. . ... ... : ... .. . ... ... : ... .. . ... : ... .. . ... ... : ... .. . ... ... ... ...
ROW 9B : ... .. . ... ... : ... .. . ... ... : ... .. . ... ... : ... .. . ... : ... .. . ... ... : ... .. . ... ... ... ...
ROW 9C : ... .. . ... ... : ... .. . ... ... : ... .. . ... ... : ... .. . ... : ... .. . ... ... : ... .. . ... ... ... ...
ROW 9D : ... .. . ... ... : ... .. . ... ... : ... .. . ... ... : ... .. . ... : ... .. . ... ... : ... .. . ... ... ... ...
ROW 9E : ... .. . ... ... : ... .. . ... ... : ... .. . ... ... : ... .. . ... : ... .. . ... ... : ... .. . ... ... ... ...
ROW 9F : ... .. . ... ... : ... .. . ... ... : ... .. . ... ... : ... .. . ... : ... .. . ... ... : ... .. . ... ... ... ...
ROW A0 : ... .. . ... ... : ... .. . ... ... : ... .. . ... ... : ... .. . ... : ... .. . ... ... : ... .. . ... ... ... ...
ROW A1 : ... .. . ... ... : ... .. . ... ... : ... .. . ... ... : ... .. . ... : ... .. . ... ... : ... .. . ... ... ... ...
ROW A2 : ... .. . ... ... : ... .. . ... ... : ... .. . ... ... : ... .. . ... : ... .. . ... ... : ... .. . ... ... ... ...
ROW A3 : ... .. . ... ... : ... .. . ... ... : ... .. . ... ... : ... .. . ... : ... .. . ... ... : ... .. . ... ... ... ...
ROW A4 : ... .. . ... ... : ... .. . ... ... : ... .. . ... ... : ... .. . ... : ... .. . ... ... : ... .. . ... ... ... ...
ROW A5 : ... .. . ... ... : ... .. . ... ... : ... .. . ... ... : ... .. . ... : ... .. . ... ... : ... .. . ... ... ... ...
ROW A6 : ... .. . ... ... : ... .. . ... ... : ... .. . ... ... : ... .. . ... : ... .. . ... ... : ... .. . ... ... ... ...
ROW A7 : ... .. . ... ... : ... .. . ... ... : ... .. . ... ... : ... .. . ... : ... .. . ... ... : ... .. . ... ... ... ...
ROW A8 : ... .. . ... ... : ... .. . ... ... : ... .. . ... ... : ... .. . ... : ... .. . ... ... : ... .. . ... ... ... ...
ROW A9 : ... .. . ... ... : ... .. . ... ... : ... .. . ... ... : ... .. . ... : ... .. . ... ... : ... .. . ... ... ... ...
ROW AA : ... .. . ... ... : ... .. . ... ... : ... .. . ... ... : ... .. . ... : ... .. . ... ... : ... .. . ... ... ... ...
ROW AB : ... .. . ... ... : ... .. . ... ... : ... .. . ... ... : ... .. . ... : ... .. . ... ... : ... .. . ... ... ... ...
ROW AC : ... .. . ... ... : ... .. . ... ... : ... .. . ... ... : ... .. . ... : ... .. . ... ... : ... .. . ... ... ... ...
ROW AD : ... .. . ... ... : ... .. . ... ... : ... .. . ... ... : ... .. . ... : ... .. . ... ... : ... .. . ... ... ... ...
ROW AE : ... .. . ... ... : ... .. . ... ... : ... .. . ... ... : ... .. . ... : ... .. . ... ... : ... .. . ... ... ... ...
ROW AF : ... .. . ... ... : ... .. . ... ... : ... .. . ... ... : ... .. . ... : ... .. . ... ... : ... .. . ... ... ... ...
ROW B0 : ... .. . ... ... : ... .. . ... ... : ... .. . ... ... : ... .. . ... : ... .. . ... ... : ... .. . ... ... ... ...
ROW B1 : ... .. . ... ... : ... .. . ... ... : ... .. . ... ... : ... .. . ... : ... .. . ... ... : ... .. . ... ... ... ...
ROW B2 : ... .. . ... ... : ... .. . ... ... : ... .. . ... ... : ... .. . ... : ... .. . ... ... : ... .. . ... ... ... ...
ROW B3 : ... .. . ... ... : ... .. . ... ... : ... .. . ... ... : ... .. . ... : ... .. . ... ... : ... .. . ... ... ... ...
ROW B4 : ... .. . ... ... : ... .. . ... ... : ... .. . ... ... : ... .. . ... : ... .. . ... ... : ... .. . ... ... ... ...
ROW B5 : ... .. . ... ... : ... .. . ... ... : ... .. . ... ... : ... .. . ... : ... .. . ... ... : ... .. . ... ... ... ...
ROW B6 : ... .. . ... ... : ... .. . ... ... : ... .. . ... ... : ... .. . ... : ... .. . ... ... : ... .. . ... ... ... ...
ROW B7 : ... .. . ... ... : ... .. . ... ... : ... .. . ... ... : ... .. . ... : ... .. . ... ... : ... .. . ... ... ... ...
ROW B8 : ... .. . ... ... : ... .. . ... ... : ... .. . ... ... : ... .. . ... : ... .. . ... ... : ... .. . ... ... ... ...
ROW B9 : ... .. . ... ... : ... .. . ... ... : ... .. . ... ... : ... .. . ... : ... .. . ... ... : ... .. . ... ... ... ...
ROW BA : ... .. . ... ... : ... .. . ... ... : ... .. . ... ... : ... .. . ... : ... .. . ... ... : ... .. . ... ... ... ...
ROW BB : ... .. . ... ... : ... .. . ... ... : ... .. . ... ... : ... .. . ... : ... .. . ... ... : ... .. . ... ... ... ...
ROW BC : ... .. . ... ... : ... .. . ... ... : ... .. . ... ... : ... .. . ... : ... .. . ... ... : ... .. . ... ... ... ...
ROW BD : ... .. . ... ... : ... .. . ... ... : ... .. . ... ... : ... .. . ... : ... .. . ... ... : ... .. . ... ... ... ...
ROW BE : ... .. . ... ... : ... .. . ... ... : ... .. . ... ... : ... .. . ... : ... .. . ... ... : ... .. . ... ... ... ...
ROW BF : ... .. . ... ... : ... .. . ... ... : ... .. . ... ... : ... .. . ... : ... .. . ... ... : ... .. . ... ... ... ...
ROW C0 : ... .. . ... ... : ... .. . ... ... : ... .. . ... ... : ... .. . ... : ... .. . ... ... : ... .. . ... ... ... ...
ROW C1 : ... .. . ... ... : ... .. . ... ... : ... .. . ... ... : ... .. . ... : ... .. . ... ... : ... .. . ... ... ... ...
ROW C2 : ... .. . ... ... : ... .. . ... ... : ... .. . ... ... : ... .. . ... : ... .. . ... ... : ... .. . ... ... ... ...
ROW C3 : ... .. . ... ... : ... .. . ... ... : ... .. . ... ... : ... .. . ... : ... .. . ... ... : ... .. . ... ... ... ...
ROW C4 : ... .. . ... ... : ... .. . ... ... : ... .. . ... ... : ... .. . ... : ... .. . ... ... : ... .. . ... ... ... ...
ROW C5 : ... .. . ... ... : ... .. . ... ... : ... .. . ... ... : ... .. . ... : ... .. . ... ... : ... .. . ... ... ... ...
ROW C6 : ... .. . ... ... : ... .. . ... ... : ... .. . ... ... : ... .. . ... : ... .. . ... ... : ... .. . ... ... ... ...
ROW C7 : ... .. . ... ... : ... .. . ... ... : ... .. . ... ... : ... .. . ... : ... .. . ... ... : ... .. . ... ... ... ...
ROW C8 : ... .. . ... ... : ... .. . ... ... : ... .. . ... ... : ... .. . ... : ... .. . ... ... : ... .. . ... ... ... ...
ROW C9 : ... .. . ... ... : ... .. . ... ... : ... .. . ... ... : ... .. . ... : ... .. . ... ... : ... .. . ... ... ... ...
ROW CA : ... .. . ... ... : ... .. . ... ... : ... .. . ... ... : ... .. . ... : ... .. . ... ... : ... .. . ... ... ... ...
ROW CB : ... .. . ... ... : ... .. . ... ... : ... .. . ... ... : ... .. . ... : ... .. . ... ... : ... .. . ... ... ... ...
ROW CC : ... .. . ... ... : ... .. . ... ... : ... .. . ... ... : ... .. . ... : ... .. . ... ... : ... .. . ... ... ... ...
ROW CD : ... .. . ... ... : ... .. . ... ... : ... .. . ... ... : ... .. . ... : ... .. . ... ... : ... .. . ... ... ... ...
ROW CE : ... .. . ... ... : ... .. . ... ... : ... .. . ... ... : ... .. . ... : ... .. . ... ... : ... .. . ... ... ... ...
ROW CF : ... .. . ... ... : ... .. . ... ... : ... .. . ... ... : ... .. . ... : ... .. . ... ... : ... .. . ... ... ... ...
ROW D0 : ... .. . ... ... : ... .. . ... ... : ... .. . ... ... : ... .. . ... : ... .. . ... ... : ... .. . ... ... ... ...
ROW D1 : ... .. . ... ... : ... .. . ... ... : ... .. . ... ... : ... .. . ... : ... .. . ... ... : ... .. . ... ... ... ...
ROW D2 : ... .. . ... ... : ... .. . ... ... : ... .. . ... ... : ... .. . ... : ... .. . ... ... : ... .. . ... ... ... ...
ROW D3 : ... .. . ... ... : ... .. . ... ... : ... .. . ... ... : ... .. . ... : ... .. . ... ... : ... .. . ... ... ... ...
ROW D4 : ... .. . ... ... : ... .. . ... ... : ... .. . ... ... : ... .. . ... : ... .. . ... ... : ... .. . ... ... ... ...
ROW D5 : ... .. . ... ... : ... .. . ... ... : ... .. . ... ... : ... .. . ... : ... .. . ... ... : ... .. . ... ... ... ...
ROW D6 : ... .. . ... ... : ... .. . ... ... : ... .. . ... ... : ... .. . ... : ... .. . ... ... : ... .. . ... ... ... ...
ROW D7 : ... .. . ... ... : ... .. . ... ... : ... .. . ... ... : ... .. . ... : ... .. . ... ... : ... .. . ... ... ... ...
ROW D8 : ... .. . ... ... : ... .. . ... ... : ... .. . ... ... : ... .. . ... : ... .. . ... ... : ... .. . ... ... ... ...
ROW D9 : ... .. . ... ... : ... .. . ... ... : ... .. . ... ... : ... .. . ... : ... .. . ... ... : ... .. . ... ... ... ...
ROW DA : ... .. . ... ... : ... .. . ... ... : ... .. . ... ... : ... .. . ... : ... .. . ... ... : ... .. . ... ... ... ...
ROW DB : ... .. . ... ... : ... .. . ... ... : ... .. . ... ... : ... .. . ... : ... .. . ... ... : ... .. . ... ... ... ...
ROW DC : ... .. . ... ... : ... .. . ... ... : ... .. . ... ... : ... .. . ... : ... .. . ... ... : ... .. . ... ... ... ...
ROW DD : ... .. . ... ... : ... .. . ... ... : ... .. . ... ... : ... .. . ... : ... .. . ... ... : ... .. . ... ... ... ...
ROW DE : ... .. . ... ... : ... .. . ... ... : ... .. . ... ... : ... .. . ... : ... .. . ... ... : ... .. . ... ... ... ...
ROW DF : ... .. . ... ... : ... .. . ... ... : ... .. . ... ... : ... .. . ... : ... .. . ... ... : ... .. . ... ... ... ...
ROW E0 : ... .. . ... ... : ... .. . ... ... : ... .. . ... ... : ... .. . ... : ... .. . ... ... : ... .. . ... ... ... ...
ROW E1 : ... .. . ... ... : ... .. . ... ... : ... .. . ... ... : ... .. . ... : ... .. . ... ... : ... .. . ... ... ... ...
ROW E2 : ... .. . ... ... : ... .. . ... ... : ... .. . ... ... : ... .. . ... : ... .. . ... ... : ... .. . ... ... ... ...
ROW E3 : ... .. . ... ... : ... .. . ... ... : ... .. . ... ... : ... .. . ... : ... .. . ... ... : ... .. . ... ... ... ...
ROW E4 : ... .. . ... ... : ... .. . ... ... : ... .. . ... ... : ... .. . ... : ... .. . ... ... : ... .. . ... ... ... ...
ROW E5 : ... .. . ... ... : ... .. . ... ... : ... .. . ... ... : ... .. . ... : ... .. . ... ... : ... .. . ... ... ... ...
ROW E6 : ... .. . ... ... : ... .. . ... ... : ... .. . ... ... : ... .. . ... : ... .. . ... ... : ... .. . ... ... ... ...
ROW E7 : ... .. . ... ... : ... .. . ... ... : ... .. . ... ... : ... .. . ... : ... .. . ... ... : ... .. . ... ... ... ...
ROW E8 : ... .. . ... ... : ... .. . ... ... : ... .. . ... ... : ... .. . ... : ... .. . ... ... : ... .. . ... ... ... ...
ROW E9 : ... .. . ... ... : ... .. . ... ... : ... .. . ... ... : ... .. . ... : ... .. . ... ... : ... .. . ... ... ... ...
ROW EA : ... .. . ... ... : ... .. . ... ... : ... .. . ... ... : ... .. . ... : ... .. . ... ... : ... .. . ... ... ... ...
ROW EB : ... .. . ... ... : ... .. . ... ... : ... .. . ... ... : ... .. . ... : ... .. . ... ... : ... .. . ... ... ... ...
ROW EC : ... .. . ... ... : ... .. . ... ... : ... .. . ... ... : ... .. . ... : ... .. . ... ... : ... .. . ... ... ... ...
ROW ED : ... .. . ... ... : ... .. . ... ... : ... .. . ... ... : ... .. . ... : ... .. . ... ... : ... .. . ... ... ... ...
ROW EE : ... .. . ... ... : ... .. . ... ... : ... .. . ... ... : ... .. . ... : ... .. . ... ... : ... .. . ... ... ... ...
ROW EF : ... .. . ... ... : ... .. . ... ... : ... .. . ... ... : ... .. . ... : ... .. . ... ... : ... .. . ... ... ... ...
ROW F0 : ... .. . ... ... : ... .. . ... ... : ... .. . ... ... : ... .. . ... : ... .. . ... ... : ... .. . ... ... ... ...
ROW F1 : ... .. . ... ... : ... .. . ... ... : ... .. . ... ... : ... .. . ... : ... .. . ... ... : ... .. . ... ... ... ...
ROW F2 : ... .. . ... ... : ... .. . ... ... : ... .. . ... ... : ... .. . ... : ... .. . ... ... : ... .. . ... ... ... ...
ROW F3 : ... .. . ... ... : ... .. . ... ... : ... .. . ... ... : ... .. . ... : ... .. . ... ... : ... .. . ... ... ... ...
ROW F4 : ... .. . ... ... : ... .. . ... ... : ... .. . ... ... : ... .. . ... : ... .. . ... ... : ... .. . ... ... ... ...
ROW F5 : ... .. . ... ... : ... .. . ... ... : ... .. . ... ... : ... .. . ... : ... .. . ... ... : ... .. . ... ... ... ...
ROW F6 : ... .. . ... ... : ... .. . ... ... : ... .. . ... ... : ... .. . ... : ... .. . ... ... : ... .. . ... ... ... ...
ROW F7 : ... .. . ... ... : ... .. . ... ... : ... .. . ... ... : ... .. . ... : ... .. . ... ... : ... .. . ... ... ... ...
ROW F8 : ... .. . ... ... : ... .. . ... ... : ... .. . ... ... : ... .. . ... : ... .. . ... ... : ... .. . ... ... ... ...
ROW F9 : ... .. . ... ... : ... .. . ... ... : ... .. . ... ... : ... .. . ... : ... .. . ... ... : ... .. . ... ... ... ...
ROW FA : ... .. . ... ... : ... .. . ... ... : ... .. . ... ... : ... .. . ... : ... .. . ... ... : ... .. . ... ... ... ...
ROW FB : ... .. . ... ... : ... .. . ... ... : ... .. . ... ... : ... .. . ... : ... .. . ... ... : ... .. . ... ... ... ...
ROW FC : ... .. . ... ... : ... .. . ... ... : ... .. . ... ... : ... .. . ... : ... .. . ... ... : ... .. . ... ... ... ...
ROW FD : ... .. . ... ... : ... .. . ... ... : ... .. . ... ... : ... .. . ... : ... .. . ... ... : ... .. . ... ... ... ...
ROW FE : ... .. . ... ... : ... .. . ... ... : ... .. . ... ... : ... .. . ... : ... .. . ... ... : ... .. . ... ... ... ...
ROW FF : ... .. . ... ... : ... .. . ... ... : ... .. . ... ... : ... .. . ... : ... .. . ... ... : ... .. . ... ... ... ...

PATTERN 15
ROW 00 : F#3 15 5 ... ... : --- .. . 400 ... : F-4 03 . 246 ... : D-# 05 6 ... : ... .. . F04 ... : F-4 00 . I00 JCD ... ...
ROW 01 : ... .. . ... ... : ... .. . ... ... : ... .. . ... ... : ... .. . ... : ... .. . ... ... : ... .. . ... ... ... ...
ROW 02 : ... .. . ... ... : ... .. . ... ... : ... .. . ... ... : ... .. . ... : ... .. . ... ... : ... .. . ... ... ... ...
ROW 03 : ... .. . ... ... : ... .. . ... ... : ... .. . ... ... : ... .. . ... : ... .. . ... ... : ... .. . ... ... ... ...
ROW 04 : ... .. . ... ... : ... .. . ... ... : F-3 11 . 200 ... : ... .. . ... : ... .. . ... ... : F-4 00 . I00 JCD ... ...
ROW 05 : ... .. . ... ... : ... .. . ... ... : ... .. . S03 ... : ... .. . ... : ... .. . ... ... : ... .. . ... ... ... ...
ROW 06 : ... .. . ... ... : ... .. . ... ... : F-3 11 . ... ... : D-# 05 . ... : ... .. . ... ... : F-4 00 . I00 JCD ... ...
ROW 07 : ... .. . ... ... : ... .. . ... ... : ... .. . S03 ... : ... .. . ... : ... .. . ... ... : ... .. . ... ... ... ...
ROW 08 : ... .. . ... ... : ... .. . ... ... : F-4 03 . 246 ... : 6-# 08 A ... : ... .. . ... ... : ... .. . ... ... ... ...
ROW 09 : ... .. . ... ... : ... .. . ... ... : ... .. . ... ... : ... .. . ... : ... .. . ... ... : ... .. . ... ... ... ...
ROW 0A : ... .. . ... ... : ... .. . ... ... : F-3 11 . 200 ... : ... .. . ... : ... .. . ... ... : F-4 00 . I00 JCD ... ...
ROW 0B : ... .. . ... ... : ... .. . ... ... : ... .. . S03 ... : ... .. . ... : ... .. . ... ... : ... .. . ... ... ... ...
ROW 0C : ... .. . ... ... : ... .. . ... ... : F-3 11 . ... ... : D-# 05 6 ... : ... .. . ... ... : F-4 00 . I00 JCD ... ...
ROW 0D : ... .. . ... ... : ... .. . ... ... : ... .. . S03 ... : ... .. . ... : ... .. . ... ... : ... .. . ... ... ... ...
ROW 0E : ... .. . ... ... : ... .. . ... ... : ... .. . ... ... : D-# 05 . ... : ... .. . ... ... : ... .. . ... ... ... ...
ROW 0F : ... .. . ... ... : ... .. . ... ... : ... .. . ... ... : ... .. . ... : ... .. . ... ... : ... .. . ... ... ... ...
ROW 10 : ... .. . ... ... : ... .. . ... ... : F-4 03 . 246 ... : ... .. . ... : ... .. . ... ... : F-4 00 . I00 JCD ... ...
ROW 11 : ... .. . ... ... : ... .. . ... ... : ... .. . ... ... : ... .. . ... : ... .. . ... ... : ... .. . ... ... ... ...
ROW 12 : ... .. . ... ... : ... .. . ... ... : ... .. . ... ... : ... .. . ... : ... .. . ... ... : ... .. . ... ... ... ...
ROW 13 : ... .. . ... ... : ... .. . ... ... : ... .. . ... ... : ... .. . ... : ... .. . ... ... : ... .. . ... ... ... ...
ROW 14 : ... .. . ... ... : ... .. . ... ... : F-3 11 . 200 ... : D-# 05 . ... : ... .. . ... ... : F-4 00 . I00 JCD ... ...
ROW 15 : ... .. . ... ... : ... .. . ... ... : ... .. . S03 ... : ... .. . ... : ... .. . ... ... : ... .. . ... ... ... ...
ROW 16 : ... .. . ... ... : ... .. . ... ... : ... .. . ... ... : D-# 05 . ... : ... .. . ... ... : ... .. . ... ... ... ...
ROW 17 : ... .. . ... ... : ... .. . ... ... : ... .. . ... ... : ... .. . ... : ... .. . ... ... : ... .. . ... ... ... ...
ROW 18 : ... .. . ... ... : B-2 15 1 ... ... : F-4 03 . 246 ... : ... .. . ... : ... .. . ... ... : F-4 00 . I00 JCD ... ...
ROW 19 : ... .. . ... ... : ... .. . ... ... : ... .. . ... ... : ... .. . ... : ... .. . ... ... : ... .. . ... ... ... ...
ROW 1A : ... .. . ... ... : ... .. . ... ... : ... .. . ... ... : D-# 05 . ... : ... .. . ... ... : ... .. . ... ... ... ...
ROW 1B : ... .. . ... ... : ... .. . ... ... : ... .. . ... ... : ... .. . ... : ... .. . ... ... : ... .. . ... ... ... ...
ROW 1C : ... .. . ... ... : ... .. . ... ... : F-3 11 . 200 ... : 6-# 08 A ... : ... .. . ... ... : F-4 00 . I00 JCD ... ...
ROW 1D : ... .. . ... ... : ... .. . ... ... : ... .. . S03 ... : ... .. . ... : ... .. . ... ... : ... .. . ... ... ... ...
ROW 1E : ... .. . ... ... : ... .. . ... ... : F-3 11 . ... ... : ... .. . ... : ... .. . ... ... : F-4 00 . I00 JCD ... ...
ROW 1F : ... .. . ... ... : ... .. . ... ... : ... .. . S03 ... : ... .. . ... : ... .. . ... ... : ... .. . ... ... ... ...
ROW 20 : ... .. . ... ... : ... .. . ... ... : F-4 03 . 246 ... : 6-# 08 . ... : ... .. . ... ... : F-4 00 . I00 JCD ... ...
ROW 21 : ... .. . ... ... : ... .. . ... ... : ... .. . ... ... : ... .. . ... : ... .. . ... ... : ... .. . ... ... ... ...
ROW 22 : ... .. . ... ... : ... .. . ... ... : ... .. . ... ... : ... .. . ... : ... .. . ... ... : ... .. . ... ... ... ...
ROW 23 : ... .. . ... ... : ... .. . ... ... : ... .. . ... ... : ... .. . ... : ... .. . ... ... : ... .. . ... ... ... ...
ROW 24 : ... .. . ... ... : ... .. 2 ... ... : --- .. . ... ... : D-# 05 6 ... : ... .. . ... ... : ... .. . ... ... ... ...
ROW 25 : ... .. . ... ... : ... .. . ... ... : ... .. . ... ... : ... .. . ... : ... .. . ... ... : ... .. . ... ... ... ...
ROW 26 : ... .. . ... ... : ... .. . ... ... : ... .. . ... ... : 6-# 08 A ... : ... .. . ... ... : ... .. . ... ... ... ...
ROW 27 : ... .. . ... ... : ... .. . ... ... : ... .. . ... ... : ... .. . ... : ... .. . ... ... : ... .. . ... ... ... ...
ROW 28 : ... .. . ... ... : ... .. . ... ... : ... .. . ... ... : ... .. . ... : ... .. . ... ... : ... .. . ... ... ... ...
ROW 29 : ... .. . ... ... : ... .. . ... ... : ... .. . ... ... : ... .. . ... : ... .. . ... ... : ... .. . ... ... ... ...
ROW 2A : ... .. . ... ... : ... .. . ... ... : ... .. . ... ... : D-# 05 6 ... : ... .. . ... ... : ... .. . ... ... ... ...
ROW 2B : ... .. . ... ... : ... .. . ... ... : ... .. . ... ... : ... .. . ... : ... .. . ... ... : ... .. . ... ... ... ...
ROW 2C : ... .. . ... ... : ... .. . ... ... : ... .. . ... ... : 6-# 08 A ... : ... .. . ... ... : ... .. . ... ... ... ...
ROW 2D : ... .. . ... ... : ... .. . ... ... : ... .. . ... ... : ... .. . ... : ... .. . ... ... : ... .. . ... ... ... ...
ROW 2E : ... .. . ... ... : ... .. . ... ... : ... .. . ... ... : ... .. . ... : ... .. . ... ... : ... .. . ... ... ... ...
ROW 2F : ... .. . ... ... : ... .. . ... ... : ... .. . ... ... : ... .. . ... : ... .. . ... ... : ... .. . ... ... ... ...
ROW 30 : B-2 17 5 ... ... : ... .. 3 ... ... : ... .. . ... ... : D-# 05 6 ... : ... .. . ... ... : ... .. . ... ... ... ...
ROW 31 : ... .. . ... ... : ... .. . ... ... : ... .. . ... ... : ... .. . ... : ... .. . ... ... : ... .. . ... ... ... ...
ROW 32 : ... .. . ... ... : ... .. . ... ... : ... .. . ... ... : 6-# 08 A ... : ... .. . ... ... : ... .. . ... ... ... ...
ROW 33 : ... .. . ... ... : ... .. . ... ... : ... .. . ... ... : ... .. . ... : ... .. . ... ... : ... .. . ... ... ... ...
ROW 34 : ... .. . ... ... : ... .. . ... ... : ... .. . ... ... : ... .. . ... : ... .. . ... ... : ... .. . ... ... ... ...
ROW 35 : ... .. . ... ... : ... .. . ... ... : ... .. . ... ... : ... .. . ... : ... .. . ... ... : ... .. . ... ... ... ...
ROW 36 : ... .. . ... ... : ... .. . ... ... : ... .. . ... ... : D-# 05 6 ... : ... .. . ... ... : ... .. . ... ... ... ...
ROW 37 : ... .. . ... ... : ... .. . ... ... : ... .. . ... ... : ... .. . ... : ... .. . ... ... : ... .. . ... ... ... ...
ROW 38 : ... .. . ... ... : ... .. . ... ... : ... .. . ... ... : 6-# 08 A ... : ... .. . ... ... : ... .. . ... ... ... ...
ROW 39 : ... .. . ... ... : ... .. . ... ... : ... .. . ... ... : ... .. . ... : ... .. . ... ... : ... .. . ... ... ... ...
ROW 3A : ... .. . ... ... : ... .. . ... ... : ... .. . ... ... : D-# 05 6 ... : ... .. . ... ... : ... .. . ... ... ... ...
ROW 3B : ... .. . ... ... : ... .. . ... ... : ... .. . ... ... : ... .. . ... : ... .. . ... ... : ... .. . ... ... ... ...
ROW 3C : ... .. . ... ... : ... .. 4 ... ... : ... .. . ... ... : 6-# 08 A ... : ... .. . ... ... : ... .. . ... ... ... ...
ROW 3D : ... .. . ... ... : ... .. . ... ... : ... .. . ... ... : ... .. . ... : ... .. . ... ... : ... .. . ... ... ... ...
ROW 3E : ... .. . ... ... : ... .. . ... ... : ... .. . ... ... : 6-# 08 . ... : ... .. . ... ... : ... .. . ... ... ... ...
ROW 3F : ... .. . ... ... : ... .. . ... ... : ... .. . ... ... : ... .. . ... : ... .. . D00 ... : ... .. . ... ... ... ...
ROW 40 : ... .. . ... ... : ... .. . ... ... : ... .. . ... ... : ... .. . ... : ... .. . ... ... : ... .. . ... ... ... ...
ROW 41 : ... .. . ... ... : ... .. . ... ... : ... .. . ... ... : ... .. . ... : ... .. . ... ... : ... .. . ... ... ... ...
ROW 42 : ... .. . ... ... : ... .. . ... ... : ... .. . ... ... : ... .. . ... : ... .. . ... ... : ... .. . ... ... ... ...
ROW 43 : ... .. . ... ... : ... .. . ... ... : ... .. . ... ... : ... .. . ... : ... .. . ... ... : ... .. . ... ... ... ...
ROW 44 : ... .. . ... ... : ... .. . ... ... : ... .. . ... ... : ... .. . ... : ... .. . ... ... : ... .. . ... ... ... ...
ROW 45 : ... .. . ... ... : ... .. . ... ... : ... .. . ... ... : ... .. . ... : ... .. . ... ... : ... .. . ... ... ... ...
ROW 46 : ... .. . ... ... : ... .. . ... ... : ... .. . ... ... : ... .. . ... : ... .. . ... ... : ... .. . ... ... ... ...
ROW 47 : ... .. . ... ... : ... .. . ... ... : ... .. . ... ... : ... .. . ... : ... .. . ... ... : ... .. . ... ... ... ...
ROW 48 : ... .. . ... ... : ... .. 5 ... ... : ... .. . ... ... : ... .. . ... : ... .. . ... ... : ... .. . ... ... ... ...
ROW 49 : ... .. . ... ... : ... .. . ... ... : ... .. . ... ... : ... .. . ... : ... .. . ... ... : ... .. . ... ... ... ...
ROW 4A : ... .. . ... ... : ... .. . ... ... : ... .. . ... ... : ... .. . ... : ... .. . ... ... : ... .. . ... ... ... ...
ROW 4B : ... .. . ... ... : ... .. . ... ... : ... .. . ... ... : ... .. . ... : ... .. . ... ... : ... .. . ... ... ... ...
ROW 4C : ... .. . ... ... : ... .. . ... ... : ... .. . ... ... : ... .. . ... : ... .. . ... ... : ... .. . ... ... ... ...
ROW 4D : ... .. . ... ... : ... .. . ... ... : ... .. . ... ... : ... .. . ... : ... .. . ... ... : ... .. . ... ... ... ...
ROW 4E : ... .. . ... ... : ... .. . ... ... : ... .. . ... ... : ... .. . ... : ... .. . ... ... : ... .. . ... ... ... ...
ROW 4F : ... .. . ... ... : ... .. . ... ... : ... .. . ... ... : ... .. . ... : ... .. . ... ... : ... .. . ... ... ... ...
ROW 50 : ... .. . ... ... : ... .. . ... ... : ... .. . ... ... : ... .. . ... : ... .. . ... ... : ... .. . ... ... ... ...
ROW 51 : ... .. . ... ... : ... .. . ... ... : ... .. . ... ... : ... .. . ... : ... .. . ... ... : ... .. . ... ... ... ...
ROW 52 : ... .. . ... ... : ... .. . ... ... : ... .. . ... ... : ... .. . ... : ... .. . ... ... : ... .. . ... ... ... ...
ROW 53 : ... .. . ... ... : ... .. . ... ... : ... .. . ... ... : ... .. . ... : ... .. . ... ... : ... .. . ... ... ... ...
ROW 54 : ... .. . ... ... : ... .. . ... ... : ... .. . ... ... : ... .. . ... : ... .. . ... ... : ... .. . ... ... ... ...
ROW 55 : ... .. . ... ... : ... .. . ... ... : ... .. . ... ... : ... .. . ... : ... .. . ... ... : ... .. . ... ... ... ...
ROW 56 : ... .. . ... ... : ... .. . ... ... : ... .. . ... ... : ... .. . ... : ... .. . ... ... : ... .. . ... ... ... ...
ROW 57 : ... .. . ... ... : ... .. . ... ... : ... .. . ... ... : ... .. . ... : ... .. . ... ... : ... .. . ... ... ... ...
ROW 58 : ... .. . ... ... : ... .. . ... ... : ... .. . ... ... : ... .. . ... : ... .. . ... ... : ... .. . ... ... ... ...
ROW 59 : ... .. . ... ... : ... .. . ... ... : ... .. . ... ... : ... .. . ... : ... .. . ... ... : ... .. . ... ... ... ...
ROW 5A : ... .. . ... ... : ... .. . ... ... : ... .. . ... ... : ... .. . ... : ... .. . ... ... : ... .. . ... ... ... ...
ROW 5B : ... .. . ... ... : ... .. . ... ... : ... .. . ... ... : ... .. . ... : ... .. . ... ... : ... .. . ... ... ... ...
ROW 5C : ... .. . ... ... : ... .. . ... ... : ... .. . ... ... : ... .. . ... : ... .. . ... ... : ... .. . ... ... ... ...
ROW 5D : ... .. . ... ... : ... .. . ... ... : ... .. . ... ... : ... .. . ... : ... .. . ... ... : ... .. . ... ... ... ...
ROW 5E : ... .. . ... ... : ... .. . ... ... : ... .. . ... ... : ... .. . ... : ... .. . ... ... : ... .. . ... ... ... ...
ROW 5F : ... .. . ... ... : ... .. . ... ... : ... .. . ... ... : ... .. . ... : ... .. . ... ... : ... .. . ... ... ... ...
ROW 60 : ... .. . ... ... : ... .. . ... ... : ... .. . ... ... : ... .. . ... : ... .. . ... ... : ... .. . ... ... ... ...
ROW 61 : ... .. . ... ... : ... .. . ... ... : ... .. . ... ... : ... .. . ... : ... .. . ... ... : ... .. . ... ... ... ...
ROW 62 : ... .. . ... ... : ... .. . ... ... : ... .. . ... ... : ... .. . ... : ... .. . ... ... : ... .. . ... ... ... ...
ROW 63 : ... .. . ... ... : ... .. . ... ... : ... .. . ... ... : ... .. . ... : ... .. . ... ... : ... .. . ... ... ... ...
ROW 64 : ... .. . ... ... : ... .. . ... ... : ... .. . ... ... : ... .. . ... : ... .. . ... ... : ... .. . ... ... ... ...
ROW 65 : ... .. . ... ... : ... .. . ... ... : ... .. . ... ... : ... .. . ... : ... .. . ... ... : ... .. . ... ... ... ...
ROW 66 : ... .. . ... ... : ... .. . ... ... : ... .. . ... ... : ... .. . ... : ... .. . ... ... : ... .. . ... ... ... ...
ROW 67 : ... .. . ... ... : ... .. . ... ... : ... .. . ... ... : ... .. . ... : ... .. . ... ... : ... .. . ... ... ... ...
ROW 68 : ... .. . ... ... : ... .. . ... ... : ... .. . ... ... : ... .. . ... : ... .. . ... ... : ... .. . ... ... ... ...
ROW 69 : ... .. . ... ... : ... .. . ... ... : ... .. . ... ... : ... .. . ... : ... .. . ... ... : ... .. . ... ... ... ...
ROW 6A : ... .. . ... ... : ... .. . ... ... : ... .. . ... ... : ... .. . ... : ... .. . ... ... : ... .. . ... ... ... ...
ROW 6B : ... .. . ... ... : ... .. . ... ... : ... .. . ... ... : ... .. . ... : ... .. . ... ... : ... .. . ... ... ... ...
ROW 6C : ... .. . ... ... : ... .. . ... ... : ... .. . ... ... : ... .. . ... : ... .. . ... ... : ... .. . ... ... ... ...
ROW 6D : ... .. . ... ... : ... .. . ... ... : ... .. . ... ... : ... .. . ... : ... .. . ... ... : ... .. . ... ... ... ...
ROW 6E : ... .. . ... ... : ... .. . ... ... : ... .. . ... ... : ... .. . ... : ... .. . ... ... : ... .. . ... ... ... ...
ROW 6F : ... .. . ... ... : ... .. . ... ... : ... .. . ... ... : ... .. . ... : ... .. . ... ... : ... .. . ... ... ... ...
ROW 70 : ... .. . ... ... : ... .. . ... ... : ... .. . ... ... : ... .. . ... : ... .. . ... ... : ... .. . ... ... ... ...
ROW 71 : ... .. . ... ... : ... .. . ... ... : ... .. . ... ... : ... .. . ... : ... .. . ... ... : ... .. . ... ... ... ...
ROW 72 : ... .. . ... ... : ... .. . ... ... : ... .. . ... ... : ... .. . ... : ... .. . ... ... : ... .. . ... ... ... ...
ROW 73 : ... .. . ... ... : ... .. . ... ... : ... .. . ... ... : ... .. . ... : ... .. . ... ... : ... .. . ... ... ... ...
ROW 74 : ... .. . ... ... : ... .. . ... ... : ... .. . ... ... : ... .. . ... : ... .. . ... ... : ... .. . ... ... ... ...
ROW 75 : ... .. . ... ... : ... .. . ... ... : ... .. . ... ... : ... .. . ... : ... .. . ... ... : ... .. . ... ... ... ...
ROW 76 : ... .. . ... ... : ... .. . ... ... : ... .. . ... ... : ... .. . ... : ... .. . ... ... : ... .. . ... ... ... ...
ROW 77 : ... .. . ... ... : ... .. . ... ... : ... .. . ... ... : ... .. . ... : ... .. . ... ... : ... .. . ... ... ... ...
ROW 78 : ... .. . ... ... : ... .. . ... ... : ... .. . ... ... : ... .. . ... : ... .. . ... ... : ... .. . ... ... ... ...
ROW 79 : ... .. . ... ... : ... .. . ... ... : ... .. . ... ... : ... .. . ... : ... .. . ... ... : ... .. . ... ... ... ...
ROW 7A : ... .. . ... ... : ... .. . ... ... : ... .. . ... ... : ... .. . ... : ... .. . ... ... : ... .. . ... ... ... ...
ROW 7B : ... .. . ... ... : ... .. . ... ... : ... .. . ... ... : ... .. . ... : ... .. . ... ... : ... .. . ... ... ... ...
ROW 7C : ... .. . ... ... : ... .. . ... ... : ... .. . ... ... : ... .. . ... : ... .. . ... ... : ... .. . ... ... ... ...
ROW 7D : ... .. . ... ... : ... .. . ... ... : ... .. . ... ... : ... .. . ... : ... .. . ... ... : ... .. . ... ... ... ...
ROW 7E : ... .. . ... ... : ... .. . ... ... : ... .. . ... ... : ... .. . ... : ... .. . ... ... : ... .. . ... ... ... ...
ROW 7F : ... .. . ... ... : ... .. . ... ... : ... .. . ... ... : ... .. . ... : ... .. . ... ... : ... .. . ... ... ... ...
ROW 80 : ... .. . ... ... : ... .. . ... ... : ... .. . ... ... : ... .. . ... : ... .. . ... ... : ... .. . ... ... ... ...
ROW 81 : ... .. . ... ... : ... .. . ... ... : ... .. . ... ... : ... .. . ... : ... .. . ... ... : ... .. . ... ... ... ...
ROW 82 : ... .. . ... ... : ... .. . ... ... : ... .. . ... ... : ... .. . ... : ... .. . ... ... : ... .. . ... ... ... ...
ROW 83 : ... .. . ... ... : ... .. . ... ... : ... .. . ... ... : ... .. . ... : ... .. . ... ... : ... .. . ... ... ... ...
ROW 84 : ... .. . ... ... : ... .. . ... ... : ... .. . ... ... : ... .. . ... : ... .. . ... ... : ... .. . ... ... ... ...
ROW 85 : ... .. . ... ... : ... .. . ... ... : ... .. . ... ... : ... .. . ... : ... .. . ... ... : ... .. . ... ... ... ...
ROW 86 : ... .. . ... ... : ... .. . ... ... : ... .. . ... ... : ... .. . ... : ... .. . ... ... : ... .. . ... ... ... ...
ROW 87 : ... .. . ... ... : ... .. . ... ... : ... .. . ... ... : ... .. . ... : ... .. . ... ... : ... .. . ... ... ... ...
ROW 88 : ... .. . ... ... : ... .. . ... ... : ... .. . ... ... : ... .. . ... : ... .. . ... ... : ... .. . ... ... ... ...
ROW 89 : ... .. . ... ... : ... .. . ... ... : ... .. . ... ... : ... .. . ... : ... .. . ... ... : ... .. . ... ... ... ...
ROW 8A : ... .. . ... ... : ... .. . ... ... : ... .. . ... ... : ... .. . ... : ... .. . ... ... : ... .. . ... ... ... ...
ROW 8B : ... .. . ... ... : ... .. . ... ... : ... .. . ... ... : ... .. . ... : ... .. . ... ... : ... .. . ... ... ... ...
ROW 8C : ... .. . ... ... : ... .. . ... ... : ... .. . ... ... : ... .. . ... : ... .. . ... ... : ... .. . ... ... ... ...
ROW 8D : ... .. . ... ... : ... .. . ... ... : ... .. . ... ... : ... .. . ... : ... .. . ... ... : ... .. . ... ... ... ...
ROW 8E : ... .. . ... ... : ... .. . ... ... : ... .. . ... ... : ... .. . ... : ... .. . ... ... : ... .. . ... ... ... ...
ROW 8F : ... .. . ... ... : ... .. . ... ... : ... .. . ... ... : ... .. . ... : ... .. . ... ... : ... .. . ... ... ... ...
ROW 90 : ... .. . ... ... : ... .. . ... ... : ... .. . ... ... : ... .. . ... : ... .. . ... ... : ... .. . ... ... ... ...
ROW 91 : ... .. . ... ... : ... .. . ... ... : ... .. . ... ... : ... .. . ... : ... .. . ... ... : ... .. . ... ... ... ...
ROW 92 : ... .. . ... ... : ... .. . ... ... : ... .. . ... ... : ... .. . ... : ... .. . ... ... : ... .. . ... ... ... ...
ROW 93 : ... .. . ... ... : ... .. . ... ... : ... .. . ... ... : ... .. . ... : ... .. . ... ... : ... .. . ... ... ... ...
ROW 94 : ... .. . ... ... : ... .. . ... ... : ... .. . ... ... : ... .. . ... : ... .. . ... ... : ... .. . ... ... ... ...
ROW 95 : ... .. . ... ... : ... .. . ... ... : ... .. . ... ... : ... .. . ... : ... .. . ... ... : ... .. . ... ... ... ...
ROW 96 : ... .. . ... ... : ... .. . ... ... : ... .. . ... ... : ... .. . ... : ... .. . ... ... : ... .. . ... ... ... ...
ROW 97 : ... .. . ... ... : ... .. . ... ... : ... .. . ... ... : ... .. . ... : ... .. . ... ... : ... .. . ... ... ... ...
ROW 98 : ... .. . ... ... : ... .. . ... ... : ... .. . ... ... : ... .. . ... : ... .. . ... ... : ... .. . ... ... ... ...
ROW 99 : ... .. . ... ... : ... .. . ... ... : ... .. . ... ... : ... .. . ... : ... .. . ... ... : ... .. . ... ... ... ...
ROW 9A : ... .. . ... ... : ... .. . ... ... : ... .. . ... ... : ... .. . ... : ... .. . ... ... : ... .. . ... ... ... ...
ROW 9B : ... .. . ... ... : ... .. . ... ... : ... .. . ... ... : ... .. . ... : ... .. . ... ... : ... .. . ... ... ... ...
ROW 9C : ... .. . ... ... : ... .. . ... ... : ... .. . ... ... : ... .. . ... : ... .. . ... ... : ... .. . ... ... ... ...
ROW 9D : ... .. . ... ... : ... .. . ... ... : ... .. . ... ... : ... .. . ... : ... .. . ... ... : ... .. . ... ... ... ...
ROW 9E : ... .. . ... ... : ... .. . ... ... : ... .. . ... ... : ... .. . ... : ... .. . ... ... : ... .. . ... ... ... ...
ROW 9F : ... .. . ... ... : ... .. . ... ... : ... .. . ... ... : ... .. . ... : ... .. . ... ... : ... .. . ... ... ... ...
ROW A0 : ... .. . ... ... : ... .. . ... ... : ... .. . ... ... : ... .. . ... : ... .. . ... ... : ... .. . ... ... ... ...
ROW A1 : ... .. . ... ... : ... .. . ... ... : ... .. . ... ... : ... .. . ... : ... .. . ... ... : ... .. . ... ... ... ...
ROW A2 : ... .. . ... ... : ... .. . ... ... : ... .. . ... ... : ... .. . ... : ... .. . ... ... : ... .. . ... ... ... ...
ROW A3 : ... .. . ... ... : ... .. . ... ... : ... .. . ... ... : ... .. . ... : ... .. . ... ... : ... .. . ... ... ... ...
ROW A4 : ... .. . ... ... : ... .. . ... ... : ... .. . ... ... : ... .. . ... : ... .. . ... ... : ... .. . ... ... ... ...
ROW A5 : ... .. . ... ... : ... .. . ... ... : ... .. . ... ... : ... .. . ... : ... .. . ... ... : ... .. . ... ... ... ...
ROW A6 : ... .. . ... ... : ... .. . ... ... : ... .. . ... ... : ... .. . ... : ... .. . ... ... : ... .. . ... ... ... ...
ROW A7 : ... .. . ... ... : ... .. . ... ... : ... .. . ... ... : ... .. . ... : ... .. . ... ... : ... .. . ... ... ... ...
ROW A8 : ... .. . ... ... : ... .. . ... ... : ... .. . ... ... : ... .. . ... : ... .. . ... ... : ... .. . ... ... ... ...
ROW A9 : ... .. . ... ... : ... .. . ... ... : ... .. . ... ... : ... .. . ... : ... .. . ... ... : ... .. . ... ... ... ...
ROW AA : ... .. . ... ... : ... .. . ... ... : ... .. . ... ... : ... .. . ... : ... .. . ... ... : ... .. . ... ... ... ...
ROW AB : ... .. . ... ... : ... .. . ... ... : ... .. . ... ... : ... .. . ... : ... .. . ... ... : ... .. . ... ... ... ...
ROW AC : ... .. . ... ... : ... .. . ... ... : ... .. . ... ... : ... .. . ... : ... .. . ... ... : ... .. . ... ... ... ...
ROW AD : ... .. . ... ... : ... .. . ... ... : ... .. . ... ... : ... .. . ... : ... .. . ... ... : ... .. . ... ... ... ...
ROW AE : ... .. . ... ... : ... .. . ... ... : ... .. . ... ... : ... .. . ... : ... .. . ... ... : ... .. . ... ... ... ...
ROW AF : ... .. . ... ... : ... .. . ... ... : ... .. . ... ... : ... .. . ... : ... .. . ... ... : ... .. . ... ... ... ...
ROW B0 : ... .. . ... ... : ... .. . ... ... : ... .. . ... ... : ... .. . ... : ... .. . ... ... : ... .. . ... ... ... ...
ROW B1 : ... .. . ... ... : ... .. . ... ... : ... .. . ... ... : ... .. . ... : ... .. . ... ... : ... .. . ... ... ... ...
ROW B2 : ... .. . ... ... : ... .. . ... ... : ... .. . ... ... : ... .. . ... : ... .. . ... ... : ... .. . ... ... ... ...
ROW B3 : ... .. . ... ... : ... .. . ... ... : ... .. . ... ... : ... .. . ... : ... .. . ... ... : ... .. . ... ... ... ...
ROW B4 : ... .. . ... ... : ... .. . ... ... : ... .. . ... ... : ... .. . ... : ... .. . ... ... : ... .. . ... ... ... ...
ROW B5 : ... .. . ... ... : ... .. . ... ... : ... .. . ... ... : ... .. . ... : ... .. . ... ... : ... .. . ... ... ... ...
ROW B6 : ... .. . ... ... : ... .. . ... ... : ... .. . ... ... : ... .. . ... : ... .. . ... ... : ... .. . ... ... ... ...
ROW B7 : ... .. . ... ... : ... .. . ... ... : ... .. . ... ... : ... .. . ... : ... .. . ... ... : ... .. . ... ... ... ...
ROW B8 : ... .. . ... ... : ... .. . ... ... : ... .. . ... ... : ... .. . ... : ... .. . ... ... : ... .. . ... ... ... ...
ROW B9 : ... .. . ... ... : ... .. . ... ... : ... .. . ... ... : ... .. . ... : ... .. . ... ... : ... .. . ... ... ... ...
ROW BA : ... .. . ... ... : ... .. . ... ... : ... .. . ... ... : ... .. . ... : ... .. . ... ... : ... .. . ... ... ... ...
ROW BB : ... .. . ... ... : ... .. . ... ... : ... .. . ... ... : ... .. . ... : ... .. . ... ... : ... .. . ... ... ... ...
ROW BC : ... .. . ... ... : ... .. . ... ... : ... .. . ... ... : ... .. . ... : ... .. . ... ... : ... .. . ... ... ... ...
ROW BD : ... .. . ... ... : ... .. . ... ... : ... .. . ... ... : ... .. . ... : ... .. . ... ... : ... .. . ... ... ... ...
ROW BE : ... .. . ... ... : ... .. . ... ... : ... .. . ... ... : ... .. . ... : ... .. . ... ... : ... .. . ... ... ... ...
ROW BF : ... .. . ... ... : ... .. . ... ... : ... .. . ... ... : ... .. . ... : ... .. . ... ... : ... .. . ... ... ... ...
ROW C0 : ... .. . ... ... : ... .. . ... ... : ... .. . ... ... : ... .. . ... : ... .. . ... ... : ... .. . ... ... ... ...
ROW C1 : ... .. . ... ... : ... .. . ... ... : ... .. . ... ... : ... .. . ... : ... .. . ... ... : ... .. . ... ... ... ...
ROW C2 : ... .. . ... ... : ... .. . ... ... : ... .. . ... ... : ... .. . ... : ... .. . ... ... : ... .. . ... ... ... ...
ROW C3 : ... .. . ... ... : ... .. . ... ... : ... .. . ... ... : ... .. . ... : ... .. . ... ... : ... .. . ... ... ... ...
ROW C4 : ... .. . ... ... : ... .. . ... ... : ... .. . ... ... : ... .. . ... : ... .. . ... ... : ... .. . ... ... ... ...
ROW C5 : ... .. . ... ... : ... .. . ... ... : ... .. . ... ... : ... .. . ... : ... .. . ... ... : ... .. . ... ... ... ...
ROW C6 : ... .. . ... ... : ... .. . ... ... : ... .. . ... ... : ... .. . ... : ... .. . ... ... : ... .. . ... ... ... ...
ROW C7 : ... .. . ... ... : ... .. . ... ... : ... .. . ... ... : ... .. . ... : ... .. . ... ... : ... .. . ... ... ... ...
ROW C8 : ... .. . ... ... : ... .. . ... ... : ... .. . ... ... : ... .. . ... : ... .. . ... ... : ... .. . ... ... ... ...
ROW C9 : ... .. . ... ... : ... .. . ... ... : ... .. . ... ... : ... .. . ... : ... .. . ... ... : ... .. . ... ... ... ...
ROW CA : ... .. . ... ... : ... .. . ... ... : ... .. . ... ... : ... .. . ... : ... .. . ... ... : ... .. . ... ... ... ...
ROW CB : ... .. . ... ... : ... .. . ... ... : ... .. . ... ... : ... .. . ... : ... .. . ... ... : ... .. . ... ... ... ...
ROW CC : ... .. . ... ... : ... .. . ... ... : ... .. . ... ... : ... .. . ... : ... .. . ... ... : ... .. . ... ... ... ...
ROW CD : ... .. . ... ... : ... .. . ... ... : ... .. . ... ... : ... .. . ... : ... .. . ... ... : ... .. . ... ... ... ...
ROW CE : ... .. . ... ... : ... .. . ... ... : ... .. . ... ... : ... .. . ... : ... .. . ... ... : ... .. . ... ... ... ...
ROW CF : ... .. . ... ... : ... .. . ... ... : ... .. . ... ... : ... .. . ... : ... .. . ... ... : ... .. . ... ... ... ...
ROW D0 : ... .. . ... ... : ... .. . ... ... : ... .. . ... ... : ... .. . ... : ... .. . ... ... : ... .. . ... ... ... ...
ROW D1 : ... .. . ... ... : ... .. . ... ... : ... .. . ... ... : ... .. . ... : ... .. . ... ... : ... .. . ... ... ... ...
ROW D2 : ... .. . ... ... : ... .. . ... ... : ... .. . ... ... : ... .. . ... : ... .. . ... ... : ... .. . ... ... ... ...
ROW D3 : ... .. . ... ... : ... .. . ... ... : ... .. . ... ... : ... .. . ... : ... .. . ... ... : ... .. . ... ... ... ...
ROW D4 : ... .. . ... ... : ... .. . ... ... : ... .. . ... ... : ... .. . ... : ... .. . ... ... : ... .. . ... ... ... ...
ROW D5 : ... .. . ... ... : ... .. . ... ... : ... .. . ... ... : ... .. . ... : ... .. . ... ... : ... .. . ... ... ... ...
ROW D6 : ... .. . ... ... : ... .. . ... ... : ... .. . ... ... : ... .. . ... : ... .. . ... ... : ... .. . ... ... ... ...
ROW D7 : ... .. . ... ... : ... .. . ... ... : ... .. . ... ... : ... .. . ... : ... .. . ... ... : ... .. . ... ... ... ...
ROW D8 : ... .. . ... ... : ... .. . ... ... : ... .. . ... ... : ... .. . ... : ... .. . ... ... : ... .. . ... ... ... ...
ROW D9 : ... .. . ... ... : ... .. . ... ... : ... .. . ... ... : ... .. . ... : ... .. . ... ... : ... .. . ... ... ... ...
ROW DA : ... .. . ... ... : ... .. . ... ... : ... .. . ... ... : ... .. . ... : ... .. . ... ... : ... .. . ... ... ... ...
ROW DB : ... .. . ... ... : ... .. . ... ... : ... .. . ... ... : ... .. . ... : ... .. . ... ... : ... .. . ... ... ... ...
ROW DC : ... .. . ... ... : ... .. . ... ... : ... .. . ... ... : ... .. . ... : ... .. . ... ... : ... .. . ... ... ... ...
ROW DD : ... .. . ... ... : ... .. . ... ... : ... .. . ... ... : ... .. . ... : ... .. . ... ... : ... .. . ... ... ... ...
ROW DE : ... .. . ... ... : ... .. . ... ... : ... .. . ... ... : ... .. . ... : ... .. . ... ... : ... .. . ... ... ... ...
ROW DF : ... .. . ... ... : ... .. . ... ... : ... .. . ... ... : ... .. . ... : ... .. . ... ... : ... .. . ... ... ... ...
ROW E0 : ... .. . ... ... : ... .. . ... ... : ... .. . ... ... : ... .. . ... : ... .. . ... ... : ... .. . ... ... ... ...
ROW E1 : ... .. . ... ... : ... .. . ... ... : ... .. . ... ... : ... .. . ... : ... .. . ... ... : ... .. . ... ... ... ...
ROW E2 : ... .. . ... ... : ... .. . ... ... : ... .. . ... ... : ... .. . ... : ... .. . ... ... : ... .. . ... ... ... ...
ROW E3 : ... .. . ... ... : ... .. . ... ... : ... .. . ... ... : ... .. . ... : ... .. . ... ... : ... .. . ... ... ... ...
ROW E4 : ... .. . ... ... : ... .. . ... ... : ... .. . ... ... : ... .. . ... : ... .. . ... ... : ... .. . ... ... ... ...
ROW E5 : ... .. . ... ... : ... .. . ... ... : ... .. . ... ... : ... .. . ... : ... .. . ... ... : ... .. . ... ... ... ...
ROW E6 : ... .. . ... ... : ... .. . ... ... : ... .. . ... ... : ... .. . ... : ... .. . ... ... : ... .. . ... ... ... ...
ROW E7 : ... .. . ... ... : ... .. . ... ... : ... .. . ... ... : ... .. . ... : ... .. . ... ... : ... .. . ... ... ... ...
ROW E8 : ... .. . ... ... : ... .. . ... ... : ... .. . ... ... : ... .. . ... : ... .. . ... ... : ... .. . ... ... ... ...
ROW E9 : ... .. . ... ... : ... .. . ... ... : ... .. . ... ... : ... .. . ... : ... .. . ... ... : ... .. . ... ... ... ...
ROW EA : ... .. . ... ... : ... .. . ... ... : ... .. . ... ... : ... .. . ... : ... .. . ... ... : ... .. . ... ... ... ...
ROW EB : ... .. . ... ... : ... .. . ... ... : ... .. . ... ... : ... .. . ... : ... .. . ... ... : ... .. . ... ... ... ...
ROW EC : ... .. . ... ... : ... .. . ... ... : ... .. . ... ... : ... .. . ... : ... .. . ... ... : ... .. . ... ... ... ...
ROW ED : ... .. . ... ... : ... .. . ... ... : ... .. . ... ... : ... .. . ... : ... .. . ... ... : ... .. . ... ... ... ...
ROW EE : ... .. . ... ... : ... .. . ... ... : ... .. . ... ... : ... .. . ... : ... .. . ... ... : ... .. . ... ... ... ...
ROW EF : ... .. . ... ... : ... .. . ... ... : ... .. . ... ... : ... .. . ... : ... .. . ... ... : ... .. . ... ... ... ...
ROW F0 : ... .. . ... ... : ... .. . ... ... : ... .. . ... ... : ... .. . ... : ... .. . ... ... : ... .. . ... ... ... ...
ROW F1 : ... .. . ... ... : ... .. . ... ... : ... .. . ... ... : ... .. . ... : ... .. . ... ... : ... .. . ... ... ... ...
ROW F2 : ... .. . ... ... : ... .. . ... ... : ... .. . ... ... : ... .. . ... : ... .. . ... ... : ... .. . ... ... ... ...
ROW F3 : ... .. . ... ... : ... .. . ... ... : ... .. . ... ... : ... .. . ... : ... .. . ... ... : ... .. . ... ... ... ...
ROW F4 : ... .. . ... ... : ... .. . ... ... : ... .. . ... ... : ... .. . ... : ... .. . ... ... : ... .. . ... ... ... ...
ROW F5 : ... .. . ... ... : ... .. . ... ... : ... .. . ... ... : ... .. . ... : ... .. . ... ... : ... .. . ... ... ... ...
ROW F6 : ... .. . ... ... : ... .. . ... ... : ... .. . ... ... : ... .. . ... : ... .. . ... ... : ... .. . ... ... ... ...
ROW F7 : ... .. . ... ... : ... .. . ... ... : ... .. . ... ... : ... .. . ... : ... .. . ... ... : ... .. . ... ... ... ...
ROW F8 : ... .. . ... ... : ... .. . ... ... : ... .. . ... ... : ... .. . ... : ... .. . ... ... : ... .. . ... ... ... ...
ROW F9 : ... .. . ... ... : ... .. . ... ... : ... .. . ... ... : ... .. . ... : ... .. . ... ... : ... .. . ... ... ... ...
ROW FA : ... .. . ... ... : ... .. . ... ... : ... .. . ... ... : ... .. . ... : ... .. . ... ... : ... .. . ... ... ... ...
ROW FB : ... .. . ... ... : ... .. . ... ... : ... .. . ... ... : ... .. . ... : ... .. . ... ... : ... .. . ... ... ... ...
ROW FC : ... .. . ... ... : ... .. . ... ... : ... .. . ... ... : ... .. . ... : ... .. . ... ... : ... .. . ... ... ... ...
ROW FD : ... .. . ... ... : ... .. . ... ... : ... .. . ... ... : ... .. . ... : ... .. . ... ... : ... .. . ... ... ... ...
ROW FE : ... .. . ... ... : ... .. . ... ... : ... .. . ... ... : ... .. . ... : ... .. . ... ... : ... .. . ... ... ... ...
ROW FF : ... .. . ... ... : ... .. . ... ... : ... .. . ... ... : ... .. . ... : ... .. . ... ... : ... .. . ... ... ... ...

PATTERN 16
ROW 00 : E-3 17 5 ... ... : B-2 14 5 G01 ... : --- .. . ... ... : C-# 03 E A03 : ... .. . F04 ... : --- .. . ... ... ... ...
ROW 01 : ... .. . ... ... : ... .. . ... ... : ... .. . ... ... : ... .. . A04 : ... .. . ... ... : ... .. . ... ... ... ...
ROW 02 : ... .. . ... ... : ... .. . ... ... : ... .. . ... ... : ... .. . A05 : ... .. . ... ... : ... .. . ... ... ... ...
ROW 03 : ... .. . ... ... : ... .. . ... ... : ... .. . ... ... : ... .. . A04 : ... .. . ... ... : ... .. . ... ... ... ...
ROW 04 : ... .. . ... ... : ... .. . ... ... : ... .. . ... ... : ... .. . ... : ... .. . ... ... : ... .. . ... ... ... ...
ROW 05 : ... .. . ... ... : ... .. . ... ... : ... .. . ... ... : ... .. . ... : ... .. . ... ... : ... .. . ... ... ... ...
ROW 06 : ... .. . ... ... : ... .. . ... ... : ... .. . ... ... : D-# 05 6 A00 : ... .. . ... ... : ... .. . ... ... ... ...
ROW 07 : ... .. . ... ... : ... .. . ... ... : ... .. . ... ... : ... .. . ... : ... .. . ... ... : ... .. . ... ... ... ...
ROW 08 : ... .. . ... ... : ... .. . ... ... : ... .. . ... ... : 6-# 08 A ... : ... .. . ... ... : ... .. . ... ... ... ...
ROW 09 : ... .. . ... ... : ... .. . ... ... : ... .. . ... ... : ... .. . ... : ... .. . ... ... : ... .. . ... ... ... ...
ROW 0A : ... .. . ... ... : ... .. . ... ... : ... .. . ... ... : 6-# 08 9 G02 : ... .. . ... ... : ... .. . ... ... ... ...
ROW 0B : ... .. . ... ... : ... .. . ... ... : ... .. . ... ... : ... .. . ... : ... .. . ... ... : ... .. . ... ... ... ...
ROW 0C : ... .. . ... ... : ... .. . ... ... : ... .. . ... ... : ... .. . ... : ... .. . ... ... : ... .. . ... ... ... ...
ROW 0D : ... .. . ... ... : ... .. . ... ... : ... .. . ... ... : 6-# 08 8 G01 : ... .. . ... ... : ... .. . ... ... ... ...
ROW 0E : ... .. . ... ... : ... .. . ... ... : ... .. . ... ... : ... .. . ... : ... .. . ... ... : ... .. . ... ... ... ...
ROW 0F : ... .. . ... ... : ... .. . ... ... : ... .. . ... ... : ... .. . ... : ... .. . ... ... : ... .. . ... ... ... ...
ROW 10 : ... .. . ... ... : ... .. . ... ... : ... .. . ... ... : 6-# 08 A ... : ... .. . ... ... : ... .. . ... ... ... ...
ROW 11 : ... .. . ... ... : ... .. . ... ... : ... .. . ... ... : ... .. . ... : ... .. . ... ... : ... .. . ... ... ... ...
ROW 12 : ... .. . ... ... : ... .. . ... ... : ... .. . ... ... : ... .. . ... : ... .. . ... ... : ... .. . ... ... ... ...
ROW 13 : ... .. . ... ... : ... .. . ... ... : ... .. . ... ... : ... .. . ... : ... .. . ... ... : ... .. . ... ... ... ...
ROW 14 : ... .. . ... ... : ... .. . ... ... : ... .. . ... ... : D-# 05 6 ... : ... .. . ... ... : ... .. . ... ... ... ...
ROW 15 : ... .. . ... ... : ... .. . ... ... : ... .. . ... ... : ... .. . ... : ... .. . ... ... : ... .. . ... ... ... ...
ROW 16 : ... .. . ... ... : ... .. . ... ... : ... .. . ... ... : D-# 05 . ... : ... .. . ... ... : ... .. . ... ... ... ...
ROW 17 : ... .. . ... ... : ... .. . ... ... : ... .. . ... ... : ... .. . ... : ... .. . ... ... : ... .. . ... ... ... ...
ROW 18 : ... .. . ... ... : ... .. . ... ... : ... .. . ... ... : 6-# 08 A ... : ... .. . ... ... : ... .. . ... ... ... ...
ROW 19 : ... .. . ... ... : ... .. . ... ... : ... .. . ... ... : ... .. . ... : ... .. . ... ... : ... .. . ... ... ... ...
ROW 1A : ... .. . ... ... : ... .. . ... ... : ... .. . ... ... : ... .. . ... : ... .. . ... ... : ... .. . ... ... ... ...
ROW 1B : ... .. . ... ... : ... .. . ... ... : ... .. . ... ... : ... .. . ... : ... .. . ... ... : ... .. . ... ... ... ...
ROW 1C : ... .. . ... ... : ... .. . ... ... : ... .. . ... ... : D-# 05 6 ... : ... .. . ... ... : ... .. . ... ... ... ...
ROW 1D : ... .. . ... ... : ... .. . ... ... : ... .. . ... ... : ... .. . ... : ... .. . ... ... : ... .. . ... ... ... ...
ROW 1E : ... .. . ... ... : ... .. . ... ... : ... .. . ... ... : D-# 05 . ... : ... .. . ... ... : ... .. . ... ... ... ...
ROW 1F : ... .. . ... ... : ... .. . ... ... : ... .. . ... ... : ... .. . ... : ... .. . ... ... : ... .. . ... ... ... ...
ROW 20 : ... .. . ... ... : ... .. . ... ... : ... .. . ... ... : 6-# 08 A ... : ... .. . ... ... : ... .. . ... ... ... ...
ROW 21 : ... .. . ... ... : ... .. . ... ... : ... .. . ... ... : ... .. . ... : ... .. . ... ... : ... .. . ... ... ... ...
ROW 22 : ... .. . ... ... : ... .. . ... ... : ... .. . ... ... : ... .. . ... : ... .. . ... ... : ... .. . ... ... ... ...
ROW 23 : ... .. . ... ... : ... .. . ... ... : ... .. . ... ... : ... .. . ... : ... .. . ... ... : ... .. . ... ... ... ...
ROW 24 : ... .. . ... ... : ... .. . ... ... : ... .. . ... ... : D-# 05 6 ... : ... .. . ... ... : ... .. . ... ... ... ...
ROW 25 : ... .. . ... ... : ... .. . ... ... : ... .. . ... ... : ... .. . ... : ... .. . ... ... : ... .. . ... ... ... ...
ROW 26 : ... .. . ... ... : ... .. . ... ... : ... .. . ... ... : D-# 05 . ... : ... .. . ... ... : ... .. . ... ... ... ...
ROW 27 : ... .. . ... ... : ... .. . ... ... : ... .. . ... ... : ... .. . ... : ... .. . ... ... : ... .. . ... ... ... ...
ROW 28 : ... .. . ... ... : ... .. . ... ... : ... .. . ... ... : 6-# 08 A ... : ... .. . ... ... : ... .. . ... ... ... ...
ROW 29 : ... .. . ... ... : ... .. . ... ... : ... .. . ... ... : ... .. . ... : ... .. . ... ... : ... .. . ... ... ... ...
ROW 2A : ... .. . ... ... : ... .. . ... ... : ... .. . ... ... : ... .. . ... : ... .. . ... ... : ... .. . ... ... ... ...
ROW 2B : ... .. . ... ... : ... .. . ... ... : ... .. . ... ... : ... .. . ... : ... .. . ... ... : ... .. . ... ... ... ...
ROW 2C : ... .. . ... ... : ... .. . ... ... : ... .. . ... ... : 6-# 08 A ... : ... .. . ... ... : ... .. . ... ... ... ...
ROW 2D : ... .. . ... ... : ... .. . ... ... : ... .. . ... ... : ... .. . ... : ... .. . ... ... : ... .. . ... ... ... ...
ROW 2E : ... .. . ... ... : ... .. . ... ... : ... .. . ... ... : ... .. . ... : ... .. . ... ... : ... .. . ... ... ... ...
ROW 2F : ... .. . ... ... : ... .. . ... ... : ... .. . ... ... : ... .. . ... : ... .. . ... ... : ... .. . ... ... ... ...
ROW 30 : ... .. . ... ... : ... .. . ... ... : ... .. . ... ... : 6-# 08 A ... : ... .. . ... ... : ... .. . ... ... ... ...
ROW 31 : ... .. . ... ... : ... .. . ... ... : ... .. . ... ... : ... .. . ... : ... .. . ... ... : ... .. . ... ... ... ...
ROW 32 : ... .. . ... ... : ... .. . ... ... : ... .. . ... ... : ... .. . ... : ... .. . ... ... : ... .. . ... ... ... ...
ROW 33 : ... .. . ... ... : ... .. . ... ... : ... .. . ... ... : ... .. . ... : ... .. . ... ... : ... .. . ... ... ... ...
ROW 34 : ... .. . ... ... : ... .. . ... ... : ... .. . ... ... : 6-# 08 8 ... : ... .. . ... ... : ... .. . ... ... ... ...
ROW 35 : ... .. . ... ... : ... .. . ... ... : ... .. . ... ... : ... .. . ... : ... .. . ... ... : ... .. . ... ... ... ...
ROW 36 : ... .. . ... ... : ... .. . ... ... : ... .. . ... ... : D-# 05 5 ... : ... .. . ... ... : ... .. . ... ... ... ...
ROW 37 : ... .. . ... ... : ... .. . ... ... : ... .. . ... ... : ... .. . ... : ... .. . ... ... : ... .. . ... ... ... ...
ROW 38 : ... .. . ... ... : ... .. . ... ... : ... .. . ... ... : 6-# 08 6 ... : ... .. . ... ... : ... .. . ... ... ... ...
ROW 39 : ... .. . ... ... : ... .. . ... ... : ... .. . ... ... : ... .. . ... : ... .. . ... ... : ... .. . ... ... ... ...
ROW 3A : ... .. . ... ... : ... .. . ... ... : ... .. . ... ... : D-# 05 5 ... : ... .. . ... ... : ... .. . ... ... ... ...
ROW 3B : ... .. . ... ... : ... .. . ... ... : ... .. . ... ... : ... .. . ... : ... .. . ... ... : ... .. . ... ... ... ...
ROW 3C : ... .. . ... ... : ... .. . ... ... : ... .. . ... ... : 6-# 08 4 ... : ... .. . ... ... : ... .. . ... ... ... ...
ROW 3D : ... .. . ... ... : ... .. . ... ... : ... .. . ... ... : ... .. . ... : ... .. . ... ... : ... .. . ... ... ... ...
ROW 3E : ... .. . ... ... : ... .. . ... ... : ... .. . ... ... : D-# 05 5 ... : ... .. . ... ... : ... .. . ... ... ... ...
ROW 3F : ... .. . ... ... : ... .. . ... ... : ... .. . ... ... : ... .. . ... : ... .. . D00 ... : ... .. . ... ... ... ...
ROW 40 : ... .. . ... ... : ... .. . ... ... : ... .. . ... ... : ... .. . ... : ... .. . ... ... : ... .. . ... ... ... ...
ROW 41 : ... .. . ... ... : ... .. . ... ... : ... .. . ... ... : ... .. . ... : ... .. . ... ... : ... .. . ... ... ... ...
ROW 42 : ... .. . ... ... : ... .. . ... ... : ... .. . ... ... : ... .. . ... : ... .. . ... ... : ... .. . ... ... ... ...
ROW 43 : ... .. . ... ... : ... .. . ... ... : ... .. . ... ... : ... .. . ... : ... .. . ... ... : ... .. . ... ... ... ...
ROW 44 : ... .. . ... ... : ... .. . ... ... : ... .. . ... ... : ... .. . ... : ... .. . ... ... : ... .. . ... ... ... ...
ROW 45 : ... .. . ... ... : ... .. . ... ... : ... .. . ... ... : ... .. . ... : ... .. . ... ... : ... .. . ... ... ... ...
ROW 46 : ... .. . ... ... : ... .. . ... ... : ... .. . ... ... : ... .. . ... : ... .. . ... ... : ... .. . ... ... ... ...
ROW 47 : ... .. . ... ... : ... .. . ... ... : ... .. . ... ... : ... .. . ... : ... .. . ... ... : ... .. . ... ... ... ...
ROW 48 : ... .. . ... ... : ... .. . ... ... : ... .. . ... ... : ... .. . ... : ... .. . ... ... : ... .. . ... ... ... ...
ROW 49 : ... .. . ... ... : ... .. . ... ... : ... .. . ... ... : ... .. . ... : ... .. . ... ... : ... .. . ... ... ... ...
ROW 4A : ... .. . ... ... : ... .. . ... ... : ... .. . ... ... : ... .. . ... : ... .. . ... ... : ... .. . ... ... ... ...
ROW 4B : ... .. . ... ... : ... .. . ... ... : ... .. . ... ... : ... .. . ... : ... .. . ... ... : ... .. . ... ... ... ...
ROW 4C : ... .. . ... ... : ... .. . ... ... : ... .. . ... ... : ... .. . ... : ... .. . ... ... : ... .. . ... ... ... ...
ROW 4D : ... .. . ... ... : ... .. . ... ... : ... .. . ... ... : ... .. . ... : ... .. . ... ... : ... .. . ... ... ... ...
ROW 4E : ... .. . ... ... : ... .. . ... ... : ... .. . ... ... : ... .. . ... : ... .. . ... ... : ... .. . ... ... ... ...
ROW 4F : ... .. . ... ... : ... .. . ... ... : ... .. . ... ... : ... .. . ... : ... .. . ... ... : ... .. . ... ... ... ...
ROW 50 : ... .. . ... ... : ... .. . ... ... : G-3 03 . 236 ... : ... .. . ... : ... .. . ... ... : ... .. . ... ... ... ...
ROW 51 : ... .. . ... ... : ... .. . ... ... : ... .. . ... ... : ... .. . ... : ... .. . ... ... : ... .. . ... ... ... ...
ROW 52 : ... .. . ... ... : ... .. . ... ... : ... .. . ... ... : ... .. . ... : ... .. . ... ... : ... .. . ... ... ... ...
ROW 53 : ... .. . ... ... : ... .. . ... ... : ... .. . ... ... : ... .. . ... : ... .. . ... ... : ... .. . ... ... ... ...
ROW 54 : ... .. . ... ... : ... .. . ... ... : G-3 03 . ... ... : ... .. . ... : ... .. . ... ... : ... .. . ... ... ... ...
ROW 55 : ... .. . ... ... : ... .. . ... ... : ... .. . ... ... : ... .. . ... : ... .. . ... ... : ... .. . ... ... ... ...
ROW 56 : ... .. . ... ... : ... .. . ... ... : G-3 03 . ... ... : ... .. . ... : ... .. . ... ... : ... .. . ... ... ... ...
ROW 57 : ... .. . ... ... : ... .. . ... ... : ... .. . ... ... : ... .. . ... : ... .. . ... ... : ... .. . ... ... ... ...
ROW 58 : ... .. . ... ... : ... .. . ... ... : ... .. . ... ... : ... .. . ... : ... .. . ... ... : ... .. . ... ... ... ...
ROW 59 : ... .. . ... ... : ... .. . ... ... : ... .. . ... ... : ... .. . ... : ... .. . ... ... : ... .. . ... ... ... ...
ROW 5A : ... .. . ... ... : ... .. . ... ... : ... .. . ... ... : ... .. . ... : ... .. . ... ... : ... .. . ... ... ... ...
ROW 5B : ... .. . ... ... : ... .. . ... ... : ... .. . ... ... : ... .. . ... : ... .. . ... ... : ... .. . ... ... ... ...
ROW 5C : ... .. . ... ... : ... .. . ... ... : ... .. . ... ... : ... .. . ... : ... .. . ... ... : ... .. . ... ... ... ...
ROW 5D : ... .. . ... ... : ... .. . ... ... : ... .. . ... ... : ... .. . ... : ... .. . ... ... : ... .. . ... ... ... ...
ROW 5E : ... .. . ... ... : ... .. . ... ... : ... .. . ... ... : ... .. . ... : ... .. . ... ... : ... .. . ... ... ... ...
ROW 5F : ... .. . ... ... : ... .. . ... ... : ... .. . ... ... : ... .. . ... : ... .. . ... ... : ... .. . ... ... ... ...
ROW 60 : ... .. . ... ... : ... .. . ... ... : ... .. . ... ... : ... .. . ... : ... .. . ... ... : ... .. . ... ... ... ...
ROW 61 : ... .. . ... ... : ... .. . ... ... : ... .. . ... ... : ... .. . ... : ... .. . ... ... : ... .. . ... ... ... ...
ROW 62 : ... .. . ... ... : ... .. . ... ... : ... .. . ... ... : ... .. . ... : ... .. . ... ... : ... .. . ... ... ... ...
ROW 63 : ... .. . ... ... : ... .. . ... ... : ... .. . ... ... : ... .. . ... : ... .. . ... ... : ... .. . ... ... ... ...
ROW 64 : ... .. . ... ... : ... .. . ... ... : ... .. . ... ... : ... .. . ... : ... .. . ... ... : ... .. . ... ... ... ...
ROW 65 : ... .. . ... ... : ... .. . ... ... : ... .. . ... ... : ... .. . ... : ... .. . ... ... : ... .. . ... ... ... ...
ROW 66 : ... .. . ... ... : ... .. . ... ... : ... .. . ... ... : ... .. . ... : ... .. . ... ... : ... .. . ... ... ... ...
ROW 67 : ... .. . ... ... : ... .. . ... ... : ... .. . ... ... : ... .. . ... : ... .. . ... ... : ... .. . ... ... ... ...
ROW 68 : ... .. . ... ... : ... .. . ... ... : ... .. . ... ... : ... .. . ... : ... .. . ... ... : ... .. . ... ... ... ...
ROW 69 : ... .. . ... ... : ... .. . ... ... : ... .. . ... ... : ... .. . ... : ... .. . ... ... : ... .. . ... ... ... ...
ROW 6A : ... .. . ... ... : ... .. . ... ... : ... .. . ... ... : ... .. . ... : ... .. . ... ... : ... .. . ... ... ... ...
ROW 6B : ... .. . ... ... : ... .. . ... ... : ... .. . ... ... : ... .. . ... : ... .. . ... ... : ... .. . ... ... ... ...
ROW 6C : ... .. . ... ... : ... .. . ... ... : ... .. . ... ... : ... .. . ... : ... .. . ... ... : ... .. . ... ... ... ...
ROW 6D : ... .. . ... ... : ... .. . ... ... : ... .. . ... ... : ... .. . ... : ... .. . ... ... : ... .. . ... ... ... ...
ROW 6E : ... .. . ... ... : ... .. . ... ... : ... .. . ... ... : ... .. . ... : ... .. . ... ... : ... .. . ... ... ... ...
ROW 6F : ... .. . ... ... : ... .. . ... ... : ... .. . ... ... : ... .. . ... : ... .. . ... ... : ... .. . ... ... ... ...
ROW 70 : ... .. . ... ... : ... .. . ... ... : ... .. . ... ... : ... .. . ... : ... .. . ... ... : ... .. . ... ... ... ...
ROW 71 : ... .. . ... ... : ... .. . ... ... : ... .. . ... ... : ... .. . ... : ... .. . ... ... : ... .. . ... ... ... ...
ROW 72 : ... .. . ... ... : ... .. . ... ... : ... .. . ... ... : ... .. . ... : ... .. . ... ... : ... .. . ... ... ... ...
ROW 73 : ... .. . ... ... : ... .. . ... ... : ... .. . ... ... : ... .. . ... : ... .. . ... ... : ... .. . ... ... ... ...
ROW 74 : ... .. . ... ... : ... .. . ... ... : ... .. . ... ... : ... .. . ... : ... .. . ... ... : ... .. . ... ... ... ...
ROW 75 : ... .. . ... ... : ... .. . ... ... : ... .. . ... ... : ... .. . ... : ... .. . ... ... : ... .. . ... ... ... ...
ROW 76 : ... .. . ... ... : ... .. . ... ... : ... .. . ... ... : ... .. . ... : ... .. . ... ... : ... .. . ... ... ... ...
ROW 77 : ... .. . ... ... : ... .. . ... ... : ... .. . ... ... : ... .. . ... : ... .. . ... ... : ... .. . ... ... ... ...
ROW 78 : ... .. . ... ... : ... .. . ... ... : ... .. . ... ... : ... .. . ... : ... .. . ... ... : ... .. . ... ... ... ...
ROW 79 : ... .. . ... ... : ... .. . ... ... : ... .. . ... ... : ... .. . ... : ... .. . ... ... : ... .. . ... ... ... ...
ROW 7A : ... .. . ... ... : ... .. . ... ... : ... .. . ... ... : ... .. . ... : ... .. . ... ... : ... .. . ... ... ... ...
ROW 7B : ... .. . ... ... : ... .. . ... ... : ... .. . ... ... : ... .. . ... : ... .. . ... ... : ... .. . ... ... ... ...
ROW 7C : ... .. . ... ... : ... .. . ... ... : ... .. . ... ... : ... .. . ... : ... .. . ... ... : ... .. . ... ... ... ...
ROW 7D : ... .. . ... ... : ... .. . ... ... : ... .. . ... ... : ... .. . ... : ... .. . ... ... : ... .. . ... ... ... ...
ROW 7E : ... .. . ... ... : ... .. . ... ... : ... .. . ... ... : ... .. . ... : ... .. . ... ... : ... .. . ... ... ... ...
ROW 7F : ... .. . ... ... : ... .. . ... ... : ... .. . ... ... : ... .. . ... : ... .. . ... ... : ... .. . ... ... ... ...
ROW 80 : ... .. . ... ... : ... .. . ... ... : ... .. . ... ... : ... .. . ... : ... .. . ... ... : ... .. . ... ... ... ...
ROW 81 : ... .. . ... ... : ... .. . ... ... : ... .. . ... ... : ... .. . ... : ... .. . ... ... : ... .. . ... ... ... ...
ROW 82 : ... .. . ... ... : ... .. . ... ... : ... .. . ... ... : ... .. . ... : ... .. . ... ... : ... .. . ... ... ... ...
ROW 83 : ... .. . ... ... : ... .. . ... ... : ... .. . ... ... : ... .. . ... : ... .. . ... ... : ... .. . ... ... ... ...
ROW 84 : ... .. . ... ... : ... .. . ... ... : ... .. . ... ... : ... .. . ... : ... .. . ... ... : ... .. . ... ... ... ...
ROW 85 : ... .. . ... ... : ... .. . ... ... : ... .. . ... ... : ... .. . ... : ... .. . ... ... : ... .. . ... ... ... ...
ROW 86 : ... .. . ... ... : ... .. . ... ... : ... .. . ... ... : ... .. . ... : ... .. . ... ... : ... .. . ... ... ... ...
ROW 87 : ... .. . ... ... : ... .. . ... ... : ... .. . ... ... : ... .. . ... : ... .. . ... ... : ... .. . ... ... ... ...
ROW 88 : ... .. . ... ... : ... .. . ... ... : ... .. . ... ... : ... .. . ... : ... .. . ... ... : ... .. . ... ... ... ...
ROW 89 : ... .. . ... ... : ... .. . ... ... : ... .. . ... ... : ... .. . ... : ... .. . ... ... : ... .. . ... ... ... ...
ROW 8A : ... .. . ... ... : ... .. . ... ... : ... .. . ... ... : ... .. . ... : ... .. . ... ... : ... .. . ... ... ... ...
ROW 8B : ... .. . ... ... : ... .. . ... ... : ... .. . ... ... : ... .. . ... : ... .. . ... ... : ... .. . ... ... ... ...
ROW 8C : ... .. . ... ... : ... .. . ... ... : ... .. . ... ... : ... .. . ... : ... .. . ... ... : ... .. . ... ... ... ...
ROW 8D : ... .. . ... ... : ... .. . ... ... : ... .. . ... ... : ... .. . ... : ... .. . ... ... : ... .. . ... ... ... ...
ROW 8E : ... .. . ... ... : ... .. . ... ... : ... .. . ... ... : ... .. . ... : ... .. . ... ... : ... .. . ... ... ... ...
ROW 8F : ... .. . ... ... : ... .. . ... ... : ... .. . ... ... : ... .. . ... : ... .. . ... ... : ... .. . ... ... ... ...
ROW 90 : ... .. . ... ... : ... .. . ... ... : ... .. . ... ... : ... .. . ... : ... .. . ... ... : ... .. . ... ... ... ...
ROW 91 : ... .. . ... ... : ... .. . ... ... : ... .. . ... ... : ... .. . ... : ... .. . ... ... : ... .. . ... ... ... ...
ROW 92 : ... .. . ... ... : ... .. . ... ... : ... .. . ... ... : ... .. . ... : ... .. . ... ... : ... .. . ... ... ... ...
ROW 93 : ... .. . ... ... : ... .. . ... ... : ... .. . ... ... : ... .. . ... : ... .. . ... ... : ... .. . ... ... ... ...
ROW 94 : ... .. . ... ... : ... .. . ... ... : ... .. . ... ... : ... .. . ... : ... .. . ... ... : ... .. . ... ... ... ...
ROW 95 : ... .. . ... ... : ... .. . ... ... : ... .. . ... ... : ... .. . ... : ... .. . ... ... : ... .. . ... ... ... ...
ROW 96 : ... .. . ... ... : ... .. . ... ... : ... .. . ... ... : ... .. . ... : ... .. . ... ... : ... .. . ... ... ... ...
ROW 97 : ... .. . ... ... : ... .. . ... ... : ... .. . ... ... : ... .. . ... : ... .. . ... ... : ... .. . ... ... ... ...
ROW 98 : ... .. . ... ... : ... .. . ... ... : ... .. . ... ... : ... .. . ... : ... .. . ... ... : ... .. . ... ... ... ...
ROW 99 : ... .. . ... ... : ... .. . ... ... : ... .. . ... ... : ... .. . ... : ... .. . ... ... : ... .. . ... ... ... ...
ROW 9A : ... .. . ... ... : ... .. . ... ... : ... .. . ... ... : ... .. . ... : ... .. . ... ... : ... .. . ... ... ... ...
ROW 9B : ... .. . ... ... : ... .. . ... ... : ... .. . ... ... : ... .. . ... : ... .. . ... ... : ... .. . ... ... ... ...
ROW 9C : ... .. . ... ... : ... .. . ... ... : ... .. . ... ... : ... .. . ... : ... .. . ... ... : ... .. . ... ... ... ...
ROW 9D : ... .. . ... ... : ... .. . ... ... : ... .. . ... ... : ... .. . ... : ... .. . ... ... : ... .. . ... ... ... ...
ROW 9E : ... .. . ... ... : ... .. . ... ... : ... .. . ... ... : ... .. . ... : ... .. . ... ... : ... .. . ... ... ... ...
ROW 9F : ... .. . ... ... : ... .. . ... ... : ... .. . ... ... : ... .. . ... : ... .. . ... ... : ... .. . ... ... ... ...
ROW A0 : ... .. . ... ... : ... .. . ... ... : ... .. . ... ... : ... .. . ... : ... .. . ... ... : ... .. . ... ... ... ...
ROW A1 : ... .. . ... ... : ... .. . ... ... : ... .. . ... ... : ... .. . ... : ... .. . ... ... : ... .. . ... ... ... ...
ROW A2 : ... .. . ... ... : ... .. . ... ... : ... .. . ... ... : ... .. . ... : ... .. . ... ... : ... .. . ... ... ... ...
ROW A3 : ... .. . ... ... : ... .. . ... ... : ... .. . ... ... : ... .. . ... : ... .. . ... ... : ... .. . ... ... ... ...
ROW A4 : ... .. . ... ... : ... .. . ... ... : ... .. . ... ... : ... .. . ... : ... .. . ... ... : ... .. . ... ... ... ...
ROW A5 : ... .. . ... ... : ... .. . ... ... : ... .. . ... ... : ... .. . ... : ... .. . ... ... : ... .. . ... ... ... ...
ROW A6 : ... .. . ... ... : ... .. . ... ... : ... .. . ... ... : ... .. . ... : ... .. . ... ... : ... .. . ... ... ... ...
ROW A7 : ... .. . ... ... : ... .. . ... ... : ... .. . ... ... : ... .. . ... : ... .. . ... ... : ... .. . ... ... ... ...
ROW A8 : ... .. . ... ... : ... .. . ... ... : ... .. . ... ... : ... .. . ... : ... .. . ... ... : ... .. . ... ... ... ...
ROW A9 : ... .. . ... ... : ... .. . ... ... : ... .. . ... ... : ... .. . ... : ... .. . ... ... : ... .. . ... ... ... ...
ROW AA : ... .. . ... ... : ... .. . ... ... : ... .. . ... ... : ... .. . ... : ... .. . ... ... : ... .. . ... ... ... ...
ROW AB : ... .. . ... ... : ... .. . ... ... : ... .. . ... ... : ... .. . ... : ... .. . ... ... : ... .. . ... ... ... ...
ROW AC : ... .. . ... ... : ... .. . ... ... : ... .. . ... ... : ... .. . ... : ... .. . ... ... : ... .. . ... ... ... ...
ROW AD : ... .. . ... ... : ... .. . ... ... : ... .. . ... ... : ... .. . ... : ... .. . ... ... : ... .. . ... ... ... ...
ROW AE : ... .. . ... ... : ... .. . ... ... : ... .. . ... ... : ... .. . ... : ... .. . ... ... : ... .. . ... ... ... ...
ROW AF : ... .. . ... ... : ... .. . ... ... : ... .. . ... ... : ... .. . ... : ... .. . ... ... : ... .. . ... ... ... ...
ROW B0 : ... .. . ... ... : ... .. . ... ... : ... .. . ... ... : ... .. . ... : ... .. . ... ... : ... .. . ... ... ... ...
ROW B1 : ... .. . ... ... : ... .. . ... ... : ... .. . ... ... : ... .. . ... : ... .. . ... ... : ... .. . ... ... ... ...
ROW B2 : ... .. . ... ... : ... .. . ... ... : ... .. . ... ... : ... .. . ... : ... .. . ... ... : ... .. . ... ... ... ...
ROW B3 : ... .. . ... ... : ... .. . ... ... : ... .. . ... ... : ... .. . ... : ... .. . ... ... : ... .. . ... ... ... ...
ROW B4 : ... .. . ... ... : ... .. . ... ... : ... .. . ... ... : ... .. . ... : ... .. . ... ... : ... .. . ... ... ... ...
ROW B5 : ... .. . ... ... : ... .. . ... ... : ... .. . ... ... : ... .. . ... : ... .. . ... ... : ... .. . ... ... ... ...
ROW B6 : ... .. . ... ... : ... .. . ... ... : ... .. . ... ... : ... .. . ... : ... .. . ... ... : ... .. . ... ... ... ...
ROW B7 : ... .. . ... ... : ... .. . ... ... : ... .. . ... ... : ... .. . ... : ... .. . ... ... : ... .. . ... ... ... ...
ROW B8 : ... .. . ... ... : ... .. . ... ... : ... .. . ... ... : ... .. . ... : ... .. . ... ... : ... .. . ... ... ... ...
ROW B9 : ... .. . ... ... : ... .. . ... ... : ... .. . ... ... : ... .. . ... : ... .. . ... ... : ... .. . ... ... ... ...
ROW BA : ... .. . ... ... : ... .. . ... ... : ... .. . ... ... : ... .. . ... : ... .. . ... ... : ... .. . ... ... ... ...
ROW BB : ... .. . ... ... : ... .. . ... ... : ... .. . ... ... : ... .. . ... : ... .. . ... ... : ... .. . ... ... ... ...
ROW BC : ... .. . ... ... : ... .. . ... ... : ... .. . ... ... : ... .. . ... : ... .. . ... ... : ... .. . ... ... ... ...
ROW BD : ... .. . ... ... : ... .. . ... ... : ... .. . ... ... : ... .. . ... : ... .. . ... ... : ... .. . ... ... ... ...
ROW BE : ... .. . ... ... : ... .. . ... ... : ... .. . ... ... : ... .. . ... : ... .. . ... ... : ... .. . ... ... ... ...
ROW BF : ... .. . ... ... : ... .. . ... ... : ... .. . ... ... : ... .. . ... : ... .. . ... ... : ... .. . ... ... ... ...
ROW C0 : ... .. . ... ... : ... .. . ... ... : ... .. . ... ... : ... .. . ... : ... .. . ... ... : ... .. . ... ... ... ...
ROW C1 : ... .. . ... ... : ... .. . ... ... : ... .. . ... ... : ... .. . ... : ... .. . ... ... : ... .. . ... ... ... ...
ROW C2 : ... .. . ... ... : ... .. . ... ... : ... .. . ... ... : ... .. . ... : ... .. . ... ... : ... .. . ... ... ... ...
ROW C3 : ... .. . ... ... : ... .. . ... ... : ... .. . ... ... : ... .. . ... : ... .. . ... ... : ... .. . ... ... ... ...
ROW C4 : ... .. . ... ... : ... .. . ... ... : ... .. . ... ... : ... .. . ... : ... .. . ... ... : ... .. . ... ... ... ...
ROW C5 : ... .. . ... ... : ... .. . ... ... : ... .. . ... ... : ... .. . ... : ... .. . ... ... : ... .. . ... ... ... ...
ROW C6 : ... .. . ... ... : ... .. . ... ... : ... .. . ... ... : ... .. . ... : ... .. . ... ... : ... .. . ... ... ... ...
ROW C7 : ... .. . ... ... : ... .. . ... ... : ... .. . ... ... : ... .. . ... : ... .. . ... ... : ... .. . ... ... ... ...
ROW C8 : ... .. . ... ... : ... .. . ... ... : ... .. . ... ... : ... .. . ... : ... .. . ... ... : ... .. . ... ... ... ...
ROW C9 : ... .. . ... ... : ... .. . ... ... : ... .. . ... ... : ... .. . ... : ... .. . ... ... : ... .. . ... ... ... ...
ROW CA : ... .. . ... ... : ... .. . ... ... : ... .. . ... ... : ... .. . ... : ... .. . ... ... : ... .. . ... ... ... ...
ROW CB : ... .. . ... ... : ... .. . ... ... : ... .. . ... ... : ... .. . ... : ... .. . ... ... : ... .. . ... ... ... ...
ROW CC : ... .. . ... ... : ... .. . ... ... : ... .. . ... ... : ... .. . ... : ... .. . ... ... : ... .. . ... ... ... ...
ROW CD : ... .. . ... ... : ... .. . ... ... : ... .. . ... ... : ... .. . ... : ... .. . ... ... : ... .. . ... ... ... ...
ROW CE : ... .. . ... ... : ... .. . ... ... : ... .. . ... ... : ... .. . ... : ... .. . ... ... : ... .. . ... ... ... ...
ROW CF : ... .. . ... ... : ... .. . ... ... : ... .. . ... ... : ... .. . ... : ... .. . ... ... : ... .. . ... ... ... ...
ROW D0 : ... .. . ... ... : ... .. . ... ... : ... .. . ... ... : ... .. . ... : ... .. . ... ... : ... .. . ... ... ... ...
ROW D1 : ... .. . ... ... : ... .. . ... ... : ... .. . ... ... : ... .. . ... : ... .. . ... ... : ... .. . ... ... ... ...
ROW D2 : ... .. . ... ... : ... .. . ... ... : ... .. . ... ... : ... .. . ... : ... .. . ... ... : ... .. . ... ... ... ...
ROW D3 : ... .. . ... ... : ... .. . ... ... : ... .. . ... ... : ... .. . ... : ... .. . ... ... : ... .. . ... ... ... ...
ROW D4 : ... .. . ... ... : ... .. . ... ... : ... .. . ... ... : ... .. . ... : ... .. . ... ... : ... .. . ... ... ... ...
ROW D5 : ... .. . ... ... : ... .. . ... ... : ... .. . ... ... : ... .. . ... : ... .. . ... ... : ... .. . ... ... ... ...
ROW D6 : ... .. . ... ... : ... .. . ... ... : ... .. . ... ... : ... .. . ... : ... .. . ... ... : ... .. . ... ... ... ...
ROW D7 : ... .. . ... ... : ... .. . ... ... : ... .. . ... ... : ... .. . ... : ... .. . ... ... : ... .. . ... ... ... ...
ROW D8 : ... .. . ... ... : ... .. . ... ... : ... .. . ... ... : ... .. . ... : ... .. . ... ... : ... .. . ... ... ... ...
ROW D9 : ... .. . ... ... : ... .. . ... ... : ... .. . ... ... : ... .. . ... : ... .. . ... ... : ... .. . ... ... ... ...
ROW DA : ... .. . ... ... : ... .. . ... ... : ... .. . ... ... : ... .. . ... : ... .. . ... ... : ... .. . ... ... ... ...
ROW DB : ... .. . ... ... : ... .. . ... ... : ... .. . ... ... : ... .. . ... : ... .. . ... ... : ... .. . ... ... ... ...
ROW DC : ... .. . ... ... : ... .. . ... ... : ... .. . ... ... : ... .. . ... : ... .. . ... ... : ... .. . ... ... ... ...
ROW DD : ... .. . ... ... : ... .. . ... ... : ... .. . ... ... : ... .. . ... : ... .. . ... ... : ... .. . ... ... ... ...
ROW DE : ... .. . ... ... : ... .. . ... ... : ... .. . ... ... : ... .. . ... : ... .. . ... ... : ... .. . ... ... ... ...
ROW DF : ... .. . ... ... : ... .. . ... ... : ... .. . ... ... : ... .. . ... : ... .. . ... ... : ... .. . ... ... ... ...
ROW E0 : ... .. . ... ... : ... .. . ... ... : ... .. . ... ... : ... .. . ... : ... .. . ... ... : ... .. . ... ... ... ...
ROW E1 : ... .. . ... ... : ... .. . ... ... : ... .. . ... ... : ... .. . ... : ... .. . ... ... : ... .. . ... ... ... ...
ROW E2 : ... .. . ... ... : ... .. . ... ... : ... .. . ... ... : ... .. . ... : ... .. . ... ... : ... .. . ... ... ... ...
ROW E3 : ... .. . ... ... : ... .. . ... ... : ... .. . ... ... : ... .. . ... : ... .. . ... ... : ... .. . ... ... ... ...
ROW E4 : ... .. . ... ... : ... .. . ... ... : ... .. . ... ... : ... .. . ... : ... .. . ... ... : ... .. . ... ... ... ...
ROW E5 : ... .. . ... ... : ... .. . ... ... : ... .. . ... ... : ... .. . ... : ... .. . ... ... : ... .. . ... ... ... ...
ROW E6 : ... .. . ... ... : ... .. . ... ... : ... .. . ... ... : ... .. . ... : ... .. . ... ... : ... .. . ... ... ... ...
ROW E7 : ... .. . ... ... : ... .. . ... ... : ... .. . ... ... : ... .. . ... : ... .. . ... ... : ... .. . ... ... ... ...
ROW E8 : ... .. . ... ... : ... .. . ... ... : ... .. . ... ... : ... .. . ... : ... .. . ... ... : ... .. . ... ... ... ...
ROW E9 : ... .. . ... ... : ... .. . ... ... : ... .. . ... ... : ... .. . ... : ... .. . ... ... : ... .. . ... ... ... ...
ROW EA : ... .. . ... ... : ... .. . ... ... : ... .. . ... ... : ... .. . ... : ... .. . ... ... : ... .. . ... ... ... ...
ROW EB : ... .. . ... ... : ... .. . ... ... : ... .. . ... ... : ... .. . ... : ... .. . ... ... : ... .. . ... ... ... ...
ROW EC : ... .. . ... ... : ... .. . ... ... : ... .. . ... ... : ... .. . ... : ... .. . ... ... : ... .. . ... ... ... ...
ROW ED : ... .. . ... ... : ... .. . ... ... : ... .. . ... ... : ... .. . ... : ... .. . ... ... : ... .. . ... ... ... ...
ROW EE : ... .. . ... ... : ... .. . ... ... : ... .. . ... ... : ... .. . ... : ... .. . ... ... : ... .. . ... ... ... ...
ROW EF : ... .. . ... ... : ... .. . ... ... : ... .. . ... ... : ... .. . ... : ... .. . ... ... : ... .. . ... ... ... ...
ROW F0 : ... .. . ... ... : ... .. . ... ... : ... .. . ... ... : ... .. . ... : ... .. . ... ... : ... .. . ... ... ... ...
ROW F1 : ... .. . ... ... : ... .. . ... ... : ... .. . ... ... : ... .. . ... : ... .. . ... ... : ... .. . ... ... ... ...
ROW F2 : ... .. . ... ... : ... .. . ... ... : ... .. . ... ... : ... .. . ... : ... .. . ... ... : ... .. . ... ... ... ...
ROW F3 : ... .. . ... ... : ... .. . ... ... : ... .. . ... ... : ... .. . ... : ... .. . ... ... : ... .. . ... ... ... ...
ROW F4 : ... .. . ... ... : ... .. . ... ... : ... .. . ... ... : ... .. . ... : ... .. . ... ... : ... .. . ... ... ... ...
ROW F5 : ... .. . ... ... : ... .. . ... ... : ... .. . ... ... : ... .. . ... : ... .. . ... ... : ... .. . ... ... ... ...
ROW F6 : ... .. . ... ... : ... .. . ... ... : ... .. . ... ... : ... .. . ... : ... .. . ... ... : ... .. . ... ... ... ...
ROW F7 : ... .. . ... ... : ... .. . ... ... : ... .. . ... ... : ... .. . ... : ... .. . ... ... : ... .. . ... ... ... ...
ROW F8 : ... .. . ... ... : ... .. . ... ... : ... .. . ... ... : ... .. . ... : ... .. . ... ... : ... .. . ... ... ... ...
ROW F9 : ... .. . ... ... : ... .. . ... ... : ... .. . ... ... : ... .. . ... : ... .. . ... ... : ... .. . ... ... ... ...
ROW FA : ... .. . ... ... : ... .. . ... ... : ... .. . ... ... : ... .. . ... : ... .. . ... ... : ... .. . ... ... ... ...
ROW FB : ... .. . ... ... : ... .. . ... ... : ... .. . ... ... : ... .. . ... : ... .. . ... ... : ... .. . ... ... ... ...
ROW FC : ... .. . ... ... : ... .. . ... ... : ... .. . ... ... : ... .. . ... : ... .. . ... ... : ... .. . ... ... ... ...
ROW FD : ... .. . ... ... : ... .. . ... ... : ... .. . ... ... : ... .. . ... : ... .. . ... ... : ... .. . ... ... ... ...
ROW FE : ... .. . ... ... : ... .. . ... ... : ... .. . ... ... : ... .. . ... : ... .. . ... ... : ... .. . ... ... ... ...
ROW FF : ... .. . ... ... : ... .. . ... ... : ... .. . ... ... : ... .. . ... : ... .. . ... ... : ... .. . ... ... ... ...

PATTERN 17
ROW 00 : E-3 17 5 ... ... : B-2 17 5 G01 ... : E-4 03 . 236 ... : 6-# 08 A ... : E-3 1E . F04 ... : G-4 16 A ... I07 J2D ...
ROW 01 : ... .. . ... ... : ... .. . ... ... : ... .. . ... ... : ... .. . ... : ... .. . ... ... : ... .. 5 G01 ... ... ...
ROW 02 : ... .. . ... ... : ... .. . ... ... : ... .. . ... ... : ... .. . ... : ... .. . ... ... : E-4 16 A ... I06 J09 ...
ROW 03 : ... .. . ... ... : ... .. . ... ... : ... .. . ... ... : ... .. . ... : ... .. . ... ... : G-4 16 5 G01 I07 J2D ...
ROW 04 : ... .. . ... ... : ... .. . ... ... : E-2 11 . 200 ... : ... .. . ... : ... .. . ... ... : B-3 16 A ... I04 J85 ...
ROW 05 : ... .. . ... ... : ... .. . ... ... : ... .. . S03 ... : ... .. . ... : ... .. . ... ... : E-4 16 5 G01 I06 J09 ...
ROW 06 : D-3 17 . ... ... : ... .. . ... ... : E-4 03 . 236 ... : D-# 05 6 ... : ... .. . ... ... : E-4 16 A ... I06 J09 ...
ROW 07 : ... .. . ... ... : ... .. . ... ... : ... .. . ... ... : ... .. . ... : ... .. . ... ... : B-3 16 5 G01 I04 J85 ...
ROW 08 : ... .. . ... ... : ... .. . ... ... : ... .. . ... ... : 6-# 08 A ... : E-3 1E . ... ... : G-4 16 A ... I07 J2D ...
ROW 09 : ... .. . ... ... : ... .. . ... ... : ... .. . ... ... : ... .. . ... : ... .. . ... ... : E-4 16 5 G01 I06 J09 ...
ROW 0A : ... .. . ... ... : ... .. . ... ... : ... .. . ... ... : 6-# 08 9 G02 : ... .. . ... ... : E-4 16 A ... I06 J09 ...
ROW 0B : ... .. . ... ... : ... .. . ... ... : ... .. . ... ... : ... .. . ... : ... .. . ... ... : G-4 16 5 G01 I07 J2D ...
ROW 0C : C-3 17 . ... ... : ... .. . ... ... : E-2 11 . 200 ... : ... .. . ... : ... .. . ... ... : B-3 16 A ... I04 J85 ...
ROW 0D : ... .. . ... ... : ... .. . ... ... : ... .. . S03 ... : 6-# 08 8 G01 : ... .. . ... ... : E-4 16 5 G01 I06 J09 ...
ROW 0E : ... .. . ... ... : ... .. . ... ... : E-3 11 . ... ... : ... .. . ... : ... .. . ... ... : E-4 16 A ... I06 J09 ...
ROW 0F : ... .. . ... ... : ... .. . ... ... : ... .. . ... ... : ... .. . ... : ... .. . ... ... : B-3 16 5 G01 I04 J85 ...
ROW 10 : ... .. . ... ... : ... .. . ... ... : ... .. . S03 ... : 6-# 08 A ... : E-3 1E . ... ... : G-4 16 A ... I07 J2D ...
ROW 11 : ... .. . ... ... : ... .. . ... ... : ... .. . ... ... : ... .. . ... : ... .. . ... ... : E-4 16 5 G01 I06 J09 ...
ROW 12 : ... .. . ... ... : ... .. . ... ... : ... .. . ... ... : ... .. . ... : ... .. . ... ... : E-4 16 A ... I06 J09 ...
ROW 13 : ... .. . ... ... : ... .. . ... ... : ... .. . ... ... : ... .. . ... : ... .. . ... ... : G-4 16 5 G01 I07 J2D ...
ROW 14 : ... .. . ... ... : ... .. . ... ... : E-3 11 . ... ... : D-# 05 6 ... : ... .. . ... ... : B-3 16 A ... I04 J85 ...
ROW 15 : ... .. . ... ... : ... .. . ... ... : ... .. . ... ... : ... .. . ... : ... .. . ... ... : E-4 16 5 G01 I06 J09 ...
ROW 16 : ... .. . ... ... : ... .. . ... ... : ... .. . S03 ... : D-# 05 . ... : ... .. . ... ... : E-4 16 A ... I06 J09 ...
ROW 17 : ... .. . ... ... : ... .. . ... ... : ... .. . ... ... : ... .. . ... : ... .. . ... ... : B-3 16 5 G01 I04 J85 ...
ROW 18 : C-3 17 . ... ... : ... .. . ... ... : B-2 11 . ... ... : 6-# 08 A ... : E-3 1E . ... ... : G-4 16 A ... I07 J2D ...
ROW 19 : ... .. . ... ... : ... .. . ... ... : ... .. . ... ... : ... .. . ... : ... .. . ... ... : E-4 16 5 G01 I06 J09 ...
ROW 1A : ... .. . ... ... : ... .. . ... ... : ... .. . S03 ... : ... .. . ... : ... .. . ... ... : E-4 16 A ... I06 J09 ...
ROW 1B : ... .. . ... ... : ... .. . ... ... : ... .. . ... ... : ... .. . ... : ... .. . ... ... : G-4 16 5 G01 I07 J2D ...
ROW 1C : D-3 17 . ... ... : ... .. . ... ... : G-4 03 . 236 ... : D-# 05 6 ... : ... .. . ... ... : B-3 16 A ... I04 J85 ...
ROW 1D : ... .. . ... ... : ... .. . ... ... : ... .. . ... ... : ... .. . ... : ... .. . ... ... : E-4 16 5 G01 I06 J09 ...
ROW 1E : ... .. . ... ... : ... .. . ... ... : ... .. . ... ... : D-# 05 . ... : ... .. . ... ... : E-4 16 A ... I06 J09 ...
ROW 1F : ... .. . ... ... : ... .. . ... ... : ... .. . ... ... : ... .. . ... : ... .. . ... ... : B-3 16 5 G01 I04 J85 ...
ROW 20 : E-3 17 . ... ... : ... .. . ... ... : E-2 11 . 200 ... : 6-# 08 A ... : D-3 1F . ... ... : G-4 16 A ... I07 J2D ...
ROW 21 : ... .. . ... ... : ... .. . ... ... : ... .. . S03 ... : ... .. . ... : ... .. . ... ... : E-4 16 5 G01 I06 J09 ...
ROW 22 : ... .. . ... ... : ... .. . ... ... : ... .. . ... ... : ... .. . ... : ... .. . ... ... : E-4 16 A ... I06 J09 ...
ROW 23 : ... .. . ... ... : ... .. . ... ... : ... .. . ... ... : ... .. . ... : ... .. . ... ... : G-4 16 5 G01 I07 J2D ...
ROW 24 : ... .. . ... ... : ... .. . ... ... : E-2 11 . ... ... : D-# 05 6 ... : ... .. . ... ... : B-3 16 A ... I04 J85 ...
ROW 25 : ... .. . ... ... : ... .. . ... ... : ... .. . S03 ... : ... .. . ... : ... .. . ... ... : E-4 16 5 G01 I06 J09 ...
ROW 26 : D-3 17 . ... ... : ... .. . ... ... : E-4 03 . 236 ... : D-# 05 . ... : ... .. . ... ... : E-4 16 A ... I06 J09 ...
ROW 27 : ... .. . ... ... : ... .. . ... ... : ... .. . ... ... : ... .. . ... : ... .. . ... ... : B-3 16 5 G01 I04 J85 ...
ROW 28 : ... .. . ... ... : ... .. . ... ... : ... .. . ... ... : 6-# 08 A ... : D-3 1F . ... ... : G-4 16 A ... I07 J2D ...
ROW 29 : ... .. . ... ... : ... .. . ... ... : ... .. . ... ... : ... .. . ... : ... .. . ... ... : E-4 16 5 G01 I06 J09 ...
ROW 2A : ... .. . ... ... : ... .. . ... ... : ... .. . ... ... : ... .. . ... : ... .. . ... ... : E-4 16 A ... I06 J09 ...
ROW 2B : ... .. . ... ... : ... .. . ... ... : ... .. . ... ... : ... .. . ... : ... .. . ... ... : G-4 16 5 G01 I07 J2D ...
ROW 2C : C-3 17 . ... ... : ... .. . ... ... : E-2 11 . 200 ... : 6-# 08 A ... : ... .. . ... ... : B-3 16 A ... I04 J85 ...
ROW 2D : ... .. . ... ... : ... .. . ... ... : ... .. . S03 ... : ... .. . ... : ... .. . ... ... : E-4 16 5 G01 I06 J09 ...
ROW 2E : ... .. . ... ... : ... .. . ... ... : E-3 11 . ... ... : ... .. . ... : ... .. . ... ... : E-4 16 A ... I06 J09 ...
ROW 2F : ... .. . ... ... : ... .. . ... ... : ... .. . ... ... : ... .. . ... : ... .. . ... ... : B-3 16 5 G01 I04 J85 ...
ROW 30 : ... .. . ... ... : D-2 14 5 G01 ... : ... .. . S03 ... : 6-# 08 A ... : D-3 1F . ... ... : G-4 16 A ... I07 J2D ...
ROW 31 : ... .. . ... ... : ... .. . ... ... : ... .. . ... ... : ... .. . ... : ... .. . ... ... : E-4 16 5 G01 I06 J09 ...
ROW 32 : ... .. . ... ... : ... .. . ... ... : ... .. . ... ... : ... .. . ... : ... .. . ... ... : E-4 16 A ... I06 J09 ...
ROW 33 : ... .. . ... ... : ... .. . ... ... : ... .. . ... ... : ... .. . ... : ... .. . ... ... : G-4 16 5 G01 I07 J2D ...
ROW 34 : ... .. . ... ... : ... .. . ... ... : E-3 11 . ... ... : 6-# 08 8 ... : ... .. . ... ... : B-3 16 A ... I04 J85 ...
ROW 35 : ... .. . ... ... : ... .. . ... ... : ... .. . ... ... : ... .. . ... : ... .. . ... ... : E-4 16 5 G01 I06 J09 ...
ROW 36 : ... .. . ... ... : ... .. . ... ... : ... .. . S03 ... : D-# 05 5 ... : ... .. . ... ... : E-4 16 A ... I06 J09 ...
ROW 37 : ... .. . ... ... : ... .. . ... ... : ... .. . ... ... : ... .. . ... : ... .. . ... ... : B-3 16 5 G01 I04 J85 ...
ROW 38 : C-3 17 . ... ... : ... .. . ... ... : B-2 11 . ... ... : 6-# 08 6 ... : D-3 1F . ... ... : G-4 16 A ... I07 J2D ...
ROW 39 : ... .. . ... ... : ... .. . ... ... : ... .. . ... ... : ... .. . ... : ... .. . ... ... : E-4 16 5 G01 I06 J09 ...
ROW 3A : ... .. . ... ... : ... .. . ... ... : ... .. . S03 ... : D-# 05 5 ... : ... .. . ... ... : E-4 16 A ... I06 J09 ...
ROW 3B : ... .. . ... ... : ... .. . ... ... : ... .. . ... ... : ... .. . ... : ... .. . ... ... : G-4 16 5 G01 I07 J2D ...
ROW 3C : D-3 17 . ... ... : ... .. . ... ... : G-4 03 . 236 ... : 6-# 08 4 ... : ... .. . ... ... : B-3 16 A ... I04 J85 ...
ROW 3D : ... .. . ... ... : ... .. . ... ... : ... .. . ... ... : ... .. . ... : ... .. . ... ... : E-4 16 5 G01 I06 J09 ...
ROW 3E : ... .. . ... ... : ... .. . ... ... : ... .. . ... ... : D-# 05 5 ... : ... .. . ... ... : E-4 16 A ... I06 J09 ...
ROW 3F : ... .. . ... ... : ... .. . ... ... : ... .. . ... ... : ... .. . ... : ... .. . D00 ... : B-3 16 5 G01 I04 J85 ...
ROW 40 : ... .. . ... ... : ... .. . ... ... : ... .. . ... ... : ... .. . ... : ... .. . ... ... : ... .. . ... ... ... ...
ROW 41 : ... .. . ... ... : ... .. . ... ... : ... .. . ... ... : ... .. . ... : ... .. . ... ... : ... .. . ... ... ... ...
ROW 42 : ... .. . ... ... : ... .. . ... ... : ... .. . ... ... : ... .. . ... : ... .. . ... ... : ... .. . ... ... ... ...
ROW 43 : ... .. . ... ... : ... .. . ... ... : ... .. . ... ... : ... .. . ... : ... .. . ... ... : ... .. . ... ... ... ...
ROW 44 : ... .. . ... ... : ... .. . ... ... : ... .. . ... ... : ... .. . ... : ... .. . ... ... : ... .. . ... ... ... ...
ROW 45 : ... .. . ... ... : ... .. . ... ... : ... .. . ... ... : ... .. . ... : ... .. . ... ... : ... .. . ... ... ... ...
ROW 46 : ... .. . ... ... : ... .. . ... ... : ... .. . ... ... : ... .. . ... : ... .. . ... ... : ... .. . ... ... ... ...
ROW 47 : ... .. . ... ... : ... .. . ... ... : ... .. . ... ... : ... .. . ... : ... .. . ... ... : ... .. . ... ... ... ...
ROW 48 : ... .. . ... ... : ... .. . ... ... : ... .. . ... ... : ... .. . ... : ... .. . ... ... : ... .. . ... ... ... ...
ROW 49 : ... .. . ... ... : ... .. . ... ... : ... .. . ... ... : ... .. . ... : ... .. . ... ... : ... .. . ... ... ... ...
ROW 4A : ... .. . ... ... : ... .. . ... ... : ... .. . ... ... : ... .. . ... : ... .. . ... ... : ... .. . ... ... ... ...
ROW 4B : ... .. . ... ... : ... .. . ... ... : ... .. . ... ... : ... .. . ... : ... .. . ... ... : ... .. . ... ... ... ...
ROW 4C : ... .. . ... ... : ... .. . ... ... : ... .. . ... ... : ... .. . ... : ... .. . ... ... : ... .. . ... ... ... ...
ROW 4D : ... .. . ... ... : ... .. . ... ... : ... .. . ... ... : ... .. . ... : ... .. . ... ... : ... .. . ... ... ... ...
ROW 4E : ... .. . ... ... : ... .. . ... ... : ... .. . ... ... : ... .. . ... : ... .. . ... ... : ... .. . ... ... ... ...
ROW 4F : ... .. . ... ... : ... .. . ... ... : ... .. . ... ... : ... .. . ... : ... .. . ... ... : ... .. . ... ... ... ...
ROW 50 : ... .. . ... ... : ... .. . ... ... : ... .. . ... ... : ... .. . ... : ... .. . ... ... : ... .. . ... ... ... ...
ROW 51 : ... .. . ... ... : ... .. . ... ... : ... .. . ... ... : ... .. . ... : ... .. . ... ... : ... .. . ... ... ... ...
ROW 52 : ... .. . ... ... : ... .. . ... ... : ... .. . ... ... : ... .. . ... : ... .. . ... ... : ... .. . ... ... ... ...
ROW 53 : ... .. . ... ... : ... .. . ... ... : ... .. . ... ... : ... .. . ... : ... .. . ... ... : ... .. . ... ... ... ...
ROW 54 : ... .. . ... ... : ... .. . ... ... : ... .. . ... ... : ... .. . ... : ... .. . ... ... : ... .. . ... ... ... ...
ROW 55 : ... .. . ... ... : ... .. . ... ... : ... .. . ... ... : ... .. . ... : ... .. . ... ... : ... .. . ... ... ... ...
ROW 56 : ... .. . ... ... : ... .. . ... ... : ... .. . ... ... : ... .. . ... : ... .. . ... ... : ... .. . ... ... ... ...
ROW 57 : ... .. . ... ... : ... .. . ... ... : ... .. . ... ... : ... .. . ... : ... .. . ... ... : ... .. . ... ... ... ...
ROW 58 : ... .. . ... ... : ... .. . ... ... : ... .. . ... ... : ... .. . ... : ... .. . ... ... : ... .. . ... ... ... ...
ROW 59 : ... .. . ... ... : ... .. . ... ... : ... .. . ... ... : ... .. . ... : ... .. . ... ... : ... .. . ... ... ... ...
ROW 5A : ... .. . ... ... : ... .. . ... ... : ... .. . ... ... : ... .. . ... : ... .. . ... ... : ... .. . ... ... ... ...
ROW 5B : ... .. . ... ... : ... .. . ... ... : ... .. . ... ... : ... .. . ... : ... .. . ... ... : ... .. . ... ... ... ...
ROW 5C : ... .. . ... ... : ... .. . ... ... : ... .. . ... ... : ... .. . ... : ... .. . ... ... : ... .. . ... ... ... ...
ROW 5D : ... .. . ... ... : ... .. . ... ... : ... .. . ... ... : ... .. . ... : ... .. . ... ... : ... .. . ... ... ... ...
ROW 5E : ... .. . ... ... : ... .. . ... ... : ... .. . ... ... : ... .. . ... : ... .. . ... ... : ... .. . ... ... ... ...
ROW 5F : ... .. . ... ... : ... .. . ... ... : ... .. . ... ... : ... .. . ... : ... .. . ... ... : ... .. . ... ... ... ...
ROW 60 : ... .. . ... ... : ... .. . ... ... : ... .. . ... ... : ... .. . ... : ... .. . ... ... : ... .. . ... ... ... ...
ROW 61 : ... .. . ... ... : ... .. . ... ... : ... .. . ... ... : ... .. . ... : ... .. . ... ... : ... .. . ... ... ... ...
ROW 62 : ... .. . ... ... : ... .. . ... ... : ... .. . ... ... : ... .. . ... : ... .. . ... ... : ... .. . ... ... ... ...
ROW 63 : ... .. . ... ... : ... .. . ... ... : ... .. . ... ... : ... .. . ... : ... .. . ... ... : ... .. . ... ... ... ...
ROW 64 : ... .. . ... ... : ... .. . ... ... : ... .. . ... ... : ... .. . ... : ... .. . ... ... : ... .. . ... ... ... ...
ROW 65 : ... .. . ... ... : ... .. . ... ... : ... .. . ... ... : ... .. . ... : ... .. . ... ... : ... .. . ... ... ... ...
ROW 66 : ... .. . ... ... : ... .. . ... ... : ... .. . ... ... : ... .. . ... : ... .. . ... ... : ... .. . ... ... ... ...
ROW 67 : ... .. . ... ... : ... .. . ... ... : ... .. . ... ... : ... .. . ... : ... .. . ... ... : ... .. . ... ... ... ...
ROW 68 : ... .. . ... ... : ... .. . ... ... : ... .. . ... ... : ... .. . ... : ... .. . ... ... : ... .. . ... ... ... ...
ROW 69 : ... .. . ... ... : ... .. . ... ... : ... .. . ... ... : ... .. . ... : ... .. . ... ... : ... .. . ... ... ... ...
ROW 6A : ... .. . ... ... : ... .. . ... ... : ... .. . ... ... : ... .. . ... : ... .. . ... ... : ... .. . ... ... ... ...
ROW 6B : ... .. . ... ... : ... .. . ... ... : ... .. . ... ... : ... .. . ... : ... .. . ... ... : ... .. . ... ... ... ...
ROW 6C : ... .. . ... ... : ... .. . ... ... : ... .. . ... ... : ... .. . ... : ... .. . ... ... : ... .. . ... ... ... ...
ROW 6D : ... .. . ... ... : ... .. . ... ... : ... .. . ... ... : ... .. . ... : ... .. . ... ... : ... .. . ... ... ... ...
ROW 6E : ... .. . ... ... : ... .. . ... ... : ... .. . ... ... : ... .. . ... : ... .. . ... ... : ... .. . ... ... ... ...
ROW 6F : ... .. . ... ... : ... .. . ... ... : ... .. . ... ... : ... .. . ... : ... .. . ... ... : ... .. . ... ... ... ...
ROW 70 : ... .. . ... ... : ... .. . ... ... : ... .. . ... ... : ... .. . ... : ... .. . ... ... : ... .. . ... ... ... ...
ROW 71 : ... .. . ... ... : ... .. . ... ... : ... .. . ... ... : ... .. . ... : ... .. . ... ... : ... .. . ... ... ... ...
ROW 72 : ... .. . ... ... : ... .. . ... ... : ... .. . ... ... : ... .. . ... : ... .. . ... ... : ... .. . ... ... ... ...
ROW 73 : ... .. . ... ... : ... .. . ... ... : ... .. . ... ... : ... .. . ... : ... .. . ... ... : ... .. . ... ... ... ...
ROW 74 : ... .. . ... ... : ... .. . ... ... : ... .. . ... ... : ... .. . ... : ... .. . ... ... : ... .. . ... ... ... ...
ROW 75 : ... .. . ... ... : ... .. . ... ... : ... .. . ... ... : ... .. . ... : ... .. . ... ... : ... .. . ... ... ... ...
ROW 76 : ... .. . ... ... : ... .. . ... ... : ... .. . ... ... : ... .. . ... : ... .. . ... ... : ... .. . ... ... ... ...
ROW 77 : ... .. . ... ... : ... .. . ... ... : ... .. . ... ... : ... .. . ... : ... .. . ... ... : ... .. . ... ... ... ...
ROW 78 : ... .. . ... ... : ... .. . ... ... : ... .. . ... ... : ... .. . ... : ... .. . ... ... : ... .. . ... ... ... ...
ROW 79 : ... .. . ... ... : ... .. . ... ... : ... .. . ... ... : ... .. . ... : ... .. . ... ... : ... .. . ... ... ... ...
ROW 7A : ... .. . ... ... : ... .. . ... ... : ... .. . ... ... : ... .. . ... : ... .. . ... ... : ... .. . ... ... ... ...
ROW 7B : ... .. . ... ... : ... .. . ... ... : ... .. . ... ... : ... .. . ... : ... .. . ... ... : ... .. . ... ... ... ...
ROW 7C : ... .. . ... ... : ... .. . ... ... : ... .. . ... ... : ... .. . ... : ... .. . ... ... : ... .. . ... ... ... ...
ROW 7D : ... .. . ... ... : ... .. . ... ... : ... .. . ... ... : ... .. . ... : ... .. . ... ... : ... .. . ... ... ... ...
ROW 7E : ... .. . ... ... : ... .. . ... ... : ... .. . ... ... : ... .. . ... : ... .. . ... ... : ... .. . ... ... ... ...
ROW 7F : ... .. . ... ... : ... .. . ... ... : ... .. . ... ... : ... .. . ... : ... .. . ... ... : ... .. . ... ... ... ...
ROW 80 : ... .. . ... ... : ... .. . ... ... : ... .. . ... ... : ... .. . ... : ... .. . ... ... : ... .. . ... ... ... ...
ROW 81 : ... .. . ... ... : ... .. . ... ... : ... .. . ... ... : ... .. . ... : ... .. . ... ... : ... .. . ... ... ... ...
ROW 82 : ... .. . ... ... : ... .. . ... ... : ... .. . ... ... : ... .. . ... : ... .. . ... ... : ... .. . ... ... ... ...
ROW 83 : ... .. . ... ... : ... .. . ... ... : ... .. . ... ... : ... .. . ... : ... .. . ... ... : ... .. . ... ... ... ...
ROW 84 : ... .. . ... ... : ... .. . ... ... : ... .. . ... ... : ... .. . ... : ... .. . ... ... : ... .. . ... ... ... ...
ROW 85 : ... .. . ... ... : ... .. . ... ... : ... .. . ... ... : ... .. . ... : ... .. . ... ... : ... .. . ... ... ... ...
ROW 86 : ... .. . ... ... : ... .. . ... ... : ... .. . ... ... : ... .. . ... : ... .. . ... ... : ... .. . ... ... ... ...
ROW 87 : ... .. . ... ... : ... .. . ... ... : ... .. . ... ... : ... .. . ... : ... .. . ... ... : ... .. . ... ... ... ...
ROW 88 : ... .. . ... ... : ... .. . ... ... : ... .. . ... ... : ... .. . ... : ... .. . ... ... : ... .. . ... ... ... ...
ROW 89 : ... .. . ... ... : ... .. . ... ... : ... .. . ... ... : ... .. . ... : ... .. . ... ... : ... .. . ... ... ... ...
ROW 8A : ... .. . ... ... : ... .. . ... ... : ... .. . ... ... : ... .. . ... : ... .. . ... ... : ... .. . ... ... ... ...
ROW 8B : ... .. . ... ... : ... .. . ... ... : ... .. . ... ... : ... .. . ... : ... .. . ... ... : ... .. . ... ... ... ...
ROW 8C : ... .. . ... ... : ... .. . ... ... : ... .. . ... ... : ... .. . ... : ... .. . ... ... : ... .. . ... ... ... ...
ROW 8D : ... .. . ... ... : ... .. . ... ... : ... .. . ... ... : ... .. . ... : ... .. . ... ... : ... .. . ... ... ... ...
ROW 8E : ... .. . ... ... : ... .. . ... ... : ... .. . ... ... : ... .. . ... : ... .. . ... ... : ... .. . ... ... ... ...
ROW 8F : ... .. . ... ... : ... .. . ... ... : ... .. . ... ... : ... .. . ... : ... .. . ... ... : ... .. . ... ... ... ...
ROW 90 : ... .. . ... ... : ... .. . ... ... : ... .. . ... ... : ... .. . ... : ... .. . ... ... : ... .. . ... ... ... ...
ROW 91 : ... .. . ... ... : ... .. . ... ... : ... .. . ... ... : ... .. . ... : ... .. . ... ... : ... .. . ... ... ... ...
ROW 92 : ... .. . ... ... : ... .. . ... ... : ... .. . ... ... : ... .. . ... : ... .. . ... ... : ... .. . ... ... ... ...
ROW 93 : ... .. . ... ... : ... .. . ... ... : ... .. . ... ... : ... .. . ... : ... .. . ... ... : ... .. . ... ... ... ...
ROW 94 : ... .. . ... ... : ... .. . ... ... : ... .. . ... ... : ... .. . ... : ... .. . ... ... : ... .. . ... ... ... ...
ROW 95 : ... .. . ... ... : ... .. . ... ... : ... .. . ... ... : ... .. . ... : ... .. . ... ... : ... .. . ... ... ... ...
ROW 96 : ... .. . ... ... : ... .. . ... ... : ... .. . ... ... : ... .. . ... : ... .. . ... ... : ... .. . ... ... ... ...
ROW 97 : ... .. . ... ... : ... .. . ... ... : ... .. . ... ... : ... .. . ... : ... .. . ... ... : ... .. . ... ... ... ...
ROW 98 : ... .. . ... ... : ... .. . ... ... : ... .. . ... ... : ... .. . ... : ... .. . ... ... : ... .. . ... ... ... ...
ROW 99 : ... .. . ... ... : ... .. . ... ... : ... .. . ... ... : ... .. . ... : ... .. . ... ... : ... .. . ... ... ... ...
ROW 9A : ... .. . ... ... : ... .. . ... ... : ... .. . ... ... : ... .. . ... : ... .. . ... ... : ... .. . ... ... ... ...
ROW 9B : ... .. . ... ... : ... .. . ... ... : ... .. . ... ... : ... .. . ... : ... .. . ... ... : ... .. . ... ... ... ...
ROW 9C : ... .. . ... ... : ... .. . ... ... : ... .. . ... ... : ... .. . ... : ... .. . ... ... : ... .. . ... ... ... ...
ROW 9D : ... .. . ... ... : ... .. . ... ... : ... .. . ... ... : ... .. . ... : ... .. . ... ... : ... .. . ... ... ... ...
ROW 9E : ... .. . ... ... : ... .. . ... ... : ... .. . ... ... : ... .. . ... : ... .. . ... ... : ... .. . ... ... ... ...
ROW 9F : ... .. . ... ... : ... .. . ... ... : ... .. . ... ... : ... .. . ... : ... .. . ... ... : ... .. . ... ... ... ...
ROW A0 : ... .. . ... ... : ... .. . ... ... : ... .. . ... ... : ... .. . ... : ... .. . ... ... : ... .. . ... ... ... ...
ROW A1 : ... .. . ... ... : ... .. . ... ... : ... .. . ... ... : ... .. . ... : ... .. . ... ... : ... .. . ... ... ... ...
ROW A2 : ... .. . ... ... : ... .. . ... ... : ... .. . ... ... : ... .. . ... : ... .. . ... ... : ... .. . ... ... ... ...
ROW A3 : ... .. . ... ... : ... .. . ... ... : ... .. . ... ... : ... .. . ... : ... .. . ... ... : ... .. . ... ... ... ...
ROW A4 : ... .. . ... ... : ... .. . ... ... : ... .. . ... ... : ... .. . ... : ... .. . ... ... : ... .. . ... ... ... ...
ROW A5 : ... .. . ... ... : ... .. . ... ... : ... .. . ... ... : ... .. . ... : ... .. . ... ... : ... .. . ... ... ... ...
ROW A6 : ... .. . ... ... : ... .. . ... ... : ... .. . ... ... : ... .. . ... : ... .. . ... ... : ... .. . ... ... ... ...
ROW A7 : ... .. . ... ... : ... .. . ... ... : ... .. . ... ... : ... .. . ... : ... .. . ... ... : ... .. . ... ... ... ...
ROW A8 : ... .. . ... ... : ... .. . ... ... : ... .. . ... ... : ... .. . ... : ... .. . ... ... : ... .. . ... ... ... ...
ROW A9 : ... .. . ... ... : ... .. . ... ... : ... .. . ... ... : ... .. . ... : ... .. . ... ... : ... .. . ... ... ... ...
ROW AA : ... .. . ... ... : ... .. . ... ... : ... .. . ... ... : ... .. . ... : ... .. . ... ... : ... .. . ... ... ... ...
ROW AB : ... .. . ... ... : ... .. . ... ... : ... .. . ... ... : ... .. . ... : ... .. . ... ... : ... .. . ... ... ... ...
ROW AC : ... .. . ... ... : ... .. . ... ... : ... .. . ... ... : ... .. . ... : ... .. . ... ... : ... .. . ... ... ... ...
ROW AD : ... .. . ... ... : ... .. . ... ... : ... .. . ... ... : ... .. . ... : ... .. . ... ... : ... .. . ... ... ... ...
ROW AE : ... .. . ... ... : ... .. . ... ... : ... .. . ... ... : ... .. . ... : ... .. . ... ... : ... .. . ... ... ... ...
ROW AF : ... .. . ... ... : ... .. . ... ... : ... .. . ... ... : ... .. . ... : ... .. . ... ... : ... .. . ... ... ... ...
ROW B0 : ... .. . ... ... : ... .. . ... ... : ... .. . ... ... : ... .. . ... : ... .. . ... ... : ... .. . ... ... ... ...
ROW B1 : ... .. . ... ... : ... .. . ... ... : ... .. . ... ... : ... .. . ... : ... .. . ... ... : ... .. . ... ... ... ...
ROW B2 : ... .. . ... ... : ... .. . ... ... : ... .. . ... ... : ... .. . ... : ... .. . ... ... : ... .. . ... ... ... ...
ROW B3 : ... .. . ... ... : ... .. . ... ... : ... .. . ... ... : ... .. . ... : ... .. . ... ... : ... .. . ... ... ... ...
ROW B4 : ... .. . ... ... : ... .. . ... ... : ... .. . ... ... : ... .. . ... : ... .. . ... ... : ... .. . ... ... ... ...
ROW B5 : ... .. . ... ... : ... .. . ... ... : ... .. . ... ... : ... .. . ... : ... .. . ... ... : ... .. . ... ... ... ...
ROW B6 : ... .. . ... ... : ... .. . ... ... : ... .. . ... ... : ... .. . ... : ... .. . ... ... : ... .. . ... ... ... ...
ROW B7 : ... .. . ... ... : ... .. . ... ... : ... .. . ... ... : ... .. . ... : ... .. . ... ... : ... .. . ... ... ... ...
ROW B8 : ... .. . ... ... : ... .. . ... ... : ... .. . ... ... : ... .. . ... : ... .. . ... ... : ... .. . ... ... ... ...
ROW B9 : ... .. . ... ... : ... .. . ... ... : ... .. . ... ... : ... .. . ... : ... .. . ... ... : ... .. . ... ... ... ...
ROW BA : ... .. . ... ... : ... .. . ... ... : ... .. . ... ... : ... .. . ... : ... .. . ... ... : ... .. . ... ... ... ...
ROW BB : ... .. . ... ... : ... .. . ... ... : ... .. . ... ... : ... .. . ... : ... .. . ... ... : ... .. . ... ... ... ...
ROW BC : ... .. . ... ... : ... .. . ... ... : ... .. . ... ... : ... .. . ... : ... .. . ... ... : ... .. . ... ... ... ...
ROW BD : ... .. . ... ... : ... .. . ... ... : ... .. . ... ... : ... .. . ... : ... .. . ... ... : ... .. . ... ... ... ...
ROW BE : ... .. . ... ... : ... .. . ... ... : ... .. . ... ... : ... .. . ... : ... .. . ... ... : ... .. . ... ... ... ...
ROW BF : ... .. . ... ... : ... .. . ... ... : ... .. . ... ... : ... .. . ... : ... .. . ... ... : ... .. . ... ... ... ...
ROW C0 : ... .. . ... ... : ... .. . ... ... : ... .. . ... ... : ... .. . ... : ... .. . ... ... : ... .. . ... ... ... ...
ROW C1 : ... .. . ... ... : ... .. . ... ... : ... .. . ... ... : ... .. . ... : ... .. . ... ... : ... .. . ... ... ... ...
ROW C2 : ... .. . ... ... : ... .. . ... ... : ... .. . ... ... : ... .. . ... : ... .. . ... ... : ... .. . ... ... ... ...
ROW C3 : ... .. . ... ... : ... .. . ... ... : ... .. . ... ... : ... .. . ... : ... .. . ... ... : ... .. . ... ... ... ...
ROW C4 : ... .. . ... ... : ... .. . ... ... : ... .. . ... ... : ... .. . ... : ... .. . ... ... : ... .. . ... ... ... ...
ROW C5 : ... .. . ... ... : ... .. . ... ... : ... .. . ... ... : ... .. . ... : ... .. . ... ... : ... .. . ... ... ... ...
ROW C6 : ... .. . ... ... : ... .. . ... ... : ... .. . ... ... : ... .. . ... : ... .. . ... ... : ... .. . ... ... ... ...
ROW C7 : ... .. . ... ... : ... .. . ... ... : ... .. . ... ... : ... .. . ... : ... .. . ... ... : ... .. . ... ... ... ...
ROW C8 : ... .. . ... ... : ... .. . ... ... : ... .. . ... ... : ... .. . ... : ... .. . ... ... : ... .. . ... ... ... ...
ROW C9 : ... .. . ... ... : ... .. . ... ... : ... .. . ... ... : ... .. . ... : ... .. . ... ... : ... .. . ... ... ... ...
ROW CA : ... .. . ... ... : ... .. . ... ... : ... .. . ... ... : ... .. . ... : ... .. . ... ... : ... .. . ... ... ... ...
ROW CB : ... .. . ... ... : ... .. . ... ... : ... .. . ... ... : ... .. . ... : ... .. . ... ... : ... .. . ... ... ... ...
ROW CC : ... .. . ... ... : ... .. . ... ... : ... .. . ... ... : ... .. . ... : ... .. . ... ... : ... .. . ... ... ... ...
ROW CD : ... .. . ... ... : ... .. . ... ... : ... .. . ... ... : ... .. . ... : ... .. . ... ... : ... .. . ... ... ... ...
ROW CE : ... .. . ... ... : ... .. . ... ... : ... .. . ... ... : ... .. . ... : ... .. . ... ... : ... .. . ... ... ... ...
ROW CF : ... .. . ... ... : ... .. . ... ... : ... .. . ... ... : ... .. . ... : ... .. . ... ... : ... .. . ... ... ... ...
ROW D0 : ... .. . ... ... : ... .. . ... ... : ... .. . ... ... : ... .. . ... : ... .. . ... ... : ... .. . ... ... ... ...
ROW D1 : ... .. . ... ... : ... .. . ... ... : ... .. . ... ... : ... .. . ... : ... .. . ... ... : ... .. . ... ... ... ...
ROW D2 : ... .. . ... ... : ... .. . ... ... : ... .. . ... ... : ... .. . ... : ... .. . ... ... : ... .. . ... ... ... ...
ROW D3 : ... .. . ... ... : ... .. . ... ... : ... .. . ... ... : ... .. . ... : ... .. . ... ... : ... .. . ... ... ... ...
ROW D4 : ... .. . ... ... : ... .. . ... ... : ... .. . ... ... : ... .. . ... : ... .. . ... ... : ... .. . ... ... ... ...
ROW D5 : ... .. . ... ... : ... .. . ... ... : ... .. . ... ... : ... .. . ... : ... .. . ... ... : ... .. . ... ... ... ...
ROW D6 : ... .. . ... ... : ... .. . ... ... : ... .. . ... ... : ... .. . ... : ... .. . ... ... : ... .. . ... ... ... ...
ROW D7 : ... .. . ... ... : ... .. . ... ... : ... .. . ... ... : ... .. . ... : ... .. . ... ... : ... .. . ... ... ... ...
ROW D8 : ... .. . ... ... : ... .. . ... ... : ... .. . ... ... : ... .. . ... : ... .. . ... ... : ... .. . ... ... ... ...
ROW D9 : ... .. . ... ... : ... .. . ... ... : ... .. . ... ... : ... .. . ... : ... .. . ... ... : ... .. . ... ... ... ...
ROW DA : ... .. . ... ... : ... .. . ... ... : ... .. . ... ... : ... .. . ... : ... .. . ... ... : ... .. . ... ... ... ...
ROW DB : ... .. . ... ... : ... .. . ... ... : ... .. . ... ... : ... .. . ... : ... .. . ... ... : ... .. . ... ... ... ...
ROW DC : ... .. . ... ... : ... .. . ... ... : ... .. . ... ... : ... .. . ... : ... .. . ... ... : ... .. . ... ... ... ...
ROW DD : ... .. . ... ... : ... .. . ... ... : ... .. . ... ... : ... .. . ... : ... .. . ... ... : ... .. . ... ... ... ...
ROW DE : ... .. . ... ... : ... .. . ... ... : ... .. . ... ... : ... .. . ... : ... .. . ... ... : ... .. . ... ... ... ...
ROW DF : ... .. . ... ... : ... .. . ... ... : ... .. . ... ... : ... .. . ... : ... .. . ... ... : ... .. . ... ... ... ...
ROW E0 : ... .. . ... ... : ... .. . ... ... : ... .. . ... ... : ... .. . ... : ... .. . ... ... : ... .. . ... ... ... ...
ROW E1 : ... .. . ... ... : ... .. . ... ... : ... .. . ... ... : ... .. . ... : ... .. . ... ... : ... .. . ... ... ... ...
ROW E2 : ... .. . ... ... : ... .. . ... ... : ... .. . ... ... : ... .. . ... : ... .. . ... ... : ... .. . ... ... ... ...
ROW E3 : ... .. . ... ... : ... .. . ... ... : ... .. . ... ... : ... .. . ... : ... .. . ... ... : ... .. . ... ... ... ...
ROW E4 : ... .. . ... ... : ... .. . ... ... : ... .. . ... ... : ... .. . ... : ... .. . ... ... : ... .. . ... ... ... ...
ROW E5 : ... .. . ... ... : ... .. . ... ... : ... .. . ... ... : ... .. . ... : ... .. . ... ... : ... .. . ... ... ... ...
ROW E6 : ... .. . ... ... : ... .. . ... ... : ... .. . ... ... : ... .. . ... : ... .. . ... ... : ... .. . ... ... ... ...
ROW E7 : ... .. . ... ... : ... .. . ... ... : ... .. . ... ... : ... .. . ... : ... .. . ... ... : ... .. . ... ... ... ...
ROW E8 : ... .. . ... ... : ... .. . ... ... : ... .. . ... ... : ... .. . ... : ... .. . ... ... : ... .. . ... ... ... ...
ROW E9 : ... .. . ... ... : ... .. . ... ... : ... .. . ... ... : ... .. . ... : ... .. . ... ... : ... .. . ... ... ... ...
ROW EA : ... .. . ... ... : ... .. . ... ... : ... .. . ... ... : ... .. . ... : ... .. . ... ... : ... .. . ... ... ... ...
ROW EB : ... .. . ... ... : ... .. . ... ... : ... .. . ... ... : ... .. . ... : ... .. . ... ... : ... .. . ... ... ... ...
ROW EC : ... .. . ... ... : ... .. . ... ... : ... .. . ... ... : ... .. . ... : ... .. . ... ... : ... .. . ... ... ... ...
ROW ED : ... .. . ... ... : ... .. . ... ... : ... .. . ... ... : ... .. . ... : ... .. . ... ... : ... .. . ... ... ... ...
ROW EE : ... .. . ... ... : ... .. . ... ... : ... .. . ... ... : ... .. . ... : ... .. . ... ... : ... .. . ... ... ... ...
ROW EF : ... .. . ... ... : ... .. . ... ... : ... .. . ... ... : ... .. . ... : ... .. . ... ... : ... .. . ... ... ... ...
ROW F0 : ... .. . ... ... : ... .. . ... ... : ... .. . ... ... : ... .. . ... : ... .. . ... ... : ... .. . ... ... ... ...
ROW F1 : ... .. . ... ... : ... .. . ... ... : ... .. . ... ... : ... .. . ... : ... .. . ... ... : ... .. . ... ... ... ...
ROW F2 : ... .. . ... ... : ... .. . ... ... : ... .. . ... ... : ... .. . ... : ... .. . ... ... : ... .. . ... ... ... ...
ROW F3 : ... .. . ... ... : ... .. . ... ... : ... .. . ... ... : ... .. . ... : ... .. . ... ... : ... .. . ... ... ... ...
ROW F4 : ... .. . ... ... : ... .. . ... ... : ... .. . ... ... : ... .. . ... : ... .. . ... ... : ... .. . ... ... ... ...
ROW F5 : ... .. . ... ... : ... .. . ... ... : ... .. . ... ... : ... .. . ... : ... .. . ... ... : ... .. . ... ... ... ...
ROW F6 : ... .. . ... ... : ... .. . ... ... : ... .. . ... ... : ... .. . ... : ... .. . ... ... : ... .. . ... ... ... ...
ROW F7 : ... .. . ... ... : ... .. . ... ... : ... .. . ... ... : ... .. . ... : ... .. . ... ... : ... .. . ... ... ... ...
ROW F8 : ... .. . ... ... : ... .. . ... ... : ... .. . ... ... : ... .. . ... : ... .. . ... ... : ... .. . ... ... ... ...
ROW F9 : ... .. . ... ... : ... .. . ... ... : ... .. . ... ... : ... .. . ... : ... .. . ... ... : ... .. . ... ... ... ...
ROW FA : ... .. . ... ... : ... .. . ... ... : ... .. . ... ... : ... .. . ... : ... .. . ... ... : ... .. . ... ... ... ...
ROW FB : ... .. . ... ... : ... .. . ... ... : ... .. . ... ... : ... .. . ... : ... .. . ... ... : ... .. . ... ... ... ...
ROW FC : ... .. . ... ... : ... .. . ... ... : ... .. . ... ... : ... .. . ... : ... .. . ... ... : ... .. . ... ... ... ...
ROW FD : ... .. . ... ... : ... .. . ... ... : ... .. . ... ... : ... .. . ... : ... .. . ... ... : ... .. . ... ... ... ...
ROW FE : ... .. . ... ... : ... .. . ... ... : ... .. . ... ... : ... .. . ... : ... .. . ... ... : ... .. . ... ... ... ...
ROW FF : ... .. . ... ... : ... .. . ... ... : ... .. . ... ... : ... .. . ... : ... .. . ... ... : ... .. . ... ... ... ...

PATTERN 18
ROW 00 : E-3 18 8 ... ... : G-2 14 5 G01 ... : F#2 03 . 200 ... : C-# 03 E A03 : B-2 1E . F04 ... : F#4 16 A ... I06 JC6 ...
ROW 01 : ... .. 4 ... ... : ... .. . ... ... : ... .. . ... ... : ... .. . A04 : ... .. . ... ... : ... .. 5 G01 ... ... ...
ROW 02 : B-2 18 8 ... ... : ... .. . ... ... : ... .. . S03 ... : ... .. . A05 : ... .. . ... ... : D-4 16 A ... I05 J60 ...
ROW 03 : E-3 18 4 ... ... : ... .. . ... ... : ... .. . ... ... : ... .. . A04 : ... .. . ... ... : F#4 16 5 G01 I06 JC6 ...
ROW 04 : G-2 18 8 ... ... : ... .. . ... ... : F#2 03 . 200 ... : ... .. . ... : ... .. . ... ... : B-3 16 A ... I04 J85 ...
ROW 05 : B-2 18 4 ... ... : ... .. . ... ... : ... .. . S03 ... : ... .. . ... : ... .. . ... ... : D-4 16 5 G01 I05 J60 ...
ROW 06 : B-2 18 8 ... ... : ... .. . ... ... : F#4 03 . 236 ... : D-# 05 6 ... : ... .. . ... ... : D-4 16 A ... I05 J60 ...
ROW 07 : G-2 18 4 ... ... : ... .. . ... ... : ... .. . ... ... : ... .. . ... : ... .. . ... ... : B-3 16 5 G01 I04 J85 ...
ROW 08 : E-3 18 8 ... ... : ... .. . ... ... : ... .. . ... ... : 6-# 08 A ... : B-2 1E . ... ... : F#4 16 A ... I06 JC6 ...
ROW 09 : B-2 18 4 ... ... : ... .. . ... ... : ... .. . ... ... : ... .. . ... : ... .. . ... ... : D-4 16 5 G01 I05 J60 ...
ROW 0A : B-2 18 8 ... ... : ... .. . ... ... : ... .. . ... ... : 6-# 08 9 G02 : ... .. . ... ... : D-4 16 A ... I05 J60 ...
ROW 0B : E-3 18 4 ... ... : ... .. . ... ... : ... .. . ... ... : ... .. . ... : ... .. . ... ... : F#4 16 5 G01 I06 JC6 ...
ROW 0C : G-2 18 8 ... ... : ... .. . ... ... : F#2 03 . 200 ... : ... .. . ... : ... .. . ... ... : B-3 16 A ... I04 J85 ...
ROW 0D : B-2 18 4 ... ... : ... .. . ... ... : ... .. . S03 ... : 6-# 08 8 G01 : ... .. . ... ... : D-4 16 5 G01 I05 J60 ...
ROW 0E : B-2 18 8 ... ... : ... .. . ... ... : F#3 03 . ... ... : ... .. . ... : ... .. . ... ... : D-4 16 A ... I05 J60 ...
ROW 0F : G-2 18 4 ... ... : ... .. . ... ... : ... .. . ... ... : ... .. . ... : ... .. . ... ... : B-3 16 5 G01 I04 J85 ...
ROW 10 : E-3 18 8 ... ... : ... .. . ... ... : ... .. . S03 ... : 6-# 08 A ... : B-2 1E . ... ... : F#4 16 A ... I06 JC6 ...
ROW 11 : B-2 18 4 ... ... : ... .. . ... ... : ... .. . ... ... : ... .. . ... : ... .. . ... ... : D-4 16 5 G01 I05 J60 ...
ROW 12 : B-2 18 8 ... ... : ... .. . ... ... : ... .. . ... ... : ... .. . ... : ... .. . ... ... : D-4 16 A ... I05 J60 ...
ROW 13 : E-3 18 4 ... ... : ... .. . ... ... : ... .. . ... ... : ... .. . ... : ... .. . ... ... : F#4 16 5 G01 I06 JC6 ...
ROW 14 : G-2 18 8 ... ... : ... .. . ... ... : F#3 03 . ... ... : ... .. . ... : ... .. . ... ... : B-3 16 A ... I04 J85 ...
ROW 15 : B-2 18 4 ... ... : ... .. . ... ... : ... .. . ... ... : ... .. . ... : ... .. . ... ... : D-4 16 5 G01 I05 J60 ...
ROW 16 : B-2 18 8 ... ... : ... .. . ... ... : ... .. . S03 ... : ... .. . ... : ... .. . ... ... : D-4 16 A ... I05 J60 ...
ROW 17 : G-2 18 4 ... ... : ... .. . ... ... : ... .. . ... ... : ... .. . ... : ... .. . ... ... : B-3 16 5 G01 I04 J85 ...
ROW 18 : E-3 18 8 ... ... : ... .. . ... ... : D-3 03 . ... ... : ... .. . ... : B-2 1E . ... ... : F#4 16 A ... I06 JC6 ...
ROW 19 : B-2 18 4 ... ... : ... .. . ... ... : ... .. . ... ... : ... .. . ... : ... .. . ... ... : D-4 16 5 G01 I05 J60 ...
ROW 1A : B-2 18 8 ... ... : ... .. . ... ... : ... .. . S03 ... : ... .. . ... : ... .. . ... ... : D-4 16 A ... I05 J60 ...
ROW 1B : E-3 18 4 ... ... : ... .. . ... ... : ... .. . ... ... : ... .. . ... : ... .. . ... ... : F#4 16 5 G01 I06 JC6 ...
ROW 1C : G-2 18 8 ... ... : ... .. . ... ... : B-4 03 . 236 ... : ... .. . ... : ... .. . ... ... : B-3 16 A ... I04 J85 ...
ROW 1D : B-2 18 4 ... ... : ... .. . ... ... : ... .. . ... ... : ... .. . ... : ... .. . ... ... : D-4 16 5 G01 I05 J60 ...
ROW 1E : B-2 18 8 ... ... : ... .. . ... ... : ... .. . ... ... : ... .. . ... : ... .. . ... ... : D-4 16 A ... I05 J60 ...
ROW 1F : G-2 18 4 ... ... : ... .. . ... ... : ... .. . ... ... : ... .. . ... : ... .. . ... ... : B-3 16 5 G01 I04 J85 ...
ROW 20 : D-3 18 8 ... ... : ... .. . ... ... : F#2 03 . 200 ... : ... .. . ... : B-2 1E . ... ... : F#4 16 A ... I06 JC6 ...
ROW 21 : ... .. 4 ... ... : ... .. . ... ... : ... .. . ... ... : ... .. . ... : ... .. . ... ... : D-4 16 5 G01 I05 J60 ...
ROW 22 : A-2 18 8 ... ... : ... .. . ... ... : ... .. . S03 ... : ... .. . ... : ... .. . ... ... : D-4 16 A ... I05 J60 ...
ROW 23 : D-3 18 4 ... ... : ... .. . ... ... : ... .. . ... ... : ... .. . ... : ... .. . ... ... : F#4 16 5 G01 I06 JC6 ...
ROW 24 : F#2 18 8 ... ... : ... .. . ... ... : F#2 03 . 200 ... : ... .. . ... : ... .. . ... ... : B-3 16 A ... I04 J85 ...
ROW 25 : A-2 18 4 ... ... : ... .. . ... ... : ... .. . S03 ... : ... .. . ... : ... .. . ... ... : D-4 16 5 G01 I05 J60 ...
ROW 26 : A-2 18 8 ... ... : ... .. . ... ... : F#4 03 . 236 ... : ... .. . ... : ... .. . ... ... : D-4 16 A ... I05 J60 ...
ROW 27 : F#2 18 4 ... ... : ... .. . ... ... : ... .. . ... ... : ... .. . ... : ... .. . ... ... : B-3 16 5 G01 I04 J85 ...
ROW 28 : D-3 18 8 ... ... : ... .. . ... ... : ... .. . ... ... : ... .. . ... : B-2 1E . ... ... : F#4 16 A ... I06 JC6 ...
ROW 29 : A-2 18 4 ... ... : ... .. . ... ... : ... .. . ... ... : ... .. . ... : ... .. . ... ... : D-4 16 5 G01 I05 J60 ...
ROW 2A : A-2 18 8 ... ... : ... .. . ... ... : ... .. . ... ... : ... .. . ... : ... .. . ... ... : D-4 16 A ... I05 J60 ...
ROW 2B : D-3 18 4 ... ... : ... .. . ... ... : ... .. . ... ... : ... .. . ... : ... .. . ... ... : F#4 16 5 G01 I06 JC6 ...
ROW 2C : F#2 18 8 ... ... : ... .. . ... ... : F#2 03 . 200 ... : ... .. . ... : ... .. . ... ... : B-3 16 A ... I04 J85 ...
ROW 2D : A-2 18 4 ... ... : ... .. . ... ... : ... .. . S03 ... : ... .. . ... : ... .. . ... ... : D-4 16 5 G01 I05 J60 ...
ROW 2E : A-2 18 8 ... ... : ... .. . ... ... : F#3 03 . ... ... : ... .. . ... : ... .. . ... ... : D-4 16 A ... I05 J60 ...
ROW 2F : F#2 18 4 ... ... : ... .. . ... ... : ... .. . ... ... : ... .. . ... : ... .. . ... ... : B-3 16 5 G01 I04 J85 ...
ROW 30 : D-3 18 8 ... ... : ... .. . ... ... : ... .. . S03 ... : ... .. . ... : B-2 1E . ... ... : B-3 16 A ... I04 J85 ...
ROW 31 : A-2 18 4 ... ... : ... .. . ... ... : ... .. . ... ... : ... .. . ... : ... .. . ... ... : D-4 16 5 G01 I05 J60 ...
ROW 32 : A-2 18 8 ... ... : ... .. . ... ... : ... .. . ... ... : ... .. . ... : ... .. . ... ... : F#3 16 A ... I03 J63 ...
ROW 33 : D-3 18 4 ... ... : ... .. . ... ... : ... .. . ... ... : ... .. . ... : ... .. . ... ... : B-3 16 5 G01 I04 J85 ...
ROW 34 : F#2 18 8 ... ... : ... .. . ... ... : B-3 03 . ... ... : ... .. . ... : ... .. . ... ... : D-3 16 A ... I02 JB0 ...
ROW 35 : A-2 18 4 ... ... : ... .. . ... ... : ... .. . ... ... : ... .. . ... : ... .. . ... ... : F#3 16 5 G01 I03 J63 ...
ROW 36 : A-2 18 8 ... ... : ... .. . ... ... : ... .. . S03 ... : ... .. . ... : ... .. . ... ... : F#3 16 A ... I03 J63 ...
ROW 37 : F#2 18 4 ... ... : ... .. . ... ... : ... .. . ... ... : ... .. . ... : ... .. . ... ... : D-3 16 5 G01 I02 JB0 ...
ROW 38 : D-3 18 8 ... ... : ... .. . ... ... : F#3 03 . ... ... : ... .. . ... : B-2 1E . ... ... : B-3 16 A ... I04 J85 ...
ROW 39 : A-2 18 4 ... ... : ... .. . ... ... : ... .. . ... ... : ... .. . ... : ... .. . ... ... : F#3 16 5 G01 I03 J63 ...
ROW 3A : A-2 18 8 ... ... : ... .. . ... ... : ... .. . S03 ... : ... .. . ... : ... .. . ... ... : F#3 16 A ... I03 J63 ...
ROW 3B : D-3 18 4 ... ... : ... .. . ... ... : ... .. . ... ... : ... .. . ... : ... .. . ... ... : B-3 16 5 G01 I04 J85 ...
ROW 3C : F#2 18 8 ... ... : ... .. . ... ... : D-4 03 . 236 ... : ... .. . ... : ... .. . ... ... : D-3 16 A ... I02 JB0 ...
ROW 3D : A-2 18 4 ... ... : ... .. . ... ... : ... .. . ... ... : ... .. . ... : ... .. . ... ... : F#3 16 5 G01 I03 J63 ...
ROW 3E : A-2 18 8 ... ... : ... .. . ... ... : ... .. . ... ... : ... .. . ... : ... .. . ... ... : F#3 16 A ... I03 J63 ...
ROW 3F : F#2 18 4 ... ... : ... .. . ... ... : ... .. . ... ... : ... .. . ... : ... .. . D00 ... : D-3 16 5 G01 I02 JB0 ...
ROW 40 : ... .. . ... ... : ... .. . ... ... : ... .. . ... ... : ... .. . ... : ... .. . ... ... : ... .. . ... ... ... ...
ROW 41 : ... .. . ... ... : ... .. . ... ... : ... .. . ... ... : ... .. . ... : ... .. . ... ... : ... .. . ... ... ... ...
ROW 42 : ... .. . ... ... : ... .. . ... ... : ... .. . ... ... : ... .. . ... : ... .. . ... ... : ... .. . ... ... ... ...
ROW 43 : ... .. . ... ... : ... .. . ... ... : ... .. . ... ... : ... .. . ... : ... .. . ... ... : ... .. . ... ... ... ...
ROW 44 : ... .. . ... ... : ... .. . ... ... : ... .. . ... ... : ... .. . ... : ... .. . ... ... : ... .. . ... ... ... ...
ROW 45 : ... .. . ... ... : ... .. . ... ... : ... .. . ... ... : ... .. . ... : ... .. . ... ... : ... .. . ... ... ... ...
ROW 46 : ... .. . ... ... : ... .. . ... ... : ... .. . ... ... : ... .. . ... : ... .. . ... ... : ... .. . ... ... ... ...
ROW 47 : ... .. . ... ... : ... .. . ... ... : ... .. . ... ... : ... .. . ... : ... .. . ... ... : ... .. . ... ... ... ...
ROW 48 : ... .. . ... ... : ... .. . ... ... : ... .. . ... ... : ... .. . ... : ... .. . ... ... : ... .. . ... ... ... ...
ROW 49 : ... .. . ... ... : ... .. . ... ... : ... .. . ... ... : ... .. . ... : ... .. . ... ... : ... .. . ... ... ... ...
ROW 4A : ... .. . ... ... : ... .. . ... ... : ... .. . ... ... : ... .. . ... : ... .. . ... ... : ... .. . ... ... ... ...
ROW 4B : ... .. . ... ... : ... .. . ... ... : ... .. . ... ... : ... .. . ... : ... .. . ... ... : ... .. . ... ... ... ...
ROW 4C : ... .. . ... ... : ... .. . ... ... : ... .. . ... ... : ... .. . ... : ... .. . ... ... : ... .. . ... ... ... ...
ROW 4D : ... .. . ... ... : ... .. . ... ... : ... .. . ... ... : ... .. . ... : ... .. . ... ... : ... .. . ... ... ... ...
ROW 4E : ... .. . ... ... : ... .. . ... ... : ... .. . ... ... : ... .. . ... : ... .. . ... ... : ... .. . ... ... ... ...
ROW 4F : ... .. . ... ... : ... .. . ... ... : ... .. . ... ... : ... .. . ... : ... .. . ... ... : ... .. . ... ... ... ...
ROW 50 : ... .. . ... ... : ... .. . ... ... : ... .. . ... ... : ... .. . ... : ... .. . ... ... : ... .. . ... ... ... ...
ROW 51 : ... .. . ... ... : ... .. . ... ... : ... .. . ... ... : ... .. . ... : ... .. . ... ... : ... .. . ... ... ... ...
ROW 52 : ... .. . ... ... : ... .. . ... ... : ... .. . ... ... : ... .. . ... : ... .. . ... ... : ... .. . ... ... ... ...
ROW 53 : ... .. . ... ... : ... .. . ... ... : ... .. . ... ... : ... .. . ... : ... .. . ... ... : ... .. . ... ... ... ...
ROW 54 : ... .. . ... ... : ... .. . ... ... : ... .. . ... ... : ... .. . ... : ... .. . ... ... : ... .. . ... ... ... ...
ROW 55 : ... .. . ... ... : ... .. . ... ... : ... .. . ... ... : ... .. . ... : ... .. . ... ... : ... .. . ... ... ... ...
ROW 56 : ... .. . ... ... : ... .. . ... ... : ... .. . ... ... : ... .. . ... : ... .. . ... ... : ... .. . ... ... ... ...
ROW 57 : ... .. . ... ... : ... .. . ... ... : ... .. . ... ... : ... .. . ... : ... .. . ... ... : ... .. . ... ... ... ...
ROW 58 : ... .. . ... ... : ... .. . ... ... : ... .. . ... ... : ... .. . ... : ... .. . ... ... : ... .. . ... ... ... ...
ROW 59 : ... .. . ... ... : ... .. . ... ... : ... .. . ... ... : ... .. . ... : ... .. . ... ... : ... .. . ... ... ... ...
ROW 5A : ... .. . ... ... : ... .. . ... ... : ... .. . ... ... : ... .. . ... : ... .. . ... ... : ... .. . ... ... ... ...
ROW 5B : ... .. . ... ... : ... .. . ... ... : ... .. . ... ... : ... .. . ... : ... .. . ... ... : ... .. . ... ... ... ...
ROW 5C : ... .. . ... ... : ... .. . ... ... : ... .. . ... ... : ... .. . ... : ... .. . ... ... : ... .. . ... ... ... ...
ROW 5D : ... .. . ... ... : ... .. . ... ... : ... .. . ... ... : ... .. . ... : ... .. . ... ... : ... .. . ... ... ... ...
ROW 5E : ... .. . ... ... : ... .. . ... ... : ... .. . ... ... : ... .. . ... : ... .. . ... ... : ... .. . ... ... ... ...
ROW 5F : ... .. . ... ... : ... .. . ... ... : ... .. . ... ... : ... .. . ... : ... .. . ... ... : ... .. . ... ... ... ...
ROW 60 : ... .. . ... ... : ... .. . ... ... : ... .. . ... ... : ... .. . ... : ... .. . ... ... : ... .. . ... ... ... ...
ROW 61 : ... .. . ... ... : ... .. . ... ... : ... .. . ... ... : ... .. . ... : ... .. . ... ... : ... .. . ... ... ... ...
ROW 62 : ... .. . ... ... : ... .. . ... ... : ... .. . ... ... : ... .. . ... : ... .. . ... ... : ... .. . ... ... ... ...
ROW 63 : ... .. . ... ... : ... .. . ... ... : ... .. . ... ... : ... .. . ... : ... .. . ... ... : ... .. . ... ... ... ...
ROW 64 : ... .. . ... ... : ... .. . ... ... : ... .. . ... ... : ... .. . ... : ... .. . ... ... : ... .. . ... ... ... ...
ROW 65 : ... .. . ... ... : ... .. . ... ... : ... .. . ... ... : ... .. . ... : ... .. . ... ... : ... .. . ... ... ... ...
ROW 66 : ... .. . ... ... : ... .. . ... ... : ... .. . ... ... : ... .. . ... : ... .. . ... ... : ... .. . ... ... ... ...
ROW 67 : ... .. . ... ... : ... .. . ... ... : ... .. . ... ... : ... .. . ... : ... .. . ... ... : ... .. . ... ... ... ...
ROW 68 : ... .. . ... ... : ... .. . ... ... : ... .. . ... ... : ... .. . ... : ... .. . ... ... : ... .. . ... ... ... ...
ROW 69 : ... .. . ... ... : ... .. . ... ... : ... .. . ... ... : ... .. . ... : ... .. . ... ... : ... .. . ... ... ... ...
ROW 6A : ... .. . ... ... : ... .. . ... ... : ... .. . ... ... : ... .. . ... : ... .. . ... ... : ... .. . ... ... ... ...
ROW 6B : ... .. . ... ... : ... .. . ... ... : ... .. . ... ... : ... .. . ... : ... .. . ... ... : ... .. . ... ... ... ...
ROW 6C : ... .. . ... ... : ... .. . ... ... : ... .. . ... ... : ... .. . ... : ... .. . ... ... : ... .. . ... ... ... ...
ROW 6D : ... .. . ... ... : ... .. . ... ... : ... .. . ... ... : ... .. . ... : ... .. . ... ... : ... .. . ... ... ... ...
ROW 6E : ... .. . ... ... : ... .. . ... ... : ... .. . ... ... : ... .. . ... : ... .. . ... ... : ... .. . ... ... ... ...
ROW 6F : ... .. . ... ... : ... .. . ... ... : ... .. . ... ... : ... .. . ... : ... .. . ... ... : ... .. . ... ... ... ...
ROW 70 : ... .. . ... ... : ... .. . ... ... : ... .. . ... ... : ... .. . ... : ... .. . ... ... : ... .. . ... ... ... ...
ROW 71 : ... .. . ... ... : ... .. . ... ... : ... .. . ... ... : ... .. . ... : ... .. . ... ... : ... .. . ... ... ... ...
ROW 72 : ... .. . ... ... : ... .. . ... ... : ... .. . ... ... : ... .. . ... : ... .. . ... ... : ... .. . ... ... ... ...
ROW 73 : ... .. . ... ... : ... .. . ... ... : ... .. . ... ... : ... .. . ... : ... .. . ... ... : ... .. . ... ... ... ...
ROW 74 : ... .. . ... ... : ... .. . ... ... : ... .. . ... ... : ... .. . ... : ... .. . ... ... : ... .. . ... ... ... ...
ROW 75 : ... .. . ... ... : ... .. . ... ... : ... .. . ... ... : ... .. . ... : ... .. . ... ... : ... .. . ... ... ... ...
ROW 76 : ... .. . ... ... : ... .. . ... ... : ... .. . ... ... : ... .. . ... : ... .. . ... ... : ... .. . ... ... ... ...
ROW 77 : ... .. . ... ... : ... .. . ... ... : ... .. . ... ... : ... .. . ... : ... .. . ... ... : ... .. . ... ... ... ...
ROW 78 : ... .. . ... ... : ... .. . ... ... : ... .. . ... ... : ... .. . ... : ... .. . ... ... : ... .. . ... ... ... ...
ROW 79 : ... .. . ... ... : ... .. . ... ... : ... .. . ... ... : ... .. . ... : ... .. . ... ... : ... .. . ... ... ... ...
ROW 7A : ... .. . ... ... : ... .. . ... ... : ... .. . ... ... : ... .. . ... : ... .. . ... ... : ... .. . ... ... ... ...
ROW 7B : ... .. . ... ... : ... .. . ... ... : ... .. . ... ... : ... .. . ... : ... .. . ... ... : ... .. . ... ... ... ...
ROW 7C : ... .. . ... ... : ... .. . ... ... : ... .. . ... ... : ... .. . ... : ... .. . ... ... : ... .. . ... ... ... ...
ROW 7D : ... .. . ... ... : ... .. . ... ... : ... .. . ... ... : ... .. . ... : ... .. . ... ... : ... .. . ... ... ... ...
ROW 7E : ... .. . ... ... : ... .. . ... ... : ... .. . ... ... : ... .. . ... : ... .. . ... ... : ... .. . ... ... ... ...
ROW 7F : ... .. . ... ... : ... .. . ... ... : ... .. . ... ... : ... .. . ... : ... .. . ... ... : ... .. . ... ... ... ...
ROW 80 : ... .. . ... ... : ... .. . ... ... : ... .. . ... ... : ... .. . ... : ... .. . ... ... : ... .. . ... ... ... ...
ROW 81 : ... .. . ... ... : ... .. . ... ... : ... .. . ... ... : ... .. . ... : ... .. . ... ... : ... .. . ... ... ... ...
ROW 82 : ... .. . ... ... : ... .. . ... ... : ... .. . ... ... : ... .. . ... : ... .. . ... ... : ... .. . ... ... ... ...
ROW 83 : ... .. . ... ... : ... .. . ... ... : ... .. . ... ... : ... .. . ... : ... .. . ... ... : ... .. . ... ... ... ...
ROW 84 : ... .. . ... ... : ... .. . ... ... : ... .. . ... ... : ... .. . ... : ... .. . ... ... : ... .. . ... ... ... ...
ROW 85 : ... .. . ... ... : ... .. . ... ... : ... .. . ... ... : ... .. . ... : ... .. . ... ... : ... .. . ... ... ... ...
ROW 86 : ... .. . ... ... : ... .. . ... ... : ... .. . ... ... : ... .. . ... : ... .. . ... ... : ... .. . ... ... ... ...
ROW 87 : ... .. . ... ... : ... .. . ... ... : ... .. . ... ... : ... .. . ... : ... .. . ... ... : ... .. . ... ... ... ...
ROW 88 : ... .. . ... ... : ... .. . ... ... : ... .. . ... ... : ... .. . ... : ... .. . ... ... : ... .. . ... ... ... ...
ROW 89 : ... .. . ... ... : ... .. . ... ... : ... .. . ... ... : ... .. . ... : ... .. . ... ... : ... .. . ... ... ... ...
ROW 8A : ... .. . ... ... : ... .. . ... ... : ... .. . ... ... : ... .. . ... : ... .. . ... ... : ... .. . ... ... ... ...
ROW 8B : ... .. . ... ... : ... .. . ... ... : ... .. . ... ... : ... .. . ... : ... .. . ... ... : ... .. . ... ... ... ...
ROW 8C : ... .. . ... ... : ... .. . ... ... : ... .. . ... ... : ... .. . ... : ... .. . ... ... : ... .. . ... ... ... ...
ROW 8D : ... .. . ... ... : ... .. . ... ... : ... .. . ... ... : ... .. . ... : ... .. . ... ... : ... .. . ... ... ... ...
ROW 8E : ... .. . ... ... : ... .. . ... ... : ... .. . ... ... : ... .. . ... : ... .. . ... ... : ... .. . ... ... ... ...
ROW 8F : ... .. . ... ... : ... .. . ... ... : ... .. . ... ... : ... .. . ... : ... .. . ... ... : ... .. . ... ... ... ...
ROW 90 : ... .. . ... ... : ... .. . ... ... : ... .. . ... ... : ... .. . ... : ... .. . ... ... : ... .. . ... ... ... ...
ROW 91 : ... .. . ... ... : ... .. . ... ... : ... .. . ... ... : ... .. . ... : ... .. . ... ... : ... .. . ... ... ... ...
ROW 92 : ... .. . ... ... : ... .. . ... ... : ... .. . ... ... : ... .. . ... : ... .. . ... ... : ... .. . ... ... ... ...
ROW 93 : ... .. . ... ... : ... .. . ... ... : ... .. . ... ... : ... .. . ... : ... .. . ... ... : ... .. . ... ... ... ...
ROW 94 : ... .. . ... ... : ... .. . ... ... : ... .. . ... ... : ... .. . ... : ... .. . ... ... : ... .. . ... ... ... ...
ROW 95 : ... .. . ... ... : ... .. . ... ... : ... .. . ... ... : ... .. . ... : ... .. . ... ... : ... .. . ... ... ... ...
ROW 96 : ... .. . ... ... : ... .. . ... ... : ... .. . ... ... : ... .. . ... : ... .. . ... ... : ... .. . ... ... ... ...
ROW 97 : ... .. . ... ... : ... .. . ... ... : ... .. . ... ... : ... .. . ... : ... .. . ... ... : ... .. . ... ... ... ...
ROW 98 : ... .. . ... ... : ... .. . ... ... : ... .. . ... ... : ... .. . ... : ... .. . ... ... : ... .. . ... ... ... ...
ROW 99 : ... .. . ... ... : ... .. . ... ... : ... .. . ... ... : ... .. . ... : ... .. . ... ... : ... .. . ... ... ... ...
ROW 9A : ... .. . ... ... : ... .. . ... ... : ... .. . ... ... : ... .. . ... : ... .. . ... ... : ... .. . ... ... ... ...
ROW 9B : ... .. . ... ... : ... .. . ... ... : ... .. . ... ... : ... .. . ... : ... .. . ... ... : ... .. . ... ... ... ...
ROW 9C : ... .. . ... ... : ... .. . ... ... : ... .. . ... ... : ... .. . ... : ... .. . ... ... : ... .. . ... ... ... ...
ROW 9D : ... .. . ... ... : ... .. . ... ... : ... .. . ... ... : ... .. . ... : ... .. . ... ... : ... .. . ... ... ... ...
ROW 9E : ... .. . ... ... : ... .. . ... ... : ... .. . ... ... : ... .. . ... : ... .. . ... ... : ... .. . ... ... ... ...
ROW 9F : ... .. . ... ... : ... .. . ... ... : ... .. . ... ... : ... .. . ... : ... .. . ... ... : ... .. . ... ... ... ...
ROW A0 : ... .. . ... ... : ... .. . ... ... : ... .. . ... ... : ... .. . ... : ... .. . ... ... : ... .. . ... ... ... ...
ROW A1 : ... .. . ... ... : ... .. . ... ... : ... .. . ... ... : ... .. . ... : ... .. . ... ... : ... .. . ... ... ... ...
ROW A2 : ... .. . ... ... : ... .. . ... ... : ... .. . ... ... : ... .. . ... : ... .. . ... ... : ... .. . ... ... ... ...
ROW A3 : ... .. . ... ... : ... .. . ... ... : ... .. . ... ... : ... .. . ... : ... .. . ... ... : ... .. . ... ... ... ...
ROW A4 : ... .. . ... ... : ... .. . ... ... : ... .. . ... ... : ... .. . ... : ... .. . ... ... : ... .. . ... ... ... ...
ROW A5 : ... .. . ... ... : ... .. . ... ... : ... .. . ... ... : ... .. . ... : ... .. . ... ... : ... .. . ... ... ... ...
ROW A6 : ... .. . ... ... : ... .. . ... ... : ... .. . ... ... : ... .. . ... : ... .. . ... ... : ... .. . ... ... ... ...
ROW A7 : ... .. . ... ... : ... .. . ... ... : ... .. . ... ... : ... .. . ... : ... .. . ... ... : ... .. . ... ... ... ...
ROW A8 : ... .. . ... ... : ... .. . ... ... : ... .. . ... ... : ... .. . ... : ... .. . ... ... : ... .. . ... ... ... ...
ROW A9 : ... .. . ... ... : ... .. . ... ... : ... .. . ... ... : ... .. . ... : ... .. . ... ... : ... .. . ... ... ... ...
ROW AA : ... .. . ... ... : ... .. . ... ... : ... .. . ... ... : ... .. . ... : ... .. . ... ... : ... .. . ... ... ... ...
ROW AB : ... .. . ... ... : ... .. . ... ... : ... .. . ... ... : ... .. . ... : ... .. . ... ... : ... .. . ... ... ... ...
ROW AC : ... .. . ... ... : ... .. . ... ... : ... .. . ... ... : ... .. . ... : ... .. . ... ... : ... .. . ... ... ... ...
ROW AD : ... .. . ... ... : ... .. . ... ... : ... .. . ... ... : ... .. . ... : ... .. . ... ... : ... .. . ... ... ... ...
ROW AE : ... .. . ... ... : ... .. . ... ... : ... .. . ... ... : ... .. . ... : ... .. . ... ... : ... .. . ... ... ... ...
ROW AF : ... .. . ... ... : ... .. . ... ... : ... .. . ... ... : ... .. . ... : ... .. . ... ... : ... .. . ... ... ... ...
ROW B0 : ... .. . ... ... : ... .. . ... ... : ... .. . ... ... : ... .. . ... : ... .. . ... ... : ... .. . ... ... ... ...
ROW B1 : ... .. . ... ... : ... .. . ... ... : ... .. . ... ... : ... .. . ... : ... .. . ... ... : ... .. . ... ... ... ...
ROW B2 : ... .. . ... ... : ... .. . ... ... : ... .. . ... ... : ... .. . ... : ... .. . ... ... : ... .. . ... ... ... ...
ROW B3 : ... .. . ... ... : ... .. . ... ... : ... .. . ... ... : ... .. . ... : ... .. . ... ... : ... .. . ... ... ... ...
ROW B4 : ... .. . ... ... : ... .. . ... ... : ... .. . ... ... : ... .. . ... : ... .. . ... ... : ... .. . ... ... ... ...
ROW B5 : ... .. . ... ... : ... .. . ... ... : ... .. . ... ... : ... .. . ... : ... .. . ... ... : ... .. . ... ... ... ...
ROW B6 : ... .. . ... ... : ... .. . ... ... : ... .. . ... ... : ... .. . ... : ... .. . ... ... : ... .. . ... ... ... ...
ROW B7 : ... .. . ... ... : ... .. . ... ... : ... .. . ... ... : ... .. . ... : ... .. . ... ... : ... .. . ... ... ... ...
ROW B8 : ... .. . ... ... : ... .. . ... ... : ... .. . ... ... : ... .. . ... : ... .. . ... ... : ... .. . ... ... ... ...
ROW B9 : ... .. . ... ... : ... .. . ... ... : ... .. . ... ... : ... .. . ... : ... .. . ... ... : ... .. . ... ... ... ...
ROW BA : ... .. . ... ... : ... .. . ... ... : ... .. . ... ... : ... .. . ... : ... .. . ... ... : ... .. . ... ... ... ...
ROW BB : ... .. . ... ... : ... .. . ... ... : ... .. . ... ... : ... .. . ... : ... .. . ... ... : ... .. . ... ... ... ...
ROW BC : ... .. . ... ... : ... .. . ... ... : ... .. . ... ... : ... .. . ... : ... .. . ... ... : ... .. . ... ... ... ...
ROW BD : ... .. . ... ... : ... .. . ... ... : ... .. . ... ... : ... .. . ... : ... .. . ... ... : ... .. . ... ... ... ...
ROW BE : ... .. . ... ... : ... .. . ... ... : ... .. . ... ... : ... .. . ... : ... .. . ... ... : ... .. . ... ... ... ...
ROW BF : ... .. . ... ... : ... .. . ... ... : ... .. . ... ... : ... .. . ... : ... .. . ... ... : ... .. . ... ... ... ...
ROW C0 : ... .. . ... ... : ... .. . ... ... : ... .. . ... ... : ... .. . ... : ... .. . ... ... : ... .. . ... ... ... ...
ROW C1 : ... .. . ... ... : ... .. . ... ... : ... .. . ... ... : ... .. . ... : ... .. . ... ... : ... .. . ... ... ... ...
ROW C2 : ... .. . ... ... : ... .. . ... ... : ... .. . ... ... : ... .. . ... : ... .. . ... ... : ... .. . ... ... ... ...
ROW C3 : ... .. . ... ... : ... .. . ... ... : ... .. . ... ... : ... .. . ... : ... .. . ... ... : ... .. . ... ... ... ...
ROW C4 : ... .. . ... ... : ... .. . ... ... : ... .. . ... ... : ... .. . ... : ... .. . ... ... : ... .. . ... ... ... ...
ROW C5 : ... .. . ... ... : ... .. . ... ... : ... .. . ... ... : ... .. . ... : ... .. . ... ... : ... .. . ... ... ... ...
ROW C6 : ... .. . ... ... : ... .. . ... ... : ... .. . ... ... : ... .. . ... : ... .. . ... ... : ... .. . ... ... ... ...
ROW C7 : ... .. . ... ... : ... .. . ... ... : ... .. . ... ... : ... .. . ... : ... .. . ... ... : ... .. . ... ... ... ...
ROW C8 : ... .. . ... ... : ... .. . ... ... : ... .. . ... ... : ... .. . ... : ... .. . ... ... : ... .. . ... ... ... ...
ROW C9 : ... .. . ... ... : ... .. . ... ... : ... .. . ... ... : ... .. . ... : ... .. . ... ... : ... .. . ... ... ... ...
ROW CA : ... .. . ... ... : ... .. . ... ... : ... .. . ... ... : ... .. . ... : ... .. . ... ... : ... .. . ... ... ... ...
ROW CB : ... .. . ... ... : ... .. . ... ... : ... .. . ... ... : ... .. . ... : ... .. . ... ... : ... .. . ... ... ... ...
ROW CC : ... .. . ... ... : ... .. . ... ... : ... .. . ... ... : ... .. . ... : ... .. . ... ... : ... .. . ... ... ... ...
ROW CD : ... .. . ... ... : ... .. . ... ... : ... .. . ... ... : ... .. . ... : ... .. . ... ... : ... .. . ... ... ... ...
ROW CE : ... .. . ... ... : ... .. . ... ... : ... .. . ... ... : ... .. . ... : ... .. . ... ... : ... .. . ... ... ... ...
ROW CF : ... .. . ... ... : ... .. . ... ... : ... .. . ... ... : ... .. . ... : ... .. . ... ... : ... .. . ... ... ... ...
ROW D0 : ... .. . ... ... : ... .. . ... ... : ... .. . ... ... : ... .. . ... : ... .. . ... ... : ... .. . ... ... ... ...
ROW D1 : ... .. . ... ... : ... .. . ... ... : ... .. . ... ... : ... .. . ... : ... .. . ... ... : ... .. . ... ... ... ...
ROW D2 : ... .. . ... ... : ... .. . ... ... : ... .. . ... ... : ... .. . ... : ... .. . ... ... : ... .. . ... ... ... ...
ROW D3 : ... .. . ... ... : ... .. . ... ... : ... .. . ... ... : ... .. . ... : ... .. . ... ... : ... .. . ... ... ... ...
ROW D4 : ... .. . ... ... : ... .. . ... ... : ... .. . ... ... : ... .. . ... : ... .. . ... ... : ... .. . ... ... ... ...
ROW D5 : ... .. . ... ... : ... .. . ... ... : ... .. . ... ... : ... .. . ... : ... .. . ... ... : ... .. . ... ... ... ...
ROW D6 : ... .. . ... ... : ... .. . ... ... : ... .. . ... ... : ... .. . ... : ... .. . ... ... : ... .. . ... ... ... ...
ROW D7 : ... .. . ... ... : ... .. . ... ... : ... .. . ... ... : ... .. . ... : ... .. . ... ... : ... .. . ... ... ... ...
ROW D8 : ... .. . ... ... : ... .. . ... ... : ... .. . ... ... : ... .. . ... : ... .. . ... ... : ... .. . ... ... ... ...
ROW D9 : ... .. . ... ... : ... .. . ... ... : ... .. . ... ... : ... .. . ... : ... .. . ... ... : ... .. . ... ... ... ...
ROW DA : ... .. . ... ... : ... .. . ... ... : ... .. . ... ... : ... .. . ... : ... .. . ... ... : ... .. . ... ... ... ...
ROW DB : ... .. . ... ... : ... .. . ... ... : ... .. . ... ... : ... .. . ... : ... .. . ... ... : ... .. . ... ... ... ...
ROW DC : ... .. . ... ... : ... .. . ... ... : ... .. . ... ... : ... .. . ... : ... .. . ... ... : ... .. . ... ... ... ...
ROW DD : ... .. . ... ... : ... .. . ... ... : ... .. . ... ... : ... .. . ... : ... .. . ... ... : ... .. . ... ... ... ...
ROW DE : ... .. . ... ... : ... .. . ... ... : ... .. . ... ... : ... .. . ... : ... .. . ... ... : ... .. . ... ... ... ...
ROW DF : ... .. . ... ... : ... .. . ... ... : ... .. . ... ... : ... .. . ... : ... .. . ... ... : ... .. . ... ... ... ...
ROW E0 : ... .. . ... ... : ... .. . ... ... : ... .. . ... ... : ... .. . ... : ... .. . ... ... : ... .. . ... ... ... ...
ROW E1 : ... .. . ... ... : ... .. . ... ... : ... .. . ... ... : ... .. . ... : ... .. . ... ... : ... .. . ... ... ... ...
ROW E2 : ... .. . ... ... : ... .. . ... ... : ... .. . ... ... : ... .. . ... : ... .. . ... ... : ... .. . ... ... ... ...
ROW E3 : ... .. . ... ... : ... .. . ... ... : ... .. . ... ... : ... .. . ... : ... .. . ... ... : ... .. . ... ... ... ...
ROW E4 : ... .. . ... ... : ... .. . ... ... : ... .. . ... ... : ... .. . ... : ... .. . ... ... : ... .. . ... ... ... ...
ROW E5 : ... .. . ... ... : ... .. . ... ... : ... .. . ... ... : ... .. . ... : ... .. . ... ... : ... .. . ... ... ... ...
ROW E6 : ... .. . ... ... : ... .. . ... ... : ... .. . ... ... : ... .. . ... : ... .. . ... ... : ... .. . ... ... ... ...
ROW E7 : ... .. . ... ... : ... .. . ... ... : ... .. . ... ... : ... .. . ... : ... .. . ... ... : ... .. . ... ... ... ...
ROW E8 : ... .. . ... ... : ... .. . ... ... : ... .. . ... ... : ... .. . ... : ... .. . ... ... : ... .. . ... ... ... ...
ROW E9 : ... .. . ... ... : ... .. . ... ... : ... .. . ... ... : ... .. . ... : ... .. . ... ... : ... .. . ... ... ... ...
ROW EA : ... .. . ... ... : ... .. . ... ... : ... .. . ... ... : ... .. . ... : ... .. . ... ... : ... .. . ... ... ... ...
ROW EB : ... .. . ... ... : ... .. . ... ... : ... .. . ... ... : ... .. . ... : ... .. . ... ... : ... .. . ... ... ... ...
ROW EC : ... .. . ... ... : ... .. . ... ... : ... .. . ... ... : ... .. . ... : ... .. . ... ... : ... .. . ... ... ... ...
ROW ED : ... .. . ... ... : ... .. . ... ... : ... .. . ... ... : ... .. . ... : ... .. . ... ... : ... .. . ... ... ... ...
ROW EE : ... .. . ... ... : ... .. . ... ... : ... .. . ... ... : ... .. . ... : ... .. . ... ... : ... .. . ... ... ... ...
ROW EF : ... .. . ... ... : ... .. . ... ... : ... .. . ... ... : ... .. . ... : ... .. . ... ... : ... .. . ... ... ... ...
ROW F0 : ... .. . ... ... : ... .. . ... ... : ... .. . ... ... : ... .. . ... : ... .. . ... ... : ... .. . ... ... ... ...
ROW F1 : ... .. . ... ... : ... .. . ... ... : ... .. . ... ... : ... .. . ... : ... .. . ... ... : ... .. . ... ... ... ...
ROW F2 : ... .. . ... ... : ... .. . ... ... : ... .. . ... ... : ... .. . ... : ... .. . ... ... : ... .. . ... ... ... ...
ROW F3 : ... .. . ... ... : ... .. . ... ... : ... .. . ... ... : ... .. . ... : ... .. . ... ... : ... .. . ... ... ... ...
ROW F4 : ... .. . ... ... : ... .. . ... ... : ... .. . ... ... : ... .. . ... : ... .. . ... ... : ... .. . ... ... ... ...
ROW F5 : ... .. . ... ... : ... .. . ... ... : ... .. . ... ... : ... .. . ... : ... .. . ... ... : ... .. . ... ... ... ...
ROW F6 : ... .. . ... ... : ... .. . ... ... : ... .. . ... ... : ... .. . ... : ... .. . ... ... : ... .. . ... ... ... ...
ROW F7 : ... .. . ... ... : ... .. . ... ... : ... .. . ... ... : ... .. . ... : ... .. . ... ... : ... .. . ... ... ... ...
ROW F8 : ... .. . ... ... : ... .. . ... ... : ... .. . ... ... : ... .. . ... : ... .. . ... ... : ... .. . ... ... ... ...
ROW F9 : ... .. . ... ... : ... .. . ... ... : ... .. . ... ... : ... .. . ... : ... .. . ... ... : ... .. . ... ... ... ...
ROW FA : ... .. . ... ... : ... .. . ... ... : ... .. . ... ... : ... .. . ... : ... .. . ... ... : ... .. . ... ... ... ...
ROW FB : ... .. . ... ... : ... .. . ... ... : ... .. . ... ... : ... .. . ... : ... .. . ... ... : ... .. . ... ... ... ...
ROW FC : ... .. . ... ... : ... .. . ... ... : ... .. . ... ... : ... .. . ... : ... .. . ... ... : ... .. . ... ... ... ...
ROW FD : ... .. . ... ... : ... .. . ... ... : ... .. . ... ... : ... .. . ... : ... .. . ... ... : ... .. . ... ... ... ...
ROW FE : ... .. . ... ... : ... .. . ... ... : ... .. . ... ... : ... .. . ... : ... .. . ... ... : ... .. . ... ... ... ...
ROW FF : ... .. . ... ... : ... .. . ... ... : ... .. . ... ... : ... .. . ... : ... .. . ... ... : ... .. . ... ... ... ...

PATTERN 19
ROW 00 : B-2 18 8 ... ... : G-2 14 5 G01 ... : E-3 03 . 200 ... : ... .. . ... : E-3 1E . F04 ... : E-4 16 A ... I06 J09 ...
ROW 01 : ... .. 4 ... ... : ... .. . ... ... : ... .. . ... ... : ... .. . ... : ... .. . ... ... : ... .. 5 G01 ... ... ...
ROW 02 : F#2 18 8 ... ... : ... .. . ... ... : ... .. . S03 ... : ... .. . ... : ... .. . ... ... : B-3 16 A ... I04 J85 ...
ROW 03 : B-2 18 4 ... ... : ... .. . ... ... : ... .. . ... ... : ... .. . ... : ... .. . ... ... : E-4 16 5 G01 I06 J09 ...
ROW 04 : D-2 18 8 ... ... : ... .. . ... ... : E-3 03 . 200 ... : ... .. . ... : ... .. . ... ... : G-3 16 A ... I03 J97 ...
ROW 05 : F#2 18 4 ... ... : ... .. . ... ... : ... .. . S03 ... : ... .. . ... : ... .. . ... ... : B-3 16 5 G01 I04 J85 ...
ROW 06 : F#2 18 8 ... ... : F#2 15 . G01 ... : E-4 03 . 236 ... : ... .. . ... : ... .. . ... ... : B-3 16 A ... I04 J85 ...
ROW 07 : D-2 18 4 ... ... : ... .. . ... ... : ... .. . ... ... : ... .. . ... : ... .. . ... ... : G-3 16 5 G01 I03 J97 ...
ROW 08 : B-2 18 8 ... ... : ... .. . ... ... : ... .. . ... ... : ... .. . ... : E-3 1E . ... ... : E-4 16 A ... I06 J09 ...
ROW 09 : F#2 18 4 ... ... : ... .. . ... ... : ... .. . ... ... : ... .. . ... : ... .. . ... ... : B-3 16 5 G01 I04 J85 ...
ROW 0A : F#2 18 8 ... ... : ... .. . ... ... : ... .. . ... ... : ... .. . ... : ... .. . ... ... : B-3 16 A ... I04 J85 ...
ROW 0B : B-2 18 4 ... ... : ... .. . ... ... : ... .. . ... ... : ... .. . ... : ... .. . ... ... : E-4 16 5 G01 I06 J09 ...
ROW 0C : D-2 18 8 ... ... : E-2 15 . G01 ... : E-3 03 . 200 ... : ... .. . ... : ... .. . ... ... : G-3 16 A ... I03 J97 ...
ROW 0D : F#2 18 4 ... ... : ... .. . ... ... : ... .. . S03 ... : ... .. . ... : ... .. . ... ... : B-3 16 5 G01 I04 J85 ...
ROW 0E : F#2 18 8 ... ... : ... .. . ... ... : E-3 03 . ... ... : ... .. . ... : ... .. . ... ... : B-3 16 A ... I04 J85 ...
ROW 0F : D-2 18 4 ... ... : ... .. . ... ... : ... .. . S03 ... : ... .. . ... : ... .. . ... ... : G-3 16 5 G01 I03 J97 ...
ROW 10 : B-2 18 8 ... ... : ... .. . ... ... : ... .. . ... ... : ... .. . ... : E-3 1E . ... ... : E-4 16 A ... I06 J09 ...
ROW 11 : F#2 18 4 ... ... : ... .. . ... ... : ... .. . ... ... : ... .. . ... : ... .. . ... ... : B-3 16 5 G01 I04 J85 ...
ROW 12 : F#2 18 8 ... ... : ... .. . ... ... : ... .. . ... ... : ... .. . ... : ... .. . ... ... : B-3 16 A ... I04 J85 ...
ROW 13 : B-2 18 4 ... ... : ... .. . ... ... : ... .. . ... ... : ... .. . ... : ... .. . ... ... : E-4 16 5 G01 I06 J09 ...
ROW 14 : D-2 18 8 ... ... : ... .. . ... ... : G-3 03 . ... ... : ... .. . ... : ... .. . ... ... : G-3 16 A ... I03 J97 ...
ROW 15 : F#2 18 4 ... ... : ... .. . ... ... : ... .. . ... ... : ... .. . ... : ... .. . ... ... : B-3 16 5 G01 I04 J85 ...
ROW 16 : F#2 18 8 ... ... : ... .. . ... ... : ... .. . S03 ... : ... .. . ... : ... .. . ... ... : B-3 16 A ... I04 J85 ...
ROW 17 : D-2 18 4 ... ... : ... .. . ... ... : ... .. . ... ... : ... .. . ... : ... .. . ... ... : G-3 16 5 G01 I03 J97 ...
ROW 18 : B-2 18 8 ... ... : E-2 15 . G01 ... : B-3 03 . ... ... : ... .. . ... : E-3 1E . ... ... : E-4 16 A ... I06 J09 ...
ROW 19 : F#2 18 4 ... ... : ... .. . ... ... : ... .. . ... ... : ... .. . ... : ... .. . ... ... : B-3 16 5 G01 I04 J85 ...
ROW 1A : F#2 18 8 ... ... : ... .. . ... ... : ... .. . S03 ... : ... .. . ... : ... .. . ... ... : B-3 16 A ... I04 J85 ...
ROW 1B : B-2 18 4 ... ... : ... .. . ... ... : ... .. . ... ... : ... .. . ... : ... .. . ... ... : E-4 16 5 G01 I06 J09 ...
ROW 1C : D-2 18 8 ... ... : F#2 15 . G01 ... : B-4 03 . 236 ... : ... .. . ... : ... .. . ... ... : G-3 16 A ... I03 J97 ...
ROW 1D : F#2 18 4 ... ... : ... .. . ... ... : ... .. . ... ... : ... .. . ... : ... .. . ... ... : B-3 16 5 G01 I04 J85 ...
ROW 1E : F#2 18 8 ... ... : ... .. . ... ... : ... .. . ... ... : ... .. . ... : ... .. . ... ... : B-3 16 A ... I04 J85 ...
ROW 1F : D-2 18 4 ... ... : ... .. . ... ... : ... .. . ... ... : ... .. . ... : ... .. . ... ... : G-3 16 5 G01 I03 J97 ...
ROW 20 : B-2 18 8 ... ... : G-2 14 . G01 ... : E-3 03 . 200 ... : ... .. . ... : F#3 20 . ... ... : E-4 16 A ... I06 J09 ...
ROW 21 : F#2 18 4 ... ... : ... .. . ... ... : ... .. . ... ... : ... .. . ... : ... .. . ... ... : B-3 16 5 G01 I04 J85 ...
ROW 22 : F#2 18 8 ... ... : ... .. . ... ... : ... .. . S03 ... : ... .. . ... : ... .. . ... ... : B-3 16 A ... I04 J85 ...
ROW 23 : B-2 18 4 ... ... : ... .. . ... ... : ... .. . ... ... : ... .. . ... : ... .. . ... ... : E-4 16 5 G01 I06 J09 ...
ROW 24 : D-2 18 8 ... ... : ... .. . ... ... : E-3 03 . 200 ... : ... .. . ... : ... .. . ... ... : G-3 16 A ... I03 J97 ...
ROW 25 : F#2 18 4 ... ... : ... .. . ... ... : ... .. . S03 ... : ... .. . ... : ... .. . ... ... : B-3 16 5 G01 I04 J85 ...
ROW 26 : F#2 18 8 ... ... : F#2 15 . G01 ... : E-4 03 . 236 ... : ... .. . ... : ... .. . ... ... : B-3 16 A ... I04 J85 ...
ROW 27 : D-2 18 4 ... ... : ... .. . ... ... : ... .. . ... ... : ... .. . ... : ... .. . ... ... : G-3 16 5 G01 I03 J97 ...
ROW 28 : B-2 18 8 ... ... : ... .. . ... ... : ... .. . ... ... : ... .. . ... : F#3 20 . ... ... : E-4 16 A ... I06 J09 ...
ROW 29 : F#2 18 4 ... ... : ... .. . ... ... : ... .. . ... ... : ... .. . ... : ... .. . ... ... : B-3 16 5 G01 I04 J85 ...
ROW 2A : F#2 18 8 ... ... : ... .. . ... ... : ... .. . ... ... : ... .. . ... : ... .. . ... ... : B-3 16 A ... I04 J85 ...
ROW 2B : B-2 18 4 ... ... : ... .. . ... ... : ... .. . ... ... : ... .. . ... : ... .. . ... ... : E-4 16 5 G01 I06 J09 ...
ROW 2C : D-2 18 8 ... ... : E-2 15 . G01 ... : E-3 03 . 200 ... : ... .. . ... : ... .. . ... ... : G-3 16 A ... I03 J97 ...
ROW 2D : F#2 18 4 ... ... : ... .. . ... ... : ... .. . S03 ... : ... .. . ... : ... .. . ... ... : B-3 16 5 G01 I04 J85 ...
ROW 2E : F#2 18 8 ... ... : ... .. . ... ... : E-3 03 . ... ... : ... .. . ... : ... .. . ... ... : B-3 16 A ... I04 J85 ...
ROW 2F : D-2 18 4 ... ... : ... .. . ... ... : ... .. . S03 ... : ... .. . ... : ... .. . ... ... : G-3 16 5 G01 I03 J97 ...
ROW 30 : B-2 18 8 ... ... : ... .. . ... ... : ... .. . ... ... : ... .. . ... : F#3 20 . ... ... : E-4 16 A ... I06 J09 ...
ROW 31 : F#2 18 4 ... ... : ... .. . ... ... : ... .. . ... ... : ... .. . ... : ... .. . ... ... : B-3 16 5 G01 I04 J85 ...
ROW 32 : F#2 18 8 ... ... : ... .. . ... ... : ... .. . ... ... : ... .. . ... : ... .. . ... ... : B-3 16 A ... I04 J85 ...
ROW 33 : B-2 18 4 ... ... : ... .. . ... ... : ... .. . ... ... : ... .. . ... : ... .. . ... ... : E-4 16 5 G01 I06 J09 ...
ROW 34 : D-2 18 8 ... ... : ... .. . ... ... : G-3 03 . ... ... : ... .. . ... : ... .. . ... ... : G-3 16 A ... I03 J97 ...
ROW 35 : F#2 18 4 ... ... : ... .. . ... ... : ... .. . ... ... : ... .. . ... : ... .. . ... ... : B-3 16 5 G01 I04 J85 ...
ROW 36 : F#2 18 8 ... ... : ... .. . ... ... : ... .. . S03 ... : ... .. . ... : ... .. . ... ... : B-3 16 A ... I04 J85 ...
ROW 37 : D-2 18 4 ... ... : ... .. . ... ... : ... .. . ... ... : ... .. . ... : ... .. . ... ... : G-3 16 5 G01 I03 J97 ...
ROW 38 : B-2 18 8 ... ... : E-2 15 . G01 ... : B-3 03 . ... ... : ... .. . ... : F#3 20 . ... ... : E-4 16 A ... I06 J09 ...
ROW 39 : F#2 18 4 ... ... : ... .. . ... ... : ... .. . ... ... : ... .. . ... : ... .. . ... ... : B-3 16 5 G01 I04 J85 ...
ROW 3A : F#2 18 8 ... ... : ... .. . ... ... : ... .. . S03 ... : ... .. . ... : ... .. . ... ... : B-3 16 A ... I04 J85 ...
ROW 3B : B-2 18 4 ... ... : ... .. . ... ... : ... .. . ... ... : ... .. . ... : ... .. . ... ... : E-4 16 5 G01 I06 J09 ...
ROW 3C : D-2 18 8 ... ... : F#2 15 . G01 ... : B-4 03 . 236 ... : ... .. . ... : ... .. . ... ... : G-3 16 A ... I03 J97 ...
ROW 3D : F#2 18 4 ... ... : ... .. . ... ... : ... .. . ... ... : ... .. . ... : ... .. . ... ... : B-3 16 5 G01 I04 J85 ...
ROW 3E : F#2 18 8 ... ... : ... .. . ... ... : ... .. . ... ... : ... .. . ... : ... .. . ... ... : B-3 16 A ... I04 J85 ...
ROW 3F : D-2 18 4 ... ... : ... .. . ... ... : ... .. . ... ... : ... .. . ... : ... .. . D00 ... : G-3 16 5 G01 I03 J97 ...
ROW 40 : ... .. . ... ... : ... .. . ... ... : ... .. . ... ... : ... .. . ... : ... .. . ... ... : ... .. . ... ... ... ...
ROW 41 : ... .. . ... ... : ... .. . ... ... : ... .. . ... ... : ... .. . ... : ... .. . ... ... : ... .. . ... ... ... ...
ROW 42 : ... .. . ... ... : ... .. . ... ... : ... .. . ... ... : ... .. . ... : ... .. . ... ... : ... .. . ... ... ... ...
ROW 43 : ... .. . ... ... : ... .. . ... ... : ... .. . ... ... : ... .. . ... : ... .. . ... ... : ... .. . ... ... ... ...
ROW 44 : ... .. . ... ... : ... .. . ... ... : ... .. . ... ... : ... .. . ... : ... .. . ... ... : ... .. . ... ... ... ...
ROW 45 : ... .. . ... ... : ... .. . ... ... : ... .. . ... ... : ... .. . ... : ... .. . ... ... : ... .. . ... ... ... ...
ROW 46 : ... .. . ... ... : ... .. . ... ... : ... .. . ... ... : ... .. . ... : ... .. . ... ... : ... .. . ... ... ... ...
ROW 47 : ... .. . ... ... : ... .. . ... ... : ... .. . ... ... : ... .. . ... : ... .. . ... ... : ... .. . ... ... ... ...
ROW 48 : ... .. . ... ... : ... .. . ... ... : ... .. . ... ... : ... .. . ... : ... .. . ... ... : ... .. . ... ... ... ...
ROW 49 : ... .. . ... ... : ... .. . ... ... : ... .. . ... ... : ... .. . ... : ... .. . ... ... : ... .. . ... ... ... ...
ROW 4A : ... .. . ... ... : ... .. . ... ... : ... .. . ... ... : ... .. . ... : ... .. . ... ... : ... .. . ... ... ... ...
ROW 4B : ... .. . ... ... : ... .. . ... ... : ... .. . ... ... : ... .. . ... : ... .. . ... ... : ... .. . ... ... ... ...
ROW 4C : ... .. . ... ... : ... .. . ... ... : ... .. . ... ... : ... .. . ... : ... .. . ... ... : ... .. . ... ... ... ...
ROW 4D : ... .. . ... ... : ... .. . ... ... : ... .. . ... ... : ... .. . ... : ... .. . ... ... : ... .. . ... ... ... ...
ROW 4E : ... .. . ... ... : ... .. . ... ... : ... .. . ... ... : ... .. . ... : ... .. . ... ... : ... .. . ... ... ... ...
ROW 4F : ... .. . ... ... : ... .. . ... ... : ... .. . ... ... : ... .. . ... : ... .. . ... ... : ... .. . ... ... ... ...
ROW 50 : ... .. . ... ... : ... .. . ... ... : ... .. . ... ... : ... .. . ... : ... .. . ... ... : ... .. . ... ... ... ...
ROW 51 : ... .. . ... ... : ... .. . ... ... : ... .. . ... ... : ... .. . ... : ... .. . ... ... : ... .. . ... ... ... ...
ROW 52 : ... .. . ... ... : ... .. . ... ... : ... .. . ... ... : ... .. . ... : ... .. . ... ... : ... .. . ... ... ... ...
ROW 53 : ... .. . ... ... : ... .. . ... ... : ... .. . ... ... : ... .. . ... : ... .. . ... ... : ... .. . ... ... ... ...
ROW 54 : ... .. . ... ... : ... .. . ... ... : ... .. . ... ... : ... .. . ... : ... .. . ... ... : ... .. . ... ... ... ...
ROW 55 : ... .. . ... ... : ... .. . ... ... : ... .. . ... ... : ... .. . ... : ... .. . ... ... : ... .. . ... ... ... ...
ROW 56 : ... .. . ... ... : ... .. . ... ... : ... .. . ... ... : ... .. . ... : ... .. . ... ... : ... .. . ... ... ... ...
ROW 57 : ... .. . ... ... : ... .. . ... ... : ... .. . ... ... : ... .. . ... : ... .. . ... ... : ... .. . ... ... ... ...
ROW 58 : ... .. . ... ... : ... .. . ... ... : ... .. . ... ... : ... .. . ... : ... .. . ... ... : ... .. . ... ... ... ...
ROW 59 : ... .. . ... ... : ... .. . ... ... : ... .. . ... ... : ... .. . ... : ... .. . ... ... : ... .. . ... ... ... ...
ROW 5A : ... .. . ... ... : ... .. . ... ... : ... .. . ... ... : ... .. . ... : ... .. . ... ... : ... .. . ... ... ... ...
ROW 5B : ... .. . ... ... : ... .. . ... ... : ... .. . ... ... : ... .. . ... : ... .. . ... ... : ... .. . ... ... ... ...
ROW 5C : ... .. . ... ... : ... .. . ... ... : ... .. . ... ... : ... .. . ... : ... .. . ... ... : ... .. . ... ... ... ...
ROW 5D : ... .. . ... ... : ... .. . ... ... : ... .. . ... ... : ... .. . ... : ... .. . ... ... : ... .. . ... ... ... ...
ROW 5E : ... .. . ... ... : ... .. . ... ... : ... .. . ... ... : ... .. . ... : ... .. . ... ... : ... .. . ... ... ... ...
ROW 5F : ... .. . ... ... : ... .. . ... ... : ... .. . ... ... : ... .. . ... : ... .. . ... ... : ... .. . ... ... ... ...
ROW 60 : ... .. . ... ... : ... .. . ... ... : ... .. . ... ... : ... .. . ... : ... .. . ... ... : ... .. . ... ... ... ...
ROW 61 : ... .. . ... ... : ... .. . ... ... : ... .. . ... ... : ... .. . ... : ... .. . ... ... : ... .. . ... ... ... ...
ROW 62 : ... .. . ... ... : ... .. . ... ... : ... .. . ... ... : ... .. . ... : ... .. . ... ... : ... .. . ... ... ... ...
ROW 63 : ... .. . ... ... : ... .. . ... ... : ... .. . ... ... : ... .. . ... : ... .. . ... ... : ... .. . ... ... ... ...
ROW 64 : ... .. . ... ... : ... .. . ... ... : ... .. . ... ... : ... .. . ... : ... .. . ... ... : ... .. . ... ... ... ...
ROW 65 : ... .. . ... ... : ... .. . ... ... : ... .. . ... ... : ... .. . ... : ... .. . ... ... : ... .. . ... ... ... ...
ROW 66 : ... .. . ... ... : ... .. . ... ... : ... .. . ... ... : ... .. . ... : ... .. . ... ... : ... .. . ... ... ... ...
ROW 67 : ... .. . ... ... : ... .. . ... ... : ... .. . ... ... : ... .. . ... : ... .. . ... ... : ... .. . ... ... ... ...
ROW 68 : ... .. . ... ... : ... .. . ... ... : ... .. . ... ... : ... .. . ... : ... .. . ... ... : ... .. . ... ... ... ...
ROW 69 : ... .. . ... ... : ... .. . ... ... : ... .. . ... ... : ... .. . ... : ... .. . ... ... : ... .. . ... ... ... ...
ROW 6A : ... .. . ... ... : ... .. . ... ... : ... .. . ... ... : ... .. . ... : ... .. . ... ... : ... .. . ... ... ... ...
ROW 6B : ... .. . ... ... : ... .. . ... ... : ... .. . ... ... : ... .. . ... : ... .. . ... ... : ... .. . ... ... ... ...
ROW 6C : ... .. . ... ... : ... .. . ... ... : ... .. . ... ... : ... .. . ... : ... .. . ... ... : ... .. . ... ... ... ...
ROW 6D : ... .. . ... ... : ... .. . ... ... : ... .. . ... ... : ... .. . ... : ... .. . ... ... : ... .. . ... ... ... ...
ROW 6E : ... .. . ... ... : ... .. . ... ... : ... .. . ... ... : ... .. . ... : ... .. . ... ... : ... .. . ... ... ... ...
ROW 6F : ... .. . ... ... : ... .. . ... ... : ... .. . ... ... : ... .. . ... : ... .. . ... ... : ... .. . ... ... ... ...
ROW 70 : ... .. . ... ... : ... .. . ... ... : ... .. . ... ... : ... .. . ... : ... .. . ... ... : ... .. . ... ... ... ...
ROW 71 : ... .. . ... ... : ... .. . ... ... : ... .. . ... ... : ... .. . ... : ... .. . ... ... : ... .. . ... ... ... ...
ROW 72 : ... .. . ... ... : ... .. . ... ... : ... .. . ... ... : ... .. . ... : ... .. . ... ... : ... .. . ... ... ... ...
ROW 73 : ... .. . ... ... : ... .. . ... ... : ... .. . ... ... : ... .. . ... : ... .. . ... ... : ... .. . ... ... ... ...
ROW 74 : ... .. . ... ... : ... .. . ... ... : ... .. . ... ... : ... .. . ... : ... .. . ... ... : ... .. . ... ... ... ...
ROW 75 : ... .. . ... ... : ... .. . ... ... : ... .. . ... ... : ... .. . ... : ... .. . ... ... : ... .. . ... ... ... ...
ROW 76 : ... .. . ... ... : ... .. . ... ... : ... .. . ... ... : ... .. . ... : ... .. . ... ... : ... .. . ... ... ... ...
ROW 77 : ... .. . ... ... : ... .. . ... ... : ... .. . ... ... : ... .. . ... : ... .. . ... ... : ... .. . ... ... ... ...
ROW 78 : ... .. . ... ... : ... .. . ... ... : ... .. . ... ... : ... .. . ... : ... .. . ... ... : ... .. . ... ... ... ...
ROW 79 : ... .. . ... ... : ... .. . ... ... : ... .. . ... ... : ... .. . ... : ... .. . ... ... : ... .. . ... ... ... ...
ROW 7A : ... .. . ... ... : ... .. . ... ... : ... .. . ... ... : ... .. . ... : ... .. . ... ... : ... .. . ... ... ... ...
ROW 7B : ... .. . ... ... : ... .. . ... ... : ... .. . ... ... : ... .. . ... : ... .. . ... ... : ... .. . ... ... ... ...
ROW 7C : ... .. . ... ... : ... .. . ... ... : ... .. . ... ... : ... .. . ... : ... .. . ... ... : ... .. . ... ... ... ...
ROW 7D : ... .. . ... ... : ... .. . ... ... : ... .. . ... ... : ... .. . ... : ... .. . ... ... : ... .. . ... ... ... ...
ROW 7E : ... .. . ... ... : ... .. . ... ... : ... .. . ... ... : ... .. . ... : ... .. . ... ... : ... .. . ... ... ... ...
ROW 7F : ... .. . ... ... : ... .. . ... ... : ... .. . ... ... : ... .. . ... : ... .. . ... ... : ... .. . ... ... ... ...
ROW 80 : ... .. . ... ... : ... .. . ... ... : ... .. . ... ... : ... .. . ... : ... .. . ... ... : ... .. . ... ... ... ...
ROW 81 : ... .. . ... ... : ... .. . ... ... : ... .. . ... ... : ... .. . ... : ... .. . ... ... : ... .. . ... ... ... ...
ROW 82 : ... .. . ... ... : ... .. . ... ... : ... .. . ... ... : ... .. . ... : ... .. . ... ... : ... .. . ... ... ... ...
ROW 83 : ... .. . ... ... : ... .. . ... ... : ... .. . ... ... : ... .. . ... : ... .. . ... ... : ... .. . ... ... ... ...
ROW 84 : ... .. . ... ... : ... .. . ... ... : ... .. . ... ... : ... .. . ... : ... .. . ... ... : ... .. . ... ... ... ...
ROW 85 : ... .. . ... ... : ... .. . ... ... : ... .. . ... ... : ... .. . ... : ... .. . ... ... : ... .. . ... ... ... ...
ROW 86 : ... .. . ... ... : ... .. . ... ... : ... .. . ... ... : ... .. . ... : ... .. . ... ... : ... .. . ... ... ... ...
ROW 87 : ... .. . ... ... : ... .. . ... ... : ... .. . ... ... : ... .. . ... : ... .. . ... ... : ... .. . ... ... ... ...
ROW 88 : ... .. . ... ... : ... .. . ... ... : ... .. . ... ... : ... .. . ... : ... .. . ... ... : ... .. . ... ... ... ...
ROW 89 : ... .. . ... ... : ... .. . ... ... : ... .. . ... ... : ... .. . ... : ... .. . ... ... : ... .. . ... ... ... ...
ROW 8A : ... .. . ... ... : ... .. . ... ... : ... .. . ... ... : ... .. . ... : ... .. . ... ... : ... .. . ... ... ... ...
ROW 8B : ... .. . ... ... : ... .. . ... ... : ... .. . ... ... : ... .. . ... : ... .. . ... ... : ... .. . ... ... ... ...
ROW 8C : ... .. . ... ... : ... .. . ... ... : ... .. . ... ... : ... .. . ... : ... .. . ... ... : ... .. . ... ... ... ...
ROW 8D : ... .. . ... ... : ... .. . ... ... : ... .. . ... ... : ... .. . ... : ... .. . ... ... : ... .. . ... ... ... ...
ROW 8E : ... .. . ... ... : ... .. . ... ... : ... .. . ... ... : ... .. . ... : ... .. . ... ... : ... .. . ... ... ... ...
ROW 8F : ... .. . ... ... : ... .. . ... ... : ... .. . ... ... : ... .. . ... : ... .. . ... ... : ... .. . ... ... ... ...
ROW 90 : ... .. . ... ... : ... .. . ... ... : ... .. . ... ... : ... .. . ... : ... .. . ... ... : ... .. . ... ... ... ...
ROW 91 : ... .. . ... ... : ... .. . ... ... : ... .. . ... ... : ... .. . ... : ... .. . ... ... : ... .. . ... ... ... ...
ROW 92 : ... .. . ... ... : ... .. . ... ... : ... .. . ... ... : ... .. . ... : ... .. . ... ... : ... .. . ... ... ... ...
ROW 93 : ... .. . ... ... : ... .. . ... ... : ... .. . ... ... : ... .. . ... : ... .. . ... ... : ... .. . ... ... ... ...
ROW 94 : ... .. . ... ... : ... .. . ... ... : ... .. . ... ... : ... .. . ... : ... .. . ... ... : ... .. . ... ... ... ...
ROW 95 : ... .. . ... ... : ... .. . ... ... : ... .. . ... ... : ... .. . ... : ... .. . ... ... : ... .. . ... ... ... ...
ROW 96 : ... .. . ... ... : ... .. . ... ... : ... .. . ... ... : ... .. . ... : ... .. . ... ... : ... .. . ... ... ... ...
ROW 97 : ... .. . ... ... : ... .. . ... ... : ... .. . ... ... : ... .. . ... : ... .. . ... ... : ... .. . ... ... ... ...
ROW 98 : ... .. . ... ... : ... .. . ... ... : ... .. . ... ... : ... .. . ... : ... .. . ... ... : ... .. . ... ... ... ...
ROW 99 : ... .. . ... ... : ... .. . ... ... : ... .. . ... ... : ... .. . ... : ... .. . ... ... : ... .. . ... ... ... ...
ROW 9A : ... .. . ... ... : ... .. . ... ... : ... .. . ... ... : ... .. . ... : ... .. . ... ... : ... .. . ... ... ... ...
ROW 9B : ... .. . ... ... : ... .. . ... ... : ... .. . ... ... : ... .. . ... : ... .. . ... ... : ... .. . ... ... ... ...
ROW 9C : ... .. . ... ... : ... .. . ... ... : ... .. . ... ... : ... .. . ... : ... .. . ... ... : ... .. . ... ... ... ...
ROW 9D : ... .. . ... ... : ... .. . ... ... : ... .. . ... ... : ... .. . ... : ... .. . ... ... : ... .. . ... ... ... ...
ROW 9E : ... .. . ... ... : ... .. . ... ... : ... .. . ... ... : ... .. . ... : ... .. . ... ... : ... .. . ... ... ... ...
ROW 9F : ... .. . ... ... : ... .. . ... ... : ... .. . ... ... : ... .. . ... : ... .. . ... ... : ... .. . ... ... ... ...
ROW A0 : ... .. . ... ... : ... .. . ... ... : ... .. . ... ... : ... .. . ... : ... .. . ... ... : ... .. . ... ... ... ...
ROW A1 : ... .. . ... ... : ... .. . ... ... : ... .. . ... ... : ... .. . ... : ... .. . ... ... : ... .. . ... ... ... ...
ROW A2 : ... .. . ... ... : ... .. . ... ... : ... .. . ... ... : ... .. . ... : ... .. . ... ... : ... .. . ... ... ... ...
ROW A3 : ... .. . ... ... : ... .. . ... ... : ... .. . ... ... : ... .. . ... : ... .. . ... ... : ... .. . ... ... ... ...
ROW A4 : ... .. . ... ... : ... .. . ... ... : ... .. . ... ... : ... .. . ... : ... .. . ... ... : ... .. . ... ... ... ...
ROW A5 : ... .. . ... ... : ... .. . ... ... : ... .. . ... ... : ... .. . ... : ... .. . ... ... : ... .. . ... ... ... ...
ROW A6 : ... .. . ... ... : ... .. . ... ... : ... .. . ... ... : ... .. . ... : ... .. . ... ... : ... .. . ... ... ... ...
ROW A7 : ... .. . ... ... : ... .. . ... ... : ... .. . ... ... : ... .. . ... : ... .. . ... ... : ... .. . ... ... ... ...
ROW A8 : ... .. . ... ... : ... .. . ... ... : ... .. . ... ... : ... .. . ... : ... .. . ... ... : ... .. . ... ... ... ...
ROW A9 : ... .. . ... ... : ... .. . ... ... : ... .. . ... ... : ... .. . ... : ... .. . ... ... : ... .. . ... ... ... ...
ROW AA : ... .. . ... ... : ... .. . ... ... : ... .. . ... ... : ... .. . ... : ... .. . ... ... : ... .. . ... ... ... ...
ROW AB : ... .. . ... ... : ... .. . ... ... : ... .. . ... ... : ... .. . ... : ... .. . ... ... : ... .. . ... ... ... ...
ROW AC : ... .. . ... ... : ... .. . ... ... : ... .. . ... ... : ... .. . ... : ... .. . ... ... : ... .. . ... ... ... ...
ROW AD : ... .. . ... ... : ... .. . ... ... : ... .. . ... ... : ... .. . ... : ... .. . ... ... : ... .. . ... ... ... ...
ROW AE : ... .. . ... ... : ... .. . ... ... : ... .. . ... ... : ... .. . ... : ... .. . ... ... : ... .. . ... ... ... ...
ROW AF : ... .. . ... ... : ... .. . ... ... : ... .. . ... ... : ... .. . ... : ... .. . ... ... : ... .. . ... ... ... ...
ROW B0 : ... .. . ... ... : ... .. . ... ... : ... .. . ... ... : ... .. . ... : ... .. . ... ... : ... .. . ... ... ... ...
ROW B1 : ... .. . ... ... : ... .. . ... ... : ... .. . ... ... : ... .. . ... : ... .. . ... ... : ... .. . ... ... ... ...
ROW B2 : ... .. . ... ... : ... .. . ... ... : ... .. . ... ... : ... .. . ... : ... .. . ... ... : ... .. . ... ... ... ...
ROW B3 : ... .. . ... ... : ... .. . ... ... : ... .. . ... ... : ... .. . ... : ... .. . ... ... : ... .. . ... ... ... ...
ROW B4 : ... .. . ... ... : ... .. . ... ... : ... .. . ... ... : ... .. . ... : ... .. . ... ... : ... .. . ... ... ... ...
ROW B5 : ... .. . ... ... : ... .. . ... ... : ... .. . ... ... : ... .. . ... : ... .. . ... ... : ... .. . ... ... ... ...
ROW B6 : ... .. . ... ... : ... .. . ... ... : ... .. . ... ... : ... .. . ... : ... .. . ... ... : ... .. . ... ... ... ...
ROW B7 : ... .. . ... ... : ... .. . ... ... : ... .. . ... ... : ... .. . ... : ... .. . ... ... : ... .. . ... ... ... ...
ROW B8 : ... .. . ... ... : ... .. . ... ... : ... .. . ... ... : ... .. . ... : ... .. . ... ... : ... .. . ... ... ... ...
ROW B9 : ... .. . ... ... : ... .. . ... ... : ... .. . ... ... : ... .. . ... : ... .. . ... ... : ... .. . ... ... ... ...
ROW BA : ... .. . ... ... : ... .. . ... ... : ... .. . ... ... : ... .. . ... : ... .. . ... ... : ... .. . ... ... ... ...
ROW BB : ... .. . ... ... : ... .. . ... ... : ... .. . ... ... : ... .. . ... : ... .. . ... ... : ... .. . ... ... ... ...
ROW BC : ... .. . ... ... : ... .. . ... ... : ... .. . ... ... : ... .. . ... : ... .. . ... ... : ... .. . ... ... ... ...
ROW BD : ... .. . ... ... : ... .. . ... ... : ... .. . ... ... : ... .. . ... : ... .. . ... ... : ... .. . ... ... ... ...
ROW BE : ... .. . ... ... : ... .. . ... ... : ... .. . ... ... : ... .. . ... : ... .. . ... ... : ... .. . ... ... ... ...
ROW BF : ... .. . ... ... : ... .. . ... ... : ... .. . ... ... : ... .. . ... : ... .. . ... ... : ... .. . ... ... ... ...
ROW C0 : ... .. . ... ... : ... .. . ... ... : ... .. . ... ... : ... .. . ... : ... .. . ... ... : ... .. . ... ... ... ...
ROW C1 : ... .. . ... ... : ... .. . ... ... : ... .. . ... ... : ... .. . ... : ... .. . ... ... : ... .. . ... ... ... ...
ROW C2 : ... .. . ... ... : ... .. . ... ... : ... .. . ... ... : ... .. . ... : ... .. . ... ... : ... .. . ... ... ... ...
ROW C3 : ... .. . ... ... : ... .. . ... ... : ... .. . ... ... : ... .. . ... : ... .. . ... ... : ... .. . ... ... ... ...
ROW C4 : ... .. . ... ... : ... .. . ... ... : ... .. . ... ... : ... .. . ... : ... .. . ... ... : ... .. . ... ... ... ...
ROW C5 : ... .. . ... ... : ... .. . ... ... : ... .. . ... ... : ... .. . ... : ... .. . ... ... : ... .. . ... ... ... ...
ROW C6 : ... .. . ... ... : ... .. . ... ... : ... .. . ... ... : ... .. . ... : ... .. . ... ... : ... .. . ... ... ... ...
ROW C7 : ... .. . ... ... : ... .. . ... ... : ... .. . ... ... : ... .. . ... : ... .. . ... ... : ... .. . ... ... ... ...
ROW C8 : ... .. . ... ... : ... .. . ... ... : ... .. . ... ... : ... .. . ... : ... .. . ... ... : ... .. . ... ... ... ...
ROW C9 : ... .. . ... ... : ... .. . ... ... : ... .. . ... ... : ... .. . ... : ... .. . ... ... : ... .. . ... ... ... ...
ROW CA : ... .. . ... ... : ... .. . ... ... : ... .. . ... ... : ... .. . ... : ... .. . ... ... : ... .. . ... ... ... ...
ROW CB : ... .. . ... ... : ... .. . ... ... : ... .. . ... ... : ... .. . ... : ... .. . ... ... : ... .. . ... ... ... ...
ROW CC : ... .. . ... ... : ... .. . ... ... : ... .. . ... ... : ... .. . ... : ... .. . ... ... : ... .. . ... ... ... ...
ROW CD : ... .. . ... ... : ... .. . ... ... : ... .. . ... ... : ... .. . ... : ... .. . ... ... : ... .. . ... ... ... ...
ROW CE : ... .. . ... ... : ... .. . ... ... : ... .. . ... ... : ... .. . ... : ... .. . ... ... : ... .. . ... ... ... ...
ROW CF : ... .. . ... ... : ... .. . ... ... : ... .. . ... ... : ... .. . ... : ... .. . ... ... : ... .. . ... ... ... ...
ROW D0 : ... .. . ... ... : ... .. . ... ... : ... .. . ... ... : ... .. . ... : ... .. . ... ... : ... .. . ... ... ... ...
ROW D1 : ... .. . ... ... : ... .. . ... ... : ... .. . ... ... : ... .. . ... : ... .. . ... ... : ... .. . ... ... ... ...
ROW D2 : ... .. . ... ... : ... .. . ... ... : ... .. . ... ... : ... .. . ... : ... .. . ... ... : ... .. . ... ... ... ...
ROW D3 : ... .. . ... ... : ... .. . ... ... : ... .. . ... ... : ... .. . ... : ... .. . ... ... : ... .. . ... ... ... ...
ROW D4 : ... .. . ... ... : ... .. . ... ... : ... .. . ... ... : ... .. . ... : ... .. . ... ... : ... .. . ... ... ... ...
ROW D5 : ... .. . ... ... : ... .. . ... ... : ... .. . ... ... : ... .. . ... : ... .. . ... ... : ... .. . ... ... ... ...
ROW D6 : ... .. . ... ... : ... .. . ... ... : ... .. . ... ... : ... .. . ... : ... .. . ... ... : ... .. . ... ... ... ...
ROW D7 : ... .. . ... ... : ... .. . ... ... : ... .. . ... ... : ... .. . ... : ... .. . ... ... : ... .. . ... ... ... ...
ROW D8 : ... .. . ... ... : ... .. . ... ... : ... .. . ... ... : ... .. . ... : ... .. . ... ... : ... .. . ... ... ... ...
ROW D9 : ... .. . ... ... : ... .. . ... ... : ... .. . ... ... : ... .. . ... : ... .. . ... ... : ... .. . ... ... ... ...
ROW DA : ... .. . ... ... : ... .. . ... ... : ... .. . ... ... : ... .. . ... : ... .. . ... ... : ... .. . ... ... ... ...
ROW DB : ... .. . ... ... : ... .. . ... ... : ... .. . ... ... : ... .. . ... : ... .. . ... ... : ... .. . ... ... ... ...
ROW DC : ... .. . ... ... : ... .. . ... ... : ... .. . ... ... : ... .. . ... : ... .. . ... ... : ... .. . ... ... ... ...
ROW DD : ... .. . ... ... : ... .. . ... ... : ... .. . ... ... : ... .. . ... : ... .. . ... ... : ... .. . ... ... ... ...
ROW DE : ... .. . ... ... : ... .. . ... ... : ... .. . ... ... : ... .. . ... : ... .. . ... ... : ... .. . ... ... ... ...
ROW DF : ... .. . ... ... : ... .. . ... ... : ... .. . ... ... : ... .. . ... : ... .. . ... ... : ... .. . ... ... ... ...
ROW E0 : ... .. . ... ... : ... .. . ... ... : ... .. . ... ... : ... .. . ... : ... .. . ... ... : ... .. . ... ... ... ...
ROW E1 : ... .. . ... ... : ... .. . ... ... : ... .. . ... ... : ... .. . ... : ... .. . ... ... : ... .. . ... ... ... ...
ROW E2 : ... .. . ... ... : ... .. . ... ... : ... .. . ... ... : ... .. . ... : ... .. . ... ... : ... .. . ... ... ... ...
ROW E3 : ... .. . ... ... : ... .. . ... ... : ... .. . ... ... : ... .. . ... : ... .. . ... ... : ... .. . ... ... ... ...
ROW E4 : ... .. . ... ... : ... .. . ... ... : ... .. . ... ... : ... .. . ... : ... .. . ... ... : ... .. . ... ... ... ...
ROW E5 : ... .. . ... ... : ... .. . ... ... : ... .. . ... ... : ... .. . ... : ... .. . ... ... : ... .. . ... ... ... ...
ROW E6 : ... .. . ... ... : ... .. . ... ... : ... .. . ... ... : ... .. . ... : ... .. . ... ... : ... .. . ... ... ... ...
ROW E7 : ... .. . ... ... : ... .. . ... ... : ... .. . ... ... : ... .. . ... : ... .. . ... ... : ... .. . ... ... ... ...
ROW E8 : ... .. . ... ... : ... .. . ... ... : ... .. . ... ... : ... .. . ... : ... .. . ... ... : ... .. . ... ... ... ...
ROW E9 : ... .. . ... ... : ... .. . ... ... : ... .. . ... ... : ... .. . ... : ... .. . ... ... : ... .. . ... ... ... ...
ROW EA : ... .. . ... ... : ... .. . ... ... : ... .. . ... ... : ... .. . ... : ... .. . ... ... : ... .. . ... ... ... ...
ROW EB : ... .. . ... ... : ... .. . ... ... : ... .. . ... ... : ... .. . ... : ... .. . ... ... : ... .. . ... ... ... ...
ROW EC : ... .. . ... ... : ... .. . ... ... : ... .. . ... ... : ... .. . ... : ... .. . ... ... : ... .. . ... ... ... ...
ROW ED : ... .. . ... ... : ... .. . ... ... : ... .. . ... ... : ... .. . ... : ... .. . ... ... : ... .. . ... ... ... ...
ROW EE : ... .. . ... ... : ... .. . ... ... : ... .. . ... ... : ... .. . ... : ... .. . ... ... : ... .. . ... ... ... ...
ROW EF : ... .. . ... ... : ... .. . ... ... : ... .. . ... ... : ... .. . ... : ... .. . ... ... : ... .. . ... ... ... ...
ROW F0 : ... .. . ... ... : ... .. . ... ... : ... .. . ... ... : ... .. . ... : ... .. . ... ... : ... .. . ... ... ... ...
ROW F1 : ... .. . ... ... : ... .. . ... ... : ... .. . ... ... : ... .. . ... : ... .. . ... ... : ... .. . ... ... ... ...
ROW F2 : ... .. . ... ... : ... .. . ... ... : ... .. . ... ... : ... .. . ... : ... .. . ... ... : ... .. . ... ... ... ...
ROW F3 : ... .. . ... ... : ... .. . ... ... : ... .. . ... ... : ... .. . ... : ... .. . ... ... : ... .. . ... ... ... ...
ROW F4 : ... .. . ... ... : ... .. . ... ... : ... .. . ... ... : ... .. . ... : ... .. . ... ... : ... .. . ... ... ... ...
ROW F5 : ... .. . ... ... : ... .. . ... ... : ... .. . ... ... : ... .. . ... : ... .. . ... ... : ... .. . ... ... ... ...
ROW F6 : ... .. . ... ... : ... .. . ... ... : ... .. . ... ... : ... .. . ... : ... .. . ... ... : ... .. . ... ... ... ...
ROW F7 : ... .. . ... ... : ... .. . ... ... : ... .. . ... ... : ... .. . ... : ... .. . ... ... : ... .. . ... ... ... ...
ROW F8 : ... .. . ... ... : ... .. . ... ... : ... .. . ... ... : ... .. . ... : ... .. . ... ... : ... .. . ... ... ... ...
ROW F9 : ... .. . ... ... : ... .. . ... ... : ... .. . ... ... : ... .. . ... : ... .. . ... ... : ... .. . ... ... ... ...
ROW FA : ... .. . ... ... : ... .. . ... ... : ... .. . ... ... : ... .. . ... : ... .. . ... ... : ... .. . ... ... ... ...
ROW FB : ... .. . ... ... : ... .. . ... ... : ... .. . ... ... : ... .. . ... : ... .. . ... ... : ... .. . ... ... ... ...
ROW FC : ... .. . ... ... : ... .. . ... ... : ... .. . ... ... : ... .. . ... : ... .. . ... ... : ... .. . ... ... ... ...
ROW FD : ... .. . ... ... : ... .. . ... ... : ... .. . ... ... : ... .. . ... : ... .. . ... ... : ... .. . ... ... ... ...
ROW FE : ... .. . ... ... : ... .. . ... ... : ... .. . ... ... : ... .. . ... : ... .. . ... ... : ... .. . ... ... ... ...
ROW FF : ... .. . ... ... : ... .. . ... ... : ... .. . ... ... : ... .. . ... : ... .. . ... ... : ... .. . ... ... ... ...

PATTERN 1A
ROW 00 : E-3 18 8 ... ... : E-4 19 3 ... ... : E-5 03 . 236 ... : ... .. . ... : E-3 1E . F04 ... : E-4 16 A ... I06 J09 ...
ROW 01 : ... .. 4 ... ... : ... .. . ... ... : ... .. . ... ... : ... .. . ... : ... .. . ... ... : ... .. 5 G01 ... ... ...
ROW 02 : B-2 18 8 ... ... : ... .. . ... ... : E-3 11 . 200 ... : ... .. . ... : ... .. . ... ... : B-3 16 A ... I04 J85 ...
ROW 03 : E-3 18 4 ... ... : ... .. . ... ... : ... .. . S03 ... : ... .. . ... : ... .. . ... ... : E-4 16 5 G01 I06 J09 ...
ROW 04 : G-2 18 8 ... ... : ... .. . ... ... : E-3 11 . ... ... : ... .. . ... : ... .. . ... ... : G-3 16 A ... I03 J97 ...
ROW 05 : B-2 18 4 ... ... : ... .. . ... ... : ... .. . ... ... : ... .. . ... : ... .. . ... ... : B-3 16 5 G01 I04 J85 ...
ROW 06 : B-2 18 8 ... ... : ... .. . ... ... : D-5 03 . 236 ... : ... .. . ... : ... .. . ... ... : D-4 16 A ... I05 J60 ...
ROW 07 : G-2 18 4 ... ... : ... .. . ... ... : ... .. . ... ... : ... .. . ... : ... .. . ... ... : G-3 16 5 G01 I03 J97 ...
ROW 08 : E-3 18 8 ... ... : ... .. . ... ... : D-3 11 . 200 ... : ... .. . ... : E-3 1E . ... ... : A-3 16 A ... I04 J07 ...
ROW 09 : B-2 18 4 ... ... : ... .. . ... ... : ... .. . S03 ... : ... .. . ... : ... .. . ... ... : D-4 16 5 G01 I05 J60 ...
ROW 0A : B-2 18 8 ... ... : ... .. . ... ... : D-3 11 . ... ... : ... .. . ... : ... .. . ... ... : F#3 16 A ... I03 J63 ...
ROW 0B : E-3 18 4 ... ... : ... .. . ... ... : ... .. . ... ... : ... .. . ... : ... .. . ... ... : A-3 16 5 G01 I04 J07 ...
ROW 0C : G-2 18 8 ... ... : ... .. . ... ... : C-5 03 . 236 ... : ... .. . ... : ... .. . ... ... : C-4 16 A ... I04 JCA ...
ROW 0D : B-2 18 4 ... ... : ... .. . ... ... : ... .. . ... ... : ... .. . ... : ... .. . ... ... : F#3 16 5 G01 I03 J63 ...
ROW 0E : B-2 18 8 ... ... : ... .. . ... ... : C-3 11 . 200 ... : ... .. . ... : ... .. . ... ... : G-3 16 A ... I03 J97 ...
ROW 0F : G-2 18 4 ... ... : ... .. . ... ... : ... .. . S03 ... : ... .. . ... : ... .. . ... ... : C-4 16 5 G01 I04 JCA ...
ROW 10 : E-3 18 8 ... ... : ... .. . ... ... : C-3 11 . ... ... : ... .. . ... : E-3 1E . ... ... : E-3 16 A ... I03 J04 ...
ROW 11 : B-2 18 4 ... ... : ... .. . ... ... : ... .. . ... ... : ... .. . ... : ... .. . ... ... : G-3 16 5 G01 I03 J97 ...
ROW 12 : B-2 18 8 ... ... : ... .. . ... ... : C-4 11 . ... ... : ... .. . ... : ... .. . ... ... : G-3 16 A ... I03 J97 ...
ROW 13 : E-3 18 4 ... ... : ... .. . ... ... : ... .. . ... ... : ... .. . ... : ... .. . ... ... : E-3 16 5 G01 I03 J04 ...
ROW 14 : G-2 18 8 ... ... : ... .. . ... ... : C-4 03 . 236 ... : ... .. . ... : ... .. . ... ... : C-4 16 A ... I04 JCA ...
ROW 15 : B-2 18 4 ... ... : ... .. . ... ... : ... .. . S03 ... : ... .. . ... : ... .. . ... ... : G-3 16 5 G01 I03 J97 ...
ROW 16 : B-2 18 8 ... ... : ... .. . ... ... : C-3 11 . 200 ... : ... .. . ... : ... .. . ... ... : G-3 16 A ... I03 J97 ...
ROW 17 : G-2 18 4 ... ... : ... .. . ... ... : ... .. . ... ... : ... .. . ... : ... .. . ... ... : C-4 16 5 G01 I04 JCA ...
ROW 18 : E-3 18 8 ... ... : ... .. . ... ... : C-5 03 . 236 ... : ... .. . ... : E-3 1E . F04 ... : E-3 16 A ... I03 J04 ...
ROW 19 : B-2 18 4 ... ... : ... .. . ... ... : ... .. . ... ... : ... .. . ... : ... .. . F05 ... : G-3 16 5 G01 I03 J97 ...
ROW 1A : B-2 18 8 ... ... : ... .. . ... ... : C-3 11 . 200 ... : ... .. . ... : ... .. . F04 ... : G-3 16 A ... I03 J97 ...
ROW 1B : E-3 18 4 ... ... : ... .. . ... ... : ... .. . ... ... : ... .. . ... : ... .. . F05 ... : E-3 16 5 G01 I03 J04 ...
ROW 1C : G-2 18 8 ... ... : ... .. . ... ... : D-5 03 . 236 ... : ... .. . ... : ... .. . F04 ... : D-4 16 A ... I05 J60 ...
ROW 1D : B-2 18 4 ... ... : ... .. . ... ... : ... .. . ... ... : ... .. . ... : ... .. . F05 ... : G-3 16 5 G01 I03 J97 ...
ROW 1E : B-2 18 8 ... ... : ... .. . ... ... : D-4 03 . ... ... : ... .. . ... : ... .. . F04 ... : F#3 16 A ... I03 J63 ...
ROW 1F : G-2 18 4 ... ... : ... .. . ... ... : ... .. . ... ... : ... .. . ... : ... .. . F05 ... : D-4 16 5 G01 I05 J60 ...
ROW 20 : F#3 18 8 ... ... : D-4 1A . ... ... : E-5 03 . 236 ... : ... .. . ... : E-3 1E . F05 ... : E-4 16 A ... I06 J09 ...
ROW 21 : ... .. 4 ... ... : ... .. . ... ... : ... .. . ... ... : ... .. . ... : ... .. . ... ... : F#3 16 5 G01 I03 J63 ...
ROW 22 : D-3 18 8 ... ... : ... .. . ... ... : E-3 11 . 200 ... : ... .. . ... : ... .. . ... ... : B-3 16 A ... I04 J85 ...
ROW 23 : F#3 18 4 ... ... : ... .. . ... ... : ... .. . S03 ... : ... .. . ... : ... .. . ... ... : E-4 16 5 G01 I06 J09 ...
ROW 24 : A-2 18 8 ... ... : ... .. . ... ... : E-3 11 . ... ... : ... .. . ... : ... .. . F05 ... : G-3 16 A ... I03 J97 ...
ROW 25 : D-3 18 4 ... ... : ... .. . ... ... : ... .. . ... ... : ... .. . ... : ... .. . F06 ... : B-3 16 5 G01 I04 J85 ...
ROW 26 : D-3 18 8 ... ... : ... .. . ... ... : D-5 03 . 236 ... : ... .. . ... : ... .. . F05 ... : D-4 16 A ... I05 J60 ...
ROW 27 : A-2 18 4 ... ... : ... .. . ... ... : ... .. . ... ... : ... .. . ... : ... .. . F06 ... : G-3 16 5 G01 I03 J97 ...
ROW 28 : F#3 18 8 ... ... : ... .. . ... ... : D-3 11 . 200 ... : ... .. . ... : E-3 1E . F06 ... : A-3 16 A ... I04 J07 ...
ROW 29 : D-3 18 4 ... ... : ... .. . ... ... : ... .. . S03 ... : ... .. . ... : ... .. . ... ... : D-4 16 5 G01 I05 J60 ...
ROW 2A : D-3 18 8 ... ... : ... .. . ... ... : D-3 11 . ... ... : ... .. . ... : ... .. . ... ... : F#3 16 A ... I03 J63 ...
ROW 2B : F#3 18 4 ... ... : ... .. . ... ... : ... .. . ... ... : ... .. . ... : ... .. . ... ... : A-3 16 5 G01 I04 J07 ...
ROW 2C : A-2 18 8 ... ... : ... .. . ... ... : C-5 03 . 236 ... : ... .. . ... : ... .. . F06 ... : C-4 16 A ... I04 JCA ...
ROW 2D : D-3 18 4 ... ... : ... .. . ... ... : ... .. . ... ... : ... .. . ... : ... .. . F07 ... : F#3 16 5 G01 I03 J63 ...
ROW 2E : D-3 18 8 ... ... : ... .. . ... ... : C-3 11 . 200 ... : ... .. . ... : ... .. . F06 ... : G-3 16 A ... I03 J97 ...
ROW 2F : A-2 18 4 ... ... : ... .. . ... ... : ... .. . S03 ... : ... .. . ... : ... .. . F07 ... : C-4 16 5 G01 I04 JCA ...
ROW 30 : F#3 18 8 ... ... : ... .. . ... ... : C-3 11 . ... ... : ... .. . ... : E-3 1E . F07 ... : E-3 16 A ... I03 J04 ...
ROW 31 : D-3 18 4 ... ... : ... .. . ... ... : ... .. . ... ... : ... .. . ... : ... .. . ... ... : G-3 16 5 G01 I03 J97 ...
ROW 32 : D-3 18 8 ... ... : ... .. . ... ... : C-4 11 . ... ... : ... .. . ... : ... .. . ... ... : G-3 16 A ... I03 J97 ...
ROW 33 : F#3 18 4 ... ... : ... .. . ... ... : ... .. . ... ... : ... .. . ... : ... .. . ... ... : E-3 16 5 G01 I03 J04 ...
ROW 34 : A-2 18 8 ... ... : ... .. . ... ... : C-4 03 . 236 ... : ... .. . ... : ... .. . F07 ... : C-4 16 A ... I04 JCA ...
ROW 35 : D-3 18 4 ... ... : ... .. . ... ... : ... .. . S03 ... : ... .. . ... : ... .. . F08 ... : G-3 16 5 G01 I03 J97 ...
ROW 36 : D-3 18 8 ... ... : ... .. . ... ... : C-3 11 . 200 ... : ... .. . ... : ... .. . F07 ... : G-3 16 A ... I03 J97 ...
ROW 37 : A-2 18 4 ... ... : ... .. . ... ... : ... .. . ... ... : ... .. . ... : ... .. . F08 ... : C-4 16 5 G01 I04 JCA ...
ROW 38 : F#3 18 8 ... ... : ... .. . ... ... : C-5 03 . 236 ... : ... .. . ... : E-3 1E . F04 ... : E-3 16 A ... I03 J04 ...
ROW 39 : D-3 18 4 ... ... : ... .. . ... ... : ... .. . ... ... : ... .. . ... : ... .. . ... ... : G-3 16 5 G01 I03 J97 ...
ROW 3A : D-3 18 8 ... ... : ... .. . ... ... : C-3 11 . 200 ... : ... .. . ... : ... .. . ... ... : G-3 16 A ... I03 J97 ...
ROW 3B : F#3 18 4 ... ... : ... .. . ... ... : ... .. . ... ... : ... .. . ... : ... .. . ... ... : E-3 16 5 G01 I03 J04 ...
ROW 3C : A-2 18 8 ... ... : ... .. . ... ... : D-5 03 . 236 ... : ... .. . ... : ... .. . ... ... : D-4 16 A ... I05 J60 ...
ROW 3D : D-3 18 4 ... ... : ... .. . ... ... : ... .. . ... ... : ... .. . ... : ... .. . ... ... : G-3 16 5 G01 I03 J97 ...
ROW 3E : D-3 18 8 ... ... : ... .. . ... ... : D-4 03 . ... ... : ... .. . ... : ... .. . ... ... : F#3 16 A ... I03 J63 ...
ROW 3F : A-2 18 4 ... ... : ... .. . ... ... : ... .. . ... ... : ... .. . ... : ... .. . D00 ... : D-4 16 5 G01 I05 J60 ...
ROW 40 : ... .. . ... ... : ... .. . ... ... : ... .. . ... ... : ... .. . ... : ... .. . ... ... : ... .. . ... ... ... ...
ROW 41 : ... .. . ... ... : ... .. . ... ... : ... .. . ... ... : ... .. . ... : ... .. . ... ... : ... .. . ... ... ... ...
ROW 42 : ... .. . ... ... : ... .. . ... ... : ... .. . ... ... : ... .. . ... : ... .. . ... ... : ... .. . ... ... ... ...
ROW 43 : ... .. . ... ... : ... .. . ... ... : ... .. . ... ... : ... .. . ... : ... .. . ... ... : ... .. . ... ... ... ...
ROW 44 : ... .. . ... ... : ... .. . ... ... : ... .. . ... ... : ... .. . ... : ... .. . ... ... : ... .. . ... ... ... ...
ROW 45 : ... .. . ... ... : ... .. . ... ... : ... .. . ... ... : ... .. . ... : ... .. . ... ... : ... .. . ... ... ... ...
ROW 46 : ... .. . ... ... : ... .. . ... ... : ... .. . ... ... : ... .. . ... : ... .. . ... ... : ... .. . ... ... ... ...
ROW 47 : ... .. . ... ... : ... .. . ... ... : ... .. . ... ... : ... .. . ... : ... .. . ... ... : ... .. . ... ... ... ...
ROW 48 : ... .. . ... ... : ... .. . ... ... : ... .. . ... ... : ... .. . ... : ... .. . ... ... : ... .. . ... ... ... ...
ROW 49 : ... .. . ... ... : ... .. . ... ... : ... .. . ... ... : ... .. . ... : ... .. . ... ... : ... .. . ... ... ... ...
ROW 4A : ... .. . ... ... : ... .. . ... ... : ... .. . ... ... : ... .. . ... : ... .. . ... ... : ... .. . ... ... ... ...
ROW 4B : ... .. . ... ... : ... .. . ... ... : ... .. . ... ... : ... .. . ... : ... .. . ... ... : ... .. . ... ... ... ...
ROW 4C : ... .. . ... ... : ... .. . ... ... : ... .. . ... ... : ... .. . ... : ... .. . ... ... : ... .. . ... ... ... ...
ROW 4D : ... .. . ... ... : ... .. . ... ... : ... .. . ... ... : ... .. . ... : ... .. . ... ... : ... .. . ... ... ... ...
ROW 4E : ... .. . ... ... : ... .. . ... ... : ... .. . ... ... : ... .. . ... : ... .. . ... ... : ... .. . ... ... ... ...
ROW 4F : ... .. . ... ... : ... .. . ... ... : ... .. . ... ... : ... .. . ... : ... .. . ... ... : ... .. . ... ... ... ...
ROW 50 : ... .. . ... ... : ... .. . ... ... : ... .. . ... ... : ... .. . ... : ... .. . ... ... : ... .. . ... ... ... ...
ROW 51 : ... .. . ... ... : ... .. . ... ... : ... .. . ... ... : ... .. . ... : ... .. . ... ... : ... .. . ... ... ... ...
ROW 52 : ... .. . ... ... : ... .. . ... ... : ... .. . ... ... : ... .. . ... : ... .. . ... ... : ... .. . ... ... ... ...
ROW 53 : ... .. . ... ... : ... .. . ... ... : ... .. . ... ... : ... .. . ... : ... .. . ... ... : ... .. . ... ... ... ...
ROW 54 : ... .. . ... ... : ... .. . ... ... : ... .. . ... ... : ... .. . ... : ... .. . ... ... : ... .. . ... ... ... ...
ROW 55 : ... .. . ... ... : ... .. . ... ... : ... .. . ... ... : ... .. . ... : ... .. . ... ... : ... .. . ... ... ... ...
ROW 56 : ... .. . ... ... : ... .. . ... ... : ... .. . ... ... : ... .. . ... : ... .. . ... ... : ... .. . ... ... ... ...
ROW 57 : ... .. . ... ... : ... .. . ... ... : ... .. . ... ... : ... .. . ... : ... .. . ... ... : ... .. . ... ... ... ...
ROW 58 : ... .. . ... ... : ... .. . ... ... : ... .. . ... ... : ... .. . ... : ... .. . ... ... : ... .. . ... ... ... ...
ROW 59 : ... .. . ... ... : ... .. . ... ... : ... .. . ... ... : ... .. . ... : ... .. . ... ... : ... .. . ... ... ... ...
ROW 5A : ... .. . ... ... : ... .. . ... ... : ... .. . ... ... : ... .. . ... : ... .. . ... ... : ... .. . ... ... ... ...
ROW 5B : ... .. . ... ... : ... .. . ... ... : ... .. . ... ... : ... .. . ... : ... .. . ... ... : ... .. . ... ... ... ...
ROW 5C : ... .. . ... ... : ... .. . ... ... : ... .. . ... ... : ... .. . ... : ... .. . ... ... : ... .. . ... ... ... ...
ROW 5D : ... .. . ... ... : ... .. . ... ... : ... .. . ... ... : ... .. . ... : ... .. . ... ... : ... .. . ... ... ... ...
ROW 5E : ... .. . ... ... : ... .. . ... ... : ... .. . ... ... : ... .. . ... : ... .. . ... ... : ... .. . ... ... ... ...
ROW 5F : ... .. . ... ... : ... .. . ... ... : ... .. . ... ... : ... .. . ... : ... .. . ... ... : ... .. . ... ... ... ...
ROW 60 : ... .. . ... ... : ... .. . ... ... : ... .. . ... ... : ... .. . ... : ... .. . ... ... : ... .. . ... ... ... ...
ROW 61 : ... .. . ... ... : ... .. . ... ... : ... .. . ... ... : ... .. . ... : ... .. . ... ... : ... .. . ... ... ... ...
ROW 62 : ... .. . ... ... : ... .. . ... ... : ... .. . ... ... : ... .. . ... : ... .. . ... ... : ... .. . ... ... ... ...
ROW 63 : ... .. . ... ... : ... .. . ... ... : ... .. . ... ... : ... .. . ... : ... .. . ... ... : ... .. . ... ... ... ...
ROW 64 : ... .. . ... ... : ... .. . ... ... : ... .. . ... ... : ... .. . ... : ... .. . ... ... : ... .. . ... ... ... ...
ROW 65 : ... .. . ... ... : ... .. . ... ... : ... .. . ... ... : ... .. . ... : ... .. . ... ... : ... .. . ... ... ... ...
ROW 66 : ... .. . ... ... : ... .. . ... ... : ... .. . ... ... : ... .. . ... : ... .. . ... ... : ... .. . ... ... ... ...
ROW 67 : ... .. . ... ... : ... .. . ... ... : ... .. . ... ... : ... .. . ... : ... .. . ... ... : ... .. . ... ... ... ...
ROW 68 : ... .. . ... ... : ... .. . ... ... : ... .. . ... ... : ... .. . ... : ... .. . ... ... : ... .. . ... ... ... ...
ROW 69 : ... .. . ... ... : ... .. . ... ... : ... .. . ... ... : ... .. . ... : ... .. . ... ... : ... .. . ... ... ... ...
ROW 6A : ... .. . ... ... : ... .. . ... ... : ... .. . ... ... : ... .. . ... : ... .. . ... ... : ... .. . ... ... ... ...
ROW 6B : ... .. . ... ... : ... .. . ... ... : ... .. . ... ... : ... .. . ... : ... .. . ... ... : ... .. . ... ... ... ...
ROW 6C : ... .. . ... ... : ... .. . ... ... : ... .. . ... ... : ... .. . ... : ... .. . ... ... : ... .. . ... ... ... ...
ROW 6D : ... .. . ... ... : ... .. . ... ... : ... .. . ... ... : ... .. . ... : ... .. . ... ... : ... .. . ... ... ... ...
ROW 6E : ... .. . ... ... : ... .. . ... ... : ... .. . ... ... : ... .. . ... : ... .. . ... ... : ... .. . ... ... ... ...
ROW 6F : ... .. . ... ... : ... .. . ... ... : ... .. . ... ... : ... .. . ... : ... .. . ... ... : ... .. . ... ... ... ...
ROW 70 : ... .. . ... ... : ... .. . ... ... : ... .. . ... ... : ... .. . ... : ... .. . ... ... : ... .. . ... ... ... ...
ROW 71 : ... .. . ... ... : ... .. . ... ... : ... .. . ... ... : ... .. . ... : ... .. . ... ... : ... .. . ... ... ... ...
ROW 72 : ... .. . ... ... : ... .. . ... ... : ... .. . ... ... : ... .. . ... : ... .. . ... ... : ... .. . ... ... ... ...
ROW 73 : ... .. . ... ... : ... .. . ... ... : ... .. . ... ... : ... .. . ... : ... .. . ... ... : ... .. . ... ... ... ...
ROW 74 : ... .. . ... ... : ... .. . ... ... : ... .. . ... ... : ... .. . ... : ... .. . ... ... : ... .. . ... ... ... ...
ROW 75 : ... .. . ... ... : ... .. . ... ... : ... .. . ... ... : ... .. . ... : ... .. . ... ... : ... .. . ... ... ... ...
ROW 76 : ... .. . ... ... : ... .. . ... ... : ... .. . ... ... : ... .. . ... : ... .. . ... ... : ... .. . ... ... ... ...
ROW 77 : ... .. . ... ... : ... .. . ... ... : ... .. . ... ... : ... .. . ... : ... .. . ... ... : ... .. . ... ... ... ...
ROW 78 : ... .. . ... ... : ... .. . ... ... : ... .. . ... ... : ... .. . ... : ... .. . ... ... : ... .. . ... ... ... ...
ROW 79 : ... .. . ... ... : ... .. . ... ... : ... .. . ... ... : ... .. . ... : ... .. . ... ... : ... .. . ... ... ... ...
ROW 7A : ... .. . ... ... : ... .. . ... ... : ... .. . ... ... : ... .. . ... : ... .. . ... ... : ... .. . ... ... ... ...
ROW 7B : ... .. . ... ... : ... .. . ... ... : ... .. . ... ... : ... .. . ... : ... .. . ... ... : ... .. . ... ... ... ...
ROW 7C : ... .. . ... ... : ... .. . ... ... : ... .. . ... ... : ... .. . ... : ... .. . ... ... : ... .. . ... ... ... ...
ROW 7D : ... .. . ... ... : ... .. . ... ... : ... .. . ... ... : ... .. . ... : ... .. . ... ... : ... .. . ... ... ... ...
ROW 7E : ... .. . ... ... : ... .. . ... ... : ... .. . ... ... : ... .. . ... : ... .. . ... ... : ... .. . ... ... ... ...
ROW 7F : ... .. . ... ... : ... .. . ... ... : ... .. . ... ... : ... .. . ... : ... .. . ... ... : ... .. . ... ... ... ...
ROW 80 : ... .. . ... ... : ... .. . ... ... : ... .. . ... ... : ... .. . ... : ... .. . ... ... : ... .. . ... ... ... ...
ROW 81 : ... .. . ... ... : ... .. . ... ... : ... .. . ... ... : ... .. . ... : ... .. . ... ... : ... .. . ... ... ... ...
ROW 82 : ... .. . ... ... : ... .. . ... ... : ... .. . ... ... : ... .. . ... : ... .. . ... ... : ... .. . ... ... ... ...
ROW 83 : ... .. . ... ... : ... .. . ... ... : ... .. . ... ... : ... .. . ... : ... .. . ... ... : ... .. . ... ... ... ...
ROW 84 : ... .. . ... ... : ... .. . ... ... : ... .. . ... ... : ... .. . ... : ... .. . ... ... : ... .. . ... ... ... ...
ROW 85 : ... .. . ... ... : ... .. . ... ... : ... .. . ... ... : ... .. . ... : ... .. . ... ... : ... .. . ... ... ... ...
ROW 86 : ... .. . ... ... : ... .. . ... ... : ... .. . ... ... : ... .. . ... : ... .. . ... ... : ... .. . ... ... ... ...
ROW 87 : ... .. . ... ... : ... .. . ... ... : ... .. . ... ... : ... .. . ... : ... .. . ... ... : ... .. . ... ... ... ...
ROW 88 : ... .. . ... ... : ... .. . ... ... : ... .. . ... ... : ... .. . ... : ... .. . ... ... : ... .. . ... ... ... ...
ROW 89 : ... .. . ... ... : ... .. . ... ... : ... .. . ... ... : ... .. . ... : ... .. . ... ... : ... .. . ... ... ... ...
ROW 8A : ... .. . ... ... : ... .. . ... ... : ... .. . ... ... : ... .. . ... : ... .. . ... ... : ... .. . ... ... ... ...
ROW 8B : ... .. . ... ... : ... .. . ... ... : ... .. . ... ... : ... .. . ... : ... .. . ... ... : ... .. . ... ... ... ...
ROW 8C : ... .. . ... ... : ... .. . ... ... : ... .. . ... ... : ... .. . ... : ... .. . ... ... : ... .. . ... ... ... ...
ROW 8D : ... .. . ... ... : ... .. . ... ... : ... .. . ... ... : ... .. . ... : ... .. . ... ... : ... .. . ... ... ... ...
ROW 8E : ... .. . ... ... : ... .. . ... ... : ... .. . ... ... : ... .. . ... : ... .. . ... ... : ... .. . ... ... ... ...
ROW 8F : ... .. . ... ... : ... .. . ... ... : ... .. . ... ... : ... .. . ... : ... .. . ... ... : ... .. . ... ... ... ...
ROW 90 : ... .. . ... ... : ... .. . ... ... : ... .. . ... ... : ... .. . ... : ... .. . ... ... : ... .. . ... ... ... ...
ROW 91 : ... .. . ... ... : ... .. . ... ... : ... .. . ... ... : ... .. . ... : ... .. . ... ... : ... .. . ... ... ... ...
ROW 92 : ... .. . ... ... : ... .. . ... ... : ... .. . ... ... : ... .. . ... : ... .. . ... ... : ... .. . ... ... ... ...
ROW 93 : ... .. . ... ... : ... .. . ... ... : ... .. . ... ... : ... .. . ... : ... .. . ... ... : ... .. . ... ... ... ...
ROW 94 : ... .. . ... ... : ... .. . ... ... : ... .. . ... ... : ... .. . ... : ... .. . ... ... : ... .. . ... ... ... ...
ROW 95 : ... .. . ... ... : ... .. . ... ... : ... .. . ... ... : ... .. . ... : ... .. . ... ... : ... .. . ... ... ... ...
ROW 96 : ... .. . ... ... : ... .. . ... ... : ... .. . ... ... : ... .. . ... : ... .. . ... ... : ... .. . ... ... ... ...
ROW 97 : ... .. . ... ... : ... .. . ... ... : ... .. . ... ... : ... .. . ... : ... .. . ... ... : ... .. . ... ... ... ...
ROW 98 : ... .. . ... ... : ... .. . ... ... : ... .. . ... ... : ... .. . ... : ... .. . ... ... : ... .. . ... ... ... ...
ROW 99 : ... .. . ... ... : ... .. . ... ... : ... .. . ... ... : ... .. . ... : ... .. . ... ... : ... .. . ... ... ... ...
ROW 9A : ... .. . ... ... : ... .. . ... ... : ... .. . ... ... : ... .. . ... : ... .. . ... ... : ... .. . ... ... ... ...
ROW 9B : ... .. . ... ... : ... .. . ... ... : ... .. . ... ... : ... .. . ... : ... .. . ... ... : ... .. . ... ... ... ...
ROW 9C : ... .. . ... ... : ... .. . ... ... : ... .. . ... ... : ... .. . ... : ... .. . ... ... : ... .. . ... ... ... ...
ROW 9D : ... .. . ... ... : ... .. . ... ... : ... .. . ... ... : ... .. . ... : ... .. . ... ... : ... .. . ... ... ... ...
ROW 9E : ... .. . ... ... : ... .. . ... ... : ... .. . ... ... : ... .. . ... : ... .. . ... ... : ... .. . ... ... ... ...
ROW 9F : ... .. . ... ... : ... .. . ... ... : ... .. . ... ... : ... .. . ... : ... .. . ... ... : ... .. . ... ... ... ...
ROW A0 : ... .. . ... ... : ... .. . ... ... : ... .. . ... ... : ... .. . ... : ... .. . ... ... : ... .. . ... ... ... ...
ROW A1 : ... .. . ... ... : ... .. . ... ... : ... .. . ... ... : ... .. . ... : ... .. . ... ... : ... .. . ... ... ... ...
ROW A2 : ... .. . ... ... : ... .. . ... ... : ... .. . ... ... : ... .. . ... : ... .. . ... ... : ... .. . ... ... ... ...
ROW A3 : ... .. . ... ... : ... .. . ... ... : ... .. . ... ... : ... .. . ... : ... .. . ... ... : ... .. . ... ... ... ...
ROW A4 : ... .. . ... ... : ... .. . ... ... : ... .. . ... ... : ... .. . ... : ... .. . ... ... : ... .. . ... ... ... ...
ROW A5 : ... .. . ... ... : ... .. . ... ... : ... .. . ... ... : ... .. . ... : ... .. . ... ... : ... .. . ... ... ... ...
ROW A6 : ... .. . ... ... : ... .. . ... ... : ... .. . ... ... : ... .. . ... : ... .. . ... ... : ... .. . ... ... ... ...
ROW A7 : ... .. . ... ... : ... .. . ... ... : ... .. . ... ... : ... .. . ... : ... .. . ... ... : ... .. . ... ... ... ...
ROW A8 : ... .. . ... ... : ... .. . ... ... : ... .. . ... ... : ... .. . ... : ... .. . ... ... : ... .. . ... ... ... ...
ROW A9 : ... .. . ... ... : ... .. . ... ... : ... .. . ... ... : ... .. . ... : ... .. . ... ... : ... .. . ... ... ... ...
ROW AA : ... .. . ... ... : ... .. . ... ... : ... .. . ... ... : ... .. . ... : ... .. . ... ... : ... .. . ... ... ... ...
ROW AB : ... .. . ... ... : ... .. . ... ... : ... .. . ... ... : ... .. . ... : ... .. . ... ... : ... .. . ... ... ... ...
ROW AC : ... .. . ... ... : ... .. . ... ... : ... .. . ... ... : ... .. . ... : ... .. . ... ... : ... .. . ... ... ... ...
ROW AD : ... .. . ... ... : ... .. . ... ... : ... .. . ... ... : ... .. . ... : ... .. . ... ... : ... .. . ... ... ... ...
ROW AE : ... .. . ... ... : ... .. . ... ... : ... .. . ... ... : ... .. . ... : ... .. . ... ... : ... .. . ... ... ... ...
ROW AF : ... .. . ... ... : ... .. . ... ... : ... .. . ... ... : ... .. . ... : ... .. . ... ... : ... .. . ... ... ... ...
ROW B0 : ... .. . ... ... : ... .. . ... ... : ... .. . ... ... : ... .. . ... : ... .. . ... ... : ... .. . ... ... ... ...
ROW B1 : ... .. . ... ... : ... .. . ... ... : ... .. . ... ... : ... .. . ... : ... .. . ... ... : ... .. . ... ... ... ...
ROW B2 : ... .. . ... ... : ... .. . ... ... : ... .. . ... ... : ... .. . ... : ... .. . ... ... : ... .. . ... ... ... ...
ROW B3 : ... .. . ... ... : ... .. . ... ... : ... .. . ... ... : ... .. . ... : ... .. . ... ... : ... .. . ... ... ... ...
ROW B4 : ... .. . ... ... : ... .. . ... ... : ... .. . ... ... : ... .. . ... : ... .. . ... ... : ... .. . ... ... ... ...
ROW B5 : ... .. . ... ... : ... .. . ... ... : ... .. . ... ... : ... .. . ... : ... .. . ... ... : ... .. . ... ... ... ...
ROW B6 : ... .. . ... ... : ... .. . ... ... : ... .. . ... ... : ... .. . ... : ... .. . ... ... : ... .. . ... ... ... ...
ROW B7 : ... .. . ... ... : ... .. . ... ... : ... .. . ... ... : ... .. . ... : ... .. . ... ... : ... .. . ... ... ... ...
ROW B8 : ... .. . ... ... : ... .. . ... ... : ... .. . ... ... : ... .. . ... : ... .. . ... ... : ... .. . ... ... ... ...
ROW B9 : ... .. . ... ... : ... .. . ... ... : ... .. . ... ... : ... .. . ... : ... .. . ... ... : ... .. . ... ... ... ...
ROW BA : ... .. . ... ... : ... .. . ... ... : ... .. . ... ... : ... .. . ... : ... .. . ... ... : ... .. . ... ... ... ...
ROW BB : ... .. . ... ... : ... .. . ... ... : ... .. . ... ... : ... .. . ... : ... .. . ... ... : ... .. . ... ... ... ...
ROW BC : ... .. . ... ... : ... .. . ... ... : ... .. . ... ... : ... .. . ... : ... .. . ... ... : ... .. . ... ... ... ...
ROW BD : ... .. . ... ... : ... .. . ... ... : ... .. . ... ... : ... .. . ... : ... .. . ... ... : ... .. . ... ... ... ...
ROW BE : ... .. . ... ... : ... .. . ... ... : ... .. . ... ... : ... .. . ... : ... .. . ... ... : ... .. . ... ... ... ...
ROW BF : ... .. . ... ... : ... .. . ... ... : ... .. . ... ... : ... .. . ... : ... .. . ... ... : ... .. . ... ... ... ...
ROW C0 : ... .. . ... ... : ... .. . ... ... : ... .. . ... ... : ... .. . ... : ... .. . ... ... : ... .. . ... ... ... ...
ROW C1 : ... .. . ... ... : ... .. . ... ... : ... .. . ... ... : ... .. . ... : ... .. . ... ... : ... .. . ... ... ... ...
ROW C2 : ... .. . ... ... : ... .. . ... ... : ... .. . ... ... : ... .. . ... : ... .. . ... ... : ... .. . ... ... ... ...
ROW C3 : ... .. . ... ... : ... .. . ... ... : ... .. . ... ... : ... .. . ... : ... .. . ... ... : ... .. . ... ... ... ...
ROW C4 : ... .. . ... ... : ... .. . ... ... : ... .. . ... ... : ... .. . ... : ... .. . ... ... : ... .. . ... ... ... ...
ROW C5 : ... .. . ... ... : ... .. . ... ... : ... .. . ... ... : ... .. . ... : ... .. . ... ... : ... .. . ... ... ... ...
ROW C6 : ... .. . ... ... : ... .. . ... ... : ... .. . ... ... : ... .. . ... : ... .. . ... ... : ... .. . ... ... ... ...
ROW C7 : ... .. . ... ... : ... .. . ... ... : ... .. . ... ... : ... .. . ... : ... .. . ... ... : ... .. . ... ... ... ...
ROW C8 : ... .. . ... ... : ... .. . ... ... : ... .. . ... ... : ... .. . ... : ... .. . ... ... : ... .. . ... ... ... ...
ROW C9 : ... .. . ... ... : ... .. . ... ... : ... .. . ... ... : ... .. . ... : ... .. . ... ... : ... .. . ... ... ... ...
ROW CA : ... .. . ... ... : ... .. . ... ... : ... .. . ... ... : ... .. . ... : ... .. . ... ... : ... .. . ... ... ... ...
ROW CB : ... .. . ... ... : ... .. . ... ... : ... .. . ... ... : ... .. . ... : ... .. . ... ... : ... .. . ... ... ... ...
ROW CC : ... .. . ... ... : ... .. . ... ... : ... .. . ... ... : ... .. . ... : ... .. . ... ... : ... .. . ... ... ... ...
ROW CD : ... .. . ... ... : ... .. . ... ... : ... .. . ... ... : ... .. . ... : ... .. . ... ... : ... .. . ... ... ... ...
ROW CE : ... .. . ... ... : ... .. . ... ... : ... .. . ... ... : ... .. . ... : ... .. . ... ... : ... .. . ... ... ... ...
ROW CF : ... .. . ... ... : ... .. . ... ... : ... .. . ... ... : ... .. . ... : ... .. . ... ... : ... .. . ... ... ... ...
ROW D0 : ... .. . ... ... : ... .. . ... ... : ... .. . ... ... : ... .. . ... : ... .. . ... ... : ... .. . ... ... ... ...
ROW D1 : ... .. . ... ... : ... .. . ... ... : ... .. . ... ... : ... .. . ... : ... .. . ... ... : ... .. . ... ... ... ...
ROW D2 : ... .. . ... ... : ... .. . ... ... : ... .. . ... ... : ... .. . ... : ... .. . ... ... : ... .. . ... ... ... ...
ROW D3 : ... .. . ... ... : ... .. . ... ... : ... .. . ... ... : ... .. . ... : ... .. . ... ... : ... .. . ... ... ... ...
ROW D4 : ... .. . ... ... : ... .. . ... ... : ... .. . ... ... : ... .. . ... : ... .. . ... ... : ... .. . ... ... ... ...
ROW D5 : ... .. . ... ... : ... .. . ... ... : ... .. . ... ... : ... .. . ... : ... .. . ... ... : ... .. . ... ... ... ...
ROW D6 : ... .. . ... ... : ... .. . ... ... : ... .. . ... ... : ... .. . ... : ... .. . ... ... : ... .. . ... ... ... ...
ROW D7 : ... .. . ... ... : ... .. . ... ... : ... .. . ... ... : ... .. . ... : ... .. . ... ... : ... .. . ... ... ... ...
ROW D8 : ... .. . ... ... : ... .. . ... ... : ... .. . ... ... : ... .. . ... : ... .. . ... ... : ... .. . ... ... ... ...
ROW D9 : ... .. . ... ... : ... .. . ... ... : ... .. . ... ... : ... .. . ... : ... .. . ... ... : ... .. . ... ... ... ...
ROW DA : ... .. . ... ... : ... .. . ... ... : ... .. . ... ... : ... .. . ... : ... .. . ... ... : ... .. . ... ... ... ...
ROW DB : ... .. . ... ... : ... .. . ... ... : ... .. . ... ... : ... .. . ... : ... .. . ... ... : ... .. . ... ... ... ...
ROW DC : ... .. . ... ... : ... .. . ... ... : ... .. . ... ... : ... .. . ... : ... .. . ... ... : ... .. . ... ... ... ...
ROW DD : ... .. . ... ... : ... .. . ... ... : ... .. . ... ... : ... .. . ... : ... .. . ... ... : ... .. . ... ... ... ...
ROW DE : ... .. . ... ... : ... .. . ... ... : ... .. . ... ... : ... .. . ... : ... .. . ... ... : ... .. . ... ... ... ...
ROW DF : ... .. . ... ... : ... .. . ... ... : ... .. . ... ... : ... .. . ... : ... .. . ... ... : ... .. . ... ... ... ...
ROW E0 : ... .. . ... ... : ... .. . ... ... : ... .. . ... ... : ... .. . ... : ... .. . ... ... : ... .. . ... ... ... ...
ROW E1 : ... .. . ... ... : ... .. . ... ... : ... .. . ... ... : ... .. . ... : ... .. . ... ... : ... .. . ... ... ... ...
ROW E2 : ... .. . ... ... : ... .. . ... ... : ... .. . ... ... : ... .. . ... : ... .. . ... ... : ... .. . ... ... ... ...
ROW E3 : ... .. . ... ... : ... .. . ... ... : ... .. . ... ... : ... .. . ... : ... .. . ... ... : ... .. . ... ... ... ...
ROW E4 : ... .. . ... ... : ... .. . ... ... : ... .. . ... ... : ... .. . ... : ... .. . ... ... : ... .. . ... ... ... ...
ROW E5 : ... .. . ... ... : ... .. . ... ... : ... .. . ... ... : ... .. . ... : ... .. . ... ... : ... .. . ... ... ... ...
ROW E6 : ... .. . ... ... : ... .. . ... ... : ... .. . ... ... : ... .. . ... : ... .. . ... ... : ... .. . ... ... ... ...
ROW E7 : ... .. . ... ... : ... .. . ... ... : ... .. . ... ... : ... .. . ... : ... .. . ... ... : ... .. . ... ... ... ...
ROW E8 : ... .. . ... ... : ... .. . ... ... : ... .. . ... ... : ... .. . ... : ... .. . ... ... : ... .. . ... ... ... ...
ROW E9 : ... .. . ... ... : ... .. . ... ... : ... .. . ... ... : ... .. . ... : ... .. . ... ... : ... .. . ... ... ... ...
ROW EA : ... .. . ... ... : ... .. . ... ... : ... .. . ... ... : ... .. . ... : ... .. . ... ... : ... .. . ... ... ... ...
ROW EB : ... .. . ... ... : ... .. . ... ... : ... .. . ... ... : ... .. . ... : ... .. . ... ... : ... .. . ... ... ... ...
ROW EC : ... .. . ... ... : ... .. . ... ... : ... .. . ... ... : ... .. . ... : ... .. . ... ... : ... .. . ... ... ... ...
ROW ED : ... .. . ... ... : ... .. . ... ... : ... .. . ... ... : ... .. . ... : ... .. . ... ... : ... .. . ... ... ... ...
ROW EE : ... .. . ... ... : ... .. . ... ... : ... .. . ... ... : ... .. . ... : ... .. . ... ... : ... .. . ... ... ... ...
ROW EF : ... .. . ... ... : ... .. . ... ... : ... .. . ... ... : ... .. . ... : ... .. . ... ... : ... .. . ... ... ... ...
ROW F0 : ... .. . ... ... : ... .. . ... ... : ... .. . ... ... : ... .. . ... : ... .. . ... ... : ... .. . ... ... ... ...
ROW F1 : ... .. . ... ... : ... .. . ... ... : ... .. . ... ... : ... .. . ... : ... .. . ... ... : ... .. . ... ... ... ...
ROW F2 : ... .. . ... ... : ... .. . ... ... : ... .. . ... ... : ... .. . ... : ... .. . ... ... : ... .. . ... ... ... ...
ROW F3 : ... .. . ... ... : ... .. . ... ... : ... .. . ... ... : ... .. . ... : ... .. . ... ... : ... .. . ... ... ... ...
ROW F4 : ... .. . ... ... : ... .. . ... ... : ... .. . ... ... : ... .. . ... : ... .. . ... ... : ... .. . ... ... ... ...
ROW F5 : ... .. . ... ... : ... .. . ... ... : ... .. . ... ... : ... .. . ... : ... .. . ... ... : ... .. . ... ... ... ...
ROW F6 : ... .. . ... ... : ... .. . ... ... : ... .. . ... ... : ... .. . ... : ... .. . ... ... : ... .. . ... ... ... ...
ROW F7 : ... .. . ... ... : ... .. . ... ... : ... .. . ... ... : ... .. . ... : ... .. . ... ... : ... .. . ... ... ... ...
ROW F8 : ... .. . ... ... : ... .. . ... ... : ... .. . ... ... : ... .. . ... : ... .. . ... ... : ... .. . ... ... ... ...
ROW F9 : ... .. . ... ... : ... .. . ... ... : ... .. . ... ... : ... .. . ... : ... .. . ... ... : ... .. . ... ... ... ...
ROW FA : ... .. . ... ... : ... .. . ... ... : ... .. . ... ... : ... .. . ... : ... .. . ... ... : ... .. . ... ... ... ...
ROW FB : ... .. . ... ... : ... .. . ... ... : ... .. . ... ... : ... .. . ... : ... .. . ... ... : ... .. . ... ... ... ...
ROW FC : ... .. . ... ... : ... .. . ... ... : ... .. . ... ... : ... .. . ... : ... .. . ... ... : ... .. . ... ... ... ...
ROW FD : ... .. . ... ... : ... .. . ... ... : ... .. . ... ... : ... .. . ... : ... .. . ... ... : ... .. . ... ... ... ...
ROW FE : ... .. . ... ... : ... .. . ... ... : ... .. . ... ... : ... .. . ... : ... .. . ... ... : ... .. . ... ... ... ...
ROW FF : ... .. . ... ... : ... .. . ... ... : ... .. . ... ... : ... .. . ... : ... .. . ... ... : ... .. . ... ... ... ...

PATTERN 1B
ROW 00 : E-3 18 8 ... ... : B-3 19 3 ... ... : E-4 03 . 236 ... : ... .. . ... : E-3 23 . F04 ... : E-4 1B E I06 J09 ... ...
ROW 01 : ... .. 4 ... ... : ... .. . ... ... : ... .. . ... ... : ... .. . ... : ... .. . ... ... : ... .. . ... ... ... ...
ROW 02 : B-2 18 8 ... ... : ... .. . ... ... : ... .. . ... ... : ... .. . ... : ... .. . ... ... : ... .. . ... ... ... ...
ROW 03 : E-3 18 4 ... ... : ... .. . ... ... : ... .. . ... ... : ... .. . ... : ... .. . ... ... : ... .. . ... ... ... ...
ROW 04 : G-2 18 8 ... ... : ... .. . ... ... : ... .. . ... ... : ... .. . ... : ... .. . ... ... : ... .. . ... ... ... ...
ROW 05 : B-2 18 4 ... ... : ... .. . ... ... : ... .. . ... ... : ... .. . ... : ... .. . ... ... : ... .. . ... ... ... ...
ROW 06 : B-2 18 8 ... ... : ... .. . ... ... : E-2 11 . 200 ... : ... .. . ... : ... .. . ... ... : ... .. . ... ... ... ...
ROW 07 : G-2 18 4 ... ... : ... .. . ... ... : ... .. . ... ... : ... .. . ... : ... .. . ... ... : ... .. . ... ... ... ...
ROW 08 : E-3 18 8 ... ... : ... .. . ... ... : E-4 03 . 236 ... : ... .. . ... : E-3 23 . ... ... : ... .. . ... ... ... ...
ROW 09 : B-2 18 4 ... ... : ... .. . ... ... : ... .. . ... ... : ... .. . ... : --- .. . G05 ... : ... .. . ... ... ... ...
ROW 0A : B-2 18 8 ... ... : ... .. . ... ... : ... .. . ... ... : ... .. . ... : E-3 23 . G02 ... : ... .. D ... ... ... ...
ROW 0B : E-3 18 4 ... ... : ... .. . ... ... : ... .. . ... ... : ... .. . ... : ... .. . ... ... : ... .. C ... ... ... ...
ROW 0C : G-2 18 8 ... ... : ... .. . ... ... : E-2 11 . 200 ... : ... .. . ... : --- .. . G04 ... : ... .. B ... ... ... ...
ROW 0D : B-2 18 4 ... ... : ... .. . ... ... : ... .. . S03 ... : ... .. . ... : E-3 23 . G01 ... : ... .. A ... ... ... ...
ROW 0E : B-2 18 8 ... ... : ... .. . ... ... : E-2 11 . ... ... : ... .. . ... : ... .. . ... ... : ... .. 9 ... ... ... ...
ROW 0F : G-2 18 4 ... ... : ... .. . ... ... : ... .. . S03 ... : ... .. . ... : ... .. . ... ... : ... .. 8 ... ... ... ...
ROW 10 : E-3 18 8 ... ... : ... .. . ... ... : E-3 11 . ... ... : ... .. . ... : E-3 23 . ... ... : B-3 1B E I04 J85 ... ...
ROW 11 : B-2 18 4 ... ... : ... .. . ... ... : ... .. . ... ... : ... .. . ... : ... .. . ... ... : ... .. . ... ... ... ...
ROW 12 : B-2 18 8 ... ... : ... .. . ... ... : ... .. . S03 ... : ... .. . ... : ... .. . ... ... : ... .. . ... ... ... ...
ROW 13 : E-3 18 4 ... ... : ... .. . ... ... : ... .. . ... ... : ... .. . ... : ... .. . ... ... : ... .. 8 ... ... ... ...
ROW 14 : G-2 18 8 ... ... : ... .. . ... ... : E-2 11 . ... ... : ... .. . ... : ... .. . ... ... : ... .. . ... ... ... ...
ROW 15 : B-2 18 4 ... ... : ... .. . ... ... : ... .. . S03 ... : ... .. . ... : ... .. . ... ... : ... .. . ... ... ... ...
ROW 16 : B-2 18 8 ... ... : ... .. . ... ... : E-2 11 . ... ... : ... .. . ... : ... .. . ... ... : G-3 1B E I03 J97 ... ...
ROW 17 : G-2 18 4 ... ... : ... .. . ... ... : ... .. . S03 ... : ... .. . ... : ... .. . ... ... : ... .. . ... ... ... ...
ROW 18 : E-3 18 8 ... ... : ... .. . ... ... : E-3 11 . ... ... : ... .. . ... : E-3 23 . ... ... : ... .. . ... ... ... ...
ROW 19 : B-2 18 4 ... ... : ... .. . ... ... : ... .. . ... ... : ... .. . ... : ... .. . ... ... : B-3 1B 8 I04 J85 ... ...
ROW 1A : B-2 18 8 ... ... : ... .. . ... ... : ... .. . S03 ... : ... .. . ... : ... .. . ... ... : ... .. . ... ... ... ...
ROW 1B : E-3 18 4 ... ... : ... .. . ... ... : ... .. . ... ... : ... .. . ... : ... .. . ... ... : ... .. . ... ... ... ...
ROW 1C : G-2 18 8 ... ... : ... .. . ... ... : E-4 03 . 236 ... : ... .. . ... : ... .. . ... ... : E-3 1B E I03 J04 ... ...
ROW 1D : B-2 18 4 ... ... : ... .. . ... ... : ... .. . ... ... : ... .. . ... : ... .. . ... ... : ... .. . ... ... ... ...
ROW 1E : B-2 18 8 ... ... : ... .. . ... ... : E-2 11 . 200 ... : ... .. . ... : ... .. . ... ... : G-3 1B 8 I03 J97 ... ...
ROW 1F : G-2 18 4 ... ... : ... .. . ... ... : ... .. . S03 ... : ... .. . ... : ... .. . ... ... : ... .. . ... ... ... ...
ROW 20 : E-3 18 8 ... ... : ... .. . ... ... : D-3 11 . ... ... : ... .. . ... : B-2 23 . ... ... : D-4 1B E I05 J60 ... ...
ROW 21 : B-2 18 4 ... ... : ... .. . ... ... : ... .. . ... ... : ... .. . ... : ... .. . ... ... : ... .. . ... ... ... ...
ROW 22 : B-2 18 8 ... ... : ... .. . ... ... : ... .. . S03 ... : ... .. . ... : ... .. . ... ... : ... .. . ... ... ... ...
ROW 23 : E-3 18 4 ... ... : ... .. . ... ... : ... .. . ... ... : ... .. . ... : ... .. . ... ... : ... .. . ... ... ... ...
ROW 24 : G-2 18 8 ... ... : ... .. . ... ... : D-2 11 . ... ... : ... .. . ... : ... .. . ... ... : ... .. . ... ... ... ...
ROW 25 : B-2 18 4 ... ... : ... .. . ... ... : ... .. . S03 ... : ... .. . ... : ... .. . ... ... : ... .. . ... ... ... ...
ROW 26 : B-2 18 8 ... ... : ... .. . ... ... : D-2 11 . ... ... : ... .. . ... : ... .. . ... ... : ... .. . ... ... ... ...
ROW 27 : G-2 18 4 ... ... : ... .. . ... ... : ... .. . ... ... : ... .. . ... : ... .. . ... ... : ... .. . ... ... ... ...
ROW 28 : E-3 18 8 ... ... : ... .. . ... ... : D-4 03 . 236 ... : ... .. . ... : B-2 23 . ... ... : ... .. . ... ... ... ...
ROW 29 : B-2 18 4 ... ... : ... .. . ... ... : ... .. . ... ... : ... .. . ... : ... .. . ... ... : ... .. . ... ... ... ...
ROW 2A : B-2 18 8 ... ... : ... .. . ... ... : ... .. . ... ... : ... .. . ... : ... .. . ... ... : ... .. D ... ... ... ...
ROW 2B : E-3 18 4 ... ... : ... .. . ... ... : ... .. . ... ... : ... .. . ... : --- .. . G03 ... : ... .. C ... ... ... ...
ROW 2C : G-2 18 8 ... ... : ... .. . ... ... : D-2 11 . 200 ... : ... .. . ... : B-2 23 . ... ... : ... .. B ... ... ... ...
ROW 2D : B-2 18 4 ... ... : ... .. . ... ... : ... .. . S03 ... : ... .. . ... : ... .. . ... ... : ... .. A ... ... ... ...
ROW 2E : B-2 18 8 ... ... : ... .. . ... ... : D-2 11 . ... ... : ... .. . ... : ... .. . ... ... : ... .. 9 ... ... ... ...
ROW 2F : G-2 18 4 ... ... : ... .. . ... ... : ... .. . S03 ... : ... .. . ... : --- .. . G03 ... : ... .. 8 ... ... ... ...
ROW 30 : E-3 18 8 ... ... : ... .. . ... ... : D-3 11 . ... ... : ... .. . ... : B-2 23 . ... ... : A-3 1B E I04 J07 ... ...
ROW 31 : B-2 18 4 ... ... : ... .. . ... ... : ... .. . ... ... : ... .. . ... : ... .. . ... ... : ... .. . ... ... ... ...
ROW 32 : B-2 18 8 ... ... : ... .. . ... ... : ... .. . S03 ... : ... .. . ... : ... .. . ... ... : ... .. D ... ... ... ...
ROW 33 : E-3 18 4 ... ... : ... .. . ... ... : ... .. . ... ... : ... .. . ... : ... .. . ... ... : ... .. C ... ... ... ...
ROW 34 : G-2 18 8 ... ... : ... .. . ... ... : D-2 11 . ... ... : ... .. . ... : ... .. . ... ... : ... .. B ... ... ... ...
ROW 35 : B-2 18 4 ... ... : ... .. . ... ... : ... .. . S03 ... : ... .. . ... : ... .. . ... ... : ... .. A ... ... ... ...
ROW 36 : B-2 18 8 ... ... : ... .. . ... ... : D-2 11 . ... ... : ... .. . ... : ... .. . ... ... : ... .. 9 ... ... ... ...
ROW 37 : G-2 18 4 ... ... : ... .. . ... ... : ... .. . S03 ... : ... .. . ... : ... .. . ... ... : ... .. 8 ... ... ... ...
ROW 38 : E-3 18 8 ... ... : ... .. . ... ... : D-3 11 . ... ... : ... .. . ... : B-2 23 . ... ... : F#3 1B E I03 J63 ... ...
ROW 39 : B-2 18 4 ... ... : ... .. . ... ... : ... .. . ... ... : ... .. . ... : ... .. . ... ... : ... .. . ... ... ... ...
ROW 3A : B-2 18 8 ... ... : ... .. . ... ... : ... .. . S03 ... : ... .. . ... : ... .. . ... ... : ... .. 8 ... ... ... ...
ROW 3B : E-3 18 4 ... ... : ... .. . ... ... : ... .. . ... ... : ... .. . ... : ... .. . ... ... : ... .. . ... ... ... ...
ROW 3C : G-2 18 8 ... ... : ... .. . ... ... : D-4 03 . 236 ... : ... .. . ... : ... .. . ... ... : A-3 1B E I04 J07 ... ...
ROW 3D : B-2 18 4 ... ... : ... .. . ... ... : ... .. . ... ... : ... .. . ... : ... .. . ... ... : ... .. . ... ... ... ...
ROW 3E : B-2 18 8 ... ... : ... .. . ... ... : D-2 11 . 200 ... : ... .. . ... : ... .. . ... ... : F#3 1B 8 I03 J63 ... ...
ROW 3F : G-2 18 4 ... ... : ... .. . ... ... : ... .. . S03 ... : ... .. . ... : ... .. . ... D00 : ... .. . ... ... ... ...
ROW 40 : ... .. . ... ... : ... .. . ... ... : ... .. . ... ... : ... .. . ... : ... .. . ... ... : ... .. . ... ... ... ...
ROW 41 : ... .. . ... ... : ... .. . ... ... : ... .. . ... ... : ... .. . ... : ... .. . ... ... : ... .. . ... ... ... ...
ROW 42 : ... .. . ... ... : ... .. . ... ... : ... .. . ... ... : ... .. . ... : ... .. . ... ... : ... .. . ... ... ... ...
ROW 43 : ... .. . ... ... : ... .. . ... ... : ... .. . ... ... : ... .. . ... : ... .. . ... ... : ... .. . ... ... ... ...
ROW 44 : ... .. . ... ... : ... .. . ... ... : ... .. . ... ... : ... .. . ... : ... .. . ... ... : ... .. . ... ... ... ...
ROW 45 : ... .. . ... ... : ... .. . ... ... : ... .. . ... ... : ... .. . ... : ... .. . ... ... : ... .. . ... ... ... ...
ROW 46 : ... .. . ... ... : ... .. . ... ... : ... .. . ... ... : ... .. . ... : ... .. . ... ... : ... .. . ... ... ... ...
ROW 47 : ... .. . ... ... : ... .. . ... ... : ... .. . ... ... : ... .. . ... : ... .. . ... ... : ... .. . ... ... ... ...
ROW 48 : ... .. . ... ... : ... .. . ... ... : ... .. . ... ... : ... .. . ... : ... .. . ... ... : ... .. . ... ... ... ...
ROW 49 : ... .. . ... ... : ... .. . ... ... : ... .. . ... ... : ... .. . ... : ... .. . ... ... : ... .. . ... ... ... ...
ROW 4A : ... .. . ... ... : ... .. . ... ... : ... .. . ... ... : ... .. . ... : ... .. . ... ... : ... .. . ... ... ... ...
ROW 4B : ... .. . ... ... : ... .. . ... ... : ... .. . ... ... : ... .. . ... : ... .. . ... ... : ... .. . ... ... ... ...
ROW 4C : ... .. . ... ... : ... .. . ... ... : ... .. . ... ... : ... .. . ... : ... .. . ... ... : ... .. . ... ... ... ...
ROW 4D : ... .. . ... ... : ... .. . ... ... : ... .. . ... ... : ... .. . ... : ... .. . ... ... : ... .. . ... ... ... ...
ROW 4E : ... .. . ... ... : ... .. . ... ... : ... .. . ... ... : ... .. . ... : ... .. . ... ... : ... .. . ... ... ... ...
ROW 4F : ... .. . ... ... : ... .. . ... ... : ... .. . ... ... : ... .. . ... : ... .. . ... ... : ... .. . ... ... ... ...
ROW 50 : ... .. . ... ... : ... .. . ... ... : ... .. . ... ... : ... .. . ... : ... .. . ... ... : ... .. . ... ... ... ...
ROW 51 : ... .. . ... ... : ... .. . ... ... : ... .. . ... ... : ... .. . ... : ... .. . ... ... : ... .. . ... ... ... ...
ROW 52 : ... .. . ... ... : ... .. . ... ... : ... .. . ... ... : ... .. . ... : ... .. . ... ... : ... .. . ... ... ... ...
ROW 53 : ... .. . ... ... : ... .. . ... ... : ... .. . ... ... : ... .. . ... : ... .. . ... ... : ... .. . ... ... ... ...
ROW 54 : ... .. . ... ... : ... .. . ... ... : ... .. . ... ... : ... .. . ... : ... .. . ... ... : ... .. . ... ... ... ...
ROW 55 : ... .. . ... ... : ... .. . ... ... : ... .. . ... ... : ... .. . ... : ... .. . ... ... : ... .. . ... ... ... ...
ROW 56 : ... .. . ... ... : ... .. . ... ... : ... .. . ... ... : ... .. . ... : ... .. . ... ... : ... .. . ... ... ... ...
ROW 57 : ... .. . ... ... : ... .. . ... ... : ... .. . ... ... : ... .. . ... : ... .. . ... ... : ... .. . ... ... ... ...
ROW 58 : ... .. . ... ... : ... .. . ... ... : ... .. . ... ... : ... .. . ... : ... .. . ... ... : ... .. . ... ... ... ...
ROW 59 : ... .. . ... ... : ... .. . ... ... : ... .. . ... ... : ... .. . ... : ... .. . ... ... : ... .. . ... ... ... ...
ROW 5A : ... .. . ... ... : ... .. . ... ... : ... .. . ... ... : ... .. . ... : ... .. . ... ... : ... .. . ... ... ... ...
ROW 5B : ... .. . ... ... : ... .. . ... ... : ... .. . ... ... : ... .. . ... : ... .. . ... ... : ... .. . ... ... ... ...
ROW 5C : ... .. . ... ... : ... .. . ... ... : ... .. . ... ... : ... .. . ... : ... .. . ... ... : ... .. . ... ... ... ...
ROW 5D : ... .. . ... ... : ... .. . ... ... : ... .. . ... ... : ... .. . ... : ... .. . ... ... : ... .. . ... ... ... ...
ROW 5E : ... .. . ... ... : ... .. . ... ... : ... .. . ... ... : ... .. . ... : ... .. . ... ... : ... .. . ... ... ... ...
ROW 5F : ... .. . ... ... : ... .. . ... ... : ... .. . ... ... : ... .. . ... : ... .. . ... ... : ... .. . ... ... ... ...
ROW 60 : ... .. . ... ... : ... .. . ... ... : ... .. . ... ... : ... .. . ... : ... .. . ... ... : ... .. . ... ... ... ...
ROW 61 : ... .. . ... ... : ... .. . ... ... : ... .. . ... ... : ... .. . ... : ... .. . ... ... : ... .. . ... ... ... ...
ROW 62 : ... .. . ... ... : ... .. . ... ... : ... .. . ... ... : ... .. . ... : ... .. . ... ... : ... .. . ... ... ... ...
ROW 63 : ... .. . ... ... : ... .. . ... ... : ... .. . ... ... : ... .. . ... : ... .. . ... ... : ... .. . ... ... ... ...
ROW 64 : ... .. . ... ... : ... .. . ... ... : ... .. . ... ... : ... .. . ... : ... .. . ... ... : ... .. . ... ... ... ...
ROW 65 : ... .. . ... ... : ... .. . ... ... : ... .. . ... ... : ... .. . ... : ... .. . ... ... : ... .. . ... ... ... ...
ROW 66 : ... .. . ... ... : ... .. . ... ... : ... .. . ... ... : ... .. . ... : ... .. . ... ... : ... .. . ... ... ... ...
ROW 67 : ... .. . ... ... : ... .. . ... ... : ... .. . ... ... : ... .. . ... : ... .. . ... ... : ... .. . ... ... ... ...
ROW 68 : ... .. . ... ... : ... .. . ... ... : ... .. . ... ... : ... .. . ... : ... .. . ... ... : ... .. . ... ... ... ...
ROW 69 : ... .. . ... ... : ... .. . ... ... : ... .. . ... ... : ... .. . ... : ... .. . ... ... : ... .. . ... ... ... ...
ROW 6A : ... .. . ... ... : ... .. . ... ... : ... .. . ... ... : ... .. . ... : ... .. . ... ... : ... .. . ... ... ... ...
ROW 6B : ... .. . ... ... : ... .. . ... ... : ... .. . ... ... : ... .. . ... : ... .. . ... ... : ... .. . ... ... ... ...
ROW 6C : ... .. . ... ... : ... .. . ... ... : ... .. . ... ... : ... .. . ... : ... .. . ... ... : ... .. . ... ... ... ...
ROW 6D : ... .. . ... ... : ... .. . ... ... : ... .. . ... ... : ... .. . ... : ... .. . ... ... : ... .. . ... ... ... ...
ROW 6E : ... .. . ... ... : ... .. . ... ... : ... .. . ... ... : ... .. . ... : ... .. . ... ... : ... .. . ... ... ... ...
ROW 6F : ... .. . ... ... : ... .. . ... ... : ... .. . ... ... : ... .. . ... : ... .. . ... ... : ... .. . ... ... ... ...
ROW 70 : ... .. . ... ... : ... .. . ... ... : ... .. . ... ... : ... .. . ... : ... .. . ... ... : ... .. . ... ... ... ...
ROW 71 : ... .. . ... ... : ... .. . ... ... : ... .. . ... ... : ... .. . ... : ... .. . ... ... : ... .. . ... ... ... ...
ROW 72 : ... .. . ... ... : ... .. . ... ... : ... .. . ... ... : ... .. . ... : ... .. . ... ... : ... .. . ... ... ... ...
ROW 73 : ... .. . ... ... : ... .. . ... ... : ... .. . ... ... : ... .. . ... : ... .. . ... ... : ... .. . ... ... ... ...
ROW 74 : ... .. . ... ... : ... .. . ... ... : ... .. . ... ... : ... .. . ... : ... .. . ... ... : ... .. . ... ... ... ...
ROW 75 : ... .. . ... ... : ... .. . ... ... : ... .. . ... ... : ... .. . ... : ... .. . ... ... : ... .. . ... ... ... ...
ROW 76 : ... .. . ... ... : ... .. . ... ... : ... .. . ... ... : ... .. . ... : ... .. . ... ... : ... .. . ... ... ... ...
ROW 77 : ... .. . ... ... : ... .. . ... ... : ... .. . ... ... : ... .. . ... : ... .. . ... ... : ... .. . ... ... ... ...
ROW 78 : ... .. . ... ... : ... .. . ... ... : ... .. . ... ... : ... .. . ... : ... .. . ... ... : ... .. . ... ... ... ...
ROW 79 : ... .. . ... ... : ... .. . ... ... : ... .. . ... ... : ... .. . ... : ... .. . ... ... : ... .. . ... ... ... ...
ROW 7A : ... .. . ... ... : ... .. . ... ... : ... .. . ... ... : ... .. . ... : ... .. . ... ... : ... .. . ... ... ... ...
ROW 7B : ... .. . ... ... : ... .. . ... ... : ... .. . ... ... : ... .. . ... : ... .. . ... ... : ... .. . ... ... ... ...
ROW 7C : ... .. . ... ... : ... .. . ... ... : ... .. . ... ... : ... .. . ... : ... .. . ... ... : ... .. . ... ... ... ...
ROW 7D : ... .. . ... ... : ... .. . ... ... : ... .. . ... ... : ... .. . ... : ... .. . ... ... : ... .. . ... ... ... ...
ROW 7E : ... .. . ... ... : ... .. . ... ... : ... .. . ... ... : ... .. . ... : ... .. . ... ... : ... .. . ... ... ... ...
ROW 7F : ... .. . ... ... : ... .. . ... ... : ... .. . ... ... : ... .. . ... : ... .. . ... ... : ... .. . ... ... ... ...
ROW 80 : ... .. . ... ... : ... .. . ... ... : ... .. . ... ... : ... .. . ... : ... .. . ... ... : ... .. . ... ... ... ...
ROW 81 : ... .. . ... ... : ... .. . ... ... : ... .. . ... ... : ... .. . ... : ... .. . ... ... : ... .. . ... ... ... ...
ROW 82 : ... .. . ... ... : ... .. . ... ... : ... .. . ... ... : ... .. . ... : ... .. . ... ... : ... .. . ... ... ... ...
ROW 83 : ... .. . ... ... : ... .. . ... ... : ... .. . ... ... : ... .. . ... : ... .. . ... ... : ... .. . ... ... ... ...
ROW 84 : ... .. . ... ... : ... .. . ... ... : ... .. . ... ... : ... .. . ... : ... .. . ... ... : ... .. . ... ... ... ...
ROW 85 : ... .. . ... ... : ... .. . ... ... : ... .. . ... ... : ... .. . ... : ... .. . ... ... : ... .. . ... ... ... ...
ROW 86 : ... .. . ... ... : ... .. . ... ... : ... .. . ... ... : ... .. . ... : ... .. . ... ... : ... .. . ... ... ... ...
ROW 87 : ... .. . ... ... : ... .. . ... ... : ... .. . ... ... : ... .. . ... : ... .. . ... ... : ... .. . ... ... ... ...
ROW 88 : ... .. . ... ... : ... .. . ... ... : ... .. . ... ... : ... .. . ... : ... .. . ... ... : ... .. . ... ... ... ...
ROW 89 : ... .. . ... ... : ... .. . ... ... : ... .. . ... ... : ... .. . ... : ... .. . ... ... : ... .. . ... ... ... ...
ROW 8A : ... .. . ... ... : ... .. . ... ... : ... .. . ... ... : ... .. . ... : ... .. . ... ... : ... .. . ... ... ... ...
ROW 8B : ... .. . ... ... : ... .. . ... ... : ... .. . ... ... : ... .. . ... : ... .. . ... ... : ... .. . ... ... ... ...
ROW 8C : ... .. . ... ... : ... .. . ... ... : ... .. . ... ... : ... .. . ... : ... .. . ... ... : ... .. . ... ... ... ...
ROW 8D : ... .. . ... ... : ... .. . ... ... : ... .. . ... ... : ... .. . ... : ... .. . ... ... : ... .. . ... ... ... ...
ROW 8E : ... .. . ... ... : ... .. . ... ... : ... .. . ... ... : ... .. . ... : ... .. . ... ... : ... .. . ... ... ... ...
ROW 8F : ... .. . ... ... : ... .. . ... ... : ... .. . ... ... : ... .. . ... : ... .. . ... ... : ... .. . ... ... ... ...
ROW 90 : ... .. . ... ... : ... .. . ... ... : ... .. . ... ... : ... .. . ... : ... .. . ... ... : ... .. . ... ... ... ...
ROW 91 : ... .. . ... ... : ... .. . ... ... : ... .. . ... ... : ... .. . ... : ... .. . ... ... : ... .. . ... ... ... ...
ROW 92 : ... .. . ... ... : ... .. . ... ... : ... .. . ... ... : ... .. . ... : ... .. . ... ... : ... .. . ... ... ... ...
ROW 93 : ... .. . ... ... : ... .. . ... ... : ... .. . ... ... : ... .. . ... : ... .. . ... ... : ... .. . ... ... ... ...
ROW 94 : ... .. . ... ... : ... .. . ... ... : ... .. . ... ... : ... .. . ... : ... .. . ... ... : ... .. . ... ... ... ...
ROW 95 : ... .. . ... ... : ... .. . ... ... : ... .. . ... ... : ... .. . ... : ... .. . ... ... : ... .. . ... ... ... ...
ROW 96 : ... .. . ... ... : ... .. . ... ... : ... .. . ... ... : ... .. . ... : ... .. . ... ... : ... .. . ... ... ... ...
ROW 97 : ... .. . ... ... : ... .. . ... ... : ... .. . ... ... : ... .. . ... : ... .. . ... ... : ... .. . ... ... ... ...
ROW 98 : ... .. . ... ... : ... .. . ... ... : ... .. . ... ... : ... .. . ... : ... .. . ... ... : ... .. . ... ... ... ...
ROW 99 : ... .. . ... ... : ... .. . ... ... : ... .. . ... ... : ... .. . ... : ... .. . ... ... : ... .. . ... ... ... ...
ROW 9A : ... .. . ... ... : ... .. . ... ... : ... .. . ... ... : ... .. . ... : ... .. . ... ... : ... .. . ... ... ... ...
ROW 9B : ... .. . ... ... : ... .. . ... ... : ... .. . ... ... : ... .. . ... : ... .. . ... ... : ... .. . ... ... ... ...
ROW 9C : ... .. . ... ... : ... .. . ... ... : ... .. . ... ... : ... .. . ... : ... .. . ... ... : ... .. . ... ... ... ...
ROW 9D : ... .. . ... ... : ... .. . ... ... : ... .. . ... ... : ... .. . ... : ... .. . ... ... : ... .. . ... ... ... ...
ROW 9E : ... .. . ... ... : ... .. . ... ... : ... .. . ... ... : ... .. . ... : ... .. . ... ... : ... .. . ... ... ... ...
ROW 9F : ... .. . ... ... : ... .. . ... ... : ... .. . ... ... : ... .. . ... : ... .. . ... ... : ... .. . ... ... ... ...
ROW A0 : ... .. . ... ... : ... .. . ... ... : ... .. . ... ... : ... .. . ... : ... .. . ... ... : ... .. . ... ... ... ...
ROW A1 : ... .. . ... ... : ... .. . ... ... : ... .. . ... ... : ... .. . ... : ... .. . ... ... : ... .. . ... ... ... ...
ROW A2 : ... .. . ... ... : ... .. . ... ... : ... .. . ... ... : ... .. . ... : ... .. . ... ... : ... .. . ... ... ... ...
ROW A3 : ... .. . ... ... : ... .. . ... ... : ... .. . ... ... : ... .. . ... : ... .. . ... ... : ... .. . ... ... ... ...
ROW A4 : ... .. . ... ... : ... .. . ... ... : ... .. . ... ... : ... .. . ... : ... .. . ... ... : ... .. . ... ... ... ...
ROW A5 : ... .. . ... ... : ... .. . ... ... : ... .. . ... ... : ... .. . ... : ... .. . ... ... : ... .. . ... ... ... ...
ROW A6 : ... .. . ... ... : ... .. . ... ... : ... .. . ... ... : ... .. . ... : ... .. . ... ... : ... .. . ... ... ... ...
ROW A7 : ... .. . ... ... : ... .. . ... ... : ... .. . ... ... : ... .. . ... : ... .. . ... ... : ... .. . ... ... ... ...
ROW A8 : ... .. . ... ... : ... .. . ... ... : ... .. . ... ... : ... .. . ... : ... .. . ... ... : ... .. . ... ... ... ...
ROW A9 : ... .. . ... ... : ... .. . ... ... : ... .. . ... ... : ... .. . ... : ... .. . ... ... : ... .. . ... ... ... ...
ROW AA : ... .. . ... ... : ... .. . ... ... : ... .. . ... ... : ... .. . ... : ... .. . ... ... : ... .. . ... ... ... ...
ROW AB : ... .. . ... ... : ... .. . ... ... : ... .. . ... ... : ... .. . ... : ... .. . ... ... : ... .. . ... ... ... ...
ROW AC : ... .. . ... ... : ... .. . ... ... : ... .. . ... ... : ... .. . ... : ... .. . ... ... : ... .. . ... ... ... ...
ROW AD : ... .. . ... ... : ... .. . ... ... : ... .. . ... ... : ... .. . ... : ... .. . ... ... : ... .. . ... ... ... ...
ROW AE : ... .. . ... ... : ... .. . ... ... : ... .. . ... ... : ... .. . ... : ... .. . ... ... : ... .. . ... ... ... ...
ROW AF : ... .. . ... ... : ... .. . ... ... : ... .. . ... ... : ... .. . ... : ... .. . ... ... : ... .. . ... ... ... ...
ROW B0 : ... .. . ... ... : ... .. . ... ... : ... .. . ... ... : ... .. . ... : ... .. . ... ... : ... .. . ... ... ... ...
ROW B1 : ... .. . ... ... : ... .. . ... ... : ... .. . ... ... : ... .. . ... : ... .. . ... ... : ... .. . ... ... ... ...
ROW B2 : ... .. . ... ... : ... .. . ... ... : ... .. . ... ... : ... .. . ... : ... .. . ... ... : ... .. . ... ... ... ...
ROW B3 : ... .. . ... ... : ... .. . ... ... : ... .. . ... ... : ... .. . ... : ... .. . ... ... : ... .. . ... ... ... ...
ROW B4 : ... .. . ... ... : ... .. . ... ... : ... .. . ... ... : ... .. . ... : ... .. . ... ... : ... .. . ... ... ... ...
ROW B5 : ... .. . ... ... : ... .. . ... ... : ... .. . ... ... : ... .. . ... : ... .. . ... ... : ... .. . ... ... ... ...
ROW B6 : ... .. . ... ... : ... .. . ... ... : ... .. . ... ... : ... .. . ... : ... .. . ... ... : ... .. . ... ... ... ...
ROW B7 : ... .. . ... ... : ... .. . ... ... : ... .. . ... ... : ... .. . ... : ... .. . ... ... : ... .. . ... ... ... ...
ROW B8 : ... .. . ... ... : ... .. . ... ... : ... .. . ... ... : ... .. . ... : ... .. . ... ... : ... .. . ... ... ... ...
ROW B9 : ... .. . ... ... : ... .. . ... ... : ... .. . ... ... : ... .. . ... : ... .. . ... ... : ... .. . ... ... ... ...
ROW BA : ... .. . ... ... : ... .. . ... ... : ... .. . ... ... : ... .. . ... : ... .. . ... ... : ... .. . ... ... ... ...
ROW BB : ... .. . ... ... : ... .. . ... ... : ... .. . ... ... : ... .. . ... : ... .. . ... ... : ... .. . ... ... ... ...
ROW BC : ... .. . ... ... : ... .. . ... ... : ... .. . ... ... : ... .. . ... : ... .. . ... ... : ... .. . ... ... ... ...
ROW BD : ... .. . ... ... : ... .. . ... ... : ... .. . ... ... : ... .. . ... : ... .. . ... ... : ... .. . ... ... ... ...
ROW BE : ... .. . ... ... : ... .. . ... ... : ... .. . ... ... : ... .. . ... : ... .. . ... ... : ... .. . ... ... ... ...
ROW BF : ... .. . ... ... : ... .. . ... ... : ... .. . ... ... : ... .. . ... : ... .. . ... ... : ... .. . ... ... ... ...
ROW C0 : ... .. . ... ... : ... .. . ... ... : ... .. . ... ... : ... .. . ... : ... .. . ... ... : ... .. . ... ... ... ...
ROW C1 : ... .. . ... ... : ... .. . ... ... : ... .. . ... ... : ... .. . ... : ... .. . ... ... : ... .. . ... ... ... ...
ROW C2 : ... .. . ... ... : ... .. . ... ... : ... .. . ... ... : ... .. . ... : ... .. . ... ... : ... .. . ... ... ... ...
ROW C3 : ... .. . ... ... : ... .. . ... ... : ... .. . ... ... : ... .. . ... : ... .. . ... ... : ... .. . ... ... ... ...
ROW C4 : ... .. . ... ... : ... .. . ... ... : ... .. . ... ... : ... .. . ... : ... .. . ... ... : ... .. . ... ... ... ...
ROW C5 : ... .. . ... ... : ... .. . ... ... : ... .. . ... ... : ... .. . ... : ... .. . ... ... : ... .. . ... ... ... ...
ROW C6 : ... .. . ... ... : ... .. . ... ... : ... .. . ... ... : ... .. . ... : ... .. . ... ... : ... .. . ... ... ... ...
ROW C7 : ... .. . ... ... : ... .. . ... ... : ... .. . ... ... : ... .. . ... : ... .. . ... ... : ... .. . ... ... ... ...
ROW C8 : ... .. . ... ... : ... .. . ... ... : ... .. . ... ... : ... .. . ... : ... .. . ... ... : ... .. . ... ... ... ...
ROW C9 : ... .. . ... ... : ... .. . ... ... : ... .. . ... ... : ... .. . ... : ... .. . ... ... : ... .. . ... ... ... ...
ROW CA : ... .. . ... ... : ... .. . ... ... : ... .. . ... ... : ... .. . ... : ... .. . ... ... : ... .. . ... ... ... ...
ROW CB : ... .. . ... ... : ... .. . ... ... : ... .. . ... ... : ... .. . ... : ... .. . ... ... : ... .. . ... ... ... ...
ROW CC : ... .. . ... ... : ... .. . ... ... : ... .. . ... ... : ... .. . ... : ... .. . ... ... : ... .. . ... ... ... ...
ROW CD : ... .. . ... ... : ... .. . ... ... : ... .. . ... ... : ... .. . ... : ... .. . ... ... : ... .. . ... ... ... ...
ROW CE : ... .. . ... ... : ... .. . ... ... : ... .. . ... ... : ... .. . ... : ... .. . ... ... : ... .. . ... ... ... ...
ROW CF : ... .. . ... ... : ... .. . ... ... : ... .. . ... ... : ... .. . ... : ... .. . ... ... : ... .. . ... ... ... ...
ROW D0 : ... .. . ... ... : ... .. . ... ... : ... .. . ... ... : ... .. . ... : ... .. . ... ... : ... .. . ... ... ... ...
ROW D1 : ... .. . ... ... : ... .. . ... ... : ... .. . ... ... : ... .. . ... : ... .. . ... ... : ... .. . ... ... ... ...
ROW D2 : ... .. . ... ... : ... .. . ... ... : ... .. . ... ... : ... .. . ... : ... .. . ... ... : ... .. . ... ... ... ...
ROW D3 : ... .. . ... ... : ... .. . ... ... : ... .. . ... ... : ... .. . ... : ... .. . ... ... : ... .. . ... ... ... ...
ROW D4 : ... .. . ... ... : ... .. . ... ... : ... .. . ... ... : ... .. . ... : ... .. . ... ... : ... .. . ... ... ... ...
ROW D5 : ... .. . ... ... : ... .. . ... ... : ... .. . ... ... : ... .. . ... : ... .. . ... ... : ... .. . ... ... ... ...
ROW D6 : ... .. . ... ... : ... .. . ... ... : ... .. . ... ... : ... .. . ... : ... .. . ... ... : ... .. . ... ... ... ...
ROW D7 : ... .. . ... ... : ... .. . ... ... : ... .. . ... ... : ... .. . ... : ... .. . ... ... : ... .. . ... ... ... ...
ROW D8 : ... .. . ... ... : ... .. . ... ... : ... .. . ... ... : ... .. . ... : ... .. . ... ... : ... .. . ... ... ... ...
ROW D9 : ... .. . ... ... : ... .. . ... ... : ... .. . ... ... : ... .. . ... : ... .. . ... ... : ... .. . ... ... ... ...
ROW DA : ... .. . ... ... : ... .. . ... ... : ... .. . ... ... : ... .. . ... : ... .. . ... ... : ... .. . ... ... ... ...
ROW DB : ... .. . ... ... : ... .. . ... ... : ... .. . ... ... : ... .. . ... : ... .. . ... ... : ... .. . ... ... ... ...
ROW DC : ... .. . ... ... : ... .. . ... ... : ... .. . ... ... : ... .. . ... : ... .. . ... ... : ... .. . ... ... ... ...
ROW DD : ... .. . ... ... : ... .. . ... ... : ... .. . ... ... : ... .. . ... : ... .. . ... ... : ... .. . ... ... ... ...
ROW DE : ... .. . ... ... : ... .. . ... ... : ... .. . ... ... : ... .. . ... : ... .. . ... ... : ... .. . ... ... ... ...
ROW DF : ... .. . ... ... : ... .. . ... ... : ... .. . ... ... : ... .. . ... : ... .. . ... ... : ... .. . ... ... ... ...
ROW E0 : ... .. . ... ... : ... .. . ... ... : ... .. . ... ... : ... .. . ... : ... .. . ... ... : ... .. . ... ... ... ...
ROW E1 : ... .. . ... ... : ... .. . ... ... : ... .. . ... ... : ... .. . ... : ... .. . ... ... : ... .. . ... ... ... ...
ROW E2 : ... .. . ... ... : ... .. . ... ... : ... .. . ... ... : ... .. . ... : ... .. . ... ... : ... .. . ... ... ... ...
ROW E3 : ... .. . ... ... : ... .. . ... ... : ... .. . ... ... : ... .. . ... : ... .. . ... ... : ... .. . ... ... ... ...
ROW E4 : ... .. . ... ... : ... .. . ... ... : ... .. . ... ... : ... .. . ... : ... .. . ... ... : ... .. . ... ... ... ...
ROW E5 : ... .. . ... ... : ... .. . ... ... : ... .. . ... ... : ... .. . ... : ... .. . ... ... : ... .. . ... ... ... ...
ROW E6 : ... .. . ... ... : ... .. . ... ... : ... .. . ... ... : ... .. . ... : ... .. . ... ... : ... .. . ... ... ... ...
ROW E7 : ... .. . ... ... : ... .. . ... ... : ... .. . ... ... : ... .. . ... : ... .. . ... ... : ... .. . ... ... ... ...
ROW E8 : ... .. . ... ... : ... .. . ... ... : ... .. . ... ... : ... .. . ... : ... .. . ... ... : ... .. . ... ... ... ...
ROW E9 : ... .. . ... ... : ... .. . ... ... : ... .. . ... ... : ... .. . ... : ... .. . ... ... : ... .. . ... ... ... ...
ROW EA : ... .. . ... ... : ... .. . ... ... : ... .. . ... ... : ... .. . ... : ... .. . ... ... : ... .. . ... ... ... ...
ROW EB : ... .. . ... ... : ... .. . ... ... : ... .. . ... ... : ... .. . ... : ... .. . ... ... : ... .. . ... ... ... ...
ROW EC : ... .. . ... ... : ... .. . ... ... : ... .. . ... ... : ... .. . ... : ... .. . ... ... : ... .. . ... ... ... ...
ROW ED : ... .. . ... ... : ... .. . ... ... : ... .. . ... ... : ... .. . ... : ... .. . ... ... : ... .. . ... ... ... ...
ROW EE : ... .. . ... ... : ... .. . ... ... : ... .. . ... ... : ... .. . ... : ... .. . ... ... : ... .. . ... ... ... ...
ROW EF : ... .. . ... ... : ... .. . ... ... : ... .. . ... ... : ... .. . ... : ... .. . ... ... : ... .. . ... ... ... ...
ROW F0 : ... .. . ... ... : ... .. . ... ... : ... .. . ... ... : ... .. . ... : ... .. . ... ... : ... .. . ... ... ... ...
ROW F1 : ... .. . ... ... : ... .. . ... ... : ... .. . ... ... : ... .. . ... : ... .. . ... ... : ... .. . ... ... ... ...
ROW F2 : ... .. . ... ... : ... .. . ... ... : ... .. . ... ... : ... .. . ... : ... .. . ... ... : ... .. . ... ... ... ...
ROW F3 : ... .. . ... ... : ... .. . ... ... : ... .. . ... ... : ... .. . ... : ... .. . ... ... : ... .. . ... ... ... ...
ROW F4 : ... .. . ... ... : ... .. . ... ... : ... .. . ... ... : ... .. . ... : ... .. . ... ... : ... .. . ... ... ... ...
ROW F5 : ... .. . ... ... : ... .. . ... ... : ... .. . ... ... : ... .. . ... : ... .. . ... ... : ... .. . ... ... ... ...
ROW F6 : ... .. . ... ... : ... .. . ... ... : ... .. . ... ... : ... .. . ... : ... .. . ... ... : ... .. . ... ... ... ...
ROW F7 : ... .. . ... ... : ... .. . ... ... : ... .. . ... ... : ... .. . ... : ... .. . ... ... : ... .. . ... ... ... ...
ROW F8 : ... .. . ... ... : ... .. . ... ... : ... .. . ... ... : ... .. . ... : ... .. . ... ... : ... .. . ... ... ... ...
ROW F9 : ... .. . ... ... : ... .. . ... ... : ... .. . ... ... : ... .. . ... : ... .. . ... ... : ... .. . ... ... ... ...
ROW FA : ... .. . ... ... : ... .. . ... ... : ... .. . ... ... : ... .. . ... : ... .. . ... ... : ... .. . ... ... ... ...
ROW FB : ... .. . ... ... : ... .. . ... ... : ... .. . ... ... : ... .. . ... : ... .. . ... ... : ... .. . ... ... ... ...
ROW FC : ... .. . ... ... : ... .. . ... ... : ... .. . ... ... : ... .. . ... : ... .. . ... ... : ... .. . ... ... ... ...
ROW FD : ... .. . ... ... : ... .. . ... ... : ... .. . ... ... : ... .. . ... : ... .. . ... ... : ... .. . ... ... ... ...
ROW FE : ... .. . ... ... : ... .. . ... ... : ... .. . ... ... : ... .. . ... : ... .. . ... ... : ... .. . ... ... ... ...
ROW FF : ... .. . ... ... : ... .. . ... ... : ... .. . ... ... : ... .. . ... : ... .. . ... ... : ... .. . ... ... ... ...

PATTERN 1C
ROW 00 : E-4 0D A ... ... : E-4 19 3 ... ... : B-2 11 . ... ... : ... .. . ... : A-2 23 . F04 ... : B-3 1B E I04 J85 ... ...
ROW 01 : ... .. 6 ... ... : ... .. . ... ... : ... .. . ... ... : ... .. . ... : ... .. . ... ... : ... .. . ... ... ... ...
ROW 02 : C-4 0D A G02 ... : ... .. . ... ... : ... .. . S03 ... : ... .. . ... : ... .. . ... ... : ... .. . ... ... ... ...
ROW 03 : ... .. . ... ... : ... .. . ... ... : ... .. . ... ... : ... .. . ... : ... .. . ... ... : ... .. . ... ... ... ...
ROW 04 : E-4 0D 6 ... ... : ... .. . ... ... : B-1 11 . ... ... : ... .. . ... : ... .. . ... ... : ... .. . ... ... ... ...
ROW 05 : A-3 0D A G01 ... : ... .. . ... ... : ... .. . S03 ... : ... .. . ... : ... .. . ... ... : ... .. . ... ... ... ...
ROW 06 : ... .. . ... ... : ... .. . ... ... : B-1 11 . ... ... : ... .. . ... : ... .. . ... ... : ... .. . ... ... ... ...
ROW 07 : C-4 0D 6 G01 ... : ... .. . ... ... : ... .. . ... ... : ... .. . ... : ... .. . ... ... : ... .. . ... ... ... ...
ROW 08 : E-3 0D A ... ... : ... .. . ... ... : B-3 03 . 236 ... : ... .. . ... : A-2 23 . ... ... : ... .. . ... ... ... ...
ROW 09 : A-3 0D 6 ... ... : ... .. . ... ... : ... .. . ... ... : ... .. . ... : --- .. . G05 ... : ... .. . ... ... ... ...
ROW 0A : A-3 0D A G02 ... : ... .. . ... ... : ... .. . ... ... : ... .. . ... : A-2 23 . G02 ... : ... .. . ... ... ... ...
ROW 0B : ... .. . ... ... : ... .. . ... ... : ... .. . ... ... : ... .. . ... : ... .. . ... ... : ... .. . ... ... ... ...
ROW 0C : E-3 0D 6 ... ... : ... .. . ... ... : B-1 11 . 200 ... : ... .. . ... : --- .. . G04 ... : ... .. . ... ... ... ...
ROW 0D : C-4 0D A G01 ... : ... .. . ... ... : ... .. . S03 ... : ... .. . ... : A-2 23 . G01 ... : ... .. . ... ... ... ...
ROW 0E : ... .. . ... ... : ... .. . ... ... : B-1 11 . ... ... : ... .. . ... : ... .. . ... ... : ... .. . ... ... ... ...
ROW 0F : A-3 0D 6 ... ... : ... .. . ... ... : ... .. . S03 ... : ... .. . ... : ... .. . ... ... : ... .. . ... ... ... ...
ROW 10 : E-4 0D A ... ... : ... .. . ... ... : B-2 11 . ... ... : ... .. . ... : A-2 23 . ... ... : ... .. D ... ... ... ...
ROW 11 : C-4 0D 6 ... ... : ... .. . ... ... : ... .. . ... ... : ... .. . ... : ... .. . ... ... : ... .. . ... ... ... ...
ROW 12 : C-4 0D A G02 ... : ... .. . ... ... : ... .. . S03 ... : ... .. . ... : ... .. . ... ... : ... .. C ... ... ... ...
ROW 13 : ... .. . ... ... : ... .. . ... ... : ... .. . ... ... : ... .. . ... : ... .. . ... ... : ... .. . ... ... ... ...
ROW 14 : E-4 0D 6 ... ... : ... .. . ... ... : B-1 11 . ... ... : ... .. . ... : ... .. . ... ... : ... .. B ... ... ... ...
ROW 15 : A-3 0D A G01 ... : ... .. . ... ... : ... .. . S03 ... : ... .. . ... : ... .. . ... ... : ... .. . ... ... ... ...
ROW 16 : ... .. . ... ... : ... .. . ... ... : B-1 11 . ... ... : ... .. . ... : ... .. . ... ... : ... .. A ... ... ... ...
ROW 17 : C-4 0D 6 ... ... : ... .. . ... ... : ... .. . S03 ... : ... .. . ... : ... .. . ... ... : ... .. . ... ... ... ...
ROW 18 : E-3 0D A ... ... : ... .. . ... ... : B-2 11 . ... ... : ... .. . ... : A-2 23 . ... ... : ... .. 9 ... ... ... ...
ROW 19 : A-3 0D 6 ... ... : ... .. . ... ... : ... .. . ... ... : ... .. . ... : ... .. . ... ... : ... .. . ... ... ... ...
ROW 1A : A-3 0D A G02 ... : ... .. . ... ... : ... .. . S03 ... : ... .. . ... : ... .. . ... ... : ... .. 8 ... ... ... ...
ROW 1B : ... .. . ... ... : ... .. . ... ... : ... .. . ... ... : ... .. . ... : ... .. . ... ... : ... .. . ... ... ... ...
ROW 1C : E-3 0D 6 ... ... : ... .. . ... ... : B-3 03 . 236 ... : ... .. . ... : ... .. . ... ... : ... .. 7 ... ... ... ...
ROW 1D : C-4 0D A G01 ... : ... .. . ... ... : ... .. . ... ... : ... .. . ... : ... .. . ... ... : ... .. . ... ... ... ...
ROW 1E : ... .. . ... ... : ... .. . ... ... : B-1 11 . 200 ... : ... .. . ... : ... .. . ... ... : ... .. 6 ... ... ... ...
ROW 1F : A-3 0D 6 ... ... : ... .. . ... ... : ... .. . S03 ... : ... .. . ... : ... .. . ... ... : ... .. . ... ... ... ...
ROW 20 : B-3 0D A ... ... : F#4 1C . ... ... : B-4 03 . 236 ... : ... .. . ... : B-2 23 . ... ... : ... .. 5 ... ... ... ...
ROW 21 : ... .. 6 ... ... : ... .. . ... ... : ... .. . ... ... : ... .. . ... : ... .. . ... ... : ... .. . ... ... ... ...
ROW 22 : G-3 0D A G02 ... : ... .. . ... ... : ... .. . ... ... : ... .. . ... : ... .. . ... ... : ... .. 4 ... ... ... ...
ROW 23 : ... .. . ... ... : ... .. . ... ... : ... .. . ... ... : ... .. . ... : ... .. . ... ... : ... .. . ... ... ... ...
ROW 24 : B-3 0D 6 ... ... : ... .. . ... ... : B-1 11 . 200 ... : ... .. . ... : ... .. . ... ... : ... .. 3 ... ... ... ...
ROW 25 : E-3 0D A G01 ... : ... .. . ... ... : ... .. . ... ... : ... .. . ... : ... .. . ... ... : ... .. . ... ... ... ...
ROW 26 : ... .. . ... ... : ... .. . ... ... : B-4 03 . 236 ... : ... .. . ... : ... .. . ... ... : ... .. 2 ... ... ... ...
ROW 27 : G-3 0D 6 ... ... : ... .. . ... ... : ... .. . ... ... : ... .. . ... : ... .. . ... ... : ... .. . ... ... ... ...
ROW 28 : B-2 0D A ... ... : ... .. . ... ... : B-2 11 . 200 ... : ... .. . ... : B-2 23 . ... ... : ... .. 1 ... ... ... ...
ROW 29 : E-3 0D 6 ... ... : ... .. . ... ... : ... .. . ... ... : ... .. . ... : ... .. . ... ... : ... .. . ... ... ... ...
ROW 2A : E-3 0D A G02 ... : ... .. . ... ... : ... .. . S03 ... : ... .. . ... : ... .. . ... ... : --- .. E ... ... ... ...
ROW 2B : ... .. . ... ... : ... .. . ... ... : ... .. . ... ... : ... .. . ... : --- .. . G03 ... : ... .. . ... ... ... ...
ROW 2C : B-2 0D 6 ... ... : ... .. . ... ... : B-4 03 . 236 ... : ... .. . ... : B-2 23 . ... ... : ... .. . ... ... ... ...
ROW 2D : G-3 0D A G01 ... : ... .. . ... ... : ... .. . ... ... : ... .. . ... : ... .. . ... ... : ... .. . ... ... ... ...
ROW 2E : ... .. . ... ... : ... .. . ... ... : B-1 11 . 200 ... : ... .. . ... : ... .. . ... ... : ... .. . ... ... ... ...
ROW 2F : E-3 0D 6 ... ... : ... .. . ... ... : ... .. . ... ... : ... .. . ... : --- .. . G03 ... : ... .. . ... ... ... ...
ROW 30 : B-3 0D A ... ... : ... .. . ... ... : B-2 11 . ... ... : ... .. . ... : B-2 23 . ... ... : ... .. . ... ... ... ...
ROW 31 : G-3 0D 6 ... ... : ... .. . ... ... : ... .. . ... ... : ... .. . ... : ... .. . ... ... : ... .. . ... ... ... ...
ROW 32 : G-3 0D A G02 ... : ... .. . ... ... : B-4 03 . 236 ... : ... .. . ... : ... .. . ... ... : ... .. . ... ... ... ...
ROW 33 : ... .. . ... ... : ... .. . ... ... : ... .. . ... ... : ... .. . ... : ... .. . ... ... : ... .. . ... ... ... ...
ROW 34 : B-3 0D 6 ... ... : ... .. . ... ... : B-1 11 . 200 ... : ... .. . ... : ... .. . ... ... : ... .. . ... ... ... ...
ROW 35 : E-3 0D A G01 ... : ... .. . ... ... : ... .. . S03 ... : ... .. . ... : ... .. . ... ... : ... .. . ... ... ... ...
ROW 36 : ... .. . ... ... : ... .. . ... ... : B-1 11 . ... ... : ... .. . ... : ... .. . ... ... : ... .. . ... ... ... ...
ROW 37 : G-3 0D 6 ... ... : ... .. . ... ... : ... .. . ... ... : ... .. . ... : ... .. . ... ... : ... .. . ... ... ... ...
ROW 38 : B-2 0D A ... ... : ... .. . ... ... : B-4 03 . 236 ... : ... .. . ... : B-2 23 . ... ... : ... .. . ... ... ... ...
ROW 39 : E-3 0D 6 ... ... : ... .. . ... ... : ... .. . ... ... : ... .. . ... : ... .. . ... ... : ... .. . ... ... ... ...
ROW 3A : E-3 0D A G02 ... : ... .. . ... ... : ... .. . ... ... : ... .. . ... : ... .. . ... ... : ... .. . ... ... ... ...
ROW 3B : ... .. . ... ... : ... .. . ... ... : ... .. . ... ... : ... .. . ... : ... .. . ... ... : ... .. . ... ... ... ...
ROW 3C : B-2 0D 6 ... ... : ... .. . ... ... : B-4 03 . ... ... : ... .. . ... : ... .. . ... ... : ... .. . ... ... ... ...
ROW 3D : G-3 0D A G01 ... : ... .. . ... ... : ... .. . ... ... : ... .. . ... : ... .. . ... ... : ... .. . ... ... ... ...
ROW 3E : ... .. . ... ... : ... .. . ... ... : B-4 03 . ... ... : ... .. . ... : ... .. . ... ... : ... .. . ... ... ... ...
ROW 3F : E-3 0D 6 ... ... : ... .. . ... ... : ... .. . ... ... : ... .. . ... : ... .. . ... D00 : ... .. . ... ... ... ...
ROW 40 : ... .. . ... ... : ... .. . ... ... : ... .. . ... ... : ... .. . ... : ... .. . ... ... : ... .. . ... ... ... ...
ROW 41 : ... .. . ... ... : ... .. . ... ... : ... .. . ... ... : ... .. . ... : ... .. . ... ... : ... .. . ... ... ... ...
ROW 42 : ... .. . ... ... : ... .. . ... ... : ... .. . ... ... : ... .. . ... : ... .. . ... ... : ... .. . ... ... ... ...
ROW 43 : ... .. . ... ... : ... .. . ... ... : ... .. . ... ... : ... .. . ... : ... .. . ... ... : ... .. . ... ... ... ...
ROW 44 : ... .. . ... ... : ... .. . ... ... : ... .. . ... ... : ... .. . ... : ... .. . ... ... : ... .. . ... ... ... ...
ROW 45 : ... .. . ... ... : ... .. . ... ... : ... .. . ... ... : ... .. . ... : ... .. . ... ... : ... .. . ... ... ... ...
ROW 46 : ... .. . ... ... : ... .. . ... ... : ... .. . ... ... : ... .. . ... : ... .. . ... ... : ... .. . ... ... ... ...
ROW 47 : ... .. . ... ... : ... .. . ... ... : ... .. . ... ... : ... .. . ... : ... .. . ... ... : ... .. . ... ... ... ...
ROW 48 : ... .. . ... ... : ... .. . ... ... : ... .. . ... ... : ... .. . ... : ... .. . ... ... : ... .. . ... ... ... ...
ROW 49 : ... .. . ... ... : ... .. . ... ... : ... .. . ... ... : ... .. . ... : ... .. . ... ... : ... .. . ... ... ... ...
ROW 4A : ... .. . ... ... : ... .. . ... ... : ... .. . ... ... : ... .. . ... : ... .. . ... ... : ... .. . ... ... ... ...
ROW 4B : ... .. . ... ... : ... .. . ... ... : ... .. . ... ... : ... .. . ... : ... .. . ... ... : ... .. . ... ... ... ...
ROW 4C : ... .. . ... ... : ... .. . ... ... : ... .. . ... ... : ... .. . ... : ... .. . ... ... : ... .. . ... ... ... ...
ROW 4D : ... .. . ... ... : ... .. . ... ... : ... .. . ... ... : ... .. . ... : ... .. . ... ... : ... .. . ... ... ... ...
ROW 4E : ... .. . ... ... : ... .. . ... ... : ... .. . ... ... : ... .. . ... : ... .. . ... ... : ... .. . ... ... ... ...
ROW 4F : ... .. . ... ... : ... .. . ... ... : ... .. . ... ... : ... .. . ... : ... .. . ... ... : ... .. . ... ... ... ...
ROW 50 : ... .. . ... ... : ... .. . ... ... : ... .. . ... ... : ... .. . ... : ... .. . ... ... : ... .. . ... ... ... ...
ROW 51 : ... .. . ... ... : ... .. . ... ... : ... .. . ... ... : ... .. . ... : ... .. . ... ... : ... .. . ... ... ... ...
ROW 52 : ... .. . ... ... : ... .. . ... ... : ... .. . ... ... : ... .. . ... : ... .. . ... ... : ... .. . ... ... ... ...
ROW 53 : ... .. . ... ... : ... .. . ... ... : ... .. . ... ... : ... .. . ... : ... .. . ... ... : ... .. . ... ... ... ...
ROW 54 : ... .. . ... ... : ... .. . ... ... : ... .. . ... ... : ... .. . ... : ... .. . ... ... : ... .. . ... ... ... ...
ROW 55 : ... .. . ... ... : ... .. . ... ... : ... .. . ... ... : ... .. . ... : ... .. . ... ... : ... .. . ... ... ... ...
ROW 56 : ... .. . ... ... : ... .. . ... ... : ... .. . ... ... : ... .. . ... : ... .. . ... ... : ... .. . ... ... ... ...
ROW 57 : ... .. . ... ... : ... .. . ... ... : ... .. . ... ... : ... .. . ... : ... .. . ... ... : ... .. . ... ... ... ...
ROW 58 : ... .. . ... ... : ... .. . ... ... : ... .. . ... ... : ... .. . ... : ... .. . ... ... : ... .. . ... ... ... ...
ROW 59 : ... .. . ... ... : ... .. . ... ... : ... .. . ... ... : ... .. . ... : ... .. . ... ... : ... .. . ... ... ... ...
ROW 5A : ... .. . ... ... : ... .. . ... ... : ... .. . ... ... : ... .. . ... : ... .. . ... ... : ... .. . ... ... ... ...
ROW 5B : ... .. . ... ... : ... .. . ... ... : ... .. . ... ... : ... .. . ... : ... .. . ... ... : ... .. . ... ... ... ...
ROW 5C : ... .. . ... ... : ... .. . ... ... : ... .. . ... ... : ... .. . ... : ... .. . ... ... : ... .. . ... ... ... ...
ROW 5D : ... .. . ... ... : ... .. . ... ... : ... .. . ... ... : ... .. . ... : ... .. . ... ... : ... .. . ... ... ... ...
ROW 5E : ... .. . ... ... : ... .. . ... ... : ... .. . ... ... : ... .. . ... : ... .. . ... ... : ... .. . ... ... ... ...
ROW 5F : ... .. . ... ... : ... .. . ... ... : ... .. . ... ... : ... .. . ... : ... .. . ... ... : ... .. . ... ... ... ...
ROW 60 : ... .. . ... ... : ... .. . ... ... : ... .. . ... ... : ... .. . ... : ... .. . ... ... : ... .. . ... ... ... ...
ROW 61 : ... .. . ... ... : ... .. . ... ... : ... .. . ... ... : ... .. . ... : ... .. . ... ... : ... .. . ... ... ... ...
ROW 62 : ... .. . ... ... : ... .. . ... ... : ... .. . ... ... : ... .. . ... : ... .. . ... ... : ... .. . ... ... ... ...
ROW 63 : ... .. . ... ... : ... .. . ... ... : ... .. . ... ... : ... .. . ... : ... .. . ... ... : ... .. . ... ... ... ...
ROW 64 : ... .. . ... ... : ... .. . ... ... : ... .. . ... ... : ... .. . ... : ... .. . ... ... : ... .. . ... ... ... ...
ROW 65 : ... .. . ... ... : ... .. . ... ... : ... .. . ... ... : ... .. . ... : ... .. . ... ... : ... .. . ... ... ... ...
ROW 66 : ... .. . ... ... : ... .. . ... ... : ... .. . ... ... : ... .. . ... : ... .. . ... ... : ... .. . ... ... ... ...
ROW 67 : ... .. . ... ... : ... .. . ... ... : ... .. . ... ... : ... .. . ... : ... .. . ... ... : ... .. . ... ... ... ...
ROW 68 : ... .. . ... ... : ... .. . ... ... : ... .. . ... ... : ... .. . ... : ... .. . ... ... : ... .. . ... ... ... ...
ROW 69 : ... .. . ... ... : ... .. . ... ... : ... .. . ... ... : ... .. . ... : ... .. . ... ... : ... .. . ... ... ... ...
ROW 6A : ... .. . ... ... : ... .. . ... ... : ... .. . ... ... : ... .. . ... : ... .. . ... ... : ... .. . ... ... ... ...
ROW 6B : ... .. . ... ... : ... .. . ... ... : ... .. . ... ... : ... .. . ... : ... .. . ... ... : ... .. . ... ... ... ...
ROW 6C : ... .. . ... ... : ... .. . ... ... : ... .. . ... ... : ... .. . ... : ... .. . ... ... : ... .. . ... ... ... ...
ROW 6D : ... .. . ... ... : ... .. . ... ... : ... .. . ... ... : ... .. . ... : ... .. . ... ... : ... .. . ... ... ... ...
ROW 6E : ... .. . ... ... : ... .. . ... ... : ... .. . ... ... : ... .. . ... : ... .. . ... ... : ... .. . ... ... ... ...
ROW 6F : ... .. . ... ... : ... .. . ... ... : ... .. . ... ... : ... .. . ... : ... .. . ... ... : ... .. . ... ... ... ...
ROW 70 : ... .. . ... ... : ... .. . ... ... : ... .. . ... ... : ... .. . ... : ... .. . ... ... : ... .. . ... ... ... ...
ROW 71 : ... .. . ... ... : ... .. . ... ... : ... .. . ... ... : ... .. . ... : ... .. . ... ... : ... .. . ... ... ... ...
ROW 72 : ... .. . ... ... : ... .. . ... ... : ... .. . ... ... : ... .. . ... : ... .. . ... ... : ... .. . ... ... ... ...
ROW 73 : ... .. . ... ... : ... .. . ... ... : ... .. . ... ... : ... .. . ... : ... .. . ... ... : ... .. . ... ... ... ...
ROW 74 : ... .. . ... ... : ... .. . ... ... : ... .. . ... ... : ... .. . ... : ... .. . ... ... : ... .. . ... ... ... ...
ROW 75 : ... .. . ... ... : ... .. . ... ... : ... .. . ... ... : ... .. . ... : ... .. . ... ... : ... .. . ... ... ... ...
ROW 76 : ... .. . ... ... : ... .. . ... ... : ... .. . ... ... : ... .. . ... : ... .. . ... ... : ... .. . ... ... ... ...
ROW 77 : ... .. . ... ... : ... .. . ... ... : ... .. . ... ... : ... .. . ... : ... .. . ... ... : ... .. . ... ... ... ...
ROW 78 : ... .. . ... ... : ... .. . ... ... : ... .. . ... ... : ... .. . ... : ... .. . ... ... : ... .. . ... ... ... ...
ROW 79 : ... .. . ... ... : ... .. . ... ... : ... .. . ... ... : ... .. . ... : ... .. . ... ... : ... .. . ... ... ... ...
ROW 7A : ... .. . ... ... : ... .. . ... ... : ... .. . ... ... : ... .. . ... : ... .. . ... ... : ... .. . ... ... ... ...
ROW 7B : ... .. . ... ... : ... .. . ... ... : ... .. . ... ... : ... .. . ... : ... .. . ... ... : ... .. . ... ... ... ...
ROW 7C : ... .. . ... ... : ... .. . ... ... : ... .. . ... ... : ... .. . ... : ... .. . ... ... : ... .. . ... ... ... ...
ROW 7D : ... .. . ... ... : ... .. . ... ... : ... .. . ... ... : ... .. . ... : ... .. . ... ... : ... .. . ... ... ... ...
ROW 7E : ... .. . ... ... : ... .. . ... ... : ... .. . ... ... : ... .. . ... : ... .. . ... ... : ... .. . ... ... ... ...
ROW 7F : ... .. . ... ... : ... .. . ... ... : ... .. . ... ... : ... .. . ... : ... .. . ... ... : ... .. . ... ... ... ...
ROW 80 : ... .. . ... ... : ... .. . ... ... : ... .. . ... ... : ... .. . ... : ... .. . ... ... : ... .. . ... ... ... ...
ROW 81 : ... .. . ... ... : ... .. . ... ... : ... .. . ... ... : ... .. . ... : ... .. . ... ... : ... .. . ... ... ... ...
ROW 82 : ... .. . ... ... : ... .. . ... ... : ... .. . ... ... : ... .. . ... : ... .. . ... ... : ... .. . ... ... ... ...
ROW 83 : ... .. . ... ... : ... .. . ... ... : ... .. . ... ... : ... .. . ... : ... .. . ... ... : ... .. . ... ... ... ...
ROW 84 : ... .. . ... ... : ... .. . ... ... : ... .. . ... ... : ... .. . ... : ... .. . ... ... : ... .. . ... ... ... ...
ROW 85 : ... .. . ... ... : ... .. . ... ... : ... .. . ... ... : ... .. . ... : ... .. . ... ... : ... .. . ... ... ... ...
ROW 86 : ... .. . ... ... : ... .. . ... ... : ... .. . ... ... : ... .. . ... : ... .. . ... ... : ... .. . ... ... ... ...
ROW 87 : ... .. . ... ... : ... .. . ... ... : ... .. . ... ... : ... .. . ... : ... .. . ... ... : ... .. . ... ... ... ...
ROW 88 : ... .. . ... ... : ... .. . ... ... : ... .. . ... ... : ... .. . ... : ... .. . ... ... : ... .. . ... ... ... ...
ROW 89 : ... .. . ... ... : ... .. . ... ... : ... .. . ... ... : ... .. . ... : ... .. . ... ... : ... .. . ... ... ... ...
ROW 8A : ... .. . ... ... : ... .. . ... ... : ... .. . ... ... : ... .. . ... : ... .. . ... ... : ... .. . ... ... ... ...
ROW 8B : ... .. . ... ... : ... .. . ... ... : ... .. . ... ... : ... .. . ... : ... .. . ... ... : ... .. . ... ... ... ...
ROW 8C : ... .. . ... ... : ... .. . ... ... : ... .. . ... ... : ... .. . ... : ... .. . ... ... : ... .. . ... ... ... ...
ROW 8D : ... .. . ... ... : ... .. . ... ... : ... .. . ... ... : ... .. . ... : ... .. . ... ... : ... .. . ... ... ... ...
ROW 8E : ... .. . ... ... : ... .. . ... ... : ... .. . ... ... : ... .. . ... : ... .. . ... ... : ... .. . ... ... ... ...
ROW 8F : ... .. . ... ... : ... .. . ... ... : ... .. . ... ... : ... .. . ... : ... .. . ... ... : ... .. . ... ... ... ...
ROW 90 : ... .. . ... ... : ... .. . ... ... : ... .. . ... ... : ... .. . ... : ... .. . ... ... : ... .. . ... ... ... ...
ROW 91 : ... .. . ... ... : ... .. . ... ... : ... .. . ... ... : ... .. . ... : ... .. . ... ... : ... .. . ... ... ... ...
ROW 92 : ... .. . ... ... : ... .. . ... ... : ... .. . ... ... : ... .. . ... : ... .. . ... ... : ... .. . ... ... ... ...
ROW 93 : ... .. . ... ... : ... .. . ... ... : ... .. . ... ... : ... .. . ... : ... .. . ... ... : ... .. . ... ... ... ...
ROW 94 : ... .. . ... ... : ... .. . ... ... : ... .. . ... ... : ... .. . ... : ... .. . ... ... : ... .. . ... ... ... ...
ROW 95 : ... .. . ... ... : ... .. . ... ... : ... .. . ... ... : ... .. . ... : ... .. . ... ... : ... .. . ... ... ... ...
ROW 96 : ... .. . ... ... : ... .. . ... ... : ... .. . ... ... : ... .. . ... : ... .. . ... ... : ... .. . ... ... ... ...
ROW 97 : ... .. . ... ... : ... .. . ... ... : ... .. . ... ... : ... .. . ... : ... .. . ... ... : ... .. . ... ... ... ...
ROW 98 : ... .. . ... ... : ... .. . ... ... : ... .. . ... ... : ... .. . ... : ... .. . ... ... : ... .. . ... ... ... ...
ROW 99 : ... .. . ... ... : ... .. . ... ... : ... .. . ... ... : ... .. . ... : ... .. . ... ... : ... .. . ... ... ... ...
ROW 9A : ... .. . ... ... : ... .. . ... ... : ... .. . ... ... : ... .. . ... : ... .. . ... ... : ... .. . ... ... ... ...
ROW 9B : ... .. . ... ... : ... .. . ... ... : ... .. . ... ... : ... .. . ... : ... .. . ... ... : ... .. . ... ... ... ...
ROW 9C : ... .. . ... ... : ... .. . ... ... : ... .. . ... ... : ... .. . ... : ... .. . ... ... : ... .. . ... ... ... ...
ROW 9D : ... .. . ... ... : ... .. . ... ... : ... .. . ... ... : ... .. . ... : ... .. . ... ... : ... .. . ... ... ... ...
ROW 9E : ... .. . ... ... : ... .. . ... ... : ... .. . ... ... : ... .. . ... : ... .. . ... ... : ... .. . ... ... ... ...
ROW 9F : ... .. . ... ... : ... .. . ... ... : ... .. . ... ... : ... .. . ... : ... .. . ... ... : ... .. . ... ... ... ...
ROW A0 : ... .. . ... ... : ... .. . ... ... : ... .. . ... ... : ... .. . ... : ... .. . ... ... : ... .. . ... ... ... ...
ROW A1 : ... .. . ... ... : ... .. . ... ... : ... .. . ... ... : ... .. . ... : ... .. . ... ... : ... .. . ... ... ... ...
ROW A2 : ... .. . ... ... : ... .. . ... ... : ... .. . ... ... : ... .. . ... : ... .. . ... ... : ... .. . ... ... ... ...
ROW A3 : ... .. . ... ... : ... .. . ... ... : ... .. . ... ... : ... .. . ... : ... .. . ... ... : ... .. . ... ... ... ...
ROW A4 : ... .. . ... ... : ... .. . ... ... : ... .. . ... ... : ... .. . ... : ... .. . ... ... : ... .. . ... ... ... ...
ROW A5 : ... .. . ... ... : ... .. . ... ... : ... .. . ... ... : ... .. . ... : ... .. . ... ... : ... .. . ... ... ... ...
ROW A6 : ... .. . ... ... : ... .. . ... ... : ... .. . ... ... : ... .. . ... : ... .. . ... ... : ... .. . ... ... ... ...
ROW A7 : ... .. . ... ... : ... .. . ... ... : ... .. . ... ... : ... .. . ... : ... .. . ... ... : ... .. . ... ... ... ...
ROW A8 : ... .. . ... ... : ... .. . ... ... : ... .. . ... ... : ... .. . ... : ... .. . ... ... : ... .. . ... ... ... ...
ROW A9 : ... .. . ... ... : ... .. . ... ... : ... .. . ... ... : ... .. . ... : ... .. . ... ... : ... .. . ... ... ... ...
ROW AA : ... .. . ... ... : ... .. . ... ... : ... .. . ... ... : ... .. . ... : ... .. . ... ... : ... .. . ... ... ... ...
ROW AB : ... .. . ... ... : ... .. . ... ... : ... .. . ... ... : ... .. . ... : ... .. . ... ... : ... .. . ... ... ... ...
ROW AC : ... .. . ... ... : ... .. . ... ... : ... .. . ... ... : ... .. . ... : ... .. . ... ... : ... .. . ... ... ... ...
ROW AD : ... .. . ... ... : ... .. . ... ... : ... .. . ... ... : ... .. . ... : ... .. . ... ... : ... .. . ... ... ... ...
ROW AE : ... .. . ... ... : ... .. . ... ... : ... .. . ... ... : ... .. . ... : ... .. . ... ... : ... .. . ... ... ... ...
ROW AF : ... .. . ... ... : ... .. . ... ... : ... .. . ... ... : ... .. . ... : ... .. . ... ... : ... .. . ... ... ... ...
ROW B0 : ... .. . ... ... : ... .. . ... ... : ... .. . ... ... : ... .. . ... : ... .. . ... ... : ... .. . ... ... ... ...
ROW B1 : ... .. . ... ... : ... .. . ... ... : ... .. . ... ... : ... .. . ... : ... .. . ... ... : ... .. . ... ... ... ...
ROW B2 : ... .. . ... ... : ... .. . ... ... : ... .. . ... ... : ... .. . ... : ... .. . ... ... : ... .. . ... ... ... ...
ROW B3 : ... .. . ... ... : ... .. . ... ... : ... .. . ... ... : ... .. . ... : ... .. . ... ... : ... .. . ... ... ... ...
ROW B4 : ... .. . ... ... : ... .. . ... ... : ... .. . ... ... : ... .. . ... : ... .. . ... ... : ... .. . ... ... ... ...
ROW B5 : ... .. . ... ... : ... .. . ... ... : ... .. . ... ... : ... .. . ... : ... .. . ... ... : ... .. . ... ... ... ...
ROW B6 : ... .. . ... ... : ... .. . ... ... : ... .. . ... ... : ... .. . ... : ... .. . ... ... : ... .. . ... ... ... ...
ROW B7 : ... .. . ... ... : ... .. . ... ... : ... .. . ... ... : ... .. . ... : ... .. . ... ... : ... .. . ... ... ... ...
ROW B8 : ... .. . ... ... : ... .. . ... ... : ... .. . ... ... : ... .. . ... : ... .. . ... ... : ... .. . ... ... ... ...
ROW B9 : ... .. . ... ... : ... .. . ... ... : ... .. . ... ... : ... .. . ... : ... .. . ... ... : ... .. . ... ... ... ...
ROW BA : ... .. . ... ... : ... .. . ... ... : ... .. . ... ... : ... .. . ... : ... .. . ... ... : ... .. . ... ... ... ...
ROW BB : ... .. . ... ... : ... .. . ... ... : ... .. . ... ... : ... .. . ... : ... .. . ... ... : ... .. . ... ... ... ...
ROW BC : ... .. . ... ... : ... .. . ... ... : ... .. . ... ... : ... .. . ... : ... .. . ... ... : ... .. . ... ... ... ...
ROW BD : ... .. . ... ... : ... .. . ... ... : ... .. . ... ... : ... .. . ... : ... .. . ... ... : ... .. . ... ... ... ...
ROW BE : ... .. . ... ... : ... .. . ... ... : ... .. . ... ... : ... .. . ... : ... .. . ... ... : ... .. . ... ... ... ...
ROW BF : ... .. . ... ... : ... .. . ... ... : ... .. . ... ... : ... .. . ... : ... .. . ... ... : ... .. . ... ... ... ...
ROW C0 : ... .. . ... ... : ... .. . ... ... : ... .. . ... ... : ... .. . ... : ... .. . ... ... : ... .. . ... ... ... ...
ROW C1 : ... .. . ... ... : ... .. . ... ... : ... .. . ... ... : ... .. . ... : ... .. . ... ... : ... .. . ... ... ... ...
ROW C2 : ... .. . ... ... : ... .. . ... ... : ... .. . ... ... : ... .. . ... : ... .. . ... ... : ... .. . ... ... ... ...
ROW C3 : ... .. . ... ... : ... .. . ... ... : ... .. . ... ... : ... .. . ... : ... .. . ... ... : ... .. . ... ... ... ...
ROW C4 : ... .. . ... ... : ... .. . ... ... : ... .. . ... ... : ... .. . ... : ... .. . ... ... : ... .. . ... ... ... ...
ROW C5 : ... .. . ... ... : ... .. . ... ... : ... .. . ... ... : ... .. . ... : ... .. . ... ... : ... .. . ... ... ... ...
ROW C6 : ... .. . ... ... : ... .. . ... ... : ... .. . ... ... : ... .. . ... : ... .. . ... ... : ... .. . ... ... ... ...
ROW C7 : ... .. . ... ... : ... .. . ... ... : ... .. . ... ... : ... .. . ... : ... .. . ... ... : ... .. . ... ... ... ...
ROW C8 : ... .. . ... ... : ... .. . ... ... : ... .. . ... ... : ... .. . ... : ... .. . ... ... : ... .. . ... ... ... ...
ROW C9 : ... .. . ... ... : ... .. . ... ... : ... .. . ... ... : ... .. . ... : ... .. . ... ... : ... .. . ... ... ... ...
ROW CA : ... .. . ... ... : ... .. . ... ... : ... .. . ... ... : ... .. . ... : ... .. . ... ... : ... .. . ... ... ... ...
ROW CB : ... .. . ... ... : ... .. . ... ... : ... .. . ... ... : ... .. . ... : ... .. . ... ... : ... .. . ... ... ... ...
ROW CC : ... .. . ... ... : ... .. . ... ... : ... .. . ... ... : ... .. . ... : ... .. . ... ... : ... .. . ... ... ... ...
ROW CD : ... .. . ... ... : ... .. . ... ... : ... .. . ... ... : ... .. . ... : ... .. . ... ... : ... .. . ... ... ... ...
ROW CE : ... .. . ... ... : ... .. . ... ... : ... .. . ... ... : ... .. . ... : ... .. . ... ... : ... .. . ... ... ... ...
ROW CF : ... .. . ... ... : ... .. . ... ... : ... .. . ... ... : ... .. . ... : ... .. . ... ... : ... .. . ... ... ... ...
ROW D0 : ... .. . ... ... : ... .. . ... ... : ... .. . ... ... : ... .. . ... : ... .. . ... ... : ... .. . ... ... ... ...
ROW D1 : ... .. . ... ... : ... .. . ... ... : ... .. . ... ... : ... .. . ... : ... .. . ... ... : ... .. . ... ... ... ...
ROW D2 : ... .. . ... ... : ... .. . ... ... : ... .. . ... ... : ... .. . ... : ... .. . ... ... : ... .. . ... ... ... ...
ROW D3 : ... .. . ... ... : ... .. . ... ... : ... .. . ... ... : ... .. . ... : ... .. . ... ... : ... .. . ... ... ... ...
ROW D4 : ... .. . ... ... : ... .. . ... ... : ... .. . ... ... : ... .. . ... : ... .. . ... ... : ... .. . ... ... ... ...
ROW D5 : ... .. . ... ... : ... .. . ... ... : ... .. . ... ... : ... .. . ... : ... .. . ... ... : ... .. . ... ... ... ...
ROW D6 : ... .. . ... ... : ... .. . ... ... : ... .. . ... ... : ... .. . ... : ... .. . ... ... : ... .. . ... ... ... ...
ROW D7 : ... .. . ... ... : ... .. . ... ... : ... .. . ... ... : ... .. . ... : ... .. . ... ... : ... .. . ... ... ... ...
ROW D8 : ... .. . ... ... : ... .. . ... ... : ... .. . ... ... : ... .. . ... : ... .. . ... ... : ... .. . ... ... ... ...
ROW D9 : ... .. . ... ... : ... .. . ... ... : ... .. . ... ... : ... .. . ... : ... .. . ... ... : ... .. . ... ... ... ...
ROW DA : ... .. . ... ... : ... .. . ... ... : ... .. . ... ... : ... .. . ... : ... .. . ... ... : ... .. . ... ... ... ...
ROW DB : ... .. . ... ... : ... .. . ... ... : ... .. . ... ... : ... .. . ... : ... .. . ... ... : ... .. . ... ... ... ...
ROW DC : ... .. . ... ... : ... .. . ... ... : ... .. . ... ... : ... .. . ... : ... .. . ... ... : ... .. . ... ... ... ...
ROW DD : ... .. . ... ... : ... .. . ... ... : ... .. . ... ... : ... .. . ... : ... .. . ... ... : ... .. . ... ... ... ...
ROW DE : ... .. . ... ... : ... .. . ... ... : ... .. . ... ... : ... .. . ... : ... .. . ... ... : ... .. . ... ... ... ...
ROW DF : ... .. . ... ... : ... .. . ... ... : ... .. . ... ... : ... .. . ... : ... .. . ... ... : ... .. . ... ... ... ...
ROW E0 : ... .. . ... ... : ... .. . ... ... : ... .. . ... ... : ... .. . ... : ... .. . ... ... : ... .. . ... ... ... ...
ROW E1 : ... .. . ... ... : ... .. . ... ... : ... .. . ... ... : ... .. . ... : ... .. . ... ... : ... .. . ... ... ... ...
ROW E2 : ... .. . ... ... : ... .. . ... ... : ... .. . ... ... : ... .. . ... : ... .. . ... ... : ... .. . ... ... ... ...
ROW E3 : ... .. . ... ... : ... .. . ... ... : ... .. . ... ... : ... .. . ... : ... .. . ... ... : ... .. . ... ... ... ...
ROW E4 : ... .. . ... ... : ... .. . ... ... : ... .. . ... ... : ... .. . ... : ... .. . ... ... : ... .. . ... ... ... ...
ROW E5 : ... .. . ... ... : ... .. . ... ... : ... .. . ... ... : ... .. . ... : ... .. . ... ... : ... .. . ... ... ... ...
ROW E6 : ... .. . ... ... : ... .. . ... ... : ... .. . ... ... : ... .. . ... : ... .. . ... ... : ... .. . ... ... ... ...
ROW E7 : ... .. . ... ... : ... .. . ... ... : ... .. . ... ... : ... .. . ... : ... .. . ... ... : ... .. . ... ... ... ...
ROW E8 : ... .. . ... ... : ... .. . ... ... : ... .. . ... ... : ... .. . ... : ... .. . ... ... : ... .. . ... ... ... ...
ROW E9 : ... .. . ... ... : ... .. . ... ... : ... .. . ... ... : ... .. . ... : ... .. . ... ... : ... .. . ... ... ... ...
ROW EA : ... .. . ... ... : ... .. . ... ... : ... .. . ... ... : ... .. . ... : ... .. . ... ... : ... .. . ... ... ... ...
ROW EB : ... .. . ... ... : ... .. . ... ... : ... .. . ... ... : ... .. . ... : ... .. . ... ... : ... .. . ... ... ... ...
ROW EC : ... .. . ... ... : ... .. . ... ... : ... .. . ... ... : ... .. . ... : ... .. . ... ... : ... .. . ... ... ... ...
ROW ED : ... .. . ... ... : ... .. . ... ... : ... .. . ... ... : ... .. . ... : ... .. . ... ... : ... .. . ... ... ... ...
ROW EE : ... .. . ... ... : ... .. . ... ... : ... .. . ... ... : ... .. . ... : ... .. . ... ... : ... .. . ... ... ... ...
ROW EF : ... .. . ... ... : ... .. . ... ... : ... .. . ... ... : ... .. . ... : ... .. . ... ... : ... .. . ... ... ... ...
ROW F0 : ... .. . ... ... : ... .. . ... ... : ... .. . ... ... : ... .. . ... : ... .. . ... ... : ... .. . ... ... ... ...
ROW F1 : ... .. . ... ... : ... .. . ... ... : ... .. . ... ... : ... .. . ... : ... .. . ... ... : ... .. . ... ... ... ...
ROW F2 : ... .. . ... ... : ... .. . ... ... : ... .. . ... ... : ... .. . ... : ... .. . ... ... : ... .. . ... ... ... ...
ROW F3 : ... .. . ... ... : ... .. . ... ... : ... .. . ... ... : ... .. . ... : ... .. . ... ... : ... .. . ... ... ... ...
ROW F4 : ... .. . ... ... : ... .. . ... ... : ... .. . ... ... : ... .. . ... : ... .. . ... ... : ... .. . ... ... ... ...
ROW F5 : ... .. . ... ... : ... .. . ... ... : ... .. . ... ... : ... .. . ... : ... .. . ... ... : ... .. . ... ... ... ...
ROW F6 : ... .. . ... ... : ... .. . ... ... : ... .. . ... ... : ... .. . ... : ... .. . ... ... : ... .. . ... ... ... ...
ROW F7 : ... .. . ... ... : ... .. . ... ... : ... .. . ... ... : ... .. . ... : ... .. . ... ... : ... .. . ... ... ... ...
ROW F8 : ... .. . ... ... : ... .. . ... ... : ... .. . ... ... : ... .. . ... : ... .. . ... ... : ... .. . ... ... ... ...
ROW F9 : ... .. . ... ... : ... .. . ... ... : ... .. . ... ... : ... .. . ... : ... .. . ... ... : ... .. . ... ... ... ...
ROW FA : ... .. . ... ... : ... .. . ... ... : ... .. . ... ... : ... .. . ... : ... .. . ... ... : ... .. . ... ... ... ...
ROW FB : ... .. . ... ... : ... .. . ... ... : ... .. . ... ... : ... .. . ... : ... .. . ... ... : ... .. . ... ... ... ...
ROW FC : ... .. . ... ... : ... .. . ... ... : ... .. . ... ... : ... .. . ... : ... .. . ... ... : ... .. . ... ... ... ...
ROW FD : ... .. . ... ... : ... .. . ... ... : ... .. . ... ... : ... .. . ... : ... .. . ... ... : ... .. . ... ... ... ...
ROW FE : ... .. . ... ... : ... .. . ... ... : ... .. . ... ... : ... .. . ... : ... .. . ... ... : ... .. . ... ... ... ...
ROW FF : ... .. . ... ... : ... .. . ... ... : ... .. . ... ... : ... .. . ... : ... .. . ... ... : ... .. . ... ... ... ...

PATTERN 1D
ROW 00 : A-3 0D A ... ... : E-4 19 3 ... ... : E-4 03 . 236 ... : ... .. . ... : C-3 23 . F04 ... : E-4 1B E I06 J09 ... ...
ROW 01 : ... .. 6 ... ... : ... .. . ... ... : ... .. . ... ... : ... .. . ... : ... .. . ... ... : ... .. . ... ... ... ...
ROW 02 : E-3 0D A G02 ... : ... .. . ... ... : ... .. . ... ... : ... .. . ... : ... .. . ... ... : ... .. . ... ... ... ...
ROW 03 : ... .. . ... ... : ... .. . ... ... : ... .. . ... ... : ... .. . ... : ... .. . ... ... : ... .. . ... ... ... ...
ROW 04 : A-3 0D 6 ... ... : ... .. . ... ... : ... .. . ... ... : ... .. . ... : ... .. . ... ... : ... .. . ... ... ... ...
ROW 05 : C-3 0D A G01 ... : ... .. . ... ... : ... .. . ... ... : ... .. . ... : ... .. . ... ... : ... .. . ... ... ... ...
ROW 06 : ... .. . ... ... : ... .. . ... ... : E-2 11 . 200 ... : ... .. . ... : ... .. . ... ... : ... .. . ... ... ... ...
ROW 07 : E-3 0D 6 ... ... : ... .. . ... ... : ... .. . ... ... : ... .. . ... : ... .. . ... ... : ... .. . ... ... ... ...
ROW 08 : A-2 0D A ... ... : ... .. . ... ... : E-4 03 . 236 ... : ... .. . ... : C-3 23 . ... ... : ... .. . ... ... ... ...
ROW 09 : C-3 0D 6 ... ... : ... .. . ... ... : ... .. . ... ... : ... .. . ... : --- .. . G05 ... : ... .. . ... ... ... ...
ROW 0A : C-3 0D A G02 ... : ... .. . ... ... : ... .. . ... ... : ... .. . ... : C-3 23 . G02 ... : ... .. D ... ... ... ...
ROW 0B : ... .. . ... ... : ... .. . ... ... : ... .. . ... ... : ... .. . ... : ... .. . ... ... : ... .. C ... ... ... ...
ROW 0C : A-2 0D 6 ... ... : ... .. . ... ... : E-2 11 . 200 ... : ... .. . ... : --- .. . G04 ... : ... .. B ... ... ... ...
ROW 0D : E-3 0D A G01 ... : ... .. . ... ... : ... .. . S03 ... : ... .. . ... : C-3 23 . G01 ... : ... .. A ... ... ... ...
ROW 0E : ... .. . ... ... : ... .. . ... ... : E-2 11 . ... ... : ... .. . ... : ... .. . ... ... : ... .. 9 ... ... ... ...
ROW 0F : C-3 0D 6 ... ... : ... .. . ... ... : ... .. . S03 ... : ... .. . ... : ... .. . ... ... : ... .. 8 ... ... ... ...
ROW 10 : A-3 0D A ... ... : ... .. . ... ... : E-3 11 . ... ... : ... .. . ... : D-3 23 . ... ... : G-3 1B E I03 J97 ... ...
ROW 11 : E-3 0D 6 ... ... : ... .. . ... ... : ... .. . ... ... : ... .. . ... : ... .. . ... ... : ... .. . ... ... ... ...
ROW 12 : E-3 0D A G02 ... : ... .. . ... ... : ... .. . S03 ... : ... .. . ... : ... .. . ... ... : ... .. . ... ... ... ...
ROW 13 : ... .. . ... ... : ... .. . ... ... : ... .. . ... ... : ... .. . ... : ... .. . ... ... : ... .. 8 ... ... ... ...
ROW 14 : A-3 0D 6 ... ... : ... .. . ... ... : E-2 11 . ... ... : ... .. . ... : ... .. . ... ... : ... .. . ... ... ... ...
ROW 15 : C-3 0D A G01 ... : ... .. . ... ... : ... .. . S03 ... : ... .. . ... : ... .. . ... ... : ... .. . ... ... ... ...
ROW 16 : ... .. . ... ... : ... .. . ... ... : E-2 11 . ... ... : ... .. . ... : ... .. . ... ... : B-3 1B E I04 J85 ... ...
ROW 17 : E-3 0D 6 ... ... : ... .. . ... ... : ... .. . S03 ... : ... .. . ... : ... .. . ... ... : ... .. . ... ... ... ...
ROW 18 : A-2 0D A ... ... : ... .. . ... ... : E-3 11 . ... ... : ... .. . ... : D-3 23 . ... ... : ... .. . ... ... ... ...
ROW 19 : C-3 0D 6 ... ... : ... .. . ... ... : ... .. . ... ... : ... .. . ... : ... .. . ... ... : G-3 1B 8 I03 J97 ... ...
ROW 1A : C-3 0D A G02 ... : ... .. . ... ... : ... .. . S03 ... : ... .. . ... : ... .. . ... ... : ... .. . ... ... ... ...
ROW 1B : ... .. . ... ... : ... .. . ... ... : ... .. . ... ... : ... .. . ... : ... .. . ... ... : ... .. . ... ... ... ...
ROW 1C : A-2 0D 6 ... ... : ... .. . ... ... : E-4 03 . 236 ... : ... .. . ... : ... .. . ... ... : E-4 1B E I06 J09 ... ...
ROW 1D : E-3 0D A G01 ... : ... .. . ... ... : ... .. . ... ... : ... .. . ... : ... .. . ... ... : ... .. . ... ... ... ...
ROW 1E : ... .. . ... ... : ... .. . ... ... : E-2 11 . 200 ... : ... .. . ... : ... .. . ... ... : B-3 1B 8 I04 J85 ... ...
ROW 1F : C-3 0D 6 ... ... : ... .. . ... ... : ... .. . S03 ... : ... .. . ... : ... .. . ... ... : ... .. . ... ... ... ...
ROW 20 : B-3 0D A ... ... : ... .. . ... ... : F#3 11 . ... ... : ... .. . ... : F-3 23 . ... ... : F#4 1B E I06 JC8 P81 ...
ROW 21 : ... .. 6 ... ... : ... .. . ... ... : ... .. . ... ... : ... .. . ... : ... .. . ... ... : ... .. . ... ... ... ...
ROW 22 : G-3 0D A G02 ... : ... .. . ... ... : ... .. . S03 ... : ... .. . ... : ... .. . ... ... : ... .. . ... ... ... ...
ROW 23 : ... .. . ... ... : ... .. . ... ... : ... .. . ... ... : ... .. . ... : ... .. . ... ... : ... .. . ... ... ... ...
ROW 24 : B-3 0D 6 ... ... : ... .. . ... ... : F#2 11 . ... ... : ... .. . ... : ... .. . ... ... : ... .. . ... ... ... ...
ROW 25 : E-3 0D A G01 ... : ... .. . ... ... : ... .. . S03 ... : ... .. . ... : ... .. . ... ... : ... .. . ... ... ... ...
ROW 26 : ... .. . ... ... : ... .. . ... ... : F#2 11 . ... ... : ... .. . ... : ... .. . ... ... : ... .. . ... ... ... ...
ROW 27 : G-3 0D 6 ... ... : ... .. . ... ... : ... .. . ... ... : ... .. . ... : ... .. . ... ... : ... .. . ... ... ... ...
ROW 28 : B-2 0D A ... ... : ... .. . ... ... : F#4 03 . 236 ... : ... .. . ... : F-3 23 . ... ... : ... .. . ... ... ... ...
ROW 29 : E-3 0D 6 ... ... : ... .. . ... ... : ... .. . ... ... : ... .. . ... : ... .. . ... ... : ... .. . ... ... ... ...
ROW 2A : E-3 0D A G02 ... : ... .. . ... ... : ... .. . ... ... : ... .. . ... : ... .. . ... ... : ... .. D ... ... ... ...
ROW 2B : ... .. . ... ... : ... .. . ... ... : ... .. . ... ... : ... .. . ... : --- .. . G03 ... : ... .. C ... ... ... ...
ROW 2C : B-2 0D 6 ... ... : ... .. . ... ... : F#2 11 . 200 ... : ... .. . ... : F-3 23 . ... ... : ... .. B ... ... ... ...
ROW 2D : G-3 0D A G01 ... : ... .. . ... ... : ... .. . S03 ... : ... .. . ... : ... .. . ... ... : ... .. A ... ... ... ...
ROW 2E : ... .. . ... ... : ... .. . ... ... : F#2 11 . ... ... : ... .. . ... : ... .. . ... ... : ... .. 9 ... ... ... ...
ROW 2F : E-3 0D 6 ... ... : ... .. . ... ... : ... .. . S03 ... : ... .. . ... : --- .. . G03 ... : ... .. 8 ... ... ... ...
ROW 30 : B-3 0D A ... ... : ... .. . ... ... : F#3 11 . ... ... : ... .. . ... : G-3 23 . ... ... : G-4 1B E I07 J2D P80 ...
ROW 31 : G-3 0D 6 ... ... : ... .. . ... ... : ... .. . ... ... : ... .. . ... : ... .. . ... ... : ... .. . ... ... ... ...
ROW 32 : G-3 0D A G02 ... : ... .. . ... ... : ... .. . S03 ... : ... .. . ... : ... .. . ... ... : ... .. D ... ... ... ...
ROW 33 : ... .. . ... ... : ... .. . ... ... : ... .. . ... ... : ... .. . ... : ... .. . ... ... : ... .. C ... ... ... ...
ROW 34 : B-3 0D 6 ... ... : ... .. . ... ... : F#2 11 . ... ... : ... .. . ... : ... .. . ... ... : ... .. B ... ... ... ...
ROW 35 : E-3 0D A G01 ... : ... .. . ... ... : ... .. . S03 ... : ... .. . ... : ... .. . ... ... : ... .. A ... ... ... ...
ROW 36 : ... .. . ... ... : ... .. . ... ... : F#2 11 . ... ... : ... .. . ... : ... .. . ... ... : ... .. 9 ... ... ... ...
ROW 37 : G-3 0D 6 ... ... : ... .. . ... ... : ... .. . S03 ... : ... .. . ... : ... .. . ... ... : ... .. 8 ... ... ... ...
ROW 38 : B-2 0D A ... ... : ... .. . ... ... : F#3 11 . ... ... : ... .. . ... : G-3 23 . ... ... : F#4 1B E I06 JC8 P81 ...
ROW 39 : E-3 0D 6 ... ... : ... .. . ... ... : ... .. . ... ... : ... .. . ... : ... .. . ... ... : ... .. . ... ... ... ...
ROW 3A : E-3 0D A G02 ... : ... .. . ... ... : ... .. . S03 ... : ... .. . ... : ... .. . ... ... : ... .. 8 ... ... ... ...
ROW 3B : ... .. . ... ... : ... .. . ... ... : ... .. . ... ... : ... .. . ... : ... .. . ... ... : ... .. . ... ... ... ...
ROW 3C : B-2 0D 6 ... ... : ... .. . ... ... : F#4 03 . 236 ... : ... .. . ... : ... .. . ... ... : G-4 1B E I07 J2D P80 ...
ROW 3D : G-3 0D A G01 ... : ... .. . ... ... : ... .. . ... ... : ... .. . ... : ... .. . ... ... : ... .. . ... ... ... ...
ROW 3E : ... .. . ... ... : ... .. . ... ... : F#2 11 . 200 ... : ... .. . ... : ... .. . ... ... : F#4 1B 8 I06 JC8 P81 ...
ROW 3F : E-3 0D 6 ... ... : ... .. . ... ... : ... .. . S03 ... : ... .. . ... : ... .. . ... D00 : ... .. . ... ... ... ...
ROW 40 : ... .. . ... ... : ... .. . ... ... : ... .. . ... ... : ... .. . ... : ... .. . ... ... : ... .. . ... ... ... ...
ROW 41 : ... .. . ... ... : ... .. . ... ... : ... .. . ... ... : ... .. . ... : ... .. . ... ... : ... .. . ... ... ... ...
ROW 42 : ... .. . ... ... : ... .. . ... ... : ... .. . ... ... : ... .. . ... : ... .. . ... ... : ... .. . ... ... ... ...
ROW 43 : ... .. . ... ... : ... .. . ... ... : ... .. . ... ... : ... .. . ... : ... .. . ... ... : ... .. . ... ... ... ...
ROW 44 : ... .. . ... ... : ... .. . ... ... : ... .. . ... ... : ... .. . ... : ... .. . ... ... : ... .. . ... ... ... ...
ROW 45 : ... .. . ... ... : ... .. . ... ... : ... .. . ... ... : ... .. . ... : ... .. . ... ... : ... .. . ... ... ... ...
ROW 46 : ... .. . ... ... : ... .. . ... ... : ... .. . ... ... : ... .. . ... : ... .. . ... ... : ... .. . ... ... ... ...
ROW 47 : ... .. . ... ... : ... .. . ... ... : ... .. . ... ... : ... .. . ... : ... .. . ... ... : ... .. . ... ... ... ...
ROW 48 : ... .. . ... ... : ... .. . ... ... : ... .. . ... ... : ... .. . ... : ... .. . ... ... : ... .. . ... ... ... ...
ROW 49 : ... .. . ... ... : ... .. . ... ... : ... .. . ... ... : ... .. . ... : ... .. . ... ... : ... .. . ... ... ... ...
ROW 4A : ... .. . ... ... : ... .. . ... ... : ... .. . ... ... : ... .. . ... : ... .. . ... ... : ... .. . ... ... ... ...
ROW 4B : ... .. . ... ... : ... .. . ... ... : ... .. . ... ... : ... .. . ... : ... .. . ... ... : ... .. . ... ... ... ...
ROW 4C : ... .. . ... ... : ... .. . ... ... : ... .. . ... ... : ... .. . ... : ... .. . ... ... : ... .. . ... ... ... ...
ROW 4D : ... .. . ... ... : ... .. . ... ... : ... .. . ... ... : ... .. . ... : ... .. . ... ... : ... .. . ... ... ... ...
ROW 4E : ... .. . ... ... : ... .. . ... ... : ... .. . ... ... : ... .. . ... : ... .. . ... ... : ... .. . ... ... ... ...
ROW 4F : ... .. . ... ... : ... .. . ... ... : ... .. . ... ... : ... .. . ... : ... .. . ... ... : ... .. . ... ... ... ...
ROW 50 : ... .. . ... ... : ... .. . ... ... : ... .. . ... ... : ... .. . ... : ... .. . ... ... : ... .. . ... ... ... ...
ROW 51 : ... .. . ... ... : ... .. . ... ... : ... .. . ... ... : ... .. . ... : ... .. . ... ... : ... .. . ... ... ... ...
ROW 52 : ... .. . ... ... : ... .. . ... ... : ... .. . ... ... : ... .. . ... : ... .. . ... ... : ... .. . ... ... ... ...
ROW 53 : ... .. . ... ... : ... .. . ... ... : ... .. . ... ... : ... .. . ... : ... .. . ... ... : ... .. . ... ... ... ...
ROW 54 : ... .. . ... ... : ... .. . ... ... : ... .. . ... ... : ... .. . ... : ... .. . ... ... : ... .. . ... ... ... ...
ROW 55 : ... .. . ... ... : ... .. . ... ... : ... .. . ... ... : ... .. . ... : ... .. . ... ... : ... .. . ... ... ... ...
ROW 56 : ... .. . ... ... : ... .. . ... ... : ... .. . ... ... : ... .. . ... : ... .. . ... ... : ... .. . ... ... ... ...
ROW 57 : ... .. . ... ... : ... .. . ... ... : ... .. . ... ... : ... .. . ... : ... .. . ... ... : ... .. . ... ... ... ...
ROW 58 : ... .. . ... ... : ... .. . ... ... : ... .. . ... ... : ... .. . ... : ... .. . ... ... : ... .. . ... ... ... ...
ROW 59 : ... .. . ... ... : ... .. . ... ... : ... .. . ... ... : ... .. . ... : ... .. . ... ... : ... .. . ... ... ... ...
ROW 5A : ... .. . ... ... : ... .. . ... ... : ... .. . ... ... : ... .. . ... : ... .. . ... ... : ... .. . ... ... ... ...
ROW 5B : ... .. . ... ... : ... .. . ... ... : ... .. . ... ... : ... .. . ... : ... .. . ... ... : ... .. . ... ... ... ...
ROW 5C : ... .. . ... ... : ... .. . ... ... : ... .. . ... ... : ... .. . ... : ... .. . ... ... : ... .. . ... ... ... ...
ROW 5D : ... .. . ... ... : ... .. . ... ... : ... .. . ... ... : ... .. . ... : ... .. . ... ... : ... .. . ... ... ... ...
ROW 5E : ... .. . ... ... : ... .. . ... ... : ... .. . ... ... : ... .. . ... : ... .. . ... ... : ... .. . ... ... ... ...
ROW 5F : ... .. . ... ... : ... .. . ... ... : ... .. . ... ... : ... .. . ... : ... .. . ... ... : ... .. . ... ... ... ...
ROW 60 : ... .. . ... ... : ... .. . ... ... : ... .. . ... ... : ... .. . ... : ... .. . ... ... : ... .. . ... ... ... ...
ROW 61 : ... .. . ... ... : ... .. . ... ... : ... .. . ... ... : ... .. . ... : ... .. . ... ... : ... .. . ... ... ... ...
ROW 62 : ... .. . ... ... : ... .. . ... ... : ... .. . ... ... : ... .. . ... : ... .. . ... ... : ... .. . ... ... ... ...
ROW 63 : ... .. . ... ... : ... .. . ... ... : ... .. . ... ... : ... .. . ... : ... .. . ... ... : ... .. . ... ... ... ...
ROW 64 : ... .. . ... ... : ... .. . ... ... : ... .. . ... ... : ... .. . ... : ... .. . ... ... : ... .. . ... ... ... ...
ROW 65 : ... .. . ... ... : ... .. . ... ... : ... .. . ... ... : ... .. . ... : ... .. . ... ... : ... .. . ... ... ... ...
ROW 66 : ... .. . ... ... : ... .. . ... ... : ... .. . ... ... : ... .. . ... : ... .. . ... ... : ... .. . ... ... ... ...
ROW 67 : ... .. . ... ... : ... .. . ... ... : ... .. . ... ... : ... .. . ... : ... .. . ... ... : ... .. . ... ... ... ...
ROW 68 : ... .. . ... ... : ... .. . ... ... : ... .. . ... ... : ... .. . ... : ... .. . ... ... : ... .. . ... ... ... ...
ROW 69 : ... .. . ... ... : ... .. . ... ... : ... .. . ... ... : ... .. . ... : ... .. . ... ... : ... .. . ... ... ... ...
ROW 6A : ... .. . ... ... : ... .. . ... ... : ... .. . ... ... : ... .. . ... : ... .. . ... ... : ... .. . ... ... ... ...
ROW 6B : ... .. . ... ... : ... .. . ... ... : ... .. . ... ... : ... .. . ... : ... .. . ... ... : ... .. . ... ... ... ...
ROW 6C : ... .. . ... ... : ... .. . ... ... : ... .. . ... ... : ... .. . ... : ... .. . ... ... : ... .. . ... ... ... ...
ROW 6D : ... .. . ... ... : ... .. . ... ... : ... .. . ... ... : ... .. . ... : ... .. . ... ... : ... .. . ... ... ... ...
ROW 6E : ... .. . ... ... : ... .. . ... ... : ... .. . ... ... : ... .. . ... : ... .. . ... ... : ... .. . ... ... ... ...
ROW 6F : ... .. . ... ... : ... .. . ... ... : ... .. . ... ... : ... .. . ... : ... .. . ... ... : ... .. . ... ... ... ...
ROW 70 : ... .. . ... ... : ... .. . ... ... : ... .. . ... ... : ... .. . ... : ... .. . ... ... : ... .. . ... ... ... ...
ROW 71 : ... .. . ... ... : ... .. . ... ... : ... .. . ... ... : ... .. . ... : ... .. . ... ... : ... .. . ... ... ... ...
ROW 72 : ... .. . ... ... : ... .. . ... ... : ... .. . ... ... : ... .. . ... : ... .. . ... ... : ... .. . ... ... ... ...
ROW 73 : ... .. . ... ... : ... .. . ... ... : ... .. . ... ... : ... .. . ... : ... .. . ... ... : ... .. . ... ... ... ...
ROW 74 : ... .. . ... ... : ... .. . ... ... : ... .. . ... ... : ... .. . ... : ... .. . ... ... : ... .. . ... ... ... ...
ROW 75 : ... .. . ... ... : ... .. . ... ... : ... .. . ... ... : ... .. . ... : ... .. . ... ... : ... .. . ... ... ... ...
ROW 76 : ... .. . ... ... : ... .. . ... ... : ... .. . ... ... : ... .. . ... : ... .. . ... ... : ... .. . ... ... ... ...
ROW 77 : ... .. . ... ... : ... .. . ... ... : ... .. . ... ... : ... .. . ... : ... .. . ... ... : ... .. . ... ... ... ...
ROW 78 : ... .. . ... ... : ... .. . ... ... : ... .. . ... ... : ... .. . ... : ... .. . ... ... : ... .. . ... ... ... ...
ROW 79 : ... .. . ... ... : ... .. . ... ... : ... .. . ... ... : ... .. . ... : ... .. . ... ... : ... .. . ... ... ... ...
ROW 7A : ... .. . ... ... : ... .. . ... ... : ... .. . ... ... : ... .. . ... : ... .. . ... ... : ... .. . ... ... ... ...
ROW 7B : ... .. . ... ... : ... .. . ... ... : ... .. . ... ... : ... .. . ... : ... .. . ... ... : ... .. . ... ... ... ...
ROW 7C : ... .. . ... ... : ... .. . ... ... : ... .. . ... ... : ... .. . ... : ... .. . ... ... : ... .. . ... ... ... ...
ROW 7D : ... .. . ... ... : ... .. . ... ... : ... .. . ... ... : ... .. . ... : ... .. . ... ... : ... .. . ... ... ... ...
ROW 7E : ... .. . ... ... : ... .. . ... ... : ... .. . ... ... : ... .. . ... : ... .. . ... ... : ... .. . ... ... ... ...
ROW 7F : ... .. . ... ... : ... .. . ... ... : ... .. . ... ... : ... .. . ... : ... .. . ... ... : ... .. . ... ... ... ...
ROW 80 : ... .. . ... ... : ... .. . ... ... : ... .. . ... ... : ... .. . ... : ... .. . ... ... : ... .. . ... ... ... ...
ROW 81 : ... .. . ... ... : ... .. . ... ... : ... .. . ... ... : ... .. . ... : ... .. . ... ... : ... .. . ... ... ... ...
ROW 82 : ... .. . ... ... : ... .. . ... ... : ... .. . ... ... : ... .. . ... : ... .. . ... ... : ... .. . ... ... ... ...
ROW 83 : ... .. . ... ... : ... .. . ... ... : ... .. . ... ... : ... .. . ... : ... .. . ... ... : ... .. . ... ... ... ...
ROW 84 : ... .. . ... ... : ... .. . ... ... : ... .. . ... ... : ... .. . ... : ... .. . ... ... : ... .. . ... ... ... ...
ROW 85 : ... .. . ... ... : ... .. . ... ... : ... .. . ... ... : ... .. . ... : ... .. . ... ... : ... .. . ... ... ... ...
ROW 86 : ... .. . ... ... : ... .. . ... ... : ... .. . ... ... : ... .. . ... : ... .. . ... ... : ... .. . ... ... ... ...
ROW 87 : ... .. . ... ... : ... .. . ... ... : ... .. . ... ... : ... .. . ... : ... .. . ... ... : ... .. . ... ... ... ...
ROW 88 : ... .. . ... ... : ... .. . ... ... : ... .. . ... ... : ... .. . ... : ... .. . ... ... : ... .. . ... ... ... ...
ROW 89 : ... .. . ... ... : ... .. . ... ... : ... .. . ... ... : ... .. . ... : ... .. . ... ... : ... .. . ... ... ... ...
ROW 8A : ... .. . ... ... : ... .. . ... ... : ... .. . ... ... : ... .. . ... : ... .. . ... ... : ... .. . ... ... ... ...
ROW 8B : ... .. . ... ... : ... .. . ... ... : ... .. . ... ... : ... .. . ... : ... .. . ... ... : ... .. . ... ... ... ...
ROW 8C : ... .. . ... ... : ... .. . ... ... : ... .. . ... ... : ... .. . ... : ... .. . ... ... : ... .. . ... ... ... ...
ROW 8D : ... .. . ... ... : ... .. . ... ... : ... .. . ... ... : ... .. . ... : ... .. . ... ... : ... .. . ... ... ... ...
ROW 8E : ... .. . ... ... : ... .. . ... ... : ... .. . ... ... : ... .. . ... : ... .. . ... ... : ... .. . ... ... ... ...
ROW 8F : ... .. . ... ... : ... .. . ... ... : ... .. . ... ... : ... .. . ... : ... .. . ... ... : ... .. . ... ... ... ...
ROW 90 : ... .. . ... ... : ... .. . ... ... : ... .. . ... ... : ... .. . ... : ... .. . ... ... : ... .. . ... ... ... ...
ROW 91 : ... .. . ... ... : ... .. . ... ... : ... .. . ... ... : ... .. . ... : ... .. . ... ... : ... .. . ... ... ... ...
ROW 92 : ... .. . ... ... : ... .. . ... ... : ... .. . ... ... : ... .. . ... : ... .. . ... ... : ... .. . ... ... ... ...
ROW 93 : ... .. . ... ... : ... .. . ... ... : ... .. . ... ... : ... .. . ... : ... .. . ... ... : ... .. . ... ... ... ...
ROW 94 : ... .. . ... ... : ... .. . ... ... : ... .. . ... ... : ... .. . ... : ... .. . ... ... : ... .. . ... ... ... ...
ROW 95 : ... .. . ... ... : ... .. . ... ... : ... .. . ... ... : ... .. . ... : ... .. . ... ... : ... .. . ... ... ... ...
ROW 96 : ... .. . ... ... : ... .. . ... ... : ... .. . ... ... : ... .. . ... : ... .. . ... ... : ... .. . ... ... ... ...
ROW 97 : ... .. . ... ... : ... .. . ... ... : ... .. . ... ... : ... .. . ... : ... .. . ... ... : ... .. . ... ... ... ...
ROW 98 : ... .. . ... ... : ... .. . ... ... : ... .. . ... ... : ... .. . ... : ... .. . ... ... : ... .. . ... ... ... ...
ROW 99 : ... .. . ... ... : ... .. . ... ... : ... .. . ... ... : ... .. . ... : ... .. . ... ... : ... .. . ... ... ... ...
ROW 9A : ... .. . ... ... : ... .. . ... ... : ... .. . ... ... : ... .. . ... : ... .. . ... ... : ... .. . ... ... ... ...
ROW 9B : ... .. . ... ... : ... .. . ... ... : ... .. . ... ... : ... .. . ... : ... .. . ... ... : ... .. . ... ... ... ...
ROW 9C : ... .. . ... ... : ... .. . ... ... : ... .. . ... ... : ... .. . ... : ... .. . ... ... : ... .. . ... ... ... ...
ROW 9D : ... .. . ... ... : ... .. . ... ... : ... .. . ... ... : ... .. . ... : ... .. . ... ... : ... .. . ... ... ... ...
ROW 9E : ... .. . ... ... : ... .. . ... ... : ... .. . ... ... : ... .. . ... : ... .. . ... ... : ... .. . ... ... ... ...
ROW 9F : ... .. . ... ... : ... .. . ... ... : ... .. . ... ... : ... .. . ... : ... .. . ... ... : ... .. . ... ... ... ...
ROW A0 : ... .. . ... ... : ... .. . ... ... : ... .. . ... ... : ... .. . ... : ... .. . ... ... : ... .. . ... ... ... ...
ROW A1 : ... .. . ... ... : ... .. . ... ... : ... .. . ... ... : ... .. . ... : ... .. . ... ... : ... .. . ... ... ... ...
ROW A2 : ... .. . ... ... : ... .. . ... ... : ... .. . ... ... : ... .. . ... : ... .. . ... ... : ... .. . ... ... ... ...
ROW A3 : ... .. . ... ... : ... .. . ... ... : ... .. . ... ... : ... .. . ... : ... .. . ... ... : ... .. . ... ... ... ...
ROW A4 : ... .. . ... ... : ... .. . ... ... : ... .. . ... ... : ... .. . ... : ... .. . ... ... : ... .. . ... ... ... ...
ROW A5 : ... .. . ... ... : ... .. . ... ... : ... .. . ... ... : ... .. . ... : ... .. . ... ... : ... .. . ... ... ... ...
ROW A6 : ... .. . ... ... : ... .. . ... ... : ... .. . ... ... : ... .. . ... : ... .. . ... ... : ... .. . ... ... ... ...
ROW A7 : ... .. . ... ... : ... .. . ... ... : ... .. . ... ... : ... .. . ... : ... .. . ... ... : ... .. . ... ... ... ...
ROW A8 : ... .. . ... ... : ... .. . ... ... : ... .. . ... ... : ... .. . ... : ... .. . ... ... : ... .. . ... ... ... ...
ROW A9 : ... .. . ... ... : ... .. . ... ... : ... .. . ... ... : ... .. . ... : ... .. . ... ... : ... .. . ... ... ... ...
ROW AA : ... .. . ... ... : ... .. . ... ... : ... .. . ... ... : ... .. . ... : ... .. . ... ... : ... .. . ... ... ... ...
ROW AB : ... .. . ... ... : ... .. . ... ... : ... .. . ... ... : ... .. . ... : ... .. . ... ... : ... .. . ... ... ... ...
ROW AC : ... .. . ... ... : ... .. . ... ... : ... .. . ... ... : ... .. . ... : ... .. . ... ... : ... .. . ... ... ... ...
ROW AD : ... .. . ... ... : ... .. . ... ... : ... .. . ... ... : ... .. . ... : ... .. . ... ... : ... .. . ... ... ... ...
ROW AE : ... .. . ... ... : ... .. . ... ... : ... .. . ... ... : ... .. . ... : ... .. . ... ... : ... .. . ... ... ... ...
ROW AF : ... .. . ... ... : ... .. . ... ... : ... .. . ... ... : ... .. . ... : ... .. . ... ... : ... .. . ... ... ... ...
ROW B0 : ... .. . ... ... : ... .. . ... ... : ... .. . ... ... : ... .. . ... : ... .. . ... ... : ... .. . ... ... ... ...
ROW B1 : ... .. . ... ... : ... .. . ... ... : ... .. . ... ... : ... .. . ... : ... .. . ... ... : ... .. . ... ... ... ...
ROW B2 : ... .. . ... ... : ... .. . ... ... : ... .. . ... ... : ... .. . ... : ... .. . ... ... : ... .. . ... ... ... ...
ROW B3 : ... .. . ... ... : ... .. . ... ... : ... .. . ... ... : ... .. . ... : ... .. . ... ... : ... .. . ... ... ... ...
ROW B4 : ... .. . ... ... : ... .. . ... ... : ... .. . ... ... : ... .. . ... : ... .. . ... ... : ... .. . ... ... ... ...
ROW B5 : ... .. . ... ... : ... .. . ... ... : ... .. . ... ... : ... .. . ... : ... .. . ... ... : ... .. . ... ... ... ...
ROW B6 : ... .. . ... ... : ... .. . ... ... : ... .. . ... ... : ... .. . ... : ... .. . ... ... : ... .. . ... ... ... ...
ROW B7 : ... .. . ... ... : ... .. . ... ... : ... .. . ... ... : ... .. . ... : ... .. . ... ... : ... .. . ... ... ... ...
ROW B8 : ... .. . ... ... : ... .. . ... ... : ... .. . ... ... : ... .. . ... : ... .. . ... ... : ... .. . ... ... ... ...
ROW B9 : ... .. . ... ... : ... .. . ... ... : ... .. . ... ... : ... .. . ... : ... .. . ... ... : ... .. . ... ... ... ...
ROW BA : ... .. . ... ... : ... .. . ... ... : ... .. . ... ... : ... .. . ... : ... .. . ... ... : ... .. . ... ... ... ...
ROW BB : ... .. . ... ... : ... .. . ... ... : ... .. . ... ... : ... .. . ... : ... .. . ... ... : ... .. . ... ... ... ...
ROW BC : ... .. . ... ... : ... .. . ... ... : ... .. . ... ... : ... .. . ... : ... .. . ... ... : ... .. . ... ... ... ...
ROW BD : ... .. . ... ... : ... .. . ... ... : ... .. . ... ... : ... .. . ... : ... .. . ... ... : ... .. . ... ... ... ...
ROW BE : ... .. . ... ... : ... .. . ... ... : ... .. . ... ... : ... .. . ... : ... .. . ... ... : ... .. . ... ... ... ...
ROW BF : ... .. . ... ... : ... .. . ... ... : ... .. . ... ... : ... .. . ... : ... .. . ... ... : ... .. . ... ... ... ...
ROW C0 : ... .. . ... ... : ... .. . ... ... : ... .. . ... ... : ... .. . ... : ... .. . ... ... : ... .. . ... ... ... ...
ROW C1 : ... .. . ... ... : ... .. . ... ... : ... .. . ... ... : ... .. . ... : ... .. . ... ... : ... .. . ... ... ... ...
ROW C2 : ... .. . ... ... : ... .. . ... ... : ... .. . ... ... : ... .. . ... : ... .. . ... ... : ... .. . ... ... ... ...
ROW C3 : ... .. . ... ... : ... .. . ... ... : ... .. . ... ... : ... .. . ... : ... .. . ... ... : ... .. . ... ... ... ...
ROW C4 : ... .. . ... ... : ... .. . ... ... : ... .. . ... ... : ... .. . ... : ... .. . ... ... : ... .. . ... ... ... ...
ROW C5 : ... .. . ... ... : ... .. . ... ... : ... .. . ... ... : ... .. . ... : ... .. . ... ... : ... .. . ... ... ... ...
ROW C6 : ... .. . ... ... : ... .. . ... ... : ... .. . ... ... : ... .. . ... : ... .. . ... ... : ... .. . ... ... ... ...
ROW C7 : ... .. . ... ... : ... .. . ... ... : ... .. . ... ... : ... .. . ... : ... .. . ... ... : ... .. . ... ... ... ...
ROW C8 : ... .. . ... ... : ... .. . ... ... : ... .. . ... ... : ... .. . ... : ... .. . ... ... : ... .. . ... ... ... ...
ROW C9 : ... .. . ... ... : ... .. . ... ... : ... .. . ... ... : ... .. . ... : ... .. . ... ... : ... .. . ... ... ... ...
ROW CA : ... .. . ... ... : ... .. . ... ... : ... .. . ... ... : ... .. . ... : ... .. . ... ... : ... .. . ... ... ... ...
ROW CB : ... .. . ... ... : ... .. . ... ... : ... .. . ... ... : ... .. . ... : ... .. . ... ... : ... .. . ... ... ... ...
ROW CC : ... .. . ... ... : ... .. . ... ... : ... .. . ... ... : ... .. . ... : ... .. . ... ... : ... .. . ... ... ... ...
ROW CD : ... .. . ... ... : ... .. . ... ... : ... .. . ... ... : ... .. . ... : ... .. . ... ... : ... .. . ... ... ... ...
ROW CE : ... .. . ... ... : ... .. . ... ... : ... .. . ... ... : ... .. . ... : ... .. . ... ... : ... .. . ... ... ... ...
ROW CF : ... .. . ... ... : ... .. . ... ... : ... .. . ... ... : ... .. . ... : ... .. . ... ... : ... .. . ... ... ... ...
ROW D0 : ... .. . ... ... : ... .. . ... ... : ... .. . ... ... : ... .. . ... : ... .. . ... ... : ... .. . ... ... ... ...
ROW D1 : ... .. . ... ... : ... .. . ... ... : ... .. . ... ... : ... .. . ... : ... .. . ... ... : ... .. . ... ... ... ...
ROW D2 : ... .. . ... ... : ... .. . ... ... : ... .. . ... ... : ... .. . ... : ... .. . ... ... : ... .. . ... ... ... ...
ROW D3 : ... .. . ... ... : ... .. . ... ... : ... .. . ... ... : ... .. . ... : ... .. . ... ... : ... .. . ... ... ... ...
ROW D4 : ... .. . ... ... : ... .. . ... ... : ... .. . ... ... : ... .. . ... : ... .. . ... ... : ... .. . ... ... ... ...
ROW D5 : ... .. . ... ... : ... .. . ... ... : ... .. . ... ... : ... .. . ... : ... .. . ... ... : ... .. . ... ... ... ...
ROW D6 : ... .. . ... ... : ... .. . ... ... : ... .. . ... ... : ... .. . ... : ... .. . ... ... : ... .. . ... ... ... ...
ROW D7 : ... .. . ... ... : ... .. . ... ... : ... .. . ... ... : ... .. . ... : ... .. . ... ... : ... .. . ... ... ... ...
ROW D8 : ... .. . ... ... : ... .. . ... ... : ... .. . ... ... : ... .. . ... : ... .. . ... ... : ... .. . ... ... ... ...
ROW D9 : ... .. . ... ... : ... .. . ... ... : ... .. . ... ... : ... .. . ... : ... .. . ... ... : ... .. . ... ... ... ...
ROW DA : ... .. . ... ... : ... .. . ... ... : ... .. . ... ... : ... .. . ... : ... .. . ... ... : ... .. . ... ... ... ...
ROW DB : ... .. . ... ... : ... .. . ... ... : ... .. . ... ... : ... .. . ... : ... .. . ... ... : ... .. . ... ... ... ...
ROW DC : ... .. . ... ... : ... .. . ... ... : ... .. . ... ... : ... .. . ... : ... .. . ... ... : ... .. . ... ... ... ...
ROW DD : ... .. . ... ... : ... .. . ... ... : ... .. . ... ... : ... .. . ... : ... .. . ... ... : ... .. . ... ... ... ...
ROW DE : ... .. . ... ... : ... .. . ... ... : ... .. . ... ... : ... .. . ... : ... .. . ... ... : ... .. . ... ... ... ...
ROW DF : ... .. . ... ... : ... .. . ... ... : ... .. . ... ... : ... .. . ... : ... .. . ... ... : ... .. . ... ... ... ...
ROW E0 : ... .. . ... ... : ... .. . ... ... : ... .. . ... ... : ... .. . ... : ... .. . ... ... : ... .. . ... ... ... ...
ROW E1 : ... .. . ... ... : ... .. . ... ... : ... .. . ... ... : ... .. . ... : ... .. . ... ... : ... .. . ... ... ... ...
ROW E2 : ... .. . ... ... : ... .. . ... ... : ... .. . ... ... : ... .. . ... : ... .. . ... ... : ... .. . ... ... ... ...
ROW E3 : ... .. . ... ... : ... .. . ... ... : ... .. . ... ... : ... .. . ... : ... .. . ... ... : ... .. . ... ... ... ...
ROW E4 : ... .. . ... ... : ... .. . ... ... : ... .. . ... ... : ... .. . ... : ... .. . ... ... : ... .. . ... ... ... ...
ROW E5 : ... .. . ... ... : ... .. . ... ... : ... .. . ... ... : ... .. . ... : ... .. . ... ... : ... .. . ... ... ... ...
ROW E6 : ... .. . ... ... : ... .. . ... ... : ... .. . ... ... : ... .. . ... : ... .. . ... ... : ... .. . ... ... ... ...
ROW E7 : ... .. . ... ... : ... .. . ... ... : ... .. . ... ... : ... .. . ... : ... .. . ... ... : ... .. . ... ... ... ...
ROW E8 : ... .. . ... ... : ... .. . ... ... : ... .. . ... ... : ... .. . ... : ... .. . ... ... : ... .. . ... ... ... ...
ROW E9 : ... .. . ... ... : ... .. . ... ... : ... .. . ... ... : ... .. . ... : ... .. . ... ... : ... .. . ... ... ... ...
ROW EA : ... .. . ... ... : ... .. . ... ... : ... .. . ... ... : ... .. . ... : ... .. . ... ... : ... .. . ... ... ... ...
ROW EB : ... .. . ... ... : ... .. . ... ... : ... .. . ... ... : ... .. . ... : ... .. . ... ... : ... .. . ... ... ... ...
ROW EC : ... .. . ... ... : ... .. . ... ... : ... .. . ... ... : ... .. . ... : ... .. . ... ... : ... .. . ... ... ... ...
ROW ED : ... .. . ... ... : ... .. . ... ... : ... .. . ... ... : ... .. . ... : ... .. . ... ... : ... .. . ... ... ... ...
ROW EE : ... .. . ... ... : ... .. . ... ... : ... .. . ... ... : ... .. . ... : ... .. . ... ... : ... .. . ... ... ... ...
ROW EF : ... .. . ... ... : ... .. . ... ... : ... .. . ... ... : ... .. . ... : ... .. . ... ... : ... .. . ... ... ... ...
ROW F0 : ... .. . ... ... : ... .. . ... ... : ... .. . ... ... : ... .. . ... : ... .. . ... ... : ... .. . ... ... ... ...
ROW F1 : ... .. . ... ... : ... .. . ... ... : ... .. . ... ... : ... .. . ... : ... .. . ... ... : ... .. . ... ... ... ...
ROW F2 : ... .. . ... ... : ... .. . ... ... : ... .. . ... ... : ... .. . ... : ... .. . ... ... : ... .. . ... ... ... ...
ROW F3 : ... .. . ... ... : ... .. . ... ... : ... .. . ... ... : ... .. . ... : ... .. . ... ... : ... .. . ... ... ... ...
ROW F4 : ... .. . ... ... : ... .. . ... ... : ... .. . ... ... : ... .. . ... : ... .. . ... ... : ... .. . ... ... ... ...
ROW F5 : ... .. . ... ... : ... .. . ... ... : ... .. . ... ... : ... .. . ... : ... .. . ... ... : ... .. . ... ... ... ...
ROW F6 : ... .. . ... ... : ... .. . ... ... : ... .. . ... ... : ... .. . ... : ... .. . ... ... : ... .. . ... ... ... ...
ROW F7 : ... .. . ... ... : ... .. . ... ... : ... .. . ... ... : ... .. . ... : ... .. . ... ... : ... .. . ... ... ... ...
ROW F8 : ... .. . ... ... : ... .. . ... ... : ... .. . ... ... : ... .. . ... : ... .. . ... ... : ... .. . ... ... ... ...
ROW F9 : ... .. . ... ... : ... .. . ... ... : ... .. . ... ... : ... .. . ... : ... .. . ... ... : ... .. . ... ... ... ...
ROW FA : ... .. . ... ... : ... .. . ... ... : ... .. . ... ... : ... .. . ... : ... .. . ... ... : ... .. . ... ... ... ...
ROW FB : ... .. . ... ... : ... .. . ... ... : ... .. . ... ... : ... .. . ... : ... .. . ... ... : ... .. . ... ... ... ...
ROW FC : ... .. . ... ... : ... .. . ... ... : ... .. . ... ... : ... .. . ... : ... .. . ... ... : ... .. . ... ... ... ...
ROW FD : ... .. . ... ... : ... .. . ... ... : ... .. . ... ... : ... .. . ... : ... .. . ... ... : ... .. . ... ... ... ...
ROW FE : ... .. . ... ... : ... .. . ... ... : ... .. . ... ... : ... .. . ... : ... .. . ... ... : ... .. . ... ... ... ...
ROW FF : ... .. . ... ... : ... .. . ... ... : ... .. . ... ... : ... .. . ... : ... .. . ... ... : ... .. . ... ... ... ...

PATTERN 1E
ROW 00 : C-4 0D A ... ... : E-4 22 8 ... ... : E-3 11 . ... ... : ... .. . ... : F#3 23 . F04 ... : E-4 1B E I06 J09 P80 ...
ROW 01 : ... .. 6 ... ... : ... .. 7 ... ... : ... .. . ... ... : ... .. . ... : ... .. . ... ... : ... .. . ... ... ... ...
ROW 02 : A-3 0D A G02 ... : ... .. 6 ... ... : ... .. . S03 ... : ... .. . ... : ... .. . ... ... : ... .. . ... ... ... ...
ROW 03 : ... .. . ... ... : ... .. 5 ... ... : ... .. . ... ... : ... .. . ... : ... .. . ... ... : ... .. . ... ... ... ...
ROW 04 : C-4 0D 6 ... ... : ... .. 4 ... ... : E-2 11 . ... ... : ... .. . ... : ... .. . ... ... : ... .. . ... ... ... ...
ROW 05 : F-3 0D A G01 ... : ... .. 3 ... ... : ... .. . S03 ... : ... .. . ... : ... .. . ... ... : ... .. . ... ... ... ...
ROW 06 : ... .. . ... ... : ... .. 2 ... ... : E-2 11 . ... ... : ... .. . ... : ... .. . ... ... : ... .. . ... ... ... ...
ROW 07 : A-3 0D 6 ... ... : ... .. 1 ... ... : ... .. . ... ... : ... .. . ... : ... .. . ... ... : ... .. . ... ... ... ...
ROW 08 : C-3 0D A ... ... : E-4 22 8 ... ... : E-4 03 . 236 ... : ... .. . ... : F#3 23 . ... ... : ... .. . ... ... ... ...
ROW 09 : F-3 0D 6 ... ... : ... .. 4 ... ... : ... .. . ... ... : ... .. . ... : ... .. . ... ... : ... .. . ... ... ... ...
ROW 0A : F-3 0D A G02 ... : E-4 22 8 G02 ... : ... .. . ... ... : ... .. . ... : ... .. . ... ... : ... .. . ... ... ... ...
ROW 0B : ... .. . ... ... : ... .. . ... ... : ... .. . ... ... : ... .. . ... : ... .. . ... ... : ... .. . ... ... ... ...
ROW 0C : C-3 0D 6 ... ... : ... .. 4 ... ... : E-2 11 . 200 ... : ... .. . ... : ... .. . ... ... : ... .. . ... ... ... ...
ROW 0D : A-3 0D A G01 ... : E-4 22 8 G01 ... : ... .. . S03 ... : ... .. . ... : ... .. . ... ... : ... .. . ... ... ... ...
ROW 0E : ... .. . ... ... : ... .. . ... ... : E-2 11 . ... ... : ... .. . ... : ... .. . ... ... : ... .. . ... ... ... ...
ROW 0F : F-3 0D 6 ... ... : ... .. 4 ... ... : ... .. . S03 ... : ... .. . ... : ... .. . ... ... : ... .. . ... ... ... ...
ROW 10 : D-4 0D A ... ... : E-4 22 8 ... ... : E-3 11 . ... ... : ... .. . ... : ... .. . ... ... : ... .. D ... ... ... ...
ROW 11 : ... .. 6 ... ... : ... .. 7 ... ... : ... .. . ... ... : ... .. . ... : ... .. . ... ... : ... .. . ... ... ... ...
ROW 12 : B-3 0D A G02 ... : ... .. 6 ... ... : ... .. . S03 ... : ... .. . ... : ... .. . ... ... : ... .. C ... ... ... ...
ROW 13 : ... .. . ... ... : ... .. 5 ... ... : ... .. . ... ... : ... .. . ... : ... .. . ... ... : ... .. . ... ... ... ...
ROW 14 : D-4 0D 6 ... ... : ... .. 4 ... ... : E-2 11 . ... ... : ... .. . ... : ... .. . ... ... : ... .. B ... ... ... ...
ROW 15 : G-3 0D A G01 ... : ... .. 3 ... ... : ... .. . S03 ... : ... .. . ... : ... .. . ... ... : ... .. . ... ... ... ...
ROW 16 : ... .. . ... ... : ... .. 2 ... ... : E-2 11 . ... ... : ... .. . ... : ... .. . ... ... : ... .. A ... ... ... ...
ROW 17 : B-3 0D 6 ... ... : ... .. 1 ... ... : ... .. . S03 ... : ... .. . ... : ... .. . ... ... : ... .. . ... ... ... ...
ROW 18 : D-3 0D A ... ... : E-4 22 8 ... ... : E-3 11 . ... ... : ... .. . ... : ... .. . ... ... : ... .. 9 ... ... ... ...
ROW 19 : G-3 0D 6 ... ... : ... .. 7 ... ... : ... .. . ... ... : ... .. . ... : ... .. . ... ... : ... .. . ... ... ... ...
ROW 1A : G-3 0D A G02 ... : ... .. 6 ... ... : ... .. . S03 ... : ... .. . ... : ... .. . ... ... : ... .. 8 ... ... ... ...
ROW 1B : ... .. . ... ... : ... .. 5 ... ... : ... .. . ... ... : ... .. . ... : ... .. . ... ... : ... .. . ... ... ... ...
ROW 1C : D-3 0D 6 ... ... : ... .. 4 ... ... : E-4 03 . 236 ... : ... .. . ... : ... .. . ... ... : ... .. 7 ... ... ... ...
ROW 1D : B-3 0D A G01 ... : ... .. 3 ... ... : ... .. . ... ... : ... .. . ... : ... .. . ... ... : ... .. . ... ... ... ...
ROW 1E : ... .. . ... ... : ... .. 2 ... ... : E-2 11 . 200 ... : ... .. . ... : ... .. . ... ... : ... .. 6 ... ... ... ...
ROW 1F : G-3 0D 6 ... ... : ... .. 1 ... ... : ... .. . S03 ... : ... .. . ... : ... .. . ... ... : ... .. . ... ... ... ...
ROW 20 : F-4 0D A ... ... : B-3 22 8 ... ... : E-4 03 . 236 ... : ... .. . ... : ... .. . ... ... : ... .. 5 ... ... ... ...
ROW 21 : ... .. 6 ... ... : ... .. 7 ... ... : ... .. . ... ... : ... .. . ... : ... .. . ... ... : ... .. . ... ... ... ...
ROW 22 : C-4 0D A G02 ... : ... .. 6 ... ... : ... .. . ... ... : ... .. . ... : ... .. . ... ... : ... .. 4 ... ... ... ...
ROW 23 : ... .. . ... ... : ... .. 5 ... ... : ... .. . ... ... : ... .. . ... : ... .. . ... ... : ... .. . ... ... ... ...
ROW 24 : F-4 0D 6 ... ... : ... .. 4 ... ... : E-2 11 . 200 ... : ... .. . ... : ... .. . ... ... : ... .. 3 ... ... ... ...
ROW 25 : A-3 0D A G01 ... : ... .. 3 ... ... : ... .. . ... ... : ... .. . ... : ... .. . ... ... : ... .. . ... ... ... ...
ROW 26 : ... .. . ... ... : ... .. 2 ... ... : E-4 03 . 236 ... : ... .. . ... : ... .. . ... ... : ... .. 2 ... ... ... ...
ROW 27 : C-4 0D 6 ... ... : ... .. 1 ... ... : ... .. . ... ... : ... .. . ... : ... .. . ... ... : ... .. . ... ... ... ...
ROW 28 : F-3 0D A ... ... : B-3 22 8 ... ... : E-3 11 . 200 ... : ... .. . ... : ... .. . ... ... : ... .. 1 ... ... ... ...
ROW 29 : A-3 0D 6 ... ... : ... .. 7 ... ... : ... .. . ... ... : ... .. . ... : ... .. . ... ... : ... .. . ... ... ... ...
ROW 2A : A-3 0D A G02 ... : ... .. 6 ... ... : ... .. . S03 ... : ... .. . ... : ... .. . ... ... : --- .. E ... ... ... ...
ROW 2B : ... .. . ... ... : ... .. 5 ... ... : ... .. . ... ... : ... .. . ... : ... .. . ... ... : ... .. . ... ... ... ...
ROW 2C : F-3 0D 6 ... ... : B-3 22 8 ... ... : E-4 03 . 236 ... : ... .. . ... : ... .. . ... ... : ... .. . ... ... ... ...
ROW 2D : C-4 0D A G01 ... : ... .. 7 ... ... : ... .. . ... ... : ... .. . ... : ... .. . ... ... : ... .. . ... ... ... ...
ROW 2E : ... .. . ... ... : ... .. 6 ... ... : E-2 11 . 200 ... : ... .. . ... : ... .. . ... ... : ... .. . ... ... ... ...
ROW 2F : A-3 0D 6 ... ... : ... .. 5 ... ... : ... .. . ... ... : ... .. . ... : ... .. . ... ... : ... .. . ... ... ... ...
ROW 30 : G-4 0D A ... ... : B-3 22 8 ... ... : E-3 11 . ... ... : ... .. . ... : C-2 23 . ... ... : ... .. . ... ... ... ...
ROW 31 : ... .. 6 ... ... : ... .. 7 ... ... : ... .. . ... ... : ... .. . ... : ... .. . ... ... : ... .. . ... ... ... ...
ROW 32 : D-4 0D A G02 ... : ... .. 6 ... ... : E-4 03 . 236 ... : ... .. . ... : ... .. . ... ... : ... .. . ... ... ... ...
ROW 33 : ... .. . ... ... : ... .. 5 ... ... : ... .. . ... ... : ... .. . ... : ... .. . ... ... : ... .. . ... ... ... ...
ROW 34 : G-4 0D 6 ... ... : ... .. 4 ... ... : E-2 11 . 200 ... : ... .. . ... : ... .. . ... ... : ... .. . ... ... ... ...
ROW 35 : B-3 0D A G01 ... : ... .. 3 ... ... : ... .. . S03 ... : ... .. . ... : ... .. . ... ... : ... .. . ... ... ... ...
ROW 36 : ... .. . ... ... : ... .. 2 ... ... : E-2 11 . ... ... : ... .. . ... : ... .. . ... ... : ... .. . ... ... ... ...
ROW 37 : D-4 0D 6 ... ... : ... .. 1 ... ... : ... .. . ... ... : ... .. . ... : ... .. . ... ... : ... .. . ... ... ... ...
ROW 38 : G-3 0D A ... ... : ... .. . ... ... : E-4 03 . 236 ... : ... .. . ... : D-2 23 . ... ... : B-4 1D E ... ... ... ...
ROW 39 : B-3 0D 6 ... ... : ... .. . ... ... : ... .. . ... ... : ... .. . ... : ... .. . ... ... : ... .. . ... ... ... ...
ROW 3A : B-3 0D A G02 ... : ... .. . ... ... : ... .. . ... ... : ... .. . ... : ... .. . ... ... : ... .. 8 ... ... ... ...
ROW 3B : ... .. . ... ... : ... .. . ... ... : ... .. . ... ... : ... .. . ... : ... .. . ... ... : ... .. . ... ... ... ...
ROW 3C : G-3 0D 6 ... ... : ... .. . ... ... : E-4 03 . ... ... : ... .. . ... : ... .. . ... ... : D-5 1D E ... ... ... ...
ROW 3D : D-4 0D A G01 ... : ... .. . ... ... : ... .. . ... ... : ... .. . ... : ... .. . ... ... : ... .. . ... ... ... ...
ROW 3E : ... .. . ... ... : ... .. . ... ... : E-4 03 . ... ... : ... .. . ... : ... .. . ... ... : B-4 1D 8 ... ... ... ...
ROW 3F : B-3 0D 6 ... ... : ... .. . ... ... : ... .. . ... ... : ... .. . ... : ... .. . ... ... : ... .. . ... ... ... ...
ROW 40 : ... .. . ... ... : ... .. . ... ... : ... .. . ... ... : ... .. . ... : ... .. . ... ... : ... .. . ... ... ... ...
ROW 41 : ... .. . ... ... : ... .. . ... ... : ... .. . ... ... : ... .. . ... : ... .. . ... ... : ... .. . ... ... ... ...
ROW 42 : ... .. . ... ... : ... .. . ... ... : ... .. . ... ... : ... .. . ... : ... .. . ... ... : ... .. . ... ... ... ...
ROW 43 : ... .. . ... ... : ... .. . ... ... : ... .. . ... ... : ... .. . ... : ... .. . ... ... : ... .. . ... ... ... ...
ROW 44 : ... .. . ... ... : ... .. . ... ... : ... .. . ... ... : ... .. . ... : ... .. . ... ... : ... .. . ... ... ... ...
ROW 45 : ... .. . ... ... : ... .. . ... ... : ... .. . ... ... : ... .. . ... : ... .. . ... ... : ... .. . ... ... ... ...
ROW 46 : ... .. . ... ... : ... .. . ... ... : ... .. . ... ... : ... .. . ... : ... .. . ... ... : ... .. . ... ... ... ...
ROW 47 : ... .. . ... ... : ... .. . ... ... : ... .. . ... ... : ... .. . ... : ... .. . ... C00 : ... .. . ... ... ... ...
ROW 48 : ... .. . ... ... : ... .. . ... ... : ... .. . ... ... : ... .. . ... : ... .. . ... ... : ... .. . ... ... ... ...
ROW 49 : ... .. . ... ... : ... .. . ... ... : ... .. . ... ... : ... .. . ... : ... .. . ... ... : ... .. . ... ... ... ...
ROW 4A : ... .. . ... ... : ... .. . ... ... : ... .. . ... ... : ... .. . ... : ... .. . ... ... : ... .. . ... ... ... ...
ROW 4B : ... .. . ... ... : ... .. . ... ... : ... .. . ... ... : ... .. . ... : ... .. . ... ... : ... .. . ... ... ... ...
ROW 4C : ... .. . ... ... : ... .. . ... ... : ... .. . ... ... : ... .. . ... : ... .. . ... ... : ... .. . ... ... ... ...
ROW 4D : ... .. . ... ... : ... .. . ... ... : ... .. . ... ... : ... .. . ... : ... .. . ... ... : ... .. . ... ... ... ...
ROW 4E : ... .. . ... ... : ... .. . ... ... : ... .. . ... ... : ... .. . ... : ... .. . ... ... : ... .. . ... ... ... ...
ROW 4F : ... .. . ... ... : ... .. . ... ... : ... .. . ... ... : ... .. . ... : ... .. . ... ... : ... .. . ... ... ... ...
ROW 50 : ... .. . ... ... : ... .. . ... ... : ... .. . ... ... : ... .. . ... : ... .. . ... ... : ... .. . ... ... ... ...
ROW 51 : ... .. . ... ... : ... .. . ... ... : ... .. . ... ... : ... .. . ... : ... .. . ... ... : ... .. . ... ... ... ...
ROW 52 : ... .. . ... ... : ... .. . ... ... : ... .. . ... ... : ... .. . ... : ... .. . ... ... : ... .. . ... ... ... ...
ROW 53 : ... .. . ... ... : ... .. . ... ... : ... .. . ... ... : ... .. . ... : ... .. . ... ... : ... .. . ... ... ... ...
ROW 54 : ... .. . ... ... : ... .. . ... ... : ... .. . ... ... : ... .. . ... : ... .. . ... ... : ... .. . ... ... ... ...
ROW 55 : ... .. . ... ... : ... .. . ... ... : ... .. . ... ... : ... .. . ... : ... .. . ... ... : ... .. . ... ... ... ...
ROW 56 : ... .. . ... ... : ... .. . ... ... : ... .. . ... ... : ... .. . ... : ... .. . ... ... : ... .. . ... ... ... ...
ROW 57 : ... .. . ... ... : ... .. . ... ... : ... .. . ... ... : ... .. . ... : ... .. . ... ... : ... .. . ... ... ... ...
ROW 58 : ... .. . ... ... : ... .. . ... ... : ... .. . ... ... : ... .. . ... : ... .. . ... ... : ... .. . ... ... ... ...
ROW 59 : ... .. . ... ... : ... .. . ... ... : ... .. . ... ... : ... .. . ... : ... .. . ... ... : ... .. . ... ... ... ...
ROW 5A : ... .. . ... ... : ... .. . ... ... : ... .. . ... ... : ... .. . ... : ... .. . ... ... : ... .. . ... ... ... ...
ROW 5B : ... .. . ... ... : ... .. . ... ... : ... .. . ... ... : ... .. . ... : ... .. . ... ... : ... .. . ... ... ... ...
ROW 5C : ... .. . ... ... : ... .. . ... ... : ... .. . ... ... : ... .. . ... : ... .. . ... ... : ... .. . ... ... ... ...
ROW 5D : ... .. . ... ... : ... .. . ... ... : ... .. . ... ... : ... .. . ... : ... .. . ... ... : ... .. . ... ... ... ...
ROW 5E : ... .. . ... ... : ... .. . ... ... : ... .. . ... ... : ... .. . ... : ... .. . ... ... : ... .. . ... ... ... ...
ROW 5F : ... .. . ... ... : ... .. . ... ... : ... .. . ... ... : ... .. . ... : ... .. . ... ... : ... .. . ... ... ... ...
ROW 60 : ... .. . ... ... : ... .. . ... ... : ... .. . ... ... : ... .. . ... : ... .. . ... ... : ... .. . ... ... ... ...
ROW 61 : ... .. . ... ... : ... .. . ... ... : ... .. . ... ... : ... .. . ... : ... .. . ... ... : ... .. . ... ... ... ...
ROW 62 : ... .. . ... ... : ... .. . ... ... : ... .. . ... ... : ... .. . ... : ... .. . ... ... : ... .. . ... ... ... ...
ROW 63 : ... .. . ... ... : ... .. . ... ... : ... .. . ... ... : ... .. . ... : ... .. . ... ... : ... .. . ... ... ... ...
ROW 64 : ... .. . ... ... : ... .. . ... ... : ... .. . ... ... : ... .. . ... : ... .. . ... ... : ... .. . ... ... ... ...
ROW 65 : ... .. . ... ... : ... .. . ... ... : ... .. . ... ... : ... .. . ... : ... .. . ... ... : ... .. . ... ... ... ...
ROW 66 : ... .. . ... ... : ... .. . ... ... : ... .. . ... ... : ... .. . ... : ... .. . ... ... : ... .. . ... ... ... ...
ROW 67 : ... .. . ... ... : ... .. . ... ... : ... .. . ... ... : ... .. . ... : ... .. . ... ... : ... .. . ... ... ... ...
ROW 68 : ... .. . ... ... : ... .. . ... ... : ... .. . ... ... : ... .. . ... : ... .. . ... ... : ... .. . ... ... ... ...
ROW 69 : ... .. . ... ... : ... .. . ... ... : ... .. . ... ... : ... .. . ... : ... .. . ... ... : ... .. . ... ... ... ...
ROW 6A : ... .. . ... ... : ... .. . ... ... : ... .. . ... ... : ... .. . ... : ... .. . ... ... : ... .. . ... ... ... ...
ROW 6B : ... .. . ... ... : ... .. . ... ... : ... .. . ... ... : ... .. . ... : ... .. . ... ... : ... .. . ... ... ... ...
ROW 6C : ... .. . ... ... : ... .. . ... ... : ... .. . ... ... : ... .. . ... : ... .. . ... ... : ... .. . ... ... ... ...
ROW 6D : ... .. . ... ... : ... .. . ... ... : ... .. . ... ... : ... .. . ... : ... .. . ... ... : ... .. . ... ... ... ...
ROW 6E : ... .. . ... ... : ... .. . ... ... : ... .. . ... ... : ... .. . ... : ... .. . ... ... : ... .. . ... ... ... ...
ROW 6F : ... .. . ... ... : ... .. . ... ... : ... .. . ... ... : ... .. . ... : ... .. . ... ... : ... .. . ... ... ... ...
ROW 70 : ... .. . ... ... : ... .. . ... ... : ... .. . ... ... : ... .. . ... : ... .. . ... ... : ... .. . ... ... ... ...
ROW 71 : ... .. . ... ... : ... .. . ... ... : ... .. . ... ... : ... .. . ... : ... .. . ... ... : ... .. . ... ... ... ...
ROW 72 : ... .. . ... ... : ... .. . ... ... : ... .. . ... ... : ... .. . ... : ... .. . ... ... : ... .. . ... ... ... ...
ROW 73 : ... .. . ... ... : ... .. . ... ... : ... .. . ... ... : ... .. . ... : ... .. . ... ... : ... .. . ... ... ... ...
ROW 74 : ... .. . ... ... : ... .. . ... ... : ... .. . ... ... : ... .. . ... : ... .. . ... ... : ... .. . ... ... ... ...
ROW 75 : ... .. . ... ... : ... .. . ... ... : ... .. . ... ... : ... .. . ... : ... .. . ... ... : ... .. . ... ... ... ...
ROW 76 : ... .. . ... ... : ... .. . ... ... : ... .. . ... ... : ... .. . ... : ... .. . ... ... : ... .. . ... ... ... ...
ROW 77 : ... .. . ... ... : ... .. . ... ... : ... .. . ... ... : ... .. . ... : ... .. . ... ... : ... .. . ... ... ... ...
ROW 78 : ... .. . ... ... : ... .. . ... ... : ... .. . ... ... : ... .. . ... : ... .. . ... ... : ... .. . ... ... ... ...
ROW 79 : ... .. . ... ... : ... .. . ... ... : ... .. . ... ... : ... .. . ... : ... .. . ... ... : ... .. . ... ... ... ...
ROW 7A : ... .. . ... ... : ... .. . ... ... : ... .. . ... ... : ... .. . ... : ... .. . ... ... : ... .. . ... ... ... ...
ROW 7B : ... .. . ... ... : ... .. . ... ... : ... .. . ... ... : ... .. . ... : ... .. . ... ... : ... .. . ... ... ... ...
ROW 7C : ... .. . ... ... : ... .. . ... ... : ... .. . ... ... : ... .. . ... : ... .. . ... ... : ... .. . ... ... ... ...
ROW 7D : ... .. . ... ... : ... .. . ... ... : ... .. . ... ... : ... .. . ... : ... .. . ... ... : ... .. . ... ... ... ...
ROW 7E : ... .. . ... ... : ... .. . ... ... : ... .. . ... ... : ... .. . ... : ... .. . ... ... : ... .. . ... ... ... ...
ROW 7F : ... .. . ... ... : ... .. . ... ... : ... .. . ... ... : ... .. . ... : ... .. . ... ... : ... .. . ... ... ... ...
ROW 80 : ... .. . ... ... : ... .. . ... ... : ... .. . ... ... : ... .. . ... : ... .. . ... ... : ... .. . ... ... ... ...
ROW 81 : ... .. . ... ... : ... .. . ... ... : ... .. . ... ... : ... .. . ... : ... .. . ... ... : ... .. . ... ... ... ...
ROW 82 : ... .. . ... ... : ... .. . ... ... : ... .. . ... ... : ... .. . ... : ... .. . ... ... : ... .. . ... ... ... ...
ROW 83 : ... .. . ... ... : ... .. . ... ... : ... .. . ... ... : ... .. . ... : ... .. . ... ... : ... .. . ... ... ... ...
ROW 84 : ... .. . ... ... : ... .. . ... ... : ... .. . ... ... : ... .. . ... : ... .. . ... ... : ... .. . ... ... ... ...
ROW 85 : ... .. . ... ... : ... .. . ... ... : ... .. . ... ... : ... .. . ... : ... .. . ... ... : ... .. . ... ... ... ...
ROW 86 : ... .. . ... ... : ... .. . ... ... : ... .. . ... ... : ... .. . ... : ... .. . ... ... : ... .. . ... ... ... ...
ROW 87 : ... .. . ... ... : ... .. . ... ... : ... .. . ... ... : ... .. . ... : ... .. . ... ... : ... .. . ... ... ... ...
ROW 88 : ... .. . ... ... : ... .. . ... ... : ... .. . ... ... : ... .. . ... : ... .. . ... ... : ... .. . ... ... ... ...
ROW 89 : ... .. . ... ... : ... .. . ... ... : ... .. . ... ... : ... .. . ... : ... .. . ... ... : ... .. . ... ... ... ...
ROW 8A : ... .. . ... ... : ... .. . ... ... : ... .. . ... ... : ... .. . ... : ... .. . ... ... : ... .. . ... ... ... ...
ROW 8B : ... .. . ... ... : ... .. . ... ... : ... .. . ... ... : ... .. . ... : ... .. . ... ... : ... .. . ... ... ... ...
ROW 8C : ... .. . ... ... : ... .. . ... ... : ... .. . ... ... : ... .. . ... : ... .. . ... ... : ... .. . ... ... ... ...
ROW 8D : ... .. . ... ... : ... .. . ... ... : ... .. . ... ... : ... .. . ... : ... .. . ... ... : ... .. . ... ... ... ...
ROW 8E : ... .. . ... ... : ... .. . ... ... : ... .. . ... ... : ... .. . ... : ... .. . ... ... : ... .. . ... ... ... ...
ROW 8F : ... .. . ... ... : ... .. . ... ... : ... .. . ... ... : ... .. . ... : ... .. . ... ... : ... .. . ... ... ... ...
ROW 90 : ... .. . ... ... : ... .. . ... ... : ... .. . ... ... : ... .. . ... : ... .. . ... ... : ... .. . ... ... ... ...
ROW 91 : ... .. . ... ... : ... .. . ... ... : ... .. . ... ... : ... .. . ... : ... .. . ... ... : ... .. . ... ... ... ...
ROW 92 : ... .. . ... ... : ... .. . ... ... : ... .. . ... ... : ... .. . ... : ... .. . ... ... : ... .. . ... ... ... ...
ROW 93 : ... .. . ... ... : ... .. . ... ... : ... .. . ... ... : ... .. . ... : ... .. . ... ... : ... .. . ... ... ... ...
ROW 94 : ... .. . ... ... : ... .. . ... ... : ... .. . ... ... : ... .. . ... : ... .. . ... ... : ... .. . ... ... ... ...
ROW 95 : ... .. . ... ... : ... .. . ... ... : ... .. . ... ... : ... .. . ... : ... .. . ... ... : ... .. . ... ... ... ...
ROW 96 : ... .. . ... ... : ... .. . ... ... : ... .. . ... ... : ... .. . ... : ... .. . ... ... : ... .. . ... ... ... ...
ROW 97 : ... .. . ... ... : ... .. . ... ... : ... .. . ... ... : ... .. . ... : ... .. . ... ... : ... .. . ... ... ... ...
ROW 98 : ... .. . ... ... : ... .. . ... ... : ... .. . ... ... : ... .. . ... : ... .. . ... ... : ... .. . ... ... ... ...
ROW 99 : ... .. . ... ... : ... .. . ... ... : ... .. . ... ... : ... .. . ... : ... .. . ... ... : ... .. . ... ... ... ...
ROW 9A : ... .. . ... ... : ... .. . ... ... : ... .. . ... ... : ... .. . ... : ... .. . ... ... : ... .. . ... ... ... ...
ROW 9B : ... .. . ... ... : ... .. . ... ... : ... .. . ... ... : ... .. . ... : ... .. . ... ... : ... .. . ... ... ... ...
ROW 9C : ... .. . ... ... : ... .. . ... ... : ... .. . ... ... : ... .. . ... : ... .. . ... ... : ... .. . ... ... ... ...
ROW 9D : ... .. . ... ... : ... .. . ... ... : ... .. . ... ... : ... .. . ... : ... .. . ... ... : ... .. . ... ... ... ...
ROW 9E : ... .. . ... ... : ... .. . ... ... : ... .. . ... ... : ... .. . ... : ... .. . ... ... : ... .. . ... ... ... ...
ROW 9F : ... .. . ... ... : ... .. . ... ... : ... .. . ... ... : ... .. . ... : ... .. . ... ... : ... .. . ... ... ... ...
ROW A0 : ... .. . ... ... : ... .. . ... ... : ... .. . ... ... : ... .. . ... : ... .. . ... ... : ... .. . ... ... ... ...
ROW A1 : ... .. . ... ... : ... .. . ... ... : ... .. . ... ... : ... .. . ... : ... .. . ... ... : ... .. . ... ... ... ...
ROW A2 : ... .. . ... ... : ... .. . ... ... : ... .. . ... ... : ... .. . ... : ... .. . ... ... : ... .. . ... ... ... ...
ROW A3 : ... .. . ... ... : ... .. . ... ... : ... .. . ... ... : ... .. . ... : ... .. . ... ... : ... .. . ... ... ... ...
ROW A4 : ... .. . ... ... : ... .. . ... ... : ... .. . ... ... : ... .. . ... : ... .. . ... ... : ... .. . ... ... ... ...
ROW A5 : ... .. . ... ... : ... .. . ... ... : ... .. . ... ... : ... .. . ... : ... .. . ... ... : ... .. . ... ... ... ...
ROW A6 : ... .. . ... ... : ... .. . ... ... : ... .. . ... ... : ... .. . ... : ... .. . ... ... : ... .. . ... ... ... ...
ROW A7 : ... .. . ... ... : ... .. . ... ... : ... .. . ... ... : ... .. . ... : ... .. . ... ... : ... .. . ... ... ... ...
ROW A8 : ... .. . ... ... : ... .. . ... ... : ... .. . ... ... : ... .. . ... : ... .. . ... ... : ... .. . ... ... ... ...
ROW A9 : ... .. . ... ... : ... .. . ... ... : ... .. . ... ... : ... .. . ... : ... .. . ... ... : ... .. . ... ... ... ...
ROW AA : ... .. . ... ... : ... .. . ... ... : ... .. . ... ... : ... .. . ... : ... .. . ... ... : ... .. . ... ... ... ...
ROW AB : ... .. . ... ... : ... .. . ... ... : ... .. . ... ... : ... .. . ... : ... .. . ... ... : ... .. . ... ... ... ...
ROW AC : ... .. . ... ... : ... .. . ... ... : ... .. . ... ... : ... .. . ... : ... .. . ... ... : ... .. . ... ... ... ...
ROW AD : ... .. . ... ... : ... .. . ... ... : ... .. . ... ... : ... .. . ... : ... .. . ... ... : ... .. . ... ... ... ...
ROW AE : ... .. . ... ... : ... .. . ... ... : ... .. . ... ... : ... .. . ... : ... .. . ... ... : ... .. . ... ... ... ...
ROW AF : ... .. . ... ... : ... .. . ... ... : ... .. . ... ... : ... .. . ... : ... .. . ... ... : ... .. . ... ... ... ...
ROW B0 : ... .. . ... ... : ... .. . ... ... : ... .. . ... ... : ... .. . ... : ... .. . ... ... : ... .. . ... ... ... ...
ROW B1 : ... .. . ... ... : ... .. . ... ... : ... .. . ... ... : ... .. . ... : ... .. . ... ... : ... .. . ... ... ... ...
ROW B2 : ... .. . ... ... : ... .. . ... ... : ... .. . ... ... : ... .. . ... : ... .. . ... ... : ... .. . ... ... ... ...
ROW B3 : ... .. . ... ... : ... .. . ... ... : ... .. . ... ... : ... .. . ... : ... .. . ... ... : ... .. . ... ... ... ...
ROW B4 : ... .. . ... ... : ... .. . ... ... : ... .. . ... ... : ... .. . ... : ... .. . ... ... : ... .. . ... ... ... ...
ROW B5 : ... .. . ... ... : ... .. . ... ... : ... .. . ... ... : ... .. . ... : ... .. . ... ... : ... .. . ... ... ... ...
ROW B6 : ... .. . ... ... : ... .. . ... ... : ... .. . ... ... : ... .. . ... : ... .. . ... ... : ... .. . ... ... ... ...
ROW B7 : ... .. . ... ... : ... .. . ... ... : ... .. . ... ... : ... .. . ... : ... .. . ... ... : ... .. . ... ... ... ...
ROW B8 : ... .. . ... ... : ... .. . ... ... : ... .. . ... ... : ... .. . ... : ... .. . ... ... : ... .. . ... ... ... ...
ROW B9 : ... .. . ... ... : ... .. . ... ... : ... .. . ... ... : ... .. . ... : ... .. . ... ... : ... .. . ... ... ... ...
ROW BA : ... .. . ... ... : ... .. . ... ... : ... .. . ... ... : ... .. . ... : ... .. . ... ... : ... .. . ... ... ... ...
ROW BB : ... .. . ... ... : ... .. . ... ... : ... .. . ... ... : ... .. . ... : ... .. . ... ... : ... .. . ... ... ... ...
ROW BC : ... .. . ... ... : ... .. . ... ... : ... .. . ... ... : ... .. . ... : ... .. . ... ... : ... .. . ... ... ... ...
ROW BD : ... .. . ... ... : ... .. . ... ... : ... .. . ... ... : ... .. . ... : ... .. . ... ... : ... .. . ... ... ... ...
ROW BE : ... .. . ... ... : ... .. . ... ... : ... .. . ... ... : ... .. . ... : ... .. . ... ... : ... .. . ... ... ... ...
ROW BF : ... .. . ... ... : ... .. . ... ... : ... .. . ... ... : ... .. . ... : ... .. . ... ... : ... .. . ... ... ... ...
ROW C0 : ... .. . ... ... : ... .. . ... ... : ... .. . ... ... : ... .. . ... : ... .. . ... ... : ... .. . ... ... ... ...
ROW C1 : ... .. . ... ... : ... .. . ... ... : ... .. . ... ... : ... .. . ... : ... .. . ... ... : ... .. . ... ... ... ...
ROW C2 : ... .. . ... ... : ... .. . ... ... : ... .. . ... ... : ... .. . ... : ... .. . ... ... : ... .. . ... ... ... ...
ROW C3 : ... .. . ... ... : ... .. . ... ... : ... .. . ... ... : ... .. . ... : ... .. . ... ... : ... .. . ... ... ... ...
ROW C4 : ... .. . ... ... : ... .. . ... ... : ... .. . ... ... : ... .. . ... : ... .. . ... ... : ... .. . ... ... ... ...
ROW C5 : ... .. . ... ... : ... .. . ... ... : ... .. . ... ... : ... .. . ... : ... .. . ... ... : ... .. . ... ... ... ...
ROW C6 : ... .. . ... ... : ... .. . ... ... : ... .. . ... ... : ... .. . ... : ... .. . ... ... : ... .. . ... ... ... ...
ROW C7 : ... .. . ... ... : ... .. . ... ... : ... .. . ... ... : ... .. . ... : ... .. . ... ... : ... .. . ... ... ... ...
ROW C8 : ... .. . ... ... : ... .. . ... ... : ... .. . ... ... : ... .. . ... : ... .. . ... ... : ... .. . ... ... ... ...
ROW C9 : ... .. . ... ... : ... .. . ... ... : ... .. . ... ... : ... .. . ... : ... .. . ... ... : ... .. . ... ... ... ...
ROW CA : ... .. . ... ... : ... .. . ... ... : ... .. . ... ... : ... .. . ... : ... .. . ... ... : ... .. . ... ... ... ...
ROW CB : ... .. . ... ... : ... .. . ... ... : ... .. . ... ... : ... .. . ... : ... .. . ... ... : ... .. . ... ... ... ...
ROW CC : ... .. . ... ... : ... .. . ... ... : ... .. . ... ... : ... .. . ... : ... .. . ... ... : ... .. . ... ... ... ...
ROW CD : ... .. . ... ... : ... .. . ... ... : ... .. . ... ... : ... .. . ... : ... .. . ... ... : ... .. . ... ... ... ...
ROW CE : ... .. . ... ... : ... .. . ... ... : ... .. . ... ... : ... .. . ... : ... .. . ... ... : ... .. . ... ... ... ...
ROW CF : ... .. . ... ... : ... .. . ... ... : ... .. . ... ... : ... .. . ... : ... .. . ... ... : ... .. . ... ... ... ...
ROW D0 : ... .. . ... ... : ... .. . ... ... : ... .. . ... ... : ... .. . ... : ... .. . ... ... : ... .. . ... ... ... ...
ROW D1 : ... .. . ... ... : ... .. . ... ... : ... .. . ... ... : ... .. . ... : ... .. . ... ... : ... .. . ... ... ... ...
ROW D2 : ... .. . ... ... : ... .. . ... ... : ... .. . ... ... : ... .. . ... : ... .. . ... ... : ... .. . ... ... ... ...
ROW D3 : ... .. . ... ... : ... .. . ... ... : ... .. . ... ... : ... .. . ... : ... .. . ... ... : ... .. . ... ... ... ...
ROW D4 : ... .. . ... ... : ... .. . ... ... : ... .. . ... ... : ... .. . ... : ... .. . ... ... : ... .. . ... ... ... ...
ROW D5 : ... .. . ... ... : ... .. . ... ... : ... .. . ... ... : ... .. . ... : ... .. . ... ... : ... .. . ... ... ... ...
ROW D6 : ... .. . ... ... : ... .. . ... ... : ... .. . ... ... : ... .. . ... : ... .. . ... ... : ... .. . ... ... ... ...
ROW D7 : ... .. . ... ... : ... .. . ... ... : ... .. . ... ... : ... .. . ... : ... .. . ... ... : ... .. . ... ... ... ...
ROW D8 : ... .. . ... ... : ... .. . ... ... : ... .. . ... ... : ... .. . ... : ... .. . ... ... : ... .. . ... ... ... ...
ROW D9 : ... .. . ... ... : ... .. . ... ... : ... .. . ... ... : ... .. . ... : ... .. . ... ... : ... .. . ... ... ... ...
ROW DA : ... .. . ... ... : ... .. . ... ... : ... .. . ... ... : ... .. . ... : ... .. . ... ... : ... .. . ... ... ... ...
ROW DB : ... .. . ... ... : ... .. . ... ... : ... .. . ... ... : ... .. . ... : ... .. . ... ... : ... .. . ... ... ... ...
ROW DC : ... .. . ... ... : ... .. . ... ... : ... .. . ... ... : ... .. . ... : ... .. . ... ... : ... .. . ... ... ... ...
ROW DD : ... .. . ... ... : ... .. . ... ... : ... .. . ... ... : ... .. . ... : ... .. . ... ... : ... .. . ... ... ... ...
ROW DE : ... .. . ... ... : ... .. . ... ... : ... .. . ... ... : ... .. . ... : ... .. . ... ... : ... .. . ... ... ... ...
ROW DF : ... .. . ... ... : ... .. . ... ... : ... .. . ... ... : ... .. . ... : ... .. . ... ... : ... .. . ... ... ... ...
ROW E0 : ... .. . ... ... : ... .. . ... ... : ... .. . ... ... : ... .. . ... : ... .. . ... ... : ... .. . ... ... ... ...
ROW E1 : ... .. . ... ... : ... .. . ... ... : ... .. . ... ... : ... .. . ... : ... .. . ... ... : ... .. . ... ... ... ...
ROW E2 : ... .. . ... ... : ... .. . ... ... : ... .. . ... ... : ... .. . ... : ... .. . ... ... : ... .. . ... ... ... ...
ROW E3 : ... .. . ... ... : ... .. . ... ... : ... .. . ... ... : ... .. . ... : ... .. . ... ... : ... .. . ... ... ... ...
ROW E4 : ... .. . ... ... : ... .. . ... ... : ... .. . ... ... : ... .. . ... : ... .. . ... ... : ... .. . ... ... ... ...
ROW E5 : ... .. . ... ... : ... .. . ... ... : ... .. . ... ... : ... .. . ... : ... .. . ... ... : ... .. . ... ... ... ...
ROW E6 : ... .. . ... ... : ... .. . ... ... : ... .. . ... ... : ... .. . ... : ... .. . ... ... : ... .. . ... ... ... ...
ROW E7 : ... .. . ... ... : ... .. . ... ... : ... .. . ... ... : ... .. . ... : ... .. . ... ... : ... .. . ... ... ... ...
ROW E8 : ... .. . ... ... : ... .. . ... ... : ... .. . ... ... : ... .. . ... : ... .. . ... ... : ... .. . ... ... ... ...
ROW E9 : ... .. . ... ... : ... .. . ... ... : ... .. . ... ... : ... .. . ... : ... .. . ... ... : ... .. . ... ... ... ...
ROW EA : ... .. . ... ... : ... .. . ... ... : ... .. . ... ... : ... .. . ... : ... .. . ... ... : ... .. . ... ... ... ...
ROW EB : ... .. . ... ... : ... .. . ... ... : ... .. . ... ... : ... .. . ... : ... .. . ... ... : ... .. . ... ... ... ...
ROW EC : ... .. . ... ... : ... .. . ... ... : ... .. . ... ... : ... .. . ... : ... .. . ... ... : ... .. . ... ... ... ...
ROW ED : ... .. . ... ... : ... .. . ... ... : ... .. . ... ... : ... .. . ... : ... .. . ... ... : ... .. . ... ... ... ...
ROW EE : ... .. . ... ... : ... .. . ... ... : ... .. . ... ... : ... .. . ... : ... .. . ... ... : ... .. . ... ... ... ...
ROW EF : ... .. . ... ... : ... .. . ... ... : ... .. . ... ... : ... .. . ... : ... .. . ... ... : ... .. . ... ... ... ...
ROW F0 : ... .. . ... ... : ... .. . ... ... : ... .. . ... ... : ... .. . ... : ... .. . ... ... : ... .. . ... ... ... ...
ROW F1 : ... .. . ... ... : ... .. . ... ... : ... .. . ... ... : ... .. . ... : ... .. . ... ... : ... .. . ... ... ... ...
ROW F2 : ... .. . ... ... : ... .. . ... ... : ... .. . ... ... : ... .. . ... : ... .. . ... ... : ... .. . ... ... ... ...
ROW F3 : ... .. . ... ... : ... .. . ... ... : ... .. . ... ... : ... .. . ... : ... .. . ... ... : ... .. . ... ... ... ...
ROW F4 : ... .. . ... ... : ... .. . ... ... : ... .. . ... ... : ... .. . ... : ... .. . ... ... : ... .. . ... ... ... ...
ROW F5 : ... .. . ... ... : ... .. . ... ... : ... .. . ... ... : ... .. . ... : ... .. . ... ... : ... .. . ... ... ... ...
ROW F6 : ... .. . ... ... : ... .. . ... ... : ... .. . ... ... : ... .. . ... : ... .. . ... ... : ... .. . ... ... ... ...
ROW F7 : ... .. . ... ... : ... .. . ... ... : ... .. . ... ... : ... .. . ... : ... .. . ... ... : ... .. . ... ... ... ...
ROW F8 : ... .. . ... ... : ... .. . ... ... : ... .. . ... ... : ... .. . ... : ... .. . ... ... : ... .. . ... ... ... ...
ROW F9 : ... .. . ... ... : ... .. . ... ... : ... .. . ... ... : ... .. . ... : ... .. . ... ... : ... .. . ... ... ... ...
ROW FA : ... .. . ... ... : ... .. . ... ... : ... .. . ... ... : ... .. . ... : ... .. . ... ... : ... .. . ... ... ... ...
ROW FB : ... .. . ... ... : ... .. . ... ... : ... .. . ... ... : ... .. . ... : ... .. . ... ... : ... .. . ... ... ... ...
ROW FC : ... .. . ... ... : ... .. . ... ... : ... .. . ... ... : ... .. . ... : ... .. . ... ... : ... .. . ... ... ... ...
ROW FD : ... .. . ... ... : ... .. . ... ... : ... .. . ... ... : ... .. . ... : ... .. . ... ... : ... .. . ... ... ... ...
ROW FE : ... .. . ... ... : ... .. . ... ... : ... .. . ... ... : ... .. . ... : ... .. . ... ... : ... .. . ... ... ... ...
ROW FF : ... .. . ... ... : ... .. . ... ... : ... .. . ... ... : ... .. . ... : ... .. . ... ... : ... .. . ... ... ... ...

PATTERN 1F
ROW 00 : F#4 0D A ... ... : A-3 19 8 ... ... : E-4 03 . 236 ... : ... .. . ... : ... .. . ... ... : E-5 1D E 400 ... ... ...
ROW 01 : ... .. 6 ... ... : ... .. 7 ... ... : ... .. . ... ... : ... .. . ... : ... .. . ... ... : ... .. . ... ... ... ...
ROW 02 : D-4 0D A G02 ... : ... .. 6 ... ... : E-3 11 . G02 200 : ... .. . ... : ... .. . ... ... : ... .. . ... ... ... ...
ROW 03 : ... .. . ... ... : ... .. 5 ... ... : ... .. . ... ... : ... .. . ... : ... .. . ... ... : ... .. . ... ... ... ...
ROW 04 : F#4 0D 6 ... ... : ... .. 4 ... ... : ... .. . S04 ... : ... .. . ... : ... .. . ... ... : ... .. D ... ... ... ...
ROW 05 : A-3 0D A G01 ... : ... .. 3 ... ... : E-3 11 . G01 ... : ... .. . ... : ... .. . ... ... : ... .. C ... ... ... ...
ROW 06 : ... .. . ... ... : ... .. 2 ... ... : ... .. . ... ... : ... .. . ... : ... .. . ... ... : ... .. B ... ... ... ...
ROW 07 : D-4 0D 6 ... ... : ... .. 1 ... ... : ... .. . S03 ... : ... .. . ... : ... .. . ... ... : ... .. A ... ... ... ...
ROW 08 : F#3 0D A ... ... : A-3 19 8 ... ... : E-4 03 . 236 ... : ... .. . ... : ... .. . ... ... : ... .. 9 468 ... ... ...
ROW 09 : A-3 0D 6 ... ... : ... .. 4 ... ... : ... .. . ... ... : ... .. . ... : ... .. . ... ... : ... .. 8 ... ... ... ...
ROW 0A : A-3 0D A G02 ... : A-3 19 8 G02 ... : E-4 03 . G02 ... : ... .. . ... : ... .. . ... ... : ... .. 7 ... ... ... ...
ROW 0B : ... .. . ... ... : ... .. . ... ... : ... .. . ... ... : ... .. . ... : ... .. . ... ... : ... .. 6 ... ... ... ...
ROW 0C : F#3 0D 6 ... ... : ... .. 4 ... ... : ... .. . ... ... : ... .. . ... : ... .. . ... ... : ... .. 5 ... ... ... ...
ROW 0D : D-4 0D A G01 ... : A-3 19 8 G01 ... : E-4 03 . G01 ... : ... .. . ... : ... .. . ... ... : ... .. 4 ... ... ... ...
ROW 0E : ... .. . ... ... : ... .. . ... ... : ... .. . ... ... : ... .. . ... : ... .. . ... ... : ... .. 3 ... ... ... ...
ROW 0F : A-3 0D 6 ... ... : ... .. 4 ... ... : ... .. . ... ... : ... .. . ... : ... .. . ... ... : ... .. 2 ... ... ... ...
ROW 10 : F#4 0D A ... ... : A-3 19 8 ... ... : E-4 03 . ... ... : ... .. . ... : ... .. . ... ... : E-5 1D E 400 ... ... ...
ROW 11 : ... .. 6 ... ... : ... .. 7 ... ... : ... .. . ... ... : ... .. . ... : ... .. . ... ... : ... .. . ... ... ... ...
ROW 12 : D-4 0D A G02 ... : ... .. 6 ... ... : E-3 11 . 200 G02 : ... .. . ... : ... .. . ... ... : ... .. D ... ... ... ...
ROW 13 : ... .. . ... ... : ... .. 5 ... ... : ... .. . ... ... : ... .. . ... : ... .. . ... ... : ... .. C ... ... ... ...
ROW 14 : F#4 0D 6 ... ... : ... .. 4 ... ... : ... .. . S04 ... : ... .. . ... : ... .. . ... ... : ... .. B ... ... ... ...
ROW 15 : A-3 0D A G01 ... : ... .. 3 ... ... : E-3 11 . G01 ... : ... .. . ... : ... .. . ... ... : ... .. A 468 ... ... ...
ROW 16 : ... .. . ... ... : ... .. 2 ... ... : ... .. . ... ... : ... .. . ... : ... .. . ... ... : A-4 1D E 400 ... ... ...
ROW 17 : D-4 0D 6 ... ... : ... .. 1 ... ... : ... .. . S03 ... : ... .. . ... : ... .. . ... ... : ... .. C ... ... ... ...
ROW 18 : F#3 0D A ... ... : A-3 19 8 ... ... : E-4 03 . 236 ... : ... .. . ... : ... .. . ... ... : ... .. D ... ... ... ...
ROW 19 : A-3 0D 6 ... ... : ... .. 7 ... ... : ... .. . ... ... : ... .. . ... : ... .. . ... ... : ... .. C ... ... ... ...
ROW 1A : A-3 0D A G02 ... : ... .. 6 ... ... : E-3 11 . G02 200 : ... .. . ... : ... .. . ... ... : ... .. B ... ... ... ...
ROW 1B : ... .. . ... ... : ... .. 5 ... ... : ... .. . ... ... : ... .. . ... : ... .. . ... ... : ... .. A 468 ... ... ...
ROW 1C : F#3 0D 6 ... ... : ... .. 4 ... ... : ... .. . S04 ... : ... .. . ... : ... .. . ... ... : E-5 1D E 400 ... ... ...
ROW 1D : D-4 0D A G01 ... : ... .. 3 ... ... : E-4 11 . G01 ... : ... .. . ... : ... .. . ... ... : ... .. D ... ... ... ...
ROW 1E : ... .. . ... ... : ... .. 2 ... ... : ... .. . ... ... : ... .. . ... : ... .. . ... ... : ... .. C ... ... ... ...
ROW 1F : A-3 0D 6 ... ... : ... .. 1 ... ... : ... .. . S03 ... : ... .. . ... : ... .. . ... ... : ... .. B 468 ... ... ...
ROW 20 : F#4 0D A ... ... : B-3 22 8 ... ... : B-3 03 . 236 ... : ... .. . ... : ... .. . ... ... : B-4 1D E 400 ... ... ...
ROW 21 : ... .. 9 ... ... : ... .. 7 ... ... : ... .. . ... ... : ... .. . ... : ... .. . ... ... : ... .. . ... ... ... ...
ROW 22 : ... .. 8 ... ... : ... .. 6 ... ... : B-2 11 . G02 200 : ... .. . ... : ... .. . ... ... : ... .. . ... ... ... ...
ROW 23 : ... .. 7 ... ... : ... .. 5 ... ... : ... .. . ... ... : ... .. . ... : ... .. . ... ... : ... .. . ... ... ... ...
ROW 24 : ... .. 6 ... ... : ... .. 4 ... ... : ... .. . S04 ... : ... .. . ... : ... .. . ... ... : ... .. . ... ... ... ...
ROW 25 : ... .. 5 ... ... : ... .. 3 ... ... : B-2 11 . G01 ... : ... .. . ... : ... .. . ... ... : ... .. . ... ... ... ...
ROW 26 : ... .. 4 463 ... : ... .. 2 ... ... : ... .. . ... ... : ... .. . ... : ... .. . ... ... : ... .. . ... ... ... ...
ROW 27 : ... .. 3 ... ... : ... .. 1 ... ... : ... .. . S03 ... : ... .. . ... : ... .. . ... ... : ... .. . ... ... ... ...
ROW 28 : ... .. 2 ... ... : B-3 22 8 ... ... : B-3 03 . 236 ... : ... .. . ... : ... .. . ... ... : ... .. D 468 ... ... ...
ROW 29 : ... .. 1 ... ... : ... .. 7 ... ... : ... .. . ... ... : ... .. . ... : ... .. . ... ... : ... .. C ... ... ... ...
ROW 2A : ... .. . ... ... : ... .. 6 ... ... : B-2 11 . G02 200 : ... .. . ... : ... .. . ... ... : ... .. B ... ... ... ...
ROW 2B : --- .. 0 400 ... : ... .. 5 ... ... : ... .. . ... ... : ... .. . ... : ... .. . ... ... : ... .. A ... ... ... ...
ROW 2C : ... .. . ... ... : B-3 22 8 ... ... : B-3 03 . 236 ... : ... .. . ... : ... .. . ... ... : ... .. 9 ... ... ... ...
ROW 2D : ... .. . ... ... : ... .. 7 ... ... : ... .. . ... ... : ... .. . ... : ... .. . ... ... : ... .. 8 ... ... ... ...
ROW 2E : ... .. . ... ... : ... .. 6 ... ... : ... .. . ... ... : ... .. . ... : ... .. . ... ... : ... .. 7 ... ... ... ...
ROW 2F : ... .. . ... ... : ... .. 5 ... ... : ... .. . ... ... : ... .. . ... : ... .. . ... ... : ... .. 6 ... ... ... ...
ROW 30 : ... .. . ... ... : B-3 22 8 ... ... : B-3 03 . ... ... : ... .. . ... : ... .. . ... ... : ... .. 5 ... ... ... ...
ROW 31 : ... .. . ... ... : ... .. 7 ... ... : ... .. . ... ... : ... .. . ... : ... .. . ... ... : ... .. 4 ... ... ... ...
ROW 32 : ... .. . ... ... : ... .. 6 ... ... : B-2 11 . G02 200 : ... .. . ... : ... .. . ... ... : ... .. 3 ... ... ... ...
ROW 33 : ... .. . ... ... : ... .. 5 ... ... : ... .. . ... ... : ... .. . ... : ... .. . ... ... : ... .. 2 ... ... ... ...
ROW 34 : ... .. . ... ... : ... .. 4 ... ... : ... .. . S04 ... : ... .. . ... : ... .. . ... ... : G-4 1D E 400 ... ... ...
ROW 35 : ... .. . ... ... : ... .. 3 ... ... : B-2 11 . G01 ... : ... .. . ... : ... .. . ... ... : ... .. . ... ... ... ...
ROW 36 : ... .. . ... ... : ... .. 2 ... ... : ... .. . ... ... : ... .. . ... : ... .. . ... ... : ... .. C ... ... ... ...
ROW 37 : ... .. . ... ... : ... .. 1 ... ... : ... .. . S03 ... : ... .. . ... : ... .. . ... ... : ... .. A ... ... ... ...
ROW 38 : ... .. . ... ... : ... .. . ... ... : B-2 11 . ... ... : ... .. . ... : ... .. . ... ... : B-4 1D E ... ... ... ...
ROW 39 : ... .. . ... ... : ... .. . ... ... : ... .. . S05 ... : ... .. . ... : ... .. . ... ... : ... .. C ... ... ... ...
ROW 3A : ... .. . ... ... : ... .. . ... ... : B-2 11 . G02 ... : ... .. . ... : ... .. . ... ... : E-4 1D E ... ... ... ...
ROW 3B : ... .. . ... ... : ... .. . ... ... : ... .. . ... ... : ... .. . ... : ... .. . ... ... : ... .. C ... ... ... ...
ROW 3C : ... .. . ... ... : ... .. . ... ... : ... .. . S04 ... : ... .. . ... : ... .. . ... ... : G-4 1D E ... ... ... ...
ROW 3D : ... .. . ... ... : ... .. . ... ... : B-3 11 . G01 ... : ... .. . ... : ... .. . ... ... : ... .. C ... ... ... ...
ROW 3E : ... .. . ... ... : ... .. . ... ... : ... .. . ... ... : ... .. . ... : ... .. . ... ... : B-4 1D E ... ... ... ...
ROW 3F : ... .. . ... ... : ... .. . ... ... : ... .. . S03 ... : ... .. . ... : ... .. . ... ... : ... .. C ... ... ... ...
ROW 40 : ... .. . ... ... : ... .. . ... ... : ... .. . ... ... : ... .. . ... : ... .. . ... ... : ... .. . ... ... ... ...
ROW 41 : ... .. . ... ... : ... .. . ... ... : ... .. . ... ... : ... .. . ... : ... .. . ... ... : ... .. . ... ... ... ...
ROW 42 : ... .. . ... ... : ... .. . ... ... : ... .. . ... ... : ... .. . ... : ... .. . ... ... : ... .. . ... ... ... ...
ROW 43 : ... .. . ... ... : ... .. . ... ... : ... .. . ... ... : ... .. . ... : ... .. . ... ... : ... .. . ... ... ... ...
ROW 44 : ... .. . ... ... : ... .. . ... ... : ... .. . ... ... : ... .. . ... : ... .. . ... ... : ... .. . ... ... ... ...
ROW 45 : ... .. . ... ... : ... .. . ... ... : ... .. . ... ... : ... .. . ... : ... .. . ... ... : ... .. . ... ... ... ...
ROW 46 : ... .. . ... ... : ... .. . ... ... : ... .. . ... ... : ... .. . ... : ... .. . ... ... : ... .. . ... ... ... ...
ROW 47 : ... .. . ... ... : ... .. . ... ... : ... .. . ... ... : ... .. . ... : ... .. . ... ... : ... .. . ... ... ... ...
ROW 48 : ... .. . ... ... : ... .. . ... ... : ... .. . ... ... : ... .. . ... : ... .. . ... ... : ... .. . ... ... ... ...
ROW 49 : ... .. . ... ... : ... .. . ... ... : ... .. . ... ... : ... .. . ... : ... .. . ... ... : ... .. . ... ... ... ...
ROW 4A : ... .. . ... ... : ... .. . ... ... : ... .. . ... ... : ... .. . ... : ... .. . ... ... : ... .. . ... ... ... ...
ROW 4B : ... .. . ... ... : ... .. . ... ... : ... .. . ... ... : ... .. . ... : ... .. . ... ... : ... .. . ... ... ... ...
ROW 4C : ... .. . ... ... : ... .. . ... ... : ... .. . ... ... : ... .. . ... : ... .. . ... ... : ... .. . ... ... ... ...
ROW 4D : ... .. . ... ... : ... .. . ... ... : ... .. . ... ... : ... .. . ... : ... .. . ... ... : ... .. . ... ... ... ...
ROW 4E : ... .. . ... ... : ... .. . ... ... : ... .. . ... ... : ... .. . ... : ... .. . ... ... : ... .. . ... ... ... ...
ROW 4F : ... .. . ... ... : ... .. . ... ... : ... .. . ... ... : ... .. . ... : ... .. . ... ... : ... .. . ... ... ... ...
ROW 50 : ... .. . ... ... : ... .. . ... ... : ... .. . ... ... : ... .. . ... : ... .. . ... ... : ... .. . ... ... ... ...
ROW 51 : ... .. . ... ... : ... .. . ... ... : ... .. . ... ... : ... .. . ... : ... .. . ... ... : ... .. . ... ... ... ...
ROW 52 : ... .. . ... ... : ... .. . ... ... : ... .. . ... ... : ... .. . ... : ... .. . ... ... : ... .. . ... ... ... ...
ROW 53 : ... .. . ... ... : ... .. . ... ... : ... .. . ... ... : ... .. . ... : ... .. . ... ... : ... .. . ... ... ... ...
ROW 54 : ... .. . ... ... : ... .. . ... ... : ... .. . ... ... : ... .. . ... : ... .. . ... ... : ... .. . ... ... ... ...
ROW 55 : ... .. . ... ... : ... .. . ... ... : ... .. . ... ... : ... .. . ... : ... .. . ... ... : ... .. . ... ... ... ...
ROW 56 : ... .. . ... ... : ... .. . ... ... : ... .. . ... ... : ... .. . ... : ... .. . ... ... : ... .. . ... ... ... ...
ROW 57 : ... .. . ... ... : ... .. . ... ... : ... .. . ... ... : ... .. . ... : ... .. . ... ... : ... .. . ... ... ... ...
ROW 58 : ... .. . ... ... : ... .. . ... ... : ... .. . ... ... : ... .. . ... : ... .. . ... ... : ... .. . ... ... ... ...
ROW 59 : ... .. . ... ... : ... .. . ... ... : ... .. . ... ... : ... .. . ... : ... .. . ... ... : ... .. . ... ... ... ...
ROW 5A : ... .. . ... ... : ... .. . ... ... : ... .. . ... ... : ... .. . ... : ... .. . ... ... : ... .. . ... ... ... ...
ROW 5B : ... .. . ... ... : ... .. . ... ... : ... .. . ... ... : ... .. . ... : ... .. . ... ... : ... .. . ... ... ... ...
ROW 5C : ... .. . ... ... : ... .. . ... ... : ... .. . ... ... : ... .. . ... : ... .. . ... ... : ... .. . ... ... ... ...
ROW 5D : ... .. . ... ... : ... .. . ... ... : ... .. . ... ... : ... .. . ... : ... .. . ... ... : ... .. . ... ... ... ...
ROW 5E : ... .. . ... ... : ... .. . ... ... : ... .. . ... ... : ... .. . ... : ... .. . ... ... : ... .. . ... ... ... ...
ROW 5F : ... .. . ... ... : ... .. . ... ... : ... .. . ... ... : ... .. . ... : ... .. . ... ... : ... .. . ... ... ... ...
ROW 60 : ... .. . ... ... : ... .. . ... ... : ... .. . ... ... : ... .. . ... : ... .. . ... ... : ... .. . ... ... ... ...
ROW 61 : ... .. . ... ... : ... .. . ... ... : ... .. . ... ... : ... .. . ... : ... .. . ... ... : ... .. . ... ... ... ...
ROW 62 : ... .. . ... ... : ... .. . ... ... : ... .. . ... ... : ... .. . ... : ... .. . ... ... : ... .. . ... ... ... ...
ROW 63 : ... .. . ... ... : ... .. . ... ... : ... .. . ... ... : ... .. . ... : ... .. . ... ... : ... .. . ... ... ... ...
ROW 64 : ... .. . ... ... : ... .. . ... ... : ... .. . ... ... : ... .. . ... : ... .. . ... ... : ... .. . ... ... ... ...
ROW 65 : ... .. . ... ... : ... .. . ... ... : ... .. . ... ... : ... .. . ... : ... .. . ... ... : ... .. . ... ... ... ...
ROW 66 : ... .. . ... ... : ... .. . ... ... : ... .. . ... ... : ... .. . ... : ... .. . ... ... : ... .. . ... ... ... ...
ROW 67 : ... .. . ... ... : ... .. . ... ... : ... .. . ... ... : ... .. . ... : ... .. . ... ... : ... .. . ... ... ... ...
ROW 68 : ... .. . ... ... : ... .. . ... ... : ... .. . ... ... : ... .. . ... : ... .. . ... ... : ... .. . ... ... ... ...
ROW 69 : ... .. . ... ... : ... .. . ... ... : ... .. . ... ... : ... .. . ... : ... .. . ... ... : ... .. . ... ... ... ...
ROW 6A : ... .. . ... ... : ... .. . ... ... : ... .. . ... ... : ... .. . ... : ... .. . ... ... : ... .. . ... ... ... ...
ROW 6B : ... .. . ... ... : ... .. . ... ... : ... .. . ... ... : ... .. . ... : ... .. . ... ... : ... .. . ... ... ... ...
ROW 6C : ... .. . ... ... : ... .. . ... ... : ... .. . ... ... : ... .. . ... : ... .. . ... ... : ... .. . ... ... ... ...
ROW 6D : ... .. . ... ... : ... .. . ... ... : ... .. . ... ... : ... .. . ... : ... .. . ... ... : ... .. . ... ... ... ...
ROW 6E : ... .. . ... ... : ... .. . ... ... : ... .. . ... ... : ... .. . ... : ... .. . ... ... : ... .. . ... ... ... ...
ROW 6F : ... .. . ... ... : ... .. . ... ... : ... .. . ... ... : ... .. . ... : ... .. . ... ... : ... .. . ... ... ... ...
ROW 70 : ... .. . ... ... : ... .. . ... ... : ... .. . ... ... : ... .. . ... : ... .. . ... ... : ... .. . ... ... ... ...
ROW 71 : ... .. . ... ... : ... .. . ... ... : ... .. . ... ... : ... .. . ... : ... .. . ... ... : ... .. . ... ... ... ...
ROW 72 : ... .. . ... ... : ... .. . ... ... : ... .. . ... ... : ... .. . ... : ... .. . ... ... : ... .. . ... ... ... ...
ROW 73 : ... .. . ... ... : ... .. . ... ... : ... .. . ... ... : ... .. . ... : ... .. . ... ... : ... .. . ... ... ... ...
ROW 74 : ... .. . ... ... : ... .. . ... ... : ... .. . ... ... : ... .. . ... : ... .. . ... ... : ... .. . ... ... ... ...
ROW 75 : ... .. . ... ... : ... .. . ... ... : ... .. . ... ... : ... .. . ... : ... .. . ... ... : ... .. . ... ... ... ...
ROW 76 : ... .. . ... ... : ... .. . ... ... : ... .. . ... ... : ... .. . ... : ... .. . ... ... : ... .. . ... ... ... ...
ROW 77 : ... .. . ... ... : ... .. . ... ... : ... .. . ... ... : ... .. . ... : ... .. . ... ... : ... .. . ... ... ... ...
ROW 78 : ... .. . ... ... : ... .. . ... ... : ... .. . ... ... : ... .. . ... : ... .. . ... ... : ... .. . ... ... ... ...
ROW 79 : ... .. . ... ... : ... .. . ... ... : ... .. . ... ... : ... .. . ... : ... .. . ... ... : ... .. . ... ... ... ...
ROW 7A : ... .. . ... ... : ... .. . ... ... : ... .. . ... ... : ... .. . ... : ... .. . ... ... : ... .. . ... ... ... ...
ROW 7B : ... .. . ... ... : ... .. . ... ... : ... .. . ... ... : ... .. . ... : ... .. . ... ... : ... .. . ... ... ... ...
ROW 7C : ... .. . ... ... : ... .. . ... ... : ... .. . ... ... : ... .. . ... : ... .. . ... ... : ... .. . ... ... ... ...
ROW 7D : ... .. . ... ... : ... .. . ... ... : ... .. . ... ... : ... .. . ... : ... .. . ... ... : ... .. . ... ... ... ...
ROW 7E : ... .. . ... ... : ... .. . ... ... : ... .. . ... ... : ... .. . ... : ... .. . ... ... : ... .. . ... ... ... ...
ROW 7F : ... .. . ... ... : ... .. . ... ... : ... .. . ... ... : ... .. . ... : ... .. . ... ... : ... .. . ... ... ... ...
ROW 80 : ... .. . ... ... : ... .. . ... ... : ... .. . ... ... : ... .. . ... : ... .. . ... ... : ... .. . ... ... ... ...
ROW 81 : ... .. . ... ... : ... .. . ... ... : ... .. . ... ... : ... .. . ... : ... .. . ... ... : ... .. . ... ... ... ...
ROW 82 : ... .. . ... ... : ... .. . ... ... : ... .. . ... ... : ... .. . ... : ... .. . ... ... : ... .. . ... ... ... ...
ROW 83 : ... .. . ... ... : ... .. . ... ... : ... .. . ... ... : ... .. . ... : ... .. . ... ... : ... .. . ... ... ... ...
ROW 84 : ... .. . ... ... : ... .. . ... ... : ... .. . ... ... : ... .. . ... : ... .. . ... ... : ... .. . ... ... ... ...
ROW 85 : ... .. . ... ... : ... .. . ... ... : ... .. . ... ... : ... .. . ... : ... .. . ... ... : ... .. . ... ... ... ...
ROW 86 : ... .. . ... ... : ... .. . ... ... : ... .. . ... ... : ... .. . ... : ... .. . ... ... : ... .. . ... ... ... ...
ROW 87 : ... .. . ... ... : ... .. . ... ... : ... .. . ... ... : ... .. . ... : ... .. . ... ... : ... .. . ... ... ... ...
ROW 88 : ... .. . ... ... : ... .. . ... ... : ... .. . ... ... : ... .. . ... : ... .. . ... ... : ... .. . ... ... ... ...
ROW 89 : ... .. . ... ... : ... .. . ... ... : ... .. . ... ... : ... .. . ... : ... .. . ... ... : ... .. . ... ... ... ...
ROW 8A : ... .. . ... ... : ... .. . ... ... : ... .. . ... ... : ... .. . ... : ... .. . ... ... : ... .. . ... ... ... ...
ROW 8B : ... .. . ... ... : ... .. . ... ... : ... .. . ... ... : ... .. . ... : ... .. . ... ... : ... .. . ... ... ... ...
ROW 8C : ... .. . ... ... : ... .. . ... ... : ... .. . ... ... : ... .. . ... : ... .. . ... ... : ... .. . ... ... ... ...
ROW 8D : ... .. . ... ... : ... .. . ... ... : ... .. . ... ... : ... .. . ... : ... .. . ... ... : ... .. . ... ... ... ...
ROW 8E : ... .. . ... ... : ... .. . ... ... : ... .. . ... ... : ... .. . ... : ... .. . ... ... : ... .. . ... ... ... ...
ROW 8F : ... .. . ... ... : ... .. . ... ... : ... .. . ... ... : ... .. . ... : ... .. . ... ... : ... .. . ... ... ... ...
ROW 90 : ... .. . ... ... : ... .. . ... ... : ... .. . ... ... : ... .. . ... : ... .. . ... ... : ... .. . ... ... ... ...
ROW 91 : ... .. . ... ... : ... .. . ... ... : ... .. . ... ... : ... .. . ... : ... .. . ... ... : ... .. . ... ... ... ...
ROW 92 : ... .. . ... ... : ... .. . ... ... : ... .. . ... ... : ... .. . ... : ... .. . ... ... : ... .. . ... ... ... ...
ROW 93 : ... .. . ... ... : ... .. . ... ... : ... .. . ... ... : ... .. . ... : ... .. . ... ... : ... .. . ... ... ... ...
ROW 94 : ... .. . ... ... : ... .. . ... ... : ... .. . ... ... : ... .. . ... : ... .. . ... ... : ... .. . ... ... ... ...
ROW 95 : ... .. . ... ... : ... .. . ... ... : ... .. . ... ... : ... .. . ... : ... .. . ... ... : ... .. . ... ... ... ...
ROW 96 : ... .. . ... ... : ... .. . ... ... : ... .. . ... ... : ... .. . ... : ... .. . ... ... : ... .. . ... ... ... ...
ROW 97 : ... .. . ... ... : ... .. . ... ... : ... .. . ... ... : ... .. . ... : ... .. . ... ... : ... .. . ... ... ... ...
ROW 98 : ... .. . ... ... : ... .. . ... ... : ... .. . ... ... : ... .. . ... : ... .. . ... ... : ... .. . ... ... ... ...
ROW 99 : ... .. . ... ... : ... .. . ... ... : ... .. . ... ... : ... .. . ... : ... .. . ... ... : ... .. . ... ... ... ...
ROW 9A : ... .. . ... ... : ... .. . ... ... : ... .. . ... ... : ... .. . ... : ... .. . ... ... : ... .. . ... ... ... ...
ROW 9B : ... .. . ... ... : ... .. . ... ... : ... .. . ... ... : ... .. . ... : ... .. . ... ... : ... .. . ... ... ... ...
ROW 9C : ... .. . ... ... : ... .. . ... ... : ... .. . ... ... : ... .. . ... : ... .. . ... ... : ... .. . ... ... ... ...
ROW 9D : ... .. . ... ... : ... .. . ... ... : ... .. . ... ... : ... .. . ... : ... .. . ... ... : ... .. . ... ... ... ...
ROW 9E : ... .. . ... ... : ... .. . ... ... : ... .. . ... ... : ... .. . ... : ... .. . ... ... : ... .. . ... ... ... ...
ROW 9F : ... .. . ... ... : ... .. . ... ... : ... .. . ... ... : ... .. . ... : ... .. . ... ... : ... .. . ... ... ... ...
ROW A0 : ... .. . ... ... : ... .. . ... ... : ... .. . ... ... : ... .. . ... : ... .. . ... ... : ... .. . ... ... ... ...
ROW A1 : ... .. . ... ... : ... .. . ... ... : ... .. . ... ... : ... .. . ... : ... .. . ... ... : ... .. . ... ... ... ...
ROW A2 : ... .. . ... ... : ... .. . ... ... : ... .. . ... ... : ... .. . ... : ... .. . ... ... : ... .. . ... ... ... ...
ROW A3 : ... .. . ... ... : ... .. . ... ... : ... .. . ... ... : ... .. . ... : ... .. . ... ... : ... .. . ... ... ... ...
ROW A4 : ... .. . ... ... : ... .. . ... ... : ... .. . ... ... : ... .. . ... : ... .. . ... ... : ... .. . ... ... ... ...
ROW A5 : ... .. . ... ... : ... .. . ... ... : ... .. . ... ... : ... .. . ... : ... .. . ... ... : ... .. . ... ... ... ...
ROW A6 : ... .. . ... ... : ... .. . ... ... : ... .. . ... ... : ... .. . ... : ... .. . ... ... : ... .. . ... ... ... ...
ROW A7 : ... .. . ... ... : ... .. . ... ... : ... .. . ... ... : ... .. . ... : ... .. . ... ... : ... .. . ... ... ... ...
ROW A8 : ... .. . ... ... : ... .. . ... ... : ... .. . ... ... : ... .. . ... : ... .. . ... ... : ... .. . ... ... ... ...
ROW A9 : ... .. . ... ... : ... .. . ... ... : ... .. . ... ... : ... .. . ... : ... .. . ... ... : ... .. . ... ... ... ...
ROW AA : ... .. . ... ... : ... .. . ... ... : ... .. . ... ... : ... .. . ... : ... .. . ... ... : ... .. . ... ... ... ...
ROW AB : ... .. . ... ... : ... .. . ... ... : ... .. . ... ... : ... .. . ... : ... .. . ... ... : ... .. . ... ... ... ...
ROW AC : ... .. . ... ... : ... .. . ... ... : ... .. . ... ... : ... .. . ... : ... .. . ... ... : ... .. . ... ... ... ...
ROW AD : ... .. . ... ... : ... .. . ... ... : ... .. . ... ... : ... .. . ... : ... .. . ... ... : ... .. . ... ... ... ...
ROW AE : ... .. . ... ... : ... .. . ... ... : ... .. . ... ... : ... .. . ... : ... .. . ... ... : ... .. . ... ... ... ...
ROW AF : ... .. . ... ... : ... .. . ... ... : ... .. . ... ... : ... .. . ... : ... .. . ... ... : ... .. . ... ... ... ...
ROW B0 : ... .. . ... ... : ... .. . ... ... : ... .. . ... ... : ... .. . ... : ... .. . ... ... : ... .. . ... ... ... ...
ROW B1 : ... .. . ... ... : ... .. . ... ... : ... .. . ... ... : ... .. . ... : ... .. . ... ... : ... .. . ... ... ... ...
ROW B2 : ... .. . ... ... : ... .. . ... ... : ... .. . ... ... : ... .. . ... : ... .. . ... ... : ... .. . ... ... ... ...
ROW B3 : ... .. . ... ... : ... .. . ... ... : ... .. . ... ... : ... .. . ... : ... .. . ... ... : ... .. . ... ... ... ...
ROW B4 : ... .. . ... ... : ... .. . ... ... : ... .. . ... ... : ... .. . ... : ... .. . ... ... : ... .. . ... ... ... ...
ROW B5 : ... .. . ... ... : ... .. . ... ... : ... .. . ... ... : ... .. . ... : ... .. . ... ... : ... .. . ... ... ... ...
ROW B6 : ... .. . ... ... : ... .. . ... ... : ... .. . ... ... : ... .. . ... : ... .. . ... ... : ... .. . ... ... ... ...
ROW B7 : ... .. . ... ... : ... .. . ... ... : ... .. . ... ... : ... .. . ... : ... .. . ... ... : ... .. . ... ... ... ...
ROW B8 : ... .. . ... ... : ... .. . ... ... : ... .. . ... ... : ... .. . ... : ... .. . ... ... : ... .. . ... ... ... ...
ROW B9 : ... .. . ... ... : ... .. . ... ... : ... .. . ... ... : ... .. . ... : ... .. . ... ... : ... .. . ... ... ... ...
ROW BA : ... .. . ... ... : ... .. . ... ... : ... .. . ... ... : ... .. . ... : ... .. . ... ... : ... .. . ... ... ... ...
ROW BB : ... .. . ... ... : ... .. . ... ... : ... .. . ... ... : ... .. . ... : ... .. . ... ... : ... .. . ... ... ... ...
ROW BC : ... .. . ... ... : ... .. . ... ... : ... .. . ... ... : ... .. . ... : ... .. . ... ... : ... .. . ... ... ... ...
ROW BD : ... .. . ... ... : ... .. . ... ... : ... .. . ... ... : ... .. . ... : ... .. . ... ... : ... .. . ... ... ... ...
ROW BE : ... .. . ... ... : ... .. . ... ... : ... .. . ... ... : ... .. . ... : ... .. . ... ... : ... .. . ... ... ... ...
ROW BF : ... .. . ... ... : ... .. . ... ... : ... .. . ... ... : ... .. . ... : ... .. . ... ... : ... .. . ... ... ... ...
ROW C0 : ... .. . ... ... : ... .. . ... ... : ... .. . ... ... : ... .. . ... : ... .. . ... ... : ... .. . ... ... ... ...
ROW C1 : ... .. . ... ... : ... .. . ... ... : ... .. . ... ... : ... .. . ... : ... .. . ... ... : ... .. . ... ... ... ...
ROW C2 : ... .. . ... ... : ... .. . ... ... : ... .. . ... ... : ... .. . ... : ... .. . ... ... : ... .. . ... ... ... ...
ROW C3 : ... .. . ... ... : ... .. . ... ... : ... .. . ... ... : ... .. . ... : ... .. . ... ... : ... .. . ... ... ... ...
ROW C4 : ... .. . ... ... : ... .. . ... ... : ... .. . ... ... : ... .. . ... : ... .. . ... ... : ... .. . ... ... ... ...
ROW C5 : ... .. . ... ... : ... .. . ... ... : ... .. . ... ... : ... .. . ... : ... .. . ... ... : ... .. . ... ... ... ...
ROW C6 : ... .. . ... ... : ... .. . ... ... : ... .. . ... ... : ... .. . ... : ... .. . ... ... : ... .. . ... ... ... ...
ROW C7 : ... .. . ... ... : ... .. . ... ... : ... .. . ... ... : ... .. . ... : ... .. . ... ... : ... .. . ... ... ... ...
ROW C8 : ... .. . ... ... : ... .. . ... ... : ... .. . ... ... : ... .. . ... : ... .. . ... ... : ... .. . ... ... ... ...
ROW C9 : ... .. . ... ... : ... .. . ... ... : ... .. . ... ... : ... .. . ... : ... .. . ... ... : ... .. . ... ... ... ...
ROW CA : ... .. . ... ... : ... .. . ... ... : ... .. . ... ... : ... .. . ... : ... .. . ... ... : ... .. . ... ... ... ...
ROW CB : ... .. . ... ... : ... .. . ... ... : ... .. . ... ... : ... .. . ... : ... .. . ... ... : ... .. . ... ... ... ...
ROW CC : ... .. . ... ... : ... .. . ... ... : ... .. . ... ... : ... .. . ... : ... .. . ... ... : ... .. . ... ... ... ...
ROW CD : ... .. . ... ... : ... .. . ... ... : ... .. . ... ... : ... .. . ... : ... .. . ... ... : ... .. . ... ... ... ...
ROW CE : ... .. . ... ... : ... .. . ... ... : ... .. . ... ... : ... .. . ... : ... .. . ... ... : ... .. . ... ... ... ...
ROW CF : ... .. . ... ... : ... .. . ... ... : ... .. . ... ... : ... .. . ... : ... .. . ... ... : ... .. . ... ... ... ...
ROW D0 : ... .. . ... ... : ... .. . ... ... : ... .. . ... ... : ... .. . ... : ... .. . ... ... : ... .. . ... ... ... ...
ROW D1 : ... .. . ... ... : ... .. . ... ... : ... .. . ... ... : ... .. . ... : ... .. . ... ... : ... .. . ... ... ... ...
ROW D2 : ... .. . ... ... : ... .. . ... ... : ... .. . ... ... : ... .. . ... : ... .. . ... ... : ... .. . ... ... ... ...
ROW D3 : ... .. . ... ... : ... .. . ... ... : ... .. . ... ... : ... .. . ... : ... .. . ... ... : ... .. . ... ... ... ...
ROW D4 : ... .. . ... ... : ... .. . ... ... : ... .. . ... ... : ... .. . ... : ... .. . ... ... : ... .. . ... ... ... ...
ROW D5 : ... .. . ... ... : ... .. . ... ... : ... .. . ... ... : ... .. . ... : ... .. . ... ... : ... .. . ... ... ... ...
ROW D6 : ... .. . ... ... : ... .. . ... ... : ... .. . ... ... : ... .. . ... : ... .. . ... ... : ... .. . ... ... ... ...
ROW D7 : ... .. . ... ... : ... .. . ... ... : ... .. . ... ... : ... .. . ... : ... .. . ... ... : ... .. . ... ... ... ...
ROW D8 : ... .. . ... ... : ... .. . ... ... : ... .. . ... ... : ... .. . ... : ... .. . ... ... : ... .. . ... ... ... ...
ROW D9 : ... .. . ... ... : ... .. . ... ... : ... .. . ... ... : ... .. . ... : ... .. . ... ... : ... .. . ... ... ... ...
ROW DA : ... .. . ... ... : ... .. . ... ... : ... .. . ... ... : ... .. . ... : ... .. . ... ... : ... .. . ... ... ... ...
ROW DB : ... .. . ... ... : ... .. . ... ... : ... .. . ... ... : ... .. . ... : ... .. . ... ... : ... .. . ... ... ... ...
ROW DC : ... .. . ... ... : ... .. . ... ... : ... .. . ... ... : ... .. . ... : ... .. . ... ... : ... .. . ... ... ... ...
ROW DD : ... .. . ... ... : ... .. . ... ... : ... .. . ... ... : ... .. . ... : ... .. . ... ... : ... .. . ... ... ... ...
ROW DE : ... .. . ... ... : ... .. . ... ... : ... .. . ... ... : ... .. . ... : ... .. . ... ... : ... .. . ... ... ... ...
ROW DF : ... .. . ... ... : ... .. . ... ... : ... .. . ... ... : ... .. . ... : ... .. . ... ... : ... .. . ... ... ... ...
ROW E0 : ... .. . ... ... : ... .. . ... ... : ... .. . ... ... : ... .. . ... : ... .. . ... ... : ... .. . ... ... ... ...
ROW E1 : ... .. . ... ... : ... .. . ... ... : ... .. . ... ... : ... .. . ... : ... .. . ... ... : ... .. . ... ... ... ...
ROW E2 : ... .. . ... ... : ... .. . ... ... : ... .. . ... ... : ... .. . ... : ... .. . ... ... : ... .. . ... ... ... ...
ROW E3 : ... .. . ... ... : ... .. . ... ... : ... .. . ... ... : ... .. . ... : ... .. . ... ... : ... .. . ... ... ... ...
ROW E4 : ... .. . ... ... : ... .. . ... ... : ... .. . ... ... : ... .. . ... : ... .. . ... ... : ... .. . ... ... ... ...
ROW E5 : ... .. . ... ... : ... .. . ... ... : ... .. . ... ... : ... .. . ... : ... .. . ... ... : ... .. . ... ... ... ...
ROW E6 : ... .. . ... ... : ... .. . ... ... : ... .. . ... ... : ... .. . ... : ... .. . ... ... : ... .. . ... ... ... ...
ROW E7 : ... .. . ... ... : ... .. . ... ... : ... .. . ... ... : ... .. . ... : ... .. . ... ... : ... .. . ... ... ... ...
ROW E8 : ... .. . ... ... : ... .. . ... ... : ... .. . ... ... : ... .. . ... : ... .. . ... ... : ... .. . ... ... ... ...
ROW E9 : ... .. . ... ... : ... .. . ... ... : ... .. . ... ... : ... .. . ... : ... .. . ... ... : ... .. . ... ... ... ...
ROW EA : ... .. . ... ... : ... .. . ... ... : ... .. . ... ... : ... .. . ... : ... .. . ... ... : ... .. . ... ... ... ...
ROW EB : ... .. . ... ... : ... .. . ... ... : ... .. . ... ... : ... .. . ... : ... .. . ... ... : ... .. . ... ... ... ...
ROW EC : ... .. . ... ... : ... .. . ... ... : ... .. . ... ... : ... .. . ... : ... .. . ... ... : ... .. . ... ... ... ...
ROW ED : ... .. . ... ... : ... .. . ... ... : ... .. . ... ... : ... .. . ... : ... .. . ... ... : ... .. . ... ... ... ...
ROW EE : ... .. . ... ... : ... .. . ... ... : ... .. . ... ... : ... .. . ... : ... .. . ... ... : ... .. . ... ... ... ...
ROW EF : ... .. . ... ... : ... .. . ... ... : ... .. . ... ... : ... .. . ... : ... .. . ... ... : ... .. . ... ... ... ...
ROW F0 : ... .. . ... ... : ... .. . ... ... : ... .. . ... ... : ... .. . ... : ... .. . ... ... : ... .. . ... ... ... ...
ROW F1 : ... .. . ... ... : ... .. . ... ... : ... .. . ... ... : ... .. . ... : ... .. . ... ... : ... .. . ... ... ... ...
ROW F2 : ... .. . ... ... : ... .. . ... ... : ... .. . ... ... : ... .. . ... : ... .. . ... ... : ... .. . ... ... ... ...
ROW F3 : ... .. . ... ... : ... .. . ... ... : ... .. . ... ... : ... .. . ... : ... .. . ... ... : ... .. . ... ... ... ...
ROW F4 : ... .. . ... ... : ... .. . ... ... : ... .. . ... ... : ... .. . ... : ... .. . ... ... : ... .. . ... ... ... ...
ROW F5 : ... .. . ... ... : ... .. . ... ... : ... .. . ... ... : ... .. . ... : ... .. . ... ... : ... .. . ... ... ... ...
ROW F6 : ... .. . ... ... : ... .. . ... ... : ... .. . ... ... : ... .. . ... : ... .. . ... ... : ... .. . ... ... ... ...
ROW F7 : ... .. . ... ... : ... .. . ... ... : ... .. . ... ... : ... .. . ... : ... .. . ... ... : ... .. . ... ... ... ...
ROW F8 : ... .. . ... ... : ... .. . ... ... : ... .. . ... ... : ... .. . ... : ... .. . ... ... : ... .. . ... ... ... ...
ROW F9 : ... .. . ... ... : ... .. . ... ... : ... .. . ... ... : ... .. . ... : ... .. . ... ... : ... .. . ... ... ... ...
ROW FA : ... .. . ... ... : ... .. . ... ... : ... .. . ... ... : ... .. . ... : ... .. . ... ... : ... .. . ... ... ... ...
ROW FB : ... .. . ... ... : ... .. . ... ... : ... .. . ... ... : ... .. . ... : ... .. . ... ... : ... .. . ... ... ... ...
ROW FC : ... .. . ... ... : ... .. . ... ... : ... .. . ... ... : ... .. . ... : ... .. . ... ... : ... .. . ... ... ... ...
ROW FD : ... .. . ... ... : ... .. . ... ... : ... .. . ... ... : ... .. . ... : ... .. . ... ... : ... .. . ... ... ... ...
ROW FE : ... .. . ... ... : ... .. . ... ... : ... .. . ... ... : ... .. . ... : ... .. . ... ... : ... .. . ... ... ... ...
ROW FF : ... .. . ... ... : ... .. . ... ... : ... .. . ... ... : ... .. . ... : ... .. . ... ... : ... .. . ... ... ... ...

PATTERN 20
ROW 00 : ... .. . ... ... : C-4 21 8 ... ... : A-3 03 . 236 ... : ... .. . ... : ... .. . ... ... : A-4 1D E 400 ... ... ...
ROW 01 : ... .. . ... ... : ... .. 7 ... ... : ... .. . ... ... : ... .. . ... : ... .. . ... ... : ... .. . ... ... ... ...
ROW 02 : ... .. . ... ... : ... .. 6 ... ... : A-2 11 . G02 200 : ... .. . ... : ... .. . ... ... : ... .. . ... ... ... ...
ROW 03 : ... .. . ... ... : ... .. 5 ... ... : ... .. . ... ... : ... .. . ... : ... .. . ... ... : ... .. . ... ... ... ...
ROW 04 : ... .. . ... ... : ... .. 4 ... ... : ... .. . S04 ... : ... .. . ... : ... .. . ... ... : ... .. . ... ... ... ...
ROW 05 : ... .. . ... ... : ... .. 3 ... ... : A-2 11 . G01 ... : ... .. . ... : ... .. . ... ... : ... .. . ... ... ... ...
ROW 06 : ... .. . ... ... : ... .. 2 ... ... : ... .. . ... ... : ... .. . ... : ... .. . ... ... : ... .. . ... ... ... ...
ROW 07 : ... .. . ... ... : ... .. 1 ... ... : ... .. . S03 ... : ... .. . ... : ... .. . ... ... : ... .. . ... ... ... ...
ROW 08 : ... .. . ... ... : C-4 21 8 ... ... : A-3 03 . 236 ... : ... .. . ... : ... .. . ... ... : ... .. D 468 ... ... ...
ROW 09 : ... .. . ... ... : ... .. 4 ... ... : ... .. . ... ... : ... .. . ... : ... .. . ... ... : ... .. C ... ... ... ...
ROW 0A : ... .. . ... ... : C-4 21 8 G02 ... : A-3 03 . G02 ... : ... .. . ... : ... .. . ... ... : ... .. B ... ... ... ...
ROW 0B : ... .. . ... ... : ... .. . ... ... : ... .. . ... ... : ... .. . ... : ... .. . ... ... : ... .. A ... ... ... ...
ROW 0C : ... .. . ... ... : ... .. 4 ... ... : ... .. . ... ... : ... .. . ... : ... .. . ... ... : ... .. 9 ... ... ... ...
ROW 0D : ... .. . ... ... : C-4 21 8 G01 ... : A-3 03 . G01 ... : ... .. . ... : ... .. . ... ... : ... .. 8 ... ... ... ...
ROW 0E : ... .. . ... ... : ... .. . ... ... : ... .. . ... ... : ... .. . ... : ... .. . ... ... : ... .. 7 ... ... ... ...
ROW 0F : ... .. . ... ... : ... .. 4 ... ... : ... .. . ... ... : ... .. . ... : ... .. . ... ... : ... .. 6 ... ... ... ...
ROW 10 : ... .. . ... ... : D-4 21 8 ... ... : A-3 03 . ... ... : ... .. . ... : ... .. . ... ... : A-5 1D E 400 ... ... ...
ROW 11 : ... .. . ... ... : ... .. 7 ... ... : ... .. . ... ... : ... .. . ... : ... .. . ... ... : ... .. . ... ... ... ...
ROW 12 : ... .. . ... ... : ... .. 6 ... ... : A-2 11 . 200 G02 : ... .. . ... : ... .. . ... ... : ... .. . ... ... ... ...
ROW 13 : ... .. . ... ... : ... .. 5 ... ... : ... .. . ... ... : ... .. . ... : ... .. . ... ... : ... .. . ... ... ... ...
ROW 14 : ... .. . ... ... : ... .. 4 ... ... : ... .. . S04 ... : ... .. . ... : ... .. . ... ... : ... .. . ... ... ... ...
ROW 15 : ... .. . ... ... : ... .. 3 ... ... : A-2 11 . G01 ... : ... .. . ... : ... .. . ... ... : ... .. . ... ... ... ...
ROW 16 : ... .. . ... ... : ... .. 2 ... ... : ... .. . ... ... : ... .. . ... : ... .. . ... ... : ... .. . ... ... ... ...
ROW 17 : ... .. . ... ... : ... .. 1 ... ... : ... .. . S03 ... : ... .. . ... : ... .. . ... ... : ... .. . ... ... ... ...
ROW 18 : ... .. . ... ... : D-4 21 8 ... ... : A-3 03 . 236 ... : ... .. . ... : ... .. . ... ... : ... .. D 468 ... ... ...
ROW 19 : ... .. . ... ... : ... .. 7 ... ... : ... .. . ... ... : ... .. . ... : ... .. . ... ... : ... .. C ... ... ... ...
ROW 1A : ... .. . ... ... : ... .. 6 ... ... : A-2 11 . G02 200 : ... .. . ... : ... .. . ... ... : ... .. B ... ... ... ...
ROW 1B : ... .. . ... ... : ... .. 5 ... ... : ... .. . ... ... : ... .. . ... : ... .. . ... ... : ... .. A ... ... ... ...
ROW 1C : ... .. . ... ... : ... .. 4 ... ... : ... .. . S04 ... : ... .. . ... : ... .. . ... ... : ... .. 9 ... ... ... ...
ROW 1D : ... .. . ... ... : ... .. 3 ... ... : A-3 11 . G01 ... : ... .. . ... : ... .. . ... ... : ... .. 8 ... ... ... ...
ROW 1E : ... .. . ... ... : ... .. 2 ... ... : ... .. . ... ... : ... .. . ... : ... .. . ... ... : ... .. 7 ... ... ... ...
ROW 1F : ... .. . ... ... : ... .. 1 ... ... : ... .. . S03 ... : ... .. . ... : ... .. . ... ... : ... .. 6 ... ... ... ...
ROW 20 : ... .. . ... ... : F-4 1A 8 ... ... : B-3 03 . 236 ... : ... .. . ... : ... .. . ... ... : B-5 1D E 400 ... ... ...
ROW 21 : ... .. . ... ... : ... .. 7 ... ... : ... .. . ... ... : ... .. . ... : ... .. . ... ... : ... .. . ... ... ... ...
ROW 22 : ... .. . ... ... : ... .. 6 ... ... : B-2 11 . G02 200 : ... .. . ... : ... .. . ... ... : ... .. . ... ... ... ...
ROW 23 : ... .. . ... ... : ... .. 5 ... ... : ... .. . ... ... : ... .. . ... : ... .. . ... ... : ... .. . ... ... ... ...
ROW 24 : ... .. . ... ... : ... .. 4 ... ... : ... .. . S04 ... : ... .. . ... : ... .. . ... ... : ... .. D ... ... ... ...
ROW 25 : ... .. . ... ... : ... .. 3 ... ... : B-2 11 . G01 ... : ... .. . ... : ... .. . ... ... : ... .. C 468 ... ... ...
ROW 26 : ... .. . ... ... : ... .. 2 ... ... : ... .. . ... ... : ... .. . ... : ... .. . ... ... : ... .. B ... ... ... ...
ROW 27 : ... .. . ... ... : ... .. 1 ... ... : ... .. . S03 ... : ... .. . ... : ... .. . ... ... : ... .. A ... ... ... ...
ROW 28 : ... .. . ... ... : F-4 1A 8 ... ... : B-3 03 . 236 ... : ... .. . ... : ... .. . ... ... : G-5 1D E 400 ... ... ...
ROW 29 : ... .. . ... ... : ... .. 7 ... ... : ... .. . ... ... : ... .. . ... : ... .. . ... ... : ... .. . ... ... ... ...
ROW 2A : ... .. . ... ... : ... .. 6 ... ... : B-2 11 . G02 200 : ... .. . ... : ... .. . ... ... : ... .. . ... ... ... ...
ROW 2B : ... .. . ... ... : ... .. 5 ... ... : ... .. . ... ... : ... .. . ... : ... .. . ... ... : ... .. . ... ... ... ...
ROW 2C : ... .. . ... ... : F-4 1A 8 ... ... : B-3 03 . 236 ... : ... .. . ... : ... .. . ... ... : ... .. D ... ... ... ...
ROW 2D : ... .. . ... ... : ... .. 7 ... ... : ... .. . ... ... : ... .. . ... : ... .. . ... ... : ... .. C 468 ... ... ...
ROW 2E : ... .. . ... ... : ... .. 6 ... ... : ... .. . ... ... : ... .. . ... : ... .. . ... ... : ... .. B ... ... ... ...
ROW 2F : ... .. . ... ... : ... .. 5 ... ... : ... .. . ... ... : ... .. . ... : ... .. . ... ... : ... .. A ... ... ... ...
ROW 30 : ... .. . ... ... : G-4 1A 8 ... ... : B-3 03 . ... ... : ... .. . ... : ... .. . ... ... : E-5 1D E 400 ... ... ...
ROW 31 : ... .. . ... ... : ... .. 7 ... ... : ... .. . ... ... : ... .. . ... : ... .. . ... ... : ... .. . ... ... ... ...
ROW 32 : ... .. . ... ... : ... .. 6 ... ... : B-2 11 . G02 200 : ... .. . ... : ... .. . ... ... : ... .. . ... ... ... ...
ROW 33 : ... .. . ... ... : ... .. 5 ... ... : ... .. . ... ... : ... .. . ... : ... .. . ... ... : ... .. . ... ... ... ...
ROW 34 : ... .. . ... ... : ... .. 4 ... ... : ... .. . S04 ... : ... .. . ... : ... .. . ... ... : ... .. D ... ... ... ...
ROW 35 : ... .. . ... ... : ... .. 3 ... ... : B-2 11 . G01 ... : ... .. . ... : ... .. . ... ... : ... .. C 468 ... ... ...
ROW 36 : ... .. . ... ... : ... .. 2 ... ... : ... .. . ... ... : ... .. . ... : ... .. . ... ... : ... .. B ... ... ... ...
ROW 37 : ... .. . ... ... : ... .. 1 ... ... : ... .. . S03 ... : ... .. . ... : ... .. . ... ... : ... .. 6 ... ... ... ...
ROW 38 : ... .. . ... ... : ... .. . ... ... : B-2 11 . ... ... : ... .. . ... : ... .. . ... ... : E-5 1D E 400 ... ... ...
ROW 39 : ... .. . ... ... : ... .. . ... ... : ... .. . S05 ... : ... .. . ... : ... .. . ... ... : ... .. . ... ... ... ...
ROW 3A : ... .. . ... ... : ... .. . ... ... : B-2 11 . G02 ... : ... .. . ... : ... .. . ... ... : ... .. D ... ... ... ...
ROW 3B : ... .. . ... ... : ... .. . ... ... : ... .. . ... ... : ... .. . ... : ... .. . ... ... : ... .. C 468 ... ... ...
ROW 3C : ... .. . ... ... : ... .. . ... ... : ... .. . S04 ... : ... .. . ... : ... .. . ... ... : G-5 1D E 400 ... ... ...
ROW 3D : ... .. . ... ... : ... .. . ... ... : B-3 11 . G01 ... : ... .. . ... : ... .. . ... ... : ... .. . ... ... ... ...
ROW 3E : ... .. . ... ... : ... .. . ... ... : ... .. . ... ... : ... .. . ... : ... .. . ... ... : ... .. D ... ... ... ...
ROW 3F : ... .. . ... ... : ... .. . ... ... : ... .. . S03 ... : ... .. . ... : ... .. . ... ... : ... .. C 468 ... ... ...
ROW 40 : ... .. . ... ... : ... .. . ... ... : ... .. . ... ... : ... .. . ... : ... .. . ... ... : ... .. . ... ... ... ...
ROW 41 : ... .. . ... ... : ... .. . ... ... : ... .. . ... ... : ... .. . ... : ... .. . ... ... : ... .. . ... ... ... ...
ROW 42 : ... .. . ... ... : ... .. . ... ... : ... .. . ... ... : ... .. . ... : ... .. . ... ... : ... .. . ... ... ... ...
ROW 43 : ... .. . ... ... : ... .. . ... ... : ... .. . ... ... : ... .. . ... : ... .. . ... ... : ... .. . ... ... ... ...
ROW 44 : ... .. . ... ... : ... .. . ... ... : ... .. . ... ... : ... .. . ... : ... .. . ... ... : ... .. . ... ... ... ...
ROW 45 : ... .. . ... ... : ... .. . ... ... : ... .. . ... ... : ... .. . ... : ... .. . ... ... : ... .. . ... ... ... ...
ROW 46 : ... .. . ... ... : ... .. . ... ... : ... .. . ... ... : ... .. . ... : ... .. . ... ... : ... .. . ... ... ... ...
ROW 47 : ... .. . ... ... : ... .. . ... ... : ... .. . ... ... : ... .. . ... : ... .. . ... ... : ... .. . ... ... ... ...
ROW 48 : ... .. . ... ... : ... .. . ... ... : ... .. . ... ... : ... .. . ... : ... .. . ... ... : ... .. . ... ... ... ...
ROW 49 : ... .. . ... ... : ... .. . ... ... : ... .. . ... ... : ... .. . ... : ... .. . ... ... : ... .. . ... ... ... ...
ROW 4A : ... .. . ... ... : ... .. . ... ... : ... .. . ... ... : ... .. . ... : ... .. . ... ... : ... .. . ... ... ... ...
ROW 4B : ... .. . ... ... : ... .. . ... ... : ... .. . ... ... : ... .. . ... : ... .. . ... ... : ... .. . ... ... ... ...
ROW 4C : ... .. . ... ... : ... .. . ... ... : ... .. . ... ... : ... .. . ... : ... .. . ... ... : ... .. . ... ... ... ...
ROW 4D : ... .. . ... ... : ... .. . ... ... : ... .. . ... ... : ... .. . ... : ... .. . ... ... : ... .. . ... ... ... ...
ROW 4E : ... .. . ... ... : ... .. . ... ... : ... .. . ... ... : ... .. . ... : ... .. . ... ... : ... .. . ... ... ... ...
ROW 4F : ... .. . ... ... : ... .. . ... ... : ... .. . ... ... : ... .. . ... : ... .. . ... ... : ... .. . ... ... ... ...
ROW 50 : ... .. . ... ... : ... .. . ... ... : ... .. . ... ... : ... .. . ... : ... .. . ... ... : ... .. . ... ... ... ...
ROW 51 : ... .. . ... ... : ... .. . ... ... : ... .. . ... ... : ... .. . ... : ... .. . ... ... : ... .. . ... ... ... ...
ROW 52 : ... .. . ... ... : ... .. . ... ... : ... .. . ... ... : ... .. . ... : ... .. . ... ... : ... .. . ... ... ... ...
ROW 53 : ... .. . ... ... : ... .. . ... ... : ... .. . ... ... : ... .. . ... : ... .. . ... ... : ... .. . ... ... ... ...
ROW 54 : ... .. . ... ... : ... .. . ... ... : ... .. . ... ... : ... .. . ... : ... .. . ... ... : ... .. . ... ... ... ...
ROW 55 : ... .. . ... ... : ... .. . ... ... : ... .. . ... ... : ... .. . ... : ... .. . ... ... : ... .. . ... ... ... ...
ROW 56 : ... .. . ... ... : ... .. . ... ... : ... .. . ... ... : ... .. . ... : ... .. . ... ... : ... .. . ... ... ... ...
ROW 57 : ... .. . ... ... : ... .. . ... ... : ... .. . ... ... : ... .. . ... : ... .. . ... ... : ... .. . ... ... ... ...
ROW 58 : ... .. . ... ... : ... .. . ... ... : ... .. . ... ... : ... .. . ... : ... .. . ... ... : ... .. . ... ... ... ...
ROW 59 : ... .. . ... ... : ... .. . ... ... : ... .. . ... ... : ... .. . ... : ... .. . ... ... : ... .. . ... ... ... ...
ROW 5A : ... .. . ... ... : ... .. . ... ... : ... .. . ... ... : ... .. . ... : ... .. . ... ... : ... .. . ... ... ... ...
ROW 5B : ... .. . ... ... : ... .. . ... ... : ... .. . ... ... : ... .. . ... : ... .. . ... ... : ... .. . ... ... ... ...
ROW 5C : ... .. . ... ... : ... .. . ... ... : ... .. . ... ... : ... .. . ... : ... .. . ... ... : ... .. . ... ... ... ...
ROW 5D : ... .. . ... ... : ... .. . ... ... : ... .. . ... ... : ... .. . ... : ... .. . ... ... : ... .. . ... ... ... ...
ROW 5E : ... .. . ... ... : ... .. . ... ... : ... .. . ... ... : ... .. . ... : ... .. . ... ... : ... .. . ... ... ... ...
ROW 5F : ... .. . ... ... : ... .. . ... ... : ... .. . ... ... : ... .. . ... : ... .. . ... ... : ... .. . ... ... ... ...
ROW 60 : ... .. . ... ... : ... .. . ... ... : ... .. . ... ... : ... .. . ... : ... .. . ... ... : ... .. . ... ... ... ...
ROW 61 : ... .. . ... ... : ... .. . ... ... : ... .. . ... ... : ... .. . ... : ... .. . ... ... : ... .. . ... ... ... ...
ROW 62 : ... .. . ... ... : ... .. . ... ... : ... .. . ... ... : ... .. . ... : ... .. . ... ... : ... .. . ... ... ... ...
ROW 63 : ... .. . ... ... : ... .. . ... ... : ... .. . ... ... : ... .. . ... : ... .. . ... ... : ... .. . ... ... ... ...
ROW 64 : ... .. . ... ... : ... .. . ... ... : ... .. . ... ... : ... .. . ... : ... .. . ... ... : ... .. . ... ... ... ...
ROW 65 : ... .. . ... ... : ... .. . ... ... : ... .. . ... ... : ... .. . ... : ... .. . ... ... : ... .. . ... ... ... ...
ROW 66 : ... .. . ... ... : ... .. . ... ... : ... .. . ... ... : ... .. . ... : ... .. . ... ... : ... .. . ... ... ... ...
ROW 67 : ... .. . ... ... : ... .. . ... ... : ... .. . ... ... : ... .. . ... : ... .. . ... ... : ... .. . ... ... ... ...
ROW 68 : ... .. . ... ... : ... .. . ... ... : ... .. . ... ... : ... .. . ... : ... .. . ... ... : ... .. . ... ... ... ...
ROW 69 : ... .. . ... ... : ... .. . ... ... : ... .. . ... ... : ... .. . ... : ... .. . ... ... : ... .. . ... ... ... ...
ROW 6A : ... .. . ... ... : ... .. . ... ... : ... .. . ... ... : ... .. . ... : ... .. . ... ... : ... .. . ... ... ... ...
ROW 6B : ... .. . ... ... : ... .. . ... ... : ... .. . ... ... : ... .. . ... : ... .. . ... ... : ... .. . ... ... ... ...
ROW 6C : ... .. . ... ... : ... .. . ... ... : ... .. . ... ... : ... .. . ... : ... .. . ... ... : ... .. . ... ... ... ...
ROW 6D : ... .. . ... ... : ... .. . ... ... : ... .. . ... ... : ... .. . ... : ... .. . ... ... : ... .. . ... ... ... ...
ROW 6E : ... .. . ... ... : ... .. . ... ... : ... .. . ... ... : ... .. . ... : ... .. . ... ... : ... .. . ... ... ... ...
ROW 6F : ... .. . ... ... : ... .. . ... ... : ... .. . ... ... : ... .. . ... : ... .. . ... ... : ... .. . ... ... ... ...
ROW 70 : ... .. . ... ... : ... .. . ... ... : ... .. . ... ... : ... .. . ... : ... .. . ... ... : ... .. . ... ... ... ...
ROW 71 : ... .. . ... ... : ... .. . ... ... : ... .. . ... ... : ... .. . ... : ... .. . ... ... : ... .. . ... ... ... ...
ROW 72 : ... .. . ... ... : ... .. . ... ... : ... .. . ... ... : ... .. . ... : ... .. . ... ... : ... .. . ... ... ... ...
ROW 73 : ... .. . ... ... : ... .. . ... ... : ... .. . ... ... : ... .. . ... : ... .. . ... ... : ... .. . ... ... ... ...
ROW 74 : ... .. . ... ... : ... .. . ... ... : ... .. . ... ... : ... .. . ... : ... .. . ... ... : ... .. . ... ... ... ...
ROW 75 : ... .. . ... ... : ... .. . ... ... : ... .. . ... ... : ... .. . ... : ... .. . ... ... : ... .. . ... ... ... ...
ROW 76 : ... .. . ... ... : ... .. . ... ... : ... .. . ... ... : ... .. . ... : ... .. . ... ... : ... .. . ... ... ... ...
ROW 77 : ... .. . ... ... : ... .. . ... ... : ... .. . ... ... : ... .. . ... : ... .. . ... ... : ... .. . ... ... ... ...
ROW 78 : ... .. . ... ... : ... .. . ... ... : ... .. . ... ... : ... .. . ... : ... .. . ... ... : ... .. . ... ... ... ...
ROW 79 : ... .. . ... ... : ... .. . ... ... : ... .. . ... ... : ... .. . ... : ... .. . ... ... : ... .. . ... ... ... ...
ROW 7A : ... .. . ... ... : ... .. . ... ... : ... .. . ... ... : ... .. . ... : ... .. . ... ... : ... .. . ... ... ... ...
ROW 7B : ... .. . ... ... : ... .. . ... ... : ... .. . ... ... : ... .. . ... : ... .. . ... ... : ... .. . ... ... ... ...
ROW 7C : ... .. . ... ... : ... .. . ... ... : ... .. . ... ... : ... .. . ... : ... .. . ... ... : ... .. . ... ... ... ...
ROW 7D : ... .. . ... ... : ... .. . ... ... : ... .. . ... ... : ... .. . ... : ... .. . ... ... : ... .. . ... ... ... ...
ROW 7E : ... .. . ... ... : ... .. . ... ... : ... .. . ... ... : ... .. . ... : ... .. . ... ... : ... .. . ... ... ... ...
ROW 7F : ... .. . ... ... : ... .. . ... ... : ... .. . ... ... : ... .. . ... : ... .. . ... ... : ... .. . ... ... ... ...
ROW 80 : ... .. . ... ... : ... .. . ... ... : ... .. . ... ... : ... .. . ... : ... .. . ... ... : ... .. . ... ... ... ...
ROW 81 : ... .. . ... ... : ... .. . ... ... : ... .. . ... ... : ... .. . ... : ... .. . ... ... : ... .. . ... ... ... ...
ROW 82 : ... .. . ... ... : ... .. . ... ... : ... .. . ... ... : ... .. . ... : ... .. . ... ... : ... .. . ... ... ... ...
ROW 83 : ... .. . ... ... : ... .. . ... ... : ... .. . ... ... : ... .. . ... : ... .. . ... ... : ... .. . ... ... ... ...
ROW 84 : ... .. . ... ... : ... .. . ... ... : ... .. . ... ... : ... .. . ... : ... .. . ... ... : ... .. . ... ... ... ...
ROW 85 : ... .. . ... ... : ... .. . ... ... : ... .. . ... ... : ... .. . ... : ... .. . ... ... : ... .. . ... ... ... ...
ROW 86 : ... .. . ... ... : ... .. . ... ... : ... .. . ... ... : ... .. . ... : ... .. . ... ... : ... .. . ... ... ... ...
ROW 87 : ... .. . ... ... : ... .. . ... ... : ... .. . ... ... : ... .. . ... : ... .. . ... ... : ... .. . ... ... ... ...
ROW 88 : ... .. . ... ... : ... .. . ... ... : ... .. . ... ... : ... .. . ... : ... .. . ... ... : ... .. . ... ... ... ...
ROW 89 : ... .. . ... ... : ... .. . ... ... : ... .. . ... ... : ... .. . ... : ... .. . ... ... : ... .. . ... ... ... ...
ROW 8A : ... .. . ... ... : ... .. . ... ... : ... .. . ... ... : ... .. . ... : ... .. . ... ... : ... .. . ... ... ... ...
ROW 8B : ... .. . ... ... : ... .. . ... ... : ... .. . ... ... : ... .. . ... : ... .. . ... ... : ... .. . ... ... ... ...
ROW 8C : ... .. . ... ... : ... .. . ... ... : ... .. . ... ... : ... .. . ... : ... .. . ... ... : ... .. . ... ... ... ...
ROW 8D : ... .. . ... ... : ... .. . ... ... : ... .. . ... ... : ... .. . ... : ... .. . ... ... : ... .. . ... ... ... ...
ROW 8E : ... .. . ... ... : ... .. . ... ... : ... .. . ... ... : ... .. . ... : ... .. . ... ... : ... .. . ... ... ... ...
ROW 8F : ... .. . ... ... : ... .. . ... ... : ... .. . ... ... : ... .. . ... : ... .. . ... ... : ... .. . ... ... ... ...
ROW 90 : ... .. . ... ... : ... .. . ... ... : ... .. . ... ... : ... .. . ... : ... .. . ... ... : ... .. . ... ... ... ...
ROW 91 : ... .. . ... ... : ... .. . ... ... : ... .. . ... ... : ... .. . ... : ... .. . ... ... : ... .. . ... ... ... ...
ROW 92 : ... .. . ... ... : ... .. . ... ... : ... .. . ... ... : ... .. . ... : ... .. . ... ... : ... .. . ... ... ... ...
ROW 93 : ... .. . ... ... : ... .. . ... ... : ... .. . ... ... : ... .. . ... : ... .. . ... ... : ... .. . ... ... ... ...
ROW 94 : ... .. . ... ... : ... .. . ... ... : ... .. . ... ... : ... .. . ... : ... .. . ... ... : ... .. . ... ... ... ...
ROW 95 : ... .. . ... ... : ... .. . ... ... : ... .. . ... ... : ... .. . ... : ... .. . ... ... : ... .. . ... ... ... ...
ROW 96 : ... .. . ... ... : ... .. . ... ... : ... .. . ... ... : ... .. . ... : ... .. . ... ... : ... .. . ... ... ... ...
ROW 97 : ... .. . ... ... : ... .. . ... ... : ... .. . ... ... : ... .. . ... : ... .. . ... ... : ... .. . ... ... ... ...
ROW 98 : ... .. . ... ... : ... .. . ... ... : ... .. . ... ... : ... .. . ... : ... .. . ... ... : ... .. . ... ... ... ...
ROW 99 : ... .. . ... ... : ... .. . ... ... : ... .. . ... ... : ... .. . ... : ... .. . ... ... : ... .. . ... ... ... ...
ROW 9A : ... .. . ... ... : ... .. . ... ... : ... .. . ... ... : ... .. . ... : ... .. . ... ... : ... .. . ... ... ... ...
ROW 9B : ... .. . ... ... : ... .. . ... ... : ... .. . ... ... : ... .. . ... : ... .. . ... ... : ... .. . ... ... ... ...
ROW 9C : ... .. . ... ... : ... .. . ... ... : ... .. . ... ... : ... .. . ... : ... .. . ... ... : ... .. . ... ... ... ...
ROW 9D : ... .. . ... ... : ... .. . ... ... : ... .. . ... ... : ... .. . ... : ... .. . ... ... : ... .. . ... ... ... ...
ROW 9E : ... .. . ... ... : ... .. . ... ... : ... .. . ... ... : ... .. . ... : ... .. . ... ... : ... .. . ... ... ... ...
ROW 9F : ... .. . ... ... : ... .. . ... ... : ... .. . ... ... : ... .. . ... : ... .. . ... ... : ... .. . ... ... ... ...
ROW A0 : ... .. . ... ... : ... .. . ... ... : ... .. . ... ... : ... .. . ... : ... .. . ... ... : ... .. . ... ... ... ...
ROW A1 : ... .. . ... ... : ... .. . ... ... : ... .. . ... ... : ... .. . ... : ... .. . ... ... : ... .. . ... ... ... ...
ROW A2 : ... .. . ... ... : ... .. . ... ... : ... .. . ... ... : ... .. . ... : ... .. . ... ... : ... .. . ... ... ... ...
ROW A3 : ... .. . ... ... : ... .. . ... ... : ... .. . ... ... : ... .. . ... : ... .. . ... ... : ... .. . ... ... ... ...
ROW A4 : ... .. . ... ... : ... .. . ... ... : ... .. . ... ... : ... .. . ... : ... .. . ... ... : ... .. . ... ... ... ...
ROW A5 : ... .. . ... ... : ... .. . ... ... : ... .. . ... ... : ... .. . ... : ... .. . ... ... : ... .. . ... ... ... ...
ROW A6 : ... .. . ... ... : ... .. . ... ... : ... .. . ... ... : ... .. . ... : ... .. . ... ... : ... .. . ... ... ... ...
ROW A7 : ... .. . ... ... : ... .. . ... ... : ... .. . ... ... : ... .. . ... : ... .. . ... ... : ... .. . ... ... ... ...
ROW A8 : ... .. . ... ... : ... .. . ... ... : ... .. . ... ... : ... .. . ... : ... .. . ... ... : ... .. . ... ... ... ...
ROW A9 : ... .. . ... ... : ... .. . ... ... : ... .. . ... ... : ... .. . ... : ... .. . ... ... : ... .. . ... ... ... ...
ROW AA : ... .. . ... ... : ... .. . ... ... : ... .. . ... ... : ... .. . ... : ... .. . ... ... : ... .. . ... ... ... ...
ROW AB : ... .. . ... ... : ... .. . ... ... : ... .. . ... ... : ... .. . ... : ... .. . ... ... : ... .. . ... ... ... ...
ROW AC : ... .. . ... ... : ... .. . ... ... : ... .. . ... ... : ... .. . ... : ... .. . ... ... : ... .. . ... ... ... ...
ROW AD : ... .. . ... ... : ... .. . ... ... : ... .. . ... ... : ... .. . ... : ... .. . ... ... : ... .. . ... ... ... ...
ROW AE : ... .. . ... ... : ... .. . ... ... : ... .. . ... ... : ... .. . ... : ... .. . ... ... : ... .. . ... ... ... ...
ROW AF : ... .. . ... ... : ... .. . ... ... : ... .. . ... ... : ... .. . ... : ... .. . ... ... : ... .. . ... ... ... ...
ROW B0 : ... .. . ... ... : ... .. . ... ... : ... .. . ... ... : ... .. . ... : ... .. . ... ... : ... .. . ... ... ... ...
ROW B1 : ... .. . ... ... : ... .. . ... ... : ... .. . ... ... : ... .. . ... : ... .. . ... ... : ... .. . ... ... ... ...
ROW B2 : ... .. . ... ... : ... .. . ... ... : ... .. . ... ... : ... .. . ... : ... .. . ... ... : ... .. . ... ... ... ...
ROW B3 : ... .. . ... ... : ... .. . ... ... : ... .. . ... ... : ... .. . ... : ... .. . ... ... : ... .. . ... ... ... ...
ROW B4 : ... .. . ... ... : ... .. . ... ... : ... .. . ... ... : ... .. . ... : ... .. . ... ... : ... .. . ... ... ... ...
ROW B5 : ... .. . ... ... : ... .. . ... ... : ... .. . ... ... : ... .. . ... : ... .. . ... ... : ... .. . ... ... ... ...
ROW B6 : ... .. . ... ... : ... .. . ... ... : ... .. . ... ... : ... .. . ... : ... .. . ... ... : ... .. . ... ... ... ...
ROW B7 : ... .. . ... ... : ... .. . ... ... : ... .. . ... ... : ... .. . ... : ... .. . ... ... : ... .. . ... ... ... ...
ROW B8 : ... .. . ... ... : ... .. . ... ... : ... .. . ... ... : ... .. . ... : ... .. . ... ... : ... .. . ... ... ... ...
ROW B9 : ... .. . ... ... : ... .. . ... ... : ... .. . ... ... : ... .. . ... : ... .. . ... ... : ... .. . ... ... ... ...
ROW BA : ... .. . ... ... : ... .. . ... ... : ... .. . ... ... : ... .. . ... : ... .. . ... ... : ... .. . ... ... ... ...
ROW BB : ... .. . ... ... : ... .. . ... ... : ... .. . ... ... : ... .. . ... : ... .. . ... ... : ... .. . ... ... ... ...
ROW BC : ... .. . ... ... : ... .. . ... ... : ... .. . ... ... : ... .. . ... : ... .. . ... ... : ... .. . ... ... ... ...
ROW BD : ... .. . ... ... : ... .. . ... ... : ... .. . ... ... : ... .. . ... : ... .. . ... ... : ... .. . ... ... ... ...
ROW BE : ... .. . ... ... : ... .. . ... ... : ... .. . ... ... : ... .. . ... : ... .. . ... ... : ... .. . ... ... ... ...
ROW BF : ... .. . ... ... : ... .. . ... ... : ... .. . ... ... : ... .. . ... : ... .. . ... ... : ... .. . ... ... ... ...
ROW C0 : ... .. . ... ... : ... .. . ... ... : ... .. . ... ... : ... .. . ... : ... .. . ... ... : ... .. . ... ... ... ...
ROW C1 : ... .. . ... ... : ... .. . ... ... : ... .. . ... ... : ... .. . ... : ... .. . ... ... : ... .. . ... ... ... ...
ROW C2 : ... .. . ... ... : ... .. . ... ... : ... .. . ... ... : ... .. . ... : ... .. . ... ... : ... .. . ... ... ... ...
ROW C3 : ... .. . ... ... : ... .. . ... ... : ... .. . ... ... : ... .. . ... : ... .. . ... ... : ... .. . ... ... ... ...
ROW C4 : ... .. . ... ... : ... .. . ... ... : ... .. . ... ... : ... .. . ... : ... .. . ... ... : ... .. . ... ... ... ...
ROW C5 : ... .. . ... ... : ... .. . ... ... : ... .. . ... ... : ... .. . ... : ... .. . ... ... : ... .. . ... ... ... ...
ROW C6 : ... .. . ... ... : ... .. . ... ... : ... .. . ... ... : ... .. . ... : ... .. . ... ... : ... .. . ... ... ... ...
ROW C7 : ... .. . ... ... : ... .. . ... ... : ... .. . ... ... : ... .. . ... : ... .. . ... ... : ... .. . ... ... ... ...
ROW C8 : ... .. . ... ... : ... .. . ... ... : ... .. . ... ... : ... .. . ... : ... .. . ... ... : ... .. . ... ... ... ...
ROW C9 : ... .. . ... ... : ... .. . ... ... : ... .. . ... ... : ... .. . ... : ... .. . ... ... : ... .. . ... ... ... ...
ROW CA : ... .. . ... ... : ... .. . ... ... : ... .. . ... ... : ... .. . ... : ... .. . ... ... : ... .. . ... ... ... ...
ROW CB : ... .. . ... ... : ... .. . ... ... : ... .. . ... ... : ... .. . ... : ... .. . ... ... : ... .. . ... ... ... ...
ROW CC : ... .. . ... ... : ... .. . ... ... : ... .. . ... ... : ... .. . ... : ... .. . ... ... : ... .. . ... ... ... ...
ROW CD : ... .. . ... ... : ... .. . ... ... : ... .. . ... ... : ... .. . ... : ... .. . ... ... : ... .. . ... ... ... ...
ROW CE : ... .. . ... ... : ... .. . ... ... : ... .. . ... ... : ... .. . ... : ... .. . ... ... : ... .. . ... ... ... ...
ROW CF : ... .. . ... ... : ... .. . ... ... : ... .. . ... ... : ... .. . ... : ... .. . ... ... : ... .. . ... ... ... ...
ROW D0 : ... .. . ... ... : ... .. . ... ... : ... .. . ... ... : ... .. . ... : ... .. . ... ... : ... .. . ... ... ... ...
ROW D1 : ... .. . ... ... : ... .. . ... ... : ... .. . ... ... : ... .. . ... : ... .. . ... ... : ... .. . ... ... ... ...
ROW D2 : ... .. . ... ... : ... .. . ... ... : ... .. . ... ... : ... .. . ... : ... .. . ... ... : ... .. . ... ... ... ...
ROW D3 : ... .. . ... ... : ... .. . ... ... : ... .. . ... ... : ... .. . ... : ... .. . ... ... : ... .. . ... ... ... ...
ROW D4 : ... .. . ... ... : ... .. . ... ... : ... .. . ... ... : ... .. . ... : ... .. . ... ... : ... .. . ... ... ... ...
ROW D5 : ... .. . ... ... : ... .. . ... ... : ... .. . ... ... : ... .. . ... : ... .. . ... ... : ... .. . ... ... ... ...
ROW D6 : ... .. . ... ... : ... .. . ... ... : ... .. . ... ... : ... .. . ... : ... .. . ... ... : ... .. . ... ... ... ...
ROW D7 : ... .. . ... ... : ... .. . ... ... : ... .. . ... ... : ... .. . ... : ... .. . ... ... : ... .. . ... ... ... ...
ROW D8 : ... .. . ... ... : ... .. . ... ... : ... .. . ... ... : ... .. . ... : ... .. . ... ... : ... .. . ... ... ... ...
ROW D9 : ... .. . ... ... : ... .. . ... ... : ... .. . ... ... : ... .. . ... : ... .. . ... ... : ... .. . ... ... ... ...
ROW DA : ... .. . ... ... : ... .. . ... ... : ... .. . ... ... : ... .. . ... : ... .. . ... ... : ... .. . ... ... ... ...
ROW DB : ... .. . ... ... : ... .. . ... ... : ... .. . ... ... : ... .. . ... : ... .. . ... ... : ... .. . ... ... ... ...
ROW DC : ... .. . ... ... : ... .. . ... ... : ... .. . ... ... : ... .. . ... : ... .. . ... ... : ... .. . ... ... ... ...
ROW DD : ... .. . ... ... : ... .. . ... ... : ... .. . ... ... : ... .. . ... : ... .. . ... ... : ... .. . ... ... ... ...
ROW DE : ... .. . ... ... : ... .. . ... ... : ... .. . ... ... : ... .. . ... : ... .. . ... ... : ... .. . ... ... ... ...
ROW DF : ... .. . ... ... : ... .. . ... ... : ... .. . ... ... : ... .. . ... : ... .. . ... ... : ... .. . ... ... ... ...
ROW E0 : ... .. . ... ... : ... .. . ... ... : ... .. . ... ... : ... .. . ... : ... .. . ... ... : ... .. . ... ... ... ...
ROW E1 : ... .. . ... ... : ... .. . ... ... : ... .. . ... ... : ... .. . ... : ... .. . ... ... : ... .. . ... ... ... ...
ROW E2 : ... .. . ... ... : ... .. . ... ... : ... .. . ... ... : ... .. . ... : ... .. . ... ... : ... .. . ... ... ... ...
ROW E3 : ... .. . ... ... : ... .. . ... ... : ... .. . ... ... : ... .. . ... : ... .. . ... ... : ... .. . ... ... ... ...
ROW E4 : ... .. . ... ... : ... .. . ... ... : ... .. . ... ... : ... .. . ... : ... .. . ... ... : ... .. . ... ... ... ...
ROW E5 : ... .. . ... ... : ... .. . ... ... : ... .. . ... ... : ... .. . ... : ... .. . ... ... : ... .. . ... ... ... ...
ROW E6 : ... .. . ... ... : ... .. . ... ... : ... .. . ... ... : ... .. . ... : ... .. . ... ... : ... .. . ... ... ... ...
ROW E7 : ... .. . ... ... : ... .. . ... ... : ... .. . ... ... : ... .. . ... : ... .. . ... ... : ... .. . ... ... ... ...
ROW E8 : ... .. . ... ... : ... .. . ... ... : ... .. . ... ... : ... .. . ... : ... .. . ... ... : ... .. . ... ... ... ...
ROW E9 : ... .. . ... ... : ... .. . ... ... : ... .. . ... ... : ... .. . ... : ... .. . ... ... : ... .. . ... ... ... ...
ROW EA : ... .. . ... ... : ... .. . ... ... : ... .. . ... ... : ... .. . ... : ... .. . ... ... : ... .. . ... ... ... ...
ROW EB : ... .. . ... ... : ... .. . ... ... : ... .. . ... ... : ... .. . ... : ... .. . ... ... : ... .. . ... ... ... ...
ROW EC : ... .. . ... ... : ... .. . ... ... : ... .. . ... ... : ... .. . ... : ... .. . ... ... : ... .. . ... ... ... ...
ROW ED : ... .. . ... ... : ... .. . ... ... : ... .. . ... ... : ... .. . ... : ... .. . ... ... : ... .. . ... ... ... ...
ROW EE : ... .. . ... ... : ... .. . ... ... : ... .. . ... ... : ... .. . ... : ... .. . ... ... : ... .. . ... ... ... ...
ROW EF : ... .. . ... ... : ... .. . ... ... : ... .. . ... ... : ... .. . ... : ... .. . ... ... : ... .. . ... ... ... ...
ROW F0 : ... .. . ... ... : ... .. . ... ... : ... .. . ... ... : ... .. . ... : ... .. . ... ... : ... .. . ... ... ... ...
ROW F1 : ... .. . ... ... : ... .. . ... ... : ... .. . ... ... : ... .. . ... : ... .. . ... ... : ... .. . ... ... ... ...
ROW F2 : ... .. . ... ... : ... .. . ... ... : ... .. . ... ... : ... .. . ... : ... .. . ... ... : ... .. . ... ... ... ...
ROW F3 : ... .. . ... ... : ... .. . ... ... : ... .. . ... ... : ... .. . ... : ... .. . ... ... : ... .. . ... ... ... ...
ROW F4 : ... .. . ... ... : ... .. . ... ... : ... .. . ... ... : ... .. . ... : ... .. . ... ... : ... .. . ... ... ... ...
ROW F5 : ... .. . ... ... : ... .. . ... ... : ... .. . ... ... : ... .. . ... : ... .. . ... ... : ... .. . ... ... ... ...
ROW F6 : ... .. . ... ... : ... .. . ... ... : ... .. . ... ... : ... .. . ... : ... .. . ... ... : ... .. . ... ... ... ...
ROW F7 : ... .. . ... ... : ... .. . ... ... : ... .. . ... ... : ... .. . ... : ... .. . ... ... : ... .. . ... ... ... ...
ROW F8 : ... .. . ... ... : ... .. . ... ... : ... .. . ... ... : ... .. . ... : ... .. . ... ... : ... .. . ... ... ... ...
ROW F9 : ... .. . ... ... : ... .. . ... ... : ... .. . ... ... : ... .. . ... : ... .. . ... ... : ... .. . ... ... ... ...
ROW FA : ... .. . ... ... : ... .. . ... ... : ... .. . ... ... : ... .. . ... : ... .. . ... ... : ... .. . ... ... ... ...
ROW FB : ... .. . ... ... : ... .. . ... ... : ... .. . ... ... : ... .. . ... : ... .. . ... ... : ... .. . ... ... ... ...
ROW FC : ... .. . ... ... : ... .. . ... ... : ... .. . ... ... : ... .. . ... : ... .. . ... ... : ... .. . ... ... ... ...
ROW FD : ... .. . ... ... : ... .. . ... ... : ... .. . ... ... : ... .. . ... : ... .. . ... ... : ... .. . ... ... ... ...
ROW FE : ... .. . ... ... : ... .. . ... ... : ... .. . ... ... : ... .. . ... : ... .. . ... ... : ... .. . ... ... ... ...
ROW FF : ... .. . ... ... : ... .. . ... ... : ... .. . ... ... : ... .. . ... : ... .. . ... ... : ... .. . ... ... ... ...

PATTERN 21
ROW 00 : ... .. . ... ... : F#4 1C 8 ... ... : C-4 03 . 236 ... : ... .. . ... : ... .. . ... ... : A-4 1D E 400 ... ... ...
ROW 01 : ... .. . ... ... : ... .. 7 ... ... : ... .. . ... ... : ... .. . ... : ... .. . ... ... : ... .. 5 ... ... ... ...
ROW 02 : ... .. . ... ... : ... .. 6 ... ... : C-3 11 . G02 200 : ... .. . ... : ... .. . ... ... : C-5 1D E G02 ... ... ...
ROW 03 : ... .. . ... ... : ... .. 5 ... ... : ... .. . ... ... : ... .. . ... : ... .. . ... ... : ... .. . ... ... ... ...
ROW 04 : ... .. . ... ... : ... .. 4 ... ... : ... .. . S04 ... : ... .. . ... : ... .. . ... ... : ... .. 5 ... ... ... ...
ROW 05 : ... .. . ... ... : ... .. 3 ... ... : C-3 11 . G01 ... : ... .. . ... : ... .. . ... ... : E-5 1D E G01 ... ... ...
ROW 06 : ... .. . ... ... : ... .. 2 ... ... : ... .. . ... ... : ... .. . ... : ... .. . ... ... : ... .. . ... ... ... ...
ROW 07 : ... .. . ... ... : ... .. 1 ... ... : ... .. . S03 ... : ... .. . ... : ... .. . ... ... : ... .. 5 ... ... ... ...
ROW 08 : ... .. . ... ... : F#4 1C 6 ... ... : C-4 03 . 236 ... : ... .. . ... : ... .. . ... ... : A-5 1D E ... ... ... ...
ROW 09 : ... .. . ... ... : ... .. 5 ... ... : ... .. . ... ... : ... .. . ... : ... .. . ... ... : ... .. . ... ... ... ...
ROW 0A : ... .. . ... ... : ... .. 4 ... ... : C-4 03 . G02 ... : ... .. . ... : ... .. . ... ... : ... .. . ... ... ... ...
ROW 0B : ... .. . ... ... : ... .. 3 ... ... : ... .. . ... ... : ... .. . ... : ... .. . ... ... : ... .. . ... ... ... ...
ROW 0C : ... .. . ... ... : ... .. 2 ... ... : ... .. . ... ... : ... .. . ... : ... .. . ... ... : ... .. . ... ... ... ...
ROW 0D : ... .. . ... ... : ... .. 1 ... ... : C-4 03 . G01 ... : ... .. . ... : ... .. . ... ... : ... .. . ... ... ... ...
ROW 0E : ... .. . ... ... : ... .. . ... ... : ... .. . ... ... : ... .. . ... : ... .. . ... ... : ... .. . ... ... ... ...
ROW 0F : ... .. . ... ... : ... .. . ... ... : ... .. . ... ... : ... .. . ... : ... .. . ... ... : ... .. . ... ... ... ...
ROW 10 : ... .. . ... ... : F#4 1C 4 ... ... : D-4 03 . ... ... : ... .. . ... : ... .. . ... ... : ... .. D 468 ... ... ...
ROW 11 : ... .. . ... ... : ... .. . ... ... : ... .. . ... ... : ... .. . ... : ... .. . ... ... : ... .. C ... ... ... ...
ROW 12 : ... .. . ... ... : ... .. 3 ... ... : D-3 11 . 200 G02 : ... .. . ... : ... .. . ... ... : ... .. B ... ... ... ...
ROW 13 : ... .. . ... ... : ... .. . ... ... : ... .. . ... ... : ... .. . ... : ... .. . ... ... : ... .. A ... ... ... ...
ROW 14 : ... .. . ... ... : ... .. 2 ... ... : ... .. . S04 ... : ... .. . ... : ... .. . ... ... : ... .. 9 ... ... ... ...
ROW 15 : ... .. . ... ... : ... .. . ... ... : D-3 11 . G01 ... : ... .. . ... : ... .. . ... ... : ... .. 8 ... ... ... ...
ROW 16 : ... .. . ... ... : ... .. 1 ... ... : ... .. . ... ... : ... .. . ... : ... .. . ... ... : ... .. 7 ... ... ... ...
ROW 17 : ... .. . ... ... : ... .. . ... ... : ... .. . S03 ... : ... .. . ... : ... .. . ... ... : ... .. 6 ... ... ... ...
ROW 18 : ... .. . ... ... : F#4 1C 2 ... ... : D-4 03 . 236 ... : ... .. . ... : ... .. . ... ... : ... .. 5 ... ... ... ...
ROW 19 : ... .. . ... ... : ... .. . ... ... : ... .. . ... ... : ... .. . ... : ... .. . ... ... : ... .. 4 ... ... ... ...
ROW 1A : ... .. . ... ... : ... .. . ... ... : D-3 11 . G02 200 : ... .. . ... : ... .. . ... ... : ... .. 3 ... ... ... ...
ROW 1B : ... .. . ... ... : ... .. 1 ... ... : ... .. . ... ... : ... .. . ... : ... .. . ... ... : ... .. 2 ... ... ... ...
ROW 1C : ... .. . ... ... : ... .. . ... ... : ... .. . S04 ... : ... .. . ... : ... .. . ... ... : ... .. 1 ... ... ... ...
ROW 1D : ... .. . ... ... : ... .. . ... ... : D-4 11 . G01 ... : ... .. . ... : ... .. . ... ... : ... .. . ... ... ... ...
ROW 1E : ... .. . ... ... : ... .. 0 G03 ... : ... .. . ... ... : ... .. . ... : ... .. . ... ... : ... .. . ... ... ... ...
ROW 1F : ... .. . ... ... : ... .. . ... ... : ... .. . S03 ... : ... .. . ... : ... .. . ... ... : ... .. . ... ... ... ...
ROW 20 : ... .. . ... ... : F#4 1C 1 ... ... : F-4 03 . 236 ... : ... .. . ... : ... .. . ... ... : B-4 1D E 400 ... ... ...
ROW 21 : ... .. . ... ... : ... .. . ... ... : ... .. . ... ... : ... .. . ... : ... .. . ... ... : ... .. 5 ... ... ... ...
ROW 22 : ... .. . ... ... : ... .. . ... ... : F-3 11 . G02 200 : ... .. . ... : ... .. . ... ... : E-5 1D E G02 ... ... ...
ROW 23 : ... .. . ... ... : ... .. . ... ... : ... .. . ... ... : ... .. . ... : ... .. . ... ... : ... .. . ... ... ... ...
ROW 24 : ... .. . ... ... : ... .. . ... ... : ... .. . S04 ... : ... .. . ... : ... .. . ... ... : ... .. 5 ... ... ... ...
ROW 25 : ... .. . ... ... : ... .. 0 G03 ... : F-3 11 . G01 ... : ... .. . ... : ... .. . ... ... : G-5 1D E G01 ... ... ...
ROW 26 : ... .. . ... ... : ... .. . ... ... : ... .. . ... ... : ... .. . ... : ... .. . ... ... : ... .. . ... ... ... ...
ROW 27 : ... .. . ... ... : ... .. . ... ... : ... .. . S03 ... : ... .. . ... : ... .. . ... ... : ... .. 5 ... ... ... ...
ROW 28 : ... .. . ... ... : ... .. . ... ... : F-4 03 . 236 ... : ... .. . ... : ... .. . ... ... : B-5 1D E ... ... ... ...
ROW 29 : ... .. . ... ... : ... .. . ... ... : ... .. . ... ... : ... .. . ... : ... .. . ... ... : ... .. . ... ... ... ...
ROW 2A : ... .. . ... ... : ... .. . ... ... : F-3 11 . G02 200 : ... .. . ... : ... .. . ... ... : ... .. . ... ... ... ...
ROW 2B : ... .. . ... ... : ... .. . ... ... : ... .. . ... ... : ... .. . ... : ... .. . ... ... : ... .. . ... ... ... ...
ROW 2C : ... .. . ... ... : ... .. . ... ... : F-4 03 . 236 ... : ... .. . ... : ... .. . ... ... : ... .. . ... ... ... ...
ROW 2D : ... .. . ... ... : ... .. . ... ... : ... .. . ... ... : ... .. . ... : ... .. . ... ... : ... .. . ... ... ... ...
ROW 2E : ... .. . ... ... : ... .. . ... ... : ... .. . ... ... : ... .. . ... : ... .. . ... ... : ... .. . ... ... ... ...
ROW 2F : ... .. . ... ... : ... .. . ... ... : ... .. . ... ... : ... .. . ... : ... .. . ... ... : ... .. . ... ... ... ...
ROW 30 : ... .. . ... ... : ... .. . ... ... : G-4 03 . ... ... : ... .. . ... : ... .. . ... ... : ... .. D 468 ... ... ...
ROW 31 : ... .. . ... ... : ... .. . ... ... : ... .. . ... ... : ... .. . ... : ... .. . ... ... : ... .. C ... ... ... ...
ROW 32 : ... .. . ... ... : ... .. . ... ... : G-3 11 . G02 200 : ... .. . ... : ... .. . ... ... : ... .. B ... ... ... ...
ROW 33 : ... .. . ... ... : ... .. . ... ... : ... .. . ... ... : ... .. . ... : ... .. . ... ... : ... .. A ... ... ... ...
ROW 34 : ... .. . ... ... : ... .. . ... ... : ... .. . S04 ... : ... .. . ... : ... .. . ... ... : ... .. 9 ... ... ... ...
ROW 35 : ... .. . ... ... : ... .. . ... ... : G-3 11 . G01 ... : ... .. . ... : ... .. . ... ... : ... .. 8 ... ... ... ...
ROW 36 : ... .. . ... ... : ... .. . ... ... : ... .. . ... ... : ... .. . ... : ... .. . ... ... : ... .. 7 ... ... ... ...
ROW 37 : ... .. . ... ... : ... .. . ... ... : ... .. . S03 ... : ... .. . ... : ... .. . ... ... : ... .. 6 ... ... ... ...
ROW 38 : ... .. . ... ... : ... .. . ... ... : G-3 11 . ... ... : ... .. . ... : ... .. . ... ... : ... .. 5 ... ... ... ...
ROW 39 : ... .. . ... ... : ... .. . ... ... : ... .. . S05 ... : ... .. . ... : ... .. . ... ... : ... .. 4 ... ... ... ...
ROW 3A : ... .. . ... ... : ... .. . ... ... : G-3 11 . G02 ... : ... .. . ... : ... .. . ... ... : ... .. 3 ... ... ... ...
ROW 3B : ... .. . ... ... : ... .. . ... ... : ... .. . ... ... : ... .. . ... : ... .. . ... ... : ... .. 2 ... ... ... ...
ROW 3C : ... .. . ... ... : ... .. . ... ... : ... .. . S04 ... : ... .. . ... : ... .. . ... ... : ... .. 1 ... ... ... ...
ROW 3D : ... .. . ... ... : ... .. . ... ... : G-4 11 . G01 ... : ... .. . ... : ... .. . ... ... : ... .. . ... ... ... ...
ROW 3E : ... .. . ... ... : ... .. . ... ... : ... .. . ... ... : ... .. . ... : ... .. . ... ... : ... .. . ... ... ... ...
ROW 3F : ... .. . ... ... : ... .. . ... ... : ... .. . S03 ... : ... .. . ... : ... .. . ... ... : ... .. . ... ... ... ...
ROW 40 : ... .. . ... ... : ... .. . ... ... : ... .. . ... ... : ... .. . ... : ... .. . ... ... : ... .. . ... ... ... ...
ROW 41 : ... .. . ... ... : ... .. . ... ... : ... .. . ... ... : ... .. . ... : ... .. . ... ... : ... .. . ... ... ... ...
ROW 42 : ... .. . ... ... : ... .. . ... ... : ... .. . ... ... : ... .. . ... : ... .. . ... ... : ... .. . ... ... ... ...
ROW 43 : ... .. . ... ... : ... .. . ... ... : ... .. . ... ... : ... .. . ... : ... .. . ... ... : ... .. . ... ... ... ...
ROW 44 : ... .. . ... ... : ... .. . ... ... : ... .. . ... ... : ... .. . ... : ... .. . ... ... : ... .. . ... ... ... ...
ROW 45 : ... .. . ... ... : ... .. . ... ... : ... .. . ... ... : ... .. . ... : ... .. . ... ... : ... .. . ... ... ... ...
ROW 46 : ... .. . ... ... : ... .. . ... ... : ... .. . ... ... : ... .. . ... : ... .. . ... ... : ... .. . ... ... ... ...
ROW 47 : ... .. . ... ... : ... .. . ... ... : ... .. . ... ... : ... .. . ... : ... .. . ... ... : ... .. . ... ... ... ...
ROW 48 : ... .. . ... ... : ... .. . ... ... : ... .. . ... ... : ... .. . ... : ... .. . ... ... : ... .. . ... ... ... ...
ROW 49 : ... .. . ... ... : ... .. . ... ... : ... .. . ... ... : ... .. . ... : ... .. . ... ... : ... .. . ... ... ... ...
ROW 4A : ... .. . ... ... : ... .. . ... ... : ... .. . ... ... : ... .. . ... : ... .. . ... ... : ... .. . ... ... ... ...
ROW 4B : ... .. . ... ... : ... .. . ... ... : ... .. . ... ... : ... .. . ... : ... .. . ... ... : ... .. . ... ... ... ...
ROW 4C : ... .. . ... ... : ... .. . ... ... : ... .. . ... ... : ... .. . ... : ... .. . ... ... : ... .. . ... ... ... ...
ROW 4D : ... .. . ... ... : ... .. . ... ... : ... .. . ... ... : ... .. . ... : ... .. . ... ... : ... .. . ... ... ... ...
ROW 4E : ... .. . ... ... : ... .. . ... ... : ... .. . ... ... : ... .. . ... : ... .. . ... ... : ... .. . ... ... ... ...
ROW 4F : ... .. . ... ... : ... .. . ... ... : ... .. . ... ... : ... .. . ... : ... .. . ... ... : ... .. . ... ... ... ...
ROW 50 : ... .. . ... ... : ... .. . ... ... : ... .. . ... ... : ... .. . ... : ... .. . ... ... : ... .. . ... ... ... ...
ROW 51 : ... .. . ... ... : ... .. . ... ... : ... .. . ... ... : ... .. . ... : ... .. . ... ... : ... .. . ... ... ... ...
ROW 52 : ... .. . ... ... : ... .. . ... ... : ... .. . ... ... : ... .. . ... : ... .. . ... ... : ... .. . ... ... ... ...
ROW 53 : ... .. . ... ... : ... .. . ... ... : ... .. . ... ... : ... .. . ... : ... .. . ... ... : ... .. . ... ... ... ...
ROW 54 : ... .. . ... ... : ... .. . ... ... : ... .. . ... ... : ... .. . ... : ... .. . ... ... : ... .. . ... ... ... ...
ROW 55 : ... .. . ... ... : ... .. . ... ... : ... .. . ... ... : ... .. . ... : ... .. . ... ... : ... .. . ... ... ... ...
ROW 56 : ... .. . ... ... : ... .. . ... ... : ... .. . ... ... : ... .. . ... : ... .. . ... ... : ... .. . ... ... ... ...
ROW 57 : ... .. . ... ... : ... .. . ... ... : ... .. . ... ... : ... .. . ... : ... .. . ... ... : ... .. . ... ... ... ...
ROW 58 : ... .. . ... ... : ... .. . ... ... : ... .. . ... ... : ... .. . ... : ... .. . ... ... : ... .. . ... ... ... ...
ROW 59 : ... .. . ... ... : ... .. . ... ... : ... .. . ... ... : ... .. . ... : ... .. . ... ... : ... .. . ... ... ... ...
ROW 5A : ... .. . ... ... : ... .. . ... ... : ... .. . ... ... : ... .. . ... : ... .. . ... ... : ... .. . ... ... ... ...
ROW 5B : ... .. . ... ... : ... .. . ... ... : ... .. . ... ... : ... .. . ... : ... .. . ... ... : ... .. . ... ... ... ...
ROW 5C : ... .. . ... ... : ... .. . ... ... : ... .. . ... ... : ... .. . ... : ... .. . ... ... : ... .. . ... ... ... ...
ROW 5D : ... .. . ... ... : ... .. . ... ... : ... .. . ... ... : ... .. . ... : ... .. . ... ... : ... .. . ... ... ... ...
ROW 5E : ... .. . ... ... : ... .. . ... ... : ... .. . ... ... : ... .. . ... : ... .. . ... ... : ... .. . ... ... ... ...
ROW 5F : ... .. . ... ... : ... .. . ... ... : ... .. . ... ... : ... .. . ... : ... .. . ... ... : ... .. . ... ... ... ...
ROW 60 : ... .. . ... ... : ... .. . ... ... : ... .. . ... ... : ... .. . ... : ... .. . ... ... : ... .. . ... ... ... ...
ROW 61 : ... .. . ... ... : ... .. . ... ... : ... .. . ... ... : ... .. . ... : ... .. . ... ... : ... .. . ... ... ... ...
ROW 62 : ... .. . ... ... : ... .. . ... ... : ... .. . ... ... : ... .. . ... : ... .. . ... ... : ... .. . ... ... ... ...
ROW 63 : ... .. . ... ... : ... .. . ... ... : ... .. . ... ... : ... .. . ... : ... .. . ... ... : ... .. . ... ... ... ...
ROW 64 : ... .. . ... ... : ... .. . ... ... : ... .. . ... ... : ... .. . ... : ... .. . ... ... : ... .. . ... ... ... ...
ROW 65 : ... .. . ... ... : ... .. . ... ... : ... .. . ... ... : ... .. . ... : ... .. . ... ... : ... .. . ... ... ... ...
ROW 66 : ... .. . ... ... : ... .. . ... ... : ... .. . ... ... : ... .. . ... : ... .. . ... ... : ... .. . ... ... ... ...
ROW 67 : ... .. . ... ... : ... .. . ... ... : ... .. . ... ... : ... .. . ... : ... .. . ... ... : ... .. . ... ... ... ...
ROW 68 : ... .. . ... ... : ... .. . ... ... : ... .. . ... ... : ... .. . ... : ... .. . ... ... : ... .. . ... ... ... ...
ROW 69 : ... .. . ... ... : ... .. . ... ... : ... .. . ... ... : ... .. . ... : ... .. . ... ... : ... .. . ... ... ... ...
ROW 6A : ... .. . ... ... : ... .. . ... ... : ... .. . ... ... : ... .. . ... : ... .. . ... ... : ... .. . ... ... ... ...
ROW 6B : ... .. . ... ... : ... .. . ... ... : ... .. . ... ... : ... .. . ... : ... .. . ... ... : ... .. . ... ... ... ...
ROW 6C : ... .. . ... ... : ... .. . ... ... : ... .. . ... ... : ... .. . ... : ... .. . ... ... : ... .. . ... ... ... ...
ROW 6D : ... .. . ... ... : ... .. . ... ... : ... .. . ... ... : ... .. . ... : ... .. . ... ... : ... .. . ... ... ... ...
ROW 6E : ... .. . ... ... : ... .. . ... ... : ... .. . ... ... : ... .. . ... : ... .. . ... ... : ... .. . ... ... ... ...
ROW 6F : ... .. . ... ... : ... .. . ... ... : ... .. . ... ... : ... .. . ... : ... .. . ... ... : ... .. . ... ... ... ...
ROW 70 : ... .. . ... ... : ... .. . ... ... : ... .. . ... ... : ... .. . ... : ... .. . ... ... : ... .. . ... ... ... ...
ROW 71 : ... .. . ... ... : ... .. . ... ... : ... .. . ... ... : ... .. . ... : ... .. . ... ... : ... .. . ... ... ... ...
ROW 72 : ... .. . ... ... : ... .. . ... ... : ... .. . ... ... : ... .. . ... : ... .. . ... ... : ... .. . ... ... ... ...
ROW 73 : ... .. . ... ... : ... .. . ... ... : ... .. . ... ... : ... .. . ... : ... .. . ... ... : ... .. . ... ... ... ...
ROW 74 : ... .. . ... ... : ... .. . ... ... : ... .. . ... ... : ... .. . ... : ... .. . ... ... : ... .. . ... ... ... ...
ROW 75 : ... .. . ... ... : ... .. . ... ... : ... .. . ... ... : ... .. . ... : ... .. . ... ... : ... .. . ... ... ... ...
ROW 76 : ... .. . ... ... : ... .. . ... ... : ... .. . ... ... : ... .. . ... : ... .. . ... ... : ... .. . ... ... ... ...
ROW 77 : ... .. . ... ... : ... .. . ... ... : ... .. . ... ... : ... .. . ... : ... .. . ... ... : ... .. . ... ... ... ...
ROW 78 : ... .. . ... ... : ... .. . ... ... : ... .. . ... ... : ... .. . ... : ... .. . ... ... : ... .. . ... ... ... ...
ROW 79 : ... .. . ... ... : ... .. . ... ... : ... .. . ... ... : ... .. . ... : ... .. . ... ... : ... .. . ... ... ... ...
ROW 7A : ... .. . ... ... : ... .. . ... ... : ... .. . ... ... : ... .. . ... : ... .. . ... ... : ... .. . ... ... ... ...
ROW 7B : ... .. . ... ... : ... .. . ... ... : ... .. . ... ... : ... .. . ... : ... .. . ... ... : ... .. . ... ... ... ...
ROW 7C : ... .. . ... ... : ... .. . ... ... : ... .. . ... ... : ... .. . ... : ... .. . ... ... : ... .. . ... ... ... ...
ROW 7D : ... .. . ... ... : ... .. . ... ... : ... .. . ... ... : ... .. . ... : ... .. . ... ... : ... .. . ... ... ... ...
ROW 7E : ... .. . ... ... : ... .. . ... ... : ... .. . ... ... : ... .. . ... : ... .. . ... ... : ... .. . ... ... ... ...
ROW 7F : ... .. . ... ... : ... .. . ... ... : ... .. . ... ... : ... .. . ... : ... .. . ... ... : ... .. . ... ... ... ...
ROW 80 : ... .. . ... ... : ... .. . ... ... : ... .. . ... ... : ... .. . ... : ... .. . ... ... : ... .. . ... ... ... ...
ROW 81 : ... .. . ... ... : ... .. . ... ... : ... .. . ... ... : ... .. . ... : ... .. . ... ... : ... .. . ... ... ... ...
ROW 82 : ... .. . ... ... : ... .. . ... ... : ... .. . ... ... : ... .. . ... : ... .. . ... ... : ... .. . ... ... ... ...
ROW 83 : ... .. . ... ... : ... .. . ... ... : ... .. . ... ... : ... .. . ... : ... .. . ... ... : ... .. . ... ... ... ...
ROW 84 : ... .. . ... ... : ... .. . ... ... : ... .. . ... ... : ... .. . ... : ... .. . ... ... : ... .. . ... ... ... ...
ROW 85 : ... .. . ... ... : ... .. . ... ... : ... .. . ... ... : ... .. . ... : ... .. . ... ... : ... .. . ... ... ... ...
ROW 86 : ... .. . ... ... : ... .. . ... ... : ... .. . ... ... : ... .. . ... : ... .. . ... ... : ... .. . ... ... ... ...
ROW 87 : ... .. . ... ... : ... .. . ... ... : ... .. . ... ... : ... .. . ... : ... .. . ... ... : ... .. . ... ... ... ...
ROW 88 : ... .. . ... ... : ... .. . ... ... : ... .. . ... ... : ... .. . ... : ... .. . ... ... : ... .. . ... ... ... ...
ROW 89 : ... .. . ... ... : ... .. . ... ... : ... .. . ... ... : ... .. . ... : ... .. . ... ... : ... .. . ... ... ... ...
ROW 8A : ... .. . ... ... : ... .. . ... ... : ... .. . ... ... : ... .. . ... : ... .. . ... ... : ... .. . ... ... ... ...
ROW 8B : ... .. . ... ... : ... .. . ... ... : ... .. . ... ... : ... .. . ... : ... .. . ... ... : ... .. . ... ... ... ...
ROW 8C : ... .. . ... ... : ... .. . ... ... : ... .. . ... ... : ... .. . ... : ... .. . ... ... : ... .. . ... ... ... ...
ROW 8D : ... .. . ... ... : ... .. . ... ... : ... .. . ... ... : ... .. . ... : ... .. . ... ... : ... .. . ... ... ... ...
ROW 8E : ... .. . ... ... : ... .. . ... ... : ... .. . ... ... : ... .. . ... : ... .. . ... ... : ... .. . ... ... ... ...
ROW 8F : ... .. . ... ... : ... .. . ... ... : ... .. . ... ... : ... .. . ... : ... .. . ... ... : ... .. . ... ... ... ...
ROW 90 : ... .. . ... ... : ... .. . ... ... : ... .. . ... ... : ... .. . ... : ... .. . ... ... : ... .. . ... ... ... ...
ROW 91 : ... .. . ... ... : ... .. . ... ... : ... .. . ... ... : ... .. . ... : ... .. . ... ... : ... .. . ... ... ... ...
ROW 92 : ... .. . ... ... : ... .. . ... ... : ... .. . ... ... : ... .. . ... : ... .. . ... ... : ... .. . ... ... ... ...
ROW 93 : ... .. . ... ... : ... .. . ... ... : ... .. . ... ... : ... .. . ... : ... .. . ... ... : ... .. . ... ... ... ...
ROW 94 : ... .. . ... ... : ... .. . ... ... : ... .. . ... ... : ... .. . ... : ... .. . ... ... : ... .. . ... ... ... ...
ROW 95 : ... .. . ... ... : ... .. . ... ... : ... .. . ... ... : ... .. . ... : ... .. . ... ... : ... .. . ... ... ... ...
ROW 96 : ... .. . ... ... : ... .. . ... ... : ... .. . ... ... : ... .. . ... : ... .. . ... ... : ... .. . ... ... ... ...
ROW 97 : ... .. . ... ... : ... .. . ... ... : ... .. . ... ... : ... .. . ... : ... .. . ... ... : ... .. . ... ... ... ...
ROW 98 : ... .. . ... ... : ... .. . ... ... : ... .. . ... ... : ... .. . ... : ... .. . ... ... : ... .. . ... ... ... ...
ROW 99 : ... .. . ... ... : ... .. . ... ... : ... .. . ... ... : ... .. . ... : ... .. . ... ... : ... .. . ... ... ... ...
ROW 9A : ... .. . ... ... : ... .. . ... ... : ... .. . ... ... : ... .. . ... : ... .. . ... ... : ... .. . ... ... ... ...
ROW 9B : ... .. . ... ... : ... .. . ... ... : ... .. . ... ... : ... .. . ... : ... .. . ... ... : ... .. . ... ... ... ...
ROW 9C : ... .. . ... ... : ... .. . ... ... : ... .. . ... ... : ... .. . ... : ... .. . ... ... : ... .. . ... ... ... ...
ROW 9D : ... .. . ... ... : ... .. . ... ... : ... .. . ... ... : ... .. . ... : ... .. . ... ... : ... .. . ... ... ... ...
ROW 9E : ... .. . ... ... : ... .. . ... ... : ... .. . ... ... : ... .. . ... : ... .. . ... ... : ... .. . ... ... ... ...
ROW 9F : ... .. . ... ... : ... .. . ... ... : ... .. . ... ... : ... .. . ... : ... .. . ... ... : ... .. . ... ... ... ...
ROW A0 : ... .. . ... ... : ... .. . ... ... : ... .. . ... ... : ... .. . ... : ... .. . ... ... : ... .. . ... ... ... ...
ROW A1 : ... .. . ... ... : ... .. . ... ... : ... .. . ... ... : ... .. . ... : ... .. . ... ... : ... .. . ... ... ... ...
ROW A2 : ... .. . ... ... : ... .. . ... ... : ... .. . ... ... : ... .. . ... : ... .. . ... ... : ... .. . ... ... ... ...
ROW A3 : ... .. . ... ... : ... .. . ... ... : ... .. . ... ... : ... .. . ... : ... .. . ... ... : ... .. . ... ... ... ...
ROW A4 : ... .. . ... ... : ... .. . ... ... : ... .. . ... ... : ... .. . ... : ... .. . ... ... : ... .. . ... ... ... ...
ROW A5 : ... .. . ... ... : ... .. . ... ... : ... .. . ... ... : ... .. . ... : ... .. . ... ... : ... .. . ... ... ... ...
ROW A6 : ... .. . ... ... : ... .. . ... ... : ... .. . ... ... : ... .. . ... : ... .. . ... ... : ... .. . ... ... ... ...
ROW A7 : ... .. . ... ... : ... .. . ... ... : ... .. . ... ... : ... .. . ... : ... .. . ... ... : ... .. . ... ... ... ...
ROW A8 : ... .. . ... ... : ... .. . ... ... : ... .. . ... ... : ... .. . ... : ... .. . ... ... : ... .. . ... ... ... ...
ROW A9 : ... .. . ... ... : ... .. . ... ... : ... .. . ... ... : ... .. . ... : ... .. . ... ... : ... .. . ... ... ... ...
ROW AA : ... .. . ... ... : ... .. . ... ... : ... .. . ... ... : ... .. . ... : ... .. . ... ... : ... .. . ... ... ... ...
ROW AB : ... .. . ... ... : ... .. . ... ... : ... .. . ... ... : ... .. . ... : ... .. . ... ... : ... .. . ... ... ... ...
ROW AC : ... .. . ... ... : ... .. . ... ... : ... .. . ... ... : ... .. . ... : ... .. . ... ... : ... .. . ... ... ... ...
ROW AD : ... .. . ... ... : ... .. . ... ... : ... .. . ... ... : ... .. . ... : ... .. . ... ... : ... .. . ... ... ... ...
ROW AE : ... .. . ... ... : ... .. . ... ... : ... .. . ... ... : ... .. . ... : ... .. . ... ... : ... .. . ... ... ... ...
ROW AF : ... .. . ... ... : ... .. . ... ... : ... .. . ... ... : ... .. . ... : ... .. . ... ... : ... .. . ... ... ... ...
ROW B0 : ... .. . ... ... : ... .. . ... ... : ... .. . ... ... : ... .. . ... : ... .. . ... ... : ... .. . ... ... ... ...
ROW B1 : ... .. . ... ... : ... .. . ... ... : ... .. . ... ... : ... .. . ... : ... .. . ... ... : ... .. . ... ... ... ...
ROW B2 : ... .. . ... ... : ... .. . ... ... : ... .. . ... ... : ... .. . ... : ... .. . ... ... : ... .. . ... ... ... ...
ROW B3 : ... .. . ... ... : ... .. . ... ... : ... .. . ... ... : ... .. . ... : ... .. . ... ... : ... .. . ... ... ... ...
ROW B4 : ... .. . ... ... : ... .. . ... ... : ... .. . ... ... : ... .. . ... : ... .. . ... ... : ... .. . ... ... ... ...
ROW B5 : ... .. . ... ... : ... .. . ... ... : ... .. . ... ... : ... .. . ... : ... .. . ... ... : ... .. . ... ... ... ...
ROW B6 : ... .. . ... ... : ... .. . ... ... : ... .. . ... ... : ... .. . ... : ... .. . ... ... : ... .. . ... ... ... ...
ROW B7 : ... .. . ... ... : ... .. . ... ... : ... .. . ... ... : ... .. . ... : ... .. . ... ... : ... .. . ... ... ... ...
ROW B8 : ... .. . ... ... : ... .. . ... ... : ... .. . ... ... : ... .. . ... : ... .. . ... ... : ... .. . ... ... ... ...
ROW B9 : ... .. . ... ... : ... .. . ... ... : ... .. . ... ... : ... .. . ... : ... .. . ... ... : ... .. . ... ... ... ...
ROW BA : ... .. . ... ... : ... .. . ... ... : ... .. . ... ... : ... .. . ... : ... .. . ... ... : ... .. . ... ... ... ...
ROW BB : ... .. . ... ... : ... .. . ... ... : ... .. . ... ... : ... .. . ... : ... .. . ... ... : ... .. . ... ... ... ...
ROW BC : ... .. . ... ... : ... .. . ... ... : ... .. . ... ... : ... .. . ... : ... .. . ... ... : ... .. . ... ... ... ...
ROW BD : ... .. . ... ... : ... .. . ... ... : ... .. . ... ... : ... .. . ... : ... .. . ... ... : ... .. . ... ... ... ...
ROW BE : ... .. . ... ... : ... .. . ... ... : ... .. . ... ... : ... .. . ... : ... .. . ... ... : ... .. . ... ... ... ...
ROW BF : ... .. . ... ... : ... .. . ... ... : ... .. . ... ... : ... .. . ... : ... .. . ... ... : ... .. . ... ... ... ...
ROW C0 : ... .. . ... ... : ... .. . ... ... : ... .. . ... ... : ... .. . ... : ... .. . ... ... : ... .. . ... ... ... ...
ROW C1 : ... .. . ... ... : ... .. . ... ... : ... .. . ... ... : ... .. . ... : ... .. . ... ... : ... .. . ... ... ... ...
ROW C2 : ... .. . ... ... : ... .. . ... ... : ... .. . ... ... : ... .. . ... : ... .. . ... ... : ... .. . ... ... ... ...
ROW C3 : ... .. . ... ... : ... .. . ... ... : ... .. . ... ... : ... .. . ... : ... .. . ... ... : ... .. . ... ... ... ...
ROW C4 : ... .. . ... ... : ... .. . ... ... : ... .. . ... ... : ... .. . ... : ... .. . ... ... : ... .. . ... ... ... ...
ROW C5 : ... .. . ... ... : ... .. . ... ... : ... .. . ... ... : ... .. . ... : ... .. . ... ... : ... .. . ... ... ... ...
ROW C6 : ... .. . ... ... : ... .. . ... ... : ... .. . ... ... : ... .. . ... : ... .. . ... ... : ... .. . ... ... ... ...
ROW C7 : ... .. . ... ... : ... .. . ... ... : ... .. . ... ... : ... .. . ... : ... .. . ... ... : ... .. . ... ... ... ...
ROW C8 : ... .. . ... ... : ... .. . ... ... : ... .. . ... ... : ... .. . ... : ... .. . ... ... : ... .. . ... ... ... ...
ROW C9 : ... .. . ... ... : ... .. . ... ... : ... .. . ... ... : ... .. . ... : ... .. . ... ... : ... .. . ... ... ... ...
ROW CA : ... .. . ... ... : ... .. . ... ... : ... .. . ... ... : ... .. . ... : ... .. . ... ... : ... .. . ... ... ... ...
ROW CB : ... .. . ... ... : ... .. . ... ... : ... .. . ... ... : ... .. . ... : ... .. . ... ... : ... .. . ... ... ... ...
ROW CC : ... .. . ... ... : ... .. . ... ... : ... .. . ... ... : ... .. . ... : ... .. . ... ... : ... .. . ... ... ... ...
ROW CD : ... .. . ... ... : ... .. . ... ... : ... .. . ... ... : ... .. . ... : ... .. . ... ... : ... .. . ... ... ... ...
ROW CE : ... .. . ... ... : ... .. . ... ... : ... .. . ... ... : ... .. . ... : ... .. . ... ... : ... .. . ... ... ... ...
ROW CF : ... .. . ... ... : ... .. . ... ... : ... .. . ... ... : ... .. . ... : ... .. . ... ... : ... .. . ... ... ... ...
ROW D0 : ... .. . ... ... : ... .. . ... ... : ... .. . ... ... : ... .. . ... : ... .. . ... ... : ... .. . ... ... ... ...
ROW D1 : ... .. . ... ... : ... .. . ... ... : ... .. . ... ... : ... .. . ... : ... .. . ... ... : ... .. . ... ... ... ...
ROW D2 : ... .. . ... ... : ... .. . ... ... : ... .. . ... ... : ... .. . ... : ... .. . ... ... : ... .. . ... ... ... ...
ROW D3 : ... .. . ... ... : ... .. . ... ... : ... .. . ... ... : ... .. . ... : ... .. . ... ... : ... .. . ... ... ... ...
ROW D4 : ... .. . ... ... : ... .. . ... ... : ... .. . ... ... : ... .. . ... : ... .. . ... ... : ... .. . ... ... ... ...
ROW D5 : ... .. . ... ... : ... .. . ... ... : ... .. . ... ... : ... .. . ... : ... .. . ... ... : ... .. . ... ... ... ...
ROW D6 : ... .. . ... ... : ... .. . ... ... : ... .. . ... ... : ... .. . ... : ... .. . ... ... : ... .. . ... ... ... ...
ROW D7 : ... .. . ... ... : ... .. . ... ... : ... .. . ... ... : ... .. . ... : ... .. . ... ... : ... .. . ... ... ... ...
ROW D8 : ... .. . ... ... : ... .. . ... ... : ... .. . ... ... : ... .. . ... : ... .. . ... ... : ... .. . ... ... ... ...
ROW D9 : ... .. . ... ... : ... .. . ... ... : ... .. . ... ... : ... .. . ... : ... .. . ... ... : ... .. . ... ... ... ...
ROW DA : ... .. . ... ... : ... .. . ... ... : ... .. . ... ... : ... .. . ... : ... .. . ... ... : ... .. . ... ... ... ...
ROW DB : ... .. . ... ... : ... .. . ... ... : ... .. . ... ... : ... .. . ... : ... .. . ... ... : ... .. . ... ... ... ...
ROW DC : ... .. . ... ... : ... .. . ... ... : ... .. . ... ... : ... .. . ... : ... .. . ... ... : ... .. . ... ... ... ...
ROW DD : ... .. . ... ... : ... .. . ... ... : ... .. . ... ... : ... .. . ... : ... .. . ... ... : ... .. . ... ... ... ...
ROW DE : ... .. . ... ... : ... .. . ... ... : ... .. . ... ... : ... .. . ... : ... .. . ... ... : ... .. . ... ... ... ...
ROW DF : ... .. . ... ... : ... .. . ... ... : ... .. . ... ... : ... .. . ... : ... .. . ... ... : ... .. . ... ... ... ...
ROW E0 : ... .. . ... ... : ... .. . ... ... : ... .. . ... ... : ... .. . ... : ... .. . ... ... : ... .. . ... ... ... ...
ROW E1 : ... .. . ... ... : ... .. . ... ... : ... .. . ... ... : ... .. . ... : ... .. . ... ... : ... .. . ... ... ... ...
ROW E2 : ... .. . ... ... : ... .. . ... ... : ... .. . ... ... : ... .. . ... : ... .. . ... ... : ... .. . ... ... ... ...
ROW E3 : ... .. . ... ... : ... .. . ... ... : ... .. . ... ... : ... .. . ... : ... .. . ... ... : ... .. . ... ... ... ...
ROW E4 : ... .. . ... ... : ... .. . ... ... : ... .. . ... ... : ... .. . ... : ... .. . ... ... : ... .. . ... ... ... ...
ROW E5 : ... .. . ... ... : ... .. . ... ... : ... .. . ... ... : ... .. . ... : ... .. . ... ... : ... .. . ... ... ... ...
ROW E6 : ... .. . ... ... : ... .. . ... ... : ... .. . ... ... : ... .. . ... : ... .. . ... ... : ... .. . ... ... ... ...
ROW E7 : ... .. . ... ... : ... .. . ... ... : ... .. . ... ... : ... .. . ... : ... .. . ... ... : ... .. . ... ... ... ...
ROW E8 : ... .. . ... ... : ... .. . ... ... : ... .. . ... ... : ... .. . ... : ... .. . ... ... : ... .. . ... ... ... ...
ROW E9 : ... .. . ... ... : ... .. . ... ... : ... .. . ... ... : ... .. . ... : ... .. . ... ... : ... .. . ... ... ... ...
ROW EA : ... .. . ... ... : ... .. . ... ... : ... .. . ... ... : ... .. . ... : ... .. . ... ... : ... .. . ... ... ... ...
ROW EB : ... .. . ... ... : ... .. . ... ... : ... .. . ... ... : ... .. . ... : ... .. . ... ... : ... .. . ... ... ... ...
ROW EC : ... .. . ... ... : ... .. . ... ... : ... .. . ... ... : ... .. . ... : ... .. . ... ... : ... .. . ... ... ... ...
ROW ED : ... .. . ... ... : ... .. . ... ... : ... .. . ... ... : ... .. . ... : ... .. . ... ... : ... .. . ... ... ... ...
ROW EE : ... .. . ... ... : ... .. . ... ... : ... .. . ... ... : ... .. . ... : ... .. . ... ... : ... .. . ... ... ... ...
ROW EF : ... .. . ... ... : ... .. . ... ... : ... .. . ... ... : ... .. . ... : ... .. . ... ... : ... .. . ... ... ... ...
ROW F0 : ... .. . ... ... : ... .. . ... ... : ... .. . ... ... : ... .. . ... : ... .. . ... ... : ... .. . ... ... ... ...
ROW F1 : ... .. . ... ... : ... .. . ... ... : ... .. . ... ... : ... .. . ... : ... .. . ... ... : ... .. . ... ... ... ...
ROW F2 : ... .. . ... ... : ... .. . ... ... : ... .. . ... ... : ... .. . ... : ... .. . ... ... : ... .. . ... ... ... ...
ROW F3 : ... .. . ... ... : ... .. . ... ... : ... .. . ... ... : ... .. . ... : ... .. . ... ... : ... .. . ... ... ... ...
ROW F4 : ... .. . ... ... : ... .. . ... ... : ... .. . ... ... : ... .. . ... : ... .. . ... ... : ... .. . ... ... ... ...
ROW F5 : ... .. . ... ... : ... .. . ... ... : ... .. . ... ... : ... .. . ... : ... .. . ... ... : ... .. . ... ... ... ...
ROW F6 : ... .. . ... ... : ... .. . ... ... : ... .. . ... ... : ... .. . ... : ... .. . ... ... : ... .. . ... ... ... ...
ROW F7 : ... .. . ... ... : ... .. . ... ... : ... .. . ... ... : ... .. . ... : ... .. . ... ... : ... .. . ... ... ... ...
ROW F8 : ... .. . ... ... : ... .. . ... ... : ... .. . ... ... : ... .. . ... : ... .. . ... ... : ... .. . ... ... ... ...
ROW F9 : ... .. . ... ... : ... .. . ... ... : ... .. . ... ... : ... .. . ... : ... .. . ... ... : ... .. . ... ... ... ...
ROW FA : ... .. . ... ... : ... .. . ... ... : ... .. . ... ... : ... .. . ... : ... .. . ... ... : ... .. . ... ... ... ...
ROW FB : ... .. . ... ... : ... .. . ... ... : ... .. . ... ... : ... .. . ... : ... .. . ... ... : ... .. . ... ... ... ...
ROW FC : ... .. . ... ... : ... .. . ... ... : ... .. . ... ... : ... .. . ... : ... .. . ... ... : ... .. . ... ... ... ...
ROW FD : ... .. . ... ... : ... .. . ... ... : ... .. . ... ... : ... .. . ... : ... .. . ... ... : ... .. . ... ... ... ...
ROW FE : ... .. . ... ... : ... .. . ... ... : ... .. . ... ... : ... .. . ... : ... .. . ... ... : ... .. . ... ... ... ...
ROW FF : ... .. . ... ... : ... .. . ... ... : ... .. . ... ... : ... .. . ... : ... .. . ... ... : ... .. . ... ... ... ...

PATTERN 22
ROW 00 : ... .. . ... ... : ... .. . ... ... : F#4 03 . 236 ... : ... .. . ... : ... .. . ... ... : C-5 1D E 400 ... ... ...
ROW 01 : ... .. . ... ... : ... .. . ... ... : ... .. . ... ... : ... .. . ... : ... .. . ... ... : ... .. 5 ... ... ... ...
ROW 02 : ... .. . ... ... : ... .. . ... ... : ... .. . ... ... : ... .. . ... : ... .. . ... ... : F-5 1D E G02 ... ... ...
ROW 03 : ... .. . ... ... : ... .. . ... ... : ... .. . ... ... : ... .. . ... : ... .. . ... ... : ... .. . ... ... ... ...
ROW 04 : ... .. . ... ... : ... .. . ... ... : ... .. . ... ... : ... .. . ... : ... .. . ... ... : ... .. 5 ... ... ... ...
ROW 05 : ... .. . ... ... : ... .. . ... ... : ... .. . ... ... : ... .. . ... : ... .. . ... ... : A-5 1D E G01 ... ... ...
ROW 06 : ... .. . ... ... : ... .. . ... ... : ... .. . ... ... : ... .. . ... : ... .. . ... ... : ... .. . ... ... ... ...
ROW 07 : ... .. . ... ... : ... .. . ... ... : ... .. . ... ... : ... .. . ... : ... .. . ... ... : ... .. 5 ... ... ... ...
ROW 08 : ... .. . ... ... : ... .. . ... ... : F#4 03 . ... ... : ... .. . ... : ... .. . ... ... : C-6 1D E ... ... ... ...
ROW 09 : ... .. . ... ... : ... .. . ... ... : ... .. . ... ... : ... .. . ... : ... .. . ... ... : ... .. D ... ... ... ...
ROW 0A : ... .. . ... ... : ... .. . ... ... : F#4 03 . G02 ... : ... .. . ... : ... .. . ... ... : ... .. C ... ... ... ...
ROW 0B : ... .. . ... ... : ... .. . ... ... : ... .. . ... ... : ... .. . ... : ... .. . ... ... : ... .. B ... ... ... ...
ROW 0C : ... .. . ... ... : ... .. . ... ... : ... .. . ... ... : ... .. . ... : ... .. . ... ... : ... .. A 468 ... ... ...
ROW 0D : ... .. . ... ... : ... .. . ... ... : F#4 03 . G01 ... : ... .. . ... : ... .. . ... ... : ... .. 9 ... ... ... ...
ROW 0E : ... .. . ... ... : ... .. . ... ... : ... .. . ... ... : ... .. . ... : ... .. . ... ... : ... .. 8 ... ... ... ...
ROW 0F : ... .. . ... ... : ... .. . ... ... : ... .. . ... ... : ... .. . ... : ... .. . ... ... : ... .. 7 ... ... ... ...
ROW 10 : ... .. . ... ... : ... .. . ... ... : F#4 03 . ... ... : ... .. . ... : ... .. . ... ... : D-5 1D E 400 ... ... ...
ROW 11 : ... .. . ... ... : ... .. . ... ... : ... .. . ... ... : ... .. . ... : ... .. . ... ... : ... .. 5 ... ... ... ...
ROW 12 : ... .. . ... ... : ... .. . ... ... : ... .. . ... ... : ... .. . ... : ... .. . ... ... : G-5 1D E G02 ... ... ...
ROW 13 : ... .. . ... ... : ... .. . ... ... : ... .. . ... ... : ... .. . ... : ... .. . ... ... : ... .. . ... ... ... ...
ROW 14 : ... .. . ... ... : ... .. . ... ... : --- .. . 200 ... : ... .. . ... : ... .. . ... ... : ... .. 5 ... ... ... ...
ROW 15 : ... .. . ... ... : ... .. . ... ... : ... .. . ... ... : ... .. . ... : ... .. . ... ... : B-5 1D E G01 ... ... ...
ROW 16 : ... .. . ... ... : ... .. . ... ... : ... .. . ... ... : ... .. . ... : ... .. . ... ... : ... .. . ... ... ... ...
ROW 17 : ... .. . ... ... : ... .. . ... ... : ... .. . ... ... : ... .. . ... : ... .. . ... ... : ... .. 5 ... ... ... ...
ROW 18 : ... .. . ... ... : ... .. . ... ... : ... .. . ... ... : ... .. . ... : ... .. . ... ... : D-6 1D E ... ... ... ...
ROW 19 : ... .. . ... ... : ... .. . ... ... : ... .. . ... ... : ... .. . ... : ... .. . ... ... : ... .. D ... ... ... ...
ROW 1A : ... .. . ... ... : ... .. . ... ... : ... .. . ... ... : ... .. . ... : ... .. . ... ... : ... .. C ... ... ... ...
ROW 1B : ... .. . ... ... : ... .. . ... ... : ... .. . ... ... : ... .. . ... : ... .. . ... ... : ... .. B ... ... ... ...
ROW 1C : ... .. . ... ... : ... .. . ... ... : ... .. . ... ... : ... .. . ... : ... .. . ... ... : ... .. A 468 ... ... ...
ROW 1D : ... .. . ... ... : ... .. . ... ... : ... .. . ... ... : ... .. . ... : ... .. . ... ... : ... .. 9 ... ... ... ...
ROW 1E : ... .. . ... ... : ... .. . ... ... : ... .. . ... ... : ... .. . ... : ... .. . ... ... : ... .. 8 ... ... ... ...
ROW 1F : ... .. . ... ... : ... .. . ... ... : ... .. . ... ... : ... .. . ... : ... .. . ... ... : ... .. 7 ... ... ... ...
ROW 20 : ... .. . ... ... : ... .. . ... ... : ... .. . ... ... : ... .. . ... : ... .. . ... ... : F-5 1D E 400 ... ... ...
ROW 21 : ... .. . ... ... : ... .. . ... ... : ... .. . ... ... : ... .. . ... : ... .. . ... ... : ... .. 5 ... ... ... ...
ROW 22 : ... .. . ... ... : ... .. . ... ... : ... .. . ... ... : ... .. . ... : ... .. . ... ... : A-5 1D E G02 ... ... ...
ROW 23 : ... .. . ... ... : ... .. . ... ... : ... .. . ... ... : ... .. . ... : ... .. . ... ... : ... .. . ... ... ... ...
ROW 24 : ... .. . ... ... : ... .. . ... ... : ... .. . ... ... : ... .. . ... : ... .. . ... ... : ... .. 5 ... ... ... ...
ROW 25 : ... .. . ... ... : ... .. . ... ... : ... .. . ... ... : ... .. . ... : ... .. . ... ... : C-6 1D E G01 ... ... ...
ROW 26 : ... .. . ... ... : ... .. . ... ... : ... .. . ... ... : ... .. . ... : ... .. . ... ... : ... .. . ... ... ... ...
ROW 27 : ... .. . ... ... : ... .. . ... ... : ... .. . ... ... : ... .. . ... : ... .. . ... ... : ... .. 5 ... ... ... ...
ROW 28 : ... .. . ... ... : ... .. . ... ... : ... .. . ... ... : ... .. . ... : ... .. . ... ... : F-6 1D E ... ... ... ...
ROW 29 : ... .. . ... ... : ... .. . ... ... : ... .. . ... ... : ... .. . ... : ... .. . ... ... : ... .. D ... ... ... ...
ROW 2A : ... .. . ... ... : ... .. . ... ... : ... .. . ... ... : ... .. . ... : ... .. . ... ... : ... .. C ... ... ... ...
ROW 2B : ... .. . ... ... : ... .. . ... ... : ... .. . ... ... : ... .. . ... : ... .. . ... ... : ... .. B ... ... ... ...
ROW 2C : ... .. . ... ... : ... .. . ... ... : ... .. . ... ... : ... .. . ... : ... .. . ... ... : ... .. A 468 ... ... ...
ROW 2D : ... .. . ... ... : ... .. . ... ... : ... .. . ... ... : ... .. . ... : ... .. . ... ... : ... .. 9 ... ... ... ...
ROW 2E : ... .. . ... ... : ... .. . ... ... : ... .. . ... ... : ... .. . ... : ... .. . ... ... : ... .. 8 ... ... ... ...
ROW 2F : ... .. . ... ... : ... .. . ... ... : ... .. . ... ... : ... .. . ... : ... .. . ... ... : ... .. 7 ... ... ... ...
ROW 30 : ... .. . ... ... : ... .. . ... ... : ... 01 0 000 ... : ... .. . ... : ... .. . ... ... : G-5 1D E 400 ... ... ...
ROW 31 : ... .. . ... ... : ... .. . ... ... : C-3 .. . ... ... : ... .. . ... : ... .. . ... ... : ... .. 5 ... ... ... ...
ROW 32 : ... .. . ... ... : ... .. . ... ... : C-3 .. . ... ... : ... .. . ... : ... .. . ... ... : B-5 1D E G02 ... ... ...
ROW 33 : ... .. . ... ... : ... .. . ... ... : C-3 01 0 000 ... : ... .. . ... : ... .. . ... ... : ... .. . ... ... ... ...
ROW 34 : ... .. . ... ... : ... .. . ... ... : ... .. . 000 ... : ... .. . ... : ... .. . ... ... : ... .. 5 ... ... ... ...
ROW 35 : ... .. . ... ... : ... .. . ... ... : ... .. . 000 ... : ... .. . ... : ... .. . ... ... : D-6 1D E G01 ... ... ...
ROW 36 : ... .. . ... ... : ... .. . ... ... : C-3 01 0 ... ... : ... .. . ... : ... .. . ... ... : ... .. . ... ... ... ...
ROW 37 : ... .. . ... ... : ... .. . ... ... : ... .. . ... ... : ... .. . ... : ... .. . ... ... : ... .. 5 ... ... ... ...
ROW 38 : ... .. . ... ... : ... .. . ... ... : C-3 .. . 000 ... : ... .. . ... : ... .. . ... ... : G-6 1D E ... ... ... ...
ROW 39 : ... .. . ... ... : ... .. . ... ... : C-3 .. . 000 ... : ... .. . ... : ... .. . ... ... : ... .. D ... ... ... ...
ROW 3A : ... .. . ... ... : ... .. . ... ... : C-3 .. . 000 ... : ... .. . ... : ... .. . ... ... : ... .. C ... ... ... ...
ROW 3B : ... .. . ... ... : ... .. . ... ... : C-3 .. . 000 ... : ... .. . ... : ... .. . ... ... : ... .. B ... ... ... ...
ROW 3C : ... .. . ... ... : ... .. . ... ... : C-3 .. . 000 ... : ... .. . ... : ... .. . ... ... : ... .. A 468 ... ... ...
ROW 3D : ... .. . ... ... : ... .. . ... ... : C-3 .. . 000 ... : ... .. . ... : ... .. . ... ... : ... .. 9 ... ... ... ...
ROW 3E : ... .. . ... ... : ... .. . ... ... : ... 01 0 ... ... : ... .. . ... : ... .. . ... ... : ... .. 8 ... ... ... ...
ROW 3F : ... .. . ... ... : ... .. . ... ... : ... .. . ... ... : ... .. . ... : ... .. . ... ... : ... .. 7 ... ... ... ...
ROW 40 : ... .. . ... ... : ... .. . ... ... : C-3 01 0 ... ... : ... .. . ... : ... .. . ... ... : ... .. . ... ... ... ...
ROW 41 : ... .. . ... ... : ... .. . ... ... : C-3 .. . 000 ... : ... .. . ... : ... .. . ... ... : ... .. . ... ... ... ...
ROW 42 : ... .. . ... ... : ... .. . ... ... : C-3 .. . 000 ... : ... .. . ... : ... .. . ... ... : ... .. . ... ... ... ...
ROW 43 : ... .. . ... ... : ... .. . ... ... : C-3 01 0 ... ... : ... .. . ... : ... .. . ... ... : ... .. . ... ... ... ...
ROW 44 : ... .. . ... ... : ... .. . ... ... : C-3 .. . ... ... : ... .. . ... : ... .. . ... ... : ... .. . ... ... ... ...
ROW 45 : ... .. . ... ... : ... .. . ... ... : C-3 .. . ... ... : ... .. . ... : ... .. . ... ... : ... .. . ... ... ... ...
ROW 46 : ... .. . ... ... : ... .. . ... ... : C-3 .. . ... ... : ... .. . ... : ... .. . ... ... : ... .. . ... ... ... ...
ROW 47 : ... .. . ... ... : ... .. . ... ... : ... .. . ... ... : ... .. . ... : ... .. . ... ... : ... .. . ... ... ... ...
ROW 48 : ... .. . ... ... : ... .. . ... ... : ... .. . ... ... : ... .. . ... : ... .. . ... ... : ... .. . ... ... ... ...
ROW 49 : ... .. . ... ... : ... .. . ... ... : ... .. . ... ... : ... .. . ... : ... .. . ... ... : ... .. . ... ... ... ...
ROW 4A : ... .. . ... ... : ... .. . ... ... : ... .. . ... ... : ... .. . ... : ... .. . ... ... : ... .. . ... ... ... ...
ROW 4B : ... .. . ... ... : ... .. . ... ... : ... .. . ... ... : ... .. . ... : ... .. . ... ... : ... .. . ... ... ... ...
ROW 4C : ... .. . ... ... : ... .. . ... ... : ... .. . ... ... : ... .. . ... : ... .. . ... ... : ... .. . ... ... ... ...
ROW 4D : ... .. . ... ... : ... .. . ... ... : ... .. . ... ... : ... .. . ... : ... .. . ... ... : ... .. . ... ... ... ...
ROW 4E : ... .. . ... ... : ... .. . ... ... : ... .. . ... ... : ... .. . ... : ... .. . ... ... : ... .. . ... ... ... ...
ROW 4F : ... .. . ... ... : ... .. . ... ... : ... .. . ... ... : ... .. . ... : ... .. . ... ... : ... .. . ... ... ... ...
ROW 50 : ... .. . ... ... : ... .. . ... ... : ... .. . ... ... : ... .. . ... : ... .. . ... ... : ... .. . ... ... ... ...
ROW 51 : ... .. . ... ... : ... .. . ... ... : ... .. . ... ... : ... .. . ... : ... .. . ... ... : ... .. . ... ... ... ...
ROW 52 : ... .. . ... ... : ... .. . ... ... : ... .. . ... ... : ... .. . ... : ... .. . ... ... : ... .. . ... ... ... ...
ROW 53 : ... .. . ... ... : ... .. . ... ... : ... .. . ... ... : ... .. . ... : ... .. . ... ... : ... .. . ... ... ... ...
ROW 54 : ... .. . ... ... : ... .. . ... ... : ... .. . ... ... : ... .. . ... : ... .. . ... ... : ... .. . ... ... ... ...
ROW 55 : ... .. . ... ... : ... .. . ... ... : ... .. . ... ... : ... .. . ... : ... .. . ... ... : ... .. . ... ... ... ...
ROW 56 : ... .. . ... ... : ... .. . ... ... : ... .. . ... ... : ... .. . ... : ... .. . ... ... : ... .. . ... ... ... ...
ROW 57 : ... .. . ... ... : ... .. . ... ... : ... .. . ... ... : ... .. . ... : ... .. . ... ... : ... .. . ... ... ... ...
ROW 58 : ... .. . ... ... : ... .. . ... ... : ... .. . ... ... : ... .. . ... : ... .. . ... ... : ... .. . ... ... ... ...
ROW 59 : ... .. . ... ... : ... .. . ... ... : ... .. . ... ... : ... .. . ... : ... .. . ... ... : ... .. . ... ... ... ...
ROW 5A : ... .. . ... ... : ... .. . ... ... : ... .. . ... ... : ... .. . ... : ... .. . ... ... : ... .. . ... ... ... ...
ROW 5B : ... .. . ... ... : ... .. . ... ... : ... .. . ... ... : ... .. . ... : ... .. . ... ... : ... .. . ... ... ... ...
ROW 5C : ... .. . ... ... : ... .. . ... ... : ... .. . ... ... : ... .. . ... : ... .. . ... ... : ... .. . ... ... ... ...
ROW 5D : ... .. . ... ... : ... .. . ... ... : ... .. . ... ... : ... .. . ... : ... .. . ... ... : ... .. . ... ... ... ...
ROW 5E : ... .. . ... ... : ... .. . ... ... : ... .. . ... ... : ... .. . ... : ... .. . ... ... : ... .. . ... ... ... ...
ROW 5F : ... .. . ... ... : ... .. . ... ... : ... .. . ... ... : ... .. . ... : ... .. . ... ... : ... .. . ... ... ... ...
ROW 60 : ... .. . ... ... : ... .. . ... ... : ... .. . ... ... : ... .. . ... : ... .. . ... ... : ... .. . ... ... ... ...
ROW 61 : ... .. . ... ... : ... .. . ... ... : ... .. . ... ... : ... .. . ... : ... .. . ... ... : ... .. . ... ... ... ...
ROW 62 : ... .. . ... ... : ... .. . ... ... : ... .. . ... ... : ... .. . ... : ... .. . ... ... : ... .. . ... ... ... ...
ROW 63 : ... .. . ... ... : ... .. . ... ... : ... .. . ... ... : ... .. . ... : ... .. . ... ... : ... .. . ... ... ... ...
ROW 64 : ... .. . ... ... : ... .. . ... ... : ... .. . ... ... : ... .. . ... : ... .. . ... ... : ... .. . ... ... ... ...
ROW 65 : ... .. . ... ... : ... .. . ... ... : ... .. . ... ... : ... .. . ... : ... .. . ... ... : ... .. . ... ... ... ...
ROW 66 : ... .. . ... ... : ... .. . ... ... : ... .. . ... ... : ... .. . ... : ... .. . ... ... : ... .. . ... ... ... ...
ROW 67 : ... .. . ... ... : ... .. . ... ... : ... .. . ... ... : ... .. . ... : ... .. . ... ... : ... .. . ... ... ... ...
ROW 68 : ... .. . ... ... : ... .. . ... ... : ... .. . ... ... : ... .. . ... : ... .. . ... ... : ... .. . ... ... ... ...
ROW 69 : ... .. . ... ... : ... .. . ... ... : ... .. . ... ... : ... .. . ... : ... .. . ... ... : ... .. . ... ... ... ...
ROW 6A : ... .. . ... ... : ... .. . ... ... : ... .. . ... ... : ... .. . ... : ... .. . ... ... : ... .. . ... ... ... ...
ROW 6B : ... .. . ... ... : ... .. . ... ... : ... .. . ... ... : ... .. . ... : ... .. . ... ... : ... .. . ... ... ... ...
ROW 6C : ... .. . ... ... : ... .. . ... ... : ... .. . ... ... : ... .. . ... : ... .. . ... ... : ... .. . ... ... ... ...
ROW 6D : ... .. . ... ... : ... .. . ... ... : ... .. . ... ... : ... .. . ... : ... .. . ... ... : ... .. . ... ... ... ...
ROW 6E : ... .. . ... ... : ... .. . ... ... : ... .. . ... ... : ... .. . ... : ... .. . ... ... : ... .. . ... ... ... ...
ROW 6F : ... .. . ... ... : ... .. . ... ... : ... .. . ... ... : ... .. . ... : ... .. . ... ... : ... .. . ... ... ... ...
ROW 70 : ... .. . ... ... : ... .. . ... ... : ... .. . ... ... : ... .. . ... : ... .. . ... ... : ... .. . ... ... ... ...
ROW 71 : ... .. . ... ... : ... .. . ... ... : ... .. . ... ... : ... .. . ... : ... .. . ... ... : ... .. . ... ... ... ...
ROW 72 : ... .. . ... ... : ... .. . ... ... : ... .. . ... ... : ... .. . ... : ... .. . ... ... : ... .. . ... ... ... ...
ROW 73 : ... .. . ... ... : ... .. . ... ... : ... .. . ... ... : ... .. . ... : ... .. . ... ... : ... .. . ... ... ... ...
ROW 74 : ... .. . ... ... : ... .. . ... ... : ... .. . ... ... : ... .. . ... : ... .. . ... ... : ... .. . ... ... ... ...
ROW 75 : ... .. . ... ... : ... .. . ... ... : ... .. . ... ... : ... .. . ... : ... .. . ... ... : ... .. . ... ... ... ...
ROW 76 : ... .. . ... ... : ... .. . ... ... : ... .. . ... ... : ... .. . ... : ... .. . ... ... : ... .. . ... ... ... ...
ROW 77 : ... .. . ... ... : ... .. . ... ... : ... .. . ... ... : ... .. . ... : ... .. . ... ... : ... .. . ... ... ... ...
ROW 78 : ... .. . ... ... : ... .. . ... ... : ... .. . ... ... : ... .. . ... : ... .. . ... ... : ... .. . ... ... ... ...
ROW 79 : ... .. . ... ... : ... .. . ... ... : ... .. . ... ... : ... .. . ... : ... .. . ... ... : ... .. . ... ... ... ...
ROW 7A : ... .. . ... ... : ... .. . ... ... : ... .. . ... ... : ... .. . ... : ... .. . ... ... : ... .. . ... ... ... ...
ROW 7B : ... .. . ... ... : ... .. . ... ... : ... .. . ... ... : ... .. . ... : ... .. . ... ... : ... .. . ... ... ... ...
ROW 7C : ... .. . ... ... : ... .. . ... ... : ... .. . ... ... : ... .. . ... : ... .. . ... ... : ... .. . ... ... ... ...
ROW 7D : ... .. . ... ... : ... .. . ... ... : ... .. . ... ... : ... .. . ... : ... .. . ... ... : ... .. . ... ... ... ...
ROW 7E : ... .. . ... ... : ... .. . ... ... : ... .. . ... ... : ... .. . ... : ... .. . ... ... : ... .. . ... ... ... ...
ROW 7F : ... .. . ... ... : ... .. . ... ... : ... .. . ... ... : ... .. . ... : ... .. . ... ... : ... .. . ... ... ... ...
ROW 80 : ... .. . ... ... : ... .. . ... ... : ... .. . ... ... : ... .. . ... : ... .. . ... ... : ... .. . ... ... ... ...
ROW 81 : ... .. . ... ... : ... .. . ... ... : ... .. . ... ... : ... .. . ... : ... .. . ... ... : ... .. . ... ... ... ...
ROW 82 : ... .. . ... ... : ... .. . ... ... : ... .. . ... ... : ... .. . ... : ... .. . ... ... : ... .. . ... ... ... ...
ROW 83 : ... .. . ... ... : ... .. . ... ... : ... .. . ... ... : ... .. . ... : ... .. . ... ... : ... .. . ... ... ... ...
ROW 84 : ... .. . ... ... : ... .. . ... ... : ... .. . ... ... : ... .. . ... : ... .. . ... ... : ... .. . ... ... ... ...
ROW 85 : ... .. . ... ... : ... .. . ... ... : ... .. . ... ... : ... .. . ... : ... .. . ... ... : ... .. . ... ... ... ...
ROW 86 : ... .. . ... ... : ... .. . ... ... : ... .. . ... ... : ... .. . ... : ... .. . ... ... : ... .. . ... ... ... ...
ROW 87 : ... .. . ... ... : ... .. . ... ... : ... .. . ... ... : ... .. . ... : ... .. . ... ... : ... .. . ... ... ... ...
ROW 88 : ... .. . ... ... : ... .. . ... ... : ... .. . ... ... : ... .. . ... : ... .. . ... ... : ... .. . ... ... ... ...
ROW 89 : ... .. . ... ... : ... .. . ... ... : ... .. . ... ... : ... .. . ... : ... .. . ... ... : ... .. . ... ... ... ...
ROW 8A : ... .. . ... ... : ... .. . ... ... : ... .. . ... ... : ... .. . ... : ... .. . ... ... : ... .. . ... ... ... ...
ROW 8B : ... .. . ... ... : ... .. . ... ... : ... .. . ... ... : ... .. . ... : ... .. . ... ... : ... .. . ... ... ... ...
ROW 8C : ... .. . ... ... : ... .. . ... ... : ... .. . ... ... : ... .. . ... : ... .. . ... ... : ... .. . ... ... ... ...
ROW 8D : ... .. . ... ... : ... .. . ... ... : ... .. . ... ... : ... .. . ... : ... .. . ... ... : ... .. . ... ... ... ...
ROW 8E : ... .. . ... ... : ... .. . ... ... : ... .. . ... ... : ... .. . ... : ... .. . ... ... : ... .. . ... ... ... ...
ROW 8F : ... .. . ... ... : ... .. . ... ... : ... .. . ... ... : ... .. . ... : ... .. . ... ... : ... .. . ... ... ... ...
ROW 90 : ... .. . ... ... : ... .. . ... ... : ... .. . ... ... : ... .. . ... : ... .. . ... ... : ... .. . ... ... ... ...
ROW 91 : ... .. . ... ... : ... .. . ... ... : ... .. . ... ... : ... .. . ... : ... .. . ... ... : ... .. . ... ... ... ...
ROW 92 : ... .. . ... ... : ... .. . ... ... : ... .. . ... ... : ... .. . ... : ... .. . ... ... : ... .. . ... ... ... ...
ROW 93 : ... .. . ... ... : ... .. . ... ... : ... .. . ... ... : ... .. . ... : ... .. . ... ... : ... .. . ... ... ... ...
ROW 94 : ... .. . ... ... : ... .. . ... ... : ... .. . ... ... : ... .. . ... : ... .. . ... ... : ... .. . ... ... ... ...
ROW 95 : ... .. . ... ... : ... .. . ... ... : ... .. . ... ... : ... .. . ... : ... .. . ... ... : ... .. . ... ... ... ...
ROW 96 : ... .. . ... ... : ... .. . ... ... : ... .. . ... ... : ... .. . ... : ... .. . ... ... : ... .. . ... ... ... ...
ROW 97 : ... .. . ... ... : ... .. . ... ... : ... .. . ... ... : ... .. . ... : ... .. . ... ... : ... .. . ... ... ... ...
ROW 98 : ... .. . ... ... : ... .. . ... ... : ... .. . ... ... : ... .. . ... : ... .. . ... ... : ... .. . ... ... ... ...
ROW 99 : ... .. . ... ... : ... .. . ... ... : ... .. . ... ... : ... .. . ... : ... .. . ... ... : ... .. . ... ... ... ...
ROW 9A : ... .. . ... ... : ... .. . ... ... : ... .. . ... ... : ... .. . ... : ... .. . ... ... : ... .. . ... ... ... ...
ROW 9B : ... .. . ... ... : ... .. . ... ... : ... .. . ... ... : ... .. . ... : ... .. . ... ... : ... .. . ... ... ... ...
ROW 9C : ... .. . ... ... : ... .. . ... ... : ... .. . ... ... : ... .. . ... : ... .. . ... ... : ... .. . ... ... ... ...
ROW 9D : ... .. . ... ... : ... .. . ... ... : ... .. . ... ... : ... .. . ... : ... .. . ... ... : ... .. . ... ... ... ...
ROW 9E : ... .. . ... ... : ... .. . ... ... : ... .. . ... ... : ... .. . ... : ... .. . ... ... : ... .. . ... ... ... ...
ROW 9F : ... .. . ... ... : ... .. . ... ... : ... .. . ... ... : ... .. . ... : ... .. . ... ... : ... .. . ... ... ... ...
ROW A0 : ... .. . ... ... : ... .. . ... ... : ... .. . ... ... : ... .. . ... : ... .. . ... ... : ... .. . ... ... ... ...
ROW A1 : ... .. . ... ... : ... .. . ... ... : ... .. . ... ... : ... .. . ... : ... .. . ... ... : ... .. . ... ... ... ...
ROW A2 : ... .. . ... ... : ... .. . ... ... : ... .. . ... ... : ... .. . ... : ... .. . ... ... : ... .. . ... ... ... ...
ROW A3 : ... .. . ... ... : ... .. . ... ... : ... .. . ... ... : ... .. . ... : ... .. . ... ... : ... .. . ... ... ... ...
ROW A4 : ... .. . ... ... : ... .. . ... ... : ... .. . ... ... : ... .. . ... : ... .. . ... ... : ... .. . ... ... ... ...
ROW A5 : ... .. . ... ... : ... .. . ... ... : ... .. . ... ... : ... .. . ... : ... .. . ... ... : ... .. . ... ... ... ...
ROW A6 : ... .. . ... ... : ... .. . ... ... : ... .. . ... ... : ... .. . ... : ... .. . ... ... : ... .. . ... ... ... ...
ROW A7 : ... .. . ... ... : ... .. . ... ... : ... .. . ... ... : ... .. . ... : ... .. . ... ... : ... .. . ... ... ... ...
ROW A8 : ... .. . ... ... : ... .. . ... ... : ... .. . ... ... : ... .. . ... : ... .. . ... ... : ... .. . ... ... ... ...
ROW A9 : ... .. . ... ... : ... .. . ... ... : ... .. . ... ... : ... .. . ... : ... .. . ... ... : ... .. . ... ... ... ...
ROW AA : ... .. . ... ... : ... .. . ... ... : ... .. . ... ... : ... .. . ... : ... .. . ... ... : ... .. . ... ... ... ...
ROW AB : ... .. . ... ... : ... .. . ... ... : ... .. . ... ... : ... .. . ... : ... .. . ... ... : ... .. . ... ... ... ...
ROW AC : ... .. . ... ... : ... .. . ... ... : ... .. . ... ... : ... .. . ... : ... .. . ... ... : ... .. . ... ... ... ...
ROW AD : ... .. . ... ... : ... .. . ... ... : ... .. . ... ... : ... .. . ... : ... .. . ... ... : ... .. . ... ... ... ...
ROW AE : ... .. . ... ... : ... .. . ... ... : ... .. . ... ... : ... .. . ... : ... .. . ... ... : ... .. . ... ... ... ...
ROW AF : ... .. . ... ... : ... .. . ... ... : ... .. . ... ... : ... .. . ... : ... .. . ... ... : ... .. . ... ... ... ...
ROW B0 : ... .. . ... ... : ... .. . ... ... : ... .. . ... ... : ... .. . ... : ... .. . ... ... : ... .. . ... ... ... ...
ROW B1 : ... .. . ... ... : ... .. . ... ... : ... .. . ... ... : ... .. . ... : ... .. . ... ... : ... .. . ... ... ... ...
ROW B2 : ... .. . ... ... : ... .. . ... ... : ... .. . ... ... : ... .. . ... : ... .. . ... ... : ... .. . ... ... ... ...
ROW B3 : ... .. . ... ... : ... .. . ... ... : ... .. . ... ... : ... .. . ... : ... .. . ... ... : ... .. . ... ... ... ...
ROW B4 : ... .. . ... ... : ... .. . ... ... : ... .. . ... ... : ... .. . ... : ... .. . ... ... : ... .. . ... ... ... ...
ROW B5 : ... .. . ... ... : ... .. . ... ... : ... .. . ... ... : ... .. . ... : ... .. . ... ... : ... .. . ... ... ... ...
ROW B6 : ... .. . ... ... : ... .. . ... ... : ... .. . ... ... : ... .. . ... : ... .. . ... ... : ... .. . ... ... ... ...
ROW B7 : ... .. . ... ... : ... .. . ... ... : ... .. . ... ... : ... .. . ... : ... .. . ... ... : ... .. . ... ... ... ...
ROW B8 : ... .. . ... ... : ... .. . ... ... : ... .. . ... ... : ... .. . ... : ... .. . ... ... : ... .. . ... ... ... ...
ROW B9 : ... .. . ... ... : ... .. . ... ... : ... .. . ... ... : ... .. . ... : ... .. . ... ... : ... .. . ... ... ... ...
ROW BA : ... .. . ... ... : ... .. . ... ... : ... .. . ... ... : ... .. . ... : ... .. . ... ... : ... .. . ... ... ... ...
ROW BB : ... .. . ... ... : ... .. . ... ... : ... .. . ... ... : ... .. . ... : ... .. . ... ... : ... .. . ... ... ... ...
ROW BC : ... .. . ... ... : ... .. . ... ... : ... .. . ... ... : ... .. . ... : ... .. . ... ... : ... .. . ... ... ... ...
ROW BD : ... .. . ... ... : ... .. . ... ... : ... .. . ... ... : ... .. . ... : ... .. . ... ... : ... .. . ... ... ... ...
ROW BE : ... .. . ... ... : ... .. . ... ... : ... .. . ... ... : ... .. . ... : ... .. . ... ... : ... .. . ... ... ... ...
ROW BF : ... .. . ... ... : ... .. . ... ... : ... .. . ... ... : ... .. . ... : ... .. . ... ... : ... .. . ... ... ... ...
ROW C0 : ... .. . ... ... : ... .. . ... ... : ... .. . ... ... : ... .. . ... : ... .. . ... ... : ... .. . ... ... ... ...
ROW C1 : ... .. . ... ... : ... .. . ... ... : ... .. . ... ... : ... .. . ... : ... .. . ... ... : ... .. . ... ... ... ...
ROW C2 : ... .. . ... ... : ... .. . ... ... : ... .. . ... ... : ... .. . ... : ... .. . ... ... : ... .. . ... ... ... ...
ROW C3 : ... .. . ... ... : ... .. . ... ... : ... .. . ... ... : ... .. . ... : ... .. . ... ... : ... .. . ... ... ... ...
ROW C4 : ... .. . ... ... : ... .. . ... ... : ... .. . ... ... : ... .. . ... : ... .. . ... ... : ... .. . ... ... ... ...
ROW C5 : ... .. . ... ... : ... .. . ... ... : ... .. . ... ... : ... .. . ... : ... .. . ... ... : ... .. . ... ... ... ...
ROW C6 : ... .. . ... ... : ... .. . ... ... : ... .. . ... ... : ... .. . ... : ... .. . ... ... : ... .. . ... ... ... ...
ROW C7 : ... .. . ... ... : ... .. . ... ... : ... .. . ... ... : ... .. . ... : ... .. . ... ... : ... .. . ... ... ... ...
ROW C8 : ... .. . ... ... : ... .. . ... ... : ... .. . ... ... : ... .. . ... : ... .. . ... ... : ... .. . ... ... ... ...
ROW C9 : ... .. . ... ... : ... .. . ... ... : ... .. . ... ... : ... .. . ... : ... .. . ... ... : ... .. . ... ... ... ...
ROW CA : ... .. . ... ... : ... .. . ... ... : ... .. . ... ... : ... .. . ... : ... .. . ... ... : ... .. . ... ... ... ...
ROW CB : ... .. . ... ... : ... .. . ... ... : ... .. . ... ... : ... .. . ... : ... .. . ... ... : ... .. . ... ... ... ...
ROW CC : ... .. . ... ... : ... .. . ... ... : ... .. . ... ... : ... .. . ... : ... .. . ... ... : ... .. . ... ... ... ...
ROW CD : ... .. . ... ... : ... .. . ... ... : ... .. . ... ... : ... .. . ... : ... .. . ... ... : ... .. . ... ... ... ...
ROW CE : ... .. . ... ... : ... .. . ... ... : ... .. . ... ... : ... .. . ... : ... .. . ... ... : ... .. . ... ... ... ...
ROW CF : ... .. . ... ... : ... .. . ... ... : ... .. . ... ... : ... .. . ... : ... .. . ... ... : ... .. . ... ... ... ...
ROW D0 : ... .. . ... ... : ... .. . ... ... : ... .. . ... ... : ... .. . ... : ... .. . ... ... : ... .. . ... ... ... ...
ROW D1 : ... .. . ... ... : ... .. . ... ... : ... .. . ... ... : ... .. . ... : ... .. . ... ... : ... .. . ... ... ... ...
ROW D2 : ... .. . ... ... : ... .. . ... ... : ... .. . ... ... : ... .. . ... : ... .. . ... ... : ... .. . ... ... ... ...
ROW D3 : ... .. . ... ... : ... .. . ... ... : ... .. . ... ... : ... .. . ... : ... .. . ... ... : ... .. . ... ... ... ...
ROW D4 : ... .. . ... ... : ... .. . ... ... : ... .. . ... ... : ... .. . ... : ... .. . ... ... : ... .. . ... ... ... ...
ROW D5 : ... .. . ... ... : ... .. . ... ... : ... .. . ... ... : ... .. . ... : ... .. . ... ... : ... .. . ... ... ... ...
ROW D6 : ... .. . ... ... : ... .. . ... ... : ... .. . ... ... : ... .. . ... : ... .. . ... ... : ... .. . ... ... ... ...
ROW D7 : ... .. . ... ... : ... .. . ... ... : ... .. . ... ... : ... .. . ... : ... .. . ... ... : ... .. . ... ... ... ...
ROW D8 : ... .. . ... ... : ... .. . ... ... : ... .. . ... ... : ... .. . ... : ... .. . ... ... : ... .. . ... ... ... ...
ROW D9 : ... .. . ... ... : ... .. . ... ... : ... .. . ... ... : ... .. . ... : ... .. . ... ... : ... .. . ... ... ... ...
ROW DA : ... .. . ... ... : ... .. . ... ... : ... .. . ... ... : ... .. . ... : ... .. . ... ... : ... .. . ... ... ... ...
ROW DB : ... .. . ... ... : ... .. . ... ... : ... .. . ... ... : ... .. . ... : ... .. . ... ... : ... .. . ... ... ... ...
ROW DC : ... .. . ... ... : ... .. . ... ... : ... .. . ... ... : ... .. . ... : ... .. . ... ... : ... .. . ... ... ... ...
ROW DD : ... .. . ... ... : ... .. . ... ... : ... .. . ... ... : ... .. . ... : ... .. . ... ... : ... .. . ... ... ... ...
ROW DE : ... .. . ... ... : ... .. . ... ... : ... .. . ... ... : ... .. . ... : ... .. . ... ... : ... .. . ... ... ... ...
ROW DF : ... .. . ... ... : ... .. . ... ... : ... .. . ... ... : ... .. . ... : ... .. . ... ... : ... .. . ... ... ... ...
ROW E0 : ... .. . ... ... : ... .. . ... ... : ... .. . ... ... : ... .. . ... : ... .. . ... ... : ... .. . ... ... ... ...
ROW E1 : ... .. . ... ... : ... .. . ... ... : ... .. . ... ... : ... .. . ... : ... .. . ... ... : ... .. . ... ... ... ...
ROW E2 : ... .. . ... ... : ... .. . ... ... : ... .. . ... ... : ... .. . ... : ... .. . ... ... : ... .. . ... ... ... ...
ROW E3 : ... .. . ... ... : ... .. . ... ... : ... .. . ... ... : ... .. . ... : ... .. . ... ... : ... .. . ... ... ... ...
ROW E4 : ... .. . ... ... : ... .. . ... ... : ... .. . ... ... : ... .. . ... : ... .. . ... ... : ... .. . ... ... ... ...
ROW E5 : ... .. . ... ... : ... .. . ... ... : ... .. . ... ... : ... .. . ... : ... .. . ... ... : ... .. . ... ... ... ...
ROW E6 : ... .. . ... ... : ... .. . ... ... : ... .. . ... ... : ... .. . ... : ... .. . ... ... : ... .. . ... ... ... ...
ROW E7 : ... .. . ... ... : ... .. . ... ... : ... .. . ... ... : ... .. . ... : ... .. . ... ... : ... .. . ... ... ... ...
ROW E8 : ... .. . ... ... : ... .. . ... ... : ... .. . ... ... : ... .. . ... : ... .. . ... ... : ... .. . ... ... ... ...
ROW E9 : ... .. . ... ... : ... .. . ... ... : ... .. . ... ... : ... .. . ... : ... .. . ... ... : ... .. . ... ... ... ...
ROW EA : ... .. . ... ... : ... .. . ... ... : ... .. . ... ... : ... .. . ... : ... .. . ... ... : ... .. . ... ... ... ...
ROW EB : ... .. . ... ... : ... .. . ... ... : ... .. . ... ... : ... .. . ... : ... .. . ... ... : ... .. . ... ... ... ...
ROW EC : ... .. . ... ... : ... .. . ... ... : ... .. . ... ... : ... .. . ... : ... .. . ... ... : ... .. . ... ... ... ...
ROW ED : ... .. . ... ... : ... .. . ... ... : ... .. . ... ... : ... .. . ... : ... .. . ... ... : ... .. . ... ... ... ...
ROW EE : ... .. . ... ... : ... .. . ... ... : ... .. . ... ... : ... .. . ... : ... .. . ... ... : ... .. . ... ... ... ...
ROW EF : ... .. . ... ... : ... .. . ... ... : ... .. . ... ... : ... .. . ... : ... .. . ... ... : ... .. . ... ... ... ...
ROW F0 : ... .. . ... ... : ... .. . ... ... : ... .. . ... ... : ... .. . ... : ... .. . ... ... : ... .. . ... ... ... ...
ROW F1 : ... .. . ... ... : ... .. . ... ... : ... .. . ... ... : ... .. . ... : ... .. . ... ... : ... .. . ... ... ... ...
ROW F2 : ... .. . ... ... : ... .. . ... ... : ... .. . ... ... : ... .. . ... : ... .. . ... ... : ... .. . ... ... ... ...
ROW F3 : ... .. . ... ... : ... .. . ... ... : ... .. . ... ... : ... .. . ... : ... .. . ... ... : ... .. . ... ... ... ...
ROW F4 : ... .. . ... ... : ... .. . ... ... : ... .. . ... ... : ... .. . ... : ... .. . ... ... : ... .. . ... ... ... ...
ROW F5 : ... .. . ... ... : ... .. . ... ... : ... .. . ... ... : ... .. . ... : ... .. . ... ... : ... .. . ... ... ... ...
ROW F6 : ... .. . ... ... : ... .. . ... ... : ... .. . ... ... : ... .. . ... : ... .. . ... ... : ... .. . ... ... ... ...
ROW F7 : ... .. . ... ... : ... .. . ... ... : ... .. . ... ... : ... .. . ... : ... .. . ... ... : ... .. . ... ... ... ...
ROW F8 : ... .. . ... ... : ... .. . ... ... : ... .. . ... ... : ... .. . ... : ... .. . ... ... : ... .. . ... ... ... ...
ROW F9 : ... .. . ... ... : ... .. . ... ... : ... .. . ... ... : ... .. . ... : ... .. . ... ... : ... .. . ... ... ... ...
ROW FA : ... .. . ... ... : ... .. . ... ... : ... .. . ... ... : ... .. . ... : ... .. . ... ... : ... .. . ... ... ... ...
ROW FB : ... .. . ... ... : ... .. . ... ... : ... .. . ... ... : ... .. . ... : ... .. . ... ... : ... .. . ... ... ... ...
ROW FC : ... .. . ... ... : ... .. . ... ... : ... .. . ... ... : ... .. . ... : ... .. . ... ... : ... .. . ... ... ... ...
ROW FD : ... .. . ... ... : ... .. . ... ... : ... .. . ... ... : ... .. . ... : ... .. . ... ... : ... .. . ... ... ... ...
ROW FE : ... .. . ... ... : ... .. . ... ... : ... .. . ... ... : ... .. . ... : ... .. . ... ... : ... .. . ... ... ... ...
ROW FF : ... .. . ... ... : ... .. . ... ... : ... .. . ... ... : ... .. . ... : ... .. . ... ... : ... .. . ... ... ... ...

PATTERN 23
ROW 00 : ... .. . ... ... : ... .. . ... ... : ... .. . ... ... : ... .. . ... : ... .. . ... ... : F#6 1D E ... ... ... ...
ROW 01 : ... .. . ... ... : ... .. . ... ... : ... .. . ... ... : ... .. . ... : ... .. . ... ... : ... .. . ... ... ... ...
ROW 02 : ... .. . ... ... : ... .. . ... ... : ... .. . ... ... : ... .. . ... : ... .. . ... ... : ... .. . ... ... ... ...
ROW 03 : ... .. . ... ... : ... .. . ... ... : ... .. . ... ... : ... .. . ... : ... .. . ... ... : ... .. . ... ... ... ...
ROW 04 : ... .. . ... ... : ... .. . ... ... : ... .. . ... ... : ... .. . ... : ... .. . ... ... : ... .. . 468 ... ... ...
ROW 05 : ... .. . ... ... : ... .. . ... ... : ... .. . ... ... : ... .. . ... : ... .. . ... ... : ... .. . ... ... ... ...
ROW 06 : ... .. . ... ... : ... .. . ... ... : ... .. . ... ... : ... .. . ... : ... .. . ... ... : ... .. D ... ... ... ...
ROW 07 : ... .. . ... ... : ... .. . ... ... : ... .. . ... ... : ... .. . ... : ... .. . ... ... : ... .. C ... ... ... ...
ROW 08 : ... .. . ... ... : ... .. . ... ... : ... .. . ... ... : ... .. . ... : ... .. . ... ... : ... .. B ... ... ... ...
ROW 09 : ... .. . ... ... : ... .. . ... ... : ... .. . ... ... : ... .. . ... : ... .. . ... ... : ... .. A ... ... ... ...
ROW 0A : ... .. . ... ... : ... .. . ... ... : ... .. . ... ... : ... .. . ... : ... .. . ... ... : ... .. 9 ... ... ... ...
ROW 0B : ... .. . ... ... : ... .. . ... ... : ... .. . ... ... : ... .. . ... : ... .. . ... ... : ... .. 8 ... ... ... ...
ROW 0C : ... .. . ... ... : ... .. . ... ... : ... .. . ... ... : ... .. . ... : ... .. . ... ... : ... .. 7 ... ... ... ...
ROW 0D : ... .. . ... ... : ... .. . ... ... : ... .. . ... ... : ... .. . ... : ... .. . ... ... : ... .. 6 ... ... ... ...
ROW 0E : ... .. . ... ... : ... .. . ... ... : ... .. . ... ... : ... .. . ... : ... .. . ... ... : ... .. 5 ... ... ... ...
ROW 0F : ... .. . ... ... : ... .. . ... ... : ... .. . ... ... : ... .. . ... : ... .. . ... ... : ... .. 4 ... ... ... ...
ROW 10 : ... .. . ... ... : ... .. . ... ... : ... .. . ... ... : ... .. . ... : ... .. . ... ... : ... .. 3 ... ... ... ...
ROW 11 : ... .. . ... ... : ... .. . ... ... : ... .. . ... ... : ... .. . ... : ... .. . ... ... : ... .. 2 ... ... ... ...
ROW 12 : ... .. . ... ... : ... .. . ... ... : ... .. . ... ... : ... .. . ... : ... .. . ... ... : ... .. 1 ... ... ... ...
ROW 13 : ... .. . ... ... : ... .. . ... ... : ... .. . ... ... : ... .. . ... : ... .. . ... ... : ... .. . ... ... ... ...
ROW 14 : ... .. . ... ... : ... .. . ... ... : ... .. . ... ... : ... .. . ... : ... .. . ... ... : --- .. . ... ... ... ...
ROW 15 : ... .. . ... ... : ... .. . ... ... : ... .. . ... ... : ... .. . ... : ... .. . ... ... : ... .. . ... ... ... ...
ROW 16 : ... .. . ... ... : ... .. . ... ... : ... .. . ... ... : ... .. . ... : ... .. . ... ... : ... .. . ... ... ... ...
ROW 17 : ... .. . ... ... : ... .. . ... ... : ... .. . ... ... : ... .. . ... : ... .. . ... ... : ... .. . ... ... ... ...
ROW 18 : ... .. . ... ... : ... .. . ... ... : ... .. . ... ... : ... .. . ... : ... .. . ... ... : ... .. . ... ... ... ...
ROW 19 : ... .. . ... ... : ... .. . ... ... : ... .. . ... ... : ... .. . ... : ... .. . ... ... : ... .. . ... ... ... ...
ROW 1A : ... .. . ... ... : ... .. . ... ... : ... .. . ... ... : ... .. . ... : ... .. . ... ... : ... .. . ... ... ... ...
ROW 1B : ... .. . ... ... : ... .. . ... ... : ... .. . ... ... : ... .. . ... : ... .. . ... ... : ... .. . ... ... ... ...
ROW 1C : ... .. . ... ... : ... .. . ... ... : ... .. . ... ... : ... .. . ... : ... .. . ... ... : ... .. . ... ... ... ...
ROW 1D : ... .. . ... ... : ... .. . ... ... : ... .. . ... ... : ... .. . ... : ... .. . ... ... : ... .. . ... ... ... ...
ROW 1E : ... .. . ... ... : ... .. . ... ... : ... .. . ... ... : ... .. . ... : ... .. . ... ... : ... .. . ... ... ... ...
ROW 1F : ... .. . ... ... : ... .. . ... ... : ... .. . ... ... : ... .. . ... : ... .. . ... ... : ... .. . ... ... ... ...
ROW 20 : ... .. . ... ... : ... .. . ... ... : ... .. . ... ... : ... .. . ... : ... .. . ... ... : ... .. . ... ... ... ...
ROW 21 : ... .. . ... ... : ... .. . ... ... : ... .. . ... ... : ... .. . ... : ... .. . ... ... : ... .. . ... ... ... ...
ROW 22 : ... .. . ... ... : ... .. . ... ... : ... .. . ... ... : ... .. . ... : ... .. . ... ... : ... .. . ... ... ... ...
ROW 23 : ... .. . ... ... : ... .. . ... ... : ... .. . ... ... : ... .. . ... : ... .. . ... ... : ... .. . ... ... ... ...
ROW 24 : ... .. . ... ... : ... .. . ... ... : ... .. . ... ... : ... .. . ... : ... .. . ... ... : ... .. . ... ... ... ...
ROW 25 : ... .. . ... ... : ... .. . ... ... : ... .. . ... ... : ... .. . ... : ... .. . ... ... : ... .. . ... ... ... ...
ROW 26 : ... .. . ... ... : ... .. . ... ... : ... .. . ... ... : ... .. . ... : ... .. . ... ... : ... .. . ... ... ... ...
ROW 27 : ... .. . ... ... : ... .. . ... ... : ... .. . ... ... : ... .. . ... : ... .. . ... ... : ... .. . ... ... ... ...
ROW 28 : ... .. . ... ... : ... .. . ... ... : ... .. . ... ... : ... .. . ... : ... .. . ... ... : ... .. . ... ... ... ...
ROW 29 : ... .. . ... ... : ... .. . ... ... : ... .. . ... ... : ... .. . ... : ... .. . ... ... : ... .. . ... ... ... ...
ROW 2A : ... .. . ... ... : ... .. . ... ... : ... .. . ... ... : ... .. . ... : ... .. . ... ... : ... .. . ... ... ... ...
ROW 2B : ... .. . ... ... : ... .. . ... ... : ... .. . ... ... : ... .. . ... : ... .. . ... ... : ... .. . ... ... ... ...
ROW 2C : ... .. . ... ... : ... .. . ... ... : ... .. . ... ... : ... .. . ... : ... .. . ... ... : ... .. . ... ... ... ...
ROW 2D : ... .. . ... ... : ... .. . ... ... : ... .. . ... ... : ... .. . ... : ... .. . ... ... : ... .. . ... ... ... ...
ROW 2E : ... .. . ... ... : ... .. . ... ... : ... .. . ... ... : ... .. . ... : ... .. . ... ... : ... .. . ... ... ... ...
ROW 2F : ... .. . ... ... : ... .. . ... ... : ... .. . ... ... : ... .. . ... : ... .. . ... ... : ... .. . ... ... ... ...
ROW 30 : ... .. . ... ... : ... .. . ... ... : ... .. . ... ... : ... .. . ... : ... .. . ... ... : ... .. . ... ... ... ...
ROW 31 : ... .. . ... ... : ... .. . ... ... : ... .. . ... ... : ... .. . ... : ... .. . ... ... : ... .. . ... ... ... ...
ROW 32 : ... .. . ... ... : ... .. . ... ... : ... .. . ... ... : ... .. . ... : ... .. . ... ... : ... .. . ... ... ... ...
ROW 33 : ... .. . ... ... : ... .. . ... ... : ... .. . ... ... : ... .. . ... : ... .. . ... ... : ... .. . ... ... ... ...
ROW 34 : ... .. . ... ... : ... .. . ... ... : ... .. . ... ... : ... .. . ... : ... .. . ... ... : ... .. . ... ... ... ...
ROW 35 : ... .. . ... ... : ... .. . ... ... : ... .. . ... ... : ... .. . ... : ... .. . ... ... : ... .. . ... ... ... ...
ROW 36 : ... .. . ... ... : ... .. . ... ... : ... .. . ... ... : ... .. . ... : ... .. . ... ... : ... .. . ... ... ... ...
ROW 37 : ... .. . ... ... : ... .. . ... ... : ... .. . ... ... : ... .. . ... : ... .. . ... ... : ... .. . ... ... ... ...
ROW 38 : ... .. . ... ... : ... .. . ... ... : ... .. . ... ... : ... .. . ... : ... .. . ... ... : ... .. . ... ... ... ...
ROW 39 : ... .. . ... ... : ... .. . ... ... : ... .. . ... ... : ... .. . ... : ... .. . ... ... : ... .. . ... ... ... ...
ROW 3A : ... .. . ... ... : ... .. . ... ... : ... .. . ... ... : ... .. . ... : ... .. . ... ... : ... .. . ... ... ... ...
ROW 3B : ... .. . ... ... : ... .. . ... ... : ... .. . ... ... : ... .. . ... : ... .. . ... ... : ... .. . ... ... ... ...
ROW 3C : ... .. . ... ... : ... .. . ... ... : ... .. . ... ... : ... .. . ... : ... .. . ... ... : ... .. . ... ... ... ...
ROW 3D : ... .. . ... ... : ... .. . ... ... : ... .. . ... ... : ... .. . ... : ... .. . ... ... : ... .. . ... ... ... ...
ROW 3E : ... .. . ... ... : ... .. . ... ... : ... .. . ... ... : ... .. . ... : ... .. . ... ... : ... .. . ... ... ... ...
ROW 3F : ... .. . ... ... : ... .. . ... ... : ... .. . ... ... : ... .. . ... : ... .. . ... ... : ... .. . ... ... ... ...
ROW 40 : ... .. . ... ... : ... .. . ... ... : ... .. . ... ... : ... .. . ... : ... .. . ... ... : ... .. . ... ... ... ...
ROW 41 : ... .. . ... ... : ... .. . ... ... : ... .. . ... ... : ... .. . ... : ... .. . ... ... : ... .. . ... ... ... ...
ROW 42 : ... .. . ... ... : ... .. . ... ... : ... .. . ... ... : ... .. . ... : ... .. . ... ... : ... .. . ... ... ... ...
ROW 43 : ... .. . ... ... : ... .. . ... ... : ... .. . ... ... : ... .. . ... : ... .. . ... ... : ... .. . ... ... ... ...
ROW 44 : ... .. . ... ... : ... .. . ... ... : ... .. . ... ... : ... .. . ... : ... .. . ... ... : ... .. . ... ... ... ...
ROW 45 : ... .. . ... ... : ... .. . ... ... : ... .. . ... ... : ... .. . ... : ... .. . ... ... : ... .. . ... ... ... ...
ROW 46 : ... .. . ... ... : ... .. . ... ... : ... .. . ... ... : ... .. . ... : ... .. . ... ... : ... .. . ... ... ... ...
ROW 47 : ... .. . ... ... : ... .. . ... ... : ... .. . ... ... : ... .. . ... : ... .. . ... ... : ... .. . ... ... ... ...
ROW 48 : ... .. . ... ... : ... .. . ... ... : ... .. . ... ... : ... .. . ... : ... .. . ... ... : ... .. . ... ... ... ...
ROW 49 : ... .. . ... ... : ... .. . ... ... : ... .. . ... ... : ... .. . ... : ... .. . ... ... : ... .. . ... ... ... ...
ROW 4A : ... .. . ... ... : ... .. . ... ... : ... .. . ... ... : ... .. . ... : ... .. . ... ... : ... .. . ... ... ... ...
ROW 4B : ... .. . ... ... : ... .. . ... ... : ... .. . ... ... : ... .. . ... : ... .. . ... ... : ... .. . ... ... ... ...
ROW 4C : ... .. . ... ... : ... .. . ... ... : ... .. . ... ... : ... .. . ... : ... .. . ... ... : ... .. . ... ... ... ...
ROW 4D : ... .. . ... ... : ... .. . ... ... : ... .. . ... ... : ... .. . ... : ... .. . ... ... : ... .. . ... ... ... ...
ROW 4E : ... .. . ... ... : ... .. . ... ... : ... .. . ... ... : ... .. . ... : ... .. . ... ... : ... .. . ... ... ... ...
ROW 4F : ... .. . ... ... : ... .. . ... ... : ... .. . ... ... : ... .. . ... : ... .. . ... ... : ... .. . ... ... ... ...
ROW 50 : ... .. . ... ... : ... .. . ... ... : ... .. . ... ... : ... .. . ... : ... .. . ... ... : ... .. . ... ... ... ...
ROW 51 : ... .. . ... ... : ... .. . ... ... : ... .. . ... ... : ... .. . ... : ... .. . ... ... : ... .. . ... ... ... ...
ROW 52 : ... .. . ... ... : ... .. . ... ... : ... .. . ... ... : ... .. . ... : ... .. . ... ... : ... .. . ... ... ... ...
ROW 53 : ... .. . ... ... : ... .. . ... ... : ... .. . ... ... : ... .. . ... : ... .. . ... ... : ... .. . ... ... ... ...
ROW 54 : ... .. . ... ... : ... .. . ... ... : ... .. . ... ... : ... .. . ... : ... .. . ... ... : ... .. . ... ... ... ...
ROW 55 : ... .. . ... ... : ... .. . ... ... : ... .. . ... ... : ... .. . ... : ... .. . ... ... : ... .. . ... ... ... ...
ROW 56 : ... .. . ... ... : ... .. . ... ... : ... .. . ... ... : ... .. . ... : ... .. . ... ... : ... .. . ... ... ... ...
ROW 57 : ... .. . ... ... : ... .. . ... ... : ... .. . ... ... : ... .. . ... : ... .. . ... ... : ... .. . ... ... ... ...
ROW 58 : ... .. . ... ... : ... .. . ... ... : ... .. . ... ... : ... .. . ... : ... .. . ... ... : ... .. . ... ... ... ...
ROW 59 : ... .. . ... ... : ... .. . ... ... : ... .. . ... ... : ... .. . ... : ... .. . ... ... : ... .. . ... ... ... ...
ROW 5A : ... .. . ... ... : ... .. . ... ... : ... .. . ... ... : ... .. . ... : ... .. . ... ... : ... .. . ... ... ... ...
ROW 5B : ... .. . ... ... : ... .. . ... ... : ... .. . ... ... : ... .. . ... : ... .. . ... ... : ... .. . ... ... ... ...
ROW 5C : ... .. . ... ... : ... .. . ... ... : ... .. . ... ... : ... .. . ... : ... .. . ... ... : ... .. . ... ... ... ...
ROW 5D : ... .. . ... ... : ... .. . ... ... : ... .. . ... ... : ... .. . ... : ... .. . ... ... : ... .. . ... ... ... ...
ROW 5E : ... .. . ... ... : ... .. . ... ... : ... .. . ... ... : ... .. . ... : ... .. . ... ... : ... .. . ... ... ... ...
ROW 5F : ... .. . ... ... : ... .. . ... ... : ... .. . ... ... : ... .. . ... : ... .. . ... ... : ... .. . ... ... ... ...
ROW 60 : ... .. . ... ... : ... .. . ... ... : ... .. . ... ... : ... .. . ... : ... .. . ... ... : ... .. . ... ... ... ...
ROW 61 : ... .. . ... ... : ... .. . ... ... : ... .. . ... ... : ... .. . ... : ... .. . ... ... : ... .. . ... ... ... ...
ROW 62 : ... .. . ... ... : ... .. . ... ... : ... .. . ... ... : ... .. . ... : ... .. . ... ... : ... .. . ... ... ... ...
ROW 63 : ... .. . ... ... : ... .. . ... ... : ... .. . ... ... : ... .. . ... : ... .. . ... ... : ... .. . ... ... ... ...
ROW 64 : ... .. . ... ... : ... .. . ... ... : ... .. . ... ... : ... .. . ... : ... .. . ... ... : ... .. . ... ... ... ...
ROW 65 : ... .. . ... ... : ... .. . ... ... : ... .. . ... ... : ... .. . ... : ... .. . ... ... : ... .. . ... ... ... ...
ROW 66 : ... .. . ... ... : ... .. . ... ... : ... .. . ... ... : ... .. . ... : ... .. . ... ... : ... .. . ... ... ... ...
ROW 67 : ... .. . ... ... : ... .. . ... ... : ... .. . ... ... : ... .. . ... : ... .. . ... ... : ... .. . ... ... ... ...
ROW 68 : ... .. . ... ... : ... .. . ... ... : ... .. . ... ... : ... .. . ... : ... .. . ... ... : ... .. . ... ... ... ...
ROW 69 : ... .. . ... ... : ... .. . ... ... : ... .. . ... ... : ... .. . ... : ... .. . ... ... : ... .. . ... ... ... ...
ROW 6A : ... .. . ... ... : ... .. . ... ... : ... .. . ... ... : ... .. . ... : ... .. . ... ... : ... .. . ... ... ... ...
ROW 6B : ... .. . ... ... : ... .. . ... ... : ... .. . ... ... : ... .. . ... : ... .. . ... ... : ... .. . ... ... ... ...
ROW 6C : ... .. . ... ... : ... .. . ... ... : ... .. . ... ... : ... .. . ... : ... .. . ... ... : ... .. . ... ... ... ...
ROW 6D : ... .. . ... ... : ... .. . ... ... : ... .. . ... ... : ... .. . ... : ... .. . ... ... : ... .. . ... ... ... ...
ROW 6E : ... .. . ... ... : ... .. . ... ... : ... .. . ... ... : ... .. . ... : ... .. . ... ... : ... .. . ... ... ... ...
ROW 6F : ... .. . ... ... : ... .. . ... ... : ... .. . ... ... : ... .. . ... : ... .. . ... ... : ... .. . ... ... ... ...
ROW 70 : ... .. . ... ... : ... .. . ... ... : ... .. . ... ... : ... .. . ... : ... .. . ... ... : ... .. . ... ... ... ...
ROW 71 : ... .. . ... ... : ... .. . ... ... : ... .. . ... ... : ... .. . ... : ... .. . ... ... : ... .. . ... ... ... ...
ROW 72 : ... .. . ... ... : ... .. . ... ... : ... .. . ... ... : ... .. . ... : ... .. . ... ... : ... .. . ... ... ... ...
ROW 73 : ... .. . ... ... : ... .. . ... ... : ... .. . ... ... : ... .. . ... : ... .. . ... ... : ... .. . ... ... ... ...
ROW 74 : ... .. . ... ... : ... .. . ... ... : ... .. . ... ... : ... .. . ... : ... .. . ... ... : ... .. . ... ... ... ...
ROW 75 : ... .. . ... ... : ... .. . ... ... : ... .. . ... ... : ... .. . ... : ... .. . ... ... : ... .. . ... ... ... ...
ROW 76 : ... .. . ... ... : ... .. . ... ... : ... .. . ... ... : ... .. . ... : ... .. . ... ... : ... .. . ... ... ... ...
ROW 77 : ... .. . ... ... : ... .. . ... ... : ... .. . ... ... : ... .. . ... : ... .. . ... ... : ... .. . ... ... ... ...
ROW 78 : ... .. . ... ... : ... .. . ... ... : ... .. . ... ... : ... .. . ... : ... .. . ... ... : ... .. . ... ... ... ...
ROW 79 : ... .. . ... ... : ... .. . ... ... : ... .. . ... ... : ... .. . ... : ... .. . ... ... : ... .. . ... ... ... ...
ROW 7A : ... .. . ... ... : ... .. . ... ... : ... .. . ... ... : ... .. . ... : ... .. . ... ... : ... .. . ... ... ... ...
ROW 7B : ... .. . ... ... : ... .. . ... ... : ... .. . ... ... : ... .. . ... : ... .. . ... ... : ... .. . ... ... ... ...
ROW 7C : ... .. . ... ... : ... .. . ... ... : ... .. . ... ... : ... .. . ... : ... .. . ... ... : ... .. . ... ... ... ...
ROW 7D : ... .. . ... ... : ... .. . ... ... : ... .. . ... ... : ... .. . ... : ... .. . ... ... : ... .. . ... ... ... ...
ROW 7E : ... .. . ... ... : ... .. . ... ... : ... .. . ... ... : ... .. . ... : ... .. . ... ... : ... .. . ... ... ... ...
ROW 7F : ... .. . ... ... : ... .. . ... ... : ... .. . ... ... : ... .. . ... : ... .. . ... ... : ... .. . ... ... ... ...
ROW 80 : ... .. . ... ... : ... .. . ... ... : ... .. . ... ... : ... .. . ... : ... .. . ... ... : ... .. . ... ... ... ...
ROW 81 : ... .. . ... ... : ... .. . ... ... : ... .. . ... ... : ... .. . ... : ... .. . ... ... : ... .. . ... ... ... ...
ROW 82 : ... .. . ... ... : ... .. . ... ... : ... .. . ... ... : ... .. . ... : ... .. . ... ... : ... .. . ... ... ... ...
ROW 83 : ... .. . ... ... : ... .. . ... ... : ... .. . ... ... : ... .. . ... : ... .. . ... ... : ... .. . ... ... ... ...
ROW 84 : ... .. . ... ... : ... .. . ... ... : ... .. . ... ... : ... .. . ... : ... .. . ... ... : ... .. . ... ... ... ...
ROW 85 : ... .. . ... ... : ... .. . ... ... : ... .. . ... ... : ... .. . ... : ... .. . ... ... : ... .. . ... ... ... ...
ROW 86 : ... .. . ... ... : ... .. . ... ... : ... .. . ... ... : ... .. . ... : ... .. . ... ... : ... .. . ... ... ... ...
ROW 87 : ... .. . ... ... : ... .. . ... ... : ... .. . ... ... : ... .. . ... : ... .. . ... ... : ... .. . ... ... ... ...
ROW 88 : ... .. . ... ... : ... .. . ... ... : ... .. . ... ... : ... .. . ... : ... .. . ... ... : ... .. . ... ... ... ...
ROW 89 : ... .. . ... ... : ... .. . ... ... : ... .. . ... ... : ... .. . ... : ... .. . ... ... : ... .. . ... ... ... ...
ROW 8A : ... .. . ... ... : ... .. . ... ... : ... .. . ... ... : ... .. . ... : ... .. . ... ... : ... .. . ... ... ... ...
ROW 8B : ... .. . ... ... : ... .. . ... ... : ... .. . ... ... : ... .. . ... : ... .. . ... ... : ... .. . ... ... ... ...
ROW 8C : ... .. . ... ... : ... .. . ... ... : ... .. . ... ... : ... .. . ... : ... .. . ... ... : ... .. . ... ... ... ...
ROW 8D : ... .. . ... ... : ... .. . ... ... : ... .. . ... ... : ... .. . ... : ... .. . ... ... : ... .. . ... ... ... ...
ROW 8E : ... .. . ... ... : ... .. . ... ... : ... .. . ... ... : ... .. . ... : ... .. . ... ... : ... .. . ... ... ... ...
ROW 8F : ... .. . ... ... : ... .. . ... ... : ... .. . ... ... : ... .. . ... : ... .. . ... ... : ... .. . ... ... ... ...
ROW 90 : ... .. . ... ... : ... .. . ... ... : ... .. . ... ... : ... .. . ... : ... .. . ... ... : ... .. . ... ... ... ...
ROW 91 : ... .. . ... ... : ... .. . ... ... : ... .. . ... ... : ... .. . ... : ... .. . ... ... : ... .. . ... ... ... ...
ROW 92 : ... .. . ... ... : ... .. . ... ... : ... .. . ... ... : ... .. . ... : ... .. . ... ... : ... .. . ... ... ... ...
ROW 93 : ... .. . ... ... : ... .. . ... ... : ... .. . ... ... : ... .. . ... : ... .. . ... ... : ... .. . ... ... ... ...
ROW 94 : ... .. . ... ... : ... .. . ... ... : ... .. . ... ... : ... .. . ... : ... .. . ... ... : ... .. . ... ... ... ...
ROW 95 : ... .. . ... ... : ... .. . ... ... : ... .. . ... ... : ... .. . ... : ... .. . ... ... : ... .. . ... ... ... ...
ROW 96 : ... .. . ... ... : ... .. . ... ... : ... .. . ... ... : ... .. . ... : ... .. . ... ... : ... .. . ... ... ... ...
ROW 97 : ... .. . ... ... : ... .. . ... ... : ... .. . ... ... : ... .. . ... : ... .. . ... ... : ... .. . ... ... ... ...
ROW 98 : ... .. . ... ... : ... .. . ... ... : ... .. . ... ... : ... .. . ... : ... .. . ... ... : ... .. . ... ... ... ...
ROW 99 : ... .. . ... ... : ... .. . ... ... : ... .. . ... ... : ... .. . ... : ... .. . ... ... : ... .. . ... ... ... ...
ROW 9A : ... .. . ... ... : ... .. . ... ... : ... .. . ... ... : ... .. . ... : ... .. . ... ... : ... .. . ... ... ... ...
ROW 9B : ... .. . ... ... : ... .. . ... ... : ... .. . ... ... : ... .. . ... : ... .. . ... ... : ... .. . ... ... ... ...
ROW 9C : ... .. . ... ... : ... .. . ... ... : ... .. . ... ... : ... .. . ... : ... .. . ... ... : ... .. . ... ... ... ...
ROW 9D : ... .. . ... ... : ... .. . ... ... : ... .. . ... ... : ... .. . ... : ... .. . ... ... : ... .. . ... ... ... ...
ROW 9E : ... .. . ... ... : ... .. . ... ... : ... .. . ... ... : ... .. . ... : ... .. . ... ... : ... .. . ... ... ... ...
ROW 9F : ... .. . ... ... : ... .. . ... ... : ... .. . ... ... : ... .. . ... : ... .. . ... ... : ... .. . ... ... ... ...
ROW A0 : ... .. . ... ... : ... .. . ... ... : ... .. . ... ... : ... .. . ... : ... .. . ... ... : ... .. . ... ... ... ...
ROW A1 : ... .. . ... ... : ... .. . ... ... : ... .. . ... ... : ... .. . ... : ... .. . ... ... : ... .. . ... ... ... ...
ROW A2 : ... .. . ... ... : ... .. . ... ... : ... .. . ... ... : ... .. . ... : ... .. . ... ... : ... .. . ... ... ... ...
ROW A3 : ... .. . ... ... : ... .. . ... ... : ... .. . ... ... : ... .. . ... : ... .. . ... ... : ... .. . ... ... ... ...
ROW A4 : ... .. . ... ... : ... .. . ... ... : ... .. . ... ... : ... .. . ... : ... .. . ... ... : ... .. . ... ... ... ...
ROW A5 : ... .. . ... ... : ... .. . ... ... : ... .. . ... ... : ... .. . ... : ... .. . ... ... : ... .. . ... ... ... ...
ROW A6 : ... .. . ... ... : ... .. . ... ... : ... .. . ... ... : ... .. . ... : ... .. . ... ... : ... .. . ... ... ... ...
ROW A7 : ... .. . ... ... : ... .. . ... ... : ... .. . ... ... : ... .. . ... : ... .. . ... ... : ... .. . ... ... ... ...
ROW A8 : ... .. . ... ... : ... .. . ... ... : ... .. . ... ... : ... .. . ... : ... .. . ... ... : ... .. . ... ... ... ...
ROW A9 : ... .. . ... ... : ... .. . ... ... : ... .. . ... ... : ... .. . ... : ... .. . ... ... : ... .. . ... ... ... ...
ROW AA : ... .. . ... ... : ... .. . ... ... : ... .. . ... ... : ... .. . ... : ... .. . ... ... : ... .. . ... ... ... ...
ROW AB : ... .. . ... ... : ... .. . ... ... : ... .. . ... ... : ... .. . ... : ... .. . ... ... : ... .. . ... ... ... ...
ROW AC : ... .. . ... ... : ... .. . ... ... : ... .. . ... ... : ... .. . ... : ... .. . ... ... : ... .. . ... ... ... ...
ROW AD : ... .. . ... ... : ... .. . ... ... : ... .. . ... ... : ... .. . ... : ... .. . ... ... : ... .. . ... ... ... ...
ROW AE : ... .. . ... ... : ... .. . ... ... : ... .. . ... ... : ... .. . ... : ... .. . ... ... : ... .. . ... ... ... ...
ROW AF : ... .. . ... ... : ... .. . ... ... : ... .. . ... ... : ... .. . ... : ... .. . ... ... : ... .. . ... ... ... ...
ROW B0 : ... .. . ... ... : ... .. . ... ... : ... .. . ... ... : ... .. . ... : ... .. . ... ... : ... .. . ... ... ... ...
ROW B1 : ... .. . ... ... : ... .. . ... ... : ... .. . ... ... : ... .. . ... : ... .. . ... ... : ... .. . ... ... ... ...
ROW B2 : ... .. . ... ... : ... .. . ... ... : ... .. . ... ... : ... .. . ... : ... .. . ... ... : ... .. . ... ... ... ...
ROW B3 : ... .. . ... ... : ... .. . ... ... : ... .. . ... ... : ... .. . ... : ... .. . ... ... : ... .. . ... ... ... ...
ROW B4 : ... .. . ... ... : ... .. . ... ... : ... .. . ... ... : ... .. . ... : ... .. . ... ... : ... .. . ... ... ... ...
ROW B5 : ... .. . ... ... : ... .. . ... ... : ... .. . ... ... : ... .. . ... : ... .. . ... ... : ... .. . ... ... ... ...
ROW B6 : ... .. . ... ... : ... .. . ... ... : ... .. . ... ... : ... .. . ... : ... .. . ... ... : ... .. . ... ... ... ...
ROW B7 : ... .. . ... ... : ... .. . ... ... : ... .. . ... ... : ... .. . ... : ... .. . ... ... : ... .. . ... ... ... ...
ROW B8 : ... .. . ... ... : ... .. . ... ... : ... .. . ... ... : ... .. . ... : ... .. . ... ... : ... .. . ... ... ... ...
ROW B9 : ... .. . ... ... : ... .. . ... ... : ... .. . ... ... : ... .. . ... : ... .. . ... ... : ... .. . ... ... ... ...
ROW BA : ... .. . ... ... : ... .. . ... ... : ... .. . ... ... : ... .. . ... : ... .. . ... ... : ... .. . ... ... ... ...
ROW BB : ... .. . ... ... : ... .. . ... ... : ... .. . ... ... : ... .. . ... : ... .. . ... ... : ... .. . ... ... ... ...
ROW BC : ... .. . ... ... : ... .. . ... ... : ... .. . ... ... : ... .. . ... : ... .. . ... ... : ... .. . ... ... ... ...
ROW BD : ... .. . ... ... : ... .. . ... ... : ... .. . ... ... : ... .. . ... : ... .. . ... ... : ... .. . ... ... ... ...
ROW BE : ... .. . ... ... : ... .. . ... ... : ... .. . ... ... : ... .. . ... : ... .. . ... ... : ... .. . ... ... ... ...
ROW BF : ... .. . ... ... : ... .. . ... ... : ... .. . ... ... : ... .. . ... : ... .. . ... ... : ... .. . ... ... ... ...
ROW C0 : ... .. . ... ... : ... .. . ... ... : ... .. . ... ... : ... .. . ... : ... .. . ... ... : ... .. . ... ... ... ...
ROW C1 : ... .. . ... ... : ... .. . ... ... : ... .. . ... ... : ... .. . ... : ... .. . ... ... : ... .. . ... ... ... ...
ROW C2 : ... .. . ... ... : ... .. . ... ... : ... .. . ... ... : ... .. . ... : ... .. . ... ... : ... .. . ... ... ... ...
ROW C3 : ... .. . ... ... : ... .. . ... ... : ... .. . ... ... : ... .. . ... : ... .. . ... ... : ... .. . ... ... ... ...
ROW C4 : ... .. . ... ... : ... .. . ... ... : ... .. . ... ... : ... .. . ... : ... .. . ... ... : ... .. . ... ... ... ...
ROW C5 : ... .. . ... ... : ... .. . ... ... : ... .. . ... ... : ... .. . ... : ... .. . ... ... : ... .. . ... ... ... ...
ROW C6 : ... .. . ... ... : ... .. . ... ... : ... .. . ... ... : ... .. . ... : ... .. . ... ... : ... .. . ... ... ... ...
ROW C7 : ... .. . ... ... : ... .. . ... ... : ... .. . ... ... : ... .. . ... : ... .. . ... ... : ... .. . ... ... ... ...
ROW C8 : ... .. . ... ... : ... .. . ... ... : ... .. . ... ... : ... .. . ... : ... .. . ... ... : ... .. . ... ... ... ...
ROW C9 : ... .. . ... ... : ... .. . ... ... : ... .. . ... ... : ... .. . ... : ... .. . ... ... : ... .. . ... ... ... ...
ROW CA : ... .. . ... ... : ... .. . ... ... : ... .. . ... ... : ... .. . ... : ... .. . ... ... : ... .. . ... ... ... ...
ROW CB : ... .. . ... ... : ... .. . ... ... : ... .. . ... ... : ... .. . ... : ... .. . ... ... : ... .. . ... ... ... ...
ROW CC : ... .. . ... ... : ... .. . ... ... : ... .. . ... ... : ... .. . ... : ... .. . ... ... : ... .. . ... ... ... ...
ROW CD : ... .. . ... ... : ... .. . ... ... : ... .. . ... ... : ... .. . ... : ... .. . ... ... : ... .. . ... ... ... ...
ROW CE : ... .. . ... ... : ... .. . ... ... : ... .. . ... ... : ... .. . ... : ... .. . ... ... : ... .. . ... ... ... ...
ROW CF : ... .. . ... ... : ... .. . ... ... : ... .. . ... ... : ... .. . ... : ... .. . ... ... : ... .. . ... ... ... ...
ROW D0 : ... .. . ... ... : ... .. . ... ... : ... .. . ... ... : ... .. . ... : ... .. . ... ... : ... .. . ... ... ... ...
ROW D1 : ... .. . ... ... : ... .. . ... ... : ... .. . ... ... : ... .. . ... : ... .. . ... ... : ... .. . ... ... ... ...
ROW D2 : ... .. . ... ... : ... .. . ... ... : ... .. . ... ... : ... .. . ... : ... .. . ... ... : ... .. . ... ... ... ...
ROW D3 : ... .. . ... ... : ... .. . ... ... : ... .. . ... ... : ... .. . ... : ... .. . ... ... : ... .. . ... ... ... ...
ROW D4 : ... .. . ... ... : ... .. . ... ... : ... .. . ... ... : ... .. . ... : ... .. . ... ... : ... .. . ... ... ... ...
ROW D5 : ... .. . ... ... : ... .. . ... ... : ... .. . ... ... : ... .. . ... : ... .. . ... ... : ... .. . ... ... ... ...
ROW D6 : ... .. . ... ... : ... .. . ... ... : ... .. . ... ... : ... .. . ... : ... .. . ... ... : ... .. . ... ... ... ...
ROW D7 : ... .. . ... ... : ... .. . ... ... : ... .. . ... ... : ... .. . ... : ... .. . ... ... : ... .. . ... ... ... ...
ROW D8 : ... .. . ... ... : ... .. . ... ... : ... .. . ... ... : ... .. . ... : ... .. . ... ... : ... .. . ... ... ... ...
ROW D9 : ... .. . ... ... : ... .. . ... ... : ... .. . ... ... : ... .. . ... : ... .. . ... ... : ... .. . ... ... ... ...
ROW DA : ... .. . ... ... : ... .. . ... ... : ... .. . ... ... : ... .. . ... : ... .. . ... ... : ... .. . ... ... ... ...
ROW DB : ... .. . ... ... : ... .. . ... ... : ... .. . ... ... : ... .. . ... : ... .. . ... ... : ... .. . ... ... ... ...
ROW DC : ... .. . ... ... : ... .. . ... ... : ... .. . ... ... : ... .. . ... : ... .. . ... ... : ... .. . ... ... ... ...
ROW DD : ... .. . ... ... : ... .. . ... ... : ... .. . ... ... : ... .. . ... : ... .. . ... ... : ... .. . ... ... ... ...
ROW DE : ... .. . ... ... : ... .. . ... ... : ... .. . ... ... : ... .. . ... : ... .. . ... ... : ... .. . ... ... ... ...
ROW DF : ... .. . ... ... : ... .. . ... ... : ... .. . ... ... : ... .. . ... : ... .. . ... ... : ... .. . ... ... ... ...
ROW E0 : ... .. . ... ... : ... .. . ... ... : ... .. . ... ... : ... .. . ... : ... .. . ... ... : ... .. . ... ... ... ...
ROW E1 : ... .. . ... ... : ... .. . ... ... : ... .. . ... ... : ... .. . ... : ... .. . ... ... : ... .. . ... ... ... ...
ROW E2 : ... .. . ... ... : ... .. . ... ... : ... .. . ... ... : ... .. . ... : ... .. . ... ... : ... .. . ... ... ... ...
ROW E3 : ... .. . ... ... : ... .. . ... ... : ... .. . ... ... : ... .. . ... : ... .. . ... ... : ... .. . ... ... ... ...
ROW E4 : ... .. . ... ... : ... .. . ... ... : ... .. . ... ... : ... .. . ... : ... .. . ... ... : ... .. . ... ... ... ...
ROW E5 : ... .. . ... ... : ... .. . ... ... : ... .. . ... ... : ... .. . ... : ... .. . ... ... : ... .. . ... ... ... ...
ROW E6 : ... .. . ... ... : ... .. . ... ... : ... .. . ... ... : ... .. . ... : ... .. . ... ... : ... .. . ... ... ... ...
ROW E7 : ... .. . ... ... : ... .. . ... ... : ... .. . ... ... : ... .. . ... : ... .. . ... ... : ... .. . ... ... ... ...
ROW E8 : ... .. . ... ... : ... .. . ... ... : ... .. . ... ... : ... .. . ... : ... .. . ... ... : ... .. . ... ... ... ...
ROW E9 : ... .. . ... ... : ... .. . ... ... : ... .. . ... ... : ... .. . ... : ... .. . ... ... : ... .. . ... ... ... ...
ROW EA : ... .. . ... ... : ... .. . ... ... : ... .. . ... ... : ... .. . ... : ... .. . ... ... : ... .. . ... ... ... ...
ROW EB : ... .. . ... ... : ... .. . ... ... : ... .. . ... ... : ... .. . ... : ... .. . ... ... : ... .. . ... ... ... ...
ROW EC : ... .. . ... ... : ... .. . ... ... : ... .. . ... ... : ... .. . ... : ... .. . ... ... : ... .. . ... ... ... ...
ROW ED : ... .. . ... ... : ... .. . ... ... : ... .. . ... ... : ... .. . ... : ... .. . ... ... : ... .. . ... ... ... ...
ROW EE : ... .. . ... ... : ... .. . ... ... : ... .. . ... ... : ... .. . ... : ... .. . ... ... : ... .. . ... ... ... ...
ROW EF : ... .. . ... ... : ... .. . ... ... : ... .. . ... ... : ... .. . ... : ... .. . ... ... : ... .. . ... ... ... ...
ROW F0 : ... .. . ... ... : ... .. . ... ... : ... .. . ... ... : ... .. . ... : ... .. . ... ... : ... .. . ... ... ... ...
ROW F1 : ... .. . ... ... : ... .. . ... ... : ... .. . ... ... : ... .. . ... : ... .. . ... ... : ... .. . ... ... ... ...
ROW F2 : ... .. . ... ... : ... .. . ... ... : ... .. . ... ... : ... .. . ... : ... .. . ... ... : ... .. . ... ... ... ...
ROW F3 : ... .. . ... ... : ... .. . ... ... : ... .. . ... ... : ... .. . ... : ... .. . ... ... : ... .. . ... ... ... ...
ROW F4 : ... .. . ... ... : ... .. . ... ... : ... .. . ... ... : ... .. . ... : ... .. . ... ... : ... .. . ... ... ... ...
ROW F5 : ... .. . ... ... : ... .. . ... ... : ... .. . ... ... : ... .. . ... : ... .. . ... ... : ... .. . ... ... ... ...
ROW F6 : ... .. . ... ... : ... .. . ... ... : ... .. . ... ... : ... .. . ... : ... .. . ... ... : ... .. . ... ... ... ...
ROW F7 : ... .. . ... ... : ... .. . ... ... : ... .. . ... ... : ... .. . ... : ... .. . ... ... : ... .. . ... ... ... ...
ROW F8 : ... .. . ... ... : ... .. . ... ... : ... .. . ... ... : ... .. . ... : ... .. . ... ... : ... .. . ... ... ... ...
ROW F9 : ... .. . ... ... : ... .. . ... ... : ... .. . ... ... : ... .. . ... : ... .. . ... ... : ... .. . ... ... ... ...
ROW FA : ... .. . ... ... : ... .. . ... ... : ... .. . ... ... : ... .. . ... : ... .. . ... ... : ... .. . ... ... ... ...
ROW FB : ... .. . ... ... : ... .. . ... ... : ... .. . ... ... : ... .. . ... : ... .. . ... ... : ... .. . ... ... ... ...
ROW FC : ... .. . ... ... : ... .. . ... ... : ... .. . ... ... : ... .. . ... : ... .. . ... ... : ... .. . ... ... ... ...
ROW FD : ... .. . ... ... : ... .. . ... ... : ... .. . ... ... : ... .. . ... : ... .. . ... ... : ... .. . ... ... ... ...
ROW FE : ... .. . ... ... : ... .. . ... ... : ... .. . ... ... : ... .. . ... : ... .. . ... ... : ... .. . ... ... ... ...
ROW FF : ... .. . ... ... : ... .. . ... ... : ... .. . ... ... : ... .. . ... : ... .. . ... ... : ... .. . ... ... ... ...

# End of export
