# FamiTracker text export 0.4.2

# Song information
TITLE           "Rubicon"
AUTHOR          "MovieMovies1"
COPYRIGHT       "Original: Jeroen Tel"

# Song comment
COMMENT ""

# Global settings
MACHINE         0
FRAMERATE       100
EXPANSION       8
VIBRATO         1
SPLIT           21

# Macros
MACRO       0   0  -1  -1   0 : 0 15 14 12 11 10 9 8 7 6 5 5 4 4 3 3 3 3 3 2 2 2 1 1 1 1 0
MACRO       0   1  -1  -1   0 : 0 0 15 15 15 15 0 15 0 13 0 11 0 9 0 7 0 6 0 4 0 2 0 1 0
MACRO       0   2  -1  -1   0 : 15 0
MACRO       0   3  -1  -1   0 : 15 15 0 0 0 0 15 0 13 0 12 0 10 0 8 0 7 0 5 0 3 0 1 0 0
MACRO       0   4  -1  -1   0 : 11 10 9 8 7 6 6 5 4 3 2 2 1 1 1 0
MACRO       0   6  -1  -1   0 : 0 1 0 2 2 0 2 3 3 0 3 4 0 4 4 4 5 5 0 5 6 6 0 6 7 7 7 7 0 8 8 8 8 9 9 9 0 10 10 10 10 11 11 11 0 11 12 12 12 12 13 13 13 0 14 14 14 14 14 15 15 14 0 14 13 13 13 13 12 12 12 0 11 11 10 10 10 10 9 0 9 8 8 8 7 7 7 0 6 6 6 5 5 5 4 0 4 3 3 3 3 0 2 2 1 1 1 0
MACRO       0   7  -1  -1   0 : 1 1 1 1 1 0 1 1 1 2 0 2 2 2 2 2 2 0 3 3 3 0 3 3 3 0 3 4 0 4 4 0 4 4 0 4 5 5 5 0 5 5 5 0 5 6 0 6 6 6 6 0 6 6 7 7 7 7 0 7 7 7 8 8 0 8 8 8 8 8 0 9 9 9 9 9 9 0 9 9 10 10 10 10 10 0 10 10 10 11 11 11 0 11 11 11 11 11 12 12 0 12 12 12 12 12 0 13 13 13 12 0 12 12 12 12 11 11 0 11 11 11 0 10 10 10 10 10 9 0 9 9 9 0 8 8 8 8 0 7 7 7 0 7 7 6 6 0 6 6 6 0 5 5 5 5 0 4 4 0 4 4 3 0 3 3 3 0 2 0 2 2 0 2 1 1 0
MACRO       0   8  -1  -1   0 : 15 6 2 0
MACRO       0   9  -1  11   0 : 15 13 12 11 11 10 10 9 9 8 8 8 7 6 6 5 4 4 3 2 2 1 1 0 0 0 0 0 0
MACRO       0  10  -1  -1   0 : 15 14 13 13 12 11 11 11 10 9 7 5 3 1 0
MACRO       0  11  -1   6   0 : 6 13 13 13 10 10 9 7 6 4 2 1 0
MACRO       0  12  -1  -1   0 : 15 11 10 10 10 9 9 9 9 9 8 8 8 8 7 7 7 7 7 6 6 6 6 6 5 5 5 5 5 4 4 4 4 3 3 3 3 3 2 2 2 2 2 1 1 1 1 1 0
MACRO       0  13  -1  -1   0 : 15 14 14 13 12 12 11 11 10 10 9 8 8 7 7 6 6 5 4 4 3 3 2 1 0
MACRO       0  14  -1  -1   0 : 10
MACRO       0  15  -1  -1   0 : 0 0 0 0 0 0 0 15 0 13 0 11 0 9 0 7 0 6 0 4 0 2 0 1 0
MACRO       0  16  -1  -1   0 : 15 14 13 13 12 11 11 11
MACRO       1   0  -1  -1   0 : 0 -6 -8 -9 -11 -13 -16 -18 -21 -24 -27
MACRO       1   1   6  -1   0 : 0 0 0 0 -2 -2 23
MACRO       1   2   0  -1   0 : 7 7 2 2 0 0
MACRO       1   3   0  -1   0 : 6 6 2 2 0 0
MACRO       1   4   0  -1   0 : 8 8 3 3 0 0
MACRO       1   5   0  -1   0 : 10 10 3 3 0 0
MACRO       1   6   0  -1   0 : 7 7 3 3 0 0
MACRO       1   7   0  -1   0 : 9 9 5 5 0 0
MACRO       1   8   0  -1   0 : 10 10 5 5 0 0
MACRO       1   9   0  -1   0 : 7 7 5 5 0 0
MACRO       1  10   0  -1   0 : 8 8 3 3 0 0
MACRO       1  11   0  -1   0 : 0 0 0 5 5 5 9 9 9
MACRO       1  12  -1  -1   0 : 0 -2 -2 -6 -7
MACRO       1  13   0  -1   0 : 0 0 0 3 3 3 8 8 8
MACRO       1  14  -1  -1   0 : 0 0 0 0 -2 -2 0 13
MACRO       1  15  -1  -1   0 : 0 0 0 0 -2 -2 0 10
MACRO       2   0   6  -1   0 : 127 -45 -57 -67 82 82 33
MACRO       2   2   0  -1   0 : 10
MACRO       2   3   7  -1   0 : 3 -109 -82 -82 -82 -107 -112 58 -88 -104 20 92 92 92 92 90 90 -67 -26 -11 -62 40 -28 -11 -18 -26 -40
MACRO       4   0  -1  -1   0 : 2
MACRO       4   1  -1  -1   0 : 0 0 2 2 2 2 0
MACRO       4   2  -1  -1   0 : 2
MACRO       4   3   0  -1   0 : 0 0 0 0 0 0 0 0 1 1 1 1 1 1 1 1 2 2 2 2 2 2 2 2 1 1 1 1 1 1 1 1
MACRO       4   4  -1  -1   0 : 2 2 1
MACRO       4   5  -1  -1   0 : 2
MACRO       4   6  -1  -1   0 : 2 2 1 1 0 0
MACRO       4   7   0  -1   0 : 2 2 2 2 2 2 2 2 2 1 1 1 1 1 1 1 1 1 0 0 0 0 0 0 0 0 0 1 1 1 1 1 1 1 1 1
MACRO       4   8  -1  -1   0 : 0 0 2 2 2 2 0 1

# DPCM samples

# Instruments
INST2A03   0     0   0  -1  -1   0 "Kick"
INST2A03   1     1   1  -1  -1   1 "Snare"
INST2A03   2     2  -1  -1  -1  -1 "Noise Kick"
INST2A03   3     3  -1  -1  -1  -1 "Noise Snare"
INST2A03   4     4  -1   0  -1   2 "Scratch"
INST2A03   5     6  -1   2  -1  -1 "Downpitch"
INST2A03   6     7  -1   2  -1  -1 "Downpitch 2"
INST2A03   7     8  -1  -1  -1  -1 "Hat"
INST2A03   8     9   2  -1  -1   3 "Arp 1"
INST2A03   9     9   3  -1  -1   3 "Arp 2"
INST2A03  10     9   4  -1  -1   3 "Arp 3"
INST2A03  11     9   5  -1  -1   3 "Arp 4"
INST2A03  12     9   6  -1  -1   3 "Arp 5"
INST2A03  13     9   7  -1  -1   3 "Arp 6"
INST2A03  14     9   8  -1  -1   3 "Arp 7"
INST2A03  15     9   9  -1  -1   3 "Arp 8"
INST2A03  16     9  10  -1  -1   3 "Arp 9"
INST2A03  17    10  -1  -1  -1   4 "Bass support"
INST2A03  18    14  -1  -1  -1  -1 "Bass"
INST2A03  19    12  -1   3  -1   5 "Bleep"
INST2A03  20    11  -1  -1  -1   6 "Lead"
INST2A03  21     9  11  -1  -1   7 "Arp 10"
INST2A03  22    13  12  -1  -1  -1 "Noise Effect"
INST2A03  23     9  13  -1  -1   7 "Arp 11"
INST2A03  24     1  14  -1  -1   1 "Snare 2"
INST2A03  25    15  15  -1  -1   8 "Snare 3"
INST2A03  26    16  -1  -1  -1   4 "Square Bass"

# Tracks

TRACK  64   6 125 "New song"
COLUMNS : 1 1 1 1 1 1 2

ORDER 00 : 00 00 00 00 00 00 00
ORDER 01 : 01 01 00 01 00 01 00
ORDER 02 : 02 02 00 01 00 01 00
ORDER 03 : 02 02 00 01 00 01 00
ORDER 04 : 02 03 01 01 00 01 00
ORDER 05 : 02 03 01 01 00 01 00
ORDER 06 : 03 04 02 02 01 02 01
ORDER 07 : 02 03 01 03 00 03 02
ORDER 08 : 02 03 01 03 00 03 03
ORDER 09 : 02 03 01 03 00 03 02
ORDER 0A : 02 03 01 03 00 03 04
ORDER 0B : 04 05 03 04 00 04 05
ORDER 0C : 05 06 04 05 00 05 06
ORDER 0D : 06 07 05 04 00 04 07
ORDER 0E : 07 08 06 05 00 05 08
ORDER 0F : 08 09 07 06 01 06 01
ORDER 10 : 09 0A 08 03 00 03 0A
ORDER 11 : 09 0A 08 03 00 03 0B
ORDER 12 : 09 0A 08 03 00 03 0A
ORDER 13 : 09 0A 08 03 00 03 0B
ORDER 14 : 0A 0B 09 02 01 02 01
ORDER 15 : 09 0A 08 03 00 03 0C
ORDER 16 : 09 0A 08 03 00 03 0D
ORDER 17 : 09 0A 08 03 00 03 0C
ORDER 18 : 09 0A 08 03 00 03 0E
ORDER 19 : 06 07 05 04 00 04 07
ORDER 1A : 07 08 06 05 00 05 08
ORDER 1B : 08 09 07 06 01 06 01
ORDER 1C : 09 0A 08 03 00 03 0A
ORDER 1D : 09 0A 08 03 00 03 0B
ORDER 1E : 09 0A 08 03 00 03 0A
ORDER 1F : 09 0A 08 03 00 03 0B
ORDER 20 : 0B 0C 0A 07 00 07 09
ORDER 21 : 0C 0D 0B 08 00 08 0F

PATTERN 00
ROW 00 : C-2 05 . V02 : C#2 05 . G01 : ... .. . ... : 8-# 02 . ... : ... .. . ... : C-3 00 . ... : ... .. . ... ...
ROW 01 : ... .. . ... : ... .. . ... : ... .. . ... : ... .. . ... : ... .. . ... : ... .. . ... : ... .. . ... ...
ROW 02 : ... .. . ... : ... .. . ... : ... .. . ... : ... .. . ... : ... .. . ... : ... .. . ... : ... .. . ... ...
ROW 03 : ... .. . ... : ... .. . ... : ... .. . ... : 8-# 02 . ... : ... .. . ... : C-3 00 . ... : ... .. . ... ...
ROW 04 : ... .. . ... : ... .. . ... : ... .. . ... : 8-# 03 . ... : ... .. . ... : G-2 01 . ... : ... .. . ... ...
ROW 05 : ... .. . ... : ... .. . ... : ... .. . ... : ... .. . ... : ... .. . ... : ... .. . ... : ... .. . ... ...
ROW 06 : ... .. . ... : ... .. . ... : ... .. . ... : 8-# 02 . ... : ... .. . ... : C-3 00 . ... : ... .. . ... ...
ROW 07 : ... .. . ... : ... .. . ... : ... .. . ... : ... .. . ... : ... .. . ... : ... .. . ... : ... .. . ... ...
ROW 08 : ... .. . ... : ... .. . ... : ... .. . ... : ... .. . ... : ... .. . ... : A-3 04 . ... : C-4 04 . ... ...
ROW 09 : ... .. . ... : ... .. . ... : ... .. . ... : ... .. . ... : ... .. . ... : ... .. . ... : ... .. . ... ...
ROW 0A : ... .. . ... : ... .. . ... : ... .. . ... : ... .. . ... : ... .. . ... : A-3 04 . ... : C-4 04 . ... ...
ROW 0B : ... .. . ... : ... .. . ... : ... .. . ... : ... .. . ... : ... .. . ... : ... .. . ... : ... .. . ... ...
ROW 0C : ... .. . ... : ... .. . ... : ... .. . ... : 8-# 03 . ... : ... .. . ... : G-2 01 . ... : ... .. . ... ...
ROW 0D : ... .. . ... : ... .. . ... : ... .. . ... : ... .. . ... : ... .. . ... : ... .. . ... : ... .. . ... ...
ROW 0E : ... .. . ... : ... .. . ... : ... .. . ... : 8-# 02 . ... : ... .. . ... : C-3 00 . ... : ... .. . ... ...
ROW 0F : ... .. . ... : ... .. . ... : ... .. . ... : ... .. . ... : ... .. . ... : ... .. . ... : ... .. . ... ...
ROW 10 : ... .. . ... : ... .. . ... : ... .. . ... : 8-# 02 . ... : ... .. . ... : C-3 00 . ... : ... .. . ... ...
ROW 11 : ... .. . ... : ... .. . ... : ... .. . ... : ... .. . ... : ... .. . ... : ... .. . ... : ... .. . ... ...
ROW 12 : ... .. . ... : ... .. . ... : ... .. . ... : ... .. . ... : ... .. . ... : ... .. . ... : ... .. . ... ...
ROW 13 : ... .. . ... : ... .. . ... : ... .. . ... : 8-# 02 . ... : ... .. . ... : C-3 00 . ... : ... .. . ... ...
ROW 14 : ... .. . ... : ... .. . ... : ... .. . ... : 8-# 03 . ... : ... .. . ... : G-2 01 . ... : ... .. . ... ...
ROW 15 : ... .. . ... : ... .. . ... : ... .. . ... : ... .. . ... : ... .. . ... : ... .. . ... : ... .. . ... ...
ROW 16 : ... .. . ... : ... .. . ... : ... .. . ... : 8-# 02 . ... : ... .. . ... : C-3 00 . ... : ... .. . ... ...
ROW 17 : ... .. . ... : ... .. . ... : ... .. . ... : ... .. . ... : ... .. . ... : ... .. . ... : ... .. . ... ...
ROW 18 : ... .. . ... : ... .. . ... : ... .. . ... : ... .. . ... : ... .. . ... : A-3 04 . ... : C-4 04 . ... ...
ROW 19 : ... .. . ... : ... .. . ... : ... .. . ... : ... .. . ... : ... .. . ... : ... .. . ... : ... .. . ... ...
ROW 1A : ... .. . ... : ... .. . ... : ... .. . ... : ... .. . ... : ... .. . ... : A-3 04 . ... : C-4 04 . ... ...
ROW 1B : ... .. . ... : ... .. . ... : ... .. . ... : ... .. . ... : ... .. . ... : ... .. . ... : ... .. . ... ...
ROW 1C : ... .. . ... : ... .. . ... : ... .. . ... : 8-# 03 . ... : ... .. . ... : G-2 01 . ... : ... .. . ... ...
ROW 1D : ... .. . ... : ... .. . ... : ... .. . ... : ... .. . ... : ... .. . ... : ... .. . ... : ... .. . ... ...
ROW 1E : ... .. . ... : ... .. . ... : ... .. . ... : 8-# 02 . ... : ... .. . ... : C-3 00 . ... : ... .. . ... ...
ROW 1F : ... .. . ... : ... .. . ... : ... .. . ... : ... .. . ... : ... .. . ... : ... .. . ... : ... .. . ... ...
ROW 20 : ... .. . ... : ... .. . ... : ... .. . ... : 8-# 02 . ... : ... .. . ... : C-3 00 . ... : ... .. . ... ...
ROW 21 : ... .. . ... : ... .. . ... : ... .. . ... : ... .. . ... : ... .. . ... : ... .. . ... : ... .. . ... ...
ROW 22 : ... .. . ... : ... .. . ... : ... .. . ... : ... .. . ... : ... .. . ... : ... .. . ... : ... .. . ... ...
ROW 23 : ... .. . ... : ... .. . ... : ... .. . ... : 8-# 02 . ... : ... .. . ... : C-3 00 . ... : ... .. . ... ...
ROW 24 : ... .. . ... : ... .. . ... : ... .. . ... : 8-# 03 . ... : ... .. . ... : G-2 01 . ... : ... .. . ... ...
ROW 25 : ... .. . ... : ... .. . ... : ... .. . ... : ... .. . ... : ... .. . ... : ... .. . ... : ... .. . ... ...
ROW 26 : ... .. . ... : ... .. . ... : ... .. . ... : 8-# 02 . ... : ... .. . ... : C-3 00 . ... : ... .. . ... ...
ROW 27 : ... .. . ... : ... .. . ... : ... .. . ... : ... .. . ... : ... .. . ... : ... .. . ... : ... .. . ... ...
ROW 28 : ... .. . ... : ... .. . ... : ... .. . ... : ... .. . ... : ... .. . ... : A-3 04 . ... : C-4 04 . ... ...
ROW 29 : ... .. . ... : ... .. . ... : ... .. . ... : ... .. . ... : ... .. . ... : ... .. . ... : ... .. . ... ...
ROW 2A : ... .. . ... : ... .. . ... : ... .. . ... : ... .. . ... : ... .. . ... : A-3 04 . ... : C-4 04 . ... ...
ROW 2B : ... .. . ... : ... .. . ... : ... .. . ... : ... .. . ... : ... .. . ... : ... .. . ... : ... .. . ... ...
ROW 2C : ... .. . ... : ... .. . ... : ... .. . ... : 8-# 03 . ... : ... .. . ... : G-2 01 . ... : ... .. . ... ...
ROW 2D : ... .. . ... : ... .. . ... : ... .. . ... : ... .. . ... : ... .. . ... : ... .. . ... : ... .. . ... ...
ROW 2E : ... .. . ... : ... .. . ... : ... .. . ... : 8-# 02 . ... : ... .. . ... : C-3 00 . ... : ... .. . ... ...
ROW 2F : ... .. . ... : ... .. . ... : ... .. . ... : ... .. . ... : ... .. . ... : ... .. . ... : ... .. . ... ...
ROW 30 : D#3 06 . ... : E-3 06 . G01 : ... .. . ... : 8-# 02 . ... : ... .. . ... : C-3 00 . ... : ... .. . ... ...
ROW 31 : ... .. . ... : ... .. . ... : ... .. . ... : ... .. . ... : ... .. . ... : ... .. . ... : ... .. . ... ...
ROW 32 : ... .. . ... : ... .. . ... : ... .. . ... : ... .. . ... : ... .. . ... : ... .. . ... : ... .. . ... ...
ROW 33 : ... .. . ... : ... .. . ... : ... .. . ... : 8-# 02 . ... : ... .. . ... : C-3 00 . ... : ... .. . ... ...
ROW 34 : ... .. . ... : ... .. . ... : ... .. . ... : 8-# 03 . ... : ... .. . ... : G-2 01 . ... : ... .. . ... ...
ROW 35 : ... .. . ... : ... .. . ... : ... .. . ... : ... .. . ... : ... .. . ... : ... .. . ... : ... .. . ... ...
ROW 36 : ... .. . ... : ... .. . ... : ... .. . ... : 8-# 02 . ... : ... .. . ... : C-3 00 . ... : ... .. . ... ...
ROW 37 : ... .. . ... : ... .. . ... : ... .. . ... : ... .. . ... : ... .. . ... : ... .. . ... : ... .. . ... ...
ROW 38 : ... .. . ... : ... .. . ... : ... .. . ... : ... .. . ... : ... .. . ... : A-3 04 . ... : C-4 04 . ... ...
ROW 39 : ... .. . ... : ... .. . ... : ... .. . ... : ... .. . ... : ... .. . ... : ... .. . ... : ... .. . ... ...
ROW 3A : ... .. . ... : ... .. . ... : ... .. . ... : ... .. . ... : ... .. . ... : A-3 04 . ... : C-4 04 . ... ...
ROW 3B : ... .. . ... : ... .. . ... : ... .. . ... : ... .. . ... : ... .. . ... : ... .. . ... : ... .. . ... ...
ROW 3C : ... .. . ... : ... .. . ... : ... .. . ... : 8-# 03 . ... : ... .. . ... : G-2 01 . ... : ... .. . ... ...
ROW 3D : ... .. . ... : ... .. . ... : ... .. . ... : ... .. . ... : ... .. . ... : ... .. . ... : ... .. . ... ...
ROW 3E : ... .. . ... : ... .. . ... : ... .. . ... : 8-# 02 . ... : ... .. . ... : C-3 00 . ... : ... .. . ... ...
ROW 3F : ... .. . ... : ... .. . ... : ... .. . ... : ... .. . ... : ... .. . ... : ... .. . ... : ... .. . ... ...

PATTERN 01
ROW 00 : ... .. . ... : ... .. . ... : G#1 12 . ... : 8-# 02 . ... : ... .. . ... : C-3 00 . ... : ... .. . ... ...
ROW 01 : ... .. . ... : ... .. . ... : ... .. . ... : 9-# 07 . ... : ... .. . ... : --- 00 . ... : ... .. . ... ...
ROW 02 : ... .. . ... : ... .. . ... : ... .. . S09 : 9-# 07 . ... : ... .. . ... : ... .. . ... : ... .. . ... ...
ROW 03 : ... .. . ... : ... .. . ... : G#1 12 . S09 : 8-# 02 . ... : ... .. . ... : C-3 00 . ... : ... .. . ... ...
ROW 04 : ... .. . ... : ... .. . ... : G#2 12 . ... : 8-# 03 . ... : ... .. . ... : G-2 01 . ... : ... .. . ... ...
ROW 05 : ... .. . ... : ... .. . ... : ... .. . S09 : ... .. . ... : ... .. . ... : ... .. . ... : ... .. . ... ...
ROW 06 : ... .. . ... : ... .. . ... : G#1 12 . ... : 8-# 02 . ... : ... .. . ... : C-3 00 . ... : ... .. . ... ...
ROW 07 : ... .. . ... : ... .. . ... : ... .. . S09 : 9-# 07 . ... : ... .. . ... : --- .. . ... : ... .. . ... ...
ROW 08 : ... .. . ... : ... .. . ... : ... .. . ... : 9-# 07 . ... : ... .. . ... : A-3 04 . ... : ... .. . ... ...
ROW 09 : ... .. . ... : ... .. . ... : ... .. . ... : 9-# 07 . ... : ... .. . ... : ... .. . ... : ... .. . ... ...
ROW 0A : ... .. . ... : ... .. . ... : ... .. . ... : 9-# 07 . ... : ... .. . ... : A-3 04 . ... : ... .. . ... ...
ROW 0B : ... .. . ... : ... .. . ... : ... .. . ... : 9-# 07 . ... : ... .. . ... : ... .. . ... : ... .. . ... ...
ROW 0C : ... .. . ... : ... .. . ... : ... .. . ... : 8-# 03 . ... : ... .. . ... : G-2 01 . ... : ... .. . ... ...
ROW 0D : ... .. . ... : ... .. . ... : ... .. . ... : ... .. . ... : ... .. . ... : ... .. . ... : ... .. . ... ...
ROW 0E : ... .. . ... : ... .. . ... : ... .. . ... : 8-# 02 . ... : ... .. . ... : C-3 00 . ... : ... .. . ... ...
ROW 0F : ... .. . ... : ... .. . ... : ... .. . ... : 9-# 07 . ... : ... .. . ... : --- .. . ... : ... .. . ... ...
ROW 10 : ... .. . ... : ... .. . ... : A#1 12 . ... : 8-# 02 . ... : ... .. . ... : C-3 00 . ... : ... .. . ... ...
ROW 11 : ... .. . ... : ... .. . ... : ... .. . ... : 9-# 07 . ... : ... .. . ... : --- .. . ... : ... .. . ... ...
ROW 12 : ... .. . ... : ... .. . ... : ... .. . S09 : 9-# 07 . ... : ... .. . ... : ... .. . ... : ... .. . ... ...
ROW 13 : ... .. . ... : ... .. . ... : A#1 12 . S09 : 8-# 02 . ... : ... .. . ... : C-3 00 . ... : ... .. . ... ...
ROW 14 : ... .. . ... : ... .. . ... : A#2 12 . ... : 8-# 03 . ... : ... .. . ... : G-2 01 . ... : ... .. . ... ...
ROW 15 : ... .. . ... : ... .. . ... : ... .. . S09 : ... .. . ... : ... .. . ... : ... .. . ... : ... .. . ... ...
ROW 16 : ... .. . ... : ... .. . ... : A#1 12 . ... : 8-# 02 . ... : ... .. . ... : C-3 00 . ... : ... .. . ... ...
ROW 17 : ... .. . ... : ... .. . ... : ... .. . S09 : 9-# 07 . ... : ... .. . ... : --- .. . ... : ... .. . ... ...
ROW 18 : ... .. . ... : ... .. . ... : ... .. . ... : 9-# 07 . ... : ... .. . ... : A-3 04 . ... : ... .. . ... ...
ROW 19 : ... .. . ... : ... .. . ... : ... .. . ... : 9-# 07 . ... : ... .. . ... : ... .. . ... : ... .. . ... ...
ROW 1A : ... .. . ... : ... .. . ... : ... .. . ... : 9-# 07 . ... : ... .. . ... : A-3 04 . ... : ... .. . ... ...
ROW 1B : ... .. . ... : ... .. . ... : ... .. . ... : 9-# 07 . ... : ... .. . ... : ... .. . ... : ... .. . ... ...
ROW 1C : ... .. . ... : ... .. . ... : G-1 12 . ... : 8-# 03 . ... : ... .. . ... : G-2 01 . ... : ... .. . ... ...
ROW 1D : ... .. . ... : ... .. . ... : ... .. . S09 : ... .. . ... : ... .. . ... : ... .. . ... : ... .. . ... ...
ROW 1E : ... .. . ... : ... .. . ... : A#1 12 . ... : 8-# 02 . ... : ... .. . ... : C-3 00 . ... : ... .. . ... ...
ROW 1F : ... .. . ... : ... .. . ... : ... .. . S09 : 9-# 07 . ... : ... .. . D00 : --- .. . ... : ... .. . ... ...
ROW 20 : ... .. . ... : ... .. . ... : C-2 12 . ... : 8-# 02 . ... : ... .. . ... : C-3 00 . ... : ... .. . ... ...
ROW 21 : ... .. . ... : ... .. . ... : ... .. . ... : 9-# 07 . ... : ... .. . ... : --- .. . ... : ... .. . ... ...
ROW 22 : ... .. . ... : ... .. . ... : ... .. . S09 : 9-# 07 . ... : ... .. . ... : ... .. . ... : ... .. . ... ...
ROW 23 : ... .. . ... : ... .. . ... : C-2 12 . S09 : 8-# 02 . ... : ... .. . ... : C-3 00 . ... : ... .. . ... ...
ROW 24 : ... .. . ... : ... .. . ... : C-3 12 . ... : 8-# 03 . ... : ... .. . ... : G-2 01 . ... : ... .. . ... ...
ROW 25 : ... .. . ... : ... .. . ... : ... .. . S09 : ... .. . ... : ... .. . ... : ... .. . ... : ... .. . ... ...
ROW 26 : ... .. . ... : ... .. . ... : C-2 12 . ... : 8-# 02 . ... : ... .. . ... : C-3 00 . ... : ... .. . ... ...
ROW 27 : ... .. . ... : ... .. . ... : ... .. . S09 : 9-# 07 . ... : ... .. . ... : --- .. . ... : ... .. . ... ...
ROW 28 : ... .. . ... : ... .. . ... : ... .. . ... : 9-# 07 . ... : ... .. . ... : A-3 04 . ... : ... .. . ... ...
ROW 29 : ... .. . ... : ... .. . ... : ... .. . ... : 9-# 07 . ... : ... .. . ... : ... .. . ... : ... .. . ... ...
ROW 2A : ... .. . ... : ... .. . ... : ... .. . ... : 9-# 07 . ... : ... .. . ... : A-3 04 . ... : ... .. . ... ...
ROW 2B : ... .. . ... : ... .. . ... : ... .. . ... : 9-# 07 . ... : ... .. . ... : ... .. . ... : ... .. . ... ...
ROW 2C : ... .. . ... : ... .. . ... : ... .. . ... : 8-# 03 . ... : ... .. . ... : G-2 01 . ... : ... .. . ... ...
ROW 2D : ... .. . ... : ... .. . ... : ... .. . ... : ... .. . ... : ... .. . ... : ... .. . ... : ... .. . ... ...
ROW 2E : ... .. . ... : ... .. . ... : A#1 12 . ... : 8-# 02 . ... : ... .. . ... : C-3 00 . ... : ... .. . ... ...
ROW 2F : ... .. . ... : ... .. . ... : ... .. . S09 : 9-# 07 . ... : ... .. . ... : --- .. . ... : ... .. . ... ...
ROW 30 : D#3 06 . ... : E-3 06 . G01 : C-2 12 . ... : 8-# 02 . ... : ... .. . ... : C-3 00 . ... : ... .. . ... ...
ROW 31 : ... .. . ... : ... .. . ... : ... .. . ... : 9-# 07 . ... : ... .. . ... : --- .. . ... : ... .. . ... ...
ROW 32 : ... .. . ... : ... .. . ... : ... .. . S09 : 9-# 07 . ... : ... .. . ... : ... .. . ... : ... .. . ... ...
ROW 33 : ... .. . ... : ... .. . ... : C-2 12 . S09 : 8-# 02 . ... : ... .. . ... : C-3 00 . ... : ... .. . ... ...
ROW 34 : ... .. . ... : ... .. . ... : C-3 12 . ... : 8-# 03 . ... : ... .. . ... : G-2 01 . ... : ... .. . ... ...
ROW 35 : ... .. . ... : ... .. . ... : ... .. . S09 : ... .. . ... : ... .. . ... : ... .. . ... : ... .. . ... ...
ROW 36 : ... .. . ... : ... .. . ... : C-2 12 . ... : 8-# 02 . ... : ... .. . ... : C-3 00 . ... : ... .. . ... ...
ROW 37 : ... .. . ... : ... .. . ... : ... .. . S09 : 9-# 07 . ... : ... .. . ... : --- .. . ... : ... .. . ... ...
ROW 38 : ... .. . ... : ... .. . ... : ... .. . ... : 9-# 07 . ... : ... .. . ... : A-3 04 . ... : ... .. . ... ...
ROW 39 : ... .. . ... : ... .. . ... : ... .. . ... : 9-# 07 . ... : ... .. . ... : ... .. . ... : ... .. . ... ...
ROW 3A : ... .. . ... : ... .. . ... : ... .. . ... : 9-# 07 . ... : ... .. . ... : A-3 04 . ... : ... .. . ... ...
ROW 3B : ... .. . ... : ... .. . ... : ... .. . ... : 9-# 07 . ... : ... .. . ... : ... .. . ... : ... .. . ... ...
ROW 3C : ... .. . ... : ... .. . ... : C-2 12 . S09 : 8-# 03 . ... : ... .. . ... : G-2 01 . ... : ... .. . ... ...
ROW 3D : ... .. . ... : ... .. . ... : D-2 12 . S09 : ... .. . ... : ... .. . ... : ... .. . ... : ... .. . ... ...
ROW 3E : ... .. . ... : ... .. . ... : A#1 12 . ... : 8-# 02 . ... : ... .. . ... : C-3 00 . ... : ... .. . ... ...
ROW 3F : ... .. . ... : ... .. . ... : ... .. . S09 : 9-# 07 . ... : ... .. . ... : --- .. . ... : ... .. . ... ...

PATTERN 02
ROW 00 : ... .. . ... : ... .. . ... : C-2 12 . ... : 8-# 02 . ... : ... .. . ... : C-3 00 . ... : ... .. . ... ...
ROW 01 : ... .. . ... : ... .. . ... : ... .. . ... : 9-# 07 . ... : ... .. . ... : --- 00 . ... : ... .. . ... ...
ROW 02 : G#3 08 . ... : ... .. . ... : ... .. . S09 : 9-# 07 . ... : ... .. . ... : ... .. . ... : G#4 14 . S09 ...
ROW 03 : === .. . ... : ... .. . ... : C-3 12 . ... : 8-# 02 . ... : ... .. . ... : C-3 00 . ... : ... .. . ... ...
ROW 04 : ... .. . ... : ... .. . ... : ... .. . S09 : 8-# 03 . ... : ... .. . ... : G-2 01 . ... : G#4 14 . S09 ...
ROW 05 : G#3 08 . ... : ... .. . ... : C-2 12 . S09 : ... .. . ... : ... .. . ... : ... .. . ... : ... .. . ... ...
ROW 06 : === 08 . ... : ... .. . ... : C-2 12 . ... : 9-# 07 . ... : ... .. . ... : ... .. . ... : G#4 14 . S09 ...
ROW 07 : ... .. . ... : ... .. . ... : ... .. . S09 : 8-# 02 . ... : ... .. . ... : C-3 00 . ... : ... .. . ... ...
ROW 08 : G#3 08 . ... : ... .. . ... : C-2 12 . ... : 8-# 02 . ... : ... .. . ... : C-3 00 . ... : G#4 14 . ... ...
ROW 09 : ... .. . ... : ... .. . ... : ... .. . S09 : 9-# 07 . ... : ... .. . ... : --- 00 . ... : ... .. . 464 ...
ROW 0A : === .. . ... : ... .. . ... : A#2 12 . S09 : 9-# 07 . ... : ... .. . ... : ... .. . ... : ... .. . S09 ...
ROW 0B : G#3 09 . ... : ... .. . ... : C-3 12 . S09 : 8-# 02 . ... : ... .. . ... : C-3 00 . ... : A#4 14 . S09 400
ROW 0C : ... .. . ... : ... .. . ... : D#3 12 . S09 : 8-# 03 . ... : ... .. . ... : G-2 01 . ... : ... .. . ... ...
ROW 0D : === .. . ... : ... .. . ... : C-3 12 . S09 : ... .. . ... : ... .. . ... : ... .. . ... : ... .. . ... ...
ROW 0E : G#3 08 . ... : ... .. . ... : A#2 12 . S09 : 9-# 07 . ... : ... .. . ... : ... .. . ... : F-4 14 . ... ...
ROW 0F : === .. . ... : ... .. . ... : G-2 12 . S09 : 8-# 02 . ... : ... .. . ... : C-3 00 . ... : ... .. . ... 464
ROW 10 : ... .. . ... : ... .. . ... : F-2 12 . S09 : 8-# 02 . ... : ... .. . ... : C-3 00 . ... : ... .. . ... ...
ROW 11 : ... .. . ... : ... .. . ... : D#2 12 . S09 : 9-# 07 . ... : ... .. . ... : --- 00 . ... : ... .. . S09 ...
ROW 12 : G#3 08 . ... : ... .. . ... : F-2 12 . ... : 9-# 07 . ... : ... .. . ... : ... .. . ... : D#4 14 . S09 400
ROW 13 : === .. . ... : ... .. . ... : ... .. . S09 : 8-# 02 . ... : ... .. . ... : C-3 00 . ... : ... .. . ... ...
ROW 14 : ... .. . ... : ... .. . ... : G-2 12 . ... : 8-# 03 . ... : ... .. . ... : G-2 01 . ... : F-4 14 . S09 ...
ROW 15 : G#3 08 . ... : ... .. . ... : ... .. . S09 : ... .. . ... : ... .. . ... : ... .. . ... : ... .. . ... ...
ROW 16 : === 08 . ... : ... .. . ... : D#2 12 . S09 : 9-# 07 . ... : ... .. . ... : ... .. . ... : D#4 14 . S09 ...
ROW 17 : ... .. . ... : ... .. . ... : C-2 12 . ... : 8-# 02 . ... : ... .. . ... : C-3 00 . ... : ... .. . ... ...
ROW 18 : G#3 08 . ... : ... .. . ... : ... .. . ... : 8-# 02 . ... : ... .. . ... : C-3 00 . ... : F-4 14 . ... ...
ROW 19 : ... .. . ... : ... .. . ... : ... .. . ... : 9-# 07 . ... : ... .. . ... : --- 00 . ... : ... .. . ... 464
ROW 1A : === .. . ... : ... .. . ... : ... .. . ... : 9-# 07 . ... : ... .. . ... : ... .. . ... : ... .. . S09 ...
ROW 1B : G#3 09 . ... : ... .. . ... : ... .. . ... : 8-# 02 . ... : ... .. . ... : C-3 00 . ... : G-4 14 . S09 400
ROW 1C : ... .. . ... : ... .. . ... : --- .. . ... : F-# 00 . ... : ... .. . ... : D-2 13 . ... : ... .. . ... ...
ROW 1D : === .. . ... : ... .. . ... : ... .. . ... : ... .. . ... : ... .. . ... : ... .. . ... : ... .. . ... ...
ROW 1E : G#3 08 . ... : ... .. . ... : ... .. . ... : ... .. . ... : ... .. . ... : ... .. . ... : D#4 14 . ... ...
ROW 1F : === .. . ... : ... .. . ... : ... .. . ... : ... .. . ... : ... .. . ... : ... .. . ... : ... .. . ... 464
ROW 20 : ... .. . ... : ... .. . ... : ... .. . ... : ... .. . ... : ... .. . ... : ... .. . ... : ... .. . ... ...
ROW 21 : ... .. . ... : ... .. . ... : ... .. . ... : ... .. . ... : ... .. . ... : ... .. . ... : ... .. . S09 ...
ROW 22 : G-3 0A . ... : ... .. . ... : ... .. . ... : ... .. . ... : ... .. . ... : ... .. . ... : C-4 14 . S09 400
ROW 23 : === .. . ... : ... .. . ... : ... .. . ... : ... .. . ... : ... .. . ... : ... .. . ... : ... .. . ... ...
ROW 24 : ... .. . ... : ... .. . ... : ... .. . ... : ... .. . ... : ... .. . ... : ... .. . ... : C-4 04 . ... ...
ROW 25 : G-3 0A . ... : ... .. . ... : ... .. . ... : ... .. . ... : ... .. . ... : ... .. . ... : ... .. . ... ...
ROW 26 : === 08 . ... : ... .. . ... : ... .. . ... : ... .. . ... : ... .. . ... : ... .. . ... : C-4 04 . ... ...
ROW 27 : ... .. . ... : ... .. . ... : ... .. . ... : ... .. . ... : ... .. . ... : ... .. . ... : ... .. . ... ...
ROW 28 : G-3 0B . ... : ... .. . ... : ... .. . ... : ... .. . ... : ... .. . ... : ... .. . ... : F-3 04 . ... ...
ROW 29 : ... .. . ... : ... .. . ... : ... .. . ... : ... .. . ... : ... .. . ... : ... .. . ... : G#3 04 . ... ...
ROW 2A : === .. . ... : ... .. . ... : ... .. . ... : ... .. . ... : ... .. . ... : ... .. . ... : B-3 04 . ... ...
ROW 2B : G-3 0C . ... : ... .. . ... : ... .. . ... : ... .. . ... : ... .. . ... : ... .. . ... : G#3 04 . ... ...
ROW 2C : ... .. . ... : ... .. . ... : ... .. . ... : ... .. . ... : ... .. . ... : ... .. . ... : B-3 04 . ... ...
ROW 2D : === .. . ... : ... .. . ... : ... .. . ... : ... .. . ... : ... .. . ... : ... .. . ... : D#4 04 . ... ...
ROW 2E : G-3 0A . ... : ... .. . ... : ... .. . ... : ... .. . ... : ... .. . ... : ... .. . ... : C-4 04 . ... ...
ROW 2F : === .. . ... : ... .. . ... : ... .. . ... : ... .. . ... : ... .. . ... : ... .. . ... : A-3 04 . ... ...
ROW 30 : ... .. . ... : ... .. . ... : ... .. . ... : ... .. . ... : ... .. . ... : ... .. . ... : G-3 04 . ... ...
ROW 31 : ... .. . ... : ... .. . ... : ... .. . ... : ... .. . ... : ... .. . ... : ... .. . ... : A-3 04 . ... ...
ROW 32 : F-3 0D . ... : ... .. . ... : ... .. . ... : ... .. . ... : ... .. . ... : ... .. . ... : D-4 04 . ... ...
ROW 33 : === .. . ... : ... .. . ... : ... .. . ... : ... .. . ... : ... .. . ... : ... .. . ... : C-4 04 . ... ...
ROW 34 : ... .. . ... : ... .. . ... : ... .. . ... : ... .. . ... : ... .. . ... : ... .. . ... : A-3 04 . ... ...
ROW 35 : F-3 0E . ... : ... .. . ... : ... .. . ... : ... .. . ... : ... .. . ... : ... .. . ... : A-3 04 . ... ...
ROW 36 : === 08 . ... : ... .. . ... : ... .. . ... : ... .. . ... : ... .. . ... : ... .. . ... : C-4 04 . ... ...
ROW 37 : ... .. . ... : ... .. . ... : ... .. . ... : ... .. . ... : ... .. . ... : ... .. . ... : G#3 04 . ... ...
ROW 38 : F-3 0D . ... : ... .. . ... : ... .. . ... : ... .. . ... : ... .. . ... : ... .. . ... : G-3 04 . ... ...
ROW 39 : ... .. . ... : ... .. . ... : ... .. . ... : ... .. . ... : ... .. . ... : ... .. . ... : C-4 04 . ... ...
ROW 3A : === .. . ... : ... .. . ... : ... .. . ... : ... .. . ... : ... .. . ... : ... .. . ... : B-3 04 . ... ...
ROW 3B : F-3 0F . ... : ... .. . ... : ... .. . ... : ... .. . ... : ... .. . ... : ... .. . ... : D#4 04 . ... ...
ROW 3C : ... .. . ... : ... .. . ... : ... .. . ... : ... .. . ... : ... .. . ... : ... .. . ... : C#4 04 . ... ...
ROW 3D : === .. . ... : ... .. . ... : ... .. . ... : ... .. . ... : ... .. . ... : ... .. . ... : G#3 04 . ... ...
ROW 3E : D-3 10 . ... : ... .. . ... : ... .. . ... : ... .. . ... : ... .. . ... : ... .. . ... : D#4 04 . ... ...
ROW 3F : === .. . ... : ... .. . ... : ... .. . ... : ... .. . ... : ... .. . ... : ... .. . ... : B-3 04 . ... ...

PATTERN 03
ROW 00 : C-1 12 . V00 : G#0 11 . ... : C-2 12 . ... : 8-# 02 . ... : ... .. . ... : C-3 00 . S08 : ... .. . ... ...
ROW 01 : ... .. . ... : ... .. . ... : ... .. . ... : ... .. . ... : ... .. . ... : ... .. . ... : ... .. . ... ...
ROW 02 : ... .. . S09 : ... .. . ... : ... .. . ... : ... .. . ... : ... .. . ... : ... .. . ... : G#4 14 . S09 ...
ROW 03 : C-2 12 . ... : G#0 11 . ... : ... .. . ... : 8-# 02 . ... : ... .. . ... : C-3 00 . S08 : ... .. . ... ...
ROW 04 : ... .. . S09 : G#1 11 . ... : --- .. . ... : 8-# 03 . ... : ... .. . ... : G-2 01 . ... : G#4 14 . S09 ...
ROW 05 : C-1 12 . S09 : ... .. . ... : ... .. . ... : ... .. . ... : ... .. . ... : ... .. . ... : ... .. . ... ...
ROW 06 : C-1 12 . ... : G#0 11 . ... : C-2 12 . ... : 8-# 02 . ... : ... .. . ... : C-3 00 . S08 : G#4 14 . S09 ...
ROW 07 : ... .. . S09 : ... .. . ... : ... .. . S09 : ... .. . ... : ... .. . ... : ... .. . ... : ... .. . ... ...
ROW 08 : C-1 12 . ... : ... .. . ... : C-2 12 . ... : ... .. . ... : ... .. . ... : A-3 04 . ... : G#4 14 . ... ...
ROW 09 : ... .. . S09 : ... .. . ... : ... .. . ... : ... .. . ... : ... .. . ... : ... .. . ... : ... .. . 464 ...
ROW 0A : A#1 12 . S09 : ... .. . ... : ... .. . ... : ... .. . ... : ... .. . ... : A-3 04 . ... : ... .. . S09 ...
ROW 0B : C-2 12 . S09 : ... .. . ... : ... .. . ... : ... .. . ... : ... .. . ... : ... .. . ... : A#4 14 . S09 400
ROW 0C : D#2 12 . S09 : ... .. . ... : --- .. . ... : 8-# 03 . ... : ... .. . ... : G-2 01 . ... : ... .. . ... ...
ROW 0D : C-2 12 . S09 : ... .. . ... : ... .. . ... : ... .. . ... : ... .. . ... : ... .. . ... : ... .. . ... ...
ROW 0E : A#1 12 . S09 : ... .. . ... : A#1 12 . ... : ... .. . ... : ... .. . ... : ... .. . ... : F-4 14 . ... ...
ROW 0F : G-1 12 . S09 : ... .. . ... : ... .. . ... : ... .. . ... : ... .. . ... : ... .. . ... : ... .. . ... 464
ROW 10 : F-1 12 . S09 : A#0 11 . ... : ... .. . ... : 8-# 02 . ... : ... .. . ... : C-3 00 . S08 : ... .. . ... ...
ROW 11 : D#1 12 . S09 : ... .. . ... : ... .. . S09 : ... .. . ... : ... .. . ... : ... .. . ... : ... .. . S09 ...
ROW 12 : F-1 12 . ... : ... .. . ... : A#2 12 . ... : ... .. . ... : ... .. . ... : ... .. . ... : D#4 14 . S09 400
ROW 13 : ... .. . S09 : A#0 11 . ... : ... .. . ... : 8-# 02 . ... : ... .. . ... : C-3 00 . S08 : ... .. . ... ...
ROW 14 : G-1 12 . ... : A#1 11 . ... : --- .. . ... : 8-# 03 . ... : ... .. . ... : G-2 01 . ... : F-4 14 . S09 ...
ROW 15 : ... .. . S09 : ... .. . ... : ... .. . ... : ... .. . ... : ... .. . ... : ... .. . ... : ... .. . ... ...
ROW 16 : D#1 12 . S09 : A#0 11 . ... : A#1 12 . ... : 8-# 02 . ... : ... .. . ... : C-3 00 . S08 : D#4 14 . S09 ...
ROW 17 : C-1 12 . ... : ... .. . ... : ... .. . S09 : ... .. . ... : ... .. . ... : ... .. . ... : ... .. . ... ...
ROW 18 : ... .. . ... : ... .. . ... : A#1 12 . ... : ... .. . ... : ... .. . ... : A-3 04 . ... : F-4 14 . ... ...
ROW 19 : ... .. . ... : ... .. . ... : ... .. . ... : ... .. . ... : ... .. . ... : ... .. . ... : ... .. . ... 464
ROW 1A : ... .. . ... : ... .. . ... : ... .. . ... : ... .. . ... : ... .. . ... : A-3 04 . ... : ... .. . S09 ...
ROW 1B : ... .. . ... : ... .. . ... : ... .. . ... : ... .. . ... : ... .. . ... : ... .. . ... : G-4 14 . S09 400
ROW 1C : F-2 13 . ... : G-0 11 . ... : --- .. . ... : 8-# 03 . ... : ... .. . ... : G-2 01 . ... : ... .. . ... ...
ROW 1D : ... .. . ... : ... .. . ... : ... .. . ... : ... .. . ... : ... .. . ... : ... .. . ... : ... .. . ... ...
ROW 1E : ... .. . ... : A#0 11 . ... : A#1 12 . ... : ... .. . ... : ... .. . ... : ... .. . ... : A#4 14 . ... Q02
ROW 1F : ... .. . ... : ... .. . ... : ... .. . S09 : ... .. . ... : ... .. . ... : ... .. . ... : ... .. . ... 464
ROW 20 : ... .. . ... : C-1 11 . ... : C-2 12 . ... : 8-# 02 . ... : ... .. . ... : C-3 00 . S08 : ... .. . ... ...
ROW 21 : ... .. . ... : ... .. . ... : ... .. . ... : ... .. . ... : ... .. . ... : ... .. . ... : ... .. . ... ...
ROW 22 : ... .. . ... : ... .. . ... : ... .. . ... : ... .. . ... : ... .. . ... : ... .. . ... : === .. . ... ...
ROW 23 : ... .. . ... : C-1 11 . ... : ... .. . ... : 8-# 02 . ... : ... .. . ... : C-3 00 . S08 : ... .. . ... ...
ROW 24 : ... .. . ... : C-2 11 . ... : --- .. . ... : 8-# 03 . ... : ... .. . ... : G-2 01 . ... : C-4 04 . ... 400
ROW 25 : ... .. . ... : ... .. . ... : ... .. . ... : ... .. . ... : ... .. . ... : ... .. . ... : ... .. . ... ...
ROW 26 : ... .. . ... : C-1 11 . ... : C-2 12 . ... : 8-# 02 . ... : ... .. . ... : C-3 00 . S08 : C-4 04 . ... ...
ROW 27 : ... .. . ... : ... .. . ... : ... .. . S09 : ... .. . ... : ... .. . ... : ... .. . ... : ... .. . ... ...
ROW 28 : ... .. . ... : ... .. . ... : C-2 12 . ... : ... .. . ... : ... .. . ... : A-3 04 . ... : F-3 04 . ... ...
ROW 29 : ... .. . ... : ... .. . ... : ... .. . ... : ... .. . ... : ... .. . ... : ... .. . ... : G#3 04 . ... ...
ROW 2A : ... .. . ... : ... .. . ... : ... .. . ... : ... .. . ... : ... .. . ... : A-3 04 . ... : B-3 04 . ... ...
ROW 2B : ... .. . ... : ... .. . ... : ... .. . ... : ... .. . ... : ... .. . ... : ... .. . ... : G#3 04 . ... ...
ROW 2C : ... .. . ... : ... .. . ... : --- .. . ... : 8-# 03 . ... : ... .. . ... : G-2 01 . ... : B-3 04 . ... ...
ROW 2D : ... .. . ... : ... .. . ... : ... .. . ... : ... .. . ... : ... .. . ... : ... .. . ... : D#4 04 . ... ...
ROW 2E : ... .. . ... : A#0 11 . ... : A#1 12 . ... : ... .. . ... : ... .. . ... : ... .. . ... : C-4 04 . ... ...
ROW 2F : ... .. . ... : ... .. . ... : ... .. . ... : ... .. . ... : ... .. . ... : ... .. . ... : A-3 04 . ... ...
ROW 30 : ... .. . ... : C-1 11 . ... : ... .. . ... : 8-# 02 . ... : ... .. . ... : C-3 00 . S08 : G-3 04 . ... ...
ROW 31 : ... .. . ... : ... .. . ... : ... .. . S09 : ... .. . ... : ... .. . ... : ... .. . ... : A-3 04 . ... ...
ROW 32 : ... .. . ... : ... .. . ... : A#2 12 . ... : ... .. . ... : ... .. . ... : ... .. . ... : D-4 04 . ... ...
ROW 33 : ... .. . ... : C-1 11 . ... : ... .. . ... : 8-# 02 . ... : ... .. . ... : C-3 00 . S08 : C-4 04 . ... ...
ROW 34 : ... .. . ... : C-2 11 . ... : --- .. . ... : 8-# 03 . ... : ... .. . ... : G-2 01 . ... : A-3 04 . ... ...
ROW 35 : ... .. . ... : ... .. . ... : ... .. . ... : ... .. . ... : ... .. . ... : ... .. . ... : A-3 04 . ... ...
ROW 36 : ... .. . ... : C-1 11 . ... : A#1 12 . ... : 8-# 02 . ... : ... .. . ... : C-3 00 . S08 : C-4 04 . ... ...
ROW 37 : ... .. . ... : ... .. . ... : ... .. . S09 : ... .. . ... : ... .. . ... : ... .. . ... : G#3 04 . ... ...
ROW 38 : ... .. . ... : ... .. . ... : A#1 12 . ... : ... .. . ... : ... .. . ... : A-3 04 . ... : G-3 04 . ... ...
ROW 39 : ... .. . ... : ... .. . ... : ... .. . ... : ... .. . ... : ... .. . ... : ... .. . ... : C-4 04 . ... ...
ROW 3A : ... .. . ... : ... .. . ... : ... .. . ... : ... .. . ... : ... .. . ... : A-3 04 . ... : B-3 04 . ... ...
ROW 3B : ... .. . ... : ... .. . ... : ... .. . ... : ... .. . ... : ... .. . ... : ... .. . ... : D#4 04 . ... ...
ROW 3C : ... .. . ... : C-1 11 . ... : --- .. . ... : 8-# 03 . ... : ... .. . ... : G-2 01 . ... : C#4 04 . ... ...
ROW 3D : ... .. . ... : D-1 11 . ... : ... .. . ... : ... .. . ... : ... .. . ... : ... .. . ... : G#3 04 . ... ...
ROW 3E : ... .. . ... : A#0 11 . ... : A#1 12 . ... : ... .. . ... : ... .. . ... : ... .. . ... : D#4 04 . ... ...
ROW 3F : ... .. . ... : ... .. . ... : ... .. . S09 : ... .. . ... : ... .. . ... : ... .. . ... : B-3 04 . ... ...

PATTERN 04
ROW 00 : G-3 0D . ... : C-2 11 . ... : C-1 12 . ... : 8-# 02 . ... : ... .. . ... : F-2 00 . S03 : ... .. . ... ...
ROW 01 : ... .. . ... : ... .. . ... : ... .. . ... : ... .. . ... : ... .. . ... : ... .. . ... : ... .. . ... ...
ROW 02 : ... .. . ... : ... .. . ... : ... .. . ... : ... .. . ... : ... .. . ... : ... .. . ... : G#4 14 . S09 ...
ROW 03 : ... .. . ... : C-3 11 . ... : ... .. . S09 : ... .. . ... : ... .. . ... : ... .. . ... : ... .. . ... ...
ROW 04 : ... .. . ... : ... .. . ... : C-2 12 . ... : 8-# 03 . ... : ... .. . ... : G-2 01 . ... : G#4 14 . S09 ...
ROW 05 : ... .. . ... : C-2 11 . ... : ... .. . ... : ... .. . ... : ... .. . ... : ... .. . ... : ... .. . ... ...
ROW 06 : ... .. . ... : C-2 11 . ... : ... .. . ... : ... .. . ... : ... .. . ... : ... .. . ... : G#4 14 . S09 ...
ROW 07 : === .. . G02 : ... .. . ... : ... .. . ... : ... .. . ... : ... .. . ... : ... .. . ... : ... .. . ... ...
ROW 08 : G-3 0D . ... : C-2 11 . ... : ... .. . ... : 8-# 02 . ... : ... .. . ... : F-2 00 . S03 : C-5 14 . ... ...
ROW 09 : ... .. . ... : ... .. . ... : ... .. . ... : ... .. . ... : ... .. . ... : ... .. . ... : ... .. . 464 ...
ROW 0A : ... .. . ... : A#2 11 . ... : ... .. . ... : ... .. . ... : ... .. . ... : ... .. . ... : ... .. . S09 ...
ROW 0B : ... .. . ... : C-3 11 . ... : ... .. . ... : ... .. . ... : ... .. . ... : ... .. . ... : A#4 14 . ... 400
ROW 0C : ... .. . ... : D#3 11 . ... : --- .. . ... : 8-# 03 . ... : ... .. . ... : G-2 01 . ... : ... .. . ... 464
ROW 0D : ... .. . ... : C-3 11 . ... : ... .. . ... : ... .. . ... : ... .. . ... : ... .. . ... : ... .. . ... S09
ROW 0E : ... .. . ... : A#2 11 . ... : A#1 12 . ... : ... .. . ... : ... .. . ... : ... .. . ... : G-4 14 . S09 400
ROW 0F : === .. . G02 : G-2 11 . ... : ... .. . ... : ... .. . ... : ... .. . ... : ... .. . ... : ... .. . ... 464
ROW 10 : F-3 0D . ... : F-2 11 . ... : ... .. . ... : 8-# 02 . ... : ... .. . ... : F-2 00 . S03 : F-4 14 . S09 400
ROW 11 : ... .. . ... : D#2 11 . ... : ... .. . S09 : ... .. . ... : ... .. . ... : ... .. . ... : ... .. . ... ...
ROW 12 : ... .. . ... : F-2 11 . ... : A#2 12 . ... : ... .. . ... : ... .. . ... : ... .. . ... : D#4 14 . S09 ...
ROW 13 : ... .. . ... : ... .. . ... : ... .. . ... : ... .. . ... : ... .. . ... : ... .. . ... : F-4 14 . S09 ...
ROW 14 : ... .. . ... : G-2 11 . ... : --- .. . ... : 8-# 03 . ... : ... .. . ... : G-2 01 . ... : ... .. . ... ...
ROW 15 : ... .. . ... : ... .. . ... : ... .. . ... : ... .. . ... : ... .. . ... : ... .. . ... : D#4 14 . S09 ...
ROW 16 : ... .. . ... : D#2 11 . ... : A#1 12 . ... : ... .. . ... : ... .. . ... : ... .. . ... : F-4 14 . S09 ...
ROW 17 : === .. . G02 : C-2 11 . ... : ... .. . S09 : ... .. . ... : ... .. . ... : ... .. . ... : ... .. . ... ...
ROW 18 : F-3 0D . ... : ... .. . ... : A#1 12 . ... : 8-# 02 . ... : ... .. . ... : F-2 00 . S03 : F#4 14 . ... ...
ROW 19 : ... .. . ... : ... .. . ... : ... .. . ... : ... .. . ... : ... .. . ... : ... .. . ... : ... .. . S09 464
ROW 1A : ... .. . ... : ... .. . ... : ... .. . ... : ... .. . ... : ... .. . ... : ... .. . ... : G-4 14 . S09 400
ROW 1B : ... .. . ... : ... .. . ... : ... .. . ... : ... .. . ... : ... .. . ... : ... .. . ... : ... .. . ... ...
ROW 1C : ... .. . ... : G#2 13 . ... : --- .. . ... : 8-# 03 . ... : ... .. . ... : G-2 01 . ... : F-4 14 . S09 ...
ROW 1D : ... .. . ... : ... .. . ... : ... .. . ... : ... .. . ... : ... .. . ... : ... .. . ... : ... .. . ... ...
ROW 1E : ... .. . ... : ... .. . ... : A#1 12 . ... : ... .. . ... : ... .. . ... : ... .. . ... : C-4 14 . S09 ...
ROW 1F : === .. . G02 : ... .. . ... : ... .. . S09 : ... .. . ... : ... .. . ... : ... .. . ... : D#4 14 . ... ...
ROW 20 : G-3 0D . ... : ... .. . ... : C-2 12 . ... : 8-# 02 . ... : ... .. . ... : F-2 00 . S03 : ... .. . 464 ...
ROW 21 : ... .. . ... : ... .. . ... : ... .. . ... : ... .. . ... : ... .. . ... : ... .. . ... : ... .. . ... ...
ROW 22 : ... .. . ... : ... .. . ... : ... .. . ... : ... .. . ... : ... .. . ... : ... .. . ... : ... .. . ... ...
ROW 23 : ... .. . ... : ... .. . ... : ... .. . ... : ... .. . ... : ... .. . ... : ... .. . ... : ... .. . S09 ...
ROW 24 : ... .. . ... : ... .. . ... : --- .. . ... : 8-# 03 . ... : ... .. . ... : G-2 01 . ... : F-4 14 . S09 400
ROW 25 : ... .. . ... : ... .. . ... : ... .. . ... : ... .. . ... : ... .. . ... : ... .. . ... : ... .. . ... ...
ROW 26 : ... .. . ... : ... .. . ... : C-2 12 . ... : ... .. . ... : ... .. . ... : ... .. . ... : A#3 14 . S09 ...
ROW 27 : === .. . G02 : ... .. . ... : ... .. . S09 : ... .. . ... : ... .. . ... : ... .. . ... : C-4 14 . ... ...
ROW 28 : G-3 0D . ... : ... .. . ... : C-2 12 . ... : 8-# 02 . ... : ... .. . ... : F-2 00 . S03 : ... .. . 464 ...
ROW 29 : ... .. . ... : ... .. . ... : ... .. . ... : ... .. . ... : ... .. . ... : ... .. . ... : ... .. . ... ...
ROW 2A : ... .. . ... : ... .. . ... : ... .. . ... : ... .. . ... : ... .. . ... : ... .. . ... : ... .. . ... ...
ROW 2B : ... .. . ... : ... .. . ... : ... .. . ... : ... .. . ... : ... .. . ... : ... .. . ... : ... .. . S09 ...
ROW 2C : ... .. . ... : ... .. . ... : --- .. . ... : 8-# 03 . ... : ... .. . ... : G-2 01 . ... : D#3 14 . ... ...
ROW 2D : ... .. . ... : ... .. . ... : ... .. . ... : ... .. . ... : ... .. . ... : ... .. . ... : ... .. . S09 464
ROW 2E : ... .. . ... : ... .. . ... : A#1 12 . ... : ... .. . ... : ... .. . ... : ... .. . ... : F-3 14 . ... 400
ROW 2F : === .. . G02 : ... .. . ... : ... .. . ... : ... .. . ... : ... .. . ... : ... .. . ... : ... .. . S09 464
ROW 30 : F-3 0D . ... : ... .. . ... : ... .. . ... : 8-# 02 . ... : ... .. . ... : F-2 00 . S03 : G-3 14 . ... 400
ROW 31 : ... .. . ... : ... .. . ... : ... .. . S09 : ... .. . ... : ... .. . ... : ... .. . ... : ... .. . S09 464
ROW 32 : ... .. . ... : ... .. . ... : A#2 12 . ... : ... .. . ... : ... .. . ... : ... .. . ... : G-3 14 . S09 400
ROW 33 : ... .. . ... : ... .. . ... : ... .. . ... : ... .. . ... : ... .. . ... : ... .. . ... : ... .. . ... ...
ROW 34 : ... .. . ... : ... .. . ... : --- .. . ... : 8-# 03 . ... : ... .. . ... : G-2 01 . ... : F-3 14 . ... 400
ROW 35 : ... .. . ... : ... .. . ... : ... .. . ... : ... .. . ... : ... .. . ... : ... .. . ... : ... .. . S09 464
ROW 36 : ... .. . ... : ... .. . ... : A#1 12 . ... : ... .. . ... : ... .. . ... : ... .. . ... : G-3 14 . S09 400
ROW 37 : === .. . G02 : ... .. . ... : ... .. . S09 : ... .. . ... : ... .. . ... : ... .. . ... : A#3 14 . ... ...
ROW 38 : F-3 0D . ... : ... .. . ... : A#1 12 . ... : 8-# 02 . ... : ... .. . ... : F-2 00 . S03 : ... .. . ... 464
ROW 39 : ... .. . ... : ... .. . ... : ... .. . ... : ... .. . ... : ... .. . ... : ... .. . ... : ... .. . S09 ...
ROW 3A : ... .. . ... : ... .. . ... : ... .. . ... : ... .. . ... : ... .. . ... : ... .. . ... : F-3 14 . ... 400
ROW 3B : ... .. . ... : ... .. . ... : ... .. . ... : ... .. . ... : ... .. . ... : ... .. . ... : ... .. . S09 464
ROW 3C : ... .. . ... : ... .. . ... : --- .. . ... : 8-# 03 . ... : ... .. . ... : G-2 01 . ... : G-3 14 . ... 400
ROW 3D : ... .. . ... : ... .. . ... : ... .. . ... : ... .. . ... : ... .. . ... : ... .. . ... : ... .. . S09 464
ROW 3E : ... .. . ... : ... .. . ... : A#1 12 . ... : ... .. . ... : ... .. . ... : ... .. . ... : A#3 14 . ... 400
ROW 3F : === .. . G02 : ... .. . ... : ... .. . S09 : ... .. . ... : ... .. . ... : ... .. . ... : ... .. . S09 464

PATTERN 05
ROW 00 : A-2 13 4 ... : C-1 11 . ... : C#2 12 . ... : 7-# 16 . ... : ... .. . ... : A-3 00 . ... : C-4 14 . ... ...
ROW 01 : ... .. . ... : ... .. . ... : ... .. . ... : ... .. . ... : ... .. . ... : ... .. . ... : ... .. . ... 464
ROW 02 : ... .. . ... : ... .. . ... : ... .. . ... : ... .. . ... : ... .. . ... : ... .. . ... : ... .. . ... ...
ROW 03 : ... .. . ... : ... .. . ... : ... .. . ... : ... .. . ... : ... .. . ... : ... .. . ... : ... .. . ... ...
ROW 04 : E-3 0A F ... : --- .. . ... : --- .. . ... : 8-# 03 . ... : ... .. . ... : G-2 01 . ... : ... .. . ... ...
ROW 05 : ... .. . ... : ... .. . ... : ... .. . ... : ... .. . ... : ... .. . ... : ... .. . ... : ... .. . ... ...
ROW 06 : ... .. . ... : C-1 11 . ... : C#2 12 . ... : ... .. . ... : ... .. . ... : ... .. . ... : ... .. . ... ...
ROW 07 : ... .. . ... : ... .. . S09 : ... .. . S09 : ... .. . ... : ... .. . ... : ... .. . ... : ... .. . ... ...
ROW 08 : ... .. . ... : C-1 11 . ... : C#2 12 . ... : ... .. . ... : ... .. . ... : ... .. . ... : ... .. . ... ...
ROW 09 : ... .. . ... : ... .. . ... : ... .. . ... : ... .. . ... : ... .. . ... : ... .. . ... : ... .. . ... ...
ROW 0A : ... .. . ... : ... .. . ... : ... .. . ... : ... .. . ... : ... .. . ... : ... .. . ... : ... .. . ... ...
ROW 0B : === .. . G02 : ... .. . ... : ... .. . ... : ... .. . ... : ... .. . ... : ... .. . ... : ... .. . S09 ...
ROW 0C : E-3 0A . ... : --- .. . ... : --- .. . ... : 8-# 03 . ... : ... .. . ... : G-2 01 . ... : C-4 14 . ... 400
ROW 0D : === .. . G02 : ... .. . ... : ... .. . ... : ... .. . ... : ... .. . ... : ... .. . ... : ... .. . S09 464
ROW 0E : F-3 0D . ... : A#0 11 . ... : B-1 12 . ... : 8-# 02 . ... : ... .. . ... : F-2 00 . S03 : A#3 14 . ... 400
ROW 0F : ... .. . ... : ... .. . ... : ... .. . ... : ... .. . ... : ... .. . ... : ... .. . ... : ... .. . ... 464
ROW 10 : ... .. . ... : ... .. . ... : ... .. . ... : ... .. . ... : ... .. . ... : ... .. . ... : === .. . ... ...
ROW 11 : ... .. . ... : ... .. . S09 : ... .. . S09 : ... .. . ... : ... .. . ... : ... .. . ... : ... .. . ... ...
ROW 12 : ... .. . ... : A#1 11 . ... : B-2 12 . ... : ... .. . ... : ... .. . ... : ... .. . ... : G-3 14 . ... 400
ROW 13 : ... .. . ... : ... .. . ... : ... .. . ... : ... .. . ... : ... .. . ... : ... .. . ... : ... .. . S09 464
ROW 14 : ... .. . ... : --- .. . ... : --- .. . ... : 8-# 03 . ... : ... .. . ... : G-2 01 . ... : A#3 14 . ... 400
ROW 15 : ... .. . ... : ... .. . ... : ... .. . ... : ... .. . ... : ... .. . ... : ... .. . ... : ... .. . S09 464
ROW 16 : ... .. . ... : A#0 11 . ... : B-1 12 . ... : ... .. . ... : ... .. . ... : ... .. . ... : C-4 14 . S09 400
ROW 17 : === .. . G02 : ... .. . S09 : ... .. . S09 : ... .. . ... : ... .. . ... : ... .. . ... : ... .. . ... ...
ROW 18 : F-3 0D . ... : A#0 11 . ... : B-1 12 . ... : 8-# 02 . ... : ... .. . ... : F-2 00 . S03 : D#4 14 . ... 400
ROW 19 : ... .. . ... : ... .. . ... : ... .. . ... : ... .. . ... : ... .. . ... : ... .. . ... : ... .. . S09 464
ROW 1A : ... .. . ... : ... .. . ... : ... .. . ... : ... .. . ... : ... .. . ... : ... .. . ... : C-4 14 . S09 400
ROW 1B : ... .. . ... : ... .. . ... : ... .. . ... : ... .. . ... : ... .. . ... : ... .. . ... : A#3 14 . ... ...
ROW 1C : ... .. . ... : --- .. . ... : --- .. . ... : 8-# 03 . ... : ... .. . ... : G-2 01 . ... : ... .. . S09 464
ROW 1D : ... .. . ... : ... .. . ... : ... .. . ... : ... .. . ... : ... .. . ... : ... .. . ... : C-4 14 . S09 400
ROW 1E : ... .. . ... : A#0 11 . ... : B-1 12 . ... : ... .. . ... : ... .. . ... : ... .. . ... : F-4 14 . ... ...
ROW 1F : === .. . G02 : ... .. . S09 : ... .. . S09 : ... .. . ... : ... .. . ... : ... .. . ... : ... .. . S09 464
ROW 20 : G-3 0D . ... : C-1 11 . ... : C#2 12 . ... : 8-# 02 . ... : ... .. . ... : F-2 00 . S03 : G-3 15 . ... 400
ROW 21 : ... .. . ... : ... .. . ... : ... .. . ... : ... .. . ... : ... .. . ... : ... .. . ... : ... .. . ... ...
ROW 22 : ... .. . ... : ... .. . ... : ... .. . ... : ... .. . ... : ... .. . ... : ... .. . ... : ... .. . ... ...
ROW 23 : ... .. . ... : ... .. . ... : ... .. . ... : ... .. . ... : ... .. . ... : ... .. . ... : ... .. . ... ...
ROW 24 : ... .. . ... : --- .. . ... : --- .. . ... : 8-# 03 . ... : ... .. . ... : G-2 01 . ... : ... .. . ... ...
ROW 25 : ... .. . ... : ... .. . ... : ... .. . ... : ... .. . ... : ... .. . ... : ... .. . ... : ... .. . ... ...
ROW 26 : ... .. . ... : C-1 11 . ... : C#2 12 . ... : ... .. . ... : ... .. . ... : ... .. . ... : ... .. . ... ...
ROW 27 : === .. . G02 : ... .. . S09 : ... .. . S09 : ... .. . ... : ... .. . ... : ... .. . ... : ... .. . ... ...
ROW 28 : G-3 0D . ... : C-1 11 . ... : C#2 12 . ... : 8-# 02 . ... : ... .. . ... : F-2 00 . S03 : ... .. . ... ...
ROW 29 : ... .. . ... : ... .. . ... : ... .. . ... : ... .. . ... : ... .. . ... : ... .. . ... : ... .. . ... ...
ROW 2A : ... .. . ... : ... .. . ... : ... .. . ... : ... .. . ... : ... .. . ... : ... .. . ... : ... .. . ... ...
ROW 2B : ... .. . ... : ... .. . ... : ... .. . ... : ... .. . ... : ... .. . ... : ... .. . ... : === .. . G02 ...
ROW 2C : ... .. . ... : --- .. . ... : --- .. . ... : 8-# 03 . ... : ... .. . ... : G-2 01 . ... : G-3 15 . ... ...
ROW 2D : ... .. . ... : ... .. . ... : ... .. . ... : ... .. . ... : ... .. . ... : ... .. . ... : === .. . G02 ...
ROW 2E : ... .. . ... : A#0 11 . ... : B-1 12 . ... : ... .. . ... : ... .. . ... : ... .. . ... : F-3 15 . ... ...
ROW 2F : === .. . G02 : ... .. . ... : ... .. . ... : ... .. . ... : ... .. . ... : ... .. . ... : ... .. . ... ...
ROW 30 : F-3 0D . ... : ... .. . ... : ... .. . ... : 8-# 02 . ... : ... .. . ... : F-2 00 . S03 : === .. . ... ...
ROW 31 : ... .. . ... : ... .. . S09 : ... .. . S09 : ... .. . ... : ... .. . ... : ... .. . ... : ... .. . ... ...
ROW 32 : ... .. . ... : A#1 11 . ... : B-2 12 . ... : ... .. . ... : ... .. . ... : ... .. . ... : F-4 14 . ... ...
ROW 33 : ... .. . ... : ... .. . ... : ... .. . ... : ... .. . ... : ... .. . ... : ... .. . ... : === .. . 464 ...
ROW 34 : ... .. . ... : --- .. . ... : --- .. . ... : 8-# 03 . ... : ... .. . ... : G-2 01 . ... : ... .. . ... ...
ROW 35 : ... .. . ... : ... .. . ... : ... .. . ... : ... .. . ... : ... .. . ... : ... .. . ... : ... .. . ... ...
ROW 36 : ... .. . ... : A#0 11 . ... : B-1 12 . ... : ... .. . ... : ... .. . ... : ... .. . ... : G-4 14 . 400 ...
ROW 37 : === .. . G02 : ... .. . S09 : ... .. . S09 : ... .. . ... : ... .. . ... : ... .. . ... : ... .. . 464 ...
ROW 38 : F-3 0D . ... : A#0 11 . ... : B-1 12 . ... : 8-# 02 . ... : ... .. . ... : F-2 00 . S03 : ... .. . ... ...
ROW 39 : ... .. . ... : ... .. . ... : ... .. . ... : ... .. . ... : ... .. . ... : ... .. . ... : ... .. . S09 ...
ROW 3A : ... .. . ... : ... .. . ... : ... .. . ... : ... .. . ... : ... .. . ... : ... .. . ... : E-4 14 . 400 ...
ROW 3B : ... .. . ... : ... .. . ... : ... .. . ... : ... .. . ... : ... .. . ... : ... .. . ... : ... .. . S09 464
ROW 3C : ... .. . ... : --- .. . ... : --- .. . ... : 8-# 03 . ... : ... .. . ... : G-2 01 . ... : D-4 14 . ... 400
ROW 3D : ... .. . ... : ... .. . ... : ... .. . ... : ... .. . ... : ... .. . ... : ... .. . ... : ... .. . S09 464
ROW 3E : ... .. . ... : A#0 11 . ... : B-1 12 . ... : ... .. . ... : ... .. . ... : ... .. . ... : C-4 14 . ... 400
ROW 3F : === .. . G02 : ... .. . S09 : ... .. . S09 : ... .. . ... : ... .. . ... : ... .. . ... : ... .. . S09 464

PATTERN 06
ROW 00 : G#3 0D . ... : ... .. . ... : C#1 12 . ... : 8-# 02 . ... : ... .. . ... : C-3 00 . S08 : B-2 13 6 ... 400
ROW 01 : ... .. . ... : ... .. . ... : ... .. . ... : ... .. . ... : ... .. . ... : ... .. . ... : ... .. . ... ...
ROW 02 : ... .. . ... : ... .. . ... : ... .. . ... : 9-# 07 . ... : ... .. . ... : ... .. . ... : ... .. . ... ...
ROW 03 : ... .. . ... : ... .. . S09 : ... .. . S09 : ... .. . ... : ... .. . ... : ... .. . ... : ... .. . ... ...
ROW 04 : ... .. . ... : C-1 11 . ... : C#2 12 . ... : 8-# 03 . ... : ... .. . ... : G-2 01 . ... : E-3 17 F ... ...
ROW 05 : ... .. . ... : ... .. . ... : ... .. . ... : ... .. . ... : ... .. . ... : ... .. . ... : ... .. . ... ...
ROW 06 : ... .. . ... : ... .. . ... : ... .. . ... : 9-# 07 . ... : ... .. . ... : C-3 00 . S08 : ... .. . ... ...
ROW 07 : === .. . G02 : ... .. . ... : ... .. . ... : ... .. . ... : ... .. . ... : ... .. . ... : ... .. . ... ...
ROW 08 : G#3 0D . ... : ... .. . ... : ... .. . ... : ... .. . ... : ... .. . ... : ... .. . ... : ... .. . ... ...
ROW 09 : ... .. . ... : ... .. . ... : ... .. . ... : ... .. . ... : ... .. . ... : ... .. . ... : ... .. . ... ...
ROW 0A : ... .. . ... : ... .. . ... : ... .. . ... : ... .. . ... : ... .. . ... : ... .. . ... : ... .. . ... ...
ROW 0B : ... .. . ... : ... .. . ... : ... .. . ... : ... .. . ... : ... .. . ... : ... .. . ... : === .. . ... ...
ROW 0C : ... .. . ... : --- .. . ... : --- .. . ... : ... .. . ... : ... .. . ... : ... .. . ... : E-3 17 . ... ...
ROW 0D : ... .. . ... : ... .. . ... : ... .. . ... : ... .. . ... : ... .. . ... : ... .. . ... : === .. . ... ...
ROW 0E : ... .. . ... : A#0 11 . ... : B-1 12 . ... : ... .. . ... : ... .. . ... : ... .. . ... : D-3 17 . ... ...
ROW 0F : === .. . G02 : ... .. . ... : ... .. . ... : ... .. . ... : ... .. . ... : ... .. . ... : ... .. . ... ...
ROW 10 : F#3 0D . ... : ... .. . ... : ... .. . ... : 8-# 02 . ... : ... .. . ... : C-3 00 . S08 : === .. . ... ...
ROW 11 : ... .. . ... : ... .. . S09 : ... .. . S09 : ... .. . ... : ... .. . ... : ... .. . ... : ... .. . ... ...
ROW 12 : ... .. . ... : A#1 11 . ... : B-2 12 . ... : 9-# 07 . ... : ... .. . ... : ... .. . ... : G-3 14 . ... ...
ROW 13 : ... .. . ... : ... .. . ... : ... .. . ... : ... .. . ... : ... .. . ... : ... .. . ... : ... .. . S09 464
ROW 14 : ... .. . ... : --- .. . ... : --- .. . ... : 8-# 03 . ... : ... .. . ... : G-2 01 . ... : F-3 14 . ... 400
ROW 15 : ... .. . ... : ... .. . ... : ... .. . ... : ... .. . ... : ... .. . ... : ... .. . ... : ... .. . S09 464
ROW 16 : ... .. . ... : A#0 11 . ... : B-1 12 . ... : 9-# 07 . ... : ... .. . ... : C-3 00 . S08 : G-3 14 . ... 400
ROW 17 : === .. . G02 : ... .. . S09 : ... .. . S09 : ... .. . ... : ... .. . ... : ... .. . ... : ... .. . S09 464
ROW 18 : F#3 0D . ... : A#0 11 . ... : B-1 12 . ... : 8-# 03 . ... : ... .. . ... : G-2 19 . ... : A#3 14 . ... 400
ROW 19 : ... .. . ... : ... .. . ... : ... .. . ... : ... .. . ... : ... .. . ... : ... .. . ... : ... .. . S09 464
ROW 1A : ... .. . ... : ... .. . ... : ... .. . ... : 8-# 03 . ... : ... .. . ... : G-2 19 . ... : C-4 14 . ... 400
ROW 1B : ... .. . ... : ... .. . ... : ... .. . ... : ... .. . ... : ... .. . ... : ... .. . ... : ... .. . S09 464
ROW 1C : ... .. . ... : --- .. . ... : --- .. . ... : 8-# 03 . ... : ... .. . ... : G-2 19 . ... : F-4 14 . ... 400
ROW 1D : ... .. . ... : ... .. . ... : ... .. . ... : ... .. . ... : ... .. . ... : ... .. . ... : ... .. . S09 464
ROW 1E : ... .. . ... : A#0 11 . ... : B-1 12 . ... : 8-# 03 . ... : ... .. . ... : G-2 19 . ... : D-4 14 . ... 400
ROW 1F : === .. . G02 : ... .. . S09 : ... .. . S09 : ... .. . ... : ... .. . ... : ... .. . ... : ... .. . S09 464
ROW 20 : G#3 0D . ... : C-1 11 . ... : C#2 12 . ... : ... .. . ... : ... .. . ... : ... .. . ... : G-3 15 . ... 400
ROW 21 : ... .. . ... : ... .. . ... : ... .. . ... : ... .. . ... : ... .. . ... : ... .. . ... : ... .. . ... ...
ROW 22 : ... .. . ... : ... .. . ... : ... .. . ... : ... .. . ... : ... .. . ... : ... .. . ... : ... .. . ... ...
ROW 23 : ... .. . ... : ... .. . ... : ... .. . ... : ... .. . ... : ... .. . ... : ... .. . ... : ... .. . ... ...
ROW 24 : ... .. . ... : --- .. . ... : --- .. . ... : ... .. . ... : ... .. . ... : ... .. . ... : ... .. . ... ...
ROW 25 : ... .. . ... : ... .. . ... : ... .. . ... : ... .. . ... : ... .. . ... : ... .. . ... : ... .. . ... ...
ROW 26 : ... .. . ... : C-1 11 . ... : C#2 12 . ... : ... .. . ... : ... .. . ... : ... .. . ... : ... .. . ... ...
ROW 27 : === .. . G02 : ... .. . S09 : ... .. . S09 : ... .. . ... : ... .. . ... : ... .. . ... : ... .. . ... ...
ROW 28 : G#3 0D . ... : C-1 11 . ... : C#2 12 . ... : ... .. . ... : ... .. . ... : ... .. . ... : ... .. . ... ...
ROW 29 : ... .. . ... : ... .. . ... : ... .. . ... : ... .. . ... : ... .. . ... : ... .. . ... : ... .. . ... ...
ROW 2A : ... .. . ... : ... .. . ... : ... .. . ... : ... .. . ... : ... .. . ... : ... .. . ... : ... .. . ... ...
ROW 2B : ... .. . ... : ... .. . ... : ... .. . ... : ... .. . ... : ... .. . ... : ... .. . ... : === .. . G02 ...
ROW 2C : ... .. . ... : --- .. . ... : --- .. . ... : ... .. . ... : ... .. . ... : ... .. . ... : G-3 15 . ... ...
ROW 2D : ... .. . ... : ... .. . ... : ... .. . ... : ... .. . ... : ... .. . ... : ... .. . ... : === .. . G02 ...
ROW 2E : ... .. . ... : A#0 11 . ... : B-1 12 . ... : ... .. . ... : ... .. . ... : ... .. . ... : F-3 15 . ... ...
ROW 2F : === .. . G02 : ... .. . ... : ... .. . ... : ... .. . ... : ... .. . ... : ... .. . ... : ... .. . ... ...
ROW 30 : F#3 0D . ... : ... .. . ... : ... .. . ... : ... .. . ... : ... .. . ... : ... .. . ... : === .. . ... ...
ROW 31 : ... .. . ... : ... .. . S09 : ... .. . S09 : ... .. . ... : ... .. . ... : ... .. . ... : ... .. . ... ...
ROW 32 : ... .. . ... : A#1 11 . ... : B-2 12 . ... : ... .. . ... : ... .. . ... : ... .. . ... : A#3 14 . S09 ...
ROW 33 : ... .. . ... : ... .. . ... : ... .. . ... : ... .. . ... : ... .. . ... : ... .. . ... : ... .. . ... ...
ROW 34 : ... .. . ... : --- .. . ... : --- .. . ... : ... .. . ... : ... .. . ... : ... .. . ... : A#3 14 . ... ...
ROW 35 : ... .. . ... : ... .. . ... : ... .. . ... : ... .. . ... : ... .. . ... : ... .. . ... : ... .. . S09 ...
ROW 36 : ... .. . ... : A#0 11 . ... : B-1 12 . ... : ... .. . ... : ... .. . ... : ... .. . ... : G-3 14 . S09 ...
ROW 37 : === .. . G02 : ... .. . S09 : ... .. . S09 : ... .. . ... : ... .. . ... : ... .. . ... : ... .. . ... ...
ROW 38 : F#3 0D . ... : A#0 11 . ... : B-1 12 . ... : ... .. . ... : ... .. . ... : ... .. . ... : A#3 14 . ... ...
ROW 39 : ... .. . ... : ... .. . ... : ... .. . ... : ... .. . ... : ... .. . ... : ... .. . ... : ... .. . S09 ...
ROW 3A : ... .. . ... : ... .. . ... : ... .. . ... : ... .. . ... : ... .. . ... : ... .. . ... : G-3 14 . S09 ...
ROW 3B : ... .. . ... : ... .. . ... : ... .. . ... : ... .. . ... : ... .. . ... : ... .. . ... : F-3 14 . ... ...
ROW 3C : ... .. . ... : --- .. . ... : --- .. . ... : ... .. . ... : ... .. . ... : ... .. . ... : ... .. . S09 ...
ROW 3D : ... .. . ... : ... .. . ... : ... .. . ... : ... .. . ... : ... .. . ... : ... .. . ... : D#3 14 . S09 ...
ROW 3E : ... .. . ... : A#0 11 . ... : B-1 12 . ... : ... .. . ... : ... .. . ... : ... .. . ... : C-3 14 . ... ...
ROW 3F : === .. . G02 : ... .. . S09 : ... .. . S09 : ... .. . ... : ... .. . ... : ... .. . ... : ... .. . S09 ...

PATTERN 07
ROW 00 : A-2 13 4 ... : C#1 11 . ... : G#1 12 . ... : 8-# 02 F ... : ... .. . ... : C-3 00 F S08 : C#4 14 . ... ...
ROW 01 : ... .. . ... : ... .. . ... : ... .. . S09 : ... .. . ... : ... .. . ... : ... .. . ... : ... .. . ... 464
ROW 02 : ... .. . ... : ... .. . ... : G#2 12 . ... : ... .. . ... : ... .. . ... : ... .. . ... : ... .. . ... ...
ROW 03 : ... .. . ... : ... .. . ... : ... .. . S09 : 8-# 02 . ... : ... .. . ... : C-3 00 . S08 : ... .. . ... ...
ROW 04 : F-3 0A F ... : --- .. . ... : A-1 12 . ... : 8-# 03 . ... : ... .. . ... : G-2 01 . ... : ... .. . ... ...
ROW 05 : ... .. . ... : ... .. . ... : ... .. . S09 : ... .. . ... : ... .. . ... : ... .. . ... : ... .. . ... ...
ROW 06 : ... .. . ... : C#1 11 . ... : A#1 12 . ... : 8-# 02 . ... : ... .. . ... : C-3 00 . S08 : ... .. . ... ...
ROW 07 : ... .. . ... : ... .. . S09 : ... .. . S09 : ... .. . ... : ... .. . ... : ... .. . ... : ... .. . ... ...
ROW 08 : ... .. . ... : C#1 11 . ... : ... .. . ... : ... .. E ... : ... .. . ... : A-3 04 E ... : ... .. . ... ...
ROW 09 : ... .. . ... : ... .. . ... : ... .. . ... : ... .. . ... : ... .. . ... : ... .. . ... : ... .. . ... ...
ROW 0A : ... .. . ... : ... .. . ... : ... .. . ... : ... .. . ... : ... .. . ... : A-3 04 . ... : ... .. . ... ...
ROW 0B : === .. . G02 : ... .. . ... : ... .. . ... : ... .. . ... : ... .. . ... : ... .. . ... : ... .. . S09 ...
ROW 0C : F-3 0A . ... : --- .. . ... : ... .. . ... : 8-# 03 . ... : ... .. . ... : G-2 01 . ... : C#4 14 . ... 400
ROW 0D : === .. . G02 : ... .. . ... : ... .. . ... : ... .. . ... : ... .. . ... : ... .. . ... : ... .. . S09 464
ROW 0E : F#3 0D . ... : B-0 11 . ... : ... .. . ... : ... .. . ... : ... .. . ... : ... .. . ... : B-3 14 . ... 400
ROW 0F : ... .. . ... : ... .. . ... : ... .. . ... : ... .. . ... : ... .. . ... : ... .. . ... : ... .. . ... 464
ROW 10 : ... .. . ... : ... .. . ... : B-1 12 . ... : 8-# 02 D ... : ... .. . ... : C-3 00 D S08 : === .. . ... ...
ROW 11 : ... .. . ... : ... .. . S09 : ... .. . S09 : ... .. . ... : ... .. . ... : ... .. . ... : ... .. . ... ...
ROW 12 : ... .. . ... : B-1 11 . ... : B-2 12 . ... : ... .. . ... : ... .. . ... : ... .. . ... : G#3 14 . ... 400
ROW 13 : ... .. . ... : ... .. . ... : ... .. . S09 : 8-# 02 . ... : ... .. . ... : C-3 00 . S08 : ... .. . S09 464
ROW 14 : ... .. . ... : --- .. . ... : C-2 12 . ... : 8-# 03 . ... : ... .. . ... : G-2 01 . ... : B-3 14 . ... 400
ROW 15 : ... .. . ... : ... .. . ... : ... .. . S09 : ... .. . ... : ... .. . ... : ... .. . ... : ... .. . S09 464
ROW 16 : ... .. . ... : B-0 11 . ... : C#2 12 . ... : 8-# 02 . ... : ... .. . ... : C-3 00 . S08 : C#4 14 . S09 400
ROW 17 : === .. . G02 : ... .. . S09 : ... .. . S09 : ... .. . ... : ... .. . ... : ... .. . ... : ... .. . ... ...
ROW 18 : F#3 0D . ... : B-0 11 . ... : ... .. . ... : ... .. C ... : ... .. . ... : A-3 04 C ... : E-4 14 . ... 400
ROW 19 : ... .. . ... : ... .. . ... : ... .. . ... : ... .. . ... : ... .. . ... : ... .. . ... : ... .. . S09 464
ROW 1A : ... .. . ... : ... .. . ... : ... .. . ... : ... .. . ... : ... .. . ... : A-3 04 . ... : C#4 14 . S09 400
ROW 1B : ... .. . ... : ... .. . ... : ... .. . ... : ... .. . ... : ... .. . ... : ... .. . ... : B-3 14 . ... ...
ROW 1C : ... .. . ... : --- .. . ... : ... .. . ... : 8-# 03 . ... : ... .. . ... : G-2 01 . ... : ... .. . S09 464
ROW 1D : ... .. . ... : ... .. . ... : ... .. . ... : ... .. . ... : ... .. . ... : ... .. . ... : C#4 14 . S09 400
ROW 1E : ... .. . ... : B-0 11 . ... : ... .. . ... : ... .. . ... : ... .. . ... : ... .. . ... : F#4 14 . ... ...
ROW 1F : === .. . G02 : ... .. . S09 : ... .. . ... : ... .. . ... : ... .. . ... : ... .. . ... : ... .. . S09 464
ROW 20 : G#3 0D . ... : C#1 11 . ... : ... .. . ... : 8-# 02 B ... : ... .. . ... : C-3 00 B S08 : G#3 15 . ... 400
ROW 21 : ... .. . ... : ... .. . ... : ... .. . ... : ... .. . ... : ... .. . ... : ... .. . ... : ... .. . ... ...
ROW 22 : ... .. . ... : ... .. . ... : ... .. . ... : ... .. . ... : ... .. . ... : ... .. . ... : ... .. . ... ...
ROW 23 : ... .. . ... : ... .. . ... : ... .. . ... : 8-# 02 . ... : ... .. . ... : C-3 00 . S08 : ... .. . ... ...
ROW 24 : ... .. . ... : --- .. . ... : ... .. . ... : 8-# 03 . ... : ... .. . ... : G-2 01 . ... : ... .. . ... ...
ROW 25 : ... .. . ... : ... .. . ... : ... .. . ... : ... .. . ... : ... .. . ... : ... .. . ... : ... .. . ... ...
ROW 26 : ... .. . ... : C#1 11 . ... : ... .. . ... : 8-# 02 . ... : ... .. . ... : C-3 00 . S08 : ... .. . ... ...
ROW 27 : === .. . G02 : ... .. . S09 : ... .. . ... : ... .. . ... : ... .. . ... : ... .. . ... : ... .. . ... ...
ROW 28 : G#3 0D . ... : C#1 11 . ... : ... .. . ... : ... .. A ... : ... .. . ... : A-3 04 A ... : ... .. . ... ...
ROW 29 : ... .. . ... : ... .. . ... : ... .. . ... : ... .. . ... : ... .. . ... : ... .. . ... : ... .. . ... ...
ROW 2A : ... .. . ... : ... .. . ... : ... .. . ... : ... .. . ... : ... .. . ... : A-3 04 . ... : ... .. . ... ...
ROW 2B : ... .. . ... : ... .. . ... : ... .. . ... : ... .. . ... : ... .. . ... : ... .. . ... : === .. . G02 ...
ROW 2C : ... .. . ... : --- .. . ... : ... .. . ... : 8-# 03 . ... : ... .. . ... : G-2 01 . ... : G#3 15 . ... ...
ROW 2D : ... .. . ... : ... .. . ... : ... .. . ... : ... .. . ... : ... .. . ... : ... .. . ... : === .. . G02 ...
ROW 2E : ... .. . ... : B-0 11 . ... : ... .. . ... : ... .. . ... : ... .. . ... : ... .. . ... : F#3 15 . ... ...
ROW 2F : === .. . G02 : ... .. . ... : ... .. . ... : ... .. . ... : ... .. . ... : ... .. . ... : ... .. . ... ...
ROW 30 : F#3 0D . ... : ... .. . ... : ... .. . ... : 8-# 02 9 ... : ... .. . ... : C-3 00 9 S08 : === .. . ... ...
ROW 31 : ... .. . ... : ... .. . S09 : ... .. . ... : ... .. . ... : ... .. . ... : ... .. . ... : ... .. . ... ...
ROW 32 : ... .. . ... : B-1 11 . ... : ... .. . ... : ... .. . ... : ... .. . ... : ... .. . ... : F#4 14 . ... ...
ROW 33 : ... .. . ... : ... .. . ... : ... .. . ... : 8-# 02 . ... : ... .. . ... : C-3 00 . S08 : === .. . 464 ...
ROW 34 : ... .. . ... : --- .. . ... : ... .. . ... : 8-# 03 . ... : ... .. . ... : G-2 01 . ... : ... .. . ... ...
ROW 35 : ... .. . ... : ... .. . ... : ... .. . ... : ... .. . ... : ... .. . ... : ... .. . ... : ... .. . ... ...
ROW 36 : ... .. . ... : B-0 11 . ... : ... .. . ... : 8-# 02 . ... : ... .. . ... : C-3 00 . S08 : G#4 14 . 400 ...
ROW 37 : === .. . G02 : ... .. . S09 : ... .. . ... : ... .. . ... : ... .. . ... : ... .. . ... : ... .. . 464 ...
ROW 38 : F#3 0D . ... : B-0 11 . ... : ... .. . ... : ... .. 8 ... : ... .. . ... : A-3 04 8 ... : ... .. . ... ...
ROW 39 : ... .. . ... : ... .. . ... : ... .. . ... : ... .. . ... : ... .. . ... : ... .. . ... : ... .. . S09 ...
ROW 3A : ... .. . ... : ... .. . ... : ... .. . ... : ... .. . ... : ... .. . ... : A-3 04 . ... : F-4 14 . 400 ...
ROW 3B : ... .. . ... : ... .. . ... : ... .. . ... : ... .. . ... : ... .. . ... : ... .. . ... : ... .. . S09 464
ROW 3C : ... .. . ... : --- .. . ... : ... .. . ... : 8-# 03 . ... : ... .. . ... : G-2 01 . ... : D#4 14 . ... 400
ROW 3D : ... .. . ... : ... .. . ... : ... .. . ... : ... .. . ... : ... .. . ... : ... .. . ... : ... .. . S09 464
ROW 3E : ... .. . ... : B-0 11 . ... : ... .. . ... : ... .. . ... : ... .. . ... : ... .. . ... : C#4 14 . ... 400
ROW 3F : === .. . G02 : ... .. . S09 : ... .. . ... : ... .. . ... : ... .. . ... : ... .. . ... : ... .. . S09 464

PATTERN 08
ROW 00 : G#0 12 . ... : ... .. . ... : A-1 12 . ... : 8-# 02 7 ... : ... .. . ... : C-3 00 7 S08 : B-2 13 6 ... 400
ROW 01 : ... .. . S09 : ... .. . ... : ... .. . ... : ... .. . ... : ... .. . ... : ... .. . ... : ... .. . ... ...
ROW 02 : G#1 12 . ... : ... .. . ... : ... .. . S09 : ... .. . ... : ... .. . ... : ... .. . ... : ... .. . ... ...
ROW 03 : ... .. . S09 : ... .. . S09 : A-1 12 . S09 : 8-# 02 . ... : ... .. . ... : C-3 00 . S08 : ... .. . ... ...
ROW 04 : A-0 12 . ... : C#1 11 . ... : A-2 12 . ... : 8-# 03 . ... : ... .. . ... : G-2 01 . ... : F-3 17 F ... ...
ROW 05 : ... .. . S09 : ... .. . ... : ... .. . S09 : ... .. . ... : ... .. . ... : ... .. . ... : ... .. . ... ...
ROW 06 : A#0 12 . ... : ... .. . ... : A-1 12 . ... : 8-# 02 . ... : ... .. . ... : C-3 00 . S08 : ... .. . ... ...
ROW 07 : ... .. . S09 : ... .. . ... : ... .. . S09 : ... .. . ... : ... .. . ... : ... .. . ... : ... .. . ... ...
ROW 08 : ... .. . ... : ... .. . ... : ... .. . ... : ... .. 6 ... : ... .. . ... : A-3 04 6 ... : ... .. . ... ...
ROW 09 : ... .. . ... : ... .. . ... : ... .. . ... : ... .. . ... : ... .. . ... : ... .. . ... : ... .. . ... ...
ROW 0A : ... .. . ... : ... .. . ... : ... .. . ... : ... .. . ... : ... .. . ... : A-3 04 . ... : ... .. . ... ...
ROW 0B : ... .. . ... : ... .. . ... : ... .. . ... : ... .. . ... : ... .. . ... : ... .. . ... : === .. . ... ...
ROW 0C : ... .. . ... : --- .. . ... : ... .. . ... : 8-# 03 . ... : ... .. . ... : G-2 01 . ... : F-3 17 . ... ...
ROW 0D : ... .. . ... : ... .. . ... : ... .. . ... : ... .. . ... : ... .. . ... : ... .. . ... : === .. . ... ...
ROW 0E : ... .. . ... : B-0 11 . ... : ... .. . ... : ... .. . ... : ... .. . ... : ... .. . ... : D#3 17 . ... ...
ROW 0F : ... .. . ... : ... .. . ... : ... .. . ... : ... .. . ... : ... .. . ... : ... .. . ... : ... .. . ... ...
ROW 10 : B-0 12 . ... : ... .. . ... : B-1 12 . ... : 8-# 02 5 ... : ... .. . ... : C-3 00 5 S08 : === .. . ... ...
ROW 11 : ... .. . S09 : ... .. . S09 : ... .. . ... : ... .. . ... : ... .. . ... : ... .. . ... : ... .. . ... ...
ROW 12 : B-1 12 . ... : B-1 11 . ... : ... .. . S09 : ... .. . ... : ... .. . ... : ... .. . ... : G#3 14 . ... ...
ROW 13 : ... .. . S09 : ... .. . ... : B-1 12 . S09 : 8-# 02 . ... : ... .. . ... : C-3 00 . S08 : ... .. . S09 464
ROW 14 : C-1 12 . ... : --- .. . ... : B-2 12 . ... : 8-# 03 . ... : ... .. . ... : G-2 01 . ... : F#3 14 . ... 400
ROW 15 : ... .. . S09 : ... .. . ... : ... .. . S09 : ... .. . ... : ... .. . ... : ... .. . ... : ... .. . S09 464
ROW 16 : C#1 12 . ... : B-0 11 . ... : B-1 12 . ... : 8-# 02 . ... : ... .. . ... : C-3 00 . S08 : G#3 14 . ... 400
ROW 17 : ... .. . S09 : ... .. . S09 : ... .. . S09 : ... .. . ... : ... .. . ... : ... .. . ... : ... .. . S09 464
ROW 18 : ... .. . ... : B-0 11 . ... : ... .. . ... : ... .. 4 ... : ... .. . ... : A-3 04 4 ... : B-3 14 . ... 400
ROW 19 : ... .. . ... : ... .. . ... : ... .. . ... : ... .. . ... : ... .. . ... : ... .. . ... : ... .. . S09 464
ROW 1A : ... .. . ... : ... .. . ... : ... .. . ... : ... .. . ... : ... .. . ... : A-3 04 . ... : C#4 14 . ... 400
ROW 1B : ... .. . ... : ... .. . ... : ... .. . ... : ... .. . ... : ... .. . ... : ... .. . ... : ... .. . S09 464
ROW 1C : ... .. . ... : --- .. . ... : G#1 12 . ... : 8-# 03 . ... : ... .. . ... : G-2 01 . ... : F#4 14 . ... 400
ROW 1D : ... .. . ... : ... .. . ... : ... .. . S09 : ... .. . ... : ... .. . ... : ... .. . ... : ... .. . S09 464
ROW 1E : ... .. . ... : B-0 11 . ... : B-1 12 . ... : ... .. . ... : ... .. . ... : ... .. . ... : D#4 14 . ... 400
ROW 1F : ... .. . ... : ... .. . S09 : ... .. . S09 : ... .. . ... : ... .. . ... : ... .. . ... : ... .. . S09 464
ROW 20 : ... .. . ... : C#1 11 . ... : C#2 12 . ... : 8-# 02 3 ... : ... .. . ... : C-3 00 3 S08 : G#3 15 . ... 400
ROW 21 : ... .. . ... : ... .. . ... : ... .. . ... : ... .. . ... : ... .. . ... : ... .. . ... : ... .. . ... ...
ROW 22 : ... .. . ... : ... .. . ... : ... .. . S09 : ... .. . ... : ... .. . ... : ... .. . ... : ... .. . ... ...
ROW 23 : ... .. . ... : ... .. . ... : C#2 12 . S09 : 8-# 02 . ... : ... .. . ... : C-3 00 . S08 : ... .. . ... ...
ROW 24 : ... .. . ... : --- .. . ... : C#3 12 . ... : 8-# 03 . ... : ... .. . ... : G-2 01 . ... : ... .. . ... ...
ROW 25 : ... .. . ... : ... .. . ... : ... .. . S09 : ... .. . ... : ... .. . ... : ... .. . ... : ... .. . ... ...
ROW 26 : ... .. . ... : C#1 11 . ... : C#2 12 . ... : 8-# 02 . ... : ... .. . ... : C-3 00 . S08 : ... .. . ... ...
ROW 27 : ... .. . ... : ... .. . S09 : ... .. . S09 : ... .. . ... : ... .. . ... : ... .. . ... : ... .. . ... ...
ROW 28 : ... .. . ... : C#1 11 . ... : ... .. . ... : ... .. 2 ... : ... .. . ... : A-3 04 2 ... : ... .. . ... ...
ROW 29 : ... .. . ... : ... .. . ... : ... .. . ... : ... .. . ... : ... .. . ... : ... .. . ... : ... .. . ... ...
ROW 2A : ... .. . ... : ... .. . ... : ... .. . ... : ... .. . ... : ... .. . ... : A-3 04 . ... : ... .. . ... ...
ROW 2B : ... .. . ... : ... .. . ... : ... .. . ... : ... .. . ... : ... .. . ... : ... .. . ... : === .. . G02 ...
ROW 2C : ... .. . ... : --- .. . ... : ... .. . ... : 8-# 03 . ... : ... .. . ... : G-2 01 . ... : G#3 15 . ... ...
ROW 2D : ... .. . ... : ... .. . ... : ... .. . ... : ... .. . ... : ... .. . ... : ... .. . ... : === .. . G02 ...
ROW 2E : ... .. . ... : B-0 11 . ... : B-1 12 . ... : ... .. . ... : ... .. . ... : ... .. . ... : F#3 15 . ... ...
ROW 2F : ... .. . ... : ... .. . ... : ... .. . S09 : ... .. . ... : ... .. . ... : ... .. . ... : ... .. . ... ...
ROW 30 : ... .. . ... : ... .. . ... : C#2 12 . ... : 8-# 02 1 ... : ... .. . ... : C-3 00 1 S08 : === .. . ... ...
ROW 31 : ... .. . ... : ... .. . S09 : ... .. . ... : ... .. . ... : ... .. . ... : ... .. . ... : ... .. . ... ...
ROW 32 : ... .. . ... : B-1 11 . ... : ... .. . S09 : ... .. . ... : ... .. . ... : ... .. . ... : B-3 14 . S09 ...
ROW 33 : ... .. . ... : ... .. . ... : C#2 12 . S09 : 8-# 02 . ... : ... .. . ... : C-3 00 . S08 : ... .. . ... ...
ROW 34 : ... .. . ... : --- .. . ... : C#3 12 . ... : 8-# 03 . ... : ... .. . ... : G-2 01 . ... : B-3 14 . ... ...
ROW 35 : ... .. . ... : ... .. . ... : ... .. . S09 : ... .. . ... : ... .. . ... : ... .. . ... : ... .. . S09 ...
ROW 36 : ... .. . ... : B-0 11 . ... : C#2 12 . ... : 8-# 02 . ... : ... .. . ... : C-3 00 . S08 : G#3 14 . S09 ...
ROW 37 : ... .. . ... : ... .. . S09 : ... .. . S09 : ... .. . ... : ... .. . ... : ... .. . ... : ... .. . ... ...
ROW 38 : ... .. . ... : B-0 11 . ... : ... .. . ... : ... .. 0 ... : ... .. . ... : ... .. 0 ... : B-3 14 . ... ...
ROW 39 : ... .. . ... : ... .. . ... : ... .. . ... : ... .. . ... : ... .. . ... : ... .. . ... : ... .. . S09 ...
ROW 3A : ... .. . ... : ... .. . ... : ... .. . ... : ... .. . ... : ... .. . ... : ... .. . ... : G#3 14 . S09 ...
ROW 3B : ... .. . ... : ... .. . ... : ... .. . ... : ... .. . ... : ... .. . ... : ... .. . ... : F#3 14 . ... ...
ROW 3C : ... .. . ... : --- .. . ... : C#2 12 . S09 : ... .. . ... : ... .. . ... : ... .. . ... : ... .. . S09 ...
ROW 3D : ... .. . ... : ... .. . ... : D#2 12 . S09 : ... .. . ... : ... .. . ... : ... .. . ... : E-3 14 . S09 ...
ROW 3E : ... .. . ... : B-0 11 . ... : B-1 12 . ... : ... .. . ... : ... .. . ... : ... .. . ... : C#3 14 . ... ...
ROW 3F : ... .. . ... : ... .. . S09 : ... .. . S09 : ... .. . ... : ... .. . ... : ... .. . ... : ... .. . S09 ...

PATTERN 09
ROW 00 : ... .. . ... : G#0 11 . ... : C#2 12 . ... : ... .. . ... : ... .. . ... : ... .. . ... : ... .. F ... ...
ROW 01 : ... .. . ... : ... .. . ... : ... .. . ... : ... .. . ... : ... .. . ... : ... .. . ... : ... .. . ... ...
ROW 02 : A-3 08 . ... : G#1 11 . ... : ... .. . S09 : ... .. . ... : ... .. . ... : ... .. . ... : ... .. . ... ...
ROW 03 : === .. . ... : ... .. . ... : C#3 12 . ... : ... .. . ... : ... .. . ... : ... .. . ... : ... .. . ... ...
ROW 04 : ... .. . ... : A-0 11 . ... : ... .. . S09 : ... .. . ... : ... .. . ... : ... .. . ... : C-4 04 . ... ...
ROW 05 : A-3 08 . ... : ... .. . ... : C#2 12 . S09 : ... .. . ... : ... .. . ... : ... .. . ... : ... .. . ... ...
ROW 06 : === 08 . ... : A#0 11 . ... : C#2 12 . ... : ... .. . ... : ... .. . ... : ... .. . ... : C-4 04 . ... ...
ROW 07 : ... .. . ... : ... .. . ... : ... .. . S09 : ... .. . ... : ... .. . ... : ... .. . ... : ... .. . ... ...
ROW 08 : A-3 08 . ... : C#4 04 . S09 : C#2 12 . ... : ... .. . ... : ... .. . ... : ... .. . ... : E-3 04 E ... ...
ROW 09 : ... .. . ... : C#4 04 . S09 : ... .. . S09 : ... .. . ... : ... .. . ... : ... .. . ... : G-3 04 . ... ...
ROW 0A : === .. . ... : A-3 04 . S09 : B-2 12 . S09 : ... .. . ... : ... .. . ... : ... .. . ... : A-3 04 . ... ...
ROW 0B : A-3 09 . ... : C#4 04 . S09 : C#3 12 . S09 : ... .. . ... : ... .. . ... : ... .. . ... : C-4 04 . ... ...
ROW 0C : ... .. . ... : C#4 04 . S09 : E-3 12 . S09 : ... .. . ... : ... .. . ... : ... .. . ... : E-3 04 . ... ...
ROW 0D : === .. . ... : A-3 04 . S09 : C#3 12 . S09 : ... .. . ... : ... .. . ... : ... .. . ... : A-3 04 . ... ...
ROW 0E : A-3 08 . ... : C#4 04 . S09 : B-2 12 . S09 : ... .. . ... : ... .. . ... : ... .. . ... : B-3 04 . ... ...
ROW 0F : === .. . ... : C#4 04 . S09 : G#2 12 . S09 : ... .. . ... : ... .. . ... : ... .. . ... : C-4 04 . ... ...
ROW 10 : ... .. . ... : B-0 11 . ... : F#2 12 . S09 : ... .. . ... : ... .. . ... : ... .. . ... : E-3 04 D ... ...
ROW 11 : ... .. . ... : ... .. . ... : E-2 12 . S09 : ... .. . ... : ... .. . ... : ... .. . ... : B-3 04 . ... ...
ROW 12 : A-3 08 . ... : B-1 11 . ... : F#2 12 . ... : ... .. . ... : ... .. . ... : ... .. . ... : ... .. . ... ...
ROW 13 : === .. . ... : ... .. . ... : ... .. . S09 : ... .. . ... : ... .. . ... : ... .. . ... : E-3 04 . ... ...
ROW 14 : ... .. . ... : C-1 11 . ... : G#2 12 . ... : ... .. . ... : ... .. . ... : ... .. . ... : A-3 04 . ... ...
ROW 15 : A-3 08 . ... : ... .. . ... : ... .. . S09 : ... .. . ... : ... .. . ... : ... .. . ... : ... .. . ... ...
ROW 16 : === 08 . ... : C#1 11 . ... : E-2 12 . S09 : ... .. . ... : ... .. . ... : ... .. . ... : C-4 04 . ... ...
ROW 17 : ... .. . ... : ... .. . ... : C#2 12 . ... : ... .. . ... : ... .. . ... : ... .. . ... : B-3 04 . ... ...
ROW 18 : A-3 08 . ... : G-2 18 . ... : ... .. . ... : ... .. . ... : ... .. . ... : ... .. . ... : A-3 04 C ... ...
ROW 19 : ... .. . ... : ... .. . ... : ... .. . ... : ... .. . ... : ... .. . ... : ... .. . ... : F-3 04 . ... ...
ROW 1A : === .. . ... : G-2 18 . ... : ... .. . ... : ... .. . ... : ... .. . ... : ... .. . ... : B-3 04 . ... ...
ROW 1B : A-3 09 . ... : ... .. . ... : ... .. . ... : ... .. . ... : ... .. . ... : ... .. . ... : D-4 04 . ... ...
ROW 1C : ... .. . ... : G-2 18 . ... : --- .. . ... : ... .. . ... : ... .. . ... : ... .. . ... : D-4 04 . ... ...
ROW 1D : === .. . ... : ... .. . ... : ... .. . ... : ... .. . ... : ... .. . ... : ... .. . ... : G-3 04 . ... ...
ROW 1E : A-3 08 . ... : G-2 18 . ... : ... .. . ... : ... .. . ... : ... .. . ... : ... .. . ... : B-3 04 . ... ...
ROW 1F : === .. . ... : ... .. . ... : ... .. . ... : ... .. . ... : ... .. . ... : ... .. . ... : C-4 04 . ... ...
ROW 20 : ... .. . ... : ... .. . ... : ... .. . ... : ... .. . ... : ... .. . ... : ... .. . ... : C-4 04 B ... ...
ROW 21 : ... .. . ... : ... .. . ... : ... .. . ... : ... .. . ... : ... .. . ... : ... .. . ... : ... .. . ... ...
ROW 22 : G#3 0A . ... : ... .. . ... : ... .. . ... : ... .. . ... : ... .. . ... : ... .. . ... : C-4 04 . ... ...
ROW 23 : === .. . ... : ... .. . ... : ... .. . ... : ... .. . ... : ... .. . ... : ... .. . ... : ... .. . ... ...
ROW 24 : ... .. . ... : ... .. . ... : ... .. . ... : ... .. . ... : ... .. . ... : ... .. . ... : E-3 04 . ... ...
ROW 25 : G#3 0A . ... : ... .. . ... : ... .. . ... : ... .. . ... : ... .. . ... : ... .. . ... : G-3 04 . ... ...
ROW 26 : === 08 . ... : ... .. . ... : ... .. . ... : ... .. . ... : ... .. . ... : ... .. . ... : A-3 04 . ... ...
ROW 27 : ... .. . ... : ... .. . ... : ... .. . ... : ... .. . ... : ... .. . ... : ... .. . ... : C-4 04 . ... ...
ROW 28 : G#3 0B . ... : ... .. . ... : ... .. . ... : ... .. . ... : ... .. . ... : ... .. . ... : E-3 04 A ... ...
ROW 29 : ... .. . ... : ... .. . ... : ... .. . ... : ... .. . ... : ... .. . ... : ... .. . ... : A-3 04 . ... ...
ROW 2A : === .. . ... : ... .. . ... : ... .. . ... : ... .. . ... : ... .. . ... : ... .. . ... : B-3 04 . ... ...
ROW 2B : G#3 0C . ... : ... .. . ... : ... .. . ... : ... .. . ... : ... .. . ... : ... .. . ... : C-4 04 . ... ...
ROW 2C : ... .. . ... : ... .. . ... : ... .. . ... : ... .. . ... : ... .. . ... : ... .. . ... : E-3 04 . ... ...
ROW 2D : === .. . ... : ... .. . ... : ... .. . ... : ... .. . ... : ... .. . ... : ... .. . ... : B-3 04 . ... ...
ROW 2E : G#3 0A . ... : ... .. . ... : ... .. . ... : ... .. . ... : ... .. . ... : ... .. . ... : ... .. . ... ...
ROW 2F : === .. . ... : ... .. . ... : ... .. . ... : ... .. . ... : ... .. . ... : ... .. . ... : E-3 04 . ... ...
ROW 30 : ... .. . ... : ... .. . ... : ... .. . ... : ... .. . ... : ... .. . ... : ... .. . ... : A-3 04 9 ... ...
ROW 31 : ... .. . ... : ... .. . ... : ... .. . ... : ... .. . ... : ... .. . ... : ... .. . ... : ... .. . ... ...
ROW 32 : F#3 0D . ... : ... .. . ... : ... .. . ... : ... .. . ... : ... .. . ... : ... .. . ... : C-4 04 . ... ...
ROW 33 : === .. . ... : ... .. . ... : ... .. . ... : ... .. . ... : ... .. . ... : ... .. . ... : B-3 04 . ... ...
ROW 34 : ... .. . ... : ... .. . ... : ... .. . ... : ... .. . ... : ... .. . ... : ... .. . ... : A-3 04 . ... ...
ROW 35 : F#3 0E . ... : ... .. . ... : ... .. . ... : ... .. . ... : ... .. . ... : ... .. . ... : F-3 04 . ... ...
ROW 36 : === 08 . ... : ... .. . ... : ... .. . ... : ... .. . ... : ... .. . ... : ... .. . ... : B-3 04 . ... ...
ROW 37 : ... .. . ... : ... .. . ... : ... .. . ... : ... .. . ... : ... .. . ... : ... .. . ... : D-4 04 . ... ...
ROW 38 : F#3 0D . ... : ... .. . ... : ... .. . ... : ... .. . ... : ... .. . ... : ... .. . ... : D-4 04 8 ... ...
ROW 39 : ... .. . ... : ... .. . ... : ... .. . ... : ... .. . ... : ... .. . ... : ... .. . ... : G-3 04 . ... ...
ROW 3A : === .. . ... : ... .. . ... : ... .. . ... : ... .. . ... : ... .. . ... : ... .. . ... : B-3 04 . ... ...
ROW 3B : F#3 0F . ... : ... .. . ... : ... .. . ... : ... .. . ... : ... .. . ... : ... .. . ... : C-4 04 . ... ...
ROW 3C : ... .. . ... : ... .. . ... : ... .. . ... : ... .. . ... : ... .. . ... : ... .. . ... : E-3 04 . ... ...
ROW 3D : === .. . ... : ... .. . ... : ... .. . ... : ... .. . ... : ... .. . ... : ... .. . ... : G-3 04 . ... ...
ROW 3E : D#3 10 . ... : ... .. . ... : ... .. . ... : ... .. . ... : ... .. . ... : ... .. . ... : B-3 04 . ... ...
ROW 3F : === .. . ... : ... .. . ... : ... .. . ... : ... .. . ... : ... .. . ... : ... .. . ... : A-3 04 . ... ...

PATTERN 0A
ROW 00 : C#1 12 . V00 : A-0 11 . ... : A-1 12 . ... : ... .. . ... : ... .. . ... : ... .. . ... : C#4 14 . 400 ...
ROW 01 : ... .. . ... : ... .. . ... : ... .. . ... : ... .. . ... : ... .. . ... : ... .. . ... : ... .. . 464 ...
ROW 02 : ... .. . S09 : ... .. . ... : ... .. . S09 : ... .. . ... : ... .. . ... : ... .. . ... : ... .. . ... ...
ROW 03 : C#2 12 . ... : A-0 11 . ... : A-1 12 . S09 : ... .. . ... : ... .. . ... : ... .. . ... : ... .. . ... ...
ROW 04 : ... .. . S09 : A-1 11 . ... : A-2 12 . ... : ... .. . ... : ... .. . ... : ... .. . ... : ... .. . ... ...
ROW 05 : C#1 12 . S09 : ... .. . ... : ... .. . S09 : ... .. . ... : ... .. . ... : ... .. . ... : ... .. . ... ...
ROW 06 : C#1 12 . ... : A-0 11 . ... : A-1 12 . ... : ... .. . ... : ... .. . ... : ... .. . ... : ... .. . ... ...
ROW 07 : ... .. . S09 : ... .. . ... : ... .. . S09 : ... .. . ... : ... .. . ... : ... .. . ... : ... .. . ... ...
ROW 08 : C#1 12 . ... : ... .. . ... : ... .. . ... : ... .. . ... : ... .. . ... : ... .. . ... : ... .. . ... ...
ROW 09 : ... .. . S09 : ... .. . ... : ... .. . ... : ... .. . ... : ... .. . ... : ... .. . ... : ... .. . ... ...
ROW 0A : B-1 12 . S09 : ... .. . ... : ... .. . ... : ... .. . ... : ... .. . ... : ... .. . ... : ... .. . ... ...
ROW 0B : C#2 12 . S09 : ... .. . ... : ... .. . ... : ... .. . ... : ... .. . ... : ... .. . ... : ... .. . S09 ...
ROW 0C : E-2 12 . S09 : ... .. . ... : ... .. . ... : ... .. . ... : ... .. . ... : ... .. . ... : C#4 14 . ... 400
ROW 0D : C#2 12 . S09 : ... .. . ... : ... .. . ... : ... .. . ... : ... .. . ... : ... .. . ... : ... .. . S09 464
ROW 0E : B-1 12 . S09 : ... .. . ... : ... .. . ... : ... .. . ... : ... .. . ... : ... .. . ... : B-3 14 . ... 400
ROW 0F : G#1 12 . S09 : ... .. . ... : ... .. . ... : ... .. . ... : ... .. . ... : ... .. . ... : ... .. . ... 464
ROW 10 : F#1 12 . S09 : B-0 11 . ... : B-1 12 . ... : ... .. . ... : ... .. . ... : ... .. . ... : === .. . ... ...
ROW 11 : E-1 12 . S09 : ... .. . ... : ... .. . ... : ... .. . ... : ... .. . ... : ... .. . ... : ... .. . ... ...
ROW 12 : F#1 12 . ... : ... .. . ... : ... .. . S09 : ... .. . ... : ... .. . ... : ... .. . ... : G#3 14 . ... 400
ROW 13 : ... .. . S09 : B-0 11 . ... : B-1 12 . S09 : ... .. . ... : ... .. . ... : ... .. . ... : ... .. . S09 464
ROW 14 : G#1 12 . ... : B-1 11 . ... : B-2 12 . ... : ... .. . ... : ... .. . ... : ... .. . ... : F#3 14 . ... 400
ROW 15 : ... .. . S09 : ... .. . ... : ... .. . S09 : ... .. . ... : ... .. . ... : ... .. . ... : ... .. . S09 464
ROW 16 : E-1 12 . S09 : B-0 11 . ... : B-1 12 . ... : ... .. . ... : ... .. . ... : ... .. . ... : E-3 14 . ... 400
ROW 17 : C#1 12 . ... : ... .. . ... : ... .. . S09 : ... .. . ... : ... .. . ... : ... .. . ... : ... .. . S09 464
ROW 18 : ... .. . ... : ... .. . ... : ... .. . ... : ... .. . ... : ... .. . ... : ... .. . ... : F#3 14 . ... 400
ROW 19 : ... .. . ... : ... .. . ... : ... .. . ... : ... .. . ... : ... .. . ... : ... .. . ... : ... .. . S09 464
ROW 1A : ... .. . ... : ... .. . ... : ... .. . ... : ... .. . ... : ... .. . ... : ... .. . ... : G#3 14 . ... 400
ROW 1B : ... .. . ... : ... .. . ... : ... .. . ... : ... .. . ... : ... .. . ... : ... .. . ... : ... .. . S09 464
ROW 1C : F-2 13 . ... : G#0 11 . ... : G#1 12 . ... : ... .. . ... : ... .. . ... : ... .. . ... : B-3 14 . ... 400
ROW 1D : ... .. . ... : ... .. . ... : ... .. . S09 : ... .. . ... : ... .. . ... : ... .. . ... : ... .. . S09 464
ROW 1E : ... .. . ... : B-0 11 . ... : B-1 12 . ... : ... .. . ... : ... .. . ... : ... .. . ... : C#4 14 . ... 400
ROW 1F : ... .. . ... : ... .. . ... : ... .. . S09 : ... .. . ... : ... .. . ... : ... .. . ... : ... .. . S09 464
ROW 20 : ... .. . ... : C#1 11 . ... : C#2 12 . ... : ... .. . ... : ... .. . ... : ... .. . ... : E-4 14 . ... 400
ROW 21 : ... .. . ... : ... .. . ... : ... .. . ... : ... .. . ... : ... .. . ... : ... .. . ... : ... .. . ... 464
ROW 22 : ... .. . ... : ... .. . ... : ... .. . S09 : ... .. . ... : ... .. . ... : ... .. . ... : ... .. . ... ...
ROW 23 : ... .. . ... : C#1 11 . ... : C#2 12 . S09 : ... .. . ... : ... .. . ... : ... .. . ... : ... .. . S09 ...
ROW 24 : ... .. . ... : C#2 11 . ... : C#3 12 . ... : ... .. . ... : ... .. . ... : ... .. . ... : C#4 14 . ... 400
ROW 25 : ... .. . ... : ... .. . ... : ... .. . S09 : ... .. . ... : ... .. . ... : ... .. . ... : ... .. . S09 464
ROW 26 : ... .. . ... : C#1 11 . ... : C#2 12 . ... : ... .. . ... : ... .. . ... : ... .. . ... : E-4 14 . ... 400
ROW 27 : ... .. . ... : ... .. . ... : ... .. . S09 : ... .. . ... : ... .. . ... : ... .. . ... : ... .. . ... 464
ROW 28 : ... .. . ... : ... .. . ... : ... .. . ... : ... .. . ... : ... .. . ... : ... .. . ... : ... .. . ... ...
ROW 29 : ... .. . ... : ... .. . ... : ... .. . ... : ... .. . ... : ... .. . ... : ... .. . ... : ... .. . S09 ...
ROW 2A : ... .. . ... : ... .. . ... : ... .. . ... : ... .. . ... : ... .. . ... : ... .. . ... : F#4 14 . ... 400
ROW 2B : ... .. . ... : ... .. . ... : ... .. . ... : ... .. . ... : ... .. . ... : ... .. . ... : ... .. . ... 464
ROW 2C : ... .. . ... : ... .. . ... : ... .. . ... : ... .. . ... : ... .. . ... : ... .. . ... : === .. . ... ...
ROW 2D : ... .. . ... : ... .. . ... : ... .. . ... : ... .. . ... : ... .. . ... : ... .. . ... : ... .. . ... ...
ROW 2E : ... .. . ... : B-0 11 . ... : B-1 12 . ... : ... .. . ... : ... .. . ... : ... .. . ... : G-4 14 . ... 400
ROW 2F : ... .. . ... : ... .. . ... : ... .. . S09 : ... .. . ... : ... .. . ... : ... .. . ... : ... .. . ... 464
ROW 30 : ... .. . ... : C#1 11 . ... : C#2 12 . ... : ... .. . ... : ... .. . ... : ... .. . ... : ... .. . ... ...
ROW 31 : ... .. . ... : ... .. . ... : ... .. . ... : ... .. . ... : ... .. . ... : ... .. . ... : ... .. . S09 ...
ROW 32 : ... .. . ... : ... .. . ... : ... .. . S09 : ... .. . ... : ... .. . ... : ... .. . ... : G-4 14 . ... 400
ROW 33 : ... .. . ... : C#1 11 . ... : C#2 12 . S09 : ... .. . ... : ... .. . ... : ... .. . ... : ... .. . S09 464
ROW 34 : ... .. . ... : C#2 11 . ... : C#3 12 . ... : ... .. . ... : ... .. . ... : ... .. . ... : F#4 14 . ... 400
ROW 35 : ... .. . ... : ... .. . ... : ... .. . S09 : ... .. . ... : ... .. . ... : ... .. . ... : ... .. . S09 464
ROW 36 : ... .. . ... : C#1 11 . ... : C#2 12 . ... : ... .. . ... : ... .. . ... : ... .. . ... : F#4 14 . ... 400
ROW 37 : ... .. . ... : ... .. . ... : ... .. . S09 : ... .. . ... : ... .. . ... : ... .. . ... : ... .. . S09 464
ROW 38 : ... .. . ... : ... .. . ... : ... .. . ... : ... .. . ... : ... .. . ... : ... .. . ... : E-4 14 . ... 400
ROW 39 : ... .. . ... : ... .. . ... : ... .. . ... : ... .. . ... : ... .. . ... : ... .. . ... : ... .. . S09 464
ROW 3A : ... .. . ... : ... .. . ... : ... .. . ... : ... .. . ... : ... .. . ... : ... .. . ... : E-3 14 . ... 400
ROW 3B : ... .. . ... : ... .. . ... : ... .. . ... : ... .. . ... : ... .. . ... : ... .. . ... : ... .. . S09 464
ROW 3C : ... .. . ... : C#1 11 . ... : C#2 12 . S09 : ... .. . ... : ... .. . ... : ... .. . ... : D#4 14 . ... 400
ROW 3D : ... .. . ... : D#1 11 . ... : D#2 12 . S09 : ... .. . ... : ... .. . ... : ... .. . ... : ... .. . S09 464
ROW 3E : ... .. . ... : B-0 11 . ... : B-1 12 . ... : ... .. . ... : ... .. . ... : ... .. . ... : B-3 14 . ... 400
ROW 3F : ... .. . ... : ... .. . ... : ... .. . S09 : ... .. . ... : ... .. . ... : ... .. . ... : ... .. . S09 464

PATTERN 0B
ROW 00 : ... .. F ... : C#2 11 . ... : A-1 11 7 ... : ... .. . ... : ... .. . ... : ... .. . ... : C#4 14 . 400 ...
ROW 01 : ... .. . ... : ... .. . ... : ... .. . ... : ... .. . ... : ... .. . ... : ... .. . ... : ... .. . 464 ...
ROW 02 : A-3 08 . ... : ... .. . ... : ... .. . S09 : ... .. . ... : ... .. . ... : ... .. . ... : ... .. . ... ...
ROW 03 : === .. . ... : C#3 11 . ... : A-1 11 . S09 : ... .. . ... : ... .. . ... : ... .. . ... : ... .. . ... ...
ROW 04 : ... .. . ... : ... .. . ... : A-2 11 . ... : ... .. . ... : ... .. . ... : ... .. . ... : ... .. . ... ...
ROW 05 : A-3 08 . ... : C#2 11 . ... : ... .. . S09 : ... .. . ... : ... .. . ... : ... .. . ... : ... .. . ... ...
ROW 06 : === 08 . ... : C#2 11 . ... : A-1 11 . ... : ... .. . ... : ... .. . ... : ... .. . ... : ... .. . ... ...
ROW 07 : ... .. . ... : ... .. . ... : ... .. . S09 : ... .. . ... : ... .. . ... : ... .. . ... : ... .. . ... ...
ROW 08 : A-3 08 E ... : C#2 11 . ... : ... .. 6 ... : ... .. . ... : ... .. . ... : ... .. . ... : ... .. . ... ...
ROW 09 : ... .. . ... : ... .. . ... : ... .. . ... : ... .. . ... : ... .. . ... : ... .. . ... : ... .. . ... ...
ROW 0A : === .. . ... : B-2 11 . ... : ... .. . ... : ... .. . ... : ... .. . ... : ... .. . ... : ... .. . ... ...
ROW 0B : A-3 09 . ... : C#3 11 . ... : ... .. . ... : ... .. . ... : ... .. . ... : ... .. . ... : ... .. . S09 ...
ROW 0C : ... .. . ... : E-3 11 . ... : ... .. . ... : ... .. . ... : ... .. . ... : ... .. . ... : C#4 14 . ... 400
ROW 0D : === .. . ... : C#3 11 . ... : ... .. . ... : ... .. . ... : ... .. . ... : ... .. . ... : ... .. . S09 464
ROW 0E : A-3 08 . ... : B-2 11 . ... : ... .. . ... : ... .. . ... : ... .. . ... : ... .. . ... : B-3 14 . ... 400
ROW 0F : === .. . ... : G#2 11 . ... : ... .. . ... : ... .. . ... : ... .. . ... : ... .. . ... : ... .. . ... 464
ROW 10 : ... .. D ... : F#2 11 . ... : B-1 11 5 ... : ... .. . ... : ... .. . ... : ... .. . ... : === .. . ... ...
ROW 11 : ... .. . ... : E-2 11 . ... : ... .. . ... : ... .. . ... : ... .. . ... : ... .. . ... : ... .. . ... ...
ROW 12 : A-3 08 . ... : F#2 11 . ... : ... .. . S09 : ... .. . ... : ... .. . ... : ... .. . ... : G#3 14 . ... 400
ROW 13 : === .. . ... : ... .. . ... : B-1 11 . S09 : ... .. . ... : ... .. . ... : ... .. . ... : ... .. . S09 464
ROW 14 : ... .. . ... : G#2 11 . ... : B-2 11 . ... : ... .. . ... : ... .. . ... : ... .. . ... : F#3 14 . ... 400
ROW 15 : A-3 08 . ... : ... .. . ... : ... .. . S09 : ... .. . ... : ... .. . ... : ... .. . ... : ... .. . S09 464
ROW 16 : === 08 . ... : E-2 11 . ... : B-1 11 . ... : ... .. . ... : ... .. . ... : ... .. . ... : E-3 14 . ... 400
ROW 17 : ... .. . ... : C#2 11 . ... : ... .. . S09 : ... .. . ... : ... .. . ... : ... .. . ... : ... .. . S09 464
ROW 18 : A-3 08 C ... : ... .. . ... : ... .. 4 ... : ... .. . ... : ... .. . ... : ... .. . ... : F#3 14 . ... 400
ROW 19 : ... .. . ... : ... .. . ... : ... .. . ... : ... .. . ... : ... .. . ... : ... .. . ... : ... .. . S09 464
ROW 1A : === .. . ... : ... .. . ... : ... .. . ... : ... .. . ... : ... .. . ... : ... .. . ... : G#3 14 . ... 400
ROW 1B : A-3 09 . ... : ... .. . ... : ... .. . ... : ... .. . ... : ... .. . ... : ... .. . ... : ... .. . S09 464
ROW 1C : ... .. . ... : G#2 13 . ... : G#1 11 . S07 : ... .. . ... : ... .. . ... : ... .. . ... : B-2 14 . ... 400
ROW 1D : === .. . ... : ... .. . ... : ... .. . ... : ... .. . ... : ... .. . ... : ... .. . ... : ... .. . ... 464
ROW 1E : A-3 08 . ... : ... .. . ... : B-1 11 . S07 : ... .. . ... : ... .. . ... : ... .. . ... : === .. . ... ...
ROW 1F : === .. . ... : ... .. . ... : ... .. . ... : ... .. . ... : ... .. . ... : ... .. . ... : ... .. . ... ...
ROW 20 : ... .. B ... : ... .. . ... : C#2 11 3 S05 : ... .. . ... : ... .. . ... : ... .. . ... : E-3 14 . ... 400
ROW 21 : ... .. . ... : ... .. . ... : ... .. . ... : ... .. . ... : ... .. . ... : ... .. . ... : ... .. . ... 464
ROW 22 : G#3 0A . ... : ... .. . ... : ... .. . ... : ... .. . ... : ... .. . ... : ... .. . ... : ... .. . ... ...
ROW 23 : === .. . ... : ... .. . ... : C#2 11 . S05 : ... .. . ... : ... .. . ... : ... .. . ... : ... .. . ... ...
ROW 24 : ... .. . ... : ... .. . ... : C#3 11 . S05 : ... .. . ... : ... .. . ... : ... .. . ... : ... .. . ... ...
ROW 25 : G#3 0A . ... : ... .. . ... : ... .. . ... : ... .. . ... : ... .. . ... : ... .. . ... : ... .. . ... ...
ROW 26 : === 08 . ... : ... .. . ... : C#2 11 . S05 : ... .. . ... : ... .. . ... : ... .. . ... : ... .. . ... ...
ROW 27 : ... .. . ... : ... .. . ... : ... .. . ... : ... .. . ... : ... .. . ... : ... .. . ... : === .. . G02 ...
ROW 28 : G#3 0B A ... : ... .. . ... : ... .. 2 ... : ... .. . ... : ... .. . ... : ... .. . ... : D#3 14 . ... 400
ROW 29 : ... .. . ... : ... .. . ... : ... .. . ... : ... .. . ... : ... .. . ... : ... .. . ... : ... .. . ... 464
ROW 2A : === .. . ... : ... .. . ... : ... .. . ... : ... .. . ... : ... .. . ... : ... .. . ... : ... .. . ... ...
ROW 2B : G#3 0C . ... : ... .. . ... : ... .. . ... : ... .. . ... : ... .. . ... : ... .. . ... : ... .. . ... ...
ROW 2C : ... .. . ... : ... .. . ... : ... .. . ... : ... .. . ... : ... .. . ... : ... .. . ... : ... .. . ... ...
ROW 2D : === .. . ... : ... .. . ... : ... .. . ... : ... .. . ... : ... .. . ... : ... .. . ... : === .. . G02 ...
ROW 2E : G#3 0A . ... : ... .. . ... : B-1 11 . S03 : ... .. . ... : ... .. . ... : ... .. . ... : C#3 14 . ... 400
ROW 2F : === .. . ... : ... .. . ... : ... .. . ... : ... .. . ... : ... .. . ... : ... .. . ... : ... .. . ... 464
ROW 30 : ... .. 9 ... : ... .. . ... : C#2 11 1 S02 : ... .. . ... : ... .. . ... : ... .. . ... : === .. . ... ...
ROW 31 : ... .. . ... : ... .. . ... : ... .. . ... : ... .. . ... : ... .. . ... : ... .. . ... : ... .. . ... ...
ROW 32 : F#3 0D . ... : ... .. . ... : ... .. . ... : ... .. . ... : ... .. . ... : ... .. . ... : B-3 04 . ... 400
ROW 33 : === .. . ... : ... .. . ... : C#2 11 . S01 : ... .. . ... : ... .. . ... : ... .. . ... : ... .. . ... ...
ROW 34 : ... .. . ... : ... .. . ... : C#3 11 . S01 : ... .. . ... : ... .. . ... : ... .. . ... : F#3 04 . ... ...
ROW 35 : F#3 0E . ... : ... .. . ... : ... .. . ... : ... .. . ... : ... .. . ... : ... .. . ... : B-3 04 . ... ...
ROW 36 : === 08 . ... : ... .. . ... : C#2 11 . S01 : ... .. . ... : ... .. . ... : ... .. . ... : ... .. . ... ...
ROW 37 : ... .. . ... : ... .. . ... : ... .. . ... : ... .. . ... : ... .. . ... : ... .. . ... : F#3 04 . ... ...
ROW 38 : F#3 0D 8 ... : ... .. . ... : ... .. 0 ... : ... .. . ... : ... .. . ... : ... .. . ... : B-3 04 . ... ...
ROW 39 : ... .. . ... : ... .. . ... : ... .. . ... : ... .. . ... : ... .. . ... : ... .. . ... : D-4 04 . ... ...
ROW 3A : === .. . ... : ... .. . ... : ... .. . ... : ... .. . ... : ... .. . ... : ... .. . ... : B-3 04 . ... ...
ROW 3B : F#3 0F . ... : ... .. . ... : ... .. . ... : ... .. . ... : ... .. . ... : ... .. . ... : G-3 04 . ... ...
ROW 3C : ... .. . ... : ... .. . ... : ... .. . ... : ... .. . ... : ... .. . ... : ... .. . ... : E-3 04 . ... ...
ROW 3D : === .. . ... : ... .. . ... : ... .. . ... : ... .. . ... : ... .. . ... : ... .. . ... : G-3 04 . ... ...
ROW 3E : D#3 10 . ... : ... .. . ... : ... .. . ... : ... .. . ... : ... .. . ... : ... .. . ... : A-3 04 . ... ...
ROW 3F : === .. . ... : ... .. . ... : ... .. . ... : ... .. . ... : ... .. . ... : ... .. . ... : G-3 04 . ... ...

PATTERN 0C
ROW 00 : ... .. 7 ... : A-0 11 F ... : ... .. . ... : ... .. . ... : ... .. . ... : ... .. . ... : ... .. . ... ...
ROW 01 : ... .. . ... : ... .. . ... : ... .. . ... : ... .. . ... : ... .. . ... : ... .. . ... : ... .. . ... ...
ROW 02 : A-3 08 . ... : ... .. . ... : ... .. . ... : ... .. . ... : ... .. . ... : ... .. . ... : A-4 14 . S09 ...
ROW 03 : === .. . ... : A-0 11 . ... : ... .. . ... : ... .. . ... : ... .. . ... : ... .. . ... : ... .. . ... ...
ROW 04 : ... .. . ... : A-1 11 . ... : ... .. . ... : ... .. . ... : ... .. . ... : ... .. . ... : A-4 14 . S09 ...
ROW 05 : A-3 08 . ... : ... .. . ... : ... .. . ... : ... .. . ... : ... .. . ... : ... .. . ... : ... .. . ... ...
ROW 06 : === 08 . ... : A-0 11 . ... : ... .. . ... : ... .. . ... : ... .. . ... : ... .. . ... : A-4 14 . S09 ...
ROW 07 : ... .. . ... : ... .. . ... : ... .. . ... : ... .. . ... : ... .. . ... : ... .. . ... : ... .. . ... ...
ROW 08 : A-3 08 6 ... : ... .. E ... : ... .. . ... : ... .. . ... : ... .. . ... : ... .. . ... : A-4 14 . ... ...
ROW 09 : ... .. . ... : ... .. . ... : ... .. . ... : ... .. . ... : ... .. . ... : ... .. . ... : ... .. . 464 ...
ROW 0A : === .. . ... : ... .. . ... : ... .. . ... : ... .. . ... : ... .. . ... : ... .. . ... : ... .. . S09 ...
ROW 0B : A-3 09 . ... : ... .. . ... : ... .. . ... : ... .. . ... : ... .. . ... : ... .. . ... : B-4 14 . S09 400
ROW 0C : ... .. . ... : ... .. . ... : ... .. . ... : ... .. . ... : ... .. . ... : ... .. . ... : ... .. . ... ...
ROW 0D : === .. . ... : ... .. . ... : ... .. . ... : ... .. . ... : ... .. . ... : ... .. . ... : ... .. . ... ...
ROW 0E : A-3 08 . ... : ... .. . ... : ... .. . ... : ... .. . ... : ... .. . ... : ... .. . ... : F#4 14 . ... ...
ROW 0F : === .. . ... : ... .. . ... : ... .. . ... : ... .. . ... : ... .. . ... : ... .. . ... : ... .. . ... 464
ROW 10 : ... .. 5 ... : B-0 11 D ... : ... .. . ... : ... .. . ... : ... .. . ... : ... .. . ... : ... .. . ... ...
ROW 11 : ... .. . ... : ... .. . ... : ... .. . ... : ... .. . ... : ... .. . ... : ... .. . ... : ... .. . S09 ...
ROW 12 : A-3 08 . ... : ... .. . ... : ... .. . ... : ... .. . ... : ... .. . ... : ... .. . ... : E-4 14 . S09 400
ROW 13 : === .. . ... : B-0 11 . ... : ... .. . ... : ... .. . ... : ... .. . ... : ... .. . ... : ... .. . ... ...
ROW 14 : ... .. . ... : B-1 11 . ... : ... .. . ... : ... .. . ... : ... .. . ... : ... .. . ... : F#4 14 . S09 ...
ROW 15 : A-3 08 . ... : ... .. . ... : ... .. . ... : ... .. . ... : ... .. . ... : ... .. . ... : ... .. . ... ...
ROW 16 : === 08 . ... : B-0 11 . ... : ... .. . ... : ... .. . ... : ... .. . ... : ... .. . ... : E-4 14 . S09 ...
ROW 17 : ... .. . ... : ... .. . ... : ... .. . ... : ... .. . ... : ... .. . ... : ... .. . ... : ... .. . ... ...
ROW 18 : A-3 08 4 ... : ... .. C ... : ... .. . ... : ... .. . ... : ... .. . ... : ... .. . ... : F#4 14 . ... ...
ROW 19 : ... .. . ... : ... .. . ... : ... .. . ... : ... .. . ... : ... .. . ... : ... .. . ... : ... .. . ... 464
ROW 1A : === .. . ... : ... .. . ... : ... .. . ... : ... .. . ... : ... .. . ... : ... .. . ... : ... .. . S09 ...
ROW 1B : A-3 09 . ... : ... .. . ... : ... .. . ... : ... .. . ... : ... .. . ... : ... .. . ... : G#4 14 . S09 400
ROW 1C : ... .. . ... : G#0 11 . ... : ... .. . ... : ... .. . ... : ... .. . ... : ... .. . ... : ... .. . ... ...
ROW 1D : === .. . ... : ... .. . ... : ... .. . ... : ... .. . ... : ... .. . ... : ... .. . ... : ... .. . ... ...
ROW 1E : A-3 08 . ... : B-0 11 . ... : ... .. . ... : ... .. . ... : ... .. . ... : ... .. . ... : E-4 14 . ... ...
ROW 1F : === .. . ... : ... .. . ... : ... .. . ... : ... .. . ... : ... .. . ... : ... .. . ... : ... .. . ... 464
ROW 20 : ... .. 3 ... : C#1 11 B ... : ... .. . ... : ... .. . ... : ... .. . ... : ... .. . ... : ... .. . ... ...
ROW 21 : ... .. . ... : ... .. . ... : ... .. . ... : ... .. . ... : ... .. . ... : ... .. . ... : ... .. . S09 ...
ROW 22 : G#3 0A . ... : ... .. . ... : ... .. . ... : ... .. . ... : ... .. . ... : ... .. . ... : C#4 14 . S09 400
ROW 23 : === .. . ... : C#1 11 . ... : ... .. . ... : ... .. . ... : ... .. . ... : ... .. . ... : ... .. . ... ...
ROW 24 : ... .. . ... : C#2 11 . ... : ... .. . ... : ... .. . ... : ... .. . ... : ... .. . ... : C-4 04 . ... ...
ROW 25 : G#3 0A . ... : ... .. . ... : ... .. . ... : ... .. . ... : ... .. . ... : ... .. . ... : ... .. . ... ...
ROW 26 : === 08 . ... : C#1 11 . ... : ... .. . ... : ... .. . ... : ... .. . ... : ... .. . ... : C-4 04 . ... ...
ROW 27 : ... .. . ... : ... .. . ... : ... .. . ... : ... .. . ... : ... .. . ... : ... .. . ... : ... .. . ... ...
ROW 28 : G#3 0B 2 ... : ... .. A ... : ... .. . ... : ... .. . ... : ... .. . ... : ... .. . ... : F-3 04 . ... ...
ROW 29 : ... .. . ... : ... .. . ... : ... .. . ... : ... .. . ... : ... .. . ... : ... .. . ... : G#3 04 . ... ...
ROW 2A : === .. . ... : ... .. . ... : ... .. . ... : ... .. . ... : ... .. . ... : ... .. . ... : B-3 04 . ... ...
ROW 2B : G#3 0C . ... : ... .. . ... : ... .. . ... : ... .. . ... : ... .. . ... : ... .. . ... : G#3 04 . ... ...
ROW 2C : ... .. . ... : ... .. . ... : ... .. . ... : ... .. . ... : ... .. . ... : ... .. . ... : B-3 04 . ... ...
ROW 2D : === .. . ... : ... .. . ... : ... .. . ... : ... .. . ... : ... .. . ... : ... .. . ... : D#4 04 . ... ...
ROW 2E : G#3 0A . ... : B-0 11 . ... : ... .. . ... : ... .. . ... : ... .. . ... : ... .. . ... : C-4 04 . ... ...
ROW 2F : === .. . ... : ... .. . ... : ... .. . ... : ... .. . ... : ... .. . ... : ... .. . ... : A-3 04 . ... ...
ROW 30 : ... .. 1 ... : C#1 11 9 ... : ... .. . ... : ... .. . ... : ... .. . ... : ... .. . ... : G-3 04 . ... ...
ROW 31 : ... .. . ... : ... .. . ... : ... .. . ... : ... .. . ... : ... .. . ... : ... .. . ... : A-3 04 . ... ...
ROW 32 : F#3 0D . ... : ... .. . ... : ... .. . ... : ... .. . ... : ... .. . ... : ... .. . ... : D-4 04 . ... ...
ROW 33 : === .. . ... : C#1 11 . ... : ... .. . ... : ... .. . ... : ... .. . ... : ... .. . ... : C-4 04 . ... ...
ROW 34 : ... .. . ... : C#2 11 . ... : ... .. . ... : ... .. . ... : ... .. . ... : ... .. . ... : A-3 04 . ... ...
ROW 35 : F#3 0E . ... : ... .. . ... : ... .. . ... : ... .. . ... : ... .. . ... : ... .. . ... : A-3 04 . ... ...
ROW 36 : === 08 . ... : C#1 11 . ... : ... .. . ... : ... .. . ... : ... .. . ... : ... .. . ... : C-4 04 . ... ...
ROW 37 : ... .. . ... : ... .. . ... : ... .. . ... : ... .. . ... : ... .. . ... : ... .. . ... : G#3 04 . ... ...
ROW 38 : ... .. 0 C00 : ... .. 8 ... : ... .. . ... : ... .. . ... : ... .. . ... : ... .. . ... : G-3 04 . ... ...
ROW 39 : ... .. . ... : ... .. . ... : ... .. . ... : ... .. . ... : ... .. . ... : ... .. . ... : C-4 04 . ... ...
ROW 3A : ... .. . ... : ... .. . ... : ... .. . ... : ... .. . ... : ... .. . ... : ... .. . ... : B-3 04 . ... ...
ROW 3B : ... .. . ... : ... .. . ... : ... .. . ... : ... .. . ... : ... .. . ... : ... .. . ... : D#4 04 . ... ...
ROW 3C : ... .. . ... : C#1 11 . ... : ... .. . ... : ... .. . ... : ... .. . ... : ... .. . ... : C#4 04 . ... ...
ROW 3D : ... .. . ... : D#1 11 . ... : ... .. . ... : ... .. . ... : ... .. . ... : ... .. . ... : G#3 04 . ... ...
ROW 3E : ... .. . ... : B-0 11 . ... : ... .. . ... : ... .. . ... : ... .. . ... : ... .. . ... : D#4 04 . ... ...
ROW 3F : ... .. . ... : ... .. . ... : ... .. . ... : ... .. . ... : ... .. . ... : ... .. . ... : B-3 04 . ... ...

PATTERN 0D
ROW 00 : ... .. . ... : A-0 1A 7 ... : ... .. . ... : ... .. . ... : ... .. . ... : ... .. . ... : ... .. . ... ...
ROW 01 : ... .. . ... : ... .. . ... : ... .. . ... : ... .. . ... : ... .. . ... : ... .. . ... : ... .. . ... ...
ROW 02 : ... .. . ... : ... .. . S09 : ... .. . ... : ... .. . ... : ... .. . ... : ... .. . ... : A-4 14 . S09 ...
ROW 03 : ... .. . ... : A-0 1A . S09 : ... .. . ... : ... .. . ... : ... .. . ... : ... .. . ... : ... .. . ... ...
ROW 04 : ... .. . ... : A-1 1A . ... : ... .. . ... : ... .. . ... : ... .. . ... : ... .. . ... : A-4 14 . S09 ...
ROW 05 : ... .. . ... : ... .. . S09 : ... .. . ... : ... .. . ... : ... .. . ... : ... .. . ... : ... .. . ... ...
ROW 06 : ... .. . ... : A-0 1A . ... : ... .. . ... : ... .. . ... : ... .. . ... : ... .. . ... : A-4 14 . S09 ...
ROW 07 : ... .. . ... : ... .. . S09 : ... .. . ... : ... .. . ... : ... .. . ... : ... .. . ... : ... .. . ... ...
ROW 08 : ... .. . ... : ... .. 6 ... : ... .. . ... : ... .. . ... : ... .. . ... : ... .. . ... : A-4 14 . ... ...
ROW 09 : ... .. . ... : ... .. . ... : ... .. . ... : ... .. . ... : ... .. . ... : ... .. . ... : ... .. . 464 ...
ROW 0A : ... .. . ... : ... .. . ... : ... .. . ... : ... .. . ... : ... .. . ... : ... .. . ... : ... .. . S09 ...
ROW 0B : ... .. . ... : ... .. . ... : ... .. . ... : ... .. . ... : ... .. . ... : ... .. . ... : B-4 14 . S09 400
ROW 0C : ... .. . ... : ... .. . ... : ... .. . ... : ... .. . ... : ... .. . ... : ... .. . ... : ... .. . ... ...
ROW 0D : ... .. . ... : ... .. . ... : ... .. . ... : ... .. . ... : ... .. . ... : ... .. . ... : ... .. . ... ...
ROW 0E : ... .. . ... : ... .. . ... : ... .. . ... : ... .. . ... : ... .. . ... : ... .. . ... : F#4 14 . ... ...
ROW 0F : ... .. . ... : ... .. . ... : ... .. . ... : ... .. . ... : ... .. . ... : ... .. . ... : ... .. . ... 464
ROW 10 : ... .. . ... : B-0 1A 5 ... : ... .. . ... : ... .. . ... : ... .. . ... : ... .. . ... : ... .. . ... ...
ROW 11 : ... .. . ... : ... .. . ... : ... .. . ... : ... .. . ... : ... .. . ... : ... .. . ... : ... .. . S09 ...
ROW 12 : ... .. . ... : ... .. . S09 : ... .. . ... : ... .. . ... : ... .. . ... : ... .. . ... : E-4 14 . S09 400
ROW 13 : ... .. . ... : B-0 1A . S09 : ... .. . ... : ... .. . ... : ... .. . ... : ... .. . ... : ... .. . ... ...
ROW 14 : ... .. . ... : B-1 1A . ... : ... .. . ... : ... .. . ... : ... .. . ... : ... .. . ... : F#4 14 . S09 ...
ROW 15 : ... .. . ... : ... .. . S09 : ... .. . ... : ... .. . ... : ... .. . ... : ... .. . ... : ... .. . ... ...
ROW 16 : ... .. . ... : B-0 1A . ... : ... .. . ... : ... .. . ... : ... .. . ... : ... .. . ... : E-4 14 . S09 ...
ROW 17 : ... .. . ... : ... .. . S09 : ... .. . ... : ... .. . ... : ... .. . ... : ... .. . ... : ... .. . ... ...
ROW 18 : ... .. . ... : ... .. 4 ... : ... .. . ... : ... .. . ... : ... .. . ... : ... .. . ... : F#4 14 . ... ...
ROW 19 : ... .. . ... : ... .. . ... : ... .. . ... : ... .. . ... : ... .. . ... : ... .. . ... : ... .. . ... 464
ROW 1A : ... .. . ... : ... .. . ... : ... .. . ... : ... .. . ... : ... .. . ... : ... .. . ... : ... .. . S09 ...
ROW 1B : ... .. . ... : ... .. . ... : ... .. . ... : ... .. . ... : ... .. . ... : ... .. . ... : G#4 14 . S09 400
ROW 1C : ... .. . ... : G#0 1A . ... : ... .. . ... : ... .. . ... : ... .. . ... : ... .. . ... : ... .. . ... ...
ROW 1D : ... .. . ... : ... .. . S09 : ... .. . ... : ... .. . ... : ... .. . ... : ... .. . ... : ... .. . ... ...
ROW 1E : ... .. . ... : B-0 1A . ... : ... .. . ... : ... .. . ... : ... .. . ... : ... .. . ... : B-4 14 . ... Q02
ROW 1F : ... .. . ... : ... .. . S09 : ... .. . ... : ... .. . ... : ... .. . ... : ... .. . ... : ... .. . ... 464
ROW 20 : ... .. . ... : C#1 1A 3 ... : ... .. . ... : ... .. . ... : ... .. . ... : ... .. . ... : ... .. . ... ...
ROW 21 : ... .. . ... : ... .. . ... : ... .. . ... : ... .. . ... : ... .. . ... : ... .. . ... : ... .. . ... ...
ROW 22 : ... .. . ... : ... .. . S09 : ... .. . ... : ... .. . ... : ... .. . ... : ... .. . ... : === .. . ... ...
ROW 23 : ... .. . ... : C#1 1A . S09 : ... .. . ... : ... .. . ... : ... .. . ... : ... .. . ... : ... .. . ... ...
ROW 24 : ... .. . ... : C#2 1A . ... : ... .. . ... : ... .. . ... : ... .. . ... : ... .. . ... : C-4 04 . ... 400
ROW 25 : ... .. . ... : ... .. . S09 : ... .. . ... : ... .. . ... : ... .. . ... : ... .. . ... : ... .. . ... ...
ROW 26 : ... .. . ... : C#1 1A . ... : ... .. . ... : ... .. . ... : ... .. . ... : ... .. . ... : C-4 04 . ... ...
ROW 27 : ... .. . ... : ... .. . S09 : ... .. . ... : ... .. . ... : ... .. . ... : ... .. . ... : ... .. . ... ...
ROW 28 : ... .. . ... : ... .. 2 ... : ... .. . ... : ... .. . ... : ... .. . ... : ... .. . ... : F-3 04 . ... ...
ROW 29 : ... .. . ... : ... .. . ... : ... .. . ... : ... .. . ... : ... .. . ... : ... .. . ... : G#3 04 . ... ...
ROW 2A : ... .. . ... : ... .. . ... : ... .. . ... : ... .. . ... : ... .. . ... : ... .. . ... : B-3 04 . ... ...
ROW 2B : ... .. . ... : ... .. . ... : ... .. . ... : ... .. . ... : ... .. . ... : ... .. . ... : G#3 04 . ... ...
ROW 2C : ... .. . ... : ... .. . ... : ... .. . ... : ... .. . ... : ... .. . ... : ... .. . ... : B-3 04 . ... ...
ROW 2D : ... .. . ... : ... .. . ... : ... .. . ... : ... .. . ... : ... .. . ... : ... .. . ... : D#4 04 . ... ...
ROW 2E : ... .. . ... : B-0 1A . ... : ... .. . ... : ... .. . ... : ... .. . ... : ... .. . ... : C-4 04 . ... ...
ROW 2F : ... .. . ... : ... .. . S09 : ... .. . ... : ... .. . ... : ... .. . ... : ... .. . ... : A-3 04 . ... ...
ROW 30 : ... .. . ... : C#1 1A 1 ... : ... .. . ... : ... .. . ... : ... .. . ... : ... .. . ... : G-3 04 . ... ...
ROW 31 : ... .. . ... : ... .. . ... : ... .. . ... : ... .. . ... : ... .. . ... : ... .. . ... : A-3 04 . ... ...
ROW 32 : ... .. . ... : ... .. . S09 : ... .. . ... : ... .. . ... : ... .. . ... : ... .. . ... : D-4 04 . ... ...
ROW 33 : ... .. . ... : C#1 1A . S09 : ... .. . ... : ... .. . ... : ... .. . ... : ... .. . ... : C-4 04 . ... ...
ROW 34 : ... .. . ... : C#2 1A . ... : ... .. . ... : ... .. . ... : ... .. . ... : ... .. . ... : A-3 04 . ... ...
ROW 35 : ... .. . ... : ... .. . S09 : ... .. . ... : ... .. . ... : ... .. . ... : ... .. . ... : A-3 04 . ... ...
ROW 36 : ... .. . ... : C#1 1A . ... : ... .. . ... : ... .. . ... : ... .. . ... : ... .. . ... : C-4 04 . ... ...
ROW 37 : ... .. . ... : ... .. . S09 : ... .. . ... : ... .. . ... : ... .. . ... : ... .. . ... : G#3 04 . ... ...
ROW 38 : ... .. . ... : ... .. 0 ... : ... .. . ... : ... .. . ... : ... .. . ... : ... .. . ... : G-3 04 . ... ...
ROW 39 : ... .. . ... : ... .. . ... : ... .. . ... : ... .. . ... : ... .. . ... : ... .. . ... : C-4 04 . ... ...
ROW 3A : ... .. . ... : ... .. . ... : ... .. . ... : ... .. . ... : ... .. . ... : ... .. . ... : B-3 04 . ... ...
ROW 3B : ... .. . ... : ... .. . ... : ... .. . ... : ... .. . ... : ... .. . ... : ... .. . ... : D#4 04 . ... ...
ROW 3C : ... .. . ... : ... .. . ... : ... .. . ... : ... .. . ... : ... .. . ... : ... .. . ... : C#4 04 . ... ...
ROW 3D : ... .. . ... : ... .. . ... : ... .. . ... : ... .. . ... : ... .. . ... : ... .. . ... : G#3 04 . ... ...
ROW 3E : ... .. . ... : ... .. . ... : ... .. . ... : ... .. . ... : ... .. . ... : ... .. . ... : D#4 04 . ... ...
ROW 3F : ... .. . ... : ... .. . ... : ... .. . ... : ... .. . ... : ... .. . ... : ... .. . ... : B-3 04 . ... ...

PATTERN 0E
ROW 00 : ... .. . ... : ... .. . ... : ... .. . ... : ... .. . ... : ... .. . ... : ... .. . ... : ... .. . ... ...
ROW 01 : ... .. . ... : ... .. . ... : ... .. . ... : ... .. . ... : ... .. . ... : ... .. . ... : ... .. . ... ...
ROW 02 : ... .. . ... : ... .. . ... : ... .. . ... : ... .. . ... : ... .. . ... : ... .. . ... : A-4 14 . S09 ...
ROW 03 : ... .. . ... : ... .. . ... : ... .. . ... : ... .. . ... : ... .. . ... : ... .. . ... : ... .. . ... ...
ROW 04 : ... .. . ... : ... .. . ... : ... .. . ... : ... .. . ... : ... .. . ... : ... .. . ... : A-4 14 . S09 ...
ROW 05 : ... .. . ... : ... .. . ... : ... .. . ... : ... .. . ... : ... .. . ... : ... .. . ... : ... .. . ... ...
ROW 06 : ... .. . ... : ... .. . ... : ... .. . ... : ... .. . ... : ... .. . ... : ... .. . ... : A-4 14 . S09 ...
ROW 07 : ... .. . ... : ... .. . ... : ... .. . ... : ... .. . ... : ... .. . ... : ... .. . ... : ... .. . ... ...
ROW 08 : ... .. . ... : ... .. . ... : ... .. . ... : ... .. . ... : ... .. . ... : ... .. . ... : C#5 14 . ... ...
ROW 09 : ... .. . ... : ... .. . ... : ... .. . ... : ... .. . ... : ... .. . ... : ... .. . ... : ... .. . 464 ...
ROW 0A : ... .. . ... : ... .. . ... : ... .. . ... : ... .. . ... : ... .. . ... : ... .. . ... : ... .. . S09 ...
ROW 0B : ... .. . ... : ... .. . ... : ... .. . ... : ... .. . ... : ... .. . ... : ... .. . ... : B-4 14 . ... 400
ROW 0C : ... .. . ... : ... .. . ... : ... .. . ... : ... .. . ... : ... .. . ... : ... .. . ... : ... .. . ... 464
ROW 0D : ... .. . ... : ... .. . ... : ... .. . ... : ... .. . ... : ... .. . ... : ... .. . ... : ... .. . ... S09
ROW 0E : ... .. . ... : ... .. . ... : ... .. . ... : ... .. . ... : ... .. . ... : ... .. . ... : G#4 14 . S09 400
ROW 0F : ... .. . ... : ... .. . ... : ... .. . ... : ... .. . ... : ... .. . ... : ... .. . ... : ... .. . ... 464
ROW 10 : ... .. . ... : ... .. . ... : ... .. . ... : ... .. . ... : ... .. . ... : ... .. . ... : F#4 14 . S09 400
ROW 11 : ... .. . ... : ... .. . ... : ... .. . ... : ... .. . ... : ... .. . ... : ... .. . ... : ... .. . ... ...
ROW 12 : ... .. . ... : ... .. . ... : ... .. . ... : ... .. . ... : ... .. . ... : ... .. . ... : E-4 14 . S09 ...
ROW 13 : ... .. . ... : ... .. . ... : ... .. . ... : ... .. . ... : ... .. . ... : ... .. . ... : F#4 14 . S09 ...
ROW 14 : ... .. . ... : ... .. . ... : ... .. . ... : ... .. . ... : ... .. . ... : ... .. . ... : ... .. . ... ...
ROW 15 : ... .. . ... : ... .. . ... : ... .. . ... : ... .. . ... : ... .. . ... : ... .. . ... : E-4 14 . S09 ...
ROW 16 : ... .. . ... : ... .. . ... : ... .. . ... : ... .. . ... : ... .. . ... : ... .. . ... : F#4 14 . S09 ...
ROW 17 : ... .. . ... : ... .. . ... : ... .. . ... : ... .. . ... : ... .. . ... : ... .. . ... : ... .. . ... ...
ROW 18 : ... .. . ... : ... .. . ... : ... .. . ... : ... .. . ... : ... .. . ... : ... .. . ... : G-4 14 . ... ...
ROW 19 : ... .. . ... : ... .. . ... : ... .. . ... : ... .. . ... : ... .. . ... : ... .. . ... : ... .. . S09 464
ROW 1A : ... .. . ... : ... .. . ... : ... .. . ... : ... .. . ... : ... .. . ... : ... .. . ... : G#4 14 . S09 400
ROW 1B : ... .. . ... : ... .. . ... : ... .. . ... : ... .. . ... : ... .. . ... : ... .. . ... : ... .. . ... ...
ROW 1C : ... .. . ... : ... .. . ... : ... .. . ... : ... .. . ... : ... .. . ... : ... .. . ... : F#4 14 . S09 ...
ROW 1D : ... .. . ... : ... .. . ... : ... .. . ... : ... .. . ... : ... .. . ... : ... .. . ... : ... .. . ... ...
ROW 1E : ... .. . ... : ... .. . ... : ... .. . ... : ... .. . ... : ... .. . ... : ... .. . ... : C#4 14 . S09 ...
ROW 1F : ... .. . ... : ... .. . ... : ... .. . ... : ... .. . ... : ... .. . ... : ... .. . ... : E-4 14 . ... ...
ROW 20 : ... .. . ... : ... .. . ... : ... .. . ... : ... .. . ... : ... .. . ... : ... .. . ... : ... .. . 464 ...
ROW 21 : ... .. . ... : ... .. . ... : ... .. . ... : ... .. . ... : ... .. . ... : ... .. . ... : ... .. . ... ...
ROW 22 : ... .. . ... : ... .. . ... : ... .. . ... : ... .. . ... : ... .. . ... : ... .. . ... : ... .. . ... ...
ROW 23 : ... .. . ... : ... .. . ... : ... .. . ... : ... .. . ... : ... .. . ... : ... .. . ... : ... .. . S09 ...
ROW 24 : ... .. . ... : ... .. . ... : ... .. . ... : ... .. . ... : ... .. . ... : ... .. . ... : F#4 14 . S09 400
ROW 25 : ... .. . ... : ... .. . ... : ... .. . ... : ... .. . ... : ... .. . ... : ... .. . ... : ... .. . ... ...
ROW 26 : ... .. . ... : ... .. . ... : ... .. . ... : ... .. . ... : ... .. . ... : ... .. . ... : B-3 14 . S09 ...
ROW 27 : ... .. . ... : ... .. . ... : ... .. . ... : ... .. . ... : ... .. . ... : ... .. . ... : C#4 14 . ... ...
ROW 28 : ... .. . ... : ... .. . ... : ... .. . ... : ... .. . ... : ... .. . ... : ... .. . ... : ... .. . 464 ...
ROW 29 : ... .. . ... : ... .. . ... : ... .. . ... : ... .. . ... : ... .. . ... : ... .. . ... : ... .. . ... ...
ROW 2A : ... .. . ... : ... .. . ... : ... .. . ... : ... .. . ... : ... .. . ... : ... .. . ... : ... .. . ... ...
ROW 2B : ... .. . ... : ... .. . ... : ... .. . ... : ... .. . ... : ... .. . ... : ... .. . ... : ... .. . S09 ...
ROW 2C : ... .. . ... : ... .. . ... : ... .. . ... : ... .. . ... : ... .. . ... : ... .. . ... : E-3 14 . ... ...
ROW 2D : ... .. . ... : ... .. . ... : ... .. . ... : ... .. . ... : ... .. . ... : ... .. . ... : ... .. . S09 464
ROW 2E : ... .. . ... : ... .. . ... : ... .. . ... : ... .. . ... : ... .. . ... : ... .. . ... : F#3 14 . ... 400
ROW 2F : ... .. . ... : ... .. . ... : ... .. . ... : ... .. . ... : ... .. . ... : ... .. . ... : ... .. . S09 464
ROW 30 : ... .. . ... : ... .. . ... : ... .. . ... : ... .. . ... : ... .. . ... : ... .. . ... : G#3 14 . ... 400
ROW 31 : ... .. . ... : ... .. . ... : ... .. . ... : ... .. . ... : ... .. . ... : ... .. . ... : ... .. . S09 464
ROW 32 : ... .. . ... : ... .. . ... : ... .. . ... : ... .. . ... : ... .. . ... : ... .. . ... : G#3 14 . S09 400
ROW 33 : ... .. . ... : ... .. . ... : ... .. . ... : ... .. . ... : ... .. . ... : ... .. . ... : ... .. . ... ...
ROW 34 : ... .. . ... : ... .. . ... : ... .. . ... : ... .. . ... : ... .. . ... : ... .. . ... : F#3 14 . ... 400
ROW 35 : ... .. . ... : ... .. . ... : ... .. . ... : ... .. . ... : ... .. . ... : ... .. . ... : ... .. . S09 464
ROW 36 : ... .. . ... : ... .. . ... : ... .. . ... : ... .. . ... : ... .. . ... : ... .. . ... : G#3 14 . S09 400
ROW 37 : ... .. . ... : ... .. . ... : ... .. . ... : ... .. . ... : ... .. . ... : ... .. . ... : B-3 14 . ... ...
ROW 38 : ... .. . ... : ... .. . ... : ... .. . ... : ... .. . ... : ... .. . ... : ... .. . ... : ... .. . ... 464
ROW 39 : ... .. . ... : ... .. . ... : ... .. . ... : ... .. . ... : ... .. . ... : ... .. . ... : ... .. . S09 ...
ROW 3A : ... .. . ... : ... .. . ... : ... .. . ... : ... .. . ... : ... .. . ... : ... .. . ... : F#3 14 . ... 400
ROW 3B : ... .. . ... : ... .. . ... : ... .. . ... : ... .. . ... : ... .. . ... : ... .. . ... : ... .. . S09 464
ROW 3C : ... .. . ... : ... .. . ... : ... .. . ... : ... .. . ... : ... .. . ... : ... .. . ... : G#3 14 . ... 400
ROW 3D : ... .. . ... : ... .. . ... : ... .. . ... : ... .. . ... : ... .. . ... : ... .. . ... : ... .. . S09 464
ROW 3E : ... .. . ... : ... .. . ... : ... .. . ... : ... .. . ... : ... .. . ... : ... .. . ... : B-3 14 . ... 400
ROW 3F : ... .. . ... : ... .. . ... : ... .. . ... : ... .. . ... : ... .. . ... : ... .. . ... : ... .. . S09 464

PATTERN 0F
ROW 00 : ... .. . ... : ... .. . ... : ... .. . ... : ... .. . ... : ... .. . ... : ... .. . ... : ... .. 7 ... ...
ROW 01 : ... .. . ... : ... .. . ... : ... .. . ... : ... .. . ... : ... .. . ... : ... .. . ... : ... .. . ... ...
ROW 02 : ... .. . ... : ... .. . ... : ... .. . ... : ... .. . ... : ... .. . ... : ... .. . ... : ... .. . ... ...
ROW 03 : ... .. . ... : ... .. . ... : ... .. . ... : ... .. . ... : ... .. . ... : ... .. . ... : ... .. . ... ...
ROW 04 : ... .. . ... : ... .. . ... : ... .. . ... : ... .. . ... : ... .. . ... : ... .. . ... : C-4 04 . ... ...
ROW 05 : ... .. . ... : ... .. . ... : ... .. . ... : ... .. . ... : ... .. . ... : ... .. . ... : ... .. . ... ...
ROW 06 : ... .. . ... : ... .. . ... : ... .. . ... : ... .. . ... : ... .. . ... : ... .. . ... : C-4 04 . ... ...
ROW 07 : ... .. . ... : ... .. . ... : ... .. . ... : ... .. . ... : ... .. . ... : ... .. . ... : ... .. . ... ...
ROW 08 : ... .. . ... : ... .. . ... : ... .. . ... : ... .. . ... : ... .. . ... : ... .. . ... : E-3 04 6 ... ...
ROW 09 : ... .. . ... : ... .. . ... : ... .. . ... : ... .. . ... : ... .. . ... : ... .. . ... : G-3 04 . ... ...
ROW 0A : ... .. . ... : ... .. . ... : ... .. . ... : ... .. . ... : ... .. . ... : ... .. . ... : A-3 04 . ... ...
ROW 0B : ... .. . ... : ... .. . ... : ... .. . ... : ... .. . ... : ... .. . ... : ... .. . ... : C-4 04 . ... ...
ROW 0C : ... .. . ... : ... .. . ... : ... .. . ... : ... .. . ... : ... .. . ... : ... .. . ... : E-3 04 . ... ...
ROW 0D : ... .. . ... : ... .. . ... : ... .. . ... : ... .. . ... : ... .. . ... : ... .. . ... : A-3 04 . ... ...
ROW 0E : ... .. . ... : ... .. . ... : ... .. . ... : ... .. . ... : ... .. . ... : ... .. . ... : B-3 04 . ... ...
ROW 0F : ... .. . ... : ... .. . ... : ... .. . ... : ... .. . ... : ... .. . ... : ... .. . ... : C-4 04 . ... ...
ROW 10 : ... .. . ... : ... .. . ... : ... .. . ... : ... .. . ... : ... .. . ... : ... .. . ... : E-3 04 5 ... ...
ROW 11 : ... .. . ... : ... .. . ... : ... .. . ... : ... .. . ... : ... .. . ... : ... .. . ... : B-3 04 . ... ...
ROW 12 : ... .. . ... : ... .. . ... : ... .. . ... : ... .. . ... : ... .. . ... : ... .. . ... : ... .. . ... ...
ROW 13 : ... .. . ... : ... .. . ... : ... .. . ... : ... .. . ... : ... .. . ... : ... .. . ... : E-3 04 . ... ...
ROW 14 : ... .. . ... : ... .. . ... : ... .. . ... : ... .. . ... : ... .. . ... : ... .. . ... : A-3 04 . ... ...
ROW 15 : ... .. . ... : ... .. . ... : ... .. . ... : ... .. . ... : ... .. . ... : ... .. . ... : ... .. . ... ...
ROW 16 : ... .. . ... : ... .. . ... : ... .. . ... : ... .. . ... : ... .. . ... : ... .. . ... : C-4 04 . ... ...
ROW 17 : ... .. . ... : ... .. . ... : ... .. . ... : ... .. . ... : ... .. . ... : ... .. . ... : B-3 04 . ... ...
ROW 18 : ... .. . ... : ... .. . ... : ... .. . ... : ... .. . ... : ... .. . ... : ... .. . ... : A-3 04 4 ... ...
ROW 19 : ... .. . ... : ... .. . ... : ... .. . ... : ... .. . ... : ... .. . ... : ... .. . ... : F-3 04 . ... ...
ROW 1A : ... .. . ... : ... .. . ... : ... .. . ... : ... .. . ... : ... .. . ... : ... .. . ... : B-3 04 . ... ...
ROW 1B : ... .. . ... : ... .. . ... : ... .. . ... : ... .. . ... : ... .. . ... : ... .. . ... : D-4 04 . ... ...
ROW 1C : ... .. . ... : ... .. . ... : ... .. . ... : ... .. . ... : ... .. . ... : ... .. . ... : D-4 04 . ... ...
ROW 1D : ... .. . ... : ... .. . ... : ... .. . ... : ... .. . ... : ... .. . ... : ... .. . ... : G-3 04 . ... ...
ROW 1E : ... .. . ... : ... .. . ... : ... .. . ... : ... .. . ... : ... .. . ... : ... .. . ... : B-3 04 . ... ...
ROW 1F : ... .. . ... : ... .. . ... : ... .. . ... : ... .. . ... : ... .. . ... : ... .. . ... : C-4 04 . ... ...
ROW 20 : ... .. . ... : ... .. . ... : ... .. . ... : ... .. . ... : ... .. . ... : ... .. . ... : C-4 04 3 ... ...
ROW 21 : ... .. . ... : ... .. . ... : ... .. . ... : ... .. . ... : ... .. . ... : ... .. . ... : ... .. . ... ...
ROW 22 : ... .. . ... : ... .. . ... : ... .. . ... : ... .. . ... : ... .. . ... : ... .. . ... : C-4 04 . ... ...
ROW 23 : ... .. . ... : ... .. . ... : ... .. . ... : ... .. . ... : ... .. . ... : ... .. . ... : ... .. . ... ...
ROW 24 : ... .. . ... : ... .. . ... : ... .. . ... : ... .. . ... : ... .. . ... : ... .. . ... : E-3 04 . ... ...
ROW 25 : ... .. . ... : ... .. . ... : ... .. . ... : ... .. . ... : ... .. . ... : ... .. . ... : G-3 04 . ... ...
ROW 26 : ... .. . ... : ... .. . ... : ... .. . ... : ... .. . ... : ... .. . ... : ... .. . ... : A-3 04 . ... ...
ROW 27 : ... .. . ... : ... .. . ... : ... .. . ... : ... .. . ... : ... .. . ... : ... .. . ... : C-4 04 . ... ...
ROW 28 : ... .. . ... : ... .. . ... : ... .. . ... : ... .. . ... : ... .. . ... : ... .. . ... : E-3 04 2 ... ...
ROW 29 : ... .. . ... : ... .. . ... : ... .. . ... : ... .. . ... : ... .. . ... : ... .. . ... : A-3 04 . ... ...
ROW 2A : ... .. . ... : ... .. . ... : ... .. . ... : ... .. . ... : ... .. . ... : ... .. . ... : B-3 04 . ... ...
ROW 2B : ... .. . ... : ... .. . ... : ... .. . ... : ... .. . ... : ... .. . ... : ... .. . ... : C-4 04 . ... ...
ROW 2C : ... .. . ... : ... .. . ... : ... .. . ... : ... .. . ... : ... .. . ... : ... .. . ... : E-3 04 . ... ...
ROW 2D : ... .. . ... : ... .. . ... : ... .. . ... : ... .. . ... : ... .. . ... : ... .. . ... : B-3 04 . ... ...
ROW 2E : ... .. . ... : ... .. . ... : ... .. . ... : ... .. . ... : ... .. . ... : ... .. . ... : ... .. . ... ...
ROW 2F : ... .. . ... : ... .. . ... : ... .. . ... : ... .. . ... : ... .. . ... : ... .. . ... : E-3 04 . ... ...
ROW 30 : ... .. . ... : ... .. . ... : ... .. . ... : ... .. . ... : ... .. . ... : ... .. . ... : A-3 04 1 ... ...
ROW 31 : ... .. . ... : ... .. . ... : ... .. . ... : ... .. . ... : ... .. . ... : ... .. . ... : ... .. . ... ...
ROW 32 : ... .. . ... : ... .. . ... : ... .. . ... : ... .. . ... : ... .. . ... : ... .. . ... : C-4 04 . ... ...
ROW 33 : ... .. . ... : ... .. . ... : ... .. . ... : ... .. . ... : ... .. . ... : ... .. . ... : B-3 04 . ... ...
ROW 34 : ... .. . ... : ... .. . ... : ... .. . ... : ... .. . ... : ... .. . ... : ... .. . ... : A-3 04 . ... ...
ROW 35 : ... .. . ... : ... .. . ... : ... .. . ... : ... .. . ... : ... .. . ... : ... .. . ... : F-3 04 . ... ...
ROW 36 : ... .. . ... : ... .. . ... : ... .. . ... : ... .. . ... : ... .. . ... : ... .. . ... : B-3 04 . ... ...
ROW 37 : ... .. . ... : ... .. . ... : ... .. . ... : ... .. . ... : ... .. . ... : ... .. . ... : D-4 04 . ... ...
ROW 38 : ... .. . ... : ... .. . ... : ... .. . ... : ... .. . ... : ... .. . ... : ... .. . ... : ... .. 0 ... ...
ROW 39 : ... .. . ... : ... .. . ... : ... .. . ... : ... .. . ... : ... .. . ... : ... .. . ... : ... .. . ... ...
ROW 3A : ... .. . ... : ... .. . ... : ... .. . ... : ... .. . ... : ... .. . ... : ... .. . ... : ... .. . ... ...
ROW 3B : ... .. . ... : ... .. . ... : ... .. . ... : ... .. . ... : ... .. . ... : ... .. . ... : ... .. . ... ...
ROW 3C : ... .. . ... : ... .. . ... : ... .. . ... : ... .. . ... : ... .. . ... : ... .. . ... : ... .. . ... ...
ROW 3D : ... .. . ... : ... .. . ... : ... .. . ... : ... .. . ... : ... .. . ... : ... .. . ... : ... .. . ... ...
ROW 3E : ... .. . ... : ... .. . ... : ... .. . ... : ... .. . ... : ... .. . ... : ... .. . ... : ... .. . ... ...
ROW 3F : ... .. . ... : ... .. . ... : ... .. . ... : ... .. . ... : ... .. . ... : ... .. . ... : ... .. . ... ...

# End of export
