# FamiTracker text export 0.4.2

# Song information
TITLE           "Pannonica"
AUTHOR          "Thelonious Monk"
COPYRIGHT       "Arr. fluidvolt"

# Song comment
COMMENT ""

# Global settings
MACHINE         0
FRAMERATE       0
EXPANSION       8
VIBRATO         1
SPLIT           21

# Macros
MACRO       0   0  -1  -1   0 : 6 9 13 13 14 14 14 15 15 15 15 15 15 15 15 15 15 15 15 15 15 15 15 15 15 15 15 15 14 14 14 14 14 14 14 14 14 14 14 14 14 13 13 13 13 13 13 13 13 13 13 13 13 13 13 13 12 12 12 12 12 12 12 12 12 12 12 12 12 12 12 12 11 11 11 11 11 11 11 11 11 11 11 11 11 11 11 10 10 10 10 10 10 10 10 10 10 10 10 10 10 9 9 9 9 9 9 9 9 9 9 9 9 9 9 9 8 8 8 8 8 8 8 8 8 8 8 8 7 7 7 7 7 7 7 7 7 7 7 7 6 6 6 6 6 6 6 6 6 5
MACRO       0   1  -1  -1   0 : 15 12 11 9 7 6 4 3 3 3 3 3 2 0 0 0 0 0 0
MACRO       0   2  -1  -1   0 : 0 1 2 2 3 5 5 5 5 5 5 5 5 4 4 4 4 4 4 3 3 3 3 3 3 2 2 2 2 2 1 1 1
MACRO       0   3  -1  -1   0 : 0 15
MACRO       0   4  -1  -1   0 : 15 15 14 14 14 14 13 13 13 13 13 12 12 12 12 12 11
MACRO       0   5  -1  -1   0 : 15 15 14 14 13 13 13 12 12 12 11 11 11 10 10 10 9 9 8 8 8 7 7 7 7 7 6 6 6 6 5 5 5 5 5 5 5 5 4 4 4 4 4 4 4 4 4 4 4 4 4 3 3 3 3 3 3 3 3 3 3 3 3 3 2 2 2 2 2 2 2 2 2 2 2 2 2 2 2 2 2 2 2 2 1 1 1 1 1 1 1 1 1 1 1 1 1 1 1 1
MACRO       0   6  -1  -1   0 : 3 5 9 12 14 15
MACRO       1   0   0  -1   0 : 0 0 0 4 4 4 7 7 7 11 11 11
MACRO       1   1  -1  -1   0 : -12 -12 0
MACRO       1   2   0  -1   0 : 0 0 0 3 3 3 7 7 7 10 10 10
MACRO       1   3   0  -1   0 : 0 0 0 4 4 4 7 7 7 10 10 10
MACRO       4   0  -1  -1   0 : 2 2 2 0
MACRO       4   1  -1  -1   0 : 2 2 2 0
MACRO       4   2  -1  -1   0 : 2 2 2 1
MACRO       4   3  -1  -1   0 : 1 1 1 2

# DPCM samples
DPCMDEF   0    33 "TriDownSlow.dmc"
DPCM : DA DA DA DA DA DA DA DA DA DA DA DA DA DA DA DA DA DA DA DA DA DA DA DA DA DA DA DA DA DA DA DA
DPCM : FF
DPCMDEF   1    33 "TriUpSlow.dmc"
DPCM : 8A 8A 8A 8A 8A 8A 8A 8A 8A 8A 8A 8A 8A 8A 8A 8A 8A 8A 8A 8A 8A 8A 8A 8A 8A 8A 8A 8A 8A 8A 8A 8A
DPCM : 00

# Instruments
INST2A03   0    -1  -1  -1  -1  -1 "Blank"
KEYDPCM   0   3   0     1  15   0     0  -1
KEYDPCM   0   3   2     0  15   0     0  -1
INST2A03   1     0  -1  -1  -1  -1 "Wispy Lead"
INST2A03   2     1  -1  -1  -1  -1 "Closed Hat"
INST2A03   3     2  -1  -1  -1  -1 "Ride"
INST2A03   4     3  -1  -1  -1  -1 "Accented"
INST2A03   5     4  -1  -1  -1  -1 "Lead"
INST2A03   6    -1   0  -1  -1  -1 "Maj7"
INST2A03   7    -1   1  -1  -1   1 "Chime"
INST2A03   8    -1   2  -1  -1  -1 "Min7"
INST2A03   9    -1   3  -1  -1  -1 "7th"
INST2A03  10     5  -1  -1  -1  -1 "Piano"
INST2A03  11     0  -1  -1  -1   0 "Wispy v00"
INST2A03  12     0  -1  -1  -1   2 "Wispy v01"
INST2A03  13     6  -1  -1  -1  -1 "Fade In"

# Tracks

TRACK  96   5 150 "New song"
COLUMNS : 2 2 1 1 1 2 2

ORDER 00 : 00 00 00 00 00 00 00
ORDER 01 : 01 01 01 01 01 01 01
ORDER 02 : 02 02 02 02 02 02 02
ORDER 03 : 03 03 03 03 03 03 03
ORDER 04 : 04 04 04 04 04 04 04
ORDER 05 : 05 05 05 05 05 05 05
ORDER 06 : 06 06 06 06 06 06 06
ORDER 07 : 07 07 07 07 07 07 07
ORDER 08 : 08 08 08 08 08 08 08
ORDER 09 : 09 09 09 09 09 09 09
ORDER 0A : 0A 0A 0A 0A 0A 0A 0A
ORDER 0B : 0B 0B 0B 0B 0B 0B 0B
ORDER 0C : 0C 0C 0C 0C 0C 0C 0C
ORDER 0D : 0D 0D 0D 0D 0D 0D 0D
ORDER 0E : 0E 0E 0E 0E 0E 0E 0E
ORDER 0F : 0F 0F 0F 0F 0F 0F 0F
ORDER 10 : 10 10 10 10 10 10 10

PATTERN 00
ROW 00 : E-3 00 1 V01 ... : B-2 00 1 V01 ... : C-2 00 . ... : --- .. . ... : D-3 00 . F06 : --- .. . ... ... : B-3 00 1 P7C V02
ROW 01 : ... .. . ... ... : ... .. . ... ... : ... .. . ... : ... .. . ... : ... .. . F05 : ... .. . ... ... : ... .. . P7D 400
ROW 02 : ... .. . ... ... : ... .. . ... ... : ... .. . ... : ... .. . ... : ... .. . F06 : ... .. . ... ... : ... .. . P7E ...
ROW 03 : ... .. . ... ... : ... .. . ... ... : ... .. . ... : ... .. . ... : ... .. . F05 : B-3 00 1 P7B V02 : ... .. . P7F ...
ROW 04 : ... .. . ... ... : ... .. . ... ... : ... .. . ... : ... .. . ... : ... .. . F06 : ... .. . P7C 400 : ... .. . P80 ...
ROW 05 : ... .. . ... ... : ... .. . ... ... : ... .. . ... : ... .. . ... : ... .. . F05 : ... .. . P7D ... : ... .. . ... ...
ROW 06 : ... .. . ... ... : ... .. . ... ... : ... .. . ... : ... .. . ... : ... .. . F06 : ... .. . P7E ... : ... .. . ... ...
ROW 07 : ... .. . ... ... : ... .. . ... ... : ... .. . ... : ... .. . ... : ... .. . F05 : ... .. . P7F ... : ... .. . ... ...
ROW 08 : ... .. . ... ... : ... .. . ... ... : ... .. . ... : ... .. . ... : ... .. . F06 : ... .. . ... ... : A-3 00 . 300 ...
ROW 09 : ... .. . ... ... : ... .. . ... ... : ... .. . ... : ... .. . ... : ... .. . F05 : ... .. . ... ... : ... .. . ... ...
ROW 0A : ... .. . ... ... : ... .. . ... ... : ... .. . ... : ... .. . ... : ... .. . F06 : ... .. . ... ... : ... .. . ... ...
ROW 0B : ... .. . ... ... : ... .. . ... ... : ... .. . ... : ... .. . ... : ... .. . F05 : A-3 00 . 300 ... : ... .. . ... ...
ROW 0C : ... .. . ... ... : ... .. . ... ... : ... .. . ... : ... .. . ... : ... .. . F06 : ... .. . ... ... : G-3 00 . ... ...
ROW 0D : ... .. . ... ... : ... .. . ... ... : ... .. . ... : ... .. . ... : ... .. . F05 : ... .. . ... ... : ... .. . ... ...
ROW 0E : ... .. . ... ... : ... .. . ... ... : ... .. . ... : ... .. . ... : ... .. . F06 : ... .. . ... ... : ... .. . ... ...
ROW 0F : ... .. . ... ... : ... .. . ... ... : ... .. . ... : ... .. . ... : ... .. . F05 : G-3 00 . ... ... : ... .. . ... ...
ROW 10 : ... .. . ... ... : ... .. . ... ... : ... .. . ... : ... .. . ... : ... .. . F06 : ... .. . ... ... : ... .. . ... ...
ROW 11 : ... .. . ... ... : ... .. . ... ... : ... .. . ... : ... .. . ... : ... .. . F05 : ... .. . ... ... : ... .. . ... ...
ROW 12 : ... .. . ... ... : ... .. . ... ... : ... .. . ... : ... .. . ... : ... .. . F06 : ... .. . ... ... : ... .. . ... ...
ROW 13 : ... .. . ... ... : ... .. . ... ... : ... .. . ... : ... .. . ... : ... .. . F05 : ... .. . ... ... : ... .. . ... ...
ROW 14 : ... .. . ... ... : ... .. . ... ... : ... .. . ... : ... .. . ... : ... .. . F06 : ... .. . ... ... : E-3 00 . ... ...
ROW 15 : ... .. . ... ... : ... .. . ... ... : ... .. . ... : ... .. . ... : ... .. . F05 : ... .. . ... ... : ... .. . ... ...
ROW 16 : ... .. . ... ... : ... .. . ... ... : ... .. . ... : ... .. . ... : ... .. . F06 : ... .. . ... ... : ... .. . ... ...
ROW 17 : ... .. . ... ... : ... .. . ... ... : ... .. . ... : ... .. . ... : ... .. . F05 : E-3 00 . ... ... : ... .. . ... ...
ROW 18 : ... .. . ... ... : ... .. . ... ... : ... .. . ... : ... .. . ... : ... .. . F06 : ... .. . ... ... : ... .. . 411 ...
ROW 19 : ... .. . ... ... : ... .. . ... ... : ... .. . ... : ... .. . ... : ... .. . F05 : ... .. . ... ... : ... .. . 421 ...
ROW 1A : ... .. . ... ... : ... .. . ... ... : ... .. . ... : ... .. . ... : ... .. . F06 : ... .. . ... ... : ... .. . 432 ...
ROW 1B : ... .. . ... ... : ... .. . ... ... : ... .. . ... : ... .. . ... : ... .. . F05 : ... .. . 411 ... : ... .. . 442 ...
ROW 1C : ... .. . ... ... : ... .. . ... ... : ... .. . ... : ... .. . ... : ... .. . F06 : ... .. . 421 ... : ... .. . 453 ...
ROW 1D : ... .. . ... ... : ... .. . ... ... : ... .. . ... : ... .. . ... : ... .. . F05 : ... .. . 432 ... : ... .. . ... ...
ROW 1E : ... .. . ... ... : ... .. . ... ... : ... .. . ... : ... .. . ... : ... .. . F06 : ... .. . 442 ... : ... .. . ... ...
ROW 1F : ... .. . ... ... : ... .. . ... ... : ... .. . ... : ... .. . ... : ... .. . F05 : ... .. . 453 ... : ... .. . ... ...
ROW 20 : ... .. . ... ... : ... .. . ... ... : ... .. . ... : ... .. . ... : ... .. . F06 : ... .. . ... ... : ... .. . ... ...
ROW 21 : ... .. . ... ... : ... .. . ... ... : ... .. . ... : ... .. . ... : ... .. . F05 : ... .. . ... ... : ... .. . ... ...
ROW 22 : ... .. . ... ... : ... .. . ... ... : ... .. . ... : ... .. . ... : ... .. . F06 : ... .. . ... ... : ... .. . ... ...
ROW 23 : ... .. . ... ... : ... .. . ... ... : ... .. . ... : ... .. . ... : ... .. . F05 : ... .. . ... ... : ... .. . ... ...
ROW 24 : ... .. . ... ... : ... .. . ... ... : D#2 00 . 301 : ... .. . ... : ... .. . F07 : ... .. . ... ... : B-3 00 . 400 ...
ROW 25 : ... .. . ... ... : ... .. . ... ... : ... .. . ... : ... .. . ... : ... .. . F06 : ... .. . ... ... : ... .. . ... ...
ROW 26 : ... .. . ... ... : ... .. . ... ... : ... .. . ... : ... .. . ... : ... .. . F07 : ... .. . ... ... : ... .. . ... ...
ROW 27 : ... .. . ... ... : ... .. . ... ... : ... .. . ... : ... .. . ... : ... .. . F06 : B-3 00 . 400 ... : ... .. . ... ...
ROW 28 : ... .. . ... ... : ... .. . ... ... : ... .. . 302 : ... .. . ... : ... .. . F07 : ... .. . ... ... : ... .. . ... ...
ROW 29 : ... .. . ... ... : ... .. . ... ... : ... .. . ... : ... .. . ... : ... .. . F06 : ... .. . ... ... : ... .. . ... ...
ROW 2A : ... .. . ... ... : ... .. . ... ... : ... .. . ... : ... .. . ... : ... .. . F06 : ... .. . ... ... : ... .. . ... ...
ROW 2B : ... .. . ... ... : ... .. . ... ... : ... .. . ... : ... .. . ... : ... .. . F05 : ... .. . ... ... : ... .. . ... ...
ROW 2C : ... .. . ... ... : ... .. . ... ... : ... .. . 303 : ... .. . ... : ... .. . F06 : ... .. . ... ... : A-3 00 . ... ...
ROW 2D : ... .. . ... ... : ... .. . ... ... : ... .. . ... : ... .. . ... : ... .. . F06 : ... .. . ... ... : ... .. . ... ...
ROW 2E : ... .. . ... ... : ... .. . ... ... : ... .. . ... : ... .. . ... : ... .. . F07 : ... .. . ... ... : ... .. . ... ...
ROW 2F : ... .. . ... ... : ... .. . ... ... : ... .. . ... : ... .. . ... : ... .. . F06 : A-3 00 . ... ... : ... .. . ... ...
ROW 30 : C#2 00 1 ... ... : A#2 00 1 ... ... : ... .. . 304 : ... .. . ... : ... .. . F06 : ... .. . ... ... : A#3 00 2 P7C ...
ROW 31 : ... .. . ... ... : ... .. . ... ... : ... .. . ... : ... .. . ... : ... .. . F05 : ... .. . ... ... : ... .. . P7D ...
ROW 32 : ... .. . ... ... : ... .. . ... ... : ... .. . ... : ... .. . ... : ... .. . F06 : ... .. . ... ... : ... .. . P7E ...
ROW 33 : ... .. . ... ... : ... .. . ... ... : ... .. . ... : ... .. . ... : ... .. . F05 : A#3 00 1 P7B ... : ... .. . P7F ...
ROW 34 : ... .. . ... ... : ... .. . ... ... : ... .. . ... : ... .. . ... : ... .. . F06 : ... .. . P7C ... : ... .. . P80 ...
ROW 35 : ... .. . ... ... : ... .. . ... ... : ... .. . ... : ... .. . ... : ... .. . F05 : ... .. . P7D ... : ... .. . ... ...
ROW 36 : ... .. . ... ... : ... .. . ... ... : ... .. . ... : ... .. . ... : ... .. . F06 : ... .. . P7E ... : ... .. . ... ...
ROW 37 : ... .. . ... ... : ... .. . ... ... : ... .. . ... : ... .. . ... : ... .. . F05 : ... .. . P7F ... : ... .. . ... ...
ROW 38 : ... .. . ... ... : ... .. . ... ... : ... .. . ... : ... .. . ... : ... .. . F06 : ... .. . ... ... : G#3 00 . 300 ...
ROW 39 : ... .. . ... ... : ... .. . ... ... : ... .. . ... : ... .. . ... : ... .. . F05 : ... .. . ... ... : ... .. . ... ...
ROW 3A : ... .. . ... ... : ... .. . ... ... : ... .. . ... : ... .. . ... : ... .. . F06 : ... .. . ... ... : ... .. . ... ...
ROW 3B : ... .. . ... ... : ... .. . ... ... : ... .. . ... : ... .. . ... : ... .. . F05 : G#3 00 . 300 ... : ... .. . ... ...
ROW 3C : ... .. . ... ... : ... .. . ... ... : ... .. . ... : ... .. . ... : ... .. . F06 : ... .. . ... ... : F#3 00 . ... ...
ROW 3D : ... .. . ... ... : ... .. . ... ... : ... .. . ... : ... .. . ... : ... .. . F05 : ... .. . ... ... : ... .. . ... ...
ROW 3E : ... .. . ... ... : ... .. . ... ... : ... .. . ... : ... .. . ... : ... .. . F06 : ... .. . ... ... : ... .. . ... ...
ROW 3F : ... .. . ... ... : ... .. . ... ... : ... .. . ... : ... .. . ... : ... .. . F05 : F#3 00 . ... ... : ... .. . ... ...
ROW 40 : ... .. . ... ... : ... .. . ... ... : ... .. . ... : ... .. . ... : ... .. . F06 : ... .. . ... ... : ... .. . ... ...
ROW 41 : ... .. . ... ... : ... .. . ... ... : ... .. . ... : ... .. . ... : ... .. . F05 : ... .. . ... ... : ... .. . ... ...
ROW 42 : ... .. . ... ... : ... .. . ... ... : ... .. . ... : ... .. . ... : ... .. . F06 : ... .. . ... ... : ... .. . ... ...
ROW 43 : ... .. . ... ... : ... .. . ... ... : ... .. . ... : ... .. . ... : ... .. . F05 : ... .. . ... ... : ... .. . ... ...
ROW 44 : ... .. . ... ... : ... .. . ... ... : ... .. . ... : ... .. . ... : ... .. . F06 : ... .. . ... ... : D#3 00 . ... ...
ROW 45 : ... .. . ... ... : ... .. . ... ... : ... .. . ... : ... .. . ... : ... .. . F05 : ... .. . ... ... : ... .. . ... ...
ROW 46 : ... .. . ... ... : ... .. . ... ... : ... .. . ... : ... .. . ... : ... .. . F06 : ... .. . ... ... : ... .. . ... ...
ROW 47 : ... .. . ... ... : ... .. . ... ... : ... .. . ... : ... .. . ... : ... .. . F05 : D#3 00 . ... ... : ... .. . ... ...
ROW 48 : ... .. . ... ... : ... .. . ... ... : ... .. . ... : ... .. . ... : ... .. . F06 : ... .. . ... ... : ... .. . ... ...
ROW 49 : ... .. . ... ... : ... .. . ... ... : ... .. . ... : ... .. . ... : ... .. . F05 : ... .. . ... ... : ... .. . ... ...
ROW 4A : ... .. . ... ... : ... .. . ... ... : ... .. . ... : ... .. . ... : ... .. . F06 : ... .. . ... ... : ... .. . ... ...
ROW 4B : ... .. . ... ... : ... .. . ... ... : ... .. . ... : ... .. . ... : ... .. . F05 : ... .. . ... ... : ... .. . ... ...
ROW 4C : ... .. . ... ... : ... .. . ... ... : ... .. . ... : ... .. . ... : ... .. . F06 : ... .. . ... ... : ... .. . 411 ...
ROW 4D : ... .. . ... ... : ... .. . ... ... : ... .. . ... : ... .. . ... : ... .. . F05 : ... .. . ... ... : ... .. . 421 ...
ROW 4E : ... .. . ... ... : ... .. . ... ... : ... .. . ... : ... .. . ... : ... .. . F06 : ... .. . ... ... : ... .. . 432 ...
ROW 4F : ... .. . ... ... : ... .. . ... ... : ... .. . ... : ... .. . ... : ... .. . F05 : ... .. . 411 ... : ... .. . 442 ...
ROW 50 : ... .. . ... ... : ... .. . ... ... : ... .. . ... : ... .. . ... : ... .. . F06 : ... .. . 421 ... : ... .. . 453 ...
ROW 51 : ... .. . ... ... : ... .. . ... ... : ... .. . ... : ... .. . ... : ... .. . F05 : ... .. . 432 ... : ... .. . ... ...
ROW 52 : ... .. . ... ... : ... .. . ... ... : ... .. . ... : ... .. . ... : ... .. . F06 : ... .. . 442 ... : ... .. . ... ...
ROW 53 : ... .. . ... ... : ... .. . ... ... : ... .. . ... : ... .. . ... : ... .. . F05 : ... .. . 453 ... : ... .. . ... ...
ROW 54 : ... .. . ... ... : ... .. . ... ... : ... .. . ... : ... .. . ... : ... .. . F06 : ... .. . ... ... : ... .. . ... ...
ROW 55 : ... .. . ... ... : ... .. . ... ... : ... .. . ... : ... .. . ... : ... .. . F05 : ... .. . ... ... : ... .. . ... ...
ROW 56 : ... .. . ... ... : ... .. . ... ... : ... .. . ... : ... .. . ... : ... .. . F06 : ... .. . ... ... : ... .. . ... ...
ROW 57 : ... .. . ... ... : ... .. . ... ... : ... .. . ... : ... .. . ... : ... .. . F05 : ... .. . ... ... : ... .. . ... ...
ROW 58 : ... .. . ... ... : ... .. . ... ... : ... .. . ... : ... .. . ... : ... .. . F06 : ... .. . ... ... : ... .. . ... ...
ROW 59 : ... .. . ... ... : ... .. . ... ... : ... .. . ... : ... .. . ... : ... .. . F05 : ... .. . ... ... : ... .. . ... ...
ROW 5A : ... .. . ... ... : ... .. . ... ... : ... .. . ... : ... .. . ... : ... .. . F06 : ... .. . ... ... : ... .. . ... ...
ROW 5B : ... .. . ... ... : ... .. . ... ... : ... .. . ... : ... .. . ... : ... .. . F05 : ... .. . ... ... : ... .. . ... ...
ROW 5C : ... .. . ... ... : ... .. . ... ... : ... .. . ... : ... .. . ... : ... .. . F06 : ... .. . ... ... : ... .. . ... ...
ROW 5D : ... .. . ... ... : ... .. . ... ... : ... .. . ... : ... .. . ... : ... .. . F05 : ... .. . ... ... : ... .. . ... ...
ROW 5E : ... .. . ... ... : ... .. . ... ... : ... .. . ... : ... .. . ... : ... .. . F06 : ... .. . ... ... : ... .. . ... ...
ROW 5F : ... .. . ... ... : ... .. . ... ... : ... .. . ... : ... .. . ... : ... .. . F05 : ... .. . ... ... : ... .. . ... ...

PATTERN 01
ROW 00 : F-2 00 1 V01 ... : A-2 00 1 V01 ... : D-2 00 . 300 : ... .. . ... : ... .. . F06 : ... .. . ... ... : A-3 01 3 P7E V02
ROW 01 : ... .. . ... ... : ... .. . ... ... : ... .. . ... : ... .. . ... : ... .. . F05 : ... .. . ... ... : ... .. . ... 400
ROW 02 : ... .. . ... ... : ... .. . ... ... : ... .. . ... : ... .. . ... : ... .. . F06 : ... .. . ... ... : ... .. . P7F ...
ROW 03 : ... .. . ... ... : ... .. . ... ... : ... .. . ... : ... .. . ... : ... .. . F05 : A-3 01 1 P7D V02 : ... .. . ... ...
ROW 04 : ... .. . ... ... : ... .. . ... ... : ... .. . ... : ... .. . ... : ... .. . F06 : ... .. . ... 400 : ... .. . P80 ...
ROW 05 : ... .. . ... ... : ... .. . ... ... : ... .. . ... : ... .. . ... : ... .. . F05 : ... .. . P7E ... : ... .. . ... ...
ROW 06 : ... .. . ... ... : ... .. . ... ... : ... .. . ... : ... .. . ... : ... .. . F06 : ... .. . ... ... : ... .. . ... ...
ROW 07 : ... .. . ... ... : ... .. . ... ... : ... .. . ... : ... .. . ... : ... .. . F05 : ... .. . P7F ... : ... .. . ... ...
ROW 08 : ... .. . ... ... : ... .. . ... ... : ... .. . ... : ... .. . ... : ... .. . F06 : ... .. . ... ... : G-3 01 . 300 ...
ROW 09 : ... .. . ... ... : ... .. . ... ... : ... .. . ... : ... .. . ... : ... .. . F05 : ... .. . ... ... : ... .. . ... ...
ROW 0A : ... .. . ... ... : ... .. . ... ... : ... .. . ... : ... .. . ... : ... .. . F06 : ... .. . ... ... : ... .. . ... ...
ROW 0B : ... .. . ... ... : ... .. . ... ... : ... .. . ... : ... .. . ... : ... .. . F05 : G-3 01 . 300 ... : ... .. . ... ...
ROW 0C : ... .. . ... ... : ... .. . ... ... : ... .. . ... : ... .. . ... : ... .. . F06 : ... .. . ... ... : F-3 01 . ... ...
ROW 0D : ... .. . ... ... : ... .. . ... ... : ... .. . ... : ... .. . ... : ... .. . F05 : ... .. . ... ... : ... .. . ... ...
ROW 0E : ... .. . ... ... : ... .. . ... ... : ... .. . ... : ... .. . ... : ... .. . F06 : ... .. . ... ... : ... .. . ... ...
ROW 0F : ... .. . ... ... : ... .. . ... ... : ... .. . ... : ... .. . ... : ... .. . F05 : F-3 01 . ... ... : ... .. . ... ...
ROW 10 : ... .. . ... ... : ... .. . ... ... : ... .. . ... : ... .. . ... : ... .. . F06 : ... .. . ... ... : ... .. . ... ...
ROW 11 : ... .. . ... ... : ... .. . ... ... : ... .. . ... : ... .. . ... : ... .. . F05 : ... .. . ... ... : ... .. . ... ...
ROW 12 : ... .. . ... ... : ... .. . ... ... : ... .. . ... : ... .. . ... : ... .. . F06 : ... .. . ... ... : ... .. . ... ...
ROW 13 : ... .. . ... ... : ... .. . ... ... : ... .. . ... : ... .. . ... : ... .. . F05 : ... .. . ... ... : ... .. . ... ...
ROW 14 : ... .. . ... ... : ... .. . ... ... : ... .. . ... : ... .. . ... : ... .. . F06 : ... .. . ... ... : E-3 01 . ... ...
ROW 15 : ... .. . ... ... : ... .. . ... ... : ... .. . ... : ... .. . ... : ... .. . F05 : ... .. . ... ... : ... .. . ... ...
ROW 16 : ... .. . ... ... : ... .. . ... ... : ... .. . ... : ... .. . ... : ... .. . F06 : ... .. . ... ... : ... .. . ... ...
ROW 17 : ... .. . ... ... : ... .. . ... ... : ... .. . ... : ... .. . ... : ... .. . F05 : E-3 01 . ... ... : ... .. . ... ...
ROW 18 : D-2 00 1 ... ... : G#2 00 1 ... ... : A#1 00 . ... : ... .. . ... : ... .. . F06 : ... .. . ... ... : D-3 01 4 ... ...
ROW 19 : ... .. 2 ... ... : ... .. 2 ... ... : ... .. . ... : ... .. . ... : ... .. . F05 : ... .. . ... ... : ... .. . ... ...
ROW 1A : ... .. . ... ... : ... .. . ... ... : ... .. . ... : ... .. . ... : ... .. . F06 : ... .. . ... ... : ... .. . ... ...
ROW 1B : ... .. 3 ... ... : ... .. 3 ... ... : ... .. . ... : ... .. . ... : ... .. . F05 : D-3 01 . ... ... : ... .. . ... ...
ROW 1C : ... .. . ... ... : ... .. . ... ... : ... .. . ... : ... .. . ... : ... .. . F06 : ... .. . ... ... : ... .. . 453 ...
ROW 1D : ... .. 4 ... ... : ... .. 4 ... ... : ... .. . ... : ... .. . ... : ... .. . F05 : ... .. . ... ... : ... .. . ... ...
ROW 1E : ... .. . ... ... : ... .. . ... ... : ... .. . ... : ... .. . ... : ... .. . F06 : ... .. . ... ... : ... .. . ... ...
ROW 1F : ... .. 3 ... ... : ... .. 3 ... ... : ... .. . ... : ... .. . ... : ... .. . F05 : ... .. . 453 ... : ... .. . ... ...
ROW 20 : ... .. . ... ... : ... .. . ... ... : ... .. . ... : ... .. . ... : ... .. . F06 : ... .. . ... ... : E-3 01 . 400 ...
ROW 21 : ... .. . ... ... : ... .. . ... ... : ... .. . ... : ... .. . ... : ... .. . F05 : ... .. . ... ... : ... .. . ... ...
ROW 22 : ... .. . ... ... : ... .. . ... ... : ... .. . ... : ... .. . ... : ... .. . F06 : ... .. . ... ... : ... .. . ... ...
ROW 23 : ... .. . ... ... : ... .. . ... ... : ... .. . ... : ... .. . ... : ... .. . F05 : E-3 01 . 400 ... : ... .. . ... ...
ROW 24 : ... .. . ... ... : ... .. . ... ... : D#2 00 . 301 : ... .. . ... : ... .. . F06 : ... .. . ... ... : ... .. . ... ...
ROW 25 : ... .. . ... ... : ... .. . ... ... : ... .. . ... : ... .. . ... : ... .. . F05 : ... .. . ... ... : ... .. . ... ...
ROW 26 : ... .. . ... ... : ... .. . ... ... : ... .. . ... : ... .. . ... : ... .. . F06 : ... .. . ... ... : ... .. . ... ...
ROW 27 : ... .. . ... ... : ... .. . ... ... : ... .. . ... : ... .. . ... : ... .. . F05 : ... .. . ... ... : ... .. . ... ...
ROW 28 : ... .. 2 ... ... : ... .. 2 ... ... : ... .. . 302 : ... .. . ... : ... .. . F06 : ... .. . ... ... : F-3 01 . ... ...
ROW 29 : ... .. . ... ... : ... .. . ... ... : ... .. . ... : ... .. . ... : ... .. . F05 : ... .. . ... ... : ... .. . ... ...
ROW 2A : ... .. . ... ... : ... .. . ... ... : ... .. . ... : ... .. . ... : ... .. . F06 : ... .. . ... ... : ... .. . ... ...
ROW 2B : ... .. . ... ... : ... .. . ... ... : ... .. . ... : ... .. . ... : ... .. . F05 : F-3 01 . ... ... : ... .. . ... ...
ROW 2C : ... .. 1 ... ... : ... .. 1 ... ... : ... .. . 303 : ... .. . ... : ... .. . F06 : ... .. . ... ... : F#3 01 . ... ...
ROW 2D : ... .. . ... ... : ... .. . ... ... : ... .. . ... : ... .. . ... : ... .. . F05 : ... .. . ... ... : ... .. . ... ...
ROW 2E : ... .. . ... ... : ... .. . ... ... : ... .. . ... : ... .. . ... : ... .. . F06 : ... .. . ... ... : ... .. . ... ...
ROW 2F : ... .. . ... ... : ... .. . ... ... : ... .. . ... : ... .. . ... : ... .. . F05 : F#3 01 . ... ... : ... .. . ... ...
ROW 30 : D-3 00 1 ... ... : G-2 00 1 ... ... : ... .. . 304 : ... .. . ... : ... .. . F06 : ... .. . ... ... : G-3 01 4 301 ...
ROW 31 : ... .. 2 ... ... : ... .. 2 ... ... : ... .. . ... : ... .. . ... : ... .. . F05 : ... .. . ... ... : ... .. 5 ... ...
ROW 32 : ... .. 3 ... ... : ... .. 3 ... ... : ... .. . ... : ... .. . ... : ... .. . F06 : ... .. . ... ... : ... .. . ... ...
ROW 33 : ... .. 4 ... ... : ... .. 4 ... ... : ... .. . ... : ... .. . ... : ... .. . F05 : G-3 01 1 301 ... : ... .. . ... ...
ROW 34 : ... .. 3 ... ... : ... .. 3 ... ... : D#2 00 . 300 : ... .. . ... : ... .. . F06 : ... .. 2 ... ... : ... .. . ... ...
ROW 35 : ... .. . ... ... : ... .. . ... ... : ... .. . ... : ... .. . ... : ... .. . F05 : ... .. . ... ... : ... .. . ... ...
ROW 36 : ... .. . ... ... : ... .. . ... ... : ... .. . ... : ... .. . ... : ... .. . F06 : ... .. . ... ... : ... .. . ... ...
ROW 37 : ... .. . ... ... : ... .. . ... ... : ... .. . ... : ... .. . ... : ... .. . F05 : ... .. . ... ... : ... .. . ... ...
ROW 38 : ... .. . ... ... : ... .. . ... ... : ... .. . ... : ... .. . ... : ... .. . F06 : ... .. . ... ... : ... .. . ... ...
ROW 39 : ... .. . ... ... : ... .. . ... ... : ... .. . ... : ... .. . ... : ... .. . F05 : ... .. . ... ... : ... .. . ... ...
ROW 3A : ... .. . ... ... : ... .. . ... ... : ... .. . ... : ... .. . ... : ... .. . F06 : ... .. . ... ... : ... .. . ... ...
ROW 3B : ... .. . ... ... : ... .. . ... ... : ... .. . ... : ... .. . ... : ... .. . F05 : ... .. . ... ... : ... .. . ... ...
ROW 3C : C-3 00 2 305 ... : ... .. . ... ... : ... .. . ... : ... .. . ... : ... .. . F06 : ... .. . ... ... : ... .. 4 ... ...
ROW 3D : ... .. . ... ... : ... .. . ... ... : ... .. . ... : ... .. . ... : ... .. . F05 : ... .. . ... ... : ... .. . ... ...
ROW 3E : ... .. . ... ... : ... .. . ... ... : ... .. . ... : ... .. . ... : ... .. . F06 : ... .. . ... ... : ... .. . ... ...
ROW 3F : ... .. . ... ... : ... .. . ... ... : ... .. . ... : ... .. . ... : ... .. . F05 : ... .. . ... ... : ... .. . ... ...
ROW 40 : ... .. . ... ... : ... .. . ... ... : ... .. . ... : ... .. . ... : ... .. . F06 : ... .. . ... ... : ... .. . 411 ...
ROW 41 : ... .. . ... ... : ... .. . ... ... : ... .. . ... : ... .. . ... : ... .. . F05 : ... .. . ... ... : ... .. . 411 ...
ROW 42 : ... .. . ... ... : ... .. . ... ... : ... .. . ... : ... .. . ... : ... .. . F06 : ... .. . ... ... : ... .. . 421 ...
ROW 43 : ... .. . ... ... : ... .. . ... ... : ... .. . ... : ... .. . ... : ... .. . F05 : ... .. . 411 ... : ... .. . 422 ...
ROW 44 : ... .. . ... ... : ... .. . ... ... : ... .. . ... : ... .. . ... : ... .. . F06 : ... .. . 411 ... : ... .. . 432 ...
ROW 45 : ... .. . ... ... : ... .. . ... ... : ... .. . ... : ... .. . ... : ... .. . F05 : ... .. . 421 ... : ... .. . 432 ...
ROW 46 : ... .. . ... ... : ... .. . ... ... : ... .. . ... : ... .. . ... : ... .. . F06 : ... .. . 422 ... : ... .. . 443 ...
ROW 47 : ... .. . ... ... : ... .. . ... ... : ... .. . ... : ... .. . ... : ... .. . F05 : ... .. . 432 ... : ... .. . 443 ...
ROW 48 : D-3 00 1 ... ... : ... .. . ... ... : ... .. . ... : ... .. . ... : ... .. . F06 : ... .. . 432 ... : ... .. 3 453 ...
ROW 49 : ... .. . ... ... : ... .. . ... ... : ... .. . ... : ... .. . ... : ... .. . F05 : ... .. . 443 ... : ... .. . 300 ...
ROW 4A : ... .. . ... ... : ... .. . ... ... : ... .. . ... : ... .. . ... : ... .. . F06 : ... .. . 443 ... : ... .. . ... ...
ROW 4B : ... .. . ... ... : ... .. . ... ... : ... .. . ... : ... .. . ... : ... .. . F05 : ... .. 1 453 ... : ... .. . ... ...
ROW 4C : ... .. . ... ... : ... .. . ... ... : ... .. . ... : ... .. . ... : ... .. . F06 : ... .. . 300 ... : ... .. . ... ...
ROW 4D : ... .. . ... ... : ... .. . ... ... : ... .. . ... : ... .. . ... : ... .. . F05 : ... .. . ... ... : ... .. . ... ...
ROW 4E : ... .. . ... ... : ... .. . ... ... : ... .. . ... : ... .. . ... : ... .. . F06 : ... .. . ... ... : ... .. . ... ...
ROW 4F : ... .. . ... ... : ... .. . ... ... : ... .. . ... : ... .. . ... : ... .. . F05 : ... .. . ... ... : ... .. . ... ...
ROW 50 : ... .. . ... ... : ... .. . ... ... : ... .. . ... : ... .. . ... : ... .. . F06 : ... .. . ... ... : ... .. . ... ...
ROW 51 : ... .. . ... ... : ... .. . ... ... : ... .. . ... : ... .. . ... : ... .. . F05 : ... .. . ... ... : ... .. . ... ...
ROW 52 : ... .. . ... ... : ... .. . ... ... : ... .. . ... : ... .. . ... : ... .. . F06 : ... .. . ... ... : ... .. . ... ...
ROW 53 : ... .. . ... ... : ... .. . ... ... : ... .. . ... : ... .. . ... : ... .. . F05 : ... .. . ... ... : ... .. . ... ...
ROW 54 : C-3 00 . ... ... : ... .. . ... ... : ... .. . ... : ... .. . ... : ... .. . F06 : ... .. . ... ... : ... .. 2 ... ...
ROW 55 : ... .. . ... ... : ... .. . ... ... : ... .. . ... : ... .. . ... : ... .. . F05 : ... .. . ... ... : ... .. . ... ...
ROW 56 : ... .. . ... ... : ... .. . ... ... : ... .. . ... : ... .. . ... : ... .. . F06 : ... .. . ... ... : ... .. . ... ...
ROW 57 : ... .. . ... ... : ... .. . ... ... : ... .. . ... : ... .. . ... : ... .. . F05 : ... .. . ... ... : ... .. . ... ...
ROW 58 : ... .. . ... ... : ... .. 2 ... ... : ... .. . ... : ... .. . ... : ... .. . F06 : ... .. . ... ... : ... .. . ... ...
ROW 59 : ... .. . ... ... : ... .. . ... ... : ... .. . ... : ... .. . ... : ... .. . F05 : ... .. . ... ... : ... .. . ... ...
ROW 5A : ... .. . ... ... : ... .. . ... ... : ... .. . ... : ... .. . ... : ... .. . F06 : ... .. . ... ... : ... .. . ... ...
ROW 5B : ... .. . ... ... : ... .. . ... ... : ... .. . ... : ... .. . ... : ... .. . F05 : ... .. . ... ... : ... .. . ... ...
ROW 5C : ... .. . 300 ... : ... .. 1 ... ... : ... .. . ... : ... .. . ... : ... .. . F06 : ... .. . ... ... : ... .. 1 ... ...
ROW 5D : ... .. . ... ... : ... .. . ... ... : ... .. . ... : ... .. . ... : ... .. . F05 : ... .. . ... ... : ... .. . ... ...
ROW 5E : ... .. . ... ... : ... .. . ... ... : ... .. . ... : ... .. . ... : ... .. . F06 : ... .. . ... ... : ... .. . ... ...
ROW 5F : ... .. . ... ... : ... .. . ... ... : ... .. . ... : ... .. . ... : ... .. . F05 : ... .. . ... ... : ... .. . ... ...

PATTERN 02
ROW 00 : F#2 00 1 V01 ... : B-2 00 1 V01 ... : G#1 00 . ... : ... .. . ... : C-3 00 . F06 : ... .. . ... ... : G#3 01 4 P7E V02
ROW 01 : ... .. 2 ... ... : ... .. 2 ... ... : ... .. . ... : ... .. . ... : ... .. . F05 : ... .. . ... ... : ... .. 5 ... 400
ROW 02 : ... .. 3 ... ... : ... .. 3 ... ... : ... .. . ... : ... .. . ... : ... .. . F06 : ... .. . ... ... : ... .. 6 P7F ...
ROW 03 : ... .. 4 ... ... : ... .. 4 ... ... : ... .. . ... : ... .. . ... : ... .. . F05 : G#3 01 1 P7D V02 : ... .. . ... ...
ROW 04 : ... .. 3 ... ... : ... .. 3 ... ... : ... .. . ... : ... .. . ... : ... .. . F06 : ... .. 2 ... 400 : ... .. . P80 ...
ROW 05 : ... .. . ... ... : ... .. . ... ... : ... .. . ... : ... .. . ... : ... .. . F05 : ... .. . P7E ... : ... .. . ... ...
ROW 06 : ... .. . ... ... : ... .. . ... ... : ... .. . ... : ... .. . ... : ... .. . F06 : ... .. . ... ... : ... .. . ... ...
ROW 07 : ... .. . ... ... : ... .. . ... ... : ... .. . ... : ... .. . ... : ... .. . F05 : ... .. . P7F ... : ... .. . ... ...
ROW 08 : ... .. . ... ... : ... .. . ... ... : ... .. . ... : ... .. . ... : ... .. . F06 : ... .. . ... ... : F#3 01 . 300 ...
ROW 09 : ... .. . ... ... : ... .. . ... ... : ... .. . ... : ... .. . ... : ... .. . F05 : ... .. . ... ... : ... .. . ... ...
ROW 0A : ... .. . ... ... : ... .. . ... ... : ... .. . ... : ... .. . ... : ... .. . F06 : ... .. . ... ... : ... .. . ... ...
ROW 0B : ... .. . ... ... : ... .. . ... ... : ... .. . ... : ... .. . ... : ... .. . F05 : F#3 01 . 300 ... : ... .. . ... ...
ROW 0C : ... .. . ... ... : ... .. . ... ... : B-1 00 . ... : ... .. . ... : ... .. . F06 : ... .. . ... ... : F-3 01 . ... ...
ROW 0D : ... .. . ... ... : ... .. . ... ... : ... .. . ... : ... .. . ... : ... .. . F05 : ... .. . ... ... : ... .. . ... ...
ROW 0E : ... .. . ... ... : ... .. . ... ... : ... .. . ... : ... .. . ... : ... .. . F06 : ... .. . ... ... : ... .. . ... ...
ROW 0F : ... .. . ... ... : ... .. . ... ... : ... .. . ... : ... .. . ... : ... .. . F05 : F-3 01 . ... ... : ... .. . ... ...
ROW 10 : ... .. . ... ... : ... .. . ... ... : ... .. . ... : ... .. . ... : ... .. . F06 : ... .. . ... ... : ... .. . ... ...
ROW 11 : ... .. . ... ... : ... .. . ... ... : ... .. . ... : ... .. . ... : ... .. . F05 : ... .. . ... ... : ... .. . ... ...
ROW 12 : ... .. . ... ... : ... .. . ... ... : ... .. . ... : ... .. . ... : ... .. . F06 : ... .. . ... ... : ... .. . ... ...
ROW 13 : ... .. . ... ... : ... .. . ... ... : ... .. . ... : ... .. . ... : ... .. . F05 : ... .. . ... ... : ... .. . ... ...
ROW 14 : ... .. . ... ... : ... .. . ... ... : C-2 00 . ... : ... .. . ... : ... .. . F06 : ... .. . ... ... : D#3 01 . ... ...
ROW 15 : ... .. . ... ... : ... .. . ... ... : ... .. . ... : ... .. . ... : ... .. . F05 : ... .. . ... ... : ... .. . ... ...
ROW 16 : ... .. 2 ... ... : ... .. 2 ... ... : ... .. . ... : ... .. . ... : ... .. . F06 : ... .. . ... ... : ... .. . ... ...
ROW 17 : ... .. 1 ... ... : ... .. 1 ... ... : ... .. . ... : ... .. . ... : ... .. . F05 : D#3 01 . ... ... : ... .. . ... ...
ROW 18 : F-2 00 1 ... ... : B-2 00 1 ... ... : C#2 00 . ... : ... .. . ... : ... .. . F06 : ... .. . ... ... : ... .. . ... ...
ROW 19 : ... .. 2 ... ... : ... .. 2 ... ... : ... .. . ... : ... .. . ... : ... .. . F05 : ... .. . ... ... : ... .. . ... ...
ROW 1A : ... .. . ... ... : ... .. . ... ... : ... .. . ... : ... .. . ... : ... .. . F06 : ... .. . ... ... : ... .. . ... ...
ROW 1B : ... .. 3 ... ... : ... .. 3 ... ... : ... .. . ... : ... .. . ... : ... .. . F05 : ... .. . ... ... : ... .. . ... ...
ROW 1C : ... .. . ... ... : ... .. . ... ... : ... .. . ... : ... .. . ... : ... .. . F06 : ... .. . ... ... : ... .. . 453 ...
ROW 1D : ... .. 4 ... ... : ... .. 4 ... ... : ... .. . ... : ... .. . ... : ... .. . F05 : ... .. . ... ... : ... .. . ... ...
ROW 1E : ... .. . ... ... : ... .. . ... ... : ... .. . ... : ... .. . ... : ... .. . F06 : ... .. . ... ... : ... .. . ... ...
ROW 1F : ... .. 3 ... ... : ... .. 3 ... ... : ... .. . ... : ... .. . ... : ... .. . F05 : ... .. . 453 ... : ... .. . ... ...
ROW 20 : ... .. . ... ... : ... .. . ... ... : ... .. . ... : ... .. . ... : ... .. . F06 : ... .. . ... ... : ... .. . ... ...
ROW 21 : ... .. . ... ... : ... .. . ... ... : ... .. . ... : ... .. . ... : ... .. . F05 : ... .. . ... ... : ... .. . ... ...
ROW 22 : ... .. . ... ... : ... .. . ... ... : ... .. . ... : ... .. . ... : ... .. . F06 : ... .. . ... ... : ... .. . ... ...
ROW 23 : ... .. . ... ... : ... .. . ... ... : ... .. . ... : ... .. . ... : ... .. . F05 : ... .. . ... ... : ... .. . ... ...
ROW 24 : ... .. . ... ... : ... .. . ... ... : ... .. . ... : ... .. . ... : ... .. . F06 : ... .. . ... ... : F-3 01 . 400 ...
ROW 25 : ... .. . ... ... : ... .. . ... ... : ... .. . ... : ... .. . ... : ... .. . F05 : ... .. . ... ... : ... .. . ... ...
ROW 26 : ... .. . ... ... : ... .. . ... ... : ... .. . ... : ... .. . ... : ... .. . F06 : ... .. . ... ... : ... .. . ... ...
ROW 27 : ... .. . ... ... : ... .. . ... ... : ... .. . ... : ... .. . ... : ... .. . F05 : F-3 01 . 400 ... : ... .. . ... ...
ROW 28 : ... .. 2 ... ... : ... .. 2 ... ... : G#2 00 . ... : ... .. . ... : ... .. . F06 : ... .. . ... ... : ... .. . ... ...
ROW 29 : ... .. . ... ... : ... .. . ... ... : ... .. . ... : ... .. . ... : ... .. . F05 : ... .. . ... ... : ... .. . ... ...
ROW 2A : ... .. . ... ... : ... .. . ... ... : ... .. . ... : ... .. . ... : ... .. . F06 : ... .. . ... ... : ... .. . ... ...
ROW 2B : ... .. . ... ... : ... .. . ... ... : ... .. . ... : ... .. . ... : ... .. . F05 : ... .. . ... ... : ... .. . ... ...
ROW 2C : ... .. 1 ... ... : ... .. 1 ... ... : G-2 00 . ... : ... .. . ... : ... .. . F06 : ... .. . ... ... : F#3 01 . ... ...
ROW 2D : ... .. . ... ... : ... .. . ... ... : ... .. . ... : ... .. . ... : ... .. . F05 : ... .. . ... ... : ... .. . ... ...
ROW 2E : ... .. . ... ... : ... .. . ... ... : ... .. . ... : ... .. . ... : ... .. . F06 : ... .. . ... ... : ... .. . ... ...
ROW 2F : ... .. . ... ... : ... .. . ... ... : ... .. . ... : ... .. . ... : ... .. . F05 : F#3 01 . ... ... : ... .. . ... ...
ROW 30 : F-2 00 1 ... ... : A#2 00 1 ... ... : F#2 00 . ... : ... .. . ... : ... .. . F06 : ... .. . ... ... : G#3 01 . 301 ...
ROW 31 : ... .. 2 ... ... : ... .. 2 ... ... : ... .. . ... : ... .. . ... : ... .. . F05 : ... .. . ... ... : ... .. . ... ...
ROW 32 : ... .. 3 ... ... : ... .. 3 ... ... : ... .. . ... : ... .. . ... : ... .. . F06 : ... .. . ... ... : ... .. . ... ...
ROW 33 : ... .. 4 ... ... : ... .. 4 ... ... : ... .. . ... : ... .. . ... : ... .. . F05 : G#3 01 . 301 ... : ... .. . ... ...
ROW 34 : ... .. 3 ... ... : ... .. 3 ... ... : ... .. . ... : ... .. . ... : ... .. . F06 : ... .. . ... ... : ... .. . ... ...
ROW 35 : ... .. . ... ... : ... .. . ... ... : ... .. . ... : ... .. . ... : ... .. . F05 : ... .. . ... ... : ... .. . ... ...
ROW 36 : ... .. . ... ... : ... .. . ... ... : ... .. . ... : ... .. . ... : ... .. . F06 : ... .. . ... ... : ... .. . ... ...
ROW 37 : ... .. . ... ... : ... .. . ... ... : ... .. . ... : ... .. . ... : ... .. . F05 : ... .. . ... ... : ... .. . ... ...
ROW 38 : ... .. . ... ... : ... .. . ... ... : ... .. . ... : ... .. . ... : ... .. . F06 : ... .. . ... ... : F#3 01 . 300 ...
ROW 39 : ... .. . ... ... : ... .. . ... ... : ... .. . ... : ... .. . ... : ... .. . F05 : ... .. . ... ... : ... .. . ... ...
ROW 3A : ... .. . ... ... : ... .. . ... ... : ... .. . ... : ... .. . ... : ... .. . F06 : ... .. . ... ... : ... .. . ... ...
ROW 3B : ... .. . ... ... : ... .. . ... ... : ... .. . ... : ... .. . ... : ... .. . F05 : F#3 01 . 300 ... : ... .. . ... ...
ROW 3C : ... .. . ... ... : ... .. . ... ... : ... .. . ... : ... .. . ... : ... .. . F06 : ... .. . ... ... : F-3 01 . ... ...
ROW 3D : ... .. . ... ... : ... .. . ... ... : ... .. . ... : ... .. . ... : ... .. . F05 : ... .. . ... ... : ... .. . ... ...
ROW 3E : ... .. . ... ... : ... .. . ... ... : ... .. . ... : ... .. . ... : ... .. . F06 : ... .. . ... ... : ... .. . ... ...
ROW 3F : ... .. . ... ... : ... .. . ... ... : ... .. . ... : ... .. . ... : ... .. . F05 : F-3 01 . ... ... : ... .. . ... ...
ROW 40 : ... .. . ... ... : ... .. . ... ... : ... .. . ... : ... .. . ... : ... .. . F06 : ... .. . ... ... : ... .. . ... ...
ROW 41 : ... .. . ... ... : ... .. . ... ... : ... .. . ... : ... .. . ... : ... .. . F05 : ... .. . ... ... : ... .. . ... ...
ROW 42 : ... .. . ... ... : ... .. . ... ... : ... .. . ... : ... .. . ... : ... .. . F06 : ... .. . ... ... : ... .. . ... ...
ROW 43 : ... .. . ... ... : ... .. . ... ... : ... .. . ... : ... .. . ... : ... .. . F05 : ... .. . ... ... : ... .. . ... ...
ROW 44 : ... .. . ... ... : ... .. . ... ... : ... .. . ... : ... .. . ... : ... .. . F06 : ... .. . ... ... : D#3 01 . ... ...
ROW 45 : ... .. . ... ... : ... .. . ... ... : ... .. . ... : ... .. . ... : ... .. . F05 : ... .. . ... ... : ... .. . ... ...
ROW 46 : ... .. . ... ... : ... .. . ... ... : ... .. . ... : ... .. . ... : ... .. . F06 : ... .. . ... ... : ... .. . ... ...
ROW 47 : ... .. . ... ... : ... .. . ... ... : ... .. . ... : ... .. . ... : ... .. . F05 : D#3 01 . ... ... : ... .. . ... ...
ROW 48 : A-2 00 1 ... ... : B-2 00 1 ... ... : F-2 00 . ... : ... .. . ... : ... .. . F06 : ... .. . ... ... : C#3 01 . ... ...
ROW 49 : ... .. 2 ... ... : ... .. 2 ... ... : ... .. . ... : ... .. . ... : ... .. . F05 : ... .. . ... ... : ... .. . ... ...
ROW 4A : ... .. 3 ... ... : ... .. 3 ... ... : ... .. . ... : ... .. . ... : ... .. . F06 : ... .. . ... ... : ... .. . ... ...
ROW 4B : ... .. 4 ... ... : ... .. 2 ... ... : ... .. . ... : ... .. . ... : ... .. . F05 : C#3 01 . ... ... : ... .. . ... ...
ROW 4C : ... .. 3 ... ... : ... .. . ... ... : ... .. . ... : ... .. . ... : ... .. . F06 : ... .. . ... ... : ... .. . 411 ...
ROW 4D : ... .. . ... ... : ... .. . ... ... : ... .. . ... : ... .. . ... : ... .. . F05 : ... .. . ... ... : ... .. . 411 ...
ROW 4E : ... .. . ... ... : ... .. . ... ... : ... .. . ... : ... .. . ... : ... .. . F06 : ... .. . ... ... : ... .. . 422 ...
ROW 4F : ... .. . ... ... : ... .. . ... ... : ... .. . ... : ... .. . ... : ... .. . F05 : ... .. . 411 ... : ... .. . 422 ...
ROW 50 : ... .. . ... ... : ... .. . ... ... : ... .. . ... : ... .. . ... : ... .. . F06 : ... .. . 411 ... : ... .. . 433 ...
ROW 51 : ... .. . ... ... : ... .. . ... ... : ... .. . ... : ... .. . ... : ... .. . F05 : ... .. . 422 ... : ... .. . 443 ...
ROW 52 : ... .. . ... ... : ... .. . ... ... : ... .. . ... : ... .. . ... : ... .. . F06 : ... .. . 422 ... : ... .. . 453 ...
ROW 53 : ... .. . ... ... : ... .. . ... ... : ... .. . ... : ... .. . ... : ... .. . F05 : ... .. . 433 ... : ... .. . ... ...
ROW 54 : ... .. . ... ... : D#3 00 1 ... ... : ... .. . ... : ... .. . ... : ... .. . F06 : ... .. . 443 ... : ... .. . ... ...
ROW 55 : ... .. . ... ... : ... .. 2 ... ... : ... .. . ... : ... .. . ... : ... .. . F05 : ... .. . 453 ... : ... .. . ... ...
ROW 56 : ... .. . ... ... : ... .. 3 ... ... : ... .. . ... : ... .. . ... : ... .. . F06 : ... .. . ... ... : ... .. . ... ...
ROW 57 : ... .. . ... ... : ... .. . ... ... : ... .. . ... : ... .. . ... : ... .. . F05 : ... .. . ... ... : ... .. . ... ...
ROW 58 : ... .. 2 ... ... : ... .. 2 ... ... : ... .. . ... : ... .. . ... : ... .. . F06 : ... .. . ... ... : ... .. . ... ...
ROW 59 : ... .. . ... ... : ... .. . ... ... : ... .. . ... : ... .. . ... : ... .. . F05 : ... .. . ... ... : ... .. . ... ...
ROW 5A : ... .. . ... ... : ... .. . ... ... : ... .. . ... : ... .. . ... : ... .. . F06 : ... .. . ... ... : ... .. . ... ...
ROW 5B : ... .. . ... ... : ... .. . ... ... : ... .. . ... : ... .. . ... : ... .. . F05 : ... .. . ... ... : ... .. . ... ...
ROW 5C : ... .. 1 ... ... : ... .. 1 ... ... : E-2 00 . ... : ... .. . ... : ... .. . F06 : ... .. . ... ... : F-3 01 . 400 ...
ROW 5D : ... .. . ... ... : ... .. . ... ... : ... .. . ... : ... .. . ... : ... .. . F05 : ... .. . ... ... : ... .. . ... ...
ROW 5E : ... .. . ... ... : ... .. . ... ... : ... .. . ... : ... .. . ... : ... .. . F06 : ... .. . ... ... : ... .. . ... ...
ROW 5F : ... .. . ... ... : ... .. . ... ... : ... .. . ... : ... .. . ... : ... .. . F05 : F-3 01 . 400 ... : ... .. . ... ...

PATTERN 03
ROW 00 : F#2 00 1 V01 ... : C#3 00 1 V01 ... : D#2 00 . ... : ... .. . ... : ... .. . F06 : ... .. . ... ... : G#3 01 4 P7E V02
ROW 01 : ... .. 2 ... ... : ... .. 2 ... ... : ... .. . ... : ... .. . ... : ... .. . F05 : ... .. . ... ... : ... .. 5 ... 400
ROW 02 : ... .. 3 ... ... : ... .. 3 ... ... : ... .. . ... : ... .. . ... : ... .. . F06 : ... .. . ... ... : ... .. 6 P7F ...
ROW 03 : ... .. 4 ... ... : ... .. 4 ... ... : ... .. . ... : ... .. . ... : ... .. . F05 : G#3 01 1 P7D V02 : ... .. . ... ...
ROW 04 : ... .. 3 ... ... : ... .. 3 ... ... : ... .. . ... : ... .. . ... : ... .. . F06 : ... .. 2 ... 400 : ... .. . P80 ...
ROW 05 : ... .. . ... ... : ... .. . ... ... : ... .. . ... : ... .. . ... : ... .. . F05 : ... .. . P7E ... : ... .. . ... ...
ROW 06 : ... .. . ... ... : ... .. . ... ... : ... .. . ... : ... .. . ... : ... .. . F06 : ... .. . ... ... : ... .. . ... ...
ROW 07 : ... .. . ... ... : ... .. . ... ... : ... .. . ... : ... .. . ... : ... .. . F05 : ... .. . P7F ... : ... .. . ... ...
ROW 08 : ... .. . ... ... : ... .. . ... ... : ... .. . ... : ... .. . ... : ... .. . F06 : ... .. . ... ... : G-3 01 . 300 ...
ROW 09 : ... .. . ... ... : ... .. . ... ... : ... .. . ... : ... .. . ... : ... .. . F05 : ... .. . ... ... : ... .. . ... ...
ROW 0A : ... .. . ... ... : ... .. . ... ... : ... .. . ... : ... .. . ... : ... .. . F06 : ... .. . ... ... : ... .. . ... ...
ROW 0B : ... .. . ... ... : ... .. . ... ... : ... .. . ... : ... .. . ... : ... .. . F05 : G-3 01 . 300 ... : ... .. . ... ...
ROW 0C : ... .. . ... ... : ... .. . ... ... : ... .. . ... : ... .. . ... : ... .. . F06 : ... .. . ... ... : F#3 01 . ... ...
ROW 0D : ... .. . ... ... : ... .. . ... ... : ... .. . ... : ... .. . ... : ... .. . F05 : ... .. . ... ... : ... .. . ... ...
ROW 0E : ... .. . ... ... : ... .. . ... ... : ... .. . ... : ... .. . ... : ... .. . F06 : ... .. . ... ... : ... .. . ... ...
ROW 0F : ... .. . ... ... : ... .. . ... ... : ... .. . ... : ... .. . ... : ... .. . F05 : F#3 01 . ... ... : ... .. . ... ...
ROW 10 : ... .. . ... ... : ... .. . ... ... : A#1 00 . ... : ... .. . ... : ... .. . F06 : ... .. . ... ... : ... .. . ... ...
ROW 11 : ... .. . ... ... : ... .. . ... ... : ... .. . ... : ... .. . ... : ... .. . F05 : ... .. . ... ... : ... .. . ... ...
ROW 12 : ... .. . ... ... : ... .. . ... ... : ... .. . ... : ... .. . ... : ... .. . F06 : ... .. . ... ... : ... .. . ... ...
ROW 13 : ... .. . ... ... : ... .. . ... ... : ... .. . ... : ... .. . ... : ... .. . F05 : ... .. . ... ... : ... .. . ... ...
ROW 14 : ... .. . ... ... : ... .. . ... ... : A-1 00 . ... : ... .. . ... : ... .. . F06 : ... .. . ... ... : G#3 01 . ... ...
ROW 15 : ... .. . ... ... : ... .. . ... ... : ... .. . ... : ... .. . ... : ... .. . F05 : ... .. . ... ... : ... .. . ... ...
ROW 16 : ... .. 2 ... ... : ... .. 2 ... ... : ... .. . ... : ... .. . ... : ... .. . F06 : ... .. . ... ... : ... .. . ... ...
ROW 17 : ... .. 1 ... ... : ... .. 1 ... ... : ... .. . ... : ... .. . ... : ... .. . F05 : G#3 01 . ... ... : ... .. . ... ...
ROW 18 : F#2 00 1 ... ... : C-3 00 1 ... ... : G#1 00 . ... : ... .. . ... : ... .. . F06 : ... .. . ... ... : F-3 01 . ... ...
ROW 19 : ... .. 2 ... ... : ... .. 2 ... ... : ... .. . ... : ... .. . ... : ... .. . F05 : ... .. . ... ... : ... .. . ... ...
ROW 1A : ... .. . ... ... : ... .. . ... ... : ... .. . ... : ... .. . ... : ... .. . F06 : ... .. . ... ... : ... .. . ... ...
ROW 1B : ... .. 3 ... ... : ... .. 3 ... ... : ... .. . ... : ... .. . ... : ... .. . F05 : F-3 01 . ... ... : ... .. . ... ...
ROW 1C : ... .. . ... ... : ... .. . ... ... : ... .. . ... : ... .. . ... : ... .. . F06 : ... .. . ... ... : ... .. . 453 ...
ROW 1D : ... .. 4 ... ... : ... .. 4 ... ... : ... .. . ... : ... .. . ... : ... .. . F05 : ... .. . ... ... : ... .. . ... ...
ROW 1E : ... .. . ... ... : ... .. . ... ... : ... .. . ... : ... .. . ... : ... .. . F06 : ... .. . ... ... : ... .. . ... ...
ROW 1F : ... .. 3 ... ... : ... .. 3 ... ... : ... .. . ... : ... .. . ... : ... .. . F05 : ... .. . 453 ... : ... .. . ... ...
ROW 20 : F-2 00 . ... ... : B-2 00 . ... ... : G-1 00 . ... : ... .. . ... : ... .. . F06 : ... .. . ... ... : E-3 01 . 400 ...
ROW 21 : ... .. . ... ... : ... .. . ... ... : ... .. . ... : ... .. . ... : ... .. . F05 : ... .. . ... ... : ... .. . ... ...
ROW 22 : ... .. . ... ... : ... .. . ... ... : ... .. . ... : ... .. . ... : ... .. . F06 : ... .. . ... ... : ... .. . ... ...
ROW 23 : ... .. . ... ... : ... .. . ... ... : ... .. . ... : ... .. . ... : ... .. . F05 : E-3 01 . 400 ... : ... .. . ... ...
ROW 24 : ... .. . ... ... : ... .. . ... ... : ... .. . ... : ... .. . ... : ... .. . F07 : ... .. . ... ... : ... .. . ... ...
ROW 25 : ... .. . ... ... : ... .. . ... ... : ... .. . ... : ... .. . ... : ... .. . F06 : ... .. . ... ... : ... .. . ... ...
ROW 26 : ... .. . ... ... : ... .. . ... ... : ... .. . ... : ... .. . ... : ... .. . F07 : ... .. . ... ... : ... .. . ... ...
ROW 27 : ... .. . ... ... : ... .. . ... ... : ... .. . ... : ... .. . ... : ... .. . F06 : ... .. . ... ... : ... .. . ... ...
ROW 28 : ... .. 2 ... ... : ... .. 2 ... ... : ... .. . ... : ... .. . ... : ... .. . F07 : ... .. . ... ... : ... .. 5 201 ...
ROW 29 : ... .. . ... ... : ... .. . ... ... : ... .. . ... : ... .. . ... : ... .. . F06 : ... .. . ... ... : ... .. . 200 ...
ROW 2A : ... .. . ... ... : ... .. . ... ... : ... .. . ... : ... .. . ... : ... .. . F06 : ... .. . ... ... : ... .. 4 201 ...
ROW 2B : ... .. . ... ... : ... .. . ... ... : ... .. . ... : ... .. . ... : ... .. . F05 : ... .. 1 201 ... : ... .. . 200 ...
ROW 2C : ... .. 1 ... ... : ... .. 1 ... ... : ... .. . ... : ... .. . ... : ... .. . F06 : ... .. . 200 ... : ... .. 3 201 ...
ROW 2D : ... .. . ... ... : ... .. . ... ... : ... .. . ... : ... .. . ... : ... .. . F05 : ... .. . 201 ... : ... .. . 200 ...
ROW 2E : ... .. . ... ... : ... .. . ... ... : ... .. . ... : ... .. . ... : ... .. . F06 : ... .. . 200 ... : ... .. 2 201 ...
ROW 2F : ... .. . ... ... : ... .. . ... ... : ... .. . ... : ... .. . ... : ... .. . F05 : ... .. . 201 ... : ... .. 1 200 ...
ROW 30 : F-2 00 1 G02 ... : A#2 00 1 G04 ... : C#1 00 . ... : D-# 00 1 ... : ... .. . F06 : ... .. . 200 ... : C-3 01 6 200 ...
ROW 31 : ... .. 2 ... ... : ... .. 2 ... ... : ... .. . ... : ... .. . ... : ... .. . F05 : ... .. . 201 ... : ... .. . ... ...
ROW 32 : ... .. 3 ... ... : ... .. 3 ... ... : ... .. . ... : ... .. . ... : ... .. . F06 : ... .. . 200 ... : ... .. . ... ...
ROW 33 : ... .. 4 ... ... : ... .. 4 ... ... : ... .. . ... : ... .. 2 ... : ... .. . F05 : C-3 01 1 200 ... : ... .. . ... ...
ROW 34 : ... .. 3 ... ... : ... .. 3 ... ... : ... .. . ... : ... .. . ... : ... .. . F06 : ... .. 2 ... ... : ... .. . ... ...
ROW 35 : ... .. . ... ... : ... .. . ... ... : ... .. . ... : ... .. . ... : ... .. . F05 : ... .. . ... ... : ... .. . ... ...
ROW 36 : ... .. . ... ... : ... .. . ... ... : ... .. . ... : ... .. . ... : ... .. . F06 : ... .. . ... ... : ... .. . ... ...
ROW 37 : ... .. . ... ... : ... .. . ... ... : ... .. . ... : ... .. 3 ... : ... .. . F05 : ... .. . ... ... : ... .. . ... ...
ROW 38 : ... .. . ... ... : ... .. . ... ... : ... .. . ... : ... .. . ... : ... .. . F06 : ... .. . ... ... : ... .. . ... ...
ROW 39 : ... .. . ... ... : ... .. . ... ... : ... .. . ... : ... .. . ... : ... .. . F05 : ... .. . ... ... : ... .. . ... ...
ROW 3A : ... .. . ... ... : ... .. . ... ... : ... .. . ... : ... .. . ... : ... .. . F06 : ... .. . ... ... : ... .. . ... ...
ROW 3B : ... .. . ... ... : ... .. . ... ... : ... .. . ... : ... .. . ... : ... .. . F05 : ... .. . ... ... : ... .. . ... ...
ROW 3C : ... .. . ... ... : ... .. . ... ... : ... .. . ... : ... .. 5 ... : D-3 00 . F06 : ... .. . ... ... : ... .. 5 ... ...
ROW 3D : ... .. . ... ... : ... .. . ... ... : ... .. . ... : ... .. . ... : ... .. . F05 : ... .. . ... ... : ... .. . ... ...
ROW 3E : ... .. . ... ... : ... .. . ... ... : ... .. . ... : ... .. . ... : ... .. . F06 : ... .. . ... ... : ... .. . ... ...
ROW 3F : ... .. . ... ... : ... .. . ... ... : ... .. . ... : ... .. . ... : ... .. . F05 : ... .. . ... ... : ... .. . ... ...
ROW 40 : ... .. 2 ... ... : ... .. 2 ... ... : ... .. . ... : ... .. . ... : ... .. . F06 : ... .. . ... ... : ... .. 4 ... ...
ROW 41 : ... .. . ... ... : ... .. . ... ... : ... .. . ... : ... .. . ... : ... .. . F05 : ... .. . ... ... : ... .. . ... ...
ROW 42 : ... .. . ... ... : ... .. . ... ... : ... .. . ... : ... .. 4 ... : ... .. . F06 : ... .. . ... ... : ... .. . ... ...
ROW 43 : ... .. . ... ... : ... .. . ... ... : ... .. . ... : ... .. . ... : ... .. . F05 : ... .. . ... ... : ... .. . ... ...
ROW 44 : ... .. . ... ... : ... .. . ... ... : ... .. . ... : ... .. . ... : ... .. . F06 : ... .. . ... ... : ... .. 3 ... ...
ROW 45 : ... .. . ... ... : ... .. . ... ... : ... .. . ... : ... .. . ... : ... .. . F05 : ... .. . ... ... : ... .. . ... ...
ROW 46 : ... .. . ... ... : ... .. . ... ... : ... .. . ... : ... .. . ... : ... .. . F06 : ... .. . ... ... : ... .. . ... ...
ROW 47 : ... .. . ... ... : ... .. . ... ... : ... .. . ... : ... .. . ... : ... .. . F05 : ... .. . ... ... : ... .. 2 ... ...
ROW 48 : ... .. . ... ... : ... .. . ... ... : ... .. . ... : D-# 00 3 ... : ... .. . F06 : ... .. 1 ... ... : ... .. . ... ...
ROW 49 : ... .. 1 ... ... : ... .. . ... ... : ... .. . ... : C-# 00 . ... : ... .. . F05 : ... .. . ... ... : ... .. . ... ...
ROW 4A : ... .. . ... ... : ... .. 1 ... ... : ... .. . ... : B-# 00 . ... : ... .. . F06 : ... .. . ... ... : ... .. . ... ...
ROW 4B : ... .. . ... ... : ... .. . ... ... : ... .. . ... : ... .. . ... : ... .. . F05 : ... .. . ... ... : ... .. 1 ... ...
ROW 4C : ... .. . ... ... : ... .. . ... ... : ... .. . ... : ... .. . ... : ... .. . F06 : ... .. . ... ... : ... .. . ... ...
ROW 4D : ... .. . ... ... : ... .. . ... ... : ... .. . ... : ... .. . ... : ... .. . F05 : ... .. . ... ... : ... .. . ... ...
ROW 4E : ... .. . ... ... : ... .. . ... ... : ... .. . ... : ... .. 2 ... : ... .. . F06 : ... .. . ... ... : ... .. . ... ...
ROW 4F : ... .. . ... ... : ... .. . ... ... : ... .. . ... : ... .. . ... : ... .. . F05 : ... .. . ... ... : ... .. . ... ...
ROW 50 : ... .. . ... ... : ... .. . ... ... : ... .. . ... : ... .. . ... : ... .. . F06 : ... .. . ... ... : ... .. . ... ...
ROW 51 : ... .. . ... ... : ... .. . ... ... : ... .. . ... : ... .. . ... : ... .. . F05 : ... .. . ... ... : ... .. . ... ...
ROW 52 : ... .. . ... ... : ... .. . ... ... : ... .. . ... : ... .. . ... : ... .. . F06 : ... .. . ... ... : ... .. . ... ...
ROW 53 : ... .. . ... ... : ... .. . ... ... : ... .. . ... : ... .. . ... : ... .. . F05 : ... .. . ... ... : ... .. . ... ...
ROW 54 : F-2 00 . S03 ... : A#2 00 . S02 ... : ... .. . ... : B-# 00 . ... : ... .. . F0A : ... .. . ... ... : ... .. . P81 ...
ROW 55 : ... .. . ... ... : ... .. . ... ... : ... .. . ... : C-# 00 . ... : ... .. . ... : ... .. . ... ... : ... .. . ... ...
ROW 56 : ... .. . ... ... : ... .. . ... ... : ... .. . ... : ... .. . ... : ... .. . ... : ... .. . ... ... : ... .. . ... ...
ROW 57 : ... .. . ... ... : ... .. . ... ... : ... .. . ... : ... .. . ... : ... .. . ... : ... .. . ... ... : ... .. . ... ...
ROW 58 : ... .. . ... ... : ... .. . ... ... : ... .. . ... : ... .. 1 ... : ... .. . F06 : ... .. . ... ... : ... .. . ... ...
ROW 59 : ... .. . ... ... : ... .. . ... ... : ... .. . ... : ... .. . ... : ... .. . ... : ... .. . ... ... : ... .. . ... ...
ROW 5A : ... .. . ... ... : ... .. . ... ... : ... .. . ... : --- .. . ... : ... .. . F05 : ... .. . ... ... : ... .. . ... ...
ROW 5B : ... .. . ... ... : ... .. . ... ... : ... .. . ... : ... .. . ... : ... .. . ... : ... .. . ... ... : ... .. . ... ...
ROW 5C : ... .. . ... ... : ... .. . ... ... : ... .. . ... : ... .. . ... : ... .. . F06 : ... .. . ... ... : ... .. . ... ...
ROW 5D : ... .. . ... ... : ... .. . ... ... : ... .. . ... : ... .. . ... : ... .. . F05 : ... .. . ... ... : ... .. . ... ...
ROW 5E : ... .. . ... ... : ... .. . ... ... : ... .. . ... : ... .. . ... : ... .. . ... : ... .. . ... ... : ... .. . ... ...
ROW 5F : ... .. . ... ... : ... .. . ... ... : ... .. . ... : ... .. . ... : ... .. . ... : ... .. . ... ... : ... .. . ... ...

PATTERN 04
ROW 00 : E-3 00 1 V01 ... : C-3 06 1 V01 ... : C-2 04 . ... : F-# 02 8 ... : C-3 00 . F05 : ... .. . ... ... : B-3 01 7 P7C V00
ROW 01 : ... .. 2 ... ... : ... .. 2 ... ... : ... .. . ... : ... .. . ... : ... .. . ... : ... .. . ... ... : ... .. . P7D 400
ROW 02 : ... .. 3 ... ... : ... .. 3 ... ... : ... .. . ... : ... .. . ... : ... .. . ... : ... .. . ... ... : ... .. . P7E ...
ROW 03 : ... .. 4 ... ... : ... .. 4 ... ... : ... .. . ... : ... .. . ... : ... .. . ... : B-3 01 2 P7B V00 : ... .. . P7F ...
ROW 04 : ... .. 3 ... ... : ... .. 3 ... ... : ... .. . ... : D-# 03 6 ... : ... .. . ... : ... .. . P7C 400 : ... .. . P80 ...
ROW 05 : ... .. . ... ... : ... .. 2 ... ... : ... .. . ... : ... .. . ... : ... .. . ... : ... .. . P7D ... : ... .. . ... ...
ROW 06 : ... .. . ... ... : ... .. . ... ... : ... .. . ... : ... .. . ... : ... .. . ... : ... .. . P7E ... : ... .. . ... ...
ROW 07 : ... .. . ... ... : ... .. . ... ... : ... .. . ... : ... .. . ... : ... .. . ... : ... .. . P7F ... : ... .. . ... ...
ROW 08 : ... .. . ... ... : ... .. . V02 ... : ... .. . ... : E-# 02 4 ... : ... .. . ... : ... .. . ... ... : A-3 01 . 300 ...
ROW 09 : ... .. . ... ... : ... .. . ... ... : ... .. . ... : ... .. . ... : ... .. . ... : ... .. . ... ... : ... .. . ... ...
ROW 0A : ... .. . ... ... : ... .. . ... ... : ... .. . ... : ... .. . ... : ... .. . ... : ... .. . ... ... : ... .. . ... ...
ROW 0B : ... .. . ... ... : ... .. . ... ... : ... .. . ... : ... .. . ... : ... .. . ... : A-3 01 . 300 ... : ... .. . ... ...
ROW 0C : ... .. . ... ... : ... .. . V01 ... : G-2 04 . ... : F-# 02 6 ... : ... .. . ... : ... .. . ... ... : G-3 01 . ... ...
ROW 0D : ... .. . ... ... : ... .. . ... ... : ... .. . ... : ... .. . ... : ... .. . ... : ... .. . ... ... : ... .. . ... ...
ROW 0E : ... .. . ... ... : ... .. . ... ... : ... .. . ... : ... .. . ... : ... .. . ... : ... .. . ... ... : ... .. . ... ...
ROW 0F : ... .. . ... ... : ... .. . ... ... : ... .. . ... : ... .. . ... : ... .. . ... : G-3 01 . ... ... : ... .. . ... ...
ROW 10 : ... .. . ... ... : ... .. . V02 ... : ... .. . ... : D-# 03 1 ... : ... .. . ... : ... .. . ... ... : ... .. . ... ...
ROW 11 : ... .. . ... ... : ... .. . ... ... : ... .. . ... : ... .. . ... : ... .. . ... : ... .. . ... ... : ... .. . ... ...
ROW 12 : ... .. . ... ... : ... .. . ... ... : ... .. . ... : ... .. . ... : ... .. . ... : ... .. . ... ... : ... .. . ... ...
ROW 13 : ... .. . ... ... : ... .. . ... ... : ... .. . ... : ... .. . ... : ... .. . ... : ... .. . ... ... : ... .. . ... ...
ROW 14 : ... .. . ... ... : ... .. . V01 ... : ... .. . ... : E-# 02 4 ... : ... .. . ... : ... .. . ... ... : E-3 01 . ... ...
ROW 15 : ... .. . ... ... : ... .. . ... ... : ... .. . ... : ... .. . ... : ... .. . ... : ... .. . ... ... : ... .. . ... ...
ROW 16 : ... .. . ... ... : ... .. . ... ... : ... .. . ... : ... .. . ... : ... .. . ... : ... .. . ... ... : ... .. . ... ...
ROW 17 : ... .. . ... ... : ... .. . ... ... : ... .. . ... : ... .. . ... : ... .. . ... : E-3 01 . ... ... : ... .. . ... ...
ROW 18 : B-4 07 2 V02 P7F : ... .. . V00 ... : E-2 04 . ... : F-# 02 8 ... : ... .. . ... : ... .. . ... ... : ... .. . 411 ...
ROW 19 : ... .. . 411 ... : ... .. . ... ... : ... .. . ... : ... .. . ... : ... .. . ... : ... .. . ... ... : ... .. . 421 ...
ROW 1A : ... .. . ... ... : ... .. . ... ... : ... .. . ... : ... .. . ... : ... .. . ... : ... .. . ... ... : ... .. . 432 ...
ROW 1B : B-4 07 1 ... ... : ... .. . ... ... : ... .. . ... : ... .. . ... : ... .. . ... : ... .. . 411 ... : ... .. . 442 ...
ROW 1C : A-4 07 2 ... ... : ... .. . ... ... : ... .. . ... : D-# 03 6 ... : ... .. . ... : ... .. . 421 ... : ... .. . 453 ...
ROW 1D : ... .. . ... ... : ... .. . ... ... : ... .. . ... : ... .. . ... : ... .. . ... : ... .. . 432 ... : ... .. . ... ...
ROW 1E : ... .. . ... ... : ... .. . ... ... : ... .. . ... : ... .. . ... : ... .. . ... : ... .. . 442 ... : ... .. . ... ...
ROW 1F : A-4 07 1 ... ... : ... .. . ... ... : ... .. . ... : ... .. . ... : ... .. . ... : ... .. . 453 ... : ... .. . ... ...
ROW 20 : G-4 07 2 ... ... : ... .. . ... ... : ... .. . ... : E-# 02 4 ... : ... .. . ... : ... .. . ... ... : ... .. . ... ...
ROW 21 : ... .. . ... ... : ... .. . ... ... : ... .. . ... : ... .. . ... : ... .. . ... : ... .. . ... ... : ... .. . ... ...
ROW 22 : ... .. . ... ... : ... .. . ... ... : ... .. . ... : ... .. . ... : ... .. . ... : ... .. . ... ... : ... .. . ... ...
ROW 23 : G-4 07 1 ... ... : ... .. . ... ... : ... .. . ... : ... .. . ... : ... .. . ... : ... .. . ... ... : ... .. . ... ...
ROW 24 : E-4 07 2 ... ... : ... .. . ... ... : C-2 04 . ... : F-# 02 6 ... : ... .. . ... : ... .. . ... ... : B-3 01 . 400 ...
ROW 25 : ... .. . ... ... : ... .. . ... ... : ... .. . ... : ... .. . ... : ... .. . ... : ... .. . ... ... : ... .. . ... ...
ROW 26 : ... .. . ... ... : ... .. . ... ... : ... .. . ... : ... .. . ... : ... .. . ... : ... .. . ... ... : ... .. . ... ...
ROW 27 : E-4 07 1 ... ... : ... .. . ... ... : ... .. . ... : ... .. . ... : ... .. . ... : B-3 01 . 400 ... : ... .. . ... ...
ROW 28 : ... .. . ... ... : ... .. . ... ... : ... .. . ... : D-# 03 1 ... : ... .. . ... : ... .. . ... ... : ... .. . ... ...
ROW 29 : ... .. . ... ... : ... .. . ... ... : ... .. . ... : ... .. . ... : ... .. . ... : ... .. . ... ... : ... .. . ... ...
ROW 2A : ... .. . ... ... : ... .. . ... ... : ... .. . ... : ... .. . ... : ... .. . ... : ... .. . ... ... : ... .. . ... ...
ROW 2B : ... .. . ... ... : ... .. . ... ... : ... .. . ... : ... .. . ... : ... .. . ... : ... .. . ... ... : ... .. . ... ...
ROW 2C : --- .. . 400 ... : ... .. . ... ... : D-2 04 . ... : E-# 02 4 ... : ... .. . ... : ... .. . ... ... : A-3 01 . ... ...
ROW 2D : ... .. . ... ... : ... .. . ... ... : ... .. . ... : ... .. . ... : ... .. . ... : ... .. . ... ... : ... .. . ... ...
ROW 2E : ... .. . ... ... : ... .. . ... ... : ... .. . ... : ... .. . ... : ... .. . ... : ... .. . ... ... : ... .. . ... ...
ROW 2F : ... .. . ... ... : ... .. . ... ... : ... .. . ... : ... .. . ... : ... .. . ... : A-3 01 . ... ... : ... .. . ... ...
ROW 30 : C#2 00 1 V01 P80 : D#3 08 1 V01 ... : D#2 04 . ... : F-# 02 8 ... : ... .. . ... : ... .. . ... ... : A#3 01 7 P7C ...
ROW 31 : ... .. 2 ... ... : ... .. 2 ... ... : ... .. . ... : ... .. . ... : ... .. . ... : ... .. . ... ... : ... .. . P7D ...
ROW 32 : ... .. 3 ... ... : ... .. 3 ... ... : ... .. . ... : ... .. . ... : ... .. . ... : ... .. . ... ... : ... .. . P7E ...
ROW 33 : ... .. 4 ... ... : ... .. 4 ... ... : ... .. . ... : ... .. . ... : ... .. . ... : A#3 01 2 P7B ... : ... .. . P7F ...
ROW 34 : ... .. 3 ... ... : ... .. 3 ... ... : ... .. . ... : D-# 03 6 ... : ... .. . ... : ... .. . P7C ... : ... .. . P80 ...
ROW 35 : ... .. . ... ... : ... .. 2 ... ... : ... .. . ... : ... .. . ... : ... .. . ... : ... .. . P7D ... : ... .. . ... ...
ROW 36 : ... .. . ... ... : ... .. . ... ... : ... .. . ... : ... .. . ... : ... .. . ... : ... .. . P7E ... : ... .. . ... ...
ROW 37 : ... .. . ... ... : ... .. . ... ... : ... .. . ... : ... .. . ... : ... .. . ... : ... .. . P7F ... : ... .. . ... ...
ROW 38 : ... .. . ... ... : ... .. . V02 ... : A#1 04 . ... : E-# 02 4 ... : ... .. . ... : ... .. . ... ... : G#3 01 . 300 ...
ROW 39 : ... .. . ... ... : ... .. . ... ... : ... .. . ... : ... .. . ... : ... .. . ... : ... .. . ... ... : ... .. . ... ...
ROW 3A : ... .. . ... ... : ... .. . ... ... : --- .. . ... : ... .. . ... : ... .. . ... : ... .. . ... ... : ... .. . ... ...
ROW 3B : ... .. . ... ... : ... .. . ... ... : ... .. . ... : ... .. . ... : ... .. . ... : G#3 01 . 300 ... : ... .. . ... ...
ROW 3C : ... .. . ... ... : ... .. . V01 ... : A#1 04 . ... : F-# 02 6 ... : ... .. . ... : ... .. . ... ... : F#3 01 . ... ...
ROW 3D : ... .. . ... ... : ... .. . ... ... : ... .. . ... : ... .. . ... : ... .. . ... : ... .. . ... ... : ... .. . ... ...
ROW 3E : ... .. . ... ... : ... .. . ... ... : ... .. . ... : ... .. . ... : ... .. . ... : ... .. . ... ... : ... .. . ... ...
ROW 3F : ... .. . ... ... : ... .. . ... ... : ... .. . ... : ... .. . ... : ... .. . ... : F#3 01 . ... ... : ... .. . ... ...
ROW 40 : ... .. . ... ... : ... .. . V02 ... : ... .. . ... : D-# 03 1 ... : ... .. . ... : ... .. . ... ... : ... .. . ... ...
ROW 41 : ... .. . ... ... : ... .. . ... ... : ... .. . ... : ... .. . ... : ... .. . ... : ... .. . ... ... : ... .. . ... ...
ROW 42 : ... .. . ... ... : ... .. . ... ... : ... .. . ... : ... .. . ... : ... .. . ... : ... .. . ... ... : ... .. . ... ...
ROW 43 : ... .. . ... ... : ... .. . ... ... : ... .. . ... : ... .. . ... : ... .. . ... : ... .. . ... ... : ... .. . ... ...
ROW 44 : ... .. . ... ... : ... .. . V01 ... : C#2 04 . ... : E-# 02 4 ... : ... .. . ... : ... .. . ... ... : D#3 01 . ... ...
ROW 45 : ... .. . ... ... : ... .. . ... ... : ... .. . ... : ... .. . ... : ... .. . ... : ... .. . ... ... : ... .. . ... ...
ROW 46 : ... .. . ... ... : ... .. . ... ... : ... .. . ... : ... .. . ... : ... .. . ... : ... .. . ... ... : ... .. . ... ...
ROW 47 : ... .. . ... ... : ... .. . ... ... : ... .. . ... : ... .. . ... : ... .. . ... : D#3 01 . ... ... : ... .. . ... ...
ROW 48 : A#4 07 2 V02 P7F : ... .. . V00 ... : D#2 04 . ... : F-# 02 8 ... : ... .. . ... : ... .. . ... ... : ... .. . ... ...
ROW 49 : ... .. . ... ... : ... .. . ... ... : ... .. . ... : ... .. . ... : ... .. . ... : ... .. . ... ... : ... .. . ... ...
ROW 4A : ... .. . ... ... : ... .. . ... ... : ... .. . ... : ... .. . ... : ... .. . ... : ... .. . ... ... : ... .. . ... ...
ROW 4B : A#4 07 1 ... ... : ... .. . ... ... : ... .. . ... : ... .. . ... : ... .. . ... : ... .. . ... ... : ... .. . ... ...
ROW 4C : ... .. . ... ... : ... .. . ... ... : ... .. . ... : D-# 03 6 ... : ... .. . ... : ... .. . ... ... : ... .. . 411 ...
ROW 4D : ... .. . ... ... : ... .. . ... ... : ... .. . ... : ... .. . ... : ... .. . ... : ... .. . ... ... : ... .. . 421 ...
ROW 4E : G#4 07 2 ... ... : ... .. . ... ... : ... .. . ... : ... .. . ... : ... .. . ... : ... .. . ... ... : ... .. . 432 ...
ROW 4F : ... .. . ... ... : ... .. . ... ... : ... .. . ... : ... .. . ... : ... .. . ... : ... .. . 411 ... : ... .. . 442 ...
ROW 50 : F#4 07 2 ... ... : ... .. . ... ... : ... .. . ... : E-# 02 4 ... : ... .. . ... : ... .. . 421 ... : ... .. . 453 ...
ROW 51 : ... .. . ... ... : ... .. . ... ... : ... .. . ... : ... .. . ... : ... .. . ... : ... .. . 432 ... : ... .. . ... ...
ROW 52 : ... .. . ... ... : ... .. . ... ... : ... .. . ... : ... .. . ... : ... .. . ... : ... .. . 442 ... : ... .. . ... ...
ROW 53 : F#4 07 1 ... ... : ... .. . ... ... : ... .. . ... : ... .. . ... : ... .. . ... : ... .. . 453 ... : ... .. . ... ...
ROW 54 : D#4 07 2 ... ... : ... .. . ... ... : A#1 04 . ... : F-# 02 6 ... : ... .. . ... : ... .. . ... ... : ... .. . ... ...
ROW 55 : ... .. . ... ... : ... .. . ... ... : ... .. . ... : ... .. . ... : ... .. . ... : ... .. . ... ... : ... .. . ... ...
ROW 56 : ... .. . ... ... : ... .. . ... ... : ... .. . ... : ... .. . ... : ... .. . ... : ... .. . ... ... : ... .. . ... ...
ROW 57 : D#4 07 1 ... ... : ... .. . ... ... : ... .. . ... : ... .. . ... : ... .. . ... : ... .. . ... ... : ... .. . ... ...
ROW 58 : ... .. . ... ... : ... .. . ... ... : C-2 04 . ... : D-# 03 1 ... : ... .. . ... : ... .. . ... ... : ... .. . ... ...
ROW 59 : ... .. . ... ... : ... .. . ... ... : ... .. . ... : ... .. . ... : ... .. . ... : ... .. . ... ... : ... .. . ... ...
ROW 5A : ... .. . ... ... : ... .. . ... ... : ... .. . ... : ... .. . ... : ... .. . ... : ... .. . ... ... : ... .. . ... ...
ROW 5B : ... .. . ... ... : ... .. . ... ... : ... .. . ... : ... .. . ... : ... .. . ... : ... .. . ... ... : ... .. . ... ...
ROW 5C : --- .. . 400 ... : ... .. 1 ... ... : C#2 04 . ... : E-# 02 4 ... : ... .. . ... : ... .. . ... ... : ... .. . ... ...
ROW 5D : ... .. . ... ... : ... .. . ... ... : ... .. . ... : ... .. . ... : ... .. . ... : ... .. . ... ... : ... .. . ... ...
ROW 5E : ... .. . ... ... : ... .. . ... ... : ... .. . ... : ... .. . ... : ... .. . ... : ... .. . ... ... : ... .. . ... ...
ROW 5F : ... .. . ... ... : ... .. . ... ... : ... .. . ... : ... .. . ... : ... .. . ... : ... .. . ... ... : ... .. . ... ...

PATTERN 05
ROW 00 : F-2 00 3 V01 ... : D-3 08 1 V01 ... : D-2 00 . 300 : F-# 02 8 ... : ... .. . ... : ... .. . ... ... : A-3 01 7 P7E V01
ROW 01 : ... .. . ... ... : ... .. 2 ... ... : ... .. . ... : ... .. . ... : ... .. . ... : ... .. . ... ... : ... .. . ... 400
ROW 02 : ... .. . ... ... : ... .. 3 ... ... : ... .. . ... : ... .. . ... : ... .. . ... : ... .. . ... ... : ... .. . P7F ...
ROW 03 : ... .. . ... ... : ... .. 4 ... ... : ... .. . ... : ... .. . ... : ... .. . ... : A-3 01 2 P7D V01 : ... .. . ... ...
ROW 04 : ... .. . ... ... : ... .. 3 ... ... : ... .. . ... : D-# 03 6 ... : ... .. . ... : ... .. . ... 400 : ... .. . P80 ...
ROW 05 : ... .. . ... ... : ... .. 2 ... ... : ... .. . ... : ... .. . ... : ... .. . ... : ... .. . P7E ... : ... .. . ... ...
ROW 06 : ... .. . ... ... : ... .. . ... ... : ... .. . ... : ... .. . ... : ... .. . ... : ... .. . ... ... : ... .. . ... ...
ROW 07 : ... .. . ... ... : ... .. . ... ... : ... .. . ... : ... .. . ... : ... .. . ... : ... .. . P7F ... : ... .. . ... ...
ROW 08 : E-2 00 . ... ... : ... .. . V02 ... : A-1 04 . ... : E-# 02 4 ... : ... .. . ... : ... .. . ... ... : G-3 01 . 300 ...
ROW 09 : ... .. . ... ... : ... .. . ... ... : ... .. . ... : ... .. . ... : ... .. . ... : ... .. . ... ... : ... .. . ... ...
ROW 0A : ... .. . ... ... : ... .. . ... ... : ... .. . ... : ... .. . ... : ... .. . ... : ... .. . ... ... : ... .. . ... ...
ROW 0B : ... .. . ... ... : ... .. . ... ... : ... .. . ... : ... .. . ... : ... .. . ... : G-3 01 . 300 ... : ... .. . ... ...
ROW 0C : ... .. . ... ... : ... .. . V01 ... : ... .. . ... : F-# 02 6 ... : ... .. . ... : ... .. . ... ... : ... .. . ... ...
ROW 0D : ... .. . ... ... : ... .. . ... ... : ... .. . ... : ... .. . ... : ... .. . ... : ... .. . ... ... : ... .. . ... ...
ROW 0E : ... .. . ... ... : ... .. . ... ... : ... .. . ... : ... .. . ... : ... .. . ... : ... .. . ... ... : ... .. . ... ...
ROW 0F : ... .. . ... ... : ... .. . ... ... : ... .. . ... : ... .. . ... : ... .. . ... : ... .. . ... ... : ... .. . ... ...
ROW 10 : D-2 00 . ... ... : ... .. . V02 ... : ... .. . ... : D-# 03 1 ... : ... .. . ... : ... .. . ... ... : F-3 01 . ... ...
ROW 11 : ... .. . ... ... : ... .. . ... ... : ... .. . ... : ... .. . ... : ... .. . ... : ... .. . ... ... : ... .. . ... ...
ROW 12 : ... .. . ... ... : ... .. . ... ... : ... .. . ... : ... .. . ... : ... .. . ... : ... .. . ... ... : ... .. . ... ...
ROW 13 : ... .. . ... ... : ... .. . ... ... : ... .. . ... : ... .. . ... : ... .. . ... : F-3 01 . ... ... : ... .. . ... ...
ROW 14 : C-2 00 . ... ... : ... .. . V01 ... : A-1 04 . ... : E-# 02 4 ... : ... .. . ... : ... .. . ... ... : E-3 01 . ... ...
ROW 15 : ... .. . ... ... : ... .. . ... ... : ... .. . ... : ... .. . ... : ... .. . ... : ... .. . ... ... : ... .. . ... ...
ROW 16 : ... .. . ... ... : ... .. . ... ... : ... .. . ... : ... .. . ... : ... .. . ... : ... .. . ... ... : ... .. . ... ...
ROW 17 : ... .. . ... ... : ... .. . ... ... : ... .. . ... : ... .. . ... : ... .. . ... : E-3 01 . ... ... : ... .. . ... ...
ROW 18 : D-2 00 1 ... ... : A#2 09 1 V01 ... : A#1 04 . ... : F-# 02 8 ... : ... .. . ... : ... .. . ... ... : D-3 01 5 ... ...
ROW 19 : ... .. 2 ... ... : ... .. 2 ... ... : ... .. . ... : ... .. . ... : ... .. . ... : ... .. . ... ... : ... .. . ... ...
ROW 1A : ... .. . ... ... : ... .. 3 ... ... : ... .. . ... : ... .. . ... : ... .. . ... : ... .. . ... ... : ... .. . ... ...
ROW 1B : ... .. 3 ... ... : ... .. 4 ... ... : ... .. . ... : ... .. . ... : ... .. . ... : D-3 01 . ... ... : ... .. . ... ...
ROW 1C : ... .. . ... ... : ... .. 3 ... ... : ... .. . ... : D-# 03 6 ... : ... .. . ... : ... .. . ... ... : ... .. . 453 ...
ROW 1D : ... .. 4 ... ... : ... .. 2 ... ... : ... .. . ... : ... .. . ... : ... .. . ... : ... .. . ... ... : ... .. . ... ...
ROW 1E : ... .. . ... ... : ... .. . ... ... : ... .. . ... : ... .. . ... : ... .. . ... : ... .. . ... ... : ... .. . ... ...
ROW 1F : ... .. 3 ... ... : ... .. . ... ... : ... .. . ... : ... .. . ... : ... .. . ... : ... .. . 453 ... : ... .. . ... ...
ROW 20 : F-2 00 . ... ... : ... .. . V02 ... : A#1 04 . ... : E-# 02 4 ... : ... .. . ... : ... .. . ... ... : E-3 01 6 400 ...
ROW 21 : ... .. . ... ... : ... .. . ... ... : ... .. . ... : ... .. . ... : ... .. . ... : ... .. . ... ... : ... .. . ... ...
ROW 22 : ... .. . ... ... : ... .. . ... ... : ... .. . ... : ... .. . ... : ... .. . ... : ... .. . ... ... : ... .. . ... ...
ROW 23 : ... .. . ... ... : ... .. . ... ... : ... .. . ... : ... .. . ... : ... .. . ... : E-3 01 . 400 ... : ... .. . ... ...
ROW 24 : ... .. . ... ... : ... .. . V01 ... : C-2 04 . ... : F-# 02 6 ... : ... .. . ... : ... .. . ... ... : ... .. . ... ...
ROW 25 : ... .. . ... ... : ... .. . ... ... : ... .. . ... : ... .. . ... : ... .. . ... : ... .. . ... ... : ... .. . ... ...
ROW 26 : ... .. . ... ... : ... .. . ... ... : ... .. . ... : ... .. . ... : ... .. . ... : ... .. . ... ... : ... .. . ... ...
ROW 27 : ... .. . ... ... : ... .. . ... ... : ... .. . ... : ... .. . ... : ... .. . ... : ... .. . ... ... : ... .. . ... ...
ROW 28 : D-2 00 3 ... ... : ... .. . V02 ... : C#2 04 . ... : D-# 03 1 ... : ... .. . ... : ... .. . ... ... : F-3 01 7 ... ...
ROW 29 : ... .. . ... ... : ... .. . ... ... : ... .. . ... : ... .. . ... : ... .. . ... : ... .. . ... ... : ... .. . ... ...
ROW 2A : ... .. . ... ... : ... .. . ... ... : ... .. . ... : ... .. . ... : ... .. . ... : ... .. . ... ... : ... .. . ... ...
ROW 2B : ... .. . ... ... : ... .. . ... ... : ... .. . ... : ... .. . ... : ... .. . ... : F-3 01 . ... ... : ... .. . ... ...
ROW 2C : --- .. . ... ... : C-2 00 3 V01 ... : D-2 04 . ... : E-# 02 4 ... : ... .. . ... : ... .. . ... ... : F#3 01 6 ... ...
ROW 2D : ... .. . ... ... : ... .. . ... ... : ... .. . ... : ... .. . ... : ... .. . ... : ... .. . ... ... : ... .. . ... ...
ROW 2E : ... .. . ... ... : ... .. . ... ... : ... .. . ... : ... .. . ... : ... .. . ... : ... .. . ... ... : ... .. . ... ...
ROW 2F : ... .. . ... ... : ... .. . ... ... : ... .. . ... : ... .. . ... : ... .. . ... : F#3 01 . ... ... : ... .. . ... ...
ROW 30 : D-3 00 1 ... ... : D#2 00 3 ... ... : D#2 04 . ... : F-# 02 8 ... : ... .. . ... : ... .. . ... ... : G-3 01 4 301 ...
ROW 31 : ... .. 2 ... ... : ... .. . ... ... : ... .. . ... : ... .. . ... : ... .. . ... : ... .. . ... ... : ... .. 5 ... ...
ROW 32 : ... .. 3 ... ... : ... .. 2 ... ... : ... .. . ... : ... .. . ... : ... .. . ... : ... .. . ... ... : ... .. 6 ... ...
ROW 33 : ... .. 4 ... ... : ... .. . ... ... : ... .. . ... : ... .. . ... : ... .. . ... : G-3 01 1 301 ... : ... .. . ... ...
ROW 34 : ... .. 3 ... ... : ... .. 1 ... ... : ... .. . ... : D-# 03 6 ... : ... .. . ... : ... .. 2 ... ... : ... .. . ... ...
ROW 35 : ... .. . ... ... : ... .. . ... ... : ... .. . ... : ... .. . ... : ... .. . ... : ... .. . ... ... : ... .. . ... ...
ROW 36 : ... .. . ... ... : ... .. . ... ... : ... .. . ... : ... .. . ... : ... .. . ... : ... .. . ... ... : ... .. . ... ...
ROW 37 : ... .. . ... ... : ... .. . ... ... : ... .. . ... : ... .. . ... : ... .. . ... : ... .. . ... ... : ... .. . ... ...
ROW 38 : ... .. . ... ... : ... .. . ... ... : ... .. . ... : E-# 02 4 ... : ... .. . ... : ... .. . ... ... : ... .. . ... ...
ROW 39 : ... .. . ... ... : ... .. . ... ... : ... .. . ... : ... .. . ... : ... .. . ... : ... .. . ... ... : ... .. . ... ...
ROW 3A : ... .. . ... ... : ... .. . ... ... : ... .. . ... : ... .. . ... : ... .. . ... : ... .. . ... ... : ... .. . ... ...
ROW 3B : ... .. . ... ... : ... .. . ... ... : ... .. . ... : ... .. . ... : ... .. . ... : ... .. . ... ... : ... .. . ... ...
ROW 3C : C-3 00 2 305 ... : D#3 06 2 V02 ... : A#1 04 . ... : F-# 02 6 ... : ... .. . ... : ... .. . ... ... : ... .. 5 ... ...
ROW 3D : ... .. . ... ... : ... .. 1 ... ... : ... .. . ... : ... .. . ... : ... .. . ... : ... .. . ... ... : ... .. . ... ...
ROW 3E : ... .. . ... ... : ... .. . ... ... : ... .. . ... : ... .. . ... : ... .. . ... : ... .. . ... ... : ... .. . ... ...
ROW 3F : ... .. . ... ... : ... .. . ... ... : ... .. . ... : ... .. . ... : ... .. . ... : ... .. . ... ... : ... .. . ... ...
ROW 40 : ... .. . ... ... : ... .. . V01 ... : ... .. . ... : D-# 03 1 ... : ... .. . ... : ... .. . ... ... : ... .. . 411 ...
ROW 41 : ... .. . ... ... : ... .. . ... ... : ... .. . ... : ... .. . ... : ... .. . ... : ... .. . ... ... : ... .. . 411 ...
ROW 42 : ... .. . ... ... : ... .. . ... ... : ... .. . ... : ... .. . ... : ... .. . ... : ... .. . ... ... : ... .. . 421 ...
ROW 43 : ... .. . ... ... : ... .. . ... ... : ... .. . ... : ... .. . ... : ... .. . ... : ... .. . 411 ... : ... .. . 422 ...
ROW 44 : ... .. . ... ... : ... .. . V02 ... : ... .. . ... : E-# 02 4 ... : ... .. . ... : ... .. . 411 ... : ... .. . 432 ...
ROW 45 : ... .. . ... ... : ... .. . ... ... : ... .. . ... : ... .. . ... : ... .. . ... : ... .. . 421 ... : ... .. . 432 ...
ROW 46 : ... .. . ... ... : ... .. . ... ... : ... .. . ... : ... .. . ... : ... .. . ... : ... .. . 422 ... : ... .. . 443 ...
ROW 47 : ... .. . ... ... : ... .. . ... ... : ... .. . ... : ... .. . ... : ... .. . ... : ... .. . 432 ... : ... .. . 443 ...
ROW 48 : D-3 00 . V00 ... : ... .. . V01 ... : D#2 04 . ... : F-# 02 8 ... : ... .. . ... : ... .. . 432 ... : ... .. 4 453 ...
ROW 49 : ... .. . ... ... : ... .. . ... ... : ... .. . ... : ... .. . ... : ... .. . ... : ... .. . 443 ... : ... .. . 300 ...
ROW 4A : ... .. . ... ... : ... .. . ... ... : ... .. . ... : ... .. . ... : ... .. . ... : ... .. . 443 ... : ... .. . ... ...
ROW 4B : ... .. . ... ... : ... .. . ... ... : ... .. . ... : ... .. . ... : ... .. . ... : ... .. 1 453 ... : ... .. . ... ...
ROW 4C : ... .. . ... ... : ... .. . V00 ... : ... .. . ... : D-# 03 6 ... : ... .. . ... : ... .. . 300 ... : ... .. . ... ...
ROW 4D : ... .. . ... ... : ... .. . ... ... : ... .. . ... : ... .. . ... : ... .. . ... : ... .. . ... ... : ... .. . ... ...
ROW 4E : D#3 00 . ... ... : ... .. . ... ... : ... .. . ... : ... .. . ... : ... .. . ... : ... .. . ... ... : ... .. . ... ...
ROW 4F : ... .. . ... ... : ... .. . ... ... : ... .. . ... : ... .. . ... : ... .. . ... : ... .. . ... ... : ... .. . ... ...
ROW 50 : D-3 00 . ... ... : ... .. . ... ... : ... .. . ... : E-# 02 4 ... : ... .. . ... : ... .. . ... ... : ... .. 3 ... ...
ROW 51 : ... .. . ... ... : ... .. . ... ... : ... .. . ... : ... .. . ... : ... .. . ... : ... .. . ... ... : ... .. . ... ...
ROW 52 : ... .. . ... ... : ... .. . ... ... : ... .. . ... : ... .. . ... : ... .. . ... : ... .. . ... ... : ... .. . ... ...
ROW 53 : ... .. . ... ... : ... .. . ... ... : ... .. . ... : ... .. . ... : ... .. . ... : ... .. . ... ... : ... .. . ... ...
ROW 54 : C-3 00 1 ... ... : ... .. . ... ... : A#1 04 . ... : F-# 02 6 ... : ... .. . ... : ... .. . ... ... : ... .. . ... ...
ROW 55 : ... .. . ... ... : ... .. . ... ... : ... .. . ... : ... .. . ... : ... .. . ... : ... .. . ... ... : ... .. . ... ...
ROW 56 : ... .. . ... ... : ... .. . ... ... : ... .. . ... : ... .. . ... : ... .. . ... : ... .. . ... ... : ... .. . ... ...
ROW 57 : ... .. . ... ... : ... .. . ... ... : ... .. . ... : ... .. . ... : ... .. . ... : ... .. . ... ... : ... .. 2 ... ...
ROW 58 : ... .. . ... ... : ... .. . ... ... : ... .. . ... : D-# 03 1 ... : ... .. . ... : ... .. . ... ... : ... .. . ... ...
ROW 59 : ... .. . ... ... : ... .. . ... ... : ... .. . ... : ... .. . ... : ... .. . ... : ... .. . ... ... : ... .. . ... ...
ROW 5A : ... .. . ... ... : ... .. . ... ... : ... .. . ... : ... .. . ... : ... .. . ... : ... .. . ... ... : ... .. . ... ...
ROW 5B : ... .. . ... ... : ... .. . ... ... : ... .. . ... : ... .. . ... : ... .. . ... : ... .. . ... ... : ... .. . ... ...
ROW 5C : ... .. . 300 ... : ... .. . ... ... : A-1 04 . ... : E-# 02 4 ... : ... .. . ... : ... .. . ... ... : ... .. . ... ...
ROW 5D : ... .. . ... ... : ... .. . ... ... : ... .. . ... : ... .. . ... : ... .. . ... : ... .. . ... ... : ... .. . ... ...
ROW 5E : ... .. . ... ... : ... .. . ... ... : ... .. . ... : ... .. . ... : ... .. . ... : ... .. . ... ... : ... .. 1 ... ...
ROW 5F : ... .. . ... ... : ... .. . ... ... : ... .. . ... : ... .. . ... : ... .. . ... : ... .. . ... ... : ... .. . ... ...

PATTERN 06
ROW 00 : F#2 00 1 V01 ... : B-2 00 1 V01 ... : G#1 04 . ... : F-# 02 8 ... : ... .. . ... : ... .. . ... ... : G#3 01 4 P7E V00
ROW 01 : ... .. 2 ... ... : ... .. 2 ... ... : ... .. . ... : ... .. . ... : ... .. . ... : ... .. . ... ... : ... .. 5 ... 400
ROW 02 : ... .. 3 ... ... : ... .. 3 ... ... : ... .. . ... : ... .. . ... : ... .. . ... : ... .. . ... ... : ... .. 6 P7F ...
ROW 03 : ... .. 4 ... ... : ... .. 4 ... ... : ... .. . ... : ... .. . ... : ... .. . ... : G#3 01 1 P7D V00 : ... .. 7 ... ...
ROW 04 : ... .. 3 ... ... : ... .. 3 ... ... : ... .. . ... : D-# 03 6 ... : ... .. . ... : ... .. 2 ... 400 : ... .. . P80 ...
ROW 05 : ... .. . ... ... : ... .. . ... ... : ... .. . ... : ... .. . ... : ... .. . ... : ... .. . P7E ... : ... .. . ... ...
ROW 06 : ... .. . ... ... : ... .. . ... ... : ... .. . ... : ... .. . ... : ... .. . ... : ... .. . ... ... : ... .. . ... ...
ROW 07 : ... .. . ... ... : ... .. . ... ... : ... .. . ... : ... .. . ... : ... .. . ... : ... .. . P7F ... : ... .. . ... ...
ROW 08 : ... .. . ... ... : ... .. . ... ... : ... .. . ... : E-# 02 4 ... : ... .. . ... : ... .. . ... ... : F#3 01 . 300 ...
ROW 09 : ... .. . ... ... : ... .. . ... ... : ... .. . ... : ... .. . ... : ... .. . ... : ... .. . ... ... : ... .. . ... ...
ROW 0A : ... .. . ... ... : ... .. . ... ... : ... .. . ... : ... .. . ... : ... .. . ... : ... .. . ... ... : ... .. . ... ...
ROW 0B : ... .. . ... ... : ... .. . ... ... : ... .. . ... : ... .. . ... : ... .. . ... : F#3 01 . 300 ... : ... .. . ... ...
ROW 0C : ... .. . ... ... : ... .. . ... ... : B-1 04 . ... : F-# 02 6 ... : ... .. . ... : ... .. . ... ... : F-3 01 . ... ...
ROW 0D : ... .. . ... ... : ... .. . ... ... : ... .. . ... : ... .. . ... : ... .. . ... : ... .. . ... ... : ... .. . ... ...
ROW 0E : ... .. . ... ... : ... .. . ... ... : ... .. . ... : ... .. . ... : ... .. . ... : ... .. . ... ... : ... .. . ... ...
ROW 0F : ... .. . ... ... : ... .. . ... ... : ... .. . ... : ... .. . ... : ... .. . ... : F-3 01 . ... ... : ... .. . ... ...
ROW 10 : ... .. . ... ... : ... .. . ... ... : ... .. . ... : D-# 03 1 ... : ... .. . ... : ... .. . ... ... : ... .. . ... ...
ROW 11 : ... .. . ... ... : ... .. . ... ... : ... .. . ... : ... .. . ... : ... .. . ... : ... .. . ... ... : ... .. . ... ...
ROW 12 : ... .. . ... ... : ... .. . ... ... : ... .. . ... : ... .. . ... : ... .. . ... : ... .. . ... ... : ... .. . ... ...
ROW 13 : ... .. . ... ... : ... .. . ... ... : ... .. . ... : ... .. . ... : ... .. . ... : ... .. . ... ... : ... .. . ... ...
ROW 14 : ... .. . ... ... : ... .. . ... ... : C-2 04 . ... : E-# 02 4 ... : ... .. . ... : ... .. . ... ... : D#3 01 . ... ...
ROW 15 : ... .. . ... ... : ... .. . ... ... : ... .. . ... : ... .. . ... : ... .. . ... : ... .. . ... ... : ... .. . ... ...
ROW 16 : ... .. 2 ... ... : ... .. 2 ... ... : ... .. . ... : ... .. . ... : ... .. . ... : ... .. . ... ... : ... .. . ... ...
ROW 17 : ... .. 1 ... ... : ... .. 1 ... ... : ... .. . ... : ... .. . ... : ... .. . ... : D#3 01 . ... ... : ... .. . ... ...
ROW 18 : F-2 00 1 ... ... : B-2 00 1 ... ... : C#2 04 . ... : F-# 02 8 ... : ... .. . ... : ... .. . ... ... : ... .. . ... ...
ROW 19 : ... .. 2 ... ... : ... .. 2 ... ... : ... .. . ... : ... .. . ... : ... .. . ... : ... .. . ... ... : ... .. . ... ...
ROW 1A : ... .. . ... ... : ... .. . ... ... : ... .. . ... : ... .. . ... : ... .. . ... : ... .. . ... ... : ... .. . ... ...
ROW 1B : ... .. 3 ... ... : ... .. 3 ... ... : ... .. . ... : ... .. . ... : ... .. . ... : ... .. . ... ... : ... .. . ... ...
ROW 1C : ... .. . ... ... : ... .. . ... ... : ... .. . ... : D-# 03 6 ... : ... .. . ... : ... .. . ... ... : ... .. . 453 ...
ROW 1D : ... .. 4 ... ... : ... .. 4 ... ... : ... .. . ... : ... .. . ... : ... .. . ... : ... .. . ... ... : ... .. . ... ...
ROW 1E : ... .. . ... ... : ... .. . ... ... : ... .. . ... : ... .. . ... : ... .. . ... : ... .. . ... ... : ... .. . ... ...
ROW 1F : ... .. 3 ... ... : ... .. 3 ... ... : ... .. . ... : ... .. . ... : ... .. . ... : ... .. . 453 ... : ... .. . ... ...
ROW 20 : ... .. . ... ... : ... .. . ... ... : ... .. . ... : E-# 02 4 ... : ... .. . ... : ... .. . ... ... : ... .. . ... ...
ROW 21 : ... .. . ... ... : ... .. . ... ... : ... .. . ... : ... .. . ... : ... .. . ... : ... .. . ... ... : ... .. . ... ...
ROW 22 : ... .. . ... ... : ... .. . ... ... : ... .. . ... : ... .. . ... : ... .. . ... : ... .. . ... ... : ... .. . ... ...
ROW 23 : ... .. . ... ... : ... .. . ... ... : ... .. . ... : ... .. . ... : ... .. . ... : ... .. . ... ... : ... .. . ... ...
ROW 24 : ... .. . ... ... : ... .. . ... ... : G#1 04 . ... : F-# 02 6 ... : ... .. . ... : ... .. . ... ... : F-3 01 . 400 ...
ROW 25 : ... .. . ... ... : ... .. . ... ... : ... .. . ... : ... .. . ... : ... .. . ... : ... .. . ... ... : ... .. . ... ...
ROW 26 : ... .. . ... ... : ... .. . ... ... : ... .. . ... : ... .. . ... : ... .. . ... : ... .. . ... ... : ... .. . ... ...
ROW 27 : ... .. . ... ... : ... .. . ... ... : ... .. . ... : ... .. . ... : ... .. . ... : F-3 01 . 400 ... : ... .. . ... ...
ROW 28 : ... .. 2 ... ... : ... .. 2 ... ... : G#2 04 . ... : D-# 03 1 ... : ... .. . ... : ... .. . ... ... : ... .. . ... ...
ROW 29 : ... .. . ... ... : ... .. . ... ... : ... .. . ... : ... .. . ... : ... .. . ... : ... .. . ... ... : ... .. . ... ...
ROW 2A : ... .. . ... ... : ... .. . ... ... : ... .. . ... : ... .. . ... : ... .. . ... : ... .. . ... ... : ... .. . ... ...
ROW 2B : ... .. . ... ... : ... .. . ... ... : ... .. . ... : ... .. . ... : ... .. . ... : ... .. . ... ... : ... .. . ... ...
ROW 2C : ... .. 1 ... ... : ... .. 1 ... ... : G-2 04 . ... : E-# 02 4 ... : ... .. . ... : ... .. . ... ... : F#3 01 . ... V01
ROW 2D : ... .. . ... ... : ... .. . ... ... : ... .. . ... : ... .. . ... : ... .. . ... : ... .. . ... ... : ... .. . ... ...
ROW 2E : ... .. . ... ... : ... .. . ... ... : ... .. . ... : ... .. . ... : ... .. . ... : ... .. . ... ... : ... .. . ... ...
ROW 2F : ... .. . ... ... : ... .. . ... ... : ... .. . ... : ... .. . ... : ... .. . ... : F#3 01 . V01 ... : ... .. . ... ...
ROW 30 : F-2 00 1 ... ... : A#2 00 1 ... ... : F#2 04 . ... : F-# 02 8 ... : ... .. . ... : ... .. . ... ... : G#3 01 . 301 ...
ROW 31 : ... .. 2 ... ... : ... .. 2 ... ... : ... .. . ... : ... .. . ... : ... .. . ... : ... .. . ... ... : ... .. . ... ...
ROW 32 : ... .. 3 ... ... : ... .. 3 ... ... : ... .. . ... : ... .. . ... : ... .. . ... : ... .. . ... ... : ... .. . ... ...
ROW 33 : ... .. 4 ... ... : ... .. 4 ... ... : ... .. . ... : ... .. . ... : ... .. . ... : G#3 01 . 301 200 : ... .. . ... ...
ROW 34 : ... .. 3 ... ... : ... .. 3 ... ... : ... .. . ... : D-# 03 6 ... : ... .. . ... : ... .. . ... ... : ... .. . ... ...
ROW 35 : ... .. . ... ... : ... .. . ... ... : ... .. . ... : ... .. . ... : ... .. . ... : ... .. . ... ... : ... .. . ... ...
ROW 36 : ... .. . ... ... : ... .. . ... ... : ... .. . ... : ... .. . ... : ... .. . ... : ... .. . ... ... : ... .. . ... ...
ROW 37 : ... .. . ... ... : ... .. . ... ... : ... .. . ... : ... .. . ... : ... .. . ... : ... .. . ... ... : ... .. . ... ...
ROW 38 : ... .. . ... ... : ... .. . ... ... : ... .. . ... : E-# 02 4 ... : ... .. . ... : ... .. . ... ... : F#3 01 . 300 ...
ROW 39 : ... .. . ... ... : ... .. . ... ... : ... .. . ... : ... .. . ... : ... .. . ... : ... .. . ... ... : ... .. . ... ...
ROW 3A : ... .. . ... ... : ... .. . ... ... : ... .. . ... : ... .. . ... : ... .. . ... : ... .. . ... ... : ... .. . ... ...
ROW 3B : ... .. . ... ... : ... .. . ... ... : ... .. . ... : ... .. . ... : ... .. . ... : F#3 01 . 300 ... : ... .. . ... ...
ROW 3C : ... .. . ... ... : ... .. . ... ... : A#2 04 . ... : F-# 02 6 ... : ... .. . ... : ... .. . ... ... : F-3 01 . ... ...
ROW 3D : ... .. . ... ... : ... .. . ... ... : ... .. . ... : ... .. . ... : ... .. . ... : ... .. . ... ... : ... .. . ... ...
ROW 3E : ... .. . ... ... : ... .. . ... ... : ... .. . ... : ... .. . ... : ... .. . ... : ... .. . ... ... : ... .. . ... ...
ROW 3F : ... .. . ... ... : ... .. . ... ... : ... .. . ... : ... .. . ... : ... .. . ... : F-3 01 . ... ... : ... .. . ... ...
ROW 40 : ... .. . ... ... : ... .. . ... ... : ... .. . ... : D-# 03 1 ... : ... .. . ... : ... .. . ... ... : ... .. . ... ...
ROW 41 : ... .. . ... ... : ... .. . ... ... : ... .. . ... : ... .. . ... : ... .. . ... : ... .. . ... ... : ... .. . ... ...
ROW 42 : ... .. . ... ... : ... .. . ... ... : ... .. . ... : ... .. . ... : ... .. . ... : ... .. . ... ... : ... .. . ... ...
ROW 43 : ... .. . ... ... : ... .. . ... ... : ... .. . ... : ... .. . ... : ... .. . ... : ... .. . ... ... : ... .. . ... ...
ROW 44 : ... .. . ... ... : ... .. . ... ... : F#2 04 . ... : E-# 02 4 ... : ... .. . ... : ... .. . ... ... : D#3 01 . ... ...
ROW 45 : ... .. . ... ... : ... .. . ... ... : ... .. . ... : ... .. . ... : ... .. . ... : ... .. . ... ... : ... .. . ... ...
ROW 46 : ... .. . ... ... : ... .. . ... ... : ... .. . ... : ... .. . ... : ... .. . ... : ... .. . ... ... : ... .. . ... ...
ROW 47 : ... .. . ... ... : ... .. . ... ... : ... .. . ... : ... .. . ... : ... .. . ... : D#3 01 . ... ... : ... .. . ... ...
ROW 48 : A-2 00 1 ... ... : B-2 00 1 ... ... : F-2 04 . ... : F-# 02 8 ... : ... .. . ... : ... .. . ... ... : C#4 01 . ... ...
ROW 49 : ... .. 2 ... ... : ... .. 2 ... ... : ... .. . ... : ... .. . ... : ... .. . ... : ... .. . ... ... : ... .. . ... ...
ROW 4A : ... .. 3 ... ... : ... .. 3 ... ... : ... .. . ... : ... .. . ... : ... .. . ... : ... .. . ... ... : ... .. . ... ...
ROW 4B : ... .. 4 ... ... : ... .. 2 ... ... : ... .. . ... : ... .. . ... : ... .. . ... : C#4 01 . ... ... : ... .. . ... ...
ROW 4C : ... .. 3 ... ... : ... .. . ... ... : ... .. . ... : D-# 03 6 ... : ... .. . ... : ... .. . ... ... : ... .. . 411 ...
ROW 4D : ... .. . ... ... : ... .. . ... ... : ... .. . ... : ... .. . ... : ... .. . ... : ... .. . ... ... : ... .. . 411 ...
ROW 4E : ... .. . ... ... : ... .. . ... ... : ... .. . ... : ... .. . ... : ... .. . ... : ... .. . ... ... : ... .. . 422 ...
ROW 4F : ... .. . ... ... : ... .. . ... ... : ... .. . ... : ... .. . ... : ... .. . ... : ... .. . 411 ... : ... .. . 422 ...
ROW 50 : ... .. . ... ... : ... .. . ... ... : ... .. . ... : E-# 02 4 ... : ... .. . ... : ... .. . 411 ... : ... .. . 433 ...
ROW 51 : ... .. . ... ... : ... .. . ... ... : ... .. . ... : ... .. . ... : ... .. . ... : ... .. . 422 ... : ... .. . 443 ...
ROW 52 : ... .. . ... ... : ... .. . ... ... : ... .. . ... : ... .. . ... : ... .. . ... : ... .. . 422 ... : ... .. . 453 ...
ROW 53 : ... .. . ... ... : ... .. . ... ... : ... .. . ... : ... .. . ... : ... .. . ... : ... .. . 433 ... : ... .. . ... ...
ROW 54 : ... .. . ... ... : D#3 00 1 ... ... : C-2 04 . ... : F-# 02 6 ... : ... .. . ... : ... .. . 443 ... : ... .. . ... ...
ROW 55 : ... .. . ... ... : ... .. 2 ... ... : ... .. . ... : ... .. . ... : ... .. . ... : ... .. . 453 ... : ... .. . ... ...
ROW 56 : ... .. . ... ... : ... .. 3 ... ... : ... .. . ... : ... .. . ... : ... .. . ... : ... .. . ... ... : ... .. . ... ...
ROW 57 : ... .. . ... ... : ... .. . ... ... : ... .. . ... : ... .. . ... : ... .. . ... : ... .. . ... ... : ... .. . ... ...
ROW 58 : ... .. 2 ... ... : ... .. 2 ... ... : ... .. . ... : D-# 03 1 ... : ... .. . ... : ... .. . ... ... : ... .. . ... ...
ROW 59 : ... .. . ... ... : ... .. . ... ... : ... .. . ... : ... .. . ... : ... .. . ... : ... .. . ... ... : ... .. . ... ...
ROW 5A : ... .. . ... ... : ... .. . ... ... : ... .. . ... : ... .. . ... : ... .. . ... : ... .. . ... ... : ... .. . ... ...
ROW 5B : ... .. . ... ... : ... .. . ... ... : ... .. . ... : ... .. . ... : ... .. . ... : ... .. . ... ... : ... .. . ... ...
ROW 5C : ... .. 1 ... ... : ... .. 1 ... ... : D-2 04 . ... : E-# 02 4 ... : ... .. . ... : ... .. . ... ... : F-3 01 . 400 V00
ROW 5D : ... .. . ... ... : ... .. . ... ... : ... .. . ... : ... .. . ... : ... .. . ... : ... .. . ... ... : ... .. . ... ...
ROW 5E : ... .. . ... ... : ... .. . ... ... : ... .. . ... : ... .. . ... : ... .. . ... : ... .. . ... ... : ... .. . ... ...
ROW 5F : ... .. . ... ... : ... .. . ... ... : ... .. . ... : ... .. . ... : ... .. . ... : F-3 01 . 400 V00 : ... .. . ... ...

PATTERN 07
ROW 00 : F#2 00 1 V01 ... : C#3 00 1 V01 ... : D#2 04 . ... : F-# 02 8 ... : ... .. . ... : ... .. . ... ... : G#3 01 4 P7E ...
ROW 01 : ... .. 2 ... ... : ... .. 2 ... ... : ... .. . ... : ... .. . ... : ... .. . ... : ... .. . ... ... : ... .. 5 ... 400
ROW 02 : ... .. 3 ... ... : ... .. 3 ... ... : ... .. . ... : ... .. . ... : ... .. . ... : ... .. . ... ... : ... .. 6 P7F ...
ROW 03 : ... .. 4 ... ... : ... .. 4 ... ... : ... .. . ... : ... .. . ... : ... .. . ... : G#3 01 1 P7D ... : ... .. 7 ... ...
ROW 04 : ... .. 3 ... ... : ... .. 3 ... ... : ... .. . ... : D-# 03 6 ... : ... .. . ... : ... .. 2 ... 400 : ... .. . P80 ...
ROW 05 : ... .. . ... ... : ... .. . ... ... : ... .. . ... : ... .. . ... : ... .. . ... : ... .. . P7E ... : ... .. . ... ...
ROW 06 : ... .. . ... ... : ... .. . ... ... : ... .. . ... : ... .. . ... : ... .. . ... : ... .. . ... ... : ... .. . ... ...
ROW 07 : ... .. . ... ... : ... .. . ... ... : ... .. . ... : ... .. . ... : ... .. . ... : ... .. . P7F ... : ... .. . ... ...
ROW 08 : ... .. . ... ... : ... .. . ... ... : A#1 04 . ... : E-# 02 4 ... : ... .. . ... : ... .. . ... ... : G-3 01 . 300 ...
ROW 09 : ... .. . ... ... : ... .. . ... ... : ... .. . ... : ... .. . ... : ... .. . ... : ... .. . ... ... : ... .. . ... ...
ROW 0A : ... .. . ... ... : ... .. . ... ... : ... .. . ... : ... .. . ... : ... .. . ... : ... .. . ... ... : ... .. . ... ...
ROW 0B : ... .. . ... ... : ... .. . ... ... : ... .. . ... : ... .. . ... : ... .. . ... : G-3 01 . 300 ... : ... .. . ... ...
ROW 0C : ... .. . ... ... : ... .. . ... ... : ... .. . ... : F-# 02 6 ... : ... .. . ... : ... .. . ... ... : F#3 01 . ... ...
ROW 0D : ... .. . ... ... : ... .. . ... ... : ... .. . ... : ... .. . ... : ... .. . ... : ... .. . ... ... : ... .. . ... ...
ROW 0E : ... .. . ... ... : ... .. . ... ... : ... .. . ... : ... .. . ... : ... .. . ... : ... .. . ... ... : ... .. . ... ...
ROW 0F : ... .. . ... ... : ... .. . ... ... : ... .. . ... : ... .. . ... : ... .. . ... : F#3 01 . ... ... : ... .. . ... ...
ROW 10 : ... .. . ... ... : ... .. . ... ... : A#1 04 . ... : D-# 03 1 ... : ... .. . ... : ... .. . ... ... : ... .. . ... ...
ROW 11 : ... .. . ... ... : ... .. . ... ... : ... .. . ... : ... .. . ... : ... .. . ... : ... .. . ... ... : ... .. . ... ...
ROW 12 : ... .. . ... ... : ... .. . ... ... : ... .. . ... : ... .. . ... : ... .. . ... : ... .. . ... ... : ... .. . ... ...
ROW 13 : ... .. . ... ... : ... .. . ... ... : ... .. . ... : ... .. . ... : ... .. . ... : ... .. . ... ... : ... .. . ... ...
ROW 14 : ... .. . ... ... : ... .. . ... ... : A-1 00 . ... : E-# 02 4 ... : ... .. . ... : ... .. . ... ... : G#3 01 . ... ...
ROW 15 : ... .. . ... ... : ... .. . ... ... : ... .. . ... : ... .. . ... : ... .. . ... : ... .. . ... ... : ... .. . ... ...
ROW 16 : ... .. 2 ... ... : ... .. 2 ... ... : ... .. . ... : ... .. . ... : ... .. . ... : ... .. . ... ... : ... .. . ... ...
ROW 17 : ... .. 1 ... ... : ... .. 1 ... ... : ... .. . ... : ... .. . ... : ... .. . ... : G#3 01 . ... ... : ... .. . ... ...
ROW 18 : F#2 00 1 ... ... : C-3 00 1 ... ... : G#1 00 . ... : F-# 02 8 ... : ... .. . ... : ... .. . ... ... : F-3 01 . ... ...
ROW 19 : ... .. 2 ... ... : ... .. 2 ... ... : ... .. . ... : ... .. . ... : ... .. . ... : ... .. . ... ... : ... .. . ... ...
ROW 1A : ... .. . ... ... : ... .. . ... ... : ... .. . ... : ... .. . ... : ... .. . ... : ... .. . ... ... : ... .. . ... ...
ROW 1B : ... .. 3 ... ... : ... .. 3 ... ... : ... .. . ... : ... .. . ... : ... .. . ... : F-3 01 . ... ... : ... .. . ... ...
ROW 1C : ... .. . ... ... : ... .. . ... ... : ... .. . ... : D-# 03 6 ... : ... .. . ... : ... .. . ... ... : ... .. . 453 ...
ROW 1D : ... .. 4 ... ... : ... .. 4 ... ... : ... .. . ... : ... .. . ... : ... .. . ... : ... .. . ... ... : ... .. . ... ...
ROW 1E : ... .. . ... ... : ... .. . ... ... : ... .. . ... : ... .. . ... : ... .. . ... : ... .. . ... ... : ... .. . ... ...
ROW 1F : ... .. 3 ... ... : ... .. 3 ... ... : ... .. . ... : ... .. . ... : ... .. . ... : ... .. . 453 ... : ... .. . ... ...
ROW 20 : F-2 00 . ... ... : B-2 00 . ... ... : G-1 00 . ... : E-# 02 4 ... : ... .. . ... : ... .. . ... ... : E-3 01 . 400 ...
ROW 21 : ... .. . ... ... : ... .. . ... ... : ... .. . ... : ... .. . ... : ... .. . ... : ... .. . ... ... : ... .. . ... ...
ROW 22 : ... .. . ... ... : ... .. . ... ... : ... .. . ... : ... .. . ... : ... .. . ... : ... .. . ... ... : ... .. . ... ...
ROW 23 : ... .. . ... ... : ... .. . ... ... : ... .. . ... : ... .. . ... : ... .. . ... : E-3 01 . 400 ... : ... .. . ... ...
ROW 24 : ... .. . ... ... : ... .. . ... ... : ... .. . ... : F-# 02 6 ... : ... .. . ... : ... .. . ... ... : ... .. 6 ... ...
ROW 25 : ... .. . ... ... : ... .. . ... ... : ... .. . ... : ... .. . ... : ... .. . ... : ... .. . ... ... : ... .. 5 ... ...
ROW 26 : ... .. . ... ... : ... .. . ... ... : ... .. . ... : ... .. . ... : ... .. . ... : ... .. . ... ... : ... .. 4 ... ...
ROW 27 : ... .. . ... ... : ... .. . ... ... : ... .. . ... : ... .. . ... : ... .. . ... : ... .. . ... ... : ... .. 3 ... ...
ROW 28 : ... .. 2 ... ... : ... .. 2 ... ... : ... .. . ... : ... .. . ... : ... .. . ... : ... .. . ... ... : --- .. . ... ...
ROW 29 : ... .. . ... ... : ... .. . ... ... : ... .. . ... : ... .. . ... : ... .. . ... : ... .. . ... ... : ... .. . ... ...
ROW 2A : ... .. . ... ... : ... .. 1 ... ... : ... .. . ... : ... .. . ... : ... .. . ... : ... .. 1 ... ... : ... .. . ... ...
ROW 2B : ... .. 1 ... ... : --- .. . ... ... : --- .. . ... : ... .. . ... : ... .. . ... : --- .. . ... ... : ... .. . ... ...
ROW 2C : --- .. . ... ... : ... .. . ... ... : ... .. . ... : ... .. . ... : ... .. . ... : ... .. . ... ... : ... .. . ... ...
ROW 2D : ... .. . ... ... : ... .. . ... ... : ... .. . ... : ... .. . ... : ... .. . ... : ... .. . ... ... : ... .. . ... ...
ROW 2E : ... .. . ... ... : ... .. . ... ... : ... .. . ... : ... .. . ... : ... .. . ... : ... .. . ... ... : ... .. . ... ...
ROW 2F : ... .. . ... ... : ... .. . ... ... : ... .. . ... : ... .. . ... : ... .. . ... : ... .. . ... ... : ... .. . ... ...
ROW 30 : ... .. . ... ... : A#2 00 1 G02 ... : C#1 00 . ... : F-# 02 8 ... : ... .. . ... : ... .. . ... ... : C-3 01 6 200 ...
ROW 31 : F-2 00 1 ... ... : ... .. 2 ... ... : ... .. . ... : ... .. . ... : ... .. . ... : ... .. . ... ... : ... .. . ... ...
ROW 32 : ... .. 2 ... ... : ... .. 3 ... ... : ... .. . ... : ... .. . ... : ... .. . ... : ... .. . ... ... : ... .. . ... ...
ROW 33 : ... .. 3 ... ... : ... .. 4 ... ... : ... .. . ... : ... .. . ... : ... .. . ... : C-3 01 1 200 ... : ... .. . ... ...
ROW 34 : ... .. 4 ... ... : ... .. 3 ... ... : ... .. . ... : D-# 03 6 ... : ... .. . ... : ... .. 2 ... ... : ... .. . ... ...
ROW 35 : ... .. 3 ... ... : ... .. . ... ... : ... .. . ... : ... .. . ... : ... .. . ... : ... .. . ... ... : ... .. . ... ...
ROW 36 : ... .. . ... ... : ... .. . ... ... : ... .. . ... : ... .. . ... : ... .. . ... : ... .. . ... ... : ... .. . ... ...
ROW 37 : ... .. . ... ... : ... .. . ... ... : ... .. . ... : ... .. . ... : ... .. . ... : ... .. . ... ... : ... .. . ... ...
ROW 38 : ... .. . ... ... : ... .. . ... ... : ... .. . ... : E-# 02 4 ... : ... .. . ... : ... .. . ... ... : ... .. . ... ...
ROW 39 : ... .. . ... ... : ... .. . ... ... : ... .. . ... : ... .. . ... : ... .. . ... : ... .. . ... ... : ... .. . ... ...
ROW 3A : ... .. . ... ... : ... .. . ... ... : ... .. . ... : ... .. . ... : ... .. . ... : ... .. . ... ... : ... .. . ... ...
ROW 3B : ... .. . ... ... : ... .. . ... ... : ... .. . ... : ... .. . ... : ... .. . ... : ... .. . ... ... : ... .. . ... ...
ROW 3C : ... .. . ... ... : ... .. . ... ... : ... .. . ... : F-# 02 6 ... : D-3 00 . ... : ... .. . ... ... : ... .. 5 ... ...
ROW 3D : ... .. . ... ... : ... .. . ... ... : ... .. . ... : ... .. . ... : ... .. . ... : ... .. . ... ... : ... .. . ... ...
ROW 3E : ... .. . ... ... : ... .. . ... ... : ... .. . ... : ... .. . ... : ... .. . ... : ... .. . ... ... : ... .. . ... ...
ROW 3F : ... .. . ... ... : ... .. . ... ... : ... .. . ... : ... .. . ... : ... .. . ... : ... .. . ... ... : ... .. . ... ...
ROW 40 : ... .. 2 ... ... : ... .. 2 ... ... : ... .. . ... : D-# 03 1 ... : ... .. . ... : ... .. 1 ... ... : ... .. 4 ... ...
ROW 41 : ... .. . ... ... : ... .. . ... ... : ... .. . ... : ... .. . ... : ... .. . ... : ... .. . ... ... : ... .. . ... ...
ROW 42 : ... .. . ... ... : ... .. . ... ... : ... .. . ... : ... .. . ... : ... .. . ... : ... .. . ... ... : ... .. . ... ...
ROW 43 : ... .. . ... ... : ... .. . ... ... : ... .. . ... : ... .. . ... : ... .. . ... : ... .. . ... ... : ... .. . ... ...
ROW 44 : ... .. . ... ... : ... .. . ... ... : ... .. . ... : E-# 02 4 ... : ... .. . ... : ... .. . ... ... : ... .. 3 ... ...
ROW 45 : ... .. . ... ... : ... .. . ... ... : ... .. . ... : ... .. . ... : ... .. . ... : ... .. . ... ... : ... .. . ... ...
ROW 46 : ... .. . ... ... : ... .. . ... ... : ... .. . ... : ... .. . ... : ... .. . ... : ... .. . ... ... : ... .. . ... ...
ROW 47 : ... .. . ... ... : ... .. . ... ... : ... .. . ... : ... .. . ... : ... .. . ... : ... .. . ... ... : ... .. 2 ... ...
ROW 48 : ... .. . ... ... : ... .. . ... ... : ... .. . ... : F-# 02 6 ... : ... .. . ... : ... .. . ... ... : ... .. . ... ...
ROW 49 : ... .. 1 ... ... : ... .. . ... ... : ... .. . ... : ... .. . ... : ... .. . ... : ... .. . ... ... : ... .. . ... ...
ROW 4A : ... .. . ... ... : ... .. 1 ... ... : ... .. . ... : ... .. . ... : ... .. . ... : ... .. . ... ... : ... .. . ... ...
ROW 4B : ... .. . ... ... : ... .. . ... ... : ... .. . ... : ... .. . ... : ... .. . ... : ... .. . ... ... : ... .. 1 ... ...
ROW 4C : ... .. . ... ... : ... .. . ... ... : ... .. . ... : D-# 03 5 ... : ... .. . ... : ... .. . ... ... : ... .. . ... ...
ROW 4D : ... .. . ... ... : ... .. . ... ... : ... .. . ... : ... .. . ... : ... .. . ... : ... .. . ... ... : ... .. . ... ...
ROW 4E : ... .. . ... ... : ... .. . ... ... : ... .. . ... : ... .. . ... : ... .. . ... : ... .. . ... ... : ... .. . ... ...
ROW 4F : ... .. . ... ... : ... .. . ... ... : ... .. . ... : ... .. . ... : ... .. . ... : ... .. . ... ... : ... .. . ... ...
ROW 50 : ... .. . ... ... : ... .. . ... ... : ... .. . ... : E-# 02 4 ... : ... .. . ... : ... .. . ... ... : ... .. . ... ...
ROW 51 : ... .. . ... ... : ... .. . ... ... : ... .. . ... : ... .. . ... : ... .. . ... : ... .. . ... ... : ... .. . ... ...
ROW 52 : ... .. . ... ... : ... .. . ... ... : ... .. . ... : ... .. . ... : ... .. . ... : ... .. . ... ... : ... .. . ... ...
ROW 53 : ... .. . ... ... : ... .. . ... ... : ... .. . ... : ... .. . ... : ... .. . ... : ... .. . ... ... : ... .. . ... ...
ROW 54 : ... .. . ... ... : ... .. . ... ... : ... .. . ... : F-# 02 3 ... : ... .. . ... : ... .. . ... ... : ... .. . ... ...
ROW 55 : ... .. . ... ... : ... .. . ... ... : ... .. . ... : ... .. . ... : ... .. . ... : ... .. . ... ... : ... .. . ... ...
ROW 56 : ... .. . ... ... : ... .. . ... ... : ... .. . ... : ... .. . ... : ... .. . ... : ... .. . ... ... : ... .. . ... ...
ROW 57 : ... .. . ... ... : ... .. . ... ... : ... .. . ... : ... .. . ... : ... .. . ... : ... .. . ... ... : ... .. . ... ...
ROW 58 : --- .. . ... ... : ... .. . ... ... : ... .. . ... : D-# 03 1 ... : ... .. . ... : ... .. . ... ... : ... .. . ... ...
ROW 59 : ... .. . ... ... : ... .. . ... ... : ... .. . ... : ... .. . ... : ... .. . ... : ... .. . ... ... : ... .. . ... ...
ROW 5A : ... .. . ... ... : --- .. . ... ... : ... .. . ... : ... .. . ... : ... .. . ... : ... .. . ... ... : ... .. . ... ...
ROW 5B : ... .. . ... ... : ... .. . ... ... : ... .. . ... : ... .. . ... : ... .. . ... : ... .. . ... ... : ... .. . ... ...
ROW 5C : ... .. . ... ... : ... .. . ... ... : ... .. . ... : --- 02 . ... : ... .. . ... : ... .. . ... ... : --- .. . ... ...
ROW 5D : ... .. . ... ... : ... .. . ... ... : ... .. . ... : ... .. . ... : ... .. . ... : ... .. . ... ... : ... .. . ... ...
ROW 5E : ... .. . ... ... : ... .. . ... ... : --- .. . ... : ... .. . ... : ... .. . ... : ... .. . ... ... : ... .. . ... ...
ROW 5F : ... .. . ... ... : ... .. . ... ... : ... .. . ... : ... .. . ... : ... .. . ... : ... .. . ... ... : ... .. . ... ...

PATTERN 08
ROW 00 : G-2 0A 2 V02 ... : ... .. . ... ... : G-1 00 . ... : --- .. . ... : D-3 00 . ... : --- .. . ... ... : C-4 0A 6 V02 P80
ROW 01 : ... .. . ... ... : A#2 0A 3 V02 ... : ... .. . ... : ... .. . ... : ... .. . ... : ... .. . ... ... : ... .. . ... ...
ROW 02 : D-3 0A 4 ... ... : ... .. . ... ... : ... .. . ... : ... .. . ... : ... .. . ... : ... .. . ... ... : ... .. . ... ...
ROW 03 : ... .. . ... ... : F-3 0A 4 ... ... : ... .. . ... : ... .. . ... : ... .. . ... : ... .. . ... ... : ... .. . ... ...
ROW 04 : A-3 0A . ... ... : ... .. . ... ... : ... .. . ... : ... .. . ... : ... .. . ... : ... .. . ... ... : ... .. . ... ...
ROW 05 : ... .. . ... ... : ... .. . ... ... : ... .. . ... : ... .. . ... : ... .. . ... : C-4 0A 1 V02 P7F : ... .. . ... ...
ROW 06 : ... .. . ... ... : ... .. . ... ... : ... .. . ... : ... .. . ... : ... .. . ... : ... .. . ... ... : ... .. . ... ...
ROW 07 : ... .. . ... ... : ... .. . ... ... : ... .. . ... : ... .. . ... : ... .. . ... : ... .. . ... ... : ... .. . ... ...
ROW 08 : A#2 0A 5 ... ... : F-2 0A 3 ... ... : ... .. . ... : ... .. . ... : ... .. . ... : ... .. . ... ... : B-3 0A . ... ...
ROW 09 : ... .. . ... ... : ... .. . ... ... : ... .. . ... : ... .. . ... : ... .. . ... : ... .. . ... ... : ... .. . ... ...
ROW 0A : ... .. . ... ... : ... .. . ... ... : ... .. . ... : ... .. . ... : ... .. . ... : ... .. . ... ... : ... .. . ... ...
ROW 0B : ... .. . ... ... : ... .. . ... ... : ... .. . ... : ... .. . ... : ... .. . ... : ... .. . ... ... : ... .. . ... ...
ROW 0C : ... .. . ... ... : ... .. . ... ... : ... .. . ... : ... .. . ... : ... .. . ... : ... .. . ... ... : A#3 0A . ... ...
ROW 0D : ... .. . ... ... : ... .. . ... ... : ... .. . ... : ... .. . ... : ... .. . ... : B-3 0A . ... ... : ... .. . ... ...
ROW 0E : ... .. . ... ... : ... .. . ... ... : ... .. . ... : ... .. . ... : ... .. . ... : ... .. . ... ... : ... .. . ... ...
ROW 0F : ... .. . ... ... : ... .. . ... ... : ... .. . ... : ... .. . ... : ... .. . ... : ... .. . ... ... : ... .. . ... ...
ROW 10 : A#2 0A 5 ... ... : F-2 0A 5 ... ... : ... .. . ... : ... .. . ... : ... .. . ... : ... .. . ... ... : ... .. . ... ...
ROW 11 : ... .. . ... ... : ... .. . ... ... : ... .. . ... : ... .. . ... : ... .. . ... : A#3 0A . ... ... : ... .. . ... ...
ROW 12 : ... .. . ... ... : ... .. . ... ... : ... .. . ... : ... .. . ... : ... .. . ... : ... .. . ... ... : ... .. . ... ...
ROW 13 : ... .. . ... ... : ... .. . ... ... : ... .. . ... : ... .. . ... : ... .. . ... : ... .. . ... ... : ... .. . ... ...
ROW 14 : A#2 0A 7 ... ... : F-1 0A 7 ... ... : ... .. . ... : ... .. . ... : ... .. . ... : ... .. . ... ... : C-4 0A . ... ...
ROW 15 : ... .. . ... ... : ... .. . ... ... : ... .. . ... : ... .. . ... : ... .. . ... : ... .. . ... ... : ... .. . ... ...
ROW 16 : ... .. . ... ... : ... .. . ... ... : ... .. . ... : ... .. . ... : ... .. . ... : ... .. . ... ... : ... .. . ... ...
ROW 17 : ... .. . ... ... : ... .. . ... ... : ... .. . ... : ... .. . ... : ... .. . ... : ... .. . ... ... : A#3 0A 4 G04 ...
ROW 18 : C-1 0A 7 ... ... : ... .. . ... ... : C-2 00 . ... : ... .. . ... : ... .. . ... : ... .. . ... ... : A-3 0A 6 G02 ...
ROW 19 : ... .. . ... ... : ... .. . ... ... : ... .. . ... : ... .. . ... : ... .. . ... : C-4 0A . ... ... : ... .. . ... ...
ROW 1A : ... .. . ... ... : E-2 0A 4 ... ... : ... .. . ... : ... .. . ... : ... .. . ... : ... .. . ... ... : ... .. . ... ...
ROW 1B : ... .. . ... ... : ... .. . ... ... : ... .. . ... : ... .. . ... : ... .. . ... : ... .. . ... ... : ... .. . ... ...
ROW 1C : G#2 0A 5 ... ... : ... .. . ... ... : ... .. . ... : ... .. . ... : ... .. . ... : A#3 0A . G04 ... : ... .. . ... ...
ROW 1D : ... .. . ... ... : ... .. . ... ... : ... .. . ... : ... .. . ... : ... .. . ... : A-3 0A . G02 ... : ... .. . ... ...
ROW 1E : A#2 0A . ... ... : ... .. . ... ... : ... .. . ... : ... .. . ... : ... .. . ... : ... .. . ... ... : ... .. . ... ...
ROW 1F : ... .. . ... ... : ... .. . ... ... : ... .. . ... : ... .. . ... : ... .. . ... : ... .. . ... ... : ... .. . ... ...
ROW 20 : ... .. . ... ... : C-3 0A . ... ... : ... .. . ... : ... .. . ... : ... .. . ... : ... .. . ... ... : G#3 0A 5 ... ...
ROW 21 : ... .. . ... ... : ... .. . ... ... : ... .. . ... : ... .. . ... : ... .. . ... : ... .. . ... ... : ... .. . ... ...
ROW 22 : ... .. . ... ... : ... .. . ... ... : ... .. . ... : ... .. . ... : ... .. . ... : ... .. . ... ... : ... .. . ... ...
ROW 23 : ... .. . ... ... : ... .. . ... ... : ... .. . ... : ... .. . ... : ... .. . ... : ... .. . ... ... : ... .. . ... ...
ROW 24 : C-2 0A 3 ... ... : A#2 0A 3 ... ... : ... .. . ... : ... .. . ... : ... .. . ... : ... .. . ... ... : ... .. . ... ...
ROW 25 : ... .. . ... ... : ... .. . ... ... : ... .. . ... : ... .. . ... : ... .. . ... : G#3 0A . ... ... : ... .. . ... ...
ROW 26 : --- .. . ... ... : --- .. . ... ... : ... .. . ... : ... .. . ... : ... .. . ... : ... .. . ... ... : ... .. . ... ...
ROW 27 : ... .. . ... ... : ... .. . ... ... : ... .. . ... : ... .. . ... : ... .. . ... : ... .. . ... ... : ... .. . ... ...
ROW 28 : A#1 0A 2 ... ... : G-2 0A 2 ... ... : ... .. . ... : ... .. . ... : ... .. . ... : ... .. . ... ... : ... .. . ... ...
ROW 29 : ... .. . ... ... : ... .. . ... ... : ... .. . ... : ... .. . ... : ... .. . ... : ... .. . ... ... : ... .. . ... ...
ROW 2A : --- .. . ... ... : --- .. . ... ... : ... .. . ... : ... .. . ... : ... .. . ... : ... .. . ... ... : ... .. . ... ...
ROW 2B : ... .. . ... ... : ... .. . ... ... : ... .. . ... : ... .. . ... : ... .. . ... : ... .. . ... ... : ... .. . ... ...
ROW 2C : A#1 0A 1 ... ... : G-2 0A 1 ... ... : ... .. . ... : ... .. . ... : ... .. . ... : ... .. . ... ... : ... .. . ... ...
ROW 2D : ... .. . ... ... : ... .. . ... ... : ... .. . ... : ... .. . ... : ... .. . ... : ... .. . ... ... : ... .. . ... ...
ROW 2E : --- .. . ... ... : --- .. . ... ... : ... .. . ... : ... .. . ... : ... .. . ... : ... .. . ... ... : ... .. . ... ...
ROW 2F : ... .. . ... ... : ... .. . ... ... : ... .. . ... : ... .. . ... : ... .. . ... : ... .. . ... ... : ... .. . ... ...
ROW 30 : C-2 0A 3 ... ... : ... .. . ... ... : C-1 00 . ... : ... .. . ... : ... .. . ... : ... .. . ... ... : D-4 0A 6 ... ...
ROW 31 : ... .. . ... ... : ... .. . ... ... : ... .. . ... : ... .. . ... : ... .. . ... : ... .. . ... ... : ... .. . ... ...
ROW 32 : ... .. . ... ... : D#2 0A 4 ... ... : ... .. . ... : ... .. . ... : ... .. . ... : ... .. . ... ... : ... .. . ... ...
ROW 33 : ... .. . ... ... : ... .. . ... ... : ... .. . ... : ... .. . ... : ... .. . ... : ... .. . ... ... : ... .. . ... ...
ROW 34 : G-2 0A 5 ... ... : ... .. . ... ... : ... .. . ... : ... .. . ... : ... .. . ... : ... .. . ... ... : ... .. . ... ...
ROW 35 : ... .. . ... ... : ... .. . ... ... : ... .. . ... : ... .. . ... : ... .. . ... : D-4 0A 1 ... ... : ... .. . ... ...
ROW 36 : ... .. . ... ... : A#2 0A 6 ... ... : ... .. . ... : ... .. . ... : ... .. . ... : ... .. . ... ... : ... .. . ... ...
ROW 37 : ... .. . ... ... : ... .. . ... ... : ... .. . ... : ... .. . ... : ... .. . ... : ... .. . ... ... : ... .. . ... ...
ROW 38 : C-3 0A 7 ... ... : ... .. . ... ... : ... .. . ... : ... .. . ... : ... .. . ... : ... .. . ... ... : D#4 0A 5 ... ...
ROW 39 : ... .. . ... ... : ... .. . ... ... : ... .. . ... : ... .. . ... : ... .. . ... : ... .. . ... ... : ... .. . ... ...
ROW 3A : ... .. . ... ... : A#2 0A 6 ... ... : ... .. . ... : ... .. . ... : ... .. . ... : ... .. . ... ... : ... .. . ... ...
ROW 3B : ... .. . ... ... : ... .. . ... ... : ... .. . ... : ... .. . ... : ... .. . ... : ... .. . ... ... : ... .. . ... ...
ROW 3C : G-2 0A 4 ... ... : ... .. . ... ... : ... .. . ... : ... .. . ... : ... .. . ... : ... .. . ... ... : C-4 0A 7 ... ...
ROW 3D : ... .. . ... ... : ... .. . ... ... : ... .. . ... : ... .. . ... : ... .. . ... : D#4 0A . ... ... : ... .. . ... ...
ROW 3E : ... .. . ... ... : D#2 0A 5 ... ... : ... .. . ... : ... .. . ... : ... .. . ... : ... .. . ... ... : ... .. . ... ...
ROW 3F : ... .. . ... ... : ... .. . ... ... : ... .. . ... : ... .. . ... : ... .. . ... : ... .. . ... ... : ... .. . ... ...
ROW 40 : C-2 0A 6 ... ... : ... .. . ... ... : ... .. . ... : ... .. . ... : ... .. . ... : ... .. . ... ... : ... .. . ... ...
ROW 41 : ... .. . ... ... : ... .. . ... ... : ... .. . ... : ... .. . ... : ... .. . ... : C-4 0A . ... ... : ... .. . ... ...
ROW 42 : ... .. . ... ... : A#1 0A 7 ... ... : ... .. . ... : ... .. . ... : ... .. . ... : ... .. . ... ... : ... .. . ... ...
ROW 43 : ... .. . ... ... : ... .. . ... ... : ... .. . ... : ... .. . ... : ... .. . ... : ... .. . ... ... : G#3 0A 5 G03 ...
ROW 44 : G-1 0A 6 ... ... : ... .. . ... ... : ... .. . ... : ... .. . ... : ... .. . ... : ... .. . ... ... : A#3 0A 7 G02 ...
ROW 45 : ... .. . ... ... : ... .. . ... ... : ... .. . ... : ... .. . ... : ... .. . ... : ... .. . ... ... : ... .. . ... ...
ROW 46 : ... .. . ... ... : D#1 0A 5 ... ... : ... .. . ... : ... .. . ... : ... .. . ... : ... .. . ... ... : ... .. . ... ...
ROW 47 : ... .. . ... ... : ... .. . ... ... : ... .. . ... : ... .. . ... : ... .. . ... : ... .. . ... ... : ... .. . ... ...
ROW 48 : F-1 0A 2 ... ... : ... .. . ... ... : F-1 00 . ... : ... .. . ... : ... .. . ... : G#3 0A . G03 ... : --- .. . ... ...
ROW 49 : ... .. . ... ... : A-1 0A 3 ... ... : ... .. . ... : ... .. . ... : ... .. . ... : A#3 0A . G02 ... : ... .. . ... ...
ROW 4A : C-2 0A 4 ... ... : ... .. . ... ... : ... .. . ... : ... .. . ... : ... .. . ... : ... .. . ... ... : ... .. . ... ...
ROW 4B : ... .. . ... ... : D#2 0A 5 ... ... : ... .. . ... : ... .. . ... : ... .. . ... : ... .. . ... ... : ... .. . ... ...
ROW 4C : ... .. . ... ... : ... .. . ... ... : ... .. . ... : ... .. . ... : ... .. . ... : ... .. . ... ... : A-3 0A 6 ... ...
ROW 4D : ... .. . ... ... : ... .. . ... ... : ... .. . ... : ... .. . ... : ... .. . ... : --- .. . ... ... : ... .. . ... ...
ROW 4E : ... .. . ... ... : ... .. . ... ... : ... .. . ... : ... .. . ... : ... .. . ... : ... .. . ... ... : ... .. . ... ...
ROW 4F : ... .. . ... ... : ... .. . ... ... : ... .. . ... : ... .. . ... : ... .. . ... : ... .. . ... ... : ... .. . ... ...
ROW 50 : C-2 0A . ... ... : D#2 0A . ... ... : F-2 04 . ... : ... .. . ... : ... .. . ... : ... .. . ... ... : ... .. . ... ...
ROW 51 : ... .. . ... ... : ... .. . ... ... : ... .. . ... : ... .. . ... : ... .. . ... : A-3 0A . ... ... : ... .. . ... ...
ROW 52 : ... .. . ... ... : ... .. . ... ... : ... .. . ... : ... .. . ... : ... .. . ... : ... .. . ... ... : ... .. . ... ...
ROW 53 : ... .. . ... ... : ... .. . ... ... : ... .. . ... : ... .. . ... : ... .. . ... : ... .. . ... ... : ... .. . ... ...
ROW 54 : C-2 0A . ... ... : D#2 0A . ... ... : F-1 04 . ... : ... .. . ... : ... .. . ... : ... .. . ... ... : ... .. . ... ...
ROW 55 : ... .. . ... ... : ... .. . ... ... : ... .. . ... : ... .. . ... : ... .. . ... : ... .. . ... ... : ... .. . ... ...
ROW 56 : ... .. . ... ... : ... .. . ... ... : ... .. . ... : ... .. . ... : ... .. . ... : ... .. . ... ... : ... .. . ... ...
ROW 57 : ... .. . ... ... : ... .. . ... ... : ... .. . ... : ... .. . ... : ... .. . ... : ... .. . ... ... : ... .. . ... ...
ROW 58 : ... .. . ... ... : ... .. . ... ... : ... .. . ... : ... .. . ... : ... .. . ... : ... .. . ... ... : --- .. . ... ...
ROW 59 : ... .. . ... ... : ... .. . ... ... : ... .. . ... : ... .. . ... : ... .. . ... : ... .. . ... ... : ... .. . ... ...
ROW 5A : ... .. . ... ... : ... .. . ... ... : ... .. . ... : ... .. . ... : ... .. . ... : ... .. . ... ... : ... .. . ... ...
ROW 5B : ... .. . ... ... : ... .. . ... ... : ... .. . ... : ... .. . ... : ... .. . ... : ... .. . ... ... : ... .. . ... ...
ROW 5C : C-2 0A . ... ... : A-1 0A . ... ... : ... .. . ... : ... .. . ... : ... .. . ... : ... .. . ... ... : ... .. . ... ...
ROW 5D : ... .. . ... ... : ... .. . ... ... : ... .. . ... : ... .. . ... : ... .. . ... : ... .. . ... ... : ... .. . ... ...
ROW 5E : ... .. . ... ... : ... .. . ... ... : ... .. . ... : ... .. . ... : ... .. . ... : ... .. . ... ... : ... .. . ... ...
ROW 5F : ... .. . ... ... : ... .. . ... ... : ... .. . ... : ... .. . ... : ... .. . ... : ... .. . ... ... : ... .. . ... ...

PATTERN 09
ROW 00 : C#2 0A 3 V02 ... : ... .. . ... ... : F#1 00 . ... : ... .. . ... : ... .. . ... : --- .. . ... ... : C#4 0A 6 V02 ...
ROW 01 : ... .. . ... ... : ... .. . ... ... : ... .. . ... : ... .. . ... : ... .. . ... : ... .. . ... ... : ... .. . ... ...
ROW 02 : ... .. . ... ... : E-2 0A 4 V02 ... : ... .. . ... : ... .. . ... : ... .. . ... : ... .. . ... ... : ... .. . ... ...
ROW 03 : ... .. . ... ... : ... .. . ... ... : ... .. . ... : ... .. . ... : ... .. . ... : ... .. . ... ... : ... .. . ... ...
ROW 04 : G#2 0A 5 ... ... : ... .. . ... ... : ... .. . ... : ... .. . ... : ... .. . ... : ... .. . ... ... : ... .. . ... ...
ROW 05 : ... .. . ... ... : ... .. . ... ... : ... .. . ... : ... .. . ... : ... .. . ... : C#4 0A 1 V02 ... : ... .. . ... ...
ROW 06 : ... .. . ... ... : A#2 0A 6 ... ... : ... .. . ... : ... .. . ... : ... .. . ... : ... .. . ... ... : ... .. . ... ...
ROW 07 : ... .. . ... ... : ... .. . ... ... : ... .. . ... : ... .. . ... : ... .. . ... : ... .. . ... ... : ... .. . ... ...
ROW 08 : C#3 0A 7 ... ... : ... .. . ... ... : ... .. . ... : ... .. . ... : ... .. . ... : ... .. . ... ... : D#4 0A 5 ... ...
ROW 09 : ... .. . ... ... : ... .. . ... ... : ... .. . ... : ... .. . ... : ... .. . ... : ... .. . ... ... : ... .. . ... ...
ROW 0A : ... .. . ... ... : E-3 0A 6 ... ... : ... .. . ... : ... .. . ... : ... .. . ... : ... .. . ... ... : ... .. . ... ...
ROW 0B : ... .. . ... ... : ... .. . ... ... : ... .. . ... : ... .. . ... : ... .. . ... : ... .. . ... ... : ... .. . ... ...
ROW 0C : F#3 0A 5 ... ... : ... .. . ... ... : ... .. . ... : ... .. . ... : ... .. . ... : ... .. . ... ... : D-4 0A 4 ... ...
ROW 0D : ... .. . ... ... : ... .. . ... ... : ... .. . ... : ... .. . ... : ... .. . ... : D#4 0A . ... ... : ... .. . ... ...
ROW 0E : ... .. . ... ... : G#3 0A 5 ... ... : ... .. . ... : ... .. . ... : ... .. . ... : ... .. . ... ... : ... .. . ... ...
ROW 0F : ... .. . ... ... : ... .. . ... ... : ... .. . ... : ... .. . ... : ... .. . ... : ... .. . ... ... : ... .. . ... ...
ROW 10 : F#3 0A 4 ... ... : ... .. . ... ... : ... .. . ... : ... .. . ... : ... .. . ... : ... .. . ... ... : ... .. . ... ...
ROW 11 : ... .. . ... ... : ... .. . ... ... : ... .. . ... : ... .. . ... : ... .. . ... : D-4 0A . ... ... : ... .. . ... ...
ROW 12 : ... .. . ... ... : E-3 0A 4 ... ... : ... .. . ... : ... .. . ... : ... .. . ... : ... .. . ... ... : ... .. . ... ...
ROW 13 : ... .. . ... ... : ... .. . ... ... : ... .. . ... : ... .. . ... : ... .. . ... : ... .. . ... ... : ... .. . ... ...
ROW 14 : C#3 0A 3 ... ... : ... .. . ... ... : ... .. . ... : ... .. . ... : ... .. . ... : ... .. . ... ... : C#4 0A . ... ...
ROW 15 : ... .. . ... ... : ... .. . ... ... : ... .. . ... : ... .. . ... : ... .. . ... : ... .. . ... ... : ... .. . ... ...
ROW 16 : ... .. . ... ... : A#2 0A 3 ... ... : ... .. . ... : ... .. . ... : ... .. . ... : ... .. . ... ... : ... .. . ... ...
ROW 17 : ... .. . ... ... : ... .. . ... ... : ... .. . ... : ... .. . ... : ... .. . ... : ... .. . ... ... : ... .. . ... ...
ROW 18 : F#2 0A 3 ... ... : ... .. . ... ... : ... .. . ... : ... .. . ... : ... .. . ... : ... .. . ... ... : A#3 0A 5 ... ...
ROW 19 : ... .. . ... ... : ... .. . ... ... : ... .. . ... : ... .. . ... : ... .. . ... : C#4 0A . ... ... : ... .. . ... ...
ROW 1A : ... .. . ... ... : A#2 0A 4 ... ... : ... .. . ... : ... .. . ... : ... .. . ... : ... .. . ... ... : ... .. . ... ...
ROW 1B : ... .. . ... ... : ... .. . ... ... : ... .. . ... : ... .. . ... : ... .. . ... : ... .. . ... ... : ... .. . ... ...
ROW 1C : C#3 0A 5 ... ... : ... .. . ... ... : ... .. . ... : ... .. . ... : ... .. . ... : ... .. . ... ... : ... .. . ... ...
ROW 1D : ... .. . ... ... : ... .. . ... ... : ... .. . ... : ... .. . ... : ... .. . ... : A#3 0A . ... ... : ... .. . ... ...
ROW 1E : ... .. . ... ... : A#2 0A 6 ... ... : ... .. . ... : ... .. . ... : ... .. . ... : ... .. . ... ... : ... .. . ... ...
ROW 1F : ... .. . ... ... : ... .. . ... ... : ... .. . ... : ... .. . ... : ... .. . ... : ... .. . ... ... : ... .. . ... ...
ROW 20 : D#3 0A 5 ... ... : ... .. . ... ... : ... .. . ... : ... .. . ... : ... .. . ... : ... .. . ... ... : ... .. . ... ...
ROW 21 : ... .. . ... ... : ... .. . ... ... : ... .. . ... : ... .. . ... : ... .. . ... : ... .. . ... ... : ... .. . ... ...
ROW 22 : ... .. . ... ... : C#3 0A 5 ... ... : ... .. . ... : ... .. . ... : ... .. . ... : ... .. . ... ... : ... .. . ... ...
ROW 23 : ... .. . ... ... : ... .. . ... ... : ... .. . ... : ... .. . ... : ... .. . ... : ... .. . ... ... : ... .. . ... ...
ROW 24 : A#2 0A 4 ... ... : ... .. . ... ... : ... .. . ... : ... .. . ... : ... .. . ... : ... .. . ... ... : ... .. . ... ...
ROW 25 : ... .. . ... ... : ... .. . ... ... : ... .. . ... : ... .. . ... : ... .. . ... : ... .. . ... ... : ... .. . ... ...
ROW 26 : ... .. . ... ... : F#2 0A 4 ... ... : ... .. . ... : ... .. . ... : ... .. . ... : ... .. . ... ... : ... .. . ... ...
ROW 27 : ... .. . ... ... : ... .. . ... ... : ... .. . ... : ... .. . ... : ... .. . ... : ... .. . ... ... : ... .. . ... ...
ROW 28 : C#2 0A 3 ... ... : ... .. . ... ... : ... .. . ... : ... .. . ... : ... .. . ... : ... .. . ... ... : ... .. . ... ...
ROW 29 : ... .. . ... ... : ... .. . ... ... : ... .. . ... : ... .. . ... : ... .. . ... : ... .. . ... ... : ... .. . ... ...
ROW 2A : ... .. . ... ... : D#2 0A 3 ... ... : ... .. . ... : ... .. . ... : ... .. . ... : ... .. . ... ... : ... .. . ... ...
ROW 2B : ... .. . ... ... : ... .. . ... ... : ... .. . ... : ... .. . ... : ... .. . ... : ... .. . ... ... : ... .. . ... ...
ROW 2C : E-2 0A 2 ... ... : ... .. . ... ... : ... .. . ... : ... .. . ... : ... .. . ... : ... .. . ... ... : F#3 0A 6 ... ...
ROW 2D : ... .. . ... ... : ... .. . ... ... : ... .. . ... : ... .. . ... : ... .. . ... : ... .. . ... ... : ... .. . ... ...
ROW 2E : ... .. . ... ... : F#2 0A 1 ... ... : ... .. . ... : ... .. . ... : ... .. . ... : ... .. . ... ... : ... .. . ... ...
ROW 2F : ... .. . ... ... : ... .. . ... ... : ... .. . ... : ... .. . ... : ... .. . ... : ... .. . ... ... : ... .. . ... ...
ROW 30 : D#2 0A 2 ... ... : ... .. . ... ... : B-1 00 . ... : ... .. . ... : ... .. . ... : ... .. . ... ... : G#3 0A 7 ... ...
ROW 31 : ... .. . ... ... : ... .. . ... ... : ... .. . ... : ... .. . ... : ... .. . ... : F#3 0A . ... ... : ... .. . ... ...
ROW 32 : ... .. . ... ... : F#2 0A 3 ... ... : ... .. . ... : ... .. . ... : ... .. . ... : ... .. . ... ... : ... .. . ... ...
ROW 33 : ... .. . ... ... : ... .. . ... ... : ... .. . ... : ... .. . ... : ... .. . ... : ... .. . ... ... : ... .. . ... ...
ROW 34 : B-2 0A 4 ... ... : ... .. . ... ... : ... .. . ... : ... .. . ... : ... .. . ... : ... .. . ... ... : ... .. . ... ...
ROW 35 : ... .. . ... ... : ... .. . ... ... : ... .. . ... : ... .. . ... : ... .. . ... : G#3 0A . ... ... : ... .. . ... ...
ROW 36 : ... .. . ... ... : ... .. . ... ... : ... .. . ... : ... .. . ... : ... .. . ... : ... .. . ... ... : ... .. . ... ...
ROW 37 : ... .. . ... ... : ... .. . ... ... : ... .. . ... : ... .. . ... : ... .. . ... : ... .. . ... ... : ... .. . ... ...
ROW 38 : ... .. . ... ... : ... .. . ... ... : ... .. . ... : ... .. . ... : ... .. . ... : ... .. . ... ... : F#3 0A 6 ... ...
ROW 39 : ... .. . ... ... : ... .. . ... ... : ... .. . ... : ... .. . ... : ... .. . ... : ... .. . ... ... : ... .. . ... ...
ROW 3A : ... .. . ... ... : ... .. . ... ... : ... .. . ... : ... .. . ... : ... .. . ... : ... .. . ... ... : ... .. . ... ...
ROW 3B : ... .. . ... ... : ... .. . ... ... : ... .. . ... : ... .. . ... : ... .. . ... : ... .. . ... ... : G-3 0A 5 G03 ...
ROW 3C : F#2 0A 3 ... ... : ... .. . ... ... : ... .. . ... : ... .. . ... : ... .. . ... : ... .. . ... ... : G#3 0A 7 G02 ...
ROW 3D : ... .. . ... ... : ... .. . ... ... : ... .. . ... : ... .. . ... : ... .. . ... : F#3 0A . ... ... : ... .. . ... ...
ROW 3E : ... .. . ... ... : B-2 0A 4 ... ... : ... .. . ... : ... .. . ... : ... .. . ... : ... .. . ... ... : ... .. . ... ...
ROW 3F : ... .. . ... ... : ... .. . ... ... : ... .. . ... : ... .. . ... : ... .. . ... : ... .. . ... ... : ... .. . ... ...
ROW 40 : C#3 0A 5 ... ... : ... .. . ... ... : ... .. . ... : ... .. . ... : ... .. . ... : G-3 0A . G03 ... : ... .. . ... ...
ROW 41 : ... .. . ... ... : ... .. . ... ... : ... .. . ... : ... .. . ... : ... .. . ... : G#3 0A . G02 ... : ... .. . ... ...
ROW 42 : ... .. . ... ... : ... .. . ... ... : ... .. . ... : ... .. . ... : ... .. . ... : ... .. . ... ... : ... .. . ... ...
ROW 43 : ... .. . ... ... : ... .. . ... ... : ... .. . ... : ... .. . ... : ... .. . ... : ... .. . ... ... : ... .. . ... ...
ROW 44 : ... .. . ... ... : ... .. . ... ... : ... .. . ... : ... .. . ... : ... .. . ... : ... .. . ... ... : A#3 0A 6 ... ...
ROW 45 : ... .. . ... ... : ... .. . ... ... : ... .. . ... : ... .. . ... : ... .. . ... : ... .. . ... ... : ... .. . ... ...
ROW 46 : ... .. . ... ... : ... .. . ... ... : ... .. . ... : ... .. . ... : ... .. . ... : ... .. . ... ... : ... .. . ... ...
ROW 47 : ... .. . ... ... : ... .. . ... ... : ... .. . ... : ... .. . ... : ... .. . ... : ... .. . ... ... : ... .. . ... ...
ROW 48 : B-2 0A 4 ... ... : ... .. . ... ... : ... .. . ... : ... .. . ... : ... .. . ... : ... .. . ... ... : ... .. . ... ...
ROW 49 : ... .. . ... ... : ... .. . ... ... : ... .. . ... : ... .. . ... : ... .. . ... : A#3 0A . ... ... : ... .. . ... ...
ROW 4A : ... .. . ... ... : C#3 0A 5 ... ... : ... .. . ... : ... .. . ... : ... .. . ... : ... .. . ... ... : ... .. . ... ...
ROW 4B : ... .. . ... ... : ... .. . ... ... : ... .. . ... : ... .. . ... : ... .. . ... : ... .. . ... ... : ... .. . ... ...
ROW 4C : G#3 0A 5 ... ... : ... .. . ... ... : ... .. . ... : ... .. . ... : ... .. . ... : ... .. . ... ... : ... .. . ... ...
ROW 4D : ... .. . ... ... : ... .. . ... ... : ... .. . ... : ... .. . ... : ... .. . ... : ... .. . ... ... : ... .. . ... ...
ROW 4E : ... .. . ... ... : F#3 0A 4 ... ... : ... .. . ... : ... .. . ... : ... .. . ... : ... .. . ... ... : ... .. . ... ...
ROW 4F : ... .. . ... ... : ... .. . ... ... : ... .. . ... : ... .. . ... : ... .. . ... : ... .. . ... ... : ... .. . ... ...
ROW 50 : D#3 0A 4 ... ... : ... .. . ... ... : ... .. . ... : ... .. . ... : ... .. . ... : ... .. . ... ... : F#3 0A 5 ... ...
ROW 51 : ... .. . ... ... : ... .. . ... ... : ... .. . ... : ... .. . ... : ... .. . ... : ... .. . ... ... : ... .. . ... ...
ROW 52 : ... .. . ... ... : B-2 0A 3 ... ... : ... .. . ... : ... .. . ... : ... .. . ... : ... .. . ... ... : ... .. . ... ...
ROW 53 : ... .. . ... ... : ... .. . ... ... : ... .. . ... : ... .. . ... : ... .. . ... : ... .. . ... ... : ... .. . ... ...
ROW 54 : F#2 0A 3 ... ... : ... .. . ... ... : ... .. . ... : ... .. . ... : ... .. . ... : ... .. . ... ... : G#3 0A 6 ... ...
ROW 55 : ... .. . ... ... : ... .. . ... ... : ... .. . ... : ... .. . ... : ... .. . ... : F#3 0A . ... ... : ... .. . ... ...
ROW 56 : ... .. . ... ... : D#2 0A 3 ... ... : ... .. . ... : ... .. . ... : ... .. . ... : ... .. . ... ... : ... .. . ... ...
ROW 57 : ... .. . ... ... : ... .. . ... ... : ... .. . ... : ... .. . ... : ... .. . ... : ... .. . ... ... : ... .. . ... ...
ROW 58 : C#2 0A 4 ... ... : ... .. . ... ... : ... .. . ... : ... .. . ... : ... .. . ... : ... .. . ... ... : ... .. . ... ...
ROW 59 : ... .. . ... ... : ... .. . ... ... : ... .. . ... : ... .. . ... : ... .. . ... : G#3 0A . ... ... : ... .. . ... ...
ROW 5A : ... .. . ... ... : D#2 0A 3 ... ... : ... .. . ... : ... .. . ... : ... .. . ... : ... .. . ... ... : ... .. . ... ...
ROW 5B : ... .. . ... ... : ... .. . ... ... : ... .. . ... : ... .. . ... : ... .. . ... : ... .. . ... ... : ... .. . ... ...
ROW 5C : C#2 0A 2 ... ... : ... .. . ... ... : D#1 00 . ... : ... .. . ... : ... .. . ... : ... .. . ... ... : ... .. . ... ...
ROW 5D : ... .. . ... ... : ... .. . ... ... : ... .. . ... : ... .. . ... : ... .. . ... : ... .. . ... ... : ... .. . ... ...
ROW 5E : ... .. . ... ... : B-1 0A 2 ... ... : ... .. . ... : ... .. . ... : ... .. . ... : ... .. . ... ... : ... .. . ... ...
ROW 5F : ... .. . ... ... : ... .. . ... ... : ... .. . ... : ... .. . ... : ... .. . ... : ... .. . ... ... : ... .. . ... ...

PATTERN 0A
ROW 00 : D-2 0A 3 V02 ... : ... .. . ... ... : D-1 00 . ... : ... .. . ... : ... .. . ... : ... .. . ... ... : E-4 0A 6 V02 ...
ROW 01 : ... .. . ... ... : ... .. . ... ... : ... .. . ... : ... .. . ... : ... .. . ... : ... .. . ... ... : ... .. . ... ...
ROW 02 : ... .. . ... ... : F-2 0A 4 V02 ... : ... .. . ... : ... .. . ... : ... .. . ... : ... .. . ... ... : ... .. . ... ...
ROW 03 : ... .. . ... ... : ... .. . ... ... : ... .. . ... : ... .. . ... : ... .. . ... : ... .. . ... ... : ... .. . ... ...
ROW 04 : A-2 0A . ... ... : ... .. . ... ... : ... .. . ... : ... .. . ... : ... .. . ... : ... .. . ... ... : ... .. . ... ...
ROW 05 : ... .. . ... ... : ... .. . ... ... : ... .. . ... : ... .. . ... : ... .. . ... : E-4 0A 1 V02 ... : ... .. . ... ...
ROW 06 : ... .. . ... ... : C-3 0A . ... ... : ... .. . ... : ... .. . ... : ... .. . ... : ... .. . ... ... : ... .. . ... ...
ROW 07 : ... .. . ... ... : ... .. . ... ... : ... .. . ... : ... .. . ... : ... .. . ... : ... .. . ... ... : ... .. . ... ...
ROW 08 : D-3 0A 3 ... ... : F-2 0A 3 ... ... : ... .. . ... : ... .. . ... : ... .. . ... : ... .. . ... ... : ... .. . ... ...
ROW 09 : ... .. . ... ... : ... .. . ... ... : ... .. . ... : ... .. . ... : ... .. . ... : ... .. . ... ... : ... .. . ... ...
ROW 0A : ... .. . ... ... : ... .. . ... ... : ... .. . ... : ... .. . ... : ... .. . ... : ... .. . ... ... : ... .. . ... ...
ROW 0B : ... .. . ... ... : ... .. . ... ... : ... .. . ... : ... .. . ... : ... .. . ... : ... .. . ... ... : ... .. . ... ...
ROW 0C : D-3 0A 2 ... ... : F-2 0A 2 ... ... : ... .. . ... : ... .. . ... : ... .. . ... : ... .. . ... ... : ... .. . ... ...
ROW 0D : ... .. . ... ... : ... .. . ... ... : ... .. . ... : ... .. . ... : ... .. . ... : ... .. . ... ... : ... .. . ... ...
ROW 0E : ... .. . ... ... : ... .. . ... ... : ... .. . ... : ... .. . ... : ... .. . ... : ... .. . ... ... : ... .. . ... ...
ROW 0F : ... .. . ... ... : ... .. . ... ... : ... .. . ... : ... .. . ... : ... .. . ... : ... .. . ... ... : ... .. . ... ...
ROW 10 : D-3 0A 3 ... ... : F-2 0A 3 ... ... : ... .. . ... : ... .. . ... : ... .. . ... : ... .. . ... ... : ... .. . ... ...
ROW 11 : ... .. . ... ... : ... .. . ... ... : ... .. . ... : ... .. . ... : ... .. . ... : ... .. . ... ... : ... .. . ... ...
ROW 12 : ... .. . ... ... : ... .. . ... ... : ... .. . ... : ... .. . ... : ... .. . ... : ... .. . ... ... : ... .. . ... ...
ROW 13 : ... .. . ... ... : ... .. . ... ... : ... .. . ... : ... .. . ... : ... .. . ... : ... .. . ... ... : ... .. . ... ...
ROW 14 : D-3 0A 4 ... ... : F-2 0A 4 ... ... : F-1 00 . ... : ... .. . ... : ... .. . ... : ... .. . ... ... : B-3 0A 1 ... ...
ROW 15 : ... .. . ... ... : ... .. . ... ... : ... .. . ... : ... .. . ... : ... .. . ... : ... .. . ... ... : C-4 0A . ... ...
ROW 16 : ... .. . ... ... : ... .. . ... ... : ... .. . ... : ... .. . ... : ... .. . ... : ... .. . ... ... : C#4 0A 2 ... ...
ROW 17 : ... .. . ... ... : ... .. . ... ... : ... .. . ... : ... .. . ... : ... .. . ... : ... .. . ... ... : D-4 0A 3 ... ...
ROW 18 : G-2 0A . ... ... : ... .. . ... ... : G-1 00 . ... : ... .. . ... : ... .. . ... : ... .. . ... ... : D#4 0A 6 ... ...
ROW 19 : ... .. . ... ... : ... .. . ... ... : ... .. . ... : ... .. . ... : ... .. . ... : B-3 0A . ... ... : ... .. . ... ...
ROW 1A : ... .. . ... ... : ... .. . ... ... : ... .. . ... : ... .. . ... : ... .. . ... : C-4 0A . ... ... : ... .. . ... ...
ROW 1B : ... .. . ... ... : ... .. . ... ... : ... .. . ... : ... .. . ... : ... .. . ... : C#4 0A . ... ... : ... .. . ... ...
ROW 1C : ... .. . ... ... : B-2 0A . ... ... : ... .. . ... : ... .. . ... : ... .. . ... : D-4 0A . ... ... : ... .. . ... ...
ROW 1D : ... .. . ... ... : ... .. . ... ... : ... .. . ... : ... .. . ... : ... .. . ... : D#4 0A . ... ... : ... .. . ... ...
ROW 1E : ... .. . ... ... : ... .. . ... ... : ... .. . ... : ... .. . ... : ... .. . ... : ... .. . ... ... : ... .. . ... ...
ROW 1F : ... .. . ... ... : ... .. . ... ... : ... .. . ... : ... .. . ... : ... .. . ... : ... .. . ... ... : ... .. . ... ...
ROW 20 : D#3 0A . ... ... : ... .. . ... ... : ... .. . ... : ... .. . ... : ... .. . ... : ... .. . ... ... : ... .. . ... ...
ROW 21 : ... .. . ... ... : ... .. . ... ... : ... .. . ... : ... .. . ... : ... .. . ... : ... .. . ... ... : ... .. . ... ...
ROW 22 : ... .. . ... ... : ... .. . ... ... : ... .. . ... : ... .. . ... : ... .. . ... : ... .. . ... ... : ... .. . ... ...
ROW 23 : ... .. . ... ... : ... .. . ... ... : ... .. . ... : ... .. . ... : ... .. . ... : ... .. . ... ... : ... .. . ... ...
ROW 24 : A-3 0A 4 ... ... : F-3 0A 4 G03 ... : ... .. . ... : ... .. . ... : ... .. . ... : ... .. . ... ... : ... .. . ... ...
ROW 25 : ... .. . ... ... : ... .. . ... ... : ... .. . ... : ... .. . ... : ... .. . ... : ... .. . ... ... : ... .. . ... ...
ROW 26 : ... .. . ... ... : ... .. . ... ... : ... .. . ... : ... .. . ... : ... .. . ... : ... .. . ... ... : ... .. . ... ...
ROW 27 : ... .. . ... ... : ... .. . ... ... : ... .. . ... : ... .. . ... : ... .. . ... : ... .. . ... ... : ... .. . ... ...
ROW 28 : ... .. . ... ... : ... .. . ... ... : ... .. . ... : ... .. . ... : ... .. . ... : ... .. . ... ... : ... .. . ... ...
ROW 29 : ... .. . ... ... : ... .. . ... ... : ... .. . ... : ... .. . ... : ... .. . ... : ... .. . ... ... : ... .. . ... ...
ROW 2A : ... .. . ... ... : ... .. . ... ... : ... .. . ... : ... .. . ... : ... .. . ... : ... .. . ... ... : ... .. . ... ...
ROW 2B : ... .. . ... ... : ... .. . ... ... : ... .. . ... : ... .. . ... : ... .. . ... : ... .. . ... ... : ... .. . ... ...
ROW 2C : E-3 0A 3 ... ... : G-3 0A 3 G03 ... : ... .. . ... : ... .. . ... : ... .. . ... : ... .. . ... ... : ... .. . ... ...
ROW 2D : ... .. . ... ... : ... .. . ... ... : ... .. . ... : ... .. . ... : ... .. . ... : ... .. . ... ... : ... .. . ... ...
ROW 2E : ... .. . ... ... : ... .. . ... ... : ... .. . ... : ... .. . ... : ... .. . ... : ... .. . ... ... : ... .. . ... ...
ROW 2F : ... .. . ... ... : ... .. . ... ... : ... .. . ... : ... .. . ... : ... .. . ... : ... .. . ... ... : ... .. . ... ...
ROW 30 : E-2 0A 4 ... ... : B-2 0A 4 ... ... : C-1 00 . ... : ... .. . ... : ... .. . ... : ... .. . ... ... : D-4 0A 7 ... ...
ROW 31 : ... .. . ... ... : ... .. . ... ... : ... .. . ... : ... .. . ... : ... .. . ... : ... .. . ... ... : ... .. . ... ...
ROW 32 : ... .. . ... ... : ... .. . ... ... : ... .. . ... : ... .. . ... : ... .. . ... : ... .. . ... ... : ... .. . ... ...
ROW 33 : ... .. . ... ... : ... .. . ... ... : ... .. . ... : ... .. . ... : ... .. . ... : ... .. . ... ... : ... .. . ... ...
ROW 34 : ... .. . ... ... : ... .. . ... ... : ... .. . ... : ... .. . ... : ... .. . ... : ... .. . ... ... : ... .. . ... ...
ROW 35 : ... .. . ... ... : ... .. . ... ... : ... .. . ... : ... .. . ... : ... .. . ... : D-4 0A . ... ... : ... .. . ... ...
ROW 36 : ... .. . ... ... : ... .. . ... ... : ... .. . ... : ... .. . ... : ... .. . ... : ... .. . ... ... : ... .. . ... ...
ROW 37 : ... .. . ... ... : ... .. . ... ... : ... .. . ... : ... .. . ... : ... .. . ... : ... .. . ... ... : ... .. . ... ...
ROW 38 : ... .. . ... ... : ... .. . ... ... : ... .. . ... : ... .. . ... : ... .. . ... : ... .. . ... ... : E-4 0A 6 ... ...
ROW 39 : ... .. . ... ... : ... .. . ... ... : ... .. . ... : ... .. . ... : ... .. . ... : ... .. . ... ... : ... .. . ... ...
ROW 3A : ... .. . ... ... : ... .. . ... ... : ... .. . ... : ... .. . ... : ... .. . ... : ... .. . ... ... : ... .. . ... ...
ROW 3B : ... .. . ... ... : ... .. . ... ... : ... .. . ... : ... .. . ... : ... .. . ... : ... .. . ... ... : D#4 0A 4 G03 ...
ROW 3C : G-2 0A . ... ... : B-2 0A . ... ... : ... .. . ... : ... .. . ... : ... .. . ... : ... .. . ... ... : D-4 0A 6 G02 ...
ROW 3D : ... .. . ... ... : ... .. . ... ... : ... .. . ... : ... .. . ... : ... .. . ... : E-4 0A . ... ... : ... .. . ... ...
ROW 3E : ... .. . ... ... : ... .. . ... ... : ... .. . ... : ... .. . ... : ... .. . ... : ... .. . ... ... : ... .. . ... ...
ROW 3F : ... .. . ... ... : ... .. . ... ... : ... .. . ... : ... .. . ... : ... .. . ... : ... .. . ... ... : ... .. . ... ...
ROW 40 : ... .. . ... ... : ... .. . ... ... : ... .. . ... : ... .. . ... : ... .. . ... : D#4 0A . G03 ... : ... .. . ... ...
ROW 41 : ... .. . ... ... : ... .. . ... ... : ... .. . ... : ... .. . ... : ... .. . ... : D-4 0A . G02 ... : ... .. . ... ...
ROW 42 : ... .. . ... ... : ... .. . ... ... : ... .. . ... : ... .. . ... : ... .. . ... : ... .. . ... ... : ... .. . ... ...
ROW 43 : ... .. . ... ... : ... .. . ... ... : ... .. . ... : ... .. . ... : ... .. . ... : ... .. . ... ... : C#4 0A 4 ... ...
ROW 44 : ... .. . ... ... : ... .. . ... ... : ... .. . ... : ... .. . ... : ... .. . ... : ... .. . ... ... : C-4 0A 5 ... ...
ROW 45 : ... .. . ... ... : ... .. . ... ... : ... .. . ... : ... .. . ... : ... .. . ... : ... .. . ... ... : ... .. . ... ...
ROW 46 : ... .. . ... ... : ... .. . ... ... : ... .. . ... : ... .. . ... : ... .. . ... : ... .. . ... ... : ... .. . ... ...
ROW 47 : ... .. . ... ... : ... .. . ... ... : ... .. . ... : ... .. . ... : ... .. . ... : ... .. . ... ... : ... .. . ... ...
ROW 48 : F-2 0A . ... ... : A#2 0A . ... ... : G-1 00 . ... : ... .. . ... : ... .. . ... : C#4 0A . ... ... : ... .. . ... ...
ROW 49 : ... .. . ... ... : ... .. . ... ... : ... .. . ... : ... .. . ... : ... .. . ... : C-4 0A . ... ... : ... .. . ... ...
ROW 4A : ... .. . ... ... : ... .. . ... ... : ... .. . ... : ... .. . ... : ... .. . ... : ... .. . ... ... : ... .. . ... ...
ROW 4B : ... .. . ... ... : ... .. . ... ... : ... .. . ... : ... .. . ... : ... .. . ... : ... .. . ... ... : ... .. . ... ...
ROW 4C : ... .. . ... ... : ... .. . ... ... : ... .. . ... : ... .. . ... : ... .. . ... : ... .. . ... ... : ... .. . ... ...
ROW 4D : ... .. . ... ... : ... .. . ... ... : ... .. . ... : ... .. . ... : ... .. . ... : ... .. . ... ... : ... .. . ... ...
ROW 4E : ... .. . ... ... : ... .. . ... ... : ... .. . ... : ... .. . ... : ... .. . ... : ... .. . ... ... : ... .. . ... ...
ROW 4F : ... .. . ... ... : ... .. . ... ... : ... .. . ... : ... .. . ... : ... .. . ... : ... .. . ... ... : ... .. . ... ...
ROW 50 : ... .. . ... ... : ... .. . ... ... : ... .. . ... : ... .. . ... : ... .. . ... : ... .. . ... ... : ... .. . ... ...
ROW 51 : ... .. . ... ... : ... .. . ... ... : ... .. . ... : ... .. . ... : ... .. . ... : ... .. . ... ... : ... .. . ... ...
ROW 52 : ... .. . ... ... : ... .. . ... ... : ... .. . ... : ... .. . ... : ... .. . ... : ... .. . ... ... : ... .. . ... ...
ROW 53 : ... .. . ... ... : ... .. . ... ... : ... .. . ... : ... .. . ... : ... .. . ... : ... .. . ... ... : ... .. . ... ...
ROW 54 : E-2 0A 3 ... ... : F#2 0A 3 ... ... : C-2 00 . ... : ... .. . ... : ... .. . ... : ... .. . ... ... : ... .. . ... ...
ROW 55 : ... .. . ... ... : ... .. . ... ... : ... .. . ... : ... .. . ... : ... .. . ... : ... .. . ... ... : ... .. . ... ...
ROW 56 : ... .. . ... ... : ... .. . ... ... : ... .. . ... : ... .. . ... : ... .. . ... : ... .. . ... ... : ... .. . ... ...
ROW 57 : ... .. . ... ... : ... .. . ... ... : ... .. . ... : ... .. . ... : ... .. . ... : ... .. . ... ... : ... .. . ... ...
ROW 58 : E-2 0A 3 ... ... : G-2 0A 3 ... ... : ... .. . ... : ... .. . ... : ... .. . ... : ... .. . ... ... : ... .. . ... ...
ROW 59 : ... .. . ... ... : ... .. . ... ... : ... .. . ... : ... .. . ... : ... .. . ... : ... .. . ... ... : ... .. . ... ...
ROW 5A : ... .. . ... ... : ... .. . ... ... : ... .. . ... : ... .. . ... : ... .. . ... : ... .. . ... ... : ... .. . ... ...
ROW 5B : ... .. . ... ... : ... .. . ... ... : ... .. . ... : ... .. . ... : ... .. . ... : ... .. . ... ... : ... .. . ... ...
ROW 5C : E-2 0A 3 ... ... : A#2 0A 3 ... ... : ... .. . ... : ... .. . ... : ... .. . ... : ... .. . ... ... : A-3 0A 3 ... ...
ROW 5D : ... .. . ... ... : ... .. . ... ... : ... .. . ... : ... .. . ... : ... .. . ... : ... .. . ... ... : ... .. . ... ...
ROW 5E : ... .. . ... ... : ... .. . ... ... : ... .. . ... : ... .. . ... : ... .. . ... : ... .. . ... ... : ... .. . ... ...
ROW 5F : ... .. . ... ... : ... .. . ... ... : ... .. . ... : ... .. . ... : ... .. . ... : ... .. . ... ... : ... .. . ... ...

PATTERN 0B
ROW 00 : D-2 0A 3 V02 ... : A-2 0A 3 V02 ... : B-2 00 . ... : ... .. . ... : ... .. . ... : ... .. . ... ... : B-3 0A 5 V02 ...
ROW 01 : ... .. . ... ... : ... .. . ... ... : ... .. . ... : ... .. . ... : ... .. . ... : A-3 0A 1 V02 ... : ... .. . ... ...
ROW 02 : ... .. . ... ... : ... .. . ... ... : ... .. . ... : ... .. . ... : ... .. . ... : ... .. . ... ... : ... .. . ... ...
ROW 03 : ... .. . ... ... : ... .. . ... ... : ... .. . ... : ... .. . ... : ... .. . ... : ... .. . ... ... : ... .. . ... ...
ROW 04 : F#2 0A 4 ... ... : B-2 0A 4 ... ... : ... .. . ... : ... .. . ... : ... .. . ... : ... .. . ... ... : ... .. . ... ...
ROW 05 : ... .. . ... ... : ... .. . ... ... : ... .. . ... : ... .. . ... : ... .. . ... : B-3 0A . ... ... : ... .. . ... ...
ROW 06 : ... .. . ... ... : ... .. . ... ... : ... .. . ... : ... .. . ... : ... .. . ... : ... .. . ... ... : ... .. . ... ...
ROW 07 : ... .. . ... ... : ... .. . ... ... : ... .. . ... : ... .. . ... : ... .. . ... : ... .. . ... ... : ... .. . ... ...
ROW 08 : A#2 0A 5 ... ... : C#3 0A 5 ... ... : ... .. . ... : ... .. . ... : ... .. . ... : ... .. . ... ... : A#3 0A 4 ... ...
ROW 09 : ... .. . ... ... : ... .. . ... ... : ... .. . ... : ... .. . ... : ... .. . ... : ... .. . ... ... : ... .. . ... ...
ROW 0A : ... .. . ... ... : ... .. . ... ... : ... .. . ... : ... .. . ... : ... .. . ... : ... .. . ... ... : ... .. . ... ...
ROW 0B : ... .. . ... ... : ... .. . ... ... : ... .. . ... : ... .. . ... : ... .. . ... : ... .. . ... ... : ... .. . ... ...
ROW 0C : B-2 0A 6 ... ... : D-3 0A 6 ... ... : ... .. . ... : ... .. . ... : ... .. . ... : ... .. . ... ... : B-3 0A 5 ... ...
ROW 0D : ... .. . ... ... : ... .. . ... ... : ... .. . ... : ... .. . ... : ... .. . ... : A#3 0A . ... ... : ... .. . ... ...
ROW 0E : ... .. . ... ... : ... .. . ... ... : ... .. . ... : ... .. . ... : ... .. . ... : ... .. . ... ... : ... .. . ... ...
ROW 0F : ... .. . ... ... : ... .. . ... ... : ... .. . ... : ... .. . ... : ... .. . ... : ... .. . ... ... : ... .. . ... ...
ROW 10 : ... .. . ... ... : ... .. . ... ... : ... .. . ... : ... .. . ... : ... .. . ... : ... .. . ... ... : ... .. . ... ...
ROW 11 : ... .. . ... ... : ... .. . ... ... : ... .. . ... : ... .. . ... : ... .. . ... : B-3 0A . ... ... : ... .. . ... ...
ROW 12 : ... .. . ... ... : ... .. . ... ... : ... .. . ... : ... .. . ... : ... .. . ... : ... .. . ... ... : ... .. . ... ...
ROW 13 : ... .. . ... ... : ... .. . ... ... : ... .. . ... : ... .. . ... : ... .. . ... : ... .. . ... ... : ... .. . ... ...
ROW 14 : A-2 0A 3 ... ... : C#3 0A 3 ... ... : ... .. . ... : ... .. . ... : ... .. . ... : ... .. . ... ... : A#3 0A 3 ... ...
ROW 15 : ... .. . ... ... : ... .. . ... ... : ... .. . ... : ... .. . ... : ... .. . ... : ... .. . ... ... : ... .. . ... ...
ROW 16 : ... .. . ... ... : ... .. . ... ... : ... .. . ... : ... .. . ... : ... .. . ... : ... .. . ... ... : ... .. . ... ...
ROW 17 : ... .. . ... ... : ... .. . ... ... : ... .. . ... : ... .. . ... : ... .. . ... : ... .. . ... ... : ... .. . ... ...
ROW 18 : D-3 0A 4 ... ... : G#2 0A 5 ... ... : E-2 00 . ... : ... .. . ... : ... .. . ... : ... .. . ... ... : B-3 0A 4 ... ...
ROW 19 : ... .. . ... ... : ... .. . ... ... : ... .. . ... : ... .. . ... : ... .. . ... : A#3 0A . ... ... : ... .. . ... ...
ROW 1A : ... .. . ... ... : ... .. . ... ... : ... .. . ... : ... .. . ... : ... .. . ... : ... .. . ... ... : ... .. . ... ...
ROW 1B : ... .. . ... ... : ... .. . ... ... : ... .. . ... : ... .. . ... : ... .. . ... : ... .. . ... ... : ... .. . ... ...
ROW 1C : F#4 0A 3 ... ... : ... .. . ... ... : ... .. . ... : ... .. . ... : ... .. . ... : ... .. . ... ... : ... .. . ... ...
ROW 1D : ... .. . ... ... : ... .. . ... ... : ... .. . ... : ... .. . ... : ... .. . ... : B-3 0A . ... ... : ... .. . ... ...
ROW 1E : ... .. . ... ... : E-4 0A 4 ... ... : ... .. . ... : ... .. . ... : ... .. . ... : ... .. . ... ... : ... .. . ... ...
ROW 1F : ... .. . ... ... : ... .. . ... ... : ... .. . ... : ... .. . ... : ... .. . ... : ... .. . ... ... : ... .. . ... ...
ROW 20 : D-4 0A 5 ... ... : ... .. . ... ... : ... .. . ... : ... .. . ... : ... .. . ... : ... .. . ... ... : ... .. . ... ...
ROW 21 : ... .. . ... ... : ... .. . ... ... : ... .. . ... : ... .. . ... : ... .. . ... : ... .. . ... ... : ... .. . ... ...
ROW 22 : ... .. . ... ... : B-3 0A 6 ... ... : ... .. . ... : ... .. . ... : ... .. . ... : ... .. . ... ... : ... .. . ... ...
ROW 23 : ... .. . ... ... : ... .. . ... ... : ... .. . ... : ... .. . ... : ... .. . ... : ... .. . ... ... : ... .. . ... ...
ROW 24 : A-3 0A 5 ... ... : ... .. . ... ... : ... .. . ... : ... .. . ... : ... .. . ... : ... .. . ... ... : ... .. . ... ...
ROW 25 : ... .. . ... ... : ... .. . ... ... : ... .. . ... : ... .. . ... : ... .. . ... : ... .. . ... ... : ... .. . ... ...
ROW 26 : ... .. . ... ... : F#3 0A 5 ... ... : ... .. . ... : ... .. . ... : ... .. . ... : ... .. . ... ... : ... .. . ... ...
ROW 27 : ... .. . ... ... : ... .. . ... ... : ... .. . ... : ... .. . ... : ... .. . ... : ... .. . ... ... : ... .. . ... ...
ROW 28 : E-3 0A 5 ... ... : ... .. . ... ... : ... .. . ... : ... .. . ... : ... .. . ... : ... .. . ... ... : ... .. . ... ...
ROW 29 : ... .. . ... ... : ... .. . ... ... : ... .. . ... : ... .. . ... : ... .. . ... : ... .. . ... ... : ... .. . ... ...
ROW 2A : ... .. . ... ... : D-3 0A 4 ... ... : ... .. . ... : ... .. . ... : ... .. . ... : ... .. . ... ... : ... .. . ... ...
ROW 2B : ... .. . ... ... : ... .. . ... ... : ... .. . ... : ... .. . ... : ... .. . ... : ... .. . ... ... : ... .. . ... ...
ROW 2C : E-3 0A 3 ... ... : ... .. . ... ... : ... .. . ... : ... .. . ... : ... .. . ... : ... .. . ... ... : A#3 0A 3 ... ...
ROW 2D : ... .. . ... ... : ... .. . ... ... : ... .. . ... : ... .. . ... : ... .. . ... : ... .. . ... ... : ... .. . ... ...
ROW 2E : ... .. . ... ... : F#3 0A 2 ... ... : ... .. . ... : ... .. . ... : ... .. . ... : ... .. . ... ... : ... .. . ... ...
ROW 2F : ... .. . ... ... : ... .. . ... ... : ... .. . ... : ... .. . ... : ... .. . ... : ... .. . ... ... : ... .. . ... ...
ROW 30 : G-2 0A 1 ... ... : ... .. . ... ... : A-2 00 . ... : ... .. . ... : ... .. . ... : ... .. . ... ... : B-3 0A 4 ... ...
ROW 31 : ... .. . ... ... : ... .. . ... ... : ... .. . ... : ... .. . ... : ... .. . ... : A#3 0A . ... ... : ... .. . ... ...
ROW 32 : ... .. . ... ... : A-2 0A 2 ... ... : ... .. . ... : ... .. . ... : ... .. . ... : ... .. . ... ... : ... .. . ... ...
ROW 33 : ... .. . ... ... : ... .. . ... ... : ... .. . ... : ... .. . ... : ... .. . ... : ... .. . ... ... : ... .. . ... ...
ROW 34 : C#3 0A 3 ... ... : ... .. . ... ... : ... .. . ... : ... .. . ... : ... .. . ... : ... .. . ... ... : ... .. . ... ...
ROW 35 : ... .. . ... ... : ... .. . ... ... : ... .. . ... : ... .. . ... : ... .. . ... : B-3 0A . ... ... : ... .. . ... ...
ROW 36 : ... .. . ... ... : D#3 0A 4 ... ... : ... .. . ... : ... .. . ... : ... .. . ... : ... .. . ... ... : ... .. . ... ...
ROW 37 : ... .. . ... ... : ... .. . ... ... : ... .. . ... : ... .. . ... : ... .. . ... : ... .. . ... ... : ... .. . ... ...
ROW 38 : E-3 0A 4 ... ... : ... .. . ... ... : ... .. . ... : ... .. . ... : ... .. . ... : ... .. . ... ... : E-4 0A 4 ... ...
ROW 39 : ... .. . ... ... : ... .. . ... ... : ... .. . ... : ... .. . ... : ... .. . ... : ... .. . ... ... : ... .. . ... ...
ROW 3A : ... .. . ... ... : F#3 0A 3 ... ... : ... .. . ... : ... .. . ... : ... .. . ... : ... .. . ... ... : ... .. . ... ...
ROW 3B : ... .. . ... ... : ... .. . ... ... : ... .. . ... : ... .. . ... : ... .. . ... : ... .. . ... ... : ... .. . ... ...
ROW 3C : A-3 0A 4 ... ... : ... .. . ... ... : ... .. . ... : ... .. . ... : ... .. . ... : ... .. . ... ... : B-3 0A 5 ... ...
ROW 3D : ... .. . ... ... : ... .. . ... ... : ... .. . ... : ... .. . ... : ... .. . ... : E-4 0A . ... ... : ... .. . ... ...
ROW 3E : ... .. . ... ... : F#3 0A 4 ... ... : ... .. . ... : ... .. . ... : ... .. . ... : ... .. . ... ... : ... .. . ... ...
ROW 3F : ... .. . ... ... : ... .. . ... ... : ... .. . ... : ... .. . ... : ... .. . ... : ... .. . ... ... : ... .. . ... ...
ROW 40 : E-3 0A 3 ... ... : ... .. . ... ... : ... .. . ... : ... .. . ... : ... .. . ... : ... .. . ... ... : ... .. . ... ...
ROW 41 : ... .. . ... ... : ... .. . ... ... : ... .. . ... : ... .. . ... : ... .. . ... : B-3 0A . ... ... : ... .. . ... ...
ROW 42 : ... .. . ... ... : D-3 0A 2 ... ... : ... .. . ... : ... .. . ... : ... .. . ... : ... .. . ... ... : ... .. . ... ...
ROW 43 : ... .. . ... ... : ... .. . ... ... : ... .. . ... : ... .. . ... : ... .. . ... : ... .. . ... ... : ... .. . ... ...
ROW 44 : C#3 0A 1 ... ... : ... .. . ... ... : ... .. . ... : ... .. . ... : ... .. . ... : ... .. . ... ... : A#3 0A 5 ... ...
ROW 45 : ... .. . ... ... : ... .. . ... ... : ... .. . ... : ... .. . ... : ... .. . ... : ... .. . ... ... : ... .. . ... ...
ROW 46 : ... .. . ... ... : A-2 0A 1 ... ... : ... .. . ... : ... .. . ... : ... .. . ... : ... .. . ... ... : ... .. . ... ...
ROW 47 : ... .. . ... ... : ... .. . ... ... : ... .. . ... : ... .. . ... : ... .. . ... : ... .. . ... ... : ... .. . ... ...
ROW 48 : F#2 0A 1 ... ... : A-2 0A 1 ... ... : D-2 00 . ... : ... .. . ... : ... .. . ... : ... .. . ... ... : ... .. . ... ...
ROW 49 : ... .. . ... ... : ... .. . ... ... : ... .. . ... : ... .. . ... : ... .. . ... : A#3 0A . ... ... : ... .. . ... ...
ROW 4A : ... .. . ... ... : ... .. . ... ... : ... .. . ... : ... .. . ... : ... .. . ... : ... .. . ... ... : ... .. . ... ...
ROW 4B : ... .. . ... ... : ... .. . ... ... : ... .. . ... : ... .. . ... : ... .. . ... : ... .. . ... ... : ... .. . ... ...
ROW 4C : F#2 0A 2 ... ... : A-2 0A 2 ... ... : ... .. . ... : ... .. . ... : ... .. . ... : ... .. . ... ... : ... .. . ... ...
ROW 4D : ... .. . ... ... : ... .. . ... ... : ... .. . ... : ... .. . ... : ... .. . ... : ... .. . ... ... : ... .. . ... ...
ROW 4E : ... .. . ... ... : ... .. . ... ... : ... .. . ... : ... .. . ... : ... .. . ... : ... .. . ... ... : ... .. . ... ...
ROW 4F : ... .. . ... ... : ... .. . ... ... : ... .. . ... : ... .. . ... : ... .. . ... : ... .. . ... ... : ... .. . ... ...
ROW 50 : F#2 0A 3 ... ... : A-2 0A 3 ... ... : ... .. . ... : ... .. . ... : ... .. . ... : ... .. . ... ... : A-3 0A 3 ... ...
ROW 51 : ... .. . ... ... : ... .. . ... ... : ... .. . ... : ... .. . ... : ... .. . ... : ... .. . ... ... : ... .. . ... ...
ROW 52 : ... .. . ... ... : ... .. . ... ... : ... .. . ... : ... .. . ... : ... .. . ... : ... .. . ... ... : ... .. . ... ...
ROW 53 : ... .. . ... ... : ... .. . ... ... : ... .. . ... : ... .. . ... : ... .. . ... : ... .. . ... ... : ... .. . ... ...
ROW 54 : B-1 0A 3 G00 ... : A-2 0A 3 G01 ... : G-1 00 . ... : ... .. . ... : ... .. . ... : ... .. . ... ... : G#3 0A 4 ... ...
ROW 55 : ... .. . ... ... : ... .. . ... ... : ... .. . ... : ... .. . ... : ... .. . ... : A-3 0A . ... ... : ... .. . ... ...
ROW 56 : ... .. . ... ... : ... .. . ... ... : ... .. . ... : ... .. . ... : ... .. . ... : ... .. . ... ... : ... .. . ... ...
ROW 57 : ... .. . ... ... : ... .. . ... ... : ... .. . ... : ... .. . ... : ... .. . ... : ... .. . ... ... : ... .. . ... ...
ROW 58 : ... .. 2 ... ... : ... .. 2 ... ... : ... .. . ... : ... .. . ... : ... .. . ... : ... .. . ... ... : ... .. . ... ...
ROW 59 : ... .. . ... ... : ... .. . ... ... : ... .. . ... : ... .. . ... : ... .. . ... : G#3 0A . ... ... : ... .. . ... ...
ROW 5A : ... .. . ... ... : ... .. . ... ... : ... .. . ... : ... .. . ... : ... .. . ... : ... .. . ... ... : ... .. . ... ...
ROW 5B : ... .. . ... ... : ... .. . ... ... : ... .. . ... : ... .. . ... : ... .. . ... : ... .. . ... ... : ... .. . ... ...
ROW 5C : B-1 0A 2 ... ... : D-2 0A 2 ... ... : B-1 00 . ... : ... .. . ... : ... .. . ... : ... .. . ... ... : G-3 0A 4 ... ...
ROW 5D : ... .. . ... ... : ... .. . ... ... : ... .. . ... : ... .. . ... : ... .. . ... : ... .. . ... ... : ... .. . ... ...
ROW 5E : ... .. . ... ... : ... .. . ... ... : ... .. . ... : ... .. . ... : ... .. . ... : ... .. . ... ... : ... .. . ... ...
ROW 5F : ... .. . ... ... : ... .. . ... ... : ... .. . ... : ... .. . ... : ... .. . ... : ... .. . ... ... : ... .. . ... ...

PATTERN 0C
ROW 00 : E-3 00 1 V01 ... : C-3 06 1 V01 ... : C-2 04 . ... : F-# 02 8 ... : C-3 00 . F05 : G-3 0A . ... ... : B-3 00 2 P7C V00
ROW 01 : ... .. 2 ... ... : ... .. 2 ... ... : ... .. . ... : ... .. . ... : ... .. . ... : ... .. . ... ... : ... .. 3 P7D ...
ROW 02 : ... .. 3 ... ... : ... .. 3 ... ... : ... .. . ... : ... .. . ... : ... .. . ... : ... .. . ... ... : ... .. 4 P7E ...
ROW 03 : ... .. 4 ... ... : ... .. 4 ... ... : ... .. . ... : ... .. . ... : ... .. . ... : B-3 0B 2 P7B ... : ... .. 5 P7F ...
ROW 04 : ... .. 3 ... ... : ... .. 3 ... ... : ... .. . ... : D-# 03 6 ... : ... .. . ... : ... .. . P7C ... : ... .. 6 P80 ...
ROW 05 : ... .. . ... ... : ... .. 2 ... ... : ... .. . ... : ... .. . ... : ... .. . ... : ... .. . P7D ... : ... .. 7 ... ...
ROW 06 : ... .. . ... ... : ... .. . ... ... : ... .. . ... : ... .. . ... : ... .. . ... : ... .. . P7E ... : ... .. . ... ...
ROW 07 : ... .. . ... ... : ... .. . ... ... : ... .. . ... : ... .. . ... : ... .. . ... : ... .. . P7F ... : ... .. . ... ...
ROW 08 : ... .. . ... ... : ... .. . V02 ... : ... .. . ... : E-# 02 4 ... : ... .. . ... : ... .. . ... ... : A-3 0B 7 300 ...
ROW 09 : ... .. . ... ... : ... .. . ... ... : ... .. . ... : ... .. . ... : ... .. . ... : ... .. . ... ... : ... .. . ... ...
ROW 0A : ... .. . ... ... : ... .. . ... ... : ... .. . ... : ... .. . ... : ... .. . ... : ... .. . ... ... : ... .. . ... ...
ROW 0B : ... .. . ... ... : ... .. . ... ... : ... .. . ... : ... .. . ... : ... .. . ... : A-3 0B . 300 ... : ... .. . ... ...
ROW 0C : ... .. . ... ... : ... .. . V01 ... : G-2 04 . ... : F-# 02 6 ... : ... .. . ... : ... .. . ... ... : G-3 0B . ... ...
ROW 0D : ... .. . ... ... : ... .. . ... ... : ... .. . ... : ... .. . ... : ... .. . ... : ... .. . ... ... : ... .. . ... ...
ROW 0E : ... .. . ... ... : ... .. . ... ... : ... .. . ... : ... .. . ... : ... .. . ... : ... .. . ... ... : ... .. . ... ...
ROW 0F : ... .. . ... ... : ... .. . ... ... : ... .. . ... : ... .. . ... : ... .. . ... : G-3 0B . ... ... : ... .. . ... ...
ROW 10 : ... .. . ... ... : ... .. . V02 ... : ... .. . ... : D-# 03 1 ... : ... .. . ... : ... .. . ... ... : ... .. . ... ...
ROW 11 : ... .. . ... ... : ... .. . ... ... : ... .. . ... : ... .. . ... : ... .. . ... : ... .. . ... ... : ... .. . ... ...
ROW 12 : ... .. . ... ... : ... .. . ... ... : ... .. . ... : ... .. . ... : ... .. . ... : ... .. . ... ... : ... .. . ... ...
ROW 13 : ... .. . ... ... : ... .. . ... ... : ... .. . ... : ... .. . ... : ... .. . ... : ... .. . ... ... : ... .. . ... ...
ROW 14 : ... .. . ... ... : ... .. . V01 ... : ... .. . ... : E-# 02 4 ... : ... .. . ... : ... .. . ... ... : E-3 0B . ... ...
ROW 15 : ... .. . ... ... : ... .. . ... ... : ... .. . ... : ... .. . ... : ... .. . ... : ... .. . ... ... : ... .. . ... ...
ROW 16 : ... .. . ... ... : ... .. . ... ... : ... .. . ... : ... .. . ... : ... .. . ... : ... .. . ... ... : ... .. . ... ...
ROW 17 : ... .. . ... ... : ... .. . ... ... : ... .. . ... : ... .. . ... : ... .. . ... : E-3 0B . ... ... : ... .. . ... ...
ROW 18 : B-4 07 2 V02 ... : ... .. . V00 ... : E-2 04 . ... : F-# 02 8 ... : ... .. . ... : ... .. . ... ... : ... .. . 411 ...
ROW 19 : ... .. . 411 ... : ... .. . ... ... : ... .. . ... : ... .. . ... : ... .. . ... : ... .. . ... ... : ... .. . 421 ...
ROW 1A : ... .. . ... ... : ... .. . ... ... : ... .. . ... : ... .. . ... : ... .. . ... : ... .. . ... ... : ... .. . 432 ...
ROW 1B : B-4 07 1 ... ... : ... .. . ... ... : ... .. . ... : ... .. . ... : ... .. . ... : ... .. . 411 ... : ... .. . 442 ...
ROW 1C : A-4 07 2 ... ... : ... .. . ... ... : ... .. . ... : D-# 03 6 ... : ... .. . ... : ... .. . 421 ... : ... .. . 453 ...
ROW 1D : ... .. . ... ... : ... .. . ... ... : ... .. . ... : ... .. . ... : ... .. . ... : ... .. . 432 ... : ... .. . ... ...
ROW 1E : ... .. . ... ... : ... .. . ... ... : ... .. . ... : ... .. . ... : ... .. . ... : ... .. . 442 ... : ... .. . ... ...
ROW 1F : A-4 07 1 ... ... : ... .. . ... ... : ... .. . ... : ... .. . ... : ... .. . ... : ... .. . 453 ... : ... .. . ... ...
ROW 20 : G-4 07 2 ... ... : ... .. . ... ... : ... .. . ... : E-# 02 4 ... : ... .. . ... : ... .. . ... ... : ... .. . ... ...
ROW 21 : ... .. . ... ... : ... .. . ... ... : ... .. . ... : ... .. . ... : ... .. . ... : ... .. . ... ... : ... .. . ... ...
ROW 22 : ... .. . ... ... : ... .. . ... ... : ... .. . ... : ... .. . ... : ... .. . ... : ... .. . ... ... : ... .. . ... ...
ROW 23 : G-4 07 1 ... ... : ... .. . ... ... : ... .. . ... : ... .. . ... : ... .. . ... : ... .. . ... ... : ... .. . ... ...
ROW 24 : E-4 07 2 ... ... : ... .. . ... ... : C-2 04 . ... : F-# 02 6 ... : ... .. . ... : ... .. . ... ... : B-3 0B . 400 ...
ROW 25 : ... .. . ... ... : ... .. . ... ... : ... .. . ... : ... .. . ... : ... .. . ... : ... .. . ... ... : ... .. . ... ...
ROW 26 : ... .. . ... ... : ... .. . ... ... : ... .. . ... : ... .. . ... : ... .. . ... : ... .. . ... ... : ... .. . ... ...
ROW 27 : E-4 07 1 ... ... : ... .. . ... ... : ... .. . ... : ... .. . ... : ... .. . ... : B-3 0B . 400 ... : ... .. . ... ...
ROW 28 : ... .. . ... ... : ... .. . ... ... : ... .. . ... : D-# 03 1 ... : ... .. . ... : ... .. . ... ... : ... .. . ... ...
ROW 29 : ... .. . ... ... : ... .. . ... ... : ... .. . ... : ... .. . ... : ... .. . ... : ... .. . ... ... : ... .. . ... ...
ROW 2A : ... .. . ... ... : ... .. . ... ... : ... .. . ... : ... .. . ... : ... .. . ... : ... .. . ... ... : ... .. . ... ...
ROW 2B : ... .. . ... ... : ... .. . ... ... : ... .. . ... : ... .. . ... : ... .. . ... : ... .. . ... ... : ... .. . ... ...
ROW 2C : --- .. . 400 ... : ... .. 1 ... ... : D-2 04 . ... : E-# 02 4 ... : ... .. . ... : ... .. . ... ... : A-3 0B . ... ...
ROW 2D : ... .. . ... ... : ... .. . ... ... : ... .. . ... : ... .. . ... : ... .. . ... : ... .. . ... ... : ... .. . ... ...
ROW 2E : ... .. . ... ... : ... .. . ... ... : ... .. . ... : ... .. . ... : ... .. . ... : ... .. . ... ... : ... .. . ... ...
ROW 2F : ... .. . ... ... : ... .. . ... ... : ... .. . ... : ... .. . ... : ... .. . ... : A-3 0B . ... ... : ... .. . ... ...
ROW 30 : C#2 00 1 V01 ... : D#3 08 1 V01 ... : D#2 04 . ... : F-# 02 8 ... : ... .. . ... : ... .. . ... ... : A#3 0B 7 P7C ...
ROW 31 : ... .. 2 ... ... : ... .. 2 ... ... : ... .. . ... : ... .. . ... : ... .. . ... : ... .. . ... ... : ... .. . P7D ...
ROW 32 : ... .. 3 ... ... : ... .. 3 ... ... : ... .. . ... : ... .. . ... : ... .. . ... : ... .. . ... ... : ... .. . P7E ...
ROW 33 : ... .. 4 ... ... : ... .. 4 ... ... : ... .. . ... : ... .. . ... : ... .. . ... : A#3 0B 2 P7B ... : ... .. . P7F ...
ROW 34 : ... .. 3 ... ... : ... .. 3 ... ... : ... .. . ... : D-# 03 6 ... : ... .. . ... : ... .. . P7C ... : ... .. . P80 ...
ROW 35 : ... .. . ... ... : ... .. 2 ... ... : ... .. . ... : ... .. . ... : ... .. . ... : ... .. . P7D ... : ... .. . ... ...
ROW 36 : ... .. . ... ... : ... .. . ... ... : ... .. . ... : ... .. . ... : ... .. . ... : ... .. . P7E ... : ... .. . ... ...
ROW 37 : ... .. . ... ... : ... .. . ... ... : ... .. . ... : ... .. . ... : ... .. . ... : ... .. . P7F ... : ... .. . ... ...
ROW 38 : ... .. . ... ... : ... .. . V02 ... : A#1 04 . ... : E-# 02 4 ... : ... .. . ... : ... .. . ... ... : G#3 0B . 300 ...
ROW 39 : ... .. . ... ... : ... .. . ... ... : ... .. . ... : ... .. . ... : ... .. . ... : ... .. . ... ... : ... .. . ... ...
ROW 3A : ... .. . ... ... : ... .. . ... ... : --- .. . ... : ... .. . ... : ... .. . ... : ... .. . ... ... : ... .. . ... ...
ROW 3B : ... .. . ... ... : ... .. . ... ... : ... .. . ... : ... .. . ... : ... .. . ... : G#3 0B . 300 ... : ... .. . ... ...
ROW 3C : ... .. . ... ... : ... .. . V01 ... : A#1 04 . ... : F-# 02 6 ... : ... .. . ... : ... .. . ... ... : F#3 0B . ... ...
ROW 3D : ... .. . ... ... : ... .. . ... ... : ... .. . ... : ... .. . ... : ... .. . ... : ... .. . ... ... : ... .. . ... ...
ROW 3E : ... .. . ... ... : ... .. . ... ... : ... .. . ... : ... .. . ... : ... .. . ... : ... .. . ... ... : ... .. . ... ...
ROW 3F : ... .. . ... ... : ... .. . ... ... : ... .. . ... : ... .. . ... : ... .. . ... : F#3 0B . ... ... : ... .. . ... ...
ROW 40 : ... .. . ... ... : ... .. . V02 ... : ... .. . ... : D-# 03 1 ... : ... .. . ... : ... .. . ... ... : ... .. . ... ...
ROW 41 : ... .. . ... ... : ... .. . ... ... : ... .. . ... : ... .. . ... : ... .. . ... : ... .. . ... ... : ... .. . ... ...
ROW 42 : ... .. . ... ... : ... .. . ... ... : ... .. . ... : ... .. . ... : ... .. . ... : ... .. . ... ... : ... .. . ... ...
ROW 43 : ... .. . ... ... : ... .. . ... ... : ... .. . ... : ... .. . ... : ... .. . ... : ... .. . ... ... : ... .. . ... ...
ROW 44 : ... .. . ... ... : ... .. . V01 ... : C#2 04 . ... : E-# 02 4 ... : ... .. . ... : ... .. . ... ... : D#3 0B . ... ...
ROW 45 : ... .. . ... ... : ... .. . ... ... : ... .. . ... : ... .. . ... : ... .. . ... : ... .. . ... ... : ... .. . ... ...
ROW 46 : ... .. . ... ... : ... .. . ... ... : ... .. . ... : ... .. . ... : ... .. . ... : ... .. . ... ... : ... .. . ... ...
ROW 47 : ... .. . ... ... : ... .. . ... ... : ... .. . ... : ... .. . ... : ... .. . ... : D#3 0B . ... ... : ... .. . ... ...
ROW 48 : A#4 07 2 V02 ... : ... .. . V00 ... : D#2 04 . ... : F-# 02 8 ... : ... .. . ... : ... .. . ... ... : ... .. . ... ...
ROW 49 : ... .. . ... ... : ... .. . ... ... : ... .. . ... : ... .. . ... : ... .. . ... : ... .. . ... ... : ... .. . ... ...
ROW 4A : ... .. . ... ... : ... .. . ... ... : ... .. . ... : ... .. . ... : ... .. . ... : ... .. . ... ... : ... .. . ... ...
ROW 4B : A#4 07 1 ... ... : ... .. . ... ... : ... .. . ... : ... .. . ... : ... .. . ... : ... .. . ... ... : ... .. . ... ...
ROW 4C : ... .. . ... ... : ... .. . ... ... : ... .. . ... : D-# 03 6 ... : ... .. . ... : ... .. . ... ... : ... .. . 411 ...
ROW 4D : ... .. . ... ... : ... .. . ... ... : ... .. . ... : ... .. . ... : ... .. . ... : ... .. . ... ... : ... .. . 421 ...
ROW 4E : G#4 07 2 ... ... : ... .. . ... ... : ... .. . ... : ... .. . ... : ... .. . ... : ... .. . ... ... : ... .. . 432 ...
ROW 4F : ... .. . ... ... : ... .. . ... ... : ... .. . ... : ... .. . ... : ... .. . ... : ... .. . 411 ... : ... .. . 442 ...
ROW 50 : F#4 07 2 ... ... : ... .. . ... ... : ... .. . ... : E-# 02 4 ... : ... .. . ... : ... .. . 421 ... : ... .. . 453 ...
ROW 51 : ... .. . ... ... : ... .. . ... ... : ... .. . ... : ... .. . ... : ... .. . ... : ... .. . 432 ... : ... .. . ... ...
ROW 52 : ... .. . ... ... : ... .. . ... ... : ... .. . ... : ... .. . ... : ... .. . ... : ... .. . 442 ... : ... .. . ... ...
ROW 53 : F#4 07 1 ... ... : ... .. . ... ... : ... .. . ... : ... .. . ... : ... .. . ... : ... .. . 453 ... : ... .. . ... ...
ROW 54 : D#4 07 2 ... ... : ... .. . ... ... : A#1 04 . ... : F-# 02 6 ... : ... .. . ... : ... .. . ... ... : ... .. . ... ...
ROW 55 : ... .. . ... ... : ... .. . ... ... : ... .. . ... : ... .. . ... : ... .. . ... : ... .. . ... ... : ... .. . ... ...
ROW 56 : ... .. . ... ... : ... .. . ... ... : ... .. . ... : ... .. . ... : ... .. . ... : ... .. . ... ... : ... .. . ... ...
ROW 57 : D#4 07 1 ... ... : ... .. . ... ... : ... .. . ... : ... .. . ... : ... .. . ... : ... .. . ... ... : ... .. . ... ...
ROW 58 : ... .. . ... ... : ... .. . ... ... : ... .. . ... : D-# 03 1 ... : ... .. . ... : ... .. . ... ... : ... .. . ... ...
ROW 59 : ... .. . ... ... : ... .. . ... ... : ... .. . ... : ... .. . ... : ... .. . ... : ... .. . ... ... : ... .. . ... ...
ROW 5A : ... .. . ... ... : ... .. . ... ... : ... .. . ... : ... .. . ... : ... .. . ... : ... .. . ... ... : ... .. . ... ...
ROW 5B : ... .. . ... ... : ... .. . ... ... : ... .. . ... : ... .. . ... : ... .. . ... : ... .. . ... ... : ... .. . ... ...
ROW 5C : --- .. . 400 ... : ... .. 1 ... ... : ... .. . ... : E-# 02 4 ... : ... .. . ... : ... .. . ... ... : ... .. . ... ...
ROW 5D : ... .. . ... ... : ... .. . ... ... : ... .. . ... : ... .. . ... : ... .. . ... : ... .. . ... ... : ... .. . ... ...
ROW 5E : ... .. . ... ... : ... .. . ... ... : ... .. . ... : ... .. . ... : ... .. . ... : ... .. . ... ... : ... .. . ... ...
ROW 5F : ... .. . ... ... : ... .. . ... ... : ... .. . ... : ... .. . ... : ... .. . ... : ... .. . ... ... : ... .. . ... ...

PATTERN 0D
ROW 00 : F-2 00 3 V01 ... : D-3 08 1 V01 ... : D-2 00 . 300 : F-# 02 8 ... : ... .. . ... : ... .. . ... ... : A-3 0B 7 P7E ...
ROW 01 : ... .. . ... ... : ... .. 2 ... ... : ... .. . ... : ... .. . ... : ... .. . ... : ... .. . ... ... : ... .. . ... 400
ROW 02 : ... .. . ... ... : ... .. 3 ... ... : ... .. . ... : ... .. . ... : ... .. . ... : ... .. . ... ... : ... .. . P7F ...
ROW 03 : ... .. . ... ... : ... .. 4 ... ... : ... .. . ... : ... .. . ... : ... .. . ... : A-3 0B 2 P7D ... : ... .. . ... ...
ROW 04 : ... .. . ... ... : ... .. 3 ... ... : ... .. . ... : D-# 03 6 ... : ... .. . ... : ... .. . ... 400 : ... .. . P80 ...
ROW 05 : ... .. . ... ... : ... .. 2 ... ... : ... .. . ... : ... .. . ... : ... .. . ... : ... .. . P7E ... : ... .. . ... ...
ROW 06 : ... .. . ... ... : ... .. . ... ... : ... .. . ... : ... .. . ... : ... .. . ... : ... .. . ... ... : ... .. . ... ...
ROW 07 : ... .. . ... ... : ... .. . ... ... : ... .. . ... : ... .. . ... : ... .. . ... : ... .. . P7F ... : ... .. . ... ...
ROW 08 : E-2 00 . ... ... : ... .. . V02 ... : ... .. . ... : E-# 02 4 ... : ... .. . ... : ... .. . ... ... : G-3 0B . 300 ...
ROW 09 : ... .. . ... ... : ... .. . ... ... : ... .. . ... : ... .. . ... : ... .. . ... : ... .. . ... ... : ... .. . ... ...
ROW 0A : ... .. . ... ... : ... .. . ... ... : ... .. . ... : ... .. . ... : ... .. . ... : ... .. . ... ... : ... .. . ... ...
ROW 0B : ... .. . ... ... : ... .. . ... ... : ... .. . ... : ... .. . ... : ... .. . ... : G-3 0B . 300 ... : ... .. . ... ...
ROW 0C : ... .. . ... ... : ... .. . V01 ... : ... .. . ... : F-# 02 6 ... : ... .. . ... : ... .. . ... ... : ... .. . ... ...
ROW 0D : ... .. . ... ... : ... .. . ... ... : ... .. . ... : ... .. . ... : ... .. . ... : ... .. . ... ... : ... .. . ... ...
ROW 0E : ... .. . ... ... : ... .. . ... ... : ... .. . ... : ... .. . ... : ... .. . ... : ... .. . ... ... : ... .. . ... ...
ROW 0F : ... .. . ... ... : ... .. . ... ... : ... .. . ... : ... .. . ... : ... .. . ... : ... .. . ... ... : ... .. . ... ...
ROW 10 : D-2 00 . ... ... : ... .. . V02 ... : ... .. . ... : D-# 03 1 ... : ... .. . ... : ... .. . ... ... : F-3 0B . ... ...
ROW 11 : ... .. . ... ... : ... .. . ... ... : ... .. . ... : ... .. . ... : ... .. . ... : ... .. . ... ... : ... .. . ... ...
ROW 12 : ... .. . ... ... : ... .. . ... ... : ... .. . ... : ... .. . ... : ... .. . ... : ... .. . ... ... : ... .. . ... ...
ROW 13 : ... .. . ... ... : ... .. . ... ... : ... .. . ... : ... .. . ... : ... .. . ... : F-3 0B . ... ... : ... .. . ... ...
ROW 14 : C-2 00 . ... ... : ... .. . V01 ... : ... .. . ... : E-# 02 4 ... : ... .. . ... : ... .. . ... ... : E-3 0B . ... ...
ROW 15 : ... .. . ... ... : ... .. . ... ... : ... .. . ... : ... .. . ... : ... .. . ... : ... .. . ... ... : ... .. . ... ...
ROW 16 : ... .. . ... ... : ... .. . ... ... : ... .. . ... : ... .. . ... : ... .. . ... : ... .. . ... ... : ... .. . ... ...
ROW 17 : ... .. . ... ... : ... .. . ... ... : ... .. . ... : ... .. . ... : ... .. . ... : E-3 0B . ... ... : ... .. . ... ...
ROW 18 : D-2 00 1 ... ... : A#2 09 1 V01 ... : A#1 00 . ... : F-# 02 8 ... : ... .. . ... : ... .. . ... ... : D#3 0B 5 R11 ...
ROW 19 : ... .. 2 ... ... : ... .. 2 ... ... : ... .. . ... : ... .. . ... : ... .. . ... : ... .. . ... ... : ... .. . ... ...
ROW 1A : ... .. . ... ... : ... .. 3 ... ... : ... .. . ... : ... .. . ... : ... .. . ... : ... .. . ... ... : ... .. . ... ...
ROW 1B : ... .. 3 ... ... : ... .. 4 ... ... : ... .. . ... : ... .. . ... : ... .. . ... : D#3 0B . R11 ... : ... .. . ... ...
ROW 1C : ... .. . ... ... : ... .. 3 ... ... : ... .. . ... : D-# 03 6 ... : ... .. . ... : ... .. . ... ... : ... .. . 453 ...
ROW 1D : ... .. 4 ... ... : ... .. 2 ... ... : ... .. . ... : ... .. . ... : ... .. . ... : ... .. . ... ... : ... .. . ... ...
ROW 1E : ... .. . ... ... : ... .. . ... ... : ... .. . ... : ... .. . ... : ... .. . ... : ... .. . ... ... : ... .. . ... ...
ROW 1F : ... .. 3 ... ... : ... .. . ... ... : ... .. . ... : ... .. . ... : ... .. . ... : ... .. . 453 ... : ... .. . ... ...
ROW 20 : F-2 00 . ... ... : ... .. . V02 ... : ... .. . ... : E-# 02 4 ... : ... .. . ... : ... .. . ... ... : E-3 0B 6 400 ...
ROW 21 : ... .. . ... ... : ... .. . ... ... : ... .. . ... : ... .. . ... : ... .. . ... : ... .. . ... ... : ... .. . ... ...
ROW 22 : ... .. . ... ... : ... .. . ... ... : ... .. . ... : ... .. . ... : ... .. . ... : ... .. . ... ... : ... .. . ... ...
ROW 23 : ... .. . ... ... : ... .. . ... ... : ... .. . ... : ... .. . ... : ... .. . ... : E-3 0B . 400 ... : ... .. . ... ...
ROW 24 : ... .. . ... ... : ... .. . V01 ... : D#2 00 . 301 : F-# 02 6 ... : ... .. . ... : ... .. . ... ... : ... .. . ... ...
ROW 25 : ... .. . ... ... : ... .. . ... ... : ... .. . ... : ... .. . ... : ... .. . ... : ... .. . ... ... : ... .. . ... ...
ROW 26 : ... .. . ... ... : ... .. . ... ... : ... .. . ... : ... .. . ... : ... .. . ... : ... .. . ... ... : ... .. . ... ...
ROW 27 : ... .. . ... ... : ... .. . ... ... : ... .. . ... : ... .. . ... : ... .. . ... : ... .. . ... ... : ... .. . ... ...
ROW 28 : D-2 00 3 ... ... : ... .. . V02 ... : ... .. . 302 : D-# 03 1 ... : ... .. . ... : ... .. . ... ... : F-3 0B 7 ... ...
ROW 29 : ... .. . ... ... : ... .. . ... ... : ... .. . ... : ... .. . ... : ... .. . ... : ... .. . ... ... : ... .. . ... ...
ROW 2A : ... .. . ... ... : ... .. . ... ... : ... .. . ... : ... .. . ... : ... .. . ... : ... .. . ... ... : ... .. . ... ...
ROW 2B : ... .. . ... ... : ... .. . ... ... : ... .. . ... : ... .. . ... : ... .. . ... : F-3 0B . ... ... : ... .. . ... ...
ROW 2C : --- .. . ... ... : C-2 00 3 V01 ... : ... .. . 303 : E-# 02 4 ... : ... .. . ... : ... .. . ... ... : F#3 0B 6 ... ...
ROW 2D : ... .. . ... ... : ... .. . ... ... : ... .. . ... : ... .. . ... : ... .. . ... : ... .. . ... ... : ... .. . ... ...
ROW 2E : ... .. . ... ... : ... .. . ... ... : ... .. . ... : ... .. . ... : ... .. . ... : ... .. . ... ... : ... .. . ... ...
ROW 2F : ... .. . ... ... : ... .. . ... ... : ... .. . ... : ... .. . ... : ... .. . ... : F#3 0B . ... ... : ... .. . ... ...
ROW 30 : D-3 00 1 ... ... : D#2 00 3 ... ... : ... .. . 304 : F-# 02 8 ... : ... .. . ... : ... .. . ... ... : G-3 0B 4 301 ...
ROW 31 : ... .. 2 ... ... : ... .. . ... ... : ... .. . ... : ... .. . ... : ... .. . ... : ... .. . ... ... : ... .. 5 ... ...
ROW 32 : ... .. 3 ... ... : ... .. 2 ... ... : ... .. . ... : ... .. . ... : ... .. . ... : ... .. . ... ... : ... .. 6 ... ...
ROW 33 : ... .. 4 ... ... : ... .. . ... ... : ... .. . ... : ... .. . ... : ... .. . ... : G-3 0B 1 301 ... : ... .. . ... ...
ROW 34 : ... .. 3 ... ... : ... .. 1 ... ... : D#2 00 . 300 : D-# 03 6 ... : ... .. . ... : ... .. 2 ... ... : ... .. . ... ...
ROW 35 : ... .. . ... ... : ... .. . ... ... : ... .. . ... : ... .. . ... : ... .. . ... : ... .. . ... ... : ... .. . ... ...
ROW 36 : ... .. . ... ... : ... .. . ... ... : ... .. . ... : ... .. . ... : ... .. . ... : ... .. . ... ... : ... .. . ... ...
ROW 37 : ... .. . ... ... : ... .. . ... ... : ... .. . ... : ... .. . ... : ... .. . ... : ... .. . ... ... : ... .. . ... ...
ROW 38 : ... .. . ... ... : D#3 06 2 V02 ... : ... .. . ... : E-# 02 4 ... : ... .. . ... : ... .. . ... ... : ... .. . ... ...
ROW 39 : ... .. . ... ... : ... .. 1 ... ... : ... .. . ... : ... .. . ... : ... .. . ... : ... .. . ... ... : ... .. . ... ...
ROW 3A : ... .. . ... ... : ... .. . ... ... : ... .. . ... : ... .. . ... : ... .. . ... : ... .. . ... ... : ... .. . ... ...
ROW 3B : ... .. . ... ... : ... .. . ... ... : ... .. . ... : ... .. . ... : ... .. . ... : ... .. . ... ... : ... .. . ... ...
ROW 3C : C-3 00 2 305 ... : ... .. . V01 ... : ... .. . ... : F-# 02 6 ... : ... .. . ... : ... .. . ... ... : ... .. 5 ... ...
ROW 3D : ... .. . ... ... : ... .. . ... ... : ... .. . ... : ... .. . ... : ... .. . ... : ... .. . ... ... : ... .. . ... ...
ROW 3E : ... .. . ... ... : ... .. . ... ... : ... .. . ... : ... .. . ... : ... .. . ... : ... .. . ... ... : ... .. . ... ...
ROW 3F : ... .. . ... ... : ... .. . ... ... : ... .. . ... : ... .. . ... : ... .. . ... : ... .. . ... ... : ... .. . ... ...
ROW 40 : ... .. . ... ... : ... .. . V02 ... : ... .. . ... : D-# 03 1 ... : ... .. . ... : ... .. . ... ... : ... .. . 411 ...
ROW 41 : ... .. . ... ... : ... .. . ... ... : ... .. . ... : ... .. . ... : ... .. . ... : ... .. . ... ... : ... .. . 411 ...
ROW 42 : ... .. . ... ... : ... .. . ... ... : ... .. . ... : ... .. . ... : ... .. . ... : ... .. . ... ... : ... .. . 421 ...
ROW 43 : ... .. . ... ... : ... .. . ... ... : ... .. . ... : ... .. . ... : ... .. . ... : ... .. . 411 ... : ... .. . 422 ...
ROW 44 : ... .. . ... ... : ... .. . V01 ... : ... .. . ... : E-# 02 4 ... : ... .. . ... : ... .. . 411 ... : ... .. . 432 ...
ROW 45 : ... .. . ... ... : ... .. . ... ... : ... .. . ... : ... .. . ... : ... .. . ... : ... .. . 421 ... : ... .. . 432 ...
ROW 46 : ... .. . ... ... : ... .. . ... ... : ... .. . ... : ... .. . ... : ... .. . ... : ... .. . 422 ... : ... .. . 443 ...
ROW 47 : ... .. . ... ... : ... .. . ... ... : ... .. . ... : ... .. . ... : ... .. . ... : ... .. . 432 ... : ... .. . 443 ...
ROW 48 : D-3 00 . V00 ... : ... .. . V00 ... : ... .. . ... : F-# 02 8 ... : ... .. . ... : ... .. . 432 ... : ... .. 4 453 ...
ROW 49 : ... .. . ... ... : ... .. . ... ... : ... .. . ... : ... .. . ... : ... .. . ... : ... .. . 443 ... : ... .. . 300 ...
ROW 4A : ... .. . ... ... : ... .. . ... ... : ... .. . ... : ... .. . ... : ... .. . ... : ... .. . 443 ... : ... .. . ... ...
ROW 4B : ... .. . ... ... : ... .. . ... ... : ... .. . ... : ... .. . ... : ... .. . ... : ... .. 1 453 ... : ... .. . ... ...
ROW 4C : ... .. . ... ... : ... .. . ... ... : ... .. . ... : D-# 03 6 ... : ... .. . ... : ... .. . 300 ... : ... .. . ... ...
ROW 4D : ... .. . ... ... : ... .. . ... ... : ... .. . ... : ... .. . ... : ... .. . ... : ... .. . ... ... : ... .. . ... ...
ROW 4E : D#3 00 . ... ... : ... .. . ... ... : ... .. . ... : ... .. . ... : ... .. . ... : ... .. . ... ... : ... .. . ... ...
ROW 4F : ... .. . ... ... : ... .. . ... ... : ... .. . ... : ... .. . ... : ... .. . ... : ... .. . ... ... : ... .. . ... ...
ROW 50 : D-3 00 . ... ... : ... .. . ... ... : ... .. . ... : E-# 02 4 ... : ... .. . ... : ... .. . ... ... : ... .. 3 ... ...
ROW 51 : ... .. . ... ... : ... .. . ... ... : ... .. . ... : ... .. . ... : ... .. . ... : ... .. . ... ... : ... .. . ... ...
ROW 52 : ... .. . ... ... : ... .. . ... ... : ... .. . ... : ... .. . ... : ... .. . ... : ... .. . ... ... : ... .. . ... ...
ROW 53 : ... .. . ... ... : ... .. . ... ... : ... .. . ... : ... .. . ... : ... .. . ... : ... .. . ... ... : ... .. . ... ...
ROW 54 : C-3 00 1 ... ... : ... .. . ... ... : ... .. . ... : F-# 02 6 ... : ... .. . ... : ... .. . ... ... : ... .. . ... ...
ROW 55 : ... .. . ... ... : ... .. . ... ... : ... .. . ... : ... .. . ... : ... .. . ... : ... .. . ... ... : ... .. . ... ...
ROW 56 : ... .. . ... ... : ... .. . ... ... : ... .. . ... : ... .. . ... : ... .. . ... : ... .. . ... ... : ... .. . ... ...
ROW 57 : ... .. . ... ... : ... .. . ... ... : ... .. . ... : ... .. . ... : ... .. . ... : ... .. . ... ... : ... .. 2 ... ...
ROW 58 : ... .. . ... ... : ... .. . ... ... : ... .. . ... : D-# 03 1 ... : ... .. . ... : ... .. . ... ... : ... .. . ... ...
ROW 59 : ... .. . ... ... : ... .. . ... ... : ... .. . ... : ... .. . ... : ... .. . ... : ... .. . ... ... : ... .. . ... ...
ROW 5A : ... .. . ... ... : ... .. . ... ... : ... .. . ... : ... .. . ... : ... .. . ... : ... .. . ... ... : ... .. . ... ...
ROW 5B : ... .. . ... ... : ... .. . ... ... : ... .. . ... : ... .. . ... : ... .. . ... : ... .. . ... ... : ... .. . ... ...
ROW 5C : ... .. . 300 ... : ... .. . ... ... : ... .. . ... : E-# 02 4 ... : ... .. . ... : ... .. . ... ... : ... .. . ... ...
ROW 5D : ... .. . ... ... : ... .. . ... ... : ... .. . ... : ... .. . ... : ... .. . ... : ... .. . ... ... : ... .. . ... ...
ROW 5E : ... .. . ... ... : ... .. . ... ... : ... .. . ... : ... .. . ... : ... .. . ... : ... .. . ... ... : ... .. 1 ... ...
ROW 5F : ... .. . ... ... : ... .. . ... ... : ... .. . ... : ... .. . ... : ... .. . ... : ... .. . ... ... : ... .. . ... ...

PATTERN 0E
ROW 00 : F#2 00 1 V01 ... : B-2 00 1 V01 ... : G#1 00 . ... : --- .. . ... : ... .. . ... : ... .. . ... ... : G#3 0B 5 P7E ...
ROW 01 : ... .. 2 ... ... : ... .. 2 ... ... : ... .. . ... : ... .. . ... : ... .. . ... : ... .. . ... ... : ... .. 6 ... 400
ROW 02 : ... .. 3 ... ... : ... .. 3 ... ... : ... .. . ... : ... .. . ... : ... .. . ... : ... .. . ... ... : ... .. 7 P7F ...
ROW 03 : ... .. 4 ... ... : ... .. 4 ... ... : ... .. . ... : ... .. . ... : ... .. . ... : G#3 0B 1 P7D ... : ... .. . ... ...
ROW 04 : ... .. 3 ... ... : ... .. 3 ... ... : ... .. . ... : ... .. . ... : ... .. . ... : ... .. 2 ... 400 : ... .. . P80 ...
ROW 05 : ... .. . ... ... : ... .. . ... ... : ... .. . ... : ... .. . ... : ... .. . ... : ... .. . P7E ... : ... .. . ... ...
ROW 06 : ... .. . ... ... : ... .. . ... ... : ... .. . ... : ... .. . ... : ... .. . ... : ... .. . ... ... : ... .. . ... ...
ROW 07 : ... .. . ... ... : ... .. . ... ... : ... .. . ... : ... .. . ... : ... .. . ... : ... .. . P7F ... : ... .. . ... ...
ROW 08 : ... .. . ... ... : ... .. . ... ... : ... .. . ... : ... .. . ... : ... .. . ... : ... .. . ... ... : F#3 0B . 300 ...
ROW 09 : ... .. . ... ... : ... .. . ... ... : ... .. . ... : ... .. . ... : ... .. . ... : ... .. . ... ... : ... .. . ... ...
ROW 0A : ... .. . ... ... : ... .. . ... ... : ... .. . ... : ... .. . ... : ... .. . ... : ... .. . ... ... : ... .. . ... ...
ROW 0B : ... .. . ... ... : ... .. . ... ... : ... .. . ... : ... .. . ... : ... .. . ... : F#3 0B . 300 ... : ... .. . ... ...
ROW 0C : ... .. . ... ... : ... .. . ... ... : B-1 00 . ... : ... .. . ... : ... .. . ... : ... .. . ... ... : F-3 0B . ... ...
ROW 0D : ... .. . ... ... : ... .. . ... ... : ... .. . ... : ... .. . ... : ... .. . ... : ... .. . ... ... : ... .. . ... ...
ROW 0E : ... .. . ... ... : ... .. . ... ... : ... .. . ... : ... .. . ... : ... .. . ... : ... .. . ... ... : ... .. . ... ...
ROW 0F : ... .. . ... ... : ... .. . ... ... : ... .. . ... : ... .. . ... : ... .. . ... : F-3 0B . ... ... : ... .. . ... ...
ROW 10 : ... .. . ... ... : ... .. . ... ... : ... .. . ... : ... .. . ... : ... .. . ... : ... .. . ... ... : ... .. . ... ...
ROW 11 : ... .. . ... ... : ... .. . ... ... : ... .. . ... : ... .. . ... : ... .. . ... : ... .. . ... ... : ... .. . ... ...
ROW 12 : ... .. . ... ... : ... .. . ... ... : ... .. . ... : ... .. . ... : ... .. . ... : ... .. . ... ... : ... .. . ... ...
ROW 13 : ... .. . ... ... : ... .. . ... ... : ... .. . ... : ... .. . ... : ... .. . ... : ... .. . ... ... : ... .. . ... ...
ROW 14 : ... .. . ... ... : ... .. . ... ... : C-2 00 . ... : ... .. . ... : ... .. . ... : ... .. . ... ... : D#3 0B . ... ...
ROW 15 : ... .. . ... ... : ... .. . ... ... : ... .. . ... : ... .. . ... : ... .. . ... : ... .. . ... ... : ... .. . ... ...
ROW 16 : ... .. 2 ... ... : ... .. 2 ... ... : ... .. . ... : ... .. . ... : ... .. . ... : ... .. . ... ... : ... .. . ... ...
ROW 17 : ... .. 1 ... ... : ... .. 1 ... ... : ... .. . ... : ... .. . ... : ... .. . ... : D#3 0B . ... ... : ... .. . ... ...
ROW 18 : F-2 00 1 ... ... : B-2 00 1 ... ... : C#2 00 . ... : ... .. . ... : ... .. . ... : ... .. . ... ... : ... .. . ... ...
ROW 19 : ... .. 2 ... ... : ... .. 2 ... ... : ... .. . ... : ... .. . ... : ... .. . ... : ... .. . ... ... : ... .. . ... ...
ROW 1A : ... .. . ... ... : ... .. . ... ... : ... .. . ... : ... .. . ... : ... .. . ... : ... .. . ... ... : ... .. . ... ...
ROW 1B : ... .. 3 ... ... : ... .. 3 ... ... : ... .. . ... : ... .. . ... : ... .. . ... : ... .. . ... ... : ... .. . ... ...
ROW 1C : ... .. . ... ... : ... .. . ... ... : ... .. . ... : ... .. . ... : ... .. . ... : ... .. . ... ... : ... .. . 453 ...
ROW 1D : ... .. 4 ... ... : ... .. 4 ... ... : ... .. . ... : ... .. . ... : ... .. . ... : ... .. . ... ... : ... .. . ... ...
ROW 1E : ... .. . ... ... : ... .. . ... ... : ... .. . ... : ... .. . ... : ... .. . ... : ... .. . ... ... : ... .. . ... ...
ROW 1F : ... .. 3 ... ... : ... .. 3 ... ... : ... .. . ... : ... .. . ... : ... .. . ... : ... .. . 453 ... : ... .. . ... ...
ROW 20 : ... .. . ... ... : ... .. . ... ... : ... .. . ... : ... .. . ... : ... .. . ... : ... .. . ... ... : ... .. . ... ...
ROW 21 : ... .. . ... ... : ... .. . ... ... : ... .. . ... : ... .. . ... : ... .. . ... : ... .. . ... ... : ... .. . ... ...
ROW 22 : ... .. . ... ... : ... .. . ... ... : ... .. . ... : ... .. . ... : ... .. . ... : ... .. . ... ... : ... .. . ... ...
ROW 23 : ... .. . ... ... : ... .. . ... ... : ... .. . ... : ... .. . ... : ... .. . ... : ... .. . ... ... : ... .. . ... ...
ROW 24 : ... .. . ... ... : ... .. . ... ... : ... .. . ... : ... .. . ... : ... .. . ... : ... .. . ... ... : F-3 0B . 400 ...
ROW 25 : ... .. . ... ... : ... .. . ... ... : ... .. . ... : ... .. . ... : ... .. . ... : ... .. . ... ... : ... .. . ... ...
ROW 26 : ... .. . ... ... : ... .. . ... ... : ... .. . ... : ... .. . ... : ... .. . ... : ... .. . ... ... : ... .. . ... ...
ROW 27 : ... .. . ... ... : ... .. . ... ... : ... .. . ... : ... .. . ... : ... .. . ... : F-3 0B . 400 ... : ... .. . ... ...
ROW 28 : ... .. 2 ... ... : ... .. 2 ... ... : G#2 00 . ... : ... .. . ... : ... .. . ... : ... .. . ... ... : ... .. . ... ...
ROW 29 : ... .. . ... ... : ... .. . ... ... : ... .. . ... : ... .. . ... : ... .. . ... : ... .. . ... ... : ... .. . ... ...
ROW 2A : ... .. . ... ... : ... .. . ... ... : ... .. . ... : ... .. . ... : ... .. . ... : ... .. . ... ... : ... .. . ... ...
ROW 2B : ... .. . ... ... : ... .. . ... ... : ... .. . ... : ... .. . ... : ... .. . ... : ... .. . ... ... : ... .. . ... ...
ROW 2C : ... .. 1 ... ... : ... .. 1 ... ... : G-2 00 . ... : ... .. . ... : ... .. . ... : ... .. . ... ... : F#3 0C . ... V01
ROW 2D : ... .. . ... ... : ... .. . ... ... : ... .. . ... : ... .. . ... : ... .. . ... : ... .. . ... ... : ... .. . ... ...
ROW 2E : ... .. . ... ... : ... .. . ... ... : ... .. . ... : ... .. . ... : ... .. . ... : ... .. . ... ... : ... .. . ... ...
ROW 2F : ... .. . ... ... : ... .. . ... ... : ... .. . ... : ... .. . ... : ... .. . ... : F#3 0C . V01 ... : ... .. . ... ...
ROW 30 : F-2 00 1 ... ... : A#2 00 1 ... ... : F#2 00 . ... : ... .. . ... : ... .. . ... : ... .. . ... ... : G#3 0C . 301 ...
ROW 31 : ... .. 2 ... ... : ... .. 2 ... ... : ... .. . ... : ... .. . ... : ... .. . ... : ... .. . ... ... : ... .. . ... ...
ROW 32 : ... .. 3 ... ... : ... .. 3 ... ... : ... .. . ... : ... .. . ... : ... .. . ... : ... .. . ... ... : ... .. . ... ...
ROW 33 : ... .. 4 ... ... : ... .. 4 ... ... : ... .. . ... : ... .. . ... : ... .. . ... : G#3 0C . 301 ... : ... .. . ... ...
ROW 34 : ... .. 3 ... ... : ... .. 3 ... ... : ... .. . ... : ... .. . ... : ... .. . ... : ... .. . ... ... : ... .. . ... ...
ROW 35 : ... .. . ... ... : ... .. . ... ... : ... .. . ... : ... .. . ... : ... .. . ... : ... .. . ... ... : ... .. . ... ...
ROW 36 : ... .. . ... ... : ... .. . ... ... : ... .. . ... : ... .. . ... : ... .. . ... : ... .. . ... ... : ... .. . ... ...
ROW 37 : ... .. . ... ... : ... .. . ... ... : ... .. . ... : ... .. . ... : ... .. . ... : ... .. . ... ... : ... .. . ... ...
ROW 38 : ... .. . ... ... : ... .. . ... ... : ... .. . ... : ... .. . ... : ... .. . ... : ... .. . ... ... : F#3 0C . 300 ...
ROW 39 : ... .. . ... ... : ... .. . ... ... : ... .. . ... : ... .. . ... : ... .. . ... : ... .. . ... ... : ... .. . ... ...
ROW 3A : ... .. . ... ... : ... .. . ... ... : ... .. . ... : ... .. . ... : ... .. . ... : ... .. . ... ... : ... .. . ... ...
ROW 3B : ... .. . ... ... : ... .. . ... ... : ... .. . ... : ... .. . ... : ... .. . ... : F#3 0C . 300 ... : ... .. . ... ...
ROW 3C : ... .. . ... ... : ... .. . ... ... : ... .. . ... : ... .. . ... : ... .. . ... : ... .. . ... ... : F-3 0C . ... ...
ROW 3D : ... .. . ... ... : ... .. . ... ... : ... .. . ... : ... .. . ... : ... .. . ... : ... .. . ... ... : ... .. . ... ...
ROW 3E : ... .. . ... ... : ... .. . ... ... : ... .. . ... : ... .. . ... : ... .. . ... : ... .. . ... ... : ... .. . ... ...
ROW 3F : ... .. . ... ... : ... .. . ... ... : ... .. . ... : ... .. . ... : ... .. . ... : F-3 0C . ... ... : ... .. . ... ...
ROW 40 : ... .. . ... ... : ... .. . ... ... : ... .. . ... : ... .. . ... : ... .. . ... : ... .. . ... ... : ... .. . ... ...
ROW 41 : ... .. . ... ... : ... .. . ... ... : ... .. . ... : ... .. . ... : ... .. . ... : ... .. . ... ... : ... .. . ... ...
ROW 42 : ... .. . ... ... : ... .. . ... ... : ... .. . ... : ... .. . ... : ... .. . ... : ... .. . ... ... : ... .. . ... ...
ROW 43 : ... .. . ... ... : ... .. . ... ... : ... .. . ... : ... .. . ... : ... .. . ... : ... .. . ... ... : ... .. . ... ...
ROW 44 : ... .. . ... ... : ... .. . ... ... : ... .. . ... : ... .. . ... : ... .. . ... : ... .. . ... ... : D#3 0C . ... ...
ROW 45 : ... .. . ... ... : ... .. . ... ... : ... .. . ... : ... .. . ... : ... .. . ... : ... .. . ... ... : ... .. . ... ...
ROW 46 : ... .. . ... ... : ... .. . ... ... : ... .. . ... : ... .. . ... : ... .. . ... : ... .. . ... ... : ... .. . ... ...
ROW 47 : ... .. . ... ... : ... .. . ... ... : ... .. . ... : ... .. . ... : ... .. . ... : D#3 0C . ... ... : ... .. . ... ...
ROW 48 : A-2 00 1 ... ... : B-2 00 1 ... ... : F-2 00 . ... : ... .. . ... : ... .. . ... : ... .. . ... ... : C#4 0C . ... ...
ROW 49 : ... .. 2 ... ... : ... .. 2 ... ... : ... .. . ... : ... .. . ... : ... .. . ... : ... .. . ... ... : ... .. . ... ...
ROW 4A : ... .. 3 ... ... : ... .. 3 ... ... : ... .. . ... : ... .. . ... : ... .. . ... : ... .. . ... ... : ... .. . ... ...
ROW 4B : ... .. 4 ... ... : ... .. 2 ... ... : ... .. . ... : ... .. . ... : ... .. . ... : C#4 0C . ... ... : ... .. . ... ...
ROW 4C : ... .. 3 ... ... : ... .. . ... ... : ... .. . ... : ... .. . ... : ... .. . ... : ... .. . ... ... : ... .. . 411 ...
ROW 4D : ... .. . ... ... : ... .. . ... ... : ... .. . ... : ... .. . ... : ... .. . ... : ... .. . ... ... : ... .. . 411 ...
ROW 4E : ... .. . ... ... : ... .. . ... ... : ... .. . ... : ... .. . ... : ... .. . ... : ... .. . ... ... : ... .. . 422 ...
ROW 4F : ... .. . ... ... : ... .. . ... ... : ... .. . ... : ... .. . ... : ... .. . ... : ... .. . 411 ... : ... .. . 422 ...
ROW 50 : ... .. . ... ... : ... .. . ... ... : ... .. . ... : ... .. . ... : ... .. . ... : ... .. . 411 ... : ... .. . 433 ...
ROW 51 : ... .. . ... ... : ... .. . ... ... : ... .. . ... : ... .. . ... : ... .. . ... : ... .. . 422 ... : ... .. . 443 ...
ROW 52 : ... .. . ... ... : ... .. . ... ... : ... .. . ... : ... .. . ... : ... .. . ... : ... .. . 422 ... : ... .. . 453 ...
ROW 53 : ... .. . ... ... : ... .. . ... ... : ... .. . ... : ... .. . ... : ... .. . ... : ... .. . 433 ... : ... .. . ... ...
ROW 54 : ... .. . ... ... : D#3 00 1 ... ... : ... .. . ... : ... .. . ... : ... .. . ... : ... .. . 443 ... : ... .. . ... ...
ROW 55 : ... .. . ... ... : ... .. 2 ... ... : ... .. . ... : ... .. . ... : ... .. . ... : ... .. . 453 ... : ... .. . ... ...
ROW 56 : ... .. . ... ... : ... .. 3 ... ... : ... .. . ... : ... .. . ... : ... .. . ... : ... .. . ... ... : ... .. . ... ...
ROW 57 : ... .. . ... ... : ... .. . ... ... : ... .. . ... : ... .. . ... : ... .. . ... : ... .. . ... ... : ... .. . ... ...
ROW 58 : ... .. 2 ... ... : ... .. 2 ... ... : ... .. . ... : ... .. . ... : ... .. . ... : ... .. . ... ... : ... .. . ... ...
ROW 59 : ... .. . ... ... : ... .. . ... ... : ... .. . ... : ... .. . ... : ... .. . ... : ... .. . ... ... : ... .. . ... ...
ROW 5A : ... .. . ... ... : ... .. . ... ... : ... .. . ... : ... .. . ... : ... .. . ... : ... .. . ... ... : ... .. . ... ...
ROW 5B : ... .. . ... ... : ... .. . ... ... : ... .. . ... : ... .. . ... : ... .. . ... : ... .. . ... ... : ... .. . ... ...
ROW 5C : ... .. 1 ... ... : ... .. 1 ... ... : E-2 00 . ... : ... .. . ... : ... .. . ... : ... .. . ... ... : F-3 0C . 400 ...
ROW 5D : ... .. . ... ... : ... .. . ... ... : ... .. . ... : ... .. . ... : ... .. . ... : ... .. . ... ... : ... .. . ... ...
ROW 5E : ... .. . ... ... : ... .. . ... ... : ... .. . ... : ... .. . ... : ... .. . ... : ... .. . ... ... : ... .. . ... ...
ROW 5F : ... .. . ... ... : ... .. . ... ... : ... .. . ... : ... .. . ... : ... .. . ... : F-3 0C . 400 ... : ... .. . ... ...

PATTERN 0F
ROW 00 : F#2 00 1 V01 ... : C#3 00 1 V01 ... : D#2 00 . ... : ... .. . ... : ... .. . ... : ... .. . ... ... : G#3 0C 6 P7E V01
ROW 01 : ... .. 2 ... ... : ... .. 2 ... ... : ... .. . ... : ... .. . ... : ... .. . ... : ... .. . ... ... : ... .. 7 ... 400
ROW 02 : ... .. 3 ... ... : ... .. 3 ... ... : ... .. . ... : ... .. . ... : ... .. . ... : ... .. . ... ... : ... .. . P7F ...
ROW 03 : ... .. 4 ... ... : ... .. 4 ... ... : ... .. . ... : ... .. . ... : ... .. . ... : G#3 0C 1 P7D V01 : ... .. . ... ...
ROW 04 : ... .. 3 ... ... : ... .. 3 ... ... : ... .. . ... : ... .. . ... : ... .. . ... : ... .. 2 ... 400 : ... .. . P80 ...
ROW 05 : ... .. . ... ... : ... .. . ... ... : ... .. . ... : ... .. . ... : ... .. . ... : ... .. . P7E ... : ... .. . ... ...
ROW 06 : ... .. . ... ... : ... .. . ... ... : ... .. . ... : ... .. . ... : ... .. . ... : ... .. . ... ... : ... .. . ... ...
ROW 07 : ... .. . ... ... : ... .. . ... ... : ... .. . ... : ... .. . ... : ... .. . ... : ... .. . P7F ... : ... .. . ... ...
ROW 08 : ... .. . ... ... : ... .. . ... ... : ... .. . ... : ... .. . ... : ... .. . ... : ... .. . ... ... : G-3 0C . 300 ...
ROW 09 : ... .. . ... ... : ... .. . ... ... : ... .. . ... : ... .. . ... : ... .. . ... : ... .. . ... ... : ... .. . ... ...
ROW 0A : ... .. . ... ... : ... .. . ... ... : ... .. . ... : ... .. . ... : ... .. . ... : ... .. . ... ... : ... .. . ... ...
ROW 0B : ... .. . ... ... : ... .. . ... ... : ... .. . ... : ... .. . ... : ... .. . ... : G-3 0C . 300 ... : ... .. . ... ...
ROW 0C : ... .. . ... ... : ... .. . ... ... : ... .. . ... : ... .. . ... : ... .. . ... : ... .. . ... ... : F#3 0C . ... ...
ROW 0D : ... .. . ... ... : ... .. . ... ... : ... .. . ... : ... .. . ... : ... .. . ... : ... .. . ... ... : ... .. . ... ...
ROW 0E : ... .. . ... ... : ... .. . ... ... : ... .. . ... : ... .. . ... : ... .. . ... : ... .. . ... ... : ... .. . ... ...
ROW 0F : ... .. . ... ... : ... .. . ... ... : ... .. . ... : ... .. . ... : ... .. . ... : F#3 0C . ... ... : ... .. . ... ...
ROW 10 : ... .. . ... ... : ... .. . ... ... : A#1 00 . ... : ... .. . ... : ... .. . ... : ... .. . ... ... : ... .. . ... ...
ROW 11 : ... .. . ... ... : ... .. . ... ... : ... .. . ... : ... .. . ... : ... .. . ... : ... .. . ... ... : ... .. . ... ...
ROW 12 : ... .. . ... ... : ... .. . ... ... : ... .. . ... : ... .. . ... : ... .. . ... : ... .. . ... ... : ... .. . ... ...
ROW 13 : ... .. . ... ... : ... .. . ... ... : ... .. . ... : ... .. . ... : ... .. . ... : ... .. . ... ... : ... .. . ... ...
ROW 14 : ... .. . ... ... : ... .. . ... ... : A-1 00 . ... : ... .. . ... : ... .. . ... : ... .. . ... ... : G#3 0C . ... ...
ROW 15 : ... .. . ... ... : ... .. . ... ... : ... .. . ... : ... .. . ... : ... .. . ... : ... .. . ... ... : ... .. . ... ...
ROW 16 : ... .. 2 ... ... : ... .. 2 ... ... : ... .. . ... : ... .. . ... : ... .. . ... : ... .. . ... ... : ... .. . ... ...
ROW 17 : ... .. 1 ... ... : ... .. 1 ... ... : ... .. . ... : ... .. . ... : ... .. . ... : G#3 0C . ... ... : ... .. . ... ...
ROW 18 : F#2 00 1 ... ... : C-3 00 1 ... ... : G#1 00 . ... : ... .. . ... : ... .. . ... : ... .. . ... ... : F-3 0C . ... ...
ROW 19 : ... .. 2 ... ... : ... .. 2 ... ... : ... .. . ... : ... .. . ... : ... .. . ... : ... .. . ... ... : ... .. . ... ...
ROW 1A : ... .. . ... ... : ... .. . ... ... : ... .. . ... : ... .. . ... : ... .. . ... : ... .. . ... ... : ... .. . ... ...
ROW 1B : ... .. 3 ... ... : ... .. 3 ... ... : ... .. . ... : ... .. . ... : ... .. . ... : F-3 0C . ... ... : ... .. . ... ...
ROW 1C : ... .. . ... ... : ... .. . ... ... : ... .. . ... : ... .. . ... : ... .. . ... : ... .. . ... ... : ... .. . 453 ...
ROW 1D : ... .. 4 ... ... : ... .. 4 ... ... : ... .. . ... : ... .. . ... : ... .. . ... : ... .. . ... ... : ... .. . ... ...
ROW 1E : ... .. . ... ... : ... .. . ... ... : ... .. . ... : ... .. . ... : ... .. . ... : ... .. . ... ... : ... .. . ... ...
ROW 1F : ... .. 3 ... ... : ... .. 3 ... ... : ... .. . ... : ... .. . ... : ... .. . ... : ... .. . 453 ... : ... .. . ... ...
ROW 20 : F-2 00 . ... ... : B-2 00 . ... ... : G-1 00 . ... : ... .. . ... : D-3 00 . ... : ... .. . ... ... : E-3 0C . 400 ...
ROW 21 : ... .. . ... ... : ... .. . ... ... : ... .. . ... : ... .. . ... : ... .. . ... : ... .. . ... ... : ... .. . ... ...
ROW 22 : ... .. . ... ... : ... .. . ... ... : ... .. . ... : ... .. . ... : ... .. . ... : ... .. . ... ... : ... .. . ... ...
ROW 23 : ... .. . ... ... : ... .. . ... ... : ... .. . ... : ... .. . ... : ... .. . ... : E-3 0C . 400 ... : ... .. . ... ...
ROW 24 : ... .. . ... ... : ... .. . ... ... : ... .. . ... : ... .. . ... : ... .. . ... : ... .. . ... ... : ... .. 6 ... ...
ROW 25 : ... .. . ... ... : ... .. . ... ... : ... .. . ... : ... .. . ... : ... .. . ... : ... .. . ... ... : ... .. 5 ... ...
ROW 26 : ... .. . ... ... : ... .. . ... ... : ... .. . ... : ... .. . ... : ... .. . ... : ... .. . ... ... : ... .. 4 ... ...
ROW 27 : ... .. . ... ... : ... .. . ... ... : ... .. . ... : ... .. . ... : ... .. . ... : ... .. . ... ... : ... .. 3 ... ...
ROW 28 : ... .. 2 ... ... : ... .. 2 ... ... : ... .. . ... : ... .. . ... : ... .. . ... : ... .. . ... ... : --- .. . ... ...
ROW 29 : ... .. . ... ... : ... .. . ... ... : ... .. . ... : ... .. . ... : ... .. . ... : ... .. . ... ... : ... .. . ... ...
ROW 2A : ... .. . ... ... : ... .. . ... ... : ... .. . ... : ... .. . ... : ... .. . ... : ... .. 1 ... ... : ... .. . ... ...
ROW 2B : ... .. . ... ... : ... .. 1 ... ... : ... .. . ... : ... .. . ... : ... .. . ... : --- .. . ... ... : ... .. . ... ...
ROW 2C : ... .. 1 ... ... : --- .. . ... ... : ... .. . ... : ... .. . ... : ... .. . ... : ... .. . ... ... : ... .. . ... ...
ROW 2D : --- .. . ... ... : ... .. . ... ... : ... .. . ... : ... .. . ... : ... .. . ... : ... .. . ... ... : ... .. . ... ...
ROW 2E : ... .. . ... ... : ... .. . ... ... : ... .. . ... : ... .. . ... : ... .. . ... : ... .. . ... ... : ... .. . ... ...
ROW 2F : ... .. . ... ... : ... .. . ... ... : ... .. . ... : ... .. . ... : ... .. . ... : ... .. . ... ... : ... .. . ... ...
ROW 30 : A-2 00 1 V01 ... : E-3 00 1 V01 ... : B-4 01 . P7F : ... .. . ... : ... .. . ... : ... .. . ... ... : B-3 01 3 P7E V02
ROW 31 : ... .. 2 ... ... : ... .. 2 ... ... : ... .. . P80 : ... .. . ... : ... .. . ... : ... .. . ... ... : ... .. 4 ... 400
ROW 32 : ... .. 3 ... ... : ... .. 3 ... ... : ... .. . ... : ... .. . ... : ... .. . ... : ... .. . ... ... : ... .. 5 P7F ...
ROW 33 : ... .. 4 ... ... : ... .. 4 ... ... : ... .. . ... : ... .. . ... : ... .. . ... : B-3 01 1 P7D V02 : ... .. 6 ... ...
ROW 34 : ... .. 3 ... ... : ... .. 3 ... ... : ... .. . ... : ... .. . ... : ... .. . ... : ... .. 2 ... 400 : ... .. . P80 ...
ROW 35 : ... .. . ... ... : ... .. . ... ... : ... .. . ... : ... .. . ... : ... .. . ... : ... .. . P7E ... : ... .. . ... ...
ROW 36 : ... .. . ... ... : ... .. . ... ... : ... .. . ... : ... .. . ... : ... .. . ... : ... .. . ... ... : ... .. . ... ...
ROW 37 : ... .. . ... ... : ... .. . ... ... : ... .. . ... : ... .. . ... : ... .. . ... : ... .. . P7F ... : ... .. . ... ...
ROW 38 : ... .. . ... ... : ... .. . ... ... : A#4 01 . 300 : ... .. . ... : ... .. . ... : ... .. . ... ... : A#3 01 . 300 ...
ROW 39 : ... .. . ... ... : ... .. . ... ... : ... .. . ... : ... .. . ... : ... .. . ... : ... .. . ... ... : ... .. . ... ...
ROW 3A : ... .. . ... ... : ... .. . ... ... : ... .. . ... : ... .. . ... : ... .. . ... : ... .. . ... ... : ... .. . ... ...
ROW 3B : ... .. . ... ... : ... .. . ... ... : ... .. . ... : ... .. . ... : ... .. . ... : A#3 01 . 300 ... : ... .. . ... ...
ROW 3C : ... .. . ... ... : ... .. . ... ... : A-4 01 . ... : ... .. . ... : ... .. . ... : ... .. . ... ... : A-3 01 . ... ...
ROW 3D : ... .. . ... ... : ... .. . ... ... : ... .. . ... : ... .. . ... : ... .. . ... : ... .. . ... ... : ... .. . ... ...
ROW 3E : ... .. . ... ... : ... .. . ... ... : ... .. . ... : ... .. . ... : ... .. . ... : ... .. . ... ... : ... .. . ... ...
ROW 3F : ... .. . ... ... : ... .. . ... ... : ... .. . ... : ... .. . ... : ... .. . ... : A-3 01 . ... ... : ... .. . ... ...
ROW 40 : ... .. . ... ... : ... .. . ... ... : ... .. . ... : ... .. . ... : ... .. . ... : ... .. . ... ... : ... .. . ... ...
ROW 41 : ... .. . ... ... : ... .. . ... ... : ... .. . ... : ... .. . ... : ... .. . ... : ... .. . ... ... : ... .. . ... ...
ROW 42 : ... .. . ... ... : ... .. . ... ... : ... .. . ... : ... .. . ... : ... .. . ... : ... .. . ... ... : ... .. . ... ...
ROW 43 : ... .. . ... ... : ... .. . ... ... : ... .. . ... : ... .. . ... : ... .. . ... : ... .. . ... ... : ... .. . ... ...
ROW 44 : ... .. . ... ... : ... .. . ... ... : B-4 01 . ... : ... .. . ... : ... .. . ... : ... .. . ... ... : B-3 01 . ... ...
ROW 45 : ... .. . ... ... : ... .. . ... ... : ... .. . ... : ... .. . ... : ... .. . ... : ... .. . ... ... : ... .. . ... ...
ROW 46 : ... .. 2 ... ... : ... .. 2 ... ... : ... .. . ... : ... .. . ... : ... .. . ... : ... .. . ... ... : ... .. . ... ...
ROW 47 : ... .. 1 ... ... : ... .. 1 ... ... : ... .. . ... : ... .. . ... : ... .. . ... : B-3 01 . ... ... : ... .. . ... ...
ROW 48 : A-2 00 1 ... ... : D#3 00 1 ... ... : A-4 01 . ... : ... .. . ... : ... .. . ... : ... .. . ... ... : A-3 01 . ... ...
ROW 49 : ... .. 2 ... ... : ... .. 2 ... ... : ... .. . ... : ... .. . ... : ... .. . ... : ... .. . ... ... : ... .. . ... ...
ROW 4A : ... .. . ... ... : ... .. . ... ... : ... .. . ... : ... .. . ... : ... .. . ... : ... .. . ... ... : ... .. . ... ...
ROW 4B : ... .. 3 ... ... : ... .. 3 ... ... : ... .. . ... : ... .. . ... : ... .. . ... : A-3 01 . ... ... : ... .. . ... ...
ROW 4C : ... .. . ... ... : ... .. . ... ... : ... .. . 462 : ... .. . ... : ... .. . ... : ... .. . ... ... : ... .. . 462 ...
ROW 4D : ... .. 4 ... ... : ... .. 4 ... ... : ... .. . ... : ... .. . ... : ... .. . ... : ... .. . ... ... : ... .. . ... ...
ROW 4E : ... .. . ... ... : ... .. . ... ... : ... .. . ... : ... .. . ... : ... .. . ... : ... .. . ... ... : ... .. . ... ...
ROW 4F : ... .. 3 ... ... : ... .. 3 ... ... : ... .. . ... : ... .. . ... : ... .. . ... : ... .. . 462 ... : ... .. . ... ...
ROW 50 : ... .. . ... ... : ... .. . ... ... : G#4 01 . 400 : ... .. . ... : ... .. . ... : ... .. . ... ... : G#3 01 . 400 ...
ROW 51 : ... .. . ... ... : ... .. . ... ... : ... .. . ... : ... .. . ... : ... .. . ... : ... .. . ... ... : ... .. . ... ...
ROW 52 : ... .. . ... ... : ... .. . ... ... : ... .. . ... : ... .. . ... : ... .. . ... : ... .. . ... ... : ... .. . ... ...
ROW 53 : ... .. . ... ... : ... .. . ... ... : ... .. . ... : ... .. . ... : ... .. . ... : G#3 01 . 400 ... : ... .. . ... ...
ROW 54 : ... .. . ... ... : ... .. . ... ... : ... .. . ... : ... .. . ... : ... .. . ... : ... .. . ... ... : ... .. 5 ... ...
ROW 55 : ... .. . ... ... : ... .. . ... ... : ... .. . ... : ... .. . ... : ... .. . ... : ... .. . ... ... : ... .. 4 ... ...
ROW 56 : ... .. . ... ... : ... .. . ... ... : ... .. . ... : ... .. . ... : ... .. . ... : ... .. . ... ... : ... .. 3 ... ...
ROW 57 : ... .. . ... ... : ... .. . ... ... : ... .. . ... : ... .. . ... : ... .. . ... : ... .. . ... ... : ... .. 2 ... ...
ROW 58 : ... .. 2 ... ... : ... .. 2 ... ... : ... .. . ... : ... .. . ... : ... .. . ... : ... .. . ... ... : --- .. . ... ...
ROW 59 : ... .. . ... ... : ... .. . ... ... : ... .. . ... : ... .. . ... : ... .. . ... : ... .. . ... ... : ... .. . ... ...
ROW 5A : ... .. . ... ... : ... .. . ... ... : ... .. . ... : ... .. . ... : ... .. . ... : ... .. 1 ... ... : ... .. . ... ...
ROW 5B : ... .. . ... ... : ... .. 1 ... ... : ... .. . ... : ... .. . ... : ... .. . ... : --- .. . ... ... : ... .. . ... ...
ROW 5C : ... .. 1 ... ... : --- .. . ... ... : ... .. . ... : ... .. . ... : ... .. . ... : ... .. . ... ... : ... .. . ... ...
ROW 5D : ... .. . ... ... : ... .. . ... ... : ... .. . ... : ... .. . ... : ... .. . F08 : ... .. . ... ... : ... .. . ... ...
ROW 5E : --- .. . ... ... : ... .. . ... ... : ... .. . ... : ... .. . ... : ... .. . ... : ... .. . ... ... : ... .. . ... ...
ROW 5F : ... .. . ... ... : ... .. . ... ... : ... .. . P7F : ... .. . ... : ... .. . ... : ... .. . ... ... : ... .. . ... ...

PATTERN 10
ROW 00 : F-2 00 1 G02 V00 : A#2 00 1 G04 V00 : C-5 00 . P80 : ... .. . ... : D-3 00 . F05 : ... .. . ... ... : C-4 0D 6 P80 V02
ROW 01 : ... .. 2 ... ... : ... .. 2 ... ... : ... .. . ... : ... .. . ... : ... .. . ... : ... .. . ... ... : ... .. . ... ...
ROW 02 : ... .. 3 ... ... : ... .. 3 ... ... : ... .. . ... : ... .. . ... : ... .. . ... : ... .. . ... ... : ... .. 5 ... ...
ROW 03 : ... .. 4 ... ... : ... .. 4 ... ... : ... .. . ... : ... .. . ... : ... .. . ... : C-4 00 1 V02 P7F : ... .. . ... ...
ROW 04 : ... .. 3 ... ... : ... .. 3 ... ... : ... .. . ... : ... .. . ... : ... .. . ... : ... .. . ... ... : ... .. 4 ... ...
ROW 05 : ... .. . ... ... : ... .. . ... ... : ... .. . ... : ... .. . ... : ... .. . ... : ... .. . ... ... : ... .. . ... ...
ROW 06 : ... .. . ... ... : ... .. . ... ... : ... .. . ... : ... .. . ... : ... .. . ... : ... .. . ... ... : ... .. . ... ...
ROW 07 : ... .. . ... ... : ... .. . ... ... : ... .. . ... : ... .. . ... : ... .. . ... : ... .. . ... ... : ... .. . ... ...
ROW 08 : ... .. . ... ... : ... .. . ... ... : ... .. . P7F : ... .. . ... : ... .. . ... : ... .. . ... ... : ... .. . ... ...
ROW 09 : ... .. . ... ... : ... .. . ... ... : ... .. . ... : ... .. . ... : ... .. . ... : ... .. . ... ... : ... .. . ... ...
ROW 0A : ... .. . ... ... : ... .. . ... ... : ... .. . ... : ... .. . ... : ... .. . ... : ... .. . ... ... : ... .. . ... ...
ROW 0B : ... .. . ... ... : ... .. . ... ... : ... .. . ... : ... .. . ... : ... .. . ... : ... .. . ... ... : ... .. . ... ...
ROW 0C : ... .. . ... ... : ... .. . ... ... : ... .. . ... : ... .. . ... : ... .. . ... : ... .. . ... ... : ... .. 3 ... ...
ROW 0D : ... .. . ... ... : ... .. . ... ... : ... .. . ... : ... .. . ... : ... .. . ... : ... .. . ... ... : ... .. . ... ...
ROW 0E : ... .. . ... ... : ... .. . ... ... : ... .. . ... : ... .. . ... : ... .. . ... : ... .. . ... ... : ... .. . ... ...
ROW 0F : ... .. . ... ... : ... .. . ... ... : ... .. . ... : ... .. . ... : ... .. . ... : ... .. . ... ... : ... .. . ... ...
ROW 10 : ... .. 2 ... ... : ... .. 2 ... ... : ... .. . ... : ... .. . ... : ... .. . ... : ... .. . ... ... : ... .. . ... ...
ROW 11 : ... .. . ... ... : ... .. . ... ... : ... .. . ... : ... .. . ... : ... .. . ... : ... .. . ... ... : ... .. . ... ...
ROW 12 : ... .. . ... ... : ... .. . ... ... : ... .. . ... : ... .. . ... : ... .. . ... : ... .. . ... ... : ... .. 2 ... ...
ROW 13 : ... .. . ... ... : ... .. . ... ... : ... .. . ... : ... .. . ... : ... .. . ... : ... .. . ... ... : ... .. . ... ...
ROW 14 : ... .. . ... ... : ... .. . ... ... : ... .. . ... : ... .. . ... : ... .. . ... : ... .. . ... ... : ... .. . ... ...
ROW 15 : ... .. . ... ... : ... .. . ... ... : ... .. . ... : ... .. . ... : ... .. . ... : ... .. . ... ... : ... .. . ... ...
ROW 16 : ... .. . ... ... : ... .. . ... ... : ... .. . ... : ... .. . ... : ... .. . ... : ... .. . ... ... : ... .. . ... ...
ROW 17 : ... .. . ... ... : ... .. . ... ... : ... .. . ... : ... .. . ... : ... .. . ... : ... .. . ... ... : ... .. . ... ...
ROW 18 : ... .. . ... ... : ... .. . ... ... : ... .. . ... : ... .. . ... : ... .. . ... : ... .. . ... ... : ... .. . ... ...
ROW 19 : ... .. 1 P81 ... : ... .. . ... ... : ... .. . ... : ... .. . ... : ... .. . ... : ... .. . ... ... : ... .. . ... ...
ROW 1A : ... .. . ... ... : ... .. 1 P7F ... : ... .. . ... : ... .. . ... : ... .. . ... : ... .. . ... ... : ... .. . ... ...
ROW 1B : ... .. . ... ... : ... .. . ... ... : ... .. . ... : ... .. . ... : ... .. . ... : ... .. . ... ... : ... .. 1 P81 ...
ROW 1C : ... .. . ... ... : ... .. . ... ... : ... .. . ... : ... .. . ... : ... .. . ... : ... .. . ... ... : ... .. . ... ...
ROW 1D : ... .. . ... ... : ... .. . ... ... : ... .. . ... : ... .. . ... : ... .. . ... : ... .. . ... ... : ... .. . ... ...
ROW 1E : ... .. . ... ... : ... .. . ... ... : ... .. . ... : ... .. . ... : ... .. . ... : ... .. . ... ... : ... .. . ... ...
ROW 1F : ... .. . ... ... : ... .. . ... ... : ... .. . ... : ... .. . ... : ... .. . ... : ... .. . ... ... : ... .. . ... ...
ROW 20 : ... .. . ... ... : ... .. . ... ... : ... .. . ... : ... .. . ... : ... .. . ... : ... .. . ... ... : ... .. . ... ...
ROW 21 : ... .. . ... ... : ... .. . ... ... : ... .. . ... : ... .. . ... : ... .. . ... : ... .. . ... ... : ... .. . ... ...
ROW 22 : ... .. . ... ... : ... .. . ... ... : ... .. . ... : ... .. . ... : ... .. . ... : ... .. . ... ... : ... .. . ... ...
ROW 23 : ... .. . ... ... : ... .. . ... ... : ... .. . ... : ... .. . ... : ... .. . ... : ... .. . ... ... : ... .. . ... ...
ROW 24 : ... .. . ... ... : ... .. . ... ... : ... .. . ... : ... .. . ... : ... .. . F09 : ... .. . ... ... : ... .. . ... ...
ROW 25 : ... .. . ... ... : ... .. . ... ... : ... .. . ... : ... .. . ... : ... .. . ... : ... .. . P7E ... : ... .. . ... ...
ROW 26 : ... .. . ... ... : ... .. . P7E ... : ... .. . ... : ... .. . ... : ... .. . ... : ... .. . ... ... : ... .. . ... ...
ROW 27 : ... .. . ... ... : ... .. . ... ... : ... .. . ... : ... .. . ... : ... .. . ... : ... .. . ... ... : ... .. . ... ...
ROW 28 : ... .. . ... ... : ... .. . ... ... : ... .. . P80 : ... .. . ... : ... .. . ... : ... .. . ... ... : ... .. . ... ...
ROW 29 : ... .. . ... ... : ... .. . ... ... : ... .. . ... : ... .. . ... : ... .. . ... : ... .. . ... ... : ... .. . ... ...
ROW 2A : ... .. . ... ... : ... .. . ... ... : ... .. . ... : ... .. . ... : ... .. . ... : ... .. . P7F ... : ... .. . ... ...
ROW 2B : ... .. . ... ... : ... .. . ... ... : ... .. . ... : ... .. . ... : ... .. . ... : ... .. . ... ... : ... .. . ... ...
ROW 2C : ... .. . ... ... : ... .. . ... ... : ... .. . ... : ... .. . ... : ... .. . ... : ... .. . ... ... : ... .. . ... ...
ROW 2D : ... .. . ... ... : ... .. . ... ... : ... .. . ... : ... .. . ... : ... .. . ... : ... .. . ... ... : ... .. . ... ...
ROW 2E : ... .. . ... ... : ... .. . P7F ... : ... .. . ... : ... .. . ... : ... .. . ... : ... .. . ... ... : ... .. . ... ...
ROW 2F : ... .. . ... ... : ... .. . ... ... : ... .. . ... : ... .. . ... : ... .. . ... : ... .. . ... ... : ... .. . ... ...
ROW 30 : ... .. . P80 ... : ... .. . ... ... : ... .. . ... : ... .. . ... : ... .. . ... : ... .. . ... ... : ... .. . ... ...
ROW 31 : ... .. . ... ... : ... .. . ... ... : ... .. . ... : ... .. . ... : ... .. . ... : ... .. . ... ... : ... .. . ... ...
ROW 32 : ... .. . ... ... : ... .. . P80 ... : ... .. . ... : ... .. . ... : ... .. . ... : ... .. . ... ... : ... .. . ... ...
ROW 33 : ... .. . ... ... : ... .. . ... ... : ... .. . ... : ... .. . ... : ... .. . ... : ... .. . ... ... : ... .. . ... ...
ROW 34 : ... .. . ... ... : ... .. . ... ... : ... .. . ... : ... .. . ... : ... .. . ... : ... .. . ... ... : ... .. . P80 ...
ROW 35 : ... .. . ... ... : ... .. . ... ... : ... .. . ... : ... .. . ... : ... .. . ... : ... .. . ... ... : ... .. . ... ...
ROW 36 : ... .. . ... ... : ... .. . ... ... : ... .. . ... : ... .. . ... : ... .. . ... : ... .. . ... ... : ... .. . ... ...
ROW 37 : ... .. . ... ... : ... .. . ... ... : ... .. . ... : ... .. . ... : ... .. . ... : ... .. . ... ... : ... .. . ... ...
ROW 38 : ... .. . ... ... : ... .. . ... ... : ... .. . ... : ... .. . ... : ... .. . ... : ... .. . ... ... : ... .. . ... ...
ROW 39 : ... .. . ... ... : ... .. . ... ... : ... .. . ... : ... .. . ... : ... .. . ... : ... .. . ... ... : ... .. . ... ...
ROW 3A : ... .. . ... ... : ... .. . ... ... : ... .. . ... : ... .. . ... : ... .. . ... : ... .. . ... ... : ... .. . ... ...
ROW 3B : ... .. . ... ... : ... .. . ... ... : ... .. . ... : ... .. . ... : ... .. . ... : ... .. . ... ... : ... .. . ... ...
ROW 3C : ... .. . ... ... : ... .. . ... ... : ... .. . ... : ... .. . ... : ... .. . ... : ... .. . ... ... : ... .. . ... ...
ROW 3D : ... .. . ... ... : ... .. . ... ... : ... .. . ... : ... .. . ... : ... .. . ... : ... .. . ... ... : ... .. . ... ...
ROW 3E : ... .. . ... ... : ... .. . ... ... : ... .. . ... : ... .. . ... : ... .. . ... : ... .. . ... ... : ... .. . ... ...
ROW 3F : ... .. . ... ... : ... .. . ... ... : ... .. . ... : ... .. . ... : ... .. . F03 : ... .. . ... ... : ... .. . ... ...
ROW 40 : --- .. . ... ... : ... .. . ... ... : ... .. . ... : ... .. . ... : ... .. . ... : ... .. . ... ... : ... .. . ... ...
ROW 41 : ... .. . ... ... : ... .. . ... ... : ... .. . ... : ... .. . ... : ... .. . ... : --- .. . ... ... : ... .. . ... ...
ROW 42 : ... .. . ... ... : --- .. . ... ... : ... .. . ... : ... .. . ... : ... .. . ... : ... .. . ... ... : --- .. . ... ...
ROW 43 : ... .. . ... ... : ... .. . ... ... : --- .. . ... : ... .. . ... : ... .. . ... : ... .. . ... ... : ... .. . ... ...
ROW 44 : ... .. . ... ... : ... .. . ... ... : ... .. . ... : ... .. . ... : ... .. . F0A : ... .. . ... ... : ... .. . ... ...
ROW 45 : ... .. . ... ... : ... .. . ... ... : ... .. . ... : ... .. . ... : ... .. . ... : ... .. . ... ... : ... .. . ... ...
ROW 46 : ... .. . ... ... : ... .. . ... ... : ... .. . ... : ... .. . ... : ... .. . ... : ... .. . ... ... : ... .. . ... ...
ROW 47 : ... .. . ... ... : ... .. . ... ... : ... .. . ... : ... .. . ... : ... .. . ... : ... .. . ... ... : ... .. . ... ...
ROW 48 : ... .. . ... ... : ... .. . ... ... : ... .. . ... : ... .. . ... : ... .. . ... : ... .. . ... ... : ... .. . ... ...
ROW 49 : ... .. . ... ... : ... .. . ... ... : ... .. . ... : ... .. . ... : ... .. . ... : ... .. . ... ... : ... .. . ... ...
ROW 4A : ... .. . ... ... : ... .. . ... ... : ... .. . ... : ... .. . ... : ... .. . ... : ... .. . ... ... : ... .. . ... ...
ROW 4B : ... .. . ... ... : ... .. . ... ... : ... .. . ... : ... .. . ... : C-3 00 . ... : ... .. . ... ... : ... .. . ... ...
ROW 4C : ... .. . ... ... : ... .. . ... ... : ... .. . ... : ... .. . ... : ... .. . C00 : ... .. . ... ... : ... .. . ... ...
ROW 4D : ... .. . ... ... : ... .. . ... ... : ... .. . ... : ... .. . ... : ... .. . ... : ... .. . ... ... : ... .. . ... ...
ROW 4E : ... .. . ... ... : ... .. . ... ... : ... .. . ... : ... .. . ... : ... .. . ... : ... .. . ... ... : ... .. . ... ...
ROW 4F : ... .. . ... ... : ... .. . ... ... : ... .. . ... : ... .. . ... : ... .. . ... : ... .. . ... ... : ... .. . ... ...
ROW 50 : ... .. . ... ... : ... .. . ... ... : ... .. . ... : ... .. . ... : ... .. . ... : ... .. . ... ... : ... .. . ... ...
ROW 51 : ... .. . ... ... : ... .. . ... ... : ... .. . ... : ... .. . ... : ... .. . ... : ... .. . ... ... : ... .. . ... ...
ROW 52 : ... .. . ... ... : ... .. . ... ... : ... .. . ... : ... .. . ... : ... .. . ... : ... .. . ... ... : ... .. . ... ...
ROW 53 : ... .. . ... ... : ... .. . ... ... : ... .. . ... : ... .. . ... : ... .. . ... : ... .. . ... ... : ... .. . ... ...
ROW 54 : ... .. . ... ... : ... .. . ... ... : ... .. . ... : ... .. . ... : ... .. . ... : ... .. . ... ... : ... .. . ... ...
ROW 55 : ... .. . ... ... : ... .. . ... ... : ... .. . ... : ... .. . ... : ... .. . ... : ... .. . ... ... : ... .. . ... ...
ROW 56 : ... .. . ... ... : ... .. . ... ... : ... .. . ... : ... .. . ... : ... .. . ... : ... .. . ... ... : ... .. . ... ...
ROW 57 : ... .. . ... ... : ... .. . ... ... : ... .. . ... : ... .. . ... : ... .. . ... : ... .. . ... ... : ... .. . ... ...
ROW 58 : ... .. . ... ... : ... .. . ... ... : ... .. . ... : ... .. . ... : ... .. . ... : ... .. . ... ... : ... .. . ... ...
ROW 59 : ... .. . ... ... : ... .. . ... ... : ... .. . ... : ... .. . ... : ... .. . ... : ... .. . ... ... : ... .. . ... ...
ROW 5A : ... .. . ... ... : ... .. . ... ... : ... .. . ... : ... .. . ... : ... .. . ... : ... .. . ... ... : ... .. . ... ...
ROW 5B : ... .. . ... ... : ... .. . ... ... : ... .. . ... : ... .. . ... : ... .. . ... : ... .. . ... ... : ... .. . ... ...
ROW 5C : ... .. . ... ... : ... .. . ... ... : ... .. . ... : ... .. . ... : ... .. . ... : ... .. . ... ... : ... .. . ... ...
ROW 5D : ... .. . ... ... : ... .. . ... ... : ... .. . ... : ... .. . ... : ... .. . ... : ... .. . ... ... : ... .. . ... ...
ROW 5E : ... .. . ... ... : ... .. . ... ... : ... .. . ... : ... .. . ... : ... .. . ... : ... .. . ... ... : ... .. . ... ...
ROW 5F : ... .. . ... ... : ... .. . ... ... : ... .. . ... : ... .. . ... : ... .. . ... : ... .. . ... ... : ... .. . ... ...

PATTERN 11
ROW 00 : ... .. . ... ... : ... .. . ... ... : ... .. . ... : ... .. . F01 : ... .. . ... : ... .. . ... ... : ... .. . ... ...
ROW 01 : ... .. . ... ... : ... .. . ... ... : ... .. . ... : ... .. . ... : ... .. . ... : ... .. . ... ... : ... .. . ... ...
ROW 02 : ... .. . ... ... : ... .. . ... ... : ... .. . ... : ... .. . ... : ... .. . ... : ... .. . ... ... : ... .. . ... ...
ROW 03 : ... .. . ... ... : ... .. . ... ... : ... .. . ... : ... .. . ... : ... .. . ... : ... .. . ... ... : ... .. . ... ...
ROW 04 : ... .. . ... ... : ... .. . ... ... : ... .. . ... : ... .. . ... : ... .. . ... : ... .. . ... ... : ... .. . ... ...
ROW 05 : ... .. . ... ... : ... .. . ... ... : ... .. . ... : ... .. . ... : ... .. . ... : ... .. . ... ... : ... .. . ... ...
ROW 06 : ... .. . ... ... : ... .. . ... ... : ... .. . ... : ... .. . ... : ... .. . ... : ... .. . ... ... : ... .. . ... ...
ROW 07 : ... .. . ... ... : ... .. . ... ... : ... .. . ... : ... .. . ... : ... .. . ... : ... .. . ... ... : ... .. . ... ...
ROW 08 : ... .. . ... ... : ... .. . ... ... : ... .. . ... : ... .. . ... : ... .. . ... : ... .. . ... ... : ... .. . ... ...
ROW 09 : ... .. . ... ... : ... .. . ... ... : ... .. . ... : ... .. . ... : ... .. . ... : ... .. . ... ... : ... .. . ... ...
ROW 0A : ... .. . ... ... : ... .. . ... ... : ... .. . ... : ... .. . ... : ... .. . ... : ... .. . ... ... : ... .. . ... ...
ROW 0B : ... .. . ... ... : ... .. . ... ... : ... .. . ... : ... .. . ... : ... .. . ... : ... .. . ... ... : ... .. . ... ...
ROW 0C : ... .. . ... ... : ... .. . ... ... : ... .. . ... : ... .. . ... : ... .. . ... : ... .. . ... ... : ... .. . ... ...
ROW 0D : ... .. . ... ... : ... .. . ... ... : ... .. . ... : ... .. . ... : ... .. . ... : ... .. . ... ... : ... .. . ... ...
ROW 0E : ... .. . ... ... : ... .. . ... ... : ... .. . ... : ... .. . ... : ... .. . ... : ... .. . ... ... : ... .. . ... ...
ROW 0F : ... .. . ... ... : ... .. . ... ... : ... .. . ... : ... .. . ... : ... .. . ... : ... .. . ... ... : ... .. . ... ...
ROW 10 : ... .. . ... ... : ... .. . ... ... : ... .. . ... : ... .. . ... : ... .. . ... : ... .. . ... ... : ... .. . ... ...
ROW 11 : ... .. . ... ... : ... .. . ... ... : ... .. . ... : ... .. . ... : ... .. . ... : ... .. . ... ... : ... .. . ... ...
ROW 12 : ... .. . ... ... : ... .. . ... ... : ... .. . ... : ... .. . ... : ... .. . ... : ... .. . ... ... : ... .. . ... ...
ROW 13 : ... .. . ... ... : ... .. . ... ... : ... .. . ... : ... .. . ... : ... .. . ... : ... .. . ... ... : ... .. . ... ...
ROW 14 : ... .. . ... ... : ... .. . ... ... : ... .. . ... : ... .. . ... : ... .. . ... : ... .. . ... ... : ... .. . ... ...
ROW 15 : ... .. . ... ... : ... .. . ... ... : ... .. . ... : ... .. . ... : ... .. . ... : ... .. . ... ... : ... .. . ... ...
ROW 16 : ... .. . ... ... : ... .. . ... ... : ... .. . ... : ... .. . ... : ... .. . ... : ... .. . ... ... : ... .. . ... ...
ROW 17 : ... .. . ... ... : ... .. . ... ... : ... .. . ... : ... .. . ... : ... .. . ... : ... .. . ... ... : ... .. . ... ...
ROW 18 : ... .. . ... ... : ... .. . ... ... : ... .. . ... : ... .. . ... : ... .. . ... : ... .. . ... ... : ... .. . ... ...
ROW 19 : ... .. . ... ... : ... .. . ... ... : ... .. . ... : ... .. . ... : ... .. . ... : ... .. . ... ... : ... .. . ... ...
ROW 1A : ... .. . ... ... : ... .. . ... ... : ... .. . ... : ... .. . ... : ... .. . ... : ... .. . ... ... : ... .. . ... ...
ROW 1B : ... .. . ... ... : ... .. . ... ... : ... .. . ... : ... .. . ... : ... .. . ... : ... .. . ... ... : ... .. . ... ...
ROW 1C : ... .. . ... ... : ... .. . ... ... : ... .. . ... : ... .. . ... : ... .. . ... : ... .. . ... ... : ... .. . ... ...
ROW 1D : ... .. . ... ... : ... .. . ... ... : ... .. . ... : ... .. . ... : ... .. . ... : ... .. . ... ... : ... .. . ... ...
ROW 1E : ... .. . ... ... : ... .. . ... ... : ... .. . ... : ... .. . ... : ... .. . ... : ... .. . ... ... : ... .. . ... ...
ROW 1F : ... .. . ... ... : ... .. . ... ... : ... .. . ... : ... .. . ... : ... .. . ... : ... .. . ... ... : ... .. . ... ...
ROW 20 : ... .. . ... ... : ... .. . ... ... : ... .. . ... : ... .. . ... : ... .. . ... : ... .. . ... ... : ... .. . ... ...
ROW 21 : ... .. . ... ... : ... .. . ... ... : ... .. . ... : ... .. . ... : ... .. . ... : ... .. . ... ... : ... .. . ... ...
ROW 22 : ... .. . ... ... : ... .. . ... ... : ... .. . ... : ... .. . ... : ... .. . ... : ... .. . ... ... : ... .. . ... ...
ROW 23 : ... .. . ... ... : ... .. . ... ... : ... .. . ... : ... .. . ... : ... .. . ... : ... .. . ... ... : ... .. . ... ...
ROW 24 : ... .. . ... ... : ... .. . ... ... : ... .. . ... : ... .. . ... : ... .. . ... : ... .. . ... ... : ... .. . ... ...
ROW 25 : ... .. . ... ... : ... .. . ... ... : ... .. . ... : ... .. . ... : ... .. . ... : ... .. . ... ... : ... .. . ... ...
ROW 26 : ... .. . ... ... : ... .. . ... ... : ... .. . ... : ... .. . ... : ... .. . ... : ... .. . ... ... : ... .. . ... ...
ROW 27 : ... .. . ... ... : ... .. . ... ... : ... .. . ... : ... .. . ... : ... .. . ... : ... .. . ... ... : ... .. . ... ...
ROW 28 : ... .. . ... ... : ... .. . ... ... : ... .. . ... : ... .. . ... : ... .. . ... : ... .. . ... ... : ... .. . ... ...
ROW 29 : ... .. . ... ... : ... .. . ... ... : ... .. . ... : ... .. . ... : ... .. . ... : ... .. . ... ... : ... .. . ... ...
ROW 2A : ... .. . ... ... : ... .. . ... ... : ... .. . ... : ... .. . ... : ... .. . ... : ... .. . ... ... : ... .. . ... ...
ROW 2B : ... .. . ... ... : ... .. . ... ... : ... .. . ... : ... .. . ... : ... .. . ... : ... .. . ... ... : ... .. . ... ...
ROW 2C : ... .. . ... ... : ... .. . ... ... : ... .. . ... : ... .. . ... : ... .. . ... : ... .. . ... ... : ... .. . ... ...
ROW 2D : ... .. . ... ... : ... .. . ... ... : ... .. . ... : ... .. . ... : ... .. . ... : ... .. . ... ... : ... .. . ... ...
ROW 2E : ... .. . ... ... : ... .. . ... ... : ... .. . ... : ... .. . ... : ... .. . ... : ... .. . ... ... : ... .. . ... ...
ROW 2F : ... .. . ... ... : ... .. . ... ... : ... .. . ... : ... .. . ... : ... .. . ... : ... .. . ... ... : ... .. . ... ...
ROW 30 : ... .. . ... ... : ... .. . ... ... : ... .. . ... : ... .. . ... : ... .. . ... : ... .. . ... ... : ... .. . ... ...
ROW 31 : ... .. . ... ... : ... .. . ... ... : ... .. . ... : ... .. . ... : ... .. . ... : ... .. . ... ... : ... .. . ... ...
ROW 32 : ... .. . ... ... : ... .. . ... ... : ... .. . ... : ... .. . ... : ... .. . ... : ... .. . ... ... : ... .. . ... ...
ROW 33 : ... .. . ... ... : ... .. . ... ... : ... .. . ... : ... .. . ... : ... .. . ... : ... .. . ... ... : ... .. . ... ...
ROW 34 : ... .. . ... ... : ... .. . ... ... : ... .. . ... : ... .. . ... : ... .. . ... : ... .. . ... ... : ... .. . ... ...
ROW 35 : ... .. . ... ... : ... .. . ... ... : ... .. . ... : ... .. . ... : ... .. . ... : ... .. . ... ... : ... .. . ... ...
ROW 36 : ... .. . ... ... : ... .. . ... ... : ... .. . ... : ... .. . ... : ... .. . ... : ... .. . ... ... : ... .. . ... ...
ROW 37 : ... .. . ... ... : ... .. . ... ... : ... .. . ... : ... .. . ... : ... .. . ... : ... .. . ... ... : ... .. . ... ...
ROW 38 : ... .. . ... ... : ... .. . ... ... : ... .. . ... : ... .. . ... : ... .. . ... : ... .. . ... ... : ... .. . ... ...
ROW 39 : ... .. . ... ... : ... .. . ... ... : ... .. . ... : ... .. . ... : ... .. . ... : ... .. . ... ... : ... .. . ... ...
ROW 3A : ... .. . ... ... : ... .. . ... ... : ... .. . ... : ... .. . ... : ... .. . ... : ... .. . ... ... : ... .. . ... ...
ROW 3B : ... .. . ... ... : ... .. . ... ... : ... .. . ... : ... .. . ... : ... .. . ... : ... .. . ... ... : ... .. . ... ...
ROW 3C : ... .. . ... ... : ... .. . ... ... : ... .. . ... : ... .. . ... : ... .. . ... : ... .. . ... ... : ... .. . ... ...
ROW 3D : ... .. . ... ... : ... .. . ... ... : ... .. . ... : ... .. . ... : ... .. . ... : ... .. . ... ... : ... .. . ... ...
ROW 3E : ... .. . ... ... : ... .. . ... ... : ... .. . ... : ... .. . ... : ... .. . ... : ... .. . ... ... : ... .. . ... ...
ROW 3F : ... .. . ... ... : ... .. . ... ... : ... .. . ... : ... .. . ... : ... .. . ... : ... .. . ... ... : ... .. . ... ...
ROW 40 : ... .. . ... ... : ... .. . ... ... : ... .. . ... : ... .. . ... : ... .. . ... : ... .. . ... ... : ... .. . ... ...
ROW 41 : ... .. . ... ... : ... .. . ... ... : ... .. . ... : ... .. . ... : ... .. . ... : ... .. . ... ... : ... .. . ... ...
ROW 42 : ... .. . ... ... : ... .. . ... ... : ... .. . ... : ... .. . ... : ... .. . ... : ... .. . ... ... : ... .. . ... ...
ROW 43 : ... .. . ... ... : ... .. . ... ... : ... .. . ... : ... .. . ... : ... .. . ... : ... .. . ... ... : ... .. . ... ...
ROW 44 : ... .. . ... ... : ... .. . ... ... : ... .. . ... : ... .. . ... : ... .. . ... : ... .. . ... ... : ... .. . ... ...
ROW 45 : ... .. . ... ... : ... .. . ... ... : ... .. . ... : ... .. . ... : ... .. . ... : ... .. . ... ... : ... .. . ... ...
ROW 46 : ... .. . ... ... : ... .. . ... ... : ... .. . ... : ... .. . ... : ... .. . ... : ... .. . ... ... : ... .. . ... ...
ROW 47 : ... .. . ... ... : ... .. . ... ... : ... .. . ... : ... .. . ... : ... .. . ... : ... .. . ... ... : ... .. . ... ...
ROW 48 : ... .. . ... ... : ... .. . ... ... : ... .. . ... : ... .. . ... : ... .. . ... : ... .. . ... ... : ... .. . ... ...
ROW 49 : ... .. . ... ... : ... .. . ... ... : ... .. . ... : ... .. . ... : ... .. . ... : ... .. . ... ... : ... .. . ... ...
ROW 4A : ... .. . ... ... : ... .. . ... ... : ... .. . ... : ... .. . ... : ... .. . ... : ... .. . ... ... : ... .. . ... ...
ROW 4B : ... .. . ... ... : ... .. . ... ... : ... .. . ... : ... .. . ... : ... .. . ... : ... .. . ... ... : ... .. . ... ...
ROW 4C : ... .. . ... ... : ... .. . ... ... : ... .. . ... : ... .. . ... : ... .. . ... : ... .. . ... ... : ... .. . ... ...
ROW 4D : ... .. . ... ... : ... .. . ... ... : ... .. . ... : ... .. . ... : ... .. . ... : ... .. . ... ... : ... .. . ... ...
ROW 4E : ... .. . ... ... : ... .. . ... ... : ... .. . ... : ... .. . ... : ... .. . ... : ... .. . ... ... : ... .. . ... ...
ROW 4F : ... .. . ... ... : ... .. . ... ... : ... .. . ... : ... .. . ... : ... .. . ... : ... .. . ... ... : ... .. . ... ...
ROW 50 : ... .. . ... ... : ... .. . ... ... : ... .. . ... : ... .. . ... : ... .. . ... : ... .. . ... ... : ... .. . ... ...
ROW 51 : ... .. . ... ... : ... .. . ... ... : ... .. . ... : ... .. . ... : ... .. . ... : ... .. . ... ... : ... .. . ... ...
ROW 52 : ... .. . ... ... : ... .. . ... ... : ... .. . ... : ... .. . ... : ... .. . ... : ... .. . ... ... : ... .. . ... ...
ROW 53 : ... .. . ... ... : ... .. . ... ... : ... .. . ... : ... .. . ... : ... .. . ... : ... .. . ... ... : ... .. . ... ...
ROW 54 : ... .. . ... ... : ... .. . ... ... : ... .. . ... : ... .. . ... : ... .. . ... : ... .. . ... ... : ... .. . ... ...
ROW 55 : ... .. . ... ... : ... .. . ... ... : ... .. . ... : ... .. . ... : ... .. . ... : ... .. . ... ... : ... .. . ... ...
ROW 56 : ... .. . ... ... : ... .. . ... ... : ... .. . ... : ... .. . ... : ... .. . ... : ... .. . ... ... : ... .. . ... ...
ROW 57 : ... .. . ... ... : ... .. . ... ... : ... .. . ... : ... .. . ... : ... .. . ... : ... .. . ... ... : ... .. . ... ...
ROW 58 : ... .. . ... ... : ... .. . ... ... : ... .. . ... : ... .. . ... : ... .. . ... : ... .. . ... ... : ... .. . ... ...
ROW 59 : ... .. . ... ... : ... .. . ... ... : ... .. . ... : ... .. . ... : ... .. . ... : ... .. . ... ... : ... .. . ... ...
ROW 5A : ... .. . ... ... : ... .. . ... ... : ... .. . ... : ... .. . ... : ... .. . ... : ... .. . ... ... : ... .. . ... ...
ROW 5B : ... .. . ... ... : ... .. . ... ... : ... .. . ... : ... .. . ... : ... .. . ... : ... .. . ... ... : ... .. . ... ...
ROW 5C : ... .. . ... ... : ... .. . ... ... : ... .. . ... : ... .. . ... : ... .. . ... : ... .. . ... ... : ... .. . ... ...
ROW 5D : ... .. . ... ... : ... .. . ... ... : ... .. . ... : ... .. . ... : ... .. . ... : ... .. . ... ... : ... .. . ... ...
ROW 5E : ... .. . ... ... : ... .. . ... ... : ... .. . ... : ... .. . ... : ... .. . ... : ... .. . ... ... : ... .. . ... ...
ROW 5F : ... .. . ... ... : ... .. . ... ... : ... .. . ... : ... .. . ... : ... .. . ... : ... .. . ... ... : ... .. . ... ...

# End of export
