# FamiTracker text export 0.4.2

# Song information
TITLE           "smurrrrrfs"
AUTHOR          "ares64"
COPYRIGHT       ""

# Song comment
COMMENT ""

# Global settings
MACHINE         0
FRAMERATE       0
EXPANSION       1
VIBRATO         1
SPLIT           21

# Macros
MACRO       0   0  -1   0   0 : 10 9 9 8 7 7 6 5 5 4 3 3 2 1 1 0
MACRO       0   1  -1  -1   0 : 8 8 8 8 7 7 7 7 6 6 6 6 5 5 5 5 4 4 4 4 3 3 3 3 2 2 2 2 1 1 1 1 0
MACRO       0   2  -1  -1   0 : 10 9 8 8 8 7 6 5 5 5 4 3 2 2 2 1 0
MACRO       0   3  -1  -1   0 : 6 5 4 3 2 1 0
MACRO       0   4  -1  -1   0 : 10 10 10 8 6 4 2 0
MACRO       0   5  -1  -1   0 : 15 14 13 12 11 10 9 8 7 6 5 4 3 2 1 0
MACRO       0   6  -1  -1   0 : 15 15 15 15 15 0
MACRO       0   7  -1  -1   0 : 15 15 15 15 15 0
MACRO       0   8  -1   0   0 : 10 10 3
MACRO       0   9  -1  -1   0 : 12 12 12 11 11 10 10 10 9 9 8 8 8 7 7 6 6 6 5 5 4 4 4 3 3 2 2 2 1 1 0
MACRO       0  10  -1   0   0 : 10 10 3
MACRO       0  11  -1  -1   0 : 10 5 5 5 4 4 3 3 2 2 1 1 0
MACRO       0  12  -1   0   0 : 10 9 8 7 6 5 5 5 4 4 4 3 3 3 2 2 2 1 1 1 0
MACRO       0  13  -1  -1   0 : 14 13 12 11 10 10 9 9 8 7 6 5 5 5 5 5 4 4 4 4 3 3 3 3 2 2 2 2 1 1 1 1 0
MACRO       0  14  -1  -1   0 : 8 7 6 4 2 1 0
MACRO       0  15  -1  -1   0 : 10 9 8 7 6 5 4 3 2 1 0
MACRO       1   0  -1  -1   0 : 12 0
MACRO       1   1  -1  -1   0 : -5 -2 -1 0
MACRO       1   2  -1  -1   0 : -6 -3 0
MACRO       1   3  -1  -1   0 : -2 -1 0
MACRO       1   4  -1  -1   0 : 0 -5 -10 -9
MACRO       1   5   0  -1   0 : 0 4 7
MACRO       1   6  -1  -1   0 : 0 -5 -10 -15 -20
MACRO       1   7  -1  -1   0 : 0 -2 -4 -6 -8
MACRO       1   8  -1  -1   0 : 12 0
MACRO       1   9   0  -1   0 : 0 5 9
MACRO       1  10   0  -1   0 : 0 0 4 4 7 7
MACRO       1  11   0  -1   0 : 0 0 3 3 7 7
MACRO       1  12  -1  -1   0 : 12 0
MACRO       1  13  -1  -1   0 : -2 0 1 0
MACRO       1  14  -1  -1   0 : 12 0
MACRO       1  15  -1  -1   0 : 0 12 0
MACRO       1  16  -1  -1   0 : -3 0
MACRO       1  17  -1  -1   0 : -5 -2 -1 0
MACRO       4   0  -1  -1   0 : 2
MACRO       4   1   0  -1   0 : 2 2 1 1 0 0
MACRO       4   2  -1  -1   0 : 3
MACRO       4   3  -1  -1   0 : 1
MACRO       4   4  -1  -1   0 : 1
MACRO       4   5  -1  -1   0 : 0
MACRO       4   6  -1  -1   0 : 1
MACRO       4   7  -1  -1   0 : 1
MACROVRC6   0   0  -1   0   0 : 10 10 3
MACROVRC6   0   1  -1   0   0 : 8 8 8 4
MACROVRC6   0   2  -1   0   0 : 8 8 7 7 6 6 5 5 4 4 3 3 2 2 1 1 0
MACROVRC6   0   3  -1   0   0 : 10 10 5
MACROVRC6   0   4  -1   0   0 : 12 12 6
MACROVRC6   1   0  -1  -1   0 : 12 0
MACROVRC6   1   1  -1  -1   0 : 12 0
MACROVRC6   1   2  -1  -1   0 : 12 0
MACROVRC6   4   0  -1  -1   0 : 3
MACROVRC6   4   1  -1  -1   0 : 1
MACROVRC6   4   2  -1  -1   0 : 6
MACROVRC6   4   3  -1  -1   0 : 5 6 7 6 5 4 3 2 3 4 5

# DPCM samples

# Instruments
INST2A03   0    -1  -1  -1  -1  -1 "2a03 blank"
INSTVRC6   1    -1  -1  -1  -1  -1 "vrc6 blank"
INSTVRC6   2     0  -1  -1  -1   0 "rrr"
INSTVRC6   3     1  -1  -1  -1  -1 "bvvvv"
INST2A03   4     0   0  -1  -1   0 "boomp"
INST2A03   5     1   1  -1  -1  -1 "wsssss"
INST2A03   6     2   2  -1  -1  -1 "khhhhhh"
INST2A03   7     3   3  -1  -1  -1 "pip"
INST2A03   8     4   4  -1  -1  -1 "krrrf"
INSTVRC6   9     0   0  -1  -1  -1 "dyuuu"
INST2A03  10     5   5  -1  -1   1 "wwweeaeau"
INST2A03  11     6   6  -1  -1  -1 "thmp"
INST2A03  12     7   7  -1  -1  -1 "eaa"
INSTVRC6  13     2   1  -1  -1   2 "thoomp"
INSTVRC6  14     4   2  -1  -1   3 "drrr"
INST2A03  15     8   8  -1  -1   2 "thonk"
INST2A03  16     5   9  -1  -1   1 "wwweajh"
INST2A03  17     9  10  -1  -1   3 "afaegaef"
INST2A03  18     9  11  -1  -1   4 "zazaxazcaveb"
INST2A03  19    10  12  -1  -1   5 "dfasda"
INST2A03  20    11  13  -1  -1  -1 "kkkhbh"
INST2A03  21    12  14  -1  -1   6 "flaung"
INST2A03  22    13  15  -1  -1   7 "eeaeuguhn"
INST2A03  23    14  16  -1  -1  -1 "kkskf"
INST2A03  24    15  17  -1  -1  -1 "New instrument"

# Tracks

TRACK  64   7 150 "Smurfs (GB): Title"
COLUMNS : 1 1 1 1 1 1 1 1

ORDER 00 : 00 00 00 00 00 00 00 00
ORDER 01 : 01 01 01 01 01 01 01 01
ORDER 02 : 02 02 02 02 02 02 02 02
ORDER 03 : 03 03 03 03 03 03 03 03
ORDER 04 : 02 02 02 02 02 02 02 02
ORDER 05 : 03 03 03 03 03 03 03 03
ORDER 06 : 04 04 04 04 04 04 04 04
ORDER 07 : 05 05 05 05 05 05 05 05
ORDER 08 : 04 04 04 04 04 04 04 04
ORDER 09 : 05 05 05 05 05 05 05 05
ORDER 0A : 06 06 06 06 06 06 06 06
ORDER 0B : 07 07 07 07 07 07 07 07
ORDER 0C : 06 06 06 06 06 06 06 06
ORDER 0D : 08 08 08 08 08 08 08 08
ORDER 0E : 09 09 09 09 09 09 09 09
ORDER 0F : 0A 0A 0A 0A 0A 0A 0A 0A
ORDER 10 : 09 09 09 09 09 09 09 09
ORDER 11 : 0A 0A 0A 0A 0A 0A 0A 0A
ORDER 12 : 0B 0B 0B 0B 0B 0B 0B 0B
ORDER 13 : 0C 0C 0C 0C 0C 0C 0C 0C
ORDER 14 : 0B 0B 0B 0B 0B 0B 0B 0B
ORDER 15 : 0C 0C 0C 0C 0C 0C 0C 0C
ORDER 16 : 0D 0D 0D 0D 0D 0D 0D 0D
ORDER 17 : 0E 0E 0E 0E 0E 0E 0E 0E
ORDER 18 : 0D 0D 0D 0D 0D 0D 0D 0D
ORDER 19 : 0F 0F 0F 0F 0F 0F 0F 0F

PATTERN 00
ROW 00 : ... .. . ... : ... .. . ... : ... .. . ... : ... .. . ... : ... .. . F04 : D#2 02 F ... : C-3 02 D ... : G#2 03 . ...
ROW 01 : ... .. . ... : ... .. . ... : ... .. . ... : ... .. . ... : ... .. . F03 : ... .. . ... : ... .. . ... : ... .. . ...
ROW 02 : ... .. . ... : ... .. . ... : ... .. . ... : ... .. . ... : ... .. . F04 : ... .. . ... : ... .. . ... : ... .. . ...
ROW 03 : ... .. . ... : ... .. . ... : ... .. . ... : ... .. . ... : ... .. . F03 : ... .. . ... : ... .. . ... : ... .. . ...
ROW 04 : ... .. . ... : ... .. . ... : ... .. . ... : ... .. . ... : ... .. . F04 : ... .. . ... : ... .. . ... : ... .. . ...
ROW 05 : ... .. . ... : ... .. . ... : ... .. . ... : ... .. . ... : ... .. . F03 : ... .. . ... : ... .. . ... : ... .. . ...
ROW 06 : ... .. . ... : ... .. . ... : ... .. . ... : ... .. . ... : ... .. . F04 : === .. . ... : === .. . ... : === .. . ...
ROW 07 : ... .. . ... : ... .. . ... : ... .. . ... : ... .. . ... : ... .. . F03 : ... .. . ... : ... .. . ... : ... .. . ...
ROW 08 : ... .. . ... : ... .. . ... : ... .. . ... : ... .. . ... : ... .. . F04 : D#2 02 . ... : C-3 02 . ... : G#2 03 . ...
ROW 09 : ... .. . ... : ... .. . ... : ... .. . ... : ... .. . ... : ... .. . F03 : ... .. . ... : ... .. . ... : ... .. . ...
ROW 0A : ... .. . ... : ... .. . ... : ... .. . ... : ... .. . ... : ... .. . F04 : ... .. . ... : ... .. . ... : ... .. . ...
ROW 0B : ... .. . ... : ... .. . ... : ... .. . ... : ... .. . ... : ... .. . F03 : ... .. . ... : ... .. . ... : ... .. . ...
ROW 0C : ... .. . ... : ... .. . ... : ... .. . ... : ... .. . ... : ... .. . F04 : === .. . ... : === .. . ... : === .. . ...
ROW 0D : ... .. . ... : ... .. . ... : ... .. . ... : ... .. . ... : ... .. . F03 : ... .. . ... : ... .. . ... : ... .. . ...
ROW 0E : ... .. . ... : ... .. . ... : ... .. . ... : ... .. . ... : ... .. . F04 : D-2 02 . ... : B-2 02 . ... : G-2 03 . ...
ROW 0F : ... .. . ... : ... .. . ... : ... .. . ... : ... .. . ... : ... .. . F03 : === .. . ... : === .. . ... : === .. . ...
ROW 10 : ... .. . ... : ... .. . ... : ... .. . ... : ... .. . ... : ... .. . F04 : D#2 02 . ... : C-3 02 . ... : G#2 03 . ...
ROW 11 : ... .. . ... : ... .. . ... : ... .. . ... : ... .. . ... : ... .. . F03 : === .. . ... : === .. . ... : === .. . ...
ROW 12 : ... .. . ... : ... .. . ... : ... .. . ... : ... .. . ... : ... .. . F04 : ... .. . ... : ... .. . ... : ... .. . ...
ROW 13 : ... .. . ... : ... .. . ... : ... .. . ... : ... .. . ... : ... .. . F03 : ... .. . ... : ... .. . ... : ... .. . ...
ROW 14 : ... .. . ... : ... .. . ... : ... .. . ... : ... .. . ... : ... .. . F04 : G#2 02 . ... : D#3 02 . ... : C-3 03 . ...
ROW 15 : ... .. . ... : ... .. . ... : ... .. . ... : ... .. . ... : ... .. . F03 : === 02 . ... : === .. . ... : === .. . ...
ROW 16 : ... .. . ... : ... .. . ... : ... .. . ... : ... .. . ... : ... .. . F04 : ... .. . ... : ... .. . ... : ... .. . ...
ROW 17 : ... .. . ... : ... .. . ... : ... .. . ... : ... .. . ... : ... .. . F03 : ... .. . ... : ... .. . ... : ... .. . ...
ROW 18 : ... .. . ... : ... .. . ... : ... .. . ... : ... .. . ... : ... .. . F04 : C-3 02 . ... : G#3 02 . ... : D#3 03 . ...
ROW 19 : ... .. . ... : ... .. . ... : ... .. . ... : ... .. . ... : ... .. . F03 : === .. . ... : === .. . ... : === .. . ...
ROW 1A : ... .. . ... : ... .. . ... : ... .. . ... : ... .. . ... : ... .. . F04 : ... .. . ... : ... .. . ... : ... .. . ...
ROW 1B : ... .. . ... : ... .. . ... : ... .. . ... : ... .. . ... : ... .. . F03 : ... .. . ... : ... .. . ... : ... .. . ...
ROW 1C : ... .. . ... : ... .. . ... : ... .. . ... : ... .. . ... : ... .. . F04 : D#3 02 . ... : C-4 02 . ... : G#3 03 . ...
ROW 1D : ... .. . ... : ... .. . ... : ... .. . ... : ... .. . ... : ... .. . F03 : === .. . ... : === .. . ... : === .. . ...
ROW 1E : ... .. . ... : ... .. . ... : ... .. . ... : ... .. . ... : ... .. . F04 : ... .. . ... : ... .. . ... : ... .. . ...
ROW 1F : ... .. . ... : ... .. . ... : ... .. . ... : ... .. . ... : ... .. . F03 : ... .. . ... : ... .. . ... : ... .. . ...
ROW 20 : ... .. . ... : ... .. . ... : ... .. . ... : ... .. . ... : ... .. . F04 : C#3 02 . 433 : A#3 02 . 433 : F#3 03 . ...
ROW 21 : ... .. . ... : ... .. . ... : ... .. . ... : ... .. . ... : ... .. . F03 : ... .. . ... : ... .. . ... : ... .. . ...
ROW 22 : ... .. . ... : ... .. . ... : ... .. . ... : ... .. . ... : ... .. . F04 : ... .. . ... : ... .. . ... : ... .. . ...
ROW 23 : ... .. . ... : ... .. . ... : ... .. . ... : ... .. . ... : ... .. . F03 : ... .. . ... : ... .. . ... : ... .. . ...
ROW 24 : ... .. . ... : ... .. . ... : ... .. . ... : ... .. . ... : ... .. . F04 : ... .. . ... : ... .. . ... : ... .. . ...
ROW 25 : ... .. . ... : ... .. . ... : ... .. . ... : ... .. . ... : ... .. . F03 : ... .. . ... : ... .. . ... : ... .. . ...
ROW 26 : ... .. . ... : ... .. . ... : ... .. . ... : ... .. . ... : ... .. . F04 : ... .. . ... : ... .. . ... : ... .. . ...
ROW 27 : ... .. . ... : ... .. . ... : ... .. . ... : ... .. . ... : ... .. . F03 : ... .. . ... : ... .. . ... : ... .. . ...
ROW 28 : ... .. . ... : ... .. . ... : ... .. . ... : ... .. . ... : ... .. . F04 : ... .. D ... : ... .. B ... : ... .. . ...
ROW 29 : ... .. . ... : ... .. . ... : ... .. . ... : ... .. . ... : ... .. . F03 : ... .. . ... : ... .. . ... : ... .. . ...
ROW 2A : ... .. . ... : ... .. . ... : ... .. . ... : ... .. . ... : ... .. . F04 : ... .. . ... : ... .. . ... : ... .. . ...
ROW 2B : ... .. . ... : ... .. . ... : ... .. . ... : ... .. . ... : ... .. . F03 : ... .. . ... : ... .. . ... : ... .. . ...
ROW 2C : ... .. . ... : ... .. . ... : ... .. . ... : ... .. . ... : ... .. . F04 : ... .. B ... : ... .. 9 ... : ... .. . ...
ROW 2D : ... .. . ... : ... .. . ... : ... .. . ... : ... .. . ... : ... .. . F03 : ... .. . ... : ... .. . ... : ... .. . ...
ROW 2E : ... .. . ... : ... .. . ... : ... .. . ... : ... .. . ... : ... .. . F04 : ... .. . ... : ... .. . ... : ... .. . ...
ROW 2F : ... .. . ... : ... .. . ... : ... .. . ... : ... .. . ... : ... .. . F03 : ... .. . ... : ... .. . ... : ... .. . ...
ROW 30 : ... .. . ... : ... .. . ... : ... .. . ... : ... .. . ... : ... .. . F04 : ... .. 9 ... : ... .. 7 ... : F-3 03 . ...
ROW 31 : ... .. . ... : ... .. . ... : ... .. . ... : ... .. . ... : ... .. . F03 : ... .. . ... : ... .. . ... : ... .. . ...
ROW 32 : ... .. . ... : ... .. . ... : ... .. . ... : ... .. . ... : ... .. . F04 : ... .. . ... : ... .. . ... : ... .. . ...
ROW 33 : ... .. . ... : ... .. . ... : ... .. . ... : ... .. . ... : ... .. . F03 : ... .. . ... : ... .. . ... : ... .. . ...
ROW 34 : ... .. . ... : ... .. . ... : ... .. . ... : ... .. . ... : ... .. . F04 : ... .. 7 ... : ... .. 5 ... : ... .. . ...
ROW 35 : ... .. . ... : ... .. . ... : ... .. . ... : ... .. . ... : ... .. . F03 : ... .. . ... : ... .. . ... : ... .. . ...
ROW 36 : ... .. . ... : ... .. . ... : ... .. . ... : ... .. . ... : ... .. . F04 : ... .. . ... : ... .. . ... : ... .. . ...
ROW 37 : ... .. . ... : ... .. . ... : ... .. . ... : ... .. . ... : ... .. . F03 : ... .. . ... : ... .. . ... : ... .. . ...
ROW 38 : ... .. . ... : ... .. . ... : ... .. . ... : ... .. . ... : ... .. . F04 : ... .. 5 ... : ... .. 3 ... : C#3 03 . ...
ROW 39 : ... .. . ... : ... .. . ... : ... .. . ... : ... .. . ... : ... .. . F03 : ... .. . ... : ... .. . ... : ... .. . ...
ROW 3A : ... .. . ... : ... .. . ... : ... .. . ... : ... .. . ... : ... .. . F04 : ... .. . ... : ... .. . ... : ... .. . ...
ROW 3B : ... .. . ... : ... .. . ... : ... .. . ... : ... .. . ... : ... .. . F03 : ... .. . ... : ... .. . ... : ... .. . ...
ROW 3C : ... .. . ... : ... .. . ... : ... .. . ... : ... .. . ... : ... .. . F04 : ... .. 3 ... : ... .. 1 ... : ... .. . ...
ROW 3D : ... .. . ... : ... .. . ... : ... .. . ... : ... .. . ... : ... .. . F03 : ... .. . ... : ... .. . ... : ... .. . ...
ROW 3E : ... .. . ... : ... .. . ... : ... .. . ... : ... .. . ... : ... .. . F04 : ... .. . ... : ... .. . ... : ... .. . ...
ROW 3F : ... .. . ... : ... .. . ... : ... .. . ... : ... .. . ... : ... .. . F03 : ... .. . ... : ... .. . ... : ... .. . ...

PATTERN 01
ROW 00 : ... .. . ... : ... .. . ... : ... .. . ... : ... .. . ... : ... .. . F04 : D#2 02 F 400 : C-3 02 D 400 : G#2 03 . ...
ROW 01 : ... .. . ... : ... .. . ... : ... .. . ... : ... .. . ... : ... .. . F03 : ... .. . ... : ... .. . ... : ... .. . ...
ROW 02 : ... .. . ... : ... .. . ... : ... .. . ... : ... .. . ... : ... .. . F04 : ... .. . ... : ... .. . ... : ... .. . ...
ROW 03 : ... .. . ... : ... .. . ... : ... .. . ... : ... .. . ... : ... .. . F03 : ... .. . ... : ... .. . ... : ... .. . ...
ROW 04 : ... .. . ... : ... .. . ... : ... .. . ... : ... .. . ... : ... .. . F04 : ... .. . ... : ... .. . ... : ... .. . ...
ROW 05 : ... .. . ... : ... .. . ... : ... .. . ... : ... .. . ... : ... .. . F03 : ... .. . ... : ... .. . ... : ... .. . ...
ROW 06 : ... .. . ... : ... .. . ... : ... .. . ... : ... .. . ... : ... .. . F04 : === .. . ... : === .. . ... : === .. . ...
ROW 07 : ... .. . ... : ... .. . ... : ... .. . ... : ... .. . ... : ... .. . F03 : ... .. . ... : ... .. . ... : ... .. . ...
ROW 08 : ... .. . ... : ... .. . ... : ... .. . ... : ... .. . ... : ... .. . F04 : D#2 02 . ... : C-3 02 . ... : G#2 03 . ...
ROW 09 : ... .. . ... : ... .. . ... : ... .. . ... : ... .. . ... : ... .. . F03 : ... .. . ... : ... .. . ... : ... .. . ...
ROW 0A : ... .. . ... : ... .. . ... : ... .. . ... : ... .. . ... : ... .. . F04 : ... .. . ... : ... .. . ... : ... .. . ...
ROW 0B : ... .. . ... : ... .. . ... : ... .. . ... : ... .. . ... : ... .. . F03 : ... .. . ... : ... .. . ... : ... .. . ...
ROW 0C : ... .. . ... : ... .. . ... : ... .. . ... : ... .. . ... : ... .. . F04 : === .. . ... : === .. . ... : === .. . ...
ROW 0D : ... .. . ... : ... .. . ... : ... .. . ... : ... .. . ... : ... .. . F03 : ... .. . ... : ... .. . ... : ... .. . ...
ROW 0E : ... .. . ... : ... .. . ... : ... .. . ... : ... .. . ... : ... .. . F04 : D-2 02 . ... : B-2 02 . ... : G-2 03 . ...
ROW 0F : ... .. . ... : ... .. . ... : ... .. . ... : ... .. . ... : ... .. . F03 : === .. . ... : === .. . ... : === .. . ...
ROW 10 : ... .. . ... : ... .. . ... : ... .. . ... : ... .. . ... : ... .. . F04 : D#2 02 . ... : C-3 02 . ... : G#2 03 . ...
ROW 11 : ... .. . ... : ... .. . ... : ... .. . ... : ... .. . ... : ... .. . F03 : === .. . ... : === .. . ... : === .. . ...
ROW 12 : ... .. . ... : ... .. . ... : ... .. . ... : ... .. . ... : ... .. . F04 : ... .. . ... : ... .. . ... : ... .. . ...
ROW 13 : ... .. . ... : ... .. . ... : ... .. . ... : ... .. . ... : ... .. . F03 : ... .. . ... : ... .. . ... : ... .. . ...
ROW 14 : ... .. . ... : ... .. . ... : ... .. . ... : ... .. . ... : ... .. . F04 : G#2 02 . ... : D#3 02 . ... : C-3 03 . ...
ROW 15 : ... .. . ... : ... .. . ... : ... .. . ... : ... .. . ... : ... .. . F03 : === 02 . ... : === .. . ... : === .. . ...
ROW 16 : ... .. . ... : ... .. . ... : ... .. . ... : ... .. . ... : ... .. . F04 : ... .. . ... : ... .. . ... : ... .. . ...
ROW 17 : ... .. . ... : ... .. . ... : ... .. . ... : ... .. . ... : ... .. . F03 : ... .. . ... : ... .. . ... : ... .. . ...
ROW 18 : ... .. . ... : ... .. . ... : ... .. . ... : ... .. . ... : ... .. . F04 : C-3 02 . ... : G#3 02 . ... : D#3 03 . ...
ROW 19 : ... .. . ... : ... .. . ... : ... .. . ... : ... .. . ... : ... .. . F03 : === .. . ... : === .. . ... : === .. . ...
ROW 1A : ... .. . ... : ... .. . ... : ... .. . ... : ... .. . ... : ... .. . F04 : ... .. . ... : ... .. . ... : ... .. . ...
ROW 1B : ... .. . ... : ... .. . ... : ... .. . ... : ... .. . ... : ... .. . F03 : ... .. . ... : ... .. . ... : ... .. . ...
ROW 1C : ... .. . ... : ... .. . ... : ... .. . ... : ... .. . ... : ... .. . F04 : D#3 02 . ... : C-4 02 . ... : G#3 03 . ...
ROW 1D : ... .. . ... : ... .. . ... : ... .. . ... : ... .. . ... : ... .. . F03 : === .. . ... : === .. . ... : === .. . ...
ROW 1E : ... .. . ... : ... .. . ... : ... .. . ... : ... .. . ... : ... .. . F04 : ... .. . ... : ... .. . ... : ... .. . ...
ROW 1F : ... .. . ... : ... .. . ... : ... .. . ... : ... .. . ... : ... .. . F03 : ... .. . ... : ... .. . ... : ... .. . ...
ROW 20 : ... .. . ... : ... .. . ... : ... .. . ... : ... .. . ... : ... .. . F04 : F-3 02 . 433 : D-4 02 . 433 : A#3 03 . ...
ROW 21 : ... .. . ... : ... .. . ... : ... .. . ... : ... .. . ... : ... .. . F03 : ... .. . ... : ... .. . ... : ... .. . ...
ROW 22 : ... .. . ... : ... .. . ... : ... .. . ... : ... .. . ... : ... .. . F04 : ... .. . ... : ... .. . ... : ... .. . ...
ROW 23 : ... .. . ... : ... .. . ... : ... .. . ... : ... .. . ... : ... .. . F03 : ... .. . ... : ... .. . ... : ... .. . ...
ROW 24 : ... .. . ... : ... .. . ... : ... .. . ... : ... .. . ... : ... .. . F04 : ... .. . ... : ... .. . ... : ... .. . ...
ROW 25 : ... .. . ... : ... .. . ... : ... .. . ... : ... .. . ... : ... .. . F03 : ... .. . ... : ... .. . ... : ... .. . ...
ROW 26 : ... .. . ... : ... .. . ... : ... .. . ... : ... .. . ... : ... .. . F04 : ... .. . ... : ... .. . ... : ... .. . ...
ROW 27 : ... .. . ... : ... .. . ... : ... .. . ... : ... .. . ... : ... .. . F03 : ... .. . ... : ... .. . ... : ... .. . ...
ROW 28 : ... .. . ... : ... .. . ... : ... .. . ... : ... .. . ... : ... .. . F04 : ... .. D ... : ... .. B ... : D-3 03 . ...
ROW 29 : ... .. . ... : ... .. . ... : ... .. . ... : ... .. . ... : ... .. . F03 : ... .. . ... : ... .. . ... : ... .. . ...
ROW 2A : ... .. . ... : ... .. . ... : ... .. . ... : ... .. . ... : ... .. . F04 : ... .. . ... : ... .. . ... : ... .. . ...
ROW 2B : ... .. . ... : ... .. . ... : ... .. . ... : ... .. . ... : ... .. . F03 : ... .. . ... : ... .. . ... : ... .. . ...
ROW 2C : ... .. . ... : ... .. . ... : ... .. . ... : ... .. . ... : ... .. . F04 : ... .. B ... : ... .. 9 ... : ... .. . ...
ROW 2D : ... .. . ... : ... .. . ... : ... .. . ... : ... .. . ... : ... .. . F03 : ... .. . ... : ... .. . ... : ... .. . ...
ROW 2E : ... .. . ... : ... .. . ... : ... .. . ... : ... .. . ... : ... .. . F04 : ... .. . ... : ... .. . ... : ... .. . ...
ROW 2F : ... .. . ... : ... .. . ... : ... .. . ... : ... .. . ... : ... .. . F03 : ... .. . ... : ... .. . ... : ... .. . ...
ROW 30 : ... .. . ... : ... .. . ... : ... .. . ... : ... .. . ... : ... .. . F04 : ... .. 9 ... : ... .. 7 ... : F-3 03 . ...
ROW 31 : ... .. . ... : ... .. . ... : ... .. . ... : ... .. . ... : ... .. . F03 : ... .. . ... : ... .. . ... : ... .. . ...
ROW 32 : ... .. . ... : ... .. . ... : ... .. . ... : ... .. . ... : ... .. . F04 : ... .. . ... : ... .. . ... : ... .. . ...
ROW 33 : ... .. . ... : ... .. . ... : ... .. . ... : ... .. . ... : ... .. . F03 : ... .. . ... : ... .. . ... : ... .. . ...
ROW 34 : D#1 04 . ... : ... .. . ... : ... .. . ... : ... .. . ... : ... .. . F04 : ... .. 7 ... : ... .. 5 ... : ... .. . ...
ROW 35 : ... .. . ... : ... .. . ... : ... .. . ... : ... .. . ... : ... .. . F03 : ... .. . ... : ... .. . ... : ... .. . ...
ROW 36 : ... .. . ... : ... .. . ... : ... .. . ... : ... .. . ... : ... .. . F04 : ... .. . ... : ... .. . ... : ... .. . ...
ROW 37 : ... .. . ... : ... .. . ... : ... .. . ... : ... .. . ... : ... .. . F03 : ... .. . ... : ... .. . ... : ... .. . ...
ROW 38 : F-1 04 . ... : ... .. . ... : ... .. . ... : ... .. . ... : ... .. . F04 : ... .. 5 ... : ... .. 3 ... : A#3 03 . ...
ROW 39 : ... .. . ... : ... .. . ... : ... .. . ... : ... .. . ... : ... .. . F03 : ... .. . ... : ... .. . ... : ... .. . ...
ROW 3A : ... .. . ... : ... .. . ... : ... .. . ... : ... .. . ... : ... .. . F04 : ... .. . ... : ... .. . ... : ... .. . ...
ROW 3B : ... .. . ... : ... .. . ... : ... .. . ... : ... .. . ... : ... .. . F03 : ... .. . ... : ... .. . ... : ... .. . ...
ROW 3C : G-1 04 . ... : ... .. . ... : ... .. . ... : ... .. . ... : ... .. . F04 : ... .. 3 ... : ... .. 1 ... : ... .. . ...
ROW 3D : ... .. . ... : ... .. . ... : ... .. . ... : ... .. . ... : ... .. . F03 : ... .. . ... : ... .. . ... : ... .. . ...
ROW 3E : ... .. . ... : ... .. . ... : ... .. . ... : ... .. . ... : ... .. . F04 : ... .. . ... : ... .. . ... : ... .. . ...
ROW 3F : ... .. . ... : ... .. . ... : ... .. . ... : ... .. . ... : ... .. . F03 : ... .. . ... : ... .. . ... : ... .. . ...

PATTERN 02
ROW 00 : G#1 04 . ... : ... .. . ... : F-3 0B . ... : A-# 05 . ... : ... .. . F04 : G#0 0D F 400 : ... .. . ... : D#3 09 E ...
ROW 01 : ... .. . ... : ... .. . ... : ... .. . ... : ... .. . ... : ... .. . F03 : ... .. . ... : ... .. . ... : ... .. . ...
ROW 02 : ... .. . ... : ... .. . ... : ... .. . ... : ... .. . ... : ... .. . F04 : ... .. . ... : ... .. . ... : ... .. . ...
ROW 03 : ... .. . ... : ... .. . ... : ... .. . ... : ... .. . ... : ... .. . F03 : ... .. . ... : ... .. . V02 : ... .. . ...
ROW 04 : === 0A . ... : G#2 0A . ... : ... .. . ... : ... .. . ... : ... .. . F04 : === .. . ... : D#3 09 7 400 : ... .. . ...
ROW 05 : ... .. . ... : ... .. . ... : ... .. . ... : ... .. . ... : ... .. . F03 : ... .. . ... : ... .. . ... : ... .. . ...
ROW 06 : ... .. . ... : ... .. . ... : ... .. . ... : ... .. . ... : ... .. . F04 : ... .. . ... : ... .. . ... : === .. . ...
ROW 07 : ... .. . ... : ... .. . ... : ... .. . ... : ... .. . ... : ... .. . F03 : ... .. . ... : ... .. . ... : ... .. . ...
ROW 08 : D#1 04 . ... : ... .. . ... : C-4 0C . ... : 8-# 06 . ... : ... .. . F04 : D#0 0D . ... : ... .. . ... : G#3 09 . ...
ROW 09 : ... .. . ... : ... .. . ... : ... .. . ... : ... .. . ... : ... .. . F03 : ... .. . ... : ... .. . ... : ... .. . ...
ROW 0A : ... .. . ... : ... .. . ... : ... .. . ... : ... .. . ... : ... .. . F04 : ... .. . ... : === .. . ... : ... .. . ...
ROW 0B : ... .. . ... : ... .. . ... : ... .. . ... : ... .. . ... : ... .. . F03 : ... .. . ... : ... .. . ... : ... .. . ...
ROW 0C : === 0A . ... : G#2 0A . ... : ... .. . ... : D-# 07 . ... : ... .. . F04 : === .. . ... : G#3 09 . ... : ... .. . ...
ROW 0D : ... .. . ... : ... .. . ... : ... .. . ... : ... .. . ... : ... .. . F03 : ... .. . ... : ... .. . ... : === .. . ...
ROW 0E : ... .. . ... : ... .. . ... : ... .. . ... : E-# 07 8 ... : ... .. . F04 : ... .. . ... : ... .. . ... : D#3 09 . ...
ROW 0F : ... .. . ... : ... .. . ... : ... .. . ... : ... .. . ... : ... .. . F03 : ... .. . ... : ... .. . ... : === .. . ...
ROW 10 : A#1 04 . ... : ... .. . ... : F-3 0B . ... : A-# 08 F ... : ... .. . F04 : A#0 0D . ... : ... .. . ... : F-3 09 . ...
ROW 11 : ... .. . ... : ... .. . ... : ... .. . ... : ... .. . ... : ... .. . F03 : ... .. . ... : === .. . ... : ... .. . ...
ROW 12 : ... .. . ... : ... .. . ... : ... .. . ... : ... .. . ... : ... .. . F04 : ... .. . ... : D#3 09 . ... : ... .. . ...
ROW 13 : ... .. . ... : ... .. . ... : ... .. . ... : ... .. . ... : ... .. . F03 : ... .. . ... : === .. . ... : === .. . ...
ROW 14 : === 0A . ... : C#3 0A . ... : ... .. . ... : D-# 07 . ... : ... .. . F04 : === .. . ... : F-3 09 . ... : C#3 09 . ...
ROW 15 : ... .. . ... : ... .. . ... : ... .. . ... : ... .. . ... : ... .. . F03 : ... .. . ... : ... .. . ... : ... .. . ...
ROW 16 : ... .. . ... : ... .. . ... : ... .. . ... : E-# 07 8 ... : ... .. . F04 : ... .. . ... : ... .. . ... : ... .. . ...
ROW 17 : ... .. . ... : ... .. . ... : ... .. . ... : ... .. . ... : ... .. . F03 : ... .. . ... : === .. . ... : === .. . ...
ROW 18 : D#1 04 . ... : ... .. . ... : C-4 0C . ... : 8-# 06 F ... : ... .. . F04 : D#0 0D . ... : C#3 09 . ... : A#2 09 . ...
ROW 19 : ... .. . ... : ... .. . ... : ... .. . ... : ... .. . ... : ... .. . F03 : ... .. . ... : ... .. . ... : ... .. . ...
ROW 1A : ... .. . ... : ... .. . ... : ... .. . ... : ... .. . ... : ... .. . F04 : ... .. . ... : ... .. . ... : ... .. . ...
ROW 1B : ... .. . ... : ... .. . ... : ... .. . ... : ... .. . ... : ... .. . F03 : ... .. . ... : === .. . ... : ... .. . ...
ROW 1C : === 0A . ... : C#3 0A . ... : ... .. . ... : D-# 07 . ... : ... .. . F04 : === .. . ... : A#2 09 . ... : ... .. . ...
ROW 1D : ... .. . ... : ... .. . ... : ... .. . ... : ... .. . ... : ... .. . F03 : ... .. . ... : ... .. . ... : ... .. . ...
ROW 1E : ... .. . ... : ... .. . ... : ... .. . ... : E-# 07 8 ... : ... .. . F04 : ... .. . ... : ... .. . ... : === .. . ...
ROW 1F : ... .. . ... : ... .. . ... : ... .. . ... : ... .. . ... : ... .. . F03 : ... .. . ... : ... .. . ... : ... .. . ...
ROW 20 : G#1 04 . ... : ... .. . ... : F-3 0B . ... : A-# 08 F ... : ... .. . F04 : G#0 0D . ... : ... .. . ... : D#3 09 . ...
ROW 21 : ... .. . ... : ... .. . ... : ... .. . ... : ... .. . ... : ... .. . F03 : ... .. . ... : ... .. . ... : ... .. . ...
ROW 22 : ... .. . ... : ... .. . ... : ... .. . ... : ... .. . ... : ... .. . F04 : ... .. . ... : === .. . ... : ... .. . ...
ROW 23 : ... .. . ... : ... .. . ... : ... .. . ... : ... .. . ... : ... .. . F03 : ... .. . ... : ... .. . ... : === .. . ...
ROW 24 : === 0A . ... : G#2 0A . ... : ... .. . ... : D-# 07 . ... : ... .. . F04 : === .. . ... : ... .. . ... : C-3 09 . ...
ROW 25 : ... .. . ... : ... .. . ... : ... .. . ... : ... .. . ... : ... .. . F03 : ... .. . ... : D#3 09 . ... : ... .. . ...
ROW 26 : ... .. . ... : ... .. . ... : ... .. . ... : E-# 07 8 ... : ... .. . F04 : ... .. . ... : ... .. . ... : ... .. . ...
ROW 27 : ... .. . ... : ... .. . ... : ... .. . ... : ... .. . ... : ... .. . F03 : ... .. . ... : ... .. . ... : === .. . ...
ROW 28 : D#1 04 . ... : ... .. . ... : C-4 0C . ... : 8-# 06 F ... : ... .. . F04 : D#0 0D . ... : === .. . ... : G#2 09 . ...
ROW 29 : ... .. . ... : ... .. . ... : ... .. . ... : ... .. . ... : ... .. . F03 : ... .. . ... : C-3 09 . ... : ... .. . ...
ROW 2A : ... .. . ... : ... .. . ... : ... .. . ... : ... .. . ... : ... .. . F04 : ... .. . ... : ... .. . ... : ... .. . ...
ROW 2B : ... .. . ... : ... .. . ... : ... .. . ... : ... .. . ... : ... .. . F03 : ... .. . ... : ... .. . ... : === .. . ...
ROW 2C : === 0A . ... : G#2 0A . ... : ... .. . ... : D-# 07 . ... : ... .. . F04 : === .. . ... : === .. . ... : C-3 09 . ...
ROW 2D : ... .. . ... : ... .. . ... : ... .. . ... : ... .. . ... : ... .. . F03 : ... .. . ... : G#2 09 . ... : ... .. . ...
ROW 2E : ... .. . ... : ... .. . ... : ... .. . ... : E-# 07 8 ... : ... .. . F04 : ... .. . ... : ... .. . ... : ... .. . ...
ROW 2F : ... .. . ... : ... .. . ... : ... .. . ... : ... .. . ... : ... .. . F03 : ... .. . ... : ... .. . ... : === .. . ...
ROW 30 : A#1 04 . ... : ... .. . ... : F-3 0B . ... : A-# 08 F ... : ... .. . F04 : A#0 0D . ... : === .. . ... : A#2 09 . ...
ROW 31 : ... .. . ... : ... .. . ... : ... .. . ... : ... .. . ... : ... .. . F03 : ... .. . ... : C-3 09 . ... : ... .. . ...
ROW 32 : ... .. . ... : ... .. . ... : ... .. . ... : ... .. . ... : ... .. . F04 : ... .. . ... : ... .. . ... : ... .. . ...
ROW 33 : ... .. . ... : ... .. . ... : ... .. . ... : ... .. . ... : ... .. . F03 : ... .. . ... : ... .. . ... : ... .. . ...
ROW 34 : === 0A . ... : D#3 0A . ... : ... .. . ... : D-# 07 . ... : ... .. . F04 : === .. . ... : === .. . ... : ... .. . ...
ROW 35 : ... .. . ... : ... .. . ... : ... .. . ... : ... .. . ... : ... .. . F03 : ... .. . ... : A#2 09 . ... : ... .. . ...
ROW 36 : ... .. . ... : ... .. . ... : ... .. . ... : E-# 07 8 ... : ... .. . F04 : ... .. . ... : ... .. . ... : ... .. . ...
ROW 37 : ... .. . ... : ... .. . ... : ... .. . ... : ... .. . ... : ... .. . F03 : ... .. . ... : ... .. . ... : ... .. . ...
ROW 38 : D#1 04 . ... : ... .. . ... : C-4 0C . ... : 8-# 06 F ... : ... .. . F04 : D#0 0D . ... : ... .. . ... : === .. . ...
ROW 39 : ... .. . ... : ... .. . ... : ... .. . ... : ... .. . ... : ... .. . F03 : ... .. . ... : ... .. . ... : ... .. . ...
ROW 3A : ... .. . ... : ... .. . ... : ... .. . ... : ... .. . ... : ... .. . F04 : ... .. . ... : ... .. . ... : ... .. . ...
ROW 3B : ... .. . ... : ... .. . ... : ... .. . ... : ... .. . ... : ... .. . F03 : ... .. . ... : ... .. . ... : ... .. . ...
ROW 3C : === 0A . ... : D#3 0A . ... : F-3 0B . ... : A-# 08 . ... : ... .. . F04 : === .. . ... : ... .. . ... : ... .. . ...
ROW 3D : ... .. . ... : ... .. . ... : ... .. . ... : ... .. . ... : ... .. . F03 : ... .. . ... : === .. . ... : ... .. . ...
ROW 3E : ... .. . ... : ... .. . ... : ... .. . ... : E-# 07 8 ... : ... .. . F04 : ... .. . ... : ... .. . ... : ... .. . ...
ROW 3F : ... .. . ... : ... .. . ... : ... .. . ... : ... .. . ... : ... .. . F03 : ... .. . ... : ... .. . ... : ... .. . ...

PATTERN 03
ROW 00 : G#1 04 . ... : ... .. . ... : F-3 0B . ... : A-# 08 F ... : ... .. . F04 : G#0 0D . ... : ... .. . ... : D#3 09 E ...
ROW 01 : ... .. . ... : ... .. . ... : ... .. . ... : ... .. . ... : ... .. . F03 : ... .. . ... : ... .. . ... : ... .. . ...
ROW 02 : ... .. . ... : ... .. . ... : ... .. . ... : ... .. . ... : ... .. . F04 : ... .. . ... : ... .. . ... : ... .. . ...
ROW 03 : ... .. . ... : ... .. . ... : ... .. . ... : ... .. . ... : ... .. . F03 : ... .. . ... : ... .. . V02 : ... .. . ...
ROW 04 : === 0A . ... : G#2 0A . ... : ... .. . ... : D-# 07 . ... : ... .. . F04 : === .. . ... : D#3 09 7 400 : ... .. . ...
ROW 05 : ... .. . ... : ... .. . ... : ... .. . ... : ... .. . ... : ... .. . F03 : ... .. . ... : ... .. . ... : ... .. . ...
ROW 06 : ... .. . ... : ... .. . ... : ... .. . ... : E-# 07 8 ... : ... .. . F04 : ... .. . ... : ... .. . ... : === .. . ...
ROW 07 : ... .. . ... : ... .. . ... : ... .. . ... : ... .. . ... : ... .. . F03 : ... .. . ... : ... .. . ... : ... .. . ...
ROW 08 : C-2 04 . ... : ... .. . ... : C-4 0C . ... : 8-# 06 F ... : ... .. . F04 : C-1 0D . ... : ... .. . ... : G#3 09 . ...
ROW 09 : ... .. . ... : ... .. . ... : ... .. . ... : ... .. . ... : ... .. . F03 : ... .. . ... : ... .. . ... : ... .. . ...
ROW 0A : ... .. . ... : ... .. . ... : ... .. . ... : ... .. . ... : ... .. . F04 : ... .. . ... : === .. . ... : ... .. . ...
ROW 0B : ... .. . ... : ... .. . ... : ... .. . ... : ... .. . ... : ... .. . F03 : ... .. . ... : ... .. . ... : ... .. . ...
ROW 0C : === 0A . ... : G#2 0A . ... : ... .. . ... : D-# 07 . ... : ... .. . F04 : === .. . ... : G#3 09 . ... : ... .. . ...
ROW 0D : ... .. . ... : ... .. . ... : ... .. . ... : ... .. . ... : ... .. . F03 : ... .. . ... : ... .. . ... : === .. . ...
ROW 0E : ... .. . ... : ... .. . ... : ... .. . ... : E-# 07 8 ... : ... .. . F04 : ... .. . ... : ... .. . ... : D#3 09 . ...
ROW 0F : ... .. . ... : ... .. . ... : ... .. . ... : ... .. . ... : ... .. . F03 : ... .. . ... : ... .. . ... : === .. . ...
ROW 10 : C#2 04 . ... : ... .. . ... : F-3 0B . ... : A-# 08 F ... : ... .. . F04 : C#1 0D . ... : ... .. . ... : F-3 09 . ...
ROW 11 : ... .. . ... : ... .. . ... : ... .. . ... : ... .. . ... : ... .. . F03 : ... .. . ... : === .. . ... : ... .. . ...
ROW 12 : ... .. . ... : ... .. . ... : ... .. . ... : ... .. . ... : ... .. . F04 : ... .. . ... : D#3 09 . ... : ... .. . ...
ROW 13 : ... .. . ... : ... .. . ... : ... .. . ... : ... .. . ... : ... .. . F03 : ... .. . ... : === .. . ... : === .. . ...
ROW 14 : === 0A . ... : C#3 0A . ... : ... .. . ... : D-# 07 . ... : ... .. . F04 : === .. . ... : F-3 09 . ... : C#3 09 . ...
ROW 15 : ... .. . ... : ... .. . ... : ... .. . ... : ... .. . ... : ... .. . F03 : ... .. . ... : ... .. . ... : ... .. . ...
ROW 16 : ... .. . ... : ... .. . ... : ... .. . ... : E-# 07 8 ... : ... .. . F04 : ... .. . ... : ... .. . ... : ... .. . ...
ROW 17 : ... .. . ... : ... .. . ... : ... .. . ... : ... .. . ... : ... .. . F03 : ... .. . ... : === .. . ... : === .. . ...
ROW 18 : D-2 04 . ... : ... .. . ... : C-4 0C . ... : 8-# 06 F ... : ... .. . F04 : D-1 0D . ... : C#3 09 . ... : A#2 09 . ...
ROW 19 : ... .. . ... : ... .. . ... : ... .. . ... : ... .. . ... : ... .. . F03 : ... .. . ... : ... .. . ... : ... .. . ...
ROW 1A : ... .. . ... : ... .. . ... : ... .. . ... : ... .. . ... : ... .. . F04 : ... .. . ... : ... .. . ... : ... .. . ...
ROW 1B : ... .. . ... : ... .. . ... : ... .. . ... : ... .. . ... : ... .. . F03 : ... .. . ... : === .. . ... : ... .. . ...
ROW 1C : === 0A . ... : C#3 0A . ... : ... .. . ... : D-# 07 . ... : ... .. . F04 : === .. . ... : A#2 09 . ... : ... .. . ...
ROW 1D : ... .. . ... : ... .. . ... : ... .. . ... : ... .. . ... : ... .. . F03 : ... .. . ... : ... .. . ... : ... .. . ...
ROW 1E : ... .. . ... : ... .. . ... : ... .. . ... : E-# 07 8 ... : ... .. . F04 : ... .. . ... : ... .. . ... : === .. . ...
ROW 1F : ... .. . ... : ... .. . ... : ... .. . ... : ... .. . ... : ... .. . F03 : ... .. . ... : ... .. . ... : ... .. . ...
ROW 20 : D#2 04 . ... : ... .. . ... : F-3 0B . ... : A-# 08 F ... : ... .. . F04 : D#1 0D . ... : ... .. . ... : D#3 09 . ...
ROW 21 : ... .. . ... : ... .. . ... : ... .. . ... : ... .. . ... : ... .. . F03 : ... .. . ... : ... .. . ... : ... .. . ...
ROW 22 : ... .. . ... : ... .. . ... : ... .. . ... : ... .. . ... : ... .. . F04 : ... .. . ... : === .. . ... : ... .. . ...
ROW 23 : ... .. . ... : ... .. . ... : ... .. . ... : ... .. . ... : ... .. . F03 : ... .. . ... : ... .. . ... : === .. . ...
ROW 24 : === 0A . ... : G#2 0A . ... : ... .. . ... : D-# 07 . ... : ... .. . F04 : === .. . ... : D#3 09 . ... : C-3 09 . ...
ROW 25 : ... .. . ... : ... .. . ... : ... .. . ... : ... .. . ... : ... .. . F03 : ... .. . ... : ... .. . ... : ... .. . ...
ROW 26 : ... .. . ... : ... .. . ... : ... .. . ... : E-# 07 8 ... : ... .. . F04 : ... .. . ... : ... .. . ... : ... .. . ...
ROW 27 : ... .. . ... : ... .. . ... : ... .. . ... : ... .. . ... : ... .. . F03 : ... .. . ... : === .. . ... : === .. . ...
ROW 28 : D#1 04 . ... : ... .. . ... : C-4 0C . ... : 8-# 06 F ... : ... .. . F04 : D#0 0D . ... : C-3 09 . ... : C#3 09 . ...
ROW 29 : ... .. . ... : ... .. . ... : ... .. . ... : ... .. . ... : ... .. . F03 : ... .. . ... : ... .. . ... : ... .. . ...
ROW 2A : ... .. . ... : ... .. . ... : ... .. . ... : ... .. . ... : ... .. . F04 : ... .. . ... : ... .. . ... : ... .. . ...
ROW 2B : ... .. . ... : ... .. . ... : ... .. . ... : ... .. . ... : ... .. . F03 : ... .. . ... : === .. . ... : === .. . ...
ROW 2C : === 0A . ... : G#2 0A . ... : ... .. . ... : D-# 07 . ... : ... .. . F04 : === .. . ... : C#3 09 . ... : G-2 09 . ...
ROW 2D : ... .. . ... : ... .. . ... : ... .. . ... : ... .. . ... : ... .. . F03 : ... .. . ... : ... .. . ... : ... .. . ...
ROW 2E : ... .. . ... : ... .. . ... : ... .. . ... : E-# 07 8 ... : ... .. . F04 : ... .. . ... : ... .. . ... : ... .. . ...
ROW 2F : ... .. . ... : ... .. . ... : ... .. . ... : ... .. . ... : ... .. . F03 : ... .. . ... : === .. . ... : === .. . ...
ROW 30 : G#1 04 . ... : ... .. . ... : F-3 0B . ... : A-# 08 F ... : ... .. . F04 : G#0 0D . ... : G-2 09 . ... : G#2 09 . ...
ROW 31 : ... .. . ... : ... .. . ... : ... .. . ... : ... .. . ... : ... .. . F03 : ... .. . ... : ... .. . ... : ... .. . ...
ROW 32 : ... .. . ... : ... .. . ... : ... .. . ... : ... .. . ... : ... .. . F04 : ... .. . ... : ... .. . ... : ... .. . ...
ROW 33 : ... .. . ... : ... .. . ... : ... .. . ... : ... .. . ... : ... .. . F03 : ... .. . ... : === .. . ... : ... .. . ...
ROW 34 : === 0A . ... : G#2 0A . ... : C-4 0C . ... : 8-# 06 . ... : ... .. . F04 : === .. . ... : G#2 09 . ... : ... .. . ...
ROW 35 : ... .. . ... : ... .. . ... : ... .. . ... : ... .. . ... : ... .. . F03 : ... .. . ... : ... .. . ... : ... .. . ...
ROW 36 : ... .. . ... : ... .. . ... : ... .. . ... : E-# 07 8 ... : ... .. . F04 : ... .. . ... : ... .. . ... : ... .. . ...
ROW 37 : ... .. . ... : ... .. . ... : ... .. . ... : ... .. . ... : ... .. . F03 : ... .. . ... : ... .. . ... : ... .. . ...
ROW 38 : D#1 04 . ... : ... .. . ... : C-4 0C . ... : 8-# 06 F ... : ... .. . F04 : D#0 0D . ... : ... .. . ... : === .. . ...
ROW 39 : ... .. . ... : ... .. . ... : ... .. . ... : ... .. . ... : ... .. . F03 : ... .. . ... : ... .. . ... : ... .. . ...
ROW 3A : ... .. . ... : ... .. . ... : ... .. . ... : ... .. . ... : ... .. . F04 : ... .. . ... : ... .. . ... : ... .. . ...
ROW 3B : ... .. . ... : ... .. . ... : ... .. . ... : ... .. . ... : ... .. . F03 : ... .. . ... : ... .. . ... : ... .. . ...
ROW 3C : === 0A . ... : G#2 0A . ... : ... .. . ... : D-# 07 . ... : ... .. . F04 : === .. . ... : === .. . ... : ... .. . ...
ROW 3D : ... .. . ... : ... .. . ... : ... .. . ... : ... .. . ... : ... .. . F03 : ... .. . ... : ... .. . ... : ... .. . ...
ROW 3E : ... .. . ... : ... .. . ... : C-4 0C . ... : 8-# 06 . ... : ... .. . F04 : ... .. . ... : ... .. . ... : ... .. . ...
ROW 3F : ... .. . ... : ... .. . ... : ... .. . ... : ... .. . ... : ... .. . F03 : ... .. . ... : ... .. . ... : ... .. . ...

PATTERN 04
ROW 00 : G#1 04 . ... : ... .. . ... : F-3 0B . ... : A-# 05 . ... : ... .. . F04 : G#0 0D . ... : G#2 0E F ... : G#3 09 F P81
ROW 01 : ... .. . ... : ... .. . ... : ... .. . ... : ... .. . ... : ... .. . F03 : ... .. . ... : ... .. . ... : ... .. . ...
ROW 02 : ... .. . ... : ... .. . ... : ... .. . ... : ... .. . ... : ... .. . F04 : ... .. . ... : ... .. . ... : ... .. . ...
ROW 03 : ... .. . ... : ... .. . ... : ... .. . ... : ... .. . ... : ... .. . F03 : ... .. . ... : ... .. . ... : ... .. . ...
ROW 04 : === 0A . ... : G#3 0A . ... : ... .. . ... : ... .. . ... : ... .. . F04 : === .. . ... : === .. . ... : === .. . ...
ROW 05 : ... .. . ... : ... .. . ... : ... .. . ... : ... .. . ... : ... .. . F03 : ... .. . ... : ... .. . ... : ... .. . ...
ROW 06 : ... .. . ... : ... .. . ... : ... .. . ... : ... .. . ... : ... .. . F04 : ... .. . ... : ... .. . ... : ... .. . ...
ROW 07 : ... .. . ... : ... .. . ... : ... .. . ... : ... .. . ... : ... .. . F03 : ... .. . ... : ... .. . ... : ... .. . ...
ROW 08 : D#1 04 . ... : ... .. . ... : C-4 0C . ... : 8-# 06 . ... : ... .. . F04 : D#0 0D . ... : G#2 0E . ... : G#3 09 . ...
ROW 09 : ... .. . ... : ... .. . ... : ... .. . ... : ... .. . ... : ... .. . F03 : ... .. . ... : ... .. . ... : ... .. . ...
ROW 0A : ... .. . ... : ... .. . ... : ... .. . ... : ... .. . ... : ... .. . F04 : ... .. . ... : ... .. . ... : ... .. . ...
ROW 0B : ... .. . ... : ... .. . ... : ... .. . ... : ... .. . ... : ... .. . F03 : ... .. . ... : ... .. . ... : ... .. . ...
ROW 0C : === 0A . ... : G#3 0A . ... : ... .. . ... : D-# 07 . ... : ... .. . F04 : === .. . ... : === .. . ... : === .. . ...
ROW 0D : ... .. . ... : ... .. . ... : ... .. . ... : ... .. . ... : ... .. . F03 : ... .. . ... : ... .. . ... : ... .. . ...
ROW 0E : ... .. . ... : ... .. . ... : ... .. . ... : E-# 07 8 ... : ... .. . F04 : ... .. . ... : G-2 0E . ... : G-3 09 . ...
ROW 0F : ... .. . ... : ... .. . ... : ... .. . ... : ... .. . ... : ... .. . F03 : ... .. . ... : === 0E . ... : === 09 . ...
ROW 10 : G#1 04 . ... : ... .. . ... : F-3 0B . ... : A-# 08 F ... : ... .. . F04 : G#0 0D . ... : G#2 0E . ... : G#3 09 . ...
ROW 11 : ... .. . ... : ... .. . ... : ... .. . ... : ... .. . ... : ... .. . F03 : ... .. . ... : === .. . ... : === .. . ...
ROW 12 : ... .. . ... : ... .. . ... : ... .. . ... : ... .. . ... : ... .. . F04 : ... .. . ... : ... .. . ... : ... .. . ...
ROW 13 : ... .. . ... : ... .. . ... : ... .. . ... : ... .. . ... : ... .. . F03 : ... .. . ... : ... .. . ... : ... .. . ...
ROW 14 : === 0A . ... : G#3 0A . ... : ... .. . ... : D-# 07 . ... : ... .. . F04 : === .. . ... : C-3 0E . ... : C-4 09 . ...
ROW 15 : ... .. . ... : ... .. . ... : ... .. . ... : ... .. . ... : ... .. . F03 : ... .. . ... : === .. . ... : === .. . ...
ROW 16 : ... .. . ... : ... .. . ... : ... .. . ... : E-# 07 8 ... : ... .. . F04 : ... .. . ... : ... .. . ... : ... .. . ...
ROW 17 : ... .. . ... : ... .. . ... : ... .. . ... : ... .. . ... : ... .. . F03 : ... .. . ... : ... .. . ... : ... .. . ...
ROW 18 : D#1 04 . ... : ... .. . ... : C-4 0C . ... : 8-# 06 F ... : ... .. . F04 : D#0 0D . ... : D#3 0E . ... : D#4 09 . ...
ROW 19 : ... .. . ... : ... .. . ... : ... .. . ... : ... .. . ... : ... .. . F03 : ... .. . ... : === .. . ... : === .. . ...
ROW 1A : ... .. . ... : ... .. . ... : ... .. . ... : ... .. . ... : ... .. . F04 : ... .. . ... : ... .. . ... : ... .. . ...
ROW 1B : ... .. . ... : ... .. . ... : ... .. . ... : ... .. . ... : ... .. . F03 : ... .. . ... : ... .. . ... : ... .. . ...
ROW 1C : === 0A . ... : G#3 0A . ... : ... .. . ... : D-# 07 . ... : ... .. . F04 : === .. . ... : G#3 0E . ... : G#4 09 . ...
ROW 1D : ... .. . ... : ... .. . ... : ... .. . ... : ... .. . ... : ... .. . F03 : ... .. . ... : === .. . ... : === .. . ...
ROW 1E : ... .. . ... : ... .. . ... : ... .. . ... : E-# 07 8 ... : ... .. . F04 : ... .. . ... : ... .. . ... : ... .. . ...
ROW 1F : ... .. . ... : ... .. . ... : ... .. . ... : ... .. . ... : ... .. . F03 : ... .. . ... : ... .. . ... : ... .. . ...
ROW 20 : G#1 04 . ... : ... .. . ... : F-3 0B . ... : A-# 08 F ... : ... .. . F04 : G#0 0D . ... : F#3 0E . ... : F#4 09 . ...
ROW 21 : ... .. . ... : ... .. . ... : ... .. . ... : ... .. . ... : ... .. . F03 : ... .. . ... : ... .. . ... : ... .. . ...
ROW 22 : ... .. . ... : ... .. . ... : ... .. . ... : ... .. . ... : ... .. . F04 : ... .. . ... : ... .. . ... : ... .. . ...
ROW 23 : ... .. . ... : ... .. . ... : ... .. . ... : ... .. . ... : ... .. . F03 : ... .. . ... : ... .. . ... : ... .. . ...
ROW 24 : === 0A . ... : F#3 0A . ... : ... .. . ... : D-# 07 . ... : ... .. . F04 : === .. . ... : ... .. . ... : ... .. . ...
ROW 25 : ... .. . ... : ... .. . ... : ... .. . ... : ... .. . ... : ... .. . F03 : ... .. . ... : === .. . ... : === .. . ...
ROW 26 : ... .. . ... : ... .. . ... : ... .. . ... : E-# 07 8 ... : ... .. . F04 : ... .. . ... : F-3 0E . ... : F-4 09 . ...
ROW 27 : ... .. . ... : ... .. . ... : ... .. . ... : ... .. . ... : ... .. . F03 : ... .. . ... : === .. . ... : === .. . ...
ROW 28 : D#1 04 . ... : ... .. . ... : C-4 0C . ... : 8-# 06 F ... : ... .. . F04 : D#0 0D . ... : D#3 0E . ... : D#4 09 . ...
ROW 29 : ... .. . ... : ... .. . ... : ... .. . ... : ... .. . ... : ... .. . F03 : ... .. . ... : === .. . ... : === .. . ...
ROW 2A : ... .. . ... : ... .. . ... : ... .. . ... : ... .. . ... : ... .. . F04 : ... .. . ... : ... .. . ... : ... .. . ...
ROW 2B : ... .. . ... : ... .. . ... : ... .. . ... : ... .. . ... : ... .. . F03 : ... .. . ... : ... .. . ... : ... .. . ...
ROW 2C : === 0A . ... : F#3 0A . ... : ... .. . ... : D-# 07 . ... : ... .. . F04 : === .. . ... : F#3 0E . ... : F#4 09 . ...
ROW 2D : ... .. . ... : ... .. . ... : ... .. . ... : ... .. . ... : ... .. . F03 : ... .. . ... : === .. . ... : === .. . ...
ROW 2E : ... .. . ... : ... .. . ... : ... .. . ... : E-# 07 8 ... : ... .. . F04 : ... .. . ... : ... .. . ... : ... .. . ...
ROW 2F : ... .. . ... : ... .. . ... : ... .. . ... : ... .. . ... : ... .. . F03 : ... .. . ... : ... .. . ... : ... .. . ...
ROW 30 : G#1 04 . ... : ... .. . ... : F-3 0B . ... : A-# 08 F ... : ... .. . F04 : G#0 0D . ... : F-3 0E . ... : F-4 09 . ...
ROW 31 : ... .. . ... : ... .. . ... : ... .. . ... : ... .. . ... : ... .. . F03 : ... .. . ... : === .. . ... : === .. . ...
ROW 32 : ... .. . ... : ... .. . ... : ... .. . ... : ... .. . ... : ... .. . F04 : ... .. . ... : ... .. . ... : ... .. . ...
ROW 33 : ... .. . ... : ... .. . ... : ... .. . ... : ... .. . ... : ... .. . F03 : ... .. . ... : ... .. . ... : ... .. . ...
ROW 34 : === 10 . ... : D#3 10 . ... : ... .. . ... : D-# 07 . ... : ... .. . F04 : === .. . ... : D#3 0E . ... : D#4 09 . ...
ROW 35 : ... .. . ... : ... .. . ... : ... .. . ... : ... .. . ... : ... .. . F03 : ... .. . ... : === .. . ... : === .. . ...
ROW 36 : ... .. . ... : ... .. . ... : ... .. . ... : E-# 07 8 ... : ... .. . F04 : ... .. . ... : ... .. . ... : ... .. . ...
ROW 37 : ... .. . ... : ... .. . ... : ... .. . ... : ... .. . ... : ... .. . F03 : ... .. . ... : ... .. . ... : ... .. . ...
ROW 38 : D#1 04 . ... : ... .. . ... : C-4 0C . ... : 8-# 06 F ... : ... .. . F04 : D#0 0D . ... : C#3 0E . ... : C#4 09 . ...
ROW 39 : ... .. . ... : ... .. . ... : ... .. . ... : ... .. . ... : ... .. . F03 : ... .. . ... : === .. . ... : === .. . ...
ROW 3A : ... .. . ... : ... .. . ... : ... .. . ... : ... .. . ... : ... .. . F04 : ... .. . ... : ... .. . ... : ... .. . ...
ROW 3B : ... .. . ... : ... .. . ... : ... .. . ... : ... .. . ... : ... .. . F03 : ... .. . ... : ... .. . ... : ... .. . ...
ROW 3C : === 10 . ... : D#3 10 . ... : F-3 0B . ... : A-# 08 . ... : ... .. . F04 : === .. . ... : F-3 0E . ... : F-4 09 . ...
ROW 3D : ... .. . ... : ... .. . ... : ... .. . ... : ... .. . ... : ... .. . F03 : ... .. . ... : === .. . ... : === .. . ...
ROW 3E : ... .. . ... : ... .. . ... : ... .. . ... : E-# 07 8 ... : ... .. . F04 : ... .. . ... : ... .. . ... : ... .. . ...
ROW 3F : ... .. . ... : ... .. . ... : ... .. . ... : ... .. . ... : ... .. . F03 : ... .. . ... : ... .. . ... : ... .. . ...

PATTERN 05
ROW 00 : G#1 04 . ... : ... .. . ... : F-3 0B . ... : A-# 08 F ... : ... .. . F04 : G#0 0D . ... : C-3 0E F ... : G#3 09 F P81
ROW 01 : ... .. . ... : ... .. . ... : ... .. . ... : ... .. . ... : ... .. . F03 : ... .. . ... : ... .. . ... : ... .. . ...
ROW 02 : ... .. . ... : ... .. . ... : ... .. . ... : ... .. . ... : ... .. . F04 : ... .. . ... : ... .. . ... : ... .. . ...
ROW 03 : ... .. . ... : ... .. . ... : ... .. . ... : ... .. . ... : ... .. . F03 : ... .. . ... : ... .. . ... : ... .. . ...
ROW 04 : === 0A . ... : G#3 0A . ... : ... .. . ... : D-# 07 . ... : ... .. . F04 : === .. . ... : === .. . ... : === .. . ...
ROW 05 : ... .. . ... : ... .. . ... : ... .. . ... : ... .. . ... : ... .. . F03 : ... .. . ... : ... .. . ... : ... .. . ...
ROW 06 : ... .. . ... : ... .. . ... : ... .. . ... : E-# 07 8 ... : ... .. . F04 : ... .. . ... : ... .. . ... : ... .. . ...
ROW 07 : ... .. . ... : ... .. . ... : ... .. . ... : ... .. . ... : ... .. . F03 : ... .. . ... : ... .. . ... : ... .. . ...
ROW 08 : D#1 04 . ... : ... .. . ... : C-4 0C . ... : 8-# 06 F ... : ... .. . F04 : D#0 0D . ... : C-3 0E . ... : G#3 09 . ...
ROW 09 : ... .. . ... : ... .. . ... : ... .. . ... : ... .. . ... : ... .. . F03 : ... .. . ... : ... .. . ... : ... .. . ...
ROW 0A : ... .. . ... : ... .. . ... : ... .. . ... : ... .. . ... : ... .. . F04 : ... .. . ... : ... .. . ... : ... .. . ...
ROW 0B : ... .. . ... : ... .. . ... : ... .. . ... : ... .. . ... : ... .. . F03 : ... .. . ... : ... .. . ... : ... .. . ...
ROW 0C : === 0A . ... : G#3 0A . ... : ... .. . ... : D-# 07 . ... : ... .. . F04 : === .. . ... : === .. . ... : === .. . ...
ROW 0D : ... .. . ... : ... .. . ... : ... .. . ... : ... .. . ... : ... .. . F03 : ... .. . ... : ... .. . ... : ... .. . ...
ROW 0E : ... .. . ... : ... .. . ... : ... .. . ... : E-# 07 8 ... : ... .. . F04 : ... .. . ... : B-2 0E . ... : G-3 09 . ...
ROW 0F : ... .. . ... : ... .. . ... : ... .. . ... : ... .. . ... : ... .. . F03 : ... .. . ... : === 0E . ... : === 09 . ...
ROW 10 : G#1 04 . ... : ... .. . ... : F-3 0B . ... : A-# 08 F ... : ... .. . F04 : G#0 0D . ... : C-3 0E . ... : G#3 09 . ...
ROW 11 : ... .. . ... : ... .. . ... : ... .. . ... : ... .. . ... : ... .. . F03 : ... .. . ... : === .. . ... : === .. . ...
ROW 12 : ... .. . ... : ... .. . ... : ... .. . ... : ... .. . ... : ... .. . F04 : ... .. . ... : ... .. . ... : ... .. . ...
ROW 13 : ... .. . ... : ... .. . ... : ... .. . ... : ... .. . ... : ... .. . F03 : ... .. . ... : ... .. . ... : ... .. . ...
ROW 14 : === 0A . ... : G#3 0A . ... : ... .. . ... : D-# 07 . ... : ... .. . F04 : === .. . ... : D#3 0E . ... : C-4 09 . ...
ROW 15 : ... .. . ... : ... .. . ... : ... .. . ... : ... .. . ... : ... .. . F03 : ... .. . ... : === .. . ... : === .. . ...
ROW 16 : ... .. . ... : ... .. . ... : ... .. . ... : E-# 07 8 ... : ... .. . F04 : ... .. . ... : ... .. . ... : ... .. . ...
ROW 17 : ... .. . ... : ... .. . ... : ... .. . ... : ... .. . ... : ... .. . F03 : ... .. . ... : ... .. . ... : ... .. . ...
ROW 18 : D#1 04 . ... : ... .. . ... : C-4 0C . ... : 8-# 06 F ... : ... .. . F04 : D#0 0D . ... : G#3 0E . ... : D#4 09 . ...
ROW 19 : ... .. . ... : ... .. . ... : ... .. . ... : ... .. . ... : ... .. . F03 : ... .. . ... : === .. . ... : === .. . ...
ROW 1A : ... .. . ... : ... .. . ... : ... .. . ... : ... .. . ... : ... .. . F04 : ... .. . ... : ... .. . ... : ... .. . ...
ROW 1B : ... .. . ... : ... .. . ... : ... .. . ... : ... .. . ... : ... .. . F03 : ... .. . ... : ... .. . ... : ... .. . ...
ROW 1C : === 0A . ... : G#3 0A . ... : ... .. . ... : D-# 07 . ... : ... .. . F04 : === .. . ... : C-4 0E . ... : G#4 09 . ...
ROW 1D : ... .. . ... : ... .. . ... : ... .. . ... : ... .. . ... : ... .. . F03 : ... .. . ... : === .. . ... : === .. . ...
ROW 1E : ... .. . ... : ... .. . ... : ... .. . ... : E-# 07 8 ... : ... .. . F04 : ... .. . ... : ... .. . ... : ... .. . ...
ROW 1F : ... .. . ... : ... .. . ... : ... .. . ... : ... .. . ... : ... .. . F03 : ... .. . ... : ... .. . ... : ... .. . ...
ROW 20 : F#1 04 . ... : ... .. . ... : F-3 0B . ... : A-# 08 F ... : ... .. . F04 : F#0 0D . ... : F#3 0E . ... : A#4 09 . 431
ROW 21 : ... .. . ... : ... .. . ... : ... .. . ... : ... .. . ... : ... .. . F03 : ... .. . ... : ... .. . ... : ... .. . ...
ROW 22 : ... .. . ... : ... .. . ... : ... .. . ... : ... .. . ... : ... .. . F04 : ... .. . ... : ... .. . ... : ... .. . ...
ROW 23 : ... .. . ... : ... .. . ... : ... .. . ... : ... .. . ... : ... .. . F03 : ... .. . ... : ... .. . ... : ... .. . ...
ROW 24 : === 0A . ... : F#3 0A . ... : ... .. . ... : D-# 07 . ... : ... .. . F04 : === .. . ... : === .. . ... : ... .. E ...
ROW 25 : ... .. . ... : ... .. . ... : ... .. . ... : ... .. . ... : ... .. . F03 : ... .. . ... : ... .. . ... : ... .. . ...
ROW 26 : ... .. . ... : ... .. . ... : ... .. . ... : E-# 07 8 ... : ... .. . F04 : ... .. . ... : ... .. . ... : ... .. . ...
ROW 27 : ... .. . ... : ... .. . ... : ... .. . ... : ... .. . ... : ... .. . F03 : ... .. . ... : ... .. . ... : ... .. . ...
ROW 28 : C#1 04 . ... : ... .. . ... : C-4 0C . ... : 8-# 06 F ... : ... .. . F04 : C#0 0D . ... : F#3 0E . ... : ... .. D ...
ROW 29 : ... .. . ... : ... .. . ... : ... .. . ... : ... .. . ... : ... .. . F03 : ... .. . ... : ... .. . ... : ... .. . ...
ROW 2A : ... .. . ... : ... .. . ... : ... .. . ... : ... .. . ... : ... .. . F04 : ... .. . ... : ... .. . ... : ... .. . ...
ROW 2B : ... .. . ... : ... .. . ... : ... .. . ... : ... .. . ... : ... .. . F03 : ... .. . ... : ... .. . ... : ... .. . ...
ROW 2C : === 0A . ... : F#3 0A . ... : ... .. . ... : D-# 07 . ... : ... .. . F04 : === .. . ... : ... .. . ... : ... .. C ...
ROW 2D : ... .. . ... : ... .. . ... : ... .. . ... : ... .. . ... : ... .. . F03 : ... .. . ... : === .. . ... : ... .. . ...
ROW 2E : ... .. . ... : ... .. . ... : ... .. . ... : E-# 07 8 ... : ... .. . F04 : ... .. . ... : F-3 0E . ... : ... .. . ...
ROW 2F : ... .. . ... : ... .. . ... : ... .. . ... : ... .. . ... : ... .. . F03 : ... .. . ... : === .. . ... : ... .. . ...
ROW 30 : F#1 04 . ... : ... .. . ... : F-3 0B . ... : A-# 08 F ... : ... .. . F04 : F#0 0D . ... : F#3 0E . ... : ... .. B ...
ROW 31 : ... .. . ... : ... .. . ... : ... .. . ... : ... .. . ... : ... .. . F03 : ... .. . ... : ... .. . ... : ... .. . ...
ROW 32 : ... .. . ... : ... .. . ... : ... .. . ... : ... .. . ... : ... .. . F04 : ... .. . ... : ... .. . ... : G#4 09 F 400
ROW 33 : ... .. . ... : ... .. . ... : ... .. . ... : ... .. . ... : ... .. . F03 : ... .. . ... : ... .. . ... : ... .. . ...
ROW 34 : === 0A . ... : F#3 0A . ... : C-4 0C . ... : 8-# 06 . ... : ... .. . F04 : === .. . ... : ... .. . ... : F#4 09 . ...
ROW 35 : ... .. . ... : ... .. . ... : ... .. . ... : ... .. . ... : ... .. . F03 : ... .. . ... : ... .. . ... : ... .. . ...
ROW 36 : ... .. . ... : ... .. . ... : ... .. . ... : E-# 07 8 ... : ... .. . F04 : ... .. . ... : ... .. . ... : F-4 09 . ...
ROW 37 : ... .. . ... : ... .. . ... : ... .. . ... : ... .. . ... : ... .. . F03 : ... .. . ... : ... .. . ... : ... .. . ...
ROW 38 : C#1 04 . ... : ... .. . ... : C-4 0C . ... : 8-# 06 F ... : ... .. . F04 : C#0 0D . ... : === .. . ... : D#4 09 . ...
ROW 39 : ... .. . ... : ... .. . ... : ... .. . ... : ... .. . ... : ... .. . F03 : ... .. . ... : ... .. . ... : ... .. . ...
ROW 3A : ... .. . ... : ... .. . ... : ... .. . ... : ... .. . ... : ... .. . F04 : ... .. . ... : ... .. . ... : C#4 09 . ...
ROW 3B : ... .. . ... : ... .. . ... : ... .. . ... : ... .. . ... : ... .. . F03 : ... .. . ... : ... .. . ... : ... .. . ...
ROW 3C : === 0A . ... : F#3 0A . ... : ... .. . ... : D-# 07 . ... : ... .. . F04 : === .. . ... : ... .. . ... : C-4 09 . ...
ROW 3D : ... .. . ... : ... .. . ... : ... .. . ... : ... .. . ... : ... .. . F03 : ... .. . ... : ... .. . ... : ... .. . ...
ROW 3E : ... .. . ... : ... .. . ... : C-4 0C . ... : 8-# 06 . ... : ... .. . F04 : ... .. . ... : ... .. . ... : A#3 09 . ...
ROW 3F : ... .. . ... : ... .. . ... : ... .. . ... : ... .. . ... : ... .. . F03 : ... .. . ... : ... .. . RF3 : ... .. . ...

PATTERN 06
ROW 00 : G#1 04 . ... : ... .. . ... : F-3 0B . ... : A-# 05 . ... : ... .. . F04 : G#0 0D . ... : === 01 . ... : D#3 09 E P80
ROW 01 : ... .. . ... : ... .. . ... : ... .. . ... : ... .. . ... : ... .. . F03 : ... .. . ... : ... .. . ... : ... .. . ...
ROW 02 : ... .. . ... : ... .. . ... : ... .. . ... : ... .. . ... : ... .. . F04 : ... .. . ... : ... .. . ... : ... .. . ...
ROW 03 : ... .. . ... : ... .. . ... : ... .. . ... : ... .. . ... : ... .. . F03 : ... .. . ... : ... .. . V02 : ... .. . ...
ROW 04 : === 0A . ... : G#2 0A . ... : ... .. . ... : ... .. . ... : ... .. . F04 : === .. . ... : D#3 09 7 ... : ... .. . ...
ROW 05 : ... .. . ... : ... .. . ... : ... .. . ... : ... .. . ... : ... .. . F03 : ... .. . ... : ... .. . ... : ... .. . ...
ROW 06 : ... .. . ... : ... .. . ... : ... .. . ... : ... .. . ... : ... .. . F04 : ... .. . ... : ... .. . ... : === .. . ...
ROW 07 : ... .. . ... : ... .. . ... : ... .. . ... : ... .. . ... : ... .. . F03 : ... .. . ... : ... .. . ... : ... .. . ...
ROW 08 : D#1 04 . ... : ... .. . ... : C-4 0C . ... : 8-# 06 . ... : ... .. . F04 : D#0 0D . ... : ... .. . ... : G#3 09 . ...
ROW 09 : ... .. . ... : ... .. . ... : ... .. . ... : ... .. . ... : ... .. . F03 : ... .. . ... : ... .. . ... : ... .. . ...
ROW 0A : ... .. . ... : ... .. . ... : ... .. . ... : ... .. . ... : ... .. . F04 : ... .. . ... : === .. . ... : ... .. . ...
ROW 0B : ... .. . ... : ... .. . ... : ... .. . ... : ... .. . ... : ... .. . F03 : ... .. . ... : ... .. . ... : ... .. . ...
ROW 0C : === 0A . ... : G#2 0A . ... : ... .. . ... : D-# 07 . ... : ... .. . F04 : === .. . ... : G#3 09 . ... : ... .. . ...
ROW 0D : ... .. . ... : ... .. . ... : ... .. . ... : ... .. . ... : ... .. . F03 : ... .. . ... : ... .. . ... : === .. . ...
ROW 0E : ... .. . ... : ... .. . ... : ... .. . ... : E-# 07 8 ... : ... .. . F04 : ... .. . ... : ... .. . ... : D#3 09 . ...
ROW 0F : ... .. . ... : ... .. . ... : ... .. . ... : ... .. . ... : ... .. . F03 : ... .. . ... : ... .. . ... : === .. . ...
ROW 10 : A#1 04 . ... : ... .. . ... : F-3 0B . ... : A-# 08 F ... : ... .. . F04 : A#0 0D . ... : ... .. . ... : F-3 09 . ...
ROW 11 : ... .. . ... : ... .. . ... : ... .. . ... : ... .. . ... : ... .. . F03 : ... .. . ... : === .. . ... : ... .. . ...
ROW 12 : ... .. . ... : ... .. . ... : ... .. . ... : ... .. . ... : ... .. . F04 : ... .. . ... : D#3 09 . ... : ... .. . ...
ROW 13 : ... .. . ... : ... .. . ... : ... .. . ... : ... .. . ... : ... .. . F03 : ... .. . ... : === .. . ... : === .. . ...
ROW 14 : === 0A . ... : C#3 0A . ... : ... .. . ... : D-# 07 F ... : ... .. . F04 : === .. . ... : F-3 09 . ... : A#3 09 . ...
ROW 15 : ... .. . ... : ... .. . ... : ... .. . ... : ... .. . ... : ... .. . F03 : ... .. . ... : ... .. . ... : ... .. . ...
ROW 16 : ... .. . ... : ... .. . ... : ... .. . ... : E-# 07 8 ... : ... .. . F04 : ... .. . ... : ... .. . ... : ... .. . ...
ROW 17 : ... .. . ... : ... .. . ... : ... .. . ... : ... .. . ... : ... .. . F03 : ... .. . ... : === .. . ... : === .. . ...
ROW 18 : D#1 04 . ... : ... .. . ... : C-4 0C . ... : 8-# 06 F ... : ... .. . F04 : D#0 0D . ... : A#3 09 . ... : A#3 09 . ...
ROW 19 : ... .. . ... : ... .. . ... : ... .. . ... : ... .. . ... : ... .. . F03 : ... .. . ... : ... .. . ... : ... .. . ...
ROW 1A : ... .. . ... : ... .. . ... : ... .. . ... : ... .. . ... : ... .. . F04 : ... .. . ... : ... .. . ... : ... .. . ...
ROW 1B : ... .. . ... : ... .. . ... : ... .. . ... : ... .. . ... : ... .. . F03 : ... .. . ... : === .. . ... : ... .. . ...
ROW 1C : === 0A . ... : C#3 0A . ... : ... .. . ... : D-# 07 . ... : ... .. . F04 : === .. . ... : A#3 09 . ... : ... .. . ...
ROW 1D : ... .. . ... : ... .. . ... : ... .. . ... : ... .. . ... : ... .. . F03 : ... .. . ... : ... .. . ... : === .. . ...
ROW 1E : ... .. . ... : ... .. . ... : ... .. . ... : E-# 07 8 ... : ... .. . F04 : ... .. . ... : ... .. . ... : F-3 09 . ...
ROW 1F : ... .. . ... : ... .. . ... : ... .. . ... : ... .. . ... : ... .. . F03 : ... .. . ... : ... .. . ... : === .. . ...
ROW 20 : G#1 04 . ... : ... .. . ... : F-3 0B . ... : A-# 08 F ... : ... .. . F04 : G#0 0D . ... : ... .. . ... : D#3 09 . ...
ROW 21 : ... .. . ... : ... .. . ... : ... .. . ... : ... .. . ... : ... .. . F03 : ... .. . ... : === .. . ... : ... .. . ...
ROW 22 : ... .. . ... : ... .. . ... : ... .. . ... : ... .. . ... : ... .. . F04 : ... .. . ... : F-3 09 . ... : ... .. . ...
ROW 23 : ... .. . ... : ... .. . ... : ... .. . ... : ... .. . ... : ... .. . F03 : ... .. . ... : === .. . ... : === .. . ...
ROW 24 : === 0A . ... : G#2 0A . ... : ... .. . ... : D-# 07 . ... : ... .. . F04 : === .. . ... : D#3 09 . ... : G#3 09 . ...
ROW 25 : ... .. . ... : ... .. . ... : ... .. . ... : ... .. . ... : ... .. . F03 : ... .. . ... : ... .. . ... : ... .. . ...
ROW 26 : ... .. . ... : ... .. . ... : ... .. . ... : E-# 07 8 ... : ... .. . F04 : ... .. . ... : ... .. . ... : ... .. . ...
ROW 27 : ... .. . ... : ... .. . ... : ... .. . ... : ... .. . ... : ... .. . F03 : ... .. . ... : === .. . ... : === .. . ...
ROW 28 : D#1 04 . ... : ... .. . ... : C-4 0C . ... : 8-# 06 F ... : ... .. . F04 : D#0 0D . ... : G#3 09 . ... : C-4 09 . ...
ROW 29 : ... .. . ... : ... .. . ... : ... .. . ... : ... .. . ... : ... .. . F03 : ... .. . ... : ... .. . ... : ... .. . ...
ROW 2A : ... .. . ... : ... .. . ... : ... .. . ... : ... .. . ... : ... .. . F04 : ... .. . ... : ... .. . ... : ... .. . ...
ROW 2B : ... .. . ... : ... .. . ... : ... .. . ... : ... .. . ... : ... .. . F03 : ... .. . ... : === .. . ... : === .. . ...
ROW 2C : === 0A . ... : G#2 0A . ... : ... .. . ... : D-# 07 . ... : ... .. . F04 : === .. . ... : C-4 09 . ... : G#3 09 . ...
ROW 2D : ... .. . ... : ... .. . ... : ... .. . ... : ... .. . ... : ... .. . F03 : ... .. . ... : ... .. . ... : ... .. . ...
ROW 2E : ... .. . ... : ... .. . ... : ... .. . ... : E-# 07 8 ... : ... .. . F04 : ... .. . ... : ... .. . ... : ... .. . ...
ROW 2F : ... .. . ... : ... .. . ... : ... .. . ... : ... .. . ... : ... .. . F03 : ... .. . ... : === .. . ... : === .. . ...
ROW 30 : A#1 04 . ... : ... .. . ... : F-3 0B . ... : A-# 08 F ... : ... .. . F04 : A#0 0D . ... : G#3 09 . ... : A#3 09 . ...
ROW 31 : ... .. . ... : ... .. . ... : ... .. . ... : ... .. . ... : ... .. . F03 : ... .. . ... : ... .. . ... : ... .. . ...
ROW 32 : ... .. . ... : ... .. . ... : ... .. . ... : ... .. . ... : ... .. . F04 : ... .. . ... : ... .. . ... : ... .. . ...
ROW 33 : ... .. . ... : ... .. . ... : ... .. . ... : ... .. . ... : ... .. . F03 : ... .. . ... : === .. . ... : === .. . ...
ROW 34 : === 0A . ... : D#3 0A . ... : ... .. . ... : D-# 07 . ... : ... .. . F04 : === .. . ... : A#3 09 . ... : G-3 09 . ...
ROW 35 : ... .. . ... : ... .. . ... : ... .. . ... : ... .. . ... : ... .. . F03 : ... .. . ... : ... .. . ... : ... .. . ...
ROW 36 : ... .. . ... : ... .. . ... : ... .. . ... : E-# 07 8 ... : ... .. . F04 : ... .. . ... : ... .. . ... : ... .. . ...
ROW 37 : ... .. . ... : ... .. . ... : ... .. . ... : ... .. . ... : ... .. . F03 : ... .. . ... : === .. . ... : === .. . ...
ROW 38 : D#2 04 . ... : ... .. . ... : C-4 0C . ... : 8-# 06 F ... : ... .. . F04 : D#1 0D . ... : G-3 09 . ... : D#4 09 . ...
ROW 39 : ... .. . ... : ... .. . ... : ... .. . ... : ... .. . ... : ... .. . F03 : ... .. . ... : ... .. . ... : ... .. . ...
ROW 3A : ... .. . ... : ... .. . ... : ... .. . ... : ... .. . ... : ... .. . F04 : ... .. . ... : ... .. . ... : ... .. . ...
ROW 3B : ... .. . ... : ... .. . ... : ... .. . ... : ... .. . ... : ... .. . F03 : ... .. . ... : === .. . ... : ... .. . ...
ROW 3C : === 0A . ... : D#3 0A . ... : F-3 0B . ... : A-# 08 . ... : ... .. . F04 : === .. . ... : D#4 09 . ... : === .. . ...
ROW 3D : ... .. . ... : ... .. . ... : ... .. . ... : ... .. . ... : ... .. . F03 : ... .. . ... : ... .. . ... : ... .. . ...
ROW 3E : ... .. . ... : ... .. . ... : ... .. . ... : E-# 07 8 ... : ... .. . F04 : ... .. . ... : ... .. . ... : C#4 09 . ...
ROW 3F : ... .. . ... : ... .. . ... : ... .. . ... : ... .. . ... : ... .. . F03 : ... .. . ... : ... .. . ... : === .. . ...

PATTERN 07
ROW 00 : G#1 04 . ... : ... .. . ... : F-3 0B . ... : A-# 08 F ... : ... .. . F04 : G#0 0D . ... : === .. . ... : C-4 09 . ...
ROW 01 : ... .. . ... : ... .. . ... : ... .. . ... : ... .. . ... : ... .. . F03 : ... .. . ... : ... .. . ... : ... .. . ...
ROW 02 : ... .. . ... : ... .. . ... : ... .. . ... : ... .. . ... : ... .. . F04 : ... .. . ... : C#4 09 7 V02 : ... .. . ...
ROW 03 : ... .. . ... : ... .. . ... : ... .. . ... : ... .. . ... : ... .. . F03 : ... .. . ... : === .. . ... : === .. . ...
ROW 04 : === 0A . ... : G#2 0A . ... : ... .. . ... : D-# 07 . ... : ... .. . F04 : === .. . ... : C-4 09 . ... : G#3 09 . ...
ROW 05 : ... .. . ... : ... .. . ... : ... .. . ... : ... .. . ... : ... .. . F03 : ... .. . ... : ... .. . ... : ... .. . ...
ROW 06 : ... .. . ... : ... .. . ... : ... .. . ... : E-# 07 8 ... : ... .. . F04 : ... .. . ... : ... .. . ... : ... .. . ...
ROW 07 : ... .. . ... : ... .. . ... : ... .. . ... : ... .. . ... : ... .. . F03 : ... .. . ... : === .. . ... : === .. . ...
ROW 08 : D#1 04 . ... : ... .. . ... : C-4 0C . ... : 8-# 06 F ... : ... .. . F04 : D#0 0D . ... : G#3 09 . ... : D#3 09 . ...
ROW 09 : ... .. . ... : ... .. . ... : ... .. . ... : ... .. . ... : ... .. . F03 : ... .. . ... : ... .. . ... : ... .. . ...
ROW 0A : ... .. . ... : ... .. . ... : ... .. . ... : ... .. . ... : ... .. . F04 : ... .. . ... : ... .. . ... : ... .. . ...
ROW 0B : ... .. . ... : ... .. . ... : ... .. . ... : ... .. . ... : ... .. . F03 : ... .. . ... : === .. . ... : === .. . ...
ROW 0C : === 0A . ... : G#2 0A . ... : ... .. . ... : D-# 07 . ... : ... .. . F04 : === .. . ... : D#3 09 . ... : C-4 09 . ...
ROW 0D : ... .. . ... : ... .. . ... : ... .. . ... : ... .. . ... : ... .. . F03 : ... .. . ... : ... .. . ... : ... .. . ...
ROW 0E : ... .. . ... : ... .. . ... : ... .. . ... : E-# 07 8 ... : ... .. . F04 : ... .. . ... : ... .. . ... : ... .. . ...
ROW 0F : ... .. . ... : ... .. . ... : ... .. . ... : ... .. . ... : ... .. . F03 : ... .. . ... : === .. . ... : === .. . ...
ROW 10 : A#1 04 . ... : ... .. . ... : F-3 0B . ... : A-# 08 F ... : ... .. . F04 : A#0 0D . ... : C-4 09 . ... : A#3 09 . ...
ROW 11 : ... .. . ... : ... .. . ... : ... .. . ... : ... .. . ... : ... .. . F03 : ... .. . ... : ... .. . ... : ... .. . ...
ROW 12 : ... .. . ... : ... .. . ... : ... .. . ... : ... .. . ... : ... .. . F04 : ... .. . ... : ... .. . ... : ... .. . ...
ROW 13 : ... .. . ... : ... .. . ... : ... .. . ... : ... .. . ... : ... .. . F03 : ... .. . ... : === .. . ... : === .. . ...
ROW 14 : === 0A . ... : D#3 0A . ... : ... .. . ... : D-# 07 . ... : ... .. . F04 : === .. . ... : A#3 09 . ... : D#4 09 . ...
ROW 15 : ... .. . ... : ... .. . ... : ... .. . ... : ... .. . ... : ... .. . F03 : ... .. . ... : ... .. . ... : ... .. . ...
ROW 16 : ... .. . ... : ... .. . ... : ... .. . ... : E-# 07 8 ... : ... .. . F04 : ... .. . ... : ... .. . ... : C-4 09 . ...
ROW 17 : ... .. . ... : ... .. . ... : ... .. . ... : ... .. . ... : ... .. . F03 : ... .. . ... : === .. . ... : ... .. . ...
ROW 18 : D#1 04 . ... : ... .. . ... : C-4 0C . ... : 8-# 06 F ... : ... .. . F04 : D#0 0D . ... : D#4 09 . ... : A#3 09 . ...
ROW 19 : ... .. . ... : ... .. . ... : ... .. . ... : ... .. . ... : ... .. . F03 : ... .. . ... : ... .. . ... : ... .. . ...
ROW 1A : ... .. . ... : ... .. . ... : ... .. . ... : ... .. . ... : ... .. . F04 : ... .. . ... : C-4 09 . ... : ... .. . ...
ROW 1B : ... .. . ... : ... .. . ... : ... .. . ... : ... .. . ... : ... .. . F03 : ... .. . ... : ... .. . ... : === .. . ...
ROW 1C : === 0A . ... : D#3 0A . ... : ... .. . ... : D-# 07 . ... : ... .. . F04 : === .. . ... : A#3 09 . ... : G#3 09 . ...
ROW 1D : ... .. . ... : ... .. . ... : ... .. . ... : ... .. . ... : ... .. . F03 : ... .. . ... : ... .. . ... : ... .. . ...
ROW 1E : ... .. . ... : ... .. . ... : ... .. . ... : E-# 07 8 ... : ... .. . F04 : ... .. . ... : ... .. . ... : G-3 09 . ...
ROW 1F : ... .. . ... : ... .. . ... : ... .. . ... : ... .. . ... : ... .. . F03 : ... .. . ... : === .. . ... : ... .. . ...
ROW 20 : C#1 04 . ... : ... .. . ... : F-3 0B . ... : A-# 08 F ... : ... .. . F04 : C#0 0D . ... : G#3 09 . ... : G#3 09 . ...
ROW 21 : ... .. . ... : ... .. . ... : ... .. . ... : ... .. . ... : ... .. . F03 : ... .. . ... : ... .. . ... : ... .. . ...
ROW 22 : ... .. . ... : ... .. . ... : ... .. . ... : ... .. . ... : ... .. . F04 : ... .. . ... : G-3 09 . ... : ... .. . ...
ROW 23 : ... .. . ... : ... .. . ... : ... .. . ... : ... .. . ... : ... .. . F03 : ... .. . ... : ... .. . ... : === .. . ...
ROW 24 : === 0A . ... : C#3 0A . ... : ... .. . ... : D-# 07 . ... : ... .. . F04 : === .. . ... : G#3 09 . ... : F-3 09 . ...
ROW 25 : ... .. . ... : ... .. . ... : ... .. . ... : ... .. . ... : ... .. . F03 : ... .. . ... : ... .. . ... : ... .. . ...
ROW 26 : ... .. . ... : ... .. . ... : ... .. . ... : E-# 07 8 ... : ... .. . F04 : ... .. . ... : ... .. . ... : ... .. . ...
ROW 27 : ... .. . ... : ... .. . ... : ... .. . ... : ... .. . ... : ... .. . F03 : ... .. . ... : === .. . ... : === .. . ...
ROW 28 : C#2 04 . ... : ... .. . ... : C-4 0C . ... : 8-# 06 F ... : ... .. . F04 : C#1 0D . ... : F-3 09 . ... : C#3 09 . ...
ROW 29 : ... .. . ... : ... .. . ... : ... .. . ... : ... .. . ... : ... .. . F03 : ... .. . ... : ... .. . ... : ... .. . ...
ROW 2A : ... .. . ... : ... .. . ... : ... .. . ... : ... .. . ... : ... .. . F04 : ... .. . ... : ... .. . ... : ... .. . ...
ROW 2B : ... .. . ... : ... .. . ... : ... .. . ... : ... .. . ... : ... .. . F03 : ... .. . ... : === .. . ... : === .. . ...
ROW 2C : === 0A . ... : C#3 0A . ... : ... .. . ... : D-# 07 . ... : ... .. . F04 : === .. . ... : C#3 09 . ... : G#3 09 . ...
ROW 2D : ... .. . ... : ... .. . ... : ... .. . ... : ... .. . ... : ... .. . F03 : ... .. . ... : ... .. . ... : ... .. . ...
ROW 2E : ... .. . ... : ... .. . ... : ... .. . ... : E-# 07 8 ... : ... .. . F04 : ... .. . ... : ... .. . ... : ... .. . ...
ROW 2F : ... .. . ... : ... .. . ... : ... .. . ... : ... .. . ... : ... .. . F03 : ... .. . ... : === .. . ... : === .. . ...
ROW 30 : D#1 04 . ... : ... .. . ... : F-3 0B . ... : A-# 08 F ... : ... .. . F04 : D#0 0D . ... : G#3 09 . ... : G-3 09 . ...
ROW 31 : ... .. . ... : ... .. . ... : ... .. . ... : ... .. . ... : ... .. . F03 : ... .. . ... : ... .. . ... : ... .. . ...
ROW 32 : ... .. . ... : ... .. . ... : ... .. . ... : ... .. . ... : ... .. . F04 : ... .. . ... : ... .. . ... : ... .. . ...
ROW 33 : ... .. . ... : ... .. . ... : ... .. . ... : ... .. . ... : ... .. . F03 : ... .. . ... : === .. . ... : === .. . ...
ROW 34 : === 0A . ... : G#3 0A . ... : C-4 0C . ... : 8-# 06 . ... : ... .. . F04 : === .. . ... : G-3 09 . ... : G#3 09 . ...
ROW 35 : ... .. . ... : ... .. . ... : ... .. . ... : ... .. . ... : ... .. . F03 : ... .. . ... : ... .. . ... : ... .. . ...
ROW 36 : ... .. . ... : ... .. . ... : ... .. . ... : E-# 07 8 ... : ... .. . F04 : ... .. . ... : ... .. . ... : A#3 09 . ...
ROW 37 : ... .. . ... : ... .. . ... : ... .. . ... : ... .. . ... : ... .. . F03 : ... .. . ... : === .. . ... : ... .. . ...
ROW 38 : D#2 04 . ... : ... .. . ... : C-4 0C . ... : 8-# 06 F ... : ... .. . F04 : D#1 0D . ... : G#3 09 . ... : D#3 09 . ...
ROW 39 : ... .. . ... : ... .. . ... : ... .. . ... : ... .. . ... : ... .. . F03 : ... .. . ... : ... .. . ... : ... .. . ...
ROW 3A : ... .. . ... : ... .. . ... : ... .. . ... : ... .. . ... : ... .. . F04 : ... .. . ... : A#3 09 . ... : ... .. . ...
ROW 3B : ... .. . ... : ... .. . ... : ... .. . ... : ... .. . ... : ... .. . F03 : ... .. . ... : ... .. . ... : ... .. . ...
ROW 3C : === 0A . ... : D#3 0A . ... : ... .. . ... : D-# 07 . ... : ... .. . F04 : === .. . ... : D#3 09 . ... : === .. . ...
ROW 3D : ... .. . ... : ... .. . ... : ... .. . ... : ... .. . ... : ... .. . F03 : ... .. . ... : ... .. . ... : ... .. . ...
ROW 3E : ... .. . ... : ... .. . ... : C-4 0C . ... : 8-# 06 . ... : ... .. . F04 : ... .. . ... : ... .. . ... : ... .. . ...
ROW 3F : ... .. . ... : ... .. . ... : ... .. . ... : ... .. . ... : ... .. . F03 : ... .. . ... : ... .. . ... : ... .. . ...

PATTERN 08
ROW 00 : G#1 04 . ... : ... .. . ... : F-3 0B . ... : A-# 08 F ... : ... .. . F04 : G#0 0D . ... : === .. . ... : C-4 09 . ...
ROW 01 : ... .. . ... : ... .. . ... : ... .. . ... : ... .. . ... : ... .. . F03 : ... .. . ... : ... .. . ... : ... .. . ...
ROW 02 : ... .. . ... : ... .. . ... : ... .. . ... : ... .. . ... : ... .. . F04 : ... .. . ... : C#4 09 7 V02 : ... .. . ...
ROW 03 : ... .. . ... : ... .. . ... : ... .. . ... : ... .. . ... : ... .. . F03 : ... .. . ... : === .. . ... : === .. . ...
ROW 04 : === 0A . ... : G#2 0A . ... : ... .. . ... : D-# 07 . ... : ... .. . F04 : === .. . ... : C-4 09 . ... : G#3 09 . ...
ROW 05 : ... .. . ... : ... .. . ... : ... .. . ... : ... .. . ... : ... .. . F03 : ... .. . ... : ... .. . ... : ... .. . ...
ROW 06 : ... .. . ... : ... .. . ... : ... .. . ... : E-# 07 8 ... : ... .. . F04 : ... .. . ... : ... .. . ... : ... .. . ...
ROW 07 : ... .. . ... : ... .. . ... : ... .. . ... : ... .. . ... : ... .. . F03 : ... .. . ... : === .. . ... : === .. . ...
ROW 08 : D#1 04 . ... : ... .. . ... : C-4 0C . ... : 8-# 06 F ... : ... .. . F04 : D#0 0D . ... : G#3 09 . ... : D#3 09 . ...
ROW 09 : ... .. . ... : ... .. . ... : ... .. . ... : ... .. . ... : ... .. . F03 : ... .. . ... : ... .. . ... : ... .. . ...
ROW 0A : ... .. . ... : ... .. . ... : ... .. . ... : ... .. . ... : ... .. . F04 : ... .. . ... : ... .. . ... : ... .. . ...
ROW 0B : ... .. . ... : ... .. . ... : ... .. . ... : ... .. . ... : ... .. . F03 : ... .. . ... : === .. . ... : === .. . ...
ROW 0C : === 0A . ... : G#2 0A . ... : ... .. . ... : D-# 07 . ... : ... .. . F04 : === .. . ... : D#3 09 . ... : C-4 09 . ...
ROW 0D : ... .. . ... : ... .. . ... : ... .. . ... : ... .. . ... : ... .. . F03 : ... .. . ... : ... .. . ... : ... .. . ...
ROW 0E : ... .. . ... : ... .. . ... : ... .. . ... : E-# 07 8 ... : ... .. . F04 : ... .. . ... : ... .. . ... : ... .. . ...
ROW 0F : ... .. . ... : ... .. . ... : ... .. . ... : ... .. . ... : ... .. . F03 : ... .. . ... : === .. . ... : === .. . ...
ROW 10 : A#1 04 . ... : ... .. . ... : F-3 0B . ... : A-# 08 F ... : ... .. . F04 : A#0 0D . ... : C-4 09 . ... : A#3 09 . ...
ROW 11 : ... .. . ... : ... .. . ... : ... .. . ... : ... .. . ... : ... .. . F03 : ... .. . ... : ... .. . ... : ... .. . ...
ROW 12 : ... .. . ... : ... .. . ... : ... .. . ... : ... .. . ... : ... .. . F04 : ... .. . ... : ... .. . ... : ... .. . ...
ROW 13 : ... .. . ... : ... .. . ... : ... .. . ... : ... .. . ... : ... .. . F03 : ... .. . ... : === .. . ... : === .. . ...
ROW 14 : === 0A . ... : D#3 0A . ... : ... .. . ... : D-# 07 . ... : ... .. . F04 : === .. . ... : A#3 09 . ... : D#4 09 . ...
ROW 15 : ... .. . ... : ... .. . ... : ... .. . ... : ... .. . ... : ... .. . F03 : ... .. . ... : ... .. . ... : ... .. . ...
ROW 16 : ... .. . ... : ... .. . ... : ... .. . ... : E-# 07 8 ... : ... .. . F04 : ... .. . ... : ... .. . ... : C-4 09 . ...
ROW 17 : ... .. . ... : ... .. . ... : ... .. . ... : ... .. . ... : ... .. . F03 : ... .. . ... : === .. . ... : ... .. . ...
ROW 18 : D#1 04 . ... : ... .. . ... : C-4 0C . ... : 8-# 06 F ... : ... .. . F04 : D#0 0D . ... : D#4 09 . ... : A#3 09 . ...
ROW 19 : ... .. . ... : ... .. . ... : ... .. . ... : ... .. . ... : ... .. . F03 : ... .. . ... : ... .. . ... : ... .. . ...
ROW 1A : ... .. . ... : ... .. . ... : ... .. . ... : ... .. . ... : ... .. . F04 : ... .. . ... : C-4 09 . ... : ... .. . ...
ROW 1B : ... .. . ... : ... .. . ... : ... .. . ... : ... .. . ... : ... .. . F03 : ... .. . ... : ... .. . ... : === .. . ...
ROW 1C : === 0A . ... : D#3 0A . ... : ... .. . ... : D-# 07 . ... : ... .. . F04 : === .. . ... : A#3 09 . ... : G#3 09 . ...
ROW 1D : ... .. . ... : ... .. . ... : ... .. . ... : ... .. . ... : ... .. . F03 : ... .. . ... : ... .. . ... : ... .. . ...
ROW 1E : ... .. . ... : ... .. . ... : ... .. . ... : E-# 07 8 ... : ... .. . F04 : ... .. . ... : ... .. . ... : G-3 09 . ...
ROW 1F : ... .. . ... : ... .. . ... : ... .. . ... : ... .. . ... : ... .. . F03 : ... .. . ... : === .. . ... : ... .. . ...
ROW 20 : C#1 04 . ... : ... .. . ... : F-3 0B . ... : A-# 08 F ... : ... .. . F04 : C#0 0D . ... : G#3 09 . ... : G#3 09 . ...
ROW 21 : ... .. . ... : ... .. . ... : ... .. . ... : ... .. . ... : ... .. . F03 : ... .. . ... : ... .. . ... : ... .. . ...
ROW 22 : ... .. . ... : ... .. . ... : ... .. . ... : ... .. . ... : ... .. . F04 : ... .. . ... : G-3 09 . ... : ... .. . ...
ROW 23 : ... .. . ... : ... .. . ... : ... .. . ... : ... .. . ... : ... .. . F03 : ... .. . ... : ... .. . ... : === .. . ...
ROW 24 : === 0A . ... : C#3 0A . ... : ... .. . ... : D-# 07 . ... : ... .. . F04 : === .. . ... : G#3 09 . ... : F-3 09 . ...
ROW 25 : ... .. . ... : ... .. . ... : ... .. . ... : ... .. . ... : ... .. . F03 : ... .. . ... : ... .. . ... : ... .. . ...
ROW 26 : ... .. . ... : ... .. . ... : ... .. . ... : E-# 07 8 ... : ... .. . F04 : ... .. . ... : ... .. . ... : ... .. . ...
ROW 27 : ... .. . ... : ... .. . ... : ... .. . ... : ... .. . ... : ... .. . F03 : ... .. . ... : === .. . ... : === .. . ...
ROW 28 : C#2 04 . ... : ... .. . ... : C-4 0C . ... : 8-# 06 F ... : ... .. . F04 : C#1 0D . ... : F-3 09 . ... : C#3 09 . ...
ROW 29 : ... .. . ... : ... .. . ... : ... .. . ... : ... .. . ... : ... .. . F03 : ... .. . ... : ... .. . ... : ... .. . ...
ROW 2A : ... .. . ... : ... .. . ... : ... .. . ... : ... .. . ... : ... .. . F04 : ... .. . ... : ... .. . ... : ... .. . ...
ROW 2B : ... .. . ... : ... .. . ... : ... .. . ... : ... .. . ... : ... .. . F03 : ... .. . ... : === .. . ... : === .. . ...
ROW 2C : === 0A . ... : C#3 0A . ... : ... .. . ... : D-# 07 . ... : ... .. . F04 : === .. . ... : C#3 09 . ... : G#3 09 . ...
ROW 2D : ... .. . ... : ... .. . ... : ... .. . ... : ... .. . ... : ... .. . F03 : ... .. . ... : ... .. . ... : ... .. . ...
ROW 2E : ... .. . ... : ... .. . ... : ... .. . ... : E-# 07 8 ... : ... .. . F04 : ... .. . ... : ... .. . ... : ... .. . ...
ROW 2F : ... .. . ... : ... .. . ... : ... .. . ... : ... .. . ... : ... .. . F03 : ... .. . ... : === .. . ... : === .. . ...
ROW 30 : D#1 04 . ... : ... .. . ... : F-3 0B . ... : A-# 08 F ... : ... .. . F04 : D#0 0D . ... : G#3 09 . ... : G-3 09 . ...
ROW 31 : ... .. . ... : ... .. . ... : ... .. . ... : ... .. . ... : ... .. . F03 : ... .. . ... : ... .. . ... : ... .. . ...
ROW 32 : ... .. . ... : ... .. . ... : ... .. . ... : ... .. . ... : ... .. . F04 : ... .. . ... : ... .. . ... : ... .. . ...
ROW 33 : ... .. . ... : ... .. . ... : ... .. . ... : ... .. . ... : ... .. . F03 : ... .. . ... : === .. . ... : === .. . ...
ROW 34 : === 0A . ... : G#3 0A . ... : C-4 0C . ... : 8-# 06 . ... : ... .. . F04 : === .. . ... : G-3 09 . ... : G#3 09 . ...
ROW 35 : ... .. . ... : ... .. . ... : ... .. . ... : ... .. . ... : ... .. . F03 : ... .. . ... : ... .. . ... : ... .. . ...
ROW 36 : ... .. . ... : ... .. . ... : ... .. . ... : E-# 07 8 ... : ... .. . F04 : ... .. . ... : ... .. . ... : A#3 09 . ...
ROW 37 : ... .. . ... : ... .. . ... : ... .. . ... : ... .. . ... : ... .. . F03 : ... .. . ... : === .. . ... : ... .. . ...
ROW 38 : D#2 04 . ... : ... .. . ... : C-4 0C . ... : 8-# 06 F ... : ... .. . F04 : D#1 0D . ... : G#3 09 . ... : D#4 09 . ...
ROW 39 : ... .. . ... : ... .. . ... : ... .. . ... : ... .. . ... : ... .. . F03 : ... .. . ... : ... .. . ... : ... .. . ...
ROW 3A : ... .. . ... : ... .. . ... : ... .. . ... : ... .. . ... : ... .. . F04 : ... .. . ... : A#3 09 . ... : ... .. . ...
ROW 3B : ... .. . ... : ... .. . ... : ... .. . ... : ... .. . ... : ... .. . F03 : ... .. . ... : ... .. . ... : ... .. . ...
ROW 3C : === 0A . ... : D#3 0A . ... : ... .. . ... : D-# 07 . ... : ... .. . F04 : === .. . ... : D#4 09 . ... : === .. . ...
ROW 3D : ... .. . ... : ... .. . ... : ... .. . ... : ... .. . ... : ... .. . F03 : ... .. . ... : ... .. . ... : ... .. . ...
ROW 3E : ... .. . ... : ... .. . ... : C-4 0C . ... : 8-# 06 . ... : ... .. . F04 : ... .. . ... : ... .. . ... : ... .. . ...
ROW 3F : ... .. . ... : ... .. . ... : ... .. . ... : ... .. . ... : ... .. . F03 : ... .. . ... : ... .. . ... : ... .. . ...

PATTERN 09
ROW 00 : A-1 04 . ... : ... .. . ... : F-3 0B . ... : A-# 05 . ... : ... .. . F04 : A-0 0D F 400 : ... .. . ... : E-3 09 E ...
ROW 01 : ... .. . ... : ... .. . ... : ... .. . ... : ... .. . ... : ... .. . F03 : ... .. . ... : ... .. . ... : ... .. . ...
ROW 02 : ... .. . ... : ... .. . ... : ... .. . ... : ... .. . ... : ... .. . F04 : ... .. . ... : ... .. . ... : ... .. . ...
ROW 03 : ... .. . ... : ... .. . ... : ... .. . ... : ... .. . ... : ... .. . F03 : ... .. . ... : ... .. . V02 : ... .. . ...
ROW 04 : === 0A . ... : A-2 0A . ... : ... .. . ... : ... .. . ... : ... .. . F04 : === .. . ... : E-3 09 7 400 : ... .. . ...
ROW 05 : ... .. . ... : ... .. . ... : ... .. . ... : ... .. . ... : ... .. . F03 : ... .. . ... : ... .. . ... : ... .. . ...
ROW 06 : ... .. . ... : ... .. . ... : ... .. . ... : ... .. . ... : ... .. . F04 : ... .. . ... : ... .. . ... : === .. . ...
ROW 07 : ... .. . ... : ... .. . ... : ... .. . ... : ... .. . ... : ... .. . F03 : ... .. . ... : ... .. . ... : ... .. . ...
ROW 08 : E-1 04 . ... : ... .. . ... : C-4 0C . ... : 8-# 06 . ... : ... .. . F04 : E-0 0D . ... : ... .. . ... : A-3 09 . ...
ROW 09 : ... .. . ... : ... .. . ... : ... .. . ... : ... .. . ... : ... .. . F03 : ... .. . ... : ... .. . ... : ... .. . ...
ROW 0A : ... .. . ... : ... .. . ... : ... .. . ... : ... .. . ... : ... .. . F04 : ... .. . ... : === .. . ... : ... .. . ...
ROW 0B : ... .. . ... : ... .. . ... : ... .. . ... : ... .. . ... : ... .. . F03 : ... .. . ... : ... .. . ... : ... .. . ...
ROW 0C : === 0A . ... : A-2 0A . ... : ... .. . ... : D-# 07 . ... : ... .. . F04 : === .. . ... : A-3 09 . ... : ... .. . ...
ROW 0D : ... .. . ... : ... .. . ... : ... .. . ... : ... .. . ... : ... .. . F03 : ... .. . ... : ... .. . ... : === .. . ...
ROW 0E : ... .. . ... : ... .. . ... : ... .. . ... : E-# 07 8 ... : ... .. . F04 : ... .. . ... : ... .. . ... : E-3 09 . ...
ROW 0F : ... .. . ... : ... .. . ... : ... .. . ... : ... .. . ... : ... .. . F03 : ... .. . ... : ... .. . ... : === .. . ...
ROW 10 : B-1 04 . ... : ... .. . ... : F-3 0B . ... : A-# 08 F ... : ... .. . F04 : B-0 0D . ... : ... .. . ... : F#3 09 . ...
ROW 11 : ... .. . ... : ... .. . ... : ... .. . ... : ... .. . ... : ... .. . F03 : ... .. . ... : === .. . ... : ... .. . ...
ROW 12 : ... .. . ... : ... .. . ... : ... .. . ... : ... .. . ... : ... .. . F04 : ... .. . ... : E-3 09 . ... : ... .. . ...
ROW 13 : ... .. . ... : ... .. . ... : ... .. . ... : ... .. . ... : ... .. . F03 : ... .. . ... : === .. . ... : === .. . ...
ROW 14 : === 0A . ... : D-3 0A . ... : ... .. . ... : D-# 07 . ... : ... .. . F04 : === .. . ... : F#3 09 . ... : D-3 09 . ...
ROW 15 : ... .. . ... : ... .. . ... : ... .. . ... : ... .. . ... : ... .. . F03 : ... .. . ... : ... .. . ... : ... .. . ...
ROW 16 : ... .. . ... : ... .. . ... : ... .. . ... : E-# 07 8 ... : ... .. . F04 : ... .. . ... : ... .. . ... : ... .. . ...
ROW 17 : ... .. . ... : ... .. . ... : ... .. . ... : ... .. . ... : ... .. . F03 : ... .. . ... : === .. . ... : === .. . ...
ROW 18 : E-1 04 . ... : ... .. . ... : C-4 0C . ... : 8-# 06 F ... : ... .. . F04 : E-0 0D . ... : D-3 09 . ... : B-2 09 . ...
ROW 19 : ... .. . ... : ... .. . ... : ... .. . ... : ... .. . ... : ... .. . F03 : ... .. . ... : ... .. . ... : ... .. . ...
ROW 1A : ... .. . ... : ... .. . ... : ... .. . ... : ... .. . ... : ... .. . F04 : ... .. . ... : ... .. . ... : ... .. . ...
ROW 1B : ... .. . ... : ... .. . ... : ... .. . ... : ... .. . ... : ... .. . F03 : ... .. . ... : === .. . ... : ... .. . ...
ROW 1C : === 0A . ... : D-3 0A . ... : ... .. . ... : D-# 07 . ... : ... .. . F04 : === .. . ... : B-2 09 . ... : ... .. . ...
ROW 1D : ... .. . ... : ... .. . ... : ... .. . ... : ... .. . ... : ... .. . F03 : ... .. . ... : ... .. . ... : ... .. . ...
ROW 1E : ... .. . ... : ... .. . ... : ... .. . ... : E-# 07 8 ... : ... .. . F04 : ... .. . ... : ... .. . ... : === .. . ...
ROW 1F : ... .. . ... : ... .. . ... : ... .. . ... : ... .. . ... : ... .. . F03 : ... .. . ... : ... .. . ... : ... .. . ...
ROW 20 : A-1 04 . ... : ... .. . ... : F-3 0B . ... : A-# 08 F ... : ... .. . F04 : A-0 0D . ... : ... .. . ... : E-3 09 . ...
ROW 21 : ... .. . ... : ... .. . ... : ... .. . ... : ... .. . ... : ... .. . F03 : ... .. . ... : ... .. . ... : ... .. . ...
ROW 22 : ... .. . ... : ... .. . ... : ... .. . ... : ... .. . ... : ... .. . F04 : ... .. . ... : === .. . ... : ... .. . ...
ROW 23 : ... .. . ... : ... .. . ... : ... .. . ... : ... .. . ... : ... .. . F03 : ... .. . ... : ... .. . ... : === .. . ...
ROW 24 : === 0A . ... : A-2 0A . ... : ... .. . ... : D-# 07 . ... : ... .. . F04 : === .. . ... : E-3 09 . ... : C#3 09 . ...
ROW 25 : ... .. . ... : ... .. . ... : ... .. . ... : ... .. . ... : ... .. . F03 : ... .. . ... : ... .. . ... : ... .. . ...
ROW 26 : ... .. . ... : ... .. . ... : ... .. . ... : E-# 07 8 ... : ... .. . F04 : ... .. . ... : ... .. . ... : ... .. . ...
ROW 27 : ... .. . ... : ... .. . ... : ... .. . ... : ... .. . ... : ... .. . F03 : ... .. . ... : === .. . ... : === .. . ...
ROW 28 : E-1 04 . ... : ... .. . ... : C-4 0C . ... : 8-# 06 F ... : ... .. . F04 : E-0 0D . ... : C#3 09 . ... : A-2 09 . ...
ROW 29 : ... .. . ... : ... .. . ... : ... .. . ... : ... .. . ... : ... .. . F03 : ... .. . ... : ... .. . ... : ... .. . ...
ROW 2A : ... .. . ... : ... .. . ... : ... .. . ... : ... .. . ... : ... .. . F04 : ... .. . ... : ... .. . ... : ... .. . ...
ROW 2B : ... .. . ... : ... .. . ... : ... .. . ... : ... .. . ... : ... .. . F03 : ... .. . ... : === .. . ... : === .. . ...
ROW 2C : === 0A . ... : A-2 0A . ... : ... .. . ... : D-# 07 . ... : ... .. . F04 : === .. . ... : A-2 09 . ... : C#3 09 . ...
ROW 2D : ... .. . ... : ... .. . ... : ... .. . ... : ... .. . ... : ... .. . F03 : ... .. . ... : ... .. . ... : ... .. . ...
ROW 2E : ... .. . ... : ... .. . ... : ... .. . ... : E-# 07 8 ... : ... .. . F04 : ... .. . ... : ... .. . ... : ... .. . ...
ROW 2F : ... .. . ... : ... .. . ... : ... .. . ... : ... .. . ... : ... .. . F03 : ... .. . ... : === .. . ... : === .. . ...
ROW 30 : B-1 04 . ... : ... .. . ... : F-3 0B . ... : A-# 08 F ... : ... .. . F04 : B-0 0D . ... : C#3 09 . ... : B-2 09 . ...
ROW 31 : ... .. . ... : ... .. . ... : ... .. . ... : ... .. . ... : ... .. . F03 : ... .. . ... : ... .. . ... : ... .. . ...
ROW 32 : ... .. . ... : ... .. . ... : ... .. . ... : ... .. . ... : ... .. . F04 : ... .. . ... : ... .. . ... : ... .. . ...
ROW 33 : ... .. . ... : ... .. . ... : ... .. . ... : ... .. . ... : ... .. . F03 : ... .. . ... : === .. . ... : ... .. . ...
ROW 34 : === 0A . ... : E-3 0A . ... : ... .. . ... : D-# 07 . ... : ... .. . F04 : === .. . ... : B-2 09 . ... : ... .. . ...
ROW 35 : ... .. . ... : ... .. . ... : ... .. . ... : ... .. . ... : ... .. . F03 : ... .. . ... : ... .. . ... : ... .. . ...
ROW 36 : ... .. . ... : ... .. . ... : ... .. . ... : E-# 07 8 ... : ... .. . F04 : ... .. . ... : ... .. . ... : ... .. . ...
ROW 37 : ... .. . ... : ... .. . ... : ... .. . ... : ... .. . ... : ... .. . F03 : ... .. . ... : ... .. . ... : ... .. . ...
ROW 38 : E-1 04 . ... : ... .. . ... : C-4 0C . ... : 8-# 06 F ... : ... .. . F04 : E-0 0D . ... : ... .. . ... : === .. . ...
ROW 39 : ... .. . ... : ... .. . ... : ... .. . ... : ... .. . ... : ... .. . F03 : ... .. . ... : ... .. . ... : ... .. . ...
ROW 3A : ... .. . ... : ... .. . ... : ... .. . ... : ... .. . ... : ... .. . F04 : ... .. . ... : ... .. . ... : ... .. . ...
ROW 3B : ... .. . ... : ... .. . ... : ... .. . ... : ... .. . ... : ... .. . F03 : ... .. . ... : ... .. . ... : ... .. . ...
ROW 3C : === 0A . ... : E-3 0A . ... : F-3 0B . ... : A-# 08 . ... : ... .. . F04 : === .. . ... : === .. . ... : ... .. . ...
ROW 3D : ... .. . ... : ... .. . ... : ... .. . ... : ... .. . ... : ... .. . F03 : ... .. . ... : ... .. . ... : ... .. . ...
ROW 3E : ... .. . ... : ... .. . ... : ... .. . ... : E-# 07 8 ... : ... .. . F04 : ... .. . ... : ... .. . ... : ... .. . ...
ROW 3F : ... .. . ... : ... .. . ... : ... .. . ... : ... .. . ... : ... .. . F03 : ... .. . ... : ... .. . ... : ... .. . ...

PATTERN 0A
ROW 00 : A-1 04 . ... : ... .. . ... : F-3 0B . ... : A-# 08 F ... : ... .. . F04 : A-0 0D . ... : ... .. . ... : E-3 09 E ...
ROW 01 : ... .. . ... : ... .. . ... : ... .. . ... : ... .. . ... : ... .. . F03 : ... .. . ... : ... .. . ... : ... .. . ...
ROW 02 : ... .. . ... : ... .. . ... : ... .. . ... : ... .. . ... : ... .. . F04 : ... .. . ... : ... .. . ... : ... .. . ...
ROW 03 : ... .. . ... : ... .. . ... : ... .. . ... : ... .. . ... : ... .. . F03 : ... .. . ... : ... .. . V02 : ... .. . ...
ROW 04 : === 0A . ... : A-2 0A . ... : ... .. . ... : D-# 07 . ... : ... .. . F04 : === .. . ... : E-3 09 7 400 : ... .. . ...
ROW 05 : ... .. . ... : ... .. . ... : ... .. . ... : ... .. . ... : ... .. . F03 : ... .. . ... : ... .. . ... : ... .. . ...
ROW 06 : ... .. . ... : ... .. . ... : ... .. . ... : E-# 07 8 ... : ... .. . F04 : ... .. . ... : ... .. . ... : === .. . ...
ROW 07 : ... .. . ... : ... .. . ... : ... .. . ... : ... .. . ... : ... .. . F03 : ... .. . ... : ... .. . ... : ... .. . ...
ROW 08 : C#2 04 . ... : ... .. . ... : C-4 0C . ... : 8-# 06 F ... : ... .. . F04 : C#1 0D . ... : ... .. . ... : A-3 09 . ...
ROW 09 : ... .. . ... : ... .. . ... : ... .. . ... : ... .. . ... : ... .. . F03 : ... .. . ... : ... .. . ... : ... .. . ...
ROW 0A : ... .. . ... : ... .. . ... : ... .. . ... : ... .. . ... : ... .. . F04 : ... .. . ... : === .. . ... : ... .. . ...
ROW 0B : ... .. . ... : ... .. . ... : ... .. . ... : ... .. . ... : ... .. . F03 : ... .. . ... : ... .. . ... : ... .. . ...
ROW 0C : === 0A . ... : A-2 0A . ... : ... .. . ... : D-# 07 . ... : ... .. . F04 : === .. . ... : A-3 09 . ... : ... .. . ...
ROW 0D : ... .. . ... : ... .. . ... : ... .. . ... : ... .. . ... : ... .. . F03 : ... .. . ... : ... .. . ... : === .. . ...
ROW 0E : ... .. . ... : ... .. . ... : ... .. . ... : E-# 07 8 ... : ... .. . F04 : ... .. . ... : ... .. . ... : E-3 09 . ...
ROW 0F : ... .. . ... : ... .. . ... : ... .. . ... : ... .. . ... : ... .. . F03 : ... .. . ... : ... .. . ... : === .. . ...
ROW 10 : D-2 04 . ... : ... .. . ... : F-3 0B . ... : A-# 08 F ... : ... .. . F04 : D-1 0D . ... : ... .. . ... : F#3 09 . ...
ROW 11 : ... .. . ... : ... .. . ... : ... .. . ... : ... .. . ... : ... .. . F03 : ... .. . ... : === .. . ... : ... .. . ...
ROW 12 : ... .. . ... : ... .. . ... : ... .. . ... : ... .. . ... : ... .. . F04 : ... .. . ... : E-3 09 . ... : ... .. . ...
ROW 13 : ... .. . ... : ... .. . ... : ... .. . ... : ... .. . ... : ... .. . F03 : ... .. . ... : === .. . ... : === .. . ...
ROW 14 : === 0A . ... : D-3 0A . ... : ... .. . ... : D-# 07 . ... : ... .. . F04 : === .. . ... : F#3 09 . ... : D-3 09 . ...
ROW 15 : ... .. . ... : ... .. . ... : ... .. . ... : ... .. . ... : ... .. . F03 : ... .. . ... : ... .. . ... : ... .. . ...
ROW 16 : ... .. . ... : ... .. . ... : ... .. . ... : E-# 07 8 ... : ... .. . F04 : ... .. . ... : ... .. . ... : ... .. . ...
ROW 17 : ... .. . ... : ... .. . ... : ... .. . ... : ... .. . ... : ... .. . F03 : ... .. . ... : === .. . ... : === .. . ...
ROW 18 : D#2 04 . ... : ... .. . ... : C-4 0C . ... : 8-# 06 F ... : ... .. . F04 : D#1 0D . ... : D-3 09 . ... : B-2 09 . ...
ROW 19 : ... .. . ... : ... .. . ... : ... .. . ... : ... .. . ... : ... .. . F03 : ... .. . ... : ... .. . ... : ... .. . ...
ROW 1A : ... .. . ... : ... .. . ... : ... .. . ... : ... .. . ... : ... .. . F04 : ... .. . ... : ... .. . ... : ... .. . ...
ROW 1B : ... .. . ... : ... .. . ... : ... .. . ... : ... .. . ... : ... .. . F03 : ... .. . ... : === .. . ... : ... .. . ...
ROW 1C : === 0A . ... : D-3 0A . ... : ... .. . ... : D-# 07 . ... : ... .. . F04 : === .. . ... : B-2 09 . ... : ... .. . ...
ROW 1D : ... .. . ... : ... .. . ... : ... .. . ... : ... .. . ... : ... .. . F03 : ... .. . ... : ... .. . ... : ... .. . ...
ROW 1E : ... .. . ... : ... .. . ... : ... .. . ... : E-# 07 8 ... : ... .. . F04 : ... .. . ... : ... .. . ... : === .. . ...
ROW 1F : ... .. . ... : ... .. . ... : ... .. . ... : ... .. . ... : ... .. . F03 : ... .. . ... : ... .. . ... : ... .. . ...
ROW 20 : E-2 04 . ... : ... .. . ... : F-3 0B . ... : A-# 08 F ... : ... .. . F04 : E-1 0D . ... : ... .. . ... : E-3 09 . ...
ROW 21 : ... .. . ... : ... .. . ... : ... .. . ... : ... .. . ... : ... .. . F03 : ... .. . ... : ... .. . ... : ... .. . ...
ROW 22 : ... .. . ... : ... .. . ... : ... .. . ... : ... .. . ... : ... .. . F04 : ... .. . ... : === .. . ... : ... .. . ...
ROW 23 : ... .. . ... : ... .. . ... : ... .. . ... : ... .. . ... : ... .. . F03 : ... .. . ... : ... .. . ... : === .. . ...
ROW 24 : === 0A . ... : A-2 0A . ... : ... .. . ... : D-# 07 . ... : ... .. . F04 : === .. . ... : E-3 09 . ... : C#3 09 . ...
ROW 25 : ... .. . ... : ... .. . ... : ... .. . ... : ... .. . ... : ... .. . F03 : ... .. . ... : ... .. . ... : ... .. . ...
ROW 26 : ... .. . ... : ... .. . ... : ... .. . ... : E-# 07 8 ... : ... .. . F04 : ... .. . ... : ... .. . ... : ... .. . ...
ROW 27 : ... .. . ... : ... .. . ... : ... .. . ... : ... .. . ... : ... .. . F03 : ... .. . ... : === .. . ... : === .. . ...
ROW 28 : E-1 04 . ... : ... .. . ... : C-4 0C . ... : 8-# 06 F ... : ... .. . F04 : E-0 0D . ... : C#3 09 . ... : D-3 09 . ...
ROW 29 : ... .. . ... : ... .. . ... : ... .. . ... : ... .. . ... : ... .. . F03 : ... .. . ... : ... .. . ... : ... .. . ...
ROW 2A : ... .. . ... : ... .. . ... : ... .. . ... : ... .. . ... : ... .. . F04 : ... .. . ... : ... .. . ... : ... .. . ...
ROW 2B : ... .. . ... : ... .. . ... : ... .. . ... : ... .. . ... : ... .. . F03 : ... .. . ... : === .. . ... : === .. . ...
ROW 2C : === 0A . ... : A-2 0A . ... : ... .. . ... : D-# 07 . ... : ... .. . F04 : === .. . ... : D-3 09 . ... : G#2 09 . ...
ROW 2D : ... .. . ... : ... .. . ... : ... .. . ... : ... .. . ... : ... .. . F03 : ... .. . ... : ... .. . ... : ... .. . ...
ROW 2E : ... .. . ... : ... .. . ... : ... .. . ... : E-# 07 8 ... : ... .. . F04 : ... .. . ... : ... .. . ... : ... .. . ...
ROW 2F : ... .. . ... : ... .. . ... : ... .. . ... : ... .. . ... : ... .. . F03 : ... .. . ... : === .. . ... : === .. . ...
ROW 30 : A-1 04 . ... : ... .. . ... : F-3 0B . ... : A-# 08 F ... : ... .. . F04 : A-0 0D . ... : G#2 09 . ... : A-2 09 . ...
ROW 31 : ... .. . ... : ... .. . ... : ... .. . ... : ... .. . ... : ... .. . F03 : ... .. . ... : ... .. . ... : ... .. . ...
ROW 32 : ... .. . ... : ... .. . ... : ... .. . ... : ... .. . ... : ... .. . F04 : ... .. . ... : ... .. . ... : ... .. . ...
ROW 33 : ... .. . ... : ... .. . ... : ... .. . ... : ... .. . ... : ... .. . F03 : ... .. . ... : === .. . ... : ... .. . ...
ROW 34 : === 0A . ... : A-2 0A . ... : C-4 0C . ... : 8-# 06 . ... : ... .. . F04 : === .. . ... : A-2 09 . ... : ... .. . ...
ROW 35 : ... .. . ... : ... .. . ... : ... .. . ... : ... .. . ... : ... .. . F03 : ... .. . ... : ... .. . ... : ... .. . ...
ROW 36 : ... .. . ... : ... .. . ... : ... .. . ... : E-# 07 8 ... : ... .. . F04 : ... .. . ... : ... .. . ... : ... .. . ...
ROW 37 : ... .. . ... : ... .. . ... : ... .. . ... : ... .. . ... : ... .. . F03 : ... .. . ... : ... .. . ... : ... .. . ...
ROW 38 : E-1 04 . ... : ... .. . ... : C-4 0C . ... : 8-# 06 F ... : ... .. . F04 : E-0 0D . ... : ... .. . ... : === .. . ...
ROW 39 : ... .. . ... : ... .. . ... : ... .. . ... : ... .. . ... : ... .. . F03 : ... .. . ... : ... .. . ... : ... .. . ...
ROW 3A : ... .. . ... : ... .. . ... : ... .. . ... : ... .. . ... : ... .. . F04 : ... .. . ... : ... .. . ... : ... .. . ...
ROW 3B : ... .. . ... : ... .. . ... : ... .. . ... : ... .. . ... : ... .. . F03 : ... .. . ... : ... .. . ... : ... .. . ...
ROW 3C : === 0A . ... : A-2 0A . ... : ... .. . ... : D-# 07 . ... : ... .. . F04 : === .. . ... : === .. . ... : ... .. . ...
ROW 3D : ... .. . ... : ... .. . ... : ... .. . ... : ... .. . ... : ... .. . F03 : ... .. . ... : ... .. . ... : ... .. . ...
ROW 3E : ... .. . ... : ... .. . ... : C-4 0C . ... : 8-# 06 . ... : ... .. . F04 : ... .. . ... : ... .. . ... : ... .. . ...
ROW 3F : ... .. . ... : ... .. . ... : ... .. . ... : ... .. . ... : ... .. . F03 : ... .. . ... : ... .. . ... : ... .. . ...

PATTERN 0B
ROW 00 : A-1 04 . ... : ... .. . ... : F-3 0B . ... : A-# 05 . ... : ... .. . F04 : A-0 0D . ... : A-2 0E F ... : A-3 09 F P81
ROW 01 : ... .. . ... : ... .. . ... : ... .. . ... : ... .. . ... : ... .. . F03 : ... .. . ... : ... .. . ... : ... .. . ...
ROW 02 : ... .. . ... : ... .. . ... : ... .. . ... : ... .. . ... : ... .. . F04 : ... .. . ... : ... .. . ... : ... .. . ...
ROW 03 : ... .. . ... : ... .. . ... : ... .. . ... : ... .. . ... : ... .. . F03 : ... .. . ... : ... .. . ... : ... .. . ...
ROW 04 : === 0A . ... : A-3 0A . ... : ... .. . ... : ... .. . ... : ... .. . F04 : === .. . ... : === .. . ... : === .. . ...
ROW 05 : ... .. . ... : ... .. . ... : ... .. . ... : ... .. . ... : ... .. . F03 : ... .. . ... : ... .. . ... : ... .. . ...
ROW 06 : ... .. . ... : ... .. . ... : ... .. . ... : ... .. . ... : ... .. . F04 : ... .. . ... : ... .. . ... : ... .. . ...
ROW 07 : ... .. . ... : ... .. . ... : ... .. . ... : ... .. . ... : ... .. . F03 : ... .. . ... : ... .. . ... : ... .. . ...
ROW 08 : E-1 04 . ... : ... .. . ... : C-4 0C . ... : 8-# 06 . ... : ... .. . F04 : E-0 0D . ... : A-2 0E . ... : A-3 09 . ...
ROW 09 : ... .. . ... : ... .. . ... : ... .. . ... : ... .. . ... : ... .. . F03 : ... .. . ... : ... .. . ... : ... .. . ...
ROW 0A : ... .. . ... : ... .. . ... : ... .. . ... : ... .. . ... : ... .. . F04 : ... .. . ... : ... .. . ... : ... .. . ...
ROW 0B : ... .. . ... : ... .. . ... : ... .. . ... : ... .. . ... : ... .. . F03 : ... .. . ... : ... .. . ... : ... .. . ...
ROW 0C : === 0A . ... : A-3 0A . ... : ... .. . ... : D-# 07 . ... : ... .. . F04 : === .. . ... : === .. . ... : === .. . ...
ROW 0D : ... .. . ... : ... .. . ... : ... .. . ... : ... .. . ... : ... .. . F03 : ... .. . ... : ... .. . ... : ... .. . ...
ROW 0E : ... .. . ... : ... .. . ... : ... .. . ... : E-# 07 8 ... : ... .. . F04 : ... .. . ... : G#2 0E . ... : G#3 09 . ...
ROW 0F : ... .. . ... : ... .. . ... : ... .. . ... : ... .. . ... : ... .. . F03 : ... .. . ... : === 0E . ... : === 09 . ...
ROW 10 : A-1 04 . ... : ... .. . ... : F-3 0B . ... : A-# 08 F ... : ... .. . F04 : A-0 0D . ... : A-2 0E . ... : A-3 09 . ...
ROW 11 : ... .. . ... : ... .. . ... : ... .. . ... : ... .. . ... : ... .. . F03 : ... .. . ... : === .. . ... : === .. . ...
ROW 12 : ... .. . ... : ... .. . ... : ... .. . ... : ... .. . ... : ... .. . F04 : ... .. . ... : ... .. . ... : ... .. . ...
ROW 13 : ... .. . ... : ... .. . ... : ... .. . ... : ... .. . ... : ... .. . F03 : ... .. . ... : ... .. . ... : ... .. . ...
ROW 14 : === 0A . ... : A-3 0A . ... : ... .. . ... : D-# 07 . ... : ... .. . F04 : === .. . ... : C#3 0E . ... : C#4 09 . ...
ROW 15 : ... .. . ... : ... .. . ... : ... .. . ... : ... .. . ... : ... .. . F03 : ... .. . ... : === .. . ... : === .. . ...
ROW 16 : ... .. . ... : ... .. . ... : ... .. . ... : E-# 07 8 ... : ... .. . F04 : ... .. . ... : ... .. . ... : ... .. . ...
ROW 17 : ... .. . ... : ... .. . ... : ... .. . ... : ... .. . ... : ... .. . F03 : ... .. . ... : ... .. . ... : ... .. . ...
ROW 18 : E-1 04 . ... : ... .. . ... : C-4 0C . ... : 8-# 06 F ... : ... .. . F04 : E-0 0D . ... : E-3 0E . ... : E-4 09 . ...
ROW 19 : ... .. . ... : ... .. . ... : ... .. . ... : ... .. . ... : ... .. . F03 : ... .. . ... : === .. . ... : === .. . ...
ROW 1A : ... .. . ... : ... .. . ... : ... .. . ... : ... .. . ... : ... .. . F04 : ... .. . ... : ... .. . ... : ... .. . ...
ROW 1B : ... .. . ... : ... .. . ... : ... .. . ... : ... .. . ... : ... .. . F03 : ... .. . ... : ... .. . ... : ... .. . ...
ROW 1C : === 0A . ... : A-3 0A . ... : ... .. . ... : D-# 07 . ... : ... .. . F04 : === .. . ... : A-3 0E . ... : A-4 09 . ...
ROW 1D : ... .. . ... : ... .. . ... : ... .. . ... : ... .. . ... : ... .. . F03 : ... .. . ... : === .. . ... : === .. . ...
ROW 1E : ... .. . ... : ... .. . ... : ... .. . ... : E-# 07 8 ... : ... .. . F04 : ... .. . ... : ... .. . ... : ... .. . ...
ROW 1F : ... .. . ... : ... .. . ... : ... .. . ... : ... .. . ... : ... .. . F03 : ... .. . ... : ... .. . ... : ... .. . ...
ROW 20 : A-1 04 . ... : ... .. . ... : F-3 0B . ... : A-# 08 F ... : ... .. . F04 : A-0 0D . ... : G-3 0E . ... : G-4 09 . ...
ROW 21 : ... .. . ... : ... .. . ... : ... .. . ... : ... .. . ... : ... .. . F03 : ... .. . ... : ... .. . ... : ... .. . ...
ROW 22 : ... .. . ... : ... .. . ... : ... .. . ... : ... .. . ... : ... .. . F04 : ... .. . ... : ... .. . ... : ... .. . ...
ROW 23 : ... .. . ... : ... .. . ... : ... .. . ... : ... .. . ... : ... .. . F03 : ... .. . ... : ... .. . ... : ... .. . ...
ROW 24 : === 0A . ... : G-3 0A . ... : ... .. . ... : D-# 07 . ... : ... .. . F04 : === .. . ... : ... .. . ... : ... .. . ...
ROW 25 : ... .. . ... : ... .. . ... : ... .. . ... : ... .. . ... : ... .. . F03 : ... .. . ... : === .. . ... : === .. . ...
ROW 26 : ... .. . ... : ... .. . ... : ... .. . ... : E-# 07 8 ... : ... .. . F04 : ... .. . ... : F#3 0E . ... : F#4 09 . ...
ROW 27 : ... .. . ... : ... .. . ... : ... .. . ... : ... .. . ... : ... .. . F03 : ... .. . ... : === .. . ... : === .. . ...
ROW 28 : E-1 04 . ... : ... .. . ... : C-4 0C . ... : 8-# 06 F ... : ... .. . F04 : E-0 0D . ... : E-3 0E . ... : E-4 09 . ...
ROW 29 : ... .. . ... : ... .. . ... : ... .. . ... : ... .. . ... : ... .. . F03 : ... .. . ... : === .. . ... : === .. . ...
ROW 2A : ... .. . ... : ... .. . ... : ... .. . ... : ... .. . ... : ... .. . F04 : ... .. . ... : ... .. . ... : ... .. . ...
ROW 2B : ... .. . ... : ... .. . ... : ... .. . ... : ... .. . ... : ... .. . F03 : ... .. . ... : ... .. . ... : ... .. . ...
ROW 2C : === 0A . ... : G-3 0A . ... : ... .. . ... : D-# 07 . ... : ... .. . F04 : === .. . ... : G-3 0E . ... : G-4 09 . ...
ROW 2D : ... .. . ... : ... .. . ... : ... .. . ... : ... .. . ... : ... .. . F03 : ... .. . ... : === .. . ... : === .. . ...
ROW 2E : ... .. . ... : ... .. . ... : ... .. . ... : E-# 07 8 ... : ... .. . F04 : ... .. . ... : ... .. . ... : ... .. . ...
ROW 2F : ... .. . ... : ... .. . ... : ... .. . ... : ... .. . ... : ... .. . F03 : ... .. . ... : ... .. . ... : ... .. . ...
ROW 30 : A-1 04 . ... : ... .. . ... : F-3 0B . ... : A-# 08 F ... : ... .. . F04 : A-0 0D . ... : F#3 0E . ... : F#4 09 . ...
ROW 31 : ... .. . ... : ... .. . ... : ... .. . ... : ... .. . ... : ... .. . F03 : ... .. . ... : === .. . ... : === .. . ...
ROW 32 : ... .. . ... : ... .. . ... : ... .. . ... : ... .. . ... : ... .. . F04 : ... .. . ... : ... .. . ... : ... .. . ...
ROW 33 : ... .. . ... : ... .. . ... : ... .. . ... : ... .. . ... : ... .. . F03 : ... .. . ... : ... .. . ... : ... .. . ...
ROW 34 : === 10 . ... : E-3 10 . ... : ... .. . ... : D-# 07 . ... : ... .. . F04 : === .. . ... : E-3 0E . ... : E-4 09 . ...
ROW 35 : ... .. . ... : ... .. . ... : ... .. . ... : ... .. . ... : ... .. . F03 : ... .. . ... : === .. . ... : === .. . ...
ROW 36 : ... .. . ... : ... .. . ... : ... .. . ... : E-# 07 8 ... : ... .. . F04 : ... .. . ... : ... .. . ... : ... .. . ...
ROW 37 : ... .. . ... : ... .. . ... : ... .. . ... : ... .. . ... : ... .. . F03 : ... .. . ... : ... .. . ... : ... .. . ...
ROW 38 : E-1 04 . ... : ... .. . ... : C-4 0C . ... : 8-# 06 F ... : ... .. . F04 : E-0 0D . ... : D-3 0E . ... : D-4 09 . ...
ROW 39 : ... .. . ... : ... .. . ... : ... .. . ... : ... .. . ... : ... .. . F03 : ... .. . ... : === .. . ... : === .. . ...
ROW 3A : ... .. . ... : ... .. . ... : ... .. . ... : ... .. . ... : ... .. . F04 : ... .. . ... : ... .. . ... : ... .. . ...
ROW 3B : ... .. . ... : ... .. . ... : ... .. . ... : ... .. . ... : ... .. . F03 : ... .. . ... : ... .. . ... : ... .. . ...
ROW 3C : === 10 . ... : E-3 10 . ... : F-3 0B . ... : A-# 08 . ... : ... .. . F04 : === .. . ... : F#3 0E . ... : F#4 09 . ...
ROW 3D : ... .. . ... : ... .. . ... : ... .. . ... : ... .. . ... : ... .. . F03 : ... .. . ... : === .. . ... : === .. . ...
ROW 3E : ... .. . ... : ... .. . ... : ... .. . ... : E-# 07 8 ... : ... .. . F04 : ... .. . ... : ... .. . ... : ... .. . ...
ROW 3F : ... .. . ... : ... .. . ... : ... .. . ... : ... .. . ... : ... .. . F03 : ... .. . ... : ... .. . ... : ... .. . ...

PATTERN 0C
ROW 00 : A-1 04 . ... : ... .. . ... : F-3 0B . ... : A-# 08 F ... : ... .. . F04 : A-0 0D . ... : C#3 0E F ... : A-3 09 F P81
ROW 01 : ... .. . ... : ... .. . ... : ... .. . ... : ... .. . ... : ... .. . F03 : ... .. . ... : ... .. . ... : ... .. . ...
ROW 02 : ... .. . ... : ... .. . ... : ... .. . ... : ... .. . ... : ... .. . F04 : ... .. . ... : ... .. . ... : ... .. . ...
ROW 03 : ... .. . ... : ... .. . ... : ... .. . ... : ... .. . ... : ... .. . F03 : ... .. . ... : ... .. . ... : ... .. . ...
ROW 04 : === 0A . ... : A-3 0A . ... : ... .. . ... : D-# 07 . ... : ... .. . F04 : === .. . ... : === .. . ... : === .. . ...
ROW 05 : ... .. . ... : ... .. . ... : ... .. . ... : ... .. . ... : ... .. . F03 : ... .. . ... : ... .. . ... : ... .. . ...
ROW 06 : ... .. . ... : ... .. . ... : ... .. . ... : E-# 07 8 ... : ... .. . F04 : ... .. . ... : ... .. . ... : ... .. . ...
ROW 07 : ... .. . ... : ... .. . ... : ... .. . ... : ... .. . ... : ... .. . F03 : ... .. . ... : ... .. . ... : ... .. . ...
ROW 08 : E-1 04 . ... : ... .. . ... : C-4 0C . ... : 8-# 06 F ... : ... .. . F04 : E-0 0D . ... : C#3 0E . ... : A-3 09 . ...
ROW 09 : ... .. . ... : ... .. . ... : ... .. . ... : ... .. . ... : ... .. . F03 : ... .. . ... : ... .. . ... : ... .. . ...
ROW 0A : ... .. . ... : ... .. . ... : ... .. . ... : ... .. . ... : ... .. . F04 : ... .. . ... : ... .. . ... : ... .. . ...
ROW 0B : ... .. . ... : ... .. . ... : ... .. . ... : ... .. . ... : ... .. . F03 : ... .. . ... : ... .. . ... : ... .. . ...
ROW 0C : === 0A . ... : A-3 0A . ... : ... .. . ... : D-# 07 . ... : ... .. . F04 : === .. . ... : === .. . ... : === .. . ...
ROW 0D : ... .. . ... : ... .. . ... : ... .. . ... : ... .. . ... : ... .. . F03 : ... .. . ... : ... .. . ... : ... .. . ...
ROW 0E : ... .. . ... : ... .. . ... : ... .. . ... : E-# 07 8 ... : ... .. . F04 : ... .. . ... : C-3 0E . ... : G#3 09 . ...
ROW 0F : ... .. . ... : ... .. . ... : ... .. . ... : ... .. . ... : ... .. . F03 : ... .. . ... : === 0E . ... : === 09 . ...
ROW 10 : A-1 04 . ... : ... .. . ... : F-3 0B . ... : A-# 08 F ... : ... .. . F04 : A-0 0D . ... : C#3 0E . ... : A-3 09 . ...
ROW 11 : ... .. . ... : ... .. . ... : ... .. . ... : ... .. . ... : ... .. . F03 : ... .. . ... : === .. . ... : === .. . ...
ROW 12 : ... .. . ... : ... .. . ... : ... .. . ... : ... .. . ... : ... .. . F04 : ... .. . ... : ... .. . ... : ... .. . ...
ROW 13 : ... .. . ... : ... .. . ... : ... .. . ... : ... .. . ... : ... .. . F03 : ... .. . ... : ... .. . ... : ... .. . ...
ROW 14 : === 0A . ... : A-3 0A . ... : ... .. . ... : D-# 07 . ... : ... .. . F04 : === .. . ... : E-3 0E . ... : C#4 09 . ...
ROW 15 : ... .. . ... : ... .. . ... : ... .. . ... : ... .. . ... : ... .. . F03 : ... .. . ... : === .. . ... : === .. . ...
ROW 16 : ... .. . ... : ... .. . ... : ... .. . ... : E-# 07 8 ... : ... .. . F04 : ... .. . ... : ... .. . ... : ... .. . ...
ROW 17 : ... .. . ... : ... .. . ... : ... .. . ... : ... .. . ... : ... .. . F03 : ... .. . ... : ... .. . ... : ... .. . ...
ROW 18 : E-1 04 . ... : ... .. . ... : C-4 0C . ... : 8-# 06 F ... : ... .. . F04 : E-0 0D . ... : A-3 0E . ... : E-4 09 . ...
ROW 19 : ... .. . ... : ... .. . ... : ... .. . ... : ... .. . ... : ... .. . F03 : ... .. . ... : === .. . ... : === .. . ...
ROW 1A : ... .. . ... : ... .. . ... : ... .. . ... : ... .. . ... : ... .. . F04 : ... .. . ... : ... .. . ... : ... .. . ...
ROW 1B : ... .. . ... : ... .. . ... : ... .. . ... : ... .. . ... : ... .. . F03 : ... .. . ... : ... .. . ... : ... .. . ...
ROW 1C : === 0A . ... : A-3 0A . ... : ... .. . ... : D-# 07 . ... : ... .. . F04 : === .. . ... : C#4 0E . ... : A-4 09 . ...
ROW 1D : ... .. . ... : ... .. . ... : ... .. . ... : ... .. . ... : ... .. . F03 : ... .. . ... : === .. . ... : === .. . ...
ROW 1E : ... .. . ... : ... .. . ... : ... .. . ... : E-# 07 8 ... : ... .. . F04 : ... .. . ... : ... .. . ... : ... .. . ...
ROW 1F : ... .. . ... : ... .. . ... : ... .. . ... : ... .. . ... : ... .. . F03 : ... .. . ... : ... .. . ... : ... .. . ...
ROW 20 : G-1 04 . ... : ... .. . ... : F-3 0B . ... : A-# 08 F ... : ... .. . F04 : G-0 0D . ... : G-3 0E . ... : B-4 09 . 431
ROW 21 : ... .. . ... : ... .. . ... : ... .. . ... : ... .. . ... : ... .. . F03 : ... .. . ... : ... .. . ... : ... .. . ...
ROW 22 : ... .. . ... : ... .. . ... : ... .. . ... : ... .. . ... : ... .. . F04 : ... .. . ... : ... .. . ... : ... .. . ...
ROW 23 : ... .. . ... : ... .. . ... : ... .. . ... : ... .. . ... : ... .. . F03 : ... .. . ... : ... .. . ... : ... .. . ...
ROW 24 : === 0A . ... : G-3 0A . ... : ... .. . ... : D-# 07 . ... : ... .. . F04 : === .. . ... : === .. . ... : ... .. E ...
ROW 25 : ... .. . ... : ... .. . ... : ... .. . ... : ... .. . ... : ... .. . F03 : ... .. . ... : ... .. . ... : ... .. . ...
ROW 26 : ... .. . ... : ... .. . ... : ... .. . ... : E-# 07 8 ... : ... .. . F04 : ... .. . ... : ... .. . ... : ... .. . ...
ROW 27 : ... .. . ... : ... .. . ... : ... .. . ... : ... .. . ... : ... .. . F03 : ... .. . ... : ... .. . ... : ... .. . ...
ROW 28 : D-1 04 . ... : ... .. . ... : C-4 0C . ... : 8-# 06 F ... : ... .. . F04 : D-0 0D . ... : G-3 0E . ... : ... .. D ...
ROW 29 : ... .. . ... : ... .. . ... : ... .. . ... : ... .. . ... : ... .. . F03 : ... .. . ... : ... .. . ... : ... .. . ...
ROW 2A : ... .. . ... : ... .. . ... : ... .. . ... : ... .. . ... : ... .. . F04 : ... .. . ... : ... .. . ... : ... .. . ...
ROW 2B : ... .. . ... : ... .. . ... : ... .. . ... : ... .. . ... : ... .. . F03 : ... .. . ... : ... .. . ... : ... .. . ...
ROW 2C : === 0A . ... : G-3 0A . ... : ... .. . ... : D-# 07 . ... : ... .. . F04 : === .. . ... : ... .. . ... : ... .. C ...
ROW 2D : ... .. . ... : ... .. . ... : ... .. . ... : ... .. . ... : ... .. . F03 : ... .. . ... : === .. . ... : ... .. . ...
ROW 2E : ... .. . ... : ... .. . ... : ... .. . ... : E-# 07 8 ... : ... .. . F04 : ... .. . ... : F#3 0E . ... : ... .. . ...
ROW 2F : ... .. . ... : ... .. . ... : ... .. . ... : ... .. . ... : ... .. . F03 : ... .. . ... : === .. . ... : ... .. . ...
ROW 30 : G-1 04 . ... : ... .. . ... : F-3 0B . ... : A-# 08 F ... : ... .. . F04 : G-0 0D . ... : G-3 0E . ... : ... .. B ...
ROW 31 : ... .. . ... : ... .. . ... : ... .. . ... : ... .. . ... : ... .. . F03 : ... .. . ... : ... .. . ... : ... .. . ...
ROW 32 : ... .. . ... : ... .. . ... : ... .. . ... : ... .. . ... : ... .. . F04 : ... .. . ... : ... .. . ... : A-4 09 F 400
ROW 33 : ... .. . ... : ... .. . ... : ... .. . ... : ... .. . ... : ... .. . F03 : ... .. . ... : ... .. . ... : ... .. . ...
ROW 34 : === 0A . ... : G-3 0A . ... : C-4 0C . ... : 8-# 06 . ... : ... .. . F04 : === .. . ... : ... .. . ... : G-4 09 . ...
ROW 35 : ... .. . ... : ... .. . ... : ... .. . ... : ... .. . ... : ... .. . F03 : ... .. . ... : ... .. . ... : ... .. . ...
ROW 36 : ... .. . ... : ... .. . ... : ... .. . ... : E-# 07 8 ... : ... .. . F04 : ... .. . ... : ... .. . ... : F#4 09 . ...
ROW 37 : ... .. . ... : ... .. . ... : ... .. . ... : ... .. . ... : ... .. . F03 : ... .. . ... : ... .. . ... : ... .. . ...
ROW 38 : D-1 04 . ... : ... .. . ... : C-4 0C . ... : 8-# 06 F ... : ... .. . F04 : D-0 0D . ... : === .. . ... : E-4 09 . ...
ROW 39 : ... .. . ... : ... .. . ... : ... .. . ... : ... .. . ... : ... .. . F03 : ... .. . ... : ... .. . ... : ... .. . ...
ROW 3A : ... .. . ... : ... .. . ... : ... .. . ... : ... .. . ... : ... .. . F04 : ... .. . ... : ... .. . ... : D-4 09 . ...
ROW 3B : ... .. . ... : ... .. . ... : ... .. . ... : ... .. . ... : ... .. . F03 : ... .. . ... : ... .. . ... : ... .. . ...
ROW 3C : === 0A . ... : G-3 0A . ... : ... .. . ... : D-# 07 . ... : ... .. . F04 : === .. . ... : ... .. . ... : C#4 09 . ...
ROW 3D : ... .. . ... : ... .. . ... : ... .. . ... : ... .. . ... : ... .. . F03 : ... .. . ... : ... .. . ... : ... .. . ...
ROW 3E : ... .. . ... : ... .. . ... : C-4 0C . ... : 8-# 06 . ... : ... .. . F04 : ... .. . ... : ... .. . ... : B-3 09 . ...
ROW 3F : ... .. . ... : ... .. . ... : ... .. . ... : ... .. . ... : ... .. . F03 : ... .. . ... : ... .. . RF3 : ... .. . ...

PATTERN 0D
ROW 00 : A-1 04 . ... : ... .. . ... : F-3 0B . ... : A-# 05 . ... : ... .. . F04 : A-0 0D . ... : === 01 . ... : E-3 09 E P80
ROW 01 : ... .. . ... : ... .. . ... : ... .. . ... : ... .. . ... : ... .. . F03 : ... .. . ... : ... .. . ... : ... .. . ...
ROW 02 : ... .. . ... : ... .. . ... : ... .. . ... : ... .. . ... : ... .. . F04 : ... .. . ... : ... .. . ... : ... .. . ...
ROW 03 : ... .. . ... : ... .. . ... : ... .. . ... : ... .. . ... : ... .. . F03 : ... .. . ... : ... .. . V02 : ... .. . ...
ROW 04 : === 0A . ... : A-2 0A . ... : ... .. . ... : ... .. . ... : ... .. . F04 : === .. . ... : E-3 09 7 ... : ... .. . ...
ROW 05 : ... .. . ... : ... .. . ... : ... .. . ... : ... .. . ... : ... .. . F03 : ... .. . ... : ... .. . ... : ... .. . ...
ROW 06 : ... .. . ... : ... .. . ... : ... .. . ... : ... .. . ... : ... .. . F04 : ... .. . ... : ... .. . ... : === .. . ...
ROW 07 : ... .. . ... : ... .. . ... : ... .. . ... : ... .. . ... : ... .. . F03 : ... .. . ... : ... .. . ... : ... .. . ...
ROW 08 : E-1 04 . ... : ... .. . ... : C-4 0C . ... : 8-# 06 . ... : ... .. . F04 : E-0 0D . ... : ... .. . ... : A-3 09 . ...
ROW 09 : ... .. . ... : ... .. . ... : ... .. . ... : ... .. . ... : ... .. . F03 : ... .. . ... : ... .. . ... : ... .. . ...
ROW 0A : ... .. . ... : ... .. . ... : ... .. . ... : ... .. . ... : ... .. . F04 : ... .. . ... : === .. . ... : ... .. . ...
ROW 0B : ... .. . ... : ... .. . ... : ... .. . ... : ... .. . ... : ... .. . F03 : ... .. . ... : ... .. . ... : ... .. . ...
ROW 0C : === 0A . ... : A-2 0A . ... : ... .. . ... : D-# 07 . ... : ... .. . F04 : === .. . ... : A-3 09 . ... : ... .. . ...
ROW 0D : ... .. . ... : ... .. . ... : ... .. . ... : ... .. . ... : ... .. . F03 : ... .. . ... : ... .. . ... : === .. . ...
ROW 0E : ... .. . ... : ... .. . ... : ... .. . ... : E-# 07 8 ... : ... .. . F04 : ... .. . ... : ... .. . ... : E-3 09 . ...
ROW 0F : ... .. . ... : ... .. . ... : ... .. . ... : ... .. . ... : ... .. . F03 : ... .. . ... : ... .. . ... : === .. . ...
ROW 10 : B-1 04 . ... : ... .. . ... : F-3 0B . ... : A-# 08 F ... : ... .. . F04 : B-0 0D . ... : ... .. . ... : F#3 09 . ...
ROW 11 : ... .. . ... : ... .. . ... : ... .. . ... : ... .. . ... : ... .. . F03 : ... .. . ... : === .. . ... : ... .. . ...
ROW 12 : ... .. . ... : ... .. . ... : ... .. . ... : ... .. . ... : ... .. . F04 : ... .. . ... : E-3 09 . ... : ... .. . ...
ROW 13 : ... .. . ... : ... .. . ... : ... .. . ... : ... .. . ... : ... .. . F03 : ... .. . ... : === .. . ... : === .. . ...
ROW 14 : === 0A . ... : D-3 0A . ... : ... .. . ... : D-# 07 . ... : ... .. . F04 : === .. . ... : F#3 09 . ... : B-3 09 . ...
ROW 15 : ... .. . ... : ... .. . ... : ... .. . ... : ... .. . ... : ... .. . F03 : ... .. . ... : ... .. . ... : ... .. . ...
ROW 16 : ... .. . ... : ... .. . ... : ... .. . ... : E-# 07 8 ... : ... .. . F04 : ... .. . ... : ... .. . ... : ... .. . ...
ROW 17 : ... .. . ... : ... .. . ... : ... .. . ... : ... .. . ... : ... .. . F03 : ... .. . ... : === .. . ... : === .. . ...
ROW 18 : E-1 04 . ... : ... .. . ... : C-4 0C . ... : 8-# 06 F ... : ... .. . F04 : E-0 0D . ... : B-3 09 . ... : B-3 09 . ...
ROW 19 : ... .. . ... : ... .. . ... : ... .. . ... : ... .. . ... : ... .. . F03 : ... .. . ... : ... .. . ... : ... .. . ...
ROW 1A : ... .. . ... : ... .. . ... : ... .. . ... : ... .. . ... : ... .. . F04 : ... .. . ... : ... .. . ... : ... .. . ...
ROW 1B : ... .. . ... : ... .. . ... : ... .. . ... : ... .. . ... : ... .. . F03 : ... .. . ... : === .. . ... : ... .. . ...
ROW 1C : === 0A . ... : D-3 0A . ... : ... .. . ... : D-# 07 . ... : ... .. . F04 : === .. . ... : B-3 09 . ... : ... .. . ...
ROW 1D : ... .. . ... : ... .. . ... : ... .. . ... : ... .. . ... : ... .. . F03 : ... .. . ... : ... .. . ... : === .. . ...
ROW 1E : ... .. . ... : ... .. . ... : ... .. . ... : E-# 07 8 ... : ... .. . F04 : ... .. . ... : ... .. . ... : F#3 09 . ...
ROW 1F : ... .. . ... : ... .. . ... : ... .. . ... : ... .. . ... : ... .. . F03 : ... .. . ... : ... .. . ... : === .. . ...
ROW 20 : A-1 04 . ... : ... .. . ... : F-3 0B . ... : A-# 08 F ... : ... .. . F04 : A-0 0D . ... : ... .. . ... : E-3 09 . ...
ROW 21 : ... .. . ... : ... .. . ... : ... .. . ... : ... .. . ... : ... .. . F03 : ... .. . ... : === .. . ... : ... .. . ...
ROW 22 : ... .. . ... : ... .. . ... : ... .. . ... : ... .. . ... : ... .. . F04 : ... .. . ... : F#3 09 . ... : ... .. . ...
ROW 23 : ... .. . ... : ... .. . ... : ... .. . ... : ... .. . ... : ... .. . F03 : ... .. . ... : === .. . ... : === .. . ...
ROW 24 : === 0A . ... : A-2 0A . ... : ... .. . ... : D-# 07 . ... : ... .. . F04 : === .. . ... : E-3 09 . ... : A-3 09 . ...
ROW 25 : ... .. . ... : ... .. . ... : ... .. . ... : ... .. . ... : ... .. . F03 : ... .. . ... : ... .. . ... : ... .. . ...
ROW 26 : ... .. . ... : ... .. . ... : ... .. . ... : E-# 07 8 ... : ... .. . F04 : ... .. . ... : ... .. . ... : ... .. . ...
ROW 27 : ... .. . ... : ... .. . ... : ... .. . ... : ... .. . ... : ... .. . F03 : ... .. . ... : === .. . ... : === .. . ...
ROW 28 : E-1 04 . ... : ... .. . ... : C-4 0C . ... : 8-# 06 F ... : ... .. . F04 : E-0 0D . ... : A-3 09 . ... : C#4 09 . ...
ROW 29 : ... .. . ... : ... .. . ... : ... .. . ... : ... .. . ... : ... .. . F03 : ... .. . ... : ... .. . ... : ... .. . ...
ROW 2A : ... .. . ... : ... .. . ... : ... .. . ... : ... .. . ... : ... .. . F04 : ... .. . ... : ... .. . ... : ... .. . ...
ROW 2B : ... .. . ... : ... .. . ... : ... .. . ... : ... .. . ... : ... .. . F03 : ... .. . ... : === .. . ... : === .. . ...
ROW 2C : === 0A . ... : A-2 0A . ... : ... .. . ... : D-# 07 . ... : ... .. . F04 : === .. . ... : C#4 09 . ... : A-3 09 . ...
ROW 2D : ... .. . ... : ... .. . ... : ... .. . ... : ... .. . ... : ... .. . F03 : ... .. . ... : ... .. . ... : ... .. . ...
ROW 2E : ... .. . ... : ... .. . ... : ... .. . ... : E-# 07 8 ... : ... .. . F04 : ... .. . ... : ... .. . ... : ... .. . ...
ROW 2F : ... .. . ... : ... .. . ... : ... .. . ... : ... .. . ... : ... .. . F03 : ... .. . ... : === .. . ... : === .. . ...
ROW 30 : B-1 04 . ... : ... .. . ... : F-3 0B . ... : A-# 08 F ... : ... .. . F04 : B-0 0D . ... : A-3 09 . ... : B-3 09 . ...
ROW 31 : ... .. . ... : ... .. . ... : ... .. . ... : ... .. . ... : ... .. . F03 : ... .. . ... : ... .. . ... : ... .. . ...
ROW 32 : ... .. . ... : ... .. . ... : ... .. . ... : ... .. . ... : ... .. . F04 : ... .. . ... : ... .. . ... : ... .. . ...
ROW 33 : ... .. . ... : ... .. . ... : ... .. . ... : ... .. . ... : ... .. . F03 : ... .. . ... : === .. . ... : === .. . ...
ROW 34 : === 0A . ... : E-3 0A . ... : ... .. . ... : D-# 07 . ... : ... .. . F04 : === .. . ... : B-3 09 . ... : G#3 09 . ...
ROW 35 : ... .. . ... : ... .. . ... : ... .. . ... : ... .. . ... : ... .. . F03 : ... .. . ... : ... .. . ... : ... .. . ...
ROW 36 : ... .. . ... : ... .. . ... : ... .. . ... : E-# 07 8 ... : ... .. . F04 : ... .. . ... : ... .. . ... : ... .. . ...
ROW 37 : ... .. . ... : ... .. . ... : ... .. . ... : ... .. . ... : ... .. . F03 : ... .. . ... : === .. . ... : === .. . ...
ROW 38 : E-2 04 . ... : ... .. . ... : C-4 0C . ... : 8-# 06 F ... : ... .. . F04 : E-1 0D . ... : G#3 09 . ... : E-4 09 . ...
ROW 39 : ... .. . ... : ... .. . ... : ... .. . ... : ... .. . ... : ... .. . F03 : ... .. . ... : ... .. . ... : ... .. . ...
ROW 3A : ... .. . ... : ... .. . ... : ... .. . ... : ... .. . ... : ... .. . F04 : ... .. . ... : ... .. . ... : ... .. . ...
ROW 3B : ... .. . ... : ... .. . ... : ... .. . ... : ... .. . ... : ... .. . F03 : ... .. . ... : === .. . ... : ... .. . ...
ROW 3C : === 0A . ... : E-3 0A . ... : F-3 0B . ... : A-# 08 . ... : ... .. . F04 : === .. . ... : E-4 09 . ... : === .. . ...
ROW 3D : ... .. . ... : ... .. . ... : ... .. . ... : ... .. . ... : ... .. . F03 : ... .. . ... : ... .. . ... : ... .. . ...
ROW 3E : ... .. . ... : ... .. . ... : ... .. . ... : E-# 07 8 ... : ... .. . F04 : ... .. . ... : ... .. . ... : D-4 09 . ...
ROW 3F : ... .. . ... : ... .. . ... : ... .. . ... : ... .. . ... : ... .. . F03 : ... .. . ... : ... .. . ... : === .. . ...

PATTERN 0E
ROW 00 : A-1 04 . ... : ... .. . ... : F-3 0B . ... : A-# 08 F ... : ... .. . F04 : A-0 0D . ... : === .. . ... : C#4 09 . ...
ROW 01 : ... .. . ... : ... .. . ... : ... .. . ... : ... .. . ... : ... .. . F03 : ... .. . ... : ... .. . ... : ... .. . ...
ROW 02 : ... .. . ... : ... .. . ... : ... .. . ... : ... .. . ... : ... .. . F04 : ... .. . ... : D-4 09 7 V02 : ... .. . ...
ROW 03 : ... .. . ... : ... .. . ... : ... .. . ... : ... .. . ... : ... .. . F03 : ... .. . ... : === .. . ... : === .. . ...
ROW 04 : === 0A . ... : A-2 0A . ... : ... .. . ... : D-# 07 . ... : ... .. . F04 : === .. . ... : C#4 09 . ... : A-3 09 . ...
ROW 05 : ... .. . ... : ... .. . ... : ... .. . ... : ... .. . ... : ... .. . F03 : ... .. . ... : ... .. . ... : ... .. . ...
ROW 06 : ... .. . ... : ... .. . ... : ... .. . ... : E-# 07 8 ... : ... .. . F04 : ... .. . ... : ... .. . ... : ... .. . ...
ROW 07 : ... .. . ... : ... .. . ... : ... .. . ... : ... .. . ... : ... .. . F03 : ... .. . ... : === .. . ... : === .. . ...
ROW 08 : E-1 04 . ... : ... .. . ... : C-4 0C . ... : 8-# 06 F ... : ... .. . F04 : E-0 0D . ... : A-3 09 . ... : E-3 09 . ...
ROW 09 : ... .. . ... : ... .. . ... : ... .. . ... : ... .. . ... : ... .. . F03 : ... .. . ... : ... .. . ... : ... .. . ...
ROW 0A : ... .. . ... : ... .. . ... : ... .. . ... : ... .. . ... : ... .. . F04 : ... .. . ... : ... .. . ... : ... .. . ...
ROW 0B : ... .. . ... : ... .. . ... : ... .. . ... : ... .. . ... : ... .. . F03 : ... .. . ... : === .. . ... : === .. . ...
ROW 0C : === 0A . ... : A-2 0A . ... : ... .. . ... : D-# 07 . ... : ... .. . F04 : === .. . ... : E-3 09 . ... : C#4 09 . ...
ROW 0D : ... .. . ... : ... .. . ... : ... .. . ... : ... .. . ... : ... .. . F03 : ... .. . ... : ... .. . ... : ... .. . ...
ROW 0E : ... .. . ... : ... .. . ... : ... .. . ... : E-# 07 8 ... : ... .. . F04 : ... .. . ... : ... .. . ... : ... .. . ...
ROW 0F : ... .. . ... : ... .. . ... : ... .. . ... : ... .. . ... : ... .. . F03 : ... .. . ... : === .. . ... : === .. . ...
ROW 10 : B-1 04 . ... : ... .. . ... : F-3 0B . ... : A-# 08 F ... : ... .. . F04 : B-0 0D . ... : C#4 09 . ... : B-3 09 . ...
ROW 11 : ... .. . ... : ... .. . ... : ... .. . ... : ... .. . ... : ... .. . F03 : ... .. . ... : ... .. . ... : ... .. . ...
ROW 12 : ... .. . ... : ... .. . ... : ... .. . ... : ... .. . ... : ... .. . F04 : ... .. . ... : ... .. . ... : ... .. . ...
ROW 13 : ... .. . ... : ... .. . ... : ... .. . ... : ... .. . ... : ... .. . F03 : ... .. . ... : === .. . ... : === .. . ...
ROW 14 : === 0A . ... : E-3 0A . ... : ... .. . ... : D-# 07 . ... : ... .. . F04 : === .. . ... : B-3 09 . ... : E-4 09 . ...
ROW 15 : ... .. . ... : ... .. . ... : ... .. . ... : ... .. . ... : ... .. . F03 : ... .. . ... : ... .. . ... : ... .. . ...
ROW 16 : ... .. . ... : ... .. . ... : ... .. . ... : E-# 07 8 ... : ... .. . F04 : ... .. . ... : ... .. . ... : C#4 09 . ...
ROW 17 : ... .. . ... : ... .. . ... : ... .. . ... : ... .. . ... : ... .. . F03 : ... .. . ... : === .. . ... : ... .. . ...
ROW 18 : E-1 04 . ... : ... .. . ... : C-4 0C . ... : 8-# 06 F ... : ... .. . F04 : E-0 0D . ... : E-4 09 . ... : B-3 09 . ...
ROW 19 : ... .. . ... : ... .. . ... : ... .. . ... : ... .. . ... : ... .. . F03 : ... .. . ... : ... .. . ... : ... .. . ...
ROW 1A : ... .. . ... : ... .. . ... : ... .. . ... : ... .. . ... : ... .. . F04 : ... .. . ... : C#4 09 . ... : ... .. . ...
ROW 1B : ... .. . ... : ... .. . ... : ... .. . ... : ... .. . ... : ... .. . F03 : ... .. . ... : ... .. . ... : === .. . ...
ROW 1C : === 0A . ... : E-3 0A . ... : ... .. . ... : D-# 07 . ... : ... .. . F04 : === .. . ... : B-3 09 . ... : A-3 09 . ...
ROW 1D : ... .. . ... : ... .. . ... : ... .. . ... : ... .. . ... : ... .. . F03 : ... .. . ... : ... .. . ... : ... .. . ...
ROW 1E : ... .. . ... : ... .. . ... : ... .. . ... : E-# 07 8 ... : ... .. . F04 : ... .. . ... : ... .. . ... : G#3 09 . ...
ROW 1F : ... .. . ... : ... .. . ... : ... .. . ... : ... .. . ... : ... .. . F03 : ... .. . ... : === .. . ... : ... .. . ...
ROW 20 : D-1 04 . ... : ... .. . ... : F-3 0B . ... : A-# 08 F ... : ... .. . F04 : D-0 0D . ... : A-3 09 . ... : A-3 09 . ...
ROW 21 : ... .. . ... : ... .. . ... : ... .. . ... : ... .. . ... : ... .. . F03 : ... .. . ... : ... .. . ... : ... .. . ...
ROW 22 : ... .. . ... : ... .. . ... : ... .. . ... : ... .. . ... : ... .. . F04 : ... .. . ... : G#3 09 . ... : ... .. . ...
ROW 23 : ... .. . ... : ... .. . ... : ... .. . ... : ... .. . ... : ... .. . F03 : ... .. . ... : ... .. . ... : === .. . ...
ROW 24 : === 0A . ... : D-3 0A . ... : ... .. . ... : D-# 07 . ... : ... .. . F04 : === .. . ... : A-3 09 . ... : F#3 09 . ...
ROW 25 : ... .. . ... : ... .. . ... : ... .. . ... : ... .. . ... : ... .. . F03 : ... .. . ... : ... .. . ... : ... .. . ...
ROW 26 : ... .. . ... : ... .. . ... : ... .. . ... : E-# 07 8 ... : ... .. . F04 : ... .. . ... : ... .. . ... : ... .. . ...
ROW 27 : ... .. . ... : ... .. . ... : ... .. . ... : ... .. . ... : ... .. . F03 : ... .. . ... : === .. . ... : === .. . ...
ROW 28 : D-2 04 . ... : ... .. . ... : C-4 0C . ... : 8-# 06 F ... : ... .. . F04 : D-1 0D . ... : F#3 09 . ... : D-3 09 . ...
ROW 29 : ... .. . ... : ... .. . ... : ... .. . ... : ... .. . ... : ... .. . F03 : ... .. . ... : ... .. . ... : ... .. . ...
ROW 2A : ... .. . ... : ... .. . ... : ... .. . ... : ... .. . ... : ... .. . F04 : ... .. . ... : ... .. . ... : ... .. . ...
ROW 2B : ... .. . ... : ... .. . ... : ... .. . ... : ... .. . ... : ... .. . F03 : ... .. . ... : === .. . ... : === .. . ...
ROW 2C : === 0A . ... : D-3 0A . ... : ... .. . ... : D-# 07 . ... : ... .. . F04 : === .. . ... : D-3 09 . ... : A-3 09 . ...
ROW 2D : ... .. . ... : ... .. . ... : ... .. . ... : ... .. . ... : ... .. . F03 : ... .. . ... : ... .. . ... : ... .. . ...
ROW 2E : ... .. . ... : ... .. . ... : ... .. . ... : E-# 07 8 ... : ... .. . F04 : ... .. . ... : ... .. . ... : ... .. . ...
ROW 2F : ... .. . ... : ... .. . ... : ... .. . ... : ... .. . ... : ... .. . F03 : ... .. . ... : === .. . ... : === .. . ...
ROW 30 : E-1 04 . ... : ... .. . ... : F-3 0B . ... : A-# 08 F ... : ... .. . F04 : E-0 0D . ... : A-3 09 . ... : G#3 09 . ...
ROW 31 : ... .. . ... : ... .. . ... : ... .. . ... : ... .. . ... : ... .. . F03 : ... .. . ... : ... .. . ... : ... .. . ...
ROW 32 : ... .. . ... : ... .. . ... : ... .. . ... : ... .. . ... : ... .. . F04 : ... .. . ... : ... .. . ... : ... .. . ...
ROW 33 : ... .. . ... : ... .. . ... : ... .. . ... : ... .. . ... : ... .. . F03 : ... .. . ... : === .. . ... : === .. . ...
ROW 34 : === 0A . ... : A-3 0A . ... : C-4 0C . ... : 8-# 06 . ... : ... .. . F04 : === .. . ... : G#3 09 . ... : A-3 09 . ...
ROW 35 : ... .. . ... : ... .. . ... : ... .. . ... : ... .. . ... : ... .. . F03 : ... .. . ... : ... .. . ... : ... .. . ...
ROW 36 : ... .. . ... : ... .. . ... : ... .. . ... : E-# 07 8 ... : ... .. . F04 : ... .. . ... : ... .. . ... : B-3 09 . ...
ROW 37 : ... .. . ... : ... .. . ... : ... .. . ... : ... .. . ... : ... .. . F03 : ... .. . ... : === .. . ... : ... .. . ...
ROW 38 : E-2 04 . ... : ... .. . ... : C-4 0C . ... : 8-# 06 F ... : ... .. . F04 : E-1 0D . ... : A-3 09 . ... : E-3 09 . ...
ROW 39 : ... .. . ... : ... .. . ... : ... .. . ... : ... .. . ... : ... .. . F03 : ... .. . ... : ... .. . ... : ... .. . ...
ROW 3A : ... .. . ... : ... .. . ... : ... .. . ... : ... .. . ... : ... .. . F04 : ... .. . ... : B-3 09 . ... : ... .. . ...
ROW 3B : ... .. . ... : ... .. . ... : ... .. . ... : ... .. . ... : ... .. . F03 : ... .. . ... : ... .. . ... : ... .. . ...
ROW 3C : === 0A . ... : E-3 0A . ... : ... .. . ... : D-# 07 . ... : ... .. . F04 : === .. . ... : E-3 09 . ... : === .. . ...
ROW 3D : ... .. . ... : ... .. . ... : ... .. . ... : ... .. . ... : ... .. . F03 : ... .. . ... : ... .. . ... : ... .. . ...
ROW 3E : ... .. . ... : ... .. . ... : C-4 0C . ... : 8-# 06 . ... : ... .. . F04 : ... .. . ... : ... .. . ... : ... .. . ...
ROW 3F : ... .. . ... : ... .. . ... : ... .. . ... : ... .. . ... : ... .. . F03 : ... .. . ... : ... .. . ... : ... .. . ...

PATTERN 0F
ROW 00 : A-1 04 . ... : ... .. . ... : F-3 0B . ... : A-# 08 F ... : ... .. . F04 : A-0 0D . ... : === .. . ... : C#4 09 . ...
ROW 01 : ... .. . ... : ... .. . ... : ... .. . ... : ... .. . ... : ... .. . F03 : ... .. . ... : ... .. . ... : ... .. . ...
ROW 02 : ... .. . ... : ... .. . ... : ... .. . ... : ... .. . ... : ... .. . F04 : ... .. . ... : D-4 09 7 V02 : ... .. . ...
ROW 03 : ... .. . ... : ... .. . ... : ... .. . ... : ... .. . ... : ... .. . F03 : ... .. . ... : === .. . ... : === .. . ...
ROW 04 : === 0A . ... : A-2 0A . ... : ... .. . ... : D-# 07 . ... : ... .. . F04 : === .. . ... : C#4 09 . ... : A-3 09 . ...
ROW 05 : ... .. . ... : ... .. . ... : ... .. . ... : ... .. . ... : ... .. . F03 : ... .. . ... : ... .. . ... : ... .. . ...
ROW 06 : ... .. . ... : ... .. . ... : ... .. . ... : E-# 07 8 ... : ... .. . F04 : ... .. . ... : ... .. . ... : ... .. . ...
ROW 07 : ... .. . ... : ... .. . ... : ... .. . ... : ... .. . ... : ... .. . F03 : ... .. . ... : === .. . ... : === .. . ...
ROW 08 : E-1 04 . ... : ... .. . ... : C-4 0C . ... : 8-# 06 F ... : ... .. . F04 : E-0 0D . ... : A-3 09 . ... : E-3 09 . ...
ROW 09 : ... .. . ... : ... .. . ... : ... .. . ... : ... .. . ... : ... .. . F03 : ... .. . ... : ... .. . ... : ... .. . ...
ROW 0A : ... .. . ... : ... .. . ... : ... .. . ... : ... .. . ... : ... .. . F04 : ... .. . ... : ... .. . ... : ... .. . ...
ROW 0B : ... .. . ... : ... .. . ... : ... .. . ... : ... .. . ... : ... .. . F03 : ... .. . ... : === .. . ... : === .. . ...
ROW 0C : === 0A . ... : A-2 0A . ... : ... .. . ... : D-# 07 . ... : ... .. . F04 : === .. . ... : E-3 09 . ... : C#4 09 . ...
ROW 0D : ... .. . ... : ... .. . ... : ... .. . ... : ... .. . ... : ... .. . F03 : ... .. . ... : ... .. . ... : ... .. . ...
ROW 0E : ... .. . ... : ... .. . ... : ... .. . ... : E-# 07 8 ... : ... .. . F04 : ... .. . ... : ... .. . ... : ... .. . ...
ROW 0F : ... .. . ... : ... .. . ... : ... .. . ... : ... .. . ... : ... .. . F03 : ... .. . ... : === .. . ... : === .. . ...
ROW 10 : B-1 04 . ... : ... .. . ... : F-3 0B . ... : A-# 08 F ... : ... .. . F04 : B-0 0D . ... : C#4 09 . ... : B-3 09 . ...
ROW 11 : ... .. . ... : ... .. . ... : ... .. . ... : ... .. . ... : ... .. . F03 : ... .. . ... : ... .. . ... : ... .. . ...
ROW 12 : ... .. . ... : ... .. . ... : ... .. . ... : ... .. . ... : ... .. . F04 : ... .. . ... : ... .. . ... : ... .. . ...
ROW 13 : ... .. . ... : ... .. . ... : ... .. . ... : ... .. . ... : ... .. . F03 : ... .. . ... : === .. . ... : === .. . ...
ROW 14 : === 0A . ... : E-3 0A . ... : ... .. . ... : D-# 07 . ... : ... .. . F04 : === .. . ... : B-3 09 . ... : E-4 09 . ...
ROW 15 : ... .. . ... : ... .. . ... : ... .. . ... : ... .. . ... : ... .. . F03 : ... .. . ... : ... .. . ... : ... .. . ...
ROW 16 : ... .. . ... : ... .. . ... : ... .. . ... : E-# 07 8 ... : ... .. . F04 : ... .. . ... : ... .. . ... : C#4 09 . ...
ROW 17 : ... .. . ... : ... .. . ... : ... .. . ... : ... .. . ... : ... .. . F03 : ... .. . ... : === .. . ... : ... .. . ...
ROW 18 : E-1 04 . ... : ... .. . ... : C-4 0C . ... : 8-# 06 F ... : ... .. . F04 : E-0 0D . ... : E-4 09 . ... : B-3 09 . ...
ROW 19 : ... .. . ... : ... .. . ... : ... .. . ... : ... .. . ... : ... .. . F03 : ... .. . ... : ... .. . ... : ... .. . ...
ROW 1A : ... .. . ... : ... .. . ... : ... .. . ... : ... .. . ... : ... .. . F04 : ... .. . ... : C#4 09 . ... : ... .. . ...
ROW 1B : ... .. . ... : ... .. . ... : ... .. . ... : ... .. . ... : ... .. . F03 : ... .. . ... : ... .. . ... : === .. . ...
ROW 1C : === 0A . ... : E-3 0A . ... : ... .. . ... : D-# 07 . ... : ... .. . F04 : === .. . ... : B-3 09 . ... : A-3 09 . ...
ROW 1D : ... .. . ... : ... .. . ... : ... .. . ... : ... .. . ... : ... .. . F03 : ... .. . ... : ... .. . ... : ... .. . ...
ROW 1E : ... .. . ... : ... .. . ... : ... .. . ... : E-# 07 8 ... : ... .. . F04 : ... .. . ... : ... .. . ... : G#3 09 . ...
ROW 1F : ... .. . ... : ... .. . ... : ... .. . ... : ... .. . ... : ... .. . F03 : ... .. . ... : === .. . ... : ... .. . ...
ROW 20 : D-1 04 . ... : ... .. . ... : F-3 0B . ... : A-# 08 F ... : ... .. . F04 : D-0 0D . ... : A-3 09 . ... : A-3 09 . ...
ROW 21 : ... .. . ... : ... .. . ... : ... .. . ... : ... .. . ... : ... .. . F03 : ... .. . ... : ... .. . ... : ... .. . ...
ROW 22 : ... .. . ... : ... .. . ... : ... .. . ... : ... .. . ... : ... .. . F04 : ... .. . ... : G#3 09 . ... : ... .. . ...
ROW 23 : ... .. . ... : ... .. . ... : ... .. . ... : ... .. . ... : ... .. . F03 : ... .. . ... : ... .. . ... : === .. . ...
ROW 24 : === 0A . ... : D-3 0A . ... : ... .. . ... : D-# 07 . ... : ... .. . F04 : === .. . ... : A-3 09 . ... : F#3 09 . ...
ROW 25 : ... .. . ... : ... .. . ... : ... .. . ... : ... .. . ... : ... .. . F03 : ... .. . ... : ... .. . ... : ... .. . ...
ROW 26 : ... .. . ... : ... .. . ... : ... .. . ... : E-# 07 8 ... : ... .. . F04 : ... .. . ... : ... .. . ... : ... .. . ...
ROW 27 : ... .. . ... : ... .. . ... : ... .. . ... : ... .. . ... : ... .. . F03 : ... .. . ... : === .. . ... : === .. . ...
ROW 28 : D-2 04 . ... : ... .. . ... : C-4 0C . ... : 8-# 06 F ... : ... .. . F04 : D-1 0D . ... : F#3 09 . ... : D-3 09 . ...
ROW 29 : ... .. . ... : ... .. . ... : ... .. . ... : ... .. . ... : ... .. . F03 : ... .. . ... : ... .. . ... : ... .. . ...
ROW 2A : ... .. . ... : ... .. . ... : ... .. . ... : ... .. . ... : ... .. . F04 : ... .. . ... : ... .. . ... : ... .. . ...
ROW 2B : ... .. . ... : ... .. . ... : ... .. . ... : ... .. . ... : ... .. . F03 : ... .. . ... : === .. . ... : === .. . ...
ROW 2C : === 0A . ... : D-3 0A . ... : ... .. . ... : D-# 07 . ... : ... .. . F04 : === .. . ... : D-3 09 . ... : A-3 09 . ...
ROW 2D : ... .. . ... : ... .. . ... : ... .. . ... : ... .. . ... : ... .. . F03 : ... .. . ... : ... .. . ... : ... .. . ...
ROW 2E : ... .. . ... : ... .. . ... : ... .. . ... : E-# 07 8 ... : ... .. . F04 : ... .. . ... : ... .. . ... : ... .. . ...
ROW 2F : ... .. . ... : ... .. . ... : ... .. . ... : ... .. . ... : ... .. . F03 : ... .. . ... : === .. . ... : === .. . ...
ROW 30 : E-1 04 . ... : ... .. . ... : F-3 0B . ... : A-# 08 F ... : ... .. . F04 : E-0 0D . ... : A-3 09 . ... : G#3 09 . ...
ROW 31 : ... .. . ... : ... .. . ... : ... .. . ... : ... .. . ... : ... .. . F03 : ... .. . ... : ... .. . ... : ... .. . ...
ROW 32 : ... .. . ... : ... .. . ... : ... .. . ... : ... .. . ... : ... .. . F04 : ... .. . ... : ... .. . ... : ... .. . ...
ROW 33 : ... .. . ... : ... .. . ... : ... .. . ... : ... .. . ... : ... .. . F03 : ... .. . ... : === .. . ... : === .. . ...
ROW 34 : === 0A . ... : A-3 0A . ... : C-4 0C . ... : 8-# 06 . ... : ... .. . F04 : === .. . ... : G#3 09 . ... : A-3 09 . ...
ROW 35 : ... .. . ... : ... .. . ... : ... .. . ... : ... .. . ... : ... .. . F03 : ... .. . ... : ... .. . ... : ... .. . ...
ROW 36 : ... .. . ... : ... .. . ... : ... .. . ... : E-# 07 8 ... : ... .. . F04 : ... .. . ... : ... .. . ... : B-3 09 . ...
ROW 37 : ... .. . ... : ... .. . ... : ... .. . ... : ... .. . ... : ... .. . F03 : ... .. . ... : === .. . ... : ... .. . ...
ROW 38 : E-2 04 . ... : ... .. . ... : C-4 0C . ... : 8-# 06 F ... : ... .. . F04 : E-1 0D . ... : A-3 09 . ... : E-4 09 . ...
ROW 39 : ... .. . ... : ... .. . ... : ... .. . ... : ... .. . ... : ... .. . F03 : ... .. . ... : ... .. . ... : ... .. . ...
ROW 3A : ... .. . ... : ... .. . ... : ... .. . ... : ... .. . ... : ... .. . F04 : ... .. . ... : B-3 09 . ... : ... .. . ...
ROW 3B : ... .. . ... : ... .. . ... : ... .. . ... : ... .. . ... : ... .. . F03 : ... .. . ... : ... .. . ... : ... .. . ...
ROW 3C : === 0A . ... : E-3 0A . ... : ... .. . ... : D-# 07 . ... : ... .. . F04 : === .. . ... : E-4 09 . ... : === .. . ...
ROW 3D : ... .. . ... : ... .. . ... : ... .. . ... : ... .. . ... : ... .. . F03 : ... .. . ... : ... .. . ... : ... .. . ...
ROW 3E : ... .. . ... : ... .. . ... : C-4 0C . ... : 8-# 06 . ... : ... .. . F04 : ... .. . ... : ... .. . ... : ... .. . ...
ROW 3F : ... .. . ... : ... .. . ... : ... .. . ... : ... .. . ... : ... .. . F03 : ... .. . B02 : ... .. . ... : ... .. . ...

TRACK  64   6 150 "Smurfs (GB): Volcano"
COLUMNS : 1 1 1 1 1 1 1 1

ORDER 00 : 00 00 00 00 00 00 00 00
ORDER 01 : 01 01 01 01 01 01 01 01
ORDER 02 : 02 02 02 02 02 02 02 02
ORDER 03 : 01 01 01 01 01 01 01 01
ORDER 04 : 02 02 02 02 02 02 02 02
ORDER 05 : 03 03 03 03 03 03 03 03
ORDER 06 : 04 04 04 04 04 04 04 04
ORDER 07 : 03 03 03 03 03 03 03 03
ORDER 08 : 04 04 04 04 04 04 04 04
ORDER 09 : 05 05 05 05 05 05 05 05
ORDER 0A : 06 06 06 06 06 06 06 06
ORDER 0B : 05 05 05 05 05 05 05 05
ORDER 0C : 06 06 06 06 06 06 06 06
ORDER 0D : 07 07 07 07 07 07 07 07
ORDER 0E : 08 08 08 08 08 08 08 08
ORDER 0F : 07 07 07 07 07 07 07 07
ORDER 10 : 08 08 08 08 08 08 08 08
ORDER 11 : 09 09 09 09 09 09 09 09
ORDER 12 : 0A 0A 0A 0A 0A 0A 0A 0A
ORDER 13 : 09 09 09 09 09 09 09 09
ORDER 14 : 0A 0A 0A 0A 0A 0A 0A 0A
ORDER 15 : 0B 0B 0B 0B 0B 0B 0B 0B
ORDER 16 : 0C 0C 0C 0C 0C 0C 0C 0C
ORDER 17 : 0B 0B 0B 0B 0B 0B 0B 0B
ORDER 18 : 0D 0D 0D 0D 0D 0D 0D 0D

PATTERN 00
ROW 00 : D-1 04 . ... : D-3 11 . ... : F-3 0B . ... : A-# 08 . ... : ... .. . F04 : D-0 0D . ... : A-2 09 . V04 : A-3 09 . ...
ROW 01 : ... .. . ... : ... .. . ... : ... .. . ... : ... .. . ... : ... .. . F03 : ... .. . ... : ... .. . ... : ... .. . ...
ROW 02 : === .. . ... : ... .. . ... : ... .. . ... : ... .. . ... : ... .. . F04 : === .. . ... : === .. . ... : === .. . ...
ROW 03 : ... .. . ... : ... .. . ... : ... .. . ... : ... .. . ... : ... .. . F03 : ... .. . ... : ... .. . ... : ... .. . ...
ROW 04 : ... .. . ... : ... .. . ... : ... .. . ... : D-# 07 . ... : ... .. . F04 : ... .. . ... : ... .. . ... : ... .. . ...
ROW 05 : ... .. . ... : ... .. . ... : ... .. . ... : ... .. . ... : ... .. . F03 : ... .. . ... : ... .. . ... : ... .. . ...
ROW 06 : ... .. . ... : ... .. . ... : ... .. . ... : D-# 07 . ... : ... .. . F04 : ... .. . ... : ... .. . ... : ... .. . ...
ROW 07 : ... .. . ... : ... .. . ... : ... .. . ... : ... .. . ... : ... .. . F03 : ... .. . ... : ... .. . ... : ... .. . ...
ROW 08 : D-1 04 . ... : D#3 11 . ... : F-3 0B . ... : A-# 08 . ... : ... .. . F04 : D-0 0D . ... : ... .. . ... : ... .. . ...
ROW 09 : ... .. . ... : ... .. . ... : ... .. . ... : ... .. . ... : ... .. . F03 : ... .. . ... : ... .. . ... : ... .. . ...
ROW 0A : === .. . ... : ... .. . ... : ... .. . ... : ... .. . ... : ... .. . F04 : === .. . ... : ... .. . ... : ... .. . ...
ROW 0B : ... .. . ... : ... .. . ... : ... .. . ... : ... .. . ... : ... .. . F03 : ... .. . ... : ... .. . ... : ... .. . ...
ROW 0C : ... .. . ... : ... .. . ... : ... .. . ... : D-# 07 . ... : ... .. . F04 : ... .. . ... : A#2 09 . ... : A#3 09 . ...
ROW 0D : ... .. . ... : ... .. . ... : ... .. . ... : ... .. . ... : ... .. . F03 : ... .. . ... : ... .. . ... : ... .. . ...
ROW 0E : ... .. . ... : ... .. . ... : ... .. . ... : D-# 07 . ... : ... .. . F04 : ... .. . ... : === .. . ... : === .. . ...
ROW 0F : ... .. . ... : ... .. . ... : ... .. . ... : ... .. . ... : ... .. . F03 : ... .. . ... : ... .. . ... : ... .. . ...
ROW 10 : D-1 04 . ... : D-3 11 . ... : F-3 0B . ... : A-# 08 . ... : ... .. . F04 : D-0 0D . ... : A-2 09 . ... : A-3 09 . ...
ROW 11 : ... .. . ... : ... .. . ... : ... .. . ... : ... .. . ... : ... .. . F03 : ... .. . ... : ... .. . ... : ... .. . ...
ROW 12 : === .. . ... : ... .. . ... : ... .. . ... : ... .. . ... : ... .. . F04 : === .. . ... : === .. . ... : === .. . ...
ROW 13 : ... .. . ... : ... .. . ... : ... .. . ... : ... .. . ... : ... .. . F03 : ... .. . ... : ... .. . ... : ... .. . ...
ROW 14 : ... .. . ... : ... .. . ... : ... .. . ... : D-# 07 . ... : ... .. . F04 : ... .. . ... : ... .. . ... : ... .. . ...
ROW 15 : ... .. . ... : ... .. . ... : ... .. . ... : ... .. . ... : ... .. . F03 : ... .. . ... : ... .. . ... : ... .. . ...
ROW 16 : ... .. . ... : ... .. . ... : ... .. . ... : D-# 07 . ... : ... .. . F04 : ... .. . ... : ... .. . ... : ... .. . ...
ROW 17 : ... .. . ... : ... .. . ... : ... .. . ... : ... .. . ... : ... .. . F03 : ... .. . ... : ... .. . ... : ... .. . ...
ROW 18 : D-1 04 . ... : D#3 11 . ... : F-3 0B . ... : A-# 08 . ... : ... .. . F04 : D-0 0D . ... : ... .. . ... : ... .. . ...
ROW 19 : ... .. . ... : ... .. . ... : ... .. . ... : ... .. . ... : ... .. . F03 : ... .. . ... : ... .. . ... : ... .. . ...
ROW 1A : === .. . ... : ... .. . ... : ... .. . ... : ... .. . ... : ... .. . F04 : === .. . ... : ... .. . ... : ... .. . ...
ROW 1B : ... .. . ... : ... .. . ... : ... .. . ... : ... .. . ... : ... .. . F03 : ... .. . ... : ... .. . ... : ... .. . ...
ROW 1C : ... .. . ... : ... .. . ... : ... .. . ... : D-# 07 . ... : ... .. . F04 : ... .. . ... : G-2 09 . ... : G-3 09 . ...
ROW 1D : ... .. . ... : ... .. . ... : ... .. . ... : ... .. . ... : ... .. . F03 : ... .. . ... : ... .. . ... : ... .. . ...
ROW 1E : ... .. . ... : ... .. . ... : ... .. . ... : D-# 07 . ... : ... .. . F04 : ... .. . ... : === .. . ... : === .. . ...
ROW 1F : ... .. . ... : ... .. . ... : ... .. . ... : ... .. . ... : ... .. . F03 : ... .. . ... : ... .. . ... : ... .. . ...
ROW 20 : D-1 04 . ... : D-3 11 . ... : F-3 0B . ... : A-# 08 . ... : ... .. . F04 : D-0 0D . ... : A-2 09 . ... : A-3 09 . ...
ROW 21 : ... .. . ... : ... .. . ... : ... .. . ... : ... .. . ... : ... .. . F03 : ... .. . ... : ... .. . ... : ... .. . ...
ROW 22 : === .. . ... : ... .. . ... : ... .. . ... : ... .. . ... : ... .. . F04 : === .. . ... : === .. . ... : === .. . ...
ROW 23 : ... .. . ... : ... .. . ... : ... .. . ... : ... .. . ... : ... .. . F03 : ... .. . ... : ... .. . ... : ... .. . ...
ROW 24 : D-1 04 . ... : D#3 11 . ... : ... .. . ... : D-# 07 . ... : ... .. . F04 : D-0 0D . ... : A#2 09 . ... : A#3 09 . ...
ROW 25 : ... .. . ... : ... .. . ... : ... .. . ... : ... .. . ... : ... .. . F03 : ... .. . ... : ... .. . ... : ... .. . ...
ROW 26 : === .. . ... : ... .. . ... : ... .. . ... : D-# 07 . ... : ... .. . F04 : === .. . ... : === .. . ... : === .. . ...
ROW 27 : ... .. . ... : ... .. . ... : ... .. . ... : ... .. . ... : ... .. . F03 : ... .. . ... : ... .. . ... : ... .. . ...
ROW 28 : D-1 04 . ... : D-3 11 . ... : F-3 0B . ... : A-# 08 . ... : ... .. . F04 : D-0 0D . ... : A-2 09 . ... : A-3 09 . ...
ROW 29 : ... .. . ... : ... .. . ... : ... .. . ... : ... .. . ... : ... .. . F03 : ... .. . ... : ... .. . ... : ... .. . ...
ROW 2A : === .. . ... : ... .. . ... : ... .. . ... : ... .. . ... : ... .. . F04 : === .. . ... : === .. . ... : === .. . ...
ROW 2B : ... .. . ... : ... .. . ... : ... .. . ... : ... .. . ... : ... .. . F03 : ... .. . ... : ... .. . ... : ... .. . ...
ROW 2C : D-1 04 . ... : D#3 11 . ... : ... .. . ... : D-# 07 . ... : ... .. . F04 : D-0 0D . ... : G-2 09 . ... : G-3 09 . ...
ROW 2D : ... .. . ... : ... .. . ... : ... .. . ... : ... .. . ... : ... .. . F03 : ... .. . ... : ... .. . ... : ... .. . ...
ROW 2E : === .. . ... : ... .. . ... : ... .. . ... : D-# 07 . ... : ... .. . F04 : === .. . ... : === .. . ... : === .. . ...
ROW 2F : ... .. . ... : ... .. . ... : ... .. . ... : ... .. . ... : ... .. . F03 : ... .. . ... : ... .. . ... : ... .. . ...
ROW 30 : D-2 04 . ... : G-3 12 . ... : F-3 0B . ... : A-# 08 . ... : ... .. . F04 : D-1 0D . ... : A-2 09 . ... : A-3 09 . ...
ROW 31 : ... .. . ... : ... .. . ... : ... .. . ... : ... .. . ... : ... .. . F03 : ... .. . ... : === .. . ... : === .. . ...
ROW 32 : === .. . ... : ... .. . ... : ... .. . ... : D-# 07 . ... : ... .. . F04 : === .. . ... : A#2 09 . ... : A#3 09 . ...
ROW 33 : ... .. . ... : ... .. . ... : ... .. . ... : ... .. . ... : ... .. . F03 : ... .. . ... : === .. . ... : === .. . ...
ROW 34 : C-2 04 . ... : F-3 11 . ... : C-4 0C . ... : 8-# 06 F ... : ... .. . F04 : C-1 0D . ... : A-2 09 . ... : A-3 09 . ...
ROW 35 : ... .. . ... : ... .. . ... : ... .. . ... : ... .. . ... : ... .. . F03 : ... .. . ... : === .. . ... : === .. . ...
ROW 36 : === .. . ... : ... .. . ... : ... .. . ... : 8-# 06 A ... : ... .. . F04 : === .. . ... : G-2 09 . ... : G-3 09 . ...
ROW 37 : ... .. . ... : ... .. . ... : ... .. . ... : ... .. . ... : ... .. . F03 : ... .. . ... : === .. . ... : === .. . ...
ROW 38 : A#1 04 . ... : D#3 11 . ... : C-4 0C . ... : 8-# 06 F ... : ... .. . F04 : A#0 0D . ... : A-2 09 . ... : A-3 09 . ...
ROW 39 : ... .. . ... : ... .. . ... : ... .. . ... : ... .. . ... : ... .. . F03 : ... .. . ... : === .. . ... : === .. . ...
ROW 3A : === .. . ... : ... .. . ... : ... .. . ... : ... .. . ... : ... .. . F04 : === .. . ... : A#2 09 . ... : A#3 09 . ...
ROW 3B : ... .. . ... : ... .. . ... : ... .. . ... : ... .. . ... : ... .. . F03 : ... .. . ... : === .. . ... : === .. . ...
ROW 3C : A-1 04 . ... : D-3 11 . ... : C-4 0C . ... : 8-# 06 . ... : ... .. . F04 : A-0 0D . ... : C-3 09 . ... : C-4 09 . ...
ROW 3D : ... .. . ... : ... .. . ... : ... .. . ... : ... .. . ... : ... .. . F03 : ... .. . ... : === .. . ... : === .. . ...
ROW 3E : === .. . ... : ... .. . ... : C-4 0C . ... : 8-# 06 . ... : ... .. . F04 : === .. . ... : D-3 09 . ... : D-4 09 . ...
ROW 3F : ... .. . ... : ... .. . ... : ... .. . ... : ... .. . ... : ... .. . F03 : ... .. . ... : === .. . ... : === .. . ...

PATTERN 01
ROW 00 : G-1 04 . ... : ... .. . ... : F-3 0B . ... : A-# 05 . ... : ... .. . F04 : G-0 0D . ... : G-2 09 . V04 : G-3 09 . ...
ROW 01 : ... .. . ... : ... .. . ... : ... .. . ... : ... .. . ... : ... .. . F03 : ... .. . ... : === .. . ... : === .. . ...
ROW 02 : ... .. . ... : ... .. . ... : ... .. . ... : ... .. . ... : ... .. . F04 : ... .. . ... : D-2 09 . ... : D-3 09 . ...
ROW 03 : ... .. . S02 : ... .. . ... : ... .. . ... : ... .. . ... : ... .. . F03 : ... .. . S02 : === .. . ... : === .. . ...
ROW 04 : D-2 04 . ... : G-3 12 . ... : ... .. . ... : ... .. . ... : ... .. . F04 : D-1 0D . ... : C-2 09 . ... : C-3 09 . ...
ROW 05 : ... .. . S02 : ... .. . ... : ... .. . ... : ... .. . ... : ... .. . F03 : ... .. . S02 : === .. . ... : === .. . ...
ROW 06 : G-1 04 . ... : ... .. . ... : ... .. . ... : D-# 07 . ... : ... .. . F04 : G-0 0D . ... : D-2 09 . ... : D-3 09 . ...
ROW 07 : ... .. . S02 : ... .. . ... : ... .. . ... : ... .. . ... : ... .. . F03 : ... .. . S02 : === .. . ... : === .. . ...
ROW 08 : D-1 04 . ... : ... .. . ... : C-4 0C . ... : 8-# 06 . ... : ... .. . F04 : D-0 0D . ... : A#2 09 . ... : A#3 09 . ...
ROW 09 : ... .. . ... : ... .. . ... : ... .. . ... : ... .. . ... : ... .. . F03 : ... .. . ... : === .. . ... : === .. . ...
ROW 0A : ... .. . ... : ... .. . ... : ... .. . ... : ... .. . ... : ... .. . F04 : ... .. . ... : D-2 09 . ... : D-3 09 . ...
ROW 0B : ... .. . S02 : ... .. . ... : ... .. . ... : ... .. . ... : ... .. . F03 : ... .. . S02 : === .. . ... : === .. . ...
ROW 0C : D-2 04 . ... : G-3 12 . ... : ... .. . ... : D-# 07 . ... : ... .. . F04 : D-1 0D . ... : C-2 09 . ... : C-3 09 . ...
ROW 0D : ... .. . S02 : ... .. . ... : ... .. . ... : ... .. . ... : ... .. . F03 : ... .. . S02 : === .. . ... : === .. . ...
ROW 0E : D-1 04 . ... : ... .. . ... : ... .. . ... : D-# 07 . ... : ... .. . F04 : D-0 0D . ... : D-2 09 . ... : D-3 09 . ...
ROW 0F : ... .. . S02 : ... .. . ... : ... .. . ... : ... .. . ... : ... .. . F03 : ... .. . S02 : === .. . ... : === .. . ...
ROW 10 : G-1 04 . ... : ... .. . ... : F-3 0B . ... : A-# 08 . ... : ... .. . F04 : G-0 0D . ... : A-2 09 . ... : A-3 09 . ...
ROW 11 : ... .. . ... : ... .. . ... : ... .. . ... : ... .. . ... : ... .. . F03 : ... .. . ... : === .. . ... : === .. . ...
ROW 12 : ... .. . ... : ... .. . ... : ... .. . ... : ... .. . ... : ... .. . F04 : ... .. . ... : D-2 09 . ... : D-3 09 . ...
ROW 13 : ... .. . S02 : ... .. . ... : ... .. . ... : ... .. . ... : ... .. . F03 : ... .. . S02 : === .. . ... : === .. . ...
ROW 14 : D-2 04 . ... : G-3 12 . ... : ... .. . ... : D-# 07 . ... : ... .. . F04 : D-1 0D . ... : C-2 09 . ... : C-3 09 . ...
ROW 15 : ... .. . S02 : ... .. . ... : ... .. . ... : ... .. . ... : ... .. . F03 : ... .. . S02 : === .. . ... : === .. . ...
ROW 16 : G-1 04 . ... : ... .. . ... : ... .. . ... : D-# 07 . ... : ... .. . F04 : G-0 0D . ... : D-2 09 . ... : D-3 09 . ...
ROW 17 : ... .. . S02 : ... .. . ... : ... .. . ... : ... .. . ... : ... .. . F03 : ... .. . S02 : === .. . ... : === .. . ...
ROW 18 : D-1 04 . ... : ... .. . ... : C-4 0C . ... : 8-# 06 . ... : ... .. . F04 : D-0 0D . ... : G-2 09 . ... : G-3 09 . ...
ROW 19 : ... .. . ... : ... .. . ... : ... .. . ... : ... .. . ... : ... .. . F03 : ... .. . ... : === .. . ... : === .. . ...
ROW 1A : ... .. . ... : ... .. . ... : ... .. . ... : ... .. . ... : ... .. . F04 : ... .. . ... : D-2 09 . ... : D-3 09 . ...
ROW 1B : ... .. . S02 : ... .. . ... : ... .. . ... : ... .. . ... : ... .. . F03 : ... .. . S02 : === .. . ... : === .. . ...
ROW 1C : D-2 04 . ... : G-3 12 . ... : ... .. . ... : D-# 07 . ... : ... .. . F04 : D-1 0D . ... : C-2 09 . ... : C-3 09 . ...
ROW 1D : ... .. . S02 : ... .. . ... : ... .. . ... : ... .. . ... : ... .. . F03 : ... .. . S02 : === .. . ... : === .. . ...
ROW 1E : D-1 04 . ... : ... .. . ... : ... .. . ... : D-# 07 . ... : ... .. . F04 : D-0 0D . ... : D-2 09 . ... : D-3 09 . ...
ROW 1F : ... .. . S02 : ... .. . ... : ... .. . ... : ... .. . ... : ... .. . F03 : ... .. . S02 : === .. . ... : === .. . ...
ROW 20 : G-1 04 . ... : ... .. . ... : F-3 0B . ... : A-# 08 . ... : ... .. . F04 : G-0 0D . ... : G-2 09 . ... : G-3 09 . ...
ROW 21 : ... .. . ... : ... .. . ... : ... .. . ... : ... .. . ... : ... .. . F03 : ... .. . ... : === .. . ... : === .. . ...
ROW 22 : ... .. . ... : ... .. . ... : ... .. . ... : ... .. . ... : ... .. . F04 : ... .. . ... : D-2 09 . ... : D-3 09 . ...
ROW 23 : ... .. . S02 : ... .. . ... : ... .. . ... : ... .. . ... : ... .. . F03 : ... .. . S02 : === .. . ... : === .. . ...
ROW 24 : A-1 04 . ... : G-3 12 . ... : ... .. . ... : D-# 07 . ... : ... .. . F04 : A-0 0D . ... : A-2 09 . ... : A-3 09 . ...
ROW 25 : ... .. . ... : ... .. . ... : ... .. . ... : ... .. . ... : ... .. . F03 : ... .. . ... : === .. . ... : === .. . ...
ROW 26 : ... .. . ... : ... .. . ... : ... .. . ... : D-# 07 . ... : ... .. . F04 : ... .. . ... : D-2 09 . ... : D-3 09 . ...
ROW 27 : ... .. . S02 : ... .. . ... : ... .. . ... : ... .. . ... : ... .. . F03 : ... .. . S02 : === .. . ... : === .. . ...
ROW 28 : A#1 04 . ... : ... .. . ... : C-4 0C . ... : 8-# 06 . ... : ... .. . F04 : A#0 0D . ... : A#2 09 . ... : A#3 09 . ...
ROW 29 : ... .. . ... : ... .. . ... : ... .. . ... : ... .. . ... : ... .. . F03 : ... .. . ... : === .. . ... : === .. . ...
ROW 2A : ... .. . ... : ... .. . ... : ... .. . ... : ... .. . ... : ... .. . F04 : ... .. . ... : D-2 09 . ... : D-3 09 . ...
ROW 2B : ... .. . S02 : ... .. . ... : ... .. . ... : ... .. . ... : ... .. . F03 : ... .. . S02 : === .. . ... : === .. . ...
ROW 2C : C-2 04 . ... : G-3 12 . ... : ... .. . ... : D-# 07 . ... : ... .. . F04 : C-1 0D . ... : C-3 09 . ... : C-4 09 . ...
ROW 2D : ... .. . ... : ... .. . ... : ... .. . ... : ... .. . ... : ... .. . F03 : ... .. . ... : === .. . ... : === .. . ...
ROW 2E : ... .. . ... : ... .. . ... : ... .. . ... : D-# 07 . ... : ... .. . F04 : ... .. . ... : D-2 09 . ... : D-3 09 . ...
ROW 2F : ... .. . S02 : ... .. . ... : ... .. . ... : ... .. . ... : ... .. . F03 : ... .. . S02 : === .. . ... : === .. . ...
ROW 30 : D-2 04 . ... : ... .. . ... : F-3 0B . ... : A-# 08 . ... : ... .. . F04 : D-1 0D . ... : C-3 09 . ... : C-4 09 . ...
ROW 31 : ... .. . S02 : ... .. . ... : ... .. . ... : ... .. . ... : ... .. . F03 : ... .. . S02 : === .. . ... : === .. . ...
ROW 32 : D#2 04 . ... : ... .. . ... : ... .. . ... : ... .. . ... : ... .. . F04 : D#1 0D . ... : D-3 09 . ... : D-4 09 . ...
ROW 33 : ... .. . S02 : ... .. . ... : ... .. . ... : ... .. . ... : ... .. . F03 : ... .. . S02 : === .. . ... : === .. . ...
ROW 34 : D-2 04 . ... : D-3 11 . ... : ... .. . ... : D-# 07 . ... : ... .. . F04 : D-1 0D . ... : A-2 09 . ... : A-3 09 . ...
ROW 35 : ... .. . S02 : ... .. . ... : ... .. . ... : ... .. . ... : ... .. . F03 : ... .. . S02 : === .. . ... : === .. . ...
ROW 36 : C-2 04 . ... : ... .. . ... : ... .. . ... : D-# 07 . ... : ... .. . F04 : C-1 0D . ... : C-3 09 . ... : C-4 09 . ...
ROW 37 : ... .. . S02 : ... .. . ... : ... .. . ... : ... .. . ... : ... .. . F03 : ... .. . S02 : === .. . ... : === .. . ...
ROW 38 : D-2 04 . ... : D-3 11 . ... : C-4 0C . ... : 8-# 06 . ... : ... .. . F04 : D-1 0D . ... : F#2 09 . ... : F#3 09 . ...
ROW 39 : ... .. . S02 : ... .. . ... : ... .. . ... : ... .. . ... : ... .. . F03 : ... .. . S02 : === .. . ... : === .. . ...
ROW 3A : C-2 04 . ... : ... .. . ... : ... .. . ... : ... .. . ... : ... .. . F04 : C-1 0D . ... : A-2 09 . ... : A-3 09 . ...
ROW 3B : ... .. . S02 : ... .. . ... : ... .. . ... : ... .. . ... : ... .. . F03 : ... .. . S02 : === .. . ... : === .. . ...
ROW 3C : A#1 04 . ... : ... .. . ... : ... .. . ... : D-# 07 . ... : ... .. . F04 : A#0 0D . ... : D-2 09 . ... : D-3 09 . ...
ROW 3D : ... .. . S02 : ... .. . ... : ... .. . ... : ... .. . ... : ... .. . F03 : ... .. . S02 : === .. . ... : === .. . ...
ROW 3E : A-1 04 . ... : ... .. . ... : C-4 0C . ... : 8-# 06 . ... : ... .. . F04 : A-0 0D . ... : F#2 09 . ... : F#3 09 . ...
ROW 3F : ... .. . S02 : ... .. . ... : ... .. . ... : ... .. . ... : ... .. . F03 : ... .. . S02 : === .. . ... : === .. . ...

PATTERN 02
ROW 00 : G-1 04 . ... : ... .. . ... : F-3 0B . ... : A-# 08 . ... : ... .. . F04 : G-0 0D . ... : G-2 09 . V04 : G-3 09 . ...
ROW 01 : ... .. . ... : ... .. . ... : ... .. . ... : ... .. . ... : ... .. . F03 : ... .. . ... : === .. . ... : === .. . ...
ROW 02 : ... .. . ... : ... .. . ... : ... .. . ... : ... .. . ... : ... .. . F04 : ... .. . ... : D-2 09 . ... : D-3 09 . ...
ROW 03 : ... .. . S02 : ... .. . ... : ... .. . ... : ... .. . ... : ... .. . F03 : ... .. . S02 : === .. . ... : === .. . ...
ROW 04 : D-2 04 . ... : G-3 12 . ... : ... .. . ... : D-# 07 . ... : ... .. . F04 : D-1 0D . ... : C-2 09 . ... : C-3 09 . ...
ROW 05 : ... .. . S02 : ... .. . ... : ... .. . ... : ... .. . ... : ... .. . F03 : ... .. . S02 : === .. . ... : === .. . ...
ROW 06 : G-1 04 . ... : ... .. . ... : ... .. . ... : D-# 07 . ... : ... .. . F04 : G-0 0D . ... : D-2 09 . ... : D-3 09 . ...
ROW 07 : ... .. . S02 : ... .. . ... : ... .. . ... : ... .. . ... : ... .. . F03 : ... .. . S02 : === .. . ... : === .. . ...
ROW 08 : D-1 04 . ... : ... .. . ... : C-4 0C . ... : 8-# 06 . ... : ... .. . F04 : D-0 0D . ... : A#2 09 . ... : A#3 09 . ...
ROW 09 : ... .. . ... : ... .. . ... : ... .. . ... : ... .. . ... : ... .. . F03 : ... .. . ... : === .. . ... : === .. . ...
ROW 0A : ... .. . ... : ... .. . ... : ... .. . ... : ... .. . ... : ... .. . F04 : ... .. . ... : D-2 09 . ... : D-3 09 . ...
ROW 0B : ... .. . S02 : ... .. . ... : ... .. . ... : ... .. . ... : ... .. . F03 : ... .. . S02 : === .. . ... : === .. . ...
ROW 0C : D-2 04 . ... : G-3 12 . ... : ... .. . ... : D-# 07 . ... : ... .. . F04 : D-1 0D . ... : C-2 09 . ... : C-3 09 . ...
ROW 0D : ... .. . S02 : ... .. . ... : ... .. . ... : ... .. . ... : ... .. . F03 : ... .. . S02 : === .. . ... : === .. . ...
ROW 0E : D-1 04 . ... : ... .. . ... : ... .. . ... : D-# 07 . ... : ... .. . F04 : D-0 0D . ... : D-2 09 . ... : D-3 09 . ...
ROW 0F : ... .. . S02 : ... .. . ... : ... .. . ... : ... .. . ... : ... .. . F03 : ... .. . S02 : === .. . ... : === .. . ...
ROW 10 : G-1 04 . ... : ... .. . ... : F-3 0B . ... : A-# 08 . ... : ... .. . F04 : G-0 0D . ... : A-2 09 . ... : A-3 09 . ...
ROW 11 : ... .. . ... : ... .. . ... : ... .. . ... : ... .. . ... : ... .. . F03 : ... .. . ... : === .. . ... : === .. . ...
ROW 12 : ... .. . ... : ... .. . ... : ... .. . ... : ... .. . ... : ... .. . F04 : ... .. . ... : D-2 09 . ... : D-3 09 . ...
ROW 13 : ... .. . S02 : ... .. . ... : ... .. . ... : ... .. . ... : ... .. . F03 : ... .. . S02 : === .. . ... : === .. . ...
ROW 14 : D-2 04 . ... : G-3 12 . ... : ... .. . ... : D-# 07 . ... : ... .. . F04 : D-1 0D . ... : C-2 09 . ... : C-3 09 . ...
ROW 15 : ... .. . S02 : ... .. . ... : ... .. . ... : ... .. . ... : ... .. . F03 : ... .. . S02 : === .. . ... : === .. . ...
ROW 16 : G-1 04 . ... : ... .. . ... : ... .. . ... : D-# 07 . ... : ... .. . F04 : G-0 0D . ... : D-2 09 . ... : D-3 09 . ...
ROW 17 : ... .. . S02 : ... .. . ... : ... .. . ... : ... .. . ... : ... .. . F03 : ... .. . S02 : === .. . ... : === .. . ...
ROW 18 : D-1 04 . ... : ... .. . ... : C-4 0C . ... : 8-# 06 . ... : ... .. . F04 : D-0 0D . ... : G-2 09 . ... : G-3 09 . ...
ROW 19 : ... .. . ... : ... .. . ... : ... .. . ... : ... .. . ... : ... .. . F03 : ... .. . ... : === .. . ... : === .. . ...
ROW 1A : ... .. . ... : ... .. . ... : ... .. . ... : ... .. . ... : ... .. . F04 : ... .. . ... : D-2 09 . ... : D-3 09 . ...
ROW 1B : ... .. . S02 : ... .. . ... : ... .. . ... : ... .. . ... : ... .. . F03 : ... .. . S02 : === .. . ... : === .. . ...
ROW 1C : D-2 04 . ... : G-3 12 . ... : ... .. . ... : D-# 07 . ... : ... .. . F04 : D-1 0D . ... : C-2 09 . ... : C-3 09 . ...
ROW 1D : ... .. . S02 : ... .. . ... : ... .. . ... : ... .. . ... : ... .. . F03 : ... .. . S02 : === .. . ... : === .. . ...
ROW 1E : D-1 04 . ... : ... .. . ... : ... .. . ... : D-# 07 . ... : ... .. . F04 : D-0 0D . ... : D-2 09 . ... : D-3 09 . ...
ROW 1F : ... .. . S02 : ... .. . ... : ... .. . ... : ... .. . ... : ... .. . F03 : ... .. . S02 : === .. . ... : === .. . ...
ROW 20 : G-1 04 . ... : G-3 12 . ... : F-3 0B . ... : A-# 08 . ... : ... .. . F04 : G-0 0D . ... : D-3 09 . ... : D-4 09 . ...
ROW 21 : ... .. . ... : ... .. . ... : ... .. . ... : ... .. . ... : ... .. . F03 : ... .. . ... : === .. . ... : === .. . ...
ROW 22 : ... .. . ... : ... .. . ... : ... .. . ... : ... .. . ... : ... .. . F04 : ... .. . ... : D#3 09 . ... : D#4 09 . ...
ROW 23 : ... .. . S02 : ... .. . ... : ... .. . ... : ... .. . ... : ... .. . F03 : ... .. . S02 : === .. . ... : === .. . ...
ROW 24 : F#1 04 . ... : F#3 12 . ... : ... .. . ... : D-# 07 . ... : ... .. . F04 : F#0 0D . ... : D-3 09 . ... : D-4 09 . ...
ROW 25 : ... .. . ... : ... .. . ... : ... .. . ... : ... .. . ... : ... .. . F03 : ... .. . ... : === .. . ... : === .. . ...
ROW 26 : ... .. . ... : ... .. . ... : ... .. . ... : D-# 07 . ... : ... .. . F04 : ... .. . ... : C-3 09 . ... : C-4 09 . ...
ROW 27 : ... .. . S02 : ... .. . ... : ... .. . ... : ... .. . ... : ... .. . F03 : ... .. . S02 : === .. . ... : === .. . ...
ROW 28 : F-1 04 . ... : F-3 12 . ... : C-4 0C . ... : 8-# 06 . ... : ... .. . F04 : F-0 0D . ... : D-3 09 . ... : D-4 09 . ...
ROW 29 : ... .. . ... : ... .. . ... : ... .. . ... : ... .. . ... : ... .. . F03 : ... .. . ... : === .. . ... : === .. . ...
ROW 2A : ... .. . ... : ... .. . ... : ... .. . ... : ... .. . ... : ... .. . F04 : ... .. . ... : C-3 09 . ... : C-4 09 . ...
ROW 2B : ... .. . S02 : ... .. . ... : ... .. . ... : ... .. . ... : ... .. . F03 : ... .. . S02 : === .. . ... : === .. . ...
ROW 2C : E-1 04 . ... : E-3 12 . ... : ... .. . ... : D-# 07 . ... : ... .. . F04 : E-0 0D . ... : A#2 09 . ... : A#3 09 . ...
ROW 2D : ... .. . ... : ... .. . ... : ... .. . ... : ... .. . ... : ... .. . F03 : ... .. . ... : === .. . ... : === .. . ...
ROW 2E : ... .. . ... : ... .. . ... : C-4 0C . ... : 8-# 06 . ... : ... .. . F04 : ... .. . ... : A-2 09 . ... : A-3 09 . ...
ROW 2F : ... .. . S02 : ... .. . ... : ... .. . ... : ... .. . ... : ... .. . F03 : ... .. . S02 : === .. . ... : === .. . ...
ROW 30 : D#1 04 . ... : D#3 11 . ... : F-3 0B . ... : A-# 08 . ... : ... .. . F04 : D#0 0D . ... : A#2 09 . ... : A#3 09 . ...
ROW 31 : ... .. . ... : ... .. . ... : ... .. . ... : ... .. . ... : ... .. . F03 : ... .. . ... : === .. . ... : === .. . ...
ROW 32 : ... .. . ... : ... .. . ... : ... .. . ... : ... .. . ... : ... .. . F04 : ... .. . ... : A-2 09 . ... : A-3 09 . ...
ROW 33 : ... .. . S02 : ... .. . ... : ... .. . ... : ... .. . ... : ... .. . F03 : ... .. . S02 : === .. . ... : === .. . ...
ROW 34 : A#1 04 . ... : ... .. . ... : C-4 0C . ... : 8-# 06 . ... : ... .. . F04 : A#0 0D . ... : G-2 09 . ... : G-3 09 . ...
ROW 35 : ... .. . S02 : ... .. . ... : ... .. . ... : ... .. . ... : ... .. . F03 : ... .. . S02 : === .. . ... : === .. . ...
ROW 36 : D#1 04 . ... : ... .. . ... : ... .. . ... : ... .. . ... : ... .. . F04 : D#0 0D . ... : A#2 09 . ... : A#3 09 . ...
ROW 37 : ... .. . S02 : ... .. . ... : ... .. . ... : ... .. . ... : ... .. . F03 : ... .. . S02 : === .. . ... : === .. . ...
ROW 38 : D-1 04 . ... : D-3 11 . ... : C-4 0C . ... : 8-# 06 . ... : ... .. . F04 : D-0 0D . ... : A-2 09 . ... : A-3 09 . ...
ROW 39 : ... .. . ... : ... .. . ... : ... .. . ... : ... .. . ... : ... .. . F03 : ... .. . ... : === .. . ... : === .. . ...
ROW 3A : ... .. . ... : ... .. . ... : ... .. . ... : ... .. . ... : ... .. . F04 : ... .. . ... : G-2 09 . ... : G-3 09 . ...
ROW 3B : ... .. . S02 : ... .. . ... : ... .. . ... : ... .. . ... : ... .. . F03 : ... .. . S02 : === .. . ... : === .. . ...
ROW 3C : A-1 04 . ... : ... .. . ... : C-4 0C . ... : 8-# 06 . ... : ... .. . F04 : A-0 0D . ... : F#2 09 . ... : F#3 09 . ...
ROW 3D : ... .. . S02 : ... .. . ... : ... .. . ... : ... .. . ... : ... .. . F03 : ... .. . S02 : === .. . ... : === .. . ...
ROW 3E : D-1 04 . ... : ... .. . ... : C-4 0C . ... : 8-# 06 . ... : ... .. . F04 : D-0 0D . ... : A-2 09 . ... : A-3 09 . ...
ROW 3F : ... .. . S02 : ... .. . ... : ... .. . ... : ... .. . ... : ... .. . F03 : ... .. . S02 : === .. . ... : === .. . ...

PATTERN 03
ROW 00 : G-1 04 . ... : G-3 11 . ... : F-3 0B . ... : A-# 05 . ... : ... .. . F04 : G-0 0D . ... : B-2 09 . V04 : B-3 09 . ...
ROW 01 : ... .. . ... : ... .. . ... : ... .. . ... : ... .. . ... : ... .. . F03 : ... .. . ... : ... .. . ... : ... .. . ...
ROW 02 : ... .. . ... : ... .. . ... : ... .. . ... : ... .. . ... : ... .. . F04 : ... .. . ... : === 09 . ... : === 09 . ...
ROW 03 : ... .. . S02 : ... .. . ... : ... .. . ... : ... .. . ... : ... .. . F03 : ... .. . S02 : ... .. . ... : ... .. . ...
ROW 04 : G-2 04 . ... : G-3 11 . ... : ... .. . ... : ... .. . ... : ... .. . F04 : G-1 0D . ... : G-2 09 . ... : G-3 09 . ...
ROW 05 : ... .. . S02 : ... .. . ... : ... .. . ... : ... .. . ... : ... .. . F03 : ... .. . S02 : === .. . ... : === .. . ...
ROW 06 : D-2 04 . ... : ... .. . ... : ... .. . ... : D-# 07 . ... : ... .. . F04 : D-1 0D . ... : A-2 09 . ... : A-3 09 . ...
ROW 07 : ... .. . S02 : ... .. . ... : ... .. . ... : ... .. . ... : ... .. . F03 : ... .. . S02 : === .. . ... : === .. . ...
ROW 08 : G-1 04 . ... : G-3 11 . ... : C-4 0C . ... : 8-# 06 . ... : ... .. . F04 : G-0 0D . ... : B-2 09 . ... : B-3 09 . ...
ROW 09 : ... .. . ... : ... .. . ... : ... .. . ... : ... .. . ... : ... .. . F03 : ... .. . ... : === .. . ... : === .. . ...
ROW 0A : ... .. . ... : ... .. . ... : ... .. . ... : ... .. . ... : ... .. . F04 : ... .. . ... : B-2 09 . ... : B-3 09 . ...
ROW 0B : ... .. . S02 : ... .. . ... : ... .. . ... : ... .. . ... : ... .. . F03 : ... .. . S02 : === .. . ... : === .. . ...
ROW 0C : G-2 04 . ... : G-3 11 . ... : ... .. . ... : D-# 07 . ... : ... .. . F04 : G-1 0D . ... : C-3 09 . ... : C-4 09 . ...
ROW 0D : ... .. . S02 : ... .. . ... : ... .. . ... : ... .. . ... : ... .. . F03 : ... .. . S02 : === .. . ... : === .. . ...
ROW 0E : D-2 04 . ... : ... .. . ... : ... .. . ... : D-# 07 . ... : ... .. . F04 : D-1 0D . ... : D-3 09 . ... : D-4 09 . ...
ROW 0F : ... .. . S02 : ... .. . ... : ... .. . ... : ... .. . ... : ... .. . F03 : ... .. . S02 : === .. . ... : === .. . ...
ROW 10 : C-2 04 . ... : C-4 12 . ... : F-3 0B . ... : A-# 08 . ... : ... .. . F04 : C-1 0D . ... : D#3 09 . ... : D#4 09 . ...
ROW 11 : ... .. . ... : ... .. . ... : ... .. . ... : ... .. . ... : ... .. . F03 : ... .. . ... : ... .. . ... : ... .. . ...
ROW 12 : ... .. . ... : ... .. . ... : ... .. . ... : ... .. . ... : ... .. . F04 : ... .. . ... : === .. . ... : === .. . ...
ROW 13 : ... .. . S02 : ... .. . ... : ... .. . ... : ... .. . ... : ... .. . F03 : ... .. . S02 : ... .. . ... : ... .. . ...
ROW 14 : C-3 04 . ... : C-4 12 . ... : ... .. . ... : D-# 07 . ... : ... .. . F04 : C-2 0D . ... : D#3 09 . ... : D#4 09 . ...
ROW 15 : ... .. . S02 : ... .. . ... : ... .. . ... : ... .. . ... : ... .. . F03 : ... .. . S02 : === .. . ... : === .. . ...
ROW 16 : G-2 04 . ... : ... .. . ... : ... .. . ... : D-# 07 . ... : ... .. . F04 : G-1 0D . ... : D-3 09 . ... : D-4 09 . ...
ROW 17 : ... .. . S02 : ... .. . ... : ... .. . ... : ... .. . ... : ... .. . F03 : ... .. . S02 : === .. . ... : === .. . ...
ROW 18 : C-2 04 . ... : C-4 12 . ... : C-4 0C . ... : 8-# 06 . ... : ... .. . F04 : C-1 0D . ... : C-3 09 . ... : C-4 09 . ...
ROW 19 : ... .. . ... : ... .. . ... : ... .. . ... : ... .. . ... : ... .. . F03 : ... .. . ... : === .. . ... : === .. . ...
ROW 1A : ... .. . ... : ... .. . ... : ... .. . ... : ... .. . ... : ... .. . F04 : ... .. . ... : D-3 09 . ... : D-4 09 . ...
ROW 1B : ... .. . S02 : ... .. . ... : ... .. . ... : ... .. . ... : ... .. . F03 : ... .. . S02 : === .. . ... : === .. . ...
ROW 1C : C-3 04 . ... : C-4 12 . ... : ... .. . ... : D-# 07 . ... : ... .. . F04 : C-2 0D . ... : C-3 09 . ... : C-4 09 . ...
ROW 1D : ... .. . S02 : ... .. . ... : ... .. . ... : ... .. . ... : ... .. . F03 : ... .. . S02 : === .. . ... : === .. . ...
ROW 1E : G-2 04 . ... : ... .. . ... : ... .. . ... : D-# 07 . ... : ... .. . F04 : G-1 0D . ... : A#2 09 . ... : A#3 09 . ...
ROW 1F : ... .. . S02 : ... .. . ... : ... .. . ... : ... .. . ... : ... .. . F03 : ... .. . S02 : === .. . ... : === .. . ...
ROW 20 : F-1 04 . ... : F-3 11 . ... : F-3 0B . ... : A-# 08 . ... : ... .. . F04 : F-0 0D . ... : A-2 09 . ... : A-3 09 . ...
ROW 21 : ... .. . ... : ... .. . ... : ... .. . ... : ... .. . ... : ... .. . F03 : ... .. . ... : ... .. . ... : ... .. . ...
ROW 22 : ... .. . ... : ... .. . ... : ... .. . ... : ... .. . ... : ... .. . F04 : ... .. . ... : === 09 . ... : === 09 . ...
ROW 23 : ... .. . S02 : ... .. . ... : ... .. . ... : ... .. . ... : ... .. . F03 : ... .. . S02 : ... .. . ... : ... .. . ...
ROW 24 : F-2 04 . ... : F-3 11 . ... : ... .. . ... : D-# 07 . ... : ... .. . F04 : F-1 0D . ... : F-2 09 . ... : F-3 09 . ...
ROW 25 : ... .. . S02 : ... .. . ... : ... .. . ... : ... .. . ... : ... .. . F03 : ... .. . S02 : === .. . ... : === .. . ...
ROW 26 : C-2 04 . ... : ... .. . ... : ... .. . ... : D-# 07 . ... : ... .. . F04 : C-1 0D . ... : G-2 09 . ... : G-3 09 . ...
ROW 27 : ... .. . S02 : ... .. . ... : ... .. . ... : ... .. . ... : ... .. . F03 : ... .. . S02 : === .. . ... : === .. . ...
ROW 28 : F-1 04 . ... : F-3 11 . ... : C-4 0C . ... : 8-# 06 . ... : ... .. . F04 : F-0 0D . ... : A-2 09 . ... : A-3 09 . ...
ROW 29 : ... .. . ... : ... .. . ... : ... .. . ... : ... .. . ... : ... .. . F03 : ... .. . ... : === .. . ... : === .. . ...
ROW 2A : ... .. . ... : ... .. . ... : ... .. . ... : ... .. . ... : ... .. . F04 : ... .. . ... : A-2 09 . ... : A-3 09 . ...
ROW 2B : ... .. . ... : ... .. . ... : ... .. . ... : ... .. . ... : ... .. . F03 : ... .. . ... : === .. . ... : === .. . ...
ROW 2C : F-2 04 . ... : F-3 11 . ... : ... .. . ... : D-# 07 . ... : ... .. . F04 : F-1 0D . ... : A#2 09 . ... : A#3 09 . ...
ROW 2D : ... .. . S02 : ... .. . ... : ... .. . ... : ... .. . ... : ... .. . F03 : ... .. . S02 : === .. . ... : === .. . ...
ROW 2E : C-2 04 . ... : ... .. . ... : ... .. . ... : D-# 07 . ... : ... .. . F04 : C-1 0D . ... : C-3 09 . ... : C-4 09 . ...
ROW 2F : ... .. . S02 : ... .. . ... : ... .. . ... : ... .. . ... : ... .. . F03 : ... .. . S02 : === .. . ... : === .. . ...
ROW 30 : A#1 04 . ... : A#3 11 . ... : F-3 0B . ... : A-# 08 . ... : ... .. . F04 : A#0 0D . ... : D-3 09 . ... : D-4 09 . ...
ROW 31 : ... .. . ... : ... .. . ... : ... .. . ... : ... .. . ... : ... .. . F03 : ... .. . ... : ... .. . ... : ... .. . ...
ROW 32 : ... .. . ... : ... .. . ... : ... .. . ... : ... .. . ... : ... .. . F04 : ... .. . ... : === .. . ... : === .. . ...
ROW 33 : ... .. . S02 : ... .. . ... : ... .. . ... : ... .. . ... : ... .. . F03 : ... .. . S02 : ... .. . ... : ... .. . ...
ROW 34 : A#2 04 . ... : A#3 11 . ... : ... .. . ... : D-# 07 . ... : ... .. . F04 : A#1 0D . ... : D-3 09 . ... : D-4 09 . ...
ROW 35 : ... .. . S02 : ... .. . ... : ... .. . ... : ... .. . ... : ... .. . F03 : ... .. . S02 : === .. . ... : === .. . ...
ROW 36 : F-2 04 . ... : ... .. . ... : ... .. . ... : D-# 07 . ... : ... .. . F04 : F-1 0D . ... : C-3 09 . ... : C-4 09 . ...
ROW 37 : ... .. . S02 : ... .. . ... : ... .. . ... : ... .. . ... : ... .. . F03 : ... .. . S02 : === .. . ... : === .. . ...
ROW 38 : A#1 04 . ... : A#3 11 . ... : C-4 0C . ... : 8-# 06 . ... : ... .. . F04 : A#0 0D . ... : A#2 09 . ... : A#3 09 . ...
ROW 39 : ... .. . ... : ... .. . ... : ... .. . ... : ... .. . ... : ... .. . F03 : ... .. . ... : === .. . ... : === .. . ...
ROW 3A : ... .. . ... : ... .. . ... : ... .. . ... : ... .. . ... : ... .. . F04 : ... .. . ... : C-3 09 . ... : C-4 09 . ...
ROW 3B : ... .. . ... : ... .. . ... : ... .. . ... : ... .. . ... : ... .. . F03 : ... .. . ... : === .. . ... : === .. . ...
ROW 3C : A#2 04 . ... : A#3 11 . ... : ... .. . ... : D-# 07 . ... : ... .. . F04 : A#1 0D . ... : A#2 09 . ... : A#3 09 . ...
ROW 3D : ... .. . S02 : ... .. . ... : ... .. . ... : ... .. . ... : ... .. . F03 : ... .. . S02 : === .. . ... : === .. . ...
ROW 3E : F-2 04 . ... : ... .. . ... : C-4 0C . ... : 8-# 06 . ... : ... .. . F04 : F-1 0D . ... : A-2 09 . ... : A-3 09 . ...
ROW 3F : ... .. . S02 : ... .. . ... : ... .. . ... : ... .. . ... : ... .. . F03 : ... .. . S02 : === .. . ... : === .. . ...

PATTERN 04
ROW 00 : D#1 04 . ... : D#3 11 . ... : F-3 0B . ... : A-# 08 . ... : ... .. . F04 : D#0 0D . ... : G-2 09 . V04 : G-3 09 . ...
ROW 01 : ... .. . ... : ... .. . ... : ... .. . ... : ... .. . ... : ... .. . F03 : ... .. . ... : ... .. . ... : ... .. . ...
ROW 02 : ... .. . ... : ... .. . ... : ... .. . ... : ... .. . ... : ... .. . F04 : ... .. . ... : === .. . ... : === .. . ...
ROW 03 : ... .. . S02 : ... .. . ... : ... .. . ... : ... .. . ... : ... .. . F03 : ... .. . S02 : ... .. . ... : ... .. . ...
ROW 04 : D#2 04 . ... : D#3 11 . ... : ... .. . ... : D-# 07 . ... : ... .. . F04 : D#1 0D . ... : A#2 09 . ... : A#3 09 . ...
ROW 05 : ... .. . S02 : ... .. . ... : ... .. . ... : ... .. . ... : ... .. . F03 : ... .. . S02 : === .. . ... : === .. . ...
ROW 06 : A#1 04 . ... : ... .. . ... : ... .. . ... : D-# 07 . ... : ... .. . F04 : A#0 0D . ... : A-2 09 . ... : A-3 09 . ...
ROW 07 : ... .. . S02 : ... .. . ... : ... .. . ... : ... .. . ... : ... .. . F03 : ... .. . S02 : === .. . ... : === .. . ...
ROW 08 : D#1 04 . ... : D#3 11 . ... : C-4 0C . ... : 8-# 06 . ... : ... .. . F04 : D#0 0D . ... : G-2 09 . ... : G-3 09 . ...
ROW 09 : ... .. . ... : ... .. . ... : ... .. . ... : ... .. . ... : ... .. . F03 : ... .. . ... : ... .. . ... : ... .. . ...
ROW 0A : ... .. . ... : ... .. . ... : ... .. . ... : ... .. . ... : ... .. . F04 : ... .. . ... : === .. . ... : === .. . ...
ROW 0B : ... .. . S02 : ... .. . ... : ... .. . ... : ... .. . ... : ... .. . F03 : ... .. . S02 : ... .. . ... : ... .. . ...
ROW 0C : D#2 04 . ... : D#3 11 . ... : ... .. . ... : D-# 07 . ... : ... .. . F04 : D#1 0D . ... : G-2 09 . ... : G-3 09 . ...
ROW 0D : ... .. . S02 : ... .. . ... : ... .. . ... : ... .. . ... : ... .. . F03 : ... .. . S02 : === .. . ... : === .. . ...
ROW 0E : A#1 04 . ... : ... .. . ... : ... .. . ... : D-# 07 . ... : ... .. . F04 : A#0 0D . ... : F-2 09 . ... : F-3 09 . ...
ROW 0F : ... .. . S02 : ... .. . ... : ... .. . ... : ... .. . ... : ... .. . F03 : ... .. . S02 : === .. . ... : === .. . ...
ROW 10 : C-1 04 . ... : C-3 12 . ... : F-3 0B . ... : A-# 08 . ... : ... .. . F04 : C-0 0D . ... : D#2 09 . ... : D#3 09 . ...
ROW 11 : ... .. . ... : ... .. . ... : ... .. . ... : ... .. . ... : ... .. . F03 : ... .. . ... : ... .. . ... : ... .. . ...
ROW 12 : ... .. . ... : ... .. . ... : ... .. . ... : ... .. . ... : ... .. . F04 : ... .. . ... : === .. . ... : === .. . ...
ROW 13 : ... .. . S02 : ... .. . ... : ... .. . ... : ... .. . ... : ... .. . F03 : ... .. . S02 : ... .. . ... : ... .. . ...
ROW 14 : C-2 04 . ... : C-3 12 . ... : ... .. . ... : D-# 07 . ... : ... .. . F04 : C-1 0D . ... : G-2 09 . ... : G-3 09 . ...
ROW 15 : ... .. . S02 : ... .. . ... : ... .. . ... : ... .. . ... : ... .. . F03 : ... .. . S02 : === .. . ... : === .. . ...
ROW 16 : G-1 04 . ... : ... .. . ... : ... .. . ... : D-# 07 . ... : ... .. . F04 : G-0 0D . ... : F-2 09 . ... : F-3 09 . ...
ROW 17 : ... .. . S02 : ... .. . ... : ... .. . ... : ... .. . ... : ... .. . F03 : ... .. . S02 : === .. . ... : === .. . ...
ROW 18 : C-1 04 . ... : C-3 12 . ... : C-4 0C . ... : 8-# 06 . ... : ... .. . F04 : C-0 0D . ... : D#2 09 . ... : D#3 09 . ...
ROW 19 : ... .. . ... : ... .. . ... : ... .. . ... : ... .. . ... : ... .. . F03 : ... .. . ... : ... .. . ... : ... .. . ...
ROW 1A : ... .. . ... : ... .. . ... : ... .. . ... : ... .. . ... : ... .. . F04 : ... .. . ... : === .. . ... : === .. . ...
ROW 1B : ... .. . S02 : ... .. . ... : ... .. . ... : ... .. . ... : ... .. . F03 : ... .. . S02 : ... .. . ... : ... .. . ...
ROW 1C : C-2 04 . ... : C-3 12 . ... : ... .. . ... : D-# 07 . ... : ... .. . F04 : C-1 0D . ... : D#2 09 . ... : D#3 09 . ...
ROW 1D : ... .. . S02 : ... .. . ... : ... .. . ... : ... .. . ... : ... .. . F03 : ... .. . S02 : === 09 . ... : === 09 . ...
ROW 1E : G-1 04 . ... : ... .. . ... : ... .. . ... : D-# 07 . ... : ... .. . F04 : G-0 0D . ... : D-2 09 . ... : D-3 09 . ...
ROW 1F : ... .. . S02 : ... .. . ... : ... .. . ... : ... .. . ... : ... .. . F03 : ... .. . S02 : === .. . ... : === .. . ...
ROW 20 : C-1 04 . ... : C-3 12 . ... : F-3 0B . ... : A-# 08 . ... : ... .. . F04 : C-0 0D . ... : C-2 09 . ... : C-3 09 . ...
ROW 21 : ... .. . ... : ... .. . ... : ... .. . ... : ... .. . ... : ... .. . F03 : ... .. . ... : === .. . ... : === .. . ...
ROW 22 : ... .. . ... : ... .. . ... : ... .. . ... : ... .. . ... : ... .. . F04 : ... .. . ... : C-1 09 . ... : C-2 09 . ...
ROW 23 : ... .. . S02 : ... .. . ... : ... .. . ... : ... .. . ... : ... .. . F03 : ... .. . S02 : === .. . ... : === .. . ...
ROW 24 : C-2 04 . ... : C-3 12 . ... : ... .. . ... : D-# 07 . ... : ... .. . F04 : C-1 0D . ... : D-2 09 . ... : D-3 09 . ...
ROW 25 : ... .. . S02 : ... .. . ... : ... .. . ... : ... .. . ... : ... .. . F03 : ... .. . S02 : === .. . ... : === .. . ...
ROW 26 : G-1 04 . ... : ... .. . ... : ... .. . ... : D-# 07 . ... : ... .. . F04 : G-0 0D . ... : C-1 09 . ... : C-2 09 . ...
ROW 27 : ... .. . S02 : ... .. . ... : ... .. . ... : ... .. . ... : ... .. . F03 : ... .. . S02 : === .. . ... : === .. . ...
ROW 28 : C-1 04 . ... : C-3 12 . ... : C-4 0C . ... : 8-# 06 . ... : ... .. . F04 : C-0 0D . ... : D#2 09 . ... : D#3 09 . ...
ROW 29 : ... .. . ... : ... .. . ... : ... .. . ... : ... .. . ... : ... .. . F03 : ... .. . ... : === .. . ... : === .. . ...
ROW 2A : ... .. . ... : ... .. . ... : ... .. . ... : ... .. . ... : ... .. . F04 : ... .. . ... : C-1 09 . ... : C-2 09 . ...
ROW 2B : ... .. . S02 : ... .. . ... : ... .. . ... : ... .. . ... : ... .. . F03 : ... .. . S02 : === .. . ... : === .. . ...
ROW 2C : C-2 04 . ... : C-3 12 . ... : ... .. . ... : D-# 07 . ... : ... .. . F04 : C-1 0D . ... : C-2 09 . ... : C-3 09 . ...
ROW 2D : ... .. . S02 : ... .. . ... : ... .. . ... : ... .. . ... : ... .. . F03 : ... .. . S02 : === 09 . ... : === 09 . ...
ROW 2E : G-1 04 . ... : ... .. . ... : C-4 0C . ... : 8-# 06 . ... : ... .. . F04 : G-0 0D . ... : C-1 09 . ... : C-2 09 . ...
ROW 2F : ... .. . S02 : ... .. . ... : ... .. . ... : ... .. . ... : ... .. . F03 : ... .. . S02 : === .. . ... : === .. . ...
ROW 30 : D-1 04 . ... : D-3 11 . ... : F-3 0B . ... : A-# 08 . ... : ... .. . F04 : D-0 0D . ... : D-2 09 . ... : D-3 09 . ...
ROW 31 : ... .. . ... : ... .. . ... : ... .. . ... : ... .. . ... : ... .. . F03 : ... .. . ... : === 09 . ... : === 09 . ...
ROW 32 : ... .. . ... : ... .. . ... : ... .. . ... : ... .. . ... : ... .. . F04 : ... .. . ... : D-1 09 . ... : D-2 09 . ...
ROW 33 : ... .. . S02 : ... .. . ... : ... .. . ... : ... .. . ... : ... .. . F03 : ... .. . S02 : === 09 . ... : === 09 . ...
ROW 34 : D-2 04 . ... : D-3 11 . ... : C-4 0C . ... : 8-# 06 . ... : ... .. . F04 : D-1 0D . ... : F#2 09 . ... : F#3 09 . ...
ROW 35 : ... .. . S02 : ... .. . ... : ... .. . ... : ... .. . ... : ... .. . F03 : ... .. . S02 : === .. . ... : === .. . ...
ROW 36 : A-1 04 . ... : ... .. . ... : ... .. . ... : ... .. . ... : ... .. . F04 : A-0 0D . ... : D-1 09 . ... : D-2 09 . ...
ROW 37 : ... .. . S02 : ... .. . ... : ... .. . ... : ... .. . ... : ... .. . F03 : ... .. . S02 : === .. . ... : === .. . ...
ROW 38 : D-1 04 . ... : D-3 11 . ... : C-4 0C . ... : 8-# 06 . ... : ... .. . F04 : D-0 0D . ... : A#2 09 . ... : A#3 09 . ...
ROW 39 : ... .. . ... : ... .. . ... : ... .. . ... : ... .. . ... : ... .. . F03 : ... .. . ... : === .. . ... : === .. . ...
ROW 3A : ... .. . ... : ... .. . ... : ... .. . ... : ... .. . ... : ... .. . F04 : ... .. . ... : D-1 09 . ... : D-2 09 . ...
ROW 3B : ... .. . S02 : ... .. . ... : ... .. . ... : ... .. . ... : ... .. . F03 : ... .. . S02 : === .. . ... : === .. . ...
ROW 3C : D-2 04 . ... : D-3 11 . ... : C-4 0C . ... : 8-# 06 . ... : ... .. . F04 : D-1 0D . ... : A-2 09 . ... : A-3 09 . ...
ROW 3D : ... .. . S02 : ... .. . ... : ... .. . ... : ... .. . ... : ... .. . F03 : ... .. . S02 : === 09 . ... : === 09 . ...
ROW 3E : A-1 04 . ... : ... .. . ... : C-4 0C . ... : 8-# 06 . ... : ... .. . F04 : A-0 0D . ... : D-1 09 . ... : D-2 09 . ...
ROW 3F : ... .. . S02 : ... .. . ... : ... .. . ... : ... .. . ... : ... .. . F03 : ... .. . S02 : === .. . ... : === .. . ...

PATTERN 05
ROW 00 : G-1 04 . ... : G-3 12 . ... : F-3 0B . ... : A-# 05 . ... : ... .. . F04 : G-0 0D . ... : G-2 09 . V04 : G-3 09 . ...
ROW 01 : ... .. . ... : ... .. . ... : ... .. . ... : ... .. . ... : ... .. . F03 : ... .. . ... : ... .. . ... : ... .. . ...
ROW 02 : ... .. . ... : ... .. . ... : ... .. . ... : ... .. . ... : ... .. . F04 : ... .. . ... : === .. . ... : === .. . ...
ROW 03 : ... .. . ... : ... .. . ... : ... .. . ... : ... .. . ... : ... .. . F03 : ... .. . ... : ... .. . ... : ... .. . ...
ROW 04 : === .. . ... : ... .. . ... : ... .. . ... : ... .. . ... : ... .. . F04 : === .. . ... : ... .. . ... : ... .. . ...
ROW 05 : ... .. . ... : ... .. . ... : ... .. . ... : ... .. . ... : ... .. . F03 : ... .. . ... : ... .. . ... : ... .. . ...
ROW 06 : ... .. . ... : ... .. . ... : ... .. . ... : A-# 07 . ... : ... .. . F04 : ... .. . ... : ... .. . ... : ... .. . ...
ROW 07 : ... .. . ... : ... .. . ... : ... .. . ... : ... .. . ... : ... .. . F03 : ... .. . ... : ... .. . ... : ... .. . ...
ROW 08 : ... .. . ... : ... .. . ... : F-3 0B . ... : 9-# 14 . ... : ... .. . F04 : ... .. . ... : D-2 09 . ... : D-3 09 . ...
ROW 09 : ... .. . ... : ... .. . ... : ... .. . ... : ... .. . ... : ... .. . F03 : ... .. . ... : ... .. . ... : ... .. . ...
ROW 0A : ... .. . ... : ... .. . ... : ... .. . ... : ... .. . ... : ... .. . F04 : ... .. . ... : === .. . ... : === .. . ...
ROW 0B : ... .. . ... : ... .. . ... : ... .. . ... : ... .. . ... : ... .. . F03 : ... .. . ... : ... .. . ... : ... .. . ...
ROW 0C : ... .. . ... : ... .. . ... : ... .. . ... : A-# 07 . ... : ... .. . F04 : ... .. . ... : D-1 09 . ... : D-2 09 . ...
ROW 0D : ... .. . ... : ... .. . ... : ... .. . ... : ... .. . ... : ... .. . F03 : ... .. . ... : ... .. . ... : ... .. . ...
ROW 0E : ... .. . ... : ... .. . ... : ... .. . ... : A-# 07 . ... : ... .. . F04 : ... .. . ... : === .. . ... : === .. . ...
ROW 0F : ... .. . ... : ... .. . ... : ... .. . ... : ... .. . ... : ... .. . F03 : ... .. . ... : ... .. . ... : ... .. . ...
ROW 10 : ... .. . ... : G-2 12 . ... : F-3 0B . ... : 9-# 14 . ... : ... .. . F04 : ... .. . ... : A#1 09 . ... : A#2 09 . ...
ROW 11 : ... .. . ... : ... .. . ... : ... .. . ... : ... .. . ... : ... .. . F03 : ... .. . ... : ... .. . ... : ... .. . ...
ROW 12 : ... .. . ... : ... .. . ... : ... .. . ... : A-# 07 . ... : ... .. . F04 : ... .. . ... : === .. . ... : === .. . ...
ROW 13 : ... .. . ... : ... .. . ... : ... .. . ... : ... .. . ... : ... .. . F03 : ... .. . ... : ... .. . ... : ... .. . ...
ROW 14 : ... .. . ... : ... .. . ... : F-3 0B . ... : 9-# 14 . ... : ... .. . F04 : ... .. . ... : G-1 09 . ... : G-2 09 . ...
ROW 15 : ... .. . ... : ... .. . ... : ... .. . ... : ... .. . ... : ... .. . F03 : ... .. . ... : ... .. . ... : ... .. . ...
ROW 16 : ... .. . ... : ... .. . ... : ... .. . ... : A-# 07 . ... : ... .. . F04 : ... .. . ... : === .. . ... : === .. . ...
ROW 17 : ... .. . ... : ... .. . ... : ... .. . ... : ... .. . ... : ... .. . F03 : ... .. . ... : ... .. . ... : ... .. . ...
ROW 18 : ... .. . ... : ... .. . ... : F-3 0B . ... : 9-# 14 . ... : ... .. . F04 : ... .. . ... : ... .. . ... : ... .. . ...
ROW 19 : ... .. . ... : ... .. . ... : ... .. . ... : ... .. . ... : ... .. . F03 : ... .. . ... : ... .. . ... : ... .. . ...
ROW 1A : ... .. . ... : ... .. . ... : ... .. . ... : ... .. . ... : ... .. . F04 : ... .. . ... : ... .. . ... : ... .. . ...
ROW 1B : ... .. . ... : ... .. . ... : ... .. . ... : ... .. . ... : ... .. . F03 : ... .. . ... : ... .. . ... : ... .. . ...
ROW 1C : G#1 04 . ... : G#2 12 . ... : ... .. . ... : A-# 07 . ... : ... .. . F04 : G#0 0D . ... : G-1 09 . ... : G-2 09 . ...
ROW 1D : ... .. . ... : ... .. . ... : ... .. . ... : ... .. . ... : ... .. . F03 : ... .. . ... : ... .. . ... : ... .. . ...
ROW 1E : === .. . ... : ... .. . ... : ... .. . ... : A-# 07 . ... : ... .. . F04 : === .. . ... : === .. . ... : === .. . ...
ROW 1F : ... .. . ... : ... .. . ... : ... .. . ... : ... .. . ... : ... .. . F03 : ... .. . ... : ... .. . ... : ... .. . ...
ROW 20 : G-1 04 . ... : G-2 12 . ... : F-3 0B . ... : 9-# 14 . ... : ... .. . F04 : G-0 0D . ... : D-2 09 . ... : D-3 09 . ...
ROW 21 : ... .. . ... : ... .. . ... : ... .. . ... : ... .. . ... : ... .. . F03 : ... .. . ... : === .. . ... : === .. . ...
ROW 22 : ... .. . ... : ... .. . ... : ... .. . ... : ... .. . ... : ... .. . F04 : ... .. . ... : D#2 09 . ... : D#3 09 . ...
ROW 23 : ... .. . ... : ... .. . ... : ... .. . ... : ... .. . ... : ... .. . F03 : ... .. . ... : === .. . ... : === .. . ...
ROW 24 : === .. . ... : ... .. . ... : ... .. . ... : A-# 07 . ... : ... .. . F04 : === .. . ... : D-2 09 . ... : D-3 09 . ...
ROW 25 : ... .. . ... : ... .. . ... : ... .. . ... : ... .. . ... : ... .. . F03 : ... .. . ... : === .. . ... : === .. . ...
ROW 26 : ... .. . ... : ... .. . ... : ... .. . ... : A-# 07 . ... : ... .. . F04 : ... .. . ... : C-2 09 . ... : C-3 09 . ...
ROW 27 : ... .. . ... : ... .. . ... : ... .. . ... : ... .. . ... : ... .. . F03 : ... .. . ... : === .. . ... : === .. . ...
ROW 28 : ... .. . ... : ... .. . ... : F-3 0B . ... : 9-# 14 . ... : ... .. . F04 : ... .. . ... : D-2 09 . ... : D-3 09 . ...
ROW 29 : ... .. . ... : ... .. . ... : ... .. . ... : ... .. . ... : ... .. . F03 : ... .. . ... : ... .. . ... : ... .. . ...
ROW 2A : ... .. . ... : ... .. . ... : ... .. . ... : ... .. . ... : ... .. . F04 : ... .. . ... : === .. . ... : === .. . ...
ROW 2B : ... .. . ... : ... .. . ... : ... .. . ... : ... .. . ... : ... .. . F03 : ... .. . ... : ... .. . ... : ... .. . ...
ROW 2C : ... .. . ... : ... .. . ... : ... .. . ... : A-# 07 . ... : ... .. . F04 : ... .. . ... : G-2 09 . ... : G-3 09 . ...
ROW 2D : ... .. . ... : ... .. . ... : ... .. . ... : ... .. . ... : ... .. . F03 : ... .. . ... : ... .. . ... : ... .. . ...
ROW 2E : ... .. . ... : ... .. . ... : ... .. . ... : A-# 07 . ... : ... .. . F04 : ... .. . ... : === .. . ... : === .. . ...
ROW 2F : ... .. . ... : ... .. . ... : ... .. . ... : ... .. . ... : ... .. . F03 : ... .. . ... : ... .. . ... : ... .. . ...
ROW 30 : ... .. . ... : G-2 12 . ... : F-3 0B . ... : 9-# 14 . ... : ... .. . F04 : ... .. . ... : A#2 09 . ... : A#3 09 . ...
ROW 31 : ... .. . ... : ... .. . ... : ... .. . ... : ... .. . ... : ... .. . F03 : ... .. . ... : ... .. . ... : ... .. . ...
ROW 32 : ... .. . ... : ... .. . ... : ... .. . ... : A-# 07 . ... : ... .. . F04 : ... .. . ... : === .. . ... : === .. . ...
ROW 33 : ... .. . ... : ... .. . ... : ... .. . ... : ... .. . ... : ... .. . F03 : ... .. . ... : ... .. . ... : ... .. . ...
ROW 34 : ... .. . ... : ... .. . ... : F-3 0B . ... : 9-# 14 . ... : ... .. . F04 : ... .. . ... : G-2 09 . ... : G-3 09 . ...
ROW 35 : ... .. . ... : ... .. . ... : ... .. . ... : ... .. . ... : ... .. . F03 : ... .. . ... : ... .. . ... : ... .. . ...
ROW 36 : ... .. . ... : ... .. . ... : ... .. . ... : A-# 07 . ... : ... .. . F04 : ... .. . ... : === .. . ... : === .. . ...
ROW 37 : ... .. . ... : ... .. . ... : ... .. . ... : ... .. . ... : ... .. . F03 : ... .. . ... : ... .. . ... : ... .. . ...
ROW 38 : C-2 04 . ... : C-3 12 . ... : F-3 0B . ... : 9-# 14 . ... : ... .. . F04 : C-1 0D . ... : D-3 09 . ... : D-4 09 . ...
ROW 39 : ... .. . ... : ... .. . ... : ... .. . ... : ... .. . ... : ... .. . F03 : ... .. . ... : ... .. . ... : ... .. . ...
ROW 3A : === .. . ... : ... .. . ... : ... .. . ... : ... .. . ... : ... .. . F04 : === .. . ... : === .. . ... : === .. . ...
ROW 3B : ... .. . ... : ... .. . ... : ... .. . ... : ... .. . ... : ... .. . F03 : ... .. . ... : ... .. . ... : ... .. . ...
ROW 3C : A#1 04 . ... : A#2 11 . ... : ... .. . ... : A-# 07 . ... : ... .. . F04 : A#0 0D . ... : ... .. . ... : ... .. . ...
ROW 3D : ... .. . ... : ... .. . ... : ... .. . ... : ... .. . ... : ... .. . F03 : ... .. . ... : ... .. . ... : ... .. . ...
ROW 3E : === .. . ... : ... .. . ... : ... .. . ... : A-# 07 . ... : ... .. . F04 : === .. . ... : ... .. . ... : ... .. . ...
ROW 3F : ... .. . ... : ... .. . ... : ... .. . ... : ... .. . ... : ... .. . F03 : ... .. . ... : ... .. . ... : ... .. . ...

PATTERN 06
ROW 00 : G-1 04 . ... : G-2 12 . ... : F-3 0B . ... : 9-# 14 . ... : ... .. . F04 : G-0 0D . ... : G-2 09 . V04 : G-3 09 . ...
ROW 01 : ... .. . ... : ... .. . ... : ... .. . ... : ... .. . ... : ... .. . F03 : ... .. . ... : ... .. . ... : ... .. . ...
ROW 02 : === .. . ... : ... .. . ... : ... .. . ... : ... .. . ... : ... .. . F04 : === .. . ... : === .. . ... : === .. . ...
ROW 03 : ... .. . ... : ... .. . ... : ... .. . ... : ... .. . ... : ... .. . F03 : ... .. . ... : ... .. . ... : ... .. . ...
ROW 04 : G-1 04 . ... : G-2 12 . ... : ... .. . ... : A-# 07 . ... : ... .. . F04 : G-0 0D . ... : F#2 09 . ... : F#3 09 . ...
ROW 05 : ... .. . ... : ... .. . ... : ... .. . ... : ... .. . ... : ... .. . F03 : ... .. . ... : ... .. . ... : ... .. . ...
ROW 06 : === .. . ... : ... .. . ... : ... .. . ... : A-# 07 . ... : ... .. . F04 : === .. . ... : === .. . ... : === .. . ...
ROW 07 : ... .. . ... : ... .. . ... : ... .. . ... : ... .. . ... : ... .. . F03 : ... .. . ... : ... .. . ... : ... .. . ...
ROW 08 : ... .. . ... : ... .. . ... : F-3 0B . ... : 9-# 14 . ... : ... .. . F04 : ... .. . ... : A-2 09 . ... : A-3 09 . ...
ROW 09 : ... .. . ... : ... .. . ... : ... .. . ... : ... .. . ... : ... .. . F03 : ... .. . ... : ... .. . ... : ... .. . ...
ROW 0A : ... .. . ... : ... .. . ... : ... .. . ... : ... .. . ... : ... .. . F04 : ... .. . ... : === .. . ... : === .. . ...
ROW 0B : ... .. . ... : ... .. . ... : ... .. . ... : ... .. . ... : ... .. . F03 : ... .. . ... : ... .. . ... : ... .. . ...
ROW 0C : ... .. . ... : ... .. . ... : ... .. . ... : A-# 07 . ... : ... .. . F04 : ... .. . ... : G-2 09 . ... : G-3 09 . ...
ROW 0D : ... .. . ... : ... .. . ... : ... .. . ... : ... .. . ... : ... .. . F03 : ... .. . ... : ... .. . ... : ... .. . ...
ROW 0E : ... .. . ... : ... .. . ... : ... .. . ... : A-# 07 . ... : ... .. . F04 : ... .. . ... : === .. . ... : === .. . ...
ROW 0F : ... .. . ... : ... .. . ... : ... .. . ... : ... .. . ... : ... .. . F03 : ... .. . ... : ... .. . ... : ... .. . ...
ROW 10 : G-1 04 . ... : G-2 12 . ... : F-3 0B . ... : 9-# 14 . ... : ... .. . F04 : G-0 0D . ... : A#2 09 . ... : A#3 09 . ...
ROW 11 : ... .. . ... : ... .. . ... : ... .. . ... : ... .. . ... : ... .. . F03 : ... .. . ... : ... .. . ... : ... .. . ...
ROW 12 : === .. . ... : ... .. . ... : ... .. . ... : A-# 07 . ... : ... .. . F04 : === .. . ... : === .. . ... : === .. . ...
ROW 13 : ... .. . ... : ... .. . ... : ... .. . ... : ... .. . ... : ... .. . F03 : ... .. . ... : ... .. . ... : ... .. . ...
ROW 14 : G-1 04 . ... : G-2 12 . ... : F-3 0B . ... : 9-# 14 . ... : ... .. . F04 : G-0 0D . ... : A-2 09 . ... : A-3 09 . ...
ROW 15 : ... .. . ... : ... .. . ... : ... .. . ... : ... .. . ... : ... .. . F03 : ... .. . ... : ... .. . ... : ... .. . ...
ROW 16 : === .. . ... : ... .. . ... : ... .. . ... : A-# 07 . ... : ... .. . F04 : === .. . ... : === .. . ... : === .. . ...
ROW 17 : ... .. . ... : ... .. . ... : ... .. . ... : ... .. . ... : ... .. . F03 : ... .. . ... : ... .. . ... : ... .. . ...
ROW 18 : ... .. . ... : ... .. . ... : F-3 0B . ... : 9-# 14 . ... : ... .. . F04 : ... .. . ... : C-3 09 . ... : C-4 09 . ...
ROW 19 : ... .. . ... : ... .. . ... : ... .. . ... : ... .. . ... : ... .. . F03 : ... .. . ... : ... .. . ... : ... .. . ...
ROW 1A : ... .. . ... : ... .. . ... : ... .. . ... : ... .. . ... : ... .. . F04 : ... .. . ... : === .. . ... : === .. . ...
ROW 1B : ... .. . ... : ... .. . ... : ... .. . ... : ... .. . ... : ... .. . F03 : ... .. . ... : ... .. . ... : ... .. . ...
ROW 1C : G#1 04 . ... : G#2 12 . ... : ... .. . ... : A-# 07 . ... : ... .. . F04 : G#0 0D . ... : A#2 09 . ... : A#3 09 . ...
ROW 1D : ... .. . ... : ... .. . ... : ... .. . ... : ... .. . ... : ... .. . F03 : ... .. . ... : ... .. . ... : ... .. . ...
ROW 1E : === .. . ... : ... .. . ... : ... .. . ... : A-# 07 . ... : ... .. . F04 : === .. . ... : === .. . ... : === .. . ...
ROW 1F : ... .. . ... : ... .. . ... : ... .. . ... : ... .. . ... : ... .. . F03 : ... .. . ... : ... .. . ... : ... .. . ...
ROW 20 : G-1 04 . ... : G-2 12 . ... : F-3 0B . ... : 9-# 14 . ... : ... .. . F04 : G-0 0D . ... : D-3 09 . ... : D-4 09 . ...
ROW 21 : ... .. . ... : ... .. . ... : ... .. . ... : ... .. . ... : ... .. . F03 : ... .. . ... : ... .. . ... : ... .. . ...
ROW 22 : === .. . ... : ... .. . ... : ... .. . ... : ... .. . ... : ... .. . F04 : === .. . ... : === .. . ... : === .. . ...
ROW 23 : ... .. . ... : ... .. . ... : ... .. . ... : ... .. . ... : ... .. . F03 : ... .. . ... : ... .. . ... : ... .. . ...
ROW 24 : G-1 04 . ... : G-2 12 . ... : ... .. . ... : A-# 07 . ... : ... .. . F04 : G-0 0D . ... : ... .. . ... : ... .. . ...
ROW 25 : ... .. . ... : ... .. . ... : ... .. . ... : ... .. . ... : ... .. . F03 : ... .. . ... : ... .. . ... : ... .. . ...
ROW 26 : === .. . ... : ... .. . ... : ... .. . ... : A-# 07 . ... : ... .. . F04 : === .. . ... : ... .. . ... : ... .. . ...
ROW 27 : ... .. . ... : ... .. . ... : ... .. . ... : ... .. . ... : ... .. . F03 : ... .. . ... : ... .. . ... : ... .. . ...
ROW 28 : G-2 04 . ... : G-3 12 . ... : F-3 0B . ... : 9-# 14 . ... : ... .. . F04 : G-1 0D . ... : ... .. . ... : ... .. . ...
ROW 29 : ... .. . ... : ... .. . ... : ... .. . ... : ... .. . ... : ... .. . F03 : ... .. . ... : ... .. . ... : ... .. . ...
ROW 2A : ... .. . ... : ... .. . ... : ... .. . ... : ... .. . ... : ... .. . F04 : ... .. . ... : D#3 09 . ... : D#4 09 . ...
ROW 2B : ... .. . ... : ... .. . ... : ... .. . ... : ... .. . ... : ... .. . F03 : ... .. . ... : === .. . ... : === .. . ...
ROW 2C : === .. . ... : ... .. . ... : ... .. . ... : A-# 07 . ... : ... .. . F04 : === .. . ... : D-3 09 . ... : D-4 09 . ...
ROW 2D : ... .. . ... : ... .. . ... : ... .. . ... : ... .. . ... : ... .. . F03 : ... .. . ... : === .. . ... : === .. . ...
ROW 2E : ... .. . ... : ... .. . ... : ... .. . ... : A-# 07 . ... : ... .. . F04 : ... .. . ... : C-3 09 . ... : C-4 09 . ...
ROW 2F : ... .. . ... : ... .. . ... : ... .. . ... : ... .. . ... : ... .. . F03 : ... .. . ... : === .. . ... : === .. . ...
ROW 30 : D-1 04 . ... : D-3 11 . ... : F-3 0B . ... : 9-# 14 . ... : ... .. . F04 : D-0 0D . ... : D-3 09 . ... : D-4 09 . ...
ROW 31 : ... .. . ... : ... .. . ... : ... .. . ... : ... .. . ... : ... .. . F03 : ... .. . ... : ... .. . ... : ... .. . ...
ROW 32 : === .. . ... : ... .. . ... : ... .. . ... : A-# 07 . ... : ... .. . F04 : === .. . ... : === .. . ... : === .. . ...
ROW 33 : ... .. . ... : ... .. . ... : ... .. . ... : ... .. . ... : ... .. . F03 : ... .. . ... : ... .. . ... : ... .. . ...
ROW 34 : D-1 04 . ... : D-3 11 . ... : F-3 0B . ... : 9-# 14 . ... : ... .. . F04 : D-0 0D . ... : ... .. . ... : ... .. . ...
ROW 35 : ... .. . ... : ... .. . ... : ... .. . ... : ... .. . ... : ... .. . F03 : ... .. . ... : ... .. . ... : ... .. . ...
ROW 36 : === .. . ... : ... .. . ... : ... .. . ... : A-# 07 . ... : ... .. . F04 : === .. . ... : ... .. . ... : ... .. . ...
ROW 37 : ... .. . ... : ... .. . ... : ... .. . ... : ... .. . ... : ... .. . F03 : ... .. . ... : ... .. . ... : ... .. . ...
ROW 38 : D-2 04 . ... : D-4 11 . ... : F-3 0B . ... : 9-# 14 . ... : ... .. . F04 : D-1 0D . ... : ... .. . ... : ... .. . ...
ROW 39 : ... .. . ... : ... .. . ... : ... .. . ... : ... .. . ... : ... .. . F03 : ... .. . ... : ... .. . ... : ... .. . ...
ROW 3A : === .. . ... : ... .. . ... : ... .. . ... : ... .. . ... : ... .. . F04 : === .. . ... : ... .. . ... : ... .. . ...
ROW 3B : ... .. . ... : ... .. . ... : ... .. . ... : ... .. . ... : ... .. . F03 : ... .. . ... : ... .. . ... : ... .. . ...
ROW 3C : D-1 04 . ... : ... .. . ... : ... .. . ... : A-# 07 . ... : ... .. . F04 : D-0 0D . ... : ... .. . ... : ... .. . ...
ROW 3D : ... .. . ... : ... .. . ... : ... .. . ... : ... .. . ... : ... .. . F03 : ... .. . ... : ... .. . ... : ... .. . ...
ROW 3E : === .. . ... : ... .. . ... : ... .. . ... : A-# 07 . ... : ... .. . F04 : === .. . ... : ... .. . ... : ... .. . ...
ROW 3F : ... .. . ... : ... .. . ... : ... .. . ... : ... .. . ... : ... .. . F03 : ... .. . ... : ... .. . ... : ... .. . ...

PATTERN 07
ROW 00 : A-1 04 . ... : ... .. . ... : F-3 0B . ... : A-# 05 . ... : ... .. . F04 : A-0 0D . ... : A-2 09 . V04 : A-3 09 . ...
ROW 01 : ... .. . ... : ... .. . ... : ... .. . ... : ... .. . ... : ... .. . F03 : ... .. . ... : === .. . ... : === .. . ...
ROW 02 : ... .. . ... : ... .. . ... : ... .. . ... : ... .. . ... : ... .. . F04 : ... .. . ... : E-2 09 . ... : E-3 09 . ...
ROW 03 : ... .. . S02 : ... .. . ... : ... .. . ... : ... .. . ... : ... .. . F03 : ... .. . S02 : === .. . ... : === .. . ...
ROW 04 : E-2 04 . ... : A-3 12 . ... : ... .. . ... : ... .. . ... : ... .. . F04 : E-1 0D . ... : D-2 09 . ... : D-3 09 . ...
ROW 05 : ... .. . S02 : ... .. . ... : ... .. . ... : ... .. . ... : ... .. . F03 : ... .. . S02 : === .. . ... : === .. . ...
ROW 06 : A-1 04 . ... : ... .. . ... : ... .. . ... : D-# 07 . ... : ... .. . F04 : A-0 0D . ... : E-2 09 . ... : E-3 09 . ...
ROW 07 : ... .. . S02 : ... .. . ... : ... .. . ... : ... .. . ... : ... .. . F03 : ... .. . S02 : === .. . ... : === .. . ...
ROW 08 : E-1 04 . ... : ... .. . ... : C-4 0C . ... : 8-# 06 . ... : ... .. . F04 : E-0 0D . ... : C-3 09 . ... : C-4 09 . ...
ROW 09 : ... .. . ... : ... .. . ... : ... .. . ... : ... .. . ... : ... .. . F03 : ... .. . ... : === .. . ... : === .. . ...
ROW 0A : ... .. . ... : ... .. . ... : ... .. . ... : ... .. . ... : ... .. . F04 : ... .. . ... : E-2 09 . ... : E-3 09 . ...
ROW 0B : ... .. . S02 : ... .. . ... : ... .. . ... : ... .. . ... : ... .. . F03 : ... .. . S02 : === .. . ... : === .. . ...
ROW 0C : E-2 04 . ... : A-3 12 . ... : ... .. . ... : D-# 07 . ... : ... .. . F04 : E-1 0D . ... : D-2 09 . ... : D-3 09 . ...
ROW 0D : ... .. . S02 : ... .. . ... : ... .. . ... : ... .. . ... : ... .. . F03 : ... .. . S02 : === .. . ... : === .. . ...
ROW 0E : E-1 04 . ... : ... .. . ... : ... .. . ... : D-# 07 . ... : ... .. . F04 : E-0 0D . ... : E-2 09 . ... : E-3 09 . ...
ROW 0F : ... .. . S02 : ... .. . ... : ... .. . ... : ... .. . ... : ... .. . F03 : ... .. . S02 : === .. . ... : === .. . ...
ROW 10 : A-1 04 . ... : ... .. . ... : F-3 0B . ... : A-# 08 . ... : ... .. . F04 : A-0 0D . ... : B-2 09 . ... : B-3 09 . ...
ROW 11 : ... .. . ... : ... .. . ... : ... .. . ... : ... .. . ... : ... .. . F03 : ... .. . ... : === .. . ... : === .. . ...
ROW 12 : ... .. . ... : ... .. . ... : ... .. . ... : ... .. . ... : ... .. . F04 : ... .. . ... : E-2 09 . ... : E-3 09 . ...
ROW 13 : ... .. . S02 : ... .. . ... : ... .. . ... : ... .. . ... : ... .. . F03 : ... .. . S02 : === .. . ... : === .. . ...
ROW 14 : E-2 04 . ... : A-3 12 . ... : ... .. . ... : D-# 07 . ... : ... .. . F04 : E-1 0D . ... : D-2 09 . ... : D-3 09 . ...
ROW 15 : ... .. . S02 : ... .. . ... : ... .. . ... : ... .. . ... : ... .. . F03 : ... .. . S02 : === .. . ... : === .. . ...
ROW 16 : A-1 04 . ... : ... .. . ... : ... .. . ... : D-# 07 . ... : ... .. . F04 : A-0 0D . ... : E-2 09 . ... : E-3 09 . ...
ROW 17 : ... .. . S02 : ... .. . ... : ... .. . ... : ... .. . ... : ... .. . F03 : ... .. . S02 : === .. . ... : === .. . ...
ROW 18 : E-1 04 . ... : ... .. . ... : C-4 0C . ... : 8-# 06 . ... : ... .. . F04 : E-0 0D . ... : A-2 09 . ... : A-3 09 . ...
ROW 19 : ... .. . ... : ... .. . ... : ... .. . ... : ... .. . ... : ... .. . F03 : ... .. . ... : === .. . ... : === .. . ...
ROW 1A : ... .. . ... : ... .. . ... : ... .. . ... : ... .. . ... : ... .. . F04 : ... .. . ... : E-2 09 . ... : E-3 09 . ...
ROW 1B : ... .. . S02 : ... .. . ... : ... .. . ... : ... .. . ... : ... .. . F03 : ... .. . S02 : === .. . ... : === .. . ...
ROW 1C : E-2 04 . ... : A-3 12 . ... : ... .. . ... : D-# 07 . ... : ... .. . F04 : E-1 0D . ... : D-2 09 . ... : D-3 09 . ...
ROW 1D : ... .. . S02 : ... .. . ... : ... .. . ... : ... .. . ... : ... .. . F03 : ... .. . S02 : === .. . ... : === .. . ...
ROW 1E : E-1 04 . ... : ... .. . ... : ... .. . ... : D-# 07 . ... : ... .. . F04 : E-0 0D . ... : E-2 09 . ... : E-3 09 . ...
ROW 1F : ... .. . S02 : ... .. . ... : ... .. . ... : ... .. . ... : ... .. . F03 : ... .. . S02 : === .. . ... : === .. . ...
ROW 20 : A-1 04 . ... : ... .. . ... : F-3 0B . ... : A-# 08 . ... : ... .. . F04 : A-0 0D . ... : A-2 09 . ... : A-3 09 . ...
ROW 21 : ... .. . ... : ... .. . ... : ... .. . ... : ... .. . ... : ... .. . F03 : ... .. . ... : === .. . ... : === .. . ...
ROW 22 : ... .. . ... : ... .. . ... : ... .. . ... : ... .. . ... : ... .. . F04 : ... .. . ... : E-2 09 . ... : E-3 09 . ...
ROW 23 : ... .. . S02 : ... .. . ... : ... .. . ... : ... .. . ... : ... .. . F03 : ... .. . S02 : === .. . ... : === .. . ...
ROW 24 : B-1 04 . ... : A-3 12 . ... : ... .. . ... : D-# 07 . ... : ... .. . F04 : B-0 0D . ... : B-2 09 . ... : B-3 09 . ...
ROW 25 : ... .. . ... : ... .. . ... : ... .. . ... : ... .. . ... : ... .. . F03 : ... .. . ... : === .. . ... : === .. . ...
ROW 26 : ... .. . ... : ... .. . ... : ... .. . ... : D-# 07 . ... : ... .. . F04 : ... .. . ... : E-2 09 . ... : E-3 09 . ...
ROW 27 : ... .. . S02 : ... .. . ... : ... .. . ... : ... .. . ... : ... .. . F03 : ... .. . S02 : === .. . ... : === .. . ...
ROW 28 : C-2 04 . ... : ... .. . ... : C-4 0C . ... : 8-# 06 . ... : ... .. . F04 : C-1 0D . ... : C-3 09 . ... : C-4 09 . ...
ROW 29 : ... .. . ... : ... .. . ... : ... .. . ... : ... .. . ... : ... .. . F03 : ... .. . ... : === .. . ... : === .. . ...
ROW 2A : ... .. . ... : ... .. . ... : ... .. . ... : ... .. . ... : ... .. . F04 : ... .. . ... : E-2 09 . ... : E-3 09 . ...
ROW 2B : ... .. . S02 : ... .. . ... : ... .. . ... : ... .. . ... : ... .. . F03 : ... .. . S02 : === .. . ... : === .. . ...
ROW 2C : D-2 04 . ... : A-3 12 . ... : ... .. . ... : D-# 07 . ... : ... .. . F04 : D-1 0D . ... : D-3 09 . ... : D-4 09 . ...
ROW 2D : ... .. . ... : ... .. . ... : ... .. . ... : ... .. . ... : ... .. . F03 : ... .. . ... : === .. . ... : === .. . ...
ROW 2E : ... .. . ... : ... .. . ... : ... .. . ... : D-# 07 . ... : ... .. . F04 : ... .. . ... : E-2 09 . ... : E-3 09 . ...
ROW 2F : ... .. . S02 : ... .. . ... : ... .. . ... : ... .. . ... : ... .. . F03 : ... .. . S02 : === .. . ... : === .. . ...
ROW 30 : E-2 04 . ... : ... .. . ... : F-3 0B . ... : A-# 08 . ... : ... .. . F04 : E-1 0D . ... : D-3 09 . ... : D-4 09 . ...
ROW 31 : ... .. . S02 : ... .. . ... : ... .. . ... : ... .. . ... : ... .. . F03 : ... .. . S02 : === .. . ... : === .. . ...
ROW 32 : F-2 04 . ... : ... .. . ... : ... .. . ... : ... .. . ... : ... .. . F04 : F-1 0D . ... : E-3 09 . ... : E-4 09 . ...
ROW 33 : ... .. . S02 : ... .. . ... : ... .. . ... : ... .. . ... : ... .. . F03 : ... .. . S02 : === .. . ... : === .. . ...
ROW 34 : E-2 04 . ... : E-3 11 . ... : ... .. . ... : D-# 07 . ... : ... .. . F04 : E-1 0D . ... : B-2 09 . ... : B-3 09 . ...
ROW 35 : ... .. . S02 : ... .. . ... : ... .. . ... : ... .. . ... : ... .. . F03 : ... .. . S02 : === .. . ... : === .. . ...
ROW 36 : D-2 04 . ... : ... .. . ... : ... .. . ... : D-# 07 . ... : ... .. . F04 : D-1 0D . ... : D-3 09 . ... : D-4 09 . ...
ROW 37 : ... .. . S02 : ... .. . ... : ... .. . ... : ... .. . ... : ... .. . F03 : ... .. . S02 : === .. . ... : === .. . ...
ROW 38 : E-2 04 . ... : E-3 11 . ... : C-4 0C . ... : 8-# 06 . ... : ... .. . F04 : E-1 0D . ... : G#2 09 . ... : G#3 09 . ...
ROW 39 : ... .. . S02 : ... .. . ... : ... .. . ... : ... .. . ... : ... .. . F03 : ... .. . S02 : === .. . ... : === .. . ...
ROW 3A : D-2 04 . ... : ... .. . ... : ... .. . ... : ... .. . ... : ... .. . F04 : D-1 0D . ... : B-2 09 . ... : B-3 09 . ...
ROW 3B : ... .. . S02 : ... .. . ... : ... .. . ... : ... .. . ... : ... .. . F03 : ... .. . S02 : === .. . ... : === .. . ...
ROW 3C : C-2 04 . ... : ... .. . ... : ... .. . ... : D-# 07 . ... : ... .. . F04 : C-1 0D . ... : E-2 09 . ... : E-3 09 . ...
ROW 3D : ... .. . S02 : ... .. . ... : ... .. . ... : ... .. . ... : ... .. . F03 : ... .. . S02 : === .. . ... : === .. . ...
ROW 3E : B-1 04 . ... : ... .. . ... : C-4 0C . ... : 8-# 06 . ... : ... .. . F04 : B-0 0D . ... : G#2 09 . ... : G#3 09 . ...
ROW 3F : ... .. . S02 : ... .. . ... : ... .. . ... : ... .. . ... : ... .. . F03 : ... .. . S02 : === .. . ... : === .. . ...

PATTERN 08
ROW 00 : A-1 04 . ... : ... .. . ... : F-3 0B . ... : A-# 08 . ... : ... .. . F04 : A-0 0D . ... : A-2 09 . V04 : A-3 09 . ...
ROW 01 : ... .. . ... : ... .. . ... : ... .. . ... : ... .. . ... : ... .. . F03 : ... .. . ... : === .. . ... : === .. . ...
ROW 02 : ... .. . ... : ... .. . ... : ... .. . ... : ... .. . ... : ... .. . F04 : ... .. . ... : E-2 09 . ... : E-3 09 . ...
ROW 03 : ... .. . S02 : ... .. . ... : ... .. . ... : ... .. . ... : ... .. . F03 : ... .. . S02 : === .. . ... : === .. . ...
ROW 04 : E-2 04 . ... : A-3 12 . ... : ... .. . ... : D-# 07 . ... : ... .. . F04 : E-1 0D . ... : D-2 09 . ... : D-3 09 . ...
ROW 05 : ... .. . S02 : ... .. . ... : ... .. . ... : ... .. . ... : ... .. . F03 : ... .. . S02 : === .. . ... : === .. . ...
ROW 06 : A-1 04 . ... : ... .. . ... : ... .. . ... : D-# 07 . ... : ... .. . F04 : A-0 0D . ... : E-2 09 . ... : E-3 09 . ...
ROW 07 : ... .. . S02 : ... .. . ... : ... .. . ... : ... .. . ... : ... .. . F03 : ... .. . S02 : === .. . ... : === .. . ...
ROW 08 : E-1 04 . ... : ... .. . ... : C-4 0C . ... : 8-# 06 . ... : ... .. . F04 : E-0 0D . ... : C-3 09 . ... : C-4 09 . ...
ROW 09 : ... .. . ... : ... .. . ... : ... .. . ... : ... .. . ... : ... .. . F03 : ... .. . ... : === .. . ... : === .. . ...
ROW 0A : ... .. . ... : ... .. . ... : ... .. . ... : ... .. . ... : ... .. . F04 : ... .. . ... : E-2 09 . ... : E-3 09 . ...
ROW 0B : ... .. . S02 : ... .. . ... : ... .. . ... : ... .. . ... : ... .. . F03 : ... .. . S02 : === .. . ... : === .. . ...
ROW 0C : E-2 04 . ... : A-3 12 . ... : ... .. . ... : D-# 07 . ... : ... .. . F04 : E-1 0D . ... : D-2 09 . ... : D-3 09 . ...
ROW 0D : ... .. . S02 : ... .. . ... : ... .. . ... : ... .. . ... : ... .. . F03 : ... .. . S02 : === .. . ... : === .. . ...
ROW 0E : E-1 04 . ... : ... .. . ... : ... .. . ... : D-# 07 . ... : ... .. . F04 : E-0 0D . ... : E-2 09 . ... : E-3 09 . ...
ROW 0F : ... .. . S02 : ... .. . ... : ... .. . ... : ... .. . ... : ... .. . F03 : ... .. . S02 : === .. . ... : === .. . ...
ROW 10 : A-1 04 . ... : ... .. . ... : F-3 0B . ... : A-# 08 . ... : ... .. . F04 : A-0 0D . ... : B-2 09 . ... : B-3 09 . ...
ROW 11 : ... .. . ... : ... .. . ... : ... .. . ... : ... .. . ... : ... .. . F03 : ... .. . ... : === .. . ... : === .. . ...
ROW 12 : ... .. . ... : ... .. . ... : ... .. . ... : ... .. . ... : ... .. . F04 : ... .. . ... : E-2 09 . ... : E-3 09 . ...
ROW 13 : ... .. . S02 : ... .. . ... : ... .. . ... : ... .. . ... : ... .. . F03 : ... .. . S02 : === .. . ... : === .. . ...
ROW 14 : E-2 04 . ... : A-3 12 . ... : ... .. . ... : D-# 07 . ... : ... .. . F04 : E-1 0D . ... : D-2 09 . ... : D-3 09 . ...
ROW 15 : ... .. . S02 : ... .. . ... : ... .. . ... : ... .. . ... : ... .. . F03 : ... .. . S02 : === .. . ... : === .. . ...
ROW 16 : A-1 04 . ... : ... .. . ... : ... .. . ... : D-# 07 . ... : ... .. . F04 : A-0 0D . ... : E-2 09 . ... : E-3 09 . ...
ROW 17 : ... .. . S02 : ... .. . ... : ... .. . ... : ... .. . ... : ... .. . F03 : ... .. . S02 : === .. . ... : === .. . ...
ROW 18 : E-1 04 . ... : ... .. . ... : C-4 0C . ... : 8-# 06 . ... : ... .. . F04 : E-0 0D . ... : A-2 09 . ... : A-3 09 . ...
ROW 19 : ... .. . ... : ... .. . ... : ... .. . ... : ... .. . ... : ... .. . F03 : ... .. . ... : === .. . ... : === .. . ...
ROW 1A : ... .. . ... : ... .. . ... : ... .. . ... : ... .. . ... : ... .. . F04 : ... .. . ... : E-2 09 . ... : E-3 09 . ...
ROW 1B : ... .. . S02 : ... .. . ... : ... .. . ... : ... .. . ... : ... .. . F03 : ... .. . S02 : === .. . ... : === .. . ...
ROW 1C : E-2 04 . ... : A-3 12 . ... : ... .. . ... : D-# 07 . ... : ... .. . F04 : E-1 0D . ... : D-2 09 . ... : D-3 09 . ...
ROW 1D : ... .. . S02 : ... .. . ... : ... .. . ... : ... .. . ... : ... .. . F03 : ... .. . S02 : === .. . ... : === .. . ...
ROW 1E : E-1 04 . ... : ... .. . ... : ... .. . ... : D-# 07 . ... : ... .. . F04 : E-0 0D . ... : E-2 09 . ... : E-3 09 . ...
ROW 1F : ... .. . S02 : ... .. . ... : ... .. . ... : ... .. . ... : ... .. . F03 : ... .. . S02 : === .. . ... : === .. . ...
ROW 20 : A-1 04 . ... : A-3 12 . ... : F-3 0B . ... : A-# 08 . ... : ... .. . F04 : A-0 0D . ... : E-3 09 . ... : E-4 09 . ...
ROW 21 : ... .. . ... : ... .. . ... : ... .. . ... : ... .. . ... : ... .. . F03 : ... .. . ... : === .. . ... : === .. . ...
ROW 22 : ... .. . ... : ... .. . ... : ... .. . ... : ... .. . ... : ... .. . F04 : ... .. . ... : F-3 09 . ... : F-4 09 . ...
ROW 23 : ... .. . S02 : ... .. . ... : ... .. . ... : ... .. . ... : ... .. . F03 : ... .. . S02 : === .. . ... : === .. . ...
ROW 24 : G#1 04 . ... : G#3 12 . ... : ... .. . ... : D-# 07 . ... : ... .. . F04 : G#0 0D . ... : E-3 09 . ... : E-4 09 . ...
ROW 25 : ... .. . ... : ... .. . ... : ... .. . ... : ... .. . ... : ... .. . F03 : ... .. . ... : === .. . ... : === .. . ...
ROW 26 : ... .. . ... : ... .. . ... : ... .. . ... : D-# 07 . ... : ... .. . F04 : ... .. . ... : D-3 09 . ... : D-4 09 . ...
ROW 27 : ... .. . S02 : ... .. . ... : ... .. . ... : ... .. . ... : ... .. . F03 : ... .. . S02 : === .. . ... : === .. . ...
ROW 28 : G-1 04 . ... : G-3 12 . ... : C-4 0C . ... : 8-# 06 . ... : ... .. . F04 : G-0 0D . ... : E-3 09 . ... : E-4 09 . ...
ROW 29 : ... .. . ... : ... .. . ... : ... .. . ... : ... .. . ... : ... .. . F03 : ... .. . ... : === .. . ... : === .. . ...
ROW 2A : ... .. . ... : ... .. . ... : ... .. . ... : ... .. . ... : ... .. . F04 : ... .. . ... : D-3 09 . ... : D-4 09 . ...
ROW 2B : ... .. . S02 : ... .. . ... : ... .. . ... : ... .. . ... : ... .. . F03 : ... .. . S02 : === .. . ... : === .. . ...
ROW 2C : F#1 04 . ... : F#3 12 . ... : ... .. . ... : D-# 07 . ... : ... .. . F04 : F#0 0D . ... : C-3 09 . ... : C-4 09 . ...
ROW 2D : ... .. . ... : ... .. . ... : ... .. . ... : ... .. . ... : ... .. . F03 : ... .. . ... : === .. . ... : === .. . ...
ROW 2E : ... .. . ... : ... .. . ... : C-4 0C . ... : 8-# 06 . ... : ... .. . F04 : ... .. . ... : B-2 09 . ... : B-3 09 . ...
ROW 2F : ... .. . S02 : ... .. . ... : ... .. . ... : ... .. . ... : ... .. . F03 : ... .. . S02 : === .. . ... : === .. . ...
ROW 30 : F-1 04 . ... : F-3 11 . ... : F-3 0B . ... : A-# 08 . ... : ... .. . F04 : F-0 0D . ... : C-3 09 . ... : C-4 09 . ...
ROW 31 : ... .. . ... : ... .. . ... : ... .. . ... : ... .. . ... : ... .. . F03 : ... .. . ... : === .. . ... : === .. . ...
ROW 32 : ... .. . ... : ... .. . ... : ... .. . ... : ... .. . ... : ... .. . F04 : ... .. . ... : B-2 09 . ... : B-3 09 . ...
ROW 33 : ... .. . S02 : ... .. . ... : ... .. . ... : ... .. . ... : ... .. . F03 : ... .. . S02 : === .. . ... : === .. . ...
ROW 34 : C-2 04 . ... : ... .. . ... : C-4 0C . ... : 8-# 06 . ... : ... .. . F04 : C-1 0D . ... : A-2 09 . ... : A-3 09 . ...
ROW 35 : ... .. . S02 : ... .. . ... : ... .. . ... : ... .. . ... : ... .. . F03 : ... .. . S02 : === .. . ... : === .. . ...
ROW 36 : F-1 04 . ... : ... .. . ... : ... .. . ... : ... .. . ... : ... .. . F04 : F-0 0D . ... : C-3 09 . ... : C-4 09 . ...
ROW 37 : ... .. . S02 : ... .. . ... : ... .. . ... : ... .. . ... : ... .. . F03 : ... .. . S02 : === .. . ... : === .. . ...
ROW 38 : E-1 04 . ... : E-3 11 . ... : C-4 0C . ... : 8-# 06 . ... : ... .. . F04 : E-0 0D . ... : B-2 09 . ... : B-3 09 . ...
ROW 39 : ... .. . ... : ... .. . ... : ... .. . ... : ... .. . ... : ... .. . F03 : ... .. . ... : === .. . ... : === .. . ...
ROW 3A : ... .. . ... : ... .. . ... : ... .. . ... : ... .. . ... : ... .. . F04 : ... .. . ... : A-2 09 . ... : A-3 09 . ...
ROW 3B : ... .. . S02 : ... .. . ... : ... .. . ... : ... .. . ... : ... .. . F03 : ... .. . S02 : === .. . ... : === .. . ...
ROW 3C : B-1 04 . ... : ... .. . ... : C-4 0C . ... : 8-# 06 . ... : ... .. . F04 : B-0 0D . ... : G#2 09 . ... : G#3 09 . ...
ROW 3D : ... .. . S02 : ... .. . ... : ... .. . ... : ... .. . ... : ... .. . F03 : ... .. . S02 : === .. . ... : === .. . ...
ROW 3E : E-1 04 . ... : ... .. . ... : C-4 0C . ... : 8-# 06 . ... : ... .. . F04 : E-0 0D . ... : B-2 09 . ... : B-3 09 . ...
ROW 3F : ... .. . S02 : ... .. . ... : ... .. . ... : ... .. . ... : ... .. . F03 : ... .. . S02 : === .. . ... : === .. . ...

PATTERN 09
ROW 00 : A-1 04 . ... : A-3 11 . ... : F-3 0B . ... : A-# 05 . ... : ... .. . F04 : A-0 0D . ... : C#3 09 . V04 : C#4 09 . ...
ROW 01 : ... .. . ... : ... .. . ... : ... .. . ... : ... .. . ... : ... .. . F03 : ... .. . ... : ... .. . ... : ... .. . ...
ROW 02 : ... .. . ... : ... .. . ... : ... .. . ... : ... .. . ... : ... .. . F04 : ... .. . ... : === 09 . ... : === 09 . ...
ROW 03 : ... .. . S02 : ... .. . ... : ... .. . ... : ... .. . ... : ... .. . F03 : ... .. . S02 : ... .. . ... : ... .. . ...
ROW 04 : A-2 04 . ... : A-3 11 . ... : ... .. . ... : ... .. . ... : ... .. . F04 : A-1 0D . ... : A-2 09 . ... : A-3 09 . ...
ROW 05 : ... .. . S02 : ... .. . ... : ... .. . ... : ... .. . ... : ... .. . F03 : ... .. . S02 : === .. . ... : === .. . ...
ROW 06 : E-2 04 . ... : ... .. . ... : ... .. . ... : D-# 07 . ... : ... .. . F04 : E-1 0D . ... : B-2 09 . ... : B-3 09 . ...
ROW 07 : ... .. . S02 : ... .. . ... : ... .. . ... : ... .. . ... : ... .. . F03 : ... .. . S02 : === .. . ... : === .. . ...
ROW 08 : A-1 04 . ... : A-3 11 . ... : C-4 0C . ... : 8-# 06 . ... : ... .. . F04 : A-0 0D . ... : C#3 09 . ... : C#4 09 . ...
ROW 09 : ... .. . ... : ... .. . ... : ... .. . ... : ... .. . ... : ... .. . F03 : ... .. . ... : === .. . ... : === .. . ...
ROW 0A : ... .. . ... : ... .. . ... : ... .. . ... : ... .. . ... : ... .. . F04 : ... .. . ... : C#3 09 . ... : C#4 09 . ...
ROW 0B : ... .. . S02 : ... .. . ... : ... .. . ... : ... .. . ... : ... .. . F03 : ... .. . S02 : === .. . ... : === .. . ...
ROW 0C : A-2 04 . ... : A-3 11 . ... : ... .. . ... : D-# 07 . ... : ... .. . F04 : A-1 0D . ... : D-3 09 . ... : D-4 09 . ...
ROW 0D : ... .. . S02 : ... .. . ... : ... .. . ... : ... .. . ... : ... .. . F03 : ... .. . S02 : === .. . ... : === .. . ...
ROW 0E : E-2 04 . ... : ... .. . ... : ... .. . ... : D-# 07 . ... : ... .. . F04 : E-1 0D . ... : E-3 09 . ... : E-4 09 . ...
ROW 0F : ... .. . S02 : ... .. . ... : ... .. . ... : ... .. . ... : ... .. . F03 : ... .. . S02 : === .. . ... : === .. . ...
ROW 10 : D-2 04 . ... : D-4 12 . ... : F-3 0B . ... : A-# 08 . ... : ... .. . F04 : D-1 0D . ... : F-3 09 . ... : F-4 09 . ...
ROW 11 : ... .. . ... : ... .. . ... : ... .. . ... : ... .. . ... : ... .. . F03 : ... .. . ... : ... .. . ... : ... .. . ...
ROW 12 : ... .. . ... : ... .. . ... : ... .. . ... : ... .. . ... : ... .. . F04 : ... .. . ... : === .. . ... : === .. . ...
ROW 13 : ... .. . S02 : ... .. . ... : ... .. . ... : ... .. . ... : ... .. . F03 : ... .. . S02 : ... .. . ... : ... .. . ...
ROW 14 : D-3 04 . ... : D-4 12 . ... : ... .. . ... : D-# 07 . ... : ... .. . F04 : D-2 0D . ... : F-3 09 . ... : F-4 09 . ...
ROW 15 : ... .. . S02 : ... .. . ... : ... .. . ... : ... .. . ... : ... .. . F03 : ... .. . S02 : === .. . ... : === .. . ...
ROW 16 : A-2 04 . ... : ... .. . ... : ... .. . ... : D-# 07 . ... : ... .. . F04 : A-1 0D . ... : E-3 09 . ... : E-4 09 . ...
ROW 17 : ... .. . S02 : ... .. . ... : ... .. . ... : ... .. . ... : ... .. . F03 : ... .. . S02 : === .. . ... : === .. . ...
ROW 18 : D-2 04 . ... : D-4 12 . ... : C-4 0C . ... : 8-# 06 . ... : ... .. . F04 : D-1 0D . ... : D-3 09 . ... : D-4 09 . ...
ROW 19 : ... .. . ... : ... .. . ... : ... .. . ... : ... .. . ... : ... .. . F03 : ... .. . ... : === .. . ... : === .. . ...
ROW 1A : ... .. . ... : ... .. . ... : ... .. . ... : ... .. . ... : ... .. . F04 : ... .. . ... : E-3 09 . ... : E-4 09 . ...
ROW 1B : ... .. . S02 : ... .. . ... : ... .. . ... : ... .. . ... : ... .. . F03 : ... .. . S02 : === .. . ... : === .. . ...
ROW 1C : D-3 04 . ... : D-4 12 . ... : ... .. . ... : D-# 07 . ... : ... .. . F04 : D-2 0D . ... : D-3 09 . ... : D-4 09 . ...
ROW 1D : ... .. . S02 : ... .. . ... : ... .. . ... : ... .. . ... : ... .. . F03 : ... .. . S02 : === .. . ... : === .. . ...
ROW 1E : A-2 04 . ... : ... .. . ... : ... .. . ... : D-# 07 . ... : ... .. . F04 : A-1 0D . ... : C-3 09 . ... : C-4 09 . ...
ROW 1F : ... .. . S02 : ... .. . ... : ... .. . ... : ... .. . ... : ... .. . F03 : ... .. . S02 : === .. . ... : === .. . ...
ROW 20 : G-1 04 . ... : G-3 11 . ... : F-3 0B . ... : A-# 08 . ... : ... .. . F04 : G-0 0D . ... : B-2 09 . ... : B-3 09 . ...
ROW 21 : ... .. . ... : ... .. . ... : ... .. . ... : ... .. . ... : ... .. . F03 : ... .. . ... : ... .. . ... : ... .. . ...
ROW 22 : ... .. . ... : ... .. . ... : ... .. . ... : ... .. . ... : ... .. . F04 : ... .. . ... : === 09 . ... : === 09 . ...
ROW 23 : ... .. . S02 : ... .. . ... : ... .. . ... : ... .. . ... : ... .. . F03 : ... .. . S02 : ... .. . ... : ... .. . ...
ROW 24 : G-2 04 . ... : G-3 11 . ... : ... .. . ... : D-# 07 . ... : ... .. . F04 : G-1 0D . ... : G-2 09 . ... : G-3 09 . ...
ROW 25 : ... .. . S02 : ... .. . ... : ... .. . ... : ... .. . ... : ... .. . F03 : ... .. . S02 : === .. . ... : === .. . ...
ROW 26 : D-2 04 . ... : ... .. . ... : ... .. . ... : D-# 07 . ... : ... .. . F04 : D-1 0D . ... : A-2 09 . ... : A-3 09 . ...
ROW 27 : ... .. . S02 : ... .. . ... : ... .. . ... : ... .. . ... : ... .. . F03 : ... .. . S02 : === .. . ... : === .. . ...
ROW 28 : G-1 04 . ... : G-3 11 . ... : C-4 0C . ... : 8-# 06 . ... : ... .. . F04 : G-0 0D . ... : B-2 09 . ... : B-3 09 . ...
ROW 29 : ... .. . ... : ... .. . ... : ... .. . ... : ... .. . ... : ... .. . F03 : ... .. . ... : === .. . ... : === .. . ...
ROW 2A : ... .. . ... : ... .. . ... : ... .. . ... : ... .. . ... : ... .. . F04 : ... .. . ... : B-2 09 . ... : B-3 09 . ...
ROW 2B : ... .. . ... : ... .. . ... : ... .. . ... : ... .. . ... : ... .. . F03 : ... .. . ... : === .. . ... : === .. . ...
ROW 2C : G-2 04 . ... : G-3 11 . ... : ... .. . ... : D-# 07 . ... : ... .. . F04 : G-1 0D . ... : C-3 09 . ... : C-4 09 . ...
ROW 2D : ... .. . S02 : ... .. . ... : ... .. . ... : ... .. . ... : ... .. . F03 : ... .. . S02 : === .. . ... : === .. . ...
ROW 2E : D-2 04 . ... : ... .. . ... : ... .. . ... : D-# 07 . ... : ... .. . F04 : D-1 0D . ... : D-3 09 . ... : D-4 09 . ...
ROW 2F : ... .. . S02 : ... .. . ... : ... .. . ... : ... .. . ... : ... .. . F03 : ... .. . S02 : === .. . ... : === .. . ...
ROW 30 : C-2 04 . ... : C-4 11 . ... : F-3 0B . ... : A-# 08 . ... : ... .. . F04 : C-1 0D . ... : E-3 09 . ... : E-4 09 . ...
ROW 31 : ... .. . ... : ... .. . ... : ... .. . ... : ... .. . ... : ... .. . F03 : ... .. . ... : ... .. . ... : ... .. . ...
ROW 32 : ... .. . ... : ... .. . ... : ... .. . ... : ... .. . ... : ... .. . F04 : ... .. . ... : === .. . ... : === .. . ...
ROW 33 : ... .. . S02 : ... .. . ... : ... .. . ... : ... .. . ... : ... .. . F03 : ... .. . S02 : ... .. . ... : ... .. . ...
ROW 34 : C-3 04 . ... : C-4 11 . ... : ... .. . ... : D-# 07 . ... : ... .. . F04 : C-2 0D . ... : E-3 09 . ... : E-4 09 . ...
ROW 35 : ... .. . S02 : ... .. . ... : ... .. . ... : ... .. . ... : ... .. . F03 : ... .. . S02 : === .. . ... : === .. . ...
ROW 36 : G-2 04 . ... : ... .. . ... : ... .. . ... : D-# 07 . ... : ... .. . F04 : G-1 0D . ... : D-3 09 . ... : D-4 09 . ...
ROW 37 : ... .. . S02 : ... .. . ... : ... .. . ... : ... .. . ... : ... .. . F03 : ... .. . S02 : === .. . ... : === .. . ...
ROW 38 : C-2 04 . ... : C-4 11 . ... : C-4 0C . ... : 8-# 06 . ... : ... .. . F04 : C-1 0D . ... : C-3 09 . ... : C-4 09 . ...
ROW 39 : ... .. . ... : ... .. . ... : ... .. . ... : ... .. . ... : ... .. . F03 : ... .. . ... : === .. . ... : === .. . ...
ROW 3A : ... .. . ... : ... .. . ... : ... .. . ... : ... .. . ... : ... .. . F04 : ... .. . ... : D-3 09 . ... : D-4 09 . ...
ROW 3B : ... .. . ... : ... .. . ... : ... .. . ... : ... .. . ... : ... .. . F03 : ... .. . ... : === .. . ... : === .. . ...
ROW 3C : C-3 04 . ... : C-4 11 . ... : ... .. . ... : D-# 07 . ... : ... .. . F04 : C-2 0D . ... : C-3 09 . ... : C-4 09 . ...
ROW 3D : ... .. . S02 : ... .. . ... : ... .. . ... : ... .. . ... : ... .. . F03 : ... .. . S02 : === .. . ... : === .. . ...
ROW 3E : G-2 04 . ... : ... .. . ... : C-4 0C . ... : 8-# 06 . ... : ... .. . F04 : G-1 0D . ... : B-2 09 . ... : B-3 09 . ...
ROW 3F : ... .. . S02 : ... .. . ... : ... .. . ... : ... .. . ... : ... .. . F03 : ... .. . S02 : === .. . ... : === .. . ...

PATTERN 0A
ROW 00 : F-1 04 . ... : F-3 11 . ... : F-3 0B . ... : A-# 08 . ... : ... .. . F04 : F-0 0D . ... : A-2 09 . V04 : A-3 09 . ...
ROW 01 : ... .. . ... : ... .. . ... : ... .. . ... : ... .. . ... : ... .. . F03 : ... .. . ... : ... .. . ... : ... .. . ...
ROW 02 : ... .. . ... : ... .. . ... : ... .. . ... : ... .. . ... : ... .. . F04 : ... .. . ... : === .. . ... : === .. . ...
ROW 03 : ... .. . S02 : ... .. . ... : ... .. . ... : ... .. . ... : ... .. . F03 : ... .. . S02 : ... .. . ... : ... .. . ...
ROW 04 : F-2 04 . ... : F-3 11 . ... : ... .. . ... : D-# 07 . ... : ... .. . F04 : F-1 0D . ... : C-3 09 . ... : C-4 09 . ...
ROW 05 : ... .. . S02 : ... .. . ... : ... .. . ... : ... .. . ... : ... .. . F03 : ... .. . S02 : === .. . ... : === .. . ...
ROW 06 : C-2 04 . ... : ... .. . ... : ... .. . ... : D-# 07 . ... : ... .. . F04 : C-1 0D . ... : B-2 09 . ... : B-3 09 . ...
ROW 07 : ... .. . S02 : ... .. . ... : ... .. . ... : ... .. . ... : ... .. . F03 : ... .. . S02 : === .. . ... : === .. . ...
ROW 08 : F-1 04 . ... : F-3 11 . ... : C-4 0C . ... : 8-# 06 . ... : ... .. . F04 : F-0 0D . ... : A-2 09 . ... : A-3 09 . ...
ROW 09 : ... .. . ... : ... .. . ... : ... .. . ... : ... .. . ... : ... .. . F03 : ... .. . ... : ... .. . ... : ... .. . ...
ROW 0A : ... .. . ... : ... .. . ... : ... .. . ... : ... .. . ... : ... .. . F04 : ... .. . ... : === .. . ... : === .. . ...
ROW 0B : ... .. . S02 : ... .. . ... : ... .. . ... : ... .. . ... : ... .. . F03 : ... .. . S02 : ... .. . ... : ... .. . ...
ROW 0C : F-2 04 . ... : F-3 11 . ... : ... .. . ... : D-# 07 . ... : ... .. . F04 : F-1 0D . ... : A-2 09 . ... : A-3 09 . ...
ROW 0D : ... .. . S02 : ... .. . ... : ... .. . ... : ... .. . ... : ... .. . F03 : ... .. . S02 : === .. . ... : === .. . ...
ROW 0E : C-2 04 . ... : ... .. . ... : ... .. . ... : D-# 07 . ... : ... .. . F04 : C-1 0D . ... : G-2 09 . ... : G-3 09 . ...
ROW 0F : ... .. . S02 : ... .. . ... : ... .. . ... : ... .. . ... : ... .. . F03 : ... .. . S02 : === .. . ... : === .. . ...
ROW 10 : D-1 04 . ... : D-3 12 . ... : F-3 0B . ... : A-# 08 . ... : ... .. . F04 : D-0 0D . ... : F-2 09 . ... : F-3 09 . ...
ROW 11 : ... .. . ... : ... .. . ... : ... .. . ... : ... .. . ... : ... .. . F03 : ... .. . ... : ... .. . ... : ... .. . ...
ROW 12 : ... .. . ... : ... .. . ... : ... .. . ... : ... .. . ... : ... .. . F04 : ... .. . ... : === .. . ... : === .. . ...
ROW 13 : ... .. . S02 : ... .. . ... : ... .. . ... : ... .. . ... : ... .. . F03 : ... .. . S02 : ... .. . ... : ... .. . ...
ROW 14 : D-2 04 . ... : D-3 12 . ... : ... .. . ... : D-# 07 . ... : ... .. . F04 : D-1 0D . ... : A-2 09 . ... : A-3 09 . ...
ROW 15 : ... .. . S02 : ... .. . ... : ... .. . ... : ... .. . ... : ... .. . F03 : ... .. . S02 : === .. . ... : === .. . ...
ROW 16 : A-1 04 . ... : ... .. . ... : ... .. . ... : D-# 07 . ... : ... .. . F04 : A-0 0D . ... : G-2 09 . ... : G-3 09 . ...
ROW 17 : ... .. . S02 : ... .. . ... : ... .. . ... : ... .. . ... : ... .. . F03 : ... .. . S02 : === .. . ... : === .. . ...
ROW 18 : D-1 04 . ... : D-3 12 . ... : C-4 0C . ... : 8-# 06 . ... : ... .. . F04 : D-0 0D . ... : F-2 09 . ... : F-3 09 . ...
ROW 19 : ... .. . ... : ... .. . ... : ... .. . ... : ... .. . ... : ... .. . F03 : ... .. . ... : ... .. . ... : ... .. . ...
ROW 1A : ... .. . ... : ... .. . ... : ... .. . ... : ... .. . ... : ... .. . F04 : ... .. . ... : === .. . ... : === .. . ...
ROW 1B : ... .. . S02 : ... .. . ... : ... .. . ... : ... .. . ... : ... .. . F03 : ... .. . S02 : ... .. . ... : ... .. . ...
ROW 1C : D-2 04 . ... : D-3 12 . ... : ... .. . ... : D-# 07 . ... : ... .. . F04 : D-1 0D . ... : F-2 09 . ... : F-3 09 . ...
ROW 1D : ... .. . S02 : ... .. . ... : ... .. . ... : ... .. . ... : ... .. . F03 : ... .. . S02 : === 09 . ... : === 09 . ...
ROW 1E : A-1 04 . ... : ... .. . ... : ... .. . ... : D-# 07 . ... : ... .. . F04 : A-0 0D . ... : E-2 09 . ... : E-3 09 . ...
ROW 1F : ... .. . S02 : ... .. . ... : ... .. . ... : ... .. . ... : ... .. . F03 : ... .. . S02 : === .. . ... : === .. . ...
ROW 20 : D-1 04 . ... : D-3 12 . ... : F-3 0B . ... : A-# 08 . ... : ... .. . F04 : D-0 0D . ... : D-2 09 . ... : D-3 09 . ...
ROW 21 : ... .. . ... : ... .. . ... : ... .. . ... : ... .. . ... : ... .. . F03 : ... .. . ... : === .. . ... : === .. . ...
ROW 22 : ... .. . ... : ... .. . ... : ... .. . ... : ... .. . ... : ... .. . F04 : ... .. . ... : D-1 09 . ... : D-2 09 . ...
ROW 23 : ... .. . S02 : ... .. . ... : ... .. . ... : ... .. . ... : ... .. . F03 : ... .. . S02 : === .. . ... : === .. . ...
ROW 24 : D-2 04 . ... : D-3 12 . ... : ... .. . ... : D-# 07 . ... : ... .. . F04 : D-1 0D . ... : E-2 09 . ... : E-3 09 . ...
ROW 25 : ... .. . S02 : ... .. . ... : ... .. . ... : ... .. . ... : ... .. . F03 : ... .. . S02 : === .. . ... : === .. . ...
ROW 26 : A-1 04 . ... : ... .. . ... : ... .. . ... : D-# 07 . ... : ... .. . F04 : A-0 0D . ... : D-1 09 . ... : D-2 09 . ...
ROW 27 : ... .. . S02 : ... .. . ... : ... .. . ... : ... .. . ... : ... .. . F03 : ... .. . S02 : === .. . ... : === .. . ...
ROW 28 : D-1 04 . ... : D-3 12 . ... : C-4 0C . ... : 8-# 06 . ... : ... .. . F04 : D-0 0D . ... : F-2 09 . ... : F-3 09 . ...
ROW 29 : ... .. . ... : ... .. . ... : ... .. . ... : ... .. . ... : ... .. . F03 : ... .. . ... : === .. . ... : === .. . ...
ROW 2A : ... .. . ... : ... .. . ... : ... .. . ... : ... .. . ... : ... .. . F04 : ... .. . ... : D-1 09 . ... : D-2 09 . ...
ROW 2B : ... .. . S02 : ... .. . ... : ... .. . ... : ... .. . ... : ... .. . F03 : ... .. . S02 : === .. . ... : === .. . ...
ROW 2C : D-2 04 . ... : D-3 12 . ... : ... .. . ... : D-# 07 . ... : ... .. . F04 : D-1 0D . ... : D-2 09 . ... : D-3 09 . ...
ROW 2D : ... .. . S02 : ... .. . ... : ... .. . ... : ... .. . ... : ... .. . F03 : ... .. . S02 : === 09 . ... : === 09 . ...
ROW 2E : A-1 04 . ... : ... .. . ... : C-4 0C . ... : 8-# 06 . ... : ... .. . F04 : A-0 0D . ... : D-1 09 . ... : D-2 09 . ...
ROW 2F : ... .. . S02 : ... .. . ... : ... .. . ... : ... .. . ... : ... .. . F03 : ... .. . S02 : === .. . ... : === .. . ...
ROW 30 : E-1 04 . ... : E-3 11 . ... : F-3 0B . ... : A-# 08 . ... : ... .. . F04 : E-0 0D . ... : E-2 09 . ... : E-3 09 . ...
ROW 31 : ... .. . ... : ... .. . ... : ... .. . ... : ... .. . ... : ... .. . F03 : ... .. . ... : === 09 . ... : === 09 . ...
ROW 32 : ... .. . ... : ... .. . ... : ... .. . ... : ... .. . ... : ... .. . F04 : ... .. . ... : E-1 09 . ... : E-2 09 . ...
ROW 33 : ... .. . S02 : ... .. . ... : ... .. . ... : ... .. . ... : ... .. . F03 : ... .. . S02 : === 09 . ... : === 09 . ...
ROW 34 : E-2 04 . ... : E-3 11 . ... : C-4 0C . ... : 8-# 06 . ... : ... .. . F04 : E-1 0D . ... : G#2 09 . ... : G#3 09 . ...
ROW 35 : ... .. . S02 : ... .. . ... : ... .. . ... : ... .. . ... : ... .. . F03 : ... .. . S02 : === .. . ... : === .. . ...
ROW 36 : B-1 04 . ... : ... .. . ... : ... .. . ... : ... .. . ... : ... .. . F04 : B-0 0D . ... : E-1 09 . ... : E-2 09 . ...
ROW 37 : ... .. . S02 : ... .. . ... : ... .. . ... : ... .. . ... : ... .. . F03 : ... .. . S02 : === .. . ... : === .. . ...
ROW 38 : E-1 04 . ... : E-3 11 . ... : C-4 0C . ... : 8-# 06 . ... : ... .. . F04 : E-0 0D . ... : C-3 09 . ... : C-4 09 . ...
ROW 39 : ... .. . ... : ... .. . ... : ... .. . ... : ... .. . ... : ... .. . F03 : ... .. . ... : === .. . ... : === .. . ...
ROW 3A : ... .. . ... : ... .. . ... : ... .. . ... : ... .. . ... : ... .. . F04 : ... .. . ... : E-1 09 . ... : E-2 09 . ...
ROW 3B : ... .. . S02 : ... .. . ... : ... .. . ... : ... .. . ... : ... .. . F03 : ... .. . S02 : === .. . ... : === .. . ...
ROW 3C : E-2 04 . ... : E-3 11 . ... : C-4 0C . ... : 8-# 06 . ... : ... .. . F04 : E-1 0D . ... : B-2 09 . ... : B-3 09 . ...
ROW 3D : ... .. . S02 : ... .. . ... : ... .. . ... : ... .. . ... : ... .. . F03 : ... .. . S02 : === 09 . ... : === 09 . ...
ROW 3E : B-1 04 . ... : ... .. . ... : C-4 0C . ... : 8-# 06 . ... : ... .. . F04 : B-0 0D . ... : E-1 09 . ... : E-2 09 . ...
ROW 3F : ... .. . S02 : ... .. . ... : ... .. . ... : ... .. . ... : ... .. . F03 : ... .. . S02 : === .. . ... : === .. . ...

PATTERN 0B
ROW 00 : A-1 04 . ... : A-3 12 . ... : F-3 0B . ... : A-# 05 . ... : ... .. . F04 : A-0 0D . ... : A-2 09 . V04 : A-3 09 . ...
ROW 01 : ... .. . ... : ... .. . ... : ... .. . ... : ... .. . ... : ... .. . F03 : ... .. . ... : ... .. . ... : ... .. . ...
ROW 02 : ... .. . ... : ... .. . ... : ... .. . ... : ... .. . ... : ... .. . F04 : ... .. . ... : === .. . ... : === .. . ...
ROW 03 : ... .. . ... : ... .. . ... : ... .. . ... : ... .. . ... : ... .. . F03 : ... .. . ... : ... .. . ... : ... .. . ...
ROW 04 : === .. . ... : ... .. . ... : ... .. . ... : ... .. . ... : ... .. . F04 : === .. . ... : ... .. . ... : ... .. . ...
ROW 05 : ... .. . ... : ... .. . ... : ... .. . ... : ... .. . ... : ... .. . F03 : ... .. . ... : ... .. . ... : ... .. . ...
ROW 06 : ... .. . ... : ... .. . ... : ... .. . ... : A-# 07 . ... : ... .. . F04 : ... .. . ... : ... .. . ... : ... .. . ...
ROW 07 : ... .. . ... : ... .. . ... : ... .. . ... : ... .. . ... : ... .. . F03 : ... .. . ... : ... .. . ... : ... .. . ...
ROW 08 : ... .. . ... : ... .. . ... : F-3 0B . ... : 9-# 14 . ... : ... .. . F04 : ... .. . ... : E-2 09 . ... : E-3 09 . ...
ROW 09 : ... .. . ... : ... .. . ... : ... .. . ... : ... .. . ... : ... .. . F03 : ... .. . ... : ... .. . ... : ... .. . ...
ROW 0A : ... .. . ... : ... .. . ... : ... .. . ... : ... .. . ... : ... .. . F04 : ... .. . ... : === .. . ... : === .. . ...
ROW 0B : ... .. . ... : ... .. . ... : ... .. . ... : ... .. . ... : ... .. . F03 : ... .. . ... : ... .. . ... : ... .. . ...
ROW 0C : ... .. . ... : ... .. . ... : ... .. . ... : A-# 07 . ... : ... .. . F04 : ... .. . ... : E-1 09 . ... : E-2 09 . ...
ROW 0D : ... .. . ... : ... .. . ... : ... .. . ... : ... .. . ... : ... .. . F03 : ... .. . ... : ... .. . ... : ... .. . ...
ROW 0E : ... .. . ... : ... .. . ... : ... .. . ... : A-# 07 . ... : ... .. . F04 : ... .. . ... : === .. . ... : === .. . ...
ROW 0F : ... .. . ... : ... .. . ... : ... .. . ... : ... .. . ... : ... .. . F03 : ... .. . ... : ... .. . ... : ... .. . ...
ROW 10 : ... .. . ... : A-2 12 . ... : F-3 0B . ... : 9-# 14 . ... : ... .. . F04 : ... .. . ... : C-2 09 . ... : C-3 09 . ...
ROW 11 : ... .. . ... : ... .. . ... : ... .. . ... : ... .. . ... : ... .. . F03 : ... .. . ... : ... .. . ... : ... .. . ...
ROW 12 : ... .. . ... : ... .. . ... : ... .. . ... : A-# 07 . ... : ... .. . F04 : ... .. . ... : === .. . ... : === .. . ...
ROW 13 : ... .. . ... : ... .. . ... : ... .. . ... : ... .. . ... : ... .. . F03 : ... .. . ... : ... .. . ... : ... .. . ...
ROW 14 : ... .. . ... : ... .. . ... : F-3 0B . ... : 9-# 14 . ... : ... .. . F04 : ... .. . ... : A-1 09 . ... : A-2 09 . ...
ROW 15 : ... .. . ... : ... .. . ... : ... .. . ... : ... .. . ... : ... .. . F03 : ... .. . ... : ... .. . ... : ... .. . ...
ROW 16 : ... .. . ... : ... .. . ... : ... .. . ... : A-# 07 . ... : ... .. . F04 : ... .. . ... : === .. . ... : === .. . ...
ROW 17 : ... .. . ... : ... .. . ... : ... .. . ... : ... .. . ... : ... .. . F03 : ... .. . ... : ... .. . ... : ... .. . ...
ROW 18 : ... .. . ... : ... .. . ... : F-3 0B . ... : 9-# 14 . ... : ... .. . F04 : ... .. . ... : ... .. . ... : ... .. . ...
ROW 19 : ... .. . ... : ... .. . ... : ... .. . ... : ... .. . ... : ... .. . F03 : ... .. . ... : ... .. . ... : ... .. . ...
ROW 1A : ... .. . ... : ... .. . ... : ... .. . ... : ... .. . ... : ... .. . F04 : ... .. . ... : ... .. . ... : ... .. . ...
ROW 1B : ... .. . ... : ... .. . ... : ... .. . ... : ... .. . ... : ... .. . F03 : ... .. . ... : ... .. . ... : ... .. . ...
ROW 1C : A#1 04 . ... : A#2 12 . ... : ... .. . ... : A-# 07 . ... : ... .. . F04 : A#0 0D . ... : A-1 09 . ... : A-2 09 . ...
ROW 1D : ... .. . ... : ... .. . ... : ... .. . ... : ... .. . ... : ... .. . F03 : ... .. . ... : ... .. . ... : ... .. . ...
ROW 1E : === .. . ... : ... .. . ... : ... .. . ... : A-# 07 . ... : ... .. . F04 : === .. . ... : === .. . ... : === .. . ...
ROW 1F : ... .. . ... : ... .. . ... : ... .. . ... : ... .. . ... : ... .. . F03 : ... .. . ... : ... .. . ... : ... .. . ...
ROW 20 : A-1 04 . ... : A-2 12 . ... : F-3 0B . ... : 9-# 14 . ... : ... .. . F04 : A-0 0D . ... : E-2 09 . ... : E-3 09 . ...
ROW 21 : ... .. . ... : ... .. . ... : ... .. . ... : ... .. . ... : ... .. . F03 : ... .. . ... : === .. . ... : === .. . ...
ROW 22 : ... .. . ... : ... .. . ... : ... .. . ... : ... .. . ... : ... .. . F04 : ... .. . ... : F-2 09 . ... : F-3 09 . ...
ROW 23 : ... .. . ... : ... .. . ... : ... .. . ... : ... .. . ... : ... .. . F03 : ... .. . ... : === .. . ... : === .. . ...
ROW 24 : === .. . ... : ... .. . ... : ... .. . ... : A-# 07 . ... : ... .. . F04 : === .. . ... : E-2 09 . ... : E-3 09 . ...
ROW 25 : ... .. . ... : ... .. . ... : ... .. . ... : ... .. . ... : ... .. . F03 : ... .. . ... : === .. . ... : === .. . ...
ROW 26 : ... .. . ... : ... .. . ... : ... .. . ... : A-# 07 . ... : ... .. . F04 : ... .. . ... : D-2 09 . ... : D-3 09 . ...
ROW 27 : ... .. . ... : ... .. . ... : ... .. . ... : ... .. . ... : ... .. . F03 : ... .. . ... : === .. . ... : === .. . ...
ROW 28 : ... .. . ... : ... .. . ... : F-3 0B . ... : 9-# 14 . ... : ... .. . F04 : ... .. . ... : E-2 09 . ... : E-3 09 . ...
ROW 29 : ... .. . ... : ... .. . ... : ... .. . ... : ... .. . ... : ... .. . F03 : ... .. . ... : ... .. . ... : ... .. . ...
ROW 2A : ... .. . ... : ... .. . ... : ... .. . ... : ... .. . ... : ... .. . F04 : ... .. . ... : === .. . ... : === .. . ...
ROW 2B : ... .. . ... : ... .. . ... : ... .. . ... : ... .. . ... : ... .. . F03 : ... .. . ... : ... .. . ... : ... .. . ...
ROW 2C : ... .. . ... : ... .. . ... : ... .. . ... : A-# 07 . ... : ... .. . F04 : ... .. . ... : A-2 09 . ... : A-3 09 . ...
ROW 2D : ... .. . ... : ... .. . ... : ... .. . ... : ... .. . ... : ... .. . F03 : ... .. . ... : ... .. . ... : ... .. . ...
ROW 2E : ... .. . ... : ... .. . ... : ... .. . ... : A-# 07 . ... : ... .. . F04 : ... .. . ... : === .. . ... : === .. . ...
ROW 2F : ... .. . ... : ... .. . ... : ... .. . ... : ... .. . ... : ... .. . F03 : ... .. . ... : ... .. . ... : ... .. . ...
ROW 30 : ... .. . ... : A-2 12 . ... : F-3 0B . ... : 9-# 14 . ... : ... .. . F04 : ... .. . ... : C-3 09 . ... : C-4 09 . ...
ROW 31 : ... .. . ... : ... .. . ... : ... .. . ... : ... .. . ... : ... .. . F03 : ... .. . ... : ... .. . ... : ... .. . ...
ROW 32 : ... .. . ... : ... .. . ... : ... .. . ... : A-# 07 . ... : ... .. . F04 : ... .. . ... : === .. . ... : === .. . ...
ROW 33 : ... .. . ... : ... .. . ... : ... .. . ... : ... .. . ... : ... .. . F03 : ... .. . ... : ... .. . ... : ... .. . ...
ROW 34 : ... .. . ... : ... .. . ... : F-3 0B . ... : 9-# 14 . ... : ... .. . F04 : ... .. . ... : A-2 09 . ... : A-3 09 . ...
ROW 35 : ... .. . ... : ... .. . ... : ... .. . ... : ... .. . ... : ... .. . F03 : ... .. . ... : ... .. . ... : ... .. . ...
ROW 36 : ... .. . ... : ... .. . ... : ... .. . ... : A-# 07 . ... : ... .. . F04 : ... .. . ... : === .. . ... : === .. . ...
ROW 37 : ... .. . ... : ... .. . ... : ... .. . ... : ... .. . ... : ... .. . F03 : ... .. . ... : ... .. . ... : ... .. . ...
ROW 38 : D-2 04 . ... : D-3 12 . ... : F-3 0B . ... : 9-# 14 . ... : ... .. . F04 : D-1 0D . ... : E-3 09 . ... : E-4 09 . ...
ROW 39 : ... .. . ... : ... .. . ... : ... .. . ... : ... .. . ... : ... .. . F03 : ... .. . ... : ... .. . ... : ... .. . ...
ROW 3A : === .. . ... : ... .. . ... : ... .. . ... : ... .. . ... : ... .. . F04 : === .. . ... : === .. . ... : === .. . ...
ROW 3B : ... .. . ... : ... .. . ... : ... .. . ... : ... .. . ... : ... .. . F03 : ... .. . ... : ... .. . ... : ... .. . ...
ROW 3C : C-2 04 . ... : C-3 11 . ... : ... .. . ... : A-# 07 . ... : ... .. . F04 : C-1 0D . ... : ... .. . ... : ... .. . ...
ROW 3D : ... .. . ... : ... .. . ... : ... .. . ... : ... .. . ... : ... .. . F03 : ... .. . ... : ... .. . ... : ... .. . ...
ROW 3E : === .. . ... : ... .. . ... : ... .. . ... : A-# 07 . ... : ... .. . F04 : === .. . ... : ... .. . ... : ... .. . ...
ROW 3F : ... .. . ... : ... .. . ... : ... .. . ... : ... .. . ... : ... .. . F03 : ... .. . ... : ... .. . ... : ... .. . ...

PATTERN 0C
ROW 00 : A-1 04 . ... : A-2 12 . ... : F-3 0B . ... : 9-# 14 . ... : ... .. . F04 : A-0 0D . ... : A-2 09 . V04 : A-3 09 . ...
ROW 01 : ... .. . ... : ... .. . ... : ... .. . ... : ... .. . ... : ... .. . F03 : ... .. . ... : ... .. . ... : ... .. . ...
ROW 02 : === .. . ... : ... .. . ... : ... .. . ... : ... .. . ... : ... .. . F04 : === .. . ... : === .. . ... : === .. . ...
ROW 03 : ... .. . ... : ... .. . ... : ... .. . ... : ... .. . ... : ... .. . F03 : ... .. . ... : ... .. . ... : ... .. . ...
ROW 04 : A-1 04 . ... : A-2 12 . ... : ... .. . ... : A-# 07 . ... : ... .. . F04 : A-0 0D . ... : G#2 09 . ... : G#3 09 . ...
ROW 05 : ... .. . ... : ... .. . ... : ... .. . ... : ... .. . ... : ... .. . F03 : ... .. . ... : ... .. . ... : ... .. . ...
ROW 06 : === .. . ... : ... .. . ... : ... .. . ... : A-# 07 . ... : ... .. . F04 : === .. . ... : === .. . ... : === .. . ...
ROW 07 : ... .. . ... : ... .. . ... : ... .. . ... : ... .. . ... : ... .. . F03 : ... .. . ... : ... .. . ... : ... .. . ...
ROW 08 : ... .. . ... : ... .. . ... : F-3 0B . ... : 9-# 14 . ... : ... .. . F04 : ... .. . ... : B-2 09 . ... : B-3 09 . ...
ROW 09 : ... .. . ... : ... .. . ... : ... .. . ... : ... .. . ... : ... .. . F03 : ... .. . ... : ... .. . ... : ... .. . ...
ROW 0A : ... .. . ... : ... .. . ... : ... .. . ... : ... .. . ... : ... .. . F04 : ... .. . ... : === .. . ... : === .. . ...
ROW 0B : ... .. . ... : ... .. . ... : ... .. . ... : ... .. . ... : ... .. . F03 : ... .. . ... : ... .. . ... : ... .. . ...
ROW 0C : ... .. . ... : ... .. . ... : ... .. . ... : A-# 07 . ... : ... .. . F04 : ... .. . ... : A-2 09 . ... : A-3 09 . ...
ROW 0D : ... .. . ... : ... .. . ... : ... .. . ... : ... .. . ... : ... .. . F03 : ... .. . ... : ... .. . ... : ... .. . ...
ROW 0E : ... .. . ... : ... .. . ... : ... .. . ... : A-# 07 . ... : ... .. . F04 : ... .. . ... : === .. . ... : === .. . ...
ROW 0F : ... .. . ... : ... .. . ... : ... .. . ... : ... .. . ... : ... .. . F03 : ... .. . ... : ... .. . ... : ... .. . ...
ROW 10 : A-1 04 . ... : A-2 12 . ... : F-3 0B . ... : 9-# 14 . ... : ... .. . F04 : A-0 0D . ... : C-3 09 . ... : C-4 09 . ...
ROW 11 : ... .. . ... : ... .. . ... : ... .. . ... : ... .. . ... : ... .. . F03 : ... .. . ... : ... .. . ... : ... .. . ...
ROW 12 : === .. . ... : ... .. . ... : ... .. . ... : A-# 07 . ... : ... .. . F04 : === .. . ... : === .. . ... : === .. . ...
ROW 13 : ... .. . ... : ... .. . ... : ... .. . ... : ... .. . ... : ... .. . F03 : ... .. . ... : ... .. . ... : ... .. . ...
ROW 14 : A-1 04 . ... : A-2 12 . ... : F-3 0B . ... : 9-# 14 . ... : ... .. . F04 : A-0 0D . ... : B-2 09 . ... : B-3 09 . ...
ROW 15 : ... .. . ... : ... .. . ... : ... .. . ... : ... .. . ... : ... .. . F03 : ... .. . ... : ... .. . ... : ... .. . ...
ROW 16 : === .. . ... : ... .. . ... : ... .. . ... : A-# 07 . ... : ... .. . F04 : === .. . ... : === .. . ... : === .. . ...
ROW 17 : ... .. . ... : ... .. . ... : ... .. . ... : ... .. . ... : ... .. . F03 : ... .. . ... : ... .. . ... : ... .. . ...
ROW 18 : ... .. . ... : ... .. . ... : F-3 0B . ... : 9-# 14 . ... : ... .. . F04 : ... .. . ... : D-3 09 . ... : D-4 09 . ...
ROW 19 : ... .. . ... : ... .. . ... : ... .. . ... : ... .. . ... : ... .. . F03 : ... .. . ... : ... .. . ... : ... .. . ...
ROW 1A : ... .. . ... : ... .. . ... : ... .. . ... : ... .. . ... : ... .. . F04 : ... .. . ... : === .. . ... : === .. . ...
ROW 1B : ... .. . ... : ... .. . ... : ... .. . ... : ... .. . ... : ... .. . F03 : ... .. . ... : ... .. . ... : ... .. . ...
ROW 1C : A#1 04 . ... : A#2 12 . ... : ... .. . ... : A-# 07 . ... : ... .. . F04 : A#0 0D . ... : C-3 09 . ... : C-4 09 . ...
ROW 1D : ... .. . ... : ... .. . ... : ... .. . ... : ... .. . ... : ... .. . F03 : ... .. . ... : ... .. . ... : ... .. . ...
ROW 1E : === .. . ... : ... .. . ... : ... .. . ... : A-# 07 . ... : ... .. . F04 : === .. . ... : === .. . ... : === .. . ...
ROW 1F : ... .. . ... : ... .. . ... : ... .. . ... : ... .. . ... : ... .. . F03 : ... .. . ... : ... .. . ... : ... .. . ...
ROW 20 : A-1 04 . ... : A-2 12 . ... : F-3 0B . ... : 9-# 14 . ... : ... .. . F04 : A-0 0D . ... : E-3 09 . ... : E-4 09 . ...
ROW 21 : ... .. . ... : ... .. . ... : ... .. . ... : ... .. . ... : ... .. . F03 : ... .. . ... : ... .. . ... : ... .. . ...
ROW 22 : === .. . ... : ... .. . ... : ... .. . ... : ... .. . ... : ... .. . F04 : === .. . ... : === .. . ... : === .. . ...
ROW 23 : ... .. . ... : ... .. . ... : ... .. . ... : ... .. . ... : ... .. . F03 : ... .. . ... : ... .. . ... : ... .. . ...
ROW 24 : A-1 04 . ... : A-2 12 . ... : ... .. . ... : A-# 07 . ... : ... .. . F04 : A-0 0D . ... : ... .. . ... : ... .. . ...
ROW 25 : ... .. . ... : ... .. . ... : ... .. . ... : ... .. . ... : ... .. . F03 : ... .. . ... : ... .. . ... : ... .. . ...
ROW 26 : === .. . ... : ... .. . ... : ... .. . ... : A-# 07 . ... : ... .. . F04 : === .. . ... : ... .. . ... : ... .. . ...
ROW 27 : ... .. . ... : ... .. . ... : ... .. . ... : ... .. . ... : ... .. . F03 : ... .. . ... : ... .. . ... : ... .. . ...
ROW 28 : A-2 04 . ... : A-3 12 . ... : F-3 0B . ... : 9-# 14 . ... : ... .. . F04 : A-1 0D . ... : ... .. . ... : ... .. . ...
ROW 29 : ... .. . ... : ... .. . ... : ... .. . ... : ... .. . ... : ... .. . F03 : ... .. . ... : ... .. . ... : ... .. . ...
ROW 2A : ... .. . ... : ... .. . ... : ... .. . ... : ... .. . ... : ... .. . F04 : ... .. . ... : F-3 09 . ... : F-4 09 . ...
ROW 2B : ... .. . ... : ... .. . ... : ... .. . ... : ... .. . ... : ... .. . F03 : ... .. . ... : === .. . ... : === .. . ...
ROW 2C : === .. . ... : ... .. . ... : ... .. . ... : A-# 07 . ... : ... .. . F04 : === .. . ... : E-3 09 . ... : E-4 09 . ...
ROW 2D : ... .. . ... : ... .. . ... : ... .. . ... : ... .. . ... : ... .. . F03 : ... .. . ... : === .. . ... : === .. . ...
ROW 2E : ... .. . ... : ... .. . ... : ... .. . ... : A-# 07 . ... : ... .. . F04 : ... .. . ... : D-3 09 . ... : D-4 09 . ...
ROW 2F : ... .. . ... : ... .. . ... : ... .. . ... : ... .. . ... : ... .. . F03 : ... .. . ... : === .. . ... : === .. . ...
ROW 30 : E-1 04 . ... : E-3 11 . ... : F-3 0B . ... : 9-# 14 . ... : ... .. . F04 : E-0 0D . ... : E-3 09 . ... : E-4 09 . ...
ROW 31 : ... .. . ... : ... .. . ... : ... .. . ... : ... .. . ... : ... .. . F03 : ... .. . ... : ... .. . ... : ... .. . ...
ROW 32 : === .. . ... : ... .. . ... : ... .. . ... : A-# 07 . ... : ... .. . F04 : === .. . ... : === .. . ... : === .. . ...
ROW 33 : ... .. . ... : ... .. . ... : ... .. . ... : ... .. . ... : ... .. . F03 : ... .. . ... : ... .. . ... : ... .. . ...
ROW 34 : E-1 04 . ... : E-3 11 . ... : F-3 0B . ... : 9-# 14 . ... : ... .. . F04 : E-0 0D . ... : ... .. . ... : ... .. . ...
ROW 35 : ... .. . ... : ... .. . ... : ... .. . ... : ... .. . ... : ... .. . F03 : ... .. . ... : ... .. . ... : ... .. . ...
ROW 36 : === .. . ... : ... .. . ... : ... .. . ... : A-# 07 . ... : ... .. . F04 : === .. . ... : ... .. . ... : ... .. . ...
ROW 37 : ... .. . ... : ... .. . ... : ... .. . ... : ... .. . ... : ... .. . F03 : ... .. . ... : ... .. . ... : ... .. . ...
ROW 38 : E-2 04 . ... : E-4 11 . ... : F-3 0B . ... : 9-# 14 . ... : ... .. . F04 : E-1 0D . ... : ... .. . ... : ... .. . ...
ROW 39 : ... .. . ... : ... .. . ... : ... .. . ... : ... .. . ... : ... .. . F03 : ... .. . ... : ... .. . ... : ... .. . ...
ROW 3A : === .. . ... : ... .. . ... : ... .. . ... : ... .. . ... : ... .. . F04 : === .. . ... : ... .. . ... : ... .. . ...
ROW 3B : ... .. . ... : ... .. . ... : ... .. . ... : ... .. . ... : ... .. . F03 : ... .. . ... : ... .. . ... : ... .. . ...
ROW 3C : E-1 04 . ... : ... .. . ... : ... .. . ... : A-# 07 . ... : ... .. . F04 : E-0 0D . ... : ... .. . ... : ... .. . ...
ROW 3D : ... .. . ... : ... .. . ... : ... .. . ... : ... .. . ... : ... .. . F03 : ... .. . ... : ... .. . ... : ... .. . ...
ROW 3E : === .. . ... : ... .. . ... : ... .. . ... : A-# 07 . ... : ... .. . F04 : === .. . ... : ... .. . ... : ... .. . ...
ROW 3F : ... .. . ... : ... .. . ... : ... .. . ... : ... .. . ... : ... .. . F03 : ... .. . ... : ... .. . ... : ... .. . ...

PATTERN 0D
ROW 00 : A-1 04 . ... : A-2 12 . ... : F-3 0B . ... : 9-# 14 . ... : ... .. . F04 : A-0 0D . ... : A-2 09 . V04 : A-3 09 . ...
ROW 01 : ... .. . ... : ... .. . ... : ... .. . ... : ... .. . ... : ... .. . F03 : ... .. . ... : ... .. . ... : ... .. . ...
ROW 02 : === .. . ... : ... .. . ... : ... .. . ... : ... .. . ... : ... .. . F04 : === .. . ... : === .. . ... : === .. . ...
ROW 03 : ... .. . ... : ... .. . ... : ... .. . ... : ... .. . ... : ... .. . F03 : ... .. . ... : ... .. . ... : ... .. . ...
ROW 04 : A-1 04 . ... : A-2 12 . ... : ... .. . ... : A-# 07 . ... : ... .. . F04 : A-0 0D . ... : G#2 09 . ... : G#3 09 . ...
ROW 05 : ... .. . ... : ... .. . ... : ... .. . ... : ... .. . ... : ... .. . F03 : ... .. . ... : ... .. . ... : ... .. . ...
ROW 06 : === .. . ... : ... .. . ... : ... .. . ... : A-# 07 . ... : ... .. . F04 : === .. . ... : === .. . ... : === .. . ...
ROW 07 : ... .. . ... : ... .. . ... : ... .. . ... : ... .. . ... : ... .. . F03 : ... .. . ... : ... .. . ... : ... .. . ...
ROW 08 : ... .. . ... : ... .. . ... : F-3 0B . ... : 9-# 14 . ... : ... .. . F04 : ... .. . ... : B-2 09 . ... : B-3 09 . ...
ROW 09 : ... .. . ... : ... .. . ... : ... .. . ... : ... .. . ... : ... .. . F03 : ... .. . ... : ... .. . ... : ... .. . ...
ROW 0A : ... .. . ... : ... .. . ... : ... .. . ... : ... .. . ... : ... .. . F04 : ... .. . ... : === .. . ... : === .. . ...
ROW 0B : ... .. . ... : ... .. . ... : ... .. . ... : ... .. . ... : ... .. . F03 : ... .. . ... : ... .. . ... : ... .. . ...
ROW 0C : ... .. . ... : ... .. . ... : ... .. . ... : A-# 07 . ... : ... .. . F04 : ... .. . ... : A-2 09 . ... : A-3 09 . ...
ROW 0D : ... .. . ... : ... .. . ... : ... .. . ... : ... .. . ... : ... .. . F03 : ... .. . ... : ... .. . ... : ... .. . ...
ROW 0E : ... .. . ... : ... .. . ... : ... .. . ... : A-# 07 . ... : ... .. . F04 : ... .. . ... : === .. . ... : === .. . ...
ROW 0F : ... .. . ... : ... .. . ... : ... .. . ... : ... .. . ... : ... .. . F03 : ... .. . ... : ... .. . ... : ... .. . ...
ROW 10 : A-1 04 . ... : A-2 12 . ... : F-3 0B . ... : 9-# 14 . ... : ... .. . F04 : A-0 0D . ... : C-3 09 . ... : C-4 09 . ...
ROW 11 : ... .. . ... : ... .. . ... : ... .. . ... : ... .. . ... : ... .. . F03 : ... .. . ... : ... .. . ... : ... .. . ...
ROW 12 : === .. . ... : ... .. . ... : ... .. . ... : A-# 07 . ... : ... .. . F04 : === .. . ... : === .. . ... : === .. . ...
ROW 13 : ... .. . ... : ... .. . ... : ... .. . ... : ... .. . ... : ... .. . F03 : ... .. . ... : ... .. . ... : ... .. . ...
ROW 14 : A-1 04 . ... : A-2 12 . ... : F-3 0B . ... : 9-# 14 . ... : ... .. . F04 : A-0 0D . ... : B-2 09 . ... : B-3 09 . ...
ROW 15 : ... .. . ... : ... .. . ... : ... .. . ... : ... .. . ... : ... .. . F03 : ... .. . ... : ... .. . ... : ... .. . ...
ROW 16 : === .. . ... : ... .. . ... : ... .. . ... : A-# 07 . ... : ... .. . F04 : === .. . ... : === .. . ... : === .. . ...
ROW 17 : ... .. . ... : ... .. . ... : ... .. . ... : ... .. . ... : ... .. . F03 : ... .. . ... : ... .. . ... : ... .. . ...
ROW 18 : ... .. . ... : ... .. . ... : F-3 0B . ... : 9-# 14 . ... : ... .. . F04 : ... .. . ... : D-3 09 . ... : D-4 09 . ...
ROW 19 : ... .. . ... : ... .. . ... : ... .. . ... : ... .. . ... : ... .. . F03 : ... .. . ... : ... .. . ... : ... .. . ...
ROW 1A : ... .. . ... : ... .. . ... : ... .. . ... : ... .. . ... : ... .. . F04 : ... .. . ... : === .. . ... : === .. . ...
ROW 1B : ... .. . ... : ... .. . ... : ... .. . ... : ... .. . ... : ... .. . F03 : ... .. . ... : ... .. . ... : ... .. . ...
ROW 1C : A#1 04 . ... : A#2 12 . ... : ... .. . ... : A-# 07 . ... : ... .. . F04 : A#0 0D . ... : C-3 09 . ... : C-4 09 . ...
ROW 1D : ... .. . ... : ... .. . ... : ... .. . ... : ... .. . ... : ... .. . F03 : ... .. . ... : ... .. . ... : ... .. . ...
ROW 1E : === .. . ... : ... .. . ... : ... .. . ... : A-# 07 . ... : ... .. . F04 : === .. . ... : === .. . ... : === .. . ...
ROW 1F : ... .. . ... : ... .. . ... : ... .. . ... : ... .. . ... : ... .. . F03 : ... .. . ... : ... .. . ... : ... .. . ...
ROW 20 : A-1 04 . ... : A-2 12 . ... : F-3 0B . ... : 9-# 14 . ... : ... .. . F04 : A-0 0D . ... : E-3 09 . ... : E-4 09 . ...
ROW 21 : ... .. . ... : ... .. . ... : ... .. . ... : ... .. . ... : ... .. . F03 : ... .. . ... : ... .. . ... : ... .. . ...
ROW 22 : === .. . ... : ... .. . ... : ... .. . ... : ... .. . ... : ... .. . F04 : === .. . ... : === .. . ... : === .. . ...
ROW 23 : ... .. . ... : ... .. . ... : ... .. . ... : ... .. . ... : ... .. . F03 : ... .. . ... : ... .. . ... : ... .. . ...
ROW 24 : A-1 04 . ... : A-2 12 . ... : ... .. . ... : A-# 07 . ... : ... .. . F04 : A-0 0D . ... : ... .. . ... : ... .. . ...
ROW 25 : ... .. . ... : ... .. . ... : ... .. . ... : ... .. . ... : ... .. . F03 : ... .. . ... : ... .. . ... : ... .. . ...
ROW 26 : === .. . ... : ... .. . ... : ... .. . ... : A-# 07 . ... : ... .. . F04 : === .. . ... : ... .. . ... : ... .. . ...
ROW 27 : ... .. . ... : ... .. . ... : ... .. . ... : ... .. . ... : ... .. . F03 : ... .. . ... : ... .. . ... : ... .. . ...
ROW 28 : A-2 04 . ... : A-3 12 . ... : F-3 0B . ... : 9-# 14 . ... : ... .. . F04 : A-1 0D . ... : ... .. . ... : ... .. . ...
ROW 29 : ... .. . ... : ... .. . ... : ... .. . ... : ... .. . ... : ... .. . F03 : ... .. . ... : ... .. . ... : ... .. . ...
ROW 2A : ... .. . ... : ... .. . ... : ... .. . ... : ... .. . ... : ... .. . F04 : ... .. . ... : F-3 09 . ... : F-4 09 . ...
ROW 2B : ... .. . ... : ... .. . ... : ... .. . ... : ... .. . ... : ... .. . F03 : ... .. . ... : === .. . ... : === .. . ...
ROW 2C : === .. . ... : ... .. . ... : ... .. . ... : A-# 07 . ... : ... .. . F04 : === .. . ... : E-3 09 . ... : E-4 09 . ...
ROW 2D : ... .. . ... : ... .. . ... : ... .. . ... : ... .. . ... : ... .. . F03 : ... .. . ... : === .. . ... : === .. . ...
ROW 2E : ... .. . ... : ... .. . ... : ... .. . ... : A-# 07 . ... : ... .. . F04 : ... .. . ... : D-3 09 . ... : D-4 09 . ...
ROW 2F : ... .. . ... : ... .. . ... : ... .. . ... : ... .. . ... : ... .. . F03 : ... .. . ... : === .. . ... : === .. . ...
ROW 30 : E-1 04 . ... : E-3 11 . ... : F-3 0B . ... : 9-# 14 . ... : ... .. . F04 : E-0 0D . ... : E-3 09 . ... : E-4 09 . ...
ROW 31 : ... .. . ... : ... .. . ... : ... .. . ... : ... .. . ... : ... .. . F03 : ... .. . ... : ... .. . ... : ... .. . ...
ROW 32 : === .. . ... : ... .. . ... : ... .. . ... : A-# 07 . ... : ... .. . F04 : === .. . ... : === .. . ... : === .. . ...
ROW 33 : ... .. . ... : ... .. . ... : ... .. . ... : ... .. . ... : ... .. . F03 : ... .. . ... : ... .. . ... : ... .. . ...
ROW 34 : E-1 04 . ... : E-3 11 . ... : F-3 0B . ... : 9-# 14 . ... : ... .. . F04 : E-0 0D . ... : ... .. . ... : ... .. . ...
ROW 35 : ... .. . ... : ... .. . ... : ... .. . ... : ... .. . ... : ... .. . F03 : ... .. . ... : ... .. . ... : ... .. . ...
ROW 36 : === .. . ... : ... .. . ... : ... .. . ... : A-# 07 . ... : ... .. . F04 : === .. . ... : ... .. . ... : ... .. . ...
ROW 37 : ... .. . ... : ... .. . ... : ... .. . ... : ... .. . ... : ... .. . F03 : ... .. . ... : ... .. . ... : ... .. . ...
ROW 38 : E-2 04 . ... : E-4 11 . ... : F-3 0B . ... : 9-# 14 . ... : ... .. . F04 : E-1 0D . ... : ... .. . ... : ... .. . ...
ROW 39 : ... .. . ... : ... .. . ... : ... .. . ... : ... .. . ... : ... .. . F03 : ... .. . ... : ... .. . ... : ... .. . ...
ROW 3A : === .. . ... : ... .. . ... : ... .. . ... : ... .. . ... : ... .. . F04 : === .. . ... : ... .. . ... : ... .. . ...
ROW 3B : ... .. . ... : ... .. . ... : ... .. . ... : ... .. . ... : ... .. . F03 : ... .. . ... : ... .. . ... : ... .. . ...
ROW 3C : E-1 04 . ... : ... .. . ... : ... .. . ... : A-# 07 . ... : ... .. . F04 : E-0 0D . ... : ... .. . ... : ... .. . ...
ROW 3D : ... .. . ... : ... .. . ... : ... .. . ... : ... .. . ... : ... .. . F03 : ... .. . ... : ... .. . ... : ... .. . ...
ROW 3E : === .. . ... : ... .. . ... : ... .. . ... : A-# 07 . ... : ... .. . F04 : === .. . ... : ... .. . ... : ... .. . ...
ROW 3F : ... .. . B01 : ... .. . ... : ... .. . ... : ... .. . ... : ... .. . F03 : ... .. . ... : ... .. . ... : ... .. . ...

TRACK  64   4 150 "Smurfs (GB): River Smurf"
COLUMNS : 1 1 1 1 1 1 1 1

ORDER 00 : 00 00 00 00 00 00 00 00
ORDER 01 : 01 01 01 01 01 01 01 01
ORDER 02 : 02 02 02 02 02 02 02 02
ORDER 03 : 03 03 03 03 03 03 03 03
ORDER 04 : 00 00 00 00 00 00 00 00
ORDER 05 : 01 01 01 01 01 01 01 01
ORDER 06 : 02 02 02 02 02 02 02 02
ORDER 07 : 03 03 03 03 03 03 03 03
ORDER 08 : 04 04 04 04 04 04 04 04
ORDER 09 : 05 05 05 05 05 05 05 05
ORDER 0A : 04 04 04 04 04 04 04 04
ORDER 0B : 05 05 05 05 05 05 05 05
ORDER 0C : 06 06 06 06 06 06 06 06
ORDER 0D : 07 07 07 07 07 07 07 07
ORDER 0E : 08 08 08 08 08 08 08 08
ORDER 0F : 09 09 09 09 09 09 09 09
ORDER 10 : 00 00 00 00 00 00 00 00
ORDER 11 : 01 01 01 01 01 01 01 01
ORDER 12 : 02 02 02 02 02 02 02 02
ORDER 13 : 03 03 03 03 03 03 03 03

PATTERN 00
ROW 00 : D-1 04 . ... : D-2 16 . ... : F-3 0B . ... : C-# 07 F ... : ... .. . ... : D-0 0D . ... : A-3 09 . V03 : ... .. . ...
ROW 01 : ... .. . ... : ... .. . ... : ... .. . ... : ... .. . ... : ... .. . ... : ... .. . ... : ... .. . ... : ... .. . ...
ROW 02 : ... .. . ... : ... .. . ... : ... .. . ... : ... .. . ... : ... .. . ... : ... .. . ... : === .. . ... : ... .. . ...
ROW 03 : ... .. . ... : ... .. . ... : ... .. . ... : ... .. . ... : ... .. . ... : ... .. . ... : ... .. . ... : ... .. . ...
ROW 04 : === .. . ... : D-2 16 . ... : ... .. . ... : C-# 07 . ... : ... .. . ... : ... .. . ... : ... .. . ... : A-3 09 7 ...
ROW 05 : ... .. . ... : ... .. . ... : ... .. . ... : ... .. . ... : ... .. . ... : ... .. . ... : ... .. . ... : ... .. . ...
ROW 06 : ... .. . ... : ... .. . ... : ... .. . ... : ... .. . ... : ... .. . ... : ... .. . ... : G-3 09 . ... : === .. . ...
ROW 07 : ... .. . ... : ... .. . ... : ... .. . ... : ... .. . ... : ... .. . ... : ... .. . ... : === .. . ... : ... .. . ...
ROW 08 : A-2 16 . ... : D-3 16 . ... : C-4 0C . ... : 8-# 18 . ... : ... .. . ... : === .. . ... : F-3 09 . ... : ... .. . ...
ROW 09 : ... .. . ... : ... .. . ... : ... .. . ... : ... .. . ... : ... .. . ... : ... .. . ... : ... .. . ... : ... .. . ...
ROW 0A : ... .. . ... : ... .. . ... : ... .. . ... : ... .. . ... : ... .. . ... : ... .. . ... : === .. . ... : G-3 09 . ...
ROW 0B : ... .. . ... : ... .. . ... : ... .. . ... : ... .. . ... : ... .. . ... : ... .. . ... : ... .. . ... : === .. . ...
ROW 0C : ... .. . ... : D-2 16 . ... : ... .. . ... : C-# 07 . ... : ... .. . ... : ... .. . ... : E-3 09 . ... : F-3 09 . ...
ROW 0D : ... .. . ... : ... .. . ... : ... .. . ... : ... .. . ... : ... .. . ... : ... .. . ... : ... .. . ... : ... .. . ...
ROW 0E : ... .. . ... : ... .. . ... : ... .. . ... : ... .. . ... : ... .. . ... : ... .. . ... : === .. . ... : === .. . ...
ROW 0F : ... .. . ... : ... .. . ... : ... .. . ... : ... .. . ... : ... .. . ... : ... .. . ... : ... .. . ... : ... .. . ...
ROW 10 : A-1 04 . ... : D-2 16 . ... : F-3 0B . ... : C-# 07 . ... : ... .. . ... : A-0 0D . ... : F-3 09 . ... : E-3 09 . ...
ROW 11 : ... .. . ... : ... .. . ... : ... .. . ... : ... .. . ... : ... .. . ... : ... .. . ... : ... .. . ... : ... .. . ...
ROW 12 : ... .. . ... : ... .. . ... : ... .. . ... : ... .. . ... : ... .. . ... : ... .. . ... : === .. . ... : === .. . ...
ROW 13 : ... .. . ... : ... .. . ... : ... .. . ... : ... .. . ... : ... .. . ... : ... .. . ... : ... .. . ... : ... .. . ...
ROW 14 : === .. . ... : A-2 16 . ... : ... .. . ... : C-# 07 . ... : ... .. . ... : ... .. . ... : G-3 09 . ... : F-3 09 . ...
ROW 15 : ... .. . ... : ... .. . ... : ... .. . ... : ... .. . ... : ... .. . ... : ... .. . ... : ... .. . ... : ... .. . ...
ROW 16 : ... .. . ... : ... .. . ... : ... .. . ... : ... .. . ... : ... .. . ... : ... .. . ... : === .. . ... : === .. . ...
ROW 17 : ... .. . ... : ... .. . ... : ... .. . ... : ... .. . ... : ... .. . ... : ... .. . ... : ... .. . ... : ... .. . ...
ROW 18 : A-2 16 . ... : D-3 16 . ... : C-4 0C . ... : 8-# 18 . ... : ... .. . ... : === .. . ... : F-3 09 . ... : G-3 09 . ...
ROW 19 : ... .. . ... : ... .. . ... : ... .. . ... : ... .. . ... : ... .. . ... : ... .. . ... : ... .. . ... : ... .. . ...
ROW 1A : ... .. . ... : ... .. . ... : ... .. . ... : ... .. . ... : ... .. . ... : ... .. . ... : === .. . ... : === .. . ...
ROW 1B : ... .. . ... : ... .. . ... : ... .. . ... : ... .. . ... : ... .. . ... : ... .. . ... : ... .. . ... : ... .. . ...
ROW 1C : ... .. . ... : F-2 16 . ... : ... .. . ... : C-# 07 . ... : ... .. . ... : ... .. . ... : E-3 09 . ... : F-3 09 . ...
ROW 1D : ... .. . ... : ... .. . ... : ... .. . ... : ... .. . ... : ... .. . ... : ... .. . ... : ... .. . ... : ... .. . ...
ROW 1E : ... .. . ... : ... .. . ... : ... .. . ... : ... .. . ... : ... .. . ... : ... .. . ... : === .. . ... : === .. . ...
ROW 1F : ... .. . ... : ... .. . ... : ... .. . ... : ... .. . ... : ... .. . ... : ... .. . ... : ... .. . ... : ... .. . ...
ROW 20 : D-1 04 . ... : D-2 16 . ... : F-3 0B . ... : C-# 07 . ... : ... .. . ... : D-0 0D . ... : D-3 09 . ... : E-3 09 . ...
ROW 21 : ... .. . ... : ... .. . ... : ... .. . ... : ... .. . ... : ... .. . ... : ... .. . ... : ... .. . ... : ... .. . ...
ROW 22 : ... .. . ... : ... .. . ... : ... .. . ... : ... .. . ... : ... .. . ... : ... .. . ... : === .. . ... : === .. . ...
ROW 23 : ... .. . ... : ... .. . ... : ... .. . ... : ... .. . ... : ... .. . ... : ... .. . ... : ... .. . ... : ... .. . ...
ROW 24 : === .. . ... : D-2 16 . ... : ... .. . ... : C-# 07 . ... : ... .. . ... : ... .. . ... : ... .. . ... : D-3 09 . ...
ROW 25 : ... .. . ... : ... .. . ... : ... .. . ... : ... .. . ... : ... .. . ... : ... .. . ... : ... .. . ... : ... .. . ...
ROW 26 : ... .. . ... : ... .. . ... : ... .. . ... : ... .. . ... : ... .. . ... : ... .. . ... : E-3 09 . ... : === .. . ...
ROW 27 : ... .. . ... : ... .. . ... : ... .. . ... : ... .. . ... : ... .. . ... : ... .. . ... : === .. . ... : ... .. . ...
ROW 28 : A-2 16 . ... : D-3 16 . ... : C-4 0C . ... : 8-# 18 . ... : ... .. . ... : === .. . ... : F-3 09 . ... : ... .. . ...
ROW 29 : ... .. . ... : ... .. . ... : ... .. . ... : ... .. . ... : ... .. . ... : ... .. . ... : ... .. . ... : ... .. . ...
ROW 2A : ... .. . ... : ... .. . ... : ... .. . ... : ... .. . ... : ... .. . ... : ... .. . ... : === .. . ... : E-3 09 . ...
ROW 2B : ... .. . ... : ... .. . ... : ... .. . ... : ... .. . ... : ... .. . ... : ... .. . ... : ... .. . ... : === .. . ...
ROW 2C : ... .. . ... : D-2 16 . ... : ... .. . ... : C-# 07 . ... : ... .. . ... : ... .. . ... : F-3 09 . ... : F-3 09 . ...
ROW 2D : ... .. . ... : ... .. . ... : ... .. . ... : ... .. . ... : ... .. . ... : ... .. . ... : === .. . ... : ... .. . ...
ROW 2E : ... .. . ... : ... .. . ... : ... .. . ... : ... .. . ... : ... .. . ... : ... .. . ... : G-3 09 . ... : === .. . ...
ROW 2F : ... .. . ... : ... .. . ... : ... .. . ... : ... .. . ... : ... .. . ... : ... .. . ... : === .. . ... : ... .. . ...
ROW 30 : A-1 04 . ... : D-2 16 . ... : F-3 0B . ... : C-# 07 . ... : ... .. . ... : A-0 0D . ... : A-3 09 . ... : F-3 09 . ...
ROW 31 : ... .. . ... : ... .. . ... : ... .. . ... : ... .. . ... : ... .. . ... : ... .. . ... : ... .. . ... : === .. . ...
ROW 32 : ... .. . ... : ... .. . ... : ... .. . ... : ... .. . ... : ... .. . ... : ... .. . ... : === .. . ... : G-3 09 . ...
ROW 33 : ... .. . ... : ... .. . ... : ... .. . ... : ... .. . ... : ... .. . ... : ... .. . ... : ... .. . ... : === .. . ...
ROW 34 : === .. . ... : A-2 16 . ... : ... .. . ... : C-# 07 . ... : ... .. . ... : ... .. . ... : A-3 09 . ... : A-3 09 . ...
ROW 35 : ... .. . ... : ... .. . ... : ... .. . ... : ... .. . ... : ... .. . ... : ... .. . ... : === .. . ... : ... .. . ...
ROW 36 : ... .. . ... : ... .. . ... : ... .. . ... : ... .. . ... : ... .. . ... : ... .. . ... : G-3 09 . ... : === .. . ...
ROW 37 : ... .. . ... : ... .. . ... : ... .. . ... : ... .. . ... : ... .. . ... : ... .. . ... : === 09 . ... : ... .. . ...
ROW 38 : A-2 16 . ... : D-3 16 . ... : C-4 0C . ... : 8-# 18 . ... : ... .. . ... : === .. . ... : F-3 09 . ... : A-3 09 . ...
ROW 39 : ... .. . ... : ... .. . ... : ... .. . ... : ... .. . ... : ... .. . ... : ... .. . ... : ... .. . ... : === .. . ...
ROW 3A : ... .. . ... : ... .. . ... : ... .. . ... : ... .. . ... : ... .. . ... : ... .. . ... : ... .. . ... : G-3 09 . ...
ROW 3B : ... .. . ... : ... .. . ... : ... .. . ... : ... .. . ... : ... .. . ... : ... .. . ... : ... .. . ... : === 09 . ...
ROW 3C : ... .. . ... : F-2 16 . ... : ... .. . ... : C-# 07 . ... : ... .. . ... : ... .. . ... : === .. . ... : F-3 09 . ...
ROW 3D : ... .. . ... : ... .. . ... : ... .. . ... : ... .. . ... : ... .. . ... : ... .. . ... : ... .. . ... : ... .. . ...
ROW 3E : ... .. . ... : ... .. . ... : ... .. . ... : C-# 07 . ... : ... .. . ... : ... .. . ... : ... .. . ... : ... .. . ...
ROW 3F : ... .. . ... : ... .. . ... : ... .. . ... : ... .. . ... : ... .. . ... : ... .. . ... : ... .. . ... : ... .. . ...

PATTERN 01
ROW 00 : F-1 04 . ... : F-2 16 . ... : F-3 0B . ... : C-# 07 . ... : ... .. . ... : F-0 0D . ... : ... .. . ... : === .. . ...
ROW 01 : ... .. . ... : ... .. . ... : ... .. . ... : ... .. . ... : ... .. . ... : ... .. . ... : ... .. . ... : ... .. . ...
ROW 02 : ... .. . ... : ... .. . ... : ... .. . ... : ... .. . ... : ... .. . ... : ... .. . ... : ... .. . ... : ... .. . ...
ROW 03 : ... .. . ... : ... .. . ... : ... .. . ... : ... .. . ... : ... .. . ... : ... .. . ... : ... .. . ... : ... .. . ...
ROW 04 : === .. . ... : F-2 16 . ... : ... .. . ... : C-# 07 . ... : ... .. . ... : ... .. . ... : ... .. . ... : ... .. . ...
ROW 05 : ... .. . ... : ... .. . ... : ... .. . ... : ... .. . ... : ... .. . ... : ... .. . ... : ... .. . ... : ... .. . ...
ROW 06 : ... .. . ... : ... .. . ... : ... .. . ... : ... .. . ... : ... .. . ... : ... .. . ... : ... .. . ... : ... .. . ...
ROW 07 : ... .. . ... : ... .. . ... : ... .. . ... : ... .. . ... : ... .. . ... : ... .. . ... : ... .. . ... : ... .. . ...
ROW 08 : C-3 16 . ... : F-3 16 . ... : C-4 0C . ... : 8-# 18 . ... : ... .. . ... : === .. . ... : A-3 09 . V03 : ... .. . ...
ROW 09 : ... .. . ... : ... .. . ... : ... .. . ... : ... .. . ... : ... .. . ... : ... .. . ... : ... .. . ... : ... .. . ...
ROW 0A : ... .. . ... : ... .. . ... : ... .. . ... : ... .. . ... : ... .. . ... : ... .. . ... : === .. . ... : ... .. . ...
ROW 0B : ... .. . ... : ... .. . ... : ... .. . ... : ... .. . ... : ... .. . ... : ... .. . ... : ... .. . ... : ... .. . ...
ROW 0C : ... .. . ... : F-2 16 . ... : ... .. . ... : C-# 07 . ... : ... .. . ... : ... .. . ... : B-3 09 . ... : A-3 09 7 ...
ROW 0D : ... .. . ... : ... .. . ... : ... .. . ... : ... .. . ... : ... .. . ... : ... .. . ... : ... .. . ... : ... .. . ...
ROW 0E : ... .. . ... : ... .. . ... : ... .. . ... : ... .. . ... : ... .. . ... : ... .. . ... : === .. . ... : === .. . ...
ROW 0F : ... .. . ... : ... .. . ... : ... .. . ... : ... .. . ... : ... .. . ... : ... .. . ... : ... .. . ... : ... .. . ...
ROW 10 : C-2 04 . ... : F-2 16 . ... : F-3 0B . ... : C-# 07 . ... : ... .. . ... : C-1 0D . ... : C-4 09 . ... : B-3 09 . ...
ROW 11 : ... .. . ... : ... .. . ... : ... .. . ... : ... .. . ... : ... .. . ... : ... .. . ... : ... .. . ... : ... .. . ...
ROW 12 : ... .. . ... : ... .. . ... : ... .. . ... : ... .. . ... : ... .. . ... : ... .. . ... : === .. . ... : === .. . ...
ROW 13 : ... .. . ... : ... .. . ... : ... .. . ... : ... .. . ... : ... .. . ... : ... .. . ... : ... .. . ... : ... .. . ...
ROW 14 : === .. . ... : C-3 16 . ... : ... .. . ... : C-# 07 . ... : ... .. . ... : ... .. . ... : ... .. . ... : C-4 09 . ...
ROW 15 : ... .. . ... : ... .. . ... : ... .. . ... : ... .. . ... : ... .. . ... : ... .. . ... : ... .. . ... : ... .. . ...
ROW 16 : ... .. . ... : ... .. . ... : ... .. . ... : ... .. . ... : ... .. . ... : ... .. . ... : B-3 09 . ... : === .. . ...
ROW 17 : ... .. . ... : ... .. . ... : ... .. . ... : ... .. . ... : ... .. . ... : ... .. . ... : === .. . ... : ... .. . ...
ROW 18 : C-3 16 . ... : F-3 16 . ... : C-4 0C . ... : 8-# 18 . ... : ... .. . ... : === .. . ... : A-3 09 . ... : ... .. . ...
ROW 19 : ... .. . ... : ... .. . ... : ... .. . ... : ... .. . ... : ... .. . ... : ... .. . ... : ... .. . ... : ... .. . ...
ROW 1A : ... .. . ... : ... .. . ... : ... .. . ... : ... .. . ... : ... .. . ... : ... .. . ... : === .. . ... : B-3 09 . ...
ROW 1B : ... .. . ... : ... .. . ... : ... .. . ... : ... .. . ... : ... .. . ... : ... .. . ... : ... .. . ... : === .. . ...
ROW 1C : ... .. . ... : A-2 16 . ... : ... .. . ... : C-# 07 . ... : ... .. . ... : ... .. . ... : B-3 09 . ... : A-3 09 . ...
ROW 1D : ... .. . ... : ... .. . ... : ... .. . ... : ... .. . ... : ... .. . ... : ... .. . ... : ... .. . ... : ... .. . ...
ROW 1E : ... .. . ... : ... .. . ... : ... .. . ... : ... .. . ... : ... .. . ... : ... .. . ... : === .. . ... : === .. . ...
ROW 1F : ... .. . ... : ... .. . ... : ... .. . ... : ... .. . ... : ... .. . ... : ... .. . ... : ... .. . ... : ... .. . ...
ROW 20 : F-1 04 . ... : F-2 16 . ... : F-3 0B . ... : C-# 07 . ... : ... .. . ... : F-0 0D . ... : C-4 09 . ... : B-3 09 . ...
ROW 21 : ... .. . ... : ... .. . ... : ... .. . ... : ... .. . ... : ... .. . ... : ... .. . ... : ... .. . ... : ... .. . ...
ROW 22 : ... .. . ... : ... .. . ... : ... .. . ... : ... .. . ... : ... .. . ... : ... .. . ... : === .. . ... : === .. . ...
ROW 23 : ... .. . ... : ... .. . ... : ... .. . ... : ... .. . ... : ... .. . ... : ... .. . ... : ... .. . ... : ... .. . ...
ROW 24 : === .. . ... : F-2 16 . ... : ... .. . ... : C-# 07 . ... : ... .. . ... : ... .. . ... : D-4 09 . ... : C-4 09 . ...
ROW 25 : ... .. . ... : ... .. . ... : ... .. . ... : ... .. . ... : ... .. . ... : ... .. . ... : ... .. . ... : ... .. . ...
ROW 26 : ... .. . ... : ... .. . ... : ... .. . ... : ... .. . ... : ... .. . ... : ... .. . ... : === .. . ... : === .. . ...
ROW 27 : ... .. . ... : ... .. . ... : ... .. . ... : ... .. . ... : ... .. . ... : ... .. . ... : ... .. . ... : ... .. . ...
ROW 28 : C-3 16 . ... : F-3 16 . ... : C-4 0C . ... : 8-# 18 . ... : ... .. . ... : === .. . ... : A-3 09 . ... : D-4 09 . ...
ROW 29 : ... .. . ... : ... .. . ... : ... .. . ... : ... .. . ... : ... .. . ... : ... .. . ... : ... .. . ... : ... .. . ...
ROW 2A : ... .. . ... : ... .. . ... : ... .. . ... : ... .. . ... : ... .. . ... : ... .. . ... : === .. . ... : === .. . ...
ROW 2B : ... .. . ... : ... .. . ... : ... .. . ... : ... .. . ... : ... .. . ... : ... .. . ... : ... .. . ... : ... .. . ...
ROW 2C : ... .. . ... : F-2 16 . ... : ... .. . ... : C-# 07 . ... : ... .. . ... : ... .. . ... : B-3 09 . ... : A-3 09 . ...
ROW 2D : ... .. . ... : ... .. . ... : ... .. . ... : ... .. . ... : ... .. . ... : ... .. . ... : ... .. . ... : ... .. . ...
ROW 2E : ... .. . ... : ... .. . ... : ... .. . ... : ... .. . ... : ... .. . ... : ... .. . ... : === .. . ... : === .. . ...
ROW 2F : ... .. . ... : ... .. . ... : ... .. . ... : ... .. . ... : ... .. . ... : ... .. . ... : ... .. . ... : ... .. . ...
ROW 30 : C-2 04 . ... : F-2 16 . ... : F-3 0B . ... : C-# 07 . ... : ... .. . ... : C-1 0D . ... : C-4 09 . ... : B-3 09 . ...
ROW 31 : ... .. . ... : ... .. . ... : ... .. . ... : ... .. . ... : ... .. . ... : ... .. . ... : ... .. . ... : ... .. . ...
ROW 32 : ... .. . ... : ... .. . ... : ... .. . ... : ... .. . ... : ... .. . ... : ... .. . ... : === .. . ... : === .. . ...
ROW 33 : ... .. . ... : ... .. . ... : ... .. . ... : ... .. . ... : ... .. . ... : ... .. . ... : ... .. . ... : ... .. . ...
ROW 34 : === .. . ... : C-3 16 . ... : ... .. . ... : C-# 07 . ... : ... .. . ... : ... .. . ... : ... .. . ... : C-4 09 . ...
ROW 35 : ... .. . ... : ... .. . ... : ... .. . ... : ... .. . ... : ... .. . ... : ... .. . ... : ... .. . ... : ... .. . ...
ROW 36 : ... .. . ... : ... .. . ... : ... .. . ... : ... .. . ... : ... .. . ... : ... .. . ... : ... .. . ... : === .. . ...
ROW 37 : ... .. . ... : ... .. . ... : ... .. . ... : ... .. . ... : ... .. . ... : ... .. . ... : ... .. . ... : ... .. . ...
ROW 38 : C-3 16 . ... : F-3 16 . ... : C-4 0C . ... : 8-# 18 . ... : ... .. . ... : === .. . ... : A-3 09 . ... : ... .. . ...
ROW 39 : ... .. . ... : ... .. . ... : ... .. . ... : ... .. . ... : ... .. . ... : ... .. . ... : ... .. . ... : ... .. . ...
ROW 3A : ... .. . ... : ... .. . ... : ... .. . ... : ... .. . ... : ... .. . ... : ... .. . ... : === .. . ... : ... .. . ...
ROW 3B : ... .. . ... : ... .. . ... : ... .. . ... : ... .. . ... : ... .. . ... : ... .. . ... : ... .. . ... : ... .. . ...
ROW 3C : ... .. . ... : A-2 16 . ... : ... .. . ... : C-# 07 . ... : ... .. . ... : ... .. . ... : ... .. . ... : A-3 09 . ...
ROW 3D : ... .. . ... : ... .. . ... : ... .. . ... : ... .. . ... : ... .. . ... : ... .. . ... : ... .. . ... : ... .. . ...
ROW 3E : ... .. . ... : ... .. . ... : ... .. . ... : C-# 07 . ... : ... .. . ... : ... .. . ... : ... .. . ... : === .. . ...
ROW 3F : ... .. . ... : ... .. . ... : ... .. . ... : ... .. . ... : ... .. . ... : ... .. . ... : ... .. . ... : ... .. . ...

PATTERN 02
ROW 00 : G-1 04 . ... : G-2 16 . ... : F-3 0B . ... : C-# 07 . ... : ... .. . ... : G-0 0D . ... : ... .. . ... : ... .. . ...
ROW 01 : ... .. . ... : ... .. . ... : ... .. . ... : ... .. . ... : ... .. . ... : ... .. . ... : ... .. . ... : ... .. . ...
ROW 02 : ... .. . ... : ... .. . ... : ... .. . ... : ... .. . ... : ... .. . ... : ... .. . ... : ... .. . ... : ... .. . ...
ROW 03 : ... .. . ... : ... .. . ... : ... .. . ... : ... .. . ... : ... .. . ... : ... .. . ... : ... .. . ... : ... .. . ...
ROW 04 : === .. . ... : G-2 16 . ... : ... .. . ... : C-# 07 . ... : ... .. . ... : ... .. . ... : B-3 09 . V03 : ... .. . ...
ROW 05 : ... .. . ... : ... .. . ... : ... .. . ... : ... .. . ... : ... .. . ... : ... .. . ... : ... .. . ... : ... .. . ...
ROW 06 : ... .. . ... : ... .. . ... : ... .. . ... : ... .. . ... : ... .. . ... : ... .. . ... : === .. . ... : ... .. . ...
ROW 07 : ... .. . ... : ... .. . ... : ... .. . ... : ... .. . ... : ... .. . ... : ... .. . ... : ... .. . ... : ... .. . ...
ROW 08 : D-3 16 . ... : G-3 16 . ... : C-4 0C . ... : 8-# 18 . ... : ... .. . ... : === .. . ... : B-3 09 . ... : B-3 09 7 ...
ROW 09 : ... .. . ... : ... .. . ... : ... .. . ... : ... .. . ... : ... .. . ... : ... .. . ... : ... .. . ... : ... .. . ...
ROW 0A : ... .. . ... : ... .. . ... : ... .. . ... : ... .. . ... : ... .. . ... : ... .. . ... : === .. . ... : === .. . ...
ROW 0B : ... .. . ... : ... .. . ... : ... .. . ... : ... .. . ... : ... .. . ... : ... .. . ... : ... .. . ... : ... .. . ...
ROW 0C : ... .. . ... : G-2 16 . ... : ... .. . ... : C-# 07 . ... : ... .. . ... : ... .. . ... : C-4 09 . ... : B-3 09 . ...
ROW 0D : ... .. . ... : ... .. . ... : ... .. . ... : ... .. . ... : ... .. . ... : ... .. . ... : ... .. . ... : ... .. . ...
ROW 0E : ... .. . ... : ... .. . ... : ... .. . ... : ... .. . ... : ... .. . ... : ... .. . ... : === .. . ... : === .. . ...
ROW 0F : ... .. . ... : ... .. . ... : ... .. . ... : ... .. . ... : ... .. . ... : ... .. . ... : ... .. . ... : ... .. . ...
ROW 10 : D-2 04 . ... : G-2 16 . ... : F-3 0B . ... : C-# 07 . ... : ... .. . ... : D-1 0D . ... : C-4 09 . ... : C-4 09 . ...
ROW 11 : ... .. . ... : ... .. . ... : ... .. . ... : ... .. . ... : ... .. . ... : ... .. . ... : ... .. . ... : ... .. . ...
ROW 12 : ... .. . ... : ... .. . ... : ... .. . ... : ... .. . ... : ... .. . ... : ... .. . ... : === .. . ... : === .. . ...
ROW 13 : ... .. . ... : ... .. . ... : ... .. . ... : ... .. . ... : ... .. . ... : ... .. . ... : ... .. . ... : ... .. . ...
ROW 14 : === .. . ... : D-3 16 . ... : ... .. . ... : C-# 07 . ... : ... .. . ... : ... .. . ... : B-3 09 . ... : C-4 09 . ...
ROW 15 : ... .. . ... : ... .. . ... : ... .. . ... : ... .. . ... : ... .. . ... : ... .. . ... : ... .. . ... : ... .. . ...
ROW 16 : ... .. . ... : ... .. . ... : ... .. . ... : ... .. . ... : ... .. . ... : ... .. . ... : === 09 . ... : === .. . ...
ROW 17 : ... .. . ... : ... .. . ... : ... .. . ... : ... .. . ... : ... .. . ... : ... .. . ... : ... .. . ... : ... .. . ...
ROW 18 : D-3 16 . ... : G-3 16 . ... : C-4 0C . ... : 8-# 18 . ... : ... .. . ... : === .. . ... : B-3 09 . ... : B-3 09 . ...
ROW 19 : ... .. . ... : ... .. . ... : ... .. . ... : ... .. . ... : ... .. . ... : ... .. . ... : ... .. . ... : ... .. . ...
ROW 1A : ... .. . ... : ... .. . ... : ... .. . ... : ... .. . ... : ... .. . ... : ... .. . ... : === .. . ... : === 09 . ...
ROW 1B : ... .. . ... : ... .. . ... : ... .. . ... : ... .. . ... : ... .. . ... : ... .. . ... : ... .. . ... : ... .. . ...
ROW 1C : ... .. . ... : B-2 16 . ... : ... .. . ... : C-# 07 . ... : ... .. . ... : ... .. . ... : A-3 09 . ... : B-3 09 . ...
ROW 1D : ... .. . ... : ... .. . ... : ... .. . ... : ... .. . ... : ... .. . ... : ... .. . ... : ... .. . ... : ... .. . ...
ROW 1E : ... .. . ... : ... .. . ... : ... .. . ... : ... .. . ... : ... .. . ... : ... .. . ... : === .. . ... : === .. . ...
ROW 1F : ... .. . ... : ... .. . ... : ... .. . ... : ... .. . ... : ... .. . ... : ... .. . ... : ... .. . ... : ... .. . ...
ROW 20 : G-1 04 . ... : G-2 16 . ... : F-3 0B . ... : C-# 07 . ... : ... .. . ... : G-0 0D . ... : ... .. . ... : A-3 09 . ...
ROW 21 : ... .. . ... : ... .. . ... : ... .. . ... : ... .. . ... : ... .. . ... : ... .. . ... : ... .. . ... : ... .. . ...
ROW 22 : ... .. . ... : ... .. . ... : ... .. . ... : ... .. . ... : ... .. . ... : ... .. . ... : ... .. . ... : === .. . ...
ROW 23 : ... .. . ... : ... .. . ... : ... .. . ... : ... .. . ... : ... .. . ... : ... .. . ... : ... .. . ... : ... .. . ...
ROW 24 : === .. . ... : G-2 16 . ... : ... .. . ... : C-# 07 . ... : ... .. . ... : ... .. . ... : B-3 09 . ... : ... .. . ...
ROW 25 : ... .. . ... : ... .. . ... : ... .. . ... : ... .. . ... : ... .. . ... : ... .. . ... : ... .. . ... : ... .. . ...
ROW 26 : ... .. . ... : ... .. . ... : ... .. . ... : ... .. . ... : ... .. . ... : ... .. . ... : === .. . ... : ... .. . ...
ROW 27 : ... .. . ... : ... .. . ... : ... .. . ... : ... .. . ... : ... .. . ... : ... .. . ... : ... .. . ... : ... .. . ...
ROW 28 : D-3 16 . ... : G-3 16 . ... : C-4 0C . ... : 8-# 18 . ... : ... .. . ... : === .. . ... : B-3 09 . ... : B-3 09 . ...
ROW 29 : ... .. . ... : ... .. . ... : ... .. . ... : ... .. . ... : ... .. . ... : ... .. . ... : ... .. . ... : ... .. . ...
ROW 2A : ... .. . ... : ... .. . ... : ... .. . ... : ... .. . ... : ... .. . ... : ... .. . ... : === .. . ... : === .. . ...
ROW 2B : ... .. . ... : ... .. . ... : ... .. . ... : ... .. . ... : ... .. . ... : ... .. . ... : ... .. . ... : ... .. . ...
ROW 2C : ... .. . ... : G-2 16 . ... : ... .. . ... : C-# 07 . ... : ... .. . ... : ... .. . ... : C-4 09 . ... : B-3 09 . ...
ROW 2D : ... .. . ... : ... .. . ... : ... .. . ... : ... .. . ... : ... .. . ... : ... .. . ... : ... .. . ... : ... .. . ...
ROW 2E : ... .. . ... : ... .. . ... : ... .. . ... : ... .. . ... : ... .. . ... : ... .. . ... : === .. . ... : === .. . ...
ROW 2F : ... .. . ... : ... .. . ... : ... .. . ... : ... .. . ... : ... .. . ... : ... .. . ... : ... .. . ... : ... .. . ...
ROW 30 : D-2 04 . ... : G-2 16 . ... : F-3 0B . ... : C-# 07 . ... : ... .. . ... : D-1 0D . ... : C-4 09 . ... : C-4 09 . ...
ROW 31 : ... .. . ... : ... .. . ... : ... .. . ... : ... .. . ... : ... .. . ... : ... .. . ... : ... .. . ... : ... .. . ...
ROW 32 : ... .. . ... : ... .. . ... : ... .. . ... : ... .. . ... : ... .. . ... : ... .. . ... : === .. . ... : === .. . ...
ROW 33 : ... .. . ... : ... .. . ... : ... .. . ... : ... .. . ... : ... .. . ... : ... .. . ... : ... .. . ... : ... .. . ...
ROW 34 : === .. . ... : D-3 16 . ... : ... .. . ... : C-# 07 . ... : ... .. . ... : ... .. . ... : B-3 09 . ... : C-4 09 . ...
ROW 35 : ... .. . ... : ... .. . ... : ... .. . ... : ... .. . ... : ... .. . ... : ... .. . ... : ... .. . ... : ... .. . ...
ROW 36 : ... .. . ... : G-2 16 . ... : ... .. . ... : ... .. . ... : ... .. . ... : ... .. . ... : === .. . ... : === .. . ...
ROW 37 : ... .. . ... : ... .. . ... : ... .. . ... : ... .. . ... : ... .. . ... : ... .. . ... : ... .. . ... : ... .. . ...
ROW 38 : F-1 04 . ... : F-2 16 . ... : C-4 0C . ... : 8-# 18 . ... : ... .. . ... : F-0 0D . ... : A-3 09 . ... : B-3 09 . ...
ROW 39 : ... .. . ... : ... .. . ... : ... .. . ... : ... .. . ... : ... .. . ... : ... .. . ... : ... .. . ... : ... .. . ...
ROW 3A : ... .. . ... : ... .. . ... : ... .. . ... : ... .. . ... : ... .. . ... : ... .. . ... : === .. . ... : === .. . ...
ROW 3B : ... .. . ... : ... .. . ... : ... .. . ... : ... .. . ... : ... .. . ... : ... .. . ... : ... .. . ... : ... .. . ...
ROW 3C : E-1 04 . ... : E-2 16 . ... : ... .. . ... : C-# 07 . ... : ... .. . ... : E-0 0D . ... : G-3 09 . ... : A-3 09 . ...
ROW 3D : ... .. . ... : ... .. . ... : ... .. . ... : ... .. . ... : ... .. . ... : ... .. . ... : ... .. . ... : ... .. . ...
ROW 3E : ... .. . ... : ... .. . ... : ... .. . ... : C-# 07 . ... : ... .. . ... : ... .. . ... : === .. . ... : === .. . ...
ROW 3F : ... .. . ... : ... .. . ... : ... .. . ... : ... .. . ... : ... .. . ... : ... .. . ... : ... .. . ... : ... .. . ...

PATTERN 03
ROW 00 : D-1 04 . ... : D-2 16 . ... : F-3 0B . ... : C-# 07 . ... : ... .. . ... : D-0 0D . ... : A-3 09 . V03 : G-3 09 7 ...
ROW 01 : ... .. . ... : ... .. . ... : ... .. . ... : ... .. . ... : ... .. . ... : ... .. . ... : ... .. . ... : ... .. . ...
ROW 02 : === .. . ... : ... .. . ... : ... .. . ... : ... .. . ... : ... .. . ... : === .. . ... : === .. . ... : === .. . ...
ROW 03 : ... .. . ... : ... .. . ... : ... .. . ... : ... .. . ... : ... .. . ... : ... .. . ... : ... .. . ... : ... .. . ...
ROW 04 : D-1 04 . ... : D-3 16 . ... : ... .. . ... : C-# 07 . ... : ... .. . ... : D-0 0D . ... : A-3 09 . ... : A-3 09 . ...
ROW 05 : ... .. . ... : ... .. . ... : ... .. . ... : ... .. . ... : ... .. . ... : ... .. . ... : === .. . ... : ... .. . ...
ROW 06 : === .. . ... : A-2 16 . ... : ... .. . ... : C-# 07 . ... : ... .. . ... : ... .. . ... : F-3 09 . ... : === .. . ...
ROW 07 : ... .. . ... : ... .. . ... : ... .. . ... : ... .. . ... : ... .. . ... : ... .. . ... : === .. . ... : ... .. . ...
ROW 08 : C-3 16 . ... : E-3 16 . ... : C-4 0C . ... : 8-# 18 . ... : ... .. . ... : === .. . ... : G-3 09 . ... : A-3 09 . ...
ROW 09 : ... .. . ... : ... .. . ... : ... .. . ... : ... .. . ... : ... .. . ... : ... .. . ... : ... .. . ... : === .. . ...
ROW 0A : ... .. . ... : ... .. . ... : ... .. . ... : ... .. . ... : ... .. . ... : ... .. . ... : === .. . ... : F-3 09 . ...
ROW 0B : ... .. . ... : ... .. . ... : ... .. . ... : ... .. . ... : ... .. . ... : ... .. . ... : ... .. . ... : === .. . ...
ROW 0C : ... .. . ... : C-3 16 . ... : ... .. . ... : C-# 07 . ... : ... .. . ... : ... .. . ... : G-3 09 . ... : G-3 09 . ...
ROW 0D : ... .. . ... : ... .. . ... : ... .. . ... : ... .. . ... : ... .. . ... : ... .. . ... : === .. . ... : ... .. . ...
ROW 0E : ... .. . ... : D-3 16 . ... : ... .. . ... : ... .. . ... : ... .. . ... : ... .. . ... : A-3 09 . ... : === .. . ...
ROW 0F : ... .. . ... : ... .. . ... : ... .. . ... : ... .. . ... : ... .. . ... : ... .. . ... : === .. . ... : ... .. . ...
ROW 10 : A-1 04 . ... : F-3 16 . ... : C-4 0C . ... : 8-# 18 . ... : ... .. . ... : A-0 0D . ... : A-3 09 . ... : G-3 09 . ...
ROW 11 : ... .. . ... : ... .. . ... : ... .. . ... : ... .. . ... : ... .. . ... : ... .. . ... : ... .. . ... : === .. . ...
ROW 12 : === .. . ... : ... .. . ... : ... .. . ... : ... .. . ... : ... .. . ... : === .. . ... : === .. . ... : A-3 09 . ...
ROW 13 : ... .. . ... : ... .. . ... : ... .. . ... : ... .. . ... : ... .. . ... : ... .. . ... : ... .. . ... : === .. . ...
ROW 14 : A-1 04 . ... : A-2 16 . ... : ... .. . ... : C-# 07 . ... : ... .. . ... : A-0 0D . ... : ... .. . ... : A-3 09 . ...
ROW 15 : ... .. . ... : ... .. . ... : ... .. . ... : ... .. . ... : ... .. . ... : ... .. . ... : ... .. . ... : ... .. . ...
ROW 16 : === .. . ... : ... .. . ... : ... .. . ... : ... .. . ... : ... .. . ... : ... .. . ... : ... .. . ... : === .. . ...
ROW 17 : ... .. . ... : ... .. . ... : ... .. . ... : ... .. . ... : ... .. . ... : ... .. . ... : ... .. . ... : ... .. . ...
ROW 18 : G-3 16 . ... : D-3 16 . ... : C-4 0C . ... : 8-# 18 . ... : ... .. . ... : === .. . ... : B-3 09 . ... : ... .. . ...
ROW 19 : ... .. . ... : ... .. . ... : ... .. . ... : ... .. . ... : ... .. . ... : ... .. . ... : ... .. . ... : ... .. . ...
ROW 1A : ... .. . ... : ... .. . ... : ... .. . ... : ... .. . ... : ... .. . ... : ... .. . ... : === .. . ... : ... .. . ...
ROW 1B : ... .. . ... : ... .. . ... : ... .. . ... : ... .. . ... : ... .. . ... : ... .. . ... : ... .. . ... : ... .. . ...
ROW 1C : A-1 04 . ... : A-2 16 . ... : ... .. . ... : C-# 07 . ... : ... .. . ... : A-0 0D . ... : G-3 09 . ... : B-3 09 . ...
ROW 1D : ... .. . ... : ... .. . ... : ... .. . ... : ... .. . ... : ... .. . ... : ... .. . ... : ... .. . ... : ... .. . ...
ROW 1E : === .. . ... : ... .. . ... : ... .. . ... : C-# 07 . ... : ... .. . ... : === .. . ... : === .. . ... : === .. . ...
ROW 1F : ... .. . ... : ... .. . ... : ... .. . ... : ... .. . ... : ... .. . ... : ... .. . ... : ... .. . ... : ... .. . ...
ROW 20 : D-1 04 . ... : D-2 16 . ... : F-3 0B . ... : C-# 07 . ... : ... .. . ... : D-0 0D . ... : A-3 09 . ... : G-3 09 . ...
ROW 21 : ... .. . ... : ... .. . ... : ... .. . ... : ... .. . ... : ... .. . ... : ... .. . ... : ... .. . ... : ... .. . ...
ROW 22 : === .. . ... : ... .. . ... : ... .. . ... : ... .. . ... : ... .. . ... : === .. . ... : === .. . ... : === .. . ...
ROW 23 : ... .. . ... : ... .. . ... : ... .. . ... : ... .. . ... : ... .. . ... : ... .. . ... : ... .. . ... : ... .. . ...
ROW 24 : D-1 04 . ... : A-2 16 . ... : ... .. . ... : C-# 07 . ... : ... .. . ... : D-0 0D . ... : A-3 09 . ... : A-3 09 . ...
ROW 25 : ... .. . ... : ... .. . ... : ... .. . ... : ... .. . ... : ... .. . ... : ... .. . ... : === .. . ... : ... .. . ...
ROW 26 : === .. . ... : ... .. . ... : ... .. . ... : C-# 07 . ... : ... .. . ... : ... .. . ... : F-3 09 . ... : === .. . ...
ROW 27 : ... .. . ... : ... .. . ... : ... .. . ... : ... .. . ... : ... .. . ... : ... .. . ... : === .. . ... : ... .. . ...
ROW 28 : C-3 16 . ... : E-3 16 . ... : C-4 0C . ... : 8-# 18 . ... : ... .. . ... : === .. . ... : G-3 09 . ... : A-3 09 . ...
ROW 29 : ... .. . ... : ... .. . ... : ... .. . ... : ... .. . ... : ... .. . ... : ... .. . ... : ... .. . ... : === .. . ...
ROW 2A : ... .. . ... : ... .. . ... : ... .. . ... : ... .. . ... : ... .. . ... : ... .. . ... : === .. . ... : F-3 09 . ...
ROW 2B : ... .. . ... : ... .. . ... : ... .. . ... : ... .. . ... : ... .. . ... : ... .. . ... : ... .. . ... : === .. . ...
ROW 2C : A-1 04 . ... : A-2 16 . ... : ... .. . ... : C-# 07 . ... : ... .. . ... : A-0 0D . ... : G-3 09 . ... : G-3 09 . ...
ROW 2D : ... .. . ... : ... .. . ... : ... .. . ... : ... .. . ... : ... .. . ... : ... .. . ... : === .. . ... : ... .. . ...
ROW 2E : === .. . ... : ... .. . ... : ... .. . ... : ... .. . ... : ... .. . ... : === .. . ... : A-3 09 . ... : === .. . ...
ROW 2F : ... .. . ... : ... .. . ... : ... .. . ... : ... .. . ... : ... .. . ... : ... .. . ... : === .. . ... : ... .. . ...
ROW 30 : D-1 04 . ... : F-3 16 . ... : F-3 0B . ... : 8-# 18 . ... : ... .. . ... : D-0 0D . ... : D-3 09 . ... : G-3 09 . ...
ROW 31 : ... .. . ... : ... .. . ... : ... .. . ... : ... .. . ... : ... .. . ... : ... .. . ... : ... .. . ... : === .. . ...
ROW 32 : ... .. . ... : ... .. . ... : ... .. . ... : ... .. . ... : ... .. . ... : ... .. . ... : === .. . ... : A-3 09 . ...
ROW 33 : ... .. . ... : ... .. . ... : ... .. . ... : ... .. . ... : ... .. . ... : ... .. . ... : ... .. . ... : === .. . ...
ROW 34 : === .. . ... : C-3 16 . ... : C-4 0C . ... : 8-# 06 7 ... : ... .. . ... : === .. . ... : D-3 09 . ... : D-3 09 . ...
ROW 35 : ... .. . ... : ... .. . ... : ... .. . ... : ... .. . ... : ... .. . ... : ... .. . ... : ... .. . ... : ... .. . ...
ROW 36 : ... .. . ... : D-2 16 . ... : C-4 0C . ... : 8-# 06 8 ... : ... .. . ... : ... .. . ... : === .. . ... : === .. . ...
ROW 37 : ... .. . ... : ... .. . ... : ... .. . ... : ... .. . ... : ... .. . ... : ... .. . ... : ... .. . ... : ... .. . ...
ROW 38 : F-1 15 . ... : F-2 16 . ... : C-4 0C . ... : 8-# 06 F ... : ... .. . ... : F-0 0D . ... : A-2 09 . ... : D-3 09 . ...
ROW 39 : ... .. . ... : ... .. . ... : ... .. . ... : ... .. . ... : ... .. . ... : ... .. . ... : ... .. . ... : ... .. . ...
ROW 3A : === .. . ... : ... .. . ... : ... .. . ... : ... .. . ... : ... .. . ... : === .. . ... : === .. . ... : === .. . ...
ROW 3B : ... .. . ... : ... .. . ... : ... .. . ... : ... .. . ... : ... .. . ... : ... .. . ... : ... .. . ... : ... .. . ...
ROW 3C : E-1 15 . ... : E-2 16 . ... : C-4 0C . ... : 8-# 06 7 ... : ... .. . ... : E-0 0D . ... : G-2 09 . ... : A-2 09 . ...
ROW 3D : ... .. . ... : ... .. . ... : ... .. . ... : ... .. . ... : ... .. . ... : ... .. . ... : ... .. . ... : ... .. . ...
ROW 3E : === .. . ... : ... .. . ... : C-4 0C . ... : 8-# 06 8 ... : ... .. . ... : === .. . ... : === .. . ... : === .. . ...
ROW 3F : ... .. . ... : ... .. . ... : ... .. . ... : ... .. . ... : ... .. . ... : ... .. . ... : ... .. . ... : ... .. . ...

PATTERN 04
ROW 00 : D-1 04 . ... : ... .. . ... : C-4 0C . ... : 8-# 06 F ... : ... .. . ... : D-0 0D . ... : D-4 09 . V03 : G-2 09 7 ...
ROW 01 : ... .. . ... : ... .. . ... : ... .. . ... : ... .. . ... : ... .. . ... : ... .. . ... : === .. . ... : ... .. . ...
ROW 02 : === .. . ... : A-2 16 . ... : ... .. . ... : ... .. . ... : ... .. . ... : ... .. . ... : A-3 09 . ... : === .. . ...
ROW 03 : ... .. . ... : ... .. . ... : ... .. . ... : ... .. . ... : ... .. . ... : ... .. . ... : ... .. . ... : ... .. . ...
ROW 04 : A-2 16 . ... : D-3 16 . ... : ... .. . ... : 8-# 17 . ... : ... .. . ... : === .. . ... : === .. . ... : D-4 09 . ...
ROW 05 : ... .. . ... : ... .. . ... : ... .. . ... : ... .. . ... : ... .. . ... : ... .. . ... : ... .. . ... : === .. . ...
ROW 06 : ... .. . ... : A-2 16 . ... : ... .. . ... : 8-# 17 . ... : ... .. . ... : ... .. . ... : A-3 09 . ... : A-3 09 . ...
ROW 07 : ... .. . ... : ... .. . ... : ... .. . ... : ... .. . ... : ... .. . ... : ... .. . ... : === .. . ... : ... .. . ...
ROW 08 : D-1 04 . ... : ... .. . ... : C-4 0C . ... : 8-# 06 . ... : ... .. . ... : D-0 0D . ... : D-4 09 . ... : === .. . ...
ROW 09 : ... .. . ... : ... .. . ... : ... .. . ... : ... .. . ... : ... .. . ... : ... .. . ... : === .. . ... : ... .. . ...
ROW 0A : === .. . ... : A-2 16 . ... : ... .. . ... : ... .. . ... : ... .. . ... : ... .. . ... : A-3 09 . ... : A-3 09 . ...
ROW 0B : ... .. . ... : ... .. . ... : ... .. . ... : ... .. . ... : ... .. . ... : ... .. . ... : ... .. . ... : === .. . ...
ROW 0C : A-2 16 . ... : D-3 16 . ... : ... .. . ... : 8-# 17 . ... : ... .. . ... : === .. . ... : === .. . ... : D-4 09 . ...
ROW 0D : ... .. . ... : ... .. . ... : ... .. . ... : ... .. . ... : ... .. . ... : ... .. . ... : ... .. . ... : === .. . ...
ROW 0E : ... .. . ... : A-2 16 . ... : ... .. . ... : 8-# 17 . ... : ... .. . ... : ... .. . ... : A-3 09 . ... : A-3 09 . ...
ROW 0F : ... .. . ... : ... .. . ... : ... .. . ... : ... .. . ... : ... .. . ... : ... .. . ... : === .. . ... : ... .. . ...
ROW 10 : D-1 04 . ... : ... .. . ... : C-4 0C . ... : 8-# 06 . ... : ... .. . ... : D-0 0D . ... : D-4 09 . ... : === .. . ...
ROW 11 : ... .. . ... : ... .. . ... : ... .. . ... : ... .. . ... : ... .. . ... : ... .. . ... : ... .. . ... : ... .. . ...
ROW 12 : === .. . ... : ... .. . ... : ... .. . ... : 8-# 17 . ... : ... .. . ... : ... .. . ... : === .. . ... : A-3 09 . ...
ROW 13 : ... .. . ... : ... .. . ... : ... .. . ... : ... .. . ... : ... .. . ... : ... .. . ... : ... .. . ... : === .. . ...
ROW 14 : A-2 16 . ... : D-3 16 . ... : C-4 0C . ... : 8-# 06 . ... : ... .. . ... : === .. . ... : E-4 09 . ... : D-4 09 . ...
ROW 15 : ... .. . ... : ... .. . ... : ... .. . ... : ... .. . ... : ... .. . ... : ... .. . ... : ... .. . ... : ... .. . ...
ROW 16 : ... .. . ... : ... .. . ... : ... .. . ... : ... .. . ... : ... .. . ... : ... .. . ... : === .. . ... : === .. . ...
ROW 17 : ... .. . ... : ... .. . ... : ... .. . ... : ... .. . ... : ... .. . ... : ... .. . ... : ... .. . ... : ... .. . ...
ROW 18 : D-1 04 . ... : C-3 16 . ... : C-4 0C . ... : 8-# 06 . ... : ... .. . ... : D-0 0D . ... : D-4 09 . ... : E-4 09 . ...
ROW 19 : ... .. . ... : ... .. . ... : ... .. . ... : ... .. . ... : ... .. . ... : ... .. . ... : === 09 . ... : ... .. . ...
ROW 1A : === .. . ... : ... .. . ... : C-4 0C . ... : 8-# 06 . ... : ... .. . ... : ... .. . ... : C-4 09 . ... : === .. . ...
ROW 1B : ... .. . ... : ... .. . ... : ... .. . ... : ... .. . ... : ... .. . ... : ... .. . ... : ... .. . ... : ... .. . ...
ROW 1C : A-2 16 . ... : D-3 16 . ... : ... .. . ... : 8-# 17 . ... : ... .. . ... : === .. . ... : === .. . ... : D-4 09 . ...
ROW 1D : ... .. . ... : ... .. . ... : ... .. . ... : ... .. . ... : ... .. . ... : ... .. . ... : ... .. . ... : === 09 . ...
ROW 1E : ... .. . ... : ... .. . ... : ... .. . ... : 8-# 17 . ... : ... .. . ... : ... .. . ... : C-4 09 . ... : C-4 09 . ...
ROW 1F : ... .. . ... : ... .. . ... : ... .. . ... : ... .. . ... : ... .. . ... : ... .. . ... : === .. . ... : ... .. . ...
ROW 20 : C-1 04 . ... : ... .. . ... : C-4 0C . ... : 8-# 06 . ... : ... .. . ... : C-0 0D . ... : D-4 09 . ... : === .. . ...
ROW 21 : ... .. . ... : ... .. . ... : ... .. . ... : ... .. . ... : ... .. . ... : ... .. . ... : === .. . ... : ... .. . ...
ROW 22 : === .. . ... : G-2 16 . ... : ... .. . ... : ... .. . ... : ... .. . ... : ... .. . ... : A-3 09 . ... : C-4 09 . ...
ROW 23 : ... .. . ... : ... .. . ... : ... .. . ... : ... .. . ... : ... .. . ... : ... .. . ... : ... .. . ... : === .. . ...
ROW 24 : G-2 16 . ... : C-3 16 . ... : ... .. . ... : 8-# 17 . ... : ... .. . ... : === .. . ... : === .. . ... : D-4 09 . ...
ROW 25 : ... .. . ... : ... .. . ... : ... .. . ... : ... .. . ... : ... .. . ... : ... .. . ... : ... .. . ... : === .. . ...
ROW 26 : ... .. . ... : G-2 16 . ... : ... .. . ... : 8-# 17 . ... : ... .. . ... : ... .. . ... : A-3 09 . ... : A-3 09 . ...
ROW 27 : ... .. . ... : ... .. . ... : ... .. . ... : ... .. . ... : ... .. . ... : ... .. . ... : === .. . ... : ... .. . ...
ROW 28 : C-1 04 . ... : ... .. . ... : C-4 0C . ... : 8-# 06 . ... : ... .. . ... : C-0 0D . ... : D-4 09 . ... : === .. . ...
ROW 29 : ... .. . ... : ... .. . ... : ... .. . ... : ... .. . ... : ... .. . ... : ... .. . ... : === .. . ... : ... .. . ...
ROW 2A : === .. . ... : G-2 16 . ... : ... .. . ... : ... .. . ... : ... .. . ... : ... .. . ... : A-3 09 . ... : A-3 09 . ...
ROW 2B : ... .. . ... : ... .. . ... : ... .. . ... : ... .. . ... : ... .. . ... : ... .. . ... : ... .. . ... : === .. . ...
ROW 2C : G-2 16 . ... : C-3 16 . ... : ... .. . ... : 8-# 17 . ... : ... .. . ... : === .. . ... : === .. . ... : D-4 09 . ...
ROW 2D : ... .. . ... : ... .. . ... : ... .. . ... : ... .. . ... : ... .. . ... : ... .. . ... : ... .. . ... : === .. . ...
ROW 2E : ... .. . ... : G-2 16 . ... : ... .. . ... : 8-# 17 . ... : ... .. . ... : ... .. . ... : A-3 09 . ... : A-3 09 . ...
ROW 2F : ... .. . ... : ... .. . ... : ... .. . ... : ... .. . ... : ... .. . ... : ... .. . ... : === .. . ... : ... .. . ...
ROW 30 : C-1 04 . ... : ... .. . ... : C-4 0C . ... : 8-# 06 . ... : ... .. . ... : C-0 0D . ... : D-4 09 . ... : === .. . ...
ROW 31 : ... .. . ... : ... .. . ... : ... .. . ... : ... .. . ... : ... .. . ... : ... .. . ... : ... .. . ... : ... .. . ...
ROW 32 : === .. . ... : ... .. . ... : ... .. . ... : 8-# 17 . ... : ... .. . ... : ... .. . ... : === .. . ... : A-3 09 . ...
ROW 33 : ... .. . ... : ... .. . ... : ... .. . ... : ... .. . ... : ... .. . ... : ... .. . ... : ... .. . ... : === .. . ...
ROW 34 : C-3 16 . ... : F-3 16 . ... : C-4 0C . ... : 8-# 06 . ... : ... .. . ... : === .. . ... : F-4 09 . ... : D-4 09 . ...
ROW 35 : ... .. . ... : ... .. . ... : ... .. . ... : ... .. . ... : ... .. . ... : ... .. . ... : ... .. . ... : ... .. . ...
ROW 36 : ... .. . ... : ... .. . ... : ... .. . ... : ... .. . ... : ... .. . ... : ... .. . ... : === .. . ... : === .. . ...
ROW 37 : ... .. . ... : ... .. . ... : ... .. . ... : ... .. . ... : ... .. . ... : ... .. . ... : ... .. . ... : ... .. . ...
ROW 38 : C-1 04 . ... : F-3 16 . ... : C-4 0C . ... : 8-# 06 . ... : ... .. . ... : C-0 0D . ... : E-4 09 . ... : F-4 09 . ...
ROW 39 : ... .. . ... : ... .. . ... : ... .. . ... : ... .. . ... : ... .. . ... : ... .. . ... : === 09 . ... : ... .. . ...
ROW 3A : === .. . ... : ... .. . ... : C-4 0C . ... : 8-# 06 . ... : ... .. . ... : ... .. . ... : D-4 09 . ... : === .. . ...
ROW 3B : ... .. . ... : ... .. . ... : ... .. . ... : ... .. . ... : ... .. . ... : ... .. . ... : ... .. . ... : ... .. . ...
ROW 3C : B-2 16 . ... : E-3 16 . ... : ... .. . ... : 8-# 17 . ... : ... .. . ... : === .. . ... : === .. . ... : E-4 09 . ...
ROW 3D : ... .. . ... : ... .. . ... : ... .. . ... : ... .. . ... : ... .. . ... : ... .. . ... : ... .. . ... : === 09 . ...
ROW 3E : ... .. . ... : ... .. . ... : ... .. . ... : 8-# 17 . ... : ... .. . ... : ... .. . ... : C-4 09 . ... : D-4 09 . ...
ROW 3F : ... .. . ... : ... .. . ... : ... .. . ... : ... .. . ... : ... .. . ... : ... .. . ... : === .. . ... : ... .. . ...

PATTERN 05
ROW 00 : D-1 04 . ... : ... .. . ... : C-4 0C . ... : 8-# 06 F ... : ... .. . ... : D-0 0D . ... : D-4 09 . V03 : === 09 . ...
ROW 01 : ... .. . ... : ... .. . ... : ... .. . ... : ... .. . ... : ... .. . ... : ... .. . ... : === .. . ... : ... .. . ...
ROW 02 : === .. . ... : A-2 16 . ... : ... .. . ... : ... .. . ... : ... .. . ... : ... .. . ... : A-3 09 . ... : C-4 09 7 ...
ROW 03 : ... .. . ... : ... .. . ... : ... .. . ... : ... .. . ... : ... .. . ... : ... .. . ... : ... .. . ... : === .. . ...
ROW 04 : A-2 16 . ... : D-3 16 . ... : ... .. . ... : 8-# 17 . ... : ... .. . ... : === .. . ... : === .. . ... : D-4 09 . ...
ROW 05 : ... .. . ... : ... .. . ... : ... .. . ... : ... .. . ... : ... .. . ... : ... .. . ... : ... .. . ... : === .. . ...
ROW 06 : ... .. . ... : A-2 16 . ... : ... .. . ... : 8-# 17 . ... : ... .. . ... : ... .. . ... : A-3 09 . ... : A-3 09 . ...
ROW 07 : ... .. . ... : ... .. . ... : ... .. . ... : ... .. . ... : ... .. . ... : ... .. . ... : === .. . ... : ... .. . ...
ROW 08 : D-1 04 . ... : ... .. . ... : C-4 0C . ... : 8-# 06 . ... : ... .. . ... : D-0 0D . ... : D-4 09 . ... : === .. . ...
ROW 09 : ... .. . ... : ... .. . ... : ... .. . ... : ... .. . ... : ... .. . ... : ... .. . ... : === .. . ... : ... .. . ...
ROW 0A : === .. . ... : A-2 16 . ... : ... .. . ... : ... .. . ... : ... .. . ... : ... .. . ... : A-3 09 . ... : A-3 09 . ...
ROW 0B : ... .. . ... : ... .. . ... : ... .. . ... : ... .. . ... : ... .. . ... : ... .. . ... : ... .. . ... : === .. . ...
ROW 0C : A-2 16 . ... : D-3 16 . ... : ... .. . ... : 8-# 17 . ... : ... .. . ... : === .. . ... : === .. . ... : D-4 09 . ...
ROW 0D : ... .. . ... : ... .. . ... : ... .. . ... : ... .. . ... : ... .. . ... : ... .. . ... : ... .. . ... : === .. . ...
ROW 0E : ... .. . ... : A-2 16 . ... : ... .. . ... : 8-# 17 . ... : ... .. . ... : ... .. . ... : A-3 09 . ... : A-3 09 . ...
ROW 0F : ... .. . ... : ... .. . ... : ... .. . ... : ... .. . ... : ... .. . ... : ... .. . ... : === .. . ... : ... .. . ...
ROW 10 : D-1 04 . ... : ... .. . ... : C-4 0C . ... : 8-# 06 . ... : ... .. . ... : D-0 0D . ... : D-4 09 . ... : === .. . ...
ROW 11 : ... .. . ... : ... .. . ... : ... .. . ... : ... .. . ... : ... .. . ... : ... .. . ... : ... .. . ... : ... .. . ...
ROW 12 : === .. . ... : ... .. . ... : ... .. . ... : 8-# 17 . ... : ... .. . ... : ... .. . ... : === .. . ... : A-3 09 . ...
ROW 13 : ... .. . ... : ... .. . ... : ... .. . ... : ... .. . ... : ... .. . ... : ... .. . ... : ... .. . ... : === .. . ...
ROW 14 : A-2 16 . ... : D-3 16 . ... : C-4 0C . ... : 8-# 06 . ... : ... .. . ... : === .. . ... : E-4 09 . ... : D-4 09 . ...
ROW 15 : ... .. . ... : ... .. . ... : ... .. . ... : ... .. . ... : ... .. . ... : ... .. . ... : ... .. . ... : ... .. . ...
ROW 16 : ... .. . ... : ... .. . ... : ... .. . ... : ... .. . ... : ... .. . ... : ... .. . ... : === .. . ... : === .. . ...
ROW 17 : ... .. . ... : ... .. . ... : ... .. . ... : ... .. . ... : ... .. . ... : ... .. . ... : ... .. . ... : ... .. . ...
ROW 18 : D-1 04 . ... : C-3 16 . ... : C-4 0C . ... : 8-# 06 . ... : ... .. . ... : D-0 0D . ... : D-4 09 . ... : E-4 09 . ...
ROW 19 : ... .. . ... : ... .. . ... : ... .. . ... : ... .. . ... : ... .. . ... : ... .. . ... : === 09 . ... : ... .. . ...
ROW 1A : === .. . ... : ... .. . ... : C-4 0C . ... : 8-# 06 . ... : ... .. . ... : ... .. . ... : C-4 09 . ... : === .. . ...
ROW 1B : ... .. . ... : ... .. . ... : ... .. . ... : ... .. . ... : ... .. . ... : ... .. . ... : ... .. . ... : ... .. . ...
ROW 1C : A-2 16 . ... : D-3 16 . ... : ... .. . ... : 8-# 17 . ... : ... .. . ... : === .. . ... : === .. . ... : D-4 09 . ...
ROW 1D : ... .. . ... : ... .. . ... : ... .. . ... : ... .. . ... : ... .. . ... : ... .. . ... : ... .. . ... : === 09 . ...
ROW 1E : ... .. . ... : ... .. . ... : ... .. . ... : 8-# 17 . ... : ... .. . ... : ... .. . ... : C-4 09 . ... : C-4 09 . ...
ROW 1F : ... .. . ... : ... .. . ... : ... .. . ... : ... .. . ... : ... .. . ... : ... .. . ... : === .. . ... : ... .. . ...
ROW 20 : C-1 04 . ... : ... .. . ... : C-4 0C . ... : 8-# 06 . ... : ... .. . ... : C-0 0D . ... : D-4 09 . ... : === .. . ...
ROW 21 : ... .. . ... : ... .. . ... : ... .. . ... : ... .. . ... : ... .. . ... : ... .. . ... : === .. . ... : ... .. . ...
ROW 22 : === .. . ... : G-2 16 . ... : ... .. . ... : ... .. . ... : ... .. . ... : ... .. . ... : A-3 09 . ... : C-4 09 . ...
ROW 23 : ... .. . ... : ... .. . ... : ... .. . ... : ... .. . ... : ... .. . ... : ... .. . ... : === .. . ... : === .. . ...
ROW 24 : G-2 16 . ... : C-3 16 . ... : ... .. . ... : 8-# 17 . ... : ... .. . ... : === .. . ... : A-2 09 . ... : D-4 09 . ...
ROW 25 : ... .. . ... : ... .. . ... : ... .. . ... : ... .. . ... : ... .. . ... : ... .. . ... : === .. . ... : === .. . ...
ROW 26 : ... .. . ... : G-2 16 . ... : ... .. . ... : 8-# 17 . ... : ... .. . ... : ... .. . ... : A-3 09 . ... : A-3 09 . ...
ROW 27 : ... .. . ... : ... .. . ... : ... .. . ... : ... .. . ... : ... .. . ... : ... .. . ... : === .. . ... : === .. . ...
ROW 28 : C-1 04 . ... : ... .. . ... : C-4 0C . ... : 8-# 06 . ... : ... .. . ... : C-0 0D . ... : D-4 09 . ... : A-2 09 . ...
ROW 29 : ... .. . ... : ... .. . ... : ... .. . ... : ... .. . ... : ... .. . ... : ... .. . ... : === .. . ... : === .. . ...
ROW 2A : === .. . ... : G-2 16 . ... : ... .. . ... : ... .. . ... : ... .. . ... : ... .. . ... : A-3 09 . ... : A-3 09 . ...
ROW 2B : ... .. . ... : ... .. . ... : ... .. . ... : ... .. . ... : ... .. . ... : ... .. . ... : === .. . ... : === .. . ...
ROW 2C : G-2 16 . ... : C-3 16 . ... : ... .. . ... : 8-# 17 . ... : ... .. . ... : === .. . ... : A-2 09 . ... : D-4 09 . ...
ROW 2D : ... .. . ... : ... .. . ... : ... .. . ... : ... .. . ... : ... .. . ... : ... .. . ... : === .. . ... : === .. . ...
ROW 2E : ... .. . ... : G-2 16 . ... : ... .. . ... : 8-# 17 . ... : ... .. . ... : ... .. . ... : A-3 09 . ... : A-3 09 . ...
ROW 2F : ... .. . ... : ... .. . ... : ... .. . ... : ... .. . ... : ... .. . ... : ... .. . ... : === .. . ... : === .. . ...
ROW 30 : G-1 04 . ... : ... .. . ... : C-4 0C . ... : 8-# 06 . ... : ... .. . ... : G-0 0D . ... : D-4 09 . ... : A-2 09 . ...
ROW 31 : ... .. . ... : ... .. . ... : ... .. . ... : ... .. . ... : ... .. . ... : ... .. . ... : === .. . ... : === .. . ...
ROW 32 : === .. . ... : ... .. . ... : ... .. . ... : 8-# 17 . ... : ... .. . ... : ... .. . ... : A-3 09 . ... : A-3 09 . ...
ROW 33 : ... .. . ... : ... .. . ... : ... .. . ... : ... .. . ... : ... .. . ... : ... .. . ... : === .. . ... : === .. . ...
ROW 34 : D-3 16 . ... : G-3 16 . ... : C-4 0C . ... : 8-# 06 . ... : ... .. . ... : === .. . ... : B-3 09 . ... : D-4 09 . ...
ROW 35 : ... .. . ... : ... .. . ... : ... .. . ... : ... .. . ... : ... .. . ... : ... .. . ... : === .. . ... : === .. . ...
ROW 36 : ... .. . ... : D-3 16 . ... : ... .. . ... : ... .. . ... : ... .. . ... : ... .. . ... : A-3 09 . ... : A-3 09 . ...
ROW 37 : ... .. . ... : ... .. . ... : ... .. . ... : ... .. . ... : ... .. . ... : ... .. . ... : === .. . ... : === .. . ...
ROW 38 : G-1 04 . ... : F-3 16 . ... : C-4 0C . ... : 8-# 06 . ... : ... .. . ... : G-0 0D . ... : D-4 09 . ... : B-3 09 . ...
ROW 39 : ... .. . ... : ... .. . ... : ... .. . ... : ... .. . ... : ... .. . ... : ... .. . ... : === 09 . ... : === .. . ...
ROW 3A : === .. . ... : ... .. . ... : C-4 0C . ... : 8-# 06 . ... : ... .. . ... : ... .. . ... : A-3 09 . ... : A-3 09 . ...
ROW 3B : ... .. . ... : ... .. . ... : ... .. . ... : ... .. . ... : ... .. . ... : ... .. . ... : === .. . ... : === .. . ...
ROW 3C : D-3 16 . ... : G-3 16 . ... : C-4 0C . ... : 8-# 06 . ... : ... .. . ... : === .. . ... : B-3 09 . ... : D-4 09 . ...
ROW 3D : ... .. . ... : ... .. . ... : ... .. . ... : ... .. . ... : ... .. . ... : ... .. . ... : === .. . ... : === 09 . ...
ROW 3E : ... .. . ... : ... .. . ... : C-4 0C . ... : 8-# 06 . ... : ... .. . ... : ... .. . ... : A-3 09 . ... : A-3 09 . ...
ROW 3F : ... .. . ... : ... .. . ... : ... .. . ... : ... .. . ... : ... .. . ... : ... .. . ... : === .. . ... : === .. . ...

PATTERN 06
ROW 00 : D-1 04 . ... : D-2 16 . ... : F-3 0B . ... : C-# 07 F ... : ... .. . ... : D-0 0D . ... : D-4 09 . V03 : B-3 09 7 ...
ROW 01 : ... .. . ... : ... .. . ... : ... .. . ... : ... .. . ... : ... .. . ... : ... .. . ... : ... .. . ... : === .. . ...
ROW 02 : ... .. . ... : ... .. . ... : ... .. . ... : ... .. . ... : ... .. . ... : ... .. . ... : === .. . ... : A-3 09 . ...
ROW 03 : ... .. . ... : ... .. . ... : ... .. . ... : ... .. . ... : ... .. . ... : ... .. . ... : ... .. . ... : === .. . ...
ROW 04 : === .. . ... : D-2 16 . ... : ... .. . ... : C-# 07 . ... : ... .. . ... : ... .. . ... : --- .. . ... : D-4 09 . ...
ROW 05 : ... .. . ... : ... .. . ... : ... .. . ... : ... .. . ... : ... .. . ... : ... .. . ... : ... .. . ... : ... .. . ...
ROW 06 : ... .. . ... : ... .. . ... : ... .. . ... : ... .. . ... : ... .. . ... : ... .. . ... : ... .. . ... : === .. . ...
ROW 07 : ... .. . ... : ... .. . ... : ... .. . ... : ... .. . ... : ... .. . ... : ... .. . ... : ... .. . ... : ... .. . ...
ROW 08 : A-2 16 . ... : D-3 16 . ... : C-4 0C . ... : 8-# 18 . ... : ... .. . ... : === .. . ... : F-3 09 . ... : --- .. . ...
ROW 09 : ... .. . ... : ... .. . ... : ... .. . ... : ... .. . ... : ... .. . ... : ... .. . ... : ... .. . ... : ... .. . ...
ROW 0A : ... .. . ... : ... .. . ... : ... .. . ... : ... .. . ... : ... .. . ... : ... .. . ... : === .. . ... : ... .. . ...
ROW 0B : ... .. . ... : ... .. . ... : ... .. . ... : ... .. . ... : ... .. . ... : ... .. . ... : ... .. . ... : ... .. . ...
ROW 0C : ... .. . ... : D-2 16 . ... : ... .. . ... : C-# 07 . ... : ... .. . ... : ... .. . ... : --- 09 . ... : ... .. . ...
ROW 0D : ... .. . ... : ... .. . ... : ... .. . ... : ... .. . ... : ... .. . ... : ... .. . ... : ... .. . ... : ... .. . ...
ROW 0E : ... .. . ... : ... .. . ... : ... .. . ... : ... .. . ... : ... .. . ... : ... .. . ... : ... .. . ... : ... .. . ...
ROW 0F : ... .. . ... : ... .. . ... : ... .. . ... : ... .. . ... : ... .. . ... : ... .. . ... : ... .. . ... : ... .. . ...
ROW 10 : A-1 04 . ... : D-2 16 . ... : F-3 0B . ... : C-# 07 . ... : ... .. . ... : A-0 0D . ... : ... .. . ... : ... .. . ...
ROW 11 : ... .. . ... : ... .. . ... : ... .. . ... : ... .. . ... : ... .. . ... : ... .. . ... : ... .. . ... : ... .. . ...
ROW 12 : ... .. . ... : ... .. . ... : ... .. . ... : ... .. . ... : ... .. . ... : ... .. . ... : ... .. . ... : ... .. . ...
ROW 13 : ... .. . ... : ... .. . ... : ... .. . ... : ... .. . ... : ... .. . ... : ... .. . ... : ... .. . ... : ... .. . ...
ROW 14 : === .. . ... : A-2 16 . ... : ... .. . ... : C-# 07 . ... : ... .. . ... : ... .. . ... : ... .. . ... : ... .. . ...
ROW 15 : ... .. . ... : ... .. . ... : ... .. . ... : ... .. . ... : ... .. . ... : ... .. . ... : ... .. . ... : ... .. . ...
ROW 16 : ... .. . ... : ... .. . ... : ... .. . ... : ... .. . ... : ... .. . ... : ... .. . ... : ... .. . ... : ... .. . ...
ROW 17 : ... .. . ... : ... .. . ... : ... .. . ... : ... .. . ... : ... .. . ... : ... .. . ... : ... .. . ... : ... .. . ...
ROW 18 : A-2 16 . ... : D-3 16 . ... : C-4 0C . ... : 8-# 18 . ... : ... .. . ... : === .. . ... : F-3 09 . ... : ... .. . ...
ROW 19 : ... .. . ... : ... .. . ... : ... .. . ... : ... .. . ... : ... .. . ... : ... .. . ... : ... .. . ... : ... .. . ...
ROW 1A : ... .. . ... : ... .. . ... : ... .. . ... : ... .. . ... : ... .. . ... : ... .. . ... : === .. . ... : ... .. . ...
ROW 1B : ... .. . ... : ... .. . ... : ... .. . ... : ... .. . ... : ... .. . ... : ... .. . ... : ... .. . ... : ... .. . ...
ROW 1C : ... .. . ... : F-2 16 . ... : ... .. . ... : C-# 07 . ... : ... .. . ... : ... .. . ... : --- 09 . ... : ... .. . ...
ROW 1D : ... .. . ... : ... .. . ... : ... .. . ... : ... .. . ... : ... .. . ... : ... .. . ... : ... .. . ... : ... .. . ...
ROW 1E : ... .. . ... : ... .. . ... : ... .. . ... : ... .. . ... : ... .. . ... : ... .. . ... : ... .. . ... : ... .. . ...
ROW 1F : ... .. . ... : ... .. . ... : ... .. . ... : ... .. . ... : ... .. . ... : ... .. . ... : ... .. . ... : ... .. . ...
ROW 20 : D-1 04 . ... : D-2 16 . ... : F-3 0B . ... : C-# 07 . ... : ... .. . ... : D-0 0D . ... : ... .. . ... : ... .. . ...
ROW 21 : ... .. . ... : ... .. . ... : ... .. . ... : ... .. . ... : ... .. . ... : ... .. . ... : ... .. . ... : ... .. . ...
ROW 22 : ... .. . ... : ... .. . ... : ... .. . ... : ... .. . ... : ... .. . ... : ... .. . ... : ... .. . ... : ... .. . ...
ROW 23 : ... .. . ... : ... .. . ... : ... .. . ... : ... .. . ... : ... .. . ... : ... .. . ... : ... .. . ... : ... .. . ...
ROW 24 : === .. . ... : D-2 16 . ... : ... .. . ... : C-# 07 . ... : ... .. . ... : ... .. . ... : ... .. . ... : ... .. . ...
ROW 25 : ... .. . ... : ... .. . ... : ... .. . ... : ... .. . ... : ... .. . ... : ... .. . ... : ... .. . ... : ... .. . ...
ROW 26 : ... .. . ... : ... .. . ... : ... .. . ... : ... .. . ... : ... .. . ... : ... .. . ... : ... .. . ... : ... .. . ...
ROW 27 : ... .. . ... : ... .. . ... : ... .. . ... : ... .. . ... : ... .. . ... : ... .. . ... : ... .. . ... : ... .. . ...
ROW 28 : A-2 16 . ... : D-3 16 . ... : C-4 0C . ... : 8-# 18 . ... : ... .. . ... : === .. . ... : F-3 09 . ... : ... .. . ...
ROW 29 : ... .. . ... : ... .. . ... : ... .. . ... : ... .. . ... : ... .. . ... : ... .. . ... : ... .. . ... : ... .. . ...
ROW 2A : ... .. . ... : ... .. . ... : ... .. . ... : ... .. . ... : ... .. . ... : ... .. . ... : === .. . ... : ... .. . ...
ROW 2B : ... .. . ... : ... .. . ... : ... .. . ... : ... .. . ... : ... .. . ... : ... .. . ... : ... .. . ... : ... .. . ...
ROW 2C : ... .. . ... : D-2 16 . ... : ... .. . ... : C-# 07 . ... : ... .. . ... : ... .. . ... : --- 09 . ... : ... .. . ...
ROW 2D : ... .. . ... : ... .. . ... : ... .. . ... : ... .. . ... : ... .. . ... : ... .. . ... : ... .. . ... : ... .. . ...
ROW 2E : ... .. . ... : ... .. . ... : ... .. . ... : ... .. . ... : ... .. . ... : ... .. . ... : ... .. . ... : ... .. . ...
ROW 2F : ... .. . ... : ... .. . ... : ... .. . ... : ... .. . ... : ... .. . ... : ... .. . ... : ... .. . ... : ... .. . ...
ROW 30 : A-1 04 . ... : D-2 16 . ... : F-3 0B . ... : C-# 07 . ... : ... .. . ... : A-0 0D . ... : ... .. . ... : ... .. . ...
ROW 31 : ... .. . ... : ... .. . ... : ... .. . ... : ... .. . ... : ... .. . ... : ... .. . ... : ... .. . ... : ... .. . ...
ROW 32 : ... .. . ... : ... .. . ... : ... .. . ... : ... .. . ... : ... .. . ... : ... .. . ... : ... .. . ... : ... .. . ...
ROW 33 : ... .. . ... : ... .. . ... : ... .. . ... : ... .. . ... : ... .. . ... : ... .. . ... : ... .. . ... : ... .. . ...
ROW 34 : === .. . ... : A-2 16 . ... : ... .. . ... : C-# 07 . ... : ... .. . ... : ... .. . ... : ... .. . ... : ... .. . ...
ROW 35 : ... .. . ... : ... .. . ... : ... .. . ... : ... .. . ... : ... .. . ... : ... .. . ... : ... .. . ... : ... .. . ...
ROW 36 : ... .. . ... : ... .. . ... : ... .. . ... : ... .. . ... : ... .. . ... : ... .. . ... : ... .. . ... : ... .. . ...
ROW 37 : ... .. . ... : ... .. . ... : ... .. . ... : ... .. . ... : ... .. . ... : ... .. . ... : ... .. . ... : ... .. . ...
ROW 38 : A-2 16 . ... : D-3 16 . ... : C-4 0C . ... : 8-# 18 . ... : ... .. . ... : === .. . ... : F-3 09 . ... : ... .. . ...
ROW 39 : ... .. . ... : ... .. . ... : ... .. . ... : ... .. . ... : ... .. . ... : ... .. . ... : ... .. . ... : ... .. . ...
ROW 3A : ... .. . ... : ... .. . ... : ... .. . ... : ... .. . ... : ... .. . ... : ... .. . ... : === .. . ... : ... .. . ...
ROW 3B : ... .. . ... : ... .. . ... : ... .. . ... : ... .. . ... : ... .. . ... : ... .. . ... : ... .. . ... : ... .. . ...
ROW 3C : ... .. . ... : F-2 16 . ... : ... .. . ... : C-# 07 . ... : ... .. . ... : ... .. . ... : --- 09 . ... : ... .. . ...
ROW 3D : ... .. . ... : ... .. . ... : ... .. . ... : ... .. . ... : ... .. . ... : ... .. . ... : ... .. . ... : ... .. . ...
ROW 3E : ... .. . ... : ... .. . ... : ... .. . ... : C-# 07 . ... : ... .. . ... : ... .. . ... : ... .. . ... : ... .. . ...
ROW 3F : ... .. . ... : ... .. . ... : ... .. . ... : ... .. . ... : ... .. . ... : ... .. . ... : ... .. . ... : ... .. . ...

PATTERN 07
ROW 00 : F-1 04 . ... : F-2 16 . ... : F-3 0B . ... : C-# 07 . ... : ... .. . ... : F-0 0D . ... : ... .. . ... : ... .. . ...
ROW 01 : ... .. . ... : ... .. . ... : ... .. . ... : ... .. . ... : ... .. . ... : ... .. . ... : ... .. . ... : ... .. . ...
ROW 02 : ... .. . ... : ... .. . ... : ... .. . ... : ... .. . ... : ... .. . ... : ... .. . ... : ... .. . ... : ... .. . ...
ROW 03 : ... .. . ... : ... .. . ... : ... .. . ... : ... .. . ... : ... .. . ... : ... .. . ... : ... .. . ... : ... .. . ...
ROW 04 : === .. . ... : F-2 16 . ... : ... .. . ... : C-# 07 . ... : ... .. . ... : ... .. . ... : ... .. . ... : ... .. . ...
ROW 05 : ... .. . ... : ... .. . ... : ... .. . ... : ... .. . ... : ... .. . ... : ... .. . ... : ... .. . ... : ... .. . ...
ROW 06 : ... .. . ... : ... .. . ... : ... .. . ... : ... .. . ... : ... .. . ... : ... .. . ... : ... .. . ... : ... .. . ...
ROW 07 : ... .. . ... : ... .. . ... : ... .. . ... : ... .. . ... : ... .. . ... : ... .. . ... : ... .. . ... : ... .. . ...
ROW 08 : C-3 16 . ... : F-3 16 . ... : C-4 0C . ... : 8-# 18 . ... : ... .. . ... : === .. . ... : A-3 09 . V03 : ... .. . ...
ROW 09 : ... .. . ... : ... .. . ... : ... .. . ... : ... .. . ... : ... .. . ... : ... .. . ... : ... .. . ... : ... .. . ...
ROW 0A : ... .. . ... : ... .. . ... : ... .. . ... : ... .. . ... : ... .. . ... : ... .. . ... : === .. . ... : ... .. . ...
ROW 0B : ... .. . ... : ... .. . ... : ... .. . ... : ... .. . ... : ... .. . ... : ... .. . ... : ... .. . ... : ... .. . ...
ROW 0C : ... .. . ... : F-2 16 . ... : ... .. . ... : C-# 07 . ... : ... .. . ... : ... .. . ... : --- 09 . ... : ... .. . ...
ROW 0D : ... .. . ... : ... .. . ... : ... .. . ... : ... .. . ... : ... .. . ... : ... .. . ... : ... .. . ... : ... .. . ...
ROW 0E : ... .. . ... : ... .. . ... : ... .. . ... : ... .. . ... : ... .. . ... : ... .. . ... : ... .. . ... : ... .. . ...
ROW 0F : ... .. . ... : ... .. . ... : ... .. . ... : ... .. . ... : ... .. . ... : ... .. . ... : ... .. . ... : ... .. . ...
ROW 10 : C-2 04 . ... : F-2 16 . ... : F-3 0B . ... : C-# 07 . ... : ... .. . ... : C-1 0D . ... : ... .. . ... : ... .. . ...
ROW 11 : ... .. . ... : ... .. . ... : ... .. . ... : ... .. . ... : ... .. . ... : ... .. . ... : ... .. . ... : ... .. . ...
ROW 12 : ... .. . ... : ... .. . ... : ... .. . ... : ... .. . ... : ... .. . ... : ... .. . ... : ... .. . ... : ... .. . ...
ROW 13 : ... .. . ... : ... .. . ... : ... .. . ... : ... .. . ... : ... .. . ... : ... .. . ... : ... .. . ... : ... .. . ...
ROW 14 : === .. . ... : C-3 16 . ... : ... .. . ... : C-# 07 . ... : ... .. . ... : ... .. . ... : ... .. . ... : ... .. . ...
ROW 15 : ... .. . ... : ... .. . ... : ... .. . ... : ... .. . ... : ... .. . ... : ... .. . ... : ... .. . ... : ... .. . ...
ROW 16 : ... .. . ... : ... .. . ... : ... .. . ... : ... .. . ... : ... .. . ... : ... .. . ... : ... .. . ... : ... .. . ...
ROW 17 : ... .. . ... : ... .. . ... : ... .. . ... : ... .. . ... : ... .. . ... : ... .. . ... : ... .. . ... : ... .. . ...
ROW 18 : C-3 16 . ... : F-3 16 . ... : C-4 0C . ... : 8-# 18 . ... : ... .. . ... : === .. . ... : A-3 09 . ... : ... .. . ...
ROW 19 : ... .. . ... : ... .. . ... : ... .. . ... : ... .. . ... : ... .. . ... : ... .. . ... : ... .. . ... : ... .. . ...
ROW 1A : ... .. . ... : ... .. . ... : ... .. . ... : ... .. . ... : ... .. . ... : ... .. . ... : === .. . ... : ... .. . ...
ROW 1B : ... .. . ... : ... .. . ... : ... .. . ... : ... .. . ... : ... .. . ... : ... .. . ... : ... .. . ... : ... .. . ...
ROW 1C : ... .. . ... : A-2 16 . ... : ... .. . ... : C-# 07 . ... : ... .. . ... : ... .. . ... : --- .. . ... : ... .. . ...
ROW 1D : ... .. . ... : ... .. . ... : ... .. . ... : ... .. . ... : ... .. . ... : ... .. . ... : ... .. . ... : ... .. . ...
ROW 1E : ... .. . ... : ... .. . ... : ... .. . ... : ... .. . ... : ... .. . ... : ... .. . ... : ... .. . ... : ... .. . ...
ROW 1F : ... .. . ... : ... .. . ... : ... .. . ... : ... .. . ... : ... .. . ... : ... .. . ... : ... .. . ... : ... .. . ...
ROW 20 : F-1 04 . ... : F-2 16 . ... : F-3 0B . ... : C-# 07 . ... : ... .. . ... : F-0 0D . ... : ... .. . ... : ... .. . ...
ROW 21 : ... .. . ... : ... .. . ... : ... .. . ... : ... .. . ... : ... .. . ... : ... .. . ... : ... .. . ... : ... .. . ...
ROW 22 : ... .. . ... : ... .. . ... : ... .. . ... : ... .. . ... : ... .. . ... : ... .. . ... : ... .. . ... : ... .. . ...
ROW 23 : ... .. . ... : ... .. . ... : ... .. . ... : ... .. . ... : ... .. . ... : ... .. . ... : ... .. . ... : ... .. . ...
ROW 24 : === .. . ... : F-2 16 . ... : ... .. . ... : C-# 07 . ... : ... .. . ... : ... .. . ... : ... .. . ... : ... .. . ...
ROW 25 : ... .. . ... : ... .. . ... : ... .. . ... : ... .. . ... : ... .. . ... : ... .. . ... : ... .. . ... : ... .. . ...
ROW 26 : ... .. . ... : ... .. . ... : ... .. . ... : ... .. . ... : ... .. . ... : ... .. . ... : ... .. . ... : ... .. . ...
ROW 27 : ... .. . ... : ... .. . ... : ... .. . ... : ... .. . ... : ... .. . ... : ... .. . ... : ... .. . ... : ... .. . ...
ROW 28 : C-3 16 . ... : F-3 16 . ... : C-4 0C . ... : 8-# 18 . ... : ... .. . ... : === .. . ... : A-3 09 . ... : ... .. . ...
ROW 29 : ... .. . ... : ... .. . ... : ... .. . ... : ... .. . ... : ... .. . ... : ... .. . ... : ... .. . ... : ... .. . ...
ROW 2A : ... .. . ... : ... .. . ... : ... .. . ... : ... .. . ... : ... .. . ... : ... .. . ... : === .. . ... : ... .. . ...
ROW 2B : ... .. . ... : ... .. . ... : ... .. . ... : ... .. . ... : ... .. . ... : ... .. . ... : ... .. . ... : ... .. . ...
ROW 2C : ... .. . ... : F-2 16 . ... : ... .. . ... : C-# 07 . ... : ... .. . ... : ... .. . ... : --- .. . ... : ... .. . ...
ROW 2D : ... .. . ... : ... .. . ... : ... .. . ... : ... .. . ... : ... .. . ... : ... .. . ... : ... .. . ... : ... .. . ...
ROW 2E : ... .. . ... : ... .. . ... : ... .. . ... : ... .. . ... : ... .. . ... : ... .. . ... : ... .. . ... : ... .. . ...
ROW 2F : ... .. . ... : ... .. . ... : ... .. . ... : ... .. . ... : ... .. . ... : ... .. . ... : ... .. . ... : ... .. . ...
ROW 30 : C-2 04 . ... : F-2 16 . ... : F-3 0B . ... : C-# 07 . ... : ... .. . ... : C-1 0D . ... : ... .. . ... : ... .. . ...
ROW 31 : ... .. . ... : ... .. . ... : ... .. . ... : ... .. . ... : ... .. . ... : ... .. . ... : ... .. . ... : ... .. . ...
ROW 32 : ... .. . ... : ... .. . ... : ... .. . ... : ... .. . ... : ... .. . ... : ... .. . ... : ... .. . ... : ... .. . ...
ROW 33 : ... .. . ... : ... .. . ... : ... .. . ... : ... .. . ... : ... .. . ... : ... .. . ... : ... .. . ... : ... .. . ...
ROW 34 : === .. . ... : C-3 16 . ... : ... .. . ... : C-# 07 . ... : ... .. . ... : ... .. . ... : ... .. . ... : ... .. . ...
ROW 35 : ... .. . ... : ... .. . ... : ... .. . ... : ... .. . ... : ... .. . ... : ... .. . ... : ... .. . ... : ... .. . ...
ROW 36 : ... .. . ... : ... .. . ... : ... .. . ... : ... .. . ... : ... .. . ... : ... .. . ... : ... .. . ... : ... .. . ...
ROW 37 : ... .. . ... : ... .. . ... : ... .. . ... : ... .. . ... : ... .. . ... : ... .. . ... : ... .. . ... : ... .. . ...
ROW 38 : C-3 16 . ... : F-3 16 . ... : C-4 0C . ... : 8-# 18 . ... : ... .. . ... : === .. . ... : A-3 09 . ... : ... .. . ...
ROW 39 : ... .. . ... : ... .. . ... : ... .. . ... : ... .. . ... : ... .. . ... : ... .. . ... : ... .. . ... : ... .. . ...
ROW 3A : ... .. . ... : ... .. . ... : ... .. . ... : ... .. . ... : ... .. . ... : ... .. . ... : === .. . ... : ... .. . ...
ROW 3B : ... .. . ... : ... .. . ... : ... .. . ... : ... .. . ... : ... .. . ... : ... .. . ... : ... .. . ... : ... .. . ...
ROW 3C : ... .. . ... : A-2 16 . ... : ... .. . ... : C-# 07 . ... : ... .. . ... : ... .. . ... : --- .. . ... : ... .. . ...
ROW 3D : ... .. . ... : ... .. . ... : ... .. . ... : ... .. . ... : ... .. . ... : ... .. . ... : ... .. . ... : ... .. . ...
ROW 3E : ... .. . ... : ... .. . ... : ... .. . ... : C-# 07 . ... : ... .. . ... : ... .. . ... : ... .. . ... : ... .. . ...
ROW 3F : ... .. . ... : ... .. . ... : ... .. . ... : ... .. . ... : ... .. . ... : ... .. . ... : ... .. . ... : ... .. . ...

PATTERN 08
ROW 00 : G-1 04 . ... : G-2 16 . ... : F-3 0B . ... : C-# 07 . ... : ... .. . ... : G-0 0D . ... : ... .. . ... : ... .. . ...
ROW 01 : ... .. . ... : ... .. . ... : ... .. . ... : ... .. . ... : ... .. . ... : ... .. . ... : ... .. . ... : ... .. . ...
ROW 02 : ... .. . ... : ... .. . ... : ... .. . ... : ... .. . ... : ... .. . ... : ... .. . ... : ... .. . ... : ... .. . ...
ROW 03 : ... .. . ... : ... .. . ... : ... .. . ... : ... .. . ... : ... .. . ... : ... .. . ... : ... .. . ... : ... .. . ...
ROW 04 : === .. . ... : G-2 16 . ... : ... .. . ... : C-# 07 . ... : ... .. . ... : ... .. . ... : ... .. . ... : ... .. . ...
ROW 05 : ... .. . ... : ... .. . ... : ... .. . ... : ... .. . ... : ... .. . ... : ... .. . ... : ... .. . ... : ... .. . ...
ROW 06 : ... .. . ... : ... .. . ... : ... .. . ... : ... .. . ... : ... .. . ... : ... .. . ... : ... .. . ... : ... .. . ...
ROW 07 : ... .. . ... : ... .. . ... : ... .. . ... : ... .. . ... : ... .. . ... : ... .. . ... : ... .. . ... : ... .. . ...
ROW 08 : D-3 16 . ... : G-3 16 . ... : C-4 0C . ... : 8-# 18 . ... : ... .. . ... : === .. . ... : B-3 09 . V03 : ... .. . ...
ROW 09 : ... .. . ... : ... .. . ... : ... .. . ... : ... .. . ... : ... .. . ... : ... .. . ... : ... .. . ... : ... .. . ...
ROW 0A : ... .. . ... : ... .. . ... : ... .. . ... : ... .. . ... : ... .. . ... : ... .. . ... : === .. . ... : ... .. . ...
ROW 0B : ... .. . ... : ... .. . ... : ... .. . ... : ... .. . ... : ... .. . ... : ... .. . ... : ... .. . ... : ... .. . ...
ROW 0C : ... .. . ... : G-2 16 . ... : ... .. . ... : C-# 07 . ... : ... .. . ... : ... .. . ... : --- 09 . ... : ... .. . ...
ROW 0D : ... .. . ... : ... .. . ... : ... .. . ... : ... .. . ... : ... .. . ... : ... .. . ... : ... .. . ... : ... .. . ...
ROW 0E : ... .. . ... : ... .. . ... : ... .. . ... : ... .. . ... : ... .. . ... : ... .. . ... : ... .. . ... : ... .. . ...
ROW 0F : ... .. . ... : ... .. . ... : ... .. . ... : ... .. . ... : ... .. . ... : ... .. . ... : ... .. . ... : ... .. . ...
ROW 10 : D-2 04 . ... : G-2 16 . ... : F-3 0B . ... : C-# 07 . ... : ... .. . ... : D-1 0D . ... : ... .. . ... : ... .. . ...
ROW 11 : ... .. . ... : ... .. . ... : ... .. . ... : ... .. . ... : ... .. . ... : ... .. . ... : ... .. . ... : ... .. . ...
ROW 12 : ... .. . ... : ... .. . ... : ... .. . ... : ... .. . ... : ... .. . ... : ... .. . ... : ... .. . ... : ... .. . ...
ROW 13 : ... .. . ... : ... .. . ... : ... .. . ... : ... .. . ... : ... .. . ... : ... .. . ... : ... .. . ... : ... .. . ...
ROW 14 : === .. . ... : D-3 16 . ... : ... .. . ... : C-# 07 . ... : ... .. . ... : ... .. . ... : ... .. . ... : ... .. . ...
ROW 15 : ... .. . ... : ... .. . ... : ... .. . ... : ... .. . ... : ... .. . ... : ... .. . ... : ... .. . ... : ... .. . ...
ROW 16 : ... .. . ... : ... .. . ... : ... .. . ... : ... .. . ... : ... .. . ... : ... .. . ... : ... .. . ... : ... .. . ...
ROW 17 : ... .. . ... : ... .. . ... : ... .. . ... : ... .. . ... : ... .. . ... : ... .. . ... : ... .. . ... : ... .. . ...
ROW 18 : D-3 16 . ... : G-3 16 . ... : C-4 0C . ... : 8-# 18 . ... : ... .. . ... : === .. . ... : B-3 09 . ... : ... .. . ...
ROW 19 : ... .. . ... : ... .. . ... : ... .. . ... : ... .. . ... : ... .. . ... : ... .. . ... : ... .. . ... : ... .. . ...
ROW 1A : ... .. . ... : ... .. . ... : ... .. . ... : ... .. . ... : ... .. . ... : ... .. . ... : === .. . ... : ... .. . ...
ROW 1B : ... .. . ... : ... .. . ... : ... .. . ... : ... .. . ... : ... .. . ... : ... .. . ... : ... .. . ... : ... .. . ...
ROW 1C : ... .. . ... : B-2 16 . ... : ... .. . ... : C-# 07 . ... : ... .. . ... : ... .. . ... : --- 09 . ... : ... .. . ...
ROW 1D : ... .. . ... : ... .. . ... : ... .. . ... : ... .. . ... : ... .. . ... : ... .. . ... : ... .. . ... : ... .. . ...
ROW 1E : ... .. . ... : ... .. . ... : ... .. . ... : ... .. . ... : ... .. . ... : ... .. . ... : ... .. . ... : ... .. . ...
ROW 1F : ... .. . ... : ... .. . ... : ... .. . ... : ... .. . ... : ... .. . ... : ... .. . ... : ... .. . ... : ... .. . ...
ROW 20 : G-1 04 . ... : G-2 16 . ... : F-3 0B . ... : C-# 07 . ... : ... .. . ... : G-0 0D . ... : ... .. . ... : ... .. . ...
ROW 21 : ... .. . ... : ... .. . ... : ... .. . ... : ... .. . ... : ... .. . ... : ... .. . ... : ... .. . ... : ... .. . ...
ROW 22 : ... .. . ... : ... .. . ... : ... .. . ... : ... .. . ... : ... .. . ... : ... .. . ... : ... .. . ... : ... .. . ...
ROW 23 : ... .. . ... : ... .. . ... : ... .. . ... : ... .. . ... : ... .. . ... : ... .. . ... : ... .. . ... : ... .. . ...
ROW 24 : === .. . ... : G-2 16 . ... : ... .. . ... : C-# 07 . ... : ... .. . ... : ... .. . ... : ... .. . ... : ... .. . ...
ROW 25 : ... .. . ... : ... .. . ... : ... .. . ... : ... .. . ... : ... .. . ... : ... .. . ... : ... .. . ... : ... .. . ...
ROW 26 : ... .. . ... : ... .. . ... : ... .. . ... : ... .. . ... : ... .. . ... : ... .. . ... : ... .. . ... : ... .. . ...
ROW 27 : ... .. . ... : ... .. . ... : ... .. . ... : ... .. . ... : ... .. . ... : ... .. . ... : ... .. . ... : ... .. . ...
ROW 28 : D-3 16 . ... : G-3 16 . ... : C-4 0C . ... : 8-# 18 . ... : ... .. . ... : === .. . ... : B-3 09 . ... : ... .. . ...
ROW 29 : ... .. . ... : ... .. . ... : ... .. . ... : ... .. . ... : ... .. . ... : ... .. . ... : ... .. . ... : ... .. . ...
ROW 2A : ... .. . ... : ... .. . ... : ... .. . ... : ... .. . ... : ... .. . ... : ... .. . ... : === .. . ... : ... .. . ...
ROW 2B : ... .. . ... : ... .. . ... : ... .. . ... : ... .. . ... : ... .. . ... : ... .. . ... : ... .. . ... : ... .. . ...
ROW 2C : ... .. . ... : G-2 16 . ... : ... .. . ... : C-# 07 . ... : ... .. . ... : ... .. . ... : --- 09 . ... : ... .. . ...
ROW 2D : ... .. . ... : ... .. . ... : ... .. . ... : ... .. . ... : ... .. . ... : ... .. . ... : ... .. . ... : ... .. . ...
ROW 2E : ... .. . ... : ... .. . ... : ... .. . ... : ... .. . ... : ... .. . ... : ... .. . ... : ... .. . ... : ... .. . ...
ROW 2F : ... .. . ... : ... .. . ... : ... .. . ... : ... .. . ... : ... .. . ... : ... .. . ... : ... .. . ... : ... .. . ...
ROW 30 : D-2 04 . ... : G-2 16 . ... : F-3 0B . ... : C-# 07 . ... : ... .. . ... : D-1 0D . ... : ... .. . ... : ... .. . ...
ROW 31 : ... .. . ... : ... .. . ... : ... .. . ... : ... .. . ... : ... .. . ... : ... .. . ... : ... .. . ... : ... .. . ...
ROW 32 : ... .. . ... : ... .. . ... : ... .. . ... : ... .. . ... : ... .. . ... : ... .. . ... : ... .. . ... : ... .. . ...
ROW 33 : ... .. . ... : ... .. . ... : ... .. . ... : ... .. . ... : ... .. . ... : ... .. . ... : ... .. . ... : ... .. . ...
ROW 34 : === .. . ... : D-3 16 . ... : ... .. . ... : C-# 07 . ... : ... .. . ... : ... .. . ... : B-3 09 . ... : ... .. . ...
ROW 35 : ... .. . ... : ... .. . ... : ... .. . ... : ... .. . ... : ... .. . ... : ... .. . ... : === .. . ... : ... .. . ...
ROW 36 : ... .. . ... : G-2 16 . ... : ... .. . ... : ... .. . ... : ... .. . ... : ... .. . ... : B-2 09 . ... : ... .. . ...
ROW 37 : ... .. . ... : ... .. . ... : ... .. . ... : ... .. . ... : ... .. . ... : ... .. . ... : === .. . ... : ... .. . ...
ROW 38 : F-1 04 . ... : F-2 16 . ... : C-4 0C . ... : 8-# 18 . ... : ... .. . ... : F-0 0D . ... : C-3 09 . ... : ... .. . ...
ROW 39 : ... .. . ... : ... .. . ... : ... .. . ... : ... .. . ... : ... .. . ... : ... .. . ... : ... .. . ... : ... .. . ...
ROW 3A : ... .. . ... : ... .. . ... : ... .. . ... : ... .. . ... : ... .. . ... : ... .. . ... : === .. . ... : ... .. . ...
ROW 3B : ... .. . ... : ... .. . ... : ... .. . ... : ... .. . ... : ... .. . ... : ... .. . ... : ... .. . ... : ... .. . ...
ROW 3C : E-1 04 . ... : E-2 16 . ... : ... .. . ... : C-# 07 . ... : ... .. . ... : E-0 0D . ... : B-2 09 . ... : ... .. . ...
ROW 3D : ... .. . ... : ... .. . ... : ... .. . ... : ... .. . ... : ... .. . ... : ... .. . ... : ... .. . ... : ... .. . ...
ROW 3E : ... .. . ... : ... .. . ... : ... .. . ... : C-# 07 . ... : ... .. . ... : ... .. . ... : === .. . ... : ... .. . ...
ROW 3F : ... .. . ... : ... .. . ... : ... .. . ... : ... .. . ... : ... .. . ... : ... .. . ... : ... .. . ... : ... .. . ...

PATTERN 09
ROW 00 : D-1 04 . ... : D-2 16 . ... : F-3 0B . ... : C-# 07 . ... : ... .. . ... : D-0 0D . ... : A-2 09 . V03 : ... .. . ...
ROW 01 : ... .. . ... : ... .. . ... : ... .. . ... : ... .. . ... : ... .. . ... : ... .. . ... : ... .. . ... : ... .. . ...
ROW 02 : === .. . ... : ... .. . ... : ... .. . ... : ... .. . ... : ... .. . ... : === .. . ... : === .. . ... : ... .. . ...
ROW 03 : ... .. . ... : ... .. . ... : ... .. . ... : ... .. . ... : ... .. . ... : ... .. . ... : ... .. . ... : ... .. . ...
ROW 04 : D-1 04 . ... : D-3 16 . ... : ... .. . ... : C-# 07 . ... : ... .. . ... : D-0 0D . ... : A-2 09 . ... : ... .. . ...
ROW 05 : ... .. . ... : ... .. . ... : ... .. . ... : ... .. . ... : ... .. . ... : ... .. . ... : ... .. . ... : ... .. . ...
ROW 06 : === .. . ... : A-2 16 . ... : ... .. . ... : C-# 07 . ... : ... .. . ... : ... .. . ... : === .. . ... : ... .. . ...
ROW 07 : ... .. . ... : ... .. . ... : ... .. . ... : ... .. . ... : ... .. . ... : ... .. . ... : ... .. . ... : ... .. . ...
ROW 08 : C-3 16 . ... : E-3 16 . ... : C-4 0C . ... : 8-# 18 . ... : ... .. . ... : === .. . ... : G-3 09 . ... : ... .. . ...
ROW 09 : ... .. . ... : ... .. . ... : ... .. . ... : ... .. . ... : ... .. . ... : ... .. . ... : ... .. . ... : ... .. . ...
ROW 0A : ... .. . ... : ... .. . ... : ... .. . ... : ... .. . ... : ... .. . ... : ... .. . ... : === .. . ... : ... .. . ...
ROW 0B : ... .. . ... : ... .. . ... : ... .. . ... : ... .. . ... : ... .. . ... : ... .. . ... : ... .. . ... : ... .. . ...
ROW 0C : ... .. . ... : C-3 16 . ... : ... .. . ... : C-# 07 . ... : ... .. . ... : ... .. . ... : ... .. . ... : ... .. . ...
ROW 0D : ... .. . ... : ... .. . ... : ... .. . ... : ... .. . ... : ... .. . ... : ... .. . ... : ... .. . ... : ... .. . ...
ROW 0E : ... .. . ... : D-3 16 . ... : ... .. . ... : ... .. . ... : ... .. . ... : ... .. . ... : --- .. . ... : ... .. . ...
ROW 0F : ... .. . ... : ... .. . ... : ... .. . ... : ... .. . ... : ... .. . ... : ... .. . ... : ... .. . ... : ... .. . ...
ROW 10 : A-1 04 . ... : F-3 16 . ... : C-4 0C . ... : 8-# 18 . ... : ... .. . ... : A-0 0D . ... : A-3 09 . ... : ... .. . ...
ROW 11 : ... .. . ... : ... .. . ... : ... .. . ... : ... .. . ... : ... .. . ... : ... .. . ... : ... .. . ... : ... .. . ...
ROW 12 : === .. . ... : ... .. . ... : ... .. . ... : ... .. . ... : ... .. . ... : === .. . ... : === .. . ... : ... .. . ...
ROW 13 : ... .. . ... : ... .. . ... : ... .. . ... : ... .. . ... : ... .. . ... : ... .. . ... : ... .. . ... : ... .. . ...
ROW 14 : A-1 04 . ... : A-2 16 . ... : ... .. . ... : C-# 07 . ... : ... .. . ... : A-0 0D . ... : ... .. . ... : ... .. . ...
ROW 15 : ... .. . ... : ... .. . ... : ... .. . ... : ... .. . ... : ... .. . ... : ... .. . ... : ... .. . ... : ... .. . ...
ROW 16 : === .. . ... : ... .. . ... : ... .. . ... : ... .. . ... : ... .. . ... : ... .. . ... : --- .. . ... : ... .. . ...
ROW 17 : ... .. . ... : ... .. . ... : ... .. . ... : ... .. . ... : ... .. . ... : ... .. . ... : ... .. . ... : ... .. . ...
ROW 18 : G-3 16 . ... : D-3 16 . ... : C-4 0C . ... : 8-# 18 . ... : ... .. . ... : === .. . ... : B-3 09 . ... : ... .. . ...
ROW 19 : ... .. . ... : ... .. . ... : ... .. . ... : ... .. . ... : ... .. . ... : ... .. . ... : ... .. . ... : ... .. . ...
ROW 1A : ... .. . ... : ... .. . ... : ... .. . ... : ... .. . ... : ... .. . ... : ... .. . ... : === .. . ... : ... .. . ...
ROW 1B : ... .. . ... : ... .. . ... : ... .. . ... : ... .. . ... : ... .. . ... : ... .. . ... : ... .. . ... : ... .. . ...
ROW 1C : A-1 04 . ... : A-2 16 . ... : ... .. . ... : C-# 07 . ... : ... .. . ... : A-0 0D . ... : ... .. . ... : ... .. . ...
ROW 1D : ... .. . ... : ... .. . ... : ... .. . ... : ... .. . ... : ... .. . ... : ... .. . ... : ... .. . ... : ... .. . ...
ROW 1E : === .. . ... : ... .. . ... : ... .. . ... : C-# 07 . ... : ... .. . ... : === .. . ... : --- .. . ... : ... .. . ...
ROW 1F : ... .. . ... : ... .. . ... : ... .. . ... : ... .. . ... : ... .. . ... : ... .. . ... : ... .. . ... : ... .. . ...
ROW 20 : D-1 04 . ... : D-2 16 . ... : F-3 0B . ... : C-# 07 . ... : ... .. . ... : D-0 0D . ... : ... .. . ... : ... .. . ...
ROW 21 : ... .. . ... : ... .. . ... : ... .. . ... : ... .. . ... : ... .. . ... : ... .. . ... : ... .. . ... : ... .. . ...
ROW 22 : === .. . ... : ... .. . ... : ... .. . ... : ... .. . ... : ... .. . ... : === .. . ... : ... .. . ... : ... .. . ...
ROW 23 : ... .. . ... : ... .. . ... : ... .. . ... : ... .. . ... : ... .. . ... : ... .. . ... : ... .. . ... : ... .. . ...
ROW 24 : D-1 04 . ... : A-2 16 . ... : ... .. . ... : C-# 07 . ... : ... .. . ... : D-0 0D . ... : ... .. . ... : ... .. . ...
ROW 25 : ... .. . ... : ... .. . ... : ... .. . ... : ... .. . ... : ... .. . ... : ... .. . ... : ... .. . ... : ... .. . ...
ROW 26 : === .. . ... : ... .. . ... : ... .. . ... : C-# 07 . ... : ... .. . ... : ... .. . ... : ... .. . ... : ... .. . ...
ROW 27 : ... .. . ... : ... .. . ... : ... .. . ... : ... .. . ... : ... .. . ... : ... .. . ... : ... .. . ... : ... .. . ...
ROW 28 : C-3 16 . ... : E-3 16 . ... : C-4 0C . ... : 8-# 18 . ... : ... .. . ... : === .. . ... : G-3 09 . ... : ... .. . ...
ROW 29 : ... .. . ... : ... .. . ... : ... .. . ... : ... .. . ... : ... .. . ... : ... .. . ... : ... .. . ... : ... .. . ...
ROW 2A : ... .. . ... : ... .. . ... : ... .. . ... : ... .. . ... : ... .. . ... : ... .. . ... : === .. . ... : ... .. . ...
ROW 2B : ... .. . ... : ... .. . ... : ... .. . ... : ... .. . ... : ... .. . ... : ... .. . ... : ... .. . ... : ... .. . ...
ROW 2C : A-1 04 . ... : A-2 16 . ... : ... .. . ... : C-# 07 . ... : ... .. . ... : A-0 0D . ... : ... .. . ... : ... .. . ...
ROW 2D : ... .. . ... : ... .. . ... : ... .. . ... : ... .. . ... : ... .. . ... : ... .. . ... : ... .. . ... : ... .. . ...
ROW 2E : === .. . ... : ... .. . ... : ... .. . ... : ... .. . ... : ... .. . ... : === .. . ... : --- .. . ... : ... .. . ...
ROW 2F : ... .. . ... : ... .. . ... : ... .. . ... : ... .. . ... : ... .. . ... : ... .. . ... : ... .. . ... : ... .. . ...
ROW 30 : D-1 04 . ... : F-3 16 . ... : F-3 0B . ... : 8-# 18 . ... : ... .. . ... : D-0 0D . ... : D-3 09 . ... : ... .. . ...
ROW 31 : ... .. . ... : ... .. . ... : ... .. . ... : ... .. . ... : ... .. . ... : ... .. . ... : ... .. . ... : ... .. . ...
ROW 32 : ... .. . ... : ... .. . ... : ... .. . ... : ... .. . ... : ... .. . ... : ... .. . ... : === .. . ... : ... .. . ...
ROW 33 : ... .. . ... : ... .. . ... : ... .. . ... : ... .. . ... : ... .. . ... : ... .. . ... : ... .. . ... : ... .. . ...
ROW 34 : === .. . ... : C-3 16 . ... : C-4 0C . ... : 8-# 06 7 ... : ... .. . ... : === .. . ... : ... .. . ... : ... .. . ...
ROW 35 : ... .. . ... : ... .. . ... : ... .. . ... : ... .. . ... : ... .. . ... : ... .. . ... : ... .. . ... : ... .. . ...
ROW 36 : ... .. . ... : D-2 16 . ... : C-4 0C . ... : 8-# 06 8 ... : ... .. . ... : ... .. . ... : --- .. . ... : ... .. . ...
ROW 37 : ... .. . ... : ... .. . ... : ... .. . ... : ... .. . ... : ... .. . ... : ... .. . ... : ... .. . ... : ... .. . ...
ROW 38 : F-1 15 . ... : F-2 16 . ... : C-4 0C . ... : 8-# 06 F ... : ... .. . ... : F-0 0D . ... : A-2 09 . ... : ... .. . ...
ROW 39 : ... .. . ... : ... .. . ... : ... .. . ... : ... .. . ... : ... .. . ... : ... .. . ... : ... .. . ... : ... .. . ...
ROW 3A : === .. . ... : ... .. . ... : ... .. . ... : ... .. . ... : ... .. . ... : === .. . ... : === .. . ... : ... .. . ...
ROW 3B : ... .. . ... : ... .. . ... : ... .. . ... : ... .. . ... : ... .. . ... : ... .. . ... : ... .. . ... : ... .. . ...
ROW 3C : E-1 15 . ... : E-2 16 . ... : C-4 0C . ... : 8-# 06 7 ... : ... .. . ... : E-0 0D . ... : G-2 09 . ... : ... .. . ...
ROW 3D : ... .. . ... : ... .. . ... : ... .. . ... : ... .. . ... : ... .. . ... : ... .. . ... : ... .. . ... : ... .. . ...
ROW 3E : === .. . ... : ... .. . ... : C-4 0C . ... : 8-# 06 8 ... : ... .. . ... : === .. . ... : === .. . ... : ... .. . ...
ROW 3F : ... .. . ... : ... .. . ... : ... .. . ... : ... .. . ... : ... .. . ... : ... .. . ... : ... .. . ... : ... .. . ...

# End of export
