# FamiTracker text export 0.4.2

# Song information
TITLE           "Badass Shmup vs Metal Pinball"
AUTHOR          "Raijin"
COPYRIGHT       "2012"

# Song comment
COMMENT ""

# Global settings
MACHINE         0
FRAMERATE       0
EXPANSION       1
VIBRATO         1
SPLIT           21

# Macros
MACRO       0   0  -1  -1   0 : 6 4 3 2 1 1 0
MACRO       0   1  -1  -1   0 : 6 5 4 4 3 3 3 2 2 0
MACRO       0   2  -1  -1   0 : 4 2 1 0
MACRO       0   3  -1  -1   0 : 6 4 3 2 2 0
MACRO       0   4  -1  -1   0 : 5 5 4 4 3
MACRO       0   5  -1  -1   0 : 6 4 3 2 2 0
MACRO       0   6  -1  -1   0 : 4 2 1 0
MACRO       0   7  -1  -1   0 : 11 9 8 7 6 5 5 4 4 3 3 3 2 2 2 2 2 2 1 1 1 1 1 1 1 0
MACRO       0   8  -1   5   0 : 8 7 7 6 6 5 5 4 4 3 3 3 2 0
MACRO       1   0  -1  -1   0 : 0 -1 0
MACRO       1   1  -1  -1   0 : -1 -1 0
MACRO       1   2  -1  -1   0 : -1 0
MACRO       1   3  -1  -1   0 : 0 1 -1 0
MACRO       1   4  -1  -1   0 : 0 -12
MACRO       1   5  -1  -1   0 : 0 1 -1 0
MACRO       1   6  -1  -1   0 : -1 0
MACRO       1   7  -1  -1   0 : 0 -4 1 -3 2
MACRO       1   8  -1  -1   0 : 0 -12
MACRO       4   0  -1  -1   0 : 2 1 0 1
MACROVRC6   0   0  -1  -1   0 : 8 6 5 4
MACROVRC6   0   1  -1  -1   0 : 12 9 7 6 6 5
MACROVRC6   0   2  -1  -1   0 : 8 7 6 6 6 5
MACROVRC6   0   3  11  -1   0 : 3 4 4 5 6 6 7 7 7 6 6 5 5 5 5 5 4 4 4 4 4 4 4 4 4 5
MACROVRC6   0   4  -1  -1   0 : 5
MACROVRC6   0   5  -1  -1   0 : 4
MACROVRC6   0   6  -1  -1   0 : 8 6 6 5 4 4 4 3
MACROVRC6   0   7  -1  -1   0 : 3 5 6 6 7
MACROVRC6   4   0  -1  -1   0 : 0 2 6
MACROVRC6   4   1  -1  -1   0 : 0 4
MACROVRC6   4   2  -1  -1   0 : 1 3

# DPCM samples
DPCMDEF   0   129 "lightkick.dmc"
DPCM : AA AA AA AA AA AF F0 9E 9F F0 06 AE 7C 1B 98 F0 00 03 00 0C 01 CE 01 80 00 00 00 00 00 0F 1F FF
DPCM : FB F3 CF F3 EF DE B8 F9 A6 A2 24 39 81 43 80 86 19 02 38 51 87 86 15 39 8C A6 55 4D 16 8C A3 45
DPCM : 45 90 CA 56 22 52 70 D6 53 16 D3 54 D7 4B 37 4B 5B 6B 56 CE B5 5B 5D 59 B6 D5 AB D6 B5 D7 6B 6D
DPCM : AD AE B6 D6 B5 B5 AA D6 AA AC AA A9 54 A9 94 A4 A9 4A 4A 8A 92 54 A5 49 29 4A 54 A5 29 52 A5 4A
DPCM : A5
DPCMDEF   1   385 "lightsnare.dmc"
DPCM : 9C 73 61 00 0E C6 EB FF FF 57 12 E1 93 00 00 00 BB 7B E3 C5 FF FF 7F 01 80 61 00 00 E4 FF FF 79
DPCM : FE FF 0F 82 00 00 00 00 98 F3 FF FF FF 3F 4F 62 00 C4 00 06 82 38 6E 7F FF FB FB C7 0E 03 44 00
DPCM : 00 98 D2 CD E7 FF 9D CF DD 6C 3C 31 00 03 04 19 07 9D 7B FF F7 CF F3 64 20 18 82 31 48 1E A7 F3
DPCM : E7 79 EE 3C BC B4 18 84 0C 43 22 F3 CC B4 EF BC 73 E6 98 91 23 32 8C 38 06 17 E7 73 79 36 CF 0E
DPCM : 6D 31 1C 86 A1 72 18 36 6D 3E CF 7B 3E 26 87 21 30 0C 99 3C C7 76 E7 CD 73 1C C5 8C C3 4C 32 8B
DPCM : 99 C9 EA 9C 36 9D 67 66 3A C3 1C 06 C7 34 96 39 67 AD 33 C7 66 8E 65 65 52 5A 62 9A C9 34 67 9C
DPCM : F3 CC 9A 79 66 8C 91 89 E3 C8 78 6C 8E 3B DA 9C E3 D1 70 1C 3C C6 24 39 CD 9A CD 5C 1D 8F 93 71
DPCM : 9A 34 1A CB 46 66 8C CC D9 EC 6C AF C7 2D 33 04 03 83 C8 2C E7 F9 7E 57 67 66 98 11 12 C6 71 AC
DPCM : 71 36 CF 39 D3 34 B3 72 32 67 1C 8E 61 6C C8 59 D9 6C E6 79 AE 5A C9 88 13 C5 18 8D CD B9 D9 8E
DPCM : B3 2D 4E C3 70 32 96 55 4D 96 93 96 8D B3 6C 5A AE 35 53 4D 4A 52 2A A6 99 B3 B5 36 6B 2B 63 4C
DPCM : 65 54 A6 A6 39 4B 4D 33 AE 71 CC 65 B5 C6 31 D3 38 C5 68 CC CC 72 66 6B 96 4D D3 38 8E 55 1C D3
DPCM : 34 96 59 CE D8 6A A6 D3 AA 4C 63 99 A9 54 55 71 3C D5 98 33 AE E5 B4 34 AB 92 C9 98 96 69 AA E6
DPCM : 59
DPCMDEF   2   577 "CF5.dmc"
DPCM : FF C2 01 00 20 8C FE FF FF FF 4D 03 C0 80 70 9C 01 33 03 E0 C0 FC B8 FF FF FF FF 36 0C 00 00 04
DPCM : 80 3B 0F 63 67 B4 9F FB EF EF C6 9F C7 80 00 00 00 30 CE FC BB F2 3C DC 7B F2 F7 66 CF 0A 23 40
DPCM : 84 10 04 E3 E4 1C FF F9 79 9F 1B 3B E3 8D 39 87 11 29 06 60 88 A8 D2 1E 3F E7 5F DB E7 75 34 E3
DPCM : 98 38 C2 64 0C 44 06 96 A9 66 9B 6B B7 FD EA 36 AB A6 4A 39 4D C2 10 51 86 24 4B 65 AD B9 EE AE
DPCM : F3 6E 65 B5 96 C6 64 99 82 30 29 A4 2A 95 AC CD 66 B7 75 6D CD DD 6A 59 4D 92 94 24 29 92 54 95
DPCM : 64 CD AA B6 6A AB ED EC BA 5A 2D 2B 95 4A 49 91 94 94 A2 52 95 D5 DA DA B6 B5 D6 D6 CA AA 55 6A
DPCM : A9 52 52 12 29 A5 54 A9 AA D5 6A AB D5 5A EB 6A B5 56 55 95 52 52 4A 92 52 4A 55 55 D5 AA 56 AB
DPCM : D6 56 AB B5 56 55 AB AA 2A 25 A9 A4 94 54 A9 52 D5 AA DA D6 6A AD 35 AB 55 55 55 AB B4 94 52 89
DPCM : 52 4A 49 95 59 D5 5A AD B5 6A B5 CE 6A 55 AB 52 95 52 49 25 95 2A 55 A9 AC AA AA D6 5A 6B AD 56
DPCM : AB 6A D5 AA 2A 55 4A 49 49 49 A5 4A D5 6A D5 6A B5 6A D5 AA 5A 55 AB 56 55 95 52 A9 24 A5 54 AA
DPCM : 54 55 D5 6A AD B6 AA B5 5A D5 AA AA AA 54 55 A5 52 2A A5 52 55 AA CA AA 56 AD B5 5A AD 6A B5 AA
DPCM : AA 56 AA 54 4A 25 95 52 A5 AA AA AA 5A D5 6A D5 6A D5 AA 56 D5 AA AA 52 29 95 4A 2A 55 2A 55 55
DPCM : 55 6B AD 56 AB 55 AB 6A 55 55 AD 4A 55 AA 94 4A 4A 95 AA AA AA AA 55 AB 5A AB 56 AB 56 2D D5 52
DPCM : 55 2A 55 AA 94 54 AA 52 55 55 AD 5A AD 56 AB 55 B5 AA 9A 56 55 55 29 95 4A A5 52 AA 2A 55 AB 6A
DPCM : B5 5A B5 5A D5 AA 6A 55 55 55 A9 AA 54 4A A5 52 A5 AA 4A AD AA 5A AD 56 AB D5 AA 6A 55 A5 AA 4A
DPCM : 55 AA 54 A9 52 A9 AA AA AA AA 55 AB 56 AB 55 AB AA 55 55 55 95 2A 95 4A A5 54 AA AA AA AA 56 B5
DPCM : 6A 55 AB 55 AB AA 5A AA AA AA 4A 95 4A A5 52 A9 AA AA AA AA 55 AD D5 AA 55 B5 AA AA AA AA AA 54
DPCM : 95 2A 55 AA 52 95 AA AA 5A 55 AB 55 AB 55 AD 6A 00 00 00 00 00 00 00 00 00 00 00 00 00 00 00 00
DPCM : A4
DPCMDEF   3   129 "lightkick.dmc"
DPCM : AA AA AA AA AA AF F0 9E 9F F0 06 AE 7C 1B 98 F0 00 03 00 0C 01 CE 01 80 00 00 00 00 00 0F 1F FF
DPCM : FB F3 CF F3 EF DE B8 F9 A6 A2 24 39 81 43 80 86 19 02 38 51 87 86 15 39 8C A6 55 4D 16 8C A3 45
DPCM : 45 90 CA 56 22 52 70 D6 53 16 D3 54 D7 4B 37 4B 5B 6B 56 CE B5 5B 5D 59 B6 D5 AB D6 B5 D7 6B 6D
DPCM : AD AE B6 D6 B5 B5 AA D6 AA AC AA A9 54 A9 94 A4 A9 4A 4A 8A 92 54 A5 49 29 4A 54 A5 29 52 A5 4A
DPCM : A5
DPCMDEF   4   385 "lightsnare.dmc"
DPCM : 9C 73 61 00 0E C6 EB FF FF 57 12 E1 93 00 00 00 BB 7B E3 C5 FF FF 7F 01 80 61 00 00 E4 FF FF 79
DPCM : FE FF 0F 82 00 00 00 00 98 F3 FF FF FF 3F 4F 62 00 C4 00 06 82 38 6E 7F FF FB FB C7 0E 03 44 00
DPCM : 00 98 D2 CD E7 FF 9D CF DD 6C 3C 31 00 03 04 19 07 9D 7B FF F7 CF F3 64 20 18 82 31 48 1E A7 F3
DPCM : E7 79 EE 3C BC B4 18 84 0C 43 22 F3 CC B4 EF BC 73 E6 98 91 23 32 8C 38 06 17 E7 73 79 36 CF 0E
DPCM : 6D 31 1C 86 A1 72 18 36 6D 3E CF 7B 3E 26 87 21 30 0C 99 3C C7 76 E7 CD 73 1C C5 8C C3 4C 32 8B
DPCM : 99 C9 EA 9C 36 9D 67 66 3A C3 1C 06 C7 34 96 39 67 AD 33 C7 66 8E 65 65 52 5A 62 9A C9 34 67 9C
DPCM : F3 CC 9A 79 66 8C 91 89 E3 C8 78 6C 8E 3B DA 9C E3 D1 70 1C 3C C6 24 39 CD 9A CD 5C 1D 8F 93 71
DPCM : 9A 34 1A CB 46 66 8C CC D9 EC 6C AF C7 2D 33 04 03 83 C8 2C E7 F9 7E 57 67 66 98 11 12 C6 71 AC
DPCM : 71 36 CF 39 D3 34 B3 72 32 67 1C 8E 61 6C C8 59 D9 6C E6 79 AE 5A C9 88 13 C5 18 8D CD B9 D9 8E
DPCM : B3 2D 4E C3 70 32 96 55 4D 96 93 96 8D B3 6C 5A AE 35 53 4D 4A 52 2A A6 99 B3 B5 36 6B 2B 63 4C
DPCM : 65 54 A6 A6 39 4B 4D 33 AE 71 CC 65 B5 C6 31 D3 38 C5 68 CC CC 72 66 6B 96 4D D3 38 8E 55 1C D3
DPCM : 34 96 59 CE D8 6A A6 D3 AA 4C 63 99 A9 54 55 71 3C D5 98 33 AE E5 B4 34 AB 92 C9 98 96 69 AA E6
DPCM : 59
DPCMDEF   5   577 "CF5.dmc"
DPCM : FF C2 01 00 20 8C FE FF FF FF 4D 03 C0 80 70 9C 01 33 03 E0 C0 FC B8 FF FF FF FF 36 0C 00 00 04
DPCM : 80 3B 0F 63 67 B4 9F FB EF EF C6 9F C7 80 00 00 00 30 CE FC BB F2 3C DC 7B F2 F7 66 CF 0A 23 40
DPCM : 84 10 04 E3 E4 1C FF F9 79 9F 1B 3B E3 8D 39 87 11 29 06 60 88 A8 D2 1E 3F E7 5F DB E7 75 34 E3
DPCM : 98 38 C2 64 0C 44 06 96 A9 66 9B 6B B7 FD EA 36 AB A6 4A 39 4D C2 10 51 86 24 4B 65 AD B9 EE AE
DPCM : F3 6E 65 B5 96 C6 64 99 82 30 29 A4 2A 95 AC CD 66 B7 75 6D CD DD 6A 59 4D 92 94 24 29 92 54 95
DPCM : 64 CD AA B6 6A AB ED EC BA 5A 2D 2B 95 4A 49 91 94 94 A2 52 95 D5 DA DA B6 B5 D6 D6 CA AA 55 6A
DPCM : A9 52 52 12 29 A5 54 A9 AA D5 6A AB D5 5A EB 6A B5 56 55 95 52 52 4A 92 52 4A 55 55 D5 AA 56 AB
DPCM : D6 56 AB B5 56 55 AB AA 2A 25 A9 A4 94 54 A9 52 D5 AA DA D6 6A AD 35 AB 55 55 55 AB B4 94 52 89
DPCM : 52 4A 49 95 59 D5 5A AD B5 6A B5 CE 6A 55 AB 52 95 52 49 25 95 2A 55 A9 AC AA AA D6 5A 6B AD 56
DPCM : AB 6A D5 AA 2A 55 4A 49 49 49 A5 4A D5 6A D5 6A B5 6A D5 AA 5A 55 AB 56 55 95 52 A9 24 A5 54 AA
DPCM : 54 55 D5 6A AD B6 AA B5 5A D5 AA AA AA 54 55 A5 52 2A A5 52 55 AA CA AA 56 AD B5 5A AD 6A B5 AA
DPCM : AA 56 AA 54 4A 25 95 52 A5 AA AA AA 5A D5 6A D5 6A D5 AA 56 D5 AA AA 52 29 95 4A 2A 55 2A 55 55
DPCM : 55 6B AD 56 AB 55 AB 6A 55 55 AD 4A 55 AA 94 4A 4A 95 AA AA AA AA 55 AB 5A AB 56 AB 56 2D D5 52
DPCM : 55 2A 55 AA 94 54 AA 52 55 55 AD 5A AD 56 AB 55 B5 AA 9A 56 55 55 29 95 4A A5 52 AA 2A 55 AB 6A
DPCM : B5 5A B5 5A D5 AA 6A 55 55 55 A9 AA 54 4A A5 52 A5 AA 4A AD AA 5A AD 56 AB D5 AA 6A 55 A5 AA 4A
DPCM : 55 AA 54 A9 52 A9 AA AA AA AA 55 AB 56 AB 55 AB AA 55 55 55 95 2A 95 4A A5 54 AA AA AA AA 56 B5
DPCM : 6A 55 AB 55 AB AA 5A AA AA AA 4A 95 4A A5 52 A9 AA AA AA AA 55 AD D5 AA 55 B5 AA AA AA AA AA 54
DPCM : 95 2A 55 AA 52 95 AA AA 5A 55 AB 55 AB 55 AD 6A 00 00 00 00 00 00 00 00 00 00 00 00 00 00 00 00
DPCM : A4
DPCMDEF   6  1105 "AfterBurner2PSGHit.dmc"
DPCM : C1 7F 00 0E AF 11 F6 0F E0 FF 80 E9 BB 02 F8 05 A8 A9 0A B1 FE FF FF 2F 80 FF 7F AA 02 A8 AA AA
DPCM : 1F 00 00 AE AA FE 01 C0 5D 55 00 B0 82 FF C7 57 8F 50 E0 FF EB FF FE 01 00 AE 7A 00 FA F9 00 70
DPCM : 1F C0 FF FF 83 07 05 00 00 30 FA 0F 1F 0C EB E9 FE FF 03 30 5C FD 00 00 44 D5 BF FF 40 60 81 FF
DPCM : 1F 00 3A D4 FF 7F A1 AA 55 F0 FC E1 1F 01 EE 07 20 F0 BA FF 0F 00 FE FF 2A 00 FC 5F 00 78 A8 7A
DPCM : 80 07 D4 0E F0 F1 E0 FF 7E 3C 00 80 81 DD 7F 80 F4 F5 5F FF FF 57 05 C0 07 00 00 2E F8 6A FD F5
DPCM : 0F 80 15 F5 FF 3F 00 15 10 00 FE FF FF 01 C0 FF FF 01 00 DC 0A 30 FE 05 00 80 AA 7F E1 6E F9 1F
DPCM : 10 00 FC D3 C1 55 7F D0 FF 0F 0F 00 FF E7 D7 F3 12 FF 0B F8 03 07 00 FE 20 F0 07 08 00 B4 E2 E1
DPCM : 0F FD FF FF 07 28 80 03 F8 0F F0 E0 3F AA 3E FC FF FF FF 04 00 7C 00 8F E8 0F E0 01 80 40 3F 00
DPCM : 3C 6E 81 E2 0B AE FA F8 FD 1F 00 1E 50 D1 FF C7 FF 1F 60 80 C7 1F 45 FF A0 F8 1F 00 C0 2A A8 FA
DPCM : 3F F8 1F BF 0A 80 55 01 80 0F BC D5 FF 0A 5C A5 FB FF F3 0F 0C C0 61 F1 03 FE 57 2A 00 07 7A 80
DPCM : 7F F0 FE 43 3F 0C 3C F1 C3 C3 FF 38 20 50 F8 0F A0 0F 00 F0 F7 41 55 A0 FE 1F FD FB F5 E3 3E 00
DPCM : 7E F5 FF 03 00 7C 20 F0 8F 7F 00 F0 E1 40 81 15 C0 3F 80 57 28 B8 FF C5 FF 01 F8 00 1E 7C F0 FF
DPCM : 2F 5C 00 78 B0 0F F8 0F 60 04 7E E1 D0 4F 3D C2 FF 0F 54 F8 03 49 1F 7C 7F D5 C3 1F C0 FD FF 00
DPCM : 02 14 FE 1F C0 01 80 57 0F 2C 34 DA FF 8F 07 70 70 FF 1F FE 0F 54 E0 07 FC 13 FF FF 3C 00 00 8A
DPCM : EB 00 1C D0 5F FD A9 1E 00 80 AB 0F 02 0E 3E 3D C0 FD 87 FF FF 00 FB 03 00 C0 5E F5 9F E2 FF D3
DPCM : 07 80 5F F8 04 FF 00 FF FF 00 00 00 5E 17 FD 03 C3 03 50 BA FF F9 0F 10 06 3C D0 F3 C3 7F 18 2A
DPCM : FE 07 B5 07 70 80 A2 1E 98 D2 D7 DF FF 7F A0 F2 01 00 00 FE E7 2D D6 0A FC 17 80 FD 41 F5 FF A3
DPCM : AA 00 E0 FF F5 57 40 01 00 F8 3F 00 FF AF 0F 00 E0 FF 03 FF 0F 00 C0 A5 FA 07 A0 E5 F7 60 FD 13
DPCM : FA 07 E1 01 DE 07 FC C3 FF 0F 58 F8 1F 03 0F A0 E0 FE 01 3F 00 2F F8 0F 80 C1 7F 60 7E E0 FF 0F
DPCM : 1E F4 4B C1 81 FF FC 14 C0 FF 87 0F F0 E1 00 00 9C FE 0B FC FF C3 03 00 20 F8 01 F4 F2 FF 01 4C
DPCM : 2F 3C C0 FB 0F 00 B5 FA F5 00 BC 3E 17 F4 D7 AF 03 F8 FF 07 70 F8 FF 17 C0 FA 40 40 05 2C 10 D8
DPCM : DF 3F 00 2B 78 50 7A F5 1F 80 3E D0 AF 82 AE FF 05 AC F0 F9 82 A8 02 FD 03 FA 07 3F 00 17 F7 17
DPCM : C0 FF 0F 50 10 FA 5F 80 4F 5D 07 BA 50 FE 10 CF 7A 2C EE 22 7C 03 FC BB 7A 00 84 F6 BF 80 ED 2F
DPCM : 60 7D A8 7D 55 81 AA AA D7 B7 F7 01 18 5E 41 20 1C FC AA 5A 84 AA 69 EB C1 EE 4F 15 E4 02 78 C9
DPCM : 55 F5 8B 5C 57 68 01 EE CB 0F 62 5F E8 55 4A 45 7D 60 F7 48 BF 00 EB FF 03 FC 01 F0 57 54 BD 07
DPCM : F0 8A 40 0B 57 B1 3E C1 FB 02 EA 7F 8A 02 FE C0 F5 42 07 AA CA F6 0A BE 28 D4 7A D5 DF 07 A0 AA
DPCM : 0A D4 85 FA 1F A0 52 AB 31 BD A4 5E D1 7F D5 05 F0 A4 5D 90 D6 54 88 DE C9 9D 22 AE EA 22 AE 22
DPCM : DA 93 AA AF 0A 55 4A BA FF 00 2B D6 2A 6A 17 56 5F A1 AA 9B 0A 75 43 55 A5 16 55 D7 AD FE 50 D8
DPCM : BC AB AA 22 56 55 55 47 0A 8C 5E D5 D6 01 C9 2F 15 AA AA 49 B5 55 57 93 52 53 B5 C7 57 5D 05 8A
DPCM : AE EA 12 D5 AA 05 5B 6D D0 FB AA 8A 15 83 91 AA A9 AA 36 4D A5 AA E5 F2 55 47 34 6A 75 14 9A 56
DPCM : 55 4D DD A8 51 4D AD 56 95 52 A9 F5 AA AA AA AA A2 AD 65 35 49 5A 2B A5 B1 AA F6 15 52 3D AA AA
DPCM : C4 AB 65 8A 5A AB 6A A8 8D A5 AA D2 AA 72 39 5D 49 9A AA 46 AD 65 A9 69 55 AD D4 2E A9 6A A5 2A
DPCM : 56 AA A5 AA AA 6A 55 2B AA 95 DA AA 95 AA AA A4 AA 55 AD 4A A5 5A AB 2A 55 A9 B5 4A A9 6A 4D 95
DPCM : AA AA AA AA AA AA 55 6A 55 55 55 55 55 A9 AA EA 6A 0F 54 55 55 D5 AA AA AA AA AA AA AA AA AA AA
DPCM : 54 55 55 55 55 55 55 55 55 55 55 55 55 55 55 55 55

# Instruments
INST2A03   0    -1  -1  -1  -1  -1 "blank"
KEYDPCM   0   3   0     0  14   0     0  -1
KEYDPCM   0   3   1     1  13   0     0  -1
KEYDPCM   0   3   2     2  15   0     0  -1
KEYDPCM   0   3   3     2  14   0     0  -1
KEYDPCM   0   3   4     2  13   0     0  -1
KEYDPCM   0   3   5     2  12   0     0  -1
KEYDPCM   0   3   6     2  11   0     0  -1
KEYDPCM   0   3   7     2  10   0     0  -1
INST2A03   1     0   0  -1  -1  -1 "closed hat"
INST2A03   2     1   1  -1  -1  -1 "open hat"
INST2A03   3     2   2  -1  -1  -1 "tom"
INST2A03   4     3   3  -1  -1  -1 "kick/snare"
INSTVRC6   5     0  -1  -1  -1  -1 "saw"
INSTVRC6   6     1  -1  -1  -1  -1 "synth lead"
INST2A03   7     4  -1  -1  -1  -1 "lead echo"
INST2A03   8    -1   4  -1  -1  -1 "tri"
INST2A03   9    -1  -1  -1  -1  -1 "blank"
KEYDPCM   9   3   0     3  14   0     0  -1
KEYDPCM   9   3   1     4  13   0     0  -1
KEYDPCM   9   3   2     5  15   0     0  -1
KEYDPCM   9   3   3     5  14   0     0  -1
KEYDPCM   9   3   4     5  13   0     0  -1
KEYDPCM   9   3   5     5  12   0     0  -1
KEYDPCM   9   3   6     5  11   0     0  -1
KEYDPCM   9   3   7     5  10   0     0  -1
KEYDPCM   9   3   8     6  15   0     0  -1
INST2A03  10     5   5  -1  -1  -1 "kick/snare"
INST2A03  11     6   6  -1  -1  -1 "tom"
INST2A03  12     7   7  -1  -1  -1 "crash"
INST2A03  13    -1   8  -1  -1  -1 "tri"
INSTVRC6  14     2  -1  -1  -1   0 "saw lead"
INSTVRC6  15     3  -1  -1  -1   0 "choir"
INSTVRC6  16     4  -1  -1  -1  -1 "MOTHER"
INSTVRC6  17     5  -1  -1  -1  -1 "FUCKER"
INSTVRC6  18     6  -1  -1  -1   1 "pluck"
INSTVRC6  19     7  -1  -1  -1   2 "screech"
INST2A03  20     8  -1  -1  -1   0 "guitar"

# Tracks

TRACK  96   2 150 "Thunderforce III: Truth"
COLUMNS : 3 3 1 1 1 2 3 1

ORDER 00 : 00 00 00 00 00 00 00 00
ORDER 01 : 01 01 01 01 01 01 01 01
ORDER 02 : 02 02 02 02 02 02 02 02
ORDER 03 : 03 03 03 03 03 03 03 03
ORDER 04 : 04 04 04 04 04 04 04 04
ORDER 05 : 05 05 05 05 05 05 05 05
ORDER 06 : 06 06 06 06 06 06 06 06
ORDER 07 : 07 07 07 07 07 07 07 07
ORDER 08 : 08 08 08 08 08 08 08 08
ORDER 09 : 09 09 09 09 09 09 09 09
ORDER 0A : 0A 0A 0A 0A 0A 0A 0A 0A
ORDER 0B : 0B 0B 0B 0B 0B 0B 0B 0B
ORDER 0C : 0C 0C 0C 0C 0C 0C 0C 0C
ORDER 0D : 0D 0D 0D 0D 0D 0D 0D 0D
ORDER 0E : 0E 0E 0E 0E 0E 0E 0E 0E
ORDER 0F : 0F 0F 0F 0F 0F 0F 0F 0F
ORDER 10 : 10 10 10 10 10 10 10 10
ORDER 11 : 11 11 11 11 11 11 11 11
ORDER 12 : 12 12 12 12 12 12 12 12
ORDER 13 : 13 13 13 13 13 13 13 13
ORDER 14 : 14 14 14 14 14 14 14 14
ORDER 15 : 15 15 15 15 15 15 15 15

PATTERN 00
ROW 00 : ... .. . ... ... ... : ... .. . ... ... ... : ... .. . ... : 8-# 03 . ... : F-3 00 . F96 : ... .. . ... ... : ... .. . ... ... ... : ... .. . ...
ROW 01 : ... .. . ... ... ... : ... .. . ... ... ... : ... .. . ... : ... .. . ... : ... .. . FA4 : ... .. . ... ... : ... .. . ... ... ... : ... .. . ...
ROW 02 : ... .. . ... ... ... : ... .. . ... ... ... : ... .. . ... : 8-# 03 . ... : F-3 00 . F96 : ... .. . ... ... : ... .. . ... ... ... : ... .. . ...
ROW 03 : ... .. . ... ... ... : ... .. . ... ... ... : ... .. . ... : ... .. . ... : ... .. . FA4 : ... .. . ... ... : ... .. . ... ... ... : ... .. . ...
ROW 04 : ... .. . ... ... ... : ... .. . ... ... ... : ... .. . ... : 8-# 03 . ... : F-3 00 . F96 : ... .. . ... ... : ... .. . ... ... ... : ... .. . ...
ROW 05 : ... .. . ... ... ... : ... .. . ... ... ... : ... .. . ... : ... .. . ... : ... .. . FA4 : ... .. . ... ... : ... .. . ... ... ... : ... .. . ...
ROW 06 : ... .. . ... ... ... : ... .. . ... ... ... : ... .. . ... : ... .. . ... : ... .. . F96 : ... .. . ... ... : ... .. . ... ... ... : ... .. . ...
ROW 07 : ... .. . ... ... ... : ... .. . ... ... ... : ... .. . ... : ... .. . ... : ... .. . FA4 : ... .. . ... ... : ... .. . ... ... ... : ... .. . ...
ROW 08 : ... .. . ... ... ... : ... .. . ... ... ... : ... .. . ... : 8-# 03 . ... : F-3 00 . F96 : ... .. . ... ... : ... .. . ... ... ... : ... .. . ...
ROW 09 : ... .. . ... ... ... : ... .. . ... ... ... : ... .. . ... : ... .. . ... : ... .. . FA4 : ... .. . ... ... : ... .. . ... ... ... : ... .. . ...
ROW 0A : ... .. . ... ... ... : ... .. . ... ... ... : ... .. . ... : ... .. . ... : ... .. . F96 : ... .. . ... ... : ... .. . ... ... ... : ... .. . ...
ROW 0B : ... .. . ... ... ... : ... .. . ... ... ... : ... .. . ... : ... .. . ... : ... .. . FA4 : ... .. . ... ... : ... .. . ... ... ... : ... .. . ...
ROW 0C : ... .. . ... ... ... : ... .. . ... ... ... : ... .. . ... : B-# 03 . ... : D-3 00 . F96 : ... .. . ... ... : ... .. . ... ... ... : ... .. . ...
ROW 0D : ... .. . ... ... ... : ... .. . ... ... ... : ... .. . ... : ... .. . ... : ... .. . FA4 : ... .. . ... ... : ... .. . ... ... ... : ... .. . ...
ROW 0E : ... .. . ... ... ... : ... .. . ... ... ... : ... .. . ... : ... .. . ... : ... .. . F96 : ... .. . ... ... : ... .. . ... ... ... : ... .. . ...
ROW 0F : ... .. . ... ... ... : ... .. . ... ... ... : ... .. . ... : ... .. . ... : ... .. . FA4 : ... .. . ... ... : ... .. . ... ... ... : ... .. . ...
ROW 10 : ... .. . ... ... ... : ... .. . ... ... ... : ... .. . ... : A-# 03 . ... : D#3 00 . F96 : ... .. . ... ... : ... .. . ... ... ... : ... .. . ...
ROW 11 : ... .. . ... ... ... : ... .. . ... ... ... : ... .. . ... : ... .. . ... : ... .. . FA4 : ... .. . ... ... : ... .. . ... ... ... : ... .. . ...
ROW 12 : ... .. . ... ... ... : ... .. . ... ... ... : ... .. . ... : ... .. . ... : ... .. . F96 : ... .. . ... ... : ... .. . ... ... ... : ... .. . ...
ROW 13 : ... .. . ... ... ... : ... .. . ... ... ... : ... .. . ... : ... .. . ... : ... .. . FA4 : ... .. . ... ... : ... .. . ... ... ... : ... .. . ...
ROW 14 : ... .. . ... ... ... : ... .. . ... ... ... : ... .. . ... : 9-# 03 . ... : E-3 00 . F96 : ... .. . ... ... : ... .. . ... ... ... : ... .. . ...
ROW 15 : ... .. . ... ... ... : ... .. . ... ... ... : ... .. . ... : ... .. . ... : ... .. . FA4 : ... .. . ... ... : ... .. . ... ... ... : ... .. . ...
ROW 16 : ... .. . ... ... ... : ... .. . ... ... ... : ... .. . ... : ... .. . ... : ... .. . F96 : ... .. . ... ... : ... .. . ... ... ... : ... .. . ...
ROW 17 : ... .. . ... ... ... : ... .. . ... ... ... : ... .. . ... : ... .. . ... : ... .. . FA4 : ... .. . ... ... : ... .. . ... ... ... : ... .. . ...
ROW 18 : ... .. . ... ... ... : ... .. . ... ... ... : ... .. . ... : 8-# 03 . ... : F-3 00 . F96 : ... .. . ... ... : ... .. . ... ... ... : ... .. . ...
ROW 19 : ... .. . ... ... ... : ... .. . ... ... ... : ... .. . ... : ... .. . ... : ... .. . FA4 : ... .. . ... ... : ... .. . ... ... ... : ... .. . ...
ROW 1A : ... .. . ... ... ... : ... .. . ... ... ... : ... .. . ... : 8-# 03 . ... : F-3 00 . F96 : ... .. . ... ... : ... .. . ... ... ... : ... .. . ...
ROW 1B : ... .. . ... ... ... : ... .. . ... ... ... : ... .. . ... : ... .. . ... : ... .. . FA4 : ... .. . ... ... : ... .. . ... ... ... : ... .. . ...
ROW 1C : ... .. . ... ... ... : ... .. . ... ... ... : ... .. . ... : 8-# 03 . ... : F-3 00 . F96 : ... .. . ... ... : ... .. . ... ... ... : ... .. . ...
ROW 1D : ... .. . ... ... ... : ... .. . ... ... ... : ... .. . ... : ... .. . ... : ... .. . FA4 : ... .. . ... ... : ... .. . ... ... ... : ... .. . ...
ROW 1E : ... .. . ... ... ... : ... .. . ... ... ... : ... .. . ... : ... .. . ... : ... .. . F96 : ... .. . ... ... : ... .. . ... ... ... : ... .. . ...
ROW 1F : ... .. . ... ... ... : ... .. . ... ... ... : ... .. . ... : ... .. . ... : ... .. . FA4 : ... .. . ... ... : ... .. . ... ... ... : ... .. . ...
ROW 20 : ... .. . ... ... ... : ... .. . ... ... ... : ... .. . ... : 8-# 03 . ... : F-3 00 . F96 : ... .. . ... ... : ... .. . ... ... ... : ... .. . ...
ROW 21 : ... .. . ... ... ... : ... .. . ... ... ... : ... .. . ... : ... .. . ... : ... .. . FA4 : ... .. . ... ... : ... .. . ... ... ... : ... .. . ...
ROW 22 : ... .. . ... ... ... : ... .. . ... ... ... : ... .. . ... : ... .. . ... : ... .. . F96 : ... .. . ... ... : ... .. . ... ... ... : ... .. . ...
ROW 23 : ... .. . ... ... ... : ... .. . ... ... ... : ... .. . ... : ... .. . ... : ... .. . FA4 : ... .. . ... ... : ... .. . ... ... ... : ... .. . ...
ROW 24 : ... .. . ... ... ... : ... .. . ... ... ... : ... .. . ... : 9-# 03 . ... : E-3 00 . F96 : ... .. . ... ... : ... .. . ... ... ... : ... .. . ...
ROW 25 : ... .. . ... ... ... : ... .. . ... ... ... : ... .. . ... : ... .. . ... : ... .. . FA4 : ... .. . ... ... : ... .. . ... ... ... : ... .. . ...
ROW 26 : ... .. . ... ... ... : ... .. . ... ... ... : ... .. . ... : 9-# 03 . ... : E-3 00 . F96 : ... .. . ... ... : ... .. . ... ... ... : ... .. . ...
ROW 27 : ... .. . ... ... ... : ... .. . ... ... ... : ... .. . ... : ... .. . ... : ... .. . FA4 : ... .. . ... ... : ... .. . ... ... ... : ... .. . ...
ROW 28 : ... .. . ... ... ... : ... .. . ... ... ... : ... .. . ... : 8-# 03 . ... : F-3 00 . F96 : ... .. . ... ... : ... .. . ... ... ... : ... .. . ...
ROW 29 : ... .. . ... ... ... : ... .. . ... ... ... : ... .. . ... : ... .. . ... : ... .. . FA4 : ... .. . ... ... : ... .. . ... ... ... : ... .. . ...
ROW 2A : ... .. . ... ... ... : ... .. . ... ... ... : ... .. . ... : 8-# 03 . ... : F-3 00 . F96 : ... .. . ... ... : ... .. . ... ... ... : ... .. . ...
ROW 2B : ... .. . ... ... ... : ... .. . ... ... ... : ... .. . ... : ... .. . ... : ... .. . FA4 : ... .. . ... ... : ... .. . ... ... ... : ... .. . ...
ROW 2C : ... .. . ... ... ... : ... .. . ... ... ... : ... .. . ... : 7-# 03 . ... : F#3 00 . F96 : ... .. . ... ... : ... .. . ... ... ... : ... .. . ...
ROW 2D : ... .. . ... ... ... : ... .. . ... ... ... : ... .. . ... : ... .. . ... : ... .. . FA4 : ... .. . ... ... : ... .. . ... ... ... : ... .. . ...
ROW 2E : ... .. . ... ... ... : ... .. . ... ... ... : ... .. . ... : 7-# 03 . ... : F#3 00 . F96 : ... .. . ... ... : ... .. . ... ... ... : ... .. . ...
ROW 2F : ... .. . ... ... ... : ... .. . ... ... ... : ... .. . ... : ... .. . D00 : ... .. . FA4 : ... .. . ... ... : ... .. . ... ... ... : ... .. . ...
ROW 30 : ... .. . ... ... ... : ... .. . ... ... ... : ... .. . ... : ... .. . ... : ... .. . ... : ... .. . ... ... : ... .. . ... ... ... : ... .. . ...
ROW 31 : ... .. . ... ... ... : ... .. . ... ... ... : ... .. . ... : ... .. . ... : ... .. . ... : ... .. . ... ... : ... .. . ... ... ... : ... .. . ...
ROW 32 : ... .. . ... ... ... : ... .. . ... ... ... : ... .. . ... : ... .. . ... : ... .. . ... : ... .. . ... ... : ... .. . ... ... ... : ... .. . ...
ROW 33 : ... .. . ... ... ... : ... .. . ... ... ... : ... .. . ... : ... .. . ... : ... .. . ... : ... .. . ... ... : ... .. . ... ... ... : ... .. . ...
ROW 34 : ... .. . ... ... ... : ... .. . ... ... ... : ... .. . ... : ... .. . ... : ... .. . ... : ... .. . ... ... : ... .. . ... ... ... : ... .. . ...
ROW 35 : ... .. . ... ... ... : ... .. . ... ... ... : ... .. . ... : ... .. . ... : ... .. . ... : ... .. . ... ... : ... .. . ... ... ... : ... .. . ...
ROW 36 : ... .. . ... ... ... : ... .. . ... ... ... : ... .. . ... : ... .. . ... : ... .. . ... : ... .. . ... ... : ... .. . ... ... ... : ... .. . ...
ROW 37 : ... .. . ... ... ... : ... .. . ... ... ... : ... .. . ... : ... .. . ... : ... .. . ... : ... .. . ... ... : ... .. . ... ... ... : ... .. . ...
ROW 38 : ... .. . ... ... ... : ... .. . ... ... ... : ... .. . ... : ... .. . ... : ... .. . ... : ... .. . ... ... : ... .. . ... ... ... : ... .. . ...
ROW 39 : ... .. . ... ... ... : ... .. . ... ... ... : ... .. . ... : ... .. . ... : ... .. . ... : ... .. . ... ... : ... .. . ... ... ... : ... .. . ...
ROW 3A : ... .. . ... ... ... : ... .. . ... ... ... : ... .. . ... : ... .. . ... : ... .. . ... : ... .. . ... ... : ... .. . ... ... ... : ... .. . ...
ROW 3B : ... .. . ... ... ... : ... .. . ... ... ... : ... .. . ... : ... .. . ... : ... .. . ... : ... .. . ... ... : ... .. . ... ... ... : ... .. . ...
ROW 3C : ... .. . ... ... ... : ... .. . ... ... ... : ... .. . ... : ... .. . ... : ... .. . ... : ... .. . ... ... : ... .. . ... ... ... : ... .. . ...
ROW 3D : ... .. . ... ... ... : ... .. . ... ... ... : ... .. . ... : ... .. . ... : ... .. . ... : ... .. . ... ... : ... .. . ... ... ... : ... .. . ...
ROW 3E : ... .. . ... ... ... : ... .. . ... ... ... : ... .. . ... : ... .. . ... : ... .. . ... : ... .. . ... ... : ... .. . ... ... ... : ... .. . ...
ROW 3F : ... .. . ... ... ... : ... .. . ... ... ... : ... .. . ... : ... .. . ... : ... .. . ... : ... .. . ... ... : ... .. . ... ... ... : ... .. . ...
ROW 40 : ... .. . ... ... ... : ... .. . ... ... ... : ... .. . ... : ... .. . ... : ... .. . ... : ... .. . ... ... : ... .. . ... ... ... : ... .. . ...
ROW 41 : ... .. . ... ... ... : ... .. . ... ... ... : ... .. . ... : ... .. . ... : ... .. . ... : ... .. . ... ... : ... .. . ... ... ... : ... .. . ...
ROW 42 : ... .. . ... ... ... : ... .. . ... ... ... : ... .. . ... : ... .. . ... : ... .. . ... : ... .. . ... ... : ... .. . ... ... ... : ... .. . ...
ROW 43 : ... .. . ... ... ... : ... .. . ... ... ... : ... .. . ... : ... .. . ... : ... .. . ... : ... .. . ... ... : ... .. . ... ... ... : ... .. . ...
ROW 44 : ... .. . ... ... ... : ... .. . ... ... ... : ... .. . ... : ... .. . ... : ... .. . ... : ... .. . ... ... : ... .. . ... ... ... : ... .. . ...
ROW 45 : ... .. . ... ... ... : ... .. . ... ... ... : ... .. . ... : ... .. . ... : ... .. . ... : ... .. . ... ... : ... .. . ... ... ... : ... .. . ...
ROW 46 : ... .. . ... ... ... : ... .. . ... ... ... : ... .. . ... : ... .. . ... : ... .. . ... : ... .. . ... ... : ... .. . ... ... ... : ... .. . ...
ROW 47 : ... .. . ... ... ... : ... .. . ... ... ... : ... .. . ... : ... .. . ... : ... .. . ... : ... .. . ... ... : ... .. . ... ... ... : ... .. . ...
ROW 48 : ... .. . ... ... ... : ... .. . ... ... ... : ... .. . ... : ... .. . ... : ... .. . ... : ... .. . ... ... : ... .. . ... ... ... : ... .. . ...
ROW 49 : ... .. . ... ... ... : ... .. . ... ... ... : ... .. . ... : ... .. . ... : ... .. . ... : ... .. . ... ... : ... .. . ... ... ... : ... .. . ...
ROW 4A : ... .. . ... ... ... : ... .. . ... ... ... : ... .. . ... : ... .. . ... : ... .. . ... : ... .. . ... ... : ... .. . ... ... ... : ... .. . ...
ROW 4B : ... .. . ... ... ... : ... .. . ... ... ... : ... .. . ... : ... .. . ... : ... .. . ... : ... .. . ... ... : ... .. . ... ... ... : ... .. . ...
ROW 4C : ... .. . ... ... ... : ... .. . ... ... ... : ... .. . ... : ... .. . ... : ... .. . ... : ... .. . ... ... : ... .. . ... ... ... : ... .. . ...
ROW 4D : ... .. . ... ... ... : ... .. . ... ... ... : ... .. . ... : ... .. . ... : ... .. . ... : ... .. . ... ... : ... .. . ... ... ... : ... .. . ...
ROW 4E : ... .. . ... ... ... : ... .. . ... ... ... : ... .. . ... : ... .. . ... : ... .. . ... : ... .. . ... ... : ... .. . ... ... ... : ... .. . ...
ROW 4F : ... .. . ... ... ... : ... .. . ... ... ... : ... .. . ... : ... .. . ... : ... .. . ... : ... .. . ... ... : ... .. . ... ... ... : ... .. . ...
ROW 50 : ... .. . ... ... ... : ... .. . ... ... ... : ... .. . ... : ... .. . ... : ... .. . ... : ... .. . ... ... : ... .. . ... ... ... : ... .. . ...
ROW 51 : ... .. . ... ... ... : ... .. . ... ... ... : ... .. . ... : ... .. . ... : ... .. . ... : ... .. . ... ... : ... .. . ... ... ... : ... .. . ...
ROW 52 : ... .. . ... ... ... : ... .. . ... ... ... : ... .. . ... : ... .. . ... : ... .. . ... : ... .. . ... ... : ... .. . ... ... ... : ... .. . ...
ROW 53 : ... .. . ... ... ... : ... .. . ... ... ... : ... .. . ... : ... .. . ... : ... .. . ... : ... .. . ... ... : ... .. . ... ... ... : ... .. . ...
ROW 54 : ... .. . ... ... ... : ... .. . ... ... ... : ... .. . ... : ... .. . ... : ... .. . ... : ... .. . ... ... : ... .. . ... ... ... : ... .. . ...
ROW 55 : ... .. . ... ... ... : ... .. . ... ... ... : ... .. . ... : ... .. . ... : ... .. . ... : ... .. . ... ... : ... .. . ... ... ... : ... .. . ...
ROW 56 : ... .. . ... ... ... : ... .. . ... ... ... : ... .. . ... : ... .. . ... : ... .. . ... : ... .. . ... ... : ... .. . ... ... ... : ... .. . ...
ROW 57 : ... .. . ... ... ... : ... .. . ... ... ... : ... .. . ... : ... .. . ... : ... .. . ... : ... .. . ... ... : ... .. . ... ... ... : ... .. . ...
ROW 58 : ... .. . ... ... ... : ... .. . ... ... ... : ... .. . ... : ... .. . ... : ... .. . ... : ... .. . ... ... : ... .. . ... ... ... : ... .. . ...
ROW 59 : ... .. . ... ... ... : ... .. . ... ... ... : ... .. . ... : ... .. . ... : ... .. . ... : ... .. . ... ... : ... .. . ... ... ... : ... .. . ...
ROW 5A : ... .. . ... ... ... : ... .. . ... ... ... : ... .. . ... : ... .. . ... : ... .. . ... : ... .. . ... ... : ... .. . ... ... ... : ... .. . ...
ROW 5B : ... .. . ... ... ... : ... .. . ... ... ... : ... .. . ... : ... .. . ... : ... .. . ... : ... .. . ... ... : ... .. . ... ... ... : ... .. . ...
ROW 5C : ... .. . ... ... ... : ... .. . ... ... ... : ... .. . ... : ... .. . ... : ... .. . ... : ... .. . ... ... : ... .. . ... ... ... : ... .. . ...
ROW 5D : ... .. . ... ... ... : ... .. . ... ... ... : ... .. . ... : ... .. . ... : ... .. . ... : ... .. . ... ... : ... .. . ... ... ... : ... .. . ...
ROW 5E : ... .. . ... ... ... : ... .. . ... ... ... : ... .. . ... : ... .. . ... : ... .. . ... : ... .. . ... ... : ... .. . ... ... ... : ... .. . ...
ROW 5F : ... .. . ... ... ... : ... .. . ... ... ... : ... .. . ... : ... .. . ... : ... .. . ... : ... .. . ... ... : ... .. . ... ... ... : ... .. . ...

PATTERN 01
ROW 00 : F#4 00 2 V02 P81 ... : ... .. . ... ... ... : B-2 08 . ... : D-# 01 . ... : --- .. . F96 : B-2 06 F V04 ... : F#3 06 F V04 ... ... : B-0 05 D ...
ROW 01 : ... .. . ... ... ... : ... .. . ... ... ... : ... .. . ... : ... .. . ... : ... .. . ... : ... .. . V01 ... : ... .. . V01 ... ... : B-1 05 . ...
ROW 02 : ... .. . ... ... ... : ... .. . ... ... ... : ... .. . ... : ... .. . ... : ... .. . ... : ... .. . ... ... : ... .. . ... ... ... : ... .. . ...
ROW 03 : ... .. . ... ... ... : ... .. . ... ... ... : ... .. . ... : ... .. . ... : ... .. . FD4 : ... .. . ... ... : ... .. . ... ... ... : ... .. . ...
ROW 04 : ... .. . ... ... ... : ... .. . ... ... ... : ... .. . ... : D-# 01 . ... : ... .. . F96 : ... .. . ... ... : ... .. . ... ... ... : B-1 05 7 ...
ROW 05 : ... .. . ... ... ... : ... .. . ... ... ... : ... .. . ... : ... .. . ... : ... .. . ... : ... .. . ... ... : ... .. . ... ... ... : ... .. . ...
ROW 06 : ... .. . ... ... ... : ... .. . ... ... ... : ... .. . ... : ... .. . ... : ... .. . ... : ... .. . ... ... : ... .. . ... ... ... : ... .. . ...
ROW 07 : ... .. . ... ... ... : ... .. . ... ... ... : ... .. . ... : ... .. . ... : ... .. . FD4 : ... .. . ... ... : ... .. . ... ... ... : ... .. . ...
ROW 08 : ... .. . 481 ... ... : B-2 07 F V01 ... P7D : B-2 08 . ... : D-# 01 . ... : ... .. . F96 : ... .. . ... 466 : ... .. . ... 474 ... : B-0 05 D ...
ROW 09 : ... .. . ... ... ... : ... .. . V00 ... ... : ... .. . ... : ... .. . ... : ... .. . ... : ... .. . ... ... : ... .. . ... ... ... : B-1 05 . ...
ROW 0A : ... .. . ... ... ... : ... .. . ... ... ... : ... .. . ... : ... .. . ... : ... .. . ... : ... .. . ... ... : ... .. . ... ... ... : ... .. . ...
ROW 0B : ... .. . ... ... ... : ... .. . ... ... ... : ... .. . ... : ... .. . ... : ... .. . FD4 : ... .. . ... ... : ... .. . ... ... ... : ... .. . ...
ROW 0C : ... .. . ... ... ... : ... .. . ... ... ... : B-2 08 . ... : A-# 03 . ... : D#3 00 . F96 : ... .. . ... ... : ... .. . ... ... ... : B-0 05 . ...
ROW 0D : ... .. . ... ... ... : ... .. . ... ... ... : ... .. . ... : ... .. . ... : ... .. . ... : ... .. . ... ... : ... .. . ... ... ... : B-1 05 . ...
ROW 0E : ... .. . ... ... ... : ... .. . ... ... ... : ... .. . ... : ... .. . ... : ... .. . ... : ... .. . ... ... : ... .. . ... ... ... : ... .. . ...
ROW 0F : ... .. . ... ... ... : ... .. . ... ... ... : ... .. . ... : ... .. . ... : ... .. . FD4 : ... .. . ... ... : ... .. . ... ... ... : ... .. . ...
ROW 10 : ... .. . ... ... ... : ... .. . ... 464 ... : ... .. . ... : D-# 01 . ... : ... .. . F96 : ... .. . ... ... : ... .. . ... ... ... : B-1 05 7 ...
ROW 11 : ... .. . ... ... ... : ... .. . ... ... ... : ... .. . ... : ... .. . ... : ... .. . ... : ... .. . ... ... : ... .. . ... ... ... : ... .. . ...
ROW 12 : ... .. . ... ... ... : ... .. . ... ... ... : ... .. . ... : ... .. . ... : ... .. . ... : ... .. . ... ... : ... .. . ... ... ... : ... .. . ...
ROW 13 : ... .. . ... ... ... : ... .. . ... ... ... : ... .. . ... : ... .. . ... : ... .. . FD4 : ... .. . ... ... : ... .. . ... ... ... : ... .. . ...
ROW 14 : ... .. . ... ... ... : ... .. . ... ... ... : B-2 08 . ... : D-# 01 . ... : ... .. . F96 : ... .. . ... ... : ... .. . ... ... ... : B-0 05 D ...
ROW 15 : ... .. . ... ... ... : ... .. . ... ... ... : ... .. . ... : ... .. . ... : ... .. . ... : ... .. . ... ... : ... .. . ... ... ... : B-1 05 . ...
ROW 16 : ... .. . ... ... ... : ... .. . ... ... ... : ... .. . ... : ... .. . ... : ... .. . ... : ... .. . ... ... : ... .. . ... ... ... : ... .. . ...
ROW 17 : ... .. . ... ... ... : ... .. . ... ... ... : ... .. . ... : ... .. . ... : ... .. . FD4 : ... .. . ... ... : ... .. . ... ... ... : ... .. . ...
ROW 18 : ... .. . ... ... ... : ... .. . ... ... ... : B-2 08 . ... : D-# 01 . ... : ... .. . F96 : ... .. . ... ... : ... .. . ... ... ... : B-0 05 . ...
ROW 19 : ... .. . ... ... ... : ... .. . ... ... ... : ... .. . ... : ... .. . ... : ... .. . ... : ... .. . ... ... : ... .. . ... ... ... : B-1 05 . ...
ROW 1A : ... .. . ... ... ... : ... .. . ... ... ... : ... .. . ... : ... .. . ... : ... .. . ... : ... .. . ... ... : ... .. . ... ... ... : ... .. . ...
ROW 1B : ... .. . ... ... ... : ... .. . ... ... ... : ... .. . ... : ... .. . ... : ... .. . FD4 : ... .. . ... ... : ... .. . ... ... ... : ... .. . ...
ROW 1C : ... .. . ... ... ... : ... .. . ... ... ... : ... .. . ... : D-# 01 . ... : ... .. . F96 : ... .. E ... ... : ... .. E ... ... ... : B-1 05 7 ...
ROW 1D : ... .. . ... ... ... : ... .. . ... ... ... : ... .. . ... : ... .. . ... : ... .. . ... : ... .. . ... ... : ... .. . ... ... ... : ... .. . ...
ROW 1E : ... .. . ... ... ... : ... .. . ... ... ... : ... .. . ... : ... .. . ... : ... .. . ... : ... .. . ... ... : ... .. . ... ... ... : ... .. . ...
ROW 1F : ... .. . ... ... ... : ... .. . ... ... ... : ... .. . ... : ... .. . ... : ... .. . FD4 : ... .. . ... ... : ... .. . ... ... ... : ... .. . ...
ROW 20 : ... .. . ... ... ... : ... .. . ... ... ... : B-2 08 . ... : D-# 01 . ... : ... .. . F96 : ... .. . ... ... : ... .. . ... ... ... : B-0 05 D ...
ROW 21 : ... .. . ... ... ... : ... .. . ... ... ... : ... .. . ... : ... .. . ... : ... .. . ... : ... .. . ... ... : ... .. . ... ... ... : B-1 05 . ...
ROW 22 : ... .. . ... ... ... : ... .. . ... ... ... : ... .. . ... : ... .. . ... : ... .. . ... : ... .. . ... ... : ... .. . ... ... ... : ... .. . ...
ROW 23 : ... .. . ... ... ... : ... .. . ... ... ... : ... .. . ... : ... .. . ... : ... .. . FD4 : ... .. . ... ... : ... .. . ... ... ... : ... .. . ...
ROW 24 : ... .. . ... ... ... : ... .. . ... ... ... : B-2 08 . ... : 8-# 03 . ... : F-3 00 . F96 : ... .. D V02 ... : ... .. D V02 ... ... : B-0 05 . ...
ROW 25 : ... .. . ... ... ... : ... .. . ... ... ... : ... .. . ... : ... .. . ... : ... .. . ... : ... .. . ... ... : ... .. . ... ... ... : B-1 05 . ...
ROW 26 : ... .. . ... ... ... : ... .. . ... ... ... : ... .. . ... : ... .. . ... : ... .. . ... : ... .. . ... ... : ... .. . ... ... ... : ... .. . ...
ROW 27 : ... .. . ... ... ... : ... .. . ... ... ... : ... .. . ... : ... .. . ... : ... .. . FD4 : ... .. . ... ... : ... .. . ... ... ... : ... .. . ...
ROW 28 : ... .. . ... ... ... : ... .. E ... ... ... : ... .. . ... : D-# 01 . ... : ... .. . F96 : ... .. . ... ... : ... .. . ... ... ... : B-1 05 7 ...
ROW 29 : ... .. . ... ... ... : ... .. . ... ... ... : ... .. . ... : ... .. . ... : ... .. . ... : ... .. . ... ... : ... .. . ... ... ... : ... .. . ...
ROW 2A : ... .. . ... ... ... : ... .. . ... ... ... : ... .. . ... : ... .. . ... : ... .. . ... : ... .. . ... ... : ... .. . ... ... ... : ... .. . ...
ROW 2B : ... .. . ... ... ... : ... .. . ... ... ... : ... .. . ... : ... .. . ... : ... .. . FD4 : ... .. . ... ... : ... .. . ... ... ... : ... .. . ...
ROW 2C : ... .. . ... ... ... : ... .. . ... ... ... : B-2 08 . ... : D-# 02 . ... : ... .. . F96 : ... .. B V03 ... : ... .. B V03 ... ... : B-0 05 D ...
ROW 2D : ... .. . ... ... ... : ... .. . ... ... ... : ... .. . ... : ... .. . ... : ... .. . ... : ... .. . ... ... : ... .. . ... ... ... : B-1 05 . ...
ROW 2E : ... .. . ... ... ... : ... .. . ... ... ... : ... .. . ... : ... .. . ... : ... .. . ... : ... .. . ... ... : ... .. . ... ... ... : ... .. . ...
ROW 2F : ... .. 1 ... ... ... : ... .. . ... ... ... : ... .. . ... : ... .. . ... : ... .. . FD4 : ... .. . ... ... : ... .. . ... ... ... : ... .. . ...
ROW 30 : A-4 00 2 400 ... ... : ... .. . ... ... ... : B-2 08 . ... : D-# 01 . ... : ... .. . F96 : D-3 06 F V04 400 : A-3 06 F V04 400 ... : B-0 05 . ...
ROW 31 : ... .. . ... ... ... : ... .. . ... ... ... : ... .. . ... : ... .. . ... : ... .. . ... : ... .. . V01 ... : ... .. . V01 ... ... : B-1 05 . ...
ROW 32 : ... .. . ... ... ... : ... .. . ... ... ... : ... .. . ... : ... .. . ... : ... .. . ... : ... .. . ... ... : ... .. . ... ... ... : ... .. . ...
ROW 33 : ... .. . ... ... ... : ... .. . ... ... ... : ... .. . ... : ... .. . ... : ... .. . FD4 : ... .. . ... ... : ... .. . ... ... ... : ... .. . ...
ROW 34 : ... .. . ... ... ... : ... .. . ... ... ... : ... .. . ... : D-# 01 . ... : ... .. . F96 : ... .. . ... ... : ... .. . ... ... ... : B-1 05 7 ...
ROW 35 : ... .. . ... ... ... : ... .. . ... ... ... : ... .. . ... : ... .. . ... : ... .. . ... : ... .. . ... ... : ... .. . ... ... ... : ... .. . ...
ROW 36 : ... .. . ... ... ... : ... .. . ... ... ... : ... .. . ... : ... .. . ... : ... .. . ... : ... .. . ... ... : ... .. . ... ... ... : ... .. . ...
ROW 37 : ... .. . ... ... ... : ... .. . ... ... ... : ... .. . ... : ... .. . ... : ... .. . FD4 : ... .. . ... ... : ... .. . ... ... ... : ... .. . ...
ROW 38 : ... .. . 481 ... ... : D-3 07 F V01 400 ... : B-2 08 . ... : D-# 01 . ... : ... .. . F96 : ... .. . ... 466 : ... .. . ... 474 ... : B-0 05 D ...
ROW 39 : ... .. . ... ... ... : ... .. . V00 ... ... : ... .. . ... : ... .. . ... : ... .. . ... : ... .. . ... ... : ... .. . ... ... ... : B-1 05 . ...
ROW 3A : ... .. . ... ... ... : ... .. . ... ... ... : ... .. . ... : ... .. . ... : ... .. . ... : ... .. . ... ... : ... .. . ... ... ... : ... .. . ...
ROW 3B : ... .. . ... ... ... : ... .. . ... ... ... : ... .. . ... : ... .. . ... : ... .. . FD4 : ... .. . ... ... : ... .. . ... ... ... : ... .. . ...
ROW 3C : ... .. . ... ... ... : ... .. . ... ... ... : B-2 08 . ... : A-# 03 . ... : D#3 00 . F96 : ... .. . ... ... : ... .. . ... ... ... : B-0 05 . ...
ROW 3D : ... .. . ... ... ... : ... .. . ... ... ... : ... .. . ... : ... .. . ... : ... .. . ... : ... .. . ... ... : ... .. . ... ... ... : B-1 05 . ...
ROW 3E : ... .. . ... ... ... : ... .. . ... ... ... : ... .. . ... : ... .. . ... : ... .. . ... : ... .. . ... ... : ... .. . ... ... ... : ... .. . ...
ROW 3F : ... .. . ... ... ... : ... .. . ... ... ... : ... .. . ... : ... .. . ... : ... .. . FD4 : ... .. . ... ... : ... .. . ... ... ... : ... .. . ...
ROW 40 : ... .. . ... ... ... : ... .. . ... 464 ... : ... .. . ... : D-# 01 . ... : ... .. . F96 : ... .. . ... ... : ... .. . ... ... ... : B-1 05 7 ...
ROW 41 : ... .. . ... ... ... : ... .. . ... ... ... : ... .. . ... : ... .. . ... : ... .. . ... : ... .. . ... ... : ... .. . ... ... ... : ... .. . ...
ROW 42 : ... .. . ... ... ... : ... .. . ... ... ... : ... .. . ... : ... .. . ... : ... .. . ... : ... .. . ... ... : ... .. . ... ... ... : ... .. . ...
ROW 43 : ... .. . ... ... ... : ... .. . ... ... ... : ... .. . ... : ... .. . ... : ... .. . FD4 : ... .. . ... ... : ... .. . ... ... ... : ... .. . ...
ROW 44 : ... .. . ... ... ... : ... .. . ... ... ... : B-2 08 . ... : D-# 01 . ... : ... .. . F96 : ... .. . ... ... : ... .. . ... ... ... : B-0 05 D ...
ROW 45 : ... .. . ... ... ... : ... .. . ... ... ... : ... .. . ... : ... .. . ... : ... .. . ... : ... .. . ... ... : ... .. . ... ... ... : B-1 05 . ...
ROW 46 : ... .. . ... ... ... : ... .. . ... ... ... : ... .. . ... : ... .. . ... : ... .. . ... : ... .. . ... ... : ... .. . ... ... ... : ... .. . ...
ROW 47 : ... .. . ... ... ... : ... .. . ... ... ... : ... .. . ... : ... .. . ... : ... .. . FD4 : ... .. . ... ... : ... .. . ... ... ... : ... .. . ...
ROW 48 : ... .. . ... ... ... : ... .. . ... ... ... : B-2 08 . ... : D-# 01 . ... : ... .. . F96 : ... .. . ... ... : ... .. . ... ... ... : B-0 05 . ...
ROW 49 : ... .. . ... ... ... : ... .. . ... ... ... : ... .. . ... : ... .. . ... : ... .. . ... : ... .. . ... ... : ... .. . ... ... ... : B-1 05 . ...
ROW 4A : ... .. . ... ... ... : ... .. . ... ... ... : ... .. . ... : ... .. . ... : ... .. . ... : ... .. . ... ... : ... .. . ... ... ... : ... .. . ...
ROW 4B : ... .. . ... ... ... : ... .. . ... ... ... : ... .. . ... : ... .. . ... : ... .. . FD4 : ... .. . ... ... : ... .. . ... ... ... : ... .. . ...
ROW 4C : ... .. . ... ... ... : ... .. . ... ... ... : ... .. . ... : D-# 01 . ... : ... .. . F96 : ... .. E ... ... : ... .. E ... ... ... : B-1 05 7 ...
ROW 4D : ... .. . ... ... ... : ... .. . ... ... ... : ... .. . ... : ... .. . ... : ... .. . ... : ... .. . ... ... : ... .. . ... ... ... : ... .. . ...
ROW 4E : ... .. . ... ... ... : ... .. . ... ... ... : ... .. . ... : ... .. . ... : ... .. . ... : ... .. . ... ... : ... .. . ... ... ... : ... .. . ...
ROW 4F : ... .. . ... ... ... : ... .. . ... ... ... : ... .. . ... : ... .. . ... : ... .. . FD4 : ... .. . ... ... : ... .. . ... ... ... : ... .. . ...
ROW 50 : ... .. . ... ... ... : ... .. . ... ... ... : B-2 08 . ... : D-# 01 . ... : ... .. . F96 : ... .. . ... ... : ... .. . ... ... ... : B-0 05 D ...
ROW 51 : ... .. . ... ... ... : ... .. . ... ... ... : ... .. . ... : ... .. . ... : ... .. . ... : ... .. . ... ... : ... .. . ... ... ... : B-1 05 . ...
ROW 52 : ... .. . ... ... ... : ... .. . ... ... ... : ... .. . ... : ... .. . ... : ... .. . ... : ... .. . ... ... : ... .. . ... ... ... : ... .. . ...
ROW 53 : ... .. . ... ... ... : ... .. . ... ... ... : ... .. . ... : ... .. . ... : ... .. . FD4 : ... .. . ... ... : ... .. . ... ... ... : ... .. . ...
ROW 54 : ... .. . ... ... ... : ... .. . ... ... ... : B-3 08 . ... : 8-# 03 . ... : F-3 00 . F96 : ... .. D V02 ... : ... .. D V02 ... ... : B-0 05 . ...
ROW 55 : ... .. . ... ... ... : ... .. . ... ... ... : ... .. . ... : ... .. . ... : ... .. . ... : ... .. . ... ... : ... .. . ... ... ... : B-1 05 . ...
ROW 56 : ... .. . ... ... ... : ... .. . ... ... ... : ... .. . ... : ... .. . ... : ... .. . ... : ... .. . ... ... : ... .. . ... ... ... : ... .. . ...
ROW 57 : ... .. . ... ... ... : ... .. . ... ... ... : ... .. . ... : ... .. . ... : ... .. . FD4 : ... .. . ... ... : ... .. . ... ... ... : ... .. . ...
ROW 58 : ... .. . ... ... ... : ... .. E ... ... ... : B-2 08 . ... : D-# 01 . ... : ... .. . F96 : ... .. . ... ... : ... .. . ... ... ... : B-1 05 7 ...
ROW 59 : ... .. . ... ... ... : ... .. . ... ... ... : ... .. . ... : ... .. . ... : ... .. . ... : ... .. . ... ... : ... .. . ... ... ... : ... .. . ...
ROW 5A : ... .. . ... ... ... : ... .. . ... ... ... : ... .. . ... : ... .. . ... : ... .. . ... : ... .. . ... ... : ... .. . ... ... ... : ... .. . ...
ROW 5B : ... .. . ... ... ... : ... .. . ... ... ... : ... .. . ... : ... .. . ... : ... .. . FD4 : ... .. . ... ... : ... .. . ... ... ... : ... .. . ...
ROW 5C : ... .. . ... ... ... : ... .. . ... ... ... : B-3 08 . ... : D-# 02 . ... : ... .. . F96 : ... .. B V03 ... : ... .. B V03 ... ... : B-0 05 D ...
ROW 5D : ... .. . ... ... ... : ... .. . ... ... ... : ... .. . ... : ... .. . ... : ... .. . ... : ... .. . ... ... : ... .. . ... ... ... : B-1 05 . ...
ROW 5E : ... .. . ... ... ... : ... .. . ... ... ... : ... .. . ... : ... .. . ... : ... .. . ... : ... .. . ... ... : ... .. . ... ... ... : ... .. . ...
ROW 5F : ... .. 1 ... ... ... : ... .. . ... ... ... : ... .. . ... : ... .. . ... : ... .. . FD4 : ... .. . ... ... : ... .. . ... ... ... : ... .. . ...

PATTERN 02
ROW 00 : G#4 00 2 400 ... ... : ... .. . ... ... ... : B-2 08 . ... : D-# 01 . ... : ... .. . F96 : C#3 06 F V04 400 : G#3 06 F V04 ... ... : B-0 05 D ...
ROW 01 : ... .. . ... ... ... : ... .. . ... ... ... : ... .. . ... : ... .. . ... : ... .. . ... : ... .. . V01 ... : ... .. . V01 ... ... : B-1 05 . ...
ROW 02 : ... .. . ... ... ... : ... .. . ... ... ... : ... .. . ... : ... .. . ... : ... .. . ... : ... .. . ... ... : ... .. . ... ... ... : ... .. . ...
ROW 03 : ... .. . ... ... ... : ... .. . ... ... ... : ... .. . ... : ... .. . ... : ... .. . FD4 : ... .. . ... ... : ... .. . ... ... ... : ... .. . ...
ROW 04 : ... .. . ... ... ... : ... .. . ... ... ... : ... .. . ... : D-# 01 . ... : ... .. . F96 : ... .. . ... ... : ... .. . ... ... ... : B-1 05 7 ...
ROW 05 : ... .. . ... ... ... : ... .. . ... ... ... : ... .. . ... : ... .. . ... : ... .. . ... : ... .. . ... ... : ... .. . ... ... ... : ... .. . ...
ROW 06 : ... .. . ... ... ... : ... .. . ... ... ... : ... .. . ... : ... .. . ... : ... .. . ... : ... .. . ... ... : ... .. . ... ... ... : ... .. . ...
ROW 07 : ... .. . ... ... ... : ... .. . ... ... ... : ... .. . ... : ... .. . ... : ... .. . FD4 : ... .. . ... ... : ... .. . ... ... ... : ... .. . ...
ROW 08 : ... .. . 481 ... ... : C#3 07 F V01 400 ... : B-2 08 . ... : D-# 01 . ... : ... .. . F96 : ... .. . ... 466 : ... .. . ... 474 ... : B-0 05 D ...
ROW 09 : ... .. . ... ... ... : ... .. . V00 ... ... : ... .. . ... : ... .. . ... : ... .. . ... : ... .. . ... ... : ... .. . ... ... ... : B-1 05 . ...
ROW 0A : ... .. . ... ... ... : ... .. . ... ... ... : ... .. . ... : ... .. . ... : ... .. . ... : ... .. . ... ... : ... .. . ... ... ... : ... .. . ...
ROW 0B : ... .. . ... ... ... : ... .. . ... ... ... : ... .. . ... : ... .. . ... : ... .. . FD4 : ... .. . ... ... : ... .. . ... ... ... : ... .. . ...
ROW 0C : ... .. . ... ... ... : ... .. . ... ... ... : B-2 08 . ... : A-# 03 . ... : D#3 00 . F96 : ... .. . ... ... : ... .. . ... ... ... : B-0 05 . ...
ROW 0D : ... .. . ... ... ... : ... .. . ... ... ... : ... .. . ... : ... .. . ... : ... .. . ... : ... .. . ... ... : ... .. . ... ... ... : B-1 05 . ...
ROW 0E : ... .. . ... ... ... : ... .. . ... ... ... : ... .. . ... : ... .. . ... : ... .. . ... : ... .. . ... ... : ... .. . ... ... ... : ... .. . ...
ROW 0F : ... .. . ... ... ... : ... .. . ... ... ... : ... .. . ... : ... .. . ... : ... .. . FD4 : ... .. . ... ... : ... .. . ... ... ... : ... .. . ...
ROW 10 : ... .. . ... ... ... : ... .. . ... 464 ... : ... .. . ... : D-# 01 . ... : ... .. . F96 : ... .. . ... ... : ... .. . ... ... ... : B-1 05 7 ...
ROW 11 : ... .. . ... ... ... : ... .. . ... ... ... : ... .. . ... : ... .. . ... : ... .. . ... : ... .. . ... ... : ... .. . ... ... ... : ... .. . ...
ROW 12 : ... .. . ... ... ... : ... .. . ... ... ... : ... .. . ... : ... .. . ... : ... .. . ... : ... .. . ... ... : ... .. . ... ... ... : ... .. . ...
ROW 13 : ... .. . ... ... ... : ... .. . ... ... ... : ... .. . ... : ... .. . ... : ... .. . FD4 : ... .. . ... ... : ... .. . ... ... ... : ... .. . ...
ROW 14 : ... .. . ... ... ... : ... .. . ... ... ... : B-2 08 . ... : D-# 01 . ... : ... .. . F96 : ... .. . ... ... : ... .. . ... ... ... : B-0 05 D ...
ROW 15 : ... .. . ... ... ... : ... .. . ... ... ... : ... .. . ... : ... .. . ... : ... .. . ... : ... .. . ... ... : ... .. . ... ... ... : B-1 05 . ...
ROW 16 : ... .. . ... ... ... : ... .. . ... ... ... : ... .. . ... : ... .. . ... : ... .. . ... : ... .. . ... ... : ... .. . ... ... ... : ... .. . ...
ROW 17 : ... .. . ... ... ... : ... .. . ... ... ... : ... .. . ... : ... .. . ... : ... .. . FD4 : ... .. . ... ... : ... .. . ... ... ... : ... .. . ...
ROW 18 : ... .. . ... ... ... : ... .. . ... ... ... : B-2 08 . ... : D-# 01 . ... : ... .. . F96 : ... .. . ... ... : ... .. . ... ... ... : B-0 05 . ...
ROW 19 : ... .. . ... ... ... : ... .. . ... ... ... : ... .. . ... : ... .. . ... : ... .. . ... : ... .. . ... ... : ... .. . ... ... ... : B-1 05 . ...
ROW 1A : ... .. . ... ... ... : ... .. . ... ... ... : ... .. . ... : ... .. . ... : ... .. . ... : ... .. . ... ... : ... .. . ... ... ... : ... .. . ...
ROW 1B : ... .. . ... ... ... : ... .. . ... ... ... : ... .. . ... : ... .. . ... : ... .. . FD4 : ... .. . ... ... : ... .. . ... ... ... : ... .. . ...
ROW 1C : ... .. . ... ... ... : ... .. . ... ... ... : ... .. . ... : D-# 01 . ... : ... .. . F96 : ... .. E ... ... : ... .. E ... ... ... : B-1 05 7 ...
ROW 1D : ... .. . ... ... ... : ... .. . ... ... ... : ... .. . ... : ... .. . ... : ... .. . ... : ... .. . ... ... : ... .. . ... ... ... : ... .. . ...
ROW 1E : ... .. . ... ... ... : ... .. . ... ... ... : ... .. . ... : ... .. . ... : ... .. . ... : ... .. . ... ... : ... .. . ... ... ... : ... .. . ...
ROW 1F : ... .. . ... ... ... : ... .. . ... ... ... : ... .. . ... : ... .. . ... : ... .. . FD4 : ... .. . ... ... : ... .. . ... ... ... : ... .. . ...
ROW 20 : ... .. . ... ... ... : ... .. . ... ... ... : B-2 08 . ... : D-# 01 . ... : ... .. . F96 : ... .. . ... ... : ... .. . ... ... ... : B-0 05 D ...
ROW 21 : ... .. . ... ... ... : ... .. . ... ... ... : ... .. . ... : ... .. . ... : ... .. . ... : ... .. . ... ... : ... .. . ... ... ... : B-1 05 . ...
ROW 22 : ... .. . ... ... ... : ... .. . ... ... ... : ... .. . ... : ... .. . ... : ... .. . ... : ... .. . ... ... : ... .. . ... ... ... : ... .. . ...
ROW 23 : ... .. . ... ... ... : ... .. . ... ... ... : ... .. . ... : ... .. . ... : ... .. . FD4 : ... .. . ... ... : ... .. . ... ... ... : ... .. . ...
ROW 24 : ... .. . ... ... ... : ... .. . ... ... ... : B-2 08 . ... : 8-# 03 . ... : F-3 00 . F96 : ... .. D V02 ... : ... .. D V02 ... ... : B-0 05 . ...
ROW 25 : ... .. . ... ... ... : ... .. . ... ... ... : ... .. . ... : ... .. . ... : ... .. . ... : ... .. . ... ... : ... .. . ... ... ... : B-1 05 . ...
ROW 26 : ... .. . ... ... ... : ... .. . ... ... ... : ... .. . ... : ... .. . ... : ... .. . ... : ... .. . ... ... : ... .. . ... ... ... : ... .. . ...
ROW 27 : ... .. . ... ... ... : ... .. . ... ... ... : ... .. . ... : ... .. . ... : ... .. . FD4 : ... .. . ... ... : ... .. . ... ... ... : ... .. . ...
ROW 28 : ... .. . ... ... ... : ... .. E ... ... ... : ... .. . ... : D-# 01 . ... : ... .. . F96 : ... .. . ... ... : ... .. . ... ... ... : B-1 05 7 ...
ROW 29 : ... .. . ... ... ... : ... .. . ... ... ... : ... .. . ... : ... .. . ... : ... .. . ... : ... .. . ... ... : ... .. . ... ... ... : ... .. . ...
ROW 2A : ... .. . ... ... ... : ... .. . ... ... ... : ... .. . ... : ... .. . ... : ... .. . ... : ... .. . ... ... : ... .. . ... ... ... : ... .. . ...
ROW 2B : ... .. . ... ... ... : ... .. . ... ... ... : ... .. . ... : ... .. . ... : ... .. . FD4 : ... .. . ... ... : ... .. . ... ... ... : ... .. . ...
ROW 2C : ... .. . ... ... ... : ... .. . ... ... ... : B-2 08 . ... : D-# 02 . ... : ... .. . F96 : ... .. B V03 ... : ... .. B V03 ... ... : B-0 05 D ...
ROW 2D : ... .. . ... ... ... : ... .. . ... ... ... : ... .. . ... : ... .. . ... : ... .. . ... : ... .. . ... ... : ... .. . ... ... ... : B-1 05 . ...
ROW 2E : ... .. . ... ... ... : ... .. . ... ... ... : ... .. . ... : ... .. . ... : ... .. . ... : ... .. . ... ... : ... .. . ... ... ... : ... .. . ...
ROW 2F : ... .. 1 ... ... ... : ... .. . ... ... ... : ... .. . ... : ... .. . ... : ... .. . FD4 : ... .. . ... ... : ... .. . ... ... ... : ... .. . ...
ROW 30 : G-4 00 2 400 ... ... : ... .. . ... ... ... : B-2 08 . ... : D-# 01 . ... : ... .. . F96 : C-3 06 F V04 400 : G-3 06 F V04 400 ... : B-0 05 . ...
ROW 31 : ... .. . ... ... ... : ... .. . ... ... ... : ... .. . ... : ... .. . ... : ... .. . ... : ... .. . V01 ... : ... .. . V01 ... ... : B-1 05 . ...
ROW 32 : ... .. . ... ... ... : ... .. . ... ... ... : ... .. . ... : ... .. . ... : ... .. . ... : ... .. . ... ... : ... .. . ... ... ... : ... .. . ...
ROW 33 : ... .. . ... ... ... : ... .. . ... ... ... : ... .. . ... : ... .. . ... : ... .. . FD4 : ... .. . ... ... : ... .. . ... ... ... : ... .. . ...
ROW 34 : ... .. . ... ... ... : ... .. . ... ... ... : ... .. . ... : D-# 01 . ... : ... .. . F96 : ... .. . ... ... : ... .. . ... ... ... : B-1 05 7 ...
ROW 35 : ... .. . ... ... ... : ... .. . ... ... ... : ... .. . ... : ... .. . ... : ... .. . ... : ... .. . ... ... : ... .. . ... ... ... : ... .. . ...
ROW 36 : ... .. . ... ... ... : ... .. . ... ... ... : ... .. . ... : ... .. . ... : ... .. . ... : ... .. . ... ... : ... .. . ... ... ... : ... .. . ...
ROW 37 : ... .. . ... ... ... : ... .. . ... ... ... : ... .. . ... : ... .. . ... : ... .. . FD4 : ... .. . ... ... : ... .. . ... ... ... : ... .. . ...
ROW 38 : ... .. . 481 ... ... : C-3 07 F V01 400 ... : B-2 08 . ... : D-# 01 . ... : ... .. . F96 : ... .. . ... 466 : ... .. . ... 474 ... : B-0 05 D ...
ROW 39 : ... .. . ... ... ... : ... .. . V00 ... ... : ... .. . ... : ... .. . ... : ... .. . ... : ... .. . ... ... : ... .. . ... ... ... : B-1 05 . ...
ROW 3A : ... .. . ... ... ... : ... .. . ... ... ... : ... .. . ... : ... .. . ... : ... .. . ... : ... .. . ... ... : ... .. . ... ... ... : ... .. . ...
ROW 3B : ... .. . ... ... ... : ... .. . ... ... ... : ... .. . ... : ... .. . ... : ... .. . FD4 : ... .. . ... ... : ... .. . ... ... ... : ... .. . ...
ROW 3C : ... .. . ... ... ... : ... .. . ... ... ... : B-2 08 . ... : A-# 03 . ... : D#3 00 . F96 : ... .. . ... ... : ... .. . ... ... ... : B-0 05 . ...
ROW 3D : ... .. . ... ... ... : ... .. . ... ... ... : ... .. . ... : ... .. . ... : ... .. . ... : ... .. . ... ... : ... .. . ... ... ... : B-1 05 . ...
ROW 3E : ... .. . ... ... ... : ... .. . ... ... ... : ... .. . ... : ... .. . ... : ... .. . ... : ... .. . ... ... : ... .. . ... ... ... : ... .. . ...
ROW 3F : ... .. . ... ... ... : ... .. . ... ... ... : ... .. . ... : ... .. . ... : ... .. . FD4 : ... .. . ... ... : ... .. . ... ... ... : ... .. . ...
ROW 40 : ... .. . ... ... ... : ... .. . ... 464 ... : ... .. . ... : D-# 01 . ... : ... .. . F96 : ... .. . ... ... : ... .. . ... ... ... : B-1 05 7 ...
ROW 41 : ... .. . ... ... ... : ... .. . ... ... ... : ... .. . ... : ... .. . ... : ... .. . ... : ... .. . ... ... : ... .. . ... ... ... : ... .. . ...
ROW 42 : ... .. . ... ... ... : ... .. . ... ... ... : ... .. . ... : ... .. . ... : ... .. . ... : ... .. . ... ... : ... .. . ... ... ... : ... .. . ...
ROW 43 : ... .. . ... ... ... : ... .. . ... ... ... : ... .. . ... : ... .. . ... : ... .. . FD4 : ... .. . ... ... : ... .. . ... ... ... : ... .. . ...
ROW 44 : ... .. . ... ... ... : ... .. . ... ... ... : B-2 08 . ... : D-# 01 . ... : ... .. . F96 : ... .. . ... ... : ... .. . ... ... ... : B-0 05 D ...
ROW 45 : ... .. . ... ... ... : ... .. . ... ... ... : ... .. . ... : ... .. . ... : ... .. . ... : ... .. . ... ... : ... .. . ... ... ... : B-1 05 . ...
ROW 46 : ... .. . ... ... ... : ... .. . ... ... ... : ... .. . ... : ... .. . ... : ... .. . ... : ... .. . ... ... : ... .. . ... ... ... : ... .. . ...
ROW 47 : ... .. . ... ... ... : ... .. . ... ... ... : ... .. . ... : ... .. . ... : ... .. . FD4 : ... .. . ... ... : ... .. . ... ... ... : ... .. . ...
ROW 48 : ... .. . ... ... ... : ... .. . ... ... ... : B-2 08 . ... : D-# 01 . ... : ... .. . F96 : ... .. . ... ... : ... .. . ... ... ... : B-0 05 . ...
ROW 49 : ... .. . ... ... ... : ... .. . ... ... ... : ... .. . ... : ... .. . ... : ... .. . ... : ... .. . ... ... : ... .. . ... ... ... : B-1 05 . ...
ROW 4A : ... .. . ... ... ... : ... .. . ... ... ... : ... .. . ... : ... .. . ... : ... .. . ... : ... .. . ... ... : ... .. . ... ... ... : ... .. . ...
ROW 4B : ... .. . ... ... ... : ... .. . ... ... ... : ... .. . ... : ... .. . ... : ... .. . FD4 : ... .. . ... ... : ... .. . ... ... ... : ... .. . ...
ROW 4C : ... .. . ... ... ... : ... .. . ... ... ... : ... .. . ... : D-# 01 . ... : ... .. . F96 : ... .. E ... ... : ... .. E ... ... ... : B-1 05 7 ...
ROW 4D : ... .. . ... ... ... : ... .. . ... ... ... : ... .. . ... : ... .. . ... : ... .. . ... : ... .. . ... ... : ... .. . ... ... ... : ... .. . ...
ROW 4E : ... .. . ... ... ... : ... .. . ... ... ... : ... .. . ... : ... .. . ... : ... .. . ... : ... .. . ... ... : ... .. . ... ... ... : ... .. . ...
ROW 4F : ... .. . ... ... ... : ... .. . ... ... ... : ... .. . ... : ... .. . ... : ... .. . FD4 : ... .. . ... ... : ... .. . ... ... ... : ... .. . ...
ROW 50 : ... .. . ... ... ... : ... .. . ... ... ... : B-2 08 . ... : D-# 01 . ... : ... .. . F96 : ... .. . ... ... : ... .. . ... ... ... : B-0 05 D ...
ROW 51 : ... .. . ... ... ... : ... .. . ... ... ... : ... .. . ... : ... .. . ... : ... .. . ... : ... .. . ... ... : ... .. . ... ... ... : B-1 05 . ...
ROW 52 : ... .. . ... ... ... : ... .. . ... ... ... : ... .. . ... : ... .. . ... : ... .. . ... : ... .. . ... ... : ... .. . ... ... ... : ... .. . ...
ROW 53 : ... .. . ... ... ... : ... .. . ... ... ... : ... .. . ... : ... .. . ... : ... .. . FD4 : ... .. . ... ... : ... .. . ... ... ... : ... .. . ...
ROW 54 : ... .. . ... ... ... : ... .. . ... ... ... : B-3 08 . ... : 8-# 03 . ... : F-3 00 . F96 : ... .. D V02 ... : ... .. D V02 ... ... : B-0 05 . ...
ROW 55 : ... .. . ... ... ... : ... .. . ... ... ... : ... .. . ... : ... .. . ... : ... .. . ... : ... .. . ... ... : ... .. . ... ... ... : B-1 05 . ...
ROW 56 : ... .. . ... ... ... : ... .. . ... ... ... : ... .. . ... : ... .. . ... : ... .. . ... : ... .. . ... ... : ... .. . ... ... ... : ... .. . ...
ROW 57 : ... .. . ... ... ... : ... .. . ... ... ... : ... .. . ... : ... .. . ... : ... .. . FD4 : ... .. . ... ... : ... .. . ... ... ... : ... .. . ...
ROW 58 : ... .. . ... ... ... : ... .. E ... ... ... : B-2 08 . ... : D-# 01 . ... : ... .. . F96 : ... .. . ... ... : ... .. . ... ... ... : B-1 05 7 ...
ROW 59 : ... .. . ... ... ... : ... .. . ... ... ... : ... .. . ... : ... .. . ... : ... .. . ... : ... .. . ... ... : ... .. . ... ... ... : ... .. . ...
ROW 5A : ... .. . ... ... ... : ... .. . ... ... ... : ... .. . ... : ... .. . ... : ... .. . ... : ... .. . ... ... : ... .. . ... ... ... : ... .. . ...
ROW 5B : ... .. . ... ... ... : ... .. . ... ... ... : ... .. . ... : ... .. . ... : ... .. . FD4 : ... .. . ... ... : ... .. . ... ... ... : ... .. . ...
ROW 5C : ... .. . ... ... ... : ... .. . ... ... ... : B-3 08 . ... : D-# 02 . ... : ... .. . F96 : ... .. B V03 ... : ... .. B V03 ... ... : B-0 05 D ...
ROW 5D : ... .. . ... ... ... : ... .. . ... ... ... : ... .. . ... : ... .. . ... : ... .. . ... : ... .. . ... ... : ... .. . ... ... ... : B-1 05 . ...
ROW 5E : ... .. . ... ... ... : ... .. . ... ... ... : ... .. . ... : ... .. . ... : ... .. . ... : ... .. . ... ... : ... .. . ... ... ... : ... .. . ...
ROW 5F : ... .. 1 ... ... ... : ... .. . ... ... ... : ... .. . ... : ... .. . ... : ... .. . FD4 : ... .. . ... ... : ... .. . ... ... ... : ... .. . ...

PATTERN 03
ROW 00 : F#4 00 2 400 ... ... : ... .. . ... ... ... : B-2 08 . ... : D-# 01 . ... : ... .. . F96 : B-2 06 F V04 400 : F#3 06 F V04 ... ... : B-0 05 D ...
ROW 01 : ... .. . ... ... ... : ... .. . ... ... ... : ... .. . ... : ... .. . ... : ... .. . ... : ... .. . V01 ... : ... .. . V01 ... ... : B-1 05 . ...
ROW 02 : ... .. . ... ... ... : ... .. . ... ... ... : ... .. . ... : ... .. . ... : ... .. . ... : ... .. . ... ... : ... .. . ... ... ... : ... .. . ...
ROW 03 : ... .. . ... ... ... : ... .. . ... ... ... : ... .. . ... : ... .. . ... : ... .. . FD4 : ... .. . ... ... : ... .. . ... ... ... : ... .. . ...
ROW 04 : ... .. . ... ... ... : ... .. . ... ... ... : ... .. . ... : D-# 01 . ... : ... .. . F96 : ... .. . ... ... : ... .. . ... ... ... : B-1 05 7 ...
ROW 05 : ... .. . ... ... ... : ... .. . ... ... ... : ... .. . ... : ... .. . ... : ... .. . ... : ... .. . ... ... : ... .. . ... ... ... : ... .. . ...
ROW 06 : ... .. . ... ... ... : ... .. . ... ... ... : ... .. . ... : ... .. . ... : ... .. . ... : ... .. . ... ... : ... .. . ... ... ... : ... .. . ...
ROW 07 : ... .. . ... ... ... : ... .. . ... ... ... : ... .. . ... : ... .. . ... : ... .. . FD4 : ... .. . ... ... : ... .. . ... ... ... : ... .. . ...
ROW 08 : ... .. . 481 ... ... : B-2 07 F V01 400 ... : B-2 08 . ... : D-# 01 . ... : ... .. . F96 : ... .. . ... 466 : ... .. . ... 474 ... : B-0 05 D ...
ROW 09 : ... .. . ... ... ... : ... .. . V00 ... ... : ... .. . ... : ... .. . ... : ... .. . ... : ... .. . ... ... : ... .. . ... ... ... : B-1 05 . ...
ROW 0A : ... .. . ... ... ... : ... .. . ... ... ... : ... .. . ... : ... .. . ... : ... .. . ... : ... .. . ... ... : ... .. . ... ... ... : ... .. . ...
ROW 0B : ... .. . ... ... ... : ... .. . ... ... ... : ... .. . ... : ... .. . ... : ... .. . FD4 : ... .. . ... ... : ... .. . ... ... ... : ... .. . ...
ROW 0C : ... .. . ... ... ... : ... .. . ... ... ... : B-2 08 . ... : A-# 03 . ... : D#3 00 . F96 : ... .. . ... ... : ... .. . ... ... ... : B-0 05 . ...
ROW 0D : ... .. . ... ... ... : ... .. . ... ... ... : ... .. . ... : ... .. . ... : ... .. . ... : ... .. . ... ... : ... .. . ... ... ... : B-1 05 . ...
ROW 0E : ... .. . ... ... ... : ... .. . ... ... ... : ... .. . ... : ... .. . ... : ... .. . ... : ... .. . ... ... : ... .. . ... ... ... : ... .. . ...
ROW 0F : ... .. . ... ... ... : ... .. . ... ... ... : ... .. . ... : ... .. . ... : ... .. . FD4 : ... .. . ... ... : ... .. . ... ... ... : ... .. . ...
ROW 10 : ... .. . ... ... ... : ... .. . ... 464 ... : ... .. . ... : D-# 01 . ... : ... .. . F96 : ... .. . ... ... : ... .. . ... ... ... : B-1 05 7 ...
ROW 11 : ... .. . ... ... ... : ... .. . ... ... ... : ... .. . ... : ... .. . ... : ... .. . ... : ... .. . ... ... : ... .. . ... ... ... : ... .. . ...
ROW 12 : ... .. . ... ... ... : ... .. . ... ... ... : ... .. . ... : ... .. . ... : ... .. . ... : ... .. . ... ... : ... .. . ... ... ... : ... .. . ...
ROW 13 : ... .. . ... ... ... : ... .. . ... ... ... : ... .. . ... : ... .. . ... : ... .. . FD4 : ... .. . ... ... : ... .. . ... ... ... : ... .. . ...
ROW 14 : ... .. . ... ... ... : ... .. . ... ... ... : B-2 08 . ... : D-# 01 . ... : ... .. . F96 : ... .. . ... ... : ... .. . ... ... ... : B-0 05 D ...
ROW 15 : ... .. . ... ... ... : ... .. . ... ... ... : ... .. . ... : ... .. . ... : ... .. . ... : ... .. . ... ... : ... .. . ... ... ... : B-1 05 . ...
ROW 16 : ... .. . ... ... ... : ... .. . ... ... ... : ... .. . ... : ... .. . ... : ... .. . ... : ... .. . ... ... : ... .. . ... ... ... : ... .. . ...
ROW 17 : ... .. . ... ... ... : ... .. . ... ... ... : ... .. . ... : ... .. . ... : ... .. . FD4 : ... .. . ... ... : ... .. . ... ... ... : ... .. . ...
ROW 18 : ... .. . ... ... ... : ... .. . ... ... ... : B-2 08 . ... : D-# 01 . ... : ... .. . F96 : ... .. . ... ... : ... .. . ... ... ... : B-0 05 . ...
ROW 19 : ... .. . ... ... ... : ... .. . ... ... ... : ... .. . ... : ... .. . ... : ... .. . ... : ... .. . ... ... : ... .. . ... ... ... : B-1 05 . ...
ROW 1A : ... .. . ... ... ... : ... .. . ... ... ... : ... .. . ... : ... .. . ... : ... .. . ... : ... .. . ... ... : ... .. . ... ... ... : ... .. . ...
ROW 1B : ... .. . ... ... ... : ... .. . ... ... ... : ... .. . ... : ... .. . ... : ... .. . FD4 : ... .. . ... ... : ... .. . ... ... ... : ... .. . ...
ROW 1C : ... .. . ... ... ... : ... .. . ... ... ... : ... .. . ... : D-# 01 . ... : ... .. . F96 : ... .. E ... ... : ... .. E ... ... ... : B-1 05 7 ...
ROW 1D : ... .. . ... ... ... : ... .. . ... ... ... : ... .. . ... : ... .. . ... : ... .. . ... : ... .. . ... ... : ... .. . ... ... ... : ... .. . ...
ROW 1E : ... .. . ... ... ... : ... .. . ... ... ... : ... .. . ... : ... .. . ... : ... .. . ... : ... .. . ... ... : ... .. . ... ... ... : ... .. . ...
ROW 1F : ... .. . ... ... ... : ... .. . ... ... ... : ... .. . ... : ... .. . ... : ... .. . FD4 : ... .. . ... ... : ... .. . ... ... ... : ... .. . ...
ROW 20 : ... .. . ... ... ... : ... .. . ... ... ... : B-2 08 . ... : D-# 01 . ... : ... .. . F96 : ... .. . ... ... : ... .. . ... ... ... : B-0 05 D ...
ROW 21 : ... .. . ... ... ... : ... .. . ... ... ... : ... .. . ... : ... .. . ... : ... .. . ... : ... .. . ... ... : ... .. . ... ... ... : B-1 05 . ...
ROW 22 : ... .. . ... ... ... : ... .. . ... ... ... : ... .. . ... : ... .. . ... : ... .. . ... : ... .. . ... ... : ... .. . ... ... ... : ... .. . ...
ROW 23 : ... .. . ... ... ... : ... .. . ... ... ... : ... .. . ... : ... .. . ... : ... .. . FD4 : ... .. . ... ... : ... .. . ... ... ... : ... .. . ...
ROW 24 : ... .. . ... ... ... : ... .. . ... ... ... : B-2 08 . ... : 8-# 03 . ... : F-3 00 . F96 : ... .. D V02 ... : ... .. D V02 ... ... : B-0 05 . ...
ROW 25 : ... .. . ... ... ... : ... .. . ... ... ... : ... .. . ... : ... .. . ... : ... .. . ... : ... .. . ... ... : ... .. . ... ... ... : B-1 05 . ...
ROW 26 : ... .. . ... ... ... : ... .. . ... ... ... : ... .. . ... : ... .. . ... : ... .. . ... : ... .. . ... ... : ... .. . ... ... ... : ... .. . ...
ROW 27 : ... .. . ... ... ... : ... .. . ... ... ... : ... .. . ... : ... .. . ... : ... .. . FD4 : ... .. . ... ... : ... .. . ... ... ... : ... .. . ...
ROW 28 : ... .. . ... ... ... : ... .. E ... ... ... : ... .. . ... : D-# 01 . ... : ... .. . F96 : ... .. . ... ... : ... .. . ... ... ... : B-1 05 7 ...
ROW 29 : ... .. . ... ... ... : ... .. . ... ... ... : ... .. . ... : ... .. . ... : ... .. . ... : ... .. . ... ... : ... .. . ... ... ... : ... .. . ...
ROW 2A : ... .. . ... ... ... : ... .. . ... ... ... : ... .. . ... : ... .. . ... : ... .. . ... : ... .. . ... ... : ... .. . ... ... ... : ... .. . ...
ROW 2B : ... .. . ... ... ... : ... .. . ... ... ... : ... .. . ... : ... .. . ... : ... .. . FD4 : ... .. . ... ... : ... .. . ... ... ... : ... .. . ...
ROW 2C : ... .. . ... ... ... : ... .. . ... ... ... : B-2 08 . ... : D-# 02 . ... : ... .. . F96 : ... .. B V03 ... : ... .. B V03 ... ... : B-0 05 D ...
ROW 2D : ... .. . ... ... ... : ... .. . ... ... ... : ... .. . ... : ... .. . ... : ... .. . ... : ... .. . ... ... : ... .. . ... ... ... : B-1 05 . ...
ROW 2E : ... .. . ... ... ... : ... .. . ... ... ... : ... .. . ... : ... .. . ... : ... .. . ... : ... .. . ... ... : ... .. . ... ... ... : ... .. . ...
ROW 2F : ... .. 1 ... ... ... : ... .. . ... ... ... : ... .. . ... : ... .. . ... : ... .. . FD4 : ... .. . ... ... : ... .. . ... ... ... : ... .. . ...
ROW 30 : A-4 00 2 400 ... ... : ... .. . ... ... ... : B-2 08 . ... : D-# 01 . ... : ... .. . F96 : D-3 06 F V04 400 : A-3 06 F V04 400 ... : B-0 05 . ...
ROW 31 : ... .. . ... ... ... : ... .. . ... ... ... : ... .. . ... : ... .. . ... : ... .. . ... : ... .. . V01 ... : ... .. . V01 ... ... : B-1 05 . ...
ROW 32 : ... .. . ... ... ... : ... .. . ... ... ... : ... .. . ... : ... .. . ... : ... .. . ... : ... .. . ... ... : ... .. . ... ... ... : ... .. . ...
ROW 33 : ... .. . ... ... ... : ... .. . ... ... ... : ... .. . ... : ... .. . ... : ... .. . FD4 : ... .. . ... ... : ... .. . ... ... ... : ... .. . ...
ROW 34 : ... .. . ... ... ... : ... .. . ... ... ... : ... .. . ... : D-# 01 . ... : ... .. . F96 : ... .. . ... ... : ... .. . ... ... ... : B-1 05 7 ...
ROW 35 : ... .. . ... ... ... : ... .. . ... ... ... : ... .. . ... : ... .. . ... : ... .. . ... : ... .. . ... ... : ... .. . ... ... ... : ... .. . ...
ROW 36 : ... .. . ... ... ... : ... .. . ... ... ... : ... .. . ... : ... .. . ... : ... .. . ... : ... .. . ... ... : ... .. . ... ... ... : ... .. . ...
ROW 37 : ... .. . ... ... ... : ... .. . ... ... ... : ... .. . ... : ... .. . ... : ... .. . FD4 : ... .. . ... ... : ... .. . ... ... ... : ... .. . ...
ROW 38 : ... .. . 481 ... ... : D-3 07 F V01 400 ... : B-2 08 . ... : D-# 01 . ... : ... .. . F96 : ... .. . ... 466 : ... .. . ... 474 ... : B-0 05 D ...
ROW 39 : ... .. . ... ... ... : ... .. . V00 ... ... : ... .. . ... : ... .. . ... : ... .. . ... : ... .. . ... ... : ... .. . ... ... ... : B-1 05 . ...
ROW 3A : ... .. . ... ... ... : ... .. . ... ... ... : ... .. . ... : ... .. . ... : ... .. . ... : ... .. . ... ... : ... .. . ... ... ... : ... .. . ...
ROW 3B : ... .. . ... ... ... : ... .. . ... ... ... : ... .. . ... : ... .. . ... : ... .. . FD4 : ... .. . ... ... : ... .. . ... ... ... : ... .. . ...
ROW 3C : ... .. . ... ... ... : ... .. . ... ... ... : B-2 08 . ... : A-# 03 . ... : D#3 00 . F96 : ... .. . ... ... : ... .. . ... ... ... : B-0 05 . ...
ROW 3D : ... .. . ... ... ... : ... .. . ... ... ... : ... .. . ... : ... .. . ... : ... .. . ... : ... .. . ... ... : ... .. . ... ... ... : B-1 05 . ...
ROW 3E : ... .. . ... ... ... : ... .. . ... ... ... : ... .. . ... : ... .. . ... : ... .. . ... : ... .. . ... ... : ... .. . ... ... ... : ... .. . ...
ROW 3F : ... .. . ... ... ... : ... .. . ... ... ... : ... .. . ... : ... .. . ... : ... .. . FD4 : ... .. . ... ... : ... .. . ... ... ... : ... .. . ...
ROW 40 : ... .. . ... ... ... : ... .. . ... 464 ... : ... .. . ... : D-# 01 . ... : ... .. . F96 : ... .. . ... ... : ... .. . ... ... ... : B-1 05 7 ...
ROW 41 : ... .. . ... ... ... : ... .. . ... ... ... : ... .. . ... : ... .. . ... : ... .. . ... : ... .. . ... ... : ... .. . ... ... ... : ... .. . ...
ROW 42 : ... .. . ... ... ... : ... .. . ... ... ... : ... .. . ... : ... .. . ... : ... .. . ... : ... .. . ... ... : ... .. . ... ... ... : ... .. . ...
ROW 43 : ... .. . ... ... ... : ... .. . ... ... ... : ... .. . ... : ... .. . ... : ... .. . FD4 : ... .. . ... ... : ... .. . ... ... ... : ... .. . ...
ROW 44 : ... .. . ... ... ... : ... .. . ... ... ... : B-2 08 . ... : D-# 01 . ... : ... .. . F96 : ... .. . ... ... : ... .. . ... ... ... : B-0 05 D ...
ROW 45 : ... .. . ... ... ... : ... .. . ... ... ... : ... .. . ... : ... .. . ... : ... .. . ... : ... .. . ... ... : ... .. . ... ... ... : B-1 05 . ...
ROW 46 : ... .. . ... ... ... : ... .. . ... ... ... : ... .. . ... : ... .. . ... : ... .. . ... : ... .. . ... ... : ... .. . ... ... ... : ... .. . ...
ROW 47 : ... .. . ... ... ... : ... .. . ... ... ... : ... .. . ... : ... .. . ... : ... .. . FD4 : ... .. . ... ... : ... .. . ... ... ... : ... .. . ...
ROW 48 : ... .. . ... ... ... : ... .. . ... ... ... : B-2 08 . ... : D-# 01 . ... : ... .. . F96 : ... .. . ... ... : ... .. . ... ... ... : B-0 05 . ...
ROW 49 : ... .. . ... ... ... : ... .. . ... ... ... : ... .. . ... : ... .. . ... : ... .. . ... : ... .. . ... ... : ... .. . ... ... ... : B-1 05 . ...
ROW 4A : ... .. . ... ... ... : ... .. . ... ... ... : ... .. . ... : ... .. . ... : ... .. . ... : ... .. . ... ... : ... .. . ... ... ... : ... .. . ...
ROW 4B : ... .. . ... ... ... : ... .. . ... ... ... : ... .. . ... : ... .. . ... : ... .. . FD4 : ... .. . ... ... : ... .. . ... ... ... : ... .. . ...
ROW 4C : ... .. . ... ... ... : ... .. . ... ... ... : ... .. . ... : D-# 01 . ... : ... .. . F96 : ... .. E ... ... : ... .. E ... ... ... : B-1 05 7 ...
ROW 4D : ... .. . ... ... ... : ... .. . ... ... ... : ... .. . ... : ... .. . ... : ... .. . ... : ... .. . ... ... : ... .. . ... ... ... : ... .. . ...
ROW 4E : ... .. . ... ... ... : ... .. . ... ... ... : ... .. . ... : ... .. . ... : ... .. . ... : ... .. . ... ... : ... .. . ... ... ... : ... .. . ...
ROW 4F : ... .. . ... ... ... : ... .. . ... ... ... : ... .. . ... : ... .. . ... : ... .. . FD4 : ... .. . ... ... : ... .. . ... ... ... : ... .. . ...
ROW 50 : ... .. . ... ... ... : ... .. . ... ... ... : B-2 08 . ... : D-# 01 . ... : ... .. . F96 : ... .. . ... ... : ... .. . ... ... ... : B-0 05 D ...
ROW 51 : ... .. . ... ... ... : ... .. . ... ... ... : ... .. . ... : ... .. . ... : ... .. . ... : ... .. . ... ... : ... .. . ... ... ... : B-1 05 . ...
ROW 52 : ... .. . ... ... ... : ... .. . ... ... ... : ... .. . ... : ... .. . ... : ... .. . ... : ... .. . ... ... : ... .. . ... ... ... : ... .. . ...
ROW 53 : ... .. . ... ... ... : ... .. . ... ... ... : ... .. . ... : ... .. . ... : ... .. . FD4 : ... .. . ... ... : ... .. . ... ... ... : ... .. . ...
ROW 54 : ... .. . ... ... ... : ... .. . ... ... ... : B-3 08 . ... : 8-# 03 . ... : F-3 00 . F96 : ... .. D V02 ... : ... .. D V02 ... ... : B-0 05 . ...
ROW 55 : ... .. . ... ... ... : ... .. . ... ... ... : ... .. . ... : ... .. . ... : ... .. . ... : ... .. . ... ... : ... .. . ... ... ... : B-1 05 . ...
ROW 56 : ... .. . ... ... ... : ... .. . ... ... ... : ... .. . ... : ... .. . ... : ... .. . ... : ... .. . ... ... : ... .. . ... ... ... : ... .. . ...
ROW 57 : ... .. . ... ... ... : ... .. . ... ... ... : ... .. . ... : ... .. . ... : ... .. . FD4 : ... .. . ... ... : ... .. . ... ... ... : ... .. . ...
ROW 58 : ... .. . ... ... ... : ... .. E ... ... ... : B-2 08 . ... : D-# 01 . ... : ... .. . F96 : ... .. . ... ... : ... .. . ... ... ... : B-1 05 7 ...
ROW 59 : ... .. . ... ... ... : ... .. . ... ... ... : ... .. . ... : ... .. . ... : ... .. . ... : ... .. . ... ... : ... .. . ... ... ... : ... .. . ...
ROW 5A : ... .. . ... ... ... : ... .. . ... ... ... : ... .. . ... : ... .. . ... : ... .. . ... : ... .. . ... ... : ... .. . ... ... ... : ... .. . ...
ROW 5B : ... .. . ... ... ... : ... .. . ... ... ... : ... .. . ... : ... .. . ... : ... .. . FD4 : ... .. . ... ... : ... .. . ... ... ... : ... .. . ...
ROW 5C : ... .. . ... ... ... : ... .. . ... ... ... : B-3 08 . ... : D-# 02 . ... : ... .. . F96 : ... .. B V03 ... : ... .. B V03 ... ... : B-0 05 D ...
ROW 5D : ... .. . ... ... ... : ... .. . ... ... ... : ... .. . ... : ... .. . ... : ... .. . ... : ... .. . ... ... : ... .. . ... ... ... : B-1 05 . ...
ROW 5E : ... .. . ... ... ... : ... .. . ... ... ... : ... .. . ... : ... .. . ... : ... .. . ... : ... .. . ... ... : ... .. . ... ... ... : ... .. . ...
ROW 5F : ... .. 1 ... ... ... : ... .. . ... ... ... : ... .. . ... : ... .. . ... : ... .. . FD4 : ... .. . ... ... : ... .. . ... ... ... : ... .. . ...

PATTERN 04
ROW 00 : G#4 00 2 400 ... ... : ... .. . ... ... ... : B-2 08 . ... : D-# 01 . ... : ... .. . F96 : C#3 06 F V04 400 : G#3 06 F V04 ... ... : B-0 05 D ...
ROW 01 : ... .. . ... ... ... : ... .. . ... ... ... : ... .. . ... : ... .. . ... : ... .. . ... : ... .. . V01 ... : ... .. . V01 ... ... : B-1 05 . ...
ROW 02 : ... .. . ... ... ... : ... .. . ... ... ... : ... .. . ... : ... .. . ... : ... .. . ... : ... .. . ... ... : ... .. . ... ... ... : ... .. . ...
ROW 03 : ... .. . ... ... ... : ... .. . ... ... ... : ... .. . ... : ... .. . ... : ... .. . FD4 : ... .. . ... ... : ... .. . ... ... ... : ... .. . ...
ROW 04 : ... .. . ... ... ... : ... .. . ... ... ... : ... .. . ... : D-# 01 . ... : ... .. . F96 : ... .. . ... ... : ... .. . ... ... ... : B-1 05 7 ...
ROW 05 : ... .. . ... ... ... : ... .. . ... ... ... : ... .. . ... : ... .. . ... : ... .. . ... : ... .. . ... ... : ... .. . ... ... ... : ... .. . ...
ROW 06 : ... .. . ... ... ... : ... .. . ... ... ... : ... .. . ... : ... .. . ... : ... .. . ... : ... .. . ... ... : ... .. . ... ... ... : ... .. . ...
ROW 07 : ... .. . ... ... ... : ... .. . ... ... ... : ... .. . ... : ... .. . ... : ... .. . FD4 : ... .. . ... ... : ... .. . ... ... ... : ... .. . ...
ROW 08 : ... .. . 481 ... ... : C#3 07 F V01 400 ... : B-2 08 . ... : D-# 01 . ... : ... .. . F96 : ... .. . ... 466 : ... .. . ... 474 ... : B-0 05 D ...
ROW 09 : ... .. . ... ... ... : ... .. . V00 ... ... : ... .. . ... : ... .. . ... : ... .. . ... : ... .. . ... ... : ... .. . ... ... ... : B-1 05 . ...
ROW 0A : ... .. . ... ... ... : ... .. . ... ... ... : ... .. . ... : ... .. . ... : ... .. . ... : ... .. . ... ... : ... .. . ... ... ... : ... .. . ...
ROW 0B : ... .. . ... ... ... : ... .. . ... ... ... : ... .. . ... : ... .. . ... : ... .. . FD4 : ... .. . ... ... : ... .. . ... ... ... : ... .. . ...
ROW 0C : ... .. . ... ... ... : ... .. . ... ... ... : B-2 08 . ... : A-# 03 . ... : D#3 00 . F96 : ... .. . ... ... : ... .. . ... ... ... : B-0 05 . ...
ROW 0D : ... .. . ... ... ... : ... .. . ... ... ... : ... .. . ... : ... .. . ... : ... .. . ... : ... .. . ... ... : ... .. . ... ... ... : B-1 05 . ...
ROW 0E : ... .. . ... ... ... : ... .. . ... ... ... : ... .. . ... : ... .. . ... : ... .. . ... : ... .. . ... ... : ... .. . ... ... ... : ... .. . ...
ROW 0F : ... .. . ... ... ... : ... .. . ... ... ... : ... .. . ... : ... .. . ... : ... .. . FD4 : ... .. . ... ... : ... .. . ... ... ... : ... .. . ...
ROW 10 : ... .. . ... ... ... : ... .. . ... 464 ... : ... .. . ... : D-# 01 . ... : ... .. . F96 : ... .. . ... ... : ... .. . ... ... ... : B-1 05 7 ...
ROW 11 : ... .. . ... ... ... : ... .. . ... ... ... : ... .. . ... : ... .. . ... : ... .. . ... : ... .. . ... ... : ... .. . ... ... ... : ... .. . ...
ROW 12 : ... .. . ... ... ... : ... .. . ... ... ... : ... .. . ... : ... .. . ... : ... .. . ... : ... .. . ... ... : ... .. . ... ... ... : ... .. . ...
ROW 13 : ... .. . ... ... ... : ... .. . ... ... ... : ... .. . ... : ... .. . ... : ... .. . FD4 : ... .. . ... ... : ... .. . ... ... ... : ... .. . ...
ROW 14 : ... .. . ... ... ... : ... .. . ... ... ... : B-2 08 . ... : D-# 01 . ... : ... .. . F96 : ... .. . ... ... : ... .. . ... ... ... : B-0 05 D ...
ROW 15 : ... .. . ... ... ... : ... .. . ... ... ... : ... .. . ... : ... .. . ... : ... .. . ... : ... .. . ... ... : ... .. . ... ... ... : B-1 05 . ...
ROW 16 : ... .. . ... ... ... : ... .. . ... ... ... : ... .. . ... : ... .. . ... : ... .. . ... : ... .. . ... ... : ... .. . ... ... ... : ... .. . ...
ROW 17 : ... .. . ... ... ... : ... .. . ... ... ... : ... .. . ... : ... .. . ... : ... .. . FD4 : ... .. . ... ... : ... .. . ... ... ... : ... .. . ...
ROW 18 : ... .. . ... ... ... : ... .. . ... ... ... : B-2 08 . ... : D-# 01 . ... : ... .. . F96 : ... .. . ... ... : ... .. . ... ... ... : B-0 05 . ...
ROW 19 : ... .. . ... ... ... : ... .. . ... ... ... : ... .. . ... : ... .. . ... : ... .. . ... : ... .. . ... ... : ... .. . ... ... ... : B-1 05 . ...
ROW 1A : ... .. . ... ... ... : ... .. . ... ... ... : ... .. . ... : ... .. . ... : ... .. . ... : ... .. . ... ... : ... .. . ... ... ... : ... .. . ...
ROW 1B : ... .. . ... ... ... : ... .. . ... ... ... : ... .. . ... : ... .. . ... : ... .. . FD4 : ... .. . ... ... : ... .. . ... ... ... : ... .. . ...
ROW 1C : ... .. . ... ... ... : ... .. . ... ... ... : ... .. . ... : D-# 01 . ... : ... .. . F96 : ... .. E ... ... : ... .. E ... ... ... : B-1 05 7 ...
ROW 1D : ... .. . ... ... ... : ... .. . ... ... ... : ... .. . ... : ... .. . ... : ... .. . ... : ... .. . ... ... : ... .. . ... ... ... : ... .. . ...
ROW 1E : ... .. . ... ... ... : ... .. . ... ... ... : ... .. . ... : ... .. . ... : ... .. . ... : ... .. . ... ... : ... .. . ... ... ... : ... .. . ...
ROW 1F : ... .. . ... ... ... : ... .. . ... ... ... : ... .. . ... : ... .. . ... : ... .. . FD4 : ... .. . ... ... : ... .. . ... ... ... : ... .. . ...
ROW 20 : ... .. . ... ... ... : ... .. . ... ... ... : B-2 08 . ... : D-# 01 . ... : ... .. . F96 : ... .. . ... ... : ... .. . ... ... ... : B-0 05 D ...
ROW 21 : ... .. . ... ... ... : ... .. . ... ... ... : ... .. . ... : ... .. . ... : ... .. . ... : ... .. . ... ... : ... .. . ... ... ... : B-1 05 . ...
ROW 22 : ... .. . ... ... ... : ... .. . ... ... ... : ... .. . ... : ... .. . ... : ... .. . ... : ... .. . ... ... : ... .. . ... ... ... : ... .. . ...
ROW 23 : ... .. . ... ... ... : ... .. . ... ... ... : ... .. . ... : ... .. . ... : ... .. . FD4 : ... .. . ... ... : ... .. . ... ... ... : ... .. . ...
ROW 24 : ... .. . ... ... ... : ... .. . ... ... ... : B-2 08 . ... : 8-# 03 . ... : F-3 00 . F96 : ... .. D V02 ... : ... .. D V02 ... ... : B-0 05 . ...
ROW 25 : ... .. . ... ... ... : ... .. . ... ... ... : ... .. . ... : ... .. . ... : ... .. . ... : ... .. . ... ... : ... .. . ... ... ... : B-1 05 . ...
ROW 26 : ... .. . ... ... ... : ... .. . ... ... ... : ... .. . ... : ... .. . ... : ... .. . ... : ... .. . ... ... : ... .. . ... ... ... : ... .. . ...
ROW 27 : ... .. . ... ... ... : ... .. . ... ... ... : ... .. . ... : ... .. . ... : ... .. . FD4 : ... .. . ... ... : ... .. . ... ... ... : ... .. . ...
ROW 28 : ... .. . ... ... ... : ... .. E ... ... ... : ... .. . ... : D-# 01 . ... : ... .. . F96 : ... .. . ... ... : ... .. . ... ... ... : B-1 05 7 ...
ROW 29 : ... .. . ... ... ... : ... .. . ... ... ... : ... .. . ... : ... .. . ... : ... .. . ... : ... .. . ... ... : ... .. . ... ... ... : ... .. . ...
ROW 2A : ... .. . ... ... ... : ... .. . ... ... ... : ... .. . ... : ... .. . ... : ... .. . ... : ... .. . ... ... : ... .. . ... ... ... : ... .. . ...
ROW 2B : ... .. . ... ... ... : ... .. . ... ... ... : ... .. . ... : ... .. . ... : ... .. . FD4 : ... .. . ... ... : ... .. . ... ... ... : ... .. . ...
ROW 2C : ... .. . ... ... ... : ... .. . ... ... ... : B-2 08 . ... : D-# 02 . ... : ... .. . F96 : ... .. B V03 ... : ... .. B V03 ... ... : B-0 05 D ...
ROW 2D : ... .. . ... ... ... : ... .. . ... ... ... : ... .. . ... : ... .. . ... : ... .. . ... : ... .. . ... ... : ... .. . ... ... ... : B-1 05 . ...
ROW 2E : ... .. . ... ... ... : ... .. . ... ... ... : ... .. . ... : ... .. . ... : ... .. . ... : ... .. . ... ... : ... .. . ... ... ... : ... .. . ...
ROW 2F : ... .. 1 ... ... ... : ... .. . ... ... ... : ... .. . ... : ... .. . ... : ... .. . FD4 : ... .. . ... ... : ... .. . ... ... ... : ... .. . ...
ROW 30 : G-4 00 2 400 ... ... : ... .. . ... ... ... : B-2 08 . ... : D-# 01 . ... : ... .. . F96 : C-3 06 F V04 400 : G-3 06 F V04 400 ... : B-0 05 . ...
ROW 31 : ... .. . ... ... ... : ... .. . ... ... ... : ... .. . ... : ... .. . ... : ... .. . ... : ... .. . V01 ... : ... .. . V01 ... ... : B-1 05 . ...
ROW 32 : ... .. . ... ... ... : ... .. . ... ... ... : ... .. . ... : ... .. . ... : ... .. . ... : ... .. . ... ... : ... .. . ... ... ... : ... .. . ...
ROW 33 : ... .. . ... ... ... : ... .. . ... ... ... : ... .. . ... : ... .. . ... : ... .. . FD4 : ... .. . ... ... : ... .. . ... ... ... : ... .. . ...
ROW 34 : ... .. . ... ... ... : ... .. . ... ... ... : ... .. . ... : D-# 01 . ... : ... .. . F96 : ... .. . ... ... : ... .. . ... ... ... : B-1 05 7 ...
ROW 35 : ... .. . ... ... ... : ... .. . ... ... ... : ... .. . ... : ... .. . ... : ... .. . ... : ... .. . ... ... : ... .. . ... ... ... : ... .. . ...
ROW 36 : ... .. . ... ... ... : ... .. . ... ... ... : ... .. . ... : ... .. . ... : ... .. . ... : ... .. . ... ... : ... .. . ... ... ... : ... .. . ...
ROW 37 : ... .. . ... ... ... : ... .. . ... ... ... : ... .. . ... : ... .. . ... : ... .. . FD4 : ... .. . ... ... : ... .. . ... ... ... : ... .. . ...
ROW 38 : ... .. . 481 ... ... : C-3 07 F V01 400 ... : B-2 08 . ... : D-# 01 . ... : ... .. . F96 : ... .. . ... 466 : ... .. . ... 474 ... : B-0 05 D ...
ROW 39 : ... .. . ... ... ... : ... .. . V00 ... ... : ... .. . ... : ... .. . ... : ... .. . ... : ... .. . ... ... : ... .. . ... ... ... : B-1 05 . ...
ROW 3A : ... .. . ... ... ... : ... .. . ... ... ... : ... .. . ... : ... .. . ... : ... .. . ... : ... .. . ... ... : ... .. . ... ... ... : ... .. . ...
ROW 3B : ... .. . ... ... ... : ... .. . ... ... ... : ... .. . ... : ... .. . ... : ... .. . FD4 : ... .. . ... ... : ... .. . ... ... ... : ... .. . ...
ROW 3C : ... .. . ... ... ... : ... .. . ... ... ... : B-2 08 . ... : A-# 03 . ... : D#3 00 . F96 : ... .. . ... ... : ... .. . ... ... ... : B-0 05 . ...
ROW 3D : ... .. . ... ... ... : ... .. . ... ... ... : ... .. . ... : ... .. . ... : ... .. . ... : ... .. . ... ... : ... .. . ... ... ... : B-1 05 . ...
ROW 3E : ... .. . ... ... ... : ... .. . ... ... ... : ... .. . ... : ... .. . ... : ... .. . ... : ... .. . ... ... : ... .. . ... ... ... : ... .. . ...
ROW 3F : ... .. . ... ... ... : ... .. . ... ... ... : ... .. . ... : ... .. . ... : ... .. . FD4 : ... .. . ... ... : ... .. . ... ... ... : ... .. . ...
ROW 40 : ... .. . ... ... ... : ... .. . ... 464 ... : ... .. . ... : D-# 01 . ... : ... .. . F96 : ... .. . ... ... : ... .. . ... ... ... : B-1 05 7 ...
ROW 41 : ... .. . ... ... ... : ... .. . ... ... ... : ... .. . ... : ... .. . ... : ... .. . ... : ... .. . ... ... : ... .. . ... ... ... : ... .. . ...
ROW 42 : ... .. . ... ... ... : ... .. . ... ... ... : ... .. . ... : ... .. . ... : ... .. . ... : ... .. . ... ... : ... .. . ... ... ... : ... .. . ...
ROW 43 : ... .. . ... ... ... : ... .. . ... ... ... : ... .. . ... : ... .. . ... : ... .. . FD4 : ... .. . ... ... : ... .. . ... ... ... : ... .. . ...
ROW 44 : ... .. . ... ... ... : ... .. . ... ... ... : B-2 08 . ... : D-# 01 . ... : ... .. . F96 : ... .. . ... ... : ... .. . ... ... ... : B-0 05 D ...
ROW 45 : ... .. . ... ... ... : ... .. . ... ... ... : ... .. . ... : ... .. . ... : ... .. . ... : ... .. . ... ... : ... .. . ... ... ... : B-1 05 . ...
ROW 46 : ... .. . ... ... ... : ... .. . ... ... ... : ... .. . ... : ... .. . ... : ... .. . ... : ... .. . ... ... : ... .. . ... ... ... : ... .. . ...
ROW 47 : ... .. . ... ... ... : ... .. . ... ... ... : ... .. . ... : ... .. . ... : ... .. . FD4 : ... .. . ... ... : ... .. . ... ... ... : ... .. . ...
ROW 48 : ... .. . ... ... ... : ... .. . ... ... ... : A-2 08 . ... : D-# 01 . ... : ... .. . F96 : ... .. . ... ... : ... .. . ... ... ... : A-0 05 . ...
ROW 49 : ... .. . ... ... ... : ... .. . ... ... ... : ... .. . ... : ... .. . ... : ... .. . ... : ... .. . ... ... : ... .. . ... ... ... : A-1 05 . ...
ROW 4A : ... .. . ... ... ... : ... .. . ... ... ... : ... .. . ... : ... .. . ... : ... .. . ... : ... .. . ... ... : ... .. . ... ... ... : ... .. . ...
ROW 4B : ... .. . ... ... ... : ... .. . ... ... ... : ... .. . ... : ... .. . ... : ... .. . FD4 : ... .. . ... ... : ... .. . ... ... ... : ... .. . ...
ROW 4C : ... .. . ... ... ... : ... .. . ... ... ... : ... .. . ... : D-# 01 . ... : ... .. . F96 : ... .. E ... ... : ... .. E ... ... ... : ... .. . ...
ROW 4D : ... .. . ... ... ... : ... .. . ... ... ... : ... .. . ... : ... .. . ... : ... .. . ... : ... .. . ... ... : ... .. . ... ... ... : ... .. . ...
ROW 4E : ... .. . ... ... ... : ... .. . ... ... ... : ... .. . ... : ... .. . ... : ... .. . ... : ... .. . ... ... : ... .. . ... ... ... : ... .. . ...
ROW 4F : ... .. . ... ... ... : ... .. . ... ... ... : ... .. . ... : ... .. . ... : ... .. . FD4 : ... .. . ... ... : ... .. . ... ... ... : ... .. . ...
ROW 50 : ... .. . ... ... ... : ... .. . ... ... ... : A-2 08 . ... : D-# 01 . ... : ... .. . F96 : ... .. . ... ... : ... .. . ... ... ... : A-1 05 7 ...
ROW 51 : ... .. . ... ... ... : ... .. . ... ... ... : ... .. . ... : ... .. . ... : ... .. . ... : ... .. . ... ... : ... .. . ... ... ... : ... .. . ...
ROW 52 : ... .. . ... ... ... : ... .. . ... ... ... : ... .. . ... : ... .. . ... : ... .. . ... : ... .. . ... ... : ... .. . ... ... ... : ... .. . ...
ROW 53 : ... .. . ... ... ... : ... .. . ... ... ... : ... .. . ... : ... .. . ... : ... .. . FD4 : ... .. . ... ... : ... .. . ... ... ... : ... .. . ...
ROW 54 : ... .. . ... ... ... : ... .. . ... ... ... : A#2 08 . ... : 8-# 03 . ... : F-3 00 . F96 : ... .. D V02 ... : ... .. D V02 ... ... : A#0 05 D ...
ROW 55 : ... .. . ... ... ... : ... .. . ... ... ... : ... .. . ... : ... .. . ... : ... .. . ... : ... .. . ... ... : ... .. . ... ... ... : A#1 05 . ...
ROW 56 : ... .. . ... ... ... : ... .. . ... ... ... : ... .. . ... : ... .. . ... : ... .. . ... : ... .. . ... ... : ... .. . ... ... ... : ... .. . ...
ROW 57 : ... .. . ... ... ... : ... .. . ... ... ... : ... .. . ... : ... .. . ... : ... .. . FD4 : ... .. . ... ... : ... .. . ... ... ... : ... .. . ...
ROW 58 : ... .. . ... ... ... : ... .. E ... ... ... : ... .. . ... : 8-# 03 . ... : F-3 00 . F96 : ... .. . ... ... : ... .. . ... ... ... : ... .. . ...
ROW 59 : ... .. . ... ... ... : ... .. . ... ... ... : ... .. . ... : ... .. . ... : ... .. . ... : ... .. . ... ... : ... .. . ... ... ... : ... .. . ...
ROW 5A : ... .. . ... ... ... : ... .. . ... ... ... : ... .. . ... : ... .. . ... : ... .. . ... : ... .. . ... ... : ... .. . ... ... ... : ... .. . ...
ROW 5B : ... .. . ... ... ... : ... .. . ... ... ... : ... .. . ... : ... .. . ... : ... .. . FD4 : ... .. . ... ... : ... .. . ... ... ... : ... .. . ...
ROW 5C : ... .. . ... ... ... : ... .. . ... ... ... : A#2 08 . ... : 8-# 03 . ... : F-3 00 . F96 : ... .. B V03 ... : ... .. B V03 ... ... : A#1 05 7 ...
ROW 5D : ... .. . ... ... ... : ... .. . ... ... ... : ... .. . ... : ... .. . ... : ... .. . ... : ... .. . ... ... : ... .. . ... ... ... : ... .. . ...
ROW 5E : ... .. . ... ... ... : ... .. . ... ... ... : ... .. . ... : ... .. . ... : ... .. . ... : ... .. . ... ... : ... .. . ... ... ... : ... .. . ...
ROW 5F : ... .. 1 ... ... ... : ... .. . ... ... ... : ... .. . ... : ... .. . ... : ... .. . FD4 : ... .. . ... ... : ... .. . ... ... ... : ... .. . ...

PATTERN 05
ROW 00 : F#3 00 2 400 ... ... : ... .. . ... ... ... : B-2 08 . ... : D-# 01 . ... : ... .. . F96 : B-3 06 F V04 400 : F#3 06 F V04 ... ... : B-0 05 D ...
ROW 01 : ... .. . ... ... ... : ... .. . ... ... ... : ... .. . ... : ... .. . ... : ... .. . ... : ... .. . V01 ... : ... .. . V01 ... ... : B-1 05 . ...
ROW 02 : ... .. . ... ... ... : ... .. . ... ... ... : ... .. . ... : ... .. . ... : ... .. . ... : ... .. . ... ... : ... .. . ... ... ... : ... .. . ...
ROW 03 : ... .. . ... ... ... : ... .. . ... ... ... : ... .. . ... : ... .. . ... : ... .. . FD4 : ... .. . ... ... : ... .. . ... ... ... : ... .. . ...
ROW 04 : ... .. . ... ... ... : ... .. . ... ... ... : ... .. . ... : D-# 01 . ... : ... .. . F96 : ... .. . ... ... : ... .. . ... ... ... : B-1 05 7 ...
ROW 05 : ... .. . ... ... ... : ... .. . ... ... ... : ... .. . ... : ... .. . ... : ... .. . ... : ... .. . ... ... : ... .. . ... ... ... : ... .. . ...
ROW 06 : ... .. . ... ... ... : ... .. . ... ... ... : ... .. . ... : ... .. . ... : ... .. . ... : ... .. . ... ... : ... .. . ... ... ... : ... .. . ...
ROW 07 : ... .. . ... ... ... : ... .. . ... ... ... : ... .. . ... : ... .. . ... : ... .. . FD4 : ... .. . ... ... : ... .. . ... ... ... : ... .. . ...
ROW 08 : ... .. . 482 ... ... : B-3 07 F V01 400 ... : B-2 08 . ... : D-# 01 . ... : ... .. . F96 : ... .. . ... 464 : ... .. . ... 474 ... : B-0 05 D ...
ROW 09 : ... .. . ... ... ... : ... .. . V00 ... ... : ... .. . ... : ... .. . ... : ... .. . ... : ... .. . ... ... : ... .. . ... ... ... : B-1 05 . ...
ROW 0A : ... .. . ... ... ... : ... .. . ... ... ... : ... .. . ... : ... .. . ... : ... .. . ... : ... .. . ... ... : ... .. . ... ... ... : ... .. . ...
ROW 0B : ... .. . ... ... ... : ... .. . ... ... ... : ... .. . ... : ... .. . ... : ... .. . FD4 : ... .. . ... ... : ... .. . ... ... ... : ... .. . ...
ROW 0C : ... .. . ... ... ... : ... .. . ... ... ... : B-2 08 . ... : A-# 03 . ... : D#3 00 . F96 : ... .. . ... ... : ... .. . ... ... ... : B-0 05 . ...
ROW 0D : ... .. . ... ... ... : ... .. . ... ... ... : ... .. . ... : ... .. . ... : ... .. . ... : ... .. . ... ... : ... .. . ... ... ... : B-1 05 . ...
ROW 0E : ... .. . ... ... ... : ... .. . ... ... ... : ... .. . ... : ... .. . ... : ... .. . ... : ... .. . ... ... : ... .. . ... ... ... : ... .. . ...
ROW 0F : ... .. . ... ... ... : ... .. . ... ... ... : ... .. . ... : ... .. . ... : ... .. . FD4 : ... .. . ... ... : ... .. . ... ... ... : ... .. . ...
ROW 10 : ... .. . ... ... ... : ... .. . ... 444 ... : ... .. . ... : D-# 01 . ... : ... .. . F96 : ... .. . ... ... : ... .. . ... ... ... : B-1 05 7 ...
ROW 11 : ... .. . ... ... ... : ... .. . ... ... ... : ... .. . ... : ... .. . ... : ... .. . ... : ... .. . ... ... : ... .. . ... ... ... : ... .. . ...
ROW 12 : ... .. . ... ... ... : ... .. . ... ... ... : ... .. . ... : ... .. . ... : ... .. . ... : ... .. . ... ... : ... .. . ... ... ... : ... .. . ...
ROW 13 : ... .. . ... ... ... : ... .. . ... ... ... : ... .. . ... : ... .. . ... : ... .. . FD4 : ... .. . ... ... : ... .. . ... ... ... : ... .. . ...
ROW 14 : ... .. . ... ... ... : ... .. . ... ... ... : B-2 08 . ... : D-# 01 . ... : ... .. . F96 : ... .. . ... ... : ... .. . ... ... ... : B-0 05 D ...
ROW 15 : ... .. . ... ... ... : ... .. . ... ... ... : ... .. . ... : ... .. . ... : ... .. . ... : ... .. . ... ... : ... .. . ... ... ... : B-1 05 . ...
ROW 16 : ... .. . ... ... ... : ... .. . ... ... ... : ... .. . ... : ... .. . ... : ... .. . ... : ... .. . ... ... : ... .. . ... ... ... : ... .. . ...
ROW 17 : ... .. . ... ... ... : ... .. . ... ... ... : ... .. . ... : ... .. . ... : ... .. . FD4 : ... .. . ... ... : ... .. . ... ... ... : ... .. . ...
ROW 18 : ... .. . ... ... ... : ... .. . ... ... ... : B-2 08 . ... : D-# 01 . ... : ... .. . F96 : ... .. . ... ... : ... .. . ... ... ... : B-0 05 . ...
ROW 19 : ... .. . ... ... ... : ... .. . ... ... ... : ... .. . ... : ... .. . ... : ... .. . ... : ... .. . ... ... : ... .. . ... ... ... : B-1 05 . ...
ROW 1A : ... .. . ... ... ... : ... .. . ... ... ... : ... .. . ... : ... .. . ... : ... .. . ... : ... .. . ... ... : ... .. . ... ... ... : ... .. . ...
ROW 1B : ... .. . ... ... ... : ... .. . ... ... ... : ... .. . ... : ... .. . ... : ... .. . FD4 : ... .. . ... ... : ... .. . ... ... ... : ... .. . ...
ROW 1C : ... .. . ... ... ... : ... .. . ... ... ... : ... .. . ... : D-# 01 . ... : ... .. . F96 : ... .. E ... ... : ... .. E ... ... ... : B-1 05 7 ...
ROW 1D : ... .. . ... ... ... : ... .. . ... ... ... : ... .. . ... : ... .. . ... : ... .. . ... : ... .. . ... ... : ... .. . ... ... ... : ... .. . ...
ROW 1E : ... .. . ... ... ... : ... .. . ... ... ... : ... .. . ... : ... .. . ... : ... .. . ... : ... .. . ... ... : ... .. . ... ... ... : ... .. . ...
ROW 1F : ... .. . ... ... ... : ... .. . ... ... ... : ... .. . ... : ... .. . ... : ... .. . FD4 : ... .. . ... ... : ... .. . ... ... ... : ... .. . ...
ROW 20 : ... .. . ... ... ... : ... .. . ... ... ... : B-2 08 . ... : D-# 01 . ... : ... .. . F96 : ... .. . ... ... : ... .. . ... ... ... : B-0 05 D ...
ROW 21 : ... .. . ... ... ... : ... .. . ... ... ... : ... .. . ... : ... .. . ... : ... .. . ... : ... .. . ... ... : ... .. . ... ... ... : B-1 05 . ...
ROW 22 : ... .. . ... ... ... : ... .. . ... ... ... : ... .. . ... : ... .. . ... : ... .. . ... : ... .. . ... ... : ... .. . ... ... ... : ... .. . ...
ROW 23 : ... .. . ... ... ... : ... .. . ... ... ... : ... .. . ... : ... .. . ... : ... .. . FD4 : ... .. . ... ... : ... .. . ... ... ... : ... .. . ...
ROW 24 : ... .. . ... ... ... : ... .. . ... ... ... : B-2 08 . ... : 8-# 03 . ... : F-3 00 . F96 : ... .. D V02 ... : ... .. D V02 ... ... : B-0 05 . ...
ROW 25 : ... .. . ... ... ... : ... .. . ... ... ... : ... .. . ... : ... .. . ... : ... .. . ... : ... .. . ... ... : ... .. . ... ... ... : B-1 05 . ...
ROW 26 : ... .. . ... ... ... : ... .. . ... ... ... : ... .. . ... : ... .. . ... : ... .. . ... : ... .. . ... ... : ... .. . ... ... ... : ... .. . ...
ROW 27 : ... .. . ... ... ... : ... .. . ... ... ... : ... .. . ... : ... .. . ... : ... .. . FD4 : ... .. . ... ... : ... .. . ... ... ... : ... .. . ...
ROW 28 : ... .. . ... ... ... : ... .. E ... ... ... : ... .. . ... : D-# 01 . ... : ... .. . F96 : ... .. . ... ... : ... .. . ... ... ... : B-1 05 7 ...
ROW 29 : ... .. . ... ... ... : ... .. . ... ... ... : ... .. . ... : ... .. . ... : ... .. . ... : ... .. . ... ... : ... .. . ... ... ... : ... .. . ...
ROW 2A : ... .. . ... ... ... : ... .. . ... ... ... : ... .. . ... : ... .. . ... : ... .. . ... : ... .. . ... ... : ... .. . ... ... ... : ... .. . ...
ROW 2B : ... .. . ... ... ... : ... .. . ... ... ... : ... .. . ... : ... .. . ... : ... .. . FD4 : ... .. . ... ... : ... .. . ... ... ... : ... .. . ...
ROW 2C : ... .. . ... ... ... : ... .. . ... ... ... : B-2 08 . ... : D-# 02 . ... : ... .. . F96 : ... .. B V03 ... : ... .. B V03 ... ... : B-0 05 D ...
ROW 2D : ... .. . ... ... ... : ... .. . ... ... ... : ... .. . ... : ... .. . ... : ... .. . ... : ... .. . ... ... : ... .. . ... ... ... : B-1 05 . ...
ROW 2E : ... .. . ... ... ... : ... .. . ... ... ... : ... .. . ... : ... .. . ... : ... .. . ... : ... .. . ... ... : ... .. . ... ... ... : ... .. . ...
ROW 2F : ... .. 1 ... ... ... : ... .. . ... ... ... : ... .. . ... : ... .. . ... : ... .. . FD4 : ... .. . ... ... : ... .. . ... ... ... : ... .. . ...
ROW 30 : A-3 00 2 400 ... ... : ... .. . ... ... ... : B-2 08 . ... : D-# 01 . ... : ... .. . F96 : D-4 06 F V04 400 : A-3 06 F V04 400 ... : B-0 05 . ...
ROW 31 : ... .. . ... ... ... : ... .. . ... ... ... : ... .. . ... : ... .. . ... : ... .. . ... : ... .. . V01 ... : ... .. . V01 ... ... : B-1 05 . ...
ROW 32 : ... .. . ... ... ... : ... .. . ... ... ... : ... .. . ... : ... .. . ... : ... .. . ... : ... .. . ... ... : ... .. . ... ... ... : ... .. . ...
ROW 33 : ... .. . ... ... ... : ... .. . ... ... ... : ... .. . ... : ... .. . ... : ... .. . FD4 : ... .. . ... ... : ... .. . ... ... ... : ... .. . ...
ROW 34 : ... .. . ... ... ... : ... .. . ... ... ... : ... .. . ... : D-# 01 . ... : ... .. . F96 : ... .. . ... ... : ... .. . ... ... ... : B-1 05 7 ...
ROW 35 : ... .. . ... ... ... : ... .. . ... ... ... : ... .. . ... : ... .. . ... : ... .. . ... : ... .. . ... ... : ... .. . ... ... ... : ... .. . ...
ROW 36 : ... .. . ... ... ... : ... .. . ... ... ... : ... .. . ... : ... .. . ... : ... .. . ... : ... .. . ... ... : ... .. . ... ... ... : ... .. . ...
ROW 37 : ... .. . ... ... ... : ... .. . ... ... ... : ... .. . ... : ... .. . ... : ... .. . FD4 : ... .. . ... ... : ... .. . ... ... ... : ... .. . ...
ROW 38 : ... .. . 482 ... ... : D-4 07 F V01 400 ... : B-2 08 . ... : D-# 01 . ... : ... .. . F96 : ... .. . ... 464 : ... .. . ... 474 ... : B-0 05 D ...
ROW 39 : ... .. . ... ... ... : ... .. . V00 ... ... : ... .. . ... : ... .. . ... : ... .. . ... : ... .. . ... ... : ... .. . ... ... ... : B-1 05 . ...
ROW 3A : ... .. . ... ... ... : ... .. . ... ... ... : ... .. . ... : ... .. . ... : ... .. . ... : ... .. . ... ... : ... .. . ... ... ... : ... .. . ...
ROW 3B : ... .. . ... ... ... : ... .. . ... ... ... : ... .. . ... : ... .. . ... : ... .. . FD4 : ... .. . ... ... : ... .. . ... ... ... : ... .. . ...
ROW 3C : ... .. . ... ... ... : ... .. . ... ... ... : B-2 08 . ... : A-# 03 . ... : D#3 00 . F96 : ... .. . ... ... : ... .. . ... ... ... : B-0 05 . ...
ROW 3D : ... .. . ... ... ... : ... .. . ... ... ... : ... .. . ... : ... .. . ... : ... .. . ... : ... .. . ... ... : ... .. . ... ... ... : B-1 05 . ...
ROW 3E : ... .. . ... ... ... : ... .. . ... ... ... : ... .. . ... : ... .. . ... : ... .. . ... : ... .. . ... ... : ... .. . ... ... ... : ... .. . ...
ROW 3F : ... .. . ... ... ... : ... .. . ... ... ... : ... .. . ... : ... .. . ... : ... .. . FD4 : ... .. . ... ... : ... .. . ... ... ... : ... .. . ...
ROW 40 : ... .. . ... ... ... : ... .. . ... 444 ... : ... .. . ... : D-# 01 . ... : ... .. . F96 : ... .. . ... ... : ... .. . ... ... ... : B-1 05 7 ...
ROW 41 : ... .. . ... ... ... : ... .. . ... ... ... : ... .. . ... : ... .. . ... : ... .. . ... : ... .. . ... ... : ... .. . ... ... ... : ... .. . ...
ROW 42 : ... .. . ... ... ... : ... .. . ... ... ... : ... .. . ... : ... .. . ... : ... .. . ... : ... .. . ... ... : ... .. . ... ... ... : ... .. . ...
ROW 43 : ... .. . ... ... ... : ... .. . ... ... ... : ... .. . ... : ... .. . ... : ... .. . FD4 : ... .. . ... ... : ... .. . ... ... ... : ... .. . ...
ROW 44 : ... .. . ... ... ... : ... .. . ... ... ... : B-2 08 . ... : D-# 01 . ... : ... .. . F96 : ... .. . ... ... : ... .. . ... ... ... : B-0 05 D ...
ROW 45 : ... .. . ... ... ... : ... .. . ... ... ... : ... .. . ... : ... .. . ... : ... .. . ... : ... .. . ... ... : ... .. . ... ... ... : B-1 05 . ...
ROW 46 : ... .. . ... ... ... : ... .. . ... ... ... : ... .. . ... : ... .. . ... : ... .. . ... : ... .. . ... ... : ... .. . ... ... ... : ... .. . ...
ROW 47 : ... .. . ... ... ... : ... .. . ... ... ... : ... .. . ... : ... .. . ... : ... .. . FD4 : ... .. . ... ... : ... .. . ... ... ... : ... .. . ...
ROW 48 : ... .. . ... ... ... : ... .. . ... ... ... : B-2 08 . ... : D-# 01 . ... : ... .. . F96 : ... .. . ... ... : ... .. . ... ... ... : B-0 05 . ...
ROW 49 : ... .. . ... ... ... : ... .. . ... ... ... : ... .. . ... : ... .. . ... : ... .. . ... : ... .. . ... ... : ... .. . ... ... ... : B-1 05 . ...
ROW 4A : ... .. . ... ... ... : ... .. . ... ... ... : ... .. . ... : ... .. . ... : ... .. . ... : ... .. . ... ... : ... .. . ... ... ... : ... .. . ...
ROW 4B : ... .. . ... ... ... : ... .. . ... ... ... : ... .. . ... : ... .. . ... : ... .. . FD4 : ... .. . ... ... : ... .. . ... ... ... : ... .. . ...
ROW 4C : ... .. . ... ... ... : ... .. . ... ... ... : ... .. . ... : D-# 01 . ... : ... .. . F96 : ... .. E ... ... : ... .. E ... ... ... : B-1 05 7 ...
ROW 4D : ... .. . ... ... ... : ... .. . ... ... ... : ... .. . ... : ... .. . ... : ... .. . ... : ... .. . ... ... : ... .. . ... ... ... : ... .. . ...
ROW 4E : ... .. . ... ... ... : ... .. . ... ... ... : ... .. . ... : ... .. . ... : ... .. . ... : ... .. . ... ... : ... .. . ... ... ... : ... .. . ...
ROW 4F : ... .. . ... ... ... : ... .. . ... ... ... : ... .. . ... : ... .. . ... : ... .. . FD4 : ... .. . ... ... : ... .. . ... ... ... : ... .. . ...
ROW 50 : ... .. . ... ... ... : ... .. . ... ... ... : B-2 08 . ... : D-# 01 . ... : ... .. . F96 : ... .. . ... ... : ... .. . ... ... ... : B-0 05 D ...
ROW 51 : ... .. . ... ... ... : ... .. . ... ... ... : ... .. . ... : ... .. . ... : ... .. . ... : ... .. . ... ... : ... .. . ... ... ... : B-1 05 . ...
ROW 52 : ... .. . ... ... ... : ... .. . ... ... ... : ... .. . ... : ... .. . ... : ... .. . ... : ... .. . ... ... : ... .. . ... ... ... : ... .. . ...
ROW 53 : ... .. . ... ... ... : ... .. . ... ... ... : ... .. . ... : ... .. . ... : ... .. . FD4 : ... .. . ... ... : ... .. . ... ... ... : ... .. . ...
ROW 54 : ... .. . ... ... ... : ... .. . ... ... ... : B-3 08 . ... : 8-# 03 . ... : F-3 00 . F96 : ... .. D V02 ... : ... .. D V02 ... ... : B-0 05 . ...
ROW 55 : ... .. . ... ... ... : ... .. . ... ... ... : ... .. . ... : ... .. . ... : ... .. . ... : ... .. . ... ... : ... .. . ... ... ... : B-1 05 . ...
ROW 56 : ... .. . ... ... ... : ... .. . ... ... ... : ... .. . ... : ... .. . ... : ... .. . ... : ... .. . ... ... : ... .. . ... ... ... : ... .. . ...
ROW 57 : ... .. . ... ... ... : ... .. . ... ... ... : ... .. . ... : ... .. . ... : ... .. . FD4 : ... .. . ... ... : ... .. . ... ... ... : ... .. . ...
ROW 58 : ... .. . ... ... ... : ... .. E ... ... ... : B-2 08 . ... : D-# 01 . ... : ... .. . F96 : ... .. . ... ... : ... .. . ... ... ... : B-1 05 7 ...
ROW 59 : ... .. . ... ... ... : ... .. . ... ... ... : ... .. . ... : ... .. . ... : ... .. . ... : ... .. . ... ... : ... .. . ... ... ... : ... .. . ...
ROW 5A : ... .. . ... ... ... : ... .. . ... ... ... : ... .. . ... : ... .. . ... : ... .. . ... : ... .. . ... ... : ... .. . ... ... ... : ... .. . ...
ROW 5B : ... .. . ... ... ... : ... .. . ... ... ... : ... .. . ... : ... .. . ... : ... .. . FD4 : ... .. . ... ... : ... .. . ... ... ... : ... .. . ...
ROW 5C : ... .. . ... ... ... : ... .. . ... ... ... : B-3 08 . ... : D-# 02 . ... : ... .. . F96 : ... .. B V03 ... : ... .. B V03 ... ... : B-0 05 D ...
ROW 5D : ... .. . ... ... ... : ... .. . ... ... ... : ... .. . ... : ... .. . ... : ... .. . ... : ... .. . ... ... : ... .. . ... ... ... : B-1 05 . ...
ROW 5E : ... .. . ... ... ... : ... .. . ... ... ... : ... .. . ... : ... .. . ... : ... .. . ... : ... .. . ... ... : ... .. . ... ... ... : ... .. . ...
ROW 5F : ... .. 1 ... ... ... : ... .. . ... ... ... : ... .. . ... : ... .. . ... : ... .. . FD4 : ... .. . ... ... : ... .. . ... ... ... : ... .. . ...

PATTERN 06
ROW 00 : G#3 00 2 400 ... ... : ... .. . ... ... ... : B-2 08 . ... : D-# 01 . ... : ... .. . F96 : C#4 06 F V04 400 : G#3 06 F V04 ... ... : B-0 05 D ...
ROW 01 : ... .. . ... ... ... : ... .. . ... ... ... : ... .. . ... : ... .. . ... : ... .. . ... : ... .. . V01 ... : ... .. . V01 ... ... : B-1 05 . ...
ROW 02 : ... .. . ... ... ... : ... .. . ... ... ... : ... .. . ... : ... .. . ... : ... .. . ... : ... .. . ... ... : ... .. . ... ... ... : ... .. . ...
ROW 03 : ... .. . ... ... ... : ... .. . ... ... ... : ... .. . ... : ... .. . ... : ... .. . FD4 : ... .. . ... ... : ... .. . ... ... ... : ... .. . ...
ROW 04 : ... .. . ... ... ... : ... .. . ... ... ... : ... .. . ... : D-# 01 . ... : ... .. . F96 : ... .. . ... ... : ... .. . ... ... ... : B-1 05 7 ...
ROW 05 : ... .. . ... ... ... : ... .. . ... ... ... : ... .. . ... : ... .. . ... : ... .. . ... : ... .. . ... ... : ... .. . ... ... ... : ... .. . ...
ROW 06 : ... .. . ... ... ... : ... .. . ... ... ... : ... .. . ... : ... .. . ... : ... .. . ... : ... .. . ... ... : ... .. . ... ... ... : ... .. . ...
ROW 07 : ... .. . ... ... ... : ... .. . ... ... ... : ... .. . ... : ... .. . ... : ... .. . FD4 : ... .. . ... ... : ... .. . ... ... ... : ... .. . ...
ROW 08 : ... .. . 482 ... ... : C#4 07 F V01 400 ... : B-2 08 . ... : D-# 01 . ... : ... .. . F96 : ... .. . ... 464 : ... .. . ... 474 ... : B-0 05 D ...
ROW 09 : ... .. . ... ... ... : ... .. . V00 ... ... : ... .. . ... : ... .. . ... : ... .. . ... : ... .. . ... ... : ... .. . ... ... ... : B-1 05 . ...
ROW 0A : ... .. . ... ... ... : ... .. . ... ... ... : ... .. . ... : ... .. . ... : ... .. . ... : ... .. . ... ... : ... .. . ... ... ... : ... .. . ...
ROW 0B : ... .. . ... ... ... : ... .. . ... ... ... : ... .. . ... : ... .. . ... : ... .. . FD4 : ... .. . ... ... : ... .. . ... ... ... : ... .. . ...
ROW 0C : ... .. . ... ... ... : ... .. . ... ... ... : B-2 08 . ... : A-# 03 . ... : D#3 00 . F96 : ... .. . ... ... : ... .. . ... ... ... : B-0 05 . ...
ROW 0D : ... .. . ... ... ... : ... .. . ... ... ... : ... .. . ... : ... .. . ... : ... .. . ... : ... .. . ... ... : ... .. . ... ... ... : B-1 05 . ...
ROW 0E : ... .. . ... ... ... : ... .. . ... ... ... : ... .. . ... : ... .. . ... : ... .. . ... : ... .. . ... ... : ... .. . ... ... ... : ... .. . ...
ROW 0F : ... .. . ... ... ... : ... .. . ... ... ... : ... .. . ... : ... .. . ... : ... .. . FD4 : ... .. . ... ... : ... .. . ... ... ... : ... .. . ...
ROW 10 : ... .. . ... ... ... : ... .. . ... 444 ... : ... .. . ... : D-# 01 . ... : ... .. . F96 : ... .. . ... ... : ... .. . ... ... ... : B-1 05 7 ...
ROW 11 : ... .. . ... ... ... : ... .. . ... ... ... : ... .. . ... : ... .. . ... : ... .. . ... : ... .. . ... ... : ... .. . ... ... ... : ... .. . ...
ROW 12 : ... .. . ... ... ... : ... .. . ... ... ... : ... .. . ... : ... .. . ... : ... .. . ... : ... .. . ... ... : ... .. . ... ... ... : ... .. . ...
ROW 13 : ... .. . ... ... ... : ... .. . ... ... ... : ... .. . ... : ... .. . ... : ... .. . FD4 : ... .. . ... ... : ... .. . ... ... ... : ... .. . ...
ROW 14 : ... .. . ... ... ... : ... .. . ... ... ... : B-2 08 . ... : D-# 01 . ... : ... .. . F96 : ... .. . ... ... : ... .. . ... ... ... : B-0 05 D ...
ROW 15 : ... .. . ... ... ... : ... .. . ... ... ... : ... .. . ... : ... .. . ... : ... .. . ... : ... .. . ... ... : ... .. . ... ... ... : B-1 05 . ...
ROW 16 : ... .. . ... ... ... : ... .. . ... ... ... : ... .. . ... : ... .. . ... : ... .. . ... : ... .. . ... ... : ... .. . ... ... ... : ... .. . ...
ROW 17 : ... .. . ... ... ... : ... .. . ... ... ... : ... .. . ... : ... .. . ... : ... .. . FD4 : ... .. . ... ... : ... .. . ... ... ... : ... .. . ...
ROW 18 : ... .. . ... ... ... : ... .. . ... ... ... : B-2 08 . ... : D-# 01 . ... : ... .. . F96 : ... .. . ... ... : ... .. . ... ... ... : B-0 05 . ...
ROW 19 : ... .. . ... ... ... : ... .. . ... ... ... : ... .. . ... : ... .. . ... : ... .. . ... : ... .. . ... ... : ... .. . ... ... ... : B-1 05 . ...
ROW 1A : ... .. . ... ... ... : ... .. . ... ... ... : ... .. . ... : ... .. . ... : ... .. . ... : ... .. . ... ... : ... .. . ... ... ... : ... .. . ...
ROW 1B : ... .. . ... ... ... : ... .. . ... ... ... : ... .. . ... : ... .. . ... : ... .. . FD4 : ... .. . ... ... : ... .. . ... ... ... : ... .. . ...
ROW 1C : ... .. . ... ... ... : ... .. . ... ... ... : ... .. . ... : D-# 01 . ... : ... .. . F96 : ... .. E ... ... : ... .. E ... ... ... : B-1 05 7 ...
ROW 1D : ... .. . ... ... ... : ... .. . ... ... ... : ... .. . ... : ... .. . ... : ... .. . ... : ... .. . ... ... : ... .. . ... ... ... : ... .. . ...
ROW 1E : ... .. . ... ... ... : ... .. . ... ... ... : ... .. . ... : ... .. . ... : ... .. . ... : ... .. . ... ... : ... .. . ... ... ... : ... .. . ...
ROW 1F : ... .. . ... ... ... : ... .. . ... ... ... : ... .. . ... : ... .. . ... : ... .. . FD4 : ... .. . ... ... : ... .. . ... ... ... : ... .. . ...
ROW 20 : ... .. . ... ... ... : ... .. . ... ... ... : B-2 08 . ... : D-# 01 . ... : ... .. . F96 : ... .. . ... ... : ... .. . ... ... ... : B-0 05 D ...
ROW 21 : ... .. . ... ... ... : ... .. . ... ... ... : ... .. . ... : ... .. . ... : ... .. . ... : ... .. . ... ... : ... .. . ... ... ... : B-1 05 . ...
ROW 22 : ... .. . ... ... ... : ... .. . ... ... ... : ... .. . ... : ... .. . ... : ... .. . ... : ... .. . ... ... : ... .. . ... ... ... : ... .. . ...
ROW 23 : ... .. . ... ... ... : ... .. . ... ... ... : ... .. . ... : ... .. . ... : ... .. . FD4 : ... .. . ... ... : ... .. . ... ... ... : ... .. . ...
ROW 24 : ... .. . ... ... ... : ... .. . ... ... ... : B-2 08 . ... : 8-# 03 . ... : F-3 00 . F96 : ... .. D V02 ... : ... .. D V02 ... ... : B-0 05 . ...
ROW 25 : ... .. . ... ... ... : ... .. . ... ... ... : ... .. . ... : ... .. . ... : ... .. . ... : ... .. . ... ... : ... .. . ... ... ... : B-1 05 . ...
ROW 26 : ... .. . ... ... ... : ... .. . ... ... ... : ... .. . ... : ... .. . ... : ... .. . ... : ... .. . ... ... : ... .. . ... ... ... : ... .. . ...
ROW 27 : ... .. . ... ... ... : ... .. . ... ... ... : ... .. . ... : ... .. . ... : ... .. . FD4 : ... .. . ... ... : ... .. . ... ... ... : ... .. . ...
ROW 28 : ... .. . ... ... ... : ... .. E ... ... ... : ... .. . ... : D-# 01 . ... : ... .. . F96 : ... .. . ... ... : ... .. . ... ... ... : B-1 05 7 ...
ROW 29 : ... .. . ... ... ... : ... .. . ... ... ... : ... .. . ... : ... .. . ... : ... .. . ... : ... .. . ... ... : ... .. . ... ... ... : ... .. . ...
ROW 2A : ... .. . ... ... ... : ... .. . ... ... ... : ... .. . ... : ... .. . ... : ... .. . ... : ... .. . ... ... : ... .. . ... ... ... : ... .. . ...
ROW 2B : ... .. . ... ... ... : ... .. . ... ... ... : ... .. . ... : ... .. . ... : ... .. . FD4 : ... .. . ... ... : ... .. . ... ... ... : ... .. . ...
ROW 2C : ... .. . ... ... ... : ... .. . ... ... ... : B-2 08 . ... : D-# 02 . ... : ... .. . F96 : ... .. B V03 ... : ... .. B V03 ... ... : B-0 05 D ...
ROW 2D : ... .. . ... ... ... : ... .. . ... ... ... : ... .. . ... : ... .. . ... : ... .. . ... : ... .. . ... ... : ... .. . ... ... ... : B-1 05 . ...
ROW 2E : ... .. . ... ... ... : ... .. . ... ... ... : ... .. . ... : ... .. . ... : ... .. . ... : ... .. . ... ... : ... .. . ... ... ... : ... .. . ...
ROW 2F : ... .. 1 ... ... ... : ... .. . ... ... ... : ... .. . ... : ... .. . ... : ... .. . FD4 : ... .. . ... ... : ... .. . ... ... ... : ... .. . ...
ROW 30 : G-3 00 2 400 ... ... : ... .. . ... ... ... : B-2 08 . ... : D-# 01 . ... : ... .. . F96 : C-4 06 F V04 400 : G-3 06 F V04 400 ... : B-0 05 . ...
ROW 31 : ... .. . ... ... ... : ... .. . ... ... ... : ... .. . ... : ... .. . ... : ... .. . ... : ... .. . V01 ... : ... .. . V01 ... ... : B-1 05 . ...
ROW 32 : ... .. . ... ... ... : ... .. . ... ... ... : ... .. . ... : ... .. . ... : ... .. . ... : ... .. . ... ... : ... .. . ... ... ... : ... .. . ...
ROW 33 : ... .. . ... ... ... : ... .. . ... ... ... : ... .. . ... : ... .. . ... : ... .. . FD4 : ... .. . ... ... : ... .. . ... ... ... : ... .. . ...
ROW 34 : ... .. . ... ... ... : ... .. . ... ... ... : ... .. . ... : D-# 01 . ... : ... .. . F96 : ... .. . ... ... : ... .. . ... ... ... : B-1 05 7 ...
ROW 35 : ... .. . ... ... ... : ... .. . ... ... ... : ... .. . ... : ... .. . ... : ... .. . ... : ... .. . ... ... : ... .. . ... ... ... : ... .. . ...
ROW 36 : ... .. . ... ... ... : ... .. . ... ... ... : ... .. . ... : ... .. . ... : ... .. . ... : ... .. . ... ... : ... .. . ... ... ... : ... .. . ...
ROW 37 : ... .. . ... ... ... : ... .. . ... ... ... : ... .. . ... : ... .. . ... : ... .. . FD4 : ... .. . ... ... : ... .. . ... ... ... : ... .. . ...
ROW 38 : ... .. . 482 ... ... : C-4 07 F V01 400 ... : B-2 08 . ... : D-# 01 . ... : ... .. . F96 : ... .. . ... 464 : ... .. . ... 474 ... : B-0 05 D ...
ROW 39 : ... .. . ... ... ... : ... .. . V00 ... ... : ... .. . ... : ... .. . ... : ... .. . ... : ... .. . ... ... : ... .. . ... ... ... : B-1 05 . ...
ROW 3A : ... .. . ... ... ... : ... .. . ... ... ... : ... .. . ... : ... .. . ... : ... .. . ... : ... .. . ... ... : ... .. . ... ... ... : ... .. . ...
ROW 3B : ... .. . ... ... ... : ... .. . ... ... ... : ... .. . ... : ... .. . ... : ... .. . FD4 : ... .. . ... ... : ... .. . ... ... ... : ... .. . ...
ROW 3C : ... .. . ... ... ... : ... .. . ... ... ... : B-2 08 . ... : A-# 03 . ... : D#3 00 . F96 : ... .. . ... ... : ... .. . ... ... ... : B-0 05 . ...
ROW 3D : ... .. . ... ... ... : ... .. . ... ... ... : ... .. . ... : ... .. . ... : ... .. . ... : ... .. . ... ... : ... .. . ... ... ... : B-1 05 . ...
ROW 3E : ... .. . ... ... ... : ... .. . ... ... ... : ... .. . ... : ... .. . ... : ... .. . ... : ... .. . ... ... : ... .. . ... ... ... : ... .. . ...
ROW 3F : ... .. . ... ... ... : ... .. . ... ... ... : ... .. . ... : ... .. . ... : ... .. . FD4 : ... .. . ... ... : ... .. . ... ... ... : ... .. . ...
ROW 40 : ... .. . ... ... ... : ... .. . ... 444 ... : ... .. . ... : D-# 01 . ... : ... .. . F96 : ... .. . ... ... : ... .. . ... ... ... : B-1 05 7 ...
ROW 41 : ... .. . ... ... ... : ... .. . ... ... ... : ... .. . ... : ... .. . ... : ... .. . ... : ... .. . ... ... : ... .. . ... ... ... : ... .. . ...
ROW 42 : ... .. . ... ... ... : ... .. . ... ... ... : ... .. . ... : ... .. . ... : ... .. . ... : ... .. . ... ... : ... .. . ... ... ... : ... .. . ...
ROW 43 : ... .. . ... ... ... : ... .. . ... ... ... : ... .. . ... : ... .. . ... : ... .. . FD4 : ... .. . ... ... : ... .. . ... ... ... : ... .. . ...
ROW 44 : ... .. . ... ... ... : ... .. . ... ... ... : B-2 08 . ... : D-# 01 . ... : ... .. . F96 : ... .. . ... ... : ... .. . ... ... ... : B-0 05 D ...
ROW 45 : ... .. . ... ... ... : ... .. . ... ... ... : ... .. . ... : ... .. . ... : ... .. . ... : ... .. . ... ... : ... .. . ... ... ... : B-1 05 . ...
ROW 46 : ... .. . ... ... ... : ... .. . ... ... ... : ... .. . ... : ... .. . ... : ... .. . ... : ... .. . ... ... : ... .. . ... ... ... : ... .. . ...
ROW 47 : ... .. . ... ... ... : ... .. . ... ... ... : ... .. . ... : ... .. . ... : ... .. . FD4 : ... .. . ... ... : ... .. . ... ... ... : ... .. . ...
ROW 48 : ... .. . ... ... ... : ... .. . ... ... ... : B-2 08 . ... : D-# 01 . ... : ... .. . F96 : ... .. . ... ... : ... .. . ... ... ... : B-0 05 . ...
ROW 49 : ... .. . ... ... ... : ... .. . ... ... ... : ... .. . ... : ... .. . ... : ... .. . ... : ... .. . ... ... : ... .. . ... ... ... : B-1 05 . ...
ROW 4A : ... .. . ... ... ... : ... .. . ... ... ... : ... .. . ... : ... .. . ... : ... .. . ... : ... .. . ... ... : ... .. . ... ... ... : ... .. . ...
ROW 4B : ... .. . ... ... ... : ... .. . ... ... ... : ... .. . ... : ... .. . ... : ... .. . FD4 : ... .. . ... ... : ... .. . ... ... ... : ... .. . ...
ROW 4C : ... .. . ... ... ... : ... .. . ... ... ... : ... .. . ... : D-# 01 . ... : ... .. . F96 : ... .. E ... ... : ... .. E ... ... ... : B-1 05 7 ...
ROW 4D : ... .. . ... ... ... : ... .. . ... ... ... : ... .. . ... : ... .. . ... : ... .. . ... : ... .. . ... ... : ... .. . ... ... ... : ... .. . ...
ROW 4E : ... .. . ... ... ... : ... .. . ... ... ... : ... .. . ... : ... .. . ... : ... .. . ... : ... .. . ... ... : ... .. . ... ... ... : ... .. . ...
ROW 4F : ... .. . ... ... ... : ... .. . ... ... ... : ... .. . ... : ... .. . ... : ... .. . FD4 : ... .. . ... ... : ... .. . ... ... ... : ... .. . ...
ROW 50 : ... .. . ... ... ... : ... .. . ... ... ... : B-2 08 . ... : D-# 01 . ... : ... .. . F96 : ... .. . ... ... : ... .. . ... ... ... : B-0 05 D ...
ROW 51 : ... .. . ... ... ... : ... .. . ... ... ... : ... .. . ... : ... .. . ... : ... .. . ... : ... .. . ... ... : ... .. . ... ... ... : B-1 05 . ...
ROW 52 : ... .. . ... ... ... : ... .. . ... ... ... : ... .. . ... : ... .. . ... : ... .. . ... : ... .. . ... ... : ... .. . ... ... ... : ... .. . ...
ROW 53 : ... .. . ... ... ... : ... .. . ... ... ... : ... .. . ... : ... .. . ... : ... .. . FD4 : ... .. . ... ... : ... .. . ... ... ... : ... .. . ...
ROW 54 : ... .. . ... ... ... : ... .. . ... ... ... : B-3 08 . ... : 8-# 03 . ... : F-3 00 . F96 : ... .. D V02 ... : ... .. D V02 ... ... : B-0 05 . ...
ROW 55 : ... .. . ... ... ... : ... .. . ... ... ... : ... .. . ... : ... .. . ... : ... .. . ... : ... .. . ... ... : ... .. . ... ... ... : B-1 05 . ...
ROW 56 : ... .. . ... ... ... : ... .. . ... ... ... : ... .. . ... : ... .. . ... : ... .. . ... : ... .. . ... ... : ... .. . ... ... ... : ... .. . ...
ROW 57 : ... .. . ... ... ... : ... .. . ... ... ... : ... .. . ... : ... .. . ... : ... .. . FD4 : ... .. . ... ... : ... .. . ... ... ... : ... .. . ...
ROW 58 : ... .. . ... ... ... : ... .. E ... ... ... : B-2 08 . ... : D-# 01 . ... : ... .. . F96 : ... .. . ... ... : ... .. . ... ... ... : B-1 05 7 ...
ROW 59 : ... .. . ... ... ... : ... .. . ... ... ... : ... .. . ... : ... .. . ... : ... .. . ... : ... .. . ... ... : ... .. . ... ... ... : ... .. . ...
ROW 5A : ... .. . ... ... ... : ... .. . ... ... ... : ... .. . ... : ... .. . ... : ... .. . ... : ... .. . ... ... : ... .. . ... ... ... : ... .. . ...
ROW 5B : ... .. . ... ... ... : ... .. . ... ... ... : ... .. . ... : ... .. . ... : ... .. . FD4 : ... .. . ... ... : ... .. . ... ... ... : ... .. . ...
ROW 5C : ... .. . ... ... ... : ... .. . ... ... ... : B-3 08 . ... : D-# 02 . ... : ... .. . F96 : ... .. B V03 ... : ... .. B V03 ... ... : B-0 05 D ...
ROW 5D : ... .. . ... ... ... : ... .. . ... ... ... : ... .. . ... : ... .. . ... : ... .. . ... : ... .. . ... ... : ... .. . ... ... ... : B-1 05 . ...
ROW 5E : ... .. . ... ... ... : ... .. . ... ... ... : ... .. . ... : ... .. . ... : ... .. . ... : ... .. . ... ... : ... .. . ... ... ... : ... .. . ...
ROW 5F : ... .. 1 ... ... ... : ... .. . ... ... ... : ... .. . ... : ... .. . ... : ... .. . FD4 : ... .. . ... ... : ... .. . ... ... ... : ... .. . ...

PATTERN 07
ROW 00 : F#3 00 2 400 ... ... : ... .. . ... ... ... : B-2 08 . ... : D-# 01 . ... : ... .. . F96 : B-3 06 F V04 400 : F#3 06 F V04 ... ... : B-0 05 D ...
ROW 01 : ... .. . ... ... ... : ... .. . ... ... ... : ... .. . ... : ... .. . ... : ... .. . ... : ... .. . V01 ... : ... .. . V01 ... ... : B-1 05 . ...
ROW 02 : ... .. . ... ... ... : ... .. . ... ... ... : ... .. . ... : ... .. . ... : ... .. . ... : ... .. . ... ... : ... .. . ... ... ... : ... .. . ...
ROW 03 : ... .. . ... ... ... : ... .. . ... ... ... : ... .. . ... : ... .. . ... : ... .. . FD4 : ... .. . ... ... : ... .. . ... ... ... : ... .. . ...
ROW 04 : ... .. . ... ... ... : ... .. . ... ... ... : ... .. . ... : D-# 01 . ... : ... .. . F96 : ... .. . ... ... : ... .. . ... ... ... : B-1 05 7 ...
ROW 05 : ... .. . ... ... ... : ... .. . ... ... ... : ... .. . ... : ... .. . ... : ... .. . ... : ... .. . ... ... : ... .. . ... ... ... : ... .. . ...
ROW 06 : ... .. . ... ... ... : ... .. . ... ... ... : ... .. . ... : ... .. . ... : ... .. . ... : ... .. . ... ... : ... .. . ... ... ... : ... .. . ...
ROW 07 : ... .. . ... ... ... : ... .. . ... ... ... : ... .. . ... : ... .. . ... : ... .. . FD4 : ... .. . ... ... : ... .. . ... ... ... : ... .. . ...
ROW 08 : ... .. . 482 ... ... : B-3 07 F V01 400 ... : B-2 08 . ... : D-# 01 . ... : ... .. . F96 : ... .. . ... 464 : ... .. . ... 474 ... : B-0 05 D ...
ROW 09 : ... .. . ... ... ... : ... .. . V00 ... ... : ... .. . ... : ... .. . ... : ... .. . ... : ... .. . ... ... : ... .. . ... ... ... : B-1 05 . ...
ROW 0A : ... .. . ... ... ... : ... .. . ... ... ... : ... .. . ... : ... .. . ... : ... .. . ... : ... .. . ... ... : ... .. . ... ... ... : ... .. . ...
ROW 0B : ... .. . ... ... ... : ... .. . ... ... ... : ... .. . ... : ... .. . ... : ... .. . FD4 : ... .. . ... ... : ... .. . ... ... ... : ... .. . ...
ROW 0C : ... .. . ... ... ... : ... .. . ... ... ... : B-2 08 . ... : A-# 03 . ... : D#3 00 . F96 : ... .. . ... ... : ... .. . ... ... ... : B-0 05 . ...
ROW 0D : ... .. . ... ... ... : ... .. . ... ... ... : ... .. . ... : ... .. . ... : ... .. . ... : ... .. . ... ... : ... .. . ... ... ... : B-1 05 . ...
ROW 0E : ... .. . ... ... ... : ... .. . ... ... ... : ... .. . ... : ... .. . ... : ... .. . ... : ... .. . ... ... : ... .. . ... ... ... : ... .. . ...
ROW 0F : ... .. . ... ... ... : ... .. . ... ... ... : ... .. . ... : ... .. . ... : ... .. . FD4 : ... .. . ... ... : ... .. . ... ... ... : ... .. . ...
ROW 10 : ... .. . ... ... ... : ... .. . ... 444 ... : ... .. . ... : D-# 01 . ... : ... .. . F96 : ... .. . ... ... : ... .. . ... ... ... : B-1 05 7 ...
ROW 11 : ... .. . ... ... ... : ... .. . ... ... ... : ... .. . ... : ... .. . ... : ... .. . ... : ... .. . ... ... : ... .. . ... ... ... : ... .. . ...
ROW 12 : ... .. . ... ... ... : ... .. . ... ... ... : ... .. . ... : ... .. . ... : ... .. . ... : ... .. . ... ... : ... .. . ... ... ... : ... .. . ...
ROW 13 : ... .. . ... ... ... : ... .. . ... ... ... : ... .. . ... : ... .. . ... : ... .. . FD4 : ... .. . ... ... : ... .. . ... ... ... : ... .. . ...
ROW 14 : ... .. . ... ... ... : ... .. . ... ... ... : B-2 08 . ... : D-# 01 . ... : ... .. . F96 : ... .. . ... ... : ... .. . ... ... ... : B-0 05 D ...
ROW 15 : ... .. . ... ... ... : ... .. . ... ... ... : ... .. . ... : ... .. . ... : ... .. . ... : ... .. . ... ... : ... .. . ... ... ... : B-1 05 . ...
ROW 16 : ... .. . ... ... ... : ... .. . ... ... ... : ... .. . ... : ... .. . ... : ... .. . ... : ... .. . ... ... : ... .. . ... ... ... : ... .. . ...
ROW 17 : ... .. . ... ... ... : ... .. . ... ... ... : ... .. . ... : ... .. . ... : ... .. . FD4 : ... .. . ... ... : ... .. . ... ... ... : ... .. . ...
ROW 18 : ... .. . ... ... ... : ... .. . ... ... ... : B-2 08 . ... : D-# 01 . ... : ... .. . F96 : ... .. . ... ... : ... .. . ... ... ... : B-0 05 . ...
ROW 19 : ... .. . ... ... ... : ... .. . ... ... ... : ... .. . ... : ... .. . ... : ... .. . ... : ... .. . ... ... : ... .. . ... ... ... : B-1 05 . ...
ROW 1A : ... .. . ... ... ... : ... .. . ... ... ... : ... .. . ... : ... .. . ... : ... .. . ... : ... .. . ... ... : ... .. . ... ... ... : ... .. . ...
ROW 1B : ... .. . ... ... ... : ... .. . ... ... ... : ... .. . ... : ... .. . ... : ... .. . FD4 : ... .. . ... ... : ... .. . ... ... ... : ... .. . ...
ROW 1C : ... .. . ... ... ... : ... .. . ... ... ... : ... .. . ... : D-# 01 . ... : ... .. . F96 : ... .. E ... ... : ... .. E ... ... ... : B-1 05 7 ...
ROW 1D : ... .. . ... ... ... : ... .. . ... ... ... : ... .. . ... : ... .. . ... : ... .. . ... : ... .. . ... ... : ... .. . ... ... ... : ... .. . ...
ROW 1E : ... .. . ... ... ... : ... .. . ... ... ... : ... .. . ... : ... .. . ... : ... .. . ... : ... .. . ... ... : ... .. . ... ... ... : ... .. . ...
ROW 1F : ... .. . ... ... ... : ... .. . ... ... ... : ... .. . ... : ... .. . ... : ... .. . FD4 : ... .. . ... ... : ... .. . ... ... ... : ... .. . ...
ROW 20 : ... .. . ... ... ... : ... .. . ... ... ... : B-2 08 . ... : D-# 01 . ... : ... .. . F96 : ... .. . ... ... : ... .. . ... ... ... : B-0 05 D ...
ROW 21 : ... .. . ... ... ... : ... .. . ... ... ... : ... .. . ... : ... .. . ... : ... .. . ... : ... .. . ... ... : ... .. . ... ... ... : B-1 05 . ...
ROW 22 : ... .. . ... ... ... : ... .. . ... ... ... : ... .. . ... : ... .. . ... : ... .. . ... : ... .. . ... ... : ... .. . ... ... ... : ... .. . ...
ROW 23 : ... .. . ... ... ... : ... .. . ... ... ... : ... .. . ... : ... .. . ... : ... .. . FD4 : ... .. . ... ... : ... .. . ... ... ... : ... .. . ...
ROW 24 : ... .. . ... ... ... : ... .. . ... ... ... : B-2 08 . ... : 8-# 03 . ... : F-3 00 . F96 : ... .. D V02 ... : ... .. D V02 ... ... : B-0 05 . ...
ROW 25 : ... .. . ... ... ... : ... .. . ... ... ... : ... .. . ... : ... .. . ... : ... .. . ... : ... .. . ... ... : ... .. . ... ... ... : B-1 05 . ...
ROW 26 : ... .. . ... ... ... : ... .. . ... ... ... : ... .. . ... : ... .. . ... : ... .. . ... : ... .. . ... ... : ... .. . ... ... ... : ... .. . ...
ROW 27 : ... .. . ... ... ... : ... .. . ... ... ... : ... .. . ... : ... .. . ... : ... .. . FD4 : ... .. . ... ... : ... .. . ... ... ... : ... .. . ...
ROW 28 : ... .. . ... ... ... : ... .. E ... ... ... : ... .. . ... : D-# 01 . ... : ... .. . F96 : ... .. . ... ... : ... .. . ... ... ... : B-1 05 7 ...
ROW 29 : ... .. . ... ... ... : ... .. . ... ... ... : ... .. . ... : ... .. . ... : ... .. . ... : ... .. . ... ... : ... .. . ... ... ... : ... .. . ...
ROW 2A : ... .. . ... ... ... : ... .. . ... ... ... : ... .. . ... : ... .. . ... : ... .. . ... : ... .. . ... ... : ... .. . ... ... ... : ... .. . ...
ROW 2B : ... .. . ... ... ... : ... .. . ... ... ... : ... .. . ... : ... .. . ... : ... .. . FD4 : ... .. . ... ... : ... .. . ... ... ... : ... .. . ...
ROW 2C : ... .. . ... ... ... : ... .. . ... ... ... : B-2 08 . ... : D-# 02 . ... : ... .. . F96 : ... .. B V03 ... : ... .. B V03 ... ... : B-0 05 D ...
ROW 2D : ... .. . ... ... ... : ... .. . ... ... ... : ... .. . ... : ... .. . ... : ... .. . ... : ... .. . ... ... : ... .. . ... ... ... : B-1 05 . ...
ROW 2E : ... .. . ... ... ... : ... .. . ... ... ... : ... .. . ... : ... .. . ... : ... .. . ... : ... .. . ... ... : ... .. . ... ... ... : ... .. . ...
ROW 2F : ... .. 1 ... ... ... : ... .. . ... ... ... : ... .. . ... : ... .. . ... : ... .. . FD4 : ... .. . ... ... : ... .. . ... ... ... : ... .. . ...
ROW 30 : A-3 00 2 400 ... ... : ... .. . ... ... ... : B-2 08 . ... : D-# 01 . ... : ... .. . F96 : D-4 06 F V04 400 : A-3 06 F V04 400 ... : B-0 05 . ...
ROW 31 : ... .. . ... ... ... : ... .. . ... ... ... : ... .. . ... : ... .. . ... : ... .. . ... : ... .. . V01 ... : ... .. . V01 ... ... : B-1 05 . ...
ROW 32 : ... .. . ... ... ... : ... .. . ... ... ... : ... .. . ... : ... .. . ... : ... .. . ... : ... .. . ... ... : ... .. . ... ... ... : ... .. . ...
ROW 33 : ... .. . ... ... ... : ... .. . ... ... ... : ... .. . ... : ... .. . ... : ... .. . FD4 : ... .. . ... ... : ... .. . ... ... ... : ... .. . ...
ROW 34 : ... .. . ... ... ... : ... .. . ... ... ... : ... .. . ... : D-# 01 . ... : ... .. . F96 : ... .. . ... ... : ... .. . ... ... ... : B-1 05 7 ...
ROW 35 : ... .. . ... ... ... : ... .. . ... ... ... : ... .. . ... : ... .. . ... : ... .. . ... : ... .. . ... ... : ... .. . ... ... ... : ... .. . ...
ROW 36 : ... .. . ... ... ... : ... .. . ... ... ... : ... .. . ... : ... .. . ... : ... .. . ... : ... .. . ... ... : ... .. . ... ... ... : ... .. . ...
ROW 37 : ... .. . ... ... ... : ... .. . ... ... ... : ... .. . ... : ... .. . ... : ... .. . FD4 : ... .. . ... ... : ... .. . ... ... ... : ... .. . ...
ROW 38 : ... .. . 482 ... ... : D-4 07 F V01 400 ... : B-2 08 . ... : D-# 01 . ... : ... .. . F96 : ... .. . ... 464 : ... .. . ... 474 ... : B-0 05 D ...
ROW 39 : ... .. . ... ... ... : ... .. . V00 ... ... : ... .. . ... : ... .. . ... : ... .. . ... : ... .. . ... ... : ... .. . ... ... ... : B-1 05 . ...
ROW 3A : ... .. . ... ... ... : ... .. . ... ... ... : ... .. . ... : ... .. . ... : ... .. . ... : ... .. . ... ... : ... .. . ... ... ... : ... .. . ...
ROW 3B : ... .. . ... ... ... : ... .. . ... ... ... : ... .. . ... : ... .. . ... : ... .. . FD4 : ... .. . ... ... : ... .. . ... ... ... : ... .. . ...
ROW 3C : ... .. . ... ... ... : ... .. . ... ... ... : B-2 08 . ... : A-# 03 . ... : D#3 00 . F96 : ... .. . ... ... : ... .. . ... ... ... : B-0 05 . ...
ROW 3D : ... .. . ... ... ... : ... .. . ... ... ... : ... .. . ... : ... .. . ... : ... .. . ... : ... .. . ... ... : ... .. . ... ... ... : B-1 05 . ...
ROW 3E : ... .. . ... ... ... : ... .. . ... ... ... : ... .. . ... : ... .. . ... : ... .. . ... : ... .. . ... ... : ... .. . ... ... ... : ... .. . ...
ROW 3F : ... .. . ... ... ... : ... .. . ... ... ... : ... .. . ... : ... .. . ... : ... .. . FD4 : ... .. . ... ... : ... .. . ... ... ... : ... .. . ...
ROW 40 : ... .. . ... ... ... : ... .. . ... 444 ... : ... .. . ... : D-# 01 . ... : ... .. . F96 : ... .. . ... ... : ... .. . ... ... ... : B-1 05 7 ...
ROW 41 : ... .. . ... ... ... : ... .. . ... ... ... : ... .. . ... : ... .. . ... : ... .. . ... : ... .. . ... ... : ... .. . ... ... ... : ... .. . ...
ROW 42 : ... .. . ... ... ... : ... .. . ... ... ... : ... .. . ... : ... .. . ... : ... .. . ... : ... .. . ... ... : ... .. . ... ... ... : ... .. . ...
ROW 43 : ... .. . ... ... ... : ... .. . ... ... ... : ... .. . ... : ... .. . ... : ... .. . FD4 : ... .. . ... ... : ... .. . ... ... ... : ... .. . ...
ROW 44 : ... .. . ... ... ... : ... .. . ... ... ... : B-2 08 . ... : D-# 01 . ... : ... .. . F96 : ... .. . ... ... : ... .. . ... ... ... : B-0 05 D ...
ROW 45 : ... .. . ... ... ... : ... .. . ... ... ... : ... .. . ... : ... .. . ... : ... .. . ... : ... .. . ... ... : ... .. . ... ... ... : B-1 05 . ...
ROW 46 : ... .. . ... ... ... : ... .. . ... ... ... : ... .. . ... : ... .. . ... : ... .. . ... : ... .. . ... ... : ... .. . ... ... ... : ... .. . ...
ROW 47 : ... .. . ... ... ... : ... .. . ... ... ... : ... .. . ... : ... .. . ... : ... .. . FD4 : ... .. . ... ... : ... .. . ... ... ... : ... .. . ...
ROW 48 : ... .. . ... ... ... : ... .. . ... ... ... : B-2 08 . ... : D-# 01 . ... : ... .. . F96 : ... .. . ... ... : ... .. . ... ... ... : B-0 05 . ...
ROW 49 : ... .. . ... ... ... : ... .. . ... ... ... : ... .. . ... : ... .. . ... : ... .. . ... : ... .. . ... ... : ... .. . ... ... ... : B-1 05 . ...
ROW 4A : ... .. . ... ... ... : ... .. . ... ... ... : ... .. . ... : ... .. . ... : ... .. . ... : ... .. . ... ... : ... .. . ... ... ... : ... .. . ...
ROW 4B : ... .. . ... ... ... : ... .. . ... ... ... : ... .. . ... : ... .. . ... : ... .. . FD4 : ... .. . ... ... : ... .. . ... ... ... : ... .. . ...
ROW 4C : ... .. . ... ... ... : ... .. . ... ... ... : ... .. . ... : D-# 01 . ... : ... .. . F96 : ... .. E ... ... : ... .. E ... ... ... : B-1 05 7 ...
ROW 4D : ... .. . ... ... ... : ... .. . ... ... ... : ... .. . ... : ... .. . ... : ... .. . ... : ... .. . ... ... : ... .. . ... ... ... : ... .. . ...
ROW 4E : ... .. . ... ... ... : ... .. . ... ... ... : ... .. . ... : ... .. . ... : ... .. . ... : ... .. . ... ... : ... .. . ... ... ... : ... .. . ...
ROW 4F : ... .. . ... ... ... : ... .. . ... ... ... : ... .. . ... : ... .. . ... : ... .. . FD4 : ... .. . ... ... : ... .. . ... ... ... : ... .. . ...
ROW 50 : ... .. . ... ... ... : ... .. . ... ... ... : B-2 08 . ... : D-# 01 . ... : ... .. . F96 : ... .. . ... ... : ... .. . ... ... ... : B-0 05 D ...
ROW 51 : ... .. . ... ... ... : ... .. . ... ... ... : ... .. . ... : ... .. . ... : ... .. . ... : ... .. . ... ... : ... .. . ... ... ... : B-1 05 . ...
ROW 52 : ... .. . ... ... ... : ... .. . ... ... ... : ... .. . ... : ... .. . ... : ... .. . ... : ... .. . ... ... : ... .. . ... ... ... : ... .. . ...
ROW 53 : ... .. . ... ... ... : ... .. . ... ... ... : ... .. . ... : ... .. . ... : ... .. . FD4 : ... .. . ... ... : ... .. . ... ... ... : ... .. . ...
ROW 54 : ... .. . ... ... ... : ... .. . ... ... ... : B-3 08 . ... : 8-# 03 . ... : F-3 00 . F96 : ... .. D V02 ... : ... .. D V02 ... ... : B-0 05 . ...
ROW 55 : ... .. . ... ... ... : ... .. . ... ... ... : ... .. . ... : ... .. . ... : ... .. . ... : ... .. . ... ... : ... .. . ... ... ... : B-1 05 . ...
ROW 56 : ... .. . ... ... ... : ... .. . ... ... ... : ... .. . ... : ... .. . ... : ... .. . ... : ... .. . ... ... : ... .. . ... ... ... : ... .. . ...
ROW 57 : ... .. . ... ... ... : ... .. . ... ... ... : ... .. . ... : ... .. . ... : ... .. . FD4 : ... .. . ... ... : ... .. . ... ... ... : ... .. . ...
ROW 58 : ... .. . ... ... ... : ... .. E ... ... ... : B-2 08 . ... : D-# 01 . ... : ... .. . F96 : ... .. . ... ... : ... .. . ... ... ... : B-1 05 7 ...
ROW 59 : ... .. . ... ... ... : ... .. . ... ... ... : ... .. . ... : ... .. . ... : ... .. . ... : ... .. . ... ... : ... .. . ... ... ... : ... .. . ...
ROW 5A : ... .. . ... ... ... : ... .. . ... ... ... : ... .. . ... : ... .. . ... : ... .. . ... : ... .. . ... ... : ... .. . ... ... ... : ... .. . ...
ROW 5B : ... .. . ... ... ... : ... .. . ... ... ... : ... .. . ... : ... .. . ... : ... .. . FD4 : ... .. . ... ... : ... .. . ... ... ... : ... .. . ...
ROW 5C : ... .. . ... ... ... : ... .. . ... ... ... : B-3 08 . ... : D-# 02 . ... : ... .. . F96 : ... .. B V03 ... : ... .. B V03 ... ... : B-0 05 D ...
ROW 5D : ... .. . ... ... ... : ... .. . ... ... ... : ... .. . ... : ... .. . ... : ... .. . ... : ... .. . ... ... : ... .. . ... ... ... : B-1 05 . ...
ROW 5E : ... .. . ... ... ... : ... .. . ... ... ... : ... .. . ... : ... .. . ... : ... .. . ... : ... .. . ... ... : ... .. . ... ... ... : ... .. . ...
ROW 5F : ... .. 1 ... ... ... : ... .. . ... ... ... : ... .. . ... : ... .. . ... : ... .. . FD4 : ... .. . ... ... : ... .. . ... ... ... : ... .. . ...

PATTERN 08
ROW 00 : G#3 00 2 400 ... ... : ... .. . ... ... ... : B-2 08 . ... : D-# 01 . ... : ... .. . F96 : C#4 06 F V04 400 : G#3 06 F V04 ... ... : B-0 05 D ...
ROW 01 : ... .. . ... ... ... : ... .. . ... ... ... : ... .. . ... : ... .. . ... : ... .. . ... : ... .. . V01 ... : ... .. . V01 ... ... : B-1 05 . ...
ROW 02 : ... .. . ... ... ... : ... .. . ... ... ... : ... .. . ... : ... .. . ... : ... .. . ... : ... .. . ... ... : ... .. . ... ... ... : ... .. . ...
ROW 03 : ... .. . ... ... ... : ... .. . ... ... ... : ... .. . ... : ... .. . ... : ... .. . FD4 : ... .. . ... ... : ... .. . ... ... ... : ... .. . ...
ROW 04 : ... .. . ... ... ... : ... .. . ... ... ... : ... .. . ... : D-# 01 . ... : ... .. . F96 : ... .. . ... ... : ... .. . ... ... ... : B-1 05 7 ...
ROW 05 : ... .. . ... ... ... : ... .. . ... ... ... : ... .. . ... : ... .. . ... : ... .. . ... : ... .. . ... ... : ... .. . ... ... ... : ... .. . ...
ROW 06 : ... .. . ... ... ... : ... .. . ... ... ... : ... .. . ... : ... .. . ... : ... .. . ... : ... .. . ... ... : ... .. . ... ... ... : ... .. . ...
ROW 07 : ... .. . ... ... ... : ... .. . ... ... ... : ... .. . ... : ... .. . ... : ... .. . FD4 : ... .. . ... ... : ... .. . ... ... ... : ... .. . ...
ROW 08 : ... .. . 482 ... ... : C#4 07 F V01 400 ... : B-2 08 . ... : D-# 01 . ... : ... .. . F96 : ... .. . ... 464 : ... .. . ... 474 ... : B-0 05 D ...
ROW 09 : ... .. . ... ... ... : ... .. . V00 ... ... : ... .. . ... : ... .. . ... : ... .. . ... : ... .. . ... ... : ... .. . ... ... ... : B-1 05 . ...
ROW 0A : ... .. . ... ... ... : ... .. . ... ... ... : ... .. . ... : ... .. . ... : ... .. . ... : ... .. . ... ... : ... .. . ... ... ... : ... .. . ...
ROW 0B : ... .. . ... ... ... : ... .. . ... ... ... : ... .. . ... : ... .. . ... : ... .. . FD4 : ... .. . ... ... : ... .. . ... ... ... : ... .. . ...
ROW 0C : ... .. . ... ... ... : ... .. . ... ... ... : B-2 08 . ... : A-# 03 . ... : D#3 00 . F96 : ... .. . ... ... : ... .. . ... ... ... : B-0 05 . ...
ROW 0D : ... .. . ... ... ... : ... .. . ... ... ... : ... .. . ... : ... .. . ... : ... .. . ... : ... .. . ... ... : ... .. . ... ... ... : B-1 05 . ...
ROW 0E : ... .. . ... ... ... : ... .. . ... ... ... : ... .. . ... : ... .. . ... : ... .. . ... : ... .. . ... ... : ... .. . ... ... ... : ... .. . ...
ROW 0F : ... .. . ... ... ... : ... .. . ... ... ... : ... .. . ... : ... .. . ... : ... .. . FD4 : ... .. . ... ... : ... .. . ... ... ... : ... .. . ...
ROW 10 : ... .. . ... ... ... : ... .. . ... 444 ... : ... .. . ... : D-# 01 . ... : ... .. . F96 : ... .. . ... ... : ... .. . ... ... ... : B-1 05 7 ...
ROW 11 : ... .. . ... ... ... : ... .. . ... ... ... : ... .. . ... : ... .. . ... : ... .. . ... : ... .. . ... ... : ... .. . ... ... ... : ... .. . ...
ROW 12 : ... .. . ... ... ... : ... .. . ... ... ... : ... .. . ... : ... .. . ... : ... .. . ... : ... .. . ... ... : ... .. . ... ... ... : ... .. . ...
ROW 13 : ... .. . ... ... ... : ... .. . ... ... ... : ... .. . ... : ... .. . ... : ... .. . FD4 : ... .. . ... ... : ... .. . ... ... ... : ... .. . ...
ROW 14 : ... .. . ... ... ... : ... .. . ... ... ... : B-2 08 . ... : D-# 01 . ... : ... .. . F96 : ... .. . ... ... : ... .. . ... ... ... : B-0 05 D ...
ROW 15 : ... .. . ... ... ... : ... .. . ... ... ... : ... .. . ... : ... .. . ... : ... .. . ... : ... .. . ... ... : ... .. . ... ... ... : B-1 05 . ...
ROW 16 : ... .. . ... ... ... : ... .. . ... ... ... : ... .. . ... : ... .. . ... : ... .. . ... : ... .. . ... ... : ... .. . ... ... ... : ... .. . ...
ROW 17 : ... .. . ... ... ... : ... .. . ... ... ... : ... .. . ... : ... .. . ... : ... .. . FD4 : ... .. . ... ... : ... .. . ... ... ... : ... .. . ...
ROW 18 : ... .. . ... ... ... : ... .. . ... ... ... : B-2 08 . ... : D-# 01 . ... : ... .. . F96 : ... .. . ... ... : ... .. . ... ... ... : B-0 05 . ...
ROW 19 : ... .. . ... ... ... : ... .. . ... ... ... : ... .. . ... : ... .. . ... : ... .. . ... : ... .. . ... ... : ... .. . ... ... ... : B-1 05 . ...
ROW 1A : ... .. . ... ... ... : ... .. . ... ... ... : ... .. . ... : ... .. . ... : ... .. . ... : ... .. . ... ... : ... .. . ... ... ... : ... .. . ...
ROW 1B : ... .. . ... ... ... : ... .. . ... ... ... : ... .. . ... : ... .. . ... : ... .. . FD4 : ... .. . ... ... : ... .. . ... ... ... : ... .. . ...
ROW 1C : ... .. . ... ... ... : ... .. . ... ... ... : ... .. . ... : D-# 01 . ... : ... .. . F96 : ... .. E ... ... : ... .. E ... ... ... : B-1 05 7 ...
ROW 1D : ... .. . ... ... ... : ... .. . ... ... ... : ... .. . ... : ... .. . ... : ... .. . ... : ... .. . ... ... : ... .. . ... ... ... : ... .. . ...
ROW 1E : ... .. . ... ... ... : ... .. . ... ... ... : ... .. . ... : ... .. . ... : ... .. . ... : ... .. . ... ... : ... .. . ... ... ... : ... .. . ...
ROW 1F : ... .. . ... ... ... : ... .. . ... ... ... : ... .. . ... : ... .. . ... : ... .. . FD4 : ... .. . ... ... : ... .. . ... ... ... : ... .. . ...
ROW 20 : ... .. . ... ... ... : ... .. . ... ... ... : B-2 08 . ... : D-# 01 . ... : ... .. . F96 : ... .. . ... ... : ... .. . ... ... ... : B-0 05 D ...
ROW 21 : ... .. . ... ... ... : ... .. . ... ... ... : ... .. . ... : ... .. . ... : ... .. . ... : ... .. . ... ... : ... .. . ... ... ... : B-1 05 . ...
ROW 22 : ... .. . ... ... ... : ... .. . ... ... ... : ... .. . ... : ... .. . ... : ... .. . ... : ... .. . ... ... : ... .. . ... ... ... : ... .. . ...
ROW 23 : ... .. . ... ... ... : ... .. . ... ... ... : ... .. . ... : ... .. . ... : ... .. . FD4 : ... .. . ... ... : ... .. . ... ... ... : ... .. . ...
ROW 24 : ... .. . ... ... ... : ... .. . ... ... ... : B-2 08 . ... : 8-# 03 . ... : F-3 00 . F96 : ... .. D V02 ... : ... .. D V02 ... ... : B-0 05 . ...
ROW 25 : ... .. . ... ... ... : ... .. . ... ... ... : ... .. . ... : ... .. . ... : ... .. . ... : ... .. . ... ... : ... .. . ... ... ... : B-1 05 . ...
ROW 26 : ... .. . ... ... ... : ... .. . ... ... ... : ... .. . ... : ... .. . ... : ... .. . ... : ... .. . ... ... : ... .. . ... ... ... : ... .. . ...
ROW 27 : ... .. . ... ... ... : ... .. . ... ... ... : ... .. . ... : ... .. . ... : ... .. . FD4 : ... .. . ... ... : ... .. . ... ... ... : ... .. . ...
ROW 28 : ... .. . ... ... ... : ... .. E ... ... ... : ... .. . ... : D-# 01 . ... : ... .. . F96 : ... .. . ... ... : ... .. . ... ... ... : B-1 05 7 ...
ROW 29 : ... .. . ... ... ... : ... .. . ... ... ... : ... .. . ... : ... .. . ... : ... .. . ... : ... .. . ... ... : ... .. . ... ... ... : ... .. . ...
ROW 2A : ... .. . ... ... ... : ... .. . ... ... ... : ... .. . ... : ... .. . ... : ... .. . ... : ... .. . ... ... : ... .. . ... ... ... : ... .. . ...
ROW 2B : ... .. . ... ... ... : ... .. . ... ... ... : ... .. . ... : ... .. . ... : ... .. . FD4 : ... .. . ... ... : ... .. . ... ... ... : ... .. . ...
ROW 2C : ... .. . ... ... ... : ... .. . ... ... ... : B-2 08 . ... : D-# 02 . ... : ... .. . F96 : ... .. B V03 ... : ... .. B V03 ... ... : B-0 05 D ...
ROW 2D : ... .. . ... ... ... : ... .. . ... ... ... : ... .. . ... : ... .. . ... : ... .. . ... : ... .. . ... ... : ... .. . ... ... ... : B-1 05 . ...
ROW 2E : ... .. . ... ... ... : ... .. . ... ... ... : ... .. . ... : ... .. . ... : ... .. . ... : ... .. . ... ... : ... .. . ... ... ... : ... .. . ...
ROW 2F : ... .. 1 ... ... ... : ... .. . ... ... ... : ... .. . ... : ... .. . ... : ... .. . FD4 : ... .. . ... ... : ... .. . ... ... ... : ... .. . ...
ROW 30 : G-3 00 2 400 ... ... : ... .. . ... ... ... : B-2 08 . ... : D-# 01 . ... : ... .. . F96 : C-4 06 F V04 400 : G-3 06 F V04 400 ... : B-0 05 . ...
ROW 31 : ... .. . ... ... ... : ... .. . ... ... ... : ... .. . ... : ... .. . ... : ... .. . ... : ... .. . V01 ... : ... .. . V01 ... ... : B-1 05 . ...
ROW 32 : ... .. . ... ... ... : ... .. . ... ... ... : ... .. . ... : ... .. . ... : ... .. . ... : ... .. . ... ... : ... .. . ... ... ... : ... .. . ...
ROW 33 : ... .. . ... ... ... : ... .. . ... ... ... : ... .. . ... : ... .. . ... : ... .. . FD4 : ... .. . ... ... : ... .. . ... ... ... : ... .. . ...
ROW 34 : ... .. . ... ... ... : ... .. . ... ... ... : ... .. . ... : D-# 01 . ... : ... .. . F96 : ... .. . ... ... : ... .. . ... ... ... : B-1 05 7 ...
ROW 35 : ... .. . ... ... ... : ... .. . ... ... ... : ... .. . ... : ... .. . ... : ... .. . ... : ... .. . ... ... : ... .. . ... ... ... : ... .. . ...
ROW 36 : ... .. . ... ... ... : ... .. . ... ... ... : ... .. . ... : ... .. . ... : ... .. . ... : ... .. . ... ... : ... .. . ... ... ... : ... .. . ...
ROW 37 : ... .. . ... ... ... : ... .. . ... ... ... : ... .. . ... : ... .. . ... : ... .. . FD4 : ... .. . ... ... : ... .. . ... ... ... : ... .. . ...
ROW 38 : ... .. . 482 ... ... : C-4 07 F V01 400 ... : B-2 08 . ... : D-# 01 . ... : ... .. . F96 : ... .. . ... 464 : ... .. . ... 474 ... : B-0 05 D ...
ROW 39 : ... .. . ... ... ... : ... .. . V00 ... ... : ... .. . ... : ... .. . ... : ... .. . ... : ... .. . ... ... : ... .. . ... ... ... : B-1 05 . ...
ROW 3A : ... .. . ... ... ... : ... .. . ... ... ... : ... .. . ... : ... .. . ... : ... .. . ... : ... .. . ... ... : ... .. . ... ... ... : ... .. . ...
ROW 3B : ... .. . ... ... ... : ... .. . ... ... ... : ... .. . ... : ... .. . ... : ... .. . FD4 : ... .. . ... ... : ... .. . ... ... ... : ... .. . ...
ROW 3C : ... .. . ... ... ... : ... .. . ... ... ... : B-2 08 . ... : A-# 03 . ... : D#3 00 . F96 : ... .. . ... ... : ... .. . ... ... ... : B-0 05 . ...
ROW 3D : ... .. . ... ... ... : ... .. . ... ... ... : ... .. . ... : ... .. . ... : ... .. . ... : ... .. . ... ... : ... .. . ... ... ... : B-1 05 . ...
ROW 3E : ... .. . ... ... ... : ... .. . ... ... ... : ... .. . ... : ... .. . ... : ... .. . ... : ... .. . ... ... : ... .. . ... ... ... : ... .. . ...
ROW 3F : ... .. . ... ... ... : ... .. . ... ... ... : ... .. . ... : ... .. . ... : ... .. . FD4 : ... .. . ... ... : ... .. . ... ... ... : ... .. . ...
ROW 40 : ... .. . ... ... ... : ... .. . ... 444 ... : ... .. . ... : D-# 01 . ... : ... .. . F96 : ... .. . ... ... : ... .. . ... ... ... : B-1 05 7 ...
ROW 41 : ... .. . ... ... ... : ... .. . ... ... ... : ... .. . ... : ... .. . ... : ... .. . ... : ... .. . ... ... : ... .. . ... ... ... : ... .. . ...
ROW 42 : ... .. . ... ... ... : ... .. . ... ... ... : ... .. . ... : ... .. . ... : ... .. . ... : ... .. . ... ... : ... .. . ... ... ... : ... .. . ...
ROW 43 : ... .. . ... ... ... : ... .. . ... ... ... : ... .. . ... : ... .. . ... : ... .. . FD4 : ... .. . ... ... : ... .. . ... ... ... : ... .. . ...
ROW 44 : ... .. . ... ... ... : ... .. . ... ... ... : B-2 08 . ... : D-# 01 . ... : ... .. . F96 : ... .. . ... ... : ... .. . ... ... ... : B-0 05 D ...
ROW 45 : ... .. . ... ... ... : ... .. . ... ... ... : ... .. . ... : ... .. . ... : ... .. . ... : ... .. . ... ... : ... .. . ... ... ... : B-1 05 . ...
ROW 46 : ... .. . ... ... ... : ... .. . ... ... ... : ... .. . ... : ... .. . ... : ... .. . ... : ... .. . ... ... : ... .. . ... ... ... : ... .. . ...
ROW 47 : ... .. . ... ... ... : ... .. . ... ... ... : ... .. . ... : ... .. . ... : ... .. . FD4 : ... .. . ... ... : ... .. . ... ... ... : ... .. . ...
ROW 48 : ... .. . ... ... ... : ... .. . ... ... ... : C#3 08 . ... : D-# 01 . ... : ... .. . F96 : ... .. . ... ... : ... .. . ... ... ... : C#1 05 . ...
ROW 49 : ... .. . ... ... ... : ... .. . ... ... ... : ... .. . ... : ... .. . ... : ... .. . ... : ... .. . ... ... : ... .. . ... ... ... : C#2 05 . ...
ROW 4A : ... .. . ... ... ... : ... .. . ... ... ... : ... .. . ... : ... .. . ... : ... .. . ... : ... .. . ... ... : ... .. . ... ... ... : ... .. . ...
ROW 4B : ... .. . ... ... ... : ... .. . ... ... ... : ... .. . ... : ... .. . ... : ... .. . FD4 : ... .. . ... ... : ... .. . ... ... ... : ... .. . ...
ROW 4C : ... .. . ... ... ... : ... .. . ... ... ... : ... .. . ... : D-# 01 . ... : ... .. . F96 : ... .. E ... ... : ... .. E ... ... ... : ... .. . ...
ROW 4D : ... .. . ... ... ... : ... .. . ... ... ... : ... .. . ... : ... .. . ... : ... .. . ... : ... .. . ... ... : ... .. . ... ... ... : ... .. . ...
ROW 4E : ... .. . ... ... ... : ... .. . ... ... ... : ... .. . ... : ... .. . ... : ... .. . ... : ... .. . ... ... : ... .. . ... ... ... : ... .. . ...
ROW 4F : ... .. . ... ... ... : ... .. . ... ... ... : ... .. . ... : ... .. . ... : ... .. . FD4 : ... .. . ... ... : ... .. . ... ... ... : ... .. . ...
ROW 50 : ... .. . ... ... ... : ... .. . ... ... ... : C#3 08 . ... : D-# 01 . ... : ... .. . F96 : ... .. . ... ... : ... .. . ... ... ... : C#2 05 7 ...
ROW 51 : ... .. . ... ... ... : ... .. . ... ... ... : ... .. . ... : ... .. . ... : ... .. . ... : ... .. . ... ... : ... .. . ... ... ... : ... .. . ...
ROW 52 : ... .. . ... ... ... : ... .. . ... ... ... : ... .. . ... : ... .. . ... : ... .. . ... : ... .. . ... ... : ... .. . ... ... ... : ... .. . ...
ROW 53 : ... .. . ... ... ... : ... .. . ... ... ... : ... .. . ... : ... .. . ... : ... .. . FD4 : ... .. . ... ... : ... .. . ... ... ... : ... .. . ...
ROW 54 : ... .. . ... ... ... : ... .. . ... ... ... : D-3 08 . ... : 8-# 03 . ... : F-3 00 . F96 : ... .. D V02 ... : ... .. D V02 ... ... : D-1 05 D ...
ROW 55 : ... .. . ... ... ... : ... .. . ... ... ... : ... .. . ... : ... .. . ... : ... .. . ... : ... .. . ... ... : ... .. . ... ... ... : D-2 05 . ...
ROW 56 : ... .. . ... ... ... : ... .. . ... ... ... : ... .. . ... : 8-# 03 . ... : F-3 00 . ... : ... .. . ... ... : ... .. . ... ... ... : ... .. . ...
ROW 57 : ... .. . ... ... ... : ... .. . ... ... ... : ... .. . ... : ... .. . ... : ... .. . FD4 : ... .. . ... ... : ... .. . ... ... ... : ... .. . ...
ROW 58 : ... .. . ... ... ... : ... .. E ... ... ... : ... .. . ... : 9-# 03 . ... : E-3 00 . F96 : ... .. . ... ... : ... .. . ... ... ... : ... .. . ...
ROW 59 : ... .. . ... ... ... : ... .. . ... ... ... : ... .. . ... : ... .. . ... : ... .. . ... : ... .. . ... ... : ... .. . ... ... ... : ... .. . ...
ROW 5A : ... .. . ... ... ... : ... .. . ... ... ... : ... .. . ... : 9-# 03 . ... : E-3 00 . ... : ... .. . ... ... : ... .. . ... ... ... : ... .. . ...
ROW 5B : ... .. . ... ... ... : ... .. . ... ... ... : ... .. . ... : ... .. . ... : ... .. . FD4 : ... .. . ... ... : ... .. . ... ... ... : ... .. . ...
ROW 5C : ... .. . ... ... ... : ... .. . ... ... ... : D-3 08 . ... : 7-# 03 . ... : F#3 00 . F96 : ... .. B V03 ... : ... .. B V03 ... ... : D-2 05 7 ...
ROW 5D : ... .. . ... ... ... : ... .. . ... ... ... : ... .. . ... : ... .. . ... : ... .. . ... : ... .. . ... ... : ... .. . ... ... ... : ... .. . ...
ROW 5E : ... .. . ... ... ... : ... .. . ... ... ... : ... .. . ... : 7-# 03 . ... : F#3 00 . ... : ... .. . ... ... : ... .. . ... ... ... : ... .. . ...
ROW 5F : ... .. 1 ... ... ... : ... .. . ... ... ... : ... .. . ... : ... .. . ... : ... .. . FD4 : ... .. . ... ... : ... .. . ... ... ... : ... .. . ...

PATTERN 09
ROW 00 : E-3 00 2 400 ... ... : ... .. . ... ... ... : E-3 08 . ... : 8-# 03 . ... : F-3 00 . F96 : B-3 06 F V04 400 : E-3 06 F V04 400 ... : E-1 05 D ...
ROW 01 : ... .. . ... ... ... : ... .. . ... ... ... : ... .. . ... : ... .. . ... : ... .. . ... : ... .. . V01 ... : ... .. . V01 ... ... : E-2 05 . ...
ROW 02 : ... .. . ... ... ... : ... .. . ... ... ... : ... .. . ... : ... .. . ... : ... .. . ... : ... .. . ... ... : ... .. . ... ... ... : ... .. . ...
ROW 03 : ... .. . ... ... ... : ... .. . ... ... ... : ... .. . ... : ... .. . ... : ... .. . FD4 : ... .. . ... ... : ... .. . ... ... ... : ... .. . ...
ROW 04 : ... .. . ... ... ... : ... .. . ... ... ... : ... .. . ... : ... .. . ... : ... .. . F96 : ... .. . ... ... : ... .. . ... ... ... : E-2 05 7 ...
ROW 05 : ... .. . ... ... ... : ... .. . ... ... ... : ... .. . ... : ... .. . ... : ... .. . ... : ... .. . ... ... : ... .. . ... ... ... : ... .. . ...
ROW 06 : ... .. . ... ... ... : ... .. . ... ... ... : ... .. . ... : ... .. . ... : ... .. . ... : ... .. . ... ... : ... .. . ... ... ... : ... .. . ...
ROW 07 : ... .. . ... ... ... : ... .. . ... ... ... : ... .. . ... : ... .. . ... : ... .. . FD4 : ... .. . ... ... : ... .. . ... ... ... : ... .. . ...
ROW 08 : ... .. . 482 ... ... : B-3 07 F V01 400 ... : E-3 08 . ... : 8-# 03 . ... : F-3 00 . F96 : ... .. . ... 466 : ... .. . ... 474 ... : E-1 05 D ...
ROW 09 : ... .. . ... ... ... : ... .. . V00 ... ... : ... .. . ... : ... .. . ... : ... .. . ... : ... .. . ... ... : ... .. . ... ... ... : E-2 05 . ...
ROW 0A : ... .. . ... ... ... : ... .. . ... ... ... : ... .. . ... : ... .. . ... : ... .. . ... : ... .. . ... ... : ... .. . ... ... ... : ... .. . ...
ROW 0B : ... .. . ... ... ... : ... .. . ... ... ... : ... .. . ... : ... .. . ... : ... .. . FD4 : ... .. . ... ... : ... .. . ... ... ... : ... .. . ...
ROW 0C : ... .. . ... ... ... : ... .. . ... ... ... : E-3 08 . ... : 8-# 03 . ... : F-3 00 . F96 : ... .. . ... ... : ... .. . ... ... ... : E-1 05 . ...
ROW 0D : ... .. . ... ... ... : ... .. . ... ... ... : ... .. . ... : ... .. . ... : ... .. . ... : ... .. . ... ... : ... .. . ... ... ... : E-2 05 . ...
ROW 0E : ... .. . ... ... ... : ... .. . ... ... ... : ... .. . ... : ... .. . ... : ... .. . ... : ... .. . ... ... : ... .. . ... ... ... : ... .. . ...
ROW 0F : ... .. . ... ... ... : ... .. . ... ... ... : ... .. . ... : ... .. . ... : ... .. . FD4 : ... .. . ... ... : ... .. . ... ... ... : ... .. . ...
ROW 10 : ... .. . ... ... ... : ... .. . ... 464 ... : ... .. . ... : 8-# 03 . ... : F-3 00 . F96 : ... .. . ... ... : ... .. . ... ... ... : E-2 05 7 ...
ROW 11 : ... .. . ... ... ... : ... .. . ... ... ... : ... .. . ... : ... .. . ... : ... .. . ... : ... .. . ... ... : ... .. . ... ... ... : ... .. . ...
ROW 12 : ... .. . ... ... ... : ... .. . ... ... ... : ... .. . ... : ... .. . ... : ... .. . ... : ... .. . ... ... : ... .. . ... ... ... : ... .. . ...
ROW 13 : ... .. . ... ... ... : ... .. . ... ... ... : ... .. . ... : ... .. . ... : ... .. . FD4 : ... .. . ... ... : ... .. . ... ... ... : ... .. . ...
ROW 14 : ... .. . ... ... ... : ... .. . ... ... ... : E-3 08 . ... : 8-# 03 . ... : F-3 00 . F96 : ... .. . ... ... : ... .. . ... ... ... : E-1 05 D ...
ROW 15 : ... .. . ... ... ... : ... .. . ... ... ... : ... .. . ... : ... .. . ... : ... .. . ... : ... .. . ... ... : ... .. . ... ... ... : E-2 05 . ...
ROW 16 : ... .. . ... ... ... : ... .. . ... ... ... : ... .. . ... : ... .. . ... : ... .. . ... : ... .. . ... ... : ... .. . ... ... ... : ... .. . ...
ROW 17 : ... .. . ... ... ... : ... .. . ... ... ... : ... .. . ... : ... .. . ... : ... .. . FD4 : ... .. . ... ... : ... .. . ... ... ... : ... .. . ...
ROW 18 : ... .. . ... ... ... : ... .. . ... ... ... : E-3 08 . ... : A-# 03 . ... : D#3 00 . F96 : ... .. . ... ... : ... .. . ... ... ... : E-1 05 . ...
ROW 19 : ... .. . ... ... ... : ... .. . ... ... ... : ... .. . ... : ... .. . ... : ... .. . ... : ... .. . ... ... : ... .. . ... ... ... : E-2 05 . ...
ROW 1A : ... .. . ... ... ... : ... .. . ... ... ... : ... .. . ... : ... .. . ... : ... .. . ... : ... .. . ... ... : ... .. . ... ... ... : ... .. . ...
ROW 1B : ... .. . ... ... ... : ... .. . ... ... ... : ... .. . ... : ... .. . ... : ... .. . FD4 : ... .. . ... ... : ... .. . ... ... ... : ... .. . ...
ROW 1C : ... .. . ... ... ... : ... .. . ... ... ... : ... .. . ... : ... .. . ... : ... .. . F96 : ... .. E ... ... : ... .. E ... ... ... : E-2 05 7 ...
ROW 1D : ... .. . ... ... ... : ... .. . ... ... ... : ... .. . ... : ... .. . ... : ... .. . ... : ... .. . ... ... : ... .. . ... ... ... : ... .. . ...
ROW 1E : ... .. . ... ... ... : ... .. . ... ... ... : ... .. . ... : ... .. . ... : ... .. . ... : ... .. . ... ... : ... .. . ... ... ... : ... .. . ...
ROW 1F : ... .. . ... ... ... : ... .. . ... ... ... : ... .. . ... : ... .. . ... : ... .. . FD4 : ... .. . ... ... : ... .. . ... ... ... : ... .. . ...
ROW 20 : ... .. . ... ... ... : ... .. . ... ... ... : E-3 08 . ... : ... .. . ... : ... .. . F96 : ... .. . ... ... : ... .. . ... ... ... : E-1 05 D ...
ROW 21 : ... .. . ... ... ... : ... .. . ... ... ... : ... .. . ... : ... .. . ... : ... .. . ... : ... .. . ... ... : ... .. . ... ... ... : E-2 05 . ...
ROW 22 : ... .. . ... ... ... : ... .. . ... ... ... : ... .. . ... : ... .. . ... : ... .. . ... : ... .. . ... ... : ... .. . ... ... ... : ... .. . ...
ROW 23 : ... .. . ... ... ... : ... .. . ... ... ... : ... .. . ... : ... .. . ... : ... .. . FD4 : ... .. . ... ... : ... .. . ... ... ... : ... .. . ...
ROW 24 : ... .. . ... ... ... : ... .. . ... ... ... : E-3 08 . ... : 7-# 03 . ... : F#3 00 . F96 : ... .. . ... ... : ... .. . ... ... ... : E-1 05 . ...
ROW 25 : ... .. . ... ... ... : ... .. . ... ... ... : ... .. . ... : ... .. . ... : ... .. . ... : ... .. . ... ... : ... .. . ... ... ... : E-2 05 . ...
ROW 26 : ... .. . ... ... ... : ... .. . ... ... ... : ... .. . ... : ... .. . ... : ... .. . ... : ... .. . ... ... : ... .. . ... ... ... : ... .. . ...
ROW 27 : ... .. . ... ... ... : ... .. . ... ... ... : ... .. . ... : ... .. . ... : ... .. . FD4 : ... .. . ... ... : ... .. . ... ... ... : ... .. . ...
ROW 28 : ... .. . ... ... ... : ... .. . ... ... ... : ... .. . ... : ... .. . ... : ... .. . F96 : ... .. . ... ... : ... .. . ... ... ... : E-2 05 7 ...
ROW 29 : ... .. . ... ... ... : ... .. . ... ... ... : ... .. . ... : ... .. . ... : ... .. . ... : ... .. . ... ... : ... .. . ... ... ... : ... .. . ...
ROW 2A : ... .. . ... ... ... : ... .. . ... ... ... : ... .. . ... : ... .. . ... : ... .. . ... : ... .. . ... ... : ... .. . ... ... ... : ... .. . ...
ROW 2B : ... .. . ... ... ... : ... .. . ... ... ... : ... .. . ... : ... .. . ... : ... .. . FD4 : ... .. . ... ... : ... .. . ... ... ... : ... .. . ...
ROW 2C : ... .. . ... ... ... : ... .. . ... ... ... : E-3 08 . ... : ... .. . ... : ... .. . F96 : ... .. D ... ... : ... .. D ... ... ... : E-1 05 D ...
ROW 2D : ... .. . ... ... ... : ... .. . ... ... ... : ... .. . ... : ... .. . ... : ... .. . ... : ... .. . ... ... : ... .. . ... ... ... : E-2 05 . ...
ROW 2E : ... .. . ... ... ... : ... .. . ... ... ... : ... .. . ... : ... .. . ... : ... .. . ... : ... .. . ... ... : ... .. . ... ... ... : ... .. . ...
ROW 2F : ... .. . ... ... ... : ... .. . ... ... ... : ... .. . ... : ... .. . ... : ... .. . FD4 : ... .. . ... ... : ... .. . ... ... ... : ... .. . ...
ROW 30 : ... .. . ... ... ... : ... .. E ... ... ... : E-3 08 . ... : 8-# 04 . ... : C#3 00 . F96 : ... .. . ... ... : ... .. . ... ... ... : E-1 05 . ...
ROW 31 : ... .. . ... ... ... : ... .. . ... ... ... : ... .. . ... : ... .. . ... : ... .. . ... : ... .. . ... ... : ... .. . ... ... ... : E-2 05 . ...
ROW 32 : ... .. . ... ... ... : ... .. . ... ... ... : ... .. . ... : ... .. . ... : ... .. . ... : ... .. . ... ... : ... .. . ... ... ... : ... .. . ...
ROW 33 : ... .. . ... ... ... : ... .. . ... ... ... : ... .. . ... : ... .. . ... : ... .. . FD4 : ... .. . ... ... : ... .. . ... ... ... : ... .. . ...
ROW 34 : ... .. . ... ... ... : ... .. . ... ... ... : ... .. . ... : D-# 01 . ... : ... .. . F96 : ... .. . ... ... : ... .. . ... ... ... : E-2 05 7 ...
ROW 35 : ... .. . ... ... ... : ... .. . ... ... ... : ... .. . ... : ... .. . ... : ... .. . ... : ... .. . ... ... : ... .. . ... ... ... : ... .. . ...
ROW 36 : ... .. . ... ... ... : ... .. . ... ... ... : ... .. . ... : ... .. . ... : ... .. . ... : ... .. . ... ... : ... .. . ... ... ... : ... .. . ...
ROW 37 : ... .. . ... ... ... : ... .. . ... ... ... : ... .. . ... : ... .. . ... : ... .. . FD4 : ... .. . ... ... : ... .. . ... ... ... : ... .. . ...
ROW 38 : ... .. . ... ... ... : ... .. . ... ... ... : E-3 08 . ... : D-# 02 . ... : ... .. . F96 : ... .. C ... ... : ... .. C ... ... ... : E-1 05 D ...
ROW 39 : ... .. . ... ... ... : ... .. . ... ... ... : ... .. . ... : ... .. . ... : ... .. . ... : ... .. . ... ... : ... .. . ... ... ... : E-2 05 . ...
ROW 3A : ... .. . ... ... ... : ... .. . ... ... ... : ... .. . ... : ... .. . ... : ... .. . ... : ... .. . ... ... : ... .. . ... ... ... : ... .. . ...
ROW 3B : ... .. . ... ... ... : ... .. . ... ... ... : ... .. . ... : ... .. . ... : ... .. . FD4 : ... .. . ... ... : ... .. . ... ... ... : ... .. . ...
ROW 3C : ... .. . ... ... ... : ... .. . ... ... ... : E-3 08 . ... : 8-# 04 . ... : C#3 00 . F96 : ... .. . ... ... : ... .. . ... ... ... : E-1 05 . ...
ROW 3D : ... .. . ... ... ... : ... .. . ... ... ... : ... .. . ... : ... .. . ... : ... .. . ... : ... .. . ... ... : ... .. . ... ... ... : E-2 05 . ...
ROW 3E : ... .. . ... ... ... : ... .. . ... ... ... : ... .. . ... : ... .. . ... : ... .. . ... : ... .. . ... ... : ... .. . ... ... ... : ... .. . ...
ROW 3F : ... .. . ... ... ... : ... .. . ... ... ... : ... .. . ... : ... .. . ... : ... .. . FD4 : ... .. . ... ... : ... .. . ... ... ... : ... .. . ...
ROW 40 : ... .. . ... ... ... : ... .. . ... ... ... : ... .. . ... : D-# 01 . ... : ... .. . F96 : ... .. B V02 ... : ... .. B V02 ... ... : E-2 05 7 ...
ROW 41 : ... .. . ... ... ... : ... .. . ... ... ... : ... .. . ... : ... .. . ... : ... .. . ... : ... .. . ... ... : ... .. . ... ... ... : ... .. . ...
ROW 42 : ... .. . ... ... ... : ... .. . ... ... ... : ... .. . ... : ... .. . ... : ... .. . ... : ... .. . ... ... : ... .. . ... ... ... : ... .. . ...
ROW 43 : ... .. . ... ... ... : ... .. . ... ... ... : ... .. . ... : ... .. . ... : ... .. . FD4 : ... .. . ... ... : ... .. . ... ... ... : ... .. . ...
ROW 44 : ... .. . ... ... ... : ... .. . ... ... ... : E-3 08 . ... : D-# 02 . ... : ... .. . F96 : ... .. . ... ... : ... .. . ... ... ... : E-1 05 D ...
ROW 45 : ... .. . ... ... ... : ... .. . ... ... ... : ... .. . ... : ... .. . ... : ... .. . ... : ... .. . ... ... : ... .. . ... ... ... : E-2 05 . ...
ROW 46 : ... .. . ... ... ... : ... .. . ... ... ... : ... .. . ... : ... .. . ... : ... .. . ... : ... .. . ... ... : ... .. . ... ... ... : ... .. . ...
ROW 47 : ... .. . ... ... ... : ... .. . ... ... ... : ... .. . ... : ... .. . ... : ... .. . FD4 : ... .. . ... ... : ... .. . ... ... ... : ... .. . ...
ROW 48 : ... .. . ... ... ... : ... .. . ... ... ... : E-3 08 . ... : 8-# 04 . ... : C#3 00 . F96 : ... .. A ... ... : ... .. A ... ... ... : E-1 05 . ...
ROW 49 : ... .. . ... ... ... : ... .. . ... ... ... : ... .. . ... : ... .. . ... : ... .. . ... : ... .. . ... ... : ... .. . ... ... ... : E-2 05 . ...
ROW 4A : ... .. . ... ... ... : ... .. . ... ... ... : ... .. . ... : ... .. . ... : ... .. . ... : ... .. . ... ... : ... .. . ... ... ... : ... .. . ...
ROW 4B : ... .. . ... ... ... : ... .. . ... ... ... : ... .. . ... : ... .. . ... : ... .. . FD4 : ... .. . ... ... : ... .. . ... ... ... : ... .. . ...
ROW 4C : ... .. . ... ... ... : ... .. . V01 ... ... : E-4 08 . ... : D-# 01 . ... : ... .. . F96 : ... .. . V03 ... : ... .. . V03 ... ... : E-2 05 7 ...
ROW 4D : ... .. . ... ... ... : ... .. . ... ... ... : ... .. . ... : ... .. . ... : ... .. . ... : ... .. . ... ... : ... .. . ... ... ... : ... .. . ...
ROW 4E : ... .. . ... ... ... : ... .. . ... ... ... : ... .. . ... : ... .. . ... : ... .. . ... : ... .. . ... ... : ... .. . ... ... ... : ... .. . ...
ROW 4F : ... .. . ... ... ... : ... .. . ... ... ... : ... .. . ... : ... .. . ... : ... .. . FD4 : ... .. . ... ... : ... .. . ... ... ... : ... .. . ...
ROW 50 : ... .. . ... ... ... : ... .. . ... ... ... : E-3 08 . ... : D-# 02 . ... : ... .. . F96 : ... .. 9 ... ... : ... .. 9 ... ... ... : E-1 05 D ...
ROW 51 : ... .. . ... ... ... : ... .. . ... ... ... : ... .. . ... : ... .. . ... : ... .. . ... : ... .. . ... ... : ... .. . ... ... ... : E-2 05 . ...
ROW 52 : ... .. . ... ... ... : ... .. . ... ... ... : ... .. . ... : ... .. . ... : ... .. . ... : ... .. . ... ... : ... .. . ... ... ... : ... .. . ...
ROW 53 : ... .. . ... ... ... : ... .. . ... ... ... : ... .. . ... : ... .. . ... : ... .. . FD4 : ... .. . ... ... : ... .. . ... ... ... : ... .. . ...
ROW 54 : ... .. . ... ... ... : ... .. . ... ... ... : E-4 08 . ... : 8-# 04 . ... : C#3 00 . F96 : ... .. . ... ... : ... .. . ... ... ... : E-1 05 . ...
ROW 55 : ... .. . ... ... ... : ... .. . ... ... ... : ... .. . ... : ... .. . ... : ... .. . ... : ... .. . ... ... : ... .. . ... ... ... : E-2 05 . ...
ROW 56 : ... .. . ... ... ... : ... .. . ... ... ... : ... .. . ... : ... .. . ... : ... .. . ... : ... .. . ... ... : ... .. . ... ... ... : ... .. . ...
ROW 57 : ... .. . ... ... ... : ... .. . ... ... ... : ... .. . ... : ... .. . ... : ... .. . FD4 : ... .. . ... ... : ... .. . ... ... ... : ... .. . ...
ROW 58 : ... .. . ... ... ... : ... .. . ... ... ... : E-3 08 . ... : D-# 01 . ... : ... .. . F96 : ... .. 8 V04 ... : ... .. 8 V04 ... ... : E-2 05 7 ...
ROW 59 : ... .. . ... ... ... : ... .. . ... ... ... : ... .. . ... : ... .. . ... : ... .. . ... : ... .. . ... ... : ... .. . ... ... ... : ... .. . ...
ROW 5A : ... .. . ... ... ... : ... .. . ... ... ... : ... .. . ... : ... .. . ... : ... .. . ... : ... .. . ... ... : ... .. . ... ... ... : ... .. . ...
ROW 5B : ... .. . ... ... ... : ... .. . ... ... ... : ... .. . ... : ... .. . ... : ... .. . FD4 : ... .. . ... ... : ... .. . ... ... ... : ... .. . ...
ROW 5C : ... .. . ... ... ... : ... .. 9 V02 ... ... : E-4 08 . ... : D-# 02 . ... : ... .. . F96 : ... .. . ... ... : ... .. . ... ... ... : E-1 05 D ...
ROW 5D : ... .. . ... ... ... : ... .. . ... ... ... : ... .. . ... : ... .. . ... : ... .. . ... : ... .. . ... ... : ... .. . ... ... ... : E-2 05 . ...
ROW 5E : ... .. . ... ... ... : ... .. . ... ... ... : ... .. . ... : ... .. . ... : ... .. . ... : ... .. . ... ... : ... .. . ... ... ... : ... .. . ...
ROW 5F : ... .. 1 ... ... ... : ... .. . ... ... ... : ... .. . ... : ... .. . ... : ... .. . FD4 : ... .. . ... ... : ... .. . ... ... ... : ... .. . ...

PATTERN 0A
ROW 00 : A-3 00 2 400 P81 V02 : ... .. . ... ... ... : D-2 08 . ... : 3-# 04 . ... : C-3 00 . F96 : D-4 06 D V02 400 : F-2 06 C V02 400 P80 : D-0 05 D P80
ROW 01 : ... .. . ... ... ... : ... .. . ... ... ... : ... .. . ... : ... .. . ... : ... .. . ... : ... .. . V04 ... : ... .. . V04 ... ... : D-1 05 . ...
ROW 02 : ... .. . ... ... ... : ... .. . ... ... ... : ... .. . ... : ... .. . ... : ... .. . ... : ... .. . ... ... : ... .. . ... ... ... : D-2 05 . ...
ROW 03 : ... .. . ... ... ... : ... .. . ... ... ... : ... .. . ... : ... .. . ... : ... .. . FD4 : ... .. . ... ... : ... .. . ... ... ... : ... .. . ...
ROW 04 : ... .. . ... ... ... : ... .. . ... ... ... : D-3 08 . ... : D-# 01 . ... : ... .. . F96 : ... .. . ... ... : ... .. . ... ... ... : ... .. . ...
ROW 05 : ... .. . ... ... ... : ... .. . ... ... ... : ... .. . ... : ... .. . ... : ... .. . ... : ... .. . ... ... : ... .. . ... ... ... : ... .. . ...
ROW 06 : ... .. . ... ... ... : ... .. . ... ... ... : ... .. . ... : ... .. . ... : ... .. . ... : ... .. . ... ... : ... .. . ... ... ... : ... .. . ...
ROW 07 : ... .. . ... ... ... : ... .. . ... ... ... : ... .. . ... : ... .. . ... : ... .. . FD4 : ... .. . ... ... : ... .. . ... ... ... : ... .. . ...
ROW 08 : ... .. . 482 ... ... : D-4 07 E V01 400 P7F : D-2 08 . ... : D-# 01 . ... : ... .. . F96 : ... .. . ... ... : ... .. . ... ... ... : ... .. . ...
ROW 09 : ... .. . ... ... ... : ... .. . ... ... ... : ... .. . ... : ... .. . ... : ... .. . ... : ... .. . ... ... : ... .. . ... ... ... : ... .. . ...
ROW 0A : ... .. . ... ... ... : ... .. . ... ... ... : ... .. . ... : ... .. . ... : ... .. . ... : ... .. . ... ... : ... .. . ... ... ... : ... .. . ...
ROW 0B : ... .. . ... ... ... : ... .. . ... ... ... : ... .. . ... : ... .. . ... : ... .. . FD4 : ... .. . ... ... : ... .. . ... ... ... : ... .. . ...
ROW 0C : ... .. . ... ... ... : ... .. . ... ... ... : D-3 08 . ... : 8-# 04 . ... : C#3 00 . F96 : F-4 06 . V02 ... : A-2 06 . V02 ... ... : ... .. . ...
ROW 0D : ... .. . ... ... ... : ... .. . ... ... ... : ... .. . ... : ... .. . ... : ... .. . ... : ... .. . V04 ... : ... .. . V04 ... ... : ... .. . ...
ROW 0E : ... .. . ... ... ... : ... .. . ... ... ... : ... .. . ... : ... .. . ... : ... .. . ... : ... .. . ... ... : ... .. . ... ... ... : ... .. . ...
ROW 0F : ... .. . ... ... ... : ... .. . ... ... ... : ... .. . ... : ... .. . ... : ... .. . FD4 : ... .. . ... ... : ... .. . ... ... ... : ... .. . ...
ROW 10 : ... .. . ... ... ... : ... .. . ... ... ... : D-2 08 . ... : D-# 01 . ... : ... .. . F96 : ... .. . ... ... : ... .. . ... ... ... : ... .. . ...
ROW 11 : ... .. . ... ... ... : ... .. . ... ... ... : ... .. . ... : ... .. . ... : ... .. . ... : ... .. . ... ... : ... .. . ... ... ... : ... .. . ...
ROW 12 : ... .. . ... ... ... : ... .. . ... ... ... : ... .. . ... : ... .. . ... : ... .. . ... : ... .. . ... ... : ... .. . ... ... ... : ... .. . ...
ROW 13 : ... .. . ... ... ... : ... .. . ... ... ... : ... .. . ... : ... .. . ... : ... .. . FD4 : ... .. . ... ... : ... .. . ... ... ... : ... .. . ...
ROW 14 : ... .. . ... ... ... : F-4 07 . ... ... ... : D-3 08 . ... : D-# 01 . ... : ... .. . F96 : C-4 06 . V02 ... : E-2 06 . V02 ... ... : ... .. . ...
ROW 15 : ... .. . ... ... ... : ... .. . ... ... ... : ... .. . ... : ... .. . ... : ... .. . ... : ... .. . V04 ... : ... .. . V04 ... ... : ... .. . ...
ROW 16 : ... .. . ... ... ... : ... .. . ... ... ... : ... .. . ... : ... .. . ... : ... .. . ... : ... .. . ... ... : ... .. . ... ... ... : ... .. . ...
ROW 17 : ... .. . ... ... ... : ... .. . ... ... ... : ... .. . ... : ... .. . ... : ... .. . FD4 : ... .. . ... ... : ... .. . ... ... ... : ... .. . ...
ROW 18 : ... .. . ... ... ... : ... .. . ... ... ... : D-2 08 . ... : 3-# 04 . ... : C-3 00 . F96 : ... .. . ... ... : ... .. . ... ... ... : ... .. . ...
ROW 19 : ... .. . ... ... ... : ... .. . ... ... ... : ... .. . ... : ... .. . ... : ... .. . ... : ... .. . ... ... : ... .. . ... ... ... : ... .. . ...
ROW 1A : ... .. . ... ... ... : ... .. . ... ... ... : ... .. . ... : ... .. . ... : ... .. . ... : ... .. . ... ... : ... .. . ... ... ... : ... .. . ...
ROW 1B : ... .. . ... ... ... : ... .. . ... ... ... : ... .. . ... : ... .. . ... : ... .. . FD4 : ... .. . ... ... : ... .. . ... ... ... : ... .. . ...
ROW 1C : ... .. . ... ... ... : C-4 07 . ... ... ... : D-3 08 . ... : D-# 01 . ... : ... .. . F96 : ... .. . ... ... : ... .. . ... ... ... : ... .. . ...
ROW 1D : ... .. . ... ... ... : ... .. . ... ... ... : ... .. . ... : ... .. . ... : ... .. . ... : ... .. . ... ... : ... .. . ... ... ... : ... .. . ...
ROW 1E : ... .. . ... ... ... : ... .. . ... ... ... : ... .. . ... : ... .. . ... : ... .. . ... : ... .. . ... ... : ... .. . ... ... ... : ... .. . ...
ROW 1F : ... .. . ... ... ... : ... .. . ... ... ... : ... .. . ... : ... .. . ... : ... .. . FD4 : ... .. . ... ... : ... .. . ... ... ... : ... .. . ...
ROW 20 : ... .. . ... ... ... : ... .. . ... ... ... : D-2 08 . ... : D-# 01 . ... : ... .. . F96 : D-4 06 . V02 ... : F-2 06 . V02 ... ... : ... .. . ...
ROW 21 : ... .. . ... ... ... : ... .. . ... ... ... : ... .. . ... : ... .. . ... : ... .. . ... : ... .. . V04 ... : ... .. . V04 ... ... : ... .. . ...
ROW 22 : ... .. . ... ... ... : ... .. . ... ... ... : ... .. . ... : ... .. . ... : ... .. . ... : ... .. . ... ... : ... .. . ... ... ... : ... .. . ...
ROW 23 : ... .. . ... ... ... : ... .. . ... ... ... : ... .. . ... : ... .. . ... : ... .. . FD4 : ... .. . ... ... : ... .. . ... ... ... : ... .. . ...
ROW 24 : ... .. . ... ... ... : ... .. . ... ... ... : D-3 08 . ... : 8-# 04 . ... : C#3 00 . F96 : ... .. . ... ... : ... .. . ... ... ... : ... .. . ...
ROW 25 : ... .. . ... ... ... : ... .. . ... ... ... : ... .. . ... : ... .. . ... : ... .. . ... : ... .. . ... ... : ... .. . ... ... ... : ... .. . ...
ROW 26 : ... .. . ... ... ... : ... .. . ... ... ... : ... .. . ... : ... .. . ... : ... .. . ... : ... .. . ... ... : ... .. . ... ... ... : ... .. . ...
ROW 27 : ... .. . ... ... ... : ... .. . ... ... ... : ... .. . ... : ... .. . ... : ... .. . FD4 : ... .. . ... ... : ... .. . ... ... ... : ... .. . ...
ROW 28 : ... .. . ... ... ... : D-4 07 . ... ... ... : D-2 08 . ... : D-# 01 . ... : ... .. . F96 : ... .. . ... ... : ... .. . ... ... ... : D-1 05 9 ...
ROW 29 : ... .. . ... ... ... : ... .. . ... ... ... : ... .. . ... : ... .. . ... : ... .. . ... : ... .. . ... ... : ... .. . ... ... ... : D-0 05 5 ...
ROW 2A : ... .. . ... ... ... : ... .. . ... ... ... : ... .. . ... : ... .. . ... : ... .. . ... : ... .. . ... ... : ... .. . ... ... ... : D-1 05 8 ...
ROW 2B : ... .. . ... ... ... : ... .. . ... ... ... : ... .. . ... : ... .. . ... : ... .. . FD4 : ... .. . ... ... : ... .. . ... ... ... : D-0 05 5 ...
ROW 2C : ... .. . ... ... ... : ... .. . ... ... ... : D-3 08 . ... : D-# 01 . ... : ... .. . F96 : ... .. . ... ... : ... .. . ... ... ... : D-1 05 7 ...
ROW 2D : ... .. . ... ... ... : ... .. . ... ... ... : ... .. . ... : ... .. . ... : ... .. . ... : ... .. . ... ... : ... .. . ... ... ... : D-0 05 4 ...
ROW 2E : ... .. . ... ... ... : ... .. . ... ... ... : ... .. . ... : ... .. . ... : ... .. . ... : ... .. . ... ... : ... .. . ... ... ... : D-1 05 6 ...
ROW 2F : ... .. 1 ... ... ... : ... .. . ... ... ... : ... .. . ... : ... .. . ... : ... .. . FD4 : ... .. . ... ... : ... .. . ... ... ... : D-0 05 3 ...
ROW 30 : A-3 00 2 400 ... ... : ... .. . ... ... ... : F-2 08 . ... : 3-# 04 . ... : C-3 00 . F96 : A-4 06 . V02 ... : C-3 06 . V02 ... ... : F-0 05 D ...
ROW 31 : ... .. . ... ... ... : ... .. . ... ... ... : ... .. . ... : ... .. . ... : ... .. . ... : ... .. . V04 ... : ... .. . V04 ... ... : F-1 05 . ...
ROW 32 : ... .. . ... ... ... : ... .. . ... ... ... : ... .. . ... : ... .. . ... : ... .. . ... : ... .. . ... ... : ... .. . ... ... ... : F-2 05 . ...
ROW 33 : ... .. . ... ... ... : ... .. . ... ... ... : ... .. . ... : ... .. . ... : ... .. . FD4 : ... .. . ... ... : ... .. . ... ... ... : ... .. . ...
ROW 34 : ... .. . ... ... ... : ... .. . ... ... ... : F-3 08 . ... : D-# 01 . ... : ... .. . F96 : ... .. . ... ... : ... .. . ... ... ... : ... .. . ...
ROW 35 : ... .. . ... ... ... : ... .. . ... ... ... : ... .. . ... : ... .. . ... : ... .. . ... : ... .. . ... ... : ... .. . ... ... ... : ... .. . ...
ROW 36 : ... .. . ... ... ... : ... .. . ... ... ... : ... .. . ... : ... .. . ... : ... .. . ... : ... .. . ... ... : ... .. . ... ... ... : ... .. . ...
ROW 37 : ... .. . ... ... ... : ... .. . ... ... ... : ... .. . ... : ... .. . ... : ... .. . FD4 : ... .. . ... ... : ... .. . ... ... ... : ... .. . ...
ROW 38 : ... .. . 482 ... ... : A-4 07 . ... ... ... : F-2 08 . ... : D-# 01 . ... : ... .. . F96 : A-4 06 . V02 ... : C-3 06 . V02 ... ... : ... .. . ...
ROW 39 : ... .. . ... ... ... : ... .. . ... ... ... : ... .. . ... : ... .. . ... : ... .. . ... : ... .. . V04 ... : ... .. . V04 ... ... : ... .. . ...
ROW 3A : ... .. . ... ... ... : ... .. . ... ... ... : ... .. . ... : ... .. . ... : ... .. . ... : ... .. . ... ... : ... .. . ... ... ... : ... .. . ...
ROW 3B : ... .. . ... ... ... : ... .. . ... ... ... : ... .. . ... : ... .. . ... : ... .. . FD4 : ... .. . ... ... : ... .. . ... ... ... : ... .. . ...
ROW 3C : ... .. . ... ... ... : ... .. . ... ... ... : F-3 08 . ... : 8-# 04 . ... : C#3 00 . F96 : A-4 06 . V02 ... : C-3 06 . V02 ... ... : ... .. . ...
ROW 3D : ... .. . ... ... ... : ... .. . ... ... ... : ... .. . ... : ... .. . ... : ... .. . ... : ... .. . V04 ... : ... .. . V04 ... ... : ... .. . ...
ROW 3E : ... .. . ... ... ... : ... .. . ... ... ... : ... .. . ... : ... .. . ... : ... .. . ... : ... .. . ... ... : ... .. . ... ... ... : ... .. . ...
ROW 3F : ... .. . ... ... ... : ... .. . ... ... ... : ... .. . ... : ... .. . ... : ... .. . FD4 : ... .. . ... ... : ... .. . ... ... ... : ... .. . ...
ROW 40 : ... .. . ... ... ... : A-4 07 . ... ... ... : F-2 08 . ... : D-# 01 . ... : ... .. . F96 : ... .. . ... ... : ... .. . ... ... ... : ... .. . ...
ROW 41 : ... .. . ... ... ... : ... .. . ... ... ... : ... .. . ... : ... .. . ... : ... .. . ... : ... .. . ... ... : ... .. . ... ... ... : ... .. . ...
ROW 42 : ... .. . ... ... ... : ... .. . ... ... ... : ... .. . ... : ... .. . ... : ... .. . ... : ... .. . ... ... : ... .. . ... ... ... : ... .. . ...
ROW 43 : ... .. . ... ... ... : ... .. . ... ... ... : ... .. . ... : ... .. . ... : ... .. . FD4 : ... .. . ... ... : ... .. . ... ... ... : ... .. . ...
ROW 44 : ... .. . ... ... ... : A-4 07 . ... ... ... : F-3 08 . ... : D-# 01 . ... : ... .. . F96 : A-4 06 . V02 ... : C-3 06 . V02 ... ... : ... .. . ...
ROW 45 : ... .. . ... ... ... : ... .. . ... ... ... : ... .. . ... : ... .. . ... : ... .. . ... : ... .. . V04 ... : ... .. . V04 ... ... : ... .. . ...
ROW 46 : ... .. . ... ... ... : ... .. . ... ... ... : ... .. . ... : ... .. . ... : ... .. . ... : ... .. . ... ... : ... .. . ... ... ... : ... .. . ...
ROW 47 : ... .. . ... ... ... : ... .. . ... ... ... : ... .. . ... : ... .. . ... : ... .. . FD4 : ... .. . ... ... : ... .. . ... ... ... : ... .. . ...
ROW 48 : ... .. . ... ... ... : ... .. . ... ... ... : F-2 08 . ... : 3-# 04 . ... : C-3 00 . F96 : A-4 06 . V02 ... : C-3 06 . V02 ... ... : ... .. . ...
ROW 49 : ... .. . ... ... ... : ... .. . ... ... ... : ... .. . ... : ... .. . ... : ... .. . ... : ... .. . V04 ... : ... .. . V04 ... ... : ... .. . ...
ROW 4A : ... .. . ... ... ... : ... .. . ... ... ... : ... .. . ... : ... .. . ... : ... .. . ... : ... .. . ... ... : ... .. . ... ... ... : ... .. . ...
ROW 4B : ... .. . ... ... ... : ... .. . ... ... ... : ... .. . ... : ... .. . ... : ... .. . FD4 : ... .. . ... ... : ... .. . ... ... ... : ... .. . ...
ROW 4C : ... .. . ... ... ... : A-4 07 . ... ... ... : F-3 08 . ... : D-# 01 . ... : ... .. . F96 : ... .. . ... ... : ... .. . ... ... ... : ... .. . ...
ROW 4D : ... .. . ... ... ... : ... .. . ... ... ... : ... .. . ... : ... .. . ... : ... .. . ... : ... .. . ... ... : ... .. . ... ... ... : ... .. . ...
ROW 4E : ... .. . ... ... ... : ... .. . ... ... ... : ... .. . ... : ... .. . ... : ... .. . ... : ... .. . ... ... : ... .. . ... ... ... : ... .. . ...
ROW 4F : ... .. . ... ... ... : ... .. . ... ... ... : ... .. . ... : ... .. . ... : ... .. . FD4 : ... .. . ... ... : ... .. . ... ... ... : ... .. . ...
ROW 50 : ... .. . ... ... ... : A-4 07 . ... ... ... : F-2 08 . ... : D-# 01 . ... : ... .. . F96 : ... .. . ... 462 : ... .. . ... 474 ... : ... .. . ...
ROW 51 : ... .. . ... ... ... : ... .. . ... ... ... : ... .. . ... : ... .. . ... : ... .. . ... : ... .. . ... ... : ... .. . ... ... ... : ... .. . ...
ROW 52 : ... .. . ... ... ... : ... .. . ... ... ... : ... .. . ... : ... .. . ... : ... .. . ... : ... .. . ... ... : ... .. . ... ... ... : ... .. . ...
ROW 53 : ... .. . ... ... ... : ... .. . ... ... ... : ... .. . ... : ... .. . ... : ... .. . FD4 : ... .. . ... ... : ... .. . ... ... ... : ... .. . ...
ROW 54 : ... .. . ... ... ... : ... .. . ... ... ... : F-3 08 . ... : 8-# 04 . ... : C#3 00 . F96 : ... .. . ... ... : ... .. . ... ... ... : ... .. . ...
ROW 55 : ... .. . ... ... ... : ... .. . ... ... ... : ... .. . ... : ... .. . ... : ... .. . ... : ... .. . ... ... : ... .. . ... ... ... : ... .. . ...
ROW 56 : ... .. . ... ... ... : ... .. . ... ... ... : ... .. . ... : ... .. . ... : ... .. . ... : ... .. . ... ... : ... .. . ... ... ... : ... .. . ...
ROW 57 : ... .. . ... ... ... : ... .. . ... ... ... : ... .. . ... : ... .. . ... : ... .. . FD4 : ... .. . ... ... : ... .. . ... ... ... : ... .. . ...
ROW 58 : ... .. . ... ... ... : ... .. . ... 442 ... : F-2 08 . ... : D-# 01 . ... : ... .. . F96 : ... .. . ... ... : ... .. . ... ... ... : F-1 05 9 ...
ROW 59 : ... .. . ... ... ... : ... .. . ... ... ... : ... .. . ... : ... .. . ... : ... .. . ... : ... .. . ... ... : ... .. . ... ... ... : F-0 05 5 ...
ROW 5A : ... .. . ... ... ... : ... .. . ... ... ... : ... .. . ... : ... .. . ... : ... .. . ... : ... .. . ... ... : ... .. . ... ... ... : F-1 05 8 ...
ROW 5B : ... .. . ... ... ... : ... .. . ... ... ... : ... .. . ... : ... .. . ... : ... .. . FD4 : ... .. . ... ... : ... .. . ... ... ... : F-0 05 5 ...
ROW 5C : ... .. . ... ... ... : ... .. . ... ... ... : F-3 08 . ... : D-# 01 . ... : ... .. . F96 : ... .. . ... ... : ... .. . ... ... ... : F-1 05 7 ...
ROW 5D : ... .. . ... ... ... : ... .. . ... ... ... : ... .. . ... : ... .. . ... : ... .. . ... : ... .. . ... ... : ... .. . ... ... ... : F-0 05 4 ...
ROW 5E : ... .. . ... ... ... : ... .. . ... ... ... : ... .. . ... : ... .. . ... : ... .. . ... : ... .. . ... ... : ... .. . ... ... ... : F-1 05 6 ...
ROW 5F : ... .. 1 ... ... ... : ... .. . ... ... ... : ... .. . ... : ... .. . ... : ... .. . FD4 : ... .. . ... ... : ... .. . ... ... ... : F-0 05 3 ...

PATTERN 0B
ROW 00 : A#3 00 2 400 ... ... : ... .. . ... ... ... : G-2 08 . ... : 3-# 04 . ... : C-3 00 . F96 : G-4 06 . V02 400 : A#2 06 . V02 400 ... : G-0 05 D ...
ROW 01 : ... .. . ... ... ... : ... .. . ... ... ... : ... .. . ... : ... .. . ... : ... .. . ... : ... .. . V04 ... : ... .. . V04 ... ... : G-1 05 . ...
ROW 02 : ... .. . ... ... ... : ... .. . ... ... ... : ... .. . ... : ... .. . ... : ... .. . ... : ... .. . ... ... : ... .. . ... ... ... : G-2 05 . ...
ROW 03 : ... .. . ... ... ... : ... .. . ... ... ... : ... .. . ... : ... .. . ... : ... .. . FD4 : ... .. . ... ... : ... .. . ... ... ... : ... .. . ...
ROW 04 : ... .. . ... ... ... : ... .. . ... ... ... : G-3 08 . ... : D-# 01 . ... : ... .. . F96 : ... .. . ... ... : ... .. . ... ... ... : ... .. . ...
ROW 05 : ... .. . ... ... ... : ... .. . ... ... ... : ... .. . ... : ... .. . ... : ... .. . ... : ... .. . ... ... : ... .. . ... ... ... : ... .. . ...
ROW 06 : ... .. . ... ... ... : ... .. . ... ... ... : ... .. . ... : ... .. . ... : ... .. . ... : ... .. . ... ... : ... .. . ... ... ... : ... .. . ...
ROW 07 : ... .. . ... ... ... : ... .. . ... ... ... : ... .. . ... : ... .. . ... : ... .. . FD4 : ... .. . ... ... : ... .. . ... ... ... : ... .. . ...
ROW 08 : ... .. . 482 ... ... : G-4 07 . ... 400 ... : G-2 08 . ... : D-# 01 . ... : ... .. . F96 : ... .. . ... 462 : ... .. . ... 474 ... : ... .. . ...
ROW 09 : ... .. . ... ... ... : ... .. . ... ... ... : ... .. . ... : ... .. . ... : ... .. . ... : ... .. . ... ... : ... .. . ... ... ... : ... .. . ...
ROW 0A : ... .. . ... ... ... : ... .. . ... ... ... : ... .. . ... : ... .. . ... : ... .. . ... : ... .. . ... ... : ... .. . ... ... ... : ... .. . ...
ROW 0B : ... .. . ... ... ... : ... .. . ... ... ... : ... .. . ... : ... .. . ... : ... .. . FD4 : ... .. . ... ... : ... .. . ... ... ... : ... .. . ...
ROW 0C : ... .. . ... ... ... : ... .. . ... ... ... : G-3 08 . ... : 8-# 04 . ... : C#3 00 . F96 : ... .. . ... ... : ... .. . ... ... ... : ... .. . ...
ROW 0D : ... .. . ... ... ... : ... .. . ... ... ... : ... .. . ... : ... .. . ... : ... .. . ... : ... .. . ... ... : ... .. . ... ... ... : ... .. . ...
ROW 0E : ... .. . ... ... ... : ... .. . ... ... ... : ... .. . ... : ... .. . ... : ... .. . ... : ... .. . ... ... : ... .. . ... ... ... : ... .. . ...
ROW 0F : ... .. . ... ... ... : ... .. . ... ... ... : ... .. . ... : ... .. . ... : ... .. . FD4 : ... .. . ... ... : ... .. . ... ... ... : ... .. . ...
ROW 10 : ... .. . ... ... ... : ... .. . ... 442 ... : G-2 08 . ... : D-# 01 . ... : ... .. . F96 : ... .. . ... ... : ... .. . ... ... ... : ... .. . ...
ROW 11 : ... .. . ... ... ... : ... .. . ... ... ... : ... .. . ... : ... .. . ... : ... .. . ... : ... .. . ... ... : ... .. . ... ... ... : ... .. . ...
ROW 12 : ... .. . ... ... ... : ... .. . ... ... ... : ... .. . ... : ... .. . ... : ... .. . ... : ... .. . ... ... : ... .. . ... ... ... : ... .. . ...
ROW 13 : ... .. . ... ... ... : ... .. . ... ... ... : ... .. . ... : ... .. . ... : ... .. . FD4 : ... .. . ... ... : ... .. . ... ... ... : ... .. . ...
ROW 14 : ... .. . ... ... ... : ... .. . ... ... ... : G-3 08 . ... : D-# 01 . ... : ... .. . F96 : ... .. . ... ... : ... .. . ... ... ... : ... .. . ...
ROW 15 : ... .. . ... ... ... : ... .. . ... ... ... : ... .. . ... : ... .. . ... : ... .. . ... : ... .. . ... ... : ... .. . ... ... ... : ... .. . ...
ROW 16 : ... .. . ... ... ... : ... .. . ... ... ... : ... .. . ... : ... .. . ... : ... .. . ... : ... .. . ... ... : ... .. . ... ... ... : ... .. . ...
ROW 17 : ... .. . ... ... ... : ... .. . ... ... ... : ... .. . ... : ... .. . ... : ... .. . FD4 : ... .. . ... ... : ... .. . ... ... ... : ... .. . ...
ROW 18 : ... .. . ... ... ... : ... .. . ... ... ... : G-2 08 . ... : 3-# 04 . ... : C-3 00 . F96 : G-4 06 . V02 400 : A#2 06 . V02 400 ... : ... .. . ...
ROW 19 : ... .. . ... ... ... : ... .. . ... ... ... : ... .. . ... : ... .. . ... : ... .. . ... : ... .. . V04 ... : ... .. . V04 ... ... : ... .. . ...
ROW 1A : ... .. . ... ... ... : ... .. . ... ... ... : ... .. . ... : ... .. . ... : ... .. . ... : ... .. . ... ... : ... .. . ... ... ... : ... .. . ...
ROW 1B : ... .. . ... ... ... : ... .. . ... ... ... : ... .. . ... : ... .. . ... : ... .. . FD4 : ... .. . ... ... : ... .. . ... ... ... : ... .. . ...
ROW 1C : ... .. . ... ... ... : ... .. . ... ... ... : G-3 08 . ... : D-# 01 . ... : ... .. . F96 : ... .. . ... ... : ... .. . ... ... ... : ... .. . ...
ROW 1D : ... .. . ... ... ... : ... .. . ... ... ... : ... .. . ... : ... .. . ... : ... .. . ... : ... .. . ... ... : ... .. . ... ... ... : ... .. . ...
ROW 1E : ... .. . ... ... ... : ... .. . ... ... ... : ... .. . ... : ... .. . ... : ... .. . ... : ... .. . ... ... : ... .. . ... ... ... : ... .. . ...
ROW 1F : ... .. . ... ... ... : ... .. . ... ... ... : ... .. . ... : ... .. . ... : ... .. . FD4 : ... .. . ... ... : ... .. . ... ... ... : ... .. . ...
ROW 20 : ... .. . ... ... ... : G-4 07 . ... 400 ... : G-2 08 . ... : D-# 01 . ... : ... .. . F96 : A-4 06 . V02 ... : C-3 06 . V02 ... ... : ... .. . ...
ROW 21 : ... .. . ... ... ... : ... .. . ... ... ... : ... .. . ... : ... .. . ... : ... .. . ... : ... .. . V04 ... : ... .. . V04 ... ... : ... .. . ...
ROW 22 : ... .. . ... ... ... : ... .. . ... ... ... : ... .. . ... : ... .. . ... : ... .. . ... : ... .. . ... ... : ... .. . ... ... ... : ... .. . ...
ROW 23 : ... .. . ... ... ... : ... .. . ... ... ... : ... .. . ... : ... .. . ... : ... .. . FD4 : ... .. . ... ... : ... .. . ... ... ... : ... .. . ...
ROW 24 : ... .. . ... ... ... : ... .. . ... ... ... : G-3 08 . ... : 8-# 04 . ... : C#3 00 . F96 : ... .. . ... ... : ... .. . ... ... ... : ... .. . ...
ROW 25 : ... .. . ... ... ... : ... .. . ... ... ... : ... .. . ... : ... .. . ... : ... .. . ... : ... .. . ... ... : ... .. . ... ... ... : ... .. . ...
ROW 26 : ... .. . ... ... ... : ... .. . ... ... ... : ... .. . ... : ... .. . ... : ... .. . ... : ... .. . ... ... : ... .. . ... ... ... : ... .. . ...
ROW 27 : ... .. . ... ... ... : ... .. . ... ... ... : ... .. . ... : ... .. . ... : ... .. . FD4 : ... .. . ... ... : ... .. . ... ... ... : ... .. . ...
ROW 28 : ... .. . ... ... ... : A-4 07 . ... ... ... : G-2 08 . ... : D-# 01 . ... : ... .. . F96 : A#4 06 . V02 ... : D-3 06 . V02 ... ... : G-1 05 9 ...
ROW 29 : ... .. . ... ... ... : ... .. . ... ... ... : ... .. . ... : ... .. . ... : ... .. . ... : ... .. . V04 ... : ... .. . V04 ... ... : G-0 05 5 ...
ROW 2A : ... .. . ... ... ... : ... .. . ... ... ... : ... .. . ... : ... .. . ... : ... .. . ... : ... .. . ... ... : ... .. . ... ... ... : G-1 05 8 ...
ROW 2B : ... .. . ... ... ... : ... .. . ... ... ... : ... .. . ... : ... .. . ... : ... .. . FD4 : ... .. . ... ... : ... .. . ... ... ... : G-0 05 5 ...
ROW 2C : ... .. . ... ... ... : ... .. . ... ... ... : G-3 08 . ... : D-# 01 . ... : ... .. . F96 : ... .. . ... ... : ... .. . ... ... ... : G-1 05 7 ...
ROW 2D : ... .. . ... ... ... : ... .. . ... ... ... : ... .. . ... : ... .. . ... : ... .. . ... : ... .. . ... ... : ... .. . ... ... ... : G-0 05 4 ...
ROW 2E : ... .. . ... ... ... : ... .. . ... ... ... : ... .. . ... : ... .. . ... : ... .. . ... : ... .. . ... ... : ... .. . ... ... ... : G-1 05 6 ...
ROW 2F : ... .. 1 ... ... ... : ... .. . ... ... ... : ... .. . ... : ... .. . ... : ... .. . FD4 : ... .. . ... ... : ... .. . ... ... ... : G-0 05 3 ...
ROW 30 : C-4 00 2 400 ... ... : A#4 07 . ... ... ... : A-2 08 . ... : 3-# 04 . ... : C-3 00 . F96 : A-4 06 . V02 ... : C-3 06 . V02 ... ... : A-0 05 D ...
ROW 31 : ... .. . ... ... ... : ... .. . ... ... ... : ... .. . ... : ... .. . ... : ... .. . ... : ... .. . V04 ... : ... .. . V04 ... ... : A-1 05 . ...
ROW 32 : ... .. . ... ... ... : ... .. . ... ... ... : ... .. . ... : ... .. . ... : ... .. . ... : ... .. . ... ... : ... .. . ... ... ... : A-2 05 . ...
ROW 33 : ... .. . ... ... ... : ... .. . ... ... ... : ... .. . ... : ... .. . ... : ... .. . FD4 : ... .. . ... ... : ... .. . ... ... ... : ... .. . ...
ROW 34 : ... .. . ... ... ... : ... .. . ... ... ... : A-3 08 . ... : D-# 01 . ... : ... .. . F96 : ... .. . ... ... : ... .. . ... ... ... : ... .. . ...
ROW 35 : ... .. . ... ... ... : ... .. . ... ... ... : ... .. . ... : ... .. . ... : ... .. . ... : ... .. . ... ... : ... .. . ... ... ... : ... .. . ...
ROW 36 : ... .. . ... ... ... : ... .. . ... ... ... : ... .. . ... : ... .. . ... : ... .. . ... : ... .. . ... ... : ... .. . ... ... ... : ... .. . ...
ROW 37 : ... .. . ... ... ... : ... .. . ... ... ... : ... .. . ... : ... .. . ... : ... .. . FD4 : ... .. . ... ... : ... .. . ... ... ... : ... .. . ...
ROW 38 : ... .. . 482 ... ... : A-4 07 . ... ... ... : A-2 08 . ... : D-# 01 . ... : ... .. . F96 : ... .. . ... 462 : ... .. . ... 474 ... : ... .. . ...
ROW 39 : ... .. . ... ... ... : ... .. . ... ... ... : ... .. . ... : ... .. . ... : ... .. . ... : ... .. . ... ... : ... .. . ... ... ... : ... .. . ...
ROW 3A : ... .. . ... ... ... : ... .. . ... ... ... : ... .. . ... : ... .. . ... : ... .. . ... : ... .. . ... ... : ... .. . ... ... ... : ... .. . ...
ROW 3B : ... .. . ... ... ... : ... .. . ... ... ... : ... .. . ... : ... .. . ... : ... .. . FD4 : ... .. . ... ... : ... .. . ... ... ... : ... .. . ...
ROW 3C : ... .. . ... ... ... : ... .. . ... ... ... : A-3 08 . ... : 8-# 04 . ... : C#3 00 . F96 : ... .. . ... ... : ... .. . ... ... ... : ... .. . ...
ROW 3D : ... .. . ... ... ... : ... .. . ... ... ... : ... .. . ... : ... .. . ... : ... .. . ... : ... .. . ... ... : ... .. . ... ... ... : ... .. . ...
ROW 3E : ... .. . ... ... ... : ... .. . ... ... ... : ... .. . ... : ... .. . ... : ... .. . ... : ... .. . ... ... : ... .. . ... ... ... : ... .. . ...
ROW 3F : ... .. . ... ... ... : ... .. . ... ... ... : ... .. . ... : ... .. . ... : ... .. . FD4 : ... .. . ... ... : ... .. . ... ... ... : ... .. . ...
ROW 40 : ... .. . ... ... ... : ... .. . ... 442 ... : A-2 08 . ... : D-# 01 . ... : ... .. . F96 : ... .. . ... ... : ... .. . ... ... ... : ... .. . ...
ROW 41 : ... .. . ... ... ... : ... .. . ... ... ... : ... .. . ... : ... .. . ... : ... .. . ... : ... .. . ... ... : ... .. . ... ... ... : ... .. . ...
ROW 42 : ... .. . ... ... ... : ... .. . ... ... ... : ... .. . ... : ... .. . ... : ... .. . ... : ... .. . ... ... : ... .. . ... ... ... : ... .. . ...
ROW 43 : ... .. . ... ... ... : ... .. . ... ... ... : ... .. . ... : ... .. . ... : ... .. . FD4 : ... .. . ... ... : ... .. . ... ... ... : ... .. . ...
ROW 44 : ... .. . ... ... ... : ... .. . ... ... ... : A-3 08 . ... : D-# 01 . ... : ... .. . F96 : ... .. . ... ... : ... .. . ... ... ... : ... .. . ...
ROW 45 : ... .. . ... ... ... : ... .. . ... ... ... : ... .. . ... : ... .. . ... : ... .. . ... : ... .. . ... ... : ... .. . ... ... ... : ... .. . ...
ROW 46 : ... .. . ... ... ... : ... .. . ... ... ... : ... .. . ... : ... .. . ... : ... .. . ... : ... .. . ... Q03 : ... .. . ... Q24 ... : ... .. . ...
ROW 47 : ... .. . ... ... ... : ... .. . ... ... ... : ... .. . ... : ... .. . ... : ... .. . FD4 : ... .. . ... ... : ... .. . ... ... ... : ... .. . ...
ROW 48 : ... .. . ... ... ... : ... .. . ... ... ... : A-2 08 . ... : 3-# 04 . ... : C-3 00 . F96 : ... .. . V05 Q10 : ... .. . V05 Q30 ... : ... .. . ...
ROW 49 : ... .. . ... ... ... : ... .. . ... ... ... : ... .. . ... : ... .. . ... : ... .. . ... : ... .. . ... ... : ... .. . ... ... ... : ... .. . ...
ROW 4A : ... .. . ... ... ... : ... .. . ... ... ... : ... .. . ... : ... .. . ... : ... .. . ... : ... .. . ... ... : ... .. . ... ... ... : ... .. . ...
ROW 4B : ... .. . ... ... ... : ... .. . ... ... ... : ... .. . ... : ... .. . ... : ... .. . FD4 : ... .. . ... ... : ... .. . ... ... ... : ... .. . ...
ROW 4C : ... .. . ... ... ... : ... .. . ... ... ... : A-3 08 . ... : D-# 01 . ... : ... .. . F96 : ... .. . ... ... : ... .. . ... ... ... : ... .. . ...
ROW 4D : ... .. . ... ... ... : ... .. . ... ... ... : ... .. . ... : ... .. . ... : ... .. . ... : ... .. . ... ... : ... .. . ... ... ... : ... .. . ...
ROW 4E : ... .. . ... ... ... : ... .. . ... Q03 ... : ... .. . ... : ... .. . ... : ... .. . ... : ... .. . ... ... : ... .. . ... ... ... : ... .. . ...
ROW 4F : ... .. . ... ... ... : ... .. . ... ... ... : ... .. . ... : ... .. . ... : ... .. . FD4 : ... .. . ... ... : ... .. . ... ... ... : ... .. . ...
ROW 50 : ... .. . ... ... ... : ... .. . ... Q10 ... : A-2 08 . ... : D-# 01 . ... : ... .. . F96 : ... .. . ... ... : ... .. . ... ... ... : ... .. . ...
ROW 51 : ... .. . ... ... ... : ... .. . ... ... ... : ... .. . ... : ... .. . ... : ... .. . ... : ... .. . ... ... : ... .. . ... ... ... : ... .. . ...
ROW 52 : ... .. . ... ... ... : ... .. . ... ... ... : ... .. . ... : ... .. . ... : ... .. . ... : ... .. . ... ... : ... .. . ... ... ... : ... .. . ...
ROW 53 : ... .. . ... ... ... : ... .. . ... ... ... : ... .. . ... : ... .. . ... : ... .. . FD4 : ... .. . ... ... : ... .. . ... ... ... : ... .. . ...
ROW 54 : ... .. . ... ... ... : ... .. . ... ... ... : A-3 08 . ... : 8-# 04 . ... : C#3 00 . F96 : ... .. . ... ... : ... .. . ... ... ... : ... .. . ...
ROW 55 : ... .. . ... ... ... : ... .. . ... ... ... : ... .. . ... : ... .. . ... : ... .. . ... : ... .. . ... ... : ... .. . ... ... ... : ... .. . ...
ROW 56 : ... .. . ... ... ... : ... .. . ... ... ... : ... .. . ... : ... .. . ... : ... .. . ... : ... .. . ... ... : ... .. . ... ... ... : ... .. . ...
ROW 57 : ... .. . ... ... ... : ... .. . ... ... ... : ... .. . ... : ... .. . ... : ... .. . FD4 : ... .. . ... ... : ... .. . ... ... ... : ... .. . ...
ROW 58 : ... .. . ... ... ... : ... .. . ... ... ... : A-2 08 . ... : D-# 01 . ... : ... .. . F96 : ... .. . ... ... : ... .. . ... ... ... : A-1 05 9 ...
ROW 59 : ... .. . ... ... ... : ... .. . ... ... ... : ... .. . ... : ... .. . ... : ... .. . ... : ... .. . ... ... : ... .. . ... ... ... : A-0 05 5 ...
ROW 5A : ... .. . ... ... ... : ... .. . ... ... ... : ... .. . ... : ... .. . ... : ... .. . ... : ... .. . ... ... : ... .. . ... ... ... : A-1 05 8 ...
ROW 5B : ... .. . ... ... ... : ... .. . ... ... ... : ... .. . ... : ... .. . ... : ... .. . FD4 : ... .. . ... ... : ... .. . ... ... ... : A-0 05 5 ...
ROW 5C : ... .. . ... ... ... : ... .. . ... ... ... : A-3 08 . ... : D-# 01 . ... : ... .. . F96 : ... .. . ... ... : ... .. . ... ... ... : A-1 05 7 ...
ROW 5D : ... .. . ... ... ... : ... .. . ... ... ... : ... .. . ... : ... .. . ... : ... .. . ... : ... .. . ... ... : ... .. . ... ... ... : A-0 05 4 ...
ROW 5E : ... .. . ... ... ... : ... .. . ... ... ... : ... .. . ... : ... .. . ... : ... .. . ... : ... .. . ... ... : ... .. . ... ... ... : A-1 05 6 ...
ROW 5F : ... .. 1 ... ... ... : ... .. . ... ... ... : ... .. . ... : ... .. . ... : ... .. . FD4 : ... .. . ... ... : ... .. . ... ... ... : A-0 05 3 ...

PATTERN 0C
ROW 00 : D-4 00 2 400 ... ... : ... .. . ... ... ... : D-2 08 . ... : 3-# 04 . ... : C-3 00 . F96 : D-5 06 . V02 400 : F-3 06 . V02 400 ... : D-0 05 D ...
ROW 01 : ... .. . ... ... ... : ... .. . ... ... ... : ... .. . ... : ... .. . ... : ... .. . ... : ... .. . V04 ... : ... .. . V04 ... ... : D-1 05 . ...
ROW 02 : ... .. . ... ... ... : ... .. . ... ... ... : ... .. . ... : ... .. . ... : ... .. . ... : ... .. . ... ... : ... .. . ... ... ... : D-2 05 . ...
ROW 03 : ... .. . ... ... ... : ... .. . ... ... ... : ... .. . ... : ... .. . ... : ... .. . FD4 : ... .. . ... ... : ... .. . ... ... ... : ... .. . ...
ROW 04 : ... .. . ... ... ... : ... .. . ... ... ... : D-3 08 . ... : D-# 01 . ... : ... .. . F96 : ... .. . ... ... : ... .. . ... ... ... : ... .. . ...
ROW 05 : ... .. . ... ... ... : ... .. . ... ... ... : ... .. . ... : ... .. . ... : ... .. . ... : ... .. . ... ... : ... .. . ... ... ... : ... .. . ...
ROW 06 : ... .. . ... ... ... : ... .. . ... ... ... : ... .. . ... : ... .. . ... : ... .. . ... : ... .. . ... ... : ... .. . ... ... ... : ... .. . ...
ROW 07 : ... .. . ... ... ... : ... .. . ... ... ... : ... .. . ... : ... .. . ... : ... .. . FD4 : ... .. . ... ... : ... .. . ... ... ... : ... .. . ...
ROW 08 : ... .. . 482 ... ... : D-5 07 . ... 400 ... : D-2 08 . ... : D-# 01 . ... : ... .. . F96 : ... .. . ... ... : ... .. . ... ... ... : ... .. . ...
ROW 09 : ... .. . ... ... ... : ... .. . ... ... ... : ... .. . ... : ... .. . ... : ... .. . ... : ... .. . ... ... : ... .. . ... ... ... : ... .. . ...
ROW 0A : ... .. . ... ... ... : ... .. . ... ... ... : ... .. . ... : ... .. . ... : ... .. . ... : ... .. . ... ... : ... .. . ... ... ... : ... .. . ...
ROW 0B : ... .. . ... ... ... : ... .. . ... ... ... : ... .. . ... : ... .. . ... : ... .. . FD4 : ... .. . ... ... : ... .. . ... ... ... : ... .. . ...
ROW 0C : ... .. . ... ... ... : ... .. . ... ... ... : D-3 08 . ... : 8-# 04 . ... : C#3 00 . F96 : C-5 06 . V02 ... : E-3 06 . V02 ... ... : ... .. . ...
ROW 0D : ... .. . ... ... ... : ... .. . ... ... ... : ... .. . ... : ... .. . ... : ... .. . ... : ... .. . V04 ... : ... .. . V04 ... ... : ... .. . ...
ROW 0E : ... .. . ... ... ... : ... .. . ... ... ... : ... .. . ... : ... .. . ... : ... .. . ... : ... .. . ... ... : ... .. . ... ... ... : ... .. . ...
ROW 0F : ... .. . ... ... ... : ... .. . ... ... ... : ... .. . ... : ... .. . ... : ... .. . FD4 : ... .. . ... ... : ... .. . ... ... ... : ... .. . ...
ROW 10 : ... .. . ... ... ... : ... .. . ... ... ... : D-2 08 . ... : D-# 01 . ... : ... .. . F96 : ... .. . ... ... : ... .. . ... ... ... : ... .. . ...
ROW 11 : ... .. . ... ... ... : ... .. . ... ... ... : ... .. . ... : ... .. . ... : ... .. . ... : ... .. . ... ... : ... .. . ... ... ... : ... .. . ...
ROW 12 : ... .. . ... ... ... : ... .. . ... ... ... : ... .. . ... : ... .. . ... : ... .. . ... : ... .. . ... ... : ... .. . ... ... ... : ... .. . ...
ROW 13 : ... .. . ... ... ... : ... .. . ... ... ... : ... .. . ... : ... .. . ... : ... .. . FD4 : ... .. . ... ... : ... .. . ... ... ... : ... .. . ...
ROW 14 : ... .. . ... ... ... : C-5 07 . ... ... ... : D-3 08 . ... : D-# 01 . ... : ... .. . F96 : D-5 06 . V02 ... : F-3 06 . V02 ... ... : ... .. . ...
ROW 15 : ... .. . ... ... ... : ... .. . ... ... ... : ... .. . ... : ... .. . ... : ... .. . ... : ... .. . V04 ... : ... .. . V04 ... ... : ... .. . ...
ROW 16 : ... .. . ... ... ... : ... .. . ... ... ... : ... .. . ... : ... .. . ... : ... .. . ... : ... .. . ... ... : ... .. . ... ... ... : ... .. . ...
ROW 17 : ... .. . ... ... ... : ... .. . ... ... ... : ... .. . ... : ... .. . ... : ... .. . FD4 : ... .. . ... ... : ... .. . ... ... ... : ... .. . ...
ROW 18 : ... .. . ... ... ... : ... .. . ... ... ... : D-2 08 . ... : 3-# 04 . ... : C-3 00 . F96 : ... .. . ... ... : ... .. . ... ... ... : ... .. . ...
ROW 19 : ... .. . ... ... ... : ... .. . ... ... ... : ... .. . ... : ... .. . ... : ... .. . ... : ... .. . ... ... : ... .. . ... ... ... : ... .. . ...
ROW 1A : ... .. . ... ... ... : ... .. . ... ... ... : ... .. . ... : ... .. . ... : ... .. . ... : ... .. . ... ... : ... .. . ... ... ... : ... .. . ...
ROW 1B : ... .. . ... ... ... : ... .. . ... ... ... : ... .. . ... : ... .. . ... : ... .. . FD4 : ... .. . ... ... : ... .. . ... ... ... : ... .. . ...
ROW 1C : ... .. . ... ... ... : D-5 07 . ... ... ... : D-3 08 . ... : D-# 01 . ... : ... .. . F96 : ... .. . ... ... : ... .. . ... ... ... : ... .. . ...
ROW 1D : ... .. . ... ... ... : ... .. . ... ... ... : ... .. . ... : ... .. . ... : ... .. . ... : ... .. . ... ... : ... .. . ... ... ... : ... .. . ...
ROW 1E : ... .. . ... ... ... : ... .. . ... ... ... : ... .. . ... : ... .. . ... : ... .. . ... : ... .. . ... ... : ... .. . ... ... ... : ... .. . ...
ROW 1F : ... .. . ... ... ... : ... .. . ... ... ... : ... .. . ... : ... .. . ... : ... .. . FD4 : ... .. . ... ... : ... .. . ... ... ... : ... .. . ...
ROW 20 : ... .. . ... ... ... : ... .. . ... ... ... : D-2 08 . ... : D-# 01 . ... : ... .. . F96 : A-4 06 . V02 ... : D-3 06 . V02 ... ... : ... .. . ...
ROW 21 : ... .. . ... ... ... : ... .. . ... ... ... : ... .. . ... : ... .. . ... : ... .. . ... : ... .. . V04 ... : ... .. . V04 ... ... : ... .. . ...
ROW 22 : ... .. . ... ... ... : ... .. . ... ... ... : ... .. . ... : ... .. . ... : ... .. . ... : ... .. . ... ... : ... .. . ... ... ... : ... .. . ...
ROW 23 : ... .. . ... ... ... : ... .. . ... ... ... : ... .. . ... : ... .. . ... : ... .. . FD4 : ... .. . ... ... : ... .. . ... ... ... : ... .. . ...
ROW 24 : ... .. . ... ... ... : ... .. . ... ... ... : D-3 08 . ... : 8-# 04 . ... : C#3 00 . F96 : ... .. . ... ... : ... .. . ... ... ... : ... .. . ...
ROW 25 : ... .. . ... ... ... : ... .. . ... ... ... : ... .. . ... : ... .. . ... : ... .. . ... : ... .. . ... ... : ... .. . ... ... ... : ... .. . ...
ROW 26 : ... .. . ... ... ... : ... .. . ... ... ... : ... .. . ... : ... .. . ... : ... .. . ... : ... .. . ... ... : ... .. . ... ... ... : ... .. . ...
ROW 27 : ... .. . ... ... ... : ... .. . ... ... ... : ... .. . ... : ... .. . ... : ... .. . FD4 : ... .. . ... ... : ... .. . ... ... ... : ... .. . ...
ROW 28 : ... .. . ... ... ... : A-4 07 . ... ... ... : D-2 08 . ... : D-# 01 . ... : ... .. . F96 : ... .. . ... ... : ... .. . ... ... ... : D-1 05 9 ...
ROW 29 : ... .. . ... ... ... : ... .. . ... ... ... : ... .. . ... : ... .. . ... : ... .. . ... : ... .. . ... ... : ... .. . ... ... ... : D-0 05 5 ...
ROW 2A : ... .. . ... ... ... : ... .. . ... ... ... : ... .. . ... : ... .. . ... : ... .. . ... : ... .. . ... ... : ... .. . ... ... ... : D-1 05 8 ...
ROW 2B : ... .. . ... ... ... : ... .. . ... ... ... : ... .. . ... : ... .. . ... : ... .. . FD4 : ... .. . ... ... : ... .. . ... ... ... : D-0 05 5 ...
ROW 2C : ... .. . ... ... ... : ... .. . ... ... ... : D-3 08 . ... : D-# 01 . ... : ... .. . F96 : ... .. . ... ... : ... .. . ... ... ... : D-1 05 7 ...
ROW 2D : ... .. . ... ... ... : ... .. . ... ... ... : ... .. . ... : ... .. . ... : ... .. . ... : ... .. . ... ... : ... .. . ... ... ... : D-0 05 4 ...
ROW 2E : ... .. . ... ... ... : ... .. . ... ... ... : ... .. . ... : ... .. . ... : ... .. . ... : ... .. . ... ... : ... .. . ... ... ... : D-1 05 6 ...
ROW 2F : ... .. 1 ... ... ... : ... .. . ... ... ... : ... .. . ... : ... .. . ... : ... .. . FD4 : ... .. . ... ... : ... .. . ... ... ... : D-0 05 3 ...
ROW 30 : C-4 00 2 400 ... ... : ... .. . ... ... ... : F-2 08 . ... : 3-# 04 . ... : C-3 00 . F96 : C-5 06 . V02 ... : F-3 06 . V02 ... ... : F-0 05 D ...
ROW 31 : ... .. . ... ... ... : ... .. . ... ... ... : ... .. . ... : ... .. . ... : ... .. . ... : ... .. . V04 ... : ... .. . V04 ... ... : F-1 05 . ...
ROW 32 : ... .. . ... ... ... : ... .. . ... ... ... : ... .. . ... : ... .. . ... : ... .. . ... : ... .. . ... ... : ... .. . ... ... ... : F-2 05 . ...
ROW 33 : ... .. . ... ... ... : ... .. . ... ... ... : ... .. . ... : ... .. . ... : ... .. . FD4 : ... .. . ... ... : ... .. . ... ... ... : ... .. . ...
ROW 34 : ... .. . ... ... ... : ... .. . ... ... ... : F-3 08 . ... : D-# 01 . ... : ... .. . F96 : ... .. . ... ... : ... .. . ... ... ... : ... .. . ...
ROW 35 : ... .. . ... ... ... : ... .. . ... ... ... : ... .. . ... : ... .. . ... : ... .. . ... : ... .. . ... ... : ... .. . ... ... ... : ... .. . ...
ROW 36 : ... .. . ... ... ... : ... .. . ... ... ... : ... .. . ... : ... .. . ... : ... .. . ... : ... .. . ... ... : ... .. . ... ... ... : ... .. . ...
ROW 37 : ... .. . ... ... ... : ... .. . ... ... ... : ... .. . ... : ... .. . ... : ... .. . FD4 : ... .. . ... ... : ... .. . ... ... ... : ... .. . ...
ROW 38 : ... .. . 482 ... ... : C-5 07 . ... ... ... : F-2 08 . ... : D-# 01 . ... : ... .. . F96 : C-5 06 . V02 ... : F-3 06 . V02 ... ... : ... .. . ...
ROW 39 : ... .. . ... ... ... : ... .. . ... ... ... : ... .. . ... : ... .. . ... : ... .. . ... : ... .. . V04 ... : ... .. . V04 ... ... : ... .. . ...
ROW 3A : ... .. . ... ... ... : ... .. . ... ... ... : ... .. . ... : ... .. . ... : ... .. . ... : ... .. . ... ... : ... .. . ... ... ... : ... .. . ...
ROW 3B : ... .. . ... ... ... : ... .. . ... ... ... : ... .. . ... : ... .. . ... : ... .. . FD4 : ... .. . ... ... : ... .. . ... ... ... : ... .. . ...
ROW 3C : ... .. . ... ... ... : ... .. . ... ... ... : F-3 08 . ... : 8-# 04 . ... : C#3 00 . F96 : C-5 06 . V02 ... : F-3 06 . V02 ... ... : ... .. . ...
ROW 3D : ... .. . ... ... ... : ... .. . ... ... ... : ... .. . ... : ... .. . ... : ... .. . ... : ... .. . V04 ... : ... .. . V04 ... ... : ... .. . ...
ROW 3E : ... .. . ... ... ... : ... .. . ... ... ... : ... .. . ... : ... .. . ... : ... .. . ... : ... .. . ... ... : ... .. . ... ... ... : ... .. . ...
ROW 3F : ... .. . ... ... ... : ... .. . ... ... ... : ... .. . ... : ... .. . ... : ... .. . FD4 : ... .. . ... ... : ... .. . ... ... ... : ... .. . ...
ROW 40 : ... .. . ... ... ... : C-5 07 . ... ... ... : F-2 08 . ... : D-# 01 . ... : ... .. . F96 : ... .. . ... ... : ... .. . ... ... ... : ... .. . ...
ROW 41 : ... .. . ... ... ... : ... .. . ... ... ... : ... .. . ... : ... .. . ... : ... .. . ... : ... .. . ... ... : ... .. . ... ... ... : ... .. . ...
ROW 42 : ... .. . ... ... ... : ... .. . ... ... ... : ... .. . ... : ... .. . ... : ... .. . ... : ... .. . ... ... : ... .. . ... ... ... : ... .. . ...
ROW 43 : ... .. . ... ... ... : ... .. . ... ... ... : ... .. . ... : ... .. . ... : ... .. . FD4 : ... .. . ... ... : ... .. . ... ... ... : ... .. . ...
ROW 44 : ... .. . ... ... ... : C-5 07 . ... ... ... : F-3 08 . ... : D-# 01 . ... : ... .. . F96 : C-5 06 . V02 ... : F-3 06 . V02 ... ... : ... .. . ...
ROW 45 : ... .. . ... ... ... : ... .. . ... ... ... : ... .. . ... : ... .. . ... : ... .. . ... : ... .. . V04 ... : ... .. . V04 ... ... : ... .. . ...
ROW 46 : ... .. . ... ... ... : ... .. . ... ... ... : ... .. . ... : ... .. . ... : ... .. . ... : ... .. . ... ... : ... .. . ... ... ... : ... .. . ...
ROW 47 : ... .. . ... ... ... : ... .. . ... ... ... : ... .. . ... : ... .. . ... : ... .. . FD4 : ... .. . ... ... : ... .. . ... ... ... : ... .. . ...
ROW 48 : ... .. . ... ... ... : ... .. . ... ... ... : F-2 08 . ... : 3-# 04 . ... : C-3 00 . F96 : A-4 06 . V02 ... : C-3 06 . V02 ... ... : ... .. . ...
ROW 49 : ... .. . ... ... ... : ... .. . ... ... ... : ... .. . ... : ... .. . ... : ... .. . ... : ... .. . V04 ... : ... .. . V04 ... ... : ... .. . ...
ROW 4A : ... .. . ... ... ... : ... .. . ... ... ... : ... .. . ... : ... .. . ... : ... .. . ... : ... .. . ... ... : ... .. . ... ... ... : ... .. . ...
ROW 4B : ... .. . ... ... ... : ... .. . ... ... ... : ... .. . ... : ... .. . ... : ... .. . FD4 : ... .. . ... ... : ... .. . ... ... ... : ... .. . ...
ROW 4C : ... .. . ... ... ... : C-5 07 . ... ... ... : F-3 08 . ... : D-# 01 . ... : ... .. . F96 : ... .. . ... ... : ... .. . ... ... ... : ... .. . ...
ROW 4D : ... .. . ... ... ... : ... .. . ... ... ... : ... .. . ... : ... .. . ... : ... .. . ... : ... .. . ... ... : ... .. . ... ... ... : ... .. . ...
ROW 4E : ... .. . ... ... ... : ... .. . ... ... ... : ... .. . ... : ... .. . ... : ... .. . ... : ... .. . ... ... : ... .. . ... ... ... : ... .. . ...
ROW 4F : ... .. . ... ... ... : ... .. . ... ... ... : ... .. . ... : ... .. . ... : ... .. . FD4 : ... .. . ... ... : ... .. . ... ... ... : ... .. . ...
ROW 50 : ... .. . ... ... ... : A-4 07 . ... ... ... : F-2 08 . ... : D-# 01 . ... : ... .. . F96 : ... .. . ... 462 : ... .. . ... 474 ... : ... .. . ...
ROW 51 : ... .. . ... ... ... : ... .. . ... ... ... : ... .. . ... : ... .. . ... : ... .. . ... : ... .. . ... ... : ... .. . ... ... ... : ... .. . ...
ROW 52 : ... .. . ... ... ... : ... .. . ... ... ... : ... .. . ... : ... .. . ... : ... .. . ... : ... .. . ... ... : ... .. . ... ... ... : ... .. . ...
ROW 53 : ... .. . ... ... ... : ... .. . ... ... ... : ... .. . ... : ... .. . ... : ... .. . FD4 : ... .. . ... ... : ... .. . ... ... ... : ... .. . ...
ROW 54 : ... .. . ... ... ... : ... .. . ... ... ... : F-3 08 . ... : 8-# 04 . ... : C#3 00 . F96 : ... .. . ... ... : ... .. . ... ... ... : ... .. . ...
ROW 55 : ... .. . ... ... ... : ... .. . ... ... ... : ... .. . ... : ... .. . ... : ... .. . ... : ... .. . ... ... : ... .. . ... ... ... : ... .. . ...
ROW 56 : ... .. . ... ... ... : ... .. . ... ... ... : ... .. . ... : ... .. . ... : ... .. . ... : ... .. . ... ... : ... .. . ... ... ... : ... .. . ...
ROW 57 : ... .. . ... ... ... : ... .. . ... ... ... : ... .. . ... : ... .. . ... : ... .. . FD4 : ... .. . ... ... : ... .. . ... ... ... : ... .. . ...
ROW 58 : ... .. . ... ... ... : ... .. . ... 442 ... : F-2 08 . ... : D-# 01 . ... : ... .. . F96 : ... .. . ... ... : ... .. . ... ... ... : F-1 05 9 ...
ROW 59 : ... .. . ... ... ... : ... .. . ... ... ... : ... .. . ... : ... .. . ... : ... .. . ... : ... .. . ... ... : ... .. . ... ... ... : F-0 05 5 ...
ROW 5A : ... .. . ... ... ... : ... .. . ... ... ... : ... .. . ... : ... .. . ... : ... .. . ... : ... .. . ... ... : ... .. . ... ... ... : F-1 05 8 ...
ROW 5B : ... .. . ... ... ... : ... .. . ... ... ... : ... .. . ... : ... .. . ... : ... .. . FD4 : ... .. . ... ... : ... .. . ... ... ... : F-0 05 5 ...
ROW 5C : ... .. . ... ... ... : ... .. . ... ... ... : F-3 08 . ... : D-# 01 . ... : ... .. . F96 : ... .. . ... ... : ... .. . ... ... ... : F-1 05 7 ...
ROW 5D : ... .. . ... ... ... : ... .. . ... ... ... : ... .. . ... : ... .. . ... : ... .. . ... : ... .. . ... ... : ... .. . ... ... ... : F-0 05 4 ...
ROW 5E : ... .. . ... ... ... : ... .. . ... ... ... : ... .. . ... : ... .. . ... : ... .. . ... : ... .. . ... ... : ... .. . ... ... ... : F-1 05 6 ...
ROW 5F : ... .. 1 ... ... ... : ... .. . ... ... ... : ... .. . ... : ... .. . ... : ... .. . FD4 : ... .. . ... ... : ... .. . ... ... ... : F-0 05 3 ...

PATTERN 0D
ROW 00 : A#3 00 2 400 ... ... : ... .. . ... ... ... : G-2 08 . ... : 3-# 04 . ... : C-3 00 . F96 : A#4 06 . V02 400 : D-3 06 . V02 400 ... : G-0 05 D ...
ROW 01 : ... .. . ... ... ... : ... .. . ... ... ... : ... .. . ... : ... .. . ... : ... .. . ... : ... .. . V04 ... : ... .. . V04 ... ... : G-1 05 . ...
ROW 02 : ... .. . ... ... ... : ... .. . ... ... ... : ... .. . ... : ... .. . ... : ... .. . ... : ... .. . ... ... : ... .. . ... ... ... : G-2 05 . ...
ROW 03 : ... .. . ... ... ... : ... .. . ... ... ... : ... .. . ... : ... .. . ... : ... .. . FD4 : ... .. . ... ... : ... .. . ... ... ... : ... .. . ...
ROW 04 : ... .. . ... ... ... : ... .. . ... ... ... : G-3 08 . ... : D-# 01 . ... : ... .. . F96 : ... .. . ... ... : ... .. . ... ... ... : ... .. . ...
ROW 05 : ... .. . ... ... ... : ... .. . ... ... ... : ... .. . ... : ... .. . ... : ... .. . ... : ... .. . ... ... : ... .. . ... ... ... : ... .. . ...
ROW 06 : ... .. . ... ... ... : ... .. . ... ... ... : ... .. . ... : ... .. . ... : ... .. . ... : ... .. . ... ... : ... .. . ... ... ... : ... .. . ...
ROW 07 : ... .. . ... ... ... : ... .. . ... ... ... : ... .. . ... : ... .. . ... : ... .. . FD4 : ... .. . ... ... : ... .. . ... ... ... : ... .. . ...
ROW 08 : ... .. . 482 ... ... : A#4 07 . ... 400 ... : G-2 08 . ... : D-# 01 . ... : ... .. . F96 : ... .. . ... 462 : ... .. . ... 474 ... : ... .. . ...
ROW 09 : ... .. . ... ... ... : ... .. . ... ... ... : ... .. . ... : ... .. . ... : ... .. . ... : ... .. . ... ... : ... .. . ... ... ... : ... .. . ...
ROW 0A : ... .. . ... ... ... : ... .. . ... ... ... : ... .. . ... : ... .. . ... : ... .. . ... : ... .. . ... ... : ... .. . ... ... ... : ... .. . ...
ROW 0B : ... .. . ... ... ... : ... .. . ... ... ... : ... .. . ... : ... .. . ... : ... .. . FD4 : ... .. . ... ... : ... .. . ... ... ... : ... .. . ...
ROW 0C : ... .. . ... ... ... : ... .. . ... ... ... : G-3 08 . ... : 8-# 04 . ... : C#3 00 . F96 : ... .. . ... ... : ... .. . ... ... ... : ... .. . ...
ROW 0D : ... .. . ... ... ... : ... .. . ... ... ... : ... .. . ... : ... .. . ... : ... .. . ... : ... .. . ... ... : ... .. . ... ... ... : ... .. . ...
ROW 0E : ... .. . ... ... ... : ... .. . ... ... ... : ... .. . ... : ... .. . ... : ... .. . ... : ... .. . ... ... : ... .. . ... ... ... : ... .. . ...
ROW 0F : ... .. . ... ... ... : ... .. . ... ... ... : ... .. . ... : ... .. . ... : ... .. . FD4 : ... .. . ... ... : ... .. . ... ... ... : ... .. . ...
ROW 10 : ... .. . ... ... ... : ... .. . ... 442 ... : G-2 08 . ... : D-# 01 . ... : ... .. . F96 : ... .. . ... ... : ... .. . ... ... ... : ... .. . ...
ROW 11 : ... .. . ... ... ... : ... .. . ... ... ... : ... .. . ... : ... .. . ... : ... .. . ... : ... .. . ... ... : ... .. . ... ... ... : ... .. . ...
ROW 12 : ... .. . ... ... ... : ... .. . ... ... ... : ... .. . ... : ... .. . ... : ... .. . ... : ... .. . ... ... : ... .. . ... ... ... : ... .. . ...
ROW 13 : ... .. . ... ... ... : ... .. . ... ... ... : ... .. . ... : ... .. . ... : ... .. . FD4 : ... .. . ... ... : ... .. . ... ... ... : ... .. . ...
ROW 14 : ... .. . ... ... ... : ... .. . ... ... ... : G-3 08 . ... : D-# 01 . ... : ... .. . F96 : ... .. . ... ... : ... .. . ... ... ... : ... .. . ...
ROW 15 : ... .. . ... ... ... : ... .. . ... ... ... : ... .. . ... : ... .. . ... : ... .. . ... : ... .. . ... ... : ... .. . ... ... ... : ... .. . ...
ROW 16 : ... .. . ... ... ... : ... .. . ... ... ... : ... .. . ... : ... .. . ... : ... .. . ... : ... .. . ... ... : ... .. . ... ... ... : ... .. . ...
ROW 17 : ... .. . ... ... ... : ... .. . ... ... ... : ... .. . ... : ... .. . ... : ... .. . FD4 : ... .. . ... ... : ... .. . ... ... ... : ... .. . ...
ROW 18 : ... .. . ... ... ... : ... .. . ... ... ... : G-2 08 . ... : 3-# 04 . ... : C-3 00 . F96 : A#4 06 . V02 400 : D-3 06 . V02 400 ... : ... .. . ...
ROW 19 : ... .. . ... ... ... : ... .. . ... ... ... : ... .. . ... : ... .. . ... : ... .. . ... : ... .. . V04 ... : ... .. . V04 ... ... : ... .. . ...
ROW 1A : ... .. . ... ... ... : ... .. . ... ... ... : ... .. . ... : ... .. . ... : ... .. . ... : ... .. . ... ... : ... .. . ... ... ... : ... .. . ...
ROW 1B : ... .. . ... ... ... : ... .. . ... ... ... : ... .. . ... : ... .. . ... : ... .. . FD4 : ... .. . ... ... : ... .. . ... ... ... : ... .. . ...
ROW 1C : ... .. . ... ... ... : ... .. . ... ... ... : G-3 08 . ... : D-# 01 . ... : ... .. . F96 : ... .. . ... ... : ... .. . ... ... ... : ... .. . ...
ROW 1D : ... .. . ... ... ... : ... .. . ... ... ... : ... .. . ... : ... .. . ... : ... .. . ... : ... .. . ... ... : ... .. . ... ... ... : ... .. . ...
ROW 1E : ... .. . ... ... ... : ... .. . ... ... ... : ... .. . ... : ... .. . ... : ... .. . ... : ... .. . ... ... : ... .. . ... ... ... : ... .. . ...
ROW 1F : ... .. . ... ... ... : ... .. . ... ... ... : ... .. . ... : ... .. . ... : ... .. . FD4 : ... .. . ... ... : ... .. . ... ... ... : ... .. . ...
ROW 20 : ... .. . ... ... ... : A#4 07 . ... 400 ... : G-2 08 . ... : D-# 01 . ... : ... .. . F96 : C-5 06 . V02 ... : E-3 06 . V02 ... ... : ... .. . ...
ROW 21 : ... .. . ... ... ... : ... .. . ... ... ... : ... .. . ... : ... .. . ... : ... .. . ... : ... .. . V04 ... : ... .. . V04 ... ... : ... .. . ...
ROW 22 : ... .. . ... ... ... : ... .. . ... ... ... : ... .. . ... : ... .. . ... : ... .. . ... : ... .. . ... ... : ... .. . ... ... ... : ... .. . ...
ROW 23 : ... .. . ... ... ... : ... .. . ... ... ... : ... .. . ... : ... .. . ... : ... .. . FD4 : ... .. . ... ... : ... .. . ... ... ... : ... .. . ...
ROW 24 : ... .. . ... ... ... : ... .. . ... ... ... : G-3 08 . ... : 8-# 04 . ... : C#3 00 . F96 : ... .. . ... ... : ... .. . ... ... ... : ... .. . ...
ROW 25 : ... .. . ... ... ... : ... .. . ... ... ... : ... .. . ... : ... .. . ... : ... .. . ... : ... .. . ... ... : ... .. . ... ... ... : ... .. . ...
ROW 26 : ... .. . ... ... ... : ... .. . ... ... ... : ... .. . ... : ... .. . ... : ... .. . ... : ... .. . ... ... : ... .. . ... ... ... : ... .. . ...
ROW 27 : ... .. . ... ... ... : ... .. . ... ... ... : ... .. . ... : ... .. . ... : ... .. . FD4 : ... .. . ... ... : ... .. . ... ... ... : ... .. . ...
ROW 28 : ... .. . ... ... ... : C-5 07 . ... ... ... : G-2 08 . ... : D-# 01 . ... : ... .. . F96 : D-5 06 . V02 ... : F-3 06 . V02 ... ... : G-1 05 9 ...
ROW 29 : ... .. . ... ... ... : ... .. . ... ... ... : ... .. . ... : ... .. . ... : ... .. . ... : ... .. . V04 ... : ... .. . V04 ... ... : G-0 05 5 ...
ROW 2A : ... .. . ... ... ... : ... .. . ... ... ... : ... .. . ... : ... .. . ... : ... .. . ... : ... .. . ... ... : ... .. . ... ... ... : G-1 05 8 ...
ROW 2B : ... .. . ... ... ... : ... .. . ... ... ... : ... .. . ... : ... .. . ... : ... .. . FD4 : ... .. . ... ... : ... .. . ... ... ... : G-0 05 5 ...
ROW 2C : ... .. . ... ... ... : ... .. . ... ... ... : G-3 08 . ... : D-# 01 . ... : ... .. . F96 : ... .. . ... ... : ... .. . ... ... ... : G-1 05 7 ...
ROW 2D : ... .. . ... ... ... : ... .. . ... ... ... : ... .. . ... : ... .. . ... : ... .. . ... : ... .. . ... ... : ... .. . ... ... ... : G-0 05 4 ...
ROW 2E : ... .. . ... ... ... : ... .. . ... ... ... : ... .. . ... : ... .. . ... : ... .. . ... : ... .. . ... ... : ... .. . ... ... ... : G-1 05 6 ...
ROW 2F : ... .. 1 ... ... ... : ... .. . ... ... ... : ... .. . ... : ... .. . ... : ... .. . FD4 : ... .. . ... ... : ... .. . ... ... ... : G-0 05 3 ...
ROW 30 : A-3 00 2 400 ... ... : D-5 07 . ... ... ... : A-2 08 . ... : 3-# 04 . ... : C-3 00 . F96 : C#5 06 . V02 ... : G-3 06 . V02 ... ... : A-0 05 D ...
ROW 31 : ... .. . ... ... ... : ... .. . ... ... ... : ... .. . ... : ... .. . ... : ... .. . ... : ... .. . V04 ... : ... .. . V04 ... ... : A-1 05 . ...
ROW 32 : ... .. . ... ... ... : ... .. . ... ... ... : ... .. . ... : ... .. . ... : ... .. . ... : ... .. . ... ... : ... .. . ... ... ... : A-2 05 . ...
ROW 33 : ... .. . ... ... ... : ... .. . ... ... ... : ... .. . ... : ... .. . ... : ... .. . FD4 : ... .. . ... ... : ... .. . ... ... ... : ... .. . ...
ROW 34 : ... .. . ... ... ... : ... .. . ... ... ... : A-3 08 . ... : D-# 01 . ... : ... .. . F96 : ... .. . ... ... : ... .. . ... ... ... : ... .. . ...
ROW 35 : ... .. . ... ... ... : ... .. . ... ... ... : ... .. . ... : ... .. . ... : ... .. . ... : ... .. . ... ... : ... .. . ... ... ... : ... .. . ...
ROW 36 : ... .. . ... ... ... : ... .. . ... ... ... : ... .. . ... : ... .. . ... : ... .. . ... : ... .. . ... ... : ... .. . ... ... ... : ... .. . ...
ROW 37 : ... .. . ... ... ... : ... .. . ... ... ... : ... .. . ... : ... .. . ... : ... .. . FD4 : ... .. . ... ... : ... .. . ... ... ... : ... .. . ...
ROW 38 : ... .. . 482 ... ... : C#5 07 . ... ... ... : A-2 08 . ... : D-# 01 . ... : ... .. . F96 : ... .. . ... 462 : ... .. . ... 474 ... : ... .. . ...
ROW 39 : ... .. . ... ... ... : ... .. . ... ... ... : ... .. . ... : ... .. . ... : ... .. . ... : ... .. . ... ... : ... .. . ... ... ... : ... .. . ...
ROW 3A : ... .. . ... ... ... : ... .. . ... ... ... : ... .. . ... : ... .. . ... : ... .. . ... : ... .. . ... ... : ... .. . ... ... ... : ... .. . ...
ROW 3B : ... .. . ... ... ... : ... .. . ... ... ... : ... .. . ... : ... .. . ... : ... .. . FD4 : ... .. . ... ... : ... .. . ... ... ... : ... .. . ...
ROW 3C : ... .. . ... ... ... : ... .. . ... ... ... : A-3 08 . ... : 8-# 04 . ... : C#3 00 . F96 : ... .. . ... ... : ... .. . ... ... ... : ... .. . ...
ROW 3D : ... .. . ... ... ... : ... .. . ... ... ... : ... .. . ... : ... .. . ... : ... .. . ... : ... .. . ... ... : ... .. . ... ... ... : ... .. . ...
ROW 3E : ... .. . ... ... ... : ... .. . ... ... ... : ... .. . ... : ... .. . ... : ... .. . ... : ... .. . ... ... : ... .. . ... ... ... : ... .. . ...
ROW 3F : ... .. . ... ... ... : ... .. . ... ... ... : ... .. . ... : ... .. . ... : ... .. . FD4 : ... .. . ... ... : ... .. . ... ... ... : ... .. . ...
ROW 40 : ... .. . ... ... ... : ... .. . ... 442 ... : A-2 08 . ... : D-# 01 . ... : ... .. . F96 : ... .. . ... ... : ... .. . ... ... ... : ... .. . ...
ROW 41 : ... .. . ... ... ... : ... .. . ... ... ... : ... .. . ... : ... .. . ... : ... .. . ... : ... .. . ... ... : ... .. . ... ... ... : ... .. . ...
ROW 42 : ... .. . ... ... ... : ... .. . ... ... ... : ... .. . ... : ... .. . ... : ... .. . ... : ... .. . ... ... : ... .. . ... ... ... : ... .. . ...
ROW 43 : ... .. . ... ... ... : ... .. . ... ... ... : ... .. . ... : ... .. . ... : ... .. . FD4 : ... .. . ... ... : ... .. . ... ... ... : ... .. . ...
ROW 44 : ... .. . ... ... ... : ... .. . ... ... ... : A-3 08 . ... : D-# 01 . ... : ... .. . F96 : ... .. . ... ... : ... .. . ... ... ... : ... .. . ...
ROW 45 : ... .. . ... ... ... : ... .. . ... ... ... : ... .. . ... : ... .. . ... : ... .. . ... : ... .. . ... ... : ... .. . ... ... ... : ... .. . ...
ROW 46 : ... .. . ... ... ... : ... .. . ... ... ... : ... .. . ... : ... .. . ... : ... .. . ... : ... .. . ... ... : ... .. . ... ... ... : ... .. . ...
ROW 47 : ... .. . ... ... ... : ... .. . ... ... ... : ... .. . ... : ... .. . ... : ... .. . FD4 : ... .. . ... ... : ... .. . ... ... ... : ... .. . ...
ROW 48 : ... .. . ... ... ... : ... .. . ... ... ... : A-2 08 . ... : 3-# 04 . ... : C-3 00 . F96 : E-5 06 . V02 400 : A-3 06 . V02 400 ... : ... .. . ...
ROW 49 : ... .. . ... ... ... : ... .. . ... ... ... : ... .. . ... : ... .. . ... : ... .. . ... : ... .. . V04 ... : ... .. . V04 ... ... : ... .. . ...
ROW 4A : ... .. . ... ... ... : ... .. . ... ... ... : ... .. . ... : ... .. . ... : ... .. . ... : ... .. . ... ... : ... .. . ... ... ... : ... .. . ...
ROW 4B : ... .. . ... ... ... : ... .. . ... ... ... : ... .. . ... : ... .. . ... : ... .. . FD4 : ... .. . ... ... : ... .. . ... ... ... : ... .. . ...
ROW 4C : ... .. . ... ... ... : ... .. . ... ... ... : A-3 08 . ... : D-# 01 . ... : ... .. . F96 : ... .. . ... ... : ... .. . ... ... ... : ... .. . ...
ROW 4D : ... .. . ... ... ... : ... .. . ... ... ... : ... .. . ... : ... .. . ... : ... .. . ... : ... .. . ... ... : ... .. . ... ... ... : ... .. . ...
ROW 4E : ... .. . ... ... ... : ... .. . ... ... ... : ... .. . ... : ... .. . ... : ... .. . ... : ... .. . ... ... : ... .. . ... ... ... : ... .. . ...
ROW 4F : ... .. . ... ... ... : ... .. . ... ... ... : ... .. . ... : ... .. . ... : ... .. . FD4 : ... .. . ... ... : ... .. . ... ... ... : ... .. . ...
ROW 50 : ... .. . ... ... ... : E-5 07 . ... 400 ... : A-2 08 . ... : D-# 01 . ... : ... .. . F96 : ... .. . ... ... : ... .. . ... ... ... : ... .. . ...
ROW 51 : ... .. . ... ... ... : ... .. . ... ... ... : ... .. . ... : ... .. . ... : ... .. . ... : ... .. . ... ... : ... .. . ... ... ... : ... .. . ...
ROW 52 : ... .. . ... ... ... : ... .. . ... ... ... : ... .. . ... : ... .. . ... : ... .. . ... : ... .. . V05 R1C : ... .. . V05 R3C ... : ... .. . ...
ROW 53 : ... .. . ... ... ... : ... .. . ... ... ... : ... .. . ... : ... .. . ... : ... .. . FD4 : ... .. . ... ... : ... .. . ... ... ... : ... .. . ...
ROW 54 : ... .. . ... ... ... : ... .. . ... ... ... : A-3 08 . ... : 8-# 04 . ... : C#3 00 . F96 : ... .. . ... ... : ... .. . ... ... ... : ... .. . ...
ROW 55 : ... .. . ... ... ... : ... .. . ... ... ... : ... .. . ... : ... .. . ... : ... .. . ... : ... .. . ... ... : ... .. . ... ... ... : ... .. . ...
ROW 56 : ... .. . ... ... ... : ... .. . ... ... ... : ... .. . ... : 8-# 04 . ... : C#3 00 . ... : ... .. . V06 ... : ... .. . ... ... ... : ... .. . ...
ROW 57 : ... .. . ... ... ... : ... .. . ... ... ... : ... .. . ... : ... .. . ... : ... .. . FD4 : ... .. . ... ... : ... .. . ... ... ... : ... .. . ...
ROW 58 : ... .. . ... ... ... : ... .. . ... ... ... : A-2 08 . ... : 8-# 04 . ... : C#3 00 . F96 : ... .. . ... ... : ... .. . ... ... ... : A-1 05 9 ...
ROW 59 : ... .. . ... ... ... : ... .. . ... ... ... : ... .. . ... : ... .. . ... : ... .. . ... : ... .. . ... ... : ... .. . ... ... ... : A-0 05 5 ...
ROW 5A : ... .. . ... ... ... : ... .. . V02 R1C ... : ... .. . ... : ... .. . ... : ... .. . ... : ... .. . V07 ... : ... .. . ... ... ... : A-1 05 8 ...
ROW 5B : ... .. . ... ... ... : ... .. . ... ... ... : ... .. . ... : ... .. . ... : ... .. . FD4 : ... .. . ... ... : ... .. . ... ... ... : A-0 05 5 ...
ROW 5C : ... .. . ... ... ... : ... .. . ... ... ... : A-3 08 . ... : 8-# 04 . ... : C#3 00 . F96 : ... .. . ... ... : ... .. . ... ... ... : A-1 05 7 ...
ROW 5D : ... .. . ... ... ... : ... .. . ... ... ... : ... .. . ... : ... .. . ... : ... .. . ... : ... .. . ... ... : ... .. . ... ... ... : A-0 05 4 ...
ROW 5E : ... .. . ... ... ... : ... .. . ... ... ... : ... .. . ... : ... .. . ... : ... .. . ... : ... .. . ... ... : ... .. . ... ... ... : A-1 05 6 ...
ROW 5F : ... .. 1 ... ... ... : ... .. . ... ... ... : ... .. . ... : ... .. . ... : ... .. . FD4 : ... .. . ... ... : ... .. . ... ... ... : A-0 05 3 ...

PATTERN 0E
ROW 00 : A-4 00 2 400 ... ... : ... .. . ... ... ... : D-3 08 . ... : 3-# 04 . ... : C-3 00 . F96 : D-5 06 . V02 ... : F-3 06 . V02 ... ... : D-1 05 D ...
ROW 01 : ... .. . ... ... ... : ... .. . ... ... ... : ... .. . ... : ... .. . ... : ... .. . ... : ... .. . V04 ... : ... .. . V04 ... ... : D-2 05 . ...
ROW 02 : ... .. . ... ... ... : ... .. . ... ... ... : ... .. . ... : ... .. . ... : ... .. . ... : ... .. . ... ... : ... .. . ... ... ... : D-3 05 . ...
ROW 03 : ... .. . ... ... ... : ... .. . ... ... ... : ... .. . ... : ... .. . ... : ... .. . FD4 : ... .. . ... ... : ... .. . ... ... ... : ... .. . ...
ROW 04 : ... .. . ... ... ... : ... .. . ... ... ... : D-4 08 . ... : D-# 01 . ... : ... .. . F96 : ... .. . ... ... : ... .. . ... ... ... : ... .. . ...
ROW 05 : ... .. . ... ... ... : ... .. . ... ... ... : ... .. . ... : ... .. . ... : ... .. . ... : ... .. . ... ... : ... .. . ... ... ... : ... .. . ...
ROW 06 : ... .. . ... ... ... : ... .. . ... ... ... : ... .. . ... : ... .. . ... : ... .. . ... : ... .. . ... ... : ... .. . ... ... ... : ... .. . ...
ROW 07 : ... .. . ... ... ... : ... .. . ... ... ... : ... .. . ... : ... .. . ... : ... .. . FD4 : ... .. . ... ... : ... .. . ... ... ... : ... .. . ...
ROW 08 : ... .. . 482 ... ... : D-5 07 . V01 ... ... : D-3 08 . ... : D-# 01 . ... : ... .. . F96 : ... .. . ... 472 : ... .. . ... 484 ... : ... .. . ...
ROW 09 : ... .. . ... ... ... : ... .. . ... ... ... : ... .. . ... : ... .. . ... : ... .. . ... : ... .. . ... ... : ... .. . ... ... ... : ... .. . ...
ROW 0A : ... .. . ... ... ... : ... .. . ... ... ... : ... .. . ... : ... .. . ... : ... .. . ... : ... .. . ... ... : ... .. . ... ... ... : ... .. . ...
ROW 0B : ... .. . ... ... ... : ... .. . ... ... ... : ... .. . ... : ... .. . ... : ... .. . FD4 : ... .. . ... ... : ... .. . ... ... ... : ... .. . ...
ROW 0C : ... .. . ... ... ... : ... .. . ... ... ... : D-4 08 . ... : 8-# 04 . ... : C#3 00 . F96 : ... .. . ... ... : ... .. . ... ... ... : ... .. . ...
ROW 0D : ... .. . ... ... ... : ... .. . ... ... ... : ... .. . ... : ... .. . ... : ... .. . ... : ... .. . ... ... : ... .. . ... ... ... : ... .. . ...
ROW 0E : ... .. . ... ... ... : ... .. . ... ... ... : ... .. . ... : ... .. . ... : ... .. . ... : ... .. . ... ... : ... .. . ... ... ... : ... .. . ...
ROW 0F : ... .. . ... ... ... : ... .. . ... ... ... : ... .. . ... : ... .. . ... : ... .. . FD4 : ... .. . ... ... : ... .. . ... ... ... : ... .. . ...
ROW 10 : ... .. . ... ... ... : ... .. . ... 452 ... : D-3 08 . ... : D-# 01 . ... : ... .. . F96 : ... .. . ... ... : ... .. . ... ... ... : ... .. . ...
ROW 11 : ... .. . ... ... ... : ... .. . ... ... ... : ... .. . ... : ... .. . ... : ... .. . ... : ... .. . ... ... : ... .. . ... ... ... : ... .. . ...
ROW 12 : ... .. . ... ... ... : ... .. . ... ... ... : ... .. . ... : ... .. . ... : ... .. . ... : ... .. . ... ... : ... .. . ... ... ... : ... .. . ...
ROW 13 : ... .. . ... ... ... : ... .. . ... ... ... : ... .. . ... : ... .. . ... : ... .. . FD4 : ... .. . ... ... : ... .. . ... ... ... : ... .. . ...
ROW 14 : ... .. . ... ... ... : ... .. . ... ... ... : D-4 08 . ... : D-# 01 . ... : ... .. . F96 : ... .. . ... ... : ... .. . ... ... ... : ... .. . ...
ROW 15 : ... .. . ... ... ... : ... .. . ... ... ... : ... .. . ... : ... .. . ... : ... .. . ... : ... .. . ... ... : ... .. . ... ... ... : ... .. . ...
ROW 16 : ... .. . ... ... ... : ... .. . ... ... ... : ... .. . ... : ... .. . ... : ... .. . ... : ... .. . ... ... : ... .. . ... ... ... : ... .. . ...
ROW 17 : ... .. . ... ... ... : ... .. . ... ... ... : ... .. . ... : ... .. . ... : ... .. . FD4 : ... .. . ... ... : ... .. . ... ... ... : ... .. . ...
ROW 18 : ... .. . ... ... ... : ... .. . ... ... ... : D-3 08 . ... : 3-# 04 . ... : C-3 00 . F96 : F-5 06 . V02 400 : A-3 06 . V02 400 ... : ... .. . ...
ROW 19 : ... .. . ... ... ... : ... .. . ... ... ... : ... .. . ... : ... .. . ... : ... .. . ... : ... .. . V04 ... : ... .. . V04 ... ... : ... .. . ...
ROW 1A : ... .. . ... ... ... : ... .. . ... ... ... : ... .. . ... : ... .. . ... : ... .. . ... : ... .. . ... ... : ... .. . ... ... ... : ... .. . ...
ROW 1B : ... .. . ... ... ... : ... .. . ... ... ... : ... .. . ... : ... .. . ... : ... .. . FD4 : ... .. . ... ... : ... .. . ... ... ... : ... .. . ...
ROW 1C : ... .. . ... ... ... : ... .. . ... ... ... : D-4 08 . ... : D-# 01 . ... : ... .. . F96 : ... .. . ... ... : ... .. . ... ... ... : ... .. . ...
ROW 1D : ... .. . ... ... ... : ... .. . ... ... ... : ... .. . ... : ... .. . ... : ... .. . ... : ... .. . ... ... : ... .. . ... ... ... : ... .. . ...
ROW 1E : ... .. . ... ... ... : ... .. . ... ... ... : ... .. . ... : ... .. . ... : ... .. . ... : ... .. . ... ... : ... .. . ... ... ... : ... .. . ...
ROW 1F : ... .. . ... ... ... : ... .. . ... ... ... : ... .. . ... : ... .. . ... : ... .. . FD4 : ... .. . ... ... : ... .. . ... ... ... : ... .. . ...
ROW 20 : ... .. . ... ... ... : F-5 07 . ... 400 ... : D-3 08 . ... : D-# 01 . ... : ... .. . F96 : ... .. . ... 482 : ... .. . ... 492 ... : ... .. . ...
ROW 21 : ... .. . ... ... ... : ... .. . ... ... ... : ... .. . ... : ... .. . ... : ... .. . ... : ... .. . ... ... : ... .. . ... ... ... : ... .. . ...
ROW 22 : ... .. . ... ... ... : ... .. . ... ... ... : ... .. . ... : ... .. . ... : ... .. . ... : ... .. . ... ... : ... .. . ... ... ... : ... .. . ...
ROW 23 : ... .. . ... ... ... : ... .. . ... ... ... : ... .. . ... : ... .. . ... : ... .. . FD4 : ... .. . ... ... : ... .. . ... ... ... : ... .. . ...
ROW 24 : ... .. . ... ... ... : ... .. . ... ... ... : D-4 08 . ... : 8-# 04 . ... : C#3 00 . F96 : ... .. . ... ... : ... .. . ... ... ... : ... .. . ...
ROW 25 : ... .. . ... ... ... : ... .. . ... ... ... : ... .. . ... : ... .. . ... : ... .. . ... : ... .. . ... ... : ... .. . ... ... ... : ... .. . ...
ROW 26 : ... .. . ... ... ... : ... .. . ... ... ... : ... .. . ... : ... .. . ... : ... .. . ... : ... .. . ... ... : ... .. . ... ... ... : ... .. . ...
ROW 27 : ... .. . ... ... ... : ... .. . ... ... ... : ... .. . ... : ... .. . ... : ... .. . FD4 : ... .. . ... ... : ... .. . ... ... ... : ... .. . ...
ROW 28 : ... .. . ... ... ... : ... .. . ... 462 ... : D-3 08 . ... : D-# 01 . ... : ... .. . F96 : ... .. . ... ... : ... .. . ... ... ... : D-2 05 9 ...
ROW 29 : ... .. . ... ... ... : ... .. . ... ... ... : ... .. . ... : ... .. . ... : ... .. . ... : ... .. . ... ... : ... .. . ... ... ... : D-1 05 5 ...
ROW 2A : ... .. . ... ... ... : ... .. . ... ... ... : ... .. . ... : ... .. . ... : ... .. . ... : ... .. . ... ... : ... .. . ... ... ... : D-2 05 8 ...
ROW 2B : ... .. . ... ... ... : ... .. . ... ... ... : ... .. . ... : ... .. . ... : ... .. . FD4 : ... .. . ... ... : ... .. . ... ... ... : D-1 05 5 ...
ROW 2C : ... .. . ... ... ... : ... .. . ... ... ... : D-4 08 . ... : D-# 01 . ... : ... .. . F96 : ... .. . ... ... : ... .. . ... ... ... : D-2 05 7 ...
ROW 2D : ... .. . ... ... ... : ... .. . ... ... ... : ... .. . ... : ... .. . ... : ... .. . ... : ... .. . ... ... : ... .. . ... ... ... : D-1 05 4 ...
ROW 2E : ... .. . ... ... ... : ... .. . ... ... ... : ... .. . ... : ... .. . ... : ... .. . ... : ... .. . ... ... : ... .. . ... ... ... : D-2 05 6 ...
ROW 2F : ... .. 1 ... ... ... : ... .. . ... ... ... : ... .. . ... : ... .. . ... : ... .. . FD4 : ... .. . ... ... : ... .. . ... ... ... : D-1 05 3 ...
ROW 30 : G-4 00 2 400 ... ... : ... .. . ... ... ... : C-3 08 . ... : 3-# 04 . ... : C-3 00 . F96 : C-5 06 . V02 400 : E-3 06 . V02 400 ... : C-1 05 D ...
ROW 31 : ... .. . ... ... ... : ... .. . ... ... ... : ... .. . ... : ... .. . ... : ... .. . ... : ... .. . V04 ... : ... .. . V04 ... ... : C-2 05 . ...
ROW 32 : ... .. . ... ... ... : ... .. . ... ... ... : ... .. . ... : ... .. . ... : ... .. . ... : ... .. . ... ... : ... .. . ... ... ... : C-3 05 . ...
ROW 33 : ... .. . ... ... ... : ... .. . ... ... ... : ... .. . ... : ... .. . ... : ... .. . FD4 : ... .. . ... ... : ... .. . ... ... ... : ... .. . ...
ROW 34 : ... .. . ... ... ... : ... .. . ... ... ... : C-4 08 . ... : D-# 01 . ... : ... .. . F96 : ... .. . ... ... : ... .. . ... ... ... : ... .. . ...
ROW 35 : ... .. . ... ... ... : ... .. . ... ... ... : ... .. . ... : ... .. . ... : ... .. . ... : ... .. . ... ... : ... .. . ... ... ... : ... .. . ...
ROW 36 : ... .. . ... ... ... : ... .. . ... ... ... : ... .. . ... : ... .. . ... : ... .. . ... : ... .. . ... ... : ... .. . ... ... ... : ... .. . ...
ROW 37 : ... .. . ... ... ... : ... .. . ... ... ... : ... .. . ... : ... .. . ... : ... .. . FD4 : ... .. . ... ... : ... .. . ... ... ... : ... .. . ...
ROW 38 : ... .. . 482 ... ... : C-5 07 . ... 400 ... : C-3 08 . ... : D-# 01 . ... : ... .. . F96 : ... .. . ... 472 : ... .. . ... 484 ... : ... .. . ...
ROW 39 : ... .. . ... ... ... : ... .. . ... ... ... : ... .. . ... : ... .. . ... : ... .. . ... : ... .. . ... ... : ... .. . ... ... ... : ... .. . ...
ROW 3A : ... .. . ... ... ... : ... .. . ... ... ... : ... .. . ... : ... .. . ... : ... .. . ... : ... .. . ... ... : ... .. . ... ... ... : ... .. . ...
ROW 3B : ... .. . ... ... ... : ... .. . ... ... ... : ... .. . ... : ... .. . ... : ... .. . FD4 : ... .. . ... ... : ... .. . ... ... ... : ... .. . ...
ROW 3C : ... .. . ... ... ... : ... .. . ... ... ... : C-4 08 . ... : 8-# 04 . ... : C#3 00 . F96 : ... .. . ... ... : ... .. . ... ... ... : ... .. . ...
ROW 3D : ... .. . ... ... ... : ... .. . ... ... ... : ... .. . ... : ... .. . ... : ... .. . ... : ... .. . ... ... : ... .. . ... ... ... : ... .. . ...
ROW 3E : ... .. . ... ... ... : ... .. . ... ... ... : ... .. . ... : ... .. . ... : ... .. . ... : ... .. . ... ... : ... .. . ... ... ... : ... .. . ...
ROW 3F : ... .. . ... ... ... : ... .. . ... ... ... : ... .. . ... : ... .. . ... : ... .. . FD4 : ... .. . ... ... : ... .. . ... ... ... : ... .. . ...
ROW 40 : ... .. . ... ... ... : ... .. . ... 452 ... : C-3 08 . ... : D-# 01 . ... : ... .. . F96 : ... .. . ... ... : ... .. . ... ... ... : ... .. . ...
ROW 41 : ... .. . ... ... ... : ... .. . ... ... ... : ... .. . ... : ... .. . ... : ... .. . ... : ... .. . ... ... : ... .. . ... ... ... : ... .. . ...
ROW 42 : ... .. . ... ... ... : ... .. . ... ... ... : ... .. . ... : ... .. . ... : ... .. . ... : ... .. . ... ... : ... .. . ... ... ... : ... .. . ...
ROW 43 : ... .. . ... ... ... : ... .. . ... ... ... : ... .. . ... : ... .. . ... : ... .. . FD4 : ... .. . ... ... : ... .. . ... ... ... : ... .. . ...
ROW 44 : ... .. . ... ... ... : ... .. . ... ... ... : C-4 08 . ... : D-# 01 . ... : ... .. . F96 : ... .. . ... ... : ... .. . ... ... ... : ... .. . ...
ROW 45 : ... .. . ... ... ... : ... .. . ... ... ... : ... .. . ... : ... .. . ... : ... .. . ... : ... .. . ... ... : ... .. . ... ... ... : ... .. . ...
ROW 46 : ... .. . ... ... ... : ... .. . ... ... ... : ... .. . ... : ... .. . ... : ... .. . ... : ... .. . ... ... : ... .. . ... ... ... : ... .. . ...
ROW 47 : ... .. . ... ... ... : ... .. . ... ... ... : ... .. . ... : ... .. . ... : ... .. . FD4 : ... .. . ... ... : ... .. . ... ... ... : ... .. . ...
ROW 48 : ... .. . ... ... ... : ... .. . ... ... ... : C-3 08 . ... : 3-# 04 . ... : C-3 00 . F96 : ... .. . ... ... : ... .. . ... ... ... : ... .. . ...
ROW 49 : ... .. . ... ... ... : ... .. . ... ... ... : ... .. . ... : ... .. . ... : ... .. . ... : ... .. . ... ... : ... .. . ... ... ... : ... .. . ...
ROW 4A : ... .. . ... ... ... : ... .. . ... ... ... : ... .. . ... : ... .. . ... : ... .. . ... : ... .. . ... ... : ... .. . ... ... ... : ... .. . ...
ROW 4B : ... .. . ... ... ... : ... .. . ... ... ... : ... .. . ... : ... .. . ... : ... .. . FD4 : ... .. . ... ... : ... .. . ... ... ... : ... .. . ...
ROW 4C : ... .. . ... ... ... : ... .. . ... ... ... : C-4 08 . ... : D-# 01 . ... : ... .. . F96 : ... .. . ... ... : ... .. . ... ... ... : ... .. . ...
ROW 4D : ... .. . ... ... ... : ... .. . ... ... ... : ... .. . ... : ... .. . ... : ... .. . ... : ... .. . ... ... : ... .. . ... ... ... : ... .. . ...
ROW 4E : ... .. . ... ... ... : ... .. . ... ... ... : ... .. . ... : ... .. . ... : ... .. . ... : ... .. . ... ... : ... .. . ... ... ... : ... .. . ...
ROW 4F : ... .. . ... ... ... : ... .. . ... ... ... : ... .. . ... : ... .. . ... : ... .. . FD4 : ... .. . ... ... : ... .. . ... ... ... : ... .. . ...
ROW 50 : ... .. . ... ... ... : ... .. . ... ... ... : C-3 08 . ... : D-# 01 . ... : ... .. . F96 : ... .. . ... ... : ... .. . ... ... ... : ... .. . ...
ROW 51 : ... .. . ... ... ... : ... .. . ... ... ... : ... .. . ... : ... .. . ... : ... .. . ... : ... .. . ... ... : ... .. . ... ... ... : ... .. . ...
ROW 52 : ... .. . ... ... ... : ... .. . ... ... ... : ... .. . ... : ... .. . ... : ... .. . ... : ... .. . ... ... : ... .. . ... ... ... : ... .. . ...
ROW 53 : ... .. . ... ... ... : ... .. . ... ... ... : ... .. . ... : ... .. . ... : ... .. . FD4 : ... .. . ... ... : ... .. . ... ... ... : ... .. . ...
ROW 54 : ... .. . ... ... ... : ... .. . ... ... ... : C-4 08 . ... : 8-# 04 . ... : C#3 00 . F96 : D-5 06 . V02 400 : F-3 06 . V02 400 ... : ... .. . ...
ROW 55 : ... .. . ... ... ... : ... .. . ... ... ... : ... .. . ... : ... .. . ... : ... .. . ... : ... .. . V04 ... : ... .. . V04 ... ... : ... .. . ...
ROW 56 : ... .. . ... ... ... : ... .. . ... ... ... : ... .. . ... : ... .. . ... : ... .. . ... : ... .. . ... ... : ... .. . ... ... ... : ... .. . ...
ROW 57 : ... .. . ... ... ... : ... .. . ... ... ... : ... .. . ... : ... .. . ... : ... .. . FD4 : ... .. . ... ... : ... .. . ... ... ... : ... .. . ...
ROW 58 : ... .. . ... ... ... : ... .. . ... ... ... : C-3 08 . ... : D-# 01 . ... : ... .. . F96 : ... .. . ... ... : ... .. . ... ... ... : C-2 05 9 ...
ROW 59 : ... .. . ... ... ... : ... .. . ... ... ... : ... .. . ... : ... .. . ... : ... .. . ... : ... .. . ... ... : ... .. . ... ... ... : C-1 05 5 ...
ROW 5A : ... .. . ... ... ... : ... .. . ... ... ... : ... .. . ... : ... .. . ... : ... .. . ... : ... .. . ... ... : ... .. . ... ... ... : C-2 05 8 ...
ROW 5B : ... .. . ... ... ... : ... .. . ... ... ... : ... .. . ... : ... .. . ... : ... .. . FD4 : ... .. . ... ... : ... .. . ... ... ... : C-1 05 5 ...
ROW 5C : ... .. . ... ... ... : D-5 07 . ... 400 ... : C-4 08 . ... : D-# 01 . ... : ... .. . F96 : ... .. . ... ... : ... .. . ... ... ... : C-2 05 7 ...
ROW 5D : ... .. . ... ... ... : ... .. . ... ... ... : ... .. . ... : ... .. . ... : ... .. . ... : ... .. . ... ... : ... .. . ... ... ... : C-1 05 4 ...
ROW 5E : ... .. . ... ... ... : ... .. . ... ... ... : ... .. . ... : ... .. . ... : ... .. . ... : ... .. . ... ... : ... .. . ... ... ... : C-2 05 6 ...
ROW 5F : ... .. 1 ... ... ... : ... .. . ... ... ... : ... .. . ... : ... .. . ... : ... .. . FD4 : ... .. . ... ... : ... .. . ... ... ... : C-1 05 3 ...

PATTERN 0F
ROW 00 : F-4 00 2 400 ... ... : ... .. . ... ... ... : G-2 08 . ... : 3-# 04 . ... : C-3 00 . F96 : G-5 06 . V02 ... : A#3 06 . V02 ... ... : G-0 05 D ...
ROW 01 : ... .. . ... ... ... : ... .. . ... ... ... : ... .. . ... : ... .. . ... : ... .. . ... : ... .. . V04 ... : ... .. . V04 ... ... : G-1 05 . ...
ROW 02 : ... .. . ... ... ... : ... .. . ... ... ... : ... .. . ... : ... .. . ... : ... .. . ... : ... .. . ... ... : ... .. . ... ... ... : G-2 05 . ...
ROW 03 : ... .. . ... ... ... : ... .. . ... ... ... : ... .. . ... : ... .. . ... : ... .. . FD4 : ... .. . ... ... : ... .. . ... ... ... : ... .. . ...
ROW 04 : ... .. . ... ... ... : ... .. . ... ... ... : G-3 08 . ... : D-# 01 . ... : ... .. . F96 : ... .. . ... ... : ... .. . ... ... ... : ... .. . ...
ROW 05 : ... .. . ... ... ... : ... .. . ... ... ... : ... .. . ... : ... .. . ... : ... .. . ... : ... .. . ... ... : ... .. . ... ... ... : ... .. . ...
ROW 06 : ... .. . ... ... ... : ... .. . ... ... ... : ... .. . ... : ... .. . ... : ... .. . ... : ... .. . ... ... : ... .. . ... ... ... : ... .. . ...
ROW 07 : ... .. . ... ... ... : ... .. . ... ... ... : ... .. . ... : ... .. . ... : ... .. . FD4 : ... .. . ... ... : ... .. . ... ... ... : ... .. . ...
ROW 08 : ... .. . 482 ... ... : G-5 07 . ... ... ... : G-2 08 . ... : D-# 01 . ... : ... .. . F96 : ... .. . ... 481 : ... .. . ... 492 ... : ... .. . ...
ROW 09 : ... .. . ... ... ... : ... .. . ... ... ... : ... .. . ... : ... .. . ... : ... .. . ... : ... .. . ... ... : ... .. . ... ... ... : ... .. . ...
ROW 0A : ... .. . ... ... ... : ... .. . ... ... ... : ... .. . ... : ... .. . ... : ... .. . ... : ... .. . ... ... : ... .. . ... ... ... : ... .. . ...
ROW 0B : ... .. . ... ... ... : ... .. . ... ... ... : ... .. . ... : ... .. . ... : ... .. . FD4 : ... .. . ... ... : ... .. . ... ... ... : ... .. . ...
ROW 0C : ... .. . ... ... ... : ... .. . ... ... ... : G-3 08 . ... : 8-# 04 . ... : C#3 00 . F96 : ... .. . ... ... : ... .. . ... ... ... : ... .. . ...
ROW 0D : ... .. . ... ... ... : ... .. . ... ... ... : ... .. . ... : ... .. . ... : ... .. . ... : ... .. . ... ... : ... .. . ... ... ... : ... .. . ...
ROW 0E : ... .. . ... ... ... : ... .. . ... ... ... : ... .. . ... : ... .. . ... : ... .. . ... : ... .. . ... ... : ... .. . ... ... ... : ... .. . ...
ROW 0F : ... .. . ... ... ... : ... .. . ... ... ... : ... .. . ... : ... .. . ... : ... .. . FD4 : ... .. . ... ... : ... .. . ... ... ... : ... .. . ...
ROW 10 : ... .. . ... ... ... : ... .. . ... 461 ... : G-2 08 . ... : D-# 01 . ... : ... .. . F96 : ... .. . ... ... : ... .. . ... ... ... : ... .. . ...
ROW 11 : ... .. . ... ... ... : ... .. . ... ... ... : ... .. . ... : ... .. . ... : ... .. . ... : ... .. . ... ... : ... .. . ... ... ... : ... .. . ...
ROW 12 : ... .. . ... ... ... : ... .. . ... ... ... : ... .. . ... : ... .. . ... : ... .. . ... : ... .. . ... ... : ... .. . ... ... ... : ... .. . ...
ROW 13 : ... .. . ... ... ... : ... .. . ... ... ... : ... .. . ... : ... .. . ... : ... .. . FD4 : ... .. . ... ... : ... .. . ... ... ... : ... .. . ...
ROW 14 : ... .. . ... ... ... : ... .. . ... ... ... : G-3 08 . ... : D-# 01 . ... : ... .. . F96 : ... .. . ... ... : ... .. . ... ... ... : ... .. . ...
ROW 15 : ... .. . ... ... ... : ... .. . ... ... ... : ... .. . ... : ... .. . ... : ... .. . ... : ... .. . ... ... : ... .. . ... ... ... : ... .. . ...
ROW 16 : ... .. . ... ... ... : ... .. . ... ... ... : ... .. . ... : ... .. . ... : ... .. . ... : ... .. . ... ... : ... .. . ... ... ... : ... .. . ...
ROW 17 : ... .. . ... ... ... : ... .. . ... ... ... : ... .. . ... : ... .. . ... : ... .. . FD4 : ... .. . ... ... : ... .. . ... ... ... : ... .. . ...
ROW 18 : ... .. . ... ... ... : ... .. . ... ... ... : G-2 08 . ... : 3-# 04 . ... : C-3 00 . F96 : ... .. . ... ... : ... .. . ... ... ... : ... .. . ...
ROW 19 : ... .. . ... ... ... : ... .. . ... ... ... : ... .. . ... : ... .. . ... : ... .. . ... : ... .. . ... ... : ... .. . ... ... ... : ... .. . ...
ROW 1A : ... .. . ... ... ... : ... .. . ... ... ... : ... .. . ... : ... .. . ... : ... .. . ... : ... .. . ... ... : ... .. . ... ... ... : ... .. . ...
ROW 1B : ... .. . ... ... ... : ... .. . ... ... ... : ... .. . ... : ... .. . ... : ... .. . FD4 : ... .. . ... ... : ... .. . ... ... ... : ... .. . ...
ROW 1C : ... .. . ... ... ... : ... .. . ... ... ... : G-3 08 . ... : D-# 01 . ... : ... .. . F96 : ... .. . ... ... : ... .. . ... ... ... : ... .. . ...
ROW 1D : ... .. . ... ... ... : ... .. . ... ... ... : ... .. . ... : ... .. . ... : ... .. . ... : ... .. . ... ... : ... .. . ... ... ... : ... .. . ...
ROW 1E : ... .. . ... ... ... : ... .. . ... ... ... : ... .. . ... : ... .. . ... : ... .. . ... : ... .. . ... ... : ... .. . ... ... ... : ... .. . ...
ROW 1F : ... .. . ... ... ... : ... .. . ... ... ... : ... .. . ... : ... .. . ... : ... .. . FD4 : ... .. . ... ... : ... .. . ... ... ... : ... .. . ...
ROW 20 : ... .. . ... ... ... : ... .. . ... ... ... : G-2 08 . ... : D-# 01 . ... : ... .. . F96 : ... .. . ... ... : ... .. . ... ... ... : ... .. . ...
ROW 21 : ... .. . ... ... ... : ... .. . ... ... ... : ... .. . ... : ... .. . ... : ... .. . ... : ... .. . ... ... : ... .. . ... ... ... : ... .. . ...
ROW 22 : ... .. . ... ... ... : ... .. . ... ... ... : ... .. . ... : ... .. . ... : ... .. . ... : ... .. . ... ... : ... .. . ... ... ... : ... .. . ...
ROW 23 : ... .. . ... ... ... : ... .. . ... ... ... : ... .. . ... : ... .. . ... : ... .. . FD4 : ... .. . ... ... : ... .. . ... ... ... : ... .. . ...
ROW 24 : ... .. . ... ... ... : ... .. . ... ... ... : G-3 08 . ... : 8-# 04 . ... : C#3 00 . F96 : D-5 06 . V02 400 : G-3 06 . V02 400 ... : ... .. . ...
ROW 25 : ... .. . ... ... ... : ... .. . ... ... ... : ... .. . ... : ... .. . ... : ... .. . ... : ... .. . V04 ... : ... .. . V04 ... ... : ... .. . ...
ROW 26 : ... .. . ... ... ... : ... .. . ... ... ... : ... .. . ... : ... .. . ... : ... .. . ... : ... .. . ... ... : ... .. . ... ... ... : ... .. . ...
ROW 27 : ... .. . ... ... ... : ... .. . ... ... ... : ... .. . ... : ... .. . ... : ... .. . FD4 : ... .. . ... ... : ... .. . ... ... ... : ... .. . ...
ROW 28 : ... .. . ... ... ... : ... .. . ... ... ... : G-2 08 . ... : D-# 01 . ... : ... .. . F96 : ... .. . ... ... : ... .. . ... ... ... : G-1 05 9 ...
ROW 29 : ... .. . ... ... ... : ... .. . ... ... ... : ... .. . ... : ... .. . ... : ... .. . ... : ... .. . ... ... : ... .. . ... ... ... : G-0 05 5 ...
ROW 2A : ... .. . ... ... ... : ... .. . ... ... ... : ... .. . ... : ... .. . ... : ... .. . ... : ... .. . ... ... : ... .. . ... ... ... : G-1 05 8 ...
ROW 2B : ... .. . ... ... ... : ... .. . ... ... ... : ... .. . ... : ... .. . ... : ... .. . FD4 : ... .. . ... ... : ... .. . ... ... ... : G-0 05 5 ...
ROW 2C : ... .. . ... ... ... : D-5 07 . ... 400 ... : G-3 08 . ... : D-# 01 . ... : ... .. . F96 : ... .. . ... ... : ... .. . ... ... ... : G-1 05 7 ...
ROW 2D : ... .. . ... ... ... : ... .. . ... ... ... : ... .. . ... : ... .. . ... : ... .. . ... : ... .. . ... ... : ... .. . ... ... ... : G-0 05 4 ...
ROW 2E : ... .. . ... ... ... : ... .. . ... ... ... : ... .. . ... : ... .. . ... : ... .. . ... : ... .. . ... ... : ... .. . ... ... ... : G-1 05 6 ...
ROW 2F : ... .. 1 ... ... ... : ... .. . ... ... ... : ... .. . ... : ... .. . ... : ... .. . FD4 : ... .. . ... ... : ... .. . ... ... ... : G-0 05 3 ...
ROW 30 : E-4 00 2 400 ... ... : ... .. . ... ... ... : A-2 08 . ... : 3-# 04 . ... : C-3 00 . F96 : E-5 06 . V02 ... : A-3 06 . V02 ... ... : A-0 05 D ...
ROW 31 : ... .. . ... ... ... : ... .. . ... ... ... : ... .. . ... : ... .. . ... : ... .. . ... : ... .. . V04 ... : ... .. . V04 ... ... : A-1 05 . ...
ROW 32 : ... .. . ... ... ... : ... .. . ... ... ... : ... .. . ... : ... .. . ... : ... .. . ... : ... .. . ... ... : ... .. . ... ... ... : A-2 05 . ...
ROW 33 : ... .. . ... ... ... : ... .. . ... ... ... : ... .. . ... : ... .. . ... : ... .. . FD4 : ... .. . ... ... : ... .. . ... ... ... : ... .. . ...
ROW 34 : ... .. . ... ... ... : ... .. . ... ... ... : A-3 08 . ... : D-# 01 . ... : ... .. . F96 : ... .. . ... ... : ... .. . ... ... ... : ... .. . ...
ROW 35 : ... .. . ... ... ... : ... .. . ... ... ... : ... .. . ... : ... .. . ... : ... .. . ... : ... .. . ... ... : ... .. . ... ... ... : ... .. . ...
ROW 36 : ... .. . ... ... ... : ... .. . ... ... ... : ... .. . ... : ... .. . ... : ... .. . ... : ... .. . ... ... : ... .. . ... ... ... : ... .. . ...
ROW 37 : ... .. . ... ... ... : ... .. . ... ... ... : ... .. . ... : ... .. . ... : ... .. . FD4 : ... .. . ... ... : ... .. . ... ... ... : ... .. . ...
ROW 38 : ... .. . 482 ... ... : E-5 07 . ... ... ... : A-2 08 . ... : D-# 01 . ... : ... .. . F96 : ... .. . ... 482 : ... .. . ... 492 ... : ... .. . ...
ROW 39 : ... .. . ... ... ... : ... .. . ... ... ... : ... .. . ... : ... .. . ... : ... .. . ... : ... .. . ... ... : ... .. . ... ... ... : ... .. . ...
ROW 3A : ... .. . ... ... ... : ... .. . ... ... ... : ... .. . ... : ... .. . ... : ... .. . ... : ... .. . ... ... : ... .. . ... ... ... : ... .. . ...
ROW 3B : ... .. . ... ... ... : ... .. . ... ... ... : ... .. . ... : ... .. . ... : ... .. . FD4 : ... .. . ... ... : ... .. . ... ... ... : ... .. . ...
ROW 3C : ... .. . ... ... ... : ... .. . ... ... ... : A-3 08 . ... : 8-# 04 . ... : C#3 00 . F96 : ... .. . ... ... : ... .. . ... ... ... : ... .. . ...
ROW 3D : ... .. . ... ... ... : ... .. . ... ... ... : ... .. . ... : ... .. . ... : ... .. . ... : ... .. . ... ... : ... .. . ... ... ... : ... .. . ...
ROW 3E : ... .. . ... ... ... : ... .. . ... ... ... : ... .. . ... : ... .. . ... : ... .. . ... : ... .. . ... ... : ... .. . ... ... ... : ... .. . ...
ROW 3F : ... .. . ... ... ... : ... .. . ... ... ... : ... .. . ... : ... .. . ... : ... .. . FD4 : ... .. . ... ... : ... .. . ... ... ... : ... .. . ...
ROW 40 : ... .. . ... ... ... : ... .. . ... 462 ... : A-2 08 . ... : D-# 01 . ... : ... .. . F96 : ... .. . ... ... : ... .. . ... ... ... : ... .. . ...
ROW 41 : ... .. . ... ... ... : ... .. . ... ... ... : ... .. . ... : ... .. . ... : ... .. . ... : ... .. . ... ... : ... .. . ... ... ... : ... .. . ...
ROW 42 : ... .. . ... ... ... : ... .. . ... ... ... : ... .. . ... : ... .. . ... : ... .. . ... : ... .. . ... ... : ... .. . ... ... ... : ... .. . ...
ROW 43 : ... .. . ... ... ... : ... .. . ... ... ... : ... .. . ... : ... .. . ... : ... .. . FD4 : ... .. . ... ... : ... .. . ... ... ... : ... .. . ...
ROW 44 : ... .. . ... ... ... : ... .. . ... ... ... : A-3 08 . ... : D-# 01 . ... : ... .. . F96 : A-4 06 . V02 400 : C-3 06 . V02 400 ... : ... .. . ...
ROW 45 : ... .. . ... ... ... : ... .. . ... ... ... : ... .. . ... : ... .. . ... : ... .. . ... : ... .. . V04 ... : ... .. . V04 ... ... : ... .. . ...
ROW 46 : ... .. . ... ... ... : ... .. . ... ... ... : ... .. . ... : ... .. . ... : ... .. . ... : ... .. . ... ... : ... .. . ... ... ... : ... .. . ...
ROW 47 : ... .. . ... ... ... : ... .. . ... ... ... : ... .. . ... : ... .. . ... : ... .. . FD4 : ... .. . ... ... : ... .. . ... ... ... : ... .. . ...
ROW 48 : ... .. . ... ... ... : ... .. . ... ... ... : A-2 08 . ... : 3-# 04 . ... : C-3 00 . F96 : ... .. . ... ... : ... .. . ... ... ... : ... .. . ...
ROW 49 : ... .. . ... ... ... : ... .. . ... ... ... : ... .. . ... : ... .. . ... : ... .. . ... : ... .. . ... ... : ... .. . ... ... ... : ... .. . ...
ROW 4A : ... .. . ... ... ... : ... .. . ... ... ... : ... .. . ... : ... .. . ... : ... .. . ... : ... .. . ... ... : ... .. . ... ... ... : ... .. . ...
ROW 4B : ... .. . ... ... ... : ... .. . ... ... ... : ... .. . ... : ... .. . ... : ... .. . FD4 : ... .. . ... ... : ... .. . ... ... ... : ... .. . ...
ROW 4C : ... .. . ... ... ... : A-4 07 . ... 400 ... : A-3 08 . ... : D-# 01 . ... : ... .. . F96 : ... .. . ... 462 : ... .. . ... 474 ... : ... .. . ...
ROW 4D : ... .. . ... ... ... : ... .. . ... ... ... : ... .. . ... : ... .. . ... : ... .. . ... : ... .. . ... ... : ... .. . ... ... ... : ... .. . ...
ROW 4E : ... .. . ... ... ... : ... .. . ... ... ... : ... .. . ... : ... .. . ... : ... .. . ... : ... .. . ... ... : ... .. . ... ... ... : ... .. . ...
ROW 4F : ... .. . ... ... ... : ... .. . ... ... ... : ... .. . ... : ... .. . ... : ... .. . FD4 : ... .. . ... ... : ... .. . ... ... ... : ... .. . ...
ROW 50 : ... .. . ... ... ... : ... .. . ... ... ... : A-2 08 . ... : D-# 01 . ... : ... .. . F96 : ... .. . ... ... : ... .. . ... ... ... : ... .. . ...
ROW 51 : ... .. . ... ... ... : ... .. . ... ... ... : ... .. . ... : ... .. . ... : ... .. . ... : ... .. . ... ... : ... .. . ... ... ... : ... .. . ...
ROW 52 : ... .. . ... ... ... : ... .. . ... ... ... : ... .. . ... : ... .. . ... : ... .. . ... : ... .. . ... ... : ... .. . ... ... ... : ... .. . ...
ROW 53 : ... .. . ... ... ... : ... .. . ... ... ... : ... .. . ... : ... .. . ... : ... .. . FD4 : ... .. . ... ... : ... .. . ... ... ... : ... .. . ...
ROW 54 : ... .. . ... ... ... : ... .. . ... 442 ... : A-3 08 . ... : 8-# 04 . ... : C#3 00 . F96 : ... .. . ... ... : ... .. . ... ... ... : ... .. . ...
ROW 55 : ... .. . ... ... ... : ... .. . ... ... ... : ... .. . ... : ... .. . ... : ... .. . ... : ... .. . ... ... : ... .. . ... ... ... : ... .. . ...
ROW 56 : ... .. . ... ... ... : ... .. . ... ... ... : ... .. . ... : ... .. . ... : ... .. . ... : ... .. . V05 R15 : ... .. . V05 R23 ... : ... .. . ...
ROW 57 : ... .. . ... ... ... : ... .. . ... ... ... : ... .. . ... : ... .. . ... : ... .. . FD4 : ... .. . ... ... : ... .. . ... ... ... : ... .. . ...
ROW 58 : ... .. . ... ... ... : ... .. . ... ... ... : A-2 08 . ... : D-# 01 . ... : ... .. . F96 : ... .. . ... R20 : ... .. . ... R40 ... : A-1 05 9 ...
ROW 59 : ... .. . ... ... ... : ... .. . ... ... ... : ... .. . ... : ... .. . ... : ... .. . ... : ... .. . ... ... : ... .. . ... ... ... : A-0 05 5 ...
ROW 5A : ... .. . ... ... ... : ... .. . ... ... ... : ... .. . ... : ... .. . ... : ... .. . ... : ... .. . ... ... : ... .. . ... ... ... : A-1 05 8 ...
ROW 5B : ... .. . ... ... ... : ... .. . ... ... ... : ... .. . ... : ... .. . ... : ... .. . FD4 : ... .. . ... ... : ... .. . ... ... ... : A-0 05 5 ...
ROW 5C : ... .. . ... ... ... : ... .. . ... ... ... : A-3 08 . ... : D-# 01 . ... : ... .. . F96 : ... .. . ... ... : ... .. . ... ... ... : A-1 05 7 ...
ROW 5D : ... .. . ... ... ... : ... .. . ... ... ... : ... .. . ... : ... .. . ... : ... .. . ... : ... .. . ... ... : ... .. . ... ... ... : A-0 05 4 ...
ROW 5E : ... .. . ... ... ... : ... .. . ... R15 ... : ... .. . ... : ... .. . ... : ... .. . ... : ... .. . ... ... : ... .. . ... ... ... : A-1 05 6 ...
ROW 5F : ... .. 1 ... ... ... : ... .. . ... ... ... : ... .. . ... : ... .. . ... : ... .. . FD4 : ... .. . ... ... : ... .. . ... ... ... : A-0 05 3 ...

PATTERN 10
ROW 00 : A-4 00 2 400 ... ... : ... .. . ... R20 ... : D-3 08 . ... : 3-# 04 . ... : C-3 00 . F96 : F-4 06 . V02 400 : A-2 06 . V02 400 ... : D-1 05 D ...
ROW 01 : ... .. . ... ... ... : ... .. . ... ... ... : ... .. . ... : ... .. . ... : ... .. . ... : ... .. . V04 ... : ... .. . V04 ... ... : D-2 05 . ...
ROW 02 : ... .. . ... ... ... : ... .. . ... ... ... : ... .. . ... : ... .. . ... : ... .. . ... : ... .. . ... ... : ... .. . ... ... ... : D-3 05 . ...
ROW 03 : ... .. . ... ... ... : ... .. . ... ... ... : ... .. . ... : ... .. . ... : ... .. . FD4 : ... .. . ... ... : ... .. . ... ... ... : ... .. . ...
ROW 04 : ... .. . ... ... ... : ... .. . ... ... ... : D-4 08 . ... : D-# 01 . ... : ... .. . F96 : ... .. . ... ... : ... .. . ... ... ... : ... .. . ...
ROW 05 : ... .. . ... ... ... : ... .. . ... ... ... : ... .. . ... : ... .. . ... : ... .. . ... : ... .. . ... ... : ... .. . ... ... ... : ... .. . ...
ROW 06 : ... .. . ... ... ... : ... .. . ... ... ... : ... .. . ... : ... .. . ... : ... .. . ... : ... .. . ... ... : ... .. . ... ... ... : ... .. . ...
ROW 07 : ... .. . ... ... ... : ... .. . ... ... ... : ... .. . ... : ... .. . ... : ... .. . FD4 : ... .. . ... ... : ... .. . ... ... ... : ... .. . ...
ROW 08 : ... .. . 482 ... ... : F-4 07 . ... 400 ... : D-3 08 . ... : D-# 01 . ... : ... .. . F96 : ... .. . ... ... : ... .. . ... ... ... : ... .. . ...
ROW 09 : ... .. . ... ... ... : ... .. . ... ... ... : ... .. . ... : ... .. . ... : ... .. . ... : ... .. . ... ... : ... .. . ... ... ... : ... .. . ...
ROW 0A : ... .. . ... ... ... : ... .. . ... ... ... : ... .. . ... : ... .. . ... : ... .. . ... : ... .. . ... ... : ... .. . ... ... ... : ... .. . ...
ROW 0B : ... .. . ... ... ... : ... .. . ... ... ... : ... .. . ... : ... .. . ... : ... .. . FD4 : ... .. . ... ... : ... .. . ... ... ... : ... .. . ...
ROW 0C : ... .. . ... ... ... : ... .. . ... ... ... : D-4 08 . ... : 8-# 04 . ... : C#3 00 . F96 : C-5 06 . V02 ... : E-3 06 . V02 ... ... : ... .. . ...
ROW 0D : ... .. . ... ... ... : ... .. . ... ... ... : ... .. . ... : ... .. . ... : ... .. . ... : ... .. . V04 ... : ... .. . V04 ... ... : ... .. . ...
ROW 0E : ... .. . ... ... ... : ... .. . ... ... ... : ... .. . ... : ... .. . ... : ... .. . ... : ... .. . ... ... : ... .. . ... ... ... : ... .. . ...
ROW 0F : ... .. . ... ... ... : ... .. . ... ... ... : ... .. . ... : ... .. . ... : ... .. . FD4 : ... .. . ... ... : ... .. . ... ... ... : ... .. . ...
ROW 10 : ... .. . ... ... ... : ... .. . ... ... ... : D-3 08 . ... : D-# 01 . ... : ... .. . F96 : ... .. . ... ... : ... .. . ... ... ... : ... .. . ...
ROW 11 : ... .. . ... ... ... : ... .. . ... ... ... : ... .. . ... : ... .. . ... : ... .. . ... : ... .. . ... ... : ... .. . ... ... ... : ... .. . ...
ROW 12 : ... .. . ... ... ... : ... .. . ... ... ... : ... .. . ... : ... .. . ... : ... .. . ... : ... .. . ... ... : ... .. . ... ... ... : ... .. . ...
ROW 13 : ... .. . ... ... ... : ... .. . ... ... ... : ... .. . ... : ... .. . ... : ... .. . FD4 : ... .. . ... ... : ... .. . ... ... ... : ... .. . ...
ROW 14 : ... .. . ... ... ... : C-5 07 . ... ... ... : D-4 08 . ... : D-# 01 . ... : ... .. . F96 : D-5 06 . V02 ... : F-3 06 . V02 ... ... : ... .. . ...
ROW 15 : ... .. . ... ... ... : ... .. . ... ... ... : ... .. . ... : ... .. . ... : ... .. . ... : ... .. . V04 ... : ... .. . V04 ... ... : ... .. . ...
ROW 16 : ... .. . ... ... ... : ... .. . ... ... ... : ... .. . ... : ... .. . ... : ... .. . ... : ... .. . ... ... : ... .. . ... ... ... : ... .. . ...
ROW 17 : ... .. . ... ... ... : ... .. . ... ... ... : ... .. . ... : ... .. . ... : ... .. . FD4 : ... .. . ... ... : ... .. . ... ... ... : ... .. . ...
ROW 18 : ... .. . ... ... ... : ... .. . ... ... ... : D-3 08 . ... : 3-# 04 . ... : C-3 00 . F96 : ... .. . ... ... : ... .. . ... ... ... : ... .. . ...
ROW 19 : ... .. . ... ... ... : ... .. . ... ... ... : ... .. . ... : ... .. . ... : ... .. . ... : ... .. . ... ... : ... .. . ... ... ... : ... .. . ...
ROW 1A : ... .. . ... ... ... : ... .. . ... ... ... : ... .. . ... : ... .. . ... : ... .. . ... : ... .. . ... ... : ... .. . ... ... ... : ... .. . ...
ROW 1B : ... .. . ... ... ... : ... .. . ... ... ... : ... .. . ... : ... .. . ... : ... .. . FD4 : ... .. . ... ... : ... .. . ... ... ... : ... .. . ...
ROW 1C : ... .. . ... ... ... : D-5 07 . ... ... ... : D-4 08 . ... : D-# 01 . ... : ... .. . F96 : ... .. . ... 481 : ... .. . ... 492 ... : ... .. . ...
ROW 1D : ... .. . ... ... ... : ... .. . ... ... ... : ... .. . ... : ... .. . ... : ... .. . ... : ... .. . ... ... : ... .. . ... ... ... : ... .. . ...
ROW 1E : ... .. . ... ... ... : ... .. . ... ... ... : ... .. . ... : ... .. . ... : ... .. . ... : ... .. . ... ... : ... .. . ... ... ... : ... .. . ...
ROW 1F : ... .. . ... ... ... : ... .. . ... ... ... : ... .. . ... : ... .. . ... : ... .. . FD4 : ... .. . ... ... : ... .. . ... ... ... : ... .. . ...
ROW 20 : ... .. . ... ... ... : ... .. . ... ... ... : D-3 08 . ... : D-# 01 . ... : ... .. . F96 : ... .. . ... ... : ... .. . ... ... ... : ... .. . ...
ROW 21 : ... .. . ... ... ... : ... .. . ... ... ... : ... .. . ... : ... .. . ... : ... .. . ... : ... .. . ... ... : ... .. . ... ... ... : ... .. . ...
ROW 22 : ... .. . ... ... ... : ... .. . ... ... ... : ... .. . ... : ... .. . ... : ... .. . ... : ... .. . ... ... : ... .. . ... ... ... : ... .. . ...
ROW 23 : ... .. . ... ... ... : ... .. . ... ... ... : ... .. . ... : ... .. . ... : ... .. . FD4 : ... .. . ... ... : ... .. . ... ... ... : ... .. . ...
ROW 24 : ... .. . ... ... ... : ... .. . ... 461 ... : D-4 08 . ... : 8-# 04 . ... : C#3 00 . F96 : C-5 06 . V02 400 : E-3 06 . V02 400 ... : ... .. . ...
ROW 25 : ... .. . ... ... ... : ... .. . ... ... ... : ... .. . ... : ... .. . ... : ... .. . ... : ... .. . V04 ... : ... .. . V04 ... ... : ... .. . ...
ROW 26 : ... .. . ... ... ... : ... .. . ... ... ... : ... .. . ... : ... .. . ... : ... .. . ... : ... .. . ... ... : ... .. . ... ... ... : ... .. . ...
ROW 27 : ... .. . ... ... ... : ... .. . ... ... ... : ... .. . ... : ... .. . ... : ... .. . FD4 : ... .. . ... ... : ... .. . ... ... ... : ... .. . ...
ROW 28 : ... .. . ... ... ... : ... .. . ... ... ... : D-3 08 . ... : D-# 01 . ... : ... .. . F96 : ... .. . ... ... : ... .. . ... ... ... : D-2 05 9 ...
ROW 29 : ... .. . ... ... ... : ... .. . ... ... ... : ... .. . ... : ... .. . ... : ... .. . ... : ... .. . ... ... : ... .. . ... ... ... : D-1 05 5 ...
ROW 2A : ... .. . ... ... ... : ... .. . ... ... ... : ... .. . ... : ... .. . ... : ... .. . ... : ... .. . ... ... : ... .. . ... ... ... : D-2 05 8 ...
ROW 2B : ... .. . ... ... ... : ... .. . ... ... ... : ... .. . ... : ... .. . ... : ... .. . FD4 : ... .. . ... ... : ... .. . ... ... ... : D-1 05 5 ...
ROW 2C : ... .. . ... ... ... : C-5 07 . ... 400 ... : D-4 08 . ... : D-# 01 . ... : ... .. . F96 : D-5 06 . V02 ... : F-3 06 . V02 ... ... : D-2 05 7 ...
ROW 2D : ... .. . ... ... ... : ... .. . ... ... ... : ... .. . ... : ... .. . ... : ... .. . ... : ... .. . V04 ... : ... .. . V04 ... ... : D-1 05 4 ...
ROW 2E : ... .. . ... ... ... : ... .. . ... ... ... : ... .. . ... : ... .. . ... : ... .. . ... : ... .. . ... ... : ... .. . ... ... ... : D-2 05 6 ...
ROW 2F : ... .. 1 ... ... ... : ... .. . ... ... ... : ... .. . ... : ... .. . ... : ... .. . FD4 : ... .. . ... ... : ... .. . ... ... ... : D-1 05 3 ...
ROW 30 : G-4 00 2 400 ... ... : ... .. . ... ... ... : C-3 08 . ... : 3-# 04 . ... : C-3 00 . F96 : E-5 06 . V02 ... : G-3 06 . V02 ... ... : C-1 05 D ...
ROW 31 : ... .. . ... ... ... : ... .. . ... ... ... : ... .. . ... : ... .. . ... : ... .. . ... : ... .. . V04 ... : ... .. . V04 ... ... : C-2 05 . ...
ROW 32 : ... .. . ... ... ... : ... .. . ... ... ... : ... .. . ... : ... .. . ... : ... .. . ... : ... .. . ... ... : ... .. . ... ... ... : C-3 05 . ...
ROW 33 : ... .. . ... ... ... : ... .. . ... ... ... : ... .. . ... : ... .. . ... : ... .. . FD4 : ... .. . ... ... : ... .. . ... ... ... : ... .. . ...
ROW 34 : ... .. . ... ... ... : D-5 07 . ... ... ... : C-4 08 . ... : D-# 01 . ... : ... .. . F96 : ... .. . ... ... : ... .. . ... ... ... : ... .. . ...
ROW 35 : ... .. . ... ... ... : ... .. . ... ... ... : ... .. . ... : ... .. . ... : ... .. . ... : ... .. . ... ... : ... .. . ... ... ... : ... .. . ...
ROW 36 : ... .. . ... ... ... : ... .. . ... ... ... : ... .. . ... : ... .. . ... : ... .. . ... : ... .. . ... ... : ... .. . ... ... ... : ... .. . ...
ROW 37 : ... .. . ... ... ... : ... .. . ... ... ... : ... .. . ... : ... .. . ... : ... .. . FD4 : ... .. . ... ... : ... .. . ... ... ... : ... .. . ...
ROW 38 : ... .. . 482 ... ... : E-5 07 . ... ... ... : C-3 08 . ... : D-# 01 . ... : ... .. . F96 : ... .. . ... 482 : ... .. . ... 492 ... : ... .. . ...
ROW 39 : ... .. . ... ... ... : ... .. . ... ... ... : ... .. . ... : ... .. . ... : ... .. . ... : ... .. . ... ... : ... .. . ... ... ... : ... .. . ...
ROW 3A : ... .. . ... ... ... : ... .. . ... ... ... : ... .. . ... : ... .. . ... : ... .. . ... : ... .. . ... ... : ... .. . ... ... ... : ... .. . ...
ROW 3B : ... .. . ... ... ... : ... .. . ... ... ... : ... .. . ... : ... .. . ... : ... .. . FD4 : ... .. . ... ... : ... .. . ... ... ... : ... .. . ...
ROW 3C : ... .. . ... ... ... : ... .. . ... ... ... : C-4 08 . ... : 8-# 04 . ... : C#3 00 . F96 : ... .. . ... ... : ... .. . ... ... ... : ... .. . ...
ROW 3D : ... .. . ... ... ... : ... .. . ... ... ... : ... .. . ... : ... .. . ... : ... .. . ... : ... .. . ... ... : ... .. . ... ... ... : ... .. . ...
ROW 3E : ... .. . ... ... ... : ... .. . ... ... ... : ... .. . ... : ... .. . ... : ... .. . ... : ... .. . ... ... : ... .. . ... ... ... : ... .. . ...
ROW 3F : ... .. . ... ... ... : ... .. . ... ... ... : ... .. . ... : ... .. . ... : ... .. . FD4 : ... .. . ... ... : ... .. . ... ... ... : ... .. . ...
ROW 40 : ... .. . ... ... ... : ... .. . ... 462 ... : C-3 08 . ... : D-# 01 . ... : ... .. . F96 : ... .. . ... ... : ... .. . ... ... ... : ... .. . ...
ROW 41 : ... .. . ... ... ... : ... .. . ... ... ... : ... .. . ... : ... .. . ... : ... .. . ... : ... .. . ... ... : ... .. . ... ... ... : ... .. . ...
ROW 42 : ... .. . ... ... ... : ... .. . ... ... ... : ... .. . ... : ... .. . ... : ... .. . ... : ... .. . ... ... : ... .. . ... ... ... : ... .. . ...
ROW 43 : ... .. . ... ... ... : ... .. . ... ... ... : ... .. . ... : ... .. . ... : ... .. . FD4 : ... .. . ... ... : ... .. . ... ... ... : ... .. . ...
ROW 44 : ... .. . ... ... ... : ... .. . ... ... ... : C-4 08 . ... : D-# 01 . ... : ... .. . F96 : ... .. . ... ... : ... .. . ... ... ... : ... .. . ...
ROW 45 : ... .. . ... ... ... : ... .. . ... ... ... : ... .. . ... : ... .. . ... : ... .. . ... : ... .. . ... ... : ... .. . ... ... ... : ... .. . ...
ROW 46 : ... .. . ... ... ... : ... .. . ... ... ... : ... .. . ... : ... .. . ... : ... .. . ... : ... .. . ... ... : ... .. . ... ... ... : ... .. . ...
ROW 47 : ... .. . ... ... ... : ... .. . ... ... ... : ... .. . ... : ... .. . ... : ... .. . FD4 : ... .. . ... ... : ... .. . ... ... ... : ... .. . ...
ROW 48 : ... .. . ... ... ... : ... .. . ... ... ... : C-3 08 . ... : 3-# 04 . ... : C-3 00 . F96 : ... .. . ... ... : ... .. . ... ... ... : ... .. . ...
ROW 49 : ... .. . ... ... ... : ... .. . ... ... ... : ... .. . ... : ... .. . ... : ... .. . ... : ... .. . ... ... : ... .. . ... ... ... : ... .. . ...
ROW 4A : ... .. . ... ... ... : ... .. . ... ... ... : ... .. . ... : ... .. . ... : ... .. . ... : ... .. . ... ... : ... .. . ... ... ... : ... .. . ...
ROW 4B : ... .. . ... ... ... : ... .. . ... ... ... : ... .. . ... : ... .. . ... : ... .. . FD4 : ... .. . ... ... : ... .. . ... ... ... : ... .. . ...
ROW 4C : ... .. . ... ... ... : ... .. . ... ... ... : C-4 08 . ... : D-# 01 . ... : ... .. . F96 : ... .. . ... ... : ... .. . ... ... ... : ... .. . ...
ROW 4D : ... .. . ... ... ... : ... .. . ... ... ... : ... .. . ... : ... .. . ... : ... .. . ... : ... .. . ... ... : ... .. . ... ... ... : ... .. . ...
ROW 4E : ... .. . ... ... ... : ... .. . ... ... ... : ... .. . ... : ... .. . ... : ... .. . ... : ... .. . ... ... : ... .. . ... ... ... : ... .. . ...
ROW 4F : ... .. . ... ... ... : ... .. . ... ... ... : ... .. . ... : ... .. . ... : ... .. . FD4 : ... .. . ... ... : ... .. . ... ... ... : ... .. . ...
ROW 50 : ... .. . ... ... ... : ... .. . ... ... ... : C-3 08 . ... : D-# 01 . ... : ... .. . F96 : ... .. . ... ... : ... .. . ... ... ... : ... .. . ...
ROW 51 : ... .. . ... ... ... : ... .. . ... ... ... : ... .. . ... : ... .. . ... : ... .. . ... : ... .. . ... ... : ... .. . ... ... ... : ... .. . ...
ROW 52 : ... .. . ... ... ... : ... .. . ... ... ... : ... .. . ... : ... .. . ... : ... .. . ... : ... .. . ... ... : ... .. . ... ... ... : ... .. . ...
ROW 53 : ... .. . ... ... ... : ... .. . ... ... ... : ... .. . ... : ... .. . ... : ... .. . FD4 : ... .. . ... ... : ... .. . ... ... ... : ... .. . ...
ROW 54 : ... .. . ... ... ... : ... .. . ... ... ... : C-4 08 . ... : 8-# 04 . ... : C#3 00 . F96 : F-5 06 . V02 400 : A-3 06 . V02 400 ... : ... .. . ...
ROW 55 : ... .. . ... ... ... : ... .. . ... ... ... : ... .. . ... : ... .. . ... : ... .. . ... : ... .. . V04 ... : ... .. . V04 ... ... : ... .. . ...
ROW 56 : ... .. . ... ... ... : ... .. . ... ... ... : ... .. . ... : ... .. . ... : ... .. . ... : ... .. . ... ... : ... .. . ... ... ... : ... .. . ...
ROW 57 : ... .. . ... ... ... : ... .. . ... ... ... : ... .. . ... : ... .. . ... : ... .. . FD4 : ... .. . ... ... : ... .. . ... ... ... : ... .. . ...
ROW 58 : ... .. . ... ... ... : ... .. . ... ... ... : C-3 08 . ... : D-# 01 . ... : ... .. . F96 : ... .. . ... ... : ... .. . ... ... ... : C-2 05 9 ...
ROW 59 : ... .. . ... ... ... : ... .. . ... ... ... : ... .. . ... : ... .. . ... : ... .. . ... : ... .. . ... ... : ... .. . ... ... ... : C-1 05 5 ...
ROW 5A : ... .. . ... ... ... : ... .. . ... ... ... : ... .. . ... : ... .. . ... : ... .. . ... : ... .. . ... ... : ... .. . ... ... ... : C-2 05 8 ...
ROW 5B : ... .. . ... ... ... : ... .. . ... ... ... : ... .. . ... : ... .. . ... : ... .. . FD4 : ... .. . ... ... : ... .. . ... ... ... : C-1 05 5 ...
ROW 5C : ... .. . ... ... ... : F-5 07 . ... 400 ... : C-4 08 . ... : D-# 01 . ... : ... .. . F96 : ... .. . ... ... : ... .. . ... ... ... : C-2 05 7 ...
ROW 5D : ... .. . ... ... ... : ... .. . ... ... ... : ... .. . ... : ... .. . ... : ... .. . ... : ... .. . ... ... : ... .. . ... ... ... : C-1 05 4 ...
ROW 5E : ... .. . ... ... ... : ... .. . ... ... ... : ... .. . ... : ... .. . ... : ... .. . ... : ... .. . ... ... : ... .. . ... ... ... : C-2 05 6 ...
ROW 5F : ... .. 1 ... ... ... : ... .. . ... ... ... : ... .. . ... : ... .. . ... : ... .. . FD4 : ... .. . ... ... : ... .. . ... ... ... : C-1 05 3 ...

PATTERN 11
ROW 00 : F-4 00 2 400 ... ... : ... .. . ... ... ... : G-2 08 . ... : 3-# 04 . ... : C-3 00 . F96 : G-5 06 . V02 ... : A#3 06 . V02 ... ... : G-0 05 D ...
ROW 01 : ... .. . ... ... ... : ... .. . ... ... ... : ... .. . ... : ... .. . ... : ... .. . ... : ... .. . V04 ... : ... .. . V04 ... ... : G-1 05 . ...
ROW 02 : ... .. . ... ... ... : ... .. . ... ... ... : ... .. . ... : ... .. . ... : ... .. . ... : ... .. . ... ... : ... .. . ... ... ... : G-2 05 . ...
ROW 03 : ... .. . ... ... ... : ... .. . ... ... ... : ... .. . ... : ... .. . ... : ... .. . FD4 : ... .. . ... ... : ... .. . ... ... ... : ... .. . ...
ROW 04 : ... .. . ... ... ... : ... .. . ... ... ... : G-3 08 . ... : D-# 01 . ... : ... .. . F96 : ... .. . ... ... : ... .. . ... ... ... : ... .. . ...
ROW 05 : ... .. . ... ... ... : ... .. . ... ... ... : ... .. . ... : ... .. . ... : ... .. . ... : ... .. . ... ... : ... .. . ... ... ... : ... .. . ...
ROW 06 : ... .. . ... ... ... : ... .. . ... ... ... : ... .. . ... : ... .. . ... : ... .. . ... : ... .. . ... ... : ... .. . ... ... ... : ... .. . ...
ROW 07 : ... .. . ... ... ... : ... .. . ... ... ... : ... .. . ... : ... .. . ... : ... .. . FD4 : ... .. . ... ... : ... .. . ... ... ... : ... .. . ...
ROW 08 : ... .. . 482 ... ... : G-5 07 . ... ... ... : G-2 08 . ... : D-# 01 . ... : ... .. . F96 : F-5 06 . V02 ... : A-3 06 . V02 ... ... : ... .. . ...
ROW 09 : ... .. . ... ... ... : ... .. . ... ... ... : ... .. . ... : ... .. . ... : ... .. . ... : ... .. . V04 ... : ... .. . V04 ... ... : ... .. . ...
ROW 0A : ... .. . ... ... ... : ... .. . ... ... ... : ... .. . ... : ... .. . ... : ... .. . ... : ... .. . ... ... : ... .. . ... ... ... : ... .. . ...
ROW 0B : ... .. . ... ... ... : ... .. . ... ... ... : ... .. . ... : ... .. . ... : ... .. . FD4 : ... .. . ... ... : ... .. . ... ... ... : ... .. . ...
ROW 0C : ... .. . ... ... ... : ... .. . ... ... ... : G-3 08 . ... : 8-# 04 . ... : C#3 00 . F96 : ... .. . ... ... : ... .. . ... ... ... : ... .. . ...
ROW 0D : ... .. . ... ... ... : ... .. . ... ... ... : ... .. . ... : ... .. . ... : ... .. . ... : ... .. . ... ... : ... .. . ... ... ... : ... .. . ...
ROW 0E : ... .. . ... ... ... : ... .. . ... ... ... : ... .. . ... : ... .. . ... : ... .. . ... : ... .. . ... ... : ... .. . ... ... ... : ... .. . ...
ROW 0F : ... .. . ... ... ... : ... .. . ... ... ... : ... .. . ... : ... .. . ... : ... .. . FD4 : ... .. . ... ... : ... .. . ... ... ... : ... .. . ...
ROW 10 : ... .. . ... ... ... : F-5 07 . ... ... ... : G-2 08 . ... : D-# 01 . ... : ... .. . F96 : E-5 06 . V02 ... : G-3 06 . V02 ... ... : ... .. . ...
ROW 11 : ... .. . ... ... ... : ... .. . ... ... ... : ... .. . ... : ... .. . ... : ... .. . ... : ... .. . V04 ... : ... .. . V04 ... ... : ... .. . ...
ROW 12 : ... .. . ... ... ... : ... .. . ... ... ... : ... .. . ... : ... .. . ... : ... .. . ... : ... .. . ... ... : ... .. . ... ... ... : ... .. . ...
ROW 13 : ... .. . ... ... ... : ... .. . ... ... ... : ... .. . ... : ... .. . ... : ... .. . FD4 : ... .. . ... ... : ... .. . ... ... ... : ... .. . ...
ROW 14 : ... .. . ... ... ... : ... .. . ... ... ... : G-3 08 . ... : D-# 01 . ... : ... .. . F96 : ... .. . ... ... : ... .. . ... ... ... : ... .. . ...
ROW 15 : ... .. . ... ... ... : ... .. . ... ... ... : ... .. . ... : ... .. . ... : ... .. . ... : ... .. . ... ... : ... .. . ... ... ... : ... .. . ...
ROW 16 : ... .. . ... ... ... : ... .. . ... ... ... : ... .. . ... : ... .. . ... : ... .. . ... : ... .. . ... ... : ... .. . ... ... ... : ... .. . ...
ROW 17 : ... .. . ... ... ... : ... .. . ... ... ... : ... .. . ... : ... .. . ... : ... .. . FD4 : ... .. . ... ... : ... .. . ... ... ... : ... .. . ...
ROW 18 : ... .. . ... ... ... : E-5 07 . ... ... ... : G-2 08 . ... : 3-# 04 . ... : C-3 00 . F96 : D-5 06 . V02 ... : G-3 06 . V02 ... ... : ... .. . ...
ROW 19 : ... .. . ... ... ... : ... .. . ... ... ... : ... .. . ... : ... .. . ... : ... .. . ... : ... .. . V04 ... : ... .. . V04 ... ... : ... .. . ...
ROW 1A : ... .. . ... ... ... : ... .. . ... ... ... : ... .. . ... : ... .. . ... : ... .. . ... : ... .. . ... ... : ... .. . ... ... ... : ... .. . ...
ROW 1B : ... .. . ... ... ... : ... .. . ... ... ... : ... .. . ... : ... .. . ... : ... .. . FD4 : ... .. . ... ... : ... .. . ... ... ... : ... .. . ...
ROW 1C : ... .. . ... ... ... : ... .. . ... ... ... : G-3 08 . ... : D-# 01 . ... : ... .. . F96 : ... .. . ... ... : ... .. . ... ... ... : ... .. . ...
ROW 1D : ... .. . ... ... ... : ... .. . ... ... ... : ... .. . ... : ... .. . ... : ... .. . ... : ... .. . ... ... : ... .. . ... ... ... : ... .. . ...
ROW 1E : ... .. . ... ... ... : ... .. . ... ... ... : ... .. . ... : ... .. . ... : ... .. . ... : ... .. . ... ... : ... .. . ... ... ... : ... .. . ...
ROW 1F : ... .. . ... ... ... : ... .. . ... ... ... : ... .. . ... : ... .. . ... : ... .. . FD4 : ... .. . ... ... : ... .. . ... ... ... : ... .. . ...
ROW 20 : ... .. . ... ... ... : D-5 07 . ... ... ... : G-2 08 . ... : D-# 01 . ... : ... .. . F96 : ... .. . ... 471 : ... .. . ... 482 ... : ... .. . ...
ROW 21 : ... .. . ... ... ... : ... .. . ... ... ... : ... .. . ... : ... .. . ... : ... .. . ... : ... .. . ... ... : ... .. . ... ... ... : ... .. . ...
ROW 22 : ... .. . ... ... ... : ... .. . ... ... ... : ... .. . ... : ... .. . ... : ... .. . ... : ... .. . ... ... : ... .. . ... ... ... : ... .. . ...
ROW 23 : ... .. . ... ... ... : ... .. . ... ... ... : ... .. . ... : ... .. . ... : ... .. . FD4 : ... .. . ... ... : ... .. . ... ... ... : ... .. . ...
ROW 24 : ... .. . ... ... ... : ... .. . ... ... ... : G-3 08 . ... : 8-# 04 . ... : C#3 00 . F96 : ... .. . ... ... : ... .. . ... ... ... : ... .. . ...
ROW 25 : ... .. . ... ... ... : ... .. . ... ... ... : ... .. . ... : ... .. . ... : ... .. . ... : ... .. . ... ... : ... .. . ... ... ... : ... .. . ...
ROW 26 : ... .. . ... ... ... : ... .. . ... ... ... : ... .. . ... : ... .. . ... : ... .. . ... : ... .. . ... ... : ... .. . ... ... ... : ... .. . ...
ROW 27 : ... .. . ... ... ... : ... .. . ... ... ... : ... .. . ... : ... .. . ... : ... .. . FD4 : ... .. . ... ... : ... .. . ... ... ... : ... .. . ...
ROW 28 : ... .. . ... ... ... : ... .. . ... 451 ... : G-2 08 . ... : D-# 01 . ... : ... .. . F96 : ... .. . ... ... : ... .. . ... ... ... : G-1 05 9 ...
ROW 29 : ... .. . ... ... ... : ... .. . ... ... ... : ... .. . ... : ... .. . ... : ... .. . ... : ... .. . ... ... : ... .. . ... ... ... : G-0 05 5 ...
ROW 2A : ... .. . ... ... ... : ... .. . ... ... ... : ... .. . ... : ... .. . ... : ... .. . ... : ... .. . ... ... : ... .. . ... ... ... : G-1 05 8 ...
ROW 2B : ... .. . ... ... ... : ... .. . ... ... ... : ... .. . ... : ... .. . ... : ... .. . FD4 : ... .. . ... ... : ... .. . ... ... ... : G-0 05 5 ...
ROW 2C : ... .. . ... ... ... : ... .. . ... ... ... : G-3 08 . ... : D-# 01 . ... : ... .. . F96 : ... .. . ... ... : ... .. . ... ... ... : G-1 05 7 ...
ROW 2D : ... .. . ... ... ... : ... .. . ... ... ... : ... .. . ... : ... .. . ... : ... .. . ... : ... .. . ... ... : ... .. . ... ... ... : G-0 05 4 ...
ROW 2E : ... .. . ... ... ... : ... .. . ... ... ... : ... .. . ... : ... .. . ... : ... .. . ... : ... .. . ... ... : ... .. . ... ... ... : G-1 05 6 ...
ROW 2F : ... .. 1 ... ... ... : ... .. . ... ... ... : ... .. . ... : ... .. . ... : ... .. . FD4 : ... .. . ... ... : ... .. . ... ... ... : G-0 05 3 ...
ROW 30 : E-4 00 2 400 ... ... : ... .. . ... ... ... : A-2 08 . ... : 3-# 04 . ... : C-3 00 . F96 : C#5 06 . V02 400 : E-3 06 . V02 400 ... : A-0 05 D ...
ROW 31 : ... .. . ... ... ... : ... .. . ... ... ... : ... .. . ... : ... .. . ... : ... .. . ... : ... .. . V04 ... : ... .. . V04 ... ... : A-1 05 . ...
ROW 32 : ... .. . ... ... ... : ... .. . ... ... ... : ... .. . ... : ... .. . ... : ... .. . ... : ... .. . ... ... : ... .. . ... ... ... : A-2 05 . ...
ROW 33 : ... .. . ... ... ... : ... .. . ... ... ... : ... .. . ... : ... .. . ... : ... .. . FD4 : ... .. . ... ... : ... .. . ... ... ... : ... .. . ...
ROW 34 : ... .. . ... ... ... : ... .. . ... ... ... : A-3 08 . ... : D-# 01 . ... : ... .. . F96 : ... .. . ... ... : ... .. . ... ... ... : ... .. . ...
ROW 35 : ... .. . ... ... ... : ... .. . ... ... ... : ... .. . ... : ... .. . ... : ... .. . ... : ... .. . ... ... : ... .. . ... ... ... : ... .. . ...
ROW 36 : ... .. . ... ... ... : ... .. . ... ... ... : ... .. . ... : ... .. . ... : ... .. . ... : ... .. . ... ... : ... .. . ... ... ... : ... .. . ...
ROW 37 : ... .. . ... ... ... : ... .. . ... ... ... : ... .. . ... : ... .. . ... : ... .. . FD4 : ... .. . ... ... : ... .. . ... ... ... : ... .. . ...
ROW 38 : ... .. . 482 ... ... : C#5 07 . ... 400 ... : A-2 08 . ... : D-# 01 . ... : ... .. . F96 : ... .. . ... 462 : ... .. . ... 474 ... : ... .. . ...
ROW 39 : ... .. . ... ... ... : ... .. . ... ... ... : ... .. . ... : ... .. . ... : ... .. . ... : ... .. . ... ... : ... .. . ... ... ... : ... .. . ...
ROW 3A : ... .. . ... ... ... : ... .. . ... ... ... : ... .. . ... : ... .. . ... : ... .. . ... : ... .. . ... ... : ... .. . ... ... ... : ... .. . ...
ROW 3B : ... .. . ... ... ... : ... .. . ... ... ... : ... .. . ... : ... .. . ... : ... .. . FD4 : ... .. . ... ... : ... .. . ... ... ... : ... .. . ...
ROW 3C : ... .. . ... ... ... : ... .. . ... ... ... : A-3 08 . ... : 8-# 04 . ... : C#3 00 . F96 : ... .. . ... ... : ... .. . ... ... ... : ... .. . ...
ROW 3D : ... .. . ... ... ... : ... .. . ... ... ... : ... .. . ... : ... .. . ... : ... .. . ... : ... .. . ... ... : ... .. . ... ... ... : ... .. . ...
ROW 3E : ... .. . ... ... ... : ... .. . ... ... ... : ... .. . ... : ... .. . ... : ... .. . ... : ... .. . ... ... : ... .. . ... ... ... : ... .. . ...
ROW 3F : ... .. . ... ... ... : ... .. . ... ... ... : ... .. . ... : ... .. . ... : ... .. . FD4 : ... .. . ... ... : ... .. . ... ... ... : ... .. . ...
ROW 40 : ... .. . ... ... ... : ... .. . ... 442 ... : A-2 08 . ... : D-# 01 . ... : ... .. . F96 : ... .. . ... ... : ... .. . ... ... ... : ... .. . ...
ROW 41 : ... .. . ... ... ... : ... .. . ... ... ... : ... .. . ... : ... .. . ... : ... .. . ... : ... .. . ... ... : ... .. . ... ... ... : ... .. . ...
ROW 42 : ... .. . ... ... ... : ... .. . ... ... ... : ... .. . ... : ... .. . ... : ... .. . ... : ... .. . ... ... : ... .. . ... ... ... : ... .. . ...
ROW 43 : ... .. . ... ... ... : ... .. . ... ... ... : ... .. . ... : ... .. . ... : ... .. . FD4 : ... .. . ... ... : ... .. . ... ... ... : ... .. . ...
ROW 44 : ... .. . ... ... ... : ... .. . ... ... ... : A-3 08 . ... : D-# 01 . ... : ... .. . F96 : ... .. . ... ... : ... .. . ... ... ... : ... .. . ...
ROW 45 : ... .. . ... ... ... : ... .. . ... ... ... : ... .. . ... : ... .. . ... : ... .. . ... : ... .. . ... ... : ... .. . ... ... ... : ... .. . ...
ROW 46 : ... .. . ... ... ... : ... .. . ... ... ... : ... .. . ... : ... .. . ... : ... .. . ... : ... .. . ... ... : ... .. . ... ... ... : ... .. . ...
ROW 47 : ... .. . ... ... ... : ... .. . ... ... ... : ... .. . ... : ... .. . ... : ... .. . FD4 : ... .. . ... ... : ... .. . ... ... ... : ... .. . ...
ROW 48 : ... .. . ... ... ... : ... .. . ... ... ... : A-2 08 . ... : 3-# 04 . ... : C-3 00 . F96 : A-5 06 . V02 400 : C#3 06 . V02 400 ... : ... .. . ...
ROW 49 : ... .. . ... ... ... : ... .. . ... ... ... : ... .. . ... : ... .. . ... : ... .. . ... : ... .. . V04 ... : ... .. . V04 ... ... : ... .. . ...
ROW 4A : ... .. . ... ... ... : ... .. . ... ... ... : ... .. . ... : ... .. . ... : ... .. . ... : ... .. . ... ... : ... .. . ... ... ... : ... .. . ...
ROW 4B : ... .. . ... ... ... : ... .. . ... ... ... : ... .. . ... : ... .. . ... : ... .. . FD4 : ... .. . ... ... : ... .. . ... ... ... : ... .. . ...
ROW 4C : ... .. . ... ... ... : ... .. . ... ... ... : A-3 08 . ... : 8-# 04 . ... : C#3 00 . F96 : ... .. . ... ... : ... .. . ... ... ... : ... .. . ...
ROW 4D : ... .. . ... ... ... : ... .. . ... ... ... : ... .. . ... : ... .. . ... : ... .. . ... : ... .. . ... ... : ... .. . ... ... ... : ... .. . ...
ROW 4E : ... .. . ... ... ... : ... .. . ... ... ... : ... .. . ... : ... .. . ... : ... .. . ... : ... .. . ... ... : ... .. . ... ... ... : ... .. . ...
ROW 4F : ... .. . ... ... ... : ... .. . ... ... ... : ... .. . ... : ... .. . ... : ... .. . FD4 : ... .. . ... ... : ... .. . ... ... ... : ... .. . ...
ROW 50 : ... .. . ... ... ... : A-5 07 . ... 400 ... : A-2 08 . ... : 8-# 04 . ... : C#3 00 . F96 : ... .. . ... ... : ... .. . ... ... ... : ... .. . ...
ROW 51 : ... .. . ... ... ... : ... .. . ... ... ... : ... .. . ... : ... .. . ... : ... .. . ... : ... .. . ... ... : ... .. . ... ... ... : ... .. . ...
ROW 52 : ... .. . ... ... ... : ... .. . ... ... ... : ... .. . ... : ... .. . ... : ... .. . ... : ... .. . V03 101 : ... .. . V03 105 ... : ... .. . ...
ROW 53 : ... .. . ... ... ... : ... .. . ... ... ... : ... .. . ... : ... .. . ... : ... .. . FD4 : ... .. . ... 101 : ... .. . ... 105 ... : ... .. . ...
ROW 54 : ... .. . ... ... ... : ... .. . ... ... ... : A-3 08 . ... : 8-# 04 . ... : C#3 00 . F96 : ... .. . ... 102 : ... .. . ... 106 ... : ... .. . ...
ROW 55 : ... .. . ... ... ... : ... .. . ... ... ... : ... .. . ... : ... .. . ... : ... .. . ... : ... .. . ... 101 : ... .. . ... 105 ... : ... .. . ...
ROW 56 : ... .. . ... ... ... : ... .. . ... ... ... : ... .. . ... : ... .. . ... : ... .. . ... : ... .. . V02 101 : ... .. . ... 105 ... : ... .. . ...
ROW 57 : ... .. . ... ... ... : ... .. . ... ... ... : ... .. . ... : ... .. . ... : ... .. . FD4 : ... .. . ... 102 : ... .. . ... 106 ... : ... .. . ...
ROW 58 : ... .. . ... ... ... : ... .. . ... ... ... : A-2 08 . ... : D-# 01 . ... : ... .. . F96 : ... .. . ... 101 : ... .. . ... 105 ... : A-1 05 9 ...
ROW 59 : ... .. . ... ... ... : ... .. . ... ... ... : ... .. . ... : ... .. . ... : ... .. . ... : ... .. . ... 101 : ... .. . ... 105 ... : A-0 05 5 ...
ROW 5A : ... .. . ... ... ... : ... .. . ... 101 ... : ... .. . ... : ... .. . ... : ... .. . ... : ... .. . V01 102 : ... .. . ... 106 ... : A-1 05 8 ...
ROW 5B : ... .. . ... ... ... : ... .. . ... 101 ... : ... .. . ... : ... .. . ... : ... .. . FD4 : ... .. . ... 101 : ... .. . ... 105 ... : A-0 05 5 ...
ROW 5C : ... .. . ... ... ... : ... .. . ... 102 ... : A-3 08 . ... : D-# 02 . ... : ... .. . F96 : ... .. . ... 101 : ... .. . ... 105 ... : A-1 05 7 ...
ROW 5D : ... .. . ... ... ... : ... .. . ... 101 ... : ... .. . ... : ... .. . ... : ... .. . ... : ... .. . ... 102 : ... .. . ... 106 ... : A-0 05 4 ...
ROW 5E : ... .. . ... ... ... : ... .. . ... 101 ... : ... .. . ... : ... .. . ... : ... .. . ... : ... .. . V00 101 : ... .. . ... 105 ... : A-1 05 6 ...
ROW 5F : ... .. 1 ... ... ... : ... .. . ... 102 ... : ... .. . ... : ... .. . ... : ... .. . FD4 : ... .. . ... 101 : ... .. . ... 105 ... : A-0 05 3 ...

PATTERN 12
ROW 00 : A-4 00 3 400 P81 V02 : ... .. . ... 101 ... : D-3 08 . ... : 3-# 04 . ... : C-3 00 . F96 : D-3 06 F V05 100 : D-2 06 C V05 100 P7C : D-1 05 F P82
ROW 01 : ... .. . ... ... ... : ... .. . ... 101 ... : ... .. . ... : ... .. . ... : ... .. . ... : ... .. . V01 ... : ... .. . V01 ... ... : D-2 05 . ...
ROW 02 : A-4 00 1 ... ... ... : ... .. . ... 102 ... : ... .. . ... : ... .. . ... : ... .. . ... : ... .. . ... ... : ... .. . ... ... ... : D-3 05 . ...
ROW 03 : ... .. . ... ... ... : ... .. . ... 101 ... : ... .. . ... : ... .. . ... : ... .. . FD4 : ... .. . ... ... : ... .. . ... ... ... : ... .. . ...
ROW 04 : A-4 00 3 ... ... ... : ... .. . ... 101 ... : D-3 08 . ... : D-# 01 . ... : ... .. . F96 : ... .. . ... ... : ... .. . ... ... ... : ... .. . ...
ROW 05 : ... .. . ... ... ... : ... .. . ... 102 ... : ... .. . ... : ... .. . ... : ... .. . ... : ... .. . ... ... : ... .. . ... ... ... : ... .. . ...
ROW 06 : A-4 00 1 ... ... ... : ... .. . ... 101 ... : ... .. . ... : ... .. . ... : ... .. . ... : ... .. . ... ... : ... .. . ... ... ... : ... .. . ...
ROW 07 : ... .. . ... ... ... : ... .. . ... 101 ... : ... .. . ... : ... .. . ... : ... .. . FD4 : ... .. . ... ... : ... .. . ... ... ... : ... .. . ...
ROW 08 : A-4 00 3 ... ... ... : D-3 07 F V01 100 P7E : D-3 08 . ... : 3-# 04 . ... : C-3 00 . F96 : ... .. . ... ... : ... .. . ... ... ... : ... .. . ...
ROW 09 : ... .. . ... ... ... : ... .. . V00 ... ... : ... .. . ... : ... .. . ... : ... .. . ... : ... .. . ... ... : ... .. . ... ... ... : ... .. . ...
ROW 0A : A-4 00 1 ... ... ... : ... .. . ... ... ... : ... .. . ... : ... .. . ... : ... .. . ... : ... .. . ... ... : ... .. . ... ... ... : D-3 05 7 ...
ROW 0B : ... .. . ... ... ... : ... .. . ... ... ... : ... .. . ... : ... .. . ... : ... .. . FD4 : ... .. . ... ... : ... .. . ... ... ... : ... .. . ...
ROW 0C : G-4 00 3 ... ... ... : ... .. . ... ... ... : C-3 08 . ... : 8-# 04 . ... : C#3 00 . F96 : C-3 06 . V05 ... : C-2 06 . V05 ... ... : C-1 05 F ...
ROW 0D : ... .. . ... ... ... : ... .. . ... ... ... : ... .. . ... : ... .. . ... : ... .. . ... : ... .. . V01 ... : ... .. . V01 ... ... : C-2 05 . ...
ROW 0E : G-4 00 1 ... ... ... : ... .. . ... ... ... : ... .. . ... : ... .. . ... : ... .. . ... : ... .. . ... ... : ... .. . ... ... ... : C-3 05 . ...
ROW 0F : ... .. . ... ... ... : ... .. . ... ... ... : ... .. . ... : ... .. . ... : ... .. . FD4 : ... .. . ... ... : ... .. . ... ... ... : ... .. . ...
ROW 10 : G-4 00 3 ... ... ... : ... .. . ... ... ... : C-3 08 . ... : D-# 01 . ... : ... .. . F96 : ... .. . ... ... : ... .. . ... ... ... : ... .. . ...
ROW 11 : ... .. . ... ... ... : ... .. . ... ... ... : ... .. . ... : ... .. . ... : ... .. . ... : ... .. . ... ... : ... .. . ... ... ... : ... .. . ...
ROW 12 : G-4 00 1 ... ... ... : ... .. . ... ... ... : ... .. . ... : ... .. . ... : ... .. . ... : ... .. . ... ... : ... .. . ... ... ... : ... .. . ...
ROW 13 : ... .. . ... ... ... : ... .. . ... ... ... : ... .. . ... : ... .. . ... : ... .. . FD4 : ... .. . ... ... : ... .. . ... ... ... : ... .. . ...
ROW 14 : G-4 00 3 ... ... ... : C-3 07 . V01 ... ... : C-3 08 . ... : 3-# 04 . ... : C-3 00 . F96 : ... .. . ... ... : ... .. . ... ... ... : ... .. . ...
ROW 15 : ... .. . ... ... ... : ... .. . V00 ... ... : ... .. . ... : ... .. . ... : ... .. . ... : ... .. . ... ... : ... .. . ... ... ... : ... .. . ...
ROW 16 : G-4 00 1 ... ... ... : ... .. . ... ... ... : ... .. . ... : ... .. . ... : ... .. . ... : ... .. . ... ... : ... .. . ... ... ... : C-3 05 7 ...
ROW 17 : ... .. . ... ... ... : ... .. . ... ... ... : ... .. . ... : ... .. . ... : ... .. . FD4 : ... .. . ... ... : ... .. . ... ... ... : ... .. . ...
ROW 18 : D-4 00 3 ... ... ... : ... .. . ... ... ... : G-2 08 . ... : 8-# 03 . ... : F-3 00 . F96 : D-3 06 . V05 ... : D-2 06 . V05 ... ... : G-0 05 F ...
ROW 19 : ... .. . ... ... ... : ... .. . ... ... ... : ... .. . ... : ... .. . ... : ... .. . ... : ... .. . V01 ... : ... .. . V01 ... ... : G-1 05 . ...
ROW 1A : D-4 00 1 ... ... ... : ... .. . ... ... ... : ... .. . ... : ... .. . ... : ... .. . ... : ... .. . ... ... : ... .. . ... ... ... : G-2 05 . ...
ROW 1B : ... .. . ... ... ... : ... .. . ... ... ... : ... .. . ... : ... .. . ... : ... .. . FD4 : ... .. . ... ... : ... .. . ... ... ... : ... .. . ...
ROW 1C : D-4 00 3 ... ... ... : ... .. . ... ... ... : G-2 08 . ... : ... .. . ... : ... .. . F96 : ... .. . ... ... : ... .. . ... ... ... : ... .. . ...
ROW 1D : ... .. . ... ... ... : ... .. . ... ... ... : ... .. . ... : ... .. . ... : ... .. . ... : ... .. . ... ... : ... .. . ... ... ... : ... .. . ...
ROW 1E : D-4 00 1 ... ... ... : ... .. . ... ... ... : ... .. . ... : ... .. . ... : ... .. . ... : ... .. . ... ... : ... .. . ... ... ... : ... .. . ...
ROW 1F : ... .. . ... ... ... : ... .. . ... ... ... : ... .. . ... : ... .. . ... : ... .. . FD4 : ... .. . ... ... : ... .. . ... ... ... : ... .. . ...
ROW 20 : E-4 00 3 ... ... ... : D-3 07 . V01 ... ... : A-2 08 . ... : 8-# 03 . ... : F-3 00 . F96 : A-2 06 . V05 ... : A-1 06 . V05 ... ... : A-0 05 F ...
ROW 21 : ... .. . ... ... ... : ... .. . V00 ... ... : ... .. . ... : ... .. . ... : ... .. . ... : ... .. . V01 ... : ... .. . V01 ... ... : A-1 05 . ...
ROW 22 : E-4 00 1 ... ... ... : ... .. . ... ... ... : ... .. . ... : ... .. . ... : ... .. . ... : ... .. . ... ... : ... .. . ... ... ... : A-2 05 . ...
ROW 23 : ... .. . ... ... ... : ... .. . ... ... ... : ... .. . ... : ... .. . ... : ... .. . FD4 : ... .. . ... ... : ... .. . ... ... ... : ... .. . ...
ROW 24 : E-4 00 3 ... ... ... : ... .. . ... ... ... : A-3 08 . ... : 6-# 03 . ... : G-3 00 . F96 : ... .. . ... ... : ... .. . ... ... ... : ... .. . ...
ROW 25 : ... .. . ... ... ... : ... .. . ... ... ... : ... .. . ... : ... .. . ... : ... .. . ... : ... .. . ... ... : ... .. . ... ... ... : ... .. . ...
ROW 26 : E-4 00 1 ... ... ... : ... .. . ... ... ... : ... .. . ... : 6-# 03 . ... : G-3 00 . ... : ... .. . ... ... : ... .. . ... ... ... : ... .. . ...
ROW 27 : ... .. . ... ... ... : ... .. . ... ... ... : ... .. . ... : ... .. . ... : ... .. . FD4 : ... .. . ... ... : ... .. . ... ... ... : ... .. . ...
ROW 28 : E-4 00 3 ... ... ... : A-2 07 . V01 ... ... : A-2 08 . ... : 6-# 03 . ... : G-3 00 . F96 : ... .. . ... ... : ... .. . ... ... ... : ... .. . ...
ROW 29 : ... .. . ... ... ... : ... .. . V00 ... ... : ... .. . ... : ... .. . ... : ... .. . ... : ... .. . ... ... : ... .. . ... ... ... : ... .. . ...
ROW 2A : E-4 00 1 ... ... ... : ... .. . ... ... ... : ... .. . ... : ... .. . ... : ... .. . ... : ... .. . ... R22 : ... .. . ... R42 ... : ... .. . ...
ROW 2B : ... .. . ... ... ... : ... .. . ... ... ... : ... .. . ... : ... .. . ... : ... .. . FD4 : ... .. . ... ... : ... .. . ... ... ... : ... .. . ...
ROW 2C : E-4 00 3 ... ... ... : ... .. . ... ... ... : A-3 08 . ... : 6-# 03 . ... : G-3 00 . F96 : ... .. . ... ... : ... .. . ... ... ... : ... .. . ...
ROW 2D : ... .. . ... ... ... : ... .. . ... ... ... : ... .. . ... : ... .. . ... : ... .. . ... : ... .. . ... ... : ... .. . ... ... ... : ... .. . ...
ROW 2E : E-4 00 1 ... ... ... : ... .. . ... ... ... : ... .. . ... : ... .. . ... : ... .. . ... : ... .. . ... ... : ... .. . ... ... ... : A-2 05 7 ...
ROW 2F : ... .. . ... ... ... : ... .. . ... ... ... : ... .. . ... : ... .. . ... : ... .. . FD4 : ... .. . ... ... : ... .. . ... ... ... : ... .. . ...
ROW 30 : A-4 00 3 ... ... ... : ... .. . ... ... ... : D-3 08 . ... : 3-# 04 . ... : C-3 00 . F96 : D-3 06 . V05 ... : D-2 06 . V05 ... ... : D-1 05 F ...
ROW 31 : ... .. . ... ... ... : ... .. . ... ... ... : ... .. . ... : ... .. . ... : ... .. . ... : ... .. . V01 ... : ... .. . V01 ... ... : D-2 05 . ...
ROW 32 : A-4 00 1 ... ... ... : ... .. . ... R22 ... : ... .. . ... : ... .. . ... : ... .. . ... : ... .. . ... ... : ... .. . ... ... ... : D-3 05 . ...
ROW 33 : ... .. . ... ... ... : ... .. . ... ... ... : ... .. . ... : ... .. . ... : ... .. . FD4 : ... .. . ... ... : ... .. . ... ... ... : ... .. . ...
ROW 34 : A-4 00 3 ... ... ... : ... .. . ... ... ... : D-3 08 . ... : D-# 01 . ... : ... .. . F96 : ... .. . ... ... : ... .. . ... ... ... : ... .. . ...
ROW 35 : ... .. . ... ... ... : ... .. . ... ... ... : ... .. . ... : ... .. . ... : ... .. . ... : ... .. . ... ... : ... .. . ... ... ... : ... .. . ...
ROW 36 : A-4 00 1 ... ... ... : ... .. . ... ... ... : ... .. . ... : ... .. . ... : ... .. . ... : ... .. . ... ... : ... .. . ... ... ... : ... .. . ...
ROW 37 : ... .. . ... ... ... : ... .. . ... ... ... : ... .. . ... : ... .. . ... : ... .. . FD4 : ... .. . ... ... : ... .. . ... ... ... : ... .. . ...
ROW 38 : A-4 00 3 ... ... ... : D-3 07 . V01 ... ... : D-3 08 . ... : 3-# 04 . ... : C-3 00 . F96 : ... .. . ... ... : ... .. . ... ... ... : ... .. . ...
ROW 39 : ... .. . ... ... ... : ... .. . V00 ... ... : ... .. . ... : ... .. . ... : ... .. . ... : ... .. . ... ... : ... .. . ... ... ... : ... .. . ...
ROW 3A : A-4 00 1 ... ... ... : ... .. . ... ... ... : ... .. . ... : ... .. . ... : ... .. . ... : ... .. . ... ... : ... .. . ... ... ... : D-3 05 7 ...
ROW 3B : ... .. . ... ... ... : ... .. . ... ... ... : ... .. . ... : ... .. . ... : ... .. . FD4 : ... .. . ... ... : ... .. . ... ... ... : ... .. . ...
ROW 3C : G-4 00 3 ... ... ... : ... .. . ... ... ... : C-3 08 . ... : 8-# 04 . ... : C#3 00 . F96 : C-3 06 . V05 ... : C-2 06 . V05 ... ... : C-1 05 F ...
ROW 3D : ... .. . ... ... ... : ... .. . ... ... ... : ... .. . ... : ... .. . ... : ... .. . ... : ... .. . V01 ... : ... .. . V01 ... ... : C-2 05 . ...
ROW 3E : G-4 00 1 ... ... ... : ... .. . ... ... ... : ... .. . ... : ... .. . ... : ... .. . ... : ... .. . ... ... : ... .. . ... ... ... : C-3 05 . ...
ROW 3F : ... .. . ... ... ... : ... .. . ... ... ... : ... .. . ... : ... .. . ... : ... .. . FD4 : ... .. . ... ... : ... .. . ... ... ... : ... .. . ...
ROW 40 : G-4 00 3 ... ... ... : ... .. . ... ... ... : C-3 08 . ... : D-# 01 . ... : ... .. . F96 : ... .. . ... ... : ... .. . ... ... ... : ... .. . ...
ROW 41 : ... .. . ... ... ... : ... .. . ... ... ... : ... .. . ... : ... .. . ... : ... .. . ... : ... .. . ... ... : ... .. . ... ... ... : ... .. . ...
ROW 42 : G-4 00 1 ... ... ... : ... .. . ... ... ... : ... .. . ... : ... .. . ... : ... .. . ... : ... .. . ... ... : ... .. . ... ... ... : ... .. . ...
ROW 43 : ... .. . ... ... ... : ... .. . ... ... ... : ... .. . ... : ... .. . ... : ... .. . FD4 : ... .. . ... ... : ... .. . ... ... ... : ... .. . ...
ROW 44 : G-4 00 3 ... ... ... : C-3 07 . V01 ... ... : C-3 08 . ... : 3-# 04 . ... : C-3 00 . F96 : ... .. . ... ... : ... .. . ... ... ... : ... .. . ...
ROW 45 : ... .. . ... ... ... : ... .. . V00 ... ... : ... .. . ... : ... .. . ... : ... .. . ... : ... .. . ... ... : ... .. . ... ... ... : ... .. . ...
ROW 46 : G-4 00 1 ... ... ... : ... .. . ... ... ... : ... .. . ... : ... .. . ... : ... .. . ... : ... .. . ... ... : ... .. . ... ... ... : C-3 05 7 ...
ROW 47 : ... .. . ... ... ... : ... .. . ... ... ... : ... .. . ... : ... .. . ... : ... .. . FD4 : ... .. . ... ... : ... .. . ... ... ... : ... .. . ...
ROW 48 : D-4 00 3 ... ... ... : ... .. . ... ... ... : G-2 08 . ... : 8-# 03 . ... : F-3 00 . F96 : D-3 06 . V05 ... : D-2 06 . V05 ... ... : G-0 05 F ...
ROW 49 : ... .. . ... ... ... : ... .. . ... ... ... : ... .. . ... : ... .. . ... : ... .. . ... : ... .. . V01 ... : ... .. . V01 ... ... : G-1 05 . ...
ROW 4A : D-4 00 1 ... ... ... : ... .. . ... ... ... : ... .. . ... : ... .. . ... : ... .. . ... : ... .. . ... ... : ... .. . ... ... ... : G-2 05 . ...
ROW 4B : ... .. . ... ... ... : ... .. . ... ... ... : ... .. . ... : ... .. . ... : ... .. . FD4 : ... .. . ... ... : ... .. . ... ... ... : ... .. . ...
ROW 4C : D-4 00 3 ... ... ... : ... .. . ... ... ... : G-2 08 . ... : ... .. . ... : ... .. . F96 : ... .. . ... ... : ... .. . ... ... ... : ... .. . ...
ROW 4D : ... .. . ... ... ... : ... .. . ... ... ... : ... .. . ... : ... .. . ... : ... .. . ... : ... .. . ... ... : ... .. . ... ... ... : ... .. . ...
ROW 4E : D-4 00 1 ... ... ... : ... .. . ... ... ... : ... .. . ... : ... .. . ... : ... .. . ... : ... .. . ... ... : ... .. . ... ... ... : ... .. . ...
ROW 4F : ... .. . ... ... ... : ... .. . ... ... ... : ... .. . ... : ... .. . ... : ... .. . FD4 : ... .. . ... ... : ... .. . ... ... ... : ... .. . ...
ROW 50 : E-4 00 3 ... ... ... : D-3 07 . V01 ... ... : A-2 08 . ... : 8-# 03 . ... : F-3 00 . F96 : A-2 06 . V05 ... : A-1 06 . V05 ... ... : A-0 05 F ...
ROW 51 : ... .. . ... ... ... : ... .. . V00 ... ... : ... .. . ... : ... .. . ... : ... .. . ... : ... .. . V01 ... : ... .. . V01 ... ... : A-1 05 . ...
ROW 52 : E-4 00 1 ... ... ... : ... .. . ... ... ... : ... .. . ... : ... .. . ... : ... .. . ... : ... .. . ... ... : ... .. . ... ... ... : A-2 05 . ...
ROW 53 : ... .. . ... ... ... : ... .. . ... ... ... : ... .. . ... : ... .. . ... : ... .. . FD4 : ... .. . ... ... : ... .. . ... ... ... : ... .. . ...
ROW 54 : E-4 00 3 ... ... ... : ... .. . ... ... ... : A-3 08 . ... : 6-# 03 . ... : G-3 00 . F96 : ... .. . ... ... : ... .. . ... ... ... : ... .. . ...
ROW 55 : ... .. . ... ... ... : ... .. . ... ... ... : ... .. . ... : ... .. . ... : ... .. . ... : ... .. . ... ... : ... .. . ... ... ... : ... .. . ...
ROW 56 : E-4 00 1 ... ... ... : ... .. . ... ... ... : ... .. . ... : 6-# 03 . ... : G-3 00 . ... : ... .. . ... ... : ... .. . ... ... ... : ... .. . ...
ROW 57 : ... .. . ... ... ... : ... .. . ... ... ... : ... .. . ... : ... .. . ... : ... .. . FD4 : ... .. . ... ... : ... .. . ... ... ... : ... .. . ...
ROW 58 : E-4 00 3 ... ... ... : A-2 07 . V01 ... ... : A-2 08 . ... : 6-# 03 . ... : G-3 00 . F96 : ... .. . ... ... : ... .. . ... ... ... : ... .. . ...
ROW 59 : ... .. . ... ... ... : ... .. . V00 ... ... : ... .. . ... : ... .. . ... : ... .. . ... : ... .. . ... ... : ... .. . ... ... ... : ... .. . ...
ROW 5A : E-4 00 1 ... ... ... : ... .. . ... ... ... : ... .. . ... : ... .. . ... : ... .. . ... : ... .. . ... R22 : ... .. . ... R42 ... : ... .. . ...
ROW 5B : ... .. . ... ... ... : ... .. . ... ... ... : ... .. . ... : ... .. . ... : ... .. . FD4 : ... .. . ... ... : ... .. . ... ... ... : ... .. . ...
ROW 5C : E-4 00 3 ... ... ... : ... .. . ... ... ... : A-3 08 . ... : 6-# 03 . ... : G-3 00 . F96 : ... .. . ... ... : ... .. . ... ... ... : ... .. . ...
ROW 5D : ... .. . ... ... ... : ... .. . ... ... ... : ... .. . ... : ... .. . ... : ... .. . ... : ... .. . ... ... : ... .. . ... ... ... : ... .. . ...
ROW 5E : E-4 00 1 ... ... ... : ... .. . ... ... ... : ... .. . ... : ... .. . ... : ... .. . ... : ... .. . ... ... : ... .. . ... ... ... : A-2 05 7 ...
ROW 5F : ... .. . ... ... ... : ... .. . ... ... ... : ... .. . ... : ... .. . ... : ... .. . FD4 : ... .. . ... ... : ... .. . ... ... ... : ... .. . ...

PATTERN 13
ROW 00 : A-4 00 3 ... ... ... : ... .. . ... ... ... : D-3 08 . ... : 3-# 04 . ... : C-3 00 . F96 : D-3 06 . V05 ... : D-2 06 . V05 ... ... : D-1 05 F ...
ROW 01 : ... .. . ... ... ... : ... .. . ... ... ... : ... .. . ... : ... .. . ... : ... .. . ... : ... .. . V01 ... : ... .. . V01 ... ... : D-2 05 . ...
ROW 02 : A-4 00 1 ... ... ... : ... .. . ... R22 ... : ... .. . ... : ... .. . ... : ... .. . ... : ... .. . ... ... : ... .. . ... ... ... : D-3 05 . ...
ROW 03 : ... .. . ... ... ... : ... .. . ... ... ... : ... .. . ... : ... .. . ... : ... .. . FD4 : ... .. . ... ... : ... .. . ... ... ... : ... .. . ...
ROW 04 : A-4 00 3 ... ... ... : ... .. . ... ... ... : D-3 08 . ... : D-# 01 . ... : ... .. . F96 : ... .. . ... ... : ... .. . ... ... ... : ... .. . ...
ROW 05 : ... .. . ... ... ... : ... .. . ... ... ... : ... .. . ... : ... .. . ... : ... .. . ... : ... .. . ... ... : ... .. . ... ... ... : ... .. . ...
ROW 06 : A-4 00 1 ... ... ... : ... .. . ... ... ... : ... .. . ... : ... .. . ... : ... .. . ... : ... .. . ... ... : ... .. . ... ... ... : ... .. . ...
ROW 07 : ... .. . ... ... ... : ... .. . ... ... ... : ... .. . ... : ... .. . ... : ... .. . FD4 : ... .. . ... ... : ... .. . ... ... ... : ... .. . ...
ROW 08 : A-4 00 3 ... ... ... : D-3 07 . V01 ... ... : D-3 08 . ... : 3-# 04 . ... : C-3 00 . F96 : ... .. . ... ... : ... .. . ... ... ... : ... .. . ...
ROW 09 : ... .. . ... ... ... : ... .. . V00 ... ... : ... .. . ... : ... .. . ... : ... .. . ... : ... .. . ... ... : ... .. . ... ... ... : ... .. . ...
ROW 0A : A-4 00 1 ... ... ... : ... .. . ... ... ... : ... .. . ... : ... .. . ... : ... .. . ... : ... .. . ... ... : ... .. . ... ... ... : D-3 05 7 ...
ROW 0B : ... .. . ... ... ... : ... .. . ... ... ... : ... .. . ... : ... .. . ... : ... .. . FD4 : ... .. . ... ... : ... .. . ... ... ... : ... .. . ...
ROW 0C : G-4 00 3 ... ... ... : ... .. . ... ... ... : C-3 08 . ... : 8-# 04 . ... : C#3 00 . F96 : C-3 06 . V05 ... : C-2 06 . V05 ... ... : C-1 05 F ...
ROW 0D : ... .. . ... ... ... : ... .. . ... ... ... : ... .. . ... : ... .. . ... : ... .. . ... : ... .. . V01 ... : ... .. . V01 ... ... : C-2 05 . ...
ROW 0E : G-4 00 1 ... ... ... : ... .. . ... ... ... : ... .. . ... : ... .. . ... : ... .. . ... : ... .. . ... ... : ... .. . ... ... ... : C-3 05 . ...
ROW 0F : ... .. . ... ... ... : ... .. . ... ... ... : ... .. . ... : ... .. . ... : ... .. . FD4 : ... .. . ... ... : ... .. . ... ... ... : ... .. . ...
ROW 10 : G-4 00 3 ... ... ... : ... .. . ... ... ... : C-3 08 . ... : D-# 01 . ... : ... .. . F96 : ... .. . ... ... : ... .. . ... ... ... : ... .. . ...
ROW 11 : ... .. . ... ... ... : ... .. . ... ... ... : ... .. . ... : ... .. . ... : ... .. . ... : ... .. . ... ... : ... .. . ... ... ... : ... .. . ...
ROW 12 : G-4 00 1 ... ... ... : ... .. . ... ... ... : ... .. . ... : ... .. . ... : ... .. . ... : ... .. . ... ... : ... .. . ... ... ... : ... .. . ...
ROW 13 : ... .. . ... ... ... : ... .. . ... ... ... : ... .. . ... : ... .. . ... : ... .. . FD4 : ... .. . ... ... : ... .. . ... ... ... : ... .. . ...
ROW 14 : G-4 00 3 ... ... ... : C-3 07 . V01 ... ... : C-3 08 . ... : 3-# 04 . ... : C-3 00 . F96 : ... .. . ... ... : ... .. . ... ... ... : ... .. . ...
ROW 15 : ... .. . ... ... ... : ... .. . V00 ... ... : ... .. . ... : ... .. . ... : ... .. . ... : ... .. . ... ... : ... .. . ... ... ... : ... .. . ...
ROW 16 : G-4 00 1 ... ... ... : ... .. . ... ... ... : ... .. . ... : ... .. . ... : ... .. . ... : ... .. . ... ... : ... .. . ... ... ... : C-3 05 7 ...
ROW 17 : ... .. . ... ... ... : ... .. . ... ... ... : ... .. . ... : ... .. . ... : ... .. . FD4 : ... .. . ... ... : ... .. . ... ... ... : ... .. . ...
ROW 18 : D-4 00 3 ... ... ... : ... .. . ... ... ... : G-2 08 . ... : 8-# 03 . ... : F-3 00 . F96 : D-3 06 . V05 ... : D-2 06 . V05 ... ... : G-0 05 F ...
ROW 19 : ... .. . ... ... ... : ... .. . ... ... ... : ... .. . ... : ... .. . ... : ... .. . ... : ... .. . V01 ... : ... .. . V01 ... ... : G-1 05 . ...
ROW 1A : D-4 00 1 ... ... ... : ... .. . ... ... ... : ... .. . ... : ... .. . ... : ... .. . ... : ... .. . ... ... : ... .. . ... ... ... : G-2 05 . ...
ROW 1B : ... .. . ... ... ... : ... .. . ... ... ... : ... .. . ... : ... .. . ... : ... .. . FD4 : ... .. . ... ... : ... .. . ... ... ... : ... .. . ...
ROW 1C : D-4 00 3 ... ... ... : ... .. . ... ... ... : G-2 08 . ... : ... .. . ... : ... .. . F96 : ... .. . ... ... : ... .. . ... ... ... : ... .. . ...
ROW 1D : ... .. . ... ... ... : ... .. . ... ... ... : ... .. . ... : ... .. . ... : ... .. . ... : ... .. . ... ... : ... .. . ... ... ... : ... .. . ...
ROW 1E : D-4 00 1 ... ... ... : ... .. . ... ... ... : ... .. . ... : ... .. . ... : ... .. . ... : ... .. . ... ... : ... .. . ... ... ... : ... .. . ...
ROW 1F : ... .. . ... ... ... : ... .. . ... ... ... : ... .. . ... : ... .. . ... : ... .. . FD4 : ... .. . ... ... : ... .. . ... ... ... : ... .. . ...
ROW 20 : E-4 00 3 ... ... ... : D-3 07 . V01 ... ... : A-2 08 . ... : 8-# 03 . ... : F-3 00 . F96 : A-2 06 . V05 ... : A-1 06 . V05 ... ... : A-0 05 F ...
ROW 21 : ... .. . ... ... ... : ... .. . V00 ... ... : ... .. . ... : ... .. . ... : ... .. . ... : ... .. . V01 ... : ... .. . V01 ... ... : A-1 05 . ...
ROW 22 : E-4 00 1 ... ... ... : ... .. . ... ... ... : ... .. . ... : ... .. . ... : ... .. . ... : ... .. . ... ... : ... .. . ... ... ... : A-2 05 . ...
ROW 23 : ... .. . ... ... ... : ... .. . ... ... ... : ... .. . ... : ... .. . ... : ... .. . FD4 : ... .. . ... ... : ... .. . ... ... ... : ... .. . ...
ROW 24 : E-4 00 3 ... ... ... : ... .. . ... ... ... : A-3 08 . ... : 6-# 03 . ... : G-3 00 . F96 : ... .. . ... ... : ... .. . ... ... ... : ... .. . ...
ROW 25 : ... .. . ... ... ... : ... .. . ... ... ... : ... .. . ... : ... .. . ... : ... .. . ... : ... .. . ... ... : ... .. . ... ... ... : ... .. . ...
ROW 26 : E-4 00 1 ... ... ... : ... .. . ... ... ... : ... .. . ... : 6-# 03 . ... : G-3 00 . ... : ... .. . ... ... : ... .. . ... ... ... : ... .. . ...
ROW 27 : ... .. . ... ... ... : ... .. . ... ... ... : ... .. . ... : ... .. . ... : ... .. . FD4 : ... .. . ... ... : ... .. . ... ... ... : ... .. . ...
ROW 28 : E-4 00 3 ... ... ... : A-2 07 . V01 ... ... : A-2 08 . ... : 6-# 03 . ... : G-3 00 . F96 : ... .. . ... ... : ... .. . ... ... ... : ... .. . ...
ROW 29 : ... .. . ... ... ... : ... .. . V00 ... ... : ... .. . ... : ... .. . ... : ... .. . ... : ... .. . ... ... : ... .. . ... ... ... : ... .. . ...
ROW 2A : E-4 00 1 ... ... ... : ... .. . ... ... ... : ... .. . ... : ... .. . ... : ... .. . ... : ... .. . ... R22 : ... .. . ... R42 ... : ... .. . ...
ROW 2B : ... .. . ... ... ... : ... .. . ... ... ... : ... .. . ... : ... .. . ... : ... .. . FD4 : ... .. . ... ... : ... .. . ... ... ... : ... .. . ...
ROW 2C : E-4 00 3 ... ... ... : ... .. . ... ... ... : A-3 08 . ... : 6-# 03 . ... : G-3 00 . F96 : ... .. . ... ... : ... .. . ... ... ... : ... .. . ...
ROW 2D : ... .. . ... ... ... : ... .. . ... ... ... : ... .. . ... : ... .. . ... : ... .. . ... : ... .. . ... ... : ... .. . ... ... ... : ... .. . ...
ROW 2E : E-4 00 1 ... ... ... : ... .. . ... ... ... : ... .. . ... : ... .. . ... : ... .. . ... : ... .. . ... ... : ... .. . ... ... ... : A-2 05 7 ...
ROW 2F : ... .. . ... ... ... : ... .. . ... ... ... : ... .. . ... : ... .. . ... : ... .. . FD4 : ... .. . ... ... : ... .. . ... ... ... : ... .. . ...
ROW 30 : A-4 00 3 ... ... ... : ... .. . ... ... ... : D-3 08 . ... : 3-# 04 . ... : C-3 00 . F96 : D-3 06 . V05 ... : D-2 06 . V05 ... ... : D-1 05 F ...
ROW 31 : ... .. . ... ... ... : ... .. . ... ... ... : ... .. . ... : ... .. . ... : ... .. . ... : ... .. . V01 ... : ... .. . V01 ... ... : D-2 05 . ...
ROW 32 : A-4 00 1 ... ... ... : ... .. . ... R22 ... : ... .. . ... : ... .. . ... : ... .. . ... : ... .. . ... ... : ... .. . ... ... ... : D-3 05 . ...
ROW 33 : ... .. . ... ... ... : ... .. . ... ... ... : ... .. . ... : ... .. . ... : ... .. . FD4 : ... .. . ... ... : ... .. . ... ... ... : ... .. . ...
ROW 34 : A-4 00 3 ... ... ... : ... .. . ... ... ... : D-3 08 . ... : D-# 01 . ... : ... .. . F96 : ... .. . ... ... : ... .. . ... ... ... : ... .. . ...
ROW 35 : ... .. . ... ... ... : ... .. . ... ... ... : ... .. . ... : ... .. . ... : ... .. . ... : ... .. . ... ... : ... .. . ... ... ... : ... .. . ...
ROW 36 : A-4 00 1 ... ... ... : ... .. . ... ... ... : ... .. . ... : ... .. . ... : ... .. . ... : ... .. . ... ... : ... .. . ... ... ... : ... .. . ...
ROW 37 : ... .. . ... ... ... : ... .. . ... ... ... : ... .. . ... : ... .. . ... : ... .. . FD4 : ... .. . ... ... : ... .. . ... ... ... : ... .. . ...
ROW 38 : A-4 00 3 ... ... ... : D-3 07 . V01 ... ... : D-3 08 . ... : 3-# 04 . ... : C-3 00 . F96 : ... .. . ... ... : ... .. . ... ... ... : ... .. . ...
ROW 39 : ... .. . ... ... ... : ... .. . V00 ... ... : ... .. . ... : ... .. . ... : ... .. . ... : ... .. . ... ... : ... .. . ... ... ... : ... .. . ...
ROW 3A : A-4 00 1 ... ... ... : ... .. . ... ... ... : ... .. . ... : ... .. . ... : ... .. . ... : ... .. . ... ... : ... .. . ... ... ... : D-3 05 7 ...
ROW 3B : ... .. . ... ... ... : ... .. . ... ... ... : ... .. . ... : ... .. . ... : ... .. . FD4 : ... .. . ... ... : ... .. . ... ... ... : ... .. . ...
ROW 3C : G-4 00 3 ... ... ... : ... .. . ... ... ... : C-3 08 . ... : 8-# 04 . ... : C#3 00 . F96 : C-3 06 . V05 ... : C-2 06 . V05 ... ... : C-1 05 F ...
ROW 3D : ... .. . ... ... ... : ... .. . ... ... ... : ... .. . ... : ... .. . ... : ... .. . ... : ... .. . V01 ... : ... .. . V01 ... ... : C-2 05 . ...
ROW 3E : G-4 00 1 ... ... ... : ... .. . ... ... ... : ... .. . ... : ... .. . ... : ... .. . ... : ... .. . ... ... : ... .. . ... ... ... : C-3 05 . ...
ROW 3F : ... .. . ... ... ... : ... .. . ... ... ... : ... .. . ... : ... .. . ... : ... .. . FD4 : ... .. . ... ... : ... .. . ... ... ... : ... .. . ...
ROW 40 : G-4 00 3 ... ... ... : ... .. . ... ... ... : C-3 08 . ... : D-# 01 . ... : ... .. . F96 : ... .. . ... ... : ... .. . ... ... ... : ... .. . ...
ROW 41 : ... .. . ... ... ... : ... .. . ... ... ... : ... .. . ... : ... .. . ... : ... .. . ... : ... .. . ... ... : ... .. . ... ... ... : ... .. . ...
ROW 42 : G-4 00 1 ... ... ... : ... .. . ... ... ... : ... .. . ... : ... .. . ... : ... .. . ... : ... .. . ... ... : ... .. . ... ... ... : ... .. . ...
ROW 43 : ... .. . ... ... ... : ... .. . ... ... ... : ... .. . ... : ... .. . ... : ... .. . FD4 : ... .. . ... ... : ... .. . ... ... ... : ... .. . ...
ROW 44 : G-4 00 3 ... ... ... : C-3 07 . V01 ... ... : C-3 08 . ... : 3-# 04 . ... : C-3 00 . F96 : ... .. . ... ... : ... .. . ... ... ... : ... .. . ...
ROW 45 : ... .. . ... ... ... : ... .. . V00 ... ... : ... .. . ... : ... .. . ... : ... .. . ... : ... .. . ... ... : ... .. . ... ... ... : ... .. . ...
ROW 46 : G-4 00 1 ... ... ... : ... .. . ... ... ... : ... .. . ... : ... .. . ... : ... .. . ... : ... .. . ... ... : ... .. . ... ... ... : C-3 05 7 ...
ROW 47 : ... .. . ... ... ... : ... .. . ... ... ... : ... .. . ... : ... .. . ... : ... .. . FD4 : ... .. . ... ... : ... .. . ... ... ... : ... .. . ...
ROW 48 : D-4 00 3 ... ... ... : ... .. . ... ... ... : G-2 08 . ... : 8-# 03 . ... : F-3 00 . F96 : D-3 06 . V05 ... : D-2 06 . V05 ... ... : G-0 05 F ...
ROW 49 : ... .. . ... ... ... : ... .. . ... ... ... : ... .. . ... : ... .. . ... : ... .. . ... : ... .. . V01 ... : ... .. . V01 ... ... : G-1 05 . ...
ROW 4A : D-4 00 1 ... ... ... : ... .. . ... ... ... : ... .. . ... : ... .. . ... : ... .. . ... : ... .. . ... ... : ... .. . ... ... ... : G-2 05 . ...
ROW 4B : ... .. . ... ... ... : ... .. . ... ... ... : ... .. . ... : ... .. . ... : ... .. . FD4 : ... .. . ... ... : ... .. . ... ... ... : ... .. . ...
ROW 4C : D-4 00 3 ... ... ... : ... .. . ... ... ... : G-2 08 . ... : ... .. . ... : ... .. . F96 : ... .. . ... ... : ... .. . ... ... ... : ... .. . ...
ROW 4D : ... .. . ... ... ... : ... .. . ... ... ... : ... .. . ... : ... .. . ... : ... .. . ... : ... .. . ... ... : ... .. . ... ... ... : ... .. . ...
ROW 4E : D-4 00 1 ... ... ... : ... .. . ... ... ... : ... .. . ... : ... .. . ... : ... .. . ... : ... .. . ... ... : ... .. . ... ... ... : ... .. . ...
ROW 4F : ... .. . ... ... ... : ... .. . ... ... ... : ... .. . ... : ... .. . ... : ... .. . FD4 : ... .. . ... ... : ... .. . ... ... ... : ... .. . ...
ROW 50 : E-4 00 3 ... ... ... : D-3 07 . V01 ... ... : A-2 08 . ... : 8-# 03 . ... : F-3 00 . F96 : A-2 06 . V05 ... : A-1 06 . V05 ... ... : A-0 05 F ...
ROW 51 : ... .. . ... ... ... : ... .. . V00 ... ... : ... .. . ... : ... .. . ... : ... .. . ... : ... .. . V01 ... : ... .. . V01 ... ... : A-1 05 . ...
ROW 52 : E-4 00 1 ... ... ... : ... .. . ... ... ... : ... .. . ... : ... .. . ... : ... .. . ... : ... .. . ... ... : ... .. . ... ... ... : A-2 05 . ...
ROW 53 : ... .. . ... ... ... : ... .. . ... ... ... : ... .. . ... : ... .. . ... : ... .. . FD4 : ... .. . ... ... : ... .. . ... ... ... : ... .. . ...
ROW 54 : E-4 00 3 ... ... ... : ... .. . ... ... ... : A-3 08 . ... : 6-# 03 . ... : G-3 00 . F96 : ... .. . ... ... : ... .. . ... ... ... : ... .. . ...
ROW 55 : ... .. . ... ... ... : ... .. . ... ... ... : ... .. . ... : ... .. . ... : ... .. . ... : ... .. . ... ... : ... .. . ... ... ... : ... .. . ...
ROW 56 : E-4 00 1 ... ... ... : ... .. . ... ... ... : ... .. . ... : 6-# 03 . ... : G-3 00 . ... : ... .. . ... ... : ... .. . ... ... ... : ... .. . ...
ROW 57 : ... .. . ... ... ... : ... .. . ... ... ... : ... .. . ... : ... .. . ... : ... .. . FD4 : ... .. . ... ... : ... .. . ... ... ... : ... .. . ...
ROW 58 : E-4 00 3 ... ... ... : A-2 07 . V01 ... ... : A-2 08 . ... : 6-# 03 . ... : G-3 00 . F96 : ... .. . ... ... : ... .. . ... ... ... : ... .. . ...
ROW 59 : ... .. . ... ... ... : ... .. . V00 ... ... : ... .. . ... : ... .. . ... : ... .. . ... : ... .. . ... ... : ... .. . ... ... ... : ... .. . ...
ROW 5A : E-4 00 1 ... ... ... : ... .. . ... ... ... : ... .. . ... : ... .. . ... : ... .. . ... : ... .. . ... R22 : ... .. . ... R42 ... : ... .. . ...
ROW 5B : ... .. . ... ... ... : ... .. . ... ... ... : ... .. . ... : ... .. . ... : ... .. . FD4 : ... .. . ... ... : ... .. . ... ... ... : ... .. . ...
ROW 5C : E-4 00 3 ... ... ... : ... .. . ... ... ... : A-3 08 . ... : 6-# 03 . ... : G-3 00 . F96 : ... .. . ... ... : ... .. . ... ... ... : ... .. . ...
ROW 5D : ... .. . ... ... ... : ... .. . ... ... ... : ... .. . ... : ... .. . ... : ... .. . ... : ... .. . ... ... : ... .. . ... ... ... : ... .. . ...
ROW 5E : E-4 00 1 ... ... ... : ... .. . ... ... ... : ... .. . ... : ... .. . ... : ... .. . ... : ... .. . ... ... : ... .. . ... ... ... : A-2 05 7 ...
ROW 5F : ... .. . ... ... ... : ... .. . ... ... ... : ... .. . ... : ... .. . ... : ... .. . FD4 : ... .. . ... ... : ... .. . ... ... ... : ... .. . ...

PATTERN 14
ROW 00 : E-4 00 3 ... ... ... : ... .. . ... ... ... : A-2 08 . ... : 8-# 04 . ... : C#3 00 . F96 : A-3 06 . V05 ... : A-2 06 . V05 ... ... : A-0 05 F ...
ROW 01 : ... .. . ... ... ... : ... .. . ... ... ... : ... .. . ... : ... .. . ... : ... .. . ... : ... .. . V01 ... : ... .. . V01 ... ... : A-1 05 . ...
ROW 02 : E-4 00 1 ... ... ... : ... .. . ... R22 ... : ... .. . ... : ... .. . ... : ... .. . ... : ... .. . ... ... : ... .. . ... ... ... : A-2 05 . ...
ROW 03 : ... .. . ... ... ... : ... .. . ... ... ... : ... .. . ... : ... .. . ... : ... .. . FD4 : ... .. . ... ... : ... .. . ... ... ... : ... .. . ...
ROW 04 : E-4 00 3 ... ... ... : ... .. . ... ... ... : A-2 08 . ... : D-# 01 . ... : ... .. . F96 : ... .. . ... ... : ... .. . ... ... ... : ... .. . ...
ROW 05 : ... .. . ... ... ... : ... .. . ... ... ... : ... .. . ... : ... .. . ... : ... .. . ... : ... .. . ... ... : ... .. . ... ... ... : ... .. . ...
ROW 06 : E-4 00 1 ... ... ... : ... .. . ... ... ... : ... .. . ... : ... .. . ... : ... .. . ... : ... .. . ... ... : ... .. . ... ... ... : ... .. . ...
ROW 07 : ... .. . ... ... ... : ... .. . ... ... ... : ... .. . ... : ... .. . ... : ... .. . FD4 : ... .. . ... ... : ... .. . ... ... ... : ... .. . ...
ROW 08 : E-4 00 3 ... ... ... : A-3 07 . V01 ... ... : A-2 08 . ... : D-# 01 . ... : ... .. . F96 : ... .. . ... ... : ... .. . ... ... ... : ... .. . ...
ROW 09 : ... .. . ... ... ... : ... .. . V00 ... ... : ... .. . ... : ... .. . ... : ... .. . ... : ... .. . ... ... : ... .. . ... ... ... : ... .. . ...
ROW 0A : E-4 00 1 ... ... ... : ... .. . ... ... ... : ... .. . ... : ... .. . ... : ... .. . ... : ... .. . ... ... : ... .. . ... ... ... : ... .. . ...
ROW 0B : ... .. . ... ... ... : ... .. . ... ... ... : ... .. . ... : ... .. . ... : ... .. . FD4 : ... .. . ... ... : ... .. . ... ... ... : ... .. . ...
ROW 0C : E-4 00 3 ... ... ... : ... .. . ... ... ... : A-2 08 . ... : 8-# 04 . ... : C#3 00 . F96 : ... .. . ... ... : ... .. . ... ... ... : ... .. . ...
ROW 0D : ... .. . ... ... ... : ... .. . ... ... ... : ... .. . ... : ... .. . ... : ... .. . ... : ... .. . ... ... : ... .. . ... ... ... : ... .. . ...
ROW 0E : E-4 00 1 ... ... ... : ... .. . ... ... ... : ... .. . ... : ... .. . ... : ... .. . ... : ... .. . ... ... : ... .. . ... ... ... : ... .. . ...
ROW 0F : ... .. . ... ... ... : ... .. . ... ... ... : ... .. . ... : ... .. . ... : ... .. . FD4 : ... .. . ... ... : ... .. . ... ... ... : ... .. . ...
ROW 10 : E-4 00 3 ... ... ... : ... .. . ... ... ... : A-2 08 . ... : D-# 01 . ... : ... .. . F96 : ... .. . ... ... : ... .. . ... ... ... : ... .. . ...
ROW 11 : ... .. . ... ... ... : ... .. . ... ... ... : ... .. . ... : ... .. . ... : ... .. . ... : ... .. . ... ... : ... .. . ... ... ... : ... .. . ...
ROW 12 : E-4 00 1 ... ... ... : ... .. . ... ... ... : ... .. . ... : ... .. . ... : ... .. . ... : ... .. . ... ... : ... .. . ... ... ... : ... .. . ...
ROW 13 : ... .. . ... ... ... : ... .. . ... ... ... : ... .. . ... : ... .. . ... : ... .. . FD4 : ... .. . ... ... : ... .. . ... ... ... : ... .. . ...
ROW 14 : E-4 00 3 ... ... ... : ... .. . ... ... ... : A-2 08 . ... : D-# 01 . ... : ... .. . F96 : ... .. . ... ... : ... .. . ... ... ... : ... .. . ...
ROW 15 : ... .. . ... ... ... : ... .. . ... ... ... : ... .. . ... : ... .. . ... : ... .. . ... : ... .. . ... ... : ... .. . ... ... ... : ... .. . ...
ROW 16 : E-4 00 1 ... ... ... : ... .. . ... ... ... : ... .. . ... : ... .. . ... : ... .. . ... : ... .. . ... R1C : ... .. . ... R2C ... : ... .. . ...
ROW 17 : ... .. . ... ... ... : ... .. . ... ... ... : ... .. . ... : ... .. . ... : ... .. . FD4 : ... .. . ... ... : ... .. . ... ... ... : ... .. . ...
ROW 18 : E-4 00 3 ... ... ... : ... .. . ... ... ... : A-2 08 . ... : 8-# 04 . ... : C#3 00 . F96 : ... .. . ... ... : ... .. . ... ... ... : ... .. . ...
ROW 19 : ... .. . ... ... ... : ... .. . ... ... ... : ... .. . ... : ... .. . ... : ... .. . ... : ... .. . ... ... : ... .. . ... ... ... : ... .. . ...
ROW 1A : E-4 00 1 ... ... ... : ... .. . ... ... ... : ... .. . ... : ... .. . ... : ... .. . ... : ... .. . ... ... : ... .. . ... ... ... : ... .. . ...
ROW 1B : ... .. . ... ... ... : ... .. . ... ... ... : ... .. . ... : ... .. . ... : ... .. . FD4 : ... .. . ... ... : ... .. . ... ... ... : ... .. . ...
ROW 1C : E-4 00 3 ... ... ... : ... .. . ... ... ... : A-2 08 . ... : D-# 01 . ... : ... .. . F96 : ... .. . ... ... : ... .. . ... ... ... : ... .. . ...
ROW 1D : ... .. . ... ... ... : ... .. . ... ... ... : ... .. . ... : ... .. . ... : ... .. . ... : ... .. . ... ... : ... .. . ... ... ... : ... .. . ...
ROW 1E : E-4 00 1 ... ... ... : ... .. . ... R1C ... : ... .. . ... : ... .. . ... : ... .. . ... : ... .. . ... ... : ... .. . ... ... ... : ... .. . ...
ROW 1F : ... .. . ... ... ... : ... .. . ... ... ... : ... .. . ... : ... .. . ... : ... .. . FD4 : ... .. . ... ... : ... .. . ... ... ... : ... .. . ...
ROW 20 : E-4 00 3 ... ... ... : ... .. . ... ... ... : A-2 08 . ... : D-# 01 . ... : ... .. . F96 : ... .. . ... ... : ... .. . ... ... ... : ... .. . ...
ROW 21 : ... .. . ... ... ... : ... .. . ... ... ... : ... .. . ... : ... .. . ... : ... .. . ... : ... .. . ... ... : ... .. . ... ... ... : ... .. . ...
ROW 22 : E-4 00 1 ... ... ... : ... .. . ... ... ... : ... .. . ... : ... .. . ... : ... .. . ... : ... .. . ... ... : ... .. . ... ... ... : ... .. . ...
ROW 23 : ... .. . ... ... ... : ... .. . ... ... ... : ... .. . ... : ... .. . ... : ... .. . FD4 : ... .. . ... ... : ... .. . ... ... ... : ... .. . ...
ROW 24 : G-4 00 3 ... ... ... : ... .. . ... ... ... : C-3 08 . ... : 9-# 03 . ... : E-3 00 . F96 : F-3 06 . V05 ... : F-2 06 . V05 ... ... : F-0 05 . ...
ROW 25 : ... .. . ... ... ... : ... .. . ... ... ... : ... .. . ... : ... .. . ... : ... .. . ... : ... .. . V01 ... : ... .. . V01 ... ... : F-1 05 . ...
ROW 26 : ... .. . ... ... ... : ... .. . ... ... ... : ... .. . ... : ... .. . ... : ... .. . ... : ... .. . ... ... : ... .. . ... ... ... : F-2 05 . ...
ROW 27 : ... .. . ... ... ... : ... .. . ... ... ... : ... .. . ... : ... .. . ... : ... .. . FD4 : ... .. . ... ... : ... .. . ... ... ... : ... .. . ...
ROW 28 : ... .. . ... ... ... : ... .. . ... ... ... : ... .. . ... : ... .. . ... : ... .. . F96 : ... .. . ... ... : ... .. . ... ... ... : ... .. . ...
ROW 29 : ... .. . ... ... ... : ... .. . ... ... ... : ... .. . ... : ... .. . ... : ... .. . ... : ... .. . ... ... : ... .. . ... ... ... : ... .. . ...
ROW 2A : G-4 00 1 ... ... ... : ... .. . ... ... ... : ... .. . ... : ... .. . ... : ... .. . ... : ... .. . ... ... : ... .. . ... ... ... : ... .. . ...
ROW 2B : ... .. . ... ... ... : ... .. . ... ... ... : ... .. . ... : ... .. . ... : ... .. . FD4 : ... .. . ... ... : ... .. . ... ... ... : ... .. . ...
ROW 2C : A-4 00 3 ... ... ... : F-3 07 . V01 ... ... : D-3 08 . ... : ... .. . ... : ... .. . F96 : D-3 06 . V05 ... : D-2 06 . V05 ... ... : D-0 05 . ...
ROW 2D : ... .. . ... ... ... : ... .. . V00 ... ... : ... .. . ... : ... .. . ... : ... .. . ... : ... .. . V01 ... : ... .. . V01 ... ... : D-1 05 . ...
ROW 2E : ... .. . ... ... ... : ... .. . ... ... ... : ... .. . ... : ... .. . ... : ... .. . ... : ... .. . ... ... : ... .. . ... ... ... : D-2 05 . ...
ROW 2F : ... .. . ... ... ... : ... .. . ... ... ... : ... .. . ... : ... .. . ... : ... .. . FD4 : ... .. . ... ... : ... .. . ... ... ... : ... .. . ...
ROW 30 : ... .. . ... ... ... : ... .. . ... ... ... : ... .. . ... : 3-# 04 . ... : C-3 00 . F96 : ... .. . ... ... : ... .. . ... ... ... : ... .. . ...
ROW 31 : ... .. . ... ... ... : ... .. . ... ... ... : ... .. . ... : ... .. . ... : ... .. . ... : ... .. . ... ... : ... .. . ... ... ... : ... .. . ...
ROW 32 : A-4 00 1 ... ... ... : ... .. . ... ... ... : ... .. . ... : ... .. . ... : ... .. . ... : ... .. . ... ... : ... .. . ... ... ... : ... .. . ...
ROW 33 : ... .. . ... ... ... : ... .. . ... ... ... : ... .. . ... : ... .. . ... : ... .. . FD4 : ... .. . ... ... : ... .. . ... ... ... : ... .. . ...
ROW 34 : A-4 00 3 ... ... ... : D-3 07 . V01 ... ... : D-3 08 . ... : D-# 01 . ... : ... .. . F96 : ... .. . ... ... : ... .. . ... ... ... : ... .. . ...
ROW 35 : ... .. . ... ... ... : ... .. . V00 ... ... : ... .. . ... : ... .. . ... : ... .. . ... : ... .. . ... ... : ... .. . ... ... ... : ... .. . ...
ROW 36 : A-4 00 1 ... ... ... : ... .. . ... ... ... : ... .. . ... : ... .. . ... : ... .. . ... : ... .. . ... ... : ... .. . ... ... ... : ... .. . ...
ROW 37 : ... .. . ... ... ... : ... .. . ... ... ... : ... .. . ... : ... .. . ... : ... .. . FD4 : ... .. . ... ... : ... .. . ... ... ... : ... .. . ...
ROW 38 : A-4 00 3 ... ... ... : ... .. . ... ... ... : D-3 08 . ... : D-# 01 . ... : ... .. . F96 : ... .. . ... ... : ... .. . ... ... ... : ... .. . ...
ROW 39 : ... .. . ... ... ... : ... .. . ... ... ... : ... .. . ... : ... .. . ... : ... .. . ... : ... .. . ... ... : ... .. . ... ... ... : ... .. . ...
ROW 3A : A-4 00 1 ... ... ... : ... .. . ... ... ... : ... .. . ... : ... .. . ... : ... .. . ... : ... .. . ... ... : ... .. . ... ... ... : ... .. . ...
ROW 3B : ... .. . ... ... ... : ... .. . ... ... ... : ... .. . ... : ... .. . ... : ... .. . FD4 : ... .. . ... ... : ... .. . ... ... ... : ... .. . ...
ROW 3C : A-4 00 3 ... ... ... : ... .. . ... ... ... : D-3 08 . ... : 8-# 04 . ... : C#3 00 . F96 : ... .. . ... ... : ... .. . ... ... ... : ... .. . ...
ROW 3D : ... .. . ... ... ... : ... .. . ... ... ... : ... .. . ... : ... .. . ... : ... .. . ... : ... .. . ... ... : ... .. . ... ... ... : ... .. . ...
ROW 3E : A-4 00 1 ... ... ... : ... .. . ... ... ... : ... .. . ... : ... .. . ... : ... .. . ... : ... .. . ... ... : ... .. . ... ... ... : ... .. . ...
ROW 3F : ... .. . ... ... ... : ... .. . ... ... ... : ... .. . ... : ... .. . ... : ... .. . FD4 : ... .. . ... ... : ... .. . ... ... ... : ... .. . ...
ROW 40 : A-4 00 3 ... ... ... : ... .. . ... ... ... : D-3 08 . ... : D-# 01 . ... : ... .. . F96 : ... .. . ... ... : ... .. . ... ... ... : ... .. . ...
ROW 41 : ... .. . ... ... ... : ... .. . ... ... ... : ... .. . ... : ... .. . ... : ... .. . ... : ... .. . ... ... : ... .. . ... ... ... : ... .. . ...
ROW 42 : A-4 00 1 ... ... ... : ... .. . ... ... ... : ... .. . ... : ... .. . ... : ... .. . ... : ... .. . ... ... : ... .. . ... ... ... : ... .. . ...
ROW 43 : ... .. . ... ... ... : ... .. . ... ... ... : ... .. . ... : ... .. . ... : ... .. . FD4 : ... .. . ... ... : ... .. . ... ... ... : ... .. . ...
ROW 44 : A-4 00 3 ... ... ... : ... .. . ... ... ... : D-3 08 . ... : D-# 01 . ... : ... .. . F96 : ... .. . ... ... : ... .. . ... ... ... : ... .. . ...
ROW 45 : ... .. . ... ... ... : ... .. . ... ... ... : ... .. . ... : ... .. . ... : ... .. . ... : ... .. . ... ... : ... .. . ... ... ... : ... .. . ...
ROW 46 : A-4 00 1 ... ... ... : ... .. . ... ... ... : ... .. . ... : ... .. . ... : ... .. . ... : ... .. . ... ... : ... .. . ... ... ... : ... .. . ...
ROW 47 : ... .. . ... ... ... : ... .. . ... ... ... : ... .. . ... : ... .. . ... : ... .. . FD4 : ... .. . ... ... : ... .. . ... ... ... : ... .. . ...
ROW 48 : A-4 00 3 ... ... ... : ... .. . ... ... ... : D-3 08 . ... : 3-# 04 . ... : C-3 00 . F96 : ... .. . ... ... : ... .. . ... ... ... : ... .. . ...
ROW 49 : ... .. . ... ... ... : ... .. . ... ... ... : ... .. . ... : ... .. . ... : ... .. . ... : ... .. . ... ... : ... .. . ... ... ... : ... .. . ...
ROW 4A : A-4 00 1 ... ... ... : ... .. . ... ... ... : ... .. . ... : ... .. . ... : ... .. . ... : ... .. . ... R12 : ... .. . ... R22 ... : ... .. . ...
ROW 4B : ... .. . ... ... ... : ... .. . ... ... ... : ... .. . ... : ... .. . ... : ... .. . FD4 : ... .. . ... ... : ... .. . ... ... ... : ... .. . ...
ROW 4C : A-4 00 3 ... ... ... : ... .. . ... ... ... : D-3 08 . ... : D-# 01 . ... : ... .. . F96 : ... .. . ... ... : ... .. . ... ... ... : ... .. . ...
ROW 4D : ... .. . ... ... ... : ... .. . ... ... ... : ... .. . ... : ... .. . ... : ... .. . ... : ... .. . ... ... : ... .. . ... ... ... : ... .. . ...
ROW 4E : A-4 00 1 ... ... ... : ... .. . ... ... ... : ... .. . ... : ... .. . ... : ... .. . ... : ... .. . ... ... : ... .. . ... ... ... : ... .. . ...
ROW 4F : ... .. . ... ... ... : ... .. . ... ... ... : ... .. . ... : ... .. . ... : ... .. . FD4 : ... .. . ... ... : ... .. . ... ... ... : ... .. . ...
ROW 50 : A-4 00 3 ... ... ... : ... .. . ... ... ... : D-3 08 . ... : D-# 01 . ... : ... .. . F96 : ... .. . ... ... : ... .. . ... ... ... : ... .. . ...
ROW 51 : ... .. . ... ... ... : ... .. . ... ... ... : ... .. . ... : ... .. . ... : ... .. . ... : ... .. . ... ... : ... .. . ... ... ... : ... .. . ...
ROW 52 : A-4 00 1 ... ... ... : ... .. . ... R12 ... : ... .. . ... : ... .. . ... : ... .. . ... : ... .. . ... ... : ... .. . ... ... ... : ... .. . ...
ROW 53 : ... .. . ... ... ... : ... .. . ... ... ... : ... .. . ... : ... .. . ... : ... .. . FD4 : ... .. . ... ... : ... .. . ... ... ... : ... .. . ...
ROW 54 : G-4 00 3 ... ... ... : ... .. . ... ... ... : C-3 08 . ... : 8-# 04 . ... : C#3 00 . F96 : C-3 06 . V05 ... : C-2 06 . V05 ... ... : C-0 05 . ...
ROW 55 : ... .. . ... ... ... : ... .. . ... ... ... : ... .. . ... : ... .. . ... : ... .. . ... : ... .. . V01 ... : ... .. . V01 ... ... : C-1 05 . ...
ROW 56 : ... .. . ... ... ... : ... .. . ... ... ... : ... .. . ... : ... .. . ... : ... .. . ... : ... .. . ... ... : ... .. . ... ... ... : C-2 05 . ...
ROW 57 : ... .. . ... ... ... : ... .. . ... ... ... : ... .. . ... : ... .. . ... : ... .. . FD4 : ... .. . ... ... : ... .. . ... ... ... : ... .. . ...
ROW 58 : ... .. . ... ... ... : ... .. . ... ... ... : ... .. . ... : D-# 01 . ... : ... .. . F96 : ... .. . ... ... : ... .. . ... ... ... : ... .. . ...
ROW 59 : ... .. . ... ... ... : ... .. . ... ... ... : ... .. . ... : ... .. . ... : ... .. . ... : ... .. . ... ... : ... .. . ... ... ... : ... .. . ...
ROW 5A : G-4 00 1 ... ... ... : ... .. . ... ... ... : ... .. . ... : ... .. . ... : ... .. . ... : ... .. . ... ... : ... .. . ... ... ... : ... .. . ...
ROW 5B : ... .. . ... ... ... : ... .. . ... ... ... : ... .. . ... : ... .. . ... : ... .. . FD4 : ... .. . ... ... : ... .. . ... ... ... : ... .. . ...
ROW 5C : A-4 00 3 ... ... ... : C-3 07 . V01 ... ... : D-3 08 . ... : D-# 01 . ... : ... .. . F96 : D-3 06 . V05 ... : D-2 06 . V05 ... ... : D-0 05 . ...
ROW 5D : ... .. . ... ... ... : ... .. . V00 ... ... : ... .. . ... : ... .. . ... : ... .. . ... : ... .. . V01 ... : ... .. . V01 ... ... : D-1 05 . ...
ROW 5E : ... .. . ... ... ... : ... .. . ... ... ... : ... .. . ... : ... .. . ... : ... .. . ... : ... .. . ... ... : ... .. . ... ... ... : D-2 05 . ...
ROW 5F : ... .. . ... ... ... : ... .. . ... ... ... : ... .. . ... : ... .. . ... : ... .. . FD4 : ... .. . ... ... : ... .. . ... ... ... : ... .. . ...

PATTERN 15
ROW 00 : ... .. . ... ... ... : ... .. . ... ... ... : ... .. . ... : 3-# 04 . ... : C-3 00 . F96 : ... .. . ... ... : ... .. . ... ... ... : ... .. . ...
ROW 01 : ... .. . ... ... ... : ... .. . ... ... ... : ... .. . ... : ... .. . ... : ... .. . ... : ... .. . ... ... : ... .. . ... ... ... : ... .. . ...
ROW 02 : A-4 00 1 ... ... ... : ... .. . ... ... ... : ... .. . ... : ... .. . ... : ... .. . ... : ... .. . ... ... : ... .. . ... ... ... : ... .. . ...
ROW 03 : ... .. . ... ... ... : ... .. . ... ... ... : ... .. . ... : ... .. . ... : ... .. . FD4 : ... .. . ... ... : ... .. . ... ... ... : ... .. . ...
ROW 04 : A-4 00 3 ... ... ... : D-3 07 . V01 ... ... : D-3 08 . ... : D-# 01 . ... : ... .. . F96 : ... .. . ... ... : ... .. . ... ... ... : ... .. . ...
ROW 05 : ... .. . ... ... ... : ... .. . V00 ... ... : ... .. . ... : ... .. . ... : ... .. . ... : ... .. . ... ... : ... .. . ... ... ... : ... .. . ...
ROW 06 : A-4 00 1 ... ... ... : ... .. . ... ... ... : ... .. . ... : ... .. . ... : ... .. . ... : ... .. . ... ... : ... .. . ... ... ... : ... .. . ...
ROW 07 : ... .. . ... ... ... : ... .. . ... ... ... : ... .. . ... : ... .. . ... : ... .. . FD4 : ... .. . ... ... : ... .. . ... ... ... : ... .. . ...
ROW 08 : A-4 00 3 ... ... ... : ... .. . ... ... ... : D-3 08 . ... : D-# 01 . ... : ... .. . F96 : ... .. . ... ... : ... .. . ... ... ... : ... .. . ...
ROW 09 : ... .. . ... ... ... : ... .. . ... ... ... : ... .. . ... : ... .. . ... : ... .. . ... : ... .. . ... ... : ... .. . ... ... ... : ... .. . ...
ROW 0A : A-4 00 1 ... ... ... : ... .. . ... ... ... : ... .. . ... : ... .. . ... : ... .. . ... : ... .. . ... ... : ... .. . ... ... ... : ... .. . ...
ROW 0B : ... .. . ... ... ... : ... .. . ... ... ... : ... .. . ... : ... .. . ... : ... .. . FD4 : ... .. . ... ... : ... .. . ... ... ... : ... .. . ...
ROW 0C : A-4 00 3 ... ... ... : ... .. . ... ... ... : D-3 08 . ... : 8-# 04 . ... : C#3 00 . F96 : ... .. . ... ... : ... .. . ... ... ... : ... .. . ...
ROW 0D : ... .. . ... ... ... : ... .. . ... ... ... : ... .. . ... : ... .. . ... : ... .. . ... : ... .. . ... ... : ... .. . ... ... ... : ... .. . ...
ROW 0E : A-4 00 1 ... ... ... : ... .. . ... ... ... : ... .. . ... : ... .. . ... : ... .. . ... : ... .. . ... ... : ... .. . ... ... ... : ... .. . ...
ROW 0F : ... .. . ... ... ... : ... .. . ... ... ... : ... .. . ... : ... .. . ... : ... .. . FD4 : ... .. . ... ... : ... .. . ... ... ... : ... .. . ...
ROW 10 : A-4 00 3 ... ... ... : ... .. . ... ... ... : D-3 08 . ... : D-# 01 . ... : ... .. . F96 : ... .. . ... ... : ... .. . ... ... ... : ... .. . ...
ROW 11 : ... .. . ... ... ... : ... .. . ... ... ... : ... .. . ... : ... .. . ... : ... .. . ... : ... .. . ... ... : ... .. . ... ... ... : ... .. . ...
ROW 12 : A-4 00 1 ... ... ... : ... .. . ... ... ... : ... .. . ... : ... .. . ... : ... .. . ... : ... .. . ... ... : ... .. . ... ... ... : ... .. . ...
ROW 13 : ... .. . ... ... ... : ... .. . ... ... ... : ... .. . ... : ... .. . ... : ... .. . FD4 : ... .. . ... ... : ... .. . ... ... ... : ... .. . ...
ROW 14 : A-4 00 3 ... ... ... : ... .. . ... ... ... : D-3 08 . ... : D-# 01 . ... : ... .. . F96 : ... .. . ... ... : ... .. . ... ... ... : ... .. . ...
ROW 15 : ... .. . ... ... ... : ... .. . ... ... ... : ... .. . ... : ... .. . ... : ... .. . ... : ... .. . ... ... : ... .. . ... ... ... : ... .. . ...
ROW 16 : A-4 00 1 ... ... ... : ... .. . ... ... ... : ... .. . ... : ... .. . ... : ... .. . ... : ... .. . ... ... : ... .. . ... ... ... : ... .. . ...
ROW 17 : ... .. . ... ... ... : ... .. . ... ... ... : ... .. . ... : ... .. . ... : ... .. . FD4 : ... .. . ... ... : ... .. . ... ... ... : ... .. . ...
ROW 18 : A-4 00 3 ... ... ... : ... .. . ... ... ... : D-3 08 . ... : 8-# 04 . ... : C#3 00 . F96 : ... .. . ... ... : ... .. . ... ... ... : ... .. . ...
ROW 19 : ... .. . ... ... ... : ... .. . ... ... ... : ... .. . ... : ... .. . ... : ... .. . ... : ... .. . ... ... : ... .. . ... ... ... : ... .. . ...
ROW 1A : A-4 00 1 ... ... ... : ... .. . ... ... ... : ... .. . ... : ... .. . ... : ... .. . ... : ... .. . ... R18 : ... .. . ... R28 ... : ... .. . ...
ROW 1B : ... .. . ... ... ... : ... .. . ... ... ... : ... .. . ... : ... .. . ... : ... .. . FD4 : ... .. . ... ... : ... .. . ... ... ... : ... .. . ...
ROW 1C : A-4 00 3 ... ... ... : ... .. . ... ... ... : D-3 08 . ... : 8-# 04 . ... : C#3 00 . F96 : ... .. . ... R20 : ... .. . ... R40 ... : ... .. . ...
ROW 1D : ... .. . ... ... ... : ... .. . ... ... ... : ... .. . ... : ... .. . ... : ... .. . ... : ... .. . ... ... : ... .. . ... ... ... : ... .. . ...
ROW 1E : A-4 00 1 ... ... ... : ... .. . ... ... ... : ... .. . ... : ... .. . ... : ... .. . ... : ... .. . ... ... : ... .. . ... ... ... : ... .. . ...
ROW 1F : ... .. . ... ... ... : ... .. . ... ... ... : ... .. . ... : ... .. . ... : ... .. . FD4 : ... .. . ... ... : ... .. . ... ... ... : ... .. . ...
ROW 20 : A-4 00 3 ... ... ... : ... .. . ... ... ... : D-3 08 . ... : 8-# 04 . ... : C#3 00 . F96 : ... .. . ... ... : ... .. . ... ... ... : ... .. . ...
ROW 21 : ... .. . ... ... ... : ... .. . ... ... ... : ... .. . ... : ... .. . ... : ... .. . ... : ... .. . ... ... : ... .. . ... ... ... : ... .. . ...
ROW 22 : A-4 00 1 ... ... ... : ... .. . ... R18 ... : ... .. . ... : ... .. . ... : ... .. . ... : ... .. . ... ... : ... .. . ... ... ... : ... .. . ...
ROW 23 : ... .. . ... ... ... : ... .. . ... ... ... : ... .. . ... : ... .. . ... : ... .. . FD4 : ... .. . ... ... : ... .. . ... ... ... : ... .. . ...
ROW 24 : A-4 00 3 ... ... ... : ... .. . ... R20 ... : D-3 08 . ... : 8-# 04 . ... : C#3 00 . F96 : ... .. . ... ... : ... .. . ... ... ... : ... .. . ...
ROW 25 : ... .. . ... ... ... : ... .. . ... ... ... : ... .. . ... : ... .. . ... : ... .. . ... : ... .. . ... ... : ... .. . ... ... ... : ... .. . ...
ROW 26 : A-4 00 1 ... ... ... : ... .. . ... ... ... : ... .. . ... : ... .. . ... : ... .. . ... : ... .. . ... ... : ... .. . ... ... ... : ... .. . ...
ROW 27 : ... .. . ... ... ... : ... .. . ... ... ... : ... .. . ... : ... .. . ... : ... .. . FD4 : ... .. . ... ... : ... .. . ... ... ... : ... .. . ...
ROW 28 : A-4 00 3 ... ... ... : ... .. . ... ... ... : D-3 08 . ... : 8-# 04 . ... : C#3 00 . F96 : ... .. . ... ... : ... .. . ... ... ... : ... .. . ...
ROW 29 : ... .. . ... ... ... : ... .. . ... ... ... : ... .. . ... : ... .. . ... : ... .. . ... : ... .. . ... ... : ... .. . ... ... ... : ... .. . ...
ROW 2A : A-4 00 1 ... ... ... : ... .. . ... ... ... : ... .. . ... : ... .. . ... : ... .. . ... : ... .. . ... ... : ... .. . ... ... ... : ... .. . ...
ROW 2B : ... .. . ... ... ... : ... .. . ... ... ... : ... .. . ... : ... .. . ... : ... .. . FD4 : ... .. . ... ... : ... .. . ... ... ... : ... .. . ...
ROW 2C : A-4 00 3 ... ... ... : ... .. . ... ... ... : D-3 08 . ... : 8-# 04 . ... : C#3 00 . F96 : ... .. . ... ... : ... .. . ... ... ... : ... .. . ...
ROW 2D : ... .. . ... ... ... : ... .. . ... ... ... : ... .. . ... : ... .. . ... : ... .. . ... : ... .. . ... ... : ... .. . ... ... ... : ... .. . ...
ROW 2E : A-4 00 1 ... ... ... : ... .. . ... ... ... : ... .. . ... : ... .. . ... : ... .. . ... : ... .. . ... ... : ... .. . ... ... ... : ... .. . ...
ROW 2F : ... .. . ... ... ... : ... .. . ... ... ... : ... .. . ... : ... .. . B0A : ... .. . FD4 : ... .. . ... ... : ... .. . ... ... ... : ... .. . ...
ROW 30 : ... .. . ... ... ... : ... .. . ... ... ... : ... .. . ... : ... .. . ... : ... .. . ... : ... .. . ... ... : ... .. . ... ... ... : ... .. . ...
ROW 31 : ... .. . ... ... ... : ... .. . ... ... ... : ... .. . ... : ... .. . ... : ... .. . ... : ... .. . ... ... : ... .. . ... ... ... : ... .. . ...
ROW 32 : ... .. . ... ... ... : ... .. . ... ... ... : ... .. . ... : ... .. . ... : ... .. . ... : ... .. . ... ... : ... .. . ... ... ... : ... .. . ...
ROW 33 : ... .. . ... ... ... : ... .. . ... ... ... : ... .. . ... : ... .. . ... : ... .. . ... : ... .. . ... ... : ... .. . ... ... ... : ... .. . ...
ROW 34 : ... .. . ... ... ... : ... .. . ... ... ... : ... .. . ... : ... .. . ... : ... .. . ... : ... .. . ... ... : ... .. . ... ... ... : ... .. . ...
ROW 35 : ... .. . ... ... ... : ... .. . ... ... ... : ... .. . ... : ... .. . ... : ... .. . ... : ... .. . ... ... : ... .. . ... ... ... : ... .. . ...
ROW 36 : ... .. . ... ... ... : ... .. . ... ... ... : ... .. . ... : ... .. . ... : ... .. . ... : ... .. . ... ... : ... .. . ... ... ... : ... .. . ...
ROW 37 : ... .. . ... ... ... : ... .. . ... ... ... : ... .. . ... : ... .. . ... : ... .. . ... : ... .. . ... ... : ... .. . ... ... ... : ... .. . ...
ROW 38 : ... .. . ... ... ... : ... .. . ... ... ... : ... .. . ... : ... .. . ... : ... .. . ... : ... .. . ... ... : ... .. . ... ... ... : ... .. . ...
ROW 39 : ... .. . ... ... ... : ... .. . ... ... ... : ... .. . ... : ... .. . ... : ... .. . ... : ... .. . ... ... : ... .. . ... ... ... : ... .. . ...
ROW 3A : ... .. . ... ... ... : ... .. . ... ... ... : ... .. . ... : ... .. . ... : ... .. . ... : ... .. . ... ... : ... .. . ... ... ... : ... .. . ...
ROW 3B : ... .. . ... ... ... : ... .. . ... ... ... : ... .. . ... : ... .. . ... : ... .. . ... : ... .. . ... ... : ... .. . ... ... ... : ... .. . ...
ROW 3C : ... .. . ... ... ... : ... .. . ... ... ... : ... .. . ... : ... .. . ... : ... .. . ... : ... .. . ... ... : ... .. . ... ... ... : ... .. . ...
ROW 3D : ... .. . ... ... ... : ... .. . ... ... ... : ... .. . ... : ... .. . ... : ... .. . ... : ... .. . ... ... : ... .. . ... ... ... : ... .. . ...
ROW 3E : ... .. . ... ... ... : ... .. . ... ... ... : ... .. . ... : ... .. . ... : ... .. . ... : ... .. . ... ... : ... .. . ... ... ... : ... .. . ...
ROW 3F : ... .. . ... ... ... : ... .. . ... ... ... : ... .. . ... : ... .. . ... : ... .. . ... : ... .. . ... ... : ... .. . ... ... ... : ... .. . ...
ROW 40 : ... .. . ... ... ... : ... .. . ... ... ... : ... .. . ... : ... .. . ... : ... .. . ... : ... .. . ... ... : ... .. . ... ... ... : ... .. . ...
ROW 41 : ... .. . ... ... ... : ... .. . ... ... ... : ... .. . ... : ... .. . ... : ... .. . ... : ... .. . ... ... : ... .. . ... ... ... : ... .. . ...
ROW 42 : ... .. . ... ... ... : ... .. . ... ... ... : ... .. . ... : ... .. . ... : ... .. . ... : ... .. . ... ... : ... .. . ... ... ... : ... .. . ...
ROW 43 : ... .. . ... ... ... : ... .. . ... ... ... : ... .. . ... : ... .. . ... : ... .. . ... : ... .. . ... ... : ... .. . ... ... ... : ... .. . ...
ROW 44 : ... .. . ... ... ... : ... .. . ... ... ... : ... .. . ... : ... .. . ... : ... .. . ... : ... .. . ... ... : ... .. . ... ... ... : ... .. . ...
ROW 45 : ... .. . ... ... ... : ... .. . ... ... ... : ... .. . ... : ... .. . ... : ... .. . ... : ... .. . ... ... : ... .. . ... ... ... : ... .. . ...
ROW 46 : ... .. . ... ... ... : ... .. . ... ... ... : ... .. . ... : ... .. . ... : ... .. . ... : ... .. . ... ... : ... .. . ... ... ... : ... .. . ...
ROW 47 : ... .. . ... ... ... : ... .. . ... ... ... : ... .. . ... : ... .. . ... : ... .. . ... : ... .. . ... ... : ... .. . ... ... ... : ... .. . ...
ROW 48 : ... .. . ... ... ... : ... .. . ... ... ... : ... .. . ... : ... .. . ... : ... .. . ... : ... .. . ... ... : ... .. . ... ... ... : ... .. . ...
ROW 49 : ... .. . ... ... ... : ... .. . ... ... ... : ... .. . ... : ... .. . ... : ... .. . ... : ... .. . ... ... : ... .. . ... ... ... : ... .. . ...
ROW 4A : ... .. . ... ... ... : ... .. . ... ... ... : ... .. . ... : ... .. . ... : ... .. . ... : ... .. . ... ... : ... .. . ... ... ... : ... .. . ...
ROW 4B : ... .. . ... ... ... : ... .. . ... ... ... : ... .. . ... : ... .. . ... : ... .. . ... : ... .. . ... ... : ... .. . ... ... ... : ... .. . ...
ROW 4C : ... .. . ... ... ... : ... .. . ... ... ... : ... .. . ... : ... .. . ... : ... .. . ... : ... .. . ... ... : ... .. . ... ... ... : ... .. . ...
ROW 4D : ... .. . ... ... ... : ... .. . ... ... ... : ... .. . ... : ... .. . ... : ... .. . ... : ... .. . ... ... : ... .. . ... ... ... : ... .. . ...
ROW 4E : ... .. . ... ... ... : ... .. . ... ... ... : ... .. . ... : ... .. . ... : ... .. . ... : ... .. . ... ... : ... .. . ... ... ... : ... .. . ...
ROW 4F : ... .. . ... ... ... : ... .. . ... ... ... : ... .. . ... : ... .. . ... : ... .. . ... : ... .. . ... ... : ... .. . ... ... ... : ... .. . ...
ROW 50 : ... .. . ... ... ... : ... .. . ... ... ... : ... .. . ... : ... .. . ... : ... .. . ... : ... .. . ... ... : ... .. . ... ... ... : ... .. . ...
ROW 51 : ... .. . ... ... ... : ... .. . ... ... ... : ... .. . ... : ... .. . ... : ... .. . ... : ... .. . ... ... : ... .. . ... ... ... : ... .. . ...
ROW 52 : ... .. . ... ... ... : ... .. . ... ... ... : ... .. . ... : ... .. . ... : ... .. . ... : ... .. . ... ... : ... .. . ... ... ... : ... .. . ...
ROW 53 : ... .. . ... ... ... : ... .. . ... ... ... : ... .. . ... : ... .. . ... : ... .. . ... : ... .. . ... ... : ... .. . ... ... ... : ... .. . ...
ROW 54 : ... .. . ... ... ... : ... .. . ... ... ... : ... .. . ... : ... .. . ... : ... .. . ... : ... .. . ... ... : ... .. . ... ... ... : ... .. . ...
ROW 55 : ... .. . ... ... ... : ... .. . ... ... ... : ... .. . ... : ... .. . ... : ... .. . ... : ... .. . ... ... : ... .. . ... ... ... : ... .. . ...
ROW 56 : ... .. . ... ... ... : ... .. . ... ... ... : ... .. . ... : ... .. . ... : ... .. . ... : ... .. . ... ... : ... .. . ... ... ... : ... .. . ...
ROW 57 : ... .. . ... ... ... : ... .. . ... ... ... : ... .. . ... : ... .. . ... : ... .. . ... : ... .. . ... ... : ... .. . ... ... ... : ... .. . ...
ROW 58 : ... .. . ... ... ... : ... .. . ... ... ... : ... .. . ... : ... .. . ... : ... .. . ... : ... .. . ... ... : ... .. . ... ... ... : ... .. . ...
ROW 59 : ... .. . ... ... ... : ... .. . ... ... ... : ... .. . ... : ... .. . ... : ... .. . ... : ... .. . ... ... : ... .. . ... ... ... : ... .. . ...
ROW 5A : ... .. . ... ... ... : ... .. . ... ... ... : ... .. . ... : ... .. . ... : ... .. . ... : ... .. . ... ... : ... .. . ... ... ... : ... .. . ...
ROW 5B : ... .. . ... ... ... : ... .. . ... ... ... : ... .. . ... : ... .. . ... : ... .. . ... : ... .. . ... ... : ... .. . ... ... ... : ... .. . ...
ROW 5C : ... .. . ... ... ... : ... .. . ... ... ... : ... .. . ... : ... .. . ... : ... .. . ... : ... .. . ... ... : ... .. . ... ... ... : ... .. . ...
ROW 5D : ... .. . ... ... ... : ... .. . ... ... ... : ... .. . ... : ... .. . ... : ... .. . ... : ... .. . ... ... : ... .. . ... ... ... : ... .. . ...
ROW 5E : ... .. . ... ... ... : ... .. . ... ... ... : ... .. . ... : ... .. . ... : ... .. . ... : ... .. . ... ... : ... .. . ... ... ... : ... .. . ...
ROW 5F : ... .. . ... ... ... : ... .. . ... ... ... : ... .. . ... : ... .. . ... : ... .. . ... : ... .. . ... ... : ... .. . ... ... ... : ... .. . ...

TRACK  64   2 150 "Devil Crash: Main Theme"
COLUMNS : 1 1 1 1 2 1 2 1

ORDER 00 : 00 00 00 00 00 00 00 00
ORDER 01 : 01 01 01 01 01 01 01 01
ORDER 02 : 02 02 02 02 02 02 02 02
ORDER 03 : 03 03 03 03 03 03 03 03
ORDER 04 : 04 04 04 04 04 04 04 04
ORDER 05 : 05 05 05 05 05 05 05 05
ORDER 06 : 06 06 06 06 06 06 06 06
ORDER 07 : 07 07 07 07 07 07 07 07
ORDER 08 : 08 08 08 08 08 08 08 08
ORDER 09 : 09 09 09 09 09 09 09 09
ORDER 0A : 0A 0A 0A 0A 0A 0A 0A 0A
ORDER 0B : 0B 0B 0B 0B 0B 0B 0B 0B
ORDER 0C : 0C 0C 0C 0C 0C 0C 0C 0C
ORDER 0D : 0D 0D 0D 0D 0D 0D 0D 0D
ORDER 0E : 0E 0E 0E 0E 0E 0E 0E 0E
ORDER 0F : 0F 0F 0F 0F 0F 0F 0F 0F
ORDER 10 : 10 10 10 10 10 10 10 10
ORDER 11 : 11 11 11 11 11 11 11 11
ORDER 12 : 12 12 12 12 12 12 12 12
ORDER 13 : 13 13 13 13 13 13 13 13
ORDER 14 : 14 14 14 14 14 14 14 14
ORDER 15 : 15 15 15 15 15 15 15 15
ORDER 16 : 16 16 16 16 16 16 16 16
ORDER 17 : 17 17 17 17 17 17 17 17
ORDER 18 : 18 18 18 18 18 18 18 18
ORDER 19 : 19 19 19 19 19 19 19 19
ORDER 1A : 1A 1A 1A 1A 1A 1A 1A 1A
ORDER 1B : 1B 1B 1B 1B 1B 1B 1B 1B
ORDER 1C : 1C 1C 1C 1C 1C 1C 1C 1C
ORDER 1D : 1D 1D 1D 1D 1D 1D 1D 1D
ORDER 1E : 1E 1E 1E 1E 1E 1E 1E 1E
ORDER 1F : 1F 1F 1F 1F 1F 1F 1F 1F
ORDER 20 : 20 20 20 20 20 20 20 20
ORDER 21 : 21 21 21 21 21 21 21 21
ORDER 22 : 22 22 22 22 22 22 22 22
ORDER 23 : 23 23 23 23 23 23 23 23
ORDER 24 : 24 24 24 24 24 24 24 24
ORDER 25 : 25 25 25 25 25 25 25 25
ORDER 26 : 26 26 26 26 26 26 26 26
ORDER 27 : 27 27 27 27 27 27 27 27
ORDER 28 : 28 28 28 28 28 28 28 28
ORDER 29 : 29 29 29 29 29 29 29 29
ORDER 2A : 2A 2A 2A 2A 2A 2A 2A 2A
ORDER 2B : 2B 2B 2B 2B 2B 2B 2B 2B
ORDER 2C : 2C 2C 2C 2C 2C 2C 2C 2C
ORDER 2D : 2D 2D 2D 2D 2D 2D 2D 2D
ORDER 2E : 2E 2E 2E 2E 2E 2E 2E 2E
ORDER 2F : 2F 2F 2F 2F 2F 2F 2F 2F
ORDER 30 : 30 30 30 30 30 30 30 30
ORDER 31 : 31 31 31 31 31 31 31 31
ORDER 32 : 32 32 32 32 32 32 32 32
ORDER 33 : 33 33 33 33 33 33 33 33
ORDER 34 : 34 34 34 34 34 34 34 34
ORDER 35 : 35 35 35 35 35 35 35 35
ORDER 36 : 36 36 36 36 36 36 36 36
ORDER 37 : 37 37 37 37 37 37 37 37
ORDER 38 : 38 38 38 38 38 38 38 38
ORDER 39 : 39 39 39 39 39 39 39 39
ORDER 3A : 3A 3A 3A 3A 3A 3A 3A 3A
ORDER 3B : 3B 3B 3B 3B 3B 3B 3B 3B
ORDER 3C : 3C 3C 3C 3C 3C 3C 3C 3C
ORDER 3D : 3D 3D 3D 3D 3D 3D 3D 3D
ORDER 3E : 3E 3E 3E 3E 3E 3E 3E 3E
ORDER 3F : 3F 3F 3F 3F 3F 3F 3F 3F
ORDER 40 : 40 40 40 40 40 40 40 40
ORDER 41 : 41 41 41 41 41 41 41 41
ORDER 42 : 42 42 42 42 42 42 42 42
ORDER 43 : 43 43 43 43 43 43 43 43
ORDER 44 : 44 44 44 44 44 44 44 44
ORDER 45 : 45 45 45 45 45 45 45 45
ORDER 46 : 46 46 46 46 46 46 46 46
ORDER 47 : 47 47 47 47 47 47 47 47
ORDER 48 : 48 48 48 48 48 48 48 48
ORDER 49 : 49 49 49 49 49 49 49 49
ORDER 4A : 4A 4A 4A 4A 4A 4A 4A 4A
ORDER 4B : 4B 4B 4B 4B 4B 4B 4B 4B
ORDER 4C : 4C 4C 4C 4C 4C 4C 4C 4C
ORDER 4D : 4D 4D 4D 4D 4D 4D 4D 4D
ORDER 4E : 4E 4E 4E 4E 4E 4E 4E 4E
ORDER 4F : 4F 4F 4F 4F 4F 4F 4F 4F
ORDER 50 : 50 50 50 50 50 50 50 50
ORDER 51 : 51 51 51 51 51 51 51 51
ORDER 52 : 52 52 52 52 52 52 52 52

PATTERN 00
ROW 00 : A#3 14 . ... : ... .. . ... : A#3 0D . ... : B-# 0B . ... : D-3 09 . ... F96 : A#1 0E B ... : ... .. . ... ... : A#4 0E . ...
ROW 01 : ... .. . ... : ... .. . ... : ... .. . ... : ... .. . ... : ... .. . ... F7C : ... .. . ... : ... .. . ... ... : ... .. . ...
ROW 02 : A-3 14 . ... : ... .. . ... : A-3 0D . ... : B-# 0B . ... : D-3 09 . ... F96 : A-1 0E . ... : ... .. . ... ... : A-4 0E . ...
ROW 03 : ... .. . ... : ... .. . ... : ... .. . ... : ... .. . ... : ... .. . ... F7C : ... .. . ... : ... .. . ... ... : ... .. . ...
ROW 04 : G-3 14 . ... : A#3 14 9 P7E : G-3 0D . ... : 9-# 0B . ... : E-3 09 . ... F96 : G-1 0E . ... : A#4 0E 9 ... P7E : G-4 0E . ...
ROW 05 : ... .. . ... : ... .. . ... : ... .. . ... : ... .. . ... : ... .. . ... F7C : ... .. . ... : ... .. . ... ... : ... .. . ...
ROW 06 : F-3 14 . ... : A-3 14 . ... : F-3 0D . ... : 9-# 0B . ... : E-3 09 . ... F96 : F-1 0E . ... : A-4 0E . ... ... : F-4 0E . ...
ROW 07 : ... .. . ... : ... .. . ... : ... .. . ... : ... .. . ... : ... .. . ... F7C : ... .. . ... : ... .. . ... ... : ... .. . ...
ROW 08 : E-3 14 . ... : G-3 14 . ... : E-3 0D . ... : 8-# 0B . ... : F-3 09 . ... F96 : E-1 0E . ... : G-4 0E . ... ... : E-4 0E . ...
ROW 09 : ... .. . ... : ... .. . ... : ... .. . ... : ... .. . ... : ... .. . ... F7C : ... .. . ... : ... .. . ... ... : ... .. . ...
ROW 0A : D-3 14 . ... : F-3 14 . ... : D-3 0D . ... : 8-# 0B . ... : F-3 09 . ... F96 : D-1 0E . ... : F-4 0E . ... ... : D-4 0E . ...
ROW 0B : ... .. . ... : ... .. . ... : ... .. . ... : ... .. . ... : ... .. . ... F7C : ... .. . ... : ... .. . ... ... : ... .. . ...
ROW 0C : A#3 14 . ... : E-3 14 . ... : A#3 0D . ... : B-# 0B . ... : D-3 09 . ... F96 : A#1 0E . ... : E-4 0E . ... ... : A#4 0E . ...
ROW 0D : ... .. . ... : ... .. . ... : ... .. . ... : ... .. . ... : ... .. . ... F7C : ... .. . ... : ... .. . ... ... : ... .. . ...
ROW 0E : A-3 14 . ... : D-3 14 . ... : A-3 0D . ... : B-# 0B . ... : D-3 09 . ... F96 : A-1 0E . ... : D-4 0E . ... ... : A-4 0E . ...
ROW 0F : ... .. . ... : ... .. . ... : ... .. . ... : ... .. . ... : ... .. . ... F7C : ... .. . ... : ... .. . ... ... : ... .. . ...
ROW 10 : G-3 14 . ... : A#3 14 . ... : G-3 0D . ... : 9-# 0B . ... : E-3 09 . ... F96 : G-1 0E . ... : A#4 0E . ... ... : G-4 0E . ...
ROW 11 : ... .. . ... : ... .. . ... : ... .. . ... : ... .. . ... : ... .. . ... F7C : ... .. . ... : ... .. . ... ... : ... .. . ...
ROW 12 : F-3 14 . ... : A-3 14 . ... : F-3 0D . ... : 9-# 0B . ... : E-3 09 . ... F96 : F-1 0E . ... : A-4 0E . ... ... : F-4 0E . ...
ROW 13 : ... .. . ... : ... .. . ... : ... .. . ... : ... .. . ... : ... .. . ... F7C : ... .. . ... : ... .. . ... ... : ... .. . ...
ROW 14 : E-3 14 . ... : G-3 14 . ... : E-3 0D . ... : 8-# 0B . ... : F-3 09 . ... F96 : E-1 0E . ... : G-4 0E . ... ... : E-4 0E . ...
ROW 15 : ... .. . ... : ... .. . ... : ... .. . ... : ... .. . ... : ... .. . ... F7C : ... .. . ... : ... .. . ... ... : ... .. . ...
ROW 16 : D-3 14 . ... : F-3 14 . ... : D-3 0D . ... : 8-# 0B . ... : F-3 09 . ... F96 : D-1 0E . ... : F-4 0E . ... ... : D-4 0E . ...
ROW 17 : ... .. . ... : ... .. . ... : ... .. . ... : ... .. . ... : ... .. . ... F7C : ... .. . ... : ... .. . ... ... : ... .. . ...
ROW 18 : A#3 14 . ... : E-3 14 . ... : A#3 0D . ... : B-# 0B . ... : D-3 09 . ... F96 : A#1 0E . ... : E-4 0E . ... ... : A#4 0E . ...
ROW 19 : ... .. . ... : ... .. . ... : ... .. . ... : ... .. . ... : ... .. . ... F7C : ... .. . ... : ... .. . ... ... : ... .. . ...
ROW 1A : A-3 14 . ... : D-3 14 . ... : A-3 0D . ... : B-# 0B . ... : D-3 09 . ... F96 : A-1 0E . ... : D-4 0E . ... ... : A-4 0E . ...
ROW 1B : ... .. . ... : ... .. . ... : ... .. . ... : ... .. . ... : ... .. . ... F7C : ... .. . ... : ... .. . ... ... : ... .. . ...
ROW 1C : G-3 14 . ... : A#3 14 . ... : G-3 0D . ... : 9-# 0B . ... : E-3 09 . ... F96 : G-1 0E . ... : A#4 0E . ... ... : G-4 0E . ...
ROW 1D : ... .. . ... : ... .. . ... : ... .. . ... : ... .. . ... : ... .. . ... F7C : ... .. . ... : ... .. . ... ... : ... .. . ...
ROW 1E : F-3 14 . ... : A-3 14 . ... : F-3 0D . ... : 9-# 0B . ... : E-3 09 . ... F96 : F-1 0E . ... : A-4 0E . ... ... : F-4 0E . ...
ROW 1F : ... .. . ... : ... .. . ... : ... .. . ... : ... .. . ... : ... .. . ... F7C : ... .. . ... : ... .. . ... ... : ... .. . ...
ROW 20 : E-3 14 . ... : G-3 14 . ... : E-3 0D . ... : 8-# 0B . ... : F-3 09 . ... F96 : E-1 0E . ... : G-4 0E . ... ... : E-4 0E . ...
ROW 21 : ... .. . ... : ... .. . ... : ... .. . ... : ... .. . ... : ... .. . ... F7C : ... .. . ... : ... .. . ... ... : ... .. . ...
ROW 22 : D-3 14 . ... : F-3 14 . ... : D-3 0D . ... : 8-# 0B . ... : F-3 09 . ... F96 : D-1 0E . ... : F-4 0E . ... ... : D-4 0E . ...
ROW 23 : ... .. . ... : ... .. . ... : ... .. . ... : ... .. . ... : ... .. . ... F7C : ... .. . ... : ... .. . ... ... : ... .. . ...
ROW 24 : D-2 14 . ... : E-3 14 . ... : D-3 0D . ... : 0-# 0C . ... : G#3 09 . ... F96 : D-4 0E . ... : E-4 0E . ... ... : D-3 0E . ...
ROW 25 : ... .. . ... : ... .. . ... : ... .. . ... : ... .. . ... : ... .. . ... F7C : ... .. . ... : ... .. . ... ... : ... .. . ...
ROW 26 : ... .. . ... : D-3 14 . ... : ... .. . ... : ... .. . ... : ... .. . ... F96 : ... .. . ... : D-4 0E . ... ... : ... .. . ...
ROW 27 : ... .. . ... : ... .. . ... : ... .. . ... : ... .. . ... : ... .. . ... F7C : ... .. . ... : ... .. . ... ... : ... .. . ...
ROW 28 : ... .. D ... : D-2 14 . ... : ... .. . ... : ... .. . ... : ... .. . ... F96 : ... .. 9 ... : D-3 0E . ... ... : ... .. D ...
ROW 29 : ... .. . ... : ... .. . ... : ... .. . ... : ... .. . ... : ... .. . ... F7C : ... .. . ... : ... .. . ... ... : ... .. B ...
ROW 2A : ... .. B ... : ... .. . ... : ... .. . ... : ... .. . ... : ... .. . ... F96 : ... .. 7 ... : ... .. . ... ... : ... .. 9 ...
ROW 2B : ... .. 9 ... : ... .. . ... : ... .. . ... : ... .. . ... : ... .. . ... F7C : ... .. 6 ... : ... .. . ... ... : ... .. 7 ...
ROW 2C : ... .. 8 ... : ... .. . ... : --- .. . ... : ... .. . ... : ... .. . ... F96 : ... .. 5 ... : ... .. . ... ... : ... .. 6 ...
ROW 2D : ... .. 7 ... : ... .. . ... : ... .. . ... : ... .. . ... : ... .. . ... F7C : ... .. 4 ... : ... .. . ... ... : ... .. 5 ...
ROW 2E : ... .. 6 ... : ... .. 7 ... : ... .. . ... : ... .. . ... : ... .. . ... F96 : ... .. 3 ... : ... .. 7 ... ... : ... .. 4 ...
ROW 2F : ... .. 5 ... : ... .. . ... : ... .. . ... : ... .. . ... : ... .. . ... F7C : ... .. 2 ... : ... .. . ... ... : ... .. 3 ...
ROW 30 : D-2 14 F ... : ... .. 5 ... : D-3 0D . ... : 0-# 0C . ... : G#3 09 . ... F96 : D-4 0E B ... : ... .. 5 ... ... : D-3 0E F ...
ROW 31 : ... .. . ... : ... .. 4 ... : ... .. . ... : ... .. . ... : ... .. . ... F7C : ... .. . ... : ... .. 4 ... ... : ... .. . ...
ROW 32 : ... .. . ... : ... .. 3 ... : ... .. . ... : ... .. . ... : ... .. . ... F96 : ... .. . ... : ... .. 3 ... ... : ... .. . ...
ROW 33 : ... .. . ... : ... .. 2 ... : ... .. . ... : ... .. . ... : ... .. . ... F7C : ... .. . ... : ... .. 2 ... ... : ... .. . ...
ROW 34 : ... .. D ... : D-2 14 9 ... : ... .. . ... : ... .. . ... : ... .. . ... F96 : ... .. 9 ... : D-3 0E 9 ... ... : ... .. D ...
ROW 35 : ... .. . ... : ... .. . ... : ... .. . ... : ... .. . ... : ... .. . ... F7C : ... .. . ... : ... .. . ... ... : ... .. B ...
ROW 36 : ... .. B ... : ... .. . ... : ... .. . ... : ... .. . ... : ... .. . ... F96 : ... .. 7 ... : ... .. . ... ... : ... .. 9 ...
ROW 37 : ... .. 9 ... : ... .. . ... : ... .. . ... : ... .. . ... : ... .. . ... F7C : ... .. 6 ... : ... .. . ... ... : ... .. 7 ...
ROW 38 : ... .. 8 ... : ... .. . ... : --- .. . ... : 3-# 0A . ... : C-3 09 . ... F96 : ... .. 5 ... : ... .. . ... ... : ... .. 6 ...
ROW 39 : ... .. 7 ... : ... .. . ... : ... .. . ... : ... .. . ... : ... .. . ... F7C : ... .. 4 ... : ... .. . ... ... : ... .. 5 ...
ROW 3A : ... .. 6 ... : ... .. 7 ... : ... .. . ... : 3-# 0A . ... : C-3 09 . ... F96 : ... .. 3 ... : ... .. 7 ... ... : ... .. 4 ...
ROW 3B : ... .. 5 ... : ... .. . ... : ... .. . ... : ... .. . ... : ... .. . ... F7C : ... .. 2 ... : ... .. . ... ... : ... .. 3 ...
ROW 3C : ... .. 4 ... : ... .. 5 ... : ... .. . ... : 8-# 0A . ... : C#3 09 . ... F96 : ... .. 1 ... : ... .. 5 ... ... : ... .. 2 ...
ROW 3D : ... .. 3 ... : ... .. 4 ... : ... .. . ... : ... .. . ... : ... .. . ... F7C : ... .. 0 ... : ... .. 4 ... ... : ... .. 1 ...
ROW 3E : ... .. 2 ... : ... .. 3 ... : ... .. . ... : ... .. . ... : ... .. . ... F96 : ... .. . ... : ... .. 3 ... ... : ... .. 0 ...
ROW 3F : ... .. 1 ... : ... .. 2 ... : ... .. . ... : ... .. . ... : ... .. . ... F7C : ... .. . ... : ... .. 2 ... ... : ... .. . ...

PATTERN 01
ROW 00 : D-2 14 F ... : A-1 14 F P80 : D-3 0D . ... : 3-# 0A . ... : C-3 09 . ... F96 : F-4 0F F 462 : D-4 0F F 444 P80 : D-1 0E D ...
ROW 01 : ... .. . ... : ... .. . ... : ... .. . ... : ... .. . ... : ... .. . ... F7C : ... .. . ... : ... .. . ... ... : ... .. . ...
ROW 02 : ... .. . ... : ... .. . ... : ... .. . ... : ... .. . ... : ... .. . ... F96 : ... .. . ... : ... .. . ... ... : ... .. . ...
ROW 03 : ... .. . ... : ... .. . ... : ... .. . ... : ... .. . ... : ... .. . ... F7C : ... .. . ... : ... .. . ... ... : ... .. . ...
ROW 04 : D-2 14 . ... : A-1 14 . ... : D-3 0D . ... : ... .. . ... : ... .. . ... F96 : ... .. . ... : ... .. . ... ... : D-1 0E . ...
ROW 05 : ... .. . ... : ... .. . ... : ... .. . ... : ... .. . ... : ... .. . ... F7C : ... .. . ... : ... .. . ... ... : ... .. . ...
ROW 06 : ... .. . ... : ... .. . ... : ... .. . ... : 3-# 0A . ... : C-3 09 . ... F96 : ... .. . ... : ... .. . ... ... : ... .. . ...
ROW 07 : ... .. . ... : ... .. . ... : ... .. . ... : ... .. . ... : ... .. . ... F7C : ... .. . ... : ... .. . ... ... : ... .. . ...
ROW 08 : F-3 14 . ... : D-3 14 . ... : A-3 0D . ... : 8-# 0A . ... : C#3 09 . ... F96 : ... .. . ... : ... .. . ... ... : A-1 0E . ...
ROW 09 : ... .. . ... : ... .. . ... : ... .. . ... : ... .. . ... : ... .. . ... F7C : ... .. . ... : ... .. . ... ... : ... .. . ...
ROW 0A : ... .. . ... : ... .. . ... : ... .. . ... : ... .. . ... : ... .. . ... F96 : ... .. . ... : ... .. . ... ... : ... .. . ...
ROW 0B : ... .. . ... : ... .. . ... : ... .. . ... : ... .. . ... : ... .. . ... F7C : ... .. . ... : ... .. . ... ... : ... .. . ...
ROW 0C : D-2 14 . ... : A-1 14 . ... : D-3 0D . ... : ... .. . ... : ... .. . ... F96 : ... .. . ... : ... .. . ... ... : D-1 0E . ...
ROW 0D : ... .. . ... : ... .. . ... : ... .. . ... : ... .. . ... : ... .. . ... F7C : ... .. . ... : ... .. . ... ... : ... .. . ...
ROW 0E : ... .. . ... : ... .. . ... : ... .. . ... : ... .. . ... : ... .. . ... F96 : ... .. . ... : ... .. . ... ... : ... .. . ...
ROW 0F : ... .. . ... : ... .. . ... : ... .. . ... : ... .. . ... : ... .. . ... F7C : ... .. . ... : ... .. . ... ... : ... .. . ...
ROW 10 : E-3 14 . ... : C-3 14 . ... : D-3 0D . ... : 3-# 0A . ... : C-3 09 . ... F96 : ... .. . ... : ... .. . ... ... : D-1 0E . ...
ROW 11 : ... .. . ... : ... .. . ... : ... .. . ... : ... .. . ... : ... .. . ... F7C : ... .. . ... : ... .. . ... ... : ... .. . ...
ROW 12 : ... .. . ... : ... .. . ... : ... .. . ... : ... .. . ... : ... .. . ... F96 : ... .. . ... : ... .. . ... ... : ... .. . ...
ROW 13 : ... .. . ... : ... .. . ... : ... .. . ... : ... .. . ... : ... .. . ... F7C : ... .. . ... : ... .. . ... ... : ... .. . ...
ROW 14 : D-2 14 . ... : A-1 14 . ... : A#3 0D . ... : 3-# 0A . ... : C-3 09 . ... F96 : ... .. . ... : ... .. . ... ... : A#1 0E . ...
ROW 15 : ... .. . ... : ... .. . ... : ... .. . ... : ... .. . ... : ... .. . ... F7C : ... .. . ... : ... .. . ... ... : ... .. . ...
ROW 16 : ... .. . ... : ... .. . ... : ... .. . ... : 3-# 0A . ... : C-3 09 . ... F96 : ... .. . ... : ... .. . ... ... : ... .. . ...
ROW 17 : ... .. . ... : ... .. . ... : ... .. . ... : ... .. . ... : ... .. . ... F7C : ... .. . ... : ... .. . ... ... : ... .. . ...
ROW 18 : F-3 14 . ... : D-3 14 . ... : D-3 0D . ... : 8-# 0A . ... : C#3 09 . ... F96 : ... .. . ... : ... .. . ... ... : D-1 0E . ...
ROW 19 : ... .. . ... : ... .. . ... : ... .. . ... : ... .. . ... : ... .. . ... F7C : ... .. . ... : ... .. . ... ... : ... .. . ...
ROW 1A : ... .. . ... : ... .. . ... : ... .. . ... : ... .. . ... : ... .. . ... F96 : ... .. . ... : ... .. . ... ... : ... .. . ...
ROW 1B : ... .. . ... : ... .. . ... : ... .. . ... : ... .. . ... : ... .. . ... F7C : ... .. . ... : ... .. . ... ... : ... .. . ...
ROW 1C : D-2 14 . ... : A-1 14 . ... : D-3 0D . ... : ... .. . ... : ... .. . ... F96 : ... .. . ... : ... .. . ... ... : D-1 0E . ...
ROW 1D : ... .. . ... : ... .. . ... : ... .. . ... : ... .. . ... : ... .. . ... F7C : ... .. . ... : ... .. . ... ... : ... .. . ...
ROW 1E : ... .. . ... : ... .. . ... : ... .. . ... : ... .. . ... : ... .. . ... F96 : ... .. . ... : ... .. . ... ... : ... .. . ...
ROW 1F : ... .. . ... : ... .. . ... : ... .. . ... : ... .. . ... : ... .. . ... F7C : ... .. . ... : ... .. . ... ... : ... .. . ...
ROW 20 : G-3 14 . ... : E-3 14 . ... : C-4 0D . ... : 3-# 0A . ... : C-3 09 . ... F96 : ... .. . ... : ... .. . ... ... : C-2 0E . ...
ROW 21 : ... .. . ... : ... .. . ... : ... .. . ... : ... .. . ... : ... .. . ... F7C : ... .. . ... : ... .. . ... ... : ... .. . ...
ROW 22 : ... .. . ... : ... .. . ... : ... .. . ... : ... .. . ... : ... .. . ... F96 : ... .. . ... : ... .. . ... ... : ... .. . ...
ROW 23 : ... .. . ... : ... .. . ... : ... .. . ... : ... .. . ... : ... .. . ... F7C : ... .. . ... : ... .. . ... ... : ... .. . ...
ROW 24 : D-2 14 . ... : A-1 14 . ... : D-3 0D . ... : ... .. . ... : ... .. . ... F96 : ... .. . ... : ... .. . ... ... : D-1 0E . ...
ROW 25 : ... .. . ... : ... .. . ... : ... .. . ... : ... .. . ... : ... .. . ... F7C : ... .. . ... : ... .. . ... ... : ... .. . ...
ROW 26 : ... .. . ... : ... .. . ... : ... .. . ... : 3-# 0A . ... : C-3 09 . ... F96 : ... .. . ... : ... .. . ... ... : ... .. . ...
ROW 27 : ... .. . ... : ... .. . ... : ... .. . ... : ... .. . ... : ... .. . ... F7C : ... .. . ... : ... .. . ... ... : ... .. . ...
ROW 28 : F-3 14 . ... : D-3 14 . ... : D-3 0D . ... : 8-# 0A . ... : C#3 09 . ... F96 : ... .. . ... : ... .. . ... ... : D-1 0E . ...
ROW 29 : ... .. . ... : ... .. . ... : ... .. . ... : ... .. . ... : ... .. . ... F7C : ... .. . ... : ... .. . ... ... : ... .. . ...
ROW 2A : ... .. . ... : ... .. . ... : ... .. . ... : ... .. . ... : ... .. . ... F96 : ... .. . ... : ... .. . ... ... : ... .. . ...
ROW 2B : ... .. . ... : ... .. . ... : ... .. . ... : ... .. . ... : ... .. . ... F7C : ... .. . ... : ... .. . ... ... : ... .. . ...
ROW 2C : D-2 14 . ... : A-1 14 . ... : A#3 0D . ... : ... .. . ... : ... .. . ... F96 : ... .. . ... : ... .. . ... ... : A#1 0E . ...
ROW 2D : ... .. . ... : ... .. . ... : ... .. . ... : ... .. . ... : ... .. . ... F7C : ... .. . ... : ... .. . ... ... : ... .. . ...
ROW 2E : ... .. . ... : ... .. . ... : ... .. . ... : ... .. . ... : ... .. . ... F96 : ... .. . ... : ... .. . ... ... : ... .. . ...
ROW 2F : ... .. . ... : ... .. . ... : ... .. . ... : ... .. . ... : ... .. . ... F7C : ... .. . ... : ... .. . ... ... : ... .. . ...
ROW 30 : E-3 14 . ... : C-3 14 . ... : D-3 0D . ... : 3-# 0A . ... : C-3 09 . ... F96 : ... .. . ... : ... .. . ... ... : D-1 0E . ...
ROW 31 : ... .. . ... : ... .. . ... : ... .. . ... : ... .. . ... : ... .. . ... F7C : ... .. . ... : ... .. . ... ... : ... .. . ...
ROW 32 : ... .. . ... : ... .. . ... : ... .. . ... : ... .. . ... : ... .. . ... F96 : ... .. . ... : ... .. . ... ... : ... .. . ...
ROW 33 : ... .. . ... : ... .. . ... : ... .. . ... : ... .. . ... : ... .. . ... F7C : ... .. . ... : ... .. . ... ... : ... .. . ...
ROW 34 : F-3 14 . ... : D-3 14 . ... : G-3 0D . ... : 3-# 0A . ... : C-3 09 . ... F96 : ... .. . ... : ... .. . ... ... : G-1 0E . ...
ROW 35 : ... .. . ... : ... .. . ... : ... .. . ... : ... .. . ... : ... .. . ... F7C : ... .. . ... : ... .. . ... ... : ... .. . ...
ROW 36 : ... .. . ... : ... .. . ... : ... .. . ... : 3-# 0A . ... : C-3 09 . ... F96 : ... .. . ... : ... .. . ... ... : ... .. . ...
ROW 37 : ... .. . ... : ... .. . ... : ... .. . ... : ... .. . ... : ... .. . ... F7C : ... .. . ... : ... .. . ... ... : ... .. . ...
ROW 38 : ... .. . ... : ... .. . ... : F-3 0D . ... : 8-# 0A . ... : C#3 09 . ... F96 : ... .. . ... : ... .. . ... ... : F-1 0E . ...
ROW 39 : ... .. . ... : ... .. . ... : ... .. . ... : ... .. . ... : ... .. . ... F7C : ... .. . ... : ... .. . ... ... : ... .. . ...
ROW 3A : ... .. . ... : ... .. . ... : ... .. . ... : ... .. . ... : ... .. . ... F96 : ... .. . ... : ... .. . ... ... : ... .. . ...
ROW 3B : ... .. . ... : ... .. . ... : ... .. . ... : ... .. . ... : ... .. . ... F7C : ... .. . ... : ... .. . ... ... : ... .. . ...
ROW 3C : ... .. . ... : ... .. . ... : E-3 0D . ... : ... .. . ... : ... .. . ... F96 : ... .. . ... : ... .. . ... ... : E-1 0E . ...
ROW 3D : ... .. . ... : ... .. . ... : ... .. . ... : ... .. . ... : ... .. . ... F7C : ... .. . ... : ... .. . ... ... : ... .. . ...
ROW 3E : ... .. . ... : ... .. . ... : ... .. . ... : ... .. . ... : ... .. . ... F96 : ... .. . ... : ... .. . ... ... : ... .. . ...
ROW 3F : ... .. . ... : ... .. . ... : ... .. . ... : ... .. . ... : ... .. . ... F7C : ... .. . ... : ... .. . ... ... : ... .. . ...

PATTERN 02
ROW 00 : D-2 14 . ... : A-1 14 . ... : D-3 0D . ... : 3-# 0A . ... : C-3 09 . ... F96 : E-4 0F . 462 : C-4 0F . 444 ... : D-1 0E . ...
ROW 01 : ... .. . ... : ... .. . ... : ... .. . ... : ... .. . ... : ... .. . ... F7C : ... .. . ... : ... .. . ... ... : ... .. . ...
ROW 02 : ... .. . ... : ... .. . ... : ... .. . ... : ... .. . ... : ... .. . ... F96 : ... .. . ... : ... .. . ... ... : ... .. . ...
ROW 03 : ... .. . ... : ... .. . ... : ... .. . ... : ... .. . ... : ... .. . ... F7C : ... .. . ... : ... .. . ... ... : ... .. . ...
ROW 04 : D-2 14 . ... : A-1 14 . ... : D-3 0D . ... : ... .. . ... : ... .. . ... F96 : ... .. . ... : ... .. . ... ... : D-1 0E . ...
ROW 05 : ... .. . ... : ... .. . ... : ... .. . ... : ... .. . ... : ... .. . ... F7C : ... .. . ... : ... .. . ... ... : ... .. . ...
ROW 06 : ... .. . ... : ... .. . ... : ... .. . ... : 3-# 0A . ... : C-3 09 . ... F96 : ... .. . ... : ... .. . ... ... : ... .. . ...
ROW 07 : ... .. . ... : ... .. . ... : ... .. . ... : ... .. . ... : ... .. . ... F7C : ... .. . ... : ... .. . ... ... : ... .. . ...
ROW 08 : F-3 14 . ... : D-3 14 . ... : A-3 0D . ... : 8-# 0A . ... : C#3 09 . ... F96 : ... .. . ... : ... .. . ... ... : A-1 0E . ...
ROW 09 : ... .. . ... : ... .. . ... : ... .. . ... : ... .. . ... : ... .. . ... F7C : ... .. . ... : ... .. . ... ... : ... .. . ...
ROW 0A : ... .. . ... : ... .. . ... : ... .. . ... : ... .. . ... : ... .. . ... F96 : ... .. . ... : ... .. . ... ... : ... .. . ...
ROW 0B : ... .. . ... : ... .. . ... : ... .. . ... : ... .. . ... : ... .. . ... F7C : ... .. . ... : ... .. . ... ... : ... .. . ...
ROW 0C : D-2 14 . ... : A-1 14 . ... : D-3 0D . ... : ... .. . ... : ... .. . ... F96 : ... .. . ... : ... .. . ... ... : D-1 0E . ...
ROW 0D : ... .. . ... : ... .. . ... : ... .. . ... : ... .. . ... : ... .. . ... F7C : ... .. . ... : ... .. . ... ... : ... .. . ...
ROW 0E : ... .. . ... : ... .. . ... : ... .. . ... : ... .. . ... : ... .. . ... F96 : ... .. . ... : ... .. . ... ... : ... .. . ...
ROW 0F : ... .. . ... : ... .. . ... : ... .. . ... : ... .. . ... : ... .. . ... F7C : ... .. . ... : ... .. . ... ... : ... .. . ...
ROW 10 : E-3 14 . ... : C-3 14 . ... : D-3 0D . ... : 3-# 0A . ... : C-3 09 . ... F96 : ... .. . ... : ... .. . ... ... : D-1 0E . ...
ROW 11 : ... .. . ... : ... .. . ... : ... .. . ... : ... .. . ... : ... .. . ... F7C : ... .. . ... : ... .. . ... ... : ... .. . ...
ROW 12 : ... .. . ... : ... .. . ... : ... .. . ... : ... .. . ... : ... .. . ... F96 : ... .. . ... : ... .. . ... ... : ... .. . ...
ROW 13 : ... .. . ... : ... .. . ... : ... .. . ... : ... .. . ... : ... .. . ... F7C : ... .. . ... : ... .. . ... ... : ... .. . ...
ROW 14 : D-2 14 . ... : A-1 14 . ... : A#3 0D . ... : 3-# 0A . ... : C-3 09 . ... F96 : ... .. . ... : ... .. . ... ... : A#1 0E . ...
ROW 15 : ... .. . ... : ... .. . ... : ... .. . ... : ... .. . ... : ... .. . ... F7C : ... .. . ... : ... .. . ... ... : ... .. . ...
ROW 16 : ... .. . ... : ... .. . ... : ... .. . ... : 3-# 0A . ... : C-3 09 . ... F96 : ... .. . ... : ... .. . ... ... : ... .. . ...
ROW 17 : ... .. . ... : ... .. . ... : ... .. . ... : ... .. . ... : ... .. . ... F7C : ... .. . ... : ... .. . ... ... : ... .. . ...
ROW 18 : F-3 14 . ... : D-3 14 . ... : D-3 0D . ... : 8-# 0A . ... : C#3 09 . ... F96 : ... .. . ... : ... .. . ... ... : D-1 0E . ...
ROW 19 : ... .. . ... : ... .. . ... : ... .. . ... : ... .. . ... : ... .. . ... F7C : ... .. . ... : ... .. . ... ... : ... .. . ...
ROW 1A : ... .. . ... : ... .. . ... : ... .. . ... : ... .. . ... : ... .. . ... F96 : ... .. . ... : ... .. . ... ... : ... .. . ...
ROW 1B : ... .. . ... : ... .. . ... : ... .. . ... : ... .. . ... : ... .. . ... F7C : ... .. . ... : ... .. . ... ... : ... .. . ...
ROW 1C : D-2 14 . ... : A-1 14 . ... : D-3 0D . ... : ... .. . ... : ... .. . ... F96 : ... .. . ... : ... .. . ... ... : D-1 0E . ...
ROW 1D : ... .. . ... : ... .. . ... : ... .. . ... : ... .. . ... : ... .. . ... F7C : ... .. . ... : ... .. . ... ... : ... .. . ...
ROW 1E : ... .. . ... : ... .. . ... : ... .. . ... : ... .. . ... : ... .. . ... F96 : ... .. . ... : ... .. . ... ... : ... .. . ...
ROW 1F : ... .. . ... : ... .. . ... : ... .. . ... : ... .. . ... : ... .. . ... F7C : ... .. . ... : ... .. . ... ... : ... .. . ...
ROW 20 : G-3 14 . ... : E-3 14 . ... : C-4 0D . ... : 3-# 0A . ... : C-3 09 . ... F96 : ... .. . ... : ... .. . ... ... : C-2 0E . ...
ROW 21 : ... .. . ... : ... .. . ... : ... .. . ... : ... .. . ... : ... .. . ... F7C : ... .. . ... : ... .. . ... ... : ... .. . ...
ROW 22 : ... .. . ... : ... .. . ... : ... .. . ... : ... .. . ... : ... .. . ... F96 : ... .. . ... : ... .. . ... ... : ... .. . ...
ROW 23 : ... .. . ... : ... .. . ... : ... .. . ... : ... .. . ... : ... .. . ... F7C : ... .. . ... : ... .. . ... ... : ... .. . ...
ROW 24 : D-2 14 . ... : A-1 14 . ... : D-3 0D . ... : ... .. . ... : ... .. . ... F96 : ... .. . ... : ... .. . ... ... : D-1 0E . ...
ROW 25 : ... .. . ... : ... .. . ... : ... .. . ... : ... .. . ... : ... .. . ... F7C : ... .. . ... : ... .. . ... ... : ... .. . ...
ROW 26 : ... .. . ... : ... .. . ... : ... .. . ... : 3-# 0A . ... : C-3 09 . ... F96 : ... .. . ... : ... .. . ... ... : ... .. . ...
ROW 27 : ... .. . ... : ... .. . ... : ... .. . ... : ... .. . ... : ... .. . ... F7C : ... .. . ... : ... .. . ... ... : ... .. . ...
ROW 28 : F-3 14 . ... : D-3 14 . ... : D-3 0D . ... : 8-# 0A . ... : C#3 09 . ... F96 : ... .. . ... : ... .. . ... ... : D-1 0E . ...
ROW 29 : ... .. . ... : ... .. . ... : ... .. . ... : ... .. . ... : ... .. . ... F7C : ... .. . ... : ... .. . ... ... : ... .. . ...
ROW 2A : ... .. . ... : ... .. . ... : ... .. . ... : ... .. . ... : ... .. . ... F96 : ... .. . ... : ... .. . ... ... : ... .. . ...
ROW 2B : ... .. . ... : ... .. . ... : ... .. . ... : ... .. . ... : ... .. . ... F7C : ... .. . ... : ... .. . ... ... : ... .. . ...
ROW 2C : D-2 14 . ... : A-1 14 . ... : A#3 0D . ... : ... .. . ... : ... .. . ... F96 : ... .. . ... : ... .. . ... ... : A#1 0E . ...
ROW 2D : ... .. . ... : ... .. . ... : ... .. . ... : ... .. . ... : ... .. . ... F7C : ... .. . ... : ... .. . ... ... : ... .. . ...
ROW 2E : ... .. . ... : ... .. . ... : ... .. . ... : ... .. . ... : ... .. . ... F96 : ... .. . ... : ... .. . ... ... : ... .. . ...
ROW 2F : ... .. . ... : ... .. . ... : ... .. . ... : ... .. . ... : ... .. . ... F7C : ... .. . ... : ... .. . ... ... : ... .. . ...
ROW 30 : E-3 14 . ... : C-3 14 . ... : D-3 0D . ... : 3-# 0A . ... : C-3 09 . ... F96 : ... .. . ... : ... .. . ... ... : D-1 0E . ...
ROW 31 : ... .. . ... : ... .. . ... : ... .. . ... : ... .. . ... : ... .. . ... F7C : ... .. . ... : ... .. . ... ... : ... .. . ...
ROW 32 : ... .. . ... : ... .. . ... : ... .. . ... : ... .. . ... : ... .. . ... F96 : ... .. . ... : ... .. . ... ... : ... .. . ...
ROW 33 : ... .. . ... : ... .. . ... : ... .. . ... : ... .. . ... : ... .. . ... F7C : ... .. . ... : ... .. . ... ... : ... .. . ...
ROW 34 : F-3 14 . ... : D-3 14 . ... : G-3 0D . ... : 3-# 0A . ... : C-3 09 . ... F96 : ... .. . ... : ... .. . ... ... : G-1 0E . ...
ROW 35 : ... .. . ... : ... .. . ... : ... .. . ... : ... .. . ... : ... .. . ... F7C : ... .. . ... : ... .. . ... ... : ... .. . ...
ROW 36 : ... .. . ... : ... .. . ... : ... .. . ... : 3-# 0A . ... : C-3 09 . ... F96 : ... .. . ... : ... .. . ... ... : ... .. . ...
ROW 37 : ... .. . ... : ... .. . ... : ... .. . ... : ... .. . ... : ... .. . ... F7C : ... .. . ... : ... .. . ... ... : ... .. . ...
ROW 38 : ... .. . ... : ... .. . ... : F-3 0D . ... : 8-# 0A . ... : C#3 09 . ... F96 : ... .. . ... : ... .. . ... ... : F-1 0E . ...
ROW 39 : ... .. . ... : ... .. . ... : ... .. . ... : ... .. . ... : ... .. . ... F7C : ... .. . ... : ... .. . ... ... : ... .. . ...
ROW 3A : ... .. . ... : ... .. . ... : ... .. . ... : ... .. . ... : ... .. . ... F96 : ... .. . ... : ... .. . ... ... : ... .. . ...
ROW 3B : ... .. . ... : ... .. . ... : ... .. . ... : ... .. . ... : ... .. . ... F7C : ... .. . ... : ... .. . ... ... : ... .. . ...
ROW 3C : ... .. . ... : ... .. . ... : E-3 0D . ... : ... .. . ... : ... .. . ... F96 : ... .. . ... : ... .. . ... ... : E-1 0E . ...
ROW 3D : ... .. . ... : ... .. . ... : ... .. . ... : ... .. . ... : ... .. . ... F7C : ... .. . ... : ... .. . ... ... : ... .. . ...
ROW 3E : ... .. . ... : ... .. . ... : ... .. . ... : ... .. . ... : ... .. . ... F96 : ... .. . ... : ... .. . ... ... : ... .. . ...
ROW 3F : ... .. . ... : ... .. . ... : ... .. . ... : ... .. . ... : ... .. . ... F7C : ... .. . ... : ... .. . ... ... : ... .. . ...

PATTERN 03
ROW 00 : D-3 14 . ... : A#2 14 . ... : D-3 0D . ... : 3-# 0A . ... : C-3 09 . ... F96 : G-4 0F . 462 : E-4 0F . 444 ... : D-1 0E . ...
ROW 01 : ... .. . ... : ... .. . ... : ... .. . ... : ... .. . ... : ... .. . ... F7C : ... .. . ... : ... .. . ... ... : ... .. . ...
ROW 02 : ... .. . ... : ... .. . ... : ... .. . ... : ... .. . ... : ... .. . ... F96 : ... .. . ... : ... .. . ... ... : ... .. . ...
ROW 03 : ... .. . ... : ... .. . ... : ... .. . ... : ... .. . ... : ... .. . ... F7C : ... .. . ... : ... .. . ... ... : ... .. . ...
ROW 04 : ... .. . ... : ... .. . ... : D-3 0D . ... : ... .. . ... : ... .. . ... F96 : ... .. . ... : ... .. . ... ... : D-1 0E . ...
ROW 05 : ... .. . ... : ... .. . ... : ... .. . ... : ... .. . ... : ... .. . ... F7C : ... .. . ... : ... .. . ... ... : ... .. . ...
ROW 06 : ... .. . ... : ... .. . ... : ... .. . ... : 3-# 0A . ... : C-3 09 . ... F96 : ... .. . ... : ... .. . ... ... : ... .. . ...
ROW 07 : ... .. . ... : ... .. . ... : ... .. . ... : ... .. . ... : ... .. . ... F7C : ... .. . ... : ... .. . ... ... : ... .. . ...
ROW 08 : ... .. . ... : ... .. . ... : D-3 0D . ... : 8-# 0A . ... : C#3 09 . ... F96 : ... .. . ... : ... .. . ... ... : D-1 0E . ...
ROW 09 : ... .. . ... : ... .. . ... : ... .. . ... : ... .. . ... : ... .. . ... F7C : ... .. . ... : ... .. . ... ... : ... .. . ...
ROW 0A : ... .. . ... : ... .. . ... : ... .. . ... : ... .. . ... : ... .. . ... F96 : ... .. . ... : ... .. . ... ... : ... .. . ...
ROW 0B : ... .. . ... : ... .. . ... : ... .. . ... : ... .. . ... : ... .. . ... F7C : ... .. . ... : ... .. . ... ... : ... .. . ...
ROW 0C : ... .. . ... : ... .. . ... : D-3 0D . ... : ... .. . ... : ... .. . ... F96 : ... .. . ... : ... .. . ... ... : D-1 0E . ...
ROW 0D : ... .. . ... : ... .. . ... : ... .. . ... : ... .. . ... : ... .. . ... F7C : ... .. . ... : ... .. . ... ... : ... .. . ...
ROW 0E : ... .. . ... : ... .. . ... : ... .. . ... : ... .. . ... : ... .. . ... F96 : ... .. . ... : ... .. . ... ... : ... .. . ...
ROW 0F : ... .. . ... : ... .. . ... : ... .. . ... : ... .. . ... : ... .. . ... F7C : ... .. . ... : ... .. . ... ... : ... .. . ...
ROW 10 : ... .. . ... : ... .. . ... : D-3 0D . ... : 3-# 0A . ... : C-3 09 . ... F96 : ... .. . ... : ... .. . ... ... : D-1 0E . ...
ROW 11 : ... .. . ... : ... .. . ... : ... .. . ... : ... .. . ... : ... .. . ... F7C : ... .. . ... : ... .. . ... ... : ... .. . ...
ROW 12 : ... .. . ... : ... .. . ... : ... .. . ... : ... .. . ... : ... .. . ... F96 : ... .. . ... : ... .. . ... ... : ... .. . ...
ROW 13 : ... .. . ... : ... .. . ... : ... .. . ... : ... .. . ... : ... .. . ... F7C : ... .. . ... : ... .. . ... ... : ... .. . ...
ROW 14 : ... .. . ... : ... .. . ... : E-3 0D . ... : 3-# 0A . ... : C-3 09 . ... F96 : ... .. . ... : ... .. . ... ... : E-1 0E . ...
ROW 15 : ... .. . ... : ... .. . ... : ... .. . ... : ... .. . ... : ... .. . ... F7C : ... .. . ... : ... .. . ... ... : ... .. . ...
ROW 16 : ... .. . ... : ... .. . ... : ... .. . ... : 3-# 0A . ... : C-3 09 . ... F96 : ... .. . ... : ... .. . ... ... : ... .. . ...
ROW 17 : ... .. . ... : ... .. . ... : ... .. . ... : ... .. . ... : ... .. . ... F7C : ... .. . ... : ... .. . ... ... : ... .. . ...
ROW 18 : ... .. . ... : ... .. . ... : ... .. . ... : 8-# 0A . ... : C#3 09 . ... F96 : ... .. . ... : ... .. . ... ... : ... .. . ...
ROW 19 : ... .. . ... : ... .. . ... : ... .. . ... : ... .. . ... : ... .. . ... F7C : ... .. . ... : ... .. . ... ... : ... .. . ...
ROW 1A : ... .. . ... : ... .. . ... : ... .. . ... : ... .. . ... : ... .. . ... F96 : ... .. . ... : ... .. . ... ... : ... .. . ...
ROW 1B : ... .. . ... : ... .. . ... : ... .. . ... : ... .. . ... : ... .. . ... F7C : ... .. . ... : ... .. . ... ... : ... .. . ...
ROW 1C : ... .. . ... : ... .. . ... : F-3 0D . ... : ... .. . ... : ... .. . ... F96 : ... .. . ... : ... .. . ... ... : F-1 0E . ...
ROW 1D : ... .. . ... : ... .. . ... : ... .. . ... : ... .. . ... : ... .. . ... F7C : ... .. . ... : ... .. . ... ... : ... .. . ...
ROW 1E : ... .. . ... : ... .. . ... : ... .. . ... : ... .. . ... : ... .. . ... F96 : ... .. . ... : ... .. . ... ... : ... .. . ...
ROW 1F : ... .. . ... : ... .. . ... : ... .. . ... : ... .. . ... : ... .. . ... F7C : ... .. . ... : ... .. . ... ... : ... .. . ...
ROW 20 : E-3 14 . ... : C-3 14 . ... : E-3 0D . ... : 3-# 0A . ... : C-3 09 . ... F96 : ... .. . ... : ... .. . ... ... : E-1 0E . ...
ROW 21 : ... .. . ... : ... .. . ... : ... .. . ... : ... .. . ... : ... .. . ... F7C : ... .. . ... : ... .. . ... ... : ... .. . ...
ROW 22 : ... .. . ... : ... .. . ... : ... .. . ... : ... .. . ... : ... .. . ... F96 : ... .. . ... : ... .. . ... ... : ... .. . ...
ROW 23 : ... .. . ... : ... .. . ... : ... .. . ... : ... .. . ... : ... .. . ... F7C : ... .. . ... : ... .. . ... ... : ... .. . ...
ROW 24 : ... .. . ... : ... .. . ... : E-3 0D . ... : ... .. . ... : ... .. . ... F96 : ... .. . ... : ... .. . ... ... : E-1 0E . ...
ROW 25 : ... .. . ... : ... .. . ... : ... .. . ... : ... .. . ... : ... .. . ... F7C : ... .. . ... : ... .. . ... ... : ... .. . ...
ROW 26 : ... .. . ... : ... .. . ... : ... .. . ... : 3-# 0A . ... : C-3 09 . ... F96 : ... .. . ... : ... .. . ... ... : ... .. . ...
ROW 27 : ... .. . ... : ... .. . ... : ... .. . ... : ... .. . ... : ... .. . ... F7C : ... .. . ... : ... .. . ... ... : ... .. . ...
ROW 28 : ... .. . ... : ... .. . ... : E-3 0D . ... : 8-# 0A . ... : C#3 09 . ... F96 : ... .. . ... : ... .. . ... ... : E-1 0E . ...
ROW 29 : ... .. . ... : ... .. . ... : ... .. . ... : ... .. . ... : ... .. . ... F7C : ... .. . ... : ... .. . ... ... : ... .. . ...
ROW 2A : ... .. . ... : ... .. . ... : ... .. . ... : ... .. . ... : ... .. . ... F96 : ... .. . ... : ... .. . ... ... : ... .. . ...
ROW 2B : ... .. . ... : ... .. . ... : ... .. . ... : ... .. . ... : ... .. . ... F7C : ... .. . ... : ... .. . ... ... : ... .. . ...
ROW 2C : ... .. . ... : ... .. . ... : E-3 0D . ... : ... .. . ... : ... .. . ... F96 : ... .. . ... : ... .. . ... ... : E-1 0E . ...
ROW 2D : ... .. . ... : ... .. . ... : ... .. . ... : ... .. . ... : ... .. . ... F7C : ... .. . ... : ... .. . ... ... : ... .. . ...
ROW 2E : ... .. . ... : ... .. . ... : ... .. . ... : ... .. . ... : ... .. . ... F96 : ... .. . ... : ... .. . ... ... : ... .. . ...
ROW 2F : ... .. . ... : ... .. . ... : ... .. . ... : ... .. . ... : ... .. . ... F7C : ... .. . ... : ... .. . ... ... : ... .. . ...
ROW 30 : ... .. . ... : ... .. . ... : E-3 0D . ... : 3-# 0A . ... : C-3 09 . ... F96 : ... .. . ... : ... .. . ... ... : E-1 0E . ...
ROW 31 : ... .. . ... : ... .. . ... : ... .. . ... : ... .. . ... : ... .. . ... F7C : ... .. . ... : ... .. . ... ... : ... .. . ...
ROW 32 : ... .. . ... : ... .. . ... : ... .. . ... : ... .. . ... : ... .. . ... F96 : ... .. . ... : ... .. . ... ... : ... .. . ...
ROW 33 : ... .. . ... : ... .. . ... : ... .. . ... : ... .. . ... : ... .. . ... F7C : ... .. . ... : ... .. . ... ... : ... .. . ...
ROW 34 : ... .. . ... : ... .. . ... : F-3 0D . ... : 3-# 0A . ... : C-3 09 . ... F96 : ... .. . ... : ... .. . ... ... : F-1 0E . ...
ROW 35 : ... .. . ... : ... .. . ... : ... .. . ... : ... .. . ... : ... .. . ... F7C : ... .. . ... : ... .. . ... ... : ... .. . ...
ROW 36 : ... .. . ... : ... .. . ... : ... .. . ... : 3-# 0A . ... : C-3 09 . ... F96 : ... .. . ... : ... .. . ... ... : ... .. . ...
ROW 37 : ... .. . ... : ... .. . ... : ... .. . ... : ... .. . ... : ... .. . ... F7C : ... .. . ... : ... .. . ... ... : ... .. . ...
ROW 38 : ... .. . ... : ... .. . ... : ... .. . ... : 8-# 0A . ... : C#3 09 . ... F96 : ... .. . ... : ... .. . ... ... : ... .. . ...
ROW 39 : ... .. . ... : ... .. . ... : ... .. . ... : ... .. . ... : ... .. . ... F7C : ... .. . ... : ... .. . ... ... : ... .. . ...
ROW 3A : ... .. . ... : ... .. . ... : ... .. . ... : ... .. . ... : ... .. . ... F96 : ... .. . ... : ... .. . ... ... : ... .. . ...
ROW 3B : ... .. . ... : ... .. . ... : ... .. . ... : ... .. . ... : ... .. . ... F7C : ... .. . ... : ... .. . ... ... : ... .. . ...
ROW 3C : ... .. . ... : ... .. . ... : G-3 0D . ... : ... .. . ... : ... .. . ... F96 : ... .. . ... : ... .. . ... ... : G-1 0E . ...
ROW 3D : ... .. . ... : ... .. . ... : ... .. . ... : ... .. . ... : ... .. . ... F7C : ... .. . ... : ... .. . ... ... : ... .. . ...
ROW 3E : ... .. . ... : ... .. . ... : ... .. . ... : ... .. . ... : ... .. . ... F96 : ... .. . ... : ... .. . ... ... : ... .. . ...
ROW 3F : ... .. . ... : ... .. . ... : ... .. . ... : ... .. . ... : ... .. . ... F7C : ... .. . ... : ... .. . ... ... : ... .. . ...

PATTERN 04
ROW 00 : D-2 14 . ... : A-1 14 . ... : D-3 0D . ... : 3-# 0A . ... : C-3 09 . ... F96 : F-4 0F . 462 : D-4 0F . 444 ... : D-1 0E . ...
ROW 01 : ... .. . ... : ... .. . ... : ... .. . ... : ... .. . ... : ... .. . ... F7C : ... .. . ... : ... .. . ... ... : ... .. . ...
ROW 02 : ... .. . ... : ... .. . ... : ... .. . ... : ... .. . ... : ... .. . ... F96 : ... .. . ... : ... .. . ... ... : ... .. . ...
ROW 03 : ... .. . ... : ... .. . ... : ... .. . ... : ... .. . ... : ... .. . ... F7C : ... .. . ... : ... .. . ... ... : ... .. . ...
ROW 04 : D-2 14 . ... : A-1 14 . ... : D-3 0D . ... : ... .. . ... : ... .. . ... F96 : ... .. . ... : ... .. . ... ... : D-1 0E . ...
ROW 05 : ... .. . ... : ... .. . ... : ... .. . ... : ... .. . ... : ... .. . ... F7C : ... .. . ... : ... .. . ... ... : ... .. . ...
ROW 06 : ... .. . ... : ... .. . ... : ... .. . ... : 3-# 0A . ... : C-3 09 . ... F96 : ... .. . ... : ... .. . ... ... : ... .. . ...
ROW 07 : ... .. . ... : ... .. . ... : ... .. . ... : ... .. . ... : ... .. . ... F7C : ... .. . ... : ... .. . ... ... : ... .. . ...
ROW 08 : F-3 14 . ... : D-3 14 . ... : A-3 0D . ... : 8-# 0A . ... : C#3 09 . ... F96 : ... .. . ... : ... .. . ... ... : A-1 0E . ...
ROW 09 : ... .. . ... : ... .. . ... : ... .. . ... : ... .. . ... : ... .. . ... F7C : ... .. . ... : ... .. . ... ... : ... .. . ...
ROW 0A : ... .. . ... : ... .. . ... : ... .. . ... : ... .. . ... : ... .. . ... F96 : ... .. . ... : ... .. . ... ... : ... .. . ...
ROW 0B : ... .. . ... : ... .. . ... : ... .. . ... : ... .. . ... : ... .. . ... F7C : ... .. . ... : ... .. . ... ... : ... .. . ...
ROW 0C : D-2 14 . ... : A-1 14 . ... : ... .. . ... : ... .. . ... : ... .. . ... F96 : ... .. . ... : ... .. . ... ... : ... .. . ...
ROW 0D : ... .. . ... : ... .. . ... : ... .. . ... : ... .. . ... : ... .. . ... F7C : ... .. . ... : ... .. . ... ... : ... .. . ...
ROW 0E : ... .. . ... : ... .. . ... : ... .. . ... : ... .. . ... : ... .. . ... F96 : ... .. . ... : ... .. . ... ... : ... .. . ...
ROW 0F : ... .. . ... : ... .. . ... : ... .. . ... : ... .. . ... : ... .. . ... F7C : ... .. . ... : ... .. . ... ... : ... .. . ...
ROW 10 : E-3 14 . ... : C-3 14 . ... : G-3 0D . ... : 3-# 0A . ... : C-3 09 . ... F96 : ... .. . ... : ... .. . ... ... : G-1 0E . ...
ROW 11 : ... .. . ... : ... .. . ... : ... .. . ... : ... .. . ... : ... .. . ... F7C : ... .. . ... : ... .. . ... ... : ... .. . ...
ROW 12 : ... .. . ... : ... .. . ... : ... .. . ... : ... .. . ... : ... .. . ... F96 : ... .. . ... : ... .. . ... ... : ... .. . ...
ROW 13 : ... .. . ... : ... .. . ... : ... .. . ... : ... .. . ... : ... .. . ... F7C : ... .. . ... : ... .. . ... ... : ... .. . ...
ROW 14 : D-2 14 . ... : A-1 14 . ... : A-3 0D . ... : 3-# 0A . ... : C-3 09 . ... F96 : ... .. . ... : ... .. . ... ... : A-1 0E . ...
ROW 15 : ... .. . ... : ... .. . ... : ... .. . ... : ... .. . ... : ... .. . ... F7C : ... .. . ... : ... .. . ... ... : ... .. . ...
ROW 16 : ... .. . ... : ... .. . ... : ... .. . ... : 3-# 0A . ... : C-3 09 . ... F96 : ... .. . ... : ... .. . ... ... : ... .. . ...
ROW 17 : ... .. . ... : ... .. . ... : ... .. . ... : ... .. . ... : ... .. . ... F7C : ... .. . ... : ... .. . ... ... : ... .. . ...
ROW 18 : F-3 14 . ... : D-3 14 . ... : D-3 0D . ... : 8-# 0A . ... : C#3 09 . ... F96 : ... .. . ... : ... .. . ... ... : D-1 0E . ...
ROW 19 : ... .. . ... : ... .. . ... : ... .. . ... : ... .. . ... : ... .. . ... F7C : ... .. . ... : ... .. . ... ... : ... .. . ...
ROW 1A : ... .. . ... : ... .. . ... : ... .. . ... : ... .. . ... : ... .. . ... F96 : ... .. . ... : ... .. . ... ... : ... .. . ...
ROW 1B : ... .. . ... : ... .. . ... : ... .. . ... : ... .. . ... : ... .. . ... F7C : ... .. . ... : ... .. . ... ... : ... .. . ...
ROW 1C : D-2 14 . ... : A-1 14 . ... : D-3 0D . ... : ... .. . ... : ... .. . ... F96 : ... .. . ... : ... .. . ... ... : D-1 0E . ...
ROW 1D : ... .. . ... : ... .. . ... : ... .. . ... : ... .. . ... : ... .. . ... F7C : ... .. . ... : ... .. . ... ... : ... .. . ...
ROW 1E : ... .. . ... : ... .. . ... : ... .. . ... : ... .. . ... : ... .. . ... F96 : ... .. . ... : ... .. . ... ... : ... .. . ...
ROW 1F : ... .. . ... : ... .. . ... : ... .. . ... : ... .. . ... : ... .. . ... F7C : ... .. . ... : ... .. . ... ... : ... .. . ...
ROW 20 : G-3 14 . ... : E-3 14 . ... : D-3 0D . ... : 3-# 0A . ... : C-3 09 . ... F96 : ... .. . ... : ... .. . ... ... : D-1 0E . ...
ROW 21 : ... .. . ... : ... .. . ... : ... .. . ... : ... .. . ... : ... .. . ... F7C : ... .. . ... : ... .. . ... ... : ... .. . ...
ROW 22 : ... .. . ... : ... .. . ... : ... .. . ... : ... .. . ... : ... .. . ... F96 : ... .. . ... : ... .. . ... ... : ... .. . ...
ROW 23 : ... .. . ... : ... .. . ... : ... .. . ... : ... .. . ... : ... .. . ... F7C : ... .. . ... : ... .. . ... ... : ... .. . ...
ROW 24 : D-2 14 . ... : A-1 14 . ... : D-3 0D . ... : ... .. . ... : ... .. . ... F96 : ... .. . ... : ... .. . ... ... : D-1 0E . ...
ROW 25 : ... .. . ... : ... .. . ... : ... .. . ... : ... .. . ... : ... .. . ... F7C : ... .. . ... : ... .. . ... ... : ... .. . ...
ROW 26 : ... .. . ... : ... .. . ... : ... .. . ... : 3-# 0A . ... : C-3 09 . ... F96 : ... .. . ... : ... .. . ... ... : ... .. . ...
ROW 27 : ... .. . ... : ... .. . ... : ... .. . ... : ... .. . ... : ... .. . ... F7C : ... .. . ... : ... .. . ... ... : ... .. . ...
ROW 28 : F-3 14 . ... : D-3 14 . ... : A-3 0D . ... : 8-# 0A . ... : C#3 09 . ... F96 : ... .. . ... : ... .. . ... ... : A-1 0E . ...
ROW 29 : ... .. . ... : ... .. . ... : ... .. . ... : ... .. . ... : ... .. . ... F7C : ... .. . ... : ... .. . ... ... : ... .. . ...
ROW 2A : ... .. . ... : ... .. . ... : ... .. . ... : ... .. . ... : ... .. . ... F96 : ... .. . ... : ... .. . ... ... : ... .. . ...
ROW 2B : ... .. . ... : ... .. . ... : ... .. . ... : ... .. . ... : ... .. . ... F7C : ... .. . ... : ... .. . ... ... : ... .. . ...
ROW 2C : D-2 14 . ... : A-1 14 . ... : ... .. . ... : ... .. . ... : ... .. . ... F96 : ... .. . ... : ... .. . ... ... : ... .. . ...
ROW 2D : ... .. . ... : ... .. . ... : ... .. . ... : ... .. . ... : ... .. . ... F7C : ... .. . ... : ... .. . ... ... : ... .. . ...
ROW 2E : ... .. . ... : ... .. . ... : ... .. . ... : ... .. . ... : ... .. . ... F96 : ... .. . ... : ... .. . ... ... : ... .. . ...
ROW 2F : ... .. . ... : ... .. . ... : ... .. . ... : ... .. . ... : ... .. . ... F7C : ... .. . ... : ... .. . ... ... : ... .. . ...
ROW 30 : E-3 14 . ... : C-3 14 . ... : G-3 0D . ... : 8-# 0A . ... : C#3 09 . ... F96 : ... .. . ... : ... .. . ... ... : G-1 0E . ...
ROW 31 : ... .. . ... : ... .. . ... : ... .. . ... : ... .. . ... : ... .. . ... F7C : ... .. . ... : ... .. . ... ... : ... .. . ...
ROW 32 : ... .. . ... : ... .. . ... : ... .. . ... : 8-# 0A 7 ... : C#3 09 . ... F96 : ... .. . ... : ... .. . ... ... : ... .. . ...
ROW 33 : ... .. . ... : ... .. . ... : ... .. . ... : ... .. . ... : ... .. . ... F7C : ... .. . ... : ... .. . ... ... : ... .. . ...
ROW 34 : F-3 14 . ... : D-3 14 . ... : A-3 0D . ... : 8-# 0A . ... : C#3 09 . ... F96 : ... .. . ... : ... .. . ... ... : A-1 0E . ...
ROW 35 : ... .. . ... : ... .. . ... : ... .. . ... : ... .. . ... : ... .. . ... F7C : ... .. . ... : ... .. . ... ... : ... .. . ...
ROW 36 : ... .. . ... : ... .. . ... : ... .. . ... : 8-# 0A . ... : C#3 09 . ... F96 : ... .. . ... : ... .. . ... ... : ... .. . ...
ROW 37 : ... .. . ... : ... .. . ... : ... .. . ... : ... .. . ... : ... .. . ... F7C : ... .. . ... : ... .. . ... ... : ... .. . ...
ROW 38 : ... .. . ... : ... .. . ... : D-3 0D . ... : 8-# 0A F ... : C#3 09 . ... F96 : ... .. . ... : ... .. . ... ... : D-1 0E . ...
ROW 39 : ... .. . ... : ... .. . ... : ... .. . ... : ... .. . ... : ... .. . ... F7C : ... .. . ... : ... .. . ... ... : ... .. . ...
ROW 3A : ... .. . ... : ... .. . ... : ... .. . ... : 8-# 0A 7 ... : C#3 09 . ... F96 : ... .. . ... : ... .. . ... ... : ... .. . ...
ROW 3B : ... .. . ... : ... .. . ... : ... .. . ... : ... .. . ... : ... .. . ... F7C : ... .. . ... : ... .. . ... ... : ... .. . ...
ROW 3C : ... .. . ... : ... .. . ... : D-3 0D . ... : 8-# 0A . ... : C#3 09 . ... F96 : ... .. . ... : ... .. . ... ... : D-1 0E . ...
ROW 3D : ... .. . ... : ... .. . ... : ... .. . ... : ... .. . ... : ... .. . ... F7C : ... .. . ... : ... .. . ... ... : ... .. . ...
ROW 3E : ... .. . ... : ... .. . ... : ... .. . ... : 8-# 0A . ... : C#3 09 . ... F96 : ... .. . ... : ... .. . ... ... : ... .. . ...
ROW 3F : ... .. . ... : ... .. . ... : ... .. . ... : ... .. . ... : ... .. . ... F7C : ... .. . ... : ... .. . ... ... : ... .. . ...

PATTERN 05
ROW 00 : D-2 14 . ... : A-1 14 . ... : D-3 0D . ... : 3-# 0A F ... : C-3 09 . ... F96 : F-4 0F . 462 : D-4 0F . 444 ... : D-1 0E . ...
ROW 01 : ... .. . ... : ... .. . ... : ... .. . ... : ... .. . ... : ... .. . ... F7C : ... .. . ... : ... .. . ... ... : ... .. . ...
ROW 02 : ... .. . ... : ... .. . ... : ... .. . ... : ... .. . ... : ... .. . ... F96 : ... .. . ... : ... .. . ... ... : ... .. . ...
ROW 03 : ... .. . ... : ... .. . ... : ... .. . ... : ... .. . ... : ... .. . ... F7C : ... .. . ... : ... .. . ... ... : ... .. . ...
ROW 04 : D-2 14 . ... : A-1 14 . ... : D-3 0D . ... : ... .. . ... : ... .. . ... F96 : ... .. . ... : ... .. . ... ... : D-1 0E . ...
ROW 05 : ... .. . ... : ... .. . ... : ... .. . ... : ... .. . ... : ... .. . ... F7C : ... .. . ... : ... .. . ... ... : ... .. . ...
ROW 06 : ... .. . ... : ... .. . ... : ... .. . ... : 3-# 0A . ... : C-3 09 . ... F96 : ... .. . ... : ... .. . ... ... : ... .. . ...
ROW 07 : ... .. . ... : ... .. . ... : ... .. . ... : ... .. . ... : ... .. . ... F7C : ... .. . ... : ... .. . ... ... : ... .. . ...
ROW 08 : F-3 14 . ... : D-3 14 . ... : A-3 0D . ... : 8-# 0A . ... : C#3 09 . ... F96 : ... .. . ... : ... .. . ... ... : A-1 0E . ...
ROW 09 : ... .. . ... : ... .. . ... : ... .. . ... : ... .. . ... : ... .. . ... F7C : ... .. . ... : ... .. . ... ... : ... .. . ...
ROW 0A : ... .. . ... : ... .. . ... : ... .. . ... : ... .. . ... : ... .. . ... F96 : ... .. . ... : ... .. . ... ... : ... .. . ...
ROW 0B : ... .. . ... : ... .. . ... : ... .. . ... : ... .. . ... : ... .. . ... F7C : ... .. . ... : ... .. . ... ... : ... .. . ...
ROW 0C : D-2 14 . ... : A-1 14 . ... : D-3 0D . ... : ... .. . ... : ... .. . ... F96 : ... .. . ... : ... .. . ... ... : D-1 0E . ...
ROW 0D : ... .. . ... : ... .. . ... : ... .. . ... : ... .. . ... : ... .. . ... F7C : ... .. . ... : ... .. . ... ... : ... .. . ...
ROW 0E : ... .. . ... : ... .. . ... : ... .. . ... : ... .. . ... : ... .. . ... F96 : ... .. . ... : ... .. . ... ... : ... .. . ...
ROW 0F : ... .. . ... : ... .. . ... : ... .. . ... : ... .. . ... : ... .. . ... F7C : ... .. . ... : ... .. . ... ... : ... .. . ...
ROW 10 : E-3 14 . ... : C-3 14 . ... : D-3 0D . ... : 3-# 0A . ... : C-3 09 . ... F96 : ... .. . ... : ... .. . ... ... : D-1 0E . ...
ROW 11 : ... .. . ... : ... .. . ... : ... .. . ... : ... .. . ... : ... .. . ... F7C : ... .. . ... : ... .. . ... ... : ... .. . ...
ROW 12 : ... .. . ... : ... .. . ... : ... .. . ... : ... .. . ... : ... .. . ... F96 : ... .. . ... : ... .. . ... ... : ... .. . ...
ROW 13 : ... .. . ... : ... .. . ... : ... .. . ... : ... .. . ... : ... .. . ... F7C : ... .. . ... : ... .. . ... ... : ... .. . ...
ROW 14 : D-2 14 . ... : A-1 14 . ... : A#3 0D . ... : 3-# 0A . ... : C-3 09 . ... F96 : ... .. . ... : ... .. . ... ... : A#1 0E . ...
ROW 15 : ... .. . ... : ... .. . ... : ... .. . ... : ... .. . ... : ... .. . ... F7C : ... .. . ... : ... .. . ... ... : ... .. . ...
ROW 16 : ... .. . ... : ... .. . ... : ... .. . ... : 3-# 0A . ... : C-3 09 . ... F96 : ... .. . ... : ... .. . ... ... : ... .. . ...
ROW 17 : ... .. . ... : ... .. . ... : ... .. . ... : ... .. . ... : ... .. . ... F7C : ... .. . ... : ... .. . ... ... : ... .. . ...
ROW 18 : F-3 14 . ... : D-3 14 . ... : D-3 0D . ... : 8-# 0A . ... : C#3 09 . ... F96 : ... .. . ... : ... .. . ... ... : D-1 0E . ...
ROW 19 : ... .. . ... : ... .. . ... : ... .. . ... : ... .. . ... : ... .. . ... F7C : ... .. . ... : ... .. . ... ... : ... .. . ...
ROW 1A : ... .. . ... : ... .. . ... : ... .. . ... : ... .. . ... : ... .. . ... F96 : ... .. . ... : ... .. . ... ... : ... .. . ...
ROW 1B : ... .. . ... : ... .. . ... : ... .. . ... : ... .. . ... : ... .. . ... F7C : ... .. . ... : ... .. . ... ... : ... .. . ...
ROW 1C : D-2 14 . ... : A-1 14 . ... : D-3 0D . ... : ... .. . ... : ... .. . ... F96 : ... .. . ... : ... .. . ... ... : D-1 0E . ...
ROW 1D : ... .. . ... : ... .. . ... : ... .. . ... : ... .. . ... : ... .. . ... F7C : ... .. . ... : ... .. . ... ... : ... .. . ...
ROW 1E : ... .. . ... : ... .. . ... : ... .. . ... : ... .. . ... : ... .. . ... F96 : ... .. . ... : ... .. . ... ... : ... .. . ...
ROW 1F : ... .. . ... : ... .. . ... : ... .. . ... : ... .. . ... : ... .. . ... F7C : ... .. . ... : ... .. . ... ... : ... .. . ...
ROW 20 : G-3 14 . ... : E-3 14 . ... : C-4 0D . ... : 3-# 0A . ... : C-3 09 . ... F96 : ... .. . ... : ... .. . ... ... : C-2 0E . ...
ROW 21 : ... .. . ... : ... .. . ... : ... .. . ... : ... .. . ... : ... .. . ... F7C : ... .. . ... : ... .. . ... ... : ... .. . ...
ROW 22 : ... .. . ... : ... .. . ... : ... .. . ... : ... .. . ... : ... .. . ... F96 : ... .. . ... : ... .. . ... ... : ... .. . ...
ROW 23 : ... .. . ... : ... .. . ... : ... .. . ... : ... .. . ... : ... .. . ... F7C : ... .. . ... : ... .. . ... ... : ... .. . ...
ROW 24 : D-2 14 . ... : A-1 14 . ... : D-3 0D . ... : ... .. . ... : ... .. . ... F96 : ... .. . ... : ... .. . ... ... : D-1 0E . ...
ROW 25 : ... .. . ... : ... .. . ... : ... .. . ... : ... .. . ... : ... .. . ... F7C : ... .. . ... : ... .. . ... ... : ... .. . ...
ROW 26 : ... .. . ... : ... .. . ... : ... .. . ... : 3-# 0A . ... : C-3 09 . ... F96 : ... .. . ... : ... .. . ... ... : ... .. . ...
ROW 27 : ... .. . ... : ... .. . ... : ... .. . ... : ... .. . ... : ... .. . ... F7C : ... .. . ... : ... .. . ... ... : ... .. . ...
ROW 28 : F-3 14 . ... : D-3 14 . ... : D-3 0D . ... : 8-# 0A . ... : C#3 09 . ... F96 : ... .. . ... : ... .. . ... ... : D-1 0E . ...
ROW 29 : ... .. . ... : ... .. . ... : ... .. . ... : ... .. . ... : ... .. . ... F7C : ... .. . ... : ... .. . ... ... : ... .. . ...
ROW 2A : ... .. . ... : ... .. . ... : ... .. . ... : ... .. . ... : ... .. . ... F96 : ... .. . ... : ... .. . ... ... : ... .. . ...
ROW 2B : ... .. . ... : ... .. . ... : ... .. . ... : ... .. . ... : ... .. . ... F7C : ... .. . ... : ... .. . ... ... : ... .. . ...
ROW 2C : D-2 14 . ... : A-1 14 . ... : A#3 0D . ... : ... .. . ... : ... .. . ... F96 : ... .. . ... : ... .. . ... ... : A#1 0E . ...
ROW 2D : ... .. . ... : ... .. . ... : ... .. . ... : ... .. . ... : ... .. . ... F7C : ... .. . ... : ... .. . ... ... : ... .. . ...
ROW 2E : ... .. . ... : ... .. . ... : ... .. . ... : ... .. . ... : ... .. . ... F96 : ... .. . ... : ... .. . ... ... : ... .. . ...
ROW 2F : ... .. . ... : ... .. . ... : ... .. . ... : ... .. . ... : ... .. . ... F7C : ... .. . ... : ... .. . ... ... : ... .. . ...
ROW 30 : E-3 14 . ... : C-3 14 . ... : D-3 0D . ... : 3-# 0A . ... : C-3 09 . ... F96 : ... .. . ... : ... .. . ... ... : D-1 0E . ...
ROW 31 : ... .. . ... : ... .. . ... : ... .. . ... : ... .. . ... : ... .. . ... F7C : ... .. . ... : ... .. . ... ... : ... .. . ...
ROW 32 : ... .. . ... : ... .. . ... : ... .. . ... : ... .. . ... : ... .. . ... F96 : ... .. . ... : ... .. . ... ... : ... .. . ...
ROW 33 : ... .. . ... : ... .. . ... : ... .. . ... : ... .. . ... : ... .. . ... F7C : ... .. . ... : ... .. . ... ... : ... .. . ...
ROW 34 : F-3 14 . ... : D-3 14 . ... : G-3 0D . ... : 3-# 0A . ... : C-3 09 . ... F96 : ... .. . ... : ... .. . ... ... : G-1 0E . ...
ROW 35 : ... .. . ... : ... .. . ... : ... .. . ... : ... .. . ... : ... .. . ... F7C : ... .. . ... : ... .. . ... ... : ... .. . ...
ROW 36 : ... .. . ... : ... .. . ... : ... .. . ... : 3-# 0A . ... : C-3 09 . ... F96 : ... .. . ... : ... .. . ... ... : ... .. . ...
ROW 37 : ... .. . ... : ... .. . ... : ... .. . ... : ... .. . ... : ... .. . ... F7C : ... .. . ... : ... .. . ... ... : ... .. . ...
ROW 38 : ... .. . ... : ... .. . ... : F-3 0D . ... : 8-# 0A . ... : C#3 09 . ... F96 : ... .. . ... : ... .. . ... ... : F-1 0E . ...
ROW 39 : ... .. . ... : ... .. . ... : ... .. . ... : ... .. . ... : ... .. . ... F7C : ... .. . ... : ... .. . ... ... : ... .. . ...
ROW 3A : ... .. . ... : ... .. . ... : ... .. . ... : ... .. . ... : ... .. . ... F96 : ... .. . ... : ... .. . ... ... : ... .. . ...
ROW 3B : ... .. . ... : ... .. . ... : ... .. . ... : ... .. . ... : ... .. . ... F7C : ... .. . ... : ... .. . ... ... : ... .. . ...
ROW 3C : ... .. . ... : ... .. . ... : E-3 0D . ... : ... .. . ... : ... .. . ... F96 : ... .. . ... : ... .. . ... ... : E-1 0E . ...
ROW 3D : ... .. . ... : ... .. . ... : ... .. . ... : ... .. . ... : ... .. . ... F7C : ... .. . ... : ... .. . ... ... : ... .. . ...
ROW 3E : ... .. . ... : ... .. . ... : ... .. . ... : ... .. . ... : ... .. . ... F96 : ... .. . ... : ... .. . ... ... : ... .. . ...
ROW 3F : ... .. . ... : ... .. . ... : ... .. . ... : ... .. . ... : ... .. . ... F7C : ... .. . ... : ... .. . ... ... : ... .. . ...

PATTERN 06
ROW 00 : D-2 14 . ... : A-1 14 . ... : D-3 0D . ... : 3-# 0A . ... : C-3 09 . ... F96 : E-4 0F . 462 : C-4 0F . 444 ... : D-1 0E . ...
ROW 01 : ... .. . ... : ... .. . ... : ... .. . ... : ... .. . ... : ... .. . ... F7C : ... .. . ... : ... .. . ... ... : ... .. . ...
ROW 02 : ... .. . ... : ... .. . ... : ... .. . ... : ... .. . ... : ... .. . ... F96 : ... .. . ... : ... .. . ... ... : ... .. . ...
ROW 03 : ... .. . ... : ... .. . ... : ... .. . ... : ... .. . ... : ... .. . ... F7C : ... .. . ... : ... .. . ... ... : ... .. . ...
ROW 04 : D-2 14 . ... : A-1 14 . ... : D-3 0D . ... : ... .. . ... : ... .. . ... F96 : ... .. . ... : ... .. . ... ... : D-1 0E . ...
ROW 05 : ... .. . ... : ... .. . ... : ... .. . ... : ... .. . ... : ... .. . ... F7C : ... .. . ... : ... .. . ... ... : ... .. . ...
ROW 06 : ... .. . ... : ... .. . ... : ... .. . ... : 3-# 0A . ... : C-3 09 . ... F96 : ... .. . ... : ... .. . ... ... : ... .. . ...
ROW 07 : ... .. . ... : ... .. . ... : ... .. . ... : ... .. . ... : ... .. . ... F7C : ... .. . ... : ... .. . ... ... : ... .. . ...
ROW 08 : F-3 14 . ... : D-3 14 . ... : A-3 0D . ... : 8-# 0A . ... : C#3 09 . ... F96 : ... .. . ... : ... .. . ... ... : A-1 0E . ...
ROW 09 : ... .. . ... : ... .. . ... : ... .. . ... : ... .. . ... : ... .. . ... F7C : ... .. . ... : ... .. . ... ... : ... .. . ...
ROW 0A : ... .. . ... : ... .. . ... : ... .. . ... : ... .. . ... : ... .. . ... F96 : ... .. . ... : ... .. . ... ... : ... .. . ...
ROW 0B : ... .. . ... : ... .. . ... : ... .. . ... : ... .. . ... : ... .. . ... F7C : ... .. . ... : ... .. . ... ... : ... .. . ...
ROW 0C : D-2 14 . ... : A-1 14 . ... : D-3 0D . ... : ... .. . ... : ... .. . ... F96 : ... .. . ... : ... .. . ... ... : D-1 0E . ...
ROW 0D : ... .. . ... : ... .. . ... : ... .. . ... : ... .. . ... : ... .. . ... F7C : ... .. . ... : ... .. . ... ... : ... .. . ...
ROW 0E : ... .. . ... : ... .. . ... : ... .. . ... : ... .. . ... : ... .. . ... F96 : ... .. . ... : ... .. . ... ... : ... .. . ...
ROW 0F : ... .. . ... : ... .. . ... : ... .. . ... : ... .. . ... : ... .. . ... F7C : ... .. . ... : ... .. . ... ... : ... .. . ...
ROW 10 : E-3 14 . ... : C-3 14 . ... : D-3 0D . ... : 3-# 0A . ... : C-3 09 . ... F96 : ... .. . ... : ... .. . ... ... : D-1 0E . ...
ROW 11 : ... .. . ... : ... .. . ... : ... .. . ... : ... .. . ... : ... .. . ... F7C : ... .. . ... : ... .. . ... ... : ... .. . ...
ROW 12 : ... .. . ... : ... .. . ... : ... .. . ... : ... .. . ... : ... .. . ... F96 : ... .. . ... : ... .. . ... ... : ... .. . ...
ROW 13 : ... .. . ... : ... .. . ... : ... .. . ... : ... .. . ... : ... .. . ... F7C : ... .. . ... : ... .. . ... ... : ... .. . ...
ROW 14 : D-2 14 . ... : A-1 14 . ... : A#3 0D . ... : 3-# 0A . ... : C-3 09 . ... F96 : ... .. . ... : ... .. . ... ... : A#1 0E . ...
ROW 15 : ... .. . ... : ... .. . ... : ... .. . ... : ... .. . ... : ... .. . ... F7C : ... .. . ... : ... .. . ... ... : ... .. . ...
ROW 16 : ... .. . ... : ... .. . ... : ... .. . ... : 3-# 0A . ... : C-3 09 . ... F96 : ... .. . ... : ... .. . ... ... : ... .. . ...
ROW 17 : ... .. . ... : ... .. . ... : ... .. . ... : ... .. . ... : ... .. . ... F7C : ... .. . ... : ... .. . ... ... : ... .. . ...
ROW 18 : F-3 14 . ... : D-3 14 . ... : D-3 0D . ... : 8-# 0A . ... : C#3 09 . ... F96 : ... .. . ... : ... .. . ... ... : D-1 0E . ...
ROW 19 : ... .. . ... : ... .. . ... : ... .. . ... : ... .. . ... : ... .. . ... F7C : ... .. . ... : ... .. . ... ... : ... .. . ...
ROW 1A : ... .. . ... : ... .. . ... : ... .. . ... : ... .. . ... : ... .. . ... F96 : ... .. . ... : ... .. . ... ... : ... .. . ...
ROW 1B : ... .. . ... : ... .. . ... : ... .. . ... : ... .. . ... : ... .. . ... F7C : ... .. . ... : ... .. . ... ... : ... .. . ...
ROW 1C : D-2 14 . ... : A-1 14 . ... : D-3 0D . ... : ... .. . ... : ... .. . ... F96 : ... .. . ... : ... .. . ... ... : D-1 0E . ...
ROW 1D : ... .. . ... : ... .. . ... : ... .. . ... : ... .. . ... : ... .. . ... F7C : ... .. . ... : ... .. . ... ... : ... .. . ...
ROW 1E : ... .. . ... : ... .. . ... : ... .. . ... : ... .. . ... : ... .. . ... F96 : ... .. . ... : ... .. . ... ... : ... .. . ...
ROW 1F : ... .. . ... : ... .. . ... : ... .. . ... : ... .. . ... : ... .. . ... F7C : ... .. . ... : ... .. . ... ... : ... .. . ...
ROW 20 : G-3 14 . ... : E-3 14 . ... : C-4 0D . ... : 3-# 0A . ... : C-3 09 . ... F96 : ... .. . ... : ... .. . ... ... : C-2 0E . ...
ROW 21 : ... .. . ... : ... .. . ... : ... .. . ... : ... .. . ... : ... .. . ... F7C : ... .. . ... : ... .. . ... ... : ... .. . ...
ROW 22 : ... .. . ... : ... .. . ... : ... .. . ... : ... .. . ... : ... .. . ... F96 : ... .. . ... : ... .. . ... ... : ... .. . ...
ROW 23 : ... .. . ... : ... .. . ... : ... .. . ... : ... .. . ... : ... .. . ... F7C : ... .. . ... : ... .. . ... ... : ... .. . ...
ROW 24 : D-2 14 . ... : A-1 14 . ... : D-3 0D . ... : ... .. . ... : ... .. . ... F96 : ... .. . ... : ... .. . ... ... : D-1 0E . ...
ROW 25 : ... .. . ... : ... .. . ... : ... .. . ... : ... .. . ... : ... .. . ... F7C : ... .. . ... : ... .. . ... ... : ... .. . ...
ROW 26 : ... .. . ... : ... .. . ... : ... .. . ... : 3-# 0A . ... : C-3 09 . ... F96 : ... .. . ... : ... .. . ... ... : ... .. . ...
ROW 27 : ... .. . ... : ... .. . ... : ... .. . ... : ... .. . ... : ... .. . ... F7C : ... .. . ... : ... .. . ... ... : ... .. . ...
ROW 28 : F-3 14 . ... : D-3 14 . ... : D-3 0D . ... : 8-# 0A . ... : C#3 09 . ... F96 : ... .. . ... : ... .. . ... ... : D-1 0E . ...
ROW 29 : ... .. . ... : ... .. . ... : ... .. . ... : ... .. . ... : ... .. . ... F7C : ... .. . ... : ... .. . ... ... : ... .. . ...
ROW 2A : ... .. . ... : ... .. . ... : ... .. . ... : ... .. . ... : ... .. . ... F96 : ... .. . ... : ... .. . ... ... : ... .. . ...
ROW 2B : ... .. . ... : ... .. . ... : ... .. . ... : ... .. . ... : ... .. . ... F7C : ... .. . ... : ... .. . ... ... : ... .. . ...
ROW 2C : D-2 14 . ... : A-1 14 . ... : A#3 0D . ... : ... .. . ... : ... .. . ... F96 : ... .. . ... : ... .. . ... ... : A#1 0E . ...
ROW 2D : ... .. . ... : ... .. . ... : ... .. . ... : ... .. . ... : ... .. . ... F7C : ... .. . ... : ... .. . ... ... : ... .. . ...
ROW 2E : ... .. . ... : ... .. . ... : ... .. . ... : ... .. . ... : ... .. . ... F96 : ... .. . ... : ... .. . ... ... : ... .. . ...
ROW 2F : ... .. . ... : ... .. . ... : ... .. . ... : ... .. . ... : ... .. . ... F7C : ... .. . ... : ... .. . ... ... : ... .. . ...
ROW 30 : E-3 14 . ... : C-3 14 . ... : D-3 0D . ... : 3-# 0A . ... : C-3 09 . ... F96 : ... .. . ... : ... .. . ... ... : D-1 0E . ...
ROW 31 : ... .. . ... : ... .. . ... : ... .. . ... : ... .. . ... : ... .. . ... F7C : ... .. . ... : ... .. . ... ... : ... .. . ...
ROW 32 : ... .. . ... : ... .. . ... : ... .. . ... : ... .. . ... : ... .. . ... F96 : ... .. . ... : ... .. . ... ... : ... .. . ...
ROW 33 : ... .. . ... : ... .. . ... : ... .. . ... : ... .. . ... : ... .. . ... F7C : ... .. . ... : ... .. . ... ... : ... .. . ...
ROW 34 : F-3 14 . ... : D-3 14 . ... : G-3 0D . ... : 3-# 0A . ... : C-3 09 . ... F96 : ... .. . ... : ... .. . ... ... : G-1 0E . ...
ROW 35 : ... .. . ... : ... .. . ... : ... .. . ... : ... .. . ... : ... .. . ... F7C : ... .. . ... : ... .. . ... ... : ... .. . ...
ROW 36 : ... .. . ... : ... .. . ... : ... .. . ... : 3-# 0A . ... : C-3 09 . ... F96 : ... .. . ... : ... .. . ... ... : ... .. . ...
ROW 37 : ... .. . ... : ... .. . ... : ... .. . ... : ... .. . ... : ... .. . ... F7C : ... .. . ... : ... .. . ... ... : ... .. . ...
ROW 38 : ... .. . ... : ... .. . ... : F-3 0D . ... : 8-# 0A . ... : C#3 09 . ... F96 : ... .. . ... : ... .. . ... ... : F-1 0E . ...
ROW 39 : ... .. . ... : ... .. . ... : ... .. . ... : ... .. . ... : ... .. . ... F7C : ... .. . ... : ... .. . ... ... : ... .. . ...
ROW 3A : ... .. . ... : ... .. . ... : ... .. . ... : ... .. . ... : ... .. . ... F96 : ... .. . ... : ... .. . ... ... : ... .. . ...
ROW 3B : ... .. . ... : ... .. . ... : ... .. . ... : ... .. . ... : ... .. . ... F7C : ... .. . ... : ... .. . ... ... : ... .. . ...
ROW 3C : ... .. . ... : ... .. . ... : E-3 0D . ... : ... .. . ... : ... .. . ... F96 : ... .. . ... : ... .. . ... ... : E-1 0E . ...
ROW 3D : ... .. . ... : ... .. . ... : ... .. . ... : ... .. . ... : ... .. . ... F7C : ... .. . ... : ... .. . ... ... : ... .. . ...
ROW 3E : ... .. . ... : ... .. . ... : ... .. . ... : ... .. . ... : ... .. . ... F96 : ... .. . ... : ... .. . ... ... : ... .. . ...
ROW 3F : ... .. . ... : ... .. . ... : ... .. . ... : ... .. . ... : ... .. . ... F7C : ... .. . ... : ... .. . ... ... : ... .. . ...

PATTERN 07
ROW 00 : D-3 14 . ... : A#2 14 . ... : D-3 0D . ... : 3-# 0A . ... : C-3 09 . ... F96 : G-4 0F . 462 : E-4 0F . 444 ... : D-1 0E . ...
ROW 01 : ... .. . ... : ... .. . ... : ... .. . ... : ... .. . ... : ... .. . ... F7C : ... .. . ... : ... .. . ... ... : ... .. . ...
ROW 02 : ... .. . ... : ... .. . ... : ... .. . ... : ... .. . ... : ... .. . ... F96 : ... .. . ... : ... .. . ... ... : ... .. . ...
ROW 03 : ... .. . ... : ... .. . ... : ... .. . ... : ... .. . ... : ... .. . ... F7C : ... .. . ... : ... .. . ... ... : ... .. . ...
ROW 04 : ... .. . ... : ... .. . ... : D-3 0D . ... : ... .. . ... : ... .. . ... F96 : ... .. . ... : ... .. . ... ... : D-1 0E . ...
ROW 05 : ... .. . ... : ... .. . ... : ... .. . ... : ... .. . ... : ... .. . ... F7C : ... .. . ... : ... .. . ... ... : ... .. . ...
ROW 06 : ... .. . ... : ... .. . ... : ... .. . ... : 3-# 0A . ... : C-3 09 . ... F96 : ... .. . ... : ... .. . ... ... : ... .. . ...
ROW 07 : ... .. . ... : ... .. . ... : ... .. . ... : ... .. . ... : ... .. . ... F7C : ... .. . ... : ... .. . ... ... : ... .. . ...
ROW 08 : ... .. . ... : ... .. . ... : D-3 0D . ... : 8-# 0A . ... : C#3 09 . ... F96 : ... .. . ... : ... .. . ... ... : D-1 0E . ...
ROW 09 : ... .. . ... : ... .. . ... : ... .. . ... : ... .. . ... : ... .. . ... F7C : ... .. . ... : ... .. . ... ... : ... .. . ...
ROW 0A : ... .. . ... : ... .. . ... : ... .. . ... : ... .. . ... : ... .. . ... F96 : ... .. . ... : ... .. . ... ... : ... .. . ...
ROW 0B : ... .. . ... : ... .. . ... : ... .. . ... : ... .. . ... : ... .. . ... F7C : ... .. . ... : ... .. . ... ... : ... .. . ...
ROW 0C : ... .. . ... : ... .. . ... : D-3 0D . ... : ... .. . ... : ... .. . ... F96 : ... .. . ... : ... .. . ... ... : D-1 0E . ...
ROW 0D : ... .. . ... : ... .. . ... : ... .. . ... : ... .. . ... : ... .. . ... F7C : ... .. . ... : ... .. . ... ... : ... .. . ...
ROW 0E : ... .. . ... : ... .. . ... : ... .. . ... : ... .. . ... : ... .. . ... F96 : ... .. . ... : ... .. . ... ... : ... .. . ...
ROW 0F : ... .. . ... : ... .. . ... : ... .. . ... : ... .. . ... : ... .. . ... F7C : ... .. . ... : ... .. . ... ... : ... .. . ...
ROW 10 : ... .. . ... : ... .. . ... : D-3 0D . ... : 3-# 0A . ... : C-3 09 . ... F96 : ... .. . ... : ... .. . ... ... : D-1 0E . ...
ROW 11 : ... .. . ... : ... .. . ... : ... .. . ... : ... .. . ... : ... .. . ... F7C : ... .. . ... : ... .. . ... ... : ... .. . ...
ROW 12 : ... .. . ... : ... .. . ... : ... .. . ... : ... .. . ... : ... .. . ... F96 : ... .. . ... : ... .. . ... ... : ... .. . ...
ROW 13 : ... .. . ... : ... .. . ... : ... .. . ... : ... .. . ... : ... .. . ... F7C : ... .. . ... : ... .. . ... ... : ... .. . ...
ROW 14 : ... .. . ... : ... .. . ... : E-3 0D . ... : 3-# 0A . ... : C-3 09 . ... F96 : ... .. . ... : ... .. . ... ... : E-1 0E . ...
ROW 15 : ... .. . ... : ... .. . ... : ... .. . ... : ... .. . ... : ... .. . ... F7C : ... .. . ... : ... .. . ... ... : ... .. . ...
ROW 16 : ... .. . ... : ... .. . ... : ... .. . ... : 3-# 0A . ... : C-3 09 . ... F96 : ... .. . ... : ... .. . ... ... : ... .. . ...
ROW 17 : ... .. . ... : ... .. . ... : ... .. . ... : ... .. . ... : ... .. . ... F7C : ... .. . ... : ... .. . ... ... : ... .. . ...
ROW 18 : ... .. . ... : ... .. . ... : ... .. . ... : 8-# 0A . ... : C#3 09 . ... F96 : ... .. . ... : ... .. . ... ... : ... .. . ...
ROW 19 : ... .. . ... : ... .. . ... : ... .. . ... : ... .. . ... : ... .. . ... F7C : ... .. . ... : ... .. . ... ... : ... .. . ...
ROW 1A : ... .. . ... : ... .. . ... : ... .. . ... : ... .. . ... : ... .. . ... F96 : ... .. . ... : ... .. . ... ... : ... .. . ...
ROW 1B : ... .. . ... : ... .. . ... : ... .. . ... : ... .. . ... : ... .. . ... F7C : ... .. . ... : ... .. . ... ... : ... .. . ...
ROW 1C : ... .. . ... : ... .. . ... : F-3 0D . ... : ... .. . ... : ... .. . ... F96 : ... .. . ... : ... .. . ... ... : F-1 0E . ...
ROW 1D : ... .. . ... : ... .. . ... : ... .. . ... : ... .. . ... : ... .. . ... F7C : ... .. . ... : ... .. . ... ... : ... .. . ...
ROW 1E : ... .. . ... : ... .. . ... : ... .. . ... : ... .. . ... : ... .. . ... F96 : ... .. . ... : ... .. . ... ... : ... .. . ...
ROW 1F : ... .. . ... : ... .. . ... : ... .. . ... : ... .. . ... : ... .. . ... F7C : ... .. . ... : ... .. . ... ... : ... .. . ...
ROW 20 : E-3 14 . ... : C-3 14 . ... : E-3 0D . ... : 3-# 0A . ... : C-3 09 . ... F96 : ... .. . ... : ... .. . ... ... : E-1 0E . ...
ROW 21 : ... .. . ... : ... .. . ... : ... .. . ... : ... .. . ... : ... .. . ... F7C : ... .. . ... : ... .. . ... ... : ... .. . ...
ROW 22 : ... .. . ... : ... .. . ... : ... .. . ... : ... .. . ... : ... .. . ... F96 : ... .. . ... : ... .. . ... ... : ... .. . ...
ROW 23 : ... .. . ... : ... .. . ... : ... .. . ... : ... .. . ... : ... .. . ... F7C : ... .. . ... : ... .. . ... ... : ... .. . ...
ROW 24 : ... .. . ... : ... .. . ... : E-3 0D . ... : ... .. . ... : ... .. . ... F96 : ... .. . ... : ... .. . ... ... : E-1 0E . ...
ROW 25 : ... .. . ... : ... .. . ... : ... .. . ... : ... .. . ... : ... .. . ... F7C : ... .. . ... : ... .. . ... ... : ... .. . ...
ROW 26 : ... .. . ... : ... .. . ... : ... .. . ... : 3-# 0A . ... : C-3 09 . ... F96 : ... .. . ... : ... .. . ... ... : ... .. . ...
ROW 27 : ... .. . ... : ... .. . ... : ... .. . ... : ... .. . ... : ... .. . ... F7C : ... .. . ... : ... .. . ... ... : ... .. . ...
ROW 28 : ... .. . ... : ... .. . ... : E-3 0D . ... : 8-# 0A . ... : C#3 09 . ... F96 : ... .. . ... : ... .. . ... ... : E-1 0E . ...
ROW 29 : ... .. . ... : ... .. . ... : ... .. . ... : ... .. . ... : ... .. . ... F7C : ... .. . ... : ... .. . ... ... : ... .. . ...
ROW 2A : ... .. . ... : ... .. . ... : ... .. . ... : ... .. . ... : ... .. . ... F96 : ... .. . ... : ... .. . ... ... : ... .. . ...
ROW 2B : ... .. . ... : ... .. . ... : ... .. . ... : ... .. . ... : ... .. . ... F7C : ... .. . ... : ... .. . ... ... : ... .. . ...
ROW 2C : ... .. . ... : ... .. . ... : E-3 0D . ... : ... .. . ... : ... .. . ... F96 : ... .. . ... : ... .. . ... ... : E-1 0E . ...
ROW 2D : ... .. . ... : ... .. . ... : ... .. . ... : ... .. . ... : ... .. . ... F7C : ... .. . ... : ... .. . ... ... : ... .. . ...
ROW 2E : ... .. . ... : ... .. . ... : ... .. . ... : ... .. . ... : ... .. . ... F96 : ... .. . ... : ... .. . ... ... : ... .. . ...
ROW 2F : ... .. . ... : ... .. . ... : ... .. . ... : ... .. . ... : ... .. . ... F7C : ... .. . ... : ... .. . ... ... : ... .. . ...
ROW 30 : ... .. . ... : ... .. . ... : E-3 0D . ... : 3-# 0A . ... : C-3 09 . ... F96 : ... .. . ... : ... .. . ... ... : E-1 0E . ...
ROW 31 : ... .. . ... : ... .. . ... : ... .. . ... : ... .. . ... : ... .. . ... F7C : ... .. . ... : ... .. . ... ... : ... .. . ...
ROW 32 : ... .. . ... : ... .. . ... : ... .. . ... : ... .. . ... : ... .. . ... F96 : ... .. . ... : ... .. . ... ... : ... .. . ...
ROW 33 : ... .. . ... : ... .. . ... : ... .. . ... : ... .. . ... : ... .. . ... F7C : ... .. . ... : ... .. . ... ... : ... .. . ...
ROW 34 : ... .. . ... : ... .. . ... : F-3 0D . ... : 3-# 0A . ... : C-3 09 . ... F96 : ... .. . ... : ... .. . ... ... : F-1 0E . ...
ROW 35 : ... .. . ... : ... .. . ... : ... .. . ... : ... .. . ... : ... .. . ... F7C : ... .. . ... : ... .. . ... ... : ... .. . ...
ROW 36 : ... .. . ... : ... .. . ... : ... .. . ... : 3-# 0A . ... : C-3 09 . ... F96 : ... .. . ... : ... .. . ... ... : ... .. . ...
ROW 37 : ... .. . ... : ... .. . ... : ... .. . ... : ... .. . ... : ... .. . ... F7C : ... .. . ... : ... .. . ... ... : ... .. . ...
ROW 38 : ... .. . ... : ... .. . ... : ... .. . ... : 8-# 0A . ... : C#3 09 . ... F96 : ... .. . ... : ... .. . ... ... : ... .. . ...
ROW 39 : ... .. . ... : ... .. . ... : ... .. . ... : ... .. . ... : ... .. . ... F7C : ... .. . ... : ... .. . ... ... : ... .. . ...
ROW 3A : ... .. . ... : ... .. . ... : ... .. . ... : ... .. . ... : ... .. . ... F96 : ... .. . ... : ... .. . ... ... : ... .. . ...
ROW 3B : ... .. . ... : ... .. . ... : ... .. . ... : ... .. . ... : ... .. . ... F7C : ... .. . ... : ... .. . ... ... : ... .. . ...
ROW 3C : ... .. . ... : ... .. . ... : G-3 0D . ... : ... .. . ... : ... .. . ... F96 : ... .. . ... : ... .. . ... ... : G-1 0E . ...
ROW 3D : ... .. . ... : ... .. . ... : ... .. . ... : ... .. . ... : ... .. . ... F7C : ... .. . ... : ... .. . ... ... : ... .. . ...
ROW 3E : ... .. . ... : ... .. . ... : ... .. . ... : ... .. . ... : ... .. . ... F96 : ... .. . ... : ... .. . ... ... : ... .. . ...
ROW 3F : ... .. . ... : ... .. . ... : ... .. . ... : ... .. . ... : ... .. . ... F7C : ... .. . ... : ... .. . ... ... : ... .. . ...

PATTERN 08
ROW 00 : D-2 14 . ... : A-1 14 . ... : D-3 0D . ... : 3-# 0A . ... : C-3 09 . ... F96 : F-4 0F . 462 : D-4 0F . 444 ... : D-1 0E . ...
ROW 01 : ... .. . ... : ... .. . ... : ... .. . ... : ... .. . ... : ... .. . ... F7C : ... .. . ... : ... .. . ... ... : ... .. . ...
ROW 02 : ... .. . ... : ... .. . ... : ... .. . ... : ... .. . ... : ... .. . ... F96 : ... .. . ... : ... .. . ... ... : ... .. . ...
ROW 03 : ... .. . ... : ... .. . ... : ... .. . ... : ... .. . ... : ... .. . ... F7C : ... .. . ... : ... .. . ... ... : ... .. . ...
ROW 04 : D-2 14 . ... : A-1 14 . ... : D-3 0D . ... : ... .. . ... : ... .. . ... F96 : ... .. . ... : ... .. . ... ... : D-1 0E . ...
ROW 05 : ... .. . ... : ... .. . ... : ... .. . ... : ... .. . ... : ... .. . ... F7C : ... .. . ... : ... .. . ... ... : ... .. . ...
ROW 06 : ... .. . ... : ... .. . ... : ... .. . ... : 3-# 0A . ... : C-3 09 . ... F96 : ... .. . ... : ... .. . ... ... : ... .. . ...
ROW 07 : ... .. . ... : ... .. . ... : ... .. . ... : ... .. . ... : ... .. . ... F7C : ... .. . ... : ... .. . ... ... : ... .. . ...
ROW 08 : F-3 14 . ... : D-3 14 . ... : A-3 0D . ... : 8-# 0A . ... : C#3 09 . ... F96 : ... .. . ... : ... .. . ... ... : A-1 0E . ...
ROW 09 : ... .. . ... : ... .. . ... : ... .. . ... : ... .. . ... : ... .. . ... F7C : ... .. . ... : ... .. . ... ... : ... .. . ...
ROW 0A : ... .. . ... : ... .. . ... : ... .. . ... : ... .. . ... : ... .. . ... F96 : ... .. . ... : ... .. . ... ... : ... .. . ...
ROW 0B : ... .. . ... : ... .. . ... : ... .. . ... : ... .. . ... : ... .. . ... F7C : ... .. . ... : ... .. . ... ... : ... .. . ...
ROW 0C : D-2 14 . ... : A-1 14 . ... : ... .. . ... : ... .. . ... : ... .. . ... F96 : ... .. . ... : ... .. . ... ... : ... .. . ...
ROW 0D : ... .. . ... : ... .. . ... : ... .. . ... : ... .. . ... : ... .. . ... F7C : ... .. . ... : ... .. . ... ... : ... .. . ...
ROW 0E : ... .. . ... : ... .. . ... : ... .. . ... : ... .. . ... : ... .. . ... F96 : ... .. . ... : ... .. . ... ... : ... .. . ...
ROW 0F : ... .. . ... : ... .. . ... : ... .. . ... : ... .. . ... : ... .. . ... F7C : ... .. . ... : ... .. . ... ... : ... .. . ...
ROW 10 : E-3 14 . ... : C-3 14 . ... : G-3 0D . ... : 3-# 0A . ... : C-3 09 . ... F96 : ... .. . ... : ... .. . ... ... : G-1 0E . ...
ROW 11 : ... .. . ... : ... .. . ... : ... .. . ... : ... .. . ... : ... .. . ... F7C : ... .. . ... : ... .. . ... ... : ... .. . ...
ROW 12 : ... .. . ... : ... .. . ... : ... .. . ... : ... .. . ... : ... .. . ... F96 : ... .. . ... : ... .. . ... ... : ... .. . ...
ROW 13 : ... .. . ... : ... .. . ... : ... .. . ... : ... .. . ... : ... .. . ... F7C : ... .. . ... : ... .. . ... ... : ... .. . ...
ROW 14 : D-2 14 . ... : A-1 14 . ... : A-3 0D . ... : 3-# 0A . ... : C-3 09 . ... F96 : ... .. . ... : ... .. . ... ... : A-1 0E . ...
ROW 15 : ... .. . ... : ... .. . ... : ... .. . ... : ... .. . ... : ... .. . ... F7C : ... .. . ... : ... .. . ... ... : ... .. . ...
ROW 16 : ... .. . ... : ... .. . ... : ... .. . ... : 3-# 0A . ... : C-3 09 . ... F96 : ... .. . ... : ... .. . ... ... : ... .. . ...
ROW 17 : ... .. . ... : ... .. . ... : ... .. . ... : ... .. . ... : ... .. . ... F7C : ... .. . ... : ... .. . ... ... : ... .. . ...
ROW 18 : F-3 14 . ... : D-3 14 . ... : D-3 0D . ... : 8-# 0A . ... : C#3 09 . ... F96 : ... .. . ... : ... .. . ... ... : D-1 0E . ...
ROW 19 : ... .. . ... : ... .. . ... : ... .. . ... : ... .. . ... : ... .. . ... F7C : ... .. . ... : ... .. . ... ... : ... .. . ...
ROW 1A : ... .. . ... : ... .. . ... : ... .. . ... : ... .. . ... : ... .. . ... F96 : ... .. . ... : ... .. . ... ... : ... .. . ...
ROW 1B : ... .. . ... : ... .. . ... : ... .. . ... : ... .. . ... : ... .. . ... F7C : ... .. . ... : ... .. . ... ... : ... .. . ...
ROW 1C : D-3 14 . ... : A-2 14 . ... : D-3 0D . ... : ... .. . ... : ... .. . ... F96 : ... .. . ... : ... .. . ... ... : D-1 0E . ...
ROW 1D : ... .. . ... : ... .. . ... : ... .. . ... : ... .. . ... : ... .. . ... F7C : ... .. . ... : ... .. . ... ... : ... .. . ...
ROW 1E : ... .. . ... : ... .. . ... : ... .. . ... : ... .. . ... : ... .. . ... F96 : ... .. . ... : ... .. . ... ... : ... .. . ...
ROW 1F : ... .. . ... : ... .. . ... : ... .. . ... : ... .. . ... : ... .. . ... F7C : ... .. . ... : ... .. . ... ... : ... .. . ...
ROW 20 : ... .. . ... : ... .. . ... : D-3 0D . ... : 3-# 0A . ... : C-3 09 . ... F96 : ... .. . ... : ... .. . ... ... : D-1 0E . ...
ROW 21 : ... .. . ... : ... .. . ... : ... .. . ... : ... .. . ... : ... .. . ... F7C : ... .. . ... : ... .. . ... ... : ... .. . ...
ROW 22 : ... .. . ... : ... .. . ... : ... .. . ... : ... .. . ... : ... .. . ... F96 : ... .. . ... : ... .. . ... ... : ... .. . ...
ROW 23 : ... .. . ... : ... .. . ... : ... .. . ... : ... .. . ... : ... .. . ... F7C : ... .. . ... : ... .. . ... ... : ... .. . ...
ROW 24 : D-2 14 . ... : A-1 14 . ... : D-3 0D . ... : ... .. . ... : ... .. . ... F96 : ... .. . ... : ... .. . ... ... : D-1 0E . ...
ROW 25 : ... .. . ... : ... .. . ... : ... .. . ... : ... .. . ... : ... .. . ... F7C : ... .. . ... : ... .. . ... ... : ... .. . ...
ROW 26 : ... .. . ... : ... .. . ... : ... .. . ... : 3-# 0A . ... : C-3 09 . ... F96 : ... .. . ... : ... .. . ... ... : ... .. . ...
ROW 27 : ... .. . ... : ... .. . ... : ... .. . ... : ... .. . ... : ... .. . ... F7C : ... .. . ... : ... .. . ... ... : ... .. . ...
ROW 28 : F-3 14 . ... : D-3 14 . ... : A-3 0D . ... : 8-# 0A . ... : C#3 09 . ... F96 : ... .. . ... : ... .. . ... ... : A-1 0E . ...
ROW 29 : ... .. . ... : ... .. . ... : ... .. . ... : ... .. . ... : ... .. . ... F7C : ... .. . ... : ... .. . ... ... : ... .. . ...
ROW 2A : ... .. . ... : ... .. . ... : ... .. . ... : ... .. . ... : ... .. . ... F96 : ... .. . ... : ... .. . ... ... : ... .. . ...
ROW 2B : ... .. . ... : ... .. . ... : ... .. . ... : ... .. . ... : ... .. . ... F7C : ... .. . ... : ... .. . ... ... : ... .. . ...
ROW 2C : D-2 14 . ... : A-1 14 . ... : ... .. . ... : ... .. . ... : ... .. . ... F96 : ... .. . ... : ... .. . ... ... : ... .. . ...
ROW 2D : ... .. . ... : ... .. . ... : ... .. . ... : ... .. . ... : ... .. . ... F7C : ... .. . ... : ... .. . ... ... : ... .. . ...
ROW 2E : ... .. . ... : ... .. . ... : ... .. . ... : ... .. . ... : ... .. . ... F96 : ... .. . ... : ... .. . ... ... : ... .. . ...
ROW 2F : ... .. . ... : ... .. . ... : ... .. . ... : ... .. . ... : ... .. . ... F7C : ... .. . ... : ... .. . ... ... : ... .. . ...
ROW 30 : E-3 14 . ... : C-3 14 . ... : G-3 0D . ... : B-# 0B . ... : D-3 09 . ... F96 : ... .. . ... : ... .. . ... ... : G-1 0E . ...
ROW 31 : ... .. . ... : ... .. . ... : ... .. . ... : ... .. . ... : ... .. . ... F7C : ... .. . ... : ... .. . ... ... : ... .. . ...
ROW 32 : ... .. . ... : ... .. . ... : ... .. . ... : ... .. . ... : ... .. . ... F96 : ... .. . ... : ... .. . ... ... : ... .. . ...
ROW 33 : ... .. . ... : ... .. . ... : ... .. . ... : ... .. . ... : ... .. . ... F7C : ... .. . ... : ... .. . ... ... : ... .. . ...
ROW 34 : D-2 14 . ... : A-1 14 . ... : A-3 0D . ... : B-# 0B . ... : D-3 09 . ... F96 : ... .. . ... : ... .. . ... ... : A-1 0E . ...
ROW 35 : ... .. . ... : ... .. . ... : ... .. . ... : ... .. . ... : ... .. . ... F7C : ... .. . ... : ... .. . ... ... : ... .. . ...
ROW 36 : ... .. . ... : ... .. . ... : ... .. . ... : ... .. . ... : ... .. . ... F96 : ... .. . ... : ... .. . ... ... : ... .. . ...
ROW 37 : ... .. . ... : ... .. . ... : ... .. . ... : ... .. . ... : ... .. . ... F7C : ... .. . ... : ... .. . ... ... : ... .. . ...
ROW 38 : F-3 14 . ... : D-3 14 . ... : D-3 0D . ... : 9-# 0B . ... : E-3 09 . ... F96 : ... .. . ... : ... .. . ... ... : D-1 0E . ...
ROW 39 : ... .. . ... : ... .. . ... : ... .. . ... : ... .. . ... : ... .. . ... F7C : ... .. . ... : ... .. . ... ... : ... .. . ...
ROW 3A : ... .. . ... : ... .. . ... : ... .. . ... : ... .. . ... : ... .. . ... F96 : ... .. . ... : ... .. . ... ... : ... .. . ...
ROW 3B : ... .. . ... : ... .. . ... : ... .. . ... : ... .. . ... : ... .. . ... F7C : ... .. . ... : ... .. . ... ... : ... .. . ...
ROW 3C : D-3 14 . ... : A-2 14 . ... : D-3 0D . ... : 8-# 0B . ... : F-3 09 . ... F96 : ... .. . ... : ... .. . ... ... : D-1 0E . ...
ROW 3D : ... .. . ... : ... .. . ... : ... .. . ... : ... .. . ... : ... .. . ... F7C : ... .. . ... : ... .. . ... ... : ... .. . ...
ROW 3E : ... .. . ... : ... .. . ... : ... .. . ... : ... .. . ... : ... .. . ... F96 : ... .. . ... : ... .. . ... ... : ... .. . ...
ROW 3F : ... .. . ... : ... .. . ... : ... .. . ... : ... .. . ... : ... .. . ... F7C : ... .. . ... : ... .. . ... ... : ... .. . ...

PATTERN 09
ROW 00 : ... .. . ... : ... .. . ... : D-3 0D . ... : 3-# 0A . ... : C-3 09 . ... F96 : D-1 0E D 400 : --- .. . 400 ... : D-4 0E F ...
ROW 01 : ... .. . ... : ... .. . ... : ... .. . ... : ... .. . ... : ... .. . ... F7C : ... .. . ... : ... .. . ... ... : ... .. . ...
ROW 02 : ... .. . ... : ... .. . ... : ... .. . ... : ... .. . ... : ... .. . ... F96 : ... .. . ... : ... .. . ... ... : E-4 0E . ...
ROW 03 : ... .. . ... : ... .. . ... : ... .. . ... : ... .. . ... : ... .. . ... F7C : ... .. . ... : ... .. . ... ... : ... .. . ...
ROW 04 : ... .. . ... : ... .. . ... : D-3 0D . ... : ... .. . ... : ... .. . ... F96 : D-1 0E . ... : D-4 0E 9 ... P7E : F-4 0E . ...
ROW 05 : ... .. . ... : ... .. . ... : ... .. . ... : ... .. . ... : ... .. . ... F7C : ... .. . ... : ... .. . ... ... : ... .. . ...
ROW 06 : ... .. . ... : ... .. . ... : ... .. . ... : 3-# 0A . ... : C-3 09 . ... F96 : ... .. . ... : E-4 0E . ... ... : G-4 0E . ...
ROW 07 : ... .. . ... : ... .. . ... : ... .. . ... : ... .. . ... : ... .. . ... F7C : ... .. . ... : ... .. . ... ... : ... .. . ...
ROW 08 : F-3 14 . ... : D-3 14 . ... : A-3 0D . ... : 8-# 0A . ... : C#3 09 . ... F96 : A-1 0E . ... : F-4 0E . ... ... : A-4 0E . ...
ROW 09 : ... .. . ... : ... .. . ... : ... .. . ... : ... .. . ... : ... .. . ... F7C : ... .. . ... : ... .. . ... ... : ... .. . ...
ROW 0A : ... .. . ... : ... .. . ... : ... .. . ... : ... .. . ... : ... .. . ... F96 : ... .. . ... : G-4 0E . ... ... : ... .. . ...
ROW 0B : ... .. . ... : ... .. . ... : ... .. . ... : ... .. . ... : ... .. . ... F7C : ... .. . ... : ... .. . ... ... : ... .. . ...
ROW 0C : D-2 14 . ... : A-1 14 . ... : D-3 0D . ... : ... .. . ... : ... .. . ... F96 : D-1 0E . ... : A-4 0E . ... ... : D-4 0E . ...
ROW 0D : ... .. . ... : ... .. . ... : ... .. . ... : ... .. . ... : ... .. . ... F7C : ... .. . ... : ... .. . ... ... : ... .. . ...
ROW 0E : ... .. . ... : ... .. . ... : ... .. . ... : ... .. . ... : ... .. . ... F96 : ... .. . ... : ... .. . ... ... : E-4 0E . ...
ROW 0F : ... .. . ... : ... .. . ... : ... .. . ... : ... .. . ... : ... .. . ... F7C : ... .. . ... : ... .. . ... ... : ... .. . ...
ROW 10 : D-2 14 . ... : A-1 14 . ... : D-3 0D . ... : 3-# 0A . ... : C-3 09 . ... F96 : D-1 0E . ... : D-4 0E . ... ... : F-4 0E . ...
ROW 11 : ... .. . ... : ... .. . ... : ... .. . ... : ... .. . ... : ... .. . ... F7C : ... .. . ... : ... .. . ... ... : ... .. . ...
ROW 12 : ... .. . ... : ... .. . ... : ... .. . ... : ... .. . ... : ... .. . ... F96 : ... .. . ... : E-4 0E . ... ... : G-4 0E . ...
ROW 13 : ... .. . ... : ... .. . ... : ... .. . ... : ... .. . ... : ... .. . ... F7C : ... .. . ... : ... .. . ... ... : ... .. . ...
ROW 14 : F-3 14 . ... : D-3 14 . ... : A#3 0D . ... : 3-# 0A . ... : C-3 09 . ... F96 : A#1 0E . ... : F-4 0E . ... ... : A-4 0E . ...
ROW 15 : ... .. . ... : ... .. . ... : ... .. . ... : ... .. . ... : ... .. . ... F7C : ... .. . ... : ... .. . ... ... : ... .. . ...
ROW 16 : ... .. . ... : ... .. . ... : ... .. . ... : 3-# 0A . ... : C-3 09 . ... F96 : ... .. . ... : G-4 0E . ... ... : ... .. . ...
ROW 17 : ... .. . ... : ... .. . ... : ... .. . ... : ... .. . ... : ... .. . ... F7C : ... .. . ... : ... .. . ... ... : ... .. . ...
ROW 18 : D-2 14 . ... : A-1 14 . ... : D-3 0D . ... : 8-# 0A . ... : C#3 09 . ... F96 : D-1 0E . ... : A-4 0E . ... ... : D-4 0E . ...
ROW 19 : ... .. . ... : ... .. . ... : ... .. . ... : ... .. . ... : ... .. . ... F7C : ... .. . ... : ... .. . ... ... : ... .. . ...
ROW 1A : ... .. . ... : ... .. . ... : ... .. . ... : ... .. . ... : ... .. . ... F96 : ... .. . ... : ... .. . ... ... : E-4 0E . ...
ROW 1B : ... .. . ... : ... .. . ... : ... .. . ... : ... .. . ... : ... .. . ... F7C : ... .. . ... : ... .. . ... ... : ... .. . ...
ROW 1C : D-2 14 . ... : A-1 14 . ... : D-3 0D . ... : ... .. . ... : ... .. . ... F96 : D-1 0E . ... : D-4 0E . ... ... : F-4 0E . ...
ROW 1D : ... .. . ... : ... .. . ... : ... .. . ... : ... .. . ... : ... .. . ... F7C : ... .. . ... : ... .. . ... ... : ... .. . ...
ROW 1E : ... .. . ... : ... .. . ... : ... .. . ... : ... .. . ... : ... .. . ... F96 : ... .. . ... : E-4 0E . ... ... : G-4 0E . ...
ROW 1F : ... .. . ... : ... .. . ... : ... .. . ... : ... .. . ... : ... .. . ... F7C : ... .. . ... : ... .. . ... ... : ... .. . ...
ROW 20 : F-3 14 . ... : D-3 14 . ... : C-4 0D . ... : 3-# 0A . ... : C-3 09 . ... F96 : C-2 0E . ... : F-4 0E . ... ... : A-4 0E . ...
ROW 21 : ... .. . ... : ... .. . ... : ... .. . ... : ... .. . ... : ... .. . ... F7C : ... .. . ... : ... .. . ... ... : ... .. . ...
ROW 22 : ... .. . ... : ... .. . ... : ... .. . ... : ... .. . ... : ... .. . ... F96 : ... .. . ... : G-4 0E . ... ... : ... .. . ...
ROW 23 : ... .. . ... : ... .. . ... : ... .. . ... : ... .. . ... : ... .. . ... F7C : ... .. . ... : ... .. . ... ... : ... .. . ...
ROW 24 : D-2 14 . ... : A-1 14 . ... : D-3 0D . ... : ... .. . ... : ... .. . ... F96 : D-1 0E . ... : A-4 0E . ... ... : D-4 0E . ...
ROW 25 : ... .. . ... : ... .. . ... : ... .. . ... : ... .. . ... : ... .. . ... F7C : ... .. . ... : ... .. . ... ... : ... .. . ...
ROW 26 : ... .. . ... : ... .. . ... : ... .. . ... : 3-# 0A . ... : C-3 09 . ... F96 : ... .. . ... : ... .. . ... ... : E-4 0E . ...
ROW 27 : ... .. . ... : ... .. . ... : ... .. . ... : ... .. . ... : ... .. . ... F7C : ... .. . ... : ... .. . ... ... : ... .. . ...
ROW 28 : D-2 14 . ... : A-1 14 . ... : D-3 0D . ... : 8-# 0A . ... : C#3 09 . ... F96 : D-1 0E . ... : D-4 0E . ... ... : F-4 0E . ...
ROW 29 : ... .. . ... : ... .. . ... : ... .. . ... : ... .. . ... : ... .. . ... F7C : ... .. . ... : ... .. . ... ... : ... .. . ...
ROW 2A : ... .. . ... : ... .. . ... : ... .. . ... : ... .. . ... : ... .. . ... F96 : ... .. . ... : E-4 0E . ... ... : G-4 0E . ...
ROW 2B : ... .. . ... : ... .. . ... : ... .. . ... : ... .. . ... : ... .. . ... F7C : ... .. . ... : ... .. . ... ... : ... .. . ...
ROW 2C : F-3 14 . ... : D-3 14 . ... : A#3 0D . ... : ... .. . ... : ... .. . ... F96 : A#1 0E . ... : F-4 0E . ... ... : A-4 0E . ...
ROW 2D : ... .. . ... : ... .. . ... : ... .. . ... : ... .. . ... : ... .. . ... F7C : ... .. . ... : ... .. . ... ... : ... .. . ...
ROW 2E : ... .. . ... : ... .. . ... : ... .. . ... : ... .. . ... : ... .. . ... F96 : ... .. . ... : G-4 0E . ... ... : ... .. . ...
ROW 2F : ... .. . ... : ... .. . ... : ... .. . ... : ... .. . ... : ... .. . ... F7C : ... .. . ... : ... .. . ... ... : ... .. . ...
ROW 30 : D-2 14 . ... : A-1 14 . ... : D-3 0D . ... : 3-# 0A . ... : C-3 09 . ... F96 : D-1 0E . ... : A-4 0E . ... ... : D-4 0E . ...
ROW 31 : ... .. . ... : ... .. . ... : ... .. . ... : ... .. . ... : ... .. . ... F7C : ... .. . ... : ... .. . ... ... : ... .. . ...
ROW 32 : ... .. . ... : ... .. . ... : ... .. . ... : ... .. . ... : ... .. . ... F96 : ... .. . ... : ... .. . ... ... : E-4 0E . ...
ROW 33 : ... .. . ... : ... .. . ... : ... .. . ... : ... .. . ... : ... .. . ... F7C : ... .. . ... : ... .. . ... ... : ... .. . ...
ROW 34 : D-2 14 . ... : A-1 14 . ... : G-3 0D . ... : 3-# 0A . ... : C-3 09 . ... F96 : G-1 0E . ... : D-4 0E . ... ... : F-4 0E . ...
ROW 35 : ... .. . ... : ... .. . ... : ... .. . ... : ... .. . ... : ... .. . ... F7C : ... .. . ... : ... .. . ... ... : ... .. . ...
ROW 36 : ... .. . ... : ... .. . ... : ... .. . ... : 3-# 0A . ... : C-3 09 . ... F96 : ... .. . ... : E-4 0E . ... ... : G-4 0E . ...
ROW 37 : ... .. . ... : ... .. . ... : ... .. . ... : ... .. . ... : ... .. . ... F7C : ... .. . ... : ... .. . ... ... : ... .. . ...
ROW 38 : F-3 14 . ... : D-3 14 . ... : F-3 0D . ... : 8-# 0A . ... : C#3 09 . ... F96 : F-1 0E . ... : F-4 0E . ... ... : A-4 0E . ...
ROW 39 : ... .. . ... : ... .. . ... : ... .. . ... : ... .. . ... : ... .. . ... F7C : ... .. . ... : ... .. . ... ... : ... .. . ...
ROW 3A : ... .. . ... : ... .. . ... : ... .. . ... : ... .. . ... : ... .. . ... F96 : ... .. . ... : G-4 0E . ... ... : ... .. . ...
ROW 3B : ... .. . ... : ... .. . ... : ... .. . ... : ... .. . ... : ... .. . ... F7C : ... .. . ... : ... .. . ... ... : ... .. . ...
ROW 3C : D-2 14 . ... : A-1 14 . ... : E-3 0D . ... : ... .. . ... : ... .. . ... F96 : E-1 0E . ... : A-4 0E . ... ... : D-4 0E . ...
ROW 3D : ... .. . ... : ... .. . ... : ... .. . ... : ... .. . ... : ... .. . ... F7C : ... .. . ... : ... .. . ... ... : ... .. . ...
ROW 3E : ... .. . ... : ... .. . ... : ... .. . ... : ... .. . ... : ... .. . ... F96 : ... .. . ... : ... .. . ... ... : E-4 0E . ...
ROW 3F : ... .. . ... : ... .. . ... : ... .. . ... : ... .. . ... : ... .. . ... F7C : ... .. . ... : ... .. . ... ... : ... .. . ...

PATTERN 0A
ROW 00 : D-2 14 . ... : A-1 14 . ... : D-3 0D . ... : 3-# 0A . ... : C-3 09 . ... F96 : D-1 0E . ... : D-4 0E . ... ... : D-4 0E . ...
ROW 01 : ... .. . ... : ... .. . ... : ... .. . ... : ... .. . ... : ... .. . ... F7C : ... .. . ... : ... .. . ... ... : ... .. . ...
ROW 02 : ... .. . ... : ... .. . ... : ... .. . ... : ... .. . ... : ... .. . ... F96 : ... .. . ... : E-4 0E . ... ... : E-4 0E . ...
ROW 03 : ... .. . ... : ... .. . ... : ... .. . ... : ... .. . ... : ... .. . ... F7C : ... .. . ... : ... .. . ... ... : ... .. . ...
ROW 04 : D-2 14 . ... : A-1 14 . ... : D-3 0D . ... : ... .. . ... : ... .. . ... F96 : D-1 0E . ... : D-4 0E . ... ... : F-4 0E . ...
ROW 05 : ... .. . ... : ... .. . ... : ... .. . ... : ... .. . ... : ... .. . ... F7C : ... .. . ... : ... .. . ... ... : ... .. . ...
ROW 06 : ... .. . ... : ... .. . ... : ... .. . ... : 3-# 0A . ... : C-3 09 . ... F96 : ... .. . ... : E-4 0E . ... ... : G-4 0E . ...
ROW 07 : ... .. . ... : ... .. . ... : ... .. . ... : ... .. . ... : ... .. . ... F7C : ... .. . ... : ... .. . ... ... : ... .. . ...
ROW 08 : E-3 14 . ... : C-3 14 . ... : A-3 0D . ... : 8-# 0A . ... : C#3 09 . ... F96 : A-1 0E . ... : F-4 0E . ... ... : A-4 0E . ...
ROW 09 : ... .. . ... : ... .. . ... : ... .. . ... : ... .. . ... : ... .. . ... F7C : ... .. . ... : ... .. . ... ... : ... .. . ...
ROW 0A : ... .. . ... : ... .. . ... : ... .. . ... : ... .. . ... : ... .. . ... F96 : ... .. . ... : G-4 0E . ... ... : A#4 0E . ...
ROW 0B : ... .. . ... : ... .. . ... : ... .. . ... : ... .. . ... : ... .. . ... F7C : ... .. . ... : ... .. . ... ... : ... .. . ...
ROW 0C : D-2 14 . ... : A-1 14 . ... : D-3 0D . ... : ... .. . ... : ... .. . ... F96 : D-1 0E . ... : A-4 0E . ... ... : C-5 0E . ...
ROW 0D : ... .. . ... : ... .. . ... : ... .. . ... : ... .. . ... : ... .. . ... F7C : ... .. . ... : ... .. . ... ... : ... .. . ...
ROW 0E : ... .. . ... : ... .. . ... : ... .. . ... : ... .. . ... : ... .. . ... F96 : ... .. . ... : A#4 0E . ... ... : D-5 0E . ...
ROW 0F : ... .. . ... : ... .. . ... : ... .. . ... : ... .. . ... : ... .. . ... F7C : ... .. . ... : ... .. . ... ... : ... .. . ...
ROW 10 : D-2 14 . ... : A-1 14 . ... : D-3 0D . ... : 3-# 0A . ... : C-3 09 . ... F96 : D-1 0E . ... : C-5 0E . ... ... : E-5 0E . ...
ROW 11 : ... .. . ... : ... .. . ... : ... .. . ... : ... .. . ... : ... .. . ... F7C : ... .. . ... : ... .. . ... ... : ... .. . ...
ROW 12 : ... .. . ... : ... .. . ... : ... .. . ... : ... .. . ... : ... .. . ... F96 : ... .. . ... : D-5 0E . ... ... : F-5 0E . ...
ROW 13 : ... .. . ... : ... .. . ... : ... .. . ... : ... .. . ... : ... .. . ... F7C : ... .. . ... : ... .. . ... ... : ... .. . ...
ROW 14 : E-3 14 . ... : C-3 14 . ... : A#3 0D . ... : 3-# 0A . ... : C-3 09 . ... F96 : A#1 0E . ... : E-5 0E . ... ... : G-5 0E . ...
ROW 15 : ... .. . ... : ... .. . ... : ... .. . ... : ... .. . ... : ... .. . ... F7C : ... .. . ... : ... .. . ... ... : ... .. . ...
ROW 16 : ... .. . ... : ... .. . ... : ... .. . ... : 3-# 0A . ... : C-3 09 . ... F96 : ... .. . ... : F-5 0E . ... ... : F-5 0E . ...
ROW 17 : ... .. . ... : ... .. . ... : ... .. . ... : ... .. . ... : ... .. . ... F7C : ... .. . ... : ... .. . ... ... : ... .. . ...
ROW 18 : D-2 14 . ... : A-1 14 . ... : D-3 0D . ... : 8-# 0A . ... : C#3 09 . ... F96 : D-1 0E . ... : G-5 0E . ... ... : E-5 0E . ...
ROW 19 : ... .. . ... : ... .. . ... : ... .. . ... : ... .. . ... : ... .. . ... F7C : ... .. . ... : ... .. . ... ... : ... .. . ...
ROW 1A : ... .. . ... : ... .. . ... : ... .. . ... : ... .. . ... : ... .. . ... F96 : ... .. . ... : F-5 0E . ... ... : D-5 0E . ...
ROW 1B : ... .. . ... : ... .. . ... : ... .. . ... : ... .. . ... : ... .. . ... F7C : ... .. . ... : ... .. . ... ... : ... .. . ...
ROW 1C : D-2 14 . ... : A-1 14 . ... : D-3 0D . ... : ... .. . ... : ... .. . ... F96 : D-1 0E . ... : E-5 0E . ... ... : C-5 0E . ...
ROW 1D : ... .. . ... : ... .. . ... : ... .. . ... : ... .. . ... : ... .. . ... F7C : ... .. . ... : ... .. . ... ... : ... .. . ...
ROW 1E : ... .. . ... : ... .. . ... : ... .. . ... : ... .. . ... : ... .. . ... F96 : ... .. . ... : D-5 0E . ... ... : D-5 0E . ...
ROW 1F : ... .. . ... : ... .. . ... : ... .. . ... : ... .. . ... : ... .. . ... F7C : ... .. . ... : ... .. . ... ... : ... .. . ...
ROW 20 : E-3 14 . ... : C-3 14 . ... : C-4 0D . ... : 3-# 0A . ... : C-3 09 . ... F96 : C-2 0E . ... : C-5 0E . ... ... : C-5 0E . ...
ROW 21 : ... .. . ... : ... .. . ... : ... .. . ... : ... .. . ... : ... .. . ... F7C : ... .. . ... : ... .. . ... ... : ... .. . ...
ROW 22 : ... .. . ... : ... .. . ... : ... .. . ... : ... .. . ... : ... .. . ... F96 : ... .. . ... : D-5 0E . ... ... : D-5 0E . ...
ROW 23 : ... .. . ... : ... .. . ... : ... .. . ... : ... .. . ... : ... .. . ... F7C : ... .. . ... : ... .. . ... ... : ... .. . ...
ROW 24 : D-2 14 . ... : A-1 14 . ... : D-3 0D . ... : ... .. . ... : ... .. . ... F96 : D-1 0E . ... : C-5 0E . ... ... : C-5 0E . ...
ROW 25 : ... .. . ... : ... .. . ... : ... .. . ... : ... .. . ... : ... .. . ... F7C : ... .. . ... : ... .. . ... ... : ... .. . ...
ROW 26 : ... .. . ... : ... .. . ... : ... .. . ... : 3-# 0A . ... : C-3 09 . ... F96 : ... .. . ... : D-5 0E . ... ... : A#4 0E . ...
ROW 27 : ... .. . ... : ... .. . ... : ... .. . ... : ... .. . ... : ... .. . ... F7C : ... .. . ... : ... .. . ... ... : ... .. . ...
ROW 28 : D-2 14 . ... : A-1 14 . ... : D-3 0D . ... : 8-# 0A . ... : C#3 09 . ... F96 : D-1 0E . ... : C-5 0E . ... ... : C-5 0E . ...
ROW 29 : ... .. . ... : ... .. . ... : ... .. . ... : ... .. . ... : ... .. . ... F7C : ... .. . ... : ... .. . ... ... : ... .. . ...
ROW 2A : ... .. . ... : ... .. . ... : ... .. . ... : ... .. . ... : ... .. . ... F96 : ... .. . ... : A#4 0E . ... ... : ... .. . ...
ROW 2B : ... .. . ... : ... .. . ... : ... .. . ... : ... .. . ... : ... .. . ... F7C : ... .. . ... : ... .. . ... ... : ... .. . ...
ROW 2C : E-3 14 . ... : C-3 14 . ... : A#3 0D . ... : ... .. . ... : ... .. . ... F96 : A#1 0E . ... : C-5 0E . ... ... : ... .. . ...
ROW 2D : ... .. . ... : ... .. . ... : ... .. . ... : ... .. . ... : ... .. . ... F7C : ... .. . ... : ... .. . ... ... : ... .. . ...
ROW 2E : ... .. . ... : ... .. . ... : ... .. . ... : ... .. . ... : ... .. . ... F96 : ... .. . ... : ... .. . ... ... : ... .. . ...
ROW 2F : ... .. . ... : ... .. . ... : ... .. . ... : ... .. . ... : ... .. . ... F7C : ... .. . ... : ... .. . ... ... : ... .. . ...
ROW 30 : D-2 14 . ... : A-1 14 . ... : D-3 0D . ... : 3-# 0A . ... : C-3 09 . ... F96 : D-1 0E . ... : ... .. . ... ... : A-4 0E . ...
ROW 31 : ... .. . ... : ... .. . ... : ... .. . ... : ... .. . ... : ... .. . ... F7C : ... .. . ... : ... .. . ... ... : ... .. . ...
ROW 32 : ... .. . ... : ... .. . ... : ... .. . ... : ... .. . ... : ... .. . ... F96 : ... .. . ... : ... .. . ... ... : ... .. . ...
ROW 33 : ... .. . ... : ... .. . ... : ... .. . ... : ... .. . ... : ... .. . ... F7C : ... .. . ... : ... .. . ... ... : ... .. . ...
ROW 34 : D-2 14 . ... : A-1 14 . ... : G-3 0D . ... : 3-# 0A . ... : C-3 09 . ... F96 : G-1 0E . ... : A-4 0E . ... ... : ... .. . ...
ROW 35 : ... .. . ... : ... .. . ... : ... .. . ... : ... .. . ... : ... .. . ... F7C : ... .. . ... : ... .. . ... ... : ... .. . ...
ROW 36 : ... .. . ... : ... .. . ... : ... .. . ... : 3-# 0A . ... : C-3 09 . ... F96 : ... .. . ... : ... .. . ... ... : ... .. . ...
ROW 37 : ... .. . ... : ... .. . ... : ... .. . ... : ... .. . ... : ... .. . ... F7C : ... .. . ... : ... .. . ... ... : ... .. . ...
ROW 38 : E-3 14 . ... : C-3 14 . ... : F-3 0D . ... : 8-# 0A . ... : C#3 09 . ... F96 : F-1 0E . ... : ... .. . ... ... : ... .. . 442
ROW 39 : ... .. . ... : ... .. . ... : ... .. . ... : ... .. . ... : ... .. . ... F7C : ... .. . ... : ... .. . ... ... : ... .. . ...
ROW 3A : ... .. . ... : ... .. . ... : ... .. . ... : ... .. . ... : ... .. . ... F96 : ... .. . ... : ... .. . ... ... : ... .. . ...
ROW 3B : ... .. . ... : ... .. . ... : ... .. . ... : ... .. . ... : ... .. . ... F7C : ... .. . ... : ... .. . ... ... : ... .. . ...
ROW 3C : D-2 14 . ... : A-1 14 . ... : E-3 0D . ... : ... .. . ... : ... .. . ... F96 : E-1 0E . ... : ... .. . 442 ... : ... .. . ...
ROW 3D : ... .. . ... : ... .. . ... : ... .. . ... : ... .. . ... : ... .. . ... F7C : ... .. . ... : ... .. . ... ... : ... .. . ...
ROW 3E : ... .. . ... : ... .. . ... : ... .. . ... : ... .. . ... : ... .. . ... F96 : ... .. . ... : ... .. . ... ... : ... .. . ...
ROW 3F : ... .. . ... : ... .. . ... : ... .. . ... : ... .. . ... : ... .. . ... F7C : ... .. . ... : ... .. . ... ... : ... .. . ...

PATTERN 0B
ROW 00 : D-2 14 . ... : A-1 14 . ... : D-3 0D . ... : 3-# 0A . ... : C-3 09 . ... F96 : D-1 0E . ... : ... .. . ... ... : F-4 0E . 400
ROW 01 : ... .. . ... : ... .. . ... : ... .. . ... : ... .. . ... : ... .. . ... F7C : ... .. . ... : ... .. . ... ... : ... .. . ...
ROW 02 : ... .. . ... : ... .. . ... : ... .. . ... : ... .. . ... : ... .. . ... F96 : ... .. . ... : ... .. . ... ... : E-4 0E . ...
ROW 03 : ... .. . ... : ... .. . ... : ... .. . ... : ... .. . ... : ... .. . ... F7C : ... .. . ... : ... .. . ... ... : ... .. . ...
ROW 04 : D-2 14 . ... : A-1 14 . ... : D-3 0D . ... : ... .. . ... : ... .. . ... F96 : D-1 0E . ... : F-4 0E . 400 ... : G-4 0E . ...
ROW 05 : ... .. . ... : ... .. . ... : ... .. . ... : ... .. . ... : ... .. . ... F7C : ... .. . ... : ... .. . ... ... : ... .. . ...
ROW 06 : ... .. . ... : ... .. . ... : ... .. . ... : 3-# 0A . ... : C-3 09 . ... F96 : ... .. . ... : E-4 0E . ... ... : E-4 0E . ...
ROW 07 : ... .. . ... : ... .. . ... : ... .. . ... : ... .. . ... : ... .. . ... F7C : ... .. . ... : ... .. . ... ... : ... .. . ...
ROW 08 : G-3 14 . ... : E-3 14 . ... : A-3 0D . ... : 8-# 0A . ... : C#3 09 . ... F96 : A-1 0E . ... : G-4 0E . ... ... : F-4 0E . ...
ROW 09 : ... .. . ... : ... .. . ... : ... .. . ... : ... .. . ... : ... .. . ... F7C : ... .. . ... : ... .. . ... ... : ... .. . ...
ROW 0A : ... .. . ... : ... .. . ... : ... .. . ... : ... .. . ... : ... .. . ... F96 : ... .. . ... : E-4 0E . ... ... : E-4 0E . ...
ROW 0B : ... .. . ... : ... .. . ... : ... .. . ... : ... .. . ... : ... .. . ... F7C : ... .. . ... : ... .. . ... ... : ... .. . ...
ROW 0C : D-2 14 . ... : A-1 14 . ... : D-3 0D . ... : ... .. . ... : ... .. . ... F96 : D-1 0E . ... : F-4 0E . ... ... : G-4 0E . ...
ROW 0D : ... .. . ... : ... .. . ... : ... .. . ... : ... .. . ... : ... .. . ... F7C : ... .. . ... : ... .. . ... ... : ... .. . ...
ROW 0E : ... .. . ... : ... .. . ... : ... .. . ... : ... .. . ... : ... .. . ... F96 : ... .. . ... : E-4 0E . ... ... : E-4 0E . ...
ROW 0F : ... .. . ... : ... .. . ... : ... .. . ... : ... .. . ... : ... .. . ... F7C : ... .. . ... : ... .. . ... ... : ... .. . ...
ROW 10 : D-2 14 . ... : A-1 14 . ... : D-3 0D . ... : 3-# 0A . ... : C-3 09 . ... F96 : D-1 0E . ... : G-4 0E . ... ... : F-4 0E . ...
ROW 11 : ... .. . ... : ... .. . ... : ... .. . ... : ... .. . ... : ... .. . ... F7C : ... .. . ... : ... .. . ... ... : ... .. . ...
ROW 12 : ... .. . ... : ... .. . ... : ... .. . ... : ... .. . ... : ... .. . ... F96 : ... .. . ... : E-4 0E . ... ... : E-4 0E . ...
ROW 13 : ... .. . ... : ... .. . ... : ... .. . ... : ... .. . ... : ... .. . ... F7C : ... .. . ... : ... .. . ... ... : ... .. . ...
ROW 14 : G-3 14 . ... : E-3 14 . ... : A#3 0D . ... : 3-# 0A . ... : C-3 09 . ... F96 : A#1 0E . ... : F-4 0E . ... ... : G-4 0E . ...
ROW 15 : ... .. . ... : ... .. . ... : ... .. . ... : ... .. . ... : ... .. . ... F7C : ... .. . ... : ... .. . ... ... : ... .. . ...
ROW 16 : ... .. . ... : ... .. . ... : ... .. . ... : 3-# 0A . ... : C-3 09 . ... F96 : ... .. . ... : E-4 0E . ... ... : E-4 0E . ...
ROW 17 : ... .. . ... : ... .. . ... : ... .. . ... : ... .. . ... : ... .. . ... F7C : ... .. . ... : ... .. . ... ... : ... .. . ...
ROW 18 : D-2 14 . ... : A-1 14 . ... : D-3 0D . ... : 8-# 0A . ... : C#3 09 . ... F96 : D-1 0E . ... : G-4 0E . ... ... : F-4 0E . ...
ROW 19 : ... .. . ... : ... .. . ... : ... .. . ... : ... .. . ... : ... .. . ... F7C : ... .. . ... : ... .. . ... ... : ... .. . ...
ROW 1A : ... .. . ... : ... .. . ... : ... .. . ... : ... .. . ... : ... .. . ... F96 : ... .. . ... : E-4 0E . ... ... : E-4 0E . ...
ROW 1B : ... .. . ... : ... .. . ... : ... .. . ... : ... .. . ... : ... .. . ... F7C : ... .. . ... : ... .. . ... ... : ... .. . ...
ROW 1C : D-2 14 . ... : A-1 14 . ... : D-3 0D . ... : ... .. . ... : ... .. . ... F96 : D-1 0E . ... : F-4 0E . ... ... : G-4 0E . ...
ROW 1D : ... .. . ... : ... .. . ... : ... .. . ... : ... .. . ... : ... .. . ... F7C : ... .. . ... : ... .. . ... ... : ... .. . ...
ROW 1E : ... .. . ... : ... .. . ... : ... .. . ... : ... .. . ... : ... .. . ... F96 : ... .. . ... : E-4 0E . ... ... : E-4 0E . ...
ROW 1F : ... .. . ... : ... .. . ... : ... .. . ... : ... .. . ... : ... .. . ... F7C : ... .. . ... : ... .. . ... ... : ... .. . ...
ROW 20 : G-3 14 . ... : E-3 14 . ... : C-4 0D . ... : 3-# 0A . ... : C-3 09 . ... F96 : C-2 0E . ... : G-4 0E . ... ... : D-4 0E . ...
ROW 21 : ... .. . ... : ... .. . ... : ... .. . ... : ... .. . ... : ... .. . ... F7C : ... .. . ... : ... .. . ... ... : ... .. . ...
ROW 22 : ... .. . ... : ... .. . ... : ... .. . ... : ... .. . ... : ... .. . ... F96 : ... .. . ... : E-4 0E . ... ... : E-4 0E . ...
ROW 23 : ... .. . ... : ... .. . ... : ... .. . ... : ... .. . ... : ... .. . ... F7C : ... .. . ... : ... .. . ... ... : ... .. . ...
ROW 24 : D-2 14 . ... : A-1 14 . ... : D-3 0D . ... : ... .. . ... : ... .. . ... F96 : D-1 0E . ... : D-4 0E . ... ... : C-4 0E . ...
ROW 25 : ... .. . ... : ... .. . ... : ... .. . ... : ... .. . ... : ... .. . ... F7C : ... .. . ... : ... .. . ... ... : ... .. . ...
ROW 26 : ... .. . ... : ... .. . ... : ... .. . ... : 3-# 0A . ... : C-3 09 . ... F96 : ... .. . ... : E-4 0E . ... ... : ... .. . ...
ROW 27 : ... .. . ... : ... .. . ... : ... .. . ... : ... .. . ... : ... .. . ... F7C : ... .. . ... : ... .. . ... ... : ... .. . ...
ROW 28 : D-2 14 . ... : A-1 14 . ... : D-3 0D . ... : 8-# 0A . ... : C#3 09 . ... F96 : D-1 0E . ... : C-4 0E . ... ... : ... .. . ...
ROW 29 : ... .. . ... : ... .. . ... : ... .. . ... : ... .. . ... : ... .. . ... F7C : ... .. . ... : ... .. . ... ... : ... .. . ...
ROW 2A : ... .. . ... : ... .. . ... : ... .. . ... : ... .. . ... : ... .. . ... F96 : ... .. . ... : ... .. . ... ... : ... .. . ...
ROW 2B : ... .. . ... : ... .. . ... : ... .. . ... : ... .. . ... : ... .. . ... F7C : ... .. . ... : ... .. . ... ... : ... .. . ...
ROW 2C : G-3 14 . ... : E-3 14 . ... : A#3 0D . ... : ... .. . ... : ... .. . ... F96 : A#1 0E . ... : ... .. . ... ... : ... .. . Q25
ROW 2D : ... .. . ... : ... .. . ... : ... .. . ... : ... .. . ... : ... .. . ... F7C : ... .. . ... : ... .. . ... ... : ... .. . ...
ROW 2E : ... .. . ... : ... .. . ... : ... .. . ... : ... .. . ... : ... .. . ... F96 : ... .. . ... : ... .. . ... ... : ... .. . ...
ROW 2F : ... .. . ... : ... .. . ... : ... .. . ... : ... .. . ... : ... .. . ... F7C : ... .. . ... : ... .. . ... ... : ... .. . ...
ROW 30 : D-2 14 . ... : A-1 14 . ... : D-3 0D . ... : 8-# 0A . ... : C#3 09 . ... F96 : D-1 0E . ... : ... .. . Q25 ... : ... .. . ...
ROW 31 : ... .. . ... : ... .. . ... : ... .. . ... : ... .. . ... : ... .. . ... F7C : ... .. . ... : ... .. . ... ... : ... .. . ...
ROW 32 : ... .. . ... : ... .. . ... : ... .. . ... : 8-# 0A 7 ... : C#3 09 . ... F96 : ... .. . ... : ... .. . ... ... : ... .. . ...
ROW 33 : ... .. . ... : ... .. . ... : ... .. . ... : ... .. . ... : ... .. . ... F7C : ... .. . ... : ... .. . ... ... : ... .. . ...
ROW 34 : D-2 14 . ... : A-1 14 . ... : G-3 0D . ... : 8-# 0A . ... : C#3 09 . ... F96 : G-1 0E . ... : ... .. . ... ... : ... .. . ...
ROW 35 : ... .. . ... : ... .. . ... : ... .. . ... : ... .. . ... : ... .. . ... F7C : ... .. . ... : ... .. . ... ... : ... .. . ...
ROW 36 : ... .. . ... : ... .. . ... : ... .. . ... : 8-# 0A . ... : C#3 09 . ... F96 : ... .. . ... : ... .. . ... ... : ... .. . ...
ROW 37 : ... .. . ... : ... .. . ... : ... .. . ... : ... .. . ... : ... .. . ... F7C : ... .. . ... : ... .. . ... ... : ... .. . ...
ROW 38 : G-3 14 . ... : E-3 14 . ... : F-3 0D . ... : 8-# 0A F ... : C#3 09 . ... F96 : F-1 0E . ... : ... .. . ... ... : ... .. . ...
ROW 39 : ... .. . ... : ... .. . ... : ... .. . ... : ... .. . ... : ... .. . ... F7C : ... .. . ... : ... .. . ... ... : ... .. . ...
ROW 3A : ... .. . ... : ... .. . ... : ... .. . ... : 8-# 0A 7 ... : C#3 09 . ... F96 : ... .. . ... : ... .. . ... ... : ... .. . ...
ROW 3B : ... .. . ... : ... .. . ... : ... .. . ... : ... .. . ... : ... .. . ... F7C : ... .. . ... : ... .. . ... ... : ... .. . ...
ROW 3C : D-2 14 . ... : A-1 14 . ... : E-3 0D . ... : 8-# 0A . ... : C#3 09 . ... F96 : E-1 0E . ... : ... .. . ... ... : ... .. . ...
ROW 3D : ... .. . ... : ... .. . ... : ... .. . ... : ... .. . ... : ... .. . ... F7C : ... .. . ... : ... .. . ... ... : ... .. . ...
ROW 3E : ... .. . ... : ... .. . ... : ... .. . ... : 8-# 0A . ... : C#3 09 . ... F96 : ... .. . ... : ... .. . ... ... : ... .. . ...
ROW 3F : ... .. . ... : ... .. . ... : ... .. . ... : ... .. . ... : ... .. . ... F7C : ... .. . ... : ... .. . ... ... : ... .. . ...

PATTERN 0C
ROW 00 : D-2 14 . ... : A-1 14 . ... : D-3 0D . ... : 3-# 0A F ... : C-3 09 . ... F96 : D-1 0E . ... : ... .. . ... ... : ... .. . ...
ROW 01 : ... .. . ... : ... .. . ... : ... .. . ... : ... .. . ... : ... .. . ... F7C : ... .. . ... : ... .. . ... ... : ... .. . ...
ROW 02 : ... .. . ... : ... .. . ... : ... .. . ... : ... .. . ... : ... .. . ... F96 : ... .. . ... : ... .. . ... ... : ... .. . ...
ROW 03 : ... .. . ... : ... .. . ... : ... .. . ... : ... .. . ... : ... .. . ... F7C : ... .. . ... : ... .. . ... ... : ... .. . ...
ROW 04 : D-2 14 . ... : A-1 14 . ... : D-3 0D . ... : ... .. . ... : ... .. . ... F96 : D-1 0E . ... : ... .. . ... ... : ... .. . R13
ROW 05 : ... .. . ... : ... .. . ... : ... .. . ... : ... .. . ... : ... .. . ... F7C : ... .. . ... : ... .. . ... ... : ... .. . ...
ROW 06 : ... .. . ... : ... .. . ... : ... .. . ... : 3-# 0A . ... : C-3 09 . ... F96 : ... .. . ... : ... .. . ... ... : ... .. . 453
ROW 07 : ... .. . ... : ... .. . ... : ... .. . ... : ... .. . ... : ... .. . ... F7C : ... .. . ... : ... .. . ... ... : ... .. . ...
ROW 08 : F-3 14 . ... : D-3 14 . ... : A-3 0D . ... : 8-# 0A . ... : C#3 09 . ... F96 : A-1 0E . ... : ... .. . R13 ... : ... .. . ...
ROW 09 : ... .. . ... : ... .. . ... : ... .. . ... : ... .. . ... : ... .. . ... F7C : ... .. . ... : ... .. . ... ... : ... .. . ...
ROW 0A : ... .. . ... : ... .. . ... : ... .. . ... : ... .. . ... : ... .. . ... F96 : ... .. . ... : ... .. . 453 ... : ... .. . ...
ROW 0B : ... .. . ... : ... .. . ... : ... .. . ... : ... .. . ... : ... .. . ... F7C : ... .. . ... : ... .. . ... ... : ... .. . ...
ROW 0C : D-2 14 . ... : A-1 14 . ... : D-3 0D . ... : ... .. . ... : ... .. . ... F96 : D-1 0E . ... : ... .. . ... ... : ... .. . ...
ROW 0D : ... .. . ... : ... .. . ... : ... .. . ... : ... .. . ... : ... .. . ... F7C : ... .. . ... : ... .. . ... ... : ... .. . ...
ROW 0E : ... .. . ... : ... .. . ... : ... .. . ... : ... .. . ... : ... .. . ... F96 : ... .. . ... : ... .. . ... ... : ... .. . ...
ROW 0F : ... .. . ... : ... .. . ... : ... .. . ... : ... .. . ... : ... .. . ... F7C : ... .. . ... : ... .. . ... ... : ... .. . ...
ROW 10 : D-2 14 . ... : A-1 14 . ... : D-3 0D . ... : 3-# 0A . ... : C-3 09 . ... F96 : D-1 0E . ... : ... .. . ... ... : ... .. . ...
ROW 11 : ... .. . ... : ... .. . ... : ... .. . ... : ... .. . ... : ... .. . ... F7C : ... .. . ... : ... .. . ... ... : ... .. . ...
ROW 12 : ... .. . ... : ... .. . ... : ... .. . ... : ... .. . ... : ... .. . ... F96 : ... .. . ... : ... .. . ... ... : ... .. . ...
ROW 13 : ... .. . ... : ... .. . ... : ... .. . ... : ... .. . ... : ... .. . ... F7C : ... .. . ... : ... .. . ... ... : ... .. . ...
ROW 14 : F-3 14 . ... : D-3 14 . ... : A#3 0D . ... : 3-# 0A . ... : C-3 09 . ... F96 : A#1 0E . ... : ... .. . ... ... : ... .. . ...
ROW 15 : ... .. . ... : ... .. . ... : ... .. . ... : ... .. . ... : ... .. . ... F7C : ... .. . ... : ... .. . ... ... : ... .. . ...
ROW 16 : ... .. . ... : ... .. . ... : ... .. . ... : 3-# 0A . ... : C-3 09 . ... F96 : ... .. . ... : ... .. . ... ... : ... .. . ...
ROW 17 : ... .. . ... : ... .. . ... : ... .. . ... : ... .. . ... : ... .. . ... F7C : ... .. . ... : ... .. . ... ... : ... .. . ...
ROW 18 : D-2 14 . ... : A-1 14 . ... : D-3 0D . ... : 8-# 0A . ... : C#3 09 . ... F96 : D-1 0E . ... : ... .. . ... ... : ... .. . ...
ROW 19 : ... .. . ... : ... .. . ... : ... .. . ... : ... .. . ... : ... .. . ... F7C : ... .. . ... : ... .. . ... ... : ... .. . ...
ROW 1A : ... .. . ... : ... .. . ... : ... .. . ... : ... .. . ... : ... .. . ... F96 : ... .. . ... : ... .. . ... ... : ... .. . ...
ROW 1B : ... .. . ... : ... .. . ... : ... .. . ... : ... .. . ... : ... .. . ... F7C : ... .. . ... : ... .. . ... ... : ... .. . ...
ROW 1C : D-2 14 . ... : A-1 14 . ... : D-3 0D . ... : ... .. . ... : ... .. . ... F96 : D-1 0E . ... : ... .. . ... ... : ... .. . ...
ROW 1D : ... .. . ... : ... .. . ... : ... .. . ... : ... .. . ... : ... .. . ... F7C : ... .. . ... : ... .. . ... ... : ... .. . ...
ROW 1E : ... .. . ... : ... .. . ... : ... .. . ... : ... .. . ... : ... .. . ... F96 : ... .. . ... : ... .. . ... ... : ... .. . ...
ROW 1F : ... .. . ... : ... .. . ... : ... .. . ... : ... .. . ... : ... .. . ... F7C : ... .. . ... : ... .. . ... ... : ... .. . ...
ROW 20 : F-3 14 . ... : D-3 14 . ... : C-4 0D . ... : 3-# 0A . ... : C-3 09 . ... F96 : C-2 0E . ... : ... .. . ... ... : ... .. . ...
ROW 21 : ... .. . ... : ... .. . ... : ... .. . ... : ... .. . ... : ... .. . ... F7C : ... .. . ... : ... .. . ... ... : ... .. . ...
ROW 22 : ... .. . ... : ... .. . ... : ... .. . ... : ... .. . ... : ... .. . ... F96 : ... .. . ... : ... .. . ... ... : ... .. . ...
ROW 23 : ... .. . ... : ... .. . ... : ... .. . ... : ... .. . ... : ... .. . ... F7C : ... .. . ... : ... .. . ... ... : ... .. . ...
ROW 24 : D-2 14 . ... : A-1 14 . ... : D-3 0D . ... : ... .. . ... : ... .. . ... F96 : D-1 0E . ... : ... .. . ... ... : ... .. . ...
ROW 25 : ... .. . ... : ... .. . ... : ... .. . ... : ... .. . ... : ... .. . ... F7C : ... .. . ... : ... .. . ... ... : ... .. . ...
ROW 26 : ... .. . ... : ... .. . ... : ... .. . ... : 3-# 0A . ... : C-3 09 . ... F96 : ... .. . ... : ... .. . ... ... : ... .. . ...
ROW 27 : ... .. . ... : ... .. . ... : ... .. . ... : ... .. . ... : ... .. . ... F7C : ... .. . ... : ... .. . ... ... : ... .. . ...
ROW 28 : D-2 14 . ... : A-1 14 . ... : D-3 0D . ... : 8-# 0A . ... : C#3 09 . ... F96 : D-1 0E . ... : ... .. . ... ... : ... .. . ...
ROW 29 : ... .. . ... : ... .. . ... : ... .. . ... : ... .. . ... : ... .. . ... F7C : ... .. . ... : ... .. . ... ... : ... .. . ...
ROW 2A : ... .. . ... : ... .. . ... : ... .. . ... : ... .. . ... : ... .. . ... F96 : ... .. . ... : ... .. . ... ... : ... .. . ...
ROW 2B : ... .. . ... : ... .. . ... : ... .. . ... : ... .. . ... : ... .. . ... F7C : ... .. . ... : ... .. . ... ... : ... .. . ...
ROW 2C : F-3 14 . ... : D-3 14 . ... : A#3 0D . ... : ... .. . ... : ... .. . ... F96 : A#1 0E . ... : ... .. . ... ... : ... .. . R1C
ROW 2D : ... .. . ... : ... .. . ... : ... .. . ... : ... .. . ... : ... .. . ... F7C : ... .. . ... : ... .. . ... ... : ... .. . ...
ROW 2E : ... .. . ... : ... .. . ... : ... .. . ... : ... .. . ... : ... .. . ... F96 : ... .. . ... : ... .. . ... ... : ... .. . 422
ROW 2F : ... .. . ... : ... .. . ... : ... .. . ... : A-# 0B . G02 : D#3 09 . G02 F7C : ... .. . ... : ... .. . ... ... : ... .. . ...
ROW 30 : D-2 14 . ... : A-1 14 . ... : D-3 0D . ... : A-# 0B . G01 : D#3 09 . G01 F96 : D-1 0E . ... : ... .. . R1C ... : ... .. . ...
ROW 31 : ... .. . ... : ... .. . ... : ... .. . ... : ... .. . ... : ... .. . ... F7C : ... .. . ... : ... .. . ... ... : ... .. . ...
ROW 32 : ... .. . ... : ... .. . ... : ... .. . ... : ... .. . ... : ... .. . ... F96 : ... .. . ... : ... .. . 422 ... : ... .. . ...
ROW 33 : ... .. . ... : ... .. . ... : ... .. . ... : ... .. . ... : ... .. . ... F7C : ... .. . ... : ... .. . ... ... : ... .. . ...
ROW 34 : D-2 14 . ... : A-1 14 . ... : G-3 0D . ... : ... .. . ... : ... .. . ... F96 : G-1 0E . ... : ... .. . ... ... : ... .. . ...
ROW 35 : ... .. . ... : ... .. . ... : ... .. . ... : ... .. . ... : ... .. . ... F7C : ... .. . ... : ... .. . ... ... : ... .. . ...
ROW 36 : ... .. . ... : ... .. . ... : ... .. . ... : ... .. . ... : ... .. . ... F96 : ... .. . ... : ... .. . ... ... : ... .. . ...
ROW 37 : ... .. . ... : ... .. . ... : ... .. . ... : 7-# 0B . G02 : F#3 09 . G02 F7C : ... .. . ... : ... .. . ... ... : ... .. . ...
ROW 38 : F-3 14 . ... : D-3 14 . ... : F-3 0D . ... : 7-# 0B . G01 : F#3 09 . G01 F96 : F-1 0E . ... : ... .. . ... ... : ... .. . ...
ROW 39 : ... .. . ... : ... .. . ... : ... .. . ... : ... .. . ... : ... .. . ... F7C : ... .. . ... : ... .. . ... ... : ... .. . ...
ROW 3A : ... .. . ... : ... .. . ... : ... .. . ... : ... .. . ... : ... .. . ... F96 : ... .. . ... : ... .. . ... ... : ... .. . ...
ROW 3B : ... .. . ... : ... .. . ... : ... .. . ... : ... .. . ... : ... .. . ... F7C : ... .. . ... : ... .. . ... ... : ... .. . ...
ROW 3C : D-2 14 . ... : A-1 14 . ... : E-3 0D . ... : ... .. . ... : ... .. . ... F96 : E-1 0E . ... : ... .. . ... ... : ... .. . ...
ROW 3D : ... .. . ... : ... .. . ... : ... .. . ... : ... .. . ... : ... .. . ... F7C : ... .. . ... : ... .. . ... ... : ... .. . ...
ROW 3E : ... .. . ... : ... .. . ... : ... .. . ... : ... .. . ... : ... .. . ... F96 : ... .. . ... : ... .. . ... ... : ... .. . ...
ROW 3F : ... .. . ... : ... .. . ... : ... .. . ... : ... .. . ... : ... .. . ... F7C : ... .. . ... : ... .. . ... ... : ... .. . ...

PATTERN 0D
ROW 00 : D-2 14 . ... : A-1 14 . ... : D-3 0D . ... : 3-# 0A . ... : C-3 09 . ... F96 : D-1 0E . ... : ... .. . ... ... : D-4 0E . 400
ROW 01 : ... .. . ... : ... .. . ... : ... .. . ... : ... .. . ... : ... .. . ... F7C : ... .. . ... : ... .. . ... ... : ... .. . ...
ROW 02 : ... .. . ... : ... .. . ... : ... .. . ... : ... .. . ... : ... .. . ... F96 : ... .. . ... : ... .. . ... ... : E-4 0E . ...
ROW 03 : ... .. . ... : ... .. . ... : ... .. . ... : ... .. . ... : ... .. . ... F7C : ... .. . ... : ... .. . ... ... : ... .. . ...
ROW 04 : D-2 14 . ... : A-1 14 . ... : D-3 0D . ... : ... .. . ... : ... .. . ... F96 : D-1 0E . ... : D-4 0E . 400 ... : F-4 0E . ...
ROW 05 : ... .. . ... : ... .. . ... : ... .. . ... : ... .. . ... : ... .. . ... F7C : ... .. . ... : ... .. . ... ... : ... .. . ...
ROW 06 : ... .. . ... : ... .. . ... : ... .. . ... : 3-# 0A . ... : C-3 09 . ... F96 : ... .. . ... : E-4 0E . ... ... : G-4 0E . ...
ROW 07 : ... .. . ... : ... .. . ... : ... .. . ... : ... .. . ... : ... .. . ... F7C : ... .. . ... : ... .. . ... ... : ... .. . ...
ROW 08 : F-3 14 . ... : D-3 14 . ... : A-3 0D . ... : 8-# 0A . ... : C#3 09 . ... F96 : A-1 0E . ... : F-4 0E . ... ... : A-4 0E . ...
ROW 09 : ... .. . ... : ... .. . ... : ... .. . ... : ... .. . ... : ... .. . ... F7C : ... .. . ... : ... .. . ... ... : ... .. . ...
ROW 0A : ... .. . ... : ... .. . ... : ... .. . ... : ... .. . ... : ... .. . ... F96 : ... .. . ... : G-4 0E . ... ... : ... .. . ...
ROW 0B : ... .. . ... : ... .. . ... : ... .. . ... : ... .. . ... : ... .. . ... F7C : ... .. . ... : ... .. . ... ... : ... .. . ...
ROW 0C : D-2 14 . ... : A-1 14 . ... : D-3 0D . ... : ... .. . ... : ... .. . ... F96 : D-1 0E . ... : A-4 0E . ... ... : D-4 0E . ...
ROW 0D : ... .. . ... : ... .. . ... : ... .. . ... : ... .. . ... : ... .. . ... F7C : ... .. . ... : ... .. . ... ... : ... .. . ...
ROW 0E : ... .. . ... : ... .. . ... : ... .. . ... : ... .. . ... : ... .. . ... F96 : ... .. . ... : ... .. . ... ... : E-4 0E . ...
ROW 0F : ... .. . ... : ... .. . ... : ... .. . ... : ... .. . ... : ... .. . ... F7C : ... .. . ... : ... .. . ... ... : ... .. . ...
ROW 10 : D-2 14 . ... : A-1 14 . ... : D-3 0D . ... : 3-# 0A . ... : C-3 09 . ... F96 : D-1 0E . ... : D-4 0E . ... ... : F-4 0E . ...
ROW 11 : ... .. . ... : ... .. . ... : ... .. . ... : ... .. . ... : ... .. . ... F7C : ... .. . ... : ... .. . ... ... : ... .. . ...
ROW 12 : ... .. . ... : ... .. . ... : ... .. . ... : ... .. . ... : ... .. . ... F96 : ... .. . ... : E-4 0E . ... ... : G-4 0E . ...
ROW 13 : ... .. . ... : ... .. . ... : ... .. . ... : ... .. . ... : ... .. . ... F7C : ... .. . ... : ... .. . ... ... : ... .. . ...
ROW 14 : F-3 14 . ... : D-3 14 . ... : A#3 0D . ... : 3-# 0A . ... : C-3 09 . ... F96 : A#1 0E . ... : F-4 0E . ... ... : A-4 0E . ...
ROW 15 : ... .. . ... : ... .. . ... : ... .. . ... : ... .. . ... : ... .. . ... F7C : ... .. . ... : ... .. . ... ... : ... .. . ...
ROW 16 : ... .. . ... : ... .. . ... : ... .. . ... : 3-# 0A . ... : C-3 09 . ... F96 : ... .. . ... : G-4 0E . ... ... : ... .. . ...
ROW 17 : ... .. . ... : ... .. . ... : ... .. . ... : ... .. . ... : ... .. . ... F7C : ... .. . ... : ... .. . ... ... : ... .. . ...
ROW 18 : D-2 14 . ... : A-1 14 . ... : D-3 0D . ... : 8-# 0A . ... : C#3 09 . ... F96 : D-1 0E . ... : A-4 0E . ... ... : D-4 0E . ...
ROW 19 : ... .. . ... : ... .. . ... : ... .. . ... : ... .. . ... : ... .. . ... F7C : ... .. . ... : ... .. . ... ... : ... .. . ...
ROW 1A : ... .. . ... : ... .. . ... : ... .. . ... : ... .. . ... : ... .. . ... F96 : ... .. . ... : ... .. . ... ... : E-4 0E . ...
ROW 1B : ... .. . ... : ... .. . ... : ... .. . ... : ... .. . ... : ... .. . ... F7C : ... .. . ... : ... .. . ... ... : ... .. . ...
ROW 1C : D-2 14 . ... : A-1 14 . ... : D-3 0D . ... : ... .. . ... : ... .. . ... F96 : D-1 0E . ... : D-4 0E . ... ... : F-4 0E . ...
ROW 1D : ... .. . ... : ... .. . ... : ... .. . ... : ... .. . ... : ... .. . ... F7C : ... .. . ... : ... .. . ... ... : ... .. . ...
ROW 1E : ... .. . ... : ... .. . ... : ... .. . ... : ... .. . ... : ... .. . ... F96 : ... .. . ... : E-4 0E . ... ... : G-4 0E . ...
ROW 1F : ... .. . ... : ... .. . ... : ... .. . ... : ... .. . ... : ... .. . ... F7C : ... .. . ... : ... .. . ... ... : ... .. . ...
ROW 20 : F-3 14 . ... : D-3 14 . ... : C-4 0D . ... : 3-# 0A . ... : C-3 09 . ... F96 : C-2 0E . ... : F-4 0E . ... ... : A-4 0E . ...
ROW 21 : ... .. . ... : ... .. . ... : ... .. . ... : ... .. . ... : ... .. . ... F7C : ... .. . ... : ... .. . ... ... : ... .. . ...
ROW 22 : ... .. . ... : ... .. . ... : ... .. . ... : ... .. . ... : ... .. . ... F96 : ... .. . ... : G-4 0E . ... ... : ... .. . ...
ROW 23 : ... .. . ... : ... .. . ... : ... .. . ... : ... .. . ... : ... .. . ... F7C : ... .. . ... : ... .. . ... ... : ... .. . ...
ROW 24 : D-2 14 . ... : A-1 14 . ... : D-3 0D . ... : ... .. . ... : ... .. . ... F96 : D-1 0E . ... : A-4 0E . ... ... : D-4 0E . ...
ROW 25 : ... .. . ... : ... .. . ... : ... .. . ... : ... .. . ... : ... .. . ... F7C : ... .. . ... : ... .. . ... ... : ... .. . ...
ROW 26 : ... .. . ... : ... .. . ... : ... .. . ... : 3-# 0A . ... : C-3 09 . ... F96 : ... .. . ... : ... .. . ... ... : E-4 0E . ...
ROW 27 : ... .. . ... : ... .. . ... : ... .. . ... : ... .. . ... : ... .. . ... F7C : ... .. . ... : ... .. . ... ... : ... .. . ...
ROW 28 : D-2 14 . ... : A-1 14 . ... : D-3 0D . ... : 8-# 0A . ... : C#3 09 . ... F96 : D-1 0E . ... : D-4 0E . ... ... : F-4 0E . ...
ROW 29 : ... .. . ... : ... .. . ... : ... .. . ... : ... .. . ... : ... .. . ... F7C : ... .. . ... : ... .. . ... ... : ... .. . ...
ROW 2A : ... .. . ... : ... .. . ... : ... .. . ... : ... .. . ... : ... .. . ... F96 : ... .. . ... : E-4 0E . ... ... : G-4 0E . ...
ROW 2B : ... .. . ... : ... .. . ... : ... .. . ... : ... .. . ... : ... .. . ... F7C : ... .. . ... : ... .. . ... ... : ... .. . ...
ROW 2C : F-3 14 . ... : D-3 14 . ... : A#3 0D . ... : ... .. . ... : ... .. . ... F96 : A#1 0E . ... : F-4 0E . ... ... : A-4 0E . ...
ROW 2D : ... .. . ... : ... .. . ... : ... .. . ... : ... .. . ... : ... .. . ... F7C : ... .. . ... : ... .. . ... ... : ... .. . ...
ROW 2E : ... .. . ... : ... .. . ... : ... .. . ... : ... .. . ... : ... .. . ... F96 : ... .. . ... : G-4 0E . ... ... : ... .. . ...
ROW 2F : ... .. . ... : ... .. . ... : ... .. . ... : ... .. . ... : ... .. . ... F7C : ... .. . ... : ... .. . ... ... : ... .. . ...
ROW 30 : D-2 14 . ... : A-1 14 . ... : D-3 0D . ... : 3-# 0A . ... : C-3 09 . ... F96 : D-1 0E . ... : A-4 0E . ... ... : D-4 0E . ...
ROW 31 : ... .. . ... : ... .. . ... : ... .. . ... : ... .. . ... : ... .. . ... F7C : ... .. . ... : ... .. . ... ... : ... .. . ...
ROW 32 : ... .. . ... : ... .. . ... : ... .. . ... : ... .. . ... : ... .. . ... F96 : ... .. . ... : ... .. . ... ... : E-4 0E . ...
ROW 33 : ... .. . ... : ... .. . ... : ... .. . ... : ... .. . ... : ... .. . ... F7C : ... .. . ... : ... .. . ... ... : ... .. . ...
ROW 34 : D-2 14 . ... : A-1 14 . ... : G-3 0D . ... : 3-# 0A . ... : C-3 09 . ... F96 : G-1 0E . ... : D-4 0E . ... ... : F-4 0E . ...
ROW 35 : ... .. . ... : ... .. . ... : ... .. . ... : ... .. . ... : ... .. . ... F7C : ... .. . ... : ... .. . ... ... : ... .. . ...
ROW 36 : ... .. . ... : ... .. . ... : ... .. . ... : 3-# 0A . ... : C-3 09 . ... F96 : ... .. . ... : E-4 0E . ... ... : G-4 0E . ...
ROW 37 : ... .. . ... : ... .. . ... : ... .. . ... : ... .. . ... : ... .. . ... F7C : ... .. . ... : ... .. . ... ... : ... .. . ...
ROW 38 : F-3 14 . ... : D-3 14 . ... : F-3 0D . ... : 8-# 0A . ... : C#3 09 . ... F96 : F-1 0E . ... : F-4 0E . ... ... : A-4 0E . ...
ROW 39 : ... .. . ... : ... .. . ... : ... .. . ... : ... .. . ... : ... .. . ... F7C : ... .. . ... : ... .. . ... ... : ... .. . ...
ROW 3A : ... .. . ... : ... .. . ... : ... .. . ... : ... .. . ... : ... .. . ... F96 : ... .. . ... : G-4 0E . ... ... : ... .. . ...
ROW 3B : ... .. . ... : ... .. . ... : ... .. . ... : ... .. . ... : ... .. . ... F7C : ... .. . ... : ... .. . ... ... : ... .. . ...
ROW 3C : D-2 14 . ... : A-1 14 . ... : E-3 0D . ... : ... .. . ... : ... .. . ... F96 : E-1 0E . ... : A-4 0E . ... ... : D-4 0E . ...
ROW 3D : ... .. . ... : ... .. . ... : ... .. . ... : ... .. . ... : ... .. . ... F7C : ... .. . ... : ... .. . ... ... : ... .. . ...
ROW 3E : ... .. . ... : ... .. . ... : ... .. . ... : ... .. . ... : ... .. . ... F96 : ... .. . ... : ... .. . ... ... : E-4 0E . ...
ROW 3F : ... .. . ... : ... .. . ... : ... .. . ... : ... .. . ... : ... .. . ... F7C : ... .. . ... : ... .. . ... ... : ... .. . ...

PATTERN 0E
ROW 00 : D-2 14 . ... : A-1 14 . ... : D-3 0D . ... : 3-# 0A . ... : C-3 09 . ... F96 : D-1 0E . ... : D-4 0E . ... ... : F-4 0E . ...
ROW 01 : ... .. . ... : ... .. . ... : ... .. . ... : ... .. . ... : ... .. . ... F7C : ... .. . ... : ... .. . ... ... : ... .. . ...
ROW 02 : ... .. . ... : ... .. . ... : ... .. . ... : ... .. . ... : ... .. . ... F96 : ... .. . ... : E-4 0E . ... ... : G-4 0E . ...
ROW 03 : ... .. . ... : ... .. . ... : ... .. . ... : ... .. . ... : ... .. . ... F7C : ... .. . ... : ... .. . ... ... : ... .. . ...
ROW 04 : D-2 14 . ... : A-1 14 . ... : D-3 0D . ... : ... .. . ... : ... .. . ... F96 : D-1 0E . ... : F-4 0E . ... ... : A-4 0E . ...
ROW 05 : ... .. . ... : ... .. . ... : ... .. . ... : ... .. . ... : ... .. . ... F7C : ... .. . ... : ... .. . ... ... : ... .. . ...
ROW 06 : ... .. . ... : ... .. . ... : ... .. . ... : 3-# 0A . ... : C-3 09 . ... F96 : ... .. . ... : G-4 0E . ... ... : A#4 0E . ...
ROW 07 : ... .. . ... : ... .. . ... : ... .. . ... : ... .. . ... : ... .. . ... F7C : ... .. . ... : ... .. . ... ... : ... .. . ...
ROW 08 : E-3 14 . ... : C-3 14 . ... : A-3 0D . ... : 8-# 0A . ... : C#3 09 . ... F96 : A-1 0E . ... : A-4 0E . ... ... : C-5 0E . ...
ROW 09 : ... .. . ... : ... .. . ... : ... .. . ... : ... .. . ... : ... .. . ... F7C : ... .. . ... : ... .. . ... ... : ... .. . ...
ROW 0A : ... .. . ... : ... .. . ... : ... .. . ... : ... .. . ... : ... .. . ... F96 : ... .. . ... : A#4 0E . ... ... : D-5 0E . ...
ROW 0B : ... .. . ... : ... .. . ... : ... .. . ... : ... .. . ... : ... .. . ... F7C : ... .. . ... : ... .. . ... ... : ... .. . ...
ROW 0C : D-2 14 . ... : A-1 14 . ... : D-3 0D . ... : ... .. . ... : ... .. . ... F96 : D-1 0E . ... : C-5 0E . ... ... : E-5 0E . ...
ROW 0D : ... .. . ... : ... .. . ... : ... .. . ... : ... .. . ... : ... .. . ... F7C : ... .. . ... : ... .. . ... ... : ... .. . ...
ROW 0E : ... .. . ... : ... .. . ... : ... .. . ... : ... .. . ... : ... .. . ... F96 : ... .. . ... : D-5 0E . ... ... : F-5 0E . ...
ROW 0F : ... .. . ... : ... .. . ... : ... .. . ... : ... .. . ... : ... .. . ... F7C : ... .. . ... : ... .. . ... ... : ... .. . ...
ROW 10 : D-2 14 . ... : A-1 14 . ... : D-3 0D . ... : 3-# 0A . ... : C-3 09 . ... F96 : D-1 0E . ... : E-5 0E . ... ... : G-5 0E . ...
ROW 11 : ... .. . ... : ... .. . ... : ... .. . ... : ... .. . ... : ... .. . ... F7C : ... .. . ... : ... .. . ... ... : ... .. . ...
ROW 12 : ... .. . ... : ... .. . ... : ... .. . ... : ... .. . ... : ... .. . ... F96 : ... .. . ... : F-5 0E . ... ... : A-5 0E . ...
ROW 13 : ... .. . ... : ... .. . ... : ... .. . ... : ... .. . ... : ... .. . ... F7C : ... .. . ... : ... .. . ... ... : ... .. . ...
ROW 14 : E-3 14 . ... : C-3 14 . ... : A#3 0D . ... : 3-# 0A . ... : C-3 09 . ... F96 : A#1 0E . ... : G-5 0E . ... ... : A#5 0E . ...
ROW 15 : ... .. . ... : ... .. . ... : ... .. . ... : ... .. . ... : ... .. . ... F7C : ... .. . ... : ... .. . ... ... : ... .. . ...
ROW 16 : ... .. . ... : ... .. . ... : ... .. . ... : 3-# 0A . ... : C-3 09 . ... F96 : ... .. . ... : A-5 0E . ... ... : A-5 0E . ...
ROW 17 : ... .. . ... : ... .. . ... : ... .. . ... : ... .. . ... : ... .. . ... F7C : ... .. . ... : ... .. . ... ... : ... .. . ...
ROW 18 : D-2 14 . ... : A-1 14 . ... : D-3 0D . ... : 8-# 0A . ... : C#3 09 . ... F96 : D-1 0E . ... : A#5 0E . ... ... : G-5 0E . ...
ROW 19 : ... .. . ... : ... .. . ... : ... .. . ... : ... .. . ... : ... .. . ... F7C : ... .. . ... : ... .. . ... ... : ... .. . ...
ROW 1A : ... .. . ... : ... .. . ... : ... .. . ... : ... .. . ... : ... .. . ... F96 : ... .. . ... : A-5 0E . ... ... : F-5 0E . ...
ROW 1B : ... .. . ... : ... .. . ... : ... .. . ... : ... .. . ... : ... .. . ... F7C : ... .. . ... : ... .. . ... ... : ... .. . ...
ROW 1C : D-2 14 . ... : A-1 14 . ... : D-3 0D . ... : ... .. . ... : ... .. . ... F96 : D-1 0E . ... : G-5 0E . ... ... : E-5 0E . ...
ROW 1D : ... .. . ... : ... .. . ... : ... .. . ... : ... .. . ... : ... .. . ... F7C : ... .. . ... : ... .. . ... ... : ... .. . ...
ROW 1E : ... .. . ... : ... .. . ... : ... .. . ... : ... .. . ... : ... .. . ... F96 : ... .. . ... : F-5 0E . ... ... : F-5 0E . ...
ROW 1F : ... .. . ... : ... .. . ... : ... .. . ... : ... .. . ... : ... .. . ... F7C : ... .. . ... : ... .. . ... ... : ... .. . ...
ROW 20 : E-3 14 . ... : C-3 14 . ... : C-4 0D . ... : 3-# 0A . ... : C-3 09 . ... F96 : C-2 0E . ... : E-5 0E . ... ... : G-5 0E . ...
ROW 21 : ... .. . ... : ... .. . ... : ... .. . ... : ... .. . ... : ... .. . ... F7C : ... .. . ... : ... .. . ... ... : ... .. . ...
ROW 22 : ... .. . ... : ... .. . ... : ... .. . ... : ... .. . ... : ... .. . ... F96 : ... .. . ... : F-5 0E . ... ... : E-5 0E . ...
ROW 23 : ... .. . ... : ... .. . ... : ... .. . ... : ... .. . ... : ... .. . ... F7C : ... .. . ... : ... .. . ... ... : ... .. . ...
ROW 24 : D-2 14 . ... : A-1 14 . ... : D-3 0D . ... : ... .. . ... : ... .. . ... F96 : D-1 0E . ... : G-5 0E . ... ... : D-5 0E . ...
ROW 25 : ... .. . ... : ... .. . ... : ... .. . ... : ... .. . ... : ... .. . ... F7C : ... .. . ... : ... .. . ... ... : ... .. . ...
ROW 26 : ... .. . ... : ... .. . ... : ... .. . ... : 3-# 0A . ... : C-3 09 . ... F96 : ... .. . ... : E-5 0E . ... ... : C-5 0E . ...
ROW 27 : ... .. . ... : ... .. . ... : ... .. . ... : ... .. . ... : ... .. . ... F7C : ... .. . ... : ... .. . ... ... : ... .. . ...
ROW 28 : D-2 14 . ... : A-1 14 . ... : D-3 0D . ... : 8-# 0A . ... : C#3 09 . ... F96 : D-1 0E . ... : D-5 0E . ... ... : D-5 0E . ...
ROW 29 : ... .. . ... : ... .. . ... : ... .. . ... : ... .. . ... : ... .. . ... F7C : ... .. . ... : ... .. . ... ... : ... .. . ...
ROW 2A : ... .. . ... : ... .. . ... : ... .. . ... : ... .. . ... : ... .. . ... F96 : ... .. . ... : C-5 0E . ... ... : E-5 0E . ...
ROW 2B : ... .. . ... : ... .. . ... : ... .. . ... : ... .. . ... : ... .. . ... F7C : ... .. . ... : ... .. . ... ... : ... .. . ...
ROW 2C : E-3 14 . ... : C-3 14 . ... : A#3 0D . ... : ... .. . ... : ... .. . ... F96 : A#1 0E . ... : D-5 0E . ... ... : F-5 0E . ...
ROW 2D : ... .. . ... : ... .. . ... : ... .. . ... : ... .. . ... : ... .. . ... F7C : ... .. . ... : ... .. . ... ... : ... .. . ...
ROW 2E : ... .. . ... : ... .. . ... : ... .. . ... : ... .. . ... : ... .. . ... F96 : ... .. . ... : E-5 0E . ... ... : E-5 0E . ...
ROW 2F : ... .. . ... : ... .. . ... : ... .. . ... : ... .. . ... : ... .. . ... F7C : ... .. . ... : ... .. . ... ... : ... .. . ...
ROW 30 : D-2 14 . ... : A-1 14 . ... : D-3 0D . ... : 3-# 0A . ... : C-3 09 . ... F96 : D-1 0E . ... : F-5 0E . ... ... : D-5 0E . ...
ROW 31 : ... .. . ... : ... .. . ... : ... .. . ... : ... .. . ... : ... .. . ... F7C : ... .. . ... : ... .. . ... ... : ... .. . ...
ROW 32 : ... .. . ... : ... .. . ... : ... .. . ... : ... .. . ... : ... .. . ... F96 : ... .. . ... : E-5 0E . ... ... : C-5 0E . ...
ROW 33 : ... .. . ... : ... .. . ... : ... .. . ... : ... .. . ... : ... .. . ... F7C : ... .. . ... : ... .. . ... ... : ... .. . ...
ROW 34 : D-2 14 . ... : A-1 14 . ... : G-3 0D . ... : 3-# 0A . ... : C-3 09 . ... F96 : G-1 0E . ... : D-5 0E . ... ... : A-4 0E . ...
ROW 35 : ... .. . ... : ... .. . ... : ... .. . ... : ... .. . ... : ... .. . ... F7C : ... .. . ... : ... .. . ... ... : ... .. . ...
ROW 36 : ... .. . ... : ... .. . ... : ... .. . ... : 3-# 0A . ... : C-3 09 . ... F96 : ... .. . ... : C-5 0E . ... ... : C-5 0E . ...
ROW 37 : ... .. . ... : ... .. . ... : ... .. . ... : ... .. . ... : ... .. . ... F7C : ... .. . ... : ... .. . ... ... : ... .. . ...
ROW 38 : E-3 14 . ... : C-3 14 . ... : F-3 0D . ... : 8-# 0A . ... : C#3 09 . ... F96 : F-1 0E . ... : A-4 0E . ... ... : A#4 0E . ...
ROW 39 : ... .. . ... : ... .. . ... : ... .. . ... : ... .. . ... : ... .. . ... F7C : ... .. . ... : ... .. . ... ... : ... .. . ...
ROW 3A : ... .. . ... : ... .. . ... : ... .. . ... : ... .. . ... : ... .. . ... F96 : ... .. . ... : C-5 0E . ... ... : A-4 0E . ...
ROW 3B : ... .. . ... : ... .. . ... : ... .. . ... : ... .. . ... : ... .. . ... F7C : ... .. . ... : ... .. . ... ... : ... .. . ...
ROW 3C : D-2 14 . ... : A-1 14 . ... : E-3 0D . ... : ... .. . ... : ... .. . ... F96 : E-1 0E . ... : A#4 0E . ... ... : ... .. . ...
ROW 3D : ... .. . ... : ... .. . ... : ... .. . ... : ... .. . ... : ... .. . ... F7C : ... .. . ... : ... .. . ... ... : ... .. . ...
ROW 3E : ... .. . ... : ... .. . ... : ... .. . ... : ... .. . ... : ... .. . ... F96 : ... .. . ... : A-4 0E . ... ... : ... .. . ...
ROW 3F : ... .. . ... : ... .. . ... : ... .. . ... : ... .. . ... : ... .. . ... F7C : ... .. . ... : ... .. . ... ... : ... .. . ...

PATTERN 0F
ROW 00 : D-2 14 . ... : A-1 14 . ... : D-3 0D . ... : 3-# 0A . ... : C-3 09 . ... F96 : D-1 0E . ... : ... .. . ... ... : G-4 0E . ...
ROW 01 : ... .. . ... : ... .. . ... : ... .. . ... : ... .. . ... : ... .. . ... F7C : ... .. . ... : ... .. . ... ... : ... .. . ...
ROW 02 : ... .. . ... : ... .. . ... : ... .. . ... : ... .. . ... : ... .. . ... F96 : ... .. . ... : ... .. . ... ... : F-4 0E . ...
ROW 03 : ... .. . ... : ... .. . ... : ... .. . ... : ... .. . ... : ... .. . ... F7C : ... .. . ... : ... .. . ... ... : ... .. . ...
ROW 04 : D-2 14 . ... : A-1 14 . ... : D-3 0D . ... : ... .. . ... : ... .. . ... F96 : D-1 0E . ... : G-4 0E . ... ... : E-4 0E . ...
ROW 05 : ... .. . ... : ... .. . ... : ... .. . ... : ... .. . ... : ... .. . ... F7C : ... .. . ... : ... .. . ... ... : ... .. . ...
ROW 06 : ... .. . ... : ... .. . ... : ... .. . ... : 3-# 0A . ... : C-3 09 . ... F96 : ... .. . ... : F-4 0E . ... ... : D-4 0E . ...
ROW 07 : ... .. . ... : ... .. . ... : ... .. . ... : ... .. . ... : ... .. . ... F7C : ... .. . ... : ... .. . ... ... : ... .. . ...
ROW 08 : G-3 14 . ... : E-3 14 . ... : A-3 0D . ... : 8-# 0A . ... : C#3 09 . ... F96 : A-1 0E . ... : E-4 0E . ... ... : C-4 0E . ...
ROW 09 : ... .. . ... : ... .. . ... : ... .. . ... : ... .. . ... : ... .. . ... F7C : ... .. . ... : ... .. . ... ... : ... .. . ...
ROW 0A : ... .. . ... : ... .. . ... : ... .. . ... : ... .. . ... : ... .. . ... F96 : ... .. . ... : D-4 0E . ... ... : A-3 0E . ...
ROW 0B : ... .. . ... : ... .. . ... : ... .. . ... : ... .. . ... : ... .. . ... F7C : ... .. . ... : ... .. . ... ... : ... .. . ...
ROW 0C : D-2 14 . ... : A-1 14 . ... : D-3 0D . ... : ... .. . ... : ... .. . ... F96 : D-1 0E . ... : C-4 0E . ... ... : G-4 0E . ...
ROW 0D : ... .. . ... : ... .. . ... : ... .. . ... : ... .. . ... : ... .. . ... F7C : ... .. . ... : ... .. . ... ... : ... .. . ...
ROW 0E : ... .. . ... : ... .. . ... : ... .. . ... : ... .. . ... : ... .. . ... F96 : ... .. . ... : A-3 0E . ... ... : F-4 0E . ...
ROW 0F : ... .. . ... : ... .. . ... : ... .. . ... : ... .. . ... : ... .. . ... F7C : ... .. . ... : ... .. . ... ... : ... .. . ...
ROW 10 : D-2 14 . ... : A-1 14 . ... : D-3 0D . ... : 3-# 0A . ... : C-3 09 . ... F96 : D-1 0E . ... : G-4 0E . ... ... : E-4 0E . ...
ROW 11 : ... .. . ... : ... .. . ... : ... .. . ... : ... .. . ... : ... .. . ... F7C : ... .. . ... : ... .. . ... ... : ... .. . ...
ROW 12 : ... .. . ... : ... .. . ... : ... .. . ... : ... .. . ... : ... .. . ... F96 : ... .. . ... : F-4 0E . ... ... : D-4 0E . ...
ROW 13 : ... .. . ... : ... .. . ... : ... .. . ... : ... .. . ... : ... .. . ... F7C : ... .. . ... : ... .. . ... ... : ... .. . ...
ROW 14 : G-3 14 . ... : E-3 14 . ... : A#3 0D . ... : 3-# 0A . ... : C-3 09 . ... F96 : A#1 0E . ... : E-4 0E . ... ... : C-4 0E . ...
ROW 15 : ... .. . ... : ... .. . ... : ... .. . ... : ... .. . ... : ... .. . ... F7C : ... .. . ... : ... .. . ... ... : ... .. . ...
ROW 16 : ... .. . ... : ... .. . ... : ... .. . ... : 3-# 0A . ... : C-3 09 . ... F96 : ... .. . ... : D-4 0E . ... ... : A-3 0E . ...
ROW 17 : ... .. . ... : ... .. . ... : ... .. . ... : ... .. . ... : ... .. . ... F7C : ... .. . ... : ... .. . ... ... : ... .. . ...
ROW 18 : D-2 14 . ... : A-1 14 . ... : D-3 0D . ... : 8-# 0A . ... : C#3 09 . ... F96 : D-1 0E . ... : C-4 0E . ... ... : G-4 0E . ...
ROW 19 : ... .. . ... : ... .. . ... : ... .. . ... : ... .. . ... : ... .. . ... F7C : ... .. . ... : ... .. . ... ... : ... .. . ...
ROW 1A : ... .. . ... : ... .. . ... : ... .. . ... : ... .. . ... : ... .. . ... F96 : ... .. . ... : A-3 0E . ... ... : F-4 0E . ...
ROW 1B : ... .. . ... : ... .. . ... : ... .. . ... : ... .. . ... : ... .. . ... F7C : ... .. . ... : ... .. . ... ... : ... .. . ...
ROW 1C : D-2 14 . ... : A-1 14 . ... : D-3 0D . ... : ... .. . ... : ... .. . ... F96 : D-1 0E . ... : G-4 0E . ... ... : E-4 0E . ...
ROW 1D : ... .. . ... : ... .. . ... : ... .. . ... : ... .. . ... : ... .. . ... F7C : ... .. . ... : ... .. . ... ... : ... .. . ...
ROW 1E : ... .. . ... : ... .. . ... : ... .. . ... : ... .. . ... : ... .. . ... F96 : ... .. . ... : F-4 0E . ... ... : D-4 0E . ...
ROW 1F : ... .. . ... : ... .. . ... : ... .. . ... : ... .. . ... : ... .. . ... F7C : ... .. . ... : ... .. . ... ... : ... .. . ...
ROW 20 : G-3 14 . ... : E-3 14 . ... : C-4 0D . ... : 3-# 0A . ... : C-3 09 . ... F96 : C-2 0E . ... : E-4 0E . ... ... : E-4 0E . ...
ROW 21 : ... .. . ... : ... .. . ... : ... .. . ... : ... .. . ... : ... .. . ... F7C : ... .. . ... : ... .. . ... ... : ... .. . ...
ROW 22 : ... .. . ... : ... .. . ... : ... .. . ... : ... .. . ... : ... .. . ... F96 : ... .. . ... : D-4 0E . ... ... : F-4 0E . ...
ROW 23 : ... .. . ... : ... .. . ... : ... .. . ... : ... .. . ... : ... .. . ... F7C : ... .. . ... : ... .. . ... ... : ... .. . ...
ROW 24 : D-2 14 . ... : A-1 14 . ... : D-3 0D . ... : ... .. . ... : ... .. . ... F96 : D-1 0E . ... : E-4 0E . ... ... : G-4 0E . ...
ROW 25 : ... .. . ... : ... .. . ... : ... .. . ... : ... .. . ... : ... .. . ... F7C : ... .. . ... : ... .. . ... ... : ... .. . ...
ROW 26 : ... .. . ... : ... .. . ... : ... .. . ... : 3-# 0A . ... : C-3 09 . ... F96 : ... .. . ... : F-4 0E . ... ... : A-4 0E . ...
ROW 27 : ... .. . ... : ... .. . ... : ... .. . ... : ... .. . ... : ... .. . ... F7C : ... .. . ... : ... .. . ... ... : ... .. . ...
ROW 28 : D-2 14 . ... : A-1 14 . ... : D-3 0D . ... : 8-# 0A . ... : C#3 09 . ... F96 : D-1 0E . ... : G-4 0E . ... ... : G-4 0E . ...
ROW 29 : ... .. . ... : ... .. . ... : ... .. . ... : ... .. . ... : ... .. . ... F7C : ... .. . ... : ... .. . ... ... : ... .. . ...
ROW 2A : ... .. . ... : ... .. . ... : ... .. . ... : ... .. . ... : ... .. . ... F96 : ... .. . ... : A-4 0E . ... ... : A-4 0E . ...
ROW 2B : ... .. . ... : ... .. . ... : ... .. . ... : ... .. . ... : ... .. . ... F7C : ... .. . ... : ... .. . ... ... : ... .. . ...
ROW 2C : G-3 14 . ... : E-3 14 . ... : A#3 0D . ... : ... .. . ... : ... .. . ... F96 : A#1 0E . ... : G-4 0E . ... ... : G-4 0E . ...
ROW 2D : ... .. . ... : ... .. . ... : ... .. . ... : ... .. . ... : ... .. . ... F7C : ... .. . ... : ... .. . ... ... : ... .. . ...
ROW 2E : ... .. . ... : ... .. . ... : ... .. . ... : ... .. . ... : ... .. . ... F96 : ... .. . ... : A-4 0E . ... ... : E-4 0E . ...
ROW 2F : ... .. . ... : ... .. . ... : ... .. . ... : ... .. . ... : ... .. . ... F7C : ... .. . ... : ... .. . ... ... : ... .. . ...
ROW 30 : D-2 14 . ... : A-1 14 . ... : D-3 0D . ... : 8-# 0A . ... : C#3 09 . ... F96 : D-1 0E . ... : G-4 0E . ... ... : G-4 0E . ...
ROW 31 : ... .. . ... : ... .. . ... : ... .. . ... : ... .. . ... : ... .. . ... F7C : ... .. . ... : ... .. . ... ... : ... .. . ...
ROW 32 : ... .. . ... : ... .. . ... : ... .. . ... : 8-# 0A 7 ... : C#3 09 . ... F96 : ... .. . ... : E-4 0E . ... ... : D-4 0E . ...
ROW 33 : ... .. . ... : ... .. . ... : ... .. . ... : ... .. . ... : ... .. . ... F7C : ... .. . ... : ... .. . ... ... : ... .. . ...
ROW 34 : D-2 14 . ... : A-1 14 . ... : G-3 0D . ... : 8-# 0A . ... : C#3 09 . ... F96 : G-1 0E . ... : G-4 0E . ... ... : E-4 0E . ...
ROW 35 : ... .. . ... : ... .. . ... : ... .. . ... : ... .. . ... : ... .. . ... F7C : ... .. . ... : ... .. . ... ... : ... .. . ...
ROW 36 : ... .. . ... : ... .. . ... : ... .. . ... : 8-# 0A . ... : C#3 09 . ... F96 : ... .. . ... : D-4 0E . ... ... : C-4 0E . ...
ROW 37 : ... .. . ... : ... .. . ... : ... .. . ... : ... .. . ... : ... .. . ... F7C : ... .. . ... : ... .. . ... ... : ... .. . ...
ROW 38 : G-3 14 . ... : E-3 14 . ... : F-3 0D . ... : 8-# 0A F ... : C#3 09 . ... F96 : F-1 0E . ... : E-4 0E . ... ... : D-4 0E . ...
ROW 39 : ... .. . ... : ... .. . ... : ... .. . ... : ... .. . ... : ... .. . ... F7C : ... .. . ... : ... .. . ... ... : ... .. . ...
ROW 3A : ... .. . ... : ... .. . ... : ... .. . ... : 8-# 0A 7 ... : C#3 09 . ... F96 : ... .. . ... : C-4 0E . ... ... : E-4 0E . ...
ROW 3B : ... .. . ... : ... .. . ... : ... .. . ... : ... .. . ... : ... .. . ... F7C : ... .. . ... : ... .. . ... ... : ... .. . ...
ROW 3C : D-2 14 . ... : A-1 14 . ... : E-3 0D . ... : 8-# 0A . ... : C#3 09 . ... F96 : E-1 0E . ... : D-4 0E . ... ... : F-4 0E . ...
ROW 3D : ... .. . ... : ... .. . ... : ... .. . ... : ... .. . ... : ... .. . ... F7C : ... .. . ... : ... .. . ... ... : ... .. . ...
ROW 3E : ... .. . ... : ... .. . ... : ... .. . ... : 8-# 0A . ... : C#3 09 . ... F96 : ... .. . ... : E-4 0E . ... ... : E-4 0E . ...
ROW 3F : ... .. . ... : ... .. . ... : ... .. . ... : ... .. . ... : ... .. . ... F7C : ... .. . ... : ... .. . ... ... : ... .. . ...

PATTERN 10
ROW 00 : D-2 14 . ... : A-1 14 . ... : D-3 0D . ... : 3-# 0A F ... : C-3 09 . ... F96 : D-1 0E . ... : ... .. . ... ... : D-4 0E . ...
ROW 01 : ... .. . ... : ... .. . ... : ... .. . ... : ... .. . ... : ... .. . ... F7C : ... .. . ... : ... .. . ... ... : ... .. . ...
ROW 02 : ... .. . ... : ... .. . ... : ... .. . ... : ... .. . ... : ... .. . ... F96 : ... .. . ... : ... .. . ... ... : ... .. . ...
ROW 03 : ... .. . ... : ... .. . ... : ... .. . ... : ... .. . ... : ... .. . ... F7C : ... .. . ... : ... .. . ... ... : ... .. . ...
ROW 04 : D-2 14 . ... : A-1 14 . ... : D-3 0D . ... : ... .. . ... : ... .. . ... F96 : D-1 0E . ... : D-4 0E . ... ... : ... .. . ...
ROW 05 : ... .. . ... : ... .. . ... : ... .. . ... : ... .. . ... : ... .. . ... F7C : ... .. . ... : ... .. . ... ... : ... .. . ...
ROW 06 : ... .. . ... : ... .. . ... : ... .. . ... : 3-# 0A . ... : C-3 09 . ... F96 : ... .. . ... : ... .. . ... ... : ... .. . ...
ROW 07 : ... .. . ... : ... .. . ... : ... .. . ... : ... .. . ... : ... .. . ... F7C : ... .. . ... : ... .. . ... ... : ... .. . ...
ROW 08 : F-3 14 . ... : D-3 14 . ... : A-3 0D . ... : 8-# 0A . ... : C#3 09 . ... F96 : A-1 0E . ... : ... .. . ... ... : ... .. . ...
ROW 09 : ... .. . ... : ... .. . ... : ... .. . ... : ... .. . ... : ... .. . ... F7C : ... .. . ... : ... .. . ... ... : ... .. . ...
ROW 0A : ... .. . ... : ... .. . ... : ... .. . ... : ... .. . ... : ... .. . ... F96 : ... .. . ... : ... .. . ... ... : ... .. . ...
ROW 0B : ... .. . ... : ... .. . ... : ... .. . ... : ... .. . ... : ... .. . ... F7C : ... .. . ... : ... .. . ... ... : ... .. . ...
ROW 0C : D-2 14 . ... : A-1 14 . ... : D-3 0D . ... : ... .. . ... : ... .. . ... F96 : D-1 0E . ... : ... .. . ... ... : ... .. . ...
ROW 0D : ... .. . ... : ... .. . ... : ... .. . ... : ... .. . ... : ... .. . ... F7C : ... .. . ... : ... .. . ... ... : ... .. . ...
ROW 0E : ... .. . ... : ... .. . ... : ... .. . ... : ... .. . ... : ... .. . ... F96 : ... .. . ... : ... .. . ... ... : D-5 10 . 310
ROW 0F : ... .. . ... : ... .. . ... : ... .. . ... : ... .. . ... : ... .. . ... F7C : ... .. . ... : ... .. . ... ... : ... .. . ...
ROW 10 : F-3 14 . ... : D-3 14 . ... : D-3 0D . ... : 3-# 0A . ... : C-3 09 . ... F96 : D-1 0E . ... : ... .. . ... ... : D-6 11 . 308
ROW 11 : ... .. . ... : ... .. . ... : ... .. . ... : ... .. . ... : ... .. . ... F7C : ... .. . ... : ... .. . ... ... : ... .. . ...
ROW 12 : ... .. . ... : ... .. . ... : ... .. . ... : ... .. . ... : ... .. . ... F96 : ... .. . ... : D-5 11 F 30A V06 : ... .. . ...
ROW 13 : ... .. . ... : ... .. . ... : ... .. . ... : ... .. . ... : ... .. . ... F7C : ... .. . ... : ... .. . ... ... : ... .. . ...
ROW 14 : F-3 14 . ... : D-3 14 . ... : A#3 0D . ... : 3-# 0A . ... : C-3 09 . ... F96 : A#1 0E . ... : D-6 11 . 306 ... : D-5 10 . 312
ROW 15 : ... .. . ... : ... .. . ... : ... .. . ... : ... .. . ... : ... .. . ... F7C : ... .. . ... : ... .. . ... ... : ... .. . ...
ROW 16 : ... .. . ... : ... .. . ... : ... .. . ... : 3-# 0A . ... : C-3 09 . ... F96 : ... .. . ... : ... .. . ... ... : D-6 11 . 307
ROW 17 : ... .. . ... : ... .. . ... : ... .. . ... : ... .. . ... : ... .. . ... F7C : ... .. . ... : ... .. . ... ... : ... .. . ...
ROW 18 : D-2 14 . ... : A-1 14 . ... : D-3 0D . ... : 8-# 0A . ... : C#3 09 . ... F96 : D-1 0E . ... : D-5 11 . 30B ... : ... .. . ...
ROW 19 : ... .. . ... : ... .. . ... : ... .. . ... : ... .. . ... : ... .. . ... F7C : ... .. . ... : ... .. . ... ... : ... .. . ...
ROW 1A : ... .. . ... : ... .. . ... : ... .. . ... : ... .. . ... : ... .. . ... F96 : ... .. . ... : D-6 11 . 305 ... : D-5 10 . 314
ROW 1B : ... .. . ... : ... .. . ... : ... .. . ... : ... .. . ... : ... .. . ... F7C : ... .. . ... : ... .. . ... ... : ... .. . ...
ROW 1C : D-2 14 . ... : A-1 14 . ... : D-3 0D . ... : ... .. . ... : ... .. . ... F96 : D-1 0E . ... : ... .. . ... ... : D-6 11 . 307
ROW 1D : ... .. . ... : ... .. . ... : ... .. . ... : ... .. . ... : ... .. . ... F7C : ... .. . ... : ... .. . ... ... : ... .. . ...
ROW 1E : ... .. . ... : ... .. . ... : ... .. . ... : ... .. . ... : ... .. . ... F96 : ... .. . ... : D-5 11 . 30C ... : ... .. . ...
ROW 1F : ... .. . ... : ... .. . ... : ... .. . ... : ... .. . ... : ... .. . ... F7C : ... .. . ... : ... .. . ... ... : ... .. . ...
ROW 20 : C-4 14 . ... : G-3 14 . ... : C-4 0D . ... : 3-# 0A . ... : C-3 09 . ... F96 : C-2 0E . ... : D-6 11 . 305 ... : D-5 10 . 314
ROW 21 : ... .. . ... : ... .. . ... : ... .. . ... : ... .. . ... : ... .. . ... F7C : ... .. . ... : ... .. . ... ... : ... .. . ...
ROW 22 : ... .. . ... : ... .. . ... : ... .. . ... : ... .. . ... : ... .. . ... F96 : ... .. . ... : ... .. . ... ... : D-6 11 . 307
ROW 23 : ... .. . ... : ... .. . ... : ... .. . ... : ... .. . ... : ... .. . ... F7C : ... .. . ... : ... .. . ... ... : ... .. . ...
ROW 24 : D-2 14 . ... : A-1 14 . ... : D-3 0D . ... : ... .. . ... : ... .. . ... F96 : D-1 0E . ... : D-5 11 . 30C ... : ... .. . ...
ROW 25 : ... .. . ... : ... .. . ... : ... .. . ... : ... .. . ... : ... .. . ... F7C : ... .. . ... : ... .. . ... ... : ... .. . ...
ROW 26 : ... .. . ... : ... .. . ... : ... .. . ... : 3-# 0A . ... : C-3 09 . ... F96 : ... .. . ... : D-6 11 . 305 ... : D-5 10 . 314
ROW 27 : ... .. . ... : ... .. . ... : ... .. . ... : ... .. . ... : ... .. . ... F7C : ... .. . ... : ... .. . ... ... : ... .. . ...
ROW 28 : A-3 14 . ... : E-3 14 . ... : D-3 0D . ... : 8-# 0A . ... : C#3 09 . ... F96 : D-1 0E . ... : ... .. . ... ... : D-6 11 . 307
ROW 29 : ... .. . ... : ... .. . ... : ... .. . ... : ... .. . ... : ... .. . ... F7C : ... .. . ... : ... .. . ... ... : ... .. . ...
ROW 2A : ... .. . ... : ... .. . ... : ... .. . ... : ... .. . ... : ... .. . ... F96 : ... .. . ... : D-5 11 . 30C ... : ... .. . ...
ROW 2B : ... .. . ... : ... .. . ... : ... .. . ... : ... .. . ... : ... .. . ... F7C : ... .. . ... : ... .. . ... ... : ... .. . ...
ROW 2C : D-2 14 . ... : A-1 14 . ... : A#3 0D . ... : ... .. . ... : ... .. . ... F96 : A#1 0E . ... : D-6 11 . 305 ... : D-5 10 . 314
ROW 2D : ... .. . ... : ... .. . ... : ... .. . ... : ... .. . ... : ... .. . ... F7C : ... .. . ... : ... .. . ... ... : ... .. . ...
ROW 2E : ... .. . ... : ... .. . ... : ... .. . ... : ... .. . ... : ... .. . ... F96 : ... .. . ... : ... .. . ... ... : D-6 11 . 307
ROW 2F : ... .. . ... : ... .. . ... : ... .. . ... : ... .. . ... : ... .. . ... F7C : ... .. . ... : ... .. . ... ... : ... .. . ...
ROW 30 : A#3 14 . ... : F-3 14 . ... : D-3 0D . ... : B-# 0B . ... : D-3 09 . ... F96 : D-1 0E . ... : D-5 11 . 30C ... : ... .. . ...
ROW 31 : ... .. . ... : ... .. . ... : ... .. . ... : ... .. . ... : ... .. . ... F7C : ... .. . ... : ... .. . ... ... : ... .. . ...
ROW 32 : ... .. . ... : ... .. . ... : ... .. . ... : B-# 0B . ... : D-3 09 . ... F96 : ... .. . ... : D-6 11 . 305 ... : D-5 10 . 314
ROW 33 : ... .. . ... : ... .. . ... : ... .. . ... : ... .. . ... : ... .. . ... F7C : ... .. . ... : ... .. . ... ... : ... .. . ...
ROW 34 : D-2 14 . ... : A-1 14 . ... : G-3 0D . ... : B-# 0B . ... : D-3 09 . ... F96 : G-1 0E . ... : ... .. . ... ... : D-6 11 . 307
ROW 35 : ... .. . ... : ... .. . ... : ... .. . ... : ... .. . ... : ... .. . ... F7C : ... .. . ... : ... .. . ... ... : ... .. . ...
ROW 36 : ... .. . ... : ... .. . ... : ... .. . ... : B-# 0B . ... : D-3 09 . ... F96 : ... .. . ... : D-5 11 . 30C ... : ... .. . ...
ROW 37 : ... .. . ... : ... .. . ... : ... .. . ... : ... .. . ... : ... .. . ... F7C : ... .. . ... : ... .. . ... ... : ... .. . ...
ROW 38 : G-3 14 . ... : E-3 14 . ... : F-3 0D . ... : 9-# 0B . ... : E-3 09 . ... F96 : F-1 0E . ... : D-6 11 . 305 ... : D-5 10 . 314
ROW 39 : ... .. . ... : ... .. . ... : ... .. . ... : ... .. . ... : ... .. . ... F7C : ... .. . ... : ... .. . ... ... : ... .. . ...
ROW 3A : ... .. . ... : ... .. . ... : ... .. . ... : 9-# 0B . ... : E-3 09 . ... F96 : ... .. . ... : ... .. . ... ... : D-6 11 . 307
ROW 3B : ... .. . ... : ... .. . ... : ... .. . ... : ... .. . ... : ... .. . ... F7C : ... .. . ... : ... .. . ... ... : ... .. . ...
ROW 3C : D-2 14 . ... : A-1 14 . ... : E-3 0D . ... : 8-# 0B . ... : F-3 09 . ... F96 : E-1 0E . ... : D-5 11 . 30C ... : ... .. . ...
ROW 3D : ... .. . ... : ... .. . ... : ... .. . ... : ... .. . ... : ... .. . ... F7C : ... .. . ... : ... .. . ... ... : ... .. . ...
ROW 3E : ... .. . ... : ... .. . ... : ... .. . ... : 8-# 0B . ... : F-3 09 . ... F96 : ... .. . ... : D-6 11 . 305 ... : D-5 10 . 314
ROW 3F : ... .. . ... : ... .. . ... : ... .. . ... : ... .. . ... : ... .. . ... F7C : ... .. . ... : ... .. . ... ... : ... .. . ...

PATTERN 11
ROW 00 : D-3 14 . ... : A#2 14 . ... : D-3 0D . ... : 3-# 0A . ... : C-3 09 . ... F96 : F-4 12 F ... : ... .. . ... ... : D-1 0E D 300
ROW 01 : ... .. . ... : ... .. . ... : ... .. . ... : ... .. . ... : ... .. . ... F7C : ... .. . ... : ... .. . ... ... : ... .. . ...
ROW 02 : ... .. . ... : ... .. . ... : ... .. . ... : ... .. . ... : ... .. . ... F96 : ... .. . ... : D-5 11 . 30C ... : ... .. . ...
ROW 03 : ... .. . ... : ... .. . ... : ... .. . ... : ... .. . ... : ... .. . ... F7C : ... .. . ... : ... .. . ... ... : ... .. . ...
ROW 04 : D-3 14 . ... : A#2 14 . ... : D-3 0D . ... : ... .. . ... : ... .. . ... F96 : A-4 12 . ... : --- .. . 300 ... : D-1 0E . ...
ROW 05 : ... .. . ... : ... .. . ... : ... .. . ... : ... .. . ... : ... .. . ... F7C : ... .. . ... : ... .. . ... ... : ... .. . ...
ROW 06 : ... .. . ... : ... .. . ... : ... .. . ... : 3-# 0A . ... : C-3 09 . ... F96 : ... .. . ... : F-4 12 9 ... P80 : ... .. . ...
ROW 07 : ... .. . ... : ... .. . ... : ... .. . ... : ... .. . ... : ... .. . ... F7C : ... .. . ... : ... .. . ... ... : ... .. . ...
ROW 08 : E-3 14 . ... : A#2 14 . ... : D-3 0D . ... : 8-# 0A . ... : C#3 09 . ... F96 : G-4 12 . ... : ... .. . ... ... : D-1 0E . ...
ROW 09 : ... .. . ... : ... .. . ... : ... .. . ... : ... .. . ... : ... .. . ... F7C : ... .. . ... : ... .. . ... ... : ... .. . ...
ROW 0A : ... .. . ... : ... .. . ... : ... .. . ... : ... .. . ... : ... .. . ... F96 : ... .. . ... : A-4 12 . ... ... : ... .. . ...
ROW 0B : ... .. . ... : ... .. . ... : ... .. . ... : ... .. . ... : ... .. . ... F7C : ... .. . ... : ... .. . ... ... : ... .. . ...
ROW 0C : ... .. . ... : A#2 14 . ... : D-3 0D . ... : ... .. . ... : ... .. . ... F96 : A-4 12 . ... : ... .. . ... ... : D-1 0E . ...
ROW 0D : ... .. . ... : ... .. . ... : ... .. . ... : ... .. . ... : ... .. . ... F7C : ... .. . ... : ... .. . ... ... : ... .. . ...
ROW 0E : ... .. . ... : ... .. . ... : ... .. . ... : ... .. . ... : ... .. . ... F96 : ... .. . ... : G-4 12 . ... ... : ... .. . ...
ROW 0F : ... .. . ... : ... .. . ... : ... .. . ... : ... .. . ... : ... .. . ... F7C : ... .. . ... : ... .. . ... ... : ... .. . ...
ROW 10 : F-3 14 . ... : A#2 14 . ... : D-3 0D . ... : 3-# 0A . ... : C-3 09 . ... F96 : E-4 12 . ... : ... .. . ... ... : D-1 0E . ...
ROW 11 : ... .. . ... : ... .. . ... : ... .. . ... : ... .. . ... : ... .. . ... F7C : ... .. . ... : ... .. . ... ... : ... .. . ...
ROW 12 : ... .. . ... : ... .. . ... : ... .. . ... : ... .. . ... : ... .. . ... F96 : ... .. . ... : A-4 12 . ... ... : ... .. . ...
ROW 13 : ... .. . ... : ... .. . ... : ... .. . ... : ... .. . ... : ... .. . ... F7C : ... .. . ... : ... .. . ... ... : ... .. . ...
ROW 14 : ... .. . ... : A#2 14 . ... : D-3 0D . ... : 3-# 0A . ... : C-3 09 . ... F96 : A-4 12 . ... : ... .. . ... ... : D-1 0E . ...
ROW 15 : ... .. . ... : ... .. . ... : ... .. . ... : ... .. . ... : ... .. . ... F7C : ... .. . ... : ... .. . ... ... : ... .. . ...
ROW 16 : ... .. . ... : ... .. . ... : ... .. . ... : 3-# 0A . ... : C-3 09 . ... F96 : ... .. . ... : E-4 12 . ... ... : ... .. . ...
ROW 17 : ... .. . ... : ... .. . ... : ... .. . ... : ... .. . ... : ... .. . ... F7C : ... .. . ... : ... .. . ... ... : ... .. . ...
ROW 18 : E-3 14 . ... : A#2 14 . ... : D-3 0D . ... : 8-# 0A . ... : C#3 09 . ... F96 : G-4 12 . ... : ... .. . ... ... : D-1 0E . ...
ROW 19 : ... .. . ... : ... .. . ... : ... .. . ... : ... .. . ... : ... .. . ... F7C : ... .. . ... : ... .. . ... ... : ... .. . ...
ROW 1A : ... .. . ... : ... .. . ... : ... .. . ... : ... .. . ... : ... .. . ... F96 : ... .. . ... : A-4 12 . ... ... : ... .. . ...
ROW 1B : ... .. . ... : ... .. . ... : ... .. . ... : ... .. . ... : ... .. . ... F7C : ... .. . ... : ... .. . ... ... : ... .. . ...
ROW 1C : D-3 14 . ... : A#2 14 . ... : D-3 0D . ... : ... .. . ... : ... .. . ... F96 : A-4 12 . ... : ... .. . ... ... : D-1 0E . ...
ROW 1D : ... .. . ... : ... .. . ... : ... .. . ... : ... .. . ... : ... .. . ... F7C : ... .. . ... : ... .. . ... ... : ... .. . ...
ROW 1E : ... .. . ... : ... .. . ... : ... .. . ... : ... .. . ... : ... .. . ... F96 : ... .. . ... : G-4 12 . ... ... : ... .. . ...
ROW 1F : ... .. . ... : ... .. . ... : ... .. . ... : ... .. . ... : ... .. . ... F7C : ... .. . ... : ... .. . ... ... : ... .. . ...
ROW 20 : ... .. . ... : A#2 14 . ... : D-3 0D . ... : 3-# 0A . ... : C-3 09 . ... F96 : D-4 12 . ... : ... .. . ... ... : D-1 0E . ...
ROW 21 : ... .. . ... : ... .. . ... : ... .. . ... : ... .. . ... : ... .. . ... F7C : ... .. . ... : ... .. . ... ... : ... .. . ...
ROW 22 : ... .. . ... : ... .. . ... : ... .. . ... : ... .. . ... : ... .. . ... F96 : ... .. . ... : A-4 12 . ... ... : ... .. . ...
ROW 23 : ... .. . ... : ... .. . ... : ... .. . ... : ... .. . ... : ... .. . ... F7C : ... .. . ... : ... .. . ... ... : ... .. . ...
ROW 24 : E-3 14 . ... : A#2 14 . ... : D-3 0D . ... : ... .. . ... : ... .. . ... F96 : A-4 12 . ... : ... .. . ... ... : D-1 0E . ...
ROW 25 : ... .. . ... : ... .. . ... : ... .. . ... : ... .. . ... : ... .. . ... F7C : ... .. . ... : ... .. . ... ... : ... .. . ...
ROW 26 : ... .. . ... : ... .. . ... : ... .. . ... : 3-# 0A . ... : C-3 09 . ... F96 : ... .. . ... : D-4 12 . ... ... : ... .. . ...
ROW 27 : ... .. . ... : ... .. . ... : ... .. . ... : ... .. . ... : ... .. . ... F7C : ... .. . ... : ... .. . ... ... : ... .. . ...
ROW 28 : === .. . ... : A#2 14 . ... : D-3 0D . ... : 8-# 0A . ... : C#3 09 . ... F96 : G-4 12 . ... : ... .. . ... ... : D-1 0E . ...
ROW 29 : ... .. . ... : ... .. . ... : ... .. . ... : ... .. . ... : ... .. . ... F7C : ... .. . ... : ... .. . ... ... : ... .. . ...
ROW 2A : ... .. . ... : ... .. . ... : ... .. . ... : ... .. . ... : ... .. . ... F96 : ... .. . ... : A-4 12 . ... ... : ... .. . ...
ROW 2B : ... .. . ... : ... .. . ... : ... .. . ... : ... .. . ... : ... .. . ... F7C : ... .. . ... : ... .. . ... ... : ... .. . ...
ROW 2C : F-3 14 . ... : A#2 14 . ... : D-3 0D . ... : ... .. . ... : ... .. . ... F96 : A-4 12 . ... : ... .. . ... ... : D-1 0E . ...
ROW 2D : ... .. . ... : ... .. . ... : ... .. . ... : ... .. . ... : ... .. . ... F7C : ... .. . ... : ... .. . ... ... : ... .. . ...
ROW 2E : ... .. . ... : ... .. . ... : ... .. . ... : ... .. . ... : ... .. . ... F96 : ... .. . ... : G-4 12 . ... ... : ... .. . ...
ROW 2F : ... .. . ... : ... .. . ... : ... .. . ... : ... .. . ... : ... .. . ... F7C : ... .. . ... : ... .. . ... ... : ... .. . ...
ROW 30 : === .. . ... : A#2 14 . ... : D-3 0D . ... : 3-# 0A . ... : C-3 09 . ... F96 : C#4 12 . ... : ... .. . ... ... : D-1 0E . ...
ROW 31 : ... .. . ... : ... .. . ... : ... .. . ... : ... .. . ... : ... .. . ... F7C : ... .. . ... : ... .. . ... ... : ... .. . ...
ROW 32 : ... .. . ... : ... .. . ... : ... .. . ... : ... .. . ... : ... .. . ... F96 : ... .. . ... : A-4 12 . ... ... : ... .. . ...
ROW 33 : ... .. . ... : ... .. . ... : ... .. . ... : ... .. . ... : ... .. . ... F7C : ... .. . ... : ... .. . ... ... : ... .. . ...
ROW 34 : E-3 14 . ... : A#2 14 . ... : D-3 0D . ... : 3-# 0A . ... : C-3 09 . ... F96 : A-4 12 . ... : ... .. . ... ... : D-1 0E . ...
ROW 35 : ... .. . ... : ... .. . ... : ... .. . ... : ... .. . ... : ... .. . ... F7C : ... .. . ... : ... .. . ... ... : ... .. . ...
ROW 36 : ... .. . ... : ... .. . ... : ... .. . ... : 3-# 0A . ... : C-3 09 . ... F96 : ... .. . ... : C#4 12 . ... ... : ... .. . ...
ROW 37 : ... .. . ... : ... .. . ... : ... .. . ... : ... .. . ... : ... .. . ... F7C : ... .. . ... : ... .. . ... ... : ... .. . ...
ROW 38 : ... .. . ... : A#2 14 . ... : D-3 0D . ... : 8-# 0A . ... : C#3 09 . ... F96 : G-4 12 . ... : ... .. . ... ... : D-1 0E . ...
ROW 39 : ... .. . ... : ... .. . ... : ... .. . ... : ... .. . ... : ... .. . ... F7C : ... .. . ... : ... .. . ... ... : ... .. . ...
ROW 3A : ... .. . ... : ... .. . ... : ... .. . ... : ... .. . ... : ... .. . ... F96 : ... .. . ... : A-4 12 . ... ... : ... .. . ...
ROW 3B : ... .. . ... : ... .. . ... : ... .. . ... : ... .. . ... : ... .. . ... F7C : ... .. . ... : ... .. . ... ... : ... .. . ...
ROW 3C : ... .. . ... : A#2 14 . ... : D-3 0D . ... : ... .. . ... : ... .. . ... F96 : A-4 12 . ... : ... .. . ... ... : D-1 0E . ...
ROW 3D : ... .. . ... : ... .. . ... : ... .. . ... : ... .. . ... : ... .. . ... F7C : ... .. . ... : ... .. . ... ... : ... .. . ...
ROW 3E : ... .. . ... : ... .. . ... : ... .. . ... : ... .. . ... : ... .. . ... F96 : ... .. . ... : G-4 12 . ... ... : ... .. . ...
ROW 3F : ... .. . ... : ... .. . ... : ... .. . ... : ... .. . ... : ... .. . ... F7C : ... .. . ... : ... .. . ... ... : ... .. . ...

PATTERN 12
ROW 00 : E-3 14 . ... : C-3 14 . ... : E-3 0D . ... : 3-# 0A . ... : C-3 09 . ... F96 : D-4 12 . ... : ... .. . ... ... : E-1 0E . ...
ROW 01 : ... .. . ... : ... .. . ... : ... .. . ... : ... .. . ... : ... .. . ... F7C : ... .. . ... : ... .. . ... ... : ... .. . ...
ROW 02 : ... .. . ... : ... .. . ... : ... .. . ... : ... .. . ... : ... .. . ... F96 : ... .. . ... : A-4 12 . ... ... : ... .. . ...
ROW 03 : ... .. . ... : ... .. . ... : ... .. . ... : ... .. . ... : ... .. . ... F7C : ... .. . ... : ... .. . ... ... : ... .. . ...
ROW 04 : E-3 14 . ... : C-3 14 . ... : E-3 0D . ... : ... .. . ... : ... .. . ... F96 : A-4 12 . ... : ... .. . ... ... : E-1 0E . ...
ROW 05 : ... .. . ... : ... .. . ... : ... .. . ... : ... .. . ... : ... .. . ... F7C : ... .. . ... : ... .. . ... ... : ... .. . ...
ROW 06 : ... .. . ... : ... .. . ... : ... .. . ... : 3-# 0A . ... : C-3 09 . ... F96 : ... .. . ... : D-4 12 . ... ... : ... .. . ...
ROW 07 : ... .. . ... : ... .. . ... : ... .. . ... : ... .. . ... : ... .. . ... F7C : ... .. . ... : ... .. . ... ... : ... .. . ...
ROW 08 : F-3 14 . ... : C-3 14 . ... : E-3 0D . ... : 8-# 0A . ... : C#3 09 . ... F96 : G-4 12 . ... : ... .. . ... ... : E-1 0E . ...
ROW 09 : ... .. . ... : ... .. . ... : ... .. . ... : ... .. . ... : ... .. . ... F7C : ... .. . ... : ... .. . ... ... : ... .. . ...
ROW 0A : ... .. . ... : ... .. . ... : ... .. . ... : ... .. . ... : ... .. . ... F96 : ... .. . ... : A-4 12 . ... ... : ... .. . ...
ROW 0B : ... .. . ... : ... .. . ... : ... .. . ... : ... .. . ... : ... .. . ... F7C : ... .. . ... : ... .. . ... ... : ... .. . ...
ROW 0C : ... .. . ... : C-3 14 . ... : E-3 0D . ... : ... .. . ... : ... .. . ... F96 : A-4 12 . ... : ... .. . ... ... : E-1 0E . ...
ROW 0D : ... .. . ... : ... .. . ... : ... .. . ... : ... .. . ... : ... .. . ... F7C : ... .. . ... : ... .. . ... ... : ... .. . ...
ROW 0E : ... .. . ... : ... .. . ... : ... .. . ... : ... .. . ... : ... .. . ... F96 : ... .. . ... : G-4 12 . ... ... : ... .. . ...
ROW 0F : ... .. . ... : ... .. . ... : ... .. . ... : ... .. . ... : ... .. . ... F7C : ... .. . ... : ... .. . ... ... : ... .. . ...
ROW 10 : G-3 14 . ... : C-3 14 . ... : E-3 0D . ... : 3-# 0A . ... : C-3 09 . ... F96 : E-4 12 . ... : ... .. . ... ... : E-1 0E . ...
ROW 11 : ... .. . ... : ... .. . ... : ... .. . ... : ... .. . ... : ... .. . ... F7C : ... .. . ... : ... .. . ... ... : ... .. . ...
ROW 12 : ... .. . ... : ... .. . ... : ... .. . ... : ... .. . ... : ... .. . ... F96 : ... .. . ... : A-4 12 . ... ... : ... .. . ...
ROW 13 : ... .. . ... : ... .. . ... : ... .. . ... : ... .. . ... : ... .. . ... F7C : ... .. . ... : ... .. . ... ... : ... .. . ...
ROW 14 : ... .. . ... : C-3 14 . ... : E-3 0D . ... : 3-# 0A . ... : C-3 09 . ... F96 : A-4 12 . ... : ... .. . ... ... : E-1 0E . ...
ROW 15 : ... .. . ... : ... .. . ... : ... .. . ... : ... .. . ... : ... .. . ... F7C : ... .. . ... : ... .. . ... ... : ... .. . ...
ROW 16 : ... .. . ... : ... .. . ... : ... .. . ... : 3-# 0A . ... : C-3 09 . ... F96 : ... .. . ... : E-4 12 . ... ... : ... .. . ...
ROW 17 : ... .. . ... : ... .. . ... : ... .. . ... : ... .. . ... : ... .. . ... F7C : ... .. . ... : ... .. . ... ... : ... .. . ...
ROW 18 : F-3 14 . ... : C-3 14 . ... : E-3 0D . ... : 8-# 0A . ... : C#3 09 . ... F96 : G-4 12 . ... : ... .. . ... ... : E-1 0E . ...
ROW 19 : ... .. . ... : ... .. . ... : ... .. . ... : ... .. . ... : ... .. . ... F7C : ... .. . ... : ... .. . ... ... : ... .. . ...
ROW 1A : ... .. . ... : ... .. . ... : ... .. . ... : ... .. . ... : ... .. . ... F96 : ... .. . ... : A-4 12 . ... ... : ... .. . ...
ROW 1B : ... .. . ... : ... .. . ... : ... .. . ... : ... .. . ... : ... .. . ... F7C : ... .. . ... : ... .. . ... ... : ... .. . ...
ROW 1C : E-3 14 . ... : C-3 14 . ... : E-3 0D . ... : ... .. . ... : ... .. . ... F96 : A-4 12 . ... : ... .. . ... ... : E-1 0E . ...
ROW 1D : ... .. . ... : ... .. . ... : ... .. . ... : ... .. . ... : ... .. . ... F7C : ... .. . ... : ... .. . ... ... : ... .. . ...
ROW 1E : ... .. . ... : ... .. . ... : ... .. . ... : ... .. . ... : ... .. . ... F96 : ... .. . ... : G-4 12 . ... ... : ... .. . ...
ROW 1F : ... .. . ... : ... .. . ... : ... .. . ... : ... .. . ... : ... .. . ... F7C : ... .. . ... : ... .. . ... ... : ... .. . ...
ROW 20 : ... .. . ... : C-3 14 . ... : E-3 0D . ... : 3-# 0A . ... : C-3 09 . ... F96 : F-4 12 . ... : ... .. . ... ... : E-1 0E . ...
ROW 21 : ... .. . ... : ... .. . ... : ... .. . ... : ... .. . ... : ... .. . ... F7C : ... .. . ... : ... .. . ... ... : ... .. . ...
ROW 22 : ... .. . ... : ... .. . ... : ... .. . ... : ... .. . ... : ... .. . ... F96 : ... .. . ... : A-4 12 . ... ... : ... .. . ...
ROW 23 : ... .. . ... : ... .. . ... : ... .. . ... : ... .. . ... : ... .. . ... F7C : ... .. . ... : ... .. . ... ... : ... .. . ...
ROW 24 : F-3 14 . ... : C-3 14 . ... : E-3 0D . ... : ... .. . ... : ... .. . ... F96 : G-4 12 . ... : ... .. . ... ... : E-1 0E . ...
ROW 25 : ... .. . ... : ... .. . ... : ... .. . ... : ... .. . ... : ... .. . ... F7C : ... .. . ... : ... .. . ... ... : ... .. . ...
ROW 26 : ... .. . ... : ... .. . ... : ... .. . ... : 3-# 0A . ... : C-3 09 . ... F96 : ... .. . ... : F-4 12 . ... ... : ... .. . ...
ROW 27 : ... .. . ... : ... .. . ... : ... .. . ... : ... .. . ... : ... .. . ... F7C : ... .. . ... : ... .. . ... ... : ... .. . ...
ROW 28 : === .. . ... : C-3 14 . ... : E-3 0D . ... : 8-# 0A . ... : C#3 09 . ... F96 : F-4 12 . ... : ... .. . ... ... : E-1 0E . ...
ROW 29 : ... .. . ... : ... .. . ... : ... .. . ... : ... .. . ... : ... .. . ... F7C : ... .. . ... : ... .. . ... ... : ... .. . ...
ROW 2A : ... .. . ... : ... .. . ... : ... .. . ... : ... .. . ... : ... .. . ... F96 : ... .. . ... : G-4 12 . ... ... : ... .. . ...
ROW 2B : ... .. . ... : ... .. . ... : ... .. . ... : ... .. . ... : ... .. . ... F7C : ... .. . ... : ... .. . ... ... : ... .. . ...
ROW 2C : G-3 14 . ... : C-3 14 . ... : E-3 0D . ... : ... .. . ... : ... .. . ... F96 : E-4 12 . ... : ... .. . ... ... : E-1 0E . ...
ROW 2D : ... .. . ... : ... .. . ... : ... .. . ... : ... .. . ... : ... .. . ... F7C : ... .. . ... : ... .. . ... ... : ... .. . ...
ROW 2E : ... .. . ... : ... .. . ... : ... .. . ... : ... .. . ... : ... .. . ... F96 : ... .. . ... : F-4 12 . ... ... : ... .. . ...
ROW 2F : ... .. . ... : ... .. . ... : ... .. . ... : ... .. . ... : ... .. . ... F7C : ... .. . ... : ... .. . ... ... : ... .. . ...
ROW 30 : === .. . ... : C-3 14 . ... : E-3 0D . ... : 3-# 0A . ... : C-3 09 . ... F96 : F-4 12 . ... : ... .. . ... ... : E-1 0E . ...
ROW 31 : ... .. . ... : ... .. . ... : ... .. . ... : ... .. . ... : ... .. . ... F7C : ... .. . ... : ... .. . ... ... : ... .. . ...
ROW 32 : ... .. . ... : ... .. . ... : ... .. . ... : ... .. . ... : ... .. . ... F96 : ... .. . ... : E-4 12 . ... ... : ... .. . ...
ROW 33 : ... .. . ... : ... .. . ... : ... .. . ... : ... .. . ... : ... .. . ... F7C : ... .. . ... : ... .. . ... ... : ... .. . ...
ROW 34 : F-3 14 . ... : C-3 14 . ... : E-3 0D . ... : 3-# 0A . ... : C-3 09 . ... F96 : E-4 12 . ... : ... .. . ... ... : E-1 0E . ...
ROW 35 : ... .. . ... : ... .. . ... : ... .. . ... : ... .. . ... : ... .. . ... F7C : ... .. . ... : ... .. . ... ... : ... .. . ...
ROW 36 : ... .. . ... : ... .. . ... : ... .. . ... : 3-# 0A . ... : C-3 09 . ... F96 : ... .. . ... : F-4 12 . ... ... : ... .. . ...
ROW 37 : ... .. . ... : ... .. . ... : ... .. . ... : ... .. . ... : ... .. . ... F7C : ... .. . ... : ... .. . ... ... : ... .. . ...
ROW 38 : ... .. . ... : C-3 14 . ... : E-3 0D . ... : 8-# 0A . ... : C#3 09 . ... F96 : D-4 12 . ... : ... .. . ... ... : E-1 0E . ...
ROW 39 : ... .. . ... : ... .. . ... : ... .. . ... : ... .. . ... : ... .. . ... F7C : ... .. . ... : ... .. . ... ... : ... .. . ...
ROW 3A : ... .. . ... : ... .. . ... : ... .. . ... : ... .. . ... : ... .. . ... F96 : ... .. . ... : E-4 12 . ... ... : ... .. . ...
ROW 3B : ... .. . ... : ... .. . ... : ... .. . ... : ... .. . ... : ... .. . ... F7C : ... .. . ... : ... .. . ... ... : ... .. . ...
ROW 3C : ... .. . ... : C-3 14 . ... : E-3 0D . ... : ... .. . ... : ... .. . ... F96 : E-4 12 . ... : ... .. . ... ... : E-1 0E . ...
ROW 3D : ... .. . ... : ... .. . ... : ... .. . ... : ... .. . ... : ... .. . ... F7C : ... .. . ... : ... .. . ... ... : ... .. . ...
ROW 3E : ... .. . ... : ... .. . ... : ... .. . ... : ... .. . ... : ... .. . ... F96 : ... .. . ... : D-4 12 . ... ... : ... .. . ...
ROW 3F : ... .. . ... : ... .. . ... : ... .. . ... : ... .. . ... : ... .. . ... F7C : ... .. . ... : ... .. . ... ... : ... .. . ...

PATTERN 13
ROW 00 : D-3 14 . ... : A#2 14 . ... : D-3 0D . ... : 3-# 0A . ... : C-3 09 . ... F96 : F-4 12 . ... : ... .. . ... ... : D-1 0E . ...
ROW 01 : ... .. . ... : ... .. . ... : ... .. . ... : ... .. . ... : ... .. . ... F7C : ... .. . ... : ... .. . ... ... : ... .. . ...
ROW 02 : ... .. . ... : ... .. . ... : ... .. . ... : ... .. . ... : ... .. . ... F96 : ... .. . ... : E-4 12 . ... ... : ... .. . ...
ROW 03 : ... .. . ... : ... .. . ... : ... .. . ... : ... .. . ... : ... .. . ... F7C : ... .. . ... : ... .. . ... ... : ... .. . ...
ROW 04 : D-3 14 . ... : A#2 14 . ... : D-3 0D . ... : ... .. . ... : ... .. . ... F96 : A-4 12 . ... : ... .. . ... ... : D-1 0E . ...
ROW 05 : ... .. . ... : ... .. . ... : ... .. . ... : ... .. . ... : ... .. . ... F7C : ... .. . ... : ... .. . ... ... : ... .. . ...
ROW 06 : ... .. . ... : ... .. . ... : ... .. . ... : 3-# 0A . ... : C-3 09 . ... F96 : ... .. . ... : F-4 12 . ... ... : ... .. . ...
ROW 07 : ... .. . ... : ... .. . ... : ... .. . ... : ... .. . ... : ... .. . ... F7C : ... .. . ... : ... .. . ... ... : ... .. . ...
ROW 08 : E-3 14 . ... : A#2 14 . ... : D-3 0D . ... : 8-# 0A . ... : C#3 09 . ... F96 : G-4 12 . ... : ... .. . ... ... : D-1 0E . ...
ROW 09 : ... .. . ... : ... .. . ... : ... .. . ... : ... .. . ... : ... .. . ... F7C : ... .. . ... : ... .. . ... ... : ... .. . ...
ROW 0A : ... .. . ... : ... .. . ... : ... .. . ... : ... .. . ... : ... .. . ... F96 : ... .. . ... : A-4 12 . ... ... : ... .. . ...
ROW 0B : ... .. . ... : ... .. . ... : ... .. . ... : ... .. . ... : ... .. . ... F7C : ... .. . ... : ... .. . ... ... : ... .. . ...
ROW 0C : ... .. . ... : A#2 14 . ... : D-3 0D . ... : ... .. . ... : ... .. . ... F96 : A-4 12 . ... : ... .. . ... ... : D-1 0E . ...
ROW 0D : ... .. . ... : ... .. . ... : ... .. . ... : ... .. . ... : ... .. . ... F7C : ... .. . ... : ... .. . ... ... : ... .. . ...
ROW 0E : ... .. . ... : ... .. . ... : ... .. . ... : ... .. . ... : ... .. . ... F96 : ... .. . ... : G-4 12 . ... ... : ... .. . ...
ROW 0F : ... .. . ... : ... .. . ... : ... .. . ... : ... .. . ... : ... .. . ... F7C : ... .. . ... : ... .. . ... ... : ... .. . ...
ROW 10 : F-3 14 . ... : A#2 14 . ... : D-3 0D . ... : 3-# 0A . ... : C-3 09 . ... F96 : E-4 12 . ... : ... .. . ... ... : D-1 0E . ...
ROW 11 : ... .. . ... : ... .. . ... : ... .. . ... : ... .. . ... : ... .. . ... F7C : ... .. . ... : ... .. . ... ... : ... .. . ...
ROW 12 : ... .. . ... : ... .. . ... : ... .. . ... : ... .. . ... : ... .. . ... F96 : ... .. . ... : A-4 12 . ... ... : ... .. . ...
ROW 13 : ... .. . ... : ... .. . ... : ... .. . ... : ... .. . ... : ... .. . ... F7C : ... .. . ... : ... .. . ... ... : ... .. . ...
ROW 14 : ... .. . ... : A#2 14 . ... : D-3 0D . ... : 3-# 0A . ... : C-3 09 . ... F96 : A-4 12 . ... : ... .. . ... ... : D-1 0E . ...
ROW 15 : ... .. . ... : ... .. . ... : ... .. . ... : ... .. . ... : ... .. . ... F7C : ... .. . ... : ... .. . ... ... : ... .. . ...
ROW 16 : ... .. . ... : ... .. . ... : ... .. . ... : 3-# 0A . ... : C-3 09 . ... F96 : ... .. . ... : E-4 12 . ... ... : ... .. . ...
ROW 17 : ... .. . ... : ... .. . ... : ... .. . ... : ... .. . ... : ... .. . ... F7C : ... .. . ... : ... .. . ... ... : ... .. . ...
ROW 18 : E-3 14 . ... : A#2 14 . ... : D-3 0D . ... : 8-# 0A . ... : C#3 09 . ... F96 : G-4 12 . ... : ... .. . ... ... : D-1 0E . ...
ROW 19 : ... .. . ... : ... .. . ... : ... .. . ... : ... .. . ... : ... .. . ... F7C : ... .. . ... : ... .. . ... ... : ... .. . ...
ROW 1A : ... .. . ... : ... .. . ... : ... .. . ... : ... .. . ... : ... .. . ... F96 : ... .. . ... : A-4 12 . ... ... : ... .. . ...
ROW 1B : ... .. . ... : ... .. . ... : ... .. . ... : ... .. . ... : ... .. . ... F7C : ... .. . ... : ... .. . ... ... : ... .. . ...
ROW 1C : D-3 14 . ... : A#2 14 . ... : D-3 0D . ... : ... .. . ... : ... .. . ... F96 : A-4 12 . ... : ... .. . ... ... : D-1 0E . ...
ROW 1D : ... .. . ... : ... .. . ... : ... .. . ... : ... .. . ... : ... .. . ... F7C : ... .. . ... : ... .. . ... ... : ... .. . ...
ROW 1E : ... .. . ... : ... .. . ... : ... .. . ... : ... .. . ... : ... .. . ... F96 : ... .. . ... : G-4 12 . ... ... : ... .. . ...
ROW 1F : ... .. . ... : ... .. . ... : ... .. . ... : ... .. . ... : ... .. . ... F7C : ... .. . ... : ... .. . ... ... : ... .. . ...
ROW 20 : ... .. . ... : A#2 14 . ... : D-3 0D . ... : 3-# 0A . ... : C-3 09 . ... F96 : D-4 12 . ... : ... .. . ... ... : D-1 0E . ...
ROW 21 : ... .. . ... : ... .. . ... : ... .. . ... : ... .. . ... : ... .. . ... F7C : ... .. . ... : ... .. . ... ... : ... .. . ...
ROW 22 : ... .. . ... : ... .. . ... : ... .. . ... : ... .. . ... : ... .. . ... F96 : ... .. . ... : A-4 12 . ... ... : ... .. . ...
ROW 23 : ... .. . ... : ... .. . ... : ... .. . ... : ... .. . ... : ... .. . ... F7C : ... .. . ... : ... .. . ... ... : ... .. . ...
ROW 24 : E-3 14 . ... : A#2 14 . ... : D-3 0D . ... : ... .. . ... : ... .. . ... F96 : A-4 12 . ... : ... .. . ... ... : D-1 0E . ...
ROW 25 : ... .. . ... : ... .. . ... : ... .. . ... : ... .. . ... : ... .. . ... F7C : ... .. . ... : ... .. . ... ... : ... .. . ...
ROW 26 : ... .. . ... : ... .. . ... : ... .. . ... : 3-# 0A . ... : C-3 09 . ... F96 : ... .. . ... : D-4 12 . ... ... : ... .. . ...
ROW 27 : ... .. . ... : ... .. . ... : ... .. . ... : ... .. . ... : ... .. . ... F7C : ... .. . ... : ... .. . ... ... : ... .. . ...
ROW 28 : === .. . ... : A#2 14 . ... : D-3 0D . ... : 8-# 0A . ... : C#3 09 . ... F96 : G-4 12 . ... : ... .. . ... ... : D-1 0E . ...
ROW 29 : ... .. . ... : ... .. . ... : ... .. . ... : ... .. . ... : ... .. . ... F7C : ... .. . ... : ... .. . ... ... : ... .. . ...
ROW 2A : ... .. . ... : ... .. . ... : ... .. . ... : ... .. . ... : ... .. . ... F96 : ... .. . ... : A-4 12 . ... ... : ... .. . ...
ROW 2B : ... .. . ... : ... .. . ... : ... .. . ... : ... .. . ... : ... .. . ... F7C : ... .. . ... : ... .. . ... ... : ... .. . ...
ROW 2C : F-3 14 . ... : A#2 14 . ... : D-3 0D . ... : ... .. . ... : ... .. . ... F96 : A-4 12 . ... : ... .. . ... ... : D-1 0E . ...
ROW 2D : ... .. . ... : ... .. . ... : ... .. . ... : ... .. . ... : ... .. . ... F7C : ... .. . ... : ... .. . ... ... : ... .. . ...
ROW 2E : ... .. . ... : ... .. . ... : ... .. . ... : ... .. . ... : ... .. . ... F96 : ... .. . ... : G-4 12 . ... ... : ... .. . ...
ROW 2F : ... .. . ... : ... .. . ... : ... .. . ... : ... .. . ... : ... .. . ... F7C : ... .. . ... : ... .. . ... ... : ... .. . ...
ROW 30 : === .. . ... : A#2 14 . ... : D-3 0D . ... : 3-# 0A . ... : C-3 09 . ... F96 : C#4 12 . ... : ... .. . ... ... : D-1 0E . ...
ROW 31 : ... .. . ... : ... .. . ... : ... .. . ... : ... .. . ... : ... .. . ... F7C : ... .. . ... : ... .. . ... ... : ... .. . ...
ROW 32 : ... .. . ... : ... .. . ... : ... .. . ... : ... .. . ... : ... .. . ... F96 : ... .. . ... : A-4 12 . ... ... : ... .. . ...
ROW 33 : ... .. . ... : ... .. . ... : ... .. . ... : ... .. . ... : ... .. . ... F7C : ... .. . ... : ... .. . ... ... : ... .. . ...
ROW 34 : E-3 14 . ... : A#2 14 . ... : D-3 0D . ... : 3-# 0A . ... : C-3 09 . ... F96 : A-4 12 . ... : ... .. . ... ... : D-1 0E . ...
ROW 35 : ... .. . ... : ... .. . ... : ... .. . ... : ... .. . ... : ... .. . ... F7C : ... .. . ... : ... .. . ... ... : ... .. . ...
ROW 36 : ... .. . ... : ... .. . ... : ... .. . ... : 3-# 0A . ... : C-3 09 . ... F96 : ... .. . ... : C#4 12 . ... ... : ... .. . ...
ROW 37 : ... .. . ... : ... .. . ... : ... .. . ... : ... .. . ... : ... .. . ... F7C : ... .. . ... : ... .. . ... ... : ... .. . ...
ROW 38 : ... .. . ... : A#2 14 . ... : D-3 0D . ... : 8-# 0A . ... : C#3 09 . ... F96 : G-4 12 . ... : ... .. . ... ... : D-1 0E . ...
ROW 39 : ... .. . ... : ... .. . ... : ... .. . ... : ... .. . ... : ... .. . ... F7C : ... .. . ... : ... .. . ... ... : ... .. . ...
ROW 3A : ... .. . ... : ... .. . ... : ... .. . ... : ... .. . ... : ... .. . ... F96 : ... .. . ... : A-4 12 . ... ... : ... .. . ...
ROW 3B : ... .. . ... : ... .. . ... : ... .. . ... : ... .. . ... : ... .. . ... F7C : ... .. . ... : ... .. . ... ... : ... .. . ...
ROW 3C : ... .. . ... : A#2 14 . ... : D-3 0D . ... : ... .. . ... : ... .. . ... F96 : A-4 12 . ... : ... .. . ... ... : D-1 0E . ...
ROW 3D : ... .. . ... : ... .. . ... : ... .. . ... : ... .. . ... : ... .. . ... F7C : ... .. . ... : ... .. . ... ... : ... .. . ...
ROW 3E : ... .. . ... : ... .. . ... : ... .. . ... : ... .. . ... : ... .. . ... F96 : ... .. . ... : G-4 12 . ... ... : ... .. . ...
ROW 3F : ... .. . ... : ... .. . ... : ... .. . ... : ... .. . ... : ... .. . ... F7C : ... .. . ... : ... .. . ... ... : ... .. . ...

PATTERN 14
ROW 00 : E-3 14 . ... : C-3 14 . ... : E-3 0D . ... : 3-# 0A . ... : C-3 09 . ... F96 : D-4 12 . ... : ... .. . ... ... : E-1 0E . ...
ROW 01 : ... .. . ... : ... .. . ... : ... .. . ... : ... .. . ... : ... .. . ... F7C : ... .. . ... : ... .. . ... ... : ... .. . ...
ROW 02 : ... .. . ... : ... .. . ... : ... .. . ... : ... .. . ... : ... .. . ... F96 : ... .. . ... : A-4 12 . ... ... : ... .. . ...
ROW 03 : ... .. . ... : ... .. . ... : ... .. . ... : ... .. . ... : ... .. . ... F7C : ... .. . ... : ... .. . ... ... : ... .. . ...
ROW 04 : E-3 14 . ... : C-3 14 . ... : E-3 0D . ... : ... .. . ... : ... .. . ... F96 : A-4 12 . ... : ... .. . ... ... : E-1 0E . ...
ROW 05 : ... .. . ... : ... .. . ... : ... .. . ... : ... .. . ... : ... .. . ... F7C : ... .. . ... : ... .. . ... ... : ... .. . ...
ROW 06 : ... .. . ... : ... .. . ... : ... .. . ... : 3-# 0A . ... : C-3 09 . ... F96 : ... .. . ... : D-4 12 . ... ... : ... .. . ...
ROW 07 : ... .. . ... : ... .. . ... : ... .. . ... : ... .. . ... : ... .. . ... F7C : ... .. . ... : ... .. . ... ... : ... .. . ...
ROW 08 : F-3 14 . ... : C-3 14 . ... : E-3 0D . ... : 8-# 0A . ... : C#3 09 . ... F96 : G-4 12 . ... : ... .. . ... ... : E-1 0E . ...
ROW 09 : ... .. . ... : ... .. . ... : ... .. . ... : ... .. . ... : ... .. . ... F7C : ... .. . ... : ... .. . ... ... : ... .. . ...
ROW 0A : ... .. . ... : ... .. . ... : ... .. . ... : ... .. . ... : ... .. . ... F96 : ... .. . ... : A-4 12 . ... ... : ... .. . ...
ROW 0B : ... .. . ... : ... .. . ... : ... .. . ... : ... .. . ... : ... .. . ... F7C : ... .. . ... : ... .. . ... ... : ... .. . ...
ROW 0C : ... .. . ... : C-3 14 . ... : E-3 0D . ... : ... .. . ... : ... .. . ... F96 : A-4 12 . ... : ... .. . ... ... : E-1 0E . ...
ROW 0D : ... .. . ... : ... .. . ... : ... .. . ... : ... .. . ... : ... .. . ... F7C : ... .. . ... : ... .. . ... ... : ... .. . ...
ROW 0E : ... .. . ... : ... .. . ... : ... .. . ... : ... .. . ... : ... .. . ... F96 : ... .. . ... : G-4 12 . ... ... : ... .. . ...
ROW 0F : ... .. . ... : ... .. . ... : ... .. . ... : ... .. . ... : ... .. . ... F7C : ... .. . ... : ... .. . ... ... : ... .. . ...
ROW 10 : G-3 14 . ... : C-3 14 . ... : E-3 0D . ... : 3-# 0A . ... : C-3 09 . ... F96 : E-4 12 . ... : ... .. . ... ... : E-1 0E . ...
ROW 11 : ... .. . ... : ... .. . ... : ... .. . ... : ... .. . ... : ... .. . ... F7C : ... .. . ... : ... .. . ... ... : ... .. . ...
ROW 12 : ... .. . ... : ... .. . ... : ... .. . ... : ... .. . ... : ... .. . ... F96 : ... .. . ... : A-4 12 . ... ... : ... .. . ...
ROW 13 : ... .. . ... : ... .. . ... : ... .. . ... : ... .. . ... : ... .. . ... F7C : ... .. . ... : ... .. . ... ... : ... .. . ...
ROW 14 : ... .. . ... : C-3 14 . ... : E-3 0D . ... : 3-# 0A . ... : C-3 09 . ... F96 : A-4 12 . ... : ... .. . ... ... : E-1 0E . ...
ROW 15 : ... .. . ... : ... .. . ... : ... .. . ... : ... .. . ... : ... .. . ... F7C : ... .. . ... : ... .. . ... ... : ... .. . ...
ROW 16 : ... .. . ... : ... .. . ... : ... .. . ... : 3-# 0A . ... : C-3 09 . ... F96 : ... .. . ... : E-4 12 . ... ... : ... .. . ...
ROW 17 : ... .. . ... : ... .. . ... : ... .. . ... : ... .. . ... : ... .. . ... F7C : ... .. . ... : ... .. . ... ... : ... .. . ...
ROW 18 : F-3 14 . ... : C-3 14 . ... : E-3 0D . ... : 8-# 0A . ... : C#3 09 . ... F96 : G-4 12 . ... : ... .. . ... ... : E-1 0E . ...
ROW 19 : ... .. . ... : ... .. . ... : ... .. . ... : ... .. . ... : ... .. . ... F7C : ... .. . ... : ... .. . ... ... : ... .. . ...
ROW 1A : ... .. . ... : ... .. . ... : ... .. . ... : ... .. . ... : ... .. . ... F96 : ... .. . ... : A-4 12 . ... ... : ... .. . ...
ROW 1B : ... .. . ... : ... .. . ... : ... .. . ... : ... .. . ... : ... .. . ... F7C : ... .. . ... : ... .. . ... ... : ... .. . ...
ROW 1C : E-3 14 . ... : C-3 14 . ... : E-3 0D . ... : ... .. . ... : ... .. . ... F96 : A-4 12 . ... : ... .. . ... ... : E-1 0E . ...
ROW 1D : ... .. . ... : ... .. . ... : ... .. . ... : ... .. . ... : ... .. . ... F7C : ... .. . ... : ... .. . ... ... : ... .. . ...
ROW 1E : ... .. . ... : ... .. . ... : ... .. . ... : ... .. . ... : ... .. . ... F96 : ... .. . ... : G-4 12 . ... ... : ... .. . ...
ROW 1F : ... .. . ... : ... .. . ... : ... .. . ... : ... .. . ... : ... .. . ... F7C : ... .. . ... : ... .. . ... ... : ... .. . ...
ROW 20 : ... .. . ... : C-3 14 . ... : E-3 0D . ... : 3-# 0A . ... : C-3 09 . ... F96 : D-4 12 . ... : ... .. . ... ... : E-1 0E . ...
ROW 21 : ... .. . ... : ... .. . ... : ... .. . ... : ... .. . ... : ... .. . ... F7C : ... .. . ... : ... .. . ... ... : ... .. . ...
ROW 22 : ... .. . ... : ... .. . ... : ... .. . ... : ... .. . ... : ... .. . ... F96 : E-4 12 . ... : A-4 12 . ... ... : ... .. . ...
ROW 23 : ... .. . ... : ... .. . ... : ... .. . ... : ... .. . ... : ... .. . ... F7C : ... .. . ... : ... .. . ... ... : ... .. . ...
ROW 24 : F-3 14 . ... : C-3 14 . ... : E-3 0D . ... : ... .. . ... : ... .. . ... F96 : F-4 12 . ... : ... .. . ... ... : E-1 0E . ...
ROW 25 : ... .. . ... : ... .. . ... : ... .. . ... : ... .. . ... : ... .. . ... F7C : ... .. . ... : ... .. . ... ... : ... .. . ...
ROW 26 : ... .. . ... : ... .. . ... : ... .. . ... : 3-# 0A . ... : C-3 09 . ... F96 : G-4 12 . ... : D-4 12 . ... ... : ... .. . ...
ROW 27 : ... .. . ... : ... .. . ... : ... .. . ... : ... .. . ... : ... .. . ... F7C : ... .. . ... : ... .. . ... ... : ... .. . ...
ROW 28 : === .. . ... : C-3 14 . ... : E-3 0D . ... : 8-# 0A . ... : C#3 09 . ... F96 : A-4 12 . ... : E-4 12 . ... ... : E-1 0E . ...
ROW 29 : ... .. . ... : ... .. . ... : ... .. . ... : ... .. . ... : ... .. . ... F7C : ... .. . ... : ... .. . ... ... : ... .. . ...
ROW 2A : ... .. . ... : ... .. . ... : ... .. . ... : ... .. . ... : ... .. . ... F96 : A#4 12 . ... : F-4 12 . ... ... : ... .. . ...
ROW 2B : ... .. . ... : ... .. . ... : ... .. . ... : ... .. . ... : ... .. . ... F7C : ... .. . ... : ... .. . ... ... : ... .. . ...
ROW 2C : G-3 14 . ... : C-3 14 . ... : E-3 0D . ... : ... .. . ... : ... .. . ... F96 : C-5 12 . ... : G-4 12 . ... ... : E-1 0E . ...
ROW 2D : ... .. . ... : ... .. . ... : ... .. . ... : ... .. . ... : ... .. . ... F7C : ... .. . ... : ... .. . ... ... : ... .. . ...
ROW 2E : ... .. . ... : ... .. . ... : ... .. . ... : ... .. . ... : ... .. . ... F96 : D-5 12 . ... : A-4 12 . ... ... : ... .. . ...
ROW 2F : ... .. . ... : ... .. . ... : ... .. . ... : ... .. . ... : ... .. . ... F7C : ... .. . ... : ... .. . ... ... : ... .. . ...
ROW 30 : === .. . ... : C-3 14 . ... : E-3 0D . ... : 8-# 0A . ... : C#3 09 . ... F96 : E-5 12 . ... : A#4 12 . ... ... : E-1 0E . ...
ROW 31 : ... .. . ... : ... .. . ... : ... .. . ... : ... .. . ... : ... .. . ... F7C : ... .. . ... : ... .. . ... ... : ... .. . ...
ROW 32 : ... .. . ... : ... .. . ... : ... .. . ... : 8-# 0A 7 ... : C#3 09 . ... F96 : F-5 12 . ... : C-5 12 . ... ... : ... .. . ...
ROW 33 : ... .. . ... : ... .. . ... : ... .. . ... : ... .. . ... : ... .. . ... F7C : ... .. . ... : ... .. . ... ... : ... .. . ...
ROW 34 : F-3 14 . ... : C-3 14 . ... : E-3 0D . ... : 8-# 0A . ... : C#3 09 . ... F96 : G-5 12 . ... : D-5 12 . ... ... : E-1 0E . ...
ROW 35 : ... .. . ... : ... .. . ... : ... .. . ... : ... .. . ... : ... .. . ... F7C : ... .. . ... : ... .. . ... ... : ... .. . ...
ROW 36 : ... .. . ... : ... .. . ... : ... .. . ... : 8-# 0A . ... : C#3 09 . ... F96 : F-5 12 . ... : E-5 12 . ... ... : ... .. . ...
ROW 37 : ... .. . ... : ... .. . ... : ... .. . ... : ... .. . ... : ... .. . ... F7C : ... .. . ... : ... .. . ... ... : ... .. . ...
ROW 38 : ... .. . ... : C-3 14 . ... : E-3 0D . ... : 8-# 0A F ... : C#3 09 . ... F96 : E-5 12 . ... : F-5 12 . ... ... : E-1 0E . ...
ROW 39 : ... .. . ... : ... .. . ... : ... .. . ... : ... .. . ... : ... .. . ... F7C : ... .. . ... : ... .. . ... ... : ... .. . ...
ROW 3A : ... .. . ... : ... .. . ... : ... .. . ... : 8-# 0A 7 ... : C#3 09 . ... F96 : D-5 12 . ... : G-5 12 . ... ... : ... .. . ...
ROW 3B : ... .. . ... : ... .. . ... : ... .. . ... : ... .. . ... : ... .. . ... F7C : ... .. . ... : ... .. . ... ... : ... .. . ...
ROW 3C : ... .. . ... : C-3 14 . ... : E-3 0D . ... : 8-# 0A . ... : C#3 09 . ... F96 : E-5 12 . ... : F-5 12 . ... ... : E-1 0E . ...
ROW 3D : ... .. . ... : ... .. . ... : ... .. . ... : ... .. . ... : ... .. . ... F7C : ... .. . ... : ... .. . ... ... : ... .. . ...
ROW 3E : ... .. . ... : ... .. . ... : ... .. . ... : 8-# 0A . ... : C#3 09 . ... F96 : D-5 12 . ... : E-5 12 . ... ... : ... .. . ...
ROW 3F : ... .. . ... : ... .. . ... : ... .. . ... : ... .. . ... : ... .. . ... F7C : ... .. . ... : ... .. . ... ... : ... .. . ...

PATTERN 15
ROW 00 : D-3 14 . ... : A#2 14 . ... : D-3 0D . ... : 3-# 0A F ... : C-3 09 . ... F96 : F-4 12 . ... : D-5 12 . ... ... : D-1 0E . ...
ROW 01 : ... .. . ... : ... .. . ... : ... .. . ... : ... .. . ... : ... .. . ... F7C : ... .. . ... : ... .. . ... ... : ... .. . ...
ROW 02 : ... .. . ... : ... .. . ... : ... .. . ... : ... .. . ... : ... .. . ... F96 : ... .. . ... : E-5 12 . ... ... : ... .. . ...
ROW 03 : ... .. . ... : ... .. . ... : ... .. . ... : ... .. . ... : ... .. . ... F7C : ... .. . ... : ... .. . ... ... : ... .. . ...
ROW 04 : D-3 14 . ... : A#2 14 . ... : D-3 0D . ... : ... .. . ... : ... .. . ... F96 : A-4 12 . ... : D-5 12 . ... ... : D-1 0E . ...
ROW 05 : ... .. . ... : ... .. . ... : ... .. . ... : ... .. . ... : ... .. . ... F7C : ... .. . ... : ... .. . ... ... : ... .. . ...
ROW 06 : ... .. . ... : ... .. . ... : ... .. . ... : 3-# 0A . ... : C-3 09 . ... F96 : ... .. . ... : F-4 12 . ... ... : ... .. . ...
ROW 07 : ... .. . ... : ... .. . ... : ... .. . ... : ... .. . ... : ... .. . ... F7C : ... .. . ... : ... .. . ... ... : ... .. . ...
ROW 08 : E-3 14 . ... : A#2 14 . ... : D-3 0D . ... : 8-# 0A . ... : C#3 09 . ... F96 : G-4 12 . ... : ... .. . ... ... : D-1 0E . ...
ROW 09 : ... .. . ... : ... .. . ... : ... .. . ... : ... .. . ... : ... .. . ... F7C : ... .. . ... : ... .. . ... ... : ... .. . ...
ROW 0A : ... .. . ... : ... .. . ... : ... .. . ... : ... .. . ... : ... .. . ... F96 : ... .. . ... : A-4 12 . ... ... : ... .. . ...
ROW 0B : ... .. . ... : ... .. . ... : ... .. . ... : ... .. . ... : ... .. . ... F7C : ... .. . ... : ... .. . ... ... : ... .. . ...
ROW 0C : ... .. . ... : A#2 14 . ... : D-3 0D . ... : ... .. . ... : ... .. . ... F96 : A-4 12 . ... : ... .. . ... ... : D-1 0E . ...
ROW 0D : ... .. . ... : ... .. . ... : ... .. . ... : ... .. . ... : ... .. . ... F7C : ... .. . ... : ... .. . ... ... : ... .. . ...
ROW 0E : ... .. . ... : ... .. . ... : ... .. . ... : ... .. . ... : ... .. . ... F96 : ... .. . ... : G-4 12 . ... ... : ... .. . ...
ROW 0F : ... .. . ... : ... .. . ... : ... .. . ... : ... .. . ... : ... .. . ... F7C : ... .. . ... : ... .. . ... ... : ... .. . ...
ROW 10 : F-3 14 . ... : A#2 14 . ... : D-3 0D . ... : 3-# 0A . ... : C-3 09 . ... F96 : E-4 12 . ... : ... .. . ... ... : D-1 0E . ...
ROW 11 : ... .. . ... : ... .. . ... : ... .. . ... : ... .. . ... : ... .. . ... F7C : ... .. . ... : ... .. . ... ... : ... .. . ...
ROW 12 : ... .. . ... : ... .. . ... : ... .. . ... : ... .. . ... : ... .. . ... F96 : ... .. . ... : A-4 12 . ... ... : ... .. . ...
ROW 13 : ... .. . ... : ... .. . ... : ... .. . ... : ... .. . ... : ... .. . ... F7C : ... .. . ... : ... .. . ... ... : ... .. . ...
ROW 14 : ... .. . ... : A#2 14 . ... : D-3 0D . ... : 3-# 0A . ... : C-3 09 . ... F96 : A-4 12 . ... : ... .. . ... ... : D-1 0E . ...
ROW 15 : ... .. . ... : ... .. . ... : ... .. . ... : ... .. . ... : ... .. . ... F7C : ... .. . ... : ... .. . ... ... : ... .. . ...
ROW 16 : ... .. . ... : ... .. . ... : ... .. . ... : 3-# 0A . ... : C-3 09 . ... F96 : ... .. . ... : E-4 12 . ... ... : ... .. . ...
ROW 17 : ... .. . ... : ... .. . ... : ... .. . ... : ... .. . ... : ... .. . ... F7C : ... .. . ... : ... .. . ... ... : ... .. . ...
ROW 18 : E-3 14 . ... : A#2 14 . ... : D-3 0D . ... : 8-# 0A . ... : C#3 09 . ... F96 : G-4 12 . ... : ... .. . ... ... : D-1 0E . ...
ROW 19 : ... .. . ... : ... .. . ... : ... .. . ... : ... .. . ... : ... .. . ... F7C : ... .. . ... : ... .. . ... ... : ... .. . ...
ROW 1A : ... .. . ... : ... .. . ... : ... .. . ... : ... .. . ... : ... .. . ... F96 : ... .. . ... : A-4 12 . ... ... : ... .. . ...
ROW 1B : ... .. . ... : ... .. . ... : ... .. . ... : ... .. . ... : ... .. . ... F7C : ... .. . ... : ... .. . ... ... : ... .. . ...
ROW 1C : D-3 14 . ... : A#2 14 . ... : D-3 0D . ... : ... .. . ... : ... .. . ... F96 : A-4 12 . ... : ... .. . ... ... : D-1 0E . ...
ROW 1D : ... .. . ... : ... .. . ... : ... .. . ... : ... .. . ... : ... .. . ... F7C : ... .. . ... : ... .. . ... ... : ... .. . ...
ROW 1E : ... .. . ... : ... .. . ... : ... .. . ... : ... .. . ... : ... .. . ... F96 : ... .. . ... : G-4 12 . ... ... : ... .. . ...
ROW 1F : ... .. . ... : ... .. . ... : ... .. . ... : ... .. . ... : ... .. . ... F7C : ... .. . ... : ... .. . ... ... : ... .. . ...
ROW 20 : ... .. . ... : A#2 14 . ... : D-3 0D . ... : 3-# 0A . ... : C-3 09 . ... F96 : D-4 12 . ... : ... .. . ... ... : D-1 0E . ...
ROW 21 : ... .. . ... : ... .. . ... : ... .. . ... : ... .. . ... : ... .. . ... F7C : ... .. . ... : ... .. . ... ... : ... .. . ...
ROW 22 : ... .. . ... : ... .. . ... : ... .. . ... : ... .. . ... : ... .. . ... F96 : ... .. . ... : A-4 12 . ... ... : ... .. . ...
ROW 23 : ... .. . ... : ... .. . ... : ... .. . ... : ... .. . ... : ... .. . ... F7C : ... .. . ... : ... .. . ... ... : ... .. . ...
ROW 24 : E-3 14 . ... : A#2 14 . ... : D-3 0D . ... : ... .. . ... : ... .. . ... F96 : A-4 12 . ... : ... .. . ... ... : D-1 0E . ...
ROW 25 : ... .. . ... : ... .. . ... : ... .. . ... : ... .. . ... : ... .. . ... F7C : ... .. . ... : ... .. . ... ... : ... .. . ...
ROW 26 : ... .. . ... : ... .. . ... : ... .. . ... : 3-# 0A . ... : C-3 09 . ... F96 : ... .. . ... : D-4 12 . ... ... : ... .. . ...
ROW 27 : ... .. . ... : ... .. . ... : ... .. . ... : ... .. . ... : ... .. . ... F7C : ... .. . ... : ... .. . ... ... : ... .. . ...
ROW 28 : === .. . ... : A#2 14 . ... : D-3 0D . ... : 8-# 0A . ... : C#3 09 . ... F96 : G-4 12 . ... : ... .. . ... ... : D-1 0E . ...
ROW 29 : ... .. . ... : ... .. . ... : ... .. . ... : ... .. . ... : ... .. . ... F7C : ... .. . ... : ... .. . ... ... : ... .. . ...
ROW 2A : ... .. . ... : ... .. . ... : ... .. . ... : ... .. . ... : ... .. . ... F96 : ... .. . ... : A-4 12 . ... ... : ... .. . ...
ROW 2B : ... .. . ... : ... .. . ... : ... .. . ... : ... .. . ... : ... .. . ... F7C : ... .. . ... : ... .. . ... ... : ... .. . ...
ROW 2C : F-3 14 . ... : A#2 14 . ... : D-3 0D . ... : ... .. . ... : ... .. . ... F96 : A-4 12 . ... : ... .. . ... ... : D-1 0E . ...
ROW 2D : ... .. . ... : ... .. . ... : ... .. . ... : ... .. . ... : ... .. . ... F7C : ... .. . ... : ... .. . ... ... : ... .. . ...
ROW 2E : ... .. . ... : ... .. . ... : ... .. . ... : ... .. . ... : ... .. . ... F96 : ... .. . ... : G-4 12 . ... ... : ... .. . ...
ROW 2F : ... .. . ... : ... .. . ... : ... .. . ... : ... .. . ... : ... .. . ... F7C : ... .. . ... : ... .. . ... ... : ... .. . ...
ROW 30 : === .. . ... : A#2 14 . ... : D-3 0D . ... : 3-# 0A . ... : C-3 09 . ... F96 : C#4 12 . ... : ... .. . ... ... : D-1 0E . ...
ROW 31 : ... .. . ... : ... .. . ... : ... .. . ... : ... .. . ... : ... .. . ... F7C : ... .. . ... : ... .. . ... ... : ... .. . ...
ROW 32 : ... .. . ... : ... .. . ... : ... .. . ... : ... .. . ... : ... .. . ... F96 : ... .. . ... : A-4 12 . ... ... : ... .. . ...
ROW 33 : ... .. . ... : ... .. . ... : ... .. . ... : ... .. . ... : ... .. . ... F7C : ... .. . ... : ... .. . ... ... : ... .. . ...
ROW 34 : E-3 14 . ... : A#2 14 . ... : D-3 0D . ... : 3-# 0A . ... : C-3 09 . ... F96 : A-4 12 . ... : ... .. . ... ... : D-1 0E . ...
ROW 35 : ... .. . ... : ... .. . ... : ... .. . ... : ... .. . ... : ... .. . ... F7C : ... .. . ... : ... .. . ... ... : ... .. . ...
ROW 36 : ... .. . ... : ... .. . ... : ... .. . ... : 3-# 0A . ... : C-3 09 . ... F96 : ... .. . ... : C#4 12 . ... ... : ... .. . ...
ROW 37 : ... .. . ... : ... .. . ... : ... .. . ... : ... .. . ... : ... .. . ... F7C : ... .. . ... : ... .. . ... ... : ... .. . ...
ROW 38 : ... .. . ... : A#2 14 . ... : D-3 0D . ... : 8-# 0A . ... : C#3 09 . ... F96 : G-4 12 . ... : ... .. . ... ... : D-1 0E . ...
ROW 39 : ... .. . ... : ... .. . ... : ... .. . ... : ... .. . ... : ... .. . ... F7C : ... .. . ... : ... .. . ... ... : ... .. . ...
ROW 3A : ... .. . ... : ... .. . ... : ... .. . ... : ... .. . ... : ... .. . ... F96 : ... .. . ... : A-4 12 . ... ... : ... .. . ...
ROW 3B : ... .. . ... : ... .. . ... : ... .. . ... : ... .. . ... : ... .. . ... F7C : ... .. . ... : ... .. . ... ... : ... .. . ...
ROW 3C : ... .. . ... : A#2 14 . ... : D-3 0D . ... : ... .. . ... : ... .. . ... F96 : A-4 12 . ... : ... .. . ... ... : D-1 0E . ...
ROW 3D : ... .. . ... : ... .. . ... : ... .. . ... : ... .. . ... : ... .. . ... F7C : ... .. . ... : ... .. . ... ... : ... .. . ...
ROW 3E : ... .. . ... : ... .. . ... : ... .. . ... : ... .. . ... : ... .. . ... F96 : ... .. . ... : G-4 12 . ... ... : ... .. . ...
ROW 3F : ... .. . ... : ... .. . ... : ... .. . ... : ... .. . ... : ... .. . ... F7C : ... .. . ... : ... .. . ... ... : ... .. . ...

PATTERN 16
ROW 00 : E-3 14 . ... : C-3 14 . ... : E-3 0D . ... : 3-# 0A . ... : C-3 09 . ... F96 : D-4 12 . ... : ... .. . ... ... : E-1 0E . ...
ROW 01 : ... .. . ... : ... .. . ... : ... .. . ... : ... .. . ... : ... .. . ... F7C : ... .. . ... : ... .. . ... ... : ... .. . ...
ROW 02 : ... .. . ... : ... .. . ... : ... .. . ... : ... .. . ... : ... .. . ... F96 : ... .. . ... : A-4 12 . ... ... : ... .. . ...
ROW 03 : ... .. . ... : ... .. . ... : ... .. . ... : ... .. . ... : ... .. . ... F7C : ... .. . ... : ... .. . ... ... : ... .. . ...
ROW 04 : E-3 14 . ... : C-3 14 . ... : E-3 0D . ... : ... .. . ... : ... .. . ... F96 : A-4 12 . ... : ... .. . ... ... : E-1 0E . ...
ROW 05 : ... .. . ... : ... .. . ... : ... .. . ... : ... .. . ... : ... .. . ... F7C : ... .. . ... : ... .. . ... ... : ... .. . ...
ROW 06 : ... .. . ... : ... .. . ... : ... .. . ... : 3-# 0A . ... : C-3 09 . ... F96 : ... .. . ... : D-4 12 . ... ... : ... .. . ...
ROW 07 : ... .. . ... : ... .. . ... : ... .. . ... : ... .. . ... : ... .. . ... F7C : ... .. . ... : ... .. . ... ... : ... .. . ...
ROW 08 : F-3 14 . ... : C-3 14 . ... : E-3 0D . ... : 8-# 0A . ... : C#3 09 . ... F96 : G-4 12 . ... : ... .. . ... ... : E-1 0E . ...
ROW 09 : ... .. . ... : ... .. . ... : ... .. . ... : ... .. . ... : ... .. . ... F7C : ... .. . ... : ... .. . ... ... : ... .. . ...
ROW 0A : ... .. . ... : ... .. . ... : ... .. . ... : ... .. . ... : ... .. . ... F96 : ... .. . ... : A-4 12 . ... ... : ... .. . ...
ROW 0B : ... .. . ... : ... .. . ... : ... .. . ... : ... .. . ... : ... .. . ... F7C : ... .. . ... : ... .. . ... ... : ... .. . ...
ROW 0C : ... .. . ... : C-3 14 . ... : E-3 0D . ... : ... .. . ... : ... .. . ... F96 : A-4 12 . ... : ... .. . ... ... : E-1 0E . ...
ROW 0D : ... .. . ... : ... .. . ... : ... .. . ... : ... .. . ... : ... .. . ... F7C : ... .. . ... : ... .. . ... ... : ... .. . ...
ROW 0E : ... .. . ... : ... .. . ... : ... .. . ... : ... .. . ... : ... .. . ... F96 : ... .. . ... : G-4 12 . ... ... : ... .. . ...
ROW 0F : ... .. . ... : ... .. . ... : ... .. . ... : ... .. . ... : ... .. . ... F7C : ... .. . ... : ... .. . ... ... : ... .. . ...
ROW 10 : G-3 14 . ... : C-3 14 . ... : E-3 0D . ... : 3-# 0A . ... : C-3 09 . ... F96 : E-4 12 . ... : ... .. . ... ... : E-1 0E . ...
ROW 11 : ... .. . ... : ... .. . ... : ... .. . ... : ... .. . ... : ... .. . ... F7C : ... .. . ... : ... .. . ... ... : ... .. . ...
ROW 12 : ... .. . ... : ... .. . ... : ... .. . ... : ... .. . ... : ... .. . ... F96 : ... .. . ... : A-4 12 . ... ... : ... .. . ...
ROW 13 : ... .. . ... : ... .. . ... : ... .. . ... : ... .. . ... : ... .. . ... F7C : ... .. . ... : ... .. . ... ... : ... .. . ...
ROW 14 : ... .. . ... : C-3 14 . ... : E-3 0D . ... : 3-# 0A . ... : C-3 09 . ... F96 : A-4 12 . ... : ... .. . ... ... : E-1 0E . ...
ROW 15 : ... .. . ... : ... .. . ... : ... .. . ... : ... .. . ... : ... .. . ... F7C : ... .. . ... : ... .. . ... ... : ... .. . ...
ROW 16 : ... .. . ... : ... .. . ... : ... .. . ... : 3-# 0A . ... : C-3 09 . ... F96 : ... .. . ... : E-4 12 . ... ... : ... .. . ...
ROW 17 : ... .. . ... : ... .. . ... : ... .. . ... : ... .. . ... : ... .. . ... F7C : ... .. . ... : ... .. . ... ... : ... .. . ...
ROW 18 : F-3 14 . ... : C-3 14 . ... : E-3 0D . ... : 8-# 0A . ... : C#3 09 . ... F96 : G-4 12 . ... : ... .. . ... ... : E-1 0E . ...
ROW 19 : ... .. . ... : ... .. . ... : ... .. . ... : ... .. . ... : ... .. . ... F7C : ... .. . ... : ... .. . ... ... : ... .. . ...
ROW 1A : ... .. . ... : ... .. . ... : ... .. . ... : ... .. . ... : ... .. . ... F96 : ... .. . ... : A-4 12 . ... ... : ... .. . ...
ROW 1B : ... .. . ... : ... .. . ... : ... .. . ... : ... .. . ... : ... .. . ... F7C : ... .. . ... : ... .. . ... ... : ... .. . ...
ROW 1C : E-3 14 . ... : C-3 14 . ... : E-3 0D . ... : ... .. . ... : ... .. . ... F96 : A-4 12 . ... : ... .. . ... ... : E-1 0E . ...
ROW 1D : ... .. . ... : ... .. . ... : ... .. . ... : ... .. . ... : ... .. . ... F7C : ... .. . ... : ... .. . ... ... : ... .. . ...
ROW 1E : ... .. . ... : ... .. . ... : ... .. . ... : ... .. . ... : ... .. . ... F96 : ... .. . ... : G-4 12 . ... ... : ... .. . ...
ROW 1F : ... .. . ... : ... .. . ... : ... .. . ... : ... .. . ... : ... .. . ... F7C : ... .. . ... : ... .. . ... ... : ... .. . ...
ROW 20 : ... .. . ... : C-3 14 . ... : E-3 0D . ... : 3-# 0A . ... : C-3 09 . ... F96 : F-4 12 . ... : ... .. . ... ... : E-1 0E . ...
ROW 21 : ... .. . ... : ... .. . ... : ... .. . ... : ... .. . ... : ... .. . ... F7C : ... .. . ... : ... .. . ... ... : ... .. . ...
ROW 22 : ... .. . ... : ... .. . ... : ... .. . ... : ... .. . ... : ... .. . ... F96 : ... .. . ... : A-4 12 . ... ... : ... .. . ...
ROW 23 : ... .. . ... : ... .. . ... : ... .. . ... : ... .. . ... : ... .. . ... F7C : ... .. . ... : ... .. . ... ... : ... .. . ...
ROW 24 : F-3 14 . ... : C-3 14 . ... : E-3 0D . ... : ... .. . ... : ... .. . ... F96 : E-4 12 . ... : ... .. . ... ... : E-1 0E . ...
ROW 25 : ... .. . ... : ... .. . ... : ... .. . ... : ... .. . ... : ... .. . ... F7C : ... .. . ... : ... .. . ... ... : ... .. . ...
ROW 26 : ... .. . ... : ... .. . ... : ... .. . ... : 3-# 0A . ... : C-3 09 . ... F96 : ... .. . ... : F-4 12 . ... ... : ... .. . ...
ROW 27 : ... .. . ... : ... .. . ... : ... .. . ... : ... .. . ... : ... .. . ... F7C : ... .. . ... : ... .. . ... ... : ... .. . ...
ROW 28 : === .. . ... : C-3 14 . ... : E-3 0D . ... : 8-# 0A . ... : C#3 09 . ... F96 : D-4 12 . ... : ... .. . ... ... : E-1 0E . ...
ROW 29 : ... .. . ... : ... .. . ... : ... .. . ... : ... .. . ... : ... .. . ... F7C : ... .. . ... : ... .. . ... ... : ... .. . ...
ROW 2A : ... .. . ... : ... .. . ... : ... .. . ... : ... .. . ... : ... .. . ... F96 : ... .. . ... : E-4 12 . ... ... : ... .. . ...
ROW 2B : ... .. . ... : ... .. . ... : ... .. . ... : ... .. . ... : ... .. . ... F7C : ... .. . ... : ... .. . ... ... : ... .. . ...
ROW 2C : G-3 14 . ... : C-3 14 . ... : E-3 0D . ... : ... .. . ... : ... .. . ... F96 : C-4 12 . ... : ... .. . ... ... : E-1 0E . ...
ROW 2D : ... .. . ... : ... .. . ... : ... .. . ... : ... .. . ... : ... .. . ... F7C : ... .. . ... : ... .. . ... ... : ... .. . ...
ROW 2E : ... .. . ... : ... .. . ... : ... .. . ... : ... .. . ... : ... .. . ... F96 : ... .. . ... : D-4 12 . ... ... : ... .. . ...
ROW 2F : ... .. . ... : ... .. . ... : ... .. . ... : ... .. . ... : ... .. . ... F7C : ... .. . ... : ... .. . ... ... : ... .. . ...
ROW 30 : === .. . ... : C-3 14 . ... : E-3 0D . ... : 3-# 0A . ... : C-3 09 . ... F96 : D-4 12 . ... : ... .. . ... ... : E-1 0E . ...
ROW 31 : ... .. . ... : ... .. . ... : ... .. . ... : ... .. . ... : ... .. . ... F7C : ... .. . ... : ... .. . ... ... : ... .. . ...
ROW 32 : ... .. . ... : ... .. . ... : ... .. . ... : ... .. . ... : ... .. . ... F96 : ... .. . ... : C-4 12 . ... ... : ... .. . ...
ROW 33 : ... .. . ... : ... .. . ... : ... .. . ... : ... .. . ... : ... .. . ... F7C : ... .. . ... : ... .. . ... ... : ... .. . ...
ROW 34 : F-3 14 . ... : C-3 14 . ... : E-3 0D . ... : 3-# 0A . ... : C-3 09 . ... F96 : E-4 12 . ... : ... .. . ... ... : E-1 0E . ...
ROW 35 : ... .. . ... : ... .. . ... : ... .. . ... : ... .. . ... : ... .. . ... F7C : ... .. . ... : ... .. . ... ... : ... .. . ...
ROW 36 : ... .. . ... : ... .. . ... : ... .. . ... : 3-# 0A . ... : C-3 09 . ... F96 : ... .. . ... : D-4 12 . ... ... : ... .. . ...
ROW 37 : ... .. . ... : ... .. . ... : ... .. . ... : ... .. . ... : ... .. . ... F7C : ... .. . ... : ... .. . ... ... : ... .. . ...
ROW 38 : ... .. . ... : C-3 14 . ... : E-3 0D . ... : 8-# 0A . ... : C#3 09 . ... F96 : F-4 12 . ... : ... .. . ... ... : E-1 0E . ...
ROW 39 : ... .. . ... : ... .. . ... : ... .. . ... : ... .. . ... : ... .. . ... F7C : ... .. . ... : ... .. . ... ... : ... .. . ...
ROW 3A : ... .. . ... : ... .. . ... : ... .. . ... : ... .. . ... : ... .. . ... F96 : ... .. . ... : E-4 12 . ... ... : ... .. . ...
ROW 3B : ... .. . ... : ... .. . ... : ... .. . ... : ... .. . ... : ... .. . ... F7C : ... .. . ... : ... .. . ... ... : ... .. . ...
ROW 3C : ... .. . ... : C-3 14 . ... : E-3 0D . ... : ... .. . ... : ... .. . ... F96 : D-4 12 . ... : ... .. . ... ... : E-1 0E . ...
ROW 3D : ... .. . ... : ... .. . ... : ... .. . ... : ... .. . ... : ... .. . ... F7C : ... .. . ... : ... .. . ... ... : ... .. . ...
ROW 3E : ... .. . ... : ... .. . ... : ... .. . ... : ... .. . ... : ... .. . ... F96 : ... .. . ... : F-4 12 . ... ... : ... .. . ...
ROW 3F : ... .. . ... : ... .. . ... : ... .. . ... : ... .. . ... : ... .. . ... F7C : ... .. . ... : ... .. . ... ... : ... .. . ...

PATTERN 17
ROW 00 : D-3 14 . ... : A#2 14 . ... : D-3 0D . ... : 3-# 0A . ... : C-3 09 . ... F96 : F-4 12 . ... : ... .. . ... ... : D-1 0E . ...
ROW 01 : ... .. . ... : ... .. . ... : ... .. . ... : ... .. . ... : ... .. . ... F7C : ... .. . ... : ... .. . ... ... : ... .. . ...
ROW 02 : ... .. . ... : ... .. . ... : ... .. . ... : ... .. . ... : ... .. . ... F96 : ... .. . ... : D-4 12 . ... ... : ... .. . ...
ROW 03 : ... .. . ... : ... .. . ... : ... .. . ... : ... .. . ... : ... .. . ... F7C : ... .. . ... : ... .. . ... ... : ... .. . ...
ROW 04 : D-3 14 . ... : A#2 14 . ... : D-3 0D . ... : ... .. . ... : ... .. . ... F96 : A-4 12 . ... : ... .. . ... ... : D-1 0E . ...
ROW 05 : ... .. . ... : ... .. . ... : ... .. . ... : ... .. . ... : ... .. . ... F7C : ... .. . ... : ... .. . ... ... : ... .. . ...
ROW 06 : ... .. . ... : ... .. . ... : ... .. . ... : 3-# 0A . ... : C-3 09 . ... F96 : ... .. . ... : F-4 12 . ... ... : ... .. . ...
ROW 07 : ... .. . ... : ... .. . ... : ... .. . ... : ... .. . ... : ... .. . ... F7C : ... .. . ... : ... .. . ... ... : ... .. . ...
ROW 08 : E-3 14 . ... : A#2 14 . ... : D-3 0D . ... : 8-# 0A . ... : C#3 09 . ... F96 : G-4 12 . ... : ... .. . ... ... : D-1 0E . ...
ROW 09 : ... .. . ... : ... .. . ... : ... .. . ... : ... .. . ... : ... .. . ... F7C : ... .. . ... : ... .. . ... ... : ... .. . ...
ROW 0A : ... .. . ... : ... .. . ... : ... .. . ... : ... .. . ... : ... .. . ... F96 : ... .. . ... : A-4 12 . ... ... : ... .. . ...
ROW 0B : ... .. . ... : ... .. . ... : ... .. . ... : ... .. . ... : ... .. . ... F7C : ... .. . ... : ... .. . ... ... : ... .. . ...
ROW 0C : ... .. . ... : A#2 14 . ... : D-3 0D . ... : ... .. . ... : ... .. . ... F96 : A-4 12 . ... : ... .. . ... ... : D-1 0E . ...
ROW 0D : ... .. . ... : ... .. . ... : ... .. . ... : ... .. . ... : ... .. . ... F7C : ... .. . ... : ... .. . ... ... : ... .. . ...
ROW 0E : ... .. . ... : ... .. . ... : ... .. . ... : ... .. . ... : ... .. . ... F96 : ... .. . ... : G-4 12 . ... ... : ... .. . ...
ROW 0F : ... .. . ... : ... .. . ... : ... .. . ... : ... .. . ... : ... .. . ... F7C : ... .. . ... : ... .. . ... ... : ... .. . ...
ROW 10 : F-3 14 . ... : A#2 14 . ... : D-3 0D . ... : 3-# 0A . ... : C-3 09 . ... F96 : E-4 12 . ... : ... .. . ... ... : D-1 0E . ...
ROW 11 : ... .. . ... : ... .. . ... : ... .. . ... : ... .. . ... : ... .. . ... F7C : ... .. . ... : ... .. . ... ... : ... .. . ...
ROW 12 : ... .. . ... : ... .. . ... : ... .. . ... : ... .. . ... : ... .. . ... F96 : ... .. . ... : A-4 12 . ... ... : ... .. . ...
ROW 13 : ... .. . ... : ... .. . ... : ... .. . ... : ... .. . ... : ... .. . ... F7C : ... .. . ... : ... .. . ... ... : ... .. . ...
ROW 14 : ... .. . ... : A#2 14 . ... : D-3 0D . ... : 3-# 0A . ... : C-3 09 . ... F96 : A-4 12 . ... : ... .. . ... ... : D-1 0E . ...
ROW 15 : ... .. . ... : ... .. . ... : ... .. . ... : ... .. . ... : ... .. . ... F7C : ... .. . ... : ... .. . ... ... : ... .. . ...
ROW 16 : ... .. . ... : ... .. . ... : ... .. . ... : 3-# 0A . ... : C-3 09 . ... F96 : ... .. . ... : E-4 12 . ... ... : ... .. . ...
ROW 17 : ... .. . ... : ... .. . ... : ... .. . ... : ... .. . ... : ... .. . ... F7C : ... .. . ... : ... .. . ... ... : ... .. . ...
ROW 18 : E-3 14 . ... : A#2 14 . ... : D-3 0D . ... : 8-# 0A . ... : C#3 09 . ... F96 : G-4 12 . ... : ... .. . ... ... : D-1 0E . ...
ROW 19 : ... .. . ... : ... .. . ... : ... .. . ... : ... .. . ... : ... .. . ... F7C : ... .. . ... : ... .. . ... ... : ... .. . ...
ROW 1A : ... .. . ... : ... .. . ... : ... .. . ... : ... .. . ... : ... .. . ... F96 : ... .. . ... : A-4 12 . ... ... : ... .. . ...
ROW 1B : ... .. . ... : ... .. . ... : ... .. . ... : ... .. . ... : ... .. . ... F7C : ... .. . ... : ... .. . ... ... : ... .. . ...
ROW 1C : D-3 14 . ... : A#2 14 . ... : D-3 0D . ... : ... .. . ... : ... .. . ... F96 : A-4 12 . ... : ... .. . ... ... : D-1 0E . ...
ROW 1D : ... .. . ... : ... .. . ... : ... .. . ... : ... .. . ... : ... .. . ... F7C : ... .. . ... : ... .. . ... ... : ... .. . ...
ROW 1E : ... .. . ... : ... .. . ... : ... .. . ... : ... .. . ... : ... .. . ... F96 : ... .. . ... : G-4 12 . ... ... : ... .. . ...
ROW 1F : ... .. . ... : ... .. . ... : ... .. . ... : ... .. . ... : ... .. . ... F7C : ... .. . ... : ... .. . ... ... : ... .. . ...
ROW 20 : ... .. . ... : A#2 14 . ... : D-3 0D . ... : 3-# 0A . ... : C-3 09 . ... F96 : D-4 12 . ... : ... .. . ... ... : D-1 0E . ...
ROW 21 : ... .. . ... : ... .. . ... : ... .. . ... : ... .. . ... : ... .. . ... F7C : ... .. . ... : ... .. . ... ... : ... .. . ...
ROW 22 : ... .. . ... : ... .. . ... : ... .. . ... : ... .. . ... : ... .. . ... F96 : ... .. . ... : A-4 12 . ... ... : ... .. . ...
ROW 23 : ... .. . ... : ... .. . ... : ... .. . ... : ... .. . ... : ... .. . ... F7C : ... .. . ... : ... .. . ... ... : ... .. . ...
ROW 24 : E-3 14 . ... : A#2 14 . ... : D-3 0D . ... : ... .. . ... : ... .. . ... F96 : A-4 12 . ... : ... .. . ... ... : D-1 0E . ...
ROW 25 : ... .. . ... : ... .. . ... : ... .. . ... : ... .. . ... : ... .. . ... F7C : ... .. . ... : ... .. . ... ... : ... .. . ...
ROW 26 : ... .. . ... : ... .. . ... : ... .. . ... : 3-# 0A . ... : C-3 09 . ... F96 : ... .. . ... : D-4 12 . ... ... : ... .. . ...
ROW 27 : ... .. . ... : ... .. . ... : ... .. . ... : ... .. . ... : ... .. . ... F7C : ... .. . ... : ... .. . ... ... : ... .. . ...
ROW 28 : === .. . ... : A#2 14 . ... : D-3 0D . ... : 8-# 0A . ... : C#3 09 . ... F96 : G-4 12 . ... : ... .. . ... ... : D-1 0E . ...
ROW 29 : ... .. . ... : ... .. . ... : ... .. . ... : ... .. . ... : ... .. . ... F7C : ... .. . ... : ... .. . ... ... : ... .. . ...
ROW 2A : ... .. . ... : ... .. . ... : ... .. . ... : ... .. . ... : ... .. . ... F96 : ... .. . ... : A-4 12 . ... ... : ... .. . ...
ROW 2B : ... .. . ... : ... .. . ... : ... .. . ... : ... .. . ... : ... .. . ... F7C : ... .. . ... : ... .. . ... ... : ... .. . ...
ROW 2C : F-3 14 . ... : A#2 14 . ... : D-3 0D . ... : ... .. . ... : ... .. . ... F96 : A-4 12 . ... : ... .. . ... ... : D-1 0E . ...
ROW 2D : ... .. . ... : ... .. . ... : ... .. . ... : ... .. . ... : ... .. . ... F7C : ... .. . ... : ... .. . ... ... : ... .. . ...
ROW 2E : ... .. . ... : ... .. . ... : ... .. . ... : ... .. . ... : ... .. . ... F96 : ... .. . ... : G-4 12 . ... ... : ... .. . ...
ROW 2F : ... .. . ... : ... .. . ... : ... .. . ... : ... .. . ... : ... .. . ... F7C : ... .. . ... : ... .. . ... ... : ... .. . ...
ROW 30 : === .. . ... : A#2 14 . ... : D-3 0D . ... : 3-# 0A . ... : C-3 09 . ... F96 : C#4 12 . ... : ... .. . ... ... : D-1 0E . ...
ROW 31 : ... .. . ... : ... .. . ... : ... .. . ... : ... .. . ... : ... .. . ... F7C : ... .. . ... : ... .. . ... ... : ... .. . ...
ROW 32 : ... .. . ... : ... .. . ... : ... .. . ... : ... .. . ... : ... .. . ... F96 : ... .. . ... : A-4 12 . ... ... : ... .. . ...
ROW 33 : ... .. . ... : ... .. . ... : ... .. . ... : ... .. . ... : ... .. . ... F7C : ... .. . ... : ... .. . ... ... : ... .. . ...
ROW 34 : E-3 14 . ... : A#2 14 . ... : D-3 0D . ... : 3-# 0A . ... : C-3 09 . ... F96 : A-4 12 . ... : ... .. . ... ... : D-1 0E . ...
ROW 35 : ... .. . ... : ... .. . ... : ... .. . ... : ... .. . ... : ... .. . ... F7C : ... .. . ... : ... .. . ... ... : ... .. . ...
ROW 36 : ... .. . ... : ... .. . ... : ... .. . ... : 3-# 0A . ... : C-3 09 . ... F96 : ... .. . ... : C#4 12 . ... ... : ... .. . ...
ROW 37 : ... .. . ... : ... .. . ... : ... .. . ... : ... .. . ... : ... .. . ... F7C : ... .. . ... : ... .. . ... ... : ... .. . ...
ROW 38 : ... .. . ... : A#2 14 . ... : D-3 0D . ... : 8-# 0A . ... : C#3 09 . ... F96 : G-4 12 . ... : ... .. . ... ... : D-1 0E . ...
ROW 39 : ... .. . ... : ... .. . ... : ... .. . ... : ... .. . ... : ... .. . ... F7C : ... .. . ... : ... .. . ... ... : ... .. . ...
ROW 3A : ... .. . ... : ... .. . ... : ... .. . ... : ... .. . ... : ... .. . ... F96 : ... .. . ... : A-4 12 . ... ... : ... .. . ...
ROW 3B : ... .. . ... : ... .. . ... : ... .. . ... : ... .. . ... : ... .. . ... F7C : ... .. . ... : ... .. . ... ... : ... .. . ...
ROW 3C : ... .. . ... : A#2 14 . ... : D-3 0D . ... : ... .. . ... : ... .. . ... F96 : A-4 12 . ... : ... .. . ... ... : D-1 0E . ...
ROW 3D : ... .. . ... : ... .. . ... : ... .. . ... : ... .. . ... : ... .. . ... F7C : ... .. . ... : ... .. . ... ... : ... .. . ...
ROW 3E : ... .. . ... : ... .. . ... : ... .. . ... : ... .. . ... : ... .. . ... F96 : ... .. . ... : G-4 12 . ... ... : ... .. . ...
ROW 3F : ... .. . ... : ... .. . ... : ... .. . ... : ... .. . ... : ... .. . ... F7C : ... .. . ... : ... .. . ... ... : ... .. . ...

PATTERN 18
ROW 00 : E-3 14 . ... : C-3 14 . ... : E-3 0D . ... : 3-# 0A . ... : C-3 09 . ... F96 : D-4 12 . ... : ... .. . ... ... : E-1 0E . ...
ROW 01 : ... .. . ... : ... .. . ... : ... .. . ... : ... .. . ... : ... .. . ... F7C : ... .. . ... : ... .. . ... ... : ... .. . ...
ROW 02 : ... .. . ... : ... .. . ... : ... .. . ... : ... .. . ... : ... .. . ... F96 : ... .. . ... : A-4 12 . ... ... : ... .. . ...
ROW 03 : ... .. . ... : ... .. . ... : ... .. . ... : ... .. . ... : ... .. . ... F7C : ... .. . ... : ... .. . ... ... : ... .. . ...
ROW 04 : E-3 14 . ... : C-3 14 . ... : E-3 0D . ... : ... .. . ... : ... .. . ... F96 : A-4 12 . ... : ... .. . ... ... : E-1 0E . ...
ROW 05 : ... .. . ... : ... .. . ... : ... .. . ... : ... .. . ... : ... .. . ... F7C : ... .. . ... : ... .. . ... ... : ... .. . ...
ROW 06 : ... .. . ... : ... .. . ... : ... .. . ... : 3-# 0A . ... : C-3 09 . ... F96 : ... .. . ... : D-4 12 . ... ... : ... .. . ...
ROW 07 : ... .. . ... : ... .. . ... : ... .. . ... : ... .. . ... : ... .. . ... F7C : ... .. . ... : ... .. . ... ... : ... .. . ...
ROW 08 : F-3 14 . ... : C-3 14 . ... : E-3 0D . ... : 8-# 0A . ... : C#3 09 . ... F96 : G-4 12 . ... : ... .. . ... ... : E-1 0E . ...
ROW 09 : ... .. . ... : ... .. . ... : ... .. . ... : ... .. . ... : ... .. . ... F7C : ... .. . ... : ... .. . ... ... : ... .. . ...
ROW 0A : ... .. . ... : ... .. . ... : ... .. . ... : ... .. . ... : ... .. . ... F96 : ... .. . ... : A-4 12 . ... ... : ... .. . ...
ROW 0B : ... .. . ... : ... .. . ... : ... .. . ... : ... .. . ... : ... .. . ... F7C : ... .. . ... : ... .. . ... ... : ... .. . ...
ROW 0C : ... .. . ... : C-3 14 . ... : E-3 0D . ... : ... .. . ... : ... .. . ... F96 : A-4 12 . ... : ... .. . ... ... : E-1 0E . ...
ROW 0D : ... .. . ... : ... .. . ... : ... .. . ... : ... .. . ... : ... .. . ... F7C : ... .. . ... : ... .. . ... ... : ... .. . ...
ROW 0E : ... .. . ... : ... .. . ... : ... .. . ... : ... .. . ... : ... .. . ... F96 : ... .. . ... : G-4 12 . ... ... : ... .. . ...
ROW 0F : ... .. . ... : ... .. . ... : ... .. . ... : ... .. . ... : ... .. . ... F7C : ... .. . ... : ... .. . ... ... : ... .. . ...
ROW 10 : G-3 14 . ... : C-3 14 . ... : E-3 0D . ... : 3-# 0A . ... : C-3 09 . ... F96 : E-4 12 . ... : ... .. . ... ... : E-1 0E . ...
ROW 11 : ... .. . ... : ... .. . ... : ... .. . ... : ... .. . ... : ... .. . ... F7C : ... .. . ... : ... .. . ... ... : ... .. . ...
ROW 12 : ... .. . ... : ... .. . ... : ... .. . ... : ... .. . ... : ... .. . ... F96 : ... .. . ... : A-4 12 . ... ... : ... .. . ...
ROW 13 : ... .. . ... : ... .. . ... : ... .. . ... : ... .. . ... : ... .. . ... F7C : ... .. . ... : ... .. . ... ... : ... .. . ...
ROW 14 : ... .. . ... : C-3 14 . ... : E-3 0D . ... : 3-# 0A . ... : C-3 09 . ... F96 : A-4 12 . ... : ... .. . ... ... : E-1 0E . ...
ROW 15 : ... .. . ... : ... .. . ... : ... .. . ... : ... .. . ... : ... .. . ... F7C : ... .. . ... : ... .. . ... ... : ... .. . ...
ROW 16 : ... .. . ... : ... .. . ... : ... .. . ... : 3-# 0A . ... : C-3 09 . ... F96 : ... .. . ... : E-4 12 . ... ... : ... .. . ...
ROW 17 : ... .. . ... : ... .. . ... : ... .. . ... : ... .. . ... : ... .. . ... F7C : ... .. . ... : ... .. . ... ... : ... .. . ...
ROW 18 : F-3 14 . ... : C-3 14 . ... : E-3 0D . ... : 8-# 0A . ... : C#3 09 . ... F96 : G-4 12 . ... : ... .. . ... ... : E-1 0E . ...
ROW 19 : ... .. . ... : ... .. . ... : ... .. . ... : ... .. . ... : ... .. . ... F7C : ... .. . ... : ... .. . ... ... : ... .. . ...
ROW 1A : ... .. . ... : ... .. . ... : ... .. . ... : ... .. . ... : ... .. . ... F96 : ... .. . ... : A-4 12 . ... ... : ... .. . ...
ROW 1B : ... .. . ... : ... .. . ... : ... .. . ... : ... .. . ... : ... .. . ... F7C : ... .. . ... : ... .. . ... ... : ... .. . ...
ROW 1C : E-3 14 . ... : C-3 14 . ... : E-3 0D . ... : ... .. . ... : ... .. . ... F96 : A-4 12 . ... : ... .. . ... ... : E-1 0E . ...
ROW 1D : ... .. . ... : ... .. . ... : ... .. . ... : ... .. . ... : ... .. . ... F7C : ... .. . ... : ... .. . ... ... : ... .. . ...
ROW 1E : ... .. . ... : ... .. . ... : ... .. . ... : ... .. . ... : ... .. . ... F96 : ... .. . ... : G-4 12 . ... ... : ... .. . ...
ROW 1F : ... .. . ... : ... .. . ... : ... .. . ... : B-# 0B . G02 : D-3 09 . G02 F7C : ... .. . ... : ... .. . ... ... : ... .. . ...
ROW 20 : === .. . ... : C-3 14 . ... : E-3 0D . ... : B-# 0B . G01 : D-3 09 . G01 F96 : F-4 12 . ... : ... .. . ... ... : E-1 0E . ...
ROW 21 : ... .. . ... : ... .. . ... : ... .. . ... : ... .. . ... : ... .. . ... F7C : ... .. . ... : ... .. . ... ... : ... .. . ...
ROW 22 : ... .. . ... : ... .. . ... : ... .. . ... : ... .. . ... : ... .. . ... F96 : ... .. . ... : A-4 12 . ... ... : ... .. . ...
ROW 23 : ... .. . ... : ... .. . ... : ... .. . ... : B-# 0B . G02 : D-3 09 . G02 F7C : ... .. . ... : ... .. . ... ... : ... .. . ...
ROW 24 : D-4 14 . ... : C-3 14 . ... : D-4 0D . ... : B-# 0B . G01 : D-3 09 . G01 F96 : D-4 12 . ... : ... .. . ... ... : D-2 0E . ...
ROW 25 : ... .. . ... : ... .. . ... : ... .. . ... : ... .. . ... : ... .. . ... F7C : ... .. . ... : ... .. . ... ... : ... .. . ...
ROW 26 : ... .. . ... : ... .. . ... : ... .. . ... : ... .. . ... : ... .. . ... F96 : ... .. . ... : F-4 12 . ... ... : ... .. . ...
ROW 27 : ... .. . ... : ... .. . ... : ... .. . ... : A-# 0B . G02 : D#3 09 . G02 F7C : ... .. . ... : ... .. . ... ... : ... .. . ...
ROW 28 : C-4 14 . ... : C-3 14 . ... : C-4 0D . ... : A-# 0B . G01 : D#3 09 . G01 F96 : A-3 12 . ... : ... .. . ... ... : C-2 0E . ...
ROW 29 : ... .. . ... : ... .. . ... : ... .. . ... : ... .. . ... : ... .. . ... F7C : ... .. . ... : ... .. . ... ... : ... .. . ...
ROW 2A : ... .. . ... : ... .. . ... : ... .. . ... : ... .. . ... : ... .. . ... F96 : ... .. . ... : D-4 12 . ... ... : ... .. . ...
ROW 2B : ... .. . ... : ... .. . ... : ... .. . ... : A-# 0B . G02 : D#3 09 . G02 F7C : ... .. . ... : ... .. . ... ... : ... .. . ...
ROW 2C : A#3 14 . ... : C-3 14 . ... : A#3 0D . ... : A-# 0B . G01 : D#3 09 . G01 F96 : E-3 12 . ... : ... .. . ... ... : A#1 0E . ...
ROW 2D : ... .. . ... : ... .. . ... : ... .. . ... : ... .. . ... : ... .. . ... F7C : ... .. . ... : ... .. . ... ... : ... .. . ...
ROW 2E : ... .. . ... : ... .. . ... : ... .. . ... : ... .. . ... : ... .. . ... F96 : D-3 12 . ... : A-3 12 . ... ... : ... .. . ...
ROW 2F : ... .. . ... : ... .. . ... : ... .. . ... : 9-# 0B . G02 : E-3 09 . G02 F7C : ... .. . ... : ... .. . ... ... : ... .. . ...
ROW 30 : A-3 14 . ... : C-3 14 . ... : A-3 0D . ... : 9-# 0B . G01 : E-3 09 . G01 F96 : E-3 12 . ... : ... .. . ... ... : A-1 0E . ...
ROW 31 : ... .. . ... : ... .. . ... : ... .. . ... : ... .. . ... : ... .. . ... F7C : ... .. . ... : ... .. . ... ... : ... .. . ...
ROW 32 : ... .. . ... : ... .. . ... : ... .. . ... : ... .. . ... : ... .. . ... F96 : D-3 12 . ... : E-3 12 . ... ... : ... .. . ...
ROW 33 : ... .. . ... : ... .. . ... : ... .. . ... : 9-# 0B . G02 : E-3 09 . G02 F7C : ... .. . ... : ... .. . ... ... : ... .. . ...
ROW 34 : G-3 14 . ... : C-3 14 . ... : G-3 0D . ... : 9-# 0B . G01 : E-3 09 . G01 F96 : ... .. . ... : D-3 12 . ... ... : G-1 0E . ...
ROW 35 : ... .. . ... : ... .. . ... : ... .. . ... : ... .. . ... : ... .. . ... F7C : ... .. . ... : ... .. . ... ... : ... .. . ...
ROW 36 : ... .. . ... : ... .. . ... : ... .. . ... : ... .. . ... : ... .. . ... F96 : ... .. . ... : E-3 12 . ... ... : ... .. . ...
ROW 37 : ... .. . ... : ... .. . ... : ... .. . ... : 8-# 0B . G02 : F-3 09 . G02 F7C : ... .. . ... : ... .. . ... ... : ... .. . ...
ROW 38 : F-3 14 . ... : C-3 14 . ... : F-3 0D . ... : 8-# 0B . G01 : F-3 09 . G01 F96 : ... .. D ... : D-3 12 . ... ... : F-1 0E . ...
ROW 39 : ... .. . ... : ... .. . ... : ... .. . ... : ... .. . ... : ... .. . ... F7C : ... .. . ... : ... .. . ... ... : ... .. . ...
ROW 3A : ... .. . ... : ... .. . ... : ... .. . ... : ... .. . ... : ... .. . ... F96 : ... .. B ... : ... .. . ... ... : ... .. . ...
ROW 3B : ... .. . ... : ... .. . ... : ... .. . ... : 8-# 0B . G02 : F-3 09 . G02 F7C : ... .. . ... : ... .. . ... ... : ... .. . ...
ROW 3C : E-3 14 . ... : C-3 14 . ... : E-3 0D . ... : 8-# 0B . G01 : F-3 09 . G01 F96 : ... .. 9 ... : ... .. . ... ... : E-1 0E . ...
ROW 3D : ... .. . ... : ... .. . ... : ... .. . ... : ... .. . ... : ... .. . ... F7C : ... .. 7 ... : ... .. . ... ... : ... .. . ...
ROW 3E : ... .. . ... : ... .. . ... : ... .. . ... : ... .. . ... : ... .. . ... F96 : ... .. 6 ... : ... .. 7 ... ... : ... .. . ...
ROW 3F : ... .. . ... : ... .. . ... : ... .. . ... : ... .. . ... : ... .. . ... F7C : ... .. 5 ... : ... .. . ... ... : ... .. . ...

PATTERN 19
ROW 00 : D-2 14 . ... : A-1 14 . ... : D-3 0D . ... : 3-# 0A . ... : C-3 09 . ... F96 : D-4 0F F 462 : A-3 0F F 444 P80 : D-1 0E . ...
ROW 01 : ... .. . ... : ... .. . ... : ... .. . ... : ... .. . ... : ... .. . ... F7C : ... .. . ... : ... .. . ... ... : ... .. . ...
ROW 02 : ... .. . ... : ... .. . ... : ... .. . ... : ... .. . ... : ... .. . ... F96 : ... .. . ... : ... .. . ... ... : ... .. . ...
ROW 03 : ... .. . ... : ... .. . ... : ... .. . ... : ... .. . ... : ... .. . ... F7C : ... .. . ... : ... .. . ... ... : ... .. . ...
ROW 04 : D-2 14 . ... : A-1 14 . ... : D-3 0D . ... : ... .. . ... : ... .. . ... F96 : ... .. . ... : ... .. . ... ... : D-1 0E . ...
ROW 05 : ... .. . ... : ... .. . ... : ... .. . ... : ... .. . ... : ... .. . ... F7C : ... .. . ... : ... .. . ... ... : ... .. . ...
ROW 06 : ... .. . ... : ... .. . ... : ... .. . ... : 3-# 0A . ... : C-3 09 . ... F96 : ... .. . ... : ... .. . ... ... : ... .. . ...
ROW 07 : ... .. . ... : ... .. . ... : ... .. . ... : ... .. . ... : ... .. . ... F7C : ... .. . ... : ... .. . ... ... : ... .. . ...
ROW 08 : F-3 14 . ... : D-3 14 . ... : A-3 0D . ... : 8-# 0A . ... : C#3 09 . ... F96 : ... .. . ... : ... .. . ... ... : A-1 0E . ...
ROW 09 : ... .. . ... : ... .. . ... : ... .. . ... : ... .. . ... : ... .. . ... F7C : ... .. . ... : ... .. . ... ... : ... .. . ...
ROW 0A : ... .. . ... : ... .. . ... : ... .. . ... : ... .. . ... : ... .. . ... F96 : ... .. . ... : ... .. . ... ... : ... .. . ...
ROW 0B : ... .. . ... : ... .. . ... : ... .. . ... : ... .. . ... : ... .. . ... F7C : ... .. . ... : ... .. . ... ... : ... .. . ...
ROW 0C : D-2 14 . ... : A-1 14 . ... : D-3 0D . ... : ... .. . ... : ... .. . ... F96 : ... .. . ... : ... .. . ... ... : D-1 0E . ...
ROW 0D : ... .. . ... : ... .. . ... : ... .. . ... : ... .. . ... : ... .. . ... F7C : ... .. . ... : ... .. . ... ... : ... .. . ...
ROW 0E : ... .. . ... : ... .. . ... : ... .. . ... : ... .. . ... : ... .. . ... F96 : ... .. . ... : ... .. . ... ... : ... .. . ...
ROW 0F : ... .. . ... : ... .. . ... : ... .. . ... : ... .. . ... : ... .. . ... F7C : ... .. . ... : ... .. . ... ... : ... .. . ...
ROW 10 : E-3 14 . ... : C-3 14 . ... : D-3 0D . ... : 3-# 0A . ... : C-3 09 . ... F96 : ... .. . ... : ... .. . ... ... : D-1 0E . ...
ROW 11 : ... .. . ... : ... .. . ... : ... .. . ... : ... .. . ... : ... .. . ... F7C : ... .. . ... : ... .. . ... ... : ... .. . ...
ROW 12 : ... .. . ... : ... .. . ... : ... .. . ... : ... .. . ... : ... .. . ... F96 : ... .. . ... : ... .. . ... ... : ... .. . ...
ROW 13 : ... .. . ... : ... .. . ... : ... .. . ... : ... .. . ... : ... .. . ... F7C : ... .. . ... : ... .. . ... ... : ... .. . ...
ROW 14 : D-2 14 . ... : A-1 14 . ... : A#3 0D . ... : 3-# 0A . ... : C-3 09 . ... F96 : ... .. . ... : ... .. . ... ... : A#1 0E . ...
ROW 15 : ... .. . ... : ... .. . ... : ... .. . ... : ... .. . ... : ... .. . ... F7C : ... .. . ... : ... .. . ... ... : ... .. . ...
ROW 16 : ... .. . ... : ... .. . ... : ... .. . ... : 3-# 0A . ... : C-3 09 . ... F96 : ... .. . ... : ... .. . ... ... : ... .. . ...
ROW 17 : ... .. . ... : ... .. . ... : ... .. . ... : ... .. . ... : ... .. . ... F7C : ... .. . ... : ... .. . ... ... : ... .. . ...
ROW 18 : F-3 14 . ... : D-3 14 . ... : D-3 0D . ... : 8-# 0A . ... : C#3 09 . ... F96 : ... .. . ... : ... .. . ... ... : D-1 0E . ...
ROW 19 : ... .. . ... : ... .. . ... : ... .. . ... : ... .. . ... : ... .. . ... F7C : ... .. . ... : ... .. . ... ... : ... .. . ...
ROW 1A : ... .. . ... : ... .. . ... : ... .. . ... : ... .. . ... : ... .. . ... F96 : ... .. . ... : ... .. . ... ... : ... .. . ...
ROW 1B : ... .. . ... : ... .. . ... : ... .. . ... : ... .. . ... : ... .. . ... F7C : ... .. . ... : ... .. . ... ... : ... .. . ...
ROW 1C : D-2 14 . ... : A-1 14 . ... : D-3 0D . ... : ... .. . ... : ... .. . ... F96 : ... .. . ... : ... .. . ... ... : D-1 0E . ...
ROW 1D : ... .. . ... : ... .. . ... : ... .. . ... : ... .. . ... : ... .. . ... F7C : ... .. . ... : ... .. . ... ... : ... .. . ...
ROW 1E : ... .. . ... : ... .. . ... : ... .. . ... : ... .. . ... : ... .. . ... F96 : ... .. . ... : ... .. . ... ... : ... .. . ...
ROW 1F : ... .. . ... : ... .. . ... : ... .. . ... : ... .. . ... : ... .. . ... F7C : ... .. . ... : ... .. . ... ... : ... .. . ...
ROW 20 : G-3 14 . ... : E-3 14 . ... : C-4 0D . ... : 3-# 0A . ... : C-3 09 . ... F96 : ... .. . ... : ... .. . ... ... : C-2 0E . ...
ROW 21 : ... .. . ... : ... .. . ... : ... .. . ... : ... .. . ... : ... .. . ... F7C : ... .. . ... : ... .. . ... ... : ... .. . ...
ROW 22 : ... .. . ... : ... .. . ... : ... .. . ... : ... .. . ... : ... .. . ... F96 : ... .. . ... : ... .. . ... ... : ... .. . ...
ROW 23 : ... .. . ... : ... .. . ... : ... .. . ... : ... .. . ... : ... .. . ... F7C : ... .. . ... : ... .. . ... ... : ... .. . ...
ROW 24 : D-2 14 . ... : A-1 14 . ... : D-3 0D . ... : ... .. . ... : ... .. . ... F96 : ... .. . ... : ... .. . ... ... : D-1 0E . ...
ROW 25 : ... .. . ... : ... .. . ... : ... .. . ... : ... .. . ... : ... .. . ... F7C : ... .. . ... : ... .. . ... ... : ... .. . ...
ROW 26 : ... .. . ... : ... .. . ... : ... .. . ... : 3-# 0A . ... : C-3 09 . ... F96 : ... .. . ... : ... .. . ... ... : ... .. . ...
ROW 27 : ... .. . ... : ... .. . ... : ... .. . ... : ... .. . ... : ... .. . ... F7C : ... .. . ... : ... .. . ... ... : ... .. . ...
ROW 28 : F-3 14 . ... : D-3 14 . ... : D-3 0D . ... : 8-# 0A . ... : C#3 09 . ... F96 : ... .. . ... : ... .. . ... ... : D-1 0E . ...
ROW 29 : ... .. . ... : ... .. . ... : ... .. . ... : ... .. . ... : ... .. . ... F7C : ... .. . ... : ... .. . ... ... : ... .. . ...
ROW 2A : ... .. . ... : ... .. . ... : ... .. . ... : ... .. . ... : ... .. . ... F96 : ... .. . ... : ... .. . ... ... : ... .. . ...
ROW 2B : ... .. . ... : ... .. . ... : ... .. . ... : ... .. . ... : ... .. . ... F7C : ... .. . ... : ... .. . ... ... : ... .. . ...
ROW 2C : D-2 14 . ... : A-1 14 . ... : A#3 0D . ... : ... .. . ... : ... .. . ... F96 : ... .. . ... : ... .. . ... ... : A#1 0E . ...
ROW 2D : ... .. . ... : ... .. . ... : ... .. . ... : ... .. . ... : ... .. . ... F7C : ... .. . ... : ... .. . ... ... : ... .. . ...
ROW 2E : ... .. . ... : ... .. . ... : ... .. . ... : ... .. . ... : ... .. . ... F96 : ... .. . ... : ... .. . ... ... : ... .. . ...
ROW 2F : ... .. . ... : ... .. . ... : ... .. . ... : ... .. . ... : ... .. . ... F7C : ... .. . ... : ... .. . ... ... : ... .. . ...
ROW 30 : E-3 14 . ... : C-3 14 . ... : A-3 0D . ... : 3-# 0A . ... : C-3 09 . ... F96 : ... .. . ... : ... .. . ... ... : A-1 0E . ...
ROW 31 : ... .. . ... : ... .. . ... : ... .. . ... : ... .. . ... : ... .. . ... F7C : ... .. . ... : ... .. . ... ... : ... .. . ...
ROW 32 : ... .. . ... : ... .. . ... : ... .. . ... : ... .. . ... : ... .. . ... F96 : ... .. . ... : ... .. . ... ... : ... .. . ...
ROW 33 : ... .. . ... : ... .. . ... : ... .. . ... : ... .. . ... : ... .. . ... F7C : ... .. . ... : ... .. . ... ... : ... .. . ...
ROW 34 : F-3 14 . ... : D-3 14 . ... : G-3 0D . ... : 3-# 0A . ... : C-3 09 . ... F96 : ... .. . ... : ... .. . ... ... : G-1 0E . ...
ROW 35 : ... .. . ... : ... .. . ... : ... .. . ... : ... .. . ... : ... .. . ... F7C : ... .. . ... : ... .. . ... ... : ... .. . ...
ROW 36 : ... .. . ... : ... .. . ... : ... .. . ... : 3-# 0A . ... : C-3 09 . ... F96 : ... .. . ... : ... .. . ... ... : ... .. . ...
ROW 37 : ... .. . ... : ... .. . ... : ... .. . ... : ... .. . ... : ... .. . ... F7C : ... .. . ... : ... .. . ... ... : ... .. . ...
ROW 38 : ... .. . ... : ... .. . ... : F-3 0D . ... : 8-# 0A . ... : C#3 09 . ... F96 : ... .. . ... : ... .. . ... ... : F-1 0E . ...
ROW 39 : ... .. . ... : ... .. . ... : ... .. . ... : ... .. . ... : ... .. . ... F7C : ... .. . ... : ... .. . ... ... : ... .. . ...
ROW 3A : ... .. . ... : ... .. . ... : ... .. . ... : ... .. . ... : ... .. . ... F96 : ... .. . ... : ... .. . ... ... : ... .. . ...
ROW 3B : ... .. . ... : ... .. . ... : ... .. . ... : ... .. . ... : ... .. . ... F7C : ... .. . ... : ... .. . ... ... : ... .. . ...
ROW 3C : ... .. . ... : ... .. . ... : E-3 0D . ... : ... .. . ... : ... .. . ... F96 : ... .. . ... : ... .. . ... ... : E-1 0E . ...
ROW 3D : ... .. . ... : ... .. . ... : ... .. . ... : ... .. . ... : ... .. . ... F7C : ... .. . ... : ... .. . ... ... : ... .. . ...
ROW 3E : ... .. . ... : ... .. . ... : ... .. . ... : ... .. . ... : ... .. . ... F96 : ... .. . ... : ... .. . ... ... : ... .. . ...
ROW 3F : ... .. . ... : ... .. . ... : ... .. . ... : ... .. . ... : ... .. . ... F7C : ... .. . ... : ... .. . ... ... : ... .. . ...

PATTERN 1A
ROW 00 : D-2 14 . ... : A-1 14 . ... : D-3 0D . ... : 3-# 0A . ... : C-3 09 . ... F96 : E-4 0F . 462 : C-4 0F . 444 ... : D-1 0E . ...
ROW 01 : ... .. . ... : ... .. . ... : ... .. . ... : ... .. . ... : ... .. . ... F7C : ... .. . ... : ... .. . ... ... : ... .. . ...
ROW 02 : ... .. . ... : ... .. . ... : ... .. . ... : ... .. . ... : ... .. . ... F96 : ... .. . ... : ... .. . ... ... : ... .. . ...
ROW 03 : ... .. . ... : ... .. . ... : ... .. . ... : ... .. . ... : ... .. . ... F7C : ... .. . ... : ... .. . ... ... : ... .. . ...
ROW 04 : D-2 14 . ... : A-1 14 . ... : D-3 0D . ... : ... .. . ... : ... .. . ... F96 : ... .. . ... : ... .. . ... ... : D-1 0E . ...
ROW 05 : ... .. . ... : ... .. . ... : ... .. . ... : ... .. . ... : ... .. . ... F7C : ... .. . ... : ... .. . ... ... : ... .. . ...
ROW 06 : ... .. . ... : ... .. . ... : ... .. . ... : 3-# 0A . ... : C-3 09 . ... F96 : ... .. . ... : ... .. . ... ... : ... .. . ...
ROW 07 : ... .. . ... : ... .. . ... : ... .. . ... : ... .. . ... : ... .. . ... F7C : ... .. . ... : ... .. . ... ... : ... .. . ...
ROW 08 : F-3 14 . ... : D-3 14 . ... : A-3 0D . ... : 8-# 0A . ... : C#3 09 . ... F96 : ... .. . ... : ... .. . ... ... : A-1 0E . ...
ROW 09 : ... .. . ... : ... .. . ... : ... .. . ... : ... .. . ... : ... .. . ... F7C : ... .. . ... : ... .. . ... ... : ... .. . ...
ROW 0A : ... .. . ... : ... .. . ... : ... .. . ... : ... .. . ... : ... .. . ... F96 : ... .. . ... : ... .. . ... ... : ... .. . ...
ROW 0B : ... .. . ... : ... .. . ... : ... .. . ... : ... .. . ... : ... .. . ... F7C : ... .. . ... : ... .. . ... ... : ... .. . ...
ROW 0C : D-2 14 . ... : A-1 14 . ... : D-3 0D . ... : ... .. . ... : ... .. . ... F96 : ... .. . ... : ... .. . ... ... : D-1 0E . ...
ROW 0D : ... .. . ... : ... .. . ... : ... .. . ... : ... .. . ... : ... .. . ... F7C : ... .. . ... : ... .. . ... ... : ... .. . ...
ROW 0E : ... .. . ... : ... .. . ... : ... .. . ... : ... .. . ... : ... .. . ... F96 : ... .. . ... : ... .. . ... ... : ... .. . ...
ROW 0F : ... .. . ... : ... .. . ... : ... .. . ... : ... .. . ... : ... .. . ... F7C : ... .. . ... : ... .. . ... ... : ... .. . ...
ROW 10 : E-3 14 . ... : C-3 14 . ... : D-3 0D . ... : 3-# 0A . ... : C-3 09 . ... F96 : ... .. . ... : ... .. . ... ... : D-1 0E . ...
ROW 11 : ... .. . ... : ... .. . ... : ... .. . ... : ... .. . ... : ... .. . ... F7C : ... .. . ... : ... .. . ... ... : ... .. . ...
ROW 12 : ... .. . ... : ... .. . ... : ... .. . ... : ... .. . ... : ... .. . ... F96 : ... .. . ... : ... .. . ... ... : ... .. . ...
ROW 13 : ... .. . ... : ... .. . ... : ... .. . ... : ... .. . ... : ... .. . ... F7C : ... .. . ... : ... .. . ... ... : ... .. . ...
ROW 14 : D-2 14 . ... : A-1 14 . ... : A#3 0D . ... : 3-# 0A . ... : C-3 09 . ... F96 : ... .. . ... : ... .. . ... ... : A#1 0E . ...
ROW 15 : ... .. . ... : ... .. . ... : ... .. . ... : ... .. . ... : ... .. . ... F7C : ... .. . ... : ... .. . ... ... : ... .. . ...
ROW 16 : ... .. . ... : ... .. . ... : ... .. . ... : 3-# 0A . ... : C-3 09 . ... F96 : ... .. . ... : ... .. . ... ... : ... .. . ...
ROW 17 : ... .. . ... : ... .. . ... : ... .. . ... : ... .. . ... : ... .. . ... F7C : ... .. . ... : ... .. . ... ... : ... .. . ...
ROW 18 : F-3 14 . ... : D-3 14 . ... : D-3 0D . ... : 8-# 0A . ... : C#3 09 . ... F96 : ... .. . ... : ... .. . ... ... : D-1 0E . ...
ROW 19 : ... .. . ... : ... .. . ... : ... .. . ... : ... .. . ... : ... .. . ... F7C : ... .. . ... : ... .. . ... ... : ... .. . ...
ROW 1A : ... .. . ... : ... .. . ... : ... .. . ... : ... .. . ... : ... .. . ... F96 : ... .. . ... : ... .. . ... ... : ... .. . ...
ROW 1B : ... .. . ... : ... .. . ... : ... .. . ... : ... .. . ... : ... .. . ... F7C : ... .. . ... : ... .. . ... ... : ... .. . ...
ROW 1C : D-2 14 . ... : A-1 14 . ... : D-3 0D . ... : ... .. . ... : ... .. . ... F96 : ... .. . ... : ... .. . ... ... : D-1 0E . ...
ROW 1D : ... .. . ... : ... .. . ... : ... .. . ... : ... .. . ... : ... .. . ... F7C : ... .. . ... : ... .. . ... ... : ... .. . ...
ROW 1E : ... .. . ... : ... .. . ... : ... .. . ... : ... .. . ... : ... .. . ... F96 : ... .. . ... : ... .. . ... ... : ... .. . ...
ROW 1F : ... .. . ... : ... .. . ... : ... .. . ... : ... .. . ... : ... .. . ... F7C : ... .. . ... : ... .. . ... ... : ... .. . ...
ROW 20 : G-3 14 . ... : E-3 14 . ... : C-4 0D . ... : 3-# 0A . ... : C-3 09 . ... F96 : ... .. . ... : ... .. . ... ... : C-2 0E . ...
ROW 21 : ... .. . ... : ... .. . ... : ... .. . ... : ... .. . ... : ... .. . ... F7C : ... .. . ... : ... .. . ... ... : ... .. . ...
ROW 22 : ... .. . ... : ... .. . ... : ... .. . ... : ... .. . ... : ... .. . ... F96 : ... .. . ... : ... .. . ... ... : ... .. . ...
ROW 23 : ... .. . ... : ... .. . ... : ... .. . ... : ... .. . ... : ... .. . ... F7C : ... .. . ... : ... .. . ... ... : ... .. . ...
ROW 24 : D-2 14 . ... : A-1 14 . ... : D-3 0D . ... : ... .. . ... : ... .. . ... F96 : ... .. . ... : ... .. . ... ... : D-1 0E . ...
ROW 25 : ... .. . ... : ... .. . ... : ... .. . ... : ... .. . ... : ... .. . ... F7C : ... .. . ... : ... .. . ... ... : ... .. . ...
ROW 26 : ... .. . ... : ... .. . ... : ... .. . ... : 3-# 0A . ... : C-3 09 . ... F96 : ... .. . ... : ... .. . ... ... : ... .. . ...
ROW 27 : ... .. . ... : ... .. . ... : ... .. . ... : ... .. . ... : ... .. . ... F7C : ... .. . ... : ... .. . ... ... : ... .. . ...
ROW 28 : F-3 14 . ... : D-3 14 . ... : D-3 0D . ... : 8-# 0A . ... : C#3 09 . ... F96 : ... .. . ... : ... .. . ... ... : D-1 0E . ...
ROW 29 : ... .. . ... : ... .. . ... : ... .. . ... : ... .. . ... : ... .. . ... F7C : ... .. . ... : ... .. . ... ... : ... .. . ...
ROW 2A : ... .. . ... : ... .. . ... : ... .. . ... : ... .. . ... : ... .. . ... F96 : ... .. . ... : ... .. . ... ... : ... .. . ...
ROW 2B : ... .. . ... : ... .. . ... : ... .. . ... : ... .. . ... : ... .. . ... F7C : ... .. . ... : ... .. . ... ... : ... .. . ...
ROW 2C : D-2 14 . ... : A-1 14 . ... : A#3 0D . ... : ... .. . ... : ... .. . ... F96 : ... .. . ... : ... .. . ... ... : A#1 0E . ...
ROW 2D : ... .. . ... : ... .. . ... : ... .. . ... : ... .. . ... : ... .. . ... F7C : ... .. . ... : ... .. . ... ... : ... .. . ...
ROW 2E : ... .. . ... : ... .. . ... : ... .. . ... : ... .. . ... : ... .. . ... F96 : ... .. . ... : ... .. . ... ... : ... .. . ...
ROW 2F : ... .. . ... : ... .. . ... : ... .. . ... : ... .. . ... : ... .. . ... F7C : ... .. . ... : ... .. . ... ... : ... .. . ...
ROW 30 : E-3 14 . ... : C-3 14 . ... : A-3 0D . ... : 3-# 0A . ... : C-3 09 . ... F96 : ... .. . ... : ... .. . ... ... : A-1 0E . ...
ROW 31 : ... .. . ... : ... .. . ... : ... .. . ... : ... .. . ... : ... .. . ... F7C : ... .. . ... : ... .. . ... ... : ... .. . ...
ROW 32 : ... .. . ... : ... .. . ... : ... .. . ... : ... .. . ... : ... .. . ... F96 : ... .. . ... : ... .. . ... ... : ... .. . ...
ROW 33 : ... .. . ... : ... .. . ... : ... .. . ... : ... .. . ... : ... .. . ... F7C : ... .. . ... : ... .. . ... ... : ... .. . ...
ROW 34 : F-3 14 . ... : D-3 14 . ... : G-3 0D . ... : 3-# 0A . ... : C-3 09 . ... F96 : ... .. . ... : ... .. . ... ... : G-1 0E . ...
ROW 35 : ... .. . ... : ... .. . ... : ... .. . ... : ... .. . ... : ... .. . ... F7C : ... .. . ... : ... .. . ... ... : ... .. . ...
ROW 36 : ... .. . ... : ... .. . ... : ... .. . ... : 3-# 0A . ... : C-3 09 . ... F96 : ... .. . ... : ... .. . ... ... : ... .. . ...
ROW 37 : ... .. . ... : ... .. . ... : ... .. . ... : ... .. . ... : ... .. . ... F7C : ... .. . ... : ... .. . ... ... : ... .. . ...
ROW 38 : ... .. . ... : ... .. . ... : F-3 0D . ... : 8-# 0A . ... : C#3 09 . ... F96 : ... .. . ... : ... .. . ... ... : F-1 0E . ...
ROW 39 : ... .. . ... : ... .. . ... : ... .. . ... : ... .. . ... : ... .. . ... F7C : ... .. . ... : ... .. . ... ... : ... .. . ...
ROW 3A : ... .. . ... : ... .. . ... : ... .. . ... : ... .. . ... : ... .. . ... F96 : ... .. . ... : ... .. . ... ... : ... .. . ...
ROW 3B : ... .. . ... : ... .. . ... : ... .. . ... : ... .. . ... : ... .. . ... F7C : ... .. . ... : ... .. . ... ... : ... .. . ...
ROW 3C : ... .. . ... : ... .. . ... : E-3 0D . ... : ... .. . ... : ... .. . ... F96 : ... .. . ... : ... .. . ... ... : E-1 0E . ...
ROW 3D : ... .. . ... : ... .. . ... : ... .. . ... : ... .. . ... : ... .. . ... F7C : ... .. . ... : ... .. . ... ... : ... .. . ...
ROW 3E : ... .. . ... : ... .. . ... : ... .. . ... : ... .. . ... : ... .. . ... F96 : ... .. . ... : ... .. . ... ... : ... .. . ...
ROW 3F : ... .. . ... : ... .. . ... : ... .. . ... : ... .. . ... : ... .. . ... F7C : ... .. . ... : ... .. . ... ... : ... .. . ...

PATTERN 1B
ROW 00 : D-3 14 . ... : A#2 14 . ... : D-3 0D . ... : 3-# 0A . ... : C-3 09 . ... F96 : G-4 0F . 462 : E-4 0F . 444 ... : D-1 0E . ...
ROW 01 : ... .. . ... : ... .. . ... : ... .. . ... : ... .. . ... : ... .. . ... F7C : ... .. . ... : ... .. . ... ... : ... .. . ...
ROW 02 : ... .. . ... : ... .. . ... : ... .. . ... : ... .. . ... : ... .. . ... F96 : ... .. . ... : ... .. . ... ... : ... .. . ...
ROW 03 : ... .. . ... : ... .. . ... : ... .. . ... : ... .. . ... : ... .. . ... F7C : ... .. . ... : ... .. . ... ... : ... .. . ...
ROW 04 : ... .. . ... : ... .. . ... : D-3 0D . ... : ... .. . ... : ... .. . ... F96 : ... .. . ... : ... .. . ... ... : D-1 0E . ...
ROW 05 : ... .. . ... : ... .. . ... : ... .. . ... : ... .. . ... : ... .. . ... F7C : ... .. . ... : ... .. . ... ... : ... .. . ...
ROW 06 : ... .. . ... : ... .. . ... : ... .. . ... : 3-# 0A . ... : C-3 09 . ... F96 : ... .. . ... : ... .. . ... ... : ... .. . ...
ROW 07 : ... .. . ... : ... .. . ... : ... .. . ... : ... .. . ... : ... .. . ... F7C : ... .. . ... : ... .. . ... ... : ... .. . ...
ROW 08 : ... .. . ... : ... .. . ... : D-3 0D . ... : 8-# 0A . ... : C#3 09 . ... F96 : ... .. . ... : ... .. . ... ... : D-1 0E . ...
ROW 09 : ... .. . ... : ... .. . ... : ... .. . ... : ... .. . ... : ... .. . ... F7C : ... .. . ... : ... .. . ... ... : ... .. . ...
ROW 0A : ... .. . ... : ... .. . ... : ... .. . ... : ... .. . ... : ... .. . ... F96 : ... .. . ... : ... .. . ... ... : ... .. . ...
ROW 0B : ... .. . ... : ... .. . ... : ... .. . ... : ... .. . ... : ... .. . ... F7C : ... .. . ... : ... .. . ... ... : ... .. . ...
ROW 0C : ... .. . ... : ... .. . ... : D-3 0D . ... : ... .. . ... : ... .. . ... F96 : ... .. . ... : ... .. . ... ... : D-1 0E . ...
ROW 0D : ... .. . ... : ... .. . ... : ... .. . ... : ... .. . ... : ... .. . ... F7C : ... .. . ... : ... .. . ... ... : ... .. . ...
ROW 0E : ... .. . ... : ... .. . ... : ... .. . ... : ... .. . ... : ... .. . ... F96 : ... .. . ... : ... .. . ... ... : ... .. . ...
ROW 0F : ... .. . ... : ... .. . ... : ... .. . ... : ... .. . ... : ... .. . ... F7C : ... .. . ... : ... .. . ... ... : ... .. . ...
ROW 10 : ... .. . ... : ... .. . ... : D-3 0D . ... : 3-# 0A . ... : C-3 09 . ... F96 : ... .. . ... : ... .. . ... ... : D-1 0E . ...
ROW 11 : ... .. . ... : ... .. . ... : ... .. . ... : ... .. . ... : ... .. . ... F7C : ... .. . ... : ... .. . ... ... : ... .. . ...
ROW 12 : ... .. . ... : ... .. . ... : ... .. . ... : ... .. . ... : ... .. . ... F96 : ... .. . ... : ... .. . ... ... : ... .. . ...
ROW 13 : ... .. . ... : ... .. . ... : ... .. . ... : ... .. . ... : ... .. . ... F7C : ... .. . ... : ... .. . ... ... : ... .. . ...
ROW 14 : ... .. . ... : ... .. . ... : E-3 0D . ... : 3-# 0A . ... : C-3 09 . ... F96 : ... .. . ... : ... .. . ... ... : E-1 0E . ...
ROW 15 : ... .. . ... : ... .. . ... : ... .. . ... : ... .. . ... : ... .. . ... F7C : ... .. . ... : ... .. . ... ... : ... .. . ...
ROW 16 : ... .. . ... : ... .. . ... : ... .. . ... : 3-# 0A . ... : C-3 09 . ... F96 : ... .. . ... : ... .. . ... ... : ... .. . ...
ROW 17 : ... .. . ... : ... .. . ... : ... .. . ... : ... .. . ... : ... .. . ... F7C : ... .. . ... : ... .. . ... ... : ... .. . ...
ROW 18 : ... .. . ... : ... .. . ... : ... .. . ... : 8-# 0A . ... : C#3 09 . ... F96 : ... .. . ... : ... .. . ... ... : ... .. . ...
ROW 19 : ... .. . ... : ... .. . ... : ... .. . ... : ... .. . ... : ... .. . ... F7C : ... .. . ... : ... .. . ... ... : ... .. . ...
ROW 1A : ... .. . ... : ... .. . ... : ... .. . ... : ... .. . ... : ... .. . ... F96 : ... .. . ... : ... .. . ... ... : ... .. . ...
ROW 1B : ... .. . ... : ... .. . ... : ... .. . ... : ... .. . ... : ... .. . ... F7C : ... .. . ... : ... .. . ... ... : ... .. . ...
ROW 1C : ... .. . ... : ... .. . ... : F-3 0D . ... : ... .. . ... : ... .. . ... F96 : ... .. . ... : ... .. . ... ... : F-1 0E . ...
ROW 1D : ... .. . ... : ... .. . ... : ... .. . ... : ... .. . ... : ... .. . ... F7C : ... .. . ... : ... .. . ... ... : ... .. . ...
ROW 1E : ... .. . ... : ... .. . ... : ... .. . ... : ... .. . ... : ... .. . ... F96 : ... .. . ... : ... .. . ... ... : ... .. . ...
ROW 1F : ... .. . ... : ... .. . ... : ... .. . ... : ... .. . ... : ... .. . ... F7C : ... .. . ... : ... .. . ... ... : ... .. . ...
ROW 20 : E-3 14 . ... : C-3 14 . ... : E-3 0D . ... : 3-# 0A . ... : C-3 09 . ... F96 : ... .. . ... : ... .. . ... ... : E-1 0E . ...
ROW 21 : ... .. . ... : ... .. . ... : ... .. . ... : ... .. . ... : ... .. . ... F7C : ... .. . ... : ... .. . ... ... : ... .. . ...
ROW 22 : ... .. . ... : ... .. . ... : ... .. . ... : ... .. . ... : ... .. . ... F96 : ... .. . ... : ... .. . ... ... : ... .. . ...
ROW 23 : ... .. . ... : ... .. . ... : ... .. . ... : ... .. . ... : ... .. . ... F7C : ... .. . ... : ... .. . ... ... : ... .. . ...
ROW 24 : ... .. . ... : ... .. . ... : E-3 0D . ... : ... .. . ... : ... .. . ... F96 : ... .. . ... : ... .. . ... ... : E-1 0E . ...
ROW 25 : ... .. . ... : ... .. . ... : ... .. . ... : ... .. . ... : ... .. . ... F7C : ... .. . ... : ... .. . ... ... : ... .. . ...
ROW 26 : ... .. . ... : ... .. . ... : ... .. . ... : 3-# 0A . ... : C-3 09 . ... F96 : ... .. . ... : ... .. . ... ... : ... .. . ...
ROW 27 : ... .. . ... : ... .. . ... : ... .. . ... : ... .. . ... : ... .. . ... F7C : ... .. . ... : ... .. . ... ... : ... .. . ...
ROW 28 : ... .. . ... : ... .. . ... : E-3 0D . ... : 8-# 0A . ... : C#3 09 . ... F96 : ... .. . ... : ... .. . ... ... : E-1 0E . ...
ROW 29 : ... .. . ... : ... .. . ... : ... .. . ... : ... .. . ... : ... .. . ... F7C : ... .. . ... : ... .. . ... ... : ... .. . ...
ROW 2A : ... .. . ... : ... .. . ... : ... .. . ... : ... .. . ... : ... .. . ... F96 : ... .. . ... : ... .. . ... ... : ... .. . ...
ROW 2B : ... .. . ... : ... .. . ... : ... .. . ... : ... .. . ... : ... .. . ... F7C : ... .. . ... : ... .. . ... ... : ... .. . ...
ROW 2C : ... .. . ... : ... .. . ... : E-3 0D . ... : ... .. . ... : ... .. . ... F96 : ... .. . ... : ... .. . ... ... : E-1 0E . ...
ROW 2D : ... .. . ... : ... .. . ... : ... .. . ... : ... .. . ... : ... .. . ... F7C : ... .. . ... : ... .. . ... ... : ... .. . ...
ROW 2E : ... .. . ... : ... .. . ... : ... .. . ... : ... .. . ... : ... .. . ... F96 : ... .. . ... : ... .. . ... ... : ... .. . ...
ROW 2F : ... .. . ... : ... .. . ... : ... .. . ... : ... .. . ... : ... .. . ... F7C : ... .. . ... : ... .. . ... ... : ... .. . ...
ROW 30 : ... .. . ... : ... .. . ... : E-3 0D . ... : 3-# 0A . ... : C-3 09 . ... F96 : ... .. . ... : ... .. . ... ... : E-1 0E . ...
ROW 31 : ... .. . ... : ... .. . ... : ... .. . ... : ... .. . ... : ... .. . ... F7C : ... .. . ... : ... .. . ... ... : ... .. . ...
ROW 32 : ... .. . ... : ... .. . ... : ... .. . ... : ... .. . ... : ... .. . ... F96 : ... .. . ... : ... .. . ... ... : ... .. . ...
ROW 33 : ... .. . ... : ... .. . ... : ... .. . ... : ... .. . ... : ... .. . ... F7C : ... .. . ... : ... .. . ... ... : ... .. . ...
ROW 34 : ... .. . ... : ... .. . ... : F-3 0D . ... : 3-# 0A . ... : C-3 09 . ... F96 : ... .. . ... : ... .. . ... ... : F-1 0E . ...
ROW 35 : ... .. . ... : ... .. . ... : ... .. . ... : ... .. . ... : ... .. . ... F7C : ... .. . ... : ... .. . ... ... : ... .. . ...
ROW 36 : ... .. . ... : ... .. . ... : ... .. . ... : 3-# 0A . ... : C-3 09 . ... F96 : ... .. . ... : ... .. . ... ... : ... .. . ...
ROW 37 : ... .. . ... : ... .. . ... : ... .. . ... : ... .. . ... : ... .. . ... F7C : ... .. . ... : ... .. . ... ... : ... .. . ...
ROW 38 : ... .. . ... : ... .. . ... : ... .. . ... : 8-# 0A . ... : C#3 09 . ... F96 : ... .. . ... : ... .. . ... ... : ... .. . ...
ROW 39 : ... .. . ... : ... .. . ... : ... .. . ... : ... .. . ... : ... .. . ... F7C : ... .. . ... : ... .. . ... ... : ... .. . ...
ROW 3A : ... .. . ... : ... .. . ... : ... .. . ... : ... .. . ... : ... .. . ... F96 : ... .. . ... : ... .. . ... ... : ... .. . ...
ROW 3B : ... .. . ... : ... .. . ... : ... .. . ... : ... .. . ... : ... .. . ... F7C : ... .. . ... : ... .. . ... ... : ... .. . ...
ROW 3C : ... .. . ... : ... .. . ... : G-3 0D . ... : ... .. . ... : ... .. . ... F96 : ... .. . ... : ... .. . ... ... : G-1 0E . ...
ROW 3D : ... .. . ... : ... .. . ... : ... .. . ... : ... .. . ... : ... .. . ... F7C : ... .. . ... : ... .. . ... ... : ... .. . ...
ROW 3E : ... .. . ... : ... .. . ... : ... .. . ... : ... .. . ... : ... .. . ... F96 : ... .. . ... : ... .. . ... ... : ... .. . ...
ROW 3F : ... .. . ... : ... .. . ... : ... .. . ... : ... .. . ... : ... .. . ... F7C : ... .. . ... : ... .. . ... ... : ... .. . ...

PATTERN 1C
ROW 00 : D-2 14 . ... : A-1 14 . ... : D-3 0D . ... : 3-# 0A . ... : C-3 09 . ... F96 : D-4 0F . 462 : A-3 0F . 444 ... : D-1 0E . ...
ROW 01 : ... .. . ... : ... .. . ... : ... .. . ... : ... .. . ... : ... .. . ... F7C : ... .. . ... : ... .. . ... ... : ... .. . ...
ROW 02 : ... .. . ... : ... .. . ... : ... .. . ... : ... .. . ... : ... .. . ... F96 : ... .. . ... : ... .. . ... ... : ... .. . ...
ROW 03 : ... .. . ... : ... .. . ... : ... .. . ... : ... .. . ... : ... .. . ... F7C : ... .. . ... : ... .. . ... ... : ... .. . ...
ROW 04 : D-2 14 . ... : A-1 14 . ... : D-3 0D . ... : ... .. . ... : ... .. . ... F96 : ... .. . ... : ... .. . ... ... : D-1 0E . ...
ROW 05 : ... .. . ... : ... .. . ... : ... .. . ... : ... .. . ... : ... .. . ... F7C : ... .. . ... : ... .. . ... ... : ... .. . ...
ROW 06 : ... .. . ... : ... .. . ... : ... .. . ... : 3-# 0A . ... : C-3 09 . ... F96 : ... .. . ... : ... .. . ... ... : ... .. . ...
ROW 07 : ... .. . ... : ... .. . ... : ... .. . ... : ... .. . ... : ... .. . ... F7C : ... .. . ... : ... .. . ... ... : ... .. . ...
ROW 08 : F-3 14 . ... : D-3 14 . ... : A-3 0D . ... : 8-# 0A . ... : C#3 09 . ... F96 : ... .. . ... : ... .. . ... ... : A-1 0E . ...
ROW 09 : ... .. . ... : ... .. . ... : ... .. . ... : ... .. . ... : ... .. . ... F7C : ... .. . ... : ... .. . ... ... : ... .. . ...
ROW 0A : ... .. . ... : ... .. . ... : ... .. . ... : ... .. . ... : ... .. . ... F96 : ... .. . ... : ... .. . ... ... : ... .. . ...
ROW 0B : ... .. . ... : ... .. . ... : ... .. . ... : ... .. . ... : ... .. . ... F7C : ... .. . ... : ... .. . ... ... : ... .. . ...
ROW 0C : D-2 14 . ... : A-1 14 . ... : D-3 0D . ... : ... .. . ... : ... .. . ... F96 : ... .. . ... : ... .. . ... ... : D-1 0E . ...
ROW 0D : ... .. . ... : ... .. . ... : ... .. . ... : ... .. . ... : ... .. . ... F7C : ... .. . ... : ... .. . ... ... : ... .. . ...
ROW 0E : ... .. . ... : ... .. . ... : ... .. . ... : ... .. . ... : ... .. . ... F96 : ... .. . ... : ... .. . ... ... : ... .. . ...
ROW 0F : ... .. . ... : ... .. . ... : ... .. . ... : ... .. . ... : ... .. . ... F7C : ... .. . ... : ... .. . ... ... : ... .. . ...
ROW 10 : E-3 14 . ... : C-3 14 . ... : D-3 0D . ... : 3-# 0A . ... : C-3 09 . ... F96 : ... .. . ... : ... .. . ... ... : D-1 0E . ...
ROW 11 : ... .. . ... : ... .. . ... : ... .. . ... : ... .. . ... : ... .. . ... F7C : ... .. . ... : ... .. . ... ... : ... .. . ...
ROW 12 : ... .. . ... : ... .. . ... : ... .. . ... : ... .. . ... : ... .. . ... F96 : ... .. . ... : ... .. . ... ... : ... .. . ...
ROW 13 : ... .. . ... : ... .. . ... : ... .. . ... : ... .. . ... : ... .. . ... F7C : ... .. . ... : ... .. . ... ... : ... .. . ...
ROW 14 : D-2 14 . ... : A-1 14 . ... : A-3 0D . ... : 3-# 0A . ... : C-3 09 . ... F96 : ... .. . ... : ... .. . ... ... : A-1 0E . ...
ROW 15 : ... .. . ... : ... .. . ... : ... .. . ... : ... .. . ... : ... .. . ... F7C : ... .. . ... : ... .. . ... ... : ... .. . ...
ROW 16 : ... .. . ... : ... .. . ... : ... .. . ... : 3-# 0A . ... : C-3 09 . ... F96 : ... .. . ... : ... .. . ... ... : ... .. . ...
ROW 17 : ... .. . ... : ... .. . ... : ... .. . ... : ... .. . ... : ... .. . ... F7C : ... .. . ... : ... .. . ... ... : ... .. . ...
ROW 18 : F-3 14 . ... : D-3 14 . ... : D-3 0D . ... : 8-# 0A . ... : C#3 09 . ... F96 : ... .. . ... : ... .. . ... ... : D-1 0E . ...
ROW 19 : ... .. . ... : ... .. . ... : ... .. . ... : ... .. . ... : ... .. . ... F7C : ... .. . ... : ... .. . ... ... : ... .. . ...
ROW 1A : ... .. . ... : ... .. . ... : ... .. . ... : ... .. . ... : ... .. . ... F96 : ... .. . ... : ... .. . ... ... : ... .. . ...
ROW 1B : ... .. . ... : ... .. . ... : ... .. . ... : ... .. . ... : ... .. . ... F7C : ... .. . ... : ... .. . ... ... : ... .. . ...
ROW 1C : D-3 14 . ... : A-2 14 . ... : D-3 0D . ... : ... .. . ... : ... .. . ... F96 : ... .. . ... : ... .. . ... ... : D-1 0E . ...
ROW 1D : ... .. . ... : ... .. . ... : ... .. . ... : ... .. . ... : ... .. . ... F7C : ... .. . ... : ... .. . ... ... : ... .. . ...
ROW 1E : ... .. . ... : ... .. . ... : ... .. . ... : ... .. . ... : ... .. . ... F96 : ... .. . ... : ... .. . ... ... : ... .. . ...
ROW 1F : ... .. . ... : ... .. . ... : ... .. . ... : ... .. . ... : ... .. . ... F7C : ... .. . ... : ... .. . ... ... : ... .. . ...
ROW 20 : ... .. . ... : ... .. . ... : D-3 0D . ... : 3-# 0A . ... : C-3 09 . ... F96 : ... .. . ... : ... .. . ... ... : D-1 0E . ...
ROW 21 : ... .. . ... : ... .. . ... : ... .. . ... : ... .. . ... : ... .. . ... F7C : ... .. . ... : ... .. . ... ... : ... .. . ...
ROW 22 : ... .. . ... : ... .. . ... : ... .. . ... : ... .. . ... : ... .. . ... F96 : ... .. . ... : ... .. . ... ... : ... .. . ...
ROW 23 : ... .. . ... : ... .. . ... : ... .. . ... : ... .. . ... : ... .. . ... F7C : ... .. . ... : ... .. . ... ... : ... .. . ...
ROW 24 : D-2 14 . ... : A-1 14 . ... : D-3 0D . ... : ... .. . ... : ... .. . ... F96 : ... .. . ... : ... .. . ... ... : D-1 0E . ...
ROW 25 : ... .. . ... : ... .. . ... : ... .. . ... : ... .. . ... : ... .. . ... F7C : ... .. . ... : ... .. . ... ... : ... .. . ...
ROW 26 : ... .. . ... : ... .. . ... : ... .. . ... : 3-# 0A . ... : C-3 09 . ... F96 : ... .. . ... : ... .. . ... ... : ... .. . ...
ROW 27 : ... .. . ... : ... .. . ... : ... .. . ... : ... .. . ... : ... .. . ... F7C : ... .. . ... : ... .. . ... ... : ... .. . ...
ROW 28 : F-3 14 . ... : D-3 14 . ... : A-3 0D . ... : 8-# 0A . ... : C#3 09 . ... F96 : ... .. . ... : ... .. . ... ... : A-1 0E . ...
ROW 29 : ... .. . ... : ... .. . ... : ... .. . ... : ... .. . ... : ... .. . ... F7C : ... .. . ... : ... .. . ... ... : ... .. . ...
ROW 2A : ... .. . ... : ... .. . ... : ... .. . ... : ... .. . ... : ... .. . ... F96 : ... .. . ... : ... .. . ... ... : ... .. . ...
ROW 2B : ... .. . ... : ... .. . ... : ... .. . ... : ... .. . ... : ... .. . ... F7C : ... .. . ... : ... .. . ... ... : ... .. . ...
ROW 2C : D-2 14 . ... : A-1 14 . ... : D-3 0D . ... : ... .. . ... : ... .. . ... F96 : ... .. . ... : ... .. . ... ... : D-1 0E . ...
ROW 2D : ... .. . ... : ... .. . ... : ... .. . ... : ... .. . ... : ... .. . ... F7C : ... .. . ... : ... .. . ... ... : ... .. . ...
ROW 2E : ... .. . ... : ... .. . ... : ... .. . ... : ... .. . ... : ... .. . ... F96 : ... .. . ... : ... .. . ... ... : ... .. . ...
ROW 2F : ... .. . ... : ... .. . ... : ... .. . ... : ... .. . ... : ... .. . ... F7C : ... .. . ... : ... .. . ... ... : ... .. . ...
ROW 30 : E-3 14 . ... : C-3 14 . ... : D-3 0D . ... : B-# 0B . ... : D-3 09 . ... F96 : ... .. . ... : ... .. . ... ... : D-1 0E . ...
ROW 31 : ... .. . ... : ... .. . ... : ... .. . ... : ... .. . ... : ... .. . ... F7C : ... .. . ... : ... .. . ... ... : ... .. . ...
ROW 32 : ... .. . ... : ... .. . ... : ... .. . ... : ... .. . ... : ... .. . ... F96 : ... .. . ... : ... .. . ... ... : ... .. . ...
ROW 33 : ... .. . ... : ... .. . ... : ... .. . ... : ... .. . ... : ... .. . ... F7C : ... .. . ... : ... .. . ... ... : ... .. . ...
ROW 34 : D-2 14 . ... : A-1 14 . ... : A-3 0D . ... : B-# 0B . ... : D-3 09 . ... F96 : ... .. . ... : ... .. . ... ... : A-1 0E . ...
ROW 35 : ... .. . ... : ... .. . ... : ... .. . ... : ... .. . ... : ... .. . ... F7C : ... .. . ... : ... .. . ... ... : ... .. . ...
ROW 36 : ... .. . ... : ... .. . ... : ... .. . ... : ... .. . ... : ... .. . ... F96 : ... .. . ... : ... .. . ... ... : ... .. . ...
ROW 37 : ... .. . ... : ... .. . ... : ... .. . ... : ... .. . ... : ... .. . ... F7C : ... .. . ... : ... .. . ... ... : ... .. . ...
ROW 38 : F-3 14 . ... : D-3 14 . ... : D-3 0D . ... : 9-# 0B . ... : E-3 09 . ... F96 : ... .. . ... : ... .. . ... ... : D-1 0E . ...
ROW 39 : ... .. . ... : ... .. . ... : ... .. . ... : ... .. . ... : ... .. . ... F7C : ... .. . ... : ... .. . ... ... : ... .. . ...
ROW 3A : ... .. . ... : ... .. . ... : ... .. . ... : ... .. . ... : ... .. . ... F96 : ... .. . ... : ... .. . ... ... : ... .. . ...
ROW 3B : ... .. . ... : ... .. . ... : ... .. . ... : ... .. . ... : ... .. . ... F7C : ... .. . ... : ... .. . ... ... : ... .. . ...
ROW 3C : D-3 14 . ... : A-2 14 . ... : D-3 0D . ... : 8-# 0B . ... : F-3 09 . ... F96 : ... .. . ... : ... .. . ... ... : D-1 0E . ...
ROW 3D : ... .. . ... : ... .. . ... : ... .. . ... : ... .. . ... : ... .. . ... F7C : ... .. . ... : ... .. . ... ... : ... .. . ...
ROW 3E : ... .. . ... : ... .. . ... : ... .. . ... : ... .. . ... : ... .. . ... F96 : ... .. . ... : ... .. . ... ... : ... .. . ...
ROW 3F : ... .. . ... : ... .. . ... : ... .. . ... : ... .. . ... : ... .. . ... F7C : ... .. . ... : ... .. . ... ... : ... .. . ...

PATTERN 1D
ROW 00 : ... .. . ... : ... .. . ... : D-3 0D . ... : 3-# 0A . ... : C-3 09 . ... F96 : D-1 0E D 400 : --- .. . 400 ... : G-4 0E F ...
ROW 01 : ... .. . ... : ... .. . ... : ... .. . ... : ... .. . ... : ... .. . ... F7C : ... .. . ... : ... .. . ... ... : ... .. . ...
ROW 02 : ... .. . ... : ... .. . ... : ... .. . ... : ... .. . ... : ... .. . ... F96 : ... .. . ... : ... .. . ... ... : A-4 0E . ...
ROW 03 : ... .. . ... : ... .. . ... : ... .. . ... : ... .. . ... : ... .. . ... F7C : ... .. . ... : ... .. . ... ... : ... .. . ...
ROW 04 : ... .. . ... : ... .. . ... : D-3 0D . ... : ... .. . ... : ... .. . ... F96 : D-1 0E . ... : G-4 0E 9 ... P7E : C-5 0E . ...
ROW 05 : ... .. . ... : ... .. . ... : ... .. . ... : ... .. . ... : ... .. . ... F7C : ... .. . ... : ... .. . ... ... : ... .. . ...
ROW 06 : ... .. . ... : ... .. . ... : ... .. . ... : 3-# 0A . ... : C-3 09 . ... F96 : ... .. . ... : A-4 0E . ... ... : A-4 0E . ...
ROW 07 : ... .. . ... : ... .. . ... : ... .. . ... : ... .. . ... : ... .. . ... F7C : ... .. . ... : ... .. . ... ... : ... .. . ...
ROW 08 : F-3 14 . ... : D-3 14 . ... : A-3 0D . ... : 8-# 0A . ... : C#3 09 . ... F96 : A-1 0E . ... : C-5 0E . ... ... : G-4 0E . ...
ROW 09 : ... .. . ... : ... .. . ... : ... .. . ... : ... .. . ... : ... .. . ... F7C : ... .. . ... : ... .. . ... ... : ... .. . ...
ROW 0A : ... .. . ... : ... .. . ... : ... .. . ... : ... .. . ... : ... .. . ... F96 : ... .. . ... : A-4 0E . ... ... : A-4 0E . ...
ROW 0B : ... .. . ... : ... .. . ... : ... .. . ... : ... .. . ... : ... .. . ... F7C : ... .. . ... : ... .. . ... ... : ... .. . ...
ROW 0C : D-2 14 . ... : A-1 14 . ... : D-3 0D . ... : ... .. . ... : ... .. . ... F96 : D-1 0E . ... : G-4 0E . ... ... : C-5 0E . ...
ROW 0D : ... .. . ... : ... .. . ... : ... .. . ... : ... .. . ... : ... .. . ... F7C : ... .. . ... : ... .. . ... ... : ... .. . ...
ROW 0E : ... .. . ... : ... .. . ... : ... .. . ... : ... .. . ... : ... .. . ... F96 : ... .. . ... : A-4 0E . ... ... : A-4 0E . ...
ROW 0F : ... .. . ... : ... .. . ... : ... .. . ... : ... .. . ... : ... .. . ... F7C : ... .. . ... : ... .. . ... ... : ... .. . ...
ROW 10 : D-2 14 . ... : A-1 14 . ... : D-3 0D . ... : 3-# 0A . ... : C-3 09 . ... F96 : D-1 0E . ... : C-5 0E . ... ... : G-4 0E . ...
ROW 11 : ... .. . ... : ... .. . ... : ... .. . ... : ... .. . ... : ... .. . ... F7C : ... .. . ... : ... .. . ... ... : ... .. . ...
ROW 12 : ... .. . ... : ... .. . ... : ... .. . ... : ... .. . ... : ... .. . ... F96 : ... .. . ... : A-4 0E . ... ... : A-4 0E . ...
ROW 13 : ... .. . ... : ... .. . ... : ... .. . ... : ... .. . ... : ... .. . ... F7C : ... .. . ... : ... .. . ... ... : ... .. . ...
ROW 14 : F-3 14 . ... : D-3 14 . ... : A#3 0D . ... : 3-# 0A . ... : C-3 09 . ... F96 : A#1 0E . ... : G-4 0E . ... ... : C-5 0E . ...
ROW 15 : ... .. . ... : ... .. . ... : ... .. . ... : ... .. . ... : ... .. . ... F7C : ... .. . ... : ... .. . ... ... : ... .. . ...
ROW 16 : ... .. . ... : ... .. . ... : ... .. . ... : 3-# 0A . ... : C-3 09 . ... F96 : ... .. . ... : A-4 0E . ... ... : A-4 0E . ...
ROW 17 : ... .. . ... : ... .. . ... : ... .. . ... : ... .. . ... : ... .. . ... F7C : ... .. . ... : ... .. . ... ... : ... .. . ...
ROW 18 : D-2 14 . ... : A-1 14 . ... : D-3 0D . ... : 8-# 0A . ... : C#3 09 . ... F96 : D-1 0E . ... : C-5 0E . ... ... : G-4 0E . ...
ROW 19 : ... .. . ... : ... .. . ... : ... .. . ... : ... .. . ... : ... .. . ... F7C : ... .. . ... : ... .. . ... ... : ... .. . ...
ROW 1A : ... .. . ... : ... .. . ... : ... .. . ... : ... .. . ... : ... .. . ... F96 : ... .. . ... : A-4 0E . ... ... : A-4 0E . ...
ROW 1B : ... .. . ... : ... .. . ... : ... .. . ... : ... .. . ... : ... .. . ... F7C : ... .. . ... : ... .. . ... ... : ... .. . ...
ROW 1C : D-2 14 . ... : A-1 14 . ... : D-3 0D . ... : ... .. . ... : ... .. . ... F96 : D-1 0E . ... : G-4 0E . ... ... : C-5 0E . ...
ROW 1D : ... .. . ... : ... .. . ... : ... .. . ... : ... .. . ... : ... .. . ... F7C : ... .. . ... : ... .. . ... ... : ... .. . ...
ROW 1E : ... .. . ... : ... .. . ... : ... .. . ... : ... .. . ... : ... .. . ... F96 : ... .. . ... : A-4 0E . ... ... : A-4 0E . ...
ROW 1F : ... .. . ... : ... .. . ... : ... .. . ... : ... .. . ... : ... .. . ... F7C : ... .. . ... : ... .. . ... ... : ... .. . ...
ROW 20 : F-3 14 . ... : D-3 14 . ... : C-4 0D . ... : 3-# 0A . ... : C-3 09 . ... F96 : C-2 0E . ... : C-5 0E . ... ... : G-4 0E . ...
ROW 21 : ... .. . ... : ... .. . ... : ... .. . ... : ... .. . ... : ... .. . ... F7C : ... .. . ... : ... .. . ... ... : ... .. . ...
ROW 22 : ... .. . ... : ... .. . ... : ... .. . ... : ... .. . ... : ... .. . ... F96 : ... .. . ... : A-4 0E . ... ... : A-4 0E . ...
ROW 23 : ... .. . ... : ... .. . ... : ... .. . ... : ... .. . ... : ... .. . ... F7C : ... .. . ... : ... .. . ... ... : ... .. . ...
ROW 24 : D-2 14 . ... : A-1 14 . ... : D-3 0D . ... : ... .. . ... : ... .. . ... F96 : D-1 0E . ... : G-4 0E . ... ... : C-5 0E . ...
ROW 25 : ... .. . ... : ... .. . ... : ... .. . ... : ... .. . ... : ... .. . ... F7C : ... .. . ... : ... .. . ... ... : ... .. . ...
ROW 26 : ... .. . ... : ... .. . ... : ... .. . ... : 3-# 0A . ... : C-3 09 . ... F96 : ... .. . ... : A-4 0E . ... ... : A-4 0E . ...
ROW 27 : ... .. . ... : ... .. . ... : ... .. . ... : ... .. . ... : ... .. . ... F7C : ... .. . ... : ... .. . ... ... : ... .. . ...
ROW 28 : D-2 14 . ... : A-1 14 . ... : D-3 0D . ... : 8-# 0A . ... : C#3 09 . ... F96 : D-1 0E . ... : C-5 0E . ... ... : G-4 0E . ...
ROW 29 : ... .. . ... : ... .. . ... : ... .. . ... : ... .. . ... : ... .. . ... F7C : ... .. . ... : ... .. . ... ... : ... .. . ...
ROW 2A : ... .. . ... : ... .. . ... : ... .. . ... : ... .. . ... : ... .. . ... F96 : ... .. . ... : A-4 0E . ... ... : A-4 0E . ...
ROW 2B : ... .. . ... : ... .. . ... : ... .. . ... : ... .. . ... : ... .. . ... F7C : ... .. . ... : ... .. . ... ... : ... .. . ...
ROW 2C : F-3 14 . ... : D-3 14 . ... : A#3 0D . ... : ... .. . ... : ... .. . ... F96 : A#1 0E . ... : G-4 0E . ... ... : C-5 0E . ...
ROW 2D : ... .. . ... : ... .. . ... : ... .. . ... : ... .. . ... : ... .. . ... F7C : ... .. . ... : ... .. . ... ... : ... .. . ...
ROW 2E : ... .. . ... : ... .. . ... : ... .. . ... : ... .. . ... : ... .. . ... F96 : ... .. . ... : A-4 0E . ... ... : A-4 0E . ...
ROW 2F : ... .. . ... : ... .. . ... : ... .. . ... : ... .. . ... : ... .. . ... F7C : ... .. . ... : ... .. . ... ... : ... .. . ...
ROW 30 : D-2 14 . ... : A-1 14 . ... : D-3 0D . ... : 3-# 0A . ... : C-3 09 . ... F96 : D-1 0E . ... : C-5 0E . ... ... : G-4 0E . ...
ROW 31 : ... .. . ... : ... .. . ... : ... .. . ... : ... .. . ... : ... .. . ... F7C : ... .. . ... : ... .. . ... ... : ... .. . ...
ROW 32 : ... .. . ... : ... .. . ... : ... .. . ... : ... .. . ... : ... .. . ... F96 : ... .. . ... : A-4 0E . ... ... : A-4 0E . ...
ROW 33 : ... .. . ... : ... .. . ... : ... .. . ... : ... .. . ... : ... .. . ... F7C : ... .. . ... : ... .. . ... ... : ... .. . ...
ROW 34 : D-2 14 . ... : A-1 14 . ... : G-3 0D . ... : 3-# 0A . ... : C-3 09 . ... F96 : G-1 0E . ... : G-4 0E . ... ... : C-5 0E . ...
ROW 35 : ... .. . ... : ... .. . ... : ... .. . ... : ... .. . ... : ... .. . ... F7C : ... .. . ... : ... .. . ... ... : ... .. . ...
ROW 36 : ... .. . ... : ... .. . ... : ... .. . ... : 3-# 0A . ... : C-3 09 . ... F96 : ... .. . ... : A-4 0E . ... ... : A-4 0E . ...
ROW 37 : ... .. . ... : ... .. . ... : ... .. . ... : ... .. . ... : ... .. . ... F7C : ... .. . ... : ... .. . ... ... : ... .. . ...
ROW 38 : F-3 14 . ... : D-3 14 . ... : F-3 0D . ... : 8-# 0A . ... : C#3 09 . ... F96 : F-1 0E . ... : C-5 0E . ... ... : G-4 0E . ...
ROW 39 : ... .. . ... : ... .. . ... : ... .. . ... : ... .. . ... : ... .. . ... F7C : ... .. . ... : ... .. . ... ... : ... .. . ...
ROW 3A : ... .. . ... : ... .. . ... : ... .. . ... : ... .. . ... : ... .. . ... F96 : ... .. . ... : A-4 0E . ... ... : A-4 0E . ...
ROW 3B : ... .. . ... : ... .. . ... : ... .. . ... : ... .. . ... : ... .. . ... F7C : ... .. . ... : ... .. . ... ... : ... .. . ...
ROW 3C : D-2 14 . ... : A-1 14 . ... : E-3 0D . ... : ... .. . ... : ... .. . ... F96 : E-1 0E . ... : G-4 0E . ... ... : C-5 0E . ...
ROW 3D : ... .. . ... : ... .. . ... : ... .. . ... : ... .. . ... : ... .. . ... F7C : ... .. . ... : ... .. . ... ... : ... .. . ...
ROW 3E : ... .. . ... : ... .. . ... : ... .. . ... : ... .. . ... : ... .. . ... F96 : ... .. . ... : A-4 0E . ... ... : A-4 0E . ...
ROW 3F : ... .. . ... : ... .. . ... : ... .. . ... : ... .. . ... : ... .. . ... F7C : ... .. . ... : ... .. . ... ... : ... .. . ...

PATTERN 1E
ROW 00 : D-2 14 . ... : A-1 14 . ... : D-3 0D . ... : 3-# 0A . ... : C-3 09 . ... F96 : D-1 0E . ... : C-5 0E . ... ... : A#4 0E . ...
ROW 01 : ... .. . ... : ... .. . ... : ... .. . ... : ... .. . ... : ... .. . ... F7C : ... .. . ... : ... .. . ... ... : ... .. . ...
ROW 02 : ... .. . ... : ... .. . ... : ... .. . ... : ... .. . ... : ... .. . ... F96 : ... .. . ... : A-4 0E . ... ... : A-4 0E . ...
ROW 03 : ... .. . ... : ... .. . ... : ... .. . ... : ... .. . ... : ... .. . ... F7C : ... .. . ... : ... .. . ... ... : ... .. . ...
ROW 04 : D-2 14 . ... : A-1 14 . ... : D-3 0D . ... : ... .. . ... : ... .. . ... F96 : D-1 0E . ... : A#4 0E . ... ... : A#4 0E . ...
ROW 05 : ... .. . ... : ... .. . ... : ... .. . ... : ... .. . ... : ... .. . ... F7C : ... .. . ... : ... .. . ... ... : ... .. . ...
ROW 06 : ... .. . ... : ... .. . ... : ... .. . ... : 3-# 0A . ... : C-3 09 . ... F96 : ... .. . ... : A-4 0E . ... ... : C-5 0E . ...
ROW 07 : ... .. . ... : ... .. . ... : ... .. . ... : ... .. . ... : ... .. . ... F7C : ... .. . ... : ... .. . ... ... : ... .. . ...
ROW 08 : E-3 14 . ... : C-3 14 . ... : A-3 0D . ... : 8-# 0A . ... : C#3 09 . ... F96 : A-1 0E . ... : A#4 0E . ... ... : A#4 0E . ...
ROW 09 : ... .. . ... : ... .. . ... : ... .. . ... : ... .. . ... : ... .. . ... F7C : ... .. . ... : ... .. . ... ... : ... .. . ...
ROW 0A : ... .. . ... : ... .. . ... : ... .. . ... : ... .. . ... : ... .. . ... F96 : ... .. . ... : C-5 0E . ... ... : A-4 0E . ...
ROW 0B : ... .. . ... : ... .. . ... : ... .. . ... : ... .. . ... : ... .. . ... F7C : ... .. . ... : ... .. . ... ... : ... .. . ...
ROW 0C : D-2 14 . ... : A-1 14 . ... : D-3 0D . ... : ... .. . ... : ... .. . ... F96 : D-1 0E . ... : A#4 0E . ... ... : G-4 0E . ...
ROW 0D : ... .. . ... : ... .. . ... : ... .. . ... : ... .. . ... : ... .. . ... F7C : ... .. . ... : ... .. . ... ... : ... .. . ...
ROW 0E : ... .. . ... : ... .. . ... : ... .. . ... : ... .. . ... : ... .. . ... F96 : ... .. . ... : A-4 0E . ... ... : F-4 0E . ...
ROW 0F : ... .. . ... : ... .. . ... : ... .. . ... : ... .. . ... : ... .. . ... F7C : ... .. . ... : ... .. . ... ... : ... .. . ...
ROW 10 : D-2 14 . ... : A-1 14 . ... : D-3 0D . ... : 3-# 0A . ... : C-3 09 . ... F96 : D-1 0E . ... : G-4 0E . ... ... : E-4 0E . ...
ROW 11 : ... .. . ... : ... .. . ... : ... .. . ... : ... .. . ... : ... .. . ... F7C : ... .. . ... : ... .. . ... ... : ... .. . ...
ROW 12 : ... .. . ... : ... .. . ... : ... .. . ... : ... .. . ... : ... .. . ... F96 : ... .. . ... : F-4 0E . ... ... : G-4 0E . ...
ROW 13 : ... .. . ... : ... .. . ... : ... .. . ... : ... .. . ... : ... .. . ... F7C : ... .. . ... : ... .. . ... ... : ... .. . ...
ROW 14 : E-3 14 . ... : C-3 14 . ... : A#3 0D . ... : 3-# 0A . ... : C-3 09 . ... F96 : A#1 0E . ... : E-4 0E . ... ... : F-4 0E . ...
ROW 15 : ... .. . ... : ... .. . ... : ... .. . ... : ... .. . ... : ... .. . ... F7C : ... .. . ... : ... .. . ... ... : ... .. . ...
ROW 16 : ... .. . ... : ... .. . ... : ... .. . ... : 3-# 0A . ... : C-3 09 . ... F96 : ... .. . ... : G-4 0E . ... ... : E-4 0E . ...
ROW 17 : ... .. . ... : ... .. . ... : ... .. . ... : ... .. . ... : ... .. . ... F7C : ... .. . ... : ... .. . ... ... : ... .. . ...
ROW 18 : D-2 14 . ... : A-1 14 . ... : D-3 0D . ... : 8-# 0A . ... : C#3 09 . ... F96 : D-1 0E . ... : F-4 0E . ... ... : F-4 0E . ...
ROW 19 : ... .. . ... : ... .. . ... : ... .. . ... : ... .. . ... : ... .. . ... F7C : ... .. . ... : ... .. . ... ... : ... .. . ...
ROW 1A : ... .. . ... : ... .. . ... : ... .. . ... : ... .. . ... : ... .. . ... F96 : ... .. . ... : E-4 0E . ... ... : E-4 0E . ...
ROW 1B : ... .. . ... : ... .. . ... : ... .. . ... : ... .. . ... : ... .. . ... F7C : ... .. . ... : ... .. . ... ... : ... .. . ...
ROW 1C : D-2 14 . ... : A-1 14 . ... : D-3 0D . ... : ... .. . ... : ... .. . ... F96 : D-1 0E . ... : F-4 0E . ... ... : D-4 0E . ...
ROW 1D : ... .. . ... : ... .. . ... : ... .. . ... : ... .. . ... : ... .. . ... F7C : ... .. . ... : ... .. . ... ... : ... .. . ...
ROW 1E : ... .. . ... : ... .. . ... : ... .. . ... : ... .. . ... : ... .. . ... F96 : ... .. . ... : E-4 0E . ... ... : C#4 0E . ...
ROW 1F : ... .. . ... : ... .. . ... : ... .. . ... : ... .. . ... : ... .. . ... F7C : ... .. . ... : ... .. . ... ... : ... .. . ...
ROW 20 : E-3 14 . ... : C-3 14 . ... : C-4 0D . ... : 3-# 0A . ... : C-3 09 . ... F96 : C-2 0E . ... : D-4 0E . ... ... : D-4 0E . ...
ROW 21 : ... .. . ... : ... .. . ... : ... .. . ... : ... .. . ... : ... .. . ... F7C : ... .. . ... : ... .. . ... ... : ... .. . ...
ROW 22 : ... .. . ... : ... .. . ... : ... .. . ... : ... .. . ... : ... .. . ... F96 : ... .. . ... : C#4 0E . ... ... : E-4 0E . ...
ROW 23 : ... .. . ... : ... .. . ... : ... .. . ... : ... .. . ... : ... .. . ... F7C : ... .. . ... : ... .. . ... ... : ... .. . ...
ROW 24 : D-2 14 . ... : A-1 14 . ... : D-3 0D . ... : ... .. . ... : ... .. . ... F96 : D-1 0E . ... : D-4 0E . ... ... : F-4 0E . ...
ROW 25 : ... .. . ... : ... .. . ... : ... .. . ... : ... .. . ... : ... .. . ... F7C : ... .. . ... : ... .. . ... ... : ... .. . ...
ROW 26 : ... .. . ... : ... .. . ... : ... .. . ... : 3-# 0A . ... : C-3 09 . ... F96 : ... .. . ... : E-4 0E . ... ... : G-4 0E . ...
ROW 27 : ... .. . ... : ... .. . ... : ... .. . ... : ... .. . ... : ... .. . ... F7C : ... .. . ... : ... .. . ... ... : ... .. . ...
ROW 28 : D-2 14 . ... : A-1 14 . ... : D-3 0D . ... : 8-# 0A . ... : C#3 09 . ... F96 : D-1 0E . ... : F-4 0E . ... ... : F-4 0E . ...
ROW 29 : ... .. . ... : ... .. . ... : ... .. . ... : ... .. . ... : ... .. . ... F7C : ... .. . ... : ... .. . ... ... : ... .. . ...
ROW 2A : ... .. . ... : ... .. . ... : ... .. . ... : ... .. . ... : ... .. . ... F96 : ... .. . ... : G-4 0E . ... ... : E-4 0E . ...
ROW 2B : ... .. . ... : ... .. . ... : ... .. . ... : ... .. . ... : ... .. . ... F7C : ... .. . ... : ... .. . ... ... : ... .. . ...
ROW 2C : E-3 14 . ... : C-3 14 . ... : A#3 0D . ... : ... .. . ... : ... .. . ... F96 : A#1 0E . ... : F-4 0E . ... ... : D-4 0E . ...
ROW 2D : ... .. . ... : ... .. . ... : ... .. . ... : ... .. . ... : ... .. . ... F7C : ... .. . ... : ... .. . ... ... : ... .. . ...
ROW 2E : ... .. . ... : ... .. . ... : ... .. . ... : ... .. . ... : ... .. . ... F96 : ... .. . ... : E-4 0E . ... ... : E-4 0E . ...
ROW 2F : ... .. . ... : ... .. . ... : ... .. . ... : ... .. . ... : ... .. . ... F7C : ... .. . ... : ... .. . ... ... : ... .. . ...
ROW 30 : D-2 14 . ... : A-1 14 . ... : D-3 0D . ... : 3-# 0A . ... : C-3 09 . ... F96 : D-1 0E . ... : D-4 0E . ... ... : C-4 0E . ...
ROW 31 : ... .. . ... : ... .. . ... : ... .. . ... : ... .. . ... : ... .. . ... F7C : ... .. . ... : ... .. . ... ... : ... .. . ...
ROW 32 : ... .. . ... : ... .. . ... : ... .. . ... : ... .. . ... : ... .. . ... F96 : ... .. . ... : E-4 0E . ... ... : D-4 0E . ...
ROW 33 : ... .. . ... : ... .. . ... : ... .. . ... : ... .. . ... : ... .. . ... F7C : ... .. . ... : ... .. . ... ... : ... .. . ...
ROW 34 : D-2 14 . ... : A-1 14 . ... : G-3 0D . ... : 3-# 0A . ... : C-3 09 . ... F96 : G-1 0E . ... : C-4 0E . ... ... : A-3 0E . ...
ROW 35 : ... .. . ... : ... .. . ... : ... .. . ... : ... .. . ... : ... .. . ... F7C : ... .. . ... : ... .. . ... ... : ... .. . ...
ROW 36 : ... .. . ... : ... .. . ... : ... .. . ... : 3-# 0A . ... : C-3 09 . ... F96 : ... .. . ... : D-4 0E . ... ... : A#3 0E . ...
ROW 37 : ... .. . ... : ... .. . ... : ... .. . ... : ... .. . ... : ... .. . ... F7C : ... .. . ... : ... .. . ... ... : ... .. . ...
ROW 38 : E-3 14 . ... : C-3 14 . ... : F-3 0D . ... : 8-# 0A . ... : C#3 09 . ... F96 : F-1 0E . ... : A-3 0E . ... ... : G-3 0E . ...
ROW 39 : ... .. . ... : ... .. . ... : ... .. . ... : ... .. . ... : ... .. . ... F7C : ... .. . ... : ... .. . ... ... : ... .. . ...
ROW 3A : ... .. . ... : ... .. . ... : ... .. . ... : ... .. . ... : ... .. . ... F96 : ... .. . ... : A#3 0E . ... ... : A-3 0E . ...
ROW 3B : ... .. . ... : ... .. . ... : ... .. . ... : ... .. . ... : ... .. . ... F7C : ... .. . ... : ... .. . ... ... : ... .. . ...
ROW 3C : D-2 14 . ... : A-1 14 . ... : E-3 0D . ... : ... .. . ... : ... .. . ... F96 : E-1 0E . ... : G-3 0E . ... ... : D-3 0E . ...
ROW 3D : ... .. . ... : ... .. . ... : ... .. . ... : ... .. . ... : ... .. . ... F7C : ... .. . ... : ... .. . ... ... : ... .. . ...
ROW 3E : ... .. . ... : ... .. . ... : ... .. . ... : ... .. . ... : ... .. . ... F96 : ... .. . ... : A-3 0E . ... ... : ... .. . ...
ROW 3F : ... .. . ... : ... .. . ... : ... .. . ... : ... .. . ... : ... .. . ... F7C : ... .. . ... : ... .. . ... ... : ... .. . ...

PATTERN 1F
ROW 00 : D-2 14 . ... : A-1 14 . ... : D-3 0D . ... : 3-# 0A . ... : C-3 09 . ... F96 : D-1 0E . ... : ... .. . ... ... : D-3 0E . ...
ROW 01 : ... .. . ... : ... .. . ... : ... .. . ... : ... .. . ... : ... .. . ... F7C : ... .. . ... : ... .. . ... ... : ... .. . ...
ROW 02 : ... .. . ... : ... .. . ... : ... .. . ... : ... .. . ... : ... .. . ... F96 : ... .. . ... : C-3 0E . ... ... : E-3 0E . ...
ROW 03 : ... .. . ... : ... .. . ... : ... .. . ... : ... .. . ... : ... .. . ... F7C : ... .. . ... : ... .. . ... ... : ... .. . ...
ROW 04 : D-2 14 . ... : A-1 14 . ... : D-3 0D . ... : ... .. . ... : ... .. . ... F96 : D-1 0E . ... : D-3 0E . ... ... : F-3 0E . ...
ROW 05 : ... .. . ... : ... .. . ... : ... .. . ... : ... .. . ... : ... .. . ... F7C : ... .. . ... : ... .. . ... ... : ... .. . ...
ROW 06 : ... .. . ... : ... .. . ... : ... .. . ... : 3-# 0A . ... : C-3 09 . ... F96 : ... .. . ... : E-3 0E . ... ... : G-3 0E . ...
ROW 07 : ... .. . ... : ... .. . ... : ... .. . ... : ... .. . ... : ... .. . ... F7C : ... .. . ... : ... .. . ... ... : ... .. . ...
ROW 08 : G-3 14 . ... : E-3 14 . ... : A-3 0D . ... : 8-# 0A . ... : C#3 09 . ... F96 : A-1 0E . ... : F-3 0E . ... ... : A-3 0E . ...
ROW 09 : ... .. . ... : ... .. . ... : ... .. . ... : ... .. . ... : ... .. . ... F7C : ... .. . ... : ... .. . ... ... : ... .. . ...
ROW 0A : ... .. . ... : ... .. . ... : ... .. . ... : ... .. . ... : ... .. . ... F96 : ... .. . ... : G-3 0E . ... ... : ... .. . ...
ROW 0B : ... .. . ... : ... .. . ... : ... .. . ... : ... .. . ... : ... .. . ... F7C : ... .. . ... : ... .. . ... ... : ... .. . ...
ROW 0C : D-2 14 . ... : A-1 14 . ... : D-3 0D . ... : ... .. . ... : ... .. . ... F96 : D-1 0E . ... : A-3 0E . ... ... : E-3 0E . ...
ROW 0D : ... .. . ... : ... .. . ... : ... .. . ... : ... .. . ... : ... .. . ... F7C : ... .. . ... : ... .. . ... ... : ... .. . ...
ROW 0E : ... .. . ... : ... .. . ... : ... .. . ... : ... .. . ... : ... .. . ... F96 : ... .. . ... : ... .. . ... ... : F-3 0E . ...
ROW 0F : ... .. . ... : ... .. . ... : ... .. . ... : ... .. . ... : ... .. . ... F7C : ... .. . ... : ... .. . ... ... : ... .. . ...
ROW 10 : D-2 14 . ... : A-1 14 . ... : D-3 0D . ... : 3-# 0A . ... : C-3 09 . ... F96 : D-1 0E . ... : E-3 0E . ... ... : G-3 0E . ...
ROW 11 : ... .. . ... : ... .. . ... : ... .. . ... : ... .. . ... : ... .. . ... F7C : ... .. . ... : ... .. . ... ... : ... .. . ...
ROW 12 : ... .. . ... : ... .. . ... : ... .. . ... : ... .. . ... : ... .. . ... F96 : ... .. . ... : F-3 0E . ... ... : A-3 0E . ...
ROW 13 : ... .. . ... : ... .. . ... : ... .. . ... : ... .. . ... : ... .. . ... F7C : ... .. . ... : ... .. . ... ... : ... .. . ...
ROW 14 : G-3 14 . ... : E-3 14 . ... : A#3 0D . ... : 3-# 0A . ... : C-3 09 . ... F96 : A#1 0E . ... : G-3 0E . ... ... : A#3 0E . ...
ROW 15 : ... .. . ... : ... .. . ... : ... .. . ... : ... .. . ... : ... .. . ... F7C : ... .. . ... : ... .. . ... ... : ... .. . ...
ROW 16 : ... .. . ... : ... .. . ... : ... .. . ... : 3-# 0A . ... : C-3 09 . ... F96 : ... .. . ... : A-3 0E . ... ... : ... .. . ...
ROW 17 : ... .. . ... : ... .. . ... : ... .. . ... : ... .. . ... : ... .. . ... F7C : ... .. . ... : ... .. . ... ... : ... .. . ...
ROW 18 : D-2 14 . ... : A-1 14 . ... : D-3 0D . ... : 8-# 0A . ... : C#3 09 . ... F96 : D-1 0E . ... : A#3 0E . ... ... : G-3 0E . ...
ROW 19 : ... .. . ... : ... .. . ... : ... .. . ... : ... .. . ... : ... .. . ... F7C : ... .. . ... : ... .. . ... ... : ... .. . ...
ROW 1A : ... .. . ... : ... .. . ... : ... .. . ... : ... .. . ... : ... .. . ... F96 : ... .. . ... : ... .. . ... ... : A-3 0E . ...
ROW 1B : ... .. . ... : ... .. . ... : ... .. . ... : ... .. . ... : ... .. . ... F7C : ... .. . ... : ... .. . ... ... : ... .. . ...
ROW 1C : D-2 14 . ... : A-1 14 . ... : D-3 0D . ... : ... .. . ... : ... .. . ... F96 : D-1 0E . ... : G-3 0E . ... ... : A#3 0E . ...
ROW 1D : ... .. . ... : ... .. . ... : ... .. . ... : ... .. . ... : ... .. . ... F7C : ... .. . ... : ... .. . ... ... : ... .. . ...
ROW 1E : ... .. . ... : ... .. . ... : ... .. . ... : ... .. . ... : ... .. . ... F96 : ... .. . ... : A-3 0E . ... ... : C-4 0E . ...
ROW 1F : ... .. . ... : ... .. . ... : ... .. . ... : ... .. . ... : ... .. . ... F7C : ... .. . ... : ... .. . ... ... : ... .. . ...
ROW 20 : G-3 14 . ... : E-3 14 . ... : C-4 0D . ... : 3-# 0A . ... : C-3 09 . ... F96 : C-2 0E . ... : A#3 0E . ... ... : D-4 0E . ...
ROW 21 : ... .. . ... : ... .. . ... : ... .. . ... : ... .. . ... : ... .. . ... F7C : ... .. . ... : ... .. . ... ... : ... .. . ...
ROW 22 : ... .. . ... : ... .. . ... : ... .. . ... : ... .. . ... : ... .. . ... F96 : ... .. . ... : C-4 0E . ... ... : ... .. . ...
ROW 23 : ... .. . ... : ... .. . ... : ... .. . ... : ... .. . ... : ... .. . ... F7C : ... .. . ... : ... .. . ... ... : ... .. . ...
ROW 24 : D-2 14 . ... : A-1 14 . ... : D-3 0D . ... : ... .. . ... : ... .. . ... F96 : D-1 0E . ... : D-4 0E . ... ... : A-3 0E . ...
ROW 25 : ... .. . ... : ... .. . ... : ... .. . ... : ... .. . ... : ... .. . ... F7C : ... .. . ... : ... .. . ... ... : ... .. . ...
ROW 26 : ... .. . ... : ... .. . ... : ... .. . ... : 3-# 0A . ... : C-3 09 . ... F96 : ... .. . ... : ... .. . ... ... : A#3 0E . ...
ROW 27 : ... .. . ... : ... .. . ... : ... .. . ... : ... .. . ... : ... .. . ... F7C : ... .. . ... : ... .. . ... ... : ... .. . ...
ROW 28 : D-2 14 . ... : A-1 14 . ... : D-3 0D . ... : 8-# 0A . ... : C#3 09 . ... F96 : D-1 0E . ... : A-3 0E . ... ... : C-4 0E . ...
ROW 29 : ... .. . ... : ... .. . ... : ... .. . ... : ... .. . ... : ... .. . ... F7C : ... .. . ... : ... .. . ... ... : ... .. . ...
ROW 2A : ... .. . ... : ... .. . ... : ... .. . ... : ... .. . ... : ... .. . ... F96 : ... .. . ... : A#3 0E . ... ... : D-4 0E . ...
ROW 2B : ... .. . ... : ... .. . ... : ... .. . ... : ... .. . ... : ... .. . ... F7C : ... .. . ... : ... .. . ... ... : ... .. . ...
ROW 2C : G-3 14 . ... : E-3 14 . ... : A#3 0D . ... : ... .. . ... : ... .. . ... F96 : A#1 0E . ... : C-4 0E . ... ... : E-4 0E . ...
ROW 2D : ... .. . ... : ... .. . ... : ... .. . ... : ... .. . ... : ... .. . ... F7C : ... .. . ... : ... .. . ... ... : ... .. . ...
ROW 2E : ... .. . ... : ... .. . ... : ... .. . ... : ... .. . ... : ... .. . ... F96 : ... .. . ... : D-4 0E . ... ... : ... .. . ...
ROW 2F : ... .. . ... : ... .. . ... : ... .. . ... : ... .. . ... : ... .. . ... F7C : ... .. . ... : ... .. . ... ... : ... .. . ...
ROW 30 : D-2 14 . ... : A-1 14 . ... : D-3 0D . ... : 8-# 0A . ... : C#3 09 . ... F96 : D-1 0E . ... : E-4 0E . ... ... : G-4 0E . ...
ROW 31 : ... .. . ... : ... .. . ... : ... .. . ... : ... .. . ... : ... .. . ... F7C : ... .. . ... : ... .. . ... ... : ... .. . ...
ROW 32 : ... .. . ... : ... .. . ... : ... .. . ... : 8-# 0A 7 ... : C#3 09 . ... F96 : ... .. . ... : ... .. . ... ... : F-4 0E . ...
ROW 33 : ... .. . ... : ... .. . ... : ... .. . ... : ... .. . ... : ... .. . ... F7C : ... .. . ... : ... .. . ... ... : ... .. . ...
ROW 34 : D-2 14 . ... : A-1 14 . ... : D-3 0D . ... : 8-# 0A . ... : C#3 09 . ... F96 : D-1 0E . ... : G-4 0E . ... ... : G-4 0E . ...
ROW 35 : ... .. . ... : ... .. . ... : ... .. . ... : ... .. . ... : ... .. . ... F7C : ... .. . ... : ... .. . ... ... : ... .. . ...
ROW 36 : ... .. . ... : ... .. . ... : ... .. . ... : 8-# 0A . ... : C#3 09 . ... F96 : ... .. . ... : F-4 0E . ... ... : F-4 0E . ...
ROW 37 : ... .. . ... : ... .. . ... : ... .. . ... : ... .. . ... : ... .. . ... F7C : ... .. . ... : ... .. . ... ... : ... .. . ...
ROW 38 : G-3 14 . ... : E-3 14 . ... : A-3 0D . ... : 8-# 0A F ... : C#3 09 . ... F96 : A-1 0E . ... : G-4 0E . ... ... : G-4 0E . ...
ROW 39 : ... .. . ... : ... .. . ... : ... .. . ... : ... .. . ... : ... .. . ... F7C : ... .. . ... : ... .. . ... ... : ... .. . ...
ROW 3A : ... .. . ... : ... .. . ... : ... .. . ... : 8-# 0A 7 ... : C#3 09 . ... F96 : ... .. . ... : F-4 0E . ... ... : F-4 0E . ...
ROW 3B : ... .. . ... : ... .. . ... : ... .. . ... : ... .. . ... : ... .. . ... F7C : ... .. . ... : ... .. . ... ... : ... .. . ...
ROW 3C : D-2 14 . ... : A-1 14 . ... : G-3 0D . ... : 8-# 0A . ... : C#3 09 . ... F96 : G-1 0E . ... : G-4 0E . ... ... : G-4 0E . ...
ROW 3D : ... .. . ... : ... .. . ... : ... .. . ... : ... .. . ... : ... .. . ... F7C : ... .. . ... : ... .. . ... ... : ... .. . ...
ROW 3E : ... .. . ... : ... .. . ... : ... .. . ... : 8-# 0A . ... : C#3 09 . ... F96 : ... .. . ... : F-4 0E . ... ... : F-4 0E . ...
ROW 3F : ... .. . ... : ... .. . ... : ... .. . ... : ... .. . ... : ... .. . ... F7C : ... .. . ... : ... .. . ... ... : ... .. . ...

PATTERN 20
ROW 00 : D-2 14 . ... : A-1 14 . ... : D-3 0D . ... : 3-# 0A F ... : C-3 09 . ... F96 : D-1 0E . ... : G-4 0E . ... ... : G-4 0E . ...
ROW 01 : ... .. . ... : ... .. . ... : ... .. . ... : ... .. . ... : ... .. . ... F7C : ... .. . ... : ... .. . ... ... : ... .. . ...
ROW 02 : ... .. . ... : ... .. . ... : ... .. . ... : ... .. . ... : ... .. . ... F96 : ... .. . ... : F-4 0E . ... ... : F-4 0E . ...
ROW 03 : ... .. . ... : ... .. . ... : ... .. . ... : ... .. . ... : ... .. . ... F7C : ... .. . ... : ... .. . ... ... : ... .. . ...
ROW 04 : D-2 14 . ... : A-1 14 . ... : D-3 0D . ... : ... .. . ... : ... .. . ... F96 : D-1 0E . ... : G-4 0E . ... ... : G-4 0E . ...
ROW 05 : ... .. . ... : ... .. . ... : ... .. . ... : ... .. . ... : ... .. . ... F7C : ... .. . ... : ... .. . ... ... : ... .. . ...
ROW 06 : ... .. . ... : ... .. . ... : ... .. . ... : 3-# 0A . ... : C-3 09 . ... F96 : ... .. . ... : F-4 0E . ... ... : F-4 0E . ...
ROW 07 : ... .. . ... : ... .. . ... : ... .. . ... : ... .. . ... : ... .. . ... F7C : ... .. . ... : ... .. . ... ... : ... .. . ...
ROW 08 : F-3 14 . ... : D-3 14 . ... : A-3 0D . ... : 8-# 0A . ... : C#3 09 . ... F96 : A-1 0E . ... : G-4 0E . ... ... : G-4 0E . ...
ROW 09 : ... .. . ... : ... .. . ... : ... .. . ... : ... .. . ... : ... .. . ... F7C : ... .. . ... : ... .. . ... ... : ... .. . ...
ROW 0A : ... .. . ... : ... .. . ... : ... .. . ... : ... .. . ... : ... .. . ... F96 : ... .. . ... : F-4 0E . ... ... : F-4 0E . ...
ROW 0B : ... .. . ... : ... .. . ... : ... .. . ... : ... .. . ... : ... .. . ... F7C : ... .. . ... : ... .. . ... ... : ... .. . ...
ROW 0C : D-2 14 . ... : A-1 14 . ... : D-3 0D . ... : ... .. . ... : ... .. . ... F96 : D-1 0E . ... : G-4 0E . ... ... : G-4 0E . ...
ROW 0D : ... .. . ... : ... .. . ... : ... .. . ... : ... .. . ... : ... .. . ... F7C : ... .. . ... : ... .. . ... ... : ... .. . ...
ROW 0E : ... .. . ... : ... .. . ... : ... .. . ... : ... .. . ... : ... .. . ... F96 : ... .. . ... : F-4 0E . ... ... : F-4 0E . ...
ROW 0F : ... .. . ... : ... .. . ... : ... .. . ... : ... .. . ... : ... .. . ... F7C : ... .. . ... : ... .. . ... ... : ... .. . ...
ROW 10 : D-2 14 . ... : A-1 14 . ... : D-3 0D . ... : 3-# 0A . ... : C-3 09 . ... F96 : D-1 0E . ... : G-4 0E . ... ... : E-4 0E . ...
ROW 11 : ... .. . ... : ... .. . ... : ... .. . ... : ... .. . ... : ... .. . ... F7C : ... .. . ... : ... .. . ... ... : ... .. . ...
ROW 12 : ... .. . ... : ... .. . ... : ... .. . ... : ... .. . ... : ... .. . ... F96 : ... .. . ... : F-4 0E . ... ... : F-4 0E . ...
ROW 13 : ... .. . ... : ... .. . ... : ... .. . ... : ... .. . ... : ... .. . ... F7C : ... .. . ... : ... .. . ... ... : ... .. . ...
ROW 14 : F-3 14 . ... : D-3 14 . ... : A#3 0D . ... : 3-# 0A . ... : C-3 09 . ... F96 : A#1 0E . ... : E-4 0E . ... ... : E-4 0E . ...
ROW 15 : ... .. . ... : ... .. . ... : ... .. . ... : ... .. . ... : ... .. . ... F7C : ... .. . ... : ... .. . ... ... : ... .. . ...
ROW 16 : ... .. . ... : ... .. . ... : ... .. . ... : 3-# 0A . ... : C-3 09 . ... F96 : ... .. . ... : F-4 0E . ... ... : D-4 0E . ...
ROW 17 : ... .. . ... : ... .. . ... : ... .. . ... : ... .. . ... : ... .. . ... F7C : ... .. . ... : ... .. . ... ... : ... .. . ...
ROW 18 : D-2 14 . ... : A-1 14 . ... : D-3 0D . ... : 8-# 0A . ... : C#3 09 . ... F96 : D-1 0E . ... : E-4 0E . ... ... : E-4 0E . ...
ROW 19 : ... .. . ... : ... .. . ... : ... .. . ... : ... .. . ... : ... .. . ... F7C : ... .. . ... : ... .. . ... ... : ... .. . ...
ROW 1A : ... .. . ... : ... .. . ... : ... .. . ... : ... .. . ... : ... .. . ... F96 : ... .. . ... : D-4 0E . ... ... : D-4 0E . ...
ROW 1B : ... .. . ... : ... .. . ... : ... .. . ... : ... .. . ... : ... .. . ... F7C : ... .. . ... : ... .. . ... ... : ... .. . ...
ROW 1C : D-2 14 . ... : A-1 14 . ... : D-3 0D . ... : ... .. . ... : ... .. . ... F96 : D-1 0E . ... : E-4 0E . ... ... : C-4 0E . ...
ROW 1D : ... .. . ... : ... .. . ... : ... .. . ... : ... .. . ... : ... .. . ... F7C : ... .. . ... : ... .. . ... ... : ... .. . ...
ROW 1E : ... .. . ... : ... .. . ... : ... .. . ... : ... .. . ... : ... .. . ... F96 : ... .. . ... : D-4 0E . ... ... : D-4 0E . ...
ROW 1F : ... .. . ... : ... .. . ... : ... .. . ... : ... .. . ... : ... .. . ... F7C : ... .. . ... : ... .. . ... ... : ... .. . ...
ROW 20 : F-3 14 . ... : D-3 14 . ... : C-4 0D . ... : 3-# 0A . ... : C-3 09 . ... F96 : C-2 0E . ... : C-4 0E . ... ... : D-4 0E . ...
ROW 21 : ... .. . ... : ... .. . ... : ... .. . ... : ... .. . ... : ... .. . ... F7C : ... .. . ... : ... .. . ... ... : ... .. . ...
ROW 22 : ... .. . ... : ... .. . ... : ... .. . ... : ... .. . ... : ... .. . ... F96 : ... .. . ... : D-4 0E . ... ... : A-3 0E . ...
ROW 23 : ... .. . ... : ... .. . ... : ... .. . ... : ... .. . ... : ... .. . ... F7C : ... .. . ... : ... .. . ... ... : ... .. . ...
ROW 24 : D-2 14 . ... : A-1 14 . ... : D-3 0D . ... : ... .. . ... : ... .. . ... F96 : D-1 0E . ... : D-4 0E . ... ... : G-3 0E . ...
ROW 25 : ... .. . ... : ... .. . ... : ... .. . ... : ... .. . ... : ... .. . ... F7C : ... .. . ... : ... .. . ... ... : ... .. . ...
ROW 26 : ... .. . ... : ... .. . ... : ... .. . ... : 3-# 0A . ... : C-3 09 . ... F96 : ... .. . ... : A-3 0E . ... ... : A-3 0E . ...
ROW 27 : ... .. . ... : ... .. . ... : ... .. . ... : ... .. . ... : ... .. . ... F7C : ... .. . ... : ... .. . ... ... : ... .. . ...
ROW 28 : D-2 14 . ... : A-1 14 . ... : D-3 0D . ... : 8-# 0A . ... : C#3 09 . ... F96 : D-1 0E . ... : G-3 0E . ... ... : G-3 0E . ...
ROW 29 : ... .. . ... : ... .. . ... : ... .. . ... : ... .. . ... : ... .. . ... F7C : ... .. . ... : ... .. . ... ... : ... .. . ...
ROW 2A : ... .. . ... : ... .. . ... : ... .. . ... : ... .. . ... : ... .. . ... F96 : ... .. . ... : A-3 0E . ... ... : E-3 0E . ...
ROW 2B : ... .. . ... : ... .. . ... : ... .. . ... : ... .. . ... : ... .. . ... F7C : ... .. . ... : ... .. . ... ... : ... .. . ...
ROW 2C : F-3 14 . ... : D-3 14 . ... : A#3 0D . ... : ... .. . ... : ... .. . ... F96 : A#1 0E . ... : G-3 0E . ... ... : G-3 0E . ...
ROW 2D : ... .. . ... : ... .. . ... : ... .. . ... : ... .. . ... : ... .. . ... F7C : ... .. . ... : ... .. . ... ... : ... .. . ...
ROW 2E : ... .. . ... : ... .. . ... : ... .. . ... : ... .. . ... : ... .. . ... F96 : ... .. . ... : E-3 0E . ... ... : E-3 0E . ...
ROW 2F : ... .. . ... : ... .. . ... : ... .. . ... : A-# 0B . G02 : D#3 09 . G02 F7C : ... .. . ... : ... .. . ... ... : ... .. . ...
ROW 30 : D-2 14 . ... : A-1 14 . ... : D-3 0D . ... : A-# 0B . G01 : D#3 09 . G01 F96 : D-1 0E . ... : G-3 0E . ... ... : D-3 0E . ...
ROW 31 : ... .. . ... : ... .. . ... : ... .. . ... : ... .. . ... : ... .. . ... F7C : ... .. . ... : ... .. . ... ... : ... .. . ...
ROW 32 : ... .. . ... : ... .. . ... : ... .. . ... : ... .. . ... : ... .. . ... F96 : ... .. . ... : E-3 0E . ... ... : ... .. . ...
ROW 33 : ... .. . ... : ... .. . ... : ... .. . ... : ... .. . ... : ... .. . ... F7C : ... .. . ... : ... .. . ... ... : ... .. . ...
ROW 34 : D-2 14 . ... : A-1 14 . ... : G-3 0D . ... : ... .. . ... : ... .. . ... F96 : G-1 0E . ... : D-3 0E . ... ... : ... .. . ...
ROW 35 : ... .. . ... : ... .. . ... : ... .. . ... : ... .. . ... : ... .. . ... F7C : ... .. . ... : ... .. . ... ... : ... .. . ...
ROW 36 : ... .. . ... : ... .. . ... : ... .. . ... : ... .. . ... : ... .. . ... F96 : ... .. . ... : ... .. . ... ... : ... .. . ...
ROW 37 : ... .. . ... : ... .. . ... : ... .. . ... : 7-# 0B . G02 : F#3 09 . G02 F7C : ... .. . ... : ... .. . ... ... : ... .. . ...
ROW 38 : F-3 14 . ... : D-3 14 . ... : F-3 0D . ... : 7-# 0B . G01 : F#3 09 . G01 F96 : F-1 0E . ... : ... .. . ... ... : ... .. . 464
ROW 39 : ... .. . ... : ... .. . ... : ... .. . ... : ... .. . ... : ... .. . ... F7C : ... .. . ... : ... .. . ... ... : ... .. . ...
ROW 3A : ... .. . ... : ... .. . ... : ... .. . ... : ... .. . ... : ... .. . ... F96 : ... .. . ... : ... .. . ... ... : ... .. . ...
ROW 3B : ... .. . ... : ... .. . ... : ... .. . ... : ... .. . ... : ... .. . ... F7C : ... .. . ... : ... .. . ... ... : ... .. . ...
ROW 3C : D-2 14 . ... : A-1 14 . ... : E-3 0D . ... : ... .. . ... : ... .. . ... F96 : E-1 0E . ... : ... .. . 464 ... : ... .. . ...
ROW 3D : ... .. . ... : ... .. . ... : ... .. . ... : ... .. . ... : ... .. . ... F7C : ... .. . ... : ... .. . ... ... : ... .. . ...
ROW 3E : ... .. . ... : ... .. . ... : ... .. . ... : ... .. . ... : ... .. . ... F96 : ... .. . ... : ... .. . ... ... : ... .. . ...
ROW 3F : ... .. . ... : ... .. . ... : ... .. . ... : ... .. . ... : ... .. . ... F7C : ... .. . ... : ... .. . ... ... : ... .. . ...

PATTERN 21
ROW 00 : D-2 14 . ... : A-1 14 . ... : D-3 0D . ... : 3-# 0A . ... : C-3 09 . ... F96 : D-1 0E . ... : ... .. . ... ... : A-4 0E . 400
ROW 01 : ... .. . ... : ... .. . ... : ... .. . ... : ... .. . ... : ... .. . ... F7C : ... .. . ... : ... .. . ... ... : ... .. . ...
ROW 02 : ... .. . ... : ... .. . ... : ... .. . ... : ... .. . ... : ... .. . ... F96 : ... .. . ... : ... .. . ... ... : F-4 0E . ...
ROW 03 : ... .. . ... : ... .. . ... : ... .. . ... : ... .. . ... : ... .. . ... F7C : ... .. . ... : ... .. . ... ... : ... .. . ...
ROW 04 : D-2 14 . ... : A-1 14 . ... : D-3 0D . ... : ... .. . ... : ... .. . ... F96 : D-1 0E . ... : A-4 0E . 400 ... : D-4 0E . ...
ROW 05 : ... .. . ... : ... .. . ... : ... .. . ... : ... .. . ... : ... .. . ... F7C : ... .. . ... : ... .. . ... ... : ... .. . ...
ROW 06 : ... .. . ... : ... .. . ... : ... .. . ... : 3-# 0A . ... : C-3 09 . ... F96 : ... .. . ... : F-4 0E . ... ... : A-3 0E . ...
ROW 07 : ... .. . ... : ... .. . ... : ... .. . ... : ... .. . ... : ... .. . ... F7C : ... .. . ... : ... .. . ... ... : ... .. . ...
ROW 08 : F-3 14 . ... : D-3 14 . ... : A-3 0D . ... : 8-# 0A . ... : C#3 09 . ... F96 : A-1 0E . ... : D-4 0E . ... ... : D-4 0E . ...
ROW 09 : ... .. . ... : ... .. . ... : ... .. . ... : ... .. . ... : ... .. . ... F7C : ... .. . ... : ... .. . ... ... : ... .. . ...
ROW 0A : ... .. . ... : ... .. . ... : ... .. . ... : ... .. . ... : ... .. . ... F96 : ... .. . ... : A-3 0E . ... ... : F-4 0E . ...
ROW 0B : ... .. . ... : ... .. . ... : ... .. . ... : ... .. . ... : ... .. . ... F7C : ... .. . ... : ... .. . ... ... : ... .. . ...
ROW 0C : D-2 14 . ... : A-1 14 . ... : D-3 0D . ... : ... .. . ... : ... .. . ... F96 : D-1 0E . ... : D-4 0E . ... ... : A-4 0E . ...
ROW 0D : ... .. . ... : ... .. . ... : ... .. . ... : ... .. . ... : ... .. . ... F7C : ... .. . ... : ... .. . ... ... : ... .. . ...
ROW 0E : ... .. . ... : ... .. . ... : ... .. . ... : ... .. . ... : ... .. . ... F96 : ... .. . ... : F-4 0E . ... ... : F-4 0E . ...
ROW 0F : ... .. . ... : ... .. . ... : ... .. . ... : ... .. . ... : ... .. . ... F7C : ... .. . ... : ... .. . ... ... : ... .. . ...
ROW 10 : D-2 14 . ... : A-1 14 . ... : D-3 0D . ... : 3-# 0A . ... : C-3 09 . ... F96 : D-1 0E . ... : A-4 0E . ... ... : D-4 0E . ...
ROW 11 : ... .. . ... : ... .. . ... : ... .. . ... : ... .. . ... : ... .. . ... F7C : ... .. . ... : ... .. . ... ... : ... .. . ...
ROW 12 : ... .. . ... : ... .. . ... : ... .. . ... : ... .. . ... : ... .. . ... F96 : ... .. . ... : F-4 0E . ... ... : A-3 0E . ...
ROW 13 : ... .. . ... : ... .. . ... : ... .. . ... : ... .. . ... : ... .. . ... F7C : ... .. . ... : ... .. . ... ... : ... .. . ...
ROW 14 : F-3 14 . ... : D-3 14 . ... : A#3 0D . ... : 3-# 0A . ... : C-3 09 . ... F96 : A#1 0E . ... : D-4 0E . ... ... : D-4 0E . ...
ROW 15 : ... .. . ... : ... .. . ... : ... .. . ... : ... .. . ... : ... .. . ... F7C : ... .. . ... : ... .. . ... ... : ... .. . ...
ROW 16 : ... .. . ... : ... .. . ... : ... .. . ... : 3-# 0A . ... : C-3 09 . ... F96 : ... .. . ... : A-3 0E . ... ... : F-4 0E . ...
ROW 17 : ... .. . ... : ... .. . ... : ... .. . ... : ... .. . ... : ... .. . ... F7C : ... .. . ... : ... .. . ... ... : ... .. . ...
ROW 18 : D-2 14 . ... : A-1 14 . ... : D-3 0D . ... : 8-# 0A . ... : C#3 09 . ... F96 : D-1 0E . ... : D-4 0E . ... ... : A-4 0E . ...
ROW 19 : ... .. . ... : ... .. . ... : ... .. . ... : ... .. . ... : ... .. . ... F7C : ... .. . ... : ... .. . ... ... : ... .. . ...
ROW 1A : ... .. . ... : ... .. . ... : ... .. . ... : ... .. . ... : ... .. . ... F96 : ... .. . ... : F-4 0E . ... ... : F-4 0E . ...
ROW 1B : ... .. . ... : ... .. . ... : ... .. . ... : ... .. . ... : ... .. . ... F7C : ... .. . ... : ... .. . ... ... : ... .. . ...
ROW 1C : D-2 14 . ... : A-1 14 . ... : D-3 0D . ... : ... .. . ... : ... .. . ... F96 : D-1 0E . ... : A-4 0E . ... ... : D-4 0E . ...
ROW 1D : ... .. . ... : ... .. . ... : ... .. . ... : ... .. . ... : ... .. . ... F7C : ... .. . ... : ... .. . ... ... : ... .. . ...
ROW 1E : ... .. . ... : ... .. . ... : ... .. . ... : ... .. . ... : ... .. . ... F96 : ... .. . ... : F-4 0E . ... ... : A-3 0E . ...
ROW 1F : ... .. . ... : ... .. . ... : ... .. . ... : ... .. . ... : ... .. . ... F7C : ... .. . ... : ... .. . ... ... : ... .. . ...
ROW 20 : F-3 14 . ... : D-3 14 . ... : C-4 0D . ... : 3-# 0A . ... : C-3 09 . ... F96 : C-2 0E . ... : D-4 0E . ... ... : D-4 0E . ...
ROW 21 : ... .. . ... : ... .. . ... : ... .. . ... : ... .. . ... : ... .. . ... F7C : ... .. . ... : ... .. . ... ... : ... .. . ...
ROW 22 : ... .. . ... : ... .. . ... : ... .. . ... : ... .. . ... : ... .. . ... F96 : ... .. . ... : A-3 0E . ... ... : F-4 0E . ...
ROW 23 : ... .. . ... : ... .. . ... : ... .. . ... : ... .. . ... : ... .. . ... F7C : ... .. . ... : ... .. . ... ... : ... .. . ...
ROW 24 : D-2 14 . ... : A-1 14 . ... : D-3 0D . ... : ... .. . ... : ... .. . ... F96 : D-1 0E . ... : D-4 0E . ... ... : A-4 0E . ...
ROW 25 : ... .. . ... : ... .. . ... : ... .. . ... : ... .. . ... : ... .. . ... F7C : ... .. . ... : ... .. . ... ... : ... .. . ...
ROW 26 : ... .. . ... : ... .. . ... : ... .. . ... : 3-# 0A . ... : C-3 09 . ... F96 : ... .. . ... : F-4 0E . ... ... : F-4 0E . ...
ROW 27 : ... .. . ... : ... .. . ... : ... .. . ... : ... .. . ... : ... .. . ... F7C : ... .. . ... : ... .. . ... ... : ... .. . ...
ROW 28 : D-2 14 . ... : A-1 14 . ... : D-3 0D . ... : 8-# 0A . ... : C#3 09 . ... F96 : D-1 0E . ... : A-4 0E . ... ... : D-4 0E . ...
ROW 29 : ... .. . ... : ... .. . ... : ... .. . ... : ... .. . ... : ... .. . ... F7C : ... .. . ... : ... .. . ... ... : ... .. . ...
ROW 2A : ... .. . ... : ... .. . ... : ... .. . ... : ... .. . ... : ... .. . ... F96 : ... .. . ... : F-4 0E . ... ... : A-3 0E . ...
ROW 2B : ... .. . ... : ... .. . ... : ... .. . ... : ... .. . ... : ... .. . ... F7C : ... .. . ... : ... .. . ... ... : ... .. . ...
ROW 2C : F-3 14 . ... : D-3 14 . ... : A#3 0D . ... : ... .. . ... : ... .. . ... F96 : A#1 0E . ... : D-4 0E . ... ... : D-4 0E . ...
ROW 2D : ... .. . ... : ... .. . ... : ... .. . ... : ... .. . ... : ... .. . ... F7C : ... .. . ... : ... .. . ... ... : ... .. . ...
ROW 2E : ... .. . ... : ... .. . ... : ... .. . ... : ... .. . ... : ... .. . ... F96 : ... .. . ... : A-3 0E . ... ... : F-4 0E . ...
ROW 2F : ... .. . ... : ... .. . ... : ... .. . ... : ... .. . ... : ... .. . ... F7C : ... .. . ... : ... .. . ... ... : ... .. . ...
ROW 30 : D-2 14 . ... : A-1 14 . ... : D-3 0D . ... : 3-# 0A . ... : C-3 09 . ... F96 : D-1 0E . ... : D-4 0E . ... ... : A-4 0E . ...
ROW 31 : ... .. . ... : ... .. . ... : ... .. . ... : ... .. . ... : ... .. . ... F7C : ... .. . ... : ... .. . ... ... : ... .. . ...
ROW 32 : ... .. . ... : ... .. . ... : ... .. . ... : ... .. . ... : ... .. . ... F96 : ... .. . ... : F-4 0E . ... ... : F-4 0E . ...
ROW 33 : ... .. . ... : ... .. . ... : ... .. . ... : ... .. . ... : ... .. . ... F7C : ... .. . ... : ... .. . ... ... : ... .. . ...
ROW 34 : D-2 14 . ... : A-1 14 . ... : G-3 0D . ... : 3-# 0A . ... : C-3 09 . ... F96 : G-1 0E . ... : A-4 0E . ... ... : D-4 0E . ...
ROW 35 : ... .. . ... : ... .. . ... : ... .. . ... : ... .. . ... : ... .. . ... F7C : ... .. . ... : ... .. . ... ... : ... .. . ...
ROW 36 : ... .. . ... : ... .. . ... : ... .. . ... : 3-# 0A . ... : C-3 09 . ... F96 : ... .. . ... : F-4 0E . ... ... : A-3 0E . ...
ROW 37 : ... .. . ... : ... .. . ... : ... .. . ... : ... .. . ... : ... .. . ... F7C : ... .. . ... : ... .. . ... ... : ... .. . ...
ROW 38 : F-3 14 . ... : D-3 14 . ... : F-3 0D . ... : 8-# 0A . ... : C#3 09 . ... F96 : F-1 0E . ... : D-4 0E . ... ... : D-4 0E . ...
ROW 39 : ... .. . ... : ... .. . ... : ... .. . ... : ... .. . ... : ... .. . ... F7C : ... .. . ... : ... .. . ... ... : ... .. . ...
ROW 3A : ... .. . ... : ... .. . ... : ... .. . ... : ... .. . ... : ... .. . ... F96 : ... .. . ... : A-3 0E . ... ... : F-4 0E . ...
ROW 3B : ... .. . ... : ... .. . ... : ... .. . ... : ... .. . ... : ... .. . ... F7C : ... .. . ... : ... .. . ... ... : ... .. . ...
ROW 3C : D-2 14 . ... : A-1 14 . ... : E-3 0D . ... : ... .. . ... : ... .. . ... F96 : E-1 0E . ... : D-4 0E . ... ... : A-4 0E . ...
ROW 3D : ... .. . ... : ... .. . ... : ... .. . ... : ... .. . ... : ... .. . ... F7C : ... .. . ... : ... .. . ... ... : ... .. . ...
ROW 3E : ... .. . ... : ... .. . ... : ... .. . ... : ... .. . ... : ... .. . ... F96 : ... .. . ... : F-4 0E . ... ... : F-4 0E . ...
ROW 3F : ... .. . ... : ... .. . ... : ... .. . ... : ... .. . ... : ... .. . ... F7C : ... .. . ... : ... .. . ... ... : ... .. . ...

PATTERN 22
ROW 00 : D-2 14 . ... : A-1 14 . ... : D-3 0D . ... : 3-# 0A . ... : C-3 09 . ... F96 : D-1 0E . ... : A-4 0E . ... ... : D-4 0E . ...
ROW 01 : ... .. . ... : ... .. . ... : ... .. . ... : ... .. . ... : ... .. . ... F7C : ... .. . ... : ... .. . ... ... : ... .. . ...
ROW 02 : ... .. . ... : ... .. . ... : ... .. . ... : ... .. . ... : ... .. . ... F96 : ... .. . ... : F-4 0E . ... ... : A-3 0E . ...
ROW 03 : ... .. . ... : ... .. . ... : ... .. . ... : ... .. . ... : ... .. . ... F7C : ... .. . ... : ... .. . ... ... : ... .. . ...
ROW 04 : D-2 14 . ... : A-1 14 . ... : D-3 0D . ... : ... .. . ... : ... .. . ... F96 : D-1 0E . ... : D-4 0E . ... ... : D-4 0E . ...
ROW 05 : ... .. . ... : ... .. . ... : ... .. . ... : ... .. . ... : ... .. . ... F7C : ... .. . ... : ... .. . ... ... : ... .. . ...
ROW 06 : ... .. . ... : ... .. . ... : ... .. . ... : 3-# 0A . ... : C-3 09 . ... F96 : ... .. . ... : A-3 0E . ... ... : F-4 0E . ...
ROW 07 : ... .. . ... : ... .. . ... : ... .. . ... : ... .. . ... : ... .. . ... F7C : ... .. . ... : ... .. . ... ... : ... .. . ...
ROW 08 : E-3 14 . ... : C-3 14 . ... : A-3 0D . ... : 8-# 0A . ... : C#3 09 . ... F96 : A-1 0E . ... : D-4 0E . ... ... : G-4 0E . ...
ROW 09 : ... .. . ... : ... .. . ... : ... .. . ... : ... .. . ... : ... .. . ... F7C : ... .. . ... : ... .. . ... ... : ... .. . ...
ROW 0A : ... .. . ... : ... .. . ... : ... .. . ... : ... .. . ... : ... .. . ... F96 : ... .. . ... : F-4 0E . ... ... : E-4 0E . ...
ROW 0B : ... .. . ... : ... .. . ... : ... .. . ... : ... .. . ... : ... .. . ... F7C : ... .. . ... : ... .. . ... ... : ... .. . ...
ROW 0C : D-2 14 . ... : A-1 14 . ... : D-3 0D . ... : ... .. . ... : ... .. . ... F96 : D-1 0E . ... : G-4 0E . ... ... : F-4 0E . ...
ROW 0D : ... .. . ... : ... .. . ... : ... .. . ... : ... .. . ... : ... .. . ... F7C : ... .. . ... : ... .. . ... ... : ... .. . ...
ROW 0E : ... .. . ... : ... .. . ... : ... .. . ... : ... .. . ... : ... .. . ... F96 : ... .. . ... : E-4 0E . ... ... : D-4 0E . ...
ROW 0F : ... .. . ... : ... .. . ... : ... .. . ... : ... .. . ... : ... .. . ... F7C : ... .. . ... : ... .. . ... ... : ... .. . ...
ROW 10 : D-2 14 . ... : A-1 14 . ... : D-3 0D . ... : 3-# 0A . ... : C-3 09 . ... F96 : D-1 0E . ... : F-4 0E . ... ... : E-4 0E . ...
ROW 11 : ... .. . ... : ... .. . ... : ... .. . ... : ... .. . ... : ... .. . ... F7C : ... .. . ... : ... .. . ... ... : ... .. . ...
ROW 12 : ... .. . ... : ... .. . ... : ... .. . ... : ... .. . ... : ... .. . ... F96 : ... .. . ... : D-4 0E . ... ... : C#4 0E . ...
ROW 13 : ... .. . ... : ... .. . ... : ... .. . ... : ... .. . ... : ... .. . ... F7C : ... .. . ... : ... .. . ... ... : ... .. . ...
ROW 14 : E-3 14 . ... : C-3 14 . ... : A#3 0D . ... : 3-# 0A . ... : C-3 09 . ... F96 : A#1 0E . ... : E-4 0E . ... ... : D-4 0E . ...
ROW 15 : ... .. . ... : ... .. . ... : ... .. . ... : ... .. . ... : ... .. . ... F7C : ... .. . ... : ... .. . ... ... : ... .. . ...
ROW 16 : ... .. . ... : ... .. . ... : ... .. . ... : 3-# 0A . ... : C-3 09 . ... F96 : ... .. . ... : C#4 0E . ... ... : A#3 0E . ...
ROW 17 : ... .. . ... : ... .. . ... : ... .. . ... : ... .. . ... : ... .. . ... F7C : ... .. . ... : ... .. . ... ... : ... .. . ...
ROW 18 : D-2 14 . ... : A-1 14 . ... : D-3 0D . ... : 8-# 0A . ... : C#3 09 . ... F96 : D-1 0E . ... : D-4 0E . ... ... : E-4 0E . ...
ROW 19 : ... .. . ... : ... .. . ... : ... .. . ... : ... .. . ... : ... .. . ... F7C : ... .. . ... : ... .. . ... ... : ... .. . ...
ROW 1A : ... .. . ... : ... .. . ... : ... .. . ... : ... .. . ... : ... .. . ... F96 : ... .. . ... : A#3 0E . ... ... : C#4 0E . ...
ROW 1B : ... .. . ... : ... .. . ... : ... .. . ... : ... .. . ... : ... .. . ... F7C : ... .. . ... : ... .. . ... ... : ... .. . ...
ROW 1C : D-2 14 . ... : A-1 14 . ... : D-3 0D . ... : ... .. . ... : ... .. . ... F96 : D-1 0E . ... : E-4 0E . ... ... : E-4 0E . ...
ROW 1D : ... .. . ... : ... .. . ... : ... .. . ... : ... .. . ... : ... .. . ... F7C : ... .. . ... : ... .. . ... ... : ... .. . ...
ROW 1E : ... .. . ... : ... .. . ... : ... .. . ... : ... .. . ... : ... .. . ... F96 : ... .. . ... : C#4 0E . ... ... : A#3 0E . ...
ROW 1F : ... .. . ... : ... .. . ... : ... .. . ... : ... .. . ... : ... .. . ... F7C : ... .. . ... : ... .. . ... ... : ... .. . ...
ROW 20 : E-3 14 . ... : C-3 14 . ... : C-4 0D . ... : 3-# 0A . ... : C-3 09 . ... F96 : C-2 0E . ... : E-4 0E . ... ... : A-3 0E . ...
ROW 21 : ... .. . ... : ... .. . ... : ... .. . ... : ... .. . ... : ... .. . ... F7C : ... .. . ... : ... .. . ... ... : ... .. . ...
ROW 22 : ... .. . ... : ... .. . ... : ... .. . ... : ... .. . ... : ... .. . ... F96 : ... .. . ... : A#3 0E . ... ... : ... .. . ...
ROW 23 : ... .. . ... : ... .. . ... : ... .. . ... : ... .. . ... : ... .. . ... F7C : ... .. . ... : ... .. . ... ... : ... .. . ...
ROW 24 : D-2 14 . ... : A-1 14 . ... : D-3 0D . ... : ... .. . ... : ... .. . ... F96 : D-1 0E . ... : A-3 0E . ... ... : ... .. . ...
ROW 25 : ... .. . ... : ... .. . ... : ... .. . ... : ... .. . ... : ... .. . ... F7C : ... .. . ... : ... .. . ... ... : ... .. . ...
ROW 26 : ... .. . ... : ... .. . ... : ... .. . ... : 3-# 0A . ... : C-3 09 . ... F96 : ... .. . ... : ... .. . ... ... : ... .. . ...
ROW 27 : ... .. . ... : ... .. . ... : ... .. . ... : ... .. . ... : ... .. . ... F7C : ... .. . ... : ... .. . ... ... : ... .. . ...
ROW 28 : D-2 14 . ... : A-1 14 . ... : D-3 0D . ... : 8-# 0A . ... : C#3 09 . ... F96 : D-1 0E . ... : ... .. . ... ... : ... .. . ...
ROW 29 : ... .. . ... : ... .. . ... : ... .. . ... : ... .. . ... : ... .. . ... F7C : ... .. . ... : ... .. . ... ... : ... .. . ...
ROW 2A : ... .. . ... : ... .. . ... : ... .. . ... : ... .. . ... : ... .. . ... F96 : ... .. . ... : ... .. . ... ... : ... .. . ...
ROW 2B : ... .. . ... : ... .. . ... : ... .. . ... : ... .. . ... : ... .. . ... F7C : ... .. . ... : ... .. . ... ... : ... .. . ...
ROW 2C : E-3 14 . ... : C-3 14 . ... : A#3 0D . ... : ... .. . ... : ... .. . ... F96 : A#1 0E . ... : ... .. . ... ... : ... .. . Q5C
ROW 2D : ... .. . ... : ... .. . ... : ... .. . ... : ... .. . ... : ... .. . ... F7C : ... .. . ... : ... .. . ... ... : ... .. . ...
ROW 2E : ... .. . ... : ... .. . ... : ... .. . ... : ... .. . ... : ... .. . ... F96 : ... .. . ... : ... .. . ... ... : ... .. . 464
ROW 2F : ... .. . ... : ... .. . ... : ... .. . ... : ... .. . ... : ... .. . ... F7C : ... .. . ... : ... .. . ... ... : ... .. . ...
ROW 30 : D-2 14 . ... : A-1 14 . ... : D-3 0D . ... : 3-# 0A . ... : C-3 09 . ... F96 : D-1 0E . ... : ... .. . Q5C ... : ... .. . ...
ROW 31 : ... .. . ... : ... .. . ... : ... .. . ... : ... .. . ... : ... .. . ... F7C : ... .. . ... : ... .. . ... ... : ... .. . ...
ROW 32 : ... .. . ... : ... .. . ... : ... .. . ... : ... .. . ... : ... .. . ... F96 : ... .. . ... : ... .. . 464 ... : ... .. . ...
ROW 33 : ... .. . ... : ... .. . ... : ... .. . ... : ... .. . ... : ... .. . ... F7C : ... .. . ... : ... .. . ... ... : ... .. . ...
ROW 34 : D-2 14 . ... : A-1 14 . ... : G-3 0D . ... : 3-# 0A . ... : C-3 09 . ... F96 : G-1 0E . ... : ... .. . ... ... : ... .. . ...
ROW 35 : ... .. . ... : ... .. . ... : ... .. . ... : ... .. . ... : ... .. . ... F7C : ... .. . ... : ... .. . ... ... : ... .. . ...
ROW 36 : ... .. . ... : ... .. . ... : ... .. . ... : 3-# 0A . ... : C-3 09 . ... F96 : ... .. . ... : ... .. . ... ... : ... .. . ...
ROW 37 : ... .. . ... : ... .. . ... : ... .. . ... : ... .. . ... : ... .. . ... F7C : ... .. . ... : ... .. . ... ... : ... .. . ...
ROW 38 : E-3 14 . ... : C-3 14 . ... : F-3 0D . ... : 8-# 0A . ... : C#3 09 . ... F96 : F-1 0E . ... : ... .. . ... ... : ... .. . ...
ROW 39 : ... .. . ... : ... .. . ... : ... .. . ... : ... .. . ... : ... .. . ... F7C : ... .. . ... : ... .. . ... ... : ... .. . ...
ROW 3A : ... .. . ... : ... .. . ... : ... .. . ... : ... .. . ... : ... .. . ... F96 : ... .. . ... : ... .. . ... ... : ... .. . ...
ROW 3B : ... .. . ... : ... .. . ... : ... .. . ... : ... .. . ... : ... .. . ... F7C : ... .. . ... : ... .. . ... ... : ... .. . ...
ROW 3C : D-2 14 . ... : A-1 14 . ... : E-3 0D . ... : ... .. . ... : ... .. . ... F96 : E-1 0E . ... : ... .. . ... ... : ... .. . ...
ROW 3D : ... .. . ... : ... .. . ... : ... .. . ... : ... .. . ... : ... .. . ... F7C : ... .. . ... : ... .. . ... ... : ... .. . ...
ROW 3E : ... .. . ... : ... .. . ... : ... .. . ... : ... .. . ... : ... .. . ... F96 : ... .. . ... : ... .. . ... ... : ... .. . ...
ROW 3F : ... .. . ... : ... .. . ... : ... .. . ... : ... .. . ... : ... .. . ... F7C : ... .. . ... : ... .. . ... ... : ... .. . ...

PATTERN 23
ROW 00 : D-2 14 . ... : A-1 14 . ... : D-3 0D . ... : 3-# 0A . ... : C-3 09 . ... F96 : D-1 0E . ... : ... .. . ... ... : F-3 0E . 400
ROW 01 : ... .. . ... : ... .. . ... : ... .. . ... : ... .. . ... : ... .. . ... F7C : ... .. . ... : ... .. . ... ... : ... .. . ...
ROW 02 : ... .. . ... : ... .. . ... : ... .. . ... : ... .. . ... : ... .. . ... F96 : ... .. . ... : ... .. . ... ... : G-3 0E . ...
ROW 03 : ... .. . ... : ... .. . ... : ... .. . ... : ... .. . ... : ... .. . ... F7C : ... .. . ... : ... .. . ... ... : ... .. . ...
ROW 04 : D-2 14 . ... : A-1 14 . ... : D-3 0D . ... : ... .. . ... : ... .. . ... F96 : D-1 0E . ... : F-3 0E . 400 ... : A-3 0E . ...
ROW 05 : ... .. . ... : ... .. . ... : ... .. . ... : ... .. . ... : ... .. . ... F7C : ... .. . ... : ... .. . ... ... : ... .. . ...
ROW 06 : ... .. . ... : ... .. . ... : ... .. . ... : 3-# 0A . ... : C-3 09 . ... F96 : ... .. . ... : G-3 0E . ... ... : A#3 0E . ...
ROW 07 : ... .. . ... : ... .. . ... : ... .. . ... : ... .. . ... : ... .. . ... F7C : ... .. . ... : ... .. . ... ... : ... .. . ...
ROW 08 : G-3 14 . ... : E-3 14 . ... : A-3 0D . ... : 8-# 0A . ... : C#3 09 . ... F96 : A-1 0E . ... : A-3 0E . ... ... : C-4 0E . ...
ROW 09 : ... .. . ... : ... .. . ... : ... .. . ... : ... .. . ... : ... .. . ... F7C : ... .. . ... : ... .. . ... ... : ... .. . ...
ROW 0A : ... .. . ... : ... .. . ... : ... .. . ... : ... .. . ... : ... .. . ... F96 : ... .. . ... : A#3 0E . ... ... : D-4 0E . ...
ROW 0B : ... .. . ... : ... .. . ... : ... .. . ... : ... .. . ... : ... .. . ... F7C : ... .. . ... : ... .. . ... ... : ... .. . ...
ROW 0C : D-2 14 . ... : A-1 14 . ... : D-3 0D . ... : ... .. . ... : ... .. . ... F96 : D-1 0E . ... : C-4 0E . ... ... : E-4 0E . ...
ROW 0D : ... .. . ... : ... .. . ... : ... .. . ... : ... .. . ... : ... .. . ... F7C : ... .. . ... : ... .. . ... ... : ... .. . ...
ROW 0E : ... .. . ... : ... .. . ... : ... .. . ... : ... .. . ... : ... .. . ... F96 : ... .. . ... : D-4 0E . ... ... : F-4 0E . ...
ROW 0F : ... .. . ... : ... .. . ... : ... .. . ... : ... .. . ... : ... .. . ... F7C : ... .. . ... : ... .. . ... ... : ... .. . ...
ROW 10 : D-2 14 . ... : A-1 14 . ... : D-3 0D . ... : 3-# 0A . ... : C-3 09 . ... F96 : D-1 0E . ... : E-4 0E . ... ... : E-4 0E . ...
ROW 11 : ... .. . ... : ... .. . ... : ... .. . ... : ... .. . ... : ... .. . ... F7C : ... .. . ... : ... .. . ... ... : ... .. . ...
ROW 12 : ... .. . ... : ... .. . ... : ... .. . ... : ... .. . ... : ... .. . ... F96 : ... .. . ... : F-4 0E . ... ... : D-4 0E . ...
ROW 13 : ... .. . ... : ... .. . ... : ... .. . ... : ... .. . ... : ... .. . ... F7C : ... .. . ... : ... .. . ... ... : ... .. . ...
ROW 14 : G-3 14 . ... : E-3 14 . ... : A#3 0D . ... : 3-# 0A . ... : C-3 09 . ... F96 : A#1 0E . ... : E-4 0E . ... ... : C-4 0E . ...
ROW 15 : ... .. . ... : ... .. . ... : ... .. . ... : ... .. . ... : ... .. . ... F7C : ... .. . ... : ... .. . ... ... : ... .. . ...
ROW 16 : ... .. . ... : ... .. . ... : ... .. . ... : 3-# 0A . ... : C-3 09 . ... F96 : ... .. . ... : D-4 0E . ... ... : E-4 0E . ...
ROW 17 : ... .. . ... : ... .. . ... : ... .. . ... : ... .. . ... : ... .. . ... F7C : ... .. . ... : ... .. . ... ... : ... .. . ...
ROW 18 : D-2 14 . ... : A-1 14 . ... : D-3 0D . ... : 8-# 0A . ... : C#3 09 . ... F96 : D-1 0E . ... : C-4 0E . ... ... : D-4 0E . ...
ROW 19 : ... .. . ... : ... .. . ... : ... .. . ... : ... .. . ... : ... .. . ... F7C : ... .. . ... : ... .. . ... ... : ... .. . ...
ROW 1A : ... .. . ... : ... .. . ... : ... .. . ... : ... .. . ... : ... .. . ... F96 : ... .. . ... : E-4 0E . ... ... : C-4 0E . ...
ROW 1B : ... .. . ... : ... .. . ... : ... .. . ... : ... .. . ... : ... .. . ... F7C : ... .. . ... : ... .. . ... ... : ... .. . ...
ROW 1C : D-2 14 . ... : A-1 14 . ... : D-3 0D . ... : ... .. . ... : ... .. . ... F96 : D-1 0E . ... : D-4 0E . ... ... : A#3 0E . ...
ROW 1D : ... .. . ... : ... .. . ... : ... .. . ... : ... .. . ... : ... .. . ... F7C : ... .. . ... : ... .. . ... ... : ... .. . ...
ROW 1E : ... .. . ... : ... .. . ... : ... .. . ... : ... .. . ... : ... .. . ... F96 : ... .. . ... : C-4 0E . ... ... : A-3 0E . ...
ROW 1F : ... .. . ... : ... .. . ... : ... .. . ... : ... .. . ... : ... .. . ... F7C : ... .. . ... : ... .. . ... ... : ... .. . ...
ROW 20 : G-3 14 . ... : E-3 14 . ... : C-4 0D . ... : 3-# 0A . ... : C-3 09 . ... F96 : C-2 0E . ... : A#3 0E . ... ... : C-4 0E . ...
ROW 21 : ... .. . ... : ... .. . ... : ... .. . ... : ... .. . ... : ... .. . ... F7C : ... .. . ... : ... .. . ... ... : ... .. . ...
ROW 22 : ... .. . ... : ... .. . ... : ... .. . ... : ... .. . ... : ... .. . ... F96 : ... .. . ... : A-3 0E . ... ... : A#3 0E . ...
ROW 23 : ... .. . ... : ... .. . ... : ... .. . ... : ... .. . ... : ... .. . ... F7C : ... .. . ... : ... .. . ... ... : ... .. . ...
ROW 24 : D-2 14 . ... : A-1 14 . ... : D-3 0D . ... : ... .. . ... : ... .. . ... F96 : D-1 0E . ... : C-4 0E . ... ... : A-3 0E . ...
ROW 25 : ... .. . ... : ... .. . ... : ... .. . ... : ... .. . ... : ... .. . ... F7C : ... .. . ... : ... .. . ... ... : ... .. . ...
ROW 26 : ... .. . ... : ... .. . ... : ... .. . ... : 3-# 0A . ... : C-3 09 . ... F96 : ... .. . ... : A#3 0E . ... ... : G-3 0E . ...
ROW 27 : ... .. . ... : ... .. . ... : ... .. . ... : ... .. . ... : ... .. . ... F7C : ... .. . ... : ... .. . ... ... : ... .. . ...
ROW 28 : D-2 14 . ... : A-1 14 . ... : D-3 0D . ... : 8-# 0A . ... : C#3 09 . ... F96 : D-1 0E . ... : A-3 0E . ... ... : A#3 0E . ...
ROW 29 : ... .. . ... : ... .. . ... : ... .. . ... : ... .. . ... : ... .. . ... F7C : ... .. . ... : ... .. . ... ... : ... .. . ...
ROW 2A : ... .. . ... : ... .. . ... : ... .. . ... : ... .. . ... : ... .. . ... F96 : ... .. . ... : G-3 0E . ... ... : A-3 0E . ...
ROW 2B : ... .. . ... : ... .. . ... : ... .. . ... : ... .. . ... : ... .. . ... F7C : ... .. . ... : ... .. . ... ... : ... .. . ...
ROW 2C : G-3 14 . ... : E-3 14 . ... : A#3 0D . ... : ... .. . ... : ... .. . ... F96 : A#1 0E . ... : A#3 0E . ... ... : G-3 0E . ...
ROW 2D : ... .. . ... : ... .. . ... : ... .. . ... : ... .. . ... : ... .. . ... F7C : ... .. . ... : ... .. . ... ... : ... .. . ...
ROW 2E : ... .. . ... : ... .. . ... : ... .. . ... : ... .. . ... : ... .. . ... F96 : ... .. . ... : A-3 0E . ... ... : F-3 0E . ...
ROW 2F : ... .. . ... : ... .. . ... : ... .. . ... : ... .. . ... : ... .. . ... F7C : ... .. . ... : ... .. . ... ... : ... .. . ...
ROW 30 : D-2 14 . ... : A-1 14 . ... : D-3 0D . ... : 8-# 0A . ... : C#3 09 . ... F96 : D-1 0E . ... : G-3 0E . ... ... : F-3 0E . ...
ROW 31 : ... .. . ... : ... .. . ... : ... .. . ... : ... .. . ... : ... .. . ... F7C : ... .. . ... : ... .. . ... ... : ... .. . ...
ROW 32 : ... .. . ... : ... .. . ... : ... .. . ... : 8-# 0A 7 ... : C#3 09 . ... F96 : ... .. . ... : F-3 0E . ... ... : A-3 0E . ...
ROW 33 : ... .. . ... : ... .. . ... : ... .. . ... : ... .. . ... : ... .. . ... F7C : ... .. . ... : ... .. . ... ... : ... .. . ...
ROW 34 : D-2 14 . ... : A-1 14 . ... : D-3 0D . ... : 8-# 0A . ... : C#3 09 . ... F96 : D-1 0E . ... : F-3 0E . ... ... : G-3 0E . ...
ROW 35 : ... .. . ... : ... .. . ... : ... .. . ... : ... .. . ... : ... .. . ... F7C : ... .. . ... : ... .. . ... ... : ... .. . ...
ROW 36 : ... .. . ... : ... .. . ... : ... .. . ... : 8-# 0A . ... : C#3 09 . ... F96 : ... .. . ... : A-3 0E . ... ... : F-3 0E . ...
ROW 37 : ... .. . ... : ... .. . ... : ... .. . ... : ... .. . ... : ... .. . ... F7C : ... .. . ... : ... .. . ... ... : ... .. . ...
ROW 38 : G-3 14 . ... : E-3 14 . ... : A-3 0D . ... : 8-# 0A F ... : C#3 09 . ... F96 : A-1 0E . ... : G-3 0E . ... ... : F-3 0E . ...
ROW 39 : ... .. . ... : ... .. . ... : ... .. . ... : ... .. . ... : ... .. . ... F7C : ... .. . ... : ... .. . ... ... : ... .. . ...
ROW 3A : ... .. . ... : ... .. . ... : ... .. . ... : 8-# 0A 7 ... : C#3 09 . ... F96 : ... .. . ... : F-3 0E . ... ... : A-3 0E . ...
ROW 3B : ... .. . ... : ... .. . ... : ... .. . ... : ... .. . ... : ... .. . ... F7C : ... .. . ... : ... .. . ... ... : ... .. . ...
ROW 3C : D-2 14 . ... : A-1 14 . ... : G-3 0D . ... : 8-# 0A . ... : C#3 09 . ... F96 : G-1 0E . ... : F-3 0E . ... ... : G-3 0E . ...
ROW 3D : ... .. . ... : ... .. . ... : ... .. . ... : ... .. . ... : ... .. . ... F7C : ... .. . ... : ... .. . ... ... : ... .. . ...
ROW 3E : ... .. . ... : ... .. . ... : ... .. . ... : 8-# 0A . ... : C#3 09 . ... F96 : ... .. . ... : A-3 0E . ... ... : F-3 0E . ...
ROW 3F : ... .. . ... : ... .. . ... : ... .. . ... : ... .. . ... : ... .. . ... F7C : ... .. . ... : ... .. . ... ... : ... .. . ...

PATTERN 24
ROW 00 : D-2 14 . ... : A-1 14 . ... : D-3 0D . ... : 3-# 0A F ... : C-3 09 . ... F96 : D-1 0E . ... : G-3 0E . ... ... : D-3 0E . ...
ROW 01 : ... .. . ... : ... .. . ... : ... .. . ... : ... .. . ... : ... .. . ... F7C : ... .. . ... : ... .. . ... ... : ... .. . ...
ROW 02 : ... .. . ... : ... .. . ... : ... .. . ... : ... .. . ... : ... .. . ... F96 : ... .. . ... : F-3 0E . ... ... : ... .. . ...
ROW 03 : ... .. . ... : ... .. . ... : ... .. . ... : ... .. . ... : ... .. . ... F7C : ... .. . ... : ... .. . ... ... : ... .. . ...
ROW 04 : D-2 14 . ... : A-1 14 . ... : D-3 0D . ... : ... .. . ... : ... .. . ... F96 : D-1 0E . ... : D-3 0E . ... ... : ... .. . ...
ROW 05 : ... .. . ... : ... .. . ... : ... .. . ... : ... .. . ... : ... .. . ... F7C : ... .. . ... : ... .. . ... ... : ... .. . ...
ROW 06 : ... .. . ... : ... .. . ... : ... .. . ... : 3-# 0A . ... : C-3 09 . ... F96 : ... .. . ... : ... .. . ... ... : ... .. . ...
ROW 07 : ... .. . ... : ... .. . ... : ... .. . ... : ... .. . ... : ... .. . ... F7C : ... .. . ... : ... .. . ... ... : ... .. . ...
ROW 08 : F-3 14 . ... : D-3 14 . ... : A-3 0D . ... : 8-# 0A . ... : C#3 09 . ... F96 : A-1 0E . ... : ... .. . ... ... : ... .. . 444
ROW 09 : ... .. . ... : ... .. . ... : ... .. . ... : ... .. . ... : ... .. . ... F7C : ... .. . ... : ... .. . ... ... : ... .. . ...
ROW 0A : ... .. . ... : ... .. . ... : ... .. . ... : ... .. . ... : ... .. . ... F96 : ... .. . ... : ... .. . ... ... : ... .. . ...
ROW 0B : ... .. . ... : ... .. . ... : ... .. . ... : ... .. . ... : ... .. . ... F7C : ... .. . ... : ... .. . ... ... : ... .. . ...
ROW 0C : D-2 14 . ... : A-1 14 . ... : D-3 0D . ... : ... .. . ... : ... .. . ... F96 : D-1 0E . ... : ... .. . 444 ... : ... .. . ...
ROW 0D : ... .. . ... : ... .. . ... : ... .. . ... : ... .. . ... : ... .. . ... F7C : ... .. . ... : ... .. . ... ... : ... .. . ...
ROW 0E : ... .. . ... : ... .. . ... : ... .. . ... : ... .. . ... : ... .. . ... F96 : ... .. . ... : ... .. . ... ... : ... .. . ...
ROW 0F : ... .. . ... : ... .. . ... : ... .. . ... : ... .. . ... : ... .. . ... F7C : ... .. . ... : ... .. . ... ... : ... .. . ...
ROW 10 : F-3 14 . ... : D-3 14 . ... : D-3 0D . ... : 3-# 0A . ... : C-3 09 . ... F96 : D-1 0E . ... : ... .. . ... ... : ... .. . ...
ROW 11 : ... .. . ... : ... .. . ... : ... .. . ... : ... .. . ... : ... .. . ... F7C : ... .. . ... : ... .. . ... ... : ... .. . ...
ROW 12 : ... .. . ... : ... .. . ... : ... .. . ... : ... .. . ... : ... .. . ... F96 : ... .. . ... : ... .. . ... ... : ... .. . ...
ROW 13 : ... .. . ... : ... .. . ... : ... .. . ... : ... .. . ... : ... .. . ... F7C : ... .. . ... : ... .. . ... ... : ... .. . ...
ROW 14 : F-3 14 . ... : D-3 14 . ... : A#3 0D . ... : 3-# 0A . ... : C-3 09 . ... F96 : A#1 0E . ... : ... .. . ... ... : ... .. . ...
ROW 15 : ... .. . ... : ... .. . ... : ... .. . ... : ... .. . ... : ... .. . ... F7C : ... .. . ... : ... .. . ... ... : ... .. . ...
ROW 16 : ... .. . ... : ... .. . ... : ... .. . ... : 3-# 0A . ... : C-3 09 . ... F96 : ... .. . ... : ... .. . ... ... : ... .. . ...
ROW 17 : ... .. . ... : ... .. . ... : ... .. . ... : ... .. . ... : ... .. . ... F7C : ... .. . ... : ... .. . ... ... : ... .. . ...
ROW 18 : D-2 14 . ... : A-1 14 . ... : D-3 0D . ... : 8-# 0A . ... : C#3 09 . ... F96 : D-1 0E . ... : ... .. . ... ... : ... .. . ...
ROW 19 : ... .. . ... : ... .. . ... : ... .. . ... : ... .. . ... : ... .. . ... F7C : ... .. . ... : ... .. . ... ... : ... .. . ...
ROW 1A : ... .. . ... : ... .. . ... : ... .. . ... : ... .. . ... : ... .. . ... F96 : ... .. . ... : ... .. . ... ... : ... .. . ...
ROW 1B : ... .. . ... : ... .. . ... : ... .. . ... : ... .. . ... : ... .. . ... F7C : ... .. . ... : ... .. . ... ... : ... .. . ...
ROW 1C : D-2 14 . ... : A-1 14 . ... : D-3 0D . ... : ... .. . ... : ... .. . ... F96 : D-1 0E . ... : ... .. . ... ... : ... .. . ...
ROW 1D : ... .. . ... : ... .. . ... : ... .. . ... : ... .. . ... : ... .. . ... F7C : ... .. . ... : ... .. . ... ... : ... .. . ...
ROW 1E : ... .. . ... : ... .. . ... : ... .. . ... : ... .. . ... : ... .. . ... F96 : ... .. . ... : ... .. . ... ... : ... .. . ...
ROW 1F : ... .. . ... : ... .. . ... : ... .. . ... : B-# 0B . G02 : D-3 09 . G02 F7C : ... .. . ... : ... .. . ... ... : ... .. . ...
ROW 20 : C-4 14 . ... : G-3 14 . ... : C-4 0D . ... : B-# 0B . G01 : D-3 09 . G01 F96 : C-2 0E . ... : ... .. . ... ... : D-3 0E . 400
ROW 21 : ... .. . ... : ... .. . ... : ... .. . ... : ... .. . ... : ... .. . ... F7C : ... .. . ... : ... .. . ... ... : ... .. . ...
ROW 22 : ... .. . ... : ... .. . ... : ... .. . ... : B-# 0B . ... : D-3 09 . ... F96 : ... .. . ... : ... .. . ... ... : E-3 0E . ...
ROW 23 : ... .. . ... : ... .. . ... : ... .. . ... : ... .. . ... : ... .. . ... F7C : ... .. . ... : ... .. . ... ... : ... .. . ...
ROW 24 : D-2 14 . ... : A-1 14 . ... : D-3 0D . ... : B-# 0B . ... : D-3 09 . ... F96 : D-1 0E . ... : D-3 0E . 400 ... : F-3 0E . ...
ROW 25 : ... .. . ... : ... .. . ... : ... .. . ... : ... .. . ... : ... .. . ... F7C : ... .. . ... : ... .. . ... ... : ... .. . ...
ROW 26 : ... .. . ... : ... .. . ... : ... .. . ... : B-# 0B . ... : D-3 09 . ... F96 : ... .. . ... : E-3 0E . ... ... : G-3 0E . ...
ROW 27 : ... .. . ... : ... .. . ... : ... .. . ... : ... .. . ... : ... .. . ... F7C : ... .. . ... : ... .. . ... ... : ... .. . ...
ROW 28 : A-3 14 . ... : E-3 14 . ... : D-3 0D . ... : A-# 0B . ... : D#3 09 . ... F96 : D-1 0E . ... : F-3 0E . ... ... : F-3 0E . ...
ROW 29 : ... .. . ... : ... .. . ... : ... .. . ... : ... .. . ... : ... .. . ... F7C : ... .. . ... : ... .. . ... ... : ... .. . ...
ROW 2A : ... .. . ... : ... .. . ... : ... .. . ... : A-# 0B . ... : D#3 09 . ... F96 : ... .. . ... : G-3 0E . ... ... : E-3 0E . ...
ROW 2B : ... .. . ... : ... .. . ... : ... .. . ... : ... .. . ... : ... .. . ... F7C : ... .. . ... : ... .. . ... ... : ... .. . ...
ROW 2C : D-2 14 . ... : A-1 14 . ... : A#3 0D . ... : A-# 0B . ... : D#3 09 . ... F96 : A#1 0E . ... : F-3 0E . ... ... : D-3 0E . ...
ROW 2D : ... .. . ... : ... .. . ... : ... .. . ... : ... .. . ... : ... .. . ... F7C : ... .. . ... : ... .. . ... ... : ... .. . ...
ROW 2E : ... .. . ... : ... .. . ... : ... .. . ... : A-# 0B . ... : D#3 09 . ... F96 : ... .. . ... : E-3 0E . ... ... : E-3 0E . ...
ROW 2F : ... .. . ... : ... .. . ... : ... .. . ... : ... .. . ... : ... .. . ... F7C : ... .. . ... : ... .. . ... ... : ... .. . ...
ROW 30 : A#3 14 . ... : F-3 14 . ... : D-3 0D . ... : 9-# 0B . ... : E-3 09 . ... F96 : D-1 0E . ... : D-3 0E . ... ... : D-3 0E . ...
ROW 31 : ... .. . ... : ... .. . ... : ... .. . ... : ... .. . ... : ... .. . ... F7C : ... .. . ... : ... .. . ... ... : ... .. . ...
ROW 32 : ... .. . ... : ... .. . ... : ... .. . ... : 9-# 0B . ... : E-3 09 . ... F96 : ... .. . ... : E-3 0E . ... ... : E-3 0E . ...
ROW 33 : ... .. . ... : ... .. . ... : ... .. . ... : ... .. . ... : ... .. . ... F7C : ... .. . ... : ... .. . ... ... : ... .. . ...
ROW 34 : D-2 14 . ... : A-1 14 . ... : G-3 0D . ... : 9-# 0B . ... : E-3 09 . ... F96 : G-1 0E . ... : D-3 0E . ... ... : D-3 0E . ...
ROW 35 : ... .. . ... : ... .. . ... : ... .. . ... : ... .. . ... : ... .. . ... F7C : ... .. . ... : ... .. . ... ... : ... .. . ...
ROW 36 : ... .. . ... : ... .. . ... : ... .. . ... : 9-# 0B . ... : E-3 09 . ... F96 : ... .. . ... : E-3 0E . ... ... : E-3 0E . ...
ROW 37 : ... .. . ... : ... .. . ... : ... .. . ... : 8-# 0A . G02 : C#3 09 . G02 F7C : ... .. . ... : ... .. . ... ... : ... .. . ...
ROW 38 : G-3 14 . ... : E-3 14 . ... : F-3 0D . ... : 8-# 0A . G01 : C#3 09 . G01 F96 : F-1 0E . ... : D-3 0E . ... ... : D-3 0E . ...
ROW 39 : ... .. . ... : ... .. . ... : ... .. . ... : ... .. . ... : ... .. . ... F7C : ... .. . ... : ... .. . ... ... : ... .. . ...
ROW 3A : ... .. . ... : ... .. . ... : ... .. . ... : 8-# 0A . ... : C#3 09 . ... F96 : ... .. . ... : E-3 0E . ... ... : E-3 0E . ...
ROW 3B : ... .. . ... : ... .. . ... : ... .. . ... : ... .. . ... : ... .. . ... F7C : ... .. . ... : ... .. . ... ... : ... .. . ...
ROW 3C : D-2 14 . ... : A-1 14 . ... : E-3 0D . ... : 8-# 0A . ... : C#3 09 . ... F96 : E-1 0E . ... : D-3 0E . ... ... : D-3 0E . ...
ROW 3D : ... .. . ... : ... .. . ... : ... .. . ... : ... .. . ... : ... .. . ... F7C : ... .. . ... : ... .. . ... ... : ... .. . ...
ROW 3E : ... .. . ... : ... .. . ... : ... .. . ... : 8-# 0A . ... : C#3 09 . ... F96 : ... .. . ... : E-3 0E . ... ... : C-3 0E . ...
ROW 3F : ... .. . ... : ... .. . ... : ... .. . ... : ... .. . ... : ... .. . ... F7C : ... .. . ... : ... .. . ... ... : ... .. . ...

PATTERN 25
ROW 00 : D-3 14 . ... : A#2 14 . ... : D-3 0D . ... : 3-# 0A . ... : C-3 09 . ... F96 : F-5 12 F ... : D-3 0E . ... ... : D-1 0E D ...
ROW 01 : ... .. . ... : ... .. . ... : ... .. . ... : ... .. . ... : ... .. . ... F7C : ... .. . ... : ... .. . ... ... : ... .. . ...
ROW 02 : ... .. . ... : ... .. . ... : ... .. . ... : ... .. . ... : ... .. . ... F96 : ... .. . ... : C-3 0E . ... ... : ... .. . ...
ROW 03 : ... .. . ... : ... .. . ... : ... .. . ... : ... .. . ... : ... .. . ... F7C : ... .. . ... : ... .. . ... ... : ... .. . ...
ROW 04 : D-3 14 . ... : A#2 14 . ... : D-3 0D . ... : ... .. . ... : ... .. . ... F96 : D-5 12 . ... : --- .. . ... ... : D-1 0E . ...
ROW 05 : ... .. . ... : ... .. . ... : ... .. . ... : ... .. . ... : ... .. . ... F7C : ... .. . ... : ... .. . ... ... : ... .. . ...
ROW 06 : ... .. . ... : ... .. . ... : ... .. . ... : 3-# 0A . ... : C-3 09 . ... F96 : ... .. . ... : F-5 12 9 ... P80 : ... .. . ...
ROW 07 : ... .. . ... : ... .. . ... : ... .. . ... : ... .. . ... : ... .. . ... F7C : ... .. . ... : ... .. . ... ... : ... .. . ...
ROW 08 : E-3 14 . ... : A#2 14 . ... : D-3 0D . ... : 8-# 0A . ... : C#3 09 . ... F96 : C#5 12 . ... : ... .. . ... ... : D-1 0E . ...
ROW 09 : ... .. . ... : ... .. . ... : ... .. . ... : ... .. . ... : ... .. . ... F7C : ... .. . ... : ... .. . ... ... : ... .. . ...
ROW 0A : ... .. . ... : ... .. . ... : ... .. . ... : ... .. . ... : ... .. . ... F96 : ... .. . ... : D-5 12 . ... ... : ... .. . ...
ROW 0B : ... .. . ... : ... .. . ... : ... .. . ... : ... .. . ... : ... .. . ... F7C : ... .. . ... : ... .. . ... ... : ... .. . ...
ROW 0C : ... .. . ... : A#2 14 . ... : D-3 0D . ... : ... .. . ... : ... .. . ... F96 : D-5 12 . ... : ... .. . ... ... : D-1 0E . ...
ROW 0D : ... .. . ... : ... .. . ... : ... .. . ... : ... .. . ... : ... .. . ... F7C : ... .. . ... : ... .. . ... ... : ... .. . ...
ROW 0E : ... .. . ... : ... .. . ... : ... .. . ... : ... .. . ... : ... .. . ... F96 : ... .. . ... : C#5 12 . ... ... : ... .. . ...
ROW 0F : ... .. . ... : ... .. . ... : ... .. . ... : ... .. . ... : ... .. . ... F7C : ... .. . ... : ... .. . ... ... : ... .. . ...
ROW 10 : F-3 14 . ... : A#2 14 . ... : D-3 0D . ... : 3-# 0A . ... : C-3 09 . ... F96 : G-5 12 . ... : ... .. . ... ... : D-1 0E . ...
ROW 11 : ... .. . ... : ... .. . ... : ... .. . ... : ... .. . ... : ... .. . ... F7C : ... .. . ... : ... .. . ... ... : ... .. . ...
ROW 12 : ... .. . ... : ... .. . ... : ... .. . ... : ... .. . ... : ... .. . ... F96 : ... .. . ... : D-5 12 . ... ... : ... .. . ...
ROW 13 : ... .. . ... : ... .. . ... : ... .. . ... : ... .. . ... : ... .. . ... F7C : ... .. . ... : ... .. . ... ... : ... .. . ...
ROW 14 : ... .. . ... : A#2 14 . ... : D-3 0D . ... : 3-# 0A . ... : C-3 09 . ... F96 : D-5 12 . ... : ... .. . ... ... : D-1 0E . ...
ROW 15 : ... .. . ... : ... .. . ... : ... .. . ... : ... .. . ... : ... .. . ... F7C : ... .. . ... : ... .. . ... ... : ... .. . ...
ROW 16 : ... .. . ... : ... .. . ... : ... .. . ... : 3-# 0A . ... : C-3 09 . ... F96 : ... .. . ... : G-5 12 . ... ... : ... .. . ...
ROW 17 : ... .. . ... : ... .. . ... : ... .. . ... : ... .. . ... : ... .. . ... F7C : ... .. . ... : ... .. . ... ... : ... .. . ...
ROW 18 : E-3 14 . ... : A#2 14 . ... : D-3 0D . ... : 8-# 0A . ... : C#3 09 . ... F96 : C#5 12 . ... : ... .. . ... ... : D-1 0E . ...
ROW 19 : ... .. . ... : ... .. . ... : ... .. . ... : ... .. . ... : ... .. . ... F7C : ... .. . ... : ... .. . ... ... : ... .. . ...
ROW 1A : ... .. . ... : ... .. . ... : ... .. . ... : ... .. . ... : ... .. . ... F96 : ... .. . ... : D-5 12 . ... ... : ... .. . ...
ROW 1B : ... .. . ... : ... .. . ... : ... .. . ... : ... .. . ... : ... .. . ... F7C : ... .. . ... : ... .. . ... ... : ... .. . ...
ROW 1C : D-3 14 . ... : A#2 14 . ... : D-3 0D . ... : ... .. . ... : ... .. . ... F96 : D-5 12 . ... : ... .. . ... ... : D-1 0E . ...
ROW 1D : ... .. . ... : ... .. . ... : ... .. . ... : ... .. . ... : ... .. . ... F7C : ... .. . ... : ... .. . ... ... : ... .. . ...
ROW 1E : ... .. . ... : ... .. . ... : ... .. . ... : ... .. . ... : ... .. . ... F96 : ... .. . ... : C#5 12 . ... ... : ... .. . ...
ROW 1F : ... .. . ... : ... .. . ... : ... .. . ... : ... .. . ... : ... .. . ... F7C : ... .. . ... : ... .. . ... ... : ... .. . ...
ROW 20 : ... .. . ... : A#2 14 . ... : D-3 0D . ... : 3-# 0A . ... : C-3 09 . ... F96 : A-5 12 . ... : ... .. . ... ... : D-1 0E . ...
ROW 21 : ... .. . ... : ... .. . ... : ... .. . ... : ... .. . ... : ... .. . ... F7C : ... .. . ... : ... .. . ... ... : ... .. . ...
ROW 22 : ... .. . ... : ... .. . ... : ... .. . ... : ... .. . ... : ... .. . ... F96 : ... .. . ... : D-5 12 . ... ... : ... .. . ...
ROW 23 : ... .. . ... : ... .. . ... : ... .. . ... : ... .. . ... : ... .. . ... F7C : ... .. . ... : ... .. . ... ... : ... .. . ...
ROW 24 : E-3 14 . ... : A#2 14 . ... : D-3 0D . ... : ... .. . ... : ... .. . ... F96 : D-5 12 . ... : ... .. . ... ... : D-1 0E . ...
ROW 25 : ... .. . ... : ... .. . ... : ... .. . ... : ... .. . ... : ... .. . ... F7C : ... .. . ... : ... .. . ... ... : ... .. . ...
ROW 26 : ... .. . ... : ... .. . ... : ... .. . ... : 3-# 0A . ... : C-3 09 . ... F96 : ... .. . ... : A-5 12 . ... ... : ... .. . ...
ROW 27 : ... .. . ... : ... .. . ... : ... .. . ... : ... .. . ... : ... .. . ... F7C : ... .. . ... : ... .. . ... ... : ... .. . ...
ROW 28 : === .. . ... : A#2 14 . ... : D-3 0D . ... : 8-# 0A . ... : C#3 09 . ... F96 : C#5 12 . ... : ... .. . ... ... : D-1 0E . ...
ROW 29 : ... .. . ... : ... .. . ... : ... .. . ... : ... .. . ... : ... .. . ... F7C : ... .. . ... : ... .. . ... ... : ... .. . ...
ROW 2A : ... .. . ... : ... .. . ... : ... .. . ... : ... .. . ... : ... .. . ... F96 : ... .. . ... : D-5 12 . ... ... : ... .. . ...
ROW 2B : ... .. . ... : ... .. . ... : ... .. . ... : ... .. . ... : ... .. . ... F7C : ... .. . ... : ... .. . ... ... : ... .. . ...
ROW 2C : F-3 14 . ... : A#2 14 . ... : D-3 0D . ... : ... .. . ... : ... .. . ... F96 : D-5 12 . ... : ... .. . ... ... : D-1 0E . ...
ROW 2D : ... .. . ... : ... .. . ... : ... .. . ... : ... .. . ... : ... .. . ... F7C : ... .. . ... : ... .. . ... ... : ... .. . ...
ROW 2E : ... .. . ... : ... .. . ... : ... .. . ... : ... .. . ... : ... .. . ... F96 : ... .. . ... : C#5 12 . ... ... : ... .. . ...
ROW 2F : ... .. . ... : ... .. . ... : ... .. . ... : ... .. . ... : ... .. . ... F7C : ... .. . ... : ... .. . ... ... : ... .. . ...
ROW 30 : === .. . ... : A#2 14 . ... : D-3 0D . ... : 3-# 0A . ... : C-3 09 . ... F96 : A#5 12 . ... : ... .. . ... ... : D-1 0E . ...
ROW 31 : ... .. . ... : ... .. . ... : ... .. . ... : ... .. . ... : ... .. . ... F7C : ... .. . ... : ... .. . ... ... : ... .. . ...
ROW 32 : ... .. . ... : ... .. . ... : ... .. . ... : ... .. . ... : ... .. . ... F96 : ... .. . ... : D-5 12 . ... ... : ... .. . ...
ROW 33 : ... .. . ... : ... .. . ... : ... .. . ... : ... .. . ... : ... .. . ... F7C : ... .. . ... : ... .. . ... ... : ... .. . ...
ROW 34 : E-3 14 . ... : A#2 14 . ... : D-3 0D . ... : 3-# 0A . ... : C-3 09 . ... F96 : D-5 12 . ... : ... .. . ... ... : D-1 0E . ...
ROW 35 : ... .. . ... : ... .. . ... : ... .. . ... : ... .. . ... : ... .. . ... F7C : ... .. . ... : ... .. . ... ... : ... .. . ...
ROW 36 : ... .. . ... : ... .. . ... : ... .. . ... : 3-# 0A . ... : C-3 09 . ... F96 : ... .. . ... : A#5 12 . ... ... : ... .. . ...
ROW 37 : ... .. . ... : ... .. . ... : ... .. . ... : ... .. . ... : ... .. . ... F7C : ... .. . ... : ... .. . ... ... : ... .. . ...
ROW 38 : ... .. . ... : A#2 14 . ... : D-3 0D . ... : 8-# 0A . ... : C#3 09 . ... F96 : C#5 12 . ... : ... .. . ... ... : D-1 0E . ...
ROW 39 : ... .. . ... : ... .. . ... : ... .. . ... : ... .. . ... : ... .. . ... F7C : ... .. . ... : ... .. . ... ... : ... .. . ...
ROW 3A : ... .. . ... : ... .. . ... : ... .. . ... : ... .. . ... : ... .. . ... F96 : ... .. . ... : D-5 12 . ... ... : ... .. . ...
ROW 3B : ... .. . ... : ... .. . ... : ... .. . ... : ... .. . ... : ... .. . ... F7C : ... .. . ... : ... .. . ... ... : ... .. . ...
ROW 3C : ... .. . ... : A#2 14 . ... : D-3 0D . ... : ... .. . ... : ... .. . ... F96 : D-5 12 . ... : ... .. . ... ... : D-1 0E . ...
ROW 3D : ... .. . ... : ... .. . ... : ... .. . ... : ... .. . ... : ... .. . ... F7C : ... .. . ... : ... .. . ... ... : ... .. . ...
ROW 3E : ... .. . ... : ... .. . ... : ... .. . ... : ... .. . ... : ... .. . ... F96 : ... .. . ... : C#5 12 . ... ... : ... .. . ...
ROW 3F : ... .. . ... : ... .. . ... : ... .. . ... : ... .. . ... : ... .. . ... F7C : ... .. . ... : ... .. . ... ... : ... .. . ...

PATTERN 26
ROW 00 : E-3 14 . ... : C-3 14 . ... : E-3 0D . ... : 3-# 0A . ... : C-3 09 . ... F96 : A-5 12 . ... : ... .. . ... ... : E-1 0E . ...
ROW 01 : ... .. . ... : ... .. . ... : ... .. . ... : ... .. . ... : ... .. . ... F7C : ... .. . ... : ... .. . ... ... : ... .. . ...
ROW 02 : ... .. . ... : ... .. . ... : ... .. . ... : ... .. . ... : ... .. . ... F96 : ... .. . ... : D-5 12 . ... ... : ... .. . ...
ROW 03 : ... .. . ... : ... .. . ... : ... .. . ... : ... .. . ... : ... .. . ... F7C : ... .. . ... : ... .. . ... ... : ... .. . ...
ROW 04 : E-3 14 . ... : C-3 14 . ... : E-3 0D . ... : ... .. . ... : ... .. . ... F96 : D-5 12 . ... : ... .. . ... ... : E-1 0E . ...
ROW 05 : ... .. . ... : ... .. . ... : ... .. . ... : ... .. . ... : ... .. . ... F7C : ... .. . ... : ... .. . ... ... : ... .. . ...
ROW 06 : ... .. . ... : ... .. . ... : ... .. . ... : 3-# 0A . ... : C-3 09 . ... F96 : ... .. . ... : A-5 12 . ... ... : ... .. . ...
ROW 07 : ... .. . ... : ... .. . ... : ... .. . ... : ... .. . ... : ... .. . ... F7C : ... .. . ... : ... .. . ... ... : ... .. . ...
ROW 08 : F-3 14 . ... : C-3 14 . ... : E-3 0D . ... : 8-# 0A . ... : C#3 09 . ... F96 : C#5 12 . ... : ... .. . ... ... : E-1 0E . ...
ROW 09 : ... .. . ... : ... .. . ... : ... .. . ... : ... .. . ... : ... .. . ... F7C : ... .. . ... : ... .. . ... ... : ... .. . ...
ROW 0A : ... .. . ... : ... .. . ... : ... .. . ... : ... .. . ... : ... .. . ... F96 : ... .. . ... : D-5 12 . ... ... : ... .. . ...
ROW 0B : ... .. . ... : ... .. . ... : ... .. . ... : ... .. . ... : ... .. . ... F7C : ... .. . ... : ... .. . ... ... : ... .. . ...
ROW 0C : ... .. . ... : C-3 14 . ... : E-3 0D . ... : ... .. . ... : ... .. . ... F96 : D-5 12 . ... : ... .. . ... ... : E-1 0E . ...
ROW 0D : ... .. . ... : ... .. . ... : ... .. . ... : ... .. . ... : ... .. . ... F7C : ... .. . ... : ... .. . ... ... : ... .. . ...
ROW 0E : ... .. . ... : ... .. . ... : ... .. . ... : ... .. . ... : ... .. . ... F96 : ... .. . ... : C#5 12 . ... ... : ... .. . ...
ROW 0F : ... .. . ... : ... .. . ... : ... .. . ... : ... .. . ... : ... .. . ... F7C : ... .. . ... : ... .. . ... ... : ... .. . ...
ROW 10 : G-3 14 . ... : C-3 14 . ... : E-3 0D . ... : 3-# 0A . ... : C-3 09 . ... F96 : G-5 12 . ... : ... .. . ... ... : E-1 0E . ...
ROW 11 : ... .. . ... : ... .. . ... : ... .. . ... : ... .. . ... : ... .. . ... F7C : ... .. . ... : ... .. . ... ... : ... .. . ...
ROW 12 : ... .. . ... : ... .. . ... : ... .. . ... : ... .. . ... : ... .. . ... F96 : ... .. . ... : D-5 12 . ... ... : ... .. . ...
ROW 13 : ... .. . ... : ... .. . ... : ... .. . ... : ... .. . ... : ... .. . ... F7C : ... .. . ... : ... .. . ... ... : ... .. . ...
ROW 14 : ... .. . ... : C-3 14 . ... : E-3 0D . ... : 3-# 0A . ... : C-3 09 . ... F96 : D-5 12 . ... : ... .. . ... ... : E-1 0E . ...
ROW 15 : ... .. . ... : ... .. . ... : ... .. . ... : ... .. . ... : ... .. . ... F7C : ... .. . ... : ... .. . ... ... : ... .. . ...
ROW 16 : ... .. . ... : ... .. . ... : ... .. . ... : 3-# 0A . ... : C-3 09 . ... F96 : ... .. . ... : G-5 12 . ... ... : ... .. . ...
ROW 17 : ... .. . ... : ... .. . ... : ... .. . ... : ... .. . ... : ... .. . ... F7C : ... .. . ... : ... .. . ... ... : ... .. . ...
ROW 18 : F-3 14 . ... : C-3 14 . ... : E-3 0D . ... : 8-# 0A . ... : C#3 09 . ... F96 : C#5 12 . ... : ... .. . ... ... : E-1 0E . ...
ROW 19 : ... .. . ... : ... .. . ... : ... .. . ... : ... .. . ... : ... .. . ... F7C : ... .. . ... : ... .. . ... ... : ... .. . ...
ROW 1A : ... .. . ... : ... .. . ... : ... .. . ... : ... .. . ... : ... .. . ... F96 : ... .. . ... : D-5 12 . ... ... : ... .. . ...
ROW 1B : ... .. . ... : ... .. . ... : ... .. . ... : ... .. . ... : ... .. . ... F7C : ... .. . ... : ... .. . ... ... : ... .. . ...
ROW 1C : E-3 14 . ... : C-3 14 . ... : E-3 0D . ... : ... .. . ... : ... .. . ... F96 : D-5 12 . ... : ... .. . ... ... : E-1 0E . ...
ROW 1D : ... .. . ... : ... .. . ... : ... .. . ... : ... .. . ... : ... .. . ... F7C : ... .. . ... : ... .. . ... ... : ... .. . ...
ROW 1E : ... .. . ... : ... .. . ... : ... .. . ... : ... .. . ... : ... .. . ... F96 : ... .. . ... : C#5 12 . ... ... : ... .. . ...
ROW 1F : ... .. . ... : ... .. . ... : ... .. . ... : ... .. . ... : ... .. . ... F7C : ... .. . ... : ... .. . ... ... : ... .. . ...
ROW 20 : ... .. . ... : C-3 14 . ... : E-3 0D . ... : 3-# 0A . ... : C-3 09 . ... F96 : F-5 12 . ... : ... .. . ... ... : E-1 0E . ...
ROW 21 : ... .. . ... : ... .. . ... : ... .. . ... : ... .. . ... : ... .. . ... F7C : ... .. . ... : ... .. . ... ... : ... .. . ...
ROW 22 : ... .. . ... : ... .. . ... : ... .. . ... : ... .. . ... : ... .. . ... F96 : ... .. . ... : D-5 12 . ... ... : ... .. . ...
ROW 23 : ... .. . ... : ... .. . ... : ... .. . ... : ... .. . ... : ... .. . ... F7C : ... .. . ... : ... .. . ... ... : ... .. . ...
ROW 24 : F-3 14 . ... : C-3 14 . ... : E-3 0D . ... : ... .. . ... : ... .. . ... F96 : D-5 12 . ... : ... .. . ... ... : E-1 0E . ...
ROW 25 : ... .. . ... : ... .. . ... : ... .. . ... : ... .. . ... : ... .. . ... F7C : ... .. . ... : ... .. . ... ... : ... .. . ...
ROW 26 : ... .. . ... : ... .. . ... : ... .. . ... : 3-# 0A . ... : C-3 09 . ... F96 : ... .. . ... : F-5 12 . ... ... : ... .. . ...
ROW 27 : ... .. . ... : ... .. . ... : ... .. . ... : ... .. . ... : ... .. . ... F7C : ... .. . ... : ... .. . ... ... : ... .. . ...
ROW 28 : === .. . ... : C-3 14 . ... : E-3 0D . ... : 8-# 0A . ... : C#3 09 . ... F96 : C#5 12 . ... : ... .. . ... ... : E-1 0E . ...
ROW 29 : ... .. . ... : ... .. . ... : ... .. . ... : ... .. . ... : ... .. . ... F7C : ... .. . ... : ... .. . ... ... : ... .. . ...
ROW 2A : ... .. . ... : ... .. . ... : ... .. . ... : ... .. . ... : ... .. . ... F96 : ... .. . ... : D-5 12 . ... ... : ... .. . ...
ROW 2B : ... .. . ... : ... .. . ... : ... .. . ... : ... .. . ... : ... .. . ... F7C : ... .. . ... : ... .. . ... ... : ... .. . ...
ROW 2C : G-3 14 . ... : C-3 14 . ... : E-3 0D . ... : ... .. . ... : ... .. . ... F96 : D-5 12 . ... : ... .. . ... ... : E-1 0E . ...
ROW 2D : ... .. . ... : ... .. . ... : ... .. . ... : ... .. . ... : ... .. . ... F7C : ... .. . ... : ... .. . ... ... : ... .. . ...
ROW 2E : ... .. . ... : ... .. . ... : ... .. . ... : ... .. . ... : ... .. . ... F96 : ... .. . ... : C#5 12 . ... ... : ... .. . ...
ROW 2F : ... .. . ... : ... .. . ... : ... .. . ... : ... .. . ... : ... .. . ... F7C : ... .. . ... : ... .. . ... ... : ... .. . ...
ROW 30 : === .. . ... : C-3 14 . ... : E-3 0D . ... : 3-# 0A . ... : C-3 09 . ... F96 : E-5 12 . ... : ... .. . ... ... : E-1 0E . ...
ROW 31 : ... .. . ... : ... .. . ... : ... .. . ... : ... .. . ... : ... .. . ... F7C : ... .. . ... : ... .. . ... ... : ... .. . ...
ROW 32 : ... .. . ... : ... .. . ... : ... .. . ... : ... .. . ... : ... .. . ... F96 : ... .. . ... : D-5 12 . ... ... : ... .. . ...
ROW 33 : ... .. . ... : ... .. . ... : ... .. . ... : ... .. . ... : ... .. . ... F7C : ... .. . ... : ... .. . ... ... : ... .. . ...
ROW 34 : F-3 14 . ... : C-3 14 . ... : E-3 0D . ... : 3-# 0A . ... : C-3 09 . ... F96 : D-5 12 . ... : ... .. . ... ... : E-1 0E . ...
ROW 35 : ... .. . ... : ... .. . ... : ... .. . ... : ... .. . ... : ... .. . ... F7C : ... .. . ... : ... .. . ... ... : ... .. . ...
ROW 36 : ... .. . ... : ... .. . ... : ... .. . ... : 3-# 0A . ... : C-3 09 . ... F96 : ... .. . ... : E-5 12 . ... ... : ... .. . ...
ROW 37 : ... .. . ... : ... .. . ... : ... .. . ... : ... .. . ... : ... .. . ... F7C : ... .. . ... : ... .. . ... ... : ... .. . ...
ROW 38 : ... .. . ... : C-3 14 . ... : E-3 0D . ... : 8-# 0A . ... : C#3 09 . ... F96 : C#5 12 . ... : ... .. . ... ... : E-1 0E . ...
ROW 39 : ... .. . ... : ... .. . ... : ... .. . ... : ... .. . ... : ... .. . ... F7C : ... .. . ... : ... .. . ... ... : ... .. . ...
ROW 3A : ... .. . ... : ... .. . ... : ... .. . ... : ... .. . ... : ... .. . ... F96 : ... .. . ... : D-5 12 . ... ... : ... .. . ...
ROW 3B : ... .. . ... : ... .. . ... : ... .. . ... : ... .. . ... : ... .. . ... F7C : ... .. . ... : ... .. . ... ... : ... .. . ...
ROW 3C : ... .. . ... : C-3 14 . ... : E-3 0D . ... : ... .. . ... : ... .. . ... F96 : A-4 12 . ... : ... .. . ... ... : E-1 0E . ...
ROW 3D : ... .. . ... : ... .. . ... : ... .. . ... : ... .. . ... : ... .. . ... F7C : ... .. . ... : ... .. . ... ... : ... .. . ...
ROW 3E : ... .. . ... : ... .. . ... : ... .. . ... : ... .. . ... : ... .. . ... F96 : ... .. . ... : C#5 12 . ... ... : ... .. . ...
ROW 3F : ... .. . ... : ... .. . ... : ... .. . ... : ... .. . ... : ... .. . ... F7C : ... .. . ... : ... .. . ... ... : ... .. . ...

PATTERN 27
ROW 00 : D-3 14 . ... : A#2 14 . ... : D-3 0D . ... : 3-# 0A . ... : C-3 09 . ... F96 : F-5 12 . ... : ... .. . ... ... : D-1 0E . ...
ROW 01 : ... .. . ... : ... .. . ... : ... .. . ... : ... .. . ... : ... .. . ... F7C : ... .. . ... : ... .. . ... ... : ... .. . ...
ROW 02 : ... .. . ... : ... .. . ... : ... .. . ... : ... .. . ... : ... .. . ... F96 : ... .. . ... : A-4 12 . ... ... : ... .. . ...
ROW 03 : ... .. . ... : ... .. . ... : ... .. . ... : ... .. . ... : ... .. . ... F7C : ... .. . ... : ... .. . ... ... : ... .. . ...
ROW 04 : D-3 14 . ... : A#2 14 . ... : D-3 0D . ... : ... .. . ... : ... .. . ... F96 : D-5 12 . ... : ... .. . ... ... : D-1 0E . ...
ROW 05 : ... .. . ... : ... .. . ... : ... .. . ... : ... .. . ... : ... .. . ... F7C : ... .. . ... : ... .. . ... ... : ... .. . ...
ROW 06 : ... .. . ... : ... .. . ... : ... .. . ... : 3-# 0A . ... : C-3 09 . ... F96 : ... .. . ... : F-5 12 . ... ... : ... .. . ...
ROW 07 : ... .. . ... : ... .. . ... : ... .. . ... : ... .. . ... : ... .. . ... F7C : ... .. . ... : ... .. . ... ... : ... .. . ...
ROW 08 : E-3 14 . ... : A#2 14 . ... : D-3 0D . ... : 8-# 0A . ... : C#3 09 . ... F96 : C#5 12 . ... : ... .. . ... ... : D-1 0E . ...
ROW 09 : ... .. . ... : ... .. . ... : ... .. . ... : ... .. . ... : ... .. . ... F7C : ... .. . ... : ... .. . ... ... : ... .. . ...
ROW 0A : ... .. . ... : ... .. . ... : ... .. . ... : ... .. . ... : ... .. . ... F96 : ... .. . ... : D-5 12 . ... ... : ... .. . ...
ROW 0B : ... .. . ... : ... .. . ... : ... .. . ... : ... .. . ... : ... .. . ... F7C : ... .. . ... : ... .. . ... ... : ... .. . ...
ROW 0C : ... .. . ... : A#2 14 . ... : D-3 0D . ... : ... .. . ... : ... .. . ... F96 : D-5 12 . ... : ... .. . ... ... : D-1 0E . ...
ROW 0D : ... .. . ... : ... .. . ... : ... .. . ... : ... .. . ... : ... .. . ... F7C : ... .. . ... : ... .. . ... ... : ... .. . ...
ROW 0E : ... .. . ... : ... .. . ... : ... .. . ... : ... .. . ... : ... .. . ... F96 : ... .. . ... : C#5 12 . ... ... : ... .. . ...
ROW 0F : ... .. . ... : ... .. . ... : ... .. . ... : ... .. . ... : ... .. . ... F7C : ... .. . ... : ... .. . ... ... : ... .. . ...
ROW 10 : F-3 14 . ... : A#2 14 . ... : D-3 0D . ... : 3-# 0A . ... : C-3 09 . ... F96 : G-5 12 . ... : ... .. . ... ... : D-1 0E . ...
ROW 11 : ... .. . ... : ... .. . ... : ... .. . ... : ... .. . ... : ... .. . ... F7C : ... .. . ... : ... .. . ... ... : ... .. . ...
ROW 12 : ... .. . ... : ... .. . ... : ... .. . ... : ... .. . ... : ... .. . ... F96 : ... .. . ... : D-5 12 . ... ... : ... .. . ...
ROW 13 : ... .. . ... : ... .. . ... : ... .. . ... : ... .. . ... : ... .. . ... F7C : ... .. . ... : ... .. . ... ... : ... .. . ...
ROW 14 : ... .. . ... : A#2 14 . ... : D-3 0D . ... : 3-# 0A . ... : C-3 09 . ... F96 : D-5 12 . ... : ... .. . ... ... : D-1 0E . ...
ROW 15 : ... .. . ... : ... .. . ... : ... .. . ... : ... .. . ... : ... .. . ... F7C : ... .. . ... : ... .. . ... ... : ... .. . ...
ROW 16 : ... .. . ... : ... .. . ... : ... .. . ... : 3-# 0A . ... : C-3 09 . ... F96 : ... .. . ... : G-5 12 . ... ... : ... .. . ...
ROW 17 : ... .. . ... : ... .. . ... : ... .. . ... : ... .. . ... : ... .. . ... F7C : ... .. . ... : ... .. . ... ... : ... .. . ...
ROW 18 : E-3 14 . ... : A#2 14 . ... : D-3 0D . ... : 8-# 0A . ... : C#3 09 . ... F96 : C#5 12 . ... : ... .. . ... ... : D-1 0E . ...
ROW 19 : ... .. . ... : ... .. . ... : ... .. . ... : ... .. . ... : ... .. . ... F7C : ... .. . ... : ... .. . ... ... : ... .. . ...
ROW 1A : ... .. . ... : ... .. . ... : ... .. . ... : ... .. . ... : ... .. . ... F96 : ... .. . ... : D-5 12 . ... ... : ... .. . ...
ROW 1B : ... .. . ... : ... .. . ... : ... .. . ... : ... .. . ... : ... .. . ... F7C : ... .. . ... : ... .. . ... ... : ... .. . ...
ROW 1C : D-3 14 . ... : A#2 14 . ... : D-3 0D . ... : ... .. . ... : ... .. . ... F96 : D-5 12 . ... : ... .. . ... ... : D-1 0E . ...
ROW 1D : ... .. . ... : ... .. . ... : ... .. . ... : ... .. . ... : ... .. . ... F7C : ... .. . ... : ... .. . ... ... : ... .. . ...
ROW 1E : ... .. . ... : ... .. . ... : ... .. . ... : ... .. . ... : ... .. . ... F96 : ... .. . ... : C#5 12 . ... ... : ... .. . ...
ROW 1F : ... .. . ... : ... .. . ... : ... .. . ... : ... .. . ... : ... .. . ... F7C : ... .. . ... : ... .. . ... ... : ... .. . ...
ROW 20 : ... .. . ... : A#2 14 . ... : D-3 0D . ... : 3-# 0A . ... : C-3 09 . ... F96 : A-5 12 . ... : ... .. . ... ... : D-1 0E . ...
ROW 21 : ... .. . ... : ... .. . ... : ... .. . ... : ... .. . ... : ... .. . ... F7C : ... .. . ... : ... .. . ... ... : ... .. . ...
ROW 22 : ... .. . ... : ... .. . ... : ... .. . ... : ... .. . ... : ... .. . ... F96 : ... .. . ... : D-5 12 . ... ... : ... .. . ...
ROW 23 : ... .. . ... : ... .. . ... : ... .. . ... : ... .. . ... : ... .. . ... F7C : ... .. . ... : ... .. . ... ... : ... .. . ...
ROW 24 : E-3 14 . ... : A#2 14 . ... : D-3 0D . ... : ... .. . ... : ... .. . ... F96 : D-5 12 . ... : ... .. . ... ... : D-1 0E . ...
ROW 25 : ... .. . ... : ... .. . ... : ... .. . ... : ... .. . ... : ... .. . ... F7C : ... .. . ... : ... .. . ... ... : ... .. . ...
ROW 26 : ... .. . ... : ... .. . ... : ... .. . ... : 3-# 0A . ... : C-3 09 . ... F96 : ... .. . ... : A-5 12 . ... ... : ... .. . ...
ROW 27 : ... .. . ... : ... .. . ... : ... .. . ... : ... .. . ... : ... .. . ... F7C : ... .. . ... : ... .. . ... ... : ... .. . ...
ROW 28 : === .. . ... : A#2 14 . ... : D-3 0D . ... : 8-# 0A . ... : C#3 09 . ... F96 : C#5 12 . ... : ... .. . ... ... : D-1 0E . ...
ROW 29 : ... .. . ... : ... .. . ... : ... .. . ... : ... .. . ... : ... .. . ... F7C : ... .. . ... : ... .. . ... ... : ... .. . ...
ROW 2A : ... .. . ... : ... .. . ... : ... .. . ... : ... .. . ... : ... .. . ... F96 : ... .. . ... : D-5 12 . ... ... : ... .. . ...
ROW 2B : ... .. . ... : ... .. . ... : ... .. . ... : ... .. . ... : ... .. . ... F7C : ... .. . ... : ... .. . ... ... : ... .. . ...
ROW 2C : F-3 14 . ... : A#2 14 . ... : D-3 0D . ... : ... .. . ... : ... .. . ... F96 : D-5 12 . ... : ... .. . ... ... : D-1 0E . ...
ROW 2D : ... .. . ... : ... .. . ... : ... .. . ... : ... .. . ... : ... .. . ... F7C : ... .. . ... : ... .. . ... ... : ... .. . ...
ROW 2E : ... .. . ... : ... .. . ... : ... .. . ... : ... .. . ... : ... .. . ... F96 : ... .. . ... : C#5 12 . ... ... : ... .. . ...
ROW 2F : ... .. . ... : ... .. . ... : ... .. . ... : ... .. . ... : ... .. . ... F7C : ... .. . ... : ... .. . ... ... : ... .. . ...
ROW 30 : === .. . ... : A#2 14 . ... : D-3 0D . ... : 3-# 0A . ... : C-3 09 . ... F96 : A#5 12 . ... : ... .. . ... ... : D-1 0E . ...
ROW 31 : ... .. . ... : ... .. . ... : ... .. . ... : ... .. . ... : ... .. . ... F7C : ... .. . ... : ... .. . ... ... : ... .. . ...
ROW 32 : ... .. . ... : ... .. . ... : ... .. . ... : ... .. . ... : ... .. . ... F96 : ... .. . ... : D-5 12 . ... ... : ... .. . ...
ROW 33 : ... .. . ... : ... .. . ... : ... .. . ... : ... .. . ... : ... .. . ... F7C : ... .. . ... : ... .. . ... ... : ... .. . ...
ROW 34 : E-3 14 . ... : A#2 14 . ... : D-3 0D . ... : 3-# 0A . ... : C-3 09 . ... F96 : D-5 12 . ... : ... .. . ... ... : D-1 0E . ...
ROW 35 : ... .. . ... : ... .. . ... : ... .. . ... : ... .. . ... : ... .. . ... F7C : ... .. . ... : ... .. . ... ... : ... .. . ...
ROW 36 : ... .. . ... : ... .. . ... : ... .. . ... : 3-# 0A . ... : C-3 09 . ... F96 : ... .. . ... : A#5 12 . ... ... : ... .. . ...
ROW 37 : ... .. . ... : ... .. . ... : ... .. . ... : ... .. . ... : ... .. . ... F7C : ... .. . ... : ... .. . ... ... : ... .. . ...
ROW 38 : ... .. . ... : A#2 14 . ... : D-3 0D . ... : 8-# 0A . ... : C#3 09 . ... F96 : C#5 12 . ... : ... .. . ... ... : D-1 0E . ...
ROW 39 : ... .. . ... : ... .. . ... : ... .. . ... : ... .. . ... : ... .. . ... F7C : ... .. . ... : ... .. . ... ... : ... .. . ...
ROW 3A : ... .. . ... : ... .. . ... : ... .. . ... : ... .. . ... : ... .. . ... F96 : ... .. . ... : D-5 12 . ... ... : ... .. . ...
ROW 3B : ... .. . ... : ... .. . ... : ... .. . ... : ... .. . ... : ... .. . ... F7C : ... .. . ... : ... .. . ... ... : ... .. . ...
ROW 3C : ... .. . ... : A#2 14 . ... : D-3 0D . ... : ... .. . ... : ... .. . ... F96 : D-5 12 . ... : ... .. . ... ... : D-1 0E . ...
ROW 3D : ... .. . ... : ... .. . ... : ... .. . ... : ... .. . ... : ... .. . ... F7C : ... .. . ... : ... .. . ... ... : ... .. . ...
ROW 3E : ... .. . ... : ... .. . ... : ... .. . ... : ... .. . ... : ... .. . ... F96 : ... .. . ... : C#5 12 . ... ... : ... .. . ...
ROW 3F : ... .. . ... : ... .. . ... : ... .. . ... : ... .. . ... : ... .. . ... F7C : ... .. . ... : ... .. . ... ... : ... .. . ...

PATTERN 28
ROW 00 : E-3 14 . ... : C-3 14 . ... : E-3 0D . ... : 3-# 0A . ... : C-3 09 . ... F96 : A#5 12 . ... : ... .. . ... ... : E-1 0E . ...
ROW 01 : ... .. . ... : ... .. . ... : ... .. . ... : ... .. . ... : ... .. . ... F7C : ... .. . ... : ... .. . ... ... : ... .. . ...
ROW 02 : ... .. . ... : ... .. . ... : ... .. . ... : ... .. . ... : ... .. . ... F96 : ... .. . ... : D-5 12 . ... ... : ... .. . ...
ROW 03 : ... .. . ... : ... .. . ... : ... .. . ... : ... .. . ... : ... .. . ... F7C : ... .. . ... : ... .. . ... ... : ... .. . ...
ROW 04 : E-3 14 . ... : C-3 14 . ... : E-3 0D . ... : ... .. . ... : ... .. . ... F96 : C-6 12 . ... : ... .. . ... ... : E-1 0E . ...
ROW 05 : ... .. . ... : ... .. . ... : ... .. . ... : ... .. . ... : ... .. . ... F7C : ... .. . ... : ... .. . ... ... : ... .. . ...
ROW 06 : ... .. . ... : ... .. . ... : ... .. . ... : 3-# 0A . ... : C-3 09 . ... F96 : ... .. . ... : A#5 12 . ... ... : ... .. . ...
ROW 07 : ... .. . ... : ... .. . ... : ... .. . ... : ... .. . ... : ... .. . ... F7C : ... .. . ... : ... .. . ... ... : ... .. . ...
ROW 08 : F-3 14 . ... : C-3 14 . ... : E-3 0D . ... : 8-# 0A . ... : C#3 09 . ... F96 : A-5 12 . ... : ... .. . ... ... : E-1 0E . ...
ROW 09 : ... .. . ... : ... .. . ... : ... .. . ... : ... .. . ... : ... .. . ... F7C : ... .. . ... : ... .. . ... ... : ... .. . ...
ROW 0A : ... .. . ... : ... .. . ... : ... .. . ... : ... .. . ... : ... .. . ... F96 : ... .. . ... : C-6 12 . ... ... : ... .. . ...
ROW 0B : ... .. . ... : ... .. . ... : ... .. . ... : ... .. . ... : ... .. . ... F7C : ... .. . ... : ... .. . ... ... : ... .. . ...
ROW 0C : ... .. . ... : C-3 14 . ... : E-3 0D . ... : ... .. . ... : ... .. . ... F96 : C-6 12 . ... : ... .. . ... ... : E-1 0E . ...
ROW 0D : ... .. . ... : ... .. . ... : ... .. . ... : ... .. . ... : ... .. . ... F7C : ... .. . ... : ... .. . ... ... : ... .. . ...
ROW 0E : ... .. . ... : ... .. . ... : ... .. . ... : ... .. . ... : ... .. . ... F96 : ... .. . ... : A-5 12 . ... ... : ... .. . ...
ROW 0F : ... .. . ... : ... .. . ... : ... .. . ... : ... .. . ... : ... .. . ... F7C : ... .. . ... : ... .. . ... ... : ... .. . ...
ROW 10 : G-3 14 . ... : C-3 14 . ... : E-3 0D . ... : 3-# 0A . ... : C-3 09 . ... F96 : G-5 12 . ... : ... .. . ... ... : E-1 0E . ...
ROW 11 : ... .. . ... : ... .. . ... : ... .. . ... : ... .. . ... : ... .. . ... F7C : ... .. . ... : ... .. . ... ... : ... .. . ...
ROW 12 : ... .. . ... : ... .. . ... : ... .. . ... : ... .. . ... : ... .. . ... F96 : ... .. . ... : C-6 12 . ... ... : ... .. . ...
ROW 13 : ... .. . ... : ... .. . ... : ... .. . ... : ... .. . ... : ... .. . ... F7C : ... .. . ... : ... .. . ... ... : ... .. . ...
ROW 14 : ... .. . ... : C-3 14 . ... : E-3 0D . ... : 3-# 0A . ... : C-3 09 . ... F96 : C-6 12 . ... : ... .. . ... ... : E-1 0E . ...
ROW 15 : ... .. . ... : ... .. . ... : ... .. . ... : ... .. . ... : ... .. . ... F7C : ... .. . ... : ... .. . ... ... : ... .. . ...
ROW 16 : ... .. . ... : ... .. . ... : ... .. . ... : 3-# 0A . ... : C-3 09 . ... F96 : ... .. . ... : G-5 12 . ... ... : ... .. . ...
ROW 17 : ... .. . ... : ... .. . ... : ... .. . ... : ... .. . ... : ... .. . ... F7C : ... .. . ... : ... .. . ... ... : ... .. . ...
ROW 18 : F-3 14 . ... : C-3 14 . ... : E-3 0D . ... : 8-# 0A . ... : C#3 09 . ... F96 : F-5 12 . ... : ... .. . ... ... : E-1 0E . ...
ROW 19 : ... .. . ... : ... .. . ... : ... .. . ... : ... .. . ... : ... .. . ... F7C : ... .. . ... : ... .. . ... ... : ... .. . ...
ROW 1A : ... .. . ... : ... .. . ... : ... .. . ... : ... .. . ... : ... .. . ... F96 : ... .. . ... : C-6 12 . ... ... : ... .. . ...
ROW 1B : ... .. . ... : ... .. . ... : ... .. . ... : ... .. . ... : ... .. . ... F7C : ... .. . ... : ... .. . ... ... : ... .. . ...
ROW 1C : E-3 14 . ... : C-3 14 . ... : E-3 0D . ... : ... .. . ... : ... .. . ... F96 : C-6 12 . ... : ... .. . ... ... : E-1 0E . ...
ROW 1D : ... .. . ... : ... .. . ... : ... .. . ... : ... .. . ... : ... .. . ... F7C : ... .. . ... : ... .. . ... ... : ... .. . ...
ROW 1E : ... .. . ... : ... .. . ... : ... .. . ... : ... .. . ... : ... .. . ... F96 : ... .. . ... : F-5 12 . ... ... : ... .. . ...
ROW 1F : ... .. . ... : ... .. . ... : ... .. . ... : ... .. . ... : ... .. . ... F7C : ... .. . ... : ... .. . ... ... : ... .. . ...
ROW 20 : ... .. . ... : C-3 14 . ... : E-3 0D . ... : 3-# 0A . ... : C-3 09 . ... F96 : E-5 12 . ... : ... .. . ... ... : E-1 0E . ...
ROW 21 : ... .. . ... : ... .. . ... : ... .. . ... : ... .. . ... : ... .. . ... F7C : ... .. . ... : ... .. . ... ... : ... .. . ...
ROW 22 : ... .. . ... : ... .. . ... : ... .. . ... : ... .. . ... : ... .. . ... F96 : ... .. . ... : C-6 12 . ... ... : ... .. . ...
ROW 23 : ... .. . ... : ... .. . ... : ... .. . ... : ... .. . ... : ... .. . ... F7C : ... .. . ... : ... .. . ... ... : ... .. . ...
ROW 24 : F-3 14 . ... : C-3 14 . ... : E-3 0D . ... : ... .. . ... : ... .. . ... F96 : C-6 12 . ... : ... .. . ... ... : E-1 0E . ...
ROW 25 : ... .. . ... : ... .. . ... : ... .. . ... : ... .. . ... : ... .. . ... F7C : ... .. . ... : ... .. . ... ... : ... .. . ...
ROW 26 : ... .. . ... : ... .. . ... : ... .. . ... : 3-# 0A . ... : C-3 09 . ... F96 : ... .. . ... : E-5 12 . ... ... : ... .. . ...
ROW 27 : ... .. . ... : ... .. . ... : ... .. . ... : ... .. . ... : ... .. . ... F7C : ... .. . ... : ... .. . ... ... : ... .. . ...
ROW 28 : === .. . ... : C-3 14 . ... : E-3 0D . ... : 8-# 0A . ... : C#3 09 . ... F96 : D-5 12 . ... : ... .. . ... ... : E-1 0E . ...
ROW 29 : ... .. . ... : ... .. . ... : ... .. . ... : ... .. . ... : ... .. . ... F7C : ... .. . ... : ... .. . ... ... : ... .. . ...
ROW 2A : ... .. . ... : ... .. . ... : ... .. . ... : ... .. . ... : ... .. . ... F96 : ... .. . ... : C-6 12 . ... ... : ... .. . ...
ROW 2B : ... .. . ... : ... .. . ... : ... .. . ... : ... .. . ... : ... .. . ... F7C : ... .. . ... : ... .. . ... ... : ... .. . ...
ROW 2C : G-3 14 . ... : C-3 14 . ... : E-3 0D . ... : ... .. . ... : ... .. . ... F96 : C-6 12 . ... : ... .. . ... ... : E-1 0E . ...
ROW 2D : ... .. . ... : ... .. . ... : ... .. . ... : ... .. . ... : ... .. . ... F7C : ... .. . ... : ... .. . ... ... : ... .. . ...
ROW 2E : ... .. . ... : ... .. . ... : ... .. . ... : ... .. . ... : ... .. . ... F96 : ... .. . ... : D-5 12 . ... ... : ... .. . ...
ROW 2F : ... .. . ... : ... .. . ... : ... .. . ... : ... .. . ... : ... .. . ... F7C : ... .. . ... : ... .. . ... ... : ... .. . ...
ROW 30 : === .. . ... : C-3 14 . ... : E-3 0D . ... : 8-# 0A . ... : C#3 09 . ... F96 : C-5 12 . ... : ... .. . ... ... : E-1 0E . ...
ROW 31 : ... .. . ... : ... .. . ... : ... .. . ... : ... .. . ... : ... .. . ... F7C : ... .. . ... : ... .. . ... ... : ... .. . ...
ROW 32 : ... .. . ... : ... .. . ... : ... .. . ... : 8-# 0A 7 ... : C#3 09 . ... F96 : ... .. . ... : C-6 12 . ... ... : ... .. . ...
ROW 33 : ... .. . ... : ... .. . ... : ... .. . ... : ... .. . ... : ... .. . ... F7C : ... .. . ... : ... .. . ... ... : ... .. . ...
ROW 34 : F-3 14 . ... : C-3 14 . ... : E-3 0D . ... : 8-# 0A . ... : C#3 09 . ... F96 : ... .. . ... : ... .. . ... ... : E-1 0E . ...
ROW 35 : ... .. . ... : ... .. . ... : ... .. . ... : ... .. . ... : ... .. . ... F7C : ... .. . ... : ... .. . ... ... : ... .. . ...
ROW 36 : ... .. . ... : ... .. . ... : ... .. . ... : 8-# 0A . ... : C#3 09 . ... F96 : ... .. . ... : C-5 12 . ... ... : ... .. . ...
ROW 37 : ... .. . ... : ... .. . ... : ... .. . ... : ... .. . ... : ... .. . ... F7C : ... .. . ... : ... .. . ... ... : ... .. . ...
ROW 38 : ... .. . ... : C-3 14 . ... : E-3 0D . ... : 8-# 0A F ... : C#3 09 . ... F96 : ... .. D ... : ... .. . ... ... : E-1 0E . ...
ROW 39 : ... .. . ... : ... .. . ... : ... .. . ... : ... .. . ... : ... .. . ... F7C : ... .. . ... : ... .. . ... ... : ... .. . ...
ROW 3A : ... .. . ... : ... .. . ... : ... .. . ... : 8-# 0A 7 ... : C#3 09 . ... F96 : ... .. B ... : ... .. . ... ... : ... .. . ...
ROW 3B : ... .. . ... : ... .. . ... : ... .. . ... : ... .. . ... : ... .. . ... F7C : ... .. . ... : ... .. . ... ... : ... .. . ...
ROW 3C : ... .. . ... : C-3 14 . ... : E-3 0D . ... : 8-# 0A . ... : C#3 09 . ... F96 : ... .. 9 ... : ... .. . ... ... : E-1 0E . ...
ROW 3D : ... .. . ... : ... .. . ... : ... .. . ... : ... .. . ... : ... .. . ... F7C : ... .. 7 ... : ... .. . ... ... : ... .. . ...
ROW 3E : ... .. . ... : ... .. . ... : ... .. . ... : 8-# 0A . ... : C#3 09 . ... F96 : ... .. 6 ... : ... .. 7 ... ... : ... .. . ...
ROW 3F : ... .. . ... : ... .. . ... : ... .. . ... : ... .. . ... : ... .. . ... F7C : ... .. 5 ... : ... .. . ... ... : ... .. . ...

PATTERN 29
ROW 00 : D-3 14 . ... : A#2 14 . ... : D-3 0D . ... : 3-# 0A F ... : C-3 09 . ... F96 : F-5 12 F ... : ... .. 6 ... ... : D-1 0E . ...
ROW 01 : ... .. . ... : ... .. . ... : ... .. . ... : ... .. . ... : ... .. . ... F7C : ... .. . ... : ... .. . ... ... : ... .. . ...
ROW 02 : ... .. . ... : ... .. . ... : ... .. . ... : ... .. . ... : ... .. . ... F96 : ... .. . ... : ... .. 5 ... ... : ... .. . ...
ROW 03 : ... .. . ... : ... .. . ... : ... .. . ... : ... .. . ... : ... .. . ... F7C : ... .. . ... : ... .. 4 ... ... : ... .. . ...
ROW 04 : D-3 14 . ... : A#2 14 . ... : D-3 0D . ... : ... .. . ... : ... .. . ... F96 : D-5 12 . ... : ... .. 3 ... ... : D-1 0E . ...
ROW 05 : ... .. . ... : ... .. . ... : ... .. . ... : ... .. . ... : ... .. . ... F7C : ... .. . ... : ... .. 2 ... ... : ... .. . ...
ROW 06 : ... .. . ... : ... .. . ... : ... .. . ... : 3-# 0A . ... : C-3 09 . ... F96 : ... .. . ... : F-5 12 9 ... ... : ... .. . ...
ROW 07 : ... .. . ... : ... .. . ... : ... .. . ... : ... .. . ... : ... .. . ... F7C : ... .. . ... : ... .. . ... ... : ... .. . ...
ROW 08 : E-3 14 . ... : A#2 14 . ... : D-3 0D . ... : 8-# 0A . ... : C#3 09 . ... F96 : C#5 12 . ... : ... .. . ... ... : D-1 0E . ...
ROW 09 : ... .. . ... : ... .. . ... : ... .. . ... : ... .. . ... : ... .. . ... F7C : ... .. . ... : ... .. . ... ... : ... .. . ...
ROW 0A : ... .. . ... : ... .. . ... : ... .. . ... : ... .. . ... : ... .. . ... F96 : ... .. . ... : D-5 12 . ... ... : ... .. . ...
ROW 0B : ... .. . ... : ... .. . ... : ... .. . ... : ... .. . ... : ... .. . ... F7C : ... .. . ... : ... .. . ... ... : ... .. . ...
ROW 0C : ... .. . ... : A#2 14 . ... : D-3 0D . ... : ... .. . ... : ... .. . ... F96 : D-5 12 . ... : ... .. . ... ... : D-1 0E . ...
ROW 0D : ... .. . ... : ... .. . ... : ... .. . ... : ... .. . ... : ... .. . ... F7C : ... .. . ... : ... .. . ... ... : ... .. . ...
ROW 0E : ... .. . ... : ... .. . ... : ... .. . ... : ... .. . ... : ... .. . ... F96 : ... .. . ... : C#5 12 . ... ... : ... .. . ...
ROW 0F : ... .. . ... : ... .. . ... : ... .. . ... : ... .. . ... : ... .. . ... F7C : ... .. . ... : ... .. . ... ... : ... .. . ...
ROW 10 : F-3 14 . ... : A#2 14 . ... : D-3 0D . ... : 3-# 0A . ... : C-3 09 . ... F96 : G-5 12 . ... : ... .. . ... ... : D-1 0E . ...
ROW 11 : ... .. . ... : ... .. . ... : ... .. . ... : ... .. . ... : ... .. . ... F7C : ... .. . ... : ... .. . ... ... : ... .. . ...
ROW 12 : ... .. . ... : ... .. . ... : ... .. . ... : ... .. . ... : ... .. . ... F96 : ... .. . ... : D-5 12 . ... ... : ... .. . ...
ROW 13 : ... .. . ... : ... .. . ... : ... .. . ... : ... .. . ... : ... .. . ... F7C : ... .. . ... : ... .. . ... ... : ... .. . ...
ROW 14 : ... .. . ... : A#2 14 . ... : D-3 0D . ... : 3-# 0A . ... : C-3 09 . ... F96 : D-5 12 . ... : ... .. . ... ... : D-1 0E . ...
ROW 15 : ... .. . ... : ... .. . ... : ... .. . ... : ... .. . ... : ... .. . ... F7C : ... .. . ... : ... .. . ... ... : ... .. . ...
ROW 16 : ... .. . ... : ... .. . ... : ... .. . ... : 3-# 0A . ... : C-3 09 . ... F96 : ... .. . ... : G-5 12 . ... ... : ... .. . ...
ROW 17 : ... .. . ... : ... .. . ... : ... .. . ... : ... .. . ... : ... .. . ... F7C : ... .. . ... : ... .. . ... ... : ... .. . ...
ROW 18 : E-3 14 . ... : A#2 14 . ... : D-3 0D . ... : 8-# 0A . ... : C#3 09 . ... F96 : C#5 12 . ... : ... .. . ... ... : D-1 0E . ...
ROW 19 : ... .. . ... : ... .. . ... : ... .. . ... : ... .. . ... : ... .. . ... F7C : ... .. . ... : ... .. . ... ... : ... .. . ...
ROW 1A : ... .. . ... : ... .. . ... : ... .. . ... : ... .. . ... : ... .. . ... F96 : ... .. . ... : D-5 12 . ... ... : ... .. . ...
ROW 1B : ... .. . ... : ... .. . ... : ... .. . ... : ... .. . ... : ... .. . ... F7C : ... .. . ... : ... .. . ... ... : ... .. . ...
ROW 1C : D-3 14 . ... : A#2 14 . ... : D-3 0D . ... : ... .. . ... : ... .. . ... F96 : D-5 12 . ... : ... .. . ... ... : D-1 0E . ...
ROW 1D : ... .. . ... : ... .. . ... : ... .. . ... : ... .. . ... : ... .. . ... F7C : ... .. . ... : ... .. . ... ... : ... .. . ...
ROW 1E : ... .. . ... : ... .. . ... : ... .. . ... : ... .. . ... : ... .. . ... F96 : ... .. . ... : C#5 12 . ... ... : ... .. . ...
ROW 1F : ... .. . ... : ... .. . ... : ... .. . ... : ... .. . ... : ... .. . ... F7C : ... .. . ... : ... .. . ... ... : ... .. . ...
ROW 20 : ... .. . ... : A#2 14 . ... : D-3 0D . ... : 3-# 0A . ... : C-3 09 . ... F96 : A-5 12 . ... : ... .. . ... ... : D-1 0E . ...
ROW 21 : ... .. . ... : ... .. . ... : ... .. . ... : ... .. . ... : ... .. . ... F7C : ... .. . ... : ... .. . ... ... : ... .. . ...
ROW 22 : ... .. . ... : ... .. . ... : ... .. . ... : ... .. . ... : ... .. . ... F96 : ... .. . ... : D-5 12 . ... ... : ... .. . ...
ROW 23 : ... .. . ... : ... .. . ... : ... .. . ... : ... .. . ... : ... .. . ... F7C : ... .. . ... : ... .. . ... ... : ... .. . ...
ROW 24 : E-3 14 . ... : A#2 14 . ... : D-3 0D . ... : ... .. . ... : ... .. . ... F96 : D-5 12 . ... : ... .. . ... ... : D-1 0E . ...
ROW 25 : ... .. . ... : ... .. . ... : ... .. . ... : ... .. . ... : ... .. . ... F7C : ... .. . ... : ... .. . ... ... : ... .. . ...
ROW 26 : ... .. . ... : ... .. . ... : ... .. . ... : 3-# 0A . ... : C-3 09 . ... F96 : ... .. . ... : A-5 12 . ... ... : ... .. . ...
ROW 27 : ... .. . ... : ... .. . ... : ... .. . ... : ... .. . ... : ... .. . ... F7C : ... .. . ... : ... .. . ... ... : ... .. . ...
ROW 28 : === .. . ... : A#2 14 . ... : D-3 0D . ... : 8-# 0A . ... : C#3 09 . ... F96 : C#5 12 . ... : ... .. . ... ... : D-1 0E . ...
ROW 29 : ... .. . ... : ... .. . ... : ... .. . ... : ... .. . ... : ... .. . ... F7C : ... .. . ... : ... .. . ... ... : ... .. . ...
ROW 2A : ... .. . ... : ... .. . ... : ... .. . ... : ... .. . ... : ... .. . ... F96 : ... .. . ... : D-5 12 . ... ... : ... .. . ...
ROW 2B : ... .. . ... : ... .. . ... : ... .. . ... : ... .. . ... : ... .. . ... F7C : ... .. . ... : ... .. . ... ... : ... .. . ...
ROW 2C : F-3 14 . ... : A#2 14 . ... : D-3 0D . ... : ... .. . ... : ... .. . ... F96 : D-5 12 . ... : ... .. . ... ... : D-1 0E . ...
ROW 2D : ... .. . ... : ... .. . ... : ... .. . ... : ... .. . ... : ... .. . ... F7C : ... .. . ... : ... .. . ... ... : ... .. . ...
ROW 2E : ... .. . ... : ... .. . ... : ... .. . ... : ... .. . ... : ... .. . ... F96 : ... .. . ... : C#5 12 . ... ... : ... .. . ...
ROW 2F : ... .. . ... : ... .. . ... : ... .. . ... : ... .. . ... : ... .. . ... F7C : ... .. . ... : ... .. . ... ... : ... .. . ...
ROW 30 : === .. . ... : A#2 14 . ... : D-3 0D . ... : 3-# 0A . ... : C-3 09 . ... F96 : A#5 12 . ... : ... .. . ... ... : D-1 0E . ...
ROW 31 : ... .. . ... : ... .. . ... : ... .. . ... : ... .. . ... : ... .. . ... F7C : ... .. . ... : ... .. . ... ... : ... .. . ...
ROW 32 : ... .. . ... : ... .. . ... : ... .. . ... : ... .. . ... : ... .. . ... F96 : ... .. . ... : D-5 12 . ... ... : ... .. . ...
ROW 33 : ... .. . ... : ... .. . ... : ... .. . ... : ... .. . ... : ... .. . ... F7C : ... .. . ... : ... .. . ... ... : ... .. . ...
ROW 34 : E-3 14 . ... : A#2 14 . ... : D-3 0D . ... : 3-# 0A . ... : C-3 09 . ... F96 : D-5 12 . ... : ... .. . ... ... : D-1 0E . ...
ROW 35 : ... .. . ... : ... .. . ... : ... .. . ... : ... .. . ... : ... .. . ... F7C : ... .. . ... : ... .. . ... ... : ... .. . ...
ROW 36 : ... .. . ... : ... .. . ... : ... .. . ... : 3-# 0A . ... : C-3 09 . ... F96 : ... .. . ... : A#5 12 . ... ... : ... .. . ...
ROW 37 : ... .. . ... : ... .. . ... : ... .. . ... : ... .. . ... : ... .. . ... F7C : ... .. . ... : ... .. . ... ... : ... .. . ...
ROW 38 : ... .. . ... : A#2 14 . ... : D-3 0D . ... : 8-# 0A . ... : C#3 09 . ... F96 : C#5 12 . ... : ... .. . ... ... : D-1 0E . ...
ROW 39 : ... .. . ... : ... .. . ... : ... .. . ... : ... .. . ... : ... .. . ... F7C : ... .. . ... : ... .. . ... ... : ... .. . ...
ROW 3A : ... .. . ... : ... .. . ... : ... .. . ... : ... .. . ... : ... .. . ... F96 : ... .. . ... : D-5 12 . ... ... : ... .. . ...
ROW 3B : ... .. . ... : ... .. . ... : ... .. . ... : ... .. . ... : ... .. . ... F7C : ... .. . ... : ... .. . ... ... : ... .. . ...
ROW 3C : ... .. . ... : A#2 14 . ... : D-3 0D . ... : ... .. . ... : ... .. . ... F96 : D-5 12 . ... : ... .. . ... ... : D-1 0E . ...
ROW 3D : ... .. . ... : ... .. . ... : ... .. . ... : ... .. . ... : ... .. . ... F7C : ... .. . ... : ... .. . ... ... : ... .. . ...
ROW 3E : ... .. . ... : ... .. . ... : ... .. . ... : ... .. . ... : ... .. . ... F96 : ... .. . ... : C#5 12 . ... ... : ... .. . ...
ROW 3F : ... .. . ... : ... .. . ... : ... .. . ... : ... .. . ... : ... .. . ... F7C : ... .. . ... : ... .. . ... ... : ... .. . ...

PATTERN 2A
ROW 00 : E-3 14 . ... : C-3 14 . ... : E-3 0D . ... : 3-# 0A . ... : C-3 09 . ... F96 : A#5 12 . ... : ... .. . ... ... : E-1 0E . ...
ROW 01 : ... .. . ... : ... .. . ... : ... .. . ... : ... .. . ... : ... .. . ... F7C : ... .. . ... : ... .. . ... ... : ... .. . ...
ROW 02 : ... .. . ... : ... .. . ... : ... .. . ... : ... .. . ... : ... .. . ... F96 : ... .. . ... : D-5 12 . ... ... : ... .. . ...
ROW 03 : ... .. . ... : ... .. . ... : ... .. . ... : ... .. . ... : ... .. . ... F7C : ... .. . ... : ... .. . ... ... : ... .. . ...
ROW 04 : E-3 14 . ... : C-3 14 . ... : E-3 0D . ... : ... .. . ... : ... .. . ... F96 : C-6 12 . ... : ... .. . ... ... : E-1 0E . ...
ROW 05 : ... .. . ... : ... .. . ... : ... .. . ... : ... .. . ... : ... .. . ... F7C : ... .. . ... : ... .. . ... ... : ... .. . ...
ROW 06 : ... .. . ... : ... .. . ... : ... .. . ... : 3-# 0A . ... : C-3 09 . ... F96 : ... .. . ... : A#5 12 . ... ... : ... .. . ...
ROW 07 : ... .. . ... : ... .. . ... : ... .. . ... : ... .. . ... : ... .. . ... F7C : ... .. . ... : ... .. . ... ... : ... .. . ...
ROW 08 : F-3 14 . ... : C-3 14 . ... : E-3 0D . ... : 8-# 0A . ... : C#3 09 . ... F96 : A-5 12 . ... : ... .. . ... ... : E-1 0E . ...
ROW 09 : ... .. . ... : ... .. . ... : ... .. . ... : ... .. . ... : ... .. . ... F7C : ... .. . ... : ... .. . ... ... : ... .. . ...
ROW 0A : ... .. . ... : ... .. . ... : ... .. . ... : ... .. . ... : ... .. . ... F96 : ... .. . ... : C-6 12 . ... ... : ... .. . ...
ROW 0B : ... .. . ... : ... .. . ... : ... .. . ... : ... .. . ... : ... .. . ... F7C : ... .. . ... : ... .. . ... ... : ... .. . ...
ROW 0C : ... .. . ... : C-3 14 . ... : E-3 0D . ... : ... .. . ... : ... .. . ... F96 : C-6 12 . ... : ... .. . ... ... : E-1 0E . ...
ROW 0D : ... .. . ... : ... .. . ... : ... .. . ... : ... .. . ... : ... .. . ... F7C : ... .. . ... : ... .. . ... ... : ... .. . ...
ROW 0E : ... .. . ... : ... .. . ... : ... .. . ... : ... .. . ... : ... .. . ... F96 : ... .. . ... : A-5 12 . ... ... : ... .. . ...
ROW 0F : ... .. . ... : ... .. . ... : ... .. . ... : ... .. . ... : ... .. . ... F7C : ... .. . ... : ... .. . ... ... : ... .. . ...
ROW 10 : G-3 14 . ... : C-3 14 . ... : E-3 0D . ... : 3-# 0A . ... : C-3 09 . ... F96 : E-5 12 . ... : ... .. . ... ... : E-1 0E . ...
ROW 11 : ... .. . ... : ... .. . ... : ... .. . ... : ... .. . ... : ... .. . ... F7C : ... .. . ... : ... .. . ... ... : ... .. . ...
ROW 12 : ... .. . ... : ... .. . ... : ... .. . ... : ... .. . ... : ... .. . ... F96 : ... .. . ... : C-6 12 . ... ... : ... .. . ...
ROW 13 : ... .. . ... : ... .. . ... : ... .. . ... : ... .. . ... : ... .. . ... F7C : ... .. . ... : ... .. . ... ... : ... .. . ...
ROW 14 : ... .. . ... : C-3 14 . ... : E-3 0D . ... : 3-# 0A . ... : C-3 09 . ... F96 : G-5 12 . ... : ... .. . ... ... : E-1 0E . ...
ROW 15 : ... .. . ... : ... .. . ... : ... .. . ... : ... .. . ... : ... .. . ... F7C : ... .. . ... : ... .. . ... ... : ... .. . ...
ROW 16 : ... .. . ... : ... .. . ... : ... .. . ... : 3-# 0A . ... : C-3 09 . ... F96 : ... .. . ... : E-5 12 . ... ... : ... .. . ...
ROW 17 : ... .. . ... : ... .. . ... : ... .. . ... : ... .. . ... : ... .. . ... F7C : ... .. . ... : ... .. . ... ... : ... .. . ...
ROW 18 : F-3 14 . ... : C-3 14 . ... : E-3 0D . ... : 8-# 0A . ... : C#3 09 . ... F96 : F-5 12 . ... : ... .. . ... ... : E-1 0E . ...
ROW 19 : ... .. . ... : ... .. . ... : ... .. . ... : ... .. . ... : ... .. . ... F7C : ... .. . ... : ... .. . ... ... : ... .. . ...
ROW 1A : ... .. . ... : ... .. . ... : ... .. . ... : ... .. . ... : ... .. . ... F96 : ... .. . ... : G-5 12 . ... ... : ... .. . ...
ROW 1B : ... .. . ... : ... .. . ... : ... .. . ... : ... .. . ... : ... .. . ... F7C : ... .. . ... : ... .. . ... ... : ... .. . ...
ROW 1C : E-3 14 . ... : C-3 14 . ... : E-3 0D . ... : ... .. . ... : ... .. . ... F96 : G-5 12 . ... : ... .. . ... ... : E-1 0E . ...
ROW 1D : ... .. . ... : ... .. . ... : ... .. . ... : ... .. . ... : ... .. . ... F7C : ... .. . ... : ... .. . ... ... : ... .. . ...
ROW 1E : ... .. . ... : ... .. . ... : ... .. . ... : ... .. . ... : ... .. . ... F96 : ... .. . ... : F-5 12 . ... ... : ... .. . ...
ROW 1F : ... .. . ... : ... .. . ... : ... .. . ... : ... .. . ... : ... .. . ... F7C : ... .. . ... : ... .. . ... ... : ... .. . ...
ROW 20 : ... .. . ... : C-3 14 . ... : E-3 0D . ... : 3-# 0A . ... : C-3 09 . ... F96 : D-5 12 . ... : ... .. . ... ... : E-1 0E . ...
ROW 21 : ... .. . ... : ... .. . ... : ... .. . ... : ... .. . ... : ... .. . ... F7C : ... .. . ... : ... .. . ... ... : ... .. . ...
ROW 22 : ... .. . ... : ... .. . ... : ... .. . ... : ... .. . ... : ... .. . ... F96 : ... .. . ... : G-5 12 . ... ... : ... .. . ...
ROW 23 : ... .. . ... : ... .. . ... : ... .. . ... : ... .. . ... : ... .. . ... F7C : ... .. . ... : ... .. . ... ... : ... .. . ...
ROW 24 : F-3 14 . ... : C-3 14 . ... : E-3 0D . ... : ... .. . ... : ... .. . ... F96 : F-5 12 . ... : ... .. . ... ... : E-1 0E . ...
ROW 25 : ... .. . ... : ... .. . ... : ... .. . ... : ... .. . ... : ... .. . ... F7C : ... .. . ... : ... .. . ... ... : ... .. . ...
ROW 26 : ... .. . ... : ... .. . ... : ... .. . ... : 3-# 0A . ... : C-3 09 . ... F96 : ... .. . ... : D-5 12 . ... ... : ... .. . ...
ROW 27 : ... .. . ... : ... .. . ... : ... .. . ... : ... .. . ... : ... .. . ... F7C : ... .. . ... : ... .. . ... ... : ... .. . ...
ROW 28 : === .. . ... : C-3 14 . ... : E-3 0D . ... : 8-# 0A . ... : C#3 09 . ... F96 : E-5 12 . ... : ... .. . ... ... : E-1 0E . ...
ROW 29 : ... .. . ... : ... .. . ... : ... .. . ... : ... .. . ... : ... .. . ... F7C : ... .. . ... : ... .. . ... ... : ... .. . ...
ROW 2A : ... .. . ... : ... .. . ... : ... .. . ... : ... .. . ... : ... .. . ... F96 : ... .. . ... : F-5 12 . ... ... : ... .. . ...
ROW 2B : ... .. . ... : ... .. . ... : ... .. . ... : ... .. . ... : ... .. . ... F7C : ... .. . ... : ... .. . ... ... : ... .. . ...
ROW 2C : G-3 14 . ... : C-3 14 . ... : E-3 0D . ... : ... .. . ... : ... .. . ... F96 : F-5 12 . ... : ... .. . ... ... : E-1 0E . ...
ROW 2D : ... .. . ... : ... .. . ... : ... .. . ... : ... .. . ... : ... .. . ... F7C : ... .. . ... : ... .. . ... ... : ... .. . ...
ROW 2E : ... .. . ... : ... .. . ... : ... .. . ... : ... .. . ... : ... .. . ... F96 : ... .. . ... : E-5 12 . ... ... : ... .. . ...
ROW 2F : ... .. . ... : ... .. . ... : ... .. . ... : ... .. . ... : ... .. . ... F7C : ... .. . ... : ... .. . ... ... : ... .. . ...
ROW 30 : === .. . ... : C-3 14 . ... : E-3 0D . ... : 3-# 0A . ... : C-3 09 . ... F96 : C#5 12 . ... : ... .. . ... ... : E-1 0E . ...
ROW 31 : ... .. . ... : ... .. . ... : ... .. . ... : ... .. . ... : ... .. . ... F7C : ... .. . ... : ... .. . ... ... : ... .. . ...
ROW 32 : ... .. . ... : ... .. . ... : ... .. . ... : ... .. . ... : ... .. . ... F96 : ... .. . ... : F-5 12 . ... ... : ... .. . ...
ROW 33 : ... .. . ... : ... .. . ... : ... .. . ... : ... .. . ... : ... .. . ... F7C : ... .. . ... : ... .. . ... ... : ... .. . ...
ROW 34 : F-3 14 . ... : C-3 14 . ... : E-3 0D . ... : 3-# 0A . ... : C-3 09 . ... F96 : E-5 12 . ... : ... .. . ... ... : E-1 0E . ...
ROW 35 : ... .. . ... : ... .. . ... : ... .. . ... : ... .. . ... : ... .. . ... F7C : ... .. . ... : ... .. . ... ... : ... .. . ...
ROW 36 : ... .. . ... : ... .. . ... : ... .. . ... : 3-# 0A . ... : C-3 09 . ... F96 : ... .. . ... : C#5 12 . ... ... : ... .. . ...
ROW 37 : ... .. . ... : ... .. . ... : ... .. . ... : ... .. . ... : ... .. . ... F7C : ... .. . ... : ... .. . ... ... : ... .. . ...
ROW 38 : ... .. . ... : C-3 14 . ... : E-3 0D . ... : 8-# 0A . ... : C#3 09 . ... F96 : D-5 12 . ... : ... .. . ... ... : E-1 0E . ...
ROW 39 : ... .. . ... : ... .. . ... : ... .. . ... : ... .. . ... : ... .. . ... F7C : ... .. . ... : ... .. . ... ... : ... .. . ...
ROW 3A : ... .. . ... : ... .. . ... : ... .. . ... : ... .. . ... : ... .. . ... F96 : ... .. . ... : E-5 12 . ... ... : ... .. . ...
ROW 3B : ... .. . ... : ... .. . ... : ... .. . ... : ... .. . ... : ... .. . ... F7C : ... .. . ... : ... .. . ... ... : ... .. . ...
ROW 3C : ... .. . ... : C-3 14 . ... : E-3 0D . ... : ... .. . ... : ... .. . ... F96 : E-5 12 . ... : ... .. . ... ... : E-1 0E . ...
ROW 3D : ... .. . ... : ... .. . ... : ... .. . ... : ... .. . ... : ... .. . ... F7C : ... .. . ... : ... .. . ... ... : ... .. . ...
ROW 3E : ... .. . ... : ... .. . ... : ... .. . ... : ... .. . ... : ... .. . ... F96 : ... .. . ... : D-5 12 . ... ... : ... .. . ...
ROW 3F : ... .. . ... : ... .. . ... : ... .. . ... : ... .. . ... : ... .. . ... F7C : ... .. . ... : ... .. . ... ... : ... .. . ...

PATTERN 2B
ROW 00 : D-3 14 . ... : A#2 14 . ... : D-3 0D . ... : 3-# 0A . ... : C-3 09 . ... F96 : F-5 12 . ... : ... .. . ... ... : D-1 0E . ...
ROW 01 : ... .. . ... : ... .. . ... : ... .. . ... : ... .. . ... : ... .. . ... F7C : ... .. . ... : ... .. . ... ... : ... .. . ...
ROW 02 : ... .. . ... : ... .. . ... : ... .. . ... : ... .. . ... : ... .. . ... F96 : ... .. . ... : E-5 12 . ... ... : ... .. . ...
ROW 03 : ... .. . ... : ... .. . ... : ... .. . ... : ... .. . ... : ... .. . ... F7C : ... .. . ... : ... .. . ... ... : ... .. . ...
ROW 04 : D-3 14 . ... : A#2 14 . ... : D-3 0D . ... : ... .. . ... : ... .. . ... F96 : D-5 12 . ... : ... .. . ... ... : D-1 0E . ...
ROW 05 : ... .. . ... : ... .. . ... : ... .. . ... : ... .. . ... : ... .. . ... F7C : ... .. . ... : ... .. . ... ... : ... .. . ...
ROW 06 : ... .. . ... : ... .. . ... : ... .. . ... : 3-# 0A . ... : C-3 09 . ... F96 : ... .. . ... : F-5 12 . ... ... : ... .. . ...
ROW 07 : ... .. . ... : ... .. . ... : ... .. . ... : ... .. . ... : ... .. . ... F7C : ... .. . ... : ... .. . ... ... : ... .. . ...
ROW 08 : E-3 14 . ... : A#2 14 . ... : D-3 0D . ... : 8-# 0A . ... : C#3 09 . ... F96 : C#5 12 . ... : ... .. . ... ... : D-1 0E . ...
ROW 09 : ... .. . ... : ... .. . ... : ... .. . ... : ... .. . ... : ... .. . ... F7C : ... .. . ... : ... .. . ... ... : ... .. . ...
ROW 0A : ... .. . ... : ... .. . ... : ... .. . ... : ... .. . ... : ... .. . ... F96 : ... .. . ... : D-5 12 . ... ... : ... .. . ...
ROW 0B : ... .. . ... : ... .. . ... : ... .. . ... : ... .. . ... : ... .. . ... F7C : ... .. . ... : ... .. . ... ... : ... .. . ...
ROW 0C : ... .. . ... : A#2 14 . ... : D-3 0D . ... : ... .. . ... : ... .. . ... F96 : D-5 12 . ... : ... .. . ... ... : D-1 0E . ...
ROW 0D : ... .. . ... : ... .. . ... : ... .. . ... : ... .. . ... : ... .. . ... F7C : ... .. . ... : ... .. . ... ... : ... .. . ...
ROW 0E : ... .. . ... : ... .. . ... : ... .. . ... : ... .. . ... : ... .. . ... F96 : ... .. . ... : C#5 12 . ... ... : ... .. . ...
ROW 0F : ... .. . ... : ... .. . ... : ... .. . ... : ... .. . ... : ... .. . ... F7C : ... .. . ... : ... .. . ... ... : ... .. . ...
ROW 10 : F-3 14 . ... : A#2 14 . ... : D-3 0D . ... : 3-# 0A . ... : C-3 09 . ... F96 : G-5 12 . ... : ... .. . ... ... : D-1 0E . ...
ROW 11 : ... .. . ... : ... .. . ... : ... .. . ... : ... .. . ... : ... .. . ... F7C : ... .. . ... : ... .. . ... ... : ... .. . ...
ROW 12 : ... .. . ... : ... .. . ... : ... .. . ... : ... .. . ... : ... .. . ... F96 : ... .. . ... : D-5 12 . ... ... : ... .. . ...
ROW 13 : ... .. . ... : ... .. . ... : ... .. . ... : ... .. . ... : ... .. . ... F7C : ... .. . ... : ... .. . ... ... : ... .. . ...
ROW 14 : ... .. . ... : A#2 14 . ... : D-3 0D . ... : 3-# 0A . ... : C-3 09 . ... F96 : D-5 12 . ... : ... .. . ... ... : D-1 0E . ...
ROW 15 : ... .. . ... : ... .. . ... : ... .. . ... : ... .. . ... : ... .. . ... F7C : ... .. . ... : ... .. . ... ... : ... .. . ...
ROW 16 : ... .. . ... : ... .. . ... : ... .. . ... : 3-# 0A . ... : C-3 09 . ... F96 : ... .. . ... : G-5 12 . ... ... : ... .. . ...
ROW 17 : ... .. . ... : ... .. . ... : ... .. . ... : ... .. . ... : ... .. . ... F7C : ... .. . ... : ... .. . ... ... : ... .. . ...
ROW 18 : E-3 14 . ... : A#2 14 . ... : D-3 0D . ... : 8-# 0A . ... : C#3 09 . ... F96 : C#5 12 . ... : ... .. . ... ... : D-1 0E . ...
ROW 19 : ... .. . ... : ... .. . ... : ... .. . ... : ... .. . ... : ... .. . ... F7C : ... .. . ... : ... .. . ... ... : ... .. . ...
ROW 1A : ... .. . ... : ... .. . ... : ... .. . ... : ... .. . ... : ... .. . ... F96 : ... .. . ... : D-5 12 . ... ... : ... .. . ...
ROW 1B : ... .. . ... : ... .. . ... : ... .. . ... : ... .. . ... : ... .. . ... F7C : ... .. . ... : ... .. . ... ... : ... .. . ...
ROW 1C : D-3 14 . ... : A#2 14 . ... : D-3 0D . ... : ... .. . ... : ... .. . ... F96 : D-5 12 . ... : ... .. . ... ... : D-1 0E . ...
ROW 1D : ... .. . ... : ... .. . ... : ... .. . ... : ... .. . ... : ... .. . ... F7C : ... .. . ... : ... .. . ... ... : ... .. . ...
ROW 1E : ... .. . ... : ... .. . ... : ... .. . ... : ... .. . ... : ... .. . ... F96 : ... .. . ... : C#5 12 . ... ... : ... .. . ...
ROW 1F : ... .. . ... : ... .. . ... : ... .. . ... : ... .. . ... : ... .. . ... F7C : ... .. . ... : ... .. . ... ... : ... .. . ...
ROW 20 : ... .. . ... : A#2 14 . ... : D-3 0D . ... : 3-# 0A . ... : C-3 09 . ... F96 : A-5 12 . ... : ... .. . ... ... : D-1 0E . ...
ROW 21 : ... .. . ... : ... .. . ... : ... .. . ... : ... .. . ... : ... .. . ... F7C : ... .. . ... : ... .. . ... ... : ... .. . ...
ROW 22 : ... .. . ... : ... .. . ... : ... .. . ... : ... .. . ... : ... .. . ... F96 : ... .. . ... : D-5 12 . ... ... : ... .. . ...
ROW 23 : ... .. . ... : ... .. . ... : ... .. . ... : ... .. . ... : ... .. . ... F7C : ... .. . ... : ... .. . ... ... : ... .. . ...
ROW 24 : E-3 14 . ... : A#2 14 . ... : D-3 0D . ... : ... .. . ... : ... .. . ... F96 : D-5 12 . ... : ... .. . ... ... : D-1 0E . ...
ROW 25 : ... .. . ... : ... .. . ... : ... .. . ... : ... .. . ... : ... .. . ... F7C : ... .. . ... : ... .. . ... ... : ... .. . ...
ROW 26 : ... .. . ... : ... .. . ... : ... .. . ... : 3-# 0A . ... : C-3 09 . ... F96 : ... .. . ... : A-5 12 . ... ... : ... .. . ...
ROW 27 : ... .. . ... : ... .. . ... : ... .. . ... : ... .. . ... : ... .. . ... F7C : ... .. . ... : ... .. . ... ... : ... .. . ...
ROW 28 : === .. . ... : A#2 14 . ... : D-3 0D . ... : 8-# 0A . ... : C#3 09 . ... F96 : C#5 12 . ... : ... .. . ... ... : D-1 0E . ...
ROW 29 : ... .. . ... : ... .. . ... : ... .. . ... : ... .. . ... : ... .. . ... F7C : ... .. . ... : ... .. . ... ... : ... .. . ...
ROW 2A : ... .. . ... : ... .. . ... : ... .. . ... : ... .. . ... : ... .. . ... F96 : ... .. . ... : D-5 12 . ... ... : ... .. . ...
ROW 2B : ... .. . ... : ... .. . ... : ... .. . ... : ... .. . ... : ... .. . ... F7C : ... .. . ... : ... .. . ... ... : ... .. . ...
ROW 2C : F-3 14 . ... : A#2 14 . ... : D-3 0D . ... : ... .. . ... : ... .. . ... F96 : D-5 12 . ... : ... .. . ... ... : D-1 0E . ...
ROW 2D : ... .. . ... : ... .. . ... : ... .. . ... : ... .. . ... : ... .. . ... F7C : ... .. . ... : ... .. . ... ... : ... .. . ...
ROW 2E : ... .. . ... : ... .. . ... : ... .. . ... : ... .. . ... : ... .. . ... F96 : ... .. . ... : C#5 12 . ... ... : ... .. . ...
ROW 2F : ... .. . ... : ... .. . ... : ... .. . ... : ... .. . ... : ... .. . ... F7C : ... .. . ... : ... .. . ... ... : ... .. . ...
ROW 30 : === .. . ... : A#2 14 . ... : D-3 0D . ... : 3-# 0A . ... : C-3 09 . ... F96 : A#5 12 . ... : ... .. . ... ... : D-1 0E . ...
ROW 31 : ... .. . ... : ... .. . ... : ... .. . ... : ... .. . ... : ... .. . ... F7C : ... .. . ... : ... .. . ... ... : ... .. . ...
ROW 32 : ... .. . ... : ... .. . ... : ... .. . ... : ... .. . ... : ... .. . ... F96 : ... .. . ... : D-5 12 . ... ... : ... .. . ...
ROW 33 : ... .. . ... : ... .. . ... : ... .. . ... : ... .. . ... : ... .. . ... F7C : ... .. . ... : ... .. . ... ... : ... .. . ...
ROW 34 : E-3 14 . ... : A#2 14 . ... : D-3 0D . ... : 3-# 0A . ... : C-3 09 . ... F96 : D-5 12 . ... : ... .. . ... ... : D-1 0E . ...
ROW 35 : ... .. . ... : ... .. . ... : ... .. . ... : ... .. . ... : ... .. . ... F7C : ... .. . ... : ... .. . ... ... : ... .. . ...
ROW 36 : ... .. . ... : ... .. . ... : ... .. . ... : 3-# 0A . ... : C-3 09 . ... F96 : ... .. . ... : A#5 12 . ... ... : ... .. . ...
ROW 37 : ... .. . ... : ... .. . ... : ... .. . ... : ... .. . ... : ... .. . ... F7C : ... .. . ... : ... .. . ... ... : ... .. . ...
ROW 38 : ... .. . ... : A#2 14 . ... : D-3 0D . ... : 8-# 0A . ... : C#3 09 . ... F96 : C#5 12 . ... : ... .. . ... ... : D-1 0E . ...
ROW 39 : ... .. . ... : ... .. . ... : ... .. . ... : ... .. . ... : ... .. . ... F7C : ... .. . ... : ... .. . ... ... : ... .. . ...
ROW 3A : ... .. . ... : ... .. . ... : ... .. . ... : ... .. . ... : ... .. . ... F96 : ... .. . ... : D-5 12 . ... ... : ... .. . ...
ROW 3B : ... .. . ... : ... .. . ... : ... .. . ... : ... .. . ... : ... .. . ... F7C : ... .. . ... : ... .. . ... ... : ... .. . ...
ROW 3C : ... .. . ... : A#2 14 . ... : D-3 0D . ... : ... .. . ... : ... .. . ... F96 : D-5 12 . ... : ... .. . ... ... : D-1 0E . ...
ROW 3D : ... .. . ... : ... .. . ... : ... .. . ... : ... .. . ... : ... .. . ... F7C : ... .. . ... : ... .. . ... ... : ... .. . ...
ROW 3E : ... .. . ... : ... .. . ... : ... .. . ... : ... .. . ... : ... .. . ... F96 : ... .. . ... : C#5 12 . ... ... : ... .. . ...
ROW 3F : ... .. . ... : ... .. . ... : ... .. . ... : ... .. . ... : ... .. . ... F7C : ... .. . ... : ... .. . ... ... : ... .. . ...

PATTERN 2C
ROW 00 : E-3 14 . ... : C-3 14 . ... : E-3 0D . ... : 3-# 0A . ... : C-3 09 . ... F96 : D-5 12 . ... : ... .. . ... ... : E-1 0E . ...
ROW 01 : ... .. . ... : ... .. . ... : ... .. . ... : ... .. . ... : ... .. . ... F7C : ... .. . ... : ... .. . ... ... : ... .. . ...
ROW 02 : ... .. . ... : ... .. . ... : ... .. . ... : ... .. . ... : ... .. . ... F96 : E-5 12 . ... : D-5 12 . ... ... : ... .. . ...
ROW 03 : ... .. . ... : ... .. . ... : ... .. . ... : ... .. . ... : ... .. . ... F7C : ... .. . ... : ... .. . ... ... : ... .. . ...
ROW 04 : E-3 14 . ... : C-3 14 . ... : E-3 0D . ... : ... .. . ... : ... .. . ... F96 : F-5 12 . ... : ... .. . ... ... : E-1 0E . ...
ROW 05 : ... .. . ... : ... .. . ... : ... .. . ... : ... .. . ... : ... .. . ... F7C : ... .. . ... : ... .. . ... ... : ... .. . ...
ROW 06 : ... .. . ... : ... .. . ... : ... .. . ... : 3-# 0A . ... : C-3 09 . ... F96 : G-5 12 . ... : D-5 12 . ... ... : ... .. . ...
ROW 07 : ... .. . ... : ... .. . ... : ... .. . ... : ... .. . ... : ... .. . ... F7C : ... .. . ... : ... .. . ... ... : ... .. . ...
ROW 08 : F-3 14 . ... : C-3 14 . ... : E-3 0D . ... : 8-# 0A . ... : C#3 09 . ... F96 : A-5 12 . ... : E-5 12 . ... ... : E-1 0E . ...
ROW 09 : ... .. . ... : ... .. . ... : ... .. . ... : ... .. . ... : ... .. . ... F7C : ... .. . ... : ... .. . ... ... : ... .. . ...
ROW 0A : ... .. . ... : ... .. . ... : ... .. . ... : ... .. . ... : ... .. . ... F96 : A#5 12 . ... : F-5 12 . ... ... : ... .. . ...
ROW 0B : ... .. . ... : ... .. . ... : ... .. . ... : ... .. . ... : ... .. . ... F7C : ... .. . ... : ... .. . ... ... : ... .. . ...
ROW 0C : ... .. . ... : C-3 14 . ... : E-3 0D . ... : ... .. . ... : ... .. . ... F96 : C-6 12 . ... : G-5 12 . ... ... : E-1 0E . ...
ROW 0D : ... .. . ... : ... .. . ... : ... .. . ... : ... .. . ... : ... .. . ... F7C : ... .. . ... : ... .. . ... ... : ... .. . ...
ROW 0E : ... .. . ... : ... .. . ... : ... .. . ... : ... .. . ... : ... .. . ... F96 : D-6 12 . ... : A-5 12 . ... ... : ... .. . ...
ROW 0F : ... .. . ... : ... .. . ... : ... .. . ... : ... .. . ... : ... .. . ... F7C : ... .. . ... : ... .. . ... ... : ... .. . ...
ROW 10 : G-3 14 . ... : C-3 14 . ... : E-3 0D . ... : 3-# 0A . ... : C-3 09 . ... F96 : E-6 12 . ... : A#5 12 . ... ... : E-1 0E . ...
ROW 11 : ... .. . ... : ... .. . ... : ... .. . ... : ... .. . ... : ... .. . ... F7C : ... .. . ... : ... .. . ... ... : ... .. . ...
ROW 12 : ... .. . ... : ... .. . ... : ... .. . ... : ... .. . ... : ... .. . ... F96 : D-6 12 . ... : C-6 12 . ... ... : ... .. . ...
ROW 13 : ... .. . ... : ... .. . ... : ... .. . ... : ... .. . ... : ... .. . ... F7C : ... .. . ... : ... .. . ... ... : ... .. . ...
ROW 14 : ... .. . ... : C-3 14 . ... : E-3 0D . ... : 3-# 0A . ... : C-3 09 . ... F96 : C-6 12 . ... : D-6 12 . ... ... : E-1 0E . ...
ROW 15 : ... .. . ... : ... .. . ... : ... .. . ... : ... .. . ... : ... .. . ... F7C : ... .. . ... : ... .. . ... ... : ... .. . ...
ROW 16 : ... .. . ... : ... .. . ... : ... .. . ... : 3-# 0A . ... : C-3 09 . ... F96 : A#5 12 . ... : E-6 12 . ... ... : ... .. . ...
ROW 17 : ... .. . ... : ... .. . ... : ... .. . ... : ... .. . ... : ... .. . ... F7C : ... .. . ... : ... .. . ... ... : ... .. . ...
ROW 18 : F-3 14 . ... : C-3 14 . ... : E-3 0D . ... : 8-# 0A . ... : C#3 09 . ... F96 : A-5 12 . ... : D-6 12 . ... ... : E-1 0E . ...
ROW 19 : ... .. . ... : ... .. . ... : ... .. . ... : ... .. . ... : ... .. . ... F7C : ... .. . ... : ... .. . ... ... : ... .. . ...
ROW 1A : ... .. . ... : ... .. . ... : ... .. . ... : ... .. . ... : ... .. . ... F96 : C-6 12 . ... : C-6 12 . ... ... : ... .. . ...
ROW 1B : ... .. . ... : ... .. . ... : ... .. . ... : ... .. . ... : ... .. . ... F7C : ... .. . ... : ... .. . ... ... : ... .. . ...
ROW 1C : E-3 14 . ... : C-3 14 . ... : E-3 0D . ... : ... .. . ... : ... .. . ... F96 : A#5 12 . ... : A#5 12 . ... ... : E-1 0E . ...
ROW 1D : ... .. . ... : ... .. . ... : ... .. . ... : ... .. . ... : ... .. . ... F7C : ... .. . ... : ... .. . ... ... : ... .. . ...
ROW 1E : ... .. . ... : ... .. . ... : ... .. . ... : ... .. . ... : ... .. . ... F96 : F-5 12 . ... : A-5 12 . ... ... : ... .. . ...
ROW 1F : ... .. . ... : ... .. . ... : ... .. . ... : B-# 0B . G02 : D-3 09 . G02 F7C : ... .. . ... : ... .. . ... ... : ... .. . ...
ROW 20 : ... .. . ... : C-3 14 . ... : E-3 0D . ... : B-# 0B . G01 : D-3 09 . G01 F96 : D-5 12 . ... : C-6 12 . ... ... : E-1 0E . ...
ROW 21 : ... .. . ... : ... .. . ... : ... .. . ... : ... .. . ... : ... .. . ... F7C : ... .. . ... : ... .. . ... ... : ... .. . ...
ROW 22 : ... .. . ... : ... .. . ... : ... .. . ... : ... .. . ... : ... .. . ... F96 : F-5 12 . ... : A#5 12 . ... ... : ... .. . ...
ROW 23 : ... .. . ... : ... .. . ... : ... .. . ... : B-# 0B . G02 : D-3 09 . G02 F7C : ... .. . ... : ... .. . ... ... : ... .. . ...
ROW 24 : D-4 14 . ... : C-3 14 . ... : D-4 0D . ... : B-# 0B . G01 : D-3 09 . G01 F96 : A-5 12 . ... : F-5 12 . ... ... : D-2 0E . ...
ROW 25 : ... .. . ... : ... .. . ... : ... .. . ... : ... .. . ... : ... .. . ... F7C : ... .. . ... : ... .. . ... ... : ... .. . ...
ROW 26 : ... .. . ... : ... .. . ... : ... .. . ... : ... .. . ... : ... .. . ... F96 : D-6 12 . ... : D-5 12 . ... ... : ... .. . ...
ROW 27 : ... .. . ... : ... .. . ... : ... .. . ... : A-# 0B . G02 : D#3 09 . G02 F7C : ... .. . ... : ... .. . ... ... : ... .. . ...
ROW 28 : C-4 14 . ... : C-3 14 . ... : C-4 0D . ... : A-# 0B . G01 : D#3 09 . G01 F96 : F-6 12 . ... : F-5 12 . ... ... : C-2 0E . ...
ROW 29 : ... .. . ... : ... .. . ... : ... .. . ... : ... .. . ... : ... .. . ... F7C : ... .. . ... : ... .. . ... ... : ... .. . ...
ROW 2A : ... .. . ... : ... .. . ... : ... .. . ... : ... .. . ... : ... .. . ... F96 : A-6 12 . ... : A-5 12 . ... ... : ... .. . ...
ROW 2B : ... .. . ... : ... .. . ... : ... .. . ... : A-# 0B . G02 : D#3 09 . G02 F7C : ... .. . ... : ... .. . ... ... : ... .. . ...
ROW 2C : A#3 14 . ... : C-3 14 . ... : A#3 0D . ... : A-# 0B . G01 : D#3 09 . G01 F96 : A#6 12 . ... : D-6 12 . ... ... : A#1 0E . ...
ROW 2D : ... .. . ... : ... .. . ... : ... .. . ... : ... .. . ... : ... .. . ... F7C : ... .. . ... : ... .. . ... ... : ... .. . ...
ROW 2E : ... .. . ... : ... .. . ... : ... .. . ... : ... .. . ... : ... .. . ... F96 : A-6 12 . ... : F-6 12 . ... ... : ... .. . ...
ROW 2F : ... .. . ... : ... .. . ... : ... .. . ... : 9-# 0B . G02 : E-3 09 . G02 F7C : ... .. . ... : ... .. . ... ... : ... .. . ...
ROW 30 : A-3 14 . ... : C-3 14 . ... : A-3 0D . ... : 9-# 0B . G01 : E-3 09 . G01 F96 : F-6 12 . ... : A-6 12 . ... ... : A-1 0E . ...
ROW 31 : ... .. . ... : ... .. . ... : ... .. . ... : ... .. . ... : ... .. . ... F7C : ... .. . ... : ... .. . ... ... : ... .. . ...
ROW 32 : ... .. . ... : ... .. . ... : ... .. . ... : ... .. . ... : ... .. . ... F96 : D-6 12 . ... : A#6 12 . ... ... : ... .. . ...
ROW 33 : ... .. . ... : ... .. . ... : ... .. . ... : 9-# 0B . G02 : E-3 09 . G02 F7C : ... .. . ... : ... .. . ... ... : ... .. . ...
ROW 34 : G-3 14 . ... : C-3 14 . ... : G-3 0D . ... : 9-# 0B . G01 : E-3 09 . G01 F96 : A#5 12 . ... : A-6 12 . ... ... : G-1 0E . ...
ROW 35 : ... .. . ... : ... .. . ... : ... .. . ... : ... .. . ... : ... .. . ... F7C : ... .. . ... : ... .. . ... ... : ... .. . ...
ROW 36 : ... .. . ... : ... .. . ... : ... .. . ... : ... .. . ... : ... .. . ... F96 : A-5 12 . ... : F-6 12 . ... ... : ... .. . ...
ROW 37 : ... .. . ... : ... .. . ... : ... .. . ... : ... .. . ... : ... .. . ... F7C : ... .. . ... : ... .. . ... ... : ... .. . ...
ROW 38 : F-3 14 . ... : C-3 14 . ... : F-3 0D . ... : 3-# 0B . ... : C-3 09 . ... F96 : F-5 12 . ... : D-6 12 . ... ... : F-1 0E . ...
ROW 39 : ... .. . ... : ... .. . ... : ... .. . ... : ... .. . ... : ... .. . ... F7C : ... .. . ... : ... .. . ... ... : ... .. . ...
ROW 3A : ... .. . ... : ... .. . ... : ... .. . ... : ... .. . ... : ... .. . ... F96 : E-5 12 . ... : A#5 12 . ... ... : ... .. . ...
ROW 3B : ... .. . ... : ... .. . ... : ... .. . ... : ... .. . ... : ... .. . ... F7C : ... .. . ... : ... .. . ... ... : ... .. . ...
ROW 3C : E-3 14 . ... : C-3 14 . ... : E-3 0D . ... : 3-# 0B . ... : C-3 09 . ... F96 : D-5 12 . ... : A-5 12 . ... ... : E-1 0E . ...
ROW 3D : ... .. . ... : ... .. . ... : ... .. . ... : ... .. . ... : ... .. . ... F7C : ... .. . ... : ... .. . ... ... : ... .. . ...
ROW 3E : ... .. . ... : ... .. . ... : ... .. . ... : ... .. . ... : ... .. . ... F96 : A-4 12 . ... : F-5 12 . ... ... : ... .. . ...
ROW 3F : ... .. . ... : ... .. . ... : ... .. . ... : ... .. . ... : ... .. . ... F7C : ... .. . ... : ... .. . ... ... : ... .. . ...

PATTERN 2D
ROW 00 : D-3 14 . ... : A-2 14 . ... : D-3 0D . ... : 3-# 0B . ... : C-3 09 . ... F96 : D-4 12 . ... : E-5 12 . ... ... : D-1 0E . ...
ROW 01 : ... .. . ... : ... .. . ... : ... .. . ... : ... .. . ... : ... .. . ... F7C : ... .. . ... : ... .. . ... ... : ... .. . ...
ROW 02 : ... .. . ... : ... .. . ... : ... .. . ... : ... .. . ... : ... .. . ... F96 : ... .. . ... : D-5 12 . ... ... : ... .. . ...
ROW 03 : ... .. . ... : ... .. . ... : ... .. . ... : ... .. . ... : ... .. . ... F7C : ... .. . ... : ... .. . ... ... : ... .. . ...
ROW 04 : ... .. . ... : ... .. . ... : ... .. . ... : 3-# 0B . ... : C-3 09 . ... F96 : ... .. D ... : A-4 12 . ... ... : ... .. . ...
ROW 05 : ... .. . ... : ... .. . ... : ... .. . ... : ... .. . ... : ... .. . ... F7C : ... .. . ... : ... .. . ... ... : ... .. . ...
ROW 06 : ... .. . ... : ... .. . ... : ... .. . ... : ... .. . ... : ... .. . ... F96 : ... .. B ... : D-4 12 . ... ... : ... .. . ...
ROW 07 : ... .. . ... : ... .. . ... : ... .. . ... : ... .. . ... : ... .. . ... F7C : ... .. . ... : ... .. . ... ... : ... .. . ...
ROW 08 : ... .. . ... : ... .. . ... : ... .. . ... : ... .. . ... : ... .. . ... F96 : ... .. 9 ... : ... .. . ... ... : ... .. . ...
ROW 09 : ... .. . ... : ... .. . ... : ... .. . ... : ... .. . ... : ... .. . ... F7C : ... .. 7 ... : ... .. . ... ... : ... .. . ...
ROW 0A : ... .. . ... : ... .. . ... : ... .. . ... : ... .. . ... : ... .. . ... F96 : ... .. 6 ... : ... .. . ... ... : ... .. . ...
ROW 0B : ... .. . ... : ... .. . ... : ... .. . ... : ... .. . ... : ... .. . ... F7C : ... .. 5 ... : ... .. . ... ... : ... .. . ...
ROW 0C : ... .. . ... : ... .. . ... : ... .. . ... : ... .. . ... : ... .. . ... F96 : ... .. 4 ... : ... .. . ... ... : ... .. . ...
ROW 0D : ... .. . ... : ... .. . ... : ... .. . ... : ... .. . ... : ... .. . ... F7C : ... .. 3 ... : ... .. . ... ... : ... .. . ...
ROW 0E : ... .. . ... : ... .. . ... : ... .. . ... : ... .. . ... : ... .. . ... F96 : ... .. 2 ... : ... .. 7 ... ... : ... .. . ...
ROW 0F : ... .. . ... : ... .. . ... : ... .. . ... : ... .. . ... : ... .. . ... F7C : ... .. 1 ... : ... .. . ... ... : ... .. . ...
ROW 10 : ... .. . ... : ... .. . ... : ... .. . ... : ... .. . ... : ... .. . ... F96 : ... .. 0 ... : ... .. 6 ... ... : ... .. . ...
ROW 11 : ... .. . ... : ... .. . ... : ... .. . ... : ... .. . ... : ... .. . ... F7C : ... .. . ... : ... .. . ... ... : ... .. . ...
ROW 12 : ... .. . ... : ... .. . ... : ... .. . ... : ... .. . ... : ... .. . ... F96 : ... .. . ... : ... .. 5 ... ... : ... .. . ...
ROW 13 : ... .. . ... : ... .. . ... : ... .. . ... : ... .. . ... : ... .. . ... F7C : ... .. . ... : ... .. 4 ... ... : ... .. . ...
ROW 14 : ... .. . ... : ... .. . ... : ... .. . ... : ... .. . ... : ... .. . ... F96 : ... .. . ... : ... .. 3 ... ... : ... .. . ...
ROW 15 : ... .. . ... : ... .. . ... : ... .. . ... : ... .. . ... : ... .. . ... F7C : ... .. . ... : ... .. 2 ... ... : ... .. . ...
ROW 16 : ... .. . ... : ... .. . ... : ... .. . ... : ... .. . ... : ... .. . ... F96 : ... .. . ... : ... .. 1 ... ... : ... .. . ...
ROW 17 : ... .. . ... : ... .. . ... : ... .. . ... : ... .. . ... : ... .. . ... F7C : ... .. . ... : ... .. 0 ... ... : ... .. . ...
ROW 18 : ... .. . ... : ... .. . ... : ... .. . ... : ... .. . ... : ... .. . ... F96 : ... .. . ... : ... .. . ... ... : ... .. . ...
ROW 19 : ... .. . ... : ... .. . ... : ... .. . ... : ... .. . ... : ... .. . ... F7C : ... .. . ... : ... .. . ... ... : ... .. . ...
ROW 1A : ... .. . ... : ... .. . ... : ... .. . ... : ... .. . ... : ... .. . ... F96 : ... .. . ... : ... .. . ... ... : ... .. . ...
ROW 1B : ... .. . ... : ... .. . ... : ... .. . ... : ... .. . ... : ... .. . ... F7C : ... .. . ... : ... .. . ... ... : ... .. . ...
ROW 1C : ... .. . ... : ... .. . ... : ... .. . ... : 3-# 0B . ... : C-3 09 . ... F96 : ... .. . ... : ... .. . ... ... : ... .. . ...
ROW 1D : ... .. . ... : ... .. . ... : ... .. . ... : ... .. . ... : ... .. . ... F7C : ... .. . ... : ... .. . ... ... : ... .. . ...
ROW 1E : ... .. . ... : ... .. . ... : ... .. . ... : ... .. . ... : ... .. . ... F96 : ... .. . ... : ... .. . ... ... : ... .. . ...
ROW 1F : ... .. . ... : ... .. . ... : ... .. . ... : ... .. . ... : ... .. . ... F7C : ... .. . ... : ... .. . ... ... : ... .. . ...
ROW 20 : ... .. . ... : ... .. . ... : ... .. . ... : 3-# 0B . ... : C-3 09 . ... F96 : ... .. . ... : ... .. . ... ... : ... .. . ...
ROW 21 : ... .. . ... : ... .. . ... : ... .. . ... : ... .. . ... : ... .. . ... F7C : ... .. . ... : ... .. . ... ... : ... .. . ...
ROW 22 : ... .. . ... : ... .. . ... : ... .. . ... : ... .. . ... : ... .. . ... F96 : ... .. . ... : ... .. . ... ... : ... .. . ...
ROW 23 : ... .. . ... : ... .. . ... : ... .. . ... : ... .. . ... : ... .. . ... F7C : ... .. . ... : ... .. . ... ... : ... .. . ...
ROW 24 : ... .. . ... : ... .. . ... : ... .. . ... : ... .. . ... : ... .. . ... F96 : ... .. . ... : ... .. . ... ... : ... .. . ...
ROW 25 : ... .. . ... : ... .. . ... : ... .. . ... : ... .. . ... : ... .. . ... F7C : ... .. . ... : ... .. . ... ... : ... .. . ...
ROW 26 : ... .. . ... : ... .. . ... : ... .. . ... : ... .. . ... : ... .. . ... F96 : ... .. . ... : ... .. . ... ... : ... .. . ...
ROW 27 : ... .. . ... : ... .. . ... : ... .. . ... : ... .. . ... : ... .. . ... F7C : ... .. . ... : ... .. . ... ... : ... .. . ...
ROW 28 : ... .. . ... : ... .. . ... : ... .. . ... : ... .. . ... : ... .. . ... F96 : ... .. . ... : ... .. . ... ... : ... .. . ...
ROW 29 : ... .. . ... : ... .. . ... : ... .. . ... : ... .. . ... : ... .. . ... F7C : ... .. . ... : ... .. . ... ... : ... .. . ...
ROW 2A : ... .. . ... : ... .. . ... : ... .. . ... : ... .. . ... : ... .. . ... F96 : ... .. . ... : ... .. . ... ... : ... .. . ...
ROW 2B : ... .. . ... : ... .. . ... : ... .. . ... : ... .. . ... : ... .. . ... F7C : ... .. . ... : ... .. . ... ... : ... .. . ...
ROW 2C : ... .. . ... : ... .. . ... : ... .. . ... : ... .. . ... : ... .. . ... F96 : ... .. . ... : ... .. . ... ... : ... .. . ...
ROW 2D : ... .. . ... : ... .. . ... : ... .. . ... : ... .. . ... : ... .. . ... F7C : ... .. . ... : ... .. . ... ... : ... .. . ...
ROW 2E : ... .. . ... : ... .. . ... : ... .. . ... : ... .. . ... : ... .. . ... F96 : ... .. . ... : ... .. . ... ... : ... .. . ...
ROW 2F : ... .. . ... : ... .. . ... : ... .. . ... : ... .. . ... : ... .. . ... F7C : ... .. . ... : ... .. . ... ... : ... .. . ...
ROW 30 : ... .. . ... : ... .. . ... : ... .. . ... : B-# 0B . ... : D-3 09 . ... F96 : D-5 13 F ... : A-4 13 F ... P80 : ... .. . ...
ROW 31 : ... .. . ... : ... .. . ... : ... .. . ... : ... .. . ... : ... .. . ... F7C : ... .. D ... : ... .. D ... ... : ... .. . ...
ROW 32 : ... .. . ... : ... .. . ... : ... .. . ... : B-# 0B . ... : D-3 09 . ... F96 : ... .. 9 ... : ... .. 9 ... ... : ... .. . ...
ROW 33 : ... .. . ... : ... .. . ... : ... .. . ... : ... .. . ... : ... .. . ... F7C : ... .. 5 ... : ... .. 5 ... ... : ... .. . ...
ROW 34 : ... .. . ... : ... .. . ... : ... .. . ... : A-# 0B . ... : D#3 09 . ... F96 : D-5 13 F 462 : A-4 13 F 462 ... : ... .. . ...
ROW 35 : ... .. . ... : ... .. . ... : ... .. . ... : ... .. . ... : ... .. . ... F7C : ... .. . ... : ... .. . ... ... : ... .. . ...
ROW 36 : ... .. . ... : ... .. . ... : ... .. . ... : ... .. . ... : ... .. . ... F96 : ... .. . ... : ... .. . ... ... : ... .. . ...
ROW 37 : ... .. . ... : ... .. . ... : ... .. . ... : ... .. . ... : ... .. . ... F7C : ... .. . ... : ... .. . ... ... : ... .. . ...
ROW 38 : ... .. . ... : ... .. . ... : ... .. . ... : 9-# 0B . ... : E-3 09 . ... F96 : ... .. . ... : ... .. . ... ... : ... .. . ...
ROW 39 : ... .. . ... : ... .. . ... : ... .. . ... : ... .. . ... : ... .. . ... F7C : ... .. . ... : ... .. . ... ... : ... .. . ...
ROW 3A : ... .. . ... : ... .. . ... : ... .. . ... : ... .. . ... : ... .. . ... F96 : ... .. . ... : ... .. . ... ... : ... .. . ...
ROW 3B : ... .. . ... : ... .. . ... : ... .. . ... : ... .. . ... : ... .. . ... F7C : ... .. . ... : ... .. . ... ... : ... .. . ...
ROW 3C : ... .. . ... : ... .. . ... : ... .. . ... : 8-# 0A . ... : C#3 09 . ... F96 : ... .. . ... : ... .. . ... ... : ... .. . ...
ROW 3D : ... .. . ... : ... .. . ... : ... .. . ... : ... .. . ... : ... .. . ... F7C : ... .. . ... : ... .. . ... ... : ... .. . ...
ROW 3E : ... .. . ... : ... .. . ... : ... .. . ... : ... .. . ... : ... .. . ... F96 : ... .. . ... : ... .. . ... ... : ... .. . ...
ROW 3F : ... .. . ... : ... .. . ... : ... .. . ... : ... .. . ... : ... .. . ... F7C : ... .. . ... : ... .. . ... ... : ... .. . ...

PATTERN 2E
ROW 00 : ... .. . ... : ... .. . ... : ... .. . ... : 3-# 0B . ... : C-3 09 . ... F96 : ... .. . ... : ... .. . ... ... : ... .. . ...
ROW 01 : ... .. . ... : ... .. . ... : ... .. . ... : ... .. . ... : ... .. . ... F7C : ... .. . ... : ... .. . ... ... : ... .. . ...
ROW 02 : ... .. . ... : ... .. . ... : ... .. . ... : ... .. . ... : ... .. . ... F96 : ... .. . ... : ... .. . ... ... : ... .. . ...
ROW 03 : ... .. . ... : ... .. . ... : ... .. . ... : ... .. . ... : ... .. . ... F7C : ... .. . ... : ... .. . ... ... : ... .. . ...
ROW 04 : ... .. . ... : ... .. . ... : ... .. . ... : 3-# 0B . ... : C-3 09 . ... F96 : ... .. . ... : ... .. . ... ... : ... .. . ...
ROW 05 : ... .. . ... : ... .. . ... : ... .. . ... : ... .. . ... : ... .. . ... F7C : ... .. . ... : ... .. . ... ... : ... .. . ...
ROW 06 : ... .. . ... : ... .. . ... : ... .. . ... : ... .. . ... : ... .. . ... F96 : ... .. . ... : ... .. . ... ... : ... .. . ...
ROW 07 : ... .. . ... : ... .. . ... : ... .. . ... : ... .. . ... : ... .. . ... F7C : ... .. . ... : ... .. . ... ... : ... .. . ...
ROW 08 : ... .. . ... : ... .. . ... : ... .. . ... : ... .. . ... : ... .. . ... F96 : ... .. D ... : ... .. D ... ... : ... .. . ...
ROW 09 : ... .. . ... : ... .. . ... : ... .. . ... : ... .. . ... : ... .. . ... F7C : ... .. . ... : ... .. . ... ... : ... .. . ...
ROW 0A : ... .. . ... : ... .. . ... : ... .. . ... : ... .. . ... : ... .. . ... F96 : ... .. B ... : ... .. B ... ... : ... .. . ...
ROW 0B : ... .. . ... : ... .. . ... : ... .. . ... : ... .. . ... : ... .. . ... F7C : ... .. . ... : ... .. . ... ... : ... .. . ...
ROW 0C : ... .. . ... : ... .. . ... : ... .. . ... : ... .. . ... : ... .. . ... F96 : ... .. 9 ... : ... .. 9 ... ... : ... .. . ...
ROW 0D : ... .. . ... : ... .. . ... : ... .. . ... : ... .. . ... : ... .. . ... F7C : ... .. . ... : ... .. . ... ... : ... .. . ...
ROW 0E : ... .. . ... : ... .. . ... : ... .. . ... : ... .. . ... : ... .. . ... F96 : ... .. 7 ... : ... .. 7 ... ... : ... .. . ...
ROW 0F : ... .. . ... : ... .. . ... : ... .. . ... : ... .. . ... : ... .. . ... F7C : ... .. . ... : ... .. . ... ... : ... .. . ...
ROW 10 : ... .. . ... : ... .. . ... : ... .. . ... : ... .. . ... : ... .. . ... F96 : ... .. 6 ... : ... .. 6 ... ... : ... .. . ...
ROW 11 : ... .. . ... : ... .. . ... : ... .. . ... : ... .. . ... : ... .. . ... F7C : ... .. . ... : ... .. . ... ... : ... .. . ...
ROW 12 : ... .. . ... : ... .. . ... : ... .. . ... : ... .. . ... : ... .. . ... F96 : ... .. 5 ... : ... .. 5 ... ... : ... .. . ...
ROW 13 : ... .. . ... : ... .. . ... : ... .. . ... : ... .. . ... : ... .. . ... F7C : ... .. . ... : ... .. . ... ... : ... .. . ...
ROW 14 : ... .. . ... : ... .. . ... : ... .. . ... : ... .. . ... : ... .. . ... F96 : ... .. 4 ... : ... .. 4 ... ... : ... .. . ...
ROW 15 : ... .. . ... : ... .. . ... : ... .. . ... : ... .. . ... : ... .. . ... F7C : ... .. . ... : ... .. . ... ... : ... .. . ...
ROW 16 : ... .. . ... : ... .. . ... : ... .. . ... : ... .. . ... : ... .. . ... F96 : ... .. 3 ... : ... .. 3 ... ... : ... .. . ...
ROW 17 : ... .. . ... : ... .. . ... : ... .. . ... : ... .. . ... : ... .. . ... F7C : ... .. . ... : ... .. . ... ... : ... .. . ...
ROW 18 : ... .. . ... : ... .. . ... : ... .. . ... : ... .. . ... : ... .. . ... F96 : ... .. 2 ... : ... .. 2 ... ... : ... .. . ...
ROW 19 : ... .. . ... : ... .. . ... : ... .. . ... : ... .. . ... : ... .. . ... F7C : ... .. . ... : ... .. . ... ... : ... .. . ...
ROW 1A : ... .. . ... : ... .. . ... : ... .. . ... : ... .. . ... : ... .. . ... F96 : ... .. 1 ... : ... .. 1 ... ... : ... .. . ...
ROW 1B : ... .. . ... : ... .. . ... : ... .. . ... : ... .. . ... : ... .. . ... F7C : ... .. . ... : ... .. . ... ... : ... .. . ...
ROW 1C : ... .. . ... : ... .. . ... : ... .. . ... : 3-# 0B . ... : C-3 09 . ... F96 : ... .. 0 ... : ... .. 0 ... ... : ... .. . ...
ROW 1D : ... .. . ... : ... .. . ... : ... .. . ... : ... .. . ... : ... .. . ... F7C : ... .. . ... : ... .. . ... ... : ... .. . ...
ROW 1E : ... .. . ... : ... .. . ... : ... .. . ... : ... .. . ... : ... .. . ... F96 : ... .. . ... : ... .. . ... ... : ... .. . ...
ROW 1F : ... .. . ... : ... .. . ... : ... .. . ... : ... .. . ... : ... .. . ... F7C : ... .. . ... : ... .. . ... ... : ... .. . ...
ROW 20 : ... .. . ... : ... .. . ... : ... .. . ... : 3-# 0B . ... : C-3 09 . ... F96 : ... .. . ... : ... .. . ... ... : ... .. . ...
ROW 21 : ... .. . ... : ... .. . ... : ... .. . ... : ... .. . ... : ... .. . ... F7C : ... .. . ... : ... .. . ... ... : ... .. . ...
ROW 22 : ... .. . ... : ... .. . ... : ... .. . ... : ... .. . ... : ... .. . ... F96 : ... .. . ... : ... .. . ... ... : ... .. . ...
ROW 23 : ... .. . ... : ... .. . ... : ... .. . ... : ... .. . ... : ... .. . ... F7C : ... .. . ... : ... .. . ... ... : ... .. . ...
ROW 24 : ... .. . ... : ... .. . ... : ... .. . ... : ... .. . ... : ... .. . ... F96 : ... .. . ... : ... .. . ... ... : ... .. . ...
ROW 25 : ... .. . ... : ... .. . ... : ... .. . ... : ... .. . ... : ... .. . ... F7C : ... .. . ... : ... .. . ... ... : ... .. . ...
ROW 26 : ... .. . ... : ... .. . ... : ... .. . ... : ... .. . ... : ... .. . ... F96 : ... .. . ... : ... .. . ... ... : ... .. . ...
ROW 27 : ... .. . ... : ... .. . ... : ... .. . ... : ... .. . ... : ... .. . ... F7C : ... .. . ... : ... .. . ... ... : ... .. . ...
ROW 28 : ... .. . ... : ... .. . ... : ... .. . ... : ... .. . ... : ... .. . ... F96 : ... .. . ... : ... .. . ... ... : ... .. . ...
ROW 29 : ... .. . ... : ... .. . ... : ... .. . ... : ... .. . ... : ... .. . ... F7C : ... .. . ... : ... .. . ... ... : ... .. . ...
ROW 2A : ... .. . ... : ... .. . ... : ... .. . ... : ... .. . ... : ... .. . ... F96 : ... .. . ... : ... .. . ... ... : ... .. . ...
ROW 2B : ... .. . ... : ... .. . ... : ... .. . ... : ... .. . ... : ... .. . ... F7C : ... .. . ... : ... .. . ... ... : ... .. . ...
ROW 2C : ... .. . ... : ... .. . ... : ... .. . ... : ... .. . ... : ... .. . ... F96 : ... .. . ... : ... .. . ... ... : ... .. . ...
ROW 2D : ... .. . ... : ... .. . ... : ... .. . ... : ... .. . ... : ... .. . ... F7C : ... .. . ... : ... .. . ... ... : ... .. . ...
ROW 2E : ... .. . ... : ... .. . ... : ... .. . ... : ... .. . ... : ... .. . ... F96 : ... .. . ... : ... .. . ... ... : ... .. . ...
ROW 2F : ... .. . ... : ... .. . ... : ... .. . ... : ... .. . ... : ... .. . ... F7C : ... .. . ... : ... .. . ... ... : ... .. . ...
ROW 30 : ... .. . ... : ... .. . ... : ... .. . ... : B-# 0B . ... : D-3 09 . ... F96 : D-5 13 F 400 : A-4 13 F 400 ... : ... .. . ...
ROW 31 : ... .. . ... : ... .. . ... : ... .. . ... : ... .. . ... : ... .. . ... F7C : ... .. D ... : ... .. D ... ... : ... .. . ...
ROW 32 : ... .. . ... : ... .. . ... : ... .. . ... : B-# 0B . ... : D-3 09 . ... F96 : ... .. 9 ... : ... .. 9 ... ... : ... .. . ...
ROW 33 : ... .. . ... : ... .. . ... : ... .. . ... : ... .. . ... : ... .. . ... F7C : ... .. 5 ... : ... .. 5 ... ... : ... .. . ...
ROW 34 : ... .. . ... : ... .. . ... : ... .. . ... : A-# 0B . ... : D#3 09 . ... F96 : D-5 13 F 462 : A-4 13 F 462 ... : ... .. . ...
ROW 35 : ... .. . ... : ... .. . ... : ... .. . ... : ... .. . ... : ... .. . ... F7C : ... .. . ... : ... .. . ... ... : ... .. . ...
ROW 36 : ... .. . ... : ... .. . ... : ... .. . ... : ... .. . ... : ... .. . ... F96 : ... .. . ... : ... .. . ... ... : ... .. . ...
ROW 37 : ... .. . ... : ... .. . ... : ... .. . ... : ... .. . ... : ... .. . ... F7C : ... .. . ... : ... .. . ... ... : ... .. . ...
ROW 38 : ... .. . ... : ... .. . ... : ... .. . ... : 9-# 0B . ... : E-3 09 . ... F96 : ... .. . ... : ... .. . ... ... : ... .. . ...
ROW 39 : ... .. . ... : ... .. . ... : ... .. . ... : ... .. . ... : ... .. . ... F7C : ... .. . ... : ... .. . ... ... : ... .. . ...
ROW 3A : ... .. . ... : ... .. . ... : ... .. . ... : ... .. . ... : ... .. . ... F96 : ... .. . ... : ... .. . ... ... : ... .. . ...
ROW 3B : ... .. . ... : ... .. . ... : ... .. . ... : ... .. . ... : ... .. . ... F7C : ... .. . ... : ... .. . ... ... : ... .. . ...
ROW 3C : ... .. . ... : ... .. . ... : ... .. . ... : 8-# 0A . ... : C#3 09 . ... F96 : ... .. . ... : ... .. . ... ... : ... .. . ...
ROW 3D : ... .. . ... : ... .. . ... : ... .. . ... : ... .. . ... : ... .. . ... F7C : ... .. . ... : ... .. . ... ... : ... .. . ...
ROW 3E : ... .. . ... : ... .. . ... : ... .. . ... : ... .. . ... : ... .. . ... F96 : ... .. . ... : ... .. . ... ... : ... .. . ...
ROW 3F : ... .. . ... : ... .. . ... : ... .. . ... : ... .. . ... : ... .. . ... F7C : ... .. . ... : ... .. . ... ... : ... .. . ...

PATTERN 2F
ROW 00 : D-2 14 . ... : A-1 14 . ... : D-3 0D . ... : ... .. . ... : ... .. . Z00 F96 : ... .. . ... : ... .. . ... ... : D-1 0E . ...
ROW 01 : ... .. . ... : ... .. . ... : ... .. . ... : ... .. . ... : ... .. . ... F7C : ... .. . ... : ... .. . ... ... : ... .. . ...
ROW 02 : ... .. . ... : ... .. . ... : ... .. . ... : ... .. . ... : ... .. . ... F96 : ... .. . ... : ... .. . ... ... : ... .. . ...
ROW 03 : ... .. . ... : ... .. . ... : ... .. . ... : ... .. . ... : ... .. . ... F7C : ... .. . ... : ... .. . ... ... : ... .. . ...
ROW 04 : D-2 14 . ... : A-1 14 . ... : D-3 0D . ... : ... .. . ... : ... .. . ... F96 : ... .. . ... : ... .. . ... ... : D-1 0E . ...
ROW 05 : ... .. . ... : ... .. . ... : ... .. . ... : ... .. . ... : ... .. . ... F7C : ... .. . ... : ... .. . ... ... : ... .. . ...
ROW 06 : ... .. . ... : ... .. . ... : ... .. . ... : ... .. . ... : ... .. . ... F96 : ... .. . ... : ... .. . ... ... : ... .. . ...
ROW 07 : ... .. . ... : ... .. . ... : ... .. . ... : ... .. . ... : ... .. . ... F7C : ... .. . ... : ... .. . ... ... : ... .. . ...
ROW 08 : A-2 14 . ... : E-2 14 . ... : D-3 0D . ... : ... .. . ... : ... .. . ... F96 : ... .. . ... : ... .. . ... ... : D-1 0E . ...
ROW 09 : ... .. . ... : ... .. . ... : ... .. . ... : ... .. . ... : ... .. . ... F7C : ... .. . ... : ... .. . ... ... : ... .. . ...
ROW 0A : ... .. . ... : ... .. . ... : ... .. . ... : ... .. . ... : ... .. . ... F96 : ... .. . ... : ... .. . ... ... : ... .. . ...
ROW 0B : ... .. . ... : ... .. . ... : ... .. . ... : ... .. . ... : ... .. . ... F7C : ... .. . ... : ... .. . ... ... : ... .. . ...
ROW 0C : D-2 14 . ... : A-1 14 . ... : D-3 0D . ... : ... .. . ... : ... .. . ... F96 : ... .. . ... : ... .. . ... ... : D-1 0E . ...
ROW 0D : ... .. . ... : ... .. . ... : ... .. . ... : ... .. . ... : ... .. . ... F7C : ... .. . ... : ... .. . ... ... : ... .. . ...
ROW 0E : ... .. . ... : ... .. . ... : ... .. . ... : ... .. . ... : ... .. . ... F96 : ... .. . ... : ... .. . ... ... : ... .. . ...
ROW 0F : ... .. . ... : ... .. . ... : ... .. . ... : ... .. . ... : ... .. . ... F7C : ... .. . ... : ... .. . ... ... : ... .. . ...
ROW 10 : D-2 14 . ... : A-1 14 . ... : D-3 0D . ... : ... .. . ... : ... .. . ... F96 : ... .. . ... : ... .. . ... ... : D-1 0E . ...
ROW 11 : ... .. . ... : ... .. . ... : ... .. . ... : ... .. . ... : ... .. . ... F7C : ... .. . ... : ... .. . ... ... : ... .. . ...
ROW 12 : ... .. . ... : ... .. . ... : ... .. . ... : ... .. . ... : ... .. . ... F96 : ... .. . ... : ... .. . ... ... : ... .. . ...
ROW 13 : ... .. . ... : ... .. . ... : ... .. . ... : ... .. . ... : ... .. . ... F7C : ... .. . ... : ... .. . ... ... : ... .. . ...
ROW 14 : A#2 14 . ... : F-2 14 . ... : D-3 0D . ... : ... .. . ... : ... .. . ... F96 : ... .. . ... : ... .. . ... ... : D-1 0E . ...
ROW 15 : ... .. . ... : ... .. . ... : ... .. . ... : ... .. . ... : ... .. . ... F7C : ... .. . ... : ... .. . ... ... : ... .. . ...
ROW 16 : ... .. . ... : ... .. . ... : ... .. . ... : ... .. . ... : ... .. . ... F96 : ... .. . ... : ... .. . ... ... : ... .. . ...
ROW 17 : ... .. . ... : ... .. . ... : ... .. . ... : ... .. . ... : ... .. . ... F7C : ... .. . ... : ... .. . ... ... : ... .. . ...
ROW 18 : D-2 14 . ... : A-1 14 . ... : D-3 0D . ... : ... .. . ... : ... .. . ... F96 : ... .. . ... : ... .. . ... ... : D-1 0E . ...
ROW 19 : ... .. . ... : ... .. . ... : ... .. . ... : ... .. . ... : ... .. . ... F7C : ... .. . ... : ... .. . ... ... : ... .. . ...
ROW 1A : ... .. . ... : ... .. . ... : ... .. . ... : ... .. . ... : ... .. . ... F96 : ... .. . ... : ... .. . ... ... : ... .. . ...
ROW 1B : ... .. . ... : ... .. . ... : ... .. . ... : ... .. . ... : ... .. . ... F7C : ... .. . ... : ... .. . ... ... : ... .. . ...
ROW 1C : D-2 14 . ... : A-1 14 . ... : D-3 0D . ... : ... .. . ... : ... .. . ... F96 : ... .. . ... : ... .. . ... ... : D-1 0E . ...
ROW 1D : ... .. . ... : ... .. . ... : ... .. . ... : ... .. . ... : ... .. . ... F7C : ... .. . ... : ... .. . ... ... : ... .. . ...
ROW 1E : ... .. . ... : ... .. . ... : ... .. . ... : ... .. . ... : ... .. . ... F96 : ... .. . ... : ... .. . ... ... : ... .. . ...
ROW 1F : ... .. . ... : ... .. . ... : ... .. . ... : ... .. . ... : ... .. . ... F7C : ... .. . ... : ... .. . ... ... : ... .. . ...
ROW 20 : C-3 14 . ... : G-2 14 . ... : D-3 0D . ... : ... .. . ... : ... .. . ... F96 : ... .. . ... : ... .. . ... ... : D-1 0E . ...
ROW 21 : ... .. . ... : ... .. . ... : ... .. . ... : ... .. . ... : ... .. . ... F7C : ... .. . ... : ... .. . ... ... : ... .. . ...
ROW 22 : ... .. . ... : ... .. . ... : ... .. . ... : ... .. . ... : ... .. . ... F96 : ... .. . ... : ... .. . ... ... : ... .. . ...
ROW 23 : ... .. . ... : ... .. . ... : ... .. . ... : ... .. . ... : ... .. . ... F7C : ... .. . ... : ... .. . ... ... : ... .. . ...
ROW 24 : D-2 14 . ... : A-1 14 . ... : D-3 0D . ... : ... .. . ... : ... .. . ... F96 : ... .. . ... : ... .. . ... ... : D-1 0E . ...
ROW 25 : ... .. . ... : ... .. . ... : ... .. . ... : ... .. . ... : ... .. . ... F7C : ... .. . ... : ... .. . ... ... : ... .. . ...
ROW 26 : ... .. . ... : ... .. . ... : ... .. . ... : ... .. . ... : ... .. . ... F96 : ... .. . ... : ... .. . ... ... : ... .. . ...
ROW 27 : ... .. . ... : ... .. . ... : ... .. . ... : ... .. . ... : ... .. . ... F7C : ... .. . ... : ... .. . ... ... : ... .. . ...
ROW 28 : D-2 14 . ... : A-1 14 . ... : D-3 0D . ... : ... .. . ... : ... .. . ... F96 : ... .. . ... : ... .. . ... ... : D-1 0E . ...
ROW 29 : ... .. . ... : ... .. . ... : ... .. . ... : ... .. . ... : ... .. . ... F7C : ... .. . ... : ... .. . ... ... : ... .. . ...
ROW 2A : ... .. . ... : ... .. . ... : ... .. . ... : ... .. . ... : ... .. . ... F96 : ... .. . ... : ... .. . ... ... : ... .. . ...
ROW 2B : ... .. . ... : ... .. . ... : ... .. . ... : ... .. . ... : ... .. . ... F7C : ... .. . ... : ... .. . ... ... : ... .. . ...
ROW 2C : A#2 14 . ... : F-2 14 . ... : D-3 0D . ... : ... .. . ... : ... .. . ... F96 : ... .. . ... : ... .. . ... ... : D-1 0E . ...
ROW 2D : ... .. . ... : ... .. . ... : ... .. . ... : ... .. . ... : ... .. . ... F7C : ... .. . ... : ... .. . ... ... : ... .. . ...
ROW 2E : ... .. . ... : ... .. . ... : ... .. . ... : ... .. . ... : ... .. . ... F96 : ... .. . ... : ... .. . ... ... : ... .. . ...
ROW 2F : ... .. . ... : ... .. . ... : ... .. . ... : ... .. . ... : ... .. . ... F7C : ... .. . ... : ... .. . ... ... : ... .. . ...
ROW 30 : D-2 14 . ... : A-1 14 . ... : D-3 0D . ... : ... .. . ... : ... .. . ... F96 : ... .. . ... : ... .. . ... ... : D-1 0E . ...
ROW 31 : ... .. . ... : ... .. . ... : ... .. . ... : ... .. . ... : ... .. . ... F7C : ... .. . ... : ... .. . ... ... : ... .. . ...
ROW 32 : ... .. . ... : ... .. . ... : ... .. . ... : ... .. . ... : ... .. . ... F96 : ... .. . ... : ... .. . ... ... : ... .. . ...
ROW 33 : ... .. . ... : ... .. . ... : ... .. . ... : ... .. . ... : ... .. . ... F7C : ... .. . ... : ... .. . ... ... : ... .. . ...
ROW 34 : D-2 14 . ... : A-1 14 . ... : D-3 0D . ... : ... .. . ... : ... .. . ... F96 : ... .. . ... : ... .. . ... ... : D-1 0E . ...
ROW 35 : ... .. . ... : ... .. . ... : ... .. . ... : ... .. . ... : ... .. . ... F7C : ... .. . ... : ... .. . ... ... : ... .. . ...
ROW 36 : ... .. . ... : ... .. . ... : ... .. . ... : ... .. . ... : ... .. . ... F96 : ... .. . ... : ... .. . ... ... : ... .. . ...
ROW 37 : ... .. . ... : ... .. . ... : ... .. . ... : ... .. . ... : ... .. . ... F7C : ... .. . ... : ... .. . ... ... : ... .. . ...
ROW 38 : D-2 14 . ... : G-2 14 . ... : D-3 0D . ... : 9-# 0B . ... : E-3 09 . ... F96 : ... .. . ... : ... .. . ... ... : D-1 0E . ...
ROW 39 : ... .. . ... : ... .. . ... : ... .. . ... : ... .. . ... : ... .. . ... F7C : ... .. . ... : ... .. . ... ... : ... .. . ...
ROW 3A : ... .. . ... : ... .. . ... : ... .. . ... : ... .. . ... : ... .. . ... F96 : ... .. . ... : ... .. . ... ... : ... .. . ...
ROW 3B : ... .. . ... : ... .. . ... : ... .. . ... : ... .. . ... : ... .. . ... F7C : ... .. . ... : ... .. . ... ... : ... .. . ...
ROW 3C : D-2 14 . ... : G-2 14 . ... : D-3 0D . ... : 9-# 0B . ... : E-3 09 . ... F96 : ... .. . ... : ... .. . ... ... : D-1 0E . ...
ROW 3D : ... .. . ... : ... .. . ... : ... .. . ... : ... .. . ... : ... .. . ... F7C : ... .. . ... : ... .. . ... ... : ... .. . ...
ROW 3E : ... .. . ... : ... .. . ... : ... .. . ... : ... .. . ... : ... .. . ... F96 : ... .. . ... : ... .. . ... ... : ... .. . ...
ROW 3F : ... .. . ... : ... .. . ... : ... .. . ... : ... .. . ... : ... .. . ... F7C : ... .. . ... : ... .. . ... ... : ... .. . ...

PATTERN 30
ROW 00 : D-2 14 . ... : A-1 14 . ... : D-3 0D . ... : ... .. . ... : ... .. . ... F96 : ... .. . ... : ... .. . ... ... : D-1 0E . ...
ROW 01 : ... .. . ... : ... .. . ... : ... .. . ... : ... .. . ... : ... .. . ... F7C : ... .. . ... : ... .. . ... ... : ... .. . ...
ROW 02 : ... .. . ... : ... .. . ... : ... .. . ... : ... .. . ... : ... .. . ... F96 : ... .. . ... : ... .. . ... ... : ... .. . ...
ROW 03 : ... .. . ... : ... .. . ... : ... .. . ... : ... .. . ... : ... .. . ... F7C : ... .. . ... : ... .. . ... ... : ... .. . ...
ROW 04 : D-2 14 . ... : A-1 14 . ... : D-3 0D . ... : ... .. . ... : ... .. . ... F96 : ... .. . ... : ... .. . ... ... : D-1 0E . ...
ROW 05 : ... .. . ... : ... .. . ... : ... .. . ... : ... .. . ... : ... .. . ... F7C : ... .. . ... : ... .. . ... ... : ... .. . ...
ROW 06 : ... .. . ... : ... .. . ... : ... .. . ... : ... .. . ... : ... .. . ... F96 : ... .. . ... : ... .. . ... ... : ... .. . ...
ROW 07 : ... .. . ... : ... .. . ... : ... .. . ... : ... .. . ... : ... .. . ... F7C : ... .. . ... : ... .. . ... ... : ... .. . ...
ROW 08 : A-2 14 . ... : E-2 14 . ... : D-3 0D . ... : ... .. . ... : ... .. . ... F96 : ... .. . ... : ... .. . ... ... : D-1 0E . ...
ROW 09 : ... .. . ... : ... .. . ... : ... .. . ... : ... .. . ... : ... .. . ... F7C : ... .. . ... : ... .. . ... ... : ... .. . ...
ROW 0A : ... .. . ... : ... .. . ... : ... .. . ... : ... .. . ... : ... .. . ... F96 : ... .. . ... : ... .. . ... ... : ... .. . ...
ROW 0B : ... .. . ... : ... .. . ... : ... .. . ... : ... .. . ... : ... .. . ... F7C : ... .. . ... : ... .. . ... ... : ... .. . ...
ROW 0C : D-2 14 . ... : A-1 14 . ... : D-3 0D . ... : ... .. . ... : ... .. . ... F96 : ... .. . ... : ... .. . ... ... : D-1 0E . ...
ROW 0D : ... .. . ... : ... .. . ... : ... .. . ... : ... .. . ... : ... .. . ... F7C : ... .. . ... : ... .. . ... ... : ... .. . ...
ROW 0E : ... .. . ... : ... .. . ... : ... .. . ... : ... .. . ... : ... .. . ... F96 : ... .. . ... : ... .. . ... ... : ... .. . ...
ROW 0F : ... .. . ... : ... .. . ... : ... .. . ... : ... .. . ... : ... .. . ... F7C : ... .. . ... : ... .. . ... ... : ... .. . ...
ROW 10 : D-2 14 . ... : A-1 14 . ... : D-3 0D . ... : ... .. . ... : ... .. . ... F96 : ... .. D ... : ... .. D ... ... : D-1 0E . ...
ROW 11 : ... .. . ... : ... .. . ... : ... .. . ... : ... .. . ... : ... .. . ... F7C : ... .. . ... : ... .. . ... ... : ... .. . ...
ROW 12 : ... .. . ... : ... .. . ... : ... .. . ... : ... .. . ... : ... .. . ... F96 : ... .. . ... : ... .. . ... ... : ... .. . ...
ROW 13 : ... .. . ... : ... .. . ... : ... .. . ... : ... .. . ... : ... .. . ... F7C : ... .. . ... : ... .. . ... ... : ... .. . ...
ROW 14 : A#2 14 . ... : F-2 14 . ... : D-3 0D . ... : ... .. . ... : ... .. . ... F96 : ... .. . ... : ... .. . ... ... : D-1 0E . ...
ROW 15 : ... .. . ... : ... .. . ... : ... .. . ... : ... .. . ... : ... .. . ... F7C : ... .. . ... : ... .. . ... ... : ... .. . ...
ROW 16 : ... .. . ... : ... .. . ... : ... .. . ... : ... .. . ... : ... .. . ... F96 : ... .. . ... : ... .. . ... ... : ... .. . ...
ROW 17 : ... .. . ... : ... .. . ... : ... .. . ... : ... .. . ... : ... .. . ... F7C : ... .. . ... : ... .. . ... ... : ... .. . ...
ROW 18 : D-2 14 . ... : A-1 14 . ... : D-3 0D . ... : ... .. . ... : ... .. . ... F96 : ... .. . ... : ... .. . ... ... : D-1 0E . ...
ROW 19 : ... .. . ... : ... .. . ... : ... .. . ... : ... .. . ... : ... .. . ... F7C : ... .. . ... : ... .. . ... ... : ... .. . ...
ROW 1A : ... .. . ... : ... .. . ... : ... .. . ... : ... .. . ... : ... .. . ... F96 : ... .. . ... : ... .. . ... ... : ... .. . ...
ROW 1B : ... .. . ... : ... .. . ... : ... .. . ... : ... .. . ... : ... .. . ... F7C : ... .. . ... : ... .. . ... ... : ... .. . ...
ROW 1C : D-2 14 . ... : A-1 14 . ... : D-3 0D . ... : ... .. . ... : ... .. . ... F96 : ... .. B ... : ... .. B ... ... : D-1 0E . ...
ROW 1D : ... .. . ... : ... .. . ... : ... .. . ... : ... .. . ... : ... .. . ... F7C : ... .. . ... : ... .. . ... ... : ... .. . ...
ROW 1E : ... .. . ... : ... .. . ... : ... .. . ... : ... .. . ... : ... .. . ... F96 : ... .. . ... : ... .. . ... ... : ... .. . ...
ROW 1F : ... .. . ... : ... .. . ... : ... .. . ... : ... .. . ... : ... .. . ... F7C : ... .. . ... : ... .. . ... ... : ... .. . ...
ROW 20 : C-3 14 . ... : G-2 14 . ... : D-3 0D . ... : ... .. . ... : ... .. . ... F96 : ... .. . ... : ... .. . ... ... : D-1 0E . ...
ROW 21 : ... .. . ... : ... .. . ... : ... .. . ... : ... .. . ... : ... .. . ... F7C : ... .. . ... : ... .. . ... ... : ... .. . ...
ROW 22 : ... .. . ... : ... .. . ... : ... .. . ... : ... .. . ... : ... .. . ... F96 : ... .. . ... : ... .. . ... ... : ... .. . ...
ROW 23 : ... .. . ... : ... .. . ... : ... .. . ... : ... .. . ... : ... .. . ... F7C : ... .. . ... : ... .. . ... ... : ... .. . ...
ROW 24 : D-2 14 . ... : A-1 14 . ... : D-3 0D . ... : ... .. . ... : ... .. . ... F96 : ... .. 9 ... : ... .. 9 ... ... : D-1 0E . ...
ROW 25 : ... .. . ... : ... .. . ... : ... .. . ... : ... .. . ... : ... .. . ... F7C : ... .. . ... : ... .. . ... ... : ... .. . ...
ROW 26 : ... .. . ... : ... .. . ... : ... .. . ... : ... .. . ... : ... .. . ... F96 : ... .. . ... : ... .. . ... ... : ... .. . ...
ROW 27 : ... .. . ... : ... .. . ... : ... .. . ... : ... .. . ... : ... .. . ... F7C : ... .. . ... : ... .. . ... ... : ... .. . ...
ROW 28 : D-2 14 . ... : A-1 14 . ... : D-3 0D . ... : ... .. . ... : ... .. . ... F96 : ... .. 7 ... : ... .. 7 ... ... : D-1 0E . ...
ROW 29 : ... .. . ... : ... .. . ... : ... .. . ... : ... .. . ... : ... .. . ... F7C : ... .. . ... : ... .. . ... ... : ... .. . ...
ROW 2A : ... .. . ... : ... .. . ... : ... .. . ... : ... .. . ... : ... .. . ... F96 : ... .. . ... : ... .. . ... ... : ... .. . ...
ROW 2B : ... .. . ... : ... .. . ... : ... .. . ... : ... .. . ... : ... .. . ... F7C : ... .. . ... : ... .. . ... ... : ... .. . ...
ROW 2C : A#2 14 . ... : F-2 14 . ... : D-3 0D . ... : ... .. . ... : ... .. . ... F96 : ... .. 6 ... : ... .. 6 ... ... : D-1 0E . ...
ROW 2D : ... .. . ... : ... .. . ... : ... .. . ... : ... .. . ... : ... .. . ... F7C : ... .. . ... : ... .. . ... ... : ... .. . ...
ROW 2E : ... .. . ... : ... .. . ... : ... .. . ... : ... .. . ... : ... .. . ... F96 : ... .. 5 ... : ... .. 5 ... ... : ... .. . ...
ROW 2F : ... .. . ... : ... .. . ... : ... .. . ... : ... .. . ... : ... .. . ... F7C : ... .. . ... : ... .. . ... ... : ... .. . ...
ROW 30 : D-2 14 . ... : A-1 14 . ... : D-3 0D . ... : ... .. . ... : ... .. . ... F96 : ... .. 4 ... : ... .. 4 ... ... : D-1 0E . ...
ROW 31 : ... .. . ... : ... .. . ... : ... .. . ... : ... .. . ... : ... .. . ... F7C : ... .. . ... : ... .. . ... ... : ... .. . ...
ROW 32 : ... .. . ... : ... .. . ... : ... .. . ... : ... .. . ... : ... .. . ... F96 : ... .. 3 ... : ... .. 3 ... ... : ... .. . ...
ROW 33 : ... .. . ... : ... .. . ... : ... .. . ... : ... .. . ... : ... .. . ... F7C : ... .. . ... : ... .. . ... ... : ... .. . ...
ROW 34 : D-2 14 . ... : A-1 14 . ... : D-3 0D . ... : ... .. . ... : ... .. . ... F96 : ... .. 2 ... : ... .. 2 ... ... : D-1 0E . ...
ROW 35 : ... .. . ... : ... .. . ... : ... .. . ... : ... .. . ... : ... .. . ... F7C : ... .. . ... : ... .. . ... ... : ... .. . ...
ROW 36 : ... .. . ... : ... .. . ... : ... .. . ... : ... .. . ... : ... .. . ... F96 : ... .. 1 ... : ... .. 1 ... ... : ... .. . ...
ROW 37 : ... .. . ... : ... .. . ... : ... .. . ... : ... .. . ... : ... .. . ... F7C : ... .. . ... : ... .. . ... ... : ... .. . ...
ROW 38 : D-3 14 . ... : G-2 14 . ... : D-3 0D . ... : 9-# 0B . ... : E-3 09 . ... F96 : ... .. 0 ... : ... .. 0 ... ... : D-1 0E . ...
ROW 39 : ... .. . ... : ... .. . ... : ... .. . ... : ... .. . ... : ... .. . ... F7C : ... .. . ... : ... .. . ... ... : ... .. . ...
ROW 3A : ... .. . ... : ... .. . ... : ... .. . ... : ... .. . ... : ... .. . ... F96 : ... .. . ... : ... .. . ... ... : ... .. . ...
ROW 3B : ... .. . ... : ... .. . ... : ... .. . ... : ... .. . ... : ... .. . ... F7C : ... .. . ... : ... .. . ... ... : ... .. . ...
ROW 3C : C-3 14 . ... : G-2 14 . ... : D-3 0D . ... : 9-# 0B . ... : E-3 09 . ... F96 : ... .. . ... : ... .. . ... ... : D-1 0E . ...
ROW 3D : ... .. . ... : ... .. . ... : ... .. . ... : ... .. . ... : ... .. . ... F7C : ... .. . ... : ... .. . ... ... : ... .. . ...
ROW 3E : ... .. . ... : ... .. . ... : ... .. . ... : ... .. . ... : ... .. . ... F96 : ... .. . ... : ... .. . ... ... : ... .. . ...
ROW 3F : ... .. . ... : ... .. . ... : ... .. . ... : ... .. . ... : ... .. . ... F7C : ... .. . ... : ... .. . ... ... : ... .. . ...

PATTERN 31
ROW 00 : D-2 14 . ... : A-1 14 . ... : D-3 0D . ... : ... .. . ... : ... .. . ... F96 : ... .. . ... : ... .. . ... ... : D-1 0E . ...
ROW 01 : ... .. . ... : ... .. . ... : ... .. . ... : ... .. . ... : ... .. . ... F7C : ... .. . ... : ... .. . ... ... : ... .. . ...
ROW 02 : ... .. . ... : ... .. . ... : ... .. . ... : ... .. . ... : ... .. . ... F96 : ... .. . ... : ... .. . ... ... : ... .. . ...
ROW 03 : ... .. . ... : ... .. . ... : ... .. . ... : ... .. . ... : ... .. . ... F7C : ... .. . ... : ... .. . ... ... : ... .. . ...
ROW 04 : D-2 14 . ... : A-1 14 . ... : D-3 0D . ... : ... .. . ... : ... .. . ... F96 : ... .. . ... : ... .. . ... ... : D-1 0E . ...
ROW 05 : ... .. . ... : ... .. . ... : ... .. . ... : ... .. . ... : ... .. . ... F7C : ... .. . ... : ... .. . ... ... : ... .. . ...
ROW 06 : ... .. . ... : ... .. . ... : ... .. . ... : ... .. . ... : ... .. . ... F96 : ... .. . ... : ... .. . ... ... : ... .. . ...
ROW 07 : ... .. . ... : ... .. . ... : ... .. . ... : ... .. . ... : ... .. . ... F7C : ... .. . ... : ... .. . ... ... : ... .. . ...
ROW 08 : A-2 14 . ... : E-2 14 . ... : D-3 0D . ... : ... .. . ... : ... .. . ... F96 : ... .. . ... : ... .. . ... ... : D-1 0E . ...
ROW 09 : ... .. . ... : ... .. . ... : ... .. . ... : ... .. . ... : ... .. . ... F7C : ... .. . ... : ... .. . ... ... : ... .. . ...
ROW 0A : ... .. . ... : ... .. . ... : ... .. . ... : ... .. . ... : ... .. . ... F96 : ... .. . ... : ... .. . ... ... : ... .. . ...
ROW 0B : ... .. . ... : ... .. . ... : ... .. . ... : ... .. . ... : ... .. . ... F7C : ... .. . ... : ... .. . ... ... : ... .. . ...
ROW 0C : D-2 14 . ... : A-1 14 . ... : D-3 0D . ... : ... .. . ... : ... .. . ... F96 : ... .. . ... : ... .. . ... ... : D-1 0E . ...
ROW 0D : ... .. . ... : ... .. . ... : ... .. . ... : ... .. . ... : ... .. . ... F7C : ... .. . ... : ... .. . ... ... : ... .. . ...
ROW 0E : ... .. . ... : ... .. . ... : ... .. . ... : ... .. . ... : ... .. . ... F96 : ... .. . ... : ... .. . ... ... : ... .. . ...
ROW 0F : ... .. . ... : ... .. . ... : ... .. . ... : ... .. . ... : ... .. . ... F7C : ... .. . ... : ... .. . ... ... : ... .. . ...
ROW 10 : D-2 14 . ... : A-1 14 . ... : D-3 0D . ... : ... .. . ... : ... .. . ... F96 : ... .. . ... : ... .. . ... ... : D-1 0E . ...
ROW 11 : ... .. . ... : ... .. . ... : ... .. . ... : ... .. . ... : ... .. . ... F7C : ... .. . ... : ... .. . ... ... : ... .. . ...
ROW 12 : ... .. . ... : ... .. . ... : ... .. . ... : ... .. . ... : ... .. . ... F96 : ... .. . ... : ... .. . ... ... : ... .. . ...
ROW 13 : ... .. . ... : ... .. . ... : ... .. . ... : ... .. . ... : ... .. . ... F7C : ... .. . ... : ... .. . ... ... : ... .. . ...
ROW 14 : A#2 14 . ... : F-2 14 . ... : D-3 0D . ... : ... .. . ... : ... .. . ... F96 : ... .. . ... : ... .. . ... ... : D-1 0E . ...
ROW 15 : ... .. . ... : ... .. . ... : ... .. . ... : ... .. . ... : ... .. . ... F7C : ... .. . ... : ... .. . ... ... : ... .. . ...
ROW 16 : ... .. . ... : ... .. . ... : ... .. . ... : ... .. . ... : ... .. . ... F96 : ... .. . ... : ... .. . ... ... : ... .. . ...
ROW 17 : ... .. . ... : ... .. . ... : ... .. . ... : ... .. . ... : ... .. . ... F7C : ... .. . ... : ... .. . ... ... : ... .. . ...
ROW 18 : D-2 14 . ... : A-1 14 . ... : D-3 0D . ... : ... .. . ... : ... .. . ... F96 : ... .. . ... : ... .. . ... ... : D-1 0E . ...
ROW 19 : ... .. . ... : ... .. . ... : ... .. . ... : ... .. . ... : ... .. . ... F7C : ... .. . ... : ... .. . ... ... : ... .. . ...
ROW 1A : ... .. . ... : ... .. . ... : ... .. . ... : ... .. . ... : ... .. . ... F96 : ... .. . ... : ... .. . ... ... : ... .. . ...
ROW 1B : ... .. . ... : ... .. . ... : ... .. . ... : ... .. . ... : ... .. . ... F7C : ... .. . ... : ... .. . ... ... : ... .. . ...
ROW 1C : D-2 14 . ... : A-1 14 . ... : D-3 0D . ... : ... .. . ... : ... .. . ... F96 : ... .. . ... : ... .. . ... ... : D-1 0E . ...
ROW 1D : ... .. . ... : ... .. . ... : ... .. . ... : ... .. . ... : ... .. . ... F7C : ... .. . ... : ... .. . ... ... : ... .. . ...
ROW 1E : ... .. . ... : ... .. . ... : ... .. . ... : ... .. . ... : ... .. . ... F96 : ... .. . ... : ... .. . ... ... : ... .. . ...
ROW 1F : ... .. . ... : ... .. . ... : ... .. . ... : ... .. . ... : ... .. . ... F7C : ... .. . ... : ... .. . ... ... : ... .. . ...
ROW 20 : C-3 14 . ... : G-2 14 . ... : D-3 0D . ... : ... .. . ... : ... .. . ... F96 : ... .. . ... : ... .. . ... ... : D-1 0E . ...
ROW 21 : ... .. . ... : ... .. . ... : ... .. . ... : ... .. . ... : ... .. . ... F7C : ... .. . ... : ... .. . ... ... : ... .. . ...
ROW 22 : ... .. . ... : ... .. . ... : ... .. . ... : ... .. . ... : ... .. . ... F96 : ... .. . ... : ... .. . ... ... : ... .. . ...
ROW 23 : ... .. . ... : ... .. . ... : ... .. . ... : ... .. . ... : ... .. . ... F7C : ... .. . ... : ... .. . ... ... : ... .. . ...
ROW 24 : D-2 14 . ... : A-1 14 . ... : D-3 0D . ... : ... .. . ... : ... .. . ... F96 : ... .. . ... : ... .. . ... ... : D-1 0E . ...
ROW 25 : ... .. . ... : ... .. . ... : ... .. . ... : ... .. . ... : ... .. . ... F7C : ... .. . ... : ... .. . ... ... : ... .. . ...
ROW 26 : ... .. . ... : ... .. . ... : ... .. . ... : ... .. . ... : ... .. . ... F96 : ... .. . ... : ... .. . ... ... : ... .. . ...
ROW 27 : ... .. . ... : ... .. . ... : ... .. . ... : ... .. . ... : ... .. . ... F7C : ... .. . ... : ... .. . ... ... : ... .. . ...
ROW 28 : D-2 14 . ... : A-1 14 . ... : D-3 0D . ... : ... .. . ... : ... .. . ... F96 : ... .. . ... : ... .. . ... ... : D-1 0E . ...
ROW 29 : ... .. . ... : ... .. . ... : ... .. . ... : ... .. . ... : ... .. . ... F7C : ... .. . ... : ... .. . ... ... : ... .. . ...
ROW 2A : ... .. . ... : ... .. . ... : ... .. . ... : ... .. . ... : ... .. . ... F96 : ... .. . ... : ... .. . ... ... : ... .. . ...
ROW 2B : ... .. . ... : ... .. . ... : ... .. . ... : ... .. . ... : ... .. . ... F7C : ... .. . ... : ... .. . ... ... : ... .. . ...
ROW 2C : A#2 14 . ... : F-2 14 . ... : D-3 0D . ... : ... .. . ... : ... .. . ... F96 : ... .. . ... : ... .. . ... ... : D-1 0E . ...
ROW 2D : ... .. . ... : ... .. . ... : ... .. . ... : ... .. . ... : ... .. . ... F7C : ... .. . ... : ... .. . ... ... : ... .. . ...
ROW 2E : ... .. . ... : ... .. . ... : ... .. . ... : ... .. . ... : ... .. . ... F96 : ... .. . ... : ... .. . ... ... : ... .. . ...
ROW 2F : ... .. . ... : ... .. . ... : ... .. . ... : ... .. . ... : ... .. . ... F7C : ... .. . ... : ... .. . ... ... : ... .. . ...
ROW 30 : D-2 14 . ... : A-1 14 . ... : D-3 0D . ... : ... .. . ... : ... .. . ... F96 : ... .. . ... : ... .. . ... ... : D-1 0E . ...
ROW 31 : ... .. . ... : ... .. . ... : ... .. . ... : ... .. . ... : ... .. . ... F7C : ... .. . ... : ... .. . ... ... : ... .. . ...
ROW 32 : ... .. . ... : ... .. . ... : ... .. . ... : ... .. . ... : ... .. . ... F96 : ... .. . ... : ... .. . ... ... : ... .. . ...
ROW 33 : ... .. . ... : ... .. . ... : ... .. . ... : ... .. . ... : ... .. . ... F7C : ... .. . ... : ... .. . ... ... : ... .. . ...
ROW 34 : D-2 14 . ... : A-1 14 . ... : D-3 0D . ... : ... .. . ... : ... .. . ... F96 : ... .. . ... : ... .. . ... ... : D-1 0E . ...
ROW 35 : ... .. . ... : ... .. . ... : ... .. . ... : ... .. . ... : ... .. . ... F7C : ... .. . ... : ... .. . ... ... : ... .. . ...
ROW 36 : ... .. . ... : ... .. . ... : ... .. . ... : ... .. . ... : ... .. . ... F96 : ... .. . ... : ... .. . ... ... : ... .. . ...
ROW 37 : ... .. . ... : ... .. . ... : ... .. . ... : ... .. . ... : ... .. . ... F7C : ... .. . ... : ... .. . ... ... : ... .. . ...
ROW 38 : D-2 14 . ... : G-2 14 . ... : D-3 0D . ... : 9-# 0B . ... : E-3 09 . ... F96 : ... .. . ... : ... .. . ... ... : D-1 0E . ...
ROW 39 : ... .. . ... : ... .. . ... : ... .. . ... : ... .. . ... : ... .. . ... F7C : ... .. . ... : ... .. . ... ... : ... .. . ...
ROW 3A : ... .. . ... : ... .. . ... : ... .. . ... : ... .. . ... : ... .. . ... F96 : ... .. . ... : ... .. . ... ... : ... .. . ...
ROW 3B : ... .. . ... : ... .. . ... : ... .. . ... : ... .. . ... : ... .. . ... F7C : ... .. . ... : ... .. . ... ... : ... .. . ...
ROW 3C : D-2 14 . ... : G-2 14 . ... : D-3 0D . ... : 9-# 0B . ... : E-3 09 . ... F96 : ... .. . ... : ... .. . ... ... : D-1 0E . ...
ROW 3D : ... .. . ... : ... .. . ... : ... .. . ... : ... .. . ... : ... .. . ... F7C : ... .. . ... : ... .. . ... ... : ... .. . ...
ROW 3E : ... .. . ... : ... .. . ... : ... .. . ... : ... .. . ... : ... .. . ... F96 : ... .. . ... : ... .. . ... ... : ... .. . ...
ROW 3F : ... .. . ... : ... .. . ... : ... .. . ... : ... .. . ... : ... .. . ... F7C : ... .. . ... : ... .. . ... ... : ... .. . ...

PATTERN 32
ROW 00 : D-2 14 . ... : A-1 14 . ... : D-3 0D . ... : ... .. . ... : ... .. . ... F96 : ... .. . ... : ... .. . ... ... : D-1 0E . ...
ROW 01 : ... .. . ... : ... .. . ... : ... .. . ... : ... .. . ... : ... .. . ... F7C : ... .. . ... : ... .. . ... ... : ... .. . ...
ROW 02 : ... .. . ... : ... .. . ... : ... .. . ... : ... .. . ... : ... .. . ... F96 : ... .. . ... : ... .. . ... ... : ... .. . ...
ROW 03 : ... .. . ... : ... .. . ... : ... .. . ... : ... .. . ... : ... .. . ... F7C : ... .. . ... : ... .. . ... ... : ... .. . ...
ROW 04 : D-2 14 . ... : A-1 14 . ... : D-3 0D . ... : ... .. . ... : ... .. . ... F96 : ... .. . ... : ... .. . ... ... : D-1 0E . ...
ROW 05 : ... .. . ... : ... .. . ... : ... .. . ... : ... .. . ... : ... .. . ... F7C : ... .. . ... : ... .. . ... ... : ... .. . ...
ROW 06 : ... .. . ... : ... .. . ... : ... .. . ... : ... .. . ... : ... .. . ... F96 : ... .. . ... : ... .. . ... ... : ... .. . ...
ROW 07 : ... .. . ... : ... .. . ... : ... .. . ... : ... .. . ... : ... .. . ... F7C : ... .. . ... : ... .. . ... ... : ... .. . ...
ROW 08 : A-2 14 . ... : E-2 14 . ... : D-3 0D . ... : ... .. . ... : ... .. . ... F96 : ... .. . ... : ... .. . ... ... : D-1 0E . ...
ROW 09 : ... .. . ... : ... .. . ... : ... .. . ... : ... .. . ... : ... .. . ... F7C : ... .. . ... : ... .. . ... ... : ... .. . ...
ROW 0A : ... .. . ... : ... .. . ... : ... .. . ... : ... .. . ... : ... .. . ... F96 : ... .. . ... : ... .. . ... ... : ... .. . ...
ROW 0B : ... .. . ... : ... .. . ... : ... .. . ... : ... .. . ... : ... .. . ... F7C : ... .. . ... : ... .. . ... ... : ... .. . ...
ROW 0C : D-2 14 . ... : A-1 14 . ... : D-3 0D . ... : ... .. . ... : ... .. . ... F96 : ... .. . ... : ... .. . ... ... : D-1 0E . ...
ROW 0D : ... .. . ... : ... .. . ... : ... .. . ... : ... .. . ... : ... .. . ... F7C : ... .. . ... : ... .. . ... ... : ... .. . ...
ROW 0E : ... .. . ... : ... .. . ... : ... .. . ... : ... .. . ... : ... .. . ... F96 : ... .. . ... : ... .. . ... ... : ... .. . ...
ROW 0F : ... .. . ... : ... .. . ... : ... .. . ... : ... .. . ... : ... .. . ... F7C : ... .. . ... : ... .. . ... ... : ... .. . ...
ROW 10 : D-2 14 . ... : A-1 14 . ... : D-3 0D . ... : ... .. . ... : ... .. . ... F96 : ... .. . ... : ... .. . ... ... : D-1 0E . ...
ROW 11 : ... .. . ... : ... .. . ... : ... .. . ... : ... .. . ... : ... .. . ... F7C : ... .. . ... : ... .. . ... ... : ... .. . ...
ROW 12 : ... .. . ... : ... .. . ... : ... .. . ... : ... .. . ... : ... .. . ... F96 : ... .. . ... : ... .. . ... ... : ... .. . ...
ROW 13 : ... .. . ... : ... .. . ... : ... .. . ... : ... .. . ... : ... .. . ... F7C : ... .. . ... : ... .. . ... ... : ... .. . ...
ROW 14 : A#2 14 . ... : F-2 14 . ... : D-3 0D . ... : ... .. . ... : ... .. . ... F96 : ... .. . ... : ... .. . ... ... : D-1 0E . ...
ROW 15 : ... .. . ... : ... .. . ... : ... .. . ... : ... .. . ... : ... .. . ... F7C : ... .. . ... : ... .. . ... ... : ... .. . ...
ROW 16 : ... .. . ... : ... .. . ... : ... .. . ... : ... .. . ... : ... .. . ... F96 : ... .. . ... : ... .. . ... ... : ... .. . ...
ROW 17 : ... .. . ... : ... .. . ... : ... .. . ... : ... .. . ... : ... .. . ... F7C : ... .. . ... : ... .. . ... ... : ... .. . ...
ROW 18 : D-2 14 . ... : A-1 14 . ... : D-3 0D . ... : ... .. . ... : ... .. . ... F96 : ... .. . ... : ... .. . ... ... : D-1 0E . ...
ROW 19 : ... .. . ... : ... .. . ... : ... .. . ... : ... .. . ... : ... .. . ... F7C : ... .. . ... : ... .. . ... ... : ... .. . ...
ROW 1A : ... .. . ... : ... .. . ... : ... .. . ... : ... .. . ... : ... .. . ... F96 : ... .. . ... : ... .. . ... ... : ... .. . ...
ROW 1B : ... .. . ... : ... .. . ... : ... .. . ... : ... .. . ... : ... .. . ... F7C : ... .. . ... : ... .. . ... ... : ... .. . ...
ROW 1C : D-2 14 . ... : A-1 14 . ... : D-3 0D . ... : ... .. . ... : ... .. . ... F96 : ... .. . ... : ... .. . ... ... : D-1 0E . ...
ROW 1D : ... .. . ... : ... .. . ... : ... .. . ... : ... .. . ... : ... .. . ... F7C : ... .. . ... : ... .. . ... ... : ... .. . ...
ROW 1E : ... .. . ... : ... .. . ... : ... .. . ... : ... .. . ... : ... .. . ... F96 : ... .. . ... : ... .. . ... ... : ... .. . ...
ROW 1F : ... .. . ... : ... .. . ... : ... .. . ... : ... .. . ... : ... .. . ... F7C : ... .. . ... : ... .. . ... ... : ... .. . ...
ROW 20 : C-3 14 . ... : G-2 14 . ... : D-3 0D . ... : ... .. . ... : ... .. . ... F96 : ... .. . ... : ... .. . ... ... : D-1 0E . ...
ROW 21 : ... .. . ... : ... .. . ... : ... .. . ... : ... .. . ... : ... .. . ... F7C : ... .. . ... : ... .. . ... ... : ... .. . ...
ROW 22 : ... .. . ... : ... .. . ... : ... .. . ... : ... .. . ... : ... .. . ... F96 : ... .. . ... : ... .. . ... ... : ... .. . ...
ROW 23 : ... .. . ... : ... .. . ... : ... .. . ... : ... .. . ... : ... .. . ... F7C : ... .. . ... : ... .. . ... ... : ... .. . ...
ROW 24 : D-2 14 . ... : A-1 14 . ... : D-3 0D . ... : ... .. . ... : ... .. . ... F96 : ... .. . ... : ... .. . ... ... : D-1 0E . ...
ROW 25 : ... .. . ... : ... .. . ... : ... .. . ... : ... .. . ... : ... .. . ... F7C : ... .. . ... : ... .. . ... ... : ... .. . ...
ROW 26 : ... .. . ... : ... .. . ... : ... .. . ... : ... .. . ... : ... .. . ... F96 : ... .. . ... : ... .. . ... ... : ... .. . ...
ROW 27 : ... .. . ... : ... .. . ... : ... .. . ... : ... .. . ... : ... .. . ... F7C : ... .. . ... : ... .. . ... ... : ... .. . ...
ROW 28 : D-2 14 . ... : A-1 14 . ... : D-3 0D . ... : A-# 0B . ... : D#3 09 . ... F96 : ... .. . ... : ... .. . ... ... : D-1 0E . ...
ROW 29 : ... .. . ... : ... .. . ... : ... .. . ... : A-# 0B . ... : D#3 09 . ... F7C : ... .. . ... : ... .. . ... ... : ... .. . ...
ROW 2A : ... .. . ... : ... .. . ... : ... .. . ... : ... .. . ... : ... .. . ... F96 : ... .. . ... : ... .. . ... ... : ... .. . ...
ROW 2B : ... .. . ... : ... .. . ... : ... .. . ... : ... .. . ... : ... .. . ... F7C : ... .. . ... : ... .. . ... ... : ... .. . ...
ROW 2C : A#2 14 . ... : F-2 14 . ... : D-3 0D . ... : ... .. . ... : ... .. . ... F96 : ... .. . ... : ... .. . ... ... : D-1 0E . ...
ROW 2D : ... .. . ... : ... .. . ... : ... .. . ... : ... .. . ... : ... .. . ... F7C : ... .. . ... : ... .. . ... ... : ... .. . ...
ROW 2E : ... .. . ... : ... .. . ... : ... .. . ... : ... .. . ... : ... .. . ... F96 : ... .. . ... : ... .. . ... ... : ... .. . ...
ROW 2F : ... .. . ... : ... .. . ... : ... .. . ... : ... .. . ... : ... .. . ... F7C : ... .. . ... : ... .. . ... ... : ... .. . ...
ROW 30 : D-2 14 . ... : A-1 14 . ... : D-3 0D . ... : 8-# 0B . ... : F-3 09 . ... F96 : ... .. . ... : ... .. . ... ... : D-1 0E . ...
ROW 31 : ... .. . ... : ... .. . ... : ... .. . ... : 8-# 0B . ... : F-3 09 . ... F7C : ... .. . ... : ... .. . ... ... : ... .. . ...
ROW 32 : ... .. . ... : ... .. . ... : ... .. . ... : ... .. . ... : ... .. . ... F96 : ... .. . ... : ... .. . ... ... : ... .. . ...
ROW 33 : ... .. . ... : ... .. . ... : ... .. . ... : ... .. . ... : ... .. . ... F7C : ... .. . ... : ... .. . ... ... : ... .. . ...
ROW 34 : D-2 14 . ... : A-1 14 . ... : D-3 0D . ... : ... .. . ... : ... .. . ... F96 : ... .. . ... : ... .. . ... ... : D-1 0E . ...
ROW 35 : ... .. . ... : ... .. . ... : ... .. . ... : ... .. . ... : ... .. . ... F7C : ... .. . ... : ... .. . ... ... : ... .. . ...
ROW 36 : ... .. . ... : ... .. . ... : ... .. . ... : ... .. . ... : ... .. . ... F96 : ... .. . ... : ... .. . ... ... : ... .. . ...
ROW 37 : ... .. . ... : ... .. . ... : ... .. . ... : ... .. . ... : ... .. . ... F7C : ... .. . ... : ... .. . ... ... : ... .. . ...
ROW 38 : D-3 14 . ... : G-2 14 . ... : D-3 0D . ... : 6-# 0B . ... : G-3 09 . ... F96 : ... .. . ... : ... .. . ... ... : D-1 0E . ...
ROW 39 : ... .. . ... : ... .. . ... : ... .. . ... : 6-# 0B . ... : G-3 09 . ... F7C : ... .. . ... : ... .. . ... ... : ... .. . ...
ROW 3A : ... .. . ... : ... .. . ... : ... .. . ... : ... .. . ... : ... .. . ... F96 : ... .. . ... : ... .. . ... ... : ... .. . ...
ROW 3B : ... .. . ... : ... .. . ... : ... .. . ... : ... .. . ... : ... .. . ... F7C : ... .. . ... : ... .. . ... ... : ... .. . ...
ROW 3C : C-3 14 . ... : G-2 14 . ... : D-3 0D . ... : ... .. . ... : ... .. . ... F96 : ... .. . ... : ... .. . ... ... : D-1 0E . ...
ROW 3D : ... .. . ... : ... .. . ... : ... .. . ... : ... .. . ... : ... .. . ... F7C : ... .. . ... : ... .. . ... ... : ... .. . ...
ROW 3E : ... .. . ... : ... .. . ... : ... .. . ... : ... .. . ... : ... .. . ... F96 : ... .. . ... : ... .. . ... ... : ... .. . ...
ROW 3F : ... .. . ... : ... .. . ... : ... .. . ... : ... .. . ... : ... .. . ... F7C : ... .. . ... : ... .. . ... ... : ... .. . ...

PATTERN 33
ROW 00 : D-2 14 . ... : A-1 14 . ... : D-3 0D . ... : 3-# 0A . ... : C-3 09 . ... F96 : F-4 0F F 462 : D-4 0F F 444 ... : D-1 0E . ...
ROW 01 : ... .. . ... : ... .. . ... : ... .. . ... : ... .. . ... : ... .. . ... F7C : ... .. . ... : ... .. . ... ... : ... .. . ...
ROW 02 : ... .. . ... : ... .. . ... : ... .. . ... : ... .. . ... : ... .. . ... F96 : ... .. . ... : ... .. . ... ... : ... .. . ...
ROW 03 : ... .. . ... : ... .. . ... : ... .. . ... : ... .. . ... : ... .. . ... F7C : ... .. . ... : ... .. . ... ... : ... .. . ...
ROW 04 : D-2 14 . ... : A-1 14 . ... : D-3 0D . ... : ... .. . ... : ... .. . ... F96 : ... .. . ... : ... .. . ... ... : D-1 0E . ...
ROW 05 : ... .. . ... : ... .. . ... : ... .. . ... : ... .. . ... : ... .. . ... F7C : ... .. . ... : ... .. . ... ... : ... .. . ...
ROW 06 : ... .. . ... : ... .. . ... : ... .. . ... : ... .. . ... : ... .. . ... F96 : ... .. . ... : ... .. . ... ... : ... .. . ...
ROW 07 : ... .. . ... : ... .. . ... : ... .. . ... : ... .. . ... : ... .. . ... F7C : ... .. . ... : ... .. . ... ... : ... .. . ...
ROW 08 : A-2 14 . ... : E-2 14 . ... : D-3 0D . ... : 3-# 0A . ... : C-3 09 . ... F96 : ... .. . ... : ... .. . ... ... : D-1 0E . ...
ROW 09 : ... .. . ... : ... .. . ... : ... .. . ... : ... .. . ... : ... .. . ... F7C : ... .. . ... : ... .. . ... ... : ... .. . ...
ROW 0A : ... .. . ... : ... .. . ... : ... .. . ... : ... .. . ... : ... .. . ... F96 : ... .. . ... : ... .. . ... ... : ... .. . ...
ROW 0B : ... .. . ... : ... .. . ... : ... .. . ... : ... .. . ... : ... .. . ... F7C : ... .. . ... : ... .. . ... ... : ... .. . ...
ROW 0C : D-2 14 . ... : A-1 14 . ... : D-3 0D . ... : ... .. . ... : ... .. . ... F96 : ... .. . ... : ... .. . ... ... : D-1 0E . ...
ROW 0D : ... .. . ... : ... .. . ... : ... .. . ... : ... .. . ... : ... .. . ... F7C : ... .. . ... : ... .. . ... ... : ... .. . ...
ROW 0E : ... .. . ... : ... .. . ... : ... .. . ... : ... .. . ... : ... .. . ... F96 : ... .. . ... : ... .. . ... ... : ... .. . ...
ROW 0F : ... .. . ... : ... .. . ... : ... .. . ... : ... .. . ... : ... .. . ... F7C : ... .. . ... : ... .. . ... ... : ... .. . ...
ROW 10 : D-2 14 . ... : A-1 14 . ... : D-3 0D . ... : 8-# 0A . ... : C#3 09 . ... F96 : ... .. . ... : ... .. . ... ... : D-1 0E . ...
ROW 11 : ... .. . ... : ... .. . ... : ... .. . ... : ... .. . ... : ... .. . ... F7C : ... .. . ... : ... .. . ... ... : ... .. . ...
ROW 12 : ... .. . ... : ... .. . ... : ... .. . ... : ... .. . ... : ... .. . ... F96 : ... .. . ... : ... .. . ... ... : ... .. . ...
ROW 13 : ... .. . ... : ... .. . ... : ... .. . ... : ... .. . ... : ... .. . ... F7C : ... .. . ... : ... .. . ... ... : ... .. . ...
ROW 14 : A#2 14 . ... : F-2 14 . ... : D-3 0D . ... : ... .. . ... : ... .. . ... F96 : ... .. . ... : ... .. . ... ... : D-1 0E . ...
ROW 15 : ... .. . ... : ... .. . ... : ... .. . ... : ... .. . ... : ... .. . ... F7C : ... .. . ... : ... .. . ... ... : ... .. . ...
ROW 16 : ... .. . ... : ... .. . ... : ... .. . ... : ... .. . ... : ... .. . ... F96 : ... .. . ... : ... .. . ... ... : ... .. . ...
ROW 17 : ... .. . ... : ... .. . ... : ... .. . ... : ... .. . ... : ... .. . ... F7C : ... .. . ... : ... .. . ... ... : ... .. . ...
ROW 18 : D-2 14 . ... : A-1 14 . ... : D-3 0D . ... : ... .. . ... : ... .. . ... F96 : ... .. . ... : ... .. . ... ... : D-1 0E . ...
ROW 19 : ... .. . ... : ... .. . ... : ... .. . ... : ... .. . ... : ... .. . ... F7C : ... .. . ... : ... .. . ... ... : ... .. . ...
ROW 1A : ... .. . ... : ... .. . ... : ... .. . ... : ... .. . ... : ... .. . ... F96 : ... .. . ... : ... .. . ... ... : ... .. . ...
ROW 1B : ... .. . ... : ... .. . ... : ... .. . ... : ... .. . ... : ... .. . ... F7C : ... .. . ... : ... .. . ... ... : ... .. . ...
ROW 1C : D-2 14 . ... : A-1 14 . ... : D-3 0D . ... : ... .. . ... : ... .. . ... F96 : ... .. . ... : ... .. . ... ... : D-1 0E . ...
ROW 1D : ... .. . ... : ... .. . ... : ... .. . ... : ... .. . ... : ... .. . ... F7C : ... .. . ... : ... .. . ... ... : ... .. . ...
ROW 1E : ... .. . ... : ... .. . ... : ... .. . ... : ... .. . ... : ... .. . ... F96 : ... .. . ... : ... .. . ... ... : ... .. . ...
ROW 1F : ... .. . ... : ... .. . ... : ... .. . ... : ... .. . ... : ... .. . ... F7C : ... .. . ... : ... .. . ... ... : ... .. . ...
ROW 20 : C-3 14 . ... : G-2 14 . ... : D-3 0D . ... : 3-# 0A . ... : C-3 09 . ... F96 : ... .. . ... : ... .. . ... ... : D-1 0E . ...
ROW 21 : ... .. . ... : ... .. . ... : ... .. . ... : ... .. . ... : ... .. . ... F7C : ... .. . ... : ... .. . ... ... : ... .. . ...
ROW 22 : ... .. . ... : ... .. . ... : ... .. . ... : ... .. . ... : ... .. . ... F96 : ... .. . ... : ... .. . ... ... : ... .. . ...
ROW 23 : ... .. . ... : ... .. . ... : ... .. . ... : ... .. . ... : ... .. . ... F7C : ... .. . ... : ... .. . ... ... : ... .. . ...
ROW 24 : D-2 14 . ... : A-1 14 . ... : D-3 0D . ... : ... .. . ... : ... .. . ... F96 : ... .. . ... : ... .. . ... ... : D-1 0E . ...
ROW 25 : ... .. . ... : ... .. . ... : ... .. . ... : ... .. . ... : ... .. . ... F7C : ... .. . ... : ... .. . ... ... : ... .. . ...
ROW 26 : ... .. . ... : ... .. . ... : ... .. . ... : ... .. . ... : ... .. . ... F96 : ... .. . ... : ... .. . ... ... : ... .. . ...
ROW 27 : ... .. . ... : ... .. . ... : ... .. . ... : ... .. . ... : ... .. . ... F7C : ... .. . ... : ... .. . ... ... : ... .. . ...
ROW 28 : D-2 14 . ... : A-1 14 . ... : D-3 0D . ... : 3-# 0A . ... : C-3 09 . ... F96 : ... .. . ... : ... .. . ... ... : D-1 0E . ...
ROW 29 : ... .. . ... : ... .. . ... : ... .. . ... : ... .. . ... : ... .. . ... F7C : ... .. . ... : ... .. . ... ... : ... .. . ...
ROW 2A : ... .. . ... : ... .. . ... : ... .. . ... : ... .. . ... : ... .. . ... F96 : ... .. . ... : ... .. . ... ... : ... .. . ...
ROW 2B : ... .. . ... : ... .. . ... : ... .. . ... : ... .. . ... : ... .. . ... F7C : ... .. . ... : ... .. . ... ... : ... .. . ...
ROW 2C : A#2 14 . ... : F-2 14 . ... : D-3 0D . ... : ... .. . ... : ... .. . ... F96 : ... .. . ... : ... .. . ... ... : D-1 0E . ...
ROW 2D : ... .. . ... : ... .. . ... : ... .. . ... : ... .. . ... : ... .. . ... F7C : ... .. . ... : ... .. . ... ... : ... .. . ...
ROW 2E : ... .. . ... : ... .. . ... : ... .. . ... : ... .. . ... : ... .. . ... F96 : ... .. . ... : ... .. . ... ... : ... .. . ...
ROW 2F : ... .. . ... : ... .. . ... : ... .. . ... : ... .. . ... : ... .. . ... F7C : ... .. . ... : ... .. . ... ... : ... .. . ...
ROW 30 : D-2 14 . ... : A-1 14 . ... : D-3 0D . ... : 8-# 0A . ... : C#3 09 . ... F96 : ... .. . ... : ... .. . ... ... : D-1 0E . ...
ROW 31 : ... .. . ... : ... .. . ... : ... .. . ... : ... .. . ... : ... .. . ... F7C : ... .. . ... : ... .. . ... ... : ... .. . ...
ROW 32 : ... .. . ... : ... .. . ... : ... .. . ... : ... .. . ... : ... .. . ... F96 : ... .. . ... : ... .. . ... ... : ... .. . ...
ROW 33 : ... .. . ... : ... .. . ... : ... .. . ... : ... .. . ... : ... .. . ... F7C : ... .. . ... : ... .. . ... ... : ... .. . ...
ROW 34 : D-2 14 . ... : A-1 14 . ... : D-3 0D . ... : ... .. . ... : ... .. . ... F96 : ... .. . ... : ... .. . ... ... : D-1 0E . ...
ROW 35 : ... .. . ... : ... .. . ... : ... .. . ... : ... .. . ... : ... .. . ... F7C : ... .. . ... : ... .. . ... ... : ... .. . ...
ROW 36 : ... .. . ... : ... .. . ... : ... .. . ... : ... .. . ... : ... .. . ... F96 : ... .. . ... : ... .. . ... ... : ... .. . ...
ROW 37 : ... .. . ... : ... .. . ... : ... .. . ... : ... .. . ... : ... .. . ... F7C : ... .. . ... : ... .. . ... ... : ... .. . ...
ROW 38 : D-2 14 . ... : G-2 14 . ... : D-3 0D . ... : ... .. . ... : ... .. . ... F96 : ... .. . ... : ... .. . ... ... : D-1 0E . ...
ROW 39 : ... .. . ... : ... .. . ... : ... .. . ... : ... .. . ... : ... .. . ... F7C : ... .. . ... : ... .. . ... ... : ... .. . ...
ROW 3A : ... .. . ... : ... .. . ... : ... .. . ... : ... .. . ... : ... .. . ... F96 : ... .. . ... : ... .. . ... ... : ... .. . ...
ROW 3B : ... .. . ... : ... .. . ... : ... .. . ... : ... .. . ... : ... .. . ... F7C : ... .. . ... : ... .. . ... ... : ... .. . ...
ROW 3C : D-2 14 . ... : G-2 14 . ... : D-3 0D . ... : ... .. . ... : ... .. . ... F96 : ... .. . ... : ... .. . ... ... : D-1 0E . ...
ROW 3D : ... .. . ... : ... .. . ... : ... .. . ... : ... .. . ... : ... .. . ... F7C : ... .. . ... : ... .. . ... ... : ... .. . ...
ROW 3E : ... .. . ... : ... .. . ... : ... .. . ... : ... .. . ... : ... .. . ... F96 : ... .. . ... : ... .. . ... ... : ... .. . ...
ROW 3F : ... .. . ... : ... .. . ... : ... .. . ... : ... .. . ... : ... .. . ... F7C : ... .. . ... : ... .. . ... ... : ... .. . ...

PATTERN 34
ROW 00 : D-2 14 . ... : A-1 14 . ... : D-3 0D . ... : 3-# 0A . ... : C-3 09 . ... F96 : ... .. . ... : ... .. . ... ... : D-1 0E . ...
ROW 01 : ... .. . ... : ... .. . ... : ... .. . ... : ... .. . ... : ... .. . ... F7C : ... .. . ... : ... .. . ... ... : ... .. . ...
ROW 02 : ... .. . ... : ... .. . ... : ... .. . ... : ... .. . ... : ... .. . ... F96 : ... .. . ... : ... .. . ... ... : ... .. . ...
ROW 03 : ... .. . ... : ... .. . ... : ... .. . ... : ... .. . ... : ... .. . ... F7C : ... .. . ... : ... .. . ... ... : ... .. . ...
ROW 04 : D-2 14 . ... : A-1 14 . ... : D-3 0D . ... : ... .. . ... : ... .. . ... F96 : ... .. . ... : ... .. . ... ... : D-1 0E . ...
ROW 05 : ... .. . ... : ... .. . ... : ... .. . ... : ... .. . ... : ... .. . ... F7C : ... .. . ... : ... .. . ... ... : ... .. . ...
ROW 06 : ... .. . ... : ... .. . ... : ... .. . ... : ... .. . ... : ... .. . ... F96 : ... .. . ... : ... .. . ... ... : ... .. . ...
ROW 07 : ... .. . ... : ... .. . ... : ... .. . ... : ... .. . ... : ... .. . ... F7C : ... .. . ... : ... .. . ... ... : ... .. . ...
ROW 08 : A-2 14 . ... : E-2 14 . ... : D-3 0D . ... : 3-# 0A . ... : C-3 09 . ... F96 : ... .. . ... : ... .. . ... ... : D-1 0E . ...
ROW 09 : ... .. . ... : ... .. . ... : ... .. . ... : ... .. . ... : ... .. . ... F7C : ... .. . ... : ... .. . ... ... : ... .. . ...
ROW 0A : ... .. . ... : ... .. . ... : ... .. . ... : ... .. . ... : ... .. . ... F96 : ... .. . ... : ... .. . ... ... : ... .. . ...
ROW 0B : ... .. . ... : ... .. . ... : ... .. . ... : ... .. . ... : ... .. . ... F7C : ... .. . ... : ... .. . ... ... : ... .. . ...
ROW 0C : D-2 14 . ... : A-1 14 . ... : D-3 0D . ... : ... .. . ... : ... .. . ... F96 : ... .. . ... : ... .. . ... ... : D-1 0E . ...
ROW 0D : ... .. . ... : ... .. . ... : ... .. . ... : ... .. . ... : ... .. . ... F7C : ... .. . ... : ... .. . ... ... : ... .. . ...
ROW 0E : ... .. . ... : ... .. . ... : ... .. . ... : ... .. . ... : ... .. . ... F96 : ... .. . ... : ... .. . ... ... : ... .. . ...
ROW 0F : ... .. . ... : ... .. . ... : ... .. . ... : ... .. . ... : ... .. . ... F7C : ... .. . ... : ... .. . ... ... : ... .. . ...
ROW 10 : D-2 14 . ... : A-1 14 . ... : D-3 0D . ... : 8-# 0A . ... : C#3 09 . ... F96 : ... .. . ... : ... .. . ... ... : D-1 0E . ...
ROW 11 : ... .. . ... : ... .. . ... : ... .. . ... : ... .. . ... : ... .. . ... F7C : ... .. . ... : ... .. . ... ... : ... .. . ...
ROW 12 : ... .. . ... : ... .. . ... : ... .. . ... : ... .. . ... : ... .. . ... F96 : ... .. . ... : ... .. . ... ... : ... .. . ...
ROW 13 : ... .. . ... : ... .. . ... : ... .. . ... : ... .. . ... : ... .. . ... F7C : ... .. . ... : ... .. . ... ... : ... .. . ...
ROW 14 : A#2 14 . ... : F-2 14 . ... : D-3 0D . ... : ... .. . ... : ... .. . ... F96 : ... .. . ... : ... .. . ... ... : D-1 0E . ...
ROW 15 : ... .. . ... : ... .. . ... : ... .. . ... : ... .. . ... : ... .. . ... F7C : ... .. . ... : ... .. . ... ... : ... .. . ...
ROW 16 : ... .. . ... : ... .. . ... : ... .. . ... : ... .. . ... : ... .. . ... F96 : ... .. . ... : ... .. . ... ... : ... .. . ...
ROW 17 : ... .. . ... : ... .. . ... : ... .. . ... : ... .. . ... : ... .. . ... F7C : ... .. . ... : ... .. . ... ... : ... .. . ...
ROW 18 : D-2 14 . ... : A-1 14 . ... : D-3 0D . ... : ... .. . ... : ... .. . ... F96 : ... .. . ... : ... .. . ... ... : D-1 0E . ...
ROW 19 : ... .. . ... : ... .. . ... : ... .. . ... : ... .. . ... : ... .. . ... F7C : ... .. . ... : ... .. . ... ... : ... .. . ...
ROW 1A : ... .. . ... : ... .. . ... : ... .. . ... : ... .. . ... : ... .. . ... F96 : ... .. . ... : ... .. . ... ... : ... .. . ...
ROW 1B : ... .. . ... : ... .. . ... : ... .. . ... : ... .. . ... : ... .. . ... F7C : ... .. . ... : ... .. . ... ... : ... .. . ...
ROW 1C : D-2 14 . ... : A-1 14 . ... : D-3 0D . ... : ... .. . ... : ... .. . ... F96 : ... .. . ... : ... .. . ... ... : D-1 0E . ...
ROW 1D : ... .. . ... : ... .. . ... : ... .. . ... : ... .. . ... : ... .. . ... F7C : ... .. . ... : ... .. . ... ... : ... .. . ...
ROW 1E : ... .. . ... : ... .. . ... : ... .. . ... : ... .. . ... : ... .. . ... F96 : ... .. . ... : ... .. . ... ... : ... .. . ...
ROW 1F : ... .. . ... : ... .. . ... : ... .. . ... : ... .. . ... : ... .. . ... F7C : ... .. . ... : ... .. . ... ... : ... .. . ...
ROW 20 : C-3 14 . ... : G-2 14 . ... : D-3 0D . ... : 3-# 0A . ... : C-3 09 . ... F96 : ... .. . ... : ... .. . ... ... : D-1 0E . ...
ROW 21 : ... .. . ... : ... .. . ... : ... .. . ... : ... .. . ... : ... .. . ... F7C : ... .. . ... : ... .. . ... ... : ... .. . ...
ROW 22 : ... .. . ... : ... .. . ... : ... .. . ... : ... .. . ... : ... .. . ... F96 : ... .. . ... : ... .. . ... ... : ... .. . ...
ROW 23 : ... .. . ... : ... .. . ... : ... .. . ... : ... .. . ... : ... .. . ... F7C : ... .. . ... : ... .. . ... ... : ... .. . ...
ROW 24 : D-2 14 . ... : A-1 14 . ... : D-3 0D . ... : ... .. . ... : ... .. . ... F96 : ... .. . ... : ... .. . ... ... : D-1 0E . ...
ROW 25 : ... .. . ... : ... .. . ... : ... .. . ... : ... .. . ... : ... .. . ... F7C : ... .. . ... : ... .. . ... ... : ... .. . ...
ROW 26 : ... .. . ... : ... .. . ... : ... .. . ... : ... .. . ... : ... .. . ... F96 : ... .. . ... : ... .. . ... ... : ... .. . ...
ROW 27 : ... .. . ... : ... .. . ... : ... .. . ... : ... .. . ... : ... .. . ... F7C : ... .. . ... : ... .. . ... ... : ... .. . ...
ROW 28 : D-2 14 . ... : A-1 14 . ... : D-3 0D . ... : 3-# 0A . ... : C-3 09 . ... F96 : ... .. . ... : ... .. . ... ... : D-1 0E . ...
ROW 29 : ... .. . ... : ... .. . ... : ... .. . ... : ... .. . ... : ... .. . ... F7C : ... .. . ... : ... .. . ... ... : ... .. . ...
ROW 2A : ... .. . ... : ... .. . ... : ... .. . ... : ... .. . ... : ... .. . ... F96 : ... .. . ... : ... .. . ... ... : ... .. . ...
ROW 2B : ... .. . ... : ... .. . ... : ... .. . ... : ... .. . ... : ... .. . ... F7C : ... .. . ... : ... .. . ... ... : ... .. . ...
ROW 2C : A#2 14 . ... : F-2 14 . ... : D-3 0D . ... : ... .. . ... : ... .. . ... F96 : ... .. . ... : ... .. . ... ... : D-1 0E . ...
ROW 2D : ... .. . ... : ... .. . ... : ... .. . ... : ... .. . ... : ... .. . ... F7C : ... .. . ... : ... .. . ... ... : ... .. . ...
ROW 2E : ... .. . ... : ... .. . ... : ... .. . ... : ... .. . ... : ... .. . ... F96 : ... .. . ... : ... .. . ... ... : ... .. . ...
ROW 2F : ... .. . ... : ... .. . ... : ... .. . ... : ... .. . ... : ... .. . ... F7C : ... .. . ... : ... .. . ... ... : ... .. . ...
ROW 30 : D-2 14 . ... : A-1 14 . ... : D-3 0D . ... : 8-# 0A . ... : C#3 09 . ... F96 : ... .. . ... : ... .. . ... ... : D-1 0E . ...
ROW 31 : ... .. . ... : ... .. . ... : ... .. . ... : ... .. . ... : ... .. . ... F7C : ... .. . ... : ... .. . ... ... : ... .. . ...
ROW 32 : ... .. . ... : ... .. . ... : ... .. . ... : ... .. . ... : ... .. . ... F96 : ... .. . ... : ... .. . ... ... : ... .. . ...
ROW 33 : ... .. . ... : ... .. . ... : ... .. . ... : ... .. . ... : ... .. . ... F7C : ... .. . ... : ... .. . ... ... : ... .. . ...
ROW 34 : D-2 14 . ... : A-1 14 . ... : D-3 0D . ... : ... .. . ... : ... .. . ... F96 : ... .. . ... : ... .. . ... ... : D-1 0E . ...
ROW 35 : ... .. . ... : ... .. . ... : ... .. . ... : ... .. . ... : ... .. . ... F7C : ... .. . ... : ... .. . ... ... : ... .. . ...
ROW 36 : ... .. . ... : ... .. . ... : ... .. . ... : ... .. . ... : ... .. . ... F96 : ... .. . ... : ... .. . ... ... : ... .. . ...
ROW 37 : ... .. . ... : ... .. . ... : ... .. . ... : ... .. . ... : ... .. . ... F7C : ... .. . ... : ... .. . ... ... : ... .. . ...
ROW 38 : D-3 14 . ... : G-2 14 . ... : D-3 0D . ... : ... .. . ... : ... .. . ... F96 : ... .. . ... : ... .. . ... ... : D-1 0E . ...
ROW 39 : ... .. . ... : ... .. . ... : ... .. . ... : ... .. . ... : ... .. . ... F7C : ... .. . ... : ... .. . ... ... : ... .. . ...
ROW 3A : ... .. . ... : ... .. . ... : ... .. . ... : ... .. . ... : ... .. . ... F96 : ... .. . ... : ... .. . ... ... : ... .. . ...
ROW 3B : ... .. . ... : ... .. . ... : ... .. . ... : ... .. . ... : ... .. . ... F7C : ... .. . ... : ... .. . ... ... : ... .. . ...
ROW 3C : C-3 14 . ... : G-2 14 . ... : D-3 0D . ... : ... .. . ... : ... .. . ... F96 : ... .. . ... : ... .. . ... ... : D-1 0E . ...
ROW 3D : ... .. . ... : ... .. . ... : ... .. . ... : ... .. . ... : ... .. . ... F7C : ... .. . ... : ... .. . ... ... : ... .. . ...
ROW 3E : ... .. . ... : ... .. . ... : ... .. . ... : ... .. . ... : ... .. . ... F96 : ... .. . ... : ... .. . ... ... : ... .. . ...
ROW 3F : ... .. . ... : ... .. . ... : ... .. . ... : ... .. . ... : ... .. . ... F7C : ... .. . ... : ... .. . ... ... : ... .. . ...

PATTERN 35
ROW 00 : D-2 14 . ... : A-1 14 . ... : D-3 0D . ... : 3-# 0A . ... : C-3 09 . ... F96 : E-4 0F . 462 : C-4 0F . 444 ... : D-1 0E . ...
ROW 01 : ... .. . ... : ... .. . ... : ... .. . ... : ... .. . ... : ... .. . ... F7C : ... .. . ... : ... .. . ... ... : ... .. . ...
ROW 02 : ... .. . ... : ... .. . ... : ... .. . ... : ... .. . ... : ... .. . ... F96 : ... .. . ... : ... .. . ... ... : ... .. . ...
ROW 03 : ... .. . ... : ... .. . ... : ... .. . ... : ... .. . ... : ... .. . ... F7C : ... .. . ... : ... .. . ... ... : ... .. . ...
ROW 04 : D-2 14 . ... : A-1 14 . ... : D-3 0D . ... : ... .. . ... : ... .. . ... F96 : ... .. . ... : ... .. . ... ... : D-1 0E . ...
ROW 05 : ... .. . ... : ... .. . ... : ... .. . ... : ... .. . ... : ... .. . ... F7C : ... .. . ... : ... .. . ... ... : ... .. . ...
ROW 06 : ... .. . ... : ... .. . ... : ... .. . ... : ... .. . ... : ... .. . ... F96 : ... .. . ... : ... .. . ... ... : ... .. . ...
ROW 07 : ... .. . ... : ... .. . ... : ... .. . ... : ... .. . ... : ... .. . ... F7C : ... .. . ... : ... .. . ... ... : ... .. . ...
ROW 08 : A-2 14 . ... : E-2 14 . ... : D-3 0D . ... : 3-# 0A . ... : C-3 09 . ... F96 : ... .. . ... : ... .. . ... ... : D-1 0E . ...
ROW 09 : ... .. . ... : ... .. . ... : ... .. . ... : ... .. . ... : ... .. . ... F7C : ... .. . ... : ... .. . ... ... : ... .. . ...
ROW 0A : ... .. . ... : ... .. . ... : ... .. . ... : ... .. . ... : ... .. . ... F96 : ... .. . ... : ... .. . ... ... : ... .. . ...
ROW 0B : ... .. . ... : ... .. . ... : ... .. . ... : ... .. . ... : ... .. . ... F7C : ... .. . ... : ... .. . ... ... : ... .. . ...
ROW 0C : D-2 14 . ... : A-1 14 . ... : D-3 0D . ... : ... .. . ... : ... .. . ... F96 : ... .. . ... : ... .. . ... ... : D-1 0E . ...
ROW 0D : ... .. . ... : ... .. . ... : ... .. . ... : ... .. . ... : ... .. . ... F7C : ... .. . ... : ... .. . ... ... : ... .. . ...
ROW 0E : ... .. . ... : ... .. . ... : ... .. . ... : ... .. . ... : ... .. . ... F96 : ... .. . ... : ... .. . ... ... : ... .. . ...
ROW 0F : ... .. . ... : ... .. . ... : ... .. . ... : ... .. . ... : ... .. . ... F7C : ... .. . ... : ... .. . ... ... : ... .. . ...
ROW 10 : D-2 14 . ... : A-1 14 . ... : D-3 0D . ... : 8-# 0A . ... : C#3 09 . ... F96 : ... .. . ... : ... .. . ... ... : D-1 0E . ...
ROW 11 : ... .. . ... : ... .. . ... : ... .. . ... : ... .. . ... : ... .. . ... F7C : ... .. . ... : ... .. . ... ... : ... .. . ...
ROW 12 : ... .. . ... : ... .. . ... : ... .. . ... : ... .. . ... : ... .. . ... F96 : ... .. . ... : ... .. . ... ... : ... .. . ...
ROW 13 : ... .. . ... : ... .. . ... : ... .. . ... : ... .. . ... : ... .. . ... F7C : ... .. . ... : ... .. . ... ... : ... .. . ...
ROW 14 : A#2 14 . ... : F-2 14 . ... : D-3 0D . ... : ... .. . ... : ... .. . ... F96 : ... .. . ... : ... .. . ... ... : D-1 0E . ...
ROW 15 : ... .. . ... : ... .. . ... : ... .. . ... : ... .. . ... : ... .. . ... F7C : ... .. . ... : ... .. . ... ... : ... .. . ...
ROW 16 : ... .. . ... : ... .. . ... : ... .. . ... : ... .. . ... : ... .. . ... F96 : ... .. . ... : ... .. . ... ... : ... .. . ...
ROW 17 : ... .. . ... : ... .. . ... : ... .. . ... : ... .. . ... : ... .. . ... F7C : ... .. . ... : ... .. . ... ... : ... .. . ...
ROW 18 : D-2 14 . ... : A-1 14 . ... : D-3 0D . ... : ... .. . ... : ... .. . ... F96 : ... .. . ... : ... .. . ... ... : D-1 0E . ...
ROW 19 : ... .. . ... : ... .. . ... : ... .. . ... : ... .. . ... : ... .. . ... F7C : ... .. . ... : ... .. . ... ... : ... .. . ...
ROW 1A : ... .. . ... : ... .. . ... : ... .. . ... : ... .. . ... : ... .. . ... F96 : ... .. . ... : ... .. . ... ... : ... .. . ...
ROW 1B : ... .. . ... : ... .. . ... : ... .. . ... : ... .. . ... : ... .. . ... F7C : ... .. . ... : ... .. . ... ... : ... .. . ...
ROW 1C : D-2 14 . ... : A-1 14 . ... : D-3 0D . ... : ... .. . ... : ... .. . ... F96 : ... .. . ... : ... .. . ... ... : D-1 0E . ...
ROW 1D : ... .. . ... : ... .. . ... : ... .. . ... : ... .. . ... : ... .. . ... F7C : ... .. . ... : ... .. . ... ... : ... .. . ...
ROW 1E : ... .. . ... : ... .. . ... : ... .. . ... : ... .. . ... : ... .. . ... F96 : ... .. . ... : ... .. . ... ... : ... .. . ...
ROW 1F : ... .. . ... : ... .. . ... : ... .. . ... : ... .. . ... : ... .. . ... F7C : ... .. . ... : ... .. . ... ... : ... .. . ...
ROW 20 : C-3 14 . ... : G-2 14 . ... : D-3 0D . ... : 3-# 0A . ... : C-3 09 . ... F96 : ... .. . ... : ... .. . ... ... : D-1 0E . ...
ROW 21 : ... .. . ... : ... .. . ... : ... .. . ... : ... .. . ... : ... .. . ... F7C : ... .. . ... : ... .. . ... ... : ... .. . ...
ROW 22 : ... .. . ... : ... .. . ... : ... .. . ... : ... .. . ... : ... .. . ... F96 : ... .. . ... : ... .. . ... ... : ... .. . ...
ROW 23 : ... .. . ... : ... .. . ... : ... .. . ... : ... .. . ... : ... .. . ... F7C : ... .. . ... : ... .. . ... ... : ... .. . ...
ROW 24 : D-2 14 . ... : A-1 14 . ... : D-3 0D . ... : ... .. . ... : ... .. . ... F96 : ... .. . ... : ... .. . ... ... : D-1 0E . ...
ROW 25 : ... .. . ... : ... .. . ... : ... .. . ... : ... .. . ... : ... .. . ... F7C : ... .. . ... : ... .. . ... ... : ... .. . ...
ROW 26 : ... .. . ... : ... .. . ... : ... .. . ... : ... .. . ... : ... .. . ... F96 : ... .. . ... : ... .. . ... ... : ... .. . ...
ROW 27 : ... .. . ... : ... .. . ... : ... .. . ... : ... .. . ... : ... .. . ... F7C : ... .. . ... : ... .. . ... ... : ... .. . ...
ROW 28 : D-2 14 . ... : A-1 14 . ... : D-3 0D . ... : 3-# 0A . ... : C-3 09 . ... F96 : ... .. . ... : ... .. . ... ... : D-1 0E . ...
ROW 29 : ... .. . ... : ... .. . ... : ... .. . ... : ... .. . ... : ... .. . ... F7C : ... .. . ... : ... .. . ... ... : ... .. . ...
ROW 2A : ... .. . ... : ... .. . ... : ... .. . ... : ... .. . ... : ... .. . ... F96 : ... .. . ... : ... .. . ... ... : ... .. . ...
ROW 2B : ... .. . ... : ... .. . ... : ... .. . ... : ... .. . ... : ... .. . ... F7C : ... .. . ... : ... .. . ... ... : ... .. . ...
ROW 2C : A#2 14 . ... : F-2 14 . ... : D-3 0D . ... : ... .. . ... : ... .. . ... F96 : ... .. . ... : ... .. . ... ... : D-1 0E . ...
ROW 2D : ... .. . ... : ... .. . ... : ... .. . ... : ... .. . ... : ... .. . ... F7C : ... .. . ... : ... .. . ... ... : ... .. . ...
ROW 2E : ... .. . ... : ... .. . ... : ... .. . ... : ... .. . ... : ... .. . ... F96 : ... .. . ... : ... .. . ... ... : ... .. . ...
ROW 2F : ... .. . ... : ... .. . ... : ... .. . ... : ... .. . ... : ... .. . ... F7C : ... .. . ... : ... .. . ... ... : ... .. . ...
ROW 30 : D-2 14 . ... : A-1 14 . ... : D-3 0D . ... : 8-# 0A . ... : C#3 09 . ... F96 : ... .. . ... : ... .. . ... ... : D-1 0E . ...
ROW 31 : ... .. . ... : ... .. . ... : ... .. . ... : ... .. . ... : ... .. . ... F7C : ... .. . ... : ... .. . ... ... : ... .. . ...
ROW 32 : ... .. . ... : ... .. . ... : ... .. . ... : ... .. . ... : ... .. . ... F96 : ... .. . ... : ... .. . ... ... : ... .. . ...
ROW 33 : ... .. . ... : ... .. . ... : ... .. . ... : ... .. . ... : ... .. . ... F7C : ... .. . ... : ... .. . ... ... : ... .. . ...
ROW 34 : D-2 14 . ... : A-1 14 . ... : D-3 0D . ... : ... .. . ... : ... .. . ... F96 : ... .. . ... : ... .. . ... ... : D-1 0E . ...
ROW 35 : ... .. . ... : ... .. . ... : ... .. . ... : ... .. . ... : ... .. . ... F7C : ... .. . ... : ... .. . ... ... : ... .. . ...
ROW 36 : ... .. . ... : ... .. . ... : ... .. . ... : ... .. . ... : ... .. . ... F96 : ... .. . ... : ... .. . ... ... : ... .. . ...
ROW 37 : ... .. . ... : ... .. . ... : ... .. . ... : ... .. . ... : ... .. . ... F7C : ... .. . ... : ... .. . ... ... : ... .. . ...
ROW 38 : D-2 14 . ... : G-2 14 . ... : D-3 0D . ... : ... .. . ... : ... .. . ... F96 : ... .. . ... : ... .. . ... ... : D-1 0E . ...
ROW 39 : ... .. . ... : ... .. . ... : ... .. . ... : ... .. . ... : ... .. . ... F7C : ... .. . ... : ... .. . ... ... : ... .. . ...
ROW 3A : ... .. . ... : ... .. . ... : ... .. . ... : ... .. . ... : ... .. . ... F96 : ... .. . ... : ... .. . ... ... : ... .. . ...
ROW 3B : ... .. . ... : ... .. . ... : ... .. . ... : ... .. . ... : ... .. . ... F7C : ... .. . ... : ... .. . ... ... : ... .. . ...
ROW 3C : D-2 14 . ... : G-2 14 . ... : D-3 0D . ... : ... .. . ... : ... .. . ... F96 : ... .. . ... : ... .. . ... ... : D-1 0E . ...
ROW 3D : ... .. . ... : ... .. . ... : ... .. . ... : ... .. . ... : ... .. . ... F7C : ... .. . ... : ... .. . ... ... : ... .. . ...
ROW 3E : ... .. . ... : ... .. . ... : ... .. . ... : ... .. . ... : ... .. . ... F96 : ... .. . ... : ... .. . ... ... : ... .. . ...
ROW 3F : ... .. . ... : ... .. . ... : ... .. . ... : ... .. . ... : ... .. . ... F7C : ... .. . ... : ... .. . ... ... : ... .. . ...

PATTERN 36
ROW 00 : D-2 14 . ... : A-1 14 . ... : D-3 0D . ... : 3-# 0A . ... : C-3 09 . ... F96 : ... .. . ... : ... .. . ... ... : D-1 0E . ...
ROW 01 : ... .. . ... : ... .. . ... : ... .. . ... : ... .. . ... : ... .. . ... F7C : ... .. . ... : ... .. . ... ... : ... .. . ...
ROW 02 : ... .. . ... : ... .. . ... : ... .. . ... : ... .. . ... : ... .. . ... F96 : ... .. . ... : ... .. . ... ... : ... .. . ...
ROW 03 : ... .. . ... : ... .. . ... : ... .. . ... : ... .. . ... : ... .. . ... F7C : ... .. . ... : ... .. . ... ... : ... .. . ...
ROW 04 : D-2 14 . ... : A-1 14 . ... : D-3 0D . ... : ... .. . ... : ... .. . ... F96 : ... .. . ... : ... .. . ... ... : D-1 0E . ...
ROW 05 : ... .. . ... : ... .. . ... : ... .. . ... : ... .. . ... : ... .. . ... F7C : ... .. . ... : ... .. . ... ... : ... .. . ...
ROW 06 : ... .. . ... : ... .. . ... : ... .. . ... : ... .. . ... : ... .. . ... F96 : ... .. . ... : ... .. . ... ... : ... .. . ...
ROW 07 : ... .. . ... : ... .. . ... : ... .. . ... : ... .. . ... : ... .. . ... F7C : ... .. . ... : ... .. . ... ... : ... .. . ...
ROW 08 : A-2 14 . ... : E-2 14 . ... : D-3 0D . ... : 3-# 0A . ... : C-3 09 . ... F96 : ... .. . ... : ... .. . ... ... : D-1 0E . ...
ROW 09 : ... .. . ... : ... .. . ... : ... .. . ... : ... .. . ... : ... .. . ... F7C : ... .. . ... : ... .. . ... ... : ... .. . ...
ROW 0A : ... .. . ... : ... .. . ... : ... .. . ... : ... .. . ... : ... .. . ... F96 : ... .. . ... : ... .. . ... ... : ... .. . ...
ROW 0B : ... .. . ... : ... .. . ... : ... .. . ... : ... .. . ... : ... .. . ... F7C : ... .. . ... : ... .. . ... ... : ... .. . ...
ROW 0C : D-2 14 . ... : A-1 14 . ... : D-3 0D . ... : ... .. . ... : ... .. . ... F96 : ... .. . ... : ... .. . ... ... : D-1 0E . ...
ROW 0D : ... .. . ... : ... .. . ... : ... .. . ... : ... .. . ... : ... .. . ... F7C : ... .. . ... : ... .. . ... ... : ... .. . ...
ROW 0E : ... .. . ... : ... .. . ... : ... .. . ... : ... .. . ... : ... .. . ... F96 : ... .. . ... : ... .. . ... ... : ... .. . ...
ROW 0F : ... .. . ... : ... .. . ... : ... .. . ... : ... .. . ... : ... .. . ... F7C : ... .. . ... : ... .. . ... ... : ... .. . ...
ROW 10 : D-2 14 . ... : A-1 14 . ... : D-3 0D . ... : 8-# 0A . ... : C#3 09 . ... F96 : ... .. . ... : ... .. . ... ... : D-1 0E . ...
ROW 11 : ... .. . ... : ... .. . ... : ... .. . ... : ... .. . ... : ... .. . ... F7C : ... .. . ... : ... .. . ... ... : ... .. . ...
ROW 12 : ... .. . ... : ... .. . ... : ... .. . ... : ... .. . ... : ... .. . ... F96 : ... .. . ... : ... .. . ... ... : ... .. . ...
ROW 13 : ... .. . ... : ... .. . ... : ... .. . ... : ... .. . ... : ... .. . ... F7C : ... .. . ... : ... .. . ... ... : ... .. . ...
ROW 14 : A#2 14 . ... : F-2 14 . ... : D-3 0D . ... : ... .. . ... : ... .. . ... F96 : ... .. . ... : ... .. . ... ... : D-1 0E . ...
ROW 15 : ... .. . ... : ... .. . ... : ... .. . ... : ... .. . ... : ... .. . ... F7C : ... .. . ... : ... .. . ... ... : ... .. . ...
ROW 16 : ... .. . ... : ... .. . ... : ... .. . ... : ... .. . ... : ... .. . ... F96 : ... .. . ... : ... .. . ... ... : ... .. . ...
ROW 17 : ... .. . ... : ... .. . ... : ... .. . ... : ... .. . ... : ... .. . ... F7C : ... .. . ... : ... .. . ... ... : ... .. . ...
ROW 18 : D-2 14 . ... : A-1 14 . ... : D-3 0D . ... : ... .. . ... : ... .. . ... F96 : ... .. . ... : ... .. . ... ... : D-1 0E . ...
ROW 19 : ... .. . ... : ... .. . ... : ... .. . ... : ... .. . ... : ... .. . ... F7C : ... .. . ... : ... .. . ... ... : ... .. . ...
ROW 1A : ... .. . ... : ... .. . ... : ... .. . ... : ... .. . ... : ... .. . ... F96 : ... .. . ... : ... .. . ... ... : ... .. . ...
ROW 1B : ... .. . ... : ... .. . ... : ... .. . ... : ... .. . ... : ... .. . ... F7C : ... .. . ... : ... .. . ... ... : ... .. . ...
ROW 1C : D-2 14 . ... : A-1 14 . ... : D-3 0D . ... : ... .. . ... : ... .. . ... F96 : ... .. . ... : ... .. . ... ... : D-1 0E . ...
ROW 1D : ... .. . ... : ... .. . ... : ... .. . ... : ... .. . ... : ... .. . ... F7C : ... .. . ... : ... .. . ... ... : ... .. . ...
ROW 1E : ... .. . ... : ... .. . ... : ... .. . ... : ... .. . ... : ... .. . ... F96 : ... .. . ... : ... .. . ... ... : ... .. . ...
ROW 1F : ... .. . ... : ... .. . ... : ... .. . ... : ... .. . ... : ... .. . ... F7C : ... .. . ... : ... .. . ... ... : ... .. . ...
ROW 20 : C-3 14 . ... : G-2 14 . ... : D-3 0D . ... : 3-# 0A . ... : C-3 09 . ... F96 : ... .. . ... : ... .. . ... ... : D-1 0E . ...
ROW 21 : ... .. . ... : ... .. . ... : ... .. . ... : ... .. . ... : ... .. . ... F7C : ... .. . ... : ... .. . ... ... : ... .. . ...
ROW 22 : ... .. . ... : ... .. . ... : ... .. . ... : ... .. . ... : ... .. . ... F96 : ... .. . ... : ... .. . ... ... : ... .. . ...
ROW 23 : ... .. . ... : ... .. . ... : ... .. . ... : ... .. . ... : ... .. . ... F7C : ... .. . ... : ... .. . ... ... : ... .. . ...
ROW 24 : D-2 14 . ... : A-1 14 . ... : D-3 0D . ... : ... .. . ... : ... .. . ... F96 : ... .. . ... : ... .. . ... ... : D-1 0E . ...
ROW 25 : ... .. . ... : ... .. . ... : ... .. . ... : ... .. . ... : ... .. . ... F7C : ... .. . ... : ... .. . ... ... : ... .. . ...
ROW 26 : ... .. . ... : ... .. . ... : ... .. . ... : ... .. . ... : ... .. . ... F96 : ... .. . ... : ... .. . ... ... : ... .. . ...
ROW 27 : ... .. . ... : ... .. . ... : ... .. . ... : ... .. . ... : ... .. . ... F7C : ... .. . ... : ... .. . ... ... : ... .. . ...
ROW 28 : D-2 14 . ... : A-1 14 . ... : D-3 0D . ... : 3-# 0A . ... : C-3 09 . ... F96 : ... .. . ... : ... .. . ... ... : D-1 0E . ...
ROW 29 : ... .. . ... : ... .. . ... : ... .. . ... : ... .. . ... : ... .. . ... F7C : ... .. . ... : ... .. . ... ... : ... .. . ...
ROW 2A : ... .. . ... : ... .. . ... : ... .. . ... : ... .. . ... : ... .. . ... F96 : ... .. . ... : ... .. . ... ... : ... .. . ...
ROW 2B : ... .. . ... : ... .. . ... : ... .. . ... : ... .. . ... : ... .. . ... F7C : ... .. . ... : ... .. . ... ... : ... .. . ...
ROW 2C : A#2 14 . ... : F-2 14 . ... : D-3 0D . ... : ... .. . ... : ... .. . ... F96 : ... .. . ... : ... .. . ... ... : D-1 0E . ...
ROW 2D : ... .. . ... : ... .. . ... : ... .. . ... : ... .. . ... : ... .. . ... F7C : ... .. . ... : ... .. . ... ... : ... .. . ...
ROW 2E : ... .. . ... : ... .. . ... : ... .. . ... : ... .. . ... : ... .. . ... F96 : ... .. . ... : ... .. . ... ... : ... .. . ...
ROW 2F : ... .. . ... : ... .. . ... : ... .. . ... : ... .. . ... : ... .. . ... F7C : ... .. . ... : ... .. . ... ... : ... .. . ...
ROW 30 : D-2 14 . ... : A-1 14 . ... : D-3 0D . ... : 8-# 0A . ... : C#3 09 . ... F96 : ... .. . ... : ... .. . ... ... : D-1 0E . ...
ROW 31 : ... .. . ... : ... .. . ... : ... .. . ... : ... .. . ... : ... .. . ... F7C : ... .. . ... : ... .. . ... ... : ... .. . ...
ROW 32 : ... .. . ... : ... .. . ... : ... .. . ... : ... .. . ... : ... .. . ... F96 : ... .. . ... : ... .. . ... ... : ... .. . ...
ROW 33 : ... .. . ... : ... .. . ... : ... .. . ... : ... .. . ... : ... .. . ... F7C : ... .. . ... : ... .. . ... ... : ... .. . ...
ROW 34 : D-2 14 . ... : A-1 14 . ... : D-3 0D . ... : ... .. . ... : ... .. . ... F96 : ... .. . ... : ... .. . ... ... : D-1 0E . ...
ROW 35 : ... .. . ... : ... .. . ... : ... .. . ... : ... .. . ... : ... .. . ... F7C : ... .. . ... : ... .. . ... ... : ... .. . ...
ROW 36 : ... .. . ... : ... .. . ... : ... .. . ... : ... .. . ... : ... .. . ... F96 : ... .. . ... : ... .. . ... ... : ... .. . ...
ROW 37 : ... .. . ... : ... .. . ... : ... .. . ... : ... .. . ... : ... .. . ... F7C : ... .. . ... : ... .. . ... ... : ... .. . ...
ROW 38 : D-3 14 . ... : G-2 14 . ... : D-3 0D . ... : ... .. . ... : ... .. . ... F96 : ... .. . ... : ... .. . ... ... : D-1 0E . ...
ROW 39 : ... .. . ... : ... .. . ... : ... .. . ... : ... .. . ... : ... .. . ... F7C : ... .. . ... : ... .. . ... ... : ... .. . ...
ROW 3A : ... .. . ... : ... .. . ... : ... .. . ... : ... .. . ... : ... .. . ... F96 : ... .. . ... : ... .. . ... ... : ... .. . ...
ROW 3B : ... .. . ... : ... .. . ... : ... .. . ... : ... .. . ... : ... .. . ... F7C : ... .. . ... : ... .. . ... ... : ... .. . ...
ROW 3C : C-3 14 . ... : G-2 14 . ... : D-3 0D . ... : ... .. . ... : ... .. . ... F96 : ... .. . ... : ... .. . ... ... : D-1 0E . ...
ROW 3D : ... .. . ... : ... .. . ... : ... .. . ... : ... .. . ... : ... .. . ... F7C : ... .. . ... : ... .. . ... ... : ... .. . ...
ROW 3E : ... .. . ... : ... .. . ... : ... .. . ... : ... .. . ... : ... .. . ... F96 : ... .. . ... : ... .. . ... ... : ... .. . ...
ROW 3F : ... .. . ... : ... .. . ... : ... .. . ... : ... .. . ... : ... .. . ... F7C : ... .. . ... : ... .. . ... ... : ... .. . ...

PATTERN 37
ROW 00 : D-2 14 . ... : A-1 14 . ... : D-3 0D . ... : 3-# 0A . ... : C-3 09 . ... F96 : G-4 0F . 462 : E-4 0F . 444 ... : D-1 0E . ...
ROW 01 : ... .. . ... : ... .. . ... : ... .. . ... : ... .. . ... : ... .. . ... F7C : ... .. . ... : ... .. . ... ... : ... .. . ...
ROW 02 : ... .. . ... : ... .. . ... : ... .. . ... : ... .. . ... : ... .. . ... F96 : ... .. . ... : ... .. . ... ... : ... .. . ...
ROW 03 : ... .. . ... : ... .. . ... : ... .. . ... : ... .. . ... : ... .. . ... F7C : ... .. . ... : ... .. . ... ... : ... .. . ...
ROW 04 : D-2 14 . ... : A-1 14 . ... : D-3 0D . ... : ... .. . ... : ... .. . ... F96 : ... .. . ... : ... .. . ... ... : D-1 0E . ...
ROW 05 : ... .. . ... : ... .. . ... : ... .. . ... : ... .. . ... : ... .. . ... F7C : ... .. . ... : ... .. . ... ... : ... .. . ...
ROW 06 : ... .. . ... : ... .. . ... : ... .. . ... : ... .. . ... : ... .. . ... F96 : ... .. . ... : ... .. . ... ... : ... .. . ...
ROW 07 : ... .. . ... : ... .. . ... : ... .. . ... : ... .. . ... : ... .. . ... F7C : ... .. . ... : ... .. . ... ... : ... .. . ...
ROW 08 : A-2 14 . ... : E-2 14 . ... : D-3 0D . ... : 3-# 0A . ... : C-3 09 . ... F96 : ... .. . ... : ... .. . ... ... : D-1 0E . ...
ROW 09 : ... .. . ... : ... .. . ... : ... .. . ... : ... .. . ... : ... .. . ... F7C : ... .. . ... : ... .. . ... ... : ... .. . ...
ROW 0A : ... .. . ... : ... .. . ... : ... .. . ... : ... .. . ... : ... .. . ... F96 : ... .. . ... : ... .. . ... ... : ... .. . ...
ROW 0B : ... .. . ... : ... .. . ... : ... .. . ... : ... .. . ... : ... .. . ... F7C : ... .. . ... : ... .. . ... ... : ... .. . ...
ROW 0C : D-2 14 . ... : A-1 14 . ... : D-3 0D . ... : ... .. . ... : ... .. . ... F96 : ... .. . ... : ... .. . ... ... : D-1 0E . ...
ROW 0D : ... .. . ... : ... .. . ... : ... .. . ... : ... .. . ... : ... .. . ... F7C : ... .. . ... : ... .. . ... ... : ... .. . ...
ROW 0E : ... .. . ... : ... .. . ... : ... .. . ... : ... .. . ... : ... .. . ... F96 : ... .. . ... : ... .. . ... ... : ... .. . ...
ROW 0F : ... .. . ... : ... .. . ... : ... .. . ... : ... .. . ... : ... .. . ... F7C : ... .. . ... : ... .. . ... ... : ... .. . ...
ROW 10 : D-2 14 . ... : A-1 14 . ... : D-3 0D . ... : 8-# 0A . ... : C#3 09 . ... F96 : ... .. . ... : ... .. . ... ... : D-1 0E . ...
ROW 11 : ... .. . ... : ... .. . ... : ... .. . ... : ... .. . ... : ... .. . ... F7C : ... .. . ... : ... .. . ... ... : ... .. . ...
ROW 12 : ... .. . ... : ... .. . ... : ... .. . ... : ... .. . ... : ... .. . ... F96 : ... .. . ... : ... .. . ... ... : ... .. . ...
ROW 13 : ... .. . ... : ... .. . ... : ... .. . ... : ... .. . ... : ... .. . ... F7C : ... .. . ... : ... .. . ... ... : ... .. . ...
ROW 14 : A#2 14 . ... : F-2 14 . ... : D-3 0D . ... : ... .. . ... : ... .. . ... F96 : ... .. . ... : ... .. . ... ... : D-1 0E . ...
ROW 15 : ... .. . ... : ... .. . ... : ... .. . ... : ... .. . ... : ... .. . ... F7C : ... .. . ... : ... .. . ... ... : ... .. . ...
ROW 16 : ... .. . ... : ... .. . ... : ... .. . ... : ... .. . ... : ... .. . ... F96 : ... .. . ... : ... .. . ... ... : ... .. . ...
ROW 17 : ... .. . ... : ... .. . ... : ... .. . ... : ... .. . ... : ... .. . ... F7C : ... .. . ... : ... .. . ... ... : ... .. . ...
ROW 18 : D-2 14 . ... : A-1 14 . ... : D-3 0D . ... : ... .. . ... : ... .. . ... F96 : ... .. . ... : ... .. . ... ... : D-1 0E . ...
ROW 19 : ... .. . ... : ... .. . ... : ... .. . ... : ... .. . ... : ... .. . ... F7C : ... .. . ... : ... .. . ... ... : ... .. . ...
ROW 1A : ... .. . ... : ... .. . ... : ... .. . ... : ... .. . ... : ... .. . ... F96 : ... .. . ... : ... .. . ... ... : ... .. . ...
ROW 1B : ... .. . ... : ... .. . ... : ... .. . ... : ... .. . ... : ... .. . ... F7C : ... .. . ... : ... .. . ... ... : ... .. . ...
ROW 1C : D-2 14 . ... : A-1 14 . ... : D-3 0D . ... : ... .. . ... : ... .. . ... F96 : ... .. . ... : ... .. . ... ... : D-1 0E . ...
ROW 1D : ... .. . ... : ... .. . ... : ... .. . ... : ... .. . ... : ... .. . ... F7C : ... .. . ... : ... .. . ... ... : ... .. . ...
ROW 1E : ... .. . ... : ... .. . ... : ... .. . ... : ... .. . ... : ... .. . ... F96 : ... .. . ... : ... .. . ... ... : ... .. . ...
ROW 1F : ... .. . ... : ... .. . ... : ... .. . ... : ... .. . ... : ... .. . ... F7C : ... .. . ... : ... .. . ... ... : ... .. . ...
ROW 20 : C-3 14 . ... : G-2 14 . ... : D-3 0D . ... : 3-# 0A . ... : C-3 09 . ... F96 : ... .. . ... : ... .. . ... ... : D-1 0E . ...
ROW 21 : ... .. . ... : ... .. . ... : ... .. . ... : ... .. . ... : ... .. . ... F7C : ... .. . ... : ... .. . ... ... : ... .. . ...
ROW 22 : ... .. . ... : ... .. . ... : ... .. . ... : ... .. . ... : ... .. . ... F96 : ... .. . ... : ... .. . ... ... : ... .. . ...
ROW 23 : ... .. . ... : ... .. . ... : ... .. . ... : ... .. . ... : ... .. . ... F7C : ... .. . ... : ... .. . ... ... : ... .. . ...
ROW 24 : D-2 14 . ... : A-1 14 . ... : D-3 0D . ... : ... .. . ... : ... .. . ... F96 : ... .. . ... : ... .. . ... ... : D-1 0E . ...
ROW 25 : ... .. . ... : ... .. . ... : ... .. . ... : ... .. . ... : ... .. . ... F7C : ... .. . ... : ... .. . ... ... : ... .. . ...
ROW 26 : ... .. . ... : ... .. . ... : ... .. . ... : ... .. . ... : ... .. . ... F96 : ... .. . ... : ... .. . ... ... : ... .. . ...
ROW 27 : ... .. . ... : ... .. . ... : ... .. . ... : ... .. . ... : ... .. . ... F7C : ... .. . ... : ... .. . ... ... : ... .. . ...
ROW 28 : D-2 14 . ... : A-1 14 . ... : D-3 0D . ... : 3-# 0A . ... : C-3 09 . ... F96 : ... .. . ... : ... .. . ... ... : D-1 0E . ...
ROW 29 : ... .. . ... : ... .. . ... : ... .. . ... : ... .. . ... : ... .. . ... F7C : ... .. . ... : ... .. . ... ... : ... .. . ...
ROW 2A : ... .. . ... : ... .. . ... : ... .. . ... : ... .. . ... : ... .. . ... F96 : ... .. . ... : ... .. . ... ... : ... .. . ...
ROW 2B : ... .. . ... : ... .. . ... : ... .. . ... : ... .. . ... : ... .. . ... F7C : ... .. . ... : ... .. . ... ... : ... .. . ...
ROW 2C : A#2 14 . ... : F-2 14 . ... : D-3 0D . ... : ... .. . ... : ... .. . ... F96 : ... .. . ... : ... .. . ... ... : D-1 0E . ...
ROW 2D : ... .. . ... : ... .. . ... : ... .. . ... : ... .. . ... : ... .. . ... F7C : ... .. . ... : ... .. . ... ... : ... .. . ...
ROW 2E : ... .. . ... : ... .. . ... : ... .. . ... : ... .. . ... : ... .. . ... F96 : ... .. . ... : ... .. . ... ... : ... .. . ...
ROW 2F : ... .. . ... : ... .. . ... : ... .. . ... : ... .. . ... : ... .. . ... F7C : ... .. . ... : ... .. . ... ... : ... .. . ...
ROW 30 : D-2 14 . ... : A-1 14 . ... : D-3 0D . ... : 8-# 0A . ... : C#3 09 . ... F96 : ... .. . ... : ... .. . ... ... : D-1 0E . ...
ROW 31 : ... .. . ... : ... .. . ... : ... .. . ... : ... .. . ... : ... .. . ... F7C : ... .. . ... : ... .. . ... ... : ... .. . ...
ROW 32 : ... .. . ... : ... .. . ... : ... .. . ... : ... .. . ... : ... .. . ... F96 : ... .. . ... : ... .. . ... ... : ... .. . ...
ROW 33 : ... .. . ... : ... .. . ... : ... .. . ... : ... .. . ... : ... .. . ... F7C : ... .. . ... : ... .. . ... ... : ... .. . ...
ROW 34 : D-2 14 . ... : A-1 14 . ... : D-3 0D . ... : ... .. . ... : ... .. . ... F96 : ... .. . ... : ... .. . ... ... : D-1 0E . ...
ROW 35 : ... .. . ... : ... .. . ... : ... .. . ... : ... .. . ... : ... .. . ... F7C : ... .. . ... : ... .. . ... ... : ... .. . ...
ROW 36 : ... .. . ... : ... .. . ... : ... .. . ... : ... .. . ... : ... .. . ... F96 : ... .. . ... : ... .. . ... ... : ... .. . ...
ROW 37 : ... .. . ... : ... .. . ... : ... .. . ... : ... .. . ... : ... .. . ... F7C : ... .. . ... : ... .. . ... ... : ... .. . ...
ROW 38 : D-2 14 . ... : G-2 14 . ... : D-3 0D . ... : ... .. . ... : ... .. . ... F96 : ... .. . ... : ... .. . ... ... : D-1 0E . ...
ROW 39 : ... .. . ... : ... .. . ... : ... .. . ... : ... .. . ... : ... .. . ... F7C : ... .. . ... : ... .. . ... ... : ... .. . ...
ROW 3A : ... .. . ... : ... .. . ... : ... .. . ... : ... .. . ... : ... .. . ... F96 : ... .. . ... : ... .. . ... ... : ... .. . ...
ROW 3B : ... .. . ... : ... .. . ... : ... .. . ... : ... .. . ... : ... .. . ... F7C : ... .. . ... : ... .. . ... ... : ... .. . ...
ROW 3C : D-2 14 . ... : G-2 14 . ... : D-3 0D . ... : ... .. . ... : ... .. . ... F96 : ... .. . ... : ... .. . ... ... : D-1 0E . ...
ROW 3D : ... .. . ... : ... .. . ... : ... .. . ... : ... .. . ... : ... .. . ... F7C : ... .. . ... : ... .. . ... ... : ... .. . ...
ROW 3E : ... .. . ... : ... .. . ... : ... .. . ... : ... .. . ... : ... .. . ... F96 : ... .. . ... : ... .. . ... ... : ... .. . ...
ROW 3F : ... .. . ... : ... .. . ... : ... .. . ... : ... .. . ... : ... .. . ... F7C : ... .. . ... : ... .. . ... ... : ... .. . ...

PATTERN 38
ROW 00 : D-2 14 . ... : A-1 14 . ... : D-3 0D . ... : 3-# 0A . ... : C-3 09 . ... F96 : ... .. . ... : ... .. . ... ... : D-1 0E . ...
ROW 01 : ... .. . ... : ... .. . ... : ... .. . ... : ... .. . ... : ... .. . ... F7C : ... .. . ... : ... .. . ... ... : ... .. . ...
ROW 02 : ... .. . ... : ... .. . ... : ... .. . ... : ... .. . ... : ... .. . ... F96 : ... .. . ... : ... .. . ... ... : ... .. . ...
ROW 03 : ... .. . ... : ... .. . ... : ... .. . ... : ... .. . ... : ... .. . ... F7C : ... .. . ... : ... .. . ... ... : ... .. . ...
ROW 04 : D-2 14 . ... : A-1 14 . ... : D-3 0D . ... : ... .. . ... : ... .. . ... F96 : ... .. . ... : ... .. . ... ... : D-1 0E . ...
ROW 05 : ... .. . ... : ... .. . ... : ... .. . ... : ... .. . ... : ... .. . ... F7C : ... .. . ... : ... .. . ... ... : ... .. . ...
ROW 06 : ... .. . ... : ... .. . ... : ... .. . ... : ... .. . ... : ... .. . ... F96 : ... .. . ... : ... .. . ... ... : ... .. . ...
ROW 07 : ... .. . ... : ... .. . ... : ... .. . ... : ... .. . ... : ... .. . ... F7C : ... .. . ... : ... .. . ... ... : ... .. . ...
ROW 08 : A-2 14 . ... : E-2 14 . ... : D-3 0D . ... : 3-# 0A . ... : C-3 09 . ... F96 : ... .. . ... : ... .. . ... ... : D-1 0E . ...
ROW 09 : ... .. . ... : ... .. . ... : ... .. . ... : ... .. . ... : ... .. . ... F7C : ... .. . ... : ... .. . ... ... : ... .. . ...
ROW 0A : ... .. . ... : ... .. . ... : ... .. . ... : ... .. . ... : ... .. . ... F96 : ... .. . ... : ... .. . ... ... : ... .. . ...
ROW 0B : ... .. . ... : ... .. . ... : ... .. . ... : ... .. . ... : ... .. . ... F7C : ... .. . ... : ... .. . ... ... : ... .. . ...
ROW 0C : D-2 14 . ... : A-1 14 . ... : D-3 0D . ... : ... .. . ... : ... .. . ... F96 : ... .. . ... : ... .. . ... ... : D-1 0E . ...
ROW 0D : ... .. . ... : ... .. . ... : ... .. . ... : ... .. . ... : ... .. . ... F7C : ... .. . ... : ... .. . ... ... : ... .. . ...
ROW 0E : ... .. . ... : ... .. . ... : ... .. . ... : ... .. . ... : ... .. . ... F96 : ... .. . ... : ... .. . ... ... : ... .. . ...
ROW 0F : ... .. . ... : ... .. . ... : ... .. . ... : ... .. . ... : ... .. . ... F7C : ... .. . ... : ... .. . ... ... : ... .. . ...
ROW 10 : D-2 14 . ... : A-1 14 . ... : D-3 0D . ... : 8-# 0A . ... : C#3 09 . ... F96 : ... .. . ... : ... .. . ... ... : D-1 0E . ...
ROW 11 : ... .. . ... : ... .. . ... : ... .. . ... : ... .. . ... : ... .. . ... F7C : ... .. . ... : ... .. . ... ... : ... .. . ...
ROW 12 : ... .. . ... : ... .. . ... : ... .. . ... : ... .. . ... : ... .. . ... F96 : ... .. . ... : ... .. . ... ... : ... .. . ...
ROW 13 : ... .. . ... : ... .. . ... : ... .. . ... : ... .. . ... : ... .. . ... F7C : ... .. . ... : ... .. . ... ... : ... .. . ...
ROW 14 : A#2 14 . ... : F-2 14 . ... : D-3 0D . ... : ... .. . ... : ... .. . ... F96 : ... .. . ... : ... .. . ... ... : D-1 0E . ...
ROW 15 : ... .. . ... : ... .. . ... : ... .. . ... : ... .. . ... : ... .. . ... F7C : ... .. . ... : ... .. . ... ... : ... .. . ...
ROW 16 : ... .. . ... : ... .. . ... : ... .. . ... : ... .. . ... : ... .. . ... F96 : ... .. . ... : ... .. . ... ... : ... .. . ...
ROW 17 : ... .. . ... : ... .. . ... : ... .. . ... : ... .. . ... : ... .. . ... F7C : ... .. . ... : ... .. . ... ... : ... .. . ...
ROW 18 : D-2 14 . ... : A-1 14 . ... : D-3 0D . ... : ... .. . ... : ... .. . ... F96 : ... .. . ... : ... .. . ... ... : D-1 0E . ...
ROW 19 : ... .. . ... : ... .. . ... : ... .. . ... : ... .. . ... : ... .. . ... F7C : ... .. . ... : ... .. . ... ... : ... .. . ...
ROW 1A : ... .. . ... : ... .. . ... : ... .. . ... : ... .. . ... : ... .. . ... F96 : ... .. . ... : ... .. . ... ... : ... .. . ...
ROW 1B : ... .. . ... : ... .. . ... : ... .. . ... : ... .. . ... : ... .. . ... F7C : ... .. . ... : ... .. . ... ... : ... .. . ...
ROW 1C : D-2 14 . ... : A-1 14 . ... : D-3 0D . ... : ... .. . ... : ... .. . ... F96 : ... .. . ... : ... .. . ... ... : D-1 0E . ...
ROW 1D : ... .. . ... : ... .. . ... : ... .. . ... : ... .. . ... : ... .. . ... F7C : ... .. . ... : ... .. . ... ... : ... .. . ...
ROW 1E : ... .. . ... : ... .. . ... : ... .. . ... : ... .. . ... : ... .. . ... F96 : ... .. . ... : ... .. . ... ... : ... .. . ...
ROW 1F : ... .. . ... : ... .. . ... : ... .. . ... : ... .. . ... : ... .. . ... F7C : ... .. . ... : ... .. . ... ... : ... .. . ...
ROW 20 : C-3 14 . ... : G-2 14 . ... : D-3 0D . ... : 3-# 0A . ... : C-3 09 . ... F96 : ... .. . ... : ... .. . ... ... : D-1 0E . ...
ROW 21 : ... .. . ... : ... .. . ... : ... .. . ... : ... .. . ... : ... .. . ... F7C : ... .. . ... : ... .. . ... ... : ... .. . ...
ROW 22 : ... .. . ... : ... .. . ... : ... .. . ... : ... .. . ... : ... .. . ... F96 : ... .. . ... : ... .. . ... ... : ... .. . ...
ROW 23 : ... .. . ... : ... .. . ... : ... .. . ... : ... .. . ... : ... .. . ... F7C : ... .. . ... : ... .. . ... ... : ... .. . ...
ROW 24 : D-2 14 . ... : A-1 14 . ... : D-3 0D . ... : ... .. . ... : ... .. . ... F96 : ... .. . ... : ... .. . ... ... : D-1 0E . ...
ROW 25 : ... .. . ... : ... .. . ... : ... .. . ... : ... .. . ... : ... .. . ... F7C : ... .. . ... : ... .. . ... ... : ... .. . ...
ROW 26 : ... .. . ... : ... .. . ... : ... .. . ... : ... .. . ... : ... .. . ... F96 : ... .. . ... : ... .. . ... ... : ... .. . ...
ROW 27 : ... .. . ... : ... .. . ... : ... .. . ... : ... .. . ... : ... .. . ... F7C : ... .. . ... : ... .. . ... ... : ... .. . ...
ROW 28 : D-2 14 . ... : A-1 14 . ... : D-3 0D . ... : 3-# 0A . ... : C-3 09 . ... F96 : ... .. . ... : ... .. . ... ... : D-1 0E . ...
ROW 29 : ... .. . ... : ... .. . ... : ... .. . ... : ... .. . ... : ... .. . ... F7C : ... .. . ... : ... .. . ... ... : ... .. . ...
ROW 2A : ... .. . ... : ... .. . ... : ... .. . ... : ... .. . ... : ... .. . ... F96 : ... .. . ... : ... .. . ... ... : ... .. . ...
ROW 2B : ... .. . ... : ... .. . ... : ... .. . ... : ... .. . ... : ... .. . ... F7C : ... .. . ... : ... .. . ... ... : ... .. . ...
ROW 2C : A#2 14 . ... : F-2 14 . ... : D-3 0D . ... : ... .. . ... : ... .. . ... F96 : ... .. . ... : ... .. . ... ... : D-1 0E . ...
ROW 2D : ... .. . ... : ... .. . ... : ... .. . ... : ... .. . ... : ... .. . ... F7C : ... .. . ... : ... .. . ... ... : ... .. . ...
ROW 2E : ... .. . ... : ... .. . ... : ... .. . ... : ... .. . ... : ... .. . ... F96 : ... .. . ... : ... .. . ... ... : ... .. . ...
ROW 2F : ... .. . ... : ... .. . ... : ... .. . ... : ... .. . ... : ... .. . ... F7C : ... .. . ... : ... .. . ... ... : ... .. . ...
ROW 30 : D-2 14 . ... : A-1 14 . ... : D-3 0D . ... : 8-# 0A . ... : C#3 09 . ... F96 : ... .. . ... : ... .. . ... ... : D-1 0E . ...
ROW 31 : ... .. . ... : ... .. . ... : ... .. . ... : ... .. . ... : ... .. . ... F7C : ... .. . ... : ... .. . ... ... : ... .. . ...
ROW 32 : ... .. . ... : ... .. . ... : ... .. . ... : ... .. . ... : ... .. . ... F96 : ... .. . ... : ... .. . ... ... : ... .. . ...
ROW 33 : ... .. . ... : ... .. . ... : ... .. . ... : ... .. . ... : ... .. . ... F7C : ... .. . ... : ... .. . ... ... : ... .. . ...
ROW 34 : D-2 14 . ... : A-1 14 . ... : D-3 0D . ... : ... .. . ... : ... .. . ... F96 : ... .. . ... : ... .. . ... ... : D-1 0E . ...
ROW 35 : ... .. . ... : ... .. . ... : ... .. . ... : ... .. . ... : ... .. . ... F7C : ... .. . ... : ... .. . ... ... : ... .. . ...
ROW 36 : ... .. . ... : ... .. . ... : ... .. . ... : ... .. . ... : ... .. . ... F96 : ... .. . ... : ... .. . ... ... : ... .. . ...
ROW 37 : ... .. . ... : ... .. . ... : ... .. . ... : ... .. . ... : ... .. . ... F7C : ... .. . ... : ... .. . ... ... : ... .. . ...
ROW 38 : D-3 14 . ... : G-2 14 . ... : D-3 0D . ... : ... .. . ... : ... .. . ... F96 : ... .. . ... : ... .. . ... ... : D-1 0E . ...
ROW 39 : ... .. . ... : ... .. . ... : ... .. . ... : ... .. . ... : ... .. . ... F7C : ... .. . ... : ... .. . ... ... : ... .. . ...
ROW 3A : ... .. . ... : ... .. . ... : ... .. . ... : ... .. . ... : ... .. . ... F96 : ... .. . ... : ... .. . ... ... : ... .. . ...
ROW 3B : ... .. . ... : ... .. . ... : ... .. . ... : ... .. . ... : ... .. . ... F7C : ... .. . ... : ... .. . ... ... : ... .. . ...
ROW 3C : C-3 14 . ... : G-2 14 . ... : D-3 0D . ... : ... .. . ... : ... .. . ... F96 : ... .. . ... : ... .. . ... ... : D-1 0E . ...
ROW 3D : ... .. . ... : ... .. . ... : ... .. . ... : ... .. . ... : ... .. . ... F7C : ... .. . ... : ... .. . ... ... : ... .. . ...
ROW 3E : ... .. . ... : ... .. . ... : ... .. . ... : ... .. . ... : ... .. . ... F96 : ... .. . ... : ... .. . ... ... : ... .. . ...
ROW 3F : ... .. . ... : ... .. . ... : ... .. . ... : ... .. . ... : ... .. . ... F7C : ... .. . ... : ... .. . ... ... : ... .. . ...

PATTERN 39
ROW 00 : D-2 14 . ... : A-1 14 . ... : D-3 0D . ... : 3-# 0A . ... : C-3 09 . ... F96 : F-4 0F . 462 : D-4 0F . 444 ... : D-1 0E . ...
ROW 01 : ... .. . ... : ... .. . ... : ... .. . ... : ... .. . ... : ... .. . ... F7C : ... .. . ... : ... .. . ... ... : ... .. . ...
ROW 02 : ... .. . ... : ... .. . ... : ... .. . ... : ... .. . ... : ... .. . ... F96 : ... .. . ... : ... .. . ... ... : ... .. . ...
ROW 03 : ... .. . ... : ... .. . ... : ... .. . ... : ... .. . ... : ... .. . ... F7C : ... .. . ... : ... .. . ... ... : ... .. . ...
ROW 04 : D-2 14 . ... : A-1 14 . ... : D-3 0D . ... : ... .. . ... : ... .. . ... F96 : ... .. . ... : ... .. . ... ... : D-1 0E . ...
ROW 05 : ... .. . ... : ... .. . ... : ... .. . ... : ... .. . ... : ... .. . ... F7C : ... .. . ... : ... .. . ... ... : ... .. . ...
ROW 06 : ... .. . ... : ... .. . ... : ... .. . ... : ... .. . ... : ... .. . ... F96 : ... .. . ... : ... .. . ... ... : ... .. . ...
ROW 07 : ... .. . ... : ... .. . ... : ... .. . ... : ... .. . ... : ... .. . ... F7C : ... .. . ... : ... .. . ... ... : ... .. . ...
ROW 08 : A-2 14 . ... : E-2 14 . ... : D-3 0D . ... : 3-# 0A . ... : C-3 09 . ... F96 : ... .. . ... : ... .. . ... ... : D-1 0E . ...
ROW 09 : ... .. . ... : ... .. . ... : ... .. . ... : ... .. . ... : ... .. . ... F7C : ... .. . ... : ... .. . ... ... : ... .. . ...
ROW 0A : ... .. . ... : ... .. . ... : ... .. . ... : ... .. . ... : ... .. . ... F96 : ... .. . ... : ... .. . ... ... : ... .. . ...
ROW 0B : ... .. . ... : ... .. . ... : ... .. . ... : ... .. . ... : ... .. . ... F7C : ... .. . ... : ... .. . ... ... : ... .. . ...
ROW 0C : D-2 14 . ... : A-1 14 . ... : D-3 0D . ... : ... .. . ... : ... .. . ... F96 : ... .. . ... : ... .. . ... ... : D-1 0E . ...
ROW 0D : ... .. . ... : ... .. . ... : ... .. . ... : ... .. . ... : ... .. . ... F7C : ... .. . ... : ... .. . ... ... : ... .. . ...
ROW 0E : ... .. . ... : ... .. . ... : ... .. . ... : ... .. . ... : ... .. . ... F96 : ... .. . ... : ... .. . ... ... : ... .. . ...
ROW 0F : ... .. . ... : ... .. . ... : ... .. . ... : ... .. . ... : ... .. . ... F7C : ... .. . ... : ... .. . ... ... : ... .. . ...
ROW 10 : D-2 14 . ... : A-1 14 . ... : D-3 0D . ... : 8-# 0A . ... : C#3 09 . ... F96 : ... .. . ... : ... .. . ... ... : D-1 0E . ...
ROW 11 : ... .. . ... : ... .. . ... : ... .. . ... : ... .. . ... : ... .. . ... F7C : ... .. . ... : ... .. . ... ... : ... .. . ...
ROW 12 : ... .. . ... : ... .. . ... : ... .. . ... : ... .. . ... : ... .. . ... F96 : ... .. . ... : ... .. . ... ... : ... .. . ...
ROW 13 : ... .. . ... : ... .. . ... : ... .. . ... : ... .. . ... : ... .. . ... F7C : ... .. . ... : ... .. . ... ... : ... .. . ...
ROW 14 : A#2 14 . ... : F-2 14 . ... : D-3 0D . ... : ... .. . ... : ... .. . ... F96 : ... .. . ... : ... .. . ... ... : D-1 0E . ...
ROW 15 : ... .. . ... : ... .. . ... : ... .. . ... : ... .. . ... : ... .. . ... F7C : ... .. . ... : ... .. . ... ... : ... .. . ...
ROW 16 : ... .. . ... : ... .. . ... : ... .. . ... : ... .. . ... : ... .. . ... F96 : ... .. . ... : ... .. . ... ... : ... .. . ...
ROW 17 : ... .. . ... : ... .. . ... : ... .. . ... : ... .. . ... : ... .. . ... F7C : ... .. . ... : ... .. . ... ... : ... .. . ...
ROW 18 : D-2 14 . ... : A-1 14 . ... : D-3 0D . ... : ... .. . ... : ... .. . ... F96 : ... .. . ... : ... .. . ... ... : D-1 0E . ...
ROW 19 : ... .. . ... : ... .. . ... : ... .. . ... : ... .. . ... : ... .. . ... F7C : ... .. . ... : ... .. . ... ... : ... .. . ...
ROW 1A : ... .. . ... : ... .. . ... : ... .. . ... : ... .. . ... : ... .. . ... F96 : ... .. . ... : ... .. . ... ... : ... .. . ...
ROW 1B : ... .. . ... : ... .. . ... : ... .. . ... : ... .. . ... : ... .. . ... F7C : ... .. . ... : ... .. . ... ... : ... .. . ...
ROW 1C : D-2 14 . ... : A-1 14 . ... : D-3 0D . ... : ... .. . ... : ... .. . ... F96 : ... .. . ... : ... .. . ... ... : D-1 0E . ...
ROW 1D : ... .. . ... : ... .. . ... : ... .. . ... : ... .. . ... : ... .. . ... F7C : ... .. . ... : ... .. . ... ... : ... .. . ...
ROW 1E : ... .. . ... : ... .. . ... : ... .. . ... : ... .. . ... : ... .. . ... F96 : ... .. . ... : ... .. . ... ... : ... .. . ...
ROW 1F : ... .. . ... : ... .. . ... : ... .. . ... : ... .. . ... : ... .. . ... F7C : ... .. . ... : ... .. . ... ... : ... .. . ...
ROW 20 : C-3 14 . ... : G-2 14 . ... : D-3 0D . ... : 3-# 0A . ... : C-3 09 . ... F96 : ... .. . ... : ... .. . ... ... : D-1 0E . ...
ROW 21 : ... .. . ... : ... .. . ... : ... .. . ... : ... .. . ... : ... .. . ... F7C : ... .. . ... : ... .. . ... ... : ... .. . ...
ROW 22 : ... .. . ... : ... .. . ... : ... .. . ... : ... .. . ... : ... .. . ... F96 : ... .. . ... : ... .. . ... ... : ... .. . ...
ROW 23 : ... .. . ... : ... .. . ... : ... .. . ... : ... .. . ... : ... .. . ... F7C : ... .. . ... : ... .. . ... ... : ... .. . ...
ROW 24 : D-2 14 . ... : A-1 14 . ... : D-3 0D . ... : ... .. . ... : ... .. . ... F96 : ... .. . ... : ... .. . ... ... : D-1 0E . ...
ROW 25 : ... .. . ... : ... .. . ... : ... .. . ... : ... .. . ... : ... .. . ... F7C : ... .. . ... : ... .. . ... ... : ... .. . ...
ROW 26 : ... .. . ... : ... .. . ... : ... .. . ... : ... .. . ... : ... .. . ... F96 : ... .. . ... : ... .. . ... ... : ... .. . ...
ROW 27 : ... .. . ... : ... .. . ... : ... .. . ... : ... .. . ... : ... .. . ... F7C : ... .. . ... : ... .. . ... ... : ... .. . ...
ROW 28 : D-2 14 . ... : A-1 14 . ... : D-3 0D . ... : 3-# 0A . ... : C-3 09 . ... F96 : ... .. . ... : ... .. . ... ... : D-1 0E . ...
ROW 29 : ... .. . ... : ... .. . ... : ... .. . ... : ... .. . ... : ... .. . ... F7C : ... .. . ... : ... .. . ... ... : ... .. . ...
ROW 2A : ... .. . ... : ... .. . ... : ... .. . ... : ... .. . ... : ... .. . ... F96 : ... .. . ... : ... .. . ... ... : ... .. . ...
ROW 2B : ... .. . ... : ... .. . ... : ... .. . ... : ... .. . ... : ... .. . ... F7C : ... .. . ... : ... .. . ... ... : ... .. . ...
ROW 2C : A#2 14 . ... : F-2 14 . ... : D-3 0D . ... : ... .. . ... : ... .. . ... F96 : ... .. . ... : ... .. . ... ... : D-1 0E . ...
ROW 2D : ... .. . ... : ... .. . ... : ... .. . ... : ... .. . ... : ... .. . ... F7C : ... .. . ... : ... .. . ... ... : ... .. . ...
ROW 2E : ... .. . ... : ... .. . ... : ... .. . ... : ... .. . ... : ... .. . ... F96 : ... .. . ... : ... .. . ... ... : ... .. . ...
ROW 2F : ... .. . ... : ... .. . ... : ... .. . ... : ... .. . ... : ... .. . ... F7C : ... .. . ... : ... .. . ... ... : ... .. . ...
ROW 30 : D-2 14 . ... : A-1 14 . ... : D-3 0D . ... : 8-# 0A . ... : C#3 09 . ... F96 : ... .. . ... : ... .. . ... ... : D-1 0E . ...
ROW 31 : ... .. . ... : ... .. . ... : ... .. . ... : ... .. . ... : ... .. . ... F7C : ... .. . ... : ... .. . ... ... : ... .. . ...
ROW 32 : ... .. . ... : ... .. . ... : ... .. . ... : ... .. . ... : ... .. . ... F96 : ... .. . ... : ... .. . ... ... : ... .. . ...
ROW 33 : ... .. . ... : ... .. . ... : ... .. . ... : ... .. . ... : ... .. . ... F7C : ... .. . ... : ... .. . ... ... : ... .. . ...
ROW 34 : D-2 14 . ... : A-1 14 . ... : D-3 0D . ... : ... .. . ... : ... .. . ... F96 : ... .. . ... : ... .. . ... ... : D-1 0E . ...
ROW 35 : ... .. . ... : ... .. . ... : ... .. . ... : ... .. . ... : ... .. . ... F7C : ... .. . ... : ... .. . ... ... : ... .. . ...
ROW 36 : ... .. . ... : ... .. . ... : ... .. . ... : ... .. . ... : ... .. . ... F96 : ... .. . ... : ... .. . ... ... : ... .. . ...
ROW 37 : ... .. . ... : ... .. . ... : ... .. . ... : ... .. . ... : ... .. . ... F7C : ... .. . ... : ... .. . ... ... : ... .. . ...
ROW 38 : D-2 14 . ... : G-2 14 . ... : D-3 0D . ... : ... .. . ... : ... .. . ... F96 : ... .. . ... : ... .. . ... ... : D-1 0E . ...
ROW 39 : ... .. . ... : ... .. . ... : ... .. . ... : ... .. . ... : ... .. . ... F7C : ... .. . ... : ... .. . ... ... : ... .. . ...
ROW 3A : ... .. . ... : ... .. . ... : ... .. . ... : ... .. . ... : ... .. . ... F96 : ... .. . ... : ... .. . ... ... : ... .. . ...
ROW 3B : ... .. . ... : ... .. . ... : ... .. . ... : ... .. . ... : ... .. . ... F7C : ... .. . ... : ... .. . ... ... : ... .. . ...
ROW 3C : D-2 14 . ... : G-2 14 . ... : D-3 0D . ... : ... .. . ... : ... .. . ... F96 : ... .. . ... : ... .. . ... ... : D-1 0E . ...
ROW 3D : ... .. . ... : ... .. . ... : ... .. . ... : ... .. . ... : ... .. . ... F7C : ... .. . ... : ... .. . ... ... : ... .. . ...
ROW 3E : ... .. . ... : ... .. . ... : ... .. . ... : ... .. . ... : ... .. . ... F96 : ... .. . ... : ... .. . ... ... : ... .. . ...
ROW 3F : ... .. . ... : ... .. . ... : ... .. . ... : ... .. . ... : ... .. . ... F7C : ... .. . ... : ... .. . ... ... : ... .. . ...

PATTERN 3A
ROW 00 : D-2 14 . ... : A-1 14 . ... : D-3 0D . ... : 3-# 0A . ... : C-3 09 . ... F96 : ... .. . ... : ... .. . ... ... : D-1 0E . ...
ROW 01 : ... .. . ... : ... .. . ... : ... .. . ... : ... .. . ... : ... .. . ... F7C : ... .. . ... : ... .. . ... ... : ... .. . ...
ROW 02 : ... .. . ... : ... .. . ... : ... .. . ... : ... .. . ... : ... .. . ... F96 : ... .. . ... : ... .. . ... ... : ... .. . ...
ROW 03 : ... .. . ... : ... .. . ... : ... .. . ... : ... .. . ... : ... .. . ... F7C : ... .. . ... : ... .. . ... ... : ... .. . ...
ROW 04 : D-2 14 . ... : A-1 14 . ... : D-3 0D . ... : ... .. . ... : ... .. . ... F96 : ... .. . ... : ... .. . ... ... : D-1 0E . ...
ROW 05 : ... .. . ... : ... .. . ... : ... .. . ... : ... .. . ... : ... .. . ... F7C : ... .. . ... : ... .. . ... ... : ... .. . ...
ROW 06 : ... .. . ... : ... .. . ... : ... .. . ... : ... .. . ... : ... .. . ... F96 : ... .. . ... : ... .. . ... ... : ... .. . ...
ROW 07 : ... .. . ... : ... .. . ... : ... .. . ... : ... .. . ... : ... .. . ... F7C : ... .. . ... : ... .. . ... ... : ... .. . ...
ROW 08 : A-2 14 . ... : E-2 14 . ... : D-3 0D . ... : 3-# 0A . ... : C-3 09 . ... F96 : ... .. . ... : ... .. . ... ... : D-1 0E . ...
ROW 09 : ... .. . ... : ... .. . ... : ... .. . ... : ... .. . ... : ... .. . ... F7C : ... .. . ... : ... .. . ... ... : ... .. . ...
ROW 0A : ... .. . ... : ... .. . ... : ... .. . ... : ... .. . ... : ... .. . ... F96 : ... .. . ... : ... .. . ... ... : ... .. . ...
ROW 0B : ... .. . ... : ... .. . ... : ... .. . ... : ... .. . ... : ... .. . ... F7C : ... .. . ... : ... .. . ... ... : ... .. . ...
ROW 0C : D-2 14 . ... : A-1 14 . ... : D-3 0D . ... : ... .. . ... : ... .. . ... F96 : ... .. . ... : ... .. . ... ... : D-1 0E . ...
ROW 0D : ... .. . ... : ... .. . ... : ... .. . ... : ... .. . ... : ... .. . ... F7C : ... .. . ... : ... .. . ... ... : ... .. . ...
ROW 0E : ... .. . ... : ... .. . ... : ... .. . ... : ... .. . ... : ... .. . ... F96 : ... .. . ... : ... .. . ... ... : ... .. . ...
ROW 0F : ... .. . ... : ... .. . ... : ... .. . ... : ... .. . ... : ... .. . ... F7C : ... .. . ... : ... .. . ... ... : ... .. . ...
ROW 10 : D-2 14 . ... : A-1 14 . ... : D-3 0D . ... : 8-# 0A . ... : C#3 09 . ... F96 : ... .. . ... : ... .. . ... ... : D-1 0E . ...
ROW 11 : ... .. . ... : ... .. . ... : ... .. . ... : ... .. . ... : ... .. . ... F7C : ... .. . ... : ... .. . ... ... : ... .. . ...
ROW 12 : ... .. . ... : ... .. . ... : ... .. . ... : ... .. . ... : ... .. . ... F96 : ... .. . ... : ... .. . ... ... : ... .. . ...
ROW 13 : ... .. . ... : ... .. . ... : ... .. . ... : ... .. . ... : ... .. . ... F7C : ... .. . ... : ... .. . ... ... : ... .. . ...
ROW 14 : A#2 14 . ... : F-2 14 . ... : D-3 0D . ... : ... .. . ... : ... .. . ... F96 : ... .. . ... : ... .. . ... ... : D-1 0E . ...
ROW 15 : ... .. . ... : ... .. . ... : ... .. . ... : ... .. . ... : ... .. . ... F7C : ... .. . ... : ... .. . ... ... : ... .. . ...
ROW 16 : ... .. . ... : ... .. . ... : ... .. . ... : ... .. . ... : ... .. . ... F96 : ... .. . ... : ... .. . ... ... : ... .. . ...
ROW 17 : ... .. . ... : ... .. . ... : ... .. . ... : ... .. . ... : ... .. . ... F7C : ... .. . ... : ... .. . ... ... : ... .. . ...
ROW 18 : D-2 14 . ... : A-1 14 . ... : D-3 0D . ... : ... .. . ... : ... .. . ... F96 : ... .. . ... : ... .. . ... ... : D-1 0E . ...
ROW 19 : ... .. . ... : ... .. . ... : ... .. . ... : ... .. . ... : ... .. . ... F7C : ... .. . ... : ... .. . ... ... : ... .. . ...
ROW 1A : ... .. . ... : ... .. . ... : ... .. . ... : ... .. . ... : ... .. . ... F96 : ... .. . ... : ... .. . ... ... : ... .. . ...
ROW 1B : ... .. . ... : ... .. . ... : ... .. . ... : ... .. . ... : ... .. . ... F7C : ... .. . ... : ... .. . ... ... : ... .. . ...
ROW 1C : D-2 14 . ... : A-1 14 . ... : D-3 0D . ... : ... .. . ... : ... .. . ... F96 : ... .. . ... : ... .. . ... ... : D-1 0E . ...
ROW 1D : ... .. . ... : ... .. . ... : ... .. . ... : ... .. . ... : ... .. . ... F7C : ... .. . ... : ... .. . ... ... : ... .. . ...
ROW 1E : ... .. . ... : ... .. . ... : ... .. . ... : ... .. . ... : ... .. . ... F96 : ... .. . ... : ... .. . ... ... : ... .. . ...
ROW 1F : ... .. . ... : ... .. . ... : ... .. . ... : ... .. . ... : ... .. . ... F7C : ... .. . ... : ... .. . ... ... : ... .. . ...
ROW 20 : C-3 14 . ... : G-2 14 . ... : D-3 0D . ... : 8-# 0A . ... : C#3 09 . ... F96 : D-1 0E D 400 : --- 00 . 400 ... : F-3 0E F ...
ROW 21 : ... .. . ... : ... .. . ... : ... .. . ... : ... .. . ... : ... .. . ... F7C : ... .. . ... : ... .. . ... ... : ... .. . ...
ROW 22 : ... .. . ... : ... .. . ... : ... .. . ... : 8-# 0A . ... : C#3 09 . ... F96 : ... .. . ... : ... .. . ... ... : ... .. . ...
ROW 23 : ... .. . ... : ... .. . ... : ... .. . ... : ... .. . ... : ... .. . ... F7C : ... .. . ... : ... .. . ... ... : ... .. . ...
ROW 24 : D-2 14 . ... : A-1 14 . ... : D-3 0D . ... : 8-# 0A . ... : C#3 09 . ... F96 : ... .. . ... : F-3 0E 9 ... P7E : ... .. . ...
ROW 25 : ... .. . ... : ... .. . ... : ... .. . ... : ... .. . ... : ... .. . ... F7C : ... .. . ... : ... .. . ... ... : ... .. . ...
ROW 26 : ... .. . ... : ... .. . ... : ... .. . ... : 8-# 0A . ... : C#3 09 . ... F96 : ... .. . ... : ... .. . ... ... : ... .. . ...
ROW 27 : ... .. . ... : ... .. . ... : ... .. . ... : ... .. . ... : ... .. . ... F7C : ... .. . ... : ... .. . ... ... : ... .. . ...
ROW 28 : D-2 14 . ... : A-1 14 . ... : D-3 0D . ... : 8-# 0A . ... : C#3 09 . ... F96 : ... .. . ... : ... .. . ... ... : ... .. . 102
ROW 29 : ... .. . ... : ... .. . ... : ... .. . ... : ... .. . ... : ... .. . ... F7C : ... .. . ... : ... .. . ... ... : ... .. . 106
ROW 2A : ... .. . ... : ... .. . ... : ... .. . ... : 8-# 0A . ... : C#3 09 . ... F96 : ... .. . ... : ... .. . ... ... : ... .. . 103
ROW 2B : ... .. . ... : ... .. . ... : ... .. . ... : ... .. . ... : ... .. . ... F7C : ... .. . ... : ... .. . ... ... : ... .. . 105
ROW 2C : A#2 14 . ... : F-2 14 . ... : D-3 0D . ... : 8-# 0A . ... : C#3 09 . ... F96 : ... .. . ... : ... .. . 102 ... : ... .. . 103
ROW 2D : ... .. . ... : ... .. . ... : ... .. . ... : ... .. . ... : ... .. . ... F7C : ... .. . ... : ... .. . 106 ... : ... .. . 105
ROW 2E : ... .. . ... : ... .. . ... : ... .. . ... : 8-# 0A . ... : C#3 09 . ... F96 : ... .. . ... : ... .. . 102 ... : ... .. . 102
ROW 2F : ... .. . ... : ... .. . ... : ... .. . ... : ... .. . ... : ... .. . ... F7C : ... .. . ... : ... .. . 105 ... : ... .. . 106
ROW 30 : D-2 14 . ... : A-1 14 . ... : D-3 0D . ... : 8-# 0A . ... : C#3 09 . ... F96 : ... .. . ... : ... .. . 102 ... : ... .. . 103
ROW 31 : ... .. . ... : ... .. . ... : ... .. . ... : ... .. . ... : ... .. . ... F7C : ... .. . ... : ... .. . 105 ... : ... .. . 105
ROW 32 : ... .. . ... : ... .. . ... : ... .. . ... : 8-# 0A . ... : C#3 09 . ... F96 : ... .. . ... : ... .. . 102 ... : ... .. . 103
ROW 33 : ... .. . ... : ... .. . ... : ... .. . ... : ... .. . ... : ... .. . ... F7C : ... .. . ... : ... .. . 106 ... : ... .. . 105
ROW 34 : D-2 14 . ... : A-1 14 . ... : D-3 0D . ... : 8-# 0A . ... : C#3 09 . ... F96 : ... .. . ... : ... .. . 102 ... : ... .. . 102
ROW 35 : ... .. . ... : ... .. . ... : ... .. . ... : ... .. . ... : ... .. . ... F7C : ... .. . ... : ... .. . 105 ... : ... .. . 106
ROW 36 : ... .. . ... : ... .. . ... : ... .. . ... : 8-# 0A . ... : C#3 09 . ... F96 : ... .. . ... : ... .. . 102 ... : ... .. . 103
ROW 37 : ... .. . ... : ... .. . ... : ... .. . ... : ... .. . ... : ... .. . ... F7C : ... .. . ... : ... .. . 105 ... : ... .. . 105
ROW 38 : D-3 14 . ... : G-2 14 . ... : D-3 0D . ... : 8-# 0A . ... : C#3 09 . ... F96 : ... .. . ... : ... .. . 102 ... : ... .. . 103
ROW 39 : ... .. . ... : ... .. . ... : ... .. . ... : ... .. . ... : ... .. . ... F7C : ... .. . ... : ... .. . 106 ... : ... .. . 105
ROW 3A : ... .. . ... : ... .. . ... : ... .. . ... : 8-# 0A . ... : C#3 09 . ... F96 : ... .. . ... : ... .. . 102 ... : ... .. . 102
ROW 3B : ... .. . ... : ... .. . ... : ... .. . ... : ... .. . ... : ... .. . ... F7C : ... .. . ... : ... .. . 105 ... : ... .. . 106
ROW 3C : C-3 14 . ... : G-2 14 . ... : D-3 0D . ... : 8-# 0A . ... : C#3 09 . ... F96 : ... .. . ... : ... .. . 102 ... : ... .. . 103
ROW 3D : ... .. . ... : ... .. . ... : ... .. . ... : ... .. . ... : ... .. . ... F7C : ... .. . ... : ... .. . 105 ... : ... .. . 105
ROW 3E : ... .. . ... : ... .. . ... : ... .. . ... : 8-# 0A . ... : C#3 09 . ... F96 : ... .. . ... : ... .. . 102 ... : ... .. . 103
ROW 3F : ... .. . ... : ... .. . ... : ... .. . ... : ... .. . ... : ... .. . ... F7C : ... .. . ... : ... .. . 106 ... : ... .. . 105

PATTERN 3B
ROW 00 : D-2 14 . ... : A-1 14 . ... : D-3 0D . ... : 3-# 0A . ... : C-3 09 . ... F96 : D-1 0E . ... : ... .. . 102 ... : A-4 0E . 100
ROW 01 : ... .. . ... : ... .. . ... : ... .. . ... : ... .. . ... : ... .. . ... F7C : ... .. . ... : ... .. . 105 ... : ... .. . ...
ROW 02 : ... .. . ... : ... .. . ... : ... .. . ... : ... .. . ... : ... .. . ... F96 : ... .. . ... : ... .. . 102 ... : ... .. . ...
ROW 03 : ... .. . ... : ... .. . ... : ... .. . ... : ... .. . ... : ... .. . ... F7C : ... .. . ... : ... .. . 105 ... : ... .. . ...
ROW 04 : D-2 14 . ... : A-1 14 . ... : D-3 0D . ... : ... .. . ... : ... .. . ... F96 : D-1 0E . ... : A-4 0E . 100 ... : F-4 0E . ...
ROW 05 : ... .. . ... : ... .. . ... : ... .. . ... : ... .. . ... : ... .. . ... F7C : ... .. . ... : ... .. . ... ... : ... .. . ...
ROW 06 : ... .. . ... : ... .. . ... : ... .. . ... : 3-# 0A . ... : C-3 09 . ... F96 : ... .. . ... : ... .. . ... ... : ... .. . ...
ROW 07 : ... .. . ... : ... .. . ... : ... .. . ... : ... .. . ... : ... .. . ... F7C : ... .. . ... : ... .. . ... ... : ... .. . ...
ROW 08 : D-3 14 . ... : A-2 14 . ... : D-3 0D . ... : 8-# 0A . ... : C#3 09 . ... F96 : D-1 0E . ... : F-4 0E . ... ... : D-4 0E . ...
ROW 09 : ... .. . ... : ... .. . ... : ... .. . ... : ... .. . ... : ... .. . ... F7C : ... .. . ... : ... .. . ... ... : ... .. . ...
ROW 0A : ... .. . ... : ... .. . ... : ... .. . ... : ... .. . ... : ... .. . ... F96 : ... .. . ... : ... .. . ... ... : ... .. . ...
ROW 0B : ... .. . ... : ... .. . ... : ... .. . ... : ... .. . ... : ... .. . ... F7C : ... .. . ... : ... .. . ... ... : ... .. . ...
ROW 0C : D-2 14 . ... : A-1 14 . ... : D-3 0D . ... : ... .. . ... : ... .. . ... F96 : D-1 0E . ... : D-4 0E . ... ... : A-4 0E . ...
ROW 0D : ... .. . ... : ... .. . ... : ... .. . ... : ... .. . ... : ... .. . ... F7C : ... .. . ... : ... .. . ... ... : ... .. . ...
ROW 0E : ... .. . ... : ... .. . ... : ... .. . ... : ... .. . ... : ... .. . ... F96 : ... .. . ... : ... .. . ... ... : ... .. . ...
ROW 0F : ... .. . ... : ... .. . ... : ... .. . ... : ... .. . ... : ... .. . ... F7C : ... .. . ... : ... .. . ... ... : ... .. . ...
ROW 10 : D-2 14 . ... : A-1 14 . ... : D-3 0D . ... : 3-# 0A . ... : C-3 09 . ... F96 : D-1 0E . ... : A-4 0E . ... ... : F-4 0E . ...
ROW 11 : ... .. . ... : ... .. . ... : ... .. . ... : ... .. . ... : ... .. . ... F7C : ... .. . ... : ... .. . ... ... : ... .. . ...
ROW 12 : ... .. . ... : ... .. . ... : ... .. . ... : ... .. . ... : ... .. . ... F96 : ... .. . ... : ... .. . ... ... : ... .. . ...
ROW 13 : ... .. . ... : ... .. . ... : ... .. . ... : ... .. . ... : ... .. . ... F7C : ... .. . ... : ... .. . ... ... : ... .. . ...
ROW 14 : D-3 14 . ... : A-2 14 . ... : D-3 0D . ... : 3-# 0A . ... : C-3 09 . ... F96 : D-1 0E . ... : F-4 0E . ... ... : D-4 0E . ...
ROW 15 : ... .. . ... : ... .. . ... : ... .. . ... : ... .. . ... : ... .. . ... F7C : ... .. . ... : ... .. . ... ... : ... .. . ...
ROW 16 : ... .. . ... : ... .. . ... : ... .. . ... : 3-# 0A . ... : C-3 09 . ... F96 : ... .. . ... : ... .. . ... ... : ... .. . ...
ROW 17 : ... .. . ... : ... .. . ... : ... .. . ... : ... .. . ... : ... .. . ... F7C : ... .. . ... : ... .. . ... ... : ... .. . ...
ROW 18 : D-2 14 . ... : A-1 14 . ... : D-3 0D . ... : 8-# 0A . ... : C#3 09 . ... F96 : D-1 0E . ... : D-4 0E . ... ... : A-4 0E . ...
ROW 19 : ... .. . ... : ... .. . ... : ... .. . ... : ... .. . ... : ... .. . ... F7C : ... .. . ... : ... .. . ... ... : ... .. . ...
ROW 1A : ... .. . ... : ... .. . ... : ... .. . ... : ... .. . ... : ... .. . ... F96 : ... .. . ... : ... .. . ... ... : ... .. . ...
ROW 1B : ... .. . ... : ... .. . ... : ... .. . ... : ... .. . ... : ... .. . ... F7C : ... .. . ... : ... .. . ... ... : ... .. . ...
ROW 1C : D-2 14 . ... : A-1 14 . ... : D-3 0D . ... : ... .. . ... : ... .. . ... F96 : D-1 0E . ... : A-4 0E . ... ... : F-4 0E . ...
ROW 1D : ... .. . ... : ... .. . ... : ... .. . ... : ... .. . ... : ... .. . ... F7C : ... .. . ... : ... .. . ... ... : ... .. . ...
ROW 1E : ... .. . ... : ... .. . ... : ... .. . ... : ... .. . ... : ... .. . ... F96 : ... .. . ... : ... .. . ... ... : ... .. . ...
ROW 1F : ... .. . ... : ... .. . ... : ... .. . ... : ... .. . ... : ... .. . ... F7C : ... .. . ... : ... .. . ... ... : ... .. . ...
ROW 20 : D-3 14 . ... : A-2 14 . ... : D-3 0D . ... : 3-# 0A . ... : C-3 09 . ... F96 : D-1 0E . ... : F-4 0E . ... ... : D-4 0E . ...
ROW 21 : ... .. . ... : ... .. . ... : ... .. . ... : ... .. . ... : ... .. . ... F7C : ... .. . ... : ... .. . ... ... : ... .. . ...
ROW 22 : ... .. . ... : ... .. . ... : ... .. . ... : ... .. . ... : ... .. . ... F96 : ... .. . ... : ... .. . ... ... : ... .. . ...
ROW 23 : ... .. . ... : ... .. . ... : ... .. . ... : ... .. . ... : ... .. . ... F7C : ... .. . ... : ... .. . ... ... : ... .. . ...
ROW 24 : D-2 14 . ... : A-1 14 . ... : D-3 0D . ... : ... .. . ... : ... .. . ... F96 : D-1 0E . ... : D-4 0E . ... ... : A-4 0E . ...
ROW 25 : ... .. . ... : ... .. . ... : ... .. . ... : ... .. . ... : ... .. . ... F7C : ... .. . ... : ... .. . ... ... : ... .. . ...
ROW 26 : ... .. . ... : ... .. . ... : ... .. . ... : 3-# 0A . ... : C-3 09 . ... F96 : ... .. . ... : ... .. . ... ... : ... .. . ...
ROW 27 : ... .. . ... : ... .. . ... : ... .. . ... : ... .. . ... : ... .. . ... F7C : ... .. . ... : ... .. . ... ... : ... .. . ...
ROW 28 : D-2 14 . ... : A-1 14 . ... : D-3 0D . ... : 8-# 0A . ... : C#3 09 . ... F96 : D-1 0E . ... : A-4 0E . ... ... : F-4 0E . ...
ROW 29 : ... .. . ... : ... .. . ... : ... .. . ... : ... .. . ... : ... .. . ... F7C : ... .. . ... : ... .. . ... ... : ... .. . ...
ROW 2A : ... .. . ... : ... .. . ... : ... .. . ... : ... .. . ... : ... .. . ... F96 : ... .. . ... : ... .. . ... ... : ... .. . ...
ROW 2B : ... .. . ... : ... .. . ... : ... .. . ... : ... .. . ... : ... .. . ... F7C : ... .. . ... : ... .. . ... ... : ... .. . ...
ROW 2C : D-3 14 . ... : A-2 14 . ... : D-3 0D . ... : ... .. . ... : ... .. . ... F96 : D-1 0E . ... : F-4 0E . ... ... : D-4 0E . ...
ROW 2D : ... .. . ... : ... .. . ... : ... .. . ... : ... .. . ... : ... .. . ... F7C : ... .. . ... : ... .. . ... ... : ... .. . ...
ROW 2E : ... .. . ... : ... .. . ... : ... .. . ... : ... .. . ... : ... .. . ... F96 : ... .. . ... : ... .. . ... ... : ... .. . ...
ROW 2F : ... .. . ... : ... .. . ... : ... .. . ... : ... .. . ... : ... .. . ... F7C : ... .. . ... : ... .. . ... ... : ... .. . ...
ROW 30 : D-2 14 . ... : A-1 14 . ... : D-3 0D . ... : 3-# 0A . ... : C-3 09 . ... F96 : D-1 0E . ... : D-4 0E . ... ... : A-4 0E . ...
ROW 31 : ... .. . ... : ... .. . ... : ... .. . ... : ... .. . ... : ... .. . ... F7C : ... .. . ... : ... .. . ... ... : ... .. . ...
ROW 32 : ... .. . ... : ... .. . ... : ... .. . ... : ... .. . ... : ... .. . ... F96 : ... .. . ... : ... .. . ... ... : ... .. . ...
ROW 33 : ... .. . ... : ... .. . ... : ... .. . ... : ... .. . ... : ... .. . ... F7C : ... .. . ... : ... .. . ... ... : ... .. . ...
ROW 34 : C-3 14 . ... : F-2 14 . ... : D-3 0D . ... : 3-# 0A . ... : C-3 09 . ... F96 : D-1 0E . ... : A-4 0E . ... ... : F-4 0E . ...
ROW 35 : ... .. . ... : ... .. . ... : ... .. . ... : ... .. . ... : ... .. . ... F7C : ... .. . ... : ... .. . ... ... : ... .. . ...
ROW 36 : ... .. . ... : ... .. . ... : ... .. . ... : 3-# 0A . ... : C-3 09 . ... F96 : ... .. . ... : ... .. . ... ... : ... .. . ...
ROW 37 : ... .. . ... : ... .. . ... : ... .. . ... : ... .. . ... : ... .. . ... F7C : ... .. . ... : ... .. . ... ... : ... .. . ...
ROW 38 : A#2 14 . ... : E-2 14 . ... : E-3 0D . ... : 8-# 0A . ... : C#3 09 . ... F96 : E-1 0E . ... : F-4 0E . ... ... : D-4 0E . ...
ROW 39 : ... .. . ... : ... .. . ... : ... .. . ... : ... .. . ... : ... .. . ... F7C : ... .. . ... : ... .. . ... ... : ... .. . ...
ROW 3A : ... .. . ... : ... .. . ... : ... .. . ... : ... .. . ... : ... .. . ... F96 : ... .. . ... : ... .. . ... ... : ... .. . ...
ROW 3B : ... .. . ... : ... .. . ... : ... .. . ... : ... .. . ... : ... .. . ... F7C : ... .. . ... : ... .. . ... ... : ... .. . ...
ROW 3C : A-2 14 . ... : D-2 14 . ... : F-3 0D . ... : ... .. . ... : ... .. . ... F96 : F-1 0E . ... : D-4 0E . ... ... : A-4 0E . ...
ROW 3D : ... .. . ... : ... .. . ... : ... .. . ... : ... .. . ... : ... .. . ... F7C : ... .. . ... : ... .. . ... ... : ... .. . ...
ROW 3E : ... .. . ... : ... .. . ... : ... .. . ... : ... .. . ... : ... .. . ... F96 : ... .. . ... : ... .. . ... ... : ... .. . ...
ROW 3F : ... .. . ... : ... .. . ... : ... .. . ... : ... .. . ... : ... .. . ... F7C : ... .. . ... : ... .. . ... ... : ... .. . ...

PATTERN 3C
ROW 00 : C-2 14 . ... : G-1 14 . ... : C-3 0D . ... : 3-# 0A . ... : C-3 09 . ... F96 : C-1 0E . ... : A-4 0E . ... ... : G-4 0E . ...
ROW 01 : ... .. . ... : ... .. . ... : ... .. . ... : ... .. . ... : ... .. . ... F7C : ... .. . ... : ... .. . ... ... : ... .. . ...
ROW 02 : ... .. . ... : ... .. . ... : ... .. . ... : ... .. . ... : ... .. . ... F96 : ... .. . ... : ... .. . ... ... : ... .. . ...
ROW 03 : ... .. . ... : ... .. . ... : ... .. . ... : ... .. . ... : ... .. . ... F7C : ... .. . ... : ... .. . ... ... : ... .. . ...
ROW 04 : C-2 14 . ... : G-1 14 . ... : C-3 0D . ... : ... .. . ... : ... .. . ... F96 : C-1 0E . ... : G-4 0E . ... ... : E-4 0E . ...
ROW 05 : ... .. . ... : ... .. . ... : ... .. . ... : ... .. . ... : ... .. . ... F7C : ... .. . ... : ... .. . ... ... : ... .. . ...
ROW 06 : ... .. . ... : ... .. . ... : ... .. . ... : 3-# 0A . ... : C-3 09 . ... F96 : ... .. . ... : ... .. . ... ... : ... .. . ...
ROW 07 : ... .. . ... : ... .. . ... : ... .. . ... : ... .. . ... : ... .. . ... F7C : ... .. . ... : ... .. . ... ... : ... .. . ...
ROW 08 : C-3 14 . ... : G-2 14 . ... : C-3 0D . ... : 8-# 0A . ... : C#3 09 . ... F96 : C-1 0E . ... : E-4 0E . ... ... : C-4 0E . ...
ROW 09 : ... .. . ... : ... .. . ... : ... .. . ... : ... .. . ... : ... .. . ... F7C : ... .. . ... : ... .. . ... ... : ... .. . ...
ROW 0A : ... .. . ... : ... .. . ... : ... .. . ... : ... .. . ... : ... .. . ... F96 : ... .. . ... : ... .. . ... ... : ... .. . ...
ROW 0B : ... .. . ... : ... .. . ... : ... .. . ... : ... .. . ... : ... .. . ... F7C : ... .. . ... : ... .. . ... ... : ... .. . ...
ROW 0C : C-2 14 . ... : G-1 14 . ... : C-3 0D . ... : ... .. . ... : ... .. . ... F96 : C-1 0E . ... : C-4 0E . ... ... : G-4 0E . ...
ROW 0D : ... .. . ... : ... .. . ... : ... .. . ... : ... .. . ... : ... .. . ... F7C : ... .. . ... : ... .. . ... ... : ... .. . ...
ROW 0E : ... .. . ... : ... .. . ... : ... .. . ... : ... .. . ... : ... .. . ... F96 : ... .. . ... : ... .. . ... ... : ... .. . ...
ROW 0F : ... .. . ... : ... .. . ... : ... .. . ... : ... .. . ... : ... .. . ... F7C : ... .. . ... : ... .. . ... ... : ... .. . ...
ROW 10 : C-2 14 . ... : G-1 14 . ... : C-3 0D . ... : 3-# 0A . ... : C-3 09 . ... F96 : C-1 0E . ... : G-4 0E . ... ... : E-4 0E . ...
ROW 11 : ... .. . ... : ... .. . ... : ... .. . ... : ... .. . ... : ... .. . ... F7C : ... .. . ... : ... .. . ... ... : ... .. . ...
ROW 12 : ... .. . ... : ... .. . ... : ... .. . ... : ... .. . ... : ... .. . ... F96 : ... .. . ... : ... .. . ... ... : ... .. . ...
ROW 13 : ... .. . ... : ... .. . ... : ... .. . ... : ... .. . ... : ... .. . ... F7C : ... .. . ... : ... .. . ... ... : ... .. . ...
ROW 14 : C-3 14 . ... : G-2 14 . ... : C-3 0D . ... : 3-# 0A . ... : C-3 09 . ... F96 : C-1 0E . ... : E-4 0E . ... ... : C-4 0E . ...
ROW 15 : ... .. . ... : ... .. . ... : ... .. . ... : ... .. . ... : ... .. . ... F7C : ... .. . ... : ... .. . ... ... : ... .. . ...
ROW 16 : ... .. . ... : ... .. . ... : ... .. . ... : 3-# 0A . ... : C-3 09 . ... F96 : ... .. . ... : ... .. . ... ... : ... .. . ...
ROW 17 : ... .. . ... : ... .. . ... : ... .. . ... : ... .. . ... : ... .. . ... F7C : ... .. . ... : ... .. . ... ... : ... .. . ...
ROW 18 : C-2 14 . ... : G-1 14 . ... : C-3 0D . ... : 8-# 0A . ... : C#3 09 . ... F96 : C-1 0E . ... : C-4 0E . ... ... : G-4 0E . ...
ROW 19 : ... .. . ... : ... .. . ... : ... .. . ... : ... .. . ... : ... .. . ... F7C : ... .. . ... : ... .. . ... ... : ... .. . ...
ROW 1A : ... .. . ... : ... .. . ... : ... .. . ... : ... .. . ... : ... .. . ... F96 : ... .. . ... : ... .. . ... ... : ... .. . ...
ROW 1B : ... .. . ... : ... .. . ... : ... .. . ... : ... .. . ... : ... .. . ... F7C : ... .. . ... : ... .. . ... ... : ... .. . ...
ROW 1C : C-2 14 . ... : G-1 14 . ... : C-3 0D . ... : ... .. . ... : ... .. . ... F96 : C-1 0E . ... : G-4 0E . ... ... : E-4 0E . ...
ROW 1D : ... .. . ... : ... .. . ... : ... .. . ... : ... .. . ... : ... .. . ... F7C : ... .. . ... : ... .. . ... ... : ... .. . ...
ROW 1E : ... .. . ... : ... .. . ... : ... .. . ... : ... .. . ... : ... .. . ... F96 : ... .. . ... : ... .. . ... ... : ... .. . ...
ROW 1F : ... .. . ... : ... .. . ... : ... .. . ... : ... .. . ... : ... .. . ... F7C : ... .. . ... : ... .. . ... ... : ... .. . ...
ROW 20 : C-3 14 . ... : G-2 14 . ... : C-3 0D . ... : 3-# 0A . ... : C-3 09 . ... F96 : C-1 0E . ... : E-4 0E . ... ... : C-4 0E . ...
ROW 21 : ... .. . ... : ... .. . ... : ... .. . ... : ... .. . ... : ... .. . ... F7C : ... .. . ... : ... .. . ... ... : ... .. . ...
ROW 22 : ... .. . ... : ... .. . ... : ... .. . ... : ... .. . ... : ... .. . ... F96 : ... .. . ... : ... .. . ... ... : ... .. . ...
ROW 23 : ... .. . ... : ... .. . ... : ... .. . ... : ... .. . ... : ... .. . ... F7C : ... .. . ... : ... .. . ... ... : ... .. . ...
ROW 24 : C-2 14 . ... : G-1 14 . ... : C-3 0D . ... : ... .. . ... : ... .. . ... F96 : C-1 0E . ... : C-4 0E . ... ... : G-4 0E . ...
ROW 25 : ... .. . ... : ... .. . ... : ... .. . ... : ... .. . ... : ... .. . ... F7C : ... .. . ... : ... .. . ... ... : ... .. . ...
ROW 26 : ... .. . ... : ... .. . ... : ... .. . ... : 3-# 0A . ... : C-3 09 . ... F96 : ... .. . ... : ... .. . ... ... : ... .. . ...
ROW 27 : ... .. . ... : ... .. . ... : ... .. . ... : ... .. . ... : ... .. . ... F7C : ... .. . ... : ... .. . ... ... : ... .. . ...
ROW 28 : C-2 14 . ... : G-1 14 . ... : C-3 0D . ... : 8-# 0A . ... : C#3 09 . ... F96 : C-1 0E . ... : G-4 0E . ... ... : E-4 0E . ...
ROW 29 : ... .. . ... : ... .. . ... : ... .. . ... : ... .. . ... : ... .. . ... F7C : ... .. . ... : ... .. . ... ... : ... .. . ...
ROW 2A : ... .. . ... : ... .. . ... : ... .. . ... : ... .. . ... : ... .. . ... F96 : ... .. . ... : ... .. . ... ... : ... .. . ...
ROW 2B : ... .. . ... : ... .. . ... : ... .. . ... : ... .. . ... : ... .. . ... F7C : ... .. . ... : ... .. . ... ... : ... .. . ...
ROW 2C : C-3 14 . ... : G-2 14 . ... : C-3 0D . ... : ... .. . ... : ... .. . ... F96 : C-1 0E . ... : E-4 0E . ... ... : C-4 0E . ...
ROW 2D : ... .. . ... : ... .. . ... : ... .. . ... : ... .. . ... : ... .. . ... F7C : ... .. . ... : ... .. . ... ... : ... .. . ...
ROW 2E : ... .. . ... : ... .. . ... : ... .. . ... : ... .. . ... : ... .. . ... F96 : ... .. . ... : ... .. . ... ... : ... .. . ...
ROW 2F : ... .. . ... : ... .. . ... : ... .. . ... : ... .. . ... : ... .. . ... F7C : ... .. . ... : ... .. . ... ... : ... .. . ...
ROW 30 : C-2 14 . ... : G-1 14 . ... : C-3 0D . ... : 3-# 0A . ... : C-3 09 . ... F96 : C-1 0E . ... : C-4 0E . ... ... : G-4 0E . ...
ROW 31 : ... .. . ... : ... .. . ... : ... .. . ... : ... .. . ... : ... .. . ... F7C : ... .. . ... : ... .. . ... ... : ... .. . ...
ROW 32 : ... .. . ... : ... .. . ... : ... .. . ... : ... .. . ... : ... .. . ... F96 : ... .. . ... : ... .. . ... ... : ... .. . ...
ROW 33 : ... .. . ... : ... .. . ... : ... .. . ... : ... .. . ... : ... .. . ... F7C : ... .. . ... : ... .. . ... ... : ... .. . ...
ROW 34 : A#2 14 . ... : E-2 14 . ... : C-3 0D . ... : 3-# 0A . ... : C-3 09 . ... F96 : C-1 0E . ... : G-4 0E . ... ... : E-4 0E . ...
ROW 35 : ... .. . ... : ... .. . ... : ... .. . ... : ... .. . ... : ... .. . ... F7C : ... .. . ... : ... .. . ... ... : ... .. . ...
ROW 36 : ... .. . ... : ... .. . ... : ... .. . ... : 3-# 0A . ... : C-3 09 . ... F96 : ... .. . ... : ... .. . ... ... : ... .. . ...
ROW 37 : ... .. . ... : ... .. . ... : ... .. . ... : ... .. . ... : ... .. . ... F7C : ... .. . ... : ... .. . ... ... : ... .. . ...
ROW 38 : A-2 14 . ... : D-2 14 . ... : D-3 0D . ... : 8-# 0A . ... : C#3 09 . ... F96 : D-1 0E . ... : E-4 0E . ... ... : C-4 0E . ...
ROW 39 : ... .. . ... : ... .. . ... : ... .. . ... : ... .. . ... : ... .. . ... F7C : ... .. . ... : ... .. . ... ... : ... .. . ...
ROW 3A : ... .. . ... : ... .. . ... : ... .. . ... : ... .. . ... : ... .. . ... F96 : ... .. . ... : ... .. . ... ... : ... .. . ...
ROW 3B : ... .. . ... : ... .. . ... : ... .. . ... : ... .. . ... : ... .. . ... F7C : ... .. . ... : ... .. . ... ... : ... .. . ...
ROW 3C : G-2 14 . ... : C-2 14 . ... : E-3 0D . ... : ... .. . ... : ... .. . ... F96 : E-1 0E . ... : C-4 0E . ... ... : G-4 0E . ...
ROW 3D : ... .. . ... : ... .. . ... : ... .. . ... : ... .. . ... : ... .. . ... F7C : ... .. . ... : ... .. . ... ... : ... .. . ...
ROW 3E : ... .. . ... : ... .. . ... : ... .. . ... : ... .. . ... : ... .. . ... F96 : ... .. . ... : ... .. . ... ... : ... .. . ...
ROW 3F : ... .. . ... : ... .. . ... : ... .. . ... : ... .. . ... : ... .. . ... F7C : ... .. . ... : ... .. . ... ... : ... .. . ...

PATTERN 3D
ROW 00 : A#1 14 . ... : F-1 14 . ... : A#2 0D . ... : 3-# 0A . ... : C-3 09 . ... F96 : A#0 0E . ... : G-4 0E . ... ... : F-4 0E . ...
ROW 01 : ... .. . ... : ... .. . ... : ... .. . ... : ... .. . ... : ... .. . ... F7C : ... .. . ... : ... .. . ... ... : ... .. . ...
ROW 02 : ... .. . ... : ... .. . ... : ... .. . ... : ... .. . ... : ... .. . ... F96 : ... .. . ... : ... .. . ... ... : ... .. . ...
ROW 03 : ... .. . ... : ... .. . ... : ... .. . ... : ... .. . ... : ... .. . ... F7C : ... .. . ... : ... .. . ... ... : ... .. . ...
ROW 04 : A#1 14 . ... : F-1 14 . ... : A#2 0D . ... : ... .. . ... : ... .. . ... F96 : A#0 0E . ... : F-4 0E . ... ... : D-4 0E . ...
ROW 05 : ... .. . ... : ... .. . ... : ... .. . ... : ... .. . ... : ... .. . ... F7C : ... .. . ... : ... .. . ... ... : ... .. . ...
ROW 06 : ... .. . ... : ... .. . ... : ... .. . ... : 3-# 0A . ... : C-3 09 . ... F96 : ... .. . ... : ... .. . ... ... : ... .. . ...
ROW 07 : ... .. . ... : ... .. . ... : ... .. . ... : ... .. . ... : ... .. . ... F7C : ... .. . ... : ... .. . ... ... : ... .. . ...
ROW 08 : A#2 14 . ... : F-2 14 . ... : A#2 0D . ... : 8-# 0A . ... : C#3 09 . ... F96 : A#0 0E . ... : D-4 0E . ... ... : A#3 0E . ...
ROW 09 : ... .. . ... : ... .. . ... : ... .. . ... : ... .. . ... : ... .. . ... F7C : ... .. . ... : ... .. . ... ... : ... .. . ...
ROW 0A : ... .. . ... : ... .. . ... : ... .. . ... : ... .. . ... : ... .. . ... F96 : ... .. . ... : ... .. . ... ... : ... .. . ...
ROW 0B : ... .. . ... : ... .. . ... : ... .. . ... : ... .. . ... : ... .. . ... F7C : ... .. . ... : ... .. . ... ... : ... .. . ...
ROW 0C : A#1 14 . ... : F-1 14 . ... : A#2 0D . ... : ... .. . ... : ... .. . ... F96 : A#0 0E . ... : A#3 0E . ... ... : F-4 0E . ...
ROW 0D : ... .. . ... : ... .. . ... : ... .. . ... : ... .. . ... : ... .. . ... F7C : ... .. . ... : ... .. . ... ... : ... .. . ...
ROW 0E : ... .. . ... : ... .. . ... : ... .. . ... : ... .. . ... : ... .. . ... F96 : ... .. . ... : ... .. . ... ... : ... .. . ...
ROW 0F : ... .. . ... : ... .. . ... : ... .. . ... : ... .. . ... : ... .. . ... F7C : ... .. . ... : ... .. . ... ... : ... .. . ...
ROW 10 : A#1 14 . ... : F-1 14 . ... : A#2 0D . ... : 3-# 0A . ... : C-3 09 . ... F96 : A#0 0E . ... : F-4 0E . ... ... : D-4 0E . ...
ROW 11 : ... .. . ... : ... .. . ... : ... .. . ... : ... .. . ... : ... .. . ... F7C : ... .. . ... : ... .. . ... ... : ... .. . ...
ROW 12 : ... .. . ... : ... .. . ... : ... .. . ... : ... .. . ... : ... .. . ... F96 : ... .. . ... : ... .. . ... ... : ... .. . ...
ROW 13 : ... .. . ... : ... .. . ... : ... .. . ... : ... .. . ... : ... .. . ... F7C : ... .. . ... : ... .. . ... ... : ... .. . ...
ROW 14 : A#2 14 . ... : F-2 14 . ... : A#2 0D . ... : 3-# 0A . ... : C-3 09 . ... F96 : A#0 0E . ... : D-4 0E . ... ... : A#3 0E . ...
ROW 15 : ... .. . ... : ... .. . ... : ... .. . ... : ... .. . ... : ... .. . ... F7C : ... .. . ... : ... .. . ... ... : ... .. . ...
ROW 16 : ... .. . ... : ... .. . ... : ... .. . ... : 3-# 0A . ... : C-3 09 . ... F96 : ... .. . ... : ... .. . ... ... : ... .. . ...
ROW 17 : ... .. . ... : ... .. . ... : ... .. . ... : ... .. . ... : ... .. . ... F7C : ... .. . ... : ... .. . ... ... : ... .. . ...
ROW 18 : A#1 14 . ... : F-1 14 . ... : A#2 0D . ... : 8-# 0A . ... : C#3 09 . ... F96 : A#0 0E . ... : A#3 0E . ... ... : F-4 0E . ...
ROW 19 : ... .. . ... : ... .. . ... : ... .. . ... : ... .. . ... : ... .. . ... F7C : ... .. . ... : ... .. . ... ... : ... .. . ...
ROW 1A : ... .. . ... : ... .. . ... : ... .. . ... : ... .. . ... : ... .. . ... F96 : ... .. . ... : ... .. . ... ... : ... .. . ...
ROW 1B : ... .. . ... : ... .. . ... : ... .. . ... : ... .. . ... : ... .. . ... F7C : ... .. . ... : ... .. . ... ... : ... .. . ...
ROW 1C : A#1 14 . ... : F-1 14 . ... : A#2 0D . ... : ... .. . ... : ... .. . ... F96 : A#0 0E . ... : F-4 0E . ... ... : D-4 0E . ...
ROW 1D : ... .. . ... : ... .. . ... : ... .. . ... : ... .. . ... : ... .. . ... F7C : ... .. . ... : ... .. . ... ... : ... .. . ...
ROW 1E : ... .. . ... : ... .. . ... : ... .. . ... : ... .. . ... : ... .. . ... F96 : ... .. . ... : ... .. . ... ... : ... .. . ...
ROW 1F : ... .. . ... : ... .. . ... : ... .. . ... : ... .. . ... : ... .. . ... F7C : ... .. . ... : ... .. . ... ... : ... .. . ...
ROW 20 : A#2 14 . ... : F-2 14 . ... : A#2 0D . ... : 3-# 0A . ... : C-3 09 . ... F96 : A#0 0E . ... : D-4 0E . ... ... : A#3 0E . ...
ROW 21 : ... .. . ... : ... .. . ... : ... .. . ... : ... .. . ... : ... .. . ... F7C : ... .. . ... : ... .. . ... ... : ... .. . ...
ROW 22 : ... .. . ... : ... .. . ... : ... .. . ... : ... .. . ... : ... .. . ... F96 : ... .. . ... : ... .. . ... ... : ... .. . ...
ROW 23 : ... .. . ... : ... .. . ... : ... .. . ... : ... .. . ... : ... .. . ... F7C : ... .. . ... : ... .. . ... ... : ... .. . ...
ROW 24 : A#1 14 . ... : F-1 14 . ... : A#2 0D . ... : ... .. . ... : ... .. . ... F96 : A#0 0E . ... : A#3 0E . ... ... : F-4 0E . ...
ROW 25 : ... .. . ... : ... .. . ... : ... .. . ... : ... .. . ... : ... .. . ... F7C : ... .. . ... : ... .. . ... ... : ... .. . ...
ROW 26 : ... .. . ... : ... .. . ... : ... .. . ... : 3-# 0A . ... : C-3 09 . ... F96 : ... .. . ... : ... .. . ... ... : ... .. . ...
ROW 27 : ... .. . ... : ... .. . ... : ... .. . ... : ... .. . ... : ... .. . ... F7C : ... .. . ... : ... .. . ... ... : ... .. . ...
ROW 28 : A#1 14 . ... : F-1 14 . ... : A#2 0D . ... : 8-# 0A . ... : C#3 09 . ... F96 : A#0 0E . ... : F-4 0E . ... ... : D-4 0E . ...
ROW 29 : ... .. . ... : ... .. . ... : ... .. . ... : ... .. . ... : ... .. . ... F7C : ... .. . ... : ... .. . ... ... : ... .. . ...
ROW 2A : ... .. . ... : ... .. . ... : ... .. . ... : ... .. . ... : ... .. . ... F96 : ... .. . ... : ... .. . ... ... : ... .. . ...
ROW 2B : ... .. . ... : ... .. . ... : ... .. . ... : ... .. . ... : ... .. . ... F7C : ... .. . ... : ... .. . ... ... : ... .. . ...
ROW 2C : A#2 14 . ... : F-2 14 . ... : A#2 0D . ... : ... .. . ... : ... .. . ... F96 : A#0 0E . ... : D-4 0E . ... ... : A#3 0E . ...
ROW 2D : ... .. . ... : ... .. . ... : ... .. . ... : ... .. . ... : ... .. . ... F7C : ... .. . ... : ... .. . ... ... : ... .. . ...
ROW 2E : ... .. . ... : ... .. . ... : ... .. . ... : ... .. . ... : ... .. . ... F96 : ... .. . ... : ... .. . ... ... : ... .. . ...
ROW 2F : ... .. . ... : ... .. . ... : ... .. . ... : ... .. . ... : ... .. . ... F7C : ... .. . ... : ... .. . ... ... : ... .. . ...
ROW 30 : A#1 14 . ... : F-1 14 . ... : A#2 0D . ... : 3-# 0A . ... : C-3 09 . ... F96 : A#0 0E . ... : A#3 0E . ... ... : F-4 0E . ...
ROW 31 : ... .. . ... : ... .. . ... : ... .. . ... : ... .. . ... : ... .. . ... F7C : ... .. . ... : ... .. . ... ... : ... .. . ...
ROW 32 : ... .. . ... : ... .. . ... : ... .. . ... : ... .. . ... : ... .. . ... F96 : ... .. . ... : ... .. . ... ... : ... .. . ...
ROW 33 : ... .. . ... : ... .. . ... : ... .. . ... : ... .. . ... : ... .. . ... F7C : ... .. . ... : ... .. . ... ... : ... .. . ...
ROW 34 : A-2 14 . ... : D-2 14 . ... : D-3 0D . ... : 3-# 0A . ... : C-3 09 . ... F96 : D-1 0E . ... : F-4 0E . ... ... : D-4 0E . ...
ROW 35 : ... .. . ... : ... .. . ... : ... .. . ... : ... .. . ... : ... .. . ... F7C : ... .. . ... : ... .. . ... ... : ... .. . ...
ROW 36 : ... .. . ... : ... .. . ... : ... .. . ... : 3-# 0A . ... : C-3 09 . ... F96 : ... .. . ... : ... .. . ... ... : ... .. . ...
ROW 37 : ... .. . ... : ... .. . ... : ... .. . ... : ... .. . ... : ... .. . ... F7C : ... .. . ... : ... .. . ... ... : ... .. . ...
ROW 38 : G-2 14 . ... : C-2 14 . ... : C-3 0D . ... : 8-# 0A . ... : C#3 09 . ... F96 : C-1 0E . ... : D-4 0E . ... ... : A#3 0E . ...
ROW 39 : ... .. . ... : ... .. . ... : ... .. . ... : ... .. . ... : ... .. . ... F7C : ... .. . ... : ... .. . ... ... : ... .. . ...
ROW 3A : ... .. . ... : ... .. . ... : ... .. . ... : ... .. . ... : ... .. . ... F96 : ... .. . ... : ... .. . ... ... : ... .. . ...
ROW 3B : ... .. . ... : ... .. . ... : ... .. . ... : ... .. . ... : ... .. . ... F7C : ... .. . ... : ... .. . ... ... : ... .. . ...
ROW 3C : F-2 14 . ... : A#1 14 . ... : A#2 0D . ... : ... .. . ... : ... .. . ... F96 : A#0 0E . ... : A#3 0E . ... ... : F-4 0E . ...
ROW 3D : ... .. . ... : ... .. . ... : ... .. . ... : ... .. . ... : ... .. . ... F7C : ... .. . ... : ... .. . ... ... : ... .. . ...
ROW 3E : ... .. . ... : ... .. . ... : ... .. . ... : ... .. . ... : ... .. . ... F96 : ... .. . ... : ... .. . ... ... : ... .. . ...
ROW 3F : ... .. . ... : ... .. . ... : ... .. . ... : ... .. . ... : ... .. . ... F7C : ... .. . ... : ... .. . ... ... : ... .. . ...

PATTERN 3E
ROW 00 : C-2 14 . ... : G-1 14 . ... : C-3 0D . ... : 3-# 0A . ... : C-3 09 . ... F96 : C-1 0E . ... : F-4 0E . ... ... : G-4 0E . ...
ROW 01 : ... .. . ... : ... .. . ... : ... .. . ... : ... .. . ... : ... .. . ... F7C : ... .. . ... : ... .. . ... ... : ... .. . ...
ROW 02 : ... .. . ... : ... .. . ... : ... .. . ... : ... .. . ... : ... .. . ... F96 : ... .. . ... : ... .. . ... ... : ... .. . ...
ROW 03 : ... .. . ... : ... .. . ... : ... .. . ... : ... .. . ... : ... .. . ... F7C : ... .. . ... : ... .. . ... ... : ... .. . ...
ROW 04 : C-2 14 . ... : G-1 14 . ... : C-3 0D . ... : ... .. . ... : ... .. . ... F96 : C-1 0E . ... : G-4 0E . ... ... : E-4 0E . ...
ROW 05 : ... .. . ... : ... .. . ... : ... .. . ... : ... .. . ... : ... .. . ... F7C : ... .. . ... : ... .. . ... ... : ... .. . ...
ROW 06 : ... .. . ... : ... .. . ... : ... .. . ... : 3-# 0A . ... : C-3 09 . ... F96 : ... .. . ... : ... .. . ... ... : ... .. . ...
ROW 07 : ... .. . ... : ... .. . ... : ... .. . ... : ... .. . ... : ... .. . ... F7C : ... .. . ... : ... .. . ... ... : ... .. . ...
ROW 08 : C-3 14 . ... : G-2 14 . ... : C-3 0D . ... : 8-# 0A . ... : C#3 09 . ... F96 : C-1 0E . ... : E-4 0E . ... ... : C-4 0E . ...
ROW 09 : ... .. . ... : ... .. . ... : ... .. . ... : ... .. . ... : ... .. . ... F7C : ... .. . ... : ... .. . ... ... : ... .. . ...
ROW 0A : ... .. . ... : ... .. . ... : ... .. . ... : ... .. . ... : ... .. . ... F96 : ... .. . ... : ... .. . ... ... : ... .. . ...
ROW 0B : ... .. . ... : ... .. . ... : ... .. . ... : ... .. . ... : ... .. . ... F7C : ... .. . ... : ... .. . ... ... : ... .. . ...
ROW 0C : C-2 14 . ... : G-1 14 . ... : C-3 0D . ... : ... .. . ... : ... .. . ... F96 : C-1 0E . ... : C-4 0E . ... ... : G-4 0E . ...
ROW 0D : ... .. . ... : ... .. . ... : ... .. . ... : ... .. . ... : ... .. . ... F7C : ... .. . ... : ... .. . ... ... : ... .. . ...
ROW 0E : ... .. . ... : ... .. . ... : ... .. . ... : ... .. . ... : ... .. . ... F96 : ... .. . ... : ... .. . ... ... : ... .. . ...
ROW 0F : ... .. . ... : ... .. . ... : ... .. . ... : ... .. . ... : ... .. . ... F7C : ... .. . ... : ... .. . ... ... : ... .. . ...
ROW 10 : C-2 14 . ... : G-1 14 . ... : C-3 0D . ... : 3-# 0A . ... : C-3 09 . ... F96 : C-1 0E . ... : G-4 0E . ... ... : E-4 0E . ...
ROW 11 : ... .. . ... : ... .. . ... : ... .. . ... : ... .. . ... : ... .. . ... F7C : ... .. . ... : ... .. . ... ... : ... .. . ...
ROW 12 : ... .. . ... : ... .. . ... : ... .. . ... : ... .. . ... : ... .. . ... F96 : ... .. . ... : ... .. . ... ... : ... .. . ...
ROW 13 : ... .. . ... : ... .. . ... : ... .. . ... : ... .. . ... : ... .. . ... F7C : ... .. . ... : ... .. . ... ... : ... .. . ...
ROW 14 : C-3 14 . ... : G-2 14 . ... : C-3 0D . ... : 3-# 0A . ... : C-3 09 . ... F96 : C-1 0E . ... : E-4 0E . ... ... : C-4 0E . ...
ROW 15 : ... .. . ... : ... .. . ... : ... .. . ... : ... .. . ... : ... .. . ... F7C : ... .. . ... : ... .. . ... ... : ... .. . ...
ROW 16 : ... .. . ... : ... .. . ... : ... .. . ... : 3-# 0A . ... : C-3 09 . ... F96 : ... .. . ... : ... .. . ... ... : ... .. . ...
ROW 17 : ... .. . ... : ... .. . ... : ... .. . ... : ... .. . ... : ... .. . ... F7C : ... .. . ... : ... .. . ... ... : ... .. . ...
ROW 18 : C-2 14 . ... : G-1 14 . ... : C-3 0D . ... : 8-# 0A . ... : C#3 09 . ... F96 : C-1 0E . ... : C-4 0E . ... ... : G-4 0E . ...
ROW 19 : ... .. . ... : ... .. . ... : ... .. . ... : ... .. . ... : ... .. . ... F7C : ... .. . ... : ... .. . ... ... : ... .. . ...
ROW 1A : ... .. . ... : ... .. . ... : ... .. . ... : ... .. . ... : ... .. . ... F96 : ... .. . ... : ... .. . ... ... : ... .. . ...
ROW 1B : ... .. . ... : ... .. . ... : ... .. . ... : ... .. . ... : ... .. . ... F7C : ... .. . ... : ... .. . ... ... : ... .. . ...
ROW 1C : C-2 14 . ... : G-1 14 . ... : C-3 0D . ... : ... .. . ... : ... .. . ... F96 : C-1 0E . ... : G-4 0E . ... ... : E-4 0E . ...
ROW 1D : ... .. . ... : ... .. . ... : ... .. . ... : ... .. . ... : ... .. . ... F7C : ... .. . ... : ... .. . ... ... : ... .. . ...
ROW 1E : ... .. . ... : ... .. . ... : ... .. . ... : ... .. . ... : ... .. . ... F96 : ... .. . ... : ... .. . ... ... : ... .. . ...
ROW 1F : ... .. . ... : ... .. . ... : ... .. . ... : ... .. . ... : ... .. . ... F7C : ... .. . ... : ... .. . ... ... : ... .. . ...
ROW 20 : A-2 14 . ... : E-2 14 . ... : A-2 0D . ... : 3-# 0A . ... : C-3 09 . ... F96 : A-0 0E . ... : E-4 0E . ... ... : E-4 0E . ...
ROW 21 : ... .. . ... : ... .. . ... : ... .. . ... : ... .. . ... : ... .. . ... F7C : ... .. . ... : ... .. . ... ... : ... .. . ...
ROW 22 : ... .. . ... : ... .. . ... : ... .. . ... : ... .. . ... : ... .. . ... F96 : ... .. . ... : ... .. . ... ... : ... .. . ...
ROW 23 : ... .. . ... : ... .. . ... : ... .. . ... : ... .. . ... : ... .. . ... F7C : ... .. . ... : ... .. . ... ... : ... .. . ...
ROW 24 : A-1 14 . ... : E-1 14 . ... : A-2 0D . ... : ... .. . ... : ... .. . ... F96 : A-0 0E . ... : E-4 0E . ... ... : C#4 0E . ...
ROW 25 : ... .. . ... : ... .. . ... : ... .. . ... : ... .. . ... : ... .. . ... F7C : ... .. . ... : ... .. . ... ... : ... .. . ...
ROW 26 : ... .. . ... : ... .. . ... : ... .. . ... : 3-# 0A . ... : C-3 09 . ... F96 : ... .. . ... : ... .. . ... ... : ... .. . ...
ROW 27 : ... .. . ... : ... .. . ... : ... .. . ... : ... .. . ... : ... .. . ... F7C : ... .. . ... : ... .. . ... ... : ... .. . ...
ROW 28 : A-1 14 . ... : E-1 14 . ... : A-2 0D . ... : 8-# 0A . ... : C#3 09 . ... F96 : A-0 0E . ... : C#4 0E . ... ... : A-3 0E . ...
ROW 29 : ... .. . ... : ... .. . ... : ... .. . ... : ... .. . ... : ... .. . ... F7C : ... .. . ... : ... .. . ... ... : ... .. . ...
ROW 2A : ... .. . ... : ... .. . ... : ... .. . ... : ... .. . ... : ... .. . ... F96 : ... .. . ... : ... .. . ... ... : ... .. . ...
ROW 2B : ... .. . ... : ... .. . ... : ... .. . ... : ... .. . ... : ... .. . ... F7C : ... .. . ... : ... .. . ... ... : ... .. . ...
ROW 2C : A-2 14 . ... : E-2 14 . ... : A-2 0D . ... : ... .. . ... : ... .. . ... F96 : A-0 0E . ... : A-3 0E . ... ... : E-4 0E . ...
ROW 2D : ... .. . ... : ... .. . ... : ... .. . ... : ... .. . ... : ... .. . ... F7C : ... .. . ... : ... .. . ... ... : ... .. . ...
ROW 2E : ... .. . ... : ... .. . ... : ... .. . ... : ... .. . ... : ... .. . ... F96 : ... .. . ... : ... .. . ... ... : ... .. . ...
ROW 2F : ... .. . ... : ... .. . ... : ... .. . ... : ... .. . ... : ... .. . ... F7C : ... .. . ... : ... .. . ... ... : ... .. . ...
ROW 30 : A-1 14 . ... : E-1 14 . ... : A-2 0D . ... : 8-# 0A . ... : C#3 09 . ... F96 : A-0 0E . ... : E-4 0E . ... ... : C#4 0E . ...
ROW 31 : ... .. . ... : ... .. . ... : ... .. . ... : ... .. . ... : ... .. . ... F7C : ... .. . ... : ... .. . ... ... : ... .. . ...
ROW 32 : ... .. . ... : ... .. . ... : ... .. . ... : ... .. . ... : ... .. . ... F96 : ... .. . ... : ... .. . ... ... : ... .. . ...
ROW 33 : ... .. . ... : ... .. . ... : ... .. . ... : ... .. . ... : ... .. . ... F7C : ... .. . ... : ... .. . ... ... : ... .. . ...
ROW 34 : A-1 14 . ... : E-1 14 . ... : A-2 0D . ... : 8-# 0A . ... : C#3 09 . ... F96 : A-0 0E . ... : C#4 0E . ... ... : A-3 0E . ...
ROW 35 : ... .. . ... : ... .. . ... : ... .. . ... : ... .. . ... : ... .. . ... F7C : ... .. . ... : ... .. . ... ... : ... .. . ...
ROW 36 : ... .. . ... : ... .. . ... : ... .. . ... : ... .. . ... : ... .. . ... F96 : ... .. . ... : ... .. . ... ... : ... .. . ...
ROW 37 : ... .. . ... : ... .. . ... : ... .. . ... : ... .. . ... : ... .. . ... F7C : ... .. . ... : ... .. . ... ... : ... .. . ...
ROW 38 : A-2 14 . ... : E-2 14 . ... : A-2 0D . ... : 8-# 0A . ... : C#3 09 . ... F96 : A-0 0E . ... : A-3 0E . ... ... : E-4 0E . ...
ROW 39 : ... .. . ... : ... .. . ... : ... .. . ... : ... .. . ... : ... .. . ... F7C : ... .. . ... : ... .. . ... ... : ... .. . ...
ROW 3A : ... .. . ... : ... .. . ... : ... .. . ... : ... .. . ... : ... .. . ... F96 : ... .. . ... : ... .. . ... ... : ... .. . ...
ROW 3B : ... .. . ... : ... .. . ... : ... .. . ... : ... .. . ... : ... .. . ... F7C : ... .. . ... : ... .. . ... ... : ... .. . ...
ROW 3C : A-1 14 . ... : E-1 14 . ... : A-2 0D . ... : 8-# 0A . ... : C#3 09 . ... F96 : A-0 0E . ... : E-4 0E . ... ... : C#4 0E . ...
ROW 3D : ... .. . ... : ... .. . ... : ... .. . ... : ... .. . ... : ... .. . ... F7C : ... .. . ... : ... .. . ... ... : ... .. . ...
ROW 3E : ... .. . ... : ... .. . ... : ... .. . ... : ... .. . ... : ... .. . ... F96 : ... .. . ... : ... .. . ... ... : ... .. . ...
ROW 3F : ... .. . ... : ... .. . ... : ... .. . ... : ... .. . ... : ... .. . ... F7C : ... .. . ... : ... .. . ... ... : ... .. . ...

PATTERN 3F
ROW 00 : D-2 14 . ... : A-1 14 . ... : D-3 0D . ... : 3-# 0A . ... : C-3 09 . ... F96 : D-1 0E . ... : C#4 0E . ... ... : D-4 0E . ...
ROW 01 : ... .. . ... : ... .. . ... : ... .. . ... : ... .. . ... : ... .. . ... F7C : ... .. . ... : ... .. . ... ... : ... .. . ...
ROW 02 : ... .. . ... : ... .. . ... : ... .. . ... : ... .. . ... : ... .. . ... F96 : ... .. . ... : ... .. . ... ... : ... .. . ...
ROW 03 : ... .. . ... : ... .. . ... : ... .. . ... : ... .. . ... : ... .. . ... F7C : ... .. . ... : ... .. . ... ... : ... .. . ...
ROW 04 : D-2 14 . ... : A-1 14 . ... : D-3 0D . ... : ... .. . ... : ... .. . ... F96 : D-1 0E . ... : D-4 0E . ... ... : F-4 0E . ...
ROW 05 : ... .. . ... : ... .. . ... : ... .. . ... : ... .. . ... : ... .. . ... F7C : ... .. . ... : ... .. . ... ... : ... .. . ...
ROW 06 : ... .. . ... : ... .. . ... : ... .. . ... : 3-# 0A . ... : C-3 09 . ... F96 : ... .. . ... : ... .. . ... ... : ... .. . ...
ROW 07 : ... .. . ... : ... .. . ... : ... .. . ... : ... .. . ... : ... .. . ... F7C : ... .. . ... : ... .. . ... ... : ... .. . ...
ROW 08 : D-3 14 . ... : A-2 14 . ... : D-3 0D . ... : 8-# 0A . ... : C#3 09 . ... F96 : D-1 0E . ... : F-4 0E . ... ... : A-4 0E . ...
ROW 09 : ... .. . ... : ... .. . ... : ... .. . ... : ... .. . ... : ... .. . ... F7C : ... .. . ... : ... .. . ... ... : ... .. . ...
ROW 0A : ... .. . ... : ... .. . ... : ... .. . ... : ... .. . ... : ... .. . ... F96 : ... .. . ... : ... .. . ... ... : ... .. . ...
ROW 0B : ... .. . ... : ... .. . ... : ... .. . ... : ... .. . ... : ... .. . ... F7C : ... .. . ... : ... .. . ... ... : ... .. . ...
ROW 0C : D-2 14 . ... : A-1 14 . ... : D-3 0D . ... : ... .. . ... : ... .. . ... F96 : D-1 0E . ... : A-4 0E . ... ... : D-4 0E . ...
ROW 0D : ... .. . ... : ... .. . ... : ... .. . ... : ... .. . ... : ... .. . ... F7C : ... .. . ... : ... .. . ... ... : ... .. . ...
ROW 0E : ... .. . ... : ... .. . ... : ... .. . ... : ... .. . ... : ... .. . ... F96 : ... .. . ... : ... .. . ... ... : ... .. . ...
ROW 0F : ... .. . ... : ... .. . ... : ... .. . ... : ... .. . ... : ... .. . ... F7C : ... .. . ... : ... .. . ... ... : ... .. . ...
ROW 10 : D-2 14 . ... : A-1 14 . ... : D-3 0D . ... : 3-# 0A . ... : C-3 09 . ... F96 : D-1 0E . ... : D-4 0E . ... ... : F-4 0E . ...
ROW 11 : ... .. . ... : ... .. . ... : ... .. . ... : ... .. . ... : ... .. . ... F7C : ... .. . ... : ... .. . ... ... : ... .. . ...
ROW 12 : ... .. . ... : ... .. . ... : ... .. . ... : ... .. . ... : ... .. . ... F96 : ... .. . ... : ... .. . ... ... : ... .. . ...
ROW 13 : ... .. . ... : ... .. . ... : ... .. . ... : ... .. . ... : ... .. . ... F7C : ... .. . ... : ... .. . ... ... : ... .. . ...
ROW 14 : D-3 14 . ... : A-2 14 . ... : D-3 0D . ... : 3-# 0A . ... : C-3 09 . ... F96 : D-1 0E . ... : F-4 0E . ... ... : A-4 0E . ...
ROW 15 : ... .. . ... : ... .. . ... : ... .. . ... : ... .. . ... : ... .. . ... F7C : ... .. . ... : ... .. . ... ... : ... .. . ...
ROW 16 : ... .. . ... : ... .. . ... : ... .. . ... : 3-# 0A . ... : C-3 09 . ... F96 : ... .. . ... : ... .. . ... ... : ... .. . ...
ROW 17 : ... .. . ... : ... .. . ... : ... .. . ... : ... .. . ... : ... .. . ... F7C : ... .. . ... : ... .. . ... ... : ... .. . ...
ROW 18 : D-2 14 . ... : A-1 14 . ... : D-3 0D . ... : 8-# 0A . ... : C#3 09 . ... F96 : D-1 0E . ... : A-4 0E . ... ... : D-4 0E . ...
ROW 19 : ... .. . ... : ... .. . ... : ... .. . ... : ... .. . ... : ... .. . ... F7C : ... .. . ... : ... .. . ... ... : ... .. . ...
ROW 1A : ... .. . ... : ... .. . ... : ... .. . ... : ... .. . ... : ... .. . ... F96 : ... .. . ... : ... .. . ... ... : ... .. . ...
ROW 1B : ... .. . ... : ... .. . ... : ... .. . ... : ... .. . ... : ... .. . ... F7C : ... .. . ... : ... .. . ... ... : ... .. . ...
ROW 1C : D-2 14 . ... : A-1 14 . ... : D-3 0D . ... : ... .. . ... : ... .. . ... F96 : D-1 0E . ... : D-4 0E . ... ... : F-4 0E . ...
ROW 1D : ... .. . ... : ... .. . ... : ... .. . ... : ... .. . ... : ... .. . ... F7C : ... .. . ... : ... .. . ... ... : ... .. . ...
ROW 1E : ... .. . ... : ... .. . ... : ... .. . ... : ... .. . ... : ... .. . ... F96 : ... .. . ... : ... .. . ... ... : ... .. . ...
ROW 1F : ... .. . ... : ... .. . ... : ... .. . ... : ... .. . ... : ... .. . ... F7C : ... .. . ... : ... .. . ... ... : ... .. . ...
ROW 20 : D-3 14 . ... : A-2 14 . ... : D-3 0D . ... : 3-# 0A . ... : C-3 09 . ... F96 : D-1 0E . ... : F-4 0E . ... ... : A-4 0E . ...
ROW 21 : ... .. . ... : ... .. . ... : ... .. . ... : ... .. . ... : ... .. . ... F7C : ... .. . ... : ... .. . ... ... : ... .. . ...
ROW 22 : ... .. . ... : ... .. . ... : ... .. . ... : ... .. . ... : ... .. . ... F96 : ... .. . ... : ... .. . ... ... : ... .. . ...
ROW 23 : ... .. . ... : ... .. . ... : ... .. . ... : ... .. . ... : ... .. . ... F7C : ... .. . ... : ... .. . ... ... : ... .. . ...
ROW 24 : D-2 14 . ... : A-1 14 . ... : D-3 0D . ... : ... .. . ... : ... .. . ... F96 : D-1 0E . ... : A-4 0E . ... ... : D-4 0E . ...
ROW 25 : ... .. . ... : ... .. . ... : ... .. . ... : ... .. . ... : ... .. . ... F7C : ... .. . ... : ... .. . ... ... : ... .. . ...
ROW 26 : ... .. . ... : ... .. . ... : ... .. . ... : 3-# 0A . ... : C-3 09 . ... F96 : ... .. . ... : ... .. . ... ... : ... .. . ...
ROW 27 : ... .. . ... : ... .. . ... : ... .. . ... : ... .. . ... : ... .. . ... F7C : ... .. . ... : ... .. . ... ... : ... .. . ...
ROW 28 : D-2 14 . ... : A-1 14 . ... : D-3 0D . ... : 8-# 0A . ... : C#3 09 . ... F96 : D-1 0E . ... : D-4 0E . ... ... : F-4 0E . ...
ROW 29 : ... .. . ... : ... .. . ... : ... .. . ... : ... .. . ... : ... .. . ... F7C : ... .. . ... : ... .. . ... ... : ... .. . ...
ROW 2A : ... .. . ... : ... .. . ... : ... .. . ... : ... .. . ... : ... .. . ... F96 : ... .. . ... : ... .. . ... ... : ... .. . ...
ROW 2B : ... .. . ... : ... .. . ... : ... .. . ... : ... .. . ... : ... .. . ... F7C : ... .. . ... : ... .. . ... ... : ... .. . ...
ROW 2C : D-3 14 . ... : A-2 14 . ... : D-3 0D . ... : ... .. . ... : ... .. . ... F96 : D-1 0E . ... : F-4 0E . ... ... : A-4 0E . ...
ROW 2D : ... .. . ... : ... .. . ... : ... .. . ... : ... .. . ... : ... .. . ... F7C : ... .. . ... : ... .. . ... ... : ... .. . ...
ROW 2E : ... .. . ... : ... .. . ... : ... .. . ... : ... .. . ... : ... .. . ... F96 : ... .. . ... : ... .. . ... ... : ... .. . ...
ROW 2F : ... .. . ... : ... .. . ... : ... .. . ... : ... .. . ... : ... .. . ... F7C : ... .. . ... : ... .. . ... ... : ... .. . ...
ROW 30 : D-2 14 . ... : A-1 14 . ... : D-3 0D . ... : 3-# 0A . ... : C-3 09 . ... F96 : D-1 0E . ... : A-4 0E . ... ... : D-4 0E . ...
ROW 31 : ... .. . ... : ... .. . ... : ... .. . ... : ... .. . ... : ... .. . ... F7C : ... .. . ... : ... .. . ... ... : ... .. . ...
ROW 32 : ... .. . ... : ... .. . ... : ... .. . ... : ... .. . ... : ... .. . ... F96 : ... .. . ... : ... .. . ... ... : ... .. . ...
ROW 33 : ... .. . ... : ... .. . ... : ... .. . ... : ... .. . ... : ... .. . ... F7C : ... .. . ... : ... .. . ... ... : ... .. . ...
ROW 34 : C-3 14 . ... : F-2 14 . ... : D-3 0D . ... : 3-# 0A . ... : C-3 09 . ... F96 : D-1 0E . ... : D-4 0E . ... ... : F-4 0E . ...
ROW 35 : ... .. . ... : ... .. . ... : ... .. . ... : ... .. . ... : ... .. . ... F7C : ... .. . ... : ... .. . ... ... : ... .. . ...
ROW 36 : ... .. . ... : ... .. . ... : ... .. . ... : 3-# 0A . ... : C-3 09 . ... F96 : ... .. . ... : ... .. . ... ... : ... .. . ...
ROW 37 : ... .. . ... : ... .. . ... : ... .. . ... : ... .. . ... : ... .. . ... F7C : ... .. . ... : ... .. . ... ... : ... .. . ...
ROW 38 : A#2 14 . ... : E-2 14 . ... : E-3 0D . ... : 8-# 0A . ... : C#3 09 . ... F96 : E-1 0E . ... : F-4 0E . ... ... : A-4 0E . ...
ROW 39 : ... .. . ... : ... .. . ... : ... .. . ... : ... .. . ... : ... .. . ... F7C : ... .. . ... : ... .. . ... ... : ... .. . ...
ROW 3A : ... .. . ... : ... .. . ... : ... .. . ... : ... .. . ... : ... .. . ... F96 : ... .. . ... : ... .. . ... ... : ... .. . ...
ROW 3B : ... .. . ... : ... .. . ... : ... .. . ... : ... .. . ... : ... .. . ... F7C : ... .. . ... : ... .. . ... ... : ... .. . ...
ROW 3C : A-2 14 . ... : D-2 14 . ... : F-3 0D . ... : ... .. . ... : ... .. . ... F96 : F-1 0E . ... : A-4 0E . ... ... : D-4 0E . ...
ROW 3D : ... .. . ... : ... .. . ... : ... .. . ... : ... .. . ... : ... .. . ... F7C : ... .. . ... : ... .. . ... ... : ... .. . ...
ROW 3E : ... .. . ... : ... .. . ... : ... .. . ... : ... .. . ... : ... .. . ... F96 : ... .. . ... : ... .. . ... ... : ... .. . ...
ROW 3F : ... .. . ... : ... .. . ... : ... .. . ... : ... .. . ... : ... .. . ... F7C : ... .. . ... : ... .. . ... ... : ... .. . ...

PATTERN 40
ROW 00 : C-2 14 . ... : G-1 14 . ... : C-3 0D . ... : 3-# 0A . ... : C-3 09 . ... F96 : C-1 0E . ... : D-4 0E . ... ... : C-4 0E . ...
ROW 01 : ... .. . ... : ... .. . ... : ... .. . ... : ... .. . ... : ... .. . ... F7C : ... .. . ... : ... .. . ... ... : ... .. . ...
ROW 02 : ... .. . ... : ... .. . ... : ... .. . ... : ... .. . ... : ... .. . ... F96 : ... .. . ... : ... .. . ... ... : ... .. . ...
ROW 03 : ... .. . ... : ... .. . ... : ... .. . ... : ... .. . ... : ... .. . ... F7C : ... .. . ... : ... .. . ... ... : ... .. . ...
ROW 04 : C-2 14 . ... : G-1 14 . ... : C-3 0D . ... : ... .. . ... : ... .. . ... F96 : C-1 0E . ... : C-4 0E . ... ... : E-4 0E . ...
ROW 05 : ... .. . ... : ... .. . ... : ... .. . ... : ... .. . ... : ... .. . ... F7C : ... .. . ... : ... .. . ... ... : ... .. . ...
ROW 06 : ... .. . ... : ... .. . ... : ... .. . ... : 3-# 0A . ... : C-3 09 . ... F96 : ... .. . ... : ... .. . ... ... : ... .. . ...
ROW 07 : ... .. . ... : ... .. . ... : ... .. . ... : ... .. . ... : ... .. . ... F7C : ... .. . ... : ... .. . ... ... : ... .. . ...
ROW 08 : C-3 14 . ... : G-2 14 . ... : C-3 0D . ... : 8-# 0A . ... : C#3 09 . ... F96 : C-1 0E . ... : E-4 0E . ... ... : G-4 0E . ...
ROW 09 : ... .. . ... : ... .. . ... : ... .. . ... : ... .. . ... : ... .. . ... F7C : ... .. . ... : ... .. . ... ... : ... .. . ...
ROW 0A : ... .. . ... : ... .. . ... : ... .. . ... : ... .. . ... : ... .. . ... F96 : ... .. . ... : ... .. . ... ... : ... .. . ...
ROW 0B : ... .. . ... : ... .. . ... : ... .. . ... : ... .. . ... : ... .. . ... F7C : ... .. . ... : ... .. . ... ... : ... .. . ...
ROW 0C : C-2 14 . ... : G-1 14 . ... : C-3 0D . ... : ... .. . ... : ... .. . ... F96 : C-1 0E . ... : G-4 0E . ... ... : C-4 0E . ...
ROW 0D : ... .. . ... : ... .. . ... : ... .. . ... : ... .. . ... : ... .. . ... F7C : ... .. . ... : ... .. . ... ... : ... .. . ...
ROW 0E : ... .. . ... : ... .. . ... : ... .. . ... : ... .. . ... : ... .. . ... F96 : ... .. . ... : ... .. . ... ... : ... .. . ...
ROW 0F : ... .. . ... : ... .. . ... : ... .. . ... : ... .. . ... : ... .. . ... F7C : ... .. . ... : ... .. . ... ... : ... .. . ...
ROW 10 : C-2 14 . ... : G-1 14 . ... : C-3 0D . ... : 3-# 0A . ... : C-3 09 . ... F96 : C-1 0E . ... : C-4 0E . ... ... : E-4 0E . ...
ROW 11 : ... .. . ... : ... .. . ... : ... .. . ... : ... .. . ... : ... .. . ... F7C : ... .. . ... : ... .. . ... ... : ... .. . ...
ROW 12 : ... .. . ... : ... .. . ... : ... .. . ... : ... .. . ... : ... .. . ... F96 : ... .. . ... : ... .. . ... ... : ... .. . ...
ROW 13 : ... .. . ... : ... .. . ... : ... .. . ... : ... .. . ... : ... .. . ... F7C : ... .. . ... : ... .. . ... ... : ... .. . ...
ROW 14 : C-3 14 . ... : G-2 14 . ... : C-3 0D . ... : 3-# 0A . ... : C-3 09 . ... F96 : C-1 0E . ... : E-4 0E . ... ... : G-4 0E . ...
ROW 15 : ... .. . ... : ... .. . ... : ... .. . ... : ... .. . ... : ... .. . ... F7C : ... .. . ... : ... .. . ... ... : ... .. . ...
ROW 16 : ... .. . ... : ... .. . ... : ... .. . ... : 3-# 0A . ... : C-3 09 . ... F96 : ... .. . ... : ... .. . ... ... : ... .. . ...
ROW 17 : ... .. . ... : ... .. . ... : ... .. . ... : ... .. . ... : ... .. . ... F7C : ... .. . ... : ... .. . ... ... : ... .. . ...
ROW 18 : C-2 14 . ... : G-1 14 . ... : C-3 0D . ... : 8-# 0A . ... : C#3 09 . ... F96 : C-1 0E . ... : G-4 0E . ... ... : C-4 0E . ...
ROW 19 : ... .. . ... : ... .. . ... : ... .. . ... : ... .. . ... : ... .. . ... F7C : ... .. . ... : ... .. . ... ... : ... .. . ...
ROW 1A : ... .. . ... : ... .. . ... : ... .. . ... : ... .. . ... : ... .. . ... F96 : ... .. . ... : ... .. . ... ... : ... .. . ...
ROW 1B : ... .. . ... : ... .. . ... : ... .. . ... : ... .. . ... : ... .. . ... F7C : ... .. . ... : ... .. . ... ... : ... .. . ...
ROW 1C : C-2 14 . ... : G-1 14 . ... : C-3 0D . ... : ... .. . ... : ... .. . ... F96 : C-1 0E . ... : C-4 0E . ... ... : E-4 0E . ...
ROW 1D : ... .. . ... : ... .. . ... : ... .. . ... : ... .. . ... : ... .. . ... F7C : ... .. . ... : ... .. . ... ... : ... .. . ...
ROW 1E : ... .. . ... : ... .. . ... : ... .. . ... : ... .. . ... : ... .. . ... F96 : ... .. . ... : ... .. . ... ... : ... .. . ...
ROW 1F : ... .. . ... : ... .. . ... : ... .. . ... : ... .. . ... : ... .. . ... F7C : ... .. . ... : ... .. . ... ... : ... .. . ...
ROW 20 : C-3 14 . ... : G-2 14 . ... : C-3 0D . ... : 3-# 0A . ... : C-3 09 . ... F96 : C-1 0E . ... : E-4 0E . ... ... : G-4 0E . ...
ROW 21 : ... .. . ... : ... .. . ... : ... .. . ... : ... .. . ... : ... .. . ... F7C : ... .. . ... : ... .. . ... ... : ... .. . ...
ROW 22 : ... .. . ... : ... .. . ... : ... .. . ... : ... .. . ... : ... .. . ... F96 : ... .. . ... : ... .. . ... ... : ... .. . ...
ROW 23 : ... .. . ... : ... .. . ... : ... .. . ... : ... .. . ... : ... .. . ... F7C : ... .. . ... : ... .. . ... ... : ... .. . ...
ROW 24 : C-2 14 . ... : G-1 14 . ... : C-3 0D . ... : ... .. . ... : ... .. . ... F96 : C-1 0E . ... : G-4 0E . ... ... : C-4 0E . ...
ROW 25 : ... .. . ... : ... .. . ... : ... .. . ... : ... .. . ... : ... .. . ... F7C : ... .. . ... : ... .. . ... ... : ... .. . ...
ROW 26 : ... .. . ... : ... .. . ... : ... .. . ... : 3-# 0A . ... : C-3 09 . ... F96 : ... .. . ... : ... .. . ... ... : ... .. . ...
ROW 27 : ... .. . ... : ... .. . ... : ... .. . ... : ... .. . ... : ... .. . ... F7C : ... .. . ... : ... .. . ... ... : ... .. . ...
ROW 28 : C-2 14 . ... : G-1 14 . ... : C-3 0D . ... : 8-# 0A . ... : C#3 09 . ... F96 : C-1 0E . ... : C-4 0E . ... ... : E-4 0E . ...
ROW 29 : ... .. . ... : ... .. . ... : ... .. . ... : ... .. . ... : ... .. . ... F7C : ... .. . ... : ... .. . ... ... : ... .. . ...
ROW 2A : ... .. . ... : ... .. . ... : ... .. . ... : ... .. . ... : ... .. . ... F96 : ... .. . ... : ... .. . ... ... : ... .. . ...
ROW 2B : ... .. . ... : ... .. . ... : ... .. . ... : ... .. . ... : ... .. . ... F7C : ... .. . ... : ... .. . ... ... : ... .. . ...
ROW 2C : C-3 14 . ... : G-2 14 . ... : C-3 0D . ... : ... .. . ... : ... .. . ... F96 : C-1 0E . ... : E-4 0E . ... ... : G-4 0E . ...
ROW 2D : ... .. . ... : ... .. . ... : ... .. . ... : ... .. . ... : ... .. . ... F7C : ... .. . ... : ... .. . ... ... : ... .. . ...
ROW 2E : ... .. . ... : ... .. . ... : ... .. . ... : ... .. . ... : ... .. . ... F96 : ... .. . ... : ... .. . ... ... : ... .. . ...
ROW 2F : ... .. . ... : ... .. . ... : ... .. . ... : ... .. . ... : ... .. . ... F7C : ... .. . ... : ... .. . ... ... : ... .. . ...
ROW 30 : C-2 14 . ... : G-1 14 . ... : C-3 0D . ... : 3-# 0A . ... : C-3 09 . ... F96 : C-1 0E . ... : G-4 0E . ... ... : C-4 0E . ...
ROW 31 : ... .. . ... : ... .. . ... : ... .. . ... : ... .. . ... : ... .. . ... F7C : ... .. . ... : ... .. . ... ... : ... .. . ...
ROW 32 : ... .. . ... : ... .. . ... : ... .. . ... : ... .. . ... : ... .. . ... F96 : ... .. . ... : ... .. . ... ... : ... .. . ...
ROW 33 : ... .. . ... : ... .. . ... : ... .. . ... : ... .. . ... : ... .. . ... F7C : ... .. . ... : ... .. . ... ... : ... .. . ...
ROW 34 : A#2 14 . ... : E-2 14 . ... : C-3 0D . ... : 3-# 0A . ... : C-3 09 . ... F96 : C-1 0E . ... : C-4 0E . ... ... : E-4 0E . ...
ROW 35 : ... .. . ... : ... .. . ... : ... .. . ... : ... .. . ... : ... .. . ... F7C : ... .. . ... : ... .. . ... ... : ... .. . ...
ROW 36 : ... .. . ... : ... .. . ... : ... .. . ... : 3-# 0A . ... : C-3 09 . ... F96 : ... .. . ... : ... .. . ... ... : ... .. . ...
ROW 37 : ... .. . ... : ... .. . ... : ... .. . ... : ... .. . ... : ... .. . ... F7C : ... .. . ... : ... .. . ... ... : ... .. . ...
ROW 38 : A-2 14 . ... : D-2 14 . ... : D-3 0D . ... : 8-# 0A . ... : C#3 09 . ... F96 : D-1 0E . ... : E-4 0E . ... ... : G-4 0E . ...
ROW 39 : ... .. . ... : ... .. . ... : ... .. . ... : ... .. . ... : ... .. . ... F7C : ... .. . ... : ... .. . ... ... : ... .. . ...
ROW 3A : ... .. . ... : ... .. . ... : ... .. . ... : ... .. . ... : ... .. . ... F96 : ... .. . ... : ... .. . ... ... : ... .. . ...
ROW 3B : ... .. . ... : ... .. . ... : ... .. . ... : ... .. . ... : ... .. . ... F7C : ... .. . ... : ... .. . ... ... : ... .. . ...
ROW 3C : G-2 14 . ... : C-2 14 . ... : E-3 0D . ... : ... .. . ... : ... .. . ... F96 : E-1 0E . ... : G-4 0E . ... ... : C-4 0E . ...
ROW 3D : ... .. . ... : ... .. . ... : ... .. . ... : ... .. . ... : ... .. . ... F7C : ... .. . ... : ... .. . ... ... : ... .. . ...
ROW 3E : ... .. . ... : ... .. . ... : ... .. . ... : ... .. . ... : ... .. . ... F96 : ... .. . ... : ... .. . ... ... : ... .. . ...
ROW 3F : ... .. . ... : ... .. . ... : ... .. . ... : ... .. . ... : ... .. . ... F7C : ... .. . ... : ... .. . ... ... : ... .. . ...

PATTERN 41
ROW 00 : A#1 14 . ... : F-1 14 . ... : A#2 0D . ... : 3-# 0A . ... : C-3 09 . ... F96 : A#0 0E . ... : C-4 0E . ... ... : A#3 0E . ...
ROW 01 : ... .. . ... : ... .. . ... : ... .. . ... : ... .. . ... : ... .. . ... F7C : ... .. . ... : ... .. . ... ... : ... .. . ...
ROW 02 : ... .. . ... : ... .. . ... : ... .. . ... : ... .. . ... : ... .. . ... F96 : ... .. . ... : ... .. . ... ... : ... .. . ...
ROW 03 : ... .. . ... : ... .. . ... : ... .. . ... : ... .. . ... : ... .. . ... F7C : ... .. . ... : ... .. . ... ... : ... .. . ...
ROW 04 : A#1 14 . ... : F-1 14 . ... : A#2 0D . ... : ... .. . ... : ... .. . ... F96 : A#0 0E . ... : A#3 0E . ... ... : D-4 0E . ...
ROW 05 : ... .. . ... : ... .. . ... : ... .. . ... : ... .. . ... : ... .. . ... F7C : ... .. . ... : ... .. . ... ... : ... .. . ...
ROW 06 : ... .. . ... : ... .. . ... : ... .. . ... : 3-# 0A . ... : C-3 09 . ... F96 : ... .. . ... : ... .. . ... ... : ... .. . ...
ROW 07 : ... .. . ... : ... .. . ... : ... .. . ... : ... .. . ... : ... .. . ... F7C : ... .. . ... : ... .. . ... ... : ... .. . ...
ROW 08 : A#2 14 . ... : F-2 14 . ... : A#2 0D . ... : 8-# 0A . ... : C#3 09 . ... F96 : A#0 0E . ... : D-4 0E . ... ... : F-4 0E . ...
ROW 09 : ... .. . ... : ... .. . ... : ... .. . ... : ... .. . ... : ... .. . ... F7C : ... .. . ... : ... .. . ... ... : ... .. . ...
ROW 0A : ... .. . ... : ... .. . ... : ... .. . ... : ... .. . ... : ... .. . ... F96 : ... .. . ... : ... .. . ... ... : ... .. . ...
ROW 0B : ... .. . ... : ... .. . ... : ... .. . ... : ... .. . ... : ... .. . ... F7C : ... .. . ... : ... .. . ... ... : ... .. . ...
ROW 0C : A#1 14 . ... : F-1 14 . ... : A#2 0D . ... : ... .. . ... : ... .. . ... F96 : A#0 0E . ... : F-4 0E . ... ... : A#3 0E . ...
ROW 0D : ... .. . ... : ... .. . ... : ... .. . ... : ... .. . ... : ... .. . ... F7C : ... .. . ... : ... .. . ... ... : ... .. . ...
ROW 0E : ... .. . ... : ... .. . ... : ... .. . ... : ... .. . ... : ... .. . ... F96 : ... .. . ... : ... .. . ... ... : ... .. . ...
ROW 0F : ... .. . ... : ... .. . ... : ... .. . ... : ... .. . ... : ... .. . ... F7C : ... .. . ... : ... .. . ... ... : ... .. . ...
ROW 10 : A#1 14 . ... : F-1 14 . ... : A#2 0D . ... : 3-# 0A . ... : C-3 09 . ... F96 : A#0 0E . ... : A#3 0E . ... ... : D-4 0E . ...
ROW 11 : ... .. . ... : ... .. . ... : ... .. . ... : ... .. . ... : ... .. . ... F7C : ... .. . ... : ... .. . ... ... : ... .. . ...
ROW 12 : ... .. . ... : ... .. . ... : ... .. . ... : ... .. . ... : ... .. . ... F96 : ... .. . ... : ... .. . ... ... : ... .. . ...
ROW 13 : ... .. . ... : ... .. . ... : ... .. . ... : ... .. . ... : ... .. . ... F7C : ... .. . ... : ... .. . ... ... : ... .. . ...
ROW 14 : A#2 14 . ... : F-2 14 . ... : A#2 0D . ... : 3-# 0A . ... : C-3 09 . ... F96 : A#0 0E . ... : D-4 0E . ... ... : F-4 0E . ...
ROW 15 : ... .. . ... : ... .. . ... : ... .. . ... : ... .. . ... : ... .. . ... F7C : ... .. . ... : ... .. . ... ... : ... .. . ...
ROW 16 : ... .. . ... : ... .. . ... : ... .. . ... : 3-# 0A . ... : C-3 09 . ... F96 : ... .. . ... : ... .. . ... ... : ... .. . ...
ROW 17 : ... .. . ... : ... .. . ... : ... .. . ... : ... .. . ... : ... .. . ... F7C : ... .. . ... : ... .. . ... ... : ... .. . ...
ROW 18 : A#1 14 . ... : F-1 14 . ... : A#2 0D . ... : 8-# 0A . ... : C#3 09 . ... F96 : A#0 0E . ... : F-4 0E . ... ... : A#3 0E . ...
ROW 19 : ... .. . ... : ... .. . ... : ... .. . ... : ... .. . ... : ... .. . ... F7C : ... .. . ... : ... .. . ... ... : ... .. . ...
ROW 1A : ... .. . ... : ... .. . ... : ... .. . ... : ... .. . ... : ... .. . ... F96 : ... .. . ... : ... .. . ... ... : ... .. . ...
ROW 1B : ... .. . ... : ... .. . ... : ... .. . ... : ... .. . ... : ... .. . ... F7C : ... .. . ... : ... .. . ... ... : ... .. . ...
ROW 1C : A#1 14 . ... : F-1 14 . ... : A#2 0D . ... : ... .. . ... : ... .. . ... F96 : A#0 0E . ... : A#3 0E . ... ... : D-4 0E . ...
ROW 1D : ... .. . ... : ... .. . ... : ... .. . ... : ... .. . ... : ... .. . ... F7C : ... .. . ... : ... .. . ... ... : ... .. . ...
ROW 1E : ... .. . ... : ... .. . ... : ... .. . ... : ... .. . ... : ... .. . ... F96 : ... .. . ... : ... .. . ... ... : ... .. . ...
ROW 1F : ... .. . ... : ... .. . ... : ... .. . ... : ... .. . ... : ... .. . ... F7C : ... .. . ... : ... .. . ... ... : ... .. . ...
ROW 20 : A#2 14 . ... : F-2 14 . ... : A#2 0D . ... : 3-# 0A . ... : C-3 09 . ... F96 : A#0 0E . ... : D-4 0E . ... ... : F-4 0E . ...
ROW 21 : ... .. . ... : ... .. . ... : ... .. . ... : ... .. . ... : ... .. . ... F7C : ... .. . ... : ... .. . ... ... : ... .. . ...
ROW 22 : ... .. . ... : ... .. . ... : ... .. . ... : ... .. . ... : ... .. . ... F96 : ... .. . ... : ... .. . ... ... : ... .. . ...
ROW 23 : ... .. . ... : ... .. . ... : ... .. . ... : ... .. . ... : ... .. . ... F7C : ... .. . ... : ... .. . ... ... : ... .. . ...
ROW 24 : A#1 14 . ... : F-1 14 . ... : A#2 0D . ... : ... .. . ... : ... .. . ... F96 : A#0 0E . ... : F-4 0E . ... ... : A#3 0E . ...
ROW 25 : ... .. . ... : ... .. . ... : ... .. . ... : ... .. . ... : ... .. . ... F7C : ... .. . ... : ... .. . ... ... : ... .. . ...
ROW 26 : ... .. . ... : ... .. . ... : ... .. . ... : 3-# 0A . ... : C-3 09 . ... F96 : ... .. . ... : ... .. . ... ... : ... .. . ...
ROW 27 : ... .. . ... : ... .. . ... : ... .. . ... : ... .. . ... : ... .. . ... F7C : ... .. . ... : ... .. . ... ... : ... .. . ...
ROW 28 : A#1 14 . ... : F-1 14 . ... : A#2 0D . ... : 8-# 0A . ... : C#3 09 . ... F96 : A#0 0E . ... : A#3 0E . ... ... : D-4 0E . ...
ROW 29 : ... .. . ... : ... .. . ... : ... .. . ... : ... .. . ... : ... .. . ... F7C : ... .. . ... : ... .. . ... ... : ... .. . ...
ROW 2A : ... .. . ... : ... .. . ... : ... .. . ... : ... .. . ... : ... .. . ... F96 : ... .. . ... : ... .. . ... ... : ... .. . ...
ROW 2B : ... .. . ... : ... .. . ... : ... .. . ... : ... .. . ... : ... .. . ... F7C : ... .. . ... : ... .. . ... ... : ... .. . ...
ROW 2C : A#2 14 . ... : F-2 14 . ... : A#2 0D . ... : ... .. . ... : ... .. . ... F96 : A#0 0E . ... : D-4 0E . ... ... : F-4 0E . ...
ROW 2D : ... .. . ... : ... .. . ... : ... .. . ... : ... .. . ... : ... .. . ... F7C : ... .. . ... : ... .. . ... ... : ... .. . ...
ROW 2E : ... .. . ... : ... .. . ... : ... .. . ... : ... .. . ... : ... .. . ... F96 : ... .. . ... : ... .. . ... ... : ... .. . ...
ROW 2F : ... .. . ... : ... .. . ... : ... .. . ... : ... .. . ... : ... .. . ... F7C : ... .. . ... : ... .. . ... ... : ... .. . ...
ROW 30 : A#1 14 . ... : F-1 14 . ... : A#2 0D . ... : 3-# 0A . ... : C-3 09 . ... F96 : A#0 0E . ... : F-4 0E . ... ... : A#3 0E . ...
ROW 31 : ... .. . ... : ... .. . ... : ... .. . ... : ... .. . ... : ... .. . ... F7C : ... .. . ... : ... .. . ... ... : ... .. . ...
ROW 32 : ... .. . ... : ... .. . ... : ... .. . ... : ... .. . ... : ... .. . ... F96 : ... .. . ... : ... .. . ... ... : ... .. . ...
ROW 33 : ... .. . ... : ... .. . ... : ... .. . ... : ... .. . ... : ... .. . ... F7C : ... .. . ... : ... .. . ... ... : ... .. . ...
ROW 34 : A-2 14 . ... : D-2 14 . ... : D-3 0D . ... : 3-# 0A . ... : C-3 09 . ... F96 : D-1 0E . ... : A#3 0E . ... ... : D-4 0E . ...
ROW 35 : ... .. . ... : ... .. . ... : ... .. . ... : ... .. . ... : ... .. . ... F7C : ... .. . ... : ... .. . ... ... : ... .. . ...
ROW 36 : ... .. . ... : ... .. . ... : ... .. . ... : 3-# 0A . ... : C-3 09 . ... F96 : ... .. . ... : ... .. . ... ... : ... .. . ...
ROW 37 : ... .. . ... : ... .. . ... : ... .. . ... : ... .. . ... : ... .. . ... F7C : ... .. . ... : ... .. . ... ... : ... .. . ...
ROW 38 : G-2 14 . ... : C-2 14 . ... : C-3 0D . ... : 8-# 0A . ... : C#3 09 . ... F96 : C-1 0E . ... : D-4 0E . ... ... : F-4 0E . ...
ROW 39 : ... .. . ... : ... .. . ... : ... .. . ... : ... .. . ... : ... .. . ... F7C : ... .. . ... : ... .. . ... ... : ... .. . ...
ROW 3A : ... .. . ... : ... .. . ... : ... .. . ... : ... .. . ... : ... .. . ... F96 : ... .. . ... : ... .. . ... ... : ... .. . ...
ROW 3B : ... .. . ... : ... .. . ... : ... .. . ... : ... .. . ... : ... .. . ... F7C : ... .. . ... : ... .. . ... ... : ... .. . ...
ROW 3C : F-2 14 . ... : A#1 14 . ... : A#2 0D . ... : ... .. . ... : ... .. . ... F96 : A#0 0E . ... : F-4 0E . ... ... : A#3 0E . ...
ROW 3D : ... .. . ... : ... .. . ... : ... .. . ... : ... .. . ... : ... .. . ... F7C : ... .. . ... : ... .. . ... ... : ... .. . ...
ROW 3E : ... .. . ... : ... .. . ... : ... .. . ... : ... .. . ... : ... .. . ... F96 : ... .. . ... : ... .. . ... ... : ... .. . ...
ROW 3F : ... .. . ... : ... .. . ... : ... .. . ... : ... .. . ... : ... .. . ... F7C : ... .. . ... : ... .. . ... ... : ... .. . ...

PATTERN 42
ROW 00 : C-2 14 . ... : G-1 14 . ... : C-3 0D . ... : 3-# 0A . ... : C-3 09 . ... F96 : C-1 0E . ... : A#3 0E . ... ... : C-4 0E . ...
ROW 01 : ... .. . ... : ... .. . ... : ... .. . ... : ... .. . ... : ... .. . ... F7C : ... .. . ... : ... .. . ... ... : ... .. . ...
ROW 02 : ... .. . ... : ... .. . ... : ... .. . ... : ... .. . ... : ... .. . ... F96 : ... .. . ... : ... .. . ... ... : ... .. . ...
ROW 03 : ... .. . ... : ... .. . ... : ... .. . ... : ... .. . ... : ... .. . ... F7C : ... .. . ... : ... .. . ... ... : ... .. . ...
ROW 04 : C-2 14 . ... : G-1 14 . ... : C-3 0D . ... : ... .. . ... : ... .. . ... F96 : C-1 0E . ... : C-4 0E . ... ... : E-4 0E . ...
ROW 05 : ... .. . ... : ... .. . ... : ... .. . ... : ... .. . ... : ... .. . ... F7C : ... .. . ... : ... .. . ... ... : ... .. . ...
ROW 06 : ... .. . ... : ... .. . ... : ... .. . ... : 3-# 0A . ... : C-3 09 . ... F96 : ... .. . ... : ... .. . ... ... : ... .. . ...
ROW 07 : ... .. . ... : ... .. . ... : ... .. . ... : ... .. . ... : ... .. . ... F7C : ... .. . ... : ... .. . ... ... : ... .. . ...
ROW 08 : C-3 14 . ... : G-2 14 . ... : C-3 0D . ... : 8-# 0A . ... : C#3 09 . ... F96 : C-1 0E . ... : E-4 0E . ... ... : G-4 0E . ...
ROW 09 : ... .. . ... : ... .. . ... : ... .. . ... : ... .. . ... : ... .. . ... F7C : ... .. . ... : ... .. . ... ... : ... .. . ...
ROW 0A : ... .. . ... : ... .. . ... : ... .. . ... : ... .. . ... : ... .. . ... F96 : ... .. . ... : ... .. . ... ... : ... .. . ...
ROW 0B : ... .. . ... : ... .. . ... : ... .. . ... : ... .. . ... : ... .. . ... F7C : ... .. . ... : ... .. . ... ... : ... .. . ...
ROW 0C : C-2 14 . ... : G-1 14 . ... : C-3 0D . ... : ... .. . ... : ... .. . ... F96 : C-1 0E . ... : G-4 0E . ... ... : C-4 0E . ...
ROW 0D : ... .. . ... : ... .. . ... : ... .. . ... : ... .. . ... : ... .. . ... F7C : ... .. . ... : ... .. . ... ... : ... .. . ...
ROW 0E : ... .. . ... : ... .. . ... : ... .. . ... : ... .. . ... : ... .. . ... F96 : ... .. . ... : ... .. . ... ... : ... .. . ...
ROW 0F : ... .. . ... : ... .. . ... : ... .. . ... : ... .. . ... : ... .. . ... F7C : ... .. . ... : ... .. . ... ... : ... .. . ...
ROW 10 : C-2 14 . ... : G-1 14 . ... : C-3 0D . ... : 3-# 0A . ... : C-3 09 . ... F96 : C-1 0E . ... : C-4 0E . ... ... : E-4 0E . ...
ROW 11 : ... .. . ... : ... .. . ... : ... .. . ... : ... .. . ... : ... .. . ... F7C : ... .. . ... : ... .. . ... ... : ... .. . ...
ROW 12 : ... .. . ... : ... .. . ... : ... .. . ... : ... .. . ... : ... .. . ... F96 : ... .. . ... : ... .. . ... ... : ... .. . ...
ROW 13 : ... .. . ... : ... .. . ... : ... .. . ... : ... .. . ... : ... .. . ... F7C : ... .. . ... : ... .. . ... ... : ... .. . ...
ROW 14 : C-3 14 . ... : G-2 14 . ... : C-3 0D . ... : 3-# 0A . ... : C-3 09 . ... F96 : C-1 0E . ... : E-4 0E . ... ... : G-4 0E . ...
ROW 15 : ... .. . ... : ... .. . ... : ... .. . ... : ... .. . ... : ... .. . ... F7C : ... .. . ... : ... .. . ... ... : ... .. . ...
ROW 16 : ... .. . ... : ... .. . ... : ... .. . ... : 3-# 0A . ... : C-3 09 . ... F96 : ... .. . ... : ... .. . ... ... : ... .. . ...
ROW 17 : ... .. . ... : ... .. . ... : ... .. . ... : ... .. . ... : ... .. . ... F7C : ... .. . ... : ... .. . ... ... : ... .. . ...
ROW 18 : C-2 14 . ... : G-1 14 . ... : C-3 0D . ... : 8-# 0A . ... : C#3 09 . ... F96 : C-1 0E . ... : G-4 0E . ... ... : C-4 0E . ...
ROW 19 : ... .. . ... : ... .. . ... : ... .. . ... : ... .. . ... : ... .. . ... F7C : ... .. . ... : ... .. . ... ... : ... .. . ...
ROW 1A : ... .. . ... : ... .. . ... : ... .. . ... : ... .. . ... : ... .. . ... F96 : ... .. . ... : ... .. . ... ... : ... .. . ...
ROW 1B : ... .. . ... : ... .. . ... : ... .. . ... : ... .. . ... : ... .. . ... F7C : ... .. . ... : ... .. . ... ... : ... .. . ...
ROW 1C : C-2 14 . ... : G-1 14 . ... : C-3 0D . ... : ... .. . ... : ... .. . ... F96 : C-1 0E . ... : C-4 0E . ... ... : E-4 0E . ...
ROW 1D : ... .. . ... : ... .. . ... : ... .. . ... : ... .. . ... : ... .. . ... F7C : ... .. . ... : ... .. . ... ... : ... .. . ...
ROW 1E : ... .. . ... : ... .. . ... : ... .. . ... : ... .. . ... : ... .. . ... F96 : ... .. . ... : ... .. . ... ... : ... .. . ...
ROW 1F : ... .. . ... : ... .. . ... : ... .. . ... : ... .. . ... : ... .. . ... F7C : ... .. . ... : ... .. . ... ... : ... .. . ...
ROW 20 : A-2 14 . ... : E-2 14 . ... : A-2 0D . ... : 3-# 0A . ... : C-3 09 . ... F96 : A-0 0E . ... : E-4 0E . ... ... : A-3 0E . ...
ROW 21 : ... .. . ... : ... .. . ... : ... .. . ... : ... .. . ... : ... .. . ... F7C : ... .. . ... : ... .. . ... ... : ... .. . ...
ROW 22 : ... .. . ... : ... .. . ... : ... .. . ... : ... .. . ... : ... .. . ... F96 : ... .. . ... : ... .. . ... ... : ... .. . ...
ROW 23 : ... .. . ... : ... .. . ... : ... .. . ... : ... .. . ... : ... .. . ... F7C : ... .. . ... : ... .. . ... ... : ... .. . ...
ROW 24 : A-1 14 . ... : E-1 14 . ... : A-2 0D . ... : ... .. . ... : ... .. . ... F96 : A-0 0E . ... : A-3 0E . ... ... : C#4 0E . ...
ROW 25 : ... .. . ... : ... .. . ... : ... .. . ... : ... .. . ... : ... .. . ... F7C : ... .. . ... : ... .. . ... ... : ... .. . ...
ROW 26 : ... .. . ... : ... .. . ... : ... .. . ... : 3-# 0A . ... : C-3 09 . ... F96 : ... .. . ... : ... .. . ... ... : ... .. . ...
ROW 27 : ... .. . ... : ... .. . ... : ... .. . ... : ... .. . ... : ... .. . ... F7C : ... .. . ... : ... .. . ... ... : ... .. . ...
ROW 28 : A-1 14 . ... : E-1 14 . ... : A-2 0D . ... : 8-# 0A . ... : C#3 09 . ... F96 : A-0 0E . ... : C#4 0E . ... ... : E-4 0E . ...
ROW 29 : ... .. . ... : ... .. . ... : ... .. . ... : ... .. . ... : ... .. . ... F7C : ... .. . ... : ... .. . ... ... : ... .. . ...
ROW 2A : ... .. . ... : ... .. . ... : ... .. . ... : ... .. . ... : ... .. . ... F96 : ... .. . ... : ... .. . ... ... : ... .. . ...
ROW 2B : ... .. . ... : ... .. . ... : ... .. . ... : ... .. . ... : ... .. . ... F7C : ... .. . ... : ... .. . ... ... : ... .. . ...
ROW 2C : A-2 14 . ... : E-2 14 . ... : A-2 0D . ... : ... .. . ... : ... .. . ... F96 : A-0 0E . ... : E-4 0E . ... ... : A-4 0E . ...
ROW 2D : ... .. . ... : ... .. . ... : ... .. . ... : ... .. . ... : ... .. . ... F7C : ... .. . ... : ... .. . ... ... : ... .. . ...
ROW 2E : ... .. . ... : ... .. . ... : ... .. . ... : ... .. . ... : ... .. . ... F96 : ... .. . ... : ... .. . ... ... : ... .. . ...
ROW 2F : ... .. . ... : ... .. . ... : ... .. . ... : A-# 0B . G02 : D#3 09 . G02 F7C : ... .. . ... : ... .. . ... ... : ... .. . ...
ROW 30 : A-1 14 . ... : E-1 14 . ... : A-2 0D . ... : A-# 0B . G01 : D#3 09 . G01 F96 : A-0 0E . ... : A-4 0E . ... ... : G-4 0E . ...
ROW 31 : ... .. . ... : ... .. . ... : ... .. . ... : ... .. . ... : ... .. . ... F7C : ... .. . ... : ... .. . ... ... : ... .. . ...
ROW 32 : ... .. . ... : ... .. . ... : ... .. . ... : ... .. . ... : ... .. . ... F96 : ... .. . ... : ... .. . ... ... : ... .. . ...
ROW 33 : ... .. . ... : ... .. . ... : ... .. . ... : ... .. . ... : ... .. . ... F7C : ... .. . ... : ... .. . ... ... : ... .. . ...
ROW 34 : A-1 14 . ... : E-1 14 . ... : A-2 0D . ... : ... .. . ... : ... .. . ... F96 : A-0 0E . ... : G-4 0E . ... ... : F-4 0E . ...
ROW 35 : ... .. . ... : ... .. . ... : ... .. . ... : ... .. . ... : ... .. . ... F7C : ... .. . ... : ... .. . ... ... : ... .. . ...
ROW 36 : ... .. . ... : ... .. . ... : ... .. . ... : ... .. . ... : ... .. . ... F96 : ... .. . ... : ... .. . ... ... : ... .. . ...
ROW 37 : ... .. . ... : ... .. . ... : ... .. . ... : 7-# 0B . G02 : F#3 09 . G02 F7C : ... .. . ... : ... .. . ... ... : ... .. . ...
ROW 38 : A-2 14 . ... : E-2 14 . ... : A-2 0D . ... : 7-# 0B . G01 : F#3 09 . G01 F96 : A-0 0E . ... : F-4 0E . ... ... : ... .. . 454
ROW 39 : ... .. . ... : ... .. . ... : ... .. . ... : ... .. . ... : ... .. . ... F7C : ... .. . ... : ... .. . ... ... : ... .. . ...
ROW 3A : ... .. . ... : ... .. . ... : ... .. . ... : ... .. . ... : ... .. . ... F96 : ... .. . ... : ... .. . ... ... : ... .. . ...
ROW 3B : ... .. . ... : ... .. . ... : ... .. . ... : ... .. . ... : ... .. . ... F7C : ... .. . ... : ... .. . ... ... : ... .. . ...
ROW 3C : A-1 14 . ... : E-1 14 . ... : A-2 0D . ... : ... .. . ... : ... .. . ... F96 : A-0 0E . ... : ... .. . 454 ... : ... .. . ...
ROW 3D : ... .. . ... : ... .. . ... : ... .. . ... : ... .. . ... : ... .. . ... F7C : ... .. . ... : ... .. . ... ... : ... .. . ...
ROW 3E : ... .. . ... : ... .. . ... : ... .. . ... : ... .. . ... : ... .. . ... F96 : ... .. . ... : ... .. . ... ... : ... .. . ...
ROW 3F : ... .. . ... : ... .. . ... : ... .. . ... : ... .. . ... : ... .. . ... F7C : ... .. . ... : ... .. . ... ... : ... .. . ...

PATTERN 43
ROW 00 : A#2 14 . ... : F-2 14 . ... : A#2 0D . ... : 3-# 0A . ... : C-3 09 . ... F96 : A#0 0E . ... : ... .. . ... ... : F-4 0E . 400
ROW 01 : ... .. . ... : ... .. . ... : ... .. . ... : ... .. . ... : ... .. . ... F7C : ... .. . ... : ... .. . ... ... : ... .. . ...
ROW 02 : ... .. . ... : ... .. . ... : ... .. . ... : ... .. . ... : ... .. . ... F96 : ... .. . ... : ... .. . ... ... : ... .. . ...
ROW 03 : ... .. . ... : ... .. . ... : ... .. . ... : ... .. . ... : ... .. . ... F7C : ... .. . ... : ... .. . ... ... : ... .. . ...
ROW 04 : ... .. . ... : ... .. . ... : A#2 0D . ... : ... .. . ... : ... .. . ... F96 : A#0 0E . ... : F-4 0E . 400 ... : ... .. . 454
ROW 05 : ... .. . ... : ... .. . ... : ... .. . ... : ... .. . ... : ... .. . ... F7C : ... .. . ... : ... .. . ... ... : ... .. . ...
ROW 06 : ... .. . ... : ... .. . ... : ... .. . ... : 3-# 0A . ... : C-3 09 . ... F96 : ... .. . ... : ... .. . ... ... : ... .. . ...
ROW 07 : ... .. . ... : ... .. . ... : ... .. . ... : ... .. . ... : ... .. . ... F7C : ... .. . ... : ... .. . ... ... : ... .. . ...
ROW 08 : ... .. . ... : ... .. . ... : A#2 0D . ... : 8-# 0A . ... : C#3 09 . ... F96 : A#0 0E . ... : ... .. . 454 ... : ... .. . ...
ROW 09 : ... .. . ... : ... .. . ... : ... .. . ... : ... .. . ... : ... .. . ... F7C : ... .. . ... : ... .. . ... ... : ... .. . ...
ROW 0A : ... .. . ... : ... .. . ... : ... .. . ... : ... .. . ... : ... .. . ... F96 : ... .. . ... : ... .. . ... ... : ... .. . ...
ROW 0B : ... .. . ... : ... .. . ... : ... .. . ... : ... .. . ... : ... .. . ... F7C : ... .. . ... : ... .. . ... ... : ... .. . ...
ROW 0C : A-2 14 . ... : E-2 14 . ... : A#2 0D . ... : ... .. . ... : ... .. . ... F96 : A#0 0E . ... : ... .. . ... ... : E-4 0E . 400
ROW 0D : ... .. . ... : ... .. . ... : ... .. . ... : ... .. . ... : ... .. . ... F7C : ... .. . ... : ... .. . ... ... : ... .. . ...
ROW 0E : ... .. . ... : ... .. . ... : ... .. . ... : ... .. . ... : ... .. . ... F96 : ... .. . ... : ... .. . ... ... : ... .. . ...
ROW 0F : ... .. . ... : ... .. . ... : ... .. . ... : ... .. . ... : ... .. . ... F7C : ... .. . ... : ... .. . ... ... : ... .. . ...
ROW 10 : ... .. . ... : ... .. . ... : A#2 0D . ... : 3-# 0A . ... : C-3 09 . ... F96 : A#0 0E . ... : E-4 0E . 400 ... : ... .. . 454
ROW 11 : ... .. . ... : ... .. . ... : ... .. . ... : ... .. . ... : ... .. . ... F7C : ... .. . ... : ... .. . ... ... : ... .. . ...
ROW 12 : ... .. . ... : ... .. . ... : ... .. . ... : ... .. . ... : ... .. . ... F96 : ... .. . ... : ... .. . ... ... : ... .. . ...
ROW 13 : ... .. . ... : ... .. . ... : ... .. . ... : ... .. . ... : ... .. . ... F7C : ... .. . ... : ... .. . ... ... : ... .. . ...
ROW 14 : ... .. . ... : ... .. . ... : A#2 0D . ... : 3-# 0A . ... : C-3 09 . ... F96 : A#0 0E . ... : ... .. . 454 ... : ... .. . ...
ROW 15 : ... .. . ... : ... .. . ... : ... .. . ... : ... .. . ... : ... .. . ... F7C : ... .. . ... : ... .. . ... ... : ... .. . ...
ROW 16 : ... .. . ... : ... .. . ... : ... .. . ... : 3-# 0A . ... : C-3 09 . ... F96 : ... .. . ... : ... .. . ... ... : ... .. . ...
ROW 17 : ... .. . ... : ... .. . ... : ... .. . ... : ... .. . ... : ... .. . ... F7C : ... .. . ... : ... .. . ... ... : ... .. . ...
ROW 18 : A#2 14 . ... : F-2 14 . ... : A#2 0D . ... : 8-# 0A . ... : C#3 09 . ... F96 : A#0 0E . ... : ... .. . ... ... : F-4 0E . 400
ROW 19 : ... .. . ... : ... .. . ... : ... .. . ... : ... .. . ... : ... .. . ... F7C : ... .. . ... : ... .. . ... ... : ... .. . ...
ROW 1A : ... .. . ... : ... .. . ... : ... .. . ... : ... .. . ... : ... .. . ... F96 : ... .. . ... : ... .. . ... ... : ... .. . ...
ROW 1B : ... .. . ... : ... .. . ... : ... .. . ... : ... .. . ... : ... .. . ... F7C : ... .. . ... : ... .. . ... ... : ... .. . ...
ROW 1C : ... .. . ... : ... .. . ... : A#2 0D . ... : ... .. . ... : ... .. . ... F96 : A#0 0E . ... : F-4 0E . 400 ... : ... .. . 454
ROW 1D : ... .. . ... : ... .. . ... : ... .. . ... : ... .. . ... : ... .. . ... F7C : ... .. . ... : ... .. . ... ... : ... .. . ...
ROW 1E : ... .. . ... : ... .. . ... : ... .. . ... : ... .. . ... : ... .. . ... F96 : ... .. . ... : ... .. . ... ... : ... .. . ...
ROW 1F : ... .. . ... : ... .. . ... : ... .. . ... : ... .. . ... : ... .. . ... F7C : ... .. . ... : ... .. . ... ... : ... .. . ...
ROW 20 : A#2 14 . ... : F-2 14 . ... : A#2 0D . ... : 3-# 0A . ... : C-3 09 . ... F96 : A#0 0E . ... : ... .. . 454 ... : F-4 0E . 400
ROW 21 : ... .. . ... : ... .. . ... : ... .. . ... : ... .. . ... : ... .. . ... F7C : ... .. . ... : ... .. . ... ... : ... .. . ...
ROW 22 : ... .. . ... : ... .. . ... : ... .. . ... : ... .. . ... : ... .. . ... F96 : ... .. . ... : ... .. . ... ... : ... .. . ...
ROW 23 : ... .. . ... : ... .. . ... : ... .. . ... : ... .. . ... : ... .. . ... F7C : ... .. . ... : ... .. . ... ... : ... .. . ...
ROW 24 : ... .. . ... : ... .. . ... : A#2 0D . ... : ... .. . ... : ... .. . ... F96 : A#0 0E . ... : F-4 0E . 400 ... : ... .. . 454
ROW 25 : ... .. . ... : ... .. . ... : ... .. . ... : ... .. . ... : ... .. . ... F7C : ... .. . ... : ... .. . ... ... : ... .. . ...
ROW 26 : ... .. . ... : ... .. . ... : ... .. . ... : 3-# 0A . ... : C-3 09 . ... F96 : ... .. . ... : ... .. . ... ... : ... .. . ...
ROW 27 : ... .. . ... : ... .. . ... : ... .. . ... : ... .. . ... : ... .. . ... F7C : ... .. . ... : ... .. . ... ... : ... .. . ...
ROW 28 : ... .. . ... : ... .. . ... : A#2 0D . ... : 8-# 0A . ... : C#3 09 . ... F96 : A#0 0E . ... : ... .. . 454 ... : ... .. . ...
ROW 29 : ... .. . ... : ... .. . ... : ... .. . ... : ... .. . ... : ... .. . ... F7C : ... .. . ... : ... .. . ... ... : ... .. . ...
ROW 2A : ... .. . ... : ... .. . ... : ... .. . ... : ... .. . ... : ... .. . ... F96 : ... .. . ... : ... .. . ... ... : ... .. . ...
ROW 2B : ... .. . ... : ... .. . ... : ... .. . ... : ... .. . ... : ... .. . ... F7C : ... .. . ... : ... .. . ... ... : ... .. . ...
ROW 2C : A-2 14 . ... : E-2 14 . ... : A#2 0D . ... : ... .. . ... : ... .. . ... F96 : A#0 0E . ... : ... .. . ... ... : E-4 0E . 400
ROW 2D : ... .. . ... : ... .. . ... : ... .. . ... : ... .. . ... : ... .. . ... F7C : ... .. . ... : ... .. . ... ... : ... .. . ...
ROW 2E : ... .. . ... : ... .. . ... : ... .. . ... : ... .. . ... : ... .. . ... F96 : ... .. . ... : ... .. . ... ... : ... .. . ...
ROW 2F : ... .. . ... : ... .. . ... : ... .. . ... : ... .. . ... : ... .. . ... F7C : ... .. . ... : ... .. . ... ... : ... .. . ...
ROW 30 : ... .. . ... : ... .. . ... : A#2 0D . ... : 3-# 0A . ... : C-3 09 . ... F96 : A#0 0E . ... : E-4 0E . 400 ... : ... .. . 454
ROW 31 : ... .. . ... : ... .. . ... : ... .. . ... : ... .. . ... : ... .. . ... F7C : ... .. . ... : ... .. . ... ... : ... .. . ...
ROW 32 : ... .. . ... : ... .. . ... : ... .. . ... : ... .. . ... : ... .. . ... F96 : ... .. . ... : ... .. . ... ... : ... .. . ...
ROW 33 : ... .. . ... : ... .. . ... : ... .. . ... : ... .. . ... : ... .. . ... F7C : ... .. . ... : ... .. . ... ... : ... .. . ...
ROW 34 : ... .. . ... : ... .. . ... : A#2 0D . ... : 3-# 0A . ... : C-3 09 . ... F96 : A#0 0E . ... : ... .. . 454 ... : ... .. . ...
ROW 35 : ... .. . ... : ... .. . ... : ... .. . ... : ... .. . ... : ... .. . ... F7C : ... .. . ... : ... .. . ... ... : ... .. . ...
ROW 36 : ... .. . ... : ... .. . ... : ... .. . ... : 3-# 0A . ... : C-3 09 . ... F96 : ... .. . ... : ... .. . ... ... : ... .. . ...
ROW 37 : ... .. . ... : ... .. . ... : ... .. . ... : ... .. . ... : ... .. . ... F7C : ... .. . ... : ... .. . ... ... : ... .. . ...
ROW 38 : A#2 14 . ... : F-2 14 . ... : A#2 0D . ... : 8-# 0A . ... : C#3 09 . ... F96 : A#0 0E . ... : ... .. . ... ... : F-4 0E . 400
ROW 39 : ... .. . ... : ... .. . ... : ... .. . ... : ... .. . ... : ... .. . ... F7C : ... .. . ... : ... .. . ... ... : ... .. . ...
ROW 3A : ... .. . ... : ... .. . ... : ... .. . ... : ... .. . ... : ... .. . ... F96 : ... .. . ... : ... .. . ... ... : ... .. . ...
ROW 3B : ... .. . ... : ... .. . ... : ... .. . ... : ... .. . ... : ... .. . ... F7C : ... .. . ... : ... .. . ... ... : ... .. . ...
ROW 3C : ... .. . ... : ... .. . ... : A#2 0D . ... : ... .. . ... : ... .. . ... F96 : A#0 0E . ... : F-4 0E . 400 ... : ... .. . 454
ROW 3D : ... .. . ... : ... .. . ... : ... .. . ... : ... .. . ... : ... .. . ... F7C : ... .. . ... : ... .. . ... ... : ... .. . ...
ROW 3E : ... .. . ... : ... .. . ... : ... .. . ... : ... .. . ... : ... .. . ... F96 : ... .. . ... : ... .. . ... ... : ... .. . ...
ROW 3F : ... .. . ... : ... .. . ... : ... .. . ... : ... .. . ... : ... .. . ... F7C : ... .. . ... : ... .. . ... ... : ... .. . ...

PATTERN 44
ROW 00 : C-3 14 . ... : G-2 14 . ... : C-3 0D . ... : 3-# 0A . ... : C-3 09 . ... F96 : C-1 0E . ... : ... .. . 454 ... : G-4 0E . 400
ROW 01 : ... .. . ... : ... .. . ... : ... .. . ... : ... .. . ... : ... .. . ... F7C : ... .. . ... : ... .. . ... ... : ... .. . ...
ROW 02 : ... .. . ... : ... .. . ... : ... .. . ... : ... .. . ... : ... .. . ... F96 : ... .. . ... : ... .. . ... ... : ... .. . ...
ROW 03 : ... .. . ... : ... .. . ... : ... .. . ... : ... .. . ... : ... .. . ... F7C : ... .. . ... : ... .. . ... ... : ... .. . ...
ROW 04 : ... .. . ... : ... .. . ... : C-3 0D . ... : ... .. . ... : ... .. . ... F96 : C-1 0E . ... : G-4 0E . 400 ... : F-4 0E . ...
ROW 05 : ... .. . ... : ... .. . ... : ... .. . ... : ... .. . ... : ... .. . ... F7C : ... .. . ... : ... .. . ... ... : ... .. . ...
ROW 06 : ... .. . ... : ... .. . ... : ... .. . ... : 3-# 0A . ... : C-3 09 . ... F96 : ... .. . ... : ... .. . ... ... : ... .. . ...
ROW 07 : ... .. . ... : ... .. . ... : ... .. . ... : ... .. . ... : ... .. . ... F7C : ... .. . ... : ... .. . ... ... : ... .. . ...
ROW 08 : ... .. . ... : ... .. . ... : C-3 0D . ... : 8-# 0A . ... : C#3 09 . ... F96 : C-1 0E . ... : F-4 0E . ... ... : E-4 0E . ...
ROW 09 : ... .. . ... : ... .. . ... : ... .. . ... : ... .. . ... : ... .. . ... F7C : ... .. . ... : ... .. . ... ... : ... .. . ...
ROW 0A : ... .. . ... : ... .. . ... : ... .. . ... : ... .. . ... : ... .. . ... F96 : ... .. . ... : ... .. . ... ... : ... .. . ...
ROW 0B : ... .. . ... : ... .. . ... : ... .. . ... : ... .. . ... : ... .. . ... F7C : ... .. . ... : ... .. . ... ... : ... .. . ...
ROW 0C : ... .. . ... : ... .. . ... : C-3 0D . ... : ... .. . ... : ... .. . ... F96 : C-1 0E . ... : E-4 0E . ... ... : F-4 0E . ...
ROW 0D : ... .. . ... : ... .. . ... : ... .. . ... : ... .. . ... : ... .. . ... F7C : ... .. . ... : ... .. . ... ... : ... .. . ...
ROW 0E : ... .. . ... : ... .. . ... : ... .. . ... : ... .. . ... : ... .. . ... F96 : ... .. . ... : ... .. . ... ... : ... .. . ...
ROW 0F : ... .. . ... : ... .. . ... : ... .. . ... : ... .. . ... : ... .. . ... F7C : ... .. . ... : ... .. . ... ... : ... .. . ...
ROW 10 : ... .. . ... : ... .. . ... : C-3 0D . ... : 3-# 0A . ... : C-3 09 . ... F96 : C-1 0E . ... : F-4 0E . ... ... : E-4 0E . ...
ROW 11 : ... .. . ... : ... .. . ... : ... .. . ... : ... .. . ... : ... .. . ... F7C : ... .. . ... : ... .. . ... ... : ... .. . ...
ROW 12 : ... .. . ... : ... .. . ... : ... .. . ... : ... .. . ... : ... .. . ... F96 : ... .. . ... : ... .. . ... ... : ... .. . ...
ROW 13 : ... .. . ... : ... .. . ... : ... .. . ... : ... .. . ... : ... .. . ... F7C : ... .. . ... : ... .. . ... ... : ... .. . ...
ROW 14 : ... .. . ... : ... .. . ... : C-3 0D . ... : 3-# 0A . ... : C-3 09 . ... F96 : C-1 0E . ... : E-4 0E . ... ... : D-4 0E . ...
ROW 15 : ... .. . ... : ... .. . ... : ... .. . ... : ... .. . ... : ... .. . ... F7C : ... .. . ... : ... .. . ... ... : ... .. . ...
ROW 16 : ... .. . ... : ... .. . ... : ... .. . ... : 3-# 0A . ... : C-3 09 . ... F96 : ... .. . ... : ... .. . ... ... : ... .. . ...
ROW 17 : ... .. . ... : ... .. . ... : ... .. . ... : ... .. . ... : ... .. . ... F7C : ... .. . ... : ... .. . ... ... : ... .. . ...
ROW 18 : ... .. . ... : ... .. . ... : C-3 0D . ... : 8-# 0A . ... : C#3 09 . ... F96 : C-1 0E . ... : D-4 0E . ... ... : E-4 0E . ...
ROW 19 : ... .. . ... : ... .. . ... : ... .. . ... : ... .. . ... : ... .. . ... F7C : ... .. . ... : ... .. . ... ... : ... .. . ...
ROW 1A : ... .. . ... : ... .. . ... : ... .. . ... : ... .. . ... : ... .. . ... F96 : ... .. . ... : ... .. . ... ... : ... .. . ...
ROW 1B : ... .. . ... : ... .. . ... : ... .. . ... : ... .. . ... : ... .. . ... F7C : ... .. . ... : ... .. . ... ... : ... .. . ...
ROW 1C : ... .. . ... : ... .. . ... : C-3 0D . ... : ... .. . ... : ... .. . ... F96 : C-1 0E . ... : E-4 0E . ... ... : D-4 0E . ...
ROW 1D : ... .. . ... : ... .. . ... : ... .. . ... : ... .. . ... : ... .. . ... F7C : ... .. . ... : ... .. . ... ... : ... .. . ...
ROW 1E : ... .. . ... : ... .. . ... : ... .. . ... : ... .. . ... : ... .. . ... F96 : ... .. . ... : ... .. . ... ... : ... .. . ...
ROW 1F : ... .. . ... : ... .. . ... : ... .. . ... : ... .. . ... : ... .. . ... F7C : ... .. . ... : ... .. . ... ... : ... .. . ...
ROW 20 : A-2 14 . ... : E-2 14 . ... : A-2 0D . ... : 3-# 0A . ... : C-3 09 . ... F96 : A-0 0E . ... : D-4 0E . ... ... : C#4 0E . ...
ROW 21 : ... .. . ... : ... .. . ... : ... .. . ... : ... .. . ... : ... .. . ... F7C : ... .. . ... : ... .. . ... ... : ... .. . ...
ROW 22 : ... .. . ... : ... .. . ... : ... .. . ... : ... .. . ... : ... .. . ... F96 : ... .. . ... : ... .. . ... ... : ... .. . ...
ROW 23 : ... .. . ... : ... .. . ... : ... .. . ... : ... .. . ... : ... .. . ... F7C : ... .. . ... : ... .. . ... ... : ... .. . ...
ROW 24 : ... .. . ... : ... .. . ... : A-2 0D . ... : ... .. . ... : ... .. . ... F96 : A-0 0E . ... : C#4 0E . ... ... : D-4 0E . ...
ROW 25 : ... .. . ... : ... .. . ... : ... .. . ... : ... .. . ... : ... .. . ... F7C : ... .. . ... : ... .. . ... ... : ... .. . ...
ROW 26 : ... .. . ... : ... .. . ... : ... .. . ... : 3-# 0A . ... : C-3 09 . ... F96 : ... .. . ... : ... .. . ... ... : ... .. . ...
ROW 27 : ... .. . ... : ... .. . ... : ... .. . ... : ... .. . ... : ... .. . ... F7C : ... .. . ... : ... .. . ... ... : ... .. . ...
ROW 28 : ... .. . ... : ... .. . ... : A-2 0D . ... : 8-# 0A . ... : C#3 09 . ... F96 : A-0 0E . ... : D-4 0E . ... ... : E-4 0E . ...
ROW 29 : ... .. . ... : ... .. . ... : ... .. . ... : ... .. . ... : ... .. . ... F7C : ... .. . ... : ... .. . ... ... : ... .. . ...
ROW 2A : ... .. . ... : ... .. . ... : ... .. . ... : ... .. . ... : ... .. . ... F96 : ... .. . ... : ... .. . ... ... : ... .. . ...
ROW 2B : ... .. . ... : ... .. . ... : ... .. . ... : ... .. . ... : ... .. . ... F7C : ... .. . ... : ... .. . ... ... : ... .. . ...
ROW 2C : ... .. . ... : ... .. . ... : A-2 0D . ... : ... .. . ... : ... .. . ... F96 : A-0 0E . ... : E-4 0E . ... ... : F-4 0E . ...
ROW 2D : ... .. . ... : ... .. . ... : ... .. . ... : ... .. . ... : ... .. . ... F7C : ... .. . ... : ... .. . ... ... : ... .. . ...
ROW 2E : ... .. . ... : ... .. . ... : ... .. . ... : ... .. . ... : ... .. . ... F96 : ... .. . ... : ... .. . ... ... : ... .. . ...
ROW 2F : ... .. . ... : ... .. . ... : ... .. . ... : ... .. . ... : ... .. . ... F7C : ... .. . ... : ... .. . ... ... : ... .. . ...
ROW 30 : ... .. . ... : ... .. . ... : A-2 0D . ... : 3-# 0A . ... : C-3 09 . ... F96 : A-0 0E . ... : F-4 0E . ... ... : G-4 0E . ...
ROW 31 : ... .. . ... : ... .. . ... : ... .. . ... : ... .. . ... : ... .. . ... F7C : ... .. . ... : ... .. . ... ... : ... .. . ...
ROW 32 : ... .. . ... : ... .. . ... : ... .. . ... : ... .. . ... : ... .. . ... F96 : ... .. . ... : ... .. . ... ... : ... .. . ...
ROW 33 : ... .. . ... : ... .. . ... : ... .. . ... : ... .. . ... : ... .. . ... F7C : ... .. . ... : ... .. . ... ... : ... .. . ...
ROW 34 : ... .. . ... : ... .. . ... : A-2 0D . ... : 3-# 0A . ... : C-3 09 . ... F96 : A-0 0E . ... : G-4 0E . ... ... : F-4 0E . ...
ROW 35 : ... .. . ... : ... .. . ... : ... .. . ... : ... .. . ... : ... .. . ... F7C : ... .. . ... : ... .. . ... ... : ... .. . ...
ROW 36 : ... .. . ... : ... .. . ... : ... .. . ... : 3-# 0A . ... : C-3 09 . ... F96 : ... .. . ... : ... .. . ... ... : ... .. . ...
ROW 37 : ... .. . ... : ... .. . ... : ... .. . ... : ... .. . ... : ... .. . ... F7C : ... .. . ... : ... .. . ... ... : ... .. . ...
ROW 38 : ... .. . ... : ... .. . ... : A-2 0D . ... : 8-# 0A . ... : C#3 09 . ... F96 : A-0 0E . ... : F-4 0E . ... ... : E-4 0E . ...
ROW 39 : ... .. . ... : ... .. . ... : ... .. . ... : ... .. . ... : ... .. . ... F7C : ... .. . ... : ... .. . ... ... : ... .. . ...
ROW 3A : ... .. . ... : ... .. . ... : ... .. . ... : ... .. . ... : ... .. . ... F96 : ... .. . ... : ... .. . ... ... : ... .. . ...
ROW 3B : ... .. . ... : ... .. . ... : ... .. . ... : ... .. . ... : ... .. . ... F7C : ... .. . ... : ... .. . ... ... : ... .. . ...
ROW 3C : ... .. . ... : ... .. . ... : A-2 0D . ... : ... .. . ... : ... .. . ... F96 : A-0 0E . ... : E-4 0E . ... ... : D-4 0E . ...
ROW 3D : ... .. . ... : ... .. . ... : ... .. . ... : ... .. . ... : ... .. . ... F7C : ... .. . ... : ... .. . ... ... : ... .. . ...
ROW 3E : ... .. . ... : ... .. . ... : ... .. . ... : ... .. . ... : ... .. . ... F96 : ... .. . ... : ... .. . ... ... : ... .. . ...
ROW 3F : ... .. . ... : ... .. . ... : ... .. . ... : ... .. . ... : ... .. . ... F7C : ... .. . ... : ... .. . ... ... : ... .. . ...

PATTERN 45
ROW 00 : A#2 14 . ... : F-2 14 . ... : A#2 0D . ... : 3-# 0A . ... : C-3 09 . ... F96 : A#0 0E . ... : D-4 0E . ... ... : F-4 0E . ...
ROW 01 : ... .. . ... : ... .. . ... : ... .. . ... : ... .. . ... : ... .. . ... F7C : ... .. . ... : ... .. . ... ... : ... .. . ...
ROW 02 : ... .. . ... : ... .. . ... : ... .. . ... : ... .. . ... : ... .. . ... F96 : ... .. . ... : ... .. . ... ... : ... .. . ...
ROW 03 : ... .. . ... : ... .. . ... : ... .. . ... : ... .. . ... : ... .. . ... F7C : ... .. . ... : ... .. . ... ... : ... .. . ...
ROW 04 : ... .. . ... : ... .. . ... : A#2 0D . ... : ... .. . ... : ... .. . ... F96 : A#0 0E . ... : F-4 0E . ... ... : ... .. . 454
ROW 05 : ... .. . ... : ... .. . ... : ... .. . ... : ... .. . ... : ... .. . ... F7C : ... .. . ... : ... .. . ... ... : ... .. . ...
ROW 06 : ... .. . ... : ... .. . ... : ... .. . ... : 3-# 0A . ... : C-3 09 . ... F96 : ... .. . ... : ... .. . ... ... : ... .. . ...
ROW 07 : ... .. . ... : ... .. . ... : ... .. . ... : ... .. . ... : ... .. . ... F7C : ... .. . ... : ... .. . ... ... : ... .. . ...
ROW 08 : ... .. . ... : ... .. . ... : A#2 0D . ... : 8-# 0A . ... : C#3 09 . ... F96 : A#0 0E . ... : ... .. . 454 ... : ... .. . ...
ROW 09 : ... .. . ... : ... .. . ... : ... .. . ... : ... .. . ... : ... .. . ... F7C : ... .. . ... : ... .. . ... ... : ... .. . ...
ROW 0A : ... .. . ... : ... .. . ... : ... .. . ... : ... .. . ... : ... .. . ... F96 : ... .. . ... : ... .. . ... ... : ... .. . ...
ROW 0B : ... .. . ... : ... .. . ... : ... .. . ... : ... .. . ... : ... .. . ... F7C : ... .. . ... : ... .. . ... ... : ... .. . ...
ROW 0C : A-2 14 . ... : E-2 14 . ... : A#2 0D . ... : ... .. . ... : ... .. . ... F96 : A#0 0E . ... : ... .. . ... ... : E-4 0E . 400
ROW 0D : ... .. . ... : ... .. . ... : ... .. . ... : ... .. . ... : ... .. . ... F7C : ... .. . ... : ... .. . ... ... : ... .. . ...
ROW 0E : ... .. . ... : ... .. . ... : ... .. . ... : ... .. . ... : ... .. . ... F96 : ... .. . ... : ... .. . ... ... : ... .. . ...
ROW 0F : ... .. . ... : ... .. . ... : ... .. . ... : ... .. . ... : ... .. . ... F7C : ... .. . ... : ... .. . ... ... : ... .. . ...
ROW 10 : ... .. . ... : ... .. . ... : A#2 0D . ... : 3-# 0A . ... : C-3 09 . ... F96 : A#0 0E . ... : E-4 0E . 400 ... : ... .. . 454
ROW 11 : ... .. . ... : ... .. . ... : ... .. . ... : ... .. . ... : ... .. . ... F7C : ... .. . ... : ... .. . ... ... : ... .. . ...
ROW 12 : ... .. . ... : ... .. . ... : ... .. . ... : ... .. . ... : ... .. . ... F96 : ... .. . ... : ... .. . ... ... : ... .. . ...
ROW 13 : ... .. . ... : ... .. . ... : ... .. . ... : ... .. . ... : ... .. . ... F7C : ... .. . ... : ... .. . ... ... : ... .. . ...
ROW 14 : ... .. . ... : ... .. . ... : A#2 0D . ... : 3-# 0A . ... : C-3 09 . ... F96 : A#0 0E . ... : ... .. . 454 ... : ... .. . ...
ROW 15 : ... .. . ... : ... .. . ... : ... .. . ... : ... .. . ... : ... .. . ... F7C : ... .. . ... : ... .. . ... ... : ... .. . ...
ROW 16 : ... .. . ... : ... .. . ... : ... .. . ... : 3-# 0A . ... : C-3 09 . ... F96 : ... .. . ... : ... .. . ... ... : ... .. . ...
ROW 17 : ... .. . ... : ... .. . ... : ... .. . ... : ... .. . ... : ... .. . ... F7C : ... .. . ... : ... .. . ... ... : ... .. . ...
ROW 18 : A#2 14 . ... : F-2 14 . ... : A#2 0D . ... : 8-# 0A . ... : C#3 09 . ... F96 : A#0 0E . ... : ... .. . ... ... : F-4 0E . 400
ROW 19 : ... .. . ... : ... .. . ... : ... .. . ... : ... .. . ... : ... .. . ... F7C : ... .. . ... : ... .. . ... ... : ... .. . ...
ROW 1A : ... .. . ... : ... .. . ... : ... .. . ... : ... .. . ... : ... .. . ... F96 : ... .. . ... : ... .. . ... ... : ... .. . ...
ROW 1B : ... .. . ... : ... .. . ... : ... .. . ... : ... .. . ... : ... .. . ... F7C : ... .. . ... : ... .. . ... ... : ... .. . ...
ROW 1C : ... .. . ... : ... .. . ... : A#2 0D . ... : ... .. . ... : ... .. . ... F96 : A#0 0E . ... : F-4 0E . 400 ... : ... .. . 454
ROW 1D : ... .. . ... : ... .. . ... : ... .. . ... : ... .. . ... : ... .. . ... F7C : ... .. . ... : ... .. . ... ... : ... .. . ...
ROW 1E : ... .. . ... : ... .. . ... : ... .. . ... : ... .. . ... : ... .. . ... F96 : ... .. . ... : ... .. . ... ... : ... .. . ...
ROW 1F : ... .. . ... : ... .. . ... : ... .. . ... : ... .. . ... : ... .. . ... F7C : ... .. . ... : ... .. . ... ... : ... .. . ...
ROW 20 : A#2 14 . ... : F-2 14 . ... : A#2 0D . ... : 3-# 0A . ... : C-3 09 . ... F96 : A#0 0E . ... : ... .. . 454 ... : F-4 0E . 400
ROW 21 : ... .. . ... : ... .. . ... : ... .. . ... : ... .. . ... : ... .. . ... F7C : ... .. . ... : ... .. . ... ... : ... .. . ...
ROW 22 : ... .. . ... : ... .. . ... : ... .. . ... : ... .. . ... : ... .. . ... F96 : ... .. . ... : ... .. . ... ... : ... .. . ...
ROW 23 : ... .. . ... : ... .. . ... : ... .. . ... : ... .. . ... : ... .. . ... F7C : ... .. . ... : ... .. . ... ... : ... .. . ...
ROW 24 : ... .. . ... : ... .. . ... : A#2 0D . ... : ... .. . ... : ... .. . ... F96 : A#0 0E . ... : F-4 0E . 400 ... : ... .. . 454
ROW 25 : ... .. . ... : ... .. . ... : ... .. . ... : ... .. . ... : ... .. . ... F7C : ... .. . ... : ... .. . ... ... : ... .. . ...
ROW 26 : ... .. . ... : ... .. . ... : ... .. . ... : 3-# 0A . ... : C-3 09 . ... F96 : ... .. . ... : ... .. . ... ... : ... .. . ...
ROW 27 : ... .. . ... : ... .. . ... : ... .. . ... : ... .. . ... : ... .. . ... F7C : ... .. . ... : ... .. . ... ... : ... .. . ...
ROW 28 : ... .. . ... : ... .. . ... : A#2 0D . ... : 8-# 0A . ... : C#3 09 . ... F96 : A#0 0E . ... : ... .. . 454 ... : ... .. . ...
ROW 29 : ... .. . ... : ... .. . ... : ... .. . ... : ... .. . ... : ... .. . ... F7C : ... .. . ... : ... .. . ... ... : ... .. . ...
ROW 2A : ... .. . ... : ... .. . ... : ... .. . ... : ... .. . ... : ... .. . ... F96 : ... .. . ... : ... .. . ... ... : ... .. . ...
ROW 2B : ... .. . ... : ... .. . ... : ... .. . ... : ... .. . ... : ... .. . ... F7C : ... .. . ... : ... .. . ... ... : ... .. . ...
ROW 2C : A-2 14 . ... : E-2 14 . ... : A#2 0D . ... : ... .. . ... : ... .. . ... F96 : A#0 0E . ... : ... .. . ... ... : E-4 0E . 400
ROW 2D : ... .. . ... : ... .. . ... : ... .. . ... : ... .. . ... : ... .. . ... F7C : ... .. . ... : ... .. . ... ... : ... .. . ...
ROW 2E : ... .. . ... : ... .. . ... : ... .. . ... : ... .. . ... : ... .. . ... F96 : ... .. . ... : ... .. . ... ... : ... .. . ...
ROW 2F : ... .. . ... : ... .. . ... : ... .. . ... : ... .. . ... : ... .. . ... F7C : ... .. . ... : ... .. . ... ... : ... .. . ...
ROW 30 : ... .. . ... : ... .. . ... : A#2 0D . ... : 3-# 0A . ... : C-3 09 . ... F96 : A#0 0E . ... : E-4 0E . 400 ... : ... .. . 454
ROW 31 : ... .. . ... : ... .. . ... : ... .. . ... : ... .. . ... : ... .. . ... F7C : ... .. . ... : ... .. . ... ... : ... .. . ...
ROW 32 : ... .. . ... : ... .. . ... : ... .. . ... : ... .. . ... : ... .. . ... F96 : ... .. . ... : ... .. . ... ... : ... .. . ...
ROW 33 : ... .. . ... : ... .. . ... : ... .. . ... : ... .. . ... : ... .. . ... F7C : ... .. . ... : ... .. . ... ... : ... .. . ...
ROW 34 : ... .. . ... : ... .. . ... : A#2 0D . ... : 3-# 0A . ... : C-3 09 . ... F96 : A#0 0E . ... : ... .. . 454 ... : ... .. . ...
ROW 35 : ... .. . ... : ... .. . ... : ... .. . ... : ... .. . ... : ... .. . ... F7C : ... .. . ... : ... .. . ... ... : ... .. . ...
ROW 36 : ... .. . ... : ... .. . ... : ... .. . ... : 3-# 0A . ... : C-3 09 . ... F96 : ... .. . ... : ... .. . ... ... : ... .. . ...
ROW 37 : ... .. . ... : ... .. . ... : ... .. . ... : ... .. . ... : ... .. . ... F7C : ... .. . ... : ... .. . ... ... : ... .. . ...
ROW 38 : A#2 14 . ... : F-2 14 . ... : A#2 0D . ... : 8-# 0A . ... : C#3 09 . ... F96 : A#0 0E . ... : ... .. . ... ... : F-4 0E . 400
ROW 39 : ... .. . ... : ... .. . ... : ... .. . ... : ... .. . ... : ... .. . ... F7C : ... .. . ... : ... .. . ... ... : ... .. . ...
ROW 3A : ... .. . ... : ... .. . ... : ... .. . ... : ... .. . ... : ... .. . ... F96 : ... .. . ... : ... .. . ... ... : ... .. . ...
ROW 3B : ... .. . ... : ... .. . ... : ... .. . ... : ... .. . ... : ... .. . ... F7C : ... .. . ... : ... .. . ... ... : ... .. . ...
ROW 3C : ... .. . ... : ... .. . ... : A#2 0D . ... : ... .. . ... : ... .. . ... F96 : A#0 0E . ... : F-4 0E . 400 ... : ... .. . 454
ROW 3D : ... .. . ... : ... .. . ... : ... .. . ... : ... .. . ... : ... .. . ... F7C : ... .. . ... : ... .. . ... ... : ... .. . ...
ROW 3E : ... .. . ... : ... .. . ... : ... .. . ... : ... .. . ... : ... .. . ... F96 : ... .. . ... : ... .. . ... ... : ... .. . ...
ROW 3F : ... .. . ... : ... .. . ... : ... .. . ... : ... .. . ... : ... .. . ... F7C : ... .. . ... : ... .. . ... ... : ... .. . ...

PATTERN 46
ROW 00 : C-3 14 . ... : G-2 14 . ... : C-3 0D . ... : 3-# 0A . ... : C-3 09 . ... F96 : C-1 0E . ... : ... .. . 454 ... : E-4 0E . 400
ROW 01 : ... .. . ... : ... .. . ... : ... .. . ... : ... .. . ... : ... .. . ... F7C : ... .. . ... : ... .. . ... ... : ... .. . ...
ROW 02 : ... .. . ... : ... .. . ... : ... .. . ... : ... .. . ... : ... .. . ... F96 : ... .. . ... : ... .. . ... ... : ... .. . ...
ROW 03 : ... .. . ... : ... .. . ... : ... .. . ... : ... .. . ... : ... .. . ... F7C : ... .. . ... : ... .. . ... ... : ... .. . ...
ROW 04 : ... .. . ... : ... .. . ... : C-3 0D . ... : ... .. . ... : ... .. . ... F96 : C-1 0E . ... : E-4 0E . 400 ... : F-4 0E . ...
ROW 05 : ... .. . ... : ... .. . ... : ... .. . ... : ... .. . ... : ... .. . ... F7C : ... .. . ... : ... .. . ... ... : ... .. . ...
ROW 06 : ... .. . ... : ... .. . ... : ... .. . ... : 3-# 0A . ... : C-3 09 . ... F96 : ... .. . ... : ... .. . ... ... : ... .. . ...
ROW 07 : ... .. . ... : ... .. . ... : ... .. . ... : ... .. . ... : ... .. . ... F7C : ... .. . ... : ... .. . ... ... : ... .. . ...
ROW 08 : ... .. . ... : ... .. . ... : C-3 0D . ... : 8-# 0A . ... : C#3 09 . ... F96 : C-1 0E . ... : F-4 0E . ... ... : G-4 0E . ...
ROW 09 : ... .. . ... : ... .. . ... : ... .. . ... : ... .. . ... : ... .. . ... F7C : ... .. . ... : ... .. . ... ... : ... .. . ...
ROW 0A : ... .. . ... : ... .. . ... : ... .. . ... : ... .. . ... : ... .. . ... F96 : ... .. . ... : ... .. . ... ... : ... .. . ...
ROW 0B : ... .. . ... : ... .. . ... : ... .. . ... : ... .. . ... : ... .. . ... F7C : ... .. . ... : ... .. . ... ... : ... .. . ...
ROW 0C : ... .. . ... : ... .. . ... : C-3 0D . ... : ... .. . ... : ... .. . ... F96 : C-1 0E . ... : G-4 0E . ... ... : A-4 0E . ...
ROW 0D : ... .. . ... : ... .. . ... : ... .. . ... : ... .. . ... : ... .. . ... F7C : ... .. . ... : ... .. . ... ... : ... .. . ...
ROW 0E : ... .. . ... : ... .. . ... : ... .. . ... : ... .. . ... : ... .. . ... F96 : ... .. . ... : ... .. . ... ... : ... .. . ...
ROW 0F : ... .. . ... : ... .. . ... : ... .. . ... : ... .. . ... : ... .. . ... F7C : ... .. . ... : ... .. . ... ... : ... .. . ...
ROW 10 : ... .. . ... : ... .. . ... : C-3 0D . ... : 3-# 0A . ... : C-3 09 . ... F96 : C-1 0E . ... : A-4 0E . ... ... : A#4 0E . ...
ROW 11 : ... .. . ... : ... .. . ... : ... .. . ... : ... .. . ... : ... .. . ... F7C : ... .. . ... : ... .. . ... ... : ... .. . ...
ROW 12 : ... .. . ... : ... .. . ... : ... .. . ... : ... .. . ... : ... .. . ... F96 : ... .. . ... : ... .. . ... ... : ... .. . ...
ROW 13 : ... .. . ... : ... .. . ... : ... .. . ... : ... .. . ... : ... .. . ... F7C : ... .. . ... : ... .. . ... ... : ... .. . ...
ROW 14 : ... .. . ... : ... .. . ... : C-3 0D . ... : 3-# 0A . ... : C-3 09 . ... F96 : C-1 0E . ... : A#4 0E . ... ... : A-4 0E . ...
ROW 15 : ... .. . ... : ... .. . ... : ... .. . ... : ... .. . ... : ... .. . ... F7C : ... .. . ... : ... .. . ... ... : ... .. . ...
ROW 16 : ... .. . ... : ... .. . ... : ... .. . ... : 3-# 0A . ... : C-3 09 . ... F96 : ... .. . ... : ... .. . ... ... : ... .. . ...
ROW 17 : ... .. . ... : ... .. . ... : ... .. . ... : ... .. . ... : ... .. . ... F7C : ... .. . ... : ... .. . ... ... : ... .. . ...
ROW 18 : ... .. . ... : ... .. . ... : C-3 0D . ... : 8-# 0A . ... : C#3 09 . ... F96 : C-1 0E . ... : A-4 0E . ... ... : G-4 0E . ...
ROW 19 : ... .. . ... : ... .. . ... : ... .. . ... : ... .. . ... : ... .. . ... F7C : ... .. . ... : ... .. . ... ... : ... .. . ...
ROW 1A : ... .. . ... : ... .. . ... : ... .. . ... : ... .. . ... : ... .. . ... F96 : ... .. . ... : ... .. . ... ... : ... .. . ...
ROW 1B : ... .. . ... : ... .. . ... : ... .. . ... : ... .. . ... : ... .. . ... F7C : ... .. . ... : ... .. . ... ... : ... .. . ...
ROW 1C : ... .. . ... : ... .. . ... : C-3 0D . ... : ... .. . ... : ... .. . ... F96 : C-1 0E . ... : G-4 0E . ... ... : C-5 0E . ...
ROW 1D : ... .. . ... : ... .. . ... : ... .. . ... : ... .. . ... : ... .. . ... F7C : ... .. . ... : ... .. . ... ... : ... .. . ...
ROW 1E : ... .. . ... : ... .. . ... : ... .. . ... : ... .. . ... : ... .. . ... F96 : ... .. . ... : ... .. . ... ... : ... .. . ...
ROW 1F : ... .. . ... : ... .. . ... : ... .. . ... : B-# 0B . G02 : D-3 09 . G02 F7C : ... .. . ... : ... .. . ... ... : ... .. . ...
ROW 20 : C#3 14 . ... : A-2 14 . ... : A-2 0D . ... : B-# 0B . G01 : D-3 09 . G01 F96 : A-0 0E . ... : C-5 0E . ... ... : A#4 0E . ...
ROW 21 : ... .. . ... : ... .. . ... : ... .. . ... : ... .. . ... : ... .. . ... F7C : ... .. . ... : ... .. . ... ... : ... .. . ...
ROW 22 : ... .. . ... : ... .. . ... : ... .. . ... : B-# 0B . ... : D-3 09 . ... F96 : ... .. . ... : ... .. . ... ... : ... .. . ...
ROW 23 : ... .. . ... : ... .. . ... : ... .. . ... : ... .. . ... : ... .. . ... F7C : ... .. . ... : ... .. . ... ... : ... .. . ...
ROW 24 : ... .. . ... : ... .. . ... : A-2 0D . ... : B-# 0B . ... : D-3 09 . ... F96 : A-0 0E . ... : A#4 0E . ... ... : A-4 0E . ...
ROW 25 : ... .. . ... : ... .. . ... : ... .. . ... : ... .. . ... : ... .. . ... F7C : ... .. . ... : ... .. . ... ... : ... .. . ...
ROW 26 : ... .. . ... : ... .. . ... : ... .. . ... : B-# 0B . ... : D-3 09 . ... F96 : ... .. . ... : ... .. . ... ... : ... .. . ...
ROW 27 : ... .. . ... : ... .. . ... : ... .. . ... : ... .. . ... : ... .. . ... F7C : ... .. . ... : ... .. . ... ... : ... .. . ...
ROW 28 : ... .. . ... : ... .. . ... : A-2 0D . ... : A-# 0B . ... : D#3 09 . ... F96 : A-0 0E . ... : A-4 0E . ... ... : G-4 0E . ...
ROW 29 : ... .. . ... : ... .. . ... : ... .. . ... : ... .. . ... : ... .. . ... F7C : ... .. . ... : ... .. . ... ... : ... .. . ...
ROW 2A : ... .. . ... : ... .. . ... : ... .. . ... : A-# 0B . ... : D#3 09 . ... F96 : ... .. . ... : ... .. . ... ... : ... .. . ...
ROW 2B : ... .. . ... : ... .. . ... : ... .. . ... : ... .. . ... : ... .. . ... F7C : ... .. . ... : ... .. . ... ... : ... .. . ...
ROW 2C : ... .. . ... : ... .. . ... : A-2 0D . ... : A-# 0B . ... : D#3 09 . ... F96 : A-0 0E . ... : G-4 0E . ... ... : F-4 0E . ...
ROW 2D : ... .. . ... : ... .. . ... : ... .. . ... : ... .. . ... : ... .. . ... F7C : ... .. . ... : ... .. . ... ... : ... .. . ...
ROW 2E : ... .. . ... : ... .. . ... : ... .. . ... : A-# 0B . ... : D#3 09 . ... F96 : ... .. . ... : ... .. . ... ... : ... .. . ...
ROW 2F : ... .. . ... : ... .. . ... : ... .. . ... : ... .. . ... : ... .. . ... F7C : ... .. . ... : ... .. . ... ... : ... .. . ...
ROW 30 : ... .. . ... : ... .. . ... : A-2 0D . ... : 9-# 0B . ... : E-3 09 . ... F96 : A-0 0E . ... : F-4 0E . ... ... : E-4 0E . ...
ROW 31 : ... .. . ... : ... .. . ... : ... .. . ... : ... .. . ... : ... .. . ... F7C : ... .. . ... : ... .. . ... ... : ... .. . ...
ROW 32 : ... .. . ... : ... .. . ... : ... .. . ... : 9-# 0B . ... : E-3 09 . ... F96 : ... .. . ... : ... .. . ... ... : ... .. . ...
ROW 33 : ... .. . ... : ... .. . ... : ... .. . ... : ... .. . ... : ... .. . ... F7C : ... .. . ... : ... .. . ... ... : ... .. . ...
ROW 34 : ... .. . ... : ... .. . ... : A-2 0D . ... : 9-# 0B . ... : E-3 09 . ... F96 : A-0 0E . ... : E-4 0E . ... ... : D-4 0E . ...
ROW 35 : ... .. . ... : ... .. . ... : ... .. . ... : ... .. . ... : ... .. . ... F7C : ... .. . ... : ... .. . ... ... : ... .. . ...
ROW 36 : ... .. . ... : ... .. . ... : ... .. . ... : 9-# 0B . ... : E-3 09 . ... F96 : ... .. . ... : ... .. . ... ... : ... .. . ...
ROW 37 : ... .. . ... : ... .. . ... : ... .. . ... : 8-# 0A . G02 : C#3 09 . G02 F7C : ... .. . ... : ... .. . ... ... : ... .. . ...
ROW 38 : ... .. . ... : ... .. . ... : A-2 0D . ... : 8-# 0A . G01 : C#3 09 . G01 F96 : A-0 0E . ... : D-4 0E . ... ... : C#4 0E . ...
ROW 39 : ... .. . ... : ... .. . ... : ... .. . ... : ... .. . ... : ... .. . ... F7C : ... .. . ... : ... .. . ... ... : ... .. . ...
ROW 3A : ... .. . ... : ... .. . ... : ... .. . ... : 8-# 0A . ... : C#3 09 . ... F96 : ... .. . ... : ... .. . ... ... : ... .. . ...
ROW 3B : ... .. . ... : ... .. . ... : ... .. . ... : ... .. . ... : ... .. . ... F7C : ... .. . ... : ... .. . ... ... : ... .. . ...
ROW 3C : ... .. . ... : ... .. . ... : A-2 0D . ... : 8-# 0A . ... : C#3 09 . ... F96 : A-0 0E . ... : C#4 0E . ... ... : A-3 0E . ...
ROW 3D : ... .. . ... : ... .. . ... : ... .. . ... : ... .. . ... : ... .. . ... F7C : ... .. . ... : ... .. . ... ... : ... .. . ...
ROW 3E : ... .. . ... : ... .. . ... : ... .. . ... : 8-# 0A . ... : C#3 09 . ... F96 : ... .. . ... : ... .. . ... ... : ... .. . ...
ROW 3F : ... .. . ... : ... .. . ... : ... .. . ... : ... .. . ... : ... .. . ... F7C : ... .. . ... : ... .. . ... ... : ... .. . ...

PATTERN 47
ROW 00 : D-2 14 . ... : A-1 14 . ... : D-3 0D . ... : 3-# 0A . ... : C-3 09 . ... F96 : D-1 0E . ... : A-3 0E . ... ... : F-4 0E . ...
ROW 01 : ... .. . ... : ... .. . ... : ... .. . ... : ... .. . ... : ... .. . ... F7C : ... .. . ... : ... .. . ... ... : ... .. . ...
ROW 02 : ... .. . ... : ... .. . ... : ... .. . ... : ... .. . ... : ... .. . ... F96 : ... .. . ... : ... .. . ... ... : ... .. . ...
ROW 03 : ... .. . ... : ... .. . ... : ... .. . ... : ... .. . ... : ... .. . ... F7C : ... .. . ... : ... .. . ... ... : ... .. . ...
ROW 04 : D-2 14 . ... : A-1 14 . ... : D-3 0D . ... : ... .. . ... : ... .. . ... F96 : D-1 0E . ... : F-4 0E . ... ... : A-4 0E . ...
ROW 05 : ... .. . ... : ... .. . ... : ... .. . ... : ... .. . ... : ... .. . ... F7C : ... .. . ... : ... .. . ... ... : ... .. . ...
ROW 06 : ... .. . ... : ... .. . ... : ... .. . ... : 3-# 0A . ... : C-3 09 . ... F96 : ... .. . ... : ... .. . ... ... : ... .. . ...
ROW 07 : ... .. . ... : ... .. . ... : ... .. . ... : ... .. . ... : ... .. . ... F7C : ... .. . ... : ... .. . ... ... : ... .. . ...
ROW 08 : D-3 14 . ... : A-2 14 . ... : D-3 0D . ... : 8-# 0A . ... : C#3 09 . ... F96 : D-1 0E . ... : A-4 0E . ... ... : D-4 0E . ...
ROW 09 : ... .. . ... : ... .. . ... : ... .. . ... : ... .. . ... : ... .. . ... F7C : ... .. . ... : ... .. . ... ... : ... .. . ...
ROW 0A : ... .. . ... : ... .. . ... : ... .. . ... : ... .. . ... : ... .. . ... F96 : ... .. . ... : ... .. . ... ... : ... .. . ...
ROW 0B : ... .. . ... : ... .. . ... : ... .. . ... : ... .. . ... : ... .. . ... F7C : ... .. . ... : ... .. . ... ... : ... .. . ...
ROW 0C : D-2 14 . ... : A-1 14 . ... : D-3 0D . ... : ... .. . ... : ... .. . ... F96 : D-1 0E . ... : D-4 0E . ... ... : F-4 0E . ...
ROW 0D : ... .. . ... : ... .. . ... : ... .. . ... : ... .. . ... : ... .. . ... F7C : ... .. . ... : ... .. . ... ... : ... .. . ...
ROW 0E : ... .. . ... : ... .. . ... : ... .. . ... : ... .. . ... : ... .. . ... F96 : ... .. . ... : ... .. . ... ... : ... .. . ...
ROW 0F : ... .. . ... : ... .. . ... : ... .. . ... : ... .. . ... : ... .. . ... F7C : ... .. . ... : ... .. . ... ... : ... .. . ...
ROW 10 : D-2 14 . ... : A-1 14 . ... : D-3 0D . ... : 3-# 0A . ... : C-3 09 . ... F96 : D-1 0E . ... : F-4 0E . ... ... : A-3 0E . ...
ROW 11 : ... .. . ... : ... .. . ... : ... .. . ... : ... .. . ... : ... .. . ... F7C : ... .. . ... : ... .. . ... ... : ... .. . ...
ROW 12 : ... .. . ... : ... .. . ... : ... .. . ... : ... .. . ... : ... .. . ... F96 : ... .. . ... : ... .. . ... ... : ... .. . ...
ROW 13 : ... .. . ... : ... .. . ... : ... .. . ... : ... .. . ... : ... .. . ... F7C : ... .. . ... : ... .. . ... ... : ... .. . ...
ROW 14 : D-3 14 . ... : A-2 14 . ... : D-3 0D . ... : 3-# 0A . ... : C-3 09 . ... F96 : D-1 0E . ... : A-3 0E . ... ... : D-4 0E . ...
ROW 15 : ... .. . ... : ... .. . ... : ... .. . ... : ... .. . ... : ... .. . ... F7C : ... .. . ... : ... .. . ... ... : ... .. . ...
ROW 16 : ... .. . ... : ... .. . ... : ... .. . ... : 3-# 0A . ... : C-3 09 . ... F96 : ... .. . ... : ... .. . ... ... : ... .. . ...
ROW 17 : ... .. . ... : ... .. . ... : ... .. . ... : ... .. . ... : ... .. . ... F7C : ... .. . ... : ... .. . ... ... : ... .. . ...
ROW 18 : D-2 14 . ... : A-1 14 . ... : D-3 0D . ... : 8-# 0A . ... : C#3 09 . ... F96 : D-1 0E . ... : D-4 0E . ... ... : F-3 0E . ...
ROW 19 : ... .. . ... : ... .. . ... : ... .. . ... : ... .. . ... : ... .. . ... F7C : ... .. . ... : ... .. . ... ... : ... .. . ...
ROW 1A : ... .. . ... : ... .. . ... : ... .. . ... : ... .. . ... : ... .. . ... F96 : ... .. . ... : ... .. . ... ... : ... .. . ...
ROW 1B : ... .. . ... : ... .. . ... : ... .. . ... : ... .. . ... : ... .. . ... F7C : ... .. . ... : ... .. . ... ... : ... .. . ...
ROW 1C : D-2 14 . ... : A-1 14 . ... : D-3 0D . ... : ... .. . ... : ... .. . ... F96 : D-1 0E . ... : F-3 0E . ... ... : A-3 0E . ...
ROW 1D : ... .. . ... : ... .. . ... : ... .. . ... : ... .. . ... : ... .. . ... F7C : ... .. . ... : ... .. . ... ... : ... .. . ...
ROW 1E : ... .. . ... : ... .. . ... : ... .. . ... : ... .. . ... : ... .. . ... F96 : ... .. . ... : ... .. . ... ... : ... .. . ...
ROW 1F : ... .. . ... : ... .. . ... : ... .. . ... : ... .. . ... : ... .. . ... F7C : ... .. . ... : ... .. . ... ... : ... .. . ...
ROW 20 : D-3 14 . ... : A-2 14 . ... : D-3 0D . ... : 3-# 0A . ... : C-3 09 . ... F96 : D-1 0E . ... : A-3 0E . ... ... : F-4 0E . ...
ROW 21 : ... .. . ... : ... .. . ... : ... .. . ... : ... .. . ... : ... .. . ... F7C : ... .. . ... : ... .. . ... ... : ... .. . ...
ROW 22 : ... .. . ... : ... .. . ... : ... .. . ... : ... .. . ... : ... .. . ... F96 : ... .. . ... : ... .. . ... ... : ... .. . ...
ROW 23 : ... .. . ... : ... .. . ... : ... .. . ... : ... .. . ... : ... .. . ... F7C : ... .. . ... : ... .. . ... ... : ... .. . ...
ROW 24 : D-2 14 . ... : A-1 14 . ... : D-3 0D . ... : ... .. . ... : ... .. . ... F96 : D-1 0E . ... : F-4 0E . ... ... : A-4 0E . ...
ROW 25 : ... .. . ... : ... .. . ... : ... .. . ... : ... .. . ... : ... .. . ... F7C : ... .. . ... : ... .. . ... ... : ... .. . ...
ROW 26 : ... .. . ... : ... .. . ... : ... .. . ... : 3-# 0A . ... : C-3 09 . ... F96 : ... .. . ... : ... .. . ... ... : ... .. . ...
ROW 27 : ... .. . ... : ... .. . ... : ... .. . ... : ... .. . ... : ... .. . ... F7C : ... .. . ... : ... .. . ... ... : ... .. . ...
ROW 28 : D-2 14 . ... : A-1 14 . ... : D-3 0D . ... : 8-# 0A . ... : C#3 09 . ... F96 : D-1 0E . ... : A-4 0E . ... ... : D-4 0E . ...
ROW 29 : ... .. . ... : ... .. . ... : ... .. . ... : ... .. . ... : ... .. . ... F7C : ... .. . ... : ... .. . ... ... : ... .. . ...
ROW 2A : ... .. . ... : ... .. . ... : ... .. . ... : ... .. . ... : ... .. . ... F96 : ... .. . ... : ... .. . ... ... : ... .. . ...
ROW 2B : ... .. . ... : ... .. . ... : ... .. . ... : ... .. . ... : ... .. . ... F7C : ... .. . ... : ... .. . ... ... : ... .. . ...
ROW 2C : D-3 14 . ... : A-2 14 . ... : D-3 0D . ... : ... .. . ... : ... .. . ... F96 : D-1 0E . ... : D-4 0E . ... ... : F-4 0E . ...
ROW 2D : ... .. . ... : ... .. . ... : ... .. . ... : ... .. . ... : ... .. . ... F7C : ... .. . ... : ... .. . ... ... : ... .. . ...
ROW 2E : ... .. . ... : ... .. . ... : ... .. . ... : ... .. . ... : ... .. . ... F96 : ... .. . ... : ... .. . ... ... : ... .. . ...
ROW 2F : ... .. . ... : ... .. . ... : ... .. . ... : ... .. . ... : ... .. . ... F7C : ... .. . ... : ... .. . ... ... : ... .. . ...
ROW 30 : D-2 14 . ... : A-1 14 . ... : D-3 0D . ... : 3-# 0A . ... : C-3 09 . ... F96 : D-1 0E . ... : F-4 0E . ... ... : A-3 0E . ...
ROW 31 : ... .. . ... : ... .. . ... : ... .. . ... : ... .. . ... : ... .. . ... F7C : ... .. . ... : ... .. . ... ... : ... .. . ...
ROW 32 : ... .. . ... : ... .. . ... : ... .. . ... : ... .. . ... : ... .. . ... F96 : ... .. . ... : ... .. . ... ... : ... .. . ...
ROW 33 : ... .. . ... : ... .. . ... : ... .. . ... : ... .. . ... : ... .. . ... F7C : ... .. . ... : ... .. . ... ... : ... .. . ...
ROW 34 : C-3 14 . ... : F-2 14 . ... : D-3 0D . ... : 3-# 0A . ... : C-3 09 . ... F96 : D-1 0E . ... : A-3 0E . ... ... : D-4 0E . ...
ROW 35 : ... .. . ... : ... .. . ... : ... .. . ... : ... .. . ... : ... .. . ... F7C : ... .. . ... : ... .. . ... ... : ... .. . ...
ROW 36 : ... .. . ... : ... .. . ... : ... .. . ... : 3-# 0A . ... : C-3 09 . ... F96 : ... .. . ... : ... .. . ... ... : ... .. . ...
ROW 37 : ... .. . ... : ... .. . ... : ... .. . ... : ... .. . ... : ... .. . ... F7C : ... .. . ... : ... .. . ... ... : ... .. . ...
ROW 38 : A#2 14 . ... : E-2 14 . ... : E-3 0D . ... : 8-# 0A . ... : C#3 09 . ... F96 : E-1 0E . ... : D-4 0E . ... ... : F-3 0E . ...
ROW 39 : ... .. . ... : ... .. . ... : ... .. . ... : ... .. . ... : ... .. . ... F7C : ... .. . ... : ... .. . ... ... : ... .. . ...
ROW 3A : ... .. . ... : ... .. . ... : ... .. . ... : ... .. . ... : ... .. . ... F96 : ... .. . ... : ... .. . ... ... : ... .. . ...
ROW 3B : ... .. . ... : ... .. . ... : ... .. . ... : ... .. . ... : ... .. . ... F7C : ... .. . ... : ... .. . ... ... : ... .. . ...
ROW 3C : A-2 14 . ... : D-2 14 . ... : F-3 0D . ... : ... .. . ... : ... .. . ... F96 : F-1 0E . ... : F-3 0E . ... ... : A-3 0E . ...
ROW 3D : ... .. . ... : ... .. . ... : ... .. . ... : ... .. . ... : ... .. . ... F7C : ... .. . ... : ... .. . ... ... : ... .. . ...
ROW 3E : ... .. . ... : ... .. . ... : ... .. . ... : ... .. . ... : ... .. . ... F96 : ... .. . ... : ... .. . ... ... : ... .. . ...
ROW 3F : ... .. . ... : ... .. . ... : ... .. . ... : ... .. . ... : ... .. . ... F7C : ... .. . ... : ... .. . ... ... : ... .. . ...

PATTERN 48
ROW 00 : C-2 14 . ... : G-1 14 . ... : C-3 0D . ... : 3-# 0A . ... : C-3 09 . ... F96 : C-1 0E . ... : A-3 0E . ... ... : F-4 0E . ...
ROW 01 : ... .. . ... : ... .. . ... : ... .. . ... : ... .. . ... : ... .. . ... F7C : ... .. . ... : ... .. . ... ... : ... .. . ...
ROW 02 : ... .. . ... : ... .. . ... : ... .. . ... : ... .. . ... : ... .. . ... F96 : ... .. . ... : ... .. . ... ... : ... .. . ...
ROW 03 : ... .. . ... : ... .. . ... : ... .. . ... : ... .. . ... : ... .. . ... F7C : ... .. . ... : ... .. . ... ... : ... .. . ...
ROW 04 : C-2 14 . ... : G-1 14 . ... : C-3 0D . ... : ... .. . ... : ... .. . ... F96 : C-1 0E . ... : F-4 0E . ... ... : A-4 0E . ...
ROW 05 : ... .. . ... : ... .. . ... : ... .. . ... : ... .. . ... : ... .. . ... F7C : ... .. . ... : ... .. . ... ... : ... .. . ...
ROW 06 : ... .. . ... : ... .. . ... : ... .. . ... : 3-# 0A . ... : C-3 09 . ... F96 : ... .. . ... : ... .. . ... ... : ... .. . ...
ROW 07 : ... .. . ... : ... .. . ... : ... .. . ... : ... .. . ... : ... .. . ... F7C : ... .. . ... : ... .. . ... ... : ... .. . ...
ROW 08 : C-3 14 . ... : G-2 14 . ... : C-3 0D . ... : 8-# 0A . ... : C#3 09 . ... F96 : C-1 0E . ... : A-4 0E . ... ... : D-4 0E . ...
ROW 09 : ... .. . ... : ... .. . ... : ... .. . ... : ... .. . ... : ... .. . ... F7C : ... .. . ... : ... .. . ... ... : ... .. . ...
ROW 0A : ... .. . ... : ... .. . ... : ... .. . ... : ... .. . ... : ... .. . ... F96 : ... .. . ... : ... .. . ... ... : ... .. . ...
ROW 0B : ... .. . ... : ... .. . ... : ... .. . ... : ... .. . ... : ... .. . ... F7C : ... .. . ... : ... .. . ... ... : ... .. . ...
ROW 0C : C-2 14 . ... : G-1 14 . ... : C-3 0D . ... : ... .. . ... : ... .. . ... F96 : C-1 0E . ... : D-4 0E . ... ... : F-4 0E . ...
ROW 0D : ... .. . ... : ... .. . ... : ... .. . ... : ... .. . ... : ... .. . ... F7C : ... .. . ... : ... .. . ... ... : ... .. . ...
ROW 0E : ... .. . ... : ... .. . ... : ... .. . ... : ... .. . ... : ... .. . ... F96 : ... .. . ... : ... .. . ... ... : ... .. . ...
ROW 0F : ... .. . ... : ... .. . ... : ... .. . ... : ... .. . ... : ... .. . ... F7C : ... .. . ... : ... .. . ... ... : ... .. . ...
ROW 10 : C-2 14 . ... : G-1 14 . ... : C-3 0D . ... : 3-# 0A . ... : C-3 09 . ... F96 : C-1 0E . ... : F-4 0E . ... ... : A-3 0E . ...
ROW 11 : ... .. . ... : ... .. . ... : ... .. . ... : ... .. . ... : ... .. . ... F7C : ... .. . ... : ... .. . ... ... : ... .. . ...
ROW 12 : ... .. . ... : ... .. . ... : ... .. . ... : ... .. . ... : ... .. . ... F96 : ... .. . ... : ... .. . ... ... : ... .. . ...
ROW 13 : ... .. . ... : ... .. . ... : ... .. . ... : ... .. . ... : ... .. . ... F7C : ... .. . ... : ... .. . ... ... : ... .. . ...
ROW 14 : C-3 14 . ... : G-2 14 . ... : C-3 0D . ... : 3-# 0A . ... : C-3 09 . ... F96 : C-1 0E . ... : A-3 0E . ... ... : D-4 0E . ...
ROW 15 : ... .. . ... : ... .. . ... : ... .. . ... : ... .. . ... : ... .. . ... F7C : ... .. . ... : ... .. . ... ... : ... .. . ...
ROW 16 : ... .. . ... : ... .. . ... : ... .. . ... : 3-# 0A . ... : C-3 09 . ... F96 : ... .. . ... : ... .. . ... ... : ... .. . ...
ROW 17 : ... .. . ... : ... .. . ... : ... .. . ... : ... .. . ... : ... .. . ... F7C : ... .. . ... : ... .. . ... ... : ... .. . ...
ROW 18 : C-2 14 . ... : G-1 14 . ... : C-3 0D . ... : 8-# 0A . ... : C#3 09 . ... F96 : C-1 0E . ... : D-4 0E . ... ... : F-3 0E . ...
ROW 19 : ... .. . ... : ... .. . ... : ... .. . ... : ... .. . ... : ... .. . ... F7C : ... .. . ... : ... .. . ... ... : ... .. . ...
ROW 1A : ... .. . ... : ... .. . ... : ... .. . ... : ... .. . ... : ... .. . ... F96 : ... .. . ... : ... .. . ... ... : ... .. . ...
ROW 1B : ... .. . ... : ... .. . ... : ... .. . ... : ... .. . ... : ... .. . ... F7C : ... .. . ... : ... .. . ... ... : ... .. . ...
ROW 1C : C-2 14 . ... : G-1 14 . ... : C-3 0D . ... : ... .. . ... : ... .. . ... F96 : C-1 0E . ... : F-3 0E . ... ... : A-3 0E . ...
ROW 1D : ... .. . ... : ... .. . ... : ... .. . ... : ... .. . ... : ... .. . ... F7C : ... .. . ... : ... .. . ... ... : ... .. . ...
ROW 1E : ... .. . ... : ... .. . ... : ... .. . ... : ... .. . ... : ... .. . ... F96 : ... .. . ... : ... .. . ... ... : ... .. . ...
ROW 1F : ... .. . ... : ... .. . ... : ... .. . ... : ... .. . ... : ... .. . ... F7C : ... .. . ... : ... .. . ... ... : ... .. . ...
ROW 20 : C-3 14 . ... : G-2 14 . ... : C-3 0D . ... : 3-# 0A . ... : C-3 09 . ... F96 : C-1 0E . ... : A-3 0E . ... ... : F-4 0E . ...
ROW 21 : ... .. . ... : ... .. . ... : ... .. . ... : ... .. . ... : ... .. . ... F7C : ... .. . ... : ... .. . ... ... : ... .. . ...
ROW 22 : ... .. . ... : ... .. . ... : ... .. . ... : ... .. . ... : ... .. . ... F96 : ... .. . ... : ... .. . ... ... : ... .. . ...
ROW 23 : ... .. . ... : ... .. . ... : ... .. . ... : ... .. . ... : ... .. . ... F7C : ... .. . ... : ... .. . ... ... : ... .. . ...
ROW 24 : C-2 14 . ... : G-1 14 . ... : C-3 0D . ... : ... .. . ... : ... .. . ... F96 : C-1 0E . ... : F-4 0E . ... ... : A-4 0E . ...
ROW 25 : ... .. . ... : ... .. . ... : ... .. . ... : ... .. . ... : ... .. . ... F7C : ... .. . ... : ... .. . ... ... : ... .. . ...
ROW 26 : ... .. . ... : ... .. . ... : ... .. . ... : 3-# 0A . ... : C-3 09 . ... F96 : ... .. . ... : ... .. . ... ... : ... .. . ...
ROW 27 : ... .. . ... : ... .. . ... : ... .. . ... : ... .. . ... : ... .. . ... F7C : ... .. . ... : ... .. . ... ... : ... .. . ...
ROW 28 : C-2 14 . ... : G-1 14 . ... : C-3 0D . ... : 8-# 0A . ... : C#3 09 . ... F96 : C-1 0E . ... : A-4 0E . ... ... : D-4 0E . ...
ROW 29 : ... .. . ... : ... .. . ... : ... .. . ... : ... .. . ... : ... .. . ... F7C : ... .. . ... : ... .. . ... ... : ... .. . ...
ROW 2A : ... .. . ... : ... .. . ... : ... .. . ... : ... .. . ... : ... .. . ... F96 : ... .. . ... : ... .. . ... ... : ... .. . ...
ROW 2B : ... .. . ... : ... .. . ... : ... .. . ... : ... .. . ... : ... .. . ... F7C : ... .. . ... : ... .. . ... ... : ... .. . ...
ROW 2C : C-3 14 . ... : G-2 14 . ... : C-3 0D . ... : ... .. . ... : ... .. . ... F96 : C-1 0E . ... : D-4 0E . ... ... : F-4 0E . ...
ROW 2D : ... .. . ... : ... .. . ... : ... .. . ... : ... .. . ... : ... .. . ... F7C : ... .. . ... : ... .. . ... ... : ... .. . ...
ROW 2E : ... .. . ... : ... .. . ... : ... .. . ... : ... .. . ... : ... .. . ... F96 : ... .. . ... : ... .. . ... ... : ... .. . ...
ROW 2F : ... .. . ... : ... .. . ... : ... .. . ... : ... .. . ... : ... .. . ... F7C : ... .. . ... : ... .. . ... ... : ... .. . ...
ROW 30 : C-2 14 . ... : G-1 14 . ... : C-3 0D . ... : 3-# 0A . ... : C-3 09 . ... F96 : C-1 0E . ... : F-4 0E . ... ... : A-3 0E . ...
ROW 31 : ... .. . ... : ... .. . ... : ... .. . ... : ... .. . ... : ... .. . ... F7C : ... .. . ... : ... .. . ... ... : ... .. . ...
ROW 32 : ... .. . ... : ... .. . ... : ... .. . ... : ... .. . ... : ... .. . ... F96 : ... .. . ... : ... .. . ... ... : ... .. . ...
ROW 33 : ... .. . ... : ... .. . ... : ... .. . ... : ... .. . ... : ... .. . ... F7C : ... .. . ... : ... .. . ... ... : ... .. . ...
ROW 34 : A#2 14 . ... : E-2 14 . ... : C-3 0D . ... : 3-# 0A . ... : C-3 09 . ... F96 : C-1 0E . ... : A-3 0E . ... ... : D-4 0E . ...
ROW 35 : ... .. . ... : ... .. . ... : ... .. . ... : ... .. . ... : ... .. . ... F7C : ... .. . ... : ... .. . ... ... : ... .. . ...
ROW 36 : ... .. . ... : ... .. . ... : ... .. . ... : 3-# 0A . ... : C-3 09 . ... F96 : ... .. . ... : ... .. . ... ... : ... .. . ...
ROW 37 : ... .. . ... : ... .. . ... : ... .. . ... : ... .. . ... : ... .. . ... F7C : ... .. . ... : ... .. . ... ... : ... .. . ...
ROW 38 : A-2 14 . ... : D-2 14 . ... : D-3 0D . ... : 8-# 0A . ... : C#3 09 . ... F96 : D-1 0E . ... : D-4 0E . ... ... : F-3 0E . ...
ROW 39 : ... .. . ... : ... .. . ... : ... .. . ... : ... .. . ... : ... .. . ... F7C : ... .. . ... : ... .. . ... ... : ... .. . ...
ROW 3A : ... .. . ... : ... .. . ... : ... .. . ... : ... .. . ... : ... .. . ... F96 : ... .. . ... : ... .. . ... ... : ... .. . ...
ROW 3B : ... .. . ... : ... .. . ... : ... .. . ... : ... .. . ... : ... .. . ... F7C : ... .. . ... : ... .. . ... ... : ... .. . ...
ROW 3C : G-2 14 . ... : C-2 14 . ... : E-3 0D . ... : ... .. . ... : ... .. . ... F96 : E-1 0E . ... : F-3 0E . ... ... : A-3 0E . ...
ROW 3D : ... .. . ... : ... .. . ... : ... .. . ... : ... .. . ... : ... .. . ... F7C : ... .. . ... : ... .. . ... ... : ... .. . ...
ROW 3E : ... .. . ... : ... .. . ... : ... .. . ... : ... .. . ... : ... .. . ... F96 : ... .. . ... : ... .. . ... ... : ... .. . ...
ROW 3F : ... .. . ... : ... .. . ... : ... .. . ... : ... .. . ... : ... .. . ... F7C : ... .. . ... : ... .. . ... ... : ... .. . ...

PATTERN 49
ROW 00 : A#1 14 . ... : F-1 14 . ... : A#2 0D . ... : 3-# 0A . ... : C-3 09 . ... F96 : A#0 0E . ... : A-3 0E . ... ... : F-4 0E . ...
ROW 01 : ... .. . ... : ... .. . ... : ... .. . ... : ... .. . ... : ... .. . ... F7C : ... .. . ... : ... .. . ... ... : ... .. . ...
ROW 02 : ... .. . ... : ... .. . ... : ... .. . ... : ... .. . ... : ... .. . ... F96 : ... .. . ... : ... .. . ... ... : ... .. . ...
ROW 03 : ... .. . ... : ... .. . ... : ... .. . ... : ... .. . ... : ... .. . ... F7C : ... .. . ... : ... .. . ... ... : ... .. . ...
ROW 04 : A#1 14 . ... : F-1 14 . ... : A#2 0D . ... : ... .. . ... : ... .. . ... F96 : A#0 0E . ... : F-4 0E . ... ... : A-4 0E . ...
ROW 05 : ... .. . ... : ... .. . ... : ... .. . ... : ... .. . ... : ... .. . ... F7C : ... .. . ... : ... .. . ... ... : ... .. . ...
ROW 06 : ... .. . ... : ... .. . ... : ... .. . ... : 3-# 0A . ... : C-3 09 . ... F96 : ... .. . ... : ... .. . ... ... : ... .. . ...
ROW 07 : ... .. . ... : ... .. . ... : ... .. . ... : ... .. . ... : ... .. . ... F7C : ... .. . ... : ... .. . ... ... : ... .. . ...
ROW 08 : A#2 14 . ... : F-2 14 . ... : A#2 0D . ... : 8-# 0A . ... : C#3 09 . ... F96 : A#0 0E . ... : A-4 0E . ... ... : D-4 0E . ...
ROW 09 : ... .. . ... : ... .. . ... : ... .. . ... : ... .. . ... : ... .. . ... F7C : ... .. . ... : ... .. . ... ... : ... .. . ...
ROW 0A : ... .. . ... : ... .. . ... : ... .. . ... : ... .. . ... : ... .. . ... F96 : ... .. . ... : ... .. . ... ... : ... .. . ...
ROW 0B : ... .. . ... : ... .. . ... : ... .. . ... : ... .. . ... : ... .. . ... F7C : ... .. . ... : ... .. . ... ... : ... .. . ...
ROW 0C : A#1 14 . ... : F-1 14 . ... : A#2 0D . ... : ... .. . ... : ... .. . ... F96 : A#0 0E . ... : D-4 0E . ... ... : F-4 0E . ...
ROW 0D : ... .. . ... : ... .. . ... : ... .. . ... : ... .. . ... : ... .. . ... F7C : ... .. . ... : ... .. . ... ... : ... .. . ...
ROW 0E : ... .. . ... : ... .. . ... : ... .. . ... : ... .. . ... : ... .. . ... F96 : ... .. . ... : ... .. . ... ... : ... .. . ...
ROW 0F : ... .. . ... : ... .. . ... : ... .. . ... : ... .. . ... : ... .. . ... F7C : ... .. . ... : ... .. . ... ... : ... .. . ...
ROW 10 : A#1 14 . ... : F-1 14 . ... : A#2 0D . ... : 3-# 0A . ... : C-3 09 . ... F96 : A#0 0E . ... : F-4 0E . ... ... : A-3 0E . ...
ROW 11 : ... .. . ... : ... .. . ... : ... .. . ... : ... .. . ... : ... .. . ... F7C : ... .. . ... : ... .. . ... ... : ... .. . ...
ROW 12 : ... .. . ... : ... .. . ... : ... .. . ... : ... .. . ... : ... .. . ... F96 : ... .. . ... : ... .. . ... ... : ... .. . ...
ROW 13 : ... .. . ... : ... .. . ... : ... .. . ... : ... .. . ... : ... .. . ... F7C : ... .. . ... : ... .. . ... ... : ... .. . ...
ROW 14 : A#2 14 . ... : F-2 14 . ... : A#2 0D . ... : 3-# 0A . ... : C-3 09 . ... F96 : A#0 0E . ... : A-3 0E . ... ... : D-4 0E . ...
ROW 15 : ... .. . ... : ... .. . ... : ... .. . ... : ... .. . ... : ... .. . ... F7C : ... .. . ... : ... .. . ... ... : ... .. . ...
ROW 16 : ... .. . ... : ... .. . ... : ... .. . ... : 3-# 0A . ... : C-3 09 . ... F96 : ... .. . ... : ... .. . ... ... : ... .. . ...
ROW 17 : ... .. . ... : ... .. . ... : ... .. . ... : ... .. . ... : ... .. . ... F7C : ... .. . ... : ... .. . ... ... : ... .. . ...
ROW 18 : A#1 14 . ... : F-1 14 . ... : A#2 0D . ... : 8-# 0A . ... : C#3 09 . ... F96 : A#0 0E . ... : D-4 0E . ... ... : F-3 0E . ...
ROW 19 : ... .. . ... : ... .. . ... : ... .. . ... : ... .. . ... : ... .. . ... F7C : ... .. . ... : ... .. . ... ... : ... .. . ...
ROW 1A : ... .. . ... : ... .. . ... : ... .. . ... : ... .. . ... : ... .. . ... F96 : ... .. . ... : ... .. . ... ... : ... .. . ...
ROW 1B : ... .. . ... : ... .. . ... : ... .. . ... : ... .. . ... : ... .. . ... F7C : ... .. . ... : ... .. . ... ... : ... .. . ...
ROW 1C : A#1 14 . ... : F-1 14 . ... : A#2 0D . ... : ... .. . ... : ... .. . ... F96 : A#0 0E . ... : F-3 0E . ... ... : A-3 0E . ...
ROW 1D : ... .. . ... : ... .. . ... : ... .. . ... : ... .. . ... : ... .. . ... F7C : ... .. . ... : ... .. . ... ... : ... .. . ...
ROW 1E : ... .. . ... : ... .. . ... : ... .. . ... : ... .. . ... : ... .. . ... F96 : ... .. . ... : ... .. . ... ... : ... .. . ...
ROW 1F : ... .. . ... : ... .. . ... : ... .. . ... : ... .. . ... : ... .. . ... F7C : ... .. . ... : ... .. . ... ... : ... .. . ...
ROW 20 : A#2 14 . ... : F-2 14 . ... : A#2 0D . ... : 3-# 0A . ... : C-3 09 . ... F96 : A#0 0E . ... : A-3 0E . ... ... : F-4 0E . ...
ROW 21 : ... .. . ... : ... .. . ... : ... .. . ... : ... .. . ... : ... .. . ... F7C : ... .. . ... : ... .. . ... ... : ... .. . ...
ROW 22 : ... .. . ... : ... .. . ... : ... .. . ... : ... .. . ... : ... .. . ... F96 : ... .. . ... : ... .. . ... ... : ... .. . ...
ROW 23 : ... .. . ... : ... .. . ... : ... .. . ... : ... .. . ... : ... .. . ... F7C : ... .. . ... : ... .. . ... ... : ... .. . ...
ROW 24 : A#1 14 . ... : F-1 14 . ... : A#2 0D . ... : ... .. . ... : ... .. . ... F96 : A#0 0E . ... : F-4 0E . ... ... : A-4 0E . ...
ROW 25 : ... .. . ... : ... .. . ... : ... .. . ... : ... .. . ... : ... .. . ... F7C : ... .. . ... : ... .. . ... ... : ... .. . ...
ROW 26 : ... .. . ... : ... .. . ... : ... .. . ... : 3-# 0A . ... : C-3 09 . ... F96 : ... .. . ... : ... .. . ... ... : ... .. . ...
ROW 27 : ... .. . ... : ... .. . ... : ... .. . ... : ... .. . ... : ... .. . ... F7C : ... .. . ... : ... .. . ... ... : ... .. . ...
ROW 28 : A#1 14 . ... : F-1 14 . ... : A#2 0D . ... : 8-# 0A . ... : C#3 09 . ... F96 : A#0 0E . ... : A-4 0E . ... ... : D-4 0E . ...
ROW 29 : ... .. . ... : ... .. . ... : ... .. . ... : ... .. . ... : ... .. . ... F7C : ... .. . ... : ... .. . ... ... : ... .. . ...
ROW 2A : ... .. . ... : ... .. . ... : ... .. . ... : ... .. . ... : ... .. . ... F96 : ... .. . ... : ... .. . ... ... : ... .. . ...
ROW 2B : ... .. . ... : ... .. . ... : ... .. . ... : ... .. . ... : ... .. . ... F7C : ... .. . ... : ... .. . ... ... : ... .. . ...
ROW 2C : A#2 14 . ... : F-2 14 . ... : A#2 0D . ... : ... .. . ... : ... .. . ... F96 : A#0 0E . ... : D-4 0E . ... ... : F-4 0E . ...
ROW 2D : ... .. . ... : ... .. . ... : ... .. . ... : ... .. . ... : ... .. . ... F7C : ... .. . ... : ... .. . ... ... : ... .. . ...
ROW 2E : ... .. . ... : ... .. . ... : ... .. . ... : ... .. . ... : ... .. . ... F96 : ... .. . ... : ... .. . ... ... : ... .. . ...
ROW 2F : ... .. . ... : ... .. . ... : ... .. . ... : ... .. . ... : ... .. . ... F7C : ... .. . ... : ... .. . ... ... : ... .. . ...
ROW 30 : A#1 14 . ... : F-1 14 . ... : A#2 0D . ... : 3-# 0A . ... : C-3 09 . ... F96 : A#0 0E . ... : F-4 0E . ... ... : A-3 0E . ...
ROW 31 : ... .. . ... : ... .. . ... : ... .. . ... : ... .. . ... : ... .. . ... F7C : ... .. . ... : ... .. . ... ... : ... .. . ...
ROW 32 : ... .. . ... : ... .. . ... : ... .. . ... : ... .. . ... : ... .. . ... F96 : ... .. . ... : ... .. . ... ... : ... .. . ...
ROW 33 : ... .. . ... : ... .. . ... : ... .. . ... : ... .. . ... : ... .. . ... F7C : ... .. . ... : ... .. . ... ... : ... .. . ...
ROW 34 : A-2 14 . ... : D-2 14 . ... : D-3 0D . ... : 3-# 0A . ... : C-3 09 . ... F96 : D-1 0E . ... : A-3 0E . ... ... : D-4 0E . ...
ROW 35 : ... .. . ... : ... .. . ... : ... .. . ... : ... .. . ... : ... .. . ... F7C : ... .. . ... : ... .. . ... ... : ... .. . ...
ROW 36 : ... .. . ... : ... .. . ... : ... .. . ... : 3-# 0A . ... : C-3 09 . ... F96 : ... .. . ... : ... .. . ... ... : ... .. . ...
ROW 37 : ... .. . ... : ... .. . ... : ... .. . ... : ... .. . ... : ... .. . ... F7C : ... .. . ... : ... .. . ... ... : ... .. . ...
ROW 38 : G-2 14 . ... : C-2 14 . ... : C-3 0D . ... : 8-# 0A . ... : C#3 09 . ... F96 : C-1 0E . ... : D-4 0E . ... ... : F-3 0E . ...
ROW 39 : ... .. . ... : ... .. . ... : ... .. . ... : ... .. . ... : ... .. . ... F7C : ... .. . ... : ... .. . ... ... : ... .. . ...
ROW 3A : ... .. . ... : ... .. . ... : ... .. . ... : ... .. . ... : ... .. . ... F96 : ... .. . ... : ... .. . ... ... : ... .. . ...
ROW 3B : ... .. . ... : ... .. . ... : ... .. . ... : ... .. . ... : ... .. . ... F7C : ... .. . ... : ... .. . ... ... : ... .. . ...
ROW 3C : F-2 14 . ... : A#1 14 . ... : A#2 0D . ... : ... .. . ... : ... .. . ... F96 : A#0 0E . ... : F-3 0E . ... ... : A-3 0E . ...
ROW 3D : ... .. . ... : ... .. . ... : ... .. . ... : ... .. . ... : ... .. . ... F7C : ... .. . ... : ... .. . ... ... : ... .. . ...
ROW 3E : ... .. . ... : ... .. . ... : ... .. . ... : ... .. . ... : ... .. . ... F96 : ... .. . ... : ... .. . ... ... : ... .. . ...
ROW 3F : ... .. . ... : ... .. . ... : ... .. . ... : ... .. . ... : ... .. . ... F7C : ... .. . ... : ... .. . ... ... : ... .. . ...

PATTERN 4A
ROW 00 : C-2 14 . ... : G-1 14 . ... : C-3 0D . ... : 3-# 0A . ... : C-3 09 . ... F96 : C-1 0E . ... : A-3 0E . ... ... : F-4 0E . ...
ROW 01 : ... .. . ... : ... .. . ... : ... .. . ... : ... .. . ... : ... .. . ... F7C : ... .. . ... : ... .. . ... ... : ... .. . ...
ROW 02 : ... .. . ... : ... .. . ... : ... .. . ... : ... .. . ... : ... .. . ... F96 : ... .. . ... : ... .. . ... ... : ... .. . ...
ROW 03 : ... .. . ... : ... .. . ... : ... .. . ... : ... .. . ... : ... .. . ... F7C : ... .. . ... : ... .. . ... ... : ... .. . ...
ROW 04 : C-2 14 . ... : G-1 14 . ... : C-3 0D . ... : ... .. . ... : ... .. . ... F96 : C-1 0E . ... : F-4 0E . ... ... : A-4 0E . ...
ROW 05 : ... .. . ... : ... .. . ... : ... .. . ... : ... .. . ... : ... .. . ... F7C : ... .. . ... : ... .. . ... ... : ... .. . ...
ROW 06 : ... .. . ... : ... .. . ... : ... .. . ... : 3-# 0A . ... : C-3 09 . ... F96 : ... .. . ... : ... .. . ... ... : ... .. . ...
ROW 07 : ... .. . ... : ... .. . ... : ... .. . ... : ... .. . ... : ... .. . ... F7C : ... .. . ... : ... .. . ... ... : ... .. . ...
ROW 08 : C-3 14 . ... : G-2 14 . ... : C-3 0D . ... : 8-# 0A . ... : C#3 09 . ... F96 : C-1 0E . ... : A-4 0E . ... ... : D-4 0E . ...
ROW 09 : ... .. . ... : ... .. . ... : ... .. . ... : ... .. . ... : ... .. . ... F7C : ... .. . ... : ... .. . ... ... : ... .. . ...
ROW 0A : ... .. . ... : ... .. . ... : ... .. . ... : ... .. . ... : ... .. . ... F96 : ... .. . ... : ... .. . ... ... : ... .. . ...
ROW 0B : ... .. . ... : ... .. . ... : ... .. . ... : ... .. . ... : ... .. . ... F7C : ... .. . ... : ... .. . ... ... : ... .. . ...
ROW 0C : C-2 14 . ... : G-1 14 . ... : C-3 0D . ... : ... .. . ... : ... .. . ... F96 : C-1 0E . ... : D-4 0E . ... ... : F-4 0E . ...
ROW 0D : ... .. . ... : ... .. . ... : ... .. . ... : ... .. . ... : ... .. . ... F7C : ... .. . ... : ... .. . ... ... : ... .. . ...
ROW 0E : ... .. . ... : ... .. . ... : ... .. . ... : ... .. . ... : ... .. . ... F96 : ... .. . ... : ... .. . ... ... : ... .. . ...
ROW 0F : ... .. . ... : ... .. . ... : ... .. . ... : ... .. . ... : ... .. . ... F7C : ... .. . ... : ... .. . ... ... : ... .. . ...
ROW 10 : C-2 14 . ... : G-1 14 . ... : C-3 0D . ... : 3-# 0A . ... : C-3 09 . ... F96 : C-1 0E . ... : F-4 0E . ... ... : A-3 0E . ...
ROW 11 : ... .. . ... : ... .. . ... : ... .. . ... : ... .. . ... : ... .. . ... F7C : ... .. . ... : ... .. . ... ... : ... .. . ...
ROW 12 : ... .. . ... : ... .. . ... : ... .. . ... : ... .. . ... : ... .. . ... F96 : ... .. . ... : ... .. . ... ... : ... .. . ...
ROW 13 : ... .. . ... : ... .. . ... : ... .. . ... : ... .. . ... : ... .. . ... F7C : ... .. . ... : ... .. . ... ... : ... .. . ...
ROW 14 : C-3 14 . ... : G-2 14 . ... : C-3 0D . ... : 3-# 0A . ... : C-3 09 . ... F96 : C-1 0E . ... : A-3 0E . ... ... : D-4 0E . ...
ROW 15 : ... .. . ... : ... .. . ... : ... .. . ... : ... .. . ... : ... .. . ... F7C : ... .. . ... : ... .. . ... ... : ... .. . ...
ROW 16 : ... .. . ... : ... .. . ... : ... .. . ... : 3-# 0A . ... : C-3 09 . ... F96 : ... .. . ... : ... .. . ... ... : ... .. . ...
ROW 17 : ... .. . ... : ... .. . ... : ... .. . ... : ... .. . ... : ... .. . ... F7C : ... .. . ... : ... .. . ... ... : ... .. . ...
ROW 18 : C-2 14 . ... : G-1 14 . ... : C-3 0D . ... : 8-# 0A . ... : C#3 09 . ... F96 : C-1 0E . ... : D-4 0E . ... ... : F-3 0E . ...
ROW 19 : ... .. . ... : ... .. . ... : ... .. . ... : ... .. . ... : ... .. . ... F7C : ... .. . ... : ... .. . ... ... : ... .. . ...
ROW 1A : ... .. . ... : ... .. . ... : ... .. . ... : ... .. . ... : ... .. . ... F96 : ... .. . ... : ... .. . ... ... : ... .. . ...
ROW 1B : ... .. . ... : ... .. . ... : ... .. . ... : ... .. . ... : ... .. . ... F7C : ... .. . ... : ... .. . ... ... : ... .. . ...
ROW 1C : C-2 14 . ... : G-1 14 . ... : C-3 0D . ... : ... .. . ... : ... .. . ... F96 : C-1 0E . ... : F-3 0E . ... ... : A-3 0E . ...
ROW 1D : ... .. . ... : ... .. . ... : ... .. . ... : ... .. . ... : ... .. . ... F7C : ... .. . ... : ... .. . ... ... : ... .. . ...
ROW 1E : ... .. . ... : ... .. . ... : ... .. . ... : ... .. . ... : ... .. . ... F96 : ... .. . ... : ... .. . ... ... : ... .. . ...
ROW 1F : ... .. . ... : ... .. . ... : ... .. . ... : ... .. . ... : ... .. . ... F7C : ... .. . ... : ... .. . ... ... : ... .. . ...
ROW 20 : A-2 14 . ... : E-2 14 . ... : A-2 0D . ... : 3-# 0A . ... : C-3 09 . ... F96 : A-0 0E . ... : A-3 0E . ... ... : F-4 0E . ...
ROW 21 : ... .. . ... : ... .. . ... : ... .. . ... : ... .. . ... : ... .. . ... F7C : ... .. . ... : ... .. . ... ... : ... .. . ...
ROW 22 : ... .. . ... : ... .. . ... : ... .. . ... : ... .. . ... : ... .. . ... F96 : ... .. . ... : ... .. . ... ... : ... .. . ...
ROW 23 : ... .. . ... : ... .. . ... : ... .. . ... : ... .. . ... : ... .. . ... F7C : ... .. . ... : ... .. . ... ... : ... .. . ...
ROW 24 : A-1 14 . ... : E-1 14 . ... : A-2 0D . ... : ... .. . ... : ... .. . ... F96 : A-0 0E . ... : F-4 0E . ... ... : A-4 0E . ...
ROW 25 : ... .. . ... : ... .. . ... : ... .. . ... : ... .. . ... : ... .. . ... F7C : ... .. . ... : ... .. . ... ... : ... .. . ...
ROW 26 : ... .. . ... : ... .. . ... : ... .. . ... : 3-# 0A . ... : C-3 09 . ... F96 : ... .. . ... : ... .. . ... ... : ... .. . ...
ROW 27 : ... .. . ... : ... .. . ... : ... .. . ... : ... .. . ... : ... .. . ... F7C : ... .. . ... : ... .. . ... ... : ... .. . ...
ROW 28 : A-1 14 . ... : E-1 14 . ... : A-2 0D . ... : 8-# 0A . ... : C#3 09 . ... F96 : A-0 0E . ... : A-4 0E . ... ... : D-4 0E . ...
ROW 29 : ... .. . ... : ... .. . ... : ... .. . ... : ... .. . ... : ... .. . ... F7C : ... .. . ... : ... .. . ... ... : ... .. . ...
ROW 2A : ... .. . ... : ... .. . ... : ... .. . ... : ... .. . ... : ... .. . ... F96 : ... .. . ... : ... .. . ... ... : ... .. . ...
ROW 2B : ... .. . ... : ... .. . ... : ... .. . ... : ... .. . ... : ... .. . ... F7C : ... .. . ... : ... .. . ... ... : ... .. . ...
ROW 2C : A-2 14 . ... : E-2 14 . ... : A-2 0D . ... : ... .. . ... : ... .. . ... F96 : A-0 0E . ... : D-4 0E . ... ... : F-4 0E . ...
ROW 2D : ... .. . ... : ... .. . ... : ... .. . ... : ... .. . ... : ... .. . ... F7C : ... .. . ... : ... .. . ... ... : ... .. . ...
ROW 2E : ... .. . ... : ... .. . ... : ... .. . ... : ... .. . ... : ... .. . ... F96 : ... .. . ... : ... .. . ... ... : ... .. . ...
ROW 2F : ... .. . ... : ... .. . ... : ... .. . ... : ... .. . ... : ... .. . ... F7C : ... .. . ... : ... .. . ... ... : ... .. . ...
ROW 30 : A-1 14 . ... : E-1 14 . ... : A-2 0D . ... : 8-# 0A . ... : C#3 09 . ... F96 : A-0 0E . ... : F-4 0E . ... ... : A-3 0E . ...
ROW 31 : ... .. . ... : ... .. . ... : ... .. . ... : ... .. . ... : ... .. . ... F7C : ... .. . ... : ... .. . ... ... : ... .. . ...
ROW 32 : ... .. . ... : ... .. . ... : ... .. . ... : ... .. . ... : ... .. . ... F96 : ... .. . ... : ... .. . ... ... : ... .. . ...
ROW 33 : ... .. . ... : ... .. . ... : ... .. . ... : ... .. . ... : ... .. . ... F7C : ... .. . ... : ... .. . ... ... : ... .. . ...
ROW 34 : A-1 14 . ... : E-1 14 . ... : A-2 0D . ... : 8-# 0A . ... : C#3 09 . ... F96 : A-0 0E . ... : A-3 0E . ... ... : D-4 0E . ...
ROW 35 : ... .. . ... : ... .. . ... : ... .. . ... : ... .. . ... : ... .. . ... F7C : ... .. . ... : ... .. . ... ... : ... .. . ...
ROW 36 : ... .. . ... : ... .. . ... : ... .. . ... : ... .. . ... : ... .. . ... F96 : ... .. . ... : ... .. . ... ... : ... .. . ...
ROW 37 : ... .. . ... : ... .. . ... : ... .. . ... : ... .. . ... : ... .. . ... F7C : ... .. . ... : ... .. . ... ... : ... .. . ...
ROW 38 : A-2 14 . ... : E-2 14 . ... : A-2 0D . ... : 8-# 0A . ... : C#3 09 . ... F96 : A-0 0E . ... : D-4 0E . ... ... : F-3 0E . ...
ROW 39 : ... .. . ... : ... .. . ... : ... .. . ... : ... .. . ... : ... .. . ... F7C : ... .. . ... : ... .. . ... ... : ... .. . ...
ROW 3A : ... .. . ... : ... .. . ... : ... .. . ... : ... .. . ... : ... .. . ... F96 : ... .. . ... : ... .. . ... ... : ... .. . ...
ROW 3B : ... .. . ... : ... .. . ... : ... .. . ... : ... .. . ... : ... .. . ... F7C : ... .. . ... : ... .. . ... ... : ... .. . ...
ROW 3C : A-1 14 . ... : E-1 14 . ... : A-2 0D . ... : 8-# 0A . ... : C#3 09 . ... F96 : A-0 0E . ... : F-3 0E . ... ... : A-3 0E . ...
ROW 3D : ... .. . ... : ... .. . ... : ... .. . ... : ... .. . ... : ... .. . ... F7C : ... .. . ... : ... .. . ... ... : ... .. . ...
ROW 3E : ... .. . ... : ... .. . ... : ... .. . ... : ... .. . ... : ... .. . ... F96 : ... .. . ... : ... .. . ... ... : ... .. . ...
ROW 3F : ... .. . ... : ... .. . ... : ... .. . ... : ... .. . ... : ... .. . ... F7C : ... .. . ... : ... .. . ... ... : ... .. . ...

PATTERN 4B
ROW 00 : D-2 14 . ... : A-1 14 . ... : D-3 0D . ... : 3-# 0A . ... : C-3 09 . ... F96 : D-1 0E . ... : A-3 0E . ... ... : A-4 0E . ...
ROW 01 : ... .. . ... : ... .. . ... : ... .. . ... : ... .. . ... : ... .. . ... F7C : ... .. . ... : ... .. . ... ... : ... .. . ...
ROW 02 : ... .. . ... : ... .. . ... : ... .. . ... : ... .. . ... : ... .. . ... F96 : ... .. . ... : ... .. . ... ... : ... .. . ...
ROW 03 : ... .. . ... : ... .. . ... : ... .. . ... : ... .. . ... : ... .. . ... F7C : ... .. . ... : ... .. . ... ... : ... .. . ...
ROW 04 : D-2 14 . ... : A-1 14 . ... : D-3 0D . ... : ... .. . ... : ... .. . ... F96 : D-1 0E . ... : A-4 0E . ... ... : C-5 0E . ...
ROW 05 : ... .. . ... : ... .. . ... : ... .. . ... : ... .. . ... : ... .. . ... F7C : ... .. . ... : ... .. . ... ... : ... .. . ...
ROW 06 : ... .. . ... : ... .. . ... : ... .. . ... : 3-# 0A . ... : C-3 09 . ... F96 : ... .. . ... : ... .. . ... ... : ... .. . ...
ROW 07 : ... .. . ... : ... .. . ... : ... .. . ... : ... .. . ... : ... .. . ... F7C : ... .. . ... : ... .. . ... ... : ... .. . ...
ROW 08 : D-3 14 . ... : A-2 14 . ... : D-3 0D . ... : 8-# 0A . ... : C#3 09 . ... F96 : D-1 0E . ... : C-5 0E . ... ... : A#4 0E . ...
ROW 09 : ... .. . ... : ... .. . ... : ... .. . ... : ... .. . ... : ... .. . ... F7C : ... .. . ... : ... .. . ... ... : ... .. . ...
ROW 0A : ... .. . ... : ... .. . ... : ... .. . ... : ... .. . ... : ... .. . ... F96 : ... .. . ... : ... .. . ... ... : ... .. . ...
ROW 0B : ... .. . ... : ... .. . ... : ... .. . ... : ... .. . ... : ... .. . ... F7C : ... .. . ... : ... .. . ... ... : ... .. . ...
ROW 0C : D-2 14 . ... : A-1 14 . ... : D-3 0D . ... : ... .. . ... : ... .. . ... F96 : D-1 0E . ... : A#4 0E . ... ... : C-5 0E . ...
ROW 0D : ... .. . ... : ... .. . ... : ... .. . ... : ... .. . ... : ... .. . ... F7C : ... .. . ... : ... .. . ... ... : ... .. . ...
ROW 0E : ... .. . ... : ... .. . ... : ... .. . ... : ... .. . ... : ... .. . ... F96 : ... .. . ... : ... .. . ... ... : ... .. . ...
ROW 0F : ... .. . ... : ... .. . ... : ... .. . ... : ... .. . ... : ... .. . ... F7C : ... .. . ... : ... .. . ... ... : ... .. . ...
ROW 10 : D-2 14 . ... : A-1 14 . ... : D-3 0D . ... : 3-# 0A . ... : C-3 09 . ... F96 : D-1 0E . ... : C-5 0E . ... ... : A-4 0E . ...
ROW 11 : ... .. . ... : ... .. . ... : ... .. . ... : ... .. . ... : ... .. . ... F7C : ... .. . ... : ... .. . ... ... : ... .. . ...
ROW 12 : ... .. . ... : ... .. . ... : ... .. . ... : ... .. . ... : ... .. . ... F96 : ... .. . ... : ... .. . ... ... : ... .. . ...
ROW 13 : ... .. . ... : ... .. . ... : ... .. . ... : ... .. . ... : ... .. . ... F7C : ... .. . ... : ... .. . ... ... : ... .. . ...
ROW 14 : D-3 14 . ... : A-2 14 . ... : D-3 0D . ... : 3-# 0A . ... : C-3 09 . ... F96 : D-1 0E . ... : A-4 0E . ... ... : C-5 0E . ...
ROW 15 : ... .. . ... : ... .. . ... : ... .. . ... : ... .. . ... : ... .. . ... F7C : ... .. . ... : ... .. . ... ... : ... .. . ...
ROW 16 : ... .. . ... : ... .. . ... : ... .. . ... : 3-# 0A . ... : C-3 09 . ... F96 : ... .. . ... : ... .. . ... ... : ... .. . ...
ROW 17 : ... .. . ... : ... .. . ... : ... .. . ... : ... .. . ... : ... .. . ... F7C : ... .. . ... : ... .. . ... ... : ... .. . ...
ROW 18 : D-2 14 . ... : A-1 14 . ... : D-3 0D . ... : 8-# 0A . ... : C#3 09 . ... F96 : D-1 0E . ... : C-5 0E . ... ... : A#4 0E . ...
ROW 19 : ... .. . ... : ... .. . ... : ... .. . ... : ... .. . ... : ... .. . ... F7C : ... .. . ... : ... .. . ... ... : ... .. . ...
ROW 1A : ... .. . ... : ... .. . ... : ... .. . ... : ... .. . ... : ... .. . ... F96 : ... .. . ... : ... .. . ... ... : ... .. . ...
ROW 1B : ... .. . ... : ... .. . ... : ... .. . ... : ... .. . ... : ... .. . ... F7C : ... .. . ... : ... .. . ... ... : ... .. . ...
ROW 1C : D-2 14 . ... : A-1 14 . ... : D-3 0D . ... : ... .. . ... : ... .. . ... F96 : D-1 0E . ... : A#4 0E . ... ... : C-5 0E . ...
ROW 1D : ... .. . ... : ... .. . ... : ... .. . ... : ... .. . ... : ... .. . ... F7C : ... .. . ... : ... .. . ... ... : ... .. . ...
ROW 1E : ... .. . ... : ... .. . ... : ... .. . ... : ... .. . ... : ... .. . ... F96 : ... .. . ... : ... .. . ... ... : ... .. . ...
ROW 1F : ... .. . ... : ... .. . ... : ... .. . ... : ... .. . ... : ... .. . ... F7C : ... .. . ... : ... .. . ... ... : ... .. . ...
ROW 20 : D-3 14 . ... : A-2 14 . ... : D-3 0D . ... : 3-# 0A . ... : C-3 09 . ... F96 : D-1 0E . ... : C-5 0E . ... ... : F-4 0E . ...
ROW 21 : ... .. . ... : ... .. . ... : ... .. . ... : ... .. . ... : ... .. . ... F7C : ... .. . ... : ... .. . ... ... : ... .. . ...
ROW 22 : ... .. . ... : ... .. . ... : ... .. . ... : ... .. . ... : ... .. . ... F96 : ... .. . ... : ... .. . ... ... : ... .. . ...
ROW 23 : ... .. . ... : ... .. . ... : ... .. . ... : ... .. . ... : ... .. . ... F7C : ... .. . ... : ... .. . ... ... : ... .. . ...
ROW 24 : D-2 14 . ... : A-1 14 . ... : D-3 0D . ... : ... .. . ... : ... .. . ... F96 : D-1 0E . ... : F-4 0E . ... ... : A-4 0E . ...
ROW 25 : ... .. . ... : ... .. . ... : ... .. . ... : ... .. . ... : ... .. . ... F7C : ... .. . ... : ... .. . ... ... : ... .. . ...
ROW 26 : ... .. . ... : ... .. . ... : ... .. . ... : 3-# 0A . ... : C-3 09 . ... F96 : ... .. . ... : ... .. . ... ... : ... .. . ...
ROW 27 : ... .. . ... : ... .. . ... : ... .. . ... : ... .. . ... : ... .. . ... F7C : ... .. . ... : ... .. . ... ... : ... .. . ...
ROW 28 : D-2 14 . ... : A-1 14 . ... : D-3 0D . ... : 8-# 0A . ... : C#3 09 . ... F96 : D-1 0E . ... : A-4 0E . ... ... : G-4 0E . ...
ROW 29 : ... .. . ... : ... .. . ... : ... .. . ... : ... .. . ... : ... .. . ... F7C : ... .. . ... : ... .. . ... ... : ... .. . ...
ROW 2A : ... .. . ... : ... .. . ... : ... .. . ... : ... .. . ... : ... .. . ... F96 : ... .. . ... : ... .. . ... ... : ... .. . ...
ROW 2B : ... .. . ... : ... .. . ... : ... .. . ... : ... .. . ... : ... .. . ... F7C : ... .. . ... : ... .. . ... ... : ... .. . ...
ROW 2C : D-3 14 . ... : A-2 14 . ... : D-3 0D . ... : ... .. . ... : ... .. . ... F96 : D-1 0E . ... : G-4 0E . ... ... : A-4 0E . ...
ROW 2D : ... .. . ... : ... .. . ... : ... .. . ... : ... .. . ... : ... .. . ... F7C : ... .. . ... : ... .. . ... ... : ... .. . ...
ROW 2E : ... .. . ... : ... .. . ... : ... .. . ... : ... .. . ... : ... .. . ... F96 : ... .. . ... : ... .. . ... ... : ... .. . ...
ROW 2F : ... .. . ... : ... .. . ... : ... .. . ... : ... .. . ... : ... .. . ... F7C : ... .. . ... : ... .. . ... ... : ... .. . ...
ROW 30 : D-2 14 . ... : A-1 14 . ... : D-3 0D . ... : 3-# 0A . ... : C-3 09 . ... F96 : D-1 0E . ... : A-4 0E . ... ... : F-4 0E . ...
ROW 31 : ... .. . ... : ... .. . ... : ... .. . ... : ... .. . ... : ... .. . ... F7C : ... .. . ... : ... .. . ... ... : ... .. . ...
ROW 32 : ... .. . ... : ... .. . ... : ... .. . ... : ... .. . ... : ... .. . ... F96 : ... .. . ... : ... .. . ... ... : ... .. . ...
ROW 33 : ... .. . ... : ... .. . ... : ... .. . ... : ... .. . ... : ... .. . ... F7C : ... .. . ... : ... .. . ... ... : ... .. . ...
ROW 34 : C-3 14 . ... : F-2 14 . ... : D-3 0D . ... : 3-# 0A . ... : C-3 09 . ... F96 : D-1 0E . ... : F-4 0E . ... ... : A-4 0E . ...
ROW 35 : ... .. . ... : ... .. . ... : ... .. . ... : ... .. . ... : ... .. . ... F7C : ... .. . ... : ... .. . ... ... : ... .. . ...
ROW 36 : ... .. . ... : ... .. . ... : ... .. . ... : 3-# 0A . ... : C-3 09 . ... F96 : ... .. . ... : ... .. . ... ... : ... .. . ...
ROW 37 : ... .. . ... : ... .. . ... : ... .. . ... : ... .. . ... : ... .. . ... F7C : ... .. . ... : ... .. . ... ... : ... .. . ...
ROW 38 : A#2 14 . ... : E-2 14 . ... : E-3 0D . ... : 8-# 0A . ... : C#3 09 . ... F96 : E-1 0E . ... : A-4 0E . ... ... : G-4 0E . ...
ROW 39 : ... .. . ... : ... .. . ... : ... .. . ... : ... .. . ... : ... .. . ... F7C : ... .. . ... : ... .. . ... ... : ... .. . ...
ROW 3A : ... .. . ... : ... .. . ... : ... .. . ... : ... .. . ... : ... .. . ... F96 : ... .. . ... : ... .. . ... ... : ... .. . ...
ROW 3B : ... .. . ... : ... .. . ... : ... .. . ... : ... .. . ... : ... .. . ... F7C : ... .. . ... : ... .. . ... ... : ... .. . ...
ROW 3C : A-2 14 . ... : D-2 14 . ... : F-3 0D . ... : ... .. . ... : ... .. . ... F96 : F-1 0E . ... : G-4 0E . ... ... : A-4 0E . ...
ROW 3D : ... .. . ... : ... .. . ... : ... .. . ... : ... .. . ... : ... .. . ... F7C : ... .. . ... : ... .. . ... ... : ... .. . ...
ROW 3E : ... .. . ... : ... .. . ... : ... .. . ... : ... .. . ... : ... .. . ... F96 : ... .. . ... : ... .. . ... ... : ... .. . ...
ROW 3F : ... .. . ... : ... .. . ... : ... .. . ... : ... .. . ... : ... .. . ... F7C : ... .. . ... : ... .. . ... ... : ... .. . ...

PATTERN 4C
ROW 00 : C-2 14 . ... : G-1 14 . ... : C-3 0D . ... : 3-# 0A . ... : C-3 09 . ... F96 : C-1 0E . ... : A-4 0E . ... ... : G-4 0E . ...
ROW 01 : ... .. . ... : ... .. . ... : ... .. . ... : ... .. . ... : ... .. . ... F7C : ... .. . ... : ... .. . ... ... : ... .. . ...
ROW 02 : ... .. . ... : ... .. . ... : ... .. . ... : ... .. . ... : ... .. . ... F96 : ... .. . ... : ... .. . ... ... : ... .. . ...
ROW 03 : ... .. . ... : ... .. . ... : ... .. . ... : ... .. . ... : ... .. . ... F7C : ... .. . ... : ... .. . ... ... : ... .. . ...
ROW 04 : C-2 14 . ... : G-1 14 . ... : C-3 0D . ... : ... .. . ... : ... .. . ... F96 : C-1 0E . ... : G-4 0E . ... ... : A#4 0E . ...
ROW 05 : ... .. . ... : ... .. . ... : ... .. . ... : ... .. . ... : ... .. . ... F7C : ... .. . ... : ... .. . ... ... : ... .. . ...
ROW 06 : ... .. . ... : ... .. . ... : ... .. . ... : 3-# 0A . ... : C-3 09 . ... F96 : ... .. . ... : ... .. . ... ... : ... .. . ...
ROW 07 : ... .. . ... : ... .. . ... : ... .. . ... : ... .. . ... : ... .. . ... F7C : ... .. . ... : ... .. . ... ... : ... .. . ...
ROW 08 : C-3 14 . ... : G-2 14 . ... : C-3 0D . ... : 8-# 0A . ... : C#3 09 . ... F96 : C-1 0E . ... : A#4 0E . ... ... : A-4 0E . ...
ROW 09 : ... .. . ... : ... .. . ... : ... .. . ... : ... .. . ... : ... .. . ... F7C : ... .. . ... : ... .. . ... ... : ... .. . ...
ROW 0A : ... .. . ... : ... .. . ... : ... .. . ... : ... .. . ... : ... .. . ... F96 : ... .. . ... : ... .. . ... ... : ... .. . ...
ROW 0B : ... .. . ... : ... .. . ... : ... .. . ... : ... .. . ... : ... .. . ... F7C : ... .. . ... : ... .. . ... ... : ... .. . ...
ROW 0C : C-2 14 . ... : G-1 14 . ... : C-3 0D . ... : ... .. . ... : ... .. . ... F96 : C-1 0E . ... : A-4 0E . ... ... : A#4 0E . ...
ROW 0D : ... .. . ... : ... .. . ... : ... .. . ... : ... .. . ... : ... .. . ... F7C : ... .. . ... : ... .. . ... ... : ... .. . ...
ROW 0E : ... .. . ... : ... .. . ... : ... .. . ... : ... .. . ... : ... .. . ... F96 : ... .. . ... : ... .. . ... ... : ... .. . ...
ROW 0F : ... .. . ... : ... .. . ... : ... .. . ... : ... .. . ... : ... .. . ... F7C : ... .. . ... : ... .. . ... ... : ... .. . ...
ROW 10 : C-2 14 . ... : G-1 14 . ... : C-3 0D . ... : 3-# 0A . ... : C-3 09 . ... F96 : C-1 0E . ... : A#4 0E . ... ... : G-4 0E . ...
ROW 11 : ... .. . ... : ... .. . ... : ... .. . ... : ... .. . ... : ... .. . ... F7C : ... .. . ... : ... .. . ... ... : ... .. . ...
ROW 12 : ... .. . ... : ... .. . ... : ... .. . ... : ... .. . ... : ... .. . ... F96 : ... .. . ... : ... .. . ... ... : ... .. . ...
ROW 13 : ... .. . ... : ... .. . ... : ... .. . ... : ... .. . ... : ... .. . ... F7C : ... .. . ... : ... .. . ... ... : ... .. . ...
ROW 14 : C-3 14 . ... : G-2 14 . ... : C-3 0D . ... : 3-# 0A . ... : C-3 09 . ... F96 : C-1 0E . ... : G-4 0E . ... ... : A#4 0E . ...
ROW 15 : ... .. . ... : ... .. . ... : ... .. . ... : ... .. . ... : ... .. . ... F7C : ... .. . ... : ... .. . ... ... : ... .. . ...
ROW 16 : ... .. . ... : ... .. . ... : ... .. . ... : 3-# 0A . ... : C-3 09 . ... F96 : ... .. . ... : ... .. . ... ... : ... .. . ...
ROW 17 : ... .. . ... : ... .. . ... : ... .. . ... : ... .. . ... : ... .. . ... F7C : ... .. . ... : ... .. . ... ... : ... .. . ...
ROW 18 : C-2 14 . ... : G-1 14 . ... : C-3 0D . ... : 8-# 0A . ... : C#3 09 . ... F96 : C-1 0E . ... : A#4 0E . ... ... : A-4 0E . ...
ROW 19 : ... .. . ... : ... .. . ... : ... .. . ... : ... .. . ... : ... .. . ... F7C : ... .. . ... : ... .. . ... ... : ... .. . ...
ROW 1A : ... .. . ... : ... .. . ... : ... .. . ... : ... .. . ... : ... .. . ... F96 : ... .. . ... : ... .. . ... ... : ... .. . ...
ROW 1B : ... .. . ... : ... .. . ... : ... .. . ... : ... .. . ... : ... .. . ... F7C : ... .. . ... : ... .. . ... ... : ... .. . ...
ROW 1C : C-2 14 . ... : G-1 14 . ... : C-3 0D . ... : ... .. . ... : ... .. . ... F96 : C-1 0E . ... : A-4 0E . ... ... : A#4 0E . ...
ROW 1D : ... .. . ... : ... .. . ... : ... .. . ... : ... .. . ... : ... .. . ... F7C : ... .. . ... : ... .. . ... ... : ... .. . ...
ROW 1E : ... .. . ... : ... .. . ... : ... .. . ... : ... .. . ... : ... .. . ... F96 : ... .. . ... : ... .. . ... ... : ... .. . ...
ROW 1F : ... .. . ... : ... .. . ... : ... .. . ... : ... .. . ... : ... .. . ... F7C : ... .. . ... : ... .. . ... ... : ... .. . ...
ROW 20 : C-3 14 . ... : G-2 14 . ... : C-3 0D . ... : 3-# 0A . ... : C-3 09 . ... F96 : C-1 0E . ... : A#4 0E . ... ... : E-4 0E . ...
ROW 21 : ... .. . ... : ... .. . ... : ... .. . ... : ... .. . ... : ... .. . ... F7C : ... .. . ... : ... .. . ... ... : ... .. . ...
ROW 22 : ... .. . ... : ... .. . ... : ... .. . ... : ... .. . ... : ... .. . ... F96 : ... .. . ... : ... .. . ... ... : ... .. . ...
ROW 23 : ... .. . ... : ... .. . ... : ... .. . ... : ... .. . ... : ... .. . ... F7C : ... .. . ... : ... .. . ... ... : ... .. . ...
ROW 24 : C-2 14 . ... : G-1 14 . ... : C-3 0D . ... : ... .. . ... : ... .. . ... F96 : C-1 0E . ... : E-4 0E . ... ... : G-4 0E . ...
ROW 25 : ... .. . ... : ... .. . ... : ... .. . ... : ... .. . ... : ... .. . ... F7C : ... .. . ... : ... .. . ... ... : ... .. . ...
ROW 26 : ... .. . ... : ... .. . ... : ... .. . ... : 3-# 0A . ... : C-3 09 . ... F96 : ... .. . ... : ... .. . ... ... : ... .. . ...
ROW 27 : ... .. . ... : ... .. . ... : ... .. . ... : ... .. . ... : ... .. . ... F7C : ... .. . ... : ... .. . ... ... : ... .. . ...
ROW 28 : C-2 14 . ... : G-1 14 . ... : C-3 0D . ... : 8-# 0A . ... : C#3 09 . ... F96 : C-1 0E . ... : G-4 0E . ... ... : F-4 0E . ...
ROW 29 : ... .. . ... : ... .. . ... : ... .. . ... : ... .. . ... : ... .. . ... F7C : ... .. . ... : ... .. . ... ... : ... .. . ...
ROW 2A : ... .. . ... : ... .. . ... : ... .. . ... : ... .. . ... : ... .. . ... F96 : ... .. . ... : ... .. . ... ... : ... .. . ...
ROW 2B : ... .. . ... : ... .. . ... : ... .. . ... : ... .. . ... : ... .. . ... F7C : ... .. . ... : ... .. . ... ... : ... .. . ...
ROW 2C : C-3 14 . ... : G-2 14 . ... : C-3 0D . ... : ... .. . ... : ... .. . ... F96 : C-1 0E . ... : F-4 0E . ... ... : G-4 0E . ...
ROW 2D : ... .. . ... : ... .. . ... : ... .. . ... : ... .. . ... : ... .. . ... F7C : ... .. . ... : ... .. . ... ... : ... .. . ...
ROW 2E : ... .. . ... : ... .. . ... : ... .. . ... : ... .. . ... : ... .. . ... F96 : ... .. . ... : ... .. . ... ... : ... .. . ...
ROW 2F : ... .. . ... : ... .. . ... : ... .. . ... : ... .. . ... : ... .. . ... F7C : ... .. . ... : ... .. . ... ... : ... .. . ...
ROW 30 : C-2 14 . ... : G-1 14 . ... : C-3 0D . ... : 3-# 0A . ... : C-3 09 . ... F96 : C-1 0E . ... : G-4 0E . ... ... : E-4 0E . ...
ROW 31 : ... .. . ... : ... .. . ... : ... .. . ... : ... .. . ... : ... .. . ... F7C : ... .. . ... : ... .. . ... ... : ... .. . ...
ROW 32 : ... .. . ... : ... .. . ... : ... .. . ... : ... .. . ... : ... .. . ... F96 : ... .. . ... : ... .. . ... ... : ... .. . ...
ROW 33 : ... .. . ... : ... .. . ... : ... .. . ... : ... .. . ... : ... .. . ... F7C : ... .. . ... : ... .. . ... ... : ... .. . ...
ROW 34 : A#2 14 . ... : E-2 14 . ... : C-3 0D . ... : 3-# 0A . ... : C-3 09 . ... F96 : C-1 0E . ... : E-4 0E . ... ... : G-4 0E . ...
ROW 35 : ... .. . ... : ... .. . ... : ... .. . ... : ... .. . ... : ... .. . ... F7C : ... .. . ... : ... .. . ... ... : ... .. . ...
ROW 36 : ... .. . ... : ... .. . ... : ... .. . ... : 3-# 0A . ... : C-3 09 . ... F96 : ... .. . ... : ... .. . ... ... : ... .. . ...
ROW 37 : ... .. . ... : ... .. . ... : ... .. . ... : ... .. . ... : ... .. . ... F7C : ... .. . ... : ... .. . ... ... : ... .. . ...
ROW 38 : A-2 14 . ... : D-2 14 . ... : D-3 0D . ... : 8-# 0A . ... : C#3 09 . ... F96 : D-1 0E . ... : G-4 0E . ... ... : F-4 0E . ...
ROW 39 : ... .. . ... : ... .. . ... : ... .. . ... : ... .. . ... : ... .. . ... F7C : ... .. . ... : ... .. . ... ... : ... .. . ...
ROW 3A : ... .. . ... : ... .. . ... : ... .. . ... : ... .. . ... : ... .. . ... F96 : ... .. . ... : ... .. . ... ... : ... .. . ...
ROW 3B : ... .. . ... : ... .. . ... : ... .. . ... : ... .. . ... : ... .. . ... F7C : ... .. . ... : ... .. . ... ... : ... .. . ...
ROW 3C : G-2 14 . ... : C-2 14 . ... : E-3 0D . ... : ... .. . ... : ... .. . ... F96 : E-1 0E . ... : F-4 0E . ... ... : G-4 0E . ...
ROW 3D : ... .. . ... : ... .. . ... : ... .. . ... : ... .. . ... : ... .. . ... F7C : ... .. . ... : ... .. . ... ... : ... .. . ...
ROW 3E : ... .. . ... : ... .. . ... : ... .. . ... : ... .. . ... : ... .. . ... F96 : ... .. . ... : ... .. . ... ... : ... .. . ...
ROW 3F : ... .. . ... : ... .. . ... : ... .. . ... : ... .. . ... : ... .. . ... F7C : ... .. . ... : ... .. . ... ... : ... .. . ...

PATTERN 4D
ROW 00 : A#1 14 . ... : F-1 14 . ... : A#2 0D . ... : 3-# 0A . ... : C-3 09 . ... F96 : A#0 0E . ... : G-4 0E . ... ... : F-4 0E . ...
ROW 01 : ... .. . ... : ... .. . ... : ... .. . ... : ... .. . ... : ... .. . ... F7C : ... .. . ... : ... .. . ... ... : ... .. . ...
ROW 02 : ... .. . ... : ... .. . ... : ... .. . ... : ... .. . ... : ... .. . ... F96 : ... .. . ... : ... .. . ... ... : ... .. . ...
ROW 03 : ... .. . ... : ... .. . ... : ... .. . ... : ... .. . ... : ... .. . ... F7C : ... .. . ... : ... .. . ... ... : ... .. . ...
ROW 04 : A#1 14 . ... : F-1 14 . ... : A#2 0D . ... : ... .. . ... : ... .. . ... F96 : A#0 0E . ... : F-4 0E . ... ... : A-4 0E . ...
ROW 05 : ... .. . ... : ... .. . ... : ... .. . ... : ... .. . ... : ... .. . ... F7C : ... .. . ... : ... .. . ... ... : ... .. . ...
ROW 06 : ... .. . ... : ... .. . ... : ... .. . ... : 3-# 0A . ... : C-3 09 . ... F96 : ... .. . ... : ... .. . ... ... : ... .. . ...
ROW 07 : ... .. . ... : ... .. . ... : ... .. . ... : ... .. . ... : ... .. . ... F7C : ... .. . ... : ... .. . ... ... : ... .. . ...
ROW 08 : A#2 14 . ... : F-2 14 . ... : A#2 0D . ... : 8-# 0A . ... : C#3 09 . ... F96 : A#0 0E . ... : A-4 0E . ... ... : G-4 0E . ...
ROW 09 : ... .. . ... : ... .. . ... : ... .. . ... : ... .. . ... : ... .. . ... F7C : ... .. . ... : ... .. . ... ... : ... .. . ...
ROW 0A : ... .. . ... : ... .. . ... : ... .. . ... : ... .. . ... : ... .. . ... F96 : ... .. . ... : ... .. . ... ... : ... .. . ...
ROW 0B : ... .. . ... : ... .. . ... : ... .. . ... : ... .. . ... : ... .. . ... F7C : ... .. . ... : ... .. . ... ... : ... .. . ...
ROW 0C : A#1 14 . ... : F-1 14 . ... : A#2 0D . ... : ... .. . ... : ... .. . ... F96 : A#0 0E . ... : G-4 0E . ... ... : A-4 0E . ...
ROW 0D : ... .. . ... : ... .. . ... : ... .. . ... : ... .. . ... : ... .. . ... F7C : ... .. . ... : ... .. . ... ... : ... .. . ...
ROW 0E : ... .. . ... : ... .. . ... : ... .. . ... : ... .. . ... : ... .. . ... F96 : ... .. . ... : ... .. . ... ... : ... .. . ...
ROW 0F : ... .. . ... : ... .. . ... : ... .. . ... : ... .. . ... : ... .. . ... F7C : ... .. . ... : ... .. . ... ... : ... .. . ...
ROW 10 : A#1 14 . ... : F-1 14 . ... : A#2 0D . ... : 3-# 0A . ... : C-3 09 . ... F96 : A#0 0E . ... : A-4 0E . ... ... : F-4 0E . ...
ROW 11 : ... .. . ... : ... .. . ... : ... .. . ... : ... .. . ... : ... .. . ... F7C : ... .. . ... : ... .. . ... ... : ... .. . ...
ROW 12 : ... .. . ... : ... .. . ... : ... .. . ... : ... .. . ... : ... .. . ... F96 : ... .. . ... : ... .. . ... ... : ... .. . ...
ROW 13 : ... .. . ... : ... .. . ... : ... .. . ... : ... .. . ... : ... .. . ... F7C : ... .. . ... : ... .. . ... ... : ... .. . ...
ROW 14 : A#2 14 . ... : F-2 14 . ... : A#2 0D . ... : 3-# 0A . ... : C-3 09 . ... F96 : A#0 0E . ... : F-4 0E . ... ... : A-4 0E . ...
ROW 15 : ... .. . ... : ... .. . ... : ... .. . ... : ... .. . ... : ... .. . ... F7C : ... .. . ... : ... .. . ... ... : ... .. . ...
ROW 16 : ... .. . ... : ... .. . ... : ... .. . ... : 3-# 0A . ... : C-3 09 . ... F96 : ... .. . ... : ... .. . ... ... : ... .. . ...
ROW 17 : ... .. . ... : ... .. . ... : ... .. . ... : ... .. . ... : ... .. . ... F7C : ... .. . ... : ... .. . ... ... : ... .. . ...
ROW 18 : A#1 14 . ... : F-1 14 . ... : A#2 0D . ... : 8-# 0A . ... : C#3 09 . ... F96 : A#0 0E . ... : A-4 0E . ... ... : G-4 0E . ...
ROW 19 : ... .. . ... : ... .. . ... : ... .. . ... : ... .. . ... : ... .. . ... F7C : ... .. . ... : ... .. . ... ... : ... .. . ...
ROW 1A : ... .. . ... : ... .. . ... : ... .. . ... : ... .. . ... : ... .. . ... F96 : ... .. . ... : ... .. . ... ... : ... .. . ...
ROW 1B : ... .. . ... : ... .. . ... : ... .. . ... : ... .. . ... : ... .. . ... F7C : ... .. . ... : ... .. . ... ... : ... .. . ...
ROW 1C : A#1 14 . ... : F-1 14 . ... : A#2 0D . ... : ... .. . ... : ... .. . ... F96 : A#0 0E . ... : G-4 0E . ... ... : A-4 0E . ...
ROW 1D : ... .. . ... : ... .. . ... : ... .. . ... : ... .. . ... : ... .. . ... F7C : ... .. . ... : ... .. . ... ... : ... .. . ...
ROW 1E : ... .. . ... : ... .. . ... : ... .. . ... : ... .. . ... : ... .. . ... F96 : ... .. . ... : ... .. . ... ... : ... .. . ...
ROW 1F : ... .. . ... : ... .. . ... : ... .. . ... : ... .. . ... : ... .. . ... F7C : ... .. . ... : ... .. . ... ... : ... .. . ...
ROW 20 : A#2 14 . ... : F-2 14 . ... : A#2 0D . ... : 3-# 0A . ... : C-3 09 . ... F96 : A#0 0E . ... : A-4 0E . ... ... : D-4 0E . ...
ROW 21 : ... .. . ... : ... .. . ... : ... .. . ... : ... .. . ... : ... .. . ... F7C : ... .. . ... : ... .. . ... ... : ... .. . ...
ROW 22 : ... .. . ... : ... .. . ... : ... .. . ... : ... .. . ... : ... .. . ... F96 : ... .. . ... : ... .. . ... ... : ... .. . ...
ROW 23 : ... .. . ... : ... .. . ... : ... .. . ... : ... .. . ... : ... .. . ... F7C : ... .. . ... : ... .. . ... ... : ... .. . ...
ROW 24 : A#1 14 . ... : F-1 14 . ... : A#2 0D . ... : ... .. . ... : ... .. . ... F96 : A#0 0E . ... : D-4 0E . ... ... : F-4 0E . ...
ROW 25 : ... .. . ... : ... .. . ... : ... .. . ... : ... .. . ... : ... .. . ... F7C : ... .. . ... : ... .. . ... ... : ... .. . ...
ROW 26 : ... .. . ... : ... .. . ... : ... .. . ... : 3-# 0A . ... : C-3 09 . ... F96 : ... .. . ... : ... .. . ... ... : ... .. . ...
ROW 27 : ... .. . ... : ... .. . ... : ... .. . ... : ... .. . ... : ... .. . ... F7C : ... .. . ... : ... .. . ... ... : ... .. . ...
ROW 28 : A#1 14 . ... : F-1 14 . ... : A#2 0D . ... : 8-# 0A . ... : C#3 09 . ... F96 : A#0 0E . ... : F-4 0E . ... ... : E-4 0E . ...
ROW 29 : ... .. . ... : ... .. . ... : ... .. . ... : ... .. . ... : ... .. . ... F7C : ... .. . ... : ... .. . ... ... : ... .. . ...
ROW 2A : ... .. . ... : ... .. . ... : ... .. . ... : ... .. . ... : ... .. . ... F96 : ... .. . ... : ... .. . ... ... : ... .. . ...
ROW 2B : ... .. . ... : ... .. . ... : ... .. . ... : ... .. . ... : ... .. . ... F7C : ... .. . ... : ... .. . ... ... : ... .. . ...
ROW 2C : A#2 14 . ... : F-2 14 . ... : A#2 0D . ... : ... .. . ... : ... .. . ... F96 : A#0 0E . ... : E-4 0E . ... ... : F-4 0E . ...
ROW 2D : ... .. . ... : ... .. . ... : ... .. . ... : ... .. . ... : ... .. . ... F7C : ... .. . ... : ... .. . ... ... : ... .. . ...
ROW 2E : ... .. . ... : ... .. . ... : ... .. . ... : ... .. . ... : ... .. . ... F96 : ... .. . ... : ... .. . ... ... : ... .. . ...
ROW 2F : ... .. . ... : ... .. . ... : ... .. . ... : ... .. . ... : ... .. . ... F7C : ... .. . ... : ... .. . ... ... : ... .. . ...
ROW 30 : A#1 14 . ... : F-1 14 . ... : A#2 0D . ... : 3-# 0A . ... : C-3 09 . ... F96 : A#0 0E . ... : F-4 0E . ... ... : D-4 0E . ...
ROW 31 : ... .. . ... : ... .. . ... : ... .. . ... : ... .. . ... : ... .. . ... F7C : ... .. . ... : ... .. . ... ... : ... .. . ...
ROW 32 : ... .. . ... : ... .. . ... : ... .. . ... : ... .. . ... : ... .. . ... F96 : ... .. . ... : ... .. . ... ... : ... .. . ...
ROW 33 : ... .. . ... : ... .. . ... : ... .. . ... : ... .. . ... : ... .. . ... F7C : ... .. . ... : ... .. . ... ... : ... .. . ...
ROW 34 : A-2 14 . ... : D-2 14 . ... : D-3 0D . ... : 3-# 0A . ... : C-3 09 . ... F96 : D-1 0E . ... : D-4 0E . ... ... : F-4 0E . ...
ROW 35 : ... .. . ... : ... .. . ... : ... .. . ... : ... .. . ... : ... .. . ... F7C : ... .. . ... : ... .. . ... ... : ... .. . ...
ROW 36 : ... .. . ... : ... .. . ... : ... .. . ... : 3-# 0A . ... : C-3 09 . ... F96 : ... .. . ... : ... .. . ... ... : ... .. . ...
ROW 37 : ... .. . ... : ... .. . ... : ... .. . ... : ... .. . ... : ... .. . ... F7C : ... .. . ... : ... .. . ... ... : ... .. . ...
ROW 38 : G-2 14 . ... : C-2 14 . ... : C-3 0D . ... : 8-# 0A . ... : C#3 09 . ... F96 : C-1 0E . ... : F-4 0E . ... ... : E-4 0E . ...
ROW 39 : ... .. . ... : ... .. . ... : ... .. . ... : ... .. . ... : ... .. . ... F7C : ... .. . ... : ... .. . ... ... : ... .. . ...
ROW 3A : ... .. . ... : ... .. . ... : ... .. . ... : ... .. . ... : ... .. . ... F96 : ... .. . ... : ... .. . ... ... : ... .. . ...
ROW 3B : ... .. . ... : ... .. . ... : ... .. . ... : ... .. . ... : ... .. . ... F7C : ... .. . ... : ... .. . ... ... : ... .. . ...
ROW 3C : F-2 14 . ... : A#1 14 . ... : A#2 0D . ... : ... .. . ... : ... .. . ... F96 : A#0 0E . ... : E-4 0E . ... ... : F-4 0E . ...
ROW 3D : ... .. . ... : ... .. . ... : ... .. . ... : ... .. . ... : ... .. . ... F7C : ... .. . ... : ... .. . ... ... : ... .. . ...
ROW 3E : ... .. . ... : ... .. . ... : ... .. . ... : ... .. . ... : ... .. . ... F96 : ... .. . ... : ... .. . ... ... : ... .. . ...
ROW 3F : ... .. . ... : ... .. . ... : ... .. . ... : ... .. . ... : ... .. . ... F7C : ... .. . ... : ... .. . ... ... : ... .. . ...

PATTERN 4E
ROW 00 : C-2 14 . ... : G-1 14 . ... : C-3 0D . ... : 3-# 0A . ... : C-3 09 . ... F96 : C-1 0E . ... : F-4 0E . ... ... : G-4 0E . ...
ROW 01 : ... .. . ... : ... .. . ... : ... .. . ... : ... .. . ... : ... .. . ... F7C : ... .. . ... : ... .. . ... ... : ... .. . ...
ROW 02 : ... .. . ... : ... .. . ... : ... .. . ... : ... .. . ... : ... .. . ... F96 : ... .. . ... : ... .. . ... ... : ... .. . ...
ROW 03 : ... .. . ... : ... .. . ... : ... .. . ... : ... .. . ... : ... .. . ... F7C : ... .. . ... : ... .. . ... ... : ... .. . ...
ROW 04 : C-2 14 . ... : G-1 14 . ... : C-3 0D . ... : ... .. . ... : ... .. . ... F96 : C-1 0E . ... : G-4 0E . ... ... : A-4 0E . ...
ROW 05 : ... .. . ... : ... .. . ... : ... .. . ... : ... .. . ... : ... .. . ... F7C : ... .. . ... : ... .. . ... ... : ... .. . ...
ROW 06 : ... .. . ... : ... .. . ... : ... .. . ... : 3-# 0A . ... : C-3 09 . ... F96 : ... .. . ... : ... .. . ... ... : ... .. . ...
ROW 07 : ... .. . ... : ... .. . ... : ... .. . ... : ... .. . ... : ... .. . ... F7C : ... .. . ... : ... .. . ... ... : ... .. . ...
ROW 08 : C-3 14 . ... : G-2 14 . ... : C-3 0D . ... : 8-# 0A . ... : C#3 09 . ... F96 : C-1 0E . ... : A-4 0E . ... ... : F-4 0E . ...
ROW 09 : ... .. . ... : ... .. . ... : ... .. . ... : ... .. . ... : ... .. . ... F7C : ... .. . ... : ... .. . ... ... : ... .. . ...
ROW 0A : ... .. . ... : ... .. . ... : ... .. . ... : ... .. . ... : ... .. . ... F96 : ... .. . ... : ... .. . ... ... : ... .. . ...
ROW 0B : ... .. . ... : ... .. . ... : ... .. . ... : ... .. . ... : ... .. . ... F7C : ... .. . ... : ... .. . ... ... : ... .. . ...
ROW 0C : C-2 14 . ... : G-1 14 . ... : C-3 0D . ... : ... .. . ... : ... .. . ... F96 : C-1 0E . ... : F-4 0E . ... ... : A-4 0E . ...
ROW 0D : ... .. . ... : ... .. . ... : ... .. . ... : ... .. . ... : ... .. . ... F7C : ... .. . ... : ... .. . ... ... : ... .. . ...
ROW 0E : ... .. . ... : ... .. . ... : ... .. . ... : ... .. . ... : ... .. . ... F96 : ... .. . ... : ... .. . ... ... : ... .. . ...
ROW 0F : ... .. . ... : ... .. . ... : ... .. . ... : ... .. . ... : ... .. . ... F7C : ... .. . ... : ... .. . ... ... : ... .. . ...
ROW 10 : C-2 14 . ... : G-1 14 . ... : C-3 0D . ... : 3-# 0A . ... : C-3 09 . ... F96 : C-1 0E . ... : A-4 0E . ... ... : E-4 0E . ...
ROW 11 : ... .. . ... : ... .. . ... : ... .. . ... : ... .. . ... : ... .. . ... F7C : ... .. . ... : ... .. . ... ... : ... .. . ...
ROW 12 : ... .. . ... : ... .. . ... : ... .. . ... : ... .. . ... : ... .. . ... F96 : ... .. . ... : ... .. . ... ... : ... .. . ...
ROW 13 : ... .. . ... : ... .. . ... : ... .. . ... : ... .. . ... : ... .. . ... F7C : ... .. . ... : ... .. . ... ... : ... .. . ...
ROW 14 : C-3 14 . ... : G-2 14 . ... : C-3 0D . ... : 3-# 0A . ... : C-3 09 . ... F96 : C-1 0E . ... : E-4 0E . ... ... : A-4 0E . ...
ROW 15 : ... .. . ... : ... .. . ... : ... .. . ... : ... .. . ... : ... .. . ... F7C : ... .. . ... : ... .. . ... ... : ... .. . ...
ROW 16 : ... .. . ... : ... .. . ... : ... .. . ... : 3-# 0A . ... : C-3 09 . ... F96 : ... .. . ... : ... .. . ... ... : ... .. . ...
ROW 17 : ... .. . ... : ... .. . ... : ... .. . ... : ... .. . ... : ... .. . ... F7C : ... .. . ... : ... .. . ... ... : ... .. . ...
ROW 18 : C-2 14 . ... : G-1 14 . ... : C-3 0D . ... : 8-# 0A . ... : C#3 09 . ... F96 : C-1 0E . ... : A-4 0E . ... ... : D-4 0E . ...
ROW 19 : ... .. . ... : ... .. . ... : ... .. . ... : ... .. . ... : ... .. . ... F7C : ... .. . ... : ... .. . ... ... : ... .. . ...
ROW 1A : ... .. . ... : ... .. . ... : ... .. . ... : ... .. . ... : ... .. . ... F96 : ... .. . ... : ... .. . ... ... : ... .. . ...
ROW 1B : ... .. . ... : ... .. . ... : ... .. . ... : ... .. . ... : ... .. . ... F7C : ... .. . ... : ... .. . ... ... : ... .. . ...
ROW 1C : C-2 14 . ... : G-1 14 . ... : C-3 0D . ... : ... .. . ... : ... .. . ... F96 : C-1 0E . ... : D-4 0E . ... ... : A-4 0E . ...
ROW 1D : ... .. . ... : ... .. . ... : ... .. . ... : ... .. . ... : ... .. . ... F7C : ... .. . ... : ... .. . ... ... : ... .. . ...
ROW 1E : ... .. . ... : ... .. . ... : ... .. . ... : ... .. . ... : ... .. . ... F96 : ... .. . ... : ... .. . ... ... : ... .. . ...
ROW 1F : ... .. . ... : ... .. . ... : ... .. . ... : ... .. . ... : ... .. . ... F7C : ... .. . ... : ... .. . ... ... : ... .. . ...
ROW 20 : A-2 14 . ... : E-2 14 . ... : A-2 0D . ... : 3-# 0A . ... : C-3 09 . ... F96 : A-0 0E . ... : A-4 0E . ... ... : C#4 0E . ...
ROW 21 : ... .. . ... : ... .. . ... : ... .. . ... : ... .. . ... : ... .. . ... F7C : ... .. . ... : ... .. . ... ... : ... .. . ...
ROW 22 : ... .. . ... : ... .. . ... : ... .. . ... : ... .. . ... : ... .. . ... F96 : ... .. . ... : ... .. . ... ... : ... .. . ...
ROW 23 : ... .. . ... : ... .. . ... : ... .. . ... : ... .. . ... : ... .. . ... F7C : ... .. . ... : ... .. . ... ... : ... .. . ...
ROW 24 : A-1 14 . ... : E-1 14 . ... : A-2 0D . ... : ... .. . ... : ... .. . ... F96 : A-0 0E . ... : C#4 0E . ... ... : A-4 0E . ...
ROW 25 : ... .. . ... : ... .. . ... : ... .. . ... : ... .. . ... : ... .. . ... F7C : ... .. . ... : ... .. . ... ... : ... .. . ...
ROW 26 : ... .. . ... : ... .. . ... : ... .. . ... : 3-# 0A . ... : C-3 09 . ... F96 : ... .. . ... : ... .. . ... ... : ... .. . ...
ROW 27 : ... .. . ... : ... .. . ... : ... .. . ... : ... .. . ... : ... .. . ... F7C : ... .. . ... : ... .. . ... ... : ... .. . ...
ROW 28 : A-1 14 . ... : E-1 14 . ... : A-2 0D . ... : 8-# 0A . ... : C#3 09 . ... F96 : A-0 0E . ... : A-4 0E . ... ... : D-4 0E . ...
ROW 29 : ... .. . ... : ... .. . ... : ... .. . ... : ... .. . ... : ... .. . ... F7C : ... .. . ... : ... .. . ... ... : ... .. . ...
ROW 2A : ... .. . ... : ... .. . ... : ... .. . ... : ... .. . ... : ... .. . ... F96 : ... .. . ... : ... .. . ... ... : ... .. . ...
ROW 2B : ... .. . ... : ... .. . ... : ... .. . ... : ... .. . ... : ... .. . ... F7C : ... .. . ... : ... .. . ... ... : ... .. . ...
ROW 2C : A-2 14 . ... : E-2 14 . ... : A-2 0D . ... : ... .. . ... : ... .. . ... F96 : A-0 0E . ... : D-4 0E . ... ... : A-4 0E . ...
ROW 2D : ... .. . ... : ... .. . ... : ... .. . ... : ... .. . ... : ... .. . ... F7C : ... .. . ... : ... .. . ... ... : ... .. . ...
ROW 2E : ... .. . ... : ... .. . ... : ... .. . ... : ... .. . ... : ... .. . ... F96 : ... .. . ... : ... .. . ... ... : ... .. . ...
ROW 2F : ... .. . ... : ... .. . ... : ... .. . ... : ... .. . ... : ... .. . ... F7C : ... .. . ... : ... .. . ... ... : ... .. . ...
ROW 30 : A-1 14 . ... : E-1 14 . ... : A-2 0D . ... : 8-# 0A . ... : C#3 09 . ... F96 : A-0 0E . ... : A-4 0E . ... ... : E-4 0E . ...
ROW 31 : ... .. . ... : ... .. . ... : ... .. . ... : ... .. . ... : ... .. . ... F7C : ... .. . ... : ... .. . ... ... : ... .. . ...
ROW 32 : ... .. . ... : ... .. . ... : ... .. . ... : ... .. . ... : ... .. . ... F96 : ... .. . ... : ... .. . ... ... : ... .. . ...
ROW 33 : ... .. . ... : ... .. . ... : ... .. . ... : ... .. . ... : ... .. . ... F7C : ... .. . ... : ... .. . ... ... : ... .. . ...
ROW 34 : A-1 14 . ... : E-1 14 . ... : A-2 0D . ... : 8-# 0A . ... : C#3 09 . ... F96 : A-0 0E . ... : E-4 0E . ... ... : A-4 0E . ...
ROW 35 : ... .. . ... : ... .. . ... : ... .. . ... : ... .. . ... : ... .. . ... F7C : ... .. . ... : ... .. . ... ... : ... .. . ...
ROW 36 : ... .. . ... : ... .. . ... : ... .. . ... : ... .. . ... : ... .. . ... F96 : ... .. . ... : ... .. . ... ... : ... .. . ...
ROW 37 : ... .. . ... : ... .. . ... : ... .. . ... : ... .. . ... : ... .. . ... F7C : ... .. . ... : ... .. . ... ... : ... .. . ...
ROW 38 : A-2 14 . ... : E-2 14 . ... : A-2 0D . ... : 8-# 0A . ... : C#3 09 . ... F96 : A-0 0E . ... : A-4 0E . ... ... : F-4 0E . ...
ROW 39 : ... .. . ... : ... .. . ... : ... .. . ... : ... .. . ... : ... .. . ... F7C : ... .. . ... : ... .. . ... ... : ... .. . ...
ROW 3A : ... .. . ... : ... .. . ... : ... .. . ... : ... .. . ... : ... .. . ... F96 : ... .. . ... : ... .. . ... ... : ... .. . ...
ROW 3B : ... .. . ... : ... .. . ... : ... .. . ... : ... .. . ... : ... .. . ... F7C : ... .. . ... : ... .. . ... ... : ... .. . ...
ROW 3C : A-1 14 . ... : E-1 14 . ... : A-2 0D . ... : 8-# 0A . ... : C#3 09 . ... F96 : A-0 0E . ... : F-4 0E . ... ... : A-4 0E . ...
ROW 3D : ... .. . ... : ... .. . ... : ... .. . ... : ... .. . ... : ... .. . ... F7C : ... .. . ... : ... .. . ... ... : ... .. . ...
ROW 3E : ... .. . ... : ... .. . ... : ... .. . ... : ... .. . ... : ... .. . ... F96 : ... .. . ... : ... .. . ... ... : ... .. . ...
ROW 3F : ... .. . ... : ... .. . ... : ... .. . ... : ... .. . ... : ... .. . ... F7C : ... .. . ... : ... .. . ... ... : ... .. . ...

PATTERN 4F
ROW 00 : A#2 14 . ... : F-2 14 . ... : A#2 0D . ... : 3-# 0A . ... : C-3 09 . ... F96 : A#0 0E . ... : A-4 0E . ... ... : F-4 0E . ...
ROW 01 : ... .. . ... : ... .. . ... : ... .. . ... : ... .. . ... : ... .. . ... F7C : ... .. . ... : ... .. . ... ... : ... .. . ...
ROW 02 : ... .. . ... : ... .. . ... : ... .. . ... : ... .. . ... : ... .. . ... F96 : ... .. . ... : ... .. . ... ... : ... .. . ...
ROW 03 : ... .. . ... : ... .. . ... : ... .. . ... : ... .. . ... : ... .. . ... F7C : ... .. . ... : ... .. . ... ... : ... .. . ...
ROW 04 : ... .. . ... : ... .. . ... : A#2 0D . ... : ... .. . ... : ... .. . ... F96 : A#0 0E . ... : F-4 0E . ... ... : ... .. . 454
ROW 05 : ... .. . ... : ... .. . ... : ... .. . ... : ... .. . ... : ... .. . ... F7C : ... .. . ... : ... .. . ... ... : ... .. . ...
ROW 06 : ... .. . ... : ... .. . ... : ... .. . ... : 3-# 0A . ... : C-3 09 . ... F96 : ... .. . ... : ... .. . ... ... : ... .. . ...
ROW 07 : ... .. . ... : ... .. . ... : ... .. . ... : ... .. . ... : ... .. . ... F7C : ... .. . ... : ... .. . ... ... : ... .. . ...
ROW 08 : ... .. . ... : ... .. . ... : A#2 0D . ... : 8-# 0A . ... : C#3 09 . ... F96 : A#0 0E . ... : ... .. . 454 ... : ... .. . ...
ROW 09 : ... .. . ... : ... .. . ... : ... .. . ... : ... .. . ... : ... .. . ... F7C : ... .. . ... : ... .. . ... ... : ... .. . ...
ROW 0A : ... .. . ... : ... .. . ... : ... .. . ... : ... .. . ... : ... .. . ... F96 : ... .. . ... : ... .. . ... ... : ... .. . ...
ROW 0B : ... .. . ... : ... .. . ... : ... .. . ... : ... .. . ... : ... .. . ... F7C : ... .. . ... : ... .. . ... ... : ... .. . ...
ROW 0C : A-2 14 . ... : E-2 14 . ... : A#2 0D . ... : ... .. . ... : ... .. . ... F96 : A#0 0E . ... : ... .. . ... ... : E-4 0E . 400
ROW 0D : ... .. . ... : ... .. . ... : ... .. . ... : ... .. . ... : ... .. . ... F7C : ... .. . ... : ... .. . ... ... : ... .. . ...
ROW 0E : ... .. . ... : ... .. . ... : ... .. . ... : ... .. . ... : ... .. . ... F96 : ... .. . ... : ... .. . ... ... : ... .. . ...
ROW 0F : ... .. . ... : ... .. . ... : ... .. . ... : ... .. . ... : ... .. . ... F7C : ... .. . ... : ... .. . ... ... : ... .. . ...
ROW 10 : ... .. . ... : ... .. . ... : A#2 0D . ... : 3-# 0A . ... : C-3 09 . ... F96 : A#0 0E . ... : E-4 0E . 400 ... : ... .. . 454
ROW 11 : ... .. . ... : ... .. . ... : ... .. . ... : ... .. . ... : ... .. . ... F7C : ... .. . ... : ... .. . ... ... : ... .. . ...
ROW 12 : ... .. . ... : ... .. . ... : ... .. . ... : ... .. . ... : ... .. . ... F96 : ... .. . ... : ... .. . ... ... : ... .. . ...
ROW 13 : ... .. . ... : ... .. . ... : ... .. . ... : ... .. . ... : ... .. . ... F7C : ... .. . ... : ... .. . ... ... : ... .. . ...
ROW 14 : ... .. . ... : ... .. . ... : A#2 0D . ... : 3-# 0A . ... : C-3 09 . ... F96 : A#0 0E . ... : ... .. . 454 ... : ... .. . ...
ROW 15 : ... .. . ... : ... .. . ... : ... .. . ... : ... .. . ... : ... .. . ... F7C : ... .. . ... : ... .. . ... ... : ... .. . ...
ROW 16 : ... .. . ... : ... .. . ... : ... .. . ... : 3-# 0A . ... : C-3 09 . ... F96 : ... .. . ... : ... .. . ... ... : ... .. . ...
ROW 17 : ... .. . ... : ... .. . ... : ... .. . ... : ... .. . ... : ... .. . ... F7C : ... .. . ... : ... .. . ... ... : ... .. . ...
ROW 18 : A#2 14 . ... : F-2 14 . ... : A#2 0D . ... : 8-# 0A . ... : C#3 09 . ... F96 : A#0 0E . ... : ... .. . ... ... : F-4 0E . 400
ROW 19 : ... .. . ... : ... .. . ... : ... .. . ... : ... .. . ... : ... .. . ... F7C : ... .. . ... : ... .. . ... ... : ... .. . ...
ROW 1A : ... .. . ... : ... .. . ... : ... .. . ... : ... .. . ... : ... .. . ... F96 : ... .. . ... : ... .. . ... ... : ... .. . ...
ROW 1B : ... .. . ... : ... .. . ... : ... .. . ... : ... .. . ... : ... .. . ... F7C : ... .. . ... : ... .. . ... ... : ... .. . ...
ROW 1C : ... .. . ... : ... .. . ... : A#2 0D . ... : ... .. . ... : ... .. . ... F96 : A#0 0E . ... : F-4 0E . 400 ... : ... .. . 454
ROW 1D : ... .. . ... : ... .. . ... : ... .. . ... : ... .. . ... : ... .. . ... F7C : ... .. . ... : ... .. . ... ... : ... .. . ...
ROW 1E : ... .. . ... : ... .. . ... : ... .. . ... : ... .. . ... : ... .. . ... F96 : ... .. . ... : ... .. . ... ... : ... .. . ...
ROW 1F : ... .. . ... : ... .. . ... : ... .. . ... : ... .. . ... : ... .. . ... F7C : ... .. . ... : ... .. . ... ... : ... .. . ...
ROW 20 : A#2 14 . ... : F-2 14 . ... : A#2 0D . ... : 3-# 0A . ... : C-3 09 . ... F96 : A#0 0E . ... : ... .. . 454 ... : F-4 0E . 400
ROW 21 : ... .. . ... : ... .. . ... : ... .. . ... : ... .. . ... : ... .. . ... F7C : ... .. . ... : ... .. . ... ... : ... .. . ...
ROW 22 : ... .. . ... : ... .. . ... : ... .. . ... : ... .. . ... : ... .. . ... F96 : ... .. . ... : ... .. . ... ... : ... .. . ...
ROW 23 : ... .. . ... : ... .. . ... : ... .. . ... : ... .. . ... : ... .. . ... F7C : ... .. . ... : ... .. . ... ... : ... .. . ...
ROW 24 : ... .. . ... : ... .. . ... : A#2 0D . ... : ... .. . ... : ... .. . ... F96 : A#0 0E . ... : F-4 0E . 400 ... : ... .. . 454
ROW 25 : ... .. . ... : ... .. . ... : ... .. . ... : ... .. . ... : ... .. . ... F7C : ... .. . ... : ... .. . ... ... : ... .. . ...
ROW 26 : ... .. . ... : ... .. . ... : ... .. . ... : 3-# 0A . ... : C-3 09 . ... F96 : ... .. . ... : ... .. . ... ... : ... .. . ...
ROW 27 : ... .. . ... : ... .. . ... : ... .. . ... : ... .. . ... : ... .. . ... F7C : ... .. . ... : ... .. . ... ... : ... .. . ...
ROW 28 : ... .. . ... : ... .. . ... : A#2 0D . ... : 8-# 0A . ... : C#3 09 . ... F96 : A#0 0E . ... : ... .. . 454 ... : ... .. . ...
ROW 29 : ... .. . ... : ... .. . ... : ... .. . ... : ... .. . ... : ... .. . ... F7C : ... .. . ... : ... .. . ... ... : ... .. . ...
ROW 2A : ... .. . ... : ... .. . ... : ... .. . ... : ... .. . ... : ... .. . ... F96 : ... .. . ... : ... .. . ... ... : ... .. . ...
ROW 2B : ... .. . ... : ... .. . ... : ... .. . ... : ... .. . ... : ... .. . ... F7C : ... .. . ... : ... .. . ... ... : ... .. . ...
ROW 2C : A-2 14 . ... : E-2 14 . ... : A#2 0D . ... : ... .. . ... : ... .. . ... F96 : A#0 0E . ... : ... .. . ... ... : E-4 0E . 400
ROW 2D : ... .. . ... : ... .. . ... : ... .. . ... : ... .. . ... : ... .. . ... F7C : ... .. . ... : ... .. . ... ... : ... .. . ...
ROW 2E : ... .. . ... : ... .. . ... : ... .. . ... : ... .. . ... : ... .. . ... F96 : ... .. . ... : ... .. . ... ... : ... .. . ...
ROW 2F : ... .. . ... : ... .. . ... : ... .. . ... : ... .. . ... : ... .. . ... F7C : ... .. . ... : ... .. . ... ... : ... .. . ...
ROW 30 : ... .. . ... : ... .. . ... : A#2 0D . ... : 3-# 0A . ... : C-3 09 . ... F96 : A#0 0E . ... : E-4 0E . 400 ... : ... .. . 454
ROW 31 : ... .. . ... : ... .. . ... : ... .. . ... : ... .. . ... : ... .. . ... F7C : ... .. . ... : ... .. . ... ... : ... .. . ...
ROW 32 : ... .. . ... : ... .. . ... : ... .. . ... : ... .. . ... : ... .. . ... F96 : ... .. . ... : ... .. . ... ... : ... .. . ...
ROW 33 : ... .. . ... : ... .. . ... : ... .. . ... : ... .. . ... : ... .. . ... F7C : ... .. . ... : ... .. . ... ... : ... .. . ...
ROW 34 : ... .. . ... : ... .. . ... : A#2 0D . ... : 3-# 0A . ... : C-3 09 . ... F96 : A#0 0E . ... : ... .. . 454 ... : ... .. . ...
ROW 35 : ... .. . ... : ... .. . ... : ... .. . ... : ... .. . ... : ... .. . ... F7C : ... .. . ... : ... .. . ... ... : ... .. . ...
ROW 36 : ... .. . ... : ... .. . ... : ... .. . ... : 3-# 0A . ... : C-3 09 . ... F96 : ... .. . ... : ... .. . ... ... : ... .. . ...
ROW 37 : ... .. . ... : ... .. . ... : ... .. . ... : ... .. . ... : ... .. . ... F7C : ... .. . ... : ... .. . ... ... : ... .. . ...
ROW 38 : A#2 14 . ... : F-2 14 . ... : A#2 0D . ... : 8-# 0A . ... : C#3 09 . ... F96 : A#0 0E . ... : ... .. . ... ... : F-4 0E . 400
ROW 39 : ... .. . ... : ... .. . ... : ... .. . ... : ... .. . ... : ... .. . ... F7C : ... .. . ... : ... .. . ... ... : ... .. . ...
ROW 3A : ... .. . ... : ... .. . ... : ... .. . ... : ... .. . ... : ... .. . ... F96 : ... .. . ... : ... .. . ... ... : ... .. . ...
ROW 3B : ... .. . ... : ... .. . ... : ... .. . ... : ... .. . ... : ... .. . ... F7C : ... .. . ... : ... .. . ... ... : ... .. . ...
ROW 3C : ... .. . ... : ... .. . ... : A#2 0D . ... : ... .. . ... : ... .. . ... F96 : A#0 0E . ... : F-4 0E . 400 ... : ... .. . 454
ROW 3D : ... .. . ... : ... .. . ... : ... .. . ... : ... .. . ... : ... .. . ... F7C : ... .. . ... : ... .. . ... ... : ... .. . ...
ROW 3E : ... .. . ... : ... .. . ... : ... .. . ... : ... .. . ... : ... .. . ... F96 : ... .. . ... : ... .. . ... ... : ... .. . ...
ROW 3F : ... .. . ... : ... .. . ... : ... .. . ... : ... .. . ... : ... .. . ... F7C : ... .. . ... : ... .. . ... ... : ... .. . ...

PATTERN 50
ROW 00 : C-3 14 . ... : G-2 14 . ... : C-3 0D . ... : 3-# 0A . ... : C-3 09 . ... F96 : C-1 0E . ... : ... .. . 454 ... : G-4 0E . 400
ROW 01 : ... .. . ... : ... .. . ... : ... .. . ... : ... .. . ... : ... .. . ... F7C : ... .. . ... : ... .. . ... ... : ... .. . ...
ROW 02 : ... .. . ... : ... .. . ... : ... .. . ... : ... .. . ... : ... .. . ... F96 : ... .. . ... : ... .. . ... ... : ... .. . ...
ROW 03 : ... .. . ... : ... .. . ... : ... .. . ... : ... .. . ... : ... .. . ... F7C : ... .. . ... : ... .. . ... ... : ... .. . ...
ROW 04 : ... .. . ... : ... .. . ... : C-3 0D . ... : ... .. . ... : ... .. . ... F96 : C-1 0E . ... : G-4 0E . 400 ... : F-4 0E . ...
ROW 05 : ... .. . ... : ... .. . ... : ... .. . ... : ... .. . ... : ... .. . ... F7C : ... .. . ... : ... .. . ... ... : ... .. . ...
ROW 06 : ... .. . ... : ... .. . ... : ... .. . ... : 3-# 0A . ... : C-3 09 . ... F96 : ... .. . ... : ... .. . ... ... : ... .. . ...
ROW 07 : ... .. . ... : ... .. . ... : ... .. . ... : ... .. . ... : ... .. . ... F7C : ... .. . ... : ... .. . ... ... : ... .. . ...
ROW 08 : ... .. . ... : ... .. . ... : C-3 0D . ... : 8-# 0A . ... : C#3 09 . ... F96 : C-1 0E . ... : F-4 0E . ... ... : E-4 0E . ...
ROW 09 : ... .. . ... : ... .. . ... : ... .. . ... : ... .. . ... : ... .. . ... F7C : ... .. . ... : ... .. . ... ... : ... .. . ...
ROW 0A : ... .. . ... : ... .. . ... : ... .. . ... : ... .. . ... : ... .. . ... F96 : ... .. . ... : ... .. . ... ... : ... .. . ...
ROW 0B : ... .. . ... : ... .. . ... : ... .. . ... : ... .. . ... : ... .. . ... F7C : ... .. . ... : ... .. . ... ... : ... .. . ...
ROW 0C : ... .. . ... : ... .. . ... : C-3 0D . ... : ... .. . ... : ... .. . ... F96 : C-1 0E . ... : E-4 0E . ... ... : F-4 0E . ...
ROW 0D : ... .. . ... : ... .. . ... : ... .. . ... : ... .. . ... : ... .. . ... F7C : ... .. . ... : ... .. . ... ... : ... .. . ...
ROW 0E : ... .. . ... : ... .. . ... : ... .. . ... : ... .. . ... : ... .. . ... F96 : ... .. . ... : ... .. . ... ... : ... .. . ...
ROW 0F : ... .. . ... : ... .. . ... : ... .. . ... : ... .. . ... : ... .. . ... F7C : ... .. . ... : ... .. . ... ... : ... .. . ...
ROW 10 : ... .. . ... : ... .. . ... : C-3 0D . ... : 3-# 0A . ... : C-3 09 . ... F96 : C-1 0E . ... : F-4 0E . ... ... : E-4 0E . ...
ROW 11 : ... .. . ... : ... .. . ... : ... .. . ... : ... .. . ... : ... .. . ... F7C : ... .. . ... : ... .. . ... ... : ... .. . ...
ROW 12 : ... .. . ... : ... .. . ... : ... .. . ... : ... .. . ... : ... .. . ... F96 : ... .. . ... : ... .. . ... ... : ... .. . ...
ROW 13 : ... .. . ... : ... .. . ... : ... .. . ... : ... .. . ... : ... .. . ... F7C : ... .. . ... : ... .. . ... ... : ... .. . ...
ROW 14 : ... .. . ... : ... .. . ... : C-3 0D . ... : 3-# 0A . ... : C-3 09 . ... F96 : C-1 0E . ... : E-4 0E . ... ... : D-4 0E . ...
ROW 15 : ... .. . ... : ... .. . ... : ... .. . ... : ... .. . ... : ... .. . ... F7C : ... .. . ... : ... .. . ... ... : ... .. . ...
ROW 16 : ... .. . ... : ... .. . ... : ... .. . ... : 3-# 0A . ... : C-3 09 . ... F96 : ... .. . ... : ... .. . ... ... : ... .. . ...
ROW 17 : ... .. . ... : ... .. . ... : ... .. . ... : ... .. . ... : ... .. . ... F7C : ... .. . ... : ... .. . ... ... : ... .. . ...
ROW 18 : ... .. . ... : ... .. . ... : C-3 0D . ... : 8-# 0A . ... : C#3 09 . ... F96 : C-1 0E . ... : D-4 0E . ... ... : E-4 0E . ...
ROW 19 : ... .. . ... : ... .. . ... : ... .. . ... : ... .. . ... : ... .. . ... F7C : ... .. . ... : ... .. . ... ... : ... .. . ...
ROW 1A : ... .. . ... : ... .. . ... : ... .. . ... : ... .. . ... : ... .. . ... F96 : ... .. . ... : ... .. . ... ... : ... .. . ...
ROW 1B : ... .. . ... : ... .. . ... : ... .. . ... : ... .. . ... : ... .. . ... F7C : ... .. . ... : ... .. . ... ... : ... .. . ...
ROW 1C : ... .. . ... : ... .. . ... : C-3 0D . ... : ... .. . ... : ... .. . ... F96 : C-1 0E . ... : E-4 0E . ... ... : D-4 0E . ...
ROW 1D : ... .. . ... : ... .. . ... : ... .. . ... : ... .. . ... : ... .. . ... F7C : ... .. . ... : ... .. . ... ... : ... .. . ...
ROW 1E : ... .. . ... : ... .. . ... : ... .. . ... : ... .. . ... : ... .. . ... F96 : ... .. . ... : ... .. . ... ... : ... .. . ...
ROW 1F : ... .. . ... : ... .. . ... : ... .. . ... : ... .. . ... : ... .. . ... F7C : ... .. . ... : ... .. . ... ... : ... .. . ...
ROW 20 : A-2 14 . ... : E-2 14 . ... : A-2 0D . ... : 3-# 0A . ... : C-3 09 . ... F96 : A-0 0E . ... : D-4 0E . ... ... : C#4 0E . ...
ROW 21 : ... .. . ... : ... .. . ... : ... .. . ... : ... .. . ... : ... .. . ... F7C : ... .. . ... : ... .. . ... ... : ... .. . ...
ROW 22 : ... .. . ... : ... .. . ... : ... .. . ... : ... .. . ... : ... .. . ... F96 : ... .. . ... : ... .. . ... ... : ... .. . ...
ROW 23 : ... .. . ... : ... .. . ... : ... .. . ... : ... .. . ... : ... .. . ... F7C : ... .. . ... : ... .. . ... ... : ... .. . ...
ROW 24 : ... .. . ... : ... .. . ... : A-2 0D . ... : ... .. . ... : ... .. . ... F96 : A-0 0E . ... : C#4 0E . ... ... : D-4 0E . ...
ROW 25 : ... .. . ... : ... .. . ... : ... .. . ... : ... .. . ... : ... .. . ... F7C : ... .. . ... : ... .. . ... ... : ... .. . ...
ROW 26 : ... .. . ... : ... .. . ... : ... .. . ... : 3-# 0A . ... : C-3 09 . ... F96 : ... .. . ... : ... .. . ... ... : ... .. . ...
ROW 27 : ... .. . ... : ... .. . ... : ... .. . ... : ... .. . ... : ... .. . ... F7C : ... .. . ... : ... .. . ... ... : ... .. . ...
ROW 28 : ... .. . ... : ... .. . ... : A-2 0D . ... : 8-# 0A . ... : C#3 09 . ... F96 : A-0 0E . ... : D-4 0E . ... ... : E-4 0E . ...
ROW 29 : ... .. . ... : ... .. . ... : ... .. . ... : ... .. . ... : ... .. . ... F7C : ... .. . ... : ... .. . ... ... : ... .. . ...
ROW 2A : ... .. . ... : ... .. . ... : ... .. . ... : ... .. . ... : ... .. . ... F96 : ... .. . ... : ... .. . ... ... : ... .. . ...
ROW 2B : ... .. . ... : ... .. . ... : ... .. . ... : ... .. . ... : ... .. . ... F7C : ... .. . ... : ... .. . ... ... : ... .. . ...
ROW 2C : ... .. . ... : ... .. . ... : A-2 0D . ... : ... .. . ... : ... .. . ... F96 : A-0 0E . ... : E-4 0E . ... ... : F-4 0E . ...
ROW 2D : ... .. . ... : ... .. . ... : ... .. . ... : ... .. . ... : ... .. . ... F7C : ... .. . ... : ... .. . ... ... : ... .. . ...
ROW 2E : ... .. . ... : ... .. . ... : ... .. . ... : ... .. . ... : ... .. . ... F96 : ... .. . ... : ... .. . ... ... : ... .. . ...
ROW 2F : ... .. . ... : ... .. . ... : ... .. . ... : ... .. . ... : ... .. . ... F7C : ... .. . ... : ... .. . ... ... : ... .. . ...
ROW 30 : ... .. . ... : ... .. . ... : A-2 0D . ... : 3-# 0A . ... : C-3 09 . ... F96 : A-0 0E . ... : F-4 0E . ... ... : G-4 0E . ...
ROW 31 : ... .. . ... : ... .. . ... : ... .. . ... : ... .. . ... : ... .. . ... F7C : ... .. . ... : ... .. . ... ... : ... .. . ...
ROW 32 : ... .. . ... : ... .. . ... : ... .. . ... : ... .. . ... : ... .. . ... F96 : ... .. . ... : ... .. . ... ... : ... .. . ...
ROW 33 : ... .. . ... : ... .. . ... : ... .. . ... : ... .. . ... : ... .. . ... F7C : ... .. . ... : ... .. . ... ... : ... .. . ...
ROW 34 : ... .. . ... : ... .. . ... : A-2 0D . ... : 3-# 0A . ... : C-3 09 . ... F96 : A-0 0E . ... : G-4 0E . ... ... : F-4 0E . ...
ROW 35 : ... .. . ... : ... .. . ... : ... .. . ... : ... .. . ... : ... .. . ... F7C : ... .. . ... : ... .. . ... ... : ... .. . ...
ROW 36 : ... .. . ... : ... .. . ... : ... .. . ... : 3-# 0A . ... : C-3 09 . ... F96 : ... .. . ... : ... .. . ... ... : ... .. . ...
ROW 37 : ... .. . ... : ... .. . ... : ... .. . ... : ... .. . ... : ... .. . ... F7C : ... .. . ... : ... .. . ... ... : ... .. . ...
ROW 38 : ... .. . ... : ... .. . ... : A-2 0D . ... : 8-# 0A . ... : C#3 09 . ... F96 : A-0 0E . ... : F-4 0E . ... ... : E-4 0E . ...
ROW 39 : ... .. . ... : ... .. . ... : ... .. . ... : ... .. . ... : ... .. . ... F7C : ... .. . ... : ... .. . ... ... : ... .. . ...
ROW 3A : ... .. . ... : ... .. . ... : ... .. . ... : ... .. . ... : ... .. . ... F96 : ... .. . ... : ... .. . ... ... : ... .. . ...
ROW 3B : ... .. . ... : ... .. . ... : ... .. . ... : ... .. . ... : ... .. . ... F7C : ... .. . ... : ... .. . ... ... : ... .. . ...
ROW 3C : ... .. . ... : ... .. . ... : A-2 0D . ... : ... .. . ... : ... .. . ... F96 : A-0 0E . ... : E-4 0E . ... ... : D-4 0E . ...
ROW 3D : ... .. . ... : ... .. . ... : ... .. . ... : ... .. . ... : ... .. . ... F7C : ... .. . ... : ... .. . ... ... : ... .. . ...
ROW 3E : ... .. . ... : ... .. . ... : ... .. . ... : ... .. . ... : ... .. . ... F96 : ... .. . ... : ... .. . ... ... : ... .. . ...
ROW 3F : ... .. . ... : ... .. . ... : ... .. . ... : ... .. . ... : ... .. . ... F7C : ... .. . ... : ... .. . ... ... : ... .. . ...

PATTERN 51
ROW 00 : A#2 14 . ... : F-2 14 . ... : A#2 0D . ... : 3-# 0A . ... : C-3 09 . ... F96 : A#0 0E . ... : D-4 0E . ... ... : F-4 0E . ...
ROW 01 : ... .. . ... : ... .. . ... : ... .. . ... : ... .. . ... : ... .. . ... F7C : ... .. . ... : ... .. . ... ... : ... .. . ...
ROW 02 : ... .. . ... : ... .. . ... : ... .. . ... : ... .. . ... : ... .. . ... F96 : ... .. . ... : ... .. . ... ... : ... .. . ...
ROW 03 : ... .. . ... : ... .. . ... : ... .. . ... : ... .. . ... : ... .. . ... F7C : ... .. . ... : ... .. . ... ... : ... .. . ...
ROW 04 : ... .. . ... : ... .. . ... : A#2 0D . ... : ... .. . ... : ... .. . ... F96 : A#0 0E . ... : F-4 0E . ... ... : ... .. . 454
ROW 05 : ... .. . ... : ... .. . ... : ... .. . ... : ... .. . ... : ... .. . ... F7C : ... .. . ... : ... .. . ... ... : ... .. . ...
ROW 06 : ... .. . ... : ... .. . ... : ... .. . ... : 3-# 0A . ... : C-3 09 . ... F96 : ... .. . ... : ... .. . ... ... : ... .. . ...
ROW 07 : ... .. . ... : ... .. . ... : ... .. . ... : ... .. . ... : ... .. . ... F7C : ... .. . ... : ... .. . ... ... : ... .. . ...
ROW 08 : ... .. . ... : ... .. . ... : A#2 0D . ... : 8-# 0A . ... : C#3 09 . ... F96 : A#0 0E . ... : ... .. . 454 ... : ... .. . ...
ROW 09 : ... .. . ... : ... .. . ... : ... .. . ... : ... .. . ... : ... .. . ... F7C : ... .. . ... : ... .. . ... ... : ... .. . ...
ROW 0A : ... .. . ... : ... .. . ... : ... .. . ... : ... .. . ... : ... .. . ... F96 : ... .. . ... : ... .. . ... ... : ... .. . ...
ROW 0B : ... .. . ... : ... .. . ... : ... .. . ... : ... .. . ... : ... .. . ... F7C : ... .. . ... : ... .. . ... ... : ... .. . ...
ROW 0C : A-2 14 . ... : E-2 14 . ... : A#2 0D . ... : ... .. . ... : ... .. . ... F96 : A#0 0E . ... : ... .. . ... ... : E-4 0E . 400
ROW 0D : ... .. . ... : ... .. . ... : ... .. . ... : ... .. . ... : ... .. . ... F7C : ... .. . ... : ... .. . ... ... : ... .. . ...
ROW 0E : ... .. . ... : ... .. . ... : ... .. . ... : ... .. . ... : ... .. . ... F96 : ... .. . ... : ... .. . ... ... : ... .. . ...
ROW 0F : ... .. . ... : ... .. . ... : ... .. . ... : ... .. . ... : ... .. . ... F7C : ... .. . ... : ... .. . ... ... : ... .. . ...
ROW 10 : ... .. . ... : ... .. . ... : A#2 0D . ... : 3-# 0A . ... : C-3 09 . ... F96 : A#0 0E . ... : E-4 0E . 400 ... : ... .. . 454
ROW 11 : ... .. . ... : ... .. . ... : ... .. . ... : ... .. . ... : ... .. . ... F7C : ... .. . ... : ... .. . ... ... : ... .. . ...
ROW 12 : ... .. . ... : ... .. . ... : ... .. . ... : ... .. . ... : ... .. . ... F96 : ... .. . ... : ... .. . ... ... : ... .. . ...
ROW 13 : ... .. . ... : ... .. . ... : ... .. . ... : ... .. . ... : ... .. . ... F7C : ... .. . ... : ... .. . ... ... : ... .. . ...
ROW 14 : ... .. . ... : ... .. . ... : A#2 0D . ... : 3-# 0A . ... : C-3 09 . ... F96 : A#0 0E . ... : ... .. . 454 ... : ... .. . ...
ROW 15 : ... .. . ... : ... .. . ... : ... .. . ... : ... .. . ... : ... .. . ... F7C : ... .. . ... : ... .. . ... ... : ... .. . ...
ROW 16 : ... .. . ... : ... .. . ... : ... .. . ... : 3-# 0A . ... : C-3 09 . ... F96 : ... .. . ... : ... .. . ... ... : ... .. . ...
ROW 17 : ... .. . ... : ... .. . ... : ... .. . ... : ... .. . ... : ... .. . ... F7C : ... .. . ... : ... .. . ... ... : ... .. . ...
ROW 18 : A#2 14 . ... : F-2 14 . ... : A#2 0D . ... : 8-# 0A . ... : C#3 09 . ... F96 : A#0 0E . ... : ... .. . ... ... : F-4 0E . 400
ROW 19 : ... .. . ... : ... .. . ... : ... .. . ... : ... .. . ... : ... .. . ... F7C : ... .. . ... : ... .. . ... ... : ... .. . ...
ROW 1A : ... .. . ... : ... .. . ... : ... .. . ... : ... .. . ... : ... .. . ... F96 : ... .. . ... : ... .. . ... ... : ... .. . ...
ROW 1B : ... .. . ... : ... .. . ... : ... .. . ... : ... .. . ... : ... .. . ... F7C : ... .. . ... : ... .. . ... ... : ... .. . ...
ROW 1C : ... .. . ... : ... .. . ... : A#2 0D . ... : ... .. . ... : ... .. . ... F96 : A#0 0E . ... : F-4 0E . 400 ... : ... .. . 454
ROW 1D : ... .. . ... : ... .. . ... : ... .. . ... : ... .. . ... : ... .. . ... F7C : ... .. . ... : ... .. . ... ... : ... .. . ...
ROW 1E : ... .. . ... : ... .. . ... : ... .. . ... : ... .. . ... : ... .. . ... F96 : ... .. . ... : ... .. . ... ... : ... .. . ...
ROW 1F : ... .. . ... : ... .. . ... : ... .. . ... : ... .. . ... : ... .. . ... F7C : ... .. . ... : ... .. . ... ... : ... .. . ...
ROW 20 : A#2 14 . ... : F-2 14 . ... : A#2 0D . ... : 3-# 0A . ... : C-3 09 . ... F96 : A#0 0E . ... : ... .. . 454 ... : F-4 0E . 400
ROW 21 : ... .. . ... : ... .. . ... : ... .. . ... : ... .. . ... : ... .. . ... F7C : ... .. . ... : ... .. . ... ... : ... .. . ...
ROW 22 : ... .. . ... : ... .. . ... : ... .. . ... : ... .. . ... : ... .. . ... F96 : ... .. . ... : ... .. . ... ... : ... .. . ...
ROW 23 : ... .. . ... : ... .. . ... : ... .. . ... : ... .. . ... : ... .. . ... F7C : ... .. . ... : ... .. . ... ... : ... .. . ...
ROW 24 : ... .. . ... : ... .. . ... : A#2 0D . ... : ... .. . ... : ... .. . ... F96 : A#0 0E . ... : F-4 0E . 400 ... : ... .. . 454
ROW 25 : ... .. . ... : ... .. . ... : ... .. . ... : ... .. . ... : ... .. . ... F7C : ... .. . ... : ... .. . ... ... : ... .. . ...
ROW 26 : ... .. . ... : ... .. . ... : ... .. . ... : 3-# 0A . ... : C-3 09 . ... F96 : ... .. . ... : ... .. . ... ... : ... .. . ...
ROW 27 : ... .. . ... : ... .. . ... : ... .. . ... : ... .. . ... : ... .. . ... F7C : ... .. . ... : ... .. . ... ... : ... .. . ...
ROW 28 : ... .. . ... : ... .. . ... : A#2 0D . ... : 8-# 0A . ... : C#3 09 . ... F96 : A#0 0E . ... : ... .. . 454 ... : ... .. . ...
ROW 29 : ... .. . ... : ... .. . ... : ... .. . ... : ... .. . ... : ... .. . ... F7C : ... .. . ... : ... .. . ... ... : ... .. . ...
ROW 2A : ... .. . ... : ... .. . ... : ... .. . ... : ... .. . ... : ... .. . ... F96 : ... .. . ... : ... .. . ... ... : ... .. . ...
ROW 2B : ... .. . ... : ... .. . ... : ... .. . ... : ... .. . ... : ... .. . ... F7C : ... .. . ... : ... .. . ... ... : ... .. . ...
ROW 2C : A-2 14 . ... : E-2 14 . ... : A#2 0D . ... : ... .. . ... : ... .. . ... F96 : A#0 0E . ... : ... .. . ... ... : E-4 0E . 400
ROW 2D : ... .. . ... : ... .. . ... : ... .. . ... : ... .. . ... : ... .. . ... F7C : ... .. . ... : ... .. . ... ... : ... .. . ...
ROW 2E : ... .. . ... : ... .. . ... : ... .. . ... : ... .. . ... : ... .. . ... F96 : ... .. . ... : ... .. . ... ... : ... .. . ...
ROW 2F : ... .. . ... : ... .. . ... : ... .. . ... : ... .. . ... : ... .. . ... F7C : ... .. . ... : ... .. . ... ... : ... .. . ...
ROW 30 : ... .. . ... : ... .. . ... : A#2 0D . ... : 3-# 0A . ... : C-3 09 . ... F96 : A#0 0E . ... : E-4 0E . 400 ... : ... .. . 454
ROW 31 : ... .. . ... : ... .. . ... : ... .. . ... : ... .. . ... : ... .. . ... F7C : ... .. . ... : ... .. . ... ... : ... .. . ...
ROW 32 : ... .. . ... : ... .. . ... : ... .. . ... : ... .. . ... : ... .. . ... F96 : ... .. . ... : ... .. . ... ... : ... .. . ...
ROW 33 : ... .. . ... : ... .. . ... : ... .. . ... : ... .. . ... : ... .. . ... F7C : ... .. . ... : ... .. . ... ... : ... .. . ...
ROW 34 : ... .. . ... : ... .. . ... : A#2 0D . ... : 3-# 0A . ... : C-3 09 . ... F96 : A#0 0E . ... : ... .. . 454 ... : ... .. . ...
ROW 35 : ... .. . ... : ... .. . ... : ... .. . ... : ... .. . ... : ... .. . ... F7C : ... .. . ... : ... .. . ... ... : ... .. . ...
ROW 36 : ... .. . ... : ... .. . ... : ... .. . ... : 3-# 0A . ... : C-3 09 . ... F96 : ... .. . ... : ... .. . ... ... : ... .. . ...
ROW 37 : ... .. . ... : ... .. . ... : ... .. . ... : ... .. . ... : ... .. . ... F7C : ... .. . ... : ... .. . ... ... : ... .. . ...
ROW 38 : A#2 14 . ... : F-2 14 . ... : A#2 0D . ... : 8-# 0A . ... : C#3 09 . ... F96 : A#0 0E . ... : ... .. . ... ... : F-4 0E . 400
ROW 39 : ... .. . ... : ... .. . ... : ... .. . ... : ... .. . ... : ... .. . ... F7C : ... .. . ... : ... .. . ... ... : ... .. . ...
ROW 3A : ... .. . ... : ... .. . ... : ... .. . ... : ... .. . ... : ... .. . ... F96 : ... .. . ... : ... .. . ... ... : ... .. . ...
ROW 3B : ... .. . ... : ... .. . ... : ... .. . ... : ... .. . ... : ... .. . ... F7C : ... .. . ... : ... .. . ... ... : ... .. . ...
ROW 3C : ... .. . ... : ... .. . ... : A#2 0D . ... : ... .. . ... : ... .. . ... F96 : A#0 0E . ... : F-4 0E . 400 ... : ... .. . 454
ROW 3D : ... .. . ... : ... .. . ... : ... .. . ... : ... .. . ... : ... .. . ... F7C : ... .. . ... : ... .. . ... ... : ... .. . ...
ROW 3E : ... .. . ... : ... .. . ... : ... .. . ... : ... .. . ... : ... .. . ... F96 : ... .. . ... : ... .. . ... ... : ... .. . ...
ROW 3F : ... .. . ... : ... .. . ... : ... .. . ... : ... .. . ... : ... .. . ... F7C : ... .. . ... : ... .. . ... ... : ... .. . ...

PATTERN 52
ROW 00 : C-3 14 . ... : G-2 14 . ... : C-3 0D . ... : 3-# 0A . ... : C-3 09 . ... F96 : C-1 0E . ... : ... .. . 454 ... : E-4 0E . 400
ROW 01 : ... .. . ... : ... .. . ... : ... .. . ... : ... .. . ... : ... .. . ... F7C : ... .. . ... : ... .. . ... ... : ... .. . ...
ROW 02 : ... .. . ... : ... .. . ... : ... .. . ... : ... .. . ... : ... .. . ... F96 : ... .. . ... : ... .. . ... ... : ... .. . ...
ROW 03 : ... .. . ... : ... .. . ... : ... .. . ... : ... .. . ... : ... .. . ... F7C : ... .. . ... : ... .. . ... ... : ... .. . ...
ROW 04 : ... .. . ... : ... .. . ... : C-3 0D . ... : ... .. . ... : ... .. . ... F96 : C-1 0E . ... : E-4 0E . 400 ... : F-4 0E . ...
ROW 05 : ... .. . ... : ... .. . ... : ... .. . ... : ... .. . ... : ... .. . ... F7C : ... .. . ... : ... .. . ... ... : ... .. . ...
ROW 06 : ... .. . ... : ... .. . ... : ... .. . ... : 3-# 0A . ... : C-3 09 . ... F96 : ... .. . ... : ... .. . ... ... : ... .. . ...
ROW 07 : ... .. . ... : ... .. . ... : ... .. . ... : ... .. . ... : ... .. . ... F7C : ... .. . ... : ... .. . ... ... : ... .. . ...
ROW 08 : ... .. . ... : ... .. . ... : C-3 0D . ... : 8-# 0A . ... : C#3 09 . ... F96 : C-1 0E . ... : F-4 0E . ... ... : G-4 0E . ...
ROW 09 : ... .. . ... : ... .. . ... : ... .. . ... : ... .. . ... : ... .. . ... F7C : ... .. . ... : ... .. . ... ... : ... .. . ...
ROW 0A : ... .. . ... : ... .. . ... : ... .. . ... : ... .. . ... : ... .. . ... F96 : ... .. . ... : ... .. . ... ... : ... .. . ...
ROW 0B : ... .. . ... : ... .. . ... : ... .. . ... : ... .. . ... : ... .. . ... F7C : ... .. . ... : ... .. . ... ... : ... .. . ...
ROW 0C : ... .. . ... : ... .. . ... : C-3 0D . ... : ... .. . ... : ... .. . ... F96 : C-1 0E . ... : G-4 0E . ... ... : A-4 0E . ...
ROW 0D : ... .. . ... : ... .. . ... : ... .. . ... : ... .. . ... : ... .. . ... F7C : ... .. . ... : ... .. . ... ... : ... .. . ...
ROW 0E : ... .. . ... : ... .. . ... : ... .. . ... : ... .. . ... : ... .. . ... F96 : ... .. . ... : ... .. . ... ... : ... .. . ...
ROW 0F : ... .. . ... : ... .. . ... : ... .. . ... : ... .. . ... : ... .. . ... F7C : ... .. . ... : ... .. . ... ... : ... .. . ...
ROW 10 : ... .. . ... : ... .. . ... : C-3 0D . ... : 3-# 0A . ... : C-3 09 . ... F96 : C-1 0E . ... : A-4 0E . ... ... : A#4 0E . ...
ROW 11 : ... .. . ... : ... .. . ... : ... .. . ... : ... .. . ... : ... .. . ... F7C : ... .. . ... : ... .. . ... ... : ... .. . ...
ROW 12 : ... .. . ... : ... .. . ... : ... .. . ... : ... .. . ... : ... .. . ... F96 : ... .. . ... : ... .. . ... ... : ... .. . ...
ROW 13 : ... .. . ... : ... .. . ... : ... .. . ... : ... .. . ... : ... .. . ... F7C : ... .. . ... : ... .. . ... ... : ... .. . ...
ROW 14 : ... .. . ... : ... .. . ... : C-3 0D . ... : 3-# 0A . ... : C-3 09 . ... F96 : C-1 0E . ... : A#4 0E . ... ... : A-4 0E . ...
ROW 15 : ... .. . ... : ... .. . ... : ... .. . ... : ... .. . ... : ... .. . ... F7C : ... .. . ... : ... .. . ... ... : ... .. . ...
ROW 16 : ... .. . ... : ... .. . ... : ... .. . ... : 3-# 0A . ... : C-3 09 . ... F96 : ... .. . ... : ... .. . ... ... : ... .. . ...
ROW 17 : ... .. . ... : ... .. . ... : ... .. . ... : ... .. . ... : ... .. . ... F7C : ... .. . ... : ... .. . ... ... : ... .. . ...
ROW 18 : ... .. . ... : ... .. . ... : C-3 0D . ... : 8-# 0A . ... : C#3 09 . ... F96 : C-1 0E . ... : A-4 0E . ... ... : G-4 0E . ...
ROW 19 : ... .. . ... : ... .. . ... : ... .. . ... : ... .. . ... : ... .. . ... F7C : ... .. . ... : ... .. . ... ... : ... .. . ...
ROW 1A : ... .. . ... : ... .. . ... : ... .. . ... : ... .. . ... : ... .. . ... F96 : ... .. . ... : ... .. . ... ... : ... .. . ...
ROW 1B : ... .. . ... : ... .. . ... : ... .. . ... : ... .. . ... : ... .. . ... F7C : ... .. . ... : ... .. . ... ... : ... .. . ...
ROW 1C : ... .. . ... : ... .. . ... : C-3 0D . ... : ... .. . ... : ... .. . ... F96 : C-1 0E . ... : G-4 0E . ... ... : C-5 0E . ...
ROW 1D : ... .. . ... : ... .. . ... : ... .. . ... : ... .. . ... : ... .. . ... F7C : ... .. . ... : ... .. . ... ... : ... .. . ...
ROW 1E : ... .. . ... : ... .. . ... : ... .. . ... : ... .. . ... : ... .. . ... F96 : ... .. . ... : ... .. . ... ... : ... .. . ...
ROW 1F : ... .. . ... : ... .. . ... : ... .. . ... : ... .. . ... : ... .. . ... F7C : ... .. . ... : ... .. . ... ... : ... .. . ...
ROW 20 : A-2 14 . ... : E-2 14 . ... : A-2 0D . ... : 3-# 0A . ... : C-3 09 . ... F96 : A-0 0E . ... : C-5 0E . ... ... : D-3 0E . ...
ROW 21 : ... .. . ... : ... .. . ... : ... .. . ... : ... .. . ... : ... .. . ... F7C : ... .. . ... : ... .. . ... ... : ... .. . ...
ROW 22 : ... .. . ... : ... .. . ... : ... .. . ... : ... .. . ... : ... .. . ... F96 : ... .. . ... : ... .. . ... ... : F-3 0E . ...
ROW 23 : ... .. . ... : ... .. . ... : ... .. . ... : ... .. . ... : ... .. . ... F7C : ... .. . ... : ... .. . ... ... : ... .. . ...
ROW 24 : ... .. . ... : ... .. . ... : ... .. . ... : ... .. . ... : ... .. . ... F96 : ... .. . ... : D-3 0E . ... ... : A-3 0E . ...
ROW 25 : ... .. . ... : ... .. . ... : ... .. . ... : ... .. . ... : ... .. . ... F7C : ... .. . ... : ... .. . ... ... : ... .. . ...
ROW 26 : ... .. . ... : ... .. . ... : ... .. . ... : 3-# 0A . ... : C-3 09 . ... F96 : ... .. . ... : F-3 0E . ... ... : D-4 0E . ...
ROW 27 : ... .. . ... : ... .. . ... : ... .. . ... : ... .. . ... : ... .. . ... F7C : ... .. . ... : ... .. . ... ... : ... .. . ...
ROW 28 : ... .. . ... : ... .. . ... : ... .. . ... : 8-# 0A . ... : C#3 09 . ... F96 : ... .. . ... : A-3 0E . ... ... : F-4 0E . ...
ROW 29 : ... .. . ... : ... .. . ... : ... .. . ... : ... .. . ... : ... .. . ... F7C : ... .. . ... : ... .. . ... ... : ... .. . ...
ROW 2A : ... .. . ... : ... .. . ... : ... .. . ... : ... .. . ... : ... .. . ... F96 : ... .. . ... : D-4 0E . ... ... : A-4 0E . ...
ROW 2B : ... .. . ... : ... .. . ... : ... .. . ... : ... .. . ... : ... .. . ... F7C : ... .. . ... : ... .. . ... ... : ... .. . ...
ROW 2C : ... .. . ... : ... .. . ... : ... .. . ... : ... .. . ... : ... .. . ... F96 : ... .. . ... : F-4 0E . ... ... : D-5 0E . ...
ROW 2D : ... .. . ... : ... .. . ... : ... .. . ... : ... .. . ... : ... .. . ... F7C : ... .. . ... : ... .. . ... ... : ... .. . ...
ROW 2E : ... .. . ... : ... .. . ... : ... .. . ... : ... .. . ... : ... .. . ... F96 : ... .. . ... : A-4 0E . ... ... : A-4 0E . ...
ROW 2F : ... .. . ... : ... .. . ... : ... .. . ... : ... .. . ... : ... .. . ... F7C : ... .. . ... : ... .. . ... ... : ... .. . ...
ROW 30 : ... .. . ... : ... .. . ... : ... .. . ... : B-# 0B . ... : D-3 09 . ... F96 : ... .. . ... : D-5 0E . ... ... : F-4 0E . ...
ROW 31 : ... .. . ... : ... .. . ... : ... .. . ... : ... .. . ... : ... .. . ... F7C : ... .. . ... : ... .. . ... ... : ... .. . ...
ROW 32 : ... .. . ... : ... .. . ... : ... .. . ... : ... .. . ... : ... .. . ... F96 : ... .. . ... : A-4 0E . ... ... : D-4 0E . ...
ROW 33 : ... .. . ... : ... .. . ... : ... .. . ... : ... .. . ... : ... .. . ... F7C : ... .. . ... : ... .. . ... ... : ... .. . ...
ROW 34 : ... .. . ... : ... .. . ... : ... .. . ... : B-# 0B . ... : D-3 09 . ... F96 : ... .. . ... : F-4 0E . ... ... : A-3 0E . ...
ROW 35 : ... .. . ... : ... .. . ... : ... .. . ... : ... .. . ... : ... .. . ... F7C : ... .. . ... : ... .. . ... ... : ... .. . ...
ROW 36 : ... .. . ... : ... .. . ... : ... .. . ... : ... .. . ... : ... .. . ... F96 : ... .. . ... : D-4 0E . ... ... : F-3 0E . ...
ROW 37 : ... .. . ... : ... .. . ... : ... .. . ... : ... .. . ... : ... .. . ... F7C : ... .. . ... : ... .. . ... ... : ... .. . ...
ROW 38 : ... .. . ... : ... .. . ... : ... .. . ... : 9-# 0B . ... : E-3 09 . ... F96 : ... .. . ... : A-3 0E . ... ... : D-3 0E . ...
ROW 39 : ... .. . ... : ... .. . ... : ... .. . ... : ... .. . ... : ... .. . ... F7C : ... .. . ... : ... .. . ... ... : ... .. . ...
ROW 3A : ... .. . ... : ... .. . ... : ... .. . ... : ... .. . ... : ... .. . ... F96 : ... .. . ... : F-3 0E . ... ... : ... .. . ...
ROW 3B : ... .. . ... : ... .. . ... : ... .. . ... : ... .. . ... : ... .. . ... F7C : ... .. . ... : ... .. . ... ... : ... .. . ...
ROW 3C : ... .. . ... : ... .. . ... : ... .. . ... : 8-# 0B . ... : F-3 09 . ... F96 : ... .. . ... : D-3 0E . ... ... : ... .. . ...
ROW 3D : ... .. . ... : ... .. . ... : ... .. . ... : ... .. . ... : ... .. . ... F7C : ... .. . ... : ... .. . ... ... : ... .. . ...
ROW 3E : ... .. . ... : ... .. . ... : ... .. . ... : ... .. . ... : ... .. . ... F96 : ... .. . ... : ... .. . ... ... : ... .. . ...
ROW 3F : ... .. . ... : ... .. . ... : ... .. . ... : ... .. . ... : ... .. . B01 F7C : ... .. . ... : ... .. . ... ... : ... .. . ...

# End of export
