# FamiTracker text export 0.4.2

# Song information
TITLE           "Dubmood - 3D Galax"
AUTHOR          "~ Anon 200712"
COPYRIGHT       "Original by Borgar Thorsteinsso"

# Song comment
COMMENT ""

# Global settings
MACHINE         0
FRAMERATE       0
EXPANSION       1
VIBRATO         1
SPLIT           21

# Macros
MACRO       0   0  -1  -1   0 : 7 5 4 4 2 1
MACRO       0   1  -1  -1   0 : 8 7 6 5
MACRO       0   2  -1  -1   0 : 4 5 2 1 0
MACRO       0   3  -1  -1   0 : 5 5 4 3 2 2 2 2 2 1 1 1 1 1 1 1 1 1 1 0
MACRO       0   4  -1  -1   0 : 10 8 7 6 5 4 4 3 3 2 2 2 1 1 0
MACRO       0   5  -1  -1   0 : 7 5 3 2 1 0
MACRO       1   0   3  -1   0 : 0 0 0 0 12
MACRO       1   1  -1  -1   0 : 12 0
MACRO       1   2  -1  -1   0 : 12 0
MACRO       1   3  -1  -1   0 : -2 0
MACRO       1   4  -1  -1   0 : 1 -8 -2 -1 0
MACRO       1   5  -1  -1   0 : 0 1 0
MACRO       2   0  -1  -1   0 : 0 3
MACRO       2   1   1  -1   0 : -40 100
MACRO       2   2   2  -1   0 : 5 10 40
MACRO       4   0  -1  -1   0 : 2 2 1 1 2
MACRO       4   1  -1  -1   0 : 2 0 1
MACROVRC6   0   0  -1  -1   0 : 7 6 5
MACROVRC6   1   0  -1  -1   0 : 12 0
MACROVRC6   4   0  -1  -1   0 : 4

# DPCM samples

# Instruments
INST2A03   0    -1  -1  -1  -1  -1 "Blank"
INSTVRC6   1    -1  -1  -1  -1  -1 "Blank"
INST2A03   2     0   0  -1  -1   0 "Intro Arp"
INST2A03   3    -1   1  -1  -1  -1 "12 0 Lead"
INSTVRC6   4    -1   0  -1  -1  -1 "12 0 Lead"
INST2A03   5     1   2   0  -1   1 "Bass"
INST2A03   6     2   3  -1  -1  -1 "Closed Hihat"
INST2A03   7     3   3  -1  -1  -1 "Open Hihat"
INST2A03   8     4   4  -1  -1  -1 "Snare"
INST2A03   9     5   5  -1  -1  -1 "Kick"
INST2A03  10    -1  -1   1  -1  -1 "Trikick"
INST2A03  11    -1  -1   2  -1  -1 "Trisnare"
INSTVRC6  12     0  -1  -1  -1   0 "Leady"

# Tracks

TRACK  48   9 150 "Dubmood: 3D Galax"
COLUMNS : 1 1 1 1 1 1 1 1

ORDER 00 : 00 00 7F 7F 00 00 00 00
ORDER 01 : 00 00 7F 7F 00 00 00 01
ORDER 02 : 00 00 00 7F 00 00 00 01
ORDER 03 : 00 00 01 7F 00 00 00 01
ORDER 04 : 00 00 02 7F 00 00 00 01
ORDER 05 : 00 00 03 7F 00 00 00 01
ORDER 06 : 00 00 04 7F 00 00 00 01
ORDER 07 : 00 00 01 7F 00 00 00 01
ORDER 08 : 00 00 05 7F 00 00 00 01
ORDER 09 : 00 00 03 7F 00 00 00 01
ORDER 0A : 00 01 06 00 00 00 00 01
ORDER 0B : 00 01 06 00 00 00 00 01
ORDER 0C : 01 02 07 00 00 01 01 02
ORDER 0D : 01 02 08 01 00 01 01 02
ORDER 0E : 02 03 09 02 01 02 02 03
ORDER 0F : 03 03 09 02 01 03 03 03
ORDER 10 : 02 03 09 02 01 02 02 03
ORDER 11 : 03 03 09 02 01 03 03 03
ORDER 12 : 04 03 09 02 01 04 04 03
ORDER 13 : 05 03 09 02 01 05 05 03
ORDER 14 : 04 03 09 02 01 04 04 03
ORDER 15 : 05 03 09 02 01 05 05 03
ORDER 16 : 02 03 09 02 01 02 02 04
ORDER 17 : 03 03 09 02 01 03 03 04
ORDER 18 : 02 03 09 02 01 02 02 04
ORDER 19 : 03 03 09 02 01 03 03 04
ORDER 1A : 04 03 09 02 01 04 04 05
ORDER 1B : 05 03 09 02 01 05 05 05
ORDER 1C : 04 03 09 02 01 04 04 05
ORDER 1D : 05 03 09 02 01 05 05 05
ORDER 1E : 06 04 0A 02 01 06 06 06
ORDER 1F : 07 04 0A 02 01 04 04 06
ORDER 20 : 08 05 0B 02 01 07 07 07
ORDER 21 : 09 06 0C 02 01 08 08 08
ORDER 22 : 08 05 0B 02 01 07 07 07
ORDER 23 : 09 06 0C 02 01 08 08 08
ORDER 24 : 0A 07 0D 7F 01 09 09 09
ORDER 25 : 0B 07 0D 7F 01 0A 0A 09
ORDER 26 : 0B 07 0D 7F 01 0B 0B 09
ORDER 27 : 0B 07 0D 7F 01 0C 0C 09
ORDER 28 : 0C 03 0E 7F 01 05 05 03
ORDER 29 : 7F 03 09 02 01 0D 0D 03
ORDER 2A : 0D 08 0F 02 02 0E 0E 0A
ORDER 2B : 0E 08 0F 02 02 0F 0F 0A
ORDER 2C : 0F 08 0F 02 02 0E 0E 0A
ORDER 2D : 10 08 0F 02 02 0F 0F 0A
ORDER 2E : 11 08 0F 02 02 10 10 0A
ORDER 2F : 12 08 0F 02 02 11 11 0A
ORDER 30 : 13 08 0F 02 02 10 10 0A
ORDER 31 : 14 08 0F 02 02 11 11 0A
ORDER 32 : 15 08 0F 02 02 0E 0E 0B
ORDER 33 : 15 08 0F 02 02 0F 0F 0B
ORDER 34 : 15 08 0F 02 02 0E 0E 0B
ORDER 35 : 15 08 0F 02 02 0F 0F 0B
ORDER 36 : 15 08 0F 02 02 12 12 0B
ORDER 37 : 15 08 0F 02 02 13 13 0B
ORDER 38 : 16 09 0F 02 02 11 11 0C
ORDER 39 : 17 0A 10 03 02 7F 7F 0D

PATTERN 00
ROW 00 : A#3 02 . P81 : A#2 03 3 V01 : A#1 03 . ... : D-# 06 . ... : ... .. . F09 : C#3 04 3 V02 : F-3 04 3 V02 : ... .. . ...
ROW 01 : F-3 02 . ... : ... .. 2 S04 : ... .. . S04 : D-# 06 . ... : ... .. . ... : ... .. 2 S04 : ... .. 2 S04 : ... .. . ...
ROW 02 : A#2 02 . ... : A#2 03 3 ... : C#2 03 . ... : D-# 07 . ... : ... .. . F0A : C#3 04 3 ... : F-3 04 3 ... : ... .. . ...
ROW 03 : A#3 02 . ... : ... .. 2 ... : ... .. . S04 : D-# 06 . ... : ... .. . F09 : ... .. 2 ... : ... .. 2 ... : ... .. . ...
ROW 04 : F-3 02 . ... : ... .. 1 ... : D#2 03 . S07 : D-# 06 . ... : ... .. . ... : ... .. 1 ... : ... .. 1 ... : ... .. . ...
ROW 05 : A#2 02 . ... : ... .. . S05 : F-2 03 . S08 : D-# 07 . ... : ... .. . F0A : ... .. . S05 : ... .. . S05 : ... .. . ...
ROW 06 : A#3 02 . ... : A#2 03 3 ... : F#2 03 . ... : D-# 06 . ... : ... .. . F09 : C#3 04 3 ... : F#3 04 3 ... : ... .. . ...
ROW 07 : F#3 02 . ... : ... .. 2 S04 : ... .. . ... : D-# 06 . ... : ... .. . ... : ... .. 2 S04 : ... .. 2 S04 : ... .. . ...
ROW 08 : A#2 02 . ... : A#2 03 3 ... : --- .. . ... : D-# 07 . ... : ... .. . F0A : C#3 04 3 ... : F#3 04 3 ... : ... .. . ...
ROW 09 : A#3 02 . ... : ... .. 2 ... : ... .. . ... : D-# 06 . ... : ... .. . F09 : ... .. 2 ... : ... .. 2 ... : ... .. . ...
ROW 0A : F#3 02 . ... : ... .. 1 ... : ... .. . ... : D-# 06 . ... : ... .. . ... : ... .. 1 ... : ... .. 1 ... : ... .. . ...
ROW 0B : A#2 02 . ... : ... .. . S05 : ... .. . ... : D-# 07 . ... : ... .. . F0A : ... .. . S05 : ... .. . S05 : ... .. . ...
ROW 0C : A#3 02 . ... : A#2 03 3 ... : ... .. . ... : D-# 06 . ... : ... .. . F09 : D#3 04 3 ... : G#3 04 3 ... : ... .. . ...
ROW 0D : G#3 02 . ... : ... .. 2 S04 : ... .. . ... : D-# 06 . ... : ... .. . ... : ... .. 2 S04 : ... .. 2 S04 : ... .. . ...
ROW 0E : A#2 02 . ... : A#2 03 3 ... : ... .. . ... : D-# 07 . ... : ... .. . F0A : D#3 04 3 ... : G#3 04 3 ... : ... .. . ...
ROW 0F : A#3 02 . ... : ... .. 2 ... : ... .. . ... : D-# 06 . ... : ... .. . F09 : ... .. 2 ... : ... .. 2 ... : ... .. . ...
ROW 10 : G#3 02 . ... : ... .. 1 ... : ... .. . ... : D-# 06 . ... : ... .. . ... : ... .. 1 ... : ... .. 1 ... : ... .. . ...
ROW 11 : A#2 02 . ... : ... .. . S05 : ... .. . ... : D-# 07 . ... : ... .. . F0A : ... .. . S05 : ... .. . S05 : ... .. . ...
ROW 12 : A#3 02 . ... : A#2 03 3 ... : ... .. . ... : D-# 06 . ... : ... .. . F09 : D#3 04 3 ... : G-3 04 3 ... : A#3 01 1 059
ROW 13 : D#3 02 . ... : ... .. 2 S04 : D#2 03 . S07 : D-# 06 . ... : ... .. . ... : ... .. 2 S04 : ... .. 2 S04 : ... .. . ...
ROW 14 : A#2 02 . ... : A#2 03 3 ... : D#2 03 . S08 : D-# 07 . ... : ... .. . F0A : D#3 04 3 ... : G-3 04 3 ... : ... .. 2 ...
ROW 15 : A#3 02 . ... : ... .. 2 ... : D#2 03 . S07 : D-# 06 . ... : ... .. . F09 : ... .. 2 ... : ... .. 2 ... : ... .. . ...
ROW 16 : D#3 02 . ... : ... .. 1 ... : C#2 03 . S07 : D-# 06 . ... : ... .. . ... : ... .. 1 ... : ... .. 1 ... : ... .. 3 ...
ROW 17 : A#2 02 . D00 : ... .. . S05 : C-2 03 . S08 : D-# 07 . ... : ... .. . F0A : ... .. . S05 : ... .. . S05 : ... .. . ...
ROW 18 : ... .. . ... : ... .. . ... : ... .. . ... : ... .. . ... : ... .. . ... : ... .. . ... : ... .. . ... : ... .. . ...
ROW 19 : ... .. . ... : ... .. . ... : ... .. . ... : ... .. . ... : ... .. . ... : ... .. . ... : ... .. . ... : ... .. . ...
ROW 1A : ... .. . ... : ... .. . ... : ... .. . ... : ... .. . ... : ... .. . ... : ... .. . ... : ... .. . ... : ... .. . ...
ROW 1B : ... .. . ... : ... .. . ... : ... .. . ... : ... .. . ... : ... .. . ... : ... .. . ... : ... .. . ... : ... .. . ...
ROW 1C : ... .. . ... : ... .. . ... : ... .. . ... : ... .. . ... : ... .. . ... : ... .. . ... : ... .. . ... : ... .. . ...
ROW 1D : ... .. . ... : ... .. . ... : ... .. . ... : ... .. . ... : ... .. . ... : ... .. . ... : ... .. . ... : ... .. . ...
ROW 1E : ... .. . ... : ... .. . ... : ... .. . ... : ... .. . ... : ... .. . ... : ... .. . ... : ... .. . ... : ... .. . ...
ROW 1F : ... .. . ... : ... .. . ... : ... .. . ... : ... .. . ... : ... .. . ... : ... .. . ... : ... .. . ... : ... .. . ...
ROW 20 : ... .. . ... : ... .. . ... : ... .. . ... : ... .. . ... : ... .. . ... : ... .. . ... : ... .. . ... : ... .. . ...
ROW 21 : ... .. . ... : ... .. . ... : ... .. . ... : ... .. . ... : ... .. . ... : ... .. . ... : ... .. . ... : ... .. . ...
ROW 22 : ... .. . ... : ... .. . ... : ... .. . ... : ... .. . ... : ... .. . ... : ... .. . ... : ... .. . ... : ... .. . ...
ROW 23 : ... .. . ... : ... .. . ... : ... .. . ... : ... .. . ... : ... .. . ... : ... .. . ... : ... .. . ... : ... .. . ...
ROW 24 : ... .. . ... : ... .. . ... : ... .. . ... : ... .. . ... : ... .. . ... : ... .. . ... : ... .. . ... : ... .. . ...
ROW 25 : ... .. . ... : ... .. . ... : ... .. . ... : ... .. . ... : ... .. . ... : ... .. . ... : ... .. . ... : ... .. . ...
ROW 26 : ... .. . ... : ... .. . ... : ... .. . ... : ... .. . ... : ... .. . ... : ... .. . ... : ... .. . ... : ... .. . ...
ROW 27 : ... .. . ... : ... .. . ... : ... .. . ... : ... .. . ... : ... .. . ... : ... .. . ... : ... .. . ... : ... .. . ...
ROW 28 : ... .. . ... : ... .. . ... : ... .. . ... : ... .. . ... : ... .. . ... : ... .. . ... : ... .. . ... : ... .. . ...
ROW 29 : ... .. . ... : ... .. . ... : ... .. . ... : ... .. . ... : ... .. . ... : ... .. . ... : ... .. . ... : ... .. . ...
ROW 2A : ... .. . ... : ... .. . ... : ... .. . ... : ... .. . ... : ... .. . ... : ... .. . ... : ... .. . ... : ... .. . ...
ROW 2B : ... .. . ... : ... .. . ... : ... .. . ... : ... .. . ... : ... .. . ... : ... .. . ... : ... .. . ... : ... .. . ...
ROW 2C : ... .. . ... : ... .. . ... : ... .. . ... : ... .. . ... : ... .. . ... : ... .. . ... : ... .. . ... : ... .. . ...
ROW 2D : ... .. . ... : ... .. . ... : ... .. . ... : ... .. . ... : ... .. . ... : ... .. . ... : ... .. . ... : ... .. . ...
ROW 2E : ... .. . ... : ... .. . ... : ... .. . ... : ... .. . ... : ... .. . ... : ... .. . ... : ... .. . ... : ... .. . ...
ROW 2F : ... .. . ... : ... .. . ... : ... .. . ... : ... .. . ... : ... .. . ... : ... .. . ... : ... .. . ... : ... .. . ...

PATTERN 01
ROW 00 : A#3 02 . ... : A#1 05 F S07 : C#2 03 . S07 : D-# 06 . ... : ... .. . F05 : C#3 04 3 ... : F-3 04 3 ... : A#3 01 5 037
ROW 01 : F-3 02 . ... : A#1 05 . S07 : C-2 03 . S07 : D-# 06 . ... : ... .. . F04 : ... .. 2 S04 : ... .. 2 S04 : ... .. 4 ...
ROW 02 : A#2 02 . ... : A#1 05 . S08 : A#1 03 . ... : D-# 07 . ... : ... .. . F05 : C#3 04 3 ... : F-3 04 3 ... : ... .. 3 ...
ROW 03 : A#3 02 . ... : A#2 05 . S07 : --- .. . ... : D-# 06 . ... : ... .. . F04 : ... .. 2 ... : ... .. 2 ... : ... .. 2 ...
ROW 04 : F-3 02 . ... : A#1 05 . S07 : ... .. . ... : D-# 06 . ... : ... .. . F05 : ... .. 1 ... : ... .. 1 ... : ... .. 1 ...
ROW 05 : A#2 02 . ... : F-2 05 . ... : ... .. . ... : D-# 07 . ... : ... .. . ... : ... .. . S05 : ... .. . S05 : ... .. 0 ...
ROW 06 : A#3 02 . ... : F#2 05 . S07 : ... .. . ... : D-# 06 . ... : ... .. . F05 : C#3 04 3 ... : F-3 04 3 ... : ... .. 5 038
ROW 07 : F-3 02 . ... : F#1 05 . S07 : ... .. . ... : D-# 06 . ... : ... .. . F04 : ... .. 2 S04 : ... .. 2 S04 : ... .. 4 ...
ROW 08 : A#2 02 . ... : F#2 05 . S08 : ... .. . ... : D-# 07 . ... : ... .. . F05 : C#3 04 3 ... : F-3 04 3 ... : ... .. 3 ...
ROW 09 : A#3 02 . ... : F#1 05 . S07 : ... .. . ... : D-# 06 . ... : ... .. . F04 : ... .. 2 ... : ... .. 2 ... : ... .. 2 ...
ROW 0A : F-3 02 . ... : F#2 05 . S07 : ... .. . ... : D-# 06 . ... : ... .. . F05 : ... .. 1 ... : ... .. 1 ... : ... .. 1 ...
ROW 0B : A#2 02 . ... : F#1 05 . S08 : ... .. . ... : D-# 07 . ... : ... .. . ... : ... .. . S05 : ... .. . S05 : ... .. 0 ...
ROW 0C : A#3 02 . ... : G#1 05 . S07 : ... .. . ... : D-# 06 . ... : ... .. . F05 : C#3 04 3 ... : F-3 04 3 ... : ... .. 5 05A
ROW 0D : F-3 02 . ... : G#1 05 . S07 : ... .. . ... : D-# 06 . ... : ... .. . F04 : ... .. 2 S04 : ... .. 2 S04 : ... .. 4 ...
ROW 0E : A#2 02 . ... : G#1 05 . S08 : ... .. . ... : D-# 07 . ... : ... .. . F05 : C#3 04 3 ... : F-3 04 3 ... : ... .. 3 ...
ROW 0F : A#3 02 . ... : G#2 05 . S07 : ... .. . ... : D-# 06 . ... : ... .. . F04 : ... .. 2 ... : ... .. 2 ... : ... .. 2 ...
ROW 10 : F-3 02 . ... : G#1 05 . S07 : ... .. . ... : D-# 06 . ... : ... .. . F05 : ... .. 1 ... : ... .. 1 ... : ... .. 1 ...
ROW 11 : A#2 02 . ... : G#2 05 . S08 : ... .. . ... : D-# 07 . ... : ... .. . ... : ... .. . S05 : ... .. . S05 : ... .. 0 ...
ROW 12 : A#3 02 . ... : D#2 05 . S07 : ... .. . ... : D-# 06 . ... : ... .. . F05 : C#3 04 3 ... : F-3 04 3 ... : ... .. 5 059
ROW 13 : F-3 02 . ... : D#2 05 . S07 : ... .. . ... : D-# 07 . ... : ... .. . F04 : ... .. 2 S04 : ... .. 2 S04 : ... .. 4 ...
ROW 14 : A#2 02 . ... : D#1 05 . S08 : ... .. . ... : D-# 07 . ... : ... .. . F05 : C#3 04 3 ... : F-3 04 3 ... : ... .. 3 ...
ROW 15 : A#3 02 . ... : D#2 05 . S07 : ... .. . ... : 9-# 08 . ... : ... .. . F04 : ... .. 2 ... : ... .. 2 ... : ... .. 2 ...
ROW 16 : F-3 02 . ... : D#1 05 . S07 : ... .. . ... : 2-# 09 . ... : ... .. . F05 : ... .. 1 ... : ... .. 1 ... : ... .. 1 ...
ROW 17 : A#2 02 . D00 : D#2 05 . S08 : ... .. . ... : 9-# 08 . ... : ... .. . ... : ... .. . S05 : ... .. . S05 : ... .. 0 ...
ROW 18 : ... .. . ... : ... .. . ... : ... .. . ... : ... .. . ... : ... .. . F05 : ... .. . ... : ... .. . ... : ... .. . ...
ROW 19 : ... .. . ... : ... .. . ... : ... .. . ... : ... .. . ... : ... .. . F04 : ... .. . ... : ... .. . ... : ... .. . ...
ROW 1A : ... .. . ... : ... .. . ... : ... .. . ... : ... .. . ... : ... .. . F05 : ... .. . ... : ... .. . ... : ... .. . ...
ROW 1B : ... .. . ... : ... .. . ... : ... .. . ... : ... .. . ... : ... .. . F04 : ... .. . ... : ... .. . ... : ... .. . ...
ROW 1C : ... .. . ... : ... .. . ... : ... .. . ... : ... .. . ... : ... .. . F05 : ... .. . ... : ... .. . ... : ... .. . ...
ROW 1D : ... .. . ... : ... .. . ... : ... .. . ... : ... .. . ... : ... .. . ... : ... .. . ... : ... .. . ... : ... .. . ...
ROW 1E : ... .. . ... : ... .. . ... : ... .. . ... : ... .. . ... : ... .. . F05 : ... .. . ... : ... .. . ... : ... .. . ...
ROW 1F : ... .. . ... : ... .. . ... : ... .. . ... : ... .. . ... : ... .. . F04 : ... .. . ... : ... .. . ... : ... .. . ...
ROW 20 : ... .. . ... : ... .. . ... : ... .. . ... : ... .. . ... : ... .. . F05 : ... .. . ... : ... .. . ... : ... .. . ...
ROW 21 : ... .. . ... : ... .. . ... : ... .. . ... : ... .. . ... : ... .. . F04 : ... .. . ... : ... .. . ... : ... .. . ...
ROW 22 : ... .. . ... : ... .. . ... : ... .. . ... : ... .. . ... : ... .. . F05 : ... .. . ... : ... .. . ... : ... .. . ...
ROW 23 : ... .. . ... : ... .. . ... : ... .. . ... : ... .. . ... : ... .. . ... : ... .. . ... : ... .. . ... : ... .. . ...
ROW 24 : ... .. . ... : ... .. . ... : ... .. . ... : ... .. . ... : ... .. . F05 : ... .. . ... : ... .. . ... : ... .. . ...
ROW 25 : ... .. . ... : ... .. . ... : ... .. . ... : ... .. . ... : ... .. . F04 : ... .. . ... : ... .. . ... : ... .. . ...
ROW 26 : ... .. . ... : ... .. . ... : ... .. . ... : ... .. . ... : ... .. . F05 : ... .. . ... : ... .. . ... : ... .. . ...
ROW 27 : ... .. . ... : ... .. . ... : ... .. . ... : ... .. . ... : ... .. . F04 : ... .. . ... : ... .. . ... : ... .. . ...
ROW 28 : ... .. . ... : ... .. . ... : ... .. . ... : ... .. . ... : ... .. . F05 : ... .. . ... : ... .. . ... : ... .. . ...
ROW 29 : ... .. . ... : ... .. . ... : ... .. . ... : ... .. . ... : ... .. . ... : ... .. . ... : ... .. . ... : ... .. . ...
ROW 2A : ... .. . ... : ... .. . ... : ... .. . ... : ... .. . ... : ... .. . F05 : ... .. . ... : ... .. . ... : ... .. . ...
ROW 2B : ... .. . ... : ... .. . ... : ... .. . ... : ... .. . ... : ... .. . F04 : ... .. . ... : ... .. . ... : ... .. . ...
ROW 2C : ... .. . ... : ... .. . ... : ... .. . ... : ... .. . ... : ... .. . F05 : ... .. . ... : ... .. . ... : ... .. . ...
ROW 2D : ... .. . ... : ... .. . ... : ... .. . ... : ... .. . ... : ... .. . F04 : ... .. . ... : ... .. . ... : ... .. . ...
ROW 2E : ... .. . ... : ... .. . ... : ... .. . ... : ... .. . ... : ... .. . F05 : ... .. . ... : ... .. . ... : ... .. . ...
ROW 2F : ... .. . ... : ... .. . ... : ... .. . ... : ... .. . ... : ... .. . ... : ... .. . ... : ... .. . ... : ... .. . ...

PATTERN 02
ROW 00 : --- .. . V01 : A#1 05 . S07 : A#1 03 . ... : 2-# 09 . ... : ... .. . F05 : G#3 0C F Q22 : A#3 0C F P7D : A#3 01 5 037
ROW 01 : ... .. . ... : A#1 05 . S07 : ... .. . S04 : ... .. . ... : ... .. . F04 : ... .. . ... : ... .. . ... : ... .. 4 ...
ROW 02 : ... .. . ... : A#1 05 . S08 : C#2 03 . ... : D-# 06 . ... : ... .. . F05 : ... .. . ... : ... .. . ... : ... .. 3 ...
ROW 03 : A#3 00 2 ... : A#2 05 . S07 : ... .. . S04 : ... .. . ... : ... .. . F04 : ... .. . S02 : ... .. . S02 : ... .. 2 ...
ROW 04 : ... .. . ... : A#1 05 . S07 : D#2 03 . S07 : D-# 07 . ... : ... .. . F05 : A#3 0C . ... : A#3 0C . ... : ... .. 1 ...
ROW 05 : ... .. . ... : A#2 05 . S08 : F-2 03 . S08 : ... .. . ... : ... .. . ... : ... .. . ... : ... .. . ... : ... .. 0 ...
ROW 06 : ... .. . S02 : A#1 05 . S07 : F#2 03 . ... : 9-# 08 . ... : ... .. . F05 : C#4 0C . ... : C#4 0C . ... : G#3 01 5 047
ROW 07 : A#3 00 . ... : A#1 05 . S07 : ... .. . ... : ... .. . ... : ... .. . F04 : ... .. . ... : ... .. . ... : ... .. 3 ...
ROW 08 : ... .. . ... : A#1 05 . S08 : --- .. . ... : D-# 06 . ... : ... .. . F05 : A#3 0C . ... : A#3 0C . ... : A#3 01 5 037
ROW 09 : C#4 00 . ... : G#2 05 . S07 : ... .. . ... : ... .. . ... : ... .. . F04 : ... .. . ... : ... .. . ... : ... .. 4 ...
ROW 0A : ... .. . ... : A#1 05 . S07 : ... .. . ... : D-# 07 . ... : ... .. . F05 : D#4 0C . ... : D#4 0C . ... : ... .. 3 ...
ROW 0B : A#3 00 . ... : A#2 05 . S07 : ... .. . ... : ... .. . ... : ... .. . ... : ... .. . ... : ... .. . ... : ... .. 2 ...
ROW 0C : ... .. . ... : A#1 05 . S07 : ... .. . ... : 2-# 09 . ... : ... .. . F05 : E-4 0C . ... : E-4 0C . ... : A#3 01 5 037
ROW 0D : D#4 00 . ... : A#1 05 . S07 : ... .. . ... : ... .. . ... : ... .. . F04 : ... .. . ... : ... .. . ... : ... .. 4 ...
ROW 0E : ... .. . ... : A#1 05 . S08 : ... .. . ... : D-# 06 . ... : ... .. . F05 : ... .. . 485 : ... .. . 485 : ... .. 3 ...
ROW 0F : E-4 00 . ... : A#2 05 . S07 : ... .. . ... : ... .. . ... : ... .. . F04 : ... .. . ... : ... .. . ... : ... .. 2 ...
ROW 10 : ... .. . ... : A#1 05 . S07 : ... .. . ... : 2-# 09 . ... : ... .. . F05 : D#4 0C . 400 : D#4 0C . 400 : ... .. 1 ...
ROW 11 : ... .. . 485 : A#2 05 . S08 : ... .. . ... : ... .. . ... : ... .. . ... : ... .. . ... : ... .. . ... : ... .. 0 ...
ROW 12 : ... .. . ... : A#1 05 . S07 : G#2 03 . ... : 9-# 08 . ... : ... .. . F05 : ... .. . 485 : ... .. . 485 : G#3 01 5 047
ROW 13 : D#4 00 . 400 : A#1 05 . S07 : ... .. . S04 : ... .. . ... : ... .. . F04 : ... .. . ... : ... .. . ... : ... .. 3 ...
ROW 14 : ... .. . ... : A#1 05 . S08 : A#2 03 . ... : D-# 06 . ... : ... .. . F05 : C#4 0C . 400 : C#4 0C . 400 : A#3 01 5 037
ROW 15 : ... .. . 485 : G#2 05 . S07 : --- 03 . ... : ... .. . ... : ... .. . F04 : ... .. . ... : ... .. . ... : ... .. 4 ...
ROW 16 : ... .. . ... : A#1 05 . S07 : C-3 03 . ... : D-# 07 . ... : ... .. . F05 : A#3 0C . ... : A#3 0C . ... : ... .. 3 ...
ROW 17 : C#4 00 . 400 : A#2 05 . S08 : ... .. . R32 : ... .. . ... : ... .. . ... : ... .. . ... : ... .. . ... : C#4 01 5 049
ROW 18 : ... .. . ... : ... .. . ... : ... .. . ... : 2-# 09 . ... : ... .. . F05 : C-4 0C . ... : C-4 0C . ... : ... .. . ...
ROW 19 : A#3 00 . ... : ... .. . ... : ... .. . ... : ... .. . ... : ... .. . F04 : ... .. . S02 : ... .. . S02 : ... .. . ...
ROW 1A : ... .. . ... : ... .. . ... : ... .. . ... : D-# 06 . ... : ... .. . F05 : C-4 0C . ... : C-4 0C . ... : ... .. . ...
ROW 1B : C-4 00 . ... : ... .. . ... : ... .. . ... : ... .. . ... : ... .. . F04 : ... .. . S02 : ... .. . S02 : ... .. . ...
ROW 1C : ... .. . S02 : ... .. . ... : ... .. . ... : D-# 07 . ... : ... .. . F05 : C-4 0C . ... : C-4 0C . ... : ... .. . ...
ROW 1D : C-4 00 . ... : ... .. . ... : ... .. . ... : ... .. . ... : ... .. . ... : ... .. . S02 : ... .. . S02 : ... .. . ...
ROW 1E : ... .. . S02 : ... .. . ... : ... .. . ... : 9-# 08 . ... : ... .. . F05 : C-4 0C . ... : C-4 0C . ... : ... .. . ...
ROW 1F : C-4 00 . ... : ... .. . ... : ... .. . ... : ... .. . ... : ... .. . F04 : ... .. . 4A6 : ... .. . 4A6 : ... .. . ...
ROW 20 : ... .. . S02 : ... .. . ... : ... .. . ... : D-# 06 . ... : ... .. . F05 : A#3 0C . 400 : A#3 0C . 400 : ... .. . ...
ROW 21 : C-4 00 . ... : ... .. . ... : ... .. . ... : ... .. . ... : ... .. . F04 : ... .. . ... : ... .. . ... : ... .. . ...
ROW 22 : ... .. . 4A6 : ... .. . ... : ... .. . ... : D-# 07 . ... : ... .. . F05 : G#3 0C . ... : G#3 0C . ... : ... .. . ...
ROW 23 : A#3 00 . 400 : ... .. . ... : ... .. . ... : ... .. . ... : ... .. . ... : ... .. . ... : ... .. . ... : ... .. . ...
ROW 24 : ... .. . ... : ... .. . ... : ... .. . ... : 2-# 09 . ... : ... .. . F05 : A#3 0C . ... : A#3 0C . ... : ... .. . ...
ROW 25 : G#3 00 . ... : ... .. . ... : ... .. . ... : ... .. . ... : ... .. . F04 : ... .. . ... : ... .. . ... : ... .. . ...
ROW 26 : ... .. . ... : ... .. . ... : ... .. . ... : D-# 06 . ... : ... .. . F05 : ... .. . 487 : ... .. . 487 : ... .. . ...
ROW 27 : A#3 00 . ... : ... .. . ... : ... .. . ... : ... .. . ... : ... .. . F04 : ... .. . ... : ... .. . ... : ... .. . ...
ROW 28 : ... .. . ... : ... .. . ... : ... .. . ... : 2-# 09 . ... : ... .. . F05 : ... .. . 400 : ... .. . 400 : ... .. . ...
ROW 29 : ... .. . 487 : ... .. . ... : ... .. . ... : ... .. . ... : ... .. . ... : F#3 0C . GFF : F#3 0C . GFF : ... .. . ...
ROW 2A : ... .. . ... : ... .. . ... : ... .. . ... : 9-# 08 . ... : ... .. . F05 : G-3 0C . G02 : G-3 0C . G02 : ... .. . ...
ROW 2B : ... .. . 400 : ... .. . ... : ... .. . ... : ... .. . ... : ... .. . F04 : ... .. . ... : ... .. . ... : ... .. . ...
ROW 2C : F#3 00 . GFF : ... .. . ... : ... .. . ... : 2-# 09 . ... : ... .. . F05 : F-3 0C . ... : F-3 0C . ... : ... .. . ...
ROW 2D : G-3 00 . G02 : ... .. . ... : ... .. . ... : ... .. . ... : ... .. . F04 : ... .. . S02 : ... .. . S02 : ... .. . ...
ROW 2E : ... .. . ... : ... .. . ... : ... .. . ... : 9-# 08 . ... : ... .. . F05 : D#3 0C . ... : D#3 0C . ... : ... .. . ...
ROW 2F : F-3 00 . ... : ... .. . ... : ... .. . ... : ... .. . ... : ... .. . ... : ... .. . S02 : ... .. . S02 : ... .. . ...

PATTERN 03
ROW 00 : ... .. . S02 : A#1 05 . ... : A#2 03 . ... : 2-# 09 E ... : ... .. . ... : F-3 0C . ... : F-3 0C . ... : A#3 01 5 037
ROW 01 : D#3 00 . ... : ... .. . S02 : ... .. . ... : ... .. . ... : ... .. . ... : ... .. . ... : ... .. . ... : ... .. 4 ...
ROW 02 : ... .. . S02 : A#1 05 . ... : --- .. . ... : D-# 06 . ... : ... .. . ... : ... .. . 486 : ... .. . 486 : ... .. . ...
ROW 03 : F-3 00 . ... : ... .. . S02 : ... .. . ... : ... .. . ... : ... .. . ... : ... .. . ... : ... .. . ... : ... .. 3 ...
ROW 04 : ... .. . ... : A#1 05 . ... : ... .. . ... : D-# 07 . ... : ... .. . ... : ... .. 7 ... : ... .. 7 ... : ... .. . ...
ROW 05 : ... .. . 486 : ... .. . S03 : ... .. . ... : ... .. . ... : ... .. . ... : ... .. . ... : ... .. . ... : ... .. . ...
ROW 06 : ... .. . ... : A#2 05 . ... : ... .. . ... : 9-# 08 D ... : ... .. . ... : ... .. . ... : ... .. . ... : ... .. 2 ...
ROW 07 : ... .. 1 ... : ... .. . S02 : ... .. . ... : ... .. . ... : ... .. . ... : --- .. . 400 : --- .. . 400 : ... .. . ...
ROW 08 : ... .. . ... : A#1 05 . ... : ... .. . ... : D-# 06 . ... : ... .. . ... : ... .. . ... : ... .. . ... : ... .. . ...
ROW 09 : ... .. . ... : ... .. . S02 : ... .. . ... : ... .. . ... : ... .. . ... : ... .. . ... : ... .. . ... : ... .. 1 ...
ROW 0A : --- .. . 400 : F-2 05 . ... : ... .. . ... : D-# 07 . ... : ... .. . ... : ... .. . ... : ... .. . ... : ... .. . ...
ROW 0B : ... .. . ... : ... .. . ... : ... .. . ... : ... .. . ... : ... .. . ... : ... .. . ... : ... .. . ... : ... .. . ...
ROW 0C : ... .. . ... : F#2 05 . ... : ... .. . ... : 2-# 09 C ... : ... .. . ... : ... .. . ... : ... .. . ... : ... .. 5 038
ROW 0D : ... .. . ... : ... .. . S02 : ... .. . ... : ... .. . ... : ... .. . ... : ... .. . ... : ... .. . ... : ... .. 4 ...
ROW 0E : ... .. . ... : F#1 05 . ... : ... .. . ... : D-# 06 . ... : ... .. . ... : ... .. . ... : ... .. . ... : ... .. . ...
ROW 0F : ... .. . ... : ... .. . S02 : ... .. . ... : ... .. . ... : ... .. . ... : ... .. . ... : ... .. . ... : ... .. 3 ...
ROW 10 : ... .. . ... : F#2 05 . ... : ... .. . ... : 2-# 09 . ... : ... .. . ... : ... .. . ... : ... .. . ... : ... .. . ...
ROW 11 : ... .. . ... : ... .. . S03 : ... .. . ... : ... .. . ... : ... .. . ... : ... .. . ... : ... .. . ... : ... .. . ...
ROW 12 : ... .. . ... : F#1 05 . ... : ... .. . ... : 9-# 08 B ... : ... .. . ... : ... .. . ... : ... .. . ... : ... .. 2 ...
ROW 13 : ... .. . ... : ... .. . S02 : ... .. . ... : ... .. . ... : ... .. . ... : ... .. . ... : ... .. . ... : ... .. . ...
ROW 14 : ... .. . ... : F#2 05 . ... : ... .. . ... : D-# 06 . ... : ... .. . ... : ... .. . ... : ... .. . ... : ... .. . ...
ROW 15 : ... .. . ... : ... .. . S02 : ... .. . ... : ... .. . ... : ... .. . ... : ... .. . ... : ... .. . ... : ... .. 1 ...
ROW 16 : ... .. . ... : F#1 05 . ... : ... .. . ... : D-# 07 . ... : ... .. . ... : ... .. . ... : ... .. . ... : ... .. . ...
ROW 17 : ... .. . ... : ... .. . S03 : ... .. . ... : ... .. . ... : ... .. . ... : ... .. . ... : ... .. . ... : ... .. . ...
ROW 18 : ... .. . ... : G#1 05 . ... : ... .. . ... : 2-# 09 A ... : ... .. . ... : ... .. . ... : ... .. . ... : ... .. 5 05A
ROW 19 : ... .. . ... : ... .. . S02 : ... .. . ... : ... .. . ... : ... .. . ... : ... .. . ... : ... .. . ... : ... .. 4 ...
ROW 1A : ... .. . ... : G#1 05 . ... : ... .. . ... : D-# 06 . ... : ... .. . ... : ... .. . ... : ... .. . ... : ... .. . ...
ROW 1B : ... .. . ... : ... .. . S02 : ... .. . ... : ... .. . ... : ... .. . ... : ... .. . ... : ... .. . ... : ... .. 3 ...
ROW 1C : ... .. . ... : G#1 05 . ... : ... .. . ... : D-# 07 9 ... : ... .. . ... : ... .. . ... : ... .. . ... : ... .. . ...
ROW 1D : ... .. . ... : ... .. . S03 : ... .. . ... : ... .. . ... : ... .. . ... : ... .. . ... : ... .. . ... : ... .. . ...
ROW 1E : ... .. . ... : G#2 05 . ... : ... .. . ... : 9-# 08 . ... : ... .. . ... : ... .. . ... : ... .. . ... : ... .. 2 ...
ROW 1F : ... .. . ... : ... .. . S02 : ... .. . ... : ... .. . ... : ... .. . ... : ... .. . ... : ... .. . ... : ... .. . ...
ROW 20 : ... .. . ... : G#1 05 . ... : ... .. . ... : D-# 06 8 ... : ... .. . ... : ... .. . ... : ... .. . ... : ... .. . ...
ROW 21 : ... .. . ... : ... .. . S02 : ... .. . ... : ... .. . ... : ... .. . ... : ... .. . ... : ... .. . ... : ... .. 1 ...
ROW 22 : ... .. . ... : G#2 05 . ... : ... .. . ... : D-# 07 . ... : ... .. . ... : ... .. . ... : ... .. . ... : ... .. . ...
ROW 23 : ... .. . ... : ... .. . S03 : ... .. . ... : ... .. 7 ... : ... .. . ... : ... .. . ... : ... .. . ... : ... .. . ...
ROW 24 : ... .. . ... : D#2 05 . ... : ... .. . ... : 2-# 09 . ... : ... .. . ... : ... .. . ... : ... .. . ... : ... .. 5 059
ROW 25 : ... .. . ... : ... .. . S02 : ... .. . ... : ... .. 6 ... : ... .. . ... : ... .. . ... : ... .. . ... : ... .. 4 ...
ROW 26 : ... .. . ... : D#2 05 . ... : ... .. . ... : D-# 06 . ... : ... .. . ... : ... .. . ... : ... .. . ... : ... .. . ...
ROW 27 : ... .. . ... : ... .. . S02 : ... .. . ... : ... .. 5 ... : ... .. . ... : ... .. . ... : ... .. . ... : ... .. 3 ...
ROW 28 : ... .. . ... : D#1 05 . ... : ... .. . ... : 2-# 09 . ... : ... .. . ... : ... .. . ... : ... .. . ... : ... .. . ...
ROW 29 : ... .. . ... : ... .. . S03 : ... .. . ... : ... .. 4 ... : ... .. . ... : ... .. . ... : ... .. . ... : ... .. . ...
ROW 2A : ... .. . ... : D#2 05 . ... : ... .. . ... : 9-# 08 . ... : ... .. . ... : ... .. . ... : ... .. . ... : ... .. 2 ...
ROW 2B : ... .. . ... : ... .. . S02 : ... .. . ... : ... .. 3 ... : ... .. . ... : ... .. . ... : ... .. . ... : ... .. . ...
ROW 2C : ... .. . ... : D#1 05 . ... : ... .. . ... : 2-# 09 . ... : ... .. . ... : ... .. . ... : ... .. . ... : ... .. . ...
ROW 2D : ... .. . ... : ... .. . S02 : ... .. . ... : ... .. 2 ... : ... .. . ... : ... .. . ... : ... .. . ... : ... .. 1 ...
ROW 2E : ... .. . ... : D#2 05 . ... : ... .. . ... : 9-# 08 . ... : ... .. . ... : ... .. . ... : ... .. . ... : ... .. . ...
ROW 2F : ... .. . ... : ... .. . S03 : ... .. . ... : ... .. 1 ... : ... .. . ... : ... .. . ... : ... .. . ... : ... .. . ...

PATTERN 04
ROW 00 : ... .. . ... : A#1 05 . ... : A#2 03 . S07 : ... .. . ... : ... .. . ... : G#4 0C F Q12 : G#4 0C F Q12 : A#3 01 5 037
ROW 01 : ... .. . ... : ... .. . S02 : A#2 03 . S07 : ... .. . ... : ... .. . ... : ... .. . ... : ... .. . ... : ... .. 4 ...
ROW 02 : ... .. . ... : A#1 05 . ... : A#2 03 . S08 : ... .. . ... : ... .. . ... : ... .. . ... : ... .. . ... : ... .. 3 ...
ROW 03 : G#4 00 2 Q12 : ... .. . S02 : A#2 03 . S07 : ... .. . ... : ... .. . ... : ... .. . S02 : ... .. . S02 : ... .. 1 ...
ROW 04 : ... .. . ... : A#1 05 . ... : A#2 03 . S07 : ... .. . ... : ... .. . ... : A#4 0C . ... : A#4 0C . ... : ... .. 5 ...
ROW 05 : ... .. . ... : ... .. . S03 : F-2 03 . S08 : ... .. . ... : ... .. . ... : --- .. . ... : --- .. . ... : ... .. 4 ...
ROW 06 : ... .. . S02 : A#2 05 . ... : F#2 03 . ... : ... .. . ... : ... .. . ... : A#4 0C . ... : A#4 0C . ... : ... .. 3 ...
ROW 07 : A#4 00 . ... : ... .. . S02 : ... .. . ... : ... .. . ... : ... .. . ... : ... .. . 4A4 : ... .. . 4A4 : ... .. 1 ...
ROW 08 : --- .. . ... : A#1 05 . ... : --- .. . ... : ... .. . ... : ... .. . ... : G#4 0C . 400 : G#4 0C . 400 : ... .. 5 ...
ROW 09 : A#4 00 . ... : ... .. . S02 : ... .. . ... : ... .. . ... : ... .. . ... : ... .. . ... : ... .. . ... : ... .. 4 ...
ROW 0A : ... .. . 4A4 : A#2 05 . ... : ... .. . ... : ... .. . ... : ... .. . ... : F-4 0C . ... : F-4 0C . ... : ... .. 3 ...
ROW 0B : G#4 00 . 400 : ... .. . S03 : ... .. . ... : ... .. . ... : ... .. . ... : ... .. . ... : ... .. . ... : ... .. 1 ...
ROW 0C : ... .. . ... : G#1 05 . ... : ... .. . ... : ... .. . ... : ... .. . ... : E-4 0C . ... : E-4 0C . ... : ... .. 5 038
ROW 0D : F-4 00 . ... : ... .. . S02 : ... .. . ... : ... .. . ... : ... .. . ... : ... .. . 485 : ... .. . 485 : ... .. 4 ...
ROW 0E : ... .. . ... : G#1 05 . ... : ... .. . ... : ... .. . ... : ... .. . ... : ... .. . 486 : ... .. . 486 : ... .. 3 ...
ROW 0F : E-4 00 . ... : ... .. . S02 : ... .. . ... : ... .. . ... : ... .. . ... : ... .. 7 ... : ... .. 7 ... : ... .. 1 ...
ROW 10 : ... .. . 485 : G#1 05 . ... : ... .. . ... : ... .. . ... : ... .. . ... : D#4 0C F 400 : D#4 0C F 400 : ... .. 5 ...
ROW 11 : ... .. . 486 : ... .. . S03 : ... .. . ... : ... .. . ... : ... .. . ... : ... .. . ... : ... .. . ... : ... .. 4 ...
ROW 12 : ... .. 1 ... : G#2 05 . ... : ... .. . ... : ... .. . ... : ... .. . ... : ... .. . 485 : ... .. . 485 : ... .. 3 ...
ROW 13 : D#4 00 2 400 : ... .. . S02 : D#2 03 . S07 : ... .. . ... : ... .. . ... : ... .. . ... : ... .. . ... : ... .. 1 ...
ROW 14 : ... .. . ... : G#1 05 . ... : D#2 03 . S08 : ... .. . ... : ... .. . ... : C#4 0C . 400 : C#4 0C . 400 : ... .. 5 ...
ROW 15 : ... .. . 485 : ... .. . S02 : D#2 03 . S07 : ... .. . ... : ... .. . ... : ... .. . ... : ... .. . ... : ... .. 4 ...
ROW 16 : ... .. . ... : G#2 05 . ... : C#2 03 . S07 : ... .. . ... : ... .. . ... : A#3 0C . ... : A#3 0C . ... : ... .. 3 ...
ROW 17 : C#4 00 . 400 : ... .. . S03 : C-2 03 . S08 : ... .. . ... : ... .. . ... : A-4 0C . GFF : A-4 0C . GFF : ... .. 1 ...
ROW 18 : ... .. . ... : G-1 05 . ... : ... .. . ... : ... .. . ... : ... .. . ... : A#4 0C . G02 : A#4 0C . G02 : ... .. 5 05A
ROW 19 : A#3 00 . ... : ... .. . S02 : ... .. . ... : ... .. . ... : ... .. . ... : ... .. . S02 : ... .. . S02 : ... .. 4 ...
ROW 1A : A-4 00 . GFF : G-1 05 . ... : ... .. . ... : ... .. . ... : ... .. . ... : A#4 0C . ... : A#4 0C . ... : ... .. 3 ...
ROW 1B : A#4 00 . G02 : ... .. . S02 : ... .. . ... : ... .. . ... : ... .. . ... : ... .. . S02 : ... .. . S02 : ... .. 1 ...
ROW 1C : ... .. . S02 : G-1 05 . ... : ... .. . ... : ... .. . ... : ... .. . ... : A#4 0C . ... : A#4 0C . ... : ... .. 5 ...
ROW 1D : A#4 00 . ... : ... .. . S03 : ... .. . ... : ... .. . ... : ... .. . ... : ... .. . S02 : ... .. . S02 : ... .. 4 ...
ROW 1E : ... .. . S02 : G-2 05 . ... : ... .. . ... : ... .. . ... : ... .. . ... : A#4 0C . ... : A#4 0C . ... : ... .. 3 ...
ROW 1F : A#4 00 . ... : ... .. . S02 : ... .. . ... : ... .. . ... : ... .. . ... : ... .. . 4A4 : ... .. . 4A4 : ... .. 1 ...
ROW 20 : ... .. . S02 : G-1 05 . ... : ... .. . ... : ... .. . ... : ... .. . ... : G#4 0C . 400 : G#4 0C . 400 : ... .. 5 ...
ROW 21 : A#4 00 . ... : ... .. . S02 : ... .. . ... : ... .. . ... : ... .. . ... : ... .. . ... : ... .. . ... : ... .. 4 ...
ROW 22 : ... .. . 4A4 : G-2 05 . ... : ... .. . ... : ... .. . ... : ... .. . ... : F-4 0C . ... : F-4 0C . ... : ... .. 3 ...
ROW 23 : G#4 00 . 400 : ... .. . S03 : ... .. . ... : ... .. . ... : ... .. . ... : ... .. . ... : ... .. . ... : ... .. 1 ...
ROW 24 : ... .. . ... : F#1 05 . ... : ... .. . ... : ... .. . ... : ... .. . ... : E-4 0C . ... : E-4 0C . ... : ... .. 5 059
ROW 25 : F-4 00 . ... : ... .. . S02 : ... .. . ... : ... .. . ... : ... .. . ... : ... .. . 485 : ... .. . 485 : ... .. 4 ...
ROW 26 : ... .. . ... : F#1 05 . ... : ... .. . ... : ... .. . ... : ... .. . ... : ... .. . 486 : ... .. . 486 : ... .. 3 ...
ROW 27 : E-4 00 . ... : ... .. . S02 : ... .. . ... : ... .. . ... : ... .. . ... : ... .. 7 ... : ... .. 7 ... : ... .. 1 ...
ROW 28 : ... .. . 485 : F#1 05 . ... : ... .. . ... : ... .. . ... : ... .. . ... : D#4 0C F 400 : D#4 0C F 400 : ... .. 5 ...
ROW 29 : ... .. . 486 : ... .. . S03 : ... .. . ... : ... .. . ... : ... .. . ... : ... .. . ... : ... .. . ... : ... .. 4 ...
ROW 2A : ... .. 1 ... : F#2 05 . ... : ... .. . ... : ... .. . ... : ... .. . ... : ... .. . 485 : ... .. . 485 : ... .. 3 ...
ROW 2B : D#4 00 2 400 : ... .. . S02 : ... .. . ... : ... .. . ... : ... .. . ... : ... .. . ... : ... .. . ... : ... .. 1 ...
ROW 2C : ... .. . ... : F#1 05 . ... : ... .. . ... : ... .. . ... : ... .. . ... : C#4 0C . 400 : C#4 0C . 400 : ... .. 5 ...
ROW 2D : ... .. . 485 : ... .. . S02 : ... .. . ... : ... .. . ... : ... .. . ... : ... .. . ... : ... .. . ... : ... .. 4 ...
ROW 2E : ... .. . ... : F#2 05 . ... : ... .. . ... : ... .. . ... : ... .. . ... : A#3 0C . ... : A#3 0C . ... : ... .. 3 ...
ROW 2F : C#4 00 . 400 : ... .. . S03 : ... .. . ... : ... .. . ... : ... .. . ... : ... .. . ... : ... .. . ... : ... .. 1 ...

PATTERN 05
ROW 00 : ... .. . ... : A#1 05 . ... : A#2 03 . S07 : ... .. . ... : ... .. . ... : C#4 0C . ... : C#4 0C . ... : A#3 01 5 037
ROW 01 : A#3 00 . ... : ... .. . S02 : A#2 03 . S07 : ... .. . ... : ... .. . ... : ... .. . ... : ... .. . ... : ... .. 4 ...
ROW 02 : ... .. . ... : A#1 05 . ... : A#2 03 . S08 : ... .. . ... : ... .. . ... : C-4 0C . ... : C-4 0C . ... : ... .. . ...
ROW 03 : C#4 00 . ... : ... .. . S02 : A#2 03 . S07 : ... .. . ... : ... .. . ... : ... .. . ... : ... .. . ... : ... .. . ...
ROW 04 : ... .. . ... : A#1 05 . ... : A#2 03 . S07 : ... .. . ... : ... .. . ... : A#3 0C . ... : A#3 0C . ... : ... .. . ...
ROW 05 : C-4 00 . ... : ... .. . S03 : F-2 03 . S08 : ... .. . ... : ... .. . ... : ... .. . ... : ... .. . ... : ... .. . ...
ROW 06 : ... .. . ... : A#2 05 . ... : F#2 03 . ... : ... .. . ... : ... .. . ... : ... .. . 486 : ... .. . 486 : ... .. . ...
ROW 07 : A#3 00 . ... : ... .. . S02 : ... .. . ... : ... .. . ... : ... .. . ... : ... .. . ... : ... .. . ... : ... .. . ...
ROW 08 : ... .. . ... : A#1 05 . ... : --- .. . ... : ... .. . ... : ... .. . ... : ... .. 7 ... : ... .. 7 ... : ... .. . ...
ROW 09 : ... .. . 486 : ... .. . S02 : ... .. . ... : ... .. . ... : ... .. . ... : ... .. . ... : ... .. . ... : ... .. . ...
ROW 0A : ... .. . ... : C#3 05 . ... : ... .. . ... : ... .. . ... : ... .. . ... : ... .. . ... : ... .. . ... : ... .. . ...
ROW 0B : ... .. 1 ... : ... .. . S03 : ... .. . ... : ... .. . ... : ... .. . ... : --- .. . 400 : --- .. . 400 : ... .. . ...
ROW 0C : ... .. . ... : D#2 05 . ... : ... .. . ... : ... .. . ... : ... .. . ... : ... .. . ... : ... .. . ... : ... .. 5 038
ROW 0D : ... .. . ... : ... .. . S02 : ... .. . ... : ... .. . ... : ... .. . ... : ... .. . ... : ... .. . ... : ... .. 4 ...
ROW 0E : --- .. . 400 : D#2 05 . ... : ... .. . ... : ... .. . ... : ... .. . ... : ... .. . ... : ... .. . ... : ... .. . ...
ROW 0F : ... .. . ... : ... .. . S02 : ... .. . ... : ... .. . ... : ... .. . ... : ... .. . ... : ... .. . ... : ... .. . ...
ROW 10 : ... .. . ... : D#2 05 . ... : ... .. . ... : ... .. . ... : ... .. . ... : ... .. . ... : ... .. . ... : ... .. . ...
ROW 11 : ... .. . ... : ... .. . S03 : ... .. . ... : ... .. . ... : ... .. . ... : ... .. . ... : ... .. . ... : ... .. . ...
ROW 12 : ... .. . ... : D#3 05 . ... : G#2 03 . ... : ... .. . ... : ... .. . ... : ... .. . ... : ... .. . ... : ... .. . ...
ROW 13 : ... .. . ... : ... .. . S02 : ... .. . S04 : ... .. . ... : ... .. . ... : ... .. . ... : ... .. . ... : ... .. . ...
ROW 14 : ... .. . ... : D#2 05 . ... : A#2 03 . ... : ... .. . ... : ... .. . ... : ... .. . ... : ... .. . ... : ... .. . ...
ROW 15 : ... .. . ... : ... .. . S02 : --- 03 . ... : ... .. . ... : ... .. . ... : ... .. . ... : ... .. . ... : ... .. . ...
ROW 16 : ... .. . ... : D#3 05 . ... : C-3 03 . ... : ... .. . ... : ... .. . ... : ... .. . ... : ... .. . ... : ... .. . ...
ROW 17 : ... .. . ... : ... .. . S03 : ... .. . S05 : ... .. . ... : ... .. . ... : ... .. . ... : ... .. . ... : ... .. . ...
ROW 18 : ... .. . ... : G#1 05 . ... : ... .. . ... : ... .. . ... : ... .. . ... : ... .. . ... : ... .. . ... : ... .. 5 05A
ROW 19 : ... .. . ... : ... .. . S02 : ... .. . ... : ... .. . ... : ... .. . ... : ... .. . ... : ... .. . ... : ... .. 4 ...
ROW 1A : ... .. . ... : G#1 05 . ... : ... .. . ... : ... .. . ... : ... .. . ... : ... .. . ... : ... .. . ... : ... .. . ...
ROW 1B : ... .. . ... : ... .. . S02 : ... .. . ... : ... .. . ... : ... .. . ... : ... .. . ... : ... .. . ... : ... .. . ...
ROW 1C : ... .. . ... : G#1 05 . ... : ... .. . ... : ... .. . ... : ... .. . ... : ... .. . ... : ... .. . ... : ... .. . ...
ROW 1D : ... .. . ... : ... .. . S03 : ... .. . ... : ... .. . ... : ... .. . ... : ... .. . ... : ... .. . ... : ... .. . ...
ROW 1E : ... .. . ... : G#2 05 . ... : ... .. . ... : ... .. . ... : ... .. . ... : ... .. . ... : ... .. . ... : ... .. . ...
ROW 1F : ... .. . ... : ... .. . S02 : ... .. . ... : ... .. . ... : ... .. . ... : ... .. . ... : ... .. . ... : ... .. . ...
ROW 20 : ... .. . ... : G#1 05 . ... : ... .. . ... : ... .. . ... : ... .. . ... : ... .. . ... : ... .. . ... : ... .. . ...
ROW 21 : ... .. . ... : ... .. . S02 : ... .. . ... : ... .. . ... : ... .. . ... : ... .. . ... : ... .. . ... : ... .. . ...
ROW 22 : ... .. . ... : G#2 05 . ... : ... .. . ... : ... .. . ... : ... .. . ... : ... .. . ... : ... .. . ... : ... .. . ...
ROW 23 : ... .. . ... : ... .. . S03 : ... .. . ... : ... .. . ... : ... .. . ... : ... .. . ... : ... .. . ... : ... .. . ...
ROW 24 : ... .. . ... : C#2 05 . ... : ... .. . ... : ... .. . ... : ... .. . ... : ... .. . ... : ... .. . ... : ... .. 5 059
ROW 25 : ... .. . ... : ... .. . S02 : ... .. . ... : ... .. . ... : ... .. . ... : ... .. . ... : ... .. . ... : ... .. 4 ...
ROW 26 : ... .. . ... : C#2 05 . ... : ... .. . ... : ... .. . ... : ... .. . ... : ... .. . ... : ... .. . ... : ... .. . ...
ROW 27 : ... .. . ... : ... .. . S02 : ... .. . ... : ... .. . ... : ... .. . ... : ... .. . ... : ... .. . ... : ... .. . ...
ROW 28 : ... .. . ... : C#2 05 . ... : ... .. . ... : ... .. . ... : ... .. . ... : ... .. . ... : ... .. . ... : ... .. . ...
ROW 29 : ... .. . ... : ... .. . S03 : ... .. . ... : ... .. . ... : ... .. . ... : ... .. . ... : ... .. . ... : ... .. . ...
ROW 2A : ... .. . ... : C#3 05 . ... : ... .. . ... : ... .. . ... : ... .. . ... : ... .. . ... : ... .. . ... : ... .. . ...
ROW 2B : ... .. . ... : ... .. . S02 : ... .. . ... : ... .. . ... : ... .. . ... : ... .. . ... : ... .. . ... : ... .. . ...
ROW 2C : ... .. . ... : C#2 05 . ... : ... .. . ... : ... .. . ... : ... .. . ... : ... .. . ... : ... .. . ... : ... .. . ...
ROW 2D : ... .. . ... : ... .. . S02 : ... .. . ... : ... .. . ... : ... .. . ... : ... .. . ... : ... .. . ... : ... .. . ...
ROW 2E : ... .. . ... : C#3 05 . ... : ... .. . ... : ... .. . ... : ... .. . ... : ... .. . ... : ... .. . ... : ... .. . ...
ROW 2F : ... .. . ... : ... .. . S03 : ... .. . ... : ... .. . ... : ... .. . ... : ... .. . ... : ... .. . ... : ... .. . ...

PATTERN 06
ROW 00 : --- .. . ... : F#1 05 . ... : A#1 03 . S07 : ... .. . ... : ... .. . ... : G#3 0C F Q22 : G#3 0C F Q22 : A#3 01 5 037
ROW 01 : ... .. . ... : ... .. . S02 : A#1 03 . S07 : ... .. . ... : ... .. . ... : ... .. . ... : ... .. . ... : ... .. 4 ...
ROW 02 : ... .. . ... : F#1 05 . ... : A#1 03 . S08 : ... .. . ... : ... .. . ... : ... .. . ... : ... .. . ... : ... .. 3 ...
ROW 03 : G#3 00 2 Q22 : ... .. . S02 : A#2 03 . S07 : ... .. . ... : ... .. . ... : ... .. . S02 : ... .. . S02 : ... .. 1 ...
ROW 04 : ... .. . ... : F#1 05 . ... : A#1 03 . S07 : ... .. . ... : ... .. . ... : A#3 0C . ... : A#3 0C . ... : ... .. 5 ...
ROW 05 : ... .. . ... : ... .. . S03 : F-2 03 . ... : ... .. . ... : ... .. . ... : ... .. . ... : ... .. . ... : ... .. 4 ...
ROW 06 : ... .. . S02 : F#2 05 . ... : F#2 03 . S07 : ... .. . ... : ... .. . ... : C#4 0C . ... : C#4 0C . ... : ... .. 3 ...
ROW 07 : A#3 00 . ... : ... .. . S02 : F#1 03 . S07 : ... .. . ... : ... .. . ... : ... .. . ... : ... .. . ... : ... .. 1 ...
ROW 08 : ... .. . ... : F#1 05 . ... : F#2 03 . S08 : ... .. . ... : ... .. . ... : A#3 0C . ... : A#3 0C . ... : ... .. 5 ...
ROW 09 : C#4 00 . ... : ... .. . S02 : F#1 03 . S07 : ... .. . ... : ... .. . ... : ... .. . ... : ... .. . ... : ... .. 4 ...
ROW 0A : ... .. . ... : F#2 05 . ... : F#2 03 . S07 : ... .. . ... : ... .. . ... : D#4 0C . ... : D#4 0C . ... : ... .. 3 ...
ROW 0B : A#3 00 . ... : ... .. . S03 : F#1 03 . S08 : ... .. . ... : ... .. . ... : ... .. . ... : ... .. . ... : ... .. 1 ...
ROW 0C : ... .. . ... : B-1 05 . ... : G#1 03 . S07 : ... .. . ... : ... .. . ... : E-4 0C . ... : E-4 0C . ... : G#3 01 5 047
ROW 0D : D#4 00 . ... : ... .. . S02 : G#1 03 . S07 : ... .. . ... : ... .. . ... : ... .. . ... : ... .. . ... : ... .. 4 ...
ROW 0E : ... .. . ... : B-1 05 . ... : G#1 03 . S08 : ... .. . ... : ... .. . ... : ... .. . 485 : ... .. . 485 : ... .. 3 ...
ROW 0F : E-4 00 . ... : ... .. . S02 : G#2 03 . S07 : ... .. . ... : ... .. . ... : ... .. . ... : ... .. . ... : ... .. 1 ...
ROW 10 : ... .. . ... : B-1 05 . ... : G#1 03 . S07 : ... .. . ... : ... .. . ... : D#4 0C . 400 : D#4 0C . 400 : ... .. 5 ...
ROW 11 : ... .. . 485 : ... .. . S03 : G#2 03 . S08 : ... .. . ... : ... .. . ... : ... .. . ... : ... .. . ... : ... .. 4 ...
ROW 12 : ... .. . ... : B-2 05 . ... : D#2 03 . S07 : ... .. . ... : ... .. . ... : ... .. . 485 : ... .. . 485 : ... .. 3 ...
ROW 13 : D#4 00 . 400 : ... .. . S02 : D#2 03 . S07 : ... .. . ... : ... .. . ... : ... .. . ... : ... .. . ... : ... .. 1 ...
ROW 14 : ... .. . ... : B-1 05 . ... : D#1 03 . S08 : ... .. . ... : ... .. . ... : C#4 0C . 400 : C#4 0C . 400 : ... .. 5 ...
ROW 15 : ... .. . 485 : ... .. . S02 : D#2 03 . S07 : ... .. . ... : ... .. . ... : ... .. . ... : ... .. . ... : ... .. 4 ...
ROW 16 : ... .. . ... : B-2 05 . ... : D#1 03 . S07 : ... .. . ... : ... .. . ... : A#3 0C . ... : A#3 0C . ... : ... .. 3 ...
ROW 17 : C#4 00 . 400 : ... .. . S03 : D#2 03 . S08 : ... .. . ... : ... .. . ... : ... .. . ... : ... .. . ... : ... .. 1 ...
ROW 18 : ... .. . ... : F-1 05 . ... : ... .. . ... : ... .. . ... : ... .. . ... : G#3 0C . Q22 : G#3 0C . Q22 : G-3 01 5 038
ROW 19 : A#3 00 . ... : ... .. . S02 : ... .. . ... : ... .. . ... : ... .. . ... : ... .. . ... : ... .. . ... : ... .. 4 ...
ROW 1A : ... .. . ... : F-1 05 . ... : ... .. . ... : ... .. . ... : ... .. . ... : ... .. . 4A5 : ... .. . 4A5 : ... .. 3 ...
ROW 1B : G#3 00 . Q22 : ... .. . S02 : ... .. . ... : ... .. . ... : ... .. . ... : ... .. . S02 : ... .. . S02 : ... .. 1 ...
ROW 1C : ... .. . ... : F-1 05 . ... : ... .. . ... : ... .. . ... : ... .. . ... : A#3 0C . 400 : A#3 0C . 400 : ... .. 5 ...
ROW 1D : ... .. . 4A5 : ... .. . S03 : ... .. . ... : ... .. . ... : ... .. . ... : ... .. . ... : ... .. . ... : ... .. 4 ...
ROW 1E : ... .. . S02 : F-2 05 . ... : ... .. . ... : ... .. . ... : ... .. . ... : C#4 0C . ... : C#4 0C . ... : ... .. 3 ...
ROW 1F : A#3 00 . 400 : ... .. . S02 : ... .. . ... : ... .. . ... : ... .. . ... : ... .. . ... : ... .. . ... : ... .. 1 ...
ROW 20 : ... .. . ... : F-1 05 . ... : ... .. . ... : ... .. . ... : ... .. . ... : A#3 0C . ... : A#3 0C . ... : ... .. 5 ...
ROW 21 : C#4 00 . ... : ... .. . S02 : ... .. . ... : ... .. . ... : ... .. . ... : ... .. . ... : ... .. . ... : ... .. 4 ...
ROW 22 : ... .. . ... : F-2 05 . ... : ... .. . ... : ... .. . ... : ... .. . ... : D#4 0C . ... : D#4 0C . ... : ... .. 3 ...
ROW 23 : A#3 00 . ... : ... .. . S03 : ... .. . ... : ... .. . ... : ... .. . ... : ... .. . ... : ... .. . ... : ... .. 1 ...
ROW 24 : ... .. . ... : F-1 05 . ... : ... .. . ... : ... .. . ... : ... .. . ... : F-4 0C . R11 : F-4 0C . R11 : F#3 01 5 047
ROW 25 : D#4 00 . ... : ... .. . S02 : ... .. . ... : ... .. . ... : ... .. . ... : ... .. . ... : ... .. . ... : ... .. 4 ...
ROW 26 : ... .. . ... : F-1 05 . ... : ... .. . ... : ... .. . ... : ... .. . ... : ... .. . 485 : ... .. . 485 : ... .. 3 ...
ROW 27 : F-4 00 . R11 : ... .. . S02 : ... .. . ... : ... .. . ... : ... .. . ... : ... .. . ... : ... .. . ... : ... .. 1 ...
ROW 28 : ... .. . ... : F-1 05 . ... : ... .. . ... : ... .. . ... : ... .. . ... : D#4 0C . 400 : D#4 0C . 400 : ... .. 5 ...
ROW 29 : ... .. . 485 : ... .. . S03 : ... .. . ... : ... .. . ... : ... .. . ... : ... .. . ... : ... .. . ... : ... .. 4 ...
ROW 2A : ... .. . ... : F-2 05 . ... : ... .. . ... : ... .. . ... : ... .. . ... : ... .. . 485 : ... .. . 485 : ... .. 3 ...
ROW 2B : D#4 00 . 400 : ... .. . S02 : ... .. . ... : ... .. . ... : ... .. . ... : ... .. . ... : ... .. . ... : ... .. 1 ...
ROW 2C : ... .. . ... : F-1 05 . ... : ... .. . ... : ... .. . ... : ... .. . ... : C#4 0C . 400 : C#4 0C . 400 : ... .. 5 ...
ROW 2D : ... .. . 485 : ... .. . S02 : ... .. . ... : ... .. . ... : ... .. . ... : ... .. . ... : ... .. . ... : ... .. 4 ...
ROW 2E : ... .. . ... : A-1 05 . ... : ... .. . ... : ... .. . ... : ... .. . ... : A#3 0C . ... : A#3 0C . ... : ... .. 3 ...
ROW 2F : C#4 00 . 400 : ... .. . S03 : ... .. . ... : ... .. . ... : ... .. . ... : ... .. . ... : ... .. . ... : ... .. 1 ...

PATTERN 07
ROW 00 : ... .. . ... : A#1 05 F ... : A#1 03 . S07 : ... .. . ... : ... .. . ... : C#4 0C . ... : C#4 0C . ... : A#3 01 5 037
ROW 01 : A#3 00 . ... : ... .. . ... : A#1 03 . S07 : ... .. . ... : ... .. . ... : ... .. . ... : ... .. . ... : ... .. 4 ...
ROW 02 : ... .. . ... : ... .. . ... : A#1 03 . S08 : ... .. . ... : ... .. . ... : C-4 0C . ... : C-4 0C . ... : ... .. 3 ...
ROW 03 : G#4 00 . Q12 : ... .. . ... : A#2 03 . S07 : ... .. . ... : ... .. . ... : ... .. . ... : ... .. . ... : ... .. 1 ...
ROW 04 : ... .. . ... : ... .. 7 ... : A#1 03 . S07 : ... .. . ... : ... .. . ... : A#3 0C . ... : A#3 0C . ... : ... .. 5 ...
ROW 05 : ... .. . ... : ... .. . ... : A#2 03 . S08 : ... .. . ... : ... .. . ... : ... .. . S02 : ... .. . S02 : ... .. 4 ...
ROW 06 : ... .. . S02 : --- .. . ... : A#1 03 . S07 : ... .. . ... : ... .. . ... : A#3 0C . ... : A#3 0C . ... : ... .. 3 ...
ROW 07 : A#4 00 . ... : ... .. . ... : A#1 03 . S07 : ... .. . ... : ... .. . ... : ... .. . 4A4 : ... .. . 4A4 : ... .. 1 ...
ROW 08 : --- .. . ... : ... .. . ... : A#1 03 . S08 : ... .. . ... : ... .. . ... : C-4 0C . 400 : C-4 0C . 400 : ... .. 5 ...
ROW 09 : A#4 00 . ... : ... .. . ... : G#2 03 . S07 : ... .. . ... : ... .. . ... : ... .. . ... : ... .. . ... : ... .. 4 ...
ROW 0A : ... .. . 4A4 : ... .. . ... : A#1 03 . S07 : ... .. . ... : ... .. . ... : C#4 0C . ... : C#4 0C . ... : ... .. 3 ...
ROW 0B : G#4 00 . 400 : ... .. . ... : A#2 03 . S08 : ... .. . ... : ... .. . ... : D-4 0C . GFF : D-4 0C . GFF : ... .. 1 ...
ROW 0C : ... .. . ... : A#1 05 F ... : A#1 03 . S07 : ... .. . ... : ... .. . ... : D#4 0C . G02 : D#4 0C . G02 : F#3 01 5 047
ROW 0D : F-4 00 . ... : ... .. . ... : A#1 03 . S07 : ... .. . ... : ... .. . ... : ... .. . ... : ... .. . ... : ... .. 4 ...
ROW 0E : ... .. . ... : ... .. . ... : A#1 03 . S08 : ... .. . ... : ... .. . ... : ... .. . ... : ... .. . ... : ... .. 3 ...
ROW 0F : E-4 00 . ... : ... .. . ... : A#2 03 . S07 : ... .. . ... : ... .. . ... : ... .. . ... : ... .. . ... : ... .. 1 ...
ROW 10 : ... .. . 485 : ... .. 7 ... : A#1 03 . S07 : ... .. . ... : ... .. . ... : C#4 0C . ... : C#4 0C . ... : ... .. 5 ...
ROW 11 : ... .. . 486 : ... .. . ... : A#2 03 . S08 : ... .. . ... : ... .. . ... : ... .. . ... : ... .. . ... : ... .. 4 ...
ROW 12 : ... .. 1 ... : --- .. . ... : A#1 03 . S07 : ... .. . ... : ... .. . ... : ... .. . ... : ... .. . ... : ... .. 3 ...
ROW 13 : D#4 00 2 400 : ... .. . ... : A#1 03 . S07 : ... .. . ... : ... .. . ... : ... .. . ... : ... .. . ... : ... .. 1 ...
ROW 14 : ... .. . ... : ... .. . ... : A#1 03 . S08 : ... .. . ... : ... .. . ... : C-4 0C . ... : C-4 0C . ... : ... .. 5 ...
ROW 15 : ... .. . 485 : ... .. . ... : G#2 03 . S07 : ... .. . ... : ... .. . ... : ... .. . ... : ... .. . ... : ... .. 4 ...
ROW 16 : ... .. . ... : ... .. . ... : A#1 03 . S07 : ... .. . ... : ... .. . ... : A#3 0C . ... : A#3 0C . ... : ... .. 3 ...
ROW 17 : C#4 00 . 400 : ... .. . ... : A#2 03 . S08 : ... .. . ... : ... .. . ... : ... .. . S02 : ... .. . S02 : ... .. 1 ...
ROW 18 : ... .. . ... : A#1 05 F ... : ... .. . ... : ... .. . ... : ... .. . ... : A#3 0C . ... : A#3 0C . ... : G#3 01 5 ...
ROW 19 : A#3 00 . ... : ... .. . ... : ... .. . ... : ... .. . ... : ... .. . ... : ... .. . ... : ... .. . ... : ... .. 4 ...
ROW 1A : A-4 00 . GFF : ... .. . ... : ... .. . ... : ... .. . ... : ... .. . ... : C-4 0C . ... : C-4 0C . ... : ... .. 3 ...
ROW 1B : A#4 00 . G02 : ... .. . ... : ... .. . ... : ... .. . ... : ... .. . ... : ... .. . ... : ... .. . ... : ... .. 1 ...
ROW 1C : ... .. . S02 : ... .. 7 ... : ... .. . ... : ... .. . ... : ... .. . ... : C#4 0C . ... : C#4 0C . ... : ... .. 5 ...
ROW 1D : A#4 00 . ... : ... .. . ... : ... .. . ... : ... .. . ... : ... .. . ... : ... .. . ... : ... .. . ... : ... .. 4 ...
ROW 1E : ... .. . S02 : --- .. . ... : ... .. . ... : ... .. . ... : ... .. . ... : D#4 0C . ... : D#4 0C . ... : ... .. 3 ...
ROW 1F : A#4 00 . ... : ... .. . ... : ... .. . ... : ... .. . ... : ... .. . ... : ... .. . ... : ... .. . ... : ... .. 1 ...
ROW 20 : ... .. . S02 : ... .. . ... : ... .. . ... : ... .. . ... : ... .. . ... : F-4 0C . ... : F-4 0C . ... : ... .. 5 ...
ROW 21 : A#4 00 . ... : ... .. . ... : ... .. . ... : ... .. . ... : ... .. . ... : ... .. . ... : ... .. . ... : ... .. 4 ...
ROW 22 : ... .. . 4A4 : ... .. . ... : ... .. . ... : ... .. . ... : ... .. . ... : F#4 0C . ... : F#4 0C . ... : ... .. 3 ...
ROW 23 : G#4 00 . 400 : ... .. . ... : ... .. . ... : ... .. . ... : ... .. . ... : E-4 0C . GFF : E-4 0C . GFF : ... .. 1 ...
ROW 24 : ... .. . ... : A#1 05 F ... : ... .. . ... : ... .. . ... : ... .. . ... : F-4 0C . G02 : F-4 0C . G02 : ... .. 5 059
ROW 25 : F-4 00 . ... : ... .. . ... : ... .. . ... : ... .. . ... : ... .. . ... : ... .. . ... : ... .. . ... : ... .. 4 ...
ROW 26 : ... .. . ... : ... .. . ... : ... .. . ... : ... .. . ... : ... .. . ... : ... .. . ... : ... .. . ... : ... .. 3 ...
ROW 27 : E-4 00 . ... : ... .. . ... : ... .. . ... : ... .. . ... : ... .. . ... : ... .. . 465 : ... .. . 465 : ... .. 1 ...
ROW 28 : ... .. . 485 : ... .. 7 ... : ... .. . ... : ... .. . ... : ... .. . ... : ... .. . ... : ... .. . ... : ... .. 5 ...
ROW 29 : ... .. . 486 : ... .. . ... : ... .. . ... : ... .. . ... : ... .. . ... : ... .. . ... : ... .. . ... : ... .. 4 ...
ROW 2A : ... .. 1 ... : --- .. F ... : ... .. . ... : ... .. . ... : ... .. . ... : ... .. 7 ... : ... .. 7 ... : ... .. 3 ...
ROW 2B : D#4 00 2 400 : ... .. . ... : ... .. . ... : ... .. . ... : ... .. . ... : ... .. . ... : ... .. . ... : ... .. 1 ...
ROW 2C : ... .. . ... : ... .. . ... : ... .. . ... : ... .. . ... : ... .. . ... : --- .. . 400 : --- .. . 400 : ... .. 5 ...
ROW 2D : ... .. . 485 : ... .. . ... : ... .. . ... : ... .. . ... : ... .. . ... : ... .. . ... : ... .. . ... : ... .. 4 ...
ROW 2E : ... .. . ... : ... .. . ... : ... .. . ... : ... .. . ... : ... .. . ... : ... .. . ... : ... .. . ... : ... .. 3 ...
ROW 2F : C#4 00 . 400 : ... .. . ... : ... .. . ... : ... .. . ... : ... .. . ... : ... .. . ... : ... .. . ... : ... .. 1 ...

PATTERN 08
ROW 00 : ... .. . ... : C-2 05 . ... : A#1 03 . S07 : ... .. . ... : ... .. . ... : C#4 0C F ... : C#4 0C F ... : F#3 01 5 047
ROW 01 : A#3 00 . ... : ... .. . S02 : A#1 03 . S07 : ... .. . ... : ... .. . ... : ... .. . ... : ... .. . ... : ... .. 4 ...
ROW 02 : ... .. . ... : C-2 05 . ... : A#1 03 . S08 : ... .. . ... : ... .. . ... : C-4 0C . ... : C-4 0C . ... : ... .. 3 ...
ROW 03 : C#4 00 . ... : ... .. . S02 : A#2 03 . S07 : ... .. . ... : ... .. . ... : ... .. . ... : ... .. . ... : ... .. 1 ...
ROW 04 : ... .. . ... : C-2 05 . ... : A#1 03 . S07 : ... .. . ... : ... .. . ... : A#3 0C . ... : A#3 0C . ... : ... .. 5 ...
ROW 05 : C-4 00 . ... : ... .. . S03 : A#2 03 . S08 : ... .. . ... : ... .. . ... : ... .. . S02 : ... .. . S02 : ... .. 4 ...
ROW 06 : ... .. . ... : C-3 05 . ... : A#1 03 . S07 : ... .. . ... : ... .. . ... : A#3 0C . ... : A#3 0C . ... : ... .. 3 ...
ROW 07 : A#3 00 . ... : ... .. . S02 : A#1 03 . S07 : ... .. . ... : ... .. . ... : ... .. . 4A4 : ... .. . 4A4 : ... .. 1 ...
ROW 08 : ... .. . S02 : C-2 05 . ... : A#1 03 . S08 : ... .. . ... : ... .. . ... : C-4 0C . 400 : C-4 0C . 400 : ... .. 5 ...
ROW 09 : A#3 00 . ... : ... .. . S02 : G#2 03 . S07 : ... .. . ... : ... .. . ... : ... .. . ... : ... .. . ... : ... .. 4 ...
ROW 0A : ... .. . 4A4 : G-2 05 . ... : A#1 03 . S07 : ... .. . ... : ... .. . ... : C#4 0C . ... : C#4 0C . ... : ... .. 3 ...
ROW 0B : C-4 00 . 400 : ... .. . ... : A#2 03 . S08 : ... .. . ... : ... .. . ... : D-4 0C . GFF : D-4 0C . GFF : ... .. 1 ...
ROW 0C : ... .. . ... : G#2 05 . ... : A#1 03 . S07 : ... .. . ... : ... .. . ... : D#4 0C . G02 : D#4 0C . G02 : B-3 01 5 ...
ROW 0D : C#4 00 . ... : ... .. . S02 : A#1 03 . S07 : ... .. . ... : ... .. . ... : ... .. . ... : ... .. . ... : ... .. 4 ...
ROW 0E : D-4 00 . GFF : G#1 05 . ... : A#1 03 . S08 : ... .. . ... : ... .. . ... : ... .. . ... : ... .. . ... : ... .. 3 ...
ROW 0F : D#4 00 . G02 : ... .. . S02 : A#2 03 . S07 : ... .. . ... : ... .. . ... : ... .. . ... : ... .. . ... : ... .. 1 ...
ROW 10 : ... .. . ... : G#2 05 . ... : A#1 03 . S07 : ... .. . ... : ... .. . ... : F#4 0C . ... : F#4 0C . ... : ... .. 5 ...
ROW 11 : ... .. . ... : ... .. . S03 : A#2 03 . S08 : ... .. . ... : ... .. . ... : ... .. . ... : ... .. . ... : ... .. 4 ...
ROW 12 : ... .. . ... : G#1 05 . ... : A#1 03 . S07 : ... .. . ... : ... .. . ... : ... .. . 484 : ... .. . 484 : ... .. 3 ...
ROW 13 : C#4 00 . ... : ... .. . S02 : A#1 03 . S07 : ... .. . ... : ... .. . ... : ... .. . ... : ... .. . ... : ... .. 1 ...
ROW 14 : ... .. . ... : G#2 05 . ... : A#1 03 . S08 : ... .. . ... : ... .. . ... : F-4 0C . 400 : F-4 0C . 400 : ... .. 5 ...
ROW 15 : ... .. . ... : ... .. . S02 : F#3 0B . S05 : ... .. . ... : ... .. . ... : ... .. . ... : ... .. . ... : ... .. 4 ...
ROW 16 : ... .. . ... : G#1 05 . ... : C-3 0A . S09 : ... .. . ... : ... .. . ... : D#4 0C . ... : D#4 0C . ... : ... .. 3 ...
ROW 17 : C-4 00 . ... : ... .. . S03 : F#3 0B . S05 : ... .. . ... : ... .. . ... : ... .. . ... : ... .. . ... : ... .. 1 ...
ROW 18 : ... .. . ... : A#1 05 . ... : ... .. . ... : ... .. . ... : ... .. . ... : C-4 0C . ... : C-4 0C . ... : F-3 01 5 ...
ROW 19 : A#3 00 . ... : ... .. . S02 : ... .. . ... : ... .. . ... : ... .. . ... : ... .. . ... : ... .. . ... : ... .. 4 ...
ROW 1A : ... .. . S02 : A#1 05 . ... : ... .. . ... : ... .. . ... : ... .. . ... : A#3 0C . ... : A#3 0C . ... : ... .. 3 ...
ROW 1B : A#3 00 . ... : ... .. . S02 : ... .. . ... : ... .. . ... : ... .. . ... : ... .. . S02 : ... .. . S02 : ... .. 1 ...
ROW 1C : ... .. . ... : A#1 05 . ... : ... .. . ... : ... .. . ... : ... .. . ... : A-3 0C . ... : A-3 0C . ... : ... .. 5 ...
ROW 1D : C-4 00 . ... : ... .. . S03 : ... .. . ... : ... .. . ... : ... .. . ... : ... .. . S02 : ... .. . S02 : ... .. 4 ...
ROW 1E : ... .. . ... : A#2 05 . ... : ... .. . ... : ... .. . ... : ... .. . ... : A-3 0C . ... : A-3 0C . ... : ... .. 3 ...
ROW 1F : C#4 00 . ... : ... .. . S02 : ... .. . ... : ... .. . ... : ... .. . ... : ... .. . S02 : ... .. . S02 : ... .. 1 ...
ROW 20 : ... .. . ... : A#1 05 . ... : ... .. . ... : ... .. . ... : ... .. . ... : A#3 0C . ... : A#3 0C . ... : ... .. 5 ...
ROW 21 : D#4 00 . ... : ... .. . S02 : ... .. . ... : ... .. . ... : ... .. . ... : ... .. . S02 : ... .. . S02 : ... .. 4 ...
ROW 22 : ... .. . ... : A#2 05 . ... : ... .. . ... : ... .. . ... : ... .. . ... : C-4 0C . ... : C-4 0C . ... : ... .. 3 ...
ROW 23 : F-4 00 . ... : ... .. . S03 : ... .. . ... : ... .. . ... : ... .. . ... : ... .. . S02 : ... .. . S02 : ... .. 1 ...
ROW 24 : ... .. . ... : F-2 05 . ... : ... .. . ... : ... .. . ... : ... .. . ... : F-4 0C . ... : F-4 0C . ... : A-3 01 5 038
ROW 25 : F#4 00 . ... : ... .. . S02 : ... .. . ... : ... .. . ... : ... .. . ... : ... .. . S02 : ... .. . S02 : ... .. 4 ...
ROW 26 : E-4 00 . GFF : F-2 05 . ... : ... .. . ... : ... .. . ... : ... .. . ... : F-4 0C . ... : F-4 0C . ... : ... .. 3 ...
ROW 27 : F-4 00 . G02 : ... .. . S02 : ... .. . ... : ... .. . ... : ... .. . ... : ... .. . S02 : ... .. . S02 : ... .. 1 ...
ROW 28 : ... .. . ... : F-1 05 . ... : ... .. . ... : ... .. . ... : ... .. . ... : F-4 0C . ... : F-4 0C . ... : ... .. 5 ...
ROW 29 : ... .. . ... : ... .. . S03 : ... .. . ... : ... .. . ... : ... .. . ... : ... .. . S02 : ... .. . S02 : ... .. 4 ...
ROW 2A : ... .. . 465 : F-2 05 . ... : ... .. . ... : ... .. . ... : ... .. . ... : F-4 0C . ... : F-4 0C . ... : ... .. 3 ...
ROW 2B : ... .. . ... : ... .. . S02 : ... .. . ... : ... .. . ... : ... .. . ... : ... .. . 4A5 : ... .. . 4A5 : ... .. 1 ...
ROW 2C : ... .. . ... : F-1 05 . ... : ... .. . ... : ... .. . ... : ... .. . ... : D#4 0C . 400 : D#4 0C . 400 : ... .. 5 ...
ROW 2D : ... .. 1 ... : ... .. . S02 : ... .. . ... : ... .. . ... : ... .. . ... : ... .. . S02 : ... .. . S02 : ... .. 4 ...
ROW 2E : ... .. . ... : F-2 05 . ... : ... .. . ... : ... .. . ... : ... .. . ... : C#4 0C . ... : C#4 0C . ... : ... .. 3 ...
ROW 2F : --- .. . 400 : ... .. . S03 : ... .. . ... : ... .. . ... : ... .. . ... : ... .. . S02 : ... .. . S02 : ... .. 1 ...

PATTERN 09
ROW 00 : ... .. . ... : C-2 05 . ... : C-3 0A . ... : ... .. . ... : ... .. . ... : A#3 0C . ... : A#3 0C . ... : A#3 01 5 037
ROW 01 : ... .. . ... : ... .. . S02 : A#1 00 . S02 : ... .. . ... : ... .. . ... : ... .. . ... : ... .. . ... : ... .. 3 ...
ROW 02 : ... .. . ... : C-2 05 . ... : A#1 03 . ... : ... .. . ... : ... .. . ... : ... .. . 486 : ... .. . 486 : ... .. 5 ...
ROW 03 : C#4 00 2 ... : ... .. . S02 : ... .. . S02 : ... .. . ... : ... .. . ... : ... .. . ... : ... .. . ... : ... .. 3 ...
ROW 04 : ... .. . ... : C-2 05 . ... : A#1 03 . ... : ... .. . ... : ... .. . ... : ... .. 7 ... : ... .. 7 ... : ... .. 5 ...
ROW 05 : C-4 00 . ... : ... .. . S03 : ... .. . S03 : ... .. . ... : ... .. . ... : ... .. . ... : ... .. . ... : ... .. 3 ...
ROW 06 : ... .. . ... : C-3 05 E ... : F#3 0B . ... : ... .. . ... : ... .. . ... : ... .. . ... : ... .. . ... : ... .. 5 ...
ROW 07 : A#3 00 . ... : ... .. . S02 : A#2 00 . S02 : ... .. . ... : ... .. . ... : --- .. . 400 : --- .. . 400 : ... .. 3 ...
ROW 08 : ... .. . S02 : C-2 05 . ... : A#1 03 . ... : ... .. . ... : ... .. . ... : ... .. . ... : ... .. . ... : ... .. 5 ...
ROW 09 : A#3 00 . ... : ... .. . S02 : ... .. . S02 : ... .. . ... : ... .. . ... : ... .. . ... : ... .. . ... : ... .. 3 ...
ROW 0A : ... .. . 4A4 : G-2 05 . ... : F-2 03 . ... : ... .. . ... : ... .. . ... : ... .. . ... : ... .. . ... : ... .. 5 ...
ROW 0B : C-4 00 . 400 : ... .. . ... : ... .. . ... : ... .. . ... : ... .. . ... : ... .. . ... : ... .. . ... : ... .. 3 ...
ROW 0C : ... .. . ... : G#2 05 D ... : C-3 0A . ... : ... .. . ... : ... .. . ... : ... .. . ... : ... .. . ... : G#3 01 5 047
ROW 0D : C#4 00 . ... : ... .. . S02 : F#2 00 . S02 : ... .. . ... : ... .. . ... : ... .. . ... : ... .. . ... : ... .. 4 ...
ROW 0E : D-4 00 . GFF : G#1 05 . ... : F#1 03 . ... : ... .. . ... : ... .. . ... : ... .. . ... : ... .. . ... : ... .. 3 ...
ROW 0F : D#4 00 . G02 : ... .. . S02 : ... .. . S02 : ... .. . ... : ... .. . ... : ... .. . ... : ... .. . ... : ... .. 1 ...
ROW 10 : ... .. . ... : G#2 05 . ... : C-3 0A . ... : ... .. . ... : ... .. . ... : ... .. . ... : ... .. . ... : ... .. 5 ...
ROW 11 : ... .. . ... : ... .. . S03 : F#2 00 . S03 : ... .. . ... : ... .. . ... : ... .. . ... : ... .. . ... : ... .. 4 ...
ROW 12 : ... .. . ... : G#1 05 C ... : F#3 0B . ... : ... .. . ... : ... .. . ... : ... .. . ... : ... .. . ... : ... .. 3 ...
ROW 13 : F#4 00 . ... : ... .. . S02 : F#1 00 . S02 : ... .. . ... : ... .. . ... : ... .. . ... : ... .. . ... : ... .. 1 ...
ROW 14 : ... .. . ... : G#2 05 . ... : F#2 03 . ... : ... .. . ... : ... .. . ... : ... .. . ... : ... .. . ... : ... .. 5 ...
ROW 15 : ... .. . 484 : ... .. . S02 : ... .. . S02 : ... .. . ... : ... .. . ... : ... .. . ... : ... .. . ... : ... .. 3 ...
ROW 16 : ... .. . ... : G#1 05 . ... : F#1 03 . ... : ... .. . ... : ... .. . ... : ... .. . ... : ... .. . ... : ... .. 5 ...
ROW 17 : F-4 00 . 400 : ... .. . S03 : ... .. . S03 : ... .. . ... : ... .. . ... : ... .. . ... : ... .. . ... : ... .. 4 ...
ROW 18 : ... .. . ... : A#1 05 B ... : C-3 0A . ... : ... .. . ... : ... .. . ... : ... .. . ... : ... .. . ... : G-3 01 5 038
ROW 19 : D#4 00 . ... : ... .. . S02 : G#1 00 . S02 : ... .. . ... : ... .. . ... : ... .. . ... : ... .. . ... : ... .. 3 ...
ROW 1A : ... .. . ... : A#1 05 . ... : G#1 03 . ... : ... .. . ... : ... .. . ... : ... .. . ... : ... .. . ... : ... .. 5 ...
ROW 1B : C-4 00 . ... : ... .. . S02 : ... .. . S02 : ... .. . ... : ... .. . ... : ... .. . ... : ... .. . ... : ... .. 3 ...
ROW 1C : ... .. . ... : A#1 05 . ... : G#1 03 . ... : ... .. . ... : ... .. . ... : ... .. . ... : ... .. . ... : ... .. 5 ...
ROW 1D : A#3 00 . ... : ... .. . S03 : ... .. . S03 : ... .. . ... : ... .. . ... : ... .. . ... : ... .. . ... : ... .. 3 ...
ROW 1E : ... .. . S02 : A#2 05 A ... : F#3 0B . ... : ... .. . ... : ... .. . ... : ... .. . ... : ... .. . ... : ... .. 5 ...
ROW 1F : A-3 00 . ... : ... .. . S02 : G#2 00 . S02 : ... .. . ... : ... .. . ... : ... .. . ... : ... .. . ... : ... .. 3 ...
ROW 20 : ... .. . S02 : A#1 05 . ... : G#1 03 . ... : ... .. . ... : ... .. . ... : ... .. . ... : ... .. . ... : ... .. 5 ...
ROW 21 : A-3 00 . ... : ... .. . S02 : ... .. . S02 : ... .. . ... : ... .. . ... : ... .. . ... : ... .. . ... : ... .. 3 ...
ROW 22 : ... .. . S02 : A#2 05 . ... : G#2 03 . ... : ... .. . ... : ... .. . ... : ... .. . ... : ... .. . ... : ... .. 5 ...
ROW 23 : A#3 00 . ... : ... .. . S03 : ... .. . S03 : ... .. . ... : ... .. . ... : ... .. . ... : ... .. . ... : ... .. 3 ...
ROW 24 : ... .. . S02 : F-2 05 9 ... : C-3 0A . ... : ... .. . ... : ... .. . ... : ... .. . ... : ... .. . ... : F#3 01 5 047
ROW 25 : C-4 00 . ... : ... .. . S02 : D#2 00 . S02 : ... .. . ... : ... .. . ... : ... .. . ... : ... .. . ... : ... .. 4 ...
ROW 26 : ... .. . S02 : F-2 05 . ... : D#2 03 . ... : ... .. . ... : ... .. . ... : ... .. . ... : ... .. . ... : ... .. 3 ...
ROW 27 : F-4 00 . ... : ... .. . S02 : ... .. . S02 : ... .. . ... : ... .. . ... : ... .. . ... : ... .. . ... : ... .. 1 ...
ROW 28 : ... .. . S02 : F-1 05 . ... : C-3 0A . ... : ... .. . ... : ... .. . ... : ... .. . ... : ... .. . ... : ... .. 5 ...
ROW 29 : F-4 00 . ... : ... .. . S03 : D#1 00 . S03 : ... .. . ... : ... .. . ... : ... .. . ... : ... .. . ... : ... .. 4 ...
ROW 2A : ... .. . S02 : F-2 05 8 ... : F#3 0B . ... : ... .. . ... : ... .. . ... : ... .. . ... : ... .. . ... : ... .. 3 ...
ROW 2B : F-4 00 . ... : ... .. . S02 : D#2 00 . S02 : ... .. . ... : ... .. . ... : ... .. . ... : ... .. . ... : ... .. 1 ...
ROW 2C : ... .. . S02 : F-1 05 . ... : C-3 0A . ... : ... .. . ... : ... .. . ... : ... .. . ... : ... .. . ... : ... .. 5 ...
ROW 2D : F-4 00 . ... : ... .. . S02 : D#1 00 . S02 : ... .. . ... : ... .. . ... : ... .. . ... : ... .. . ... : ... .. 3 ...
ROW 2E : ... .. . 4A5 : F-2 05 . ... : F#3 0B . ... : ... .. . ... : ... .. . ... : ... .. . ... : ... .. . ... : ... .. 5 ...
ROW 2F : D#4 00 . 400 : ... .. . S03 : D#2 00 . S03 : ... .. . ... : ... .. . ... : ... .. . ... : ... .. . ... : ... .. 4 ...

PATTERN 0A
ROW 00 : ... .. . S02 : C-2 05 7 ... : C-3 0A . ... : ... .. . ... : ... .. . ... : A#2 01 1 V01 : F-2 01 1 V00 : C-4 01 5 037
ROW 01 : C#4 00 . ... : ... .. . S02 : A#1 00 . S02 : ... .. . ... : ... .. . ... : ... .. 2 ... : ... .. 2 ... : ... .. 4 ...
ROW 02 : ... .. . S02 : C-2 05 . ... : A#1 03 . ... : ... .. . ... : ... .. . ... : ... .. 3 ... : ... .. 3 ... : ... .. . ...
ROW 03 : A#3 00 . ... : ... .. . S02 : ... .. . S02 : ... .. . ... : ... .. . ... : ... .. . ... : ... .. . ... : ... .. 3 ...
ROW 04 : ... .. . ... : C-2 05 . ... : A#1 03 . ... : ... .. . ... : ... .. . ... : ... .. . ... : ... .. . ... : ... .. . ...
ROW 05 : ... .. . V00 : ... .. . S03 : ... .. . S03 : ... .. . ... : ... .. . ... : ... .. 4 ... : ... .. 4 ... : ... .. . ...
ROW 06 : A#3 00 4 037 : C-3 05 6 ... : F#3 0B . ... : ... .. . ... : ... .. . ... : ... .. . ... : ... .. . ... : ... .. 2 ...
ROW 07 : ... .. 2 ... : ... .. . S02 : A#2 00 . S02 : ... .. . ... : ... .. . ... : ... .. . ... : ... .. . ... : ... .. . ...
ROW 08 : ... .. 4 ... : C-2 05 . ... : A#1 03 . ... : ... .. . ... : ... .. . ... : ... .. . ... : ... .. . ... : ... .. . ...
ROW 09 : ... .. 2 ... : ... .. . S02 : ... .. . S02 : ... .. . ... : ... .. . ... : ... .. 5 ... : ... .. 5 ... : ... .. 1 ...
ROW 0A : ... .. 4 ... : G-2 05 . ... : A#2 03 . ... : ... .. . ... : ... .. . ... : ... .. . ... : ... .. . ... : ... .. . ...
ROW 0B : ... .. 2 ... : ... .. . ... : ... .. . S03 : ... .. . ... : ... .. . ... : ... .. . ... : ... .. . ... : ... .. . ...
ROW 0C : G#3 00 4 047 : G#2 05 5 ... : C-3 0A . ... : ... .. . ... : ... .. . ... : ... .. . ... : ... .. . ... : ... .. 5 038
ROW 0D : ... .. 3 ... : ... .. . S02 : G#1 00 . S02 : ... .. . ... : ... .. . ... : ... .. . ... : ... .. . ... : ... .. 4 ...
ROW 0E : ... .. 2 ... : G#1 05 . ... : G#1 03 . ... : ... .. . ... : ... .. . ... : ... .. . ... : ... .. . ... : ... .. . ...
ROW 0F : ... .. 1 ... : ... .. . S02 : ... .. . S02 : ... .. . ... : ... .. . ... : ... .. . ... : ... .. . ... : ... .. 3 ...
ROW 10 : ... .. 4 ... : G#2 05 . ... : C-3 0A . ... : ... .. . ... : ... .. . ... : ... .. 4 ... : ... .. 4 ... : ... .. . ...
ROW 11 : ... .. 3 ... : ... .. . S03 : G#1 00 . S03 : ... .. . ... : ... .. . ... : ... .. . ... : ... .. . ... : ... .. . ...
ROW 12 : ... .. 2 ... : G#1 05 4 ... : F#3 0B . ... : ... .. . ... : ... .. . ... : ... .. . ... : ... .. . ... : ... .. 2 ...
ROW 13 : ... .. 1 ... : ... .. . S02 : G#2 00 . S02 : ... .. . ... : ... .. . ... : ... .. . ... : ... .. . ... : ... .. . ...
ROW 14 : ... .. 4 ... : G#2 05 . ... : G#1 03 . ... : ... .. . ... : ... .. . ... : ... .. . ... : ... .. . ... : ... .. . ...
ROW 15 : ... .. 2 ... : ... .. . S02 : ... .. . S02 : ... .. . ... : ... .. . ... : ... .. 3 ... : ... .. 3 ... : ... .. 1 ...
ROW 16 : ... .. 3 ... : G#1 05 . ... : G#2 03 . ... : ... .. . ... : ... .. . ... : ... .. . ... : ... .. . ... : ... .. . ...
ROW 17 : ... .. 4 ... : ... .. . S03 : ... .. . S03 : ... .. . ... : ... .. . ... : ... .. . ... : ... .. . ... : ... .. . ...
ROW 18 : G-3 00 4 038 : A#1 05 3 ... : C-3 0A . ... : ... .. . ... : ... .. . ... : ... .. . ... : ... .. . ... : ... .. 5 05A
ROW 19 : ... .. 2 ... : ... .. . S02 : G-1 00 . S02 : ... .. . ... : ... .. . ... : ... .. . ... : ... .. . ... : ... .. 4 ...
ROW 1A : ... .. 4 ... : A#1 05 . ... : G-1 03 . ... : ... .. . ... : ... .. . ... : ... .. . ... : ... .. . ... : ... .. . ...
ROW 1B : ... .. 2 ... : ... .. . S02 : ... .. . S02 : ... .. . ... : ... .. . ... : ... .. . ... : ... .. . ... : ... .. 3 ...
ROW 1C : ... .. 4 ... : A#1 05 . ... : G-1 03 . ... : ... .. . ... : ... .. . ... : ... .. 2 ... : ... .. 2 ... : ... .. . ...
ROW 1D : ... .. 2 ... : ... .. . S03 : ... .. . S03 : ... .. . ... : ... .. . ... : ... .. . ... : ... .. . ... : ... .. . ...
ROW 1E : ... .. 4 ... : A#2 05 2 ... : F#3 0B . ... : ... .. . ... : ... .. . ... : ... .. . ... : ... .. . ... : ... .. 2 ...
ROW 1F : ... .. 2 ... : ... .. . S02 : G-2 00 . S02 : ... .. . ... : ... .. . ... : ... .. . ... : ... .. . ... : ... .. . ...
ROW 20 : ... .. 4 ... : A#1 05 . ... : G-1 03 . ... : ... .. . ... : ... .. . ... : ... .. . ... : ... .. . ... : ... .. . ...
ROW 21 : ... .. 2 ... : ... .. . S02 : ... .. . S02 : ... .. . ... : ... .. . ... : ... .. . ... : ... .. . ... : ... .. 1 ...
ROW 22 : ... .. 4 ... : A#2 05 . ... : G-2 03 . ... : ... .. . ... : ... .. . ... : ... .. 1 ... : ... .. 1 ... : ... .. . ...
ROW 23 : ... .. 2 ... : ... .. . S03 : ... .. . S03 : ... .. . ... : ... .. . ... : ... .. . ... : ... .. . ... : ... .. . ...
ROW 24 : F#3 00 4 047 : F-2 05 1 ... : C-3 0A . ... : ... .. . ... : ... .. . ... : ... .. . ... : ... .. . ... : ... .. 5 059
ROW 25 : ... .. 3 ... : ... .. . S02 : F#1 00 . S02 : ... .. . ... : ... .. . ... : ... .. . ... : ... .. . ... : ... .. 4 ...
ROW 26 : ... .. 2 ... : F-2 05 . ... : F#1 03 . ... : ... .. . ... : ... .. . ... : ... .. . ... : ... .. . ... : ... .. . ...
ROW 27 : ... .. 1 ... : ... .. . S02 : ... .. . S02 : ... .. . ... : ... .. . ... : ... .. . ... : ... .. . ... : ... .. 3 ...
ROW 28 : ... .. 4 ... : F-1 05 . ... : C-3 0A . ... : ... .. . ... : ... .. . ... : ... .. . ... : ... .. . ... : ... .. . ...
ROW 29 : ... .. 3 ... : ... .. . S03 : F#1 00 . S03 : ... .. . ... : ... .. . ... : ... .. . ... : ... .. . ... : ... .. . ...
ROW 2A : ... .. 2 ... : F-2 05 . ... : F#3 0B . ... : ... .. . ... : ... .. . ... : ... .. . ... : ... .. . ... : ... .. 2 ...
ROW 2B : ... .. 1 ... : --- .. . ... : F#2 00 . S02 : ... .. . ... : ... .. . ... : --- .. . ... : --- .. . ... : ... .. . ...
ROW 2C : ... .. 4 ... : F-1 05 . ... : C-3 0A . ... : ... .. . ... : ... .. . ... : ... .. . ... : ... .. . ... : ... .. . ...
ROW 2D : ... .. 2 ... : --- .. . ... : F#1 00 . S02 : ... .. . ... : ... .. . ... : ... .. . ... : ... .. . ... : ... .. 1 ...
ROW 2E : ... .. 3 ... : F-2 05 . ... : F#3 0B . ... : ... .. . ... : ... .. . ... : ... .. . ... : ... .. . ... : ... .. . ...
ROW 2F : ... .. 4 ... : --- .. . ... : F#2 00 . S03 : ... .. . ... : ... .. . ... : ... .. . ... : ... .. . ... : ... .. . ...

PATTERN 0B
ROW 00 : A#3 00 4 037 : ... .. . ... : C-3 0A . ... : ... .. . ... : ... .. . ... : A#4 0C F ... : A#4 0C F ... : C-4 01 5 037
ROW 01 : ... .. 2 ... : ... .. . ... : A#1 00 . S02 : ... .. . ... : ... .. . ... : G#4 0C . ... : G#4 0C . ... : ... .. 4 ...
ROW 02 : ... .. 4 ... : ... .. . ... : A#1 03 . ... : ... .. . ... : ... .. . ... : F-4 0C . ... : F-4 0C . ... : ... .. 3 ...
ROW 03 : ... .. 2 ... : ... .. . ... : ... .. . S02 : ... .. . ... : ... .. . ... : A#4 0C D ... : A#4 0C D ... : ... .. 1 ...
ROW 04 : ... .. 4 ... : ... .. . ... : A#1 03 . ... : ... .. . ... : ... .. . ... : G#4 0C . ... : G#4 0C . ... : ... .. 5 ...
ROW 05 : ... .. 2 ... : ... .. . ... : ... .. . S03 : ... .. . ... : ... .. . ... : F-4 0C . ... : F-4 0C . ... : ... .. 4 ...
ROW 06 : ... .. 4 ... : ... .. . ... : F#3 0B . ... : ... .. . ... : ... .. . ... : A#4 0C B ... : A#4 0C B ... : ... .. 3 ...
ROW 07 : ... .. 2 ... : ... .. . ... : A#2 00 . S02 : ... .. . ... : ... .. . ... : G#4 0C . ... : G#4 0C . ... : ... .. 1 ...
ROW 08 : ... .. 4 ... : ... .. . ... : A#1 03 . ... : ... .. . ... : ... .. . ... : F-4 0C . ... : F-4 0C . ... : ... .. 5 ...
ROW 09 : ... .. 2 ... : ... .. . ... : ... .. . S02 : ... .. . ... : ... .. . ... : A#4 0C D ... : A#4 0C D ... : ... .. 4 ...
ROW 0A : ... .. 4 ... : ... .. . ... : C#3 03 . ... : ... .. . ... : ... .. . ... : G#4 0C . ... : G#4 0C . ... : ... .. 3 ...
ROW 0B : ... .. 2 ... : ... .. . ... : ... .. . S03 : ... .. . ... : ... .. . ... : F-4 0C . ... : F-4 0C . ... : ... .. 1 ...
ROW 0C : G#3 00 4 047 : ... .. . ... : C-3 0A . ... : ... .. . ... : ... .. . ... : A#4 0C F ... : A#4 0C F ... : ... .. 5 038
ROW 0D : ... .. 3 ... : ... .. . ... : D#2 00 . S02 : ... .. . ... : ... .. . ... : G#4 0C . ... : G#4 0C . ... : ... .. 4 ...
ROW 0E : ... .. 2 ... : ... .. . ... : D#2 03 . ... : ... .. . ... : ... .. . ... : F-4 0C . ... : F-4 0C . ... : ... .. 3 ...
ROW 0F : ... .. 1 ... : ... .. . ... : ... .. . S02 : ... .. . ... : ... .. . ... : A#4 0C D ... : A#4 0C D ... : ... .. 1 ...
ROW 10 : ... .. 4 ... : ... .. . ... : C-3 0A . ... : ... .. . ... : ... .. . ... : G#4 0C . ... : G#4 0C . ... : ... .. 5 ...
ROW 11 : ... .. 3 ... : ... .. . ... : D#2 00 . S03 : ... .. . ... : ... .. . ... : F-4 0C . ... : F-4 0C . ... : ... .. 4 ...
ROW 12 : ... .. 2 ... : ... .. . ... : F#3 0B . ... : ... .. . ... : ... .. . ... : A#4 0C B ... : A#4 0C B ... : ... .. 3 ...
ROW 13 : ... .. 1 ... : ... .. . ... : D#3 00 . S02 : ... .. . ... : ... .. . ... : G#4 0C . ... : G#4 0C . ... : ... .. 1 ...
ROW 14 : ... .. 4 ... : ... .. . ... : D#2 03 . ... : ... .. . ... : ... .. . ... : F-4 0C . ... : F-4 0C . ... : ... .. 5 ...
ROW 15 : ... .. 2 ... : ... .. . ... : ... .. . S02 : ... .. . ... : ... .. . ... : A#4 0C D ... : A#4 0C D ... : ... .. 4 ...
ROW 16 : ... .. 4 ... : ... .. . ... : D#3 03 . ... : ... .. . ... : ... .. . ... : G#4 0C . ... : G#4 0C . ... : ... .. 3 ...
ROW 17 : ... .. 3 ... : ... .. . ... : ... .. . S03 : ... .. . ... : ... .. . ... : F-4 0C . ... : F-4 0C . ... : ... .. 1 ...
ROW 18 : G-3 00 4 038 : ... .. . ... : C-3 0A . ... : ... .. . ... : ... .. . ... : A#4 0C F ... : A#4 0C F ... : ... .. 5 05A
ROW 19 : ... .. 2 ... : ... .. . ... : G#1 00 . S02 : ... .. . ... : ... .. . ... : G#4 0C . ... : G#4 0C . ... : ... .. 4 ...
ROW 1A : ... .. 4 ... : ... .. . ... : G#1 03 . ... : ... .. . ... : ... .. . ... : F-4 0C . ... : F-4 0C . ... : ... .. 3 ...
ROW 1B : ... .. 2 ... : ... .. . ... : ... .. . S02 : ... .. . ... : ... .. . ... : A#4 0C D ... : A#4 0C D ... : ... .. 1 ...
ROW 1C : ... .. 4 ... : ... .. . ... : G#1 03 . ... : ... .. . ... : ... .. . ... : G#4 0C . ... : G#4 0C . ... : ... .. 5 ...
ROW 1D : ... .. 2 ... : ... .. . ... : ... .. . S03 : ... .. . ... : ... .. . ... : F-4 0C . ... : F-4 0C . ... : ... .. 4 ...
ROW 1E : ... .. 4 ... : ... .. . ... : F#3 0B . ... : ... .. . ... : ... .. . ... : A#4 0C B ... : A#4 0C B ... : ... .. 3 ...
ROW 1F : ... .. 2 ... : ... .. . ... : G#2 00 . S02 : ... .. . ... : ... .. . ... : G#4 0C . ... : G#4 0C . ... : ... .. 1 ...
ROW 20 : ... .. 4 ... : ... .. . ... : G#1 03 . ... : ... .. . ... : ... .. . ... : F-4 0C . ... : F-4 0C . ... : ... .. 5 ...
ROW 21 : ... .. 2 ... : ... .. . ... : ... .. . S02 : ... .. . ... : ... .. . ... : A#4 0C D ... : A#4 0C D ... : ... .. 4 ...
ROW 22 : ... .. 4 ... : ... .. . ... : G#2 03 . ... : ... .. . ... : ... .. . ... : G#4 0C . ... : G#4 0C . ... : ... .. 3 ...
ROW 23 : ... .. 2 ... : ... .. . ... : ... .. . S03 : ... .. . ... : ... .. . ... : F-4 0C . ... : F-4 0C . ... : ... .. 1 ...
ROW 24 : F#3 00 4 047 : ... .. . ... : C-3 0A . ... : ... .. . ... : ... .. . ... : A#4 0C F ... : A#4 0C F ... : ... .. 5 059
ROW 25 : ... .. 3 ... : ... .. . ... : C#2 00 . S02 : ... .. . ... : ... .. . ... : G#4 0C . ... : G#4 0C . ... : ... .. 4 ...
ROW 26 : ... .. 2 ... : ... .. . ... : C#2 03 . ... : ... .. . ... : ... .. . ... : F-4 0C . ... : F-4 0C . ... : ... .. 3 ...
ROW 27 : ... .. 1 ... : ... .. . ... : ... .. . S02 : ... .. . ... : ... .. . ... : A#4 0C D ... : A#4 0C D ... : ... .. 1 ...
ROW 28 : ... .. 4 ... : ... .. . ... : C-3 0A . ... : ... .. . ... : ... .. . ... : G#4 0C . ... : G#4 0C . ... : ... .. 5 ...
ROW 29 : ... .. 3 ... : ... .. . ... : C#2 00 . S03 : ... .. . ... : ... .. . ... : F-4 0C . ... : F-4 0C . ... : ... .. 4 ...
ROW 2A : ... .. 2 ... : ... .. . ... : F#3 0B . ... : ... .. . ... : ... .. . ... : A#4 0C B ... : A#4 0C B ... : ... .. 3 ...
ROW 2B : ... .. 1 ... : ... .. . ... : C#3 00 . S02 : ... .. . ... : ... .. . ... : G#4 0C . ... : G#4 0C . ... : ... .. 1 ...
ROW 2C : ... .. 4 ... : ... .. . ... : C-3 0A . ... : ... .. . ... : ... .. . ... : F-4 0C . ... : F-4 0C . ... : ... .. 5 ...
ROW 2D : ... .. 2 ... : ... .. . ... : C#2 00 . S02 : ... .. . ... : ... .. . ... : A#4 0C D ... : A#4 0C D ... : ... .. 4 ...
ROW 2E : ... .. 4 ... : ... .. . ... : F#3 0B . ... : ... .. . ... : ... .. . ... : G#4 0C . ... : G#4 0C . ... : ... .. 3 ...
ROW 2F : ... .. 3 ... : ... .. . ... : C#3 00 . S03 : ... .. . ... : ... .. . ... : F-4 0C . ... : F-4 0C . ... : ... .. 1 ...

PATTERN 0C
ROW 00 : A#3 00 4 037 : ... .. . ... : C-3 0A . ... : ... .. . ... : ... .. . ... : A#4 0C F ... : A#4 0C F ... : C-4 01 5 037
ROW 01 : ... .. 3 ... : ... .. . ... : F#1 00 . S02 : ... .. . ... : ... .. . ... : ... .. . S02 : ... .. . S02 : ... .. 4 ...
ROW 02 : ... .. . ... : ... .. . ... : F#1 03 . ... : ... .. . ... : ... .. . ... : A#4 0C . ... : A#4 0C . ... : ... .. 3 ...
ROW 03 : ... .. 2 ... : ... .. . ... : ... .. . S02 : ... .. . ... : ... .. . ... : ... .. . S02 : ... .. . S02 : ... .. 1 ...
ROW 04 : ... .. . ... : ... .. . ... : F#1 03 . ... : ... .. . ... : ... .. . ... : A#4 0C . ... : A#4 0C . ... : ... .. 5 ...
ROW 05 : ... .. . ... : ... .. . ... : ... .. . S03 : ... .. . ... : ... .. . ... : ... .. . S02 : ... .. . S02 : ... .. 4 ...
ROW 06 : ... .. 1 ... : ... .. . ... : F#3 0B . ... : ... .. . ... : ... .. . ... : A#4 0C . ... : A#4 0C . ... : ... .. 3 ...
ROW 07 : ... .. . ... : ... .. . ... : F#2 00 . S02 : ... .. . ... : ... .. . ... : ... .. . 4A4 : ... .. . 4A4 : ... .. 1 ...
ROW 08 : ... .. . ... : ... .. . ... : F#1 03 . ... : ... .. . ... : ... .. . ... : G#4 0C . 400 : G#4 0C . 400 : ... .. 5 ...
ROW 09 : ... .. 0 ... : ... .. . ... : ... .. . S02 : ... .. . ... : ... .. . ... : ... .. . ... : ... .. . ... : ... .. 4 ...
ROW 0A : ... .. . ... : ... .. . ... : F#2 03 . ... : ... .. . ... : ... .. . ... : F-4 0C . ... : F-4 0C . ... : ... .. 3 ...
ROW 0B : ... .. . ... : ... .. . ... : ... .. . S03 : ... .. . ... : ... .. . ... : ... .. . ... : ... .. . ... : ... .. 1 ...
ROW 0C : ... .. 3 038 : ... .. . ... : C-3 0A . ... : ... .. . ... : ... .. . ... : D#4 0C . ... : D#4 0C . ... : ... .. 5 038
ROW 0D : ... .. . ... : ... .. . ... : B-1 00 . S02 : ... .. . ... : ... .. . ... : ... .. . 485 : ... .. . 485 : ... .. 4 ...
ROW 0E : ... .. 2 ... : ... .. . ... : B-1 03 . ... : ... .. . ... : ... .. . ... : ... .. . 486 : ... .. . 486 : ... .. 2 ...
ROW 0F : ... .. . ... : ... .. . ... : ... .. . S02 : ... .. . ... : ... .. . ... : ... .. 7 ... : ... .. 7 ... : ... .. 1 ...
ROW 10 : ... .. . ... : ... .. . ... : C-3 0A . ... : ... .. . ... : ... .. . ... : C#4 0C F 400 : C#4 0C F 400 : ... .. 5 ...
ROW 11 : ... .. 1 ... : ... .. . ... : B-1 00 . S03 : ... .. . ... : ... .. . ... : ... .. . ... : ... .. . ... : ... .. 4 ...
ROW 12 : ... .. . ... : ... .. . ... : F#3 0B . ... : ... .. . ... : ... .. . ... : ... .. . 485 : ... .. . 485 : ... .. 2 ...
ROW 13 : ... .. . ... : ... .. . ... : B-2 00 . S02 : ... .. . ... : ... .. . ... : ... .. . S02 : ... .. . S02 : ... .. 1 ...
ROW 14 : ... .. . ... : ... .. . ... : B-1 03 . ... : ... .. . ... : ... .. . ... : G#3 0C . 400 : G#3 0C . 400 : ... .. 5 ...
ROW 15 : ... .. 0 ... : ... .. . ... : ... .. . S02 : ... .. . ... : ... .. . ... : A#3 0C . GFF : A#3 0C . GFF : ... .. 4 ...
ROW 16 : ... .. . ... : ... .. . ... : B-2 03 . ... : ... .. . ... : ... .. . ... : G#4 0C . GFF : G#4 0C . GFF : ... .. 2 ...
ROW 17 : ... .. . ... : ... .. . ... : ... .. . S03 : ... .. . ... : ... .. . ... : A-4 0C . G03 : A-4 0C . G03 : ... .. 1 ...
ROW 18 : ... .. 2 05A : ... .. . ... : C-3 0A . ... : ... .. . ... : ... .. . ... : A#4 0C . G01 : A#4 0C . G01 : ... .. 5 05A
ROW 19 : ... .. . ... : ... .. . ... : F-1 00 . S02 : ... .. . ... : ... .. . ... : ... .. . S02 : ... .. . S02 : ... .. 3 ...
ROW 1A : ... .. . ... : ... .. . ... : F-1 03 . ... : ... .. . ... : ... .. . ... : A#4 0C . ... : A#4 0C . ... : ... .. 2 ...
ROW 1B : ... .. 1 ... : ... .. . ... : ... .. . S02 : ... .. . ... : ... .. . ... : ... .. . S02 : ... .. . S02 : ... .. 1 ...
ROW 1C : ... .. . ... : ... .. . ... : F-1 03 . ... : ... .. . ... : ... .. . ... : A#4 0C . ... : A#4 0C . ... : ... .. 5 ...
ROW 1D : ... .. . ... : ... .. . ... : ... .. . S03 : ... .. . ... : ... .. . ... : ... .. . S02 : ... .. . S02 : ... .. 3 ...
ROW 1E : ... .. . ... : ... .. . ... : F#3 0B . ... : ... .. . ... : ... .. . ... : A#4 0C . ... : A#4 0C . ... : ... .. 2 ...
ROW 1F : ... .. 0 ... : ... .. . ... : F-2 00 . S02 : ... .. . ... : ... .. . ... : ... .. . 4A4 : ... .. . 4A4 : ... .. 1 ...
ROW 20 : ... .. . ... : ... .. . ... : F-1 03 . ... : ... .. . ... : ... .. . ... : G#4 0C . 400 : G#4 0C . 400 : ... .. 5 ...
ROW 21 : ... .. . ... : ... .. . ... : ... .. . S02 : ... .. . ... : ... .. . ... : ... .. . ... : ... .. . ... : ... .. 3 ...
ROW 22 : ... .. . ... : ... .. . ... : F-2 03 . ... : ... .. . ... : ... .. . ... : F-4 0C . ... : F-4 0C . ... : ... .. 2 ...
ROW 23 : ... .. . ... : ... .. . ... : ... .. . S03 : ... .. . ... : ... .. . ... : ... .. . ... : ... .. . ... : ... .. 1 ...
ROW 24 : ... .. 1 059 : ... .. . ... : C-3 0A . ... : ... .. . ... : ... .. . ... : D#4 0C . ... : D#4 0C . ... : ... .. 4 059
ROW 25 : ... .. . ... : ... .. . ... : F-1 00 . S02 : ... .. . ... : ... .. . ... : ... .. . 485 : ... .. . 485 : ... .. 3 ...
ROW 26 : ... .. . ... : ... .. . ... : F-1 03 . ... : ... .. . ... : ... .. . ... : ... .. . 486 : ... .. . 486 : ... .. 2 ...
ROW 27 : ... .. . ... : ... .. . ... : ... .. . S02 : ... .. . ... : ... .. . ... : ... .. 7 ... : ... .. 7 ... : ... .. 1 ...
ROW 28 : ... .. . ... : ... .. . ... : C-3 0A . ... : ... .. . ... : ... .. . ... : C#4 0C F 400 : C#4 0C F 400 : ... .. 4 ...
ROW 29 : ... .. . ... : ... .. . ... : F-1 00 . S03 : ... .. . ... : ... .. . ... : ... .. . ... : ... .. . ... : ... .. 3 ...
ROW 2A : --- .. . 000 : ... .. . ... : F#3 0B . ... : ... .. . ... : ... .. . ... : ... .. . 485 : ... .. . 485 : ... .. 2 ...
ROW 2B : ... .. . ... : ... .. . ... : F-2 00 . S02 : ... .. . ... : ... .. . ... : ... .. . S02 : ... .. . S02 : ... .. 1 ...
ROW 2C : ... .. . ... : ... .. . ... : C-3 0A . ... : ... .. . ... : ... .. . ... : G#3 0C . 400 : G#3 0C . 400 : ... .. 4 ...
ROW 2D : ... .. . ... : ... .. . ... : F-1 00 . S02 : ... .. . ... : ... .. . ... : ... .. . ... : ... .. . ... : ... .. 3 ...
ROW 2E : ... .. . ... : ... .. . ... : F#3 0B . ... : ... .. . ... : ... .. . ... : A#3 0C . ... : A#3 0C . ... : ... .. 2 ...
ROW 2F : ... .. . ... : ... .. . ... : A-1 00 . S03 : ... .. . ... : ... .. . ... : ... .. . ... : ... .. . ... : ... .. 1 ...

PATTERN 0D
ROW 00 : --- .. . P81 : ... .. . ... : A#1 03 F ... : ... .. . ... : ... .. . ... : ... .. . ... : ... .. . ... : C-4 01 4 037
ROW 01 : ... .. . V01 : ... .. . ... : ... .. . ... : ... .. . ... : ... .. . ... : ... .. . ... : ... .. . ... : ... .. 2 ...
ROW 02 : ... .. . ... : ... .. . ... : ... .. . ... : ... .. . ... : ... .. . ... : ... .. . ... : ... .. . ... : ... .. . ...
ROW 03 : C-4 00 2 ... : ... .. . ... : ... .. . ... : ... .. . ... : ... .. . ... : ... .. . ... : ... .. . ... : ... .. 1 ...
ROW 04 : ... .. . ... : ... .. . ... : ... .. . ... : ... .. . ... : ... .. . ... : ... .. . ... : ... .. . ... : ... .. 4 ...
ROW 05 : ... .. . ... : ... .. . ... : ... .. . S03 : ... .. . ... : ... .. . ... : ... .. . ... : ... .. . ... : ... .. 2 ...
ROW 06 : ... .. . S02 : ... .. . ... : ... .. . ... : ... .. . ... : ... .. . ... : ... .. . ... : ... .. . ... : ... .. . ...
ROW 07 : C-4 00 . ... : ... .. . ... : ... .. . ... : ... .. . ... : ... .. . ... : ... .. . ... : ... .. . ... : ... .. 1 ...
ROW 08 : ... .. . ... : ... .. . ... : ... .. . ... : ... .. . ... : ... .. . ... : ... .. . ... : ... .. . ... : ... .. 4 ...
ROW 09 : D#4 00 . ... : ... .. . ... : ... .. . ... : ... .. . ... : ... .. . ... : ... .. . ... : ... .. . ... : ... .. 2 ...
ROW 0A : ... .. . ... : ... .. . ... : ... .. . ... : ... .. . ... : ... .. . ... : ... .. . ... : ... .. . ... : ... .. . ...
ROW 0B : C-4 00 . ... : ... .. . ... : ... .. . ... : ... .. . ... : ... .. . ... : ... .. . ... : ... .. . ... : ... .. 1 ...
ROW 0C : ... .. . ... : ... .. . ... : A#1 03 . ... : ... .. . ... : ... .. . ... : ... .. . ... : ... .. . ... : ... .. 3 038
ROW 0D : F-4 00 . ... : ... .. . ... : ... .. . ... : ... .. . ... : ... .. . ... : ... .. . ... : ... .. . ... : ... .. 2 ...
ROW 0E : ... .. . ... : ... .. . ... : ... .. . ... : ... .. . ... : ... .. . ... : ... .. . ... : ... .. . ... : ... .. . ...
ROW 0F : F#4 00 . ... : ... .. . ... : ... .. . ... : ... .. . ... : ... .. . ... : ... .. . ... : ... .. . ... : ... .. 1 ...
ROW 10 : ... .. . ... : ... .. . ... : ... .. . ... : ... .. . ... : ... .. . ... : ... .. . ... : ... .. . ... : ... .. 3 ...
ROW 11 : ... .. . 485 : ... .. . ... : ... .. . S03 : ... .. . ... : ... .. . ... : ... .. . ... : ... .. . ... : ... .. 2 ...
ROW 12 : ... .. . ... : ... .. . ... : ... .. . ... : ... .. . ... : ... .. . ... : ... .. . ... : ... .. . ... : ... .. . ...
ROW 13 : F-4 00 . 400 : ... .. . ... : ... .. . ... : ... .. . ... : ... .. . ... : ... .. . ... : ... .. . ... : ... .. 1 ...
ROW 14 : ... .. . ... : ... .. . ... : ... .. . ... : ... .. . ... : ... .. . ... : ... .. . ... : ... .. . ... : ... .. 3 ...
ROW 15 : ... .. . 485 : ... .. . ... : ... .. . ... : ... .. . ... : ... .. . ... : ... .. . ... : ... .. . ... : ... .. 2 ...
ROW 16 : ... .. . ... : ... .. . ... : ... .. . ... : ... .. . ... : ... .. . ... : ... .. . ... : ... .. . ... : ... .. . ...
ROW 17 : D#4 00 . 400 : ... .. . ... : ... .. . ... : ... .. . ... : ... .. . ... : ... .. . ... : ... .. . ... : ... .. 1 ...
ROW 18 : ... .. . ... : ... .. . ... : A#1 03 F ... : ... .. . ... : ... .. . ... : ... .. . ... : ... .. . ... : ... .. 2 05A
ROW 19 : C-4 00 . ... : ... .. . ... : ... .. . ... : ... .. . ... : ... .. . ... : ... .. . ... : ... .. . ... : ... .. . ...
ROW 1A : ... .. . ... : ... .. . ... : ... .. . ... : ... .. . ... : ... .. . ... : ... .. . ... : ... .. . ... : ... .. 1 ...
ROW 1B : D-4 00 . ... : ... .. . ... : ... .. . ... : ... .. . ... : ... .. . ... : ... .. . ... : ... .. . ... : ... .. 0 ...
ROW 1C : ... .. . S02 : ... .. . ... : ... .. . ... : ... .. . ... : ... .. . ... : ... .. . ... : ... .. . ... : ... .. 2 ...
ROW 1D : D-4 00 . ... : ... .. . ... : ... .. . S03 : ... .. . ... : ... .. . ... : ... .. . ... : ... .. . ... : ... .. . ...
ROW 1E : ... .. . S02 : ... .. . ... : ... .. . ... : ... .. . ... : ... .. . ... : ... .. . ... : ... .. . ... : ... .. 1 ...
ROW 1F : D-4 00 . ... : ... .. . ... : ... .. . ... : ... .. . ... : ... .. . ... : ... .. . ... : ... .. . ... : ... .. 0 ...
ROW 20 : ... .. . S02 : ... .. . ... : ... .. . ... : ... .. . ... : ... .. . ... : ... .. . ... : ... .. . ... : ... .. 2 ...
ROW 21 : D-4 00 . ... : ... .. . ... : ... .. . ... : ... .. . ... : ... .. . ... : ... .. . ... : ... .. . ... : ... .. . ...
ROW 22 : ... .. . 4A6 : ... .. . ... : ... .. . ... : ... .. . ... : ... .. . ... : ... .. . ... : ... .. . ... : ... .. 1 ...
ROW 23 : C-4 00 . 400 : ... .. . ... : ... .. . ... : ... .. . ... : ... .. . ... : ... .. . ... : ... .. . ... : ... .. 0 ...
ROW 24 : ... .. . ... : ... .. . ... : A#1 03 . ... : ... .. . ... : ... .. . ... : ... .. . ... : ... .. . ... : ... .. 1 059
ROW 25 : A#3 00 . ... : ... .. . ... : ... .. . ... : ... .. . ... : ... .. . ... : ... .. . ... : ... .. . ... : ... .. . ...
ROW 26 : ... .. . ... : ... .. . ... : ... .. . ... : ... .. . ... : ... .. . ... : ... .. . ... : ... .. . ... : ... .. . ...
ROW 27 : C-4 00 . ... : ... .. . ... : ... .. . ... : ... .. . ... : ... .. . ... : ... .. . ... : ... .. . ... : ... .. 0 ...
ROW 28 : ... .. . ... : ... .. . ... : ... .. . ... : ... .. . ... : ... .. . ... : ... .. . ... : ... .. . ... : ... .. 1 ...
ROW 29 : ... .. . 487 : ... .. . ... : ... .. . S03 : ... .. . ... : ... .. . ... : ... .. . ... : ... .. . ... : ... .. . ...
ROW 2A : ... .. . ... : ... .. . ... : ... .. . ... : ... .. . ... : ... .. . ... : ... .. . ... : ... .. . ... : ... .. 0 ...
ROW 2B : ... .. . 400 : ... .. . ... : ... .. . ... : ... .. . ... : ... .. . ... : ... .. . ... : ... .. . ... : ... .. . ...
ROW 2C : G#3 00 . GFF : ... .. . ... : ... .. . ... : ... .. . ... : ... .. . ... : G-3 0C 4 ... : G-3 0C 4 ... : ... .. 1 ...
ROW 2D : A-3 00 . G02 : ... .. . ... : ... .. . ... : ... .. . ... : ... .. . ... : G#3 0C 8 ... : G#3 0C 8 ... : ... .. . ...
ROW 2E : ... .. . ... : ... .. . ... : ... .. . ... : ... .. . ... : ... .. . ... : A#3 0C A ... : A#3 0C A ... : --- .. . ...
ROW 2F : G-3 00 . ... : ... .. . ... : ... .. . ... : ... .. . ... : ... .. . ... : B-3 0C C ... : B-3 0C C ... : ... .. . ...

PATTERN 0E
ROW 00 : ... .. . S02 : ... .. . ... : A#1 03 . ... : ... .. . ... : ... .. . ... : A#3 0C F Q22 : C-4 0C F P7D : ... .. . ...
ROW 01 : F-3 00 . ... : ... .. . ... : ... .. . S02 : ... .. . ... : ... .. . ... : ... .. . ... : ... .. . ... : ... .. . ...
ROW 02 : ... .. . S02 : ... .. . ... : A#1 03 . ... : ... .. . ... : ... .. . ... : ... .. . ... : ... .. . ... : ... .. . ...
ROW 03 : G-3 00 . ... : ... .. . ... : ... .. . S02 : ... .. . ... : ... .. . ... : ... .. . S02 : ... .. . S02 : ... .. . ...
ROW 04 : ... .. . ... : ... .. . ... : A#1 03 . ... : ... .. . ... : ... .. . ... : C-4 0C . ... : C-4 0C . ... : ... .. . ...
ROW 05 : ... .. . 486 : ... .. . ... : ... .. . S03 : ... .. . ... : ... .. . ... : ... .. . ... : ... .. . ... : ... .. . ...
ROW 06 : ... .. . ... : ... .. . ... : A#2 03 . ... : ... .. . ... : ... .. . ... : D#4 0C . ... : D#4 0C . ... : ... .. . ...
ROW 07 : ... .. 1 ... : ... .. . ... : ... .. . S02 : ... .. . ... : ... .. . ... : ... .. . ... : ... .. . ... : ... .. . ...
ROW 08 : ... .. . ... : ... .. . ... : A#1 03 . ... : ... .. . ... : ... .. . ... : C-4 0C . ... : C-4 0C . ... : ... .. . ...
ROW 09 : ... .. . ... : ... .. . ... : ... .. . S02 : ... .. . ... : ... .. . ... : ... .. . ... : ... .. . ... : ... .. . ...
ROW 0A : --- .. . 400 : ... .. . ... : F-2 03 . ... : ... .. . ... : ... .. . ... : F-4 0C . ... : F-4 0C . ... : ... .. . ...
ROW 0B : ... .. . ... : ... .. . ... : ... .. . ... : ... .. . ... : ... .. . ... : ... .. . ... : ... .. . ... : ... .. . ...
ROW 0C : ... .. . ... : ... .. . ... : F#2 03 . ... : ... .. . ... : ... .. . ... : F#4 0C . ... : F#4 0C . ... : ... .. . ...
ROW 0D : ... .. . ... : ... .. . ... : ... .. . S02 : ... .. . ... : ... .. . ... : ... .. . ... : ... .. . ... : ... .. . ...
ROW 0E : ... .. . ... : ... .. . ... : F#1 03 . ... : ... .. . ... : ... .. . ... : ... .. . 485 : ... .. . 485 : ... .. . ...
ROW 0F : ... .. . ... : ... .. . ... : ... .. . S02 : ... .. . ... : ... .. . ... : ... .. . ... : ... .. . ... : ... .. . ...
ROW 10 : ... .. . ... : ... .. . ... : F#2 03 . ... : ... .. . ... : ... .. . ... : F-4 0C . 400 : F-4 0C . 400 : ... .. . ...
ROW 11 : ... .. . ... : ... .. . ... : ... .. . S03 : ... .. . ... : ... .. . ... : ... .. . ... : ... .. . ... : ... .. . ...
ROW 12 : ... .. . ... : ... .. . ... : F#1 03 . ... : ... .. . ... : ... .. . ... : ... .. . 485 : ... .. . 485 : ... .. . ...
ROW 13 : ... .. . ... : ... .. . ... : ... .. . S02 : ... .. . ... : ... .. . ... : ... .. . ... : ... .. . ... : ... .. . ...
ROW 14 : ... .. . ... : ... .. . ... : F#2 03 . ... : ... .. . ... : ... .. . ... : D#4 0C . 400 : D#4 0C . 400 : ... .. . ...
ROW 15 : ... .. . ... : ... .. . ... : ... .. . S02 : ... .. . ... : ... .. . ... : ... .. . ... : ... .. . ... : ... .. . ...
ROW 16 : ... .. . ... : ... .. . ... : F#1 03 . ... : ... .. . ... : ... .. . ... : C-4 0C . ... : C-4 0C . ... : ... .. . ...
ROW 17 : ... .. . ... : ... .. . ... : ... .. . S03 : ... .. . ... : ... .. . ... : ... .. . ... : ... .. . ... : ... .. . ...
ROW 18 : ... .. . ... : ... .. . ... : G#1 03 . ... : ... .. . ... : ... .. . ... : D-4 0C . ... : D-4 0C . ... : ... .. . ...
ROW 19 : ... .. . ... : ... .. . ... : ... .. . S02 : ... .. . ... : ... .. . ... : ... .. . S02 : ... .. . S02 : ... .. . ...
ROW 1A : ... .. . ... : ... .. . ... : G#1 03 . ... : ... .. . ... : ... .. . ... : D-4 0C . ... : D-4 0C . ... : ... .. . ...
ROW 1B : ... .. . ... : ... .. . ... : ... .. . S02 : ... .. . ... : ... .. . ... : ... .. . S02 : ... .. . S02 : ... .. . ...
ROW 1C : ... .. . ... : ... .. . ... : G#1 03 . ... : ... .. . ... : ... .. . ... : D-4 0C . ... : D-4 0C . ... : ... .. . ...
ROW 1D : ... .. . ... : ... .. . ... : ... .. . S03 : ... .. . ... : ... .. . ... : ... .. . S02 : ... .. . S02 : ... .. . ...
ROW 1E : ... .. . ... : ... .. . ... : G#2 03 . ... : ... .. . ... : ... .. . ... : D-4 0C . ... : D-4 0C . ... : ... .. . ...
ROW 1F : ... .. . ... : ... .. . ... : ... .. . S02 : ... .. . ... : ... .. . ... : ... .. . 4A6 : ... .. . 4A6 : ... .. . ...
ROW 20 : ... .. . ... : ... .. . ... : G#1 03 . ... : ... .. . ... : ... .. . ... : C-4 0C . 400 : C-4 0C . 400 : ... .. . ...
ROW 21 : ... .. . ... : ... .. . ... : ... .. . S02 : ... .. . ... : ... .. . ... : ... .. . ... : ... .. . ... : ... .. . ...
ROW 22 : ... .. . ... : ... .. . ... : G#2 03 . ... : ... .. . ... : ... .. . ... : A#3 0C . ... : A#3 0C . ... : ... .. . ...
ROW 23 : ... .. . ... : ... .. . ... : ... .. . S03 : ... .. . ... : ... .. . ... : ... .. . ... : ... .. . ... : ... .. . ...
ROW 24 : ... .. . ... : ... .. . ... : D#2 03 . ... : ... .. . ... : ... .. . ... : C-4 0C . ... : C-4 0C . ... : ... .. . ...
ROW 25 : ... .. . ... : ... .. . ... : ... .. . S02 : ... .. . ... : ... .. . ... : ... .. . ... : ... .. . ... : ... .. . ...
ROW 26 : ... .. . ... : ... .. . ... : D#2 03 . ... : ... .. . ... : ... .. . ... : ... .. . 487 : ... .. . 487 : ... .. . ...
ROW 27 : ... .. . ... : ... .. . ... : ... .. . S02 : ... .. . ... : ... .. . ... : ... .. . ... : ... .. . ... : ... .. . ...
ROW 28 : ... .. . ... : ... .. . ... : D#1 03 . ... : ... .. . ... : ... .. . ... : ... .. . 400 : ... .. . 400 : ... .. . ...
ROW 29 : ... .. . ... : ... .. . ... : ... .. . S03 : ... .. . ... : ... .. . ... : G#3 0C . GFF : G#3 0C . GFF : ... .. . ...
ROW 2A : ... .. . ... : ... .. . ... : D#2 03 . ... : ... .. . ... : ... .. . ... : A-3 0C . G02 : A-3 0C . G02 : ... .. . ...
ROW 2B : ... .. . ... : ... .. . ... : ... .. . S02 : ... .. . ... : ... .. . ... : ... .. . ... : ... .. . ... : ... .. . ...
ROW 2C : ... .. . ... : ... .. . ... : D#1 03 . ... : ... .. . ... : ... .. . ... : G-3 0C . ... : G-3 0C . ... : ... .. . ...
ROW 2D : ... .. . ... : ... .. . ... : ... .. . S02 : ... .. . ... : ... .. . ... : ... .. . S02 : ... .. . S02 : ... .. . ...
ROW 2E : ... .. . ... : ... .. . ... : D#2 03 . ... : ... .. . ... : ... .. . ... : F-3 0C . ... : F-3 0C . ... : ... .. . ...
ROW 2F : ... .. . ... : ... .. . ... : ... .. . S03 : ... .. . ... : ... .. . ... : ... .. . S02 : ... .. . S02 : ... .. . ...

PATTERN 0F
ROW 00 : F-3 00 4 Q22 : ... .. . ... : C-3 0A . ... : ... .. . ... : ... .. . ... : G-3 0C . ... : G-3 0C . ... : ... .. . ...
ROW 01 : ... .. . ... : ... .. . ... : C-2 00 . S02 : ... .. . ... : ... .. . ... : ... .. . ... : ... .. . ... : ... .. . ...
ROW 02 : ... .. . ... : ... .. . ... : C-2 03 . ... : ... .. . ... : ... .. . ... : ... .. . 486 : ... .. . 486 : ... .. . ...
ROW 03 : ... .. . S02 : ... .. . ... : ... .. . S02 : ... .. . ... : ... .. . ... : ... .. . ... : ... .. . ... : ... .. . ...
ROW 04 : G-3 00 . ... : ... .. . ... : C-2 03 . ... : ... .. . ... : ... .. . ... : ... .. 7 ... : ... .. 7 ... : ... .. . ...
ROW 05 : ... .. . ... : ... .. . ... : ... .. . S03 : ... .. . ... : ... .. . ... : ... .. . ... : ... .. . ... : ... .. . ...
ROW 06 : A#3 00 . ... : ... .. . ... : F#3 0B . ... : ... .. . ... : ... .. . ... : ... .. . ... : ... .. . ... : ... .. . ...
ROW 07 : ... .. . ... : ... .. . ... : C-3 00 . S02 : ... .. . ... : ... .. . ... : --- .. . 400 : --- .. . 400 : ... .. . ...
ROW 08 : G-3 00 . ... : ... .. . ... : C-2 03 . ... : ... .. . ... : ... .. . ... : ... .. . ... : ... .. . ... : ... .. . ...
ROW 09 : ... .. . ... : ... .. . ... : ... .. . S02 : ... .. . ... : ... .. . ... : ... .. . ... : ... .. . ... : ... .. . ...
ROW 0A : B-3 00 . ... : ... .. . ... : G-2 03 . ... : ... .. . ... : ... .. . ... : ... .. . ... : ... .. . ... : ... .. . ...
ROW 0B : ... .. . ... : ... .. . ... : ... .. . ... : ... .. . ... : ... .. . ... : ... .. . ... : ... .. . ... : ... .. . ...
ROW 0C : C-4 00 . ... : ... .. . ... : C-3 0A . ... : ... .. . ... : ... .. . ... : ... .. . ... : ... .. . ... : ... .. . ...
ROW 0D : ... .. . ... : ... .. . ... : G#2 00 . S02 : ... .. . ... : ... .. . ... : ... .. . ... : ... .. . ... : ... .. . ...
ROW 0E : ... .. . 485 : ... .. . ... : G#1 03 . ... : ... .. . ... : ... .. . ... : ... .. . ... : ... .. . ... : ... .. . ...
ROW 0F : ... .. . ... : ... .. . ... : ... .. . S02 : ... .. . ... : ... .. . ... : ... .. . ... : ... .. . ... : ... .. . ...
ROW 10 : ... .. . 400 : ... .. . ... : C-3 0A . ... : ... .. . ... : ... .. . ... : ... .. . ... : ... .. . ... : ... .. . ...
ROW 11 : ... .. . ... : ... .. . ... : G#2 00 . S03 : ... .. . ... : ... .. . ... : ... .. . ... : ... .. . ... : ... .. . ...
ROW 12 : ... .. . 485 : ... .. . ... : F#3 0B . ... : ... .. . ... : ... .. . ... : ... .. . ... : ... .. . ... : ... .. . ...
ROW 13 : ... .. . ... : ... .. . ... : G#1 00 . S02 : ... .. . ... : ... .. . ... : ... .. . ... : ... .. . ... : ... .. . ...
ROW 14 : G#3 00 . 400 : ... .. . ... : G#2 03 . ... : ... .. . ... : ... .. . ... : ... .. . ... : ... .. . ... : ... .. . ...
ROW 15 : ... .. . ... : ... .. . ... : ... .. . S02 : ... .. . ... : ... .. . ... : ... .. . ... : ... .. . ... : ... .. . ...
ROW 16 : ... .. . ... : ... .. . ... : G#1 03 . ... : ... .. . ... : ... .. . ... : ... .. . ... : ... .. . ... : ... .. . ...
ROW 17 : ... .. . ... : ... .. . ... : ... .. . S03 : ... .. . ... : ... .. . ... : ... .. . ... : ... .. . ... : ... .. . ...
ROW 18 : A#3 00 . ... : ... .. . ... : C-3 0A . ... : ... .. . ... : ... .. . ... : ... .. . ... : ... .. . ... : ... .. . ...
ROW 19 : ... .. . S02 : ... .. . ... : A#1 00 . S02 : ... .. . ... : ... .. . ... : ... .. . ... : ... .. . ... : ... .. . ...
ROW 1A : A#3 00 . ... : ... .. . ... : A#1 03 . ... : ... .. . ... : ... .. . ... : ... .. . ... : ... .. . ... : ... .. . ...
ROW 1B : ... .. . S02 : ... .. . ... : ... .. . S02 : ... .. . ... : ... .. . ... : ... .. . ... : ... .. . ... : ... .. . ...
ROW 1C : A#3 00 . ... : ... .. . ... : A#1 03 . ... : ... .. . ... : ... .. . ... : ... .. . ... : ... .. . ... : ... .. . ...
ROW 1D : ... .. . S02 : ... .. . ... : ... .. . S03 : ... .. . ... : ... .. . ... : ... .. . ... : ... .. . ... : ... .. . ...
ROW 1E : A#3 00 . ... : ... .. . ... : F#3 0B . ... : ... .. . ... : ... .. . ... : ... .. . ... : ... .. . ... : ... .. . ...
ROW 1F : ... .. . 4A6 : ... .. . ... : A#2 00 . S02 : ... .. . ... : ... .. . ... : ... .. . ... : ... .. . ... : ... .. . ...
ROW 20 : D#3 00 . 400 : ... .. . ... : A#1 03 . ... : ... .. . ... : ... .. . ... : ... .. . ... : ... .. . ... : ... .. . ...
ROW 21 : ... .. . ... : ... .. . ... : ... .. . S02 : ... .. . ... : ... .. . ... : ... .. . ... : ... .. . ... : ... .. . ...
ROW 22 : E-3 00 . ... : ... .. . ... : A#2 03 . ... : ... .. . ... : ... .. . ... : ... .. . ... : ... .. . ... : ... .. . ...
ROW 23 : ... .. . ... : ... .. . ... : ... .. . S03 : ... .. . ... : ... .. . ... : ... .. . ... : ... .. . ... : ... .. . ...
ROW 24 : F-3 00 . ... : ... .. . ... : C-3 0A . ... : ... .. . ... : ... .. . ... : ... .. . ... : ... .. . ... : ... .. . ...
ROW 25 : ... .. . ... : ... .. . ... : F-2 00 . S02 : ... .. . ... : ... .. . ... : ... .. . ... : ... .. . ... : ... .. . ...
ROW 26 : ... .. . 487 : ... .. . ... : F-2 03 . ... : ... .. . ... : ... .. . ... : ... .. . ... : ... .. . ... : ... .. . ...
ROW 27 : ... .. . ... : ... .. . ... : ... .. . S02 : ... .. . ... : ... .. . ... : ... .. . ... : ... .. . ... : ... .. . ...
ROW 28 : ... .. . 400 : ... .. . ... : C-3 0A . ... : ... .. . ... : ... .. . ... : ... .. . ... : ... .. . ... : ... .. . ...
ROW 29 : G#2 00 . GFF : ... .. . ... : F-1 00 . S03 : ... .. . ... : ... .. . ... : ... .. . ... : ... .. . ... : ... .. . ...
ROW 2A : A-2 00 . G02 : ... .. . ... : F#3 0B . ... : ... .. . ... : ... .. . ... : ... .. . ... : ... .. . ... : ... .. . ...
ROW 2B : ... .. . ... : ... .. . ... : F-2 00 . S02 : ... .. . ... : ... .. . ... : ... .. . ... : ... .. . ... : ... .. . ...
ROW 2C : C-3 00 . ... : ... .. . ... : C-3 0A . ... : ... .. . ... : ... .. . ... : ... .. . ... : ... .. . ... : ... .. . ...
ROW 2D : ... .. . S02 : ... .. . ... : F-1 00 . S02 : ... .. . ... : ... .. . ... : ... .. . ... : ... .. . ... : ... .. . ...
ROW 2E : F-3 00 . ... : ... .. . ... : F#3 0B . ... : ... .. . ... : ... .. . ... : ... .. . ... : ... .. . ... : ... .. . ...
ROW 2F : ... .. . S02 : ... .. . ... : F-2 00 . S03 : ... .. . ... : ... .. . ... : ... .. . ... : ... .. . ... : ... .. . ...

PATTERN 10
ROW 00 : D#3 00 . ... : ... .. . ... : C-2 03 . ... : ... .. . ... : ... .. . ... : A#4 0C F Q12 : A#4 0C F Q12 : ... .. . ...
ROW 01 : ... .. . ... : ... .. . ... : ... .. . S02 : ... .. . ... : ... .. . ... : ... .. . ... : ... .. . P7E : ... .. . ...
ROW 02 : ... .. . 486 : ... .. . ... : C-2 03 . ... : ... .. . ... : ... .. . ... : ... .. . ... : ... .. . ... : ... .. . ...
ROW 03 : ... .. . ... : ... .. . ... : ... .. . S02 : ... .. . ... : ... .. . ... : ... .. . S02 : ... .. . S02 : ... .. . ...
ROW 04 : ... .. 2 ... : ... .. . ... : C-2 03 . ... : ... .. . ... : ... .. . ... : C-5 0C . ... : C-5 0C . ... : ... .. . ...
ROW 05 : ... .. . ... : ... .. . ... : ... .. . S02 : ... .. . ... : ... .. . ... : --- .. . ... : --- .. . ... : ... .. . ...
ROW 06 : ... .. . ... : ... .. . ... : C-3 03 . ... : ... .. . ... : ... .. . ... : C-5 0C . ... : C-5 0C . ... : ... .. . ...
ROW 07 : --- .. . 400 : ... .. . ... : ... .. . S02 : ... .. . ... : ... .. . ... : ... .. . 4A4 : ... .. . 4A4 : ... .. . ...
ROW 08 : ... .. . ... : ... .. . ... : C-2 03 . ... : ... .. . ... : ... .. . ... : A#4 0C . 400 : A#4 0C . 400 : ... .. . ...
ROW 09 : ... .. . ... : ... .. . ... : ... .. . S02 : ... .. . ... : ... .. . ... : ... .. . ... : ... .. . ... : ... .. . ...
ROW 0A : ... .. . ... : ... .. . ... : G-2 03 . ... : ... .. . ... : ... .. . ... : G-4 0C . ... : G-4 0C . ... : ... .. . ...
ROW 0B : ... .. . ... : ... .. . ... : ... .. . ... : ... .. . ... : ... .. . ... : ... .. . ... : ... .. . ... : ... .. . ...
ROW 0C : ... .. . ... : ... .. . ... : G#2 03 . ... : ... .. . ... : ... .. . ... : F#4 0C . ... : F#4 0C . P7D : ... .. . ...
ROW 0D : ... .. . ... : ... .. . ... : ... .. . S01 : ... .. . ... : ... .. . ... : ... .. . 485 : ... .. . 485 : ... .. . ...
ROW 0E : ... .. . ... : ... .. . ... : G#1 03 . ... : ... .. . ... : ... .. . ... : ... .. . 486 : ... .. . 486 : ... .. . ...
ROW 0F : ... .. . ... : ... .. . ... : ... .. . S01 : ... .. . ... : ... .. . ... : ... .. 7 ... : ... .. 7 ... : ... .. . ...
ROW 10 : ... .. . ... : ... .. . ... : G#2 03 . ... : ... .. . ... : ... .. . ... : F-4 0C F 400 : F-4 0C F 400 : ... .. . ...
ROW 11 : ... .. . ... : ... .. . ... : ... .. . S02 : ... .. . ... : ... .. . ... : ... .. . ... : ... .. . ... : ... .. . ...
ROW 12 : ... .. . ... : ... .. . ... : G#1 03 . ... : ... .. . ... : ... .. . ... : ... .. . 485 : ... .. . 485 : ... .. . ...
ROW 13 : ... .. . ... : ... .. . ... : ... .. . S01 : ... .. . ... : ... .. . ... : ... .. . ... : ... .. . ... : ... .. . ...
ROW 14 : ... .. . ... : ... .. . ... : G#2 03 . ... : ... .. . ... : ... .. . ... : D#4 0C . 400 : D#4 0C . 400 : ... .. . ...
ROW 15 : ... .. . ... : ... .. . ... : ... .. . S01 : ... .. . ... : ... .. . ... : ... .. . ... : ... .. . ... : ... .. . ...
ROW 16 : ... .. . ... : ... .. . ... : G#1 03 . ... : ... .. . ... : ... .. . ... : C-4 0C . ... : C-4 0C . ... : ... .. . ...
ROW 17 : ... .. . ... : ... .. . ... : ... .. . S02 : ... .. . ... : ... .. . ... : B-4 0C . GFF : B-4 0C . GFF : ... .. . ...
ROW 18 : ... .. . ... : ... .. . ... : A#1 03 . ... : ... .. . ... : ... .. . ... : C-5 0C . G02 : C-5 0C . G02 : ... .. . ...
ROW 19 : ... .. . ... : ... .. . ... : --- .. . ... : ... .. . ... : ... .. . ... : ... .. . S02 : ... .. . S02 : ... .. . ...
ROW 1A : ... .. . ... : ... .. . ... : A#1 03 . ... : ... .. . ... : ... .. . ... : C-5 0C . ... : C-5 0C . P7E : ... .. . ...
ROW 1B : ... .. . ... : ... .. . ... : --- .. . ... : ... .. . ... : ... .. . ... : ... .. . S02 : ... .. . S02 : ... .. . ...
ROW 1C : ... .. . ... : ... .. . ... : A#1 03 . ... : ... .. . ... : ... .. . ... : C-5 0C . ... : C-5 0C . ... : ... .. . ...
ROW 1D : ... .. . ... : ... .. . ... : ... .. . S01 : ... .. . ... : ... .. . ... : ... .. . S02 : ... .. . S02 : ... .. . ...
ROW 1E : ... .. . ... : ... .. . ... : A#2 03 . ... : ... .. . ... : ... .. . ... : C-5 0C . ... : C-5 0C . ... : ... .. . ...
ROW 1F : ... .. . ... : ... .. . ... : --- .. . ... : ... .. . ... : ... .. . ... : ... .. . 4A4 : ... .. . 4A4 : ... .. . ...
ROW 20 : ... .. . ... : ... .. . ... : A#1 03 . ... : ... .. . ... : ... .. . ... : A#4 0C . 400 : A#4 0C . 400 : ... .. . ...
ROW 21 : ... .. . ... : ... .. . ... : --- .. . ... : ... .. . ... : ... .. . ... : ... .. . ... : ... .. . ... : ... .. . ...
ROW 22 : ... .. . ... : ... .. . ... : A#2 03 . ... : ... .. . ... : ... .. . ... : G-4 0C . ... : G-4 0C . ... : ... .. . ...
ROW 23 : ... .. . ... : ... .. . ... : ... .. . S01 : ... .. . ... : ... .. . ... : ... .. . ... : ... .. . ... : ... .. . ...
ROW 24 : ... .. . ... : ... .. . ... : F-2 03 . S04 : ... .. . ... : ... .. . ... : F#4 0C . ... : F#4 0C . P7D : ... .. . ...
ROW 25 : ... .. . ... : ... .. . ... : ... .. . ... : ... .. . ... : ... .. . ... : ... .. . 485 : ... .. . 485 : ... .. . ...
ROW 26 : ... .. . ... : ... .. . ... : F-2 03 . S04 : ... .. . ... : ... .. . ... : ... .. . 486 : ... .. . 486 : ... .. . ...
ROW 27 : ... .. . ... : ... .. . ... : ... .. . ... : ... .. . ... : ... .. . ... : ... .. 7 ... : ... .. 7 ... : ... .. . ...
ROW 28 : ... .. . ... : ... .. . ... : F-1 03 . ... : ... .. . ... : ... .. . ... : F-4 0C F 400 : F-4 0C F 400 : ... .. . ...
ROW 29 : ... .. . ... : ... .. . ... : --- .. . ... : ... .. . ... : ... .. . ... : ... .. . ... : ... .. . ... : ... .. . ...
ROW 2A : ... .. . ... : ... .. . ... : F-2 03 . S03 : ... .. . ... : ... .. . ... : ... .. . 485 : ... .. . 485 : ... .. . ...
ROW 2B : ... .. . ... : ... .. . ... : ... .. . ... : ... .. . ... : ... .. . ... : ... .. . ... : ... .. . ... : ... .. . ...
ROW 2C : ... .. . ... : ... .. . ... : F-1 03 . S02 : ... .. . ... : ... .. . ... : D#4 0C . 400 : D#4 0C . 400 : ... .. . ...
ROW 2D : ... .. . ... : ... .. . ... : ... .. . ... : ... .. . ... : ... .. . ... : ... .. . ... : ... .. . ... : ... .. . ...
ROW 2E : ... .. . ... : ... .. . ... : F-2 03 . S02 : ... .. . ... : ... .. . ... : C-4 0C . ... : C-4 0C . ... : ... .. . ...
ROW 2F : ... .. . ... : ... .. . ... : ... .. . ... : ... .. . ... : ... .. . ... : ... .. . ... : ... .. . ... : ... .. . ...

PATTERN 11
ROW 00 : ... .. . ... : ... .. . ... : ... .. . ... : ... .. . ... : ... .. . ... : D#4 0C . ... : D#4 0C . ... : ... .. . ...
ROW 01 : ... .. . ... : ... .. . ... : ... .. . ... : ... .. . ... : ... .. . ... : ... .. . ... : ... .. . ... : ... .. . ...
ROW 02 : ... .. . ... : ... .. . ... : ... .. . ... : ... .. . ... : ... .. . ... : D-4 0C . ... : D-4 0C . ... : ... .. . ...
ROW 03 : A#4 00 2 Q12 : ... .. . ... : ... .. . ... : ... .. . ... : ... .. . ... : ... .. . ... : ... .. . ... : ... .. . ...
ROW 04 : ... .. . ... : ... .. . ... : ... .. . ... : ... .. . ... : ... .. . ... : C-4 0C . ... : C-4 0C . ... : ... .. . ...
ROW 05 : ... .. . ... : ... .. . ... : ... .. . ... : ... .. . ... : ... .. . ... : ... .. . ... : ... .. . ... : ... .. . ...
ROW 06 : ... .. . S02 : ... .. . ... : ... .. . ... : ... .. . ... : ... .. . ... : ... .. . 486 : ... .. . 486 : ... .. . ...
ROW 07 : C-5 00 . ... : ... .. . ... : ... .. . ... : ... .. . ... : ... .. . ... : ... .. . ... : ... .. . ... : ... .. . ...
ROW 08 : --- .. . ... : ... .. . ... : ... .. . ... : ... .. . ... : ... .. . ... : ... .. 7 ... : ... .. 7 ... : ... .. . ...
ROW 09 : C-5 00 . ... : ... .. . ... : ... .. . ... : ... .. . ... : ... .. . ... : ... .. . ... : ... .. . ... : ... .. . ...
ROW 0A : ... .. . 4A4 : ... .. . ... : ... .. . ... : ... .. . ... : ... .. . ... : ... .. . ... : ... .. . ... : ... .. . ...
ROW 0B : A#4 00 . 400 : ... .. . ... : ... .. . ... : ... .. . ... : ... .. . ... : --- .. . 400 : --- .. . 400 : ... .. . ...
ROW 0C : ... .. . ... : ... .. . ... : ... .. . ... : ... .. . ... : ... .. . ... : ... .. . ... : ... .. . ... : ... .. . ...
ROW 0D : G-4 00 . ... : ... .. . ... : ... .. . ... : ... .. . ... : ... .. . ... : ... .. . ... : ... .. . ... : ... .. . ...
ROW 0E : ... .. . ... : ... .. . ... : ... .. . ... : ... .. . ... : ... .. . ... : ... .. . ... : ... .. . ... : ... .. . ...
ROW 0F : F#4 00 . ... : ... .. . ... : ... .. . ... : ... .. . ... : ... .. . ... : ... .. . ... : ... .. . ... : ... .. . ...
ROW 10 : ... .. . 485 : ... .. . ... : ... .. . ... : ... .. . ... : ... .. . ... : ... .. . ... : ... .. . ... : ... .. . ...
ROW 11 : ... .. . 486 : ... .. . ... : ... .. . ... : ... .. . ... : ... .. . ... : ... .. . ... : ... .. . ... : ... .. . ...
ROW 12 : ... .. 1 ... : ... .. . ... : ... .. . ... : ... .. . ... : ... .. . ... : ... .. . ... : ... .. . ... : ... .. . ...
ROW 13 : F-4 00 2 400 : ... .. . ... : ... .. . ... : ... .. . ... : ... .. . ... : ... .. . ... : ... .. . ... : ... .. . ...
ROW 14 : ... .. . ... : ... .. . ... : ... .. . ... : ... .. . ... : ... .. . ... : ... .. . ... : ... .. . ... : ... .. . ...
ROW 15 : ... .. . 485 : ... .. . ... : ... .. . ... : ... .. . ... : ... .. . ... : ... .. . ... : ... .. . ... : ... .. . ...
ROW 16 : ... .. . ... : ... .. . ... : ... .. . ... : ... .. . ... : ... .. . ... : ... .. . ... : ... .. . ... : ... .. . ...
ROW 17 : D#4 00 . 400 : ... .. . ... : ... .. . ... : ... .. . ... : ... .. . ... : ... .. . ... : ... .. . ... : ... .. . ...
ROW 18 : ... .. . ... : ... .. . ... : ... .. . ... : ... .. . ... : ... .. . ... : ... .. . ... : ... .. . ... : ... .. . ...
ROW 19 : C-4 00 . ... : ... .. . ... : ... .. . ... : ... .. . ... : ... .. . ... : ... .. . ... : ... .. . ... : ... .. . ...
ROW 1A : B-4 00 . GFF : ... .. . ... : ... .. . ... : ... .. . ... : ... .. . ... : ... .. . ... : ... .. . ... : ... .. . ...
ROW 1B : C-5 00 . G02 : ... .. . ... : ... .. . ... : ... .. . ... : ... .. . ... : ... .. . ... : ... .. . ... : ... .. . ...
ROW 1C : ... .. . S02 : ... .. . ... : ... .. . ... : ... .. . ... : ... .. . ... : ... .. . ... : ... .. . ... : ... .. . ...
ROW 1D : C-5 00 . ... : ... .. . ... : ... .. . ... : ... .. . ... : ... .. . ... : ... .. . ... : ... .. . ... : ... .. . ...
ROW 1E : ... .. . S02 : ... .. . ... : ... .. . ... : ... .. . ... : ... .. . ... : ... .. . ... : ... .. . ... : ... .. . ...
ROW 1F : C-5 00 . ... : ... .. . ... : ... .. . ... : ... .. . ... : ... .. . ... : ... .. . ... : ... .. . ... : ... .. . ...
ROW 20 : ... .. . S02 : ... .. . ... : ... .. . ... : ... .. . ... : ... .. . ... : ... .. . ... : ... .. . ... : ... .. . ...
ROW 21 : C-5 00 . ... : ... .. . ... : ... .. . ... : ... .. . ... : ... .. . ... : ... .. . ... : ... .. . ... : ... .. . ...
ROW 22 : ... .. . 4A4 : ... .. . ... : ... .. . ... : ... .. . ... : ... .. . ... : ... .. . ... : ... .. . ... : ... .. . ...
ROW 23 : A#4 00 . 400 : ... .. . ... : ... .. . ... : ... .. . ... : ... .. . ... : ... .. . ... : ... .. . ... : ... .. . ...
ROW 24 : ... .. . ... : ... .. . ... : ... .. . ... : ... .. . ... : ... .. . ... : ... .. . ... : ... .. . ... : ... .. . ...
ROW 25 : G-4 00 . ... : ... .. . ... : ... .. . ... : ... .. . ... : ... .. . ... : ... .. . ... : ... .. . ... : ... .. . ...
ROW 26 : ... .. . ... : ... .. . ... : ... .. . ... : ... .. . ... : ... .. . ... : ... .. . ... : ... .. . ... : ... .. . ...
ROW 27 : F#4 00 . ... : ... .. . ... : ... .. . ... : ... .. . ... : ... .. . ... : ... .. . ... : ... .. . ... : ... .. . ...
ROW 28 : ... .. . 485 : ... .. . ... : ... .. . ... : ... .. . ... : ... .. . ... : ... .. . ... : ... .. . ... : ... .. . ...
ROW 29 : ... .. . 486 : ... .. . ... : ... .. . ... : ... .. . ... : ... .. . ... : ... .. . ... : ... .. . ... : ... .. . ...
ROW 2A : ... .. 1 ... : ... .. . ... : ... .. . ... : ... .. . ... : ... .. . ... : ... .. . ... : ... .. . ... : ... .. . ...
ROW 2B : F-4 00 2 400 : ... .. . ... : ... .. . ... : ... .. . ... : ... .. . ... : ... .. . ... : ... .. . ... : ... .. . ...
ROW 2C : ... .. . ... : ... .. . ... : ... .. . ... : ... .. . ... : ... .. . ... : ... .. . ... : ... .. . ... : ... .. . ...
ROW 2D : ... .. . 485 : ... .. . ... : ... .. . ... : ... .. . ... : ... .. . ... : ... .. . ... : ... .. . ... : ... .. . ...
ROW 2E : ... .. . ... : ... .. . ... : ... .. . ... : ... .. . ... : ... .. . ... : ... .. . ... : ... .. . ... : ... .. . ...
ROW 2F : D#4 00 . 400 : ... .. . ... : ... .. . ... : ... .. . ... : ... .. . ... : ... .. . ... : ... .. . ... : ... .. . ...

PATTERN 12
ROW 00 : ... .. . ... : ... .. . ... : ... .. . ... : ... .. . ... : ... .. . ... : C-5 0C F ... : C-5 0C F ... : ... .. . ...
ROW 01 : C-4 00 . ... : ... .. . ... : ... .. . ... : ... .. . ... : ... .. . ... : A#4 0C . ... : A#4 0C . ... : ... .. . ...
ROW 02 : ... .. . ... : ... .. . ... : ... .. . ... : ... .. . ... : ... .. . ... : G-4 0C . ... : G-4 0C . ... : ... .. . ...
ROW 03 : D#4 00 . ... : ... .. . ... : ... .. . ... : ... .. . ... : ... .. . ... : C-5 0C D ... : C-5 0C D ... : ... .. . ...
ROW 04 : ... .. . ... : ... .. . ... : ... .. . ... : ... .. . ... : ... .. . ... : A#4 0C . ... : A#4 0C . ... : ... .. . ...
ROW 05 : D-4 00 . ... : ... .. . ... : ... .. . ... : ... .. . ... : ... .. . ... : G-4 0C . ... : G-4 0C . ... : ... .. . ...
ROW 06 : ... .. . ... : ... .. . ... : ... .. . ... : ... .. . ... : ... .. . ... : C-5 0C B ... : C-5 0C B ... : ... .. . ...
ROW 07 : C-4 00 . ... : ... .. . ... : ... .. . ... : ... .. . ... : ... .. . ... : A#4 0C . ... : A#4 0C . ... : ... .. . ...
ROW 08 : ... .. . ... : ... .. . ... : ... .. . ... : ... .. . ... : ... .. . ... : G-4 0C . ... : G-4 0C . ... : ... .. . ...
ROW 09 : ... .. . 486 : ... .. . ... : ... .. . ... : ... .. . ... : ... .. . ... : C-5 0C D ... : C-5 0C D ... : ... .. . ...
ROW 0A : ... .. . ... : ... .. . ... : ... .. . ... : ... .. . ... : ... .. . ... : A#4 0C . ... : A#4 0C . ... : ... .. . ...
ROW 0B : ... .. 1 ... : ... .. . ... : ... .. . ... : ... .. . ... : ... .. . ... : G-4 0C . ... : G-4 0C . ... : ... .. . ...
ROW 0C : ... .. . ... : ... .. . ... : ... .. . ... : ... .. . ... : ... .. . ... : C-5 0C F ... : C-5 0C F ... : ... .. . ...
ROW 0D : ... .. . ... : ... .. . ... : ... .. . ... : ... .. . ... : ... .. . ... : A#4 0C . ... : A#4 0C . ... : ... .. . ...
ROW 0E : --- .. . 400 : ... .. . ... : ... .. . ... : ... .. . ... : ... .. . ... : G-4 0C . ... : G-4 0C . ... : ... .. . ...
ROW 0F : ... .. . ... : ... .. . ... : ... .. . ... : ... .. . ... : ... .. . ... : C-5 0C D ... : C-5 0C D ... : ... .. . ...
ROW 10 : ... .. . ... : ... .. . ... : ... .. . ... : ... .. . ... : ... .. . ... : A#4 0C . ... : A#4 0C . ... : ... .. . ...
ROW 11 : ... .. . ... : ... .. . ... : ... .. . ... : ... .. . ... : ... .. . ... : G-4 0C . ... : G-4 0C . ... : ... .. . ...
ROW 12 : ... .. . ... : ... .. . ... : ... .. . ... : ... .. . ... : ... .. . ... : C-5 0C B ... : C-5 0C B ... : ... .. . ...
ROW 13 : ... .. . ... : ... .. . ... : ... .. . ... : ... .. . ... : ... .. . ... : A#4 0C . ... : A#4 0C . ... : ... .. . ...
ROW 14 : ... .. . ... : ... .. . ... : ... .. . ... : ... .. . ... : ... .. . ... : G-4 0C . ... : G-4 0C . ... : ... .. . ...
ROW 15 : ... .. . ... : ... .. . ... : ... .. . ... : ... .. . ... : ... .. . ... : C-5 0C D ... : C-5 0C D ... : ... .. . ...
ROW 16 : ... .. . ... : ... .. . ... : ... .. . ... : ... .. . ... : ... .. . ... : A#4 0C . ... : A#4 0C . ... : ... .. . ...
ROW 17 : ... .. . ... : ... .. . ... : ... .. . ... : ... .. . ... : ... .. . ... : G-4 0C . ... : G-4 0C . ... : ... .. . ...
ROW 18 : ... .. . ... : ... .. . ... : ... .. . ... : ... .. . ... : ... .. . ... : C-5 0C F ... : C-5 0C F ... : ... .. . ...
ROW 19 : ... .. . ... : ... .. . ... : ... .. . ... : ... .. . ... : ... .. . ... : A#4 0C . ... : A#4 0C . ... : ... .. . ...
ROW 1A : ... .. . ... : ... .. . ... : ... .. . ... : ... .. . ... : ... .. . ... : G-4 0C . ... : G-4 0C . ... : ... .. . ...
ROW 1B : ... .. . ... : ... .. . ... : ... .. . ... : ... .. . ... : ... .. . ... : C-5 0C D ... : C-5 0C D ... : ... .. . ...
ROW 1C : ... .. . ... : ... .. . ... : ... .. . ... : ... .. . ... : ... .. . ... : A#4 0C . ... : A#4 0C . ... : ... .. . ...
ROW 1D : ... .. . ... : ... .. . ... : ... .. . ... : ... .. . ... : ... .. . ... : G-4 0C . ... : G-4 0C . ... : ... .. . ...
ROW 1E : ... .. . ... : ... .. . ... : ... .. . ... : ... .. . ... : ... .. . ... : C-5 0C B ... : C-5 0C B ... : ... .. . ...
ROW 1F : ... .. . ... : ... .. . ... : ... .. . ... : ... .. . ... : ... .. . ... : A#4 0C . ... : A#4 0C . ... : ... .. . ...
ROW 20 : ... .. . ... : ... .. . ... : ... .. . ... : ... .. . ... : ... .. . ... : G-4 0C . ... : G-4 0C . ... : ... .. . ...
ROW 21 : ... .. . ... : ... .. . ... : ... .. . ... : ... .. . ... : ... .. . ... : C-5 0C D ... : C-5 0C D ... : ... .. . ...
ROW 22 : ... .. . ... : ... .. . ... : ... .. . ... : ... .. . ... : ... .. . ... : A#4 0C . ... : A#4 0C . ... : ... .. . ...
ROW 23 : ... .. . ... : ... .. . ... : ... .. . ... : ... .. . ... : ... .. . ... : G-4 0C . ... : G-4 0C . ... : ... .. . ...
ROW 24 : ... .. . ... : ... .. . ... : ... .. . ... : ... .. . ... : ... .. . ... : C-5 0C F ... : C-5 0C F ... : ... .. . ...
ROW 25 : ... .. . ... : ... .. . ... : ... .. . ... : ... .. . ... : ... .. . ... : A#4 0C . ... : A#4 0C . ... : ... .. . ...
ROW 26 : ... .. . ... : ... .. . ... : ... .. . ... : ... .. . ... : ... .. . ... : G-4 0C . ... : G-4 0C . ... : ... .. . ...
ROW 27 : ... .. . ... : ... .. . ... : ... .. . ... : ... .. . ... : ... .. . ... : C-5 0C D ... : C-5 0C D ... : ... .. . ...
ROW 28 : ... .. . ... : ... .. . ... : ... .. . ... : ... .. . ... : ... .. . ... : A#4 0C . ... : A#4 0C . ... : ... .. . ...
ROW 29 : ... .. . ... : ... .. . ... : ... .. . ... : ... .. . ... : ... .. . ... : G-4 0C . ... : G-4 0C . ... : ... .. . ...
ROW 2A : ... .. . ... : ... .. . ... : ... .. . ... : ... .. . ... : ... .. . ... : C-5 0C B ... : C-5 0C B ... : ... .. . ...
ROW 2B : ... .. . ... : ... .. . ... : ... .. . ... : ... .. . ... : ... .. . ... : A#4 0C . ... : A#4 0C . ... : ... .. . ...
ROW 2C : ... .. . ... : ... .. . ... : ... .. . ... : ... .. . ... : ... .. . ... : G-4 0C . ... : G-4 0C . ... : ... .. . ...
ROW 2D : ... .. . ... : ... .. . ... : ... .. . ... : ... .. . ... : ... .. . ... : C-5 0C D ... : C-5 0C D ... : ... .. . ...
ROW 2E : ... .. . ... : ... .. . ... : ... .. . ... : ... .. . ... : ... .. . ... : A#4 0C . ... : A#4 0C . ... : ... .. . ...
ROW 2F : ... .. . ... : ... .. . ... : ... .. . ... : ... .. . ... : ... .. . ... : G-4 0C . ... : G-4 0C . ... : ... .. . ...

PATTERN 13
ROW 00 : F-4 00 4 Q12 : ... .. . ... : ... .. . ... : ... .. . ... : ... .. . ... : C-5 0C F ... : C-5 0C F ... : ... .. . ...
ROW 01 : ... .. . ... : ... .. . ... : ... .. . ... : ... .. . ... : ... .. . ... : ... .. . S02 : ... .. . S02 : ... .. . ...
ROW 02 : ... .. . ... : ... .. . ... : ... .. . ... : ... .. . ... : ... .. . ... : C-5 0C . ... : C-5 0C . ... : ... .. . ...
ROW 03 : ... .. . S02 : ... .. . ... : ... .. . ... : ... .. . ... : ... .. . ... : ... .. . S02 : ... .. . S02 : ... .. . ...
ROW 04 : G-4 00 . ... : ... .. . ... : ... .. . ... : ... .. . ... : ... .. . ... : C-5 0C . ... : C-5 0C . ... : ... .. . ...
ROW 05 : --- .. . ... : ... .. . ... : ... .. . ... : ... .. . ... : ... .. . ... : ... .. . S02 : ... .. . S02 : ... .. . ...
ROW 06 : G-4 00 . ... : ... .. . ... : ... .. . ... : ... .. . ... : ... .. . ... : C-5 0C . ... : C-5 0C . ... : ... .. . ...
ROW 07 : ... .. . 4A4 : ... .. . ... : ... .. . ... : ... .. . ... : ... .. . ... : ... .. . 4A4 : ... .. . 4A4 : ... .. . ...
ROW 08 : A#3 00 . 400 : ... .. . ... : ... .. . ... : ... .. . ... : ... .. . ... : A#4 0C . 400 : A#4 0C . 400 : ... .. . ...
ROW 09 : ... .. . ... : ... .. . ... : ... .. . ... : ... .. . ... : ... .. . ... : ... .. . ... : ... .. . ... : ... .. . ...
ROW 0A : B-3 00 . ... : ... .. . ... : ... .. . ... : ... .. . ... : ... .. . ... : G-4 0C . ... : G-4 0C . ... : ... .. . ...
ROW 0B : ... .. . ... : ... .. . ... : ... .. . ... : ... .. . ... : ... .. . ... : ... .. . ... : ... .. . ... : ... .. . ...
ROW 0C : C-4 00 . ... : ... .. . ... : ... .. . ... : ... .. . ... : ... .. . ... : F-4 0C . ... : F-4 0C . ... : ... .. . ...
ROW 0D : ... .. . 485 : ... .. . ... : ... .. . ... : ... .. . ... : ... .. . ... : ... .. . 485 : ... .. . 485 : ... .. . ...
ROW 0E : ... .. . 486 : ... .. . ... : ... .. . ... : ... .. . ... : ... .. . ... : ... .. . 486 : ... .. . 486 : ... .. . ...
ROW 0F : ... .. 2 ... : ... .. . ... : ... .. . ... : ... .. . ... : ... .. . ... : ... .. 7 ... : ... .. 7 ... : ... .. . ...
ROW 10 : D#4 00 4 400 : ... .. . ... : ... .. . ... : ... .. . ... : ... .. . ... : D#4 0C F 400 : D#4 0C F 400 : ... .. . ...
ROW 11 : ... .. . ... : ... .. . ... : ... .. . ... : ... .. . ... : ... .. . ... : ... .. . ... : ... .. . ... : ... .. . ...
ROW 12 : ... .. . 485 : ... .. . ... : ... .. . ... : ... .. . ... : ... .. . ... : ... .. . 485 : ... .. . 485 : ... .. . ...
ROW 13 : ... .. . ... : ... .. . ... : ... .. . ... : ... .. . ... : ... .. . ... : ... .. . S02 : ... .. . S02 : ... .. . ...
ROW 14 : C-4 00 . 400 : ... .. . ... : ... .. . ... : ... .. . ... : ... .. . ... : A#3 0C . 400 : A#3 0C . 400 : ... .. . ...
ROW 15 : ... .. . ... : ... .. . ... : ... .. . ... : ... .. . ... : ... .. . ... : C-4 0C . GFF : C-4 0C . GFF : ... .. . ...
ROW 16 : G-3 00 . ... : ... .. . ... : ... .. . ... : ... .. . ... : ... .. . ... : A#4 0C . GFF : A#4 0C . GFF : ... .. . ...
ROW 17 : F#4 00 . GFF : ... .. . ... : ... .. . ... : ... .. . ... : ... .. . ... : B-4 0C . G03 : B-4 0C . G03 : ... .. . ...
ROW 18 : G-4 00 . G02 : ... .. . ... : ... .. . ... : ... .. . ... : ... .. . ... : C-5 0C . G01 : C-5 0C . G01 : ... .. . ...
ROW 19 : ... .. . S02 : ... .. . ... : ... .. . ... : ... .. . ... : ... .. . ... : ... .. . S02 : ... .. . S02 : ... .. . ...
ROW 1A : G-4 00 . ... : ... .. . ... : ... .. . ... : ... .. . ... : ... .. . ... : C-5 0C . ... : C-5 0C . ... : ... .. . ...
ROW 1B : ... .. . S02 : ... .. . ... : ... .. . ... : ... .. . ... : ... .. . ... : ... .. . S02 : ... .. . S02 : ... .. . ...
ROW 1C : A#4 00 . ... : ... .. . ... : ... .. . ... : ... .. . ... : ... .. . ... : C-5 0C . ... : C-5 0C . ... : ... .. . ...
ROW 1D : ... .. . S02 : ... .. . ... : ... .. . ... : ... .. . ... : ... .. . ... : ... .. . S02 : ... .. . S02 : ... .. . ...
ROW 1E : A#4 00 . ... : ... .. . ... : ... .. . ... : ... .. . ... : ... .. . ... : C-5 0C . ... : C-5 0C . ... : ... .. . ...
ROW 1F : ... .. . 4A4 : ... .. . ... : ... .. . ... : ... .. . ... : ... .. . ... : ... .. . 4A4 : ... .. . 4A4 : ... .. . ...
ROW 20 : F#4 00 . 400 : ... .. . ... : ... .. . ... : ... .. . ... : ... .. . ... : A#4 0C . 400 : A#4 0C . 400 : ... .. . ...
ROW 21 : ... .. . ... : ... .. . ... : ... .. . ... : ... .. . ... : ... .. . ... : ... .. . ... : ... .. . ... : ... .. . ...
ROW 22 : F-4 00 . ... : ... .. . ... : ... .. . ... : ... .. . ... : ... .. . ... : G-4 0C . ... : G-4 0C . ... : ... .. . ...
ROW 23 : ... .. . ... : ... .. . ... : ... .. . ... : ... .. . ... : ... .. . ... : ... .. . ... : ... .. . ... : ... .. . ...
ROW 24 : D#4 00 . ... : ... .. . ... : ... .. . ... : ... .. . ... : ... .. . ... : F-4 0C . ... : F-4 0C . ... : ... .. . ...
ROW 25 : ... .. . 485 : ... .. . ... : ... .. . ... : ... .. . ... : ... .. . ... : ... .. . 485 : ... .. . 485 : ... .. . ...
ROW 26 : ... .. . 486 : ... .. . ... : ... .. . ... : ... .. . ... : ... .. . ... : ... .. . 486 : ... .. . 486 : ... .. . ...
ROW 27 : ... .. 2 ... : ... .. . ... : ... .. . ... : ... .. . ... : ... .. . ... : ... .. 7 ... : ... .. 7 ... : ... .. . ...
ROW 28 : C-4 00 4 400 : ... .. . ... : ... .. . ... : ... .. . ... : ... .. . ... : D#4 0C F 400 : D#4 0C F 400 : ... .. . ...
ROW 29 : ... .. . ... : ... .. . ... : ... .. . ... : ... .. . ... : ... .. . ... : ... .. . ... : ... .. . ... : ... .. . ...
ROW 2A : ... .. . 485 : ... .. . ... : ... .. . ... : ... .. . ... : ... .. . ... : ... .. . 485 : ... .. . 485 : ... .. . ...
ROW 2B : ... .. . ... : ... .. . ... : ... .. . ... : ... .. . ... : ... .. . ... : ... .. . S02 : ... .. . S02 : ... .. . ...
ROW 2C : ... .. . 400 : ... .. . ... : ... .. . ... : ... .. . ... : ... .. . ... : A#3 0C . 400 : A#3 0C . 400 : ... .. . ...
ROW 2D : ... .. . ... : ... .. . ... : ... .. . ... : ... .. . ... : ... .. . ... : ... .. . ... : ... .. . ... : ... .. . ...
ROW 2E : G-3 00 . ... : ... .. . ... : ... .. . ... : ... .. . ... : ... .. . ... : C-4 0C . ... : C-4 0C . ... : ... .. . ...
ROW 2F : ... .. . ... : ... .. . ... : ... .. . ... : ... .. . ... : ... .. . ... : ... .. . ... : ... .. . ... : ... .. . ...

PATTERN 14
ROW 00 : F-3 00 . ... : ... .. . ... : ... .. . ... : ... .. . ... : ... .. . ... : ... .. . ... : ... .. . ... : ... .. . ...
ROW 01 : ... .. . ... : ... .. . ... : ... .. . ... : ... .. . ... : ... .. . ... : ... .. . ... : ... .. . ... : ... .. . ...
ROW 02 : F#3 00 . ... : ... .. . ... : ... .. . ... : ... .. . ... : ... .. . ... : ... .. . ... : ... .. . ... : ... .. . ...
ROW 03 : ... .. . ... : ... .. . ... : ... .. . ... : ... .. . ... : ... .. . ... : ... .. . ... : ... .. . ... : ... .. . ...
ROW 04 : G-3 00 . ... : ... .. . ... : ... .. . ... : ... .. . ... : ... .. . ... : ... .. . ... : ... .. . ... : ... .. . ...
ROW 05 : ... .. . ... : ... .. . ... : ... .. . ... : ... .. . ... : ... .. . ... : ... .. . ... : ... .. . ... : ... .. . ...
ROW 06 : ... .. . 486 : ... .. . ... : ... .. . ... : ... .. . ... : ... .. . ... : ... .. . ... : ... .. . ... : ... .. . ...
ROW 07 : ... .. . ... : ... .. . ... : ... .. . ... : ... .. . ... : ... .. . ... : ... .. . ... : ... .. . ... : ... .. . ...
ROW 08 : ... .. 2 ... : ... .. . ... : ... .. . ... : ... .. . ... : ... .. . ... : ... .. . ... : ... .. . ... : ... .. . ...
ROW 09 : ... .. . ... : ... .. . ... : ... .. . ... : ... .. . ... : ... .. . ... : ... .. . ... : ... .. . ... : ... .. . ...
ROW 0A : ... .. . ... : ... .. . ... : ... .. . ... : ... .. . ... : ... .. . ... : ... .. . ... : ... .. . ... : ... .. . ...
ROW 0B : --- .. . 400 : ... .. . ... : ... .. . ... : ... .. . ... : ... .. . ... : ... .. . ... : ... .. . ... : ... .. . ...
ROW 0C : ... .. . P80 : ... .. . ... : ... .. . ... : ... .. . ... : ... .. . ... : ... .. . ... : ... .. . ... : ... .. . ...
ROW 0D : ... .. . ... : ... .. . ... : ... .. . ... : ... .. . ... : ... .. . ... : ... .. . ... : ... .. . ... : ... .. . ...
ROW 0E : ... .. . ... : ... .. . ... : ... .. . ... : ... .. . ... : ... .. . ... : ... .. . ... : ... .. . ... : ... .. . ...
ROW 0F : ... .. . ... : ... .. . ... : ... .. . ... : ... .. . ... : ... .. . ... : ... .. . ... : ... .. . ... : ... .. . ...
ROW 10 : ... .. . ... : ... .. . ... : ... .. . ... : ... .. . ... : ... .. . ... : ... .. . ... : ... .. . ... : ... .. . ...
ROW 11 : ... .. . ... : ... .. . ... : ... .. . ... : ... .. . ... : ... .. . ... : ... .. . ... : ... .. . ... : ... .. . ...
ROW 12 : ... .. . ... : ... .. . ... : ... .. . ... : ... .. . ... : ... .. . ... : ... .. . ... : ... .. . ... : ... .. . ...
ROW 13 : ... .. . ... : ... .. . ... : ... .. . ... : ... .. . ... : ... .. . ... : ... .. . ... : ... .. . ... : ... .. . ...
ROW 14 : ... .. . ... : ... .. . ... : ... .. . ... : ... .. . ... : ... .. . ... : ... .. . ... : ... .. . ... : ... .. . ...
ROW 15 : ... .. . ... : ... .. . ... : ... .. . ... : ... .. . ... : ... .. . ... : ... .. . ... : ... .. . ... : ... .. . ...
ROW 16 : ... .. . ... : ... .. . ... : ... .. . ... : ... .. . ... : ... .. . ... : ... .. . ... : ... .. . ... : ... .. . ...
ROW 17 : ... .. . ... : ... .. . ... : ... .. . ... : ... .. . ... : ... .. . ... : ... .. . ... : ... .. . ... : ... .. . ...
ROW 18 : ... .. . ... : ... .. . ... : ... .. . ... : ... .. . ... : ... .. . ... : ... .. . ... : ... .. . ... : ... .. . ...
ROW 19 : ... .. . ... : ... .. . ... : ... .. . ... : ... .. . ... : ... .. . ... : ... .. . ... : ... .. . ... : ... .. . ...
ROW 1A : ... .. . ... : ... .. . ... : ... .. . ... : ... .. . ... : ... .. . ... : ... .. . ... : ... .. . ... : ... .. . ...
ROW 1B : ... .. . ... : ... .. . ... : ... .. . ... : ... .. . ... : ... .. . ... : ... .. . ... : ... .. . ... : ... .. . ...
ROW 1C : ... .. . ... : ... .. . ... : ... .. . ... : ... .. . ... : ... .. . ... : ... .. . ... : ... .. . ... : ... .. . ...
ROW 1D : ... .. . ... : ... .. . ... : ... .. . ... : ... .. . ... : ... .. . ... : ... .. . ... : ... .. . ... : ... .. . ...
ROW 1E : ... .. . ... : ... .. . ... : ... .. . ... : ... .. . ... : ... .. . ... : ... .. . ... : ... .. . ... : ... .. . ...
ROW 1F : ... .. . ... : ... .. . ... : ... .. . ... : ... .. . ... : ... .. . ... : ... .. . ... : ... .. . ... : ... .. . ...
ROW 20 : ... .. . ... : ... .. . ... : ... .. . ... : ... .. . ... : ... .. . ... : ... .. . ... : ... .. . ... : ... .. . ...
ROW 21 : ... .. . ... : ... .. . ... : ... .. . ... : ... .. . ... : ... .. . ... : ... .. . ... : ... .. . ... : ... .. . ...
ROW 22 : ... .. . ... : ... .. . ... : ... .. . ... : ... .. . ... : ... .. . ... : ... .. . ... : ... .. . ... : ... .. . ...
ROW 23 : ... .. . ... : ... .. . ... : ... .. . ... : ... .. . ... : ... .. . ... : ... .. . ... : ... .. . ... : ... .. . ...
ROW 24 : ... .. . ... : ... .. . ... : ... .. . ... : ... .. . ... : ... .. . ... : ... .. . ... : ... .. . ... : ... .. . ...
ROW 25 : ... .. . ... : ... .. . ... : ... .. . ... : ... .. . ... : ... .. . ... : ... .. . ... : ... .. . ... : ... .. . ...
ROW 26 : ... .. . ... : ... .. . ... : ... .. . ... : ... .. . ... : ... .. . ... : ... .. . ... : ... .. . ... : ... .. . ...
ROW 27 : ... .. . ... : ... .. . ... : ... .. . ... : ... .. . ... : ... .. . ... : ... .. . ... : ... .. . ... : ... .. . ...
ROW 28 : ... .. . ... : ... .. . ... : ... .. . ... : ... .. . ... : ... .. . ... : ... .. . ... : ... .. . ... : ... .. . ...
ROW 29 : ... .. . ... : ... .. . ... : ... .. . ... : ... .. . ... : ... .. . ... : ... .. . ... : ... .. . ... : ... .. . ...
ROW 2A : ... .. . ... : ... .. . ... : ... .. . ... : ... .. . ... : ... .. . ... : ... .. . ... : ... .. . ... : ... .. . ...
ROW 2B : ... .. . ... : ... .. . ... : ... .. . ... : ... .. . ... : ... .. . ... : ... .. . ... : ... .. . ... : ... .. . ...
ROW 2C : ... .. . ... : ... .. . ... : ... .. . ... : ... .. . ... : ... .. . ... : ... .. . ... : ... .. . ... : ... .. . ...
ROW 2D : ... .. . ... : ... .. . ... : ... .. . ... : ... .. . ... : ... .. . ... : ... .. . ... : ... .. . ... : ... .. . ...
ROW 2E : ... .. . ... : ... .. . ... : ... .. . ... : ... .. . ... : ... .. . ... : ... .. . ... : ... .. . ... : ... .. . ...
ROW 2F : ... .. . ... : ... .. . ... : ... .. . ... : ... .. . ... : ... .. . ... : ... .. . ... : ... .. . ... : ... .. . ...

PATTERN 15
ROW 00 : C-5 00 5 V01 : ... .. . ... : ... .. . ... : ... .. . ... : ... .. . ... : ... .. . ... : ... .. . ... : ... .. . ...
ROW 01 : C-4 00 3 V02 : ... .. . ... : ... .. . ... : ... .. . ... : ... .. . ... : ... .. . ... : ... .. . ... : ... .. . ...
ROW 02 : G-4 00 5 V01 : ... .. . ... : ... .. . ... : ... .. . ... : ... .. . ... : ... .. . ... : ... .. . ... : ... .. . ...
ROW 03 : C-5 00 3 V02 : ... .. . ... : ... .. . ... : ... .. . ... : ... .. . ... : ... .. . ... : ... .. . ... : ... .. . ...
ROW 04 : C-4 00 5 V01 : ... .. . ... : ... .. . ... : ... .. . ... : ... .. . ... : ... .. . ... : ... .. . ... : ... .. . ...
ROW 05 : G-4 00 3 V02 : ... .. . ... : ... .. . ... : ... .. . ... : ... .. . ... : ... .. . ... : ... .. . ... : ... .. . ...
ROW 06 : C-5 00 5 V01 : ... .. . ... : ... .. . ... : ... .. . ... : ... .. . ... : ... .. . ... : ... .. . ... : ... .. . ...
ROW 07 : C-4 00 3 V02 : ... .. . ... : ... .. . ... : ... .. . ... : ... .. . ... : ... .. . ... : ... .. . ... : ... .. . ...
ROW 08 : G-4 00 5 V01 : ... .. . ... : ... .. . ... : ... .. . ... : ... .. . ... : ... .. . ... : ... .. . ... : ... .. . ...
ROW 09 : C-5 00 3 V02 : ... .. . ... : ... .. . ... : ... .. . ... : ... .. . ... : ... .. . ... : ... .. . ... : ... .. . ...
ROW 0A : C-4 00 5 V01 : ... .. . ... : ... .. . ... : ... .. . ... : ... .. . ... : ... .. . ... : ... .. . ... : ... .. . ...
ROW 0B : G-4 00 3 V02 : ... .. . ... : ... .. . ... : ... .. . ... : ... .. . ... : ... .. . ... : ... .. . ... : ... .. . ...
ROW 0C : C-5 00 5 V01 : ... .. . ... : ... .. . ... : ... .. . ... : ... .. . ... : ... .. . ... : ... .. . ... : ... .. . ...
ROW 0D : C-4 00 3 V02 : ... .. . ... : ... .. . ... : ... .. . ... : ... .. . ... : ... .. . ... : ... .. . ... : ... .. . ...
ROW 0E : G#4 00 5 V01 : ... .. . ... : ... .. . ... : ... .. . ... : ... .. . ... : ... .. . ... : ... .. . ... : ... .. . ...
ROW 0F : C-5 00 3 V02 : ... .. . ... : ... .. . ... : ... .. . ... : ... .. . ... : ... .. . ... : ... .. . ... : ... .. . ...
ROW 10 : C-4 00 5 V01 : ... .. . ... : ... .. . ... : ... .. . ... : ... .. . ... : ... .. . ... : ... .. . ... : ... .. . ...
ROW 11 : G#4 00 3 V02 : ... .. . ... : ... .. . ... : ... .. . ... : ... .. . ... : ... .. . ... : ... .. . ... : ... .. . ...
ROW 12 : C-5 00 5 V01 : ... .. . ... : ... .. . ... : ... .. . ... : ... .. . ... : ... .. . ... : ... .. . ... : ... .. . ...
ROW 13 : C-4 00 3 V02 : ... .. . ... : ... .. . ... : ... .. . ... : ... .. . ... : ... .. . ... : ... .. . ... : ... .. . ...
ROW 14 : G#4 00 5 V01 : ... .. . ... : ... .. . ... : ... .. . ... : ... .. . ... : ... .. . ... : ... .. . ... : ... .. . ...
ROW 15 : C-5 00 3 V02 : ... .. . ... : ... .. . ... : ... .. . ... : ... .. . ... : ... .. . ... : ... .. . ... : ... .. . ...
ROW 16 : C-4 00 5 V01 : ... .. . ... : ... .. . ... : ... .. . ... : ... .. . ... : ... .. . ... : ... .. . ... : ... .. . ...
ROW 17 : G#4 00 3 V02 : ... .. . ... : ... .. . ... : ... .. . ... : ... .. . ... : ... .. . ... : ... .. . ... : ... .. . ...
ROW 18 : C-5 00 5 V01 : ... .. . ... : ... .. . ... : ... .. . ... : ... .. . ... : ... .. . ... : ... .. . ... : ... .. . ...
ROW 19 : C-4 00 3 V02 : ... .. . ... : ... .. . ... : ... .. . ... : ... .. . ... : ... .. . ... : ... .. . ... : ... .. . ...
ROW 1A : A#4 00 5 V01 : ... .. . ... : ... .. . ... : ... .. . ... : ... .. . ... : ... .. . ... : ... .. . ... : ... .. . ...
ROW 1B : C-5 00 3 V02 : ... .. . ... : ... .. . ... : ... .. . ... : ... .. . ... : ... .. . ... : ... .. . ... : ... .. . ...
ROW 1C : C-4 00 5 V01 : ... .. . ... : ... .. . ... : ... .. . ... : ... .. . ... : ... .. . ... : ... .. . ... : ... .. . ...
ROW 1D : A#4 00 3 V02 : ... .. . ... : ... .. . ... : ... .. . ... : ... .. . ... : ... .. . ... : ... .. . ... : ... .. . ...
ROW 1E : C-5 00 5 V01 : ... .. . ... : ... .. . ... : ... .. . ... : ... .. . ... : ... .. . ... : ... .. . ... : ... .. . ...
ROW 1F : C-4 00 3 V02 : ... .. . ... : ... .. . ... : ... .. . ... : ... .. . ... : ... .. . ... : ... .. . ... : ... .. . ...
ROW 20 : A#4 00 5 V01 : ... .. . ... : ... .. . ... : ... .. . ... : ... .. . ... : ... .. . ... : ... .. . ... : ... .. . ...
ROW 21 : C-5 00 3 V02 : ... .. . ... : ... .. . ... : ... .. . ... : ... .. . ... : ... .. . ... : ... .. . ... : ... .. . ...
ROW 22 : C-4 00 5 V01 : ... .. . ... : ... .. . ... : ... .. . ... : ... .. . ... : ... .. . ... : ... .. . ... : ... .. . ...
ROW 23 : A#4 00 3 V02 : ... .. . ... : ... .. . ... : ... .. . ... : ... .. . ... : ... .. . ... : ... .. . ... : ... .. . ...
ROW 24 : C-5 00 5 V01 : ... .. . ... : ... .. . ... : ... .. . ... : ... .. . ... : ... .. . ... : ... .. . ... : ... .. . ...
ROW 25 : C-4 00 3 V02 : ... .. . ... : ... .. . ... : ... .. . ... : ... .. . ... : ... .. . ... : ... .. . ... : ... .. . ...
ROW 26 : A-4 00 5 V01 : ... .. . ... : ... .. . ... : ... .. . ... : ... .. . ... : ... .. . ... : ... .. . ... : ... .. . ...
ROW 27 : C-5 00 3 V02 : ... .. . ... : ... .. . ... : ... .. . ... : ... .. . ... : ... .. . ... : ... .. . ... : ... .. . ...
ROW 28 : C-4 00 5 V01 : ... .. . ... : ... .. . ... : ... .. . ... : ... .. . ... : ... .. . ... : ... .. . ... : ... .. . ...
ROW 29 : A-4 00 3 V02 : ... .. . ... : ... .. . ... : ... .. . ... : ... .. . ... : ... .. . ... : ... .. . ... : ... .. . ...
ROW 2A : C-5 00 5 V01 : ... .. . ... : ... .. . ... : ... .. . ... : ... .. . ... : ... .. . ... : ... .. . ... : ... .. . ...
ROW 2B : C-4 00 3 V02 : ... .. . ... : ... .. . ... : ... .. . ... : ... .. . ... : ... .. . ... : ... .. . ... : ... .. . ...
ROW 2C : A-4 00 5 V01 : ... .. . ... : ... .. . ... : ... .. . ... : ... .. . ... : ... .. . ... : ... .. . ... : ... .. . ...
ROW 2D : C-5 00 3 V02 : ... .. . ... : ... .. . ... : ... .. . ... : ... .. . ... : ... .. . ... : ... .. . ... : ... .. . ...
ROW 2E : C-4 00 5 V01 : ... .. . ... : ... .. . ... : ... .. . ... : ... .. . ... : ... .. . ... : ... .. . ... : ... .. . ...
ROW 2F : A-4 00 3 V02 : ... .. . ... : ... .. . ... : ... .. . ... : ... .. . ... : ... .. . ... : ... .. . ... : ... .. . ...

PATTERN 16
ROW 00 : C-5 00 5 V01 : ... .. . ... : ... .. . ... : ... .. . ... : ... .. . ... : ... .. . ... : ... .. . ... : ... .. . ...
ROW 01 : C-4 00 3 V02 : ... .. . ... : ... .. . ... : ... .. . ... : ... .. . ... : ... .. . ... : ... .. . ... : ... .. . ...
ROW 02 : G-4 00 5 V01 : ... .. . ... : ... .. . ... : ... .. . ... : ... .. . ... : ... .. . ... : ... .. . ... : ... .. . ...
ROW 03 : C-5 00 3 V02 : ... .. . ... : ... .. . ... : ... .. . ... : ... .. . ... : ... .. . ... : ... .. . ... : ... .. . ...
ROW 04 : C-4 00 5 V01 : ... .. . ... : ... .. . ... : ... .. . ... : ... .. . ... : ... .. . ... : ... .. . ... : ... .. . ...
ROW 05 : G-4 00 3 V02 : ... .. . ... : ... .. . ... : ... .. . ... : ... .. . ... : ... .. . ... : ... .. . ... : ... .. . ...
ROW 06 : C-5 00 5 V01 : ... .. . ... : ... .. . ... : ... .. . ... : ... .. . ... : ... .. . ... : ... .. . ... : ... .. . ...
ROW 07 : C-4 00 3 V02 : ... .. . ... : ... .. . ... : ... .. . ... : ... .. . ... : ... .. . ... : ... .. . ... : ... .. . ...
ROW 08 : G-4 00 5 V01 : ... .. . ... : ... .. . ... : ... .. . ... : ... .. . ... : ... .. . ... : ... .. . ... : ... .. . ...
ROW 09 : C-5 00 3 V02 : ... .. . ... : ... .. . ... : ... .. . ... : ... .. . ... : ... .. . ... : ... .. . ... : ... .. . ...
ROW 0A : C-4 00 5 V01 : ... .. . ... : ... .. . ... : ... .. . ... : ... .. . ... : ... .. . ... : ... .. . ... : ... .. . ...
ROW 0B : G-4 00 3 V02 : ... .. . ... : ... .. . ... : ... .. . ... : ... .. . ... : ... .. . ... : ... .. . ... : ... .. . ...
ROW 0C : C-5 00 5 V01 : ... .. . ... : ... .. . ... : ... .. . ... : ... .. . ... : ... .. . ... : ... .. . ... : ... .. . ...
ROW 0D : C-4 00 2 V02 : ... .. . ... : ... .. . ... : ... .. . ... : ... .. . ... : ... .. . ... : ... .. . ... : ... .. . ...
ROW 0E : G#4 00 5 V01 : ... .. . ... : ... .. . ... : ... .. . ... : ... .. . ... : ... .. . ... : ... .. . ... : ... .. . ...
ROW 0F : C-5 00 2 V02 : ... .. . ... : ... .. . ... : ... .. . ... : ... .. . ... : ... .. . ... : ... .. . ... : ... .. . ...
ROW 10 : C-4 00 5 V01 : ... .. . ... : ... .. . ... : ... .. . ... : ... .. . ... : ... .. . ... : ... .. . ... : ... .. . ...
ROW 11 : G#4 00 2 V02 : ... .. . ... : ... .. . ... : ... .. . ... : ... .. . ... : ... .. . ... : ... .. . ... : ... .. . ...
ROW 12 : C-5 00 5 V01 : ... .. . ... : ... .. . ... : ... .. . ... : ... .. . ... : ... .. . ... : ... .. . ... : ... .. . ...
ROW 13 : C-4 00 2 V02 : ... .. . ... : ... .. . ... : ... .. . ... : ... .. . ... : ... .. . ... : ... .. . ... : ... .. . ...
ROW 14 : G#4 00 5 V01 : ... .. . ... : ... .. . ... : ... .. . ... : ... .. . ... : ... .. . ... : ... .. . ... : ... .. . ...
ROW 15 : C-5 00 2 V02 : ... .. . ... : ... .. . ... : ... .. . ... : ... .. . ... : ... .. . ... : ... .. . ... : ... .. . ...
ROW 16 : C-4 00 5 V01 : ... .. . ... : ... .. . ... : ... .. . ... : ... .. . ... : ... .. . ... : ... .. . ... : ... .. . ...
ROW 17 : G#4 00 2 V02 : ... .. . ... : ... .. . ... : ... .. . ... : ... .. . ... : ... .. . ... : ... .. . ... : ... .. . ...
ROW 18 : C-5 00 4 V01 : ... .. . ... : ... .. . ... : ... .. . ... : ... .. . ... : ... .. . ... : ... .. . ... : ... .. . ...
ROW 19 : C-4 00 2 V02 : ... .. . ... : ... .. . ... : ... .. . ... : ... .. . ... : ... .. . ... : ... .. . ... : ... .. . ...
ROW 1A : A#4 00 4 V01 : ... .. . ... : ... .. . ... : ... .. . ... : ... .. . ... : ... .. . ... : ... .. . ... : ... .. . ...
ROW 1B : C-5 00 2 V02 : ... .. . ... : ... .. . ... : ... .. . ... : ... .. . ... : ... .. . ... : ... .. . ... : ... .. . ...
ROW 1C : C-4 00 4 V01 : ... .. . ... : ... .. . ... : ... .. . ... : ... .. . ... : ... .. . ... : ... .. . ... : ... .. . ...
ROW 1D : A#4 00 2 V02 : ... .. . ... : ... .. . ... : ... .. . ... : ... .. . ... : ... .. . ... : ... .. . ... : ... .. . ...
ROW 1E : C-5 00 4 V01 : ... .. . ... : ... .. . ... : ... .. . ... : ... .. . ... : ... .. . ... : ... .. . ... : ... .. . ...
ROW 1F : C-4 00 2 V02 : ... .. . ... : ... .. . ... : ... .. . ... : ... .. . ... : ... .. . ... : ... .. . ... : ... .. . ...
ROW 20 : A#4 00 4 V01 : ... .. . ... : ... .. . ... : ... .. . ... : ... .. . ... : ... .. . ... : ... .. . ... : ... .. . ...
ROW 21 : C-5 00 2 V02 : ... .. . ... : ... .. . ... : ... .. . ... : ... .. . ... : ... .. . ... : ... .. . ... : ... .. . ...
ROW 22 : C-4 00 4 V01 : ... .. . ... : ... .. . ... : ... .. . ... : ... .. . ... : ... .. . ... : ... .. . ... : ... .. . ...
ROW 23 : A#4 00 2 V02 : ... .. . ... : ... .. . ... : ... .. . ... : ... .. . ... : ... .. . ... : ... .. . ... : ... .. . ...
ROW 24 : C-5 00 3 V01 : ... .. . ... : ... .. . ... : ... .. . ... : ... .. . ... : ... .. . ... : ... .. . ... : ... .. . ...
ROW 25 : C-4 00 2 V02 : ... .. . ... : ... .. . ... : ... .. . ... : ... .. . ... : ... .. . ... : ... .. . ... : ... .. . ...
ROW 26 : A-4 00 3 V01 : ... .. . ... : ... .. . ... : ... .. . ... : ... .. . ... : ... .. . ... : ... .. . ... : ... .. . ...
ROW 27 : C-5 00 2 V02 : ... .. . ... : ... .. . ... : ... .. . ... : ... .. . ... : ... .. . ... : ... .. . ... : ... .. . ...
ROW 28 : C-4 00 3 V01 : ... .. . ... : ... .. . ... : ... .. . ... : ... .. . ... : ... .. . ... : ... .. . ... : ... .. . ...
ROW 29 : A-4 00 2 V02 : ... .. . ... : ... .. . ... : ... .. . ... : ... .. . ... : ... .. . ... : ... .. . ... : ... .. . ...
ROW 2A : C-5 00 3 V01 : ... .. . ... : ... .. . ... : ... .. . ... : ... .. . ... : ... .. . ... : ... .. . ... : ... .. . ...
ROW 2B : C-4 00 2 V02 : ... .. . ... : ... .. . ... : ... .. . ... : ... .. . ... : ... .. . ... : ... .. . ... : ... .. . ...
ROW 2C : A-4 00 3 V01 : ... .. . ... : ... .. . ... : ... .. . ... : ... .. . ... : ... .. . ... : ... .. . ... : ... .. . ...
ROW 2D : C-5 00 2 V02 : ... .. . ... : ... .. . ... : ... .. . ... : ... .. . ... : ... .. . ... : ... .. . ... : ... .. . ...
ROW 2E : C-4 00 3 V01 : ... .. . ... : ... .. . ... : ... .. . ... : ... .. . ... : ... .. . ... : ... .. . ... : ... .. . ...
ROW 2F : A-4 00 2 V02 : ... .. . ... : ... .. . ... : ... .. . ... : ... .. . ... : ... .. . ... : ... .. . ... : ... .. . ...

PATTERN 17
ROW 00 : C-5 00 3 V01 : ... .. . ... : ... .. . ... : ... .. . ... : ... .. . ... : ... .. . ... : ... .. . ... : ... .. . ...
ROW 01 : C-4 00 1 V02 : ... .. . ... : ... .. . ... : ... .. . ... : ... .. . ... : ... .. . ... : ... .. . ... : ... .. . ...
ROW 02 : G-4 00 3 V01 : ... .. . ... : ... .. . ... : ... .. . ... : ... .. . ... : ... .. . ... : ... .. . ... : ... .. . ...
ROW 03 : C-5 00 1 V02 : ... .. . ... : ... .. . ... : ... .. . ... : ... .. . ... : ... .. . ... : ... .. . ... : ... .. . ...
ROW 04 : C-4 00 3 V01 : ... .. . ... : ... .. . ... : ... .. . ... : ... .. . ... : ... .. . ... : ... .. . ... : ... .. . ...
ROW 05 : G-4 00 1 V02 : ... .. . ... : ... .. . ... : ... .. . ... : ... .. . ... : ... .. . ... : ... .. . ... : ... .. . ...
ROW 06 : C-5 00 3 V01 : ... .. . ... : ... .. . ... : ... .. . ... : ... .. . ... : ... .. . ... : ... .. . ... : ... .. . ...
ROW 07 : C-4 00 1 V02 : ... .. . ... : ... .. . ... : ... .. . ... : ... .. . ... : ... .. . ... : ... .. . ... : ... .. . ...
ROW 08 : G-4 00 3 V01 : ... .. . ... : ... .. . ... : ... .. . ... : ... .. . ... : ... .. . ... : ... .. . ... : ... .. . ...
ROW 09 : C-5 00 1 V02 : ... .. . ... : ... .. . ... : ... .. . ... : ... .. . ... : ... .. . ... : ... .. . ... : ... .. . ...
ROW 0A : C-4 00 3 V01 : ... .. . ... : ... .. . ... : ... .. . ... : ... .. . ... : ... .. . ... : ... .. . ... : ... .. . ...
ROW 0B : G-4 00 1 V02 : ... .. . ... : ... .. . ... : ... .. . ... : ... .. . ... : ... .. . ... : ... .. . ... : ... .. . ...
ROW 0C : C-5 00 2 V01 : ... .. . ... : ... .. . ... : ... .. . ... : ... .. . ... : ... .. . ... : ... .. . ... : ... .. . ...
ROW 0D : C-4 00 1 V02 : ... .. . ... : ... .. . ... : ... .. . ... : ... .. . ... : ... .. . ... : ... .. . ... : ... .. . ...
ROW 0E : G#4 00 2 V01 : ... .. . ... : ... .. . ... : ... .. . ... : ... .. . ... : ... .. . ... : ... .. . ... : ... .. . ...
ROW 0F : C-5 00 1 V02 : ... .. . ... : ... .. . ... : ... .. . ... : ... .. . ... : ... .. . ... : ... .. . ... : ... .. . ...
ROW 10 : C-4 00 2 V01 : ... .. . ... : ... .. . ... : ... .. . ... : ... .. . ... : ... .. . ... : ... .. . ... : ... .. . ...
ROW 11 : G#4 00 1 V02 : ... .. . ... : ... .. . ... : ... .. . ... : ... .. . ... : ... .. . ... : ... .. . ... : ... .. . ...
ROW 12 : C-5 00 2 V01 : ... .. . ... : ... .. . ... : ... .. . ... : ... .. . ... : ... .. . ... : ... .. . ... : ... .. . ...
ROW 13 : C-4 00 1 V02 : ... .. . ... : ... .. . ... : ... .. . ... : ... .. . ... : ... .. . ... : ... .. . ... : ... .. . ...
ROW 14 : G#4 00 2 V01 : ... .. . ... : ... .. . ... : ... .. . ... : ... .. . ... : ... .. . ... : ... .. . ... : ... .. . ...
ROW 15 : C-5 00 1 V02 : ... .. . ... : ... .. . ... : ... .. . ... : ... .. . ... : ... .. . ... : ... .. . ... : ... .. . ...
ROW 16 : C-4 00 2 V01 : ... .. . ... : ... .. . ... : ... .. . ... : ... .. . ... : ... .. . ... : ... .. . ... : ... .. . ...
ROW 17 : G#4 00 1 V02 : ... .. . ... : ... .. . ... : ... .. . ... : ... .. . ... : ... .. . ... : ... .. . ... : ... .. . ...
ROW 18 : C-5 00 . V01 : ... .. . ... : ... .. . ... : ... .. . ... : ... .. . ... : ... .. . ... : ... .. . ... : ... .. . ...
ROW 19 : C-4 00 . V02 : ... .. . ... : ... .. . ... : ... .. . ... : ... .. . ... : ... .. . ... : ... .. . ... : ... .. . ...
ROW 1A : A#4 00 . V01 : ... .. . ... : ... .. . ... : ... .. . ... : ... .. . ... : ... .. . ... : ... .. . ... : ... .. . ...
ROW 1B : C-5 00 . V02 : ... .. . ... : ... .. . ... : ... .. . ... : ... .. . ... : ... .. . ... : ... .. . ... : ... .. . ...
ROW 1C : C-4 00 . V01 : ... .. . ... : ... .. . ... : ... .. . ... : ... .. . ... : ... .. . ... : ... .. . ... : ... .. . ...
ROW 1D : A#4 00 . V02 : ... .. . ... : ... .. . ... : ... .. . ... : ... .. . ... : ... .. . ... : ... .. . ... : ... .. . ...
ROW 1E : C-5 00 . V01 : ... .. . ... : ... .. . ... : ... .. . ... : ... .. . ... : ... .. . ... : ... .. . ... : ... .. . ...
ROW 1F : C-4 00 . V02 : ... .. . ... : ... .. . ... : ... .. . ... : ... .. . ... : ... .. . ... : ... .. . ... : ... .. . ...
ROW 20 : A#4 00 . V01 : ... .. . ... : ... .. . ... : ... .. . ... : ... .. . ... : ... .. . ... : ... .. . ... : ... .. . ...
ROW 21 : C-5 00 . V02 : ... .. . ... : ... .. . ... : ... .. . ... : ... .. . ... : ... .. . ... : ... .. . ... : ... .. . ...
ROW 22 : C-4 00 . V01 : ... .. . ... : ... .. . ... : ... .. . ... : ... .. . ... : ... .. . ... : ... .. . ... : ... .. . ...
ROW 23 : A#4 00 . V02 : ... .. . ... : ... .. . ... : ... .. . ... : ... .. . ... : ... .. . ... : ... .. . ... : ... .. . ...
ROW 24 : C-5 00 . V01 : ... .. . ... : ... .. . ... : ... .. . ... : ... .. . ... : ... .. . ... : ... .. . ... : ... .. . ...
ROW 25 : --- .. . ... : ... .. . ... : ... .. . ... : ... .. . ... : ... .. . ... : ... .. . ... : ... .. . ... : ... .. . ...
ROW 26 : A-4 00 . ... : ... .. . ... : ... .. . ... : ... .. . ... : ... .. . ... : ... .. . ... : ... .. . ... : ... .. . ...
ROW 27 : --- 00 . ... : ... .. . ... : ... .. . ... : ... .. . ... : ... .. . ... : ... .. . ... : ... .. . ... : ... .. . ...
ROW 28 : C-4 00 . ... : ... .. . ... : ... .. . ... : ... .. . ... : ... .. . ... : ... .. . ... : ... .. . ... : ... .. . ...
ROW 29 : --- 00 . ... : ... .. . ... : ... .. . ... : ... .. . ... : ... .. . ... : ... .. . ... : ... .. . ... : ... .. . ...
ROW 2A : C-5 00 . ... : ... .. . ... : ... .. . ... : ... .. . ... : ... .. . ... : ... .. . ... : ... .. . ... : ... .. . ...
ROW 2B : --- 00 . ... : ... .. . ... : ... .. . ... : ... .. . ... : ... .. . ... : ... .. . ... : ... .. . ... : ... .. . ...
ROW 2C : A-4 00 . ... : ... .. . ... : ... .. . ... : ... .. . ... : ... .. . ... : ... .. . ... : ... .. . ... : ... .. . ...
ROW 2D : --- 00 . ... : ... .. . ... : ... .. . ... : ... .. . ... : ... .. . ... : ... .. . ... : ... .. . ... : ... .. . ...
ROW 2E : C-4 00 . ... : ... .. . ... : ... .. . ... : ... .. . ... : ... .. . ... : ... .. . ... : ... .. . ... : ... .. . ...
ROW 2F : --- 00 . C00 : ... .. . ... : ... .. . ... : ... .. . ... : ... .. . ... : ... .. . ... : ... .. . ... : ... .. . ...

PATTERN 7F
ROW 00 : --- .. . ... : ... .. . ... : ... .. . ... : ... .. . ... : ... .. . ... : ... .. . ... : ... .. . ... : ... .. . ...
ROW 01 : ... .. . ... : ... .. . ... : ... .. . ... : ... .. . ... : ... .. . ... : ... .. . ... : ... .. . ... : ... .. . ...
ROW 02 : ... .. . ... : ... .. . ... : ... .. . ... : ... .. . ... : ... .. . ... : ... .. . ... : ... .. . ... : ... .. . ...
ROW 03 : ... .. . ... : ... .. . ... : ... .. . ... : ... .. . ... : ... .. . ... : ... .. . ... : ... .. . ... : ... .. . ...
ROW 04 : ... .. . ... : ... .. . ... : ... .. . ... : ... .. . ... : ... .. . ... : ... .. . ... : ... .. . ... : ... .. . ...
ROW 05 : ... .. . ... : ... .. . ... : ... .. . ... : ... .. . ... : ... .. . ... : ... .. . ... : ... .. . ... : ... .. . ...
ROW 06 : ... .. . ... : ... .. . ... : ... .. . ... : ... .. . ... : ... .. . ... : ... .. . ... : ... .. . ... : ... .. . ...
ROW 07 : ... .. . ... : ... .. . ... : ... .. . ... : ... .. . ... : ... .. . ... : ... .. . ... : ... .. . ... : ... .. . ...
ROW 08 : ... .. . ... : ... .. . ... : ... .. . ... : ... .. . ... : ... .. . ... : ... .. . ... : ... .. . ... : ... .. . ...
ROW 09 : ... .. . ... : ... .. . ... : ... .. . ... : ... .. . ... : ... .. . ... : ... .. . ... : ... .. . ... : ... .. . ...
ROW 0A : ... .. . ... : ... .. . ... : ... .. . ... : ... .. . ... : ... .. . ... : ... .. . ... : ... .. . ... : ... .. . ...
ROW 0B : ... .. . ... : ... .. . ... : ... .. . ... : ... .. . ... : ... .. . ... : ... .. . ... : ... .. . ... : ... .. . ...
ROW 0C : ... .. . ... : ... .. . ... : ... .. . ... : ... .. . ... : ... .. . ... : ... .. . ... : ... .. . ... : ... .. . ...
ROW 0D : ... .. . ... : ... .. . ... : ... .. . ... : ... .. . ... : ... .. . ... : ... .. . ... : ... .. . ... : ... .. . ...
ROW 0E : ... .. . ... : ... .. . ... : ... .. . ... : ... .. . ... : ... .. . ... : ... .. . ... : ... .. . ... : ... .. . ...
ROW 0F : ... .. . ... : ... .. . ... : ... .. . ... : ... .. . ... : ... .. . ... : ... .. . ... : ... .. . ... : ... .. . ...
ROW 10 : ... .. . ... : ... .. . ... : ... .. . ... : ... .. . ... : ... .. . ... : ... .. . ... : ... .. . ... : ... .. . ...
ROW 11 : ... .. . ... : ... .. . ... : ... .. . ... : ... .. . ... : ... .. . ... : ... .. . ... : ... .. . ... : ... .. . ...
ROW 12 : ... .. . ... : ... .. . ... : ... .. . ... : ... .. . ... : ... .. . ... : ... .. . ... : ... .. . ... : ... .. . ...
ROW 13 : ... .. . ... : ... .. . ... : ... .. . ... : ... .. . ... : ... .. . ... : ... .. . ... : ... .. . ... : ... .. . ...
ROW 14 : ... .. . ... : ... .. . ... : ... .. . ... : ... .. . ... : ... .. . ... : ... .. . ... : ... .. . ... : ... .. . ...
ROW 15 : ... .. . ... : ... .. . ... : ... .. . ... : ... .. . ... : ... .. . ... : ... .. . ... : ... .. . ... : ... .. . ...
ROW 16 : ... .. . ... : ... .. . ... : ... .. . ... : ... .. . ... : ... .. . ... : ... .. . ... : ... .. . ... : ... .. . ...
ROW 17 : ... .. . ... : ... .. . ... : ... .. . ... : ... .. . ... : ... .. . ... : ... .. . ... : ... .. . ... : ... .. . ...
ROW 18 : ... .. . ... : ... .. . ... : ... .. . ... : ... .. . ... : ... .. . ... : ... .. . ... : ... .. . ... : ... .. . ...
ROW 19 : ... .. . ... : ... .. . ... : ... .. . ... : ... .. . ... : ... .. . ... : ... .. . ... : ... .. . ... : ... .. . ...
ROW 1A : ... .. . ... : ... .. . ... : ... .. . ... : ... .. . ... : ... .. . ... : ... .. . ... : ... .. . ... : ... .. . ...
ROW 1B : ... .. . ... : ... .. . ... : ... .. . ... : ... .. . ... : ... .. . ... : ... .. . ... : ... .. . ... : ... .. . ...
ROW 1C : ... .. . ... : ... .. . ... : ... .. . ... : ... .. . ... : ... .. . ... : ... .. . ... : ... .. . ... : ... .. . ...
ROW 1D : ... .. . ... : ... .. . ... : ... .. . ... : ... .. . ... : ... .. . ... : ... .. . ... : ... .. . ... : ... .. . ...
ROW 1E : ... .. . ... : ... .. . ... : ... .. . ... : ... .. . ... : ... .. . ... : ... .. . ... : ... .. . ... : ... .. . ...
ROW 1F : ... .. . ... : ... .. . ... : ... .. . ... : ... .. . ... : ... .. . ... : ... .. . ... : ... .. . ... : ... .. . ...
ROW 20 : ... .. . ... : ... .. . ... : ... .. . ... : ... .. . ... : ... .. . ... : ... .. . ... : ... .. . ... : ... .. . ...
ROW 21 : ... .. . ... : ... .. . ... : ... .. . ... : ... .. . ... : ... .. . ... : ... .. . ... : ... .. . ... : ... .. . ...
ROW 22 : ... .. . ... : ... .. . ... : ... .. . ... : ... .. . ... : ... .. . ... : ... .. . ... : ... .. . ... : ... .. . ...
ROW 23 : ... .. . ... : ... .. . ... : ... .. . ... : ... .. . ... : ... .. . ... : ... .. . ... : ... .. . ... : ... .. . ...
ROW 24 : ... .. . ... : ... .. . ... : ... .. . ... : ... .. . ... : ... .. . ... : ... .. . ... : ... .. . ... : ... .. . ...
ROW 25 : ... .. . ... : ... .. . ... : ... .. . ... : ... .. . ... : ... .. . ... : ... .. . ... : ... .. . ... : ... .. . ...
ROW 26 : ... .. . ... : ... .. . ... : ... .. . ... : ... .. . ... : ... .. . ... : ... .. . ... : ... .. . ... : ... .. . ...
ROW 27 : ... .. . ... : ... .. . ... : ... .. . ... : ... .. . ... : ... .. . ... : ... .. . ... : ... .. . ... : ... .. . ...
ROW 28 : ... .. . ... : ... .. . ... : ... .. . ... : ... .. . ... : ... .. . ... : ... .. . ... : ... .. . ... : ... .. . ...
ROW 29 : ... .. . ... : ... .. . ... : ... .. . ... : ... .. . ... : ... .. . ... : ... .. . ... : ... .. . ... : ... .. . ...
ROW 2A : ... .. . ... : ... .. . ... : ... .. . ... : ... .. . ... : ... .. . ... : ... .. . ... : ... .. . ... : ... .. . ...
ROW 2B : ... .. . ... : ... .. . ... : ... .. . ... : ... .. . ... : ... .. . ... : ... .. . ... : ... .. . ... : ... .. . ...
ROW 2C : ... .. . ... : ... .. . ... : ... .. . ... : ... .. . ... : ... .. . ... : ... .. . ... : ... .. . ... : ... .. . ...
ROW 2D : ... .. . ... : ... .. . ... : ... .. . ... : ... .. . ... : ... .. . ... : ... .. . ... : ... .. . ... : ... .. . ...
ROW 2E : ... .. . ... : ... .. . ... : ... .. . ... : ... .. . ... : ... .. . ... : ... .. . ... : ... .. . ... : ... .. . ...
ROW 2F : ... .. . ... : ... .. . ... : ... .. . ... : ... .. . ... : ... .. . ... : ... .. . ... : ... .. . ... : ... .. . ...

# End of export
